<svg xmlns="http://www.w3.org/2000/svg" width="500" height="500" version="1.1"><g id="x001"><g><g><g><g><linearGradient id="hair1XMLID_2439_" gradientUnits="userSpaceOnUse" x1="250.0005" y1="216.6245" x2="250.0005" y2="160.4463"><stop offset="0" style="stop-color:#FCFCE4"></stop><stop offset="0.5" style="stop-color:#A0C8DD"></stop><stop offset="1" style="stop-color:#5D6EC5"></stop></linearGradient><path style="fill:url(#hair1XMLID_2439_);stroke:#1E1E1E;stroke-linecap:round;stroke-linejoin:round;" d="M311.484,135.882c-17.021-17.418-41.603-23.852-61.484-20.131c-19.882-3.721-44.464,2.713-61.484,20.131c-13.061,13.365-22.283,30.165-22.283,51.08c0,24.372,15.268,44.372,25.934,48.538c-7.33-33.49-0.484-59.331,5.084-68.5c1.798-2.157,29.369-5.491,52.75-5.619c23.381,0.128,50.952,3.462,52.75,5.619c5.568,9.169,12.414,35.01,5.084,68.5c10.666-4.167,25.934-24.167,25.934-48.538C333.768,166.047,324.545,149.248,311.484,135.882z"></path><linearGradient id="hair1XMLID_2440_" gradientUnits="userSpaceOnUse" x1="205.9526" y1="216.9507" x2="205.9526" y2="160.5878"><stop offset="0" style="stop-color:#FCFCE4"></stop><stop offset="0.5" style="stop-color:#A0C8DD"></stop><stop offset="1" style="stop-color:#5D6EC5"></stop></linearGradient><path style="fill:url(#hair1XMLID_2440_);stroke:#1E1E1E;stroke-linecap:round;stroke-linejoin:round;" d="M222.748,156.503c0,0-9.599,34.967-6.856,63.421c-3.429-6.17-8.913-14.741-9.256-25.369c-4.114,11.999-11.313,30.511-10.971,40.11c0,0-11.655-26.313-3.771-65.05"></path><linearGradient id="hair1XMLID_2441_" gradientUnits="userSpaceOnUse" x1="280.3516" y1="216.9507" x2="280.3516" y2="160.588"><stop offset="0" style="stop-color:#FCFCE4"></stop><stop offset="0.5" style="stop-color:#A0C8DD"></stop><stop offset="1" style="stop-color:#5D6EC5"></stop></linearGradient><path style="fill:url(#hair1XMLID_2441_);stroke:#1E1E1E;stroke-linecap:round;stroke-linejoin:round;" d="M254.112,158.218c0,0,1.028,41.824,36.338,57.25c-1.714-11.999-7.198-25.711-7.198-25.711s17.484,21.255,20.912,30.854c5.485-22.283,1.37-40.453-9.257-64.792"></path><linearGradient id="hair1XMLID_2442_" gradientUnits="userSpaceOnUse" x1="306.5918" y1="216.9507" x2="306.5918" y2="160.5878"><stop offset="0" style="stop-color:#FCFCE4"></stop><stop offset="0.5" style="stop-color:#A0C8DD"></stop><stop offset="1" style="stop-color:#5D6EC5"></stop></linearGradient><path style="fill:url(#hair1XMLID_2442_);stroke:#1E1E1E;stroke-linecap:round;stroke-linejoin:round;" d="M290.108,143.134c0,0,28.111,98.732,6.856,173.466c21.94-13.37,32.911-118.272,21.598-150.497"></path><linearGradient id="hair1XMLID_2443_" gradientUnits="userSpaceOnUse" x1="193.8076" y1="216.9507" x2="193.8076" y2="160.5878"><stop offset="0" style="stop-color:#FCFCE4"></stop><stop offset="0.5" style="stop-color:#A0C8DD"></stop><stop offset="1" style="stop-color:#5D6EC5"></stop></linearGradient><path style="fill:url(#hair1XMLID_2443_);stroke:#1E1E1E;stroke-linecap:round;stroke-linejoin:round;" d="M210.291,143.134c0,0-28.111,98.732-6.856,173.466c-21.939-13.37-32.91-118.272-21.598-150.497"></path><g><linearGradient id="hair1XMLID_2444_" gradientUnits="userSpaceOnUse" x1="229.9077" y1="216.9507" x2="229.9077" y2="160.588"><stop offset="0" style="stop-color:#FCFCE4"></stop><stop offset="0.5" style="stop-color:#A0C8DD"></stop><stop offset="1" style="stop-color:#5D6EC5"></stop></linearGradient><path style="fill:url(#hair1XMLID_2444_);stroke:#1E1E1E;stroke-linecap:round;stroke-linejoin:round;" d="M221.72,154.447c0,1.372-4.114,36.339,13.369,50.394c1.029-23.312,3.429-47.309,3.429-47.309"></path><linearGradient id="hair1XMLID_2445_" gradientUnits="userSpaceOnUse" x1="249.7495" y1="216.9507" x2="249.7495" y2="160.5879"><stop offset="0" style="stop-color:#FCFCE4"></stop><stop offset="0.5" style="stop-color:#A0C8DD"></stop><stop offset="1" style="stop-color:#5D6EC5"></stop></linearGradient><path style="fill:url(#hair1XMLID_2445_);stroke:#1E1E1E;stroke-linecap:round;stroke-linejoin:round;" d="M260.456,144.162c0,0-2.743,57.594,11.312,77.819c-8.228-2.742-13.026-11.655-13.026-11.655s-2.74,11.313,0,14.74c-5.825-2.742-9.939-9.941-9.939-9.941s-2.742,6.514-2.057,8.914c-8.57-6.171-27.083-34.968-15.084-77.82"></path></g></g></g></g><g><g><path style="fill:#FFF0DE;" d="M181.506,181.536c0,0,5.852-11.712,8.195-12.295c2.342-0.585-0.816,19.084-4.1,18.149C182.529,186.513,180.334,184.318,181.506,181.536z"></path><path style="fill:#FFF0DE;" d="M189.619,186.217c0,0,0.45-7.659,2.929-9.365c2.478-1.707,1.757,11.708,0,11.708C190.791,188.56,189.619,189.145,189.619,186.217z"></path><path style="fill:#FFF0DE;" d="M318.494,181.536c0,0-5.853-11.712-8.195-12.295c-2.343-0.585,0.816,19.084,4.1,18.149C317.471,186.513,319.665,184.318,318.494,181.536z"></path><path style="fill:#FFF0DE;" d="M310.381,186.217c0,0-0.451-7.659-2.93-9.365c-2.478-1.707-1.756,11.708,0,11.708C309.209,188.56,310.381,189.145,310.381,186.217z"></path></g><path style="fill:#FFF0DE;" d="M239.911,192.22c0,0,0-11.417,2.635-14.489c2.631-3.074,6.058,14.753,3.074,16.245C242.984,195.294,239.911,195.294,239.911,192.22z"></path><path style="fill:#FFF0DE;" d="M249.573,192.22c-1.761-2.196,0-10.1,0.876-11.417c0.879-1.317,4.391,10.098,2.635,12.294C250.82,195.926,251.328,194.415,249.573,192.22z"></path></g></g></g></svg>