<svg xmlns="http://www.w3.org/2000/svg" width="500" height="500" version="1.1"><g id="x010"><g><linearGradient id="hair1XMLID_2503_" gradientUnits="userSpaceOnUse" x1="250.0005" y1="218" x2="250.0005" y2="180.667"><stop offset="0" style="stop-color:#FCFCE4"></stop><stop offset="0.5" style="stop-color:#A0C8DD"></stop><stop offset="1" style="stop-color:#5D6EC5"></stop></linearGradient><path style="fill:url(#hair1XMLID_2503_);stroke:#1E1E1E;stroke-linecap:round;stroke-linejoin:round;" d="M311.484,135.882c-17.021-17.418-41.603-23.852-61.484-20.131c-19.882-3.721-44.464,2.713-61.484,20.131c-13.061,13.365-22.283,30.165-22.283,51.08c0,24.372,15.268,44.372,25.934,48.538c-7.33-33.49-0.484-59.331,5.084-68.5c1.798-2.157,29.369-5.491,52.75-5.619c23.381,0.128,50.952,3.462,52.75,5.619c5.568,9.169,12.414,35.01,5.084,68.5c10.666-4.167,25.934-24.167,25.934-48.538C333.768,166.047,324.545,149.248,311.484,135.882z"></path><g><g><g><linearGradient id="hair1XMLID_2504_" gradientUnits="userSpaceOnUse" x1="283.4834" y1="223.1665" x2="283.4834" y2="156.1665"><stop offset="0" style="stop-color:#FCFCE4"></stop><stop offset="0.5" style="stop-color:#A0C8DD"></stop><stop offset="1" style="stop-color:#5D6EC5"></stop></linearGradient><path style="fill:url(#hair1XMLID_2504_);stroke:#1E1E1E;stroke-linecap:round;stroke-linejoin:round;" d="M247.153,157.36c0,2.01,4.058,30.089,32.159,48.239c32.161,20.771,29.481,39.53,29.481,39.53s32.16-62.979-13.401-104.52"></path></g><path style="fill:#FFF0DE;" d="M309.048,182.383c0,0-0.451-7.659-2.93-9.365c-2.478-1.707-1.756,11.708,0,11.708C307.876,184.726,309.048,185.312,309.048,182.383z"></path><path style="fill:none;stroke:#1E1E1E;stroke-linecap:round;stroke-linejoin:round;" d="M293.383,159.37c0,0,29.481,28.14,15.411,81.069"></path></g><linearGradient id="hair1XMLID_2505_" gradientUnits="userSpaceOnUse" x1="195.6675" y1="204.3335" x2="195.6675" y2="167.3335"><stop offset="0" style="stop-color:#FCFCE4"></stop><stop offset="0.5" style="stop-color:#A0C8DD"></stop><stop offset="1" style="stop-color:#5D6EC5"></stop></linearGradient><path style="fill:url(#hair1XMLID_2505_);stroke:#1E1E1E;stroke-linecap:round;stroke-linejoin:round;" d="M207.333,164.4c0,0-9.76,6.359-9.09,9.039c0.67,2.681,1.34,10.051,1.34,10.051l-8.04,2.68l6.7,7.37l-8.04,9.38l-1.34,11.391c0,0-18.76-49.58,17.42-75.71"></path><g><linearGradient id="hair1XMLID_2506_" gradientUnits="userSpaceOnUse" x1="242.6147" y1="223.166" x2="242.6147" y2="156.1664"><stop offset="0" style="stop-color:#FCFCE4"></stop><stop offset="0.5" style="stop-color:#A0C8DD"></stop><stop offset="1" style="stop-color:#5D6EC5"></stop></linearGradient><path style="fill:url(#hair1XMLID_2506_);stroke:#1E1E1E;stroke-linecap:round;stroke-linejoin:round;" d="M257.567,148.844c-2.096,8.869-9.765,75.186,11.089,106.027c-12.794-4.381-33.958-25.941-37.388-47.198c-9.358-9.45-18.227-31.688-13.277-48.135"></path><path style="fill:none;stroke:#1E1E1E;stroke-linecap:round;stroke-linejoin:round;" d="M233.095,214.936c0,0-7.931-28.344-4.943-43.987"></path></g></g></g><g><g><path style="fill:#FFF0DE;" d="M317.161,177.703c0,0-5.853-11.712-8.195-12.295c-2.343-0.585,0.816,19.084,4.1,18.149C316.138,182.68,318.332,180.484,317.161,177.703z"></path></g><path style="fill:#FFF0DE;" d="M235.911,186.47c0,0,0-11.417,2.635-14.489c2.631-3.074,6.058,14.753,3.074,16.245C238.984,189.544,235.911,189.544,235.911,186.47z"></path><path style="fill:#FFF0DE;" d="M245.573,186.47c-1.761-2.196,0-10.1,0.876-11.417c0.879-1.317,4.391,10.098,2.635,12.294C246.82,190.176,247.328,188.665,245.573,186.47z"></path></g></g></svg>