<svg xmlns="http://www.w3.org/2000/svg" width="500" height="500" version="1.1"><g id="x100"><g><linearGradient id="hair1XMLID_3196_" gradientUnits="userSpaceOnUse" x1="250.0503" y1="233" x2="250.0503" y2="148.6665"><stop offset="0" style="stop-color:#FCFCE4"></stop><stop offset="0.5" style="stop-color:#A0C8DD"></stop><stop offset="1" style="stop-color:#5D6EC5"></stop></linearGradient><path style="fill:url(#hair1XMLID_3196_);stroke:#1E1E1E;stroke-linecap:round;stroke-linejoin:round;" d="M311.534,135.882c-17.021-17.418-41.603-23.852-61.484-20.131c-19.882-3.721-44.464,2.713-61.484,20.131c-13.061,13.365-22.283,30.165-22.283,51.08c0,24.372,15.268,44.372,25.934,48.538c-7.33-33.49-0.484-59.331,5.084-68.5c1.798-2.157,29.369-5.491,52.75-5.619c23.381,0.128,50.952,3.462,52.75,5.619c5.568,9.169,12.414,35.01,5.084,68.5c10.666-4.167,25.934-24.167,25.934-48.538C333.817,166.047,324.595,149.248,311.534,135.882z"></path><linearGradient id="hair1XMLID_3197_" gradientUnits="userSpaceOnUse" x1="193.4888" y1="233" x2="193.4888" y2="148.6665"><stop offset="0" style="stop-color:#FCFCE4"></stop><stop offset="0.5" style="stop-color:#A0C8DD"></stop><stop offset="1" style="stop-color:#5D6EC5"></stop></linearGradient><path style="fill:url(#hair1XMLID_3197_);stroke:#1E1E1E;stroke-linecap:round;stroke-linejoin:round;" d="M207.667,157.8c0,0-29.479,49.58-10.72,87.101c-18.09-15.41-20.771-39.531-14.74-69.011"></path><g><g><linearGradient id="hair1XMLID_3198_" gradientUnits="userSpaceOnUse" x1="265.623" y1="233" x2="265.623" y2="148.6665"><stop offset="0" style="stop-color:#FCFCE4"></stop><stop offset="0.5" style="stop-color:#A0C8DD"></stop><stop offset="1" style="stop-color:#5D6EC5"></stop></linearGradient><path style="fill:url(#hair1XMLID_3198_);" d="M220.398,159.14c0,0,32.16,19.431,49.581,21.44c17.42,2.01,40.869,0,40.869,0l-13.399-24.791L249,144.5L220.398,159.14z"></path><linearGradient id="hair1XMLID_3199_" gradientUnits="userSpaceOnUse" x1="257.4863" y1="233" x2="257.4863" y2="148.6665"><stop offset="0" style="stop-color:#FCFCE4"></stop><stop offset="0.5" style="stop-color:#A0C8DD"></stop><stop offset="1" style="stop-color:#5D6EC5"></stop></linearGradient><path style="fill:url(#hair1XMLID_3199_);stroke:#1E1E1E;stroke-linecap:round;stroke-linejoin:round;" d="M206.328,155.12c0,0-4.69,35.51,32.16,57.621c-14.07-14.74-18.09-34.84-18.09-34.84s14.069,15.409,50.25,16.75c8.04,0,11.39,6.029,38.189,4.689c-0.262-9.148-1.236-15.34-2.965-20.683"></path><path style="fill:none;stroke:#1E1E1E;stroke-linecap:round;stroke-linejoin:round;" d="M239.158,171.199c0,0,20.77,22.11,50.25,26.801"></path></g></g><linearGradient id="hair1XMLID_3200_" gradientUnits="userSpaceOnUse" x1="322.6953" y1="233" x2="322.6953" y2="148.6665"><stop offset="0" style="stop-color:#FCFCE4"></stop><stop offset="0.5" style="stop-color:#A0C8DD"></stop><stop offset="1" style="stop-color:#5D6EC5"></stop></linearGradient><path style="fill:url(#hair1XMLID_3200_);stroke:#1E1E1E;stroke-linecap:round;stroke-linejoin:round;" d="M309.508,161.15c0,0,24.12,26.129,20.771,73.03c4.689-11.391,15.409-46.9-16.08-87.77"></path><linearGradient id="hair1XMLID_3201_" gradientUnits="userSpaceOnUse" x1="306.5586" y1="233" x2="306.5586" y2="148.6665"><stop offset="0" style="stop-color:#FCFCE4"></stop><stop offset="0.5" style="stop-color:#A0C8DD"></stop><stop offset="1" style="stop-color:#5D6EC5"></stop></linearGradient><path style="fill:url(#hair1XMLID_3201_);stroke:#1E1E1E;stroke-linecap:round;stroke-linejoin:round;" d="M294.098,175.22c10.051,17.42,12.061,46.229,6.7,66.33c21.44-24.12,23.45-62.31,8.71-85.09"></path></g></g></svg>