<svg xmlns="http://www.w3.org/2000/svg" width="500" height="500" version="1.1"><g id="x101"><g><g><g><linearGradient id="hair1XMLID_3202_" gradientUnits="userSpaceOnUse" x1="250.0503" y1="225.3335" x2="250.0503" y2="162.667"><stop offset="0" style="stop-color:#FCFCE4"></stop><stop offset="0.5" style="stop-color:#A0C8DD"></stop><stop offset="1" style="stop-color:#5D6EC5"></stop></linearGradient><path style="fill:url(#hair1XMLID_3202_);stroke:#1E1E1E;stroke-linecap:round;stroke-linejoin:round;" d="M311.534,135.882c-17.021-17.418-41.603-23.852-61.484-20.131c-19.882-3.721-44.464,2.713-61.484,20.131c-13.061,13.365-22.283,30.165-22.283,51.08c0,24.372,15.268,44.372,25.934,48.538c-7.33-33.49-0.484-59.331,5.084-68.5c1.798-2.157,29.369-5.491,52.75-5.619c23.381,0.128,50.952,3.462,52.75,5.619c5.568,9.169,12.414,35.01,5.084,68.5c10.666-4.167,25.934-24.167,25.934-48.538C333.817,166.047,324.595,149.248,311.534,135.882z"></path><linearGradient id="hair1XMLID_3203_" gradientUnits="userSpaceOnUse" x1="166.0054" y1="225.3335" x2="166.0054" y2="162.667"><stop offset="0" style="stop-color:#FCFCE4"></stop><stop offset="0.5" style="stop-color:#A0C8DD"></stop><stop offset="1" style="stop-color:#5D6EC5"></stop></linearGradient><path style="fill:url(#hair1XMLID_3203_);stroke:#1E1E1E;stroke-linecap:round;stroke-linejoin:round;" d="M167.244,195c0,1.675-1.473,39.195-13.198,47.904c22.11-5.359,22.244-17.42,23.919-30.149"></path><linearGradient id="hair1XMLID_3204_" gradientUnits="userSpaceOnUse" x1="332.8359" y1="225.3335" x2="332.8359" y2="162.667"><stop offset="0" style="stop-color:#FCFCE4"></stop><stop offset="0.5" style="stop-color:#A0C8DD"></stop><stop offset="1" style="stop-color:#5D6EC5"></stop></linearGradient><path style="fill:url(#hair1XMLID_3204_);stroke:#1E1E1E;stroke-linecap:round;stroke-linejoin:round;" d="M331.596,195c0,1.675,1.474,39.195,13.199,47.904c-22.11-5.359-22.244-17.42-23.919-30.149"></path><linearGradient id="hair1XMLID_3205_" gradientUnits="userSpaceOnUse" x1="195.8125" y1="225.3335" x2="195.8125" y2="162.667"><stop offset="0" style="stop-color:#FCFCE4"></stop><stop offset="0.5" style="stop-color:#A0C8DD"></stop><stop offset="1" style="stop-color:#5D6EC5"></stop></linearGradient><path style="fill:url(#hair1XMLID_3205_);stroke:#1E1E1E;stroke-linecap:round;stroke-linejoin:round;" d="M209.991,154.8c0,0-29.48,49.58-10.72,87.101c-18.09-15.41-20.771-39.531-14.74-69.011"></path><linearGradient id="hair1XMLID_3206_" gradientUnits="userSpaceOnUse" x1="308.8818" y1="225.3335" x2="308.8818" y2="162.667"><stop offset="0" style="stop-color:#FCFCE4"></stop><stop offset="0.5" style="stop-color:#A0C8DD"></stop><stop offset="1" style="stop-color:#5D6EC5"></stop></linearGradient><path style="fill:url(#hair1XMLID_3206_);stroke:#1E1E1E;stroke-linecap:round;stroke-linejoin:round;" d="M296.421,172.22c10.05,17.42,12.061,46.229,6.7,66.33c21.44-24.12,23.45-62.31,8.71-85.09"></path></g><g><linearGradient id="hair1XMLID_3207_" gradientUnits="userSpaceOnUse" x1="291.8379" y1="225.3335" x2="291.8379" y2="162.667"><stop offset="0" style="stop-color:#FCFCE4"></stop><stop offset="0.5" style="stop-color:#A0C8DD"></stop><stop offset="1" style="stop-color:#5D6EC5"></stop></linearGradient><path style="fill:url(#hair1XMLID_3207_);stroke:#1E1E1E;stroke-linecap:round;stroke-linejoin:round;" d="M266.271,161.834c0,0-2.681,36.85,27.47,54.27c-8.04-12.396-10.05-35.175-10.05-35.175s12.729,30.82,31.49,34.505c7.369-27.805-4.69-51.925-13.4-63.315"></path><linearGradient id="hair1XMLID_3208_" gradientUnits="userSpaceOnUse" x1="235.541" y1="225.3335" x2="235.541" y2="162.667"><stop offset="0" style="stop-color:#FCFCE4"></stop><stop offset="0.5" style="stop-color:#A0C8DD"></stop><stop offset="1" style="stop-color:#5D6EC5"></stop></linearGradient><path style="fill:url(#hair1XMLID_3208_);stroke:#1E1E1E;stroke-linecap:round;stroke-linejoin:round;" d="M210.661,152.455c0,0-20.1,41.206,2.68,65.995c-7.034-25.795,7.37-56.28,7.37-56.28s-4.02,53.6,32.83,61.975c19.766-30.484,14.405-64.99,14.405-64.99"></path></g></g></g></g></svg>