<svg xmlns="http://www.w3.org/2000/svg" width="500" height="500" version="1.1"><g id="x102"><g><g><g><g><linearGradient id="hair1XMLID_3209_" gradientUnits="userSpaceOnUse" x1="250.0503" y1="221.667" x2="250.0503" y2="153.667"><stop offset="0" style="stop-color:#FCFCE4"></stop><stop offset="0.5" style="stop-color:#A0C8DD"></stop><stop offset="1" style="stop-color:#5D6EC5"></stop></linearGradient><path style="fill:url(#hair1XMLID_3209_);stroke:#1E1E1E;stroke-linecap:round;stroke-linejoin:round;" d="M311.534,135.882c-17.021-17.418-41.603-23.852-61.484-20.131c-19.882-3.721-44.464,2.713-61.484,20.131c-13.061,13.365-22.283,30.165-22.283,51.08c0,24.372,15.268,44.372,25.934,48.538c-7.33-33.49-0.484-59.331,5.084-68.5c1.798-2.157,29.369-5.491,52.75-5.619c23.381,0.128,50.952,3.462,52.75,5.619c5.568,9.169,12.414,35.01,5.084,68.5c10.666-4.167,25.934-24.167,25.934-48.538C333.817,166.047,324.595,149.248,311.534,135.882z"></path></g></g></g><g><g><linearGradient id="hair1XMLID_3210_" gradientUnits="userSpaceOnUse" x1="250.8936" y1="221.667" x2="250.8936" y2="153.667"><stop offset="0" style="stop-color:#FCFCE4"></stop><stop offset="0.5" style="stop-color:#A0C8DD"></stop><stop offset="1" style="stop-color:#5D6EC5"></stop></linearGradient><path style="fill:url(#hair1XMLID_3210_);stroke:#1E1E1E;stroke-linecap:round;stroke-linejoin:round;" d="M185.233,159.81c0,0-18.76,42.434,2.233,84.42c8.487,7.147,36.627,12.06,63.427,12.06s54.94-4.912,63.427-12.06c20.993-41.986,2.233-84.42,2.233-84.42"></path><path style="fill:none;stroke:#1E1E1E;stroke-linecap:round;stroke-linejoin:round;" d="M199.974,204.029c0,0-1.787,29.48,9.38,48.24"></path><path style="fill:none;stroke:#1E1E1E;stroke-linecap:round;stroke-linejoin:round;" d="M298.136,204.029c0,0,1.786,29.48-9.38,48.24"></path><g><path style="fill:none;stroke:#1E1E1E;stroke-linecap:round;stroke-linejoin:round;" d="M234.457,255.619c0,0-3.573-15.633-3.573-32.605"></path><path style="fill:none;stroke:#1E1E1E;stroke-linecap:round;stroke-linejoin:round;" d="M265.498,255.619c0,0,3.572-15.633,3.572-32.605"></path></g></g></g></g></g></svg>