<svg xmlns="http://www.w3.org/2000/svg" width="500" height="500" version="1.1"><g id="x109"><g><linearGradient id="hair1XMLID_3249_" gradientUnits="userSpaceOnUse" x1="250.0503" y1="214.3335" x2="250.0503" y2="151"><stop offset="0" style="stop-color:#FCFCE4"></stop><stop offset="0.5" style="stop-color:#A0C8DD"></stop><stop offset="1" style="stop-color:#5D6EC5"></stop></linearGradient><path style="fill:url(#hair1XMLID_3249_);stroke:#1E1E1E;stroke-linecap:round;stroke-linejoin:round;" d="M311.534,135.882c-17.021-17.418-41.603-23.852-61.484-20.131c-19.882-3.721-44.464,2.713-61.484,20.131c-13.061,13.365-22.283,30.165-22.283,51.08c0,24.372,15.268,44.372,25.934,48.538c-7.33-33.49-0.484-59.331,5.084-68.5c1.798-2.157,29.369-5.491,52.75-5.619c23.381,0.128,50.952,3.462,52.75,5.619c5.568,9.169,12.414,35.01,5.084,68.5c10.666-4.167,25.934-24.167,25.934-48.538C333.817,166.047,324.595,149.248,311.534,135.882z"></path><g><linearGradient id="hair1XMLID_3250_" gradientUnits="userSpaceOnUse" x1="311.1211" y1="214.3335" x2="311.1211" y2="151"><stop offset="0" style="stop-color:#FCFCE4"></stop><stop offset="0.5" style="stop-color:#A0C8DD"></stop><stop offset="1" style="stop-color:#5D6EC5"></stop></linearGradient><path style="fill:url(#hair1XMLID_3250_);stroke:#1E1E1E;stroke-linecap:round;stroke-linejoin:round;" d="M286.111,174.627c0,0,11.055,32.424,12.396,59.127c2.902-0.244,7.816-11.857,8.71-21.684c5.807,9.826,0.893,28.531,0.893,30.819c11.614-5.807,17.42-25.907,15.634-41.093c5.36,11.166,6.477,22.93,7.146,29.033c12.954-32.607,2.457-78.71-37.743-100.835"></path><linearGradient id="hair1XMLID_3251_" gradientUnits="userSpaceOnUse" x1="319.3887" y1="214.3335" x2="319.3887" y2="151.0001"><stop offset="0" style="stop-color:#FCFCE4"></stop><stop offset="0.5" style="stop-color:#A0C8DD"></stop><stop offset="1" style="stop-color:#5D6EC5"></stop></linearGradient><path style="fill:url(#hair1XMLID_3251_);stroke:#1E1E1E;stroke-linecap:round;stroke-linejoin:round;" d="M320.17,170.529c6.253,6.7,15.938,15.783,24.566,14.294c-10.563-5.519-25.684-36.18-33.191-42.729c-4.41-3.847-10.806-9.531-17.505-11.317"></path><linearGradient id="hair1XMLID_3252_" gradientUnits="userSpaceOnUse" x1="303.4199" y1="214.3335" x2="303.4199" y2="151.0002"><stop offset="0" style="stop-color:#FCFCE4"></stop><stop offset="0.5" style="stop-color:#A0C8DD"></stop><stop offset="1" style="stop-color:#5D6EC5"></stop></linearGradient><path style="fill:url(#hair1XMLID_3252_);stroke:#1E1E1E;stroke-linecap:round;stroke-linejoin:round;" d="M300.517,200.01c0,0,1.339,32.606-9.827,43.326c11.614-4.467,20.101-12.953,25.46-31.266"></path><linearGradient id="hair1XMLID_3253_" gradientUnits="userSpaceOnUse" x1="276.6094" y1="214.3335" x2="276.6094" y2="150.9998"><stop offset="0" style="stop-color:#FCFCE4"></stop><stop offset="0.5" style="stop-color:#A0C8DD"></stop><stop offset="1" style="stop-color:#5D6EC5"></stop></linearGradient><path style="fill:url(#hair1XMLID_3253_);stroke:#1E1E1E;stroke-linecap:round;stroke-linejoin:round;" d="M264.443,161.15c0,0,11.055,17.928,13.4,52.26c8.375-14.496,14.069-37.002,9.045-51.498"></path><linearGradient id="hair1XMLID_3254_" gradientUnits="userSpaceOnUse" x1="183.8374" y1="214.3335" x2="183.8374" y2="151"><stop offset="0" style="stop-color:#FCFCE4"></stop><stop offset="0.5" style="stop-color:#A0C8DD"></stop><stop offset="1" style="stop-color:#5D6EC5"></stop></linearGradient><path style="fill:url(#hair1XMLID_3254_);stroke:#1E1E1E;stroke-linecap:round;stroke-linejoin:round;" d="M183.49,142.836c0,0-46.008,39.306-20.548,94.693c-0.446-20.993,7.259-33.911,7.259-33.911s-8.599,27.212,15.075,44.632c-2.68-27.466,8.71-71.717,14.07-82.779c0,0-10.496,21.585-1.116,48.832c1.675-20.6,14.181-52.265,14.181-52.265"></path><linearGradient id="hair1XMLID_3255_" gradientUnits="userSpaceOnUse" x1="237.0093" y1="214.3335" x2="237.0093" y2="151"><stop offset="0" style="stop-color:#FCFCE4"></stop><stop offset="0.5" style="stop-color:#A0C8DD"></stop><stop offset="1" style="stop-color:#5D6EC5"></stop></linearGradient><path style="fill:url(#hair1XMLID_3255_);stroke:#1E1E1E;stroke-linecap:round;stroke-linejoin:round;" d="M263.89,155.343c0,0,3.573,40.646-10.72,58.512c2.68-15.186,1.34-21.886,1.34-21.886s-7.594,24.566-18.313,28.587c0-12.507-2.233-29.48-2.233-29.48L223.69,213.41c0,0-20.101-16.975-12.061-56.727"></path></g></g></g></svg>