<svg xmlns="http://www.w3.org/2000/svg" width="500" height="500" version="1.1"><g id="x011"><g><linearGradient id="hair1XMLID_2507_" gradientUnits="userSpaceOnUse" x1="250.0005" y1="225.667" x2="250.0005" y2="179.6669"><stop offset="0" style="stop-color:#FCFCE4"></stop><stop offset="0.5" style="stop-color:#A0C8DD"></stop><stop offset="1" style="stop-color:#5D6EC5"></stop></linearGradient><path style="fill:url(#hair1XMLID_2507_);stroke:#1E1E1E;stroke-linecap:round;stroke-linejoin:round;" d="M311.484,135.882c-17.021-17.418-41.603-23.852-61.484-20.131c-19.882-3.721-44.464,2.713-61.484,20.131c-13.061,13.365-22.283,30.165-22.283,51.08c0,24.372,15.268,44.372,25.934,48.538c-7.33-33.49-0.484-59.331,5.084-68.5c1.798-2.157,29.369-5.491,52.75-5.619c23.381,0.128,50.952,3.462,52.75,5.619c5.568,9.169,12.414,35.01,5.084,68.5c10.666-4.167,25.934-24.167,25.934-48.538C333.768,166.047,324.545,149.248,311.484,135.882z"></path><g><linearGradient id="hair1XMLID_2508_" gradientUnits="userSpaceOnUse" x1="190.9624" y1="223.166" x2="190.9624" y2="156.1662"><stop offset="0" style="stop-color:#FCFCE4"></stop><stop offset="0.5" style="stop-color:#A0C8DD"></stop><stop offset="1" style="stop-color:#5D6EC5"></stop></linearGradient><path style="fill:url(#hair1XMLID_2508_);stroke:#1E1E1E;stroke-linecap:round;stroke-linejoin:round;" d="M197.238,187.846c-3.015,12.059-5.695,54.939,9.715,70.684c-6.03-2.01-12.395-9.715-13.4-13.399c0,3.685,1.676,15.745,4.69,18.761c0.335,1.674-31.825-17.756-23.115-82.746c5.482-40.898,33.165-54.604,33.165-54.604"></path><linearGradient id="hair1XMLID_2509_" gradientUnits="userSpaceOnUse" x1="212.731" y1="223.1665" x2="212.731" y2="156.1665"><stop offset="0" style="stop-color:#FCFCE4"></stop><stop offset="0.5" style="stop-color:#A0C8DD"></stop><stop offset="1" style="stop-color:#5D6EC5"></stop></linearGradient><path style="fill:url(#hair1XMLID_2509_);stroke:#1E1E1E;stroke-linecap:round;stroke-linejoin:round;" d="M209.968,148.315c-26.13,21.774-20.1,64.319-13.399,77.385c4.02-37.854,29.814-59.63,30.82-60.3l7.278-13.734"></path><linearGradient id="hair1XMLID_2510_" gradientUnits="userSpaceOnUse" x1="308.2734" y1="223.166" x2="308.2734" y2="156.1663"><stop offset="0" style="stop-color:#FCFCE4"></stop><stop offset="0.5" style="stop-color:#A0C8DD"></stop><stop offset="1" style="stop-color:#5D6EC5"></stop></linearGradient><path style="fill:url(#hair1XMLID_2510_);stroke:#1E1E1E;stroke-linecap:round;stroke-linejoin:round;" d="M302.414,187.846c3.016,12.059,3.698,55.609-11.712,71.354c6.03-2.01,14.393-10.385,15.397-14.069c0,3.685-1.675,15.745-4.69,18.761c-0.335,1.674,31.17-21.105,23.116-82.746c-5.347-40.917-33.166-54.604-33.166-54.604"></path><linearGradient id="hair1XMLID_2511_" gradientUnits="userSpaceOnUse" x1="287.7324" y1="223.1665" x2="287.7324" y2="156.1665"><stop offset="0" style="stop-color:#FCFCE4"></stop><stop offset="0.5" style="stop-color:#A0C8DD"></stop><stop offset="1" style="stop-color:#5D6EC5"></stop></linearGradient><path style="fill:url(#hair1XMLID_2511_);stroke:#1E1E1E;stroke-linecap:round;stroke-linejoin:round;" d="M290.624,148.985c26.132,21.774,20.102,64.319,13.4,77.385c-4.021-37.854-29.815-59.63-30.82-60.3L265.667,154"></path><g><linearGradient id="hair1XMLID_2512_" gradientUnits="userSpaceOnUse" x1="249.9175" y1="223.1665" x2="249.9175" y2="156.1665"><stop offset="0" style="stop-color:#FCFCE4"></stop><stop offset="0.5" style="stop-color:#A0C8DD"></stop><stop offset="1" style="stop-color:#5D6EC5"></stop></linearGradient><path style="fill:url(#hair1XMLID_2512_);stroke:#1E1E1E;stroke-linecap:round;stroke-linejoin:round;" d="M235.093,174.322c1.006,0,4.69-0.73,4.69-0.73s5.025,2.555,12.061,2.19c7.034-0.366,11.724-1.827,13.733-1.097c2.011,0.73,3.016-2.19,3.016-2.19s10.218-6.752,10.218-30.848c0-24.094-13.568-37.421-14.573-37.785c-1.005-0.366-7.705,0.364-7.705,0.364s-3.685-1.094-6.028-1.094c-2.346,0-5.695,1.824-5.695,1.824s-4.021-2.191-6.03-1.824c-2.01,0.364-17.755,16.428-17.755,37.601C221.023,161.909,234.088,174.322,235.093,174.322z"></path><path style="fill:none;stroke:#1E1E1E;stroke-linecap:round;stroke-linejoin:round;" d="M266.583,155.704c0,0,2.01,8.029-1.006,17.888"></path><path style="fill:none;stroke:#1E1E1E;stroke-linecap:round;stroke-linejoin:round;" d="M234.758,127.226c-0.335-1.094-8.71,25.19,7.37,46.729"></path></g></g></g><g><g><path style="fill:#FFF0DE;" d="M175.839,181.536c0,0,5.852-11.712,8.195-12.295c2.342-0.585-0.816,19.084-4.1,18.149C176.863,186.513,174.668,184.318,175.839,181.536z"></path><path style="fill:#FFF0DE;" d="M183.953,186.217c0,0,0.45-7.659,2.929-9.365c2.478-1.707,1.757,11.708,0,11.708C185.124,188.56,183.953,189.145,183.953,186.217z"></path><path style="fill:#FFF0DE;" d="M322.161,181.536c0,0-5.853-11.712-8.195-12.295c-2.343-0.585,0.816,19.084,4.1,18.149C321.138,186.513,323.332,184.318,322.161,181.536z"></path><path style="fill:#FFF0DE;" d="M314.048,186.217c0,0-0.451-7.659-2.93-9.365c-2.478-1.707-1.756,11.708,0,11.708C312.876,188.56,314.048,189.145,314.048,186.217z"></path></g><path style="fill:#FFF0DE;" d="M235.911,138.887c0,0,0-11.417,2.635-14.489c2.631-3.074,6.058,14.753,3.074,16.245C238.984,141.96,235.911,141.96,235.911,138.887z"></path><path style="fill:#FFF0DE;" d="M245.573,138.887c-1.761-2.196,0-10.1,0.876-11.417c0.879-1.317,4.391,10.098,2.635,12.294C246.82,142.592,247.328,141.082,245.573,138.887z"></path></g></g></svg>