<svg xmlns="http://www.w3.org/2000/svg" width="500" height="500" version="1.1"><g id="x111"><g><g><linearGradient id="hair1XMLID_3262_" gradientUnits="userSpaceOnUse" x1="248.103" y1="218.667" x2="248.103" y2="170.0001"><stop offset="0" style="stop-color:#FCFCE4"></stop><stop offset="0.5" style="stop-color:#A0C8DD"></stop><stop offset="1" style="stop-color:#5D6EC5"></stop></linearGradient><path style="fill:url(#hair1XMLID_3262_);stroke:#1E1E1E;stroke-linecap:round;stroke-linejoin:round;" d="M322.896,154.791c3.819-6.044,6.164-17.761,6.164-17.761s-5.394,5.637-12.507,5.807c3.573-6.7,0-15.634-1.787-17.867c-0.866,3.683-4.149,7.785-7.302,11.034c-1.428-1.28-3.764-5.844-3.838-6.567c-0.92-15.634-8.314-23.227-16.553-26.354c-8.651-3.573-38.65-4.913-39.887-2.68c-1.235-1.34-9.063-5.36-12.771-4.467c-3.708,0.894-7.827,8.487-7.827,8.487s-9.063-1.34-18.95,0.894c-14.83,6.7-17.303,20.546-16.066,25.013c-1.236-0.446-4.531-5.36-2.884-10.72c-14.356,16.39-6.441,25.774-7.315,26.925c-6.86-3.252-15.317,4.373-17.58,8.361c8.206-4.229,11.406-2.232,13.055-1.772c-6.434,10.42-10.598,22.507-10.598,35.832c0,15.074,8.2,28.851,8.749,30.045c0,0,0.631-4.25,11.351-6.93c3.316-14.404,9.558-32.809,16.08-43.551c0.384-0.461,1.709-0.936,3.774-1.395c3.77,1.527,8.549,3.518,9.849,4.298c-1.429-2.144-1.839-4.154-1.913-5.57c0.92-0.112,11.74,5.124,11.74,5.124l-1.526-6.106c1.259-0.094,14.479,5.659,14.479,5.659l-1.274-6.371c0.84-0.029,11.548,7.265,11.548,7.265s10.714-7.308,11.551-7.28l-1.277,6.386c0,0,13.239-5.784,14.487-5.693l-1.535,6.14c0,0,10.842-5.286,11.743-5.178c-0.066,1.418-0.468,3.454-1.915,5.625c1.318-0.79,6.212-2.825,10.004-4.36c2.231,0.479,3.664,0.975,4.065,1.457c8.486,12.283,14.739,26.576,17.866,46.23c10.721,2.68,12.284,9.38,12.284,9.38c0.548-1.194,6.03-20.101,6.03-35.175C332.411,176.01,328.791,164.679,322.896,154.791z"></path><linearGradient id="hair1XMLID_3263_" gradientUnits="userSpaceOnUse" x1="173.8438" y1="218.667" x2="173.8438" y2="170"><stop offset="0" style="stop-color:#FCFCE4"></stop><stop offset="0.5" style="stop-color:#A0C8DD"></stop><stop offset="1" style="stop-color:#5D6EC5"></stop></linearGradient><path style="fill:url(#hair1XMLID_3263_);stroke:#1E1E1E;stroke-linecap:round;stroke-linejoin:round;" d="M187,203c0,1.785,3.594,31.83,5.381,36.742c-6.254-8.039-12.061-21.887-12.061-21.887l-7.146,6.701c-1.34-3.127-2.68-11.167-2.68-11.167c-4.021,1.34-5.808-0.446-5.808-0.446l2.681-6.701c0,0-6.7-1.786-8.934,1.34c1.34-4.02,2.681-11.612,8.04-16.973c-4.02,0.894-11.167,4.914-11.167,4.914c2.681-5.807,8.04-29.927,20.547-35.734c5.808-3.126,11.167,1.787,11.167,1.787"></path><linearGradient id="hair1XMLID_3264_" gradientUnits="userSpaceOnUse" x1="326.1563" y1="218.667" x2="326.1563" y2="170"><stop offset="0" style="stop-color:#FCFCE4"></stop><stop offset="0.5" style="stop-color:#A0C8DD"></stop><stop offset="1" style="stop-color:#5D6EC5"></stop></linearGradient><path style="fill:url(#hair1XMLID_3264_);stroke:#1E1E1E;stroke-linecap:round;stroke-linejoin:round;" d="M313.427,204.456c0,1.786-4.02,30.374-5.807,35.286c6.253-8.039,12.06-21.887,12.06-21.887l7.147,6.701c1.34-3.127,2.68-11.167,2.68-11.167c4.021,1.34,5.807-0.446,5.807-0.446l-2.681-6.701c0,0,6.701-1.786,8.934,1.34c-1.34-4.02-2.68-11.612-8.039-16.973c4.02,0.894,11.166,4.914,11.166,4.914c-2.68-5.807-8.04-29.927-20.547-35.734c-5.807-3.126-11.166,1.787-11.166,1.787"></path></g><linearGradient id="hair1XMLID_3265_" gradientUnits="userSpaceOnUse" x1="216.2773" y1="218.667" x2="216.2773" y2="170.0001"><stop offset="0" style="stop-color:#FCFCE4"></stop><stop offset="0.5" style="stop-color:#A0C8DD"></stop><stop offset="1" style="stop-color:#5D6EC5"></stop></linearGradient><path style="fill:url(#hair1XMLID_3265_);stroke:#1E1E1E;stroke-linecap:round;stroke-linejoin:round;" d="M239.504,152.886c0,0-27.247-5.36-32.607-9.38c-5.359-4.02-13.398-11.167-13.846-14.293"></path><path style="fill:none;stroke:#1E1E1E;stroke-linecap:round;stroke-linejoin:round;" d="M254.914,101.296c0,0,14.74,16.527,16.526,24.567"></path><linearGradient id="hair1XMLID_3266_" gradientUnits="userSpaceOnUse" x1="295.5068" y1="218.667" x2="295.5068" y2="170.0002"><stop offset="0" style="stop-color:#FCFCE4"></stop><stop offset="0.5" style="stop-color:#A0C8DD"></stop><stop offset="1" style="stop-color:#5D6EC5"></stop></linearGradient><path style="fill:url(#hair1XMLID_3266_);stroke:#1E1E1E;stroke-linecap:round;stroke-linejoin:round;" d="M286.325,164.724c1.647-1.34,22.02-12.508,25.315-23.228c0.824-11.614-8.486-19.207-8.486-19.207s-0.665,14.366-4.059,19.654c-6.591,10.273-19.774,17.866-19.774,17.866"></path><path style="fill:none;stroke:#1E1E1E;stroke-linecap:round;stroke-linejoin:round;" d="M230.347,108.89c0,0,23.227,10.72,29.034,24.12c5.806,13.4,8.486,22.333,8.486,22.333"></path><linearGradient id="hair1XMLID_3267_" gradientUnits="userSpaceOnUse" x1="300.4736" y1="131.2227" x2="300.4736" y2="131.2227"><stop offset="0" style="stop-color:#FCFCE4"></stop><stop offset="0.5" style="stop-color:#A0C8DD"></stop><stop offset="1" style="stop-color:#5D6EC5"></stop></linearGradient><path style="fill:url(#hair1XMLID_3267_);stroke:#1E1E1E;stroke-linecap:round;stroke-linejoin:round;" d="M300.474,131.223"></path></g></g></svg>