<svg xmlns="http://www.w3.org/2000/svg" width="500" height="500" version="1.1"><g id="x112"><g><g><linearGradient id="hair1XMLID_3268_" gradientUnits="userSpaceOnUse" x1="183.1733" y1="225.3335" x2="183.1733" y2="151"><stop offset="0" style="stop-color:#FCFCE4"></stop><stop offset="0.5" style="stop-color:#A0C8DD"></stop><stop offset="1" style="stop-color:#5D6EC5"></stop></linearGradient><path style="fill:url(#hair1XMLID_3268_);stroke:#1E1E1E;stroke-linecap:round;stroke-linejoin:round;" d="M188.246,210.876c-0.05,9.237,0.52,17.536,2.379,21.294c-6.253-5.604-16.303-18.492-16.75-22.602c-0.446-4.109-4.467-25.974,1.563-41.271c8.04-10.274,18.76-16.527,18.76-16.527S187.052,183.037,188.246,210.876z"></path><linearGradient id="hair1XMLID_3269_" gradientUnits="userSpaceOnUse" x1="250.0005" y1="225.3335" x2="250.0005" y2="151"><stop offset="0" style="stop-color:#FCFCE4"></stop><stop offset="0.5" style="stop-color:#A0C8DD"></stop><stop offset="1" style="stop-color:#5D6EC5"></stop></linearGradient><path style="fill:url(#hair1XMLID_3269_);stroke:#1E1E1E;stroke-linecap:round;stroke-linejoin:round;" d="M311.484,135.882c-17.021-17.418-41.603-23.852-61.484-20.131c-19.882-3.721-44.464,2.713-61.484,20.131c-13.061,13.365-22.283,30.165-22.283,51.08c0,24.372,15.268,44.372,25.934,48.538c-7.33-33.49-0.484-59.331,5.084-68.5c1.798-2.157,29.369-5.491,52.75-5.619c23.381,0.128,50.952,3.462,52.75,5.619c5.568,9.169,12.414,35.01,5.084,68.5c10.666-4.167,25.934-24.167,25.934-48.538C333.768,166.047,324.545,149.248,311.484,135.882z"></path><g><linearGradient id="hair1XMLID_3270_" gradientUnits="userSpaceOnUse" x1="317.875" y1="225.3335" x2="317.875" y2="151"><stop offset="0" style="stop-color:#FCFCE4"></stop><stop offset="0.5" style="stop-color:#A0C8DD"></stop><stop offset="1" style="stop-color:#5D6EC5"></stop></linearGradient><path style="fill:url(#hair1XMLID_3270_);stroke:#1E1E1E;stroke-linecap:round;stroke-linejoin:round;" d="M314.041,140.333L299.709,165c0.992,0.803,6.346,11.613,6.666,12.333c1.787,4.021,4.416,31.183,4.416,33.417s-2.75,24.917-2.75,24.917s11.668-5,18.334-16c8-17.667,9.666-37.993,9.666-39.333C336.041,179.052,331.549,154.53,314.041,140.333z"></path><linearGradient id="hair1XMLID_3271_" gradientUnits="userSpaceOnUse" x1="182.125" y1="225.3335" x2="182.125" y2="151"><stop offset="0" style="stop-color:#FCFCE4"></stop><stop offset="0.5" style="stop-color:#A0C8DD"></stop><stop offset="1" style="stop-color:#5D6EC5"></stop></linearGradient><path style="fill:url(#hair1XMLID_3271_);stroke:#1E1E1E;stroke-linecap:round;stroke-linejoin:round;" d="M185.958,140.333L200.292,165c-0.993,0.803-6.346,11.613-6.667,12.333c-1.786,4.021-4.416,31.183-4.416,33.417s2.75,24.917,2.75,24.917s-11.667-5-18.334-16c-8-17.667-9.666-37.993-9.666-39.333C163.958,179.052,168.452,154.53,185.958,140.333z"></path></g></g></g><g><linearGradient id="hair1XMLID_3272_" gradientUnits="userSpaceOnUse" x1="249.6519" y1="225.3335" x2="249.6519" y2="151.0003"><stop offset="0" style="stop-color:#FCFCE4"></stop><stop offset="0.5" style="stop-color:#A0C8DD"></stop><stop offset="1" style="stop-color:#5D6EC5"></stop></linearGradient><path style="fill:url(#hair1XMLID_3272_);stroke:#1E1E1E;stroke-linecap:round;stroke-linejoin:round;" d="M322.667,151c-0.483-3.573-4.334-21.667-20-34.333c-12.573-4.466-56.159-7.072-56.159-7.072s-33.322,2.568-45.896,7.035c-12.571,4.466-23.302,20.881-23.785,24.455c-2.234,20.994,15.778,32.242,15.778,32.242s6.771-4.467,10.639-6.699c2.418,2.232,10.154,4.912,10.154,4.912l-3.385-6.699c0,0,13.54,3.127,16.44,6.699c-1.934-2.232-1.451-6.699-1.451-6.699s20.31,1.34,27.08,7.594c6.769-6.254,27.076-7.594,27.076-7.594s0.485,4.467-1.45,6.699c2.901-3.572,16.441-6.699,16.441-6.699l-3.386,6.699c0,0,7.737-2.68,10.155-4.912c3.247,6.04,5.58,10.373,5.58,10.373"></path><path style="fill:none;stroke:#1E1E1E;stroke-linecap:round;stroke-linejoin:round;" d="M189.573,147.433c0,0,2.68,14.405,13.4,19.096"></path><path style="fill:none;stroke:#1E1E1E;stroke-linecap:round;stroke-linejoin:round;" d="M215.353,151.104c0,0,1.675,11.055,11.055,13.735"></path><path style="fill:none;stroke:#1E1E1E;stroke-linecap:round;stroke-linejoin:round;" d="M275.988,165.175c1.005-0.67,10.05-1.675,14.74-15.745"></path><path style="fill:none;stroke:#1E1E1E;stroke-linecap:round;stroke-linejoin:round;" d="M301.09,166.526c0,0,8.71,0.336,12.73-14.07"></path></g></g></svg>