<svg xmlns="http://www.w3.org/2000/svg" width="500" height="500" version="1.1"><g id="x114"><g><linearGradient id="hair1XMLID_3276_" gradientUnits="userSpaceOnUse" x1="250.0005" y1="220.667" x2="250.0005" y2="152.3335"><stop offset="0" style="stop-color:#FCFCE4"></stop><stop offset="0.5" style="stop-color:#A0C8DD"></stop><stop offset="1" style="stop-color:#5D6EC5"></stop></linearGradient><path style="fill:url(#hair1XMLID_3276_);stroke:#1E1E1E;stroke-linecap:round;stroke-linejoin:round;" d="M309.805,231.82c0,0,23.78-31.791,15.405-77.351c-25.531-49.487-70.038-38.474-75.21-36.999c-5.172-1.475-49.679-12.488-75.21,36.999c-8.375,45.56,15.405,77.351,15.405,77.351v-15.41c-2.011-4.355,1.649-20.44,1.649-20.44l2.01-4.354l-3.015-8.041l6.91,0.676l-4.23-13.74l8.98,6.74c0,0-1.61-8.081-1.61-11.765c1.34,1.34,8.86,5.765,8.86,5.765s-3.135-7.42-4.476-12.78c2.681,1.34,13.735,11.056,13.735,11.056s-3.015-5.361-3.685-11.391c6.925,4.115,14.404,10.05,14.404,10.05s-1.005-6.365-1.34-10.72c3.686,1.34,13.065,10.385,13.065,10.385s-2.681-5.36-3.016-10.05c3.972,0.567,9.848,6.402,11.561,8.183c1.713-1.78,7.589-7.615,11.561-8.183c-0.335,4.69-3.016,10.05-3.016,10.05s9.38-9.045,13.065-10.385c-0.335,4.355-1.34,10.72-1.34,10.72s7.479-5.935,14.404-10.05c-0.67,6.03-3.685,11.391-3.685,11.391s11.055-9.716,13.735-11.056c-1.341,5.36-4.476,12.78-4.476,12.78s7.521-4.425,8.86-5.765c0,3.685-1.61,11.765-1.61,11.765l8.98-6.74l-4.23,13.74l6.91-0.676l-3.015,8.041l2.01,4.354c0,0,3.66,16.085,1.649,20.44V231.82z"></path><g><g><g><path style="fill:none;stroke:#1E1E1E;stroke-linecap:round;stroke-linejoin:round;" d="M200.116,165.575c-1.341-1.005-7.035-13.065-7.035-17.42"></path><path style="fill:none;stroke:#1E1E1E;stroke-linecap:round;stroke-linejoin:round;" d="M182.511,173.189c0,0,4.355,7.035,8.04,10.385"></path></g></g><g><g><path style="fill:none;stroke:#1E1E1E;stroke-linecap:round;stroke-linejoin:round;" d="M299.884,165.575c1.341-1.005,7.035-13.065,7.035-17.42"></path><path style="fill:none;stroke:#1E1E1E;stroke-linecap:round;stroke-linejoin:round;" d="M317.489,173.189c0,0-4.355,7.035-8.04,10.385"></path></g></g></g></g><g><linearGradient id="hair1XMLID_3277_" gradientUnits="userSpaceOnUse" x1="272.1025" y1="220.667" x2="272.1025" y2="152.3335"><stop offset="0" style="stop-color:#FCFCE4"></stop><stop offset="0.5" style="stop-color:#A0C8DD"></stop><stop offset="1" style="stop-color:#5D6EC5"></stop></linearGradient><path style="fill:url(#hair1XMLID_3277_);stroke:#1E1E1E;stroke-linecap:round;stroke-linejoin:round;" d="M250.091,171.199c1.675-0.334,38.189-13.734,43.885-36.515c2.231-8.924-23.115-40.87-23.115-40.87c8.71,17.755,12.151,37.361,10.553,42.042C276.723,149.592,250.091,171.199,250.091,171.199z"></path><linearGradient id="hair1XMLID_3278_" gradientUnits="userSpaceOnUse" x1="242.2212" y1="220.667" x2="242.2212" y2="152.3335"><stop offset="0" style="stop-color:#FCFCE4"></stop><stop offset="0.5" style="stop-color:#A0C8DD"></stop><stop offset="1" style="stop-color:#5D6EC5"></stop></linearGradient><path style="fill:url(#hair1XMLID_3278_);stroke:#1E1E1E;stroke-linecap:round;stroke-linejoin:round;" d="M221.95,159.14c0,0-13.064-10.72-15.745-20.77c-2.68-10.05,11.391-45.56,45.896-58.96c-8.04,8.375-18.09,24.12-18.09,24.12s12.395-20.1,29.145-25.46c6.03,7.035,19.095,47.235,14.405,61.975c-4.69,14.74-24.369,28.888-28.476,30.485C232,169.525,221.95,159.14,221.95,159.14z"></path><path style="fill:none;stroke:#1E1E1E;stroke-linecap:round;stroke-linejoin:round;" d="M231.33,94.82c0,0-18.243,25.515-15.074,38.19c5.694,22.78,25.46,28.475,25.46,28.475"></path><path style="fill:none;stroke:#1E1E1E;stroke-linecap:round;stroke-linejoin:round;" d="M247.745,157.465c0,0-6.003-15.391-5.694-24.79c0.67-20.435,20.435-48.91,20.77-52.93"></path></g><linearGradient id="hair1XMLID_3279_" gradientUnits="userSpaceOnUse" x1="250" y1="220.667" x2="250" y2="152.3335"><stop offset="0" style="stop-color:#FCFCE4"></stop><stop offset="0.5" style="stop-color:#A0C8DD"></stop><stop offset="1" style="stop-color:#5D6EC5"></stop></linearGradient><path style="fill:url(#hair1XMLID_3279_);stroke:#1E1E1E;stroke-linecap:round;stroke-linejoin:round;" d="M252.697,168.507c0,0-4.055,14.74-4.725,18.76s-4.02,24.79,15.41,60.971c-19.43-14.07-29.479-49.58-26.13-62.98C239.933,177.887,252.697,168.507,252.697,168.507z"></path></g></svg>