<svg xmlns="http://www.w3.org/2000/svg" width="500" height="500" version="1.1"><g id="x121"><g><linearGradient id="hair1XMLID_3328_" gradientUnits="userSpaceOnUse" x1="300.9209" y1="211.3335" x2="300.9209" y2="163.667"><stop offset="0" style="stop-color:#FCFCE4"></stop><stop offset="0.5" style="stop-color:#A0C8DD"></stop><stop offset="1" style="stop-color:#5D6EC5"></stop></linearGradient><path style="fill:url(#hair1XMLID_3328_);stroke:#1E1E1E;stroke-linecap:round;stroke-linejoin:round;" d="M275.461,129.883c0,0,13.4-4.914,26.799,5.36c26.801,20.547,20.994,38.413,20.994,42.88s2.68,17.42,3.127,21.887c-5.807-1.787-5.807-9.38-5.807-9.38c0,1.34-0.447,21.44-4.914,28.587c-1.34-11.167-8.486-17.42-8.486-17.42L306.5,175"></path><linearGradient id="hair1XMLID_3329_" gradientUnits="userSpaceOnUse" x1="186.5503" y1="211.3335" x2="186.5503" y2="163.6669"><stop offset="0" style="stop-color:#FCFCE4"></stop><stop offset="0.5" style="stop-color:#A0C8DD"></stop><stop offset="1" style="stop-color:#5D6EC5"></stop></linearGradient><path style="fill:url(#hair1XMLID_3329_);stroke:#1E1E1E;stroke-linecap:round;stroke-linejoin:round;" d="M191.487,195.097c0,0-2.573,32.606-0.787,39.753c-6.7-8.934-9.486-29.927-9.04-32.16"></path><linearGradient id="hair1XMLID_3330_" gradientUnits="userSpaceOnUse" x1="312.4453" y1="211.3335" x2="312.4453" y2="163.667"><stop offset="0" style="stop-color:#FCFCE4"></stop><stop offset="0.5" style="stop-color:#A0C8DD"></stop><stop offset="1" style="stop-color:#5D6EC5"></stop></linearGradient><path style="fill:url(#hair1XMLID_3330_);stroke:#1E1E1E;stroke-linecap:round;stroke-linejoin:round;" d="M307.667,204.667c0,0,3.239,23.036,1.452,30.183c6.699-8.934,8.486-29.927,8.039-32.16"></path><linearGradient id="hair1XMLID_3331_" gradientUnits="userSpaceOnUse" x1="244.3584" y1="211.3335" x2="244.3584" y2="163.6669"><stop offset="0" style="stop-color:#FCFCE4"></stop><stop offset="0.5" style="stop-color:#A0C8DD"></stop><stop offset="1" style="stop-color:#5D6EC5"></stop></linearGradient><path style="fill:url(#hair1XMLID_3331_);stroke:#1E1E1E;stroke-linecap:round;stroke-linejoin:round;" d="M277.246,125.863c0-1.34-33.052-17.42-77.719,9.38c-32.725,19.635-24.119,71.021-24.119,71.021s1.34-7.146,3.126-11.167c-1.34,7.593,4.02,21.886,4.02,21.886s9.38-20.1,15.634-28.139c-2.233,5.359-4.913,14.739-1.34,24.119c3.126-7.594,13.4-33.5,23.673-41.094c-3.187,4.131-7.687,13.631-8.04,16.975c6.254-8.041,25.907-19.654,25.907-19.654s0,4.914-5.808,12.508c5.807-2.234,18.76-9.381,29.926-16.974c-0.445,1.787-1.839,6.777-4.912,15.187c16.74-8.577,24.566-26.8,24.566-26.8s3.572,19.653,1.787,30.82c6.053-7.43,6.699-20.546,6.254-26.353c2.68,11.167,7.145,31.267,5.805,39.306c5.809-8.486,6.701-14.739,5.809-24.566c2.68,8.486,4.912,30.373,3.572,41.54c6.699-9.827,10.273-25.46,8.486-35.286"></path><linearGradient id="hair1XMLID_3332_" gradientUnits="userSpaceOnUse" x1="247.3735" y1="211.3335" x2="247.3735" y2="163.667"><stop offset="0" style="stop-color:#FCFCE4"></stop><stop offset="0.5" style="stop-color:#A0C8DD"></stop><stop offset="1" style="stop-color:#5D6EC5"></stop></linearGradient><path style="fill:url(#hair1XMLID_3332_);stroke:#1E1E1E;stroke-linecap:round;stroke-linejoin:round;" d="M300.58,136.137c0,0,8.041,5.36,20.547,3.126c-1.34-1.34-7.146-7.146-20.1-12.954c-12.955-5.807-20.547-1.787-21.887-0.446c0,0-11.273-13.847-28.248-16.974c-16.974-3.126-39.306,9.827-45.56,11.167c10.273-0.447,17.194-2.179,27,1.277c-11.5-0.833-39.954,0.957-52.014,15.25c14.294-4.914,22.014-5.417,22.014-5.417s-23.354,8.99-28.714,27.303c5.521-6.704,14.524-9.23,16.557-9.729"></path></g></g></svg>