<svg xmlns="http://www.w3.org/2000/svg" width="500" height="500" version="1.1"><g id="x122"><g><linearGradient id="hair1XMLID_3333_" gradientUnits="userSpaceOnUse" x1="250.0503" y1="208" x2="250.0503" y2="149"><stop offset="0" style="stop-color:#FCFCE4"></stop><stop offset="0.5" style="stop-color:#A0C8DD"></stop><stop offset="1" style="stop-color:#5D6EC5"></stop></linearGradient><path style="fill:url(#hair1XMLID_3333_);stroke:#1E1E1E;stroke-linecap:round;stroke-linejoin:round;" d="M311.534,135.882c-17.021-17.418-41.603-23.852-61.484-20.131c-19.882-3.721-44.464,2.713-61.484,20.131c-13.061,13.365-22.283,30.165-22.283,51.08c0,24.372,15.268,44.372,25.934,48.538c-7.33-33.49-0.484-59.331,5.084-68.5c1.798-2.157,29.369-5.491,52.75-5.619c23.381,0.128,50.952,3.462,52.75,5.619c5.568,9.169,12.414,35.01,5.084,68.5c10.666-4.167,25.934-24.167,25.934-48.538C333.817,166.047,324.595,149.248,311.534,135.882z"></path><g><g><g><linearGradient id="hair1XMLID_3334_" gradientUnits="userSpaceOnUse" x1="199.8364" y1="208" x2="199.8364" y2="148.9998"><stop offset="0" style="stop-color:#FCFCE4"></stop><stop offset="0.5" style="stop-color:#A0C8DD"></stop><stop offset="1" style="stop-color:#5D6EC5"></stop></linearGradient><path style="fill:url(#hair1XMLID_3334_);stroke:#1E1E1E;stroke-linecap:round;stroke-linejoin:round;" d="M191.225,284.43c0,0-10.05,21.775,7.705,33.5c-1.34-8.041-1.675-11.055-1.675-11.055s4.354,11.725,13.064,12.729c3.016-17.42-1.005-30.148-12.729-38.523C192.229,284.764,191.225,284.43,191.225,284.43z"></path><linearGradient id="hair1XMLID_3335_" gradientUnits="userSpaceOnUse" x1="183.6289" y1="208" x2="183.6289" y2="149"><stop offset="0" style="stop-color:#FCFCE4"></stop><stop offset="0.5" style="stop-color:#A0C8DD"></stop><stop offset="1" style="stop-color:#5D6EC5"></stop></linearGradient><path style="fill:url(#hair1XMLID_3335_);stroke:#1E1E1E;stroke-linecap:round;stroke-linejoin:round;" d="M189.215,174.55c-0.67,1.675,9.162,103.284,7.94,106.354c-1.7,4.271-4.901,5.504-6.266,4.529c-4.69-2.01-37.521-39.193-10.05-126.294"></path></g><linearGradient id="hair1XMLID_3336_" gradientUnits="userSpaceOnUse" x1="231.4136" y1="208" x2="231.4136" y2="148.9999"><stop offset="0" style="stop-color:#FCFCE4"></stop><stop offset="0.5" style="stop-color:#A0C8DD"></stop><stop offset="1" style="stop-color:#5D6EC5"></stop></linearGradient><path style="fill:url(#hair1XMLID_3336_);stroke:#1E1E1E;stroke-linecap:round;stroke-linejoin:round;" d="M250.185,160.145c-0.335,1.005,2.345,20.77-7.705,32.83c-1.005-6.699-2.345-13.734-2.345-13.734s-2.68,8.375-11.391,14.069c-1.675-7.37-6.364-18.425-6.364-18.425s-2.011,15.074-9.38,20.436c-0.335-5.025-2.681-26.466,8.04-39.866"></path><linearGradient id="hair1XMLID_3337_" gradientUnits="userSpaceOnUse" x1="199.9429" y1="208" x2="199.9429" y2="149"><stop offset="0" style="stop-color:#FCFCE4"></stop><stop offset="0.5" style="stop-color:#A0C8DD"></stop><stop offset="1" style="stop-color:#5D6EC5"></stop></linearGradient><path style="fill:url(#hair1XMLID_3337_);stroke:#1E1E1E;stroke-linecap:round;stroke-linejoin:round;" d="M216.35,162.825c0,0-10.72,23.115-10.05,38.525c-4.355-4.689-3.351-15.745-3.351-15.745s-9.38,28.476-8.375,40.2c-12.06-21.105-17.42-44.891,0.67-74.705"></path></g><g><g><linearGradient id="hair1XMLID_3338_" gradientUnits="userSpaceOnUse" x1="300.1631" y1="208" x2="300.1631" y2="148.9998"><stop offset="0" style="stop-color:#FCFCE4"></stop><stop offset="0.5" style="stop-color:#A0C8DD"></stop><stop offset="1" style="stop-color:#5D6EC5"></stop></linearGradient><path style="fill:url(#hair1XMLID_3338_);stroke:#1E1E1E;stroke-linecap:round;stroke-linejoin:round;" d="M308.775,284.43c0,0,10.05,21.775-7.705,33.5c1.34-8.041,1.675-11.055,1.675-11.055s-4.354,11.725-13.064,12.729c-3.015-17.42,1.005-30.148,12.729-38.523C307.771,284.764,308.775,284.43,308.775,284.43z"></path><linearGradient id="hair1XMLID_3339_" gradientUnits="userSpaceOnUse" x1="316.3711" y1="208" x2="316.3711" y2="149"><stop offset="0" style="stop-color:#FCFCE4"></stop><stop offset="0.5" style="stop-color:#A0C8DD"></stop><stop offset="1" style="stop-color:#5D6EC5"></stop></linearGradient><path style="fill:url(#hair1XMLID_3339_);stroke:#1E1E1E;stroke-linecap:round;stroke-linejoin:round;" d="M310.785,174.55c0.67,1.675-9.162,103.284-7.94,106.354c1.701,4.271,4.901,5.504,6.266,4.529c4.69-2.01,37.521-39.193,10.05-126.294"></path></g><linearGradient id="hair1XMLID_3340_" gradientUnits="userSpaceOnUse" x1="268.5869" y1="208" x2="268.5869" y2="148.9999"><stop offset="0" style="stop-color:#FCFCE4"></stop><stop offset="0.5" style="stop-color:#A0C8DD"></stop><stop offset="1" style="stop-color:#5D6EC5"></stop></linearGradient><path style="fill:url(#hair1XMLID_3340_);stroke:#1E1E1E;stroke-linecap:round;stroke-linejoin:round;" d="M249.815,160.145c0.335,1.005-2.345,20.77,7.705,32.83c1.005-6.699,2.345-13.734,2.345-13.734s2.681,8.375,11.391,14.069c1.675-7.37,6.364-18.425,6.364-18.425s2.011,15.074,9.381,20.436c0.335-5.025,2.68-26.466-8.04-39.866"></path><linearGradient id="hair1XMLID_3341_" gradientUnits="userSpaceOnUse" x1="300.0566" y1="208" x2="300.0566" y2="149"><stop offset="0" style="stop-color:#FCFCE4"></stop><stop offset="0.5" style="stop-color:#A0C8DD"></stop><stop offset="1" style="stop-color:#5D6EC5"></stop></linearGradient><path style="fill:url(#hair1XMLID_3341_);stroke:#1E1E1E;stroke-linecap:round;stroke-linejoin:round;" d="M283.65,162.825c0,0,10.72,23.115,10.05,38.525c4.355-4.689,3.351-15.745,3.351-15.745s9.38,28.476,8.375,40.2c12.06-21.105,17.42-44.891-0.67-74.705"></path></g></g></g></g></svg>