<svg xmlns="http://www.w3.org/2000/svg" width="500" height="500" version="1.1"><g id="x127"><g><linearGradient id="hair1XMLID_3396_" gradientUnits="userSpaceOnUse" x1="250.0503" y1="212.3335" x2="250.0503" y2="148.6671"><stop offset="0" style="stop-color:#FCFCE4"></stop><stop offset="0.5" style="stop-color:#A0C8DD"></stop><stop offset="1" style="stop-color:#5D6EC5"></stop></linearGradient><path style="fill:url(#hair1XMLID_3396_);stroke:#1E1E1E;stroke-linecap:round;stroke-linejoin:round;" d="M311.534,135.882c-17.021-17.418-41.603-23.852-61.484-20.131c-19.882-3.721-44.464,2.713-61.484,20.131c-13.061,13.365-22.283,30.165-22.283,51.08c0,24.372,15.268,44.372,25.934,48.538c-7.33-33.49-0.484-59.331,5.084-68.5c1.798-2.157,29.369-5.491,52.75-5.619c23.381,0.128,50.952,3.462,52.75,5.619c5.568,9.169,12.414,35.01,5.084,68.5c10.666-4.167,25.934-24.167,25.934-48.538C333.817,166.047,324.595,149.248,311.534,135.882z"></path><linearGradient id="hair1XMLID_3397_" gradientUnits="userSpaceOnUse" x1="295.9541" y1="212.3335" x2="295.9541" y2="148.6669"><stop offset="0" style="stop-color:#FCFCE4"></stop><stop offset="0.5" style="stop-color:#A0C8DD"></stop><stop offset="1" style="stop-color:#5D6EC5"></stop></linearGradient><path style="fill:url(#hair1XMLID_3397_);stroke:#1E1E1E;stroke-linecap:round;stroke-linejoin:round;" d="M283.053,162.937c0,0,19.207,23.227,25.461,41.987c2.233-13.4-7.146-39.307-8.486-41.541"></path><linearGradient id="hair1XMLID_3398_" gradientUnits="userSpaceOnUse" x1="216.5" y1="212.3335" x2="216.5" y2="148.6669"><stop offset="0" style="stop-color:#FCFCE4"></stop><stop offset="0.5" style="stop-color:#A0C8DD"></stop><stop offset="1" style="stop-color:#5D6EC5"></stop></linearGradient><path style="fill:url(#hair1XMLID_3398_);stroke:#1E1E1E;stroke-linecap:round;stroke-linejoin:round;" d="M250.224,161.15c0,0-8.487,32.606-21.888,40.2c2.681-8.934,8.487-25.906,8.487-25.906s-9.827,20.547-24.12,26.8c7.146-10.273,11.167-28.14,11.167-28.14s-8.934,20.993-30.374,29.033c2.681-4.467,12.507-27.693,12.507-27.693l-23.227,29.033c0,0,7.146-33.947,19.207-48.687"></path><linearGradient id="hair1XMLID_3399_" gradientUnits="userSpaceOnUse" x1="283.9463" y1="212.3335" x2="283.9463" y2="148.6669"><stop offset="0" style="stop-color:#FCFCE4"></stop><stop offset="0.5" style="stop-color:#A0C8DD"></stop><stop offset="1" style="stop-color:#5D6EC5"></stop></linearGradient><path style="fill:url(#hair1XMLID_3399_);stroke:#1E1E1E;stroke-linecap:round;stroke-linejoin:round;" d="M250.223,161.15c0,0,8.487,32.606,21.888,40.2c-2.681-8.934-8.487-25.906-8.487-25.906s9.827,20.547,24.119,26.8c-7.146-10.273-11.166-28.14-11.166-28.14s8.934,20.993,30.373,29.033c-2.68-4.467-12.507-27.693-12.507-27.693l23.228,29.033c0,0-7.147-33.947-19.207-48.687"></path><g><g><g><linearGradient id="hair1XMLID_3400_" gradientUnits="userSpaceOnUse" x1="188.8198" y1="212.3335" x2="188.8198" y2="148.667"><stop offset="0" style="stop-color:#FCFCE4"></stop><stop offset="0.5" style="stop-color:#A0C8DD"></stop><stop offset="1" style="stop-color:#5D6EC5"></stop></linearGradient><path style="fill:url(#hair1XMLID_3400_);stroke:#1E1E1E;stroke-linecap:round;stroke-linejoin:round;" d="M186.507,152.015c-20.48,29.682-21.82,98.022,7.213,132.862c-2.233-4.914-5.467-13.162-5.359-21.44c2.942,10.896,12.667,20.075,16.08,26.353c-27.247-84.865,1.719-139.56,1.719-139.56"></path></g></g><g><g><linearGradient id="hair1XMLID_3401_" gradientUnits="userSpaceOnUse" x1="311.207" y1="212.3335" x2="311.207" y2="148.667"><stop offset="0" style="stop-color:#FCFCE4"></stop><stop offset="0.5" style="stop-color:#A0C8DD"></stop><stop offset="1" style="stop-color:#5D6EC5"></stop></linearGradient><path style="fill:url(#hair1XMLID_3401_);stroke:#1E1E1E;stroke-linecap:round;stroke-linejoin:round;" d="M313.52,152.015c20.479,29.682,21.82,98.022-7.213,132.862c2.232-4.914,5.467-13.162,5.359-21.44c-2.942,10.896-12.668,20.075-16.08,26.353c27.246-84.865-1.719-139.56-1.719-139.56"></path></g></g></g></g></g></svg>