<svg xmlns="http://www.w3.org/2000/svg" width="500" height="500" version="1.1"><g id="x128"><g><linearGradient id="hair1XMLID_3402_" gradientUnits="userSpaceOnUse" x1="250.0503" y1="205.667" x2="250.0503" y2="154.3335"><stop offset="0" style="stop-color:#FCFCE4"></stop><stop offset="0.5" style="stop-color:#A0C8DD"></stop><stop offset="1" style="stop-color:#5D6EC5"></stop></linearGradient><path style="fill:url(#hair1XMLID_3402_);stroke:#1E1E1E;stroke-linecap:round;stroke-linejoin:round;" d="M311.534,135.882c-17.021-17.418-41.603-23.852-61.484-20.131c-19.882-3.721-44.464,2.713-61.484,20.131c-13.061,13.365-22.283,30.165-22.283,51.08c0,24.372,15.268,44.372,25.934,48.538c-7.33-33.49-0.484-59.331,5.084-68.5c1.798-2.157,29.369-5.491,52.75-5.619c23.381,0.128,50.952,3.462,52.75,5.619c5.568,9.169,12.414,35.01,5.084,68.5c10.666-4.167,25.934-24.167,25.934-48.538C333.817,166.047,324.595,149.248,311.534,135.882z"></path><linearGradient id="hair1XMLID_3403_" gradientUnits="userSpaceOnUse" x1="214.6265" y1="205.667" x2="214.6265" y2="154.3333"><stop offset="0" style="stop-color:#FCFCE4"></stop><stop offset="0.5" style="stop-color:#A0C8DD"></stop><stop offset="1" style="stop-color:#5D6EC5"></stop></linearGradient><path style="fill:url(#hair1XMLID_3403_);stroke:#1E1E1E;stroke-linecap:round;stroke-linejoin:round;" d="M236.783,160.256c0,0-22.78,36.626-33.054,42.433c0.447-6.699,5.36-18.313,5.36-18.313s-13.847,20.547-13.847,22.779c-4.467-17.42-4.02-40.2,4.913-50.473"></path><linearGradient id="hair1XMLID_3404_" gradientUnits="userSpaceOnUse" x1="296.1367" y1="205.667" x2="296.1367" y2="154.3333"><stop offset="0" style="stop-color:#FCFCE4"></stop><stop offset="0.5" style="stop-color:#A0C8DD"></stop><stop offset="1" style="stop-color:#5D6EC5"></stop></linearGradient><path style="fill:url(#hair1XMLID_3404_);stroke:#1E1E1E;stroke-linecap:round;stroke-linejoin:round;" d="M283.236,162.937c0,0,19.206,23.227,25.46,41.987c2.233-13.4-7.146-39.307-8.486-41.541"></path><linearGradient id="hair1XMLID_3405_" gradientUnits="userSpaceOnUse" x1="251.2988" y1="205.667" x2="251.2988" y2="154.3334"><stop offset="0" style="stop-color:#FCFCE4"></stop><stop offset="0.5" style="stop-color:#A0C8DD"></stop><stop offset="1" style="stop-color:#5D6EC5"></stop></linearGradient><path style="fill:url(#hair1XMLID_3405_);stroke:#1E1E1E;stroke-linecap:round;stroke-linejoin:round;" d="M285.023,161.15c0,0-8.487,32.606-21.887,40.2c2.68-8.934,8.486-25.906,8.486-25.906s-9.826,20.547-24.121,26.8c7.147-10.273,11.167-28.14,11.167-28.14s-8.934,20.993-30.374,29.033c2.68-4.467,12.507-27.693,12.507-27.693l-23.228,29.033c0,0,7.147-33.947,19.207-48.687"></path><g><linearGradient id="hair1XMLID_3406_" gradientUnits="userSpaceOnUse" x1="170.8276" y1="205.667" x2="170.8276" y2="154.3335"><stop offset="0" style="stop-color:#FCFCE4"></stop><stop offset="0.5" style="stop-color:#A0C8DD"></stop><stop offset="1" style="stop-color:#5D6EC5"></stop></linearGradient><path style="fill:url(#hair1XMLID_3406_);stroke:#1E1E1E;stroke-linecap:round;stroke-linejoin:round;" d="M178.582,205.816c0,0-11.613,29.033-8.486,50.473c-8.839-28.439-10.734-54.564,2.565-87.195"></path><g><linearGradient id="hair1XMLID_3407_" gradientUnits="userSpaceOnUse" x1="190.1113" y1="205.667" x2="190.1113" y2="154.3335"><stop offset="0" style="stop-color:#FCFCE4"></stop><stop offset="0.5" style="stop-color:#A0C8DD"></stop><stop offset="1" style="stop-color:#5D6EC5"></stop></linearGradient><path style="fill:url(#hair1XMLID_3407_);stroke:#1E1E1E;stroke-linecap:round;stroke-linejoin:round;" d="M186.689,155.812c-19.653,39.753-14.294,91.12,0,121.045c-0.592-5.328-0.661-14.23-0.554-22.511c2.943,10.897,6.521,19.806,9.934,26.085c-6.254-86.207,10.273-126.406,10.273-126.406"></path><linearGradient id="hair1XMLID_3408_" gradientUnits="userSpaceOnUse" x1="196.1357" y1="205.667" x2="196.1357" y2="154.3333"><stop offset="0" style="stop-color:#FCFCE4"></stop><stop offset="0.5" style="stop-color:#A0C8DD"></stop><stop offset="1" style="stop-color:#5D6EC5"></stop></linearGradient><path style="fill:url(#hair1XMLID_3408_);stroke:#1E1E1E;stroke-linecap:round;stroke-linejoin:round;" d="M194.796,212.517c0,0,0.893,39.307,7.593,45.56c-8.04-6.253-12.507-22.779-12.507-22.779"></path></g></g><g><linearGradient id="hair1XMLID_3409_" gradientUnits="userSpaceOnUse" x1="329.1719" y1="205.667" x2="329.1719" y2="154.3335"><stop offset="0" style="stop-color:#FCFCE4"></stop><stop offset="0.5" style="stop-color:#A0C8DD"></stop><stop offset="1" style="stop-color:#5D6EC5"></stop></linearGradient><path style="fill:url(#hair1XMLID_3409_);stroke:#1E1E1E;stroke-linecap:round;stroke-linejoin:round;" d="M321.418,205.816c0,0,11.613,29.033,8.486,50.473c8.47-27.248,10.564-52.373-0.975-83.131"></path><g><linearGradient id="hair1XMLID_3410_" gradientUnits="userSpaceOnUse" x1="310.6924" y1="205.667" x2="310.6924" y2="154.3335"><stop offset="0" style="stop-color:#FCFCE4"></stop><stop offset="0.5" style="stop-color:#A0C8DD"></stop><stop offset="1" style="stop-color:#5D6EC5"></stop></linearGradient><path style="fill:url(#hair1XMLID_3410_);stroke:#1E1E1E;stroke-linecap:round;stroke-linejoin:round;" d="M314.114,155.812c19.654,39.753,14.294,91.12,0,121.045c0.593-5.328,0.661-14.23,0.554-22.511c-2.943,10.897-6.521,19.806-9.934,26.085c6.254-86.207-10.272-126.406-10.272-126.406"></path><linearGradient id="hair1XMLID_3411_" gradientUnits="userSpaceOnUse" x1="304.6758" y1="205.667" x2="304.6758" y2="154.3333"><stop offset="0" style="stop-color:#FCFCE4"></stop><stop offset="0.5" style="stop-color:#A0C8DD"></stop><stop offset="1" style="stop-color:#5D6EC5"></stop></linearGradient><path style="fill:url(#hair1XMLID_3411_);stroke:#1E1E1E;stroke-linecap:round;stroke-linejoin:round;" d="M306.016,212.517c0,0-0.893,39.307-7.593,45.56c8.04-6.253,12.507-22.779,12.507-22.779"></path></g></g></g></g></svg>