<svg xmlns="http://www.w3.org/2000/svg" width="500" height="500" version="1.1"><g id="x013"><g><linearGradient id="hair1XMLID_2521_" gradientUnits="userSpaceOnUse" x1="250.0005" y1="213.667" x2="250.0005" y2="167.6669"><stop offset="0" style="stop-color:#FCFCE4"></stop><stop offset="0.5" style="stop-color:#A0C8DD"></stop><stop offset="1" style="stop-color:#5D6EC5"></stop></linearGradient><path style="fill:url(#hair1XMLID_2521_);stroke:#1E1E1E;stroke-linecap:round;stroke-linejoin:round;" d="M311.484,135.882c-17.021-17.418-41.603-23.852-61.484-20.131c-19.882-3.721-44.464,2.713-61.484,20.131c-13.061,13.365-22.283,30.165-22.283,51.08c0,24.372,15.268,44.372,25.934,48.538c-7.33-33.49-0.484-59.331,5.084-68.5c1.798-2.157,29.369-5.491,52.75-5.619c23.381,0.128,50.952,3.462,52.75,5.619c5.568,9.169,12.414,35.01,5.084,68.5c10.666-4.167,25.934-24.167,25.934-48.538C333.768,166.047,324.545,149.248,311.484,135.882z"></path><g><g><g><path style="fill:none;stroke:#1E1E1E;stroke-linecap:round;stroke-linejoin:round;" d="M193.352,220.586c0,0-12.395-14.74-3.35-42.545"></path><path style="fill:none;stroke:#1E1E1E;stroke-linecap:round;stroke-linejoin:round;" d="M289.943,153.474c-1.786-2.68,28.699,18.872,19.319,67.112"></path></g></g><linearGradient id="hair1XMLID_2522_" gradientUnits="userSpaceOnUse" x1="250.2261" y1="223.167" x2="250.2261" y2="156.1665"><stop offset="0" style="stop-color:#FCFCE4"></stop><stop offset="0.5" style="stop-color:#A0C8DD"></stop><stop offset="1" style="stop-color:#5D6EC5"></stop></linearGradient><path style="fill:url(#hair1XMLID_2522_);stroke:#1E1E1E;stroke-linecap:round;stroke-linejoin:round;" d="M203.269,150.325c-15.41,14.07-23.115,42.545-11.391,63.315c5.695,2.01,13.065,0.67,13.065,0.67s-4.355-10.386,1.675-22.781c-0.335,5.361-0.335,19.431,4.021,22.781c5.024,2.344,19.765,4.354,24.789,3.685c-4.02-4.354-3.685-16.75-3.685-16.75s5.36,16.08,8.04,17.755c1.986,0.851,18.899,0.851,20.886,0c2.68-1.675,8.04-17.755,8.04-17.755s0.335,12.396-3.685,16.75c5.024,0.67,19.765-1.341,24.79-3.685c4.354-3.351,4.354-17.42,4.02-22.781c6.03,12.396,1.675,22.781,1.675,22.781s7.37,1.34,13.065-0.67c11.725-20.771,4.02-49.245-11.391-63.315"></path><g><linearGradient id="hair1XMLID_2523_" gradientUnits="userSpaceOnUse" x1="227.5562" y1="223.1665" x2="227.5562" y2="156.1665"><stop offset="0" style="stop-color:#FCFCE4"></stop><stop offset="0.5" style="stop-color:#A0C8DD"></stop><stop offset="1" style="stop-color:#5D6EC5"></stop></linearGradient><path style="fill:url(#hair1XMLID_2523_);stroke:#1E1E1E;stroke-linecap:round;stroke-linejoin:round;" d="M244.139,136.925c0,0-8.711-8.71-13.065-10.05c-4.355-1.34-20.1,22.11-20.1,22.11S223.703,137.93,244.139,136.925z"></path><linearGradient id="hair1XMLID_2524_" gradientUnits="userSpaceOnUse" x1="209.9634" y1="223.1665" x2="209.9634" y2="156.1666"><stop offset="0" style="stop-color:#FCFCE4"></stop><stop offset="0.5" style="stop-color:#A0C8DD"></stop><stop offset="1" style="stop-color:#5D6EC5"></stop></linearGradient><path style="fill:url(#hair1XMLID_2524_);stroke:#1E1E1E;stroke-linecap:round;stroke-linejoin:round;" d="M245.479,137.93c0,0-11.056-11.725-14.405-11.055s-51.255,49.915-35.377,106.105c6.645,23.511,19.967,49.67,31.356,68.764c0,0-12.729-7.035-18.09-13.736c-1.34-1.004-2.812-3.471-2.812-3.471l-6.234-3.871c-29.479-22.807-57.954-130.341,31.826-166.521c9.715,1.675,17.085,20.77,17.085,20.77"></path></g><g><linearGradient id="hair1XMLID_2525_" gradientUnits="userSpaceOnUse" x1="272.9727" y1="223.1665" x2="272.9727" y2="156.1665"><stop offset="0" style="stop-color:#FCFCE4"></stop><stop offset="0.5" style="stop-color:#A0C8DD"></stop><stop offset="1" style="stop-color:#5D6EC5"></stop></linearGradient><path style="fill:url(#hair1XMLID_2525_);stroke:#1E1E1E;stroke-linecap:round;stroke-linejoin:round;" d="M256.39,136.925c0,0,8.71-8.71,13.065-10.05c4.354-1.34,20.1,22.11,20.1,22.11S276.825,137.93,256.39,136.925z"></path><linearGradient id="hair1XMLID_2526_" gradientUnits="userSpaceOnUse" x1="290.5645" y1="223.1665" x2="290.5645" y2="156.1666"><stop offset="0" style="stop-color:#FCFCE4"></stop><stop offset="0.5" style="stop-color:#A0C8DD"></stop><stop offset="1" style="stop-color:#5D6EC5"></stop></linearGradient><path style="fill:url(#hair1XMLID_2526_);stroke:#1E1E1E;stroke-linecap:round;stroke-linejoin:round;" d="M255.05,137.93c0,0,11.055-11.725,14.405-11.055c3.35,0.67,51.255,49.915,35.376,106.105c-6.644,23.511-19.966,49.67-31.356,68.764c0,0,12.73-7.035,18.09-13.736c1.341-1.004,2.813-3.471,2.813-3.471l6.234-3.871c29.479-22.807,57.953-130.341-31.826-166.521c-9.715,1.675-17.085,20.77-17.085,20.77"></path></g></g></g><g><g><path style="fill:#FFF0DE;" d="M178.006,181.536c0,0,5.852-11.712,8.195-12.295c2.342-0.585-0.816,19.084-4.1,18.149C179.029,186.513,176.834,184.318,178.006,181.536z"></path><path style="fill:#FFF0DE;" d="M186.119,186.217c0,0,0.45-7.659,2.929-9.365c2.478-1.707,1.757,11.708,0,11.708C187.291,188.56,186.119,189.145,186.119,186.217z"></path><path style="fill:#FFF0DE;" d="M318.494,181.536c0,0-5.853-11.712-8.195-12.295c-2.343-0.585,0.816,19.084,4.1,18.149C317.471,186.513,319.665,184.318,318.494,181.536z"></path><path style="fill:#FFF0DE;" d="M310.381,186.217c0,0-0.451-7.659-2.93-9.365c-2.478-1.707-1.756,11.708,0,11.708C309.209,188.56,310.381,189.145,310.381,186.217z"></path></g></g></g></svg>