<svg xmlns="http://www.w3.org/2000/svg" width="500" height="500" version="1.1"><g id="x132"><linearGradient id="hair1XMLID_3444_" gradientUnits="userSpaceOnUse" x1="250.0503" y1="221" x2="250.0503" y2="169"><stop offset="0" style="stop-color:#FCFCE4"></stop><stop offset="0.5" style="stop-color:#A0C8DD"></stop><stop offset="1" style="stop-color:#5D6EC5"></stop></linearGradient><path style="fill:url(#hair1XMLID_3444_);stroke:#1E1E1E;stroke-linecap:round;stroke-linejoin:round;" d="M311.534,135.882c-17.021-17.418-41.603-23.852-61.484-20.131c-19.882-3.721-44.464,2.713-61.484,20.131c-13.061,13.365-22.283,30.165-22.283,51.08c0,24.372,15.268,44.372,25.934,48.538c-7.33-33.49-0.484-59.331,5.084-68.5c1.798-2.157,29.369-5.491,52.75-5.619c23.381,0.128,50.952,3.462,52.75,5.619c5.568,9.169,12.414,35.01,5.084,68.5c10.666-4.167,25.934-24.167,25.934-48.538C333.817,166.047,324.595,149.248,311.534,135.882z"></path><linearGradient id="hair1XMLID_3445_" gradientUnits="userSpaceOnUse" x1="217.5806" y1="221" x2="217.5806" y2="168.9998"><stop offset="0" style="stop-color:#FCFCE4"></stop><stop offset="0.5" style="stop-color:#A0C8DD"></stop><stop offset="1" style="stop-color:#5D6EC5"></stop></linearGradient><path style="fill:url(#hair1XMLID_3445_);stroke:#1E1E1E;stroke-linecap:round;stroke-linejoin:round;" d="M233.921,156.236c0,0-13.401,28.586-31.269,36.18c-6.253-17.42,10.275-38.413,10.275-38.413"></path><g><linearGradient id="hair1XMLID_3446_" gradientUnits="userSpaceOnUse" x1="199.1411" y1="221" x2="199.1411" y2="169"><stop offset="0" style="stop-color:#FCFCE4"></stop><stop offset="0.5" style="stop-color:#A0C8DD"></stop><stop offset="1" style="stop-color:#5D6EC5"></stop></linearGradient><path style="fill:url(#hair1XMLID_3446_);stroke:#1E1E1E;stroke-linecap:round;stroke-linejoin:round;" d="M222.752,148.196c0,1.34-29.479,34.839-19.651,87.546c-19.206-13.399-43.775-35.733-12.955-87.546"></path><linearGradient id="hair1XMLID_3447_" gradientUnits="userSpaceOnUse" x1="181.9717" y1="221" x2="181.9717" y2="168.9999"><stop offset="0" style="stop-color:#FCFCE4"></stop><stop offset="0.5" style="stop-color:#A0C8DD"></stop><stop offset="1" style="stop-color:#5D6EC5"></stop></linearGradient><path style="fill:url(#hair1XMLID_3447_);stroke:#1E1E1E;stroke-linecap:round;stroke-linejoin:round;" d="M200.597,209.389c0,0-6.433,38.412-37.251,29.033c13.847-7.594,15.813-29.926,14.474-35.732"></path></g><linearGradient id="hair1XMLID_3448_" gradientUnits="userSpaceOnUse" x1="243.0239" y1="221" x2="243.0239" y2="169"><stop offset="0" style="stop-color:#FCFCE4"></stop><stop offset="0.5" style="stop-color:#A0C8DD"></stop><stop offset="1" style="stop-color:#5D6EC5"></stop></linearGradient><path style="fill:url(#hair1XMLID_3448_);stroke:#1E1E1E;stroke-linecap:round;stroke-linejoin:round;" d="M230.794,149.09c0,0-19.653,54.047,26.799,78.166c-0.447-17.42,1.787-55.387,1.787-55.387"></path><linearGradient id="hair1XMLID_3449_" gradientUnits="userSpaceOnUse" x1="269.4307" y1="221" x2="269.4307" y2="168.9999"><stop offset="0" style="stop-color:#FCFCE4"></stop><stop offset="0.5" style="stop-color:#A0C8DD"></stop><stop offset="1" style="stop-color:#5D6EC5"></stop></linearGradient><path style="fill:url(#hair1XMLID_3449_);stroke:#1E1E1E;stroke-linecap:round;stroke-linejoin:round;" d="M247.321,202.689c0,0,2.68,13.4,23.226,18.76c-3.572-12.953-3.572-19.207-3.572-19.207s3.574,12.954,24.566,12.954c-10.721-19.653-16.975-41.987-16.975-41.987"></path><linearGradient id="hair1XMLID_3450_" gradientUnits="userSpaceOnUse" x1="304.4941" y1="221" x2="304.4941" y2="169"><stop offset="0" style="stop-color:#FCFCE4"></stop><stop offset="0.5" style="stop-color:#A0C8DD"></stop><stop offset="1" style="stop-color:#5D6EC5"></stop></linearGradient><path style="fill:url(#hair1XMLID_3450_);stroke:#1E1E1E;stroke-linecap:round;stroke-linejoin:round;" d="M272.334,186.609c3.127,9.381,24.566,52.259,64.32,37.52c-25.908-16.527-16.975-67.447-49.58-76.379"></path><linearGradient id="hair1XMLID_3451_" gradientUnits="userSpaceOnUse" x1="267.5186" y1="221" x2="267.5186" y2="169.0002"><stop offset="0" style="stop-color:#FCFCE4"></stop><stop offset="0.5" style="stop-color:#A0C8DD"></stop><stop offset="1" style="stop-color:#5D6EC5"></stop></linearGradient><path style="fill:url(#hair1XMLID_3451_);" d="M242.667,159.333l15.667,40.333c0,0,35.334-40,34-40.333S242.667,159.333,242.667,159.333z"></path></g></svg>