<svg xmlns="http://www.w3.org/2000/svg" width="500" height="500" version="1.1"><g id="x135"><g><g><linearGradient id="hair1XMLID_3474_" gradientUnits="userSpaceOnUse" x1="250.0503" y1="225.3335" x2="250.0503" y2="152.667"><stop offset="0" style="stop-color:#FCFCE4"></stop><stop offset="0.5" style="stop-color:#A0C8DD"></stop><stop offset="1" style="stop-color:#5D6EC5"></stop></linearGradient><path style="fill:url(#hair1XMLID_3474_);stroke:#1E1E1E;stroke-linecap:round;stroke-linejoin:round;" d="M311.534,135.882c-17.021-17.418-41.603-23.852-61.484-20.131c-19.882-3.721-44.464,2.713-61.484,20.131c-13.061,13.365-22.283,30.165-22.283,51.08c0,24.372,15.268,44.372,25.934,48.538c-7.33-33.49-0.484-59.331,5.084-68.5c1.798-2.157,29.369-5.491,52.75-5.619c23.381,0.128,50.952,3.462,52.75,5.619c5.568,9.169,12.414,35.01,5.084,68.5c10.666-4.167,25.934-24.167,25.934-48.538C333.817,166.047,324.595,149.248,311.534,135.882z"></path><linearGradient id="hair1XMLID_3475_" gradientUnits="userSpaceOnUse" x1="256.3652" y1="225.3335" x2="256.3652" y2="152.6669"><stop offset="0" style="stop-color:#FCFCE4"></stop><stop offset="0.5" style="stop-color:#A0C8DD"></stop><stop offset="1" style="stop-color:#5D6EC5"></stop></linearGradient><rect x="194.725" y="148.419" style="fill:url(#hair1XMLID_3475_);" width="123.281" height="27.135"></rect><linearGradient id="hair1XMLID_3476_" gradientUnits="userSpaceOnUse" x1="222.3394" y1="225.3335" x2="222.3394" y2="152.667"><stop offset="0" style="stop-color:#FCFCE4"></stop><stop offset="0.5" style="stop-color:#A0C8DD"></stop><stop offset="1" style="stop-color:#5D6EC5"></stop></linearGradient><path style="fill:url(#hair1XMLID_3476_);stroke:#1E1E1E;stroke-linecap:round;stroke-linejoin:round;" d="M194.725,173.209c0,0-9.38,32.16,4.69,46.9c2.345-24.455,17.42-45.56,17.42-45.56s-12.061,26.8,4.354,48.575c3.016-21.105,9.715-45.561,9.715-45.561s-4.02,27.471,10.721,47.57c1.34-25.125,9.38-48.24,11.39-50.25"></path><linearGradient id="hair1XMLID_3477_" gradientUnits="userSpaceOnUse" x1="283.6406" y1="225.3335" x2="283.6406" y2="152.667"><stop offset="0" style="stop-color:#FCFCE4"></stop><stop offset="0.5" style="stop-color:#A0C8DD"></stop><stop offset="1" style="stop-color:#5D6EC5"></stop></linearGradient><path style="fill:url(#hair1XMLID_3477_);stroke:#1E1E1E;stroke-linecap:round;stroke-linejoin:round;" d="M311.254,173.209c0,0,9.381,32.16-4.689,46.9c-2.346-24.455-17.42-45.56-17.42-45.56s12.061,26.8-4.355,48.575c-3.016-21.105-9.715-45.561-9.715-45.561s4.02,27.471-10.721,47.57c-1.34-25.125-9.379-48.24-11.389-50.25"></path><g><g><linearGradient id="hair1XMLID_3478_" gradientUnits="userSpaceOnUse" x1="188.0254" y1="225.3335" x2="188.0254" y2="152.667"><stop offset="0" style="stop-color:#FCFCE4"></stop><stop offset="0.5" style="stop-color:#A0C8DD"></stop><stop offset="1" style="stop-color:#5D6EC5"></stop></linearGradient><path style="fill:url(#hair1XMLID_3478_);stroke:#1E1E1E;stroke-linecap:round;stroke-linejoin:round;" d="M188.36,209.39c0,0-13.026,13.277-14.739,30.485c-9.621-16.542-1.005-35.51,5.694-43.551c-17.755,12.73-30.819,5.36-34.84,2.01C159,198,171.319,181.036,174.333,173.667c-9.715,6.699-25.838-2.801-28.184-6.822c7.705,0.67,24.12-9.38,38.525-27.135c5.276-6.503,16.415-20.1,21.104-21.44c14.07-4.02,25.796,4.355,25.796,4.355"></path><linearGradient id="hair1XMLID_3479_" gradientUnits="userSpaceOnUse" x1="335.5957" y1="225.3335" x2="335.5957" y2="152.667"><stop offset="0" style="stop-color:#FCFCE4"></stop><stop offset="0.5" style="stop-color:#A0C8DD"></stop><stop offset="1" style="stop-color:#5D6EC5"></stop></linearGradient><path style="fill:url(#hair1XMLID_3479_);stroke:#1E1E1E;stroke-linecap:round;stroke-linejoin:round;" d="M315.667,213.667c0,0,4.683,19.173,32.487,19.173c-15.154-12.506-16.75-39.53-16.75-39.53s7.371,13.065,24.121,8.71c-12.858-5.353-17.42-45.56-38.189-57.62"></path></g></g></g><g><linearGradient id="hair1XMLID_3480_" gradientUnits="userSpaceOnUse" x1="191.2539" y1="225.3335" x2="191.2539" y2="152.667"><stop offset="0" style="stop-color:#FCFCE4"></stop><stop offset="0.5" style="stop-color:#A0C8DD"></stop><stop offset="1" style="stop-color:#5D6EC5"></stop></linearGradient><path style="fill:url(#hair1XMLID_3480_);stroke:#1E1E1E;stroke-linecap:round;stroke-linejoin:round;" d="M193.615,148.419c0,0-18.09,16.75-18.76,49.581c-0.67,32.83,9.38,51.59,7.37,75.709c7.035,12.395,16.08,9.045,15.41,7.705s-14.405-92.459,10.05-126.629"></path><linearGradient id="hair1XMLID_3481_" gradientUnits="userSpaceOnUse" x1="184.6611" y1="225.333" x2="184.6611" y2="152.6665"><stop offset="0" style="stop-color:#FCFCE4"></stop><stop offset="0.5" style="stop-color:#A0C8DD"></stop><stop offset="1" style="stop-color:#5D6EC5"></stop></linearGradient><path style="fill:url(#hair1XMLID_3481_);stroke:#1E1E1E;stroke-linecap:round;stroke-linejoin:round;" d="M195.291,259.64c-0.335,2.681,5.359,25.794,1.005,40.2c-4.355,14.404-13.735,34.504-9.045,45.895c-12.061-15.744-19.096-28.141-14.405-45.225c4.689-17.086,10.385-33.835,10.385-41.54"></path><linearGradient id="hair1XMLID_3482_" gradientUnits="userSpaceOnUse" x1="308.7461" y1="225.3335" x2="308.7461" y2="152.667"><stop offset="0" style="stop-color:#FCFCE4"></stop><stop offset="0.5" style="stop-color:#A0C8DD"></stop><stop offset="1" style="stop-color:#5D6EC5"></stop></linearGradient><path style="fill:url(#hair1XMLID_3482_);stroke:#1E1E1E;stroke-linecap:round;stroke-linejoin:round;" d="M306.384,148.419c0,0,18.09,16.75,18.76,49.581c0.672,32.83-9.379,51.59-7.369,75.709c-7.035,12.395-16.08,9.045-15.41,7.705s14.404-92.459-10.049-126.629"></path><linearGradient id="hair1XMLID_3483_" gradientUnits="userSpaceOnUse" x1="315.3389" y1="225.333" x2="315.3389" y2="152.6665"><stop offset="0" style="stop-color:#FCFCE4"></stop><stop offset="0.5" style="stop-color:#A0C8DD"></stop><stop offset="1" style="stop-color:#5D6EC5"></stop></linearGradient><path style="fill:url(#hair1XMLID_3483_);stroke:#1E1E1E;stroke-linecap:round;stroke-linejoin:round;" d="M304.71,259.64c0.334,2.681-5.361,25.794-1.006,40.2c4.355,14.404,13.736,34.504,9.045,45.895c12.061-15.744,19.096-28.141,14.406-45.225c-4.691-17.086-10.387-33.835-10.387-41.54"></path></g></g></g></svg>