<svg xmlns="http://www.w3.org/2000/svg" width="500" height="500" version="1.1"><g id="x138"><g><linearGradient id="hair1XMLID_3505_" gradientUnits="userSpaceOnUse" x1="250.0503" y1="222" x2="250.0503" y2="151"><stop offset="0" style="stop-color:#FCFCE4"></stop><stop offset="0.5" style="stop-color:#A0C8DD"></stop><stop offset="1" style="stop-color:#5D6EC5"></stop></linearGradient><path style="fill:url(#hair1XMLID_3505_);stroke:#1E1E1E;stroke-linecap:round;stroke-linejoin:round;" d="M311.534,135.882c-17.021-17.418-41.603-23.852-61.484-20.131c-19.882-3.721-44.464,2.713-61.484,20.131c-13.061,13.365-22.283,30.165-22.283,51.08c0,24.372,15.268,44.372,25.934,48.538c-7.33-33.49-0.484-59.331,5.084-68.5c1.798-2.157,29.369-5.491,52.75-5.619c23.381,0.128,50.952,3.462,52.75,5.619c5.568,9.169,12.414,35.01,5.084,68.5c10.666-4.167,25.934-24.167,25.934-48.538C333.817,166.047,324.595,149.248,311.534,135.882z"></path><linearGradient id="hair1XMLID_3506_" gradientUnits="userSpaceOnUse" x1="294.4307" y1="222" x2="294.4307" y2="151"><stop offset="0" style="stop-color:#FCFCE4"></stop><stop offset="0.5" style="stop-color:#A0C8DD"></stop><stop offset="1" style="stop-color:#5D6EC5"></stop></linearGradient><path style="fill:url(#hair1XMLID_3506_);stroke:#1E1E1E;stroke-linecap:round;stroke-linejoin:round;" d="M250.088,115.483c60.757-9.932,85.771,43.773,88.686,72.806c-7.493-20.992-18.316-33.053-18.316-33.053c24.561,42.879,11.655,82.187-3.747,103.18c2.914-10.273,2.082-41.54,0-56.727c0,0-2.294,41.54-30.185,58.961c12.488-25.908,8.741-77.721-12.904-99.607"></path><linearGradient id="hair1XMLID_3507_" gradientUnits="userSpaceOnUse" x1="224.0864" y1="222" x2="224.0864" y2="151"><stop offset="0" style="stop-color:#FCFCE4"></stop><stop offset="0.5" style="stop-color:#A0C8DD"></stop><stop offset="1" style="stop-color:#5D6EC5"></stop></linearGradient><path style="fill:url(#hair1XMLID_3507_);stroke:#1E1E1E;stroke-linecap:round;stroke-linejoin:round;" d="M286.525,159.256c0,1.34,3.33,41.093-8.741,58.959c2.497-9.38,0.832-32.606,0.832-32.606s-5.827,31.713-15.818,41.986c4.579-16.08,5.828-37.52,5.828-37.52s-17.067,28.14-19.148,47.347c-2.914-14.74-8.742-39.753-0.833-53.601c-8.325,21.44-16.65,45.114-14.569,58.067c-8.742-24.567-10.406-49.134-3.33-69.681c-14.153,21.887-29.14,46.453-25.81,67.447c3.331,20.994,9.158,24.566,9.158,24.566s-33.718-15.186-30.805-62.533c-2.08,15.188-2.913,46.453,0,56.727c-15.401-20.993-28.306-60.3-3.746-103.18c0,0-10.823,12.061-18.316,33.053c2.915-29.033,27.928-82.738,88.686-72.806"></path></g></g></svg>