<svg xmlns="http://www.w3.org/2000/svg" width="500" height="500" version="1.1"><g id="x139"><g><linearGradient id="hair1XMLID_3508_" gradientUnits="userSpaceOnUse" x1="250.0503" y1="217.3335" x2="250.0503" y2="153.3335"><stop offset="0" style="stop-color:#FCFCE4"></stop><stop offset="0.5" style="stop-color:#A0C8DD"></stop><stop offset="1" style="stop-color:#5D6EC5"></stop></linearGradient><path style="fill:url(#hair1XMLID_3508_);stroke:#1E1E1E;stroke-linecap:round;stroke-linejoin:round;" d="M311.534,135.882c-17.021-17.418-41.603-23.852-61.484-20.131c-19.882-3.721-44.464,2.713-61.484,20.131c-13.061,13.365-22.283,30.165-22.283,51.08c0,24.372,15.268,44.372,25.934,48.538c-7.33-33.49-0.484-59.331,5.084-68.5c1.798-2.157,29.369-5.491,52.75-5.619c23.381,0.128,50.952,3.462,52.75,5.619c5.568,9.169,12.414,35.01,5.084,68.5c10.666-4.167,25.934-24.167,25.934-48.538C333.817,166.047,324.595,149.248,311.534,135.882z"></path><g><linearGradient id="hair1XMLID_3509_" gradientUnits="userSpaceOnUse" x1="313.4277" y1="217.3335" x2="313.4277" y2="153.3335"><stop offset="0" style="stop-color:#FCFCE4"></stop><stop offset="0.5" style="stop-color:#A0C8DD"></stop><stop offset="1" style="stop-color:#5D6EC5"></stop></linearGradient><path style="fill:url(#hair1XMLID_3509_);stroke:#1E1E1E;stroke-linecap:round;stroke-linejoin:round;" d="M294.668,160.703c0,2.233,10.272,58.96,23.673,66.106c4.913,1.786,10.273,0.446,10.273,0.446s3.573-4.02,3.573-5.807c0-1.786-2.68-5.359-2.68-5.359l-6.254-0.894c0,0,5.36-51.813-20.993-74.146"></path><path style="fill:none;stroke:#1E1E1E;stroke-linecap:round;stroke-linejoin:round;" d="M306.728,190.184c0,0,4.912,22.779,19.206,25.459"></path></g><linearGradient id="hair1XMLID_3510_" gradientUnits="userSpaceOnUse" x1="286.2168" y1="217.3335" x2="286.2168" y2="153.3337"><stop offset="0" style="stop-color:#FCFCE4"></stop><stop offset="0.5" style="stop-color:#A0C8DD"></stop><stop offset="1" style="stop-color:#5D6EC5"></stop></linearGradient><path style="fill:url(#hair1XMLID_3510_);stroke:#1E1E1E;stroke-linecap:round;stroke-linejoin:round;" d="M270.548,149.983c0,1.34,21.886,30.82,28.586,61.193c3.574-16.08,4.467-39.753-2.233-56.28"></path><g><linearGradient id="hair1XMLID_3511_" gradientUnits="userSpaceOnUse" x1="186.127" y1="217.3335" x2="186.127" y2="153.3335"><stop offset="0" style="stop-color:#FCFCE4"></stop><stop offset="0.5" style="stop-color:#A0C8DD"></stop><stop offset="1" style="stop-color:#5D6EC5"></stop></linearGradient><path style="fill:url(#hair1XMLID_3511_);stroke:#1E1E1E;stroke-linecap:round;stroke-linejoin:round;" d="M204.887,160.703c0,2.233-10.272,58.96-23.673,66.106c-4.913,1.786-10.273,0.446-10.273,0.446s-3.573-4.02-3.573-5.807c0-1.786,2.68-5.359,2.68-5.359l6.254-0.894c0,0-5.36-51.813,20.993-74.146"></path><path style="fill:none;stroke:#1E1E1E;stroke-linecap:round;stroke-linejoin:round;" d="M192.827,190.184c0,0-4.913,22.779-19.206,25.459"></path></g><linearGradient id="hair1XMLID_3512_" gradientUnits="userSpaceOnUse" x1="213.3374" y1="217.3335" x2="213.3374" y2="153.3337"><stop offset="0" style="stop-color:#FCFCE4"></stop><stop offset="0.5" style="stop-color:#A0C8DD"></stop><stop offset="1" style="stop-color:#5D6EC5"></stop></linearGradient><path style="fill:url(#hair1XMLID_3512_);stroke:#1E1E1E;stroke-linecap:round;stroke-linejoin:round;" d="M229.007,149.983c0,1.34-21.886,30.82-28.586,61.193c-3.574-16.08-4.467-39.753,2.233-56.28"></path><linearGradient id="hair1XMLID_3513_" gradientUnits="userSpaceOnUse" x1="247.4478" y1="217.3335" x2="247.4478" y2="153.3335"><stop offset="0" style="stop-color:#FCFCE4"></stop><stop offset="0.5" style="stop-color:#A0C8DD"></stop><stop offset="1" style="stop-color:#5D6EC5"></stop></linearGradient><path style="fill:url(#hair1XMLID_3513_);stroke:#1E1E1E;stroke-linecap:round;stroke-linejoin:round;" d="M226.328,141.496c0,0-15.635,38.414,0.445,67.447c-1.786-12.953,0-30.373,0-30.373s0,30.819,8.04,36.18c6.7,3.127,12.954,3.127,12.954,3.127s-1.787-22.334-1.34-27.247c1.34,15.187,4.913,28.14,4.913,28.14s12.507-6.253,13.847-8.486c1.787-11.167,1.787-30.373,1.787-30.373c1.786,12.506,3.572,26.353,3.126,29.926c4.467-10.273,9.826-46.9-1.34-69.68"></path></g></g></svg>