<svg xmlns="http://www.w3.org/2000/svg" width="500" height="500" version="1.1"><g id="x014"><g><linearGradient id="hair1XMLID_2527_" gradientUnits="userSpaceOnUse" x1="250.0005" y1="218.3335" x2="250.0005" y2="155.9999"><stop offset="0" style="stop-color:#FCFCE4"></stop><stop offset="0.5" style="stop-color:#A0C8DD"></stop><stop offset="1" style="stop-color:#5D6EC5"></stop></linearGradient><path style="fill:url(#hair1XMLID_2527_);stroke:#1E1E1E;stroke-linecap:round;stroke-linejoin:round;" d="M311.484,135.882c-17.021-17.418-41.603-23.852-61.484-20.131c-19.882-3.721-44.464,2.713-61.484,20.131c-13.061,13.365-22.283,30.165-22.283,51.08c0,24.372,15.268,44.372,25.934,48.538c-7.33-33.49-0.484-59.331,5.084-68.5c1.798-2.157,29.369-5.491,52.75-5.619c23.381,0.128,50.952,3.462,52.75,5.619c5.568,9.169,12.414,35.01,5.084,68.5c10.666-4.167,25.934-24.167,25.934-48.538C333.768,166.047,324.545,149.248,311.484,135.882z"></path><g><g><g><g><path style="fill:none;stroke:#1E1E1E;stroke-linecap:round;stroke-linejoin:round;" d="M293.986,159.271c7.736,6.286,26.111,22.725,23.696,59.957"></path></g></g><g><linearGradient id="hair1XMLID_2528_" gradientUnits="userSpaceOnUse" x1="308.5664" y1="218.665" x2="308.5664" y2="218.665"><stop offset="0" style="stop-color:#FCFCE4"></stop><stop offset="0.5" style="stop-color:#A0C8DD"></stop><stop offset="1" style="stop-color:#5D6EC5"></stop></linearGradient><path style="fill:url(#hair1XMLID_2528_);stroke:#1E1E1E;stroke-linecap:round;stroke-linejoin:round;" d="M308.566,218.665"></path></g></g><g><g><linearGradient id="hair1XMLID_2529_" gradientUnits="userSpaceOnUse" x1="189.6851" y1="223.166" x2="189.6851" y2="156.1664"><stop offset="0" style="stop-color:#FCFCE4"></stop><stop offset="0.5" style="stop-color:#A0C8DD"></stop><stop offset="1" style="stop-color:#5D6EC5"></stop></linearGradient><path style="fill:url(#hair1XMLID_2529_);stroke:#1E1E1E;stroke-linecap:round;stroke-linejoin:round;" d="M218.08,152.238c0,0,1.023,39.443-21.491,45.73c-4.093,20.578-15.35,31.442-35.306,24.582c11.051-3.597,16.16-9.656,13.731-21.017c-4.104-19.187,0.447-54.046,27.023-67.446"></path></g><linearGradient id="hair1XMLID_2530_" gradientUnits="userSpaceOnUse" x1="224.6665" y1="223.1665" x2="224.6665" y2="156.1665"><stop offset="0" style="stop-color:#FCFCE4"></stop><stop offset="0.5" style="stop-color:#A0C8DD"></stop><stop offset="1" style="stop-color:#5D6EC5"></stop></linearGradient><path style="fill:url(#hair1XMLID_2530_);stroke:#1E1E1E;stroke-linecap:round;stroke-linejoin:round;" d="M219.104,143.094c0,0-13.305,41.725,14.328,68.593c-5.117-16.004-6.729-44.868-4.682-49.438"></path><g><linearGradient id="hair1XMLID_2531_" gradientUnits="userSpaceOnUse" x1="280.25" y1="223.167" x2="280.25" y2="156.1667"><stop offset="0" style="stop-color:#FCFCE4"></stop><stop offset="0.5" style="stop-color:#A0C8DD"></stop><stop offset="1" style="stop-color:#5D6EC5"></stop></linearGradient><path style="fill:url(#hair1XMLID_2531_);stroke:#1E1E1E;stroke-linecap:round;stroke-linejoin:round;" d="M227.29,153.379c0,0,1.023,45.736,29.166,56.023c2.048,0.568,12.791,13.148,35.308,9.715c1.534,1.146,12.28,16.01,41.446,6.863c-8.187-3.43-13.815-5.146-16.886-15.437c-3.07-10.288,1.023-64.597-34.282-74.312"></path><path style="fill:none;stroke:#1E1E1E;stroke-linecap:round;stroke-linejoin:round;" d="M251.341,147.667c0,0,23.536,6.289,30.701,30.869c6.45,22.131,7.16,42.299,15.861,45.729"></path><linearGradient id="hair1XMLID_2532_" gradientUnits="userSpaceOnUse" x1="324.9824" y1="223.1665" x2="324.9824" y2="156.1655"><stop offset="0" style="stop-color:#FCFCE4"></stop><stop offset="0.5" style="stop-color:#A0C8DD"></stop><stop offset="1" style="stop-color:#5D6EC5"></stop></linearGradient><path style="fill:url(#hair1XMLID_2532_);stroke:#1E1E1E;stroke-linecap:round;stroke-linejoin:round;" d="M312.098,210.24c0,0,13.522,17.815,26.619,1.743c-9.21-2.782-19.943-2.259-27.468-29.515"></path></g></g></g></g><g><g><path style="fill:#FFF0DE;" d="M178.006,181.536c0,0,5.852-11.712,8.195-12.295c2.342-0.585-0.816,19.084-4.1,18.149C179.029,186.513,176.834,184.318,178.006,181.536z"></path><path style="fill:#FFF0DE;" d="M186.119,186.217c0,0,0.45-7.659,2.929-9.365c2.478-1.707,1.757,11.708,0,11.708C187.291,188.56,186.119,189.145,186.119,186.217z"></path><path style="fill:#FFF0DE;" d="M309.744,181.536c0,0-5.853-11.712-8.195-12.295c-2.343-0.585,0.816,19.084,4.1,18.149C308.721,186.513,310.915,184.318,309.744,181.536z"></path><path style="fill:#FFF0DE;" d="M301.631,186.217c0,0-0.451-7.659-2.93-9.365c-2.478-1.707-1.756,11.708,0,11.708C300.459,188.56,301.631,189.145,301.631,186.217z"></path></g><path style="fill:#FFF0DE;" d="M242.828,187.72c0,0,0-11.417,2.635-14.489c2.631-3.074,6.058,14.753,3.074,16.245C245.901,190.794,242.828,190.794,242.828,187.72z"></path><path style="fill:#FFF0DE;" d="M252.489,187.72c-1.761-2.196,0-10.1,0.876-11.417c0.879-1.317,4.391,10.098,2.635,12.294C253.736,191.426,254.244,189.915,252.489,187.72z"></path></g></g></svg>