<svg xmlns="http://www.w3.org/2000/svg" width="500" height="500" version="1.1"><g id="x141"><g><g><linearGradient id="hair1XMLID_3528_" gradientUnits="userSpaceOnUse" x1="250.0503" y1="213" x2="250.0503" y2="163.6671"><stop offset="0" style="stop-color:#FCFCE4"></stop><stop offset="0.5" style="stop-color:#A0C8DD"></stop><stop offset="1" style="stop-color:#5D6EC5"></stop></linearGradient><path style="fill:url(#hair1XMLID_3528_);stroke:#1E1E1E;stroke-linecap:round;stroke-linejoin:round;" d="M311.534,135.882c-17.021-17.418-41.603-23.852-61.484-20.131c-19.882-3.721-44.464,2.713-61.484,20.131c-13.061,13.365-22.283,30.165-22.283,51.08c0,24.372,15.268,44.372,25.934,48.538c-7.33-33.49-0.484-59.331,5.084-68.5c1.798-2.157,29.369-5.491,52.75-5.619c23.381,0.128,50.952,3.462,52.75,5.619c5.568,9.169,12.414,35.01,5.084,68.5c10.666-4.167,25.934-24.167,25.934-48.538C333.817,166.047,324.595,149.248,311.534,135.882z"></path></g><linearGradient id="hair1XMLID_3529_" gradientUnits="userSpaceOnUse" x1="328.7686" y1="213" x2="328.7686" y2="163.6672"><stop offset="0" style="stop-color:#FCFCE4"></stop><stop offset="0.5" style="stop-color:#A0C8DD"></stop><stop offset="1" style="stop-color:#5D6EC5"></stop></linearGradient><path style="fill:url(#hair1XMLID_3529_);stroke:#1E1E1E;stroke-linecap:round;stroke-linejoin:round;" d="M326.886,212.755c0,0,5.431,13.918,17.651,15.615c-17.313,8.826-26.105,6.709-31.537-11.62c1-7.75,1.25-21.25,1.25-21.25"></path><linearGradient id="hair1XMLID_3530_" gradientUnits="userSpaceOnUse" x1="323.6504" y1="213" x2="323.6504" y2="163.667"><stop offset="0" style="stop-color:#FCFCE4"></stop><stop offset="0.5" style="stop-color:#A0C8DD"></stop><stop offset="1" style="stop-color:#5D6EC5"></stop></linearGradient><path style="fill:url(#hair1XMLID_3530_);stroke:#1E1E1E;stroke-linecap:round;stroke-linejoin:round;" d="M311.25,202.75c6.25,9.75,14.617,15.437,24.801,11.363c-4.073-12.22-0.34-30.55-3.734-50.238c0,0-3.055-22.743-14.257-35.302"></path><linearGradient id="hair1XMLID_3531_" gradientUnits="userSpaceOnUse" x1="332.9961" y1="213" x2="332.9961" y2="163.6669"><stop offset="0" style="stop-color:#FCFCE4"></stop><stop offset="0.5" style="stop-color:#A0C8DD"></stop><stop offset="1" style="stop-color:#5D6EC5"></stop></linearGradient><path style="fill:url(#hair1XMLID_3531_);stroke:#1E1E1E;stroke-linecap:round;stroke-linejoin:round;" d="M330.279,189.333c0,0-3.055,19.688,15.955,25.459c-5.771,6.11-22.404,7.807-26.478-11.542"></path><linearGradient id="hair1XMLID_3532_" gradientUnits="userSpaceOnUse" x1="324.8486" y1="213" x2="324.8486" y2="163.6668"><stop offset="0" style="stop-color:#FCFCE4"></stop><stop offset="0.5" style="stop-color:#A0C8DD"></stop><stop offset="1" style="stop-color:#5D6EC5"></stop></linearGradient><path style="fill:url(#hair1XMLID_3532_);stroke:#1E1E1E;stroke-linecap:round;stroke-linejoin:round;" d="M302.105,127.894c0,0,21.046,0,28.854,13.238c7.807,13.238,10.184,26.816,16.633,30.889c-11.202-1.697-23.083-2.715-30.55-16.293"></path><linearGradient id="hair1XMLID_3533_" gradientUnits="userSpaceOnUse" x1="294.5605" y1="213" x2="294.5605" y2="163.667"><stop offset="0" style="stop-color:#FCFCE4"></stop><stop offset="0.5" style="stop-color:#A0C8DD"></stop><stop offset="1" style="stop-color:#5D6EC5"></stop></linearGradient><path style="fill:url(#hair1XMLID_3533_);stroke:#1E1E1E;stroke-linecap:round;stroke-linejoin:round;" d="M256.032,114.531c1.357-0.679,14.257-15.275,35.643-8.147c21.385,7.128,27.495,20.367,41.413,21.385c-12.899,2.376-18.331,8.826-34.965,5.431"></path><linearGradient id="hair1XMLID_3534_" gradientUnits="userSpaceOnUse" x1="248.5254" y1="213" x2="248.5254" y2="163.6668"><stop offset="0" style="stop-color:#FCFCE4"></stop><stop offset="0.5" style="stop-color:#A0C8DD"></stop><stop offset="1" style="stop-color:#5D6EC5"></stop></linearGradient><path style="fill:url(#hair1XMLID_3534_);stroke:#1E1E1E;stroke-linecap:round;stroke-linejoin:round;" d="M230.823,116.959c0,0-2.036-13.238,5.432-16.972c7.468-3.734,21.385-2.716,29.531-13.239c2.717,8.147-2.716,30.211-13.238,32.927"></path><linearGradient id="hair1XMLID_3535_" gradientUnits="userSpaceOnUse" x1="201.5166" y1="213" x2="201.5166" y2="163.667"><stop offset="0" style="stop-color:#FCFCE4"></stop><stop offset="0.5" style="stop-color:#A0C8DD"></stop><stop offset="1" style="stop-color:#5D6EC5"></stop></linearGradient><path style="fill:url(#hair1XMLID_3535_);stroke:#1E1E1E;stroke-linecap:round;stroke-linejoin:round;" d="M198.913,129.59c0,0-23.103,3.984-31.557-3.792c13.743-2.42,18.593-6.794,25.697-11.283c13.634-8.614,26.025-8.022,31.43-5.971c5.197,1.973,8.167,7.226,11.193,9.949"></path><linearGradient id="hair1XMLID_3536_" gradientUnits="userSpaceOnUse" x1="164.2891" y1="213" x2="164.2891" y2="163.6669"><stop offset="0" style="stop-color:#FCFCE4"></stop><stop offset="0.5" style="stop-color:#A0C8DD"></stop><stop offset="1" style="stop-color:#5D6EC5"></stop></linearGradient><path style="fill:url(#hair1XMLID_3536_);stroke:#1E1E1E;stroke-linecap:round;stroke-linejoin:round;" d="M167.005,189.333c0,0,3.055,19.688-15.954,25.459c5.771,6.11,22.403,7.807,26.477-11.542"></path><linearGradient id="hair1XMLID_3537_" gradientUnits="userSpaceOnUse" x1="170.2295" y1="213" x2="170.2295" y2="163.6669"><stop offset="0" style="stop-color:#FCFCE4"></stop><stop offset="0.5" style="stop-color:#A0C8DD"></stop><stop offset="1" style="stop-color:#5D6EC5"></stop></linearGradient><path style="fill:url(#hair1XMLID_3537_);stroke:#1E1E1E;stroke-linecap:round;stroke-linejoin:round;" d="M170.399,212.755c0,0-5.432,13.918-17.651,15.615c17.312,8.826,29.532,4.072,34.963-14.257c-4.413-6.449-7.468-15.954-7.468-15.954"></path><linearGradient id="hair1XMLID_3538_" gradientUnits="userSpaceOnUse" x1="186.125" y1="213" x2="186.125" y2="163.667"><stop offset="0" style="stop-color:#FCFCE4"></stop><stop offset="0.5" style="stop-color:#A0C8DD"></stop><stop offset="1" style="stop-color:#5D6EC5"></stop></linearGradient><path style="fill:url(#hair1XMLID_3538_);stroke:#1E1E1E;stroke-linecap:round;stroke-linejoin:round;" d="M172,186c0,0,3.13,40.966,28.25,38.25c-11.202-13.578-4.053-43.063-4.053-43.063l-6.449-12.56"></path><linearGradient id="hair1XMLID_3539_" gradientUnits="userSpaceOnUse" x1="321.002" y1="213" x2="321.002" y2="163.667"><stop offset="0" style="stop-color:#FCFCE4"></stop><stop offset="0.5" style="stop-color:#A0C8DD"></stop><stop offset="1" style="stop-color:#5D6EC5"></stop></linearGradient><path style="fill:url(#hair1XMLID_3539_);stroke:#1E1E1E;stroke-linecap:round;stroke-linejoin:round;" d="M293.054,123.819c0,0,25.458,7.016,32.587,29.419c7.129,22.404,6.337,44.354,23.309,50.125c-1.018-0.34-44.468,20.028-48.201-25.459"></path><linearGradient id="hair1XMLID_3540_" gradientUnits="userSpaceOnUse" x1="292.3555" y1="213" x2="292.3555" y2="163.667"><stop offset="0" style="stop-color:#FCFCE4"></stop><stop offset="0.5" style="stop-color:#A0C8DD"></stop><stop offset="1" style="stop-color:#5D6EC5"></stop></linearGradient><path style="fill:url(#hair1XMLID_3540_);stroke:#1E1E1E;stroke-linecap:round;stroke-linejoin:round;" d="M269.179,165.685c-0.339,1.018-5.092,26.816,12.561,35.303c-4.413-9.166-2.717-20.706-2.717-20.706s4.753,26.477,37.34,25.797c-6.449-12.899-3.325-16.267-5.362-33.579c-2.037-17.311-12.515-41.212-23.378-44.833"></path><linearGradient id="hair1XMLID_3541_" gradientUnits="userSpaceOnUse" x1="316" y1="213" x2="316" y2="163.6668"><stop offset="0" style="stop-color:#FCFCE4"></stop><stop offset="0.5" style="stop-color:#A0C8DD"></stop><stop offset="1" style="stop-color:#5D6EC5"></stop></linearGradient><path style="fill:url(#hair1XMLID_3541_);stroke:#1E1E1E;stroke-linecap:round;stroke-linejoin:round;" d="M298,195.25c0,0.75,12.25,16.75,36,9.25c-13.5-9.25-24.5-21-26.75-34.25"></path><g><linearGradient id="hair1XMLID_3542_" gradientUnits="userSpaceOnUse" x1="259.208" y1="213" x2="259.208" y2="163.667"><stop offset="0" style="stop-color:#FCFCE4"></stop><stop offset="0.5" style="stop-color:#A0C8DD"></stop><stop offset="1" style="stop-color:#5D6EC5"></stop></linearGradient><path style="fill:url(#hair1XMLID_3542_);stroke:#1E1E1E;stroke-linecap:round;stroke-linejoin:round;" d="M269.519,127.214c0,0,16.972,11.429,11.201,32.135c-5.771,20.706-20.027,23.083-20.027,23.083S259,202.25,236.5,206.25c10.25-12.25,12.991-49.617,7.22-57.085"></path><path style="fill:none;stroke:#1E1E1E;stroke-linecap:round;stroke-linejoin:round;" d="M261.574,167.835c0,0,1.697,8.486-1.696,17.991"></path></g><linearGradient id="hair1XMLID_3543_" gradientUnits="userSpaceOnUse" x1="234.728" y1="213" x2="234.728" y2="163.667"><stop offset="0" style="stop-color:#FCFCE4"></stop><stop offset="0.5" style="stop-color:#A0C8DD"></stop><stop offset="1" style="stop-color:#5D6EC5"></stop></linearGradient><path style="fill:url(#hair1XMLID_3543_);stroke:#1E1E1E;stroke-linecap:round;stroke-linejoin:round;" d="M248.245,129.477c0,0,12.108,9.957,7.355,32.7c-4.752,22.743-21.126,34.81-42.851,37.073c14-9.5,17.053-33.338,7.549-44.201"></path><linearGradient id="hair1XMLID_3544_" gradientUnits="userSpaceOnUse" x1="209.625" y1="213" x2="209.625" y2="163.6669"><stop offset="0" style="stop-color:#FCFCE4"></stop><stop offset="0.5" style="stop-color:#A0C8DD"></stop><stop offset="1" style="stop-color:#5D6EC5"></stop></linearGradient><path style="fill:url(#hair1XMLID_3544_);stroke:#1E1E1E;stroke-linecap:round;stroke-linejoin:round;" d="M230.25,153.5c0,0-3.483,42.071-36.75,42.75c-2.036-13.579-4.5-40.5-4.5-40.5"></path><linearGradient id="hair1XMLID_3545_" gradientUnits="userSpaceOnUse" x1="194.7983" y1="213" x2="194.7983" y2="163.667"><stop offset="0" style="stop-color:#FCFCE4"></stop><stop offset="0.5" style="stop-color:#A0C8DD"></stop><stop offset="1" style="stop-color:#5D6EC5"></stop></linearGradient><path style="fill:url(#hair1XMLID_3545_);stroke:#1E1E1E;stroke-linecap:round;stroke-linejoin:round;" d="M190.427,145.545c0,0-25.927,47.205,16.573,62.955c-9.166-22.743-1.977-50.396-1.977-50.396"></path></g></g></svg>