<svg xmlns="http://www.w3.org/2000/svg" width="500" height="500" version="1.1"><g id="x143"><g><linearGradient id="hair1XMLID_3552_" gradientUnits="userSpaceOnUse" x1="250.0503" y1="215.3335" x2="250.0503" y2="152"><stop offset="0" style="stop-color:#FCFCE4"></stop><stop offset="0.5" style="stop-color:#A0C8DD"></stop><stop offset="1" style="stop-color:#5D6EC5"></stop></linearGradient><path style="fill:url(#hair1XMLID_3552_);stroke:#1E1E1E;stroke-linecap:round;stroke-linejoin:round;" d="M311.534,135.882c-17.021-17.418-41.603-23.852-61.484-20.131c-19.882-3.721-44.464,2.713-61.484,20.131c-13.061,13.365-22.283,30.165-22.283,51.08c0,24.372,15.268,44.372,25.934,48.538c-7.33-33.49-0.484-59.331,5.084-68.5c1.798-2.157,29.369-5.491,52.75-5.619c23.381,0.128,50.952,3.462,52.75,5.619c5.568,9.169,12.414,35.01,5.084,68.5c10.666-4.167,25.934-24.167,25.934-48.538C333.817,166.047,324.595,149.248,311.534,135.882z"></path><g><linearGradient id="hair1XMLID_3553_" gradientUnits="userSpaceOnUse" x1="167.7012" y1="215.3335" x2="167.7012" y2="152"><stop offset="0" style="stop-color:#FCFCE4"></stop><stop offset="0.5" style="stop-color:#A0C8DD"></stop><stop offset="1" style="stop-color:#5D6EC5"></stop></linearGradient><path style="fill:url(#hair1XMLID_3553_);stroke:#1E1E1E;stroke-linecap:round;stroke-linejoin:round;" d="M176.188,172.316c0,0-0.893,36.627-23.673,38.86c18.76-11.614,13.399-54.047,30.373-68.34"></path><linearGradient id="hair1XMLID_3554_" gradientUnits="userSpaceOnUse" x1="332.2988" y1="215.3335" x2="332.2988" y2="152"><stop offset="0" style="stop-color:#FCFCE4"></stop><stop offset="0.5" style="stop-color:#A0C8DD"></stop><stop offset="1" style="stop-color:#5D6EC5"></stop></linearGradient><path style="fill:url(#hair1XMLID_3554_);stroke:#1E1E1E;stroke-linecap:round;stroke-linejoin:round;" d="M323.813,172.316c0,0,0.894,36.627,23.673,38.86c-18.76-11.614-13.399-54.047-30.373-68.34"></path></g><linearGradient id="hair1XMLID_3555_" gradientUnits="userSpaceOnUse" x1="204.9751" y1="215.3335" x2="204.9751" y2="152"><stop offset="0" style="stop-color:#FCFCE4"></stop><stop offset="0.5" style="stop-color:#A0C8DD"></stop><stop offset="1" style="stop-color:#5D6EC5"></stop></linearGradient><path style="fill:url(#hair1XMLID_3555_);" d="M187.779,161.15l-2.234,23.673c0,0,25.014,0.446,24.568-2.233c-0.448-2.68,14.292-24.567,14.292-24.567S195.819,154.45,187.779,161.15z"></path><linearGradient id="hair1XMLID_3556_" gradientUnits="userSpaceOnUse" x1="201.8257" y1="215.3335" x2="201.8257" y2="152"><stop offset="0" style="stop-color:#FCFCE4"></stop><stop offset="0.5" style="stop-color:#A0C8DD"></stop><stop offset="1" style="stop-color:#5D6EC5"></stop></linearGradient><path style="fill:url(#hair1XMLID_3556_);stroke:#1E1E1E;stroke-linecap:round;stroke-linejoin:round;" d="M182.385,191.504c-0.166,11.031,1.34,21.251,5.395,26.373c27.693-12.507,33.5-56.727,33.5-56.727"></path><linearGradient id="hair1XMLID_3557_" gradientUnits="userSpaceOnUse" x1="287.373" y1="215.3335" x2="287.373" y2="152"><stop offset="0" style="stop-color:#FCFCE4"></stop><stop offset="0.5" style="stop-color:#A0C8DD"></stop><stop offset="1" style="stop-color:#5D6EC5"></stop></linearGradient><path style="fill:url(#hair1XMLID_3557_);stroke:#1E1E1E;stroke-linecap:round;stroke-linejoin:round;" d="M268.622,162.49c0,0-1.512,40.2,20.405,54.94c-6.803-10.721-12.47-42.434-12.47-42.434s3.021,37.521,27.206,51.367c2.268-14.293,8.313-66.107-15.493-87.1"></path><g><linearGradient id="hair1XMLID_3558_" gradientUnits="userSpaceOnUse" x1="305.1621" y1="215.3335" x2="305.1621" y2="152"><stop offset="0" style="stop-color:#FCFCE4"></stop><stop offset="0.5" style="stop-color:#A0C8DD"></stop><stop offset="1" style="stop-color:#5D6EC5"></stop></linearGradient><path style="fill:url(#hair1XMLID_3558_);stroke:#1E1E1E;stroke-linecap:round;stroke-linejoin:round;" d="M303.806,168.764c0.447,3.572,7.146,43.773-8.934,68.786c16.974-7.593,22.333-30.82,20.101-53.601"></path></g><g><linearGradient id="hair1XMLID_3559_" gradientUnits="userSpaceOnUse" x1="193.0786" y1="215.3335" x2="193.0786" y2="152"><stop offset="0" style="stop-color:#FCFCE4"></stop><stop offset="0.5" style="stop-color:#A0C8DD"></stop><stop offset="1" style="stop-color:#5D6EC5"></stop></linearGradient><path style="fill:url(#hair1XMLID_3559_);stroke:#1E1E1E;stroke-linecap:round;stroke-linejoin:round;" d="M197.829,177.677c-0.447,3.573-10.648,38.86,5.432,63.873c-16.972-7.593-24.191-33.5-18.386-65.214"></path></g><linearGradient id="hair1XMLID_3560_" gradientUnits="userSpaceOnUse" x1="226.8359" y1="215.3335" x2="226.8359" y2="152"><stop offset="0" style="stop-color:#FCFCE4"></stop><stop offset="0.5" style="stop-color:#A0C8DD"></stop><stop offset="1" style="stop-color:#5D6EC5"></stop></linearGradient><path style="fill:url(#hair1XMLID_3560_);stroke:#1E1E1E;stroke-linecap:round;stroke-linejoin:round;" d="M223.959,136.583c0,0-16.526,58.959,10.72,84.42c-7.594-15.634-6.699-54.94-6.699-54.94"></path><g><linearGradient id="hair1XMLID_3561_" gradientUnits="userSpaceOnUse" x1="247.9585" y1="215.3335" x2="247.9585" y2="152"><stop offset="0" style="stop-color:#FCFCE4"></stop><stop offset="0.5" style="stop-color:#A0C8DD"></stop><stop offset="1" style="stop-color:#5D6EC5"></stop></linearGradient><path style="fill:url(#hair1XMLID_3561_);stroke:#1E1E1E;stroke-linecap:round;stroke-linejoin:round;" d="M226.639,161.49c0,0-7.594,62.194,35.733,74.253c-4.466-10.72-6.7-15.187-6.7-15.187s17.866-27.247,13.4-66.554"></path><linearGradient id="hair1XMLID_3562_" gradientUnits="userSpaceOnUse" x1="253.7998" y1="215.3335" x2="253.7998" y2="152.0001"><stop offset="0" style="stop-color:#FCFCE4"></stop><stop offset="0.5" style="stop-color:#A0C8DD"></stop><stop offset="1" style="stop-color:#5D6EC5"></stop></linearGradient><path style="fill:url(#hair1XMLID_3562_);stroke:#1E1E1E;stroke-linecap:round;stroke-linejoin:round;" d="M252.546,181.697c0,0-2.681,28.586,3.126,38.859"></path></g></g></g></svg>