<svg xmlns="http://www.w3.org/2000/svg" width="500" height="500" version="1.1"><g id="x015"><linearGradient id="hair1XMLID_2533_" gradientUnits="userSpaceOnUse" x1="250.0005" y1="223.667" x2="250.0005" y2="198"><stop offset="0" style="stop-color:#FCFCE4"></stop><stop offset="0.5" style="stop-color:#A0C8DD"></stop><stop offset="1" style="stop-color:#5D6EC5"></stop></linearGradient><path style="fill:url(#hair1XMLID_2533_);stroke:#1E1E1E;stroke-linecap:round;stroke-linejoin:round;" d="M311.484,135.882c-17.021-17.418-41.603-23.852-61.484-20.131c-19.882-3.721-44.464,2.713-61.484,20.131c-13.061,13.365-22.283,30.165-22.283,51.08c0,24.372,15.268,44.372,25.934,48.538c-7.33-33.49-0.484-59.331,5.084-68.5c1.798-2.157,29.369-5.491,52.75-5.619c23.381,0.128,50.952,3.462,52.75,5.619c5.568,9.169,12.414,35.01,5.084,68.5c10.666-4.167,25.934-24.167,25.934-48.538C333.768,166.047,324.545,149.248,311.484,135.882z"></path><g><g><g><g><linearGradient id="hair1XMLID_2534_" gradientUnits="userSpaceOnUse" x1="310.4971" y1="223.167" x2="310.4971" y2="156.1671"><stop offset="0" style="stop-color:#FCFCE4"></stop><stop offset="0.5" style="stop-color:#A0C8DD"></stop><stop offset="1" style="stop-color:#5D6EC5"></stop></linearGradient><path style="fill:url(#hair1XMLID_2534_);stroke:#1E1E1E;stroke-linecap:round;stroke-linejoin:round;" d="M313.484,218.665c0,0,1.005,26.465-5.36,30.485c-0.337-15.41-0.672-32.83-0.672-32.83"></path><linearGradient id="hair1XMLID_2535_" gradientUnits="userSpaceOnUse" x1="188.2212" y1="223.167" x2="188.2212" y2="156.1671"><stop offset="0" style="stop-color:#FCFCE4"></stop><stop offset="0.5" style="stop-color:#A0C8DD"></stop><stop offset="1" style="stop-color:#5D6EC5"></stop></linearGradient><path style="fill:url(#hair1XMLID_2535_);stroke:#1E1E1E;stroke-linecap:round;stroke-linejoin:round;" d="M185.235,218.665c0,0-1.005,26.465,5.36,30.485c0.335-15.41,0.67-32.83,0.67-32.83"></path><linearGradient id="hair1XMLID_2536_" gradientUnits="userSpaceOnUse" x1="247.333" y1="223.1665" x2="247.333" y2="156.1665"><stop offset="0" style="stop-color:#FCFCE4"></stop><stop offset="0.5" style="stop-color:#A0C8DD"></stop><stop offset="1" style="stop-color:#5D6EC5"></stop></linearGradient><path style="fill:url(#hair1XMLID_2536_);stroke:#1E1E1E;stroke-linecap:round;stroke-linejoin:round;" d="M212.313,136.59c-54.271,23.115-38.525,93.8-19.652,106.307c0.67-35.958,13.957-64.098,13.957-64.098l51.255-6.03l19.095-6.029c0,0,8.71,36.85,33.166,58.625c2.229-4.044,12.932-20.679,8.375-44.891c-5.36-28.474-20.229-38.831-30.151-41.875"></path></g></g><linearGradient id="hair1XMLID_2537_" gradientUnits="userSpaceOnUse" x1="234.645" y1="223.167" x2="234.645" y2="156.1662"><stop offset="0" style="stop-color:#FCFCE4"></stop><stop offset="0.5" style="stop-color:#A0C8DD"></stop><stop offset="1" style="stop-color:#5D6EC5"></stop></linearGradient><path style="fill:url(#hair1XMLID_2537_);stroke:#1E1E1E;stroke-linecap:round;stroke-linejoin:round;" d="M276.968,166.74c0,0-50.585,11.39-83.415,50.25c-4.354-17.42,3.686-38.525,11.056-47.57"></path></g></g><g><g><path style="fill:#FFF0DE;" d="M178.006,181.536c0,0,5.852-11.712,8.195-12.295c2.342-0.585-0.816,19.084-4.1,18.149C179.029,186.513,176.834,184.318,178.006,181.536z"></path><path style="fill:#FFF0DE;" d="M186.119,186.217c0,0,0.45-7.659,2.929-9.365c2.478-1.707,1.757,11.708,0,11.708C187.291,188.56,186.119,189.145,186.119,186.217z"></path><path style="fill:#FFF0DE;" d="M316.494,181.536c0,0-5.853-11.712-8.195-12.295c-2.343-0.585,0.816,19.084,4.1,18.149C315.471,186.513,317.665,184.318,316.494,181.536z"></path><path style="fill:#FFF0DE;" d="M308.381,186.217c0,0-0.451-7.659-2.93-9.365c-2.478-1.707-1.756,11.708,0,11.708C307.209,188.56,308.381,189.145,308.381,186.217z"></path></g></g></g></svg>