<svg xmlns="http://www.w3.org/2000/svg" width="500" height="500" version="1.1"><g id="x150"><g><linearGradient id="hair1XMLID_3610_" gradientUnits="userSpaceOnUse" x1="250.0503" y1="222" x2="250.0503" y2="155.3335"><stop offset="0" style="stop-color:#FCFCE4"></stop><stop offset="0.5" style="stop-color:#A0C8DD"></stop><stop offset="1" style="stop-color:#5D6EC5"></stop></linearGradient><path style="fill:url(#hair1XMLID_3610_);stroke:#1E1E1E;stroke-linecap:round;stroke-linejoin:round;" d="M311.534,135.882c-17.021-17.418-41.603-23.852-61.484-20.131c-19.882-3.721-44.464,2.713-61.484,20.131c-13.061,13.365-22.283,30.165-22.283,51.08c0,24.372,15.268,44.372,25.934,48.538c-7.33-33.49-0.484-59.331,5.084-68.5c1.798-2.157,29.369-5.491,52.75-5.619c23.381,0.128,50.952,3.462,52.75,5.619c5.568,9.169,12.414,35.01,5.084,68.5c10.666-4.167,25.934-24.167,25.934-48.538C333.817,166.047,324.595,149.248,311.534,135.882z"></path><linearGradient id="hair1XMLID_3611_" gradientUnits="userSpaceOnUse" x1="337.4297" y1="222" x2="337.4297" y2="155.3335"><stop offset="0" style="stop-color:#FCFCE4"></stop><stop offset="0.5" style="stop-color:#A0C8DD"></stop><stop offset="1" style="stop-color:#5D6EC5"></stop></linearGradient><path style="fill:url(#hair1XMLID_3611_);stroke:#1E1E1E;stroke-linecap:round;stroke-linejoin:round;" d="M324.7,184.988c-0.168,14.95,2.68,46.607,28.14,60.678c-6.7-7.146-10.72-15.188-14.74-35.733c-4.02-20.547-2.1-40.099-16.079-60.747"></path><linearGradient id="hair1XMLID_3612_" gradientUnits="userSpaceOnUse" x1="162.4302" y1="222" x2="162.4302" y2="155.3335"><stop offset="0" style="stop-color:#FCFCE4"></stop><stop offset="0.5" style="stop-color:#A0C8DD"></stop><stop offset="1" style="stop-color:#5D6EC5"></stop></linearGradient><path style="fill:url(#hair1XMLID_3612_);stroke:#1E1E1E;stroke-linecap:round;stroke-linejoin:round;" d="M175.16,184.988c0.168,14.95-2.68,46.607-28.14,60.678c6.7-7.146,10.72-15.188,14.74-35.733c4.02-20.547,2.1-40.099,16.079-60.747"></path><g><linearGradient id="hair1XMLID_3613_" gradientUnits="userSpaceOnUse" x1="304.1055" y1="222" x2="304.1055" y2="155.3335"><stop offset="0" style="stop-color:#FCFCE4"></stop><stop offset="0.5" style="stop-color:#A0C8DD"></stop><stop offset="1" style="stop-color:#5D6EC5"></stop></linearGradient><path style="fill:url(#hair1XMLID_3613_);stroke:#1E1E1E;stroke-linecap:round;stroke-linejoin:round;" d="M302.707,243.783c0,0-13.924,20.768-17.42,48.24c-3.127,24.566,4.912,41.092,23.227,45.111c-7.594-13.398-3.127-37.52,1.786-46.006s17.866-40.646,11.613-72.359"></path><linearGradient id="hair1XMLID_3614_" gradientUnits="userSpaceOnUse" x1="308.7129" y1="222" x2="308.7129" y2="155.3336"><stop offset="0" style="stop-color:#FCFCE4"></stop><stop offset="0.5" style="stop-color:#A0C8DD"></stop><stop offset="1" style="stop-color:#5D6EC5"></stop></linearGradient><path style="fill:url(#hair1XMLID_3614_);stroke:#1E1E1E;stroke-linecap:round;stroke-linejoin:round;" d="M310.3,289.119c-0.446,2.232-6.253,24.566,6.7,35.734c-5.807-0.447-17.421-7.148-16.526-23.229"></path></g><linearGradient id="hair1XMLID_3615_" gradientUnits="userSpaceOnUse" x1="311.9785" y1="222" x2="311.9785" y2="155.3335"><stop offset="0" style="stop-color:#FCFCE4"></stop><stop offset="0.5" style="stop-color:#A0C8DD"></stop><stop offset="1" style="stop-color:#5D6EC5"></stop></linearGradient><path style="fill:url(#hair1XMLID_3615_);stroke:#1E1E1E;stroke-linecap:round;stroke-linejoin:round;" d="M302.707,165.169c0.447,4.021,11.613,52.707-10.72,86.653c17.42-3.572,46.006-14.74,38.859-73.253"></path><g><linearGradient id="hair1XMLID_3616_" gradientUnits="userSpaceOnUse" x1="195.6895" y1="222" x2="195.6895" y2="155.3335"><stop offset="0" style="stop-color:#FCFCE4"></stop><stop offset="0.5" style="stop-color:#A0C8DD"></stop><stop offset="1" style="stop-color:#5D6EC5"></stop></linearGradient><path style="fill:url(#hair1XMLID_3616_);stroke:#1E1E1E;stroke-linecap:round;stroke-linejoin:round;" d="M197.088,243.783c0,0,13.924,20.768,17.421,48.24c3.127,24.566-4.913,41.092-23.227,45.111c7.594-13.398,3.126-37.52-1.786-46.006c-4.914-8.486-17.866-40.646-11.614-72.359"></path><linearGradient id="hair1XMLID_3617_" gradientUnits="userSpaceOnUse" x1="191.0835" y1="222" x2="191.0835" y2="155.3336"><stop offset="0" style="stop-color:#FCFCE4"></stop><stop offset="0.5" style="stop-color:#A0C8DD"></stop><stop offset="1" style="stop-color:#5D6EC5"></stop></linearGradient><path style="fill:url(#hair1XMLID_3617_);stroke:#1E1E1E;stroke-linecap:round;stroke-linejoin:round;" d="M189.496,289.119c0.446,2.232,6.252,24.566-6.7,35.734c5.807-0.447,17.42-7.148,16.526-23.229"></path></g><linearGradient id="hair1XMLID_3618_" gradientUnits="userSpaceOnUse" x1="183.7212" y1="222" x2="183.7212" y2="155.3335"><stop offset="0" style="stop-color:#FCFCE4"></stop><stop offset="0.5" style="stop-color:#A0C8DD"></stop><stop offset="1" style="stop-color:#5D6EC5"></stop></linearGradient><path style="fill:url(#hair1XMLID_3618_);stroke:#1E1E1E;stroke-linecap:round;stroke-linejoin:round;" d="M197.088,165.169c-0.445,4.021-18.107,41.54,3.332,86.653c-17.42-3.572-40.2-21.887-31.472-73.253"></path><linearGradient id="hair1XMLID_3619_" gradientUnits="userSpaceOnUse" x1="288.8594" y1="222" x2="288.8594" y2="155.3333"><stop offset="0" style="stop-color:#FCFCE4"></stop><stop offset="0.5" style="stop-color:#A0C8DD"></stop><stop offset="1" style="stop-color:#5D6EC5"></stop></linearGradient><path style="fill:url(#hair1XMLID_3619_);stroke:#1E1E1E;stroke-linecap:round;stroke-linejoin:round;" d="M274.12,158.246c0,0,8.487,39.307,1.34,64.32c12.061-3.574,24.567-26.577,28.14-58.291"></path><linearGradient id="hair1XMLID_3620_" gradientUnits="userSpaceOnUse" x1="198.4966" y1="222" x2="198.4966" y2="155.3335"><stop offset="0" style="stop-color:#FCFCE4"></stop><stop offset="0.5" style="stop-color:#A0C8DD"></stop><stop offset="1" style="stop-color:#5D6EC5"></stop></linearGradient><path style="fill:url(#hair1XMLID_3620_);stroke:#1E1E1E;stroke-linecap:round;stroke-linejoin:round;" d="M219.18,152.663c-0.446,1.787-17.866,24.121-14.739,61.193c-8.04-0.893-10.274-8.486-10.274-8.486s-7.146,13.4-3.126,21.887c-8.04-0.447-19.206-25.459-9.38-58.066"></path><g><linearGradient id="hair1XMLID_3621_" gradientUnits="userSpaceOnUse" x1="245.0171" y1="222" x2="245.0171" y2="155.3335"><stop offset="0" style="stop-color:#FCFCE4"></stop><stop offset="0.5" style="stop-color:#A0C8DD"></stop><stop offset="1" style="stop-color:#5D6EC5"></stop></linearGradient><path style="fill:url(#hair1XMLID_3621_);stroke:#1E1E1E;stroke-linecap:round;stroke-linejoin:round;" d="M216.053,149.536c0,0-21.439,51.814,16.527,69.234c-3.127-12.953-4.02-19.654-4.02-19.654s4.913,21.887,30.819,27.247c3.127-7.593,4.021-13.847,4.021-13.847s20.1-17.42,16.08-58.959"></path><path style="fill:none;stroke:#1E1E1E;stroke-linecap:round;stroke-linejoin:round;" d="M263.847,197.775c0,0,0,14.294-1.34,18.314"></path></g><linearGradient id="hair1XMLID_3622_" gradientUnits="userSpaceOnUse" x1="257.3418" y1="222" x2="257.3418" y2="155.3335"><stop offset="0" style="stop-color:#FCFCE4"></stop><stop offset="0.5" style="stop-color:#A0C8DD"></stop><stop offset="1" style="stop-color:#5D6EC5"></stop></linearGradient><path style="fill:url(#hair1XMLID_3622_);stroke:#1E1E1E;stroke-linecap:round;stroke-linejoin:round;" d="M245.086,146.409c0,1.787-21.439,55.386,29.034,71.913c-30.374-18.76-22.78-62.086-22.78-62.086"></path></g></g></svg>