<svg xmlns="http://www.w3.org/2000/svg" width="500" height="500" version="1.1"><g id="x151"><g><linearGradient id="hair1XMLID_3623_" gradientUnits="userSpaceOnUse" x1="250.0503" y1="220" x2="250.0503" y2="151"><stop offset="0" style="stop-color:#FCFCE4"></stop><stop offset="0.5" style="stop-color:#A0C8DD"></stop><stop offset="1" style="stop-color:#5D6EC5"></stop></linearGradient><path style="fill:url(#hair1XMLID_3623_);stroke:#1E1E1E;stroke-linecap:round;stroke-linejoin:round;" d="M311.534,135.882c-17.021-17.418-41.603-23.852-61.484-20.131c-19.882-3.721-44.464,2.713-61.484,20.131c-13.061,13.365-22.283,30.165-22.283,51.08c0,24.372,15.268,44.372,25.934,48.538c-7.33-33.49-0.484-59.331,5.084-68.5c1.798-2.157,29.369-5.491,52.75-5.619c23.381,0.128,50.952,3.462,52.75,5.619c5.568,9.169,12.414,35.01,5.084,68.5c10.666-4.167,25.934-24.167,25.934-48.538C333.817,166.047,324.595,149.248,311.534,135.882z"></path><g><linearGradient id="hair1XMLID_3624_" gradientUnits="userSpaceOnUse" x1="181.2085" y1="220" x2="181.2085" y2="151"><stop offset="0" style="stop-color:#FCFCE4"></stop><stop offset="0.5" style="stop-color:#A0C8DD"></stop><stop offset="1" style="stop-color:#5D6EC5"></stop></linearGradient><path style="fill:url(#hair1XMLID_3624_);stroke:#1E1E1E;stroke-linecap:round;stroke-linejoin:round;" d="M197.237,128.542c-2.68,0-22.779,10.72-31.267,34.394c-3.127,34.839,4.02,50.027,4.02,50.027l11.167-37.074"></path><linearGradient id="hair1XMLID_3625_" gradientUnits="userSpaceOnUse" x1="318.792" y1="220" x2="318.792" y2="151"><stop offset="0" style="stop-color:#FCFCE4"></stop><stop offset="0.5" style="stop-color:#A0C8DD"></stop><stop offset="1" style="stop-color:#5D6EC5"></stop></linearGradient><path style="fill:url(#hair1XMLID_3625_);stroke:#1E1E1E;stroke-linecap:round;stroke-linejoin:round;" d="M302.763,128.542c2.68,0,22.779,10.72,31.267,34.394c3.127,34.839-4.02,50.027-4.02,50.027l-11.167-37.074"></path></g><g><g><linearGradient id="hair1XMLID_3626_" gradientUnits="userSpaceOnUse" x1="332.04" y1="220" x2="332.04" y2="151"><stop offset="0" style="stop-color:#FCFCE4"></stop><stop offset="0.5" style="stop-color:#A0C8DD"></stop><stop offset="1" style="stop-color:#5D6EC5"></stop></linearGradient><path style="fill:url(#hair1XMLID_3626_);stroke:#1E1E1E;stroke-linecap:round;stroke-linejoin:round;" d="M318.348,154.002c0,0,11.167,24.121,18.76,33.5c7.593,9.381,14.294,14.293,15.187,16.08c0.894,1.787-2.68,14.295-6.699,19.207c-4.021,4.914-21.44,11.613-29.48,21.44c-4.467,3.573-4.467-54.047-4.467-54.047"></path><linearGradient id="hair1XMLID_3627_" gradientUnits="userSpaceOnUse" x1="322.6426" y1="220" x2="322.6426" y2="150.9999"><stop offset="0" style="stop-color:#FCFCE4"></stop><stop offset="0.5" style="stop-color:#A0C8DD"></stop><stop offset="1" style="stop-color:#5D6EC5"></stop></linearGradient><path style="fill:url(#hair1XMLID_3627_);stroke:#1E1E1E;stroke-linecap:round;stroke-linejoin:round;" d="M342.245,218.77c-1.787,0.893-20.547,21.439-21.887,36.626s11.613,13.847,11.613,13.847s-32.606,0.447-28.587-20.1c4.021-20.547,16.974-32.607,15.634-32.16"></path><path style="fill:none;stroke:#1E1E1E;stroke-linecap:round;stroke-linejoin:round;" d="M327.728,197.775c0.447,1.34,9.827,10.721,10.273,13.4"></path><linearGradient id="hair1XMLID_3628_" gradientUnits="userSpaceOnUse" x1="308.6328" y1="220" x2="308.6328" y2="150.9998"><stop offset="0" style="stop-color:#FCFCE4"></stop><stop offset="0.5" style="stop-color:#A0C8DD"></stop><stop offset="1" style="stop-color:#5D6EC5"></stop></linearGradient><path style="fill:url(#hair1XMLID_3628_);stroke:#1E1E1E;stroke-linecap:round;stroke-linejoin:round;" d="M305.841,229.936c0,0-19.653,22.78-2.681,46.453c-1.786-11.613,1.341-25.012,8.04-32.159c6.7-7.147,12.507-19.653,8.487-31.714"></path><linearGradient id="hair1XMLID_3629_" gradientUnits="userSpaceOnUse" x1="310.9775" y1="220" x2="310.9775" y2="151"><stop offset="0" style="stop-color:#FCFCE4"></stop><stop offset="0.5" style="stop-color:#A0C8DD"></stop><stop offset="1" style="stop-color:#5D6EC5"></stop></linearGradient><path style="fill:url(#hair1XMLID_3629_);stroke:#1E1E1E;stroke-linecap:round;stroke-linejoin:round;" d="M304.501,159.809c0,0,3.572,53.154,1.786,60.3s-10.72,13.847-10.72,13.847s16.974,3.573,25.014-7.594c5.285-7.34,5.807-20.101,5.807-30.819"></path></g><g><linearGradient id="hair1XMLID_3630_" gradientUnits="userSpaceOnUse" x1="167.9604" y1="220" x2="167.9604" y2="151"><stop offset="0" style="stop-color:#FCFCE4"></stop><stop offset="0.5" style="stop-color:#A0C8DD"></stop><stop offset="1" style="stop-color:#5D6EC5"></stop></linearGradient><path style="fill:url(#hair1XMLID_3630_);stroke:#1E1E1E;stroke-linecap:round;stroke-linejoin:round;" d="M181.652,154.002c0,0-11.167,24.121-18.76,33.5c-7.593,9.381-14.294,14.293-15.187,16.08c-0.894,1.787,2.68,14.295,6.699,19.207c4.021,4.914,21.44,11.613,29.48,21.44c4.467,3.573,4.467-54.047,4.467-54.047"></path><linearGradient id="hair1XMLID_3631_" gradientUnits="userSpaceOnUse" x1="177.3569" y1="220" x2="177.3569" y2="150.9999"><stop offset="0" style="stop-color:#FCFCE4"></stop><stop offset="0.5" style="stop-color:#A0C8DD"></stop><stop offset="1" style="stop-color:#5D6EC5"></stop></linearGradient><path style="fill:url(#hair1XMLID_3631_);stroke:#1E1E1E;stroke-linecap:round;stroke-linejoin:round;" d="M157.755,218.77c1.787,0.893,20.547,21.439,21.887,36.626s-11.613,13.847-11.613,13.847s32.606,0.447,28.587-20.1c-4.021-20.547-16.974-32.607-15.634-32.16"></path><path style="fill:none;stroke:#1E1E1E;stroke-linecap:round;stroke-linejoin:round;" d="M172.272,197.775c-0.447,1.34-9.827,10.721-10.273,13.4"></path><linearGradient id="hair1XMLID_3632_" gradientUnits="userSpaceOnUse" x1="191.3677" y1="220" x2="191.3677" y2="150.9998"><stop offset="0" style="stop-color:#FCFCE4"></stop><stop offset="0.5" style="stop-color:#A0C8DD"></stop><stop offset="1" style="stop-color:#5D6EC5"></stop></linearGradient><path style="fill:url(#hair1XMLID_3632_);stroke:#1E1E1E;stroke-linecap:round;stroke-linejoin:round;" d="M194.159,229.936c0,0,19.653,22.78,2.681,46.453c1.786-11.613-1.341-25.012-8.04-32.159c-6.7-7.147-12.507-19.653-8.487-31.714"></path><linearGradient id="hair1XMLID_3633_" gradientUnits="userSpaceOnUse" x1="189.0225" y1="220" x2="189.0225" y2="151"><stop offset="0" style="stop-color:#FCFCE4"></stop><stop offset="0.5" style="stop-color:#A0C8DD"></stop><stop offset="1" style="stop-color:#5D6EC5"></stop></linearGradient><path style="fill:url(#hair1XMLID_3633_);stroke:#1E1E1E;stroke-linecap:round;stroke-linejoin:round;" d="M195.499,159.809c0,0-3.572,53.154-1.786,60.3s10.72,13.847,10.72,13.847s-16.974,3.573-25.014-7.594c-5.285-7.34-5.807-20.101-5.807-30.819"></path></g></g><g><linearGradient id="hair1XMLID_3634_" gradientUnits="userSpaceOnUse" x1="217.6895" y1="220" x2="217.6895" y2="150.9998"><stop offset="0" style="stop-color:#FCFCE4"></stop><stop offset="0.5" style="stop-color:#A0C8DD"></stop><stop offset="1" style="stop-color:#5D6EC5"></stop></linearGradient><path style="fill:url(#hair1XMLID_3634_);stroke:#1E1E1E;stroke-linecap:round;stroke-linejoin:round;" d="M200.574,159.362c0,0-7.593,53.601,30.82,56.28c-4.913-13.848,0-50.027,4.02-56.28"></path><linearGradient id="hair1XMLID_3635_" gradientUnits="userSpaceOnUse" x1="195.5845" y1="220" x2="195.5845" y2="151.0001"><stop offset="0" style="stop-color:#FCFCE4"></stop><stop offset="0.5" style="stop-color:#A0C8DD"></stop><stop offset="1" style="stop-color:#5D6EC5"></stop></linearGradient><path style="fill:url(#hair1XMLID_3635_);stroke:#1E1E1E;stroke-linecap:round;stroke-linejoin:round;" d="M189.408,156.236c-0.894,1.34-11.613,29.926-6.254,44.22c5.36,14.293,19.654,18.313,26.354,20.546c-10.273-19.206-8.264-47.793-4.243-64.319"></path><linearGradient id="hair1XMLID_3636_" gradientUnits="userSpaceOnUse" x1="271.2754" y1="220" x2="271.2754" y2="150.9999"><stop offset="0" style="stop-color:#FCFCE4"></stop><stop offset="0.5" style="stop-color:#A0C8DD"></stop><stop offset="1" style="stop-color:#5D6EC5"></stop></linearGradient><path style="fill:url(#hair1XMLID_3636_);stroke:#1E1E1E;stroke-linecap:round;stroke-linejoin:round;" d="M233.182,154.002c0,1.34-3.127,37.966,4.466,50.919c7.594,12.954,21.888,15.188,29.034,16.527c-9.827-10.273-15.188-24.566-15.634-27.246c9.827,13.399,19.653,14.74,34.394,16.526c-6.7-11.167-0.894-6.253-0.894-6.253s8.04,8.486,25.46,8.933c-0.446-22.333,0.894-45.114-8.934-58.067"></path><path style="fill:none;stroke:#1E1E1E;stroke-linecap:round;stroke-linejoin:round;" d="M266.682,170.977c0,0,4.02,20.992,19.206,35.285"></path></g></g></g></svg>