<svg xmlns="http://www.w3.org/2000/svg" width="500" height="500" version="1.1"><g id="x152"><g><linearGradient id="hair1XMLID_3637_" gradientUnits="userSpaceOnUse" x1="250" y1="220.667" x2="250" y2="157.3335"><stop offset="0" style="stop-color:#FCFCE4"></stop><stop offset="0.5" style="stop-color:#A0C8DD"></stop><stop offset="1" style="stop-color:#5D6EC5"></stop></linearGradient><path style="fill:url(#hair1XMLID_3637_);stroke:#1E1E1E;stroke-linecap:round;stroke-linejoin:round;" d="M333.645,181.592c-0.06-0.584-0.133-1.163-0.204-1.742c-0.461-4.454-1.359-8.701-2.616-12.761c-2.306-7.84-5.797-15.022-10.377-21.313c5.328-0.993,8.527-4.723,13.75-8.295c-16.08,3.127-24.121-5.36-35.287-13.848c-3.533-2.687-7.469-3.625-11.198-3.657c-12.508-5.072-25.906-6.424-37.662-4.224c-16.027-3-35.107,0.605-50.82,11.238c-8.897,4.97-18.073,11.476-21.813,20.317c-4.913,11.615-12.952,16.08-23.226,19.205c4.802,1.68,10.504,0.511,15.864-1.824c-0.54,1.536-1.02,3.103-1.451,4.696c-9.387,13.746-11.167,24.917-9.054,43.583c0-8.703,2.938-17.404,6.564-24.836c-0.113,0.555-0.006,1.191,0.257,1.885c1.199,22.972,15.627,41.493,25.844,45.484c-1.989-9.085-2.927-17.602-3.138-25.381c1.601,1.077,2.605,1.72,2.605,1.72c-0.4-14.028,1.07-28.528,9.053-40.64c19.434-11.662,93.799-6.7,97.151-2.68c5.071,8.354,9.548,29.643,13.179,39.013c-0.056,8.463-0.97,17.864-3.182,27.967c8.571-3.348,20.108-16.926,24.312-34.777c1.068-1.992,1.694-3.805,1.76-5.014c3.238,1.293,7.135,1.256,11.854,0.73C339.695,191.936,336.365,188.822,333.645,181.592z"></path><g><linearGradient id="hair1XMLID_3638_" gradientUnits="userSpaceOnUse" x1="308" y1="220.667" x2="308" y2="157.3337"><stop offset="0" style="stop-color:#FCFCE4"></stop><stop offset="0.5" style="stop-color:#A0C8DD"></stop><stop offset="1" style="stop-color:#5D6EC5"></stop></linearGradient><path style="fill:url(#hair1XMLID_3638_);stroke:#1E1E1E;stroke-linecap:round;stroke-linejoin:round;" d="M312.809,219.922c0,0-2.658,16.634-5.451,18.724c1.852-5.494,0.836-20.308,0.836-20.308l-5.002-6.97l6.563-1.447l-5.65-7.452c0,0,7.56,0.843,8.229,0.877"></path></g><linearGradient id="hair1XMLID_3639_" gradientUnits="userSpaceOnUse" x1="192" y1="220.667" x2="192" y2="157.3337"><stop offset="0" style="stop-color:#FCFCE4"></stop><stop offset="0.5" style="stop-color:#A0C8DD"></stop><stop offset="1" style="stop-color:#5D6EC5"></stop></linearGradient><path style="fill:url(#hair1XMLID_3639_);stroke:#1E1E1E;stroke-linecap:round;stroke-linejoin:round;" d="M187.191,219.922c0,0,2.657,16.634,5.451,18.724c-1.852-5.494-0.837-20.308-0.837-20.308l5.003-6.97l-6.563-1.447l5.649-7.452c0,0-7.559,0.843-8.228,0.877"></path><linearGradient id="hair1XMLID_3640_" gradientUnits="userSpaceOnUse" x1="223.8413" y1="220.667" x2="223.8413" y2="157.3336"><stop offset="0" style="stop-color:#FCFCE4"></stop><stop offset="0.5" style="stop-color:#A0C8DD"></stop><stop offset="1" style="stop-color:#5D6EC5"></stop></linearGradient><path style="fill:url(#hair1XMLID_3640_);stroke:#1E1E1E;stroke-linecap:round;stroke-linejoin:round;" d="M225.657,127.294c-1.34,0.447-27.693-11.167,1.786-25.908c-5.806,12.06,1.34,18.757,6.7,20.992"></path><linearGradient id="hair1XMLID_3641_" gradientUnits="userSpaceOnUse" x1="244.1743" y1="220.667" x2="244.1743" y2="157.3335"><stop offset="0" style="stop-color:#FCFCE4"></stop><stop offset="0.5" style="stop-color:#A0C8DD"></stop><stop offset="1" style="stop-color:#5D6EC5"></stop></linearGradient><path style="fill:url(#hair1XMLID_3641_);stroke:#1E1E1E;stroke-linecap:round;stroke-linejoin:round;" d="M233.375,125.407c0,0-14.703-26.575,24.315-30.535c-8.482,7.915-22.619,19.223-9.047,23.183"></path><linearGradient id="hair1XMLID_3642_" gradientUnits="userSpaceOnUse" x1="265.623" y1="220.667" x2="265.623" y2="157.3336"><stop offset="0" style="stop-color:#FCFCE4"></stop><stop offset="0.5" style="stop-color:#A0C8DD"></stop><stop offset="1" style="stop-color:#5D6EC5"></stop></linearGradient><path style="fill:url(#hair1XMLID_3642_);stroke:#1E1E1E;stroke-linecap:round;stroke-linejoin:round;" d="M238.611,121.489c0-1.788-1.342-12.505,18.311-12.06c19.654,0.445,23.676,9.377,35.734-3.575c-3.574,12.06-23.227,24.481-33.055,18.673"></path></g><g><linearGradient id="hair1XMLID_3643_" gradientUnits="userSpaceOnUse" x1="300.8633" y1="220.667" x2="300.8633" y2="157.3334"><stop offset="0" style="stop-color:#FCFCE4"></stop><stop offset="0.5" style="stop-color:#A0C8DD"></stop><stop offset="1" style="stop-color:#5D6EC5"></stop></linearGradient><path style="fill:url(#hair1XMLID_3643_);stroke:#1E1E1E;stroke-linecap:round;stroke-linejoin:round;" d="M287.048,165.4c0,0,17.532,9.383,20.659,41.987c8.71-9.157,9.827-37.298,0.111-50.362"></path><linearGradient id="hair1XMLID_3644_" gradientUnits="userSpaceOnUse" x1="282.4209" y1="220.667" x2="282.4209" y2="157.3336"><stop offset="0" style="stop-color:#FCFCE4"></stop><stop offset="0.5" style="stop-color:#A0C8DD"></stop><stop offset="1" style="stop-color:#5D6EC5"></stop></linearGradient><path style="fill:url(#hair1XMLID_3644_);stroke:#1E1E1E;stroke-linecap:round;stroke-linejoin:round;" d="M292.073,154.905c0,0,7.594,21.215-4.467,31.935c-0.67,1.117-2.68,11.615,4.021,15.635c-9.604-1.564-18.985-8.49-16.527-23.004c2.457-14.515-4.69-19.206-4.69-19.206"></path><linearGradient id="hair1XMLID_3645_" gradientUnits="userSpaceOnUse" x1="221.1675" y1="220.667" x2="221.1675" y2="157.3336"><stop offset="0" style="stop-color:#FCFCE4"></stop><stop offset="0.5" style="stop-color:#A0C8DD"></stop><stop offset="1" style="stop-color:#5D6EC5"></stop></linearGradient><path style="fill:url(#hair1XMLID_3645_);stroke:#1E1E1E;stroke-linecap:round;stroke-linejoin:round;" d="M232.444,156.69c-0.154-5.538,2.113,26.669-20.324,32.603c0.67-12.285-2.233-17.868-2.233-17.868"></path><linearGradient id="hair1XMLID_3646_" gradientUnits="userSpaceOnUse" x1="254.4648" y1="220.667" x2="254.4648" y2="157.3335"><stop offset="0" style="stop-color:#FCFCE4"></stop><stop offset="0.5" style="stop-color:#A0C8DD"></stop><stop offset="1" style="stop-color:#5D6EC5"></stop></linearGradient><path style="fill:url(#hair1XMLID_3646_);stroke:#1E1E1E;stroke-linecap:round;stroke-linejoin:round;" d="M230.77,150.325c-0.224,0.67-7.37,26.13,7.259,46.117c11.239,15.358,3.35,25.46,3.35,25.46s49.355-16.077,36.625-66.104"></path><linearGradient id="hair1XMLID_3647_" gradientUnits="userSpaceOnUse" x1="262.2578" y1="220.667" x2="262.2578" y2="157.3336"><stop offset="0" style="stop-color:#FCFCE4"></stop><stop offset="0.5" style="stop-color:#A0C8DD"></stop><stop offset="1" style="stop-color:#5D6EC5"></stop></linearGradient><path style="fill:url(#hair1XMLID_3647_);stroke:#1E1E1E;stroke-linecap:round;stroke-linejoin:round;" d="M254.33,208.058c0,0.67,1.786,12.06,15.856,11.837c-6.924-7.369-4.468-18.984-4.468-18.984"></path><linearGradient id="hair1XMLID_3648_" gradientUnits="userSpaceOnUse" x1="212.8525" y1="220.667" x2="212.8525" y2="157.3334"><stop offset="0" style="stop-color:#FCFCE4"></stop><stop offset="0.5" style="stop-color:#A0C8DD"></stop><stop offset="1" style="stop-color:#5D6EC5"></stop></linearGradient><path style="fill:url(#hair1XMLID_3648_);stroke:#1E1E1E;stroke-linecap:round;stroke-linejoin:round;" d="M205.196,160.482c0,0-8.71,29.032,16.75,39.308c-4.243-10.497-2.008-36.622-2.008-37.292"></path><linearGradient id="hair1XMLID_3649_" gradientUnits="userSpaceOnUse" x1="198.3853" y1="220.667" x2="198.3853" y2="157.3335"><stop offset="0" style="stop-color:#FCFCE4"></stop><stop offset="0.5" style="stop-color:#A0C8DD"></stop><stop offset="1" style="stop-color:#5D6EC5"></stop></linearGradient><path style="fill:url(#hair1XMLID_3649_);stroke:#1E1E1E;stroke-linecap:round;stroke-linejoin:round;" d="M211.45,154.68c-0.223,0.67-1.34,41.988-26.13,43.55c7.817-16.973,5.808-33.053,5.138-33.053"></path></g></g></svg>