<svg xmlns="http://www.w3.org/2000/svg" width="500" height="500" version="1.1"><g id="x153"><g><linearGradient id="hair1XMLID_3650_" gradientUnits="userSpaceOnUse" x1="250.0503" y1="225" x2="250.0503" y2="152.3335"><stop offset="0" style="stop-color:#FCFCE4"></stop><stop offset="0.5" style="stop-color:#A0C8DD"></stop><stop offset="1" style="stop-color:#5D6EC5"></stop></linearGradient><path style="fill:url(#hair1XMLID_3650_);stroke:#1E1E1E;stroke-linecap:round;stroke-linejoin:round;" d="M311.534,135.882c-17.021-17.418-41.603-23.852-61.484-20.131c-19.882-3.721-44.464,2.713-61.484,20.131c-13.061,13.365-22.283,30.165-22.283,51.08c0,24.372,15.268,44.372,25.934,48.538c-7.33-33.49-0.484-59.331,5.084-68.5c1.798-2.157,29.369-5.491,52.75-5.619c23.381,0.128,50.952,3.462,52.75,5.619c5.568,9.169,12.414,35.01,5.084,68.5c10.666-4.167,25.934-24.167,25.934-48.538C333.817,166.047,324.595,149.248,311.534,135.882z"></path><linearGradient id="hair1XMLID_3651_" gradientUnits="userSpaceOnUse" x1="293.7305" y1="225" x2="293.7305" y2="152.3337"><stop offset="0" style="stop-color:#FCFCE4"></stop><stop offset="0.5" style="stop-color:#A0C8DD"></stop><stop offset="1" style="stop-color:#5D6EC5"></stop></linearGradient><path style="fill:url(#hair1XMLID_3651_);stroke:#1E1E1E;stroke-linecap:round;stroke-linejoin:round;" d="M269.938,158.805c0,0,8.71,51.255,43.215,61.305c8.375-28.475,3.351-45.56-3.685-55.61"></path><g><linearGradient id="hair1XMLID_3652_" gradientUnits="userSpaceOnUse" x1="181.5488" y1="225" x2="181.5488" y2="152.3335"><stop offset="0" style="stop-color:#FCFCE4"></stop><stop offset="0.5" style="stop-color:#A0C8DD"></stop><stop offset="1" style="stop-color:#5D6EC5"></stop></linearGradient><path style="fill:url(#hair1XMLID_3652_);stroke:#1E1E1E;stroke-linecap:round;stroke-linejoin:round;" d="M192.553,160.815c0,0-7.035,56.28,5.025,92.125c-7.705,3.686-17.085,8.04-17.085,8.04s-31.825-52.93-2.681-108.875"></path><path style="fill:none;stroke:#1E1E1E;stroke-linecap:round;stroke-linejoin:round;" d="M177.143,223.795c0,0,3.016,20.77,11.391,32.83"></path></g><g><linearGradient id="hair1XMLID_3653_" gradientUnits="userSpaceOnUse" x1="311.0449" y1="225" x2="311.0449" y2="152.3335"><stop offset="0" style="stop-color:#FCFCE4"></stop><stop offset="0.5" style="stop-color:#A0C8DD"></stop><stop offset="1" style="stop-color:#5D6EC5"></stop></linearGradient><path style="fill:url(#hair1XMLID_3653_);stroke:#1E1E1E;stroke-linecap:round;stroke-linejoin:round;" d="M299.616,160.815c0,0,7.035,66.665-5.024,102.509c12.531-1.34,21.241-5.695,21.241-5.695s25.658-49.914,0.868-100.164"></path><path style="fill:none;stroke:#1E1E1E;stroke-linecap:round;stroke-linejoin:round;" d="M316.366,228.15c0,0-3.015,20.77-11.39,32.829"></path></g><g><linearGradient id="hair1XMLID_3654_" gradientUnits="userSpaceOnUse" x1="220.1919" y1="225" x2="220.1919" y2="152.3335"><stop offset="0" style="stop-color:#FCFCE4"></stop><stop offset="0.5" style="stop-color:#A0C8DD"></stop><stop offset="1" style="stop-color:#5D6EC5"></stop></linearGradient><path style="fill:url(#hair1XMLID_3654_);stroke:#1E1E1E;stroke-linecap:round;stroke-linejoin:round;" d="M247.158,158.687l-0.671,95.875h-48.574c0,0-11.391-38.815,1.34-90.44"></path><linearGradient id="hair1XMLID_3655_" gradientUnits="userSpaceOnUse" x1="253.3193" y1="225" x2="253.3193" y2="152.3335"><stop offset="0" style="stop-color:#FCFCE4"></stop><stop offset="0.5" style="stop-color:#A0C8DD"></stop><stop offset="1" style="stop-color:#5D6EC5"></stop></linearGradient><path style="fill:url(#hair1XMLID_3655_);stroke:#1E1E1E;stroke-linecap:round;stroke-linejoin:round;" d="M271.277,155.582c0,0,8.04,52.013-3.35,98.979c-9.715,0-30.485,0-30.485,0s-9.38-43.085-2.01-98.591"></path><linearGradient id="hair1XMLID_3656_" gradientUnits="userSpaceOnUse" x1="261.7305" y1="225" x2="261.7305" y2="152.3336"><stop offset="0" style="stop-color:#FCFCE4"></stop><stop offset="0.5" style="stop-color:#A0C8DD"></stop><stop offset="1" style="stop-color:#5D6EC5"></stop></linearGradient><path style="fill:url(#hair1XMLID_3656_);stroke:#1E1E1E;stroke-linecap:round;stroke-linejoin:round;" d="M264.243,214.97c0,0-1.006,26.007-5.025,39.203"></path><linearGradient id="hair1XMLID_3657_" gradientUnits="userSpaceOnUse" x1="193.3984" y1="225" x2="193.3984" y2="152.3335"><stop offset="0" style="stop-color:#FCFCE4"></stop><stop offset="0.5" style="stop-color:#A0C8DD"></stop><stop offset="1" style="stop-color:#5D6EC5"></stop></linearGradient><path style="fill:url(#hair1XMLID_3657_);stroke:#1E1E1E;stroke-linecap:round;stroke-linejoin:round;" d="M190.878,149.76c0,0-24.455,51.625-2.681,105.189c9.716,0,16.75,0,16.75,0s-13.399-51.236,2.681-96.65"></path><linearGradient id="hair1XMLID_3658_" gradientUnits="userSpaceOnUse" x1="223.54" y1="225" x2="223.54" y2="152.3336"><stop offset="0" style="stop-color:#FCFCE4"></stop><stop offset="0.5" style="stop-color:#A0C8DD"></stop><stop offset="1" style="stop-color:#5D6EC5"></stop></linearGradient><path style="fill:url(#hair1XMLID_3658_);stroke:#1E1E1E;stroke-linecap:round;stroke-linejoin:round;" d="M221.027,214.97c0,0,1.006,26.007,5.025,39.203"></path></g></g></g></svg>