<svg xmlns="http://www.w3.org/2000/svg" width="500" height="500" version="1.1"><g id="x154"><linearGradient id="hair1XMLID_3659_" gradientUnits="userSpaceOnUse" x1="250.0503" y1="233.667" x2="250.0503" y2="153.0001"><stop offset="0" style="stop-color:#FCFCE4"></stop><stop offset="0.5" style="stop-color:#A0C8DD"></stop><stop offset="1" style="stop-color:#5D6EC5"></stop></linearGradient><path style="fill:url(#hair1XMLID_3659_);stroke:#1E1E1E;stroke-linecap:round;stroke-linejoin:round;" d="M311.534,135.882c-17.021-17.418-41.603-23.852-61.484-20.131c-19.882-3.721-44.464,2.713-61.484,20.131c-13.061,13.365-22.283,30.165-22.283,51.08c0,24.372,15.268,44.372,25.934,48.538c-7.33-33.49-0.484-59.331,5.084-68.5c1.798-2.157,29.369-5.491,52.75-5.619c23.381,0.128,50.952,3.462,52.75,5.619c5.568,9.169,12.414,35.01,5.084,68.5c10.666-4.167,25.934-24.167,25.934-48.538C333.817,166.047,324.595,149.248,311.534,135.882z"></path><linearGradient id="hair1XMLID_3660_" gradientUnits="userSpaceOnUse" x1="202.9565" y1="233.667" x2="202.9565" y2="153.0003"><stop offset="0" style="stop-color:#FCFCE4"></stop><stop offset="0.5" style="stop-color:#A0C8DD"></stop><stop offset="1" style="stop-color:#5D6EC5"></stop></linearGradient><path style="fill:url(#hair1XMLID_3660_);stroke:#1E1E1E;stroke-linecap:round;stroke-linejoin:round;" d="M222.305,162.49c0,0,0.335,46.565-36.516,59.965c-2.292-6.723-2.702-17.765-1.58-28.869c0,0,0.91-20.041,9.285-31.431"></path><linearGradient id="hair1XMLID_3661_" gradientUnits="userSpaceOnUse" x1="297.043" y1="233.667" x2="297.043" y2="153.0003"><stop offset="0" style="stop-color:#FCFCE4"></stop><stop offset="0.5" style="stop-color:#A0C8DD"></stop><stop offset="1" style="stop-color:#5D6EC5"></stop></linearGradient><path style="fill:url(#hair1XMLID_3661_);stroke:#1E1E1E;stroke-linecap:round;stroke-linejoin:round;" d="M277.695,162.49c0,0-0.335,46.565,36.516,59.965c2.291-6.723,2.702-17.765,1.581-28.869c0,0-0.911-20.041-9.286-31.431"></path><g><g><linearGradient id="hair1XMLID_3662_" gradientUnits="userSpaceOnUse" x1="320.0996" y1="233.667" x2="320.0996" y2="153.0001"><stop offset="0" style="stop-color:#FCFCE4"></stop><stop offset="0.5" style="stop-color:#A0C8DD"></stop><stop offset="1" style="stop-color:#5D6EC5"></stop></linearGradient><path style="fill:url(#hair1XMLID_3662_);stroke:#1E1E1E;stroke-linecap:round;stroke-linejoin:round;" d="M311.891,245.57c0,0-8.375,15.409-10.721,29.479c7.705-7.035,19.096-10.385,19.096-10.385s30.488-9.715,13.738-57.284"></path><linearGradient id="hair1XMLID_3663_" gradientUnits="userSpaceOnUse" x1="314.877" y1="233.667" x2="314.877" y2="153"><stop offset="0" style="stop-color:#FCFCE4"></stop><stop offset="0.5" style="stop-color:#A0C8DD"></stop><stop offset="1" style="stop-color:#5D6EC5"></stop></linearGradient><path style="fill:url(#hair1XMLID_3663_);stroke:#1E1E1E;stroke-linecap:round;stroke-linejoin:round;" d="M301.504,163.495c0.67,2.01,23.785,60.635-7.033,99.16c13.064,1.34,19.094-8.375,19.094-8.375s31.826-7.705,18.426-58.625c0,0-2.346-7.035-5.361-12.395"></path><linearGradient id="hair1XMLID_3664_" gradientUnits="userSpaceOnUse" x1="310.3145" y1="233.667" x2="310.3145" y2="152.9999"><stop offset="0" style="stop-color:#FCFCE4"></stop><stop offset="0.5" style="stop-color:#A0C8DD"></stop><stop offset="1" style="stop-color:#5D6EC5"></stop></linearGradient><path style="fill:url(#hair1XMLID_3664_);" d="M311.189,176.75c-0.75-0.5-8.75-17-8.75-17l6-3.5l9.75,18.5L311.189,176.75z"></path><path style="fill:none;stroke:#1E1E1E;stroke-linecap:round;stroke-linejoin:round;" d="M318.318,242.22c0,1.34-2.346,8.71-6.029,13.735"></path></g><g><linearGradient id="hair1XMLID_3665_" gradientUnits="userSpaceOnUse" x1="179.9004" y1="233.667" x2="179.9004" y2="153.0001"><stop offset="0" style="stop-color:#FCFCE4"></stop><stop offset="0.5" style="stop-color:#A0C8DD"></stop><stop offset="1" style="stop-color:#5D6EC5"></stop></linearGradient><path style="fill:url(#hair1XMLID_3665_);stroke:#1E1E1E;stroke-linecap:round;stroke-linejoin:round;" d="M188.11,245.57c0,0,8.375,15.409,10.721,29.479c-7.705-7.035-19.096-10.385-19.096-10.385s-30.489-9.715-13.739-57.284"></path><linearGradient id="hair1XMLID_3666_" gradientUnits="userSpaceOnUse" x1="185.1235" y1="233.667" x2="185.1235" y2="153"><stop offset="0" style="stop-color:#FCFCE4"></stop><stop offset="0.5" style="stop-color:#A0C8DD"></stop><stop offset="1" style="stop-color:#5D6EC5"></stop></linearGradient><path style="fill:url(#hair1XMLID_3666_);stroke:#1E1E1E;stroke-linecap:round;stroke-linejoin:round;" d="M198.496,163.495c-0.67,2.01-23.785,60.635,7.034,99.16c-13.064,1.34-19.095-8.375-19.095-8.375s-31.825-7.705-18.425-58.625c0,0,2.345-7.035,5.36-12.395"></path><linearGradient id="hair1XMLID_3667_" gradientUnits="userSpaceOnUse" x1="189.686" y1="233.667" x2="189.686" y2="152.9999"><stop offset="0" style="stop-color:#FCFCE4"></stop><stop offset="0.5" style="stop-color:#A0C8DD"></stop><stop offset="1" style="stop-color:#5D6EC5"></stop></linearGradient><path style="fill:url(#hair1XMLID_3667_);" d="M188.811,176.75c0.75-0.5,8.75-17,8.75-17l-6-3.5l-9.75,18.5L188.811,176.75z"></path><path style="fill:none;stroke:#1E1E1E;stroke-linecap:round;stroke-linejoin:round;" d="M181.58,242.22c0,1.34,2.345,8.71,6.029,13.735"></path></g></g><linearGradient id="hair1XMLID_3668_" gradientUnits="userSpaceOnUse" x1="250" y1="233.667" x2="250" y2="153"><stop offset="0" style="stop-color:#FCFCE4"></stop><stop offset="0.5" style="stop-color:#A0C8DD"></stop><stop offset="1" style="stop-color:#5D6EC5"></stop></linearGradient><path style="fill:url(#hair1XMLID_3668_);stroke:#1E1E1E;stroke-linecap:round;stroke-linejoin:round;" d="M226.828,151.435c0,0-14.07,19.095-10.05,43.886c4.02,24.789,23.785,30.484,23.785,30.484s8.04,5.359,10.385,9.715c10.05-3.35,13.065-10.385,13.065-10.385s34.841-18.76,12.396-70.35"></path><path style="fill:none;stroke:#1E1E1E;stroke-linecap:round;stroke-linejoin:round;" d="M228.167,186.945c0,0-1.675,24.789,12.396,38.859"></path><path style="fill:none;stroke:#1E1E1E;stroke-linecap:round;stroke-linejoin:round;" d="M274.063,192.64c0,0,4.469,16.876-9.937,32.286"></path></g></svg>