<svg xmlns="http://www.w3.org/2000/svg" width="500" height="500" version="1.1"><g id="x155"><g><linearGradient id="hair1XMLID_3669_" gradientUnits="userSpaceOnUse" x1="250.0503" y1="218.667" x2="250.0503" y2="160"><stop offset="0" style="stop-color:#FCFCE4"></stop><stop offset="0.5" style="stop-color:#A0C8DD"></stop><stop offset="1" style="stop-color:#5D6EC5"></stop></linearGradient><path style="fill:url(#hair1XMLID_3669_);stroke:#1E1E1E;stroke-linecap:round;stroke-linejoin:round;" d="M311.534,135.882c-17.021-17.418-41.603-23.852-61.484-20.131c-19.882-3.721-44.464,2.713-61.484,20.131c-13.061,13.365-22.283,30.165-22.283,51.08c0,24.372,15.268,44.372,25.934,48.538c-7.33-33.49-0.484-59.331,5.084-68.5c1.798-2.157,29.369-5.491,52.75-5.619c23.381,0.128,50.952,3.462,52.75,5.619c5.568,9.169,12.414,35.01,5.084,68.5c10.666-4.167,25.934-24.167,25.934-48.538C333.817,166.047,324.595,149.248,311.534,135.882z"></path><linearGradient id="hair1XMLID_3670_" gradientUnits="userSpaceOnUse" x1="179.9858" y1="218.667" x2="179.9858" y2="160"><stop offset="0" style="stop-color:#FCFCE4"></stop><stop offset="0.5" style="stop-color:#A0C8DD"></stop><stop offset="1" style="stop-color:#5D6EC5"></stop></linearGradient><path style="fill:url(#hair1XMLID_3670_);stroke:#1E1E1E;stroke-linecap:round;stroke-linejoin:round;" d="M196.921,150.43c0,0-11.091,34.642-3.721,87.237C181.534,230,174.333,219,174.333,219l-6.222,5.8c0,0-8.71-17.755-8.04-39.53c0.67-21.775,15.745-48.91,25.125-57.285c7.035-0.335,14.74-0.335,14.74-0.335"></path><linearGradient id="hair1XMLID_3671_" gradientUnits="userSpaceOnUse" x1="307.2725" y1="218.667" x2="307.2725" y2="160.0001"><stop offset="0" style="stop-color:#FCFCE4"></stop><stop offset="0.5" style="stop-color:#A0C8DD"></stop><stop offset="1" style="stop-color:#5D6EC5"></stop></linearGradient><path style="fill:url(#hair1XMLID_3671_);stroke:#1E1E1E;stroke-linecap:round;stroke-linejoin:round;" d="M303.451,221.115c0,1.34,2.01,28.475-1.005,37.854c7.035-12.06,10.72-30.485,9.38-38.86C307.807,219.775,303.451,221.115,303.451,221.115z"></path><g><linearGradient id="hair1XMLID_3672_" gradientUnits="userSpaceOnUse" x1="233.1011" y1="218.667" x2="233.1011" y2="160"><stop offset="0" style="stop-color:#FCFCE4"></stop><stop offset="0.5" style="stop-color:#A0C8DD"></stop><stop offset="1" style="stop-color:#5D6EC5"></stop></linearGradient><path style="fill:url(#hair1XMLID_3672_);stroke:#1E1E1E;stroke-linecap:round;stroke-linejoin:round;" d="M195.246,129.66c0,0,26.13-19.43,42.88-19.765c19.431,6.03,32.83,20.1,32.83,20.1"></path><g><g><linearGradient id="hair1XMLID_3673_" gradientUnits="userSpaceOnUse" x1="292.1133" y1="218.667" x2="292.1133" y2="160"><stop offset="0" style="stop-color:#FCFCE4"></stop><stop offset="0.5" style="stop-color:#A0C8DD"></stop><stop offset="1" style="stop-color:#5D6EC5"></stop></linearGradient><path style="fill:url(#hair1XMLID_3673_);stroke:#1E1E1E;stroke-linecap:round;stroke-linejoin:round;" d="M244.826,183.26c0,0,16.415,21.775,22.78,24.12s54.939,7.034,63.314,3.35c9.045-11.39,9.045-18.425,8.04-20.435s-13.064-6.365-13.064-6.365s5.359,6.365,6.365,8.04c1.005,1.675-4.021,4.69-6.365,6.364c-2.345,1.676-13.065-6.364-13.065-6.364s-7.035-41.205-34.505-55.945"></path><path style="fill:none;stroke:#1E1E1E;stroke-linecap:round;stroke-linejoin:round;" d="M300.125,174.375c0,0,2.5,8.5,12.706,17.595"></path></g><linearGradient id="hair1XMLID_3674_" gradientUnits="userSpaceOnUse" x1="267.6055" y1="218.667" x2="267.6055" y2="160"><stop offset="0" style="stop-color:#FCFCE4"></stop><stop offset="0.5" style="stop-color:#A0C8DD"></stop><stop offset="1" style="stop-color:#5D6EC5"></stop></linearGradient><path style="fill:url(#hair1XMLID_3674_);stroke:#1E1E1E;stroke-linecap:round;stroke-linejoin:round;" d="M195.246,141.72c0,0,6.7,30.149,7.37,32.495c0.67,2.345,10.05,39.195,62.311,55.945c-28.811-22.445-32.83-45.896-32.83-45.896s20.1,33.835,39.864,40.535c19.766,6.7,51.926-2.011,68.005-7.705c-34.84-1.675-55.944-24.12-57.284-24.79c-0.821-0.41-5.786-15.641-13.665-29.85"></path></g></g></g></g></svg>