<svg xmlns="http://www.w3.org/2000/svg" width="500" height="500" version="1.1"><g id="x156"><g><linearGradient id="hair1XMLID_3675_" gradientUnits="userSpaceOnUse" x1="182.8325" y1="222" x2="182.8325" y2="156.667"><stop offset="0" style="stop-color:#FCFCE4"></stop><stop offset="0.5" style="stop-color:#A0C8DD"></stop><stop offset="1" style="stop-color:#5D6EC5"></stop></linearGradient><path style="fill:url(#hair1XMLID_3675_);stroke:#1E1E1E;stroke-linecap:round;stroke-linejoin:round;" d="M189.568,233.51c0,0-10.72,14.404-8.71,29.48C171.813,255.619,176.169,231.834,189.568,233.51z"></path><linearGradient id="hair1XMLID_3676_" gradientUnits="userSpaceOnUse" x1="317.168" y1="222" x2="317.168" y2="156.667"><stop offset="0" style="stop-color:#FCFCE4"></stop><stop offset="0.5" style="stop-color:#A0C8DD"></stop><stop offset="1" style="stop-color:#5D6EC5"></stop></linearGradient><path style="fill:url(#hair1XMLID_3676_);stroke:#1E1E1E;stroke-linecap:round;stroke-linejoin:round;" d="M310.432,233.51c0,0,10.72,14.404,8.71,29.48C328.187,255.619,323.832,231.834,310.432,233.51z"></path></g><g><linearGradient id="hair1XMLID_3677_" gradientUnits="userSpaceOnUse" x1="250.0503" y1="222" x2="250.0503" y2="156.667"><stop offset="0" style="stop-color:#FCFCE4"></stop><stop offset="0.5" style="stop-color:#A0C8DD"></stop><stop offset="1" style="stop-color:#5D6EC5"></stop></linearGradient><path style="fill:url(#hair1XMLID_3677_);stroke:#1E1E1E;stroke-linecap:round;stroke-linejoin:round;" d="M311.534,135.882c-17.021-17.418-41.603-23.852-61.484-20.131c-19.882-3.721-44.464,2.713-61.484,20.131c-13.061,13.365-22.283,30.165-22.283,51.08c0,24.372,15.268,44.372,25.934,48.538c-7.33-33.49-0.484-59.331,5.084-68.5c1.798-2.157,29.369-5.491,52.75-5.619c23.381,0.128,50.952,3.462,52.75,5.619c5.568,9.169,12.414,35.01,5.084,68.5c10.666-4.167,25.934-24.167,25.934-48.538C333.817,166.047,324.595,149.248,311.534,135.882z"></path><linearGradient id="hair1XMLID_3678_" gradientUnits="userSpaceOnUse" x1="258.291" y1="222" x2="258.291" y2="156.6669"><stop offset="0" style="stop-color:#FCFCE4"></stop><stop offset="0.5" style="stop-color:#A0C8DD"></stop><stop offset="1" style="stop-color:#5D6EC5"></stop></linearGradient><path style="fill:url(#hair1XMLID_3678_);" d="M207.706,157.145c0,0,15.745,49.245,53.601,43.551c37.854-5.695,47.57-40.201,47.57-40.201L207.706,157.145z"></path><linearGradient id="hair1XMLID_3679_" gradientUnits="userSpaceOnUse" x1="186.1328" y1="222" x2="186.1328" y2="156.667"><stop offset="0" style="stop-color:#FCFCE4"></stop><stop offset="0.5" style="stop-color:#A0C8DD"></stop><stop offset="1" style="stop-color:#5D6EC5"></stop></linearGradient><path style="fill:url(#hair1XMLID_3679_);stroke:#1E1E1E;stroke-linecap:round;stroke-linejoin:round;" d="M204.356,163.495c0,0-13.356,34.755,1.894,69.755c-3.75-2-17.75-14.25-14-47.75c-6.5,29.5,0.25,51,5.5,56.25c-17.75-6.25-42.634-37.055-26.554-80.271"></path><linearGradient id="hair1XMLID_3680_" gradientUnits="userSpaceOnUse" x1="270.0117" y1="222" x2="270.0117" y2="156.667"><stop offset="0" style="stop-color:#FCFCE4"></stop><stop offset="0.5" style="stop-color:#A0C8DD"></stop><stop offset="1" style="stop-color:#5D6EC5"></stop></linearGradient><path style="fill:url(#hair1XMLID_3680_);stroke:#1E1E1E;stroke-linecap:round;stroke-linejoin:round;" d="M204.021,160.479c0,0-5.36,40.87,32.16,56.95c15.705,6.73,36.85,5.359,59.965-5.359c18.425,3.35,34.054-2.813,37.17-9.045c6.03-14.07,1.005-21.105,0.67-22.445c0,0,3.351-10.051-3.685-21.775c-3.351-13.4-7.69-19.095-16.735-22.78c2.345,16.75-8.375,41.875-41.205,48.91c-44.886,9.618-63.314-25.795-63.314-25.795"></path><linearGradient id="hair1XMLID_3681_" gradientUnits="userSpaceOnUse" x1="320.502" y1="222" x2="320.502" y2="156.667"><stop offset="0" style="stop-color:#FCFCE4"></stop><stop offset="0.5" style="stop-color:#A0C8DD"></stop><stop offset="1" style="stop-color:#5D6EC5"></stop></linearGradient><path style="fill:url(#hair1XMLID_3681_);stroke:#1E1E1E;stroke-linecap:round;stroke-linejoin:round;" d="M308.877,211.4c0,0,0.123,14.35-1.377,27.1c12.061-5.36,23.486-23.08,25.161-34.135c1.676-11.056,0.335-16.75,0.335-16.75"></path><path style="fill:none;stroke:#1E1E1E;stroke-linecap:round;stroke-linejoin:round;" d="M291.121,214.08c1.006-0.67,13.065-4.021,19.096-14.405"></path></g></g></svg>