<svg xmlns="http://www.w3.org/2000/svg" width="500" height="500" version="1.1"><g id="x157"><g><linearGradient id="hair1XMLID_3682_" gradientUnits="userSpaceOnUse" x1="250.0503" y1="215.667" x2="250.0503" y2="157"><stop offset="0" style="stop-color:#FCFCE4"></stop><stop offset="0.5" style="stop-color:#A0C8DD"></stop><stop offset="1" style="stop-color:#5D6EC5"></stop></linearGradient><path style="fill:url(#hair1XMLID_3682_);stroke:#1E1E1E;stroke-linecap:round;stroke-linejoin:round;" d="M311.534,135.882c-17.021-17.418-41.603-23.852-61.484-20.131c-19.882-3.721-44.464,2.713-61.484,20.131c-13.061,13.365-22.283,30.165-22.283,51.08c0,24.372,15.268,44.372,25.934,48.538c-7.33-33.49-0.484-59.331,5.084-68.5c1.798-2.157,29.369-5.491,52.75-5.619c23.381,0.128,50.952,3.462,52.75,5.619c5.568,9.169,12.414,35.01,5.084,68.5c10.666-4.167,25.934-24.167,25.934-48.538C333.817,166.047,324.595,149.248,311.534,135.882z"></path><g><g><linearGradient id="hair1XMLID_3683_" gradientUnits="userSpaceOnUse" x1="182.3423" y1="215.667" x2="182.3423" y2="157"><stop offset="0" style="stop-color:#FCFCE4"></stop><stop offset="0.5" style="stop-color:#A0C8DD"></stop><stop offset="1" style="stop-color:#5D6EC5"></stop></linearGradient><path style="fill:url(#hair1XMLID_3683_);stroke:#1E1E1E;stroke-linecap:round;stroke-linejoin:round;" d="M177.864,160.145c0,0-6.365,9.715-6.03,12.061c0.335,2.345,3.015,7.369,3.015,7.369s-4.689,9.381-5.359,11.391c-0.671,2.01,5.024,7.369,5.024,7.369s-4.689,9.381-4.02,11.391s6.364,6.365,6.364,6.365s-2.68,7.369-2.68,10.05c2.071,2.61,7.071,6.61,7.071,6.61s-0.75,7.49-0.75,9.5c0,2.011,8.5,5.75,14.75,5.25c-4.5-16.5-3.25-28.75-3.25-28.75s-4.086-34.15,1.943-55.59"></path><path style="fill:none;stroke:#1E1E1E;stroke-linecap:round;stroke-linejoin:round;" d="M174.626,179.799c0,0,1.897-3.351,3.685-6.365"></path><path style="fill:none;stroke:#1E1E1E;stroke-linecap:round;stroke-linejoin:round;" d="M175.051,197.33c0,0,1.584-3.351,4.265-7.146"></path><path style="fill:none;stroke:#1E1E1E;stroke-linecap:round;stroke-linejoin:round;" d="M176.278,216.648c0,0,3.908-6.477,5.695-9.492"></path><path style="fill:none;stroke:#1E1E1E;stroke-linecap:round;stroke-linejoin:round;" d="M180.879,200.568c0,0-0.558,2.791-0.223,3.908c0.335,1.116,3.907,4.578,5.248,5.694"></path><path style="fill:none;stroke:#1E1E1E;stroke-linecap:round;stroke-linejoin:round;" d="M181.278,232.648c0,0,3.908-6.477,5.695-9.492"></path><path style="fill:none;stroke:#1E1E1E;stroke-linecap:round;stroke-linejoin:round;" d="M185.879,216.568c0,0-0.558,2.791-0.223,3.908c0.335,1.116,3.907,4.578,5.248,5.694"></path><path style="fill:none;stroke:#1E1E1E;stroke-linecap:round;stroke-linejoin:round;" d="M178.199,183.26c0,0-0.56,2.791-0.225,3.908c0.336,1.117,3.909,4.578,5.249,5.695"></path><path style="fill:none;stroke:#1E1E1E;stroke-linecap:round;stroke-linejoin:round;" d="M178.534,167.516c0,0-0.56,2.791-0.224,3.908c0.335,1.116,3.908,4.578,5.248,5.694"></path></g><linearGradient id="hair1XMLID_3684_" gradientUnits="userSpaceOnUse" x1="311.1299" y1="215.667" x2="311.1299" y2="157"><stop offset="0" style="stop-color:#FCFCE4"></stop><stop offset="0.5" style="stop-color:#A0C8DD"></stop><stop offset="1" style="stop-color:#5D6EC5"></stop></linearGradient><path style="fill:url(#hair1XMLID_3684_);stroke:#1E1E1E;stroke-linecap:round;stroke-linejoin:round;" d="M308.179,180.58c0,2.345,1.675,50.92-7.035,66.33c10.721-8.375,23.45-42.881,19.096-66.33"></path><linearGradient id="hair1XMLID_3685_" gradientUnits="userSpaceOnUse" x1="300.6719" y1="215.667" x2="300.6719" y2="156.9999"><stop offset="0" style="stop-color:#FCFCE4"></stop><stop offset="0.5" style="stop-color:#A0C8DD"></stop><stop offset="1" style="stop-color:#5D6EC5"></stop></linearGradient><path style="fill:url(#hair1XMLID_3685_);stroke:#1E1E1E;stroke-linecap:round;stroke-linejoin:round;" d="M288.414,163.83c0,0,13.399,30.485,13.734,54.94c8.04-7.369,14.74-30.82,8.04-55.275"></path><linearGradient id="hair1XMLID_3686_" gradientUnits="userSpaceOnUse" x1="267.3154" y1="215.667" x2="267.3154" y2="157"><stop offset="0" style="stop-color:#FCFCE4"></stop><stop offset="0.5" style="stop-color:#A0C8DD"></stop><stop offset="1" style="stop-color:#5D6EC5"></stop></linearGradient><path style="fill:url(#hair1XMLID_3686_);stroke:#1E1E1E;stroke-linecap:round;stroke-linejoin:round;" d="M291.094,153.78c11.39,16.416,12.73,48.24,7.37,70.015c-2.01-9.045-11.055-23.115-18.09-39.195c4.689,14.405,6.7,23.45,1.005,38.525c-4.69-10.721-11.39-16.75-11.39-16.75c0,4.02,1.675,11.055-0.671,14.404c-0.335-3.35-7.369-13.734-7.369-13.734s-0.335,8.375-3.351,13.4c-2.68-17.42-19.43-38.19-19.43-38.19l-6.03-21.44"></path><linearGradient id="hair1XMLID_3687_" gradientUnits="userSpaceOnUse" x1="224.7417" y1="215.667" x2="224.7417" y2="157"><stop offset="0" style="stop-color:#FCFCE4"></stop><stop offset="0.5" style="stop-color:#A0C8DD"></stop><stop offset="1" style="stop-color:#5D6EC5"></stop></linearGradient><path style="fill:url(#hair1XMLID_3687_);stroke:#1E1E1E;stroke-linecap:round;stroke-linejoin:round;" d="M206.339,161.15c0,0,24.455,19.094,35.845,59.295c4.021-14.74-5.694-58.96-8.71-65.661"></path><linearGradient id="hair1XMLID_3688_" gradientUnits="userSpaceOnUse" x1="197.7261" y1="215.667" x2="197.7261" y2="157"><stop offset="0" style="stop-color:#FCFCE4"></stop><stop offset="0.5" style="stop-color:#A0C8DD"></stop><stop offset="1" style="stop-color:#5D6EC5"></stop></linearGradient><path style="fill:url(#hair1XMLID_3688_);stroke:#1E1E1E;stroke-linecap:round;stroke-linejoin:round;" d="M210.358,155.12c0,0-15.744,41.541-3.015,87.435c-15.41-12.395-28.475-39.195-19.095-81.405"></path></g></g></g></svg>