<svg xmlns="http://www.w3.org/2000/svg" width="500" height="500" version="1.1"><g id="x158"><g><linearGradient id="hair1XMLID_3689_" gradientUnits="userSpaceOnUse" x1="250.0503" y1="218.667" x2="250.0503" y2="160.3335"><stop offset="0" style="stop-color:#FCFCE4"></stop><stop offset="0.5" style="stop-color:#A0C8DD"></stop><stop offset="1" style="stop-color:#5D6EC5"></stop></linearGradient><path style="fill:url(#hair1XMLID_3689_);stroke:#1E1E1E;stroke-linecap:round;stroke-linejoin:round;" d="M311.534,135.882c-17.021-17.418-41.603-23.852-61.484-20.131c-19.882-3.721-44.464,2.713-61.484,20.131c-13.061,13.365-22.283,30.165-22.283,51.08c0,24.372,15.268,44.372,25.934,48.538c-7.33-33.49-0.484-59.331,5.084-68.5c1.798-2.157,29.369-5.491,52.75-5.619c23.381,0.128,50.952,3.462,52.75,5.619c5.568,9.169,12.414,35.01,5.084,68.5c10.666-4.167,25.934-24.167,25.934-48.538C333.817,166.047,324.595,149.248,311.534,135.882z"></path><linearGradient id="hair1XMLID_3690_" gradientUnits="userSpaceOnUse" x1="312.9258" y1="218.667" x2="312.9258" y2="160.3334"><stop offset="0" style="stop-color:#FCFCE4"></stop><stop offset="0.5" style="stop-color:#A0C8DD"></stop><stop offset="1" style="stop-color:#5D6EC5"></stop></linearGradient><path style="fill:url(#hair1XMLID_3690_);stroke:#1E1E1E;stroke-linecap:round;stroke-linejoin:round;" d="M294.003,122.959c0,0,31.479,10.72,37.845,32.495c-0.335,9.38-1.675,16.081-1.675,16.081"></path><linearGradient id="hair1XMLID_3691_" gradientUnits="userSpaceOnUse" x1="331.1719" y1="218.667" x2="331.1719" y2="160.3335"><stop offset="0" style="stop-color:#FCFCE4"></stop><stop offset="0.5" style="stop-color:#A0C8DD"></stop><stop offset="1" style="stop-color:#5D6EC5"></stop></linearGradient><path style="fill:url(#hair1XMLID_3691_);stroke:#1E1E1E;stroke-linecap:round;stroke-linejoin:round;" d="M327.157,155.79c0,1.34,23.45,34.84,2.01,85.76c0-15.41-5.024-36.515-5.024-36.515"></path><linearGradient id="hair1XMLID_3692_" gradientUnits="userSpaceOnUse" x1="282.4063" y1="218.667" x2="282.4063" y2="160.3335"><stop offset="0" style="stop-color:#FCFCE4"></stop><stop offset="0.5" style="stop-color:#A0C8DD"></stop><stop offset="1" style="stop-color:#5D6EC5"></stop></linearGradient><path style="fill:url(#hair1XMLID_3692_);stroke:#1E1E1E;stroke-linecap:round;stroke-linejoin:round;" d="M235.702,161.83c0,0,4.355-2.69,8.04-5.705c7.37,6.365,21.775,35.175,23.785,55.276c7.035-14.07,3.015-31.826,3.015-31.826c12.061,15.41,14.132,23.82,16.08,35.51c9.716-10.385,9.381-25.795,2.011-38.189c12.729,11.725,17.085,28.141,18.425,46.9c1.051,14.717-8.71,29.145-8.71,29.145s34.17-11.055,30.484-52.26c-2.129-23.805-21.774-59.965-40.534-67"></path><linearGradient id="hair1XMLID_3693_" gradientUnits="userSpaceOnUse" x1="183.3403" y1="218.667" x2="183.3403" y2="160.3335"><stop offset="0" style="stop-color:#FCFCE4"></stop><stop offset="0.5" style="stop-color:#A0C8DD"></stop><stop offset="1" style="stop-color:#5D6EC5"></stop></linearGradient><path style="fill:url(#hair1XMLID_3693_);stroke:#1E1E1E;stroke-linecap:round;stroke-linejoin:round;" d="M195.503,129.66c-1.676,1.005-22.11,14.07-29.815,46.23c-0.67,8.71,0.67,12.06,0.67,12.06s-5.695,16.75-4.354,25.125c1.34,8.375,7.704,28.141,23.114,31.155c-3.015-32.829,8.375-64.655,19.766-79.73"></path><linearGradient id="hair1XMLID_3694_" gradientUnits="userSpaceOnUse" x1="199.1104" y1="218.667" x2="199.1104" y2="160.3335"><stop offset="0" style="stop-color:#FCFCE4"></stop><stop offset="0.5" style="stop-color:#A0C8DD"></stop><stop offset="1" style="stop-color:#5D6EC5"></stop></linearGradient><path style="fill:url(#hair1XMLID_3694_);stroke:#1E1E1E;stroke-linecap:round;stroke-linejoin:round;" d="M211.917,137.7c-13.734,6.365-36.515,39.195-40.199,60.97c-1.631,9.634,1.34,28.475,1.34,28.475c3.35,24.79,25.437,31.56,27.47,30.82c-4.818-4.678-6.573-10.85-7.002-16.419c4.385-42.199,27.285-73.784,33.467-82.071"></path></g></g></svg>