<svg xmlns="http://www.w3.org/2000/svg" width="500" height="500" version="1.1"><g id="x159"><g><linearGradient id="hair1XMLID_3695_" gradientUnits="userSpaceOnUse" x1="250.0503" y1="226.667" x2="250.0503" y2="147.3334"><stop offset="0" style="stop-color:#FCFCE4"></stop><stop offset="0.5" style="stop-color:#A0C8DD"></stop><stop offset="1" style="stop-color:#5D6EC5"></stop></linearGradient><path style="fill:url(#hair1XMLID_3695_);stroke:#1E1E1E;stroke-linecap:round;stroke-linejoin:round;" d="M311.534,135.882c-17.021-17.418-41.603-23.852-61.484-20.131c-19.882-3.721-44.464,2.713-61.484,20.131c-13.061,13.365-22.283,30.165-22.283,51.08c0,24.372,15.268,44.372,25.934,48.538c-7.33-33.49-0.484-59.331,5.084-68.5c1.798-2.157,29.369-5.491,52.75-5.619c23.381,0.128,50.952,3.462,52.75,5.619c5.568,9.169,12.414,35.01,5.084,68.5c10.666-4.167,25.934-24.167,25.934-48.538C333.817,166.047,324.595,149.248,311.534,135.882z"></path><linearGradient id="hair1XMLID_3696_" gradientUnits="userSpaceOnUse" x1="200.0239" y1="226.667" x2="200.0239" y2="147.3336"><stop offset="0" style="stop-color:#FCFCE4"></stop><stop offset="0.5" style="stop-color:#A0C8DD"></stop><stop offset="1" style="stop-color:#5D6EC5"></stop></linearGradient><path style="fill:url(#hair1XMLID_3696_);stroke:#1E1E1E;stroke-linecap:round;stroke-linejoin:round;" d="M185.284,145.803c0,0-15.41,14.07-22.445,31.155c2.68-31.49,32.495-60.635,74.37-60.635"></path><linearGradient id="hair1XMLID_3697_" gradientUnits="userSpaceOnUse" x1="223.3066" y1="226.667" x2="223.3066" y2="147.3335"><stop offset="0" style="stop-color:#FCFCE4"></stop><stop offset="0.5" style="stop-color:#A0C8DD"></stop><stop offset="1" style="stop-color:#5D6EC5"></stop></linearGradient><path style="fill:url(#hair1XMLID_3697_);stroke:#1E1E1E;stroke-linecap:round;stroke-linejoin:round;" d="M174.564,218.162c0,0-6.7,8.04-16.75,13.4c9.38-20.77,11.246-52.187,13.735-61.975c5.025-19.765,14.405-37.185,54.94-45.225s62.31,6.365,62.31,6.365"></path><linearGradient id="hair1XMLID_3698_" gradientUnits="userSpaceOnUse" x1="189.272" y1="226.667" x2="189.272" y2="147.3336"><stop offset="0" style="stop-color:#FCFCE4"></stop><stop offset="0.5" style="stop-color:#A0C8DD"></stop><stop offset="1" style="stop-color:#5D6EC5"></stop></linearGradient><path style="fill:url(#hair1XMLID_3698_);stroke:#1E1E1E;stroke-linecap:round;stroke-linejoin:round;" d="M197.009,231.228c0,0-8.71,26.465-3.015,35.51c-8.375-3.685-13.065-26.465-12.395-35.845C190.309,224.862,197.009,231.228,197.009,231.228z"></path><g><linearGradient id="hair1XMLID_3699_" gradientUnits="userSpaceOnUse" x1="230.6597" y1="226.667" x2="230.6597" y2="147.3335"><stop offset="0" style="stop-color:#FCFCE4"></stop><stop offset="0.5" style="stop-color:#A0C8DD"></stop><stop offset="1" style="stop-color:#5D6EC5"></stop></linearGradient><path style="fill:url(#hair1XMLID_3699_);stroke:#1E1E1E;stroke-linecap:round;stroke-linejoin:round;" d="M291.75,155c0,0-10.991,67.853-51.191,81.923c13.064-15.075,18.089-31.825,18.089-31.825s-10.384,9.715-23.45,24.79c-12.06,17.755-22.11,36.403-25.236,48.464c-9.38-25.46-2.568-45.784,6.142-60.524c-7.37,12.73-18.09,15.075-30.485,22.78c-9.38,10.72-10.385,22.11-11.39,21.105c-11.055-26.801-2.345-76.045,25.125-99.495"></path><path style="fill:none;stroke:#1E1E1E;stroke-linecap:round;stroke-linejoin:round;" d="M179.142,249.764c0,0,9.38-32.606,40.2-50.026"></path><linearGradient id="hair1XMLID_3700_" gradientUnits="userSpaceOnUse" x1="253.6475" y1="226.667" x2="253.6475" y2="147.3334"><stop offset="0" style="stop-color:#FCFCE4"></stop><stop offset="0.5" style="stop-color:#A0C8DD"></stop><stop offset="1" style="stop-color:#5D6EC5"></stop></linearGradient><path style="fill:url(#hair1XMLID_3700_);stroke:#1E1E1E;stroke-linecap:round;stroke-linejoin:round;" d="M215.099,151.833c4.69-4.69,42.209-21.775,74.035-13.735c3.685,5.695,3.015,11.725,3.015,11.725"></path></g><linearGradient id="hair1XMLID_3701_" gradientUnits="userSpaceOnUse" x1="318.5596" y1="226.667" x2="318.5596" y2="147.3335"><stop offset="0" style="stop-color:#FCFCE4"></stop><stop offset="0.5" style="stop-color:#A0C8DD"></stop><stop offset="1" style="stop-color:#5D6EC5"></stop></linearGradient><path style="fill:url(#hair1XMLID_3701_);stroke:#1E1E1E;stroke-linecap:round;stroke-linejoin:round;" d="M319.283,180.308c0,0,10.467,34.692,1.217,67c11.25-7.808,31.613-58.96,7.493-92.125c-18.341-25.22-30.149-23.45-30.149-23.45"></path><linearGradient id="hair1XMLID_3702_" gradientUnits="userSpaceOnUse" x1="309.9414" y1="226.667" x2="309.9414" y2="147.3335"><stop offset="0" style="stop-color:#FCFCE4"></stop><stop offset="0.5" style="stop-color:#A0C8DD"></stop><stop offset="1" style="stop-color:#5D6EC5"></stop></linearGradient><path style="fill:url(#hair1XMLID_3702_);stroke:#1E1E1E;stroke-linecap:round;stroke-linejoin:round;" d="M295.498,144.462c0,0,24.12,61.305,8.375,102.845c14.405-14.74,26.384-42.757,17.42-79.73c-5.359-22.11-20.435-28.475-20.435-28.475"></path></g></g></svg>