<svg xmlns="http://www.w3.org/2000/svg" width="500" height="500" version="1.1"><g id="x160"><g><linearGradient id="hair1XMLID_3703_" gradientUnits="userSpaceOnUse" x1="250.0503" y1="221.667" x2="250.0503" y2="147"><stop offset="0" style="stop-color:#FCFCE4"></stop><stop offset="0.5" style="stop-color:#A0C8DD"></stop><stop offset="1" style="stop-color:#5D6EC5"></stop></linearGradient><path style="fill:url(#hair1XMLID_3703_);stroke:#1E1E1E;stroke-linecap:round;stroke-linejoin:round;" d="M311.534,135.882c-17.021-17.418-41.603-23.852-61.484-20.131c-19.882-3.721-44.464,2.713-61.484,20.131c-13.061,13.365-22.283,30.165-22.283,51.08c0,24.372,15.268,44.372,25.934,48.538c-7.33-33.49-0.484-59.331,5.084-68.5c1.798-2.157,29.369-5.491,52.75-5.619c23.381,0.128,50.952,3.462,52.75,5.619c5.568,9.169,12.414,35.01,5.084,68.5c10.666-4.167,25.934-24.167,25.934-48.538C333.817,166.047,324.595,149.248,311.534,135.882z"></path><linearGradient id="hair1XMLID_3704_" gradientUnits="userSpaceOnUse" x1="170.6802" y1="221.667" x2="170.6802" y2="147"><stop offset="0" style="stop-color:#FCFCE4"></stop><stop offset="0.5" style="stop-color:#A0C8DD"></stop><stop offset="1" style="stop-color:#5D6EC5"></stop></linearGradient><path style="fill:url(#hair1XMLID_3704_);stroke:#1E1E1E;stroke-linecap:round;stroke-linejoin:round;" d="M181.325,193.598c0,0-12.953,18.76-14.74,47.794c-9.38-26.354-11.613-64.768,13.4-94.248"></path><linearGradient id="hair1XMLID_3705_" gradientUnits="userSpaceOnUse" x1="301.457" y1="221.667" x2="301.457" y2="147"><stop offset="0" style="stop-color:#FCFCE4"></stop><stop offset="0.5" style="stop-color:#A0C8DD"></stop><stop offset="1" style="stop-color:#5D6EC5"></stop></linearGradient><path style="fill:url(#hair1XMLID_3705_);stroke:#1E1E1E;stroke-linecap:round;stroke-linejoin:round;" d="M268.75,160.25c0,0,0.351,38.202,41.25,58.75c2.681,13.847,10.58,26.634,10.134,33.334c8.485-4.913,33.053-91.12-13.848-121.493"></path><linearGradient id="hair1XMLID_3706_" gradientUnits="userSpaceOnUse" x1="184.6294" y1="221.667" x2="184.6294" y2="147"><stop offset="0" style="stop-color:#FCFCE4"></stop><stop offset="0.5" style="stop-color:#A0C8DD"></stop><stop offset="1" style="stop-color:#5D6EC5"></stop></linearGradient><path style="fill:url(#hair1XMLID_3706_);stroke:#1E1E1E;stroke-linecap:round;stroke-linejoin:round;" d="M188.374,206.783c0,0-3.407,15.226-0.427,29.248c-21.714-14.424-23.842-68.112,9.367-93.354"></path><linearGradient id="hair1XMLID_3707_" gradientUnits="userSpaceOnUse" x1="220.4849" y1="221.667" x2="220.4849" y2="147"><stop offset="0" style="stop-color:#FCFCE4"></stop><stop offset="0.5" style="stop-color:#A0C8DD"></stop><stop offset="1" style="stop-color:#5D6EC5"></stop></linearGradient><path style="fill:url(#hair1XMLID_3707_);stroke:#1E1E1E;stroke-linecap:round;stroke-linejoin:round;" d="M252.909,158.311c0,0-8.077,24.834-33.943,44.065c-25.869,19.231-27.217,30.785-27.217,30.785s-11.778-39.601,6.754-71.652"></path><linearGradient id="hair1XMLID_3708_" gradientUnits="userSpaceOnUse" x1="191.9375" y1="221.7373" x2="191.9375" y2="221.7373"><stop offset="0" style="stop-color:#FCFCE4"></stop><stop offset="0.5" style="stop-color:#A0C8DD"></stop><stop offset="1" style="stop-color:#5D6EC5"></stop></linearGradient><path style="fill:url(#hair1XMLID_3708_);stroke:#1E1E1E;stroke-linecap:round;stroke-linejoin:round;" d="M191.938,221.737"></path><linearGradient id="hair1XMLID_3709_" gradientUnits="userSpaceOnUse" x1="255.4736" y1="221.667" x2="255.4736" y2="147"><stop offset="0" style="stop-color:#FCFCE4"></stop><stop offset="0.5" style="stop-color:#A0C8DD"></stop><stop offset="1" style="stop-color:#5D6EC5"></stop></linearGradient><path style="fill:url(#hair1XMLID_3709_);stroke:#1E1E1E;stroke-linecap:round;stroke-linejoin:round;" d="M266.086,135.531c0,0,20.994,71.913-25.908,90.673c18.762-28.141,12.508-68.34,12.508-68.34"></path></g></g></svg>