<svg xmlns="http://www.w3.org/2000/svg" width="500" height="500" version="1.1"><g id="x163"><g><linearGradient id="hair1XMLID_3730_" gradientUnits="userSpaceOnUse" x1="250.0503" y1="215" x2="250.0503" y2="151.667"><stop offset="0" style="stop-color:#FCFCE4"></stop><stop offset="0.5" style="stop-color:#A0C8DD"></stop><stop offset="1" style="stop-color:#5D6EC5"></stop></linearGradient><path style="fill:url(#hair1XMLID_3730_);stroke:#1E1E1E;stroke-linecap:round;stroke-linejoin:round;" d="M311.534,135.882c-17.021-17.418-41.603-23.852-61.484-20.131c-19.882-3.721-44.464,2.713-61.484,20.131c-13.061,13.365-22.283,30.165-22.283,51.08c0,24.372,15.268,44.372,25.934,48.538c-7.33-33.49-0.484-59.331,5.084-68.5c1.798-2.157,29.369-5.491,52.75-5.619c23.381,0.128,50.952,3.462,52.75,5.619c5.568,9.169,12.414,35.01,5.084,68.5c10.666-4.167,25.934-24.167,25.934-48.538C333.817,166.047,324.595,149.248,311.534,135.882z"></path><linearGradient id="hair1XMLID_3731_" gradientUnits="userSpaceOnUse" x1="204.1885" y1="215" x2="204.1885" y2="151.6671"><stop offset="0" style="stop-color:#FCFCE4"></stop><stop offset="0.5" style="stop-color:#A0C8DD"></stop><stop offset="1" style="stop-color:#5D6EC5"></stop></linearGradient><path style="fill:url(#hair1XMLID_3731_);stroke:#1E1E1E;stroke-linecap:round;stroke-linejoin:round;" d="M210.441,201.1c0,0-1.786,13.4-10.72,17.42c3.127-14.293-1.786-38.414-1.786-38.414"></path><linearGradient id="hair1XMLID_3732_" gradientUnits="userSpaceOnUse" x1="210.7251" y1="215" x2="210.7251" y2="151.6668"><stop offset="0" style="stop-color:#FCFCE4"></stop><stop offset="0.5" style="stop-color:#A0C8DD"></stop><stop offset="1" style="stop-color:#5D6EC5"></stop></linearGradient><path style="fill:url(#hair1XMLID_3732_);stroke:#1E1E1E;stroke-linecap:round;stroke-linejoin:round;" d="M223.396,162.24c0,0-11.167,31.713-4.021,57.173c-16.526-7.593-24.566-24.566-20.1-56.28"></path><linearGradient id="hair1XMLID_3733_" gradientUnits="userSpaceOnUse" x1="326.5742" y1="215" x2="326.5742" y2="151.667"><stop offset="0" style="stop-color:#FCFCE4"></stop><stop offset="0.5" style="stop-color:#A0C8DD"></stop><stop offset="1" style="stop-color:#5D6EC5"></stop></linearGradient><path style="fill:url(#hair1XMLID_3733_);stroke:#1E1E1E;stroke-linecap:round;stroke-linejoin:round;" d="M310.941,136.1c2.233,0.894,19.206,11.167,22.333,20.994c3.127,9.826,2.68,20.546,2.68,20.546c0.894,1.786,6.254,12.507,6.254,16.526s-4.913,10.721-4.913,16.08s2.233,16.08,3.126,18.313c-9.826,4.021-20.547,11.614-20.547,11.614s7.594-52.707,1.341-66.555"></path><g><linearGradient id="hair1XMLID_3734_" gradientUnits="userSpaceOnUse" x1="329.7568" y1="215" x2="329.7568" y2="151.6668"><stop offset="0" style="stop-color:#FCFCE4"></stop><stop offset="0.5" style="stop-color:#A0C8DD"></stop><stop offset="1" style="stop-color:#5D6EC5"></stop></linearGradient><path style="fill:url(#hair1XMLID_3734_);stroke:#1E1E1E;stroke-linecap:round;stroke-linejoin:round;" d="M315.408,248.446c0,0,0.446,12.507-0.894,25.46c1.34-4.02,15.187-14.293,19.207-22.333c1.616-3.233,1.57-8.272,0.939-13.259c3.139,7.583,0.847,19.512,0.847,19.512s6.254-1.34,8.934-16.08s-4.913-20.1-9.827-25.014"></path><g><linearGradient id="hair1XMLID_3735_" gradientUnits="userSpaceOnUse" x1="310.5576" y1="215" x2="310.5576" y2="151.667"><stop offset="0" style="stop-color:#FCFCE4"></stop><stop offset="0.5" style="stop-color:#A0C8DD"></stop><stop offset="1" style="stop-color:#5D6EC5"></stop></linearGradient><path style="fill:url(#hair1XMLID_3735_);stroke:#1E1E1E;stroke-linecap:round;stroke-linejoin:round;" d="M311.834,225.221c-0.893,1.34-0.893,24.119-16.079,40.199c2.233,2.68,20.547-4.02,26.354-19.653c5.806-15.634,2.68-33.5-0.447-40.2"></path><linearGradient id="hair1XMLID_3736_" gradientUnits="userSpaceOnUse" x1="309.3789" y1="215" x2="309.3789" y2="151.6671"><stop offset="0" style="stop-color:#FCFCE4"></stop><stop offset="0.5" style="stop-color:#A0C8DD"></stop><stop offset="1" style="stop-color:#5D6EC5"></stop></linearGradient><path style="fill:url(#hair1XMLID_3736_);stroke:#1E1E1E;stroke-linecap:round;stroke-linejoin:round;" d="M309.155,192.836c0,0,0.447,37.074-8.486,46.9c11.166-2.233,15.634-13.847,17.42-18.313"></path></g></g><linearGradient id="hair1XMLID_3737_" gradientUnits="userSpaceOnUse" x1="173.9253" y1="215" x2="173.9253" y2="151.667"><stop offset="0" style="stop-color:#FCFCE4"></stop><stop offset="0.5" style="stop-color:#A0C8DD"></stop><stop offset="1" style="stop-color:#5D6EC5"></stop></linearGradient><path style="fill:url(#hair1XMLID_3737_);stroke:#1E1E1E;stroke-linecap:round;stroke-linejoin:round;" d="M189.559,136.1c-2.232,0.894-19.206,11.167-22.333,20.994c-3.127,9.826-2.68,20.546-2.68,20.546c-0.894,1.786-6.254,12.507-6.254,16.526s4.914,10.721,4.914,16.08s-2.234,16.08-3.127,18.313c9.826,4.021,20.547,11.614,20.547,11.614s-7.594-52.707-1.34-66.555"></path><g><linearGradient id="hair1XMLID_3738_" gradientUnits="userSpaceOnUse" x1="170.7437" y1="215" x2="170.7437" y2="151.6668"><stop offset="0" style="stop-color:#FCFCE4"></stop><stop offset="0.5" style="stop-color:#A0C8DD"></stop><stop offset="1" style="stop-color:#5D6EC5"></stop></linearGradient><path style="fill:url(#hair1XMLID_3738_);stroke:#1E1E1E;stroke-linecap:round;stroke-linejoin:round;" d="M185.092,248.446c0,0-0.446,12.507,0.894,25.46c-1.34-4.02-15.187-14.293-19.206-22.333c-1.617-3.233-1.571-8.272-0.94-13.259c-3.139,7.583-0.847,19.512-0.847,19.512s-6.253-1.34-8.934-16.08c-2.68-14.74,4.913-20.1,9.827-25.014"></path><linearGradient id="hair1XMLID_3739_" gradientUnits="userSpaceOnUse" x1="187.4199" y1="215" x2="187.4199" y2="151.667"><stop offset="0" style="stop-color:#FCFCE4"></stop><stop offset="0.5" style="stop-color:#A0C8DD"></stop><stop offset="1" style="stop-color:#5D6EC5"></stop></linearGradient><path style="fill:url(#hair1XMLID_3739_);stroke:#1E1E1E;stroke-linecap:round;stroke-linejoin:round;" d="M181.75,181.25c-3.127,6.7-15.975,45.756-10.169,61.39c5.807,15.634,30.931,25.46,33.165,22.78c-9.443-9.998-13.014-22.586-14.579-31c2.475,2.477,5.631,4.51,9.664,5.316C182.748,214.946,202,169.25,202,169.25"></path><linearGradient id="hair1XMLID_3740_" gradientUnits="userSpaceOnUse" x1="190.5601" y1="215" x2="190.5601" y2="151.667"><stop offset="0" style="stop-color:#FCFCE4"></stop><stop offset="0.5" style="stop-color:#A0C8DD"></stop><stop offset="1" style="stop-color:#5D6EC5"></stop></linearGradient><path style="fill:url(#hair1XMLID_3740_);stroke:#1E1E1E;stroke-linecap:round;stroke-linejoin:round;" d="M206.421,155.54c0,0-18.759,32.607-21.886,58.066c-16.527-15.633-10.72-50.026,6.253-63.873"></path></g><linearGradient id="hair1XMLID_3741_" gradientUnits="userSpaceOnUse" x1="303.1641" y1="215" x2="303.1641" y2="151.6667"><stop offset="0" style="stop-color:#FCFCE4"></stop><stop offset="0.5" style="stop-color:#A0C8DD"></stop><stop offset="1" style="stop-color:#5D6EC5"></stop></linearGradient><path style="fill:url(#hair1XMLID_3741_);stroke:#1E1E1E;stroke-linecap:round;stroke-linejoin:round;" d="M288.161,161.793c0,0,24.567,33.947,27.247,57.62c4.913-11.613,4.021-40.647-8.934-61.193"></path><linearGradient id="hair1XMLID_3742_" gradientUnits="userSpaceOnUse" x1="280.8164" y1="215" x2="280.8164" y2="151.6668"><stop offset="0" style="stop-color:#FCFCE4"></stop><stop offset="0.5" style="stop-color:#A0C8DD"></stop><stop offset="1" style="stop-color:#5D6EC5"></stop></linearGradient><path style="fill:url(#hair1XMLID_3742_);stroke:#1E1E1E;stroke-linecap:round;stroke-linejoin:round;" d="M289.911,157.344c2.717,9.81,0.483,52.242-16.49,56.263c7.594-26.354-2.671-52.106-2.671-52.106"></path><g><linearGradient id="hair1XMLID_3743_" gradientUnits="userSpaceOnUse" x1="248.3315" y1="215" x2="248.3315" y2="151.667"><stop offset="0" style="stop-color:#FCFCE4"></stop><stop offset="0.5" style="stop-color:#A0C8DD"></stop><stop offset="1" style="stop-color:#5D6EC5"></stop></linearGradient><path style="fill:url(#hair1XMLID_3743_);stroke:#1E1E1E;stroke-linecap:round;stroke-linejoin:round;" d="M225.628,147.053c0,0-22.333,65.212,33.054,94.247c0.446-16.526,0.893-20.547,2.68-25.46s21.44-29.033,11.167-54.94"></path><linearGradient id="hair1XMLID_3744_" gradientUnits="userSpaceOnUse" x1="255.5547" y1="215" x2="255.5547" y2="151.6672"><stop offset="0" style="stop-color:#FCFCE4"></stop><stop offset="0.5" style="stop-color:#A0C8DD"></stop><stop offset="1" style="stop-color:#5D6EC5"></stop></linearGradient><path style="fill:url(#hair1XMLID_3744_);stroke:#1E1E1E;stroke-linecap:round;stroke-linejoin:round;" d="M264.936,196.633c-0.447,1.787-5.361,37.967-18.761,46.453c2.233-13.846,0-23.227,0-23.227"></path></g></g></g></svg>