<svg xmlns="http://www.w3.org/2000/svg" width="500" height="500" version="1.1"><g id="x164"><g><linearGradient id="hair1XMLID_3745_" gradientUnits="userSpaceOnUse" x1="186.123" y1="223.667" x2="186.123" y2="158.0001"><stop offset="0" style="stop-color:#FCFCE4"></stop><stop offset="0.5" style="stop-color:#A0C8DD"></stop><stop offset="1" style="stop-color:#5D6EC5"></stop></linearGradient><path style="fill:url(#hair1XMLID_3745_);stroke:#1E1E1E;stroke-linecap:round;stroke-linejoin:round;" d="M195.728,228.596c0,0-3.574,46.008,5.806,71.467c-12.952-10.719-14.292-16.527-14.292-16.527s1.34,8.934,0.446,7.594c-5.315-7.973-30.134-52.664-7.816-110.773"></path><linearGradient id="hair1XMLID_3746_" gradientUnits="userSpaceOnUse" x1="250.0503" y1="223.667" x2="250.0503" y2="158.0001"><stop offset="0" style="stop-color:#FCFCE4"></stop><stop offset="0.5" style="stop-color:#A0C8DD"></stop><stop offset="1" style="stop-color:#5D6EC5"></stop></linearGradient><path style="fill:url(#hair1XMLID_3746_);stroke:#1E1E1E;stroke-linecap:round;stroke-linejoin:round;" d="M311.534,135.882c-17.021-17.418-41.603-23.852-61.484-20.131c-19.882-3.721-44.464,2.713-61.484,20.131c-13.061,13.365-22.283,30.165-22.283,51.08c0,24.372,15.268,44.372,25.934,48.538c-7.33-33.49-0.484-59.331,5.084-68.5c1.798-2.157,29.369-5.491,52.75-5.619c23.381,0.128,50.952,3.462,52.75,5.619c5.568,9.169,12.414,35.01,5.084,68.5c10.666-4.167,25.934-24.167,25.934-48.538C333.817,166.047,324.595,149.248,311.534,135.882z"></path><g><linearGradient id="hair1XMLID_3747_" gradientUnits="userSpaceOnUse" x1="318.5986" y1="223.667" x2="318.5986" y2="157.9999"><stop offset="0" style="stop-color:#FCFCE4"></stop><stop offset="0.5" style="stop-color:#A0C8DD"></stop><stop offset="1" style="stop-color:#5D6EC5"></stop></linearGradient><path style="fill:url(#hair1XMLID_3747_);stroke:#1E1E1E;stroke-linecap:round;stroke-linejoin:round;" d="M309.308,232.17c0,0-1.786,57.174-10.273,66.105c16.527-6.699,23.228-20.1,24.567-24.566c12.729-24.119,25.732-82.709-1.34-124.843"></path><path style="fill:none;stroke:#1E1E1E;stroke-linecap:round;stroke-linejoin:round;" d="M325.164,237.083c0,0,2.234,35.733-7.593,46.899"></path></g><linearGradient id="hair1XMLID_3748_" gradientUnits="userSpaceOnUse" x1="315.3711" y1="223.667" x2="315.3711" y2="158"><stop offset="0" style="stop-color:#FCFCE4"></stop><stop offset="0.5" style="stop-color:#A0C8DD"></stop><stop offset="1" style="stop-color:#5D6EC5"></stop></linearGradient><path style="fill:url(#hair1XMLID_3748_);stroke:#1E1E1E;stroke-linecap:round;stroke-linejoin:round;" d="M325.932,167.403c8.039,54.94-8.487,72.806-23.228,83.079c12.507-20.1,4.913-62.533,4.913-62.533l-1.786-20.1"></path><linearGradient id="hair1XMLID_3749_" gradientUnits="userSpaceOnUse" x1="302.7578" y1="223.667" x2="302.7578" y2="158.0003"><stop offset="0" style="stop-color:#FCFCE4"></stop><stop offset="0.5" style="stop-color:#A0C8DD"></stop><stop offset="1" style="stop-color:#5D6EC5"></stop></linearGradient><path style="fill:url(#hair1XMLID_3749_);stroke:#1E1E1E;stroke-linecap:round;stroke-linejoin:round;" d="M309.852,160.703c0,0,8.486,40.646-15.634,62.533c8.486-31.267,0.894-61.193,0.894-61.193"></path><linearGradient id="hair1XMLID_3750_" gradientUnits="userSpaceOnUse" x1="284.6133" y1="223.667" x2="284.6133" y2="158.0002"><stop offset="0" style="stop-color:#FCFCE4"></stop><stop offset="0.5" style="stop-color:#A0C8DD"></stop><stop offset="1" style="stop-color:#5D6EC5"></stop></linearGradient><path style="fill:url(#hair1XMLID_3750_);stroke:#1E1E1E;stroke-linecap:round;stroke-linejoin:round;" d="M295.11,161.043c0,0,0,49.134-13.846,57.62c4.02-29.479-7.147-56.727-7.147-56.727"></path><linearGradient id="hair1XMLID_3751_" gradientUnits="userSpaceOnUse" x1="208.5132" y1="223.667" x2="208.5132" y2="158"><stop offset="0" style="stop-color:#FCFCE4"></stop><stop offset="0.5" style="stop-color:#A0C8DD"></stop><stop offset="1" style="stop-color:#5D6EC5"></stop></linearGradient><path style="fill:url(#hair1XMLID_3751_);stroke:#1E1E1E;stroke-linecap:round;stroke-linejoin:round;" d="M242.404,161.596c0,0-4.021,84.42-0.893,91.567c-10.721-4.467-13.848-10.273-16.08-16.526c0,0-1.341,8.486,0,14.293c-9.381-1.34-14.74-8.486-15.188-12.506c0,6.252,0.894,14.739,0.894,17.865c-6.253-2.68-13.4-9.379-15.634-16.525c-1.786,9.826-2.232,12.506-1.34,18.313c-16.526-12.953-30.819-59.406-6.699-105.413"></path><linearGradient id="hair1XMLID_3752_" gradientUnits="userSpaceOnUse" x1="179.0884" y1="223.667" x2="179.0884" y2="158"><stop offset="0" style="stop-color:#FCFCE4"></stop><stop offset="0.5" style="stop-color:#A0C8DD"></stop><stop offset="1" style="stop-color:#5D6EC5"></stop></linearGradient><path style="fill:url(#hair1XMLID_3752_);stroke:#1E1E1E;stroke-linecap:round;stroke-linejoin:round;" d="M199.524,144.176c0,0-35.691,27.824-35.733,100.053c-10.125-31.896-7.291-80.563,26.8-109.88"></path><linearGradient id="hair1XMLID_3753_" gradientUnits="userSpaceOnUse" x1="253.7158" y1="223.667" x2="253.7158" y2="158"><stop offset="0" style="stop-color:#FCFCE4"></stop><stop offset="0.5" style="stop-color:#A0C8DD"></stop><stop offset="1" style="stop-color:#5D6EC5"></stop></linearGradient><path style="fill:url(#hair1XMLID_3753_);stroke:#1E1E1E;stroke-linecap:round;stroke-linejoin:round;" d="M278.138,155.79c1.34,12.06,5.807,36.626-5.807,62.087c-10.446,22.902-12.507,34.393-12.507,34.393s-45.113-25.906-29.033-96.926"></path></g></g></svg>