<svg xmlns="http://www.w3.org/2000/svg" width="500" height="500" version="1.1"><g id="x166"><g><linearGradient id="hair1XMLID_3762_" gradientUnits="userSpaceOnUse" x1="250.0503" y1="218.3335" x2="250.0503" y2="151.3336"><stop offset="0" style="stop-color:#FCFCE4"></stop><stop offset="0.5" style="stop-color:#A0C8DD"></stop><stop offset="1" style="stop-color:#5D6EC5"></stop></linearGradient><path style="fill:url(#hair1XMLID_3762_);stroke:#1E1E1E;stroke-linecap:round;stroke-linejoin:round;" d="M311.534,135.882c-17.021-17.418-41.603-23.852-61.484-20.131c-19.882-3.721-44.464,2.713-61.484,20.131c-13.061,13.365-22.283,30.165-22.283,51.08c0,24.372,15.268,44.372,25.934,48.538c-7.33-33.49-0.484-59.331,5.084-68.5c1.798-2.157,29.369-5.491,52.75-5.619c23.381,0.128,50.952,3.462,52.75,5.619c5.568,9.169,12.414,35.01,5.084,68.5c10.666-4.167,25.934-24.167,25.934-48.538C333.817,166.047,324.595,149.248,311.534,135.882z"></path><g><linearGradient id="hair1XMLID_3763_" gradientUnits="userSpaceOnUse" x1="179.293" y1="218.3335" x2="179.293" y2="151.3337"><stop offset="0" style="stop-color:#FCFCE4"></stop><stop offset="0.5" style="stop-color:#A0C8DD"></stop><stop offset="1" style="stop-color:#5D6EC5"></stop></linearGradient><path style="fill:url(#hair1XMLID_3763_);stroke:#1E1E1E;stroke-linecap:round;stroke-linejoin:round;" d="M163.57,212.07c-14.74,33.945-3.127,46.453,7.593,52.706c-4.466-4.913-4.467-10.273-6.253-23.227c4.913,22.78,28.14,25.46,37.073,19.653c-13.847-4.467-14.293-21.439-14.293-21.439l-1.341-20.547"></path><g><linearGradient id="hair1XMLID_3764_" gradientUnits="userSpaceOnUse" x1="183.291" y1="218.3335" x2="183.291" y2="151.3335"><stop offset="0" style="stop-color:#FCFCE4"></stop><stop offset="0.5" style="stop-color:#A0C8DD"></stop><stop offset="1" style="stop-color:#5D6EC5"></stop></linearGradient><path style="fill:url(#hair1XMLID_3764_);stroke:#1E1E1E;stroke-linecap:round;stroke-linejoin:round;" d="M189.03,205.369c-0.095,0.26-6.254,31.268,8.04,39.307c-7.594,4.467-32.16-5.359-26.8-39.752"></path><linearGradient id="hair1XMLID_3765_" gradientUnits="userSpaceOnUse" x1="160.8896" y1="218.3335" x2="160.8896" y2="151.3335"><stop offset="0" style="stop-color:#FCFCE4"></stop><stop offset="0.5" style="stop-color:#A0C8DD"></stop><stop offset="1" style="stop-color:#5D6EC5"></stop></linearGradient><path style="fill:url(#hair1XMLID_3765_);stroke:#1E1E1E;stroke-linecap:round;stroke-linejoin:round;" d="M175.183,202.243c0,0-7.594,20.1-28.587,8.933c8.934-3.572,18.761-7.146,21.887-25.459"></path></g></g><g><linearGradient id="hair1XMLID_3766_" gradientUnits="userSpaceOnUse" x1="320.7061" y1="218.3335" x2="320.7061" y2="151.3337"><stop offset="0" style="stop-color:#FCFCE4"></stop><stop offset="0.5" style="stop-color:#A0C8DD"></stop><stop offset="1" style="stop-color:#5D6EC5"></stop></linearGradient><path style="fill:url(#hair1XMLID_3766_);stroke:#1E1E1E;stroke-linecap:round;stroke-linejoin:round;" d="M336.43,212.07c14.74,33.945,3.127,46.453-7.594,52.706c4.467-4.913,4.467-10.273,6.254-23.227c-4.914,22.78-28.141,25.46-37.074,19.653c13.848-4.467,14.295-21.439,14.295-21.439l1.34-20.547"></path><g><linearGradient id="hair1XMLID_3767_" gradientUnits="userSpaceOnUse" x1="316.709" y1="218.3335" x2="316.709" y2="151.3335"><stop offset="0" style="stop-color:#FCFCE4"></stop><stop offset="0.5" style="stop-color:#A0C8DD"></stop><stop offset="1" style="stop-color:#5D6EC5"></stop></linearGradient><path style="fill:url(#hair1XMLID_3767_);stroke:#1E1E1E;stroke-linecap:round;stroke-linejoin:round;" d="M310.969,205.369c0.096,0.26,6.254,31.268-8.039,39.307c7.594,4.467,32.16-5.359,26.801-39.752"></path><linearGradient id="hair1XMLID_3768_" gradientUnits="userSpaceOnUse" x1="339.1104" y1="218.3335" x2="339.1104" y2="151.3335"><stop offset="0" style="stop-color:#FCFCE4"></stop><stop offset="0.5" style="stop-color:#A0C8DD"></stop><stop offset="1" style="stop-color:#5D6EC5"></stop></linearGradient><path style="fill:url(#hair1XMLID_3768_);stroke:#1E1E1E;stroke-linecap:round;stroke-linejoin:round;" d="M324.816,202.243c0,0,7.594,20.1,28.588,8.933c-8.936-3.572-18.762-7.146-21.889-25.459"></path></g></g><linearGradient id="hair1XMLID_3769_" gradientUnits="userSpaceOnUse" x1="318.2197" y1="218.3335" x2="318.2197" y2="151.3338"><stop offset="0" style="stop-color:#FCFCE4"></stop><stop offset="0.5" style="stop-color:#A0C8DD"></stop><stop offset="1" style="stop-color:#5D6EC5"></stop></linearGradient><path style="fill:url(#hair1XMLID_3769_);stroke:#1E1E1E;stroke-linecap:round;stroke-linejoin:round;" d="M330.176,173.656c0,0,6.701,48.688-22.779,54.047c9.826-31.268,0.893-51.813-1.787-57.174"></path><linearGradient id="hair1XMLID_3770_" gradientUnits="userSpaceOnUse" x1="292.8418" y1="218.3335" x2="292.8418" y2="151.3338"><stop offset="0" style="stop-color:#FCFCE4"></stop><stop offset="0.5" style="stop-color:#A0C8DD"></stop><stop offset="1" style="stop-color:#5D6EC5"></stop></linearGradient><path style="fill:url(#hair1XMLID_3770_);stroke:#1E1E1E;stroke-linecap:round;stroke-linejoin:round;" d="M318.117,166.51c0,0,8.039,45.561-26.354,55.834c7.594-18.761,3.572-36.627,3.572-36.627s-3.572,25.459-28.586,33.053c13.846-31.713,5.807-57.173,5.807-57.173"></path><linearGradient id="hair1XMLID_3771_" gradientUnits="userSpaceOnUse" x1="227.0288" y1="218.3335" x2="227.0288" y2="151.3335"><stop offset="0" style="stop-color:#FCFCE4"></stop><stop offset="0.5" style="stop-color:#A0C8DD"></stop><stop offset="1" style="stop-color:#5D6EC5"></stop></linearGradient><path style="fill:url(#hair1XMLID_3771_);stroke:#1E1E1E;stroke-linecap:round;stroke-linejoin:round;" d="M275.684,156.683c0,0,3.127,55.833-38.861,67c8.933-12.061,16.527-29.928,16.527-29.928s-18.314,21.887-41.094,24.121c9.827-12.508,20.101-37.074,20.101-37.074s-11.557,18.701-27.246,29.033c-18.314,12.061-17.42,32.607-17.42,32.607s-25.014-39.754,6.699-83.527"></path></g></g></svg>