<svg xmlns="http://www.w3.org/2000/svg" width="500" height="500" version="1.1"><g id="x167"><g><g><linearGradient id="hair1XMLID_3772_" gradientUnits="userSpaceOnUse" x1="250.0503" y1="224.667" x2="250.0503" y2="156"><stop offset="0" style="stop-color:#FCFCE4"></stop><stop offset="0.5" style="stop-color:#A0C8DD"></stop><stop offset="1" style="stop-color:#5D6EC5"></stop></linearGradient><path style="fill:url(#hair1XMLID_3772_);stroke:#1E1E1E;stroke-linecap:round;stroke-linejoin:round;" d="M311.534,135.882c-17.021-17.418-41.603-23.852-61.484-20.131c-19.882-3.721-44.464,2.713-61.484,20.131c-13.061,13.365-22.283,30.165-22.283,51.08c0,24.372,15.268,44.372,25.934,48.538c-7.33-33.49-0.484-59.331,5.084-68.5c1.798-2.157,29.369-5.491,52.75-5.619c23.381,0.128,50.952,3.462,52.75,5.619c5.568,9.169,12.414,35.01,5.084,68.5c10.666-4.167,25.934-24.167,25.934-48.538C333.817,166.047,324.595,149.248,311.534,135.882z"></path></g><g><g><linearGradient id="hair1XMLID_3773_" gradientUnits="userSpaceOnUse" x1="187.2432" y1="224.667" x2="187.2432" y2="156"><stop offset="0" style="stop-color:#FCFCE4"></stop><stop offset="0.5" style="stop-color:#A0C8DD"></stop><stop offset="1" style="stop-color:#5D6EC5"></stop></linearGradient><path style="fill:url(#hair1XMLID_3773_);stroke:#1E1E1E;stroke-linecap:round;stroke-linejoin:round;" d="M194.523,130.29c0,0-21.886,14.74-27.693,34.394c-5.807,19.653-0.446,76.826,5.36,89.778c5.807,12.954,19.207,35.286,37.967,43.772c-8.487-17.865-16.526-46.453-16.526-46.453l-9.381-10.717"></path><linearGradient id="hair1XMLID_3774_" gradientUnits="userSpaceOnUse" x1="190.2803" y1="224.667" x2="190.2803" y2="156.0001"><stop offset="0" style="stop-color:#FCFCE4"></stop><stop offset="0.5" style="stop-color:#A0C8DD"></stop><stop offset="1" style="stop-color:#5D6EC5"></stop></linearGradient><path style="fill:url(#hair1XMLID_3774_);stroke:#1E1E1E;stroke-linecap:round;stroke-linejoin:round;" d="M186.931,216.497c0,0,6.7,30.82,18.76,43.326c-9.827,1.786-26.8-8.932-30.82-23.672"></path></g><g><linearGradient id="hair1XMLID_3775_" gradientUnits="userSpaceOnUse" x1="312.7578" y1="224.667" x2="312.7578" y2="156"><stop offset="0" style="stop-color:#FCFCE4"></stop><stop offset="0.5" style="stop-color:#A0C8DD"></stop><stop offset="1" style="stop-color:#5D6EC5"></stop></linearGradient><path style="fill:url(#hair1XMLID_3775_);stroke:#1E1E1E;stroke-linecap:round;stroke-linejoin:round;" d="M305.477,130.29c0,0,21.887,14.74,27.693,34.394c5.807,19.653,0.446,76.826-5.36,89.778c-5.806,12.954-19.206,35.286-37.966,43.772c8.486-17.865,16.526-46.453,16.526-46.453l6.073-11.165"></path><linearGradient id="hair1XMLID_3776_" gradientUnits="userSpaceOnUse" x1="309.7197" y1="224.667" x2="309.7197" y2="156.0001"><stop offset="0" style="stop-color:#FCFCE4"></stop><stop offset="0.5" style="stop-color:#A0C8DD"></stop><stop offset="1" style="stop-color:#5D6EC5"></stop></linearGradient><path style="fill:url(#hair1XMLID_3776_);stroke:#1E1E1E;stroke-linecap:round;stroke-linejoin:round;" d="M313.069,216.497c0,0-6.699,30.82-18.76,43.326c9.827,1.786,26.8-8.932,30.82-23.672"></path></g></g><linearGradient id="hair1XMLID_3777_" gradientUnits="userSpaceOnUse" x1="210.1187" y1="224.667" x2="210.1187" y2="156"><stop offset="0" style="stop-color:#FCFCE4"></stop><stop offset="0.5" style="stop-color:#A0C8DD"></stop><stop offset="1" style="stop-color:#5D6EC5"></stop></linearGradient><path style="fill:url(#hair1XMLID_3777_);stroke:#1E1E1E;stroke-linecap:round;stroke-linejoin:round;" d="M194.077,148.643c-2.68,1.787-19.207,14.293-17.866,41.093c0.959,19.203,8.933,30.82,14.739,33.947c-1.34-2.234,0.447-16.975,1.787-25.014c0,0,3.573,8.039,8.04,14.293c-0.447-4.02,2.68-16.08,5.807-29.48c0.447,11.614,8.486,20.994,16.08,30.82c-0.446-8.933,4.913-28.14,4.913-28.14l16.526-26.8"></path><g><linearGradient id="hair1XMLID_3778_" gradientUnits="userSpaceOnUse" x1="273.377" y1="224.667" x2="273.377" y2="156"><stop offset="0" style="stop-color:#FCFCE4"></stop><stop offset="0.5" style="stop-color:#A0C8DD"></stop><stop offset="1" style="stop-color:#5D6EC5"></stop></linearGradient><path style="fill:url(#hair1XMLID_3778_);stroke:#1E1E1E;stroke-linecap:round;stroke-linejoin:round;" d="M232.938,154.45c0,0-7.594,23.227-4.914,35.734c2.68,12.506,14.293,24.566,33.5,34.84c1.34-10.721,1.787-26.354,1.787-26.354s4.467,11.166,10.72,14.74c4.467-11.167,4.914-25.461,4.467-28.141c4.467,13.847,16.526,25.014,16.526,25.014s6.254-14.74,4.467-23.227c5.36,13.399,10.721,28.141,11.167,31.267c7.146-7.147,15.633-42.433-0.894-64.32"></path></g></g></g></svg>