<svg xmlns="http://www.w3.org/2000/svg" width="500" height="500" version="1.1"><g id="x168"><g><g><linearGradient id="hair1XMLID_3779_" gradientUnits="userSpaceOnUse" x1="250.0503" y1="217.667" x2="250.0503" y2="157.667"><stop offset="0" style="stop-color:#FCFCE4"></stop><stop offset="0.5" style="stop-color:#A0C8DD"></stop><stop offset="1" style="stop-color:#5D6EC5"></stop></linearGradient><path style="fill:url(#hair1XMLID_3779_);stroke:#1E1E1E;stroke-linecap:round;stroke-linejoin:round;" d="M311.534,135.882c-17.021-17.418-41.603-23.852-61.484-20.131c-19.882-3.721-44.464,2.713-61.484,20.131c-13.061,13.365-22.283,30.165-22.283,51.08c0,24.372,15.268,44.372,25.934,48.538c-7.33-33.49-0.484-59.331,5.084-68.5c1.798-2.157,29.369-5.491,52.75-5.619c23.381,0.128,50.952,3.462,52.75,5.619c5.568,9.169,12.414,35.01,5.084,68.5c10.666-4.167,25.934-24.167,25.934-48.538C333.817,166.047,324.595,149.248,311.534,135.882z"></path></g><linearGradient id="hair1XMLID_3780_" gradientUnits="userSpaceOnUse" x1="171.7246" y1="217.667" x2="171.7246" y2="157.667"><stop offset="0" style="stop-color:#FCFCE4"></stop><stop offset="0.5" style="stop-color:#A0C8DD"></stop><stop offset="1" style="stop-color:#5D6EC5"></stop></linearGradient><path style="fill:url(#hair1XMLID_3780_);stroke:#1E1E1E;stroke-linecap:round;stroke-linejoin:round;" d="M181.828,153.003c-1.787,1.787-17.644,19.653-20.77,40.647c-3.128,20.992,8.04,31.713,8.04,31.713s-2.681-25.014,0.446-36.627c3.126-11.613,13.399-28.14,13.399-28.14"></path><linearGradient id="hair1XMLID_3781_" gradientUnits="userSpaceOnUse" x1="188.9624" y1="217.667" x2="188.9624" y2="157.667"><stop offset="0" style="stop-color:#FCFCE4"></stop><stop offset="0.5" style="stop-color:#A0C8DD"></stop><stop offset="1" style="stop-color:#5D6EC5"></stop></linearGradient><path style="fill:url(#hair1XMLID_3781_);stroke:#1E1E1E;stroke-linecap:round;stroke-linejoin:round;" d="M210.19,163.276c0,0-13.399,16.974-14.739,43.327c-1.34,26.353-12.061,39.752,7.594,50.92c-20.994-5.807-32.16-29.033-26.354-65.66c-5.359,16.526-3.572,38.413-0.446,48.24c-10.72-15.188-13.847-57.174,5.807-86.654"></path><linearGradient id="hair1XMLID_3782_" gradientUnits="userSpaceOnUse" x1="211.6411" y1="217.667" x2="211.6411" y2="157.6672"><stop offset="0" style="stop-color:#FCFCE4"></stop><stop offset="0.5" style="stop-color:#A0C8DD"></stop><stop offset="1" style="stop-color:#5D6EC5"></stop></linearGradient><path style="fill:url(#hair1XMLID_3782_);stroke:#1E1E1E;stroke-linecap:round;stroke-linejoin:round;" d="M223.479,162.495c0,0-11.055,29.48-14.629,55.275c-7.593-10.273-14.292-38.525-3.126-58.625"></path><linearGradient id="hair1XMLID_3783_" gradientUnits="userSpaceOnUse" x1="306.1094" y1="217.667" x2="306.1094" y2="157.667"><stop offset="0" style="stop-color:#FCFCE4"></stop><stop offset="0.5" style="stop-color:#A0C8DD"></stop><stop offset="1" style="stop-color:#5D6EC5"></stop></linearGradient><path style="fill:url(#hair1XMLID_3783_);stroke:#1E1E1E;stroke-linecap:round;stroke-linejoin:round;" d="M272.725,155.253l3.127,12.456c0,0,14.963,7.674,27.207,26.426c2.416,8.408,8.674,33.354,1.491,44.404c5.75-1.742,9.685-5.664,12.045-10.72c0.754,3.812,1.331,7.827,1.689,12.061c10.721-4.021,14.74-21.663,12.061-41.601c0,0,5.36,15.474,3.127,24.531c8.933-10.566,12.506-47.027-22.78-73.381"></path><linearGradient id="hair1XMLID_3784_" gradientUnits="userSpaceOnUse" x1="255.7588" y1="217.667" x2="255.7588" y2="157.667"><stop offset="0" style="stop-color:#FCFCE4"></stop><stop offset="0.5" style="stop-color:#A0C8DD"></stop><stop offset="1" style="stop-color:#5D6EC5"></stop></linearGradient><path style="fill:url(#hair1XMLID_3784_);stroke:#1E1E1E;stroke-linecap:round;stroke-linejoin:round;" d="M227.237,153.003c0,0-17.236,31.937,4.282,65.437c0.319-10.852,0.404-27.977,0.412-29.57c-0.004,1.797,0.296,23.596,16.629,32.586c4.696,4.689,7.336,15.074,7.336,15.074s6.98-2.447,12.277-14.82c2.514,2.105,5.603,4.117,9.241,5.441c-1.347-4.789-2.425-9.641-3.208-13.548c3.723,6.319,9.104,6.747,16.607,7.853c-8.51-10.051-17.129-43.885-15.075-68.675"></path></g></g></svg>