<svg xmlns="http://www.w3.org/2000/svg" width="500" height="500" version="1.1"><g id="x169"><g><g><linearGradient id="hair1XMLID_3785_" gradientUnits="userSpaceOnUse" x1="250.0503" y1="225" x2="250.0503" y2="153.667"><stop offset="0" style="stop-color:#FCFCE4"></stop><stop offset="0.5" style="stop-color:#A0C8DD"></stop><stop offset="1" style="stop-color:#5D6EC5"></stop></linearGradient><path style="fill:url(#hair1XMLID_3785_);stroke:#1E1E1E;stroke-linecap:round;stroke-linejoin:round;" d="M311.534,135.882c-17.021-17.418-41.603-23.852-61.484-20.131c-19.882-3.721-44.464,2.713-61.484,20.131c-13.061,13.365-22.283,30.165-22.283,51.08c0,24.372,15.268,44.372,25.934,48.538c-7.33-33.49-0.484-59.331,5.084-68.5c1.798-2.157,29.369-5.491,52.75-5.619c23.381,0.128,50.952,3.462,52.75,5.619c5.568,9.169,12.414,35.01,5.084,68.5c10.666-4.167,25.934-24.167,25.934-48.538C333.817,166.047,324.595,149.248,311.534,135.882z"></path></g><g><g><linearGradient id="hair1XMLID_3786_" gradientUnits="userSpaceOnUse" x1="172.1128" y1="225" x2="172.1128" y2="153.667"><stop offset="0" style="stop-color:#FCFCE4"></stop><stop offset="0.5" style="stop-color:#A0C8DD"></stop><stop offset="1" style="stop-color:#5D6EC5"></stop></linearGradient><path style="fill:url(#hair1XMLID_3786_);stroke:#1E1E1E;stroke-linecap:round;stroke-linejoin:round;" d="M173.659,173.535c0,0-9.045,10.385-9.38,39.865c-5.36-15.076-4.689-42.211,18.425-71.021"></path><linearGradient id="hair1XMLID_3787_" gradientUnits="userSpaceOnUse" x1="180.2896" y1="225" x2="180.2896" y2="153.6672"><stop offset="0" style="stop-color:#FCFCE4"></stop><stop offset="0.5" style="stop-color:#A0C8DD"></stop><stop offset="1" style="stop-color:#5D6EC5"></stop></linearGradient><path style="fill:url(#hair1XMLID_3787_);stroke:#1E1E1E;stroke-linecap:round;stroke-linejoin:round;" d="M194.095,192.416c0,0-9.38,17.979-6.7,42.434c-13.065-2.345-32.16-38.189-12.396-70.015"></path><linearGradient id="hair1XMLID_3788_" gradientUnits="userSpaceOnUse" x1="201.6167" y1="225" x2="201.6167" y2="153.6671"><stop offset="0" style="stop-color:#FCFCE4"></stop><stop offset="0.5" style="stop-color:#A0C8DD"></stop><stop offset="1" style="stop-color:#5D6EC5"></stop></linearGradient><path style="fill:url(#hair1XMLID_3788_);stroke:#1E1E1E;stroke-linecap:round;stroke-linejoin:round;" d="M216.874,162.49c0,0-21.774,21.105-18.09,54.94c-9.38-8.375-19.43-30.484-5.694-51.59"></path><linearGradient id="hair1XMLID_3789_" gradientUnits="userSpaceOnUse" x1="327.8867" y1="225" x2="327.8867" y2="153.667"><stop offset="0" style="stop-color:#FCFCE4"></stop><stop offset="0.5" style="stop-color:#A0C8DD"></stop><stop offset="1" style="stop-color:#5D6EC5"></stop></linearGradient><path style="fill:url(#hair1XMLID_3789_);stroke:#1E1E1E;stroke-linecap:round;stroke-linejoin:round;" d="M326.341,173.535c0,0,9.045,10.385,9.38,39.865c5.36-15.076,4.69-42.211-18.425-71.021"></path><linearGradient id="hair1XMLID_3790_" gradientUnits="userSpaceOnUse" x1="319.7109" y1="225" x2="319.7109" y2="153.6672"><stop offset="0" style="stop-color:#FCFCE4"></stop><stop offset="0.5" style="stop-color:#A0C8DD"></stop><stop offset="1" style="stop-color:#5D6EC5"></stop></linearGradient><path style="fill:url(#hair1XMLID_3790_);stroke:#1E1E1E;stroke-linecap:round;stroke-linejoin:round;" d="M305.906,192.416c0,0,9.38,17.979,6.699,42.434c13.065-2.345,32.16-38.189,12.396-70.015"></path><linearGradient id="hair1XMLID_3791_" gradientUnits="userSpaceOnUse" x1="298.3828" y1="225" x2="298.3828" y2="153.6671"><stop offset="0" style="stop-color:#FCFCE4"></stop><stop offset="0.5" style="stop-color:#A0C8DD"></stop><stop offset="1" style="stop-color:#5D6EC5"></stop></linearGradient><path style="fill:url(#hair1XMLID_3791_);stroke:#1E1E1E;stroke-linecap:round;stroke-linejoin:round;" d="M283.126,162.49c0,0,21.774,21.105,18.09,54.94c9.38-8.375,19.43-30.484,5.695-51.59"></path></g><linearGradient id="hair1XMLID_3792_" gradientUnits="userSpaceOnUse" x1="250.0005" y1="225" x2="250.0005" y2="153.667"><stop offset="0" style="stop-color:#FCFCE4"></stop><stop offset="0.5" style="stop-color:#A0C8DD"></stop><stop offset="1" style="stop-color:#5D6EC5"></stop></linearGradient><path style="fill:url(#hair1XMLID_3792_);stroke:#1E1E1E;stroke-linecap:round;stroke-linejoin:round;" d="M215.496,160.145c-8.71,15.745-5.695,35.176,4.02,43.215c-7.37-19.765,7.705-39.53,14.07-38.525c6.365,1.005,16.413,1.675,16.413,1.675s10.05-0.67,16.415-1.675c6.364-1.005,21.439,18.76,14.069,38.525c9.716-8.039,12.73-27.47,4.021-43.215"></path></g></g></g></svg>