<svg xmlns="http://www.w3.org/2000/svg" width="500" height="500" version="1.1"><g id="x017"><g><linearGradient id="hair1XMLID_2545_" gradientUnits="userSpaceOnUse" x1="250.0005" y1="220.3335" x2="250.0005" y2="179.667"><stop offset="0" style="stop-color:#FCFCE4"></stop><stop offset="0.5" style="stop-color:#A0C8DD"></stop><stop offset="1" style="stop-color:#5D6EC5"></stop></linearGradient><path style="fill:url(#hair1XMLID_2545_);stroke:#1E1E1E;stroke-linecap:round;stroke-linejoin:round;" d="M311.484,135.882c-17.021-17.418-41.603-23.852-61.484-20.131c-19.882-3.721-44.464,2.713-61.484,20.131c-13.061,13.365-22.283,30.165-22.283,51.08c0,24.372,15.268,44.372,25.934,48.538c-7.33-33.49-0.484-59.331,5.084-68.5c1.798-2.157,29.369-5.491,52.75-5.619c23.381,0.128,50.952,3.462,52.75,5.619c5.568,9.169,12.414,35.01,5.084,68.5c10.666-4.167,25.934-24.167,25.934-48.538C333.768,166.047,324.545,149.248,311.484,135.882z"></path><g><g><g><g><path style="fill:none;stroke:#1E1E1E;stroke-linecap:round;stroke-linejoin:round;" d="M298.903,159.271c7.736,6.286,26.112,22.725,23.696,59.957"></path></g></g><g><linearGradient id="hair1XMLID_2546_" gradientUnits="userSpaceOnUse" x1="253.9102" y1="223.1665" x2="253.9102" y2="156.1665"><stop offset="0" style="stop-color:#FCFCE4"></stop><stop offset="0.5" style="stop-color:#A0C8DD"></stop><stop offset="1" style="stop-color:#5D6EC5"></stop></linearGradient><path style="fill:url(#hair1XMLID_2546_);stroke:#1E1E1E;stroke-linecap:round;stroke-linejoin:round;" d="M212.313,136.59c-24.352,9.741-29.146,31.826-31.49,48.575c-2.806,20.042,5.599,50.745,11.838,57.732c0.67-35.958,13.957-64.098,13.957-64.098l63.314-8.71c0,0,10.945,1.351,29.034,32.605c1.963,3.392,7.146,12.955,7.146,24.566c2.231-4.043,5.81-9.379,6.701-19.207c3.779,3.549,8.488,6.7,14.74,17.867c-0.526-0.803-4.402-35.963-5.36-40.757c-6.699-33.5-31.283-45.531-41.206-48.575"></path><linearGradient id="hair1XMLID_2547_" gradientUnits="userSpaceOnUse" x1="283.0313" y1="223.1665" x2="283.0313" y2="156.1664"><stop offset="0" style="stop-color:#FCFCE4"></stop><stop offset="0.5" style="stop-color:#A0C8DD"></stop><stop offset="1" style="stop-color:#5D6EC5"></stop></linearGradient><path style="fill:url(#hair1XMLID_2547_);stroke:#1E1E1E;stroke-linecap:round;stroke-linejoin:round;" d="M266.313,169.085c5.025,7.035,23.785,30.485,23.45,57.285c10.05-10.72,14.405-39.865,4.021-54.94"></path></g></g><linearGradient id="hair1XMLID_2548_" gradientUnits="userSpaceOnUse" x1="211.3232" y1="223.166" x2="211.3232" y2="156.1663"><stop offset="0" style="stop-color:#FCFCE4"></stop><stop offset="0.5" style="stop-color:#A0C8DD"></stop><stop offset="1" style="stop-color:#5D6EC5"></stop></linearGradient><path style="fill:url(#hair1XMLID_2548_);stroke:#1E1E1E;stroke-linecap:round;stroke-linejoin:round;" d="M198.131,167.857c-10.72,20.436-6.03,44.221,4.02,54.939c-0.163-13.105,4.245-25.395,9.375-35.371c-0.138,7.069,1.24,15.251,6.147,23.313c0.893-12.955,12.953-33.5,12.953-35.288"></path><linearGradient id="hair1XMLID_2549_" gradientUnits="userSpaceOnUse" x1="253.1924" y1="223.167" x2="253.1924" y2="156.1664"><stop offset="0" style="stop-color:#FCFCE4"></stop><stop offset="0.5" style="stop-color:#A0C8DD"></stop><stop offset="1" style="stop-color:#5D6EC5"></stop></linearGradient><path style="fill:url(#hair1XMLID_2549_);stroke:#1E1E1E;stroke-linecap:round;stroke-linejoin:round;" d="M226.161,153.565c0,0-5.361,22.78-4.468,29.479c0.894,6.7,4.914,18.313,12.06,25.013c-0.446-4.913,1.788-13.399,1.788-13.399s5.805,11.611,15.632,17.42c-2.68-11.613-1.339-21.889-0.893-24.121c1.34,8.934,6.7,19.208,7.146,24.121c4.913-10.273,7.594-12.061,7.594-22.781c0-10.719-4.021-20.1-4.021-20.1s6.7,12.061,9.826,15.633s10.273,17.87,10.72,22.335c2.681-9.827,4.468-25.46,2.234-33.948c-2.234-8.486-8.04-20.546-8.04-20.546"></path></g></g><g><g><path style="fill:#FFF0DE;" d="M184.506,181.536c0,0,5.852-11.712,8.195-12.295c2.342-0.585-0.816,19.084-4.1,18.149C185.529,186.513,183.334,184.318,184.506,181.536z"></path><path style="fill:#FFF0DE;" d="M193.869,186.217c0,0,0.45-7.659,2.929-9.365c2.478-1.707,1.757,11.708,0,11.708C195.041,188.56,193.869,189.145,193.869,186.217z"></path><path style="fill:#FFF0DE;" d="M316.744,181.536c0,0-5.853-11.712-8.195-12.295c-2.343-0.585,0.816,19.084,4.1,18.149C315.721,186.513,317.915,184.318,316.744,181.536z"></path><path style="fill:#FFF0DE;" d="M308.631,186.217c0,0-0.451-7.659-2.93-9.365c-2.478-1.707-1.756,11.708,0,11.708C307.459,188.56,308.631,189.145,308.631,186.217z"></path></g><path style="fill:#FFF0DE;" d="M242.828,184.97c0,0,0-11.417,2.635-14.489c2.631-3.074,6.058,14.753,3.074,16.245C245.901,188.044,242.828,188.044,242.828,184.97z"></path><path style="fill:#FFF0DE;" d="M252.489,184.97c-1.761-2.196,0-10.1,0.876-11.417c0.879-1.317,4.391,10.098,2.635,12.294C253.736,188.676,254.244,187.165,252.489,184.97z"></path></g></g></svg>