<svg xmlns="http://www.w3.org/2000/svg" width="500" height="500" version="1.1"><g id="x170"><g><g><linearGradient id="hair1XMLID_3793_" gradientUnits="userSpaceOnUse" x1="250.0503" y1="223" x2="250.0503" y2="154"><stop offset="0" style="stop-color:#FCFCE4"></stop><stop offset="0.5" style="stop-color:#A0C8DD"></stop><stop offset="1" style="stop-color:#5D6EC5"></stop></linearGradient><path style="fill:url(#hair1XMLID_3793_);stroke:#1E1E1E;stroke-linecap:round;stroke-linejoin:round;" d="M311.534,135.882c-17.021-17.418-41.603-23.852-61.484-20.131c-19.882-3.721-44.464,2.713-61.484,20.131c-13.061,13.365-22.283,30.165-22.283,51.08c0,24.372,15.268,44.372,25.934,48.538c-7.33-33.49-0.484-59.331,5.084-68.5c1.798-2.157,29.369-5.491,52.75-5.619c23.381,0.128,50.952,3.462,52.75,5.619c5.568,9.169,12.414,35.01,5.084,68.5c10.666-4.167,25.934-24.167,25.934-48.538C333.817,166.047,324.595,149.248,311.534,135.882z"></path></g><g><linearGradient id="hair1XMLID_3794_" gradientUnits="userSpaceOnUse" x1="161.1831" y1="223" x2="161.1831" y2="154.0002"><stop offset="0" style="stop-color:#FCFCE4"></stop><stop offset="0.5" style="stop-color:#A0C8DD"></stop><stop offset="1" style="stop-color:#5D6EC5"></stop></linearGradient><path style="fill:url(#hair1XMLID_3794_);stroke:#1E1E1E;stroke-linecap:round;stroke-linejoin:round;" d="M171.979,159.75c0,0-13.106,38.473-21.593,45.174c6.253-0.447,19.652-10.273,19.652-10.273"></path><linearGradient id="hair1XMLID_3795_" gradientUnits="userSpaceOnUse" x1="338.8164" y1="223" x2="338.8164" y2="154.0002"><stop offset="0" style="stop-color:#FCFCE4"></stop><stop offset="0.5" style="stop-color:#A0C8DD"></stop><stop offset="1" style="stop-color:#5D6EC5"></stop></linearGradient><path style="fill:url(#hair1XMLID_3795_);stroke:#1E1E1E;stroke-linecap:round;stroke-linejoin:round;" d="M328.021,159.75c0,0,13.106,38.473,21.593,45.174c-6.253-0.447-19.652-10.273-19.652-10.273"></path></g><g><linearGradient id="hair1XMLID_3796_" gradientUnits="userSpaceOnUse" x1="182.6577" y1="223" x2="182.6577" y2="154"><stop offset="0" style="stop-color:#FCFCE4"></stop><stop offset="0.5" style="stop-color:#A0C8DD"></stop><stop offset="1" style="stop-color:#5D6EC5"></stop></linearGradient><path style="fill:url(#hair1XMLID_3796_);stroke:#1E1E1E;stroke-linecap:round;stroke-linejoin:round;" d="M169.489,177.676c0,0-16.975,31.268,1.34,67c5.806,27.248,21.886,43.326,32.16,48.24c-20.994-39.307-18.761-100.5-11.167-128.64"></path><path style="fill:none;stroke:#1E1E1E;stroke-linecap:round;stroke-linejoin:round;" d="M168.889,210.176c0,0-0.895,26.354,2.68,37.521"></path></g><linearGradient id="hair1XMLID_3797_" gradientUnits="userSpaceOnUse" x1="190.0854" y1="223" x2="190.0854" y2="154"><stop offset="0" style="stop-color:#FCFCE4"></stop><stop offset="0.5" style="stop-color:#A0C8DD"></stop><stop offset="1" style="stop-color:#5D6EC5"></stop></linearGradient><path style="fill:url(#hair1XMLID_3797_);stroke:#1E1E1E;stroke-linecap:round;stroke-linejoin:round;" d="M202.989,163.83c-0.447,1.34-16.975,32.606-10.274,78.167c-17.42-12.506-20.1-51.366-8.486-81.293"></path><g><linearGradient id="hair1XMLID_3798_" gradientUnits="userSpaceOnUse" x1="317.3428" y1="223" x2="317.3428" y2="154"><stop offset="0" style="stop-color:#FCFCE4"></stop><stop offset="0.5" style="stop-color:#A0C8DD"></stop><stop offset="1" style="stop-color:#5D6EC5"></stop></linearGradient><path style="fill:url(#hair1XMLID_3798_);stroke:#1E1E1E;stroke-linecap:round;stroke-linejoin:round;" d="M330.512,177.676c0,0,16.974,31.268-1.341,67c-5.806,27.248-21.886,43.326-32.159,48.24c20.993-39.307,18.76-100.5,11.166-128.64"></path><path style="fill:none;stroke:#1E1E1E;stroke-linecap:round;stroke-linejoin:round;" d="M331.014,210.175c0,0,0.894,26.354-2.681,37.521"></path></g><linearGradient id="hair1XMLID_3799_" gradientUnits="userSpaceOnUse" x1="309.915" y1="223" x2="309.915" y2="154"><stop offset="0" style="stop-color:#FCFCE4"></stop><stop offset="0.5" style="stop-color:#A0C8DD"></stop><stop offset="1" style="stop-color:#5D6EC5"></stop></linearGradient><path style="fill:url(#hair1XMLID_3799_);stroke:#1E1E1E;stroke-linecap:round;stroke-linejoin:round;" d="M297.012,163.83c0.446,1.34,16.974,32.606,10.273,78.167c17.42-12.506,20.1-51.366,8.486-81.293"></path><linearGradient id="hair1XMLID_3800_" gradientUnits="userSpaceOnUse" x1="210.8604" y1="223" x2="210.8604" y2="154.0002"><stop offset="0" style="stop-color:#FCFCE4"></stop><stop offset="0.5" style="stop-color:#A0C8DD"></stop><stop offset="1" style="stop-color:#5D6EC5"></stop></linearGradient><path style="fill:url(#hair1XMLID_3800_);stroke:#1E1E1E;stroke-linecap:round;stroke-linejoin:round;" d="M221.749,160.256c0,0-10.274,20.994-13.4,56.28c-8.934-9.38-12.06-32.606-2.68-61.193"></path><linearGradient id="hair1XMLID_3801_" gradientUnits="userSpaceOnUse" x1="299.1973" y1="223" x2="299.1973" y2="154.0002"><stop offset="0" style="stop-color:#FCFCE4"></stop><stop offset="0.5" style="stop-color:#A0C8DD"></stop><stop offset="1" style="stop-color:#5D6EC5"></stop></linearGradient><path style="fill:url(#hair1XMLID_3801_);stroke:#1E1E1E;stroke-linecap:round;stroke-linejoin:round;" d="M283.836,161.596c0,0,7.593,41.093,22.333,54.046c10.72-17.42,11.167-41.539,1.34-59.406"></path><linearGradient id="hair1XMLID_3802_" gradientUnits="userSpaceOnUse" x1="279.7588" y1="223" x2="279.7588" y2="153.9999"><stop offset="0" style="stop-color:#FCFCE4"></stop><stop offset="0.5" style="stop-color:#A0C8DD"></stop><stop offset="1" style="stop-color:#5D6EC5"></stop></linearGradient><path style="fill:url(#hair1XMLID_3802_);stroke:#1E1E1E;stroke-linecap:round;stroke-linejoin:round;" d="M269.542,160.703c0,0,13.847,36.18,15.187,54.939c5.808-9.379,7.146-46.006,2.233-56.279"></path><linearGradient id="hair1XMLID_3803_" gradientUnits="userSpaceOnUse" x1="244.8501" y1="223" x2="244.8501" y2="154"><stop offset="0" style="stop-color:#FCFCE4"></stop><stop offset="0.5" style="stop-color:#A0C8DD"></stop><stop offset="1" style="stop-color:#5D6EC5"></stop></linearGradient><path style="fill:url(#hair1XMLID_3803_);stroke:#1E1E1E;stroke-linecap:round;stroke-linejoin:round;" d="M221.302,153.11c0,0-14.74,40.646,6.7,67.447c-2.68-20.547-1.787-29.927-1.787-29.927s4.021,25.46,12.507,33.054c12.954,3.126,25.907,4.02,25.907,4.02l-3.127-10.721l6.254,8.487c0,0,11.613-37.073,1.34-69.233"></path></g></g></svg>