<svg xmlns="http://www.w3.org/2000/svg" width="500" height="500" version="1.1"><g id="x173"><g><g><g><linearGradient id="hair1XMLID_3823_" gradientUnits="userSpaceOnUse" x1="250.0503" y1="208.3335" x2="250.0503" y2="158.667"><stop offset="0" style="stop-color:#FCFCE4"></stop><stop offset="0.5" style="stop-color:#A0C8DD"></stop><stop offset="1" style="stop-color:#5D6EC5"></stop></linearGradient><path style="fill:url(#hair1XMLID_3823_);stroke:#1E1E1E;stroke-linecap:round;stroke-linejoin:round;" d="M311.534,135.882c-17.021-17.418-41.603-23.852-61.484-20.131c-19.882-3.721-44.464,2.713-61.484,20.131c-13.061,13.365-22.283,30.165-22.283,51.08c0,24.372,15.268,44.372,25.934,48.538c-7.33-33.49-0.484-59.331,5.084-68.5c1.798-2.157,29.369-5.491,52.75-5.619c23.381,0.128,50.952,3.462,52.75,5.619c5.568,9.169,12.414,35.01,5.084,68.5c10.666-4.167,25.934-24.167,25.934-48.538C333.817,166.047,324.595,149.248,311.534,135.882z"></path></g><linearGradient id="hair1XMLID_3824_" gradientUnits="userSpaceOnUse" x1="198.1699" y1="208.3335" x2="198.1699" y2="158.6669"><stop offset="0" style="stop-color:#FCFCE4"></stop><stop offset="0.5" style="stop-color:#A0C8DD"></stop><stop offset="1" style="stop-color:#5D6EC5"></stop></linearGradient><path style="fill:url(#hair1XMLID_3824_);stroke:#1E1E1E;stroke-linecap:round;stroke-linejoin:round;" d="M192.695,136.379c-12.045,4.38-26.28-1.095-29.931-8.396c12.045,2.556,30.295-8.76,40.15-14.234c9.854-5.475,21.535-1.095,21.535-1.095l9.125,6.204"></path><linearGradient id="hair1XMLID_3825_" gradientUnits="userSpaceOnUse" x1="288.6025" y1="208.3335" x2="288.6025" y2="158.667"><stop offset="0" style="stop-color:#FCFCE4"></stop><stop offset="0.5" style="stop-color:#A0C8DD"></stop><stop offset="1" style="stop-color:#5D6EC5"></stop></linearGradient><path style="fill:url(#hair1XMLID_3825_);stroke:#1E1E1E;stroke-linecap:round;stroke-linejoin:round;" d="M260.775,113.019c0,0,13.314-7.664,24.994-4.379c11.681,3.284,25.915,10.949,30.66,9.125c-9.49,4.379-24.805,13.14-36.85,8.395"></path><g><g><linearGradient id="hair1XMLID_3826_" gradientUnits="userSpaceOnUse" x1="164.0068" y1="208.3335" x2="164.0068" y2="158.667"><stop offset="0" style="stop-color:#FCFCE4"></stop><stop offset="0.5" style="stop-color:#A0C8DD"></stop><stop offset="1" style="stop-color:#5D6EC5"></stop></linearGradient><path style="fill:url(#hair1XMLID_3826_);stroke:#1E1E1E;stroke-linecap:round;stroke-linejoin:round;" d="M187.002,140.394c0,0-11.315,7.301-20.44,19.346s-19.345,15.33-25.55,15.33c8.76,6.935,24.455,9.125,34.675,2.92"></path><linearGradient id="hair1XMLID_3827_" gradientUnits="userSpaceOnUse" x1="160.5396" y1="208.3335" x2="160.5396" y2="158.6669"><stop offset="0" style="stop-color:#FCFCE4"></stop><stop offset="0.5" style="stop-color:#A0C8DD"></stop><stop offset="1" style="stop-color:#5D6EC5"></stop></linearGradient><path style="fill:url(#hair1XMLID_3827_);stroke:#1E1E1E;stroke-linecap:round;stroke-linejoin:round;" d="M166.562,180.179c0,0-16.06,10.586-17.52,25.551c14.234-11.315,22.995-11.315,22.995-11.315"></path><linearGradient id="hair1XMLID_3828_" gradientUnits="userSpaceOnUse" x1="166.1968" y1="208.3335" x2="166.1968" y2="158.6669"><stop offset="0" style="stop-color:#FCFCE4"></stop><stop offset="0.5" style="stop-color:#A0C8DD"></stop><stop offset="1" style="stop-color:#5D6EC5"></stop></linearGradient><path style="fill:url(#hair1XMLID_3828_);stroke:#1E1E1E;stroke-linecap:round;stroke-linejoin:round;" d="M180.797,214.49c0,0-14.965,22.265-29.2,22.994c9.125-11.314,13.505-29.564,12.775-45.989"></path><linearGradient id="hair1XMLID_3829_" gradientUnits="userSpaceOnUse" x1="178.4243" y1="208.3335" x2="178.4243" y2="158.667"><stop offset="0" style="stop-color:#FCFCE4"></stop><stop offset="0.5" style="stop-color:#A0C8DD"></stop><stop offset="1" style="stop-color:#5D6EC5"></stop></linearGradient><path style="fill:url(#hair1XMLID_3829_);stroke:#1E1E1E;stroke-linecap:round;stroke-linejoin:round;" d="M197.587,181.64c0,0-10.22,29.564-2.555,50.004c-7.301-7.299-10.221-21.899-10.221-21.899s-3.649,25.185,7.3,36.864c-13.869-6.935-23.359-15.694-23.359-41.244c0,0-4.016,17.154-16.425,17.154c7.665-6.935,10.585-21.535,11.68-32.484c1.095-10.95,7.3-48.18,40.515-58.4"></path><linearGradient id="hair1XMLID_3830_" gradientUnits="userSpaceOnUse" x1="228.209" y1="208.3335" x2="228.209" y2="158.667"><stop offset="0" style="stop-color:#FCFCE4"></stop><stop offset="0.5" style="stop-color:#A0C8DD"></stop><stop offset="1" style="stop-color:#5D6EC5"></stop></linearGradient><path style="fill:url(#hair1XMLID_3830_);stroke:#1E1E1E;stroke-linecap:round;stroke-linejoin:round;" d="M200.142,153.169c0,0-8.245,16.258-7.3,32.484c0.729,12.508,8.988,23.361,17.885,36.865c-2.555-13.869-4.38-32.85-4.38-32.85s6.936,18.98,24.455,28.471c-7.3-20.44-3.65-49.275-3.65-49.275c0,1.824,2.556,49.275,36.5,55.845c-14.234-18.25-3.284-58.83-3.284-58.83"></path></g><g><linearGradient id="hair1XMLID_3831_" gradientUnits="userSpaceOnUse" x1="335.9941" y1="208.3335" x2="335.9941" y2="158.667"><stop offset="0" style="stop-color:#FCFCE4"></stop><stop offset="0.5" style="stop-color:#A0C8DD"></stop><stop offset="1" style="stop-color:#5D6EC5"></stop></linearGradient><path style="fill:url(#hair1XMLID_3831_);stroke:#1E1E1E;stroke-linecap:round;stroke-linejoin:round;" d="M313,140.394c0,0,11.314,7.301,20.439,19.346c9.124,12.045,19.344,15.33,25.549,15.33c-8.76,6.935-24.454,9.125-34.674,2.92"></path><linearGradient id="hair1XMLID_3832_" gradientUnits="userSpaceOnUse" x1="339.4609" y1="208.3335" x2="339.4609" y2="158.6669"><stop offset="0" style="stop-color:#FCFCE4"></stop><stop offset="0.5" style="stop-color:#A0C8DD"></stop><stop offset="1" style="stop-color:#5D6EC5"></stop></linearGradient><path style="fill:url(#hair1XMLID_3832_);stroke:#1E1E1E;stroke-linecap:round;stroke-linejoin:round;" d="M333.439,180.179c0,0,16.059,10.586,17.519,25.551c-14.233-11.315-22.993-11.315-22.993-11.315"></path><linearGradient id="hair1XMLID_3833_" gradientUnits="userSpaceOnUse" x1="333.8037" y1="208.3335" x2="333.8037" y2="158.6669"><stop offset="0" style="stop-color:#FCFCE4"></stop><stop offset="0.5" style="stop-color:#A0C8DD"></stop><stop offset="1" style="stop-color:#5D6EC5"></stop></linearGradient><path style="fill:url(#hair1XMLID_3833_);stroke:#1E1E1E;stroke-linecap:round;stroke-linejoin:round;" d="M319.204,214.49c0,0,14.966,22.265,29.199,22.994c-9.124-11.314-13.504-29.564-12.773-45.989"></path><linearGradient id="hair1XMLID_3834_" gradientUnits="userSpaceOnUse" x1="321.5762" y1="208.3335" x2="321.5762" y2="158.667"><stop offset="0" style="stop-color:#FCFCE4"></stop><stop offset="0.5" style="stop-color:#A0C8DD"></stop><stop offset="1" style="stop-color:#5D6EC5"></stop></linearGradient><path style="fill:url(#hair1XMLID_3834_);stroke:#1E1E1E;stroke-linecap:round;stroke-linejoin:round;" d="M302.414,181.64c0,0,10.221,29.564,2.556,50.004c7.3-7.299,10.22-21.899,10.22-21.899s3.65,25.185-7.3,36.864c13.87-6.935,23.36-15.694,23.36-41.244c0,0,4.015,17.154,16.423,17.154c-7.663-6.935-10.583-21.535-11.679-32.484c-1.095-10.95-7.3-48.18-40.515-58.4"></path><linearGradient id="hair1XMLID_3835_" gradientUnits="userSpaceOnUse" x1="288.2168" y1="208.3335" x2="288.2168" y2="158.667"><stop offset="0" style="stop-color:#FCFCE4"></stop><stop offset="0.5" style="stop-color:#A0C8DD"></stop><stop offset="1" style="stop-color:#5D6EC5"></stop></linearGradient><path style="fill:url(#hair1XMLID_3835_);stroke:#1E1E1E;stroke-linecap:round;stroke-linejoin:round;" d="M299.859,153.169c0,0,8.245,16.258,7.3,32.484c-0.729,12.508-8.987,23.361-17.885,36.865c2.555-13.869,4.38-32.85,4.38-32.85s-6.935,18.98-24.455,28.471c7.301-20.44,2.301-57.39,2.301-57.39"></path><linearGradient id="hair1XMLID_3836_" gradientUnits="userSpaceOnUse" x1="255.9727" y1="208.3335" x2="255.9727" y2="158.667"><stop offset="0" style="stop-color:#FCFCE4"></stop><stop offset="0.5" style="stop-color:#A0C8DD"></stop><stop offset="1" style="stop-color:#5D6EC5"></stop></linearGradient><path style="fill:url(#hair1XMLID_3836_);stroke:#1E1E1E;stroke-linecap:round;stroke-linejoin:round;" d="M271,159.75c0,0,13.75,20.75,2.725,46.709c-0.364-7.3-3.649-20.806-3.649-20.806s-2.556,36.865-36.136,41.246c13.87-21.535,9.49-47.815,1.096-69.351"></path></g></g></g><linearGradient id="hair1XMLID_3837_" gradientUnits="userSpaceOnUse" x1="231.5269" y1="208.3335" x2="231.5269" y2="158.667"><stop offset="0" style="stop-color:#FCFCE4"></stop><stop offset="0.5" style="stop-color:#A0C8DD"></stop><stop offset="1" style="stop-color:#5D6EC5"></stop></linearGradient><path style="fill:url(#hair1XMLID_3837_);stroke:#1E1E1E;stroke-linecap:round;stroke-linejoin:round;" d="M246.715,114.845c0,0-0.729-7.301-10.585-10.221c-9.854-2.92-17.885-6.936-19.71-10.95c-0.73,11.315,3.285,21.9,18.615,25.55"></path><linearGradient id="hair1XMLID_3838_" gradientUnits="userSpaceOnUse" x1="257.8457" y1="208.3335" x2="257.8457" y2="158.667"><stop offset="0" style="stop-color:#FCFCE4"></stop><stop offset="0.5" style="stop-color:#A0C8DD"></stop><stop offset="1" style="stop-color:#5D6EC5"></stop></linearGradient><path style="fill:url(#hair1XMLID_3838_);stroke:#1E1E1E;stroke-linecap:round;stroke-linejoin:round;" d="M245.255,117.035c0,0-0.365-9.855,9.855-13.87c10.22-4.015,14.234-8.396,15.329-12.774c-0.729,16.789-0.729,24.455-15.329,28.834"></path><linearGradient id="hair1XMLID_3839_" gradientUnits="userSpaceOnUse" x1="261.3301" y1="208.3335" x2="261.3301" y2="158.6671"><stop offset="0" style="stop-color:#FCFCE4"></stop><stop offset="0.5" style="stop-color:#A0C8DD"></stop><stop offset="1" style="stop-color:#5D6EC5"></stop></linearGradient><path style="fill:url(#hair1XMLID_3839_);stroke:#1E1E1E;stroke-linecap:round;stroke-linejoin:round;" d="M255.11,118.495c0,0,19.345,5.84,20.074,21.17c0.73,15.33-12.045,23.36-12.045,23.36c2.556-23.726-15.694-36.5-15.694-36.5"></path></g></g></svg>