<svg xmlns="http://www.w3.org/2000/svg" width="500" height="500" version="1.1"><g id="x175"><g><g><linearGradient id="hair1XMLID_3853_" gradientUnits="userSpaceOnUse" x1="250.0503" y1="229.3335" x2="250.0503" y2="164.3336"><stop offset="0" style="stop-color:#FCFCE4"></stop><stop offset="0.5" style="stop-color:#A0C8DD"></stop><stop offset="1" style="stop-color:#5D6EC5"></stop></linearGradient><path style="fill:url(#hair1XMLID_3853_);stroke:#1E1E1E;stroke-linecap:round;stroke-linejoin:round;" d="M311.534,135.882c-17.021-17.418-41.603-23.852-61.484-20.131c-19.882-3.721-44.464,2.713-61.484,20.131c-13.061,13.365-22.283,30.165-22.283,51.08c0,24.372,15.268,44.372,25.934,48.538c-7.33-33.49-0.484-59.331,5.084-68.5c1.798-2.157,29.369-5.491,52.75-5.619c23.381,0.128,50.952,3.462,52.75,5.619c5.568,9.169,12.414,35.01,5.084,68.5c10.666-4.167,25.934-24.167,25.934-48.538C333.817,166.047,324.595,149.248,311.534,135.882z"></path></g><path style="fill:none;stroke:#1E1E1E;stroke-linecap:round;stroke-linejoin:round;" d="M214.426,128.99c0,0,10.385-0.67,19.095,6.03"></path><path style="fill:none;stroke:#1E1E1E;stroke-linecap:round;stroke-linejoin:round;" d="M180.591,145.74c0,0-30.485,43.885-8.04,81.07"></path><linearGradient id="hair1XMLID_3854_" gradientUnits="userSpaceOnUse" x1="184.5718" y1="229.3335" x2="184.5718" y2="164.3335"><stop offset="0" style="stop-color:#FCFCE4"></stop><stop offset="0.5" style="stop-color:#A0C8DD"></stop><stop offset="1" style="stop-color:#5D6EC5"></stop></linearGradient><path style="fill:url(#hair1XMLID_3854_);stroke:#1E1E1E;stroke-linecap:round;stroke-linejoin:round;" d="M195.461,184.951c-2.449,20.461-3.103,46.557,4.202,68.658c-11.248-7.705-16.073-29.479-18.737-41.539c-2.345,6.364,1.34,19.43-5.695,34.17c-1.005-13.735-7.369-34.506-5.359-56.615c1.682-18.498,5.521-44.555,19.729-54.605"></path><linearGradient id="hair1XMLID_3855_" gradientUnits="userSpaceOnUse" x1="211.7622" y1="229.3335" x2="211.7622" y2="164.3335"><stop offset="0" style="stop-color:#FCFCE4"></stop><stop offset="0.5" style="stop-color:#A0C8DD"></stop><stop offset="1" style="stop-color:#5D6EC5"></stop></linearGradient><path style="fill:url(#hair1XMLID_3855_);stroke:#1E1E1E;stroke-linecap:round;stroke-linejoin:round;" d="M236.536,160.524c0,0-10.05-8.375-12.73-7.705c-3.265,1.741-18.425,26.13-11.725,49.58c-8.04-6.365-9.045-24.455-7.37-36.18c0,0-12.395,28.811-2.68,60.635c-16.75-17.754-16.75-38.189-13.065-61.305"></path><linearGradient id="hair1XMLID_3856_" gradientUnits="userSpaceOnUse" x1="288.0273" y1="229.3335" x2="288.0273" y2="164.3335"><stop offset="0" style="stop-color:#FCFCE4"></stop><stop offset="0.5" style="stop-color:#A0C8DD"></stop><stop offset="1" style="stop-color:#5D6EC5"></stop></linearGradient><path style="fill:url(#hair1XMLID_3856_);stroke:#1E1E1E;stroke-linecap:round;stroke-linejoin:round;" d="M264.676,161.155c0,0,9.38,54.94,44.891,64.99c4.689-20.1,0.335-51.925-13.735-75.71"></path><linearGradient id="hair1XMLID_3857_" gradientUnits="userSpaceOnUse" x1="268.6963" y1="229.3335" x2="268.6963" y2="164.3337"><stop offset="0" style="stop-color:#FCFCE4"></stop><stop offset="0.5" style="stop-color:#A0C8DD"></stop><stop offset="1" style="stop-color:#5D6EC5"></stop></linearGradient><path style="fill:url(#hair1XMLID_3857_);stroke:#1E1E1E;stroke-linecap:round;stroke-linejoin:round;" d="M252.616,160.485c0,0,6.7,49.58,32.16,60.3c-15.745-20.101-19.766-60.635-19.766-60.635"></path><linearGradient id="hair1XMLID_3858_" gradientUnits="userSpaceOnUse" x1="249.7686" y1="229.3335" x2="249.7686" y2="164.3335"><stop offset="0" style="stop-color:#FCFCE4"></stop><stop offset="0.5" style="stop-color:#A0C8DD"></stop><stop offset="1" style="stop-color:#5D6EC5"></stop></linearGradient><path style="fill:url(#hair1XMLID_3858_);stroke:#1E1E1E;stroke-linecap:round;stroke-linejoin:round;" d="M234.526,132.005c0,0-16.415,73.03,17.085,100.165c-7.322-15.029-6.708-14.42-13.4-40.87c0,0,5.025,32.159,30.82,43.885c-7.705-24.455-16.415-62.31-15.075-80.4"></path><g><linearGradient id="hair1XMLID_3859_" gradientUnits="userSpaceOnUse" x1="314.0879" y1="229.3335" x2="314.0879" y2="164.3335"><stop offset="0" style="stop-color:#FCFCE4"></stop><stop offset="0.5" style="stop-color:#A0C8DD"></stop><stop offset="1" style="stop-color:#5D6EC5"></stop></linearGradient><path style="fill:url(#hair1XMLID_3859_);stroke:#1E1E1E;stroke-linecap:round;stroke-linejoin:round;" d="M292.48,150.095c0,0,16.872,59.63,2.368,103.515c11.248-7.705,16.073-29.479,18.737-41.539c2.345,6.364,0,22.109-3.346,33.164c11.386-9.045,13.256-25.795,14.735-39.529c-0.296,11.39,4.8,15.744,10.721,20.1c-6.559-14.139-6.132-32.045-6.7-36.516c-2.345-18.424-9.875-44.219-24.084-54.27"></path></g></g></g></svg>