<svg xmlns="http://www.w3.org/2000/svg" width="500" height="500" version="1.1"><g id="x176"><g><g><linearGradient id="hair1XMLID_3860_" gradientUnits="userSpaceOnUse" x1="250.0503" y1="219.3335" x2="250.0503" y2="156.9999"><stop offset="0" style="stop-color:#FCFCE4"></stop><stop offset="0.5" style="stop-color:#A0C8DD"></stop><stop offset="1" style="stop-color:#5D6EC5"></stop></linearGradient><path style="fill:url(#hair1XMLID_3860_);stroke:#1E1E1E;stroke-linecap:round;stroke-linejoin:round;" d="M311.534,135.882c-17.021-17.418-41.603-23.852-61.484-20.131c-19.882-3.721-44.464,2.713-61.484,20.131c-13.061,13.365-22.283,30.165-22.283,51.08c0,24.372,15.268,44.372,25.934,48.538c-7.33-33.49-0.484-59.331,5.084-68.5c1.798-2.157,29.369-5.491,52.75-5.619c23.381,0.128,50.952,3.462,52.75,5.619c5.568,9.169,12.414,35.01,5.084,68.5c10.666-4.167,25.934-24.167,25.934-48.538C333.817,166.047,324.595,149.248,311.534,135.882z"></path></g><linearGradient id="hair1XMLID_3861_" gradientUnits="userSpaceOnUse" x1="255.8223" y1="219.3335" x2="255.8223" y2="156.9999"><stop offset="0" style="stop-color:#FCFCE4"></stop><stop offset="0.5" style="stop-color:#A0C8DD"></stop><stop offset="1" style="stop-color:#5D6EC5"></stop></linearGradient><path style="fill:url(#hair1XMLID_3861_);stroke:#1E1E1E;stroke-linecap:round;stroke-linejoin:round;" d="M296.933,155.13c9.38,8.375,17.42,36.85,18.425,50.92c-13.735-1.341-23.115-11.726-23.115-11.726s-1.005,2.346,5.025,6.365c-15.075-0.67-28.811-14.74-28.811-14.74s0.671,2.346,4.355,5.36c-11.39-1.34-25.125-10.385-25.125-10.385s0.67,2.68,3.015,6.03c-23.114-7.705-31.154-28.14-31.154-28.14s-15.745,28.474-14.405,41.875c-7.37-7.705-10.05-22.779-8.375-37.52"></path><g><g><linearGradient id="hair1XMLID_3862_" gradientUnits="userSpaceOnUse" x1="291.7178" y1="219.3335" x2="291.7178" y2="157"><stop offset="0" style="stop-color:#FCFCE4"></stop><stop offset="0.5" style="stop-color:#A0C8DD"></stop><stop offset="1" style="stop-color:#5D6EC5"></stop></linearGradient><path style="fill:url(#hair1XMLID_3862_);stroke:#1E1E1E;stroke-linecap:round;stroke-linejoin:round;" d="M248.692,115.6c2.345-2.01,15.142-3.772,33.5,1.34c26.465,7.37,61.28,43.55,50.561,87.769c-1.006-22.779-11.391-44.554-11.391-44.554"></path><linearGradient id="hair1XMLID_3863_" gradientUnits="userSpaceOnUse" x1="322.5605" y1="219.3335" x2="322.5605" y2="156.9999"><stop offset="0" style="stop-color:#FCFCE4"></stop><stop offset="0.5" style="stop-color:#A0C8DD"></stop><stop offset="1" style="stop-color:#5D6EC5"></stop></linearGradient><path style="fill:url(#hair1XMLID_3863_);stroke:#1E1E1E;stroke-linecap:round;stroke-linejoin:round;" d="M312.678,224.8c1.005,0,3.685,8.04,19.765,5.024c-10.72-7.035-13.064-19.095-14.07-23.785"></path><linearGradient id="hair1XMLID_3864_" gradientUnits="userSpaceOnUse" x1="320.7178" y1="219.3335" x2="320.7178" y2="157"><stop offset="0" style="stop-color:#FCFCE4"></stop><stop offset="0.5" style="stop-color:#A0C8DD"></stop><stop offset="1" style="stop-color:#5D6EC5"></stop></linearGradient><path style="fill:url(#hair1XMLID_3864_);stroke:#1E1E1E;stroke-linecap:round;stroke-linejoin:round;" d="M308.992,204.029c0,0,14.405,12.73,23.785,12.396c-8.375-6.03-12.395-11.726-12.395-11.726s4.689,4.021,16.75,2.01c-9.716-4.689-17.755-19.094-18.761-29.479c-1.005-10.385-6.364-23.115-14.069-26.8"></path><g><linearGradient id="hair1XMLID_3865_" gradientUnits="userSpaceOnUse" x1="298.4453" y1="219.3335" x2="298.4453" y2="157"><stop offset="0" style="stop-color:#FCFCE4"></stop><stop offset="0.5" style="stop-color:#A0C8DD"></stop><stop offset="1" style="stop-color:#5D6EC5"></stop></linearGradient><path style="fill:url(#hair1XMLID_3865_);stroke:#1E1E1E;stroke-linecap:round;stroke-linejoin:round;" d="M279.178,142.055c1.005,0.67,13.064,5.025,18.76,20.435c5.695,15.411,0.67,92.459,0.67,100.834s4.355,17.756,2.68,33.5c14.74-24.455,10.721-40.535,13.4-64.99c2.68-24.454,7.37-69.344-6.03-82.744"></path></g></g><g><linearGradient id="hair1XMLID_3866_" gradientUnits="userSpaceOnUse" x1="205.7798" y1="219.3335" x2="205.7798" y2="157"><stop offset="0" style="stop-color:#FCFCE4"></stop><stop offset="0.5" style="stop-color:#A0C8DD"></stop><stop offset="1" style="stop-color:#5D6EC5"></stop></linearGradient><path style="fill:url(#hair1XMLID_3866_);stroke:#1E1E1E;stroke-linecap:round;stroke-linejoin:round;" d="M248.692,115.6c-2.345-2.01-15.142-3.772-33.5,1.34c-26.465,7.37-58.625,48.91-51.255,94.804c1.005-22.779,9.715-39.864,9.715-39.864s-12.06,36.18,0,51.925c2.345-19.096,8.375-36.516,8.375-36.516"></path><linearGradient id="hair1XMLID_3867_" gradientUnits="userSpaceOnUse" x1="174.8247" y1="219.3335" x2="174.8247" y2="156.9999"><stop offset="0" style="stop-color:#FCFCE4"></stop><stop offset="0.5" style="stop-color:#A0C8DD"></stop><stop offset="1" style="stop-color:#5D6EC5"></stop></linearGradient><path style="fill:url(#hair1XMLID_3867_);stroke:#1E1E1E;stroke-linecap:round;stroke-linejoin:round;" d="M184.707,224.8c-1.005,0-3.685,8.04-19.765,5.024c10.72-7.035,13.065-19.095,14.07-23.785"></path><g><linearGradient id="hair1XMLID_3868_" gradientUnits="userSpaceOnUse" x1="198.9395" y1="219.3335" x2="198.9395" y2="157"><stop offset="0" style="stop-color:#FCFCE4"></stop><stop offset="0.5" style="stop-color:#A0C8DD"></stop><stop offset="1" style="stop-color:#5D6EC5"></stop></linearGradient><path style="fill:url(#hair1XMLID_3868_);stroke:#1E1E1E;stroke-linecap:round;stroke-linejoin:round;" d="M218.207,142.055c-1.005,0.67-13.064,5.025-18.76,20.435c-5.694,15.411-0.67,92.459-0.67,100.834s-4.354,17.756-2.68,33.5c-14.74-24.455-10.72-40.535-13.4-64.99c-2.68-24.454-7.37-69.344,6.03-82.744"></path></g></g></g></g></g></svg>