<svg xmlns="http://www.w3.org/2000/svg" width="500" height="500" version="1.1"><g id="x179"><g><g><linearGradient id="hair1XMLID_3892_" gradientUnits="userSpaceOnUse" x1="250.0503" y1="214.667" x2="250.0503" y2="151.3335"><stop offset="0" style="stop-color:#FCFCE4"></stop><stop offset="0.5" style="stop-color:#A0C8DD"></stop><stop offset="1" style="stop-color:#5D6EC5"></stop></linearGradient><path style="fill:url(#hair1XMLID_3892_);stroke:#1E1E1E;stroke-linecap:round;stroke-linejoin:round;" d="M311.534,135.882c-17.021-17.418-41.603-23.852-61.484-20.131c-19.882-3.721-44.464,2.713-61.484,20.131c-13.061,13.365-22.283,30.165-22.283,51.08c0,24.372,15.268,44.372,25.934,48.538c-7.33-33.49-0.484-59.331,5.084-68.5c1.798-2.157,29.369-5.491,52.75-5.619c23.381,0.128,50.952,3.462,52.75,5.619c5.568,9.169,12.414,35.01,5.084,68.5c10.666-4.167,25.934-24.167,25.934-48.538C333.817,166.047,324.595,149.248,311.534,135.882z"></path></g><linearGradient id="hair1XMLID_3893_" gradientUnits="userSpaceOnUse" x1="181.7241" y1="214.667" x2="181.7241" y2="151.3336"><stop offset="0" style="stop-color:#FCFCE4"></stop><stop offset="0.5" style="stop-color:#A0C8DD"></stop><stop offset="1" style="stop-color:#5D6EC5"></stop></linearGradient><path style="fill:url(#hair1XMLID_3893_);stroke:#1E1E1E;stroke-linecap:round;stroke-linejoin:round;" d="M186.08,154.854c0,0-11.613,5.36-24.344,5.36c6.7-5.137,39.977-35.063,39.977-35.063"></path><linearGradient id="hair1XMLID_3894_" gradientUnits="userSpaceOnUse" x1="193.6514" y1="214.667" x2="193.6514" y2="151.3335"><stop offset="0" style="stop-color:#FCFCE4"></stop><stop offset="0.5" style="stop-color:#A0C8DD"></stop><stop offset="1" style="stop-color:#5D6EC5"></stop></linearGradient><path style="fill:url(#hair1XMLID_3894_);stroke:#1E1E1E;stroke-linecap:round;stroke-linejoin:round;" d="M179.38,146.368c-18.537,24.12-29.034,72.137-14.294,92.906c1.117-8.263,1.787-23.45,1.787-23.45s-0.67,19.43,12.507,30.597c0.223-8.04,1.563-20.771,3.126-31.044c0.894,5.137,5.36,20.324,15.41,27.247c-2.01-3.127-4.243-25.907-0.224-44.22c3.573-14.293,25.46-29.703,25.46-29.703l6.029-14.963"></path><linearGradient id="hair1XMLID_3895_" gradientUnits="userSpaceOnUse" x1="308.123" y1="214.667" x2="308.123" y2="151.3332"><stop offset="0" style="stop-color:#FCFCE4"></stop><stop offset="0.5" style="stop-color:#A0C8DD"></stop><stop offset="1" style="stop-color:#5D6EC5"></stop></linearGradient><path style="fill:url(#hair1XMLID_3895_);stroke:#1E1E1E;stroke-linecap:round;stroke-linejoin:round;" d="M289.704,178.305c0,0,11.613,20.546,11.167,40.2c6.699-13.4,8.04-21.887,8.04-21.887s-1.787,29.927-7.147,38.86c12.954-8.04,28.141-33.947,24.12-56.727"></path><linearGradient id="hair1XMLID_3896_" gradientUnits="userSpaceOnUse" x1="326.8223" y1="214.667" x2="326.8223" y2="151.3335"><stop offset="0" style="stop-color:#FCFCE4"></stop><stop offset="0.5" style="stop-color:#A0C8DD"></stop><stop offset="1" style="stop-color:#5D6EC5"></stop></linearGradient><path style="fill:url(#hair1XMLID_3896_);stroke:#1E1E1E;stroke-linecap:round;stroke-linejoin:round;" d="M330.798,195.278c0,0,2.01,9.156,16.08,8.933c-8.71-8.71-10.365-27.881-15.634-41.54c-6.03-15.633-14.07-25.46-24.477-30.82"></path><linearGradient id="hair1XMLID_3897_" gradientUnits="userSpaceOnUse" x1="328.4863" y1="214.667" x2="328.4863" y2="151.3335"><stop offset="0" style="stop-color:#FCFCE4"></stop><stop offset="0.5" style="stop-color:#A0C8DD"></stop><stop offset="1" style="stop-color:#5D6EC5"></stop></linearGradient><path style="fill:url(#hair1XMLID_3897_);stroke:#1E1E1E;stroke-linecap:round;stroke-linejoin:round;" d="M327.224,210.018c0,0-0.893,18.313-5.806,28.586c13.399-6.7,19.653-58.066,8.04-71.913"></path><linearGradient id="hair1XMLID_3898_" gradientUnits="userSpaceOnUse" x1="294.6377" y1="214.667" x2="294.6377" y2="151.3335"><stop offset="0" style="stop-color:#FCFCE4"></stop><stop offset="0.5" style="stop-color:#A0C8DD"></stop><stop offset="1" style="stop-color:#5D6EC5"></stop></linearGradient><path style="fill:url(#hair1XMLID_3898_);stroke:#1E1E1E;stroke-linecap:round;stroke-linejoin:round;" d="M321.864,161.778c14.293,41.763-7.146,65.66-20.101,73.7c5.36-8.933,7.147-38.86,7.147-38.86s-0.67,9.827-7.37,23.227c0.268-11.803-4.482-25.261-7.785-33.064c-0.324,10.072-0.032,22.568-6.732,31.501c-0.893-22.333-21.439-45.56-21.886-46.899l-2.457-14.964"></path><linearGradient id="hair1XMLID_3899_" gradientUnits="userSpaceOnUse" x1="243.8589" y1="214.667" x2="243.8589" y2="151.3335"><stop offset="0" style="stop-color:#FCFCE4"></stop><stop offset="0.5" style="stop-color:#A0C8DD"></stop><stop offset="1" style="stop-color:#5D6EC5"></stop></linearGradient><path style="fill:url(#hair1XMLID_3899_);stroke:#1E1E1E;stroke-linecap:round;stroke-linejoin:round;" d="M231.64,139.892c0,0-14.294,23.673-10.72,46.006c2.611,16.325,10.272,34.84,22.779,38.86c-2.233-8.04-5.359-13.399-5.359-13.399s8.933,17.196,23.67,21.216c-4.02-3.796-7.593-12.283-7.593-12.283s8.933,5.137,12.953,6.477c-3.127-8.934-3.862-26.181-2.233-34.617c3.796-19.653-0.001-36.403-0.894-38.19"></path><linearGradient id="hair1XMLID_3900_" gradientUnits="userSpaceOnUse" x1="256.4102" y1="214.667" x2="256.4102" y2="151.3337"><stop offset="0" style="stop-color:#FCFCE4"></stop><stop offset="0.5" style="stop-color:#A0C8DD"></stop><stop offset="1" style="stop-color:#5D6EC5"></stop></linearGradient><path style="fill:url(#hair1XMLID_3900_);stroke:#1E1E1E;stroke-linecap:round;stroke-linejoin:round;" d="M240.015,177.97c0,0-2.458,38.86,32.827,52.483c-17.196-14.07-24.117-48.687-24.117-48.687"></path><path style="fill:none;stroke:#1E1E1E;stroke-linecap:round;stroke-linejoin:round;" d="M234.32,133.415c0,0,8.933-6.923,16.08-9.38c4.018-0.894,14.738,14.07,14.514,14.74"></path><path style="fill:none;stroke:#1E1E1E;stroke-linecap:round;stroke-linejoin:round;" d="M200.374,177.412c0,0-3.127,13.176-3.351,24.79"></path><linearGradient id="hair1XMLID_3901_" gradientUnits="userSpaceOnUse" x1="186.5259" y1="214.667" x2="186.5259" y2="151.3334"><stop offset="0" style="stop-color:#FCFCE4"></stop><stop offset="0.5" style="stop-color:#A0C8DD"></stop><stop offset="1" style="stop-color:#5D6EC5"></stop></linearGradient><path style="fill:url(#hair1XMLID_3901_);stroke:#1E1E1E;stroke-linecap:round;stroke-linejoin:round;" d="M202.382,159.545c0,0-16.526,31.49-31.713,34.617c11.167-11.614,20.547-38.414,20.547-38.414"></path><linearGradient id="hair1XMLID_3902_" gradientUnits="userSpaceOnUse" x1="313.1533" y1="214.667" x2="313.1533" y2="151.3334"><stop offset="0" style="stop-color:#FCFCE4"></stop><stop offset="0.5" style="stop-color:#A0C8DD"></stop><stop offset="1" style="stop-color:#5D6EC5"></stop></linearGradient><path style="fill:url(#hair1XMLID_3902_);stroke:#1E1E1E;stroke-linecap:round;stroke-linejoin:round;" d="M297.297,162.225c0,0,16.527,31.49,31.713,34.617c-10.496-17.42-20.546-38.414-20.546-38.414"></path><path style="fill:none;stroke:#1E1E1E;stroke-linecap:round;stroke-linejoin:round;" d="M195.682,148.602c0-0.67,11.168-20.101,27.918-23.897"></path></g></g></svg>