<svg xmlns="http://www.w3.org/2000/svg" width="500" height="500" version="1.1"><g id="x018"><g><linearGradient id="hair1XMLID_2550_" gradientUnits="userSpaceOnUse" x1="250.0005" y1="223.667" x2="250.0005" y2="169.3335"><stop offset="0" style="stop-color:#FCFCE4"></stop><stop offset="0.5" style="stop-color:#A0C8DD"></stop><stop offset="1" style="stop-color:#5D6EC5"></stop></linearGradient><path style="fill:url(#hair1XMLID_2550_);stroke:#1E1E1E;stroke-linecap:round;stroke-linejoin:round;" d="M311.484,135.882c-17.021-17.418-41.603-23.852-61.484-20.131c-19.882-3.721-44.464,2.713-61.484,20.131c-13.061,13.365-22.283,30.165-22.283,51.08c0,24.372,15.268,44.372,25.934,48.538c-7.33-33.49-0.484-59.331,5.084-68.5c1.798-2.157,29.369-5.491,52.75-5.619c23.381,0.128,50.952,3.462,52.75,5.619c5.568,9.169,12.414,35.01,5.084,68.5c10.666-4.167,25.934-24.167,25.934-48.538C333.768,166.047,324.545,149.248,311.484,135.882z"></path><g><g><linearGradient id="hair1XMLID_2551_" gradientUnits="userSpaceOnUse" x1="249.2505" y1="223.1665" x2="249.2505" y2="156.1665"><stop offset="0" style="stop-color:#FCFCE4"></stop><stop offset="0.5" style="stop-color:#A0C8DD"></stop><stop offset="1" style="stop-color:#5D6EC5"></stop></linearGradient><path style="fill:url(#hair1XMLID_2551_);stroke:#1E1E1E;stroke-linecap:round;stroke-linejoin:round;" d="M212.313,136.59c-26.149,10.642-35.404,28.881-36.732,47.308c-2.574,34.434,13.359,54.832,17.08,58.999c-3.574-20.101-3.447-38.044,1.34-51.364c0.962,8.082,1.783,15.601,5.806,21.885c-0.77-11.027,3.127-34.84,20.547-47.345l59.406,3.572c0,0,34.395,32.16,25.013,69.121c2.229-4.045,18.427-23.785,18.427-42.881c0-34.162-32.289-56.25-42.212-59.294"></path><linearGradient id="hair1XMLID_2552_" gradientUnits="userSpaceOnUse" x1="249.2407" y1="223.1665" x2="249.2407" y2="156.1664"><stop offset="0" style="stop-color:#FCFCE4"></stop><stop offset="0.5" style="stop-color:#A0C8DD"></stop><stop offset="1" style="stop-color:#5D6EC5"></stop></linearGradient><path style="fill:url(#hair1XMLID_2552_);stroke:#1E1E1E;stroke-linecap:round;stroke-linejoin:round;" d="M219.014,162.72c0,0-7.056,23.889,23.784,53.264c2.011-9.379-3.35-23.784-3.35-23.784s12.06,21.104,14.404,28.475c2.345-9.38,7.035-19.765,6.365-28.475c3.35,8.04,6.365,19.43,7.37,28.475c4.02-8.71,15.074-37.521,12.06-53.935"></path></g></g></g><g><g><path style="fill:#FFF0DE;" d="M178.006,181.536c0,0,5.852-11.712,8.195-12.295c2.342-0.585-0.816,19.084-4.1,18.149C179.029,186.513,176.834,184.318,178.006,181.536z"></path><path style="fill:#FFF0DE;" d="M186.119,186.217c0,0,0.45-7.659,2.929-9.365c2.478-1.707,1.757,11.708,0,11.708C187.291,188.56,186.119,189.145,186.119,186.217z"></path><path style="fill:#FFF0DE;" d="M315.494,181.536c0,0-5.853-11.712-8.195-12.295c-2.343-0.585,0.816,19.084,4.1,18.149C314.471,186.513,316.665,184.318,315.494,181.536z"></path><path style="fill:#FFF0DE;" d="M307.381,186.217c0,0-0.451-7.659-2.93-9.365c-2.478-1.707-1.756,11.708,0,11.708C306.209,188.56,307.381,189.145,307.381,186.217z"></path></g><path style="fill:#FFF0DE;" d="M242.828,187.72c0,0,0-11.417,2.635-14.489c2.631-3.074,6.058,14.753,3.074,16.245C245.901,190.794,242.828,190.794,242.828,187.72z"></path><path style="fill:#FFF0DE;" d="M252.489,187.72c-1.761-2.196,0-10.1,0.876-11.417c0.879-1.317,4.391,10.098,2.635,12.294C253.736,191.426,254.244,189.915,252.489,187.72z"></path></g></g></svg>