<svg xmlns="http://www.w3.org/2000/svg" width="500" height="500" version="1.1"><g id="x184"><g><g><linearGradient id="hair1XMLID_3944_" gradientUnits="userSpaceOnUse" x1="250.0503" y1="235" x2="250.0503" y2="174.6669"><stop offset="0" style="stop-color:#FCFCE4"></stop><stop offset="0.5" style="stop-color:#A0C8DD"></stop><stop offset="1" style="stop-color:#5D6EC5"></stop></linearGradient><path style="fill:url(#hair1XMLID_3944_);stroke:#1E1E1E;stroke-linecap:round;stroke-linejoin:round;" d="M311.534,135.882c-17.021-17.418-41.603-23.852-61.484-20.131c-19.882-3.721-44.464,2.713-61.484,20.131c-13.061,13.365-22.283,30.165-22.283,51.08c0,24.372,15.268,44.372,25.934,48.538c-7.33-33.49-0.484-59.331,5.084-68.5c1.798-2.157,29.369-5.491,52.75-5.619c23.381,0.128,50.952,3.462,52.75,5.619c5.568,9.169,12.414,35.01,5.084,68.5c10.666-4.167,25.934-24.167,25.934-48.538C333.817,166.047,324.595,149.248,311.534,135.882z"></path></g><g><g><linearGradient id="hair1XMLID_3945_" gradientUnits="userSpaceOnUse" x1="333.4629" y1="235" x2="333.4629" y2="174.6672"><stop offset="0" style="stop-color:#FCFCE4"></stop><stop offset="0.5" style="stop-color:#A0C8DD"></stop><stop offset="1" style="stop-color:#5D6EC5"></stop></linearGradient><path style="fill:url(#hair1XMLID_3945_);stroke:#1E1E1E;stroke-linecap:round;stroke-linejoin:round;" d="M334.42,186.702c0,0-0.921,38.65,10.72,47.57c-15.493-2.973-21.217-15.857-23.353-20.317"></path><linearGradient id="hair1XMLID_3946_" gradientUnits="userSpaceOnUse" x1="322.623" y1="235" x2="322.623" y2="174.667"><stop offset="0" style="stop-color:#FCFCE4"></stop><stop offset="0.5" style="stop-color:#A0C8DD"></stop><stop offset="1" style="stop-color:#5D6EC5"></stop></linearGradient><path style="fill:url(#hair1XMLID_3946_);stroke:#1E1E1E;stroke-linecap:round;stroke-linejoin:round;" d="M333.75,180.002c0,0,6.03,60.3-22.78,83.079c3.351-18.76,2.011-40.199,2.011-40.199"></path><linearGradient id="hair1XMLID_3947_" gradientUnits="userSpaceOnUse" x1="312.9824" y1="235" x2="312.9824" y2="174.667"><stop offset="0" style="stop-color:#FCFCE4"></stop><stop offset="0.5" style="stop-color:#A0C8DD"></stop><stop offset="1" style="stop-color:#5D6EC5"></stop></linearGradient><path style="fill:url(#hair1XMLID_3947_);stroke:#1E1E1E;stroke-linecap:round;stroke-linejoin:round;" d="M306.95,214.172c-1.34,4.02-1.34,23.45-10.05,39.529c15.409-8.709,36.18-39.529,31.489-73.699"></path></g><g><linearGradient id="hair1XMLID_3948_" gradientUnits="userSpaceOnUse" x1="177.2563" y1="235" x2="177.2563" y2="174.7017"><stop offset="0" style="stop-color:#FCFCE4"></stop><stop offset="0.5" style="stop-color:#A0C8DD"></stop><stop offset="1" style="stop-color:#5D6EC5"></stop></linearGradient><path style="fill:url(#hair1XMLID_3948_);stroke:#1E1E1E;stroke-linecap:round;stroke-linejoin:round;" d="M187.021,235.612c0,0-2.681,19.429,1.34,30.819c-10.721-4.02-23.45-34.839-22.11-60.299"></path><linearGradient id="hair1XMLID_3949_" gradientUnits="userSpaceOnUse" x1="166.5366" y1="235" x2="166.5366" y2="174.6672"><stop offset="0" style="stop-color:#FCFCE4"></stop><stop offset="0.5" style="stop-color:#A0C8DD"></stop><stop offset="1" style="stop-color:#5D6EC5"></stop></linearGradient><path style="fill:url(#hair1XMLID_3949_);stroke:#1E1E1E;stroke-linecap:round;stroke-linejoin:round;" d="M165.58,186.702c0,0,0.921,38.65-10.72,47.57c15.493-2.973,21.217-15.857,23.353-20.317"></path><linearGradient id="hair1XMLID_3950_" gradientUnits="userSpaceOnUse" x1="186.7529" y1="235" x2="186.7529" y2="174.667"><stop offset="0" style="stop-color:#FCFCE4"></stop><stop offset="0.5" style="stop-color:#A0C8DD"></stop><stop offset="1" style="stop-color:#5D6EC5"></stop></linearGradient><path style="fill:url(#hair1XMLID_3950_);stroke:#1E1E1E;stroke-linecap:round;stroke-linejoin:round;" d="M193.05,214.172c1.34,4.02,1.34,23.45,10.05,39.529c-27.47-10.72-36.18-39.529-31.489-73.699"></path></g></g><linearGradient id="hair1XMLID_3951_" gradientUnits="userSpaceOnUse" x1="193.0249" y1="235" x2="193.0249" y2="174.667"><stop offset="0" style="stop-color:#FCFCE4"></stop><stop offset="0.5" style="stop-color:#A0C8DD"></stop><stop offset="1" style="stop-color:#5D6EC5"></stop></linearGradient><path style="fill:url(#hair1XMLID_3951_);stroke:#1E1E1E;stroke-linecap:round;stroke-linejoin:round;" d="M209.8,162.582c0,0-17.42,58.96-12.06,80.399c-19.431-14.739-28.811-50.25-14.74-82.41"></path><linearGradient id="hair1XMLID_3952_" gradientUnits="userSpaceOnUse" x1="214.8188" y1="235" x2="214.8188" y2="174.667"><stop offset="0" style="stop-color:#FCFCE4"></stop><stop offset="0.5" style="stop-color:#A0C8DD"></stop><stop offset="1" style="stop-color:#5D6EC5"></stop></linearGradient><path style="fill:url(#hair1XMLID_3952_);stroke:#1E1E1E;stroke-linecap:round;stroke-linejoin:round;" d="M230.57,157.222c0,0-20.771,35.51-27.471,60.3c-7.369-18.76-5.359-45.56,12.061-71.69"></path><linearGradient id="hair1XMLID_3953_" gradientUnits="userSpaceOnUse" x1="251.2002" y1="235" x2="251.2002" y2="174.667"><stop offset="0" style="stop-color:#FCFCE4"></stop><stop offset="0.5" style="stop-color:#A0C8DD"></stop><stop offset="1" style="stop-color:#5D6EC5"></stop></linearGradient><path style="fill:url(#hair1XMLID_3953_);stroke:#1E1E1E;stroke-linecap:round;stroke-linejoin:round;" d="M282.16,153.872c0,0-5.36,46.9-27.47,70.35c-5.584,8.487-10.721,14.07-10.721,14.07s-3.35-11.39-2.68-14.74c-4.466,6.03-7.37,11.39-7.37,11.39s-6.923-25.907,1.34-58.29c-8.04,12.06-12.06,36.18-12.06,38.19c-7.594-22.333,0.67-51.59,10.72-63.65"></path><path style="fill:none;stroke:#1E1E1E;stroke-linecap:round;stroke-linejoin:round;" d="M253.797,225.115c0.447-0.67,11.614-24.79,12.507-50.027"></path><linearGradient id="hair1XMLID_3954_" gradientUnits="userSpaceOnUse" x1="297.5801" y1="235" x2="297.5801" y2="174.667"><stop offset="0" style="stop-color:#FCFCE4"></stop><stop offset="0.5" style="stop-color:#A0C8DD"></stop><stop offset="1" style="stop-color:#5D6EC5"></stop></linearGradient><path style="fill:url(#hair1XMLID_3954_);stroke:#1E1E1E;stroke-linecap:round;stroke-linejoin:round;" d="M281.49,160.572c0,0,16.75,32.16,24.12,65.66c8.71-8.71,12.06-53.6,1.34-69.68"></path></g></g></svg>