<svg xmlns="http://www.w3.org/2000/svg" width="500" height="500" version="1.1"><g id="x193"><g><g><linearGradient id="hair1XMLID_3966_" gradientUnits="userSpaceOnUse" x1="192.4077" y1="213.6006" x2="192.4077" y2="118.3514"><stop offset="0" style="stop-color:#FCFCE4"></stop><stop offset="0.5" style="stop-color:#A0C8DD"></stop><stop offset="1" style="stop-color:#5D6EC5"></stop></linearGradient><path style="fill:url(#hair1XMLID_3966_);stroke:#1E1E1E;stroke-linecap:round;stroke-linejoin:round;" d="M190.414,228.658c0,1.675,6.365,41.205,14.405,48.91c-15.745-9.715-25.46-32.495-24.79-55.275"></path><linearGradient id="hair1XMLID_3967_" gradientUnits="userSpaceOnUse" x1="307.9492" y1="213.6006" x2="307.9492" y2="118.3514"><stop offset="0" style="stop-color:#FCFCE4"></stop><stop offset="0.5" style="stop-color:#A0C8DD"></stop><stop offset="1" style="stop-color:#5D6EC5"></stop></linearGradient><path style="fill:url(#hair1XMLID_3967_);stroke:#1E1E1E;stroke-linecap:round;stroke-linejoin:round;" d="M309.943,228.658c0,1.675-6.365,41.205-14.405,48.91c15.745-9.715,25.46-32.495,24.79-55.275"></path></g><linearGradient id="hair1XMLID_3968_" gradientUnits="userSpaceOnUse" x1="250.0996" y1="219.1919" x2="250.0996" y2="123.3993"><stop offset="0" style="stop-color:#FCFCE4"></stop><stop offset="0.5" style="stop-color:#A0C8DD"></stop><stop offset="1" style="stop-color:#5D6EC5"></stop></linearGradient><path style="fill:url(#hair1XMLID_3968_);stroke:#1E1E1E;stroke-linecap:round;stroke-linejoin:round;" d="M311.89,135.943c-17.105-17.505-41.811-23.971-61.79-20.231c-19.98-3.739-44.686,2.727-61.791,20.231c-13.126,13.432-22.395,30.316-22.395,51.335c0,24.494,12.367,45.285,23.085,49.472c-7.366-33.656,2.491-60.318,8.086-69.534c1.808-2.168,29.517-5.519,53.014-5.647c23.496,0.128,51.205,3.479,53.012,5.647c5.596,9.215,12.476,35.186,5.109,68.842c10.719-4.187,26.063-24.286,26.063-48.78C334.284,166.259,325.016,149.375,311.89,135.943z"></path><linearGradient id="hair1XMLID_3969_" gradientUnits="userSpaceOnUse" x1="317.1787" y1="218.6001" x2="317.1787" y2="123.3503"><stop offset="0" style="stop-color:#FCFCE4"></stop><stop offset="0.5" style="stop-color:#A0C8DD"></stop><stop offset="1" style="stop-color:#5D6EC5"></stop></linearGradient><path style="fill:url(#hair1XMLID_3969_);stroke:#1E1E1E;stroke-linecap:round;stroke-linejoin:round;" d="M314.497,200.493c0,0-2.345,37.186-11.39,46.565c8.71-1.675,31.155-15.075,27.805-53.601"></path><linearGradient id="hair1XMLID_3970_" gradientUnits="userSpaceOnUse" x1="294.3145" y1="218.6001" x2="294.3145" y2="123.3502"><stop offset="0" style="stop-color:#FCFCE4"></stop><stop offset="0.5" style="stop-color:#A0C8DD"></stop><stop offset="1" style="stop-color:#5D6EC5"></stop></linearGradient><path style="fill:url(#hair1XMLID_3970_);stroke:#1E1E1E;stroke-linecap:round;stroke-linejoin:round;" d="M273.292,159.288c0,0,14.74,48.575,38.525,62.98c5.36-13.735,5.36-49.915-5.36-63.985"></path><linearGradient id="hair1XMLID_3971_" gradientUnits="userSpaceOnUse" x1="249.3193" y1="218.6001" x2="249.3193" y2="123.35"><stop offset="0" style="stop-color:#FCFCE4"></stop><stop offset="0.5" style="stop-color:#A0C8DD"></stop><stop offset="1" style="stop-color:#5D6EC5"></stop></linearGradient><path style="fill:url(#hair1XMLID_3971_);stroke:#1E1E1E;stroke-linecap:round;stroke-linejoin:round;" d="M218.69,155.938c0,0,24.79,36.85,22.444,63.649c2.346-2.01,5.025-13.399,5.025-13.399s4.021,7.705,2.345,18.76c9.042-1.34,45.223-30.82,25.792-71.69"></path><path style="fill:none;stroke:#1E1E1E;stroke-linecap:round;stroke-linejoin:round;" d="M228.405,121.433c0.335,0.335,18.09,1.675,28.472,11.39"></path><linearGradient id="hair1XMLID_3972_" gradientUnits="userSpaceOnUse" x1="167.7695" y1="218.6001" x2="167.7695" y2="123.3504"><stop offset="0" style="stop-color:#FCFCE4"></stop><stop offset="0.5" style="stop-color:#A0C8DD"></stop><stop offset="1" style="stop-color:#5D6EC5"></stop></linearGradient><path style="fill:url(#hair1XMLID_3972_);stroke:#1E1E1E;stroke-linecap:round;stroke-linejoin:round;" d="M170.115,163.644c0,0-10.385,24.12-7.035,53.935c1.005,15.745-2.345,26.13-6.365,28.476c8.04-0.67,22.11-1.676,22.11-29.48"></path><linearGradient id="hair1XMLID_3973_" gradientUnits="userSpaceOnUse" x1="193.6694" y1="218.5996" x2="193.6694" y2="123.35"><stop offset="0" style="stop-color:#FCFCE4"></stop><stop offset="0.5" style="stop-color:#A0C8DD"></stop><stop offset="1" style="stop-color:#5D6EC5"></stop></linearGradient><path style="fill:url(#hair1XMLID_3973_);stroke:#1E1E1E;stroke-linecap:round;stroke-linejoin:round;" d="M217.015,156.943c0,0-33.165,42.88-27.471,114.904c-23.785-23.449-25.795-90.784-4.354-114.569"></path></g></g></svg>