<svg xmlns="http://www.w3.org/2000/svg" width="500" height="500" version="1.1"><g id="x194"><g><g><linearGradient id="hair1XMLID_3974_" gradientUnits="userSpaceOnUse" x1="250.0005" y1="255" x2="250.0005" y2="147.6675"><stop offset="0" style="stop-color:#FCFCE4"></stop><stop offset="0.5" style="stop-color:#A0C8DD"></stop><stop offset="1" style="stop-color:#5D6EC5"></stop></linearGradient><path style="fill:url(#hair1XMLID_3974_);stroke:#1E1E1E;stroke-linecap:round;stroke-linejoin:round;" d="M311.791,136.043c-17.105-17.505-41.811-23.971-61.791-20.231c-19.98-3.739-44.686,2.727-61.791,20.231c-13.126,13.432-22.395,30.316-22.395,51.335c0,24.494,12.543,28.427,23.262,32.613c-5.909-28.325,2.314-43.46,7.91-52.675c1.808-2.168,29.517-5.519,53.014-5.647c23.498,0.128,51.207,3.479,53.014,5.647c5.596,9.215,13.486,22.017,7.906,52.675c10.719-4.187,23.266-8.119,23.266-32.613C334.186,166.359,324.918,149.476,311.791,136.043z"></path><g><linearGradient id="hair1XMLID_3975_" gradientUnits="userSpaceOnUse" x1="193.6802" y1="255" x2="193.6802" y2="147.6671"><stop offset="0" style="stop-color:#FCFCE4"></stop><stop offset="0.5" style="stop-color:#A0C8DD"></stop><stop offset="1" style="stop-color:#5D6EC5"></stop></linearGradient><path style="fill:url(#hair1XMLID_3975_);stroke:#1E1E1E;stroke-linecap:round;stroke-linejoin:round;" d="M190.268,149.813c-15.745,20.1-8.04,39.865-8.04,39.865s2.01-7.37,5.694-13.065c-1.005,5.695,1.34,15.745,6.7,20.435c0.335-7.705,7.035-22.445,7.035-22.445l5.36-13.735"></path><linearGradient id="hair1XMLID_3976_" gradientUnits="userSpaceOnUse" x1="220.5283" y1="255" x2="220.5283" y2="147.6671"><stop offset="0" style="stop-color:#FCFCE4"></stop><stop offset="0.5" style="stop-color:#A0C8DD"></stop><stop offset="1" style="stop-color:#5D6EC5"></stop></linearGradient><path style="fill:url(#hair1XMLID_3976_);stroke:#1E1E1E;stroke-linecap:round;stroke-linejoin:round;" d="M239.847,156.178c0,0-8.04,21.44-19.095,26.8c-7.37-7.37-6.03-22.78-6.03-22.78s-11.39,19.43-11.725,22.445c-4.354-7.705,0-25.46,5.025-31.825"></path><linearGradient id="hair1XMLID_3977_" gradientUnits="userSpaceOnUse" x1="306.4795" y1="255" x2="306.4795" y2="147.6671"><stop offset="0" style="stop-color:#FCFCE4"></stop><stop offset="0.5" style="stop-color:#A0C8DD"></stop><stop offset="1" style="stop-color:#5D6EC5"></stop></linearGradient><path style="fill:url(#hair1XMLID_3977_);stroke:#1E1E1E;stroke-linecap:round;stroke-linejoin:round;" d="M309.893,149.813c15.744,20.1,8.039,39.865,8.039,39.865s-2.01-7.37-5.695-13.065c1.006,5.695-1.34,15.745-6.699,20.435c-0.336-7.705-7.035-22.445-7.035-22.445l-5.359-13.735"></path><linearGradient id="hair1XMLID_3978_" gradientUnits="userSpaceOnUse" x1="279.6309" y1="255" x2="279.6309" y2="147.6671"><stop offset="0" style="stop-color:#FCFCE4"></stop><stop offset="0.5" style="stop-color:#A0C8DD"></stop><stop offset="1" style="stop-color:#5D6EC5"></stop></linearGradient><path style="fill:url(#hair1XMLID_3978_);stroke:#1E1E1E;stroke-linecap:round;stroke-linejoin:round;" d="M260.313,156.178c0,0,8.039,21.44,19.094,26.8c7.371-7.37,6.031-22.78,6.031-22.78s11.389,19.43,11.725,22.445c4.355-7.705,0-25.46-5.025-31.825"></path><linearGradient id="hair1XMLID_3979_" gradientUnits="userSpaceOnUse" x1="251.3809" y1="255" x2="251.3809" y2="147.6672"><stop offset="0" style="stop-color:#FCFCE4"></stop><stop offset="0.5" style="stop-color:#A0C8DD"></stop><stop offset="1" style="stop-color:#5D6EC5"></stop></linearGradient><path style="fill:url(#hair1XMLID_3979_);stroke:#1E1E1E;stroke-linecap:round;stroke-linejoin:round;" d="M266.494,152.493c0,0-0.67,22.78-14.404,30.15c2.01-5.024,2.01-7.705,2.01-7.705s-13.4,8.375-16.75,9.045c-2.01-9.38-1.34-26.13,3.015-36.18"></path></g></g><g><g><linearGradient id="hair1XMLID_3980_" gradientUnits="userSpaceOnUse" x1="171.5669" y1="255" x2="171.5669" y2="147.6668"><stop offset="0" style="stop-color:#FCFCE4"></stop><stop offset="0.5" style="stop-color:#A0C8DD"></stop><stop offset="1" style="stop-color:#5D6EC5"></stop></linearGradient><path style="fill:url(#hair1XMLID_3980_);stroke:#1E1E1E;stroke-linecap:round;stroke-linejoin:round;" d="M173.06,182.308c0,0-21.775,33.5-11.725,59.295c7.7,19.766,23.114,23.45,23.114,23.45l-4.02-37.519"></path><linearGradient id="hair1XMLID_3981_" gradientUnits="userSpaceOnUse" x1="196.0796" y1="255" x2="196.0796" y2="147.6669"><stop offset="0" style="stop-color:#FCFCE4"></stop><stop offset="0.5" style="stop-color:#A0C8DD"></stop><stop offset="1" style="stop-color:#5D6EC5"></stop></linearGradient><path style="fill:url(#hair1XMLID_3981_);stroke:#1E1E1E;stroke-linecap:round;stroke-linejoin:round;" d="M188.805,219.159c0.67,3.35-0.335,29.145,12.729,36.849c13.065,7.705,21.44,7.371,21.44,7.371l-11.055,2.344c0,0,9.38,5.695,12.729,10.385c-10.05,6.365-27.47,7.705-35.51,3.352c-14.347-7.771-31.155-24.121-15.075-77.05"></path><linearGradient id="hair1XMLID_3982_" gradientUnits="userSpaceOnUse" x1="195.5757" y1="255" x2="195.5757" y2="147.667"><stop offset="0" style="stop-color:#FCFCE4"></stop><stop offset="0.5" style="stop-color:#A0C8DD"></stop><stop offset="1" style="stop-color:#5D6EC5"></stop></linearGradient><path style="fill:url(#hair1XMLID_3982_);stroke:#1E1E1E;stroke-linecap:round;stroke-linejoin:round;" d="M184.297,273.428c0,0,17.085,17.42,17.755,25.795c5.36-6.699,7.37-20.77,0-28.809"></path></g><g><linearGradient id="hair1XMLID_3983_" gradientUnits="userSpaceOnUse" x1="328.4326" y1="255" x2="328.4326" y2="147.6668"><stop offset="0" style="stop-color:#FCFCE4"></stop><stop offset="0.5" style="stop-color:#A0C8DD"></stop><stop offset="1" style="stop-color:#5D6EC5"></stop></linearGradient><path style="fill:url(#hair1XMLID_3983_);stroke:#1E1E1E;stroke-linecap:round;stroke-linejoin:round;" d="M326.94,182.308c0,0,21.775,33.5,11.725,59.295c-7.701,19.766-23.115,23.45-23.115,23.45l4.02-37.519"></path><linearGradient id="hair1XMLID_3984_" gradientUnits="userSpaceOnUse" x1="303.9199" y1="255" x2="303.9199" y2="147.6669"><stop offset="0" style="stop-color:#FCFCE4"></stop><stop offset="0.5" style="stop-color:#A0C8DD"></stop><stop offset="1" style="stop-color:#5D6EC5"></stop></linearGradient><path style="fill:url(#hair1XMLID_3984_);stroke:#1E1E1E;stroke-linecap:round;stroke-linejoin:round;" d="M311.194,219.159c-0.67,3.35,0.336,29.145-12.729,36.849c-13.066,7.705-21.441,7.371-21.441,7.371l11.055,2.344c0,0-9.379,5.695-12.729,10.385c10.049,6.365,27.469,7.705,35.51,3.352c14.346-7.771,31.154-24.121,15.074-77.05"></path><linearGradient id="hair1XMLID_3985_" gradientUnits="userSpaceOnUse" x1="304.4238" y1="255" x2="304.4238" y2="147.667"><stop offset="0" style="stop-color:#FCFCE4"></stop><stop offset="0.5" style="stop-color:#A0C8DD"></stop><stop offset="1" style="stop-color:#5D6EC5"></stop></linearGradient><path style="fill:url(#hair1XMLID_3985_);stroke:#1E1E1E;stroke-linecap:round;stroke-linejoin:round;" d="M315.702,273.428c0,0-17.084,17.42-17.754,25.795c-5.361-6.699-7.371-20.77,0-28.809"></path></g></g></g></g></svg>