<svg xmlns="http://www.w3.org/2000/svg" width="500" height="500" version="1.1"><g id="x195"><g><linearGradient id="hair1XMLID_3986_" gradientUnits="userSpaceOnUse" x1="249.9941" y1="217" x2="249.9941" y2="133.667"><stop offset="0" style="stop-color:#FCFCE4"></stop><stop offset="0.5" style="stop-color:#A0C8DD"></stop><stop offset="1" style="stop-color:#5D6EC5"></stop></linearGradient><path style="fill:url(#hair1XMLID_3986_);stroke:#1E1E1E;stroke-linecap:round;stroke-linejoin:round;" d="M311.786,135.844c-17.105-17.505-41.811-23.971-61.793-20.231c-19.98-3.739-44.686,2.727-61.791,20.231c-13.126,13.432-22.395,30.316-22.395,51.335c0,24.494,15.344,44.594,26.063,48.78c-7.366-33.656-0.486-59.627,5.109-68.842c1.808-2.168,29.517-5.519,53.014-5.647c23.5,0.128,51.208,3.479,53.016,5.647c5.596,9.215,12.476,35.186,5.109,68.842c10.719-4.187,26.063-24.286,26.063-48.78C334.181,166.16,324.912,149.276,311.786,135.844z"></path><g><linearGradient id="hair1XMLID_3987_" gradientUnits="userSpaceOnUse" x1="232.9883" y1="217" x2="232.9883" y2="133.6666"><stop offset="0" style="stop-color:#FCFCE4"></stop><stop offset="0.5" style="stop-color:#A0C8DD"></stop><stop offset="1" style="stop-color:#5D6EC5"></stop></linearGradient><path style="fill:url(#hair1XMLID_3987_);stroke:#1E1E1E;stroke-linecap:round;stroke-linejoin:round;" d="M257.443,158.854c0,0-5.694,50.92-48.911,71.69c14.404-23.45,34.505-79.395,33.5-80.4"></path><linearGradient id="hair1XMLID_3988_" gradientUnits="userSpaceOnUse" x1="170.5386" y1="217" x2="170.5386" y2="133.6671"><stop offset="0" style="stop-color:#FCFCE4"></stop><stop offset="0.5" style="stop-color:#A0C8DD"></stop><stop offset="1" style="stop-color:#5D6EC5"></stop></linearGradient><path style="fill:url(#hair1XMLID_3988_);stroke:#1E1E1E;stroke-linecap:round;stroke-linejoin:round;" d="M206.522,137.749c0,0-23.114,24.79-31.154,57.286c-8.04,32.494-41.875,71.014-36.181,99.825c-8.375-14.74-5.927-39.59,11.726-69.005c26.13-43.55,16.08-75.71,49.58-100.165"></path><linearGradient id="hair1XMLID_3989_" gradientUnits="userSpaceOnUse" x1="212.0034" y1="217" x2="212.0034" y2="133.667"><stop offset="0" style="stop-color:#FCFCE4"></stop><stop offset="0.5" style="stop-color:#A0C8DD"></stop><stop offset="1" style="stop-color:#5D6EC5"></stop></linearGradient><path style="fill:url(#hair1XMLID_3989_);stroke:#1E1E1E;stroke-linecap:round;stroke-linejoin:round;" d="M248.397,125.019c0,0-3.015-5.025-10.72-5.36s-40.535,18.76-53.265,47.235c-12.73,28.476-12.061,75.375,4.689,99.491c13.4-50.246,51.925-111.886,51.925-111.886"></path><linearGradient id="hair1XMLID_3990_" gradientUnits="userSpaceOnUse" x1="315.4141" y1="217" x2="315.4141" y2="133.667"><stop offset="0" style="stop-color:#FCFCE4"></stop><stop offset="0.5" style="stop-color:#A0C8DD"></stop><stop offset="1" style="stop-color:#5D6EC5"></stop></linearGradient><path style="fill:url(#hair1XMLID_3990_);stroke:#1E1E1E;stroke-linecap:round;stroke-linejoin:round;" d="M311.714,208.769c0,0,1.34,30.485-12.396,45.891c19.431-5.021,48.24-63.981,21.105-102.171"></path><linearGradient id="hair1XMLID_3991_" gradientUnits="userSpaceOnUse" x1="291.666" y1="217" x2="291.666" y2="133.6669"><stop offset="0" style="stop-color:#FCFCE4"></stop><stop offset="0.5" style="stop-color:#A0C8DD"></stop><stop offset="1" style="stop-color:#5D6EC5"></stop></linearGradient><path style="fill:url(#hair1XMLID_3991_);stroke:#1E1E1E;stroke-linecap:round;stroke-linejoin:round;" d="M269.169,154.834c0,0,43.215,38.86,40.87,74.706c8.71-21.44,3.015-66.331-11.391-82.41"></path><linearGradient id="hair1XMLID_3992_" gradientUnits="userSpaceOnUse" x1="242.2983" y1="217" x2="242.2983" y2="133.6671"><stop offset="0" style="stop-color:#FCFCE4"></stop><stop offset="0.5" style="stop-color:#A0C8DD"></stop><stop offset="1" style="stop-color:#5D6EC5"></stop></linearGradient><path style="fill:url(#hair1XMLID_3992_);stroke:#1E1E1E;stroke-linecap:round;stroke-linejoin:round;" d="M268.846,147.677c3.699,10.634,6.355,24.634,3.003,39.318c-7.035,30.819-24.122,63.314-60.636,74.365c14.74-10.38,37.588-42.59,42.546-72.02c5.36-31.825,0.335-58.96,0.335-58.96"></path><g><linearGradient id="hair1XMLID_3993_" gradientUnits="userSpaceOnUse" x1="200.8921" y1="217" x2="200.8921" y2="133.6669"><stop offset="0" style="stop-color:#FCFCE4"></stop><stop offset="0.5" style="stop-color:#A0C8DD"></stop><stop offset="1" style="stop-color:#5D6EC5"></stop></linearGradient><path style="fill:url(#hair1XMLID_3993_);stroke:#1E1E1E;stroke-linecap:round;stroke-linejoin:round;" d="M245.717,144.449c0,0-5.695,35.175-23.45,66.665c-13.617,24.151-54.505,60.521-57.62,79.726c-4.02,24.789,13.4,39.195,13.4,39.195s-24.455-10.051-21.775-37.521c3.464-35.498,50.25-116.91,52.931-119.589"></path><path style="fill:none;stroke:#1E1E1E;stroke-linecap:round;stroke-linejoin:round;" d="M160.292,297.875c0,0,1.34-5.695,6.365-13.736"></path></g></g></g></g></svg>