<svg xmlns="http://www.w3.org/2000/svg" width="500" height="500" version="1.1"><g id="x196"><g><linearGradient id="hair1XMLID_3994_" gradientUnits="userSpaceOnUse" x1="249.9214" y1="193.667" x2="249.9214" y2="137.9999"><stop offset="0" style="stop-color:#FCFCE4"></stop><stop offset="0.5" style="stop-color:#A0C8DD"></stop><stop offset="1" style="stop-color:#5D6EC5"></stop></linearGradient><path style="fill:url(#hair1XMLID_3994_);stroke:#1E1E1E;stroke-linecap:round;stroke-linejoin:round;" d="M311.713,134.843c-17.105-17.505-41.811-23.971-61.792-20.231c-19.98-3.739-44.686,2.727-61.791,20.231c-13.126,13.432-22.395,30.316-22.395,51.335c0,24.494,15.344,44.594,26.063,48.78c-7.366-33.656-0.486-59.627,5.109-68.842c1.808-2.168,29.517-5.519,53.014-5.647c23.498,0.128,51.207,3.479,53.015,5.647c5.596,9.215,12.476,35.186,5.109,68.842c10.719-4.187,26.063-24.286,26.063-48.78C334.107,165.159,324.839,148.275,311.713,134.843z"></path><g><g><linearGradient id="hair1XMLID_3995_" gradientUnits="userSpaceOnUse" x1="318.8389" y1="193.667" x2="318.8389" y2="138"><stop offset="0" style="stop-color:#FCFCE4"></stop><stop offset="0.5" style="stop-color:#A0C8DD"></stop><stop offset="1" style="stop-color:#5D6EC5"></stop></linearGradient><path style="fill:url(#hair1XMLID_3995_);stroke:#1E1E1E;stroke-linecap:round;stroke-linejoin:round;" d="M326.115,234.233c0,0-8.726,20.435-8.476,48.576c-3.241-6.365-10.222-27.805-2.742-56.951"></path><linearGradient id="hair1XMLID_3996_" gradientUnits="userSpaceOnUse" x1="327.5996" y1="193.667" x2="327.5996" y2="138"><stop offset="0" style="stop-color:#FCFCE4"></stop><stop offset="0.5" style="stop-color:#A0C8DD"></stop><stop offset="1" style="stop-color:#5D6EC5"></stop></linearGradient><path style="fill:url(#hair1XMLID_3996_);stroke:#1E1E1E;stroke-linecap:round;stroke-linejoin:round;" d="M331.102,209.778c0,0-1.496,45.896,3.24,58.625c-12.465-12.059-14.708-34.839-12.964-55.944"></path><linearGradient id="hair1XMLID_3997_" gradientUnits="userSpaceOnUse" x1="334.8398" y1="193.667" x2="334.8398" y2="137.9999"><stop offset="0" style="stop-color:#FCFCE4"></stop><stop offset="0.5" style="stop-color:#A0C8DD"></stop><stop offset="1" style="stop-color:#5D6EC5"></stop></linearGradient><path style="fill:url(#hair1XMLID_3997_);stroke:#1E1E1E;stroke-linecap:round;stroke-linejoin:round;" d="M331.6,203.414c0,0,2.493,23.784,14.21,28.14c-9.972,4.69-20.442,0.335-21.938-13.4"></path><linearGradient id="hair1XMLID_3998_" gradientUnits="userSpaceOnUse" x1="336.835" y1="193.667" x2="336.835" y2="138.0002"><stop offset="0" style="stop-color:#FCFCE4"></stop><stop offset="0.5" style="stop-color:#A0C8DD"></stop><stop offset="1" style="stop-color:#5D6EC5"></stop></linearGradient><path style="fill:url(#hair1XMLID_3998_);stroke:#1E1E1E;stroke-linecap:round;stroke-linejoin:round;" d="M331.102,165.558c0,0,1.994,6.7,2.742,18.425c0.747,11.726,6.73,22.78,12.714,27.136c-7.479,0.335-17.201-5.36-19.445-15.41"></path></g><g><linearGradient id="hair1XMLID_3999_" gradientUnits="userSpaceOnUse" x1="181.1616" y1="193.667" x2="181.1616" y2="138"><stop offset="0" style="stop-color:#FCFCE4"></stop><stop offset="0.5" style="stop-color:#A0C8DD"></stop><stop offset="1" style="stop-color:#5D6EC5"></stop></linearGradient><path style="fill:url(#hair1XMLID_3999_);stroke:#1E1E1E;stroke-linecap:round;stroke-linejoin:round;" d="M173.885,234.233c0,0,8.726,20.435,8.476,48.576c3.241-6.365,10.222-27.805,2.743-56.951"></path><linearGradient id="hair1XMLID_4000_" gradientUnits="userSpaceOnUse" x1="172.3999" y1="193.667" x2="172.3999" y2="138"><stop offset="0" style="stop-color:#FCFCE4"></stop><stop offset="0.5" style="stop-color:#A0C8DD"></stop><stop offset="1" style="stop-color:#5D6EC5"></stop></linearGradient><path style="fill:url(#hair1XMLID_4000_);stroke:#1E1E1E;stroke-linecap:round;stroke-linejoin:round;" d="M168.899,209.778c0,0,1.495,45.896-3.241,58.625c12.465-12.059,14.708-34.839,12.964-55.944"></path><linearGradient id="hair1XMLID_4001_" gradientUnits="userSpaceOnUse" x1="165.1597" y1="193.667" x2="165.1597" y2="137.9999"><stop offset="0" style="stop-color:#FCFCE4"></stop><stop offset="0.5" style="stop-color:#A0C8DD"></stop><stop offset="1" style="stop-color:#5D6EC5"></stop></linearGradient><path style="fill:url(#hair1XMLID_4001_);stroke:#1E1E1E;stroke-linecap:round;stroke-linejoin:round;" d="M168.4,203.414c0,0-2.493,23.784-14.21,28.14c9.972,4.69,20.443,0.335,21.938-13.4"></path><linearGradient id="hair1XMLID_4002_" gradientUnits="userSpaceOnUse" x1="163.165" y1="193.667" x2="163.165" y2="138.0002"><stop offset="0" style="stop-color:#FCFCE4"></stop><stop offset="0.5" style="stop-color:#A0C8DD"></stop><stop offset="1" style="stop-color:#5D6EC5"></stop></linearGradient><path style="fill:url(#hair1XMLID_4002_);stroke:#1E1E1E;stroke-linecap:round;stroke-linejoin:round;" d="M168.899,165.558c0,0-1.994,6.7-2.743,18.425c-0.747,11.726-6.73,22.78-12.714,27.136c7.479,0.335,17.201-5.36,19.445-15.41"></path></g></g><linearGradient id="hair1XMLID_4003_" gradientUnits="userSpaceOnUse" x1="312.5635" y1="193.667" x2="312.5635" y2="138"><stop offset="0" style="stop-color:#FCFCE4"></stop><stop offset="0.5" style="stop-color:#A0C8DD"></stop><stop offset="1" style="stop-color:#5D6EC5"></stop></linearGradient><path style="fill:url(#hair1XMLID_4003_);stroke:#1E1E1E;stroke-linecap:round;stroke-linejoin:round;" d="M301.591,165.893c0,0,11.39,50.25-5.695,78.391c4.329-2.487,13.392-12.864,16.75-18.091c-4.689,19.431-11.975,29.571-17.755,34.84c30.485-10.72,40.2-49.245,33.165-81.405"></path><linearGradient id="hair1XMLID_4004_" gradientUnits="userSpaceOnUse" x1="296.7148" y1="193.667" x2="296.7148" y2="138"><stop offset="0" style="stop-color:#FCFCE4"></stop><stop offset="0.5" style="stop-color:#A0C8DD"></stop><stop offset="1" style="stop-color:#5D6EC5"></stop></linearGradient><path style="fill:url(#hair1XMLID_4004_);stroke:#1E1E1E;stroke-linecap:round;stroke-linejoin:round;" d="M287.186,154.168c0,0,6.7,43.215,2.01,54.27c7.035-6.7,19.095-41.205,16.75-51.255"></path><linearGradient id="hair1XMLID_4005_" gradientUnits="userSpaceOnUse" x1="184.6255" y1="193.667" x2="184.6255" y2="138"><stop offset="0" style="stop-color:#FCFCE4"></stop><stop offset="0.5" style="stop-color:#A0C8DD"></stop><stop offset="1" style="stop-color:#5D6EC5"></stop></linearGradient><path style="fill:url(#hair1XMLID_4005_);stroke:#1E1E1E;stroke-linecap:round;stroke-linejoin:round;" d="M179.65,159.528c0,0-23.45,72.025,16.75,113.899c-7.37-20.77-3.35-91.79-1.675-98.154"></path><linearGradient id="hair1XMLID_4006_" gradientUnits="userSpaceOnUse" x1="209.3521" y1="193.667" x2="209.3521" y2="138"><stop offset="0" style="stop-color:#FCFCE4"></stop><stop offset="0.5" style="stop-color:#A0C8DD"></stop><stop offset="1" style="stop-color:#5D6EC5"></stop></linearGradient><path style="fill:url(#hair1XMLID_4006_);stroke:#1E1E1E;stroke-linecap:round;stroke-linejoin:round;" d="M231.24,157.183c0,0-34.17,45.561-40.535,82.41c-7.369-23.115-1.675-65.995,12.061-86.43"></path><linearGradient id="hair1XMLID_4007_" gradientUnits="userSpaceOnUse" x1="251.1729" y1="193.667" x2="251.1729" y2="138"><stop offset="0" style="stop-color:#FCFCE4"></stop><stop offset="0.5" style="stop-color:#A0C8DD"></stop><stop offset="1" style="stop-color:#5D6EC5"></stop></linearGradient><path style="fill:url(#hair1XMLID_4007_);stroke:#1E1E1E;stroke-linecap:round;stroke-linejoin:round;" d="M287.186,151.488c0,0-3.685,35.175-23.115,56.95c7.035-23.45,8.71-51.925,8.71-51.925s-6.365,48.24-41.54,67.335c7.035-23.45,7.37-51.925,7.37-51.925s-9.715,32.16-23.45,39.865c3.686-7.705,15.075-55.61,13.065-59.965"></path></g></g></svg>