<svg xmlns="http://www.w3.org/2000/svg" width="500" height="500" version="1.1"><g id="x019"><g><linearGradient id="hair1XMLID_2553_" gradientUnits="userSpaceOnUse" x1="250.0005" y1="205" x2="250.0005" y2="159.6669"><stop offset="0" style="stop-color:#FCFCE4"></stop><stop offset="0.5" style="stop-color:#A0C8DD"></stop><stop offset="1" style="stop-color:#5D6EC5"></stop></linearGradient><path style="fill:url(#hair1XMLID_2553_);stroke:#1E1E1E;stroke-linecap:round;stroke-linejoin:round;" d="M311.484,135.882c-17.021-17.418-41.603-23.852-61.484-20.131c-19.882-3.721-44.464,2.713-61.484,20.131c-13.061,13.365-22.283,30.165-22.283,51.08c0,24.372,15.268,44.372,25.934,48.538c-7.33-33.49-0.484-59.331,5.084-68.5c1.798-2.157,29.369-5.491,52.75-5.619c23.381,0.128,50.952,3.462,52.75,5.619c5.568,9.169,12.414,35.01,5.084,68.5c10.666-4.167,25.934-24.167,25.934-48.538C333.768,166.047,324.545,149.248,311.484,135.882z"></path><linearGradient id="hair1XMLID_2554_" gradientUnits="userSpaceOnUse" x1="215.4253" y1="205" x2="215.4253" y2="159.6669"><stop offset="0" style="stop-color:#FCFCE4"></stop><stop offset="0.5" style="stop-color:#A0C8DD"></stop><stop offset="1" style="stop-color:#5D6EC5"></stop></linearGradient><path style="fill:url(#hair1XMLID_2554_);stroke:#1E1E1E;stroke-linecap:round;stroke-linejoin:round;" d="M244.235,128.096c0,0-10.273-12.06-20.1-12.06c-9.827,0-31.714,11.167-37.521,19.654c13.847-4.021,36.627-1.34,36.627-1.34"></path><linearGradient id="hair1XMLID_2555_" gradientUnits="userSpaceOnUse" x1="284.4258" y1="205" x2="284.4258" y2="159.6669"><stop offset="0" style="stop-color:#FCFCE4"></stop><stop offset="0.5" style="stop-color:#A0C8DD"></stop><stop offset="1" style="stop-color:#5D6EC5"></stop></linearGradient><path style="fill:url(#hair1XMLID_2555_);stroke:#1E1E1E;stroke-linecap:round;stroke-linejoin:round;" d="M255.616,128.096c0,0,10.273-12.06,20.1-12.06c9.827,0,31.714,11.167,37.521,19.654c-13.847-4.021-36.627-1.34-36.627-1.34"></path><g><linearGradient id="hair1XMLID_2556_" gradientUnits="userSpaceOnUse" x1="257.8125" y1="205" x2="257.8125" y2="159.6671"><stop offset="0" style="stop-color:#FCFCE4"></stop><stop offset="0.5" style="stop-color:#A0C8DD"></stop><stop offset="1" style="stop-color:#5D6EC5"></stop></linearGradient><path style="fill:url(#hair1XMLID_2556_);stroke:#1E1E1E;stroke-linecap:round;stroke-linejoin:round;" d="M237.468,159.14c0.224,0.895-0.826,11.613-0.826,11.613s5.048-2.448,14.428-0.663c2.455-0.67,14.516-8.932,27.915,6.03c-7.146-15.185-13.398-27.245-14.516-27.022"></path><linearGradient id="hair1XMLID_2557_" gradientUnits="userSpaceOnUse" x1="234.79" y1="205" x2="234.79" y2="159.667"><stop offset="0" style="stop-color:#FCFCE4"></stop><stop offset="0.5" style="stop-color:#A0C8DD"></stop><stop offset="1" style="stop-color:#5D6EC5"></stop></linearGradient><path style="fill:url(#hair1XMLID_2557_);stroke:#1E1E1E;stroke-linecap:round;stroke-linejoin:round;" d="M249.372,167.627c0,0-5.584-8.041-10.811-12.724c-1.92,0.887-6.031,59.855,13.176,81.294c-12.952-3.127-40.332-40.178-32.516-85.514"></path><linearGradient id="hair1XMLID_2558_" gradientUnits="userSpaceOnUse" x1="200.749" y1="205" x2="200.749" y2="159.667"><stop offset="0" style="stop-color:#FCFCE4"></stop><stop offset="0.5" style="stop-color:#A0C8DD"></stop><stop offset="1" style="stop-color:#5D6EC5"></stop></linearGradient><path style="fill:url(#hair1XMLID_2558_);stroke:#1E1E1E;stroke-linecap:round;stroke-linejoin:round;" d="M198.816,172.992c0,0-19.653,40.648-17.42,72.138c-12.282-29.257-19.652-49.132-17.196-68.34c2.456-19.208,42.079-51.82,51.682-53.16c5.583-0.67,21.887,14.293,21.887,14.293"></path><linearGradient id="hair1XMLID_2559_" gradientUnits="userSpaceOnUse" x1="299.499" y1="205" x2="299.499" y2="159.667"><stop offset="0" style="stop-color:#FCFCE4"></stop><stop offset="0.5" style="stop-color:#A0C8DD"></stop><stop offset="1" style="stop-color:#5D6EC5"></stop></linearGradient><path style="fill:url(#hair1XMLID_2559_);stroke:#1E1E1E;stroke-linecap:round;stroke-linejoin:round;" d="M301.432,172.992c0,0,19.653,40.648,17.42,72.138c12.282-29.257,19.652-49.132,17.196-68.34c-2.456-19.208-42.079-51.82-51.682-53.16c-5.583-0.67-21.887,14.293-21.887,14.293"></path><linearGradient id="hair1XMLID_2560_" gradientUnits="userSpaceOnUse" x1="207.2212" y1="205" x2="207.2212" y2="159.667"><stop offset="0" style="stop-color:#FCFCE4"></stop><stop offset="0.5" style="stop-color:#A0C8DD"></stop><stop offset="1" style="stop-color:#5D6EC5"></stop></linearGradient><path style="fill:url(#hair1XMLID_2560_);stroke:#1E1E1E;stroke-linecap:round;stroke-linejoin:round;" d="M220.918,160.71c0,0-23.674,46.229-24.12,85.089c-14.248-27.071-18.999-53.624-9.826-78.39c3.768-10.173,11.48-20.331,22.424-29.041c9.826-6.255,22.779,3.573,22.779,3.573"></path><linearGradient id="hair1XMLID_2561_" gradientUnits="userSpaceOnUse" x1="281.3535" y1="205" x2="281.3535" y2="159.6671"><stop offset="0" style="stop-color:#FCFCE4"></stop><stop offset="0.5" style="stop-color:#A0C8DD"></stop><stop offset="1" style="stop-color:#5D6EC5"></stop></linearGradient><path style="fill:url(#hair1XMLID_2561_);stroke:#1E1E1E;stroke-linecap:round;stroke-linejoin:round;" d="M249.372,167.627c0,0,7.056-14.957,13.755-18.307c4.244,7.145,35.286,54.27,41.54,97.82c0,0,15.633-53.375,4.913-80.623c-10.721-27.248-29.928-36.405-34.841-39.308c-4.912-2.902-22.464,9.819-22.464,9.819"></path></g></g><g><g><path style="fill:#FFF0DE;" d="M185.256,181.536c0,0,5.852-11.712,8.195-12.295c2.342-0.585-0.816,19.084-4.1,18.149C186.279,186.513,184.084,184.318,185.256,181.536z"></path><path style="fill:#FFF0DE;" d="M193.369,186.217c0,0,0.45-7.659,2.929-9.365c2.478-1.707,1.757,11.708,0,11.708C194.541,188.56,193.369,189.145,193.369,186.217z"></path><path style="fill:#FFF0DE;" d="M309.744,181.536c0,0-5.853-11.712-8.195-12.295c-2.343-0.585,0.816,19.084,4.1,18.149C308.721,186.513,310.915,184.318,309.744,181.536z"></path><path style="fill:#FFF0DE;" d="M301.631,186.217c0,0-0.451-7.659-2.93-9.365c-2.478-1.707-1.756,11.708,0,11.708C300.459,188.56,301.631,189.145,301.631,186.217z"></path></g></g></g></svg>