<svg xmlns="http://www.w3.org/2000/svg" width="500" height="500" version="1.1"><g id="x199"><g><linearGradient id="hair1XMLID_4040_" gradientUnits="userSpaceOnUse" x1="250" y1="225.5381" x2="250" y2="133.6552"><stop offset="0" style="stop-color:#FCFCE4"></stop><stop offset="0.5" style="stop-color:#A0C8DD"></stop><stop offset="1" style="stop-color:#5D6EC5"></stop></linearGradient><path style="fill:url(#hair1XMLID_4040_);stroke:#1E1E1E;stroke-linecap:round;stroke-linejoin:round;" d="M311.791,136.043c-17.105-17.505-41.811-23.971-61.792-20.231c-19.98-3.739-44.686,2.727-61.791,20.231c-13.126,13.432-22.395,30.316-22.395,51.335c0,24.494,15.344,47.594,26.063,51.78c-7.366-33.656-0.486-62.627,5.109-71.842c1.808-2.168,29.517-5.519,53.014-5.647c2.956,0.016,16.831,1.069,22.19,1.404c-1.34,3.685-1.34,5.695-1.34,5.695s12.459-4.672,16.652-4.704c0.141,0.017,0.283,0.034,0.424,0.052c-0.998,4.333-1.332,6.997-1.332,6.997s10.721-2.01,16.416-2.68c-1.676,3.35-3.686,8.71-3.686,8.71l6.699,0.335l-1.674,8.04c0,0,6.365,13.4,6.365,15.745c0.139-0.266,0.279-0.538,0.422-0.813c0.578,10.334-0.105,25.419-3.014,38.709c10.719-4.187,26.063-27.286,26.063-51.78C334.186,166.359,324.918,149.476,311.791,136.043z"></path><linearGradient id="hair1XMLID_4041_" gradientUnits="userSpaceOnUse" x1="310.5703" y1="235.2612" x2="310.5703" y2="135.753"><stop offset="0" style="stop-color:#FCFCE4"></stop><stop offset="0.5" style="stop-color:#A0C8DD"></stop><stop offset="1" style="stop-color:#5D6EC5"></stop></linearGradient><path style="fill:url(#hair1XMLID_4041_);stroke:#1E1E1E;stroke-linecap:round;stroke-linejoin:round;" d="M314.632,232.85c-0.334,1.34-5.278,53.228-7.288,60.597c-2.346-24.12,1.004-54.604,1.004-54.604"></path><g><linearGradient id="hair1XMLID_4042_" gradientUnits="userSpaceOnUse" x1="218.5757" y1="222.8662" x2="218.5757" y2="133.2001"><stop offset="0" style="stop-color:#FCFCE4"></stop><stop offset="0.5" style="stop-color:#A0C8DD"></stop><stop offset="1" style="stop-color:#5D6EC5"></stop></linearGradient><path style="fill:url(#hair1XMLID_4042_);stroke:#1E1E1E;stroke-linecap:round;stroke-linejoin:round;" d="M253.43,158.718c0,0-3.35-25.46-12.396-31.155c-23.114,2.01-36.515,12.395-42.545,18.09c-6.029,5.695-18.989,55.998-13.399,87.77c6.365,36.178,20.77,57.954,30.819,66.999c-10.72-37.52,3.686-123.948,20.101-152.088"></path><linearGradient id="hair1XMLID_4043_" gradientUnits="userSpaceOnUse" x1="206.333" y1="222.8662" x2="206.333" y2="133.2001"><stop offset="0" style="stop-color:#FCFCE4"></stop><stop offset="0.5" style="stop-color:#A0C8DD"></stop><stop offset="1" style="stop-color:#5D6EC5"></stop></linearGradient><path style="fill:url(#hair1XMLID_4043_);stroke:#1E1E1E;stroke-linecap:round;stroke-linejoin:round;" d="M207.869,229.069c0,2.345,2.346,74.703,12.396,102.509c-11.055-13.066-40.87-72.025-21.44-170.515"></path><linearGradient id="hair1XMLID_4044_" gradientUnits="userSpaceOnUse" x1="236.8218" y1="222.8667" x2="236.8218" y2="133.2002"><stop offset="0" style="stop-color:#FCFCE4"></stop><stop offset="0.5" style="stop-color:#A0C8DD"></stop><stop offset="1" style="stop-color:#5D6EC5"></stop></linearGradient><path style="fill:url(#hair1XMLID_4044_);stroke:#1E1E1E;stroke-linecap:round;stroke-linejoin:round;" d="M244.384,149.338c0,0,3.685,56.95-15.41,92.125c6.365-28.475,6.7-87.435,6.7-87.435"></path></g><path style="fill:none;stroke:#1E1E1E;stroke-linecap:round;stroke-linejoin:round;" d="M249.744,122.204c0,0,9.715,11.39,5.36,36.515"></path><linearGradient id="hair1XMLID_4045_" gradientUnits="userSpaceOnUse" x1="276.4551" y1="222.8667" x2="276.4551" y2="133.2001"><stop offset="0" style="stop-color:#FCFCE4"></stop><stop offset="0.5" style="stop-color:#A0C8DD"></stop><stop offset="1" style="stop-color:#5D6EC5"></stop></linearGradient><path style="fill:url(#hair1XMLID_4045_);stroke:#1E1E1E;stroke-linecap:round;stroke-linejoin:round;" d="M272.859,161.733c0.67-1.005,8.375-17.755,7.035-28.14"></path><linearGradient id="hair1XMLID_4046_" gradientUnits="userSpaceOnUse" x1="291.6191" y1="222.8667" x2="291.6191" y2="133.2003"><stop offset="0" style="stop-color:#FCFCE4"></stop><stop offset="0.5" style="stop-color:#A0C8DD"></stop><stop offset="1" style="stop-color:#5D6EC5"></stop></linearGradient><path style="fill:url(#hair1XMLID_4046_);stroke:#1E1E1E;stroke-linecap:round;stroke-linejoin:round;" d="M287.264,164.749c0,0,6.365-8.04,8.711-17.42"></path></g></g></svg>