<svg xmlns="http://www.w3.org/2000/svg" width="500" height="500" version="1.1"><g id="x206"><g><g><g><linearGradient id="hair1XMLID_4088_" gradientUnits="userSpaceOnUse" x1="307.498" y1="209.6665" x2="307.498" y2="149.3334"><stop offset="0" style="stop-color:#FCFCE4"></stop><stop offset="0.5" style="stop-color:#A0C8DD"></stop><stop offset="1" style="stop-color:#5D6EC5"></stop></linearGradient><path style="fill:url(#hair1XMLID_4088_);stroke:#1E1E1E;stroke-linecap:round;stroke-linejoin:round;" d="M308.115,266.17c-0.446-13.176,3.127-35.733,3.127-35.733S296.726,244.729,308.115,266.17z"></path><linearGradient id="hair1XMLID_4089_" gradientUnits="userSpaceOnUse" x1="191.9194" y1="209.6665" x2="191.9194" y2="149.3334"><stop offset="0" style="stop-color:#FCFCE4"></stop><stop offset="0.5" style="stop-color:#A0C8DD"></stop><stop offset="1" style="stop-color:#5D6EC5"></stop></linearGradient><path style="fill:url(#hair1XMLID_4089_);stroke:#1E1E1E;stroke-linecap:round;stroke-linejoin:round;" d="M191.302,266.17c0.446-13.176-3.127-35.733-3.127-35.733S202.691,244.729,191.302,266.17z"></path></g><g><linearGradient id="hair1XMLID_4090_" gradientUnits="userSpaceOnUse" x1="249.6294" y1="209.6665" x2="249.6294" y2="149.3335"><stop offset="0" style="stop-color:#FCFCE4"></stop><stop offset="0.5" style="stop-color:#A0C8DD"></stop><stop offset="1" style="stop-color:#5D6EC5"></stop></linearGradient><path style="fill:url(#hair1XMLID_4090_);stroke:#1E1E1E;stroke-linecap:round;stroke-linejoin:round;" d="M311.421,134.843c-17.105-17.505-41.811-23.971-61.792-20.231c-19.98-3.739-44.686,2.727-61.791,20.231c-13.126,13.432-22.395,30.316-22.395,51.335c0,24.494,15.344,44.594,26.063,48.78c-7.366-33.656-0.486-59.627,5.109-68.842c1.808-2.168,29.517-5.519,53.014-5.647c23.498,0.128,51.207,3.479,53.015,5.647c1.882,3.099,3.906,8.1,5.487,14.643l5.005,6.351l-2.681,6.253l5.36,8.04l-4.859,4.859c-0.002,0.8-0.009,1.605-0.026,2.422l3.546,5.673l-4.217,5.026c-0.117,1.139-0.248,2.289-0.398,3.452l3.945,5.144l-5.718,5.36c-0.111,0.54-0.217,1.076-0.335,1.619c10.719-4.187,26.063-24.286,26.063-48.78C333.815,165.159,324.547,148.275,311.421,134.843z"></path><linearGradient id="hair1XMLID_4091_" gradientUnits="userSpaceOnUse" x1="179.73" y1="209.6665" x2="179.73" y2="149.3335"><stop offset="0" style="stop-color:#FCFCE4"></stop><stop offset="0.5" style="stop-color:#A0C8DD"></stop><stop offset="1" style="stop-color:#5D6EC5"></stop></linearGradient><path style="fill:url(#hair1XMLID_4091_);stroke:#1E1E1E;stroke-linecap:round;stroke-linejoin:round;" d="M187.845,205.647c0,0-0.894,32.606,6.7,43.326c-15.41-4.913-37.521-36.626-26.8-78.836"></path><g><linearGradient id="hair1XMLID_4092_" gradientUnits="userSpaceOnUse" x1="322.9824" y1="209.6665" x2="322.9824" y2="149.3335"><stop offset="0" style="stop-color:#FCFCE4"></stop><stop offset="0.5" style="stop-color:#A0C8DD"></stop><stop offset="1" style="stop-color:#5D6EC5"></stop></linearGradient><path style="fill:url(#hair1XMLID_4092_);stroke:#1E1E1E;stroke-linecap:round;stroke-linejoin:round;" d="M308.222,180.41c0,0,4.69,3.797,7.817,5.137c3.126,1.341,7.146-2.68,9.38-4.689c1.116,1.563,4.466,3.796,6.923,3.796s6.7-4.466,6.7-4.466s0.446-9.38-1.563-11.614c-3.797-2.457-6.923-4.244-6.923-4.244s-3.574,1.563-5.137,3.35c-3.351-1.563-6.924-5.137-8.264-5.36s-8.487,2.233-10.273,4.243"></path><path style="fill:none;stroke:#1E1E1E;stroke-linecap:round;stroke-linejoin:round;" d="M321.186,166.563c0.893,0.224,6.477,5.137,9.38,7.37"></path><path style="fill:none;stroke:#1E1E1E;stroke-linecap:round;stroke-linejoin:round;" d="M322.302,181.527c0,0,5.806-7.37,6.7-8.934"></path><path style="fill:none;stroke:#1E1E1E;stroke-linecap:round;stroke-linejoin:round;" d="M310.912,173.71c0.67,0,5.136-2.233,10.72,1.563"></path></g><g><linearGradient id="hair1XMLID_4093_" gradientUnits="userSpaceOnUse" x1="299.5469" y1="209.6665" x2="299.5469" y2="149.3335"><stop offset="0" style="stop-color:#FCFCE4"></stop><stop offset="0.5" style="stop-color:#A0C8DD"></stop><stop offset="1" style="stop-color:#5D6EC5"></stop></linearGradient><path style="fill:url(#hair1XMLID_4093_);stroke:#1E1E1E;stroke-linecap:round;stroke-linejoin:round;" d="M303.086,152.94c0,0,14.293,38.413-9.157,63.427c6.03-19.653-2.233-56.28-2.233-56.28"></path><linearGradient id="hair1XMLID_4094_" gradientUnits="userSpaceOnUse" x1="218.0088" y1="209.6665" x2="218.0088" y2="149.3335"><stop offset="0" style="stop-color:#FCFCE4"></stop><stop offset="0.5" style="stop-color:#A0C8DD"></stop><stop offset="1" style="stop-color:#5D6EC5"></stop></linearGradient><path style="fill:url(#hair1XMLID_4094_);stroke:#1E1E1E;stroke-linecap:round;stroke-linejoin:round;" d="M255.292,156.513c0,0-26.8,23.227-43.773,57.174c0-10.497,7.37-41.317,10.05-45.114c-12.283,12.506-17.196,30.82-20.77,45.784c-8.264-18.09-3.351-35.287,0.67-48.017c-14.07,25.683-11.614,50.25-11.614,55.387c-8.933-9.157-18.313-52.93,8.71-79.507"></path><linearGradient id="hair1XMLID_4095_" gradientUnits="userSpaceOnUse" x1="259.8887" y1="209.6665" x2="259.8887" y2="149.3335"><stop offset="0" style="stop-color:#FCFCE4"></stop><stop offset="0.5" style="stop-color:#A0C8DD"></stop><stop offset="1" style="stop-color:#5D6EC5"></stop></linearGradient><path style="fill:url(#hair1XMLID_4095_);stroke:#1E1E1E;stroke-linecap:round;stroke-linejoin:round;" d="M293.259,151.376c0,0,5.137,48.017-12.283,62.533c4.689-24.79,0.223-42.209,0.223-42.209s2.011,34.393-22.333,46.677c10.05-15.188,14.07-37.968,12.953-41.987c-3.127,12.953-13.624,43.327-39.53,42.88c5.807-4.02,10.051-8.486,10.051-8.486l-16.526,2.903c0,0,27.469-41.093,29.256-66.107"></path></g></g></g></g></g></svg>