<svg xmlns="http://www.w3.org/2000/svg" width="500" height="500" version="1.1"><g id="x020"><g><linearGradient id="hair1XMLID_2562_" gradientUnits="userSpaceOnUse" x1="250.0005" y1="226.002" x2="250.0005" y2="163.0116"><stop offset="0" style="stop-color:#FCFCE4"></stop><stop offset="0.5" style="stop-color:#A0C8DD"></stop><stop offset="1" style="stop-color:#5D6EC5"></stop></linearGradient><path style="fill:url(#hair1XMLID_2562_);stroke:#1E1E1E;stroke-linecap:round;stroke-linejoin:round;" d="M343.844,197.107c-2.973,2.228-9.094,1.476-10.433-3.722c0.229-2.101,0.356-4.244,0.356-6.423c0-20.915-9.223-37.714-22.283-51.08c-8.344-8.539-18.507-14.432-29.041-17.789c-6.712-3.699-12.794-6.154-16.852-6.299c-11.665-0.415-14.778,2.66-15.144,3.076c-0.366-0.416-3.479-3.491-15.145-3.076c-3.831,0.136-34.803,10.705-46.788,24.087c-12.467,13.921-22.283,30.165-22.283,51.08c0,0.073,0.004,0.145,0.004,0.217c-3.542,1.12-7.869,0.801-9.994-0.792c-0.894,5.36,5.36,9.828,9.38,8.488c-4.02,2.232-6.932,14.758-6.039,21.458c1.833-4.25,5.917-9.083,9.647-10.681c-4.403,7.785-6.19,24.394,2.646,34.334c-0.299-5.67,0.801-14.127,3.693-20.584c-1.736,9.181,0.68,19.931,8.264,27.764l-0.417-14.5c1.583,5.167,7.415,8.783,9.25,9.5c-0.988-4.515-2.211-15.551-2.722-19.766l19.096-50.977l43.774-7.594l50.474,19.653l7.604,28.896c-0.32,7.16-0.512,15.742-2.31,23.955c3.25-0.583,7.167-2.583,8.917-5.417c2.167,4.5,1.07,10.633,1.07,10.633c4.347-2.633,10.764-14.633,8.745-23.896c5.36-0.447,9.227,2.242,12.352,6.262c0.893-6.7-4.73-15.767-8.75-18C336.334,206.917,342.5,204,343.844,197.107z"></path><g><g><linearGradient id="hair1XMLID_2563_" gradientUnits="userSpaceOnUse" x1="244.186" y1="222.1338" x2="244.186" y2="155.1339"><stop offset="0" style="stop-color:#FCFCE4"></stop><stop offset="0.5" style="stop-color:#A0C8DD"></stop><stop offset="1" style="stop-color:#5D6EC5"></stop></linearGradient><path style="fill:url(#hair1XMLID_2563_);stroke:#1E1E1E;stroke-linecap:round;stroke-linejoin:round;" d="M245.239,117.015c0,0,0.894-13.4-12.506-18.76c12.06-3.127,25.908,8.042,22.333,20.548"></path><linearGradient id="hair1XMLID_2564_" gradientUnits="userSpaceOnUse" x1="264.248" y1="223.1665" x2="264.248" y2="156.1666"><stop offset="0" style="stop-color:#FCFCE4"></stop><stop offset="0.5" style="stop-color:#A0C8DD"></stop><stop offset="1" style="stop-color:#5D6EC5"></stop></linearGradient><path style="fill:url(#hair1XMLID_2564_);stroke:#1E1E1E;stroke-linecap:round;stroke-linejoin:round;" d="M255.128,119.387c0,0-2.232-16.08,18.313-14.292c-9.825,4.02-8.04,13.845-8.04,13.845"></path></g></g><g><g><g><linearGradient id="hair1XMLID_2565_" gradientUnits="userSpaceOnUse" x1="252.0645" y1="223.1665" x2="252.0645" y2="156.1665"><stop offset="0" style="stop-color:#FCFCE4"></stop><stop offset="0.5" style="stop-color:#A0C8DD"></stop><stop offset="1" style="stop-color:#5D6EC5"></stop></linearGradient><path style="fill:url(#hair1XMLID_2565_);stroke:#1E1E1E;stroke-linecap:round;stroke-linejoin:round;" d="M215.65,136.59c-24.352,9.741-34.505,35.845-36.85,52.595c-2.806,20.042,7.035,44.89,16.75,56.279c0.67-35.957,18.09-76.045,18.09-76.045l9.714-0.053l6.366,3.738l2.344-3.787l5.026,3.117l2.68-3.351l5.025,3.685l29.814-3.685c0,0,9.605,2.355,27.693,33.61c1.963,3.392,6.477,23.452,6.477,35.064c17.157-18.532,17.709-47.801,16.752-52.595c-6.7-33.5-31.283-45.531-41.207-48.575"></path><linearGradient id="hair1XMLID_2566_" gradientUnits="userSpaceOnUse" x1="196.1816" y1="223.167" x2="196.1816" y2="156.1669"><stop offset="0" style="stop-color:#FCFCE4"></stop><stop offset="0.5" style="stop-color:#A0C8DD"></stop><stop offset="1" style="stop-color:#5D6EC5"></stop></linearGradient><path style="fill:url(#hair1XMLID_2566_);stroke:#1E1E1E;stroke-linecap:round;stroke-linejoin:round;" d="M203.59,196.221c0,0-8.71,27.805,0,45.895c-8.71-7.035-16.75-17.42-14.405-41.205"></path><linearGradient id="hair1XMLID_2567_" gradientUnits="userSpaceOnUse" x1="213.6401" y1="223.1475" x2="213.6401" y2="156.2749"><stop offset="0" style="stop-color:#FCFCE4"></stop><stop offset="0.5" style="stop-color:#A0C8DD"></stop><stop offset="1" style="stop-color:#5D6EC5"></stop></linearGradient><path style="fill:url(#hair1XMLID_2567_);stroke:#1E1E1E;stroke-linecap:round;stroke-linejoin:round;" d="M205.935,185.5c-2.68,12.395-1.005,15.745,2.681,27.805c3.35-22.779,21.104-48.574,21.104-48.574s-10.385-12.06-14.405-11.055c-4.02,1.005-13.064,7.705-17.755,26.129"></path></g></g><linearGradient id="hair1XMLID_2568_" gradientUnits="userSpaceOnUse" x1="289.1201" y1="223.1665" x2="289.1201" y2="156.1663"><stop offset="0" style="stop-color:#FCFCE4"></stop><stop offset="0.5" style="stop-color:#A0C8DD"></stop><stop offset="1" style="stop-color:#5D6EC5"></stop></linearGradient><path style="fill:url(#hair1XMLID_2568_);stroke:#1E1E1E;stroke-linecap:round;stroke-linejoin:round;" d="M272.6,167.075c0,0,14.405,19.43,14.405,39.194c1.707-3.292,3.004-8.645,3.395-15.085c3.118,9.406,6.656,24.075,3.976,36.86c10.05-14.74,15.409-38.189,7.369-54.605"></path><linearGradient id="hair1XMLID_2569_" gradientUnits="userSpaceOnUse" x1="267.4307" y1="223.1665" x2="267.4307" y2="156.1663"><stop offset="0" style="stop-color:#FCFCE4"></stop><stop offset="0.5" style="stop-color:#A0C8DD"></stop><stop offset="1" style="stop-color:#5D6EC5"></stop></linearGradient><path style="fill:url(#hair1XMLID_2569_);stroke:#1E1E1E;stroke-linecap:round;stroke-linejoin:round;" d="M253.17,163.725c0,0,19.765,17.085,26.465,37.185c4.354-8.04,2.345-30.82-11.391-45.56"></path><linearGradient id="hair1XMLID_2570_" gradientUnits="userSpaceOnUse" x1="247.9883" y1="223.1675" x2="247.9883" y2="156.1667"><stop offset="0" style="stop-color:#FCFCE4"></stop><stop offset="0.5" style="stop-color:#A0C8DD"></stop><stop offset="1" style="stop-color:#5D6EC5"></stop></linearGradient><path style="fill:url(#hair1XMLID_2570_);stroke:#1E1E1E;stroke-linecap:round;stroke-linejoin:round;" d="M232.065,164.73c0,0,6.03-8.71,7.705-9.38c1.675-0.67,12.06-0.335,14.07,0.67c2.01,1.005,14.069,23.784,8.71,43.55c-2.681-9.045-9.045-27.805-23.115-37.855"></path></g></g><g><g><path style="fill:#FFF0DE;" d="M181.506,181.536c0,0,5.852-11.712,8.195-12.295c2.342-0.585-0.816,19.084-4.1,18.149C182.529,186.513,180.334,184.318,181.506,181.536z"></path><path style="fill:#FFF0DE;" d="M189.619,186.217c0,0,0.45-7.659,2.929-9.365c2.478-1.707,1.757,11.708,0,11.708C190.791,188.56,189.619,189.145,189.619,186.217z"></path><path style="fill:#FFF0DE;" d="M319.744,181.536c0,0-5.853-11.712-8.195-12.295c-2.343-0.585,0.816,19.084,4.1,18.149C318.721,186.513,320.915,184.318,319.744,181.536z"></path><path style="fill:#FFF0DE;" d="M311.631,186.217c0,0-0.451-7.659-2.93-9.365c-2.478-1.707-1.756,11.708,0,11.708C310.459,188.56,311.631,189.145,311.631,186.217z"></path></g></g></g></svg>