<svg xmlns="http://www.w3.org/2000/svg" width="500" height="500" version="1.1"><g id="x207"><g><linearGradient id="hair1XMLID_4096_" gradientUnits="userSpaceOnUse" x1="249.4932" y1="250" x2="249.4932" y2="141"><stop offset="0" style="stop-color:#FCFCE4"></stop><stop offset="0.5" style="stop-color:#A0C8DD"></stop><stop offset="1" style="stop-color:#5D6EC5"></stop></linearGradient><path style="fill:url(#hair1XMLID_4096_);stroke:#1E1E1E;stroke-linecap:round;stroke-linejoin:round;" d="M311.284,134.843c-17.105-17.505-41.811-23.971-61.792-20.231c-19.98-3.739-44.686,2.727-61.791,20.231c-13.126,13.432-22.395,30.316-22.395,51.335c0,24.494,15.344,44.594,26.063,48.78c-7.366-33.656-0.486-59.627,5.109-68.842c1.808-2.168,29.517-5.519,53.014-5.647c23.498,0.128,51.207,3.479,53.014,5.647c5.596,9.215,12.476,35.186,5.109,68.842c10.719-4.187,26.063-24.286,26.063-48.78C333.679,165.159,324.41,148.275,311.284,134.843z"></path><linearGradient id="hair1XMLID_4097_" gradientUnits="userSpaceOnUse" x1="210.042" y1="250" x2="210.042" y2="140.9999"><stop offset="0" style="stop-color:#FCFCE4"></stop><stop offset="0.5" style="stop-color:#A0C8DD"></stop><stop offset="1" style="stop-color:#5D6EC5"></stop></linearGradient><polyline style="fill:url(#hair1XMLID_4097_);stroke:#1E1E1E;stroke-linecap:round;stroke-linejoin:round;" points="221.097,154.168 221.767,160.533 216.408,168.238 209.708,163.213 206.022,169.913 199.993,165.893 198.317,160.533 "></polyline><linearGradient id="hair1XMLID_4098_" gradientUnits="userSpaceOnUse" x1="265.9863" y1="250" x2="265.9863" y2="140.9999"><stop offset="0" style="stop-color:#FCFCE4"></stop><stop offset="0.5" style="stop-color:#A0C8DD"></stop><stop offset="1" style="stop-color:#5D6EC5"></stop></linearGradient><path style="fill:url(#hair1XMLID_4098_);stroke:#1E1E1E;stroke-linecap:round;stroke-linejoin:round;" d="M220.427,152.828c0,0,0.67,40.2,32.495,66.666c31.825,26.465,58.625,16.415,58.625,16.415l-1.34-8.711c0,0-35.51,2.681-49.915-5.024c-25.125-28.476-22.11-64.99-22.11-73.03"></path><linearGradient id="hair1XMLID_4099_" gradientUnits="userSpaceOnUse" x1="334.9971" y1="250" x2="334.9971" y2="141.0001"><stop offset="0" style="stop-color:#FCFCE4"></stop><stop offset="0.5" style="stop-color:#A0C8DD"></stop><stop offset="1" style="stop-color:#5D6EC5"></stop></linearGradient><path style="fill:url(#hair1XMLID_4099_);stroke:#1E1E1E;stroke-linecap:round;stroke-linejoin:round;" d="M318.917,188.338c0,0,1.473,32.16,32.16,51.925c-13.502-21.44-15.957-48.91-20.376-73.03"></path><linearGradient id="hair1XMLID_4100_" gradientUnits="userSpaceOnUse" x1="281.2939" y1="250" x2="281.2939" y2="141.0001"><stop offset="0" style="stop-color:#FCFCE4"></stop><stop offset="0.5" style="stop-color:#A0C8DD"></stop><stop offset="1" style="stop-color:#5D6EC5"></stop></linearGradient><path style="fill:url(#hair1XMLID_4100_);stroke:#1E1E1E;stroke-linecap:round;stroke-linejoin:round;" d="M237.177,149.143c0,0,5.025,50.585,38.19,69.68c27.409,15.782,42.545,43.216,43.885,54.941c10.72-35.845,6.048-103.229-3.35-119.26c-11.391-19.43-43.551-47.235-57.955-43.885c-6.699,1.34-18.09,11.055-18.09,11.055"></path><g><linearGradient id="hair1XMLID_4101_" gradientUnits="userSpaceOnUse" x1="195.188" y1="250" x2="195.188" y2="141"><stop offset="0" style="stop-color:#FCFCE4"></stop><stop offset="0.5" style="stop-color:#A0C8DD"></stop><stop offset="1" style="stop-color:#5D6EC5"></stop></linearGradient><path style="fill:url(#hair1XMLID_4101_);stroke:#1E1E1E;stroke-linecap:round;stroke-linejoin:round;" d="M204.012,158.523c0,0-26.465,46.565,1.005,124.285c-25.46-17.086-73.7-105.861-4.02-163.146c0,0,18.425,0,24.455,3.685"></path><linearGradient id="hair1XMLID_4102_" gradientUnits="userSpaceOnUse" x1="195.4028" y1="250" x2="195.4028" y2="140.9998"><stop offset="0" style="stop-color:#FCFCE4"></stop><stop offset="0.5" style="stop-color:#A0C8DD"></stop><stop offset="1" style="stop-color:#5D6EC5"></stop></linearGradient><path style="fill:url(#hair1XMLID_4102_);stroke:#1E1E1E;stroke-linecap:round;stroke-linejoin:round;" d="M183.175,238.588c0.335,1.005,7.37,18.759,24.455,28.81c-12.395-22.11-17.755-42.545-13.734-75.041"></path></g></g></g></svg>