<svg xmlns="http://www.w3.org/2000/svg" width="500" height="500" version="1.1"><g id="x208"><g><linearGradient id="hair1XMLID_4103_" gradientUnits="userSpaceOnUse" x1="249.9209" y1="226" x2="249.9209" y2="142.0001"><stop offset="0" style="stop-color:#FCFCE4"></stop><stop offset="0.5" style="stop-color:#A0C8DD"></stop><stop offset="1" style="stop-color:#5D6EC5"></stop></linearGradient><path style="fill:url(#hair1XMLID_4103_);stroke:#1E1E1E;stroke-linecap:round;stroke-linejoin:round;" d="M311.712,134.843c-17.105-17.505-41.811-23.971-61.792-20.231c-19.98-3.739-44.686,2.727-61.791,20.231c-13.126,13.432-22.395,30.316-22.395,51.335c0,24.494,15.344,44.594,26.063,48.78c-7.366-33.656-0.486-59.627,5.109-68.842c1.808-2.168,29.517-5.519,53.014-5.647c23.498,0.128,51.207,3.479,53.014,5.647c5.596,9.215,12.476,35.186,5.109,68.842c10.719-4.187,26.063-24.286,26.063-48.78C334.106,165.159,324.838,148.275,311.712,134.843z"></path><g><g><linearGradient id="hair1XMLID_4104_" gradientUnits="userSpaceOnUse" x1="174.9595" y1="226" x2="174.9595" y2="141.9996"><stop offset="0" style="stop-color:#FCFCE4"></stop><stop offset="0.5" style="stop-color:#A0C8DD"></stop><stop offset="1" style="stop-color:#5D6EC5"></stop></linearGradient><path style="fill:url(#hair1XMLID_4104_);stroke:#1E1E1E;stroke-linecap:round;stroke-linejoin:round;" d="M166.905,173.263c0,0-6.365,30.15-3.016,49.245c3.351,19.095,12.396,25.795,23.115,32.496c-6.03-28.141-5.36-51.925-5.36-51.925"></path><linearGradient id="hair1XMLID_4105_" gradientUnits="userSpaceOnUse" x1="325.0391" y1="226" x2="325.0391" y2="141.9996"><stop offset="0" style="stop-color:#FCFCE4"></stop><stop offset="0.5" style="stop-color:#A0C8DD"></stop><stop offset="1" style="stop-color:#5D6EC5"></stop></linearGradient><path style="fill:url(#hair1XMLID_4105_);stroke:#1E1E1E;stroke-linecap:round;stroke-linejoin:round;" d="M333.096,173.263c0,0,6.364,30.15,3.015,49.245c-3.351,19.095-12.396,25.795-23.115,32.496c6.03-28.141,5.36-51.925,5.36-51.925"></path></g><g><g><g><linearGradient id="hair1XMLID_4106_" gradientUnits="userSpaceOnUse" x1="203.2676" y1="226" x2="203.2676" y2="141.9997"><stop offset="0" style="stop-color:#FCFCE4"></stop><stop offset="0.5" style="stop-color:#A0C8DD"></stop><stop offset="1" style="stop-color:#5D6EC5"></stop></linearGradient><path style="fill:url(#hair1XMLID_4106_);stroke:#1E1E1E;stroke-linecap:round;stroke-linejoin:round;" d="M192.892,161.873c-9.715,18.09-7.878,41.541-4.527,60.97c4.689-25.46,32.495-57.62,32.495-57.62v-10.385"></path></g><g><linearGradient id="hair1XMLID_4107_" gradientUnits="userSpaceOnUse" x1="296.7324" y1="226" x2="296.7324" y2="141.9997"><stop offset="0" style="stop-color:#FCFCE4"></stop><stop offset="0.5" style="stop-color:#A0C8DD"></stop><stop offset="1" style="stop-color:#5D6EC5"></stop></linearGradient><path style="fill:url(#hair1XMLID_4107_);stroke:#1E1E1E;stroke-linecap:round;stroke-linejoin:round;" d="M307.107,161.873c9.715,18.09,7.878,41.541,4.527,60.97c-4.689-25.46-32.495-57.62-32.495-57.62v-10.385"></path></g></g><g><g><linearGradient id="hair1XMLID_4108_" gradientUnits="userSpaceOnUse" x1="180.8228" y1="226" x2="180.8228" y2="142.0001"><stop offset="0" style="stop-color:#FCFCE4"></stop><stop offset="0.5" style="stop-color:#A0C8DD"></stop><stop offset="1" style="stop-color:#5D6EC5"></stop></linearGradient><path style="fill:url(#hair1XMLID_4108_);stroke:#1E1E1E;stroke-linecap:round;stroke-linejoin:round;" d="M173.112,259.693c0,0-6.029,25.795-1.005,33.834c5.025,8.041,18.091,16.08,18.091,16.08l1.34-5.693c0,0-15.075-9.381-16.415-14.07C172.442,280.463,173.112,259.693,173.112,259.693z"></path><linearGradient id="hair1XMLID_4109_" gradientUnits="userSpaceOnUse" x1="195.853" y1="226" x2="195.853" y2="142"><stop offset="0" style="stop-color:#FCFCE4"></stop><stop offset="0.5" style="stop-color:#A0C8DD"></stop><stop offset="1" style="stop-color:#5D6EC5"></stop></linearGradient><path style="fill:url(#hair1XMLID_4109_);stroke:#1E1E1E;stroke-linecap:round;stroke-linejoin:round;" d="M202.927,155.173c0,0-10.438,37.126-6.365,67.67c5.36,40.2,22.78,54.604,22.445,59.295c-1.675,13.734-5.695,15.074-5.695,15.074s-15.41,5.695-20.1,5.025c-4.69-0.67-17.755-14.07-19.43-18.426c-1.676-4.354-1.006-39.194-0.671-59.294c-0.67-34.505,3.016-53.6,8.711-69.01"></path><path style="fill:none;stroke:#1E1E1E;stroke-linecap:round;stroke-linejoin:round;" d="M208.958,297.549c0-1.006,1.005-5.361,0-8.711"></path><path style="fill:none;stroke:#1E1E1E;stroke-linecap:round;stroke-linejoin:round;" d="M189.527,292.523c0,0,2.346,4.689,7.705,8.375"></path><linearGradient id="hair1XMLID_4110_" gradientUnits="userSpaceOnUse" x1="201.2549" y1="226" x2="201.2549" y2="141.9999"><stop offset="0" style="stop-color:#FCFCE4"></stop><stop offset="0.5" style="stop-color:#A0C8DD"></stop><stop offset="1" style="stop-color:#5D6EC5"></stop></linearGradient><path style="fill:url(#hair1XMLID_4110_);stroke:#1E1E1E;stroke-linecap:round;stroke-linejoin:round;" d="M195.557,229.543c0,0,14.405,26.8,14.74,30.15s-17.42-9.38-18.09-10.72"></path><g><linearGradient id="hair1XMLID_4111_" gradientUnits="userSpaceOnUse" x1="209.0444" y1="226" x2="209.0444" y2="141.9998"><stop offset="0" style="stop-color:#FCFCE4"></stop><stop offset="0.5" style="stop-color:#A0C8DD"></stop><stop offset="1" style="stop-color:#5D6EC5"></stop></linearGradient><path style="fill:url(#hair1XMLID_4111_);stroke:#1E1E1E;stroke-linecap:round;stroke-linejoin:round;" d="M191.873,303.914c0,0-6.03,24.455,2.01,38.523c1.675,1.006,4.02,3.016,4.02,3.016c-0.67-2.68,4.355,2.346,4.355,2.346s14.74,5.359,23.115-9.381c0.67-3.016-0.67-6.365-0.67-6.365l3.685,1.006c0,0-3.015-22.781-17.42-33.836C201.922,299.893,191.873,303.914,191.873,303.914z"></path><path style="fill:none;stroke:#1E1E1E;stroke-linecap:round;stroke-linejoin:round;" d="M195.892,323.008c-0.335,1.676-1.34,13.736,4.69,20.77"></path></g></g><g><linearGradient id="hair1XMLID_4112_" gradientUnits="userSpaceOnUse" x1="319.1768" y1="226" x2="319.1768" y2="142.0001"><stop offset="0" style="stop-color:#FCFCE4"></stop><stop offset="0.5" style="stop-color:#A0C8DD"></stop><stop offset="1" style="stop-color:#5D6EC5"></stop></linearGradient><path style="fill:url(#hair1XMLID_4112_);stroke:#1E1E1E;stroke-linecap:round;stroke-linejoin:round;" d="M326.888,259.693c0,0,6.029,25.795,1.005,33.834c-5.025,8.041-18.09,16.08-18.09,16.08l-1.341-5.693c0,0,15.075-9.381,16.415-14.07C327.558,280.463,326.888,259.693,326.888,259.693z"></path><linearGradient id="hair1XMLID_4113_" gradientUnits="userSpaceOnUse" x1="304.1465" y1="226" x2="304.1465" y2="142"><stop offset="0" style="stop-color:#FCFCE4"></stop><stop offset="0.5" style="stop-color:#A0C8DD"></stop><stop offset="1" style="stop-color:#5D6EC5"></stop></linearGradient><path style="fill:url(#hair1XMLID_4113_);stroke:#1E1E1E;stroke-linecap:round;stroke-linejoin:round;" d="M297.072,155.173c0,0,10.438,37.126,6.365,67.67c-5.36,40.2-22.78,54.604-22.445,59.295c1.675,13.734,5.695,15.074,5.695,15.074s15.41,5.695,20.1,5.025c4.69-0.67,17.755-14.07,19.43-18.426c1.676-4.354,1.006-39.194,0.671-59.294c0.67-34.505-3.016-53.6-8.71-69.01"></path><path style="fill:none;stroke:#1E1E1E;stroke-linecap:round;stroke-linejoin:round;" d="M291.042,297.549c0-1.006-1.005-5.361,0-8.711"></path><path style="fill:none;stroke:#1E1E1E;stroke-linecap:round;stroke-linejoin:round;" d="M310.473,292.523c0,0-2.346,4.689-7.705,8.375"></path><linearGradient id="hair1XMLID_4114_" gradientUnits="userSpaceOnUse" x1="298.7441" y1="226" x2="298.7441" y2="141.9999"><stop offset="0" style="stop-color:#FCFCE4"></stop><stop offset="0.5" style="stop-color:#A0C8DD"></stop><stop offset="1" style="stop-color:#5D6EC5"></stop></linearGradient><path style="fill:url(#hair1XMLID_4114_);stroke:#1E1E1E;stroke-linecap:round;stroke-linejoin:round;" d="M304.442,229.543c0,0-14.405,26.8-14.74,30.15s17.42-9.38,18.09-10.72"></path><g><linearGradient id="hair1XMLID_4115_" gradientUnits="userSpaceOnUse" x1="290.9551" y1="226" x2="290.9551" y2="141.9998"><stop offset="0" style="stop-color:#FCFCE4"></stop><stop offset="0.5" style="stop-color:#A0C8DD"></stop><stop offset="1" style="stop-color:#5D6EC5"></stop></linearGradient><path style="fill:url(#hair1XMLID_4115_);stroke:#1E1E1E;stroke-linecap:round;stroke-linejoin:round;" d="M308.127,303.914c0,0,6.03,24.455-2.01,38.523c-1.675,1.006-4.02,3.016-4.02,3.016c0.67-2.68-4.355,2.346-4.355,2.346s-14.74,5.359-23.115-9.381c-0.67-3.016,0.67-6.365,0.67-6.365l-3.685,1.006c0,0,3.015-22.781,17.42-33.836C298.077,299.893,308.127,303.914,308.127,303.914z"></path><path style="fill:none;stroke:#1E1E1E;stroke-linecap:round;stroke-linejoin:round;" d="M304.107,323.008c0.335,1.676,1.34,13.736-4.69,20.77"></path></g></g></g><g><linearGradient id="hair1XMLID_4116_" gradientUnits="userSpaceOnUse" x1="249.9995" y1="226" x2="249.9995" y2="142"><stop offset="0" style="stop-color:#FCFCE4"></stop><stop offset="0.5" style="stop-color:#A0C8DD"></stop><stop offset="1" style="stop-color:#5D6EC5"></stop></linearGradient><path style="fill:url(#hair1XMLID_4116_);stroke:#1E1E1E;stroke-linecap:round;stroke-linejoin:round;" d="M219.85,152.493c0,0-14.74,43.215,17.755,74.37c-5.025-8.71-10.385-31.154-10.385-31.154s5.021,20.608,17.643,32.495h10.274c12.622-11.887,17.643-32.495,17.643-32.495s-5.359,22.444-10.385,31.154c32.495-31.154,17.755-74.37,17.755-74.37"></path><linearGradient id="hair1XMLID_4117_" gradientUnits="userSpaceOnUse" x1="248.3252" y1="226" x2="248.3252" y2="142.0001"><stop offset="0" style="stop-color:#FCFCE4"></stop><stop offset="0.5" style="stop-color:#A0C8DD"></stop><stop offset="1" style="stop-color:#5D6EC5"></stop></linearGradient><path style="fill:url(#hair1XMLID_4117_);stroke:#1E1E1E;stroke-linecap:round;stroke-linejoin:round;" d="M233.25,175.608c0,0,5.694,33.165,30.149,44.555c-11.055-13.735-17.419-34.17-17.419-34.17"></path></g></g></g></g></g></svg>