<svg xmlns="http://www.w3.org/2000/svg" width="500" height="500" version="1.1"><g id="x209"><g><linearGradient id="hair1XMLID_4118_" gradientUnits="userSpaceOnUse" x1="198.9214" y1="202.5" x2="198.9214" y2="135.4999"><stop offset="0" style="stop-color:#FCFCE4"></stop><stop offset="0.5" style="stop-color:#A0C8DD"></stop><stop offset="1" style="stop-color:#5D6EC5"></stop></linearGradient><path style="fill:url(#hair1XMLID_4118_);stroke:#1E1E1E;stroke-linecap:round;stroke-linejoin:round;" d="M193.893,249.643c1.005,1.005,10.72,13.736,10.385,21.775c-0.335,8.041-9.38,14.404-9.38,14.404s5.695-11.055,3.35-16.75c-2.345-5.693-4.689-10.719-4.689-10.719L193.893,249.643z"></path><linearGradient id="hair1XMLID_4119_" gradientUnits="userSpaceOnUse" x1="180.1147" y1="202.5" x2="180.1147" y2="135.5"><stop offset="0" style="stop-color:#FCFCE4"></stop><stop offset="0.5" style="stop-color:#A0C8DD"></stop><stop offset="1" style="stop-color:#5D6EC5"></stop></linearGradient><path style="fill:url(#hair1XMLID_4119_);stroke:#1E1E1E;stroke-linecap:round;stroke-linejoin:round;" d="M171.112,193.028c0,0-6.197,14.196-6.7,35.511c-0.502,21.314,6.365,36.514,3.351,58.959c0.335,7.035,13.734,14.74,13.734,14.74s19.431-15.074,13.065-49.244"></path><linearGradient id="hair1XMLID_4120_" gradientUnits="userSpaceOnUse" x1="248.7534" y1="202.5" x2="248.7534" y2="135.5"><stop offset="0" style="stop-color:#FCFCE4"></stop><stop offset="0.5" style="stop-color:#A0C8DD"></stop><stop offset="1" style="stop-color:#5D6EC5"></stop></linearGradient><path style="fill:url(#hair1XMLID_4120_);stroke:#1E1E1E;stroke-linecap:round;stroke-linejoin:round;" d="M309.977,211.18c8.223,0.596,12.687,4.711,14.249,6.49c5.022-8.539,8.714-19.484,8.714-31.492c0-21.019-9.269-37.903-22.395-51.335c-17.105-17.505-41.811-23.971-61.792-20.231c-19.98-3.739-44.686,2.727-61.791,20.231c-13.126,13.432-22.395,30.316-22.395,51.335c0,24.494,15.344,44.594,26.063,48.78c-7.366-33.656-0.486-59.627,5.109-68.842c1.808-2.168,29.517-5.519,53.014-5.647c23.498,0.128,51.207,3.479,53.015,5.647C305.957,173.015,310.864,189.305,309.977,211.18z"></path><path style="fill:none;stroke:#1E1E1E;stroke-linecap:round;stroke-linejoin:round;" d="M249.838,123.013c0,0,15.074-10.05,44.89,0.335"></path><linearGradient id="hair1XMLID_4121_" gradientUnits="userSpaceOnUse" x1="311.9805" y1="202.5" x2="311.9805" y2="135.4999"><stop offset="0" style="stop-color:#FCFCE4"></stop><stop offset="0.5" style="stop-color:#A0C8DD"></stop><stop offset="1" style="stop-color:#5D6EC5"></stop></linearGradient><path style="fill:url(#hair1XMLID_4121_);stroke:#1E1E1E;stroke-linecap:round;stroke-linejoin:round;" d="M309.803,205.423l-3.686,27.805c0,0,9.716-15.075,11.726-26.8"></path><linearGradient id="hair1XMLID_4122_" gradientUnits="userSpaceOnUse" x1="328.5625" y1="202.5" x2="328.5625" y2="135.5"><stop offset="0" style="stop-color:#FCFCE4"></stop><stop offset="0.5" style="stop-color:#A0C8DD"></stop><stop offset="1" style="stop-color:#5D6EC5"></stop></linearGradient><path style="fill:url(#hair1XMLID_4122_);stroke:#1E1E1E;stroke-linecap:round;stroke-linejoin:round;" d="M310.808,207.768c0,0,6.365,8.04,11.39,10.72c18.091,5.025,24.12-3.35,24.12-3.35c-13.399-0.335-19.095-8.04-23.45-22.11"></path><linearGradient id="hair1XMLID_4123_" gradientUnits="userSpaceOnUse" x1="297.6387" y1="202.5" x2="297.6387" y2="135.5"><stop offset="0" style="stop-color:#FCFCE4"></stop><stop offset="0.5" style="stop-color:#A0C8DD"></stop><stop offset="1" style="stop-color:#5D6EC5"></stop></linearGradient><path style="fill:url(#hair1XMLID_4123_);stroke:#1E1E1E;stroke-linecap:round;stroke-linejoin:round;" d="M287.692,158.523c0,0,16.08,21.775,13.065,64.32c9.38-21.775,8.71-37.855,0.335-62.645"></path><linearGradient id="hair1XMLID_4124_" gradientUnits="userSpaceOnUse" x1="168.2925" y1="202.5" x2="168.2925" y2="135.5"><stop offset="0" style="stop-color:#FCFCE4"></stop><stop offset="0.5" style="stop-color:#A0C8DD"></stop><stop offset="1" style="stop-color:#5D6EC5"></stop></linearGradient><path style="fill:url(#hair1XMLID_4124_);stroke:#1E1E1E;stroke-linecap:round;stroke-linejoin:round;" d="M169.103,161.538c0,0-25.125,43.885-2.68,87.1c-1.34-35.175,13.064-64.655,13.064-64.655"></path><g><linearGradient id="hair1XMLID_4125_" gradientUnits="userSpaceOnUse" x1="222.5435" y1="202.5" x2="222.5435" y2="135.5"><stop offset="0" style="stop-color:#FCFCE4"></stop><stop offset="0.5" style="stop-color:#A0C8DD"></stop><stop offset="1" style="stop-color:#5D6EC5"></stop></linearGradient><path style="fill:url(#hair1XMLID_4125_);stroke:#1E1E1E;stroke-linecap:round;stroke-linejoin:round;" d="M270.942,160.533c0-1.005-4.689-9.715-10.05-9.715c-1.34,6.365-2.345,36.18-17.42,47.905s-51.255,5.36-64.32,43.215c-6.7-24.12-11.725-61.975,19.766-92.795"></path><linearGradient id="hair1XMLID_4126_" gradientUnits="userSpaceOnUse" x1="186.6899" y1="202.5" x2="186.6899" y2="135.4998"><stop offset="0" style="stop-color:#FCFCE4"></stop><stop offset="0.5" style="stop-color:#A0C8DD"></stop><stop offset="1" style="stop-color:#5D6EC5"></stop></linearGradient><path style="fill:url(#hair1XMLID_4126_);stroke:#1E1E1E;stroke-linecap:round;stroke-linejoin:round;" d="M194.563,257.014c-3.685-15.746-4.69-29.48-3.35-39.866c-2.681,4.021-12.396,24.79-12.396,24.79s0.335,9.045,11.391,19.095"></path><linearGradient id="hair1XMLID_4127_" gradientUnits="userSpaceOnUse" x1="182.9155" y1="202.5" x2="182.9155" y2="135.5001"><stop offset="0" style="stop-color:#FCFCE4"></stop><stop offset="0.5" style="stop-color:#A0C8DD"></stop><stop offset="1" style="stop-color:#5D6EC5"></stop></linearGradient><path style="fill:url(#hair1XMLID_4127_);stroke:#1E1E1E;stroke-linecap:round;stroke-linejoin:round;" d="M192.553,207.768c0,0-13.4,26.465-9.38,40.535c-7.035-7.37-13.065-30.485-8.04-52.595"></path></g><g><linearGradient id="hair1XMLID_4128_" gradientUnits="userSpaceOnUse" x1="192.3828" y1="202.5" x2="192.3828" y2="135.5"><stop offset="0" style="stop-color:#FCFCE4"></stop><stop offset="0.5" style="stop-color:#A0C8DD"></stop><stop offset="1" style="stop-color:#5D6EC5"></stop></linearGradient><path style="fill:url(#hair1XMLID_4128_);stroke:#1E1E1E;stroke-linecap:round;stroke-linejoin:round;" d="M185.848,354.207c0,0,6.938,2.682,9.412-1.086s0.668-5.371-2.435-6.635c4.552,0.191,12.014,12.779,0.009,14.545C182.895,358.791,185.848,354.207,185.848,354.207z"></path><linearGradient id="hair1XMLID_4129_" gradientUnits="userSpaceOnUse" x1="183.2651" y1="202.5" x2="183.2651" y2="135.5001"><stop offset="0" style="stop-color:#FCFCE4"></stop><stop offset="0.5" style="stop-color:#A0C8DD"></stop><stop offset="1" style="stop-color:#5D6EC5"></stop></linearGradient><path style="fill:url(#hair1XMLID_4129_);stroke:#1E1E1E;stroke-linecap:round;stroke-linejoin:round;" d="M185.088,338.127c0,0-1.679,16.027,8.548,22c-9.72,2.553-13.432,3.021-15.153,1.742c-1.722-1.281-7.035-8.375-5.212-19.947"></path><linearGradient id="hair1XMLID_4130_" gradientUnits="userSpaceOnUse" x1="183.4077" y1="202.5" x2="183.4077" y2="135.4999"><stop offset="0" style="stop-color:#FCFCE4"></stop><stop offset="0.5" style="stop-color:#A0C8DD"></stop><stop offset="1" style="stop-color:#5D6EC5"></stop></linearGradient><path style="fill:url(#hair1XMLID_4130_);stroke:#1E1E1E;stroke-linecap:round;stroke-linejoin:round;" d="M194.319,328.43c0,0-2.852,6.291-19.704,17.297c-3.9-6.943,2.547-11.406,5.913-22.334c3.364-10.928-5.397-16.594-8.24-23.467C185.671,304.725,196.149,318.252,194.319,328.43z"></path><linearGradient id="hair1XMLID_4131_" gradientUnits="userSpaceOnUse" x1="172.1128" y1="202.5" x2="172.1128" y2="135.4998"><stop offset="0" style="stop-color:#FCFCE4"></stop><stop offset="0.5" style="stop-color:#A0C8DD"></stop><stop offset="1" style="stop-color:#5D6EC5"></stop></linearGradient><path style="fill:url(#hair1XMLID_4131_);stroke:#1E1E1E;stroke-linecap:round;stroke-linejoin:round;" d="M165.753,277.113c0,0-11.726,15.074-12.061,20.77s8.04,10.721,11.391,13.4c3.35,2.68,20.435,6.029,25.46,12.395c-6.365-9.379-6.365-9.379-6.365-9.379s-21.775-11.055-23.115-17.42c3.015-8.711,8.71-14.07,8.71-14.07"></path><linearGradient id="hair1XMLID_4132_" gradientUnits="userSpaceOnUse" x1="184.7842" y1="202.5005" x2="184.7842" y2="135.5005"><stop offset="0" style="stop-color:#FCFCE4"></stop><stop offset="0.5" style="stop-color:#A0C8DD"></stop><stop offset="1" style="stop-color:#5D6EC5"></stop></linearGradient><path style="fill:url(#hair1XMLID_4132_);stroke:#1E1E1E;stroke-linecap:round;stroke-linejoin:round;" d="M168.693,263.809c0,0-2.639,14.631-4.733,18.908c-1.49,3.039-1.446,8.703,3.133,14.496c8.591,10.873,25.618,24.002,25.469,33.756c13.391-12.986,15.41-23.094,13.097-33.225c-2.313-10.129-25.416-12.375-29.661-14.031c-1.869-6.6-0.406-13.77,0.141-15.645"></path><path style="fill:none;stroke:#1E1E1E;stroke-linecap:round;stroke-linejoin:round;" d="M192.888,300.563c0,0,10.385,6.031,10.385,15.746"></path></g></g></g></svg>