<svg xmlns="http://www.w3.org/2000/svg" width="500" height="500" version="1.1"><g id="x210"><g><linearGradient id="hair1XMLID_4133_" gradientUnits="userSpaceOnUse" x1="249.875" y1="237" x2="249.875" y2="131.5"><stop offset="0" style="stop-color:#FCFCE4"></stop><stop offset="0.5" style="stop-color:#A0C8DD"></stop><stop offset="1" style="stop-color:#5D6EC5"></stop></linearGradient><path style="fill:url(#hair1XMLID_4133_);stroke:#1E1E1E;stroke-linecap:round;stroke-linejoin:round;" d="M311.666,134.843c-17.105-17.505-41.811-23.971-61.792-20.231c-19.98-3.739-44.686,2.727-61.791,20.231c-13.126,13.432-22.395,30.316-22.395,51.335c0,24.494,15.344,44.594,26.063,48.78c-7.366-33.656-0.486-59.627,5.109-68.842c1.808-2.168,29.517-5.519,53.014-5.647c23.498,0.128,51.207,3.479,53.014,5.647c5.596,9.215,12.476,35.186,5.109,68.842c10.719-4.187,26.063-24.286,26.063-48.78C334.061,165.159,324.792,148.275,311.666,134.843z"></path><linearGradient id="hair1XMLID_4134_" gradientUnits="userSpaceOnUse" x1="195.6362" y1="237" x2="195.6362" y2="131.5002"><stop offset="0" style="stop-color:#FCFCE4"></stop><stop offset="0.5" style="stop-color:#A0C8DD"></stop><stop offset="1" style="stop-color:#5D6EC5"></stop></linearGradient><path style="fill:url(#hair1XMLID_4134_);stroke:#1E1E1E;stroke-linecap:round;stroke-linejoin:round;" d="M211.763,156.066c0,0-3.127,38.413-27.246,53.153c-10.721-16.974-0.894-41.987-0.894-41.987"></path><g><linearGradient id="hair1XMLID_4135_" gradientUnits="userSpaceOnUse" x1="181.981" y1="237" x2="181.981" y2="131.4998"><stop offset="0" style="stop-color:#FCFCE4"></stop><stop offset="0.5" style="stop-color:#A0C8DD"></stop><stop offset="1" style="stop-color:#5D6EC5"></stop></linearGradient><path style="fill:url(#hair1XMLID_4135_);stroke:#1E1E1E;stroke-linecap:round;stroke-linejoin:round;" d="M166.68,188.688c-4.88,28.124,5.833,84.457,31.748,96.017c-18.313-44.219-7.883-94.257-8.425-95.562"></path><linearGradient id="hair1XMLID_4136_" gradientUnits="userSpaceOnUse" x1="178.9336" y1="237" x2="178.9336" y2="131.5001"><stop offset="0" style="stop-color:#FCFCE4"></stop><stop offset="0.5" style="stop-color:#A0C8DD"></stop><stop offset="1" style="stop-color:#5D6EC5"></stop></linearGradient><polygon style="fill:url(#hair1XMLID_4136_);" points="188.09,164.999 181.836,198.499 169.777,193.585 175.136,159.639 "></polygon></g><linearGradient id="hair1XMLID_4137_" gradientUnits="userSpaceOnUse" x1="311.7373" y1="237" x2="311.7373" y2="131.4998"><stop offset="0" style="stop-color:#FCFCE4"></stop><stop offset="0.5" style="stop-color:#A0C8DD"></stop><stop offset="1" style="stop-color:#5D6EC5"></stop></linearGradient><path style="fill:url(#hair1XMLID_4137_);stroke:#1E1E1E;stroke-linecap:round;stroke-linejoin:round;" d="M327.038,188.688c4.879,28.124-5.833,84.457-31.748,96.017c18.313-44.219,6.542-94.257,7.084-95.562L327.038,188.688z"></path><g><linearGradient id="hair1XMLID_4138_" gradientUnits="userSpaceOnUse" x1="266.7451" y1="237" x2="266.7451" y2="131.4999"><stop offset="0" style="stop-color:#FCFCE4"></stop><stop offset="0.5" style="stop-color:#A0C8DD"></stop><stop offset="1" style="stop-color:#5D6EC5"></stop></linearGradient><path style="fill:url(#hair1XMLID_4138_);stroke:#1E1E1E;stroke-linecap:round;stroke-linejoin:round;" d="M197.024,152.046c0,0,3.573,66.553,68.786,70.126c-22.779-10.272-33.5-29.927-33.5-29.927s49.133,48.24,96.033,3.574c-7.594,1.786-23.226,0.446-23.226,0.446s23.673,0.894,31.266-20.101c1.34-12.06-13.846-27.693-13.846-27.693l4.466,16.08c0,0-15.187,4.02-18.313,2.233c-3.126-1.787-29.479-37.966-58.065-44.667"></path><path style="fill:none;stroke:#1E1E1E;stroke-linecap:round;stroke-linejoin:round;" d="M240.35,157.406c-0.446-1.34,24.567,35.733,65.66,38.413"></path></g></g></g></svg>