<svg xmlns="http://www.w3.org/2000/svg" width="500" height="500" version="1.1"><g id="x213"><g><linearGradient id="hair1XMLID_4155_" gradientUnits="userSpaceOnUse" x1="250.0005" y1="243.1006" x2="250.0005" y2="162.1006"><stop offset="0" style="stop-color:#FCFCE4"></stop><stop offset="0.5" style="stop-color:#A0C8DD"></stop><stop offset="1" style="stop-color:#5D6EC5"></stop></linearGradient><path style="fill:url(#hair1XMLID_4155_);stroke:#1E1E1E;stroke-linecap:round;stroke-linejoin:round;" d="M311.792,136.207c-17.105-17.505-41.811-23.971-61.792-20.231c-19.98-3.739-44.686,2.727-61.792,20.231c-13.126,13.432-22.395,30.316-22.395,51.335c0,24.494,15.344,44.594,26.063,48.781c-7.367-33.657-0.487-59.627,5.109-68.842c1.807-2.168,29.517-5.519,53.014-5.647c23.498,0.129,51.207,3.479,53.014,5.647c5.597,9.215,12.477,35.186,5.109,68.842c10.72-4.187,26.063-24.287,26.063-48.781C334.187,166.523,324.918,149.639,311.792,136.207z"></path><linearGradient id="hair1XMLID_4156_" gradientUnits="userSpaceOnUse" x1="250.0796" y1="243.1006" x2="250.0796" y2="162.1007"><stop offset="0" style="stop-color:#FCFCE4"></stop><stop offset="0.5" style="stop-color:#A0C8DD"></stop><stop offset="1" style="stop-color:#5D6EC5"></stop></linearGradient><path style="fill:url(#hair1XMLID_4156_);stroke:#1E1E1E;stroke-linecap:round;stroke-linejoin:round;" d="M199.606,153.411c-11.167,33.053-8.487,54.046-8.487,54.046s12.953-3.573,16.974-4.02c-0.894-13.846,2.68-33.053,2.68-33.053c-0.894,20.1,1.787,33.5,1.787,33.5l17.42-0.893c0,0-1.787-27.693,1.34-45.113c-0.894,15.187,3.574,44.667,4.914,46.9c4.02-0.447,13.846,0,13.846,0s9.827-0.447,13.847,0c1.341-2.233,5.807-31.713,4.913-46.9c3.127,17.42,1.341,45.113,1.341,45.113l17.42,0.893c0,0,2.68-13.4,1.786-33.5c0,0,3.573,19.207,2.681,33.053c4.02,0.447,16.973,4.02,16.973,4.02s2.681-20.993-8.486-54.046"></path><g><linearGradient id="hair1XMLID_4157_" gradientUnits="userSpaceOnUse" x1="190.4487" y1="243.0986" x2="190.4487" y2="162.1001"><stop offset="0" style="stop-color:#FCFCE4"></stop><stop offset="0.5" style="stop-color:#A0C8DD"></stop><stop offset="1" style="stop-color:#5D6EC5"></stop></linearGradient><path style="fill:url(#hair1XMLID_4157_);stroke:#1E1E1E;stroke-linecap:round;stroke-linejoin:round;" d="M189.201,141.351c0,0-40.2,59.853-9.827,146.504c-0.894-11.614-0.894-20.547-0.894-20.547s0.894,16.974,6.254,24.566c11.613,6.7,28.14,16.527,28.14,16.527s-35.733-81.291-10.273-155.438"></path><linearGradient id="hair1XMLID_4158_" gradientUnits="userSpaceOnUse" x1="309.709" y1="243.0986" x2="309.709" y2="162.1001"><stop offset="0" style="stop-color:#FCFCE4"></stop><stop offset="0.5" style="stop-color:#A0C8DD"></stop><stop offset="1" style="stop-color:#5D6EC5"></stop></linearGradient><path style="fill:url(#hair1XMLID_4158_);stroke:#1E1E1E;stroke-linecap:round;stroke-linejoin:round;" d="M310.958,141.351c0,0,40.2,59.853,9.826,146.504c0.894-11.614,0.894-20.547,0.894-20.547s-0.894,16.974-6.254,24.566c-11.613,6.7-28.14,16.527-28.14,16.527s35.733-81.291,10.273-155.438"></path></g></g></g></svg>