<svg xmlns="http://www.w3.org/2000/svg" width="500" height="500" version="1.1"><g id="x214"><g><g><linearGradient id="hair1XMLID_4159_" gradientUnits="userSpaceOnUse" x1="250.0005" y1="234.6006" x2="250.0005" y2="159.1006"><stop offset="0" style="stop-color:#FCFCE4"></stop><stop offset="0.5" style="stop-color:#A0C8DD"></stop><stop offset="1" style="stop-color:#5D6EC5"></stop></linearGradient><path style="fill:url(#hair1XMLID_4159_);stroke:#1E1E1E;stroke-linecap:round;stroke-linejoin:round;" d="M311.792,136.207c-17.105-17.505-41.811-23.971-61.792-20.231c-19.98-3.739-44.686,2.727-61.792,20.231c-13.126,13.432-22.395,30.316-22.395,51.335c0,24.494,15.344,44.594,26.063,48.781c-7.367-33.657-0.487-59.627,5.109-68.842c1.807-2.168,29.517-5.519,53.014-5.647c23.498,0.129,51.207,3.479,53.014,5.647c5.597,9.215,12.477,35.186,5.109,68.842c10.72-4.187,26.063-24.287,26.063-48.781C334.187,166.523,324.918,149.639,311.792,136.207z"></path></g><g><g><linearGradient id="hair1XMLID_4160_" gradientUnits="userSpaceOnUse" x1="195.3169" y1="234.5991" x2="195.3169" y2="159.1023"><stop offset="0" style="stop-color:#FCFCE4"></stop><stop offset="0.5" style="stop-color:#A0C8DD"></stop><stop offset="1" style="stop-color:#5D6EC5"></stop></linearGradient><path style="fill:url(#hair1XMLID_4160_);stroke:#1E1E1E;stroke-linecap:round;stroke-linejoin:round;" d="M192.413,201.204c0,1.787,0.446,56.277,13.4,69.677c-13.847-10.273-18.313-18.313-20.993-34.39"></path><linearGradient id="hair1XMLID_4161_" gradientUnits="userSpaceOnUse" x1="187.8809" y1="234.5986" x2="187.8809" y2="159.1004"><stop offset="0" style="stop-color:#FCFCE4"></stop><stop offset="0.5" style="stop-color:#A0C8DD"></stop><stop offset="1" style="stop-color:#5D6EC5"></stop></linearGradient><path style="fill:url(#hair1XMLID_4161_);stroke:#1E1E1E;stroke-linecap:round;stroke-linejoin:round;" d="M201.346,157.877c0,0-19.206,89.78,0.894,125.063c-8.486-3.572-46.453-54.043-18.76-125.51"></path></g><g><linearGradient id="hair1XMLID_4162_" gradientUnits="userSpaceOnUse" x1="304.8418" y1="234.5991" x2="304.8418" y2="159.1023"><stop offset="0" style="stop-color:#FCFCE4"></stop><stop offset="0.5" style="stop-color:#A0C8DD"></stop><stop offset="1" style="stop-color:#5D6EC5"></stop></linearGradient><path style="fill:url(#hair1XMLID_4162_);stroke:#1E1E1E;stroke-linecap:round;stroke-linejoin:round;" d="M307.746,201.204c0,1.787-0.447,56.277-13.4,69.677c13.847-10.273,18.313-18.313,20.993-34.39"></path><linearGradient id="hair1XMLID_4163_" gradientUnits="userSpaceOnUse" x1="312.2773" y1="234.5986" x2="312.2773" y2="159.1004"><stop offset="0" style="stop-color:#FCFCE4"></stop><stop offset="0.5" style="stop-color:#A0C8DD"></stop><stop offset="1" style="stop-color:#5D6EC5"></stop></linearGradient><path style="fill:url(#hair1XMLID_4163_);stroke:#1E1E1E;stroke-linecap:round;stroke-linejoin:round;" d="M298.813,157.877c0,0,19.206,89.78-0.894,125.063c8.487-3.572,46.454-54.043,18.76-125.51"></path></g></g><linearGradient id="hair1XMLID_4164_" gradientUnits="userSpaceOnUse" x1="250.0796" y1="234.6006" x2="250.0796" y2="159.1004"><stop offset="0" style="stop-color:#FCFCE4"></stop><stop offset="0.5" style="stop-color:#A0C8DD"></stop><stop offset="1" style="stop-color:#5D6EC5"></stop></linearGradient><path style="fill:url(#hair1XMLID_4164_);stroke:#1E1E1E;stroke-linecap:round;stroke-linejoin:round;" d="M204.52,139.117c0,0-8.04,30.82,2.233,51.813c4.02,0.893,4.02,0.893,4.02,0.893s0.446-24.12,4.021-34.84c-0.447,12.953,2.68,26.8,8.04,33.947c10.273,4.913,19.653,3.573,19.653,3.573l-0.894-8.933l4.467,8.04l4.02,3.126l4.021-3.126l4.466-8.04l-0.893,8.933c0,0,9.38,1.34,19.652-3.573c5.36-7.146,8.487-20.994,8.04-33.947c3.574,10.72,4.021,34.84,4.021,34.84s0,0,4.02-0.893c10.274-20.993,2.234-51.813,2.234-51.813"></path></g></g></svg>