<svg xmlns="http://www.w3.org/2000/svg" width="500" height="500" version="1.1"><g id="x215"><g><linearGradient id="hair1XMLID_4165_" gradientUnits="userSpaceOnUse" x1="250.0005" y1="248.1006" x2="250.0005" y2="151.1005"><stop offset="0" style="stop-color:#FCFCE4"></stop><stop offset="0.5" style="stop-color:#A0C8DD"></stop><stop offset="1" style="stop-color:#5D6EC5"></stop></linearGradient><path style="fill:url(#hair1XMLID_4165_);stroke:#1E1E1E;stroke-linecap:round;stroke-linejoin:round;" d="M311.792,136.207c-17.105-17.505-41.811-23.971-61.792-20.231c-19.98-3.739-44.686,2.727-61.792,20.231c-13.126,13.432-22.395,30.316-22.395,51.335c0,24.494,15.344,44.594,26.063,48.781c-7.367-33.657-0.487-59.627,5.109-68.842c1.807-2.168,29.517-5.519,53.014-5.647c23.498,0.129,51.207,3.479,53.014,5.647c5.597,9.215,12.477,35.186,5.109,68.842c10.72-4.187,26.063-24.287,26.063-48.781C334.187,166.523,324.918,149.639,311.792,136.207z"></path><g><linearGradient id="hair1XMLID_4166_" gradientUnits="userSpaceOnUse" x1="314.3994" y1="248.0996" x2="314.3994" y2="151.1023"><stop offset="0" style="stop-color:#FCFCE4"></stop><stop offset="0.5" style="stop-color:#A0C8DD"></stop><stop offset="1" style="stop-color:#5D6EC5"></stop></linearGradient><path style="fill:url(#hair1XMLID_4166_);stroke:#1E1E1E;stroke-linecap:round;stroke-linejoin:round;" d="M310.795,213.487c0,0-5.695,72.357,0.335,105.522c11.725-47.57,9.045-105.188,9.045-105.188L310.795,213.487z"></path></g><linearGradient id="hair1XMLID_4167_" gradientUnits="userSpaceOnUse" x1="197.856" y1="248.0986" x2="197.856" y2="151.1002"><stop offset="0" style="stop-color:#FCFCE4"></stop><stop offset="0.5" style="stop-color:#A0C8DD"></stop><stop offset="1" style="stop-color:#5D6EC5"></stop></linearGradient><path style="fill:url(#hair1XMLID_4167_);stroke:#1E1E1E;stroke-linecap:round;stroke-linejoin:round;" d="M217.919,157.877c0,0-15.075,13.735-20.435,41.54c-5.36,27.805-5.695,113.563-4.69,120.263c-17.085-28.141-24.79-102.507-13.064-146.058c11.725-43.55,41.875-44.89,41.875-44.89"></path><g><linearGradient id="hair1XMLID_4168_" gradientUnits="userSpaceOnUse" x1="268.5352" y1="248.1006" x2="268.5352" y2="151.1002"><stop offset="0" style="stop-color:#FCFCE4"></stop><stop offset="0.5" style="stop-color:#A0C8DD"></stop><stop offset="1" style="stop-color:#5D6EC5"></stop></linearGradient><path style="fill:url(#hair1XMLID_4168_);stroke:#1E1E1E;stroke-linecap:round;stroke-linejoin:round;" d="M214.569,146.152c0,14.74-8.71,40.87,13.735,56.28c22.444,15.41,93.8,15.41,93.8,15.41s18.09-59.965-52.93-85.425"></path><path style="fill:none;stroke:#1E1E1E;stroke-linecap:round;stroke-linejoin:round;" d="M231.319,175.967c0,0,8.71,34.17,48.24,38.86"></path></g></g></g></svg>