<svg xmlns="http://www.w3.org/2000/svg" width="500" height="500" version="1.1"><g id="x216"><g><linearGradient id="hair1XMLID_4169_" gradientUnits="userSpaceOnUse" x1="184.3354" y1="233.0005" x2="184.3354" y2="181.5005"><stop offset="0" style="stop-color:#FCFCE4"></stop><stop offset="0.5" style="stop-color:#A0C8DD"></stop><stop offset="1" style="stop-color:#5D6EC5"></stop></linearGradient><path style="fill:url(#hair1XMLID_4169_);stroke:#293882;stroke-linecap:round;stroke-linejoin:round;" d="M194.604,134.526c0,0-34.167,17.979-42.519,67.855c-0.032-43.613,26.446-74.748,64.5-83.797"></path><g><linearGradient id="hair1XMLID_4170_" gradientUnits="userSpaceOnUse" x1="186.5317" y1="238" x2="186.5317" y2="186.503"><stop offset="0" style="stop-color:#FCFCE4"></stop><stop offset="0.5" style="stop-color:#A0C8DD"></stop><stop offset="1" style="stop-color:#5D6EC5"></stop></linearGradient><path style="fill:url(#hair1XMLID_4170_);stroke:#1E1E1E;stroke-linecap:round;stroke-linejoin:round;" d="M191.744,239.492c-0.67,1.675-5.695,19.428-3.685,32.827c-9.045-14.739-7.035-33.497-5.025-39.192C185.043,227.432,191.744,239.492,191.744,239.492z"></path><linearGradient id="hair1XMLID_4171_" gradientUnits="userSpaceOnUse" x1="313.4941" y1="238" x2="313.4941" y2="186.503"><stop offset="0" style="stop-color:#FCFCE4"></stop><stop offset="0.5" style="stop-color:#A0C8DD"></stop><stop offset="1" style="stop-color:#5D6EC5"></stop></linearGradient><path style="fill:url(#hair1XMLID_4171_);stroke:#1E1E1E;stroke-linecap:round;stroke-linejoin:round;" d="M308.282,239.492c0.67,1.675,5.695,19.428,3.686,32.827c9.045-14.739,7.034-33.497,5.024-39.192C314.982,227.432,308.282,239.492,308.282,239.492z"></path></g><linearGradient id="hair1XMLID_4172_" gradientUnits="userSpaceOnUse" x1="249.9341" y1="233.0005" x2="249.9341" y2="181.5004"><stop offset="0" style="stop-color:#FCFCE4"></stop><stop offset="0.5" style="stop-color:#A0C8DD"></stop><stop offset="1" style="stop-color:#5D6EC5"></stop></linearGradient><path style="fill:url(#hair1XMLID_4172_);stroke:#293882;stroke-linecap:round;stroke-linejoin:round;" d="M311.725,136.107c-17.105-17.505-41.811-23.971-61.791-20.231c-19.98-3.739-44.685,2.727-61.791,20.231c-13.126,13.432-22.395,30.316-22.395,51.335c0,24.494,15.344,44.594,26.063,48.781c-7.367-33.657-0.487-59.627,5.109-68.842c1.807-2.168,29.517-5.519,53.013-5.647c23.497,0.129,51.206,3.479,53.012,5.647c5.597,9.215,12.477,35.186,5.109,68.842c10.72-4.187,26.063-24.287,26.063-48.781C334.119,166.423,324.851,149.539,311.725,136.107z"></path><g><linearGradient id="hair1XMLID_4173_" gradientUnits="userSpaceOnUse" x1="172.9639" y1="233.0005" x2="172.9639" y2="181.5005"><stop offset="0" style="stop-color:#FCFCE4"></stop><stop offset="0.5" style="stop-color:#A0C8DD"></stop><stop offset="1" style="stop-color:#5D6EC5"></stop></linearGradient><path style="fill:url(#hair1XMLID_4173_);stroke:#293882;stroke-linecap:round;stroke-linejoin:round;" d="M168.01,170.172c0,0-16.75,49.58,14.405,73.7c-13.735-21.105-9.715-49.58-9.715-49.58"></path><linearGradient id="hair1XMLID_4174_" gradientUnits="userSpaceOnUse" x1="327.0625" y1="233.0005" x2="327.0625" y2="181.5005"><stop offset="0" style="stop-color:#FCFCE4"></stop><stop offset="0.5" style="stop-color:#A0C8DD"></stop><stop offset="1" style="stop-color:#5D6EC5"></stop></linearGradient><path style="fill:url(#hair1XMLID_4174_);stroke:#293882;stroke-linecap:round;stroke-linejoin:round;" d="M332.017,170.172c0,0,16.75,49.58-14.405,73.7c13.735-21.105,9.715-49.58,9.715-49.58"></path></g><g><g><linearGradient id="hair1XMLID_4175_" gradientUnits="userSpaceOnUse" x1="195.522" y1="237.9219" x2="195.522" y2="184.5547"><stop offset="0" style="stop-color:#FCFCE4"></stop><stop offset="0.5" style="stop-color:#A0C8DD"></stop><stop offset="1" style="stop-color:#5D6EC5"></stop></linearGradient><path style="fill:url(#hair1XMLID_4175_);stroke:#1E1E1E;stroke-linecap:round;stroke-linejoin:round;" d="M218.691,154.417c0,0-17.922,42.865-15.243,70.335c-3.657-2.181-6.718-4.586-9.282-7.146c0.493,6.966,2.279,15.96,7.775,22.556c-10.385-2.68-29.145-5.36-29.48-35.845c0,0-2.177-27.79,12.897-47.89"></path><linearGradient id="hair1XMLID_4176_" gradientUnits="userSpaceOnUse" x1="219.7241" y1="238.8164" x2="219.7241" y2="185.0173"><stop offset="0" style="stop-color:#FCFCE4"></stop><stop offset="0.5" style="stop-color:#A0C8DD"></stop><stop offset="1" style="stop-color:#5D6EC5"></stop></linearGradient><path style="fill:url(#hair1XMLID_4176_);stroke:#1E1E1E;stroke-linecap:round;stroke-linejoin:round;" d="M211.656,149.526c-10.217,8.241-22.947,43.736-2.847,70.201c-0.335-5.36,0.67-14.405,6.812-22.11c0,0-0.782,10.05,6.923,19.43c1.168-19.268,8.187-41.282,18.729-59.021"></path></g><g><linearGradient id="hair1XMLID_4177_" gradientUnits="userSpaceOnUse" x1="304.4824" y1="237.728" x2="304.4824" y2="184.3608"><stop offset="0" style="stop-color:#FCFCE4"></stop><stop offset="0.5" style="stop-color:#A0C8DD"></stop><stop offset="1" style="stop-color:#5D6EC5"></stop></linearGradient><path style="fill:url(#hair1XMLID_4177_);stroke:#1E1E1E;stroke-linecap:round;stroke-linejoin:round;" d="M281.334,159.777c0,0,22.11,41.525,19.431,68.995c1.833-1.355,3.48-2.779,4.966-4.255c-0.644,6.712-2.551,14.89-7.646,21.005c10.386-2.68,29.146-5.36,29.48-35.845c0,0,1.508-27.12-9.883-46.55"></path><linearGradient id="hair1XMLID_4178_" gradientUnits="userSpaceOnUse" x1="257.2148" y1="238.0005" x2="257.2148" y2="186.5003"><stop offset="0" style="stop-color:#FCFCE4"></stop><stop offset="0.5" style="stop-color:#A0C8DD"></stop><stop offset="1" style="stop-color:#5D6EC5"></stop></linearGradient><path style="fill:url(#hair1XMLID_4178_);stroke:#1E1E1E;stroke-linecap:round;stroke-linejoin:round;" d="M267.767,189.242c0,0-1.34,28.14-21.103,36.515c9.043-15.41,5.694-47.235,5.694-47.235"></path><linearGradient id="hair1XMLID_4179_" gradientUnits="userSpaceOnUse" x1="277.2168" y1="238.9951" x2="277.2168" y2="185.0103"><stop offset="0" style="stop-color:#FCFCE4"></stop><stop offset="0.5" style="stop-color:#A0C8DD"></stop><stop offset="1" style="stop-color:#5D6EC5"></stop></linearGradient><path style="fill:url(#hair1XMLID_4179_);stroke:#1E1E1E;stroke-linecap:round;stroke-linejoin:round;" d="M288.369,152.206c2.346,3.685,21.105,51.106-9.715,65.176c8.04-17.085,3.016-32.16,3.016-32.16s0.335,23.45-15.41,31.825c2.638-9.673,1.172-35.017-7.988-55.488"></path></g></g><linearGradient id="hair1XMLID_4180_" gradientUnits="userSpaceOnUse" x1="257.7715" y1="238.5552" x2="257.7715" y2="184.7833"><stop offset="0" style="stop-color:#FCFCE4"></stop><stop offset="0.5" style="stop-color:#A0C8DD"></stop><stop offset="1" style="stop-color:#5D6EC5"></stop></linearGradient><path style="fill:url(#hair1XMLID_4180_);stroke:#1E1E1E;stroke-linecap:round;stroke-linejoin:round;" d="M235.273,156.427c-0.335,1.005-14.069,49.23,9.716,66.315c-4.69-17.085-4.355-23.115-4.355-23.115s7.705,23.785,30.148,25.795c-2.929-4.351-5.188-9.601-6.862-15.295c3.448,2.251,7.406,4.045,11.887,4.91c-3.354-4.74-5.945-9.177-7.955-13.29c4.24,1.717,9.913,2.985,16.665,2.234c-12.029-6.95-22.221-33.261-25.571-49.565"></path><linearGradient id="hair1XMLID_4181_" gradientUnits="userSpaceOnUse" x1="166.2642" y1="173.4971" x2="166.2642" y2="173.4971"><stop offset="0" style="stop-color:#FCFCE4"></stop><stop offset="0.5" style="stop-color:#A0C8DD"></stop><stop offset="1" style="stop-color:#5D6EC5"></stop></linearGradient><path style="fill:url(#hair1XMLID_4181_);stroke:#1E1E1E;stroke-linecap:round;stroke-linejoin:round;" d="M166.264,173.497"></path></g></g></svg>