<svg xmlns="http://www.w3.org/2000/svg" width="500" height="500" version="1.1"><g id="x021"><g><linearGradient id="hair1XMLID_2571_" gradientUnits="userSpaceOnUse" x1="250.0005" y1="216.667" x2="250.0005" y2="159.3335"><stop offset="0" style="stop-color:#FCFCE4"></stop><stop offset="0.5" style="stop-color:#A0C8DD"></stop><stop offset="1" style="stop-color:#5D6EC5"></stop></linearGradient><path style="fill:url(#hair1XMLID_2571_);stroke:#1E1E1E;stroke-linecap:round;stroke-linejoin:round;" d="M311.484,135.882c-17.021-17.418-41.603-23.852-61.484-20.131c-19.882-3.721-44.464,2.713-61.484,20.131c-13.061,13.365-22.283,30.165-22.283,51.08c0,24.372,15.268,44.372,25.934,48.538c-7.33-33.49-0.484-59.331,5.084-68.5c1.798-2.157,29.369-5.491,52.75-5.619c23.381,0.128,50.952,3.462,52.75,5.619c5.568,9.169,12.414,35.01,5.084,68.5c10.666-4.167,25.934-24.167,25.934-48.538C333.768,166.047,324.545,149.248,311.484,135.882z"></path><linearGradient id="hair1XMLID_2572_" gradientUnits="userSpaceOnUse" x1="167.0215" y1="216.667" x2="167.0215" y2="159.3335"><stop offset="0" style="stop-color:#FCFCE4"></stop><stop offset="0.5" style="stop-color:#A0C8DD"></stop><stop offset="1" style="stop-color:#5D6EC5"></stop></linearGradient><path style="fill:url(#hair1XMLID_2572_);stroke:#1E1E1E;stroke-linecap:round;stroke-linejoin:round;" d="M174.089,155.343c0,0-25.46,30.82-8.04,74.592c-1.788-30.819,7.146-51.813,7.146-51.813"></path><g><g><g><linearGradient id="hair1XMLID_2573_" gradientUnits="userSpaceOnUse" x1="318.1025" y1="216.667" x2="318.1025" y2="159.3335"><stop offset="0" style="stop-color:#FCFCE4"></stop><stop offset="0.5" style="stop-color:#A0C8DD"></stop><stop offset="1" style="stop-color:#5D6EC5"></stop></linearGradient><path style="fill:url(#hair1XMLID_2573_);stroke:#1E1E1E;stroke-linecap:round;stroke-linejoin:round;" d="M296.159,142.285c0,0,23.462,13.269,23.786,48.24c0.335,36.18,20.101,49.914,20.101,49.914c-21.44-6.699-32.16-19.094-33.5-48.91"></path><linearGradient id="hair1XMLID_2574_" gradientUnits="userSpaceOnUse" x1="186.79" y1="216.667" x2="186.79" y2="159.3335"><stop offset="0" style="stop-color:#FCFCE4"></stop><stop offset="0.5" style="stop-color:#A0C8DD"></stop><stop offset="1" style="stop-color:#5D6EC5"></stop></linearGradient><path style="fill:url(#hair1XMLID_2574_);stroke:#1E1E1E;stroke-linecap:round;stroke-linejoin:round;" d="M186.815,234.745c0,8.04,0.335,31.489,7.035,44.89c-6.7-13.064-18.09-32.494-12.729-60.635"></path><linearGradient id="hair1XMLID_2575_" gradientUnits="userSpaceOnUse" x1="307.6172" y1="216.667" x2="307.6172" y2="159.3335"><stop offset="0" style="stop-color:#FCFCE4"></stop><stop offset="0.5" style="stop-color:#A0C8DD"></stop><stop offset="1" style="stop-color:#5D6EC5"></stop></linearGradient><path style="fill:url(#hair1XMLID_2575_);stroke:#1E1E1E;stroke-linecap:round;stroke-linejoin:round;" d="M312.778,212.3c7.035,36.181-5.024,59.296-12.448,67.335c6.701-13.4,5.748-42.21,5.748-50.25"></path><linearGradient id="hair1XMLID_2576_" gradientUnits="userSpaceOnUse" x1="245.7334" y1="216.667" x2="245.7334" y2="159.3335"><stop offset="0" style="stop-color:#FCFCE4"></stop><stop offset="0.5" style="stop-color:#A0C8DD"></stop><stop offset="1" style="stop-color:#5D6EC5"></stop></linearGradient><path style="fill:url(#hair1XMLID_2576_);stroke:#1E1E1E;stroke-linecap:round;stroke-linejoin:round;" d="M209.73,136.59c-24.352,9.741-32.495,33.5-34.84,50.25c-2.806,20.043,8.948,49.07,15.188,56.058c0.67-35.958,13.957-64.098,13.957-64.098l74.369-10.72c0,0,8.71-3.015,27.472,32.495c1.963,3.392,2.68,20.212,0.67,28.81c2.229-4.043,11.343-38.085,10.385-42.88c-6.7-33.5-28.604-46.871-38.526-49.915"></path></g></g><linearGradient id="hair1XMLID_2577_" gradientUnits="userSpaceOnUse" x1="233.0869" y1="216.667" x2="233.0869" y2="159.3335"><stop offset="0" style="stop-color:#FCFCE4"></stop><stop offset="0.5" style="stop-color:#A0C8DD"></stop><stop offset="1" style="stop-color:#5D6EC5"></stop></linearGradient><path style="fill:url(#hair1XMLID_2577_);stroke:#1E1E1E;stroke-linecap:round;stroke-linejoin:round;" d="M272.709,151.666c8.71,11.39,14.07,41.205-2.345,62.645c0.67-8.375,0-33.166,0-33.166s-4.054,27.379-11.39,36.181c-10.051,12.06-18.089,11.055-24.789,22.11c-1.005-5.36,7.035-17.756,6.03-16.75c-1.005,1.004-19.319,23.449-23.339,41.205c-11.39-10.051-15.521-43.886-11.836-55.611c-1.006-0.67-9.045,31.826,3.685,55.945c-13.4-9.379-38.19-54.604-12.06-102.844"></path></g><linearGradient id="hair1XMLID_2578_" gradientUnits="userSpaceOnUse" x1="218.5024" y1="216.667" x2="218.5024" y2="159.3335"><stop offset="0" style="stop-color:#FCFCE4"></stop><stop offset="0.5" style="stop-color:#A0C8DD"></stop><stop offset="1" style="stop-color:#5D6EC5"></stop></linearGradient><path style="fill:url(#hair1XMLID_2578_);stroke:#1E1E1E;stroke-linecap:round;stroke-linejoin:round;" d="M248.682,122.736c3.664,3.538-18.761-14.74-60.747,0c24.566-3.126,40.2,2.233,40.2,2.233"></path></g><g><g><path style="fill:#FFF0DE;" d="M190.006,181.536c0,0,5.852-11.712,8.195-12.295c2.342-0.585-0.816,19.084-4.1,18.149C191.029,186.513,188.834,184.318,190.006,181.536z"></path><path style="fill:#FFF0DE;" d="M198.119,186.217c0,0,0.45-7.659,2.929-9.365c2.478-1.707,1.757,11.708,0,11.708C199.291,188.56,198.119,189.145,198.119,186.217z"></path><path style="fill:#FFF0DE;" d="M313.994,181.536c0,0-5.853-11.712-8.195-12.295c-2.343-0.585,0.816,19.084,4.1,18.149C312.971,186.513,315.165,184.318,313.994,181.536z"></path><path style="fill:#FFF0DE;" d="M305.881,186.217c0,0-0.451-7.659-2.93-9.365c-2.478-1.707-1.756,11.708,0,11.708C304.709,188.56,305.881,189.145,305.881,186.217z"></path></g><path style="fill:#FFF0DE;" d="M249.328,187.72c0,0,0-11.417,2.635-14.489c2.631-3.074,6.058,14.753,3.074,16.245C252.4,190.794,249.328,190.794,249.328,187.72z"></path><path style="fill:#FFF0DE;" d="M258.989,187.72c-1.761-2.196,0-10.1,0.876-11.417c0.879-1.317,4.391,10.098,2.635,12.294C260.236,191.426,260.744,189.915,258.989,187.72z"></path></g></g></svg>