<svg xmlns="http://www.w3.org/2000/svg" width="500" height="500" version="1.1"><g id="x217"><g><g><linearGradient id="hair1XMLID_4182_" gradientUnits="userSpaceOnUse" x1="249.9214" y1="233.5" x2="249.9214" y2="146.5"><stop offset="0" style="stop-color:#FCFCE4"></stop><stop offset="0.5" style="stop-color:#A0C8DD"></stop><stop offset="1" style="stop-color:#5D6EC5"></stop></linearGradient><path style="fill:url(#hair1XMLID_4182_);stroke:#1E1E1E;stroke-linecap:round;stroke-linejoin:round;" d="M311.713,136.504c-17.106-17.505-41.812-23.971-61.792-20.231c-19.981-3.739-44.686,2.727-61.792,20.231c-13.126,13.432-22.395,30.316-22.395,51.335c0,24.493,15.344,44.594,26.063,48.78c-7.367-33.657-0.487-59.626,5.109-68.842c1.807-2.168,29.516-5.519,53.014-5.647c23.498,0.128,51.206,3.479,53.014,5.647c5.597,9.216,12.477,35.186,5.109,68.842c10.72-4.187,26.063-24.287,26.063-48.78C334.107,166.82,324.839,149.936,311.713,136.504z"></path></g><g><g><g><linearGradient id="hair1XMLID_4183_" gradientUnits="userSpaceOnUse" x1="191.1558" y1="233.5" x2="191.1558" y2="146.4998"><stop offset="0" style="stop-color:#FCFCE4"></stop><stop offset="0.5" style="stop-color:#A0C8DD"></stop><stop offset="1" style="stop-color:#5D6EC5"></stop></linearGradient><path style="fill:url(#hair1XMLID_4183_);stroke:#1E1E1E;stroke-linecap:round;stroke-linejoin:round;" d="M171.198,230.869c-0.304,1.005-1.823,35.51,12.761,50.25c1.215-7.37,2.167-16.75,2.167-16.75s4.69,20.435,25.125,30.484c0.912-9.38-9.668-39.194-9.668-39.194s-11.242-1.005-13.673-10.385"></path><linearGradient id="hair1XMLID_4184_" gradientUnits="userSpaceOnUse" x1="195.0493" y1="233.5" x2="195.0493" y2="146.5"><stop offset="0" style="stop-color:#FCFCE4"></stop><stop offset="0.5" style="stop-color:#A0C8DD"></stop><stop offset="1" style="stop-color:#5D6EC5"></stop></linearGradient><path style="fill:url(#hair1XMLID_4184_);stroke:#1E1E1E;stroke-linecap:round;stroke-linejoin:round;" d="M192.467,241.813c0,0,0,13.735,16.104,20.436c-13.369,6.029-24.611-3.351-27.042-8.375"></path></g><linearGradient id="hair1XMLID_4185_" gradientUnits="userSpaceOnUse" x1="181.9116" y1="233.5" x2="181.9116" y2="146.5"><stop offset="0" style="stop-color:#FCFCE4"></stop><stop offset="0.5" style="stop-color:#A0C8DD"></stop><stop offset="1" style="stop-color:#5D6EC5"></stop></linearGradient><path style="fill:url(#hair1XMLID_4185_);stroke:#1E1E1E;stroke-linecap:round;stroke-linejoin:round;" d="M200.15,152.144c0,0-30.764,58.737,6.886,101.617c-24.892,5.248-48.24-24.566-39.639-63.092c0,0-13.068,48.799,9.712,75.152c-33.946-19.207-28.251-116.692,30.457-142.822"></path></g><g><g><linearGradient id="hair1XMLID_4186_" gradientUnits="userSpaceOnUse" x1="308.8438" y1="233.5" x2="308.8438" y2="146.4998"><stop offset="0" style="stop-color:#FCFCE4"></stop><stop offset="0.5" style="stop-color:#A0C8DD"></stop><stop offset="1" style="stop-color:#5D6EC5"></stop></linearGradient><path style="fill:url(#hair1XMLID_4186_);stroke:#1E1E1E;stroke-linecap:round;stroke-linejoin:round;" d="M328.802,230.869c0.304,1.005,1.823,35.51-12.762,50.25c-1.214-7.37-2.166-16.75-2.166-16.75s-4.689,20.435-25.125,30.484c-0.912-9.38,9.668-39.194,9.668-39.194s11.242-1.005,13.674-10.385"></path><linearGradient id="hair1XMLID_4187_" gradientUnits="userSpaceOnUse" x1="304.9512" y1="233.5" x2="304.9512" y2="146.5"><stop offset="0" style="stop-color:#FCFCE4"></stop><stop offset="0.5" style="stop-color:#A0C8DD"></stop><stop offset="1" style="stop-color:#5D6EC5"></stop></linearGradient><path style="fill:url(#hair1XMLID_4187_);stroke:#1E1E1E;stroke-linecap:round;stroke-linejoin:round;" d="M307.533,241.813c0,0,0,13.735-16.104,20.436c13.368,6.029,24.61-3.351,27.042-8.375"></path></g><linearGradient id="hair1XMLID_4188_" gradientUnits="userSpaceOnUse" x1="318.0889" y1="233.5" x2="318.0889" y2="146.5"><stop offset="0" style="stop-color:#FCFCE4"></stop><stop offset="0.5" style="stop-color:#A0C8DD"></stop><stop offset="1" style="stop-color:#5D6EC5"></stop></linearGradient><path style="fill:url(#hair1XMLID_4188_);stroke:#1E1E1E;stroke-linecap:round;stroke-linejoin:round;" d="M299.851,152.144c0,0,30.764,58.737-6.886,101.617c24.892,5.248,48.239-24.566,39.639-63.092c0,0,13.067,48.799-9.713,75.152c33.947-19.207,28.252-116.692-30.456-142.822"></path></g></g><linearGradient id="hair1XMLID_4189_" gradientUnits="userSpaceOnUse" x1="214.0645" y1="233.5" x2="214.0645" y2="146.5002"><stop offset="0" style="stop-color:#FCFCE4"></stop><stop offset="0.5" style="stop-color:#A0C8DD"></stop><stop offset="1" style="stop-color:#5D6EC5"></stop></linearGradient><path style="fill:url(#hair1XMLID_4189_);stroke:#1E1E1E;stroke-linecap:round;stroke-linejoin:round;" d="M244.305,159.179c0,0-10.72,51.925-58.625,62.311c-4.69-22.11-0.67-49.916,14.07-69.01"></path><path style="fill:none;stroke:#1E1E1E;stroke-linecap:round;stroke-linejoin:round;" d="M183.67,214.454c0,0,25.125-11.055,37.185-41.54"></path><linearGradient id="hair1XMLID_4190_" gradientUnits="userSpaceOnUse" x1="295.1504" y1="233.5" x2="295.1504" y2="146.5002"><stop offset="0" style="stop-color:#FCFCE4"></stop><stop offset="0.5" style="stop-color:#A0C8DD"></stop><stop offset="1" style="stop-color:#5D6EC5"></stop></linearGradient><path style="fill:url(#hair1XMLID_4190_);stroke:#1E1E1E;stroke-linecap:round;stroke-linejoin:round;" d="M270.77,155.941c0,0,33.836,40.758,37.186,75.263c15.075-23.45,15.521-59.854,0.782-83.08"></path><linearGradient id="hair1XMLID_4191_" gradientUnits="userSpaceOnUse" x1="251.2861" y1="233.5" x2="251.2861" y2="146.4997"><stop offset="0" style="stop-color:#FCFCE4"></stop><stop offset="0.5" style="stop-color:#A0C8DD"></stop><stop offset="1" style="stop-color:#5D6EC5"></stop></linearGradient><path style="fill:url(#hair1XMLID_4191_);stroke:#1E1E1E;stroke-linecap:round;stroke-linejoin:round;" d="M270.77,155.159c0,0,8.375,54.604-39.529,79.06c13.735-23.115,11.39-78.725,11.39-78.725"></path></g></g></svg>