<svg xmlns="http://www.w3.org/2000/svg" width="500" height="500" version="1.1"><g id="x218"><g><linearGradient id="hair1XMLID_4192_" gradientUnits="userSpaceOnUse" x1="249.9214" y1="211.5" x2="249.9214" y2="152"><stop offset="0" style="stop-color:#FCFCE4"></stop><stop offset="0.5" style="stop-color:#A0C8DD"></stop><stop offset="1" style="stop-color:#5D6EC5"></stop></linearGradient><path style="fill:url(#hair1XMLID_4192_);stroke:#1E1E1E;stroke-linecap:round;stroke-linejoin:round;" d="M311.713,136.504c-17.106-17.505-41.812-23.971-61.792-20.231c-19.981-3.739-44.686,2.727-61.792,20.231c-13.126,13.432-22.395,30.316-22.395,51.335c0,24.493,15.344,44.594,26.063,48.78c-7.367-33.657-0.487-59.626,5.109-68.842c1.807-2.168,29.516-5.519,53.014-5.647c23.498,0.128,51.206,3.479,53.014,5.647c5.597,9.216,12.477,35.186,5.109,68.842c10.72-4.187,26.063-24.287,26.063-48.78C334.107,166.82,324.839,149.936,311.713,136.504z"></path><g><linearGradient id="hair1XMLID_4193_" gradientUnits="userSpaceOnUse" x1="302.3906" y1="211.5" x2="302.3906" y2="152"><stop offset="0" style="stop-color:#FCFCE4"></stop><stop offset="0.5" style="stop-color:#A0C8DD"></stop><stop offset="1" style="stop-color:#5D6EC5"></stop></linearGradient><path style="fill:url(#hair1XMLID_4193_);stroke:#1E1E1E;stroke-linecap:round;stroke-linejoin:round;" d="M266.862,121.659c0,0,30.113-1.005,50.086,27.47c31.957,31.825,19.974,60.635,11.984,77.72c1.843-4.354,1.843-15.074,0.614-24.455c0.308,13.4-13.213,34.169-29.806,39.195c8.604-19.095,3.072-47.235,2.765-48.24"></path><linearGradient id="hair1XMLID_4194_" gradientUnits="userSpaceOnUse" x1="197.6089" y1="211.5" x2="197.6089" y2="152"><stop offset="0" style="stop-color:#FCFCE4"></stop><stop offset="0.5" style="stop-color:#A0C8DD"></stop><stop offset="1" style="stop-color:#5D6EC5"></stop></linearGradient><path style="fill:url(#hair1XMLID_4194_);stroke:#1E1E1E;stroke-linecap:round;stroke-linejoin:round;" d="M233.138,121.659c0,0-30.113-1.005-50.086,27.47c-31.957,31.825-19.973,60.635-11.984,77.72c-1.844-4.354-1.844-15.074-0.615-24.455c-0.307,13.4,13.213,34.169,29.806,39.195c-8.604-19.095-4.648-60.97,8.873-80.4"></path></g><linearGradient id="hair1XMLID_4195_" gradientUnits="userSpaceOnUse" x1="214.2632" y1="211.5" x2="214.2632" y2="152.0001"><stop offset="0" style="stop-color:#FCFCE4"></stop><stop offset="0.5" style="stop-color:#A0C8DD"></stop><stop offset="1" style="stop-color:#5D6EC5"></stop></linearGradient><path style="fill:url(#hair1XMLID_4195_);stroke:#1E1E1E;stroke-linecap:round;stroke-linejoin:round;" d="M205.78,159.179c0,0-4.69,31.825,16.08,44.89c-5.36-21.44,1.34-45.225,1.34-45.225"></path><linearGradient id="hair1XMLID_4196_" gradientUnits="userSpaceOnUse" x1="272.0576" y1="211.5" x2="272.0576" y2="152"><stop offset="0" style="stop-color:#FCFCE4"></stop><stop offset="0.5" style="stop-color:#A0C8DD"></stop><stop offset="1" style="stop-color:#5D6EC5"></stop></linearGradient><path style="fill:url(#hair1XMLID_4196_);stroke:#1E1E1E;stroke-linecap:round;stroke-linejoin:round;" d="M222.866,157.713c0,0-2.139,34.584,35.654,45.994c37.793,11.41,62.751-13.192,62.751-13.192s-21.843-10.139-25.671-19.61c-6.774-16.757-14.618-24.245-26.257-33.289"></path><g><linearGradient id="hair1XMLID_4197_" gradientUnits="userSpaceOnUse" x1="324.0547" y1="211.5" x2="324.0547" y2="151.9999"><stop offset="0" style="stop-color:#FCFCE4"></stop><stop offset="0.5" style="stop-color:#A0C8DD"></stop><stop offset="1" style="stop-color:#5D6EC5"></stop></linearGradient><path style="fill:url(#hair1XMLID_4197_);stroke:#1E1E1E;stroke-linecap:round;stroke-linejoin:round;" d="M309.612,162.864c0,0,10.447,11.725,28.884-0.67c-18.437-4.69-27.348-20.1-27.348-20.1"></path><linearGradient id="hair1XMLID_4198_" gradientUnits="userSpaceOnUse" x1="175.9458" y1="211.5" x2="175.9458" y2="151.9999"><stop offset="0" style="stop-color:#FCFCE4"></stop><stop offset="0.5" style="stop-color:#A0C8DD"></stop><stop offset="1" style="stop-color:#5D6EC5"></stop></linearGradient><path style="fill:url(#hair1XMLID_4198_);stroke:#1E1E1E;stroke-linecap:round;stroke-linejoin:round;" d="M190.388,162.864c0,0-10.448,11.725-28.884-0.67c18.437-4.69,27.348-20.1,27.348-20.1"></path></g></g></g></svg>