<svg xmlns="http://www.w3.org/2000/svg" width="500" height="500" version="1.1"><g id="x219"><g><g><linearGradient id="hair1XMLID_4199_" gradientUnits="userSpaceOnUse" x1="250.4307" y1="252" x2="250.4307" y2="164.5004"><stop offset="0" style="stop-color:#FCFCE4"></stop><stop offset="0.5" style="stop-color:#A0C8DD"></stop><stop offset="1" style="stop-color:#5D6EC5"></stop></linearGradient><path style="fill:url(#hair1XMLID_4199_);stroke:#1E1E1E;stroke-linecap:round;stroke-linejoin:round;" d="M334.617,187.839c0-21.019-9.269-37.903-22.395-51.335c-17.106-17.505-41.812-23.971-61.792-20.231c-19.981-3.739-44.686,2.727-61.792,20.231c-13.126,13.432-22.395,30.316-22.395,51.335c0,2.134,0.124,4.232,0.343,6.292h23.287c1.441-12.402,4.66-21.606,7.543-26.354c1.807-2.168,29.516-5.519,53.014-5.647c23.499,0.128,51.207,3.479,53.014,5.647c2.883,4.748,6.102,13.952,7.543,26.354h23.287C334.494,192.071,334.617,189.973,334.617,187.839z"></path></g><g><linearGradient id="hair1XMLID_4200_" gradientUnits="userSpaceOnUse" x1="174.0659" y1="252" x2="174.0659" y2="164.5"><stop offset="0" style="stop-color:#FCFCE4"></stop><stop offset="0.5" style="stop-color:#A0C8DD"></stop><stop offset="1" style="stop-color:#5D6EC5"></stop></linearGradient><path style="fill:url(#hair1XMLID_4200_);stroke:#1E1E1E;stroke-linecap:round;stroke-linejoin:round;" d="M183.956,191.004c0,1.787-11.167,60.746-4.914,104.073c-17.42-37.967-16.527-82.187-12.283-112.113"></path><linearGradient id="hair1XMLID_4201_" gradientUnits="userSpaceOnUse" x1="325.9336" y1="252" x2="325.9336" y2="164.5"><stop offset="0" style="stop-color:#FCFCE4"></stop><stop offset="0.5" style="stop-color:#A0C8DD"></stop><stop offset="1" style="stop-color:#5D6EC5"></stop></linearGradient><path style="fill:url(#hair1XMLID_4201_);stroke:#1E1E1E;stroke-linecap:round;stroke-linejoin:round;" d="M316.044,191.004c0,1.787,11.167,60.746,4.914,104.073c17.42-37.967,16.526-82.187,12.283-112.113"></path></g><linearGradient id="hair1XMLID_4202_" gradientUnits="userSpaceOnUse" x1="250.063" y1="252" x2="250.063" y2="164.5001"><stop offset="0" style="stop-color:#FCFCE4"></stop><stop offset="0.5" style="stop-color:#A0C8DD"></stop><stop offset="1" style="stop-color:#5D6EC5"></stop></linearGradient><path style="fill:url(#hair1XMLID_4202_);stroke:#1E1E1E;stroke-linecap:round;stroke-linejoin:round;" d="M191.996,157.504c-1.34,1.787-8.04,24.566-4.02,36.626c17.42,0,29.926,0,29.926,0s0.893-28.586,6.7-39.307c-1.34,15.187,4.02,41.54,4.02,41.54c14.293,0,21.439,0,21.439,0s7.148,0,21.441,0c0,0,5.36-26.353,4.02-41.54c5.808,10.72,6.7,39.307,6.7,39.307s12.507,0,29.927,0c4.021-12.06-2.68-34.84-4.02-36.626"></path></g></g></svg>