<svg xmlns="http://www.w3.org/2000/svg" width="500" height="500" version="1.1"><g id="x220"><g><g><linearGradient id="hair1XMLID_4203_" gradientUnits="userSpaceOnUse" x1="250.522" y1="269.5" x2="250.522" y2="133.9999"><stop offset="0" style="stop-color:#FCFCE4"></stop><stop offset="0.5" style="stop-color:#A0C8DD"></stop><stop offset="1" style="stop-color:#5D6EC5"></stop></linearGradient><path style="fill:url(#hair1XMLID_4203_);stroke:#1E1E1E;stroke-linecap:round;stroke-linejoin:round;" d="M312.314,136.504c-17.106-17.505-41.812-23.971-61.794-20.231c-19.981-3.739-44.686,2.727-61.792,20.231c-13.126,13.432-22.395,30.316-22.395,51.335c0,24.493,15.344,44.594,26.063,48.78c-7.367-33.657-0.487-59.626,5.109-68.842c1.807-2.168,29.516-5.519,53.014-5.647c23.5,0.128,51.208,3.479,53.016,5.647c5.597,9.216,12.477,35.186,5.109,68.842c10.72-4.187,26.063-24.287,26.063-48.78C334.709,166.82,325.44,149.936,312.314,136.504z"></path></g><linearGradient id="hair1XMLID_4204_" gradientUnits="userSpaceOnUse" x1="255.5137" y1="269.5" x2="255.5137" y2="134.0003"><stop offset="0" style="stop-color:#FCFCE4"></stop><stop offset="0.5" style="stop-color:#A0C8DD"></stop><stop offset="1" style="stop-color:#5D6EC5"></stop></linearGradient><path style="fill:url(#hair1XMLID_4204_);stroke:#1E1E1E;stroke-linecap:round;stroke-linejoin:round;" d="M272.935,160.63c0,0-5.807,46.9-34.842,74.593c3.126-17.42,8.04-77.273,8.04-77.273"></path><linearGradient id="hair1XMLID_4205_" gradientUnits="userSpaceOnUse" x1="195.2339" y1="269.5" x2="195.2339" y2="133.9995"><stop offset="0" style="stop-color:#FCFCE4"></stop><stop offset="0.5" style="stop-color:#A0C8DD"></stop><stop offset="1" style="stop-color:#5D6EC5"></stop></linearGradient><path style="fill:url(#hair1XMLID_4205_);stroke:#1E1E1E;stroke-linecap:round;stroke-linejoin:round;" d="M174.22,178.944c0,0-14.74,79.06,25.46,103.18c-12.954-20.994-9.827-48.24-9.827-48.24s5.36,42.88,25.014,52.706c-2.233-20.993,2.233-62.533,2.233-62.533l1.787-62.979"></path><linearGradient id="hair1XMLID_4206_" gradientUnits="userSpaceOnUse" x1="221.5825" y1="269.5" x2="221.5825" y2="134.0003"><stop offset="0" style="stop-color:#FCFCE4"></stop><stop offset="0.5" style="stop-color:#A0C8DD"></stop><stop offset="1" style="stop-color:#5D6EC5"></stop></linearGradient><path style="fill:url(#hair1XMLID_4206_);stroke:#1E1E1E;stroke-linecap:round;stroke-linejoin:round;" d="M196.553,162.864c-16.973,57.621-2.233,100.5,29.927,122.833c-0.893-7.594,4.913-56.28,4.913-56.28s0.447,14.74,8.04,29.033c-1.34-14.293,7.147-74.146,7.594-75.933l6.701-29.033"></path><linearGradient id="hair1XMLID_4207_" gradientUnits="userSpaceOnUse" x1="173.2466" y1="269.5" x2="173.2466" y2="134.0002"><stop offset="0" style="stop-color:#FCFCE4"></stop><stop offset="0.5" style="stop-color:#A0C8DD"></stop><stop offset="1" style="stop-color:#5D6EC5"></stop></linearGradient><path style="fill:url(#hair1XMLID_4207_);stroke:#1E1E1E;stroke-linecap:round;stroke-linejoin:round;" d="M169.083,170.011c0,0-17.196,55.833,13.177,94.693c-16.527-35.734-2.904-87.994-2.904-87.994"></path><g><linearGradient id="hair1XMLID_4208_" gradientUnits="userSpaceOnUse" x1="317.25" y1="269.5" x2="317.25" y2="133.9998"><stop offset="0" style="stop-color:#FCFCE4"></stop><stop offset="0.5" style="stop-color:#A0C8DD"></stop><stop offset="1" style="stop-color:#5D6EC5"></stop></linearGradient><path style="fill:url(#hair1XMLID_4208_);stroke:#1E1E1E;stroke-linecap:round;stroke-linejoin:round;" d="M325.642,172.244c0,0,7.594,53.153-17.42,75.486c3.126-37.967-0.447-67.894-0.447-67.894"></path><linearGradient id="hair1XMLID_4209_" gradientUnits="userSpaceOnUse" x1="301.168" y1="269.5" x2="301.168" y2="134"><stop offset="0" style="stop-color:#FCFCE4"></stop><stop offset="0.5" style="stop-color:#A0C8DD"></stop><stop offset="1" style="stop-color:#5D6EC5"></stop></linearGradient><path style="fill:url(#hair1XMLID_4209_);stroke:#1E1E1E;stroke-linecap:round;stroke-linejoin:round;" d="M284.995,158.844c0,0,16.079,66.106,7.593,135.786c12.507-20.1,30.82-69.679,22.78-135.786"></path></g></g></g></svg>