<svg xmlns="http://www.w3.org/2000/svg" width="500" height="500" version="1.1"><g id="x221"><g><g><linearGradient id="hair1XMLID_4210_" gradientUnits="userSpaceOnUse" x1="197.3726" y1="297.5" x2="197.3725" y2="120.4998"><stop offset="0" style="stop-color:#FCFCE4"></stop><stop offset="0.5" style="stop-color:#A0C8DD"></stop><stop offset="1" style="stop-color:#5D6EC5"></stop></linearGradient><path style="fill:url(#hair1XMLID_4210_);stroke:#1E1E1E;stroke-linecap:round;stroke-linejoin:round;" d="M193.129,256.217c0,0,17.867,34.84,18.313,93.8c-14.74-33.946-28.14-96.48-28.14-96.48L193.129,256.217z"></path><linearGradient id="hair1XMLID_4211_" gradientUnits="userSpaceOnUse" x1="302.7852" y1="297.5" x2="302.7852" y2="120.4998"><stop offset="0" style="stop-color:#FCFCE4"></stop><stop offset="0.5" style="stop-color:#A0C8DD"></stop><stop offset="1" style="stop-color:#5D6EC5"></stop></linearGradient><path style="fill:url(#hair1XMLID_4211_);stroke:#1E1E1E;stroke-linecap:round;stroke-linejoin:round;" d="M307.029,256.217c0,0-17.868,34.84-18.313,93.8c14.739-33.946,28.14-96.48,28.14-96.48L307.029,256.217z"></path></g><g><g><g><linearGradient id="hair1XMLID_4212_" gradientUnits="userSpaceOnUse" x1="250.0005" y1="297.5" x2="250.0005" y2="120.5001"><stop offset="0" style="stop-color:#FCFCE4"></stop><stop offset="0.5" style="stop-color:#A0C8DD"></stop><stop offset="1" style="stop-color:#5D6EC5"></stop></linearGradient><path style="fill:url(#hair1XMLID_4212_);stroke:#1E1E1E;stroke-linecap:round;stroke-linejoin:round;" d="M311.792,136.504c-17.106-17.505-41.812-23.971-61.792-20.231c-19.981-3.739-44.686,2.727-61.792,20.231c-13.126,13.432-22.395,30.316-22.395,51.335c0,24.493,15.344,44.594,26.063,48.78c-7.367-33.657-0.487-59.626,5.109-68.842c1.807-2.168,29.516-5.519,53.014-5.647c23.498,0.128,51.206,3.479,53.014,5.647c5.597,9.216,12.477,35.186,5.109,68.842c10.72-4.187,26.063-24.287,26.063-48.78C334.187,166.82,324.918,149.936,311.792,136.504z"></path></g></g><linearGradient id="hair1XMLID_4213_" gradientUnits="userSpaceOnUse" x1="250.0791" y1="297.5" x2="250.0791" y2="120.5001"><stop offset="0" style="stop-color:#FCFCE4"></stop><stop offset="0.5" style="stop-color:#A0C8DD"></stop><stop offset="1" style="stop-color:#5D6EC5"></stop></linearGradient><path style="fill:url(#hair1XMLID_4213_);stroke:#1E1E1E;stroke-linecap:round;stroke-linejoin:round;" d="M229.533,160.164c0,0-6.253,40.646,8.486,63.873c-1.787-10.72-0.446-20.993-0.446-20.993l5.806,20.993h13.4l5.806-20.993c0,0,1.341,10.273-0.446,20.993c14.74-23.227,8.486-63.873,8.486-63.873"></path><g><linearGradient id="hair1XMLID_4214_" gradientUnits="userSpaceOnUse" x1="291.5078" y1="297.5" x2="291.5078" y2="120.5"><stop offset="0" style="stop-color:#FCFCE4"></stop><stop offset="0.5" style="stop-color:#A0C8DD"></stop><stop offset="1" style="stop-color:#5D6EC5"></stop></linearGradient><path style="fill:url(#hair1XMLID_4214_);stroke:#1E1E1E;stroke-linecap:round;stroke-linejoin:round;" d="M271.209,161.397c0,0,33.054,31.714,39.754,64.767c3.573-33.947-5.36-60.747-5.36-60.747"></path><linearGradient id="hair1XMLID_4215_" gradientUnits="userSpaceOnUse" x1="208.6509" y1="297.5" x2="208.6509" y2="120.5"><stop offset="0" style="stop-color:#FCFCE4"></stop><stop offset="0.5" style="stop-color:#A0C8DD"></stop><stop offset="1" style="stop-color:#5D6EC5"></stop></linearGradient><path style="fill:url(#hair1XMLID_4215_);stroke:#1E1E1E;stroke-linecap:round;stroke-linejoin:round;" d="M228.949,161.397c0,0-33.054,31.714-39.754,64.767c-3.573-33.947,5.36-60.747,5.36-60.747"></path></g><g><linearGradient id="hair1XMLID_4216_" gradientUnits="userSpaceOnUse" x1="183.8604" y1="297.5" x2="183.8603" y2="120.4994"><stop offset="0" style="stop-color:#FCFCE4"></stop><stop offset="0.5" style="stop-color:#A0C8DD"></stop><stop offset="1" style="stop-color:#5D6EC5"></stop></linearGradient><path style="fill:url(#hair1XMLID_4216_);stroke:#1E1E1E;stroke-linecap:round;stroke-linejoin:round;" d="M198.151,156.164c0.446,1.34-16.08,95.14,2.68,122.833c-9.38-5.807-15.187-21.44-15.187-21.44s-0.447,19.653,4.02,33.054c-18.313-24.566-29.479-54.492-18.313-113.006"></path><linearGradient id="hair1XMLID_4217_" gradientUnits="userSpaceOnUse" x1="316.2979" y1="297.5" x2="316.2979" y2="120.4994"><stop offset="0" style="stop-color:#FCFCE4"></stop><stop offset="0.5" style="stop-color:#A0C8DD"></stop><stop offset="1" style="stop-color:#5D6EC5"></stop></linearGradient><path style="fill:url(#hair1XMLID_4217_);stroke:#1E1E1E;stroke-linecap:round;stroke-linejoin:round;" d="M302.007,156.164c-0.447,1.34,16.08,95.14-2.68,122.833c9.38-5.807,15.187-21.44,15.187-21.44s0.447,19.653-4.021,33.054c18.313-24.566,29.48-54.492,18.313-113.006"></path></g></g></g></g></svg>