<svg xmlns="http://www.w3.org/2000/svg" width="500" height="500" version="1.1"><g id="x223"><g><g><g><g><g><linearGradient id="hair1XMLID_4227_" gradientUnits="userSpaceOnUse" x1="249.6665" y1="294.667" x2="249.6665" y2="148.9998"><stop offset="0" style="stop-color:#FCFCE4"></stop><stop offset="0.5" style="stop-color:#A0C8DD"></stop><stop offset="1" style="stop-color:#5D6EC5"></stop></linearGradient><path style="fill:url(#hair1XMLID_4227_);stroke:#1E1E1E;stroke-linecap:round;stroke-linejoin:round;" d="M311.458,136.504c-17.106-17.505-41.812-23.971-61.792-20.231c-19.981-3.739-44.686,2.727-61.792,20.231c-13.126,13.432-22.395,30.316-22.395,51.335c0,24.493,15.344,44.594,26.063,48.78c-7.367-33.657-0.487-59.626,5.109-68.842c1.807-2.168,29.516-5.519,53.014-5.647c23.498,0.128,51.206,3.479,53.014,5.647c5.597,9.216,12.477,35.186,5.109,68.842c10.72-4.187,26.063-24.287,26.063-48.78C333.853,166.82,324.584,149.936,311.458,136.504z"></path></g></g></g></g><g><g><linearGradient id="hair1XMLID_4228_" gradientUnits="userSpaceOnUse" x1="187.9106" y1="294.667" x2="187.9106" y2="149"><stop offset="0" style="stop-color:#FCFCE4"></stop><stop offset="0.5" style="stop-color:#A0C8DD"></stop><stop offset="1" style="stop-color:#5D6EC5"></stop></linearGradient><path style="fill:url(#hair1XMLID_4228_);stroke:#1E1E1E;stroke-linecap:round;stroke-linejoin:round;" d="M192.146,298.829c0,0-6.167,32.327-3.485,47.205c-8.291-25.942-5.096-48.78,1.269-64.058C191.881,287.787,192.146,298.829,192.146,298.829z"></path><linearGradient id="hair1XMLID_4229_" gradientUnits="userSpaceOnUse" x1="187.6616" y1="294.667" x2="187.6616" y2="149.0004"><stop offset="0" style="stop-color:#FCFCE4"></stop><stop offset="0.5" style="stop-color:#A0C8DD"></stop><stop offset="1" style="stop-color:#5D6EC5"></stop></linearGradient><path style="fill:url(#hair1XMLID_4229_);stroke:#1E1E1E;stroke-linecap:round;stroke-linejoin:round;" d="M179.668,225.501c0,0,12.057,64.613,11.501,77.939c9.849-42.438,0.716-70.776-1.368-74.59C187.717,225.036,179.668,225.501,179.668,225.501z"></path></g><linearGradient id="hair1XMLID_4230_" gradientUnits="userSpaceOnUse" x1="213.1968" y1="294.667" x2="213.1968" y2="149.0001"><stop offset="0" style="stop-color:#FCFCE4"></stop><stop offset="0.5" style="stop-color:#A0C8DD"></stop><stop offset="1" style="stop-color:#5D6EC5"></stop></linearGradient><path style="fill:url(#hair1XMLID_4230_);stroke:#1E1E1E;stroke-linecap:round;stroke-linejoin:round;" d="M240,161c0,0-18.667,24.333-17.667,57c-8-13.667-5-23.333-3.667-33.333c0,0-7,13.333-8.667,34.333c-4.667-5.333-10.333-19-8-30.333c-9.333,18.667-11,29.667-12,41.667c-4-27-7.333-34.667,5.333-65"></path><linearGradient id="hair1XMLID_4231_" gradientUnits="userSpaceOnUse" x1="197.4995" y1="294.667" x2="197.4995" y2="149.0002"><stop offset="0" style="stop-color:#FCFCE4"></stop><stop offset="0.5" style="stop-color:#A0C8DD"></stop><stop offset="1" style="stop-color:#5D6EC5"></stop></linearGradient><path style="fill:url(#hair1XMLID_4231_);stroke:#1E1E1E;stroke-linecap:round;stroke-linejoin:round;" d="M245.666,122.667c0,0-19.667-8-32.667-7s-37,27.667-44,51.667s-3.333,56-19.667,61c8,0.333,26-0.333,33.333-13.667"></path><linearGradient id="hair1XMLID_4232_" gradientUnits="userSpaceOnUse" x1="188.9995" y1="294.667" x2="188.9995" y2="148.9999"><stop offset="0" style="stop-color:#FCFCE4"></stop><stop offset="0.5" style="stop-color:#A0C8DD"></stop><stop offset="1" style="stop-color:#5D6EC5"></stop></linearGradient><path style="fill:url(#hair1XMLID_4232_);stroke:#1E1E1E;stroke-linecap:round;stroke-linejoin:round;" d="M188,199.667c-1.333,3.333-2.667,30.667,12.667,40.333c-7.667-1.333-20.667-7-23.333-22.667"></path></g><g><g><linearGradient id="hair1XMLID_4233_" gradientUnits="userSpaceOnUse" x1="312.0898" y1="294.667" x2="312.0898" y2="149"><stop offset="0" style="stop-color:#FCFCE4"></stop><stop offset="0.5" style="stop-color:#A0C8DD"></stop><stop offset="1" style="stop-color:#5D6EC5"></stop></linearGradient><path style="fill:url(#hair1XMLID_4233_);stroke:#1E1E1E;stroke-linecap:round;stroke-linejoin:round;" d="M307.854,298.829c0,0,6.168,32.327,3.486,47.205c8.29-25.942,5.096-48.78-1.27-64.058C308.119,287.787,307.854,298.829,307.854,298.829z"></path><linearGradient id="hair1XMLID_4234_" gradientUnits="userSpaceOnUse" x1="312.3379" y1="294.667" x2="312.3379" y2="149.0004"><stop offset="0" style="stop-color:#FCFCE4"></stop><stop offset="0.5" style="stop-color:#A0C8DD"></stop><stop offset="1" style="stop-color:#5D6EC5"></stop></linearGradient><path style="fill:url(#hair1XMLID_4234_);stroke:#1E1E1E;stroke-linecap:round;stroke-linejoin:round;" d="M320.332,225.501c0,0-12.057,64.613-11.502,77.939c-9.848-42.438-0.715-70.776,1.369-74.59C312.283,225.036,320.332,225.501,320.332,225.501z"></path></g><linearGradient id="hair1XMLID_4235_" gradientUnits="userSpaceOnUse" x1="286.8027" y1="294.667" x2="286.8027" y2="149.0001"><stop offset="0" style="stop-color:#FCFCE4"></stop><stop offset="0.5" style="stop-color:#A0C8DD"></stop><stop offset="1" style="stop-color:#5D6EC5"></stop></linearGradient><path style="fill:url(#hair1XMLID_4235_);stroke:#1E1E1E;stroke-linecap:round;stroke-linejoin:round;" d="M260,161c0,0,18.667,24.333,17.667,57c8-13.667,5.001-23.333,3.667-33.333c0,0,7,13.333,8.666,34.333c4.667-5.333,10.334-19,8-30.333c9.334,18.667,11,29.667,12,41.667c4-27,7.334-34.667-5.333-65"></path><linearGradient id="hair1XMLID_4236_" gradientUnits="userSpaceOnUse" x1="302.5" y1="294.667" x2="302.5" y2="149.0002"><stop offset="0" style="stop-color:#FCFCE4"></stop><stop offset="0.5" style="stop-color:#A0C8DD"></stop><stop offset="1" style="stop-color:#5D6EC5"></stop></linearGradient><path style="fill:url(#hair1XMLID_4236_);stroke:#1E1E1E;stroke-linecap:round;stroke-linejoin:round;" d="M254.334,122.667c0,0,19.666-8,32.666-7s37,27.667,44,51.667s3.334,56,19.667,61c-8,0.333-25.999-0.333-33.333-13.667"></path><linearGradient id="hair1XMLID_4237_" gradientUnits="userSpaceOnUse" x1="311" y1="294.667" x2="311" y2="148.9999"><stop offset="0" style="stop-color:#FCFCE4"></stop><stop offset="0.5" style="stop-color:#A0C8DD"></stop><stop offset="1" style="stop-color:#5D6EC5"></stop></linearGradient><path style="fill:url(#hair1XMLID_4237_);stroke:#1E1E1E;stroke-linecap:round;stroke-linejoin:round;" d="M312,199.667c1.334,3.333,2.667,30.667-12.666,40.333c7.666-1.333,20.666-7,23.333-22.667"></path></g></g></g></svg>