<svg xmlns="http://www.w3.org/2000/svg" width="500" height="500" version="1.1"><g id="x225"><g><g><g><g><g><g><linearGradient id="hair1XMLID_4253_" gradientUnits="userSpaceOnUse" x1="249.6665" y1="252.5" x2="249.6665" y2="164.0001"><stop offset="0" style="stop-color:#FCFCE4"></stop><stop offset="0.5" style="stop-color:#A0C8DD"></stop><stop offset="1" style="stop-color:#5D6EC5"></stop></linearGradient><path style="fill:url(#hair1XMLID_4253_);stroke:#1E1E1E;stroke-linecap:round;stroke-linejoin:round;" d="M311.458,136.504c-17.106-17.505-41.812-23.971-61.792-20.231c-19.981-3.739-44.686,2.727-61.792,20.231c-13.126,13.432-22.395,30.316-22.395,51.335c0,24.493,15.344,44.594,26.063,48.78c-7.367-33.657-0.487-59.626,5.109-68.842c1.807-2.168,29.516-5.519,53.014-5.647c23.498,0.128,51.206,3.479,53.014,5.647c5.597,9.216,12.477,35.186,5.109,68.842c10.72-4.187,26.063-24.287,26.063-48.78C333.853,166.82,324.584,149.936,311.458,136.504z"></path></g></g></g></g></g><linearGradient id="hair1XMLID_4254_" gradientUnits="userSpaceOnUse" x1="309.584" y1="252.5" x2="309.584" y2="164.0002"><stop offset="0" style="stop-color:#FCFCE4"></stop><stop offset="0.5" style="stop-color:#A0C8DD"></stop><stop offset="1" style="stop-color:#5D6EC5"></stop></linearGradient><path style="fill:url(#hair1XMLID_4254_);stroke:#1E1E1E;stroke-linecap:round;stroke-linejoin:round;" d="M309,238.5c0,0-2.5,17-19,22.5c25-0.5,41-32.5,39-59"></path><linearGradient id="hair1XMLID_4255_" gradientUnits="userSpaceOnUse" x1="310.25" y1="252.5" x2="310.25" y2="163.9999"><stop offset="0" style="stop-color:#FCFCE4"></stop><stop offset="0.5" style="stop-color:#A0C8DD"></stop><stop offset="1" style="stop-color:#5D6EC5"></stop></linearGradient><path style="fill:url(#hair1XMLID_4255_);stroke:#1E1E1E;stroke-linecap:round;stroke-linejoin:round;" d="M308,208c0,0,1.5,34.5-10,44c15.5-9,24.5-23.5,24.5-47"></path><linearGradient id="hair1XMLID_4256_" gradientUnits="userSpaceOnUse" x1="300.3574" y1="252.5" x2="300.3574" y2="163.9997"><stop offset="0" style="stop-color:#FCFCE4"></stop><stop offset="0.5" style="stop-color:#A0C8DD"></stop><stop offset="1" style="stop-color:#5D6EC5"></stop></linearGradient><path style="fill:url(#hair1XMLID_4256_);stroke:#1E1E1E;stroke-linecap:round;stroke-linejoin:round;" d="M310,158c10.5,14.5,3.5,51-6.5,65.5c2.5-17-14.5-45-14.5-45l-3.5-16"></path><linearGradient id="hair1XMLID_4257_" gradientUnits="userSpaceOnUse" x1="220.9438" y1="252.5" x2="220.9438" y2="163.9999"><stop offset="0" style="stop-color:#FCFCE4"></stop><stop offset="0.5" style="stop-color:#A0C8DD"></stop><stop offset="1" style="stop-color:#5D6EC5"></stop></linearGradient><path style="fill:url(#hair1XMLID_4257_);stroke:#1E1E1E;stroke-linecap:round;stroke-linejoin:round;" d="M235.5,161c0,0-8.5,13-10.5,32c-5.5-10-5.5-19-2-30c-6.5,17-12.5,26.5-12.5,39c-6.5-13.5-4.5-28,0.5-40"></path><linearGradient id="hair1XMLID_4258_" gradientUnits="userSpaceOnUse" x1="263.2461" y1="252.5" x2="263.2461" y2="164"><stop offset="0" style="stop-color:#FCFCE4"></stop><stop offset="0.5" style="stop-color:#A0C8DD"></stop><stop offset="1" style="stop-color:#5D6EC5"></stop></linearGradient><path style="fill:url(#hair1XMLID_4258_);stroke:#1E1E1E;stroke-linecap:round;stroke-linejoin:round;" d="M233.5,148c0,0-2,33,22.5,39.5c-8-20.5-5-30.5-5-30.5s-1.792,15.489,15.5,25.5c19,11,18.5,24,18.5,24s15-32,4-48.5"></path><linearGradient id="hair1XMLID_4259_" gradientUnits="userSpaceOnUse" x1="190.5483" y1="252.5" x2="190.5483" y2="164"><stop offset="0" style="stop-color:#FCFCE4"></stop><stop offset="0.5" style="stop-color:#A0C8DD"></stop><stop offset="1" style="stop-color:#5D6EC5"></stop></linearGradient><path style="fill:url(#hair1XMLID_4259_);stroke:#1E1E1E;stroke-linecap:round;stroke-linejoin:round;" d="M211.5,163c0,0-16.5,16.5-18.5,44c-1.5,17.5,0.5,29,4.5,34.5c-5.75-3.25-9-9.25-9-18c-1.625,12.875,6.875,25.75,15,34.875c-14.5-2-49.5-32.875-26-89.875"></path></g></g></svg>