<svg xmlns="http://www.w3.org/2000/svg" width="500" height="500" version="1.1"><g id="x226"><g><g><g><g><g><g><g><linearGradient id="hair1XMLID_4260_" gradientUnits="userSpaceOnUse" x1="249.6665" y1="256.667" x2="249.6665" y2="173.3335"><stop offset="0" style="stop-color:#FCFCE4"></stop><stop offset="0.5" style="stop-color:#A0C8DD"></stop><stop offset="1" style="stop-color:#5D6EC5"></stop></linearGradient><path style="fill:url(#hair1XMLID_4260_);stroke:#1E1E1E;stroke-linecap:round;stroke-linejoin:round;" d="M311.458,136.504c-17.106-17.505-41.812-23.971-61.792-20.231c-19.981-3.739-44.686,2.727-61.792,20.231c-13.126,13.432-22.395,30.316-22.395,51.335c0,24.493,15.344,44.594,26.063,48.78c-7.367-33.657-0.487-59.626,5.109-68.842c1.807-2.168,29.516-5.519,53.014-5.647c23.498,0.128,51.206,3.479,53.014,5.647c5.597,9.216,12.477,35.186,5.109,68.842c10.72-4.187,26.063-24.287,26.063-48.78C333.853,166.82,324.584,149.936,311.458,136.504z"></path></g></g></g></g></g></g><g><g><g><linearGradient id="hair1XMLID_4261_" gradientUnits="userSpaceOnUse" x1="311.2344" y1="256.667" x2="311.2344" y2="173.3333"><stop offset="0" style="stop-color:#FCFCE4"></stop><stop offset="0.5" style="stop-color:#A0C8DD"></stop><stop offset="1" style="stop-color:#5D6EC5"></stop></linearGradient><path style="fill:url(#hair1XMLID_4261_);stroke:#1E1E1E;stroke-linecap:round;stroke-linejoin:round;" d="M306,208c0,0,7.334,29.333-4.333,44c11.666-5.333,20.334-23.333,19-43.333"></path><linearGradient id="hair1XMLID_4262_" gradientUnits="userSpaceOnUse" x1="294.3818" y1="256.667" x2="294.3818" y2="173.3334"><stop offset="0" style="stop-color:#FCFCE4"></stop><stop offset="0.5" style="stop-color:#A0C8DD"></stop><stop offset="1" style="stop-color:#5D6EC5"></stop></linearGradient><path style="fill:url(#hair1XMLID_4262_);stroke:#1E1E1E;stroke-linecap:round;stroke-linejoin:round;" d="M304.333,160.667c0,0,21.001,16.667,17.334,49c-14-3.333-42.666-12.333-55-49.333"></path><linearGradient id="hair1XMLID_4263_" gradientUnits="userSpaceOnUse" x1="298.166" y1="256.667" x2="298.166" y2="173.3337"><stop offset="0" style="stop-color:#FCFCE4"></stop><stop offset="0.5" style="stop-color:#A0C8DD"></stop><stop offset="1" style="stop-color:#5D6EC5"></stop></linearGradient><path style="fill:url(#hair1XMLID_4263_);stroke:#1E1E1E;stroke-linecap:round;stroke-linejoin:round;" d="M267.333,161.667c0,0,4,53.666,61.667,48.333c-11-3.333-28.999-14-39.333-29"></path></g><g><linearGradient id="hair1XMLID_4264_" gradientUnits="userSpaceOnUse" x1="228.1128" y1="256.667" x2="228.1128" y2="173.3334"><stop offset="0" style="stop-color:#FCFCE4"></stop><stop offset="0.5" style="stop-color:#A0C8DD"></stop><stop offset="1" style="stop-color:#5D6EC5"></stop></linearGradient><path style="fill:url(#hair1XMLID_4264_);stroke:#1E1E1E;stroke-linecap:round;stroke-linejoin:round;" d="M270,158c-1,1-21.667,47-83.333,53.667c-2.333-13.333,5-42,12-48.333"></path><path style="fill:none;stroke:#1E1E1E;stroke-linecap:round;stroke-linejoin:round;" d="M186.667,211.667c0,0,48.667-21.667,60-54.667"></path></g></g><linearGradient id="hair1XMLID_4265_" gradientUnits="userSpaceOnUse" x1="185.1665" y1="256.667" x2="185.1665" y2="173.3336"><stop offset="0" style="stop-color:#FCFCE4"></stop><stop offset="0.5" style="stop-color:#A0C8DD"></stop><stop offset="1" style="stop-color:#5D6EC5"></stop></linearGradient><path style="fill:url(#hair1XMLID_4265_);stroke:#1E1E1E;stroke-linecap:round;stroke-linejoin:round;" d="M184,234.333c0,0,6.667,21,18.667,29.667c-21-3-35-22.333-35-56"></path><linearGradient id="hair1XMLID_4266_" gradientUnits="userSpaceOnUse" x1="185.8013" y1="256.667" x2="185.8013" y2="173.3335"><stop offset="0" style="stop-color:#FCFCE4"></stop><stop offset="0.5" style="stop-color:#A0C8DD"></stop><stop offset="1" style="stop-color:#5D6EC5"></stop></linearGradient><path style="fill:url(#hair1XMLID_4266_);stroke:#1E1E1E;stroke-linecap:round;stroke-linejoin:round;" d="M202.333,160.667c0,0-31.667,63.667,4,96.667c-26-8.667-44-32.667-40.667-72"></path></g></g></g></svg>