<svg xmlns="http://www.w3.org/2000/svg" width="500" height="500" version="1.1"><g id="x022"><g><linearGradient id="hair1XMLID_2579_" gradientUnits="userSpaceOnUse" x1="250.0005" y1="221.667" x2="250.0005" y2="144.667"><stop offset="0" style="stop-color:#FCFCE4"></stop><stop offset="0.5" style="stop-color:#A0C8DD"></stop><stop offset="1" style="stop-color:#5D6EC5"></stop></linearGradient><path style="fill:url(#hair1XMLID_2579_);stroke:#1E1E1E;stroke-linecap:round;stroke-linejoin:round;" d="M333.645,181.592c-0.188-1.847-0.439-3.667-0.744-5.462c-0.088-0.548-0.191-1.088-0.292-1.63c-0.056-0.293-0.114-0.585-0.173-0.876c-0.181-0.9-0.375-1.793-0.591-2.676c-0.19-0.8-0.394-1.593-0.607-2.38c-0.005-0.016-0.009-0.032-0.014-0.047c-2.292-8.398-5.919-16.074-10.776-22.745c5.327-0.993,8.528-4.723,13.75-8.295c-16.08,3.127-24.12-5.36-35.288-13.848c-3.548-2.698-7.502-3.633-11.246-3.656c-12.508-5.072-25.907-6.425-37.663-4.225c-16.111-3.015-35.308,0.64-51.066,11.402c-8.804,4.948-17.817,11.411-21.517,20.154c-4.914,11.615-12.952,16.08-23.227,19.205c4.785,1.674,10.463,0.521,15.805-1.797c-0.55,1.566-1.036,3.166-1.472,4.791c-9.314,13.689-11.08,24.85-8.973,43.461c0-8.703,2.938-17.404,6.563-24.836c-1.321,6.501-1.821,12.998-0.757,18.582c1.681,8.824,7.034,18.929,12.598,27.438c-0.263-4.204-0.698-8.421-1.038-12.66c4.824,7.138,10.493,12.15,15.249,14.008c-1.736-7.932-2.669-15.427-3.021-22.381c0,0,3.608-29.808,11.591-41.919c19.433-11.662,93.8-6.7,97.149-2.68c5.05,8.317,9.509,29.451,13.131,38.884c-0.047,8.497-0.96,17.942-3.183,28.097c5.328-2.081,11.804-8.114,16.951-16.667c2.344,2.791,3.251,5.297,3.251,5.297c0.548-1.194,3.502-12.384,4.032-13.771c1.004-4.973,1.627-9.867,1.887-14.65c3.238,1.293,7.134,1.256,11.854,0.73C339.696,191.936,336.365,188.822,333.645,181.592z"></path><linearGradient id="hair1XMLID_2580_" gradientUnits="userSpaceOnUse" x1="223.8413" y1="221.667" x2="223.8413" y2="144.6671"><stop offset="0" style="stop-color:#FCFCE4"></stop><stop offset="0.5" style="stop-color:#A0C8DD"></stop><stop offset="1" style="stop-color:#5D6EC5"></stop></linearGradient><path style="fill:url(#hair1XMLID_2580_);stroke:#1E1E1E;stroke-linecap:round;stroke-linejoin:round;" d="M225.657,127.294c-1.34,0.447-27.694-11.167,1.786-25.908c-5.807,12.06,1.34,18.757,6.7,20.992"></path><linearGradient id="hair1XMLID_2581_" gradientUnits="userSpaceOnUse" x1="244.1743" y1="221.667" x2="244.1743" y2="144.6671"><stop offset="0" style="stop-color:#FCFCE4"></stop><stop offset="0.5" style="stop-color:#A0C8DD"></stop><stop offset="1" style="stop-color:#5D6EC5"></stop></linearGradient><path style="fill:url(#hair1XMLID_2581_);stroke:#1E1E1E;stroke-linecap:round;stroke-linejoin:round;" d="M233.375,125.407c0,0-14.703-26.575,24.313-30.535c-8.48,7.915-22.617,19.223-9.046,23.183"></path><linearGradient id="hair1XMLID_2582_" gradientUnits="userSpaceOnUse" x1="265.624" y1="221.667" x2="265.624" y2="144.6671"><stop offset="0" style="stop-color:#FCFCE4"></stop><stop offset="0.5" style="stop-color:#A0C8DD"></stop><stop offset="1" style="stop-color:#5D6EC5"></stop></linearGradient><path style="fill:url(#hair1XMLID_2582_);stroke:#1E1E1E;stroke-linecap:round;stroke-linejoin:round;" d="M238.61,121.489c0-1.788-1.341-12.505,18.312-12.06c19.655,0.445,23.675,9.377,35.735-3.575c-3.575,12.06-23.228,24.481-33.056,18.673"></path><g><linearGradient id="hair1XMLID_2583_" gradientUnits="userSpaceOnUse" x1="298.0742" y1="221.667" x2="298.0742" y2="144.6668"><stop offset="0" style="stop-color:#FCFCE4"></stop><stop offset="0.5" style="stop-color:#A0C8DD"></stop><stop offset="1" style="stop-color:#5D6EC5"></stop></linearGradient><path style="fill:url(#hair1XMLID_2583_);stroke:#1E1E1E;stroke-linecap:round;stroke-linejoin:round;" d="M282.923,164.5c0,0,20.008,24.35,29.39,48.805c1.675-3.685,2.01-43.215-7.707-56.279"></path><linearGradient id="hair1XMLID_2584_" gradientUnits="userSpaceOnUse" x1="234.4619" y1="221.667" x2="234.4619" y2="144.6671"><stop offset="0" style="stop-color:#FCFCE4"></stop><stop offset="0.5" style="stop-color:#A0C8DD"></stop><stop offset="1" style="stop-color:#5D6EC5"></stop></linearGradient><path style="fill:url(#hair1XMLID_2584_);stroke:#1E1E1E;stroke-linecap:round;stroke-linejoin:round;" d="M288.86,156.021c0,0-7.034,17.755-29.145,20.435c-5.36,9.715-37.185,12.395-41.539,8.71c-3.686,2.681-16.08,21.104-36.516,16.75c-5.694-18.761,4.355-52.26,21.775-61.305"></path><linearGradient id="hair1XMLID_2585_" gradientUnits="userSpaceOnUse" x1="197.4614" y1="221.667" x2="197.4614" y2="144.6671"><stop offset="0" style="stop-color:#FCFCE4"></stop><stop offset="0.5" style="stop-color:#A0C8DD"></stop><stop offset="1" style="stop-color:#5D6EC5"></stop></linearGradient><path style="fill:url(#hair1XMLID_2585_);stroke:#1E1E1E;stroke-linecap:round;stroke-linejoin:round;" d="M213.151,189.52c0,0-24.79,15.41-28.475,28.476c-4.021-7.37-4.69-26.466,3.35-37.185"></path></g></g><g><g><path style="fill:#FFF0DE;" d="M185.006,172.536c0,0,5.852-11.712,8.195-12.295c2.342-0.585-0.816,19.084-4.1,18.149C186.029,177.513,183.834,175.318,185.006,172.536z"></path><path style="fill:#FFF0DE;" d="M193.119,177.217c0,0,0.45-7.659,2.929-9.365c2.478-1.707,1.757,11.708,0,11.708C194.291,179.56,193.119,180.145,193.119,177.217z"></path><path style="fill:#FFF0DE;" d="M307.994,172.536c0,0-5.853-11.712-8.195-12.295c-2.343-0.585,0.816,19.084,4.1,18.149C306.971,177.513,309.165,175.318,307.994,172.536z"></path><path style="fill:#FFF0DE;" d="M299.881,177.217c0,0-0.451-7.659-2.93-9.365c-2.478-1.707-1.756,11.708,0,11.708C298.709,179.56,299.881,180.145,299.881,177.217z"></path></g></g></g></svg>