<svg xmlns="http://www.w3.org/2000/svg" width="500" height="500" version="1.1"><g id="x228"><g><g><g><g><g><g><g><g><linearGradient id="hair1XMLID_4276_" gradientUnits="userSpaceOnUse" x1="249.6665" y1="264" x2="249.6665" y2="157.5"><stop offset="0" style="stop-color:#FCFCE4"></stop><stop offset="0.5" style="stop-color:#A0C8DD"></stop><stop offset="1" style="stop-color:#5D6EC5"></stop></linearGradient><path style="fill:url(#hair1XMLID_4276_);stroke:#1E1E1E;stroke-linecap:round;stroke-linejoin:round;" d="M311.458,136.504c-17.106-17.505-41.812-23.971-61.792-20.231c-19.981-3.739-44.686,2.727-61.792,20.231c-13.126,13.432-22.395,30.316-22.395,51.335c0,24.493,15.344,44.594,26.063,48.78c-7.367-33.657-0.487-59.626,5.109-68.842c1.807-2.168,29.516-5.519,53.014-5.647c23.498,0.128,51.206,3.479,53.014,5.647c5.597,9.216,12.477,35.186,5.109,68.842c10.72-4.187,26.063-24.287,26.063-48.78C333.853,166.82,324.584,149.936,311.458,136.504z"></path></g></g></g></g></g></g><linearGradient id="hair1XMLID_4277_" gradientUnits="userSpaceOnUse" x1="253.6953" y1="277.2627" x2="253.6953" y2="157.6848"><stop offset="0" style="stop-color:#FCFCE4"></stop><stop offset="0.5" style="stop-color:#A0C8DD"></stop><stop offset="1" style="stop-color:#5D6EC5"></stop></linearGradient><path style="fill:url(#hair1XMLID_4277_);stroke:#1E1E1E;stroke-linecap:round;stroke-linejoin:round;" d="M227.5,156c0,0-5,80,52.5,96c-25-31.5-22.5-94.5-22.5-94.5"></path><linearGradient id="hair1XMLID_4278_" gradientUnits="userSpaceOnUse" x1="308.499" y1="264" x2="308.499" y2="157.4997"><stop offset="0" style="stop-color:#FCFCE4"></stop><stop offset="0.5" style="stop-color:#A0C8DD"></stop><stop offset="1" style="stop-color:#5D6EC5"></stop></linearGradient><path style="fill:url(#hair1XMLID_4278_);stroke:#1E1E1E;stroke-linecap:round;stroke-linejoin:round;" d="M307,236.5c0,0,0,17-16.5,29c22.5-3.5,40.5-30,35-62"></path><linearGradient id="hair1XMLID_4279_" gradientUnits="userSpaceOnUse" x1="321.084" y1="264" x2="321.084" y2="157.5001"><stop offset="0" style="stop-color:#FCFCE4"></stop><stop offset="0.5" style="stop-color:#A0C8DD"></stop><stop offset="1" style="stop-color:#5D6EC5"></stop></linearGradient><path style="fill:url(#hair1XMLID_4279_);stroke:#1E1E1E;stroke-linecap:round;stroke-linejoin:round;" d="M309.667,210c0,0,3.499,21.5,22.833,29.833c-5.166-12-6.333-24.667-4.833-44.833c1.434-19.28-1.667-31.667-7.333-39.333"></path><linearGradient id="hair1XMLID_4280_" gradientUnits="userSpaceOnUse" x1="303.2598" y1="264" x2="303.2598" y2="157.5004"><stop offset="0" style="stop-color:#FCFCE4"></stop><stop offset="0.5" style="stop-color:#A0C8DD"></stop><stop offset="1" style="stop-color:#5D6EC5"></stop></linearGradient><path style="fill:url(#hair1XMLID_4280_);stroke:#1E1E1E;stroke-linecap:round;stroke-linejoin:round;" d="M287,161.5c0,0,26.5,40.5,15.5,84.5c15.5-17.5,25.167-51.5,7.667-90.667"></path><linearGradient id="hair1XMLID_4281_" gradientUnits="userSpaceOnUse" x1="295.2217" y1="264" x2="295.2217" y2="157.5002"><stop offset="0" style="stop-color:#FCFCE4"></stop><stop offset="0.5" style="stop-color:#A0C8DD"></stop><stop offset="1" style="stop-color:#5D6EC5"></stop></linearGradient><path style="fill:url(#hair1XMLID_4281_);stroke:#1E1E1E;stroke-linecap:round;stroke-linejoin:round;" d="M257.5,161.5c0,0,4.423,58.287,73.435,53.684l2.009-5.661C311.396,199.215,292.066,173.545,287,157.5"></path><linearGradient id="hair1XMLID_4282_" gradientUnits="userSpaceOnUse" x1="333.8594" y1="264" x2="333.8594" y2="157.5"><stop offset="0" style="stop-color:#FCFCE4"></stop><stop offset="0.5" style="stop-color:#A0C8DD"></stop><stop offset="1" style="stop-color:#5D6EC5"></stop></linearGradient><path style="fill:url(#hair1XMLID_4282_);stroke:#1E1E1E;stroke-linecap:round;stroke-linejoin:round;" d="M326.167,207.833c0,0,12.333,0.667,12.333-11.333c7.5,5-0.166,19.667-8.5,18.667"></path><linearGradient id="hair1XMLID_4283_" gradientUnits="userSpaceOnUse" x1="206.3647" y1="264" x2="206.3647" y2="157.5002"><stop offset="0" style="stop-color:#FCFCE4"></stop><stop offset="0.5" style="stop-color:#A0C8DD"></stop><stop offset="1" style="stop-color:#5D6EC5"></stop></linearGradient><path style="fill:url(#hair1XMLID_4283_);stroke:#1E1E1E;stroke-linecap:round;stroke-linejoin:round;" d="M226.833,161.5c0,0-18.333,26-40.833,39.5c-1.333-16.667,10.5-35.833,17-42"></path><linearGradient id="hair1XMLID_4284_" gradientUnits="userSpaceOnUse" x1="187.6968" y1="264" x2="187.6968" y2="157.5"><stop offset="0" style="stop-color:#FCFCE4"></stop><stop offset="0.5" style="stop-color:#A0C8DD"></stop><stop offset="1" style="stop-color:#5D6EC5"></stop></linearGradient><path style="fill:url(#hair1XMLID_4284_);stroke:#1E1E1E;stroke-linecap:round;stroke-linejoin:round;" d="M206.5,157.333c0,0-34.333,83.333,4,111.167c-40.833-8.166-51.833-60.333-42.5-92.167"></path><linearGradient id="hair1XMLID_4285_" gradientUnits="userSpaceOnUse" x1="196.9497" y1="264" x2="196.9497" y2="157.4999"><stop offset="0" style="stop-color:#FCFCE4"></stop><stop offset="0.5" style="stop-color:#A0C8DD"></stop><stop offset="1" style="stop-color:#5D6EC5"></stop></linearGradient><path style="fill:url(#hair1XMLID_4285_);stroke:#1E1E1E;stroke-linecap:round;stroke-linejoin:round;" d="M192.367,221.333c-0.5,4-1.5,19,17,36.833c-10.667-1.167-22-12.833-24.833-18.333"></path></g><linearGradient id="hair1XMLID_4286_" gradientUnits="userSpaceOnUse" x1="201.564" y1="270.4697" x2="201.564" y2="159.7327"><stop offset="0" style="stop-color:#FCFCE4"></stop><stop offset="0.5" style="stop-color:#A0C8DD"></stop><stop offset="1" style="stop-color:#5D6EC5"></stop></linearGradient><path style="fill:url(#hair1XMLID_4286_);stroke:#1E1E1E;stroke-linecap:round;stroke-linejoin:round;" d="M237.5,116c0,0-22.5-4-51.5,24c-27.311,26.37-26,84.5-3,102c-17-30-16.5-65,4.5-96.5"></path></g></g></svg>