<svg xmlns="http://www.w3.org/2000/svg" width="500" height="500" version="1.1"><g id="x230"><g><linearGradient id="hair1XMLID_4300_" gradientUnits="userSpaceOnUse" x1="332.3477" y1="246" x2="332.3477" y2="115.5001"><stop offset="0" style="stop-color:#FCFCE4"></stop><stop offset="0.5" style="stop-color:#A0C8DD"></stop><stop offset="1" style="stop-color:#5D6EC5"></stop></linearGradient><path style="fill:url(#hair1XMLID_4300_);stroke:#1E1E1E;stroke-linecap:round;stroke-linejoin:round;" d="M321,148c0,1,13.75,12.5,22.25,0.25c3.75,15-5.75,25.25-20.75,22C319.5,157.75,321,148,321,148z"></path><g><g><g><linearGradient id="hair1XMLID_4301_" gradientUnits="userSpaceOnUse" x1="249.6665" y1="246" x2="249.6665" y2="115.5002"><stop offset="0" style="stop-color:#FCFCE4"></stop><stop offset="0.5" style="stop-color:#A0C8DD"></stop><stop offset="1" style="stop-color:#5D6EC5"></stop></linearGradient><path style="fill:url(#hair1XMLID_4301_);stroke:#1E1E1E;stroke-linecap:round;stroke-linejoin:round;" d="M311.458,136.504c-1.892-1.936-3.881-3.729-5.942-5.396C292.083,118.041,270.5,113,250,113s-39.892,4.277-52.487,15.315c-3.401,2.396-6.639,5.119-9.639,8.188c-13.126,13.432-22.395,30.316-22.395,51.335c0,24.493,15.344,44.594,26.063,48.78c-7.367-33.657-0.487-59.626,5.109-68.842c1.807-2.168,29.516-5.519,53.014-5.647c23.498,0.128,51.206,3.479,53.014,5.647c5.597,9.216,12.477,35.186,5.109,68.842c10.72-4.187,26.063-24.287,26.063-48.78C333.853,166.82,324.584,149.936,311.458,136.504z"></path></g></g><linearGradient id="hair1XMLID_4302_" gradientUnits="userSpaceOnUse" x1="166.2827" y1="246" x2="166.2827" y2="115.5"><stop offset="0" style="stop-color:#FCFCE4"></stop><stop offset="0.5" style="stop-color:#A0C8DD"></stop><stop offset="1" style="stop-color:#5D6EC5"></stop></linearGradient><path style="fill:url(#hair1XMLID_4302_);stroke:#1E1E1E;stroke-linecap:round;stroke-linejoin:round;" d="M176.25,151.25c0,0-9.5,9.75-19.75,0.5c-1.75,13.25,9.25,21.5,19.75,17.5"></path><linearGradient id="hair1XMLID_4303_" gradientUnits="userSpaceOnUse" x1="181.75" y1="246" x2="181.75" y2="115.4999"><stop offset="0" style="stop-color:#FCFCE4"></stop><stop offset="0.5" style="stop-color:#A0C8DD"></stop><stop offset="1" style="stop-color:#5D6EC5"></stop></linearGradient><path style="fill:url(#hair1XMLID_4303_);stroke:#1E1E1E;stroke-linecap:round;stroke-linejoin:round;" d="M167.25,202.25c2.25,12.75,11.5,30.5,25,36.25c-4.426-15.275-0.536-41.475,3.615-61.141l0.385-10.109"></path><linearGradient id="hair1XMLID_4304_" gradientUnits="userSpaceOnUse" x1="184.7803" y1="246" x2="184.7803" y2="115.5003"><stop offset="0" style="stop-color:#FCFCE4"></stop><stop offset="0.5" style="stop-color:#A0C8DD"></stop><stop offset="1" style="stop-color:#5D6EC5"></stop></linearGradient><path style="fill:url(#hair1XMLID_4304_);stroke:#1E1E1E;stroke-linecap:round;stroke-linejoin:round;" d="M187.25,202.5c1.5,19.5,5.25,38,18.5,45.25c-59.5-6.5-38.25-77.5-38.25-77.5l7-7.25"></path><linearGradient id="hair1XMLID_4305_" gradientUnits="userSpaceOnUse" x1="288.1885" y1="246" x2="288.1885" y2="115.5"><stop offset="0" style="stop-color:#FCFCE4"></stop><stop offset="0.5" style="stop-color:#A0C8DD"></stop><stop offset="1" style="stop-color:#5D6EC5"></stop></linearGradient><path style="fill:url(#hair1XMLID_4305_);stroke:#1E1E1E;stroke-linecap:round;stroke-linejoin:round;" d="M306.449,167.765c4.23,11.122,8.265,28.559,6.051,40.735c-25.75-9-29-26.75-29.75-28.75L263.25,157"></path><linearGradient id="hair1XMLID_4306_" gradientUnits="userSpaceOnUse" x1="204.3208" y1="246" x2="204.3208" y2="115.4999"><stop offset="0" style="stop-color:#FCFCE4"></stop><stop offset="0.5" style="stop-color:#A0C8DD"></stop><stop offset="1" style="stop-color:#5D6EC5"></stop></linearGradient><path style="fill:url(#hair1XMLID_4306_);stroke:#1E1E1E;stroke-linecap:round;stroke-linejoin:round;" d="M215.5,161.5c0,0-11.25,23.25-10.25,41.5c-11.5-9.75-14.75-28.5-10-43.75"></path><linearGradient id="hair1XMLID_4307_" gradientUnits="userSpaceOnUse" x1="256.8047" y1="246" x2="256.8047" y2="115.4997"><stop offset="0" style="stop-color:#FCFCE4"></stop><stop offset="0.5" style="stop-color:#A0C8DD"></stop><stop offset="1" style="stop-color:#5D6EC5"></stop></linearGradient><path style="fill:url(#hair1XMLID_4307_);stroke:#1E1E1E;stroke-linecap:round;stroke-linejoin:round;" d="M216,156.25c-0.25,0.75-8.5,29.5,14.5,45.5c-3.5-22,1.75-39.75,1.75-39.75s-1.75,44.5,67,43.25c-11.25-6.75-8.023-20.487-16.25-36c-8.75-16.5-20.25-24-21.5-24.25"></path><linearGradient id="hair1XMLID_4308_" gradientUnits="userSpaceOnUse" x1="314.25" y1="246" x2="314.25" y2="115.5"><stop offset="0" style="stop-color:#FCFCE4"></stop><stop offset="0.5" style="stop-color:#A0C8DD"></stop><stop offset="1" style="stop-color:#5D6EC5"></stop></linearGradient><path style="fill:url(#hair1XMLID_4308_);stroke:#1E1E1E;stroke-linecap:round;stroke-linejoin:round;" d="M296.75,151.5c0,0,17.75,60.25,10,87c13.5-5.75,22.75-23.5,25-36.25"></path><linearGradient id="hair1XMLID_4309_" gradientUnits="userSpaceOnUse" x1="322.125" y1="246" x2="322.125" y2="115.5003"><stop offset="0" style="stop-color:#FCFCE4"></stop><stop offset="0.5" style="stop-color:#A0C8DD"></stop><stop offset="1" style="stop-color:#5D6EC5"></stop></linearGradient><path style="fill:url(#hair1XMLID_4309_);stroke:#1E1E1E;stroke-linecap:round;stroke-linejoin:round;" d="M311.75,202.5c0.75,16.25-5.25,38-18.5,45.25c23,4,43.75-16.25,40.25-44.5c0,0,6,7.25,17.5,4.75c-12.5-4.75-18-27.5-18-27.5"></path></g></g></g></svg>