<svg xmlns="http://www.w3.org/2000/svg" width="500" height="500" version="1.1"><g id="x231"><g><g><g><g><linearGradient id="hair1XMLID_4310_" gradientUnits="userSpaceOnUse" x1="249.6665" y1="244.5" x2="249.6665" y2="116.5003"><stop offset="0" style="stop-color:#FCFCE4"></stop><stop offset="0.5" style="stop-color:#A0C8DD"></stop><stop offset="1" style="stop-color:#5D6EC5"></stop></linearGradient><path style="fill:url(#hair1XMLID_4310_);stroke:#1E1E1E;stroke-linecap:round;stroke-linejoin:round;" d="M311.458,136.504c-1.892-1.936-3.881-3.729-5.942-5.396C292.083,118.041,270.5,114,250,114s-39.892,3.277-52.487,14.315c-3.401,2.396-6.639,5.119-9.639,8.188c-13.126,13.432-22.395,30.316-22.395,51.335c0,24.493,15.344,44.594,26.063,48.78c-7.367-33.657-0.487-59.626,5.109-68.842c1.807-2.168,29.516-5.519,53.014-5.647c23.498,0.128,51.206,3.479,53.014,5.647c5.597,9.216,12.477,35.186,5.109,68.842c10.72-4.187,26.063-24.287,26.063-48.78C333.853,166.82,324.584,149.936,311.458,136.504z"></path></g></g></g><linearGradient id="hair1XMLID_4311_" gradientUnits="userSpaceOnUse" x1="183.9478" y1="244.5" x2="183.9478" y2="116.5004"><stop offset="0" style="stop-color:#FCFCE4"></stop><stop offset="0.5" style="stop-color:#A0C8DD"></stop><stop offset="1" style="stop-color:#5D6EC5"></stop></linearGradient><path style="fill:url(#hair1XMLID_4311_);stroke:#1E1E1E;stroke-linecap:round;stroke-linejoin:round;" d="M211,181c0,0,5.837,32.453-22.667,39.333c-29,7-35-23.667-30.667-32c1,8.333,10,15,17.333,11.333s-2-45.333,21-59"></path><linearGradient id="hair1XMLID_4312_" gradientUnits="userSpaceOnUse" x1="209.6118" y1="244.5" x2="209.6118" y2="116.5001"><stop offset="0" style="stop-color:#FCFCE4"></stop><stop offset="0.5" style="stop-color:#A0C8DD"></stop><stop offset="1" style="stop-color:#5D6EC5"></stop></linearGradient><path style="fill:url(#hair1XMLID_4312_);stroke:#1E1E1E;stroke-linecap:round;stroke-linejoin:round;" d="M222,160.667c0,0-11.667,27.667-7.667,52.333c-11.667-7.333-22.667-29-14-55"></path><g><linearGradient id="hair1XMLID_4313_" gradientUnits="userSpaceOnUse" x1="274.1289" y1="244.5" x2="274.1289" y2="116.5002"><stop offset="0" style="stop-color:#FCFCE4"></stop><stop offset="0.5" style="stop-color:#A0C8DD"></stop><stop offset="1" style="stop-color:#5D6EC5"></stop></linearGradient><path style="fill:url(#hair1XMLID_4313_);stroke:#1E1E1E;stroke-linecap:round;stroke-linejoin:round;" d="M221,158.333c0,0-5.61,31.567,25.957,46.633c7.891,10.403,25.828,11.12,33.361,7.533c5.381,4.305,33.002,6.099,43.046-6.457c10.044-12.555,1.794-50.329-18.295-55.709"></path><linearGradient id="hair1XMLID_4314_" gradientUnits="userSpaceOnUse" x1="243.8149" y1="244.5" x2="243.8149" y2="116.5001"><stop offset="0" style="stop-color:#FCFCE4"></stop><stop offset="0.5" style="stop-color:#A0C8DD"></stop><stop offset="1" style="stop-color:#5D6EC5"></stop></linearGradient><path style="fill:url(#hair1XMLID_4314_);stroke:#1E1E1E;stroke-linecap:round;stroke-linejoin:round;" d="M239.782,176.987c0,0-2.153,17.937,8.25,29.056"></path></g></g></g></svg>