<svg xmlns="http://www.w3.org/2000/svg" width="500" height="500" version="1.1"><g id="x233"><g><g><g><g><linearGradient id="hair1XMLID_4319_" gradientUnits="userSpaceOnUse" x1="250.0005" y1="226.5" x2="250.0005" y2="111.5"><stop offset="0" style="stop-color:#FCFCE4"></stop><stop offset="0.5" style="stop-color:#A0C8DD"></stop><stop offset="1" style="stop-color:#5D6EC5"></stop></linearGradient><path style="fill:url(#hair1XMLID_4319_);stroke:#1E1E1E;stroke-linecap:round;stroke-linejoin:round;" d="M311.792,136.504c-1.892-1.936-3.881-3.729-5.942-5.396C292.417,118.041,270.834,114,250.334,114s-39.892,3.277-52.487,14.315c-3.401,2.396-6.639,5.119-9.639,8.188c-13.126,13.432-22.395,30.316-22.395,51.335c0,24.493,15.344,44.594,26.063,48.78c-7.367-33.657-0.487-59.626,5.109-68.842c1.807-2.168,29.516-5.519,53.014-5.647c23.498,0.128,51.206,3.479,53.014,5.647c5.597,9.216,12.477,35.186,5.109,68.842c10.72-4.187,26.063-24.287,26.063-48.78C334.187,166.82,324.918,149.936,311.792,136.504z"></path></g></g></g><g><linearGradient id="hair1XMLID_4320_" gradientUnits="userSpaceOnUse" x1="250.334" y1="226.5" x2="250.334" y2="111.5"><stop offset="0" style="stop-color:#FCFCE4"></stop><stop offset="0.5" style="stop-color:#A0C8DD"></stop><stop offset="1" style="stop-color:#5D6EC5"></stop></linearGradient><path style="fill:url(#hair1XMLID_4320_);stroke:#1E1E1E;stroke-linecap:round;stroke-linejoin:round;" d="M319,141.516c-5.334-7.721-19-14.478-26.333-16.086c-15.333-16.728-42.333-15.763-42.333-15.763s-27-0.965-42.333,15.763c-7.333,1.608-21,8.365-26.333,16.086c-4.316,6.249-13.333,25.415-10.667,40.856s14,30.563,26.667,34.423c-5.667-9.33-8.333-18.659-8.333-19.624c0,0,5,15.511,17.667,20.659c-1.667-11.26,0-27.415,0-27.415s5.667,22.981,23.667,29.415c-2-14.155-4-28.058-4-28.058H274c0,0-2,13.903-4,28.058c18-6.434,23.667-27.415,23.667-27.415s1.667,14.155,0,25.415c12.667-5.147,17.667-20.659,17.667-20.659c0,0.965-2.667,10.294-8.334,19.624c12.666-3.86,24-18.981,26.667-34.423S323.316,147.764,319,141.516z"></path><path style="fill:none;stroke:#1E1E1E;stroke-linecap:round;stroke-linejoin:round;" d="M195,149.236c0,0-8.333,15.12-7,32.17"></path><path style="fill:none;stroke:#1E1E1E;stroke-linecap:round;stroke-linejoin:round;" d="M312.667,188.163c0,0,3-21.554-6-38.283"></path><g><path style="fill:none;stroke:#1E1E1E;stroke-linecap:round;stroke-linejoin:round;" d="M208.067,125.43c0,0-5,4.504-7.667,10.295"></path><path style="fill:none;stroke:#1E1E1E;stroke-linecap:round;stroke-linejoin:round;" d="M292.601,125.43c0,0,5,4.504,7.666,10.295"></path></g><path style="fill:none;stroke:#1E1E1E;stroke-linecap:round;stroke-linejoin:round;" d="M206.667,167.252c0-0.965-3.333-24.45,14.667-40.857"></path><linearGradient id="hair1XMLID_4321_" gradientUnits="userSpaceOnUse" x1="251.667" y1="226.5" x2="251.667" y2="111.4998"><stop offset="0" style="stop-color:#FCFCE4"></stop><stop offset="0.5" style="stop-color:#A0C8DD"></stop><stop offset="1" style="stop-color:#5D6EC5"></stop></linearGradient><path style="fill:url(#hair1XMLID_4321_);stroke:#1E1E1E;stroke-linecap:round;stroke-linejoin:round;" d="M224.667,180.512c0,0,3,33.527,28.333,43.822c1.333-10.616,2-19.946,2-19.946s1.667,17.694,1,19.946c5.666-6.113,6-9.651,6-9.651l-0.667,8.686c0,0,14.666-14.546,17.333-40.926"></path></g></g></g></svg>