<svg xmlns="http://www.w3.org/2000/svg" width="500" height="500" version="1.1"><g id="x234"><g><g><g><g><g><linearGradient id="hair1XMLID_4322_" gradientUnits="userSpaceOnUse" x1="250.0005" y1="263.5" x2="250.0005" y2="114.5006"><stop offset="0" style="stop-color:#FCFCE4"></stop><stop offset="0.5" style="stop-color:#A0C8DD"></stop><stop offset="1" style="stop-color:#5D6EC5"></stop></linearGradient><path style="fill:url(#hair1XMLID_4322_);stroke:#1E1E1E;stroke-linecap:round;stroke-linejoin:round;" d="M311.792,136.504c-1.892-1.936-3.881-3.729-5.942-5.396C292.417,118.041,270.834,114,250.334,114s-39.892,3.277-52.487,14.315c-3.401,2.396-6.639,5.119-9.639,8.188c-13.126,13.432-22.395,30.316-22.395,51.335c0,24.493,15.344,44.594,26.063,48.78c-7.367-33.657-0.487-59.626,5.109-68.842c1.807-2.168,29.516-5.519,53.014-5.647c23.498,0.128,51.206,3.479,53.014,5.647c5.597,9.216,12.477,35.186,5.109,68.842c10.72-4.187,26.063-24.287,26.063-48.78C334.187,166.82,324.918,149.936,311.792,136.504z"></path></g></g></g></g><g><g><linearGradient id="hair1XMLID_4323_" gradientUnits="userSpaceOnUse" x1="323.7998" y1="263.5" x2="323.7998" y2="114.4998"><stop offset="0" style="stop-color:#FCFCE4"></stop><stop offset="0.5" style="stop-color:#A0C8DD"></stop><stop offset="1" style="stop-color:#5D6EC5"></stop></linearGradient><path style="fill:url(#hair1XMLID_4323_);stroke:#1E1E1E;stroke-linecap:round;stroke-linejoin:round;" d="M331.816,170.467c0,0,7.866,38.35,0.866,62.318c-6.244,21.379-20.667,24.338-20.667,24.338l6.667-21.757"></path><linearGradient id="hair1XMLID_4324_" gradientUnits="userSpaceOnUse" x1="308.3496" y1="263.5" x2="308.3496" y2="114.4999"><stop offset="0" style="stop-color:#FCFCE4"></stop><stop offset="0.5" style="stop-color:#A0C8DD"></stop><stop offset="1" style="stop-color:#5D6EC5"></stop></linearGradient><path style="fill:url(#hair1XMLID_4324_);stroke:#1E1E1E;stroke-linecap:round;stroke-linejoin:round;" d="M313.683,226.148c0,0-5.666,30.237-24,36.875c16.666,4.794,37-7.744,37.333-44.25"></path><linearGradient id="hair1XMLID_4325_" gradientUnits="userSpaceOnUse" x1="308.0156" y1="263.5" x2="308.0156" y2="114.4999"><stop offset="0" style="stop-color:#FCFCE4"></stop><stop offset="0.5" style="stop-color:#A0C8DD"></stop><stop offset="1" style="stop-color:#5D6EC5"></stop></linearGradient><path style="fill:url(#hair1XMLID_4325_);stroke:#1E1E1E;stroke-linecap:round;stroke-linejoin:round;" d="M309.683,219.51c0,0-2,18.068-12,25.812c11.666-2.95,18.999-12.906,20.666-23.968"></path><linearGradient id="hair1XMLID_4326_" gradientUnits="userSpaceOnUse" x1="305.707" y1="263.5" x2="305.707" y2="114.5003"><stop offset="0" style="stop-color:#FCFCE4"></stop><stop offset="0.5" style="stop-color:#A0C8DD"></stop><stop offset="1" style="stop-color:#5D6EC5"></stop></linearGradient><path style="fill:url(#hair1XMLID_4326_);stroke:#1E1E1E;stroke-linecap:round;stroke-linejoin:round;" d="M313.683,180.423c2.333,12.907,1.666,39.825-11.428,56.972c7.906-16.041-1.906-59.184-1.906-59.184l-3.666-19.543"></path></g><g><linearGradient id="hair1XMLID_4327_" gradientUnits="userSpaceOnUse" x1="252.7295" y1="263.5" x2="252.7295" y2="114.5002"><stop offset="0" style="stop-color:#FCFCE4"></stop><stop offset="0.5" style="stop-color:#A0C8DD"></stop><stop offset="1" style="stop-color:#5D6EC5"></stop></linearGradient><path style="fill:url(#hair1XMLID_4327_);stroke:#1E1E1E;stroke-linecap:round;stroke-linejoin:round;" d="M277.667,155.333c0,0,5.001,45-18,59.667c-10-29.667-32.333-61.667-32.333-61.667"></path><linearGradient id="hair1XMLID_4328_" gradientUnits="userSpaceOnUse" x1="206.8276" y1="263.5" x2="206.8276" y2="114.4999"><stop offset="0" style="stop-color:#FCFCE4"></stop><stop offset="0.5" style="stop-color:#A0C8DD"></stop><stop offset="1" style="stop-color:#5D6EC5"></stop></linearGradient><path style="fill:url(#hair1XMLID_4328_);stroke:#1E1E1E;stroke-linecap:round;stroke-linejoin:round;" d="M214.333,161.667c0,0-7,32-0.667,54.333c-13-15-17-31.667-12.667-50.667"></path><linearGradient id="hair1XMLID_4329_" gradientUnits="userSpaceOnUse" x1="239.4868" y1="263.5" x2="239.4868" y2="114.5"><stop offset="0" style="stop-color:#FCFCE4"></stop><stop offset="0.5" style="stop-color:#A0C8DD"></stop><stop offset="1" style="stop-color:#5D6EC5"></stop></linearGradient><path style="fill:url(#hair1XMLID_4329_);stroke:#1E1E1E;stroke-linecap:round;stroke-linejoin:round;" d="M213,143c0,0-13.333,52.667,10.667,68.333c-5-11.333-6.667-32.667-6.667-32.667s1,37.667,28.333,45c7.333,1.667,11.333-1,11.333-1s13-14,13-43.667"></path><linearGradient id="hair1XMLID_4330_" gradientUnits="userSpaceOnUse" x1="245.9561" y1="263.5" x2="245.9561" y2="114.4998"><stop offset="0" style="stop-color:#FCFCE4"></stop><stop offset="0.5" style="stop-color:#A0C8DD"></stop><stop offset="1" style="stop-color:#5D6EC5"></stop></linearGradient><path style="fill:url(#hair1XMLID_4330_);stroke:#1E1E1E;stroke-linecap:round;stroke-linejoin:round;" d="M257.667,200.333c0,0-6,25.333,2.333,32.333C244.667,230.333,230.667,228,232,188"></path><linearGradient id="hair1XMLID_4331_" gradientUnits="userSpaceOnUse" x1="288.3477" y1="263.5" x2="288.3477" y2="114.5002"><stop offset="0" style="stop-color:#FCFCE4"></stop><stop offset="0.5" style="stop-color:#A0C8DD"></stop><stop offset="1" style="stop-color:#5D6EC5"></stop></linearGradient><path style="fill:url(#hair1XMLID_4331_);stroke:#1E1E1E;stroke-linecap:round;stroke-linejoin:round;" d="M274.667,144.667c0,0,6,55,1,70C286.333,203.667,287,185,287,185s4.333,14.667,1,30c12.667-8,17-42.333,12-62"></path></g><g><linearGradient id="hair1XMLID_4332_" gradientUnits="userSpaceOnUse" x1="176.2002" y1="263.5" x2="176.2002" y2="114.4998"><stop offset="0" style="stop-color:#FCFCE4"></stop><stop offset="0.5" style="stop-color:#A0C8DD"></stop><stop offset="1" style="stop-color:#5D6EC5"></stop></linearGradient><path style="fill:url(#hair1XMLID_4332_);stroke:#1E1E1E;stroke-linecap:round;stroke-linejoin:round;" d="M168.184,170.467c0,0-7.866,38.35-0.866,62.318c6.244,21.379,20.667,24.338,20.667,24.338l-6.667-21.757"></path><linearGradient id="hair1XMLID_4333_" gradientUnits="userSpaceOnUse" x1="164.3311" y1="263.5" x2="164.3311" y2="114.4999"><stop offset="0" style="stop-color:#FCFCE4"></stop><stop offset="0.5" style="stop-color:#A0C8DD"></stop><stop offset="1" style="stop-color:#5D6EC5"></stop></linearGradient><path style="fill:url(#hair1XMLID_4333_);stroke:#1E1E1E;stroke-linecap:round;stroke-linejoin:round;" d="M169.667,165.333c0,0-11.929,34.169-11.667,50.667c0.333,21,12.667,27,12.667,27s-13.333-13-4.667-34.667"></path><linearGradient id="hair1XMLID_4334_" gradientUnits="userSpaceOnUse" x1="191.6509" y1="263.5" x2="191.6509" y2="114.4999"><stop offset="0" style="stop-color:#FCFCE4"></stop><stop offset="0.5" style="stop-color:#A0C8DD"></stop><stop offset="1" style="stop-color:#5D6EC5"></stop></linearGradient><path style="fill:url(#hair1XMLID_4334_);stroke:#1E1E1E;stroke-linecap:round;stroke-linejoin:round;" d="M186.317,226.148c0,0,5.666,30.237,24,36.875c-16.666,4.794-37-7.744-37.333-44.25"></path><linearGradient id="hair1XMLID_4335_" gradientUnits="userSpaceOnUse" x1="191.9844" y1="263.5" x2="191.9844" y2="114.4999"><stop offset="0" style="stop-color:#FCFCE4"></stop><stop offset="0.5" style="stop-color:#A0C8DD"></stop><stop offset="1" style="stop-color:#5D6EC5"></stop></linearGradient><path style="fill:url(#hair1XMLID_4335_);stroke:#1E1E1E;stroke-linecap:round;stroke-linejoin:round;" d="M190.317,219.51c0,0,2,18.068,12,25.812c-11.666-2.95-18.999-12.906-20.666-23.968"></path><linearGradient id="hair1XMLID_4336_" gradientUnits="userSpaceOnUse" x1="194.2935" y1="263.5" x2="194.2935" y2="114.5003"><stop offset="0" style="stop-color:#FCFCE4"></stop><stop offset="0.5" style="stop-color:#A0C8DD"></stop><stop offset="1" style="stop-color:#5D6EC5"></stop></linearGradient><path style="fill:url(#hair1XMLID_4336_);stroke:#1E1E1E;stroke-linecap:round;stroke-linejoin:round;" d="M186.317,180.423c-2.333,12.907-1.666,39.825,11.428,56.972c-7.906-16.041,1.906-59.184,1.906-59.184l3.666-19.543"></path></g></g></g></g></svg>