<svg xmlns="http://www.w3.org/2000/svg" width="500" height="500" version="1.1"><g id="x9230"><g><g><g><g><g><linearGradient id="hair1XMLID_4337_" gradientUnits="userSpaceOnUse" x1="249.9995" y1="136" x2="249.9995" y2="227.4999"><stop offset="0" style="stop-color:#FCFCE4"></stop><stop offset="0.5" style="stop-color:#A0C8DD"></stop><stop offset="1" style="stop-color:#5D6EC5"></stop></linearGradient><path style="fill:url(#hair1XMLID_4337_);stroke:#000000;stroke-linecap:round;stroke-linejoin:round;" d="M312.734,135.882c-17.241-17.643-42.244-24.026-62.256-19.991c-0.16,0.019-0.317,0.034-0.478,0.054c-0.16-0.02-0.317-0.035-0.478-0.054c-20.014-4.035-45.017,2.348-62.258,19.991c-13.061,13.365-22.283,30.165-22.283,51.08c0,32.694,14.267,47.104,14.827,48.325c0,0-5.229-21.928,5.742-24.67c4.113-0.686,9.78-33.574,16.455-44.566c1.829-2.195,24.358-4.665,47.994-4.677c23.633,0.012,46.163,2.481,47.992,4.677c6.674,10.992,12.342,43.88,16.455,44.566c10.971,2.742,6.645,25.272,6.645,25.272c0.561-1.221,13.925-19.239,13.925-48.927C335.018,166.047,325.795,149.248,312.734,135.882z"></path></g></g></g><linearGradient id="hair1XMLID_4338_" gradientUnits="userSpaceOnUse" x1="250.501" y1="136" x2="250.501" y2="227.5"><stop offset="0" style="stop-color:#FCFCE4"></stop><stop offset="0.5" style="stop-color:#A0C8DD"></stop><stop offset="1" style="stop-color:#5D6EC5"></stop></linearGradient><path style="fill:url(#hair1XMLID_4338_);stroke:#000000;stroke-linecap:round;stroke-linejoin:round;" d="M191.928,155.75c0,0-6.566,32.268-1.516,59.757c4.712-4.163,10.409-10.806,16.844-13.802c-0.058-5.686-0.025-15.849,0.773-23.206c0.329,5.463,1.121,16.261,1.561,22.162c6.771-2.906,14.292-5.107,22.34-6.438c-0.283-6.422,1.068-16.974,1.068-16.974l2.109,16.492c4.822-0.649,9.823-1.311,14.926-0.992c19.967,1.25,34.605,5.31,41.349,8.296c0.432-5.807,1.532-10.964,1.868-16.546c0.819,7.551,0.554,12.055,0.489,17.643c6.426,3.089,12.069,9.84,16.713,14.104c5.308-27.647-1.38-60.497-1.38-60.497"></path><linearGradient id="hair1XMLID_4339_" gradientUnits="userSpaceOnUse" x1="182.2505" y1="136.1343" x2="182.2505" y2="229.2228"><stop offset="0" style="stop-color:#FCFCE4"></stop><stop offset="0.5" style="stop-color:#A0C8DD"></stop><stop offset="1" style="stop-color:#5D6EC5"></stop></linearGradient><path style="fill:url(#hair1XMLID_4339_);stroke:#000000;stroke-linecap:round;stroke-linejoin:round;" d="M199.547,161.567c0.256,3.491-17.454,87.526,5.636,142.482c-2.676-2.311-7.215-9.497-7.215-9.497s-13.94-8.493-28.43-21.466c-0.733-9.974-5.58-28.167-5.828-45.195c-0.433,14.571,1.583,41.998,2.873,45.913c-3.82-4.23-8.402-32.471-7.008-47.614c-0.271-10.509-1.251-71.601,36.42-97.933"></path><linearGradient id="hair1XMLID_4340_" gradientUnits="userSpaceOnUse" x1="317.75" y1="136.1343" x2="317.75" y2="229.2228"><stop offset="0" style="stop-color:#FCFCE4"></stop><stop offset="0.5" style="stop-color:#A0C8DD"></stop><stop offset="1" style="stop-color:#5D6EC5"></stop></linearGradient><path style="fill:url(#hair1XMLID_4340_);stroke:#000000;stroke-linecap:round;stroke-linejoin:round;" d="M300.453,161.567c-0.257,3.491,17.454,87.526-5.636,142.482c2.676-2.311,7.215-9.497,7.215-9.497s13.94-8.493,28.43-21.466c0.733-9.974,5.58-28.167,5.828-45.195c0.434,14.571-1.582,41.998-2.872,45.913c3.82-4.23,8.402-32.471,7.009-47.614c0.271-10.509,1.25-71.601-36.421-97.933"></path></g><g><g><path style="fill:#FFF0DE;" d="M184.274,157.257c0,0,5.335-10.679,7.472-11.21c2.136-0.534-0.744,17.4-3.738,16.547C185.207,161.794,183.206,159.793,184.274,157.257z"></path><path style="fill:#FFF0DE;" d="M193.344,161.523c0,0,0.411-6.983,2.67-8.538c2.259-1.557,1.602,10.673,0,10.673C194.412,163.659,193.344,164.194,193.344,161.523z"></path><path style="fill:#FFF0DE;" d="M316.147,157.253c0,0-5.337-10.675-7.472-11.207c-2.134-0.534,0.743,17.4,3.734,16.547C315.213,161.793,317.215,159.793,316.147,157.253z"></path><path style="fill:#FFF0DE;" d="M308.749,161.524c0,0-0.411-6.984-2.672-8.541c-2.26-1.555-1.6,10.676,0,10.676C307.681,163.659,308.749,164.194,308.749,161.524z"></path></g></g></g></g></svg>