<svg xmlns="http://www.w3.org/2000/svg" width="500" height="500" version="1.1"><g id="x023"><linearGradient id="hair1XMLID_2586_" gradientUnits="userSpaceOnUse" x1="250.0005" y1="205.667" x2="250.0005" y2="166"><stop offset="0" style="stop-color:#FCFCE4"></stop><stop offset="0.5" style="stop-color:#A0C8DD"></stop><stop offset="1" style="stop-color:#5D6EC5"></stop></linearGradient><path style="fill:url(#hair1XMLID_2586_);stroke:#1E1E1E;stroke-linecap:round;stroke-linejoin:round;" d="M342.258,185.494c-1.723-6.749-6.624-13.494-11.66-19.003c2.823,0.984,5.815,1.174,9.112,0.021c-10.273-3.125-12.952-7.59-17.866-19.205c-4.231-10.003-15.417-17.017-25.288-22.197c-6.85-4.156-14.234-7.044-21.665-8.698c-4.184-2.318-7.883-3.777-10.665-3.929c-3.306-4.113-8.627-6.711-14.093-6.383c-0.046,0.003-0.087,0.008-0.133,0.011c-0.046-0.003-0.087-0.008-0.133-0.011c-5.466-0.328-10.787,2.271-14.093,6.383c-2.783,0.152-6.481,1.611-10.665,3.929c-7.431,1.654-14.816,4.542-21.665,8.698c-9.872,5.18-21.057,12.194-25.289,22.197c-4.914,11.615-7.593,16.08-17.866,19.205c3.297,1.153,6.289,0.963,9.112-0.021c-5.036,5.509-9.938,12.254-11.66,19.003c-4.021,15.746-1.341,24.455,13.064,37.521c-5.36-6.7-5.36-20.101-5.36-20.101s0.857,5.242,3.658,10.711c2.086,5.838,5.278,11.892,8.713,17.451c0.028-4.08-0.24-8.166-1.409-12.106l0.171-0.086c5.143,8.527,9.603,14.54,14.919,16.617c-1.837-8.394-0.783-16.306-1.083-23.597l0.128-0.064c-0.4-14.028,1.07-28.528,9.053-40.64c9.085-5.452,30.175-7.27,50.403-7.25c20.229-0.02,41.318,1.798,50.403,7.25c7.982,12.111,9.453,26.611,9.053,40.64l0.128,0.064c-0.3,7.291-1.246,15.203-3.083,23.597c5.316-2.077,11.776-8.09,16.919-16.617l0.172,0.086c-1.169,3.94-1.438,8.026-1.409,12.106c3.435-5.56,6.627-11.613,8.713-17.451c2.801-5.469,3.658-10.711,3.658-10.711s0,13.4-5.36,20.101C343.599,209.949,346.278,201.24,342.258,185.494z"></path><g><g><linearGradient id="hair1XMLID_2587_" gradientUnits="userSpaceOnUse" x1="286.9307" y1="205.667" x2="286.9307" y2="166"><stop offset="0" style="stop-color:#FCFCE4"></stop><stop offset="0.5" style="stop-color:#A0C8DD"></stop><stop offset="1" style="stop-color:#5D6EC5"></stop></linearGradient><path style="fill:url(#hair1XMLID_2587_);stroke:#1E1E1E;stroke-linecap:round;stroke-linejoin:round;" d="M282.778,127.315c0.139-0.736,12.427-2.843,18.912,1.578c0.508-4.324-14.848-21.545-29.532-13.18"></path><linearGradient id="hair1XMLID_2588_" gradientUnits="userSpaceOnUse" x1="211.2222" y1="205.667" x2="211.2222" y2="166"><stop offset="0" style="stop-color:#FCFCE4"></stop><stop offset="0.5" style="stop-color:#A0C8DD"></stop><stop offset="1" style="stop-color:#5D6EC5"></stop></linearGradient><path style="fill:url(#hair1XMLID_2588_);stroke:#1E1E1E;stroke-linecap:round;stroke-linejoin:round;" d="M215.374,128.116c-0.139-0.735-12.427-2.842-18.912,1.578c-0.508-4.324,14.848-21.545,29.532-13.18"></path></g><g><linearGradient id="hair1XMLID_2589_" gradientUnits="userSpaceOnUse" x1="295.1797" y1="205.667" x2="295.1797" y2="166"><stop offset="0" style="stop-color:#FCFCE4"></stop><stop offset="0.5" style="stop-color:#A0C8DD"></stop><stop offset="1" style="stop-color:#5D6EC5"></stop></linearGradient><path style="fill:url(#hair1XMLID_2589_);stroke:#1E1E1E;stroke-linecap:round;stroke-linejoin:round;" d="M281.363,165.4c0,0,17.533,9.383,20.659,41.987c8.71-9.157,9.827-37.298,0.111-50.362"></path><linearGradient id="hair1XMLID_2590_" gradientUnits="userSpaceOnUse" x1="191.4683" y1="205.667" x2="191.4683" y2="165.9999"><stop offset="0" style="stop-color:#FCFCE4"></stop><stop offset="0.5" style="stop-color:#A0C8DD"></stop><stop offset="1" style="stop-color:#5D6EC5"></stop></linearGradient><path style="fill:url(#hair1XMLID_2590_);stroke:#1E1E1E;stroke-linecap:round;stroke-linejoin:round;" d="M186.443,211.408c0,0,1.786,16.75,4.466,18.982c-1.563-5.583,0.224-20.323,0.224-20.323l5.36-6.7l-6.478-1.787l6.03-7.147c0,0-7.593,0.447-8.263,0.447"></path><linearGradient id="hair1XMLID_2591_" gradientUnits="userSpaceOnUse" x1="276.7363" y1="205.667" x2="276.7363" y2="166"><stop offset="0" style="stop-color:#FCFCE4"></stop><stop offset="0.5" style="stop-color:#A0C8DD"></stop><stop offset="1" style="stop-color:#5D6EC5"></stop></linearGradient><path style="fill:url(#hair1XMLID_2591_);stroke:#1E1E1E;stroke-linecap:round;stroke-linejoin:round;" d="M286.389,154.905c0,0,7.594,21.215-4.466,31.935c-0.67,1.117-2.681,11.615,4.02,15.635c-9.604-1.564-18.985-8.49-16.527-23.004c2.458-14.515-4.69-19.206-4.69-19.206"></path><linearGradient id="hair1XMLID_2592_" gradientUnits="userSpaceOnUse" x1="215.4829" y1="205.667" x2="215.4829" y2="166"><stop offset="0" style="stop-color:#FCFCE4"></stop><stop offset="0.5" style="stop-color:#A0C8DD"></stop><stop offset="1" style="stop-color:#5D6EC5"></stop></linearGradient><path style="fill:url(#hair1XMLID_2592_);stroke:#1E1E1E;stroke-linecap:round;stroke-linejoin:round;" d="M226.76,156.69c-0.154-5.538,2.113,26.669-20.324,32.603c0.67-12.285-2.233-17.868-2.233-17.868"></path><linearGradient id="hair1XMLID_2593_" gradientUnits="userSpaceOnUse" x1="248.7808" y1="205.667" x2="248.7808" y2="166"><stop offset="0" style="stop-color:#FCFCE4"></stop><stop offset="0.5" style="stop-color:#A0C8DD"></stop><stop offset="1" style="stop-color:#5D6EC5"></stop></linearGradient><path style="fill:url(#hair1XMLID_2593_);stroke:#1E1E1E;stroke-linecap:round;stroke-linejoin:round;" d="M225.084,150.325c-0.224,0.67-7.369,26.13,7.259,46.117c11.24,15.358,3.351,25.46,3.351,25.46s49.355-16.077,36.625-66.104"></path><linearGradient id="hair1XMLID_2594_" gradientUnits="userSpaceOnUse" x1="256.5742" y1="205.667" x2="256.5742" y2="166"><stop offset="0" style="stop-color:#FCFCE4"></stop><stop offset="0.5" style="stop-color:#A0C8DD"></stop><stop offset="1" style="stop-color:#5D6EC5"></stop></linearGradient><path style="fill:url(#hair1XMLID_2594_);stroke:#1E1E1E;stroke-linecap:round;stroke-linejoin:round;" d="M248.646,208.058c0,0.67,1.787,12.06,15.857,11.837c-6.924-7.369-4.468-18.984-4.468-18.984"></path><linearGradient id="hair1XMLID_2595_" gradientUnits="userSpaceOnUse" x1="207.168" y1="205.667" x2="207.168" y2="166.0001"><stop offset="0" style="stop-color:#FCFCE4"></stop><stop offset="0.5" style="stop-color:#A0C8DD"></stop><stop offset="1" style="stop-color:#5D6EC5"></stop></linearGradient><path style="fill:url(#hair1XMLID_2595_);stroke:#1E1E1E;stroke-linecap:round;stroke-linejoin:round;" d="M199.512,160.482c0,0-8.71,29.032,16.75,39.308c-4.243-10.497-2.009-36.622-2.009-37.292"></path><linearGradient id="hair1XMLID_2596_" gradientUnits="userSpaceOnUse" x1="192.7007" y1="205.667" x2="192.7007" y2="166"><stop offset="0" style="stop-color:#FCFCE4"></stop><stop offset="0.5" style="stop-color:#A0C8DD"></stop><stop offset="1" style="stop-color:#5D6EC5"></stop></linearGradient><path style="fill:url(#hair1XMLID_2596_);stroke:#1E1E1E;stroke-linecap:round;stroke-linejoin:round;" d="M205.766,154.68c-0.223,0.67-1.34,41.988-26.13,43.55c7.817-16.973,5.808-33.053,5.138-33.053"></path></g></g><g><g><path style="fill:#FFF0DE;" d="M167.006,181.536c0,0,5.852-11.712,8.195-12.295c2.342-0.585-0.816,19.084-4.1,18.149C168.029,186.513,165.834,184.318,167.006,181.536z"></path><path style="fill:#FFF0DE;" d="M175.119,186.217c0,0,0.45-7.659,2.929-9.365c2.478-1.707,1.757,11.708,0,11.708C176.291,188.56,175.119,189.145,175.119,186.217z"></path><path style="fill:#FFF0DE;" d="M332.244,181.536c0,0-5.853-11.712-8.195-12.295c-2.343-0.585,0.816,19.084,4.1,18.149C331.221,186.513,333.415,184.318,332.244,181.536z"></path><path style="fill:#FFF0DE;" d="M324.131,186.217c0,0-0.451-7.659-2.93-9.365c-2.478-1.707-1.756,11.708,0,11.708C322.959,188.56,324.131,189.145,324.131,186.217z"></path></g><path style="fill:#FFF0DE;" d="M242.828,187.72c0,0,0-11.417,2.635-14.489c2.631-3.074,6.058,14.753,3.074,16.245C245.901,190.794,242.828,190.794,242.828,187.72z"></path><path style="fill:#FFF0DE;" d="M252.489,187.72c-1.761-2.196,0-10.1,0.876-11.417c0.879-1.317,4.391,10.098,2.635,12.294C253.736,191.426,254.244,189.915,252.489,187.72z"></path></g></g></svg>