<svg xmlns="http://www.w3.org/2000/svg" width="500" height="500" version="1.1"><g id="x9233"><g><g><g><linearGradient id="hair1XMLID_4356_" gradientUnits="userSpaceOnUse" x1="249.4922" y1="150.332" x2="249.4922" y2="252.332"><stop offset="0" style="stop-color:#FCFCE4"></stop><stop offset="0.5" style="stop-color:#A0C8DD"></stop><stop offset="1" style="stop-color:#5D6EC5"></stop></linearGradient><path style="fill:url(#hair1XMLID_4356_);stroke:#000000;stroke-linecap:round;stroke-linejoin:round;" d="M304,161.85c0,0-110.5-1-109-2.5s27-42,55-41.5S304,161.85,304,161.85z"></path></g><g><g><linearGradient id="hair1XMLID_4357_" gradientUnits="userSpaceOnUse" x1="184.3062" y1="119.769" x2="184.3062" y2="275.2333"><stop offset="0" style="stop-color:#FCFCE4"></stop><stop offset="0.5" style="stop-color:#A0C8DD"></stop><stop offset="1" style="stop-color:#5D6EC5"></stop></linearGradient><path style="fill:url(#hair1XMLID_4357_);stroke:#000000;stroke-linecap:round;stroke-linejoin:round;" d="M193.47,185.874c-9.15,64.779,7.03,113.626,7.03,113.626c-36.5-43.5-32.235-96.348-32.235-96.348s6.065-21.723,9.362-26.01"></path><linearGradient id="hair1XMLID_4358_" gradientUnits="userSpaceOnUse" x1="234.0229" y1="123.9766" x2="234.0229" y2="267.6877"><stop offset="0" style="stop-color:#FCFCE4"></stop><stop offset="0.5" style="stop-color:#A0C8DD"></stop><stop offset="1" style="stop-color:#5D6EC5"></stop></linearGradient><path style="fill:url(#hair1XMLID_4358_);stroke:#000000;stroke-linecap:round;stroke-linejoin:round;" d="M249.5,116.25c-3-3.75-13.5-3.916-13.5-3.916c-30.75,2.75-61,27.167-73,81c-7.64,34.275-6,54.167-6,54.167c5.351-10.869,9.129-13.695,18-26.5c-7,31-19.5,57-19.5,57c41.333-18,61.833-85,64.167-107c1.826,18.751,8,53.667,42.666,79.333c0,0-7.999-33.333-4.333-75.667c10,33.667,52.753,67.07,52.667,68c0.221-2.266,8.25-57.79-10.667-93.167"></path><path style="fill:none;stroke:#000000;stroke-linecap:round;stroke-linejoin:round;" d="M219.341,174.216c0,0,1.493-24.916,15.159-37.916"></path><path style="fill:none;stroke:#000000;stroke-linecap:round;stroke-linejoin:round;" d="M187.667,191.333c0,0,6-29.667,30.667-49.333"></path><linearGradient id="hair1XMLID_4359_" gradientUnits="userSpaceOnUse" x1="167.3335" y1="124" x2="167.3335" y2="268"><stop offset="0" style="stop-color:#FCFCE4"></stop><stop offset="0.5" style="stop-color:#A0C8DD"></stop><stop offset="1" style="stop-color:#5D6EC5"></stop></linearGradient><path style="fill:url(#hair1XMLID_4359_);stroke:#000000;stroke-linecap:round;stroke-linejoin:round;" d="M166,204c0,0-5.667,25.333-14.333,50c0,0,17.333-18,31.333-50.333"></path><linearGradient id="hair1XMLID_4360_" gradientUnits="userSpaceOnUse" x1="293.792" y1="124" x2="293.792" y2="267.9999"><stop offset="0" style="stop-color:#FCFCE4"></stop><stop offset="0.5" style="stop-color:#A0C8DD"></stop><stop offset="1" style="stop-color:#5D6EC5"></stop></linearGradient><path style="fill:url(#hair1XMLID_4360_);stroke:#000000;stroke-linecap:round;stroke-linejoin:round;" d="M244.583,114.167l5.25-1.5C295,113,326.5,136.75,330,195c-3,68.667,5.666,85.333,13,94c-33-7-38.25-78.583-38-79.333"></path><linearGradient id="hair1XMLID_4361_" gradientUnits="userSpaceOnUse" x1="283.332" y1="124" x2="283.332" y2="268"><stop offset="0" style="stop-color:#FCFCE4"></stop><stop offset="0.5" style="stop-color:#A0C8DD"></stop><stop offset="1" style="stop-color:#5D6EC5"></stop></linearGradient><path style="fill:url(#hair1XMLID_4361_);stroke:#000000;stroke-linecap:round;stroke-linejoin:round;" d="M301.172,220.273c2.184,8.463,4.17,17.978,5.828,28.727c3.368,21.832,1.5,47.5,1.5,47.5S338,238,318.5,165c0,0-17.5-50-57.436-55.23C256,110,247.5,112,241.5,115"></path><path style="fill:none;stroke:#000000;stroke-linecap:round;stroke-linejoin:round;" d="M259.5,140.5c0,0,26,23.5,38.5,67.5"></path></g></g></g><path style="fill:#FDFBE1;" d="M194.274,179.257c0,0,5.335-10.679,7.472-11.21c2.136-0.534-0.744,17.4-3.738,16.547C195.207,183.794,193.206,181.793,194.274,179.257z"></path><path style="fill:#FDFBE1;" d="M203.344,183.523c0,0,0.411-6.983,2.67-8.538c2.259-1.557,1.602,10.673,0,10.673C204.412,185.659,203.344,186.194,203.344,183.523z"></path><path style="fill:#FDFBE1;" d="M302.813,179.586c0,0-5.337-10.675-7.472-11.207c-2.134-0.534,0.743,17.4,3.734,16.547C301.879,184.126,303.881,182.126,302.813,179.586z"></path><path style="fill:#FDFBE1;" d="M295.415,183.857c0,0-0.411-6.984-2.672-8.541c-2.26-1.555-1.6,10.676,0,10.676C294.347,185.992,295.415,186.527,295.415,183.857z"></path><path style="fill:#FDFBE1;" d="M234.449,190.331c0,0,0-10.41,2.403-13.211c2.4-2.802,5.523,13.451,2.804,14.811C237.251,193.134,234.449,193.134,234.449,190.331z"></path><path style="fill:#FDFBE1;" d="M243.259,190.331c-1.606-2.003,0-9.208,0.799-10.41c0.801-1.201,4.002,9.207,2.402,11.208C244.396,193.709,244.858,192.331,243.259,190.331z"></path></g></g></svg>