<svg xmlns="http://www.w3.org/2000/svg" width="500" height="500" version="1.1"><g id="x9236"><g><g><linearGradient id="hair1XMLID_4376_" gradientUnits="userSpaceOnUse" x1="250.0005" y1="215" x2="250.0005" y2="159"><stop offset="0" style="stop-color:#FCFCE4"></stop><stop offset="0.5" style="stop-color:#A0C8DD"></stop><stop offset="1" style="stop-color:#5D6EC5"></stop></linearGradient><path style="fill:url(#hair1XMLID_4376_);stroke:#000000;stroke-linecap:round;stroke-linejoin:round;" d="M312.734,135.882c-17.241-17.643-42.244-24.026-62.256-19.991c-0.16,0.019-0.317,0.034-0.478,0.054c-0.16-0.02-0.317-0.035-0.478-0.054c-20.014-4.035-45.017,2.348-62.258,19.991c-13.061,13.365-22.283,30.165-22.283,51.08c0,32.694,14.267,47.104,14.827,48.325c0,0-5.229-21.928,5.742-24.67c4.113-0.686,9.78-33.574,16.455-44.566c1.829-2.195,24.358-4.665,47.994-4.677c23.633,0.012,46.163,2.481,47.992,4.677c6.674,10.992,10.007,25.95,16.455,44.566C313.725,218.059,311,226.5,310,231.5c4.167,1.5,5.5,6.5,5.5,6.5c0.561-1.221,19.518-21.35,19.518-51.038C335.018,166.047,325.795,149.248,312.734,135.882z"></path><g><linearGradient id="hair1XMLID_4377_" gradientUnits="userSpaceOnUse" x1="172.667" y1="215" x2="172.667" y2="159"><stop offset="0" style="stop-color:#FCFCE4"></stop><stop offset="0.5" style="stop-color:#A0C8DD"></stop><stop offset="1" style="stop-color:#5D6EC5"></stop></linearGradient><path style="fill:url(#hair1XMLID_4377_);stroke:#000000;stroke-linecap:round;stroke-linejoin:round;" d="M166.269,173.333c0,0-11.667,28.333-3,62.333c11,0.333,21-8.667,21-8.667l1-8.667"></path><linearGradient id="hair1XMLID_4378_" gradientUnits="userSpaceOnUse" x1="327.333" y1="215" x2="327.333" y2="159"><stop offset="0" style="stop-color:#FCFCE4"></stop><stop offset="0.5" style="stop-color:#A0C8DD"></stop><stop offset="1" style="stop-color:#5D6EC5"></stop></linearGradient><path style="fill:url(#hair1XMLID_4378_);stroke:#000000;stroke-linecap:round;stroke-linejoin:round;" d="M333.731,173.333c0,0,11.666,28.333,3,62.333c-11,0.333-21-8.667-21-8.667l-1-8.667"></path></g><g><g><linearGradient id="hair1XMLID_4379_" gradientUnits="userSpaceOnUse" x1="187.3335" y1="288" x2="187.3335" y2="228"><stop offset="0" style="stop-color:#FCFCE4"></stop><stop offset="0.5" style="stop-color:#A0C8DD"></stop><stop offset="1" style="stop-color:#5D6EC5"></stop></linearGradient><path style="fill:url(#hair1XMLID_4379_);stroke:#000000;stroke-linecap:round;stroke-linejoin:round;" d="M165.227,217.667c0,0-6.323,21.781,1.333,42.333c6.333,17,15.333,18.667,15.333,18.667s-2-8.333-1.667-11.667c3.333,7.334,9.333,17.666,31.667,19c-12-13-14.667-32.666-14.667-32.666l-15-24.667"></path><linearGradient id="hair1XMLID_4380_" gradientUnits="userSpaceOnUse" x1="188.144" y1="215" x2="188.144" y2="159"><stop offset="0" style="stop-color:#FCFCE4"></stop><stop offset="0.5" style="stop-color:#A0C8DD"></stop><stop offset="1" style="stop-color:#5D6EC5"></stop></linearGradient><path style="fill:url(#hair1XMLID_4380_);stroke:#000000;stroke-linecap:round;stroke-linejoin:round;" d="M188.193,203c0,0-0.299,45.333,23.667,56c-20.333,5-49.633-14.667-47.299-58.667"></path></g><g><linearGradient id="hair1XMLID_4381_" gradientUnits="userSpaceOnUse" x1="312.666" y1="288" x2="312.666" y2="228"><stop offset="0" style="stop-color:#FCFCE4"></stop><stop offset="0.5" style="stop-color:#A0C8DD"></stop><stop offset="1" style="stop-color:#5D6EC5"></stop></linearGradient><path style="fill:url(#hair1XMLID_4381_);stroke:#000000;stroke-linecap:round;stroke-linejoin:round;" d="M334.773,217.667c0,0,6.323,21.781-1.333,42.333c-6.334,17-15.334,18.667-15.334,18.667s2-8.333,1.667-11.667c-3.333,7.334-9.333,17.666-31.667,19c12-13,14.667-32.666,14.667-32.666l15-24.667"></path></g></g><linearGradient id="hair1XMLID_4382_" gradientUnits="userSpaceOnUse" x1="213.1763" y1="215" x2="213.1763" y2="159"><stop offset="0" style="stop-color:#FCFCE4"></stop><stop offset="0.5" style="stop-color:#A0C8DD"></stop><stop offset="1" style="stop-color:#5D6EC5"></stop></linearGradient><path style="fill:url(#hair1XMLID_4382_);stroke:#000000;stroke-linecap:round;stroke-linejoin:round;" d="M201.667,154.667C192.333,171,185.333,198,189.667,223c14.333-9.333,34-37.333,34-37.333l14.333-30"></path><linearGradient id="hair1XMLID_4383_" gradientUnits="userSpaceOnUse" x1="298.833" y1="215" x2="298.833" y2="159"><stop offset="0" style="stop-color:#FCFCE4"></stop><stop offset="0.5" style="stop-color:#A0C8DD"></stop><stop offset="1" style="stop-color:#5D6EC5"></stop></linearGradient><path style="fill:url(#hair1XMLID_4383_);stroke:#000000;stroke-linecap:round;stroke-linejoin:round;" d="M319.333,204.333c0,0-4,10.333-7,18.333c-22.334-17-34-63-34-63l14.667-8"></path><linearGradient id="hair1XMLID_4384_" gradientUnits="userSpaceOnUse" x1="311.8555" y1="215" x2="311.8555" y2="159"><stop offset="0" style="stop-color:#FCFCE4"></stop><stop offset="0.5" style="stop-color:#A0C8DD"></stop><stop offset="1" style="stop-color:#5D6EC5"></stop></linearGradient><path style="fill:url(#hair1XMLID_4384_);stroke:#000000;stroke-linecap:round;stroke-linejoin:round;" d="M311.808,203c0,0,0.299,45.333-23.667,56c20.333,5,49.633-14.667,47.3-58.667"></path><linearGradient id="hair1XMLID_4385_" gradientUnits="userSpaceOnUse" x1="289.6572" y1="215" x2="289.6572" y2="159"><stop offset="0" style="stop-color:#FCFCE4"></stop><stop offset="0.5" style="stop-color:#A0C8DD"></stop><stop offset="1" style="stop-color:#5D6EC5"></stop></linearGradient><path style="fill:url(#hair1XMLID_4385_);" d="M299,159.333c-1.667,0-19.334,0-18.667-2S285.667,143,285.667,143l9.333,1.333L299,159.333z"></path><linearGradient id="hair1XMLID_4386_" gradientUnits="userSpaceOnUse" x1="296.8477" y1="215" x2="296.8477" y2="159.0001"><stop offset="0" style="stop-color:#FCFCE4"></stop><stop offset="0.5" style="stop-color:#A0C8DD"></stop><stop offset="1" style="stop-color:#5D6EC5"></stop></linearGradient><path style="fill:url(#hair1XMLID_4386_);stroke:#000000;stroke-linecap:round;stroke-linejoin:round;" d="M292.333,174c0,0,5.334,28.333-2.333,49.333c12-10.667,15.333-32.667,13-48.667"></path><linearGradient id="hair1XMLID_4387_" gradientUnits="userSpaceOnUse" x1="253.0615" y1="215" x2="253.0615" y2="159"><stop offset="0" style="stop-color:#FCFCE4"></stop><stop offset="0.5" style="stop-color:#A0C8DD"></stop><stop offset="1" style="stop-color:#5D6EC5"></stop></linearGradient><path style="fill:url(#hair1XMLID_4387_);stroke:#000000;stroke-linecap:round;stroke-linejoin:round;" d="M287,153.333c0,0-11,55.333-30.667,69.667c2.667-7,4.334-18.667,4.334-18.667s-6.001,9.333-22,16.333C241.333,217,243,214,243,214l-6.333,5.333c0,0-14.333,0-17,0c-1-11.333-3-41.333,19.333-69.667"></path></g><g><path style="fill:#FDFBE1;" d="M172.774,179.257c0,0,5.335-10.679,7.472-11.21c2.136-0.534-0.744,17.4-3.738,16.547C173.707,183.794,171.706,181.793,172.774,179.257z"></path><path style="fill:#FDFBE1;" d="M181.844,183.523c0,0,0.411-6.983,2.67-8.538c2.259-1.557,1.602,10.673,0,10.673C182.912,185.659,181.844,186.194,181.844,183.523z"></path><path style="fill:#FDFBE1;" d="M327.313,179.586c0,0-5.337-10.675-7.472-11.207c-2.134-0.534,0.743,17.4,3.734,16.547C326.379,184.126,328.381,182.126,327.313,179.586z"></path><path style="fill:#FDFBE1;" d="M319.915,183.857c0,0-0.411-6.984-2.672-8.541c-2.26-1.555-1.6,10.676,0,10.676C318.847,185.992,319.915,186.527,319.915,183.857z"></path><path style="fill:#FDFBE1;" d="M234.449,190.331c0,0,0-10.41,2.403-13.211c2.4-2.802,5.523,13.451,2.804,14.811C237.251,193.134,234.449,193.134,234.449,190.331z"></path><path style="fill:#FDFBE1;" d="M243.259,190.331c-1.606-2.003,0-9.208,0.799-10.41c0.801-1.201,4.002,9.207,2.402,11.208C244.396,193.709,244.858,192.331,243.259,190.331z"></path></g></g></g></svg>