<svg xmlns="http://www.w3.org/2000/svg" width="500" height="500" version="1.1"><g id="x9238"><g><g><g><linearGradient id="hair1XMLID_4392_" gradientUnits="userSpaceOnUse" x1="249.9995" y1="137.3335" x2="249.9995" y2="224.9999"><stop offset="0" style="stop-color:#FCFCE4"></stop><stop offset="0.5" style="stop-color:#A0C8DD"></stop><stop offset="1" style="stop-color:#5D6EC5"></stop></linearGradient><path style="fill:url(#hair1XMLID_4392_);stroke:#000000;stroke-linecap:round;stroke-linejoin:round;" d="M312.734,135.882c-17.241-17.643-42.244-24.026-62.256-19.991c-0.16,0.019-0.317,0.034-0.478,0.054c-0.16-0.02-0.317-0.035-0.478-0.054c-20.014-4.035-45.017,2.348-62.258,19.991c-13.061,13.365-22.283,30.165-22.283,51.08c0,32.694,14.267,47.104,14.827,48.325c0,0-5.229-21.928,5.742-24.67c4.113-0.686,9.78-33.574,16.455-44.566c1.829-2.195,24.358-4.665,47.994-4.677c23.633,0.012,46.163,2.481,47.992,4.677c6.674,10.992,10.007,25.95,16.455,44.566C313.725,218.059,311,226.5,310,231.5c4.167,1.5,5.5,6.5,5.5,6.5c0.561-1.221,19.518-21.35,19.518-51.038C335.018,166.047,325.795,149.248,312.734,135.882z"></path></g></g><g><linearGradient id="hair1XMLID_4393_" gradientUnits="userSpaceOnUse" x1="249.9995" y1="137.3335" x2="249.9995" y2="225"><stop offset="0" style="stop-color:#FCFCE4"></stop><stop offset="0.5" style="stop-color:#A0C8DD"></stop><stop offset="1" style="stop-color:#5D6EC5"></stop></linearGradient><path style="fill:url(#hair1XMLID_4393_);stroke:#000000;stroke-linecap:round;stroke-linejoin:round;" d="M227.805,120.092C184.7,126.894,177.499,167.45,174.939,175c-2.825,8.333-15.188,25.333-22.606,28.667c12.363,12,26.139,14.333,31.084,15c1.859-5.07,3.565-9.641,5.176-13.766c0.21,5.684,0.774,10.934,1.888,13.432c3.886,2.333,18.686,0.333,26.019-0.667c-4.667-21,5.333-39.667,5.333-39.667s-2,22.333,7.333,37.333c6.667-1.667,17.999-1.333,24.333,0.667c6.334,2,13.334,2.333,16.666,0.667c-5.332-10-5.832-29.667-5.166-38.333c3.666,8,11.834,39.333,14.166,40.333c5,1,25.938,0,38.301-3.333c4.944-0.667,17.838,0.333,30.2-11.667c-7.418-3.333-19.78-20.333-22.605-28.667s-11.305-56-67.468-56"></path><g><path style="fill:#FDFBE1;" d="M183.107,179.257c0,0,5.335-10.679,7.472-11.21c2.136-0.534-0.744,17.4-3.738,16.547C184.041,183.794,182.039,181.793,183.107,179.257z"></path><path style="fill:#FDFBE1;" d="M192.178,183.523c0,0,0.411-6.983,2.67-8.538c2.259-1.557,1.602,10.673,0,10.673C193.246,185.659,192.178,186.194,192.178,183.523z"></path><path style="fill:#FDFBE1;" d="M318.313,179.586c0,0-5.337-10.675-7.472-11.207c-2.134-0.534,0.743,17.4,3.734,16.547C317.379,184.126,319.381,182.126,318.313,179.586z"></path><path style="fill:#FDFBE1;" d="M310.915,183.857c0,0-0.411-6.984-2.672-8.541c-2.26-1.555-1.6,10.676,0,10.676C309.847,185.992,310.915,186.527,310.915,183.857z"></path><path style="fill:#FDFBE1;" d="M234.449,190.331c0,0,0-10.41,2.403-13.211c2.4-2.802,5.523,13.451,2.804,14.811C237.251,193.134,234.449,193.134,234.449,190.331z"></path><path style="fill:#FDFBE1;" d="M243.259,190.331c-1.606-2.003,0-9.208,0.799-10.41c0.801-1.201,4.002,9.207,2.402,11.208C244.396,193.709,244.858,192.331,243.259,190.331z"></path></g><path style="fill:none;stroke:#000000;stroke-linecap:round;stroke-linejoin:round;" d="M301.334,181.667c0,0,8,14.334,8,29.667"></path><linearGradient id="hair1XMLID_4394_" gradientUnits="userSpaceOnUse" x1="263.627" y1="137.3335" x2="263.627" y2="224.9997"><stop offset="0" style="stop-color:#FCFCE4"></stop><stop offset="0.5" style="stop-color:#A0C8DD"></stop><stop offset="1" style="stop-color:#5D6EC5"></stop></linearGradient><path style="fill:url(#hair1XMLID_4394_);stroke:#000000;stroke-linecap:round;stroke-linejoin:round;" d="M232.667,130.667c0,0-20,70.333,64,83C252,199,244,168.333,244,168.333"></path><path style="fill:none;stroke:#000000;stroke-linecap:round;stroke-linejoin:round;" d="M235,125c0,0,5.667-6,12.667-6.667"></path><g><linearGradient id="hair1XMLID_4395_" gradientUnits="userSpaceOnUse" x1="191.5005" y1="137.3335" x2="191.5005" y2="225"><stop offset="0" style="stop-color:#FCFCE4"></stop><stop offset="0.5" style="stop-color:#A0C8DD"></stop><stop offset="1" style="stop-color:#5D6EC5"></stop></linearGradient><path style="fill:url(#hair1XMLID_4395_);stroke:#000000;stroke-linecap:round;stroke-linejoin:round;" d="M193.63,183.667c0,0-11,67.667,15.334,102.667c-7.667-2-11.667-8.334-11.667-8.334s4.333,11.999,6.333,14.333c-18.083-10.5-32.338-45.5-29.144-93.611"></path><linearGradient id="hair1XMLID_4396_" gradientUnits="userSpaceOnUse" x1="308.5" y1="137.3335" x2="308.5" y2="225"><stop offset="0" style="stop-color:#FCFCE4"></stop><stop offset="0.5" style="stop-color:#A0C8DD"></stop><stop offset="1" style="stop-color:#5D6EC5"></stop></linearGradient><path style="fill:url(#hair1XMLID_4396_);stroke:#000000;stroke-linecap:round;stroke-linejoin:round;" d="M306.37,183.667c0,0,11,67.667-15.334,102.667c7.667-2,11.667-8.334,11.667-8.334s-4.333,11.999-6.333,14.333c18.083-10.5,32.338-45.5,29.144-93.611"></path></g></g></g></g></svg>