<svg xmlns="http://www.w3.org/2000/svg" width="500" height="500" version="1.1"><g id="x9239"><g><g><linearGradient id="hair1XMLID_4397_" gradientUnits="userSpaceOnUse" x1="250.0005" y1="205" x2="250.0005" y2="149.75"><stop offset="0" style="stop-color:#FCFCE4"></stop><stop offset="0.5" style="stop-color:#A0C8DD"></stop><stop offset="1" style="stop-color:#5D6EC5"></stop></linearGradient><path style="fill:url(#hair1XMLID_4397_);stroke:#000000;stroke-linecap:round;stroke-linejoin:round;" d="M312.734,135.882c-17.241-17.643-42.244-24.026-62.256-19.991c-0.16,0.019-0.317,0.034-0.478,0.054c-0.16-0.02-0.317-0.035-0.478-0.054c-20.014-4.035-45.017,2.348-62.258,19.991c-13.061,13.365-22.283,30.165-22.283,51.08c0,32.694,14.267,47.104,14.827,48.325c0,0-5.229-21.928,5.742-24.67c4.113-0.686,9.78-33.574,16.455-44.566c1.829-2.195,24.358-4.665,47.994-4.677c23.633,0.012,46.163,2.481,47.992,4.677c6.674,10.992,10.007,25.95,16.455,44.566C313.725,218.059,311,226.5,310,231.5c4.167,1.5,5.5,6.5,5.5,6.5c0.561-1.221,19.518-21.35,19.518-51.038C335.018,166.047,325.795,149.248,312.734,135.882z"></path><g><linearGradient id="hair1XMLID_4398_" gradientUnits="userSpaceOnUse" x1="312.6816" y1="205" x2="312.6816" y2="149.75"><stop offset="0" style="stop-color:#FCFCE4"></stop><stop offset="0.5" style="stop-color:#A0C8DD"></stop><stop offset="1" style="stop-color:#5D6EC5"></stop></linearGradient><path style="fill:url(#hair1XMLID_4398_);stroke:#000000;stroke-linecap:round;stroke-linejoin:round;" d="M309.333,201.667c0,0-8.333,74.583-19.083,94.083C296,293,304,281.25,304,281.25s-0.75,12.5-2,14.5c6.25-4.75,13.343-7.604,21.75-38c6.5-23.5,13.5-60,10.75-74.75"></path><linearGradient id="hair1XMLID_4399_" gradientUnits="userSpaceOnUse" x1="323.6484" y1="205" x2="323.6484" y2="149.7499"><stop offset="0" style="stop-color:#FCFCE4"></stop><stop offset="0.5" style="stop-color:#A0C8DD"></stop><stop offset="1" style="stop-color:#5D6EC5"></stop></linearGradient><path style="fill:url(#hair1XMLID_4399_);stroke:#000000;stroke-linecap:round;stroke-linejoin:round;" d="M327.55,242.214c0,0-2.035,36.537-7.803,45.787c3.475-15.835,3.063-42.39,3.063-42.39"></path></g><linearGradient id="hair1XMLID_4400_" gradientUnits="userSpaceOnUse" x1="261.3154" y1="204.2441" x2="261.3154" y2="149.4941"><stop offset="0" style="stop-color:#FCFCE4"></stop><stop offset="0.5" style="stop-color:#A0C8DD"></stop><stop offset="1" style="stop-color:#5D6EC5"></stop></linearGradient><path style="fill:url(#hair1XMLID_4400_);stroke:#000000;stroke-linecap:round;stroke-linejoin:round;" d="M210.5,157.5c0,0,9.25,49.25,41.5,69.833c-3.25-6.583-3-14-3-14s6,9.333,18.667,12.333c-4.417-14.167-6.417-31.417-6.417-31.417s19.749,29.083,44.083,36.75C319,198.667,316.75,142,254,121.5"></path><linearGradient id="hair1XMLID_4401_" gradientUnits="userSpaceOnUse" x1="185.2466" y1="205" x2="185.2466" y2="149.75"><stop offset="0" style="stop-color:#FCFCE4"></stop><stop offset="0.5" style="stop-color:#A0C8DD"></stop><stop offset="1" style="stop-color:#5D6EC5"></stop></linearGradient><path style="fill:url(#hair1XMLID_4401_);stroke:#000000;stroke-linecap:round;stroke-linejoin:round;" d="M165.5,192c-5.75,49.25,22.75,83,35.75,87c-2.75-2.25-4.25-10.5-4.25-10.5s3.25,1,8.75-0.25c-8.75-8.75-12.5-28.75-12.5-28.75l-3.5-38"></path><linearGradient id="hair1XMLID_4402_" gradientUnits="userSpaceOnUse" x1="196.1797" y1="205" x2="196.1797" y2="149.75"><stop offset="0" style="stop-color:#FCFCE4"></stop><stop offset="0.5" style="stop-color:#A0C8DD"></stop><stop offset="1" style="stop-color:#5D6EC5"></stop></linearGradient><path style="fill:url(#hair1XMLID_4402_);stroke:#000000;stroke-linecap:round;stroke-linejoin:round;" d="M210.5,157.25c0,0-10.5,16.5-12.5,50.75c-1.377,23.592,5,46.25,5,46.25S178.5,236,182.25,184"></path></g><g><path style="fill:#FDFBE1;" d="M183.107,179.257c0,0,5.335-10.679,7.472-11.21c2.136-0.534-0.744,17.4-3.738,16.547C184.041,183.794,182.039,181.793,183.107,179.257z"></path><path style="fill:#FDFBE1;" d="M192.178,183.523c0,0,0.411-6.983,2.67-8.538c2.259-1.557,1.602,10.673,0,10.673C193.246,185.659,192.178,186.194,192.178,183.523z"></path><path style="fill:#FDFBE1;" d="M309.313,179.586c0,0-5.337-10.675-7.472-11.207c-2.134-0.534,0.743,17.4,3.734,16.547C308.379,184.126,310.381,182.126,309.313,179.586z"></path><path style="fill:#FDFBE1;" d="M301.915,183.857c0,0-0.411-6.984-2.672-8.541c-2.26-1.555-1.6,10.676,0,10.676C300.847,185.992,301.915,186.527,301.915,183.857z"></path><path style="fill:#FDFBE1;" d="M234.449,190.331c0,0,0-10.41,2.403-13.211c2.4-2.802,5.523,13.451,2.804,14.811C237.251,193.134,234.449,193.134,234.449,190.331z"></path><path style="fill:#FDFBE1;" d="M243.259,190.331c-1.606-2.003,0-9.208,0.799-10.41c0.801-1.201,4.002,9.207,2.402,11.208C244.396,193.709,244.858,192.331,243.259,190.331z"></path></g></g></g></svg>