<svg xmlns="http://www.w3.org/2000/svg" width="500" height="500" version="1.1"><g id="x024"><g><linearGradient id="hair1XMLID_2597_" gradientUnits="userSpaceOnUse" x1="250.0005" y1="218" x2="250.0005" y2="153.0001"><stop offset="0" style="stop-color:#FCFCE4"></stop><stop offset="0.5" style="stop-color:#A0C8DD"></stop><stop offset="1" style="stop-color:#5D6EC5"></stop></linearGradient><path style="fill:url(#hair1XMLID_2597_);stroke:#1E1E1E;stroke-linecap:round;stroke-linejoin:round;" d="M311.484,135.882c-17.021-17.418-41.603-23.852-61.484-20.131c-19.882-3.721-44.464,2.713-61.484,20.131c-13.061,13.365-22.283,30.165-22.283,51.08c0,24.372,15.268,44.372,25.934,48.538c-7.33-33.49-0.484-59.331,5.084-68.5c1.798-2.157,29.369-5.491,52.75-5.619c23.381,0.128,50.952,3.462,52.75,5.619c5.568,9.169,12.414,35.01,5.084,68.5c10.666-4.167,25.934-24.167,25.934-48.538C333.768,166.047,324.545,149.248,311.484,135.882z"></path><path style="fill:url(#hair1XMLID_2597_);stroke:#1E1E1E;stroke-linecap:round;stroke-linejoin:round;" d="M311.484,135.882c-17.021-17.418-41.603-23.852-61.484-20.131c-19.882-3.721-44.464,2.713-61.484,20.131c-13.061,13.365-22.283,30.165-22.283,51.08c0,24.372,15.268,44.372,25.934,48.538c-7.33-33.49-0.484-59.331,5.084-68.5c1.798-2.157,29.369-5.491,52.75-5.619c23.381,0.128,50.952,3.462,52.75,5.619c5.568,9.169,12.414,35.01,5.084,68.5c10.666-4.167,25.934-24.167,25.934-48.538C333.768,166.047,324.545,149.248,311.484,135.882z"></path><g><g><linearGradient id="hair1XMLID_2599_" gradientUnits="userSpaceOnUse" x1="315.375" y1="218" x2="315.375" y2="152.9998"><stop offset="0" style="stop-color:#FCFCE4"></stop><stop offset="0.5" style="stop-color:#A0C8DD"></stop><stop offset="1" style="stop-color:#5D6EC5"></stop></linearGradient><path style="fill:url(#hair1XMLID_2599_);stroke:#1E1E1E;stroke-linecap:round;stroke-linejoin:round;" d="M308.384,208.5c0,0,1.861,13.938-0.74,26.25c-2.875,11.25-7.027,14.842-10.426,19.313c11.926-2.188,21.438-10.275,21.438-10.275l0.896,4.468c0,0,18.467-10.588,12.952-49.524"></path><linearGradient id="hair1XMLID_2600_" gradientUnits="userSpaceOnUse" x1="325.1035" y1="218" x2="325.1035" y2="152.9999"><stop offset="0" style="stop-color:#FCFCE4"></stop><stop offset="0.5" style="stop-color:#A0C8DD"></stop><stop offset="1" style="stop-color:#5D6EC5"></stop></linearGradient><path style="fill:url(#hair1XMLID_2600_);stroke:#1E1E1E;stroke-linecap:round;stroke-linejoin:round;" d="M331.804,215.005c0,0-0.91,19.495-13.399,29.035"></path></g><g><linearGradient id="hair1XMLID_2601_" gradientUnits="userSpaceOnUse" x1="184.625" y1="218" x2="184.625" y2="152.9998"><stop offset="0" style="stop-color:#FCFCE4"></stop><stop offset="0.5" style="stop-color:#A0C8DD"></stop><stop offset="1" style="stop-color:#5D6EC5"></stop></linearGradient><path style="fill:url(#hair1XMLID_2601_);stroke:#1E1E1E;stroke-linecap:round;stroke-linejoin:round;" d="M191.616,208.5c0,0-1.861,13.938,0.74,26.25c2.875,11.25,7.027,14.842,10.426,19.313c-11.926-2.188-21.438-10.275-21.438-10.275l-0.896,4.468c0,0-18.467-10.588-12.952-49.524"></path><linearGradient id="hair1XMLID_2602_" gradientUnits="userSpaceOnUse" x1="174.896" y1="218" x2="174.896" y2="152.9999"><stop offset="0" style="stop-color:#FCFCE4"></stop><stop offset="0.5" style="stop-color:#A0C8DD"></stop><stop offset="1" style="stop-color:#5D6EC5"></stop></linearGradient><path style="fill:url(#hair1XMLID_2602_);stroke:#1E1E1E;stroke-linecap:round;stroke-linejoin:round;" d="M168.196,215.005c0,0,0.91,19.495,13.399,29.035"></path></g></g><g><linearGradient id="hair1XMLID_2603_" gradientUnits="userSpaceOnUse" x1="295.3057" y1="218" x2="295.3057" y2="153"><stop offset="0" style="stop-color:#FCFCE4"></stop><stop offset="0.5" style="stop-color:#A0C8DD"></stop><stop offset="1" style="stop-color:#5D6EC5"></stop></linearGradient><path style="fill:url(#hair1XMLID_2603_);stroke:#1E1E1E;stroke-linecap:round;stroke-linejoin:round;" d="M294.56,149.543c15.188,13.4,33.947,46.455,12.06,80.848c-0.447-35.285-32.605-65.66-32.605-65.66"></path><linearGradient id="hair1XMLID_2604_" gradientUnits="userSpaceOnUse" x1="233.4541" y1="218" x2="233.4541" y2="153"><stop offset="0" style="stop-color:#FCFCE4"></stop><stop offset="0.5" style="stop-color:#A0C8DD"></stop><stop offset="1" style="stop-color:#5D6EC5"></stop></linearGradient><path style="fill:url(#hair1XMLID_2604_);stroke:#1E1E1E;stroke-linecap:round;stroke-linejoin:round;" d="M282.5,156.243c0,0,6.254,37.075-24.12,50.027c-13.514,5.764-32.605,5.805-71.466,4.913c-4.02-13.845-8.04-50.92,16.08-68.34"></path><linearGradient id="hair1XMLID_2605_" gradientUnits="userSpaceOnUse" x1="235.3774" y1="218" x2="235.3774" y2="152.9998"><stop offset="0" style="stop-color:#FCFCE4"></stop><stop offset="0.5" style="stop-color:#A0C8DD"></stop><stop offset="1" style="stop-color:#5D6EC5"></stop></linearGradient><path style="fill:url(#hair1XMLID_2605_);stroke:#1E1E1E;stroke-linecap:round;stroke-linejoin:round;" d="M205.674,211.266c0,0,40.646,3.573,59.406-46.007"></path></g></g><g><g><path style="fill:#FFF0DE;" d="M186.256,181.536c0,0,5.852-11.712,8.195-12.295c2.342-0.585-0.816,19.084-4.1,18.149C187.279,186.513,185.084,184.318,186.256,181.536z"></path><path style="fill:#FFF0DE;" d="M194.369,186.217c0,0,0.45-7.659,2.929-9.365c2.478-1.707,1.757,11.708,0,11.708C195.541,188.56,194.369,189.145,194.369,186.217z"></path><path style="fill:#FFF0DE;" d="M309.744,181.536c0,0-5.853-11.712-8.195-12.295c-2.343-0.585,0.816,19.084,4.1,18.149C308.721,186.513,310.915,184.318,309.744,181.536z"></path><path style="fill:#FFF0DE;" d="M301.631,186.217c0,0-0.451-7.659-2.93-9.365c-2.478-1.707-1.756,11.708,0,11.708C300.459,188.56,301.631,189.145,301.631,186.217z"></path></g><path style="fill:#FFF0DE;" d="M237.328,187.72c0,0,0-11.417,2.635-14.489c2.631-3.074,6.058,14.753,3.074,16.245C240.401,190.794,237.328,190.794,237.328,187.72z"></path><path style="fill:#FFF0DE;" d="M246.989,187.72c-1.761-2.196,0-10.1,0.876-11.417c0.879-1.317,4.391,10.098,2.635,12.294C248.236,191.426,248.744,189.915,246.989,187.72z"></path></g></g></svg>