<svg xmlns="http://www.w3.org/2000/svg" width="500" height="500" version="1.1"><g id="x9244"><g><g><linearGradient id="hair1XMLID_4433_" gradientUnits="userSpaceOnUse" x1="250.0005" y1="200.5" x2="250.0005" y2="115"><stop offset="0" style="stop-color:#FCFCE4"></stop><stop offset="0.5" style="stop-color:#A0C8DD"></stop><stop offset="1" style="stop-color:#5D6EC5"></stop></linearGradient><path style="fill:url(#hair1XMLID_4433_);stroke:#000000;stroke-linecap:round;stroke-linejoin:round;" d="M305.5,124c-17-8-35.26-12.144-55.271-8.109c-0.077,0.009-0.152,0.018-0.229,0.026c-0.076-0.008-0.152-0.017-0.229-0.026c-20.012-4.035-45.015,2.348-62.256,19.991c-13.061,13.365-14.283,30.165-14.283,51.08c0,29.688,15.768,37.288,17.018,36.538c-1-5,5.333-46.458,12.007-57.45c1.822-2.188,24.201-4.647,47.743-4.676c23.542,0.029,45.921,2.488,47.743,4.676c6.674,10.992,13.007,52.45,12.007,57.45c1.25,0.75,17.018-6.85,17.018-36.538C326.768,166.047,318.561,137.365,305.5,124z"></path><linearGradient id="hair1XMLID_4434_" gradientUnits="userSpaceOnUse" x1="321.625" y1="202.9941" x2="321.625" y2="114.459"><stop offset="0" style="stop-color:#FCFCE4"></stop><stop offset="0.5" style="stop-color:#A0C8DD"></stop><stop offset="1" style="stop-color:#5D6EC5"></stop></linearGradient><path style="fill:url(#hair1XMLID_4434_);stroke:#000000;stroke-linecap:round;stroke-linejoin:round;" d="M298,238c0,0,4.25,16.25,47.25,23.5c-23-31.5-9.967-75.464-28.25-93.25"></path><g><linearGradient id="hair1XMLID_4435_" gradientUnits="userSpaceOnUse" x1="321" y1="200.5" x2="321" y2="115"><stop offset="0" style="stop-color:#FCFCE4"></stop><stop offset="0.5" style="stop-color:#A0C8DD"></stop><stop offset="1" style="stop-color:#5D6EC5"></stop></linearGradient><path style="fill:url(#hair1XMLID_4435_);stroke:#000000;stroke-linecap:round;stroke-linejoin:round;" d="M287.5,134.833c0,0,30,7.667,43.5,24.667s20,45.5,23.5,74.5c-12-21.5-18.833-31.333-31-41.667"></path></g><g><linearGradient id="hair1XMLID_4436_" gradientUnits="userSpaceOnUse" x1="264.8301" y1="200.5" x2="264.8301" y2="115"><stop offset="0" style="stop-color:#FCFCE4"></stop><stop offset="0.5" style="stop-color:#A0C8DD"></stop><stop offset="1" style="stop-color:#5D6EC5"></stop></linearGradient><path style="fill:url(#hair1XMLID_4436_);stroke:#000000;stroke-linecap:round;stroke-linejoin:round;" d="M281.5,134c0,0,9.5-11,8-19.5c-1.5-2.5-10.5-9-24.5-13.5c-5,0-22,3.5-22,3.5s-3,11-3,14"></path><path style="fill:none;stroke:#000000;stroke-linecap:round;stroke-linejoin:round;" d="M267,102c0,0,6.5,13.5,6,24.5"></path></g><linearGradient id="hair1XMLID_4437_" gradientUnits="userSpaceOnUse" x1="298.6514" y1="200.5" x2="298.6514" y2="115"><stop offset="0" style="stop-color:#FCFCE4"></stop><stop offset="0.5" style="stop-color:#A0C8DD"></stop><stop offset="1" style="stop-color:#5D6EC5"></stop></linearGradient><path style="fill:url(#hair1XMLID_4437_);stroke:#000000;stroke-linecap:round;stroke-linejoin:round;" d="M280.333,159.333c0,0,9.667,38.333,9.667,55.667c-0.667,7-2.333,28.667-3,36.334c13-7.334,21.667-25,26.667-39.334s3.666-25.667,0.333-41.667"></path><g><linearGradient id="hair1XMLID_4438_" gradientUnits="userSpaceOnUse" x1="208.7388" y1="200.5" x2="208.7388" y2="115.0002"><stop offset="0" style="stop-color:#FCFCE4"></stop><stop offset="0.5" style="stop-color:#A0C8DD"></stop><stop offset="1" style="stop-color:#5D6EC5"></stop></linearGradient><path style="fill:url(#hair1XMLID_4438_);stroke:#000000;stroke-linecap:round;stroke-linejoin:round;" d="M217.333,199.667c0,0-9,15.666-10.333,33.667c-7.667-12.667-7.333-51.333-6.333-53.333s10.667-7,10.667-7L217.333,199.667z"></path><g><linearGradient id="hair1XMLID_4439_" gradientUnits="userSpaceOnUse" x1="203.6143" y1="200.5" x2="203.6143" y2="115"><stop offset="0" style="stop-color:#FCFCE4"></stop><stop offset="0.5" style="stop-color:#A0C8DD"></stop><stop offset="1" style="stop-color:#5D6EC5"></stop></linearGradient><path style="fill:url(#hair1XMLID_4439_);stroke:#000000;stroke-linecap:round;stroke-linejoin:round;" d="M202.333,179.667l47.895-63.776c0,0-25.229-1.891-44.895,1.109C185,118.667,164.095,157.077,162,179c1.894,3.39,2.655,7.019,3.208,10.765C162.127,201.324,161,213.899,161,226c0,17,3.5,30,8.594,37.107c-3.414,5.38-7.557,9.888-12.594,12.893c5.696-0.237,11.094-2.408,15.963-6.035c3.859,6.916,8.543,12.338,14.037,14.535c-2.937-6.541-5.261-13.727-6.938-21.293c4.83-5.726,6.181-5.413,8.938-13.707c5,6,10,10,19.5,12.5C192.833,224.667,202.333,179.667,202.333,179.667z M177.442,246.051c-0.795-9.165-0.684-18.587,0.4-27.88c0.846,3.718,2.266,7.272,4.062,10.604C180.794,234.474,179.345,240.371,177.442,246.051z"></path><path style="fill:none;stroke:#000000;stroke-linecap:round;stroke-linejoin:round;" d="M191.5,243c0,0,7-16,8.5-30"></path></g><linearGradient id="hair1XMLID_4440_" gradientUnits="userSpaceOnUse" x1="207.3335" y1="200.5" x2="207.3335" y2="115"><stop offset="0" style="stop-color:#FCFCE4"></stop><stop offset="0.5" style="stop-color:#A0C8DD"></stop><stop offset="1" style="stop-color:#5D6EC5"></stop></linearGradient><path style="fill:url(#hair1XMLID_4440_);stroke:#000000;stroke-linecap:round;stroke-linejoin:round;" d="M235,122.5c0,0-52.333-8.833-81.333,13.167c11.5-22.5,36.5-41.333,59-42.333C246.333,101.667,256.5,112,261,121"></path></g><linearGradient id="hair1XMLID_4441_" gradientUnits="userSpaceOnUse" x1="195.3335" y1="200.5" x2="195.3335" y2="114.9999"><stop offset="0" style="stop-color:#FCFCE4"></stop><stop offset="0.5" style="stop-color:#A0C8DD"></stop><stop offset="1" style="stop-color:#5D6EC5"></stop></linearGradient><path style="fill:url(#hair1XMLID_4441_);stroke:#000000;stroke-linecap:round;stroke-linejoin:round;" d="M213.667,187c-0.333,1-10.333,41.667-36.667,45.667c17.333-22.667,16.667-49,16.667-49"></path><linearGradient id="hair1XMLID_4442_" gradientUnits="userSpaceOnUse" x1="240.6128" y1="200.5" x2="240.6128" y2="114.9999"><stop offset="0" style="stop-color:#FCFCE4"></stop><stop offset="0.5" style="stop-color:#A0C8DD"></stop><stop offset="1" style="stop-color:#5D6EC5"></stop></linearGradient><path style="fill:url(#hair1XMLID_4442_);stroke:#000000;stroke-linecap:round;stroke-linejoin:round;" d="M278,133c0,0,7.333,20.667,0,43c-9.014,27.453-25.334,44-26,45c-0.666,6.667,3.001,19,6.334,24.333c-10-5-25-12.333-28-22.333c1,8,8,16,10.333,20c-9.333-5-14.333-10.333-22-23.667c-10-11-18-25.667-18.667-39s8.667-37.667,16.333-45.333"></path><linearGradient id="hair1XMLID_4443_" gradientUnits="userSpaceOnUse" x1="157.1665" y1="200.5" x2="157.1665" y2="115.0001"><stop offset="0" style="stop-color:#FCFCE4"></stop><stop offset="0.5" style="stop-color:#A0C8DD"></stop><stop offset="1" style="stop-color:#5D6EC5"></stop></linearGradient><path style="fill:url(#hair1XMLID_4443_);stroke:#000000;stroke-linecap:round;stroke-linejoin:round;" d="M165,164.667c-0.333,1-10.667,37.667-26.667,47.333C155.667,209,173,189.167,176,177.5"></path><path style="fill:none;stroke:#000000;stroke-linecap:round;stroke-linejoin:round;" d="M222.333,129.667c0,0,16.333-12.667,29-9"></path><g><path style="fill:none;stroke:#000000;stroke-linecap:round;stroke-linejoin:round;" d="M251,216c0,0-9.667-19-4.333-49.333s18.667-37.333,24.667-39.333c3.334,1,7,4.333,7,4.333"></path><path d="M257.667,137.333c0,0,11.334-6,20-6.333c-2.334-2-6.334-3.667-6.334-3.667S261.001,132.667,257.667,137.333z"></path></g><path d="M278.5,134.5c0,0,14.5-8,23.5-7c8,5.5,12.5,18.5,12.5,18.5S284.5,132.5,278.5,134.5z"></path></g><g><g><g><path style="fill:#FDFBE1;" d="M176.107,179.257c0,0,5.335-10.679,7.472-11.21c2.136-0.534-0.744,17.4-3.738,16.547C177.041,183.794,175.039,181.793,176.107,179.257z"></path><path style="fill:#FDFBE1;" d="M185.178,183.523c0,0,0.411-6.983,2.67-8.538c2.259-1.557,1.602,10.673,0,10.673C186.246,185.659,185.178,186.194,185.178,183.523z"></path></g></g><path style="fill:#FDFBE1;" d="M305.979,178.836c0,0-5.337-10.675-7.472-11.207c-2.134-0.534,0.743,17.4,3.734,16.547C305.045,183.376,307.047,181.376,305.979,178.836z"></path><path style="fill:#FDFBE1;" d="M298.581,183.857c0,0-0.411-6.984-2.672-8.541c-2.26-1.555-1.6,10.676,0,10.676C297.513,185.992,298.581,186.527,298.581,183.857z"></path></g><path style="fill:#FFF0DE;" d="M232.449,189.998c0,0,0-10.41,2.403-13.211c2.4-2.802,5.523,13.451,2.804,14.811C235.251,192.801,232.449,192.801,232.449,189.998z"></path><path style="fill:#FFF0DE;" d="M241.259,189.998c-1.606-2.003,0-9.208,0.799-10.41c0.801-1.201,4.002,9.207,2.402,11.208C242.396,193.376,242.858,191.998,241.259,189.998z"></path></g></g></svg>