<svg xmlns="http://www.w3.org/2000/svg" width="500" height="500" version="1.1"><g id="x9245"><g><linearGradient id="hair1XMLID_4444_" gradientUnits="userSpaceOnUse" x1="249.9995" y1="214.6665" x2="249.9995" y2="275.333"><stop offset="0" style="stop-color:#FCFCE4"></stop><stop offset="0.5" style="stop-color:#A0C8DD"></stop><stop offset="1" style="stop-color:#5D6EC5"></stop></linearGradient><path style="fill:url(#hair1XMLID_4444_);stroke:#000000;stroke-linecap:round;stroke-linejoin:round;" d="M312.734,135.882c-17.241-17.643-42.244-24.026-62.256-19.991c-0.16,0.019-0.317,0.034-0.478,0.054c-0.16-0.02-0.317-0.035-0.478-0.054c-20.014-4.035-45.017,2.348-62.258,19.991c-13.061,13.365-22.283,30.165-22.283,51.08c0,32.694,14.267,47.104,14.827,48.325c0,0-5.229-21.928,5.742-24.67c4.113-0.686,9.78-33.574,16.455-44.566c1.829-2.195,24.358-4.665,47.994-4.677c23.633,0.012,46.163,2.481,47.992,4.677c6.674,10.992,12.342,43.88,16.455,44.566c10.971,2.742,6.645,25.272,6.645,25.272c0.561-1.221,13.925-19.239,13.925-48.927C335.018,166.047,325.795,149.248,312.734,135.882z"></path><linearGradient id="hair1XMLID_4445_" gradientUnits="userSpaceOnUse" x1="252.25" y1="214.6665" x2="252.25" y2="275.3332"><stop offset="0" style="stop-color:#FCFCE4"></stop><stop offset="0.5" style="stop-color:#A0C8DD"></stop><stop offset="1" style="stop-color:#5D6EC5"></stop></linearGradient><path style="fill:url(#hair1XMLID_4445_);" d="M188.75,201c0.25-0.75,9.75-34.75,15.25-40.25c31-8.75,99.25,0.5,103.25,2.75c6.5,22.5,8.5,36.5,8.5,36.5s-20.5-4.5-65.25-4.5S188.75,201,188.75,201z"></path><g><g><linearGradient id="hair1XMLID_4446_" gradientUnits="userSpaceOnUse" x1="196.1255" y1="214.6665" x2="196.1255" y2="275.3329"><stop offset="0" style="stop-color:#FCFCE4"></stop><stop offset="0.5" style="stop-color:#A0C8DD"></stop><stop offset="1" style="stop-color:#5D6EC5"></stop></linearGradient><path style="fill:url(#hair1XMLID_4446_);stroke:#000000;stroke-linecap:round;stroke-linejoin:round;" d="M197.299,232c0,0,2,24.75,16.75,34c-7.25,1-13.5-5.5-13.5-5.5s5.5,35,24.5,43.75c-41.75-0.5-65.25-53.75-55.75-122"></path><linearGradient id="hair1XMLID_4447_" gradientUnits="userSpaceOnUse" x1="303.875" y1="214.6665" x2="303.875" y2="275.3329"><stop offset="0" style="stop-color:#FCFCE4"></stop><stop offset="0.5" style="stop-color:#A0C8DD"></stop><stop offset="1" style="stop-color:#5D6EC5"></stop></linearGradient><path style="fill:url(#hair1XMLID_4447_);stroke:#000000;stroke-linecap:round;stroke-linejoin:round;" d="M302.701,232c0,0-2,24.75-16.75,34c7.25,1,13.5-5.5,13.5-5.5s-5.5,35-24.5,43.75c41.75-0.5,65.25-53.75,55.75-122"></path></g><g><linearGradient id="hair1XMLID_4448_" gradientUnits="userSpaceOnUse" x1="189.8755" y1="214.6665" x2="189.8755" y2="275.3332"><stop offset="0" style="stop-color:#FCFCE4"></stop><stop offset="0.5" style="stop-color:#A0C8DD"></stop><stop offset="1" style="stop-color:#5D6EC5"></stop></linearGradient><path style="fill:url(#hair1XMLID_4448_);stroke:#000000;stroke-linecap:round;stroke-linejoin:round;" d="M198.642,196c0,0-7.121,32,5.379,49c-23.75-6.75-31.879-32-26.879-54.5"></path><linearGradient id="hair1XMLID_4449_" gradientUnits="userSpaceOnUse" x1="310.125" y1="214.6665" x2="310.125" y2="275.3332"><stop offset="0" style="stop-color:#FCFCE4"></stop><stop offset="0.5" style="stop-color:#A0C8DD"></stop><stop offset="1" style="stop-color:#5D6EC5"></stop></linearGradient><path style="fill:url(#hair1XMLID_4449_);stroke:#000000;stroke-linecap:round;stroke-linejoin:round;" d="M301.358,196c0,0,7.121,32-5.379,49c23.75-6.75,31.879-32,26.879-54.5"></path></g><g><linearGradient id="hair1XMLID_4450_" gradientUnits="userSpaceOnUse" x1="255.125" y1="214.6665" x2="255.125" y2="275.3332"><stop offset="0" style="stop-color:#FCFCE4"></stop><stop offset="0.5" style="stop-color:#A0C8DD"></stop><stop offset="1" style="stop-color:#5D6EC5"></stop></linearGradient><path style="fill:url(#hair1XMLID_4450_);stroke:#000000;stroke-linecap:round;stroke-linejoin:round;" d="M270.25,193.25c0,0-3,39.75-30.25,53.25c3.75-11,2.25-51.25,2.25-51.25"></path><linearGradient id="hair1XMLID_4451_" gradientUnits="userSpaceOnUse" x1="232.187" y1="214.6665" x2="232.187" y2="275.3329"><stop offset="0" style="stop-color:#FCFCE4"></stop><stop offset="0.5" style="stop-color:#A0C8DD"></stop><stop offset="1" style="stop-color:#5D6EC5"></stop></linearGradient><path style="fill:url(#hair1XMLID_4451_);stroke:#000000;stroke-linecap:round;stroke-linejoin:round;" d="M197.75,195.25c0,1.75-3.5,18,3.5,32.75c10-7.75,20.5-23,20.75-24c-2,14.75,19.5,40.25,45.5,45.25c-11-13.5-15.75-58.75-15.75-58.75"></path><g><linearGradient id="hair1XMLID_4452_" gradientUnits="userSpaceOnUse" x1="287.5508" y1="214.6665" x2="287.5508" y2="275.3328"><stop offset="0" style="stop-color:#FCFCE4"></stop><stop offset="0.5" style="stop-color:#A0C8DD"></stop><stop offset="1" style="stop-color:#5D6EC5"></stop></linearGradient><path style="fill:url(#hair1XMLID_4452_);stroke:#000000;stroke-linecap:round;stroke-linejoin:round;" d="M305,186.75c0,0,2.25,31-14.5,44.25C276,217,270,193.5,270,193.5"></path><path style="fill:none;stroke:#000000;stroke-linecap:round;stroke-linejoin:round;" d="M298.5,197c0,0,1.25,18.5-8,34"></path></g></g><g><path style="fill:#FFF0DE;" d="M184.274,179.257c0,0,5.335-10.679,7.472-11.21c2.136-0.534-0.744,17.4-3.738,16.547C185.207,183.794,183.206,181.793,184.274,179.257z"></path><path style="fill:#FFF0DE;" d="M193.344,183.523c0,0,0.411-6.983,2.67-8.538c2.259-1.557,1.602,10.673,0,10.673C194.412,185.659,193.344,186.194,193.344,183.523z"></path><path style="fill:#FFF0DE;" d="M315.147,179.253c0,0-5.337-10.675-7.472-11.207c-2.134-0.534,0.743,17.4,3.734,16.547C314.213,183.793,316.215,181.793,315.147,179.253z"></path><path style="fill:#FFF0DE;" d="M307.749,183.524c0,0-0.411-6.984-2.672-8.541c-2.26-1.555-1.6,10.676,0,10.676C306.681,185.659,307.749,186.194,307.749,183.524z"></path><path style="fill:#FFF0DE;" d="M236.449,188.998c0,0,0-10.41,2.403-13.211c2.4-2.802,5.523,13.451,2.804,14.811C239.251,191.801,236.449,191.801,236.449,188.998z"></path><path style="fill:#FFF0DE;" d="M245.259,188.998c-1.606-2.003,0-9.208,0.799-10.41c0.801-1.201,4.002,9.207,2.402,11.208C246.396,192.376,246.858,190.998,245.259,188.998z"></path></g><linearGradient id="hair1XMLID_4453_" gradientUnits="userSpaceOnUse" x1="248.9995" y1="214.6665" x2="248.9995" y2="275.333"><stop offset="0" style="stop-color:#FCFCE4"></stop><stop offset="0.5" style="stop-color:#A0C8DD"></stop><stop offset="1" style="stop-color:#5D6EC5"></stop></linearGradient><path style="fill:url(#hair1XMLID_4453_);stroke:#000000;stroke-linecap:round;stroke-linejoin:round;" d="M234.5,157.5c0,1,0.5,36.75,29,48c-9.25-17.75-11.5-50-11.5-50"></path></g></g></g></svg>