<svg xmlns="http://www.w3.org/2000/svg" width="500" height="500" version="1.1"><g id="x9246"><g><g><linearGradient id="hair1XMLID_4454_" gradientUnits="userSpaceOnUse" x1="249.9995" y1="128.9863" x2="249.9995" y2="308.9321"><stop offset="0" style="stop-color:#FCFCE4"></stop><stop offset="0.5" style="stop-color:#A0C8DD"></stop><stop offset="1" style="stop-color:#5D6EC5"></stop></linearGradient><path style="fill:url(#hair1XMLID_4454_);stroke:#000000;stroke-linecap:round;stroke-linejoin:round;" d="M311.131,135.882c-15.097-18.183-40.808-23.413-61.131-20.577c-20.323-2.835-46.034,2.394-61.131,20.577C175.071,152.5,173.511,175,176.371,193.75c1.911,12.525,3.524,16.568,6.241,25.75c1.286,4.344,11.681,22.816,11.888,23.333c-3.167-52.833,4.111-86.492,4.166-86.5c18.038,3.927,43.553,17.223,51.334,21.952c7.781-4.729,33.296-18.025,51.334-21.952c0.055,0.008-8.5,12.833-8.5,12.833s6.166-1.167,10-2.333c0.07,0.114-7,11.5-7,11.5s6.5-1.667,9.5-2.833c0.221,0.558-8.167,11.667-8.167,11.667s6.467-1.482,8.333-2.167c0.126,0.398-6.333,13.167-6.333,13.167l9.167-3.333c0.081,0.271-4.971,10.754-6.334,13c3.792-0.576,5.013-1.969,6.5-2c0.045,0.142-2.005,28.206-3,37c0.207-0.517,2.723-6.743,4.604-11.396c2.185-2.741,5.998-7.594,7.284-11.938c2.717-9.182,4.33-13.225,6.241-25.75C326.489,175,324.929,152.5,311.131,135.882z"></path><linearGradient id="hair1XMLID_4455_" gradientUnits="userSpaceOnUse" x1="197.1938" y1="155.5342" x2="197.1938" y2="432.8748"><stop offset="0" style="stop-color:#FCFCE4"></stop><stop offset="0.5" style="stop-color:#A0C8DD"></stop><stop offset="1" style="stop-color:#5D6EC5"></stop></linearGradient><path style="fill:url(#hair1XMLID_4455_);stroke:#000000;stroke-linecap:round;stroke-linejoin:round;" d="M207.667,147.667c0,0-20-14.333-24-14.333C163,174.667,180,232,179.333,242.333c-0.667,10.333,2.667,45.334,3,47s-6,13.666-5.667,16.333s5.667,3.333,5,5.333s-3.666,5.667-3.333,6.667S191,323.333,191.667,326S187,331,187,331s8-2.333,8.667-5.333s-9-8.333-9-8.333s13.334-10.333,14.667-14c0.948-2.608,1.221-6.723,1.3-8.889c2.435-3.137,5.139-7.912,4.033-12.111c-1.497-5.687-7.29-30.175-8.458-35.116C198.077,244.57,198,242.124,198,240c0-16.667,0-76,2.333-81.667c4.667,0.333,20.667,5.5,20.667,5.5 M201.911,286.84c-0.667-5.598-1.656-14.31-2.473-23.17c2.037,8.227,4.052,16.58,4.229,17.997C203.806,282.783,202.95,284.833,201.911,286.84z"></path></g><path style="fill:none;stroke:#000000;stroke-linecap:round;stroke-linejoin:round;" d="M199.333,162c0,0,0.667-7.667,1.667-9.667c9.667,4.333,21,11,22.333,12.667"></path><g><g><path style="fill:#FFF0DE;" d="M177.607,161.757c0,0,5.335-10.679,7.472-11.21c2.136-0.534-0.744,17.4-3.738,16.547C178.541,166.294,176.539,164.293,177.607,161.757z"></path><path style="fill:#FFF0DE;" d="M186.678,166.023c0,0,0.411-6.983,2.67-8.538c2.259-1.557,1.602,10.673,0,10.673C187.746,168.159,186.678,168.694,186.678,166.023z"></path></g></g></g></g></svg>