<svg xmlns="http://www.w3.org/2000/svg" width="500" height="500" version="1.1"><g id="x9247"><g><g><g><linearGradient id="hair1XMLID_4456_" gradientUnits="userSpaceOnUse" x1="249.9995" y1="255.332" x2="249.9995" y2="299.666"><stop offset="0" style="stop-color:#FCFCE4"></stop><stop offset="0.5" style="stop-color:#A0C8DD"></stop><stop offset="1" style="stop-color:#5D6EC5"></stop></linearGradient><path style="fill:url(#hair1XMLID_4456_);stroke:#000000;stroke-linecap:round;stroke-linejoin:round;" d="M312.734,135.882c-17.241-17.643-42.244-24.026-62.256-19.991c-0.16,0.019-0.317,0.034-0.478,0.054c-0.16-0.02-0.317-0.035-0.478-0.054c-20.014-4.035-45.017,2.348-62.258,19.991c-13.061,13.365-22.283,30.165-22.283,51.08c0,32.694,14.267,47.104,14.827,48.325c0,0-5.229-21.928,5.742-24.67c4.113-0.686,9.78-33.574,16.455-44.566c1.829-2.195,24.358-4.665,47.994-4.677c23.633,0.012,46.163,2.481,47.992,4.677c6.674,10.992,12.342,43.88,16.455,44.566c10.971,2.742,6.645,25.272,6.645,25.272c0.561-1.221,13.925-19.239,13.925-48.927C335.018,166.047,325.795,149.248,312.734,135.882z"></path><linearGradient id="hair1XMLID_4457_" gradientUnits="userSpaceOnUse" x1="186.3013" y1="255.333" x2="186.3013" y2="299.667"><stop offset="0" style="stop-color:#FCFCE4"></stop><stop offset="0.5" style="stop-color:#A0C8DD"></stop><stop offset="1" style="stop-color:#5D6EC5"></stop></linearGradient><path style="fill:url(#hair1XMLID_4457_);stroke:#000000;stroke-linecap:round;stroke-linejoin:round;" d="M173,217.5c0,0-1.917,28.584,13.333,46.834C195.359,275.135,198,292.75,198,292.75s5-32.75-2.25-52.75"></path><linearGradient id="hair1XMLID_4458_" gradientUnits="userSpaceOnUse" x1="190.5" y1="255.333" x2="190.5" y2="299.667"><stop offset="0" style="stop-color:#FCFCE4"></stop><stop offset="0.5" style="stop-color:#A0C8DD"></stop><stop offset="1" style="stop-color:#5D6EC5"></stop></linearGradient><path style="fill:url(#hair1XMLID_4458_);stroke:#000000;stroke-linecap:round;stroke-linejoin:round;" d="M193.25,214c0,0,1,30.75,10.75,45.5c-9.5-0.25-26-24.25-27-48.25"></path></g><linearGradient id="hair1XMLID_4459_" gradientUnits="userSpaceOnUse" x1="300.75" y1="259.4463" x2="300.75" y2="311.5207"><stop offset="0" style="stop-color:#FCFCE4"></stop><stop offset="0.5" style="stop-color:#A0C8DD"></stop><stop offset="1" style="stop-color:#5D6EC5"></stop></linearGradient><path style="fill:url(#hair1XMLID_4459_);stroke:#000000;stroke-linecap:round;stroke-linejoin:round;" d="M313,250.333c-0.333,1.834-14.167,23.196-17,40.862c-2.833,17.665,2,32.766,2,32.766l-5-3.277c0,0-7.833-24.645-2.833-39.604c5-14.958,16.666-23.58,16.666-23.58"></path><linearGradient id="hair1XMLID_4460_" gradientUnits="userSpaceOnUse" x1="301.0898" y1="251.293" x2="301.0898" y2="288.8223"><stop offset="0" style="stop-color:#FCFCE4"></stop><stop offset="0.5" style="stop-color:#A0C8DD"></stop><stop offset="1" style="stop-color:#5D6EC5"></stop></linearGradient><path style="fill:url(#hair1XMLID_4460_);stroke:#000000;stroke-linecap:round;stroke-linejoin:round;" d="M297.333,231.667c0,1.333-19.999,45.425-12.999,62.235c7-23.078,32.665-24.901,34.999-68.568"></path><linearGradient id="hair1XMLID_4461_" gradientUnits="userSpaceOnUse" x1="324.208" y1="255.333" x2="324.208" y2="299.667"><stop offset="0" style="stop-color:#FCFCE4"></stop><stop offset="0.5" style="stop-color:#A0C8DD"></stop><stop offset="1" style="stop-color:#5D6EC5"></stop></linearGradient><path style="fill:url(#hair1XMLID_4461_);stroke:#000000;stroke-linecap:round;stroke-linejoin:round;" d="M334.666,186c0,0.75-2.5,67.75,2.75,83.75c-16.749-11.417-24.082-28.083-26.416-46.417"></path><linearGradient id="hair1XMLID_4462_" gradientUnits="userSpaceOnUse" x1="337.5156" y1="255.333" x2="337.5156" y2="299.667"><stop offset="0" style="stop-color:#FCFCE4"></stop><stop offset="0.5" style="stop-color:#A0C8DD"></stop><stop offset="1" style="stop-color:#5D6EC5"></stop></linearGradient><path style="fill:url(#hair1XMLID_4462_);stroke:#000000;stroke-linecap:round;stroke-linejoin:round;" d="M332.516,168.333c0,0,6.999,40.333,16.666,52.333c-12-10-21-28-23.333-44"></path><g><g><linearGradient id="hair1XMLID_4463_" gradientUnits="userSpaceOnUse" x1="196.7778" y1="252.333" x2="196.7778" y2="296.667"><stop offset="0" style="stop-color:#FCFCE4"></stop><stop offset="0.5" style="stop-color:#A0C8DD"></stop><stop offset="1" style="stop-color:#5D6EC5"></stop></linearGradient><path style="fill:url(#hair1XMLID_4463_);stroke:#000000;stroke-linecap:round;stroke-linejoin:round;" d="M185.75,158c-12.75,25-8,67.25,5.75,79.25c-0.302-8.978,1.743-19.525,4.743-29.878c3.132,8.56,7.363,14.963,11.007,17.878c-3.949-8.01-6.061-19.477-7.194-29.655c6.811-19.174,15.194-35.095,15.194-35.095"></path><path style="fill:none;stroke:#000000;stroke-linecap:round;stroke-linejoin:round;" d="M198.25,171.75c0,0,1.112,16.439,1.806,23.845"></path></g><linearGradient id="hair1XMLID_4464_" gradientUnits="userSpaceOnUse" x1="265.5107" y1="252.333" x2="265.5107" y2="296.667"><stop offset="0" style="stop-color:#FCFCE4"></stop><stop offset="0.5" style="stop-color:#A0C8DD"></stop><stop offset="1" style="stop-color:#5D6EC5"></stop></linearGradient><path style="fill:url(#hair1XMLID_4464_);stroke:#000000;stroke-linecap:round;stroke-linejoin:round;" d="M213.5,148.5c-8.5,27-8.5,66,23.25,89C230,228.25,227,212,227,212s5.984,13.407,19.251,24.442c0.348,2.774,0.683,5.097,0.999,6.808c1.204-1.042,2.365-2.151,3.492-3.307c3.915,2.859,8.114,5.41,12.508,7.307c-2.078-3.767-4.096-8.982-6.013-15.032C270.776,213.778,277,189.75,277,189.75s27.75,25,27.75,48.5c8.75-5.75,25.75-44.5,13-86.5"></path><path style="fill:none;stroke:#000000;stroke-linecap:round;stroke-linejoin:round;" d="M257.237,232.218c0,0-3.987-8.468-6.737-27.468"></path><linearGradient id="hair1XMLID_4465_" gradientUnits="userSpaceOnUse" x1="296.7715" y1="252.333" x2="296.7715" y2="296.667"><stop offset="0" style="stop-color:#FCFCE4"></stop><stop offset="0.5" style="stop-color:#A0C8DD"></stop><stop offset="1" style="stop-color:#5D6EC5"></stop></linearGradient><path style="fill:url(#hair1XMLID_4465_);stroke:#000000;stroke-linecap:round;stroke-linejoin:round;" d="M295.5,196.75c0,0,7.75,39.5-6.5,57.25c12.25-6.5,16-32.25,15.5-51.25"></path><linearGradient id="hair1XMLID_4466_" gradientUnits="userSpaceOnUse" x1="279.1973" y1="252.333" x2="279.1973" y2="296.667"><stop offset="0" style="stop-color:#FCFCE4"></stop><stop offset="0.5" style="stop-color:#A0C8DD"></stop><stop offset="1" style="stop-color:#5D6EC5"></stop></linearGradient><path style="fill:url(#hair1XMLID_4466_);stroke:#000000;stroke-linecap:round;stroke-linejoin:round;" d="M272.518,184.491c4.837,12.593,10.781,30.664,10.482,42.759c5.25-7.5,2.5-46-1.75-57"></path></g><linearGradient id="hair1XMLID_4467_" gradientUnits="userSpaceOnUse" x1="170.5029" y1="255.333" x2="170.5029" y2="299.667"><stop offset="0" style="stop-color:#FCFCE4"></stop><stop offset="0.5" style="stop-color:#A0C8DD"></stop><stop offset="1" style="stop-color:#5D6EC5"></stop></linearGradient><path style="fill:url(#hair1XMLID_4467_);stroke:#000000;stroke-linecap:round;stroke-linejoin:round;" d="M165.25,186c0,0.75,2.5,67.75-2.75,83.75c8.25-7.75,16.25-27,16-37.25"></path><linearGradient id="hair1XMLID_4468_" gradientUnits="userSpaceOnUse" x1="162.4004" y1="255.333" x2="162.4004" y2="299.667"><stop offset="0" style="stop-color:#FCFCE4"></stop><stop offset="0.5" style="stop-color:#A0C8DD"></stop><stop offset="1" style="stop-color:#5D6EC5"></stop></linearGradient><path style="fill:url(#hair1XMLID_4468_);stroke:#000000;stroke-linecap:round;stroke-linejoin:round;" d="M167.4,168.333c0,0-7,40.333-16.667,52.333c12-10,21-28,23.333-44"></path><g><linearGradient id="hair1XMLID_4469_" gradientUnits="userSpaceOnUse" x1="288.7822" y1="260.4238" x2="288.7822" y2="311.7093"><stop offset="0" style="stop-color:#FCFCE4"></stop><stop offset="0.5" style="stop-color:#A0C8DD"></stop><stop offset="1" style="stop-color:#5D6EC5"></stop></linearGradient><path style="fill:url(#hair1XMLID_4469_);stroke:#000000;stroke-linecap:round;stroke-linejoin:round;" d="M285,292.192c0,0-2.166,6.767-2.333,7.692s1.708,3.276,1.708,3.276s-1.625,3.633-1.375,4.167s3,2.885,3,2.885s-1.25,2.351-1,3.099s3.667,2.813,3.667,2.813s-0.167,2.814,0.333,3.419c0.5,0.605,4.875,1.567,4.875,1.567s1.25-3.633,1-4.167s-2.541-2.813-2.541-2.813s0.416-2.315,0.166-3.063c-0.25-0.747-3.5-2.243-3.5-2.243s1.125-2.351,1.125-2.992c0-0.641-2.125-3.098-2.125-3.098s1.125-2.564,1.125-3.206C289.125,298.888,285,292.192,285,292.192z"></path><linearGradient id="hair1XMLID_4470_" gradientUnits="userSpaceOnUse" x1="295.8516" y1="250.8828" x2="295.8516" y2="288.7755"><stop offset="0" style="stop-color:#FCFCE4"></stop><stop offset="0.5" style="stop-color:#A0C8DD"></stop><stop offset="1" style="stop-color:#5D6EC5"></stop></linearGradient><path style="fill:url(#hair1XMLID_4470_);stroke:#000000;stroke-linecap:round;stroke-linejoin:round;" d="M293,319.829c0,0-1,4.56,0.667,5.414s5.333,1.424,5.333,1.424s-0.001-3.135-0.667-4.273c-0.666-1.14-3.999-3.419-3.999-3.419"></path></g></g><g><g><path style="fill:#FFF0DE;" d="M184.274,179.257c0,0,5.335-10.679,7.472-11.21c2.136-0.534-0.744,17.4-3.738,16.547C185.207,183.794,183.206,181.793,184.274,179.257z"></path><path style="fill:#FFF0DE;" d="M193.344,183.523c0,0,0.411-6.983,2.67-8.538c2.259-1.557,1.602,10.673,0,10.673C194.412,185.659,193.344,186.194,193.344,183.523z"></path><path style="fill:#FFF0DE;" d="M315.147,179.253c0,0-5.337-10.675-7.472-11.207c-2.134-0.534,0.743,17.4,3.734,16.547C314.213,183.793,316.215,181.793,315.147,179.253z"></path><path style="fill:#FFF0DE;" d="M307.749,183.524c0,0-0.411-6.984-2.672-8.541c-2.26-1.555-1.6,10.676,0,10.676C306.681,185.659,307.749,186.194,307.749,183.524z"></path><path style="fill:#FFF0DE;" d="M236.449,188.998c0,0,0-10.41,2.403-13.211c2.4-2.802,5.523,13.451,2.804,14.811C239.251,191.801,236.449,191.801,236.449,188.998z"></path><path style="fill:#FFF0DE;" d="M245.259,188.998c-1.606-2.003,0-9.208,0.799-10.41c0.801-1.201,4.002,9.207,2.402,11.208C246.396,192.376,246.858,190.998,245.259,188.998z"></path></g></g></g></g></svg>