<svg xmlns="http://www.w3.org/2000/svg" width="500" height="500" version="1.1"><g id="x9253"><g><linearGradient id="hair1XMLID_4510_" gradientUnits="userSpaceOnUse" x1="250" y1="145" x2="250" y2="255.5"><stop offset="0" style="stop-color:#FCFCE4"></stop><stop offset="0.5" style="stop-color:#A0C8DD"></stop><stop offset="1" style="stop-color:#5D6EC5"></stop></linearGradient><path style="fill:url(#hair1XMLID_4510_);stroke:#000000;stroke-linecap:round;stroke-linejoin:round;" d="M310.464,135.882c-14.932-17.986-40.246-23.292-60.464-20.661c-20.217-2.631-45.531,2.675-60.464,20.661C175.738,152.5,174.177,175,177.038,193.75c1.911,12.525,3.524,16.568,6.241,25.75c1.286,4.344,10.681,22.816,10.888,23.333c-3.167-52.833,5.111-86.492,5.166-86.5c17.557,3.822,42.19,16.517,50.667,21.552c8.478-5.035,33.112-17.73,50.669-21.552c0.055,0.008,8.332,33.667,5.166,86.5c0.207-0.517,9.6-18.99,10.887-23.333c2.717-9.182,4.33-13.225,6.24-25.75C325.823,175,324.263,152.5,310.464,135.882z"></path><g><g><linearGradient id="hair1XMLID_4511_" gradientUnits="userSpaceOnUse" x1="176.1577" y1="145" x2="176.1577" y2="255.5001"><stop offset="0" style="stop-color:#FCFCE4"></stop><stop offset="0.5" style="stop-color:#A0C8DD"></stop><stop offset="1" style="stop-color:#5D6EC5"></stop></linearGradient><path style="fill:url(#hair1XMLID_4511_);stroke:#000000;stroke-linecap:round;stroke-linejoin:round;" d="M176.241,180.833c0,1.667,1,19.833-5.333,31.333c7.333-4.667,10.5-8.667,10.5-8.667"></path><linearGradient id="hair1XMLID_4512_" gradientUnits="userSpaceOnUse" x1="165.4995" y1="145" x2="165.4995" y2="255.4999"><stop offset="0" style="stop-color:#FCFCE4"></stop><stop offset="0.5" style="stop-color:#A0C8DD"></stop><stop offset="1" style="stop-color:#5D6EC5"></stop></linearGradient><path style="fill:url(#hair1XMLID_4512_);stroke:#000000;stroke-linecap:round;stroke-linejoin:round;" d="M193.574,217.5c0,0-6.88,14.317-25.75,17s-30.399-10.712-30.399-10.712s6.312,4.081,21.499-1.021s21.499-22.448,21.499-22.448"></path><linearGradient id="hair1XMLID_4513_" gradientUnits="userSpaceOnUse" x1="169.3062" y1="145" x2="169.3062" y2="255.4999"><stop offset="0" style="stop-color:#FCFCE4"></stop><stop offset="0.5" style="stop-color:#A0C8DD"></stop><stop offset="1" style="stop-color:#5D6EC5"></stop></linearGradient><path style="fill:url(#hair1XMLID_4513_);stroke:#000000;stroke-linecap:round;stroke-linejoin:round;" d="M173.211,221.747c0,0-8.253,25.953-27.673,32.316c9.063,2.68,40.536-1.063,47.536-34.813"></path><linearGradient id="hair1XMLID_4514_" gradientUnits="userSpaceOnUse" x1="170.0674" y1="145" x2="170.0674" y2="255.4999"><stop offset="0" style="stop-color:#FCFCE4"></stop><stop offset="0.5" style="stop-color:#A0C8DD"></stop><stop offset="1" style="stop-color:#5D6EC5"></stop></linearGradient><path style="fill:url(#hair1XMLID_4514_);stroke:#000000;stroke-linecap:round;stroke-linejoin:round;" d="M181.241,196c0,0-9.3,22.074-24.882,22.482c14.99,0.612,22.88-2.449,27.416-7.551"></path></g><g><linearGradient id="hair1XMLID_4515_" gradientUnits="userSpaceOnUse" x1="323.8418" y1="145" x2="323.8418" y2="255.5001"><stop offset="0" style="stop-color:#FCFCE4"></stop><stop offset="0.5" style="stop-color:#A0C8DD"></stop><stop offset="1" style="stop-color:#5D6EC5"></stop></linearGradient><path style="fill:url(#hair1XMLID_4515_);stroke:#000000;stroke-linecap:round;stroke-linejoin:round;" d="M323.759,180.833c0,1.667-1,19.833,5.333,31.333c-7.333-4.667-10.5-8.667-10.5-8.667"></path><linearGradient id="hair1XMLID_4516_" gradientUnits="userSpaceOnUse" x1="334.5" y1="145" x2="334.5" y2="255.4999"><stop offset="0" style="stop-color:#FCFCE4"></stop><stop offset="0.5" style="stop-color:#A0C8DD"></stop><stop offset="1" style="stop-color:#5D6EC5"></stop></linearGradient><path style="fill:url(#hair1XMLID_4516_);stroke:#000000;stroke-linecap:round;stroke-linejoin:round;" d="M306.426,217.5c0,0,6.88,14.317,25.75,17s30.399-10.712,30.399-10.712s-6.312,4.081-21.499-1.021s-21.499-22.448-21.499-22.448"></path><linearGradient id="hair1XMLID_4517_" gradientUnits="userSpaceOnUse" x1="330.6934" y1="145" x2="330.6934" y2="255.4999"><stop offset="0" style="stop-color:#FCFCE4"></stop><stop offset="0.5" style="stop-color:#A0C8DD"></stop><stop offset="1" style="stop-color:#5D6EC5"></stop></linearGradient><path style="fill:url(#hair1XMLID_4517_);stroke:#000000;stroke-linecap:round;stroke-linejoin:round;" d="M326.789,221.747c0,0,8.252,25.953,27.673,32.316c-9.063,2.68-40.536-1.063-47.536-34.813"></path><linearGradient id="hair1XMLID_4518_" gradientUnits="userSpaceOnUse" x1="329.9326" y1="145" x2="329.9326" y2="255.4999"><stop offset="0" style="stop-color:#FCFCE4"></stop><stop offset="0.5" style="stop-color:#A0C8DD"></stop><stop offset="1" style="stop-color:#5D6EC5"></stop></linearGradient><path style="fill:url(#hair1XMLID_4518_);stroke:#000000;stroke-linecap:round;stroke-linejoin:round;" d="M318.759,196c0,0,9.3,22.074,24.882,22.482c-14.99,0.612-22.88-2.449-27.416-7.551"></path></g></g></g></g></svg>