<svg xmlns="http://www.w3.org/2000/svg" width="500" height="500" version="1.1"><g id="x9256"><g><linearGradient id="hair1XMLID_4533_" gradientUnits="userSpaceOnUse" x1="249.9995" y1="121.5" x2="249.9995" y2="320.9995"><stop offset="0" style="stop-color:#FCFCE4"></stop><stop offset="0.5" style="stop-color:#A0C8DD"></stop><stop offset="1" style="stop-color:#5D6EC5"></stop></linearGradient><path style="fill:url(#hair1XMLID_4533_);stroke:#000000;stroke-linecap:round;stroke-linejoin:round;" d="M312.734,135.882c-17.241-17.643-42.244-24.026-62.256-19.991c-0.16,0.019-0.317,0.034-0.478,0.054c-0.16-0.02-0.317-0.035-0.478-0.054c-20.014-4.035-45.017,2.348-62.258,19.991c-13.061,13.365-22.283,30.165-22.283,51.08c0,32.694,14.267,47.104,14.827,48.325c0,0-5.229-21.928,5.742-24.67c4.113-0.686,9.78-33.574,16.455-44.566c1.829-2.195,24.358-4.665,47.994-4.677c23.633,0.012,46.163,2.481,47.992,4.677c6.674,10.992,12.342,43.88,16.455,44.566c10.971,2.742,6.645,25.272,6.645,25.272c0.561-1.221,13.925-19.239,13.925-48.927C335.018,166.047,325.795,149.248,312.734,135.882z"></path><g><g><linearGradient id="hair1XMLID_4534_" gradientUnits="userSpaceOnUse" x1="250.3911" y1="121.5" x2="250.3911" y2="320.9997"><stop offset="0" style="stop-color:#FCFCE4"></stop><stop offset="0.5" style="stop-color:#A0C8DD"></stop><stop offset="1" style="stop-color:#5D6EC5"></stop></linearGradient><path style="fill:url(#hair1XMLID_4534_);stroke:#000000;stroke-linecap:round;stroke-linejoin:round;" d="M297.277,147.797c15.06,20.935,17.006,52.936,17.006,52.936c-1.815,21.286-16.322,25.768-16.322,25.768s6.044-16.804,6.648-30.249c-3.325,12.043-14.204,20.726-20.855,20.726c0.604-21.287-12.391-34.169-12.391-34.169s-4.23,18.485,0.604,37.53c-25.389,1.12-33.247-20.166-33.247-20.166s4.231,13.444,12.091,23.527c-32.037-2.801-40.414-23.465-39.872-33.177c-4.336,8.178-9.214,20.957-5.663,29.257c-22.276-6.722-18.542-35.851-18.542-35.851s5.979-35.29,28.343-50.415c0,0,22.944-12.814,25.618-11.974s9.238,7.772,9.238,7.772s3.015-7.982,5.465-8.613C256.571,120.397,283.51,128.652,297.277,147.797z"></path><linearGradient id="hair1XMLID_4535_" gradientUnits="userSpaceOnUse" x1="270.9326" y1="121.5" x2="270.9326" y2="321.0002"><stop offset="0" style="stop-color:#FCFCE4"></stop><stop offset="0.5" style="stop-color:#A0C8DD"></stop><stop offset="1" style="stop-color:#5D6EC5"></stop></linearGradient><path style="fill:url(#hair1XMLID_4535_);stroke:#000000;stroke-linecap:round;stroke-linejoin:round;" d="M284.631,174.833c0,0-1.916,22.687-27.396,27.168c22.74-14.284,10.686-54.056,10.686-54.056"></path></g><g><g><linearGradient id="hair1XMLID_4536_" gradientUnits="userSpaceOnUse" x1="185.4629" y1="121.4995" x2="185.4629" y2="320.9994"><stop offset="0" style="stop-color:#FCFCE4"></stop><stop offset="0.5" style="stop-color:#A0C8DD"></stop><stop offset="1" style="stop-color:#5D6EC5"></stop></linearGradient><path style="fill:url(#hair1XMLID_4536_);stroke:#000000;stroke-linecap:round;stroke-linejoin:round;" d="M191.187,237.646c0,0,6.986,16.438,18.494,20.753c-6.165,1.029-17.26,1.646-22.192-4.725c1.849,5.754,5.342,17.26,12.534,20.343c-10.069,2.26-33.7-2.672-37.809-28.769c-2.671-16.232,1.027-28.562,1.027-28.562l17.466,3.493"></path><linearGradient id="hair1XMLID_4537_" gradientUnits="userSpaceOnUse" x1="173.4126" y1="121.5" x2="173.4126" y2="321.0005"><stop offset="0" style="stop-color:#FCFCE4"></stop><stop offset="0.5" style="stop-color:#A0C8DD"></stop><stop offset="1" style="stop-color:#5D6EC5"></stop></linearGradient><path style="fill:url(#hair1XMLID_4537_);stroke:#000000;stroke-linecap:round;stroke-linejoin:round;" d="M175.981,258.399c0,0-0.821,9.043,4.315,14.796c-5.548-1.438-11.302-3.903-13.767-14.796"></path></g><linearGradient id="hair1XMLID_4538_" gradientUnits="userSpaceOnUse" x1="192.8335" y1="121.5" x2="192.8335" y2="320.9999"><stop offset="0" style="stop-color:#FCFCE4"></stop><stop offset="0.5" style="stop-color:#A0C8DD"></stop><stop offset="1" style="stop-color:#5D6EC5"></stop></linearGradient><path style="fill:url(#hair1XMLID_4538_);stroke:#000000;stroke-linecap:round;stroke-linejoin:round;" d="M226.598,112.507c16.358-1.335,23.988,13.15,23.988,13.15l-1.644,6.028c0,0-3.014-8.492-4.932-8.767c-5.479,0.822-36.017,7.584-50.015,47.946c-16.439,47.398,6.505,77.386,6.505,77.386s-15.25-1-20.25-22.25c-2.25,13.5,5.594,23.564,5.594,23.564C174,248.25,166.25,238.75,167.5,225.75c-5.75,10.5-3.25,22.5,0,26.75c-11.5-1.75-25.56-11.224-23.917-28.758c-4.109,9.042-6.302,18.084-6.028,21.645c-5.753-11.781-1.369-33.522,12.054-59.179C161.939,162.645,199.747,114.699,226.598,112.507z"></path></g><linearGradient id="hair1XMLID_4539_" gradientUnits="userSpaceOnUse" x1="354.0195" y1="121.5" x2="354.0195" y2="320.9998"><stop offset="0" style="stop-color:#FCFCE4"></stop><stop offset="0.5" style="stop-color:#A0C8DD"></stop><stop offset="1" style="stop-color:#5D6EC5"></stop></linearGradient><path style="fill:url(#hair1XMLID_4539_);stroke:#000000;stroke-linecap:round;stroke-linejoin:round;" d="M325,189.5c0,0,16.641,12.209,42.5,4c31.5-10,24.28-57.384,24.28-57.384s-10.213,29.998-34.336,28.813c-29.049-1.427-41.897-24.681-41.897-24.681"></path><g><linearGradient id="hair1XMLID_4540_" gradientUnits="userSpaceOnUse" x1="302.9961" y1="121.5" x2="302.9961" y2="321.0004"><stop offset="0" style="stop-color:#FCFCE4"></stop><stop offset="0.5" style="stop-color:#A0C8DD"></stop><stop offset="1" style="stop-color:#5D6EC5"></stop></linearGradient><path style="fill:url(#hair1XMLID_4540_);stroke:#000000;stroke-linecap:round;stroke-linejoin:round;" d="M309.793,203.331c-4.763-14.709-9.483-41.329-16.92-53.015c-15.261-23.983-36.165-27.124-36.165-27.124c-3.287,2.74-8.766,9.315-8.766,9.315s0.547-6.85,3.834-11.781c4.658-6.576,12.877-9.59,18.632-10.412c5.753-0.822,36.714,12.876,47.124,27.945c10.411,15.07,22.738,47.399,31.233,57.81c8.493,10.411,19.451,44.933-9.588,61.097c6.849-9.041,8.218-29.041,8.218-29.041s-12.943,48.563-48.493,47.398c2.466-3.288,7.122-9.59,7.122-9.59s-8.766,0.274-14.52-4.657C322.738,244.427,309.793,203.331,309.793,203.331z"></path><linearGradient id="hair1XMLID_4541_" gradientUnits="userSpaceOnUse" x1="330.752" y1="121.5" x2="330.752" y2="321"><stop offset="0" style="stop-color:#FCFCE4"></stop><stop offset="0.5" style="stop-color:#A0C8DD"></stop><stop offset="1" style="stop-color:#5D6EC5"></stop></linearGradient><path style="fill:url(#hair1XMLID_4541_);stroke:#000000;stroke-linecap:round;stroke-linejoin:round;" d="M323.766,265.182c0,0-0.616,4.52-0.616,5.548c4.521-2.055,13.356-8.22,15.206-27.946"></path><linearGradient id="hair1XMLID_4542_" gradientUnits="userSpaceOnUse" x1="313.0693" y1="121.5" x2="313.0693" y2="320.9999"><stop offset="0" style="stop-color:#FCFCE4"></stop><stop offset="0.5" style="stop-color:#A0C8DD"></stop><stop offset="1" style="stop-color:#5D6EC5"></stop></linearGradient><path style="fill:url(#hair1XMLID_4542_);stroke:#000000;stroke-linecap:round;stroke-linejoin:round;" d="M309.873,202.098c0,0,7.127,32.652-12.234,46.028c5.138,2.056,21.111,6.374,30.861-9.626"></path><linearGradient id="hair1XMLID_4543_" gradientUnits="userSpaceOnUse" x1="362.0889" y1="121.5" x2="362.0889" y2="320.9999"><stop offset="0" style="stop-color:#FCFCE4"></stop><stop offset="0.5" style="stop-color:#A0C8DD"></stop><stop offset="1" style="stop-color:#5D6EC5"></stop></linearGradient><path style="fill:url(#hair1XMLID_4543_);stroke:#000000;stroke-linecap:round;stroke-linejoin:round;" d="M337.739,201.071c0,0,11.302,17.877,48.699,10.685c-11.918-1.85-34.727-3.288-43.974-25.686"></path></g></g><g><g><path style="fill:#FFF0DE;" d="M171.607,180.757c0,0,5.335-10.679,7.472-11.21c2.136-0.534-0.744,17.4-3.738,16.547C172.54,185.294,170.539,183.293,171.607,180.757z"></path><path style="fill:#FFF0DE;" d="M180.677,185.023c0,0,0.411-6.983,2.67-8.538c2.259-1.557,1.602,10.673,0,10.673C181.745,187.159,180.677,187.694,180.677,185.023z"></path><path style="fill:#FFF0DE;" d="M322.48,180.753c0,0-5.337-10.675-7.472-11.207c-2.134-0.534,0.743,17.4,3.734,16.547C321.546,185.293,323.548,183.293,322.48,180.753z"></path><path style="fill:#FFF0DE;" d="M315.082,185.024c0,0-0.411-6.984-2.672-8.541c-2.26-1.555-1.6,10.676,0,10.676C314.014,187.159,315.082,187.694,315.082,185.024z"></path><path style="fill:#FFF0DE;" d="M244.782,189.498c0,0,0-10.41,2.403-13.211c2.4-2.802,5.523,13.451,2.804,14.811C247.585,192.301,244.782,192.301,244.782,189.498z"></path><path style="fill:#FFF0DE;" d="M254.259,190.498c-1.606-2.003,0-9.208,0.799-10.41c0.801-1.201,4.002,9.207,2.402,11.208C255.396,193.876,255.858,192.498,254.259,190.498z"></path></g></g></g></g></svg>