<svg xmlns="http://www.w3.org/2000/svg" width="500" height="500" version="1.1"><g id="x9261"><g><g><linearGradient id="hair1XMLID_4578_" gradientUnits="userSpaceOnUse" x1="208.6812" y1="167" x2="208.6812" y2="303.6667"><stop offset="0" style="stop-color:#FCFCE4"></stop><stop offset="0.5" style="stop-color:#A0C8DD"></stop><stop offset="1" style="stop-color:#5D6EC5"></stop></linearGradient><path style="fill:url(#hair1XMLID_4578_);stroke:#000000;stroke-linecap:round;stroke-linejoin:round;" d="M250.859,115.891c-0.16,0.019-0.317,0.034-0.478,0.054c-0.16-0.02-0.317-0.035-0.478-0.054c-20.014-4.035-45.017,2.348-62.258,19.991c-13.061,13.365-22.283,30.165-22.283,51.08c0,32.694,14.267,47.104,14.827,48.325c0,0-5.229-21.928,5.742-24.67c4.113-0.686,9.78-33.574,16.455-44.566c1.829-2.195,24.358-4.665,47.994-4.677c0.541,0,1.08,0.003,1.619,0.006v-45.698C251.619,115.75,251.236,115.815,250.859,115.891z"></path><path style="fill:#3F3C3F;stroke:#000000;stroke-linecap:round;stroke-linejoin:round;" d="M335.398,186.962c0-20.915-9.223-37.714-22.283-51.08c-16.916-17.31-41.3-23.774-61.115-20.201v45.698c23.033,0.12,44.587,2.526,46.374,4.671c6.674,10.992,12.342,43.88,16.455,44.566c10.971,2.742,6.645,25.272,6.645,25.272C322.034,234.667,335.398,216.65,335.398,186.962z"></path></g><g><g><linearGradient id="hair1XMLID_4579_" gradientUnits="userSpaceOnUse" x1="224.3325" y1="166.2051" x2="224.3325" y2="300.7453"><stop offset="0" style="stop-color:#FCFCE4"></stop><stop offset="0.5" style="stop-color:#A0C8DD"></stop><stop offset="1" style="stop-color:#5D6EC5"></stop></linearGradient><path style="fill:url(#hair1XMLID_4579_);stroke:#000000;stroke-linecap:round;stroke-linejoin:round;" d="M197.097,151.403c-16.129,26.303-12.839,43.121-6.897,69.93C229.482,187.333,263.351,145,263.351,145l-11.384-7l10.889-11c0,0-5.66-7.218-10.254-11.109"></path><path style="fill:#3F3C3F;stroke:#000000;stroke-linecap:round;stroke-linejoin:round;" d="M302.903,151.403c16.129,26.303,12.839,43.121,6.897,69.93C270.518,187.333,236.649,145,236.649,145l11.384-7l-10.889-11c0,0,5.66-7.218,10.254-11.109l7.269-0.558"></path></g><g><g><g><path style="fill:none;stroke:#000000;stroke-linecap:round;stroke-linejoin:round;" d="M197.118,200.43c-2.03,4.94-3.816,10.134-5.27,15.57"></path></g><linearGradient id="hair1XMLID_4580_" gradientUnits="userSpaceOnUse" x1="185.6016" y1="167" x2="185.6016" y2="303.6667"><stop offset="0" style="stop-color:#FCFCE4"></stop><stop offset="0.5" style="stop-color:#A0C8DD"></stop><stop offset="1" style="stop-color:#5D6EC5"></stop></linearGradient><path style="fill:url(#hair1XMLID_4580_);stroke:#000000;stroke-linecap:round;stroke-linejoin:round;" d="M210.656,138.5c0,0-38.111,58.5-8.909,118.5c-2.937,0.35-5.747,0.401-8.476,0.263c-1.583-3.482-4.393-10.171-4.393-13.763c-1,5.389-0.652,10.541-0.32,13.337c-5.187-0.669-10.134-1.898-15.127-3.01c-1.136-5.323-5.216-20.437-5.587-31.478c-0.675,17.392-0.305,23.379,0.903,30.373c-2.867-0.715-18.969-47.223,3.798-95.723"></path></g><g><g><path style="fill:none;stroke:#000000;stroke-linecap:round;stroke-linejoin:round;" d="M302.882,200.43c2.03,4.94,3.816,10.134,5.27,15.57"></path><path style="fill:none;stroke:#000000;stroke-linecap:round;stroke-linejoin:round;" d="M253.212,138.5c0,0,3.71,2.632,9.27,7.657"></path></g><path style="fill:#3F3C3F;stroke:#000000;stroke-linecap:round;stroke-linejoin:round;" d="M289.344,138.5c0,0,38.111,58.5,8.909,118.5c2.937,0.35,5.747,0.401,8.476,0.263c1.584-3.482,4.393-10.171,4.393-13.763c1.001,5.389,0.652,10.541,0.32,13.337c5.187-0.669,10.134-1.898,15.127-3.01c1.136-5.323,5.216-20.437,5.587-31.478c0.675,17.392,0.305,23.379-0.902,30.373c2.867-0.715,18.97-47.223-3.798-95.723"></path></g></g></g><g><g><path style="fill:#FFF0DE;" d="M171.987,180.757c0,0,5.335-10.679,7.472-11.21c2.136-0.534-0.744,17.4-3.738,16.547C172.92,185.294,170.919,183.293,171.987,180.757z"></path><path style="fill:#FFF0DE;" d="M181.058,185.023c0,0,0.411-6.983,2.67-8.538c2.259-1.557,1.602,10.673,0,10.673C182.125,187.159,181.058,187.694,181.058,185.023z"></path><path style="fill:#FFF0DE;" d="M322.861,180.753c0,0-5.337-10.675-7.472-11.207c-2.134-0.534,0.743,17.4,3.734,16.547C321.927,185.293,323.929,183.293,322.861,180.753z"></path><path style="fill:#FFF0DE;" d="M315.463,185.024c0,0-0.411-6.984-2.672-8.541c-2.26-1.555-1.6,10.676,0,10.676C314.395,187.159,315.463,187.694,315.463,185.024z"></path></g></g></g></g></svg>