<svg xmlns="http://www.w3.org/2000/svg" width="500" height="500" version="1.1"><g id="x026"><g><linearGradient id="hair1XMLID_2614_" gradientUnits="userSpaceOnUse" x1="250.0005" y1="231" x2="250.0005" y2="156.3335"><stop offset="0" style="stop-color:#FCFCE4"></stop><stop offset="0.5" style="stop-color:#A0C8DD"></stop><stop offset="1" style="stop-color:#5D6EC5"></stop></linearGradient><path style="fill:url(#hair1XMLID_2614_);stroke:#1E1E1E;stroke-linecap:round;stroke-linejoin:round;" d="M311.484,135.882c-17.021-17.418-41.603-23.852-61.484-20.131c-19.882-3.721-44.464,2.713-61.484,20.131c-13.061,13.365-22.283,30.165-22.283,51.08c0,24.372,15.268,44.372,25.934,48.538c-7.33-33.49-0.484-59.331,5.084-68.5c1.798-2.157,29.369-5.491,52.75-5.619c23.381,0.128,50.952,3.462,52.75,5.619c5.568,9.169,12.414,35.01,5.084,68.5c10.666-4.167,25.934-24.167,25.934-48.538C333.768,166.047,324.545,149.248,311.484,135.882z"></path><g><linearGradient id="hair1XMLID_2615_" gradientUnits="userSpaceOnUse" x1="312.1406" y1="231" x2="312.1406" y2="156.3335"><stop offset="0" style="stop-color:#FCFCE4"></stop><stop offset="0.5" style="stop-color:#A0C8DD"></stop><stop offset="1" style="stop-color:#5D6EC5"></stop></linearGradient><path style="fill:url(#hair1XMLID_2615_);stroke:#1E1E1E;stroke-linecap:round;stroke-linejoin:round;" d="M294.667,166.333c0,0,16.778,41.716,6.729,59.136c7.369-2.681,12.729-15.41,13.399-21.44c0,0,0,24.121-10.72,32.16c12.729-0.67,37.52-30.15,18.76-75.04"></path><linearGradient id="hair1XMLID_2616_" gradientUnits="userSpaceOnUse" x1="285.0684" y1="231" x2="285.0684" y2="156.3336"><stop offset="0" style="stop-color:#FCFCE4"></stop><stop offset="0.5" style="stop-color:#A0C8DD"></stop><stop offset="1" style="stop-color:#5D6EC5"></stop></linearGradient><path style="fill:url(#hair1XMLID_2616_);stroke:#1E1E1E;stroke-linecap:round;stroke-linejoin:round;" d="M264,160.667c0,0,32.244,28.622,39.614,43.362c3.351-2.68,5.36-28.81-7.37-42.879"></path><linearGradient id="hair1XMLID_2617_" gradientUnits="userSpaceOnUse" x1="255.7197" y1="231" x2="255.7197" y2="156.3334"><stop offset="0" style="stop-color:#FCFCE4"></stop><stop offset="0.5" style="stop-color:#A0C8DD"></stop><stop offset="1" style="stop-color:#5D6EC5"></stop></linearGradient><path style="fill:url(#hair1XMLID_2617_);stroke:#1E1E1E;stroke-linecap:round;stroke-linejoin:round;" d="M234.604,158.47c0,0,12.73,32.16,42.211,28.809c0.67-6.029-14.07-32.829-14.07-32.829"></path><linearGradient id="hair1XMLID_2618_" gradientUnits="userSpaceOnUse" x1="186.6597" y1="231" x2="186.6597" y2="156.3335"><stop offset="0" style="stop-color:#FCFCE4"></stop><stop offset="0.5" style="stop-color:#A0C8DD"></stop><stop offset="1" style="stop-color:#5D6EC5"></stop></linearGradient><path style="fill:url(#hair1XMLID_2618_);stroke:#1E1E1E;stroke-linecap:round;stroke-linejoin:round;" d="M203.114,170.529c0,0-14.74,37.521-4.69,54.94c-7.37-2.681-12.73-15.41-13.4-21.44c0,0,0,24.121,10.721,32.16c-12.73-0.67-37.521-30.15-18.761-75.04"></path><linearGradient id="hair1XMLID_2619_" gradientUnits="userSpaceOnUse" x1="206.2891" y1="231" x2="206.2891" y2="156.3337"><stop offset="0" style="stop-color:#FCFCE4"></stop><stop offset="0.5" style="stop-color:#A0C8DD"></stop><stop offset="1" style="stop-color:#5D6EC5"></stop></linearGradient><path style="fill:url(#hair1XMLID_2619_);stroke:#1E1E1E;stroke-linecap:round;stroke-linejoin:round;" d="M219.193,155.79c0,0,1.341,34.84-23.449,44.89c-6.03-20.77,1.34-38.86,1.34-38.86"></path><linearGradient id="hair1XMLID_2620_" gradientUnits="userSpaceOnUse" x1="229.5039" y1="231" x2="229.5039" y2="156.3335"><stop offset="0" style="stop-color:#FCFCE4"></stop><stop offset="0.5" style="stop-color:#A0C8DD"></stop><stop offset="1" style="stop-color:#5D6EC5"></stop></linearGradient><path style="fill:url(#hair1XMLID_2620_);stroke:#1E1E1E;stroke-linecap:round;stroke-linejoin:round;" d="M217.184,151.1c-0.67,2.01,0,30.82,22.11,42.209c2.01,0.67,2.68-1.34,2.68-1.34s-3.35-21.44-1.34-34.17"></path></g></g><g><g><path style="fill:#FFF0DE;" d="M174.756,181.536c0,0,5.852-11.712,8.195-12.295c2.342-0.585-0.816,19.084-4.1,18.149C175.779,186.513,173.584,184.318,174.756,181.536z"></path><path style="fill:#FFF0DE;" d="M182.869,186.217c0,0,0.45-7.659,2.929-9.365c2.478-1.707,1.757,11.708,0,11.708C184.041,188.56,182.869,189.145,182.869,186.217z"></path><path style="fill:#FFF0DE;" d="M322.994,181.536c0,0-5.853-11.712-8.195-12.295c-2.343-0.585,0.816,19.084,4.1,18.149C321.971,186.513,324.165,184.318,322.994,181.536z"></path><path style="fill:#FFF0DE;" d="M314.881,186.217c0,0-0.451-7.659-2.93-9.365c-2.478-1.707-1.756,11.708,0,11.708C313.709,188.56,314.881,189.145,314.881,186.217z"></path></g></g></g></svg>