<svg xmlns="http://www.w3.org/2000/svg" width="500" height="500" version="1.1"><g id="x9263"><g><linearGradient id="hair1XMLID_4585_" gradientUnits="userSpaceOnUse" x1="250.0513" y1="117.334" x2="250.0513" y2="242.6669"><stop offset="0" style="stop-color:#FCFCE4"></stop><stop offset="0.5" style="stop-color:#A0C8DD"></stop><stop offset="1" style="stop-color:#5D6EC5"></stop></linearGradient><path style="fill:url(#hair1XMLID_4585_);stroke:#000000;stroke-linecap:round;stroke-linejoin:round;" d="M334.52,181.962c-1.02-14.462-10.725-32.714-23.785-46.08c-16.916-17.31-39.3-23.774-59.115-20.201c-0.381,0.069-0.764,0.134-1.141,0.21c-0.16,0.019-0.317,0.034-0.478,0.054c-0.16-0.02-0.317-0.035-0.478-0.054C229.51,111.856,207,115,189.266,135.882C176,149,166,168.5,165.583,182.962c0,32.694,13.666,51.104,14.227,52.325c0,0-5.229-21.928,5.742-24.67c4.113-0.686,9.78-33.574,16.455-44.566c1.829-2.195,24.358-4.665,47.994-4.677c0.54,0,1.079,0.003,1.618,0.006c23.033,0.12,44.587,2.526,46.374,4.671c6.674,10.992,12.342,43.88,16.455,44.566c10.971,2.742,3.645,25.272,3.645,25.272C318.653,234.667,334.52,211.65,334.52,181.962z"></path><g><g><linearGradient id="hair1XMLID_4586_" gradientUnits="userSpaceOnUse" x1="207.4995" y1="117.334" x2="207.4995" y2="242.6666"><stop offset="0" style="stop-color:#FCFCE4"></stop><stop offset="0.5" style="stop-color:#A0C8DD"></stop><stop offset="1" style="stop-color:#5D6EC5"></stop></linearGradient><path style="fill:url(#hair1XMLID_4586_);stroke:#000000;stroke-linecap:round;stroke-linejoin:round;" d="M182.667,208c0,0-0.333,14.667,8.667,33C197.667,216.333,227,182.667,227,182.667l5.333-27.333"></path><linearGradient id="hair1XMLID_4587_" gradientUnits="userSpaceOnUse" x1="182.0195" y1="117.334" x2="182.0195" y2="242.667"><stop offset="0" style="stop-color:#FCFCE4"></stop><stop offset="0.5" style="stop-color:#A0C8DD"></stop><stop offset="1" style="stop-color:#5D6EC5"></stop></linearGradient><path style="fill:url(#hair1XMLID_4587_);stroke:#000000;stroke-linecap:round;stroke-linejoin:round;" d="M165.529,179.667c0,0-1.529,23.833,4.487,46c5.667,21.667,22.62,35.333,28.667,49.333c-4.334-23.667-6.62-32.667-8.954-59.333"></path></g><linearGradient id="hair1XMLID_4588_" gradientUnits="userSpaceOnUse" x1="244.3335" y1="117.334" x2="244.3335" y2="242.6672"><stop offset="0" style="stop-color:#FCFCE4"></stop><stop offset="0.5" style="stop-color:#A0C8DD"></stop><stop offset="1" style="stop-color:#5D6EC5"></stop></linearGradient><polygon style="fill:url(#hair1XMLID_4588_);" points="309,182.25 218.667,187.667 196.333,212.667 179.667,204 187.333,154.667 308,151 "></polygon><linearGradient id="hair1XMLID_4589_" gradientUnits="userSpaceOnUse" x1="276.5205" y1="117.334" x2="276.5205" y2="242.6671"><stop offset="0" style="stop-color:#FCFCE4"></stop><stop offset="0.5" style="stop-color:#A0C8DD"></stop><stop offset="1" style="stop-color:#5D6EC5"></stop></linearGradient><path style="fill:url(#hair1XMLID_4589_);stroke:#000000;stroke-linecap:round;stroke-linejoin:round;" d="M219.333,169.667c-2,17.333-4.75,55.166,37.917,71.833C275,215.5,270,183,270,183s30.334,34.667,36.667,59.667c0.206-0.28-2.791,18.358-5.351,32.333c6.047-14,23-27.667,28.667-49.333c6.017-23.167,4.487-46,4.487-46"></path><path style="fill:none;stroke:#000000;stroke-linecap:round;stroke-linejoin:round;" d="M222,157c0,0,5.334-16.667,18.667-26"></path><path style="fill:none;stroke:#000000;stroke-linecap:round;stroke-linejoin:round;" d="M306.799,242.5c0,0,2.25-13,1.25-39"></path><path style="fill:none;stroke:#000000;stroke-linecap:round;stroke-linejoin:round;" d="M264,174c0,0,3,43.5-7.5,64.5"></path><linearGradient id="hair1XMLID_4590_" gradientUnits="userSpaceOnUse" x1="251.9834" y1="117.334" x2="251.9834" y2="242.6671"><stop offset="0" style="stop-color:#FCFCE4"></stop><stop offset="0.5" style="stop-color:#A0C8DD"></stop><stop offset="1" style="stop-color:#5D6EC5"></stop></linearGradient><path style="fill:url(#hair1XMLID_4590_);stroke:#000000;stroke-linecap:round;stroke-linejoin:round;" d="M247.233,227.333c0,0,8.934,11.833,20.934,17.5c-13.667-0.833-29.034-12.167-32.368-16.5"></path><path style="fill:none;stroke:#000000;stroke-linecap:round;stroke-linejoin:round;" d="M271.333,159.667c0,0,26.001,20.333,30.334,58"></path></g><g><g><path style="fill:#FFF0DE;" d="M171.607,180.757c0,0,5.335-10.679,7.472-11.21c2.136-0.534-0.744,17.4-3.738,16.547C172.54,185.294,170.539,183.293,171.607,180.757z"></path><path style="fill:#FFF0DE;" d="M180.677,185.023c0,0,0.411-6.983,2.67-8.538c2.259-1.557,1.602,10.673,0,10.673C181.745,187.159,180.677,187.694,180.677,185.023z"></path><path style="fill:#FFF0DE;" d="M329.813,180.753c0,0-5.337-10.675-7.472-11.207c-2.134-0.534,0.743,17.4,3.734,16.547C328.879,185.293,330.881,183.293,329.813,180.753z"></path><path style="fill:#FFF0DE;" d="M322.415,185.024c0,0-0.411-6.984-2.672-8.541c-2.26-1.555-1.6,10.676,0,10.676C321.347,187.159,322.415,187.694,322.415,185.024z"></path><path style="fill:#FFF0DE;" d="M244.782,189.498c0,0,0-10.41,2.403-13.211c2.4-2.802,5.523,13.451,2.804,14.811C247.585,192.301,244.782,192.301,244.782,189.498z"></path><path style="fill:#FFF0DE;" d="M254.259,190.498c-1.606-2.003,0-9.208,0.799-10.41c0.801-1.201,4.002,9.207,2.402,11.208C255.396,193.876,255.858,192.498,254.259,190.498z"></path></g></g></g></g></svg>