<svg xmlns="http://www.w3.org/2000/svg" width="500" height="500" version="1.1"><g id="x9266"><g><linearGradient id="hair1XMLID_4608_" gradientUnits="userSpaceOnUse" x1="250.0513" y1="171.1563" x2="250.0513" y2="219.5516"><stop offset="0" style="stop-color:#FCFCE4"></stop><stop offset="0.5" style="stop-color:#A0C8DD"></stop><stop offset="1" style="stop-color:#5D6EC5"></stop></linearGradient><path style="fill:url(#hair1XMLID_4608_);stroke:#000000;stroke-linecap:round;stroke-linejoin:round;" d="M334.52,181.962c-1.02-14.462-10.725-32.714-23.785-46.08c-16.916-17.31-46.021-19.991-61.211-19.991c-15.19,0-42.523-0.891-60.258,19.991C176,149,166,168.5,165.583,182.962c0,32.694,14.666,51.104,15.227,52.325c0,0-6.229-21.928,4.742-24.67c4.113-0.686,9.78-33.574,16.455-44.566c1.829-2.195,24.358-4.665,47.994-4.677c0.54,0,1.079,0.003,1.618,0.006c23.033,0.12,44.587,2.526,46.374,4.671c6.674,10.992,10.894,52.597,15.007,53.283c10.971,2.742,1.667,17.667,1.667,17.667C315.228,235.779,334.52,211.65,334.52,181.962z"></path><g><linearGradient id="hair1XMLID_4609_" gradientUnits="userSpaceOnUse" x1="311.667" y1="170.3335" x2="311.667" y2="219.3333"><stop offset="0" style="stop-color:#FCFCE4"></stop><stop offset="0.5" style="stop-color:#A0C8DD"></stop><stop offset="1" style="stop-color:#5D6EC5"></stop></linearGradient><path style="fill:url(#hair1XMLID_4609_);stroke:#000000;stroke-linecap:round;stroke-linejoin:round;" d="M312.667,205.333c0,0-1.999,34.333-15.333,47.667c16-6.333,24.332-20,28.666-35.333"></path><linearGradient id="hair1XMLID_4610_" gradientUnits="userSpaceOnUse" x1="299.7559" y1="170.3335" x2="299.7559" y2="219.3335"><stop offset="0" style="stop-color:#FCFCE4"></stop><stop offset="0.5" style="stop-color:#A0C8DD"></stop><stop offset="1" style="stop-color:#5D6EC5"></stop></linearGradient><path style="fill:url(#hair1XMLID_4610_);stroke:#000000;stroke-linecap:round;stroke-linejoin:round;" d="M285.334,158.667c0,0,20.999,34.333,22.999,72.667C316,215.667,315.666,189,310,170.667"></path><linearGradient id="hair1XMLID_4611_" gradientUnits="userSpaceOnUse" x1="186.7305" y1="170.3335" x2="186.7305" y2="219.3335"><stop offset="0" style="stop-color:#FCFCE4"></stop><stop offset="0.5" style="stop-color:#A0C8DD"></stop><stop offset="1" style="stop-color:#5D6EC5"></stop></linearGradient><path style="fill:url(#hair1XMLID_4611_);stroke:#000000;stroke-linecap:round;stroke-linejoin:round;" d="M197.667,194.667c0,0-8.667,31.333,0.667,61c-13.333-11.667-26-24.667-22.667-60"></path><linearGradient id="hair1XMLID_4612_" gradientUnits="userSpaceOnUse" x1="237.0347" y1="171.2773" x2="237.0347" y2="224.7521"><stop offset="0" style="stop-color:#FCFCE4"></stop><stop offset="0.5" style="stop-color:#A0C8DD"></stop><stop offset="1" style="stop-color:#5D6EC5"></stop></linearGradient><path style="fill:url(#hair1XMLID_4612_);stroke:#000000;stroke-linecap:round;stroke-linejoin:round;" d="M287,161c0,0-8.75,42-40.25,56.5c10.5-11.5,13.583-20.5,13.583-20.5S249,217,220.667,227.333c11.667-15.333,21.333-31,21.333-31s-13.667,23.667-39,33c12.667-17.667,20.667-33,20.667-33S205.333,212.667,194,239.667c-3.333-10-16.667-38.667,6-79.667"></path></g><g><g><path style="fill:#FFF0DE;" d="M171.607,180.757c0,0,5.335-10.679,7.472-11.21c2.136-0.534-0.744,17.4-3.738,16.547C172.54,185.294,170.539,183.293,171.607,180.757z"></path><path style="fill:#FFF0DE;" d="M180.677,185.023c0,0,0.411-6.983,2.67-8.538c2.259-1.557,1.602,10.673,0,10.673C181.745,187.159,180.677,187.694,180.677,185.023z"></path><path style="fill:#FFF0DE;" d="M329.813,180.753c0,0-5.337-10.675-7.472-11.207c-2.134-0.534,0.743,17.4,3.734,16.547C328.879,185.293,330.881,183.293,329.813,180.753z"></path><path style="fill:#FFF0DE;" d="M322.415,185.024c0,0-0.411-6.984-2.672-8.541c-2.26-1.555-1.6,10.676,0,10.676C321.347,187.159,322.415,187.694,322.415,185.024z"></path><path style="fill:#FFF0DE;" d="M244.782,189.498c0,0,0-10.41,2.403-13.211c2.4-2.802,5.523,13.451,2.804,14.811C247.585,192.301,244.782,192.301,244.782,189.498z"></path><path style="fill:#FFF0DE;" d="M254.259,190.498c-1.606-2.003,0-9.208,0.799-10.41c0.801-1.201,4.002,9.207,2.402,11.208C255.396,193.876,255.858,192.498,254.259,190.498z"></path></g></g></g></g></svg>