<svg xmlns="http://www.w3.org/2000/svg" width="500" height="500" version="1.1"><g id="x9268"><g><g><linearGradient id="hair1XMLID_4617_" gradientUnits="userSpaceOnUse" x1="250.0513" y1="235.6665" x2="250.0513" y2="164.3335"><stop offset="0" style="stop-color:#FCFCE4"></stop><stop offset="0.5" style="stop-color:#A0C8DD"></stop><stop offset="1" style="stop-color:#5D6EC5"></stop></linearGradient><path style="fill:url(#hair1XMLID_4617_);stroke:#000000;stroke-linecap:round;stroke-linejoin:round;" d="M334.52,181.962c-1.02-14.462-10.725-32.714-23.785-46.08c-16.916-17.31-39.3-23.774-59.115-20.201c-0.381,0.069-0.764,0.134-1.141,0.21c-0.16,0.019-0.317,0.034-0.478,0.054c-0.16-0.02-0.317-0.035-0.478-0.054C229.51,111.856,207,115,189.266,135.882C176,149,166,168.5,165.583,182.962c0,32.694,13.666,51.104,14.227,52.325c0,0-5.229-21.928,5.742-24.67c4.113-0.686,9.78-33.574,16.455-44.566c1.829-2.195,24.358-4.665,47.994-4.677c0.54,0,1.079,0.003,1.618,0.006c23.033,0.12,44.587,2.526,46.374,4.671c6.674,10.992,10.894,52.597,15.007,53.283c10.971,2.742,5.093,16.555,5.093,16.555C318.653,234.667,334.52,211.65,334.52,181.962z"></path></g><g><linearGradient id="hair1XMLID_4618_" gradientUnits="userSpaceOnUse" x1="178.5005" y1="235.666" x2="178.5005" y2="164.333"><stop offset="0" style="stop-color:#FCFCE4"></stop><stop offset="0.5" style="stop-color:#A0C8DD"></stop><stop offset="1" style="stop-color:#5D6EC5"></stop></linearGradient><path style="fill:url(#hair1XMLID_4618_);stroke:#000000;stroke-linecap:round;stroke-linejoin:round;" d="M177.167,235.666c0,0-6,15.334-12,19.334c12.667,0,22.667-7.334,26.667-15.334"></path><linearGradient id="hair1XMLID_4619_" gradientUnits="userSpaceOnUse" x1="321.5" y1="235.666" x2="321.5" y2="164.333"><stop offset="0" style="stop-color:#FCFCE4"></stop><stop offset="0.5" style="stop-color:#A0C8DD"></stop><stop offset="1" style="stop-color:#5D6EC5"></stop></linearGradient><path style="fill:url(#hair1XMLID_4619_);stroke:#000000;stroke-linecap:round;stroke-linejoin:round;" d="M322.833,235.666c0,0,6,15.334,12,19.334c-12.666,0-22.666-7.334-26.666-15.334"></path><g><g><linearGradient id="hair1XMLID_4620_" gradientUnits="userSpaceOnUse" x1="177.8335" y1="235.6665" x2="177.8335" y2="164.3335"><stop offset="0" style="stop-color:#FCFCE4"></stop><stop offset="0.5" style="stop-color:#A0C8DD"></stop><stop offset="1" style="stop-color:#5D6EC5"></stop></linearGradient><path style="fill:url(#hair1XMLID_4620_);stroke:#000000;stroke-linecap:round;stroke-linejoin:round;" d="M217,181c-5.333,20.667-26.5,44.666-26.5,44.666l-2.667-5.333c0,0-6.666,20.666-25.333,25.333c3.333-8,3.333-14.667,3.333-14.667s-32-14.667-38.667-36.667c20-6,38-30,41.333-36.667c-5.333,0-10.667-2.667-10.667-2.667s36.667-36.667,70.667-40"></path><linearGradient id="hair1XMLID_4621_" gradientUnits="userSpaceOnUse" x1="190.6675" y1="235.6665" x2="190.6675" y2="164.3334"><stop offset="0" style="stop-color:#FCFCE4"></stop><stop offset="0.5" style="stop-color:#A0C8DD"></stop><stop offset="1" style="stop-color:#5D6EC5"></stop></linearGradient><path style="fill:url(#hair1XMLID_4621_);stroke:#000000;stroke-linecap:round;stroke-linejoin:round;" d="M190.001,212.666c0,0,0.666,28.667,22,47.334c-14,4-35.334-7.334-42.667-22"></path></g><g><linearGradient id="hair1XMLID_4622_" gradientUnits="userSpaceOnUse" x1="322.166" y1="235.6665" x2="322.166" y2="164.3335"><stop offset="0" style="stop-color:#FCFCE4"></stop><stop offset="0.5" style="stop-color:#A0C8DD"></stop><stop offset="1" style="stop-color:#5D6EC5"></stop></linearGradient><path style="fill:url(#hair1XMLID_4622_);stroke:#000000;stroke-linecap:round;stroke-linejoin:round;" d="M289.5,179c5.333,20.667,20,46.667,20,46.667l2.667-5.333c0,0,6.666,20.666,25.333,25.333c-3.333-8-3.333-14.667-3.333-14.667s32-14.667,38.666-36.667c-20-6-38-30-41.333-36.667c5.333,0,10.667-2.667,10.667-2.667s-36.668-36.667-70.667-40"></path><linearGradient id="hair1XMLID_4623_" gradientUnits="userSpaceOnUse" x1="255.332" y1="235.6665" x2="255.332" y2="164.3333"><stop offset="0" style="stop-color:#FCFCE4"></stop><stop offset="0.5" style="stop-color:#A0C8DD"></stop><stop offset="1" style="stop-color:#5D6EC5"></stop></linearGradient><polygon style="fill:url(#hair1XMLID_4623_);" points="295.666,157 305.666,196.333 219,183.666 205,151 "></polygon><linearGradient id="hair1XMLID_4624_" gradientUnits="userSpaceOnUse" x1="309.333" y1="235.6665" x2="309.333" y2="164.3334"><stop offset="0" style="stop-color:#FCFCE4"></stop><stop offset="0.5" style="stop-color:#A0C8DD"></stop><stop offset="1" style="stop-color:#5D6EC5"></stop></linearGradient><path style="fill:url(#hair1XMLID_4624_);stroke:#000000;stroke-linecap:round;stroke-linejoin:round;" d="M309.999,212.666c0,0-0.666,28.667-22,47.334c14,4,35.334-7.334,42.668-22"></path></g></g><linearGradient id="hair1XMLID_4625_" gradientUnits="userSpaceOnUse" x1="265.1367" y1="235.6665" x2="265.1367" y2="164.3335"><stop offset="0" style="stop-color:#FCFCE4"></stop><stop offset="0.5" style="stop-color:#A0C8DD"></stop><stop offset="1" style="stop-color:#5D6EC5"></stop></linearGradient><path style="fill:url(#hair1XMLID_4625_);stroke:#000000;stroke-linecap:round;stroke-linejoin:round;" d="M284.333,169c0,0,14,28.667,30.667,41.333c-28,2.667-54.667-10.667-54.667-10.667S261,217,268,233c-49.667-23.333-52.667-59-52.667-59S214,152.333,224,141"></path></g><g><g><path style="fill:#FFF0DE;" d="M171.607,180.757c0,0,5.335-10.679,7.472-11.21c2.136-0.534-0.744,17.4-3.738,16.547C172.54,185.294,170.539,183.293,171.607,180.757z"></path><path style="fill:#FFF0DE;" d="M180.677,185.023c0,0,0.411-6.983,2.67-8.538c2.259-1.557,1.602,10.673,0,10.673C181.745,187.159,180.677,187.694,180.677,185.023z"></path><path style="fill:#FFF0DE;" d="M329.813,180.753c0,0-5.337-10.675-7.472-11.207c-2.134-0.534,0.743,17.4,3.734,16.547C328.879,185.293,330.881,183.293,329.813,180.753z"></path><path style="fill:#FFF0DE;" d="M322.415,185.024c0,0-0.411-6.984-2.672-8.541c-2.26-1.555-1.6,10.676,0,10.676C321.347,187.159,322.415,187.694,322.415,185.024z"></path><path style="fill:#FFF0DE;" d="M244.782,184.165c0,0,0-10.41,2.403-13.211c2.4-2.802,5.523,13.451,2.804,14.811C247.585,186.967,244.782,186.967,244.782,184.165z"></path><path style="fill:#FFF0DE;" d="M254.259,185.165c-1.606-2.003,0-9.208,0.799-10.41c0.801-1.201,4.002,9.207,2.402,11.208C255.396,188.542,255.858,187.165,254.259,185.165z"></path></g></g><path style="fill:#F9D26A;stroke:#000000;stroke-linecap:round;stroke-linejoin:round;" d="M222.333,142.333c0,0,20.667,39.333,60.667,44C293.666,185,313,174.5,313,174.5S257.666,174.333,222.333,142.333z"></path></g></g></svg>