<svg xmlns="http://www.w3.org/2000/svg" width="500" height="500" version="1.1"><g id="x9272"><g><g><linearGradient id="hair1XMLID_4666_" gradientUnits="userSpaceOnUse" x1="165.583" y1="175.1309" x2="334.5195" y2="175.1309"><stop offset="0" style="stop-color:#FCFCE4"></stop><stop offset="0.5" style="stop-color:#A0C8DD"></stop><stop offset="1" style="stop-color:#5D6EC5"></stop></linearGradient><path style="fill:url(#hair1XMLID_4666_);stroke:#1E1E1E;stroke-linecap:round;stroke-linejoin:round;" d="M334.52,181.962c-1.02-14.462-10.725-32.714-23.785-46.08c-16.916-17.31-39.3-23.774-59.115-20.201c-0.381,0.069-0.764,0.134-1.141,0.21c-0.16,0.019-0.317,0.034-0.478,0.054c-0.16-0.02-0.317-0.035-0.478-0.054C229.51,111.856,207,115,189.266,135.882C176,149,166,168.5,165.583,182.962c0,32.694,13.666,51.104,14.227,52.325c0,0-5.229-21.928,5.742-24.67c4.113-0.686,9.78-33.574,16.455-44.566c1.829-2.195,24.358-4.665,47.994-4.677c0.54,0,1.079,0.003,1.618,0.006c23.033,0.12,44.587,2.526,46.374,4.671c6.674,10.992,10.894,52.597,15.007,53.283c10.971,2.742,5.093,16.555,5.093,16.555C318.653,234.667,334.52,211.65,334.52,181.962z"></path></g><g><linearGradient id="hair1XMLID_4667_" gradientUnits="userSpaceOnUse" x1="238.2183" y1="289" x2="238.2183" y2="119.3332"><stop offset="0" style="stop-color:#FCFCE4"></stop><stop offset="0.5" style="stop-color:#A0C8DD"></stop><stop offset="1" style="stop-color:#5D6EC5"></stop></linearGradient><path style="fill:url(#hair1XMLID_4667_);stroke:#1E1E1E;stroke-linecap:round;stroke-linejoin:round;" d="M326.5,163.338c-11-19.986-38.232-50.379-53.25-51.594c-11.5-0.929-24,6.74-24,6.74s-12.5-7.669-24-6.74c-15.018,1.214-42.25,31.607-53.25,51.594c-8.661,15.737-18.5,15.106-25.25,16.269c15.75,10.226,28.25-1.626,29-1.859l3.75,9.752l69.75-32.063l73.5,22.311C323.5,177.98,335.16,179.076,326.5,163.338z"></path><linearGradient id="hair1XMLID_4668_" gradientUnits="userSpaceOnUse" x1="313.8428" y1="289" x2="313.8428" y2="119.3336"><stop offset="0" style="stop-color:#FCFCE4"></stop><stop offset="0.5" style="stop-color:#A0C8DD"></stop><stop offset="1" style="stop-color:#5D6EC5"></stop></linearGradient><path style="fill:url(#hair1XMLID_4668_);stroke:#1E1E1E;stroke-linecap:round;stroke-linejoin:round;" d="M289.25,162.125l17,41.083c1.25,16.635,2.033,44.306-14.25,51.92c10.457,1.592,15-2.461,18.334-7.128l1.666,9.667c-0.5,0.756-3.667,18-18,30.333c23.75-3.75,41.262-35.383,44-66.344c3.5-39.571-15.25-64.825-15.25-64.825"></path><path style="fill:none;stroke:#000000;stroke-linecap:round;stroke-linejoin:round;" d="M325.532,248c0,0,13.334-17,11.334-54.667"></path><linearGradient id="hair1XMLID_4669_" gradientUnits="userSpaceOnUse" x1="304.8613" y1="289" x2="304.8613" y2="119.3335"><stop offset="0" style="stop-color:#FCFCE4"></stop><stop offset="0.5" style="stop-color:#A0C8DD"></stop><stop offset="1" style="stop-color:#5D6EC5"></stop></linearGradient><path style="fill:url(#hair1XMLID_4669_);stroke:#1E1E1E;stroke-linecap:round;stroke-linejoin:round;" d="M312.667,235c0,0-4.333,20.667-25.417,34.686c15.949,1.492,28.33-6.938,35.222-13.242"></path><linearGradient id="hair1XMLID_4670_" gradientUnits="userSpaceOnUse" x1="281.2266" y1="289" x2="281.2266" y2="119.3333"><stop offset="0" style="stop-color:#FCFCE4"></stop><stop offset="0.5" style="stop-color:#A0C8DD"></stop><stop offset="1" style="stop-color:#5D6EC5"></stop></linearGradient><path style="fill:url(#hair1XMLID_4670_);stroke:#1E1E1E;stroke-linecap:round;stroke-linejoin:round;" d="M256,155.647c0,0,12.703,31.882,50.453,48.935c-1-23.726-18.203-46.216-18.953-46.216"></path><linearGradient id="hair1XMLID_4671_" gradientUnits="userSpaceOnUse" x1="202.7651" y1="289" x2="202.7651" y2="119.3337"><stop offset="0" style="stop-color:#FCFCE4"></stop><stop offset="0.5" style="stop-color:#A0C8DD"></stop><stop offset="1" style="stop-color:#5D6EC5"></stop></linearGradient><path style="fill:url(#hair1XMLID_4671_);stroke:#1E1E1E;stroke-linecap:round;stroke-linejoin:round;" d="M224,165.309c0,0-29.75,31.624-29.25,68.943c-4.5-1.73-12-12.616-12-12.616s-4.75-28.421,4.5-50.665"></path><linearGradient id="hair1XMLID_4672_" gradientUnits="userSpaceOnUse" x1="247.4395" y1="289" x2="247.4395" y2="119.3337"><stop offset="0" style="stop-color:#FCFCE4"></stop><stop offset="0.5" style="stop-color:#A0C8DD"></stop><stop offset="1" style="stop-color:#5D6EC5"></stop></linearGradient><path style="fill:url(#hair1XMLID_4672_);stroke:#1E1E1E;stroke-linecap:round;stroke-linejoin:round;" d="M222.986,144.501c0,0-7.213,47.918,12.406,69.88c0.866-9.697,3.174-24.244,3.174-24.244s8.367,27.952,29.429,40.217c-2.309-14.833-5.771-32.802-5.771-32.802s5.193,7.416,10.964,11.694c-6.636-18.254-10.099-60.752-10.099-60.752"></path><linearGradient id="hair1XMLID_4673_" gradientUnits="userSpaceOnUse" x1="187.8813" y1="289" x2="187.8813" y2="119.3331"><stop offset="0" style="stop-color:#FCFCE4"></stop><stop offset="0.5" style="stop-color:#A0C8DD"></stop><stop offset="1" style="stop-color:#5D6EC5"></stop></linearGradient><path style="fill:url(#hair1XMLID_4673_);stroke:#1E1E1E;stroke-linecap:round;stroke-linejoin:round;" d="M191.505,227.67c0,0-3.204,31.776,16.705,48.129c-8.61-1.557-15.41-7.51-15.41-7.51s5.199,8.045,18.102,17.915c0,0-46.043-10.704-46.043-74.704c0-19.762,4.499-32.719,9.164-43.993"></path><linearGradient id="hair1XMLID_4674_" gradientUnits="userSpaceOnUse" x1="199.0708" y1="289" x2="199.0708" y2="119.3336"><stop offset="0" style="stop-color:#FCFCE4"></stop><stop offset="0.5" style="stop-color:#A0C8DD"></stop><stop offset="1" style="stop-color:#5D6EC5"></stop></linearGradient><path style="fill:url(#hair1XMLID_4674_);stroke:#1E1E1E;stroke-linecap:round;stroke-linejoin:round;" d="M187.431,266.139c0,0,7.368,9.834,23.28,10.82c-4.971-3.417-13.161-12.457-17.109-24.348"></path><linearGradient id="hair1XMLID_4675_" gradientUnits="userSpaceOnUse" x1="184.4966" y1="289" x2="184.4966" y2="119.3334"><stop offset="0" style="stop-color:#FCFCE4"></stop><stop offset="0.5" style="stop-color:#A0C8DD"></stop><stop offset="1" style="stop-color:#5D6EC5"></stop></linearGradient><path style="fill:url(#hair1XMLID_4675_);" d="M192,167.667c0,1.667-4,29.333-4,29.333s-11.333,0.333-11-2s3.667-31.333,3.667-31.333L192,167.667z"></path><linearGradient id="hair1XMLID_4676_" gradientUnits="userSpaceOnUse" x1="189.9854" y1="289" x2="189.9854" y2="119.3338"><stop offset="0" style="stop-color:#FCFCE4"></stop><stop offset="0.5" style="stop-color:#A0C8DD"></stop><stop offset="1" style="stop-color:#5D6EC5"></stop></linearGradient><path style="fill:url(#hair1XMLID_4676_);stroke:#1E1E1E;stroke-linecap:round;stroke-linejoin:round;" d="M192.5,217.928c0,0,1,24.468,15.25,37.072c-13.25-0.988-30.079-11.888-34.75-42.015c-1.865-12.027-0.166-23.056,2.801-32.278"></path></g><g><g><path style="fill:#FFF0DE;" d="M182.507,180.757c0,0,5.335-10.679,7.472-11.21c2.136-0.534-0.744,17.4-3.738,16.547C183.44,185.294,181.439,183.293,182.507,180.757z"></path><path style="fill:#FFF0DE;" d="M190.177,185.023c0,0,0.411-6.983,2.67-8.538c2.259-1.557,1.602,10.673,0,10.673C191.245,187.159,190.177,187.694,190.177,185.023z"></path><path style="fill:#FFF0DE;" d="M324.313,180.753c0,0-5.337-10.675-7.472-11.207c-2.134-0.534,0.743,17.4,3.734,16.547C323.379,185.293,325.381,183.293,324.313,180.753z"></path><path style="fill:#FFF0DE;" d="M316.915,185.024c0,0-0.411-6.984-2.672-8.541c-2.26-1.555-1.6,10.676,0,10.676C315.847,187.159,316.915,187.694,316.915,185.024z"></path><path style="fill:#FFF0DE;" d="M238.532,184.165c0,0,0-10.41,2.403-13.211c2.399-2.802,5.522,13.451,2.803,14.811C241.335,186.967,238.532,186.967,238.532,184.165z"></path><path style="fill:#FFF0DE;" d="M248.009,185.165c-1.606-2.003,0-9.208,0.799-10.41c0.801-1.201,4.002,9.207,2.402,11.208C249.146,188.542,249.608,187.165,248.009,185.165z"></path></g></g></g></g></svg>