<svg xmlns="http://www.w3.org/2000/svg" width="500" height="500" version="1.1"><g id="x9284"><g><linearGradient id="hair1XMLID_4815_" gradientUnits="userSpaceOnUse" x1="250.0005" y1="201.667" x2="250.0005" y2="176.3335"><stop offset="0" style="stop-color:#FCFCE4"></stop><stop offset="0.5" style="stop-color:#A0C8DD"></stop><stop offset="1" style="stop-color:#5D6EC5"></stop></linearGradient><path style="fill:url(#hair1XMLID_4815_);stroke:#000000;stroke-linecap:round;stroke-linejoin:round;" d="M334.684,186.962c0-20.915-9.223-37.714-22.283-51.08c-17.24-17.643-42.244-24.026-62.257-19.991c-0.048,0.006-0.096,0.011-0.143,0.016c-0.048-0.005-0.096-0.01-0.144-0.016c-20.014-4.035-45.017,2.348-62.258,19.991c-13.061,13.365-22.283,30.165-22.283,51.08c0,32.694,14.267,47.104,14.827,48.325c0,0-5.229-21.928,5.742-24.67c4.113-0.686,9.78-33.574,16.455-44.566c1.82-2.185,24.146-4.641,47.66-4.675c23.513,0.034,45.839,2.49,47.659,4.675c6.674,10.992,12.342,43.88,16.455,44.566c10.971,2.742,5.742,24.67,5.742,24.67C320.418,234.066,334.684,219.656,334.684,186.962z"></path><g><g><g><linearGradient id="hair1XMLID_4816_" gradientUnits="userSpaceOnUse" x1="187.9995" y1="272" x2="187.9995" y2="257.667"><stop offset="0" style="stop-color:#FCFCE4"></stop><stop offset="0.5" style="stop-color:#A0C8DD"></stop><stop offset="1" style="stop-color:#5D6EC5"></stop></linearGradient><path style="fill:url(#hair1XMLID_4816_);stroke:#000000;stroke-linecap:round;stroke-linejoin:round;" d="M182.984,146c0,0-35.16,52.905-5.001,102.667c20,33,6.597,43.833,6.597,43.833s18.689,1.333,20.07-21.5c2.147,3.667,3.402,13,2.482,17.334c3.852-2.667,5.227-19.131-2.482-29.667c-10-13.667-12.859-23.333-13.473-43.333"></path><linearGradient id="hair1XMLID_4817_" gradientUnits="userSpaceOnUse" x1="190.4844" y1="240" x2="190.4844" y2="225.3335"><stop offset="0" style="stop-color:#FCFCE4"></stop><stop offset="0.5" style="stop-color:#A0C8DD"></stop><stop offset="1" style="stop-color:#5D6EC5"></stop></linearGradient><path style="fill:url(#hair1XMLID_4817_);stroke:#000000;stroke-linecap:round;stroke-linejoin:round;" d="M175.287,226.333c4.333,21.667,19.192,29.071,19.192,29.071l5.782-4.337c0,0,2.53,2.168,5.42,1.084C184,238.419,194.62,198,194.62,198l-4-16.667"></path></g><g><linearGradient id="hair1XMLID_4818_" gradientUnits="userSpaceOnUse" x1="312" y1="272" x2="312" y2="257.667"><stop offset="0" style="stop-color:#FCFCE4"></stop><stop offset="0.5" style="stop-color:#A0C8DD"></stop><stop offset="1" style="stop-color:#5D6EC5"></stop></linearGradient><path style="fill:url(#hair1XMLID_4818_);stroke:#000000;stroke-linecap:round;stroke-linejoin:round;" d="M317.016,146c0,0,35.16,52.905,5.001,102.667c-20,33-6.596,43.833-6.596,43.833s-18.689,1.333-20.07-21.5c-2.147,3.667-3.402,13-2.482,17.334c-3.852-2.667-5.227-19.131,2.482-29.667c10-13.667,12.859-23.333,13.473-43.333"></path><linearGradient id="hair1XMLID_4819_" gradientUnits="userSpaceOnUse" x1="309.5156" y1="240" x2="309.5156" y2="225.3335"><stop offset="0" style="stop-color:#FCFCE4"></stop><stop offset="0.5" style="stop-color:#A0C8DD"></stop><stop offset="1" style="stop-color:#5D6EC5"></stop></linearGradient><path style="fill:url(#hair1XMLID_4819_);stroke:#000000;stroke-linecap:round;stroke-linejoin:round;" d="M324.713,226.333c-4.333,21.667-19.192,29.071-19.192,29.071l-5.781-4.337c0,0-2.53,2.168-5.421,1.084C316.001,238.419,305.38,198,305.38,198l4-16.667"></path></g></g><g><g><linearGradient id="hair1XMLID_4820_" gradientUnits="userSpaceOnUse" x1="203.9341" y1="201.667" x2="203.9341" y2="176.3335"><stop offset="0" style="stop-color:#FCFCE4"></stop><stop offset="0.5" style="stop-color:#A0C8DD"></stop><stop offset="1" style="stop-color:#5D6EC5"></stop></linearGradient><path style="fill:url(#hair1XMLID_4820_);stroke:#000000;stroke-linecap:round;stroke-linejoin:round;" d="M190.803,157.732c0,0-11.673,36.269,11.673,58.781c9.588-0.834,12.506-3.335,12.506-3.335s-1.251-3.335-1.667-7.504c0.833,2.502,3.334,5.003,6.252,6.67c-4.351-13.052-5.943-22.785,0.417-51.693"></path><linearGradient id="hair1XMLID_4821_" gradientUnits="userSpaceOnUse" x1="296.0645" y1="201.667" x2="296.0645" y2="176.3335"><stop offset="0" style="stop-color:#FCFCE4"></stop><stop offset="0.5" style="stop-color:#A0C8DD"></stop><stop offset="1" style="stop-color:#5D6EC5"></stop></linearGradient><path style="fill:url(#hair1XMLID_4821_);stroke:#000000;stroke-linecap:round;stroke-linejoin:round;" d="M309.197,157.732c0,0,11.673,36.27-11.672,58.781c-9.59-0.834-12.508-3.335-12.508-3.335s1.251-3.335,1.668-7.504c-0.833,2.502-3.335,5.003-6.253,6.67c4.351-13.052,5.941-22.785-0.418-51.693"></path></g><linearGradient id="hair1XMLID_4822_" gradientUnits="userSpaceOnUse" x1="250.0005" y1="201.667" x2="250.0005" y2="176.3335"><stop offset="0" style="stop-color:#FCFCE4"></stop><stop offset="0.5" style="stop-color:#A0C8DD"></stop><stop offset="1" style="stop-color:#5D6EC5"></stop></linearGradient><path style="fill:url(#hair1XMLID_4822_);stroke:#000000;stroke-linecap:round;stroke-linejoin:round;" d="M224.987,140.63c0,0-22.095,30.859,4.168,70.047c5.002,1.25,10.422,0.833,10.422,0.833s-3.751-8.754-3.751-12.924c2.084,5.003,6.67,12.924,6.67,12.924s3.335,1.667,7.504,1.667c4.17,0,7.503-1.667,7.503-1.667s4.587-7.921,6.672-12.924c0,4.169-3.753,12.924-3.753,12.924s5.42,0.417,10.423-0.833c26.263-39.188,4.168-70.047,4.168-70.047"></path></g></g><g><g><path style="fill:#FFF0DE;" d="M171.563,179.257c0,0,5.335-10.679,7.472-11.21c2.136-0.534-0.744,17.4-3.738,16.547C172.497,183.794,170.495,181.793,171.563,179.257z"></path><path style="fill:#FFF0DE;" d="M180.634,183.523c0,0,0.411-6.983,2.67-8.538c2.259-1.557,1.602,10.673,0,10.673C181.702,185.659,180.634,186.194,180.634,183.523z"></path><path style="fill:#FFF0DE;" d="M328.438,179.253c0,0-5.338-10.675-7.473-11.207c-2.133-0.534,0.744,17.4,3.734,16.547C327.502,183.793,329.504,181.793,328.438,179.253z"></path><path style="fill:#FFF0DE;" d="M321.039,183.524c0,0-0.412-6.984-2.672-8.541c-2.26-1.555-1.6,10.676,0,10.676C319.971,185.659,321.039,186.194,321.039,183.524z"></path><path style="fill:#FFF0DE;" d="M237.238,188.998c0,0,0-10.41,2.403-13.211c2.4-2.802,5.523,13.451,2.804,14.811C240.041,191.801,237.238,191.801,237.238,188.998z"></path><path style="fill:#FFF0DE;" d="M246.048,188.998c-1.606-2.003,0-9.208,0.799-10.41c0.801-1.201,4.002,9.207,2.402,11.208C247.185,192.376,247.648,190.998,246.048,188.998z"></path></g></g></g></g></svg>