<svg xmlns="http://www.w3.org/2000/svg" width="500" height="500" version="1.1"><g id="x9287"><g><g><linearGradient id="hair1XMLID_4840_" gradientUnits="userSpaceOnUse" x1="250.0005" y1="183" x2="250.0005" y2="108.6665"><stop offset="0" style="stop-color:#FCFCE4"></stop><stop offset="0.5" style="stop-color:#A0C8DD"></stop><stop offset="1" style="stop-color:#5D6EC5"></stop></linearGradient><path style="fill:url(#hair1XMLID_4840_);stroke:#000000;stroke-linecap:round;stroke-linejoin:round;" d="M312.734,135.882C298,117,284.333,108.667,249.333,111.667c-27-2-46,2-62.068,24.216c-17.932,16.451-22.283,30.165-22.283,51.08c0,32.694,14.267,47.104,14.827,48.325c0,0-5.229-21.928,5.742-24.67c4.113-0.686,9.78-33.574,16.455-44.566c1.829-2.195,24.358-4.665,47.994-4.677c23.633,0.012,46.163,2.481,47.992,4.677c6.674,10.992,12.342,43.88,16.455,44.566c-3.448,11.05,6.645,25.272,6.645,25.272c0.561-1.221,13.925-19.239,13.925-48.927C335.018,166.047,325.795,149.248,312.734,135.882z"></path><linearGradient id="hair1XMLID_4841_" gradientUnits="userSpaceOnUse" x1="230.1665" y1="183" x2="230.1665" y2="108.6665"><stop offset="0" style="stop-color:#FCFCE4"></stop><stop offset="0.5" style="stop-color:#A0C8DD"></stop><stop offset="1" style="stop-color:#5D6EC5"></stop></linearGradient><path style="fill:url(#hair1XMLID_4841_);stroke:#000000;stroke-linecap:round;stroke-linejoin:round;" d="M250.667,116c0,0-25.333-12.333-49.667,1.333c14.333-13.667,40.333-16.333,58.333-5.667"></path><linearGradient id="hair1XMLID_4842_" gradientUnits="userSpaceOnUse" x1="255.666" y1="183" x2="255.666" y2="108.6662"><stop offset="0" style="stop-color:#FCFCE4"></stop><stop offset="0.5" style="stop-color:#A0C8DD"></stop><stop offset="1" style="stop-color:#5D6EC5"></stop></linearGradient><polygon style="fill:url(#hair1XMLID_4842_);" points="300,159.667 314.667,205.333 294.667,196.667 274.667,191.333 196.667,189.667 201.667,158 255,141.667 "></polygon><linearGradient id="hair1XMLID_4843_" gradientUnits="userSpaceOnUse" x1="332.25" y1="183" x2="332.25" y2="108.6663"><stop offset="0" style="stop-color:#FCFCE4"></stop><stop offset="0.5" style="stop-color:#A0C8DD"></stop><stop offset="1" style="stop-color:#5D6EC5"></stop></linearGradient><path style="fill:url(#hair1XMLID_4843_);stroke:#000000;stroke-linecap:round;stroke-linejoin:round;" d="M334,175.333c0,0,17.333,22.667,4.333,45.667c1.334-14.667-1.848-15.315-5-32.333c0,0,4.439,12.909,1,26.667c-2,8-13,17-13,17l1-3"></path><linearGradient id="hair1XMLID_4844_" gradientUnits="userSpaceOnUse" x1="336.7676" y1="183" x2="336.7676" y2="108.6664"><stop offset="0" style="stop-color:#FCFCE4"></stop><stop offset="0.5" style="stop-color:#A0C8DD"></stop><stop offset="1" style="stop-color:#5D6EC5"></stop></linearGradient><path style="fill:url(#hair1XMLID_4844_);stroke:#000000;stroke-linecap:round;stroke-linejoin:round;" d="M328.269,156.667c0,2.333,7.332,22,17.666,28c-6-0.667-14.666-7.667-18.333-16"></path><linearGradient id="hair1XMLID_4845_" gradientUnits="userSpaceOnUse" x1="169.3081" y1="183" x2="169.3081" y2="108.6665"><stop offset="0" style="stop-color:#FCFCE4"></stop><stop offset="0.5" style="stop-color:#A0C8DD"></stop><stop offset="1" style="stop-color:#5D6EC5"></stop></linearGradient><path style="fill:url(#hair1XMLID_4845_);stroke:#000000;stroke-linecap:round;stroke-linejoin:round;" d="M180.333,231.333c0,0-3,3.667-2,10.667C173,238,172,234.333,172,225.667c-3.667,4.667-6,6-11.667,4.667c7-3,5.667-20.667,5.667-24.333c0,0-2.667-7.667-0.667-14c-2.667,6.667-5,12.333-4.667,19c-2.667-8.667-6.333-26.667,9.333-50"></path><linearGradient id="hair1XMLID_4846_" gradientUnits="userSpaceOnUse" x1="168.1665" y1="183" x2="168.1665" y2="108.6665"><stop offset="0" style="stop-color:#FCFCE4"></stop><stop offset="0.5" style="stop-color:#A0C8DD"></stop><stop offset="1" style="stop-color:#5D6EC5"></stop></linearGradient><path style="fill:url(#hair1XMLID_4846_);stroke:#000000;stroke-linecap:round;stroke-linejoin:round;" d="M176.667,148.667c0,0-9.333,14.333-17.333,17c6,0.333,14-0.333,17.667-5.667"></path><linearGradient id="hair1XMLID_4847_" gradientUnits="userSpaceOnUse" x1="181.77" y1="183" x2="181.77" y2="108.6666"><stop offset="0" style="stop-color:#FCFCE4"></stop><stop offset="0.5" style="stop-color:#A0C8DD"></stop><stop offset="1" style="stop-color:#5D6EC5"></stop></linearGradient><path style="fill:url(#hair1XMLID_4847_);stroke:#000000;stroke-linecap:round;stroke-linejoin:round;" d="M186.333,237c0,0-2.667,3.333-6,13.667c-4.667-7.667-3.333-18.666-1-22.333C183.667,231,186.333,237,186.333,237z"></path><linearGradient id="hair1XMLID_4848_" gradientUnits="userSpaceOnUse" x1="202.8872" y1="183" x2="202.8872" y2="108.6665"><stop offset="0" style="stop-color:#FCFCE4"></stop><stop offset="0.5" style="stop-color:#A0C8DD"></stop><stop offset="1" style="stop-color:#5D6EC5"></stop></linearGradient><path style="fill:url(#hair1XMLID_4848_);stroke:#000000;stroke-linecap:round;stroke-linejoin:round;" d="M231.667,200.333c0,0-15,36.333-29.667,45c1.797-5.428,2.667-12.667,3.399-21.574c0,0-7.384,14.138-11.486,33.03C173,235,157.667,176.667,207,140.333"></path><linearGradient id="hair1XMLID_4849_" gradientUnits="userSpaceOnUse" x1="195.833" y1="183" x2="195.833" y2="108.6665"><stop offset="0" style="stop-color:#FCFCE4"></stop><stop offset="0.5" style="stop-color:#A0C8DD"></stop><stop offset="1" style="stop-color:#5D6EC5"></stop></linearGradient><path style="fill:url(#hair1XMLID_4849_);stroke:#000000;stroke-linecap:round;stroke-linejoin:round;" d="M198.667,233.333c0,0,0,13.334,7.667,18.667c-7.667,1.668-18-5-21-14.333"></path><linearGradient id="hair1XMLID_4850_" gradientUnits="userSpaceOnUse" x1="311.2607" y1="183" x2="311.2607" y2="108.6665"><stop offset="0" style="stop-color:#FCFCE4"></stop><stop offset="0.5" style="stop-color:#A0C8DD"></stop><stop offset="1" style="stop-color:#5D6EC5"></stop></linearGradient><path style="fill:url(#hair1XMLID_4850_);stroke:#000000;stroke-linecap:round;stroke-linejoin:round;" d="M307.218,212.282c0,0,1.348,27.853-9.434,37.287c13.926-0.45,23.811-13.477,26.953-27.404"></path><linearGradient id="hair1XMLID_4851_" gradientUnits="userSpaceOnUse" x1="308.7539" y1="183" x2="308.7539" y2="108.6667"><stop offset="0" style="stop-color:#FCFCE4"></stop><stop offset="0.5" style="stop-color:#A0C8DD"></stop><stop offset="1" style="stop-color:#5D6EC5"></stop></linearGradient><path style="fill:url(#hair1XMLID_4851_);stroke:#000000;stroke-linecap:round;stroke-linejoin:round;" d="M291.684,196.169c0,0,1.348,36.837,34.141,35.489c-10.333-7.189-11.229-15.725-13.478-33.244"></path><linearGradient id="hair1XMLID_4852_" gradientUnits="userSpaceOnUse" x1="262.5771" y1="183" x2="262.5771" y2="108.6665"><stop offset="0" style="stop-color:#FCFCE4"></stop><stop offset="0.5" style="stop-color:#A0C8DD"></stop><stop offset="1" style="stop-color:#5D6EC5"></stop></linearGradient><path style="fill:url(#hair1XMLID_4852_);stroke:#000000;stroke-linecap:round;stroke-linejoin:round;" d="M238.269,156.971c-11.678,22.012-7.635,39.981-3.592,50.762c4.043,10.782,0.898,18.868-6.289,30.997c25.743-5.148,41.466-23.773,49.495-36.626c-0.41,8.154-1.93,19.314-6.762,27.454c12.129-4.043,26.505-23.361,25.605-46.72"></path><path style="fill:none;stroke:#000000;stroke-linecap:round;stroke-linejoin:round;" d="M243.333,227c0,0,23-17.333,28.667-54.333"></path><linearGradient id="hair1XMLID_4853_" gradientUnits="userSpaceOnUse" x1="241.5005" y1="183" x2="241.5005" y2="108.6662"><stop offset="0" style="stop-color:#FCFCE4"></stop><stop offset="0.5" style="stop-color:#A0C8DD"></stop><stop offset="1" style="stop-color:#5D6EC5"></stop></linearGradient><path style="fill:url(#hair1XMLID_4853_);stroke:#000000;stroke-linecap:round;stroke-linejoin:round;" d="M239.333,183.667c0,0,0,43,19.333,54c-10.333-1.333-34.333-17.667-34.333-57"></path><path style="fill:none;stroke:#000000;stroke-linecap:round;stroke-linejoin:round;" d="M263.667,124.667c0,0,42.666,11.333,56,66.667"></path><path style="fill:none;stroke:#000000;stroke-linecap:round;stroke-linejoin:round;" d="M215.667,135c0,0,16.334-12.333,37-12"></path><path style="fill:none;stroke:#000000;stroke-linecap:round;stroke-linejoin:round;" d="M224.667,155c1-1.667,14-21.333,31.333-29.333"></path><linearGradient id="hair1XMLID_4854_" gradientUnits="userSpaceOnUse" x1="204.9351" y1="183" x2="204.9351" y2="108.6665"><stop offset="0" style="stop-color:#FCFCE4"></stop><stop offset="0.5" style="stop-color:#A0C8DD"></stop><stop offset="1" style="stop-color:#5D6EC5"></stop></linearGradient><path style="fill:url(#hair1XMLID_4854_);stroke:#000000;stroke-linecap:round;stroke-linejoin:round;" d="M224.434,185.933c0,0-1.487,37.71-38.999,45.698c30.62-16.683,29.14-52.69,28.984-54.029"></path><linearGradient id="hair1XMLID_4855_" gradientUnits="userSpaceOnUse" x1="240.8335" y1="162.1333" x2="240.8335" y2="91.9217"><stop offset="0" style="stop-color:#FCFCE4"></stop><stop offset="0.5" style="stop-color:#A0C8DD"></stop><stop offset="1" style="stop-color:#5D6EC5"></stop></linearGradient><path style="fill:url(#hair1XMLID_4855_);stroke:#000000;stroke-linecap:round;stroke-linejoin:round;" d="M262,124.667c0,0-13,36-42.333,38.333C259,169.667,262,124.667,262,124.667z"></path></g><g><g><path style="fill:#FFF0DE;" d="M184.274,179.257c0,0,5.335-10.679,7.472-11.21c2.136-0.534-0.744,17.4-3.738,16.547C185.207,183.794,183.206,181.793,184.274,179.257z"></path><path style="fill:#FFF0DE;" d="M193.344,183.523c0,0,0.411-6.983,2.67-8.538c2.259-1.557,1.602,10.673,0,10.673C194.412,185.659,193.344,186.194,193.344,183.523z"></path><path style="fill:#FFF0DE;" d="M313.147,179.253c0,0-5.337-10.675-7.472-11.207c-2.134-0.534,0.743,17.4,3.734,16.547C312.213,183.793,314.215,181.793,313.147,179.253z"></path><path style="fill:#FFF0DE;" d="M305.749,183.524c0,0-0.411-6.984-2.672-8.541c-2.26-1.555-1.6,10.676,0,10.676C304.681,185.659,305.749,186.194,305.749,183.524z"></path><path style="fill:#FFF0DE;" d="M241.116,188.998c0,0,0-10.41,2.403-13.211c2.4-2.802,5.523,13.451,2.804,14.811C243.918,191.801,241.116,191.801,241.116,188.998z"></path><path style="fill:#FFF0DE;" d="M249.926,188.998c-1.606-2.003,0-9.208,0.799-10.41c0.801-1.201,4.002,9.207,2.402,11.208C251.063,192.376,251.525,190.998,249.926,188.998z"></path></g></g></g></g></svg>