<svg xmlns="http://www.w3.org/2000/svg" width="500" height="500" version="1.1"><g id="x029"><g><linearGradient id="hair1XMLID_2630_" gradientUnits="userSpaceOnUse" x1="250.0005" y1="206" x2="250.0005" y2="169"><stop offset="0" style="stop-color:#FCFCE4"></stop><stop offset="0.5" style="stop-color:#A0C8DD"></stop><stop offset="1" style="stop-color:#5D6EC5"></stop></linearGradient><path style="fill:url(#hair1XMLID_2630_);stroke:#1E1E1E;stroke-linecap:round;stroke-linejoin:round;" d="M311.484,135.882c-17.021-17.418-41.603-23.852-61.484-20.131c-19.882-3.721-44.464,2.713-61.484,20.131c-13.061,13.365-22.283,30.165-22.283,51.08c0,24.372,15.268,44.372,25.934,48.538c-7.33-33.49-0.484-59.331,5.084-68.5c1.798-2.157,29.369-5.491,52.75-5.619c23.381,0.128,50.952,3.462,52.75,5.619c5.568,9.169,12.414,35.01,5.084,68.5c10.666-4.167,25.934-24.167,25.934-48.538C333.768,166.047,324.545,149.248,311.484,135.882z"></path><g><linearGradient id="hair1XMLID_2631_" gradientUnits="userSpaceOnUse" x1="188.7134" y1="223.167" x2="188.7134" y2="156.1675"><stop offset="0" style="stop-color:#FCFCE4"></stop><stop offset="0.5" style="stop-color:#A0C8DD"></stop><stop offset="1" style="stop-color:#5D6EC5"></stop></linearGradient><path style="fill:url(#hair1XMLID_2631_);stroke:#1E1E1E;stroke-linecap:round;stroke-linejoin:round;" d="M194.201,214.75c0,0-4.02,44.89,6.03,65.66c-14.74-15.41-24.79-32.83-22.78-68.34"></path><linearGradient id="hair1XMLID_2632_" gradientUnits="userSpaceOnUse" x1="309.0352" y1="223.167" x2="309.0352" y2="156.1675"><stop offset="0" style="stop-color:#FCFCE4"></stop><stop offset="0.5" style="stop-color:#A0C8DD"></stop><stop offset="1" style="stop-color:#5D6EC5"></stop></linearGradient><path style="fill:url(#hair1XMLID_2632_);stroke:#1E1E1E;stroke-linecap:round;stroke-linejoin:round;" d="M303.547,214.75c0,0,4.021,44.89-6.029,65.66c14.739-15.41,24.789-32.83,22.779-68.34"></path><linearGradient id="hair1XMLID_2633_" gradientUnits="userSpaceOnUse" x1="250.0005" y1="223.1665" x2="250.0005" y2="156.1665"><stop offset="0" style="stop-color:#FCFCE4"></stop><stop offset="0.5" style="stop-color:#A0C8DD"></stop><stop offset="1" style="stop-color:#5D6EC5"></stop></linearGradient><path style="fill:url(#hair1XMLID_2633_);stroke:#1E1E1E;stroke-linecap:round;stroke-linejoin:round;" d="M198.155,137.03c-10.721,2.68-39.53,28.81-34.17,71.69c4.858-26.241,18.172-44.719,25.122-52.896c-17.177,28.607-17.843,65.145-4.353,87.065c20.771-65.66,63.649-75.71,63.649-75.71s54.27,35.51,69.68,74.37c4.134-17.173,6.449-34.493,4.596-50.75c5.829,11.514,11.127,24.763,13.494,38.021c5.36-72.36-34.17-89.11-34.17-89.11"></path><linearGradient id="hair1XMLID_2634_" gradientUnits="userSpaceOnUse" x1="240.2476" y1="223.1665" x2="240.2476" y2="156.1665"><stop offset="0" style="stop-color:#FCFCE4"></stop><stop offset="0.5" style="stop-color:#A0C8DD"></stop><stop offset="1" style="stop-color:#5D6EC5"></stop></linearGradient><path style="fill:url(#hair1XMLID_2634_);stroke:#1E1E1E;stroke-linecap:round;stroke-linejoin:round;" d="M222.275,159.14c0,0-10.051,40.2,36.849,76.379c-9.38-28.14-8.04-72.359-8.04-72.359"></path></g></g><g><g><path style="fill:#FFF0DE;" d="M179.339,181.536c0,0,5.852-11.712,8.195-12.295c2.342-0.585-0.816,19.084-4.1,18.149C180.363,186.513,178.168,184.318,179.339,181.536z"></path><path style="fill:#FFF0DE;" d="M187.453,186.217c0,0,0.45-7.659,2.929-9.365c2.478-1.707,1.757,11.708,0,11.708C188.624,188.56,187.453,189.145,187.453,186.217z"></path><path style="fill:#FFF0DE;" d="M327.078,181.536c0,0-5.854-11.712-8.195-12.295c-2.344-0.585,0.816,19.084,4.1,18.149C326.055,186.513,328.248,184.318,327.078,181.536z"></path><path style="fill:#FFF0DE;" d="M318.965,186.217c0,0-0.451-7.659-2.93-9.365c-2.479-1.707-1.756,11.708,0,11.708C317.793,188.56,318.965,189.145,318.965,186.217z"></path></g><path style="fill:#FFF0DE;" d="M232.495,187.72c0,0,0-11.417,2.635-14.489c2.631-3.074,6.057,14.753,3.074,16.245C235.568,190.794,232.495,190.794,232.495,187.72z"></path><path style="fill:#FFF0DE;" d="M242.156,187.72c-1.76-2.196,0-10.1,0.877-11.417c0.879-1.317,4.391,10.098,2.635,12.294C243.404,191.426,243.912,189.915,242.156,187.72z"></path></g></g></svg>