<svg xmlns="http://www.w3.org/2000/svg" width="500" height="500" version="1.1"><g id="x030"><g><linearGradient id="hair1XMLID_2635_" gradientUnits="userSpaceOnUse" x1="250.0005" y1="223" x2="250.0005" y2="164.3335"><stop offset="0" style="stop-color:#FCFCE4"></stop><stop offset="0.5" style="stop-color:#A0C8DD"></stop><stop offset="1" style="stop-color:#5D6EC5"></stop></linearGradient><path style="fill:url(#hair1XMLID_2635_);stroke:#1E1E1E;stroke-linecap:round;stroke-linejoin:round;" d="M311.484,135.882c-17.021-17.418-41.603-23.852-61.484-20.131c-19.882-3.721-44.464,2.713-61.484,20.131c-13.061,13.365-22.283,30.165-22.283,51.08c0,24.372,15.268,44.372,25.934,48.538c-7.33-33.49-0.484-59.331,5.084-68.5c1.798-2.157,29.369-5.491,52.75-5.619c23.381,0.128,50.952,3.462,52.75,5.619c5.568,9.169,12.414,35.01,5.084,68.5c10.666-4.167,25.934-24.167,25.934-48.538C333.768,166.047,324.545,149.248,311.484,135.882z"></path><g><linearGradient id="hair1XMLID_2636_" gradientUnits="userSpaceOnUse" x1="193.7173" y1="223" x2="193.7173" y2="164.3335"><stop offset="0" style="stop-color:#FCFCE4"></stop><stop offset="0.5" style="stop-color:#A0C8DD"></stop><stop offset="1" style="stop-color:#5D6EC5"></stop></linearGradient><path style="fill:url(#hair1XMLID_2636_);stroke:#1E1E1E;stroke-linecap:round;stroke-linejoin:round;" d="M197.462,191.3c0,0-3.126,50.026,16.08,64.319c-13.846,2.234-20.992-15.186-20.992-15.186s0,12.952,12.506,20.546c-19.653-4.466-39.308-23.673-27.693-87.1"></path><linearGradient id="hair1XMLID_2637_" gradientUnits="userSpaceOnUse" x1="206.4829" y1="223" x2="206.4829" y2="164.3335"><stop offset="0" style="stop-color:#FCFCE4"></stop><stop offset="0.5" style="stop-color:#A0C8DD"></stop><stop offset="1" style="stop-color:#5D6EC5"></stop></linearGradient><path style="fill:url(#hair1XMLID_2637_);stroke:#1E1E1E;stroke-linecap:round;stroke-linejoin:round;" d="M224.262,160.48c0,0-26.172,18.76-29.746,61.639c-7.146-8.933-10.72-47.346,7.594-68.339"></path><linearGradient id="hair1XMLID_2638_" gradientUnits="userSpaceOnUse" x1="226.8149" y1="223" x2="226.8149" y2="164.3333"><stop offset="0" style="stop-color:#FCFCE4"></stop><stop offset="0.5" style="stop-color:#A0C8DD"></stop><stop offset="1" style="stop-color:#5D6EC5"></stop></linearGradient><path style="fill:url(#hair1XMLID_2638_);stroke:#1E1E1E;stroke-linecap:round;stroke-linejoin:round;" d="M237.216,162.714c0,0-16.974,21.886-12.954,50.473c-11.612-16.08-9.38-41.987,0.448-55.387"></path><linearGradient id="hair1XMLID_2639_" gradientUnits="userSpaceOnUse" x1="288.4492" y1="223" x2="288.4492" y2="164.3335"><stop offset="0" style="stop-color:#FCFCE4"></stop><stop offset="0.5" style="stop-color:#A0C8DD"></stop><stop offset="1" style="stop-color:#5D6EC5"></stop></linearGradient><path style="fill:url(#hair1XMLID_2639_);stroke:#1E1E1E;stroke-linecap:round;stroke-linejoin:round;" d="M314.042,166.732l-11.612,10.273l2.68-10.72l-11.613,8.486l1.34-8.486l-10.273,7.593l0.447-8.486l-12.061,8.039c0,0,2.681-4.467,4.021-8.039c-11.612,4.02-12.954,11.166-12.954,11.166s-3.126-9.826,0.895-16.973"></path><linearGradient id="hair1XMLID_2640_" gradientUnits="userSpaceOnUse" x1="318.9395" y1="223" x2="318.9395" y2="164.3337"><stop offset="0" style="stop-color:#FCFCE4"></stop><stop offset="0.5" style="stop-color:#A0C8DD"></stop><stop offset="1" style="stop-color:#5D6EC5"></stop></linearGradient><path style="fill:url(#hair1XMLID_2640_);stroke:#1E1E1E;stroke-linecap:round;stroke-linejoin:round;" d="M318.956,197.106c0,0,1.339,40.647-14.294,50.92c14.74,0.447,33.172-15.86,27.505-47.36"></path><linearGradient id="hair1XMLID_2641_" gradientUnits="userSpaceOnUse" x1="314.3125" y1="223" x2="314.3125" y2="164.3335"><stop offset="0" style="stop-color:#FCFCE4"></stop><stop offset="0.5" style="stop-color:#A0C8DD"></stop><stop offset="1" style="stop-color:#5D6EC5"></stop></linearGradient><path style="fill:url(#hair1XMLID_2641_);stroke:#1E1E1E;stroke-linecap:round;stroke-linejoin:round;" d="M300.196,161.82c0,0,15.186,39.307,8.04,73.253c8.934-3.573,27.693-29.034,16.974-68.787"></path><linearGradient id="hair1XMLID_2642_" gradientUnits="userSpaceOnUse" x1="251.4023" y1="223" x2="251.4023" y2="164.3335"><stop offset="0" style="stop-color:#FCFCE4"></stop><stop offset="0.5" style="stop-color:#A0C8DD"></stop><stop offset="1" style="stop-color:#5D6EC5"></stop></linearGradient><path style="fill:url(#hair1XMLID_2642_);stroke:#1E1E1E;stroke-linecap:round;stroke-linejoin:round;" d="M275.63,147.527c0,0-23.674,46.9-16.08,82.186C249.722,218.547,246.596,198,246.596,198s-1.787,16.08,5.807,29.927c-25.013-8.933-30.82-43.773-20.101-70.127"></path><linearGradient id="hair1XMLID_2643_" gradientUnits="userSpaceOnUse" x1="177.2241" y1="223" x2="177.2241" y2="164.3335"><stop offset="0" style="stop-color:#FCFCE4"></stop><stop offset="0.5" style="stop-color:#A0C8DD"></stop><stop offset="1" style="stop-color:#5D6EC5"></stop></linearGradient><path style="fill:url(#hair1XMLID_2643_);stroke:#1E1E1E;stroke-linecap:round;stroke-linejoin:round;" d="M182.722,207.826c0,0-6.699,27.693,1.788,51.813c-16.08-17.42-18.762-34.393-8.487-62.087"></path><linearGradient id="hair1XMLID_2644_" gradientUnits="userSpaceOnUse" x1="171.1479" y1="223" x2="171.1479" y2="164.3335"><stop offset="0" style="stop-color:#FCFCE4"></stop><stop offset="0.5" style="stop-color:#A0C8DD"></stop><stop offset="1" style="stop-color:#5D6EC5"></stop></linearGradient><path style="fill:url(#hair1XMLID_2644_);stroke:#1E1E1E;stroke-linecap:round;stroke-linejoin:round;" d="M177.81,194.873c0,0-13.399,13.846-11.613,40.199c-7.146-20.1-7.594-47.346,14.293-69.232"></path></g></g><g><g><path style="fill:#FFF0DE;" d="M172.339,181.536c0,0,5.852-11.712,8.195-12.295c2.342-0.585-0.816,19.084-4.1,18.149C173.363,186.513,171.168,184.318,172.339,181.536z"></path><path style="fill:#FFF0DE;" d="M180.453,186.217c0,0,0.45-7.659,2.929-9.365c2.478-1.707,1.757,11.708,0,11.708C181.624,188.56,180.453,189.145,180.453,186.217z"></path><path style="fill:#FFF0DE;" d="M325.077,181.536c0,0-5.853-11.712-8.195-12.295c-2.343-0.585,0.816,19.084,4.1,18.149C324.054,186.513,326.248,184.318,325.077,181.536z"></path><path style="fill:#FFF0DE;" d="M316.964,186.217c0,0-0.451-7.659-2.93-9.365c-2.478-1.707-1.756,11.708,0,11.708C315.792,188.56,316.964,189.145,316.964,186.217z"></path></g><path style="fill:#FFF0DE;" d="M242.828,187.72c0,0,0-11.417,2.635-14.489c2.631-3.074,6.058,14.753,3.074,16.245C245.901,190.794,242.828,190.794,242.828,187.72z"></path><path style="fill:#FFF0DE;" d="M252.489,187.72c-1.761-2.196,0-10.1,0.876-11.417c0.879-1.317,4.391,10.098,2.635,12.294C253.736,191.426,254.244,189.915,252.489,187.72z"></path></g></g></svg>