<svg xmlns="http://www.w3.org/2000/svg" width="500" height="500" version="1.1"><g id="x032"><g><linearGradient id="hair1XMLID_2656_" gradientUnits="userSpaceOnUse" x1="250.0005" y1="238" x2="250.0005" y2="156.667"><stop offset="0" style="stop-color:#FCFCE4"></stop><stop offset="0.5" style="stop-color:#A0C8DD"></stop><stop offset="1" style="stop-color:#5D6EC5"></stop></linearGradient><path style="fill:url(#hair1XMLID_2656_);stroke:#1E1E1E;stroke-linecap:round;stroke-linejoin:round;" d="M311.484,135.882c-17.021-17.418-41.603-23.852-61.484-20.131c-19.882-3.721-44.464,2.713-61.484,20.131c-13.061,13.365-22.283,30.165-22.283,51.08c0,24.372,15.268,44.372,25.934,48.538c-7.33-33.49-0.484-59.331,5.084-68.5c1.798-2.157,29.369-5.491,52.75-5.619c23.381,0.128,50.952,3.462,52.75,5.619c5.568,9.169,12.414,35.01,5.084,68.5c10.666-4.167,25.934-24.167,25.934-48.538C333.768,166.047,324.545,149.248,311.484,135.882z"></path><g><linearGradient id="hair1XMLID_2657_" gradientUnits="userSpaceOnUse" x1="309.5742" y1="238" x2="309.5742" y2="156.667"><stop offset="0" style="stop-color:#FCFCE4"></stop><stop offset="0.5" style="stop-color:#A0C8DD"></stop><stop offset="1" style="stop-color:#5D6EC5"></stop></linearGradient><path style="fill:url(#hair1XMLID_2657_);stroke:#1E1E1E;stroke-linecap:round;stroke-linejoin:round;" d="M307.801,235.721c-0.934,11.238-4.264,26.05-14.697,34.193c18.761-6.254,39.754-20.547,30.82-82.188"></path><linearGradient id="hair1XMLID_2658_" gradientUnits="userSpaceOnUse" x1="182.2749" y1="238" x2="182.2749" y2="156.667"><stop offset="0" style="stop-color:#FCFCE4"></stop><stop offset="0.5" style="stop-color:#A0C8DD"></stop><stop offset="1" style="stop-color:#5D6EC5"></stop></linearGradient><path style="fill:url(#hair1XMLID_2658_);stroke:#1E1E1E;stroke-linecap:round;stroke-linejoin:round;" d="M184.006,220.779c0,0-3.573,34.841,14.74,49.135c-18.761-6.254-39.754-20.547-30.82-82.188"></path><g><g><linearGradient id="hair1XMLID_2659_" gradientUnits="userSpaceOnUse" x1="250.4038" y1="238" x2="250.4038" y2="156.6669"><stop offset="0" style="stop-color:#FCFCE4"></stop><stop offset="0.5" style="stop-color:#A0C8DD"></stop><stop offset="1" style="stop-color:#5D6EC5"></stop></linearGradient><path style="fill:url(#hair1XMLID_2659_);stroke:#1E1E1E;stroke-linecap:round;stroke-linejoin:round;" d="M309.496,160.425c4.867,14.3,1.551,32.702,1.173,37.742c-6.867,1.341-11.055-2.345-12.729-3.35c-7.37,2.847-13.568,1.34-16.918-1.005c-5.527,2.345-13.064,1.675-16.917-0.503c-12.228,4.021-22.445,1.173-23.618,0.335c-11.893,2.68-15.074,0.502-20.603-0.502c-10.05,4.188-14.069,1.004-17.922,0.502c-5.025,5.527-12.563,4.188-12.563,4.188s-3.054-20.289,3.462-37.207"></path><path style="fill:none;stroke:#1E1E1E;stroke-linecap:round;stroke-linejoin:round;" d="M203.078,192.863c-0.446-1.34-0.447-7.594,2.68-13.847"></path><path style="fill:none;stroke:#1E1E1E;stroke-linecap:round;stroke-linejoin:round;" d="M295.984,182.59c0,0,3.574,4.914,0.895,12.507"></path><path style="fill:none;stroke:#1E1E1E;stroke-linecap:round;stroke-linejoin:round;" d="M239.705,192.416c0,0-0.447-0.445-0.894-6.699"></path><path style="fill:none;stroke:#1E1E1E;stroke-linecap:round;stroke-linejoin:round;" d="M280.799,191.97c0,0-0.447-0.446-0.894-6.7"></path><path style="fill:none;stroke:#1E1E1E;stroke-linecap:round;stroke-linejoin:round;" d="M265.165,192.416c0-2.68-0.446-7.593-0.446-7.593"></path><path style="fill:none;stroke:#1E1E1E;stroke-linecap:round;stroke-linejoin:round;" d="M219.884,193.143c0,0,0.614-9.66,0.168-7.873"></path></g></g><g><linearGradient id="hair1XMLID_2660_" gradientUnits="userSpaceOnUse" x1="184.3379" y1="238" x2="184.3379" y2="156.667"><stop offset="0" style="stop-color:#FCFCE4"></stop><stop offset="0.5" style="stop-color:#A0C8DD"></stop><stop offset="1" style="stop-color:#5D6EC5"></stop></linearGradient><path style="fill:url(#hair1XMLID_2660_);stroke:#1E1E1E;stroke-linecap:round;stroke-linejoin:round;" d="M201.76,152.775c-0.437,0.656-2.345,29.145-11.893,46.565c-6.801,12.408-4.55,33.449,2.513,50.082c-31.49-8.375-24.79-43.383-24.79-43.383s-3.853-31.489,6.868-44.889"></path><linearGradient id="hair1XMLID_2661_" gradientUnits="userSpaceOnUse" x1="190.2861" y1="238" x2="190.2861" y2="156.6669"><stop offset="0" style="stop-color:#FCFCE4"></stop><stop offset="0.5" style="stop-color:#A0C8DD"></stop><stop offset="1" style="stop-color:#5D6EC5"></stop></linearGradient><path style="fill:url(#hair1XMLID_2661_);stroke:#1E1E1E;stroke-linecap:round;stroke-linejoin:round;" d="M184.843,206.207c0,0,5.024,29.313,15.242,31.825c-15.075,1.843-19.598-9.045-19.598-9.045"></path></g><g><linearGradient id="hair1XMLID_2662_" gradientUnits="userSpaceOnUse" x1="316.7754" y1="238" x2="316.7754" y2="156.667"><stop offset="0" style="stop-color:#FCFCE4"></stop><stop offset="0.5" style="stop-color:#A0C8DD"></stop><stop offset="1" style="stop-color:#5D6EC5"></stop></linearGradient><path style="fill:url(#hair1XMLID_2662_);stroke:#1E1E1E;stroke-linecap:round;stroke-linejoin:round;" d="M299.354,152.775c0.438,0.656,2.345,29.145,11.892,46.565c6.802,12.408,4.551,33.449-2.512,50.082c31.489-8.375,24.79-43.383,24.79-43.383s3.853-31.489-6.868-44.889"></path><linearGradient id="hair1XMLID_2663_" gradientUnits="userSpaceOnUse" x1="310.8271" y1="238" x2="310.8271" y2="156.6669"><stop offset="0" style="stop-color:#FCFCE4"></stop><stop offset="0.5" style="stop-color:#A0C8DD"></stop><stop offset="1" style="stop-color:#5D6EC5"></stop></linearGradient><path style="fill:url(#hair1XMLID_2663_);stroke:#1E1E1E;stroke-linecap:round;stroke-linejoin:round;" d="M316.271,206.207c0,0-5.025,29.313-15.242,31.825c15.075,1.843,19.598-9.045,19.598-9.045"></path></g></g></g><g><g><path style="fill:#FFF0DE;" d="M178.006,181.536c0,0,5.852-11.712,8.195-12.295c2.342-0.585-0.816,19.084-4.1,18.149C179.029,186.513,176.834,184.318,178.006,181.536z"></path><path style="fill:#FFF0DE;" d="M186.119,186.217c0,0,0.45-7.659,2.929-9.365c2.478-1.707,1.757,11.708,0,11.708C187.291,188.56,186.119,189.145,186.119,186.217z"></path><path style="fill:#FFF0DE;" d="M322.244,181.536c0,0-5.853-11.712-8.195-12.295c-2.343-0.585,0.816,19.084,4.1,18.149C321.221,186.513,323.415,184.318,322.244,181.536z"></path><path style="fill:#FFF0DE;" d="M314.131,186.217c0,0-0.451-7.659-2.93-9.365c-2.478-1.707-1.756,11.708,0,11.708C312.959,188.56,314.131,189.145,314.131,186.217z"></path></g></g></g></svg>