<svg xmlns="http://www.w3.org/2000/svg" width="500" height="500" version="1.1"><g id="x033"><g><linearGradient id="hair1XMLID_2664_" gradientUnits="userSpaceOnUse" x1="250.0005" y1="227.3335" x2="250.0005" y2="161.0001"><stop offset="0" style="stop-color:#FCFCE4"></stop><stop offset="0.5" style="stop-color:#A0C8DD"></stop><stop offset="1" style="stop-color:#5D6EC5"></stop></linearGradient><path style="fill:url(#hair1XMLID_2664_);stroke:#1E1E1E;stroke-linecap:round;stroke-linejoin:round;" d="M311.484,135.882c-17.021-17.418-41.603-23.852-61.484-20.131c-19.882-3.721-44.464,2.713-61.484,20.131c-13.061,13.365-22.283,30.165-22.283,51.08c0,24.372,15.268,44.372,25.934,48.538c-7.33-33.49-0.484-59.331,5.084-68.5c1.798-2.157,29.369-5.491,52.75-5.619c23.381,0.128,50.952,3.462,52.75,5.619c5.568,9.169,12.414,35.01,5.084,68.5c10.666-4.167,25.934-24.167,25.934-48.538C333.768,166.047,324.545,149.248,311.484,135.882z"></path><g><linearGradient id="hair1XMLID_2665_" gradientUnits="userSpaceOnUse" x1="207.7749" y1="227.3335" x2="207.7749" y2="161"><stop offset="0" style="stop-color:#FCFCE4"></stop><stop offset="0.5" style="stop-color:#A0C8DD"></stop><stop offset="1" style="stop-color:#5D6EC5"></stop></linearGradient><path style="fill:url(#hair1XMLID_2665_);stroke:#1E1E1E;stroke-linecap:round;stroke-linejoin:round;" d="M227.591,156.683c0,0-25.013,43.327-34.841,67.893c-8.486-6.699-5.359-48.24,6.7-77.72"></path><g><g><g><linearGradient id="hair1XMLID_2666_" gradientUnits="userSpaceOnUse" x1="185.4067" y1="227.3335" x2="185.4067" y2="161"><stop offset="0" style="stop-color:#FCFCE4"></stop><stop offset="0.5" style="stop-color:#A0C8DD"></stop><stop offset="1" style="stop-color:#5D6EC5"></stop></linearGradient><path style="fill:url(#hair1XMLID_2666_);stroke:#1E1E1E;stroke-linecap:round;stroke-linejoin:round;" d="M178.257,247.803c0,0-11.167,39.307,16.525,54.941c-4.913-5.361-13.399-31.268-8.932-45.115"></path><linearGradient id="hair1XMLID_2667_" gradientUnits="userSpaceOnUse" x1="214.1167" y1="227.3335" x2="214.1167" y2="161"><stop offset="0" style="stop-color:#FCFCE4"></stop><stop offset="0.5" style="stop-color:#A0C8DD"></stop><stop offset="1" style="stop-color:#5D6EC5"></stop></linearGradient><path style="fill:url(#hair1XMLID_2667_);stroke:#1E1E1E;stroke-linecap:round;stroke-linejoin:round;" d="M198.803,260.31c0,0,3.573,13.847,16.974,24.12s18.76,22.334,9.38,34.393c1.34-9.826-2.68-16.078-8.486-20.547c-5.808-4.467-10.72-4.02-18.313-16.525"></path></g><linearGradient id="hair1XMLID_2668_" gradientUnits="userSpaceOnUse" x1="197.4292" y1="227.3335" x2="197.4292" y2="161"><stop offset="0" style="stop-color:#FCFCE4"></stop><stop offset="0.5" style="stop-color:#A0C8DD"></stop><stop offset="1" style="stop-color:#5D6EC5"></stop></linearGradient><path style="fill:url(#hair1XMLID_2668_);stroke:#1E1E1E;stroke-linecap:round;stroke-linejoin:round;" d="M201.93,136.137c-18.018,15.118-25.661,34.939-28.682,51.854l-0.128-0.264c-4.69,17.643-8.503,56.559,8.263,77.05c20.1,24.567,6.254,33.946,10.72,48.687c2.912,9.607,9.827,15.635,22.78,12.061c0,0-15.958,3.777-13.667-15.543c1.786,2.986,4.471,5.906,9.2,9.736c9.381,7.592,6.254,14.293,4.913,19.207c16.08-11.166,10.721-26.354,2.681-33.947c-6.707-6.334-12.219-15.219-13.847-16.527c2.119-12.082,2.742-16.039-3.127-26.799c-0.497-0.912-0.999-1.828-1.503-2.748c1.825,0.135,3.673,0.148,5.523,0.067c-31.268-32.606,5.806-97.373,5.806-97.373"></path></g><linearGradient id="hair1XMLID_2669_" gradientUnits="userSpaceOnUse" x1="192.5498" y1="227.3335" x2="192.5498" y2="161.0001"><stop offset="0" style="stop-color:#FCFCE4"></stop><stop offset="0.5" style="stop-color:#A0C8DD"></stop><stop offset="1" style="stop-color:#5D6EC5"></stop></linearGradient><path style="fill:url(#hair1XMLID_2669_);stroke:#1E1E1E;stroke-linecap:round;stroke-linejoin:round;" d="M180.043,235.743c0,0,4.021,23.673,25.014,23.227"></path></g><linearGradient id="hair1XMLID_2670_" gradientUnits="userSpaceOnUse" x1="290.7598" y1="227.3335" x2="290.7598" y2="161"><stop offset="0" style="stop-color:#FCFCE4"></stop><stop offset="0.5" style="stop-color:#A0C8DD"></stop><stop offset="1" style="stop-color:#5D6EC5"></stop></linearGradient><path style="fill:url(#hair1XMLID_2670_);stroke:#1E1E1E;stroke-linecap:round;stroke-linejoin:round;" d="M270,162c0,0,31.29,29.971,37.544,61.236c7.146-20.1,5.36-51.813-11.166-69.233"></path><g><g><g><linearGradient id="hair1XMLID_2671_" gradientUnits="userSpaceOnUse" x1="314.3105" y1="227.3335" x2="314.3105" y2="161"><stop offset="0" style="stop-color:#FCFCE4"></stop><stop offset="0.5" style="stop-color:#A0C8DD"></stop><stop offset="1" style="stop-color:#5D6EC5"></stop></linearGradient><path style="fill:url(#hair1XMLID_2671_);stroke:#1E1E1E;stroke-linecap:round;stroke-linejoin:round;" d="M321.461,247.803c0,0,11.168,39.307-16.526,54.941c4.914-5.361,13.4-31.268,8.933-45.115"></path><linearGradient id="hair1XMLID_2672_" gradientUnits="userSpaceOnUse" x1="285.6016" y1="227.3335" x2="285.6016" y2="161"><stop offset="0" style="stop-color:#FCFCE4"></stop><stop offset="0.5" style="stop-color:#A0C8DD"></stop><stop offset="1" style="stop-color:#5D6EC5"></stop></linearGradient><path style="fill:url(#hair1XMLID_2672_);stroke:#1E1E1E;stroke-linecap:round;stroke-linejoin:round;" d="M300.915,260.31c0,0-3.574,13.847-16.974,24.12c-13.4,10.273-18.761,22.334-9.38,34.393c-1.341-9.826,2.68-16.078,8.487-20.547c5.806-4.467,10.719-4.02,18.313-16.525"></path></g><linearGradient id="hair1XMLID_2673_" gradientUnits="userSpaceOnUse" x1="302.2891" y1="227.3335" x2="302.2891" y2="161"><stop offset="0" style="stop-color:#FCFCE4"></stop><stop offset="0.5" style="stop-color:#A0C8DD"></stop><stop offset="1" style="stop-color:#5D6EC5"></stop></linearGradient><path style="fill:url(#hair1XMLID_2673_);stroke:#1E1E1E;stroke-linecap:round;stroke-linejoin:round;" d="M297.787,136.137c18.019,15.118,25.662,34.939,28.682,51.854l0.129-0.264c4.691,17.643,8.503,56.559-8.263,77.05c-20.101,24.567-6.254,33.946-10.72,48.687c-2.912,9.607-9.826,15.635-22.78,12.061c0,0,15.958,3.777,13.667-15.543c-1.786,2.986-4.471,5.906-9.201,9.736c-9.38,7.592-6.252,14.293-4.912,19.207c-16.08-11.166-10.72-26.354-2.68-33.947c6.706-6.334,12.218-15.219,13.846-16.527c-2.12-12.082-2.742-16.039,3.126-26.799c0.498-0.912,1-1.828,1.504-2.748c-1.825,0.135-3.673,0.148-5.523,0.067c31.268-32.606-5.807-97.373-5.807-97.373"></path></g><linearGradient id="hair1XMLID_2674_" gradientUnits="userSpaceOnUse" x1="307.168" y1="227.3335" x2="307.168" y2="161.0001"><stop offset="0" style="stop-color:#FCFCE4"></stop><stop offset="0.5" style="stop-color:#A0C8DD"></stop><stop offset="1" style="stop-color:#5D6EC5"></stop></linearGradient><path style="fill:url(#hair1XMLID_2674_);stroke:#1E1E1E;stroke-linecap:round;stroke-linejoin:round;" d="M319.675,235.743c0,0-4.02,23.673-25.014,23.227"></path></g><g><linearGradient id="hair1XMLID_2675_" gradientUnits="userSpaceOnUse" x1="247.7109" y1="227.3335" x2="247.7109" y2="161"><stop offset="0" style="stop-color:#FCFCE4"></stop><stop offset="0.5" style="stop-color:#A0C8DD"></stop><stop offset="1" style="stop-color:#5D6EC5"></stop></linearGradient><path style="fill:url(#hair1XMLID_2675_);stroke:#1E1E1E;stroke-linecap:round;stroke-linejoin:round;" d="M219.998,153.11c0,0-13.4,56.28,43.326,76.827c15.634-21.887,16.974-65.66,7.594-81.74"></path></g><linearGradient id="hair1XMLID_2676_" gradientUnits="userSpaceOnUse" x1="250.6294" y1="227.3335" x2="250.6294" y2="161.0001"><stop offset="0" style="stop-color:#FCFCE4"></stop><stop offset="0.5" style="stop-color:#A0C8DD"></stop><stop offset="1" style="stop-color:#5D6EC5"></stop></linearGradient><path style="fill:url(#hair1XMLID_2676_);stroke:#1E1E1E;stroke-linecap:round;stroke-linejoin:round;" d="M236.078,123.63c0-1.34,2.679-12.506,13.846-7.593s22.78,34.84,8.935,55.387c-2.234-18.761-16.08-41.987-16.08-41.987"></path></g></g><g><g><path style="fill:#FFF0DE;" d="M178.006,181.536c0,0,5.852-11.712,8.195-12.295c2.342-0.585-0.816,19.084-4.1,18.149C179.029,186.513,176.834,184.318,178.006,181.536z"></path><path style="fill:#FFF0DE;" d="M186.119,186.217c0,0,0.45-7.659,2.929-9.365c2.478-1.707,1.757,11.708,0,11.708C187.291,188.56,186.119,189.145,186.119,186.217z"></path><path style="fill:#FFF0DE;" d="M319.744,181.536c0,0-5.853-11.712-8.195-12.295c-2.343-0.585,0.816,19.084,4.1,18.149C318.721,186.513,320.915,184.318,319.744,181.536z"></path><path style="fill:#FFF0DE;" d="M311.631,186.217c0,0-0.451-7.659-2.93-9.365c-2.478-1.707-1.756,11.708,0,11.708C310.459,188.56,311.631,189.145,311.631,186.217z"></path></g><path style="fill:#FFF0DE;" d="M242.828,187.72c0,0,0-11.417,2.635-14.489c2.631-3.074,6.058,14.753,3.074,16.245C245.901,190.794,242.828,190.794,242.828,187.72z"></path><path style="fill:#FFF0DE;" d="M252.489,187.72c-1.761-2.196,0-10.1,0.876-11.417c0.879-1.317,4.391,10.098,2.635,12.294C253.736,191.426,254.244,189.915,252.489,187.72z"></path></g></g></svg>