<svg xmlns="http://www.w3.org/2000/svg" width="500" height="500" version="1.1"><g id="x034"><linearGradient id="hair1XMLID_2677_" gradientUnits="userSpaceOnUse" x1="250.0005" y1="235.667" x2="250.0005" y2="155.0001"><stop offset="0" style="stop-color:#FCFCE4"></stop><stop offset="0.5" style="stop-color:#A0C8DD"></stop><stop offset="1" style="stop-color:#5D6EC5"></stop></linearGradient><path style="fill:url(#hair1XMLID_2677_);stroke:#1E1E1E;stroke-linecap:round;stroke-linejoin:round;" d="M311.484,135.882c-17.021-17.418-41.603-23.852-61.484-20.131c-19.882-3.721-44.464,2.713-61.484,20.131c-13.061,13.365-22.283,30.165-22.283,51.08c0,24.372,15.268,44.372,25.934,48.538c-7.33-33.49-0.484-59.331,5.084-68.5c1.798-2.157,29.369-5.491,52.75-5.619c23.381,0.128,50.952,3.462,52.75,5.619c5.568,9.169,12.414,35.01,5.084,68.5c10.666-4.167,25.934-24.167,25.934-48.538C333.768,166.047,324.545,149.248,311.484,135.882z"></path><linearGradient id="hair1XMLID_2678_" gradientUnits="userSpaceOnUse" x1="232.6909" y1="235.667" x2="232.6909" y2="154.9999"><stop offset="0" style="stop-color:#FCFCE4"></stop><stop offset="0.5" style="stop-color:#A0C8DD"></stop><stop offset="1" style="stop-color:#5D6EC5"></stop></linearGradient><path style="fill:url(#hair1XMLID_2678_);stroke:#1E1E1E;stroke-linecap:round;stroke-linejoin:round;" d="M217.058,166.448c0,0,12.729-14.74,19.43-17.867c8.487,6.7,11.837,12.73,11.837,12.73L217.058,166.448z"></path><linearGradient id="hair1XMLID_2679_" gradientUnits="userSpaceOnUse" x1="267.3848" y1="235.667" x2="267.3848" y2="155"><stop offset="0" style="stop-color:#FCFCE4"></stop><stop offset="0.5" style="stop-color:#A0C8DD"></stop><stop offset="1" style="stop-color:#5D6EC5"></stop></linearGradient><path style="fill:url(#hair1XMLID_2679_);stroke:#1E1E1E;stroke-linecap:round;stroke-linejoin:round;" d="M282.942,166.896c0,0-12.579-15.187-19.278-18.314c-8.487,6.7-11.837,12.73-11.837,12.73L282.942,166.896z"></path><g><g><linearGradient id="hair1XMLID_2680_" gradientUnits="userSpaceOnUse" x1="199.8335" y1="235.667" x2="199.8335" y2="155"><stop offset="0" style="stop-color:#FCFCE4"></stop><stop offset="0.5" style="stop-color:#A0C8DD"></stop><stop offset="1" style="stop-color:#5D6EC5"></stop></linearGradient><path style="fill:url(#hair1XMLID_2680_);stroke:#1E1E1E;stroke-linecap:round;stroke-linejoin:round;" d="M201.884,133.903c-50.027,33.946-38.414,102.286-34.394,121.94c4.02,19.652,18.313,41.092,35.733,43.773c-19.653-21.889-16.527-37.521-16.527-37.521l8.934-25.907c0.11-9.822-6.948-49.39,40.622-87.356"></path><g><linearGradient id="hair1XMLID_2681_" gradientUnits="userSpaceOnUse" x1="197.2417" y1="235.667" x2="197.2417" y2="155"><stop offset="0" style="stop-color:#FCFCE4"></stop><stop offset="0.5" style="stop-color:#A0C8DD"></stop><stop offset="1" style="stop-color:#5D6EC5"></stop></linearGradient><path style="fill:url(#hair1XMLID_2681_);stroke:#1E1E1E;stroke-linecap:round;stroke-linejoin:round;" d="M198.925,200.903c-9.007,25.597,0.67,67.892,23.45,79.06c0,0-11.613,5.807-16.08,3.127c0,0-6.431,1.813-12.506-1.787c-12.061-7.146-31.267-37.072-16.08-73.699"></path><path style="fill:none;stroke:#1E1E1E;stroke-linecap:round;stroke-linejoin:round;" d="M191.896,264.669c0,0,3.126,13.399,16.525,18.761"></path></g></g><g><linearGradient id="hair1XMLID_2682_" gradientUnits="userSpaceOnUse" x1="300.167" y1="235.667" x2="300.167" y2="155"><stop offset="0" style="stop-color:#FCFCE4"></stop><stop offset="0.5" style="stop-color:#A0C8DD"></stop><stop offset="1" style="stop-color:#5D6EC5"></stop></linearGradient><path style="fill:url(#hair1XMLID_2682_);stroke:#1E1E1E;stroke-linecap:round;stroke-linejoin:round;" d="M298.117,133.903c50.026,33.946,38.414,102.286,34.393,121.94c-4.02,19.652-18.313,41.092-35.732,43.773c19.652-21.889,16.527-37.521,16.527-37.521l-8.934-25.907c-0.111-9.822,6.947-49.39-40.623-87.356"></path><g><linearGradient id="hair1XMLID_2683_" gradientUnits="userSpaceOnUse" x1="302.7588" y1="235.667" x2="302.7588" y2="155"><stop offset="0" style="stop-color:#FCFCE4"></stop><stop offset="0.5" style="stop-color:#A0C8DD"></stop><stop offset="1" style="stop-color:#5D6EC5"></stop></linearGradient><path style="fill:url(#hair1XMLID_2683_);stroke:#1E1E1E;stroke-linecap:round;stroke-linejoin:round;" d="M301.075,200.903c9.007,25.597-0.67,67.892-23.45,79.06c0,0,11.613,5.807,16.08,3.127c0,0,6.431,1.813,12.506-1.787c12.061-7.146,31.267-37.072,16.08-73.699"></path><path style="fill:none;stroke:#1E1E1E;stroke-linecap:round;stroke-linejoin:round;" d="M308.104,264.669c0,0-3.126,13.399-16.525,18.761"></path></g></g></g><g><g><path style="fill:#FFF0DE;" d="M178.006,181.536c0,0,5.852-11.712,8.195-12.295c2.342-0.585-0.816,19.084-4.1,18.149C179.029,186.513,176.834,184.318,178.006,181.536z"></path><path style="fill:#FFF0DE;" d="M186.119,186.217c0,0,0.45-7.659,2.929-9.365c2.478-1.707,1.757,11.708,0,11.708C187.291,188.56,186.119,189.145,186.119,186.217z"></path><path style="fill:#FFF0DE;" d="M321.744,181.536c0,0-5.853-11.712-8.195-12.295c-2.343-0.585,0.816,19.084,4.1,18.149C320.721,186.513,322.915,184.318,321.744,181.536z"></path><path style="fill:#FFF0DE;" d="M313.631,186.217c0,0-0.451-7.659-2.93-9.365c-2.478-1.707-1.756,11.708,0,11.708C312.459,188.56,313.631,189.145,313.631,186.217z"></path></g><path style="fill:#FFF0DE;" d="M245.463,173.231"></path></g></g></svg>