<svg xmlns="http://www.w3.org/2000/svg" width="500" height="500" version="1.1"><g id="x035"><g><linearGradient id="hair1XMLID_2684_" gradientUnits="userSpaceOnUse" x1="250.0005" y1="214.667" x2="250.0005" y2="148.3336"><stop offset="0" style="stop-color:#FCFCE4"></stop><stop offset="0.5" style="stop-color:#A0C8DD"></stop><stop offset="1" style="stop-color:#5D6EC5"></stop></linearGradient><path style="fill:url(#hair1XMLID_2684_);stroke:#1E1E1E;stroke-linecap:round;stroke-linejoin:round;" d="M311.484,135.882c-17.021-17.418-41.603-23.852-61.484-20.131c-19.882-3.721-44.464,2.713-61.484,20.131c-13.061,13.365-22.283,30.165-22.283,51.08c0,24.372,15.268,44.372,25.934,48.538c-7.33-33.49-0.484-59.331,5.084-68.5c1.798-2.157,29.369-5.491,52.75-5.619c23.381,0.128,50.952,3.462,52.75,5.619c5.568,9.169,12.414,35.01,5.084,68.5c10.666-4.167,25.934-24.167,25.934-48.538C333.768,166.047,324.545,149.248,311.484,135.882z"></path><g><linearGradient id="hair1XMLID_2685_" gradientUnits="userSpaceOnUse" x1="249.0864" y1="214.667" x2="249.0864" y2="148.3337"><stop offset="0" style="stop-color:#FCFCE4"></stop><stop offset="0.5" style="stop-color:#A0C8DD"></stop><stop offset="1" style="stop-color:#5D6EC5"></stop></linearGradient><path style="fill:url(#hair1XMLID_2685_);stroke:#1E1E1E;stroke-linecap:round;stroke-linejoin:round;" d="M193.058,160.145c-14.069,25.125-6.029,53.6-6.029,53.6h124.116c0,0,8.039-28.475-6.03-53.6"></path><path style="fill:none;stroke:#1E1E1E;stroke-linecap:round;stroke-linejoin:round;" d="M215.168,213.41c0,0-3.35-27.471,4.689-48.241"></path><path style="fill:none;stroke:#1E1E1E;stroke-linecap:round;stroke-linejoin:round;" d="M282.146,213.41c0,0,3.351-27.471-4.689-48.241"></path></g><g><g><linearGradient id="hair1XMLID_2686_" gradientUnits="userSpaceOnUse" x1="183.5439" y1="214.667" x2="183.5439" y2="148.3335"><stop offset="0" style="stop-color:#FCFCE4"></stop><stop offset="0.5" style="stop-color:#A0C8DD"></stop><stop offset="1" style="stop-color:#5D6EC5"></stop></linearGradient><path style="fill:url(#hair1XMLID_2686_);stroke:#1E1E1E;stroke-linecap:round;stroke-linejoin:round;" d="M202.814,152.44c-9.715,20.099-16.022,72.395,0,123.615c-9.715,0.67-33.231-13.383-34.17-17.085c-6.364-25.125-7.705-70.015,9.38-100.165"></path></g><g><linearGradient id="hair1XMLID_2687_" gradientUnits="userSpaceOnUse" x1="316.4561" y1="214.667" x2="316.4561" y2="148.3335"><stop offset="0" style="stop-color:#FCFCE4"></stop><stop offset="0.5" style="stop-color:#A0C8DD"></stop><stop offset="1" style="stop-color:#5D6EC5"></stop></linearGradient><path style="fill:url(#hair1XMLID_2687_);stroke:#1E1E1E;stroke-linecap:round;stroke-linejoin:round;" d="M297.186,152.44c9.715,20.099,16.022,72.395,0,123.615c9.715,0.67,33.231-13.383,34.17-17.085c6.364-25.125,7.705-70.015-9.38-100.165"></path></g></g></g><g><g><path style="fill:#FFF0DE;" d="M178.006,181.536c0,0,5.852-11.712,8.195-12.295c2.342-0.585-0.816,19.084-4.1,18.149C179.029,186.513,176.834,184.318,178.006,181.536z"></path><path style="fill:#FFF0DE;" d="M186.119,186.217c0,0,0.45-7.659,2.929-9.365c2.478-1.707,1.757,11.708,0,11.708C187.291,188.56,186.119,189.145,186.119,186.217z"></path><path style="fill:#FFF0DE;" d="M321.744,181.536c0,0-5.853-11.712-8.195-12.295c-2.343-0.585,0.816,19.084,4.1,18.149C320.721,186.513,322.915,184.318,321.744,181.536z"></path><path style="fill:#FFF0DE;" d="M313.631,186.217c0,0-0.451-7.659-2.93-9.365c-2.478-1.707-1.756,11.708,0,11.708C312.459,188.56,313.631,189.145,313.631,186.217z"></path></g><path style="fill:#FFF0DE;" d="M242.828,187.72c0,0,0-11.417,2.635-14.489c2.631-3.074,6.058,14.753,3.074,16.245C245.901,190.794,242.828,190.794,242.828,187.72z"></path><path style="fill:#FFF0DE;" d="M252.489,187.72c-1.761-2.196,0-10.1,0.876-11.417c0.879-1.317,4.391,10.098,2.635,12.294C253.736,191.426,254.244,189.915,252.489,187.72z"></path></g></g></svg>