<svg xmlns="http://www.w3.org/2000/svg" width="500" height="500" version="1.1"><g id="x036"><g><linearGradient id="hair1XMLID_2688_" gradientUnits="userSpaceOnUse" x1="250.0005" y1="239.667" x2="250.0005" y2="151.3335"><stop offset="0" style="stop-color:#FCFCE4"></stop><stop offset="0.5" style="stop-color:#A0C8DD"></stop><stop offset="1" style="stop-color:#5D6EC5"></stop></linearGradient><path style="fill:url(#hair1XMLID_2688_);stroke:#1E1E1E;stroke-linecap:round;stroke-linejoin:round;" d="M311.484,135.882c-17.021-17.418-41.603-23.852-61.484-20.131c-19.882-3.721-44.464,2.713-61.484,20.131c-13.061,13.365-22.283,30.165-22.283,51.08c0,24.372,15.268,44.372,25.934,48.538c-7.33-33.49-0.484-59.331,5.084-68.5c1.798-2.157,29.369-5.491,52.75-5.619c23.381,0.128,50.952,3.462,52.75,5.619c5.568,9.169,12.414,35.01,5.084,68.5c10.666-4.167,25.934-24.167,25.934-48.538C333.768,166.047,324.545,149.248,311.484,135.882z"></path><g><linearGradient id="hair1XMLID_2689_" gradientUnits="userSpaceOnUse" x1="248.7759" y1="238.667" x2="248.7759" y2="150.3336"><stop offset="0" style="stop-color:#FCFCE4"></stop><stop offset="0.5" style="stop-color:#A0C8DD"></stop><stop offset="1" style="stop-color:#5D6EC5"></stop></linearGradient><path style="fill:url(#hair1XMLID_2689_);stroke:#1E1E1E;stroke-linecap:round;stroke-linejoin:round;" d="M302.041,160.16v10.04c0,0-18.09,16.08-54.941,16.08c-36.85,0-51.59-16.08-51.59-16.08v-10.04"></path><g><linearGradient id="hair1XMLID_2690_" gradientUnits="userSpaceOnUse" x1="183.3247" y1="239.667" x2="183.3247" y2="151.3335"><stop offset="0" style="stop-color:#FCFCE4"></stop><stop offset="0.5" style="stop-color:#A0C8DD"></stop><stop offset="1" style="stop-color:#5D6EC5"></stop></linearGradient><path style="fill:url(#hair1XMLID_2690_);stroke:#1E1E1E;stroke-linecap:round;stroke-linejoin:round;" d="M206.89,161.82c0,0-10.72,22.78-13.399,58.29c-2.681,35.51,0.67,42.211,0.67,42.211s24.12,56.949-18.09,59.629c8.71-10.049,12.729-15.41,10.72-24.789c-1.512-7.057-29.865,0.596-26.8-36.181c2.68-32.159,13.399-38.86,14.739-53.6c1.341-14.74-4.02-28.81,14.74-58.29"></path><path style="fill:none;stroke:#1E1E1E;stroke-linecap:round;stroke-linejoin:round;" d="M194.161,262.32c0,0-8.04-8.711-7.37-34.841"></path></g><g><linearGradient id="hair1XMLID_2691_" gradientUnits="userSpaceOnUse" x1="316.6758" y1="239.667" x2="316.6758" y2="151.3335"><stop offset="0" style="stop-color:#FCFCE4"></stop><stop offset="0.5" style="stop-color:#A0C8DD"></stop><stop offset="1" style="stop-color:#5D6EC5"></stop></linearGradient><path style="fill:url(#hair1XMLID_2691_);stroke:#1E1E1E;stroke-linecap:round;stroke-linejoin:round;" d="M293.109,161.82c0,0,10.72,22.78,13.4,58.29c2.68,35.51-0.671,42.211-0.671,42.211s-24.12,56.949,18.091,59.629c-8.711-10.049-12.73-15.41-10.721-24.789c1.513-7.057,29.865,0.596,26.801-36.181c-2.681-32.159-13.4-38.86-14.74-53.6c-1.34-14.74,4.02-28.81-14.74-58.29"></path><path style="fill:none;stroke:#1E1E1E;stroke-linecap:round;stroke-linejoin:round;" d="M305.839,262.32c0,0,8.04-8.711,7.37-34.841"></path></g></g></g><g><g><path style="fill:#FFF0DE;" d="M178.006,181.536c0,0,5.852-11.712,8.195-12.295c2.342-0.585-0.816,19.084-4.1,18.149C179.029,186.513,176.834,184.318,178.006,181.536z"></path><path style="fill:#FFF0DE;" d="M186.119,186.217c0,0,0.45-7.659,2.929-9.365c2.478-1.707,1.757,11.708,0,11.708C187.291,188.56,186.119,189.145,186.119,186.217z"></path><path style="fill:#FFF0DE;" d="M321.744,181.536c0,0-5.853-11.712-8.195-12.295c-2.343-0.585,0.816,19.084,4.1,18.149C320.721,186.513,322.915,184.318,321.744,181.536z"></path><path style="fill:#FFF0DE;" d="M313.631,186.217c0,0-0.451-7.659-2.93-9.365c-2.478-1.707-1.756,11.708,0,11.708C312.459,188.56,313.631,189.145,313.631,186.217z"></path></g></g></g></svg>