<svg xmlns="http://www.w3.org/2000/svg" width="500" height="500" version="1.1"><g id="x037"><g><linearGradient id="hair1XMLID_2692_" gradientUnits="userSpaceOnUse" x1="250.0005" y1="216.3335" x2="250.0005" y2="155.3335"><stop offset="0" style="stop-color:#FCFCE4"></stop><stop offset="0.5" style="stop-color:#A0C8DD"></stop><stop offset="1" style="stop-color:#5D6EC5"></stop></linearGradient><path style="fill:url(#hair1XMLID_2692_);stroke:#1E1E1E;stroke-linecap:round;stroke-linejoin:round;" d="M311.484,135.882c-17.021-17.418-41.603-23.852-61.484-20.131c-19.882-3.721-44.464,2.713-61.484,20.131c-13.061,13.365-22.283,30.165-22.283,51.08c0,24.372,15.268,44.372,25.934,48.538c-7.33-33.49-0.484-59.331,5.084-68.5c1.798-2.157,29.369-5.491,52.75-5.619c23.381,0.128,50.952,3.462,52.75,5.619c5.568,9.169,12.414,35.01,5.084,68.5c10.666-4.167,25.934-24.167,25.934-48.538C333.768,166.047,324.545,149.248,311.484,135.882z"></path><g><g><linearGradient id="hair1XMLID_2693_" gradientUnits="userSpaceOnUse" x1="186.6846" y1="216.3335" x2="186.6846" y2="155.3337"><stop offset="0" style="stop-color:#FCFCE4"></stop><stop offset="0.5" style="stop-color:#A0C8DD"></stop><stop offset="1" style="stop-color:#5D6EC5"></stop></linearGradient><path style="fill:url(#hair1XMLID_2693_);stroke:#1E1E1E;stroke-linecap:round;stroke-linejoin:round;" d="M197.218,178.57c0,0-10.05,34.17-3.35,59.629c-19.431-12.729-18.76-27.47-16.75-46.899"></path><linearGradient id="hair1XMLID_2694_" gradientUnits="userSpaceOnUse" x1="312.6445" y1="216.3335" x2="312.6445" y2="155.3337"><stop offset="0" style="stop-color:#FCFCE4"></stop><stop offset="0.5" style="stop-color:#A0C8DD"></stop><stop offset="1" style="stop-color:#5D6EC5"></stop></linearGradient><path style="fill:url(#hair1XMLID_2694_);stroke:#1E1E1E;stroke-linecap:round;stroke-linejoin:round;" d="M302.111,177.9c0,0,10.05,34.17,3.35,59.629c19.43-12.729,18.76-27.47,16.75-46.899"></path></g><g><linearGradient id="hair1XMLID_2695_" gradientUnits="userSpaceOnUse" x1="274.6035" y1="216.3335" x2="274.6035" y2="155.3335"><stop offset="0" style="stop-color:#FCFCE4"></stop><stop offset="0.5" style="stop-color:#A0C8DD"></stop><stop offset="1" style="stop-color:#5D6EC5"></stop></linearGradient><path style="fill:url(#hair1XMLID_2695_);stroke:#1E1E1E;stroke-linecap:round;stroke-linejoin:round;" d="M267.568,164.546c0-2.681,2.68-10.05,4.02-15.41c3.35,0.67,10.05,14.739,10.05,14.739L267.568,164.546z"></path><linearGradient id="hair1XMLID_2696_" gradientUnits="userSpaceOnUse" x1="285.9932" y1="216.3335" x2="285.9932" y2="155.3335"><stop offset="0" style="stop-color:#FCFCE4"></stop><stop offset="0.5" style="stop-color:#A0C8DD"></stop><stop offset="1" style="stop-color:#5D6EC5"></stop></linearGradient><path style="fill:url(#hair1XMLID_2696_);stroke:#1E1E1E;stroke-linecap:round;stroke-linejoin:round;" d="M293.028,164.546c0-2.681-2.681-10.05-4.021-15.41c-3.35,0.67-10.05,14.739-10.05,14.739L293.028,164.546z"></path></g><g><g><linearGradient id="hair1XMLID_2697_" gradientUnits="userSpaceOnUse" x1="302.5801" y1="216.3335" x2="302.5801" y2="155.3335"><stop offset="0" style="stop-color:#FCFCE4"></stop><stop offset="0.5" style="stop-color:#A0C8DD"></stop><stop offset="1" style="stop-color:#5D6EC5"></stop></linearGradient><path style="fill:url(#hair1XMLID_2697_);stroke:#1E1E1E;stroke-linecap:round;stroke-linejoin:round;" d="M287.668,148.79c0,0,8.04,37.15,5.36,61.94c4.689,0.671,22.109,0,22.109,0s8.71-44.521-7.37-62.61"></path><linearGradient id="hair1XMLID_2698_" gradientUnits="userSpaceOnUse" x1="229.3262" y1="216.3335" x2="229.3262" y2="155.3335"><stop offset="0" style="stop-color:#FCFCE4"></stop><stop offset="0.5" style="stop-color:#A0C8DD"></stop><stop offset="1" style="stop-color:#5D6EC5"></stop></linearGradient><path style="fill:url(#hair1XMLID_2698_);stroke:#1E1E1E;stroke-linecap:round;stroke-linejoin:round;" d="M272.258,149.459c0,0-5.359,38.49-2.68,61.27c-9.38,2.011-80.4,2.681-80.4,2.681s-10.05-41.84,8.04-64.621"></path></g></g></g></g><g><g><path style="fill:#FFF0DE;" d="M171.006,181.536c0,0,5.852-11.712,8.195-12.295c2.342-0.585-0.816,19.084-4.1,18.149C172.029,186.513,169.834,184.318,171.006,181.536z"></path><path style="fill:#FFF0DE;" d="M179.119,186.217c0,0,0.45-7.659,2.929-9.365c2.478-1.707,1.757,11.708,0,11.708C180.291,188.56,179.119,189.145,179.119,186.217z"></path><path style="fill:#FFF0DE;" d="M315.493,185.109c0,0-1.493-10.609-5.498-13.715c-1.908-1.479-3.118,18.846,0.287,18.604C313.47,189.77,316.067,188.072,315.493,185.109z"></path><path style="fill:#FFF0DE;" d="M306.107,186.5c0,0,0.63-7.646-1.584-9.684c-2.213-2.038-3.385,11.344-1.646,11.591C304.618,188.655,305.696,189.399,306.107,186.5z"></path></g><path style="fill:#FFF0DE;" d="M242.828,187.72c0,0,0-11.417,2.635-14.489c2.631-3.074,6.058,14.753,3.074,16.245C245.901,190.794,242.828,190.794,242.828,187.72z"></path><path style="fill:#FFF0DE;" d="M252.489,187.72c-1.761-2.196,0-10.1,0.876-11.417c0.879-1.317,4.391,10.098,2.635,12.294C253.736,191.426,254.244,189.915,252.489,187.72z"></path></g></g></svg>