<svg xmlns="http://www.w3.org/2000/svg" width="500" height="500" version="1.1"><g id="x038"><g><linearGradient id="hair1XMLID_2699_" gradientUnits="userSpaceOnUse" x1="250.0005" y1="222.667" x2="250.0005" y2="137"><stop offset="0" style="stop-color:#FCFCE4"></stop><stop offset="0.5" style="stop-color:#A0C8DD"></stop><stop offset="1" style="stop-color:#5D6EC5"></stop></linearGradient><path style="fill:url(#hair1XMLID_2699_);stroke:#1E1E1E;stroke-linecap:round;stroke-linejoin:round;" d="M311.484,135.882c-17.021-17.418-41.603-23.852-61.484-20.131c-19.882-3.721-44.464,2.713-61.484,20.131c-13.061,13.365-22.283,30.165-22.283,51.08c0,24.372,15.268,44.372,25.934,48.538c-7.33-33.49-0.484-59.331,5.084-68.5c1.798-2.157,29.369-5.491,52.75-5.619c23.381,0.128,50.952,3.462,52.75,5.619c5.568,9.169,12.414,35.01,5.084,68.5c10.666-4.167,25.934-24.167,25.934-48.538C333.768,166.047,324.545,149.248,311.484,135.882z"></path><g><linearGradient id="hair1XMLID_2700_" gradientUnits="userSpaceOnUse" x1="250.0005" y1="222.667" x2="250.0005" y2="137.0001"><stop offset="0" style="stop-color:#FCFCE4"></stop><stop offset="0.5" style="stop-color:#A0C8DD"></stop><stop offset="1" style="stop-color:#5D6EC5"></stop></linearGradient><path style="fill:url(#hair1XMLID_2700_);stroke:#1E1E1E;stroke-linecap:round;stroke-linejoin:round;" d="M204.105,143.729c-18.761,12.73-18.761,34.171-21.44,47.57c-1.976,9.876-3.35,25.46-21.44,31.489c44.221,10.051,63.65-41.539,63.65-41.539s4.021,17.42-7.37,36.18c40.2-3.35,46.23-32.16,46.23-32.16s3.35,21.439,5.359,31.49c13.4-10.721,14.74-37.52,14.74-37.52s1.34,42.879,54.94,38.189c-9.38-5.359-14.07-21.439-18.761-37.52c-4.689-16.081-11.39-33.5-31.489-36.181"></path></g></g><g><g><path style="fill:#FFF0DE;" d="M186.006,181.536c0,0,5.852-11.712,8.195-12.295c2.342-0.585-0.816,19.084-4.1,18.149C187.029,186.513,184.834,184.318,186.006,181.536z"></path><path style="fill:#FFF0DE;" d="M194.119,186.217c0,0,0.45-7.659,2.929-9.365c2.478-1.707,1.757,11.708,0,11.708C195.291,188.56,194.119,189.145,194.119,186.217z"></path><path style="fill:#FFF0DE;" d="M318.244,181.536c0,0-5.853-11.712-8.195-12.295c-2.343-0.585,0.816,19.084,4.1,18.149C317.221,186.513,319.415,184.318,318.244,181.536z"></path><path style="fill:#FFF0DE;" d="M310.131,186.217c0,0-0.451-7.659-2.93-9.365c-2.478-1.707-1.756,11.708,0,11.708C308.959,188.56,310.131,189.145,310.131,186.217z"></path></g><path style="fill:#FFF0DE;" d="M242.828,187.72c0,0,0-11.417,2.635-14.489c2.631-3.074,6.058,14.753,3.074,16.245C245.901,190.794,242.828,190.794,242.828,187.72z"></path><path style="fill:#FFF0DE;" d="M252.489,187.72c-1.761-2.196,0-10.1,0.876-11.417c0.879-1.317,4.391,10.098,2.635,12.294C253.736,191.426,254.244,189.915,252.489,187.72z"></path></g></g></svg>