<svg xmlns="http://www.w3.org/2000/svg" width="500" height="500" version="1.1"><g id="x039"><g><linearGradient id="hair1XMLID_2701_" gradientUnits="userSpaceOnUse" x1="250.0015" y1="220" x2="250.0015" y2="159"><stop offset="0" style="stop-color:#FCFCE4"></stop><stop offset="0.5" style="stop-color:#A0C8DD"></stop><stop offset="1" style="stop-color:#5D6EC5"></stop></linearGradient><path style="fill:url(#hair1XMLID_2701_);stroke:#1E1E1E;stroke-linecap:round;stroke-linejoin:round;" d="M316.068,140.129c-2.021-2.197-4.199-4.25-6.526-6.149C292.63,118.003,269.139,112.17,250,115.751c-16.36-3.062-35.9,0.759-51.794,11.912c-9.104,2.722-24.656,11.54-29.155,39.981c-1.563,5.209-2.515,10.736-2.743,16.594c-1.64,9.423-1.638,17.568-0.704,22.475c1.272,6.68,4.652,14.091,8.632,20.992c0.209-3.04,0.491-6.091,0.823-9.141c5.173,8.694,11.725,14.833,17.108,16.936c-1.726-7.886-2.658-15.34-3.014-22.26l2.778-1.401c-0.4-14.028,1.07-28.528,9.053-40.64c19.435-11.662,93.801-6.7,97.15-2.68c4.938,8.134,9.312,28.526,12.891,38.245c-0.004,8.66-0.911,18.328-3.189,28.736c5.362-2.095,11.887-8.194,17.051-16.837c2.451,2.858,3.398,5.467,3.398,5.467c0.548-1.194,3.501-12.384,4.032-13.771c0.787-3.9,1.334-7.751,1.662-11.539C336.141,182.59,336.928,153.52,316.068,140.129z"></path><linearGradient id="hair1XMLID_2702_" gradientUnits="userSpaceOnUse" x1="243.2124" y1="220" x2="243.2124" y2="159.0001"><stop offset="0" style="stop-color:#FCFCE4"></stop><stop offset="0.5" style="stop-color:#A0C8DD"></stop><stop offset="1" style="stop-color:#5D6EC5"></stop></linearGradient><path style="fill:url(#hair1XMLID_2702_);stroke:#1E1E1E;stroke-linecap:round;stroke-linejoin:round;" d="M275.706,123.855c0,0-22.78-28.81-64.988-6.03c14.069-0.67,35.51,7.37,35.51,7.37"></path><g><linearGradient id="hair1XMLID_2703_" gradientUnits="userSpaceOnUse" x1="245.5137" y1="220" x2="245.5137" y2="159"><stop offset="0" style="stop-color:#FCFCE4"></stop><stop offset="0.5" style="stop-color:#A0C8DD"></stop><stop offset="1" style="stop-color:#5D6EC5"></stop></linearGradient><path style="fill:url(#hair1XMLID_2703_);stroke:#1E1E1E;stroke-linecap:round;stroke-linejoin:round;" d="M306.173,165.169c0,0-12.73,18.09-22.11,17.42c-5.219-0.373,6.7-14.07,6.7-14.07s-33.114,26.229-42.88,18.09c-4.02-3.35,18.76-18.09,18.76-18.09s-66.33-1.34-75.71,46.9c-8.71-21.44-12.06-54.27,18.09-74.37"></path></g></g><g><g><path style="fill:#FFF0DE;" d="M187.006,181.536c0,0,5.852-11.712,8.195-12.295c2.342-0.585-0.816,19.084-4.1,18.149C188.029,186.513,185.834,184.318,187.006,181.536z"></path><path style="fill:#FFF0DE;" d="M195.119,186.217c0,0,0.45-7.659,2.929-9.365c2.478-1.707,1.757,11.708,0,11.708C196.291,188.56,195.119,189.145,195.119,186.217z"></path><path style="fill:#FFF0DE;" d="M329.244,181.536c0,0-5.853-11.712-8.195-12.295c-2.343-0.585,0.816,19.084,4.1,18.149C328.221,186.513,330.415,184.318,329.244,181.536z"></path><path style="fill:#FFF0DE;" d="M321.131,186.217c0,0-0.451-7.659-2.93-9.365c-2.478-1.707-1.756,11.708,0,11.708C319.959,188.56,321.131,189.145,321.131,186.217z"></path></g></g></g></svg>