<svg xmlns="http://www.w3.org/2000/svg" width="500" height="500" version="1.1"><g id="x004"><g><g><linearGradient id="hair1XMLID_2455_" gradientUnits="userSpaceOnUse" x1="250.0005" y1="207.3335" x2="250.0005" y2="168.3335"><stop offset="0" style="stop-color:#FCFCE4"></stop><stop offset="0.5" style="stop-color:#A0C8DD"></stop><stop offset="1" style="stop-color:#5D6EC5"></stop></linearGradient><path style="fill:url(#hair1XMLID_2455_);stroke:#1E1E1E;stroke-linecap:round;stroke-linejoin:round;" d="M311.484,135.882c-17.021-17.418-41.603-23.852-61.484-20.131c-19.882-3.721-44.464,2.713-61.484,20.131c-13.061,13.365-22.283,30.165-22.283,51.08c0,24.372,15.268,44.372,25.934,48.538c-7.33-33.49-0.484-59.331,5.084-68.5c1.798-2.157,29.369-5.491,52.75-5.619c23.381,0.128,50.952,3.462,52.75,5.619c5.568,9.169,12.414,35.01,5.084,68.5c10.666-4.167,25.934-24.167,25.934-48.538C333.768,166.047,324.545,149.248,311.484,135.882z"></path><g><g><g><linearGradient id="hair1XMLID_2456_" gradientUnits="userSpaceOnUse" x1="250.0737" y1="194.4985" x2="250.0737" y2="153.1655"><stop offset="0" style="stop-color:#FCFCE4"></stop><stop offset="0.5" style="stop-color:#A0C8DD"></stop><stop offset="1" style="stop-color:#5D6EC5"></stop></linearGradient><path style="fill:url(#hair1XMLID_2456_);stroke:#1E1E1E;stroke-linecap:round;stroke-linejoin:round;" d="M200.87,147.65c-15.363,25.034-11.595,53.313-1.74,62.583c4.191-3.613,9.288-6.383,14.975-8.451c1.056-0.383,1.354-9.062,2.449-9.398c1.211-0.372,3.223,7.603,4.475,7.288c6.185-1.557,12.849-2.442,19.66-2.798c1.222-0.063,2.449-0.109,3.68-0.139c0.926-0.021,2.781-8.054,3.709-8.059c1.698-0.011,2.471,8.029,4.17,8.075c3.895,0.108,7.779,0.362,11.59,0.733c2.297-9.629,3.738-30.278,1.391-43.577c3.411,13.07,10.752,31.131,7.283,44.951c17.428,2.304,30.782,6.544,31.264,9.287c15.943-34.42-5.797-60.497-5.797-60.497"></path><linearGradient id="hair1XMLID_2457_" gradientUnits="userSpaceOnUse" x1="228.3804" y1="194.4985" x2="228.3804" y2="153.1656"><stop offset="0" style="stop-color:#FCFCE4"></stop><stop offset="0.5" style="stop-color:#A0C8DD"></stop><stop offset="1" style="stop-color:#5D6EC5"></stop></linearGradient><path style="fill:url(#hair1XMLID_2457_);stroke:#1E1E1E;stroke-linecap:round;stroke-linejoin:round;" d="M225.51,198.413c-0.291-1.044-3.188-18.08,6.376-33.377"></path><linearGradient id="hair1XMLID_2458_" gradientUnits="userSpaceOnUse" x1="283.6133" y1="194.4985" x2="283.6133" y2="153.1655"><stop offset="0" style="stop-color:#FCFCE4"></stop><stop offset="0.5" style="stop-color:#A0C8DD"></stop><stop offset="1" style="stop-color:#5D6EC5"></stop></linearGradient><path style="fill:url(#hair1XMLID_2458_);stroke:#1E1E1E;stroke-linecap:round;stroke-linejoin:round;" d="M280.875,166.426c0,0,7.535,13.906,4.928,33.377"></path><linearGradient id="hair1XMLID_2459_" gradientUnits="userSpaceOnUse" x1="204.9663" y1="194.4985" x2="204.9663" y2="153.1655"><stop offset="0" style="stop-color:#FCFCE4"></stop><stop offset="0.5" style="stop-color:#A0C8DD"></stop><stop offset="1" style="stop-color:#5D6EC5"></stop></linearGradient><path style="fill:url(#hair1XMLID_2459_);stroke:#1E1E1E;stroke-linecap:round;stroke-linejoin:round;" d="M200.968,208.727c0,0-8.794-29.785,10.047-58.99"></path></g></g><linearGradient id="hair1XMLID_2460_" gradientUnits="userSpaceOnUse" x1="196.0137" y1="194.4985" x2="196.0137" y2="153.1655"><stop offset="0" style="stop-color:#FCFCE4"></stop><stop offset="0.5" style="stop-color:#A0C8DD"></stop><stop offset="1" style="stop-color:#5D6EC5"></stop></linearGradient><path style="fill:url(#hair1XMLID_2460_);stroke:#1E1E1E;stroke-linecap:round;stroke-linejoin:round;" d="M213.772,174.77c-4.635,7.88-20.396,44.968-23.178,84.835c-9.272-21.788-17.153-60.264-8.809-87.617"></path><linearGradient id="hair1XMLID_2461_" gradientUnits="userSpaceOnUse" x1="308.3877" y1="194.4985" x2="308.3877" y2="153.1655"><stop offset="0" style="stop-color:#FCFCE4"></stop><stop offset="0.5" style="stop-color:#A0C8DD"></stop><stop offset="1" style="stop-color:#5D6EC5"></stop></linearGradient><path style="fill:url(#hair1XMLID_2461_);stroke:#1E1E1E;stroke-linecap:round;stroke-linejoin:round;" d="M290.629,174.77c4.636,7.88,20.396,44.968,23.179,84.835c9.272-21.788,17.153-60.264,8.809-87.617"></path><linearGradient id="hair1XMLID_2462_" gradientUnits="userSpaceOnUse" x1="192.4966" y1="194.4985" x2="192.4966" y2="153.1655"><stop offset="0" style="stop-color:#FCFCE4"></stop><stop offset="0.5" style="stop-color:#A0C8DD"></stop><stop offset="1" style="stop-color:#5D6EC5"></stop></linearGradient><path style="fill:url(#hair1XMLID_2462_);stroke:#1E1E1E;stroke-linecap:round;stroke-linejoin:round;" d="M216.438,143.826c-0.592,0-14.396,18.397-21.209,52.152c-7.403,36.673-11.228,52.238,0,94.223c-23.643-19.816-44.852-91.441-2.086-150.199"></path><linearGradient id="hair1XMLID_2463_" gradientUnits="userSpaceOnUse" x1="311.5117" y1="194.4985" x2="311.5117" y2="153.1655"><stop offset="0" style="stop-color:#FCFCE4"></stop><stop offset="0.5" style="stop-color:#A0C8DD"></stop><stop offset="1" style="stop-color:#5D6EC5"></stop></linearGradient><path style="fill:url(#hair1XMLID_2463_);stroke:#1E1E1E;stroke-linecap:round;stroke-linejoin:round;" d="M287.955,143.826c0.471,0,12.128,16.393,18.604,39.983c7.857,28.611,10.049,67.976,0.52,103.61c23.644-19.818,46.939-88.66,4.171-147.418"></path><path style="fill:url(#hair1XMLID_2462_);stroke:#1E1E1E;stroke-linecap:round;stroke-linejoin:round;" d="M216.438,143.826c-0.592,0-14.396,18.397-21.209,52.152c-7.403,36.673-11.228,52.238,0,94.223c-23.643-19.816-44.852-91.441-2.086-150.199"></path><path style="fill:url(#hair1XMLID_2463_);stroke:#1E1E1E;stroke-linecap:round;stroke-linejoin:round;" d="M287.955,143.826c0.471,0,12.128,16.393,18.604,39.983c7.857,28.611,10.049,67.976,0.52,103.61c23.644-19.818,46.939-88.66,4.171-147.418"></path><g><g><path style="fill:#FFF0DE;" d="M181.506,174.37c0,0,5.852-11.712,8.195-12.295c2.342-0.585-0.816,19.084-4.1,18.149C182.529,179.347,180.334,177.151,181.506,174.37z"></path><path style="fill:#FFF0DE;" d="M189.619,179.05c0,0,0.45-7.659,2.929-9.365c2.478-1.707,1.757,11.708,0,11.708C190.791,181.393,189.619,181.979,189.619,179.05z"></path><path style="fill:#FFF0DE;" d="M318.494,174.37c0,0-5.853-11.712-8.195-12.295c-2.343-0.585,0.816,19.084,4.1,18.149C317.471,179.347,319.665,177.151,318.494,174.37z"></path><path style="fill:#FFF0DE;" d="M310.381,179.05c0,0-0.451-7.659-2.93-9.365c-2.478-1.707-1.756,11.708,0,11.708C309.209,181.393,310.381,181.979,310.381,179.05z"></path></g><path style="fill:#FFF0DE;" d="M239.911,185.054c0,0,0-11.417,2.635-14.489c2.631-3.074,6.058,14.753,3.074,16.245C242.984,188.127,239.911,188.127,239.911,185.054z"></path><path style="fill:#FFF0DE;" d="M249.573,185.054c-1.761-2.196,0-10.1,0.876-11.417c0.879-1.317,4.391,10.098,2.635,12.294C250.82,188.759,251.328,187.249,249.573,185.054z"></path></g></g></g></g></g></svg>