<svg xmlns="http://www.w3.org/2000/svg" width="500" height="500" version="1.1"><g id="x040"><g><linearGradient id="hair1XMLID_2704_" gradientUnits="userSpaceOnUse" x1="253.1406" y1="217" x2="253.1406" y2="168"><stop offset="0" style="stop-color:#FCFCE4"></stop><stop offset="0.5" style="stop-color:#A0C8DD"></stop><stop offset="1" style="stop-color:#5D6EC5"></stop></linearGradient><path style="fill:url(#hair1XMLID_2704_);stroke:#1E1E1E;stroke-linecap:round;stroke-linejoin:round;" d="M311.484,135.882c-17.021-17.418-41.603-23.852-61.484-20.131c-19.882-3.721-44.464,2.713-61.484,20.131c-6.51,6.662-12.065,14.179-16.001,22.632l20.057,20.057c1.429-5.053,3.105-8.979,4.679-11.571c1.798-2.157,29.369-5.491,52.75-5.619c23.381,0.128,50.952,3.462,52.75,5.619c1.119,1.843,2.288,4.37,3.385,7.486c-2.771,4.74-5.974,11.517-5.974,11.517l7.817-0.446l-5.137,11.613l6.924-0.224l-5.138,9.604c0,0,6.321,4.566,6.271,5.722l-4.26,6.785l3.668,1.167c-0.511,4.877-1.313,9.98-2.473,15.276c10.666-4.167,25.934-24.167,25.934-48.538C333.768,166.047,324.545,149.248,311.484,135.882z"></path><g><g><linearGradient id="hair1XMLID_2705_" gradientUnits="userSpaceOnUse" x1="286.2988" y1="217" x2="286.2988" y2="167.9999"><stop offset="0" style="stop-color:#FCFCE4"></stop><stop offset="0.5" style="stop-color:#A0C8DD"></stop><stop offset="1" style="stop-color:#5D6EC5"></stop></linearGradient><path style="fill:url(#hair1XMLID_2705_);stroke:#1E1E1E;stroke-linecap:round;stroke-linejoin:round;" d="M315.811,163.44l-10.497,12.953l-2.646-9.56l-9.638,7.773c0,0-1.195-6.607-0.893-10.274c-3.637,3.334-9.604,8.934-9.827,9.604l-2.681-10.944c0,0-6.476,5.36-9.156,12.506c-2.903-4.913-4.806-11.5-4.806-11.5s-5.914,5.247-7.254,13.509c0,0-2.01-6.923-1.563-17.643"></path><linearGradient id="hair1XMLID_2706_" gradientUnits="userSpaceOnUse" x1="300.9385" y1="217.0005" x2="300.9385" y2="168.0005"><stop offset="0" style="stop-color:#FCFCE4"></stop><stop offset="0.5" style="stop-color:#A0C8DD"></stop><stop offset="1" style="stop-color:#5D6EC5"></stop></linearGradient><path style="fill:url(#hair1XMLID_2706_);stroke:#1E1E1E;stroke-linecap:round;stroke-linejoin:round;" d="M302.663,301.125c-1.675,3.428-9.616,10.605-11.214,10.721C304.849,283.705,309.75,220,309.75,220S313.667,254,302.663,301.125z"></path></g><g><linearGradient id="hair1XMLID_2707_" gradientUnits="userSpaceOnUse" x1="188.1099" y1="217" x2="188.1099" y2="168"><stop offset="0" style="stop-color:#FCFCE4"></stop><stop offset="0.5" style="stop-color:#A0C8DD"></stop><stop offset="1" style="stop-color:#5D6EC5"></stop></linearGradient><path style="fill:url(#hair1XMLID_2707_);stroke:#1E1E1E;stroke-linecap:round;stroke-linejoin:round;" d="M193.874,183.949c-2.202,12.858-2.866,72.223-0.544,111.313c0.799,13.453,1.952,24.506,3.517,30.432c-3.322-1.777-11.306-11-14.157-28.465c-5.541-33.941-3.927-89.538,3.267-115.727"></path><linearGradient id="hair1XMLID_2708_" gradientUnits="userSpaceOnUse" x1="195.312" y1="217" x2="195.312" y2="168"><stop offset="0" style="stop-color:#FCFCE4"></stop><stop offset="0.5" style="stop-color:#A0C8DD"></stop><stop offset="1" style="stop-color:#5D6EC5"></stop></linearGradient><path style="fill:url(#hair1XMLID_2708_);stroke:#1E1E1E;stroke-linecap:round;stroke-linejoin:round;" d="M195.696,187.477c0,0-4.224,64.856,7.618,93.688c-1.59-0.201-8.185-3.727-9.67-7.24c-4.201-9.947-6.064-30.82-6.335-52.648"></path></g><g><linearGradient id="hair1XMLID_2709_" gradientUnits="userSpaceOnUse" x1="166.8345" y1="217" x2="166.8345" y2="168"><stop offset="0" style="stop-color:#FCFCE4"></stop><stop offset="0.5" style="stop-color:#A0C8DD"></stop><stop offset="1" style="stop-color:#5D6EC5"></stop></linearGradient><path style="fill:url(#hair1XMLID_2709_);stroke:#1E1E1E;stroke-linecap:round;stroke-linejoin:round;" d="M176.903,152.886c0,0-24.567,24.567-23.45,48.463c0.293,6.282,6.253,9.604,6.253,9.604s4.243-29.033,20.547-49.357"></path><linearGradient id="hair1XMLID_2710_" gradientUnits="userSpaceOnUse" x1="165.5659" y1="217" x2="165.5659" y2="168"><stop offset="0" style="stop-color:#FCFCE4"></stop><stop offset="0.5" style="stop-color:#A0C8DD"></stop><stop offset="1" style="stop-color:#5D6EC5"></stop></linearGradient><path style="fill:url(#hair1XMLID_2710_);stroke:#1E1E1E;stroke-linecap:round;stroke-linejoin:round;" d="M182.485,148.644c-12.506,11.166-24.79,22.78-32.83,49.58c-3.573-2.456-3.796-10.273-3.796-10.273s6.36-33.5,39.413-48.24"></path><linearGradient id="hair1XMLID_2711_" gradientUnits="userSpaceOnUse" x1="182.3208" y1="217" x2="182.3208" y2="168"><stop offset="0" style="stop-color:#FCFCE4"></stop><stop offset="0.5" style="stop-color:#A0C8DD"></stop><stop offset="1" style="stop-color:#5D6EC5"></stop></linearGradient><path style="fill:url(#hair1XMLID_2711_);stroke:#1E1E1E;stroke-linecap:round;stroke-linejoin:round;" d="M195.886,158.023c-2.232,3.796-18.983,39.53-12.73,67.893c-2.232-2.457-13.622-7.369-13.622-7.369s-6.924-45.784,20.546-67.224"></path><linearGradient id="hair1XMLID_2712_" gradientUnits="userSpaceOnUse" x1="220.8477" y1="217" x2="220.8477" y2="168"><stop offset="0" style="stop-color:#FCFCE4"></stop><stop offset="0.5" style="stop-color:#A0C8DD"></stop><stop offset="1" style="stop-color:#5D6EC5"></stop></linearGradient><path style="fill:url(#hair1XMLID_2712_);stroke:#1E1E1E;stroke-linecap:round;stroke-linejoin:round;" d="M195.439,155.79c-18.09,22.781-8.04,68.34-8.04,68.34s6.04-3.892,14.74-4.021c-1.46-11.005-3.167-39.434,6.7-52.26c-3.296,12.852-3.002,36.023-0.671,48.91c4.758-0.08,10.348-1.893,14.74-2.01c-0.652-7.518-0.894-33.5,4.467-45.113c-2.894,12.84-0.662,35.051,0.292,43.037c13.245-0.423,23.681-1.051,27.849-1.944c-2.681-22.78,1.563-53.153,1.563-53.153"></path></g><linearGradient id="hair1XMLID_2713_" gradientUnits="userSpaceOnUse" x1="190.9819" y1="217" x2="190.9819" y2="168"><stop offset="0" style="stop-color:#FCFCE4"></stop><stop offset="0.5" style="stop-color:#A0C8DD"></stop><stop offset="1" style="stop-color:#5D6EC5"></stop></linearGradient><path style="fill:url(#hair1XMLID_2713_);stroke:#1E1E1E;stroke-linecap:round;stroke-linejoin:round;" d="M204.983,141.273c-0.67-0.224-20.101,2.01-27.694-8.487c-7.593-10.497,3.797-33.5,29.257-44.443c-14.293,11.167-29.033,31.043-20.547,39.307c8.488,8.264,20.994,8.71,20.994,8.71"></path></g></g></g></svg>