<svg xmlns="http://www.w3.org/2000/svg" width="500" height="500" version="1.1"><g id="x041"><g><linearGradient id="hair1XMLID_2714_" gradientUnits="userSpaceOnUse" x1="250.0005" y1="224" x2="250.0005" y2="147.667"><stop offset="0" style="stop-color:#FCFCE4"></stop><stop offset="0.5" style="stop-color:#A0C8DD"></stop><stop offset="1" style="stop-color:#5D6EC5"></stop></linearGradient><path style="fill:url(#hair1XMLID_2714_);stroke:#1E1E1E;stroke-linecap:round;stroke-linejoin:round;" d="M311.484,135.882c-17.021-17.418-41.603-23.852-61.484-20.131c-19.882-3.721-44.464,2.713-61.484,20.131c-13.061,13.365-22.283,30.165-22.283,51.08c0,24.372,15.268,44.372,25.934,48.538c-7.33-33.49-0.484-59.331,5.084-68.5c1.798-2.157,29.369-5.491,52.75-5.619c23.381,0.128,50.952,3.462,52.75,5.619c5.568,9.169,12.414,35.01,5.084,68.5c10.666-4.167,25.934-24.167,25.934-48.538C333.768,166.047,324.545,149.248,311.484,135.882z"></path><g><linearGradient id="hair1XMLID_2715_" gradientUnits="userSpaceOnUse" x1="287.8105" y1="224" x2="287.8105" y2="147.6671"><stop offset="0" style="stop-color:#FCFCE4"></stop><stop offset="0.5" style="stop-color:#A0C8DD"></stop><stop offset="1" style="stop-color:#5D6EC5"></stop></linearGradient><path style="fill:url(#hair1XMLID_2715_);stroke:#1E1E1E;stroke-linecap:round;stroke-linejoin:round;" d="M259.278,159.245c0,0,9.045,53.265,41.54,59.294c-10.385-10.719-15.074-44.219-15.074-44.219s7.369,38.524,29.145,46.899c4.102-14.128-1.116-47.004-7.591-61.295"></path><linearGradient id="hair1XMLID_2716_" gradientUnits="userSpaceOnUse" x1="199.8999" y1="224" x2="199.8999" y2="147.6668"><stop offset="0" style="stop-color:#FCFCE4"></stop><stop offset="0.5" style="stop-color:#A0C8DD"></stop><stop offset="1" style="stop-color:#5D6EC5"></stop></linearGradient><path style="fill:url(#hair1XMLID_2716_);stroke:#1E1E1E;stroke-linecap:round;stroke-linejoin:round;" d="M214.054,158.805c0,0-18.76,16.75-25.125,56.615c-4.021-14.405-4.69-31.825,0.67-48.24"></path><linearGradient id="hair1XMLID_2717_" gradientUnits="userSpaceOnUse" x1="243.0308" y1="224" x2="243.0308" y2="147.6673"><stop offset="0" style="stop-color:#FCFCE4"></stop><stop offset="0.5" style="stop-color:#A0C8DD"></stop><stop offset="1" style="stop-color:#5D6EC5"></stop></linearGradient><path style="fill:url(#hair1XMLID_2717_);stroke:#1E1E1E;stroke-linecap:round;stroke-linejoin:round;" d="M209.698,154.785c0,23.45,7.705,61.975,46.9,71.69c-11.39-9.045-17.42-28.811-17.42-28.811s14.74,19.431,37.185,20.436c-4.826-14.158-15.293-50.748-17.085-63.65"></path><g><g><linearGradient id="hair1XMLID_2718_" gradientUnits="userSpaceOnUse" x1="181.3589" y1="224" x2="181.3589" y2="147.667"><stop offset="0" style="stop-color:#FCFCE4"></stop><stop offset="0.5" style="stop-color:#A0C8DD"></stop><stop offset="1" style="stop-color:#5D6EC5"></stop></linearGradient><path style="fill:url(#hair1XMLID_2718_);stroke:#1E1E1E;stroke-linecap:round;stroke-linejoin:round;" d="M199.313,158.135c0,0-16.415,62.98,0,85.09c-10.385,0-19.206-8.151-22.221-12.506c-4.69-3.351-10.386-5.025-11.726-8.041c-2.345-3.685-5.694-36.068,10.831-58.848"></path><path style="fill:none;stroke:#1E1E1E;stroke-linecap:round;stroke-linejoin:round;" d="M173.296,204.477c0,0-2.904,18.76,8.486,29.703"></path></g></g><g><g><linearGradient id="hair1XMLID_2719_" gradientUnits="userSpaceOnUse" x1="318.6406" y1="224" x2="318.6406" y2="147.667"><stop offset="0" style="stop-color:#FCFCE4"></stop><stop offset="0.5" style="stop-color:#A0C8DD"></stop><stop offset="1" style="stop-color:#5D6EC5"></stop></linearGradient><path style="fill:url(#hair1XMLID_2719_);stroke:#1E1E1E;stroke-linecap:round;stroke-linejoin:round;" d="M300.686,158.135c0,0,16.883,39.865,0,85.09c10.385,0,19.207-8.151,22.223-12.506c4.689-3.351,10.385-5.025,11.725-8.041c2.345-3.685,5.695-36.068-10.832-58.848"></path><path style="fill:none;stroke:#1E1E1E;stroke-linecap:round;stroke-linejoin:round;" d="M326.704,204.477c0,0,2.903,18.76-8.486,29.703"></path></g></g></g></g><g><g><path style="fill:#FFF0DE;" d="M178.006,181.536c0,0,5.852-11.712,8.195-12.295c2.342-0.585-0.816,19.084-4.1,18.149C179.029,186.513,176.834,184.318,178.006,181.536z"></path><path style="fill:#FFF0DE;" d="M186.119,186.217c0,0,0.45-7.659,2.929-9.365c2.478-1.707,1.757,11.708,0,11.708C187.291,188.56,186.119,189.145,186.119,186.217z"></path><path style="fill:#FFF0DE;" d="M321.744,181.536c0,0-5.853-11.712-8.195-12.295c-2.343-0.585,0.816,19.084,4.1,18.149C320.721,186.513,322.915,184.318,321.744,181.536z"></path><path style="fill:#FFF0DE;" d="M313.631,186.217c0,0-0.451-7.659-2.93-9.365c-2.478-1.707-1.756,11.708,0,11.708C312.459,188.56,313.631,189.145,313.631,186.217z"></path></g><path style="fill:#FFF0DE;" d="M234.161,187.72c0,0,0-11.417,2.635-14.489c2.631-3.074,6.058,14.753,3.074,16.245C237.234,190.794,234.161,190.794,234.161,187.72z"></path><path style="fill:#FFF0DE;" d="M243.823,187.72c-1.761-2.196,0-10.1,0.876-11.417c0.879-1.317,4.391,10.098,2.635,12.294C245.07,191.426,245.578,189.915,243.823,187.72z"></path></g></g></svg>