<svg xmlns="http://www.w3.org/2000/svg" width="500" height="500" version="1.1"><g id="x042"><linearGradient id="hair1XMLID_2720_" gradientUnits="userSpaceOnUse" x1="250.0005" y1="229" x2="250.0005" y2="142"><stop offset="0" style="stop-color:#FCFCE4"></stop><stop offset="0.5" style="stop-color:#A0C8DD"></stop><stop offset="1" style="stop-color:#5D6EC5"></stop></linearGradient><path style="fill:url(#hair1XMLID_2720_);stroke:#1E1E1E;stroke-linecap:round;stroke-linejoin:round;" d="M311.484,135.882c-17.021-17.418-41.603-23.852-61.484-20.131c-19.882-3.721-44.464,2.713-61.484,20.131c-13.061,13.365-22.283,30.165-22.283,51.08c0,24.372,15.268,44.372,25.934,48.538c-7.33-33.49-0.484-59.331,5.084-68.5c1.798-2.157,29.369-5.491,52.75-5.619c23.381,0.128,50.952,3.462,52.75,5.619c5.568,9.169,12.414,35.01,5.084,68.5c10.666-4.167,25.934-24.167,25.934-48.538C333.768,166.047,324.545,149.248,311.484,135.882z"></path><g><g><linearGradient id="hair1XMLID_2721_" gradientUnits="userSpaceOnUse" x1="176.8589" y1="229" x2="176.8589" y2="142"><stop offset="0" style="stop-color:#FCFCE4"></stop><stop offset="0.5" style="stop-color:#A0C8DD"></stop><stop offset="1" style="stop-color:#5D6EC5"></stop></linearGradient><path style="fill:url(#hair1XMLID_2721_);stroke:#1E1E1E;stroke-linecap:round;stroke-linejoin:round;" d="M187.728,146.12c-3.294,2.877-6.232,6.076-8.834,9.504c-14.616,10.547-24.518,31.884-23.638,42.44c2.68-5.359,6.476-10.154,10.346-14.174c-5.563,22.063-1.897,44.267,8.684,51.406c-1.787-10.273,4.913-28.363,8.486-33.836c-1.34,3.35-3.35,27.136,11.837,33.612c-7.594-17.866,0.894-50.026,3.908-58.067"></path><linearGradient id="hair1XMLID_2722_" gradientUnits="userSpaceOnUse" x1="177.9697" y1="229" x2="177.9697" y2="141.9999"><stop offset="0" style="stop-color:#FCFCE4"></stop><stop offset="0.5" style="stop-color:#A0C8DD"></stop><stop offset="1" style="stop-color:#5D6EC5"></stop></linearGradient><path style="fill:url(#hair1XMLID_2722_);stroke:#1E1E1E;stroke-linecap:round;stroke-linejoin:round;" d="M189.192,152.942c-6.03,4.355-17.42,6.7-24.12-3.35c3.016-0.335,18.426-1.005,25.795-10.05"></path><linearGradient id="hair1XMLID_2723_" gradientUnits="userSpaceOnUse" x1="203.1284" y1="229" x2="203.1284" y2="141.9999"><stop offset="0" style="stop-color:#FCFCE4"></stop><stop offset="0.5" style="stop-color:#A0C8DD"></stop><stop offset="1" style="stop-color:#5D6EC5"></stop></linearGradient><path style="fill:url(#hair1XMLID_2723_);stroke:#1E1E1E;stroke-linecap:round;stroke-linejoin:round;" d="M220.962,158.917c0,0-25.684,39.976-20.77,79.507c-18.761-19.207-18.761-50.027-5.808-71.244"></path><linearGradient id="hair1XMLID_2724_" gradientUnits="userSpaceOnUse" x1="321.0146" y1="229" x2="321.0146" y2="142"><stop offset="0" style="stop-color:#FCFCE4"></stop><stop offset="0.5" style="stop-color:#A0C8DD"></stop><stop offset="1" style="stop-color:#5D6EC5"></stop></linearGradient><path style="fill:url(#hair1XMLID_2724_);stroke:#1E1E1E;stroke-linecap:round;stroke-linejoin:round;" d="M302.59,182.255c3.015,9.045,1.675,38.86,36.85,44.22c-8.375-12.061-6.03-34.84-9.38-49.245c-2.489-10.702-7.79-23.795-18.525-29.566"></path><linearGradient id="hair1XMLID_2725_" gradientUnits="userSpaceOnUse" x1="287.9453" y1="229" x2="287.9453" y2="142"><stop offset="0" style="stop-color:#FCFCE4"></stop><stop offset="0.5" style="stop-color:#A0C8DD"></stop><stop offset="1" style="stop-color:#5D6EC5"></stop></linearGradient><path style="fill:url(#hair1XMLID_2725_);stroke:#1E1E1E;stroke-linecap:round;stroke-linejoin:round;" d="M263.171,163.169c0.335,2.345,21.328,29.481,24.901,57.732c4.578-9.715,7.482-25.907,4.467-40.646c4.355,8.375,11.948,28.475,13.288,41.204c8.71-15.186,12.507-49.244-9.268-74.369"></path><linearGradient id="hair1XMLID_2726_" gradientUnits="userSpaceOnUse" x1="251.7988" y1="229" x2="251.7988" y2="141.9999"><stop offset="0" style="stop-color:#FCFCE4"></stop><stop offset="0.5" style="stop-color:#A0C8DD"></stop><stop offset="1" style="stop-color:#5D6EC5"></stop></linearGradient><path style="fill:url(#hair1XMLID_2726_);stroke:#1E1E1E;stroke-linecap:round;stroke-linejoin:round;" d="M219.845,147.08c-3.015,23.45,10.497,72.918,43.326,85.983c-9.714-13.064-20.211-33.723-20.211-49.133c3.686,11.725,18.76,35.175,41.204,36.18c-8.151-22.333-13.399-44.22-20.1-65.66"></path></g></g><g><g><path style="fill:#FFF0DE;" d="M169.339,181.536c0,0,5.852-11.712,8.195-12.295c2.342-0.585-0.816,19.084-4.1,18.149C170.363,186.513,168.168,184.318,169.339,181.536z"></path><path style="fill:#FFF0DE;" d="M177.453,186.217c0,0,0.45-7.659,2.929-9.365c2.478-1.707,1.757,11.708,0,11.708C178.624,188.56,177.453,189.145,177.453,186.217z"></path><path style="fill:#FFF0DE;" d="M327.411,181.536c0,0-5.853-11.712-8.195-12.295c-2.343-0.585,0.816,19.084,4.1,18.149C326.388,186.513,328.582,184.318,327.411,181.536z"></path><path style="fill:#FFF0DE;" d="M319.298,186.217c0,0-0.451-7.659-2.93-9.365c-2.478-1.707-1.756,11.708,0,11.708C318.126,188.56,319.298,189.145,319.298,186.217z"></path></g><path style="fill:#FFF0DE;" d="M246.828,187.72c0,0,0-11.417,2.635-14.489c2.631-3.074,6.058,14.753,3.074,16.245C249.901,190.794,246.828,190.794,246.828,187.72z"></path><path style="fill:#FFF0DE;" d="M255.489,187.72c-1.761-2.196,0-10.1,0.876-11.417c0.879-1.317,4.391,10.098,2.635,12.294C256.736,191.426,257.244,189.915,255.489,187.72z"></path></g></g></svg>