<svg xmlns="http://www.w3.org/2000/svg" width="500" height="500" version="1.1"><g id="x043"><linearGradient id="hair1XMLID_2727_" gradientUnits="userSpaceOnUse" x1="250.0005" y1="200.667" x2="250.0005" y2="146"><stop offset="0" style="stop-color:#FCFCE4"></stop><stop offset="0.5" style="stop-color:#A0C8DD"></stop><stop offset="1" style="stop-color:#5D6EC5"></stop></linearGradient><path style="fill:url(#hair1XMLID_2727_);stroke:#1E1E1E;stroke-linecap:round;stroke-linejoin:round;" d="M311.484,135.882c-17.021-17.418-41.603-23.852-61.484-20.131c-19.882-3.721-44.464,2.713-61.484,20.131c-13.061,13.365-22.283,30.165-22.283,51.08c0,24.372,15.268,44.372,25.934,48.538c-7.33-33.49-0.484-59.331,5.084-68.5c1.798-2.157,29.369-5.491,52.75-5.619c23.381,0.128,50.952,3.462,52.75,5.619c5.568,9.169,12.414,35.01,5.084,68.5c10.666-4.167,25.934-24.167,25.934-48.538C333.768,166.047,324.545,149.248,311.484,135.882z"></path><g><linearGradient id="hair1XMLID_2728_" gradientUnits="userSpaceOnUse" x1="306.7168" y1="200.667" x2="306.7168" y2="146"><stop offset="0" style="stop-color:#FCFCE4"></stop><stop offset="0.5" style="stop-color:#A0C8DD"></stop><stop offset="1" style="stop-color:#5D6EC5"></stop></linearGradient><path style="fill:url(#hair1XMLID_2728_);stroke:#1E1E1E;stroke-linecap:round;stroke-linejoin:round;" d="M307.117,199.34c-0.67,1.005,2.346,82.074-15.744,108.539c23.114-15.074,35.175-53.6,29.145-103.85"></path><linearGradient id="hair1XMLID_2729_" gradientUnits="userSpaceOnUse" x1="308.9453" y1="200.667" x2="308.9453" y2="146"><stop offset="0" style="stop-color:#FCFCE4"></stop><stop offset="0.5" style="stop-color:#A0C8DD"></stop><stop offset="1" style="stop-color:#5D6EC5"></stop></linearGradient><path style="fill:url(#hair1XMLID_2729_);stroke:#1E1E1E;stroke-linecap:round;stroke-linejoin:round;" d="M292.35,169.859c0,0,20.771,56.28,9.381,85.426c12.06-7.705,14.739-34.506,13.399-48.91c2.345,12.729,4.69,27.47,0.67,35.51c16.415-21.439,12.396-62.311-14.404-85.425"></path><linearGradient id="hair1XMLID_2730_" gradientUnits="userSpaceOnUse" x1="275.873" y1="200.667" x2="275.873" y2="146"><stop offset="0" style="stop-color:#FCFCE4"></stop><stop offset="0.5" style="stop-color:#A0C8DD"></stop><stop offset="1" style="stop-color:#5D6EC5"></stop></linearGradient><path style="fill:url(#hair1XMLID_2730_);stroke:#1E1E1E;stroke-linecap:round;stroke-linejoin:round;" d="M251.508,162.155c0,0,17.085,14.74,19.095,37.185c4.276-2.916,9.784-11.249,11.11-21.065c2.801,5.571,6.564,14.953,6.979,25.755c8.375-6.365,17.085-26.129,7.035-47.905"></path><linearGradient id="hair1XMLID_2731_" gradientUnits="userSpaceOnUse" x1="191.3618" y1="200.667" x2="191.3618" y2="146"><stop offset="0" style="stop-color:#FCFCE4"></stop><stop offset="0.5" style="stop-color:#A0C8DD"></stop><stop offset="1" style="stop-color:#5D6EC5"></stop></linearGradient><path style="fill:url(#hair1XMLID_2731_);stroke:#1E1E1E;stroke-linecap:round;stroke-linejoin:round;" d="M207.958,169.859c0,0-20.771,56.28-9.381,85.426c-12.06-7.705-14.739-34.506-13.399-48.91c-2.345,12.729-4.69,27.47-0.67,35.51c-16.415-21.439-12.396-62.311,14.404-85.425"></path><linearGradient id="hair1XMLID_2732_" gradientUnits="userSpaceOnUse" x1="210.6611" y1="200.667" x2="210.6611" y2="146.0002"><stop offset="0" style="stop-color:#FCFCE4"></stop><stop offset="0.5" style="stop-color:#A0C8DD"></stop><stop offset="1" style="stop-color:#5D6EC5"></stop></linearGradient><path style="fill:url(#hair1XMLID_2732_);stroke:#1E1E1E;stroke-linecap:round;stroke-linejoin:round;" d="M223.667,162c0,0-17.216,18.244-19.226,36.838c-8.375-6.701-10.218-30.318,1.507-42.546"></path><linearGradient id="hair1XMLID_2733_" gradientUnits="userSpaceOnUse" x1="244.0112" y1="200.667" x2="244.0112" y2="146.0002"><stop offset="0" style="stop-color:#FCFCE4"></stop><stop offset="0.5" style="stop-color:#A0C8DD"></stop><stop offset="1" style="stop-color:#5D6EC5"></stop></linearGradient><path style="fill:url(#hair1XMLID_2733_);stroke:#1E1E1E;stroke-linecap:round;stroke-linejoin:round;" d="M221.692,158.135c-1.005,1.005-7.035,28.978,9.548,40.367c-3.518-7.035-0.838-21.607-0.838-21.607s1.34,17.085,24.455,22.78c3.351,3.685,4.021,5.36,4.021,5.36s20.1-29.146,1.34-47.57"></path><path style="fill:none;stroke:#1E1E1E;stroke-linecap:round;stroke-linejoin:round;" d="M242.798,171.869c0,0,0.335,12.061,13.399,27.806"></path><linearGradient id="hair1XMLID_2734_" gradientUnits="userSpaceOnUse" x1="240.1177" y1="200.667" x2="240.1177" y2="146"><stop offset="0" style="stop-color:#FCFCE4"></stop><stop offset="0.5" style="stop-color:#A0C8DD"></stop><stop offset="1" style="stop-color:#5D6EC5"></stop></linearGradient><path style="fill:url(#hair1XMLID_2734_);stroke:#1E1E1E;stroke-linecap:round;stroke-linejoin:round;" d="M225.713,142.278c0,0,6.699-12.73,13.399-13.735c6.7-1.005,15.41,10.05,15.41,10.05"></path></g><g><g><path style="fill:#FFF0DE;" d="M182.339,181.536c0,0,5.852-11.712,8.195-12.295c2.342-0.585-0.816,19.084-4.1,18.149C183.363,186.513,181.168,184.318,182.339,181.536z"></path><path style="fill:#FFF0DE;" d="M190.453,186.217c0,0,0.45-7.659,2.929-9.365c2.478-1.707,1.757,11.708,0,11.708C191.624,188.56,190.453,189.145,190.453,186.217z"></path><path style="fill:#FFF0DE;" d="M316.744,181.536c0,0-5.853-11.712-8.195-12.295c-2.343-0.585,0.816,19.084,4.1,18.149C315.721,186.513,317.915,184.318,316.744,181.536z"></path><path style="fill:#FFF0DE;" d="M308.631,186.217c0,0-0.451-7.659-2.93-9.365c-2.478-1.707-1.756,11.708,0,11.708C307.459,188.56,308.631,189.145,308.631,186.217z"></path></g><path style="fill:#FFF0DE;" d="M249.494,187.72c0,0,0-11.417,2.635-14.489c2.632-3.074,6.059,14.753,3.074,16.245C252.567,190.794,249.494,190.794,249.494,187.72z"></path><path style="fill:#FFF0DE;" d="M259.156,187.72c-1.762-2.196,0-10.1,0.875-11.417c0.879-1.317,4.391,10.098,2.635,12.294C260.402,191.426,260.91,189.915,259.156,187.72z"></path></g></g></svg>