<svg xmlns="http://www.w3.org/2000/svg" width="500" height="500" version="1.1"><g id="x045"><g><linearGradient id="hair1XMLID_2741_" gradientUnits="userSpaceOnUse" x1="250.0005" y1="213.667" x2="250.0005" y2="152.6669"><stop offset="0" style="stop-color:#FCFCE4"></stop><stop offset="0.5" style="stop-color:#A0C8DD"></stop><stop offset="1" style="stop-color:#5D6EC5"></stop></linearGradient><path style="fill:url(#hair1XMLID_2741_);stroke:#1E1E1E;stroke-linecap:round;stroke-linejoin:round;" d="M311.484,135.882c-17.021-17.418-41.603-23.852-61.484-20.131c-19.882-3.721-44.464,2.713-61.484,20.131c-13.061,13.365-22.283,30.165-22.283,51.08c0,24.372,15.268,44.372,25.934,48.538c-7.33-33.49-0.484-59.331,5.084-68.5c1.798-2.157,29.369-5.491,52.75-5.619c23.381,0.128,50.952,3.462,52.75,5.619c5.568,9.169,12.414,35.01,5.084,68.5c10.666-4.167,25.934-24.167,25.934-48.538C333.768,166.047,324.545,149.248,311.484,135.882z"></path><g><g><linearGradient id="hair1XMLID_2742_" gradientUnits="userSpaceOnUse" x1="189.4766" y1="213.667" x2="189.4766" y2="152.6669"><stop offset="0" style="stop-color:#FCFCE4"></stop><stop offset="0.5" style="stop-color:#A0C8DD"></stop><stop offset="1" style="stop-color:#5D6EC5"></stop></linearGradient><path style="fill:url(#hair1XMLID_2742_);stroke:#1E1E1E;stroke-linecap:round;stroke-linejoin:round;" d="M195.731,152.218c-3.191,2.753-8.792,9.375-8.945,9.825c-5.989,8.308-10.021,18.251-11.988,28.433c-4.083,6.836-9.595,14.049-17.481,21.592c6.918-3.238,12.179-6.619,16.134-9.701c-4.074,18.635-0.622,32.613,11.113,41.416c-3.573-12.954-1.34-27.694,4.913-37.408c-1.34,14.404-7.146,37.854,14.74,52.594c-18.761-38.413,17.42-96.033,17.42-96.033"></path></g><linearGradient id="hair1XMLID_2743_" gradientUnits="userSpaceOnUse" x1="305.1631" y1="213.667" x2="305.1631" y2="152.667"><stop offset="0" style="stop-color:#FCFCE4"></stop><stop offset="0.5" style="stop-color:#A0C8DD"></stop><stop offset="1" style="stop-color:#5D6EC5"></stop></linearGradient><path style="fill:url(#hair1XMLID_2743_);stroke:#1E1E1E;stroke-linecap:round;stroke-linejoin:round;" d="M269.43,200.01c0,0,29.034,26.799,71.467,22.332c-26.353-12.506-43.326-54.047-44.666-53.152c-1.341,0.893-15.187-12.507-16.975-12.507"></path><linearGradient id="hair1XMLID_2744_" gradientUnits="userSpaceOnUse" x1="299.4199" y1="213.667" x2="299.4199" y2="152.6673"><stop offset="0" style="stop-color:#FCFCE4"></stop><stop offset="0.5" style="stop-color:#A0C8DD"></stop><stop offset="1" style="stop-color:#5D6EC5"></stop></linearGradient><path style="fill:url(#hair1XMLID_2744_);stroke:#1E1E1E;stroke-linecap:round;stroke-linejoin:round;" d="M282.83,198.669c0,0,26.354,11.167,32.607,44.667c4.021-35.733-13.848-50.92-31.268-59.854"></path><linearGradient id="hair1XMLID_2745_" gradientUnits="userSpaceOnUse" x1="306.2793" y1="213.667" x2="306.2793" y2="152.6669"><stop offset="0" style="stop-color:#FCFCE4"></stop><stop offset="0.5" style="stop-color:#A0C8DD"></stop><stop offset="1" style="stop-color:#5D6EC5"></stop></linearGradient><path style="fill:url(#hair1XMLID_2745_);stroke:#1E1E1E;stroke-linecap:round;stroke-linejoin:round;" d="M288.637,192.416c0,0,25.014,20.1,35.286,44.22c-0.446-19.206-7.146-44.667-25.46-57.62"></path><linearGradient id="hair1XMLID_2746_" gradientUnits="userSpaceOnUse" x1="294.9248" y1="213.667" x2="294.9248" y2="152.667"><stop offset="0" style="stop-color:#FCFCE4"></stop><stop offset="0.5" style="stop-color:#A0C8DD"></stop><stop offset="1" style="stop-color:#5D6EC5"></stop></linearGradient><path style="fill:url(#hair1XMLID_2746_);stroke:#1E1E1E;stroke-linecap:round;stroke-linejoin:round;" d="M247.167,161.5c0,0,15.117,51.909,69.609,51.463c-21.44-14.293-37.072-50.474-37.072-50.474c15.632,23.673,30.374,34.394,62.979,34.394c-26.354-12.953-45.113-35.733-51.813-50.027"></path><linearGradient id="hair1XMLID_2747_" gradientUnits="userSpaceOnUse" x1="255.4883" y1="213.667" x2="255.4883" y2="152.667"><stop offset="0" style="stop-color:#FCFCE4"></stop><stop offset="0.5" style="stop-color:#A0C8DD"></stop><stop offset="1" style="stop-color:#5D6EC5"></stop></linearGradient><path style="fill:url(#hair1XMLID_2747_);stroke:#1E1E1E;stroke-linecap:round;stroke-linejoin:round;" d="M220.744,154.449c-3.574,8.933-3.574,60.3,30.819,69.68c-16.08-16.973-15.188-38.414-15.188-38.414s5.808,40.647,43.774,48.688c-10.274-16.526-25.46-41.54-25.46-41.54s10.72,23.227,37.073,25.907c-20.1-9.827-41.987-58.514-41.987-58.514"></path></g></g><g><g><path style="fill:#FFF0DE;" d="M178.006,181.536c0,0,5.852-11.712,8.195-12.295c2.342-0.585-0.816,19.084-4.1,18.149C179.029,186.513,176.834,184.318,178.006,181.536z"></path><path style="fill:#FFF0DE;" d="M186.119,186.217c0,0,0.45-7.659,2.929-9.365c2.478-1.707,1.757,11.708,0,11.708C187.291,188.56,186.119,189.145,186.119,186.217z"></path></g><path style="fill:#FFF0DE;" d="M242.828,187.72c0,0,0-11.417,2.635-14.489c2.631-3.074,6.058,14.753,3.074,16.245C245.901,190.794,242.828,190.794,242.828,187.72z"></path><path style="fill:#FFF0DE;" d="M252.489,187.72c-1.761-2.196,0-10.1,0.876-11.417c0.879-1.317,4.391,10.098,2.635,12.294C253.736,191.426,254.244,189.915,252.489,187.72z"></path></g></g></svg>