<svg xmlns="http://www.w3.org/2000/svg" width="500" height="500" version="1.1"><g id="x046"><g><linearGradient id="hair1XMLID_2748_" gradientUnits="userSpaceOnUse" x1="250.0005" y1="225.667" x2="250.0005" y2="160.6671"><stop offset="0" style="stop-color:#FCFCE4"></stop><stop offset="0.5" style="stop-color:#A0C8DD"></stop><stop offset="1" style="stop-color:#5D6EC5"></stop></linearGradient><path style="fill:url(#hair1XMLID_2748_);stroke:#1E1E1E;stroke-linecap:round;stroke-linejoin:round;" d="M311.484,135.882c-17.021-17.418-41.603-23.852-61.484-20.131c-19.882-3.721-44.464,2.713-61.484,20.131c-13.061,13.365-22.283,30.165-22.283,51.08c0,24.372,15.268,44.372,25.934,48.538c-7.33-33.49-0.484-59.331,5.084-68.5c1.798-2.157,29.369-5.491,52.75-5.619c23.381,0.128,50.952,3.462,52.75,5.619c5.568,9.169,12.414,35.01,5.084,68.5c10.666-4.167,25.934-24.167,25.934-48.538C333.768,166.047,324.545,149.248,311.484,135.882z"></path><g><linearGradient id="hair1XMLID_2749_" gradientUnits="userSpaceOnUse" x1="210.2266" y1="225.667" x2="210.2266" y2="160.667"><stop offset="0" style="stop-color:#FCFCE4"></stop><stop offset="0.5" style="stop-color:#A0C8DD"></stop><stop offset="1" style="stop-color:#5D6EC5"></stop></linearGradient><path style="fill:url(#hair1XMLID_2749_);stroke:#1E1E1E;stroke-linecap:round;stroke-linejoin:round;" d="M230.414,161.596c0,0-29.48,32.16-39.754,69.233c-1.34-25.014-1.787-52.26,12.507-72.807"></path><linearGradient id="hair1XMLID_2750_" gradientUnits="userSpaceOnUse" x1="177.2896" y1="225.667" x2="177.2896" y2="160.667"><stop offset="0" style="stop-color:#FCFCE4"></stop><stop offset="0.5" style="stop-color:#A0C8DD"></stop><stop offset="1" style="stop-color:#5D6EC5"></stop></linearGradient><path style="fill:url(#hair1XMLID_2750_);stroke:#1E1E1E;stroke-linecap:round;stroke-linejoin:round;" d="M182.621,165.169c0,0-16.975,40.647,0,78.614c-26.801-25.908-26.801-76.381,8.485-104.968"></path><linearGradient id="hair1XMLID_2751_" gradientUnits="userSpaceOnUse" x1="190.7559" y1="225.667" x2="190.7559" y2="160.667"><stop offset="0" style="stop-color:#FCFCE4"></stop><stop offset="0.5" style="stop-color:#A0C8DD"></stop><stop offset="1" style="stop-color:#5D6EC5"></stop></linearGradient><path style="fill:url(#hair1XMLID_2751_);stroke:#1E1E1E;stroke-linecap:round;stroke-linejoin:round;" d="M208.974,156.906c0,0-31.267,65.661-0.894,95.586c-30.373-4.02-50.474-57.396-21.439-99.383"></path><linearGradient id="hair1XMLID_2752_" gradientUnits="userSpaceOnUse" x1="289.0117" y1="225.667" x2="289.0117" y2="160.667"><stop offset="0" style="stop-color:#FCFCE4"></stop><stop offset="0.5" style="stop-color:#A0C8DD"></stop><stop offset="1" style="stop-color:#5D6EC5"></stop></linearGradient><path style="fill:url(#hair1XMLID_2752_);stroke:#1E1E1E;stroke-linecap:round;stroke-linejoin:round;" d="M257.66,155.342c0,0,49.58,37.966,60.3,78.167c2.68-31.715,8.04-49.58-16.974-77.721"></path><linearGradient id="hair1XMLID_2753_" gradientUnits="userSpaceOnUse" x1="314.2939" y1="225.667" x2="314.2939" y2="160.667"><stop offset="0" style="stop-color:#FCFCE4"></stop><stop offset="0.5" style="stop-color:#A0C8DD"></stop><stop offset="1" style="stop-color:#5D6EC5"></stop></linearGradient><path style="fill:url(#hair1XMLID_2753_);stroke:#1E1E1E;stroke-linecap:round;stroke-linejoin:round;" d="M298.307,151.322c0,0,29.927,70.573,3.574,105.859c20.547-10.719,34.84-53.152,25.46-96.479"></path><linearGradient id="hair1XMLID_2754_" gradientUnits="userSpaceOnUse" x1="249.2876" y1="225.667" x2="249.2876" y2="160.667"><stop offset="0" style="stop-color:#FCFCE4"></stop><stop offset="0.5" style="stop-color:#A0C8DD"></stop><stop offset="1" style="stop-color:#5D6EC5"></stop></linearGradient><path style="fill:url(#hair1XMLID_2754_);stroke:#1E1E1E;stroke-linecap:round;stroke-linejoin:round;" d="M229.52,133.902c-1.34,0.447-13.847,77.721,37.073,98.268c-5.806-13.4-1.786-18.314-1.786-18.314s18.313-29.926-6.254-76.379"></path></g></g><g><g><path style="fill:#FFF0DE;" d="M178.006,181.536c0,0,5.852-11.712,8.195-12.295c2.342-0.585-0.816,19.084-4.1,18.149C179.029,186.513,176.834,184.318,178.006,181.536z"></path><path style="fill:#FFF0DE;" d="M186.119,186.217c0,0,0.45-7.659,2.929-9.365c2.478-1.707,1.757,11.708,0,11.708C187.291,188.56,186.119,189.145,186.119,186.217z"></path><path style="fill:#FFF0DE;" d="M325.077,181.536c0,0-5.853-11.712-8.195-12.295c-2.343-0.585,0.816,19.084,4.1,18.149C324.054,186.513,326.248,184.318,325.077,181.536z"></path><path style="fill:#FFF0DE;" d="M316.964,186.217c0,0-0.451-7.659-2.93-9.365c-2.478-1.707-1.756,11.708,0,11.708C315.792,188.56,316.964,189.145,316.964,186.217z"></path></g><path style="fill:#FFF0DE;" d="M242.828,187.72c0,0,0-11.417,2.635-14.489c2.631-3.074,6.058,14.753,3.074,16.245C245.901,190.794,242.828,190.794,242.828,187.72z"></path><path style="fill:#FFF0DE;" d="M252.489,187.72c-1.761-2.196,0-10.1,0.876-11.417c0.879-1.317,4.391,10.098,2.635,12.294C253.736,191.426,254.244,189.915,252.489,187.72z"></path></g></g></svg>