<svg xmlns="http://www.w3.org/2000/svg" width="500" height="500" version="1.1"><g id="x048"><g><linearGradient id="hair1XMLID_2765_" gradientUnits="userSpaceOnUse" x1="250.0005" y1="221" x2="250.0005" y2="153.667"><stop offset="0" style="stop-color:#FCFCE4"></stop><stop offset="0.5" style="stop-color:#A0C8DD"></stop><stop offset="1" style="stop-color:#5D6EC5"></stop></linearGradient><path style="fill:url(#hair1XMLID_2765_);stroke:#1E1E1E;stroke-linecap:round;stroke-linejoin:round;" d="M311.484,135.882c-17.021-17.418-41.603-23.852-61.484-20.131c-19.882-3.721-44.464,2.713-61.484,20.131c-13.061,13.365-22.283,30.165-22.283,51.08c0,24.372,15.268,44.372,25.934,48.538c-7.33-33.49-0.484-59.331,5.084-68.5c1.798-2.157,29.369-5.491,52.75-5.619c23.381,0.128,50.952,3.462,52.75,5.619c5.568,9.169,12.414,35.01,5.084,68.5c10.666-4.167,25.934-24.167,25.934-48.538C333.768,166.047,324.545,149.248,311.484,135.882z"></path><g><linearGradient id="hair1XMLID_2766_" gradientUnits="userSpaceOnUse" x1="290.6934" y1="221" x2="290.6934" y2="153.667"><stop offset="0" style="stop-color:#FCFCE4"></stop><stop offset="0.5" style="stop-color:#A0C8DD"></stop><stop offset="1" style="stop-color:#5D6EC5"></stop></linearGradient><path style="fill:url(#hair1XMLID_2766_);stroke:#1E1E1E;stroke-linecap:round;stroke-linejoin:round;" d="M264.218,162.5c0,0,2.681,38.86,32.606,60.747c6.7,10.273,8.934,20.994,15.634,23.227c-1.34-14.74-4.466-12.506,0.894-26.799c5.36-14.294,7.594-51.814-10.72-63.874"></path><linearGradient id="hair1XMLID_2767_" gradientUnits="userSpaceOnUse" x1="305.0801" y1="221" x2="305.0801" y2="153.667"><stop offset="0" style="stop-color:#FCFCE4"></stop><stop offset="0.5" style="stop-color:#A0C8DD"></stop><stop offset="1" style="stop-color:#5D6EC5"></stop></linearGradient><path style="fill:url(#hair1XMLID_2767_);stroke:#1E1E1E;stroke-linecap:round;stroke-linejoin:round;" d="M311.771,152.002c0,0,8.486,18.313,8.933,29.033c0.448,10.721-7.592,34.84-7.592,41.094s4.466,11.613,6.252,19.654c1.788,8.039-10.272,15.633-13.4,25.012c-3.126,9.381,12.061,22.781-6.252,52.262c0.893-12.955-0.894-42.881-6.254-50.475c-5.359-7.594,5.807-22.334,8.486-27.246c2.68-4.914-12.786-28.907-10.479-37.074c5.807-20.547-0.24-46.006-2.026-50.026"></path><linearGradient id="hair1XMLID_2768_" gradientUnits="userSpaceOnUse" x1="201.1357" y1="221" x2="201.1357" y2="153.667"><stop offset="0" style="stop-color:#FCFCE4"></stop><stop offset="0.5" style="stop-color:#A0C8DD"></stop><stop offset="1" style="stop-color:#5D6EC5"></stop></linearGradient><path style="fill:url(#hair1XMLID_2768_);stroke:#1E1E1E;stroke-linecap:round;stroke-linejoin:round;" d="M221.338,161.383c0,0-5.36,27.247-18.76,42.88c-4.914,19.206-10.273,43.326-7.147,58.513c-8.933-16.974-7.33-44.889-10.72-54.493c-5.36-15.189-4.764-32.365,0.201-46.097"></path><linearGradient id="hair1XMLID_2769_" gradientUnits="userSpaceOnUse" x1="189.1685" y1="221" x2="189.1685" y2="153.6669"><stop offset="0" style="stop-color:#FCFCE4"></stop><stop offset="0.5" style="stop-color:#A0C8DD"></stop><stop offset="1" style="stop-color:#5D6EC5"></stop></linearGradient><path style="fill:url(#hair1XMLID_2769_);stroke:#1E1E1E;stroke-linecap:round;stroke-linejoin:round;" d="M182.478,153.789c0,0-8.487,18.313-8.934,29.033c-0.446,10.72,7.594,34.84,7.594,41.094c0,6.253-4.468,11.613-6.254,19.652c-1.786,8.041,10.273,15.634,13.4,25.014c3.127,9.381-12.06,22.779,6.254,52.26c-0.894-12.953,0.893-42.879,6.253-50.473s-5.807-22.334-8.486-27.247c-2.681-4.913,6.253-28.14,6.253-36.626s4.467-46.454,6.253-50.474"></path><g><linearGradient id="hair1XMLID_2770_" gradientUnits="userSpaceOnUse" x1="250.3374" y1="221" x2="250.3374" y2="153.667"><stop offset="0" style="stop-color:#FCFCE4"></stop><stop offset="0.5" style="stop-color:#A0C8DD"></stop><stop offset="1" style="stop-color:#5D6EC5"></stop></linearGradient><path style="fill:url(#hair1XMLID_2770_);stroke:#1E1E1E;stroke-linecap:round;stroke-linejoin:round;" d="M224.464,154.236c-1.787,1.34-7.146,20.1-4.02,32.16c3.126,12.06,2.681,42.879,15.634,54.045c5.917,5.103,24.118,13.848,25.906,23.674c1.786,9.826-0.894,31.715,19.206,46.006c-3.572-7.592-13.847-32.158-5.36-50.473c1.788-6.254-16.527-12.951-20.993-21.885c-4.467-8.934,27.247-61.194,13.848-83.527"></path><path style="fill:none;stroke:#1E1E1E;stroke-linecap:round;stroke-linejoin:round;" d="M233.398,158.702c0,0-5.807,71.466,6.253,83.08"></path></g></g></g><path style="fill:#FFF0DE;" d="M332.41,181.536c0,0-5.853-11.712-8.195-12.295c-2.343-0.585,0.816,19.084,4.1,18.149C331.387,186.513,333.581,184.318,332.41,181.536z"></path><path style="fill:#FFF0DE;" d="M326.297,186.217c0,0-0.451-7.659-2.93-9.365c-2.478-1.707-1.756,11.708,0,11.708C325.125,188.56,326.297,189.145,326.297,186.217z"></path><g><g><path style="fill:#FFF0DE;" d="M175.672,181.536c0,0,5.852-11.712,8.195-12.295c2.342-0.585-0.816,19.084-4.1,18.149C176.696,186.513,174.501,184.318,175.672,181.536z"></path><path style="fill:#FFF0DE;" d="M183.786,186.217c0,0,0.45-7.659,2.929-9.365c2.478-1.707,1.757,11.708,0,11.708C184.957,188.56,183.786,189.145,183.786,186.217z"></path></g><path style="fill:#FFF0DE;" d="M242.828,187.72c0,0,0-11.417,2.635-14.489c2.631-3.074,6.058,14.753,3.074,16.245C245.901,190.794,242.828,190.794,242.828,187.72z"></path><path style="fill:#FFF0DE;" d="M252.489,187.72c-1.761-2.196,0-10.1,0.876-11.417c0.879-1.317,4.391,10.098,2.635,12.294C253.736,191.426,254.244,189.915,252.489,187.72z"></path></g></g></svg>