<svg xmlns="http://www.w3.org/2000/svg" width="500" height="500" version="1.1"><g id="x049"><g><linearGradient id="hair1XMLID_2771_" gradientUnits="userSpaceOnUse" x1="250.0005" y1="217" x2="250.0005" y2="156"><stop offset="0" style="stop-color:#FCFCE4"></stop><stop offset="0.5" style="stop-color:#A0C8DD"></stop><stop offset="1" style="stop-color:#5D6EC5"></stop></linearGradient><path style="fill:url(#hair1XMLID_2771_);stroke:#1E1E1E;stroke-linecap:round;stroke-linejoin:round;" d="M311.484,135.882c-17.021-17.418-41.603-23.852-61.484-20.131c-19.882-3.721-44.464,2.713-61.484,20.131c-13.061,13.365-22.283,30.165-22.283,51.08c0,24.372,15.268,44.372,25.934,48.538c-7.33-33.49-0.484-59.331,5.084-68.5c1.798-2.157,29.369-5.491,52.75-5.619c23.381,0.128,50.952,3.462,52.75,5.619c5.568,9.169,12.414,35.01,5.084,68.5c10.666-4.167,25.934-24.167,25.934-48.538C333.768,166.047,324.545,149.248,311.484,135.882z"></path><g><linearGradient id="hair1XMLID_2772_" gradientUnits="userSpaceOnUse" x1="296.0195" y1="217" x2="296.0195" y2="155.9998"><stop offset="0" style="stop-color:#FCFCE4"></stop><stop offset="0.5" style="stop-color:#A0C8DD"></stop><stop offset="1" style="stop-color:#5D6EC5"></stop></linearGradient><path style="fill:url(#hair1XMLID_2772_);stroke:#1E1E1E;stroke-linecap:round;stroke-linejoin:round;" d="M278.022,162.489c0,0,8.933,38.414,35.732,50.027c1.341-14.293-2.233-40.646-16.08-55.387"></path><linearGradient id="hair1XMLID_2773_" gradientUnits="userSpaceOnUse" x1="184.2573" y1="217" x2="184.2573" y2="156"><stop offset="0" style="stop-color:#FCFCE4"></stop><stop offset="0.5" style="stop-color:#A0C8DD"></stop><stop offset="1" style="stop-color:#5D6EC5"></stop></linearGradient><path style="fill:url(#hair1XMLID_2773_);stroke:#1E1E1E;stroke-linecap:round;stroke-linejoin:round;" d="M193.603,172.762c0,0-15.187,47.794,4.02,73.254c-13.4-8.04-17.42-20.1-17.866-29.927c1.34,25.013,10.272,44.667,25.906,48.687c-25.46-1.34-54.494-22.334-37.966-81.74"></path><linearGradient id="hair1XMLID_2774_" gradientUnits="userSpaceOnUse" x1="199.4985" y1="217" x2="199.4985" y2="156"><stop offset="0" style="stop-color:#FCFCE4"></stop><stop offset="0.5" style="stop-color:#A0C8DD"></stop><stop offset="1" style="stop-color:#5D6EC5"></stop></linearGradient><path style="fill:url(#hair1XMLID_2774_);stroke:#1E1E1E;stroke-linecap:round;stroke-linejoin:round;" d="M214.148,161.596c0,0-20.992,25.906-25.013,66.553c-8.487-14.739-4.021-50.92,10.272-68.339"></path><g><linearGradient id="hair1XMLID_2775_" gradientUnits="userSpaceOnUse" x1="250.9194" y1="217" x2="250.9194" y2="156"><stop offset="0" style="stop-color:#FCFCE4"></stop><stop offset="0.5" style="stop-color:#A0C8DD"></stop><stop offset="1" style="stop-color:#5D6EC5"></stop></linearGradient><path style="fill:url(#hair1XMLID_2775_);stroke:#1E1E1E;stroke-linecap:round;stroke-linejoin:round;" d="M219.063,145.069c-1.341,0.447-22.78,54.046,14.739,73.701c-3.573-8.934-6.253-25.461-6.253-25.461s4.467,20.101,30.373,23.227c-6.253-5.807-11.167-15.186-11.167-15.186s14.74,21.887,43.327,18.76c-0.948-1.233-6.229-9.68-7.146-11.168c3.857-23.375,6.304-41.172-8.486-60.746"></path><linearGradient id="hair1XMLID_2776_" gradientUnits="userSpaceOnUse" x1="273.1094" y1="217" x2="273.1094" y2="156"><stop offset="0" style="stop-color:#FCFCE4"></stop><stop offset="0.5" style="stop-color:#A0C8DD"></stop><stop offset="1" style="stop-color:#5D6EC5"></stop></linearGradient><path style="fill:url(#hair1XMLID_2776_);stroke:#1E1E1E;stroke-linecap:round;stroke-linejoin:round;" d="M263.729,158.469c0,0,14.739,17.419,18.76,50.919"></path></g><g><linearGradient id="hair1XMLID_2777_" gradientUnits="userSpaceOnUse" x1="202.7593" y1="217" x2="202.7593" y2="156.0001"><stop offset="0" style="stop-color:#FCFCE4"></stop><stop offset="0.5" style="stop-color:#A0C8DD"></stop><stop offset="1" style="stop-color:#5D6EC5"></stop></linearGradient><path style="fill:url(#hair1XMLID_2777_);stroke:#1E1E1E;stroke-linecap:round;stroke-linejoin:round;" d="M185.563,151.322c0,0,17.42-17.42,34.394-11.167c-12.061-8.04-23.228-12.06-23.228-12.06L185.563,151.322z"></path><linearGradient id="hair1XMLID_2778_" gradientUnits="userSpaceOnUse" x1="191.0396" y1="217" x2="191.0396" y2="156"><stop offset="0" style="stop-color:#FCFCE4"></stop><stop offset="0.5" style="stop-color:#A0C8DD"></stop><stop offset="1" style="stop-color:#5D6EC5"></stop></linearGradient><path style="fill:url(#hair1XMLID_2778_);stroke:#1E1E1E;stroke-linecap:round;stroke-linejoin:round;" d="M221.296,141.496c0,0-18.76-8.04-22.78-8.486c-4.02-0.447-50.92,75.04-24.567,139.805c-27.692-41.985-14.74-120.599,20.994-153.206c0,0,17.866,5.807,28.14,19.207L221.296,141.496z"></path></g><g><linearGradient id="hair1XMLID_2779_" gradientUnits="userSpaceOnUse" x1="252.1094" y1="217" x2="252.1094" y2="156.0001"><stop offset="0" style="stop-color:#FCFCE4"></stop><stop offset="0.5" style="stop-color:#A0C8DD"></stop><stop offset="1" style="stop-color:#5D6EC5"></stop></linearGradient><path style="fill:url(#hair1XMLID_2779_);stroke:#1E1E1E;stroke-linecap:round;stroke-linejoin:round;" d="M232.016,139.709c0,0,6.253-6.7,16.08-8.487c9.826-1.787,24.119,7.147,24.119,7.147s-14.293-16.974-27.692-17.867C231.122,119.609,232.016,139.709,232.016,139.709z"></path><linearGradient id="hair1XMLID_2780_" gradientUnits="userSpaceOnUse" x1="283.8291" y1="217" x2="283.8291" y2="156"><stop offset="0" style="stop-color:#FCFCE4"></stop><stop offset="0.5" style="stop-color:#A0C8DD"></stop><stop offset="1" style="stop-color:#5D6EC5"></stop></linearGradient><path style="fill:url(#hair1XMLID_2780_);stroke:#1E1E1E;stroke-linecap:round;stroke-linejoin:round;" d="M341.002,210.282c-0.893-92.907-73.7-113.007-98.714-108.54c-10.272,9.38-15.632,36.627-15.632,37.967l4.02-0.447c0,0,11.166-20.1,16.08-18.313c51.366,22.78,62.086,84.866,62.086,117.473c3.402-4.678,5.385-10.316,6.435-16.194c3.709-4.485,5.8-8.433,7.052-11.969c2.04,11.634,2.046,23.272,0.361,32.183c29.927-51.366-15.188-106.752-15.188-106.752C326.709,154.002,339.215,191.969,341.002,210.282z"></path><path style="fill:none;stroke:#1E1E1E;stroke-linecap:round;stroke-linejoin:round;" d="M306.609,179.016c0,0,14.739,28.141,5.806,53.153"></path></g></g></g><path style="fill:#FFF0DE;" d="M328.077,181.536c0,0-5.853-11.712-8.195-12.295c-2.343-0.585,0.816,19.084,4.1,18.149C327.054,186.513,329.248,184.318,328.077,181.536z"></path><path style="fill:#FFF0DE;" d="M319.964,186.217c0,0-0.451-7.659-2.93-9.365c-2.478-1.707-1.756,11.708,0,11.708C318.792,188.56,319.964,189.145,319.964,186.217z"></path><g><g><path style="fill:#FFF0DE;" d="M175.339,181.536c0,0,5.852-11.712,8.195-12.295c2.342-0.585-0.816,19.084-4.1,18.149C176.363,186.513,174.168,184.318,175.339,181.536z"></path><path style="fill:#FFF0DE;" d="M181.453,186.217c0,0,0.45-7.659,2.929-9.365c2.478-1.707,1.757,11.708,0,11.708C182.624,188.56,181.453,189.145,181.453,186.217z"></path></g><path style="fill:#FFF0DE;" d="M242.828,187.72c0,0,0-11.417,2.635-14.489c2.631-3.074,6.058,14.753,3.074,16.245C245.901,190.794,242.828,190.794,242.828,187.72z"></path><path style="fill:#FFF0DE;" d="M252.489,187.72c-1.761-2.196,0-10.1,0.876-11.417c0.879-1.317,4.391,10.098,2.635,12.294C253.736,191.426,254.244,189.915,252.489,187.72z"></path></g></g></svg>