<svg xmlns="http://www.w3.org/2000/svg" width="500" height="500" version="1.1"><g id="x005"><g><g><linearGradient id="hair1XMLID_2466_" gradientUnits="userSpaceOnUse" x1="250.0005" y1="217.3335" x2="250.0005" y2="176"><stop offset="0" style="stop-color:#FCFCE4"></stop><stop offset="0.5" style="stop-color:#A0C8DD"></stop><stop offset="1" style="stop-color:#5D6EC5"></stop></linearGradient><path style="fill:url(#hair1XMLID_2466_);stroke:#1E1E1E;stroke-linecap:round;stroke-linejoin:round;" d="M311.484,135.882c-17.021-17.418-41.603-23.852-61.484-20.131c-19.882-3.721-44.464,2.713-61.484,20.131c-13.061,13.365-22.283,30.165-22.283,51.08c0,24.372,15.268,44.372,25.934,48.538c-7.33-33.49-0.484-59.331,5.084-68.5c1.798-2.157,29.369-5.491,52.75-5.619c23.381,0.128,50.952,3.462,52.75,5.619c5.568,9.169,12.414,35.01,5.084,68.5c10.666-4.167,25.934-24.167,25.934-48.538C333.768,166.047,324.545,149.248,311.484,135.882z"></path><g><g><g><linearGradient id="hair1XMLID_2467_" gradientUnits="userSpaceOnUse" x1="248.624" y1="225.4121" x2="248.624" y2="154.0786"><stop offset="0" style="stop-color:#FCFCE4"></stop><stop offset="0.5" style="stop-color:#A0C8DD"></stop><stop offset="1" style="stop-color:#5D6EC5"></stop></linearGradient><path style="fill:url(#hair1XMLID_2467_);stroke:#1E1E1E;stroke-linecap:round;stroke-linejoin:round;" d="M211.223,133.048c-46.938,18.774-43.396,84.571-20.396,110.332c0.695-37.319,14.486-66.525,14.486-66.525l65.712-9.04c0,0,5.91,37.898,43.81,57.021c22.252-40.332-6.26-83.792-32.336-91.788"></path><linearGradient id="hair1XMLID_2468_" gradientUnits="userSpaceOnUse" x1="206.7368" y1="225.4121" x2="206.7368" y2="154.0785"><stop offset="0" style="stop-color:#FCFCE4"></stop><stop offset="0.5" style="stop-color:#A0C8DD"></stop><stop offset="1" style="stop-color:#5D6EC5"></stop></linearGradient><path style="fill:url(#hair1XMLID_2468_);stroke:#1E1E1E;stroke-linecap:round;stroke-linejoin:round;" d="M224.088,166.773c-5.215,7.301-24.686,31.64-24.338,59.455c-10.431-11.126-14.951-41.375-4.172-57.021"></path><linearGradient id="hair1XMLID_2469_" gradientUnits="userSpaceOnUse" x1="305.5371" y1="225.4121" x2="305.5371" y2="154.0787"><stop offset="0" style="stop-color:#FCFCE4"></stop><stop offset="0.5" style="stop-color:#A0C8DD"></stop><stop offset="1" style="stop-color:#5D6EC5"></stop></linearGradient><path style="fill:url(#hair1XMLID_2469_);stroke:#1E1E1E;stroke-linecap:round;stroke-linejoin:round;" d="M290.388,179.249c8.452,12.209,19.925,43.85,4.278,66.449c13.908-3.129,30.945-27.467,24.688-57.368"></path></g></g><linearGradient id="hair1XMLID_2470_" gradientUnits="userSpaceOnUse" x1="245.3989" y1="225.4121" x2="245.3989" y2="154.0785"><stop offset="0" style="stop-color:#FCFCE4"></stop><stop offset="0.5" style="stop-color:#A0C8DD"></stop><stop offset="1" style="stop-color:#5D6EC5"></stop></linearGradient><path style="fill:url(#hair1XMLID_2470_);stroke:#1E1E1E;stroke-linecap:round;stroke-linejoin:round;" d="M270.328,157.038c0,0,6.953,28.858-8.691,44.503c-11.474,10.778-22.946,18.775-22.946,18.775s-30.596-22.6-15.646-61.193"></path><linearGradient id="hair1XMLID_2471_" gradientUnits="userSpaceOnUse" x1="246.2622" y1="225.4121" x2="246.2622" y2="154.0784"><stop offset="0" style="stop-color:#FCFCE4"></stop><stop offset="0.5" style="stop-color:#A0C8DD"></stop><stop offset="1" style="stop-color:#5D6EC5"></stop></linearGradient><path style="fill:url(#hair1XMLID_2471_);stroke:#1E1E1E;stroke-linecap:round;stroke-linejoin:round;" d="M262.68,187.634c0,0-12.517,35.812-5.563,50.067c-15.646-8.692-28.857-26.076-27.118-51.11"></path></g></g></g><g><g><path style="fill:#FFF0DE;" d="M181.506,181.536c0,0,5.852-11.712,8.195-12.295c2.342-0.585-0.816,19.084-4.1,18.149C182.529,186.513,180.334,184.318,181.506,181.536z"></path><path style="fill:#FFF0DE;" d="M191.286,186.217c0,0,0.45-7.659,2.929-9.365c2.478-1.707,1.757,11.708,0,11.708C192.458,188.56,191.286,189.145,191.286,186.217z"></path><path style="fill:#FFF0DE;" d="M318.494,181.536c0,0-5.853-11.712-8.195-12.295c-2.343-0.585,0.816,19.084,4.1,18.149C317.471,186.513,319.665,184.318,318.494,181.536z"></path><path style="fill:#FFF0DE;" d="M310.381,186.217c0,0-0.451-7.659-2.93-9.365c-2.478-1.707-1.756,11.708,0,11.708C309.209,188.56,310.381,189.145,310.381,186.217z"></path></g><path style="fill:#FFF0DE;" d="M239.911,192.22c0,0,0-11.417,2.635-14.489c2.631-3.074,6.058,14.753,3.074,16.245C242.984,195.294,239.911,195.294,239.911,192.22z"></path><path style="fill:#FFF0DE;" d="M249.573,192.22c-1.761-2.196,0-10.1,0.876-11.417c0.879-1.317,4.391,10.098,2.635,12.294C250.82,195.926,251.328,194.415,249.573,192.22z"></path></g></g></svg>