<svg xmlns="http://www.w3.org/2000/svg" width="500" height="500" version="1.1"><g id="x050"><g><linearGradient id="hair1XMLID_2781_" gradientUnits="userSpaceOnUse" x1="250.0005" y1="227.3335" x2="250.0005" y2="158.3335"><stop offset="0" style="stop-color:#FCFCE4"></stop><stop offset="0.5" style="stop-color:#A0C8DD"></stop><stop offset="1" style="stop-color:#5D6EC5"></stop></linearGradient><path style="fill:url(#hair1XMLID_2781_);stroke:#1E1E1E;stroke-linecap:round;stroke-linejoin:round;" d="M311.484,135.882c-17.021-17.418-41.603-23.852-61.484-20.131c-19.882-3.721-44.464,2.713-61.484,20.131c-13.061,13.365-22.283,30.165-22.283,51.08c0,24.372,15.268,44.372,25.934,48.538c-7.33-33.49-0.484-59.331,5.084-68.5c1.798-2.157,29.369-5.491,52.75-5.619c23.381,0.128,50.952,3.462,52.75,5.619c5.568,9.169,12.414,35.01,5.084,68.5c10.666-4.167,25.934-24.167,25.934-48.538C333.768,166.047,324.545,149.248,311.484,135.882z"></path><g><linearGradient id="hair1XMLID_2782_" gradientUnits="userSpaceOnUse" x1="206.1084" y1="227.3335" x2="206.1084" y2="158.3336"><stop offset="0" style="stop-color:#FCFCE4"></stop><stop offset="0.5" style="stop-color:#A0C8DD"></stop><stop offset="1" style="stop-color:#5D6EC5"></stop></linearGradient><path style="fill:url(#hair1XMLID_2782_);stroke:#1E1E1E;stroke-linecap:round;stroke-linejoin:round;" d="M229.008,155.469c0,0-6.7,53.599-43.326,65.212c-6.254-19.652-0.446-53.6,15.186-67.893"></path><g><linearGradient id="hair1XMLID_2783_" gradientUnits="userSpaceOnUse" x1="176.4644" y1="227.3335" x2="176.4644" y2="158.3335"><stop offset="0" style="stop-color:#FCFCE4"></stop><stop offset="0.5" style="stop-color:#A0C8DD"></stop><stop offset="1" style="stop-color:#5D6EC5"></stop></linearGradient><path style="fill:url(#hair1XMLID_2783_);stroke:#1E1E1E;stroke-linecap:round;stroke-linejoin:round;" d="M169.378,188.396c0,0-17.644,33.946-12.283,53.153c5.359,19.207,25.906,23.674,39.753,23.674c-9.145-12.281-14.01-33.578-16.474-49.143"></path><g><linearGradient id="hair1XMLID_2784_" gradientUnits="userSpaceOnUse" x1="188.6216" y1="227.3335" x2="188.6216" y2="158.3335"><stop offset="0" style="stop-color:#FCFCE4"></stop><stop offset="0.5" style="stop-color:#A0C8DD"></stop><stop offset="1" style="stop-color:#5D6EC5"></stop></linearGradient><path style="fill:url(#hair1XMLID_2784_);stroke:#1E1E1E;stroke-linecap:round;stroke-linejoin:round;" d="M196.252,189.289c0,0-11.167,47.347,9.38,64.32c-0.893,2.68-0.893,2.68-0.893,2.68s-3.563-1.191-6.868-4.752c3.645,5.646,8.034,11.58,9.548,12.792c-3.127,0.894-6.7,4.021-6.7,4.021s-3.534-0.324-8.24-2.242c3.183,3.236,7.049,8.424,10.027,9.834c-7.593,1.34-39.754-8.932-31.267-55.832"></path><path style="fill:none;stroke:#1E1E1E;stroke-linecap:round;stroke-linejoin:round;" d="M195.806,268.35c-0.447-1.787-20.993-7.594-20.547-41.094"></path></g></g><linearGradient id="hair1XMLID_2785_" gradientUnits="userSpaceOnUse" x1="290.541" y1="227.3335" x2="290.541" y2="158.3338"><stop offset="0" style="stop-color:#FCFCE4"></stop><stop offset="0.5" style="stop-color:#A0C8DD"></stop><stop offset="1" style="stop-color:#5D6EC5"></stop></linearGradient><path style="fill:url(#hair1XMLID_2785_);stroke:#1E1E1E;stroke-linecap:round;stroke-linejoin:round;" d="M269.432,161.275c0,0-6.03,40.201,42.21,57.174c1.34-24.12-2.681-48.24-12.954-59.407"></path><g><linearGradient id="hair1XMLID_2786_" gradientUnits="userSpaceOnUse" x1="323.5352" y1="227.3335" x2="323.5352" y2="158.3335"><stop offset="0" style="stop-color:#FCFCE4"></stop><stop offset="0.5" style="stop-color:#A0C8DD"></stop><stop offset="1" style="stop-color:#5D6EC5"></stop></linearGradient><path style="fill:url(#hair1XMLID_2786_);stroke:#1E1E1E;stroke-linecap:round;stroke-linejoin:round;" d="M330.622,188.396c0,0,17.644,33.946,12.283,53.153c-5.359,19.207-25.907,23.674-39.753,23.674c9.145-12.281,14.01-33.578,16.474-49.143"></path><g><linearGradient id="hair1XMLID_2787_" gradientUnits="userSpaceOnUse" x1="311.2324" y1="227.3335" x2="311.2324" y2="158.3335"><stop offset="0" style="stop-color:#FCFCE4"></stop><stop offset="0.5" style="stop-color:#A0C8DD"></stop><stop offset="1" style="stop-color:#5D6EC5"></stop></linearGradient><path style="fill:url(#hair1XMLID_2787_);stroke:#1E1E1E;stroke-linecap:round;stroke-linejoin:round;" d="M303.602,190.629c0,0,11.167,47.348-9.38,64.32c0.893,2.68,0.893,2.68,0.893,2.68s3.563-1.191,6.868-4.752c-3.645,5.646-8.034,11.58-9.548,12.792c3.127,0.894,6.7,4.021,6.7,4.021s3.534-0.324,8.24-2.242c-3.183,3.238-7.049,8.424-10.027,9.834c7.593,1.34,39.754-8.932,31.267-55.832"></path><path style="fill:none;stroke:#1E1E1E;stroke-linecap:round;stroke-linejoin:round;" d="M304.048,269.689c0.447-1.787,20.993-7.594,20.547-41.094"></path></g></g><linearGradient id="hair1XMLID_2788_" gradientUnits="userSpaceOnUse" x1="246.9731" y1="227.3335" x2="246.9731" y2="158.3334"><stop offset="0" style="stop-color:#FCFCE4"></stop><stop offset="0.5" style="stop-color:#A0C8DD"></stop><stop offset="1" style="stop-color:#5D6EC5"></stop></linearGradient><path style="fill:url(#hair1XMLID_2788_);stroke:#1E1E1E;stroke-linecap:round;stroke-linejoin:round;" d="M228.562,151.555c-1.34,0.894-20.548,40.647,6.7,68.339c1.786,0.895,3.126,0,3.126,0s-6.7-16.973-7.146-31.266c0,0,3.573,27.246,13.847,31.267c6.254-1.34,8.04,0,8.04,0l2.68-8.486c0,0,2.233,5.36,0.894,8.486c2.681,0.446,6.7-0.894,6.7-0.894s16.974-18.76,6.253-58.066"></path><linearGradient id="hair1XMLID_2789_" gradientUnits="userSpaceOnUse" x1="306.5039" y1="227.3335" x2="306.5039" y2="158.3334"><stop offset="0" style="stop-color:#FCFCE4"></stop><stop offset="0.5" style="stop-color:#A0C8DD"></stop><stop offset="1" style="stop-color:#5D6EC5"></stop></linearGradient><path style="fill:url(#hair1XMLID_2789_);stroke:#1E1E1E;stroke-linecap:round;stroke-linejoin:round;" d="M281.269,151.322c0,0-1.34,51.813,50.473,53.6c-40.646-12.507-45.113-55.833-45.113-55.833"></path><linearGradient id="hair1XMLID_2790_" gradientUnits="userSpaceOnUse" x1="186.3501" y1="227.3335" x2="186.3501" y2="158.3334"><stop offset="0" style="stop-color:#FCFCE4"></stop><stop offset="0.5" style="stop-color:#A0C8DD"></stop><stop offset="1" style="stop-color:#5D6EC5"></stop></linearGradient><path style="fill:url(#hair1XMLID_2790_);stroke:#1E1E1E;stroke-linecap:round;stroke-linejoin:round;" d="M211.585,155.789c0,0,1.34,51.813-50.473,53.6c40.646-12.506,45.112-55.833,45.112-55.833"></path></g></g><path style="fill:#FFF0DE;" d="M328.077,181.536c0,0-5.853-11.712-8.195-12.295c-2.343-0.585,0.816,19.084,4.1,18.149C327.054,186.513,329.248,184.318,328.077,181.536z"></path><path style="fill:#FFF0DE;" d="M319.964,186.217c0,0-0.451-7.659-2.93-9.365c-2.478-1.707-1.756,11.708,0,11.708C318.792,188.56,319.964,189.145,319.964,186.217z"></path><g><g><path style="fill:#FFF0DE;" d="M169.672,181.536c0,0,5.852-11.712,8.195-12.295c2.342-0.585-0.816,19.084-4.1,18.149C170.696,186.513,168.501,184.318,169.672,181.536z"></path><path style="fill:#FFF0DE;" d="M177.786,186.217c0,0,0.45-7.659,2.929-9.365c2.478-1.707,1.757,11.708,0,11.708C178.957,188.56,177.786,189.145,177.786,186.217z"></path></g><path style="fill:#FFF0DE;" d="M242.828,187.72c0,0,0-11.417,2.635-14.489c2.631-3.074,6.058,14.753,3.074,16.245C245.901,190.794,242.828,190.794,242.828,187.72z"></path><path style="fill:#FFF0DE;" d="M252.489,187.72c-1.761-2.196,0-10.1,0.876-11.417c0.879-1.317,4.391,10.098,2.635,12.294C253.736,191.426,254.244,189.915,252.489,187.72z"></path></g></g></svg>