<svg xmlns="http://www.w3.org/2000/svg" width="500" height="500" version="1.1"><g id="x051"><g><g><linearGradient id="hair1XMLID_2791_" gradientUnits="userSpaceOnUse" x1="250.0005" y1="231.3335" x2="250.0005" y2="145.667"><stop offset="0" style="stop-color:#FCFCE4"></stop><stop offset="0.5" style="stop-color:#A0C8DD"></stop><stop offset="1" style="stop-color:#5D6EC5"></stop></linearGradient><path style="fill:url(#hair1XMLID_2791_);stroke:#1E1E1E;stroke-linecap:round;stroke-linejoin:round;" d="M311.484,135.882c-17.021-17.418-41.603-23.852-61.484-20.131c-19.882-3.721-44.464,2.713-61.484,20.131c-13.061,13.365-22.283,30.165-22.283,51.08c0,24.372,15.268,44.372,25.934,48.538c-7.33-33.49-0.484-59.331,5.084-68.5c1.798-2.157,29.369-5.491,52.75-5.619c23.381,0.128,50.952,3.462,52.75,5.619c5.568,9.169,12.414,35.01,5.084,68.5c10.666-4.167,25.934-24.167,25.934-48.538C333.768,166.047,324.545,149.248,311.484,135.882z"></path><linearGradient id="hair1XMLID_2792_" gradientUnits="userSpaceOnUse" x1="326.75" y1="231.3335" x2="326.75" y2="145.667"><stop offset="0" style="stop-color:#FCFCE4"></stop><stop offset="0.5" style="stop-color:#A0C8DD"></stop><stop offset="1" style="stop-color:#5D6EC5"></stop></linearGradient><path style="fill:url(#hair1XMLID_2792_);stroke:#1E1E1E;stroke-linecap:round;stroke-linejoin:round;" d="M310.5,134.5c0,0,14.25,12.25,20.25,24.75s9.25,15.5,12.25,17.5c-6.5-1.25-19.25-1.75-24-10.75"></path><linearGradient id="hair1XMLID_2793_" gradientUnits="userSpaceOnUse" x1="179.625" y1="231.3335" x2="179.625" y2="145.6668"><stop offset="0" style="stop-color:#FCFCE4"></stop><stop offset="0.5" style="stop-color:#A0C8DD"></stop><stop offset="1" style="stop-color:#5D6EC5"></stop></linearGradient><path style="fill:url(#hair1XMLID_2793_);stroke:#1E1E1E;stroke-linecap:round;stroke-linejoin:round;" d="M183.75,157.5c0,0-13,6.75-21.25,18.75c2.5-20.75,19-37.5,34.25-47.5"></path><linearGradient id="hair1XMLID_2794_" gradientUnits="userSpaceOnUse" x1="230.6431" y1="231.3335" x2="230.6431" y2="145.6671"><stop offset="0" style="stop-color:#FCFCE4"></stop><stop offset="0.5" style="stop-color:#A0C8DD"></stop><stop offset="1" style="stop-color:#5D6EC5"></stop></linearGradient><path style="fill:url(#hair1XMLID_2794_);stroke:#1E1E1E;stroke-linecap:round;stroke-linejoin:round;" d="M232.458,127.294c-1.34,0.447-27.693-11.167,1.786-25.908c-5.806,12.06,1.34,18.757,6.7,20.992"></path><linearGradient id="hair1XMLID_2795_" gradientUnits="userSpaceOnUse" x1="250.9761" y1="231.3335" x2="250.9761" y2="145.667"><stop offset="0" style="stop-color:#FCFCE4"></stop><stop offset="0.5" style="stop-color:#A0C8DD"></stop><stop offset="1" style="stop-color:#5D6EC5"></stop></linearGradient><path style="fill:url(#hair1XMLID_2795_);stroke:#1E1E1E;stroke-linecap:round;stroke-linejoin:round;" d="M240.176,125.407c0,0-14.703-26.575,24.315-30.535c-8.481,7.915-22.619,19.223-9.047,23.183"></path><linearGradient id="hair1XMLID_2796_" gradientUnits="userSpaceOnUse" x1="272.4258" y1="231.3335" x2="272.4258" y2="145.667"><stop offset="0" style="stop-color:#FCFCE4"></stop><stop offset="0.5" style="stop-color:#A0C8DD"></stop><stop offset="1" style="stop-color:#5D6EC5"></stop></linearGradient><path style="fill:url(#hair1XMLID_2796_);stroke:#1E1E1E;stroke-linecap:round;stroke-linejoin:round;" d="M245.413,121.489c0-1.788-1.342-12.505,18.311-12.06c19.655,0.445,23.676,9.377,35.735-3.575c-3.575,12.06-23.228,24.481-33.055,18.673"></path></g><g><linearGradient id="hair1XMLID_2797_" gradientUnits="userSpaceOnUse" x1="313.7793" y1="231.3335" x2="313.7793" y2="145.667"><stop offset="0" style="stop-color:#FCFCE4"></stop><stop offset="0.5" style="stop-color:#A0C8DD"></stop><stop offset="1" style="stop-color:#5D6EC5"></stop></linearGradient><path style="fill:url(#hair1XMLID_2797_);stroke:#1E1E1E;stroke-linecap:round;stroke-linejoin:round;" d="M297.377,163.227c0,0,28.14,53.263,16.079,104.516c18.089-31.154,23.114-76.377,7.035-110.545"></path><linearGradient id="hair1XMLID_2798_" gradientUnits="userSpaceOnUse" x1="292.9375" y1="231.3335" x2="292.9375" y2="145.6667"><stop offset="0" style="stop-color:#FCFCE4"></stop><stop offset="0.5" style="stop-color:#A0C8DD"></stop><stop offset="1" style="stop-color:#5D6EC5"></stop></linearGradient><path style="fill:url(#hair1XMLID_2798_);stroke:#1E1E1E;stroke-linecap:round;stroke-linejoin:round;" d="M289.002,155.857c0,0,11.055,40.198-6.029,73.362c18.09-19.094,23.113-44.219,18.089-66.327"></path><g><linearGradient id="hair1XMLID_2799_" gradientUnits="userSpaceOnUse" x1="226.7773" y1="231.3335" x2="226.7773" y2="145.667"><stop offset="0" style="stop-color:#FCFCE4"></stop><stop offset="0.5" style="stop-color:#A0C8DD"></stop><stop offset="1" style="stop-color:#5D6EC5"></stop></linearGradient><path style="fill:url(#hair1XMLID_2799_);stroke:#1E1E1E;stroke-linecap:round;stroke-linejoin:round;" d="M226.268,136.499c-37.764,10.837-75.681,44.082-66.301,124.481c2.681-29.479,21.33-71.911,33.002-85.126c-23.621,44.926-19.602,73.066-6.871,102.547c-2.011-32.158,18.488-73.301,31.553-90.385c-16.079,21.104-30.213,61.576-18.153,97.754c5.025-38.188,14.133-49.517,49.307-69.615c35.174-20.1,46.228-67.332,46.228-67.332"></path></g></g></g><path style="fill:#FFF0DE;" d="M326.41,181.536c0,0-5.853-11.712-8.195-12.295c-2.343-0.585,0.816,19.084,4.1,18.149C325.387,186.513,327.581,184.318,326.41,181.536z"></path><path style="fill:#FFF0DE;" d="M318.297,186.217c0,0-0.451-7.659-2.93-9.365c-2.478-1.707-1.756,11.708,0,11.708C317.125,188.56,318.297,189.145,318.297,186.217z"></path><g><g><path style="fill:#FFF0DE;" d="M172.339,181.536c0,0,5.852-11.712,8.195-12.295c2.342-0.585-0.816,19.084-4.1,18.149C173.363,186.513,171.168,184.318,172.339,181.536z"></path><path style="fill:#FFF0DE;" d="M178.119,186.217c0,0,0.45-7.659,2.929-9.365c2.478-1.707,1.757,11.708,0,11.708C179.291,188.56,178.119,189.145,178.119,186.217z"></path></g><path style="fill:#FFF0DE;" d="M242.828,187.72c0,0,0-11.417,2.635-14.489c2.631-3.074,6.058,14.753,3.074,16.245C245.901,190.794,242.828,190.794,242.828,187.72z"></path><path style="fill:#FFF0DE;" d="M252.489,187.72c-1.761-2.196,0-10.1,0.876-11.417c0.879-1.317,4.391,10.098,2.635,12.294C253.736,191.426,254.244,189.915,252.489,187.72z"></path></g></g></svg>