<svg xmlns="http://www.w3.org/2000/svg" width="500" height="500" version="1.1"><g id="x052"><g><linearGradient id="hair1XMLID_2800_" gradientUnits="userSpaceOnUse" x1="250.0005" y1="213.3335" x2="250.0005" y2="163"><stop offset="0" style="stop-color:#FCFCE4"></stop><stop offset="0.5" style="stop-color:#A0C8DD"></stop><stop offset="1" style="stop-color:#5D6EC5"></stop></linearGradient><path style="fill:url(#hair1XMLID_2800_);stroke:#1E1E1E;stroke-linecap:round;stroke-linejoin:round;" d="M311.484,135.882c-17.021-17.418-41.603-23.852-61.484-20.131c-19.882-3.721-44.464,2.713-61.484,20.131c-13.061,13.365-22.283,30.165-22.283,51.08c0,24.372,15.268,44.372,25.934,48.538c-7.33-33.49-0.484-59.331,5.084-68.5c1.798-2.157,29.369-5.491,52.75-5.619c23.381,0.128,50.952,3.462,52.75,5.619c5.568,9.169,12.414,35.01,5.084,68.5c10.666-4.167,25.934-24.167,25.934-48.538C333.768,166.047,324.545,149.248,311.484,135.882z"></path><g><g><linearGradient id="hair1XMLID_2801_" gradientUnits="userSpaceOnUse" x1="303.4287" y1="213.3335" x2="303.4287" y2="163"><stop offset="0" style="stop-color:#FCFCE4"></stop><stop offset="0.5" style="stop-color:#A0C8DD"></stop><stop offset="1" style="stop-color:#5D6EC5"></stop></linearGradient><path style="fill:url(#hair1XMLID_2801_);stroke:#1E1E1E;stroke-linecap:round;stroke-linejoin:round;" d="M284.988,163.616c0,0,32.217,50.873,20.157,102.126c18.089-31.154,23.113-76.377,7.035-110.545"></path><g><linearGradient id="hair1XMLID_2802_" gradientUnits="userSpaceOnUse" x1="317.1699" y1="213.3335" x2="317.1699" y2="163"><stop offset="0" style="stop-color:#FCFCE4"></stop><stop offset="0.5" style="stop-color:#A0C8DD"></stop><stop offset="1" style="stop-color:#5D6EC5"></stop></linearGradient><path style="fill:url(#hair1XMLID_2802_);stroke:#1E1E1E;stroke-linecap:round;stroke-linejoin:round;" d="M313.62,241.783c0,0-2.233,30.82-10.274,52.707c10.274-12.061,38.166-47.974,23.45-117.027c-5.806-27.247-20.77-35.287-20.77-35.287"></path><linearGradient id="hair1XMLID_2803_" gradientUnits="userSpaceOnUse" x1="302.7783" y1="213.3335" x2="302.7783" y2="163"><stop offset="0" style="stop-color:#FCFCE4"></stop><stop offset="0.5" style="stop-color:#A0C8DD"></stop><stop offset="1" style="stop-color:#5D6EC5"></stop></linearGradient><path style="fill:url(#hair1XMLID_2803_);stroke:#1E1E1E;stroke-linecap:round;stroke-linejoin:round;" d="M309.152,213.196c0,0,1.34,56.726-20.992,77.272c14.74-6.252,31.266-33.945,29.032-62.533"></path></g><linearGradient id="hair1XMLID_2804_" gradientUnits="userSpaceOnUse" x1="214.6372" y1="213.3335" x2="214.6372" y2="163"><stop offset="0" style="stop-color:#FCFCE4"></stop><stop offset="0.5" style="stop-color:#A0C8DD"></stop><stop offset="1" style="stop-color:#5D6EC5"></stop></linearGradient><path style="fill:url(#hair1XMLID_2804_);stroke:#1E1E1E;stroke-linecap:round;stroke-linejoin:round;" d="M223.794,158.703c0,0-1.34,37.967-17.866,55.833c8.04-17.866-0.447-51.367-0.447-51.367"></path><linearGradient id="hair1XMLID_2805_" gradientUnits="userSpaceOnUse" x1="197.2588" y1="213.3335" x2="197.2588" y2="163"><stop offset="0" style="stop-color:#FCFCE4"></stop><stop offset="0.5" style="stop-color:#A0C8DD"></stop><stop offset="1" style="stop-color:#5D6EC5"></stop></linearGradient><path style="fill:url(#hair1XMLID_2805_);stroke:#1E1E1E;stroke-linecap:round;stroke-linejoin:round;" d="M214.861,161.383c-1.787-0.447-25.46,39.753-21.44,82.632c-11.613-14.739-22.78-57.172-2.68-86.652"></path></g><linearGradient id="hair1XMLID_2806_" gradientUnits="userSpaceOnUse" x1="277.6758" y1="213.3335" x2="277.6758" y2="163"><stop offset="0" style="stop-color:#FCFCE4"></stop><stop offset="0.5" style="stop-color:#A0C8DD"></stop><stop offset="1" style="stop-color:#5D6EC5"></stop></linearGradient><path style="fill:url(#hair1XMLID_2806_);stroke:#1E1E1E;stroke-linecap:round;stroke-linejoin:round;" d="M267.568,163.169c0,0,15.634,22.78,7.594,60.747c11.166-10.72,16.525-46.9,9.38-66.106"></path><linearGradient id="hair1XMLID_2807_" gradientUnits="userSpaceOnUse" x1="245.9775" y1="213.3335" x2="245.9775" y2="163"><stop offset="0" style="stop-color:#FCFCE4"></stop><stop offset="0.5" style="stop-color:#A0C8DD"></stop><stop offset="1" style="stop-color:#5D6EC5"></stop></linearGradient><path style="fill:url(#hair1XMLID_2807_);stroke:#1E1E1E;stroke-linecap:round;stroke-linejoin:round;" d="M222.454,156.023c-0.446,0-10.273,44.22,19.207,62.98c-9.827-16.974-11.167-30.819-11.167-30.819s3.128,17.865,21.44,33.053c2.68,4.467,4.02,9.826,4.02,9.826s28.588-38.412,8.04-75.04"></path><linearGradient id="hair1XMLID_2808_" gradientUnits="userSpaceOnUse" x1="256.1768" y1="213.3335" x2="256.1768" y2="163"><stop offset="0" style="stop-color:#FCFCE4"></stop><stop offset="0.5" style="stop-color:#A0C8DD"></stop><stop offset="1" style="stop-color:#5D6EC5"></stop></linearGradient><path style="fill:url(#hair1XMLID_2808_);stroke:#1E1E1E;stroke-linecap:round;stroke-linejoin:round;" d="M259.08,156.023c0,0,5.808,12.06,4.468,18.76c-1.34,6.699-12.954,44.22-25.014,50.473c28.586-19.652,34.84-38.859,35.286-56.727c0,0-2.679-13.399-6.698-17.866"></path><g><linearGradient id="hair1XMLID_2809_" gradientUnits="userSpaceOnUse" x1="182.9473" y1="213.3335" x2="182.9473" y2="163"><stop offset="0" style="stop-color:#FCFCE4"></stop><stop offset="0.5" style="stop-color:#A0C8DD"></stop><stop offset="1" style="stop-color:#5D6EC5"></stop></linearGradient><path style="fill:url(#hair1XMLID_2809_);stroke:#1E1E1E;stroke-linecap:round;stroke-linejoin:round;" d="M186.498,241.783c0,0,2.233,30.82,10.273,52.707c-10.273-12.061-38.166-47.974-23.45-117.027c5.807-27.247,20.77-35.287,20.77-35.287"></path><linearGradient id="hair1XMLID_2810_" gradientUnits="userSpaceOnUse" x1="197.3394" y1="213.3335" x2="197.3394" y2="163"><stop offset="0" style="stop-color:#FCFCE4"></stop><stop offset="0.5" style="stop-color:#A0C8DD"></stop><stop offset="1" style="stop-color:#5D6EC5"></stop></linearGradient><path style="fill:url(#hair1XMLID_2810_);stroke:#1E1E1E;stroke-linecap:round;stroke-linejoin:round;" d="M190.964,213.196c0,0-1.34,56.726,20.994,77.272c-14.74-6.252-31.267-33.945-29.034-62.533"></path></g></g></g><path style="fill:#FFF0DE;" d="M325.41,181.536c0,0-5.853-11.712-8.195-12.295c-2.343-0.585,0.816,19.084,4.1,18.149C324.387,186.513,326.581,184.318,325.41,181.536z"></path><path style="fill:#FFF0DE;" d="M317.297,186.217c0,0-0.451-7.659-2.93-9.365c-2.478-1.707-1.756,11.708,0,11.708C316.125,188.56,317.297,189.145,317.297,186.217z"></path><g><g><path style="fill:#FFF0DE;" d="M174.672,181.536c0,0,5.852-11.712,8.195-12.295c2.342-0.585-0.816,19.084-4.1,18.149C175.696,186.513,173.501,184.318,174.672,181.536z"></path><path style="fill:#FFF0DE;" d="M182.786,186.217c0,0,0.45-7.659,2.929-9.365c2.478-1.707,1.757,11.708,0,11.708C183.957,188.56,182.786,189.145,182.786,186.217z"></path></g><path style="fill:#FFF0DE;" d="M242.828,187.72c0,0,0-11.417,2.635-14.489c2.631-3.074,6.058,14.753,3.074,16.245C245.901,190.794,242.828,190.794,242.828,187.72z"></path><path style="fill:#FFF0DE;" d="M252.489,187.72c-1.761-2.196,0-10.1,0.876-11.417c0.879-1.317,4.391,10.098,2.635,12.294C253.736,191.426,254.244,189.915,252.489,187.72z"></path></g></g></svg>