<svg xmlns="http://www.w3.org/2000/svg" width="500" height="500" version="1.1"><g id="x053"><g><linearGradient id="hair1XMLID_2811_" gradientUnits="userSpaceOnUse" x1="250.0005" y1="229.3335" x2="250.0005" y2="171.6669"><stop offset="0" style="stop-color:#FCFCE4"></stop><stop offset="0.5" style="stop-color:#A0C8DD"></stop><stop offset="1" style="stop-color:#5D6EC5"></stop></linearGradient><path style="fill:url(#hair1XMLID_2811_);stroke:#1E1E1E;stroke-linecap:round;stroke-linejoin:round;" d="M311.484,135.882c-17.021-17.418-41.603-23.852-61.484-20.131c-19.882-3.721-44.464,2.713-61.484,20.131c-13.061,13.365-22.283,30.165-22.283,51.08c0,24.372,15.268,44.372,25.934,48.538c-7.33-33.49-0.484-59.331,5.084-68.5c1.798-2.157,29.369-5.491,52.75-5.619c23.381,0.128,50.952,3.462,52.75,5.619c5.568,9.169,12.414,35.01,5.084,68.5c10.666-4.167,25.934-24.167,25.934-48.538C333.768,166.047,324.545,149.248,311.484,135.882z"></path><g><linearGradient id="hair1XMLID_2812_" gradientUnits="userSpaceOnUse" x1="193.3384" y1="229.3335" x2="193.3384" y2="171.667"><stop offset="0" style="stop-color:#FCFCE4"></stop><stop offset="0.5" style="stop-color:#A0C8DD"></stop><stop offset="1" style="stop-color:#5D6EC5"></stop></linearGradient><path style="fill:url(#hair1XMLID_2812_);stroke:#1E1E1E;stroke-linecap:round;stroke-linejoin:round;" d="M193.421,219.663c-0.446,1.786-4.467,72.36,22.333,96.479c-31.266-19.207-51.366-62.979-42.88-129.979"></path><linearGradient id="hair1XMLID_2813_" gradientUnits="userSpaceOnUse" x1="189.9194" y1="229.3335" x2="189.9194" y2="171.667"><stop offset="0" style="stop-color:#FCFCE4"></stop><stop offset="0.5" style="stop-color:#A0C8DD"></stop><stop offset="1" style="stop-color:#5D6EC5"></stop></linearGradient><path style="fill:url(#hair1XMLID_2813_);stroke:#1E1E1E;stroke-linecap:round;stroke-linejoin:round;" d="M196.771,186.609c-0.447,1.787-9.38,52.261,8.933,71.914c-27.246-19.207-34.84-48.688-30.373-83.08"></path><linearGradient id="hair1XMLID_2814_" gradientUnits="userSpaceOnUse" x1="202.8257" y1="229.3335" x2="202.8257" y2="171.667"><stop offset="0" style="stop-color:#FCFCE4"></stop><stop offset="0.5" style="stop-color:#A0C8DD"></stop><stop offset="1" style="stop-color:#5D6EC5"></stop></linearGradient><path style="fill:url(#hair1XMLID_2814_);stroke:#1E1E1E;stroke-linecap:round;stroke-linejoin:round;" d="M219.551,162.043c0,0-20.993,37.52-18.76,69.68c-10.72-7.593-22.333-44.22-8.04-72.359"></path><linearGradient id="hair1XMLID_2815_" gradientUnits="userSpaceOnUse" x1="305.9395" y1="229.3335" x2="305.9395" y2="171.667"><stop offset="0" style="stop-color:#FCFCE4"></stop><stop offset="0.5" style="stop-color:#A0C8DD"></stop><stop offset="1" style="stop-color:#5D6EC5"></stop></linearGradient><path style="fill:url(#hair1XMLID_2815_);stroke:#1E1E1E;stroke-linecap:round;stroke-linejoin:round;" d="M307.321,224.576c0,1.787-3.573,59.854-25.014,84.867c29.927-18.762,51.814-58.514,46.454-121.047"></path><linearGradient id="hair1XMLID_2816_" gradientUnits="userSpaceOnUse" x1="305.8496" y1="229.3335" x2="305.8496" y2="171.667"><stop offset="0" style="stop-color:#FCFCE4"></stop><stop offset="0.5" style="stop-color:#A0C8DD"></stop><stop offset="1" style="stop-color:#5D6EC5"></stop></linearGradient><path style="fill:url(#hair1XMLID_2816_);stroke:#1E1E1E;stroke-linecap:round;stroke-linejoin:round;" d="M295.038,157.576c0,1.787,18.313,68.787-0.894,101.84c18.76-16.08,24.567-26.799,23.228-57.173"></path><linearGradient id="hair1XMLID_2817_" gradientUnits="userSpaceOnUse" x1="286.7168" y1="229.3335" x2="286.7168" y2="171.6669"><stop offset="0" style="stop-color:#FCFCE4"></stop><stop offset="0.5" style="stop-color:#A0C8DD"></stop><stop offset="1" style="stop-color:#5D6EC5"></stop></linearGradient><path style="fill:url(#hair1XMLID_2817_);stroke:#1E1E1E;stroke-linecap:round;stroke-linejoin:round;" d="M260.198,159.81c0,0,43.773,47.347,51.813,79.507c3.126-29.927,1.339-68.787-18.313-91.12"></path><linearGradient id="hair1XMLID_2818_" gradientUnits="userSpaceOnUse" x1="261.8584" y1="229.3335" x2="261.8584" y2="171.667"><stop offset="0" style="stop-color:#FCFCE4"></stop><stop offset="0.5" style="stop-color:#A0C8DD"></stop><stop offset="1" style="stop-color:#5D6EC5"></stop></linearGradient><path style="fill:url(#hair1XMLID_2818_);stroke:#1E1E1E;stroke-linecap:round;stroke-linejoin:round;" d="M209.725,158.47c0,0-11.614,58.96,59.854,73.253c-25.46-14.293-33.5-29.033-38.86-42.879c10.72,14.739,14.74,31.266,65.214,40.646c-6.7-8.487-35.733-33.5-42.88-49.58c12.952,13.846,38.86,40.646,61.64,52.26c-15.188-39.754-44.221-70.574-59.854-82.634"></path><linearGradient id="hair1XMLID_2819_" gradientUnits="userSpaceOnUse" x1="236.2856" y1="229.3335" x2="236.2856" y2="171.667"><stop offset="0" style="stop-color:#FCFCE4"></stop><stop offset="0.5" style="stop-color:#A0C8DD"></stop><stop offset="1" style="stop-color:#5D6EC5"></stop></linearGradient><path style="fill:url(#hair1XMLID_2819_);stroke:#1E1E1E;stroke-linecap:round;stroke-linejoin:round;" d="M209.278,132.563c0,0-15.634,3.127-19.207,4.02s-1.34,62.087,93.353,64.767c-61.64-13.4-81.293-57.173-81.293-57.173"></path></g></g><path style="fill:#FFF0DE;" d="M325.41,181.536c0,0-5.853-11.712-8.195-12.295c-2.343-0.585,0.816,19.084,4.1,18.149C324.387,186.513,326.581,184.318,325.41,181.536z"></path><path style="fill:#FFF0DE;" d="M317.297,186.217c0,0-0.451-7.659-2.93-9.365c-2.478-1.707-1.756,11.708,0,11.708C316.125,188.56,317.297,189.145,317.297,186.217z"></path><g><g><path style="fill:#FFF0DE;" d="M187.672,181.536c0,0,5.852-11.712,8.195-12.295c2.342-0.585-0.816,19.084-4.1,18.149C188.696,186.513,186.501,184.318,187.672,181.536z"></path><path style="fill:#FFF0DE;" d="M195.786,186.217c0,0,0.45-7.659,2.929-9.365c2.478-1.707,1.757,11.708,0,11.708C196.957,188.56,195.786,189.145,195.786,186.217z"></path></g></g></g></svg>