<svg xmlns="http://www.w3.org/2000/svg" width="500" height="500" version="1.1"><g id="x055"><g><linearGradient id="hair1XMLID_2828_" gradientUnits="userSpaceOnUse" x1="250.0005" y1="226.3335" x2="250.0005" y2="168.3335"><stop offset="0" style="stop-color:#FCFCE4"></stop><stop offset="0.5" style="stop-color:#A0C8DD"></stop><stop offset="1" style="stop-color:#5D6EC5"></stop></linearGradient><path style="fill:url(#hair1XMLID_2828_);stroke:#1E1E1E;stroke-linecap:round;stroke-linejoin:round;" d="M311.484,135.882c-17.021-17.418-41.603-23.852-61.484-20.131c-19.882-3.721-44.464,2.713-61.484,20.131c-13.061,13.365-22.283,30.165-22.283,51.08c0,24.372,15.268,44.372,25.934,48.538c-7.33-33.49-0.484-59.331,5.084-68.5c1.798-2.157,29.369-5.491,52.75-5.619c23.381,0.128,50.952,3.462,52.75,5.619c5.568,9.169,12.414,35.01,5.084,68.5c10.666-4.167,25.934-24.167,25.934-48.538C333.768,166.047,324.545,149.248,311.484,135.882z"></path><g><linearGradient id="hair1XMLID_2829_" gradientUnits="userSpaceOnUse" x1="294.3359" y1="226.3335" x2="294.3359" y2="168.3335"><stop offset="0" style="stop-color:#FCFCE4"></stop><stop offset="0.5" style="stop-color:#A0C8DD"></stop><stop offset="1" style="stop-color:#5D6EC5"></stop></linearGradient><path style="fill:url(#hair1XMLID_2829_);stroke:#1E1E1E;stroke-linecap:round;stroke-linejoin:round;" d="M278.025,165.169c0,0-3.405,35.288,29.795,57.174c3.832-19.654,11.919-63.874-30.222-86.654"></path><linearGradient id="hair1XMLID_2830_" gradientUnits="userSpaceOnUse" x1="235.7163" y1="226.3335" x2="235.7163" y2="168.3335"><stop offset="0" style="stop-color:#FCFCE4"></stop><stop offset="0.5" style="stop-color:#A0C8DD"></stop><stop offset="1" style="stop-color:#5D6EC5"></stop></linearGradient><path style="fill:url(#hair1XMLID_2830_);stroke:#1E1E1E;stroke-linecap:round;stroke-linejoin:round;" d="M203.534,137.923c0,0-29.796,28.14-12.345,78.167c0.852-13.4,3.831-28.141,9.365-40.2c0,0-6.811,21.44,5.96,42.88c0.851-12.506,5.958-30.82,12.343-41.54c0,0-11.066,33.501,1.703,45.114c0.426-13.848,8.087-37.967,8.087-37.967s-3.831,25.459,11.919,40.646c5.959-10.273,12.344-20.547,14.473-38.86c0,0,5.107,22.333-1.276,35.286c8.087-7.594,17.025-18.76,19.153-48.24c0,0,3.405,31.268-4.257,46.008c15.324-16.974,20.433-29.033,14.899-63.874"></path><g><linearGradient id="hair1XMLID_2831_" gradientUnits="userSpaceOnUse" x1="289.4365" y1="226.3335" x2="289.4365" y2="168.3335"><stop offset="0" style="stop-color:#FCFCE4"></stop><stop offset="0.5" style="stop-color:#A0C8DD"></stop><stop offset="1" style="stop-color:#5D6EC5"></stop></linearGradient><path style="fill:url(#hair1XMLID_2831_);stroke:#1E1E1E;stroke-linecap:round;stroke-linejoin:round;" d="M263.978,126.756c0,0,28.52,1.787,37.033,41.987c8.512,40.2,0.425,86.206-11.067,105.413c8.087-4.467,14.897-14.74,14.897-14.74s12.771-4.467,16.175-18.76c4.294-18.023,28.425-107.935-46.822-123.727c-21.283-4.466-23.411,4.02-23.411,4.02"></path><path style="fill:none;stroke:#1E1E1E;stroke-linecap:round;stroke-linejoin:round;" d="M314.206,185.717c1.702,13.399,5.107,57.173-13.622,79.06"></path></g><g><linearGradient id="hair1XMLID_2832_" gradientUnits="userSpaceOnUse" x1="210.6899" y1="226.3335" x2="210.6899" y2="168.3335"><stop offset="0" style="stop-color:#FCFCE4"></stop><stop offset="0.5" style="stop-color:#A0C8DD"></stop><stop offset="1" style="stop-color:#5D6EC5"></stop></linearGradient><path style="fill:url(#hair1XMLID_2832_);stroke:#1E1E1E;stroke-linecap:round;stroke-linejoin:round;" d="M236.148,126.756c0,0-28.52,1.787-37.031,41.987c-8.514,40.2-0.427,86.206,11.066,105.413c-8.089-4.467-14.898-14.74-14.898-14.74s-12.77-4.467-16.174-18.76c-4.295-18.023-28.425-107.935,46.821-123.727c21.283-4.466,23.412,4.02,23.412,4.02"></path><path style="fill:none;stroke:#1E1E1E;stroke-linecap:round;stroke-linejoin:round;" d="M185.921,185.717c-1.702,13.399-5.107,57.173,13.621,79.06"></path></g></g></g><path style="fill:#FFF0DE;" d="M326.66,181.536c0,0-5.853-11.712-8.195-12.295c-2.343-0.585,0.816,19.084,4.1,18.149C325.637,186.513,327.831,184.318,326.66,181.536z"></path><path style="fill:#FFF0DE;" d="M319.797,186.217c0,0-0.451-7.659-2.93-9.365c-2.478-1.707-1.756,11.708,0,11.708C318.625,188.56,319.797,189.145,319.797,186.217z"></path><g><g><path style="fill:#FFF0DE;" d="M174.672,181.536c0,0,5.852-11.712,8.195-12.295c2.342-0.585-0.816,19.084-4.1,18.149C175.696,186.513,173.501,184.318,174.672,181.536z"></path><path style="fill:#FFF0DE;" d="M180.536,186.217c0,0,0.45-7.659,2.929-9.365c2.478-1.707,1.757,11.708,0,11.708C181.707,188.56,180.536,189.145,180.536,186.217z"></path></g><path style="fill:#FFF0DE;" d="M240.328,187.72c0,0,0-11.417,2.635-14.489c2.631-3.074,6.058,14.753,3.074,16.245C243.401,190.794,240.328,190.794,240.328,187.72z"></path><path style="fill:#FFF0DE;" d="M247.989,187.72c-1.761-2.196,0-10.1,0.876-11.417c0.879-1.317,4.391,10.098,2.635,12.294C249.236,191.426,249.744,189.915,247.989,187.72z"></path></g></g></svg>