<svg xmlns="http://www.w3.org/2000/svg" width="500" height="500" version="1.1"><g id="x056"><g><linearGradient id="hair1XMLID_2833_" gradientUnits="userSpaceOnUse" x1="250.0005" y1="218.3335" x2="250.0005" y2="155"><stop offset="0" style="stop-color:#FCFCE4"></stop><stop offset="0.5" style="stop-color:#A0C8DD"></stop><stop offset="1" style="stop-color:#5D6EC5"></stop></linearGradient><path style="fill:url(#hair1XMLID_2833_);stroke:#1E1E1E;stroke-linecap:round;stroke-linejoin:round;" d="M311.484,135.882c-17.021-17.418-41.603-23.852-61.484-20.131c-19.882-3.721-44.464,2.713-61.484,20.131c-13.061,13.365-22.283,30.165-22.283,51.08c0,24.372,15.268,44.372,25.934,48.538c-7.33-33.49-0.484-59.331,5.084-68.5c1.798-2.157,29.369-5.491,52.75-5.619c23.381,0.128,50.952,3.462,52.75,5.619c5.568,9.169,12.414,35.01,5.084,68.5c10.666-4.167,25.934-24.167,25.934-48.538C333.768,166.047,324.545,149.248,311.484,135.882z"></path><g><linearGradient id="hair1XMLID_2834_" gradientUnits="userSpaceOnUse" x1="318.2871" y1="218.3335" x2="318.2871" y2="155"><stop offset="0" style="stop-color:#FCFCE4"></stop><stop offset="0.5" style="stop-color:#A0C8DD"></stop><stop offset="1" style="stop-color:#5D6EC5"></stop></linearGradient><path style="fill:url(#hair1XMLID_2834_);stroke:#1E1E1E;stroke-linecap:round;stroke-linejoin:round;" d="M311.823,235.743c-0.446,1.786-7.146,30.373,1.786,39.306c8.934,8.934,16.08-2.68,13.4-10.272c-3.127,3.573-8.486,8.04-9.826-4.021c-1.34-12.059,8.487-29.479,4.913-46.453"></path><linearGradient id="hair1XMLID_2835_" gradientUnits="userSpaceOnUse" x1="309.1719" y1="218.3335" x2="309.1719" y2="155"><stop offset="0" style="stop-color:#FCFCE4"></stop><stop offset="0.5" style="stop-color:#A0C8DD"></stop><stop offset="1" style="stop-color:#5D6EC5"></stop></linearGradient><path style="fill:url(#hair1XMLID_2835_);stroke:#1E1E1E;stroke-linecap:round;stroke-linejoin:round;" d="M308.782,224.576c0,0,6.252,31.268-10.274,56.727c21.44-14.293,22.78-44.666,20.547-70.127"></path><linearGradient id="hair1XMLID_2836_" gradientUnits="userSpaceOnUse" x1="321.9141" y1="218.3335" x2="321.9141" y2="155"><stop offset="0" style="stop-color:#FCFCE4"></stop><stop offset="0.5" style="stop-color:#A0C8DD"></stop><stop offset="1" style="stop-color:#5D6EC5"></stop></linearGradient><path style="fill:url(#hair1XMLID_2836_);stroke:#1E1E1E;stroke-linecap:round;stroke-linejoin:round;" d="M322.204,153.556c1.34,0.447,26.353,39.753,16.973,67.447c-9.558,28.222-36.626,28.14-36.626,28.14c17.866-16.973,18.313-38.859,15.634-57.619"></path><linearGradient id="hair1XMLID_2837_" gradientUnits="userSpaceOnUse" x1="313.8418" y1="218.3335" x2="313.8418" y2="155"><stop offset="0" style="stop-color:#FCFCE4"></stop><stop offset="0.5" style="stop-color:#A0C8DD"></stop><stop offset="1" style="stop-color:#5D6EC5"></stop></linearGradient><path style="fill:url(#hair1XMLID_2837_);stroke:#1E1E1E;stroke-linecap:round;stroke-linejoin:round;" d="M312.689,152.216c0,0,22.334,15.633,16.526,52.26c-5.647,35.625-29.48,45.113-29.48,45.113s26.354-42.434-2.232-65.213"></path><g><linearGradient id="hair1XMLID_2838_" gradientUnits="userSpaceOnUse" x1="262.4395" y1="218.3335" x2="262.4395" y2="155"><stop offset="0" style="stop-color:#FCFCE4"></stop><stop offset="0.5" style="stop-color:#A0C8DD"></stop><stop offset="1" style="stop-color:#5D6EC5"></stop></linearGradient><path style="fill:url(#hair1XMLID_2838_);stroke:#1E1E1E;stroke-linecap:round;stroke-linejoin:round;" d="M212.636,160.256c0,0-15.634,50.027,38.86,54.494c18.313,6.253,20.1,9.826,59.407,6.699c3.243-14.053,12.06-55.386-22.78-72.806"></path><path style="fill:none;stroke:#1E1E1E;stroke-linecap:round;stroke-linejoin:round;" d="M249.264,152.663c0,0,26.354,7.146,35.286,30.373c8.934,23.228,7.146,32.606,26.354,38.413"></path><linearGradient id="hair1XMLID_2839_" gradientUnits="userSpaceOnUse" x1="241.6421" y1="218.3335" x2="241.6421" y2="154.9998"><stop offset="0" style="stop-color:#FCFCE4"></stop><stop offset="0.5" style="stop-color:#A0C8DD"></stop><stop offset="1" style="stop-color:#5D6EC5"></stop></linearGradient><path style="fill:url(#hair1XMLID_2839_);stroke:#1E1E1E;stroke-linecap:round;stroke-linejoin:round;" d="M226.93,170.083c0,0-2.68,31.714,29.479,46.453"></path></g><linearGradient id="hair1XMLID_2840_" gradientUnits="userSpaceOnUse" x1="181.1597" y1="218.3335" x2="181.1597" y2="155"><stop offset="0" style="stop-color:#FCFCE4"></stop><stop offset="0.5" style="stop-color:#A0C8DD"></stop><stop offset="1" style="stop-color:#5D6EC5"></stop></linearGradient><path style="fill:url(#hair1XMLID_2840_);stroke:#1E1E1E;stroke-linecap:round;stroke-linejoin:round;" d="M187.623,235.743c0.446,1.786,7.146,30.373-1.787,39.306c-8.933,8.934-16.079-2.68-13.399-10.272c3.127,3.573,8.487,8.04,9.827-4.021c1.34-12.059-8.488-29.479-4.914-46.453"></path><linearGradient id="hair1XMLID_2841_" gradientUnits="userSpaceOnUse" x1="190.8062" y1="218.3335" x2="190.8062" y2="155"><stop offset="0" style="stop-color:#FCFCE4"></stop><stop offset="0.5" style="stop-color:#A0C8DD"></stop><stop offset="1" style="stop-color:#5D6EC5"></stop></linearGradient><path style="fill:url(#hair1XMLID_2841_);stroke:#1E1E1E;stroke-linecap:round;stroke-linejoin:round;" d="M191.195,224.576c0,0-6.252,31.268,10.274,56.727c-21.44-14.293-22.78-44.666-20.546-70.127"></path><linearGradient id="hair1XMLID_2842_" gradientUnits="userSpaceOnUse" x1="178.0864" y1="218.3335" x2="178.0864" y2="155"><stop offset="0" style="stop-color:#FCFCE4"></stop><stop offset="0.5" style="stop-color:#A0C8DD"></stop><stop offset="1" style="stop-color:#5D6EC5"></stop></linearGradient><path style="fill:url(#hair1XMLID_2842_);stroke:#1E1E1E;stroke-linecap:round;stroke-linejoin:round;" d="M177.796,153.556c-1.34,0.447-26.353,39.753-16.973,67.447c9.559,28.222,36.626,28.14,36.626,28.14c-17.866-16.973-18.313-38.859-15.634-57.619"></path><linearGradient id="hair1XMLID_2843_" gradientUnits="userSpaceOnUse" x1="186.1035" y1="218.3335" x2="186.1035" y2="155"><stop offset="0" style="stop-color:#FCFCE4"></stop><stop offset="0.5" style="stop-color:#A0C8DD"></stop><stop offset="1" style="stop-color:#5D6EC5"></stop></linearGradient><path style="fill:url(#hair1XMLID_2843_);stroke:#1E1E1E;stroke-linecap:round;stroke-linejoin:round;" d="M197.449,168.297c0,0-17.866,51.366,2.681,84.42c-27.694-9.381-41.987-79.061-8.935-110.774"></path><linearGradient id="hair1XMLID_2844_" gradientUnits="userSpaceOnUse" x1="203.0425" y1="218.3335" x2="203.0425" y2="155"><stop offset="0" style="stop-color:#FCFCE4"></stop><stop offset="0.5" style="stop-color:#A0C8DD"></stop><stop offset="1" style="stop-color:#5D6EC5"></stop></linearGradient><path style="fill:url(#hair1XMLID_2844_);stroke:#1E1E1E;stroke-linecap:round;stroke-linejoin:round;" d="M214.869,156.236c-1.34,0.894-16.525,38.86-13.399,68.787c-12.954-18.76-12.507-44.221-4.914-62.534"></path></g></g><path style="fill:#FFF0DE;" d="M327.66,181.536c0,0-5.853-11.712-8.195-12.295c-2.343-0.585,0.816,19.084,4.1,18.149C326.637,186.513,328.831,184.318,327.66,181.536z"></path><path style="fill:#FFF0DE;" d="M319.547,186.217c0,0-0.451-7.659-2.93-9.365c-2.478-1.707-1.756,11.708,0,11.708C318.375,188.56,319.547,189.145,319.547,186.217z"></path><g><g><path style="fill:#FFF0DE;" d="M174.672,181.536c0,0,5.852-11.712,8.195-12.295c2.342-0.585-0.816,19.084-4.1,18.149C175.696,186.513,173.501,184.318,174.672,181.536z"></path><path style="fill:#FFF0DE;" d="M182.786,186.217c0,0,0.45-7.659,2.929-9.365c2.478-1.707,1.757,11.708,0,11.708C183.957,188.56,182.786,189.145,182.786,186.217z"></path></g><path style="fill:#FFF0DE;" d="M242.828,187.72c0,0,0-11.417,2.635-14.489c2.631-3.074,6.058,14.753,3.074,16.245C245.901,190.794,242.828,190.794,242.828,187.72z"></path><path style="fill:#FFF0DE;" d="M252.489,187.72c-1.761-2.196,0-10.1,0.876-11.417c0.879-1.317,4.391,10.098,2.635,12.294C253.736,191.426,254.244,189.915,252.489,187.72z"></path></g></g></svg>