<svg xmlns="http://www.w3.org/2000/svg" width="500" height="500" version="1.1"><g id="x058"><g><linearGradient id="hair1XMLID_2853_" gradientUnits="userSpaceOnUse" x1="250.0005" y1="218.667" x2="250.0005" y2="158.667"><stop offset="0" style="stop-color:#FCFCE4"></stop><stop offset="0.5" style="stop-color:#A0C8DD"></stop><stop offset="1" style="stop-color:#5D6EC5"></stop></linearGradient><path style="fill:url(#hair1XMLID_2853_);stroke:#1E1E1E;stroke-linecap:round;stroke-linejoin:round;" d="M311.484,135.882c-17.021-17.418-41.603-23.852-61.484-20.131c-19.882-3.721-44.464,2.713-61.484,20.131c-13.061,13.365-22.283,30.165-22.283,51.08c0,24.372,15.268,44.372,25.934,48.538c-7.33-33.49-0.484-59.331,5.084-68.5c1.798-2.157,29.369-5.491,52.75-5.619c23.381,0.128,50.952,3.462,52.75,5.619c5.568,9.169,12.414,35.01,5.084,68.5c10.666-4.167,25.934-24.167,25.934-48.538C333.768,166.047,324.545,149.248,311.484,135.882z"></path><g><linearGradient id="hair1XMLID_2854_" gradientUnits="userSpaceOnUse" x1="259.0889" y1="218.667" x2="259.0889" y2="158.6671"><stop offset="0" style="stop-color:#FCFCE4"></stop><stop offset="0.5" style="stop-color:#A0C8DD"></stop><stop offset="1" style="stop-color:#5D6EC5"></stop></linearGradient><path style="fill:url(#hair1XMLID_2854_);stroke:#1E1E1E;stroke-linecap:round;stroke-linejoin:round;" d="M258.524,221.896c0.665-0.285,1.004-0.934,1.129-1.777C259.29,220.715,258.916,221.309,258.524,221.896z"></path><linearGradient id="hair1XMLID_2855_" gradientUnits="userSpaceOnUse" x1="185.437" y1="218.667" x2="185.437" y2="158.667"><stop offset="0" style="stop-color:#FCFCE4"></stop><stop offset="0.5" style="stop-color:#A0C8DD"></stop><stop offset="1" style="stop-color:#5D6EC5"></stop></linearGradient><path style="fill:url(#hair1XMLID_2855_);stroke:#1E1E1E;stroke-linecap:round;stroke-linejoin:round;" d="M190.518,196.883c0,0-8.486,29.033,0.446,48.24c-25.013-13.847-35.286-78.613,10.274-104.967"></path><linearGradient id="hair1XMLID_2856_" gradientUnits="userSpaceOnUse" x1="191.1416" y1="218.667" x2="191.1416" y2="158.667"><stop offset="0" style="stop-color:#FCFCE4"></stop><stop offset="0.5" style="stop-color:#A0C8DD"></stop><stop offset="1" style="stop-color:#5D6EC5"></stop></linearGradient><path style="fill:url(#hair1XMLID_2856_);stroke:#1E1E1E;stroke-linecap:round;stroke-linejoin:round;" d="M196.639,175.374c-5.482,10.818-8.935,24.931-7.015,42.949c1.34,16.08,5.807,18.76,5.807,28.14c0,9.381-0.446,17.867,0,25.461c0.447,7.592,1.341,18.758,12.061,28.586c-16.08-13.4-18.761-22.781-20.993-36.18c-2.234-13.4,0.893-23.227-1.34-25.461c-1.142-1.141-9.988-20.379-10.366-42.434"></path><linearGradient id="hair1XMLID_2857_" gradientUnits="userSpaceOnUse" x1="314.9717" y1="218.667" x2="314.9717" y2="158.667"><stop offset="0" style="stop-color:#FCFCE4"></stop><stop offset="0.5" style="stop-color:#A0C8DD"></stop><stop offset="1" style="stop-color:#5D6EC5"></stop></linearGradient><path style="fill:url(#hair1XMLID_2857_);stroke:#1E1E1E;stroke-linecap:round;stroke-linejoin:round;" d="M309.891,196.883c0,0,8.486,29.033-0.447,48.24c25.014-13.847,35.287-78.613-10.272-104.967"></path><linearGradient id="hair1XMLID_2858_" gradientUnits="userSpaceOnUse" x1="309.2666" y1="218.667" x2="309.2666" y2="158.667"><stop offset="0" style="stop-color:#FCFCE4"></stop><stop offset="0.5" style="stop-color:#A0C8DD"></stop><stop offset="1" style="stop-color:#5D6EC5"></stop></linearGradient><path style="fill:url(#hair1XMLID_2858_);stroke:#1E1E1E;stroke-linecap:round;stroke-linejoin:round;" d="M303.771,175.374c5.481,10.818,8.934,24.931,7.013,42.949c-1.34,16.08-5.807,18.76-5.807,28.14c0,9.381,0.446,17.867,0,25.461c-0.446,7.592-1.34,18.758-12.06,28.586c16.08-13.4,18.76-22.781,20.993-36.18c2.232-13.4-0.894-23.227,1.34-25.461c1.142-1.141,9.989-20.379,10.366-42.434"></path><linearGradient id="hair1XMLID_2859_" gradientUnits="userSpaceOnUse" x1="248.4175" y1="218.667" x2="248.4175" y2="158.667"><stop offset="0" style="stop-color:#FCFCE4"></stop><stop offset="0.5" style="stop-color:#A0C8DD"></stop><stop offset="1" style="stop-color:#5D6EC5"></stop></linearGradient><path style="fill:url(#hair1XMLID_2859_);stroke:#1E1E1E;stroke-linecap:round;stroke-linejoin:round;" d="M188.813,159.909c-6.237,10.659-6.668,22.339-6.668,29.479c0,12.061,6.905,27.693,15.782,31.714c-3.945-7.146-0.493-20.547,0.986-26.354c-1.479,14.739,11.344,21.887,14.303,22.333c-2.151-11.613,0.987-24.566,1.479-26.8c0,4.468,7.272,26.8,15.657,29.033c-0.479-3.051,2.467-25.907,2.467-25.907s0,24.121,24.167,36.181c5.918-7.593,11.342-29.479,10.85-36.181c2.959,6.701,1.973,23.228,1.479,26.354c8.386-2.232,12.824-25.012,12.824-29.479c0.494,2.233,0.987,25.014,1.48,26.8c2.959-0.446,15.781-7.594,14.302-22.333c1.479,5.807,4.932,19.207,0.986,26.354c8.878-4.021,15.783-21.44,15.783-31.714c0-6.547,0.197-17.992-7.444-29.479"></path></g></g><path style="fill:#FFF0DE;" d="M313.41,188.036c0,0-5.853-11.712-8.195-12.295c-2.343-0.585,0.816,19.084,4.1,18.149C312.387,193.013,314.581,190.818,313.41,188.036z"></path><path style="fill:#FFF0DE;" d="M305.297,192.717c0,0-0.451-7.659-2.93-9.365c-2.478-1.707-1.756,11.708,0,11.708C304.125,195.06,305.297,195.645,305.297,192.717z"></path><g><g><path style="fill:#FFF0DE;" d="M183.672,188.036c0,0,5.852-11.712,8.195-12.295c2.342-0.585-0.816,19.084-4.1,18.149C184.696,193.013,182.501,190.818,183.672,188.036z"></path><path style="fill:#FFF0DE;" d="M191.786,192.717c0,0,0.45-7.659,2.929-9.365c2.478-1.707,1.757,11.708,0,11.708C192.957,195.06,191.786,195.645,191.786,192.717z"></path></g><path style="fill:#FFF0DE;" d="M242.828,194.22c0,0,0-11.417,2.635-14.489c2.631-3.074,6.058,14.753,3.074,16.245C245.901,197.294,242.828,197.294,242.828,194.22z"></path><path style="fill:#FFF0DE;" d="M252.489,194.22c-1.761-2.196,0-10.1,0.876-11.417c0.879-1.317,4.391,10.098,2.635,12.294C253.736,197.926,254.244,196.415,252.489,194.22z"></path></g></g></svg>