<svg xmlns="http://www.w3.org/2000/svg" width="500" height="500" version="1.1"><g id="x059"><g><linearGradient id="hair1XMLID_2860_" gradientUnits="userSpaceOnUse" x1="250.0005" y1="206" x2="250.0005" y2="155"><stop offset="0" style="stop-color:#FCFCE4"></stop><stop offset="0.5" style="stop-color:#A0C8DD"></stop><stop offset="1" style="stop-color:#5D6EC5"></stop></linearGradient><path style="fill:url(#hair1XMLID_2860_);stroke:#1E1E1E;stroke-linecap:round;stroke-linejoin:round;" d="M311.484,135.882c-17.021-17.418-41.603-23.852-61.484-20.131c-19.882-3.721-44.464,2.713-61.484,20.131c-13.061,13.365-22.283,30.165-22.283,51.08c0,24.372,15.268,44.372,25.934,48.538c-7.33-33.49-0.484-59.331,5.084-68.5c1.798-2.157,29.369-5.491,52.75-5.619c23.381,0.128,50.952,3.462,52.75,5.619c5.568,9.169,12.414,35.01,5.084,68.5c10.666-4.167,25.934-24.167,25.934-48.538C333.768,166.047,324.545,149.248,311.484,135.882z"></path><g><linearGradient id="hair1XMLID_2861_" gradientUnits="userSpaceOnUse" x1="233.4844" y1="206" x2="233.4844" y2="155"><stop offset="0" style="stop-color:#FCFCE4"></stop><stop offset="0.5" style="stop-color:#A0C8DD"></stop><stop offset="1" style="stop-color:#5D6EC5"></stop></linearGradient><path style="fill:url(#hair1XMLID_2861_);stroke:#1E1E1E;stroke-linecap:round;stroke-linejoin:round;" d="M232.058,145.419c0,0-13.399,38.19,7.146,63.204c-4.02-14.293-3.126-33.947-1.34-52.707"></path><linearGradient id="hair1XMLID_2862_" gradientUnits="userSpaceOnUse" x1="213.0718" y1="206" x2="213.0718" y2="155"><stop offset="0" style="stop-color:#FCFCE4"></stop><stop offset="0.5" style="stop-color:#A0C8DD"></stop><stop offset="1" style="stop-color:#5D6EC5"></stop></linearGradient><path style="fill:url(#hair1XMLID_2862_);stroke:#1E1E1E;stroke-linecap:round;stroke-linejoin:round;" d="M228.484,161.724c-1.34,0.447-6.253,22.333-7.594,47.347c-5.806,0-19.058,1.34-19.058,1.34s-12.655-31.266,6.104-63.426"></path><linearGradient id="hair1XMLID_2863_" gradientUnits="userSpaceOnUse" x1="210.4546" y1="206" x2="210.4546" y2="155"><stop offset="0" style="stop-color:#FCFCE4"></stop><stop offset="0.5" style="stop-color:#A0C8DD"></stop><stop offset="1" style="stop-color:#5D6EC5"></stop></linearGradient><path style="fill:url(#hair1XMLID_2863_);stroke:#1E1E1E;stroke-linecap:round;stroke-linejoin:round;" d="M237.12,127.107c0,0-2.68-4.02-11.613-3.127c-8.933,0.894-14.294,13.847-14.294,13.847s-32.606,55.833-12.06,159.905c-11.076-16.244-27.621-73.242-20.993-118.813c5.399-37.125,25.46-65.213,42.88-67c18.412-1.888,23.228,14.74,23.228,14.74"></path><linearGradient id="hair1XMLID_2864_" gradientUnits="userSpaceOnUse" x1="292.6074" y1="206" x2="292.6074" y2="155"><stop offset="0" style="stop-color:#FCFCE4"></stop><stop offset="0.5" style="stop-color:#A0C8DD"></stop><stop offset="1" style="stop-color:#5D6EC5"></stop></linearGradient><path style="fill:url(#hair1XMLID_2864_);stroke:#1E1E1E;stroke-linecap:round;stroke-linejoin:round;" d="M274.492,160.83c1.34,0.447,12.506,22.782,18.76,47.348c5.806,0,12.06,2.232,12.06,2.232s19.206-35.732-14.74-60.3"></path><linearGradient id="hair1XMLID_2865_" gradientUnits="userSpaceOnUse" x1="248.313" y1="206" x2="248.313" y2="155"><stop offset="0" style="stop-color:#FCFCE4"></stop><stop offset="0.5" style="stop-color:#A0C8DD"></stop><stop offset="1" style="stop-color:#5D6EC5"></stop></linearGradient><path style="fill:url(#hair1XMLID_2865_);stroke:#1E1E1E;stroke-linecap:round;stroke-linejoin:round;" d="M238.311,152.343c0,0-2.68,34.394,20.102,57.173c-5.808-10.719-9.827-47.346-9.827-55.386"></path><linearGradient id="hair1XMLID_2866_" gradientUnits="userSpaceOnUse" x1="267.8008" y1="206" x2="267.8008" y2="155"><stop offset="0" style="stop-color:#FCFCE4"></stop><stop offset="0.5" style="stop-color:#A0C8DD"></stop><stop offset="1" style="stop-color:#5D6EC5"></stop></linearGradient><path style="fill:url(#hair1XMLID_2866_);stroke:#1E1E1E;stroke-linecap:round;stroke-linejoin:round;" d="M249.478,152.343c0,0-1.786,30.374,22.334,54.94c6.7-0.447,14.294,0,14.294,0s1.786-32.607-16.527-59.854"></path><linearGradient id="hair1XMLID_2867_" gradientUnits="userSpaceOnUse" x1="288.6504" y1="206" x2="288.6504" y2="155"><stop offset="0" style="stop-color:#FCFCE4"></stop><stop offset="0.5" style="stop-color:#A0C8DD"></stop><stop offset="1" style="stop-color:#5D6EC5"></stop></linearGradient><path style="fill:url(#hair1XMLID_2867_);stroke:#1E1E1E;stroke-linecap:round;stroke-linejoin:round;" d="M261.984,127.107c0,0,2.68-4.02,11.613-3.127c8.933,0.894,14.294,13.847,14.294,13.847s32.606,55.833,12.061,159.905c11.075-16.244,27.62-73.242,20.992-118.813c-5.399-37.125-25.46-65.213-42.88-67c-18.412-1.888-23.227,14.74-23.227,14.74"></path></g></g><path style="fill:#FFF0DE;" d="M319.41,188.036c0,0-5.853-11.712-8.195-12.295c-2.343-0.585,0.816,19.084,4.1,18.149C318.387,193.013,320.581,190.818,319.41,188.036z"></path><path style="fill:#FFF0DE;" d="M311.297,192.717c0,0-0.451-7.659-2.93-9.365c-2.478-1.707-1.756,11.708,0,11.708C310.125,195.06,311.297,195.645,311.297,192.717z"></path><g><g><path style="fill:#FFF0DE;" d="M179.672,188.036c0,0,5.852-11.712,8.195-12.295c2.342-0.585-0.816,19.084-4.1,18.149C180.696,193.013,178.501,190.818,179.672,188.036z"></path><path style="fill:#FFF0DE;" d="M187.786,192.717c0,0,0.45-7.659,2.929-9.365c2.478-1.707,1.757,11.708,0,11.708C188.957,195.06,187.786,195.645,187.786,192.717z"></path></g></g></g></svg>