<svg xmlns="http://www.w3.org/2000/svg" width="500" height="500" version="1.1"><g id="x062"><g><linearGradient id="hair1XMLID_2883_" gradientUnits="userSpaceOnUse" x1="250.0005" y1="209.3335" x2="250.0005" y2="151.6669"><stop offset="0" style="stop-color:#FCFCE4"></stop><stop offset="0.5" style="stop-color:#A0C8DD"></stop><stop offset="1" style="stop-color:#5D6EC5"></stop></linearGradient><path style="fill:url(#hair1XMLID_2883_);stroke:#1E1E1E;stroke-linecap:round;stroke-linejoin:round;" d="M311.484,135.882c-17.021-17.418-41.603-23.852-61.484-20.131c-19.882-3.721-44.464,2.713-61.484,20.131c-13.061,13.365-22.283,30.165-22.283,51.08c0,24.372,15.268,44.372,25.934,48.538c-7.33-33.49-0.484-59.331,5.084-68.5c1.798-2.157,29.369-5.491,52.75-5.619c23.381,0.128,50.952,3.462,52.75,5.619c5.568,9.169,12.414,35.01,5.084,68.5c10.666-4.167,25.934-24.167,25.934-48.538C333.768,166.047,324.545,149.248,311.484,135.882z"></path><g><linearGradient id="hair1XMLID_2884_" gradientUnits="userSpaceOnUse" x1="248.9976" y1="209.3335" x2="248.9976" y2="151.667"><stop offset="0" style="stop-color:#FCFCE4"></stop><stop offset="0.5" style="stop-color:#A0C8DD"></stop><stop offset="1" style="stop-color:#5D6EC5"></stop></linearGradient><path style="fill:url(#hair1XMLID_2884_);stroke:#1E1E1E;stroke-linecap:round;stroke-linejoin:round;" d="M209.948,161.834c0,0-3.016,9.045-1.34,15.41c17.42,0,81.069,0,81.069,0s1.34-15.41-2.68-19.094"></path><linearGradient id="hair1XMLID_2885_" gradientUnits="userSpaceOnUse" x1="191.689" y1="209.3335" x2="191.689" y2="151.6669"><stop offset="0" style="stop-color:#FCFCE4"></stop><stop offset="0.5" style="stop-color:#A0C8DD"></stop><stop offset="1" style="stop-color:#5D6EC5"></stop></linearGradient><path style="fill:url(#hair1XMLID_2885_);stroke:#1E1E1E;stroke-linecap:round;stroke-linejoin:round;" d="M193.466,208.4c0,0-2.589,29.269,7.37,48.909c12.06,23.784,0.335,41.204,0.335,41.204s-1.111-16.479-15.745-40.869c-11.056-18.425-9.715-51.925-4.021-67.67"></path><linearGradient id="hair1XMLID_2886_" gradientUnits="userSpaceOnUse" x1="308.6514" y1="209.3335" x2="308.6514" y2="151.6669"><stop offset="0" style="stop-color:#FCFCE4"></stop><stop offset="0.5" style="stop-color:#A0C8DD"></stop><stop offset="1" style="stop-color:#5D6EC5"></stop></linearGradient><path style="fill:url(#hair1XMLID_2886_);stroke:#1E1E1E;stroke-linecap:round;stroke-linejoin:round;" d="M306.896,208.4c0,0,2.588,29.269-7.37,48.909c-12.06,23.784-0.335,41.204-0.335,41.204s1.111-16.479,15.745-40.869c11.055-18.425,10.185-55.945,2.479-74.705"></path><g><g><g><linearGradient id="hair1XMLID_2887_" gradientUnits="userSpaceOnUse" x1="290.1895" y1="209.3335" x2="290.1895" y2="151.667"><stop offset="0" style="stop-color:#FCFCE4"></stop><stop offset="0.5" style="stop-color:#A0C8DD"></stop><stop offset="1" style="stop-color:#5D6EC5"></stop></linearGradient><path style="fill:url(#hair1XMLID_2887_);stroke:#1E1E1E;stroke-linecap:round;stroke-linejoin:round;" d="M267.442,171.438c5.861,8.445,12.804,22.069,13.19,41.43c2.01,0.932,4.021,1.242,6.365,0.311c4.577-9.008,4.689-22.674,1.675-36.34c3.661,6.527,8.298,25.164,10.896,36.539L310.667,213c5.835-15.918,0.62-47.02-17.974-66.91"></path><linearGradient id="hair1XMLID_2888_" gradientUnits="userSpaceOnUse" x1="203.8823" y1="209.3335" x2="203.8823" y2="151.667"><stop offset="0" style="stop-color:#FCFCE4"></stop><stop offset="0.5" style="stop-color:#A0C8DD"></stop><stop offset="1" style="stop-color:#5D6EC5"></stop></linearGradient><path style="fill:url(#hair1XMLID_2888_);stroke:#1E1E1E;stroke-linecap:round;stroke-linejoin:round;" d="M224.171,171.341c-5.875,8.438-12.868,22.093-13.257,41.526c-2.011,0.932-4.021,1.242-6.365,0.311c-4.577-9.008-4.69-22.674-1.675-36.34c-3.662,6.527-6.661,18.325-7.331,35.407h-8.079c-5.835-15.918-7.204-46.265,11.39-66.155"></path></g></g></g><linearGradient id="hair1XMLID_2889_" gradientUnits="userSpaceOnUse" x1="245.8027" y1="209.3335" x2="245.8027" y2="151.6672"><stop offset="0" style="stop-color:#FCFCE4"></stop><stop offset="0.5" style="stop-color:#A0C8DD"></stop><stop offset="1" style="stop-color:#5D6EC5"></stop></linearGradient><path style="fill:url(#hair1XMLID_2889_);stroke:#1E1E1E;stroke-linecap:round;stroke-linejoin:round;" d="M214.603,167.826c-2.229,12.998-2.973,30.219,4.056,44.419c1.675,1.554,4.354,1.554,6.7,1.554c-1.341-6.523-0.671-25.469-0.671-25.469s1.676,20.188,9.046,24.227c7.369,0,27.47,0.932,27.47,0.932s5.024-10.561,5.024-19.258c2.681,4.039,3.351,20.189,3.351,20.189s2.345,0.311,6.03-2.484c2.687-9.598,4.339-29.449,1.387-46.907"></path></g></g></g></svg>