<svg xmlns="http://www.w3.org/2000/svg" width="500" height="500" version="1.1"><g id="x063"><g><linearGradient id="hair1XMLID_2890_" gradientUnits="userSpaceOnUse" x1="250.0005" y1="227.3335" x2="250.0005" y2="150"><stop offset="0" style="stop-color:#FCFCE4"></stop><stop offset="0.5" style="stop-color:#A0C8DD"></stop><stop offset="1" style="stop-color:#5D6EC5"></stop></linearGradient><path style="fill:url(#hair1XMLID_2890_);stroke:#1E1E1E;stroke-linecap:round;stroke-linejoin:round;" d="M311.484,135.882c-17.021-17.418-41.603-23.852-61.484-20.131c-19.882-3.721-44.464,2.713-61.484,20.131c-13.061,13.365-22.283,30.165-22.283,51.08c0,24.372,15.268,44.372,25.934,48.538c-7.33-33.49-0.484-59.331,5.084-68.5c1.798-2.157,29.369-5.491,52.75-5.619c23.381,0.128,50.952,3.462,52.75,5.619c5.568,9.169,12.414,35.01,5.084,68.5c10.666-4.167,25.934-24.167,25.934-48.538C333.768,166.047,324.545,149.248,311.484,135.882z"></path><linearGradient id="hair1XMLID_2891_" gradientUnits="userSpaceOnUse" x1="175.0488" y1="227.3335" x2="175.0488" y2="150"><stop offset="0" style="stop-color:#FCFCE4"></stop><stop offset="0.5" style="stop-color:#A0C8DD"></stop><stop offset="1" style="stop-color:#5D6EC5"></stop></linearGradient><path style="fill:url(#hair1XMLID_2891_);stroke:#1E1E1E;stroke-linecap:round;stroke-linejoin:round;" d="M191.086,158.47c0,0-42.881,25.46-29.48,72.36c1.121-5.324,4.021-16.75,10.559-26.336c-3.904,17.074-3.025,31.895,6.191,49.785c0,0-0.894-26.576,7.146-46.676"></path><linearGradient id="hair1XMLID_2892_" gradientUnits="userSpaceOnUse" x1="227.9663" y1="227.3335" x2="227.9663" y2="150"><stop offset="0" style="stop-color:#FCFCE4"></stop><stop offset="0.5" style="stop-color:#A0C8DD"></stop><stop offset="1" style="stop-color:#5D6EC5"></stop></linearGradient><path style="fill:url(#hair1XMLID_2892_);stroke:#1E1E1E;stroke-linecap:round;stroke-linejoin:round;" d="M253.426,118.27c0,0-5.36-12.73-13.4-15.41c-8.04-2.68-31.49-2.68-37.52-8.04c1.34,8.71,8.71,22.11,35.51,26.8"></path><linearGradient id="hair1XMLID_2893_" gradientUnits="userSpaceOnUse" x1="190.1104" y1="227.3335" x2="190.1104" y2="150.0001"><stop offset="0" style="stop-color:#FCFCE4"></stop><stop offset="0.5" style="stop-color:#A0C8DD"></stop><stop offset="1" style="stop-color:#5D6EC5"></stop></linearGradient><path style="fill:url(#hair1XMLID_2893_);stroke:#1E1E1E;stroke-linecap:round;stroke-linejoin:round;" d="M231.315,119.61c0,0-22.78,2.68-34.84,8.04c-12.06,5.36-30.82,32.83-47.57,36.18c4.69,1.34,22.11,4.02,42.88-7.37"></path><g><g><linearGradient id="hair1XMLID_2894_" gradientUnits="userSpaceOnUse" x1="304.0059" y1="227.3335" x2="304.0059" y2="149.9998"><stop offset="0" style="stop-color:#FCFCE4"></stop><stop offset="0.5" style="stop-color:#A0C8DD"></stop><stop offset="1" style="stop-color:#5D6EC5"></stop></linearGradient><path style="fill:url(#hair1XMLID_2894_);stroke:#1E1E1E;stroke-linecap:round;stroke-linejoin:round;" d="M289.067,162.49c0,0,22.444,25.125,26.465,57.62c7.035-16.414,2.68-52.93-8.375-62.31"></path><linearGradient id="hair1XMLID_2895_" gradientUnits="userSpaceOnUse" x1="277.75" y1="227.3335" x2="277.75" y2="149.9999"><stop offset="0" style="stop-color:#FCFCE4"></stop><stop offset="0.5" style="stop-color:#A0C8DD"></stop><stop offset="1" style="stop-color:#5D6EC5"></stop></linearGradient><path style="fill:url(#hair1XMLID_2895_);stroke:#1E1E1E;stroke-linecap:round;stroke-linejoin:round;" d="M288.063,153.445c0,0,10.05,45.895-22.11,64.655c1.675-10.385,3.015-52.595,3.015-52.595"></path><linearGradient id="hair1XMLID_2896_" gradientUnits="userSpaceOnUse" x1="258.9277" y1="227.3335" x2="258.9277" y2="150"><stop offset="0" style="stop-color:#FCFCE4"></stop><stop offset="0.5" style="stop-color:#A0C8DD"></stop><stop offset="1" style="stop-color:#5D6EC5"></stop></linearGradient><path style="fill:url(#hair1XMLID_2896_);stroke:#1E1E1E;stroke-linecap:round;stroke-linejoin:round;" d="M274.662,154.785c0,0,14.405,81.07-33.5,103.85c24.455-21.105,17.755-96.48,17.755-96.48"></path><g><linearGradient id="hair1XMLID_2897_" gradientUnits="userSpaceOnUse" x1="220.9473" y1="227.3335" x2="220.9473" y2="150"><stop offset="0" style="stop-color:#FCFCE4"></stop><stop offset="0.5" style="stop-color:#A0C8DD"></stop><stop offset="1" style="stop-color:#5D6EC5"></stop></linearGradient><path style="fill:url(#hair1XMLID_2897_);stroke:#1E1E1E;stroke-linecap:round;stroke-linejoin:round;" d="M260.257,155.455c0,0,8.71,76.715-45.895,102.174C212.688,258.635,207,280,207,280s-55.667-49.667-3.693-128.565"></path><linearGradient id="hair1XMLID_2898_" gradientUnits="userSpaceOnUse" x1="228.0972" y1="227.3335" x2="228.0972" y2="150"><stop offset="0" style="stop-color:#FCFCE4"></stop><stop offset="0.5" style="stop-color:#A0C8DD"></stop><stop offset="1" style="stop-color:#5D6EC5"></stop></linearGradient><path style="fill:url(#hair1XMLID_2898_);stroke:#1E1E1E;stroke-linecap:round;stroke-linejoin:round;" d="M243.507,190.63c0,0-5.024,39.194-30.819,68.675"></path></g></g></g></g></g></svg>