<svg xmlns="http://www.w3.org/2000/svg" width="500" height="500" version="1.1"><g id="x065"><g><linearGradient id="hair1XMLID_2912_" gradientUnits="userSpaceOnUse" x1="250.0005" y1="228.667" x2="250.0005" y2="172.667"><stop offset="0" style="stop-color:#FCFCE4"></stop><stop offset="0.5" style="stop-color:#A0C8DD"></stop><stop offset="1" style="stop-color:#5D6EC5"></stop></linearGradient><path style="fill:url(#hair1XMLID_2912_);stroke:#1E1E1E;stroke-linecap:round;stroke-linejoin:round;" d="M311.484,135.882c-17.021-17.418-41.603-23.852-61.484-20.131c-19.882-3.721-44.464,2.713-61.484,20.131c-13.061,13.365-22.283,30.165-22.283,51.08c0,24.372,15.268,44.372,25.934,48.538c-7.33-33.49-0.484-59.331,5.084-68.5c1.798-2.157,29.369-5.491,52.75-5.619c23.381,0.128,50.952,3.462,52.75,5.619c5.568,9.169,12.414,35.01,5.084,68.5c10.666-4.167,25.934-24.167,25.934-48.538C333.768,166.047,324.545,149.248,311.484,135.882z"></path><g><linearGradient id="hair1XMLID_2913_" gradientUnits="userSpaceOnUse" x1="247.0708" y1="228.667" x2="247.0708" y2="172.6668"><stop offset="0" style="stop-color:#FCFCE4"></stop><stop offset="0.5" style="stop-color:#A0C8DD"></stop><stop offset="1" style="stop-color:#5D6EC5"></stop></linearGradient><path style="fill:url(#hair1XMLID_2913_);stroke:#1E1E1E;stroke-linecap:round;stroke-linejoin:round;" d="M199.026,152.104c0,0-22.78,12.395-21.44,33.165c17.086,0,139.025,0,139.025,0s0.238-18.162-15.633-28.65"></path><linearGradient id="hair1XMLID_2914_" gradientUnits="userSpaceOnUse" x1="185.0161" y1="228.667" x2="185.0161" y2="172.6671"><stop offset="0" style="stop-color:#FCFCE4"></stop><stop offset="0.5" style="stop-color:#A0C8DD"></stop><stop offset="1" style="stop-color:#5D6EC5"></stop></linearGradient><path style="fill:url(#hair1XMLID_2914_);stroke:#1E1E1E;stroke-linecap:round;stroke-linejoin:round;" d="M187.503,210.395c0,0-0.335,27.135,14.405,31.825c-5.025,5.024-13.065,3.351-13.065,3.351s2.681,6.364,11.391,8.039c-4.69,2.01-42.881,6.03-29.146-45.225"></path><linearGradient id="hair1XMLID_2915_" gradientUnits="userSpaceOnUse" x1="314.6602" y1="228.667" x2="314.6602" y2="172.6671"><stop offset="0" style="stop-color:#FCFCE4"></stop><stop offset="0.5" style="stop-color:#A0C8DD"></stop><stop offset="1" style="stop-color:#5D6EC5"></stop></linearGradient><path style="fill:url(#hair1XMLID_2915_);stroke:#1E1E1E;stroke-linecap:round;stroke-linejoin:round;" d="M312.174,210.395c0,0,0.335,27.135-14.405,31.825c5.025,5.024,13.065,3.351,13.065,3.351s-2.68,6.364-11.39,8.039c4.689,2.01,42.88,6.03,29.145-45.225"></path><linearGradient id="hair1XMLID_2916_" gradientUnits="userSpaceOnUse" x1="216.0938" y1="228.667" x2="216.0938" y2="172.6668"><stop offset="0" style="stop-color:#FCFCE4"></stop><stop offset="0.5" style="stop-color:#A0C8DD"></stop><stop offset="1" style="stop-color:#5D6EC5"></stop></linearGradient><path style="fill:url(#hair1XMLID_2916_);stroke:#1E1E1E;stroke-linecap:round;stroke-linejoin:round;" d="M209.283,175.89c-1.005,1.34-6.365,27.806,12.729,39.53c-1.005-9.381,0-22.11,2.346-33.165"></path><g><linearGradient id="hair1XMLID_2917_" gradientUnits="userSpaceOnUse" x1="246.6108" y1="228.667" x2="246.6108" y2="172.667"><stop offset="0" style="stop-color:#FCFCE4"></stop><stop offset="0.5" style="stop-color:#A0C8DD"></stop><stop offset="1" style="stop-color:#5D6EC5"></stop></linearGradient><path style="fill:url(#hair1XMLID_2917_);stroke:#1E1E1E;stroke-linecap:round;stroke-linejoin:round;" d="M222.343,178.904c0,0-1.34,26.465,11.726,30.82c1.005,8.71,4.02,14.74,18.76,19.43c5.024,4.021,3.685,6.03,3.685,6.03s6.365-6.364,1.675-13.735c9.046-10.72,17.086-31.154,10.051-44.22"></path><path style="fill:none;stroke:#1E1E1E;stroke-linecap:round;stroke-linejoin:round;" d="M235.078,194.66c0,0-3.016,10.385,0.335,20.435"></path></g><linearGradient id="hair1XMLID_2918_" gradientUnits="userSpaceOnUse" x1="192.2153" y1="228.667" x2="192.2153" y2="172.667"><stop offset="0" style="stop-color:#FCFCE4"></stop><stop offset="0.5" style="stop-color:#A0C8DD"></stop><stop offset="1" style="stop-color:#5D6EC5"></stop></linearGradient><path style="fill:url(#hair1XMLID_2918_);stroke:#1E1E1E;stroke-linecap:round;stroke-linejoin:round;" d="M209.283,175.89c0,0-3.351,30.149-18.09,37.854c-3.016,1.34-5.695,4.355-4.355,13.065c-10.72-8.71-22.78-51.255,7.37-72.36"></path><linearGradient id="hair1XMLID_2919_" gradientUnits="userSpaceOnUse" x1="284.6191" y1="228.667" x2="284.6191" y2="172.6671"><stop offset="0" style="stop-color:#FCFCE4"></stop><stop offset="0.5" style="stop-color:#A0C8DD"></stop><stop offset="1" style="stop-color:#5D6EC5"></stop></linearGradient><path style="fill:url(#hair1XMLID_2919_);stroke:#1E1E1E;stroke-linecap:round;stroke-linejoin:round;" d="M266.898,173.545c0,0-9.046,43.215,36.18,41.539c-13.065-10.049-11.726-28.139-10.385-36.514"></path><linearGradient id="hair1XMLID_2920_" gradientUnits="userSpaceOnUse" x1="304.916" y1="228.667" x2="304.916" y2="172.667"><stop offset="0" style="stop-color:#FCFCE4"></stop><stop offset="0.5" style="stop-color:#A0C8DD"></stop><stop offset="1" style="stop-color:#5D6EC5"></stop></linearGradient><path style="fill:url(#hair1XMLID_2920_);stroke:#1E1E1E;stroke-linecap:round;stroke-linejoin:round;" d="M289.338,186.275c0,0,0.335,23.449,31.155,30.149c-4.355-19.095,2.345-47.905-21.775-61.64"></path><linearGradient id="hair1XMLID_2921_" gradientUnits="userSpaceOnUse" x1="223.5278" y1="228.667" x2="223.5278" y2="172.6671"><stop offset="0" style="stop-color:#FCFCE4"></stop><stop offset="0.5" style="stop-color:#A0C8DD"></stop><stop offset="1" style="stop-color:#5D6EC5"></stop></linearGradient><path style="fill:url(#hair1XMLID_2921_);stroke:#1E1E1E;stroke-linecap:round;stroke-linejoin:round;" d="M219.998,138.705c0,0-16.75,15.075,0.335,32.495c4.02-8.709,14.07-19.43,14.07-19.43"></path><linearGradient id="hair1XMLID_2922_" gradientUnits="userSpaceOnUse" x1="242.3755" y1="228.667" x2="242.3755" y2="172.667"><stop offset="0" style="stop-color:#FCFCE4"></stop><stop offset="0.5" style="stop-color:#A0C8DD"></stop><stop offset="1" style="stop-color:#5D6EC5"></stop></linearGradient><path style="fill:url(#hair1XMLID_2922_);stroke:#1E1E1E;stroke-linecap:round;stroke-linejoin:round;" d="M266.563,148.755c0,0-6.029,18.09-34.505,24.79c-2.68,0.67-5.694,8.375-5.359,11.055c-10.386-9.045-14.07-30.485,5.359-43.885"></path><linearGradient id="hair1XMLID_2923_" gradientUnits="userSpaceOnUse" x1="259.9658" y1="228.667" x2="259.9658" y2="172.6671"><stop offset="0" style="stop-color:#FCFCE4"></stop><stop offset="0.5" style="stop-color:#A0C8DD"></stop><stop offset="1" style="stop-color:#5D6EC5"></stop></linearGradient><path style="fill:url(#hair1XMLID_2923_);stroke:#1E1E1E;stroke-linecap:round;stroke-linejoin:round;" d="M269.913,151.77c0,0,3.685,22.445-20.101,24.12c6.03-7.705,2.681-19.765,2.011-20.77"></path><linearGradient id="hair1XMLID_2924_" gradientUnits="userSpaceOnUse" x1="277.9414" y1="228.667" x2="277.9414" y2="172.6669"><stop offset="0" style="stop-color:#FCFCE4"></stop><stop offset="0.5" style="stop-color:#A0C8DD"></stop><stop offset="1" style="stop-color:#5D6EC5"></stop></linearGradient><path style="fill:url(#hair1XMLID_2924_);stroke:#1E1E1E;stroke-linecap:round;stroke-linejoin:round;" d="M262.878,149.76c0,0-2.01,20.1,30.15,22.779c-3.351-9.379-5.025-15.074-9.716-22.444c-4.731-7.435-14.404-8.71-17.42-9.38"></path><linearGradient id="hair1XMLID_2925_" gradientUnits="userSpaceOnUse" x1="190.7822" y1="228.667" x2="190.7822" y2="172.6671"><stop offset="0" style="stop-color:#FCFCE4"></stop><stop offset="0.5" style="stop-color:#A0C8DD"></stop><stop offset="1" style="stop-color:#5D6EC5"></stop></linearGradient><path style="fill:url(#hair1XMLID_2925_);stroke:#1E1E1E;stroke-linecap:round;stroke-linejoin:round;" d="M200.568,144.4c0,0-12.061,13.735-23.785,8.71c-1.675,9.715,11.725,20.77,28.14,10.05"></path><linearGradient id="hair1XMLID_2926_" gradientUnits="userSpaceOnUse" x1="305.6875" y1="228.667" x2="305.6875" y2="172.6671"><stop offset="0" style="stop-color:#FCFCE4"></stop><stop offset="0.5" style="stop-color:#A0C8DD"></stop><stop offset="1" style="stop-color:#5D6EC5"></stop></linearGradient><path style="fill:url(#hair1XMLID_2926_);stroke:#1E1E1E;stroke-linecap:round;stroke-linejoin:round;" d="M295.901,144.4c0,0,12.061,13.735,23.785,8.71c1.675,9.715-11.725,20.77-28.14,10.05"></path></g></g></g></svg>