<svg xmlns="http://www.w3.org/2000/svg" width="500" height="500" version="1.1"><g id="x066"><g><linearGradient id="hair1XMLID_2927_" gradientUnits="userSpaceOnUse" x1="250.0005" y1="218.667" x2="250.0005" y2="155.3335"><stop offset="0" style="stop-color:#FCFCE4"></stop><stop offset="0.5" style="stop-color:#A0C8DD"></stop><stop offset="1" style="stop-color:#5D6EC5"></stop></linearGradient><path style="fill:url(#hair1XMLID_2927_);stroke:#1E1E1E;stroke-linecap:round;stroke-linejoin:round;" d="M311.484,135.882c-17.021-17.418-41.603-23.852-61.484-20.131c-19.882-3.721-44.464,2.713-61.484,20.131c-13.061,13.365-22.283,30.165-22.283,51.08c0,24.372,15.268,44.372,25.934,48.538c-7.33-33.49-0.484-59.331,5.084-68.5c1.798-2.157,29.369-5.491,52.75-5.619c23.381,0.128,50.952,3.462,52.75,5.619c5.568,9.169,12.414,35.01,5.084,68.5c10.666-4.167,25.934-24.167,25.934-48.538C333.768,166.047,324.545,149.248,311.484,135.882z"></path><g><g><g><g><linearGradient id="hair1XMLID_2928_" gradientUnits="userSpaceOnUse" x1="183.7173" y1="218.667" x2="183.7173" y2="155.3335"><stop offset="0" style="stop-color:#FCFCE4"></stop><stop offset="0.5" style="stop-color:#A0C8DD"></stop><stop offset="1" style="stop-color:#5D6EC5"></stop></linearGradient><path style="fill:url(#hair1XMLID_2928_);stroke:#1E1E1E;stroke-linecap:round;stroke-linejoin:round;" d="M190.452,147.876c0,0-20.636,37.295-25.238,76.417c-3.166,12.158-19.163,81.818,25.619,96.891c-7.449-8.74-11.115-24.879-12.885-37.006c7.936,14.225,21.26,9.758,21.26,9.758s5.711,4.02,8.375,12.953c-1.142-11.613-2.664-34.393-14.846-46.006c-12.183-12.06-11.42-50.473-1.523-78.166"></path><path style="fill:none;stroke:#1E1E1E;stroke-linecap:round;stroke-linejoin:round;" d="M187.026,284.557c0,0,11.42,5.807,14.847,11.613"></path></g><path style="fill:none;stroke:#1E1E1E;stroke-linecap:round;stroke-linejoin:round;" d="M172.181,253.289c0,0-1.523,32.16,13.703,39.307"></path></g><linearGradient id="hair1XMLID_2929_" gradientUnits="userSpaceOnUse" x1="195.2017" y1="218.667" x2="195.2017" y2="155.3335"><stop offset="0" style="stop-color:#FCFCE4"></stop><stop offset="0.5" style="stop-color:#A0C8DD"></stop><stop offset="1" style="stop-color:#5D6EC5"></stop></linearGradient><path style="fill:url(#hair1XMLID_2929_);stroke:#1E1E1E;stroke-linecap:round;stroke-linejoin:round;" d="M195.567,179.985c-6.257,19.258-11.217,49.665-0.737,66.157c16.179,25.461,20.366,30.82,18.844,47.793c-10.659-27.023-44.54-16.525-35.813-79.063"></path></g><g><g><g><linearGradient id="hair1XMLID_2930_" gradientUnits="userSpaceOnUse" x1="316.2832" y1="218.667" x2="316.2832" y2="155.3335"><stop offset="0" style="stop-color:#FCFCE4"></stop><stop offset="0.5" style="stop-color:#A0C8DD"></stop><stop offset="1" style="stop-color:#5D6EC5"></stop></linearGradient><path style="fill:url(#hair1XMLID_2930_);stroke:#1E1E1E;stroke-linecap:round;stroke-linejoin:round;" d="M309.548,147.876c0,0,20.637,37.295,25.238,76.417c3.166,12.158,19.163,81.818-25.619,96.891c7.449-8.74,11.115-24.879,12.885-37.006c-7.936,14.225-21.26,9.758-21.26,9.758s-5.711,4.02-8.375,12.953c1.142-11.613,2.664-34.393,14.846-46.006c12.183-12.06,11.42-50.473,1.523-78.166"></path><path style="fill:none;stroke:#1E1E1E;stroke-linecap:round;stroke-linejoin:round;" d="M312.974,284.557c0,0-11.42,5.807-14.847,11.613"></path></g><path style="fill:none;stroke:#1E1E1E;stroke-linecap:round;stroke-linejoin:round;" d="M327.819,253.289c0,0,1.523,32.16-13.703,39.307"></path></g><linearGradient id="hair1XMLID_2931_" gradientUnits="userSpaceOnUse" x1="304.7988" y1="218.667" x2="304.7988" y2="155.3335"><stop offset="0" style="stop-color:#FCFCE4"></stop><stop offset="0.5" style="stop-color:#A0C8DD"></stop><stop offset="1" style="stop-color:#5D6EC5"></stop></linearGradient><path style="fill:url(#hair1XMLID_2931_);stroke:#1E1E1E;stroke-linecap:round;stroke-linejoin:round;" d="M304.433,179.985c6.257,19.258,11.217,49.665,0.737,66.157c-16.179,25.461-20.366,30.82-18.844,47.793c10.659-27.023,44.54-16.525,35.814-79.063"></path></g><g><linearGradient id="hair1XMLID_2932_" gradientUnits="userSpaceOnUse" x1="252.6318" y1="218.667" x2="252.6318" y2="155.3335"><stop offset="0" style="stop-color:#FCFCE4"></stop><stop offset="0.5" style="stop-color:#A0C8DD"></stop><stop offset="1" style="stop-color:#5D6EC5"></stop></linearGradient><path style="fill:url(#hair1XMLID_2932_);stroke:#1E1E1E;stroke-linecap:round;stroke-linejoin:round;" d="M211.607,161.834c0,0-3.168,9.045-1.408,15.41c18.302,0,85.172,0,85.172,0s1.408-15.41-2.815-19.094"></path><g><g><g><linearGradient id="hair1XMLID_2933_" gradientUnits="userSpaceOnUse" x1="293.291" y1="218.667" x2="293.291" y2="155.3335"><stop offset="0" style="stop-color:#FCFCE4"></stop><stop offset="0.5" style="stop-color:#A0C8DD"></stop><stop offset="1" style="stop-color:#5D6EC5"></stop></linearGradient><path style="fill:url(#hair1XMLID_2933_);stroke:#1E1E1E;stroke-linecap:round;stroke-linejoin:round;" d="M272.012,171.438c6.157,8.445,13.45,22.069,13.857,41.43c2.111,0.932,4.223,1.242,6.687,0.311c4.81-9.008,4.928-22.674,1.76-36.34c3.847,6.527,8.718,25.164,11.448,36.539l4.741-1.132c6.131-15.918,7.568-46.265-11.966-66.155"></path><linearGradient id="hair1XMLID_2934_" gradientUnits="userSpaceOnUse" x1="205.2349" y1="218.667" x2="205.2349" y2="155.3335"><stop offset="0" style="stop-color:#FCFCE4"></stop><stop offset="0.5" style="stop-color:#A0C8DD"></stop><stop offset="1" style="stop-color:#5D6EC5"></stop></linearGradient><path style="fill:url(#hair1XMLID_2934_);stroke:#1E1E1E;stroke-linecap:round;stroke-linejoin:round;" d="M226.55,171.341c-6.173,8.438-13.521,22.093-13.927,41.526c-2.112,0.932-4.224,1.242-6.688,0.311c-4.811-9.008-4.928-22.674-1.76-36.34c-3.847,6.527-6.998,18.325-7.702,35.407h-8.487c-6.131-15.918-7.568-46.265,11.966-66.155"></path></g></g></g><linearGradient id="hair1XMLID_2935_" gradientUnits="userSpaceOnUse" x1="249.2764" y1="218.667" x2="249.2764" y2="155.3333"><stop offset="0" style="stop-color:#FCFCE4"></stop><stop offset="0.5" style="stop-color:#A0C8DD"></stop><stop offset="1" style="stop-color:#5D6EC5"></stop></linearGradient><path style="fill:url(#hair1XMLID_2935_);stroke:#1E1E1E;stroke-linecap:round;stroke-linejoin:round;" d="M216.497,167.826c-2.342,12.998-3.122,30.219,4.261,44.419c1.76,1.554,4.575,1.554,7.039,1.554c-1.408-6.523-0.704-25.469-0.704-25.469s1.761,20.188,9.503,24.227c7.743,0,28.859,0.932,28.859,0.932s5.279-10.561,5.279-19.258c2.815,4.039,3.52,20.189,3.52,20.189s2.464,0.311,6.335-2.484c2.823-9.598,4.56-29.449,1.459-46.907"></path></g></g></g></g></svg>