<svg xmlns="http://www.w3.org/2000/svg" width="500" height="500" version="1.1"><g id="x067"><g><linearGradient id="hair1XMLID_2936_" gradientUnits="userSpaceOnUse" x1="250.0005" y1="218" x2="250.0005" y2="163"><stop offset="0" style="stop-color:#FCFCE4"></stop><stop offset="0.5" style="stop-color:#A0C8DD"></stop><stop offset="1" style="stop-color:#5D6EC5"></stop></linearGradient><path style="fill:url(#hair1XMLID_2936_);stroke:#1E1E1E;stroke-linecap:round;stroke-linejoin:round;" d="M311.484,135.882c-17.021-17.418-41.603-23.852-61.484-20.131c-19.882-3.721-44.464,2.713-61.484,20.131c-13.061,13.365-22.283,30.165-22.283,51.08c0,24.372,15.268,44.372,25.934,48.538c-7.33-33.49-0.484-59.331,5.084-68.5c1.798-2.157,29.369-5.491,52.75-5.619c23.381,0.128,50.952,3.462,52.75,5.619c5.568,9.169,12.414,35.01,5.084,68.5c10.666-4.167,25.934-24.167,25.934-48.538C333.768,166.047,324.545,149.248,311.484,135.882z"></path><g><g><linearGradient id="hair1XMLID_2937_" gradientUnits="userSpaceOnUse" x1="301.4902" y1="218" x2="301.4902" y2="163"><stop offset="0" style="stop-color:#FCFCE4"></stop><stop offset="0.5" style="stop-color:#A0C8DD"></stop><stop offset="1" style="stop-color:#5D6EC5"></stop></linearGradient><path style="fill:url(#hair1XMLID_2937_);stroke:#1E1E1E;stroke-linecap:round;stroke-linejoin:round;" d="M278.146,160.383c0,0,25.906,44.667,28.141,76.38c5.94-7.041,14.942-16.061,17.42-29.48c5.359-29.033-9.463-48.24-21.887-58.514"></path><g><linearGradient id="hair1XMLID_2938_" gradientUnits="userSpaceOnUse" x1="312.2764" y1="218" x2="312.2764" y2="163"><stop offset="0" style="stop-color:#FCFCE4"></stop><stop offset="0.5" style="stop-color:#A0C8DD"></stop><stop offset="1" style="stop-color:#5D6EC5"></stop></linearGradient><path style="fill:url(#hair1XMLID_2938_);stroke:#1E1E1E;stroke-linecap:round;stroke-linejoin:round;" d="M304.723,215.77c0,0,6.254,51.813-7.592,75.486c3.566-0.738,10.271-3.127,13.846-13.4c13.4-13.398,21.992-32.197,12.284-74.592"></path><path style="fill:none;stroke:#1E1E1E;stroke-linecap:round;stroke-linejoin:round;" d="M315.443,259.99c0,0-1.787,15.633-9.381,25.012"></path></g></g><linearGradient id="hair1XMLID_2939_" gradientUnits="userSpaceOnUse" x1="280.1621" y1="218" x2="280.1621" y2="163"><stop offset="0" style="stop-color:#FCFCE4"></stop><stop offset="0.5" style="stop-color:#A0C8DD"></stop><stop offset="1" style="stop-color:#5D6EC5"></stop></linearGradient><path style="fill:url(#hair1XMLID_2939_);stroke:#1E1E1E;stroke-linecap:round;stroke-linejoin:round;" d="M262.878,159.49c0,0,10.72,29.48,8.04,58.959c2.233,0.447,6.7-8.486,7.146-10.72c0,3.573,0,10.72,0,10.72l4.467-1.786c0,0,3.573,0.446,7.593,0c4.021-0.446,12.954-36.626,2.234-62.98"></path><linearGradient id="hair1XMLID_2940_" gradientUnits="userSpaceOnUse" x1="222.231" y1="218" x2="222.231" y2="163"><stop offset="0" style="stop-color:#FCFCE4"></stop><stop offset="0.5" style="stop-color:#A0C8DD"></stop><stop offset="1" style="stop-color:#5D6EC5"></stop></linearGradient><path style="fill:url(#hair1XMLID_2940_);stroke:#1E1E1E;stroke-linecap:round;stroke-linejoin:round;" d="M238.758,159.49c0,0-0.894,32.161-25.014,59.407c-2.68,0-8.04-0.447-8.04-0.447s6.7-32.605,7.594-58.959"></path><linearGradient id="hair1XMLID_2941_" gradientUnits="userSpaceOnUse" x1="248.4204" y1="218" x2="248.4204" y2="163"><stop offset="0" style="stop-color:#FCFCE4"></stop><stop offset="0.5" style="stop-color:#A0C8DD"></stop><stop offset="1" style="stop-color:#5D6EC5"></stop></linearGradient><path style="fill:url(#hair1XMLID_2941_);stroke:#1E1E1E;stroke-linecap:round;stroke-linejoin:round;" d="M263.324,155.917c0,0,5.36,41.54-4.466,63.873c-0.446-5.807-0.895-12.506-0.895-12.506s-2.232,7.594-8.04,12.953c-5.359,1.34-6.253-0.447-6.253-0.447l-11.613,0.895c0,0,8.934-42.881,3.127-62.98"></path><g><linearGradient id="hair1XMLID_2942_" gradientUnits="userSpaceOnUse" x1="197.0981" y1="218" x2="197.0981" y2="163"><stop offset="0" style="stop-color:#FCFCE4"></stop><stop offset="0.5" style="stop-color:#A0C8DD"></stop><stop offset="1" style="stop-color:#5D6EC5"></stop></linearGradient><path style="fill:url(#hair1XMLID_2942_);stroke:#1E1E1E;stroke-linecap:round;stroke-linejoin:round;" d="M220.444,160.383c0,0-25.906,44.667-28.14,76.38c-5.941-7.041-14.942-16.061-17.421-29.48c-5.359-29.033,9.38-48.687,21.888-58.514"></path><g><linearGradient id="hair1XMLID_2943_" gradientUnits="userSpaceOnUse" x1="187.6553" y1="218" x2="187.6553" y2="163"><stop offset="0" style="stop-color:#FCFCE4"></stop><stop offset="0.5" style="stop-color:#A0C8DD"></stop><stop offset="1" style="stop-color:#5D6EC5"></stop></linearGradient><path style="fill:url(#hair1XMLID_2943_);stroke:#1E1E1E;stroke-linecap:round;stroke-linejoin:round;" d="M195.208,215.77c0,0-6.254,51.813,7.593,75.486c-3.567-0.738-10.272-3.127-13.847-13.4c-13.399-13.398-21.992-32.197-12.283-74.592"></path><path style="fill:none;stroke:#1E1E1E;stroke-linecap:round;stroke-linejoin:round;" d="M184.488,259.99c0,0,1.786,15.633,9.38,25.012"></path></g></g></g></g></g></svg>