<svg xmlns="http://www.w3.org/2000/svg" width="500" height="500" version="1.1"><g id="x068"><g><linearGradient id="hair1XMLID_2944_" gradientUnits="userSpaceOnUse" x1="250.0005" y1="224.667" x2="250.0005" y2="151.3335"><stop offset="0" style="stop-color:#FCFCE4"></stop><stop offset="0.5" style="stop-color:#A0C8DD"></stop><stop offset="1" style="stop-color:#5D6EC5"></stop></linearGradient><path style="fill:url(#hair1XMLID_2944_);stroke:#1E1E1E;stroke-linecap:round;stroke-linejoin:round;" d="M311.484,135.882c-17.021-17.418-41.603-23.852-61.484-20.131c-19.882-3.721-44.464,2.713-61.484,20.131c-13.061,13.365-22.283,30.165-22.283,51.08c0,24.372,15.268,44.372,25.934,48.538c-7.33-33.49-0.484-59.331,5.084-68.5c1.798-2.157,29.369-5.491,52.75-5.619c23.381,0.128,50.952,3.462,52.75,5.619c5.568,9.169,12.414,35.01,5.084,68.5c10.666-4.167,25.934-24.167,25.934-48.538C333.768,166.047,324.545,149.248,311.484,135.882z"></path><g><g><linearGradient id="hair1XMLID_2945_" gradientUnits="userSpaceOnUse" x1="221.6099" y1="224.667" x2="221.6099" y2="151.3333"><stop offset="0" style="stop-color:#FCFCE4"></stop><stop offset="0.5" style="stop-color:#A0C8DD"></stop><stop offset="1" style="stop-color:#5D6EC5"></stop></linearGradient><path style="fill:url(#hair1XMLID_2945_);stroke:#1E1E1E;stroke-linecap:round;stroke-linejoin:round;" d="M248.808,160.957c0,0-37.743,23.673-53.823,50.026c-3.126-18.76,7.146-46.229,16.526-55.163"></path><linearGradient id="hair1XMLID_2946_" gradientUnits="userSpaceOnUse" x1="276.4375" y1="224.667" x2="276.4375" y2="151.3333"><stop offset="0" style="stop-color:#FCFCE4"></stop><stop offset="0.5" style="stop-color:#A0C8DD"></stop><stop offset="1" style="stop-color:#5D6EC5"></stop></linearGradient><path style="fill:url(#hair1XMLID_2946_);stroke:#1E1E1E;stroke-linecap:round;stroke-linejoin:round;" d="M250.245,160.957c0,0,35.733,23.673,51.813,50.026c3.126-18.76-7.146-46.229-16.526-55.163"></path></g><g><g><linearGradient id="hair1XMLID_2947_" gradientUnits="userSpaceOnUse" x1="301.4902" y1="224.667" x2="301.4902" y2="151.3335"><stop offset="0" style="stop-color:#FCFCE4"></stop><stop offset="0.5" style="stop-color:#A0C8DD"></stop><stop offset="1" style="stop-color:#5D6EC5"></stop></linearGradient><path style="fill:url(#hair1XMLID_2947_);stroke:#1E1E1E;stroke-linecap:round;stroke-linejoin:round;" d="M278.146,157.383c0,0,25.906,44.667,28.141,76.38c5.94-7.041,14.942-16.061,17.42-29.48c5.359-29.033-9.463-48.24-21.887-58.514"></path><g><linearGradient id="hair1XMLID_2948_" gradientUnits="userSpaceOnUse" x1="312.2764" y1="224.667" x2="312.2764" y2="151.3335"><stop offset="0" style="stop-color:#FCFCE4"></stop><stop offset="0.5" style="stop-color:#A0C8DD"></stop><stop offset="1" style="stop-color:#5D6EC5"></stop></linearGradient><path style="fill:url(#hair1XMLID_2948_);stroke:#1E1E1E;stroke-linecap:round;stroke-linejoin:round;" d="M304.723,212.77c0,0,6.254,51.813-7.592,75.486c3.566-0.738,10.271-3.127,13.846-13.4c13.4-13.398,21.992-32.197,12.284-74.592"></path><path style="fill:none;stroke:#1E1E1E;stroke-linecap:round;stroke-linejoin:round;" d="M315.443,256.99c0,0-1.787,15.633-9.381,25.012"></path></g></g><g><linearGradient id="hair1XMLID_2949_" gradientUnits="userSpaceOnUse" x1="197.0981" y1="224.667" x2="197.0981" y2="151.3335"><stop offset="0" style="stop-color:#FCFCE4"></stop><stop offset="0.5" style="stop-color:#A0C8DD"></stop><stop offset="1" style="stop-color:#5D6EC5"></stop></linearGradient><path style="fill:url(#hair1XMLID_2949_);stroke:#1E1E1E;stroke-linecap:round;stroke-linejoin:round;" d="M220.444,157.383c0,0-25.906,44.667-28.14,76.38c-5.941-7.041-14.942-16.061-17.421-29.48c-5.359-29.033,9.38-48.687,21.888-58.514"></path><g><linearGradient id="hair1XMLID_2950_" gradientUnits="userSpaceOnUse" x1="187.6553" y1="224.667" x2="187.6553" y2="151.3335"><stop offset="0" style="stop-color:#FCFCE4"></stop><stop offset="0.5" style="stop-color:#A0C8DD"></stop><stop offset="1" style="stop-color:#5D6EC5"></stop></linearGradient><path style="fill:url(#hair1XMLID_2950_);stroke:#1E1E1E;stroke-linecap:round;stroke-linejoin:round;" d="M195.208,212.77c0,0-6.254,51.813,7.593,75.486c-3.567-0.738-10.272-3.127-13.847-13.4c-13.399-13.398-21.992-32.197-12.283-74.592"></path><path style="fill:none;stroke:#1E1E1E;stroke-linecap:round;stroke-linejoin:round;" d="M184.488,256.99c0,0,1.786,15.633,9.38,25.012"></path></g></g></g><path style="fill:none;stroke:#1E1E1E;stroke-linecap:round;stroke-linejoin:round;" d="M249.924,153.81l-4.466-5.36l3.573-4.467c0,0-0.447-9.826-0.447-13.4"></path></g></g></g></svg>