<svg xmlns="http://www.w3.org/2000/svg" width="500" height="500" version="1.1"><g id="x069"><g><linearGradient id="hair1XMLID_2951_" gradientUnits="userSpaceOnUse" x1="250.0005" y1="231.3335" x2="250.0005" y2="154.3335"><stop offset="0" style="stop-color:#FCFCE4"></stop><stop offset="0.5" style="stop-color:#A0C8DD"></stop><stop offset="1" style="stop-color:#5D6EC5"></stop></linearGradient><path style="fill:url(#hair1XMLID_2951_);stroke:#1E1E1E;stroke-linecap:round;stroke-linejoin:round;" d="M311.484,135.882c-17.021-17.418-41.603-23.852-61.484-20.131c-19.882-3.721-44.464,2.713-61.484,20.131c-13.061,13.365-22.283,30.165-22.283,51.08c0,24.372,15.268,44.372,25.934,48.538c-7.33-33.49-0.484-59.331,5.084-68.5c1.798-2.157,29.369-5.491,52.75-5.619c23.381,0.128,50.952,3.462,52.75,5.619c5.568,9.169,12.414,35.01,5.084,68.5c10.666-4.167,25.934-24.167,25.934-48.538C333.768,166.047,324.545,149.248,311.484,135.882z"></path><g><g><g><g><linearGradient id="hair1XMLID_2952_" gradientUnits="userSpaceOnUse" x1="301.4902" y1="231.3335" x2="301.4902" y2="154.3335"><stop offset="0" style="stop-color:#FCFCE4"></stop><stop offset="0.5" style="stop-color:#A0C8DD"></stop><stop offset="1" style="stop-color:#5D6EC5"></stop></linearGradient><path style="fill:url(#hair1XMLID_2952_);stroke:#1E1E1E;stroke-linecap:round;stroke-linejoin:round;" d="M278.146,163.383c0,0,25.906,44.667,28.141,76.38c5.94-7.041,14.942-16.061,17.42-29.48c5.359-29.033-9.463-48.24-21.887-58.514"></path><g><linearGradient id="hair1XMLID_2953_" gradientUnits="userSpaceOnUse" x1="312.2764" y1="231.3335" x2="312.2764" y2="154.3335"><stop offset="0" style="stop-color:#FCFCE4"></stop><stop offset="0.5" style="stop-color:#A0C8DD"></stop><stop offset="1" style="stop-color:#5D6EC5"></stop></linearGradient><path style="fill:url(#hair1XMLID_2953_);stroke:#1E1E1E;stroke-linecap:round;stroke-linejoin:round;" d="M304.723,218.77c0,0,6.254,51.813-7.592,75.486c3.566-0.738,10.271-3.127,13.846-13.4c13.4-13.398,21.992-32.197,12.284-74.592"></path><path style="fill:none;stroke:#1E1E1E;stroke-linecap:round;stroke-linejoin:round;" d="M315.443,262.99c0,0-1.787,15.633-9.381,25.012"></path></g></g><g><linearGradient id="hair1XMLID_2954_" gradientUnits="userSpaceOnUse" x1="197.0981" y1="231.3335" x2="197.0981" y2="154.3335"><stop offset="0" style="stop-color:#FCFCE4"></stop><stop offset="0.5" style="stop-color:#A0C8DD"></stop><stop offset="1" style="stop-color:#5D6EC5"></stop></linearGradient><path style="fill:url(#hair1XMLID_2954_);stroke:#1E1E1E;stroke-linecap:round;stroke-linejoin:round;" d="M220.444,163.383c0,0-25.906,44.667-28.14,76.38c-5.941-7.041-14.942-16.061-17.421-29.48c-5.359-29.033,9.38-48.687,21.888-58.514"></path><g><linearGradient id="hair1XMLID_2955_" gradientUnits="userSpaceOnUse" x1="187.6553" y1="231.3335" x2="187.6553" y2="154.3335"><stop offset="0" style="stop-color:#FCFCE4"></stop><stop offset="0.5" style="stop-color:#A0C8DD"></stop><stop offset="1" style="stop-color:#5D6EC5"></stop></linearGradient><path style="fill:url(#hair1XMLID_2955_);stroke:#1E1E1E;stroke-linecap:round;stroke-linejoin:round;" d="M195.208,218.77c0,0-6.254,51.813,7.593,75.486c-3.567-0.738-10.272-3.127-13.847-13.4c-13.399-13.398-21.992-32.197-12.283-74.592"></path><path style="fill:none;stroke:#1E1E1E;stroke-linecap:round;stroke-linejoin:round;" d="M184.488,262.99c0,0,1.786,15.633,9.38,25.012"></path></g></g></g></g><linearGradient id="hair1XMLID_2956_" gradientUnits="userSpaceOnUse" x1="252.0566" y1="231.3335" x2="252.0566" y2="154.3334"><stop offset="0" style="stop-color:#FCFCE4"></stop><stop offset="0.5" style="stop-color:#A0C8DD"></stop><stop offset="1" style="stop-color:#5D6EC5"></stop></linearGradient><path style="fill:url(#hair1XMLID_2956_);stroke:#1E1E1E;stroke-linecap:round;stroke-linejoin:round;" d="M292.358,160.703c7.592,8.486,9.826,25.46,6.699,33.053c-4.467-1.785-16.527-1.786-24.12-0.446c2.232-8.486-0.894-18.313-2.68-21.439c2.232,9.38-1.787,18.313-6.254,22.333c1.788-7.146-0.894-17.42-3.126-23.227c4.021,9.38,0.446,22.779,0.446,22.779l-12.954,0.447l-5.359-22.333c0.894,8.486-3.127,20.101-6.253,22.78c1.786-4.021,0-18.76,0.446-23.674c-0.446,8.934-8.486,23.227-8.486,23.227s0,0-6.7,0c-0.446-2.232-2.233-13.4,2.681-25.459c-3.574,4.912-8.04,20.546-7.594,25.459c-7.594,0.447-14.294,3.127-14.294,3.127s-4.912-21.887,5.808-36.626"></path></g></g></g></svg>