<svg xmlns="http://www.w3.org/2000/svg" width="500" height="500" version="1.1"><g id="x007"><g><linearGradient id="hair1XMLID_2477_" gradientUnits="userSpaceOnUse" x1="250.0005" y1="202.3335" x2="250.0005" y2="168.3335"><stop offset="0" style="stop-color:#FCFCE4"></stop><stop offset="0.5" style="stop-color:#A0C8DD"></stop><stop offset="1" style="stop-color:#5D6EC5"></stop></linearGradient><path style="fill:url(#hair1XMLID_2477_);stroke:#1E1E1E;stroke-linecap:round;stroke-linejoin:round;" d="M311.484,135.882c-17.021-17.418-41.603-23.852-61.484-20.131c-19.882-3.721-44.464,2.713-61.484,20.131c-13.061,13.365-22.283,30.165-22.283,51.08c0,24.372,15.268,44.372,25.934,48.538c-7.33-33.49-0.484-59.331,5.084-68.5c1.798-2.157,29.369-5.491,52.75-5.619c23.381,0.128,50.952,3.462,52.75,5.619c5.568,9.169,12.414,35.01,5.084,68.5c10.666-4.167,25.934-24.167,25.934-48.538C333.768,166.047,324.545,149.248,311.484,135.882z"></path><g><linearGradient id="hair1XMLID_2478_" gradientUnits="userSpaceOnUse" x1="190.96" y1="223.166" x2="190.96" y2="156.1662"><stop offset="0" style="stop-color:#FCFCE4"></stop><stop offset="0.5" style="stop-color:#A0C8DD"></stop><stop offset="1" style="stop-color:#5D6EC5"></stop></linearGradient><path style="fill:url(#hair1XMLID_2478_);stroke:#1E1E1E;stroke-linecap:round;stroke-linejoin:round;" d="M197.235,187.846c-3.015,12.059-5.694,54.939,9.715,70.684c-6.029-2.01-12.395-9.715-13.399-13.399c0,3.685,1.675,15.745,4.689,18.761c0.335,1.674-31.824-17.756-23.114-82.746c5.481-40.898,33.165-54.604,33.165-54.604"></path><linearGradient id="hair1XMLID_2479_" gradientUnits="userSpaceOnUse" x1="308.2695" y1="223.166" x2="308.2695" y2="156.1663"><stop offset="0" style="stop-color:#FCFCE4"></stop><stop offset="0.5" style="stop-color:#A0C8DD"></stop><stop offset="1" style="stop-color:#5D6EC5"></stop></linearGradient><path style="fill:url(#hair1XMLID_2479_);stroke:#1E1E1E;stroke-linecap:round;stroke-linejoin:round;" d="M302.411,187.846c3.015,12.059,3.698,55.609-11.712,71.354c6.03-2.01,14.392-10.385,15.396-14.069c0,3.685-1.675,15.745-4.689,18.761c-0.335,1.674,31.169-21.105,23.116-82.746c-5.347-40.917-33.166-54.604-33.166-54.604"></path><linearGradient id="hair1XMLID_2480_" gradientUnits="userSpaceOnUse" x1="200.2837" y1="223.167" x2="200.2837" y2="156.1666"><stop offset="0" style="stop-color:#FCFCE4"></stop><stop offset="0.5" style="stop-color:#A0C8DD"></stop><stop offset="1" style="stop-color:#5D6EC5"></stop></linearGradient><path style="fill:url(#hair1XMLID_2480_);stroke:#1E1E1E;stroke-linecap:round;stroke-linejoin:round;" d="M209.742,163.503c-0.335,3.685-12.73,34.505-11.726,55.61c-10.272-10.611-8.598-39.979-0.893-55.723"></path><linearGradient id="hair1XMLID_2481_" gradientUnits="userSpaceOnUse" x1="218.5449" y1="223.167" x2="218.5449" y2="156.1666"><stop offset="0" style="stop-color:#FCFCE4"></stop><stop offset="0.5" style="stop-color:#A0C8DD"></stop><stop offset="1" style="stop-color:#5D6EC5"></stop></linearGradient><path style="fill:url(#hair1XMLID_2481_);stroke:#1E1E1E;stroke-linecap:round;stroke-linejoin:round;" d="M237.436,143.625c0,0-17.42,28.584-15.075,69.79c-4.354,0.335-9.715-0.444-9.715-0.444l-4.02,1.34l-6.365,1.563c0,0-9.268-32.048,7.147-66.553"></path><linearGradient id="hair1XMLID_2482_" gradientUnits="userSpaceOnUse" x1="266.0615" y1="223.1665" x2="266.0615" y2="156.1665"><stop offset="0" style="stop-color:#FCFCE4"></stop><stop offset="0.5" style="stop-color:#A0C8DD"></stop><stop offset="1" style="stop-color:#5D6EC5"></stop></linearGradient><path style="fill:url(#hair1XMLID_2482_);stroke:#1E1E1E;stroke-linecap:round;stroke-linejoin:round;" d="M234.421,129.89c0,0-18.09,47.458,6.029,83.302c3.016,0.335,7.818-0.447,7.818-0.447l4.019,0.226c0,0,3.685,0.444,4.689,0.444c0.406,0-6.811-23.56-6.141-39.976c1.725,5.023,7.033,34.506,12.729,39.195c2.345,0,7.035-0.335,7.035-0.335c2.345-0.335,6.029,0,6.029,0c2.681,0-6.364-20.1-6.029-38.19c1.675,6.031,11.055,35.846,14.069,38.861c3.351-0.336,11.391-1.341,11.391-1.341h3.35l4.69,1.005c0,0,3.015-48.239-21.775-77.719"></path></g></g><g><g><path style="fill:#FFF0DE;" d="M178.006,181.536c0,0,5.852-11.712,8.195-12.295c2.342-0.585-0.816,19.084-4.1,18.149C179.029,186.513,176.834,184.318,178.006,181.536z"></path><path style="fill:#FFF0DE;" d="M186.119,186.217c0,0,0.45-7.659,2.929-9.365c2.478-1.707,1.757,11.708,0,11.708C187.291,188.56,186.119,189.145,186.119,186.217z"></path><path style="fill:#FFF0DE;" d="M318.494,181.536c0,0-5.853-11.712-8.195-12.295c-2.343-0.585,0.816,19.084,4.1,18.149C317.471,186.513,319.665,184.318,318.494,181.536z"></path><path style="fill:#FFF0DE;" d="M310.381,186.217c0,0-0.451-7.659-2.93-9.365c-2.478-1.707-1.756,11.708,0,11.708C309.209,188.56,310.381,189.145,310.381,186.217z"></path></g><path style="fill:#FFF0DE;" d="M236.578,187.72c0,0,0-11.417,2.635-14.489c2.631-3.074,6.058,14.753,3.074,16.245C239.651,190.794,236.578,190.794,236.578,187.72z"></path><path style="fill:#FFF0DE;" d="M246.239,187.72c-1.761-2.196,0-10.1,0.876-11.417c0.879-1.317,4.39,10.098,2.635,12.294C247.486,191.426,247.995,189.915,246.239,187.72z"></path></g></g></svg>