<svg xmlns="http://www.w3.org/2000/svg" width="500" height="500" version="1.1"><g id="x070"><g><linearGradient id="hair1XMLID_2957_" gradientUnits="userSpaceOnUse" x1="250.0005" y1="230.3335" x2="250.0005" y2="144.667"><stop offset="0" style="stop-color:#FCFCE4"></stop><stop offset="0.5" style="stop-color:#A0C8DD"></stop><stop offset="1" style="stop-color:#5D6EC5"></stop></linearGradient><path style="fill:url(#hair1XMLID_2957_);stroke:#1E1E1E;stroke-linecap:round;stroke-linejoin:round;" d="M311.484,135.882c-17.021-17.418-41.603-23.852-61.484-20.131c-19.882-3.721-44.464,2.713-61.484,20.131c-13.061,13.365-22.283,30.165-22.283,51.08c0,24.372,15.268,44.372,25.934,48.538c-7.33-33.49-0.484-59.331,5.084-68.5c1.798-2.157,29.369-5.491,52.75-5.619c23.381,0.128,50.952,3.462,52.75,5.619c5.568,9.169,12.414,35.01,5.084,68.5c10.666-4.167,25.934-24.167,25.934-48.538C333.768,166.047,324.545,149.248,311.484,135.882z"></path><g><linearGradient id="hair1XMLID_2958_" gradientUnits="userSpaceOnUse" x1="210.2056" y1="230.3335" x2="210.2056" y2="144.667"><stop offset="0" style="stop-color:#FCFCE4"></stop><stop offset="0.5" style="stop-color:#A0C8DD"></stop><stop offset="1" style="stop-color:#5D6EC5"></stop></linearGradient><path style="fill:url(#hair1XMLID_2958_);stroke:#1E1E1E;stroke-linecap:round;stroke-linejoin:round;" d="M229.859,163.063c0,0-10.721,40.201-39.308,54.494c3.574-25.014,19.431-61.864,19.431-61.864"></path><g><g><g><linearGradient id="hair1XMLID_2959_" gradientUnits="userSpaceOnUse" x1="301.9258" y1="230.3335" x2="301.9258" y2="144.667"><stop offset="0" style="stop-color:#FCFCE4"></stop><stop offset="0.5" style="stop-color:#A0C8DD"></stop><stop offset="1" style="stop-color:#5D6EC5"></stop></linearGradient><path style="fill:url(#hair1XMLID_2959_);stroke:#1E1E1E;stroke-linecap:round;stroke-linejoin:round;" d="M278.851,163.733c0,0,25.237,41.317,27.47,73.031c5.941-7.041,14.943-16.061,17.42-29.48c5.36-29.033-7.229-49.133-21.886-58.514"></path><g><linearGradient id="hair1XMLID_2960_" gradientUnits="userSpaceOnUse" x1="312.3096" y1="230.3335" x2="312.3096" y2="144.667"><stop offset="0" style="stop-color:#FCFCE4"></stop><stop offset="0.5" style="stop-color:#A0C8DD"></stop><stop offset="1" style="stop-color:#5D6EC5"></stop></linearGradient><path style="fill:url(#hair1XMLID_2960_);stroke:#1E1E1E;stroke-linecap:round;stroke-linejoin:round;" d="M304.758,215.77c0,0,6.253,51.813-7.594,75.486c3.568-0.738,10.273-3.127,13.847-13.4c13.399-13.398,21.992-32.197,12.284-74.592"></path><path style="fill:none;stroke:#1E1E1E;stroke-linecap:round;stroke-linejoin:round;" d="M315.478,259.99c0,0-1.787,15.633-9.38,25.012"></path></g></g><g><linearGradient id="hair1XMLID_2961_" gradientUnits="userSpaceOnUse" x1="193.1138" y1="230.3335" x2="193.1138" y2="144.667"><stop offset="0" style="stop-color:#FCFCE4"></stop><stop offset="0.5" style="stop-color:#A0C8DD"></stop><stop offset="1" style="stop-color:#5D6EC5"></stop></linearGradient><path style="fill:url(#hair1XMLID_2961_);stroke:#1E1E1E;stroke-linecap:round;stroke-linejoin:round;" d="M212.439,169.316c0,0-17.867,35.733-20.1,67.447c-5.941-7.041-14.943-16.061-17.42-29.48c-5.36-29.033,9.38-48.687,21.886-58.514"></path><linearGradient id="hair1XMLID_2962_" gradientUnits="userSpaceOnUse" x1="206.6328" y1="230.3335" x2="206.6328" y2="144.6669"><stop offset="0" style="stop-color:#FCFCE4"></stop><stop offset="0.5" style="stop-color:#A0C8DD"></stop><stop offset="1" style="stop-color:#5D6EC5"></stop></linearGradient><path style="fill:url(#hair1XMLID_2962_);" d="M216.46,151.896c0,1.34-7.148,16.527-7.148,16.527l-12.506-3.127l9.826-14.74L216.46,151.896z"></path><g><linearGradient id="hair1XMLID_2963_" gradientUnits="userSpaceOnUse" x1="187.6904" y1="230.3335" x2="187.6904" y2="144.667"><stop offset="0" style="stop-color:#FCFCE4"></stop><stop offset="0.5" style="stop-color:#A0C8DD"></stop><stop offset="1" style="stop-color:#5D6EC5"></stop></linearGradient><path style="fill:url(#hair1XMLID_2963_);stroke:#1E1E1E;stroke-linecap:round;stroke-linejoin:round;" d="M195.242,215.77c0,0-6.253,51.813,7.594,75.486c-3.568-0.738-10.274-3.127-13.847-13.4c-13.399-13.398-21.992-32.197-12.283-74.592"></path><path style="fill:none;stroke:#1E1E1E;stroke-linecap:round;stroke-linejoin:round;" d="M184.521,259.99c0,0,1.788,15.633,9.381,25.012"></path></g></g></g></g><g><linearGradient id="hair1XMLID_2964_" gradientUnits="userSpaceOnUse" x1="264.417" y1="230.3335" x2="264.417" y2="144.6669"><stop offset="0" style="stop-color:#FCFCE4"></stop><stop offset="0.5" style="stop-color:#A0C8DD"></stop><stop offset="1" style="stop-color:#5D6EC5"></stop></linearGradient><path style="fill:url(#hair1XMLID_2964_);stroke:#1E1E1E;stroke-linecap:round;stroke-linejoin:round;" d="M226.732,159.937c0,0-7.146,19.653,6.253,36.181c3.127,11.612,15.634,20.1,33.5,25.013c-12.953-10.273-21.439-29.927-21.439-29.927s14.293,27.246,58.96,27.246c-1.34-23.227-9.827-52.26-22.78-63.873"></path><linearGradient id="hair1XMLID_2965_" gradientUnits="userSpaceOnUse" x1="278.9922" y1="230.3335" x2="278.9922" y2="144.6667"><stop offset="0" style="stop-color:#FCFCE4"></stop><stop offset="0.5" style="stop-color:#A0C8DD"></stop><stop offset="1" style="stop-color:#5D6EC5"></stop></linearGradient><path style="fill:url(#hair1XMLID_2965_);stroke:#1E1E1E;stroke-linecap:round;stroke-linejoin:round;" d="M255.318,163.063c0,0,16.527,32.16,47.348,54.94"></path><linearGradient id="hair1XMLID_2966_" gradientUnits="userSpaceOnUse" x1="234.3203" y1="230.3335" x2="234.3203" y2="144.6671"><stop offset="0" style="stop-color:#FCFCE4"></stop><stop offset="0.5" style="stop-color:#A0C8DD"></stop><stop offset="1" style="stop-color:#5D6EC5"></stop></linearGradient><path style="fill:url(#hair1XMLID_2966_);stroke:#1E1E1E;stroke-linecap:round;stroke-linejoin:round;" d="M232.092,177.803c0,0-0.446,17.867,4.468,25.461"></path></g></g></g></g></svg>