<svg xmlns="http://www.w3.org/2000/svg" width="500" height="500" version="1.1"><g id="x071"><g><linearGradient id="hair1XMLID_2967_" gradientUnits="userSpaceOnUse" x1="250.0005" y1="226.3335" x2="250.0005" y2="142.3335"><stop offset="0" style="stop-color:#FCFCE4"></stop><stop offset="0.5" style="stop-color:#A0C8DD"></stop><stop offset="1" style="stop-color:#5D6EC5"></stop></linearGradient><path style="fill:url(#hair1XMLID_2967_);stroke:#1E1E1E;stroke-linecap:round;stroke-linejoin:round;" d="M311.484,135.882c-17.021-17.418-41.603-23.852-61.484-20.131c-19.882-3.721-44.464,2.713-61.484,20.131c-13.061,13.365-22.283,30.165-22.283,51.08c0,24.372,15.268,44.372,25.934,48.538c-7.33-33.49-0.484-59.331,5.084-68.5c1.798-2.157,29.369-5.491,52.75-5.619c23.381,0.128,50.952,3.462,52.75,5.619c5.568,9.169,12.414,35.01,5.084,68.5c10.666-4.167,25.934-24.167,25.934-48.538C333.768,166.047,324.545,149.248,311.484,135.882z"></path><g><linearGradient id="hair1XMLID_2968_" gradientUnits="userSpaceOnUse" x1="326.1563" y1="226.3335" x2="326.1563" y2="142.3335"><stop offset="0" style="stop-color:#FCFCE4"></stop><stop offset="0.5" style="stop-color:#A0C8DD"></stop><stop offset="1" style="stop-color:#5D6EC5"></stop></linearGradient><path style="fill:url(#hair1XMLID_2968_);stroke:#1E1E1E;stroke-linecap:round;stroke-linejoin:round;" d="M303.823,138.816c0,0,30.373,9.827,30.82,46.007c-0.894,27.247,4.913,30.819,13.847,39.753c-11.167,7.594-24.12,0.447-24.12,0.447"></path><linearGradient id="hair1XMLID_2969_" gradientUnits="userSpaceOnUse" x1="180.0967" y1="226.3335" x2="180.0967" y2="142.3335"><stop offset="0" style="stop-color:#FCFCE4"></stop><stop offset="0.5" style="stop-color:#A0C8DD"></stop><stop offset="1" style="stop-color:#5D6EC5"></stop></linearGradient><path style="fill:url(#hair1XMLID_2969_);stroke:#1E1E1E;stroke-linecap:round;stroke-linejoin:round;" d="M208.684,132.117c0,0-44.667,11.167-44.89,52.707c0.893,27.247-3.798,33.946-12.284,42.88c15.187,6.7,25.014-6.254,25.014-6.254"></path><g><linearGradient id="hair1XMLID_2970_" gradientUnits="userSpaceOnUse" x1="313.3613" y1="226.3335" x2="313.3613" y2="142.3338"><stop offset="0" style="stop-color:#FCFCE4"></stop><stop offset="0.5" style="stop-color:#A0C8DD"></stop><stop offset="1" style="stop-color:#5D6EC5"></stop></linearGradient><path style="fill:url(#hair1XMLID_2970_);stroke:#1E1E1E;stroke-linecap:round;stroke-linejoin:round;" d="M307.843,184.823c0,0,4.914,62.087-12.953,81.739c8.487-1.786,25.46-11.612,26.354-27.246c-0.447,5.36,4.021,19.207,4.021,19.207s13.846-34.394,1.34-70.127"></path><linearGradient id="hair1XMLID_2971_" gradientUnits="userSpaceOnUse" x1="311.9141" y1="226.3335" x2="311.9141" y2="142.3334"><stop offset="0" style="stop-color:#FCFCE4"></stop><stop offset="0.5" style="stop-color:#A0C8DD"></stop><stop offset="1" style="stop-color:#5D6EC5"></stop></linearGradient><path style="fill:url(#hair1XMLID_2971_);stroke:#1E1E1E;stroke-linecap:round;stroke-linejoin:round;" d="M307.498,250.482c0,0,1.34,12.508-4.021,18.314c9.828-3.574,18.761-11.613,16.527-34.84"></path></g><linearGradient id="hair1XMLID_2972_" gradientUnits="userSpaceOnUse" x1="207.23" y1="226.3335" x2="207.23" y2="142.3333"><stop offset="0" style="stop-color:#FCFCE4"></stop><stop offset="0.5" style="stop-color:#A0C8DD"></stop><stop offset="1" style="stop-color:#5D6EC5"></stop></linearGradient><path style="fill:url(#hair1XMLID_2972_);stroke:#1E1E1E;stroke-linecap:round;stroke-linejoin:round;" d="M230.57,161.15c0,0-29.48,23.673-40.647,66.106c-5.359-11.166-12.953-41.093,6.7-66.106"></path><linearGradient id="hair1XMLID_2973_" gradientUnits="userSpaceOnUse" x1="249.542" y1="226.3335" x2="249.542" y2="142.3335"><stop offset="0" style="stop-color:#FCFCE4"></stop><stop offset="0.5" style="stop-color:#A0C8DD"></stop><stop offset="1" style="stop-color:#5D6EC5"></stop></linearGradient><path style="fill:url(#hair1XMLID_2973_);stroke:#1E1E1E;stroke-linecap:round;stroke-linejoin:round;" d="M242.63,141.05c0,0-29.927,33.054-11.613,74.593c2.233-4.02,4.467-8.934,4.467-8.934s-3.126,19.654,20.547,32.16c-0.894-8.486-0.894-33.053,0.446-45.113c1.787,11.613,4.914,19.654,13.4,25.014C269.43,208.496,274,160.5,274,160.5"></path><linearGradient id="hair1XMLID_2974_" gradientUnits="userSpaceOnUse" x1="290.7773" y1="226.3335" x2="290.7773" y2="142.3333"><stop offset="0" style="stop-color:#FCFCE4"></stop><stop offset="0.5" style="stop-color:#A0C8DD"></stop><stop offset="1" style="stop-color:#5D6EC5"></stop></linearGradient><path style="fill:url(#hair1XMLID_2974_);stroke:#1E1E1E;stroke-linecap:round;stroke-linejoin:round;" d="M268.07,160.256c0,0,3.573,46.453,44.22,63.874c3.573-25.46-0.447-53.153-17.867-69.233"></path><g><linearGradient id="hair1XMLID_2975_" gradientUnits="userSpaceOnUse" x1="185.6802" y1="226.3335" x2="185.6802" y2="142.3335"><stop offset="0" style="stop-color:#FCFCE4"></stop><stop offset="0.5" style="stop-color:#A0C8DD"></stop><stop offset="1" style="stop-color:#5D6EC5"></stop></linearGradient><path style="fill:url(#hair1XMLID_2975_);stroke:#1E1E1E;stroke-linecap:round;stroke-linejoin:round;" d="M183.21,156.674c-19.923,26.255-17.221,65.773-16.514,72.369c1.34,12.507,0.894,17.42-3.126,27.246c11.613-1.786,17.866-18.313,17.866-18.313s3.573-38.414,26.354-79.507"></path><g><linearGradient id="hair1XMLID_2976_" gradientUnits="userSpaceOnUse" x1="190.209" y1="226.3335" x2="190.209" y2="142.3335"><stop offset="0" style="stop-color:#FCFCE4"></stop><stop offset="0.5" style="stop-color:#A0C8DD"></stop><stop offset="1" style="stop-color:#5D6EC5"></stop></linearGradient><path style="fill:url(#hair1XMLID_2976_);stroke:#1E1E1E;stroke-linecap:round;stroke-linejoin:round;" d="M207.12,158.47c0,0-31.937,57.173-6.924,104.073c-15.633-3.573-28.14-26.354-26.8-43.773"></path><linearGradient id="hair1XMLID_2977_" gradientUnits="userSpaceOnUse" x1="184.6138" y1="226.3335" x2="184.6138" y2="142.3334"><stop offset="0" style="stop-color:#FCFCE4"></stop><stop offset="0.5" style="stop-color:#A0C8DD"></stop><stop offset="1" style="stop-color:#5D6EC5"></stop></linearGradient><path style="fill:url(#hair1XMLID_2977_);stroke:#1E1E1E;stroke-linecap:round;stroke-linejoin:round;" d="M189.03,250.482c0,0-1.34,12.508,4.02,18.314c-9.826-3.574-18.76-11.613-16.526-34.84"></path></g></g></g></g></g></svg>