<svg xmlns="http://www.w3.org/2000/svg" width="500" height="500" version="1.1"><g id="x072"><g><linearGradient id="hair1XMLID_2978_" gradientUnits="userSpaceOnUse" x1="250.0005" y1="234.3335" x2="250.0005" y2="146.3335"><stop offset="0" style="stop-color:#FCFCE4"></stop><stop offset="0.5" style="stop-color:#A0C8DD"></stop><stop offset="1" style="stop-color:#5D6EC5"></stop></linearGradient><path style="fill:url(#hair1XMLID_2978_);stroke:#1E1E1E;stroke-linecap:round;stroke-linejoin:round;" d="M311.484,135.882c-17.021-17.418-41.603-23.852-61.484-20.131c-19.882-3.721-44.464,2.713-61.484,20.131c-13.061,13.365-22.283,30.165-22.283,51.08c0,24.372,15.268,44.372,25.934,48.538c-7.33-33.49-0.484-59.331,5.084-68.5c1.798-2.157,29.369-5.491,52.75-5.619c23.381,0.128,50.952,3.462,52.75,5.619c5.568,9.169,12.414,35.01,5.084,68.5c10.666-4.167,25.934-24.167,25.934-48.538C333.768,166.047,324.545,149.248,311.484,135.882z"></path><g><linearGradient id="hair1XMLID_2979_" gradientUnits="userSpaceOnUse" x1="326.2803" y1="234.3335" x2="326.2803" y2="146.3333"><stop offset="0" style="stop-color:#FCFCE4"></stop><stop offset="0.5" style="stop-color:#A0C8DD"></stop><stop offset="1" style="stop-color:#5D6EC5"></stop></linearGradient><path style="fill:url(#hair1XMLID_2979_);stroke:#1E1E1E;stroke-linecap:round;stroke-linejoin:round;" d="M333.75,164.723c0,0,19.652,30.374,0,60.3c1.34-8.934-2.233-17.867-2.233-17.867s2.233,17.867-19.207,23.674c7.147-11.167,6.253-31.268,6.253-31.268l-8.486-0.67"></path><linearGradient id="hair1XMLID_2980_" gradientUnits="userSpaceOnUse" x1="311.6396" y1="234.3335" x2="311.6396" y2="146.3336"><stop offset="0" style="stop-color:#FCFCE4"></stop><stop offset="0.5" style="stop-color:#A0C8DD"></stop><stop offset="1" style="stop-color:#5D6EC5"></stop></linearGradient><path style="fill:url(#hair1XMLID_2980_);stroke:#1E1E1E;stroke-linecap:round;stroke-linejoin:round;" d="M306.949,183.482c0,0,2.681,43.773-9.38,56.727c20.101-1.785,27.693-25.459,28.141-49.133"></path><linearGradient id="hair1XMLID_2981_" gradientUnits="userSpaceOnUse" x1="290.6826" y1="234.3335" x2="290.6826" y2="146.3338"><stop offset="0" style="stop-color:#FCFCE4"></stop><stop offset="0.5" style="stop-color:#A0C8DD"></stop><stop offset="1" style="stop-color:#5D6EC5"></stop></linearGradient><path style="fill:url(#hair1XMLID_2981_);stroke:#1E1E1E;stroke-linecap:round;stroke-linejoin:round;" d="M272.5,160.5c0,0,21.495,32.811,21.942,59.164c11.167-12.061,19.207-38.414,11.167-64.768"></path><linearGradient id="hair1XMLID_2982_" gradientUnits="userSpaceOnUse" x1="169.5996" y1="234.3335" x2="169.5996" y2="146.3335"><stop offset="0" style="stop-color:#FCFCE4"></stop><stop offset="0.5" style="stop-color:#A0C8DD"></stop><stop offset="1" style="stop-color:#5D6EC5"></stop></linearGradient><path style="fill:url(#hair1XMLID_2982_);stroke:#1E1E1E;stroke-linecap:round;stroke-linejoin:round;" d="M173.62,170.977c0,0-8.934,5.359-18.761-3.127c12.953-4.467,20.101-14.293,29.48-22.78"></path><linearGradient id="hair1XMLID_2983_" gradientUnits="userSpaceOnUse" x1="330.4004" y1="234.3335" x2="330.4004" y2="146.3335"><stop offset="0" style="stop-color:#FCFCE4"></stop><stop offset="0.5" style="stop-color:#A0C8DD"></stop><stop offset="1" style="stop-color:#5D6EC5"></stop></linearGradient><path style="fill:url(#hair1XMLID_2983_);stroke:#1E1E1E;stroke-linecap:round;stroke-linejoin:round;" d="M326.381,168.967c0,0,8.934,5.359,18.76-3.126c-12.953-4.467-20.1-14.293-29.479-22.78"></path><linearGradient id="hair1XMLID_2984_" gradientUnits="userSpaceOnUse" x1="189.2529" y1="234.3335" x2="189.2529" y2="146.3335"><stop offset="0" style="stop-color:#FCFCE4"></stop><stop offset="0.5" style="stop-color:#A0C8DD"></stop><stop offset="1" style="stop-color:#5D6EC5"></stop></linearGradient><path style="fill:url(#hair1XMLID_2984_);stroke:#1E1E1E;stroke-linecap:round;stroke-linejoin:round;" d="M191.263,146.41c-31.267,19.207-27.693,62.534-25.013,75.934c2.68,13.399-0.447,17.865-4.467,24.566c14.739-1.34,20.1-14.293,20.1-14.293l4.467-3.127c0,0,11.613-52.707,30.373-63.874"></path><linearGradient id="hair1XMLID_2985_" gradientUnits="userSpaceOnUse" x1="249.9995" y1="234.3335" x2="249.9995" y2="146.3334"><stop offset="0" style="stop-color:#FCFCE4"></stop><stop offset="0.5" style="stop-color:#A0C8DD"></stop><stop offset="1" style="stop-color:#5D6EC5"></stop></linearGradient><path style="fill:url(#hair1XMLID_2985_);stroke:#1E1E1E;stroke-linecap:round;stroke-linejoin:round;" d="M257.816,230.83c0,0-5.808,7.594-11.613,8.934c-1.786-5.807-4.021-20.994-4.021-20.994L257.816,230.83z"></path><linearGradient id="hair1XMLID_2986_" gradientUnits="userSpaceOnUse" x1="184.2485" y1="234.3335" x2="184.2485" y2="146.3337"><stop offset="0" style="stop-color:#FCFCE4"></stop><stop offset="0.5" style="stop-color:#A0C8DD"></stop><stop offset="1" style="stop-color:#5D6EC5"></stop></linearGradient><path style="fill:url(#hair1XMLID_2986_);stroke:#1E1E1E;stroke-linecap:round;stroke-linejoin:round;" d="M190.37,223.236c0,0-0.894,26.354,8.04,38.414c-15.634-4.467-37.074-23.227-24.567-67.447"></path><linearGradient id="hair1XMLID_2987_" gradientUnits="userSpaceOnUse" x1="203.7192" y1="234.3335" x2="203.7192" y2="146.3338"><stop offset="0" style="stop-color:#FCFCE4"></stop><stop offset="0.5" style="stop-color:#A0C8DD"></stop><stop offset="1" style="stop-color:#5D6EC5"></stop></linearGradient><path style="fill:url(#hair1XMLID_2987_);stroke:#1E1E1E;stroke-linecap:round;stroke-linejoin:round;" d="M226.103,156.237c0,0-32.606,42.433-29.926,84.419c-13.4-12.953-18.43-44.45-12.177-63.656"></path><g><linearGradient id="hair1XMLID_2988_" gradientUnits="userSpaceOnUse" x1="248.6646" y1="234.3335" x2="248.6646" y2="146.3335"><stop offset="0" style="stop-color:#FCFCE4"></stop><stop offset="0.5" style="stop-color:#A0C8DD"></stop><stop offset="1" style="stop-color:#5D6EC5"></stop></linearGradient><path style="fill:url(#hair1XMLID_2988_);stroke:#1E1E1E;stroke-linecap:round;stroke-linejoin:round;" d="M229.229,143.283c0,0-8.885,11.81-9.38,27.693c-0.648,20.813,9.8,48.627,40.2,66.106c4.02-4.466,4.913-12.507,4.913-16.974c1.787-2.232,19.653-36.18,9.38-66.553"></path><path style="fill:none;stroke:#1E1E1E;stroke-linecap:round;stroke-linejoin:round;" d="M260.72,166.063c0,0,8.71,27.693,3.127,58.513"></path><path style="fill:none;stroke:#1E1E1E;stroke-linecap:round;stroke-linejoin:round;" d="M231.91,170.529c0,0-4.021,37.074,9.38,51.367"></path></g></g></g></g></svg>