<svg xmlns="http://www.w3.org/2000/svg" width="500" height="500" version="1.1"><g id="x073"><g><linearGradient id="hair1XMLID_2989_" gradientUnits="userSpaceOnUse" x1="250.0005" y1="220.667" x2="250.0005" y2="146.667"><stop offset="0" style="stop-color:#FCFCE4"></stop><stop offset="0.5" style="stop-color:#A0C8DD"></stop><stop offset="1" style="stop-color:#5D6EC5"></stop></linearGradient><path style="fill:url(#hair1XMLID_2989_);stroke:#1E1E1E;stroke-linecap:round;stroke-linejoin:round;" d="M311.484,135.882c-17.021-17.418-41.603-23.852-61.484-20.131c-19.882-3.721-44.464,2.713-61.484,20.131c-13.061,13.365-22.283,30.165-22.283,51.08c0,24.372,15.268,44.372,25.934,48.538c-7.33-33.49-0.484-59.331,5.084-68.5c1.798-2.157,29.369-5.491,52.75-5.619c23.381,0.128,50.952,3.462,52.75,5.619c5.568,9.169,12.414,35.01,5.084,68.5c10.666-4.167,25.934-24.167,25.934-48.538C333.768,166.047,324.545,149.248,311.484,135.882z"></path><g><g><g><linearGradient id="hair1XMLID_2990_" gradientUnits="userSpaceOnUse" x1="334.1973" y1="220.667" x2="334.1973" y2="146.6672"><stop offset="0" style="stop-color:#FCFCE4"></stop><stop offset="0.5" style="stop-color:#A0C8DD"></stop><stop offset="1" style="stop-color:#5D6EC5"></stop></linearGradient><path style="fill:url(#hair1XMLID_2990_);stroke:#1E1E1E;stroke-linecap:round;stroke-linejoin:round;" d="M329.73,201.734c0,0,8.04,7.091,21.887,7.091c-14.74-7.534-29.48-44.764-34.84-58.059"></path><linearGradient id="hair1XMLID_2991_" gradientUnits="userSpaceOnUse" x1="307.9883" y1="220.667" x2="307.9883" y2="146.667"><stop offset="0" style="stop-color:#FCFCE4"></stop><stop offset="0.5" style="stop-color:#A0C8DD"></stop><stop offset="1" style="stop-color:#5D6EC5"></stop></linearGradient><path style="fill:url(#hair1XMLID_2991_);stroke:#1E1E1E;stroke-linecap:round;stroke-linejoin:round;" d="M277.023,171.596c0,0,7.147,23.49,24.12,41.662c16.974,18.17,21.887,28.808,23.227,37.672c6.254-3.546,6.7-21.273,0.447-35.457c1.786,3.989,7.594,9.752,7.146,24.82c7.146-12.854,9.38-24.377,4.02-34.57c-5.359-10.193-14.739-61.605-31.267-69.14"></path></g><linearGradient id="hair1XMLID_2992_" gradientUnits="userSpaceOnUse" x1="290.8691" y1="220.667" x2="290.8691" y2="146.6669"><stop offset="0" style="stop-color:#FCFCE4"></stop><stop offset="0.5" style="stop-color:#A0C8DD"></stop><stop offset="1" style="stop-color:#5D6EC5"></stop></linearGradient><path style="fill:url(#hair1XMLID_2992_);stroke:#1E1E1E;stroke-linecap:round;stroke-linejoin:round;" d="M265.856,160.256c0,0,14.293,58.96,50.026,56.281c-27.246-19.207-16.974-48.24-34.394-67.045"></path><g><linearGradient id="hair1XMLID_2993_" gradientUnits="userSpaceOnUse" x1="165.8032" y1="220.667" x2="165.8032" y2="146.6672"><stop offset="0" style="stop-color:#FCFCE4"></stop><stop offset="0.5" style="stop-color:#A0C8DD"></stop><stop offset="1" style="stop-color:#5D6EC5"></stop></linearGradient><path style="fill:url(#hair1XMLID_2993_);stroke:#1E1E1E;stroke-linecap:round;stroke-linejoin:round;" d="M170.27,201.734c0,0-8.04,7.091-21.887,7.091c14.74-7.534,29.48-44.764,34.841-58.059"></path><linearGradient id="hair1XMLID_2994_" gradientUnits="userSpaceOnUse" x1="190.2583" y1="220.667" x2="190.2583" y2="146.667"><stop offset="0" style="stop-color:#FCFCE4"></stop><stop offset="0.5" style="stop-color:#A0C8DD"></stop><stop offset="1" style="stop-color:#5D6EC5"></stop></linearGradient><path style="fill:url(#hair1XMLID_2994_);stroke:#1E1E1E;stroke-linecap:round;stroke-linejoin:round;" d="M220.743,161.597c0,0-15.187,36.769-32.16,54.94c-16.973,18.17-11.613,25.528-12.954,34.393c-6.253-3.546-10.272-21.551-4.02-35.732c-1.787,3.988-7.146,11.283-6.7,26.353c-7.146-12.853-6.253-25.634-0.893-35.827c5.359-10.193,14.739-61.605,31.267-69.14"></path></g><linearGradient id="hair1XMLID_2995_" gradientUnits="userSpaceOnUse" x1="214.9365" y1="220.667" x2="214.9365" y2="146.667"><stop offset="0" style="stop-color:#FCFCE4"></stop><stop offset="0.5" style="stop-color:#A0C8DD"></stop><stop offset="1" style="stop-color:#5D6EC5"></stop></linearGradient><path style="fill:url(#hair1XMLID_2995_);stroke:#1E1E1E;stroke-linecap:round;stroke-linejoin:round;" d="M232.356,161.997l-3.127,17.75c0,0-8.487,37.987-31.713,40.811c18.313-30.82,10.272-51.813,20.993-75.487"></path><linearGradient id="hair1XMLID_2996_" gradientUnits="userSpaceOnUse" x1="251.6875" y1="220.667" x2="251.6875" y2="146.667"><stop offset="0" style="stop-color:#FCFCE4"></stop><stop offset="0.5" style="stop-color:#A0C8DD"></stop><stop offset="1" style="stop-color:#5D6EC5"></stop></linearGradient><path style="fill:url(#hair1XMLID_2996_);stroke:#1E1E1E;stroke-linecap:round;stroke-linejoin:round;" d="M231.463,146.856c0,0-17.866,58.085,8.04,70.659c-2.232-10.711,1.34-16.766,1.34-16.766s-2.681,19.094,16.974,25.613c0.447-14.902,1.787-35.858,1.787-35.858s-0.447,23.284,18.313,27.476c-4.913-11.642-12.06-52.354-10.72-68.893"></path></g></g></g></g></svg>