<svg xmlns="http://www.w3.org/2000/svg" width="500" height="500" version="1.1"><g id="x074"><g><linearGradient id="hair1XMLID_2997_" gradientUnits="userSpaceOnUse" x1="250.0005" y1="217" x2="250.0005" y2="148.667"><stop offset="0" style="stop-color:#FCFCE4"></stop><stop offset="0.5" style="stop-color:#A0C8DD"></stop><stop offset="1" style="stop-color:#5D6EC5"></stop></linearGradient><path style="fill:url(#hair1XMLID_2997_);stroke:#1E1E1E;stroke-linecap:round;stroke-linejoin:round;" d="M311.484,135.882c-17.021-17.418-41.603-23.852-61.484-20.131c-19.882-3.721-44.464,2.713-61.484,20.131c-13.061,13.365-22.283,30.165-22.283,51.08c0,24.372,15.268,44.372,25.934,48.538c-7.33-33.49-0.484-59.331,5.084-68.5c1.798-2.157,29.369-5.491,52.75-5.619c23.381,0.128,50.952,3.462,52.75,5.619c5.568,9.169,12.414,35.01,5.084,68.5c10.666-4.167,25.934-24.167,25.934-48.538C333.768,166.047,324.545,149.248,311.484,135.882z"></path><g><g><linearGradient id="hair1XMLID_2998_" gradientUnits="userSpaceOnUse" x1="242.6147" y1="217" x2="242.6147" y2="148.6669"><stop offset="0" style="stop-color:#FCFCE4"></stop><stop offset="0.5" style="stop-color:#A0C8DD"></stop><stop offset="1" style="stop-color:#5D6EC5"></stop></linearGradient><path style="fill:url(#hair1XMLID_2998_);" d="M267.907,174.895c-1.676,0-49.245,0-49.245,0l-1.34-24.92l46.899-0.67L267.907,174.895z"></path><linearGradient id="hair1XMLID_2999_" gradientUnits="userSpaceOnUse" x1="314.6953" y1="217" x2="314.6953" y2="148.6671"><stop offset="0" style="stop-color:#FCFCE4"></stop><stop offset="0.5" style="stop-color:#A0C8DD"></stop><stop offset="1" style="stop-color:#5D6EC5"></stop></linearGradient><path style="fill:url(#hair1XMLID_2999_);stroke:#1E1E1E;stroke-linecap:round;stroke-linejoin:round;" d="M314.337,208.72c0,2.345-0.67,29.479-10.72,41.875c16.08-5.694,22.78-20.101,22.109-39.194"></path><linearGradient id="hair1XMLID_3000_" gradientUnits="userSpaceOnUse" x1="192.0854" y1="217" x2="192.0854" y2="148.6671"><stop offset="0" style="stop-color:#FCFCE4"></stop><stop offset="0.5" style="stop-color:#A0C8DD"></stop><stop offset="1" style="stop-color:#5D6EC5"></stop></linearGradient><path style="fill:url(#hair1XMLID_3000_);stroke:#1E1E1E;stroke-linecap:round;stroke-linejoin:round;" d="M192.443,208.72c0,2.345,0.67,29.479,10.72,41.875c-16.079-5.694-22.779-20.101-22.109-39.194"></path><linearGradient id="hair1XMLID_3001_" gradientUnits="userSpaceOnUse" x1="304.1543" y1="217" x2="304.1543" y2="148.6672"><stop offset="0" style="stop-color:#FCFCE4"></stop><stop offset="0.5" style="stop-color:#A0C8DD"></stop><stop offset="1" style="stop-color:#5D6EC5"></stop></linearGradient><path style="fill:url(#hair1XMLID_3001_);stroke:#1E1E1E;stroke-linecap:round;stroke-linejoin:round;" d="M287.002,164.5c0,0,23.45,32.831,26.465,56.616c8.71-12.396,12.061-42.881,0-59.63"></path><linearGradient id="hair1XMLID_3002_" gradientUnits="userSpaceOnUse" x1="226.8696" y1="217" x2="226.8696" y2="148.667"><stop offset="0" style="stop-color:#FCFCE4"></stop><stop offset="0.5" style="stop-color:#A0C8DD"></stop><stop offset="1" style="stop-color:#5D6EC5"></stop></linearGradient><path style="fill:url(#hair1XMLID_3002_);stroke:#1E1E1E;stroke-linecap:round;stroke-linejoin:round;" d="M244.122,173.545c0,0-13.4,36.515-34.505,43.215c10.05-13.4,13.064-41.54,13.064-41.54"></path><linearGradient id="hair1XMLID_3003_" gradientUnits="userSpaceOnUse" x1="210.4546" y1="217" x2="210.4546" y2="148.667"><stop offset="0" style="stop-color:#FCFCE4"></stop><stop offset="0.5" style="stop-color:#A0C8DD"></stop><stop offset="1" style="stop-color:#5D6EC5"></stop></linearGradient><path style="fill:url(#hair1XMLID_3003_);stroke:#1E1E1E;stroke-linecap:round;stroke-linejoin:round;" d="M223.017,190.965c0,0-14.404,28.14-47.569,21.439c14.069-4.354,18.425-11.39,18.425-11.39s-19.431,4.354-29.48-13.065c11.391,2.01,17.42-4.02,31.49-10.385c-11.39,4.02-24.79,3.686-31.49-8.71c9.715,5.025,21.8-0.85,31.49-9.715c15.745-14.405,17.755-23.115,33.165-27.805c0,0,13.735-2.68,27.47,0"></path><linearGradient id="hair1XMLID_3004_" gradientUnits="userSpaceOnUse" x1="262.748" y1="217" x2="262.748" y2="148.667"><stop offset="0" style="stop-color:#FCFCE4"></stop><stop offset="0.5" style="stop-color:#A0C8DD"></stop><stop offset="1" style="stop-color:#5D6EC5"></stop></linearGradient><path style="fill:url(#hair1XMLID_3004_);stroke:#1E1E1E;stroke-linecap:round;stroke-linejoin:round;" d="M249.481,135.354c0,0,22.445-14.405,32.83-7.035c8.583,7.847,18.426,73.03-17.085,92.459c5.025-8.709,5.695-23.115,5.695-23.115s-10.385,22.111-35.51,26.466c4.02-9.716,9.045-23.45,9.045-23.45s-3.686,8.04-9.38,9.38c3.688-3.688,6.364-21.44,7.705-37.521"></path></g></g></g></g></svg>