<svg xmlns="http://www.w3.org/2000/svg" width="500" height="500" version="1.1"><g id="x075"><g><linearGradient id="hair1XMLID_3005_" gradientUnits="userSpaceOnUse" x1="250.0005" y1="228.3335" x2="250.0005" y2="142.667"><stop offset="0" style="stop-color:#FCFCE4"></stop><stop offset="0.5" style="stop-color:#A0C8DD"></stop><stop offset="1" style="stop-color:#5D6EC5"></stop></linearGradient><path style="fill:url(#hair1XMLID_3005_);stroke:#1E1E1E;stroke-linecap:round;stroke-linejoin:round;" d="M311.484,135.882c-17.021-17.418-41.603-23.852-61.484-20.131c-19.882-3.721-44.464,2.713-61.484,20.131c-13.061,13.365-22.283,30.165-22.283,51.08c0,24.372,15.268,44.372,25.934,48.538c-7.33-33.49-0.484-59.331,5.084-68.5c1.798-2.157,29.369-5.491,52.75-5.619c23.381,0.128,50.952,3.462,52.75,5.619c5.568,9.169,12.414,35.01,5.084,68.5c10.666-4.167,25.934-24.167,25.934-48.538C333.768,166.047,324.545,149.248,311.484,135.882z"></path><g><linearGradient id="hair1XMLID_3006_" gradientUnits="userSpaceOnUse" x1="192.2637" y1="228.3335" x2="192.2637" y2="142.667"><stop offset="0" style="stop-color:#FCFCE4"></stop><stop offset="0.5" style="stop-color:#A0C8DD"></stop><stop offset="1" style="stop-color:#5D6EC5"></stop></linearGradient><path style="fill:url(#hair1XMLID_3006_);stroke:#1E1E1E;stroke-linecap:round;stroke-linejoin:round;" d="M208.202,254.625c-9.045-3.016-16.415-24.12-16.415-24.12l-10.05-34.171c-12.06,45.896-3.015,73.031,17.755,82.41c-2.345-5.359-4.343-19.201-5.359-25.459C201.836,257.64,205.522,257.305,208.202,254.625z"></path><linearGradient id="hair1XMLID_3007_" gradientUnits="userSpaceOnUse" x1="194.5225" y1="228.3335" x2="194.5225" y2="142.667"><stop offset="0" style="stop-color:#FCFCE4"></stop><stop offset="0.5" style="stop-color:#A0C8DD"></stop><stop offset="1" style="stop-color:#5D6EC5"></stop></linearGradient><path style="fill:url(#hair1XMLID_3007_);stroke:#1E1E1E;stroke-linecap:round;stroke-linejoin:round;" d="M190.112,216.77c0,0-1.34,22.78,6.03,40.2c-56.615-29.815-27.47-89.78-19.095-99.83c6.661-7.995,16.414-23.785,49.914-29.815"></path><linearGradient id="hair1XMLID_3008_" gradientUnits="userSpaceOnUse" x1="199.5376" y1="228.3335" x2="199.5376" y2="142.6671"><stop offset="0" style="stop-color:#FCFCE4"></stop><stop offset="0.5" style="stop-color:#A0C8DD"></stop><stop offset="1" style="stop-color:#5D6EC5"></stop></linearGradient><path style="fill:url(#hair1XMLID_3008_);stroke:#1E1E1E;stroke-linecap:round;stroke-linejoin:round;" d="M189.777,156.135c-20.435,27.805-13.4,72.025,6.365,83.415c-6.365-34.17,15.745-58.29,15.745-58.29l9.715-20.435"></path><linearGradient id="hair1XMLID_3009_" gradientUnits="userSpaceOnUse" x1="308.8691" y1="228.3335" x2="308.8691" y2="142.6673"><stop offset="0" style="stop-color:#FCFCE4"></stop><stop offset="0.5" style="stop-color:#A0C8DD"></stop><stop offset="1" style="stop-color:#5D6EC5"></stop></linearGradient><path style="fill:url(#hair1XMLID_3009_);stroke:#1E1E1E;stroke-linecap:round;stroke-linejoin:round;" d="M265.822,126.32c8.263,0.402,15.558,1.806,22.022,3.961c34.453,8.856,56.475,40.406,64.072,49.974c-7.887,1.36-14.174,0.069-18.859-1.942c3.914,10.785,5.72,20.387,7.135,25.393c-14.74-1.34-23.45-11.391-23.45-11.391l-49.915-6.699"></path><linearGradient id="hair1XMLID_3010_" gradientUnits="userSpaceOnUse" x1="309.2051" y1="228.3335" x2="309.2051" y2="142.6669"><stop offset="0" style="stop-color:#FCFCE4"></stop><stop offset="0.5" style="stop-color:#A0C8DD"></stop><stop offset="1" style="stop-color:#5D6EC5"></stop></linearGradient><path style="fill:url(#hair1XMLID_3010_);stroke:#1E1E1E;stroke-linecap:round;stroke-linejoin:round;" d="M314.732,222.13l8.375,9.045c0,0-2.345,40.2-27.805,47.905c4.02-15.746,6.699-24.791,6.699-24.791L314.732,222.13z"></path><linearGradient id="hair1XMLID_3011_" gradientUnits="userSpaceOnUse" x1="307.0273" y1="228.3335" x2="307.0273" y2="142.6669"><stop offset="0" style="stop-color:#FCFCE4"></stop><stop offset="0.5" style="stop-color:#A0C8DD"></stop><stop offset="1" style="stop-color:#5D6EC5"></stop></linearGradient><path style="fill:url(#hair1XMLID_3011_);stroke:#1E1E1E;stroke-linecap:round;stroke-linejoin:round;" d="M320.428,227.154c-8.04-6.699-16.415-8.709-16.415-8.709s1.005,26.799-10.386,36.85c5.201,1.418,15.737-3.668,21.962-13.492"></path><linearGradient id="hair1XMLID_3012_" gradientUnits="userSpaceOnUse" x1="288.0635" y1="228.3335" x2="288.0635" y2="142.6671"><stop offset="0" style="stop-color:#FCFCE4"></stop><stop offset="0.5" style="stop-color:#A0C8DD"></stop><stop offset="1" style="stop-color:#5D6EC5"></stop></linearGradient><path style="fill:url(#hair1XMLID_3012_);stroke:#1E1E1E;stroke-linecap:round;stroke-linejoin:round;" d="M303.678,161.495c12.395,15.41,22.109,45.56,19.095,71.69c-8.375-6.03-17.782-10.976-22.445-12.729c-45.896-13.065-47.526-61.082-47.526-61.082"></path><linearGradient id="hair1XMLID_3013_" gradientUnits="userSpaceOnUse" x1="293.0146" y1="228.3335" x2="293.0146" y2="142.6671"><stop offset="0" style="stop-color:#FCFCE4"></stop><stop offset="0.5" style="stop-color:#A0C8DD"></stop><stop offset="1" style="stop-color:#5D6EC5"></stop></linearGradient><path style="fill:url(#hair1XMLID_3013_);stroke:#1E1E1E;stroke-linecap:round;stroke-linejoin:round;" d="M302.337,197.005c0,0,7.37,10.05,6.365,31.155c-4.271-2.514-20.226-7.098-31.469-19.692"></path><linearGradient id="hair1XMLID_3014_" gradientUnits="userSpaceOnUse" x1="256.7773" y1="228.3335" x2="256.7773" y2="142.6669"><stop offset="0" style="stop-color:#FCFCE4"></stop><stop offset="0.5" style="stop-color:#A0C8DD"></stop><stop offset="1" style="stop-color:#5D6EC5"></stop></linearGradient><path style="fill:url(#hair1XMLID_3014_);stroke:#1E1E1E;stroke-linecap:round;stroke-linejoin:round;" d="M257.447,173.555c0,0,2.01,24.12,8.375,32.495c-8.041-3.015-16.416-8.71-18.09-28.81"></path><linearGradient id="hair1XMLID_3015_" gradientUnits="userSpaceOnUse" x1="232.9448" y1="228.3335" x2="232.9448" y2="142.667"><stop offset="0" style="stop-color:#FCFCE4"></stop><stop offset="0.5" style="stop-color:#A0C8DD"></stop><stop offset="1" style="stop-color:#5D6EC5"></stop></linearGradient><path style="fill:url(#hair1XMLID_3015_);stroke:#1E1E1E;stroke-linecap:round;stroke-linejoin:round;" d="M228.972,138.715c-1.005,1.005-19.766,17.085-18.425,44.89c1.292,26.821,19.765,37.185,19.765,37.185s-5.36-19.764-5.36-27.135c1.675,5.025,0.335,26.801,27.134,35.176c5.695-21.775,2.346-70.351,2.346-70.351"></path></g></g></g></svg>