<svg xmlns="http://www.w3.org/2000/svg" width="500" height="500" version="1.1"><g id="x076"><g><linearGradient id="hair1XMLID_3016_" gradientUnits="userSpaceOnUse" x1="250.0005" y1="249.333" x2="250.0005" y2="130"><stop offset="0" style="stop-color:#FCFCE4"></stop><stop offset="0.5" style="stop-color:#A0C8DD"></stop><stop offset="1" style="stop-color:#5D6EC5"></stop></linearGradient><path style="fill:url(#hair1XMLID_3016_);stroke:#1E1E1E;stroke-linecap:round;stroke-linejoin:round;" d="M311.484,135.882c-17.021-17.418-41.603-23.852-61.484-20.131c-19.882-3.721-44.464,2.713-61.484,20.131c-13.061,13.365-22.283,30.165-22.283,51.08c0,24.372,15.268,44.372,25.934,48.538c-7.33-33.49-0.484-59.331,5.084-68.5c1.798-2.157,29.369-5.491,52.75-5.619c23.381,0.128,50.952,3.462,52.75,5.619c5.568,9.169,12.414,35.01,5.084,68.5c10.666-4.167,25.934-24.167,25.934-48.538C333.768,166.047,324.545,149.248,311.484,135.882z"></path><g><linearGradient id="hair1XMLID_3017_" gradientUnits="userSpaceOnUse" x1="182.9839" y1="249.333" x2="182.9839" y2="130.0001"><stop offset="0" style="stop-color:#FCFCE4"></stop><stop offset="0.5" style="stop-color:#A0C8DD"></stop><stop offset="1" style="stop-color:#5D6EC5"></stop></linearGradient><path style="fill:url(#hair1XMLID_3017_);stroke:#1E1E1E;stroke-linecap:round;stroke-linejoin:round;" d="M170.151,186.163c0,0-15.633,53.601,28.363,72.807c-5.36-8.487-8.486-25.907-8.486-25.907"></path><linearGradient id="hair1XMLID_3018_" gradientUnits="userSpaceOnUse" x1="188.9116" y1="249.333" x2="188.9116" y2="130.0001"><stop offset="0" style="stop-color:#FCFCE4"></stop><stop offset="0.5" style="stop-color:#A0C8DD"></stop><stop offset="1" style="stop-color:#5D6EC5"></stop></linearGradient><path style="fill:url(#hair1XMLID_3018_);stroke:#1E1E1E;stroke-linecap:round;stroke-linejoin:round;" d="M196.951,184.377c0,0-13.399,47.346,3.573,66.105c-13.399-1.34-22.779-15.186-23.226-33.5"></path><linearGradient id="hair1XMLID_3019_" gradientUnits="userSpaceOnUse" x1="309.9404" y1="249.333" x2="309.9404" y2="130.0005"><stop offset="0" style="stop-color:#FCFCE4"></stop><stop offset="0.5" style="stop-color:#A0C8DD"></stop><stop offset="1" style="stop-color:#5D6EC5"></stop></linearGradient><path style="fill:url(#hair1XMLID_3019_);stroke:#1E1E1E;stroke-linecap:round;stroke-linejoin:round;" d="M307.278,140.603c0,0,38.413,54.494-8.934,101.393c13.847-30.373,1.341-61.64-0.446-62.533"></path><g><linearGradient id="hair1XMLID_3020_" gradientUnits="userSpaceOnUse" x1="202.6743" y1="249.333" x2="202.6743" y2="129.9997"><stop offset="0" style="stop-color:#FCFCE4"></stop><stop offset="0.5" style="stop-color:#A0C8DD"></stop><stop offset="1" style="stop-color:#5D6EC5"></stop></linearGradient><path style="fill:url(#hair1XMLID_3020_);stroke:#1E1E1E;stroke-linecap:round;stroke-linejoin:round;" d="M220.179,164.276c0,0-21.887,58.513-28.587,63.874c-7.147-9.381-11.613-37.967,4.913-63.874"></path><linearGradient id="hair1XMLID_3021_" gradientUnits="userSpaceOnUse" x1="221.0659" y1="249.333" x2="221.0659" y2="130.0003"><stop offset="0" style="stop-color:#FCFCE4"></stop><stop offset="0.5" style="stop-color:#A0C8DD"></stop><stop offset="1" style="stop-color:#5D6EC5"></stop></linearGradient><path style="fill:url(#hair1XMLID_3021_);stroke:#1E1E1E;stroke-linecap:round;stroke-linejoin:round;" d="M237.599,166.51c0,0-22.334,27.246-29.034,51.367c-6.253-12.061-6.699-39.307,9.38-56.28"></path><linearGradient id="hair1XMLID_3022_" gradientUnits="userSpaceOnUse" x1="279.002" y1="249.333" x2="279.002" y2="130.0001"><stop offset="0" style="stop-color:#FCFCE4"></stop><stop offset="0.5" style="stop-color:#A0C8DD"></stop><stop offset="1" style="stop-color:#5D6EC5"></stop></linearGradient><path style="fill:url(#hair1XMLID_3022_);stroke:#1E1E1E;stroke-linecap:round;stroke-linejoin:round;" d="M297.005,148.197c0,0,16.08,50.473-14.74,72.806c11.167-20.1,5.36-49.134,5.36-49.134s-4.467,41.987-30.82,45.113c9.827-20.992,15.634-46.453,11.614-56.279"></path><linearGradient id="hair1XMLID_3023_" gradientUnits="userSpaceOnUse" x1="250.7124" y1="249.333" x2="250.7124" y2="130"><stop offset="0" style="stop-color:#FCFCE4"></stop><stop offset="0.5" style="stop-color:#A0C8DD"></stop><stop offset="1" style="stop-color:#5D6EC5"></stop></linearGradient><path style="fill:url(#hair1XMLID_3023_);stroke:#1E1E1E;stroke-linecap:round;stroke-linejoin:round;" d="M279.139,152.663c0,0,6.253,48.24-28.587,69.233c6.7-12.507,8.04-23.674,8.04-23.674s-8.041,20.994-28.587,24.121c0.446-3.127,1.34-7.146,1.34-7.146l-7.593,5.806c0,0-9.827-40.646,15.187-66.553"></path><linearGradient id="hair1XMLID_3024_" gradientUnits="userSpaceOnUse" x1="237.6226" y1="249.333" x2="237.6226" y2="130.0002"><stop offset="0" style="stop-color:#FCFCE4"></stop><stop offset="0.5" style="stop-color:#A0C8DD"></stop><stop offset="1" style="stop-color:#5D6EC5"></stop></linearGradient><path style="fill:url(#hair1XMLID_3024_);stroke:#1E1E1E;stroke-linecap:round;stroke-linejoin:round;" d="M255.019,169.637c0,0-6.254,36.18-32.606,54.047c-4.468-11.167-2.233-42.434,8.039-57.621"></path></g><linearGradient id="hair1XMLID_3025_" gradientUnits="userSpaceOnUse" x1="223.605" y1="249.333" x2="223.605" y2="130.0003"><stop offset="0" style="stop-color:#FCFCE4"></stop><stop offset="0.5" style="stop-color:#A0C8DD"></stop><stop offset="1" style="stop-color:#5D6EC5"></stop></linearGradient><path style="fill:url(#hair1XMLID_3025_);stroke:#1E1E1E;stroke-linecap:round;stroke-linejoin:round;" d="M219.731,140.157c-9.827,11.167-33.5,33.947-44.667,38.86c14.66,1.629,30.677-7.521,37.074-12.06c-10.273,12.06-19.207,20.1-32.16,24.567c31.267,7.594,49.065-20.555,55.387-26.8c-6.254,11.613-20.427,30.835-28.587,36.626c29.927-5.807,40.2-28.586,46.007-39.307c-4.467,21.439-14.74,32.16-27.247,40.2c55.387-4.021,46.007-65.66,46.007-65.66"></path></g></g></g></svg>