<svg xmlns="http://www.w3.org/2000/svg" width="500" height="500" version="1.1"><g id="x077"><g><linearGradient id="hair1XMLID_3026_" gradientUnits="userSpaceOnUse" x1="250.0005" y1="212" x2="250.0005" y2="144.667"><stop offset="0" style="stop-color:#FCFCE4"></stop><stop offset="0.5" style="stop-color:#A0C8DD"></stop><stop offset="1" style="stop-color:#5D6EC5"></stop></linearGradient><path style="fill:url(#hair1XMLID_3026_);stroke:#1E1E1E;stroke-linecap:round;stroke-linejoin:round;" d="M311.484,135.882c-17.021-17.418-41.603-23.852-61.484-20.131c-19.882-3.721-44.464,2.713-61.484,20.131c-13.061,13.365-22.283,30.165-22.283,51.08c0,24.372,15.268,44.372,25.934,48.538c-7.33-33.49-0.484-59.331,5.084-68.5c1.798-2.157,29.369-5.491,52.75-5.619c23.381,0.128,50.952,3.462,52.75,5.619c5.568,9.169,12.414,35.01,5.084,68.5c10.666-4.167,25.934-24.167,25.934-48.538C333.768,166.047,324.545,149.248,311.484,135.882z"></path><g><g><linearGradient id="hair1XMLID_3027_" gradientUnits="userSpaceOnUse" x1="192.4917" y1="212" x2="192.4917" y2="144.667"><stop offset="0" style="stop-color:#FCFCE4"></stop><stop offset="0.5" style="stop-color:#A0C8DD"></stop><stop offset="1" style="stop-color:#5D6EC5"></stop></linearGradient><path style="fill:url(#hair1XMLID_3027_);stroke:#1E1E1E;stroke-linecap:round;stroke-linejoin:round;" d="M233.362,123.863c-58.067,4.02-49.58,54.939-58.96,56.727s-15.187-3.127-22.334-8.486c-3.127,20.993,11.167,25.459,11.167,25.459s-2.233,0.447-4.913,4.021c0,7.594,5.36,16.08,8.934,16.08c2.201,0,7.792-2.543,12.282-5.018c7.623,0.368,10.944-4.81,10.944-4.81s0,3.574,2.233,8.041c23.227-3.574,36.626-50.474,36.626-50.474"></path><linearGradient id="hair1XMLID_3028_" gradientUnits="userSpaceOnUse" x1="187.1318" y1="212" x2="187.1318" y2="144.667"><stop offset="0" style="stop-color:#FCFCE4"></stop><stop offset="0.5" style="stop-color:#A0C8DD"></stop><stop offset="1" style="stop-color:#5D6EC5"></stop></linearGradient><path style="fill:url(#hair1XMLID_3028_);stroke:#1E1E1E;stroke-linecap:round;stroke-linejoin:round;" d="M194.055,185.95c0,0-7.146,17.419-25.46,16.974c0.447,8.486,28.141,14.739,37.074-0.447"></path></g><linearGradient id="hair1XMLID_3029_" gradientUnits="userSpaceOnUse" x1="234.1016" y1="212" x2="234.1016" y2="144.6671"><stop offset="0" style="stop-color:#FCFCE4"></stop><stop offset="0.5" style="stop-color:#A0C8DD"></stop><stop offset="1" style="stop-color:#5D6EC5"></stop></linearGradient><path style="fill:url(#hair1XMLID_3029_);stroke:#1E1E1E;stroke-linecap:round;stroke-linejoin:round;" d="M246.538,158.479c0,0-16.75,31.044-23.896,53.823c-2.234-12.953-0.895-34.84,6.699-51.366"></path><linearGradient id="hair1XMLID_3030_" gradientUnits="userSpaceOnUse" x1="267.9434" y1="212" x2="267.9434" y2="144.6671"><stop offset="0" style="stop-color:#FCFCE4"></stop><stop offset="0.5" style="stop-color:#A0C8DD"></stop><stop offset="1" style="stop-color:#5D6EC5"></stop></linearGradient><path style="fill:url(#hair1XMLID_3030_);stroke:#1E1E1E;stroke-linecap:round;stroke-linejoin:round;" d="M273.339,156.023c0,0,7.594,37.52-3.127,58.959c-0.896-21.965-0.937-22.034-10.273-54.493"></path><linearGradient id="hair1XMLID_3031_" gradientUnits="userSpaceOnUse" x1="251.5518" y1="212" x2="251.5518" y2="144.6671"><stop offset="0" style="stop-color:#FCFCE4"></stop><stop offset="0.5" style="stop-color:#A0C8DD"></stop><stop offset="1" style="stop-color:#5D6EC5"></stop></linearGradient><path style="fill:url(#hair1XMLID_3031_);stroke:#1E1E1E;stroke-linecap:round;stroke-linejoin:round;" d="M261.058,157.363c0,1.156,6.167,39.697-19.655,52.029c10.02-27.363,1.563-53.146,1.563-53.146"></path><linearGradient id="hair1XMLID_3032_" gradientUnits="userSpaceOnUse" x1="309.2402" y1="211.9282" x2="309.2402" y2="144.5952"><stop offset="0" style="stop-color:#FCFCE4"></stop><stop offset="0.5" style="stop-color:#A0C8DD"></stop><stop offset="1" style="stop-color:#5D6EC5"></stop></linearGradient><path style="fill:url(#hair1XMLID_3032_);stroke:#1E1E1E;stroke-linecap:round;stroke-linejoin:round;" d="M270.101,155.911c0,0,16.191,26.019,20.212,32.719c4.02,6.7,8.486,24.567,32.606,23.227c-4.467-2.68-8.934-9.827-8.934-9.827s18.313,11.167,29.479-4.02c-8.486-0.893-10.72-4.02-10.72-4.02s15.634-3.574,15.634-20.101c-8.486,2.681-15.26-1.181-16.974-2.681c-6.496-5.684-1.117-44.219-57.396-47.346"></path><linearGradient id="hair1XMLID_3033_" gradientUnits="userSpaceOnUse" x1="293.8438" y1="212" x2="293.8438" y2="144.667"><stop offset="0" style="stop-color:#FCFCE4"></stop><stop offset="0.5" style="stop-color:#A0C8DD"></stop><stop offset="1" style="stop-color:#5D6EC5"></stop></linearGradient><path style="fill:url(#hair1XMLID_3033_);stroke:#1E1E1E;stroke-linecap:round;stroke-linejoin:round;" d="M286.413,181.582c5.074,8.602,8.813,16.875,11.492,29.381c6.7-7.594,1.34-20.1,1.34-20.1"></path></g></g></g></svg>