<svg xmlns="http://www.w3.org/2000/svg" width="500" height="500" version="1.1"><g id="x078"><g><linearGradient id="hair1XMLID_3034_" gradientUnits="userSpaceOnUse" x1="250.0005" y1="222.3335" x2="250.0005" y2="151.667"><stop offset="0" style="stop-color:#FCFCE4"></stop><stop offset="0.5" style="stop-color:#A0C8DD"></stop><stop offset="1" style="stop-color:#5D6EC5"></stop></linearGradient><path style="fill:url(#hair1XMLID_3034_);stroke:#1E1E1E;stroke-linecap:round;stroke-linejoin:round;" d="M311.484,135.882c-17.021-17.418-41.603-23.852-61.484-20.131c-19.882-3.721-44.464,2.713-61.484,20.131c-13.061,13.365-22.283,30.165-22.283,51.08c0,24.372,15.268,44.372,25.934,48.538c-7.33-33.49-0.484-59.331,5.084-68.5c1.798-2.157,29.369-5.491,52.75-5.619c23.381,0.128,50.952,3.462,52.75,5.619c5.568,9.169,12.414,35.01,5.084,68.5c10.666-4.167,25.934-24.167,25.934-48.538C333.768,166.047,324.545,149.248,311.484,135.882z"></path><g><g><linearGradient id="hair1XMLID_3035_" gradientUnits="userSpaceOnUse" x1="185.7754" y1="222.3335" x2="185.7754" y2="151.6672"><stop offset="0" style="stop-color:#FCFCE4"></stop><stop offset="0.5" style="stop-color:#A0C8DD"></stop><stop offset="1" style="stop-color:#5D6EC5"></stop></linearGradient><path style="fill:url(#hair1XMLID_3035_);stroke:#1E1E1E;stroke-linecap:round;stroke-linejoin:round;" d="M190.859,209.623c0,0-3.126,35.287,9.827,49.133c-16.08,3.574-35.733-16.973-28.14-65.213"></path><linearGradient id="hair1XMLID_3036_" gradientUnits="userSpaceOnUse" x1="314.416" y1="222.3335" x2="314.416" y2="151.6672"><stop offset="0" style="stop-color:#FCFCE4"></stop><stop offset="0.5" style="stop-color:#A0C8DD"></stop><stop offset="1" style="stop-color:#5D6EC5"></stop></linearGradient><path style="fill:url(#hair1XMLID_3036_);stroke:#1E1E1E;stroke-linecap:round;stroke-linejoin:round;" d="M309.332,209.623c0,0,3.126,35.287-9.828,49.133c16.08,3.574,35.734-16.973,28.141-65.213"></path></g><linearGradient id="hair1XMLID_3037_" gradientUnits="userSpaceOnUse" x1="248.9058" y1="222.3335" x2="248.9058" y2="151.667"><stop offset="0" style="stop-color:#FCFCE4"></stop><stop offset="0.5" style="stop-color:#A0C8DD"></stop><stop offset="1" style="stop-color:#5D6EC5"></stop></linearGradient><path style="fill:url(#hair1XMLID_3037_);stroke:#1E1E1E;stroke-linecap:round;stroke-linejoin:round;" d="M190.518,160.49c0,0-28.14,31.266-0.446,58.067c2.233-12.507,9.381-23.227,16.973-30.82c-3.126,4.914-12.953,20.101-10.72,29.928c5.808-4.914,36.18-3.574,57.174-30.82c1.34,3.127-17.867,27.693-17.867,33.053c9.827-1.34,38.413,0.893,61.641-34.84c0,0,2.232,22.334-4.467,33.946c24.567-4.466,37.967-32.606,16.079-59.853"></path></g></g></g></svg>