<svg xmlns="http://www.w3.org/2000/svg" width="500" height="500" version="1.1"><g id="x079"><g><linearGradient id="hair1XMLID_3038_" gradientUnits="userSpaceOnUse" x1="250.0005" y1="228.6665" x2="250.0005" y2="149"><stop offset="0" style="stop-color:#FCFCE4"></stop><stop offset="0.5" style="stop-color:#A0C8DD"></stop><stop offset="1" style="stop-color:#5D6EC5"></stop></linearGradient><path style="fill:url(#hair1XMLID_3038_);stroke:#1E1E1E;stroke-linecap:round;stroke-linejoin:round;" d="M311.484,135.882c-17.021-17.418-41.603-23.852-61.484-20.131c-19.882-3.721-44.464,2.713-61.484,20.131c-13.061,13.365-22.283,30.165-22.283,51.08c0,24.372,15.268,44.372,25.934,48.538c-7.33-33.49-0.484-59.331,5.084-68.5c1.798-2.157,29.369-5.491,52.75-5.619c23.381,0.128,50.952,3.462,52.75,5.619c5.568,9.169,12.414,35.01,5.084,68.5c10.666-4.167,25.934-24.167,25.934-48.538C333.768,166.047,324.545,149.248,311.484,135.882z"></path><g><g><g><linearGradient id="hair1XMLID_3039_" gradientUnits="userSpaceOnUse" x1="173.6196" y1="228.6665" x2="173.6196" y2="148.9998"><stop offset="0" style="stop-color:#FCFCE4"></stop><stop offset="0.5" style="stop-color:#A0C8DD"></stop><stop offset="1" style="stop-color:#5D6EC5"></stop></linearGradient><path style="fill:url(#hair1XMLID_3039_);stroke:#1E1E1E;stroke-linecap:round;stroke-linejoin:round;" d="M193.565,201.583c0,0-21.441,45.114-33.054,40.2c-11.613-4.913-4.914-24.119-4.914-24.119s8.04,16.973,13.4,10.719c5.36-6.253,17.42-26.354,17.42-26.354"></path><path style="fill:none;stroke:#1E1E1E;stroke-linecap:round;stroke-linejoin:round;" d="M163.191,228.383c0,0,5.807,4.467,8.486,0.894"></path></g><g><linearGradient id="hair1XMLID_3040_" gradientUnits="userSpaceOnUse" x1="326.3809" y1="228.6665" x2="326.3809" y2="148.9998"><stop offset="0" style="stop-color:#FCFCE4"></stop><stop offset="0.5" style="stop-color:#A0C8DD"></stop><stop offset="1" style="stop-color:#5D6EC5"></stop></linearGradient><path style="fill:url(#hair1XMLID_3040_);stroke:#1E1E1E;stroke-linecap:round;stroke-linejoin:round;" d="M306.436,201.583c0,0,21.439,45.114,33.054,40.2c11.613-4.913,4.913-24.119,4.913-24.119s-8.04,16.973-13.399,10.719c-5.36-6.253-17.421-26.354-17.421-26.354"></path><path style="fill:none;stroke:#1E1E1E;stroke-linecap:round;stroke-linejoin:round;" d="M336.809,228.383c0,0-5.807,4.467-8.486,0.894"></path></g></g><g><linearGradient id="hair1XMLID_3041_" gradientUnits="userSpaceOnUse" x1="179.6274" y1="228.6665" x2="179.6274" y2="149"><stop offset="0" style="stop-color:#FCFCE4"></stop><stop offset="0.5" style="stop-color:#A0C8DD"></stop><stop offset="1" style="stop-color:#5D6EC5"></stop></linearGradient><path style="fill:url(#hair1XMLID_3041_);stroke:#1E1E1E;stroke-linecap:round;stroke-linejoin:round;" d="M190.438,140.39c0,0-53.601,49.58-5.808,98.267c-0.893-18.76,9.827-36.18,9.827-36.18"></path><linearGradient id="hair1XMLID_3042_" gradientUnits="userSpaceOnUse" x1="185.8472" y1="228.6665" x2="185.8472" y2="149"><stop offset="0" style="stop-color:#FCFCE4"></stop><stop offset="0.5" style="stop-color:#A0C8DD"></stop><stop offset="1" style="stop-color:#5D6EC5"></stop></linearGradient><path style="fill:url(#hair1XMLID_3042_);stroke:#1E1E1E;stroke-linecap:round;stroke-linejoin:round;" d="M189.992,237.762c0,0-0.895,19.207,6.699,28.141c-13.847-2.232-24.567-11.166-20.993-48.24"></path><linearGradient id="hair1XMLID_3043_" gradientUnits="userSpaceOnUse" x1="192.001" y1="228.6665" x2="192.001" y2="148.9999"><stop offset="0" style="stop-color:#FCFCE4"></stop><stop offset="0.5" style="stop-color:#A0C8DD"></stop><stop offset="1" style="stop-color:#5D6EC5"></stop></linearGradient><path style="fill:url(#hair1XMLID_3043_);stroke:#1E1E1E;stroke-linecap:round;stroke-linejoin:round;" d="M192.224,214.535c0,0-2.232,25.461,12.507,39.754c-10.273-0.893-25.014-6.254-25.46-29.48"></path><linearGradient id="hair1XMLID_3044_" gradientUnits="userSpaceOnUse" x1="207.8833" y1="228.6665" x2="207.8833" y2="149.0003"><stop offset="0" style="stop-color:#FCFCE4"></stop><stop offset="0.5" style="stop-color:#A0C8DD"></stop><stop offset="1" style="stop-color:#5D6EC5"></stop></linearGradient><path style="fill:url(#hair1XMLID_3044_);stroke:#1E1E1E;stroke-linecap:round;stroke-linejoin:round;" d="M231.978,161.383c0,0-26.801,23.673-36.181,71.466c-16.08-18.313-16.526-51.367,1.786-75.04"></path><linearGradient id="hair1XMLID_3045_" gradientUnits="userSpaceOnUse" x1="309.4883" y1="228.6665" x2="309.4883" y2="148.9999"><stop offset="0" style="stop-color:#FCFCE4"></stop><stop offset="0.5" style="stop-color:#A0C8DD"></stop><stop offset="1" style="stop-color:#5D6EC5"></stop></linearGradient><path style="fill:url(#hair1XMLID_3045_);stroke:#1E1E1E;stroke-linecap:round;stroke-linejoin:round;" d="M307.019,221.684c0,0-1.341,30.373-12.507,37.967c11.166-3.574,16.526-9.827,17.42-15.188c0,0-2.232,16.974-7.146,22.779c9.38-4.912,25.013-18.76,17.866-49.133"></path><linearGradient id="hair1XMLID_3046_" gradientUnits="userSpaceOnUse" x1="302.3047" y1="228.6665" x2="302.3047" y2="149"><stop offset="0" style="stop-color:#FCFCE4"></stop><stop offset="0.5" style="stop-color:#A0C8DD"></stop><stop offset="1" style="stop-color:#5D6EC5"></stop></linearGradient><path style="fill:url(#hair1XMLID_3046_);stroke:#1E1E1E;stroke-linecap:round;stroke-linejoin:round;" d="M310.145,145.303c0,0,26.801,36.179,4.467,80.4c-10.273-11.613-33.5-60.747-33.5-60.747"></path><linearGradient id="hair1XMLID_3047_" gradientUnits="userSpaceOnUse" x1="308.8027" y1="228.6665" x2="308.8027" y2="149"><stop offset="0" style="stop-color:#FCFCE4"></stop><stop offset="0.5" style="stop-color:#A0C8DD"></stop><stop offset="1" style="stop-color:#5D6EC5"></stop></linearGradient><path style="fill:url(#hair1XMLID_3047_);stroke:#1E1E1E;stroke-linecap:round;stroke-linejoin:round;" d="M275.751,169.869c0,0-1.34,66.107,56.28,58.961c-5.025-1.508-12.804-3.665-12.953-4.914c4.913,0,15.187,1.787,22.78-11.613c-9.38,0.895-30.82-7.594-33.5-25.014c-2.681-17.42-6.701-45.56-24.567-49.58"></path><linearGradient id="hair1XMLID_3048_" gradientUnits="userSpaceOnUse" x1="322" y1="228.6665" x2="322" y2="149"><stop offset="0" style="stop-color:#FCFCE4"></stop><stop offset="0.5" style="stop-color:#A0C8DD"></stop><stop offset="1" style="stop-color:#5D6EC5"></stop></linearGradient><path style="fill:url(#hair1XMLID_3048_);stroke:#1E1E1E;stroke-linecap:round;stroke-linejoin:round;" d="M315.059,214.982c0,0,12.953,9.381,24.566,4.914c0.894,5.807-14.294,15.187-35.287,5.807"></path><linearGradient id="hair1XMLID_3049_" gradientUnits="userSpaceOnUse" x1="249.6968" y1="228.6665" x2="249.6968" y2="149"><stop offset="0" style="stop-color:#FCFCE4"></stop><stop offset="0.5" style="stop-color:#A0C8DD"></stop><stop offset="1" style="stop-color:#5D6EC5"></stop></linearGradient><path style="fill:url(#hair1XMLID_3049_);stroke:#1E1E1E;stroke-linecap:round;stroke-linejoin:round;" d="M238.677,137.709c0,0-32.606,34.394-7.146,83.08c-0.447-8.039,1.34-22.332,1.34-22.332s-4.02,29.033,29.481,40.646c-5.36-4.914-4.467-19.207-4.467-19.207s32.16-30.82,14.293-71.914"></path><path style="fill:none;stroke:#1E1E1E;stroke-linecap:round;stroke-linejoin:round;" d="M266.371,172.996c0,0,2.233,16.527-9.38,47.793"></path><linearGradient id="hair1XMLID_3050_" gradientUnits="userSpaceOnUse" x1="178.3774" y1="223.916" x2="178.3774" y2="223.916"><stop offset="0" style="stop-color:#FCFCE4"></stop><stop offset="0.5" style="stop-color:#A0C8DD"></stop><stop offset="1" style="stop-color:#5D6EC5"></stop></linearGradient><path style="fill:url(#hair1XMLID_3050_);stroke:#1E1E1E;stroke-linecap:round;stroke-linejoin:round;" d="M178.377,223.916"></path><linearGradient id="hair1XMLID_3051_" gradientUnits="userSpaceOnUse" x1="191.3306" y1="213.6426" x2="191.3306" y2="213.6426"><stop offset="0" style="stop-color:#FCFCE4"></stop><stop offset="0.5" style="stop-color:#A0C8DD"></stop><stop offset="1" style="stop-color:#5D6EC5"></stop></linearGradient><path style="fill:url(#hair1XMLID_3051_);stroke:#1E1E1E;stroke-linecap:round;stroke-linejoin:round;" d="M191.331,213.643"></path></g></g></g></g></svg>