<svg xmlns="http://www.w3.org/2000/svg" width="500" height="500" version="1.1"><g id="x080"><g><linearGradient id="hair1XMLID_3052_" gradientUnits="userSpaceOnUse" x1="250.0005" y1="228.3335" x2="250.0005" y2="152"><stop offset="0" style="stop-color:#FCFCE4"></stop><stop offset="0.5" style="stop-color:#A0C8DD"></stop><stop offset="1" style="stop-color:#5D6EC5"></stop></linearGradient><path style="fill:url(#hair1XMLID_3052_);stroke:#1E1E1E;stroke-linecap:round;stroke-linejoin:round;" d="M311.484,135.882c-17.021-17.418-41.603-23.852-61.484-20.131c-19.882-3.721-44.464,2.713-61.484,20.131c-13.061,13.365-22.283,30.165-22.283,51.08c0,24.372,15.268,44.372,25.934,48.538c-7.33-33.49-0.484-59.331,5.084-68.5c1.798-2.157,29.369-5.491,52.75-5.619c23.381,0.128,50.952,3.462,52.75,5.619c5.568,9.169,12.414,35.01,5.084,68.5c10.666-4.167,25.934-24.167,25.934-48.538C333.768,166.047,324.545,149.248,311.484,135.882z"></path><g><linearGradient id="hair1XMLID_3053_" gradientUnits="userSpaceOnUse" x1="223.7192" y1="228.3335" x2="223.7192" y2="152.0003"><stop offset="0" style="stop-color:#FCFCE4"></stop><stop offset="0.5" style="stop-color:#A0C8DD"></stop><stop offset="1" style="stop-color:#5D6EC5"></stop></linearGradient><path style="fill:url(#hair1XMLID_3053_);stroke:#1E1E1E;stroke-linecap:round;stroke-linejoin:round;" d="M187.838,152.663c0,0-27.32,36.171-4.591,74.966l18.742-8.115c-0.557-2.507-0.157-13.961,3.715-24.417c0.824,10.304,0.178,17.382,2.524,21.716l32.591-14.109c-0.786-3.584-1.315-8.132,1.512-15.2c-0.548,6.577,0.08,11.462,0.648,14.265l27.585-11.943c2.578-8.15,4.445-25.057-0.093-37.161"></path><linearGradient id="hair1XMLID_3054_" gradientUnits="userSpaceOnUse" x1="295.4297" y1="228.3335" x2="295.4297" y2="151.9997"><stop offset="0" style="stop-color:#FCFCE4"></stop><stop offset="0.5" style="stop-color:#A0C8DD"></stop><stop offset="1" style="stop-color:#5D6EC5"></stop></linearGradient><path style="fill:url(#hair1XMLID_3054_);stroke:#1E1E1E;stroke-linecap:round;stroke-linejoin:round;" d="M270.918,154.896c0,0,13.4,16.974,8.934,41.54c9.38-7.147,7.593-25.46,7.593-25.46s5.644,17.746,4.285,26.408l11.029,9.143c0.216-7.416-0.127-11.877-0.127-11.877s2.579,8.315,3.145,14.379l10.488,8.693c4.03-8.98,7.962-27.161-6.933-53"></path></g></g></g></svg>