<svg xmlns="http://www.w3.org/2000/svg" width="500" height="500" version="1.1"><g id="x085"><g><linearGradient id="hair1XMLID_3096_" gradientUnits="userSpaceOnUse" x1="250.0005" y1="234.6665" x2="250.0005" y2="156.3335"><stop offset="0" style="stop-color:#FCFCE4"></stop><stop offset="0.5" style="stop-color:#A0C8DD"></stop><stop offset="1" style="stop-color:#5D6EC5"></stop></linearGradient><path style="fill:url(#hair1XMLID_3096_);stroke:#1E1E1E;stroke-linecap:round;stroke-linejoin:round;" d="M311.484,135.882c-17.021-17.418-41.603-23.852-61.484-20.131c-19.882-3.721-44.464,2.713-61.484,20.131c-13.061,13.365-22.283,30.165-22.283,51.08c0,24.372,15.268,44.372,25.934,48.538c-7.33-33.49-0.484-59.331,5.084-68.5c1.798-2.157,29.369-5.491,52.75-5.619c23.381,0.128,50.952,3.462,52.75,5.619c5.568,9.169,12.414,35.01,5.084,68.5c10.666-4.167,25.934-24.167,25.934-48.538C333.768,166.047,324.545,149.248,311.484,135.882z"></path><g><g><g><linearGradient id="hair1XMLID_3097_" gradientUnits="userSpaceOnUse" x1="204.3511" y1="234.6665" x2="204.3511" y2="156.3335"><stop offset="0" style="stop-color:#FCFCE4"></stop><stop offset="0.5" style="stop-color:#A0C8DD"></stop><stop offset="1" style="stop-color:#5D6EC5"></stop></linearGradient><path style="fill:url(#hair1XMLID_3097_);stroke:#1E1E1E;stroke-linecap:round;stroke-linejoin:round;" d="M240.724,129.224c-33.5-7.594-71.81,26.8-72.703,63.873c-1.034,42.905,17.316,47.794,17.764,50.474c0,0-2.233-37.074,14.739-59.854"></path><linearGradient id="hair1XMLID_3098_" gradientUnits="userSpaceOnUse" x1="194.7095" y1="234.6665" x2="194.7095" y2="156.3335"><stop offset="0" style="stop-color:#FCFCE4"></stop><stop offset="0.5" style="stop-color:#A0C8DD"></stop><stop offset="1" style="stop-color:#5D6EC5"></stop></linearGradient><path style="fill:url(#hair1XMLID_3098_);stroke:#1E1E1E;stroke-linecap:round;stroke-linejoin:round;" d="M216.707,169.87c0,0-8.486,32.159-28.14,52.26c-15.905,16.267-17.42,31.714-17.42,31.714s-22.78-87.101,50.474-113.454"></path><linearGradient id="hair1XMLID_3099_" gradientUnits="userSpaceOnUse" x1="223.7813" y1="234.6665" x2="223.7813" y2="156.3335"><stop offset="0" style="stop-color:#FCFCE4"></stop><stop offset="0.5" style="stop-color:#A0C8DD"></stop><stop offset="1" style="stop-color:#5D6EC5"></stop></linearGradient><path style="fill:url(#hair1XMLID_3099_);stroke:#1E1E1E;stroke-linecap:round;stroke-linejoin:round;" d="M258.247,148.876c0,0,3.127,61.194-27.693,85.313c8.487-19.652,9.38-40.646,9.38-40.646s-4.467,38.86-32.159,55.387c6.699-12.953,15.633-45.113,18.313-70.127c0,0-10.272,50.921-33.946,67c-5.807-16.079-3.573-51.813,12.507-79.953"></path></g><g><linearGradient id="hair1XMLID_3100_" gradientUnits="userSpaceOnUse" x1="292.2539" y1="234.6665" x2="292.2539" y2="156.3335"><stop offset="0" style="stop-color:#FCFCE4"></stop><stop offset="0.5" style="stop-color:#A0C8DD"></stop><stop offset="1" style="stop-color:#5D6EC5"></stop></linearGradient><path style="fill:url(#hair1XMLID_3100_);stroke:#1E1E1E;stroke-linecap:round;stroke-linejoin:round;" d="M256.014,129.224c33.5-7.594,70.946,22.797,72.36,56.727c1.787,42.88-16.973,54.94-17.42,57.62c0,0,2.233-37.074-14.74-59.854"></path><linearGradient id="hair1XMLID_3101_" gradientUnits="userSpaceOnUse" x1="287.7969" y1="234.6665" x2="287.7969" y2="156.3335"><stop offset="0" style="stop-color:#FCFCE4"></stop><stop offset="0.5" style="stop-color:#A0C8DD"></stop><stop offset="1" style="stop-color:#5D6EC5"></stop></linearGradient><path style="fill:url(#hair1XMLID_3101_);stroke:#1E1E1E;stroke-linecap:round;stroke-linejoin:round;" d="M258.247,161.637c0,0,49.581,16.273,50.474,83.273c13.4-27.246,15.634-71.02-26.354-99.16"></path></g></g></g></g></g></svg>