<svg xmlns="http://www.w3.org/2000/svg" width="500" height="500" version="1.1"><g id="x086"><g><linearGradient id="hair1XMLID_3102_" gradientUnits="userSpaceOnUse" x1="250.0005" y1="234.3335" x2="250.0005" y2="161"><stop offset="0" style="stop-color:#FCFCE4"></stop><stop offset="0.5" style="stop-color:#A0C8DD"></stop><stop offset="1" style="stop-color:#5D6EC5"></stop></linearGradient><path style="fill:url(#hair1XMLID_3102_);stroke:#1E1E1E;stroke-linecap:round;stroke-linejoin:round;" d="M311.484,135.882c-17.021-17.418-41.603-23.852-61.484-20.131c-19.882-3.721-44.464,2.713-61.484,20.131c-13.061,13.365-22.283,30.165-22.283,51.08c0,24.372,15.268,44.372,25.934,48.538c-7.33-33.49-0.484-59.331,5.084-68.5c1.798-2.157,29.369-5.491,52.75-5.619c23.381,0.128,50.952,3.462,52.75,5.619c5.568,9.169,12.414,35.01,5.084,68.5c10.666-4.167,25.934-24.167,25.934-48.538C333.768,166.047,324.545,149.248,311.484,135.882z"></path><g><g><linearGradient id="hair1XMLID_3103_" gradientUnits="userSpaceOnUse" x1="181.437" y1="234.3335" x2="181.437" y2="161.0001"><stop offset="0" style="stop-color:#FCFCE4"></stop><stop offset="0.5" style="stop-color:#A0C8DD"></stop><stop offset="1" style="stop-color:#5D6EC5"></stop></linearGradient><path style="fill:url(#hair1XMLID_3103_);stroke:#1E1E1E;stroke-linecap:round;stroke-linejoin:round;" d="M192.125,202.244c0,0-5.808-7.147-19.654,0c-0.445-0.895-0.445-4.021-0.445-4.021s-7.147,1.339-5.808,7.593c-3.127-11.166-3.127-60.3,31.714-71.913"></path><linearGradient id="hair1XMLID_3104_" gradientUnits="userSpaceOnUse" x1="184.978" y1="234.3335" x2="184.978" y2="161"><stop offset="0" style="stop-color:#FCFCE4"></stop><stop offset="0.5" style="stop-color:#A0C8DD"></stop><stop offset="1" style="stop-color:#5D6EC5"></stop></linearGradient><path style="fill:url(#hair1XMLID_3104_);stroke:#1E1E1E;stroke-linecap:round;stroke-linejoin:round;" d="M194.358,193.311c0,0-8.487,34.84,0.446,50.025c-9.38-12.06-19.653-12.953-19.653-12.953s2.68-14.739,1.34-32.159c-0.892-11.589,3.126-41.094,15.634-48.687"></path></g><g><linearGradient id="hair1XMLID_3105_" gradientUnits="userSpaceOnUse" x1="318.5645" y1="234.3335" x2="318.5645" y2="161.0001"><stop offset="0" style="stop-color:#FCFCE4"></stop><stop offset="0.5" style="stop-color:#A0C8DD"></stop><stop offset="1" style="stop-color:#5D6EC5"></stop></linearGradient><path style="fill:url(#hair1XMLID_3105_);stroke:#1E1E1E;stroke-linecap:round;stroke-linejoin:round;" d="M307.875,202.244c0,0,5.808-7.147,19.654,0c0.446-0.895,0.446-4.021,0.446-4.021s7.147,1.339,5.808,7.593c3.126-11.166,3.126-60.3-31.714-71.913"></path><linearGradient id="hair1XMLID_3106_" gradientUnits="userSpaceOnUse" x1="315.0215" y1="234.3335" x2="315.0215" y2="161"><stop offset="0" style="stop-color:#FCFCE4"></stop><stop offset="0.5" style="stop-color:#A0C8DD"></stop><stop offset="1" style="stop-color:#5D6EC5"></stop></linearGradient><path style="fill:url(#hair1XMLID_3106_);stroke:#1E1E1E;stroke-linecap:round;stroke-linejoin:round;" d="M305.643,193.311c0,0,8.486,34.84-0.447,50.025c9.38-12.06,19.653-12.953,19.653-12.953s-2.68-14.739-1.34-32.159c0.892-11.589-3.126-41.094-15.634-48.687"></path></g><linearGradient id="hair1XMLID_3107_" gradientUnits="userSpaceOnUse" x1="250.0005" y1="234.3335" x2="250.0005" y2="161.0001"><stop offset="0" style="stop-color:#FCFCE4"></stop><stop offset="0.5" style="stop-color:#A0C8DD"></stop><stop offset="1" style="stop-color:#5D6EC5"></stop></linearGradient><path style="fill:url(#hair1XMLID_3107_);stroke:#1E1E1E;stroke-linecap:round;stroke-linejoin:round;" d="M196.145,154.896c-15.188,16.08-9.38,45.113-9.38,45.113s10.721-2.233,16.08-1.34c-0.894-5.359,1.34-25.46,8.934-35.287c-7.147,12.954-3.127,26.8-3.127,26.8s6.254-1.34,10.273-1.787c-0.894-7.146,1.786-20.1,4.466-22.333c-2.232,6.7-0.445,15.634-0.445,15.634s3.126-0.447,7.593-0.895c-0.447-3.572,0-10.719,3.573-15.633c-1.786,5.359,0.446,12.061,0.446,12.061s8.109-0.811,15.442-0.887c7.333,0.076,15.442,0.887,15.442,0.887s2.232-6.701,0.446-12.061c3.574,4.914,4.021,12.061,3.574,15.633c4.466,0.447,7.593,0.895,7.593,0.895s1.786-8.934-0.446-15.634c2.68,2.233,5.359,15.187,4.466,22.333c4.021,0.447,10.273,1.787,10.273,1.787s4.021-13.847-3.126-26.8c7.593,9.827,9.826,29.927,8.933,35.287c5.36-0.894,16.08,1.34,16.08,1.34s5.808-29.033-9.38-45.113"></path></g></g></g></svg>