<svg xmlns="http://www.w3.org/2000/svg" width="500" height="500" version="1.1"><g id="x087"><g><linearGradient id="hair1XMLID_3108_" gradientUnits="userSpaceOnUse" x1="250.0005" y1="238.6665" x2="250.0005" y2="171"><stop offset="0" style="stop-color:#FCFCE4"></stop><stop offset="0.5" style="stop-color:#A0C8DD"></stop><stop offset="1" style="stop-color:#5D6EC5"></stop></linearGradient><path style="fill:url(#hair1XMLID_3108_);stroke:#1E1E1E;stroke-linecap:round;stroke-linejoin:round;" d="M311.484,135.882c-17.021-17.418-41.603-23.852-61.484-20.131c-19.882-3.721-44.464,2.713-61.484,20.131c-13.061,13.365-22.283,30.165-22.283,51.08c0,24.372,15.268,44.372,25.934,48.538c-7.33-33.49-0.484-59.331,5.084-68.5c1.798-2.157,29.369-5.491,52.75-5.619c23.381,0.128,50.952,3.462,52.75,5.619c5.568,9.169,12.414,35.01,5.084,68.5c10.666-4.167,25.934-24.167,25.934-48.538C333.768,166.047,324.545,149.248,311.484,135.882z"></path><g><g><linearGradient id="hair1XMLID_3109_" gradientUnits="userSpaceOnUse" x1="182.6577" y1="238.6665" x2="182.6577" y2="171"><stop offset="0" style="stop-color:#FCFCE4"></stop><stop offset="0.5" style="stop-color:#A0C8DD"></stop><stop offset="1" style="stop-color:#5D6EC5"></stop></linearGradient><path style="fill:url(#hair1XMLID_3109_);stroke:#1E1E1E;stroke-linecap:round;stroke-linejoin:round;" d="M193.421,193.979c0,0-6.7,30.15,3.797,42.434c-5.359-0.67-13.177-5.583-14.964-17.42c0,0-2.01,14.964,6.03,20.771c-13.623-7.147-33.053-40.646-8.263-81.294"></path><linearGradient id="hair1XMLID_3110_" gradientUnits="userSpaceOnUse" x1="317.1035" y1="238.6665" x2="317.1035" y2="171"><stop offset="0" style="stop-color:#FCFCE4"></stop><stop offset="0.5" style="stop-color:#A0C8DD"></stop><stop offset="1" style="stop-color:#5D6EC5"></stop></linearGradient><path style="fill:url(#hair1XMLID_3110_);stroke:#1E1E1E;stroke-linecap:round;stroke-linejoin:round;" d="M306.34,193.979c0,0,6.7,30.15-3.796,42.434c5.36-0.67,13.177-5.583,14.963-17.42c0,0,2.01,14.964-6.03,20.771c13.624-7.147,33.054-40.646,8.264-81.294"></path><linearGradient id="hair1XMLID_3111_" gradientUnits="userSpaceOnUse" x1="252.1748" y1="238.6665" x2="252.1748" y2="171"><stop offset="0" style="stop-color:#FCFCE4"></stop><stop offset="0.5" style="stop-color:#A0C8DD"></stop><stop offset="1" style="stop-color:#5D6EC5"></stop></linearGradient><path style="fill:url(#hair1XMLID_3111_);stroke:#1E1E1E;stroke-linecap:round;stroke-linejoin:round;" d="M204.364,154.673c-20.323,21.886-18.76,58.29-8.486,68.34c0.67-25.014,21.44-48.464,21.44-48.464c-5.36,17.644,1.34,38.19,10.496,43.773c-8.04-19.653,3.573-42.21,3.573-42.21s-5.138,21.663,8.71,35.732c2.011,3.797,2.232,10.051,10.051,16.527c0.445-2.903,4.689-13.623,6.029-16.303c0,3.572-0.67,15.186-0.67,15.186s15.857-29.033,10.273-54.717c0,0,12.953,24.791,11.613,47.124c6.924-10.273,14.739-29.703,8.71-49.58c2.457,4.243,22.556,31.714,23.674,52.706c7.146-18.313,12.06-45.113-9.604-67"></path></g></g></g></g></svg>