<svg xmlns="http://www.w3.org/2000/svg" width="500" height="500" version="1.1"><g id="x089"><g><linearGradient id="hair1XMLID_3121_" gradientUnits="userSpaceOnUse" x1="250.0005" y1="221.3335" x2="250.0005" y2="155.0001"><stop offset="0" style="stop-color:#FCFCE4"></stop><stop offset="0.5" style="stop-color:#A0C8DD"></stop><stop offset="1" style="stop-color:#5D6EC5"></stop></linearGradient><path style="fill:url(#hair1XMLID_3121_);stroke:#1E1E1E;stroke-linecap:round;stroke-linejoin:round;" d="M311.484,135.882c-17.021-17.418-41.603-23.852-61.484-20.131c-19.882-3.721-44.464,2.713-61.484,20.131c-13.061,13.365-22.283,30.165-22.283,51.08c0,24.372,15.268,44.372,25.934,48.538c-7.33-33.49-0.484-59.331,5.084-68.5c1.798-2.157,29.369-5.491,52.75-5.619c23.381,0.128,50.952,3.462,52.75,5.619c5.568,9.169,12.414,35.01,5.084,68.5c10.666-4.167,25.934-24.167,25.934-48.538C333.768,166.047,324.545,149.248,311.484,135.882z"></path><g><g><linearGradient id="hair1XMLID_3122_" gradientUnits="userSpaceOnUse" x1="317.6699" y1="221.3335" x2="317.6699" y2="155"><stop offset="0" style="stop-color:#FCFCE4"></stop><stop offset="0.5" style="stop-color:#A0C8DD"></stop><stop offset="1" style="stop-color:#5D6EC5"></stop></linearGradient><path style="fill:url(#hair1XMLID_3122_);stroke:#1E1E1E;stroke-linecap:round;stroke-linejoin:round;" d="M301.441,166.287c0,0,14.964,50.473,6.924,72.137c9.604-6.254,23.896-18.537,23.896-18.537s10.497-42.211-21.663-74.147"></path><linearGradient id="hair1XMLID_3123_" gradientUnits="userSpaceOnUse" x1="284.5996" y1="221.3335" x2="284.5996" y2="154.9999"><stop offset="0" style="stop-color:#FCFCE4"></stop><stop offset="0.5" style="stop-color:#A0C8DD"></stop><stop offset="1" style="stop-color:#5D6EC5"></stop></linearGradient><path style="fill:url(#hair1XMLID_3123_);stroke:#1E1E1E;stroke-linecap:round;stroke-linejoin:round;" d="M260.198,157.8c0,0,5.138,34.394,4.021,54.717c3.127-0.224,8.486-0.67,8.486-0.67s4.913-7.594,4.02-20.771c2.234,4.69,4.021,16.75,3.797,20.547c2.903-8.264,4.914-19.207,3.797-35.733c2.681,14.069,7.594,23.896,6.7,34.84c8.04,2.233,14.74,2.233,14.74,2.233s9.603-26.131-4.244-54.493"></path><linearGradient id="hair1XMLID_3124_" gradientUnits="userSpaceOnUse" x1="182.3296" y1="221.3335" x2="182.3296" y2="155"><stop offset="0" style="stop-color:#FCFCE4"></stop><stop offset="0.5" style="stop-color:#A0C8DD"></stop><stop offset="1" style="stop-color:#5D6EC5"></stop></linearGradient><path style="fill:url(#hair1XMLID_3124_);stroke:#1E1E1E;stroke-linecap:round;stroke-linejoin:round;" d="M198.558,166.287c0,0-14.963,50.473-6.923,72.137c-9.604-6.254-23.896-18.537-23.896-18.537s-10.496-42.211,21.663-74.147"></path><linearGradient id="hair1XMLID_3125_" gradientUnits="userSpaceOnUse" x1="208.6304" y1="221.3335" x2="208.6304" y2="155"><stop offset="0" style="stop-color:#FCFCE4"></stop><stop offset="0.5" style="stop-color:#A0C8DD"></stop><stop offset="1" style="stop-color:#5D6EC5"></stop></linearGradient><path style="fill:url(#hair1XMLID_3125_);stroke:#1E1E1E;stroke-linecap:round;stroke-linejoin:round;" d="M231.333,161c0,0-20.268,20.473-27.192,51.74c-2.233-6.924-0.67-16.304-0.67-16.304s-4.244,7.816-4.69,16.526c-3.573,0-11.836,2.68-11.836,2.68s-7.817-41.763,19.876-70.796"></path><linearGradient id="hair1XMLID_3126_" gradientUnits="userSpaceOnUse" x1="241.3052" y1="221.3335" x2="241.3052" y2="155.0001"><stop offset="0" style="stop-color:#FCFCE4"></stop><stop offset="0.5" style="stop-color:#A0C8DD"></stop><stop offset="1" style="stop-color:#5D6EC5"></stop></linearGradient><path style="fill:url(#hair1XMLID_3126_);stroke:#1E1E1E;stroke-linecap:round;stroke-linejoin:round;" d="M263.771,152.216c0,0-8.04,52.484-8.04,62.31c-2.232,0.224-14.294,0.671-14.294,0.671s0.001-34.395,1.564-51.144c-8.487,9.38-13.847,18.759-23.897,49.133c-1.786-19.207,5.583-47.57,17.42-63.204"></path></g></g></g></g></svg>