<svg xmlns="http://www.w3.org/2000/svg" width="500" height="500" version="1.1"><g id="x009"><g><linearGradient id="hair1XMLID_2497_" gradientUnits="userSpaceOnUse" x1="250.0005" y1="216.3335" x2="250.0005" y2="173.6669"><stop offset="0" style="stop-color:#FCFCE4"></stop><stop offset="0.5" style="stop-color:#A0C8DD"></stop><stop offset="1" style="stop-color:#5D6EC5"></stop></linearGradient><path style="fill:url(#hair1XMLID_2497_);stroke:#1E1E1E;stroke-linecap:round;stroke-linejoin:round;" d="M311.484,135.882c-17.021-17.418-41.603-23.852-61.484-20.131c-19.882-3.721-44.464,2.713-61.484,20.131c-13.061,13.365-22.283,30.165-22.283,51.08c0,24.372,15.268,44.372,25.934,48.538c-7.33-33.49-0.484-59.331,5.084-68.5c1.798-2.157,29.369-5.491,52.75-5.619c23.381,0.128,50.952,3.462,52.75,5.619c5.568,9.169,12.414,35.01,5.084,68.5c10.666-4.167,25.934-24.167,25.934-48.538C333.768,166.047,324.545,149.248,311.484,135.882z"></path><g><linearGradient id="hair1XMLID_2498_" gradientUnits="userSpaceOnUse" x1="195.812" y1="198.5" x2="195.812" y2="162"><stop offset="0" style="stop-color:#FCFCE4"></stop><stop offset="0.5" style="stop-color:#A0C8DD"></stop><stop offset="1" style="stop-color:#5D6EC5"></stop></linearGradient><path style="fill:url(#hair1XMLID_2498_);stroke:#1E1E1E;stroke-linecap:round;stroke-linejoin:round;" d="M207.623,164.374c0,0-10.05,6.386-9.38,9.065c0.67,2.681,1.34,10.051,1.34,10.051l-8.04,2.68l6.7,7.37l-8.04,9.38l-1.34,11.391c0,0-18.76-49.58,17.42-75.71"></path><linearGradient id="hair1XMLID_2499_" gradientUnits="userSpaceOnUse" x1="301.6719" y1="198.5" x2="301.6719" y2="162"><stop offset="0" style="stop-color:#FCFCE4"></stop><stop offset="0.5" style="stop-color:#A0C8DD"></stop><stop offset="1" style="stop-color:#5D6EC5"></stop></linearGradient><path style="fill:url(#hair1XMLID_2499_);stroke:#1E1E1E;stroke-linecap:round;stroke-linejoin:round;" d="M289.859,164.374c0,0,10.051,6.386,9.381,9.065c-0.67,2.681-1.341,10.051-1.341,10.051l8.04,2.68l-6.699,7.37l8.04,9.38l1.341,11.391c0,0,18.76-49.58-17.421-75.71"></path><g><linearGradient id="hair1XMLID_2500_" gradientUnits="userSpaceOnUse" x1="241.0659" y1="223.166" x2="241.0659" y2="156.1664"><stop offset="0" style="stop-color:#FCFCE4"></stop><stop offset="0.5" style="stop-color:#A0C8DD"></stop><stop offset="1" style="stop-color:#5D6EC5"></stop></linearGradient><path style="fill:url(#hair1XMLID_2500_);stroke:#1E1E1E;stroke-linecap:round;stroke-linejoin:round;" d="M277.973,142.62c4.02,6.03,10.05,32.159-12.061,64.319c0-9.379,0.671-17.42,0-21.439c-4.02,12.061-17.084,24.979-50.081,34.934c6.532-12.824,11.222-30.914,11.222-30.914s-12.729,23.451-26.8,27.471c14.74-22.11,18.761-66.33,22.11-75.04s23.329-14.74,30.819-14.74C265.912,127.21,273.952,136.59,277.973,142.62z"></path></g><linearGradient id="hair1XMLID_2501_" gradientUnits="userSpaceOnUse" x1="191.2324" y1="223.167" x2="191.2324" y2="156.1683"><stop offset="0" style="stop-color:#FCFCE4"></stop><stop offset="0.5" style="stop-color:#A0C8DD"></stop><stop offset="1" style="stop-color:#5D6EC5"></stop></linearGradient><path style="fill:url(#hair1XMLID_2501_);stroke:#1E1E1E;stroke-linecap:round;stroke-linejoin:round;" d="M189.867,214.311c0,0-3.35,56.279,9.381,77.719C186.518,280.641,175.798,244.46,189.867,214.311z"></path><linearGradient id="hair1XMLID_2502_" gradientUnits="userSpaceOnUse" x1="308.4844" y1="223.167" x2="308.4844" y2="156.1683"><stop offset="0" style="stop-color:#FCFCE4"></stop><stop offset="0.5" style="stop-color:#A0C8DD"></stop><stop offset="1" style="stop-color:#5D6EC5"></stop></linearGradient><path style="fill:url(#hair1XMLID_2502_);stroke:#1E1E1E;stroke-linecap:round;stroke-linejoin:round;" d="M309.85,214.311c0,0,3.351,56.279-9.381,77.719C313.2,280.641,323.92,244.46,309.85,214.311z"></path></g></g><g><g><path style="fill:#FFF0DE;" d="M170.173,181.536c0,0,5.852-11.712,8.195-12.295c2.342-0.585-0.816,19.084-4.1,18.149C171.196,186.513,169.001,184.318,170.173,181.536z"></path><path style="fill:#FFF0DE;" d="M178.286,186.217c0,0,0.45-7.659,2.929-9.365c2.478-1.707,1.757,11.708,0,11.708C179.458,188.56,178.286,189.145,178.286,186.217z"></path><path style="fill:#FFF0DE;" d="M330.161,181.536c0,0-5.853-11.712-8.195-12.295c-2.343-0.585,0.816,19.084,4.1,18.149C329.138,186.513,331.332,184.318,330.161,181.536z"></path><path style="fill:#FFF0DE;" d="M322.048,186.217c0,0-0.451-7.659-2.93-9.365c-2.478-1.707-1.756,11.708,0,11.708C320.876,188.56,322.048,189.145,322.048,186.217z"></path></g><path style="fill:#FFF0DE;" d="M239.911,185.97c0,0,0-11.417,2.635-14.489c2.631-3.074,6.058,14.753,3.074,16.245C242.984,189.044,239.911,189.044,239.911,185.97z"></path><path style="fill:#FFF0DE;" d="M249.573,185.97c-1.761-2.196,0-10.1,0.876-11.417c0.879-1.317,4.391,10.098,2.635,12.294C250.82,189.676,251.328,188.165,249.573,185.97z"></path></g></g></svg>