<svg xmlns="http://www.w3.org/2000/svg" width="500" height="500" version="1.1"><g id="x090"><g><linearGradient id="hair1XMLID_3127_" gradientUnits="userSpaceOnUse" x1="250.0005" y1="218.3335" x2="250.0005" y2="162.6665"><stop offset="0" style="stop-color:#FCFCE4"></stop><stop offset="0.5" style="stop-color:#A0C8DD"></stop><stop offset="1" style="stop-color:#5D6EC5"></stop></linearGradient><path style="fill:url(#hair1XMLID_3127_);stroke:#1E1E1E;stroke-linecap:round;stroke-linejoin:round;" d="M311.484,135.882c-17.021-17.418-41.603-23.852-61.484-20.131c-19.882-3.721-44.464,2.713-61.484,20.131c-13.061,13.365-22.283,30.165-22.283,51.08c0,24.372,15.268,44.372,25.934,48.538c-7.33-33.49-0.484-59.331,5.084-68.5c1.798-2.157,29.369-5.491,52.75-5.619c23.381,0.128,50.952,3.462,52.75,5.619c5.568,9.169,12.414,35.01,5.084,68.5c10.666-4.167,25.934-24.167,25.934-48.538C333.768,166.047,324.545,149.248,311.484,135.882z"></path><g><linearGradient id="hair1XMLID_3128_" gradientUnits="userSpaceOnUse" x1="312.5889" y1="218.3335" x2="312.5889" y2="162.6665"><stop offset="0" style="stop-color:#FCFCE4"></stop><stop offset="0.5" style="stop-color:#A0C8DD"></stop><stop offset="1" style="stop-color:#5D6EC5"></stop></linearGradient><path style="fill:url(#hair1XMLID_3128_);stroke:#1E1E1E;stroke-linecap:round;stroke-linejoin:round;" d="M324.983,204.029c0,0-4.689,22.11,21.105,32.496c-10.721-13.066-7.705-21.775-6.365-37.186c2.184-25.111-14.07-68.005-60.635-69.68"></path><linearGradient id="hair1XMLID_3129_" gradientUnits="userSpaceOnUse" x1="314.4365" y1="218.3335" x2="314.4365" y2="162.6664"><stop offset="0" style="stop-color:#FCFCE4"></stop><stop offset="0.5" style="stop-color:#A0C8DD"></stop><stop offset="1" style="stop-color:#5D6EC5"></stop></linearGradient><path style="fill:url(#hair1XMLID_3129_);stroke:#1E1E1E;stroke-linecap:round;stroke-linejoin:round;" d="M299.523,167.515c0,0,14.74,61.64,5.695,90.45s-5.695,43.215-5.695,43.215s7.035-9.045,16.415-10.721c1.34-15.074,1.34-25.459,8.375-46.229c8.466-24.993,10.385-71.354-15.745-90.785"></path><linearGradient id="hair1XMLID_3130_" gradientUnits="userSpaceOnUse" x1="292.4775" y1="218.3335" x2="292.4775" y2="162.6665"><stop offset="0" style="stop-color:#FCFCE4"></stop><stop offset="0.5" style="stop-color:#A0C8DD"></stop><stop offset="1" style="stop-color:#5D6EC5"></stop></linearGradient><path style="fill:url(#hair1XMLID_3130_);stroke:#1E1E1E;stroke-linecap:round;stroke-linejoin:round;" d="M270.379,162.155c0,0,33.5,27.134,38.859,69.679c5.695-13.064,12.396-48.909-12.395-72.694"></path><linearGradient id="hair1XMLID_3131_" gradientUnits="userSpaceOnUse" x1="179.2065" y1="218.3335" x2="179.2065" y2="162.6666"><stop offset="0" style="stop-color:#FCFCE4"></stop><stop offset="0.5" style="stop-color:#A0C8DD"></stop><stop offset="1" style="stop-color:#5D6EC5"></stop></linearGradient><path style="fill:url(#hair1XMLID_3131_);stroke:#1E1E1E;stroke-linecap:round;stroke-linejoin:round;" d="M191.318,270.359c0,0,3.016,28.475-23.115,37.186c10.386-19.43,9.045-40.535,4.355-56.615c-4.69-16.08-13.065-61.305,8.71-88.775"></path><linearGradient id="hair1XMLID_3132_" gradientUnits="userSpaceOnUse" x1="194.0288" y1="218.3335" x2="194.0288" y2="162.6665"><stop offset="0" style="stop-color:#FCFCE4"></stop><stop offset="0.5" style="stop-color:#A0C8DD"></stop><stop offset="1" style="stop-color:#5D6EC5"></stop></linearGradient><path style="fill:url(#hair1XMLID_3132_);stroke:#1E1E1E;stroke-linecap:round;stroke-linejoin:round;" d="M211.754,163.495c0,0-25.125,81.406,1.005,125.96c-8.375-2.346-11.391-4.691-11.391-4.691l-12.06-1.34c0,0-34.84-65.659,5.36-120.264"></path><g><linearGradient id="hair1XMLID_3133_" gradientUnits="userSpaceOnUse" x1="231.7622" y1="218.3335" x2="231.7622" y2="162.6665"><stop offset="0" style="stop-color:#FCFCE4"></stop><stop offset="0.5" style="stop-color:#A0C8DD"></stop><stop offset="1" style="stop-color:#5D6EC5"></stop></linearGradient><path style="fill:url(#hair1XMLID_3133_);stroke:#1E1E1E;stroke-linecap:round;stroke-linejoin:round;" d="M271.384,156.125c0,0,4.354,63.985-22.11,88.44l-9.38,1.676c0,0,6.03-16.416,3.685-24.791c-3.685,13.065-7.034,24.121-11.055,27.135c-1.675-2.68-11.39-0.334-11.39-0.334s2.01-13.735,1.005-18.76c-2.68,10.719-5.36,21.104-5.36,21.104l-9.38,2.681l-1.34,4.689l-10.72,3.35c0,0-15.41-67,18.76-102.51"></path><linearGradient id="hair1XMLID_3134_" gradientUnits="userSpaceOnUse" x1="209.2905" y1="218.3335" x2="209.2905" y2="162.6665"><stop offset="0" style="stop-color:#FCFCE4"></stop><stop offset="0.5" style="stop-color:#A0C8DD"></stop><stop offset="1" style="stop-color:#5D6EC5"></stop></linearGradient><path style="fill:url(#hair1XMLID_3134_);stroke:#1E1E1E;stroke-linecap:round;stroke-linejoin:round;" d="M206.729,255.955c0,0-4.355-24.455,6.03-57.285"></path></g><linearGradient id="hair1XMLID_3135_" gradientUnits="userSpaceOnUse" x1="179.8174" y1="218.3335" x2="179.8174" y2="162.6665"><stop offset="0" style="stop-color:#FCFCE4"></stop><stop offset="0.5" style="stop-color:#A0C8DD"></stop><stop offset="1" style="stop-color:#5D6EC5"></stop></linearGradient><path style="fill:url(#hair1XMLID_3135_);stroke:#1E1E1E;stroke-linecap:round;stroke-linejoin:round;" d="M205.724,140.044c0,0-50.92,21.44-48.575,117.92c-7.37-26.465-5.695-93.13,43.55-123.28"></path></g></g></g></svg>