<svg xmlns="http://www.w3.org/2000/svg" width="500" height="500" version="1.1"><g id="x091"><linearGradient id="hair1XMLID_3136_" gradientUnits="userSpaceOnUse" x1="250.0005" y1="218" x2="250.0005" y2="154"><stop offset="0" style="stop-color:#FCFCE4"></stop><stop offset="0.5" style="stop-color:#A0C8DD"></stop><stop offset="1" style="stop-color:#5D6EC5"></stop></linearGradient><path style="fill:url(#hair1XMLID_3136_);stroke:#1E1E1E;stroke-linecap:round;stroke-linejoin:round;" d="M343.844,195.768c-2.93,2.195-7.707,0.191-10.321-3.552c0.155-1.727,0.245-3.477,0.245-5.254c0-20.915-9.223-37.714-22.283-51.08c-6.729-6.886-14.643-12.049-22.978-15.552c-9.018-5.628-17.661-9.688-22.915-9.875c-11.665-0.415-14.778,2.661-15.144,3.077c-0.366-0.416-3.479-3.491-15.145-3.077c-4.937,0.176-12.864,3.764-21.284,8.864c-9.259,3.488-18.097,8.985-25.503,16.564c-12.823,13.122-21.924,29.564-22.252,49.951c-3.546,1.131-7.891,0.812-10.021-0.787c-0.894,5.36,5.36,9.828,9.38,8.488c-4.02,2.232-7.146,11.611-6.254,18.313c3.129-5.632,5.605-9.059,8.648-10.458c0.286,1.158,0.601,2.298,0.946,3.418c-4.204,7.973-5.742,24.104,2.913,33.839c-0.279-5.299,0.661-13.037,3.147-19.299c0.023,0.031,0.047,0.061,0.07,0.092l0.379-0.191c0.862,1.408,1.758,2.749,2.681,4.01c-0.044,5.228,1.203,10.247,3.036,14.119c0.932-2.019,1.804-4.613,2.648-7.582c2.857,2.729,5.729,4.69,8.328,5.705c-1.798-8.215-2.739-15.967-3.06-23.129l1.055-0.532c-0.089-3.104-0.085-6.035,0.061-8.849c2.145-8.713,4.557-16.672,7.652-21.07c2.596-3.671,5.771-6.979,9.377-9.91c26.596-7.393,86.124-3.057,89.114,0.529c5.749,9.47,10.733,32.432,14.588,38.201c-0.243,7.611-1.184,15.915-3.119,24.76c4.237-1.655,9.199-5.817,13.644-11.752c1.246,2.656,2.496,5.027,3.765,6.971c2.9-5.131,4.727-10.366,3.223-13.143c0.125-0.445,0.25-0.893,0.374-1.336c4.45-0.076,7.273,1.365,10.089,4.986c0.893-6.699-2.68-15.188-6.699-17.42C336.248,205.146,340.716,203.807,343.844,195.768z"></path><g><linearGradient id="hair1XMLID_3137_" gradientUnits="userSpaceOnUse" x1="316.8174" y1="218" x2="316.8174" y2="154"><stop offset="0" style="stop-color:#FCFCE4"></stop><stop offset="0.5" style="stop-color:#A0C8DD"></stop><stop offset="1" style="stop-color:#5D6EC5"></stop></linearGradient><path style="fill:url(#hair1XMLID_3137_);stroke:#1E1E1E;stroke-linecap:round;stroke-linejoin:round;" d="M305.408,187.279c0,0-2.345,22.78-8.04,36.851c-3.816,9.429-7.034,31.489,17.085,36.515c-9.38-10.72-10.385-21.775-8.375-27.47c0,0,2.681,26.465,29.146,13.065c-12.73-5.025-14.74-13.065-14.74-13.065s10.385,8.04,18.425-3.015c-7.035-1.676-20.435-9.715-18.09-26.465"></path><linearGradient id="hair1XMLID_3138_" gradientUnits="userSpaceOnUse" x1="319.6426" y1="218" x2="319.6426" y2="154.0002"><stop offset="0" style="stop-color:#FCFCE4"></stop><stop offset="0.5" style="stop-color:#A0C8DD"></stop><stop offset="1" style="stop-color:#5D6EC5"></stop></linearGradient><path style="fill:url(#hair1XMLID_3138_);stroke:#1E1E1E;stroke-linecap:round;stroke-linejoin:round;" d="M302.059,169.859c0,0-1.34,41.875,35.175,44.555c-14.069-10.719-24.455-33.164-21.774-51.924"></path><linearGradient id="hair1XMLID_3139_" gradientUnits="userSpaceOnUse" x1="294.4023" y1="218" x2="294.4023" y2="154.0002"><stop offset="0" style="stop-color:#FCFCE4"></stop><stop offset="0.5" style="stop-color:#A0C8DD"></stop><stop offset="1" style="stop-color:#5D6EC5"></stop></linearGradient><path style="fill:url(#hair1XMLID_3139_);stroke:#1E1E1E;stroke-linecap:round;stroke-linejoin:round;" d="M279.948,163.495c0,0,21.775,17.755,19.096,54.605c11.39-15.745,15.409-44.555-2.011-58.96"></path><linearGradient id="hair1XMLID_3140_" gradientUnits="userSpaceOnUse" x1="179.4824" y1="218" x2="179.4824" y2="153.9999"><stop offset="0" style="stop-color:#FCFCE4"></stop><stop offset="0.5" style="stop-color:#A0C8DD"></stop><stop offset="1" style="stop-color:#5D6EC5"></stop></linearGradient><path style="fill:url(#hair1XMLID_3140_);stroke:#1E1E1E;stroke-linecap:round;stroke-linejoin:round;" d="M197.54,205.369c0,0-14.405,32.16,0.334,45.561c-11.39-3.686-15.409-10.721-16.079-22.779c0,0-3.351,23.449,12.395,31.824c-15.075,2.01-47.235-9.38-26.13-58.29"></path><linearGradient id="hair1XMLID_3141_" gradientUnits="userSpaceOnUse" x1="267.6074" y1="218" x2="267.6074" y2="154.0002"><stop offset="0" style="stop-color:#FCFCE4"></stop><stop offset="0.5" style="stop-color:#A0C8DD"></stop><stop offset="1" style="stop-color:#5D6EC5"></stop></linearGradient><path style="fill:url(#hair1XMLID_3141_);stroke:#1E1E1E;stroke-linecap:round;stroke-linejoin:round;" d="M249.799,166.51c0,0,21.104,23.785,10.719,51.255c14.74-4.021,36.515-19.765,17.42-57.62"></path><linearGradient id="hair1XMLID_3142_" gradientUnits="userSpaceOnUse" x1="217.353" y1="218" x2="217.353" y2="153.9998"><stop offset="0" style="stop-color:#FCFCE4"></stop><stop offset="0.5" style="stop-color:#A0C8DD"></stop><stop offset="1" style="stop-color:#5D6EC5"></stop></linearGradient><path style="fill:url(#hair1XMLID_3142_);stroke:#1E1E1E;stroke-linecap:round;stroke-linejoin:round;" d="M193.519,159.475c0,0-20.771,23.45-9.045,53.266c17.085,0,62.31-19.431,62.31-19.431s2.011-19.765,7.035-28.81"></path><linearGradient id="hair1XMLID_3143_" gradientUnits="userSpaceOnUse" x1="239.6499" y1="218" x2="239.6499" y2="154.0003"><stop offset="0" style="stop-color:#FCFCE4"></stop><stop offset="0.5" style="stop-color:#A0C8DD"></stop><stop offset="1" style="stop-color:#5D6EC5"></stop></linearGradient><path style="fill:url(#hair1XMLID_3143_);stroke:#1E1E1E;stroke-linecap:round;stroke-linejoin:round;" d="M252.144,168.185c0,0-11.389,33.835,8.71,52.595c-10.719-0.334-22.445-1.675-22.445-19.43c-0.67,8.04-1.675,15.075,4.355,21.439c-19.095-2.344-31.155-20.435-20.1-39.194"></path><linearGradient id="hair1XMLID_3144_" gradientUnits="userSpaceOnUse" x1="202.7314" y1="218" x2="202.7314" y2="154.0002"><stop offset="0" style="stop-color:#FCFCE4"></stop><stop offset="0.5" style="stop-color:#A0C8DD"></stop><stop offset="1" style="stop-color:#5D6EC5"></stop></linearGradient><path style="fill:url(#hair1XMLID_3144_);stroke:#1E1E1E;stroke-linecap:round;stroke-linejoin:round;" d="M242.429,179.24c0,0-13.735,44.89-62.98,32.16c12.396-2.011,19.431-11.726,19.431-11.726s-27.806-0.335-35.846-14.07c18.09,6.7,46.9-2.01,50.92-27.135"></path></g></g></svg>