<svg xmlns="http://www.w3.org/2000/svg" width="500" height="500" version="1.1"><g id="x092"><g><linearGradient id="hair1XMLID_3145_" gradientUnits="userSpaceOnUse" x1="250.0005" y1="221.3335" x2="250.0005" y2="153.3335"><stop offset="0" style="stop-color:#FCFCE4"></stop><stop offset="0.5" style="stop-color:#A0C8DD"></stop><stop offset="1" style="stop-color:#5D6EC5"></stop></linearGradient><path style="fill:url(#hair1XMLID_3145_);stroke:#1E1E1E;stroke-linecap:round;stroke-linejoin:round;" d="M311.484,135.882c-17.021-17.418-41.603-23.852-61.484-20.131c-19.882-3.721-44.464,2.713-61.484,20.131c-13.061,13.365-22.283,30.165-22.283,51.08c0,24.372,15.268,44.372,25.934,48.538c-7.33-33.49-0.484-59.331,5.084-68.5c1.798-2.157,29.369-5.491,52.75-5.619c23.381,0.128,50.952,3.462,52.75,5.619c5.568,9.169,12.414,35.01,5.084,68.5c10.666-4.167,25.934-24.167,25.934-48.538C333.768,166.047,324.545,149.248,311.484,135.882z"></path><g><linearGradient id="hair1XMLID_3146_" gradientUnits="userSpaceOnUse" x1="314.4258" y1="221.3335" x2="314.4258" y2="153.3335"><stop offset="0" style="stop-color:#FCFCE4"></stop><stop offset="0.5" style="stop-color:#A0C8DD"></stop><stop offset="1" style="stop-color:#5D6EC5"></stop></linearGradient><path style="fill:url(#hair1XMLID_3146_);stroke:#1E1E1E;stroke-linecap:round;stroke-linejoin:round;" d="M298.023,163.227c0,0,28.14,53.263,16.079,104.516c18.089-31.154,23.114-76.377,7.035-110.545"></path><linearGradient id="hair1XMLID_3147_" gradientUnits="userSpaceOnUse" x1="293.584" y1="221.3335" x2="293.584" y2="153.3335"><stop offset="0" style="stop-color:#FCFCE4"></stop><stop offset="0.5" style="stop-color:#A0C8DD"></stop><stop offset="1" style="stop-color:#5D6EC5"></stop></linearGradient><path style="fill:url(#hair1XMLID_3147_);stroke:#1E1E1E;stroke-linecap:round;stroke-linejoin:round;" d="M289.648,155.857c0,0,11.055,40.198-6.029,73.362c18.09-19.094,23.113-44.219,18.089-66.327"></path><g><linearGradient id="hair1XMLID_3148_" gradientUnits="userSpaceOnUse" x1="227.4243" y1="221.3335" x2="227.4243" y2="153.3335"><stop offset="0" style="stop-color:#FCFCE4"></stop><stop offset="0.5" style="stop-color:#A0C8DD"></stop><stop offset="1" style="stop-color:#5D6EC5"></stop></linearGradient><path style="fill:url(#hair1XMLID_3148_);stroke:#1E1E1E;stroke-linecap:round;stroke-linejoin:round;" d="M226.915,136.499c-37.764,10.837-75.681,44.082-66.301,124.481c2.681-29.479,21.33-71.911,33.002-85.126c-23.621,44.926-19.602,73.066-6.871,102.547c-2.011-32.158,18.488-73.301,31.553-90.385c-16.079,21.104-30.213,61.576-18.153,97.754c5.025-38.188,14.133-49.517,49.307-69.615c35.174-20.1,46.228-67.332,46.228-67.332"></path></g></g></g></g></svg>