<svg xmlns="http://www.w3.org/2000/svg" width="500" height="500" version="1.1"><g id="x093"><g><g><linearGradient id="hair1XMLID_3149_" gradientUnits="userSpaceOnUse" x1="250.0503" y1="231.6665" x2="250.0503" y2="167.3336"><stop offset="0" style="stop-color:#FCFCE4"></stop><stop offset="0.5" style="stop-color:#A0C8DD"></stop><stop offset="1" style="stop-color:#5D6EC5"></stop></linearGradient><path style="fill:url(#hair1XMLID_3149_);stroke:#1E1E1E;stroke-linecap:round;stroke-linejoin:round;" d="M311.534,135.882c-17.021-17.418-41.603-23.852-61.484-20.131c-19.882-3.721-44.464,2.713-61.484,20.131c-13.061,13.365-22.283,30.165-22.283,51.08c0,24.372,15.268,44.372,25.934,48.538c-7.33-33.49-0.484-59.331,5.084-68.5c1.798-2.157,29.369-5.491,52.75-5.619c23.381,0.128,50.952,3.462,52.75,5.619c5.568,9.169,12.414,35.01,5.084,68.5c10.666-4.167,25.934-24.167,25.934-48.538C333.817,166.047,324.595,149.248,311.534,135.882z"></path><g><linearGradient id="hair1XMLID_3150_" gradientUnits="userSpaceOnUse" x1="172.1001" y1="231.6665" x2="172.1001" y2="167.3335"><stop offset="0" style="stop-color:#FCFCE4"></stop><stop offset="0.5" style="stop-color:#A0C8DD"></stop><stop offset="1" style="stop-color:#5D6EC5"></stop></linearGradient><path style="fill:url(#hair1XMLID_3150_);stroke:#1E1E1E;stroke-linecap:round;stroke-linejoin:round;" d="M168.35,170c0,0-7,23.5-5.5,36.5s4.5,38.5-6,47.5c13-1.5,27-12.5,30.5-34"></path><linearGradient id="hair1XMLID_3151_" gradientUnits="userSpaceOnUse" x1="327.9014" y1="231.6665" x2="327.9014" y2="167.3335"><stop offset="0" style="stop-color:#FCFCE4"></stop><stop offset="0.5" style="stop-color:#A0C8DD"></stop><stop offset="1" style="stop-color:#5D6EC5"></stop></linearGradient><path style="fill:url(#hair1XMLID_3151_);stroke:#1E1E1E;stroke-linecap:round;stroke-linejoin:round;" d="M331.651,170c0,0,7,23.5,5.5,36.5s-4.5,38.5,6,47.5c-13-1.5-27-12.5-30.5-34"></path></g></g><g><g><g><linearGradient id="hair1XMLID_3152_" gradientUnits="userSpaceOnUse" x1="250.8618" y1="231.6665" x2="250.8618" y2="167.3335"><stop offset="0" style="stop-color:#FCFCE4"></stop><stop offset="0.5" style="stop-color:#A0C8DD"></stop><stop offset="1" style="stop-color:#5D6EC5"></stop></linearGradient><path style="fill:url(#hair1XMLID_3152_);stroke:#1E1E1E;stroke-linecap:round;stroke-linejoin:round;" d="M287.276,136.59c24.352,9.741,34.504,35.845,36.85,52.595c2.805,20.042-7.035,44.89-16.75,56.279c-0.67-35.957-18.09-76.045-18.09-76.045l-9.713-0.053l-6.367,3.738l-2.344-3.787l-5.025,3.117l-2.682-3.351l-5.023,3.685l-29.814-3.685c0,0-9.605,2.355-27.694,33.61c-1.963,3.392-6.477,23.452-6.477,35.064c-17.156-18.532-17.709-47.801-16.751-52.595c6.7-33.5,31.283-45.531,41.206-48.575"></path><linearGradient id="hair1XMLID_3153_" gradientUnits="userSpaceOnUse" x1="306.7451" y1="231.6665" x2="306.7451" y2="167.3334"><stop offset="0" style="stop-color:#FCFCE4"></stop><stop offset="0.5" style="stop-color:#A0C8DD"></stop><stop offset="1" style="stop-color:#5D6EC5"></stop></linearGradient><path style="fill:url(#hair1XMLID_3153_);stroke:#1E1E1E;stroke-linecap:round;stroke-linejoin:round;" d="M299.337,196.221c0,0,8.709,27.805,0,45.895c8.709-7.035,16.75-17.42,14.404-41.205"></path><linearGradient id="hair1XMLID_3154_" gradientUnits="userSpaceOnUse" x1="289.2861" y1="231.6665" x2="289.2861" y2="167.3336"><stop offset="0" style="stop-color:#FCFCE4"></stop><stop offset="0.5" style="stop-color:#A0C8DD"></stop><stop offset="1" style="stop-color:#5D6EC5"></stop></linearGradient><path style="fill:url(#hair1XMLID_3154_);stroke:#1E1E1E;stroke-linecap:round;stroke-linejoin:round;" d="M296.991,185.5c2.68,12.395,1.004,15.745-2.68,27.805c-3.35-22.779-21.105-48.574-21.105-48.574s3.35-7.705,5.025-8.04c1.674-0.335,5.359-4.02,9.379-3.015c4.021,1.005,13.066,7.705,17.756,26.129"></path></g></g><linearGradient id="hair1XMLID_3155_" gradientUnits="userSpaceOnUse" x1="213.8066" y1="231.6665" x2="213.8066" y2="167.3337"><stop offset="0" style="stop-color:#FCFCE4"></stop><stop offset="0.5" style="stop-color:#A0C8DD"></stop><stop offset="1" style="stop-color:#5D6EC5"></stop></linearGradient><path style="fill:url(#hair1XMLID_3155_);stroke:#1E1E1E;stroke-linecap:round;stroke-linejoin:round;" d="M230.328,167.075c0,0-14.405,19.43-14.405,39.194c-1.708-3.292-3.005-8.645-3.395-15.085c-3.118,9.406-6.657,24.075-3.976,36.86c-10.05-14.74-15.41-38.189-7.37-54.605"></path><linearGradient id="hair1XMLID_3156_" gradientUnits="userSpaceOnUse" x1="235.4961" y1="231.6665" x2="235.4961" y2="167.3334"><stop offset="0" style="stop-color:#FCFCE4"></stop><stop offset="0.5" style="stop-color:#A0C8DD"></stop><stop offset="1" style="stop-color:#5D6EC5"></stop></linearGradient><path style="fill:url(#hair1XMLID_3156_);stroke:#1E1E1E;stroke-linecap:round;stroke-linejoin:round;" d="M249.756,163.725c0,0-19.764,17.085-26.464,37.185c-4.355-8.04-2.345-30.82,11.39-45.56"></path><linearGradient id="hair1XMLID_3157_" gradientUnits="userSpaceOnUse" x1="254.9375" y1="231.6665" x2="254.9375" y2="167.3336"><stop offset="0" style="stop-color:#FCFCE4"></stop><stop offset="0.5" style="stop-color:#A0C8DD"></stop><stop offset="1" style="stop-color:#5D6EC5"></stop></linearGradient><path style="fill:url(#hair1XMLID_3157_);stroke:#1E1E1E;stroke-linecap:round;stroke-linejoin:round;" d="M270.86,164.73c0,0-6.029-8.71-7.705-9.38c-1.674-0.67-12.059-0.335-14.068,0.67c-2.01,1.005-14.07,23.784-8.71,43.55c2.68-9.045,9.045-27.805,23.114-37.855"></path></g></g></g></svg>