<svg xmlns="http://www.w3.org/2000/svg" width="500" height="500" version="1.1"><g id="x094"><g><linearGradient id="hair1XMLID_3158_" gradientUnits="userSpaceOnUse" x1="250.0503" y1="201.6665" x2="250.0503" y2="153.6666"><stop offset="0" style="stop-color:#FCFCE4"></stop><stop offset="0.5" style="stop-color:#A0C8DD"></stop><stop offset="1" style="stop-color:#5D6EC5"></stop></linearGradient><path style="fill:url(#hair1XMLID_3158_);stroke:#1E1E1E;stroke-linecap:round;stroke-linejoin:round;" d="M311.534,135.882c-17.021-17.418-41.603-23.852-61.484-20.131c-19.882-3.721-44.464,2.713-61.484,20.131c-13.061,13.365-22.283,30.165-22.283,51.08c0,24.372,15.268,44.372,25.934,48.538c-7.33-33.49-0.484-59.331,5.084-68.5c1.798-2.157,29.369-5.491,52.75-5.619c23.381,0.128,50.952,3.462,52.75,5.619c5.568,9.169,12.414,35.01,5.084,68.5c10.666-4.167,25.934-24.167,25.934-48.538C333.817,166.047,324.595,149.248,311.534,135.882z"></path><g><linearGradient id="hair1XMLID_3159_" gradientUnits="userSpaceOnUse" x1="298.7734" y1="201.6665" x2="298.7734" y2="153.6665"><stop offset="0" style="stop-color:#FCFCE4"></stop><stop offset="0.5" style="stop-color:#A0C8DD"></stop><stop offset="1" style="stop-color:#5D6EC5"></stop></linearGradient><path style="fill:url(#hair1XMLID_3159_);stroke:#1E1E1E;stroke-linecap:round;stroke-linejoin:round;" d="M283.232,163.495c0,0,20.789,25.355,30.171,49.81c1.675-3.685,2.01-43.215-7.706-56.279"></path><linearGradient id="hair1XMLID_3160_" gradientUnits="userSpaceOnUse" x1="235.5537" y1="201.6665" x2="235.5537" y2="153.6665"><stop offset="0" style="stop-color:#FCFCE4"></stop><stop offset="0.5" style="stop-color:#A0C8DD"></stop><stop offset="1" style="stop-color:#5D6EC5"></stop></linearGradient><path style="fill:url(#hair1XMLID_3160_);stroke:#1E1E1E;stroke-linecap:round;stroke-linejoin:round;" d="M289.952,156.021c0,0-7.035,17.755-29.146,20.435c-5.359,9.715-36.869,14.51-41.225,10.824c-16.771,7.141-17.085,10.051-36.829,14.636c-5.694-18.761,4.355-52.26,21.775-61.305"></path><linearGradient id="hair1XMLID_3161_" gradientUnits="userSpaceOnUse" x1="198.5532" y1="201.6665" x2="198.5532" y2="153.6664"><stop offset="0" style="stop-color:#FCFCE4"></stop><stop offset="0.5" style="stop-color:#A0C8DD"></stop><stop offset="1" style="stop-color:#5D6EC5"></stop></linearGradient><path style="fill:url(#hair1XMLID_3161_);stroke:#1E1E1E;stroke-linecap:round;stroke-linejoin:round;" d="M214.243,189.52c0,0-24.79,15.41-28.475,28.476c-4.021-7.37-4.69-26.466,3.35-37.185"></path></g></g></g></svg>