<svg xmlns="http://www.w3.org/2000/svg" width="500" height="500" version="1.1"><g id="x095"><g><linearGradient id="hair1XMLID_3162_" gradientUnits="userSpaceOnUse" x1="250.0503" y1="209.6665" x2="250.0503" y2="160.3336"><stop offset="0" style="stop-color:#FCFCE4"></stop><stop offset="0.5" style="stop-color:#A0C8DD"></stop><stop offset="1" style="stop-color:#5D6EC5"></stop></linearGradient><path style="fill:url(#hair1XMLID_3162_);stroke:#1E1E1E;stroke-linecap:round;stroke-linejoin:round;" d="M311.534,135.882c-17.021-17.418-41.603-23.852-61.484-20.131c-19.882-3.721-44.464,2.713-61.484,20.131c-13.061,13.365-22.283,30.165-22.283,51.08c0,24.372,15.268,44.372,25.934,48.538c-7.33-33.49-0.484-59.331,5.084-68.5c1.798-2.157,29.369-5.491,52.75-5.619c23.381,0.128,50.952,3.462,52.75,5.619c5.568,9.169,12.414,35.01,5.084,68.5c10.666-4.167,25.934-24.167,25.934-48.538C333.817,166.047,324.595,149.248,311.534,135.882z"></path><g><g><linearGradient id="hair1XMLID_3163_" gradientUnits="userSpaceOnUse" x1="298.8867" y1="209.271" x2="298.8867" y2="160.2857"><stop offset="0" style="stop-color:#FCFCE4"></stop><stop offset="0.5" style="stop-color:#A0C8DD"></stop><stop offset="1" style="stop-color:#5D6EC5"></stop></linearGradient><path style="fill:url(#hair1XMLID_3163_);stroke:#1E1E1E;stroke-linecap:round;stroke-linejoin:round;" d="M281,163.667c0,0,25.344,51.083,19.76,77.212c3.573,0.224,5.74-0.379,5.74-0.379s23.069-46.521,0.066-86.944"></path><linearGradient id="hair1XMLID_3164_" gradientUnits="userSpaceOnUse" x1="303.5234" y1="209.6665" x2="303.5234" y2="160.3335"><stop offset="0" style="stop-color:#FCFCE4"></stop><stop offset="0.5" style="stop-color:#A0C8DD"></stop><stop offset="1" style="stop-color:#5D6EC5"></stop></linearGradient><path style="fill:url(#hair1XMLID_3164_);stroke:#1E1E1E;stroke-linecap:round;stroke-linejoin:round;" d="M303.854,202.822c-0.104,1.336-0.007,36.963-11.472,54.882c9.783-1.921,19.76-17.716,22.282-44.177"></path><linearGradient id="hair1XMLID_3165_" gradientUnits="userSpaceOnUse" x1="228.7832" y1="209.6665" x2="228.7832" y2="160.3335"><stop offset="0" style="stop-color:#FCFCE4"></stop><stop offset="0.5" style="stop-color:#A0C8DD"></stop><stop offset="1" style="stop-color:#5D6EC5"></stop></linearGradient><path style="fill:url(#hair1XMLID_3165_);stroke:#1E1E1E;stroke-linecap:round;stroke-linejoin:round;" d="M279.096,159.81c0,0-63.426,14.74-99.027,42.105c-5.694-18.761,4.355-52.26,21.775-61.305"></path><linearGradient id="hair1XMLID_3166_" gradientUnits="userSpaceOnUse" x1="195.8687" y1="209.6665" x2="195.8687" y2="160.3334"><stop offset="0" style="stop-color:#FCFCE4"></stop><stop offset="0.5" style="stop-color:#A0C8DD"></stop><stop offset="1" style="stop-color:#5D6EC5"></stop></linearGradient><path style="fill:url(#hair1XMLID_3166_);stroke:#1E1E1E;stroke-linecap:round;stroke-linejoin:round;" d="M211.559,189.52c0,0-24.79,15.41-28.475,28.476c-4.021-7.37-4.69-26.466,3.35-37.185"></path></g></g><g><linearGradient id="hair1XMLID_3167_" gradientUnits="userSpaceOnUse" x1="228.5112" y1="209.6665" x2="228.5112" y2="160.3335"><stop offset="0" style="stop-color:#FCFCE4"></stop><stop offset="0.5" style="stop-color:#A0C8DD"></stop><stop offset="1" style="stop-color:#5D6EC5"></stop></linearGradient><path style="fill:url(#hair1XMLID_3167_);stroke:#1E1E1E;stroke-linecap:round;stroke-linejoin:round;" d="M282.67,154.003c0,0,2.903,25.907-17.867,57.731c-4.02,0.447-8.71,1.006-8.71,1.006s1.117,1.785,3.127-10.944c-4.913,7.593-8.264,9.157-11.837,11.167c-8.71,1.563-27.47,3.797-28.14,3.797c-1.675-14.74,4.02-36.181,5.359-39.754c-8.263,14.293-12.729,34.394-12.729,40.87c-4.467,0.894-11.391,4.69-18.09,3.797c-6.254-14.517,0-43.772,6.699-57.843c-16.973,22.333-8.486,71.243-8.71,71.913c-20.546-10.049-29.256-62.531,8.935-94.916"></path><path style="fill:none;stroke:#1E1E1E;stroke-linecap:round;stroke-linejoin:round;" d="M256.259,205.354c0,0,9.884-14.389,14.239-41.859"></path></g></g></g></svg>