<svg xmlns="http://www.w3.org/2000/svg" width="500" height="500" version="1.1"><g id="x096"><g><linearGradient id="hair1XMLID_3168_" gradientUnits="userSpaceOnUse" x1="250.0503" y1="219" x2="250.0503" y2="154.6664"><stop offset="0" style="stop-color:#FCFCE4"></stop><stop offset="0.5" style="stop-color:#A0C8DD"></stop><stop offset="1" style="stop-color:#5D6EC5"></stop></linearGradient><path style="fill:url(#hair1XMLID_3168_);stroke:#1E1E1E;stroke-linecap:round;stroke-linejoin:round;" d="M311.534,135.882c-17.021-17.418-41.603-23.852-61.484-20.131c-19.882-3.721-44.464,2.713-61.484,20.131c-13.061,13.365-22.283,30.165-22.283,51.08c0,24.372,15.268,44.372,25.934,48.538c-7.33-33.49-0.484-59.331,5.084-68.5c1.798-2.157,29.369-5.491,52.75-5.619c23.381,0.128,50.952,3.462,52.75,5.619c5.568,9.169,12.414,35.01,5.084,68.5c10.666-4.167,25.934-24.167,25.934-48.538C333.817,166.047,324.595,149.248,311.534,135.882z"></path><linearGradient id="hair1XMLID_3169_" gradientUnits="userSpaceOnUse" x1="217.0552" y1="219" x2="217.0552" y2="154.6665"><stop offset="0" style="stop-color:#FCFCE4"></stop><stop offset="0.5" style="stop-color:#A0C8DD"></stop><stop offset="1" style="stop-color:#5D6EC5"></stop></linearGradient><path style="fill:url(#hair1XMLID_3169_);stroke:#1E1E1E;stroke-linecap:round;stroke-linejoin:round;" d="M250,151.435c0,0,0,47.905-35.845,64.32c10.385-12.729,17.085-32.495,17.085-32.495s-18.09,30.15-45.896,35.845c-2.68-25.46-2.345-42.545,15.075-64.99"></path><g><linearGradient id="hair1XMLID_3170_" gradientUnits="userSpaceOnUse" x1="175.7974" y1="219" x2="175.7974" y2="154.6665"><stop offset="0" style="stop-color:#FCFCE4"></stop><stop offset="0.5" style="stop-color:#A0C8DD"></stop><stop offset="1" style="stop-color:#5D6EC5"></stop></linearGradient><path style="fill:url(#hair1XMLID_3170_);stroke:#1E1E1E;stroke-linecap:round;stroke-linejoin:round;" d="M169.936,169.859c0,1.34-15.075,34.17-29.48,35.846c7.024,1.09,13.299,0.205,18.454-1.363c-4.98,8.187-11.257,15.872-18.119,18.113c8.375,10.72,24.491,13.734,25.46,13.734c1.005,0-6.7,2.346-16.08,7.035c12.061-0.67,32.495,8.71,33.5,8.71l-5.128-17.372c6.041,8.498,13.762,14.603,21.543,17.372c-25.795-51.925,11.055-106.53,11.055-106.53"></path><linearGradient id="hair1XMLID_3171_" gradientUnits="userSpaceOnUse" x1="180.6919" y1="219" x2="180.6919" y2="154.6665"><stop offset="0" style="stop-color:#FCFCE4"></stop><stop offset="0.5" style="stop-color:#A0C8DD"></stop><stop offset="1" style="stop-color:#5D6EC5"></stop></linearGradient><path style="fill:url(#hair1XMLID_3171_);stroke:#1E1E1E;stroke-linecap:round;stroke-linejoin:round;" d="M174.29,186.275c0,0-20.1,50.25,18.09,71.02c-14.069-16.08-10.72-40.87-10.72-40.87"></path></g><linearGradient id="hair1XMLID_3172_" gradientUnits="userSpaceOnUse" x1="282.9443" y1="219" x2="282.9443" y2="154.6665"><stop offset="0" style="stop-color:#FCFCE4"></stop><stop offset="0.5" style="stop-color:#A0C8DD"></stop><stop offset="1" style="stop-color:#5D6EC5"></stop></linearGradient><path style="fill:url(#hair1XMLID_3172_);stroke:#1E1E1E;stroke-linecap:round;stroke-linejoin:round;" d="M250,151.435c0,0,0,47.905,35.845,64.32c-10.385-12.729-17.085-32.495-17.085-32.495s18.09,30.15,45.896,35.845c2.68-25.46,2.345-42.545-15.075-64.99"></path><g><linearGradient id="hair1XMLID_3173_" gradientUnits="userSpaceOnUse" x1="324.2031" y1="219" x2="324.2031" y2="154.6665"><stop offset="0" style="stop-color:#FCFCE4"></stop><stop offset="0.5" style="stop-color:#A0C8DD"></stop><stop offset="1" style="stop-color:#5D6EC5"></stop></linearGradient><path style="fill:url(#hair1XMLID_3173_);stroke:#1E1E1E;stroke-linecap:round;stroke-linejoin:round;" d="M330.065,169.859c0,1.34,15.074,34.17,29.479,35.846c-7.024,1.09-13.299,0.205-18.454-1.363c4.981,8.187,11.257,15.872,18.119,18.113c-8.375,10.72-24.491,13.734-25.46,13.734c-1.005,0,6.7,2.346,16.08,7.035c-12.06-0.67-32.495,8.71-33.5,8.71l5.128-17.372c-6.041,8.498-13.762,14.603-21.543,17.372c25.795-51.925-11.055-106.53-11.055-106.53"></path></g><linearGradient id="hair1XMLID_3174_" gradientUnits="userSpaceOnUse" x1="309.4629" y1="219" x2="309.4629" y2="154.6665"><stop offset="0" style="stop-color:#FCFCE4"></stop><stop offset="0.5" style="stop-color:#A0C8DD"></stop><stop offset="1" style="stop-color:#5D6EC5"></stop></linearGradient><path style="fill:url(#hair1XMLID_3174_);stroke:#1E1E1E;stroke-linecap:round;stroke-linejoin:round;" d="M309.295,210.729c0,0-1.005,38.19-17.085,47.235c15.41,2.345,28.476-8.711,34.505-20.77"></path></g></g></svg>