<svg xmlns="http://www.w3.org/2000/svg" width="500" height="500" version="1.1"><g id="x097"><g><g><linearGradient id="hair1XMLID_3175_" gradientUnits="userSpaceOnUse" x1="250.0503" y1="217.3335" x2="250.0503" y2="156"><stop offset="0" style="stop-color:#FCFCE4"></stop><stop offset="0.5" style="stop-color:#A0C8DD"></stop><stop offset="1" style="stop-color:#5D6EC5"></stop></linearGradient><path style="fill:url(#hair1XMLID_3175_);stroke:#1E1E1E;stroke-linecap:round;stroke-linejoin:round;" d="M311.534,135.882c-17.021-17.418-41.603-23.852-61.484-20.131c-19.882-3.721-44.464,2.713-61.484,20.131c-13.061,13.365-22.283,30.165-22.283,51.08c0,24.372,15.268,44.372,25.934,48.538c-7.33-33.49-0.484-59.331,5.084-68.5c1.798-2.157,29.369-5.491,52.75-5.619c23.381,0.128,50.952,3.462,52.75,5.619c5.568,9.169,12.414,35.01,5.084,68.5c10.666-4.167,25.934-24.167,25.934-48.538C333.817,166.047,324.595,149.248,311.534,135.882z"></path><linearGradient id="hair1XMLID_3176_" gradientUnits="userSpaceOnUse" x1="341.1191" y1="217.3335" x2="341.1191" y2="156"><stop offset="0" style="stop-color:#FCFCE4"></stop><stop offset="0.5" style="stop-color:#A0C8DD"></stop><stop offset="1" style="stop-color:#5D6EC5"></stop></linearGradient><path style="fill:url(#hair1XMLID_3176_);stroke:#1E1E1E;stroke-linecap:round;stroke-linejoin:round;" d="M334.667,196.883c0,0,6.252,1.787,11.166,10.273s13.847,33.5,1.787,51.813c-4.913-22.779-8.734-18.916-14.293-27.693C324.84,217.876,329.307,195.988,334.667,196.883z"></path><linearGradient id="hair1XMLID_3177_" gradientUnits="userSpaceOnUse" x1="158.8804" y1="217.3335" x2="158.8804" y2="156"><stop offset="0" style="stop-color:#FCFCE4"></stop><stop offset="0.5" style="stop-color:#A0C8DD"></stop><stop offset="1" style="stop-color:#5D6EC5"></stop></linearGradient><path style="fill:url(#hair1XMLID_3177_);stroke:#1E1E1E;stroke-linecap:round;stroke-linejoin:round;" d="M165.333,196.883c0,0-6.252,1.787-11.166,10.273c-4.913,8.486-13.847,33.5-1.787,51.813c4.913-22.779,8.734-18.916,14.294-27.693C175.16,217.876,170.693,195.988,165.333,196.883z"></path></g><linearGradient id="hair1XMLID_3178_" gradientUnits="userSpaceOnUse" x1="186.4253" y1="217.3335" x2="186.4253" y2="156"><stop offset="0" style="stop-color:#FCFCE4"></stop><stop offset="0.5" style="stop-color:#A0C8DD"></stop><stop offset="1" style="stop-color:#5D6EC5"></stop></linearGradient><path style="fill:url(#hair1XMLID_3178_);stroke:#1E1E1E;stroke-linecap:round;stroke-linejoin:round;" d="M190.952,191.97c-0.671,1.005-3.351,48.239,10.05,63.649c-18.425-3.35-29.48-26.465-29.146-43.885"></path><g><linearGradient id="hair1XMLID_3179_" gradientUnits="userSpaceOnUse" x1="176.5425" y1="217.3335" x2="176.5425" y2="156"><stop offset="0" style="stop-color:#FCFCE4"></stop><stop offset="0.5" style="stop-color:#A0C8DD"></stop><stop offset="1" style="stop-color:#5D6EC5"></stop></linearGradient><path style="fill:url(#hair1XMLID_3179_);stroke:#1E1E1E;stroke-linecap:round;stroke-linejoin:round;" d="M187.937,148.419c0,0-42.21,43.215-30.149,85.09c3.685-16.75,12.126-28.414,26.8-42.545c5.357-5.159,9.569-10.111,12.878-14.633"></path><linearGradient id="hair1XMLID_3180_" gradientUnits="userSpaceOnUse" x1="227.7622" y1="217.3335" x2="227.7622" y2="155.9998"><stop offset="0" style="stop-color:#FCFCE4"></stop><stop offset="0.5" style="stop-color:#A0C8DD"></stop><stop offset="1" style="stop-color:#5D6EC5"></stop></linearGradient><path style="fill:url(#hair1XMLID_3180_);stroke:#1E1E1E;stroke-linecap:round;stroke-linejoin:round;" d="M269.007,158.805c0,0,4.02,30.484-14.74,55.052c-8.71,2.011-11.055-0.112-11.055-0.112s9.045-21.439,6.7-38.859c-3.686,12.061-14.405,35.845-19.096,38.189c-8.375,2.681-18.09,0.67-18.09,0.67s11.726-15.744,14.07-30.484c-2.764,7.642-12.396,20.77-20.771,30.82c-5.024,3.35-11.39,4.02-17.085,3.685c-1.309-3.927-2.271-8.311-2.785-13.054c0,0,1.78-29.491,13.171-43.561"></path><linearGradient id="hair1XMLID_3181_" gradientUnits="userSpaceOnUse" x1="187.3413" y1="217.3335" x2="187.3413" y2="156"><stop offset="0" style="stop-color:#FCFCE4"></stop><stop offset="0.5" style="stop-color:#A0C8DD"></stop><stop offset="1" style="stop-color:#5D6EC5"></stop></linearGradient><path style="fill:url(#hair1XMLID_3181_);stroke:#1E1E1E;stroke-linecap:round;stroke-linejoin:round;" d="M174.537,189.959c-1.006,0.671-27.136,84.42,1.34,115.91c-1.34-17.084,1.34-29.814,1.34-29.814s-2.233,28.475,30.373,37.408c0,0-14.293-18.76-16.08-37.967c-2.03-21.83-2.568-86.207,20.547-134.111"></path></g><linearGradient id="hair1XMLID_3182_" gradientUnits="userSpaceOnUse" x1="292.5918" y1="217.3335" x2="292.5918" y2="156"><stop offset="0" style="stop-color:#FCFCE4"></stop><stop offset="0.5" style="stop-color:#A0C8DD"></stop><stop offset="1" style="stop-color:#5D6EC5"></stop></linearGradient><path style="fill:url(#hair1XMLID_3182_);stroke:#1E1E1E;stroke-linecap:round;stroke-linejoin:round;" d="M269.007,158.805c0,0,7.37,31.49,25.125,55.275c-1.675-9.381-1.675-18.09-1.675-18.09s7.035,13.064,19.095,20.435c6.365-14.74,8.04-43.216-7.37-63.65"></path><linearGradient id="hair1XMLID_3183_" gradientUnits="userSpaceOnUse" x1="304.6738" y1="217.3335" x2="304.6738" y2="156"><stop offset="0" style="stop-color:#FCFCE4"></stop><stop offset="0.5" style="stop-color:#A0C8DD"></stop><stop offset="1" style="stop-color:#5D6EC5"></stop></linearGradient><path style="fill:url(#hair1XMLID_3183_);stroke:#1E1E1E;stroke-linecap:round;stroke-linejoin:round;" d="M279.057,139.04c3.015,1.005,24.567,16.75,30.15,44.555c3.841,21.021,4.02,104.185-20.101,126.294c15.745-1.34,27.917-16.973,34.617-33.053c9.763-23.43,10.608-100.946-11.167-125.066"></path><linearGradient id="hair1XMLID_3184_" gradientUnits="userSpaceOnUse" x1="308.3145" y1="217.3335" x2="308.3145" y2="156"><stop offset="0" style="stop-color:#FCFCE4"></stop><stop offset="0.5" style="stop-color:#A0C8DD"></stop><stop offset="1" style="stop-color:#5D6EC5"></stop></linearGradient><path style="fill:url(#hair1XMLID_3184_);stroke:#1E1E1E;stroke-linecap:round;stroke-linejoin:round;" d="M308.091,171.424c0,1.004,2.345,80.734-16.08,105.859c27.246-18.313,30.596-47.459,32.606-62.869"></path></g></g></svg>