<svg xmlns="http://www.w3.org/2000/svg" width="500" height="500" version="1.1"><g id="x098"><g><linearGradient id="hair1XMLID_3185_" gradientUnits="userSpaceOnUse" x1="250.0503" y1="216.3335" x2="250.0503" y2="145.3335"><stop offset="0" style="stop-color:#FCFCE4"></stop><stop offset="0.5" style="stop-color:#A0C8DD"></stop><stop offset="1" style="stop-color:#5D6EC5"></stop></linearGradient><path style="fill:url(#hair1XMLID_3185_);stroke:#1E1E1E;stroke-linecap:round;stroke-linejoin:round;" d="M311.534,135.882c-17.021-17.418-41.603-23.852-61.484-20.131c-19.882-3.721-44.464,2.713-61.484,20.131c-13.061,13.365-22.283,30.165-22.283,51.08c0,24.372,15.268,44.372,25.934,48.538c-7.33-33.49-0.484-59.331,5.084-68.5c1.798-2.157,29.369-5.491,52.75-5.619c23.381,0.128,50.952,3.462,52.75,5.619c5.568,9.169,12.414,35.01,5.084,68.5c10.666-4.167,25.934-24.167,25.934-48.538C333.817,166.047,324.595,149.248,311.534,135.882z"></path><linearGradient id="hair1XMLID_3186_" gradientUnits="userSpaceOnUse" x1="198.2271" y1="216.3335" x2="198.2271" y2="145.3335"><stop offset="0" style="stop-color:#FCFCE4"></stop><stop offset="0.5" style="stop-color:#A0C8DD"></stop><stop offset="1" style="stop-color:#5D6EC5"></stop></linearGradient><path style="fill:url(#hair1XMLID_3186_);stroke:#1E1E1E;stroke-linecap:round;stroke-linejoin:round;" d="M216.947,162.597c0,0-27.693,32.286-27.693,96.606c-10.72-23.674-12.507-60.279-5.807-92.887"></path><linearGradient id="hair1XMLID_3187_" gradientUnits="userSpaceOnUse" x1="181.9063" y1="216.3335" x2="181.9063" y2="145.3334"><stop offset="0" style="stop-color:#FCFCE4"></stop><stop offset="0.5" style="stop-color:#A0C8DD"></stop><stop offset="1" style="stop-color:#5D6EC5"></stop></linearGradient><path style="fill:url(#hair1XMLID_3187_);stroke:#1E1E1E;stroke-linecap:round;stroke-linejoin:round;" d="M189.254,194.883c0,0-11.167,51.367,6.253,89.779c-29.479-21.886-39.307-92.906-7.593-138.913"></path><linearGradient id="hair1XMLID_3188_" gradientUnits="userSpaceOnUse" x1="309.625" y1="216.3335" x2="309.625" y2="145.3335"><stop offset="0" style="stop-color:#FCFCE4"></stop><stop offset="0.5" style="stop-color:#A0C8DD"></stop><stop offset="1" style="stop-color:#5D6EC5"></stop></linearGradient><path style="fill:url(#hair1XMLID_3188_);stroke:#1E1E1E;stroke-linecap:round;stroke-linejoin:round;" d="M302.707,195.776c0,0,3.127,66.554-7.593,89.333c31.713-25.013,33.052-86.652,24.565-126.406"></path><linearGradient id="hair1XMLID_3189_" gradientUnits="userSpaceOnUse" x1="288.5977" y1="216.3335" x2="288.5977" y2="145.3335"><stop offset="0" style="stop-color:#FCFCE4"></stop><stop offset="0.5" style="stop-color:#A0C8DD"></stop><stop offset="1" style="stop-color:#5D6EC5"></stop></linearGradient><path style="fill:url(#hair1XMLID_3189_);stroke:#1E1E1E;stroke-linecap:round;stroke-linejoin:round;" d="M268.76,158.13c0,0,26.801,35.19,32.607,75.613c5.359-10.72,14.74-58.737-4.467-84.867"></path><linearGradient id="hair1XMLID_3190_" gradientUnits="userSpaceOnUse" x1="244.4033" y1="216.3335" x2="244.4033" y2="145.3335"><stop offset="0" style="stop-color:#FCFCE4"></stop><stop offset="0.5" style="stop-color:#A0C8DD"></stop><stop offset="1" style="stop-color:#5D6EC5"></stop></linearGradient><path style="fill:url(#hair1XMLID_3190_);stroke:#1E1E1E;stroke-linecap:round;stroke-linejoin:round;" d="M217.394,144.41c0,0-4.913,71.914,29.48,90.227c1.34-2.68-1.34-5.36-1.34-5.36l6.253,4.021c0,0-10.273-47.348-11.613-55.834c8.934,23.674,19.654,55.834,20.546,57.62c7.594-15.634,15.634-54.046,7.594-86.207"></path></g></g></svg>