<svg xmlns="http://www.w3.org/2000/svg" width="500" height="500" version="1.1"><g id="x011"><linearGradient id="hair2XMLID_521_" gradientUnits="userSpaceOnUse" x1="249.9126" y1="287.5" x2="249.9126" y2="231.5"><stop offset="0" style="stop-color:#FCFCE4"></stop><stop offset="0.5" style="stop-color:#A0C8DD"></stop><stop offset="1" style="stop-color:#5D6EC5"></stop></linearGradient><path style="fill:url(#hair2XMLID_521_);stroke:#1E1E1E;stroke-linecap:round;stroke-linejoin:round;" d="M319.481,236.083c2.802,4.152,6.617,10.839,16.016,12.222c-10.443-8.764-5.606-50.054-11.89-74.84c-6.283-24.785-27.568-53.313-62.116-56.377c-10.517-0.933-17.705-0.933-28.228,0c-41.254,3.66-58.195,36.435-63.075,69.911c-4.157,28.508,4.583,52.315-5.86,61.078c6.771-4.111,11.14-7.843,13.944-11.994c-0.009,7.41-1.413,17.926-8.511,23.523c8.784,3.504,16.566,0.706,22.022-5.621c-0.271,8.2-1.964,18.943-8.654,22.226c10.294,0.569,16.772-3.076,20.337-10.369c-0.047,3.66-0.966,8.492-4.786,12.197c6.261-0.71,8.879-2.09,9.119-12.529c0.743,0.7,1.525,1.393,2.341,2.082c1.277,4.936,1.98,12.178-1.102,20.207c7.441-2.033,11.375-6.789,13.428-12.251c0.781,0.37,1.576,0.732,2.396,1.078c1.46,4.572,5.06,12.403,13.206,16.188c-0.877-3.291-1.459-8.641-1.803-12.714c0.638,0.129,1.292,0.24,1.947,0.353c1.62,2.206,3.469,4.484,5.045,5.789c3.761,3.113,4.387,6.572,2.821,10.725c6.319-2.427,12.154-3.261,13.92-17.197c0.73-0.167,1.449-0.342,2.156-0.529c-0.336,4.128-0.929,9.794-1.844,13.229c9.19-4.272,12.592-13.691,13.665-17.769c0.753-0.389,1.486-0.788,2.199-1.196c1.813,6.297,5.748,12.011,14.105,14.294c-3.667-9.547-1.98-17.985-0.339-22.748c0.173,10.862,2.777,12.269,9.128,12.988c-3.819-3.706-4.739-8.539-4.785-12.199c3.563,7.295,10.041,10.94,20.338,10.371c-6.691-3.282-8.385-14.025-8.655-22.227c5.456,6.328,13.239,9.126,22.022,5.622C320.892,254.01,319.49,243.494,319.481,236.083z"></path></g></svg>