<svg xmlns="http://www.w3.org/2000/svg" width="500" height="500" version="1.1"><g id="x018"><g><linearGradient id="hair2XMLID_546_" gradientUnits="userSpaceOnUse" x1="249.9126" y1="243.1699" x2="249.9126" y2="159.383"><stop offset="0" style="stop-color:#FCFCE4"></stop><stop offset="0.5" style="stop-color:#A0C8DD"></stop><stop offset="1" style="stop-color:#5D6EC5"></stop></linearGradient><path style="fill:url(#hair2XMLID_546_);stroke:#1E1E1E;stroke-width:0.9596;stroke-linecap:round;stroke-linejoin:round;" d="M325.65,194.782c8.241-4.755,20.324-8.543,37.85-8.288c-2.822-4.576-17.033-19.668-31.206-22.295c4.934-3.278,13.403-2.017,24.252-3.24c-1.928-6.485-14.646-17.222-27.578-17.735c8.903-9.602,9.878-13.731,9.878-13.731s-16.436,11.096-30.343,3.112c-23.692-13.602-30.124-14.576-58.591-14.605c-28.465,0.029-34.897,1.003-58.591,14.605c-13.907,7.983-30.342-3.112-30.342-3.112s0.974,4.129,9.877,13.731c-12.933,0.513-25.651,11.25-27.579,17.735c10.849,1.224,19.318-0.038,24.252,3.24c-14.173,2.627-28.384,17.72-31.206,22.295c17.525-0.256,29.608,3.533,37.85,8.288c-14.461,6.349-21.013,5.18-35.954,3.022c18.686,22.607,35.041,27.672,46.564,27.229c-2.816,6.419-5.454,13.108-7.37,19.342c16.653,22.456,42.689,32.757,72.498,32.875c29.811-0.117,55.845-10.419,72.498-32.875c-1.916-6.234-4.554-12.923-7.37-19.342c11.523,0.443,27.879-4.622,46.563-27.229C346.663,199.962,340.11,201.131,325.65,194.782z"></path><g><linearGradient id="hair2XMLID_547_" gradientUnits="userSpaceOnUse" x1="170.8965" y1="245" x2="170.8965" y2="154"><stop offset="0" style="stop-color:#FCFCE4"></stop><stop offset="0.5" style="stop-color:#A0C8DD"></stop><stop offset="1" style="stop-color:#5D6EC5"></stop></linearGradient><path style="fill:url(#hair2XMLID_547_);stroke:#1E1E1E;stroke-linecap:round;stroke-linejoin:round;" d="M199.026,264.367c-8.85-6.502-18.332-13.729-50.57-16.618c10.747-2.89,18.964-3.613,18.964-3.613s-15.804-5.058-24.652-2.891c18.963-15.173,33.502-20.23,51.202-16.618"></path><linearGradient id="hair2XMLID_548_" gradientUnits="userSpaceOnUse" x1="328.9277" y1="245" x2="328.9277" y2="154"><stop offset="0" style="stop-color:#FCFCE4"></stop><stop offset="0.5" style="stop-color:#A0C8DD"></stop><stop offset="1" style="stop-color:#5D6EC5"></stop></linearGradient><path style="fill:url(#hair2XMLID_548_);stroke:#1E1E1E;stroke-linecap:round;stroke-linejoin:round;" d="M300.798,264.367c8.847-6.502,18.332-13.729,50.568-16.618c-10.743-2.89-18.963-3.613-18.963-3.613s15.802-5.058,24.655-2.891c-18.966-15.173-33.504-20.23-51.205-16.618"></path></g></g></g></svg>