<svg xmlns="http://www.w3.org/2000/svg" width="500" height="500" version="1.1"><g id="x036"><g><g><linearGradient id="hair2XMLID_613_" gradientUnits="userSpaceOnUse" x1="249.9121" y1="272" x2="249.9121" y2="202.6666"><stop offset="0" style="stop-color:#FCFCE4"></stop><stop offset="0.5" style="stop-color:#A0C8DD"></stop><stop offset="1" style="stop-color:#5D6EC5"></stop></linearGradient><path style="fill:url(#hair2XMLID_613_);stroke:#1E1E1E;stroke-linecap:round;stroke-linejoin:round;" d="M333.138,200.108c-0.02-34.823-6.828-61.113-26.883-72.529c-25.067-35.976-53.703-26.315-54.541-26.25c-0.837-0.065-39.244-0.419-63.274,27.288c-28.201,32.516-21.242,69.264-20.367,75.063c1.253,8.303,1.566,25.945,25.968,51.542c18.213,16.258,19.78,21.103,28.241,31.133c-1.881-4.842-4.388-18.68-4.388-18.68s8.774,16.95,25.695,21.794c1.253-11.762,5.326-18.68,5.326-18.68s3.76,7.61,5.013,19.37c16.919-4.842,25.692-25.252,25.692-25.252s-2.193,16.605-4.074,21.447c9.811-5.614,13.507-12.852,14.885-17.949c-0.622,4.379-1.614,10.29-2.979,15.184c9.692-7.261,14.224-19.164,16.337-28.367C303.79,255.223,331.636,235.506,333.138,200.108z"></path></g><g><linearGradient id="hair2XMLID_614_" gradientUnits="userSpaceOnUse" x1="204.5352" y1="271.999" x2="204.5352" y2="202.6655"><stop offset="0" style="stop-color:#FCFCE4"></stop><stop offset="0.5" style="stop-color:#A0C8DD"></stop><stop offset="1" style="stop-color:#5D6EC5"></stop></linearGradient><path style="fill:url(#hair2XMLID_614_);stroke:#1E1E1E;stroke-linecap:round;stroke-linejoin:round;" d="M215.701,111.667c0,0-17.86,2.076-22.247-3.459c-0.94,3.113,5.953,15.913,17.233,13.145"></path><linearGradient id="hair2XMLID_615_" gradientUnits="userSpaceOnUse" x1="218.0522" y1="272" x2="218.0522" y2="202.6666"><stop offset="0" style="stop-color:#FCFCE4"></stop><stop offset="0.5" style="stop-color:#A0C8DD"></stop><stop offset="1" style="stop-color:#5D6EC5"></stop></linearGradient><path style="fill:url(#hair2XMLID_615_);stroke:#1E1E1E;stroke-linecap:round;stroke-linejoin:round;" d="M231.683,103.711c0,0-17.861,0.692-27.261-6.227c0,0,2.193,18.333,21.308,17.987"></path></g></g></g></svg>