<svg xmlns="http://www.w3.org/2000/svg" width="500" height="500" version="1.1"><g id="x010"><g><g><path style="fill:#6E6E6E;stroke:#000000;stroke-linecap:round;stroke-linejoin:round;" d="M239.745,441.438c0,0,1.188,5.25,0.313,6.563c-2.188,1.125-11.375,0.938-12.875,0.375c-1.438-2.938-1.938-6.75-1.938-7.375c1,2.313,2.125,2.938,2.75,3.375s2.875,0.625,6.938,0.5s4.438-1.5,4.438-1.5L239.745,441.438z"></path></g><g><path style="fill:#6E6E6E;stroke:#000000;stroke-linecap:round;stroke-linejoin:round;" d="M260.313,441.438c0,0-1.188,5.25-0.313,6.563c2.188,1.125,11.375,0.938,12.875,0.375c1.438-2.938,1.938-6.75,1.938-7.375c-1,2.313-2.125,2.938-2.75,3.375s-2.875,0.625-6.938,0.5s-4.438-1.5-4.438-1.5L260.313,441.438z"></path></g></g></g></svg>