<svg xmlns="http://www.w3.org/2000/svg" width="500" height="500" version="1.1"><g id="x9100"><g><g><g><g><path style="fill:#6E6E6E;stroke:#000000;stroke-linecap:round;stroke-linejoin:round;" d="M277.226,430.625c0,0-2.791,12.584-3.625,14.75c-3.75-2.375-11.625-1.25-13.625-1.25c-0.333-2.5,0.3-4.625,0.3-4.625l-1.5-8.667c0,0,1.982-2.469,8.5-2.333C275.275,428.666,277.226,430.625,277.226,430.625z"></path></g></g><path style="fill:#6E6E6E;stroke:#000000;stroke-linecap:round;stroke-linejoin:round;" d="M259.935,448.083c0,0,9.458,0.833,12.833-0.167l0.917-1.166l0.416-1.875l-0.375,3c0,0-0.624,1.624-1.041,2.041s-11.334,0.417-12.334-0.083C260.018,450.083,259.935,448.083,259.935,448.083z"></path></g><g><g><g><path style="fill:#6E6E6E;stroke:#000000;stroke-linecap:round;stroke-linejoin:round;" d="M222.774,430.625c0,0,2.791,12.584,3.625,14.75c3.75-2.375,11.625-1.25,13.625-1.25c0.333-2.5-0.3-4.625-0.3-4.625l1.5-8.667c0,0-1.982-2.469-8.5-2.333C224.725,428.666,222.774,430.625,222.774,430.625z"></path></g></g><path style="fill:#6E6E6E;stroke:#000000;stroke-linecap:round;stroke-linejoin:round;" d="M240.064,448.083c0,0-9.458,0.833-12.833-0.167l-0.917-1.166l-0.416-1.875l0.375,3c0,0,0.624,1.624,1.041,2.041s11.333,0.417,12.333-0.083C239.981,450.083,240.064,448.083,240.064,448.083z"></path></g></g></g></svg>