<svg xmlns="http://www.w3.org/2000/svg" width="500" height="500" version="1.1"><g id="x011"><g><g><path style="fill:#6E6E6E;stroke:#000000;stroke-linecap:round;stroke-linejoin:round;" d="M225.713,443.75c0,0-0.375,3,0.875,4.375c0.539,0.592,10.4,1.25,13.775-0.375c0.625-1.875-0.4-4.75-0.4-4.75s0.45,2.75-6.05,2.875C224.901,446.048,225.713,443.75,225.713,443.75z"></path></g><g><path style="fill:#6E6E6E;stroke:#000000;stroke-linecap:round;stroke-linejoin:round;" d="M274.287,443.75c0,0,0.375,3-0.875,4.375c-0.539,0.592-10.4,1.25-13.775-0.375c-0.625-1.875,0.4-4.75,0.4-4.75s-0.45,2.75,6.05,2.875C275.1,446.048,274.287,443.75,274.287,443.75z"></path></g></g></g></svg>