<svg xmlns="http://www.w3.org/2000/svg" width="500" height="500" version="1.1"><g id="x012"><g><path style="fill:#6E6E6E;stroke:#000000;stroke-linecap:round;stroke-linejoin:round;" d="M226.333,446.833c0,0,0.417,1.751,0.833,2.167s10.25,1.249,13.083-0.334c0.167-0.833,0.25-1.965,0.25-1.965S238.333,448,233.083,448S226.333,446.833,226.333,446.833z"></path><path style="fill:#6E6E6E;stroke:#000000;stroke-linecap:round;stroke-linejoin:round;" d="M226.35,446.449c0,0,2.417-2.333,7.667-2.25s6.417,1.5,6.417,1.5v-1.75c0,0-2.502-1.79-6.75-1.667c-5.75,0.167-7.583,2-7.583,2L226.35,446.449z"></path></g><g><path style="fill:#6E6E6E;stroke:#000000;stroke-linecap:round;stroke-linejoin:round;" d="M273.882,446.833c0,0-0.416,1.751-0.833,2.167s-10.249,1.249-13.083-0.334c-0.167-0.833-0.25-1.965-0.25-1.965s2.166,1.299,7.416,1.299S273.882,446.833,273.882,446.833z"></path><path style="fill:#6E6E6E;stroke:#000000;stroke-linecap:round;stroke-linejoin:round;" d="M273.866,446.449c0,0-2.418-2.333-7.668-2.25s-6.416,1.5-6.416,1.5v-1.75c0,0,2.502-1.79,6.75-1.667c5.75,0.167,7.584,2,7.584,2L273.866,446.449z"></path></g></g></svg>