<svg xmlns="http://www.w3.org/2000/svg" width="500" height="500" version="1.1"><g id="x013"><g><g><path style="fill:#6E6E6E;stroke:#000000;stroke-linecap:round;stroke-linejoin:round;" d="M227.315,448c1.875,0.813,12.125,0.688,12.688-0.625c0.75-1.813,0.063-3.75,0.063-3.75s-0.938,1.653-6.875,1.875c-6.688,0.25-7.313-1.75-7.313-1.75S225.7,447.3,227.315,448z"></path><path style="fill:#6E6E6E;stroke:#000000;stroke-linecap:round;stroke-linejoin:round;" d="M223.798,435.278c0,0,0.193,2.008,0.438,2.517c0.246,0.509,11,1.636,15.334,0.036c0.371-1.176,0.559-2.795,0.559-2.795S230.396,436.697,223.798,435.278z"></path></g><g><path style="fill:#6E6E6E;stroke:#000000;stroke-linecap:round;stroke-linejoin:round;" d="M272.685,448c-1.875,0.813-12.125,0.688-12.688-0.625c-0.75-1.813-0.063-3.75-0.063-3.75s0.939,1.653,6.875,1.875c6.688,0.25,7.313-1.75,7.313-1.75S274.301,447.3,272.685,448z"></path><path style="fill:#6E6E6E;stroke:#000000;stroke-linecap:round;stroke-linejoin:round;" d="M276.202,435.278c0,0-0.192,2.008-0.438,2.517c-0.246,0.509-11,1.636-15.334,0.036c-0.371-1.176-0.559-2.795-0.559-2.795S269.604,436.697,276.202,435.278z"></path></g></g></g></svg>