<svg xmlns="http://www.w3.org/2000/svg" width="500" height="500" version="1.1"><g id="x014"><g><g><path style="fill:#3F3F3F;stroke:#000000;stroke-linecap:round;stroke-linejoin:round;" d="M226.104,446.103c0,0,0.417,2.083,1.167,2.833s10.667,1.166,12.75,0.083c0.5-1.25,0.333-2.083,0.333-2.083L226.104,446.103z"></path><path style="fill:#6E6E6E;stroke:#000000;stroke-linecap:round;stroke-linejoin:round;" d="M239.187,440.001c0,0-0.255-0.484-1.496-0.831c-0.093-0.967-0.297-2.102-0.748-2.42c-0.826-0.584-5.784-0.333-6.31,0.417c-0.231,0.329-0.288,1.093-0.279,1.845c-0.271,0.004-0.545,0.003-0.834-0.011c-1.333,0.75-1.479,1.083-2.167,1c-1.446-0.174-2.583-1.584-2.583-1.584s0.25,6.436,2.25,8.936c0.626,0.783,9.417,1.416,13,0.083C240.77,444.019,239.187,440.001,239.187,440.001z"></path><g><rect x="229.29" y="443.895" transform="matrix(0.7069 -0.7073 0.7073 0.7069 -247.0698 293.0075)" style="fill:#3F3F3F;" width="1.502" height="1.503"></rect><rect x="231.415" y="443.895" transform="matrix(0.7069 -0.7073 0.7073 0.7069 -246.4471 294.5105)" style="fill:#3F3F3F;" width="1.502" height="1.503"></rect><rect x="233.54" y="443.895" transform="matrix(0.7069 -0.7073 0.7073 0.7069 -245.8243 296.0134)" style="fill:#3F3F3F;" width="1.502" height="1.503"></rect><rect x="235.665" y="443.895" transform="matrix(0.7069 -0.7073 0.7073 0.7069 -245.2016 297.5164)" style="fill:#3F3F3F;" width="1.502" height="1.503"></rect><rect x="237.79" y="443.895" transform="matrix(0.7069 -0.7073 0.7073 0.7069 -244.5789 299.0193)" style="fill:#3F3F3F;" width="1.502" height="1.503"></rect></g><g><path style="fill:#3F3F3F;stroke:#000000;stroke-linecap:round;stroke-linejoin:round;" d="M234.52,439.167c0,0-2.25,3.584-2.583,3.667c-1.167-0.584-1.417-2.084-1.417-2.084L234.52,439.167z"></path><path style="fill:#3F3F3F;stroke:#000000;stroke-linecap:round;stroke-linejoin:round;" d="M234.937,439.167c0,0,2.25,3.584,2.583,3.667c1.167-0.584,1.417-2.084,1.417-2.084L234.937,439.167z"></path></g></g><g><path style="fill:#3F3F3F;stroke:#000000;stroke-linecap:round;stroke-linejoin:round;" d="M273.896,446.103c0,0-0.417,2.083-1.167,2.833s-10.666,1.166-12.75,0.083c-0.5-1.25-0.333-2.083-0.333-2.083L273.896,446.103z"></path><path style="fill:#6E6E6E;stroke:#000000;stroke-linecap:round;stroke-linejoin:round;" d="M260.813,440.001c0,0,0.256-0.484,1.496-0.831c0.093-0.967,0.297-2.102,0.747-2.42c0.826-0.584,5.784-0.333,6.31,0.417c0.23,0.329,0.287,1.093,0.279,1.845c0.271,0.004,0.545,0.003,0.834-0.011c1.334,0.75,1.479,1.083,2.167,1c1.446-0.174,2.583-1.584,2.583-1.584s-0.25,6.436-2.25,8.936c-0.626,0.783-9.416,1.416-13,0.083C259.229,444.019,260.813,440.001,260.813,440.001z"></path><g><rect x="269.207" y="443.895" transform="matrix(-0.7071 -0.7071 0.7071 -0.7071 146.4346 949.9481)" style="fill:#3F3F3F;" width="1.503" height="1.503"></rect><rect x="267.082" y="443.895" transform="matrix(-0.7071 -0.7071 0.7071 -0.7071 142.807 948.4456)" style="fill:#3F3F3F;" width="1.503" height="1.503"></rect><rect x="264.957" y="443.895" transform="matrix(-0.7071 -0.7071 0.7071 -0.7071 139.1794 946.943)" style="fill:#3F3F3F;" width="1.503" height="1.503"></rect><rect x="262.832" y="443.895" transform="matrix(-0.7071 -0.7071 0.7071 -0.7071 135.5518 945.4403)" style="fill:#3F3F3F;" width="1.503" height="1.503"></rect><rect x="260.707" y="443.895" transform="matrix(-0.7071 -0.7071 0.7071 -0.7071 131.9242 943.9377)" style="fill:#3F3F3F;" width="1.503" height="1.503"></rect></g><g><path style="fill:#3F3F3F;stroke:#000000;stroke-linecap:round;stroke-linejoin:round;" d="M265.48,439.167c0,0,2.249,3.584,2.583,3.667c1.167-0.584,1.417-2.084,1.417-2.084L265.48,439.167z"></path><path style="fill:#3F3F3F;stroke:#000000;stroke-linecap:round;stroke-linejoin:round;" d="M265.063,439.167c0,0-2.25,3.584-2.583,3.667c-1.167-0.584-1.417-2.084-1.417-2.084L265.063,439.167z"></path></g></g></g></g></svg>