<svg xmlns="http://www.w3.org/2000/svg" width="500" height="500" version="1.1"><g id="x016"><g><g><path style="fill:#6E6E6E;stroke:#000000;stroke-linecap:round;stroke-linejoin:round;" d="M225.583,444.563c0,0,0.25,3.648,0.938,4.322s11.625,1.796,13.75-0.562c0.063-1.459-0.063-2.525-0.063-2.525L225.583,444.563z"></path><path style="fill:#6E6E6E;stroke:#000000;stroke-linecap:round;stroke-linejoin:round;" d="M239.798,441.063c-0.117-0.348-1.063-2.438-2.25-2.563c-0.249-0.026-9.708,0.167-9.708,0.167s-1.583,1.166-1.75,3.5c0,0-0.625-0.636-0.907-1.292c0,0-0.895,3.938,1.178,6.375c1.563,0.688,11.76,0.813,13.385-0.25C240.474,445.543,240.549,442.721,239.798,441.063z"></path><path style="fill:#6E6E6E;stroke:#000000;stroke-linecap:round;stroke-linejoin:round;" d="M223.673,434.375l0.375,2.188c0,0,13.875-0.188,15.813-0.375c0.25-0.938,0.188-2.25,0.188-2.25L223.673,434.375z"></path></g><g><path style="fill:#6E6E6E;stroke:#000000;stroke-linecap:round;stroke-linejoin:round;" d="M274.417,444.563c0,0-0.25,3.648-0.938,4.322s-11.625,1.796-13.75-0.562c-0.063-1.459,0.063-2.525,0.063-2.525L274.417,444.563z"></path><path style="fill:#6E6E6E;stroke:#000000;stroke-linecap:round;stroke-linejoin:round;" d="M260.202,441.063c0.117-0.348,1.063-2.438,2.25-2.563c0.248-0.026,9.709,0.167,9.709,0.167s1.583,1.166,1.75,3.5c0,0,0.625-0.636,0.906-1.292c0,0,0.895,3.938-1.178,6.375c-1.563,0.688-11.76,0.813-13.385-0.25C259.526,445.543,259.451,442.721,260.202,441.063z"></path><path style="fill:#6E6E6E;stroke:#000000;stroke-linecap:round;stroke-linejoin:round;" d="M276.327,434.375l-0.375,2.188c0,0-13.875-0.188-15.813-0.375c-0.25-0.938-0.188-2.25-0.188-2.25L276.327,434.375z"></path></g></g></g></svg>