<svg xmlns="http://www.w3.org/2000/svg" width="500" height="500" version="1.1"><g id="x017"><g><g><path style="fill:#6E6E6E;stroke:#000000;stroke-linecap:round;stroke-linejoin:round;" d="M240.837,427.625c0,0,0.75,1.625,0.75,2s-1.875,7.75-2.25,8.375c0.375,0.625,0.5,1.375,0.5,1.375l-0.25,1.125c0,0,1.25,5,0.375,7.5c-2.875,1.25-10.75,1.5-13.125-0.375c-1.125-2.25-1.375-5.625-1.375-5.625l-0.5-2.5l-1-1.25c0,0-2.375-7.75-2.375-8.375c0.25-0.625,1-1.625,1-1.625l0.625,1c0,0,3.375,0.625,9.75,0.625s7.25-0.75,7.25-0.75L240.837,427.625z"></path><path style="fill:none;stroke:#000000;stroke-linecap:round;stroke-linejoin:round;" d="M224.087,430.125c0,0.375,2,8,2,8s1,1.125,1,1.75s1,7.625,1.625,8.25"></path><ellipse transform="matrix(-0.989 0.1481 -0.1481 -0.989 510.0645 829.6519)" style="fill:#3F3F3F;stroke:#000000;stroke-linecap:round;stroke-linejoin:round;" cx="224.149" cy="433.813" rx="1.438" ry="2.187"></ellipse></g><g><path style="fill:#6E6E6E;stroke:#000000;stroke-linecap:round;stroke-linejoin:round;" d="M259.162,427.625c0,0-0.75,1.625-0.75,2s1.875,7.75,2.25,8.375c-0.375,0.625-0.5,1.375-0.5,1.375l0.25,1.125c0,0-1.25,5-0.375,7.5c2.875,1.25,10.75,1.5,13.125-0.375c1.125-2.25,1.375-5.625,1.375-5.625l0.5-2.5l1-1.25c0,0,2.375-7.75,2.375-8.375c-0.25-0.625-1-1.625-1-1.625l-0.625,1c0,0-3.375,0.625-9.75,0.625s-7.25-0.75-7.25-0.75L259.162,427.625z"></path><path style="fill:none;stroke:#000000;stroke-linecap:round;stroke-linejoin:round;" d="M275.912,430.125c0,0.375-2,8-2,8s-1,1.125-1,1.75s-1,7.625-1.625,8.25"></path><ellipse transform="matrix(0.989 0.1481 -0.1481 0.989 67.2776 -36.0641)" style="fill:#3F3F3F;stroke:#000000;stroke-linecap:round;stroke-linejoin:round;" cx="275.85" cy="433.813" rx="1.438" ry="2.187"></ellipse></g></g></g></svg>