<svg xmlns="http://www.w3.org/2000/svg" width="500" height="500" version="1.1"><g id="x018"><g><g><path style="fill:#6E6E6E;stroke:#000000;stroke-linecap:round;stroke-linejoin:round;" d="M243.65,398.5c-1,0.333-1.333,1.167-1.333,1.167s-2.833,1.833-10.667,1.833s-11.667-1.333-11.667-1.333l-0.333-1.5l-1.167,2.166c0,0,0.167,9.5,0.833,11.667c0.833,3.833,4.628,25.75,4.628,25.75l1,1.25l0.5,2.5c0,0,0.25,3.375,1.375,5.625c2.375,1.875,10.25,1.625,13.125,0.375c0.875-2.5-0.375-7.5-0.375-7.5l0.25-1.125c0,0-0.125-0.75-0.5-1.375c0.375-0.625,3.609-21.472,3.83-25.667C243.483,406,243.65,398.5,243.65,398.5z"></path><path style="fill:none;stroke:#000000;stroke-linecap:round;stroke-linejoin:round;" d="M228.695,448.125c-0.625-0.625-1.625-7.625-1.625-8.25s-1-1.75-1-1.75s-5.253-35.25-5.253-35.625l0.667-1.833"></path><ellipse transform="matrix(-0.989 0.1481 -0.1481 -0.989 497.8554 773.5608)" style="fill:#3F3F3F;stroke:#000000;stroke-linecap:round;stroke-linejoin:round;" cx="220.133" cy="405.313" rx="1.438" ry="2.187"></ellipse></g><g><path style="fill:#6E6E6E;stroke:#000000;stroke-linecap:round;stroke-linejoin:round;" d="M256.353,398.5c1,0.333,1.334,1.167,1.334,1.167s2.832,1.833,10.666,1.833s11.667-1.333,11.667-1.333l0.333-1.5l1.167,2.166c0,0-0.167,9.5-0.833,11.667c-0.834,3.833-4.629,25.75-4.629,25.75l-1,1.25l-0.5,2.5c0,0-0.25,3.375-1.375,5.625c-2.375,1.875-10.25,1.625-13.125,0.375c-0.875-2.5,0.375-7.5,0.375-7.5l-0.25-1.125c0,0,0.125-0.75,0.5-1.375c-0.375-0.625-3.609-21.472-3.83-25.667C256.52,406,256.353,398.5,256.353,398.5z"></path><path style="fill:none;stroke:#000000;stroke-linecap:round;stroke-linejoin:round;" d="M271.308,448.125c0.625-0.625,1.625-7.625,1.625-8.25s1-1.75,1-1.75s5.254-35.25,5.254-35.625l-0.667-1.833"></path><ellipse transform="matrix(0.989 0.1481 -0.1481 0.989 63.1018 -36.9736)" style="fill:#3F3F3F;stroke:#000000;stroke-linecap:round;stroke-linejoin:round;" cx="279.87" cy="405.313" rx="1.438" ry="2.187"></ellipse></g></g></g></svg>