<svg xmlns="http://www.w3.org/2000/svg" width="500" height="500" version="1.1"><g id="x019"><g><g><path style="fill:#D6917A;stroke:#000000;stroke-linecap:round;stroke-linejoin:round;" d="M225.412,445.813c0,0-0.3,1.75,0.361,2.375c1.19,0.875,12.729,1.313,15.374,0.25c0.199-1.625-0.064-2.625-0.064-2.625H225.412z"></path><path style="fill:#6E6E6E;stroke:#000000;stroke-linecap:round;stroke-linejoin:round;" d="M222.841,428.167c0,0,4.766,0.417,9.683,0.417s8.317-1,8.317-1l0.417-1.25c0,0,0.969,1.086,0.917,1.5c-0.313,2.479-2.088,12.104-2.088,12.104s1.271,4.063,0.771,6.646c-1.833,0.667-13,0.437-15.271-0.334c-0.406-1.015-0.354-2.584-0.688-6c-1.675-3.203-3.037-9.563-3.475-11.916l1.083-1.833L222.841,428.167z"></path><g><g><path style="fill:#BF0000;stroke:#000000;stroke-linecap:round;stroke-linejoin:round;" d="M233.278,431.188c0,0-0.25,6.75-0.813,6.938c-0.875,0.063-1.875-0.125-1.875-0.125L233.278,431.188z"></path><path style="fill:#BF0000;stroke:#000000;stroke-linecap:round;stroke-linejoin:round;" d="M233.903,431.188c0,0,0.25,6.75,0.813,6.938c0.875,0.063,1.875-0.125,1.875-0.125L233.903,431.188z"></path></g><g><path style="fill:#BF0000;stroke:#000000;stroke-linecap:round;stroke-linejoin:round;" d="M233.354,430.063c0,0-4.063,3.125-3.875,3.75c1.063,1.188,1.688,1.75,2,1.563S233.354,430.063,233.354,430.063z"></path><path style="fill:#BF0000;stroke:#000000;stroke-linecap:round;stroke-linejoin:round;" d="M233.572,430.063c0,0,4.063,3.125,3.875,3.75c-1.063,1.188-1.688,1.75-2,1.563S233.572,430.063,233.572,430.063z"></path></g></g></g><g><path style="fill:#D6917A;stroke:#000000;stroke-linecap:round;stroke-linejoin:round;" d="M274.588,445.813c0,0,0.301,1.75-0.36,2.375c-1.19,0.875-12.729,1.313-15.374,0.25c-0.198-1.625,0.064-2.625,0.064-2.625H274.588z"></path><path style="fill:#6E6E6E;stroke:#000000;stroke-linecap:round;stroke-linejoin:round;" d="M277.158,428.167c0,0-4.766,0.417-9.682,0.417c-4.918,0-8.318-1-8.318-1l-0.416-1.25c0,0-0.969,1.086-0.916,1.5c0.313,2.479,2.088,12.104,2.088,12.104s-1.271,4.063-0.771,6.646c1.834,0.667,13,0.437,15.271-0.334c0.405-1.015,0.354-2.584,0.688-6c1.674-3.203,3.037-9.563,3.475-11.916l-1.084-1.833L277.158,428.167z"></path><g><g><path style="fill:#BF0000;stroke:#000000;stroke-linecap:round;stroke-linejoin:round;" d="M266.722,431.188c0,0,0.25,6.75,0.813,6.938c0.875,0.063,1.875-0.125,1.875-0.125L266.722,431.188z"></path><path style="fill:#BF0000;stroke:#000000;stroke-linecap:round;stroke-linejoin:round;" d="M266.097,431.188c0,0-0.25,6.75-0.813,6.938c-0.875,0.063-1.875-0.125-1.875-0.125L266.097,431.188z"></path></g><g><path style="fill:#BF0000;stroke:#000000;stroke-linecap:round;stroke-linejoin:round;" d="M266.646,430.063c0,0,4.063,3.125,3.875,3.75c-1.063,1.188-1.688,1.75-2,1.563S266.646,430.063,266.646,430.063z"></path><path style="fill:#BF0000;stroke:#000000;stroke-linecap:round;stroke-linejoin:round;" d="M266.428,430.063c0,0-4.063,3.125-3.875,3.75c1.063,1.188,1.688,1.75,2,1.563S266.428,430.063,266.428,430.063z"></path></g></g></g></g></g></svg>