<svg xmlns="http://www.w3.org/2000/svg" width="500" height="500" version="1.1"><g id="x020"><g><g><path style="fill:#D6917A;stroke:#000000;stroke-linecap:round;stroke-linejoin:round;" d="M225.274,445.813c0,0-0.3,1.75,0.361,2.375c1.19,0.875,12.729,1.313,15.374,0.25c0.199-1.625-0.064-2.625-0.064-2.625H225.274z"></path><path style="fill:#6E6E6E;stroke:#000000;stroke-linecap:round;stroke-linejoin:round;" d="M219.704,396.542c0,0,7.766,0.417,12.683,0.417s10.317-1,10.317-1l0.417-1.25c0,0,0.969,1.086,0.917,1.5c-0.142,1.123-0.409,9.691-1.299,19.291c-1.075,11.585-2.789,24.438-2.789,24.438s1.271,4.063,0.771,6.646c-1.833,0.667-13,0.437-15.271-0.334c-0.406-1.015-0.354-2.584-0.688-6c-0.887-1.696-3.236-14-4.649-24.75c-1.254-9.544-1.62-17.685-1.826-18.791l1.083-1.833L219.704,396.542z"></path><g><g><path style="fill:#BF0000;stroke:#000000;stroke-linecap:round;stroke-linejoin:round;" d="M233.141,399.563c0,0-0.25,6.75-0.813,6.938c-0.875,0.063-1.875-0.125-1.875-0.125L233.141,399.563z"></path><path style="fill:#BF0000;stroke:#000000;stroke-linecap:round;stroke-linejoin:round;" d="M233.766,399.563c0,0,0.25,6.75,0.813,6.938c0.875,0.063,1.875-0.125,1.875-0.125L233.766,399.563z"></path></g><g><path style="fill:#BF0000;stroke:#000000;stroke-linecap:round;stroke-linejoin:round;" d="M233.216,398.438c0,0-4.063,3.125-3.875,3.75c1.063,1.188,1.688,1.75,2,1.563S233.216,398.438,233.216,398.438z"></path><path style="fill:#BF0000;stroke:#000000;stroke-linecap:round;stroke-linejoin:round;" d="M233.435,398.438c0,0,4.063,3.125,3.875,3.75c-1.063,1.188-1.688,1.75-2,1.563S233.435,398.438,233.435,398.438z"></path></g></g></g><g><path style="fill:#D6917A;stroke:#000000;stroke-linecap:round;stroke-linejoin:round;" d="M274.724,445.813c0,0,0.301,1.75-0.36,2.375c-1.19,0.875-12.729,1.313-15.374,0.25c-0.198-1.625,0.064-2.625,0.064-2.625H274.724z"></path><path style="fill:#6E6E6E;stroke:#000000;stroke-linecap:round;stroke-linejoin:round;" d="M280.294,396.542c0,0-7.766,0.417-12.682,0.417c-4.918,0-10.318-1-10.318-1l-0.416-1.25c0,0-0.969,1.086-0.916,1.5c0.141,1.123,0.408,9.691,1.299,19.291c1.074,11.585,2.789,24.438,2.789,24.438s-1.271,4.063-0.771,6.646c1.834,0.667,13,0.437,15.271-0.334c0.405-1.015,0.354-2.584,0.688-6c0.887-1.696,3.236-14,4.648-24.75c1.254-9.544,1.62-17.685,1.826-18.791l-1.084-1.833L280.294,396.542z"></path><g><g><path style="fill:#BF0000;stroke:#000000;stroke-linecap:round;stroke-linejoin:round;" d="M266.857,399.563c0,0,0.25,6.75,0.813,6.938c0.875,0.063,1.875-0.125,1.875-0.125L266.857,399.563z"></path><path style="fill:#BF0000;stroke:#000000;stroke-linecap:round;stroke-linejoin:round;" d="M266.232,399.563c0,0-0.25,6.75-0.813,6.938c-0.875,0.063-1.875-0.125-1.875-0.125L266.232,399.563z"></path></g><g><path style="fill:#BF0000;stroke:#000000;stroke-linecap:round;stroke-linejoin:round;" d="M266.782,398.438c0,0,4.063,3.125,3.875,3.75c-1.063,1.188-1.688,1.75-2,1.563S266.782,398.438,266.782,398.438z"></path><path style="fill:#BF0000;stroke:#000000;stroke-linecap:round;stroke-linejoin:round;" d="M266.563,398.438c0,0-4.063,3.125-3.875,3.75c1.063,1.188,1.688,1.75,2,1.563S266.563,398.438,266.563,398.438z"></path></g></g></g></g></g></svg>