<svg xmlns="http://www.w3.org/2000/svg" width="500" height="500" version="1.1"><g id="x021"><g><g><path style="fill:#3F3F3F;stroke:#000000;stroke-linecap:round;stroke-linejoin:round;" d="M240.208,446.5c0,0,0.333,1.667-0.5,2.167s-11.834,0.833-12.5,0.333c-0.5-1.167-0.5-2.833-0.5-2.833S237.041,442.167,240.208,446.5z"></path><path style="fill:#6E6E6E;stroke:#000000;stroke-linecap:round;stroke-linejoin:round;" d="M241.966,421.875c0,0-0.375,4.375-0.75,5.625c0.451,1.563,0.701,2.875,0.701,2.875s-1.313,1.938-1.563,2.438c-0.125,1-0.385,2.566-0.563,3.375c0.438,0.625,1.046,1.386,0.875,2c-0.125,0.25-1.107,0.911-1.375,1.313c0.5,1.5,1.5,5.5,0.75,8c-0.68,0.494-3.04-0.98-5.661-0.758c-2.68,0.229-5.633,2.142-7.339,1.383c-1.5-3.75-1.75-8-1.75-8s-1.902-2.375-2.027-2.75s0.777-2.5,0.777-2.5s-0.294-1.175-0.68-2.854c-0.629-0.646-1.196-0.8-1.379-1.646c-0.201-0.937,0.447-2.643,0.264-3.607c-0.398-2.092-0.705-4.086-0.705-5.268C226.292,421.25,241.966,421.875,241.966,421.875z"></path><path style="fill:#6E6E6E;stroke:#000000;stroke-linecap:round;stroke-linejoin:round;" d="M242.792,418.375c0,0,0.75,1.024,0.875,1.435c-0.375,0.697-0.875,1.107-0.875,1.107l-0.25,4.263c0,0-1.25,0.82-9.625,0.82s-12.413-0.738-12.413-0.738l-0.837-5.903l0.5-0.819c0.875,0.328,0.75,0.574,0.75,0.574s3.501,0.331,12,0.409c8.875,0.082,9.25-0.573,9.25-0.573L242.792,418.375z"></path><path style="fill:none;stroke:#000000;stroke-linecap:round;stroke-linejoin:round;" d="M239.917,443.688c0-0.25-0.688-0.875-1.25-1.125s-9.313-0.063-10.813,0.813s-1.688,1.438-1.688,1.438"></path><g><path style="fill:#6E6E6E;stroke:#000000;stroke-linecap:round;stroke-linejoin:round;" d="M228.042,441.174c0,0-1.938,2.125-3.375,1.813c-1-0.563-2-1.563-2-1.563l0.688-1.813c0,0,1.375,1.188,2.125,0.938s2.75-1.563,2.75-1.563L228.042,441.174z"></path><path style="fill:#6E6E6E;stroke:#000000;stroke-linecap:round;stroke-linejoin:round;" d="M239.167,440.861c0,0-0.625-2.188-1.063-2.438s-7.313-0.5-10.063,0.688c-0.313,1.375-0.188,2.25-0.188,2.25s9.563-1.25,11.25-0.313"></path><g><ellipse style="fill:#6E6E6E;stroke:#000000;stroke-linecap:round;stroke-linejoin:round;" cx="236.493" cy="439.58" rx="0.938" ry="0.906"></ellipse><ellipse style="fill:#6E6E6E;stroke:#000000;stroke-linecap:round;stroke-linejoin:round;" cx="233.493" cy="439.58" rx="0.938" ry="0.906"></ellipse><ellipse style="fill:#6E6E6E;stroke:#000000;stroke-linecap:round;stroke-linejoin:round;" cx="230.493" cy="439.58" rx="0.938" ry="0.906"></ellipse></g></g></g><g><path style="fill:#3F3F3F;stroke:#000000;stroke-linecap:round;stroke-linejoin:round;" d="M259.792,446.5c0,0-0.333,1.667,0.5,2.167s11.834,0.833,12.5,0.333c0.5-1.167,0.5-2.833,0.5-2.833S262.959,442.167,259.792,446.5z"></path><path style="fill:#6E6E6E;stroke:#000000;stroke-linecap:round;stroke-linejoin:round;" d="M258.034,421.875c0,0,0.375,4.375,0.75,5.625c-0.451,1.563-0.701,2.875-0.701,2.875s1.313,1.938,1.563,2.438c0.125,1,0.385,2.566,0.563,3.375c-0.438,0.625-1.046,1.386-0.875,2c0.125,0.25,1.107,0.911,1.375,1.313c-0.5,1.5-1.5,5.5-0.75,8c0.68,0.494,3.04-0.98,5.661-0.758c2.68,0.229,5.633,2.142,7.339,1.383c1.5-3.75,1.75-8,1.75-8s1.902-2.375,2.027-2.75s-0.777-2.5-0.777-2.5s0.293-1.175,0.68-2.854c0.629-0.646,1.196-0.8,1.379-1.646c0.201-0.937-0.447-2.643-0.264-3.607c0.398-2.092,0.705-4.086,0.705-5.268C273.708,421.25,258.034,421.875,258.034,421.875z"></path><path style="fill:#6E6E6E;stroke:#000000;stroke-linecap:round;stroke-linejoin:round;" d="M257.208,418.375c0,0-0.75,1.024-0.875,1.435c0.375,0.697,0.875,1.107,0.875,1.107l0.25,4.263c0,0,1.25,0.82,9.625,0.82s12.413-0.738,12.413-0.738l0.837-5.903l-0.5-0.819c-0.875,0.328-0.75,0.574-0.75,0.574s-3.501,0.331-12,0.409c-8.875,0.082-9.25-0.573-9.25-0.573L257.208,418.375z"></path><path style="fill:none;stroke:#000000;stroke-linecap:round;stroke-linejoin:round;" d="M260.083,443.688c0-0.25,0.688-0.875,1.25-1.125s9.313-0.063,10.813,0.813s1.688,1.438,1.688,1.438"></path><g><path style="fill:#6E6E6E;stroke:#000000;stroke-linecap:round;stroke-linejoin:round;" d="M271.958,441.174c0,0,1.938,2.125,3.375,1.813c1-0.563,2-1.563,2-1.563l-0.688-1.813c0,0-1.375,1.188-2.125,0.938s-2.75-1.563-2.75-1.563L271.958,441.174z"></path><path style="fill:#6E6E6E;stroke:#000000;stroke-linecap:round;stroke-linejoin:round;" d="M260.833,440.861c0,0,0.625-2.188,1.063-2.438s7.313-0.5,10.063,0.688c0.313,1.375,0.188,2.25,0.188,2.25s-9.563-1.25-11.25-0.313"></path><g><ellipse style="fill:#6E6E6E;stroke:#000000;stroke-linecap:round;stroke-linejoin:round;" cx="263.507" cy="439.58" rx="0.938" ry="0.906"></ellipse><ellipse style="fill:#6E6E6E;stroke:#000000;stroke-linecap:round;stroke-linejoin:round;" cx="266.507" cy="439.58" rx="0.938" ry="0.906"></ellipse><ellipse style="fill:#6E6E6E;stroke:#000000;stroke-linecap:round;stroke-linejoin:round;" cx="269.507" cy="439.58" rx="0.938" ry="0.906"></ellipse></g></g></g></g></g></svg>