<svg xmlns="http://www.w3.org/2000/svg" width="500" height="500" version="1.1"><g id="x023"><g><g><path style="fill:#6E6E6E;stroke:#000000;stroke-linecap:round;stroke-linejoin:round;" d="M227.167,432.666c0,0,2.333-1.999,5.667-1.916s5.25,1.666,5.25,1.666l0.667,11.25l-9.667-0.416c0,0-2.333-3.75-2.333-4S227.167,432.666,227.167,432.666z"></path><g><path style="fill:#6E6E6E;stroke:#000000;stroke-linecap:round;stroke-linejoin:round;" d="M227.916,435.833c0,0-0.083,0.833,0.25,1.083s9.75-2.75,9.75-2.75s0.083-0.834-0.25-1S227.916,435.833,227.916,435.833z"></path><path style="fill:#6E6E6E;stroke:#000000;stroke-linecap:round;stroke-linejoin:round;" d="M237.916,435.833c0,0,0.083,0.833-0.25,1.083c-0.334,0.25-9.75-2.75-9.75-2.75s-0.083-0.834,0.25-1S237.916,435.833,237.916,435.833z"></path></g><g><path style="fill:#6E6E6E;stroke:#000000;stroke-linecap:round;stroke-linejoin:round;" d="M227.916,440.417c0,0-0.083,0.833,0.25,1.083s9.75-2.75,9.75-2.75s0.083-0.834-0.25-1S227.916,440.417,227.916,440.417z"></path><path style="fill:#6E6E6E;stroke:#000000;stroke-linecap:round;stroke-linejoin:round;" d="M237.916,440.417c0,0,0.083,0.833-0.25,1.083c-0.334,0.25-9.75-2.75-9.75-2.75s-0.083-0.834,0.25-1S237.916,440.417,237.916,440.417z"></path></g><path style="fill:#6E6E6E;stroke:#000000;stroke-linecap:round;stroke-linejoin:round;" d="M228.25,439.25c1.083,1.583,1.583,2.916,1.917,3.833c-1.167,0-2.014,0.093-2,0.417c0,0-1-2.417-2.833-2.834c-0.833-2.083-1.917-9-2.083-10.25c1.667,1.334,4.083,1.75,4.083,1.75S228,435.416,228.25,439.25z"></path><path style="fill:#6E6E6E;stroke:#000000;stroke-linecap:round;stroke-linejoin:round;" d="M240.083,443.666c0,0-0.333-2.666-0.917-4.416C240,436.333,241,430.584,241,430c-1.333,1.5-3,2.166-3,2.166s-1.167,6.916-1.417,7.25c0.5,1.25,1.083,3.917,1.083,3.917L240.083,443.666z"></path><path style="fill:#6E6E6E;stroke:#000000;stroke-linecap:round;stroke-linejoin:round;" d="M226.333,446.833c0,0,0.417,1.751,0.833,2.167s10.25,1.249,13.083-0.334c0.167-0.833,0.25-1.965,0.25-1.965S238.333,448,233.083,448S226.333,446.833,226.333,446.833z"></path><path style="fill:#6E6E6E;stroke:#000000;stroke-linecap:round;stroke-linejoin:round;" d="M226.35,446.449c0,0,2.417-2.333,7.667-2.25s6.417,1.5,6.417,1.5v-1.75c0,0-2.502-1.79-6.75-1.667c-5.75,0.167-7.583,2-7.583,2L226.35,446.449z"></path></g><g><path style="fill:#6E6E6E;stroke:#000000;stroke-linecap:round;stroke-linejoin:round;" d="M273.049,432.666c0,0-2.333-1.999-5.667-1.916c-3.333,0.083-5.25,1.666-5.25,1.666l-0.666,11.25l9.666-0.416c0,0,2.334-3.75,2.334-4S273.049,432.666,273.049,432.666z"></path><g><path style="fill:#6E6E6E;stroke:#000000;stroke-linecap:round;stroke-linejoin:round;" d="M272.3,435.833c0,0,0.084,0.833-0.25,1.083s-9.75-2.75-9.75-2.75s-0.083-0.834,0.25-1S272.3,435.833,272.3,435.833z"></path><path style="fill:#6E6E6E;stroke:#000000;stroke-linecap:round;stroke-linejoin:round;" d="M262.3,435.833c0,0-0.083,0.833,0.25,1.083c0.334,0.25,9.75-2.75,9.75-2.75s0.083-0.834-0.25-1S262.3,435.833,262.3,435.833z"></path></g><g><path style="fill:#6E6E6E;stroke:#000000;stroke-linecap:round;stroke-linejoin:round;" d="M272.3,440.417c0,0,0.084,0.833-0.25,1.083s-9.75-2.75-9.75-2.75s-0.083-0.834,0.25-1S272.3,440.417,272.3,440.417z"></path><path style="fill:#6E6E6E;stroke:#000000;stroke-linecap:round;stroke-linejoin:round;" d="M262.3,440.417c0,0-0.083,0.833,0.25,1.083c0.334,0.25,9.75-2.75,9.75-2.75s0.083-0.834-0.25-1S262.3,440.417,262.3,440.417z"></path></g><path style="fill:#6E6E6E;stroke:#000000;stroke-linecap:round;stroke-linejoin:round;" d="M271.966,439.25c-1.084,1.583-1.584,2.916-1.917,3.833c1.167,0,2.015,0.093,2,0.417c0,0,1-2.417,2.833-2.834c0.834-2.083,1.918-9,2.084-10.25c-1.667,1.334-4.084,1.75-4.084,1.75S272.216,435.416,271.966,439.25z"></path><path style="fill:#6E6E6E;stroke:#000000;stroke-linecap:round;stroke-linejoin:round;" d="M260.132,443.666c0,0,0.334-2.666,0.917-4.416c-0.833-2.917-1.833-8.666-1.833-9.25c1.333,1.5,3,2.166,3,2.166s1.166,6.916,1.416,7.25c-0.5,1.25-1.083,3.917-1.083,3.917L260.132,443.666z"></path><path style="fill:#6E6E6E;stroke:#000000;stroke-linecap:round;stroke-linejoin:round;" d="M273.882,446.833c0,0-0.416,1.751-0.833,2.167s-10.249,1.249-13.083-0.334c-0.167-0.833-0.25-1.965-0.25-1.965s2.166,1.299,7.416,1.299S273.882,446.833,273.882,446.833z"></path><path style="fill:#6E6E6E;stroke:#000000;stroke-linecap:round;stroke-linejoin:round;" d="M273.866,446.449c0,0-2.418-2.333-7.668-2.25s-6.416,1.5-6.416,1.5v-1.75c0,0,2.502-1.79,6.75-1.667c5.75,0.167,7.584,2,7.584,2L273.866,446.449z"></path></g></g></g></svg>