<svg xmlns="http://www.w3.org/2000/svg" width="500" height="500" version="1.1"><g id="x024"><g><g><path style="fill:#6E6E6E;stroke:#000000;stroke-linecap:round;stroke-linejoin:round;" d="M223.144,399.833c0,0,6.333-1.999,9.666-1.916c3.334,0.083,7.25,1.666,7.25,1.666l-1.333,44.083l-9.667-0.416c0,0-2.333-3.75-2.333-4S223.144,399.833,223.144,399.833z"></path><g><path style="fill:#6E6E6E;stroke:#000000;stroke-linecap:round;stroke-linejoin:round;" d="M227.893,435.521c0,0-0.084,0.833,0.25,1.083c0.333,0.25,9.75-2.75,9.75-2.75s0.083-0.834-0.25-1S227.893,435.521,227.893,435.521z"></path><path style="fill:#6E6E6E;stroke:#000000;stroke-linecap:round;stroke-linejoin:round;" d="M237.893,435.521c0,0,0.083,0.833-0.25,1.083c-0.334,0.25-9.75-2.75-9.75-2.75s-0.083-0.834,0.25-1S237.893,435.521,237.893,435.521z"></path></g><g><path style="fill:#6E6E6E;stroke:#000000;stroke-linecap:round;stroke-linejoin:round;" d="M227.393,431.396c0,0-0.084,0.833,0.25,1.083c0.333,0.25,9.75-2.75,9.75-2.75s0.083-0.834-0.25-1S227.393,431.396,227.393,431.396z"></path><path style="fill:#6E6E6E;stroke:#000000;stroke-linecap:round;stroke-linejoin:round;" d="M237.393,431.396c0,0,0.083,0.833-0.25,1.083c-0.334,0.25-9.75-2.75-9.75-2.75s-0.083-0.834,0.25-1S237.393,431.396,237.393,431.396z"></path></g><g><path style="fill:#6E6E6E;stroke:#000000;stroke-linecap:round;stroke-linejoin:round;" d="M227.192,402.271c0,0-0.084,0.833,0.25,1.083c0.333,0.25,9.75-2.75,9.75-2.75s0.083-0.834-0.25-1S227.192,402.271,227.192,402.271z"></path><path style="fill:#6E6E6E;stroke:#000000;stroke-linecap:round;stroke-linejoin:round;" d="M237.192,402.271c0,0,0.083,0.833-0.25,1.083c-0.334,0.25-9.75-2.75-9.75-2.75s-0.083-0.834,0.25-1S237.192,402.271,237.192,402.271z"></path></g><g><path style="fill:#6E6E6E;stroke:#000000;stroke-linecap:round;stroke-linejoin:round;" d="M227.192,406.396c0,0-0.084,0.833,0.25,1.083c0.333,0.25,9.75-2.75,9.75-2.75s0.083-0.834-0.25-1S227.192,406.396,227.192,406.396z"></path><path style="fill:#6E6E6E;stroke:#000000;stroke-linecap:round;stroke-linejoin:round;" d="M237.192,406.396c0,0,0.083,0.833-0.25,1.083c-0.334,0.25-9.75-2.75-9.75-2.75s-0.083-0.834,0.25-1S237.192,406.396,237.192,406.396z"></path></g><g><path style="fill:#6E6E6E;stroke:#000000;stroke-linecap:round;stroke-linejoin:round;" d="M227.192,410.521c0,0-0.084,0.833,0.25,1.083c0.333,0.25,9.75-2.75,9.75-2.75s0.083-0.834-0.25-1S227.192,410.521,227.192,410.521z"></path><path style="fill:#6E6E6E;stroke:#000000;stroke-linecap:round;stroke-linejoin:round;" d="M237.192,410.521c0,0,0.083,0.833-0.25,1.083c-0.334,0.25-9.75-2.75-9.75-2.75s-0.083-0.834,0.25-1S237.192,410.521,237.192,410.521z"></path></g><g><path style="fill:#6E6E6E;stroke:#000000;stroke-linecap:round;stroke-linejoin:round;" d="M227.192,414.646c0,0-0.084,0.833,0.25,1.083c0.333,0.25,9.75-2.75,9.75-2.75s0.083-0.834-0.25-1S227.192,414.646,227.192,414.646z"></path><path style="fill:#6E6E6E;stroke:#000000;stroke-linecap:round;stroke-linejoin:round;" d="M237.192,414.646c0,0,0.083,0.833-0.25,1.083c-0.334,0.25-9.75-2.75-9.75-2.75s-0.083-0.834,0.25-1S237.192,414.646,237.192,414.646z"></path></g><g><path style="fill:#6E6E6E;stroke:#000000;stroke-linecap:round;stroke-linejoin:round;" d="M227.192,418.771c0,0-0.084,0.833,0.25,1.083c0.333,0.25,9.75-2.75,9.75-2.75s0.083-0.834-0.25-1S227.192,418.771,227.192,418.771z"></path><path style="fill:#6E6E6E;stroke:#000000;stroke-linecap:round;stroke-linejoin:round;" d="M237.192,418.771c0,0,0.083,0.833-0.25,1.083c-0.334,0.25-9.75-2.75-9.75-2.75s-0.083-0.834,0.25-1S237.192,418.771,237.192,418.771z"></path></g><g><path style="fill:#6E6E6E;stroke:#000000;stroke-linecap:round;stroke-linejoin:round;" d="M227.192,422.896c0,0-0.084,0.833,0.25,1.083c0.333,0.25,9.75-2.75,9.75-2.75s0.083-0.834-0.25-1S227.192,422.896,227.192,422.896z"></path><path style="fill:#6E6E6E;stroke:#000000;stroke-linecap:round;stroke-linejoin:round;" d="M237.192,422.896c0,0,0.083,0.833-0.25,1.083c-0.334,0.25-9.75-2.75-9.75-2.75s-0.083-0.834,0.25-1S237.192,422.896,237.192,422.896z"></path></g><g><path style="fill:#6E6E6E;stroke:#000000;stroke-linecap:round;stroke-linejoin:round;" d="M227.192,427.021c0,0-0.084,0.833,0.25,1.083c0.333,0.25,9.75-2.75,9.75-2.75s0.083-0.834-0.25-1S227.192,427.021,227.192,427.021z"></path><path style="fill:#6E6E6E;stroke:#000000;stroke-linecap:round;stroke-linejoin:round;" d="M237.192,427.021c0,0,0.083,0.833-0.25,1.083c-0.334,0.25-9.75-2.75-9.75-2.75s-0.083-0.834,0.25-1S237.192,427.021,237.192,427.021z"></path></g><g><path style="fill:#6E6E6E;stroke:#000000;stroke-linecap:round;stroke-linejoin:round;" d="M227.893,439.979c0,0-0.084,0.833,0.25,1.083c0.333,0.25,9.75-2.75,9.75-2.75s0.083-0.834-0.25-1S227.893,439.979,227.893,439.979z"></path><path style="fill:#6E6E6E;stroke:#000000;stroke-linecap:round;stroke-linejoin:round;" d="M237.893,439.979c0,0,0.083,0.833-0.25,1.083c-0.334,0.25-9.75-2.75-9.75-2.75s-0.083-0.834,0.25-1S237.893,439.979,237.893,439.979z"></path></g><path style="fill:#6E6E6E;stroke:#000000;stroke-linecap:round;stroke-linejoin:round;" d="M225.477,418c1.233,9.768,2.621,19.271,2.75,21.25c1.083,1.583,1.583,2.916,1.917,3.833c-1.167,0-2.015,0.093-2,0.417c0,0-1-2.417-2.834-2.834c-0.424-1.061-3.249-11.383-4.666-21.916c-1.368-10.161-1.336-20.554-1.417-21.167c1.667,1.334,5.75,1.917,5.75,1.917S225.143,407.833,225.477,418z"></path><path style="fill:#6E6E6E;stroke:#000000;stroke-linecap:round;stroke-linejoin:round;" d="M240.06,443.666c0,0-0.333-2.666-0.916-4.416c0.441-1.547,2.609-12.295,3.5-22.917c0.788-9.405,0.333-18.892,0.333-19.166c-1.333,1.5-4.334,2-4.334,2s-0.166,8.333-0.166,17.5c-0.886,10.794-1.78,22.566-1.917,22.749c0.5,1.25,1.084,3.917,1.084,3.917L240.06,443.666z"></path><path style="fill:#6E6E6E;stroke:#000000;stroke-linecap:round;stroke-linejoin:round;" d="M226.31,446.833c0,0,0.417,1.751,0.834,2.167c0.416,0.416,10.249,1.249,13.083-0.334c0.167-0.833,0.25-1.965,0.25-1.965S238.31,448,233.06,448S226.31,446.833,226.31,446.833z"></path><path style="fill:#6E6E6E;stroke:#000000;stroke-linecap:round;stroke-linejoin:round;" d="M226.326,446.449c0,0,2.417-2.333,7.667-2.25s6.417,1.5,6.417,1.5v-1.75c0,0-2.502-1.79-6.75-1.667c-5.75,0.167-7.584,2-7.584,2L226.326,446.449z"></path></g><g><path style="fill:#6E6E6E;stroke:#000000;stroke-linecap:round;stroke-linejoin:round;" d="M276.857,399.833c0,0-6.334-1.999-9.666-1.916c-3.334,0.083-7.25,1.666-7.25,1.666l1.332,44.083l9.668-0.416c0,0,2.332-3.75,2.332-4S276.857,399.833,276.857,399.833z"></path><g><path style="fill:#6E6E6E;stroke:#000000;stroke-linecap:round;stroke-linejoin:round;" d="M272.107,435.521c0,0,0.084,0.833-0.25,1.083c-0.332,0.25-9.75-2.75-9.75-2.75s-0.082-0.834,0.25-1C262.691,432.688,272.107,435.521,272.107,435.521z"></path><path style="fill:#6E6E6E;stroke:#000000;stroke-linecap:round;stroke-linejoin:round;" d="M262.107,435.521c0,0-0.082,0.833,0.25,1.083c0.334,0.25,9.75-2.75,9.75-2.75s0.084-0.834-0.25-1C271.525,432.688,262.107,435.521,262.107,435.521z"></path></g><g><path style="fill:#6E6E6E;stroke:#000000;stroke-linecap:round;stroke-linejoin:round;" d="M272.607,431.396c0,0,0.084,0.833-0.25,1.083c-0.332,0.25-9.75-2.75-9.75-2.75s-0.082-0.834,0.25-1C263.191,428.563,272.607,431.396,272.607,431.396z"></path><path style="fill:#6E6E6E;stroke:#000000;stroke-linecap:round;stroke-linejoin:round;" d="M262.607,431.396c0,0-0.082,0.833,0.25,1.083c0.334,0.25,9.75-2.75,9.75-2.75s0.084-0.834-0.25-1C272.025,428.563,262.607,431.396,262.607,431.396z"></path></g><g><path style="fill:#6E6E6E;stroke:#000000;stroke-linecap:round;stroke-linejoin:round;" d="M272.809,402.271c0,0,0.084,0.833-0.25,1.083s-9.75-2.75-9.75-2.75s-0.084-0.834,0.25-1C263.391,399.438,272.809,402.271,272.809,402.271z"></path><path style="fill:#6E6E6E;stroke:#000000;stroke-linecap:round;stroke-linejoin:round;" d="M262.809,402.271c0,0-0.084,0.833,0.25,1.083s9.75-2.75,9.75-2.75s0.082-0.834-0.25-1C272.225,399.438,262.809,402.271,262.809,402.271z"></path></g><g><path style="fill:#6E6E6E;stroke:#000000;stroke-linecap:round;stroke-linejoin:round;" d="M272.809,406.396c0,0,0.084,0.833-0.25,1.083s-9.75-2.75-9.75-2.75s-0.084-0.834,0.25-1C263.391,403.563,272.809,406.396,272.809,406.396z"></path><path style="fill:#6E6E6E;stroke:#000000;stroke-linecap:round;stroke-linejoin:round;" d="M262.809,406.396c0,0-0.084,0.833,0.25,1.083s9.75-2.75,9.75-2.75s0.082-0.834-0.25-1C272.225,403.563,262.809,406.396,262.809,406.396z"></path></g><g><path style="fill:#6E6E6E;stroke:#000000;stroke-linecap:round;stroke-linejoin:round;" d="M272.809,410.521c0,0,0.084,0.833-0.25,1.083s-9.75-2.75-9.75-2.75s-0.084-0.834,0.25-1C263.391,407.688,272.809,410.521,272.809,410.521z"></path><path style="fill:#6E6E6E;stroke:#000000;stroke-linecap:round;stroke-linejoin:round;" d="M262.809,410.521c0,0-0.084,0.833,0.25,1.083s9.75-2.75,9.75-2.75s0.082-0.834-0.25-1C272.225,407.688,262.809,410.521,262.809,410.521z"></path></g><g><path style="fill:#6E6E6E;stroke:#000000;stroke-linecap:round;stroke-linejoin:round;" d="M272.809,414.646c0,0,0.084,0.833-0.25,1.083s-9.75-2.75-9.75-2.75s-0.084-0.834,0.25-1C263.391,411.813,272.809,414.646,272.809,414.646z"></path><path style="fill:#6E6E6E;stroke:#000000;stroke-linecap:round;stroke-linejoin:round;" d="M262.809,414.646c0,0-0.084,0.833,0.25,1.083s9.75-2.75,9.75-2.75s0.082-0.834-0.25-1C272.225,411.813,262.809,414.646,262.809,414.646z"></path></g><g><path style="fill:#6E6E6E;stroke:#000000;stroke-linecap:round;stroke-linejoin:round;" d="M272.809,418.771c0,0,0.084,0.833-0.25,1.083s-9.75-2.75-9.75-2.75s-0.084-0.834,0.25-1C263.391,415.938,272.809,418.771,272.809,418.771z"></path><path style="fill:#6E6E6E;stroke:#000000;stroke-linecap:round;stroke-linejoin:round;" d="M262.809,418.771c0,0-0.084,0.833,0.25,1.083s9.75-2.75,9.75-2.75s0.082-0.834-0.25-1C272.225,415.938,262.809,418.771,262.809,418.771z"></path></g><g><path style="fill:#6E6E6E;stroke:#000000;stroke-linecap:round;stroke-linejoin:round;" d="M272.809,422.896c0,0,0.084,0.833-0.25,1.083s-9.75-2.75-9.75-2.75s-0.084-0.834,0.25-1C263.391,420.063,272.809,422.896,272.809,422.896z"></path><path style="fill:#6E6E6E;stroke:#000000;stroke-linecap:round;stroke-linejoin:round;" d="M262.809,422.896c0,0-0.084,0.833,0.25,1.083s9.75-2.75,9.75-2.75s0.082-0.834-0.25-1C272.225,420.063,262.809,422.896,262.809,422.896z"></path></g><g><path style="fill:#6E6E6E;stroke:#000000;stroke-linecap:round;stroke-linejoin:round;" d="M272.809,427.021c0,0,0.084,0.833-0.25,1.083s-9.75-2.75-9.75-2.75s-0.084-0.834,0.25-1C263.391,424.188,272.809,427.021,272.809,427.021z"></path><path style="fill:#6E6E6E;stroke:#000000;stroke-linecap:round;stroke-linejoin:round;" d="M262.809,427.021c0,0-0.084,0.833,0.25,1.083s9.75-2.75,9.75-2.75s0.082-0.834-0.25-1C272.225,424.188,262.809,427.021,262.809,427.021z"></path></g><g><path style="fill:#6E6E6E;stroke:#000000;stroke-linecap:round;stroke-linejoin:round;" d="M272.107,439.979c0,0,0.084,0.833-0.25,1.083c-0.332,0.25-9.75-2.75-9.75-2.75s-0.082-0.834,0.25-1C262.691,437.146,272.107,439.979,272.107,439.979z"></path><path style="fill:#6E6E6E;stroke:#000000;stroke-linecap:round;stroke-linejoin:round;" d="M262.107,439.979c0,0-0.082,0.833,0.25,1.083c0.334,0.25,9.75-2.75,9.75-2.75s0.084-0.834-0.25-1C271.525,437.146,262.107,439.979,262.107,439.979z"></path></g><path style="fill:#6E6E6E;stroke:#000000;stroke-linecap:round;stroke-linejoin:round;" d="M274.523,418c-1.232,9.768-2.621,19.271-2.75,21.25c-1.082,1.583-1.582,2.916-1.916,3.833c1.166,0,2.014,0.093,2,0.417c0,0,1-2.417,2.834-2.834c0.424-1.061,3.248-11.383,4.666-21.916c1.367-10.161,1.336-20.554,1.416-21.167c-1.666,1.334-5.75,1.917-5.75,1.917S274.857,407.833,274.523,418z"></path><path style="fill:#6E6E6E;stroke:#000000;stroke-linecap:round;stroke-linejoin:round;" d="M259.941,443.666c0,0,0.332-2.666,0.916-4.416c-0.441-1.547-2.609-12.295-3.5-22.917c-0.789-9.405-0.334-18.892-0.334-19.166c1.334,1.5,4.334,2,4.334,2s0.166,8.333,0.166,17.5c0.887,10.794,1.781,22.566,1.918,22.749c-0.5,1.25-1.084,3.917-1.084,3.917L259.941,443.666z"></path><path style="fill:#6E6E6E;stroke:#000000;stroke-linecap:round;stroke-linejoin:round;" d="M273.691,446.833c0,0-0.418,1.751-0.834,2.167s-10.25,1.249-13.084-0.334c-0.166-0.833-0.25-1.965-0.25-1.965s2.168,1.299,7.418,1.299S273.691,446.833,273.691,446.833z"></path><path style="fill:#6E6E6E;stroke:#000000;stroke-linecap:round;stroke-linejoin:round;" d="M273.674,446.449c0,0-2.416-2.333-7.666-2.25s-6.418,1.5-6.418,1.5v-1.75c0,0,2.502-1.79,6.75-1.667c5.75,0.167,7.584,2,7.584,2L273.674,446.449z"></path></g></g></g></svg>