<svg xmlns="http://www.w3.org/2000/svg" width="500" height="500" version="1.1"><g id="x025"><g><g><g><g><path style="fill:#6E6E6E;stroke:#000000;stroke-linecap:round;stroke-linejoin:round;" d="M224.718,438.766c0,0-0.676,6.764,2.029,9.47c-0.226,0.45,0.226,1.353,0.226,1.353s6.989,0.676,12.399,0c0.902-0.677,0.902-0.677,0.902-0.677s1.578-1.353,1.578-2.705s-0.901-3.833-0.901-3.833l-0.677-2.479c0,0,0.338-1.015-0.113-1.578c-0.451-0.563-2.029-2.142-6.989-2.142s-6.876,3.043-6.876,3.043L224.718,438.766z"></path><path style="fill:#6E6E6E;stroke:#000000;stroke-linecap:round;stroke-linejoin:round;" d="M234.188,439.217c-4.396,0.226-6.699,1.288-6.989,1.578c-0.563,0.563,0,1.466,0.564,2.255c0.563,0.789,3.607-0.789,7.327-0.563c3.72,0.226,6.087,0.901,6.087,0.45c0-0.45,0.113-1.916-0.676-2.254C240.119,440.519,238.578,438.991,234.188,439.217z"></path><line style="fill:none;stroke:#000000;stroke-linecap:round;stroke-linejoin:round;" x1="227.085" y1="447.896" x2="240.5" y2="447.896"></line><path style="fill:none;stroke:#000000;stroke-linecap:round;stroke-linejoin:round;" d="M226.296,439.217c0,0-0.451,0.677-0.338,1.24"></path></g></g><path style="fill:#6E6E6E;stroke:#000000;stroke-linecap:round;stroke-linejoin:round;" d="M223.172,431.375l0.375,2.188c0,0,14.876-0.188,16.813-0.375c0.25-0.938,0.188-2.25,0.188-2.25L223.172,431.375z"></path></g><g><g><g><path style="fill:#6E6E6E;stroke:#000000;stroke-linecap:round;stroke-linejoin:round;" d="M275.281,438.766c0,0,0.677,6.764-2.028,9.47c0.226,0.45-0.226,1.353-0.226,1.353s-6.989,0.676-12.4,0c-0.901-0.677-0.901-0.677-0.901-0.677s-1.578-1.353-1.578-2.705s0.901-3.833,0.901-3.833l0.677-2.479c0,0-0.338-1.015,0.112-1.578c0.451-0.563,2.029-2.142,6.989-2.142s6.876,3.043,6.876,3.043L275.281,438.766z"></path><path style="fill:#6E6E6E;stroke:#000000;stroke-linecap:round;stroke-linejoin:round;" d="M265.813,439.217c4.396,0.226,6.698,1.288,6.989,1.578c0.563,0.563,0,1.466-0.563,2.255s-3.607-0.789-7.327-0.563s-6.088,0.901-6.088,0.45c0-0.45-0.112-1.916,0.677-2.254C259.881,440.519,261.423,438.991,265.813,439.217z"></path><line style="fill:none;stroke:#000000;stroke-linecap:round;stroke-linejoin:round;" x1="272.914" y1="447.896" x2="259.5" y2="447.896"></line><path style="fill:none;stroke:#000000;stroke-linecap:round;stroke-linejoin:round;" d="M273.703,439.217c0,0,0.451,0.677,0.339,1.24"></path></g></g><path style="fill:#6E6E6E;stroke:#000000;stroke-linecap:round;stroke-linejoin:round;" d="M276.825,431.375l-0.375,2.188c0,0-14.871-0.188-16.809-0.375c-0.25-0.938-0.188-2.25-0.188-2.25L276.825,431.375z"></path></g></g></g></svg>