<svg xmlns="http://www.w3.org/2000/svg" width="500" height="500" version="1.1"><g id="x026"><g><g><g><path style="fill:#6E6E6E;stroke:#000000;stroke-linecap:round;stroke-linejoin:round;" d="M225.247,445.813c0,0-0.3,1.75,0.361,2.375c1.19,0.875,12.729,1.313,15.374,0.25c0.199-1.625-0.064-2.625-0.064-2.625H225.247z"></path><path style="fill:#6E6E6E;stroke:#000000;stroke-linecap:round;stroke-linejoin:round;" d="M223.276,432.417c0,0,4.166,0.417,9.083,0.417s7.917-1,7.917-1l0.417-1.25c0,0,0.969,1.086,0.917,1.5c-0.313,2.479-1.688,7.854-1.688,7.854s1.271,4.063,0.771,6.646c-1.833,0.667-13,0.437-15.271-0.334c-0.406-1.015-0.354-2.584-0.688-6c-1.675-3.203-2.438-5.313-2.875-7.666l1.083-1.833L223.276,432.417z"></path><path style="fill:none;stroke:#000000;stroke-linecap:round;stroke-linejoin:round;" d="M225.36,443.833c0,0,1-0.476,7.75-0.476s7.45,0.476,7.45,0.476"></path></g><path style="fill:#FFFFFF;stroke:#000000;stroke-linecap:round;stroke-linejoin:round;" d="M233.206,429.125c0,0-1.011,0.277-1.155,0.688c-0.33,0.938,0.349,1.563,0.349,1.563s-0.813,0.528-0.858,1.154s1.114,1.346,1.114,1.346s-0.25,1.251,0.552,1.482c0.802,0.232,1.458-0.711,1.458-0.711s0.249,0.879,0.834,1.064c0.585,0.187,0.853-0.774,0.853-0.774s0.499,1.059,1.115,1.061c0.615,0.001,1.325-0.93,1.325-0.93s0.56,0.688,1.333,0.406c0.773-0.283,0.878-1.277,0.878-1.277s0.565,0.309,1.23,0.004c0.665-0.306,0.157-2.001,0.157-2.001s0.477,0.163,0.912-0.444c0.434-0.608-0.36-1.755-0.36-1.755s0.68-0.212,0.667-1.168s-1.052-0.957-1.052-0.957s-0.055-1.313-0.99-1.188c-0.935,0.125-1.045,0.813-1.045,0.813s-0.495-1.063-1.32-0.938s-1.155,1.188-1.155,1.188s-0.715-0.813-1.32-0.688c-0.605,0.125-1.1,1.188-1.1,1.188s-0.935-1.063-1.706-0.75C233.15,427.813,233.206,429.125,233.206,429.125z"></path><path style="fill:#FFFFFF;stroke:#000000;stroke-linecap:round;stroke-linejoin:round;" d="M231.34,429.125c0,0,1.074,0.277,1.227,0.688c0.351,0.938-0.371,1.563-0.371,1.563s0.863,0.528,0.912,1.154s-1.184,1.346-1.184,1.346s0.265,1.251-0.586,1.482c-0.852,0.232-1.549-0.711-1.549-0.711s-0.264,0.879-0.886,1.064c-0.621,0.187-0.906-0.774-0.906-0.774s-0.53,1.059-1.184,1.061c-0.653,0.001-1.408-0.93-1.408-0.93s-0.595,0.688-1.416,0.406c-0.822-0.283-0.933-1.277-0.933-1.277s-0.601,0.309-1.307,0.004c-0.706-0.306-0.167-2.001-0.167-2.001s-0.507,0.163-0.968-0.444c-0.461-0.608,0.383-1.755,0.383-1.755s-0.722-0.212-0.708-1.168s1.118-0.957,1.118-0.957s0.058-1.313,1.052-1.188c0.993,0.125,1.11,0.813,1.11,0.813s0.526-1.063,1.402-0.938s1.227,1.188,1.227,1.188s0.759-0.813,1.402-0.688c0.643,0.125,1.168,1.188,1.168,1.188s0.993-1.063,1.812-0.75C231.399,427.813,231.34,429.125,231.34,429.125z"></path><g><g><path style="fill:#BF0000;stroke:#000000;stroke-linecap:round;stroke-linejoin:round;" d="M232.921,431.5c0,0-0.25,6.75-0.813,6.938c-0.875,0.063-1.875-0.125-1.875-0.125L232.921,431.5z"></path><path style="fill:#BF0000;stroke:#000000;stroke-linecap:round;stroke-linejoin:round;" d="M233.546,431.5c0,0,0.25,6.75,0.813,6.938c0.875,0.063,1.875-0.125,1.875-0.125L233.546,431.5z"></path></g><g><path style="fill:#BF0000;stroke:#000000;stroke-linecap:round;stroke-linejoin:round;" d="M232.996,430.375c0,0-4.063,3.125-3.875,3.75c1.063,1.188,1.688,1.75,2,1.563S232.996,430.375,232.996,430.375z"></path><path style="fill:#BF0000;stroke:#000000;stroke-linecap:round;stroke-linejoin:round;" d="M233.215,430.375c0,0,4.063,3.125,3.875,3.75c-1.063,1.188-1.688,1.75-2,1.563S233.215,430.375,233.215,430.375z"></path></g></g></g><g><g><path style="fill:#6E6E6E;stroke:#000000;stroke-linecap:round;stroke-linejoin:round;" d="M274.755,445.813c0,0,0.301,1.75-0.361,2.375c-1.189,0.875-12.729,1.313-15.373,0.25c-0.199-1.625,0.064-2.625,0.064-2.625H274.755z"></path><path style="fill:#6E6E6E;stroke:#000000;stroke-linecap:round;stroke-linejoin:round;" d="M276.726,432.417c0,0-4.166,0.417-9.083,0.417s-7.917-1-7.917-1l-0.416-1.25c0,0-0.969,1.086-0.917,1.5c0.313,2.479,1.688,7.854,1.688,7.854s-1.271,4.063-0.771,6.646c1.833,0.667,13,0.437,15.271-0.334c0.405-1.015,0.354-2.584,0.688-6c1.675-3.203,2.438-5.313,2.875-7.666l-1.083-1.833L276.726,432.417z"></path><path style="fill:none;stroke:#000000;stroke-linecap:round;stroke-linejoin:round;" d="M274.642,443.833c0,0-1-0.476-7.75-0.476s-7.449,0.476-7.449,0.476"></path></g><path style="fill:#FFFFFF;stroke:#000000;stroke-linecap:round;stroke-linejoin:round;" d="M266.796,429.125c0,0,1.012,0.277,1.155,0.688c0.33,0.938-0.349,1.563-0.349,1.563s0.813,0.528,0.857,1.154c0.047,0.626-1.113,1.346-1.113,1.346s0.249,1.251-0.553,1.482c-0.801,0.232-1.458-0.711-1.458-0.711s-0.249,0.879-0.834,1.064c-0.585,0.187-0.853-0.774-0.853-0.774s-0.5,1.059-1.115,1.061c-0.615,0.001-1.325-0.93-1.325-0.93s-0.56,0.688-1.333,0.406c-0.773-0.283-0.879-1.277-0.879-1.277s-0.564,0.309-1.23,0.004c-0.664-0.306-0.156-2.001-0.156-2.001s-0.478,0.163-0.912-0.444c-0.434-0.608,0.36-1.755,0.36-1.755s-0.68-0.212-0.667-1.168s1.053-0.957,1.053-0.957s0.055-1.313,0.99-1.188c0.935,0.125,1.045,0.813,1.045,0.813s0.495-1.063,1.32-0.938s1.155,1.188,1.155,1.188s0.715-0.813,1.32-0.688c0.604,0.125,1.101,1.188,1.101,1.188s0.935-1.063,1.705-0.75C266.851,427.813,266.796,429.125,266.796,429.125z"></path><path style="fill:#FFFFFF;stroke:#000000;stroke-linecap:round;stroke-linejoin:round;" d="M268.661,429.125c0,0-1.074,0.277-1.227,0.688c-0.352,0.938,0.37,1.563,0.37,1.563s-0.862,0.528-0.911,1.154s1.184,1.346,1.184,1.346s-0.266,1.251,0.586,1.482c0.852,0.232,1.549-0.711,1.549-0.711s0.264,0.879,0.886,1.064c0.621,0.187,0.905-0.774,0.905-0.774s0.531,1.059,1.185,1.061c0.653,0.001,1.407-0.93,1.407-0.93s0.596,0.688,1.416,0.406c0.822-0.283,0.934-1.277,0.934-1.277s0.6,0.309,1.307,0.004c0.706-0.306,0.167-2.001,0.167-2.001s0.507,0.163,0.968-0.444c0.461-0.608-0.383-1.755-0.383-1.755s0.723-0.212,0.709-1.168s-1.117-0.957-1.117-0.957s-0.059-1.313-1.053-1.188c-0.992,0.125-1.109,0.813-1.109,0.813s-0.526-1.063-1.402-0.938c-0.877,0.125-1.228,1.188-1.228,1.188s-0.759-0.813-1.402-0.688c-0.643,0.125-1.169,1.188-1.169,1.188s-0.992-1.063-1.811-0.75S268.661,429.125,268.661,429.125z"></path><g><g><path style="fill:#BF0000;stroke:#000000;stroke-linecap:round;stroke-linejoin:round;" d="M267.08,431.5c0,0,0.25,6.75,0.813,6.938c0.875,0.063,1.875-0.125,1.875-0.125L267.08,431.5z"></path><path style="fill:#BF0000;stroke:#000000;stroke-linecap:round;stroke-linejoin:round;" d="M266.455,431.5c0,0-0.25,6.75-0.813,6.938c-0.875,0.063-1.875-0.125-1.875-0.125L266.455,431.5z"></path></g><g><path style="fill:#BF0000;stroke:#000000;stroke-linecap:round;stroke-linejoin:round;" d="M267.005,430.375c0,0,4.063,3.125,3.875,3.75c-1.063,1.188-1.688,1.75-2,1.563S267.005,430.375,267.005,430.375z"></path><path style="fill:#BF0000;stroke:#000000;stroke-linecap:round;stroke-linejoin:round;" d="M266.786,430.375c0,0-4.063,3.125-3.875,3.75c1.063,1.188,1.688,1.75,2,1.563S266.786,430.375,266.786,430.375z"></path></g></g></g></g></g></svg>