<svg xmlns="http://www.w3.org/2000/svg" width="500" height="500" version="1.1"><g id="x027"><g><g><g><path style="fill:#6E6E6E;stroke:#000000;stroke-linecap:round;stroke-linejoin:round;" d="M225.08,445.813c0,0-0.3,1.75,0.361,2.375c1.19,0.875,12.729,1.313,15.374,0.25c0.199-1.625-0.064-2.625-0.064-2.625H225.08z"></path><path style="fill:#6E6E6E;stroke:#000000;stroke-linecap:round;stroke-linejoin:round;" d="M220.609,411.75c0,0,6.667,0.417,11.583,0.417s9.917-1,9.917-1l0.417-1.25c0,0,0.969,1.086,0.917,1.5c-0.131,1.038-0.275,7.083-0.609,10.583c-1.016,7.854-3.079,17.938-3.079,17.938s1.271,4.063,0.771,6.646c-1.833,0.667-13,0.437-15.271-0.334c-0.406-1.015-0.354-2.584-0.688-6c-1.675-3.203-4.938-25.979-5.375-28.333l1.083-1.833L220.609,411.75z"></path><path style="fill:none;stroke:#000000;stroke-linecap:round;stroke-linejoin:round;" d="M225.193,443.833c0,0,1-0.476,7.75-0.476s7.45,0.476,7.45,0.476"></path></g><path style="fill:#FFFFFF;stroke:#000000;stroke-linecap:round;stroke-linejoin:round;" d="M233.223,405.477c0,0-1.159,0.318-1.324,0.788c-0.378,1.075,0.4,1.791,0.4,1.791s-0.931,0.605-0.984,1.323c-0.053,0.717,1.277,1.542,1.277,1.542s-0.286,1.434,0.632,1.699c0.919,0.266,1.672-0.815,1.672-0.815s0.285,1.008,0.956,1.221c0.67,0.213,0.978-0.888,0.978-0.888s0.572,1.213,1.278,1.215c0.705,0.002,1.519-1.065,1.519-1.065s0.642,0.789,1.528,0.466c0.886-0.324,1.007-1.464,1.007-1.464s0.648,0.354,1.41,0.005c0.762-0.351,0.18-2.294,0.18-2.294s0.547,0.188,1.045-0.509c0.498-0.697-0.413-2.012-0.413-2.012s0.779-0.242,0.764-1.338c-0.014-1.096-1.206-1.098-1.206-1.098s-0.063-1.504-1.135-1.36c-1.071,0.144-1.198,0.931-1.198,0.931s-0.567-1.218-1.513-1.074s-1.324,1.361-1.324,1.361s-0.819-0.932-1.513-0.788c-0.693,0.144-1.261,1.361-1.261,1.361s-1.072-1.218-1.955-0.86C233.159,403.973,233.223,405.477,233.223,405.477z"></path><path style="fill:#FFFFFF;stroke:#000000;stroke-linecap:round;stroke-linejoin:round;" d="M231.085,405.477c0,0,1.231,0.318,1.406,0.788c0.402,1.075-0.425,1.791-0.425,1.791s0.989,0.605,1.045,1.323c0.056,0.717-1.356,1.542-1.356,1.542s0.304,1.434-0.672,1.699c-0.976,0.266-1.775-0.815-1.775-0.815s-0.302,1.008-1.015,1.221c-0.712,0.213-1.038-0.888-1.038-0.888s-0.608,1.213-1.357,1.215s-1.614-1.065-1.614-1.065s-0.682,0.789-1.622,0.466c-0.942-0.324-1.069-1.464-1.069-1.464s-0.688,0.354-1.498,0.005c-0.81-0.351-0.191-2.294-0.191-2.294s-0.581,0.188-1.11-0.509c-0.528-0.697,0.439-2.012,0.439-2.012s-0.828-0.242-0.812-1.338s1.281-1.098,1.281-1.098s0.066-1.504,1.206-1.36c1.138,0.144,1.272,0.931,1.272,0.931s0.603-1.218,1.607-1.074c1.005,0.144,1.406,1.361,1.406,1.361s0.871-0.932,1.607-0.788c0.736,0.144,1.339,1.361,1.339,1.361s1.138-1.218,2.076-0.86C231.152,403.973,231.085,405.477,231.085,405.477z"></path><g><g><path style="fill:#BF0000;stroke:#000000;stroke-linecap:round;stroke-linejoin:round;" d="M232.421,412.5c0,0-0.25,6.75-0.813,6.938c-0.875,0.063-1.875-0.125-1.875-0.125L232.421,412.5z"></path><path style="fill:#BF0000;stroke:#000000;stroke-linecap:round;stroke-linejoin:round;" d="M233.046,412.5c0,0,0.25,6.75,0.813,6.938c0.875,0.063,1.875-0.125,1.875-0.125L233.046,412.5z"></path></g><g><path style="fill:#BF0000;stroke:#000000;stroke-linecap:round;stroke-linejoin:round;" d="M232.496,411.375c0,0-4.063,3.125-3.875,3.75c1.063,1.188,1.688,1.75,2,1.563S232.496,411.375,232.496,411.375z"></path><path style="fill:#BF0000;stroke:#000000;stroke-linecap:round;stroke-linejoin:round;" d="M232.715,411.375c0,0,4.063,3.125,3.875,3.75c-1.063,1.188-1.688,1.75-2,1.563S232.715,411.375,232.715,411.375z"></path></g></g></g><g><g><path style="fill:#6E6E6E;stroke:#000000;stroke-linecap:round;stroke-linejoin:round;" d="M274.92,445.813c0,0,0.301,1.75-0.36,2.375c-1.19,0.875-12.729,1.313-15.374,0.25c-0.198-1.625,0.064-2.625,0.064-2.625H274.92z"></path><path style="fill:#6E6E6E;stroke:#000000;stroke-linecap:round;stroke-linejoin:round;" d="M279.392,411.75c0,0-6.667,0.417-11.583,0.417c-4.918,0-9.918-1-9.918-1l-0.416-1.25c0,0-0.969,1.086-0.916,1.5c0.131,1.038,0.275,7.083,0.608,10.583c1.017,7.854,3.079,17.938,3.079,17.938s-1.271,4.063-0.771,6.646c1.834,0.667,13,0.437,15.271-0.334c0.405-1.015,0.354-2.584,0.688-6c1.674-3.203,4.938-25.979,5.375-28.333l-1.084-1.833L279.392,411.75z"></path><path style="fill:none;stroke:#000000;stroke-linecap:round;stroke-linejoin:round;" d="M274.807,443.833c0,0-1-0.476-7.75-0.476s-7.449,0.476-7.449,0.476"></path></g><path style="fill:#FFFFFF;stroke:#000000;stroke-linecap:round;stroke-linejoin:round;" d="M266.777,405.477c0,0,1.16,0.318,1.324,0.788c0.379,1.075-0.4,1.791-0.4,1.791s0.932,0.605,0.984,1.323c0.053,0.717-1.277,1.542-1.277,1.542s0.287,1.434-0.632,1.699s-1.672-0.815-1.672-0.815s-0.284,1.008-0.956,1.221c-0.67,0.213-0.977-0.888-0.977-0.888s-0.572,1.213-1.278,1.215c-0.705,0.002-1.519-1.065-1.519-1.065s-0.643,0.789-1.527,0.466c-0.887-0.324-1.008-1.464-1.008-1.464s-0.647,0.354-1.41,0.005c-0.762-0.351-0.18-2.294-0.18-2.294s-0.547,0.188-1.045-0.509c-0.498-0.697,0.413-2.012,0.413-2.012s-0.778-0.242-0.765-1.338c0.015-1.096,1.206-1.098,1.206-1.098s0.063-1.504,1.136-1.36c1.07,0.144,1.197,0.931,1.197,0.931s0.567-1.218,1.514-1.074c0.945,0.144,1.324,1.361,1.324,1.361s0.818-0.932,1.513-0.788c0.693,0.144,1.261,1.361,1.261,1.361s1.072-1.218,1.955-0.86C266.842,403.973,266.777,405.477,266.777,405.477z"></path><path style="fill:#FFFFFF;stroke:#000000;stroke-linecap:round;stroke-linejoin:round;" d="M268.916,405.477c0,0-1.231,0.318-1.406,0.788c-0.402,1.075,0.424,1.791,0.424,1.791s-0.988,0.605-1.045,1.323c-0.055,0.717,1.357,1.542,1.357,1.542s-0.305,1.434,0.672,1.699c0.976,0.266,1.775-0.815,1.775-0.815s0.302,1.008,1.015,1.221c0.712,0.213,1.038-0.888,1.038-0.888s0.607,1.213,1.357,1.215c0.748,0.002,1.613-1.065,1.613-1.065s0.682,0.789,1.622,0.466c0.942-0.324,1.069-1.464,1.069-1.464s0.688,0.354,1.498,0.005c0.81-0.351,0.191-2.294,0.191-2.294s0.581,0.188,1.109-0.509c0.529-0.697-0.438-2.012-0.438-2.012s0.827-0.242,0.812-1.338s-1.28-1.098-1.28-1.098s-0.066-1.504-1.206-1.36c-1.138,0.144-1.271,0.931-1.271,0.931s-0.604-1.218-1.607-1.074c-1.005,0.144-1.406,1.361-1.406,1.361s-0.871-0.932-1.607-0.788s-1.34,1.361-1.34,1.361s-1.138-1.218-2.076-0.86C268.849,403.973,268.916,405.477,268.916,405.477z"></path><g><g><path style="fill:#BF0000;stroke:#000000;stroke-linecap:round;stroke-linejoin:round;" d="M267.579,412.5c0,0,0.25,6.75,0.813,6.938c0.875,0.063,1.875-0.125,1.875-0.125L267.579,412.5z"></path><path style="fill:#BF0000;stroke:#000000;stroke-linecap:round;stroke-linejoin:round;" d="M266.954,412.5c0,0-0.25,6.75-0.813,6.938c-0.875,0.063-1.875-0.125-1.875-0.125L266.954,412.5z"></path></g><g><path style="fill:#BF0000;stroke:#000000;stroke-linecap:round;stroke-linejoin:round;" d="M267.504,411.375c0,0,4.063,3.125,3.875,3.75c-1.063,1.188-1.688,1.75-2,1.563S267.504,411.375,267.504,411.375z"></path><path style="fill:#BF0000;stroke:#000000;stroke-linecap:round;stroke-linejoin:round;" d="M267.285,411.375c0,0-4.063,3.125-3.875,3.75c1.063,1.188,1.688,1.75,2,1.563S267.285,411.375,267.285,411.375z"></path></g></g></g></g></g></svg>