<svg xmlns="http://www.w3.org/2000/svg" width="500" height="500" version="1.1"><g id="x028"><g><g><path style="fill:#6E6E6E;stroke:#000000;stroke-linecap:round;stroke-linejoin:round;" d="M242.758,396.833c-3.833-0.166-23.1-0.166-23.1-0.166s0.1,6.834,0.1,9s0.667,7.333,0.667,7.333l22.235-1C242.661,412,243.258,400.166,242.758,396.833z"></path><path style="fill:#505050;" d="M234.258,398.167h7.167c0,0,0.001,10.166-0.333,11.333c-3.167,0.5-7.167,0-7.167,0L234.258,398.167z"></path><path style="fill:#6E6E6E;stroke:#000000;stroke-linecap:round;stroke-linejoin:round;" d="M243.308,397.51c0,0,1.597-2.485,1.242-4.615c-1.42-0.533-10.292-1.062-10.292-1.062l-15.628,1.416l0.887,4.084L243.308,397.51z"></path><path style="fill:#FFFFFF;" d="M233.842,396.688l0.25-3.854c0,0-6.25,0.479-7.438,1.104c1.063,0.625,1.188,2.5,0.688,2.813C229.092,396.563,233.842,396.688,233.842,396.688z"></path><path style="fill:#505050;" d="M234.092,392.833l-0.167,4l9.167,0.199c0,0,1.166-2.533,0.833-3.699C242.258,393,234.092,392.833,234.092,392.833z"></path><path style="fill:#6E6E6E;stroke:#000000;stroke-linecap:round;stroke-linejoin:round;" d="M240.758,444.667c0,0,0.666,2.5,0,3.167s-11.332,1.332-13.999-0.001c-0.5-1.166-0.667-2.332-0.667-2.332s3.667-3.666,8-3.5S240.758,444.667,240.758,444.667z"></path><path style="fill:#505050;" d="M234.425,448.166c0,0,4.979,0.105,5.979-0.729c0.833-2.167-0.813-6.271-0.813-6.271s-2.167-3-5.667-2.583C235.092,441.833,235.758,445.166,234.425,448.166z"></path><path style="fill:#6E6E6E;stroke:#000000;stroke-linecap:round;stroke-linejoin:round;" d="M239.592,439.834c0,0,1.332,3.833,1.166,4.833c-0.666-0.417-3.152-0.21-5.666-0.001c-6,0.5-8.917,1.5-8.917,1.5s-1.083-3.166-1.083-4.666C226.425,440,236.426,436.667,239.592,439.834z"></path><path style="fill:#FFFFFF;" d="M230.717,444.563c0,0,0-1.875,1.063-2.688c-0.938-0.563-4.125,0.938-4.125,0.938S229.717,444.625,230.717,444.563z"></path><path style="fill:#505050;" d="M235.03,444.188c0,0-0.063-2.563-0.5-2.938c1.375-0.188,4.563-0.48,5.063-0.084c0.188,0.834,0.563,2.771,0.563,2.771L235.03,444.188z"></path><path style="fill:#6E6E6E;stroke:#000000;stroke-linecap:round;stroke-linejoin:round;" d="M242.758,413.167c0,0,0.001,5.666-0.666,10.5c-0.319,2.316-0.83,5.396-1.275,7.978c0.358,1.605,0.608,2.521,0.525,2.688c-0.25,0.583-1.417,2.334-1.417,2.334l0.5,2.5l-0.833,1.5c0,0-2.167-0.333-5.167,0s-8.833,1.334-8.833,1.334s-1.167-1-1.167-1.667s0.333-1.667,0.333-1.667s-1.166-1.667-1.499-2.834c-0.084-0.084,0.25-0.667,0.416-2.667c-0.646-2.974-1.399-5.961-1.75-8.499c-0.667-4.833-1.5-11.666-1.5-11.666L242.758,413.167z"></path><path style="fill:#505050;" d="M238.842,440.188c0,0-7.375,0.125-10.563,0.875c1.125-1.063,3.541-2.521,5.646-2.479S238.842,440.188,238.842,440.188z"></path><path style="fill:#505050;" d="M240.925,414.833c0,0-1.333,15.834-1.833,16.667c0.5,0.833,0.5,2,0.5,2l-0.834,2.167l-4.666-0.167l0.625-2.5l-0.625-2c0,0,0.333-11.667-0.167-14.5c1.5-3,1.667-3.833,1.667-3.833L240.925,414.833z"></path><path style="fill:#6E6E6E;stroke:#000000;stroke-linecap:round;stroke-linejoin:round;" d="M233.967,414.5c0,0,0.875,12.5,0.125,16.5c0.375,1.375,0.625,2,0.625,2l-0.375,1.375"></path><path style="fill:#6E6E6E;stroke:#000000;stroke-linecap:round;stroke-linejoin:round;" d="M242.592,414.167c0,0,1.499-2.333,1.166-4.333c-1.333-0.5-11.333-1-11.333-1l-13,1.333l0.833,3.834L242.592,414.167z"></path><path style="fill:#505050;" d="M243.092,410.333c0,0-0.333,2.667-1,3.167c-1.5,0.333-4.667-0.5-4.667-0.5l0.667-3L243.092,410.333z"></path><path style="fill:#6E6E6E;stroke:#000000;stroke-linecap:round;stroke-linejoin:round;" d="M239.842,436c0,0,1.25,2.332,1.25,2.916s-0.833,2-0.833,2s-2.834-2.583-6.334-2.333s-7.666,3.25-8.5,4.25c-1.166-0.833-2.166-2.333-2.166-2.333l1-2.584c0,0,5.166-3.083,9.5-3.083S239.842,436,239.842,436z"></path><path style="fill:#505050;" d="M239.342,439.813l0.5-1.188l-1.063-2.5c0,0-2.063-1-4.313-0.75c0.438,1.063,0.375,2.5,0.188,2.688C235.592,438.25,238.842,439,239.342,439.813z"></path><path style="fill:#6E6E6E;stroke:#000000;stroke-linecap:round;stroke-linejoin:round;" d="M233.918,397.442c0.949,0,7.259,6.48,7.628,9.812c0.28,2.533-5.73,10.237-7.628,10.237s-7.908-7.704-7.628-10.237C226.66,403.923,232.97,397.442,233.918,397.442z"></path><path style="fill:#FFFFFF;" d="M234.592,407.833c0,0-0.25-9.771-0.688-9.771s-4.188,4-4.125,4.625S233.842,407.729,234.592,407.833z"></path><path style="fill:#505050;" d="M234.258,398.167c0,0.5,0.334,9.666,0.334,9.666h-7.834c0,0,4.066,7.167,7.232,9.167c3.666-3,6.435-6.666,6.935-9.333C240.092,404,234.258,398.167,234.258,398.167z"></path></g><g><path style="fill:#6E6E6E;stroke:#000000;stroke-linecap:round;stroke-linejoin:round;" d="M257.241,396.833c3.833-0.166,23.1-0.166,23.1-0.166s-0.1,6.834-0.1,9S279.574,413,279.574,413l-22.235-1C257.339,412,256.741,400.166,257.241,396.833z"></path><path style="fill:#505050;" d="M265.741,398.167h-7.167c0,0-0.001,10.166,0.333,11.333c3.167,0.5,7.167,0,7.167,0L265.741,398.167z"></path><path style="fill:#6E6E6E;stroke:#000000;stroke-linecap:round;stroke-linejoin:round;" d="M256.691,397.51c0,0-1.597-2.485-1.242-4.615c1.42-0.533,10.292-1.062,10.292-1.062l15.628,1.416l-0.887,4.084L256.691,397.51z"></path><path style="fill:#FFFFFF;" d="M266.157,396.688l-0.25-3.854c0,0,6.25,0.479,7.438,1.104c-1.063,0.625-1.188,2.5-0.688,2.813C270.907,396.563,266.157,396.688,266.157,396.688z"></path><path style="fill:#505050;" d="M265.907,392.833l0.167,4l-9.167,0.199c0,0-1.166-2.533-0.833-3.699C257.741,393,265.907,392.833,265.907,392.833z"></path><path style="fill:#6E6E6E;stroke:#000000;stroke-linecap:round;stroke-linejoin:round;" d="M259.241,444.667c0,0-0.666,2.5,0,3.167s11.332,1.332,13.999-0.001c0.5-1.166,0.667-2.332,0.667-2.332s-3.667-3.666-8-3.5S259.241,444.667,259.241,444.667z"></path><path style="fill:#505050;" d="M265.574,448.166c0,0-4.979,0.105-5.979-0.729c-0.833-2.167,0.813-6.271,0.813-6.271s2.167-3,5.667-2.583C264.907,441.833,264.241,445.166,265.574,448.166z"></path><path style="fill:#6E6E6E;stroke:#000000;stroke-linecap:round;stroke-linejoin:round;" d="M260.407,439.834c0,0-1.332,3.833-1.166,4.833c0.666-0.417,3.152-0.21,5.666-0.001c6,0.5,8.917,1.5,8.917,1.5s1.083-3.166,1.083-4.666C273.574,440,263.573,436.667,260.407,439.834z"></path><path style="fill:#FFFFFF;" d="M269.282,444.563c0,0,0-1.875-1.063-2.688c0.938-0.563,4.125,0.938,4.125,0.938S270.282,444.625,269.282,444.563z"></path><path style="fill:#505050;" d="M264.97,444.188c0,0,0.063-2.563,0.5-2.938c-1.375-0.188-4.563-0.48-5.063-0.084c-0.188,0.834-0.563,2.771-0.563,2.771L264.97,444.188z"></path><path style="fill:#6E6E6E;stroke:#000000;stroke-linecap:round;stroke-linejoin:round;" d="M257.241,413.167c0,0-0.001,5.666,0.666,10.5c0.319,2.316,0.83,5.396,1.275,7.978c-0.358,1.605-0.608,2.521-0.525,2.688c0.25,0.583,1.417,2.334,1.417,2.334l-0.5,2.5l0.833,1.5c0,0,2.167-0.333,5.167,0s8.833,1.334,8.833,1.334s1.167-1,1.167-1.667s-0.333-1.667-0.333-1.667s1.166-1.667,1.499-2.834c0.084-0.084-0.25-0.667-0.416-2.667c0.646-2.974,1.399-5.961,1.75-8.499c0.667-4.833,1.5-11.666,1.5-11.666L257.241,413.167z"></path><path style="fill:#505050;" d="M261.157,440.188c0,0,7.375,0.125,10.563,0.875c-1.125-1.063-3.541-2.521-5.646-2.479S261.157,440.188,261.157,440.188z"></path><path style="fill:#505050;" d="M259.074,414.833c0,0,1.333,15.834,1.833,16.667c-0.5,0.833-0.5,2-0.5,2l0.834,2.167l4.666-0.167l-0.625-2.5l0.625-2c0,0-0.333-11.667,0.167-14.5c-1.5-3-1.667-3.833-1.667-3.833L259.074,414.833z"></path><path style="fill:#6E6E6E;stroke:#000000;stroke-linecap:round;stroke-linejoin:round;" d="M266.032,414.5c0,0-0.875,12.5-0.125,16.5c-0.375,1.375-0.625,2-0.625,2l0.375,1.375"></path><path style="fill:#6E6E6E;stroke:#000000;stroke-linecap:round;stroke-linejoin:round;" d="M257.407,414.167c0,0-1.499-2.333-1.166-4.333c1.333-0.5,11.333-1,11.333-1l13,1.333l-0.833,3.834L257.407,414.167z"></path><path style="fill:#505050;" d="M256.907,410.333c0,0,0.333,2.667,1,3.167c1.5,0.333,4.667-0.5,4.667-0.5l-0.667-3L256.907,410.333z"></path><path style="fill:#6E6E6E;stroke:#000000;stroke-linecap:round;stroke-linejoin:round;" d="M260.157,436c0,0-1.25,2.332-1.25,2.916s0.833,2,0.833,2s2.834-2.583,6.334-2.333s7.666,3.25,8.5,4.25c1.166-0.833,2.166-2.333,2.166-2.333l-1-2.584c0,0-5.166-3.083-9.5-3.083S260.157,436,260.157,436z"></path><path style="fill:#505050;" d="M260.657,439.813l-0.5-1.188l1.063-2.5c0,0,2.063-1,4.313-0.75c-0.438,1.063-0.375,2.5-0.188,2.688C264.407,438.25,261.157,439,260.657,439.813z"></path><path style="fill:#6E6E6E;stroke:#000000;stroke-linecap:round;stroke-linejoin:round;" d="M266.081,397.442c-0.949,0-7.259,6.48-7.628,9.812c-0.28,2.533,5.73,10.237,7.628,10.237s7.908-7.704,7.628-10.237C273.34,403.923,267.029,397.442,266.081,397.442z"></path><path style="fill:#FFFFFF;" d="M265.407,407.833c0,0,0.25-9.771,0.688-9.771s4.188,4,4.125,4.625S266.157,407.729,265.407,407.833z"></path><path style="fill:#505050;" d="M265.741,398.167c0,0.5-0.334,9.666-0.334,9.666h7.834c0,0-4.066,7.167-7.232,9.167c-3.666-3-6.435-6.666-6.935-9.333C259.907,404,265.741,398.167,265.741,398.167z"></path></g></g></g></svg>