<svg xmlns="http://www.w3.org/2000/svg" width="500" height="500" version="1.1"><g id="x029"><g><g><path style="fill:#6E6E6E;stroke:#000000;stroke-linecap:round;stroke-linejoin:round;" d="M227.691,449.604c1.875,0.813,12.125,0.688,12.688-0.625c0.75-1.813,0.063-1.75,0.063-1.75s-0.504,0.799-6.441,1.021c-6.688,0.25-7.747-0.896-7.747-0.896S226.075,448.904,227.691,449.604z"></path><g><path style="fill:#6E6E6E;stroke:#000000;stroke-linecap:round;stroke-linejoin:round;" d="M234,447.146c0,0-6.048-2.021-7.989-1.146c-0.338-0.625-0.023-1.959,0.315-2.084C229.306,443.291,233.391,445.396,234,447.146z"></path><path style="fill:#6E6E6E;stroke:#000000;stroke-linecap:round;stroke-linejoin:round;" d="M234.041,447.161c0,0,4.883-2.396,6.565-1.646c0.235-0.645-0.129-1.955-0.42-2.058C237.658,443.022,234.416,445.378,234.041,447.161z"></path><path style="fill:#6E6E6E;stroke:#000000;stroke-linecap:round;stroke-linejoin:round;" d="M233.396,448.438c-0.188-0.563-0.563-1.938-0.313-3.063c0.25-0.188,1.563-0.25,1.688,0.125s0.438,2.875-0.063,3.063S233.396,448.438,233.396,448.438z"></path></g></g><g><path style="fill:#6E6E6E;stroke:#000000;stroke-linecap:round;stroke-linejoin:round;" d="M272.485,449.604c-1.875,0.813-12.125,0.688-12.688-0.625c-0.75-1.813-0.063-1.75-0.063-1.75s0.505,0.799,6.44,1.021c6.688,0.25,7.747-0.896,7.747-0.896S274.102,448.904,272.485,449.604z"></path><g><path style="fill:#6E6E6E;stroke:#000000;stroke-linecap:round;stroke-linejoin:round;" d="M266.176,447.146c0,0,6.049-2.021,7.989-1.146c0.339-0.625,0.022-1.959-0.315-2.084C270.871,443.291,266.785,445.396,266.176,447.146z"></path><path style="fill:#6E6E6E;stroke:#000000;stroke-linecap:round;stroke-linejoin:round;" d="M266.136,447.161c0,0-4.884-2.396-6.565-1.646c-0.234-0.645,0.129-1.955,0.421-2.058C262.519,443.022,265.761,445.378,266.136,447.161z"></path><path style="fill:#6E6E6E;stroke:#000000;stroke-linecap:round;stroke-linejoin:round;" d="M266.781,448.438c0.188-0.563,0.563-1.938,0.313-3.063c-0.25-0.188-1.563-0.25-1.688,0.125s-0.438,2.875,0.063,3.063S266.781,448.438,266.781,448.438z"></path></g></g></g></g></svg>