<svg xmlns="http://www.w3.org/2000/svg" width="500" height="500" version="1.1"><g id="x003"><g><g><path style="fill:#6E6E6E;stroke:#000000;stroke-linecap:round;stroke-linejoin:round;" d="M225.66,444.563c0,0,0.25,3.648,0.938,4.322s11.625,1.796,13.75-0.562c0.063-1.459-0.063-2.525-0.063-2.525L225.66,444.563z"></path><path style="fill:#6E6E6E;stroke:#000000;stroke-linecap:round;stroke-linejoin:round;" d="M226.135,442c0,0,0.5-1.375,1.375-2s9.313-0.85,10.125-0.35s1.875,1.912,1.875,1.912c-0.063-0.375-0.063-2.125-0.063-2.375s-1.063-1.662-1.688-1.912s-9.313-0.588-10.875,0.662c-1.029,0.823-1.625,2.813-1.625,3.063S226.135,442,226.135,442z"></path><path style="fill:#6E6E6E;stroke:#000000;stroke-linecap:round;stroke-linejoin:round;" d="M225.26,440.875c0,0,0.25,4.375,1.813,6.375c1.563,0.688,11.125,0.813,12.75-0.25c0.813-1.625,0.313-5-0.625-6.5c0.188,1.25,0.125,2.625,0.125,2.625s-2.813-1-5.938-0.75s-5.125,0.938-5.125,0.938S226.197,443.063,225.26,440.875z"></path><path style="fill:#6E6E6E;stroke:#000000;stroke-linecap:round;stroke-linejoin:round;" d="M226.572,438c0,0,1.188-0.688,1.5-0.5s0.75,2.063,0.75,2.063s-1.313,0.688-1.5,0.438S226.572,438,226.572,438z"></path></g><g><path style="fill:#6E6E6E;stroke:#000000;stroke-linecap:round;stroke-linejoin:round;" d="M274.338,444.563c0,0-0.25,3.648-0.938,4.322s-11.625,1.796-13.75-0.562c-0.063-1.459,0.063-2.525,0.063-2.525L274.338,444.563z"></path><path style="fill:#6E6E6E;stroke:#000000;stroke-linecap:round;stroke-linejoin:round;" d="M273.863,442c0,0-0.5-1.375-1.375-2s-9.313-0.85-10.125-0.35s-1.875,1.912-1.875,1.912c0.063-0.375,0.063-2.125,0.063-2.375s1.063-1.662,1.688-1.912s9.313-0.588,10.875,0.662c1.029,0.823,1.625,2.813,1.625,3.063S273.863,442,273.863,442z"></path><path style="fill:#6E6E6E;stroke:#000000;stroke-linecap:round;stroke-linejoin:round;" d="M274.738,440.875c0,0-0.25,4.375-1.813,6.375c-1.563,0.688-11.125,0.813-12.75-0.25c-0.813-1.625-0.313-5,0.625-6.5c-0.188,1.25-0.125,2.625-0.125,2.625s2.813-1,5.938-0.75s5.125,0.938,5.125,0.938S273.801,443.063,274.738,440.875z"></path><path style="fill:#6E6E6E;stroke:#000000;stroke-linecap:round;stroke-linejoin:round;" d="M273.426,438c0,0-1.188-0.688-1.5-0.5s-0.75,2.063-0.75,2.063s1.313,0.688,1.5,0.438S273.426,438,273.426,438z"></path></g></g></g></svg>