<svg xmlns="http://www.w3.org/2000/svg" width="500" height="500" version="1.1"><g id="x030"><g><g><path style="fill:#3F3F3F;stroke:#000000;stroke-linecap:round;stroke-linejoin:round;" d="M228.222,454.219c1.875,0.813,11.125,0.688,11.688-0.625c0.75-1.813,0.562-6.114,0.562-6.114s-0.504,1.132-6.441,1.354c-6.688,0.25-7.747-1.229-7.747-1.229S226.606,453.519,228.222,454.219z"></path><path style="fill:#6E6E6E;" d="M227.197,449c0,0,0.251,3.28,1.167,4.53c-0.5-2.166,0.749-2.447,2.833-3.53C228.447,450,227.197,449,227.197,449z"></path><path style="fill:#6E6E6E;stroke:#000000;stroke-linecap:round;stroke-linejoin:round;" d="M233.948,448.25c-4.167,0-7.25-0.75-7.25-0.75s0.916,2.333,7.583,2s6.333-2.417,6.333-2.417S238.115,448.25,233.948,448.25z"></path><g><path style="fill:#6E6E6E;stroke:#000000;stroke-linecap:round;stroke-linejoin:round;" d="M234.031,447.146c0,0-3.537-1.434-5.917-1.479c-1.005-0.019-1.5,0.583-1.833,1.166c-0.338-0.625-0.333-2.083,0.75-3C230.01,443.208,233.421,445.396,234.031,447.146z"></path><path style="fill:#6E6E6E;stroke:#000000;stroke-linecap:round;stroke-linejoin:round;" d="M234.071,447.161c0,0,1.855-0.805,3.876-1.244c0.845-0.184,2.004,0.529,2.5,0.75c0.235-0.645-0.292-2.731-0.583-2.834C236.114,443.416,234.446,445.378,234.071,447.161z"></path><path style="fill:#6E6E6E;stroke:#000000;stroke-linecap:round;stroke-linejoin:round;" d="M233.426,448.438c-0.188-0.563-0.563-1.938-0.313-3.063c0.25-0.188,1.563-0.25,1.688,0.125s0.438,2.875-0.063,3.063S233.426,448.438,233.426,448.438z"></path></g><path style="fill:#212121;stroke:#000000;stroke-linecap:round;stroke-linejoin:round;" d="M228.813,454.325c0,0,2.317-0.692,2.43-2.521c2.526-0.346,6.504-0.166,6.504-0.166s0.89,1.616,1.972,2.288C238.285,454.776,232.245,455.539,228.813,454.325z"></path></g><g><path style="fill:#3F3F3F;stroke:#000000;stroke-linecap:round;stroke-linejoin:round;" d="M271.779,454.219c-1.875,0.813-11.125,0.688-11.688-0.625c-0.75-1.813-0.563-6.114-0.563-6.114s0.504,1.132,6.441,1.354c6.688,0.25,7.746-1.229,7.746-1.229S273.395,453.519,271.779,454.219z"></path><path style="fill:#6E6E6E;" d="M272.805,449c0,0-0.252,3.28-1.168,4.53c0.5-2.166-0.75-2.447-2.832-3.53C271.555,450,272.805,449,272.805,449z"></path><path style="fill:#6E6E6E;stroke:#000000;stroke-linecap:round;stroke-linejoin:round;" d="M266.053,448.25c4.168,0,7.25-0.75,7.25-0.75s-0.916,2.333-7.582,2c-6.668-0.333-6.334-2.417-6.334-2.417S261.887,448.25,266.053,448.25z"></path><g><path style="fill:#6E6E6E;stroke:#000000;stroke-linecap:round;stroke-linejoin:round;" d="M265.971,447.146c0,0,3.537-1.434,5.916-1.479c1.006-0.019,1.5,0.583,1.834,1.166c0.338-0.625,0.332-2.083-0.75-3C269.992,443.208,266.58,445.396,265.971,447.146z"></path><path style="fill:#6E6E6E;stroke:#000000;stroke-linecap:round;stroke-linejoin:round;" d="M265.93,447.161c0,0-1.855-0.805-3.877-1.244c-0.844-0.184-2.004,0.529-2.5,0.75c-0.234-0.645,0.293-2.731,0.584-2.834C263.887,443.416,265.555,445.378,265.93,447.161z"></path><path style="fill:#6E6E6E;stroke:#000000;stroke-linecap:round;stroke-linejoin:round;" d="M266.574,448.438c0.188-0.563,0.563-1.938,0.313-3.063c-0.25-0.188-1.563-0.25-1.688,0.125s-0.438,2.875,0.063,3.063S266.574,448.438,266.574,448.438z"></path></g><path style="fill:#212121;stroke:#000000;stroke-linecap:round;stroke-linejoin:round;" d="M271.188,454.325c0,0-2.316-0.692-2.43-2.521c-2.525-0.346-6.504-0.166-6.504-0.166s-0.889,1.616-1.971,2.288C261.717,454.776,267.756,455.539,271.188,454.325z"></path></g></g></g></svg>