<svg xmlns="http://www.w3.org/2000/svg" width="500" height="500" version="1.1"><g id="x031"><g><g><g id="left_4_"><g><path style="fill:#FFED7D;stroke:#000000;stroke-linecap:round;stroke-linejoin:round;" d="M223.384,432.633c0,0,0.093,0.952,0.554,1.27c0.462,0.316,4.081,0.635,7.809,0.635s7.589-0.318,8.05-0.635c0.461-0.317,0.553-1.27,0.553-1.27s2.091,2.538,2.184,3.331c0.092,0.794-1.354,2.855-1.354,2.855s-2.739,1.189-9.193,1.189s-8.883-0.793-8.883-0.793s-1.676-2.696-1.583-3.489S223.384,432.633,223.384,432.633z"></path><path style="fill:#FFFFFF;" d="M240.393,434.012l1.269,2.063c0,0,0.317,1.11-10.23,0.872c1.031-0.238,4.679-0.159,4.362-1.744C237.062,435.36,240.075,435.202,240.393,434.012z"></path><path style="fill:#BD9442;" d="M222.489,435.87c0,0,0.821,2.402,1.493,2.701c1.344,0.298,5.598,1.03,8.732,0.583c-1.119-0.747-1.343-1.717-0.522-2.239C227.192,437.064,223.46,436.542,222.489,435.87z"></path></g></g></g><g><g id="left_36_"><g><path style="fill:#FFED7D;stroke:#000000;stroke-linecap:round;stroke-linejoin:round;" d="M276.616,432.633c0,0-0.093,0.952-0.554,1.27c-0.462,0.316-4.081,0.635-7.809,0.635s-7.589-0.318-8.05-0.635c-0.461-0.317-0.553-1.27-0.553-1.27s-2.091,2.538-2.184,3.331c-0.092,0.794,1.354,2.855,1.354,2.855s2.739,1.189,9.193,1.189s8.883-0.793,8.883-0.793s1.676-2.696,1.583-3.489S276.616,432.633,276.616,432.633z"></path><path style="fill:#FFFFFF;" d="M259.607,434.012l-1.269,2.063c0,0-0.317,1.11,10.23,0.872c-1.031-0.238-4.679-0.159-4.362-1.744C262.938,435.36,259.925,435.202,259.607,434.012z"></path><path style="fill:#BD9442;" d="M277.511,435.87c0,0-0.821,2.402-1.493,2.701c-1.344,0.298-5.598,1.03-8.732,0.583c1.119-0.747,1.343-1.717,0.522-2.239C272.808,437.064,276.54,436.542,277.511,435.87z"></path></g></g></g></g></g></svg>