<svg xmlns="http://www.w3.org/2000/svg" width="500" height="500" version="1.1"><g id="x032"><g><g><g id="left_2_"><g><path style="fill:#FFED7D;stroke:#000000;stroke-linecap:round;stroke-linejoin:round;" d="M223.384,432.633c0,0,0.093,0.952,0.554,1.27c0.462,0.316,4.081,0.635,7.809,0.635s7.589-0.318,8.05-0.635c0.461-0.317,0.553-1.27,0.553-1.27s2.091,2.538,2.184,3.331c0.092,0.794-1.354,2.855-1.354,2.855s-2.739,1.189-9.193,1.189s-8.883-0.793-8.883-0.793s-1.676-2.696-1.583-3.489S223.384,432.633,223.384,432.633z"></path><path style="fill:#FFFFFF;" d="M240.393,434.012l1.269,2.063c0,0,0.317,1.11-10.23,0.872c1.031-0.238,4.679-0.159,4.362-1.744C237.062,435.36,240.075,435.202,240.393,434.012z"></path><path style="fill:#BD9442;" d="M222.489,435.87c0,0,0.821,2.402,1.493,2.701c1.344,0.298,5.598,1.03,8.732,0.583c-1.119-0.747-1.343-1.717-0.522-2.239C227.192,437.064,223.46,436.542,222.489,435.87z"></path></g><g><path style="fill:#FFED7D;stroke:#000000;stroke-linecap:round;stroke-linejoin:round;" d="M222.384,427.24c0,0,0.093,0.952,0.554,1.269c0.462,0.317,5.081,0.636,8.809,0.636s8.589-0.318,9.05-0.636c0.461-0.316,0.553-1.269,0.553-1.269s2.091,2.538,2.184,3.331c0.092,0.793-1.354,2.855-1.354,2.855s-3.739,1.189-10.193,1.189s-9.883-0.793-9.883-0.793s-1.676-2.696-1.583-3.489S222.384,427.24,222.384,427.24z"></path><path style="fill:#FFFFFF;" d="M241.298,428.43l1.269,2.063c0,0-0.682,1.11-11.229,0.872c1.03-0.237,4.678-0.158,4.361-1.744C236.967,429.778,240.98,429.62,241.298,428.43z"></path><path style="fill:#BD9442;" d="M221.514,430.571c0,0,0.831,2.431,1.51,2.732c1.359,0.303,6.662,1.042,9.833,0.589c-1.132-0.754-1.358-1.736-0.528-2.265C227.271,431.779,222.495,431.251,221.514,430.571z"></path></g><g><path style="fill:#FFED7D;stroke:#000000;stroke-linecap:round;stroke-linejoin:round;" d="M221.886,421.848c0,0,0.093,0.952,0.554,1.269c0.462,0.317,5.579,0.636,9.307,0.636s9.087-0.318,9.548-0.636c0.461-0.316,0.553-1.269,0.553-1.269s2.091,2.538,2.184,3.331c0.092,0.793-1.354,2.855-1.354,2.855s-4.237,1.189-10.691,1.189s-10.381-0.794-10.381-0.794s-1.676-2.695-1.583-3.488C220.113,424.147,221.886,421.848,221.886,421.848z"></path><path style="fill:#FFFFFF;" d="M242.123,423.584l1.036,1.781c0,0-1.181,0.958-11.729,0.753c1.031-0.206,4.679-0.137,4.362-1.506C237.062,424.749,241.806,424.61,242.123,423.584z"></path><path style="fill:#BD9442;" d="M220.961,425.179c0,0,0.835,2.443,1.519,2.747c1.365,0.303,7.19,1.047,10.377,0.592c-1.138-0.76-1.366-1.745-0.53-2.276C227.241,426.393,221.949,425.861,220.961,425.179z"></path></g></g></g><g><g id="left_1_"><g><path style="fill:#FFED7D;stroke:#000000;stroke-linecap:round;stroke-linejoin:round;" d="M276.616,432.633c0,0-0.093,0.952-0.554,1.27c-0.462,0.316-4.081,0.635-7.809,0.635s-7.589-0.318-8.05-0.635c-0.461-0.317-0.553-1.27-0.553-1.27s-2.091,2.538-2.184,3.331c-0.092,0.794,1.354,2.855,1.354,2.855s2.739,1.189,9.193,1.189s8.883-0.793,8.883-0.793s1.676-2.696,1.583-3.489S276.616,432.633,276.616,432.633z"></path><path style="fill:#FFFFFF;" d="M259.607,434.012l-1.269,2.063c0,0-0.317,1.11,10.23,0.872c-1.031-0.238-4.679-0.159-4.362-1.744C262.938,435.36,259.925,435.202,259.607,434.012z"></path><path style="fill:#BD9442;" d="M277.511,435.87c0,0-0.821,2.402-1.493,2.701c-1.344,0.298-5.598,1.03-8.732,0.583c1.119-0.747,1.343-1.717,0.522-2.239C272.808,437.064,276.54,436.542,277.511,435.87z"></path></g><g><path style="fill:#FFED7D;stroke:#000000;stroke-linecap:round;stroke-linejoin:round;" d="M277.616,427.24c0,0-0.093,0.952-0.554,1.269c-0.462,0.317-5.081,0.636-8.809,0.636s-8.589-0.318-9.05-0.636c-0.461-0.316-0.553-1.269-0.553-1.269s-2.091,2.538-2.184,3.331c-0.092,0.793,1.354,2.855,1.354,2.855s3.739,1.189,10.193,1.189s9.883-0.793,9.883-0.793s1.676-2.696,1.583-3.489S277.616,427.24,277.616,427.24z"></path><path style="fill:#FFFFFF;" d="M258.702,428.43l-1.269,2.063c0,0,0.682,1.11,11.229,0.872c-1.03-0.237-4.678-0.158-4.361-1.744C263.033,429.778,259.02,429.62,258.702,428.43z"></path><path style="fill:#BD9442;" d="M278.486,430.571c0,0-0.831,2.431-1.51,2.732c-1.359,0.303-6.662,1.042-9.833,0.589c1.132-0.754,1.358-1.736,0.528-2.265C272.729,431.779,277.505,431.251,278.486,430.571z"></path></g><g><path style="fill:#FFED7D;stroke:#000000;stroke-linecap:round;stroke-linejoin:round;" d="M278.114,421.848c0,0-0.093,0.952-0.554,1.269c-0.462,0.317-5.579,0.636-9.307,0.636s-9.087-0.318-9.548-0.636c-0.461-0.316-0.553-1.269-0.553-1.269s-2.091,2.538-2.184,3.331c-0.092,0.793,1.354,2.855,1.354,2.855s4.237,1.189,10.691,1.189s10.381-0.794,10.381-0.794s1.676-2.695,1.583-3.488C279.887,424.147,278.114,421.848,278.114,421.848z"></path><path style="fill:#FFFFFF;" d="M257.877,423.584l-1.036,1.781c0,0,1.181,0.958,11.729,0.753c-1.031-0.206-4.679-0.137-4.362-1.506C262.938,424.749,258.194,424.61,257.877,423.584z"></path><path style="fill:#BD9442;" d="M279.039,425.179c0,0-0.835,2.443-1.519,2.747c-1.365,0.303-7.19,1.047-10.377,0.592c1.138-0.76,1.366-1.745,0.53-2.276C272.759,426.393,278.051,425.861,279.039,425.179z"></path></g></g></g></g></g></svg>