<svg xmlns="http://www.w3.org/2000/svg" width="500" height="500" version="1.1"><g id="x033"><g><g><g id="left_5_"><g><path style="fill:#FFE34A;stroke:#000000;stroke-linecap:round;stroke-linejoin:round;" d="M221.255,419.787l-0.496,1.291l-0.1,4.171c0,0,6.582,6.668,20.386,4.88c0.795-0.198,0.397-4.469,0.397-4.469s-12.855,0.371-19.79-4.781C221.553,420.085,221.255,419.787,221.255,419.787z"></path><path style="fill:#827021;" d="M240.976,426.141c0,0,0.127,1.044,0.127,1.75c0,0.708-0.219,1.781-0.219,1.781l-1.141,0.094c0,0,1.415-1.481,0.219-3.609C240.759,426.109,240.976,426.141,240.976,426.141z"></path><path style="fill:#C4A321;" d="M237.821,426.063c0,0-0.841,1.743-0.344,3.828c-1.391,0.199-5.953-0.109-8.078-0.813c0.398-0.596,1.342-3.545,0.547-4.141C232.883,425.679,237.821,426.063,237.821,426.063z"></path><path style="fill:#827021;" d="M223.884,422.813c0,0,0.766,1.703-0.641,3.719c-0.77-0.327-1.578-1-1.578-1s0.642-2.491,0.344-3.781C222.907,422.362,223.884,422.813,223.884,422.813z"></path><path style="fill:#FFFFFF;" d="M230.165,424.969c-0.109-0.045,0.594,2.625-0.641,4.156c-5.047-1.359-6.359-2.625-6.359-2.625s1.25-1.984,0.734-3.672C228.384,424.813,230.165,424.969,230.165,424.969z"></path></g><g><path style="fill:#FFE34A;stroke:#000000;stroke-linecap:round;stroke-linejoin:round;" d="M223.243,431.188l0.5,5.625c0,0,3.856,4.053,15.938,2.125c0.188-1,0.25-1.938,0.25-1.938S227.099,435.429,223.243,431.188z"></path><path style="fill:#827021;" d="M239.43,437.459l-0.063,0.917c0,0-2.501,0.479-3.167,0.333c-0.188-0.75,0.104-1.813,0.104-1.813L239.43,437.459z"></path><path style="fill:#FFFFFF;" d="M225.791,433.843l2.024,0.885c0,0-1.247,2.503-0.219,3.273c-1.184-0.143-2.375-0.792-2.375-0.792S226.819,436.028,225.791,433.843z"></path><path style="fill:#C4A321;" d="M234.034,436.584c0,0-0.708,1.229,0,2.146c-1.285,0-4.146,0.063-6.188-0.563c1.413-0.771,0.396-3.229,0.563-3.313C230.014,435.73,234.034,436.584,234.034,436.584z"></path></g></g></g><g><g id="left_29_"><g><path style="fill:#FFE34A;stroke:#000000;stroke-linecap:round;stroke-linejoin:round;" d="M278.745,419.787l0.496,1.291l0.1,4.171c0,0-6.582,6.668-20.386,4.88c-0.795-0.198-0.397-4.469-0.397-4.469s12.855,0.371,19.79-4.781C278.447,420.085,278.745,419.787,278.745,419.787z"></path><path style="fill:#827021;" d="M259.024,426.141c0,0-0.127,1.044-0.127,1.75c0,0.708,0.219,1.781,0.219,1.781l1.141,0.094c0,0-1.415-1.481-0.219-3.609C259.241,426.109,259.024,426.141,259.024,426.141z"></path><path style="fill:#C4A321;" d="M262.179,426.063c0,0,0.841,1.743,0.344,3.828c1.391,0.199,5.953-0.109,8.078-0.813c-0.398-0.596-1.342-3.545-0.547-4.141C267.117,425.679,262.179,426.063,262.179,426.063z"></path><path style="fill:#827021;" d="M276.116,422.813c0,0-0.766,1.703,0.641,3.719c0.77-0.327,1.578-1,1.578-1s-0.642-2.491-0.344-3.781C277.093,422.362,276.116,422.813,276.116,422.813z"></path><path style="fill:#FFFFFF;" d="M269.835,424.969c0.109-0.045-0.594,2.625,0.641,4.156c5.047-1.359,6.359-2.625,6.359-2.625s-1.25-1.984-0.734-3.672C271.616,424.813,269.835,424.969,269.835,424.969z"></path></g><g><path style="fill:#FFE34A;stroke:#000000;stroke-linecap:round;stroke-linejoin:round;" d="M276.757,431.188l-0.5,5.625c0,0-3.856,4.053-15.938,2.125c-0.188-1-0.25-1.938-0.25-1.938S272.901,435.429,276.757,431.188z"></path><path style="fill:#827021;" d="M260.57,437.459l0.063,0.917c0,0,2.501,0.479,3.167,0.333c0.188-0.75-0.104-1.813-0.104-1.813L260.57,437.459z"></path><path style="fill:#FFFFFF;" d="M274.209,433.843l-2.024,0.885c0,0,1.247,2.503,0.219,3.273c1.184-0.143,2.375-0.792,2.375-0.792S273.181,436.028,274.209,433.843z"></path><path style="fill:#C4A321;" d="M265.966,436.584c0,0,0.708,1.229,0,2.146c1.285,0,4.146,0.063,6.188-0.563c-1.413-0.771-0.396-3.229-0.563-3.313C269.986,435.73,265.966,436.584,265.966,436.584z"></path></g></g></g></g></g></svg>