<svg xmlns="http://www.w3.org/2000/svg" width="500" height="500" version="1.1"><g id="x034"><g><g><g id="left_11_"><g><path style="fill:#FEFEFE;stroke:#000000;stroke-linecap:round;stroke-linejoin:round;" d="M241.153,431.583l-0.5-2.083l-0.583,0.917c0,0-3.156,0.75-7.417,0.75c-4.26,0-8.833-0.667-8.833-0.667l-0.75-1.25l-0.098,2.402c0,0,3.183,1.666,9.549,1.666C238.886,433.318,241.153,431.583,241.153,431.583z"></path><path style="fill:#B2B2B2;stroke:#000000;stroke-linecap:round;stroke-linejoin:round;" d="M223.137,431.258c0,0-0.884,0.571-0.894,0.686c-0.092,0.957,0.059,9.308,0.43,9.474c0.37,0.167,2.673,0.944,9.69,0.963c6.73,0.018,8.93-0.93,9.237-1.26c0.309-0.329-0.079-8.509-0.079-8.509l-0.952-1.444c0,0,0.442,1.599-8.493,1.486C223.266,432.543,223.137,431.258,223.137,431.258z"></path><path style="fill:none;stroke:#000000;stroke-linecap:round;stroke-linejoin:round;stroke-dasharray:0.5 2;" d="M241.6,439.588c-0.224,0.101-2.604,0.968-8.114,1.245c-6.471,0.325-10.793-0.476-10.793-0.476"></path><path style="fill:none;stroke:#000000;stroke-linecap:round;stroke-linejoin:round;stroke-dasharray:0.5 2;" d="M241.006,432.849c-0.231,0.089-2.787,1.151-8.305,1.114c-6.478-0.046-10.616-1.427-10.616-1.427"></path></g><g><g><path style="fill:#DCDCDC;stroke:#000000;stroke-linecap:round;stroke-linejoin:round;" d="M221.264,436.76c-0.033,0.747,0.391,1.367,0.944,1.384c0.553,0.016,1.028-0.579,1.061-1.327s-0.391-1.367-0.945-1.384C221.77,435.417,221.295,436.01,221.264,436.76z"></path><path style="fill:#FEFEFE;stroke:#000000;stroke-linecap:round;stroke-linejoin:round;" d="M232.732,435.03c6.067-0.072,7.873-0.727,7.873-0.727l0.886,0.231l0.351,3.604l-0.832,0.426c0,0-2.036,0.974-8.653,1.121c-6.73,0.149-9.343-0.484-9.343-0.484l-0.619-0.479l0.01-3.722l0.53-0.431C222.935,434.569,225.756,435.112,232.732,435.03z"></path><g><path style="fill:#DCDCDC;stroke:#000000;stroke-linecap:round;stroke-linejoin:round;" d="M240.509,436.161c-0.031,0.749,0.392,1.368,0.945,1.384s1.028-0.577,1.059-1.327c0.034-0.747-0.389-1.367-0.943-1.383C241.016,434.819,240.542,435.413,240.509,436.161z"></path><ellipse style="fill:#FFFFFF;" cx="241.656" cy="436.199" rx="0.386" ry="0.813"></ellipse></g><path style="fill:#DCDCDC;stroke:#000000;stroke-linecap:round;stroke-linejoin:round;" d="M235.549,437.128c-0.032,0.749,0.582,1.374,1.371,1.397c0.789,0.022,1.456-0.566,1.486-1.314c0.032-0.748-0.581-1.374-1.37-1.396S235.581,436.381,235.549,437.128z"></path><ellipse style="fill:#FFFFFF;" cx="237.157" cy="437.283" rx="0.772" ry="0.813"></ellipse><path style="fill:#DCDCDC;stroke:#000000;stroke-linecap:round;stroke-linejoin:round;" d="M230.215,437.468c-0.032,0.749,0.582,1.376,1.37,1.397c0.791,0.022,1.457-0.565,1.488-1.314c0.032-0.749-0.583-1.373-1.372-1.396C230.914,436.132,230.248,436.72,230.215,437.468z"></path><ellipse style="fill:#FFFFFF;" cx="231.644" cy="437.51" rx="0.771" ry="0.813"></ellipse><path style="fill:#FEFEFE;stroke:#000000;stroke-linecap:round;stroke-linejoin:round;" d="M223.03,433.49c0.147,0,5.485,0.321,6.219,0.521c0.881,0.803,0.784,6.541,0.392,6.701c-0.392,0.161-6.807-0.521-7.395-0.642c-0.734-0.28-0.832-0.762-0.832-0.762s-0.099-5.176,0.098-5.298C221.708,433.893,223.03,433.49,223.03,433.49z"></path><path style="fill:#DCDCDC;stroke:#000000;stroke-linecap:round;stroke-linejoin:round;" d="M222.871,437.107c-0.033,0.749,0.581,1.374,1.369,1.396c0.791,0.022,1.456-0.566,1.488-1.314c0.032-0.748-0.583-1.372-1.371-1.396C223.568,435.77,222.902,436.359,222.871,437.107z"></path><path style="fill:#DCDCDC;stroke:#000000;stroke-linecap:round;stroke-linejoin:round;" d="M223.08,436.82c0,0-1.078,0.12-1.127,0.362c-0.049,0.241-0.048,2.849,0.05,2.969s0.783,1.002,1.028,1.002c0.245,0,0.392-0.761,0.392-0.761L223.08,436.82z"></path><g><path style="fill:#DCDCDC;stroke:#000000;stroke-linecap:round;stroke-linejoin:round;" d="M226.703,433.812c0,0-0.637-1.284-1.175-1.324c-0.54-0.04-2.204-0.16-2.399,0.201c-0.196,0.361,0,3.812,0,5.217c0,1.404,1.174,2.647,1.566,2.768c0.392,0.121,1.468-0.12,1.468-0.12s0.393-0.923,0.099-1.084c-0.293-0.159-0.979-0.159-0.979-0.159s-0.735-0.964-0.735-1.967s0.147-3.771,0.147-3.771l0.441,0.24H226.703z"></path><path style="fill:#FFFFFF;" d="M223.496,432.89l0.048,3.329l0.417,0.101l0.073-3.19c0,0,0.661-0.32,0.905-0.32C225.185,432.809,223.618,432.749,223.496,432.89z"></path></g><g><path style="fill:#DCDCDC;stroke:#000000;stroke-linecap:round;stroke-linejoin:round;" d="M224.939,436.541c0,0-0.685,0.399-0.734,0.681c-0.049,0.281-0.097,0.883,0.099,0.883c0.195,0,0.979,0.281,0.979,0.281s0.196,1.323,0,1.605c-0.196,0.28-1.028,0.561-1.028,0.561s-0.196,0.482-0.05,0.804c0.147,0.32,1.372,0.562,1.372,0.562s1.372-0.764,1.372-1.244c0-0.481-0.099-3.411-0.147-3.691C226.752,436.701,224.939,436.541,224.939,436.541z"></path><path style="fill:#FFFFFF;" d="M224.964,436.861l-0.318,0.461c0,0,1.053,0.081,1.126,0.262c0.073,0.18,0.293,2.167,0.293,2.167c0.441,0.12,0.441-2.528,0.22-2.648C226.066,436.981,224.964,436.861,224.964,436.861z"></path><line style="fill:none;stroke:#000000;stroke-linecap:round;stroke-linejoin:round;" x1="225.703" y1="439.088" x2="226.694" y2="438.998"></line></g></g></g><g><path style="fill:#8C8C8C;stroke:#000000;stroke-linecap:round;stroke-linejoin:round;" d="M226.033,442.302c0,0-0.074,4.223-0.441,4.405c-0.367,0.184-1.873,0.368-1.763,0.148c0.11-0.221,0.294-4.737,0.662-4.848C224.857,441.896,225.886,442.08,226.033,442.302z"></path><path style="fill:#DCDCDC;stroke:#000000;stroke-linecap:round;stroke-linejoin:round;" d="M223.03,442.03c0,0,0.138-0.979,0.874-0.979c0.734,0,1.027,0.588,1.027,0.588s-0.293,2.571-0.587,4.555c-0.734,0.587-1.616,0.587-1.616,0.587L223.03,442.03z"></path><line style="fill:none;stroke:#000000;stroke-linecap:round;stroke-linejoin:round;" x1="223.168" y1="444.101" x2="224.306" y2="444.247"></line><path style="fill:#8C8C8C;stroke:#000000;stroke-linecap:round;stroke-linejoin:round;" d="M220.878,447.824c0,0,3.147-1.857,3.552-1.832c0.405,0.024,0.798,0.605,0.801,0.829s-3.705,2.59-3.875,2.488C221.186,449.209,220.555,447.997,220.878,447.824z"></path><path style="fill:#DCDCDC;stroke:#000000;stroke-linecap:round;stroke-linejoin:round;" d="M226.03,448.406c0,0-3.266,1.962-3.671,1.937c-0.404-0.022-0.675-0.695-0.678-0.918c-0.003-0.145,1.538-1.187,2.676-1.88c0.195-0.119-0.711-1.311-0.549-1.403c0.356-0.203,1.059-0.676,1.101-0.652C225.079,445.59,226.354,448.232,226.03,448.406z"></path><line style="fill:none;stroke:#000000;stroke-linecap:round;stroke-linejoin:round;" x1="223.498" y1="448.396" x2="224.086" y2="449.242"></line><path style="fill:#DCDCDC;stroke:#000000;stroke-linecap:round;stroke-linejoin:round;" d="M219.752,448.801l0.037,1.47c0,0,1.837-0.111,2.13-0.478c0.294-0.367,0.441-1.175,0.183-1.249C221.845,448.471,219.752,448.801,219.752,448.801z"></path></g></g></g><g><g id="left_6_"><g><path style="fill:#FEFEFE;stroke:#000000;stroke-linecap:round;stroke-linejoin:round;" d="M258.845,431.583l0.5-2.083l0.583,0.917c0,0,3.156,0.75,7.417,0.75c4.26,0,8.833-0.667,8.833-0.667l0.75-1.25l0.099,2.402c0,0-3.183,1.666-9.549,1.666S258.845,431.583,258.845,431.583z"></path><path style="fill:#B2B2B2;stroke:#000000;stroke-linecap:round;stroke-linejoin:round;" d="M276.86,431.258c0,0,0.884,0.571,0.894,0.686c0.092,0.957-0.059,9.308-0.43,9.474c-0.37,0.167-2.673,0.944-9.689,0.963c-6.73,0.018-8.931-0.93-9.237-1.26c-0.309-0.329,0.079-8.509,0.079-8.509l0.951-1.444c0,0-0.441,1.599,8.494,1.486C276.731,432.543,276.86,431.258,276.86,431.258z"></path><path style="fill:none;stroke:#000000;stroke-linecap:round;stroke-linejoin:round;stroke-dasharray:0.5 2;" d="M258.397,439.588c0.224,0.101,2.604,0.968,8.114,1.245c6.471,0.325,10.793-0.476,10.793-0.476"></path><path style="fill:none;stroke:#000000;stroke-linecap:round;stroke-linejoin:round;stroke-dasharray:0.5 2;" d="M258.991,432.849c0.231,0.089,2.787,1.151,8.305,1.114c6.478-0.046,10.616-1.427,10.616-1.427"></path></g><g><g><path style="fill:#DCDCDC;stroke:#000000;stroke-linecap:round;stroke-linejoin:round;" d="M278.734,436.76c0.033,0.747-0.391,1.367-0.945,1.384c-0.553,0.016-1.027-0.579-1.061-1.327c-0.031-0.748,0.392-1.367,0.945-1.384C278.228,435.417,278.702,436.01,278.734,436.76z"></path><path style="fill:#FEFEFE;stroke:#000000;stroke-linecap:round;stroke-linejoin:round;" d="M267.266,435.03c-6.067-0.072-7.873-0.727-7.873-0.727l-0.886,0.231l-0.351,3.604l0.832,0.426c0,0,2.035,0.974,8.653,1.121c6.729,0.149,9.343-0.484,9.343-0.484l0.619-0.479l-0.01-3.722l-0.531-0.431C277.063,434.569,274.242,435.112,267.266,435.03z"></path><g><path style="fill:#DCDCDC;stroke:#000000;stroke-linecap:round;stroke-linejoin:round;" d="M259.488,436.161c0.031,0.749-0.391,1.368-0.945,1.384c-0.553,0.016-1.027-0.577-1.059-1.327c-0.033-0.747,0.39-1.367,0.943-1.383C258.982,434.819,259.456,435.413,259.488,436.161z"></path><ellipse style="fill:#FFFFFF;" cx="258.341" cy="436.199" rx="0.386" ry="0.813"></ellipse></g><path style="fill:#DCDCDC;stroke:#000000;stroke-linecap:round;stroke-linejoin:round;" d="M264.448,437.128c0.032,0.749-0.581,1.374-1.37,1.397c-0.789,0.022-1.456-0.566-1.486-1.314c-0.033-0.748,0.58-1.374,1.369-1.396S264.416,436.381,264.448,437.128z"></path><ellipse style="fill:#FFFFFF;" cx="262.84" cy="437.283" rx="0.772" ry="0.813"></ellipse><path style="fill:#DCDCDC;stroke:#000000;stroke-linecap:round;stroke-linejoin:round;" d="M269.782,437.468c0.032,0.749-0.582,1.376-1.37,1.397c-0.79,0.022-1.456-0.565-1.487-1.314c-0.032-0.749,0.583-1.373,1.372-1.396C269.084,436.132,269.75,436.72,269.782,437.468z"></path><ellipse style="fill:#FFFFFF;" cx="268.354" cy="437.51" rx="0.771" ry="0.813"></ellipse><path style="fill:#FEFEFE;stroke:#000000;stroke-linecap:round;stroke-linejoin:round;" d="M276.968,433.49c-0.147,0-5.485,0.321-6.22,0.521c-0.881,0.803-0.783,6.541-0.391,6.701c0.391,0.161,6.807-0.521,7.395-0.642c0.734-0.28,0.832-0.762,0.832-0.762s0.098-5.176-0.098-5.298C278.29,433.893,276.968,433.49,276.968,433.49z"></path><path style="fill:#DCDCDC;stroke:#000000;stroke-linecap:round;stroke-linejoin:round;" d="M277.127,437.107c0.033,0.749-0.582,1.374-1.369,1.396c-0.791,0.022-1.456-0.566-1.488-1.314c-0.031-0.748,0.583-1.372,1.371-1.396C276.43,435.77,277.096,436.359,277.127,437.107z"></path><path style="fill:#DCDCDC;stroke:#000000;stroke-linecap:round;stroke-linejoin:round;" d="M276.918,436.82c0,0,1.078,0.12,1.127,0.362c0.049,0.241,0.049,2.849-0.049,2.969s-0.783,1.002-1.028,1.002s-0.392-0.761-0.392-0.761L276.918,436.82z"></path><g><path style="fill:#DCDCDC;stroke:#000000;stroke-linecap:round;stroke-linejoin:round;" d="M273.295,433.812c0,0,0.637-1.284,1.175-1.324c0.54-0.04,2.204-0.16,2.399,0.201c0.196,0.361,0,3.812,0,5.217c0,1.404-1.174,2.647-1.566,2.768c-0.392,0.121-1.469-0.12-1.469-0.12s-0.393-0.923-0.098-1.084c0.293-0.159,0.979-0.159,0.979-0.159s0.735-0.964,0.735-1.967s-0.147-3.771-0.147-3.771l-0.441,0.24H273.295z"></path><path style="fill:#FFFFFF;" d="M276.502,432.89l-0.048,3.329l-0.417,0.101l-0.073-3.19c0,0-0.661-0.32-0.905-0.32C274.813,432.809,276.38,432.749,276.502,432.89z"></path></g><g><path style="fill:#DCDCDC;stroke:#000000;stroke-linecap:round;stroke-linejoin:round;" d="M275.059,436.541c0,0,0.685,0.399,0.734,0.681c0.049,0.281,0.097,0.883-0.1,0.883c-0.195,0-0.979,0.281-0.979,0.281s-0.195,1.323,0,1.605c0.196,0.28,1.028,0.561,1.028,0.561s0.196,0.482,0.05,0.804c-0.146,0.32-1.371,0.562-1.371,0.562s-1.372-0.764-1.372-1.244c0-0.481,0.099-3.411,0.147-3.691S275.059,436.541,275.059,436.541z"></path><path style="fill:#FFFFFF;" d="M275.033,436.861l0.318,0.461c0,0-1.053,0.081-1.127,0.262c-0.072,0.18-0.293,2.167-0.293,2.167c-0.441,0.12-0.441-2.528-0.221-2.648C273.932,436.981,275.033,436.861,275.033,436.861z"></path><line style="fill:none;stroke:#000000;stroke-linecap:round;stroke-linejoin:round;" x1="274.295" y1="439.088" x2="273.304" y2="438.998"></line></g></g></g><g><path style="fill:#8C8C8C;stroke:#000000;stroke-linecap:round;stroke-linejoin:round;" d="M273.965,442.302c0,0,0.074,4.223,0.441,4.405c0.366,0.184,1.873,0.368,1.762,0.148c-0.109-0.221-0.293-4.737-0.661-4.848C275.141,441.896,274.111,442.08,273.965,442.302z"></path><path style="fill:#DCDCDC;stroke:#000000;stroke-linecap:round;stroke-linejoin:round;" d="M276.968,442.03c0,0-0.138-0.979-0.874-0.979c-0.733,0-1.027,0.588-1.027,0.588s0.294,2.571,0.588,4.555c0.734,0.587,1.616,0.587,1.616,0.587L276.968,442.03z"></path><line style="fill:none;stroke:#000000;stroke-linecap:round;stroke-linejoin:round;" x1="276.83" y1="444.101" x2="275.691" y2="444.247"></line><path style="fill:#8C8C8C;stroke:#000000;stroke-linecap:round;stroke-linejoin:round;" d="M279.119,447.824c0,0-3.146-1.857-3.552-1.832c-0.405,0.024-0.798,0.605-0.802,0.829c-0.002,0.224,3.705,2.59,3.875,2.488C278.812,449.209,279.442,447.997,279.119,447.824z"></path><path style="fill:#DCDCDC;stroke:#000000;stroke-linecap:round;stroke-linejoin:round;" d="M273.968,448.406c0,0,3.266,1.962,3.671,1.937c0.404-0.022,0.676-0.695,0.678-0.918c0.003-0.145-1.538-1.187-2.676-1.88c-0.195-0.119,0.711-1.311,0.549-1.403c-0.355-0.203-1.059-0.676-1.1-0.652C274.919,445.59,273.645,448.232,273.968,448.406z"></path><line style="fill:none;stroke:#000000;stroke-linecap:round;stroke-linejoin:round;" x1="276.5" y1="448.396" x2="275.912" y2="449.242"></line><path style="fill:#DCDCDC;stroke:#000000;stroke-linecap:round;stroke-linejoin:round;" d="M280.246,448.801l-0.037,1.47c0,0-1.838-0.111-2.131-0.478c-0.294-0.367-0.441-1.175-0.184-1.249C278.152,448.471,280.246,448.801,280.246,448.801z"></path></g></g></g></g></g></svg>