<svg xmlns="http://www.w3.org/2000/svg" width="500" height="500" version="1.1"><g id="x035"><g><g id="left_12_"><g><path style="fill:#666666;stroke:#000000;stroke-linecap:round;stroke-linejoin:round;" d="M240.878,427.593c0,0,0.988,0.67,1.447,1.235c0.388,1.447,0.054,6.748-0.018,9.359c-0.247,0.458-1.313,2.875-10.188,2.875s-9.221-1.308-9.75-1.625c-0.493-1.623-0.973-9.092-0.833-9.515c0.142-0.425,1.2-2.4,1.2-2.4l0.106,1.588c0,0,2.771,1.129,9.273,1.129s8.583-1.446,8.583-1.446L240.878,427.593z"></path><path style="fill:#B2B2B2;" d="M233.411,432.394c0,0,0.989,0.564,1.271,0.987c0.282,0.424,0.881,4.694,0.741,5.047c-0.142,0.354-1.2,1.131-1.2,1.131s5.019,0.211,7.137-2.048c0-2.188,0.54-7.059,0.54-7.059S238.564,432.217,233.411,432.394z"></path><path style="fill:none;stroke:#000000;stroke-linecap:round;stroke-linejoin:round;" d="M241.407,429.568c0,0-2.772,2.154-10.184,2.154c-7.73,0-8.98-1.729-8.98-1.729"></path></g><g><g><path style="fill:#666666;stroke:#000000;stroke-linecap:round;stroke-linejoin:round;" d="M223.278,432.219l0.522,8.215c0,0,1.912,0.921,2.545,0.507c0.633-0.412,1.367-1.241,1.367-1.241l-0.383-7.71"></path><polygon style="fill:#B2B2B2;" points="226.917,432.358 225.646,433.311 226.14,440.476 227.165,439.628 "></polygon><path style="fill:#666666;stroke:#000000;stroke-linecap:round;stroke-linejoin:round;" d="M227.15,431.551l-1.718,1.218c0,0-2.298-0.525-2.154-0.55c0.144-0.025,1.292-1.179,1.292-1.179"></path></g><g><path style="fill:#666666;stroke:#000000;stroke-linecap:round;stroke-linejoin:round;" d="M211.909,454.533c0,0-0.199-1.347-0.302-1.583c-0.105-0.238-6.222,0.139-6.795,0.911c-0.574,0.773,0.548,1.847,0.548,1.847S211.522,455.485,211.909,454.533z"></path><path style="fill:#666666;stroke:#000000;stroke-linecap:round;stroke-linejoin:round;" d="M216.942,452.872c-0.109,0.201-0.526,1.73-0.75,1.763c-0.226,0.033-5.552,0.477-6.05-0.414c-0.498-0.889-0.529-2.354-0.529-2.354l1.887,0.042c0,0,0.227,0.77,0.638,0.915C212.552,452.971,216.942,452.872,216.942,452.872z"></path><path style="fill:#B2B2B2;stroke:#000000;stroke-linecap:round;stroke-linejoin:round;" d="M214.709,454.372c0,0,2.415,1.855,2.79,1.64c0.374-0.211,3.586-3.702,3.426-4.272c-0.158-0.57-1.762-1.059-1.762-1.059s-1.603,2.403-2.119,2.369c-0.516-0.037-0.987-0.428-0.987-0.428L214.709,454.372z"></path><path style="fill:#B2B2B2;stroke:#000000;stroke-linecap:round;stroke-linejoin:round;" d="M215.48,454.946c0,0-2.598-1.938-2.497-2.356c0.103-0.418,2.563-4.474,3.154-4.478c0.592-0.005,1.509,1.397,1.509,1.397s-1.865,2.207-1.688,2.693c0.179,0.485,0.686,0.832,0.686,0.832L215.48,454.946z"></path><path style="fill:#B2B2B2;stroke:#000000;stroke-linecap:round;stroke-linejoin:round;" d="M221.295,446.354c0,0-2.658-1.431-3.018-1.195c-0.361,0.238-3.35,3.923-3.152,4.48c0.193,0.559,1.825,0.946,1.825,0.946s1.447-2.497,1.966-2.495c0.519,0.004,1.014,0.365,1.014,0.365L221.295,446.354z"></path><g><path style="fill:#666666;stroke:#000000;stroke-linecap:round;stroke-linejoin:round;" d="M223.638,440.57c0,0-1.008-0.905-1.469-0.769s-4.505,5.689-4.206,6.473c0.299,0.781,2.336,2.454,2.881,2.26c0.545-0.196,4.119-5.979,4.052-6.427C224.83,441.657,223.638,440.57,223.638,440.57z"></path><path style="fill:#B2B2B2;stroke:#000000;stroke-linecap:round;stroke-linejoin:round;" d="M220.715,445.959c0,0,2.366,1.876,2.292,2.3c-0.076,0.426-2.277,4.626-2.867,4.669c-0.591,0.041-1.594-1.303-1.594-1.303s1.724-2.319,1.516-2.792c-0.209-0.475-0.735-0.786-0.735-0.786L220.715,445.959z"></path><path style="fill:#666666;stroke:#000000;stroke-linecap:round;stroke-linejoin:round;" d="M224.748,437.998l-1.177-0.354c0,0-1.52,3.229-1.665,3.642c-0.146,0.411,0.249,1.065,0.249,1.065l-0.271,1.118c0,0-1.915-0.705-1.924-1.069c-0.008-0.367,2.394-6.939,3.458-7.188c0.576-0.135,2.008,1.011,2.008,1.011L224.748,437.998z"></path><path style="fill:#B2B2B2;stroke:#000000;stroke-linecap:round;stroke-linejoin:round;" d="M222.317,442.705c-1.894,2.403-2.991,5.342-2.991,5.342s-1.617-1.162-1.659-1.752c-0.041-0.591,2.468-6.125,4.552-6.775c1.069,0.554,1.584,0.936,2.025,1.742"></path><path style="fill:none;stroke:#000000;stroke-linecap:round;stroke-linejoin:round;" d="M220.712,443.918c0,0-0.569-0.903-1.666-0.879"></path></g><path style="fill:#B2B2B2;stroke:#000000;stroke-linecap:round;stroke-linejoin:round;" d="M217.227,452.628c0,0-0.376-2.541-0.796-3.054c-0.42-0.512-5.906-1.628-7.105-1.036c-1.197,0.589,0.288,3.329,0.288,3.329l1.449,0.038c0,0-0.165-1.122,0.577-1.21c0.745-0.086,3.148,0.339,3.322,0.588c0.237,0.338-0.175-0.122,0.296,1.22C215.258,452.503,216.688,453.329,217.227,452.628z"></path><path style="fill:none;stroke:#000000;stroke-linecap:round;stroke-linejoin:round;" d="M212.838,448.866c0,0,0.214,1.276,0.093,1.548"></path><g><path style="fill:#B2B2B2;stroke:#000000;stroke-linecap:round;stroke-linejoin:round;" d="M211.751,452.538c0,0-0.199-1.348-0.301-1.584c-0.104-0.237-6.222,0.138-6.795,0.911c-0.574,0.773,0.549,1.848,0.549,1.848S211.365,453.489,211.751,452.538z"></path><path style="fill:none;stroke:#000000;stroke-linecap:round;stroke-linejoin:round;" d="M207.883,451.343c0,0,0.552,1.41,0.465,1.904"></path></g><path style="fill:#B2B2B2;stroke:#000000;stroke-linecap:round;stroke-linejoin:round;" d="M224.041,437.873l0.914-1.878c0,0,1.854,1.055,1.868,2.225c0.004,0.431-2.602,6.465-3.288,6.635c-0.686,0.17-2.221-1.048-2.221-1.048l0.832-1.822c0,0,0.679,0.704,0.729,0.421c0.051-0.283,1.644-3.938,1.644-3.938L224.041,437.873z"></path><path style="fill:#B2B2B2;stroke:#000000;stroke-linecap:round;stroke-linejoin:round;" d="M225.455,437.975c0,0,0.146-3.015-0.142-3.23c-0.287-0.215-1.65-0.503-1.938-0.143c-0.287,0.358-0.646,3.013,0.072,3.301C224.164,438.189,225.455,437.975,225.455,437.975z"></path></g></g></g><g id="left_25_"><g><path style="fill:#666666;stroke:#000000;stroke-linecap:round;stroke-linejoin:round;" d="M259.123,427.593c0,0-0.988,0.67-1.447,1.235c-0.389,1.447-0.055,6.748,0.018,9.359c0.246,0.458,1.313,2.875,10.188,2.875s9.221-1.308,9.75-1.625c0.492-1.623,0.973-9.092,0.832-9.515c-0.141-0.425-1.199-2.4-1.199-2.4l-0.107,1.588c0,0-2.77,1.129-9.273,1.129c-6.502,0-8.582-1.446-8.582-1.446L259.123,427.593z"></path><path style="fill:#B2B2B2;" d="M266.59,432.394c0,0-0.99,0.564-1.271,0.987c-0.283,0.424-0.881,4.694-0.742,5.047c0.143,0.354,1.201,1.131,1.201,1.131s-5.02,0.211-7.137-2.048c0-2.188-0.541-7.059-0.541-7.059S261.436,432.217,266.59,432.394z"></path><path style="fill:none;stroke:#000000;stroke-linecap:round;stroke-linejoin:round;" d="M258.594,429.568c0,0,2.771,2.154,10.184,2.154c7.73,0,8.98-1.729,8.98-1.729"></path></g><g><g><path style="fill:#666666;stroke:#000000;stroke-linecap:round;stroke-linejoin:round;" d="M276.723,432.219l-0.523,8.215c0,0-1.912,0.921-2.545,0.507c-0.633-0.412-1.367-1.241-1.367-1.241l0.383-7.71"></path><polygon style="fill:#B2B2B2;" points="273.084,432.358 274.354,433.311 273.861,440.476 272.836,439.628 "></polygon><path style="fill:#666666;stroke:#000000;stroke-linecap:round;stroke-linejoin:round;" d="M272.85,431.551l1.719,1.218c0,0,2.297-0.525,2.154-0.55c-0.145-0.025-1.293-1.179-1.293-1.179"></path></g><g><path style="fill:#666666;stroke:#000000;stroke-linecap:round;stroke-linejoin:round;" d="M288.092,454.533c0,0,0.199-1.347,0.301-1.583c0.105-0.238,6.223,0.139,6.795,0.911c0.574,0.773-0.547,1.847-0.547,1.847S288.479,455.485,288.092,454.533z"></path><path style="fill:#666666;stroke:#000000;stroke-linecap:round;stroke-linejoin:round;" d="M283.059,452.872c0.109,0.201,0.525,1.73,0.75,1.763c0.225,0.033,5.551,0.477,6.049-0.414c0.498-0.889,0.529-2.354,0.529-2.354l-1.887,0.042c0,0-0.227,0.77-0.637,0.915C287.449,452.971,283.059,452.872,283.059,452.872z"></path><path style="fill:#B2B2B2;stroke:#000000;stroke-linecap:round;stroke-linejoin:round;" d="M285.291,454.372c0,0-2.414,1.855-2.789,1.64c-0.375-0.211-3.586-3.702-3.426-4.272c0.158-0.57,1.762-1.059,1.762-1.059s1.602,2.403,2.119,2.369c0.516-0.037,0.986-0.428,0.986-0.428L285.291,454.372z"></path><path style="fill:#B2B2B2;stroke:#000000;stroke-linecap:round;stroke-linejoin:round;" d="M284.52,454.946c0,0,2.598-1.938,2.498-2.356c-0.104-0.418-2.563-4.474-3.154-4.478c-0.592-0.005-1.51,1.397-1.51,1.397s1.865,2.207,1.689,2.693c-0.18,0.485-0.686,0.832-0.686,0.832L284.52,454.946z"></path><path style="fill:#B2B2B2;stroke:#000000;stroke-linecap:round;stroke-linejoin:round;" d="M278.705,446.354c0,0,2.658-1.431,3.018-1.195c0.361,0.238,3.35,3.923,3.152,4.48c-0.193,0.559-1.824,0.946-1.824,0.946s-1.447-2.497-1.967-2.495c-0.518,0.004-1.014,0.365-1.014,0.365L278.705,446.354z"></path><g><path style="fill:#666666;stroke:#000000;stroke-linecap:round;stroke-linejoin:round;" d="M276.363,440.57c0,0,1.008-0.905,1.469-0.769s4.504,5.689,4.205,6.473c-0.299,0.781-2.336,2.454-2.881,2.26c-0.545-0.196-4.119-5.979-4.051-6.427C275.17,441.657,276.363,440.57,276.363,440.57z"></path><path style="fill:#B2B2B2;stroke:#000000;stroke-linecap:round;stroke-linejoin:round;" d="M279.285,445.959c0,0-2.365,1.876-2.291,2.3c0.076,0.426,2.277,4.626,2.867,4.669c0.59,0.041,1.594-1.303,1.594-1.303s-1.725-2.319-1.516-2.792c0.209-0.475,0.734-0.786,0.734-0.786L279.285,445.959z"></path><path style="fill:#666666;stroke:#000000;stroke-linecap:round;stroke-linejoin:round;" d="M275.252,437.998l1.178-0.354c0,0,1.52,3.229,1.664,3.642c0.146,0.411-0.248,1.065-0.248,1.065l0.271,1.118c0,0,1.914-0.705,1.924-1.069c0.008-0.367-2.395-6.939-3.459-7.188c-0.576-0.135-2.008,1.011-2.008,1.011L275.252,437.998z"></path><path style="fill:#B2B2B2;stroke:#000000;stroke-linecap:round;stroke-linejoin:round;" d="M277.684,442.705c1.893,2.403,2.99,5.342,2.99,5.342s1.617-1.162,1.66-1.752c0.041-0.591-2.469-6.125-4.553-6.775c-1.068,0.554-1.584,0.936-2.025,1.742"></path><path style="fill:none;stroke:#000000;stroke-linecap:round;stroke-linejoin:round;" d="M279.289,443.918c0,0,0.568-0.903,1.666-0.879"></path></g><path style="fill:#B2B2B2;stroke:#000000;stroke-linecap:round;stroke-linejoin:round;" d="M282.773,452.628c0,0,0.377-2.541,0.797-3.054c0.42-0.512,5.906-1.628,7.105-1.036c1.197,0.589-0.289,3.329-0.289,3.329l-1.449,0.038c0,0,0.166-1.122-0.576-1.21c-0.746-0.086-3.148,0.339-3.322,0.588c-0.238,0.338,0.174-0.122-0.297,1.22C284.742,452.503,283.313,453.329,282.773,452.628z"></path><path style="fill:none;stroke:#000000;stroke-linecap:round;stroke-linejoin:round;" d="M287.162,448.866c0,0-0.213,1.276-0.092,1.548"></path><g><path style="fill:#B2B2B2;stroke:#000000;stroke-linecap:round;stroke-linejoin:round;" d="M288.25,452.538c0,0,0.199-1.348,0.301-1.584c0.104-0.237,6.221,0.138,6.795,0.911s-0.549,1.848-0.549,1.848S288.635,453.489,288.25,452.538z"></path><path style="fill:none;stroke:#000000;stroke-linecap:round;stroke-linejoin:round;" d="M292.117,451.343c0,0-0.551,1.41-0.465,1.904"></path></g><path style="fill:#B2B2B2;stroke:#000000;stroke-linecap:round;stroke-linejoin:round;" d="M275.959,437.873l-0.914-1.878c0,0-1.854,1.055-1.867,2.225c-0.004,0.431,2.602,6.465,3.287,6.635s2.221-1.048,2.221-1.048l-0.832-1.822c0,0-0.678,0.704-0.729,0.421s-1.643-3.938-1.643-3.938L275.959,437.873z"></path><path style="fill:#B2B2B2;stroke:#000000;stroke-linecap:round;stroke-linejoin:round;" d="M274.545,437.975c0,0-0.145-3.015,0.143-3.23c0.287-0.215,1.65-0.503,1.938-0.143c0.287,0.358,0.646,3.013-0.072,3.301C275.836,438.189,274.545,437.975,274.545,437.975z"></path></g></g></g></g></g></svg>