<svg xmlns="http://www.w3.org/2000/svg" width="500" height="500" version="1.1"><g id="x036"><g><g><path style="fill:#6E6E6E;stroke:#000000;stroke-linecap:round;stroke-linejoin:round;" d="M225.211,445.813c0,0-0.3,1.75,0.361,2.375c1.19,0.875,12.729,1.313,15.374,0.25c0.199-1.625-0.064-2.625-0.064-2.625H225.211z"></path><path style="fill:#6E6E6E;stroke:#000000;stroke-linecap:round;stroke-linejoin:round;" d="M244.813,385.125c0,0-0.75-0.25-1.625-1.375c-4.625,0-16.5,0.75-16.5,0.75s-2,11.75-3.375,16c-0.013,0.129-2.875-10.125-3.75-15.125l-1.875,0.375c0,0,0.988,12.265,1.625,14.875c0.27,3.499-0.017,9.136,0.737,14.875c1.413,10.75,3.762,23.054,4.649,24.75c0.333,3.416,0.282,4.985,0.688,6c2.271,0.771,13.438,1.001,15.271,0.334c0.5-2.583-0.771-6.646-0.771-6.646s1.714-12.853,2.789-24.438c0.386-4.165,0.655-8.134,0.847-11.387l0.041,0.012C244.063,401.75,244.813,385.125,244.813,385.125z"></path></g><g><path style="fill:#6E6E6E;stroke:#000000;stroke-linecap:round;stroke-linejoin:round;" d="M274.791,445.813c0,0,0.3,1.75-0.361,2.375c-1.19,0.875-12.729,1.313-15.373,0.25c-0.199-1.625,0.063-2.625,0.063-2.625H274.791z"></path><path style="fill:#6E6E6E;stroke:#000000;stroke-linecap:round;stroke-linejoin:round;" d="M255.189,385.125c0,0,0.75-0.25,1.625-1.375c4.625,0,16.5,0.75,16.5,0.75s2,11.75,3.375,16c0.014,0.129,2.875-10.125,3.75-15.125l1.875,0.375c0,0-0.988,12.265-1.625,14.875c-0.27,3.499,0.018,9.136-0.737,14.875c-1.413,10.75-3.762,23.054-4.649,24.75c-0.332,3.416-0.281,4.985-0.688,6c-2.27,0.771-13.438,1.001-15.271,0.334c-0.5-2.583,0.771-6.646,0.771-6.646s-1.713-12.853-2.788-24.438c-0.386-4.165-0.655-8.134-0.847-11.387l-0.041,0.012C255.939,401.75,255.189,385.125,255.189,385.125z"></path></g></g></g></svg>