<svg xmlns="http://www.w3.org/2000/svg" width="500" height="500" version="1.1"><g id="x037"><g><g><g><path style="fill:#6E6E6E;stroke:#000000;stroke-linecap:round;stroke-linejoin:round;" d="M224.157,440.5c0,0,0.997,7.167,3.163,7.667c3.667,0.833,11.834,1.5,13-0.5c0.167-3.334-0.667-7.334-0.667-7.334L224.157,440.5z"></path><path style="fill:#6E6E6E;stroke:#000000;stroke-linecap:round;stroke-linejoin:round;" d="M225.487,445.333c0,0,1.833,2.168,2.666,1.834c0.834-0.334,3.001-3,6.667-3c3.667,0,6.333,1.833,6.333,2.833s-0.833,1.833-2.5,1.833"></path><path style="fill:#505050;" d="M227.32,448.167c0,0,11.834,1.834,13-0.5C232.82,445.667,227.32,448.167,227.32,448.167z"></path></g><g id="shoesXMLID_33_"><g><path style="fill:#3F3F3F;" d="M232.353,435.597c6.758,0.177,7.965,5.199,7.965,5.199s-3.64,0.696-9.005,0.52c-5.376-0.167-7.799-0.863-7.799-0.863S226.592,435.451,232.353,435.597z"></path></g><path style="fill:#BF0000;" d="M232.349,436.119c0,0,0.173,4.681,1.04,5.547c1.733,0.172,3.466-0.348,3.466-0.348l-0.866-4.852C235.988,436.467,233.734,435.426,232.349,436.119z"></path><path style="fill:#FFFFFF;" d="M235.295,436.119c0,0,0,3.985,1.387,5.199c1.56,0.174,3.636-0.522,3.636-0.522S238.067,437.852,235.295,436.119z"></path><path style="fill:#BF0000;" d="M226.109,437.853l1.214,3.119h-3.293C224.03,440.972,224.55,438.026,226.109,437.853z"></path><path style="fill:#FFFFFF;" d="M228.883,436.64c0,0-0.693,2.253,0.693,4.332c-1.387,0.521-2.946,0.174-2.946,0.174s-1.04-2.6-0.693-3.293C227.149,437.159,228.883,436.64,228.883,436.64z"></path><g><path style="fill:none;stroke:#000000;stroke-linecap:round;stroke-linejoin:round;" d="M223.514,440.452c0,0,2.423,0.696,7.799,0.863c5.365,0.177,9.005-0.52,9.005-0.52s-1.207-5.022-7.965-5.199C226.592,435.451,223.514,440.452,223.514,440.452z"></path></g></g></g><g><g><path style="fill:#6E6E6E;stroke:#000000;stroke-linecap:round;stroke-linejoin:round;" d="M275.843,440.5c0,0-0.996,7.167-3.163,7.667c-3.667,0.833-11.833,1.5-13-0.5c-0.167-3.334,0.667-7.334,0.667-7.334L275.843,440.5z"></path><path style="fill:#6E6E6E;stroke:#000000;stroke-linecap:round;stroke-linejoin:round;" d="M274.513,445.333c0,0-1.832,2.168-2.666,1.834s-3-3-6.667-3S258.847,446,258.847,447s0.833,1.833,2.5,1.833"></path><path style="fill:#505050;" d="M272.68,448.167c0,0-11.833,1.834-13-0.5C267.18,445.667,272.68,448.167,272.68,448.167z"></path></g><g id="shoesXMLID_38_"><g><path style="fill:#3F3F3F;" d="M267.647,435.597c-6.758,0.177-7.965,5.199-7.965,5.199s3.64,0.696,9.006,0.52c5.375-0.167,7.798-0.863,7.798-0.863S273.409,435.451,267.647,435.597z"></path></g><path style="fill:#BF0000;" d="M267.651,436.119c0,0-0.173,4.681-1.039,5.547c-1.734,0.172-3.467-0.348-3.467-0.348l0.867-4.852C264.013,436.467,266.266,435.426,267.651,436.119z"></path><path style="fill:#FFFFFF;" d="M264.706,436.119c0,0-0.001,3.985-1.387,5.199c-1.561,0.174-3.637-0.522-3.637-0.522S261.933,437.852,264.706,436.119z"></path><path style="fill:#BF0000;" d="M273.891,437.853l-1.214,3.119h3.293C275.97,440.972,275.45,438.026,273.891,437.853z"></path><path style="fill:#FFFFFF;" d="M271.117,436.64c0,0,0.694,2.253-0.692,4.332c1.387,0.521,2.945,0.174,2.945,0.174s1.04-2.6,0.693-3.293C272.851,437.159,271.117,436.64,271.117,436.64z"></path><g><path style="fill:none;stroke:#000000;stroke-linecap:round;stroke-linejoin:round;" d="M276.486,440.452c0,0-2.423,0.696-7.798,0.863c-5.366,0.177-9.006-0.52-9.006-0.52s1.207-5.022,7.965-5.199C273.409,435.451,276.486,440.452,276.486,440.452z"></path></g></g></g></g></g></svg>