<svg xmlns="http://www.w3.org/2000/svg" width="500" height="500" version="1.1"><g id="x038"><g><g><path style="fill:#6E6E6E;stroke:#000000;stroke-linecap:round;stroke-linejoin:round;" d="M225,440.333c0,0.052,0.177,1.182,0.198,1.37c0.143,1.328,0.781,5.589,1.802,6.464c1.75,1,11.583,0.999,13.083-0.334c0.667-4.417-0.917-7.916-0.917-7.916s-3.583,3.333-5.5,3.916C230.833,443,225,440.333,225,440.333z"></path><path style="fill:none;stroke:#000000;stroke-linecap:round;stroke-linejoin:round;" d="M233.417,443.717c0,0,4.833,1.615,6.833,1.699"></path></g><g><path style="fill:#6E6E6E;stroke:#000000;stroke-linecap:round;stroke-linejoin:round;" d="M274.951,440.333c0,0.052-0.178,1.182-0.197,1.37c-0.144,1.328-0.781,5.589-1.803,6.464c-1.75,1-11.584,0.999-13.084-0.334c-0.666-4.417,0.917-7.916,0.917-7.916s3.583,3.333,5.5,3.916C269.117,443,274.951,440.333,274.951,440.333z"></path><path style="fill:none;stroke:#000000;stroke-linecap:round;stroke-linejoin:round;" d="M266.534,443.717c0,0-4.833,1.615-6.833,1.699"></path></g></g></g></svg>