<svg xmlns="http://www.w3.org/2000/svg" width="500" height="500" version="1.1"><g id="x039"><g><g><g><path style="fill:#6E6E6E;stroke:#000000;stroke-width:1.0044;stroke-linecap:round;stroke-linejoin:round;" d="M226.192,444.583c0,0,2-2.5,6.5-2.5s7.417,1.417,7.417,1.417l0.167,2.416c0,0-3.833-1.333-7.25-1.333S226.692,447,226.692,447S225.859,445.333,226.192,444.583z"></path><g><g><path style="fill:#F0E670;" d="M232.64,443.938c0,0-0.906-0.25-1-0.906C232.452,442.875,232.733,443.625,232.64,443.938z"></path><path style="fill:#F0E670;" d="M233.688,443.938c0,0,0.906-0.25,1-0.906C233.876,442.875,233.595,443.625,233.688,443.938z"></path><path style="fill:#F0E670;" d="M232.765,443.875c0,0-0.031-0.969,0.406-1.281c0.406,0.406,0.438,1.313,0.438,1.313L232.765,443.875z"></path></g><path style="fill:#F0E670;" d="M231.046,443.344c0,0,0.344-0.063,0.438,0.094c0,0.25-0.125,0.375-0.125,0.375s-1.031,0.156-1.313,0.094C230.358,443.531,231.046,443.344,231.046,443.344z"></path><path style="fill:#F0E670;" d="M235.353,443.344c0,0-0.344-0.063-0.438,0.094c0,0.25,0.125,0.375,0.125,0.375s1.031,0.156,1.313,0.094C236.04,443.531,235.353,443.344,235.353,443.344z"></path></g></g><path style="fill:#D59758;stroke:#000000;stroke-width:1.0044;stroke-linecap:round;stroke-linejoin:round;" d="M225.942,444.416c0,0,0.083,3.168,1.167,3.834s11.833,0.999,13.167,0.166c0.333-1.166,0.167-2.333,0.167-2.333l-0.5,1c0,0-1.834,0.333-6.417,0.333S227.358,447,227.358,447L225.942,444.416z"></path></g><g><g><path style="fill:#6E6E6E;stroke:#000000;stroke-width:1.0044;stroke-linecap:round;stroke-linejoin:round;" d="M273.808,444.583c0,0-2-2.5-6.5-2.5s-7.416,1.417-7.416,1.417l-0.166,2.416c0,0,3.833-1.333,7.25-1.333c3.416,0,6.332,2.417,6.332,2.417S274.142,445.333,273.808,444.583z"></path><g><g><path style="fill:#F0E670;" d="M267.36,443.938c0,0,0.906-0.25,1-0.906C267.548,442.875,267.267,443.625,267.36,443.938z"></path><path style="fill:#F0E670;" d="M266.312,443.938c0,0-0.906-0.25-1-0.906C266.124,442.875,266.405,443.625,266.312,443.938z"></path><path style="fill:#F0E670;" d="M267.235,443.875c0,0,0.031-0.969-0.406-1.281c-0.406,0.406-0.438,1.313-0.438,1.313L267.235,443.875z"></path></g><path style="fill:#F0E670;" d="M268.954,443.344c0,0-0.344-0.063-0.438,0.094c0,0.25,0.125,0.375,0.125,0.375s1.031,0.156,1.313,0.094C269.642,443.531,268.954,443.344,268.954,443.344z"></path><path style="fill:#F0E670;" d="M264.647,443.344c0,0,0.344-0.063,0.438,0.094c0,0.25-0.125,0.375-0.125,0.375s-1.031,0.156-1.313,0.094C263.96,443.531,264.647,443.344,264.647,443.344z"></path></g></g><path style="fill:#D59758;stroke:#000000;stroke-width:1.0044;stroke-linecap:round;stroke-linejoin:round;" d="M274.058,444.416c0,0-0.082,3.168-1.166,3.834s-11.833,0.999-13.166,0.166c-0.334-1.166-0.168-2.333-0.168-2.333l0.5,1c0,0,1.834,0.333,6.418,0.333c4.582,0,6.166-0.416,6.166-0.416L274.058,444.416z"></path></g></g></g></svg>