<svg xmlns="http://www.w3.org/2000/svg" width="500" height="500" version="1.1"><g id="x004"><g><g><path style="fill:#6E6E6E;stroke:#000000;stroke-linecap:round;stroke-linejoin:round;" d="M240.415,447.375c0,0,0,1.861-0.75,2.361s-11.375,0.514-12.5-0.049c-1.188-1.125-1.25-4.063-1.25-4.063L240.415,447.375z"></path><path style="fill:#6E6E6E;stroke:#000000;stroke-linecap:round;stroke-linejoin:round;" d="M237.802,440.813c0,0-1.125-1.438-3.313-1.438c-4.563,0-6,1.938-6,1.938s-1.813,0.875-2.813,0.25c0,0.555-0.067,2.392,0.334,3.991c0.321,1.283,1.087,2.414,1.365,2.608c0.625,0.438,12.051,0.275,12.801-0.1c0.875-1.25-0.125-5.813-0.375-6.625C239.427,441.125,237.802,440.813,237.802,440.813z"></path><g><path style="fill:none;stroke:#000000;stroke-linecap:round;stroke-linejoin:round;" d="M228.677,441.387c0,0,0.125,1.801-0.313,2.426s-0.938,0.199-0.938,0.199s-0.875,2.063-0.063,3.875"></path><path style="fill:none;stroke:#000000;stroke-linecap:round;stroke-linejoin:round;" d="M227.427,444.012c0,0-0.938-0.5-1.063-1.75"></path></g></g><g><path style="fill:#6E6E6E;stroke:#000000;stroke-linecap:round;stroke-linejoin:round;" d="M259.762,447.375c0,0,0,1.861,0.75,2.361s11.375,0.514,12.5-0.049c1.188-1.125,1.25-4.063,1.25-4.063L259.762,447.375z"></path><path style="fill:#6E6E6E;stroke:#000000;stroke-linecap:round;stroke-linejoin:round;" d="M262.375,440.813c0,0,1.125-1.438,3.313-1.438c4.563,0,6,1.938,6,1.938s1.813,0.875,2.813,0.25c0,0.555,0.067,2.392-0.334,3.991c-0.321,1.283-1.087,2.414-1.365,2.608c-0.625,0.438-12.051,0.275-12.801-0.1c-0.875-1.25,0.125-5.813,0.375-6.625C260.75,441.125,262.375,440.813,262.375,440.813z"></path><g><path style="fill:none;stroke:#000000;stroke-linecap:round;stroke-linejoin:round;" d="M271.5,441.387c0,0-0.125,1.801,0.313,2.426s0.938,0.199,0.938,0.199s0.875,2.063,0.063,3.875"></path><path style="fill:none;stroke:#000000;stroke-linecap:round;stroke-linejoin:round;" d="M272.75,444.012c0,0,0.938-0.5,1.063-1.75"></path></g></g></g></g></svg>