<svg xmlns="http://www.w3.org/2000/svg" width="500" height="500" version="1.1"><g id="x040"><g><g><path style="fill:#3F3F3F;stroke:#000000;stroke-linecap:round;stroke-linejoin:round;" d="M226.47,446.625c0,0,0.063,1,0.813,1.438c1.875,0.563,9.875,0.813,12.688-0.438c0.5-1.125,0.125-1.375,0.125-1.375L226.47,446.625z"></path><g><path style="fill:#6E6E6E;stroke:#000000;stroke-linecap:round;stroke-linejoin:round;" d="M225.907,442.875c-0.125,0.313-0.313,0.75,0.188,1.25s5.875,3.125,9.5,2.813C233.282,444.5,225.907,442.875,225.907,442.875z"></path><path style="fill:#6E6E6E;stroke:#000000;stroke-linecap:round;stroke-linejoin:round;" d="M235.157,447c0,0,3.625-4.063,4.5-3.938s0.813,1.188,0.313,1.688S235.157,447,235.157,447z"></path></g></g><g><path style="fill:#3F3F3F;stroke:#000000;stroke-linecap:round;stroke-linejoin:round;" d="M273.532,446.625c0,0-0.063,1-0.813,1.438c-1.875,0.563-9.875,0.813-12.688-0.438c-0.5-1.125-0.125-1.375-0.125-1.375L273.532,446.625z"></path><g><path style="fill:#6E6E6E;stroke:#000000;stroke-linecap:round;stroke-linejoin:round;" d="M274.095,442.875c0.125,0.313,0.313,0.75-0.188,1.25s-5.875,3.125-9.5,2.813C266.72,444.5,274.095,442.875,274.095,442.875z"></path><path style="fill:#6E6E6E;stroke:#000000;stroke-linecap:round;stroke-linejoin:round;" d="M264.845,447c0,0-3.625-4.063-4.5-3.938s-0.813,1.188-0.313,1.688S264.845,447,264.845,447z"></path></g></g></g></g></svg>