<svg xmlns="http://www.w3.org/2000/svg" width="500" height="500" version="1.1"><g id="x041"><g><g><path style="fill:#6E6E6E;stroke:#000000;stroke-linecap:round;stroke-linejoin:round;" d="M239.108,439.438c0.813,1.563,1.625,6.25,0.938,8.313c-1.563,0.563-11.813,1.375-12.875,0.063c-1.188-2.563-2.125-8.063-2.125-8.063s3.244,4.615,9.063,4.125C240.046,443.375,239.108,439.438,239.108,439.438z"></path><path style="fill:none;stroke:#000000;stroke-linecap:round;stroke-linejoin:round;" d="M232.609,443.926c0,0,6.312,0.699,6.875,3.699"></path><path style="fill:#6E6E6E;stroke:#000000;stroke-linecap:round;stroke-linejoin:round;" d="M240.171,445.438c0,0,0.125,2.813-0.813,3.25s-10.5,0.875-11.875,0.125c-1.5-1.438-1.375-3.438-1.375-3.438s0.813,1.75,2.25,2.188s10.25,0.125,10.875-0.313S240.171,445.438,240.171,445.438z"></path></g><g><path style="fill:#6E6E6E;stroke:#000000;stroke-linecap:round;stroke-linejoin:round;" d="M260.892,439.438c-0.813,1.563-1.625,6.25-0.938,8.313c1.563,0.563,11.813,1.375,12.875,0.063c1.188-2.563,2.125-8.063,2.125-8.063s-3.244,4.615-9.063,4.125C259.954,443.375,260.892,439.438,260.892,439.438z"></path><path style="fill:none;stroke:#000000;stroke-linecap:round;stroke-linejoin:round;" d="M267.392,443.926c0,0-6.313,0.699-6.875,3.699"></path><path style="fill:#6E6E6E;stroke:#000000;stroke-linecap:round;stroke-linejoin:round;" d="M259.829,445.438c0,0-0.125,2.813,0.813,3.25s10.5,0.875,11.875,0.125c1.5-1.438,1.375-3.438,1.375-3.438s-0.813,1.75-2.25,2.188s-10.25,0.125-10.875-0.313S259.829,445.438,259.829,445.438z"></path></g></g></g></svg>