<svg xmlns="http://www.w3.org/2000/svg" width="500" height="500" version="1.1"><g id="x042"><g><g><path style="fill:#6E6E6E;stroke:#000000;stroke-linecap:round;stroke-linejoin:round;" d="M225.106,440c0,0,0.913,6.77,2.332,8.01s11.583,0.607,12.625-0.451s-0.193-6.766-0.825-7.912c0.118,2.604-0.38,5.547-6.382,5.354C225.106,444.75,225.106,440,225.106,440z"></path><path style="fill:#505050;stroke:#000000;stroke-linecap:round;stroke-linejoin:round;" d="M224.856,440.166c0,0,0.5,2.916,0.917,3.75c0.5,1.25,0.667,3,0.667,3l-1.216-0.083C225.223,446.833,224.439,443.999,224.856,440.166z"></path></g><g><path style="fill:#6E6E6E;stroke:#000000;stroke-linecap:round;stroke-linejoin:round;" d="M274.893,440c0,0-0.913,6.77-2.332,8.01c-1.418,1.24-11.582,0.607-12.625-0.451s0.193-6.766,0.825-7.912c-0.118,2.604,0.38,5.547,6.382,5.354C274.893,444.75,274.893,440,274.893,440z"></path><path style="fill:#505050;stroke:#000000;stroke-linecap:round;stroke-linejoin:round;" d="M275.143,440.166c0,0-0.5,2.916-0.917,3.75c-0.5,1.25-0.667,3-0.667,3l1.217-0.083C274.775,446.833,275.56,443.999,275.143,440.166z"></path></g></g></g></svg>