<svg xmlns="http://www.w3.org/2000/svg" width="500" height="500" version="1.1"><g id="x043"><g><g><g><path style="fill:#6E6E6E;stroke:#000000;stroke-linecap:round;stroke-linejoin:round;" d="M221.571,420c0,0-0.833,6.332-0.333,8.166s3.5,4.834,2.833,8.167s-1.5,6.501-2.833,7.167c1.833,0.333,2.667-0.167,2.667-0.167l-1.667,3l1.833-0.167c0,0-0.667,0.333,2.833,1.5s12,1.167,13.667,0.167c1-1.333,1.333-1.833,1.333-1.833l2.333,0.333c0,0-2.5-2.334-2.833-3.167c1.167,0.167,1.667-0.166,1.667-0.166l-2.667-3.334c0,0-0.5-5.333,0-6.333s2.334-4.333,2.667-6s-0.667-7.667-0.667-7.667L221.571,420z"></path><path style="fill:#505050;" d="M222.238,420.833c-0.118,0.658-0.622,8.064-0.833,7.5c-0.5-1.333,4.066,4.833,4.066,5.5s-2.667,9-2.667,9s1.333-0.333,2-1.333c0.167,0.667-1.167,3.833-1.167,3.833l2.5,1.167l4.833,0.666c0,0-2.5-2.333-2.667-3.666s1-3.667,1-3.667l0.333-6.666c0,0-2.5-2.666-2.833-5s2-8.167,2-8.167L222.238,420.833z"></path><path style="fill:#6E6E6E;stroke:#000000;stroke-linecap:round;stroke-linejoin:round;" d="M233.238,414.833c-12,0-12.833-0.833-12.833-0.833s-1.5,4.333,0.833,6.833c2.833,1.5,15.167,1.167,15.167,1.167l1.5,1c0.667-1.167,4.167-1.167,4.833-2.167s1.833-5.833,0-7.5C240.238,414.333,237.76,414.833,233.238,414.833z"></path></g><g><path style="fill:#3F3F3F;stroke:#000000;stroke-linecap:round;stroke-linejoin:round;" d="M225.571,447.333c0,0,1.833-1.999,2.833-1.833s3.167,1.666,3.167,1.666s-1.833,2.334-3,2.334S225.571,447.333,225.571,447.333z"></path><path style="fill:#3F3F3F;stroke:#000000;stroke-linecap:round;stroke-linejoin:round;" d="M234.904,447.333c0,0,1.833-1.999,2.833-1.833s3.167,1.666,3.167,1.666s-1.833,2.334-3,2.334S234.904,447.333,234.904,447.333z"></path></g><path style="fill:#3F3F3F;stroke:#000000;stroke-linecap:round;stroke-linejoin:round;" d="M230.138,447.333c0,0,1.833-1.999,2.833-1.833s3.167,1.666,3.167,1.666s-1.833,2.334-3,2.334S230.138,447.333,230.138,447.333z"></path></g><g><g><path style="fill:#6E6E6E;stroke:#000000;stroke-linecap:round;stroke-linejoin:round;" d="M278.432,420c0,0,0.833,6.332,0.333,8.166s-3.501,4.834-2.833,8.167c0.666,3.333,1.5,6.501,2.833,7.167c-1.833,0.333-2.667-0.167-2.667-0.167l1.667,3l-1.833-0.167c0,0,0.666,0.333-2.834,1.5s-12,1.167-13.666,0.167c-1-1.333-1.334-1.833-1.334-1.833l-2.333,0.333c0,0,2.501-2.334,2.833-3.167c-1.166,0.167-1.666-0.166-1.666-0.166l2.666-3.334c0,0,0.5-5.333,0-6.333s-2.334-4.333-2.666-6c-0.334-1.667,0.666-7.667,0.666-7.667L278.432,420z"></path><path style="fill:#505050;" d="M277.765,420.833c0.118,0.658,0.622,8.064,0.833,7.5c0.5-1.333-4.065,4.833-4.065,5.5s2.667,9,2.667,9s-1.334-0.333-2-1.333c-0.167,0.667,1.166,3.833,1.166,3.833l-2.5,1.167l-4.834,0.666c0,0,2.501-2.333,2.668-3.666c0.166-1.333-1-3.667-1-3.667l-0.334-6.666c0,0,2.5-2.666,2.834-5c0.333-2.334-2-8.167-2-8.167L277.765,420.833z"></path><path style="fill:#6E6E6E;stroke:#000000;stroke-linecap:round;stroke-linejoin:round;" d="M266.765,414.833c12,0,12.833-0.833,12.833-0.833s1.5,4.333-0.833,6.833c-2.833,1.5-15.167,1.167-15.167,1.167l-1.5,1c-0.666-1.167-4.166-1.167-4.833-2.167s-1.833-5.833,0-7.5C259.765,414.333,262.242,414.833,266.765,414.833z"></path></g><g><path style="fill:#3F3F3F;stroke:#000000;stroke-linecap:round;stroke-linejoin:round;" d="M274.432,447.333c0,0-1.834-1.999-2.834-1.833s-3.166,1.666-3.166,1.666s1.832,2.334,3,2.334C272.598,449.5,274.432,447.333,274.432,447.333z"></path><path style="fill:#3F3F3F;stroke:#000000;stroke-linecap:round;stroke-linejoin:round;" d="M265.098,447.333c0,0-1.832-1.999-2.832-1.833s-3.168,1.666-3.168,1.666s1.834,2.334,3,2.334C263.266,449.5,265.098,447.333,265.098,447.333z"></path></g><path style="fill:#3F3F3F;stroke:#000000;stroke-linecap:round;stroke-linejoin:round;" d="M269.865,447.333c0,0-1.834-1.999-2.834-1.833s-3.166,1.666-3.166,1.666s1.832,2.334,3,2.334C268.031,449.5,269.865,447.333,269.865,447.333z"></path></g></g></g></svg>