<svg xmlns="http://www.w3.org/2000/svg" width="500" height="500" version="1.1"><g id="x9044"><g><g><path style="fill:#6E6E6E;stroke:#000000;stroke-linecap:round;stroke-linejoin:round;" d="M239.541,441.5c0,0,1.25,1,0.625,2.25c-2.75,2.125-4.25,2.5-4.25,2.5S237.916,442,239.541,441.5z"></path><path style="fill:#6E6E6E;stroke:#000000;stroke-linecap:round;stroke-linejoin:round;" d="M235.916,446.25c0,0-6.125-4.625-9.5-4.875c-0.875,0.5-0.875,1.75-0.875,1.75L235.916,446.25z"></path><path style="fill:#55454B;stroke:#000000;stroke-linecap:round;stroke-linejoin:round;" d="M240.39,445.227c0,0,0.375,4.875-0.625,5.75c-2.625,1.25-10,1.5-12.375,0c-0.875-2.625-1-5.375-1-5.375s1.25,2.25,8,2.375C240.519,448.09,240.39,445.227,240.39,445.227z"></path></g><g><path style="fill:#6E6E6E;stroke:#000000;stroke-linecap:round;stroke-linejoin:round;" d="M260.459,441.5c0,0-1.25,1-0.625,2.25c2.75,2.125,4.25,2.5,4.25,2.5S262.084,442,260.459,441.5z"></path><path style="fill:#6E6E6E;stroke:#000000;stroke-linecap:round;stroke-linejoin:round;" d="M264.084,446.25c0,0,6.125-4.625,9.5-4.875c0.875,0.5,0.875,1.75,0.875,1.75L264.084,446.25z"></path><path style="fill:#55454B;stroke:#000000;stroke-linecap:round;stroke-linejoin:round;" d="M259.609,445.227c0,0-0.375,4.875,0.625,5.75c2.625,1.25,10,1.5,12.375,0c0.875-2.625,1-5.375,1-5.375s-1.25,2.25-8,2.375C259.48,448.09,259.609,445.227,259.609,445.227z"></path></g></g></g></svg>