<svg xmlns="http://www.w3.org/2000/svg" width="500" height="500" version="1.1"><g id="x9045"><g><g><g><path style="fill:#6E6E6E;stroke:#000000;stroke-linecap:round;stroke-linejoin:round;" d="M225.889,446.197c-1.002-3.343-1.006-6.447-1.006-6.447l10.75-4.25l4.25,5.5c0,0,0.486,2.677,0.61,4.636C235.314,447.814,230.54,447.527,225.889,446.197z"></path><path style="fill:#C7AA99;stroke:#000000;stroke-linecap:round;stroke-linejoin:round;" d="M240.494,445.636c0.054,0.848,0.041,1.563-0.11,1.864c-0.5,1-9.5,2.25-13.75,0.75c-0.297-0.678-0.539-1.37-0.744-2.053C230.54,447.527,235.314,447.814,240.494,445.636z"></path></g><g><g><path style="fill:#6E6E6E;stroke:#000000;stroke-linecap:round;stroke-linejoin:round;" d="M240.883,431.75l1.5,1l1,6c0,0-2.5,2.75-3.25,3.5c-1-2.25-5.25-4.458-5.25-4.458l-0.5-4L240.883,431.75z"></path><g><line style="fill:none;stroke:#C7AA99;stroke-linecap:round;stroke-linejoin:round;" x1="235.883" y1="435.334" x2="242.383" y2="437.25"></line><line style="fill:none;stroke:#C7AA99;stroke-linecap:round;stroke-linejoin:round;" x1="241.758" y1="434.001" x2="238.883" y2="439"></line></g><path style="fill:#C7AA99;stroke:#000000;stroke-linecap:round;stroke-linejoin:round;" d="M234.383,436.792c0,0,3.083,5.875,3.583,5.834s4.25-1.292,5.667-3.126c0.637-0.823,0-2.75,0-2.75c-1.959,2.543-5.209,3.584-5.209,3.584l-3.541-6.792L234.383,436.792z"></path></g><path style="fill:#6E6E6E;stroke:#000000;stroke-linecap:round;stroke-linejoin:round;" d="M234.383,433.792l-0.25,4.25c0,0-2.5,3.458-3.25,4.958c-4.5-0.5-8-1.75-8.75-2.75c-0.25-3.25-0.25-7.75-0.25-7.75l1.5-1c0,0,2.25,2,6.25,2S234.383,433.792,234.383,433.792z"></path><g><line style="fill:none;stroke:#C7AA99;stroke-linecap:round;stroke-linejoin:round;" x1="232.883" y1="435.459" x2="222.883" y2="438.584"></line><path style="fill:none;stroke:#C7AA99;stroke-linecap:round;stroke-linejoin:round;" d="M230.758,440.418c-1.209-1.334-8.167-6.709-8.167-6.709"></path></g><path style="fill:#C7AA99;stroke:#000000;stroke-linecap:round;stroke-linejoin:round;" d="M234.532,437.292c0,0-1.814,4.958-2.648,5.501s-7.5,0.457-9.75-1.793c-0.417-0.791-0.125-1.916-0.125-1.916s4.833,1.959,8.375,1.75c0.794-0.047,4-7.042,4-7.042L234.532,437.292z"></path></g></g><g><g><path style="fill:#6E6E6E;stroke:#000000;stroke-linecap:round;stroke-linejoin:round;" d="M274.11,446.197c1.002-3.343,1.006-6.447,1.006-6.447l-10.75-4.25l-4.25,5.5c0,0-0.486,2.677-0.61,4.636C264.686,447.814,269.46,447.527,274.11,446.197z"></path><path style="fill:#C7AA99;stroke:#000000;stroke-linecap:round;stroke-linejoin:round;" d="M259.506,445.636c-0.054,0.848-0.041,1.563,0.11,1.864c0.5,1,9.5,2.25,13.75,0.75c0.297-0.678,0.539-1.37,0.744-2.053C269.46,447.527,264.686,447.814,259.506,445.636z"></path></g><g><g><path style="fill:#6E6E6E;stroke:#000000;stroke-linecap:round;stroke-linejoin:round;" d="M259.116,431.75l-1.5,1l-1,6c0,0,2.5,2.75,3.25,3.5c1-2.25,5.25-4.458,5.25-4.458l0.5-4L259.116,431.75z"></path><g><line style="fill:none;stroke:#C7AA99;stroke-linecap:round;stroke-linejoin:round;" x1="264.116" y1="435.334" x2="257.616" y2="437.25"></line><line style="fill:none;stroke:#C7AA99;stroke-linecap:round;stroke-linejoin:round;" x1="258.241" y1="434.001" x2="261.116" y2="439"></line></g><path style="fill:#C7AA99;stroke:#000000;stroke-linecap:round;stroke-linejoin:round;" d="M265.616,436.792c0,0-3.083,5.875-3.583,5.834s-4.25-1.292-5.667-3.126c-0.637-0.823,0-2.75,0-2.75c1.959,2.543,5.209,3.584,5.209,3.584l3.541-6.792L265.616,436.792z"></path></g><path style="fill:#6E6E6E;stroke:#000000;stroke-linecap:round;stroke-linejoin:round;" d="M265.616,433.792l0.25,4.25c0,0,2.5,3.458,3.25,4.958c4.5-0.5,8-1.75,8.75-2.75c0.25-3.25,0.25-7.75,0.25-7.75l-1.5-1c0,0-2.25,2-6.25,2S265.616,433.792,265.616,433.792z"></path><g><line style="fill:none;stroke:#C7AA99;stroke-linecap:round;stroke-linejoin:round;" x1="267.116" y1="435.459" x2="277.116" y2="438.584"></line><path style="fill:none;stroke:#C7AA99;stroke-linecap:round;stroke-linejoin:round;" d="M269.241,440.418c1.209-1.334,8.167-6.709,8.167-6.709"></path></g><path style="fill:#C7AA99;stroke:#000000;stroke-linecap:round;stroke-linejoin:round;" d="M265.468,437.292c0,0,1.814,4.958,2.648,5.501s7.5,0.457,9.75-1.793c0.417-0.791,0.125-1.916,0.125-1.916s-4.833,1.959-8.375,1.75c-0.794-0.047-4-7.042-4-7.042L265.468,437.292z"></path></g></g></g></g></svg>