<svg xmlns="http://www.w3.org/2000/svg" width="500" height="500" version="1.1"><g id="x9046"><g><g><path style="fill:#6E6E6E;stroke:#000000;stroke-linecap:round;stroke-linejoin:round;" d="M225.403,442.125c0,0,0.25,5.375,1.625,6.25s12.438,1.125,13.375-0.375s-0.125-2.625-0.125-2.625l-6.438-0.25l-6.813,0.438L225.403,442.125z"></path><path style="fill:#FFFFFF;stroke:#000000;stroke-linecap:round;stroke-linejoin:round;" d="M225.278,440.063c0,0,0.938,3.625,3.25,4.313s10.5,0.313,11.313-0.188c0.063-0.75-0.063-1.688-0.063-1.688s1.25,3.75,0.438,4.5s-5.813-1.188-5.813-1.188s-4.938,1.688-5.875,1.625S225.028,444.125,225.278,440.063z"></path></g><g><path style="fill:#6E6E6E;stroke:#000000;stroke-linecap:round;stroke-linejoin:round;" d="M274.599,442.125c0,0-0.25,5.375-1.625,6.25S260.536,449.5,259.599,448s0.125-2.625,0.125-2.625l6.438-0.25l6.813,0.438L274.599,442.125z"></path><path style="fill:#FFFFFF;stroke:#000000;stroke-linecap:round;stroke-linejoin:round;" d="M274.724,440.063c0,0-0.938,3.625-3.25,4.313s-10.5,0.313-11.313-0.188c-0.063-0.75,0.063-1.688,0.063-1.688s-1.25,3.75-0.438,4.5s5.813-1.188,5.813-1.188s4.938,1.688,5.875,1.625S274.974,444.125,274.724,440.063z"></path></g></g></g></svg>