<svg xmlns="http://www.w3.org/2000/svg" width="500" height="500" version="1.1"><g id="x9047"><g><g><path style="fill:#220D14;stroke:#000000;stroke-linecap:round;stroke-linejoin:round;" d="M217.327,382.625c0,0-1.625,4.5-1.75,6.375s3,5.75,3,5.75L217.327,382.625z"></path><g><g><path style="fill:#402B32;stroke:#000000;stroke-linecap:round;stroke-linejoin:round;" d="M243.743,409.5c0,0-1.675,16.778-2.591,20.528c-0.838,3.432-1,5.5-1,5.5s0.535,11.097,0.5,11.667c-0.667,2.167-4.334,4.333-5.167,4.5c-0.833,0.167-9.333-0.5-11.332-6.334c0,0-0.153-7.195-0.333-9.666c0,0-3.742-20.028-4.076-27.695"></path><path style="fill:#C9C9C9;" d="M226.625,443.813c0,0,4.375,2.875,7.375,3s5.25-2.625,5.25-2.625s-1.917,3.063-4.813,3C231.313,447.438,226.625,443.813,226.625,443.813z"></path><path style="fill:#402B32;stroke:#000000;stroke-linecap:round;stroke-linejoin:round;" d="M246.5,387.5c0,0,1.5,3.167,1.167,16.501c-2.5,4.958-7.924,9.166-10.091,10.499s-4.333,1.5-4.333,1.5s-9.245,0.459-20.077-11.333c-2.411-2.499-4.542-11.416-4.167-16.333c0.875-4.875,7.833-13.333,7.833-13.333l0.494,6.374c0,0-4.583,7.333-0.25,13c4.333,5.667,13.791,9.417,15.625,9.75c1.326,0.24,7.125-1.5,10.625-6.875c1.137-2.184,0.401-6.987,0.125-10.125l1.049-4.791L246.5,387.5z"></path><path style="fill:#C9C9C9;" d="M231.167,406.583l1.333-1.833l0.167,10.583c0,0-0.667-6.667-0.75-7.417S231.167,406.583,231.167,406.583z"></path><path style="fill:#220D14;stroke:#000000;stroke-linecap:round;stroke-linejoin:round;" d="M244.326,392.625l-0.875-5.5l-0.125,8.75C243.326,395.875,244.201,394,244.326,392.625"></path><line style="fill:#402B32;stroke:#000000;stroke-linecap:round;stroke-linejoin:round;" x1="233.119" y1="404.667" x2="233.202" y2="414.875"></line><path style="fill:#402B32;stroke:#000000;stroke-linecap:round;stroke-linejoin:round;" d="M240.167,442.416c0,0-2.417,2.75-3.417,3.417c-0.62,0.413-4.112,0.46-4.688,0.292c-1.431-0.417-5.98-2.938-7.313-4.938"></path></g><path style="fill:#6E6E6E;stroke:#000000;stroke-linecap:round;stroke-linejoin:round;" d="M243.701,385.75c0,0,2.347,8.627,1.625,10.25c-1,2.25-5.076,7.085-10.493,10.168l-1.007-1.918c0,0,9-4.75,10.25-9.875c0.875-3.875-0.375-6.625-0.375-6.625V385.75"></path><path style="fill:#6E6E6E;stroke:#000000;stroke-linecap:round;stroke-linejoin:round;" d="M232.077,404.25l-1.25,2c0,0-13.702-6.041-16.327-15.916c-0.625-3.625,2.827-8.959,2.827-8.959l0.25,1.625c0,0-2.16,4.626-1.411,6.501C216.917,391.376,221.452,400.375,232.077,404.25z"></path></g></g><g><path style="fill:#220D14;stroke:#000000;stroke-linecap:round;stroke-linejoin:round;" d="M282.349,382.625c0,0,1.625,4.5,1.75,6.375s-3,5.75-3,5.75L282.349,382.625z"></path><g><g><path style="fill:#402B32;stroke:#000000;stroke-linecap:round;stroke-linejoin:round;" d="M255.932,409.5c0,0,1.675,16.778,2.591,20.528c0.838,3.432,1,5.5,1,5.5s-0.535,11.097-0.5,11.667c0.667,2.167,4.334,4.333,5.167,4.5s9.333-0.5,11.333-6.334c0,0,0.153-7.195,0.333-9.666c0,0,3.742-20.028,4.076-27.695"></path><path style="fill:#C9C9C9;" d="M273.05,443.813c0,0-4.375,2.875-7.375,3s-5.25-2.625-5.25-2.625s1.916,3.063,4.813,3C268.362,447.438,273.05,443.813,273.05,443.813z"></path><path style="fill:#402B32;stroke:#000000;stroke-linecap:round;stroke-linejoin:round;" d="M253.174,387.5c0,0-1.5,3.167-1.167,16.501c2.501,4.958,7.925,9.166,10.092,10.499s4.333,1.5,4.333,1.5s9.245,0.459,20.078-11.333c2.41-2.499,4.541-11.416,4.166-16.333c-0.875-4.875-7.834-13.333-7.834-13.333l-0.493,6.374c0,0,4.583,7.333,0.25,13s-13.791,9.417-15.625,9.75c-1.326,0.24-7.125-1.5-10.625-6.875c-1.137-2.184-0.401-6.987-0.125-10.125l-1.049-4.791L253.174,387.5z"></path><path style="fill:#C9C9C9;" d="M268.509,406.583l-1.334-1.833l-0.166,10.583c0,0,0.667-6.667,0.75-7.417S268.509,406.583,268.509,406.583z"></path><path style="fill:#220D14;stroke:#000000;stroke-linecap:round;stroke-linejoin:round;" d="M255.349,392.625l0.875-5.5l0.125,8.75C256.349,395.875,255.474,394,255.349,392.625"></path><line style="fill:#402B32;stroke:#000000;stroke-linecap:round;stroke-linejoin:round;" x1="266.557" y1="404.667" x2="266.474" y2="414.875"></line><path style="fill:#402B32;stroke:#000000;stroke-linecap:round;stroke-linejoin:round;" d="M259.508,442.416c0,0,2.417,2.75,3.417,3.417c0.619,0.413,4.112,0.46,4.688,0.292c1.432-0.417,5.98-2.938,7.313-4.938"></path></g><path style="fill:#6E6E6E;stroke:#000000;stroke-linecap:round;stroke-linejoin:round;" d="M255.974,385.75c0,0-2.348,8.627-1.625,10.25c1,2.25,5.075,7.085,10.493,10.168l1.007-1.918c0,0-9-4.75-10.25-9.875c-0.875-3.875,0.375-6.625,0.375-6.625V385.75"></path><path style="fill:#6E6E6E;stroke:#000000;stroke-linecap:round;stroke-linejoin:round;" d="M267.599,404.25l1.25,2c0,0,13.702-6.041,16.327-15.916c0.625-3.625-2.827-8.959-2.827-8.959l-0.25,1.625c0,0,2.16,4.626,1.41,6.501S278.224,400.375,267.599,404.25z"></path></g></g></g></g></svg>