<svg xmlns="http://www.w3.org/2000/svg" width="500" height="500" version="1.1"><g id="x9048"><g><g><path style="fill:#6E6E6E;stroke:#000000;stroke-linecap:round;stroke-linejoin:round;" d="M222.333,425.526c0.967,5.558,2.016,11.401,2.211,12.725c0.334,2.25,1.45,9.001,2.45,9.667s10.751,0.584,13.083-0.25c0.5-2.25-0.799-8.417-0.799-8.417s1.436-7.507,2.422-14.207C235.245,424.727,228.789,424.736,222.333,425.526z"></path><path style="fill:#766D6F;stroke:#000000;stroke-linecap:round;stroke-linejoin:round;" d="M233.28,426.827l2.951-2.4c0.271-0.22,0.311-0.618,0.091-0.888c-0.22-0.271-0.618-0.313-0.888-0.092l-3.211,2.614l-4.073-2.952c-0.282-0.204-0.677-0.141-0.882,0.143c-0.205,0.281-0.143,0.677,0.141,0.882l3.799,2.753l-2.563,2.087c-0.143,0.116-0.228,0.288-0.233,0.472c-0.004,0.184,0.07,0.36,0.205,0.484l2.828,2.586l-1.58,1.549c-0.126,0.124-0.194,0.295-0.189,0.471c0.006,0.176,0.084,0.343,0.218,0.459l1.737,1.508l-1.87,1.826c-0.122,0.118-0.19,0.281-0.19,0.451c0,0.169,0.068,0.332,0.189,0.451l2.525,2.475c0.003,0.003,0.008,0.004,0.01,0.007c0.002,0.002,0.004,0.005,0.006,0.007c0.025,0.025,0.059,0.035,0.088,0.054c0.039,0.025,0.076,0.055,0.119,0.071c0.035,0.014,0.072,0.014,0.109,0.021c0.043,0.008,0.084,0.021,0.127,0.019c0.042-0.001,0.08-0.015,0.12-0.024c0.04-0.009,0.079-0.011,0.116-0.027c0.037-0.016,0.068-0.045,0.102-0.068s0.069-0.037,0.098-0.067c0.002-0.002,0.003-0.006,0.006-0.01c0.002-0.001,0.006-0.002,0.008-0.005l2.368-2.579c0.115-0.126,0.175-0.293,0.165-0.463c-0.009-0.17-0.088-0.329-0.217-0.441l-2.015-1.75l1.517-1.479c0.125-0.121,0.193-0.287,0.19-0.461c-0.003-0.175-0.077-0.34-0.206-0.457l-1.713-1.566l2.782-2.727c0.133-0.13,0.201-0.313,0.188-0.498c-0.014-0.185-0.108-0.355-0.259-0.465L233.28,426.827z M234.191,438.727l-1.487,1.619l-1.6-1.566l1.482-1.447L234.191,438.727z M233.649,434.531l-1.111,1.085l-1.301-1.128l1.143-1.119L233.649,434.531z M232.349,431.63l-2.34-2.139l2.258-1.837l2.379,1.725L232.349,431.63z"></path><path style="fill:#6E6E6E;stroke:#000000;stroke-linecap:round;stroke-linejoin:round;" d="M221.114,418.25c0,0,2.826,1.375,11.947,1.375c9.12,0,9.634-1.75,9.634-1.75s0.916,1.366,1.349,2.625c0.34,0.986,0.449,1.75,0.449,2.25c-1.027-0.25-1.67-0.125-1.67-0.125s0.514,3.25-1.412,4.25c-2.826-1.625-3.469-3-3.469-3s-0.257,3-2.44,3.75c-3.083-1-3.597-2.875-3.597-2.875s-2.441,3-4.496,3.625c-2.697-1.875-2.313-4-2.313-4s-1.926,2.375-3.468,3.125c-1.284-2.5-0.128-4.875-0.128-4.875l-2.57,1.125c0,0,0.193-1.688,0.322-2.563C219.381,420.313,221.114,418.25,221.114,418.25z"></path></g><g><path style="fill:#6E6E6E;stroke:#000000;stroke-linecap:round;stroke-linejoin:round;" d="M277.668,425.526c-0.966,5.558-2.015,11.401-2.211,12.725c-0.333,2.25-1.449,9.001-2.449,9.667s-10.751,0.584-13.084-0.25c-0.5-2.25,0.8-8.417,0.8-8.417s-1.437-7.507-2.423-14.207C264.757,424.727,271.213,424.736,277.668,425.526z"></path><path style="fill:#766D6F;stroke:#000000;stroke-linecap:round;stroke-linejoin:round;" d="M264.009,428.794c-0.151,0.109-0.245,0.28-0.259,0.465c-0.014,0.186,0.055,0.368,0.188,0.498l2.781,2.727l-1.713,1.566c-0.129,0.117-0.202,0.282-0.205,0.457c-0.003,0.174,0.065,0.34,0.19,0.461l1.517,1.479l-2.016,1.75c-0.129,0.112-0.207,0.271-0.217,0.441s0.051,0.337,0.166,0.463l2.368,2.579c0.001,0.003,0.005,0.004,0.007,0.005c0.004,0.004,0.004,0.008,0.006,0.01c0.029,0.03,0.065,0.044,0.098,0.067c0.034,0.023,0.065,0.053,0.103,0.068c0.037,0.017,0.076,0.019,0.116,0.027c0.039,0.01,0.078,0.023,0.119,0.024c0.043,0.002,0.085-0.011,0.127-0.019c0.037-0.007,0.074-0.007,0.109-0.021c0.043-0.017,0.08-0.046,0.12-0.071c0.028-0.019,0.062-0.028,0.087-0.054c0.003-0.002,0.004-0.005,0.006-0.007c0.003-0.003,0.008-0.004,0.01-0.007l2.526-2.475c0.12-0.119,0.188-0.282,0.188-0.451c0-0.17-0.068-0.333-0.189-0.451l-1.871-1.826l1.738-1.508c0.133-0.116,0.212-0.283,0.217-0.459c0.006-0.176-0.063-0.347-0.188-0.471l-1.581-1.549l2.828-2.586c0.136-0.124,0.21-0.301,0.205-0.484c-0.006-0.184-0.09-0.355-0.232-0.472l-2.564-2.087l3.799-2.753c0.283-0.205,0.346-0.601,0.141-0.882c-0.204-0.283-0.6-0.347-0.881-0.143l-4.073,2.952l-3.211-2.614c-0.271-0.221-0.668-0.18-0.888,0.092c-0.221,0.27-0.18,0.668,0.091,0.888l2.95,2.4L264.009,428.794z M267.415,437.332l1.481,1.447l-1.599,1.566l-1.487-1.619L267.415,437.332z M267.622,433.369l1.142,1.119l-1.3,1.128l-1.112-1.085L267.622,433.369z M265.356,429.379l2.379-1.725l2.257,1.837l-2.339,2.139L265.356,429.379z"></path><path style="fill:#6E6E6E;stroke:#000000;stroke-linecap:round;stroke-linejoin:round;" d="M278.887,418.25c0,0-2.826,1.375-11.946,1.375s-9.634-1.75-9.634-1.75s-0.916,1.366-1.35,2.625c-0.339,0.986-0.449,1.75-0.449,2.25c1.027-0.25,1.67-0.125,1.67-0.125s-0.514,3.25,1.413,4.25c2.825-1.625,3.468-3,3.468-3s0.258,3,2.441,3.75c3.082-1,3.596-2.875,3.596-2.875s2.441,3,4.496,3.625c2.698-1.875,2.313-4,2.313-4s1.927,2.375,3.469,3.125c1.284-2.5,0.128-4.875,0.128-4.875l2.569,1.125c0,0-0.193-1.688-0.321-2.563S278.887,418.25,278.887,418.25z"></path></g></g></g></svg>