<svg xmlns="http://www.w3.org/2000/svg" width="500" height="500" version="1.1"><g id="x9049"><g><g><path style="fill:#402C51;stroke:#000000;stroke-linecap:round;stroke-linejoin:round;" d="M219.959,403.922c0.025,14.076,5.728,38.63,5.728,38.63s0.744,5.157,1.646,5.458c0.902,0.3,12.327,0.685,12.625-0.451c0.751-2.855-0.825-7.912-0.825-7.912s2.545-15.104,3.164-20.971c0.854-8.1,0.442-16.269,0.442-16.269s0.013-2.152,0.038-4.907h-23.243C219.843,401.14,220.048,403.879,219.959,403.922z"></path><g><g><path style="fill:#6E6E6E;stroke:#000000;stroke-linecap:round;stroke-linejoin:round;" d="M222.438,406.625c0,0-2.75,2.563-2.938,3.063c-0.063,1.25,0.438,2.375,0.438,2.375l5.125-4.75L222.438,406.625z"></path><path style="fill:#6E6E6E;stroke:#000000;stroke-linecap:round;stroke-linejoin:round;" d="M219.563,405.813c0,0-0.625,1.5-0.438,2.125s4.563,4.063,4.563,4.063s1-1.625,1-1.938C224.001,409.25,219.563,405.813,219.563,405.813z"></path></g><g><path style="fill:#6E6E6E;stroke:#000000;stroke-linecap:round;stroke-linejoin:round;" d="M223.813,411.563c0,0-3.688,3.5-3.875,4c-0.063,1.25,0.438,2.375,0.438,2.375s5.125-4.438,5.125-4.75C224.938,412.125,223.813,411.563,223.813,411.563z"></path><path style="fill:#6E6E6E;stroke:#000000;stroke-linecap:round;stroke-linejoin:round;" d="M220.001,411.688c0,0-0.625,1.5-0.438,2.125s4.563,4.063,4.563,4.063s1-1.625,1-1.938C224.438,415.125,220.001,411.688,220.001,411.688z"></path></g><g><path style="fill:#6E6E6E;stroke:#000000;stroke-linecap:round;stroke-linejoin:round;" d="M223.938,417.688c0,0-3.168,3.395-3.325,3.905c0.014,1.252,0.582,2.344,0.582,2.344s4.493-4.749,4.493-5.124C225.001,417.875,223.938,417.688,223.938,417.688z"></path><path style="fill:#6E6E6E;stroke:#000000;stroke-linecap:round;stroke-linejoin:round;" d="M220.44,417.722c0,0-0.533,1.535-0.308,2.147c0.226,0.612,4.802,3.777,4.802,3.777s0.899-1.684,0.88-1.995C225.079,420.882,220.44,417.722,220.44,417.722z"></path></g></g><g><path style="fill:#6F676B;stroke:#000000;stroke-linecap:round;stroke-linejoin:round;" d="M219.034,390.834c-0.5,0-1.867,1.5-1.867,1.5l0.333,3.667l-2.333,7.666c0,0,4.667,3.666,15.833,3.666s14.5-3,14.5-3l-1.534-6.901c0,0,1.25-3.833,1.034-4.432s-2.167-2.166-2.167-2.166l-0.167,1.833c0,0-4.333,1.834-12,1.834s-11.467-1.334-11.467-1.334L219.034,390.834z"></path><path style="fill:#51494D;" d="M218.59,391.656l-1,0.813l0.281,3.781l-1.406,4.438c0,0,1.938,1.469,7.375,2.344c-2.364-1.698-1.864-7.281-0.563-8.5c-2.417-0.5-4.25-0.969-4.25-0.969L218.59,391.656z"></path><g><path style="fill:#6E6E6E;stroke:#000000;stroke-linecap:round;stroke-linejoin:round;" d="M215.941,400.834l-0.958,3.042c0,0,5.167,3.708,15.375,3.708s15.292-3.25,15.292-3.25l-0.784-2.917c0,0-5.666,2.583-14.75,2.583c-9.083,0-13.832-2.917-13.832-2.917"></path></g></g></g><g><path style="fill:#402C51;stroke:#000000;stroke-linecap:round;stroke-linejoin:round;" d="M280.042,403.922c-0.025,14.076-5.728,38.63-5.728,38.63s-0.744,5.157-1.646,5.458c-0.902,0.3-12.327,0.685-12.626-0.451c-0.75-2.855,0.826-7.912,0.826-7.912s-2.545-15.104-3.164-20.971c-0.854-8.1-0.443-16.269-0.443-16.269s-0.012-2.152-0.037-4.907h23.242C280.158,401.14,279.953,403.879,280.042,403.922z"></path><g><g><path style="fill:#6E6E6E;stroke:#000000;stroke-linecap:round;stroke-linejoin:round;" d="M277.563,406.625c0,0,2.75,2.563,2.938,3.063c0.063,1.25-0.438,2.375-0.438,2.375l-5.125-4.75L277.563,406.625z"></path><path style="fill:#6E6E6E;stroke:#000000;stroke-linecap:round;stroke-linejoin:round;" d="M280.438,405.813c0,0,0.625,1.5,0.438,2.125S276.313,412,276.313,412s-1-1.625-1-1.938C276,409.25,280.438,405.813,280.438,405.813z"></path></g><g><path style="fill:#6E6E6E;stroke:#000000;stroke-linecap:round;stroke-linejoin:round;" d="M276.188,411.563c0,0,3.688,3.5,3.875,4c0.063,1.25-0.438,2.375-0.438,2.375s-5.125-4.438-5.125-4.75C275.063,412.125,276.188,411.563,276.188,411.563z"></path><path style="fill:#6E6E6E;stroke:#000000;stroke-linecap:round;stroke-linejoin:round;" d="M280,411.688c0,0,0.625,1.5,0.438,2.125s-4.563,4.063-4.563,4.063s-1-1.625-1-1.938C275.563,415.125,280,411.688,280,411.688z"></path></g><g><path style="fill:#6E6E6E;stroke:#000000;stroke-linecap:round;stroke-linejoin:round;" d="M276.063,417.688c0,0,3.168,3.395,3.325,3.905c-0.015,1.252-0.581,2.344-0.581,2.344s-4.494-4.749-4.494-5.124C275,417.875,276.063,417.688,276.063,417.688z"></path><path style="fill:#6E6E6E;stroke:#000000;stroke-linecap:round;stroke-linejoin:round;" d="M279.561,417.722c0,0,0.533,1.535,0.309,2.147c-0.227,0.612-4.803,3.777-4.803,3.777s-0.898-1.684-0.879-1.995C274.922,420.882,279.561,417.722,279.561,417.722z"></path></g></g><g><path style="fill:#6F676B;stroke:#000000;stroke-linecap:round;stroke-linejoin:round;" d="M280.967,390.834c0.5,0,1.867,1.5,1.867,1.5l-0.334,3.667l2.334,7.666c0,0-4.667,3.666-15.834,3.666c-11.166,0-14.5-3-14.5-3l1.534-6.901c0,0-1.251-3.833-1.034-4.432s2.167-2.166,2.167-2.166l0.167,1.833c0,0,4.334,1.834,12,1.834s11.467-1.334,11.467-1.334L280.967,390.834z"></path><path style="fill:#51494D;" d="M281.411,391.656l1,0.813l-0.281,3.781l1.406,4.438c0,0-1.938,1.469-7.375,2.344c2.364-1.698,1.864-7.281,0.563-8.5c2.417-0.5,4.25-0.969,4.25-0.969L281.411,391.656z"></path><g><path style="fill:#6E6E6E;stroke:#000000;stroke-linecap:round;stroke-linejoin:round;" d="M284.061,400.834l0.957,3.042c0,0-5.166,3.708-15.375,3.708c-10.207,0-15.291-3.25-15.291-3.25l0.783-2.917c0,0,5.666,2.583,14.75,2.583s13.832-2.917,13.832-2.917"></path></g></g></g></g></g></svg>