<svg xmlns="http://www.w3.org/2000/svg" width="500" height="500" version="1.1"><g id="x005"><g><g><path style="fill:#D6917A;stroke:#000000;stroke-linecap:round;stroke-linejoin:round;" d="M225.387,445.813c0,0-0.3,1.75,0.361,2.375c1.19,0.875,12.729,1.313,15.374,0.25c0.199-1.625-0.064-2.625-0.064-2.625H225.387z"></path><path style="fill:#6E6E6E;stroke:#000000;stroke-linecap:round;stroke-linejoin:round;" d="M223.416,432.417c0,0,4.166,0.417,9.083,0.417s7.917-1,7.917-1l0.417-1.25c0,0,0.969,1.086,0.917,1.5c-0.313,2.479-1.688,7.854-1.688,7.854s1.271,4.063,0.771,6.646c-1.833,0.667-13,0.437-15.271-0.334c-0.406-1.015-0.354-2.584-0.688-6c-1.675-3.203-2.438-5.313-2.875-7.666l1.083-1.833L223.416,432.417z"></path><g><g><path style="fill:#BF0000;stroke:#000000;stroke-linecap:round;stroke-linejoin:round;" d="M233.062,437.063c0,0-0.25,6.75-0.813,6.938c-0.875,0.063-1.875-0.125-1.875-0.125L233.062,437.063z"></path><path style="fill:#BF0000;stroke:#000000;stroke-linecap:round;stroke-linejoin:round;" d="M233.687,437.063c0,0,0.25,6.75,0.813,6.938c0.875,0.063,1.875-0.125,1.875-0.125L233.687,437.063z"></path></g><g><path style="fill:#BF0000;stroke:#000000;stroke-linecap:round;stroke-linejoin:round;" d="M233.136,435.938c0,0-4.063,3.125-3.875,3.75c1.063,1.188,1.688,1.75,2,1.563S233.136,435.938,233.136,435.938z"></path><path style="fill:#BF0000;stroke:#000000;stroke-linecap:round;stroke-linejoin:round;" d="M233.355,435.938c0,0,4.063,3.125,3.875,3.75c-1.063,1.188-1.688,1.75-2,1.563S233.355,435.938,233.355,435.938z"></path></g></g></g><g><path style="fill:#D6917A;stroke:#000000;stroke-linecap:round;stroke-linejoin:round;" d="M274.613,445.813c0,0,0.3,1.75-0.36,2.375c-1.191,0.875-12.729,1.313-15.374,0.25c-0.198-1.625,0.063-2.625,0.063-2.625H274.613z"></path><path style="fill:#6E6E6E;stroke:#000000;stroke-linecap:round;stroke-linejoin:round;" d="M276.584,432.417c0,0-4.166,0.417-9.083,0.417s-7.917-1-7.917-1l-0.417-1.25c0,0-0.969,1.086-0.916,1.5c0.313,2.479,1.688,7.854,1.688,7.854s-1.271,4.063-0.771,6.646c1.834,0.667,13.001,0.437,15.271-0.334c0.406-1.015,0.354-2.584,0.688-6c1.675-3.203,2.438-5.313,2.875-7.666l-1.084-1.833L276.584,432.417z"></path><g><g><path style="fill:#BF0000;stroke:#000000;stroke-linecap:round;stroke-linejoin:round;" d="M266.938,437.063c0,0,0.25,6.75,0.813,6.938c0.875,0.063,1.875-0.125,1.875-0.125L266.938,437.063z"></path><path style="fill:#BF0000;stroke:#000000;stroke-linecap:round;stroke-linejoin:round;" d="M266.313,437.063c0,0-0.25,6.75-0.813,6.938c-0.875,0.063-1.875-0.125-1.875-0.125L266.313,437.063z"></path></g><g><path style="fill:#BF0000;stroke:#000000;stroke-linecap:round;stroke-linejoin:round;" d="M266.864,435.938c0,0,4.063,3.125,3.875,3.75c-1.063,1.188-1.688,1.75-2,1.563S266.864,435.938,266.864,435.938z"></path><path style="fill:#BF0000;stroke:#000000;stroke-linecap:round;stroke-linejoin:round;" d="M266.646,435.938c0,0-4.063,3.125-3.875,3.75c1.063,1.188,1.688,1.75,2,1.563S266.646,435.938,266.646,435.938z"></path></g></g></g></g></g></svg>