<svg xmlns="http://www.w3.org/2000/svg" width="500" height="500" version="1.1"><g id="x9050"><g><g><g><g id="shoesXMLID_16_"><g><g id="shoesXMLID_18_"><path style="fill:#5F5858;" d="M239.166,439.65c0,0,2.55-15.11,3.17-20.971c0.85-8.1,0.44-16.27,0.44-16.27s0.08-14.15,0.24-16.36c0.18-2.49,1.4-5.72,2.59-8.37c-0.24,0.101-4.24,1.7-13.32,1.7c-9.37,0-14.5-1.71-14.5-1.71c0.11,0.67,0.18,1.18,0.18,1.48c0,0.989,2.29,24.649,2.03,24.77c0.02,14.08,5.73,38.63,5.73,38.63s0.193,1.344,0.502,2.7h13.958C240.083,442.587,239.166,439.65,239.166,439.65z"></path></g></g><path style="fill:#211E1E;" d="M231.893,410.604c-5.184-1.372-9.482-3.553-11.865-4.921c0.063,2.024,0.223,4.214,0.451,6.485c2.267,1.224,8.998,3.97,11.53,4.275L231.893,410.604z M232.181,425.139c-4.348-1.149-8.079-2.868-10.579-4.205c0.348,2.297,0.727,4.56,1.11,6.71c2.988,1.339,7.601,3.099,9.585,3.332L232.181,425.139z M231.32,381.754c-2.981-0.848-5.69-1.909-7.929-2.945c-3.666-0.498-5.608-1.142-5.608-1.142c0.109,0.675,0.179,1.182,0.179,1.481c0,0.145,0.05,0.784,0.133,1.754l0.532,2.248c0.189,0.569,8.876,4.313,12.823,5.18L231.32,381.754z M225.002,439.298c0.438,2.038,0.72,3.254,0.72,3.254s0.063,0.435,0.173,1.052c1.204-0.521,4.257-1.789,6.606-2.344l-0.088-4.473C229.495,437.27,226.694,438.464,225.002,439.298z M231.601,395.899c-6.075-1.68-10.868-4.433-12.66-5.547c0.133,1.482,0.267,2.982,0.393,4.424l0.542,2.288c0.175,0.527,8.442,4.076,11.842,4.725L231.601,395.899z M238.184,379.12c-1.814,1.206-3.583,2.253-4.861,2.732l0.129,6.526c2.865-0.764,8.274-5.062,10.696-7.073c0.416-1.182,0.898-2.357,1.386-3.447l0.01-0.162C245.137,377.857,242.839,378.69,238.184,379.12z M233.716,401.624c2.649-0.978,7.043-4.465,9.117-6.186c0.021-2.026,0.048-4.162,0.081-5.911c-2.271,1.742-6.661,4.989-9.315,6.172L233.716,401.624z M233.883,410.073l0.118,5.954c2.759-1.214,6.966-4.588,8.847-6.157c0.047-2.438,0.018-4.49-0.018-5.825C240.711,405.675,236.598,408.731,233.883,410.073z M239.385,438.344c-1.313-0.497-3.126-1.093-4.969-1.424l0.097,4.889c2.209,0.729,4.445,1.459,5.523,1.809c-0.288-2.104-0.868-3.971-0.868-3.971S239.25,439.162,239.385,438.344z M234.29,430.548c2.082-0.923,4.978-3.065,7.083-4.734c0.374-2.511,0.705-4.879,0.902-6.614c-2.239,1.693-5.708,4.2-8.103,5.388L234.29,430.548z"></path><ellipse style="opacity:0.5;fill:#FFFFFF;" cx="232.753" cy="407.168" rx="0.75" ry="5.166"></ellipse><g><line style="fill:none;stroke:#000000;stroke-linecap:round;stroke-linejoin:round;" x1="245.616" y1="377.67" x2="245.606" y2="377.68"></line><path style="fill:none;stroke:#000000;stroke-linecap:round;stroke-linejoin:round;" d="M245.606,377.68c-0.24,0.101-4.24,1.7-13.32,1.7c-9.37,0-14.5-1.71-14.5-1.71c0.11,0.67,0.18,1.18,0.18,1.48c0,0.989,2.29,24.649,2.03,24.77c0.02,14.08,5.73,38.63,5.73,38.63s0.74,5.16,1.64,5.46s12.33,0.681,12.63-0.45c0.75-2.859-0.83-7.909-0.83-7.909s2.55-15.11,3.17-20.971c0.85-8.1,0.44-16.27,0.44-16.27s0.08-14.15,0.24-16.36C243.196,383.56,244.416,380.33,245.606,377.68z"></path><path style="fill:#211E1E;stroke:#000000;" d="M226.228,445.25c0.296,1.301,0.698,2.613,1.138,2.76c0.9,0.3,12.33,0.681,12.63-0.45c0.178-0.679,0.222-1.481,0.19-2.31H226.228z"></path></g></g></g><g><path style="fill:#6E6E6E;stroke:#000000;stroke-linecap:round;stroke-linejoin:round;" d="M222.786,429.25l-2.75,4.25c0,0,1.5,6.5,2,8c1.625,1.438,3.75,1.75,3.75,1.75L222.786,429.25z"></path><path style="fill:#505050;" d="M221.411,437.063c0,0,1.313,0.313,2.25-0.813c0.375,1.938,1.5,6.5,1.5,6.5s-2.125-0.438-2.563-1.25C222.036,439.813,221.411,437.063,221.411,437.063z"></path></g></g><g><g><g id="shoesXMLID_24_"><g><g id="shoesXMLID_25_"><path style="fill:#5F5858;" d="M260.834,439.65c0,0-2.55-15.11-3.17-20.971c-0.851-8.1-0.44-16.27-0.44-16.27s-0.08-14.15-0.24-16.36c-0.18-2.49-1.399-5.72-2.59-8.37c0.24,0.101,4.24,1.7,13.32,1.7c9.37,0,14.5-1.71,14.5-1.71c-0.109,0.67-0.18,1.18-0.18,1.48c0,0.989-2.291,24.649-2.03,24.77c-0.021,14.08-5.729,38.63-5.729,38.63s-0.193,1.344-0.502,2.7h-13.959C259.917,442.587,260.834,439.65,260.834,439.65z"></path></g></g><path style="fill:#211E1E;" d="M267.991,416.444c2.532-0.306,9.264-3.052,11.529-4.275c0.229-2.271,0.389-4.461,0.451-6.485c-2.383,1.368-6.682,3.549-11.865,4.921L267.991,416.444z M267.702,430.976c1.984-0.233,6.598-1.993,9.586-3.332c0.383-2.15,0.762-4.413,1.109-6.71c-2.5,1.337-6.23,3.056-10.578,4.205L267.702,430.976z M268.549,388.33c3.947-0.867,12.634-4.61,12.823-5.18l0.532-2.248c0.083-0.97,0.134-1.609,0.134-1.754c0-0.3,0.07-0.807,0.179-1.481c0,0-1.942,0.644-5.608,1.142c-2.238,1.036-4.947,2.098-7.929,2.945L268.549,388.33z M267.587,436.787l-0.088,4.473c2.35,0.555,5.402,1.823,6.605,2.344c0.109-0.617,0.174-1.052,0.174-1.052s0.281-1.216,0.719-3.254C273.306,438.464,270.505,437.27,267.587,436.787z M268.282,401.789c3.398-0.648,11.666-4.197,11.842-4.725l0.541-2.288c0.127-1.441,0.26-2.941,0.394-4.424c-1.792,1.114-6.585,3.867-12.659,5.547L268.282,401.789z M254.454,377.696l0.011,0.162c0.488,1.09,0.971,2.266,1.386,3.447c2.422,2.012,7.832,6.31,10.697,7.073l0.129-6.526c-1.277-0.479-3.047-1.526-4.861-2.732C257.161,378.69,254.862,377.857,254.454,377.696z M266.401,395.699c-2.653-1.183-7.044-4.43-9.314-6.172c0.032,1.749,0.059,3.885,0.08,5.911c2.074,1.721,6.469,5.208,9.117,6.186L266.401,395.699z M257.169,404.045c-0.035,1.335-0.064,3.387-0.018,5.825c1.881,1.569,6.088,4.943,8.848,6.157l0.117-5.954C263.402,408.731,259.288,405.675,257.169,404.045z M260.832,439.646c0,0-0.579,1.866-0.868,3.971c1.078-0.35,3.314-1.079,5.523-1.809l0.097-4.889c-1.843,0.331-3.655,0.927-4.97,1.424C260.751,439.162,260.832,439.646,260.832,439.646z M265.829,424.587c-2.395-1.188-5.865-3.694-8.104-5.388c0.197,1.735,0.528,4.104,0.902,6.614c2.104,1.669,5,3.812,7.082,4.734L265.829,424.587z"></path><ellipse style="opacity:0.5;fill:#FFFFFF;" cx="267.247" cy="407.168" rx="0.75" ry="5.166"></ellipse><g><line style="fill:none;stroke:#000000;stroke-linecap:round;stroke-linejoin:round;" x1="254.384" y1="377.67" x2="254.394" y2="377.68"></line><path style="fill:none;stroke:#000000;stroke-linecap:round;stroke-linejoin:round;" d="M254.394,377.68c0.24,0.101,4.24,1.7,13.32,1.7c9.37,0,14.5-1.71,14.5-1.71c-0.109,0.67-0.18,1.18-0.18,1.48c0,0.989-2.291,24.649-2.03,24.77c-0.021,14.08-5.729,38.63-5.729,38.63s-0.74,5.16-1.641,5.46s-12.33,0.681-12.63-0.45c-0.75-2.859,0.83-7.909,0.83-7.909s-2.55-15.11-3.17-20.971c-0.851-8.1-0.44-16.27-0.44-16.27s-0.08-14.15-0.24-16.36C256.804,383.56,255.584,380.33,254.394,377.68z"></path><path style="fill:#211E1E;stroke:#000000;" d="M273.772,445.25c-0.297,1.301-0.698,2.613-1.139,2.76c-0.9,0.3-12.33,0.681-12.63-0.45c-0.178-0.679-0.222-1.481-0.19-2.31H273.772z"></path></g></g></g><g><path style="fill:#6E6E6E;stroke:#000000;stroke-linecap:round;stroke-linejoin:round;" d="M277.214,429.25l2.75,4.25c0,0-1.5,6.5-2,8c-1.625,1.438-3.75,1.75-3.75,1.75L277.214,429.25z"></path><path style="fill:#505050;" d="M278.589,437.063c0,0-1.313,0.313-2.25-0.813c-0.375,1.938-1.5,6.5-1.5,6.5s2.125-0.438,2.563-1.25C277.964,439.813,278.589,437.063,278.589,437.063z"></path></g></g></g></g></svg>