<svg xmlns="http://www.w3.org/2000/svg" width="500" height="500" version="1.1"><g id="x9051"><g><path style="fill:#6E6E6E;stroke:#000000;stroke-linecap:round;stroke-linejoin:round;" d="M225.4,440.75c0,0,0.75,7.25,2.25,8.25s11.75,0.5,13-1c0.5-3.5-0.75-7.5-0.75-7.5l-0.25,3.75c0,0-1.25-1.5-5.75-1.5s-6,2.25-6,2.25L225.4,440.75z"></path><path style="fill:#6E6E6E;stroke:#000000;stroke-linecap:round;stroke-linejoin:round;" d="M274.8,440.75c0,0-0.75,7.25-2.25,8.25s-11.75,0.5-13-1c-0.5-3.5,0.75-7.5,0.75-7.5l0.25,3.75c0,0,1.25-1.5,5.75-1.5s6,2.25,6,2.25L274.8,440.75z"></path></g></g></svg>