<svg xmlns="http://www.w3.org/2000/svg" width="500" height="500" version="1.1"><g id="x9052"><g><g><g><path style="fill:#323232;stroke:#000000;stroke-linecap:round;stroke-linejoin:round;" d="M239.643,439.583l1.417-8.917l-17.833,0.084c0,0,2.068,12.224,3.034,16.25c0,0,2.132,0.833,7.216,0.833s6.891-0.833,6.891-0.833C240.238,443.688,239.643,439.583,239.643,439.583z"></path><ellipse style="opacity:0.5;fill:#FFFFFF;" cx="236.976" cy="445.458" rx="2.333" ry="1.125"></ellipse><path style="fill:#6E6E6E;stroke:#000000;stroke-linecap:round;stroke-linejoin:round;" d="M233.393,447.333c-3.833,0-7.133-0.333-7.133-0.333c0.165,0.686,0.298,1.141,0.383,1.25c0.583,0.75,11.833,1.249,13.75-0.084c0-0.37-0.01-0.764-0.026-1.166C240.367,447,237.227,447.333,233.393,447.333z"></path></g><g><g><path style="fill:#6E6E6E;stroke:#000000;stroke-linecap:round;stroke-linejoin:round;" d="M230.31,443.083c0,0-4.667,2.834-4.667,2.584s-0.25-1.334-0.25-1.334l4.25-2.5L230.31,443.083z"></path><path style="fill:#6E6E6E;stroke:#000000;stroke-linecap:round;stroke-linejoin:round;" d="M229.476,438.666c0,0-4.667,2.834-4.667,2.584s-0.25-1.334-0.25-1.334l4.25-2.5L229.476,438.666z"></path></g><g><path style="fill:#323232;stroke:#000000;stroke-linecap:round;stroke-linejoin:round;" d="M245.675,418.083c-0.167-1.167-2.5-2.333-2.5-2.333l-0.333,1.166c0,0,1.667,0.917,1.667,1.167c0,0.175-9.073,11.253-14.567,18.253l4.675,5.431c3.926-4.741,9.705-13.809,9.892-14.184c0.25-0.5-0.417-1.667-0.417-1.667l0.833-5.666C244.925,420.25,245.841,419.25,245.675,418.083z"></path><path style="fill:#6E6E6E;stroke:#000000;stroke-linecap:round;stroke-linejoin:round;" d="M244.508,427.583c0.125-0.624,0.042-1.416-0.333-1.417c-5.173,6.824-8.874,11.721-10.754,14.212l1.019,1.184C237.137,438.162,241.739,432.171,244.508,427.583z"></path><path style="fill:#6E6E6E;stroke:#000000;stroke-linecap:round;stroke-linejoin:round;" d="M244.883,419.709c0.417-0.583,0.875-1.459,0.375-2.542s-2.333-1.667-2.333-1.667s-0.167,0.583-0.083,1.416c0.667,0.166,1.205,0.71,1.083,1.335c-0.178,0.917-8.793,11.194-14.077,17.978l1.077,1.251C235.791,431.3,244.582,420.13,244.883,419.709z"></path></g><g><path style="fill:#323232;stroke:#000000;stroke-linecap:round;stroke-linejoin:round;" d="M220.81,415.75c0,0-2.333,1.166-2.5,2.333s0.75,2.167,0.75,2.167l0.833,5.666c0,0-0.667,1.167-0.417,1.667s10.417,16.417,12.917,17s5.917-0.5,5.75-2.667c-0.083-1-18.667-23.583-18.667-23.833s1.667-1.167,1.667-1.167L220.81,415.75z"></path><path style="fill:#141414;" d="M222.81,429.083l6.667,9c0,0,1.916-0.917,2.083-1.667c-1.833-2.166-6.833-8.833-6.833-8.833S223.893,429.25,222.81,429.083z"></path><path style="fill:#6E6E6E;stroke:#000000;stroke-linecap:round;stroke-linejoin:round;" d="M219.81,426.166c-0.375,0.001-0.458,0.793-0.333,1.417c4,6.626,11.829,16.188,12.208,16.626c1.375,1.583,4.292,1.207,5.625,0.207c0,0,1.25-0.749,0.833-2.5c-0.833-2.499-17.833-22.374-18.083-23.665c-0.121-0.625,0.417-1.169,1.083-1.335c0.083-0.833-0.083-1.416-0.083-1.416s-1.833,0.584-2.333,1.667s-0.042,1.959,0.375,2.542s17.125,21.791,17.125,21.791s0.772,0.896-0.208,1.542c-2.208,1.458-4.042-0.791-4.042-0.791S227.518,436.334,219.81,426.166z"></path></g><g><circle style="fill:#E8E0E0;stroke:#000000;stroke-linecap:round;stroke-linejoin:round;" cx="233.601" cy="439.875" r="2.125"></circle><circle style="fill:#FFFFFF;" cx="233.976" cy="439.5" r="0.667"></circle></g></g></g><g><g><path style="fill:#323232;stroke:#000000;stroke-linecap:round;stroke-linejoin:round;" d="M260.356,439.583l-1.416-8.917l17.833,0.084c0,0-2.068,12.224-3.034,16.25c0,0-2.133,0.833-7.216,0.833S259.632,447,259.632,447C259.762,443.688,260.356,439.583,260.356,439.583z"></path><ellipse style="opacity:0.5;fill:#FFFFFF;" cx="263.023" cy="445.458" rx="2.333" ry="1.125"></ellipse><path style="fill:#6E6E6E;stroke:#000000;stroke-linecap:round;stroke-linejoin:round;" d="M266.606,447.333c3.834,0,7.133-0.333,7.133-0.333c-0.164,0.686-0.298,1.141-0.383,1.25c-0.583,0.75-11.834,1.249-13.75-0.084c0-0.37,0.01-0.764,0.025-1.166C259.632,447,262.772,447.333,266.606,447.333z"></path></g><g><g><path style="fill:#6E6E6E;stroke:#000000;stroke-linecap:round;stroke-linejoin:round;" d="M269.69,443.083c0,0,4.666,2.834,4.666,2.584s0.25-1.334,0.25-1.334l-4.25-2.5L269.69,443.083z"></path><path style="fill:#6E6E6E;stroke:#000000;stroke-linecap:round;stroke-linejoin:round;" d="M270.523,438.666c0,0,4.667,2.834,4.667,2.584s0.25-1.334,0.25-1.334l-4.25-2.5L270.523,438.666z"></path></g><g><path style="fill:#323232;stroke:#000000;stroke-linecap:round;stroke-linejoin:round;" d="M254.325,418.083c0.166-1.167,2.5-2.333,2.5-2.333l0.333,1.166c0,0-1.667,0.917-1.667,1.167c0,0.175,9.072,11.253,14.567,18.253l-4.675,5.431c-3.927-4.741-9.705-13.809-9.893-14.184c-0.25-0.5,0.417-1.667,0.417-1.667l-0.833-5.666C255.075,420.25,254.158,419.25,254.325,418.083z"></path><path style="fill:#6E6E6E;stroke:#000000;stroke-linecap:round;stroke-linejoin:round;" d="M255.491,427.583c-0.125-0.624-0.041-1.416,0.334-1.417c5.173,6.824,8.873,11.721,10.754,14.212l-1.02,1.184C262.862,438.162,258.261,432.171,255.491,427.583z"></path><path style="fill:#6E6E6E;stroke:#000000;stroke-linecap:round;stroke-linejoin:round;" d="M255.116,419.709c-0.416-0.583-0.875-1.459-0.375-2.542s2.334-1.667,2.334-1.667s0.166,0.583,0.083,1.416c-0.667,0.166-1.204,0.71-1.083,1.335c0.178,0.917,8.793,11.194,14.076,17.978l-1.076,1.251C264.208,431.3,255.417,420.13,255.116,419.709z"></path></g><g><path style="fill:#323232;stroke:#000000;stroke-linecap:round;stroke-linejoin:round;" d="M279.19,415.75c0,0,2.333,1.166,2.5,2.333c0.166,1.167-0.75,2.167-0.75,2.167l-0.834,5.666c0,0,0.667,1.167,0.417,1.667s-10.417,16.417-12.917,17s-5.916-0.5-5.75-2.667c0.084-1,18.667-23.583,18.667-23.833s-1.667-1.167-1.667-1.167L279.19,415.75z"></path><path style="fill:#141414;" d="M277.19,429.083l-6.668,9c0,0-1.916-0.917-2.082-1.667c1.832-2.166,6.832-8.833,6.832-8.833S276.106,429.25,277.19,429.083z"></path><path style="fill:#6E6E6E;stroke:#000000;stroke-linecap:round;stroke-linejoin:round;" d="M280.19,426.166c0.375,0.001,0.458,0.793,0.333,1.417c-4,6.626-11.829,16.188-12.208,16.626c-1.375,1.583-4.292,1.207-5.625,0.207c0,0-1.25-0.749-0.834-2.5c0.834-2.499,17.834-22.374,18.084-23.665c0.121-0.625-0.418-1.169-1.084-1.335c-0.083-0.833,0.084-1.416,0.084-1.416s1.832,0.584,2.332,1.667s0.042,1.959-0.375,2.542c-0.416,0.583-17.124,21.791-17.124,21.791s-0.772,0.896,0.208,1.542c2.209,1.458,4.041-0.791,4.041-0.791S272.481,436.334,280.19,426.166z"></path></g><g><circle style="fill:#E8E0E0;stroke:#000000;stroke-linecap:round;stroke-linejoin:round;" cx="266.398" cy="439.875" r="2.125"></circle><circle style="fill:#FFFFFF;" cx="266.023" cy="439.5" r="0.667"></circle></g></g></g></g></g></svg>