<svg xmlns="http://www.w3.org/2000/svg" width="500" height="500" version="1.1"><g id="x9054"><g><g><g><path style="fill:#6E6E6E;stroke:#000000;stroke-linecap:round;stroke-linejoin:round;" d="M225.688,442.552c0,0,0.744,5.157,1.646,5.458c0.902,0.3,12.327,0.685,12.625-0.451c0.751-2.855-0.825-7.912-0.825-7.912s0.271-1.611,0.658-3.98h-15.582C225.054,439.819,225.688,442.552,225.688,442.552z"></path><path style="fill:#505050;stroke:#000000;stroke-linecap:round;stroke-linejoin:round;" d="M229.585,439.666c0,0,1.083,2.334,1.833,2.917c0.25,1.917,0.333,3.833,0.333,3.833s3.167,0.25,4.25-0.083c-0.083-2.583-0.333-4.083-0.333-4.083l0.417-2.917C236.085,439.333,231.752,438.916,229.585,439.666z"></path><path style="fill:none;stroke:#000000;stroke-linecap:round;stroke-linejoin:round;" d="M226.585,446.167c0,0,3.583,0.25,7,0.25c4.25,0,6.5-0.5,6.5-0.5"></path></g><g><path style="fill:#6E6E6E;stroke:#000000;stroke-linecap:round;stroke-linejoin:round;" d="M223.835,433.583c0,0-3.083-7.166-3.167-7.75s0.917-2.166,0.917-2.166s3.083-0.834,10.5-0.834s10.083,0.334,10.083,0.334s0.917,1.5,1,2s-2.333,8.083-2.333,8.083L223.835,433.583z"></path><polyline style="fill:none;stroke:#000000;stroke-linecap:round;stroke-linejoin:round;" points="229.569,423.167 229.735,425.417 232.069,426.5 234.569,425.583 234.652,423 "></polyline><line style="fill:none;stroke:#000000;stroke-linecap:round;stroke-linejoin:round;" x1="223.418" y1="423.833" x2="226.585" y2="432.25"></line><line style="fill:none;stroke:#000000;stroke-linecap:round;stroke-linejoin:round;" x1="239.918" y1="423.167" x2="237.835" y2="432.083"></line></g><g><path style="fill:#6E6E6E;stroke:#000000;stroke-linecap:round;stroke-linejoin:round;" d="M224.168,432.75l-0.833,1.5c0,0,0.333,5.251,0.833,5.667s0.917,0.5,0.917,0.5s2.75-1.084,7.25-1.084s7.167,1.334,7.167,1.334l1.083-0.917l0.5-5.75l-0.667-1.167c0,0-2.667-1.083-8.167-1.083S224.168,432.75,224.168,432.75z"></path><path style="fill:#585B66;stroke:#000000;stroke-linecap:round;stroke-linejoin:round;" d="M225.565,432.644l-1.02,1.604c0,0,0.143,3.251,0.545,3.967c0.402,0.715,1.746,0.755,1.746,0.755s0.427,0.964,0.119,1.244c-0.309,0.28-2.216,0.462-2.216,0.462s-1.679-0.929-1.782-2.007s-0.849-4.524-0.631-4.88c0.217-0.354,1.276-1.544,1.276-1.544S225.194,432.26,225.565,432.644z"></path></g></g><g><g><path style="fill:#6E6E6E;stroke:#000000;stroke-linecap:round;stroke-linejoin:round;" d="M274.311,442.552c0,0-0.744,5.157-1.646,5.458c-0.902,0.3-12.326,0.685-12.625-0.451c-0.752-2.855,0.824-7.912,0.824-7.912s-0.271-1.611-0.657-3.98h15.582C274.944,439.819,274.311,442.552,274.311,442.552z"></path><path style="fill:#505050;stroke:#000000;stroke-linecap:round;stroke-linejoin:round;" d="M270.413,439.666c0,0-1.083,2.334-1.833,2.917c-0.25,1.917-0.333,3.833-0.333,3.833s-3.167,0.25-4.25-0.083c0.083-2.583,0.333-4.083,0.333-4.083l-0.417-2.917C263.913,439.333,268.246,438.916,270.413,439.666z"></path><path style="fill:none;stroke:#000000;stroke-linecap:round;stroke-linejoin:round;" d="M273.413,446.167c0,0-3.583,0.25-7,0.25c-4.25,0-6.5-0.5-6.5-0.5"></path></g><g><path style="fill:#6E6E6E;stroke:#000000;stroke-linecap:round;stroke-linejoin:round;" d="M276.163,433.583c0,0,3.083-7.166,3.166-7.75c0.084-0.584-0.916-2.166-0.916-2.166s-3.084-0.834-10.5-0.834s-10.084,0.334-10.084,0.334s-0.916,1.5-1,2c-0.082,0.5,2.334,8.083,2.334,8.083L276.163,433.583z"></path><polyline style="fill:none;stroke:#000000;stroke-linecap:round;stroke-linejoin:round;" points="270.429,423.167 270.263,425.417 267.929,426.5 265.429,425.583 265.347,423 "></polyline><line style="fill:none;stroke:#000000;stroke-linecap:round;stroke-linejoin:round;" x1="276.579" y1="423.833" x2="273.413" y2="432.25"></line><line style="fill:none;stroke:#000000;stroke-linecap:round;stroke-linejoin:round;" x1="260.079" y1="423.167" x2="262.163" y2="432.083"></line></g><g><path style="fill:#6E6E6E;stroke:#000000;stroke-linecap:round;stroke-linejoin:round;" d="M275.829,432.75l0.834,1.5c0,0-0.334,5.251-0.834,5.667s-0.916,0.5-0.916,0.5s-2.75-1.084-7.25-1.084s-7.166,1.334-7.166,1.334l-1.084-0.917l-0.5-5.75l0.666-1.167c0,0,2.668-1.083,8.168-1.083S275.829,432.75,275.829,432.75z"></path><path style="fill:#585B66;stroke:#000000;stroke-linecap:round;stroke-linejoin:round;" d="M274.433,432.644l1.02,1.604c0,0-0.143,3.251-0.545,3.967c-0.402,0.715-1.746,0.755-1.746,0.755s-0.426,0.964-0.118,1.244c0.309,0.28,2.216,0.462,2.216,0.462s1.68-0.929,1.782-2.007s0.849-4.524,0.632-4.88c-0.218-0.354-1.276-1.544-1.276-1.544S274.804,432.26,274.433,432.644z"></path></g></g></g></g></svg>