<svg xmlns="http://www.w3.org/2000/svg" width="500" height="500" version="1.1"><g id="x9055"><g><g><g><g><g><path style="fill:#363030;stroke:#000000;stroke-linecap:round;stroke-linejoin:round;" d="M239.132,439.646c0,0,2.545-15.104,3.164-20.971c0.72-6.827,0.541-13.684,0.467-15.676h-22.81c0.03,0.568,0.035,0.907,0.005,0.922c0.025,14.076,5.728,38.63,5.728,38.63s0.236,1.634,0.603,3.115h13.869C240.146,442.904,239.132,439.646,239.132,439.646z"></path><path style="opacity:0.5;fill:#FFFFFF;" d="M220.875,404.625c-0.125-0.25,2,0.5,2,0.5s-0.125,21.625,1.375,28.25C221.75,420.875,220.875,404.625,220.875,404.625z"></path></g><path style="fill:#C7A6A6;stroke:#000000;stroke-linecap:round;stroke-linejoin:round;" d="M226.289,445.667c0.285,1.151,0.649,2.211,1.043,2.343c0.902,0.3,12.327,0.685,12.625-0.451c0.148-0.563,0.203-1.213,0.2-1.892H226.289z"></path></g><g><path style="fill:#363030;stroke:#000000;stroke-linecap:round;stroke-linejoin:round;" d="M215.5,394.198c0,0,3.297,6.993,5.114,9.037c4.671,1.227,20.502,0.613,22.579-0.408c1.038-4.701,3.557-9.65,3.557-9.65s-8.229-3.635-9.267-3.431c0,1.227-2.076,4.271-6.748,4.271s-5.19-4.271-5.19-4.271L215.5,394.198z"></path><path style="opacity:0.5;fill:#FFFFFF;" d="M242.738,402.407c0,0,2.887-7.032,2.512-7.157s-4.625,6.75-5,7.625C241.5,402.75,242.738,402.407,242.738,402.407z"></path><path style="opacity:0.5;fill:#FFFFFF;" d="M216.875,395.25c0,0,3.625,7.125,4.125,7.5c1.625,0.375,3,0.25,3,0.25L216.875,395.25z"></path><g><path style="fill:#6E6E6E;stroke:#000000;stroke-linecap:round;stroke-linejoin:round;" d="M223.042,392.583c0,0,1.375-0.584,1.75-0.667s1.125,2.875,0.875,3s-1,0.584-1.542,0.5C223.792,395.166,222.875,393.208,223.042,392.583z"></path><path style="fill:#6E6E6E;stroke:#000000;stroke-linecap:round;stroke-linejoin:round;" d="M240.039,392.583c0,0-1.375-0.584-1.75-0.667s-1.125,2.875-0.875,3s1,0.584,1.542,0.5C239.289,395.166,240.206,393.208,240.039,392.583z"></path></g></g></g><g><g><g><g><path style="fill:#6E6E6E;stroke:#000000;stroke-linecap:round;stroke-linejoin:round;" d="M236.777,396.288c-0.55-0.312-3.077-0.188-4.998-0.096c-1.922,0.014-4.451,0.081-4.983,0.423c-0.737,0.474-3.736,9.574-3.2,10.918c0.518,1.293,2.098,6.952,8.689,7.186c6.569-0.594,7.839-6.33,8.284-7.649C241.033,405.698,237.539,396.72,236.777,396.288z"></path><path style="fill:#505050;" d="M232.375,407c0,0,0.375,5,0.5,6.875c1.252,0,2.702-0.462,4-1.468l-0.492-6.091C235.402,406.701,234.104,406.969,232.375,407z"></path><path style="fill:#505050;" d="M239.375,402.875c0,0-0.008,1.412-1.479,2.584l0.534,5.343c0.735-0.995,1.336-2.25,1.695-3.802C240,404.25,239.375,402.875,239.375,402.875z"></path></g><path style="fill:#363030;stroke:#000000;stroke-linecap:round;stroke-linejoin:round;" d="M232.464,400.516l-1.132,0.031c0,0-0.188,1.559-0.136,1.766c0.054,0.208,0.771,0.486,0.771,0.486s0.698-0.317,0.739-0.527C232.746,402.063,232.464,400.516,232.464,400.516z"></path><path style="fill:#363030;stroke:#000000;stroke-linecap:round;stroke-linejoin:round;" d="M238.656,400.129l-1.218-3.518c0,0,0.86,5.893-0.91,6.893c-1.772,1.001-7.264,1.151-9.088,0.248c-1.822-0.901-1.287-6.833-1.287-6.833l-0.987,3.605c0,0-0.689,2.38,0.91,4.198c1.599,1.817,5.986,1.45,5.986,1.45s4.401,0.127,5.897-1.776C239.455,402.494,238.656,400.129,238.656,400.129z"></path></g></g><g><g><path style="fill:#505050;stroke:#000000;stroke-linecap:round;stroke-linejoin:round;" d="M235.224,430.343c-0.382-0.639-2.198-0.336-2.198-0.336s-1.84-0.028-2.123,0.66c-0.283,0.689-2.602,10.998-2.028,11.958s4.687,1.847,4.687,1.847s3.889-0.687,4.313-1.722S235.606,430.982,235.224,430.343z"></path><path style="fill:#6E6E6E;" d="M230.375,442.75c0,0,0.375-2.875,1.25-3.875c0.875,0.75,0.875,4.625,0.875,4.625L230.375,442.75z"></path></g><g><g><path style="fill:#6E6E6E;stroke:#000000;stroke-linecap:round;stroke-linejoin:round;" d="M241,430.125c0,0-1.859-1.208-1.933-1.875c-0.167-1.5-0.292-6.732,0.3-8.5c1.758-5.25,6.758-4.25,6.758-4.25s-3.459-7.709-5.125-9.375c0,2.428-1.654,4.501-2.646,6.166c-1.797,3.016-3.706,4.691-5.854,4.709c-2.161-0.018-5.354-2.451-7.333-5.316c-1.075-1.556-1.792-2.532-1.792-4.934c-2.813,3.438-5.063,8.313-5.063,8.313s6.113,0.982,8.188,4.813c1.625,3,1.646,6.016,1.375,7.5c-0.524,2.875-5.25,4.75-5.25,4.75l1.125,3.125c0,0,1.75-1.5,3.375-1c1.336,0.411,1.975,3.875,1.975,3.875s2.033-8.208,2.866-9.375c0.33-0.462,0.762-0.763,1.167-0.963c0.404,0.2,0.838,0.501,1.167,0.963c0.833,1.167,2.976,9.125,2.976,9.125s0.35-4.125,3.285-4.406C241.125,432.75,241,430.125,241,430.125z"></path><path style="fill:#505050;" d="M223,408.25l0.625,2.125l-4.5,4.5C219.125,414.875,220.875,410.125,223,408.25z"></path><path style="fill:#505050;" d="M241.375,407.375c0,0,3.625,6.375,3.875,7.75c-1.5-1.25-4.625-5.375-4.625-5.375L241.375,407.375z"></path></g><path style="opacity:0.5;fill:#FFFFFF;" d="M234.5,427.25c0,0-2.375,0.625-2.375-0.125s0.25-8.75,0.875-9.125S234.5,427.25,234.5,427.25z"></path></g></g></g></g><g><g><g><g><path style="fill:#363030;stroke:#000000;stroke-linecap:round;stroke-linejoin:round;" d="M260.87,439.646c0,0-2.545-15.104-3.164-20.971c-0.72-6.827-0.541-13.684-0.467-15.676h22.81c-0.03,0.568-0.035,0.907-0.006,0.922c-0.025,14.076-5.727,38.63-5.727,38.63s-0.236,1.634-0.604,3.115h-13.868C259.856,442.904,260.87,439.646,260.87,439.646z"></path><path style="opacity:0.5;fill:#FFFFFF;" d="M279.127,404.625c0.125-0.25-2,0.5-2,0.5s0.125,21.625-1.375,28.25C278.252,420.875,279.127,404.625,279.127,404.625z"></path></g><path style="fill:#C7A6A6;stroke:#000000;stroke-linecap:round;stroke-linejoin:round;" d="M273.713,445.667c-0.284,1.151-0.648,2.211-1.043,2.343c-0.902,0.3-12.326,0.685-12.625-0.451c-0.148-0.563-0.203-1.213-0.2-1.892H273.713z"></path></g><g><path style="fill:#363030;stroke:#000000;stroke-linecap:round;stroke-linejoin:round;" d="M284.502,394.198c0,0-3.297,6.993-5.114,9.037c-4.671,1.227-20.503,0.613-22.579-0.408c-1.037-4.701-3.557-9.65-3.557-9.65s8.229-3.635,9.267-3.431c0,1.227,2.076,4.271,6.747,4.271c4.672,0,5.191-4.271,5.191-4.271L284.502,394.198z"></path><path style="opacity:0.5;fill:#FFFFFF;" d="M257.264,402.407c0,0-2.887-7.032-2.512-7.157s4.625,6.75,5,7.625C258.502,402.75,257.264,402.407,257.264,402.407z"></path><path style="opacity:0.5;fill:#FFFFFF;" d="M283.127,395.25c0,0-3.625,7.125-4.125,7.5c-1.625,0.375-3,0.25-3,0.25L283.127,395.25z"></path><g><path style="fill:#6E6E6E;stroke:#000000;stroke-linecap:round;stroke-linejoin:round;" d="M276.96,392.583c0,0-1.375-0.584-1.75-0.667s-1.125,2.875-0.875,3s1,0.584,1.542,0.5C276.21,395.166,277.127,393.208,276.96,392.583z"></path><path style="fill:#6E6E6E;stroke:#000000;stroke-linecap:round;stroke-linejoin:round;" d="M259.963,392.583c0,0,1.375-0.584,1.75-0.667s1.125,2.875,0.875,3s-1,0.584-1.542,0.5C260.713,395.166,259.797,393.208,259.963,392.583z"></path></g></g></g><g><g><g><g><path style="fill:#6E6E6E;stroke:#000000;stroke-linecap:round;stroke-linejoin:round;" d="M263.225,396.288c0.551-0.312,3.077-0.188,4.998-0.096c1.922,0.014,4.451,0.081,4.982,0.423c0.738,0.474,3.736,9.574,3.201,10.918c-0.518,1.293-2.098,6.952-8.689,7.186c-6.57-0.594-7.84-6.33-8.285-7.649C258.969,405.698,262.463,396.72,263.225,396.288z"></path><path style="fill:#505050;" d="M267.627,407c0,0-0.375,5-0.5,6.875c-1.252,0-2.702-0.462-4-1.468l0.492-6.091C264.6,406.701,265.898,406.969,267.627,407z"></path><path style="fill:#505050;" d="M260.627,402.875c0,0,0.008,1.412,1.479,2.584l-0.533,5.343c-0.736-0.995-1.337-2.25-1.695-3.802C260.002,404.25,260.627,402.875,260.627,402.875z"></path></g><path style="fill:#363030;stroke:#000000;stroke-linecap:round;stroke-linejoin:round;" d="M267.538,400.516l1.132,0.031c0,0,0.188,1.559,0.136,1.766c-0.054,0.208-0.771,0.486-0.771,0.486s-0.697-0.317-0.738-0.527C267.256,402.063,267.538,400.516,267.538,400.516z"></path><path style="fill:#363030;stroke:#000000;stroke-linecap:round;stroke-linejoin:round;" d="M261.346,400.129l1.219-3.518c0,0-0.86,5.893,0.91,6.893c1.771,1.001,7.264,1.151,9.088,0.248c1.822-0.901,1.287-6.833,1.287-6.833l0.987,3.605c0,0,0.688,2.38-0.909,4.198c-1.6,1.817-5.986,1.45-5.986,1.45s-4.401,0.127-5.897-1.776C260.547,402.494,261.346,400.129,261.346,400.129z"></path></g></g><g><g><path style="fill:#505050;stroke:#000000;stroke-linecap:round;stroke-linejoin:round;" d="M264.777,430.343c0.383-0.639,2.199-0.336,2.199-0.336s1.84-0.028,2.122,0.66c0.283,0.689,2.602,10.998,2.028,11.958s-4.688,1.847-4.688,1.847s-3.889-0.687-4.313-1.722S264.396,430.982,264.777,430.343z"></path><path style="fill:#6E6E6E;" d="M269.627,442.75c0,0-0.375-2.875-1.25-3.875c-0.875,0.75-0.875,4.625-0.875,4.625L269.627,442.75z"></path></g><g><g><path style="fill:#6E6E6E;stroke:#000000;stroke-linecap:round;stroke-linejoin:round;" d="M259.002,430.125c0,0,1.859-1.208,1.934-1.875c0.166-1.5,0.291-6.732-0.301-8.5c-1.758-5.25-6.758-4.25-6.758-4.25s3.459-7.709,5.125-9.375c0,2.428,1.654,4.501,2.646,6.166c1.797,3.016,3.705,4.691,5.854,4.709c2.16-0.018,5.354-2.451,7.334-5.316c1.074-1.556,1.791-2.532,1.791-4.934c2.813,3.438,5.063,8.313,5.063,8.313s-6.113,0.982-8.188,4.813c-1.625,3-1.646,6.016-1.375,7.5c0.524,2.875,5.25,4.75,5.25,4.75l-1.125,3.125c0,0-1.75-1.5-3.375-1c-1.336,0.411-1.975,3.875-1.975,3.875s-2.033-8.208-2.866-9.375c-0.329-0.462-0.763-0.763-1.167-0.963c-0.404,0.2-0.838,0.501-1.166,0.963c-0.834,1.167-2.977,9.125-2.977,9.125s-0.35-4.125-3.285-4.406C258.877,432.75,259.002,430.125,259.002,430.125z"></path><path style="fill:#505050;" d="M277.002,408.25l-0.625,2.125l4.5,4.5C280.877,414.875,279.127,410.125,277.002,408.25z"></path><path style="fill:#505050;" d="M258.627,407.375c0,0-3.625,6.375-3.875,7.75c1.5-1.25,4.625-5.375,4.625-5.375L258.627,407.375z"></path></g><path style="opacity:0.5;fill:#FFFFFF;" d="M265.502,427.25c0,0,2.375,0.625,2.375-0.125s-0.25-8.75-0.875-9.125S265.502,427.25,265.502,427.25z"></path></g></g></g></g></g></g></svg>