<svg xmlns="http://www.w3.org/2000/svg" width="500" height="500" version="1.1"><g id="x9057"><g><g><g><path style="fill:#FBFBFB;stroke:#000000;stroke-linecap:round;stroke-linejoin:round;" d="M239.649,440.667c0,0,1.248,4.949,0.291,6.892c-1.124,1.608-11.791,1.441-13.124,0.108s-1.833-7.166-1.833-7.166S231.982,439.333,239.649,440.667z"></path><path style="fill:#505050;stroke:#000000;stroke-linecap:round;stroke-linejoin:round;" d="M239.816,441.001c0,0,0.667,3.334,0.667,4c-1.334-0.834-10.334-1.834-14.5,0.666c-1-1.5-1-5.166-1-5.166S234.649,439.001,239.816,441.001z"></path></g><g><path style="fill:#FBFBFB;stroke:#000000;stroke-linecap:round;stroke-linejoin:round;" d="M233.109,441.514l6.083,2.65c0,0,0.424-2.514-0.419-2.821S233.109,441.514,233.109,441.514z"></path><path style="fill:#FBFBFB;stroke:#000000;stroke-linecap:round;stroke-linejoin:round;" d="M233.923,441.489l-5.911,3.014c0,0-0.575-2.484,0.247-2.842C229.082,441.303,233.923,441.489,233.923,441.489z"></path></g></g><g><g><path style="fill:#FBFBFB;stroke:#000000;stroke-linecap:round;stroke-linejoin:round;" d="M260.351,440.667c0,0-1.248,4.949-0.291,6.892c1.124,1.608,11.791,1.441,13.124,0.108s1.833-7.166,1.833-7.166S268.018,439.333,260.351,440.667z"></path><path style="fill:#505050;stroke:#000000;stroke-linecap:round;stroke-linejoin:round;" d="M260.184,441.001c0,0-0.667,3.334-0.667,4c1.334-0.834,10.334-1.834,14.5,0.666c1-1.5,1-5.166,1-5.166S265.351,439.001,260.184,441.001z"></path></g><g><path style="fill:#FBFBFB;stroke:#000000;stroke-linecap:round;stroke-linejoin:round;" d="M266.891,441.514l-6.083,2.65c0,0-0.424-2.514,0.419-2.821S266.891,441.514,266.891,441.514z"></path><path style="fill:#FBFBFB;stroke:#000000;stroke-linecap:round;stroke-linejoin:round;" d="M266.076,441.489l5.911,3.014c0,0,0.575-2.484-0.247-2.842C270.918,441.303,266.076,441.489,266.076,441.489z"></path></g></g></g></g></svg>