<svg xmlns="http://www.w3.org/2000/svg" width="500" height="500" version="1.1"><g id="x9058"><g><g><g><path style="fill:#EAE6E7;stroke:#000000;stroke-linecap:round;stroke-linejoin:round;" d="M223.626,432.375c0,0-3-11.75-4.625-13.375c3.25-0.875,6.125,1.25,6.5,1.5s2.125,6.625,2.125,6.625L223.626,432.375z"></path><path style="fill:#EAE6E7;stroke:#000000;stroke-linecap:round;stroke-linejoin:round;" d="M242.626,417.25c0,0,3-3,3.625-5.125c-0.875-2.5-3.375-4.5-3.375-4.5l-0.25-2.625c0,0,4.625,4,5.125,6.875c-1.5,3.5-4.75,8.625-4.75,8.625s0,5.375-2.25,10.375c-1.875-2.25-2.875-6.125-2.875-6.125l1.125-6L242.626,417.25z"></path><path style="fill:#53585A;stroke:#000000;stroke-linecap:round;stroke-linejoin:round;" d="M223.201,418.75c0,0,2.5,9,2.5,9.5s3.25-0.5,3.25-0.5l-2.125-8.375L223.201,418.75z"></path><path style="fill:#53585A;stroke:#000000;stroke-linecap:round;stroke-linejoin:round;" d="M240.8,418.75c0,0-2.5,9-2.5,9.5s-3.25-0.5-3.25-0.5l2.125-8.375L240.8,418.75z"></path><path style="fill:#EAE6E7;stroke:#000000;stroke-linecap:round;stroke-linejoin:round;" d="M224.701,413.375c0,0-3.125,2.75-3.125,3.375s2.875,2.625,3.5,4.25s1.25,5.375,1.25,5.375l11.875-0.5c0,0,0.25-4.875,0.75-5.5s2.875-3.375,3-4s-3.5-3.125-3.5-3.125s-2.125,2.25-7.25,2.25S224.701,413.375,224.701,413.375z"></path><polygon style="fill:#C1B6B3;" points="239.1,414.75 237.1,415.375 231.787,420.21 226.475,415.375 224.475,414.75 230.746,421.158 225.975,425.5 227.6,426.5 231.787,422.222 235.975,426.5 237.6,425.5 232.829,421.158 "></polygon><path style="fill:#A8A3B7;" d="M222.376,416.875c0,0,2.75,1.25,4,1.5c-0.125,1.75-0.375,2.75-0.375,2.75L222.376,416.875z"></path><path style="fill:#A8A3B7;" d="M241.227,416.875c0,0-2.75,1.25-4,1.5c0.125,1.75,0.375,2.75,0.375,2.75L241.227,416.875z"></path></g><g><path style="fill:#EAE6E7;stroke:#000000;stroke-linecap:round;stroke-linejoin:round;" d="M224.826,430l1,7.875l-1.875-1.375c0,0-0.75-5-0.625-5.375S224.826,430,224.826,430z"></path><path style="fill:#EAE6E7;stroke:#000000;stroke-linecap:round;stroke-linejoin:round;" d="M223.826,433.625l1.875,1.625l0.5,3c0,0-3.125-1.625-3.125-2.25S223.826,433.625,223.826,433.625z"></path><path style="fill:#EAE6E7;stroke:#000000;stroke-linecap:round;stroke-linejoin:round;" d="M240.326,430l-1,7.875l1.875-1.375c0,0,0.75-5,0.625-5.375S240.326,430,240.326,430z"></path><path style="fill:#EAE6E7;stroke:#000000;stroke-linecap:round;stroke-linejoin:round;" d="M241.326,433.625l-1.875,1.625l-0.5,3c0,0,3.125-1.625,3.125-2.25S241.326,433.625,241.326,433.625z"></path></g><path style="fill:#53585A;stroke:#000000;stroke-linecap:round;stroke-linejoin:round;" d="M224.876,440.75c0,0,0.125,4.75,0.5,5.75s2.625,2,2.625,2s10.625,0.375,12.125-0.625c0.625-1.75,0.125-4.75,0.125-4.75L224.876,440.75z"></path><path style="fill:#53585A;stroke:#000000;stroke-linecap:round;stroke-linejoin:round;" d="M239.826,435.875c0-0.5,0.75-5.875,0.75-5.875c-1.375-2.75-7.875-4.875-7.875-4.875s-6.5,2.125-7.875,4.875c0,0,0.75,5.375,0.75,5.875s-2,2.75-2,3.125s1.625,2.25,1.625,2.25s0.625-1.125,7.5-1.125s7.5,1.125,7.5,1.125s1.625-1.875,1.625-2.25S239.826,436.375,239.826,435.875z"></path><path style="fill:#2C2930;" d="M225.501,440.625l-1-1.75c0,0,2.625-2.25,7.75-2.5s8.875,3,8.875,3l-0.875,1.125l-7.875-1.125C230.126,440,225.501,440.625,225.501,440.625z"></path><path style="fill:#EAE6E7;stroke:#000000;stroke-linecap:round;stroke-linejoin:round;" d="M228.001,429.25c0,0,0.375,2.125,0.875,2.75s7,0.25,7.625,0.125s0.875-3,0.875-3l-1.375-0.625l-0.875,2.125l-4.75,0.125l-0.625-3L228.001,429.25z"></path><g><path style="fill:#6E6E6E;stroke:#000000;stroke-linecap:round;stroke-linejoin:round;" d="M226.501,444.625c0,0,0.847,4.5,1.889,5.125c2.083,0.625,9.259,0.125,10.301-0.125c0.579-1.625,1.31-5.625,1.31-5.625s-2.25-2.625-6.875-1.875S226.501,444.625,226.501,444.625z"></path><path style="fill:#505050;" d="M227.001,444.875l0.5,2c0,0,0.125-1.125,5.875-1.125s5.375,1,5.375,1l0.5-1.875c0,0-1.25-1.125-6.25-1.125S227.001,444.875,227.001,444.875z"></path></g><g><path style="fill:#EAE6E7;stroke:#000000;stroke-linecap:round;stroke-linejoin:round;" d="M240.874,441.375c-1.786-1.531-7.907-1.75-7.907-1.75s-6.121,0.219-7.906,1.75c0,0,0.127,1.859-0.127,2.625c0.638,0.766,1.147,0.875,1.147,0.875s1.275-1.531,6.886-1.531c5.611,0,6.887,1.531,6.887,1.531s0.51-0.109,1.147-0.875C240.746,443.234,240.874,441.375,240.874,441.375z"></path><path style="fill:#A8A3B7;" d="M232.751,440.625c0,0,0.875,1.375-0.375,2.125c1.875-0.125,6.5,0.375,7.75,1.625c0.25-0.125,0.25-0.125,0.25-0.125l-0.125-2.625C240.251,441.625,236.251,440.5,232.751,440.625z"></path></g><g><path style="fill:#EAE6E7;stroke:#000000;stroke-linecap:round;stroke-linejoin:round;" d="M239.052,424.259c0,0-1.805,1.563-2.579,2.084c-1.418-2.476-3.998-3.778-3.998-3.778s-2.579,1.303-3.998,3.778c-0.774-0.521-2.579-2.084-2.579-2.084s-1.805,2.476-2.321,4.43c1.161,1.563,2.192,2.997,2.192,2.997c1.548-2.215,6.706-2.186,6.706-2.186s5.158-0.029,6.706,2.186c0,0,1.032-1.434,2.192-2.997C240.857,426.734,239.052,424.259,239.052,424.259z"></path><path style="fill:#A8A3B7;" d="M232.501,426.75c-6.25,0-7.75,2.375-7.75,2.375l0.75,1.5c3.125-1.625,7-1.627,7-1.627s3.875,0.002,7,1.627l0.75-1.5C240.251,429.125,238.751,426.75,232.501,426.75z"></path></g><g><path style="fill:#B9919C;stroke:#000000;stroke-linecap:round;stroke-linejoin:round;" d="M223.376,419.375c0,0-3.125-1.375-4.375-0.375s-2.5,4.125-2.375,5.375c-1-3-6-8.5-5.75-17c3.625,2.5,5.875,2.125,6.625,1.5s2.5-1.625,2.5-1.625s0.625,8.125,1,8.75S223.376,419.375,223.376,419.375z"></path><path style="fill:#9F7689;" d="M216.376,410l1.75,9.375c0,0-0.5-1.375,1.25-1.25s2.625,0.25,2.625,0.25l-1.625-2.75l-0.75-7.25C219.626,408.375,217.376,409.125,216.376,410z"></path><path style="fill:none;stroke:#000000;stroke-linecap:round;stroke-linejoin:round;" d="M212.626,415.25c0-0.375,2.638,0,3.875,0c1.125,0,3.875-2.25,3.875-2.25"></path></g><path style="fill:#EAE6E7;stroke:#000000;stroke-linecap:round;stroke-linejoin:round;" d="M210.626,405.375c0,0-0.625,2.125,0,2.375s4,2.125,6,1.5s3.375-2,3.375-2l0.25-2.5c0,0-2.5,2.75-4.5,2.5S210.626,405.375,210.626,405.375z"></path><g><path style="fill:#B9919C;stroke:#000000;stroke-linecap:round;stroke-linejoin:round;" d="M242.826,407.25c0,0,2.925,3.125,3.425,4.5s-3.625,5-3.625,5L242.826,407.25z"></path><path style="fill:none;stroke:#000000;stroke-linecap:round;stroke-linejoin:round;" d="M243.151,412.375c0,0,1.225,1,1.725,1.5"></path></g><g><g><path style="fill:#6E6E6E;" d="M228.226,438.801c0,0,1-0.375,1.75-0.375c-0.625-0.75-1.5-1.875-1.5-1.875S227.851,437.926,228.226,438.801z"></path><path style="fill:#6E6E6E;" d="M228.476,436.551c0,0-1.25-1.125-1-2.25s1.5-1,1.875-0.5S228.226,436.551,228.476,436.551z"></path></g><g><path style="fill:#6E6E6E;" d="M237.317,438.801c0,0-1-0.375-1.75-0.375c0.625-0.75,1.5-1.875,1.5-1.875S237.692,437.926,237.317,438.801z"></path><path style="fill:#6E6E6E;" d="M237.067,436.551c0,0,1.25-1.125,1-2.25s-1.5-1-1.875-0.5S237.317,436.551,237.067,436.551z"></path></g></g></g><g><g><path style="fill:#EAE6E7;stroke:#000000;stroke-linecap:round;stroke-linejoin:round;" d="M276.376,432.375c0,0,3-11.75,4.625-13.375c-3.25-0.875-6.125,1.25-6.5,1.5s-2.125,6.625-2.125,6.625L276.376,432.375z"></path><path style="fill:#EAE6E7;stroke:#000000;stroke-linecap:round;stroke-linejoin:round;" d="M257.376,417.25c0,0-3-3-3.625-5.125c0.875-2.5,3.375-4.5,3.375-4.5l0.25-2.625c0,0-4.625,4-5.125,6.875c1.5,3.5,4.75,8.625,4.75,8.625s0,5.375,2.25,10.375c1.875-2.25,2.875-6.125,2.875-6.125l-1.125-6L257.376,417.25z"></path><path style="fill:#53585A;stroke:#000000;stroke-linecap:round;stroke-linejoin:round;" d="M276.801,418.75c0,0-2.5,9-2.5,9.5s-3.25-0.5-3.25-0.5l2.125-8.375L276.801,418.75z"></path><path style="fill:#53585A;stroke:#000000;stroke-linecap:round;stroke-linejoin:round;" d="M259.201,418.75c0,0,2.5,9,2.5,9.5s3.25-0.5,3.25-0.5l-2.125-8.375L259.201,418.75z"></path><path style="fill:#EAE6E7;stroke:#000000;stroke-linecap:round;stroke-linejoin:round;" d="M275.301,413.375c0,0,3.125,2.75,3.125,3.375s-2.875,2.625-3.5,4.25s-1.25,5.375-1.25,5.375l-11.875-0.5c0,0-0.25-4.875-0.75-5.5s-2.875-3.375-3-4s3.5-3.125,3.5-3.125s2.125,2.25,7.25,2.25S275.301,413.375,275.301,413.375z"></path><polygon style="fill:#C1B6B3;" points="260.902,414.75 262.902,415.375 268.215,420.21 273.527,415.375 275.527,414.75 269.256,421.158 274.027,425.5 272.402,426.5 268.215,422.222 264.027,426.5 262.402,425.5 267.174,421.158 "></polygon><path style="fill:#A8A3B7;" d="M277.626,416.875c0,0-2.75,1.25-4,1.5c0.125,1.75,0.375,2.75,0.375,2.75L277.626,416.875z"></path><path style="fill:#A8A3B7;" d="M258.775,416.875c0,0,2.75,1.25,4,1.5c-0.125,1.75-0.375,2.75-0.375,2.75L258.775,416.875z"></path></g><g><path style="fill:#EAE6E7;stroke:#000000;stroke-linecap:round;stroke-linejoin:round;" d="M275.176,430l-1,7.875l1.875-1.375c0,0,0.75-5,0.625-5.375S275.176,430,275.176,430z"></path><path style="fill:#EAE6E7;stroke:#000000;stroke-linecap:round;stroke-linejoin:round;" d="M276.176,433.625l-1.875,1.625l-0.5,3c0,0,3.125-1.625,3.125-2.25S276.176,433.625,276.176,433.625z"></path><path style="fill:#EAE6E7;stroke:#000000;stroke-linecap:round;stroke-linejoin:round;" d="M259.676,430l1,7.875l-1.875-1.375c0,0-0.75-5-0.625-5.375S259.676,430,259.676,430z"></path><path style="fill:#EAE6E7;stroke:#000000;stroke-linecap:round;stroke-linejoin:round;" d="M258.676,433.625l1.875,1.625l0.5,3c0,0-3.125-1.625-3.125-2.25S258.676,433.625,258.676,433.625z"></path></g><path style="fill:#53585A;stroke:#000000;stroke-linecap:round;stroke-linejoin:round;" d="M275.126,440.75c0,0-0.125,4.75-0.5,5.75s-2.625,2-2.625,2s-10.625,0.375-12.125-0.625c-0.625-1.75-0.125-4.75-0.125-4.75L275.126,440.75z"></path><path style="fill:#53585A;stroke:#000000;stroke-linecap:round;stroke-linejoin:round;" d="M260.176,435.875c0-0.5-0.75-5.875-0.75-5.875c1.375-2.75,7.875-4.875,7.875-4.875s6.5,2.125,7.875,4.875c0,0-0.75,5.375-0.75,5.875s2,2.75,2,3.125s-1.625,2.25-1.625,2.25s-0.625-1.125-7.5-1.125s-7.5,1.125-7.5,1.125s-1.625-1.875-1.625-2.25S260.176,436.375,260.176,435.875z"></path><path style="fill:#2C2930;" d="M274.501,440.625l1-1.75c0,0-2.625-2.25-7.75-2.5s-8.875,3-8.875,3l0.875,1.125l7.875-1.125C269.876,440,274.501,440.625,274.501,440.625z"></path><path style="fill:#EAE6E7;stroke:#000000;stroke-linecap:round;stroke-linejoin:round;" d="M272.001,429.25c0,0-0.375,2.125-0.875,2.75s-7,0.25-7.625,0.125s-0.875-3-0.875-3l1.375-0.625l0.875,2.125l4.75,0.125l0.625-3L272.001,429.25z"></path><g><path style="fill:#6E6E6E;stroke:#000000;stroke-linecap:round;stroke-linejoin:round;" d="M273.501,444.625c0,0-0.847,4.5-1.889,5.125c-2.083,0.625-9.259,0.125-10.302-0.125c-0.578-1.625-1.31-5.625-1.31-5.625s2.25-2.625,6.875-1.875S273.501,444.625,273.501,444.625z"></path><path style="fill:#505050;" d="M273.001,444.875l-0.5,2c0,0-0.125-1.125-5.875-1.125s-5.375,1-5.375,1l-0.5-1.875c0,0,1.25-1.125,6.25-1.125S273.001,444.875,273.001,444.875z"></path></g><g><path style="fill:#EAE6E7;stroke:#000000;stroke-linecap:round;stroke-linejoin:round;" d="M259.129,441.375c1.785-1.531,7.906-1.75,7.906-1.75s6.121,0.219,7.906,1.75c0,0-0.127,1.859,0.127,2.625c-0.637,0.766-1.146,0.875-1.146,0.875s-1.275-1.531-6.887-1.531s-6.887,1.531-6.887,1.531s-0.51-0.109-1.147-0.875C259.256,443.234,259.129,441.375,259.129,441.375z"></path><path style="fill:#A8A3B7;" d="M267.251,440.625c0,0-0.875,1.375,0.375,2.125c-1.875-0.125-6.5,0.375-7.75,1.625c-0.25-0.125-0.25-0.125-0.25-0.125l0.125-2.625C259.751,441.625,263.751,440.5,267.251,440.625z"></path></g><g><path style="fill:#EAE6E7;stroke:#000000;stroke-linecap:round;stroke-linejoin:round;" d="M260.95,424.259c0,0,1.806,1.563,2.579,2.084c1.418-2.476,3.998-3.778,3.998-3.778s2.578,1.303,3.997,3.778c0.774-0.521,2.579-2.084,2.579-2.084s1.805,2.476,2.321,4.43c-1.161,1.563-2.192,2.997-2.192,2.997c-1.548-2.215-6.705-2.186-6.705-2.186s-5.158-0.029-6.706,2.186c0,0-1.032-1.434-2.192-2.997C259.145,426.734,260.95,424.259,260.95,424.259z"></path><path style="fill:#A8A3B7;" d="M267.501,426.75c6.25,0,7.75,2.375,7.75,2.375l-0.75,1.5c-3.125-1.625-7-1.627-7-1.627s-3.875,0.002-7,1.627l-0.75-1.5C259.751,429.125,261.251,426.75,267.501,426.75z"></path></g><g><path style="fill:#B9919C;stroke:#000000;stroke-linecap:round;stroke-linejoin:round;" d="M276.626,419.375c0,0,3.125-1.375,4.375-0.375s2.5,4.125,2.375,5.375c1-3,6-8.5,5.75-17c-3.625,2.5-5.875,2.125-6.625,1.5s-2.5-1.625-2.5-1.625s-0.625,8.125-1,8.75S276.626,419.375,276.626,419.375z"></path><path style="fill:#9F7689;" d="M283.626,410l-1.75,9.375c0,0,0.5-1.375-1.25-1.25s-2.625,0.25-2.625,0.25l1.625-2.75l0.75-7.25C280.376,408.375,282.626,409.125,283.626,410z"></path><path style="fill:none;stroke:#000000;stroke-linecap:round;stroke-linejoin:round;" d="M287.376,415.25c0-0.375-2.638,0-3.875,0c-1.125,0-3.875-2.25-3.875-2.25"></path></g><path style="fill:#EAE6E7;stroke:#000000;stroke-linecap:round;stroke-linejoin:round;" d="M289.376,405.375c0,0,0.625,2.125,0,2.375s-4,2.125-6,1.5s-3.375-2-3.375-2l-0.25-2.5c0,0,2.5,2.75,4.5,2.5S289.376,405.375,289.376,405.375z"></path><g><path style="fill:#B9919C;stroke:#000000;stroke-linecap:round;stroke-linejoin:round;" d="M257.176,407.25c0,0-2.925,3.125-3.425,4.5s3.625,5,3.625,5L257.176,407.25z"></path><path style="fill:none;stroke:#000000;stroke-linecap:round;stroke-linejoin:round;" d="M256.852,412.375c0,0-1.226,1-1.726,1.5"></path></g><g><g><path style="fill:#6E6E6E;" d="M271.776,438.801c0,0-1-0.375-1.75-0.375c0.625-0.75,1.5-1.875,1.5-1.875S272.151,437.926,271.776,438.801z"></path><path style="fill:#6E6E6E;" d="M271.526,436.551c0,0,1.25-1.125,1-2.25s-1.5-1-1.875-0.5S271.776,436.551,271.526,436.551z"></path></g><g><path style="fill:#6E6E6E;" d="M262.685,438.801c0,0,1-0.375,1.75-0.375c-0.625-0.75-1.5-1.875-1.5-1.875S262.31,437.926,262.685,438.801z"></path><path style="fill:#6E6E6E;" d="M262.935,436.551c0,0-1.25-1.125-1-2.25s1.5-1,1.875-0.5S262.685,436.551,262.935,436.551z"></path></g></g></g></g></g></svg>