<svg xmlns="http://www.w3.org/2000/svg" width="500" height="500" version="1.1"><g id="x9059"><g><g><path style="fill:#473737;stroke:#000000;stroke-linecap:round;stroke-linejoin:round;" d="M257.95,420.25c0,0,0.75,15.373,2.5,18.812c-0.5,2.938-1.5,6.938-0.75,8.438s11.75,1,13.25,0.25c2-3.25,5.5-24,6.25-30.5C272.7,415.25,257.95,420.25,257.95,420.25z"></path><g><path style="fill:#6E6E6E;stroke:#000000;stroke-linecap:round;stroke-linejoin:round;" d="M256.7,413.517c0,0,0.5,4.48-1.875,7.438c2.125,2.32,5.75,2.706,6.75,5.027s0.875,8.251,0.375,9.411s-2.375,2.449-2.375,2.836s0.875,1.547,0.875,1.547l-0.375,2.063c0,0,3-0.903,7-0.646s5.875,5.028,6,5.931c0.875,0.258,2-6.446,2.25-8.251c0.459-0.065,1.042-0.521,1.625-1.585c-0.125-0.902-0.75-1.896-0.75-1.896s-0.875,0.516-1.375,0.129s-3.375-1.271-2.125-8.896c0.732-4.464,7.042-5.228,8.167-5.743c-1.5-2.507-1.917-8.051-1.917-8.051s-10.5,5.157-12.625,5.157C262.825,416.442,256.7,413.517,256.7,413.517z"></path><path style="fill:#505050;" d="M272.463,439.416c0,0-4.5-2.278-5.5-2.278s-6,2.278-6,2.278v1.367c0,0,2.166-0.304,4.666-0.304s6.334,2.278,6.334,2.278S273.297,440.783,272.463,439.416z"></path><path style="fill:none;stroke:#000000;stroke-linecap:round;stroke-linejoin:round;" d="M266.325,417.99c0,0-0.375,16.717-0.125,19.224c-1,1.14-1,3.873-1,3.873"></path></g></g><g><path style="fill:#473737;stroke:#000000;stroke-linecap:round;stroke-linejoin:round;" d="M242.05,420.25c0,0-0.75,15.373-2.5,18.812c0.5,2.938,1.5,6.938,0.75,8.438s-11.75,1-13.25,0.25c-2-3.25-5.5-24-6.25-30.5C227.3,415.25,242.05,420.25,242.05,420.25z"></path><g><path style="fill:#6E6E6E;stroke:#000000;stroke-linecap:round;stroke-linejoin:round;" d="M243.3,413.517c0,0-0.5,4.48,1.875,7.438c-2.125,2.32-5.75,2.706-6.75,5.027s-0.875,8.251-0.375,9.411s2.375,2.449,2.375,2.836s-0.875,1.547-0.875,1.547l0.375,2.063c0,0-3-0.903-7-0.646s-5.875,5.028-6,5.931c-0.875,0.258-2-6.446-2.25-8.251c-0.459-0.065-1.042-0.521-1.625-1.585c0.125-0.902,0.75-1.896,0.75-1.896s0.875,0.516,1.375,0.129s3.375-1.271,2.125-8.896c-0.732-4.464-7.042-5.228-8.167-5.743c1.5-2.507,1.917-8.051,1.917-8.051s10.5,5.157,12.625,5.157C237.175,416.442,243.3,413.517,243.3,413.517z"></path><path style="fill:#505050;" d="M234.333,418.302c0.333,3.95,0.333,18.836,0.333,18.836l3.167-0.76c0,0-2-6.836,0.333-11.089c1.833-2.279,6.167-4.405,6.167-4.405s-0.833-0.912-1.5-2.887c-0.667-1.974-0.167-3.341-0.167-3.341S238,416.479,234.333,418.302z"></path><path style="fill:#505050;" d="M265.635,418.302c-0.333,3.95-0.333,18.836-0.333,18.836l-3.167-0.76c0,0,2-6.836-0.333-11.089c-1.833-2.279-6.167-4.405-6.167-4.405s0.834-0.912,1.5-2.887c0.667-1.974,0.167-3.341,0.167-3.341S261.969,416.479,265.635,418.302z"></path><path style="fill:#505050;" d="M227.833,439.416c0,0,4.5-2.278,5.5-2.278s6,2.278,6,2.278v1.367c0,0-2.167-0.304-4.667-0.304s-6.333,2.278-6.333,2.278S227,440.783,227.833,439.416z"></path><path style="fill:none;stroke:#000000;stroke-linecap:round;stroke-linejoin:round;" d="M233.675,417.99c0,0,0.375,16.717,0.125,19.224c1,1.14,1,3.873,1,3.873"></path></g></g></g></g></svg>