<svg xmlns="http://www.w3.org/2000/svg" width="500" height="500" version="1.1"><g id="x006"><g><g><path style="fill:#FFFFFF;stroke:#000000;stroke-linecap:round;stroke-linejoin:round;" d="M240.695,445.917c0,0,0.251,2.583-0.833,3.583s-11.501,1.167-12.834,0.25s-1.166-4.917-1.166-4.917L240.695,445.917z"></path><g><path style="fill:#6E6E6E;stroke:#000000;stroke-linecap:round;stroke-linejoin:round;" d="M225.044,439.75c-0.167,2.417,1.083,7.333,1.833,8.167s11.267,1.166,13.433-0.084c1.167-2.25-1.25-8.166-1.25-8.166l-1.266,1.25c0,0-0.352-0.968-0.664-1.218s-1.539-0.589-3.648-0.637c-2.75-0.063-4,0.813-4,0.813l-0.688,1.625C228.794,441.5,226.06,441,225.044,439.75z"></path><path style="fill:none;stroke:#000000;stroke-linecap:round;stroke-linejoin:round;" d="M237.794,440.917c0,0,1.167,3.333,1.167,4.583s-0.417,2.417-0.417,2.417"></path><path style="fill:none;stroke:#000000;stroke-linecap:round;stroke-linejoin:round;" d="M228.794,441.5c0,0-0.266,3.634-0.183,4.551s0.35,2.116,0.35,2.116"></path></g><path style="fill:#FFFFFF;stroke:#000000;stroke-linecap:round;stroke-linejoin:round;" d="M240.127,447.833c0,0-0.5-0.75-1.5-1.25s-9.583-0.166-10.083,0.167s-1.333,1.5-1.333,1.5s3.041,0.458,6.958,0.375S240.127,447.833,240.127,447.833z"></path><g><path style="fill:#FFFFFF;stroke:#000000;stroke-linecap:round;stroke-linejoin:round;" d="M238.544,446.083c0,0-5.489-1.208-9.906-1.708c-0.25-0.417-0.094-0.958-0.094-0.958s5.583-0.334,10.167,2C239.377,446.333,238.544,446.083,238.544,446.083z"></path><path style="fill:#FFFFFF;stroke:#000000;stroke-linecap:round;stroke-linejoin:round;" d="M228.97,446.083c0,0,5.501-1.427,9.918-1.927c0.25-0.417,0.082-0.739,0.082-0.739s-5.583-0.334-10.167,2C228.137,446.333,228.97,446.083,228.97,446.083z"></path></g><g><path style="fill:#FFFFFF;stroke:#000000;stroke-linecap:round;stroke-linejoin:round;" d="M238.345,443.646c0,0-5.489-1.208-9.906-1.708c-0.25-0.417-0.094-0.958-0.094-0.958s5.583-0.334,10.167,2C239.178,443.896,238.345,443.646,238.345,443.646z"></path><path style="fill:#FFFFFF;stroke:#000000;stroke-linecap:round;stroke-linejoin:round;" d="M228.771,443.646c0,0,5.501-1.427,9.918-1.927c0.25-0.417,0.082-0.739,0.082-0.739s-5.583-0.334-10.167,2C227.938,443.896,228.771,443.646,228.771,443.646z"></path></g></g><g><path style="fill:#FFFFFF;stroke:#000000;stroke-linecap:round;stroke-linejoin:round;" d="M259.305,445.917c0,0-0.251,2.583,0.833,3.583s11.501,1.167,12.834,0.25s1.166-4.917,1.166-4.917L259.305,445.917z"></path><g><path style="fill:#6E6E6E;stroke:#000000;stroke-linecap:round;stroke-linejoin:round;" d="M274.955,439.75c0.167,2.417-1.083,7.333-1.833,8.167s-11.267,1.166-13.433-0.084c-1.167-2.25,1.25-8.166,1.25-8.166l1.266,1.25c0,0,0.352-0.968,0.664-1.218s1.539-0.589,3.648-0.637c2.75-0.063,4,0.813,4,0.813l0.688,1.625C271.205,441.5,273.939,441,274.955,439.75z"></path><path style="fill:none;stroke:#000000;stroke-linecap:round;stroke-linejoin:round;" d="M262.205,440.917c0,0-1.167,3.333-1.167,4.583s0.417,2.417,0.417,2.417"></path><path style="fill:none;stroke:#000000;stroke-linecap:round;stroke-linejoin:round;" d="M271.205,441.5c0,0,0.266,3.634,0.183,4.551s-0.35,2.116-0.35,2.116"></path></g><path style="fill:#FFFFFF;stroke:#000000;stroke-linecap:round;stroke-linejoin:round;" d="M259.872,447.833c0,0,0.5-0.75,1.5-1.25s9.583-0.166,10.083,0.167s1.333,1.5,1.333,1.5s-3.041,0.458-6.958,0.375S259.872,447.833,259.872,447.833z"></path><g><path style="fill:#FFFFFF;stroke:#000000;stroke-linecap:round;stroke-linejoin:round;" d="M261.455,446.083c0,0,5.489-1.208,9.906-1.708c0.25-0.417,0.094-0.958,0.094-0.958s-5.583-0.334-10.167,2C260.622,446.333,261.455,446.083,261.455,446.083z"></path><path style="fill:#FFFFFF;stroke:#000000;stroke-linecap:round;stroke-linejoin:round;" d="M271.029,446.083c0,0-5.501-1.427-9.918-1.927c-0.25-0.417-0.082-0.739-0.082-0.739s5.583-0.334,10.167,2C271.862,446.333,271.029,446.083,271.029,446.083z"></path></g><g><path style="fill:#FFFFFF;stroke:#000000;stroke-linecap:round;stroke-linejoin:round;" d="M261.654,443.646c0,0,5.489-1.208,9.906-1.708c0.25-0.417,0.094-0.958,0.094-0.958s-5.583-0.334-10.167,2C260.821,443.896,261.654,443.646,261.654,443.646z"></path><path style="fill:#FFFFFF;stroke:#000000;stroke-linecap:round;stroke-linejoin:round;" d="M271.229,443.646c0,0-5.501-1.427-9.918-1.927c-0.25-0.417-0.082-0.739-0.082-0.739s5.583-0.334,10.167,2C272.062,443.896,271.229,443.646,271.229,443.646z"></path></g></g></g></g></svg>