<svg xmlns="http://www.w3.org/2000/svg" width="500" height="500" version="1.1"><g id="x9060"><g><g><path style="fill:#6E6E6E;stroke:#000000;stroke-linecap:round;stroke-linejoin:round;" d="M220.2,413.75c0,0,2.875,1.5,10.625,1.5s11.75-2.375,11.75-2.375S241.325,428,239.2,438.5c0.75,4,2,8,0.75,9s-11.586,1.145-12.918,0.51c-1.707-3.76-2.207-8.26-2.207-8.26S220.325,424.125,220.2,413.75z"></path><g><path style="fill:#6E6E6E;stroke:#000000;stroke-linecap:round;stroke-linejoin:round;" d="M221.95,427.5c0,0-0.375,1.375-0.375,2s0.75,2.375,1.125,2.625c0.563-0.25,1.438-1.563,9.25-1.563s9,1.188,9,1.188s0.875-1.625,0.375-3.125s-4.625-2.25-9.75-2.375S221.95,427.5,221.95,427.5z"></path><path style="fill:#E3E3AF;stroke:#000000;stroke-linecap:round;stroke-linejoin:round;" d="M241.138,428.375c0.313-0.063,0.063-1.188,0.063-1.188s-1.938-1.063-2.438-0.875s-1.25,5-0.813,5.125s2.563,0.875,2.813,0.75s0.375-1,0.188-1.375s-1.688-0.188-1.688-0.625s0.125-2.125,0.375-2.125S240.825,428.438,241.138,428.375z"></path></g><g><path style="fill:#6E6E6E;stroke:#000000;stroke-linecap:round;stroke-linejoin:round;" d="M223.514,434.5c0,0-0.314,1.375-0.314,2s0.627,2.375,0.941,2.625c0.471-0.25,1.203-1.563,7.74-1.563c6.537,0,7.53,1.188,7.53,1.188s0.732-1.625,0.314-3.125c-0.418-1.5-3.87-2.25-8.158-2.375S223.514,434.5,223.514,434.5z"></path><path style="fill:#E3E3AF;stroke:#000000;stroke-linecap:round;stroke-linejoin:round;" d="M241.138,435.375c0.313-0.063,0.063-1.188,0.063-1.188s-1.938-1.063-2.438-0.875s-1.25,5-0.813,5.125s2.563,0.875,2.813,0.75s0.375-1,0.188-1.375s-1.688-0.188-1.688-0.625s0.125-2.125,0.375-2.125S240.825,435.438,241.138,435.375z"></path></g></g><g><path style="fill:#6E6E6E;stroke:#000000;stroke-linecap:round;stroke-linejoin:round;" d="M279.802,413.75c0,0-2.875,1.5-10.625,1.5s-11.75-2.375-11.75-2.375s1.25,15.125,3.375,25.625c-0.75,4-2,8-0.75,9s11.586,1.145,12.918,0.51c1.707-3.76,2.207-8.26,2.207-8.26S279.677,424.125,279.802,413.75z"></path><g><path style="fill:#6E6E6E;stroke:#000000;stroke-linecap:round;stroke-linejoin:round;" d="M278.052,427.5c0,0,0.375,1.375,0.375,2s-0.75,2.375-1.125,2.625c-0.563-0.25-1.438-1.563-9.25-1.563s-9,1.188-9,1.188s-0.875-1.625-0.375-3.125s4.625-2.25,9.75-2.375S278.052,427.5,278.052,427.5z"></path><path style="fill:#E3E3AF;stroke:#000000;stroke-linecap:round;stroke-linejoin:round;" d="M258.864,428.375c-0.313-0.063-0.063-1.188-0.063-1.188s1.938-1.063,2.438-0.875s1.25,5,0.813,5.125s-2.563,0.875-2.813,0.75s-0.375-1-0.188-1.375s1.688-0.188,1.688-0.625s-0.125-2.125-0.375-2.125S259.177,428.438,258.864,428.375z"></path></g><g><path style="fill:#6E6E6E;stroke:#000000;stroke-linecap:round;stroke-linejoin:round;" d="M276.487,434.5c0,0,0.314,1.375,0.314,2s-0.627,2.375-0.941,2.625c-0.471-0.25-1.203-1.563-7.74-1.563c-6.536,0-7.529,1.188-7.529,1.188s-0.732-1.625-0.314-3.125s3.87-2.25,8.158-2.375S276.487,434.5,276.487,434.5z"></path><path style="fill:#E3E3AF;stroke:#000000;stroke-linecap:round;stroke-linejoin:round;" d="M258.864,435.375c-0.313-0.063-0.063-1.188-0.063-1.188s1.938-1.063,2.438-0.875s1.25,5,0.813,5.125s-2.563,0.875-2.813,0.75s-0.375-1-0.188-1.375s1.688-0.188,1.688-0.625s-0.125-2.125-0.375-2.125S259.177,435.438,258.864,435.375z"></path></g></g></g></g></svg>