<svg xmlns="http://www.w3.org/2000/svg" width="500" height="500" version="1.1"><g id="x9061"><g><g><g><path style="fill:#6E6E6E;stroke:#000000;stroke-linecap:round;stroke-linejoin:round;" d="M233.314,445.086c-6.702,0-7.611-2.336-7.611-2.336c0.146,0.938,0.818,4.994,1.615,5.26c0.902,0.3,12.326,0.685,12.625-0.451c0.359-1.365,0.186-3.23-0.093-4.809C239.851,442.75,240.017,445.086,233.314,445.086z"></path></g><ellipse style="opacity:0.5;fill:#FFFFFF;" cx="237.612" cy="446.156" rx="1.438" ry="0.844"></ellipse></g><g><g><path style="fill:#6E6E6E;stroke:#000000;stroke-linecap:round;stroke-linejoin:round;" d="M266.684,445.086c6.702,0,7.611-2.336,7.611-2.336c-0.146,0.938-0.818,4.994-1.615,5.26c-0.902,0.3-12.326,0.685-12.625-0.451c-0.359-1.365-0.186-3.23,0.093-4.809C260.147,442.75,259.981,445.086,266.684,445.086z"></path></g><ellipse style="opacity:0.5;fill:#FFFFFF;" cx="262.386" cy="446.156" rx="1.438" ry="0.844"></ellipse></g></g></g></svg>