<svg xmlns="http://www.w3.org/2000/svg" width="500" height="500" version="1.1"><g id="x9062"><g><g><path style="fill:#6E6E6E;stroke:#000000;stroke-linecap:round;stroke-linejoin:round;" d="M223.85,447.75l0.188,1.313c0,0,2.563,2.125,10.25,1.375c6.959-0.679,6.313-2,6.313-2l0.125-1.063"></path><path style="fill:#6E6E6E;stroke:#000000;stroke-linecap:round;stroke-linejoin:round;" d="M239.787,436.584c0,0,0.16,3.708,0.417,4.208c0.257,0.5,1.601,4.396,0.701,6.375c-1.114,1.416-6.917,2.208-8.288,2.208c-1.371,0-6.381,0.334-8.866-1.5c-0.825-0.608-0.766-1.36-0.904-2.07c-0.277-1.43,0.363-2.691,0.649-3.304c0.428-0.916,0.667-5.334,0.667-5.334s1.333,0.709,4.083,1.125c1.394-0.306,6.559-0.209,7.125-0.125C236.86,437.841,238.138,437.424,239.787,436.584z"></path><ellipse style="fill:#FFFFFF;" cx="227.417" cy="445.834" rx="1.75" ry="1.167"></ellipse><g><path d="M225.124,441.626c-0.031,0-0.062-0.006-0.091-0.018l-1.169-0.458c-0.128-0.05-0.192-0.195-0.142-0.323c0.05-0.129,0.194-0.192,0.324-0.142l1.08,0.423l2.518-0.956l0.23-1.728c0.019-0.137,0.147-0.226,0.281-0.215c0.137,0.019,0.233,0.145,0.215,0.281l-0.25,1.875c-0.012,0.091-0.073,0.168-0.159,0.2l-2.747,1.043C225.184,441.62,225.154,441.626,225.124,441.626z"></path></g><g><path d="M238.037,441.459c-0.043,0-0.086-0.011-0.125-0.033l-1.958-1.126c-0.066-0.038-0.112-0.104-0.123-0.181l-0.208-1.415c-0.02-0.137,0.075-0.264,0.211-0.283s0.263,0.074,0.284,0.211l0.19,1.295l1.732,0.996l1.493-0.809c0.121-0.064,0.272-0.021,0.339,0.101c0.066,0.121,0.021,0.273-0.101,0.339l-1.615,0.875C238.119,441.449,238.078,441.459,238.037,441.459z"></path></g><g><path d="M241.1,446.375c-0.062,0-0.124-0.023-0.173-0.069c-0.025-0.024-2.607-2.411-8.85-2.472c-0.078-0.001-0.156-0.001-0.233-0.001c-6.065,0-8.481,2.321-8.505,2.345c-0.098,0.098-0.256,0.099-0.353-0.001c-0.098-0.098-0.098-0.255,0-0.353c0.103-0.103,2.565-2.491,8.853-2.491c0.081,0,0.162,0,0.244,0.001c6.462,0.063,9.083,2.507,9.191,2.61c0.1,0.096,0.103,0.254,0.008,0.354C241.231,446.349,241.166,446.375,241.1,446.375z"></path></g><g><path d="M238.579,443.584c-0.037,0-0.073-0.008-0.107-0.024l-4.28-2.024c-0.073-0.034-0.125-0.102-0.139-0.182l-0.512-2.852c-0.024-0.136,0.066-0.266,0.202-0.29c0.138-0.027,0.266,0.065,0.291,0.202l0.489,2.725l4.054,1.917l1.808-0.903c0.124-0.06,0.273-0.012,0.335,0.112c0.062,0.123,0.012,0.273-0.112,0.335l-1.917,0.958C238.656,443.575,238.617,443.584,238.579,443.584z"></path></g><g><path d="M224.841,443.626c-0.035,0-0.07-0.007-0.102-0.021l-1.304-0.583c-0.126-0.057-0.183-0.204-0.126-0.33c0.056-0.128,0.205-0.182,0.33-0.127l1.208,0.54l4.578-1.824l0.323-2.809c0.016-0.138,0.148-0.235,0.277-0.22c0.137,0.016,0.236,0.14,0.22,0.276l-0.34,2.957c-0.011,0.092-0.07,0.17-0.156,0.204l-4.814,1.919C224.904,443.62,224.873,443.626,224.841,443.626z"></path></g><circle style="fill:#666666;stroke:#000000;stroke-linecap:round;stroke-linejoin:round;" cx="227.788" cy="441.626" r="0.625"></circle><circle style="fill:#666666;stroke:#000000;stroke-linecap:round;stroke-linejoin:round;" cx="235.704" cy="441.459" r="0.625"></circle><path style="fill:#6E6E6E;stroke:#000000;stroke-linecap:round;stroke-linejoin:round;" d="M228.287,441.001c0,0,2.875-1.326,7.042-0.083l0.208,0.583c0,0-6.583-0.215-7.417,0.042L228.287,441.001z"></path><ellipse style="fill:#666666;stroke:#000000;stroke-linecap:round;stroke-linejoin:round;" cx="234.894" cy="439.55" rx="0.54" ry="0.557"></ellipse><ellipse style="fill:#666666;stroke:#000000;stroke-linecap:round;stroke-linejoin:round;" cx="228.806" cy="439.734" rx="0.54" ry="0.558"></ellipse><path style="fill:#6E6E6E;stroke:#000000;stroke-linecap:round;stroke-linejoin:round;" d="M229.49,439.289c0,0,2.63-0.882,4.936,0.111l0.403,0.351l-5.879-0.017L229.49,439.289z"></path></g><g><path style="fill:#6E6E6E;stroke:#000000;stroke-linecap:round;stroke-linejoin:round;" d="M276.143,447.75l-0.188,1.313c0,0-2.563,2.125-10.25,1.375c-6.96-0.679-6.313-2-6.313-2l-0.125-1.063"></path><path style="fill:#6E6E6E;stroke:#000000;stroke-linecap:round;stroke-linejoin:round;" d="M260.205,436.584c0,0-0.16,3.708-0.417,4.208s-1.601,4.396-0.701,6.375c1.114,1.416,6.917,2.208,8.289,2.208c1.37,0,6.381,0.334,8.865-1.5c0.826-0.608,0.767-1.36,0.905-2.07c0.276-1.43-0.363-2.691-0.649-3.304c-0.429-0.916-0.667-5.334-0.667-5.334s-1.333,0.709-4.083,1.125c-1.395-0.306-6.56-0.209-7.126-0.125C263.132,437.841,261.854,437.424,260.205,436.584z"></path><ellipse style="fill:#FFFFFF;" cx="263.584" cy="445.834" rx="1.75" ry="1.167"></ellipse><g><path d="M274.869,441.626c-0.03,0-0.061-0.006-0.089-0.017l-2.747-1.043c-0.086-0.032-0.146-0.109-0.159-0.2l-0.25-1.875c-0.018-0.137,0.078-0.263,0.215-0.281c0.145-0.016,0.264,0.078,0.281,0.215l0.23,1.728l2.518,0.956l1.079-0.423c0.127-0.051,0.273,0.013,0.323,0.142c0.051,0.128-0.013,0.273-0.142,0.323l-1.169,0.458C274.931,441.62,274.9,441.626,274.869,441.626z"></path></g><g><path d="M261.955,441.459c-0.041,0-0.082-0.01-0.119-0.03l-1.615-0.875c-0.121-0.065-0.166-0.218-0.101-0.339c0.065-0.12,0.216-0.166,0.339-0.101l1.492,0.809l1.732-0.996l0.19-1.295c0.02-0.136,0.148-0.233,0.283-0.211c0.137,0.02,0.231,0.146,0.211,0.283l-0.208,1.415c-0.011,0.076-0.056,0.143-0.122,0.181l-1.958,1.126C262.041,441.448,261.998,441.459,261.955,441.459z"></path></g><g><path d="M258.893,446.375c-0.065,0-0.132-0.026-0.181-0.077c-0.095-0.1-0.092-0.258,0.008-0.354c0.108-0.104,2.729-2.548,9.191-2.61c0.081-0.001,0.163-0.001,0.243-0.001c6.288,0,8.75,2.389,8.853,2.491c0.098,0.098,0.098,0.255,0,0.353c-0.097,0.1-0.255,0.099-0.354,0.001c-0.023-0.023-2.44-2.345-8.505-2.345c-0.077,0-0.154,0-0.233,0.001c-6.243,0.061-8.824,2.447-8.85,2.472C259.017,446.352,258.955,446.375,258.893,446.375z"></path></g><g><path d="M261.413,443.584c-0.038,0-0.076-0.009-0.111-0.026l-1.917-0.958c-0.124-0.062-0.174-0.212-0.112-0.335c0.062-0.125,0.215-0.172,0.335-0.112l1.809,0.903l4.053-1.917l0.49-2.725c0.024-0.137,0.154-0.231,0.29-0.202c0.136,0.024,0.227,0.154,0.202,0.29l-0.513,2.852c-0.015,0.08-0.066,0.147-0.14,0.182l-4.279,2.024C261.486,443.576,261.449,443.584,261.413,443.584z"></path></g><g><path d="M275.151,443.626c-0.031,0-0.063-0.006-0.093-0.018l-4.814-1.919c-0.085-0.034-0.146-0.112-0.155-0.204l-0.34-2.957c-0.016-0.137,0.082-0.261,0.22-0.276c0.146-0.02,0.261,0.083,0.276,0.22l0.323,2.809l4.577,1.824l1.207-0.54c0.126-0.056,0.274,0,0.331,0.126c0.056,0.127,0,0.274-0.126,0.331l-1.304,0.583C275.221,443.619,275.187,443.626,275.151,443.626z"></path></g><circle style="fill:#666666;stroke:#000000;stroke-linecap:round;stroke-linejoin:round;" cx="272.205" cy="441.626" r="0.625"></circle><circle style="fill:#666666;stroke:#000000;stroke-linecap:round;stroke-linejoin:round;" cx="264.288" cy="441.459" r="0.625"></circle><path style="fill:#6E6E6E;stroke:#000000;stroke-linecap:round;stroke-linejoin:round;" d="M271.705,441.001c0,0-2.875-1.326-7.042-0.083l-0.208,0.583c0,0,6.583-0.215,7.417,0.042L271.705,441.001z"></path><ellipse style="fill:#666666;stroke:#000000;stroke-linecap:round;stroke-linejoin:round;" cx="265.098" cy="439.55" rx="0.54" ry="0.557"></ellipse><ellipse style="fill:#666666;stroke:#000000;stroke-linecap:round;stroke-linejoin:round;" cx="271.187" cy="439.734" rx="0.54" ry="0.558"></ellipse><path style="fill:#6E6E6E;stroke:#000000;stroke-linecap:round;stroke-linejoin:round;" d="M270.502,439.289c0,0-2.63-0.882-4.936,0.111l-0.403,0.351l5.88-0.017L270.502,439.289z"></path></g></g></g></svg>