<svg xmlns="http://www.w3.org/2000/svg" width="500" height="500" version="1.1"><g id="x9063"><g><g><path style="fill:#382E2C;stroke:#000000;stroke-linecap:round;stroke-linejoin:round;" d="M239.505,441.166h-14.162c0.197,0.887,0.313,1.386,0.313,1.386s0.387,2.672,0.94,4.281h13.467C240.294,445.019,239.863,442.675,239.505,441.166z"></path><line style="fill:none;stroke:#000000;stroke-linecap:round;stroke-linejoin:round;" x1="232.886" y1="443.833" x2="232.886" y2="446.5"></line><line style="fill:none;stroke:#000000;stroke-linecap:round;stroke-linejoin:round;" x1="235.969" y1="443.833" x2="235.969" y2="446.5"></line><path style="fill:#6E6E6E;stroke:#000000;stroke-linecap:round;stroke-linejoin:round;" d="M226.596,446.833c0.215,0.624,0.453,1.093,0.705,1.177c0.902,0.3,12.326,0.685,12.625-0.451c0.06-0.229,0.104-0.473,0.137-0.726H226.596z"></path><path style="fill:#382E2C;stroke:#000000;stroke-linecap:round;stroke-linejoin:round;" d="M229.553,443.833h10.25l-0.297-2.667c0,0-1.703-1.666-5.87-1.666s-6,2.333-6,2.333"></path><polygon style="fill:#6E6E6E;" points="231.669,442.044 230.577,443.22 229.484,442.044 230.577,440.868 "></polygon><polygon style="fill:#6E6E6E;" points="234.002,442.044 232.91,443.22 231.817,442.044 232.91,440.868 "></polygon><polygon style="fill:#6E6E6E;" points="236.335,442.044 235.243,443.22 234.15,442.044 235.243,440.868 "></polygon><polygon style="fill:#6E6E6E;" points="238.668,442.044 237.576,443.22 236.483,442.044 237.576,440.868 "></polygon></g><g><path style="fill:#382E2C;stroke:#000000;stroke-linecap:round;stroke-linejoin:round;" d="M260.496,441.166h14.162c-0.195,0.887-0.313,1.386-0.313,1.386s-0.387,2.672-0.939,4.281h-13.467C259.707,445.019,260.139,442.675,260.496,441.166z"></path><line style="fill:none;stroke:#000000;stroke-linecap:round;stroke-linejoin:round;" x1="267.117" y1="443.833" x2="267.117" y2="446.5"></line><line style="fill:none;stroke:#000000;stroke-linecap:round;stroke-linejoin:round;" x1="264.033" y1="443.833" x2="264.033" y2="446.5"></line><path style="fill:#6E6E6E;stroke:#000000;stroke-linecap:round;stroke-linejoin:round;" d="M273.406,446.833c-0.215,0.624-0.453,1.093-0.705,1.177c-0.902,0.3-12.326,0.685-12.625-0.451c-0.061-0.229-0.105-0.473-0.137-0.726H273.406z"></path><path style="fill:#382E2C;stroke:#000000;stroke-linecap:round;stroke-linejoin:round;" d="M270.449,443.833h-10.25l0.297-2.667c0,0,1.703-1.666,5.871-1.666c4.166,0,6,2.333,6,2.333"></path><polygon style="fill:#6E6E6E;" points="268.334,442.044 269.426,443.22 270.518,442.044 269.426,440.868 "></polygon><polygon style="fill:#6E6E6E;" points="266,442.044 267.092,443.22 268.186,442.044 267.092,440.868 "></polygon><polygon style="fill:#6E6E6E;" points="263.668,442.044 264.76,443.22 265.852,442.044 264.76,440.868 "></polygon><polygon style="fill:#6E6E6E;" points="261.334,442.044 262.426,443.22 263.52,442.044 262.426,440.868 "></polygon></g></g></g></svg>