<svg xmlns="http://www.w3.org/2000/svg" width="500" height="500" version="1.1"><g id="a9064"><g><g><g><path style="fill:#242733;stroke:#000000;stroke-linecap:round;stroke-linejoin:round;" d="M278.875,401.375L274.25,396l-6.25-2.125L261.75,396l-4.625,5.375c0,0-0.25,13.5,0.125,16.75s2.375,19.75,2.375,19.75L268,439l7.375-1.125c0,0,3-16.5,3.375-19.75S278.875,401.375,278.875,401.375z"></path><g><g><path style="fill:#B4B6C2;stroke:#000000;stroke-linecap:round;stroke-linejoin:round;" d="M259.625,387.875c-0.25-0.75-1.125-3.875-0.875-5.375c-1.875,0-4.375-1.625-4.5-2.125c-0.125,2.5,0.875,5.125,0.75,5.625s-0.875,3.75-0.875,3.75s2.375,3.375,4.5,2.875C259.125,390.125,259.625,387.875,259.625,387.875z"></path><path style="fill:#828087;" d="M258.525,386.938c0,0-1.438,0.125-3.063-0.938c-0.313,0.938-0.875,3.625-0.875,3.625s1.375,1.938,2.875,2.438C258.088,388.938,258.525,386.938,258.525,386.938z"></path><path style="fill:#B4B6C2;stroke:#000000;stroke-linecap:round;stroke-linejoin:round;" d="M276.525,387.875c0.25-0.75,1.125-3.875,0.875-5.375c1.875,0,4.375-1.625,4.5-2.125c0.125,2.5-0.875,5.125-0.75,5.625s0.875,3.75,0.875,3.75s-2.375,3.375-4.5,2.875C277.025,390.125,276.525,387.875,276.525,387.875z"></path><path style="fill:#828087;" d="M277.563,386.938c0,0,1.438,0.125,3.063-0.938c0.313,0.938,0.875,3.625,0.875,3.625s-1.375,1.938-2.875,2.438C278,388.938,277.563,386.938,277.563,386.938z"></path></g><g><g><g><path style="fill:#6E6E6E;stroke:#000000;stroke-linecap:round;stroke-linejoin:round;" d="M261,384.75l2.625-2.125c0,0-1.375,12-1.5,12.875s-4.875,1.25-4.5,0.875S261,384.75,261,384.75z"></path><path style="fill:#B4B6C2;stroke:#000000;stroke-linecap:round;stroke-linejoin:round;" d="M261.625,383.5c0,0-0.25,8.827-2.875,15.193c0.875,4.052,2.875,7.959,2.875,7.959l-0.875,3.473c0,0-4.625-6.367-5.5-10.997c1.375-2.315,3-10.853,3.125-11.865C259.75,386.249,261.625,383.5,261.625,383.5z"></path><path style="fill:#828087;" d="M258.674,398.375c-0.188,0-3.063,0.813-3.063,0.813s1.375,4.313,2.813,6.5c1.375,1.563,3.188,2,3.188,2l-0.438-1.938L258.674,398.375z"></path><path style="fill:#6E6E6E;stroke:#000000;stroke-linecap:round;stroke-linejoin:round;" d="M275.15,384.75l-2.625-2.125c0,0,1.375,12,1.5,12.875s4.875,1.25,4.5,0.875S275.15,384.75,275.15,384.75z"></path><path style="fill:#B4B6C2;stroke:#000000;stroke-linecap:round;stroke-linejoin:round;" d="M274.525,383.5c0,0,0.25,8.827,2.875,15.193c-0.875,4.052-2.875,7.959-2.875,7.959l0.875,3.473c0,0,4.625-6.367,5.5-10.997c-1.375-2.315-3-10.853-3.125-11.865C276.4,386.249,274.525,383.5,274.525,383.5z"></path><path style="fill:#828087;" d="M277.375,398.375c0.188,0,3.063,0.813,3.063,0.813s-1.375,4.313-2.813,6.5c-1.375,1.563-3.188,2-3.188,2l0.438-1.938L277.375,398.375z"></path></g><g><path style="fill:#B4B6C2;stroke:#000000;stroke-linecap:round;stroke-linejoin:round;" d="M273.406,382l-5.381-6.625L262.645,382c0,0,1.305,9.625-2.119,13.875h15C272.102,391.625,273.406,382,273.406,382z"></path><polygon style="fill:#6E6E6E;stroke:#000000;stroke-linecap:round;stroke-linejoin:round;" points="272.025,383.75 271.9,382.25 269.525,382 269.4,379.625 268.025,378.875 266.65,379.625 266.525,382 264.15,382.25 264.025,383.75 266.275,384 266.15,390.125 268.025,391.875 269.9,390.125 269.775,384 "></polygon></g><g><path style="fill:#6E6E6E;stroke:#000000;stroke-linecap:round;stroke-linejoin:round;" d="M268.125,395.5c0,0-8.157-0.363-8,0c2,4.625,8,5.375,8,5.375s6-0.75,8-5.375C276.282,395.137,268.125,395.5,268.125,395.5z"></path><g><g><path style="fill:#B4B6C2;stroke:#000000;stroke-linecap:round;stroke-linejoin:round;" d="M267.752,401.5l-9.75-6.875c0,0,0.147,5.375,1.478,9.625c1.182,1.875,8.272,5,8.272,5s7.091-3.125,8.272-5c1.33-4.25,1.478-9.625,1.478-9.625L267.752,401.5z"></path></g><path style="fill:#FFFFFF;" d="M258.875,397.5c0,0,0.938,6.375,1.188,6.563c1.875,1.688,4.438,3,4.438,3L258.875,397.5z"></path><path style="fill:#828087;" d="M268.002,402.667v5.833c0,0,5.873-2.25,7.5-4.5c1.311-3.625,1.436-7.125,1.436-7.125S272.375,401.438,268.002,402.667z"></path><path style="fill:#B4B6C2;stroke:#000000;stroke-linecap:round;stroke-linejoin:round;" d="M274.252,394.625c0,0-2.807,3.75-6.5,4.375c-3.693-0.625-6.5-4.375-6.5-4.375h-3.25c1.33,4.75,9.75,7.625,9.75,7.625s8.42-2.875,9.75-7.625H274.252z"></path><path style="fill:#FFFFFF;" d="M258.75,395.25h2.313c0,0,2.875,3.938,6.688,4.375c0,1.75,0,1.75,0,1.75S262.125,400.563,258.75,395.25z"></path></g></g></g><g><g><path style="fill:#6E6E6E;stroke:#000000;stroke-linecap:round;stroke-linejoin:round;" d="M257.252,411.084c0,0,4,19,4.5,19.875s2.125-4,2.125-4l-1.625-17.375l-4.25-2L257.252,411.084z"></path><path style="fill:#6E6E6E;stroke:#000000;stroke-linecap:round;stroke-linejoin:round;" d="M278.803,411.084c0,0-4,19-4.5,19.875s-2.125-4-2.125-4l1.625-17.375l4.25-2L278.803,411.084z"></path></g><g><path style="fill:#B4B6C2;stroke:#000000;stroke-linecap:round;stroke-linejoin:round;" d="M260.125,406c0,0-3.375,0.875-4.125,1.625c0.125,2.5,0.875,4.5,0.875,4.5l-1,4.375c0,0,2.625,4.125,3,4.125c0.375-1.125,1-1.75,1-1.75l-2.125-3.125l4.25-7.5L260.125,406z"></path><path style="fill:#828087;" d="M257.348,412.125c0,0,2.688-1.125,2.438-1.625s-3-2.625-3.313-2.563C256.598,409.875,257.16,411.625,257.348,412.125z"></path><path style="fill:#B4B6C2;stroke:#000000;stroke-linecap:round;stroke-linejoin:round;" d="M277.025,406c0,0,3.375,0.875,4.125,1.625c-0.125,2.5-0.875,4.5-0.875,4.5l1,4.375c0,0-2.625,4.125-3,4.125c-0.375-1.125-1-1.75-1-1.75l2.125-3.125l-4.25-7.5L277.025,406z"></path><path style="fill:#828087;" d="M279.813,412.125c0,0-2.688-1.125-2.438-1.625s3-2.625,3.313-2.563C280.563,409.875,280,411.625,279.813,412.125z"></path></g><path style="fill:#B4B6C2;stroke:#000000;stroke-linecap:round;stroke-linejoin:round;" d="M277.125,415.125c0.25-1.25-1-8.5-1-8.5s-5.25,4.875-8.125,4.875s-8.125-4.875-8.125-4.875s-1.25,7.25-1,8.5c1.75,1,2.625,2.25,2.625,2.25s0.373,7.625,0.373,8.25s-0.75,1.625-1,2s1.125,1.25,1.25,2.25s-1.25,2.25-1.25,2.25s1.125,1.25,1.25,1.625s-3.123,3.5-3.123,3.5l1.875,7.25l7.125-2.375l6.125,2.375l2.375-6.333c0,0-3.25-4.042-3.125-4.417s1.25-1.625,1.25-1.625s-1.375-1.25-1.25-2.25s1.5-1.875,1.25-2.25s-1-1.375-1-2s0.875-8.25,0.875-8.25S275.375,416.125,277.125,415.125z"></path><path style="fill:#828087;" d="M267.813,422.469l-0.313,14.698l6.814,5.385l1.686-4.385c0,0-3.25-3.886-3.156-4.323s1.094-1.719,1.094-1.719s-1.688-1.427-1.688-2.594s1.281-2.563,1.281-2.563l-1.719-2.875c0,0,1.854-5.927,2.188-6.927c0.531-0.604,2.834-2.5,2.834-2.5l-0.959-7.167c0,0-2.625,2.292-6.125,4.125c0,4.5,0,9.313,0,9.313S269.469,422.031,267.813,422.469z"></path><path style="fill:#6E6E6E;stroke:#000000;stroke-linecap:round;stroke-linejoin:round;" d="M267.934,412.103l-1.333-0.666c0,0,0,8.167,0,9.167s1.333,1.333,1.333,1.333s1.333-0.333,1.333-1.333s0-9.167,0-9.167L267.934,412.103z"></path><g><ellipse style="fill:#B4B6C2;stroke:#000000;stroke-linecap:round;stroke-linejoin:round;" cx="261.648" cy="411.583" rx="0.917" ry="1.417"></ellipse><ellipse style="fill:#B4B6C2;stroke:#000000;stroke-linecap:round;stroke-linejoin:round;" cx="274.481" cy="411.583" rx="0.917" ry="1.417"></ellipse></g><g><ellipse style="fill:#B4B6C2;stroke:#000000;stroke-linecap:round;stroke-linejoin:round;" cx="261.25" cy="437.916" rx="0.917" ry="1.417"></ellipse><ellipse style="fill:#B4B6C2;stroke:#000000;stroke-linecap:round;stroke-linejoin:round;" cx="274.083" cy="437.916" rx="0.917" ry="1.417"></ellipse></g></g></g></g></g><g><g><path style="fill:#B4B6C2;stroke:#000000;stroke-linecap:round;stroke-linejoin:round;" d="M274.314,442.552c0,0-3.314-3.052-6.814-4.927c-4.25,1.875-7,4.5-7,4.5s-0.728,1.049-0.651,3.875h13.776C274.041,444.441,274.314,442.552,274.314,442.552z"></path><path style="fill:#828087;" d="M267.417,438.75l-0.167,6.5l5.75,0.333l0.667-2.583C273.667,443,269.917,439.917,267.417,438.75z"></path></g><path style="fill:#242833;stroke:#000000;stroke-linecap:round;stroke-linejoin:round;" d="M259.849,446c0.015,0.557,0.071,1.089,0.194,1.559c0.299,1.136,11.724,0.751,12.626,0.451c0.355-0.119,0.686-0.995,0.956-2.01H259.849z"></path></g></g><g><g><path style="fill:#242733;stroke:#000000;stroke-linecap:round;stroke-linejoin:round;" d="M221.176,401.375l4.625-5.375l6.25-2.125l6.25,2.125l4.625,5.375c0,0,0.25,13.5-0.125,16.75s-2.375,19.75-2.375,19.75L232.051,439l-7.375-1.125c0,0-3-16.5-3.375-19.75S221.176,401.375,221.176,401.375z"></path><g><g><path style="fill:#B4B6C2;stroke:#000000;stroke-linecap:round;stroke-linejoin:round;" d="M240.426,387.875c0.25-0.75,1.125-3.875,0.875-5.375c1.875,0,4.375-1.625,4.5-2.125c0.125,2.5-0.875,5.125-0.75,5.625s0.875,3.75,0.875,3.75s-2.375,3.375-4.5,2.875C240.926,390.125,240.426,387.875,240.426,387.875z"></path><path style="fill:#828087;" d="M241.525,386.938c0,0,1.438,0.125,3.063-0.938c0.313,0.938,0.875,3.625,0.875,3.625s-1.375,1.938-2.875,2.438C241.963,388.938,241.525,386.938,241.525,386.938z"></path><path style="fill:#B4B6C2;stroke:#000000;stroke-linecap:round;stroke-linejoin:round;" d="M223.525,387.875c-0.25-0.75-1.125-3.875-0.875-5.375c-1.875,0-4.375-1.625-4.5-2.125c-0.125,2.5,0.875,5.125,0.75,5.625s-0.875,3.75-0.875,3.75s2.375,3.375,4.5,2.875C223.025,390.125,223.525,387.875,223.525,387.875z"></path><path style="fill:#828087;" d="M222.488,386.938c0,0-1.438,0.125-3.063-0.938c-0.313,0.938-0.875,3.625-0.875,3.625s1.375,1.938,2.875,2.438C222.051,388.938,222.488,386.938,222.488,386.938z"></path></g><g><g><g><path style="fill:#6E6E6E;stroke:#000000;stroke-linecap:round;stroke-linejoin:round;" d="M239.051,384.75l-2.625-2.125c0,0,1.375,12,1.5,12.875s4.875,1.25,4.5,0.875S239.051,384.75,239.051,384.75z"></path><path style="fill:#B4B6C2;stroke:#000000;stroke-linecap:round;stroke-linejoin:round;" d="M238.426,383.5c0,0,0.25,8.827,2.875,15.193c-0.875,4.052-2.875,7.959-2.875,7.959l0.875,3.473c0,0,4.625-6.367,5.5-10.997c-1.375-2.315-3-10.853-3.125-11.865C240.301,386.249,238.426,383.5,238.426,383.5z"></path><path style="fill:#828087;" d="M241.377,398.375c0.188,0,3.063,0.813,3.063,0.813s-1.375,4.313-2.813,6.5c-1.375,1.563-3.188,2-3.188,2l0.438-1.938L241.377,398.375z"></path><path style="fill:#6E6E6E;stroke:#000000;stroke-linecap:round;stroke-linejoin:round;" d="M224.9,384.75l2.625-2.125c0,0-1.375,12-1.5,12.875s-4.875,1.25-4.5,0.875S224.9,384.75,224.9,384.75z"></path><path style="fill:#B4B6C2;stroke:#000000;stroke-linecap:round;stroke-linejoin:round;" d="M225.525,383.5c0,0-0.25,8.827-2.875,15.193c0.875,4.052,2.875,7.959,2.875,7.959l-0.875,3.473c0,0-4.625-6.367-5.5-10.997c1.375-2.315,3-10.853,3.125-11.865C223.65,386.249,225.525,383.5,225.525,383.5z"></path><path style="fill:#828087;" d="M222.676,398.375c-0.188,0-3.063,0.813-3.063,0.813s1.375,4.313,2.813,6.5c1.375,1.563,3.188,2,3.188,2l-0.438-1.938L222.676,398.375z"></path></g><g><path style="fill:#B4B6C2;stroke:#000000;stroke-linecap:round;stroke-linejoin:round;" d="M226.645,382l5.381-6.625l5.381,6.625c0,0-1.305,9.625,2.119,13.875h-15C227.949,391.625,226.645,382,226.645,382z"></path><polygon style="fill:#6E6E6E;stroke:#000000;stroke-linecap:round;stroke-linejoin:round;" points="228.025,383.75 228.15,382.25 230.525,382 230.65,379.625 232.025,378.875 233.4,379.625 233.525,382 235.9,382.25 236.025,383.75 233.775,384 233.9,390.125 232.025,391.875 230.15,390.125 230.275,384 "></polygon></g><g><path style="fill:#6E6E6E;stroke:#000000;stroke-linecap:round;stroke-linejoin:round;" d="M231.926,395.5c0,0,8.157-0.363,8,0c-2,4.625-8,5.375-8,5.375s-6-0.75-8-5.375C223.769,395.137,231.926,395.5,231.926,395.5z"></path><g><g><path style="fill:#B4B6C2;stroke:#000000;stroke-linecap:round;stroke-linejoin:round;" d="M232.299,401.5l9.75-6.875c0,0-0.147,5.375-1.478,9.625c-1.182,1.875-8.272,5-8.272,5s-7.091-3.125-8.272-5c-1.33-4.25-1.478-9.625-1.478-9.625L232.299,401.5z"></path></g><path style="fill:#FFFFFF;" d="M241.176,397.5c0,0-0.938,6.375-1.188,6.563c-1.875,1.688-4.438,3-4.438,3L241.176,397.5z"></path><path style="fill:#828087;" d="M232.049,402.667v5.833c0,0-5.873-2.25-7.5-4.5c-1.311-3.625-1.436-7.125-1.436-7.125S227.676,401.438,232.049,402.667z"></path><path style="fill:#B4B6C2;stroke:#000000;stroke-linecap:round;stroke-linejoin:round;" d="M225.799,394.625c0,0,2.807,3.75,6.5,4.375c3.693-0.625,6.5-4.375,6.5-4.375h3.25c-1.33,4.75-9.75,7.625-9.75,7.625s-8.42-2.875-9.75-7.625H225.799z"></path><path style="fill:#FFFFFF;" d="M241.301,395.25h-2.313c0,0-2.875,3.938-6.688,4.375c0,1.75,0,1.75,0,1.75S237.926,400.563,241.301,395.25z"></path></g></g></g><g><g><path style="fill:#6E6E6E;stroke:#000000;stroke-linecap:round;stroke-linejoin:round;" d="M242.799,411.084c0,0-4,19-4.5,19.875s-2.125-4-2.125-4l1.625-17.375l4.25-2L242.799,411.084z"></path><path style="fill:#6E6E6E;stroke:#000000;stroke-linecap:round;stroke-linejoin:round;" d="M221.248,411.084c0,0,4,19,4.5,19.875s2.125-4,2.125-4l-1.625-17.375l-4.25-2L221.248,411.084z"></path></g><g><path style="fill:#B4B6C2;stroke:#000000;stroke-linecap:round;stroke-linejoin:round;" d="M239.926,406c0,0,3.375,0.875,4.125,1.625c-0.125,2.5-0.875,4.5-0.875,4.5l1,4.375c0,0-2.625,4.125-3,4.125c-0.375-1.125-1-1.75-1-1.75l2.125-3.125l-4.25-7.5L239.926,406z"></path><path style="fill:#828087;" d="M242.703,412.125c0,0-2.688-1.125-2.438-1.625s3-2.625,3.313-2.563C243.453,409.875,242.891,411.625,242.703,412.125z"></path><path style="fill:#B4B6C2;stroke:#000000;stroke-linecap:round;stroke-linejoin:round;" d="M223.025,406c0,0-3.375,0.875-4.125,1.625c0.125,2.5,0.875,4.5,0.875,4.5l-1,4.375c0,0,2.625,4.125,3,4.125c0.375-1.125,1-1.75,1-1.75l-2.125-3.125l4.25-7.5L223.025,406z"></path><path style="fill:#828087;" d="M220.238,412.125c0,0,2.688-1.125,2.438-1.625s-3-2.625-3.313-2.563C219.488,409.875,220.051,411.625,220.238,412.125z"></path></g><path style="fill:#B4B6C2;stroke:#000000;stroke-linecap:round;stroke-linejoin:round;" d="M222.926,415.125c-0.25-1.25,1-8.5,1-8.5s5.25,4.875,8.125,4.875s8.125-4.875,8.125-4.875s1.25,7.25,1,8.5c-1.75,1-2.625,2.25-2.625,2.25s-0.373,7.625-0.373,8.25s0.75,1.625,1,2s-1.125,1.25-1.25,2.25s1.25,2.25,1.25,2.25s-1.125,1.25-1.25,1.625s3.123,3.5,3.123,3.5l-1.875,7.25l-7.125-2.375l-6.125,2.375l-2.375-6.333c0,0,3.25-4.042,3.125-4.417s-1.25-1.625-1.25-1.625s1.375-1.25,1.25-2.25s-1.5-1.875-1.25-2.25s1-1.375,1-2s-0.875-8.25-0.875-8.25S224.676,416.125,222.926,415.125z"></path><path style="fill:#828087;" d="M232.238,422.469l0.313,14.698l-6.814,5.385l-1.686-4.385c0,0,3.25-3.886,3.156-4.323s-1.094-1.719-1.094-1.719s1.688-1.427,1.688-2.594s-1.281-2.563-1.281-2.563l1.719-2.875c0,0-1.854-5.927-2.188-6.927c-0.531-0.604-2.834-2.5-2.834-2.5l0.959-7.167c0,0,2.625,2.292,6.125,4.125c0,4.5,0,9.313,0,9.313S230.582,422.031,232.238,422.469z"></path><path style="fill:#6E6E6E;stroke:#000000;stroke-linecap:round;stroke-linejoin:round;" d="M232.117,412.103l1.333-0.666c0,0,0,8.167,0,9.167s-1.333,1.333-1.333,1.333s-1.333-0.333-1.333-1.333s0-9.167,0-9.167L232.117,412.103z"></path><g><ellipse style="fill:#B4B6C2;stroke:#000000;stroke-linecap:round;stroke-linejoin:round;" cx="238.402" cy="411.583" rx="0.917" ry="1.417"></ellipse><ellipse style="fill:#B4B6C2;stroke:#000000;stroke-linecap:round;stroke-linejoin:round;" cx="225.569" cy="411.583" rx="0.917" ry="1.417"></ellipse></g><g><ellipse style="fill:#B4B6C2;stroke:#000000;stroke-linecap:round;stroke-linejoin:round;" cx="238.801" cy="437.916" rx="0.917" ry="1.417"></ellipse><ellipse style="fill:#B4B6C2;stroke:#000000;stroke-linecap:round;stroke-linejoin:round;" cx="225.968" cy="437.916" rx="0.917" ry="1.417"></ellipse></g></g></g></g></g><g><g><path style="fill:#B4B6C2;stroke:#000000;stroke-linecap:round;stroke-linejoin:round;" d="M225.736,442.552c0,0,3.314-3.052,6.814-4.927c4.25,1.875,7,4.5,7,4.5s0.728,1.049,0.651,3.875h-13.776C226.01,444.441,225.736,442.552,225.736,442.552z"></path><path style="fill:#828087;" d="M232.634,438.75l0.167,6.5l-5.75,0.333L226.384,443C226.384,443,230.134,439.917,232.634,438.75z"></path></g><path style="fill:#242833;stroke:#000000;stroke-linecap:round;stroke-linejoin:round;" d="M240.202,446c-0.015,0.557-0.071,1.089-0.194,1.559c-0.299,1.136-11.724,0.751-12.626,0.451c-0.355-0.119-0.686-0.995-0.956-2.01H240.202z"></path></g></g></g></g></svg>