<svg xmlns="http://www.w3.org/2000/svg" width="500" height="500" version="1.1"><g id="x9066"><g><g><g><path style="fill:#28272D;stroke:#000000;stroke-linecap:round;stroke-linejoin:round;" d="M225.699,442.552c0,0,0.744,5.157,1.646,5.458c0.902,0.3,12.326,0.685,12.625-0.451c0.751-2.855-0.825-7.912-0.825-7.912s1.318-7.823,2.288-14.396l-9.586-2.75l-9.573,2.75C223.866,434.654,225.699,442.552,225.699,442.552z"></path><path style="fill:#46454B;" d="M229.179,440.667c0,0,1.667-1.168,4.167-1.334s4.167,0.667,4.167,0.667s-1.167-2.001-4.333-2.167s-4,2.5-4,2.5"></path><path style="fill:#46454B;" d="M227.179,433c0,0,0.667,1.499,1.667,1.833s1.5-0.5,3.167-0.5s5.167,1.501,5.667,0.834s0.5-2.668,0-2.834s-4.833-1.333-5.667-0.833S227.179,433,227.179,433z"></path><path style="fill:#46454B;" d="M233.846,443.5c0,0,1-1.833,2.5-2s3.166,1.666,2.833,2.333S234.013,444.333,233.846,443.5z"></path></g><g><g><path style="fill:#46454B;stroke:#000000;stroke-linecap:round;stroke-linejoin:round;" d="M221.513,421.333c-0.333,0.5-2.167,6.5-2.167,7.167c1.5,2,8,2.501,10.5,2.667c1.333-5.334,2.167-9.334,2.167-9.334L221.513,421.333z"></path><path style="fill:#46454B;stroke:#000000;stroke-linecap:round;stroke-linejoin:round;" d="M242.512,421.333c0.333,0.5,2.167,6.5,2.167,7.167c-1.5,2-8,2.501-10.5,2.667c-1.333-5.334-2.166-9.334-2.166-9.334L242.512,421.333z"></path></g><g><rect x="227.013" y="424.667" style="fill:#6E6E6E;stroke:#000000;stroke-linecap:round;stroke-linejoin:round;" width="8.833" height="3.666"></rect></g></g></g><g><g><path style="fill:#28272D;stroke:#000000;stroke-linecap:round;stroke-linejoin:round;" d="M274.303,442.552c0,0-0.744,5.157-1.646,5.458c-0.902,0.3-12.326,0.685-12.625-0.451c-0.751-2.855,0.825-7.912,0.825-7.912s-1.318-7.823-2.288-14.396l9.586-2.75l9.573,2.75C276.136,434.654,274.303,442.552,274.303,442.552z"></path><path style="fill:#46454B;" d="M270.823,440.667c0,0-1.668-1.168-4.168-1.334S262.489,440,262.489,440s1.167-2.001,4.334-2.167c3.166-0.166,4,2.5,4,2.5"></path><path style="fill:#46454B;" d="M272.823,433c0,0-0.668,1.499-1.668,1.833s-1.5-0.5-3.166-0.5s-5.166,1.501-5.666,0.834s-0.5-2.668,0-2.834s4.832-1.333,5.666-0.833S272.823,433,272.823,433z"></path><path style="fill:#46454B;" d="M266.155,443.5c0,0-1-1.833-2.5-2s-3.166,1.666-2.832,2.333C261.155,444.5,265.989,444.333,266.155,443.5z"></path></g><g><g><path style="fill:#46454B;stroke:#000000;stroke-linecap:round;stroke-linejoin:round;" d="M278.489,421.333c0.334,0.5,2.166,6.5,2.166,7.167c-1.5,2-8,2.501-10.5,2.667c-1.332-5.334-2.166-9.334-2.166-9.334L278.489,421.333z"></path><path style="fill:#46454B;stroke:#000000;stroke-linecap:round;stroke-linejoin:round;" d="M257.489,421.333c-0.333,0.5-2.166,6.5-2.166,7.167c1.5,2,8,2.501,10.5,2.667c1.333-5.334,2.166-9.334,2.166-9.334L257.489,421.333z"></path></g><g><rect x="264.155" y="424.667" style="fill:#6E6E6E;stroke:#000000;stroke-linecap:round;stroke-linejoin:round;" width="8.834" height="3.666"></rect></g></g></g></g></g></svg>