<svg xmlns="http://www.w3.org/2000/svg" width="500" height="500" version="1.1"><g id="x9067"><g><g><g><g><path style="fill:#6E6E6E;stroke:#000000;stroke-linecap:round;stroke-linejoin:round;" d="M233.291,445.086c-6.702,0-7.611-2.336-7.611-2.336c0.146,0.938,0.818,4.994,1.615,5.26c0.902,0.3,12.326,0.685,12.625-0.451c0.359-1.365,0.186-3.23-0.093-4.809C239.827,442.75,239.993,445.086,233.291,445.086z"></path></g></g><path style="fill:#6E6E6E;stroke:#000000;stroke-linecap:round;stroke-linejoin:round;" d="M224.227,434.5c0,0,9.25,1,15.75-0.75c0,1.75-0.75,3.75-0.75,3.75s-10,1-14.75,0C224.227,436.25,224.227,434.5,224.227,434.5z"></path></g><g><g><g><path style="fill:#6E6E6E;stroke:#000000;stroke-linecap:round;stroke-linejoin:round;" d="M266.711,445.086c6.702,0,7.611-2.336,7.611-2.336c-0.146,0.938-0.818,4.994-1.615,5.26c-0.902,0.3-12.326,0.685-12.625-0.451c-0.359-1.365-0.186-3.23,0.093-4.809C260.175,442.75,260.009,445.086,266.711,445.086z"></path></g></g><path style="fill:#6E6E6E;stroke:#000000;stroke-linecap:round;stroke-linejoin:round;" d="M275.775,434.5c0,0-9.25,1-15.75-0.75c0,1.75,0.75,3.75,0.75,3.75s10,1,14.75,0C275.775,436.25,275.775,434.5,275.775,434.5z"></path></g></g></g></svg>