<svg xmlns="http://www.w3.org/2000/svg" width="500" height="500" version="1.1"><g id="x9068"><g><g><g><path style="fill:#6E6E6E;stroke:#000000;stroke-linecap:round;stroke-linejoin:round;" d="M259.832,445.167c0,0,8.236-3.834,15.069-5c0.166-1.166,0.5-2.367,0.5-2.367s-12.486,2.888-15.319,5.388C259.915,443.688,259.832,445.167,259.832,445.167z"></path><path style="fill:#6E6E6E;stroke:#000000;stroke-linecap:round;stroke-linejoin:round;" d="M274.209,443.063c-2.019-1.781-9.368-3.694-13.545-4.648l-0.138,2.202c6.39,1.479,13.278,4.551,13.278,4.551S274.376,443.563,274.209,443.063z"></path></g><g><g><g><path style="fill:#6E6E6E;stroke:#000000;stroke-linecap:round;stroke-linejoin:round;" d="M266.744,445.086c6.702,0,7.611-2.336,7.611-2.336c-0.146,0.938-0.818,4.994-1.615,5.26c-0.902,0.3-12.326,0.685-12.625-0.451c-0.359-1.365-0.186-3.23,0.093-4.809C260.208,442.75,260.042,445.086,266.744,445.086z"></path></g></g></g></g><g><g><path style="fill:#6E6E6E;stroke:#000000;stroke-linecap:round;stroke-linejoin:round;" d="M240.169,445.167c0,0-8.236-3.834-15.069-5c-0.166-1.166-0.5-2.367-0.5-2.367s12.486,2.888,15.319,5.388C240.086,443.688,240.169,445.167,240.169,445.167z"></path><path style="fill:#6E6E6E;stroke:#000000;stroke-linecap:round;stroke-linejoin:round;" d="M225.792,443.063c2.019-1.781,9.368-3.694,13.545-4.648l0.138,2.202c-6.39,1.479-13.278,4.551-13.278,4.551S225.625,443.563,225.792,443.063z"></path></g><g><g><g><path style="fill:#6E6E6E;stroke:#000000;stroke-linecap:round;stroke-linejoin:round;" d="M233.257,445.086c-6.702,0-7.611-2.336-7.611-2.336c0.146,0.938,0.818,4.994,1.615,5.26c0.902,0.3,12.326,0.685,12.625-0.451c0.359-1.365,0.186-3.23-0.093-4.809C239.793,442.75,239.959,445.086,233.257,445.086z"></path></g></g></g></g></g></g></svg>