<svg xmlns="http://www.w3.org/2000/svg" width="500" height="500" version="1.1"><g id="x9069"><g><g><path style="fill:#6E6E6E;stroke:#000000;stroke-linecap:round;stroke-linejoin:round;" d="M259.861,446.167c0.022,0.495,0.077,0.969,0.188,1.392c0.299,1.136,11.725,0.751,12.627,0.451c0.336-0.112,0.649-0.899,0.911-1.843H259.861z"></path><path style="fill:#2B1B25;stroke:#000000;stroke-linecap:round;stroke-linejoin:round;" d="M274.321,442.552c0,0,4.024-17.33,5.326-31.219h-22.412c0.071,2.291,0.21,4.813,0.477,7.343c0.619,5.866,3.164,20.971,3.164,20.971s-1.14,3.668-1.015,6.521h13.727C274.028,444.58,274.321,442.552,274.321,442.552z"></path><path style="fill:#2B1B25;stroke:#000000;stroke-linecap:round;stroke-linejoin:round;" d="M259.134,418c0,0-2.333-3.001-3-5.167s-2.667-6.333-3.167-11c0.834-1.5,2.667-2.333,3.167-2.333c0.333,3.333,4.667,11.667,5.667,12.333"></path><path style="fill:#2B1B25;stroke:#000000;stroke-linecap:round;stroke-linejoin:round;" d="M274.634,411.833c0,0,2.667-4.333,3-4.833s2.999-7.499,4.833-8.333c1.834,3.166,3.667,4.5,3.667,4.5s-6.667,12.334-8.5,13.5"></path><g><path style="fill:#2B1B25;stroke:#000000;stroke-linecap:round;stroke-linejoin:round;" d="M262.968,419c-0.166-1-1.334-9.667-1.334-9.667s-1.5-5.333-1.5-10c3.167-1.667,14-1.5,16.667-0.166c-0.833,5.5-3,10.833-3,10.833s-0.834,8.333-1,9.333"></path></g><g><g><path style="fill:#6E6E6E;" d="M260.589,412.494c0.092,0.106,2.292,2.616,5.387,3.647l0,0c0.262,0.087,0.545-0.055,0.633-0.316c0.087-0.262-0.055-0.545-0.316-0.633l0,0c-2.828-0.942-4.927-3.329-4.947-3.354v0.001c-0.181-0.209-0.497-0.231-0.705-0.051C260.431,411.97,260.408,412.286,260.589,412.494L260.589,412.494z"></path></g><g><path style="fill:#6E6E6E;" d="M268.053,415.992c0.164-0.028,4.043-0.729,6.302-3.51l0,0c0.175-0.215,0.142-0.529-0.072-0.703c-0.215-0.175-0.529-0.142-0.703,0.072l0,0c-2.026,2.493-5.661,3.149-5.698,3.156l0,0c-0.271,0.047-0.454,0.306-0.406,0.578C267.521,415.857,267.78,416.04,268.053,415.992L268.053,415.992z"></path></g></g><g><g><g><path style="fill:#6E6E6E;" d="M266.681,415.715c-5.589,3.899-5.589,4.237-5.589,4.535c0,0.059,0.011,0.117,0.031,0.173c0.962,2.611,1.944,3.827,3.094,3.827c0.379,0,1.267,0,3.235-8.006c0.05-0.202-0.031-0.414-0.202-0.531C267.078,415.595,266.852,415.596,266.681,415.715z M264.217,423.25c-0.297,0-1.101-0.31-2.156-3.173c0.021,0.056,0.031,0.114,0.031,0.173c0,0.134-0.058,0.215-0.059,0.216c0.266-0.366,2.862-2.286,5.22-3.931c-0.171,0.119-0.397,0.12-0.569,0.002c-0.171-0.117-0.252-0.329-0.202-0.531c-0.786,3.196-1.938,6.893-2.427,7.289C264.07,423.282,264.13,423.25,264.217,423.25z"></path></g><g><path style="fill:#6E6E6E;" d="M266.681,416.535L266.681,416.535c2.357,1.645,4.954,3.564,5.22,3.931c-0.001-0.001-0.059-0.082-0.059-0.216c0-0.059,0.011-0.117,0.031-0.173c-1.056,2.863-1.859,3.173-2.156,3.173c0.087,0,0.146,0.032,0.162,0.045c-0.489-0.396-1.641-4.093-2.427-7.289c0.05,0.202-0.031,0.414-0.202,0.531C267.078,416.655,266.852,416.654,266.681,416.535z M269.717,424.25c1.149,0,2.132-1.216,3.094-3.827c0.021-0.056,0.031-0.114,0.031-0.173c0-0.298,0-0.636-5.589-4.535c-0.171-0.119-0.397-0.12-0.569-0.002c-0.171,0.117-0.252,0.329-0.202,0.531C268.45,424.25,269.338,424.25,269.717,424.25z"></path></g></g><g><g><path style="fill:#6E6E6E;" d="M265.973,417.05c-0.072,0.471-1.756,11.563-1.756,13.825l0,0c0,0.276,0.224,0.5,0.5,0.5s0.5-0.224,0.5-0.5l0,0c0-2.187,1.727-13.561,1.744-13.675l0,0c0.042-0.273-0.146-0.528-0.419-0.569C266.269,416.589,266.014,416.776,265.973,417.05L265.973,417.05z"></path></g><g><path style="fill:#6E6E6E;" d="M266.602,417.725L266.602,417.725c0.021,0.098,1.983,9.841,1.742,12.86l0,0c-0.022,0.275,0.183,0.517,0.458,0.538c0.275,0.022,0.517-0.183,0.538-0.458l0,0c0.253-3.159-1.676-12.733-1.758-13.14l0,0c-0.055-0.271-0.318-0.445-0.59-0.391C266.722,417.189,266.547,417.453,266.602,417.725L266.602,417.725z"></path></g></g></g><g><g><g><path style="fill:#6E6E6E;" d="M263.234,417.264c0.192,0.157,4.756,3.852,7.746,5.115l0,0c0.254,0.107,0.548-0.012,0.655-0.267c0.107-0.254-0.012-0.548-0.267-0.655l0,0c-2.86-1.208-7.458-4.932-7.504-4.969l0,0c-0.215-0.175-0.529-0.142-0.703,0.072C262.987,416.775,263.021,417.09,263.234,417.264L263.234,417.264z"></path></g><g><path style="fill:#6E6E6E;" d="M270.859,416.488L270.859,416.488c-0.046,0.037-4.646,3.762-7.504,4.969l0,0c-0.255,0.107-0.374,0.401-0.267,0.655c0.107,0.255,0.401,0.374,0.655,0.267l0,0c2.99-1.264,7.553-4.958,7.746-5.115l0,0c0.214-0.174,0.247-0.488,0.072-0.703C271.389,416.347,271.074,416.313,270.859,416.488L270.859,416.488z"></path></g></g><g><g><path style="fill:#6E6E6E;" d="M263.416,422.313c0.178,0.145,4.391,3.557,7.153,4.724l0,0c0.254,0.107,0.548-0.012,0.655-0.267c0.107-0.254-0.012-0.548-0.267-0.655l0,0c-2.632-1.111-6.869-4.543-6.911-4.577l0,0c-0.215-0.175-0.529-0.142-0.703,0.072C263.169,421.824,263.202,422.14,263.416,422.313L263.416,422.313z"></path></g><g><path style="fill:#6E6E6E;" d="M270.448,421.538L270.448,421.538c-0.042,0.034-4.279,3.467-6.911,4.577l0,0c-0.255,0.107-0.374,0.401-0.267,0.655c0.107,0.255,0.401,0.374,0.655,0.267l0,0c2.764-1.167,6.976-4.579,7.153-4.724l0,0c0.214-0.174,0.247-0.489,0.072-0.703C270.978,421.396,270.662,421.363,270.448,421.538L270.448,421.538z"></path></g></g><g><g><path style="fill:#6E6E6E;" d="M263.597,427.364c0.163,0.133,4.026,3.261,6.563,4.331l0,0c0.255,0.107,0.548-0.012,0.655-0.267s-0.012-0.548-0.267-0.655l0,0c-2.405-1.015-6.281-4.153-6.32-4.185l0,0c-0.215-0.175-0.529-0.142-0.703,0.072C263.35,426.876,263.383,427.19,263.597,427.364L263.597,427.364z"></path></g><g><path style="fill:#6E6E6E;" d="M270.038,426.589L270.038,426.589c-0.039,0.031-3.915,3.17-6.32,4.185l0,0c-0.255,0.107-0.374,0.4-0.267,0.655s0.4,0.374,0.655,0.267l0,0c2.536-1.07,6.399-4.198,6.563-4.331l0,0c0.214-0.174,0.247-0.488,0.072-0.703C270.567,426.447,270.253,426.414,270.038,426.589L270.038,426.589z"></path></g></g><g><g><path style="fill:#6E6E6E;" d="M263.778,432.414c0.148,0.121,3.661,2.965,5.97,3.94l0,0c0.254,0.107,0.548-0.012,0.655-0.267c0.107-0.254-0.012-0.548-0.267-0.655l0,0c-2.179-0.92-5.692-3.766-5.728-3.794l0,0c-0.215-0.175-0.529-0.142-0.703,0.072C263.531,431.926,263.564,432.24,263.778,432.414L263.778,432.414z"></path></g><g><path style="fill:#6E6E6E;" d="M269.627,431.639L269.627,431.639c-0.035,0.028-3.551,2.874-5.728,3.794l0,0c-0.255,0.107-0.374,0.401-0.267,0.655c0.107,0.255,0.401,0.374,0.655,0.267l0,0c2.309-0.976,5.821-3.819,5.97-3.94l0,0c0.214-0.174,0.247-0.488,0.072-0.703C270.156,431.497,269.842,431.464,269.627,431.639L269.627,431.639z"></path></g></g><g><g><path style="fill:#6E6E6E;" d="M263.96,437.464c0.134,0.109,3.296,2.67,5.377,3.549l0,0c0.254,0.107,0.548-0.012,0.655-0.267c0.107-0.254-0.012-0.548-0.267-0.655l0,0c-1.949-0.823-5.104-3.377-5.135-3.402l0,0c-0.215-0.175-0.529-0.142-0.703,0.072C263.713,436.976,263.746,437.29,263.96,437.464L263.96,437.464z"></path></g><g><path style="fill:#6E6E6E;" d="M269.216,436.688L269.216,436.688c-0.031,0.025-3.185,2.579-5.135,3.402l0,0c-0.255,0.107-0.374,0.401-0.267,0.655c0.107,0.255,0.401,0.374,0.655,0.267l0,0c2.082-0.879,5.243-3.44,5.377-3.549l0,0c0.214-0.174,0.247-0.489,0.072-0.703C269.745,436.547,269.43,436.514,269.216,436.688L269.216,436.688z"></path></g></g></g></g><g><path style="fill:#6E6E6E;stroke:#000000;stroke-linecap:round;stroke-linejoin:round;" d="M240.139,446.167c-0.022,0.495-0.077,0.969-0.188,1.392c-0.299,1.136-11.725,0.751-12.627,0.451c-0.336-0.112-0.649-0.899-0.911-1.843H240.139z"></path><path style="fill:#2B1B25;stroke:#000000;stroke-linecap:round;stroke-linejoin:round;" d="M225.679,442.552c0,0-4.024-17.33-5.326-31.219h22.412c-0.071,2.291-0.21,4.813-0.477,7.343c-0.619,5.866-3.164,20.971-3.164,20.971s1.14,3.668,1.015,6.521h-13.727C225.972,444.58,225.679,442.552,225.679,442.552z"></path><path style="fill:#2B1B25;stroke:#000000;stroke-linecap:round;stroke-linejoin:round;" d="M240.867,418c0,0,2.333-3.001,3-5.167s2.667-6.333,3.167-11c-0.834-1.5-2.667-2.333-3.167-2.333c-0.333,3.333-4.667,11.667-5.667,12.333"></path><path style="fill:#2B1B25;stroke:#000000;stroke-linecap:round;stroke-linejoin:round;" d="M225.367,411.833c0,0-2.667-4.333-3-4.833s-2.999-7.499-4.833-8.333c-1.834,3.166-3.667,4.5-3.667,4.5s6.667,12.334,8.5,13.5"></path><g><path style="fill:#2B1B25;stroke:#000000;stroke-linecap:round;stroke-linejoin:round;" d="M237.033,419c0.166-1,1.334-9.667,1.334-9.667s1.5-5.333,1.5-10c-3.167-1.667-14-1.5-16.667-0.166c0.833,5.5,3,10.833,3,10.833s0.834,8.333,1,9.333"></path></g><g><g><path style="fill:#6E6E6E;" d="M239.412,412.494c-0.092,0.106-2.292,2.616-5.387,3.647l0,0c-0.262,0.087-0.545-0.055-0.633-0.316c-0.087-0.262,0.055-0.545,0.316-0.633l0,0c2.828-0.942,4.927-3.329,4.947-3.354v0.001c0.181-0.209,0.497-0.231,0.705-0.051C239.57,411.97,239.592,412.286,239.412,412.494L239.412,412.494z"></path></g><g><path style="fill:#6E6E6E;" d="M231.948,415.992c-0.164-0.028-4.043-0.729-6.302-3.51l0,0c-0.175-0.215-0.142-0.529,0.072-0.703c0.215-0.175,0.529-0.142,0.703,0.072l0,0c2.026,2.493,5.661,3.149,5.698,3.156l0,0c0.271,0.047,0.454,0.306,0.406,0.578C232.479,415.857,232.22,416.04,231.948,415.992L231.948,415.992z"></path></g></g><g><g><g><path style="fill:#6E6E6E;" d="M232.75,415.713c-0.171,0.117-0.252,0.329-0.202,0.531c1.969,8.006,2.856,8.006,3.235,8.006c1.149,0,2.132-1.216,3.094-3.827c0.021-0.056,0.031-0.114,0.031-0.173c0-0.298,0-0.636-5.589-4.535C233.149,415.596,232.922,415.595,232.75,415.713z M235.946,423.295c-0.489-0.396-1.641-4.093-2.427-7.289c0.05,0.202-0.031,0.414-0.202,0.531c-0.172,0.118-0.398,0.117-0.569-0.002c2.357,1.645,4.954,3.564,5.22,3.931c-0.001-0.001-0.059-0.082-0.059-0.216c0-0.059,0.011-0.117,0.031-0.173c-1.056,2.863-1.859,3.173-2.156,3.173C235.871,423.25,235.93,423.282,235.946,423.295z"></path></g><g><path style="fill:#6E6E6E;" d="M232.75,416.537c-0.171-0.117-0.252-0.329-0.202-0.531c-0.786,3.196-1.938,6.893-2.427,7.289c0.016-0.013,0.075-0.045,0.162-0.045c-0.297,0-1.101-0.31-2.156-3.173c0.021,0.056,0.031,0.114,0.031,0.173c0,0.134-0.058,0.215-0.059,0.216c0.266-0.366,2.862-2.286,5.22-3.931l0,0C233.149,416.654,232.922,416.655,232.75,416.537z M233.519,416.244c0.05-0.202-0.031-0.414-0.202-0.531c-0.172-0.118-0.398-0.117-0.569,0.002c-5.589,3.899-5.589,4.237-5.589,4.535c0,0.059,0.011,0.117,0.031,0.173c0.962,2.611,1.944,3.827,3.094,3.827C230.663,424.25,231.55,424.25,233.519,416.244z"></path></g></g><g><g><path style="fill:#6E6E6E;" d="M234.028,417.05c0.072,0.471,1.756,11.563,1.756,13.825l0,0c0,0.276-0.224,0.5-0.5,0.5s-0.5-0.224-0.5-0.5l0,0c0-2.187-1.727-13.561-1.744-13.675l0,0c-0.042-0.273,0.146-0.528,0.419-0.569C233.732,416.589,233.987,416.776,234.028,417.05L234.028,417.05z"></path></g><g><path style="fill:#6E6E6E;" d="M233.399,417.725L233.399,417.725c-0.021,0.098-1.983,9.841-1.742,12.86l0,0c0.022,0.275-0.183,0.517-0.458,0.538c-0.275,0.022-0.517-0.183-0.538-0.458l0,0c-0.253-3.159,1.676-12.733,1.758-13.14l0,0c0.055-0.271,0.318-0.445,0.59-0.391C233.279,417.189,233.454,417.453,233.399,417.725L233.399,417.725z"></path></g></g></g><g><g><g><path style="fill:#6E6E6E;" d="M236.766,417.264c-0.192,0.157-4.756,3.852-7.746,5.115l0,0c-0.254,0.107-0.548-0.012-0.655-0.267c-0.107-0.254,0.012-0.548,0.267-0.655l0,0c2.86-1.208,7.458-4.932,7.504-4.969l0,0c0.215-0.175,0.529-0.142,0.703,0.072C237.013,416.775,236.98,417.09,236.766,417.264L236.766,417.264z"></path></g><g><path style="fill:#6E6E6E;" d="M229.141,416.488L229.141,416.488c0.046,0.037,4.646,3.762,7.504,4.969l0,0c0.255,0.107,0.374,0.401,0.267,0.655c-0.107,0.255-0.401,0.374-0.655,0.267l0,0c-2.99-1.264-7.553-4.958-7.746-5.115l0,0c-0.214-0.174-0.247-0.488-0.072-0.703C228.612,416.347,228.926,416.313,229.141,416.488L229.141,416.488z"></path></g></g><g><g><path style="fill:#6E6E6E;" d="M236.584,422.313c-0.178,0.145-4.391,3.557-7.153,4.724l0,0c-0.254,0.107-0.548-0.012-0.655-0.267c-0.107-0.254,0.012-0.548,0.267-0.655l0,0c2.632-1.111,6.869-4.543,6.911-4.577l0,0c0.215-0.175,0.529-0.142,0.703,0.072C236.832,421.824,236.798,422.14,236.584,422.313L236.584,422.313z"></path></g><g><path style="fill:#6E6E6E;" d="M229.552,421.538L229.552,421.538c0.042,0.034,4.279,3.467,6.911,4.577l0,0c0.255,0.107,0.374,0.401,0.267,0.655c-0.107,0.255-0.401,0.374-0.655,0.267l0,0c-2.764-1.167-6.976-4.579-7.153-4.724l0,0c-0.214-0.174-0.247-0.489-0.072-0.703C229.023,421.396,229.338,421.363,229.552,421.538L229.552,421.538z"></path></g></g><g><g><path style="fill:#6E6E6E;" d="M236.404,427.364c-0.163,0.133-4.026,3.261-6.563,4.331l0,0c-0.255,0.107-0.548-0.012-0.655-0.267s0.012-0.548,0.267-0.655l0,0c2.405-1.015,6.281-4.153,6.32-4.185l0,0c0.215-0.175,0.529-0.142,0.703,0.072C236.651,426.876,236.618,427.19,236.404,427.364L236.404,427.364z"></path></g><g><path style="fill:#6E6E6E;" d="M229.962,426.589L229.962,426.589c0.039,0.031,3.915,3.17,6.32,4.185l0,0c0.255,0.107,0.374,0.4,0.267,0.655s-0.4,0.374-0.655,0.267l0,0c-2.536-1.07-6.399-4.198-6.563-4.331l0,0c-0.214-0.174-0.247-0.488-0.072-0.703C229.433,426.447,229.748,426.414,229.962,426.589L229.962,426.589z"></path></g></g><g><g><path style="fill:#6E6E6E;" d="M236.222,432.414c-0.148,0.121-3.661,2.965-5.97,3.94l0,0c-0.254,0.107-0.548-0.012-0.655-0.267c-0.107-0.254,0.012-0.548,0.267-0.655l0,0c2.179-0.92,5.692-3.766,5.728-3.794l0,0c0.215-0.175,0.529-0.142,0.703,0.072C236.469,431.926,236.436,432.24,236.222,432.414L236.222,432.414z"></path></g><g><path style="fill:#6E6E6E;" d="M230.374,431.639L230.374,431.639c0.035,0.028,3.551,2.874,5.728,3.794l0,0c0.255,0.107,0.374,0.401,0.267,0.655c-0.107,0.255-0.401,0.374-0.655,0.267l0,0c-2.309-0.976-5.821-3.819-5.97-3.94l0,0c-0.214-0.174-0.247-0.488-0.072-0.703C229.844,431.497,230.159,431.464,230.374,431.639L230.374,431.639z"></path></g></g><g><g><path style="fill:#6E6E6E;" d="M236.041,437.464c-0.134,0.109-3.296,2.67-5.377,3.549l0,0c-0.254,0.107-0.548-0.012-0.655-0.267c-0.107-0.254,0.012-0.548,0.267-0.655l0,0c1.949-0.823,5.104-3.377,5.135-3.402l0,0c0.215-0.175,0.529-0.142,0.703,0.072C236.288,436.976,236.254,437.29,236.041,437.464L236.041,437.464z"></path></g><g><path style="fill:#6E6E6E;" d="M230.785,436.688L230.785,436.688c0.031,0.025,3.185,2.579,5.135,3.402l0,0c0.255,0.107,0.374,0.401,0.267,0.655c-0.107,0.255-0.401,0.374-0.655,0.267l0,0c-2.082-0.879-5.243-3.44-5.377-3.549l0,0c-0.214-0.174-0.247-0.489-0.072-0.703C230.255,436.547,230.571,436.514,230.785,436.688L230.785,436.688z"></path></g></g></g></g></g></g></svg>