<svg xmlns="http://www.w3.org/2000/svg" width="500" height="500" version="1.1"><g id="x007"><g><g><path style="fill:#6E6E6E;stroke:#000000;stroke-linecap:round;stroke-linejoin:round;" d="M226.62,447c0,0,2.875-1.125,7.063-1.25s6.563,1.188,6.563,1.188s0.125-2.938-0.5-4.5c-0.5,1.313-3.648-0.625-6.523-0.438c-2.066,0.135-5.789,2.438-7.602,0.438C225.808,444.75,226.12,446.313,226.62,447z"></path><path style="fill:#6E6E6E;stroke:#000000;stroke-linecap:round;stroke-linejoin:round;" d="M226.62,447c0,0,0.125,1.438,0.313,1.75c1.688,0.875,10.25,1.25,13.25-0.125c0.063-0.875,0-1.625,0-1.625s-2,0.875-6.625,0.875S226.62,447,226.62,447z"></path></g><g><path style="fill:#6E6E6E;stroke:#000000;stroke-linecap:round;stroke-linejoin:round;" d="M273.38,447c0,0-2.875-1.125-7.063-1.25s-6.563,1.188-6.563,1.188s-0.125-2.938,0.5-4.5c0.5,1.313,3.648-0.625,6.523-0.438c2.066,0.135,5.789,2.438,7.602,0.438C274.192,444.75,273.88,446.313,273.38,447z"></path><path style="fill:#6E6E6E;stroke:#000000;stroke-linecap:round;stroke-linejoin:round;" d="M273.38,447c0,0-0.125,1.438-0.313,1.75c-1.688,0.875-10.25,1.25-13.25-0.125c-0.063-0.875,0-1.625,0-1.625s2,0.875,6.625,0.875S273.38,447,273.38,447z"></path></g></g></g></svg>