<svg xmlns="http://www.w3.org/2000/svg" width="500" height="500" version="1.1"><g id="x9070"><g><g><path style="fill:#6E6E6E;stroke:#000000;stroke-linecap:round;stroke-linejoin:round;" d="M219.896,417c0,0,7-6.333,13-8.333c8.667,4,11.667,8,11.667,8s-1.867,29.667-3.2,31s-12.47,1.686-15.135,0.343C223.666,444,219.896,417,219.896,417z"></path><g><path style="fill:#EAE9E9;stroke:#000000;stroke-linecap:round;stroke-linejoin:round;" d="M226.666,414.063c0,0,0.188,7.063,1.125,8.813c-1.25-1.063-3.375-6.625-3.313-7.938"></path><path style="fill:#EAE9E9;stroke:#000000;stroke-linecap:round;stroke-linejoin:round;" d="M238.29,414.063c0,0-0.188,7.063-1.125,8.813c1.25-1.063,3.375-6.625,3.313-7.938"></path></g><g><path style="fill:none;stroke:#7B4F35;stroke-linecap:round;stroke-linejoin:round;" d="M229.166,425.001c0.125,0.125,8.167,4.5,8.167,4.5"></path><path style="fill:none;stroke:#7B4F35;stroke-linecap:round;stroke-linejoin:round;" d="M237.332,425.001c-0.125,0.125-8.167,4.5-8.167,4.5"></path></g><g><path style="fill:none;stroke:#7B4F35;stroke-linecap:round;stroke-linejoin:round;" d="M229.166,430.543c0.125,0.125,8.167,4.5,8.167,4.5"></path><path style="fill:none;stroke:#7B4F35;stroke-linecap:round;stroke-linejoin:round;" d="M237.332,430.543c-0.125,0.125-8.167,4.5-8.167,4.5"></path></g><g><path style="fill:none;stroke:#7B4F35;stroke-linecap:round;stroke-linejoin:round;" d="M229.166,436.085c0.125,0.125,8.167,4.5,8.167,4.5"></path><path style="fill:none;stroke:#7B4F35;stroke-linecap:round;stroke-linejoin:round;" d="M237.332,436.085c-0.125,0.125-8.167,4.5-8.167,4.5"></path></g><g><path style="fill:#7B4F35;stroke:#000000;stroke-linecap:round;stroke-linejoin:round;" d="M220.125,423.667l1.273,4.5c0,0,4.408-2.301,11.458-2.301s11.125,1.677,11.125,1.677l1.061-4.709c0,0-4.424-1.958-12.608-1.958S220.125,423.667,220.125,423.667z"></path><path style="fill:#928F89;stroke:#000000;stroke-linecap:round;stroke-linejoin:round;" d="M221.333,422.876c-0.083,0.375,1.125,4.624,1.375,4.916s3-0.792,3.167-1.083c-0.333-1.875-1.208-4.875-1.583-5S221.416,422.501,221.333,422.876z"></path><path style="opacity:0.5;fill:#FFFFFF;" d="M222.725,425.901c0,0-0.75-2.625-0.667-2.792c0.583-0.292,2.083-0.75,2.083-0.75L222.725,425.901z"></path><path style="fill:#7B4F35;stroke:#000000;stroke-linecap:round;stroke-linejoin:round;" d="M221.651,432l1.164,4.5c0,0,5.042-1.582,10.48-1.582s10.147,1.249,10.147,1.249l0.915-4.666c0,0-3.723-1.625-11.208-1.625C225.664,429.876,221.651,432,221.651,432z"></path><g><path style="fill:#928F89;stroke:#000000;stroke-linecap:round;stroke-linejoin:round;" d="M223.037,431.202c-0.098,0.371,0.935,4.666,1.173,4.968c0.238,0.302,3.031-0.669,3.209-0.952c-0.257-1.888-1.008-4.921-1.378-5.062C225.671,430.017,223.135,430.83,223.037,431.202z"></path><path style="opacity:0.5;fill:#FFFFFF;" d="M224.375,434.334c0,0-0.75-2.625-0.667-2.792c0.583-0.292,2.083-0.75,2.083-0.75L224.375,434.334z"></path></g></g><path style="fill:#EAE9E9;stroke:#000000;stroke-linecap:round;stroke-linejoin:round;" d="M247.1,414.491c-1.433-0.125-1.926-0.084-2.732-0.417c0.538-1.583-0.762-2.875-1.254-3.458c-0.493,1.292-2.598,0.958-2.598,0.958s-0.851-1.917-0.94-2.75c-1.479,0.084-3.001,0.334-3.001,0.334s-0.089-1.376-1.344-2.334c-1.03,0.375-2.016,0.625-2.016,0.625l-1.03-1.083l-1.031,1.083c0,0-0.985-0.25-2.016-0.625c-1.254,0.958-1.344,2.334-1.344,2.334s-1.523-0.25-3.001-0.334c-0.09,0.833-0.94,2.75-0.94,2.75s-2.105,0.334-2.598-0.958c-0.492,0.583-1.792,1.875-1.254,3.458c-0.807,0.333-1.299,0.292-2.732,0.417c0.159,1.261,1.801,2.614,2.257,2.986c0.007,0.546,0.177,1.319,0.873,2.189c3.917-4.334,11.583-8.167,11.583-8.167s8.333,3.333,12.25,7.5c0.455-0.303,0.701-1.019,0.836-1.71C245.69,416.764,246.96,415.595,247.1,414.491z"></path></g><g><path style="fill:#6E6E6E;stroke:#000000;stroke-linecap:round;stroke-linejoin:round;" d="M280.102,417c0,0-7-6.333-13-8.333c-8.666,4-11.666,8-11.666,8s1.866,29.667,3.199,31c1.334,1.333,12.471,1.686,15.135,0.343C276.332,444,280.102,417,280.102,417z"></path><g><path style="fill:#EAE9E9;stroke:#000000;stroke-linecap:round;stroke-linejoin:round;" d="M273.332,414.063c0,0-0.188,7.063-1.125,8.813c1.25-1.063,3.375-6.625,3.313-7.938"></path><path style="fill:#EAE9E9;stroke:#000000;stroke-linecap:round;stroke-linejoin:round;" d="M261.709,414.063c0,0,0.188,7.063,1.125,8.813c-1.25-1.063-3.375-6.625-3.313-7.938"></path></g><g><path style="fill:none;stroke:#7B4F35;stroke-linecap:round;stroke-linejoin:round;" d="M270.832,425.001c-0.125,0.125-8.166,4.5-8.166,4.5"></path><path style="fill:none;stroke:#7B4F35;stroke-linecap:round;stroke-linejoin:round;" d="M262.666,425.001c0.125,0.125,8.167,4.5,8.167,4.5"></path></g><g><path style="fill:none;stroke:#7B4F35;stroke-linecap:round;stroke-linejoin:round;" d="M270.832,430.543c-0.125,0.125-8.166,4.5-8.166,4.5"></path><path style="fill:none;stroke:#7B4F35;stroke-linecap:round;stroke-linejoin:round;" d="M262.666,430.543c0.125,0.125,8.167,4.5,8.167,4.5"></path></g><g><path style="fill:none;stroke:#7B4F35;stroke-linecap:round;stroke-linejoin:round;" d="M270.832,436.085c-0.125,0.125-8.166,4.5-8.166,4.5"></path><path style="fill:none;stroke:#7B4F35;stroke-linecap:round;stroke-linejoin:round;" d="M262.666,436.085c0.125,0.125,8.167,4.5,8.167,4.5"></path></g><g><path style="fill:#7B4F35;stroke:#000000;stroke-linecap:round;stroke-linejoin:round;" d="M279.874,423.667l-1.272,4.5c0,0-4.408-2.301-11.458-2.301s-11.125,1.677-11.125,1.677l-1.062-4.709c0,0,4.425-1.958,12.609-1.958C275.75,420.876,279.874,423.667,279.874,423.667z"></path><path style="fill:#928F89;stroke:#000000;stroke-linecap:round;stroke-linejoin:round;" d="M278.666,422.876c0.083,0.375-1.125,4.624-1.375,4.916s-3-0.792-3.167-1.083c0.333-1.875,1.208-4.875,1.583-5S278.583,422.501,278.666,422.876z"></path><path style="opacity:0.5;fill:#FFFFFF;" d="M277.273,425.901c0,0,0.751-2.625,0.668-2.792c-0.584-0.292-2.084-0.75-2.084-0.75L277.273,425.901z"></path><path style="fill:#7B4F35;stroke:#000000;stroke-linecap:round;stroke-linejoin:round;" d="M278.348,432l-1.164,4.5c0,0-5.043-1.582-10.48-1.582s-10.147,1.249-10.147,1.249l-0.915-4.666c0,0,3.723-1.625,11.209-1.625C274.335,429.876,278.348,432,278.348,432z"></path><g><path style="fill:#928F89;stroke:#000000;stroke-linecap:round;stroke-linejoin:round;" d="M276.962,431.202c0.099,0.371-0.935,4.666-1.173,4.968s-3.031-0.669-3.209-0.952c0.257-1.888,1.008-4.921,1.378-5.062C274.328,430.017,276.863,430.83,276.962,431.202z"></path><path style="opacity:0.5;fill:#FFFFFF;" d="M275.624,434.334c0,0,0.751-2.625,0.667-2.792c-0.584-0.292-2.084-0.75-2.084-0.75L275.624,434.334z"></path></g></g><path style="fill:#EAE9E9;stroke:#000000;stroke-linecap:round;stroke-linejoin:round;" d="M252.898,414.491c1.434-0.125,1.926-0.084,2.732-0.417c-0.537-1.583,0.763-2.875,1.255-3.458c0.493,1.292,2.599,0.958,2.599,0.958s0.85-1.917,0.939-2.75c1.479,0.084,3.002,0.334,3.002,0.334s0.09-1.376,1.344-2.334c1.03,0.375,2.016,0.625,2.016,0.625l1.03-1.083l1.03,1.083c0,0,0.986-0.25,2.016-0.625c1.255,0.958,1.344,2.334,1.344,2.334s1.523-0.25,3.002-0.334c0.09,0.833,0.94,2.75,0.94,2.75s2.105,0.334,2.599-0.958c0.492,0.583,1.791,1.875,1.254,3.458c0.807,0.333,1.299,0.292,2.732,0.417c-0.159,1.261-1.801,2.614-2.258,2.986c-0.006,0.546-0.176,1.319-0.873,2.189c-3.916-4.334-11.583-8.167-11.583-8.167s-8.333,3.333-12.25,7.5c-0.454-0.303-0.701-1.019-0.837-1.71C254.309,416.764,253.038,415.595,252.898,414.491z"></path></g></g></g></svg>