<svg xmlns="http://www.w3.org/2000/svg" width="500" height="500" version="1.1"><g id="x9071"><g><g><g><path style="fill:#070709;stroke:#000000;stroke-linecap:round;stroke-linejoin:round;" d="M225.374,445.813c0,0-0.3,1.75,0.361,2.375c1.19,0.875,12.729,1.313,15.374,0.25c0.199-1.625-0.064-2.625-0.064-2.625H225.374z"></path><path style="fill:#070709;stroke:#000000;stroke-linecap:round;stroke-linejoin:round;" d="M220.903,411.75c0,0,6.667,0.417,11.583,0.417s9.917-1,9.917-1l0.417-1.25c0,0,0.969,1.086,0.917,1.5c-0.131,1.038-0.275,7.083-0.609,10.583c-1.016,7.854-3.079,17.938-3.079,17.938s1.271,4.063,0.771,6.646c-1.833,0.667-13,0.437-15.271-0.334c-0.406-1.015-0.354-2.584-0.688-6c-1.675-3.203-4.938-25.979-5.375-28.333l1.083-1.833L220.903,411.75z"></path><g><g><g><path style="fill:#6E6E6E;" d="M229.752,413.281l5.75,4.125l0,0c0.225,0.161,0.537,0.109,0.698-0.115c0.161-0.224,0.109-0.536-0.115-0.697l0,0l-5.75-4.125l0,0c-0.225-0.161-0.537-0.109-0.698,0.115C229.477,412.808,229.528,413.12,229.752,413.281L229.752,413.281z"></path></g><g><path style="fill:#6E6E6E;" d="M235.502,412.469l-5.75,4.125l0,0c-0.224,0.161-0.276,0.474-0.115,0.697c0.161,0.225,0.473,0.276,0.698,0.115l0,0l5.75-4.125l0,0c0.224-0.161,0.276-0.474,0.115-0.697C236.039,412.359,235.727,412.308,235.502,412.469L235.502,412.469z"></path></g></g><g><g><path style="fill:#6E6E6E;" d="M229.752,418.031l5.75,4.125l0,0c0.225,0.161,0.537,0.109,0.698-0.115c0.161-0.224,0.109-0.536-0.115-0.697l0,0l-5.75-4.125l0,0c-0.225-0.161-0.537-0.109-0.698,0.115C229.477,417.558,229.528,417.87,229.752,418.031L229.752,418.031z"></path></g><g><path style="fill:#6E6E6E;" d="M235.502,417.219l-5.75,4.125l0,0c-0.224,0.161-0.276,0.474-0.115,0.697c0.161,0.225,0.473,0.276,0.698,0.115l0,0l5.75-4.125l0,0c0.224-0.161,0.276-0.474,0.115-0.697C236.039,417.109,235.727,417.058,235.502,417.219L235.502,417.219z"></path></g></g><g><g><path style="fill:#6E6E6E;" d="M229.752,422.781l5.75,4.125l0,0c0.225,0.161,0.537,0.109,0.698-0.115c0.161-0.224,0.109-0.536-0.115-0.697l0,0l-5.75-4.125l0,0c-0.225-0.161-0.537-0.109-0.698,0.115C229.477,422.308,229.528,422.62,229.752,422.781L229.752,422.781z"></path></g><g><path style="fill:#6E6E6E;" d="M235.502,421.969l-5.75,4.125l0,0c-0.224,0.161-0.276,0.474-0.115,0.697c0.161,0.225,0.473,0.276,0.698,0.115l0,0l5.75-4.125l0,0c0.224-0.161,0.276-0.474,0.115-0.697C236.039,421.859,235.727,421.808,235.502,421.969L235.502,421.969z"></path></g></g><g><g><path style="fill:#6E6E6E;" d="M229.752,427.531l5.75,4.125l0,0c0.225,0.161,0.537,0.109,0.698-0.115c0.161-0.224,0.109-0.536-0.115-0.697l0,0l-5.75-4.125l0,0c-0.225-0.161-0.537-0.109-0.698,0.115C229.477,427.058,229.528,427.37,229.752,427.531L229.752,427.531z"></path></g><g><path style="fill:#6E6E6E;" d="M235.502,426.719l-5.75,4.125l0,0c-0.224,0.161-0.276,0.474-0.115,0.697c0.161,0.225,0.473,0.276,0.698,0.115l0,0l5.75-4.125l0,0c0.224-0.161,0.276-0.474,0.115-0.697C236.039,426.609,235.727,426.558,235.502,426.719L235.502,426.719z"></path></g></g><g><g><path style="fill:#6E6E6E;" d="M229.752,432.281l5.75,4.125l0,0c0.225,0.161,0.537,0.109,0.698-0.115c0.161-0.224,0.109-0.536-0.115-0.697l0,0l-5.75-4.125l0,0c-0.225-0.161-0.537-0.109-0.698,0.115C229.477,431.808,229.528,432.12,229.752,432.281L229.752,432.281z"></path></g><g><path style="fill:#6E6E6E;" d="M235.502,431.469l-5.75,4.125l0,0c-0.224,0.161-0.276,0.474-0.115,0.697c0.161,0.225,0.473,0.276,0.698,0.115l0,0l5.75-4.125l0,0c0.224-0.161,0.276-0.474,0.115-0.697C236.039,431.359,235.727,431.308,235.502,431.469L235.502,431.469z"></path></g></g><g><g><path style="fill:#6E6E6E;" d="M229.752,437.031l5.75,4.125l0,0c0.225,0.161,0.537,0.109,0.698-0.115c0.161-0.224,0.109-0.536-0.115-0.697l0,0l-5.75-4.125l0,0c-0.225-0.161-0.537-0.109-0.698,0.115C229.477,436.558,229.528,436.87,229.752,437.031L229.752,437.031z"></path></g><g><path style="fill:#6E6E6E;" d="M235.502,436.219l-5.75,4.125l0,0c-0.224,0.161-0.276,0.474-0.115,0.697c0.161,0.225,0.473,0.276,0.698,0.115l0,0l5.75-4.125l0,0c0.224-0.161,0.276-0.474,0.115-0.697C236.039,436.109,235.727,436.058,235.502,436.219L235.502,436.219z"></path></g></g></g><path style="fill:none;stroke:#000000;stroke-linecap:round;stroke-linejoin:round;" d="M225.487,443.833c0,0,1-0.476,7.75-0.476s7.45,0.476,7.45,0.476"></path></g></g><g><g><path style="fill:#070709;stroke:#000000;stroke-linecap:round;stroke-linejoin:round;" d="M274.626,445.813c0,0,0.301,1.75-0.361,2.375c-1.189,0.875-12.729,1.313-15.373,0.25c-0.199-1.625,0.064-2.625,0.064-2.625H274.626z"></path><path style="fill:#070709;stroke:#000000;stroke-linecap:round;stroke-linejoin:round;" d="M279.097,411.75c0,0-6.666,0.417-11.583,0.417s-9.917-1-9.917-1l-0.416-1.25c0,0-0.969,1.086-0.917,1.5c0.131,1.038,0.275,7.083,0.608,10.583c1.017,7.854,3.079,17.938,3.079,17.938s-1.271,4.063-0.771,6.646c1.833,0.667,13,0.437,15.271-0.334c0.405-1.015,0.354-2.584,0.688-6c1.675-3.203,4.938-25.979,5.376-28.333l-1.084-1.833L279.097,411.75z"></path><g><g><g><path style="fill:#6E6E6E;" d="M270.247,413.281l-5.75,4.125l0,0c-0.225,0.161-0.536,0.109-0.697-0.115c-0.161-0.224-0.109-0.536,0.115-0.697l0,0l5.75-4.125l0,0c0.225-0.161,0.536-0.109,0.697,0.115C270.523,412.808,270.472,413.12,270.247,413.281L270.247,413.281z"></path></g><g><path style="fill:#6E6E6E;" d="M264.497,412.469l5.75,4.125l0,0c0.225,0.161,0.276,0.474,0.115,0.697c-0.161,0.225-0.473,0.276-0.697,0.115l0,0l-5.75-4.125l0,0c-0.225-0.161-0.276-0.474-0.115-0.697C263.961,412.359,264.272,412.308,264.497,412.469L264.497,412.469z"></path></g></g><g><g><path style="fill:#6E6E6E;" d="M270.247,418.031l-5.75,4.125l0,0c-0.225,0.161-0.536,0.109-0.697-0.115c-0.161-0.224-0.109-0.536,0.115-0.697l0,0l5.75-4.125l0,0c0.225-0.161,0.536-0.109,0.697,0.115C270.523,417.558,270.472,417.87,270.247,418.031L270.247,418.031z"></path></g><g><path style="fill:#6E6E6E;" d="M264.497,417.219l5.75,4.125l0,0c0.225,0.161,0.276,0.474,0.115,0.697c-0.161,0.225-0.473,0.276-0.697,0.115l0,0l-5.75-4.125l0,0c-0.225-0.161-0.276-0.474-0.115-0.697C263.961,417.109,264.272,417.058,264.497,417.219L264.497,417.219z"></path></g></g><g><g><path style="fill:#6E6E6E;" d="M270.247,422.781l-5.75,4.125l0,0c-0.225,0.161-0.536,0.109-0.697-0.115c-0.161-0.224-0.109-0.536,0.115-0.697l0,0l5.75-4.125l0,0c0.225-0.161,0.536-0.109,0.697,0.115C270.523,422.308,270.472,422.62,270.247,422.781L270.247,422.781z"></path></g><g><path style="fill:#6E6E6E;" d="M264.497,421.969l5.75,4.125l0,0c0.225,0.161,0.276,0.474,0.115,0.697c-0.161,0.225-0.473,0.276-0.697,0.115l0,0l-5.75-4.125l0,0c-0.225-0.161-0.276-0.474-0.115-0.697C263.961,421.859,264.272,421.808,264.497,421.969L264.497,421.969z"></path></g></g><g><g><path style="fill:#6E6E6E;" d="M270.247,427.531l-5.75,4.125l0,0c-0.225,0.161-0.536,0.109-0.697-0.115c-0.161-0.224-0.109-0.536,0.115-0.697l0,0l5.75-4.125l0,0c0.225-0.161,0.536-0.109,0.697,0.115C270.523,427.058,270.472,427.37,270.247,427.531L270.247,427.531z"></path></g><g><path style="fill:#6E6E6E;" d="M264.497,426.719l5.75,4.125l0,0c0.225,0.161,0.276,0.474,0.115,0.697c-0.161,0.225-0.473,0.276-0.697,0.115l0,0l-5.75-4.125l0,0c-0.225-0.161-0.276-0.474-0.115-0.697C263.961,426.609,264.272,426.558,264.497,426.719L264.497,426.719z"></path></g></g><g><g><path style="fill:#6E6E6E;" d="M270.247,432.281l-5.75,4.125l0,0c-0.225,0.161-0.536,0.109-0.697-0.115c-0.161-0.224-0.109-0.536,0.115-0.697l0,0l5.75-4.125l0,0c0.225-0.161,0.536-0.109,0.697,0.115C270.523,431.808,270.472,432.12,270.247,432.281L270.247,432.281z"></path></g><g><path style="fill:#6E6E6E;" d="M264.497,431.469l5.75,4.125l0,0c0.225,0.161,0.276,0.474,0.115,0.697c-0.161,0.225-0.473,0.276-0.697,0.115l0,0l-5.75-4.125l0,0c-0.225-0.161-0.276-0.474-0.115-0.697C263.961,431.359,264.272,431.308,264.497,431.469L264.497,431.469z"></path></g></g><g><g><path style="fill:#6E6E6E;" d="M270.247,437.031l-5.75,4.125l0,0c-0.225,0.161-0.536,0.109-0.697-0.115c-0.161-0.224-0.109-0.536,0.115-0.697l0,0l5.75-4.125l0,0c0.225-0.161,0.536-0.109,0.697,0.115C270.523,436.558,270.472,436.87,270.247,437.031L270.247,437.031z"></path></g><g><path style="fill:#6E6E6E;" d="M264.497,436.219l5.75,4.125l0,0c0.225,0.161,0.276,0.474,0.115,0.697c-0.161,0.225-0.473,0.276-0.697,0.115l0,0l-5.75-4.125l0,0c-0.225-0.161-0.276-0.474-0.115-0.697C263.961,436.109,264.272,436.058,264.497,436.219L264.497,436.219z"></path></g></g></g><path style="fill:none;stroke:#000000;stroke-linecap:round;stroke-linejoin:round;" d="M274.513,443.833c0,0-1-0.476-7.75-0.476s-7.449,0.476-7.449,0.476"></path></g></g></g></g></svg>