<svg xmlns="http://www.w3.org/2000/svg" width="500" height="500" version="1.1"><g id="a9072"><g><g><path style="fill:#27262B;stroke:#000000;stroke-linecap:round;stroke-linejoin:round;" d="M223.042,427.75c0,0-2,1.75-2.5,2.75c-0.125,1.125,0.125,2,0.125,2s2.625-0.75,2.75-1.25C223.417,429.125,223.042,427.75,223.042,427.75z"></path><g><g><path style="fill:#27262B;stroke:#000000;stroke-linecap:round;stroke-linejoin:round;" d="M240.667,444.125c0,0,0.375-4-0.5-7.25c0,0-2.875-1.875-7.5-2.125s-7.875,3-7.875,3s-1.5,2.75-1.75,5.875c0.036,0.289,0.081,0.583,0.13,0.875c0,0,1.495,1.5,8.62,1.5s8.844-1.5,8.844-1.5C240.666,444.251,240.667,444.125,240.667,444.125z"></path><path style="fill:none;stroke:#000000;stroke-linecap:round;stroke-linejoin:round;" d="M240.417,439.917c0,0-2.667,0.916-8.584,0.916c-5.916,0-8.083-1.25-8.083-1.25"></path><path style="fill:#6E6E6E;stroke:#000000;stroke-linecap:round;stroke-linejoin:round;" d="M231.542,445.375c-6.125,0-8.37-0.875-8.37-0.875c0.289,1.728,0.745,3.375,0.745,3.375s10,1.375,16-0.25c0.496-1.653,0.662-2.639,0.719-3.125C240.636,444.5,237.667,445.375,231.542,445.375z"></path><path style="fill:#27262B;stroke:#000000;stroke-linecap:round;stroke-linejoin:round;" d="M227.902,419.451c0,0-2.167,0.584-3.084,1.917c2.084,4,4,6.667,3.917,6.25S227.902,419.451,227.902,419.451z"></path><g><path style="fill:#27262B;stroke:#000000;stroke-linecap:round;stroke-linejoin:round;" d="M228.667,435.833c0,0-0.573-5.891-0.683-11.132c-0.75-2.75-1.624-5.713-1.583-5.917c2.416-2.166,8.682-1.909,11.182-0.534c-0.625,4.5-0.314,18.4-0.314,18.4"></path><g><path style="fill:none;stroke:#000000;stroke-linecap:round;stroke-linejoin:round;" d="M235.167,421.083c0,0-3.5-0.416-7.25-0.083"></path><path style="fill:none;stroke:#000000;stroke-linecap:round;stroke-linejoin:round;" d="M235.25,424.5c0,0-3.5-0.416-7.25-0.083"></path></g></g><path style="fill:#27262B;stroke:#000000;stroke-linecap:round;stroke-linejoin:round;" d="M226.985,425.618c-1.375-3.25-2.417-6.042-2.417-6.042s-4.275,1.799-4.9,3.424c1.25,2.125,3.375,4.75,3.375,4.75l1.5,10.375c0,0,1.641-1.16,4.375-2.375C229.183,435.382,226.985,425.618,226.985,425.618z"></path><path style="fill:#27262B;stroke:#000000;stroke-linecap:round;stroke-linejoin:round;" d="M222.25,422.75c0,0-1.25,1.917-1.25,2.25s-0.5,11.75-0.5,11.75c-0.417-0.083-1.25-0.583-1.25-0.583s0.083-12.333,0.167-13c0.666-0.917,1.333-1.5,1.333-1.5"></path><path style="fill:#27262B;stroke:#000000;stroke-linecap:round;stroke-linejoin:round;" d="M235.833,418.833c0.375,0,4.751,0,8.167,2.084c-0.417,3.084-2.333,12.458-2.333,12.833s0.5,2.625,0.5,2.625l-2.084,2.708c0,0-1.416-2.916-6-3.5C234.083,435.208,235.833,418.833,235.833,418.833z"></path></g><g><g><path style="fill:#27262B;stroke:#000000;stroke-linecap:round;stroke-linejoin:round;" d="M238.167,422.583c0,0-0.334,3.333-0.334,3.917c1.25,0.5,6.417,2.333,7.334,3c1.083-1,1.083-4,1.083-4S243.167,423.416,238.167,422.583z"></path><path style="fill:#80858A;stroke:#000000;" d="M239.25,422.666c0,0,0.001,3.999-0.416,4.333s-1.334-0.166-1.334-0.166s0-4.418,0.25-4.584S239,422.416,239.25,422.666z"></path></g><g><path style="fill:#27262B;stroke:#000000;stroke-linecap:round;stroke-linejoin:round;" d="M237.5,428.75c0,0-0.333,3.333-0.333,3.917c1.25,0.5,6.417,2.333,7.333,3c1.084-1,1.084-4,1.084-4S242.5,429.583,237.5,428.75z"></path><path style="fill:#80858A;stroke:#000000;" d="M238.584,428.833c0,0,0,3.999-0.417,4.333S236.834,433,236.834,433s0-4.418,0.25-4.584S238.334,428.583,238.584,428.833z"></path></g></g></g><g><path style="fill:none;stroke:#3D444E;stroke-linecap:round;stroke-linejoin:round;" d="M235.668,427.306c0,0-4.287-1.041-7.848,0.12"></path><path style="fill:none;stroke:#3D444E;stroke-linecap:round;stroke-linejoin:round;" d="M235.668,435.056c0,0-4.287-1.041-7.848,0.12"></path><g><path style="fill:none;stroke:#3D444E;stroke-linecap:round;stroke-linejoin:round;" d="M235.417,430.78c0,0-5.833-2.167-7.917-2.917"></path><path style="fill:none;stroke:#3D444E;stroke-linecap:round;stroke-linejoin:round;" d="M227.501,430.78c0,0,5.833-2.167,7.916-2.917"></path></g><g><path style="fill:none;stroke:#3D444E;stroke-linecap:round;stroke-linejoin:round;" d="M235.417,434.03c0,0-5.833-2.167-7.917-2.917"></path><path style="fill:none;stroke:#3D444E;stroke-linecap:round;stroke-linejoin:round;" d="M227.501,434.03c0,0,5.833-2.167,7.916-2.917"></path></g></g></g><g><path style="fill:#27262B;stroke:#000000;stroke-linecap:round;stroke-linejoin:round;" d="M276.959,427.75c0,0,2,1.75,2.5,2.75c0.125,1.125-0.125,2-0.125,2s-2.625-0.75-2.75-1.25C276.584,429.125,276.959,427.75,276.959,427.75z"></path><g><g><path style="fill:#27262B;stroke:#000000;stroke-linecap:round;stroke-linejoin:round;" d="M259.334,444.125c0,0-0.375-4,0.5-7.25c0,0,2.875-1.875,7.5-2.125s7.875,3,7.875,3s1.5,2.75,1.75,5.875c-0.037,0.289-0.082,0.583-0.131,0.875c0,0-1.494,1.5-8.619,1.5s-8.844-1.5-8.844-1.5C259.336,444.251,259.334,444.125,259.334,444.125z"></path><path style="fill:none;stroke:#000000;stroke-linecap:round;stroke-linejoin:round;" d="M259.584,439.917c0,0,2.666,0.916,8.584,0.916c5.916,0,8.082-1.25,8.082-1.25"></path><path style="fill:#6E6E6E;stroke:#000000;stroke-linecap:round;stroke-linejoin:round;" d="M268.459,445.375c6.125,0,8.369-0.875,8.369-0.875c-0.289,1.728-0.744,3.375-0.744,3.375s-10,1.375-16-0.25c-0.496-1.653-0.662-2.639-0.719-3.125C259.365,444.5,262.334,445.375,268.459,445.375z"></path><path style="fill:#27262B;stroke:#000000;stroke-linecap:round;stroke-linejoin:round;" d="M272.1,419.451c0,0,2.166,0.584,3.084,1.917c-2.084,4-4,6.667-3.918,6.25C271.35,427.201,272.1,419.451,272.1,419.451z"></path><g><path style="fill:#27262B;stroke:#000000;stroke-linecap:round;stroke-linejoin:round;" d="M271.334,435.833c0,0,0.572-5.891,0.682-11.132c0.75-2.75,1.625-5.713,1.584-5.917c-2.416-2.166-8.682-1.909-11.182-0.534c0.625,4.5,0.314,18.4,0.314,18.4"></path><g><path style="fill:none;stroke:#000000;stroke-linecap:round;stroke-linejoin:round;" d="M264.834,421.083c0,0,3.5-0.416,7.25-0.083"></path><path style="fill:none;stroke:#000000;stroke-linecap:round;stroke-linejoin:round;" d="M264.75,424.5c0,0,3.5-0.416,7.25-0.083"></path></g></g><path style="fill:#27262B;stroke:#000000;stroke-linecap:round;stroke-linejoin:round;" d="M273.016,425.618c1.375-3.25,2.418-6.042,2.418-6.042s4.275,1.799,4.9,3.424c-1.25,2.125-3.375,4.75-3.375,4.75l-1.5,10.375c0,0-1.641-1.16-4.375-2.375C270.818,435.382,273.016,425.618,273.016,425.618z"></path><path style="fill:#27262B;stroke:#000000;stroke-linecap:round;stroke-linejoin:round;" d="M277.75,422.75c0,0,1.25,1.917,1.25,2.25s0.5,11.75,0.5,11.75c0.418-0.083,1.25-0.583,1.25-0.583s-0.082-12.333-0.166-13c-0.666-0.917-1.334-1.5-1.334-1.5"></path><path style="fill:#27262B;stroke:#000000;stroke-linecap:round;stroke-linejoin:round;" d="M264.168,418.833c-0.375,0-4.752,0-8.168,2.084c0.418,3.084,2.334,12.458,2.334,12.833s-0.5,2.625-0.5,2.625l2.084,2.708c0,0,1.416-2.916,6-3.5C265.918,435.208,264.168,418.833,264.168,418.833z"></path></g><g><g><path style="fill:#27262B;stroke:#000000;stroke-linecap:round;stroke-linejoin:round;" d="M261.834,422.583c0,0,0.334,3.333,0.334,3.917c-1.25,0.5-6.418,2.333-7.334,3c-1.084-1-1.084-4-1.084-4S256.834,423.416,261.834,422.583z"></path><path style="fill:#80858A;stroke:#000000;" d="M260.75,422.666c0,0,0,3.999,0.416,4.333c0.418,0.334,1.334-0.166,1.334-0.166s0-4.418-0.25-4.584S261,422.416,260.75,422.666z"></path></g><g><path style="fill:#27262B;stroke:#000000;stroke-linecap:round;stroke-linejoin:round;" d="M262.5,428.75c0,0,0.334,3.333,0.334,3.917c-1.25,0.5-6.418,2.333-7.334,3c-1.084-1-1.084-4-1.084-4S257.5,429.583,262.5,428.75z"></path><path style="fill:#80858A;stroke:#000000;" d="M261.416,428.833c0,0,0,3.999,0.418,4.333c0.416,0.334,1.332-0.166,1.332-0.166s0-4.418-0.25-4.584S261.666,428.583,261.416,428.833z"></path></g></g></g><g><path style="fill:none;stroke:#3D444E;stroke-linecap:round;stroke-linejoin:round;" d="M264.332,427.306c0,0,4.287-1.041,7.848,0.12"></path><path style="fill:none;stroke:#3D444E;stroke-linecap:round;stroke-linejoin:round;" d="M264.332,435.056c0,0,4.287-1.041,7.848,0.12"></path><g><path style="fill:none;stroke:#3D444E;stroke-linecap:round;stroke-linejoin:round;" d="M264.584,430.78c0,0,5.832-2.167,7.916-2.917"></path><path style="fill:none;stroke:#3D444E;stroke-linecap:round;stroke-linejoin:round;" d="M272.5,430.78c0,0-5.834-2.167-7.916-2.917"></path></g><g><path style="fill:none;stroke:#3D444E;stroke-linecap:round;stroke-linejoin:round;" d="M264.584,434.03c0,0,5.832-2.167,7.916-2.917"></path><path style="fill:none;stroke:#3D444E;stroke-linecap:round;stroke-linejoin:round;" d="M272.5,434.03c0,0-5.834-2.167-7.916-2.917"></path></g></g></g></g></g></svg>