<svg xmlns="http://www.w3.org/2000/svg" width="500" height="500" version="1.1"><g id="x9073"><g><g><g><path style="fill:#FFFFFF;stroke:#000000;stroke-linecap:round;stroke-linejoin:round;" d="M239.155,439.65c0,0,0.323-1.92,0.768-4.65l-7.022-4l-8.801,4c0.913,4.526,1.615,7.55,1.615,7.55s0.336,2.33,0.829,3.95h13.609C240.391,443.607,239.155,439.65,239.155,439.65z"></path><polygon style="fill:#E4E0F3;" points="225.025,437 225.9,440.625 232.775,436.375 238.525,439.375 239.275,436.25 232.65,431.5 "></polygon><path style="fill:none;stroke:#000000;stroke-linecap:round;stroke-linejoin:round;" d="M232.9,437.5c0,0,1.875,5.875,1.5,8.875"></path><g><polygon style="fill:#2B2B2B;stroke:#000000;stroke-linecap:round;stroke-linejoin:round;" points="229.275,438.75 234.525,433.125 235.65,434.125 230.65,440 "></polygon><polygon style="fill:#2B2B2B;stroke:#000000;stroke-linecap:round;stroke-linejoin:round;" points="236.65,438.75 231.4,433.125 230.275,434.125 235.275,440 "></polygon></g><path style="fill:#2B2B2B;stroke:#000000;stroke-linecap:round;stroke-linejoin:round;" d="M226.544,446.5c0.239,0.789,0.517,1.411,0.812,1.51c0.899,0.3,12.33,0.681,12.63-0.45c0.086-0.327,0.138-0.686,0.168-1.06H226.544z"></path></g><g><path style="fill:#FFFFFF;stroke:#000000;stroke-linecap:round;stroke-linejoin:round;" d="M222.4,424.625l-1.125,2.25c0,0-0.375,13.375-0.75,14.125c4-2.125,12.375-8.375,12.375-8.375s8.875,7,10.5,7c-1.5-5-1.125-13.5-1.125-13.5l-0.875-1.875l-0.875,1.375c0,0-2.625,1.125-8.625,1.125s-8.75-1-8.75-1L222.4,424.625z"></path><g><polygon style="fill:#6E6E6E;" points="221.275,437.125 232.601,430.299 232.525,428.125 221.45,434.352 "></polygon><polygon style="fill:#6E6E6E;" points="232.775,430.125 242.15,436 241.95,433 232.525,427.902 "></polygon></g><line style="fill:none;stroke:#000000;stroke-linecap:round;stroke-linejoin:round;" x1="232.525" y1="427" x2="232.775" y2="432.75"></line></g></g><g><g><path style="fill:#FFFFFF;stroke:#000000;stroke-linecap:round;stroke-linejoin:round;" d="M260.845,439.65c0,0-0.323-1.92-0.769-4.65l7.023-4l8.801,4c-0.913,4.526-1.615,7.55-1.615,7.55s-0.336,2.33-0.829,3.95h-13.61C259.609,443.607,260.845,439.65,260.845,439.65z"></path><polygon style="fill:#E4E0F3;" points="274.975,437 274.1,440.625 267.225,436.375 261.475,439.375 260.725,436.25 267.35,431.5 "></polygon><path style="fill:none;stroke:#000000;stroke-linecap:round;stroke-linejoin:round;" d="M267.1,437.5c0,0-1.875,5.875-1.5,8.875"></path><g><polygon style="fill:#2B2B2B;stroke:#000000;stroke-linecap:round;stroke-linejoin:round;" points="270.725,438.75 265.475,433.125 264.35,434.125 269.35,440 "></polygon><polygon style="fill:#2B2B2B;stroke:#000000;stroke-linecap:round;stroke-linejoin:round;" points="263.35,438.75 268.6,433.125 269.725,434.125 264.725,440 "></polygon></g><path style="fill:#2B2B2B;stroke:#000000;stroke-linecap:round;stroke-linejoin:round;" d="M273.456,446.5c-0.239,0.789-0.517,1.411-0.812,1.51c-0.9,0.3-12.33,0.681-12.63-0.45c-0.086-0.327-0.138-0.686-0.169-1.06H273.456z"></path></g><g><path style="fill:#FFFFFF;stroke:#000000;stroke-linecap:round;stroke-linejoin:round;" d="M277.6,424.625l1.125,2.25c0,0,0.375,13.375,0.75,14.125c-4-2.125-12.375-8.375-12.375-8.375s-8.875,7-10.5,7c1.5-5,1.125-13.5,1.125-13.5l0.875-1.875l0.875,1.375c0,0,2.625,1.125,8.625,1.125s8.75-1,8.75-1L277.6,424.625z"></path><g><polygon style="fill:#6E6E6E;" points="278.725,437.125 267.399,430.299 267.475,428.125 278.55,434.352 "></polygon><polygon style="fill:#6E6E6E;" points="267.225,430.125 257.85,436 258.049,433 267.475,427.902 "></polygon></g><line style="fill:none;stroke:#000000;stroke-linecap:round;stroke-linejoin:round;" x1="267.475" y1="427" x2="267.225" y2="432.75"></line></g></g></g></g></svg>