<svg xmlns="http://www.w3.org/2000/svg" width="500" height="500" version="1.1"><g id="x9074"><g><g><path style="fill:#6E6E6E;stroke:#000000;stroke-linecap:round;stroke-linejoin:round;" d="M226.27,447.542l0.417,2.458c0,0,6.375,2.208,13.708-0.166l0.458-1.917L226.27,447.542z"></path><path style="fill:#6E6E6E;stroke:#000000;stroke-linecap:round;stroke-linejoin:round;" d="M242.728,418.417c0,0-2.708,19.708-2.708,20.583s2.25,6.375,1,9.125c-2.5,2.25-14.375,1.625-14.875-0.375c-1-2.688-1.375-8.5-1.375-8.5s-3.5-17.938-3.5-20.813C221.27,418.438,231.478,420.042,242.728,418.417z"></path><g><g><line style="fill:none;stroke:#000000;stroke-linecap:round;stroke-linejoin:round;" x1="231.153" y1="430.146" x2="234.77" y2="432.335"></line><line style="fill:none;stroke:#000000;stroke-linecap:round;stroke-linejoin:round;" x1="231.29" y1="432.459" x2="234.77" y2="430.043"></line></g><g><line style="fill:none;stroke:#000000;stroke-linecap:round;stroke-linejoin:round;" x1="231.195" y1="434.438" x2="234.811" y2="436.627"></line><line style="fill:none;stroke:#000000;stroke-linecap:round;stroke-linejoin:round;" x1="234.811" y1="434.335" x2="231.331" y2="436.751"></line></g><g><line style="fill:none;stroke:#000000;stroke-linecap:round;stroke-linejoin:round;" x1="231.361" y1="438.647" x2="234.978" y2="440.836"></line><line style="fill:none;stroke:#000000;stroke-linecap:round;stroke-linejoin:round;" x1="231.498" y1="440.96" x2="234.978" y2="438.544"></line></g><g><line style="fill:none;stroke:#000000;stroke-linecap:round;stroke-linejoin:round;" x1="230.903" y1="421.646" x2="234.52" y2="423.835"></line><line style="fill:none;stroke:#000000;stroke-linecap:round;stroke-linejoin:round;" x1="231.04" y1="423.959" x2="234.52" y2="421.543"></line></g><g><line style="fill:none;stroke:#000000;stroke-linecap:round;stroke-linejoin:round;" x1="230.986" y1="425.813" x2="234.602" y2="428.001"></line><line style="fill:none;stroke:#000000;stroke-linecap:round;stroke-linejoin:round;" x1="231.122" y1="428.125" x2="234.602" y2="425.709"></line></g></g><path style="fill:none;stroke:#000000;stroke-linecap:round;stroke-linejoin:round;" d="M226.228,446.375c0,0,4.458-3.833,7.5-3.792c2.417,0.125,6.958,2.126,7.417,3.042"></path></g><g><path style="fill:#6E6E6E;stroke:#000000;stroke-linecap:round;stroke-linejoin:round;" d="M273.729,447.542L273.313,450c0,0-6.376,2.208-13.709-0.166l-0.458-1.917L273.729,447.542z"></path><path style="fill:#6E6E6E;stroke:#000000;stroke-linecap:round;stroke-linejoin:round;" d="M257.271,418.417c0,0,2.708,19.708,2.708,20.583s-2.25,6.375-1,9.125c2.5,2.25,14.375,1.625,14.875-0.375c1-2.688,1.375-8.5,1.375-8.5s3.501-17.938,3.501-20.813C278.73,418.438,268.521,420.042,257.271,418.417z"></path><g><g><line style="fill:none;stroke:#000000;stroke-linecap:round;stroke-linejoin:round;" x1="268.846" y1="430.146" x2="265.229" y2="432.335"></line><line style="fill:none;stroke:#000000;stroke-linecap:round;stroke-linejoin:round;" x1="268.71" y1="432.459" x2="265.229" y2="430.043"></line></g><g><line style="fill:none;stroke:#000000;stroke-linecap:round;stroke-linejoin:round;" x1="268.805" y1="434.438" x2="265.188" y2="436.627"></line><line style="fill:none;stroke:#000000;stroke-linecap:round;stroke-linejoin:round;" x1="268.668" y1="436.751" x2="265.188" y2="434.335"></line></g><g><line style="fill:none;stroke:#000000;stroke-linecap:round;stroke-linejoin:round;" x1="268.638" y1="438.647" x2="265.021" y2="440.836"></line><line style="fill:none;stroke:#000000;stroke-linecap:round;stroke-linejoin:round;" x1="268.502" y1="440.96" x2="265.021" y2="438.544"></line></g><g><line style="fill:none;stroke:#000000;stroke-linecap:round;stroke-linejoin:round;" x1="269.096" y1="421.646" x2="265.479" y2="423.835"></line><line style="fill:none;stroke:#000000;stroke-linecap:round;stroke-linejoin:round;" x1="268.96" y1="423.959" x2="265.479" y2="421.543"></line></g><g><line style="fill:none;stroke:#000000;stroke-linecap:round;stroke-linejoin:round;" x1="269.014" y1="425.813" x2="265.397" y2="428.001"></line><line style="fill:none;stroke:#000000;stroke-linecap:round;stroke-linejoin:round;" x1="268.877" y1="428.125" x2="265.397" y2="425.709"></line></g></g><path style="fill:none;stroke:#000000;stroke-linecap:round;stroke-linejoin:round;" d="M273.771,446.375c0,0-4.458-3.833-7.5-3.792c-2.417,0.125-6.958,2.126-7.417,3.042"></path></g></g></g></svg>