<svg xmlns="http://www.w3.org/2000/svg" width="500" height="500" version="1.1"><g id="x9075"><g><g><path style="fill:#6E6E6E;stroke:#000000;stroke-linecap:round;stroke-linejoin:round;" d="M224.496,446.5c0.073,0.562,0.216,1.074,0.464,1.51c0.902,0.3,15.201,0.685,15.5-0.451c0.086-0.327,0.13-0.685,0.148-1.059H224.496z"></path><path style="fill:#6E6E6E;stroke:#000000;stroke-linecap:round;stroke-linejoin:round;" d="M239.091,439.646c0,0,0.06-0.357,0.164-0.979h-14.463c0.418,1.967-0.617,5.371-0.296,7.833h16.112C240.749,443.609,239.091,439.646,239.091,439.646z"></path><path style="fill:#6E6E6E;stroke:#000000;stroke-linecap:round;stroke-linejoin:round;" d="M227.147,443c0,0,1.313-4.438,2.063-5s3.99-0.363,4.5,0.063c1.125,0.938,2,3.938,2.375,4.688"></path><path style="fill:none;stroke:#000000;stroke-linecap:round;stroke-linejoin:round;" d="M224.793,442.833l2,1c1-2.666,1.854-5.083,1.854-5.083"></path><path style="fill:none;stroke:#000000;stroke-linecap:round;stroke-linejoin:round;" d="M234.397,439.125c0,0,2.229,4.541,2.229,5.208c2.167-0.166,3.5-1.666,3.5-1.666"></path></g><g><path style="fill:#6E6E6E;stroke:#000000;stroke-linecap:round;stroke-linejoin:round;" d="M275.502,446.5c-0.074,0.562-0.217,1.074-0.465,1.51c-0.902,0.3-15.201,0.685-15.5-0.451c-0.086-0.327-0.131-0.685-0.148-1.059H275.502z"></path><path style="fill:#6E6E6E;stroke:#000000;stroke-linecap:round;stroke-linejoin:round;" d="M260.906,439.646c0,0-0.061-0.357-0.164-0.979h14.463c-0.418,1.967,0.617,5.371,0.297,7.833h-16.113C259.248,443.609,260.906,439.646,260.906,439.646z"></path><path style="fill:#6E6E6E;stroke:#000000;stroke-linecap:round;stroke-linejoin:round;" d="M272.85,443c0,0-1.313-4.438-2.063-5s-3.99-0.363-4.5,0.063c-1.125,0.938-2,3.938-2.375,4.688"></path><path style="fill:none;stroke:#000000;stroke-linecap:round;stroke-linejoin:round;" d="M275.203,442.833l-2,1c-1-2.666-1.854-5.083-1.854-5.083"></path><path style="fill:none;stroke:#000000;stroke-linecap:round;stroke-linejoin:round;" d="M265.6,439.125c0,0-2.229,4.541-2.229,5.208c-2.168-0.166-3.5-1.666-3.5-1.666"></path></g></g></g></svg>