<svg xmlns="http://www.w3.org/2000/svg" width="500" height="500" version="1.1"><g id="x9076"><g><g><path style="fill:#6E6E6E;stroke:#000000;stroke-linecap:round;stroke-linejoin:round;" d="M219.949,403.922c0.025,14.076,5.728,38.63,5.728,38.63s0.744,5.157,1.646,5.458c0.902,0.3,12.326,0.685,12.625-0.451c0.751-2.855-0.825-7.912-0.825-7.912s2.545-15.104,3.164-20.971c0.854-8.1,0.442-16.269,0.442-16.269s0.03-4.918,0.087-9.408h-23.683C219.633,398.638,220.071,403.863,219.949,403.922z"></path><path style="fill:#505050;" d="M220.324,399.833c0,0,5.166,1.5,11.166,1.5s10.667-1.666,10.667-1.666v-2.834l-22.167-0.166L220.324,399.833z"></path><polyline style="fill:none;stroke:#000000;stroke-linecap:round;stroke-linejoin:round;" points="231.99,399 233.824,440 234.824,447.666 "></polyline><g><path style="fill:#6E6E6E;stroke:#000000;stroke-linecap:round;stroke-linejoin:round;" d="M218.324,390.333c0,0,0.34,6.168,0.851,7.334c6.461,1.333,23.805,0.166,23.805,0.166c0.681-2.5,0.511-7.666,0.511-7.666s-6.121,0.666-13.093,0.666C221.215,390.833,218.324,390.333,218.324,390.333z"></path><path d="M231.324,395.5c6.936,0,11.109-0.512,12.092-0.646l-0.035-2.007c-0.015,0.002-0.028-0.004-0.042-0.002c-0.044,0.007-4.367,0.655-12.015,0.655c-7.698,0-12.215-0.327-12.26-0.33c-0.167-0.013-0.32,0.027-0.464,0.089l0.287,1.897c0.011,0.001,0.019,0.007,0.029,0.008C218.962,395.168,223.544,395.5,231.324,395.5z"></path></g></g><g><path style="fill:#6E6E6E;stroke:#000000;stroke-linecap:round;stroke-linejoin:round;" d="M280.051,403.922c-0.025,14.076-5.729,38.63-5.729,38.63s-0.744,5.157-1.645,5.458c-0.902,0.3-12.326,0.685-12.625-0.451c-0.752-2.855,0.824-7.912,0.824-7.912s-2.545-15.104-3.164-20.971c-0.854-8.1-0.441-16.269-0.441-16.269s-0.03-4.918-0.087-9.408h23.683C280.367,398.638,279.928,403.863,280.051,403.922z"></path><path style="fill:#505050;" d="M279.676,399.833c0,0-5.166,1.5-11.166,1.5s-10.667-1.666-10.667-1.666v-2.834l22.167-0.166L279.676,399.833z"></path><polyline style="fill:none;stroke:#000000;stroke-linecap:round;stroke-linejoin:round;" points="268.01,399 266.176,440 265.176,447.666 "></polyline><g><path style="fill:#322E3C;stroke:#000000;stroke-linecap:round;stroke-linejoin:round;" d="M281.676,390.333c0,0-0.34,6.168-0.851,7.334c-6.461,1.333-23.806,0.166-23.806,0.166c-0.68-2.5-0.51-7.666-0.51-7.666s6.121,0.666,13.093,0.666C278.785,390.833,281.676,390.333,281.676,390.333z"></path></g><g><g><g><path style="fill:#322E3C;stroke:#000000;stroke-linecap:round;stroke-linejoin:round;" d="M280.833,403.643c0,0-0.326,5.305-0.816,6.308c-6.199,1.146-22.842,0.144-22.842,0.144c-0.653-2.15-0.489-6.594-0.489-6.594s5.873,0.573,12.563,0.573C278.06,404.073,280.833,403.643,280.833,403.643z"></path></g><g><circle style="fill:#DCDCDC;stroke:#000000;stroke-linecap:round;stroke-linejoin:round;" cx="259.75" cy="406.814" r="0.75"></circle><circle style="fill:#DCDCDC;stroke:#000000;stroke-linecap:round;stroke-linejoin:round;" cx="265.85" cy="406.914" r="0.75"></circle></g></g><g><g><path style="fill:#DCDCDC;stroke:#000000;stroke-linecap:round;stroke-linejoin:round;" d="M277.326,403.574c-0.5-0.25-5.502-0.525-5.752,0.225s-0.449,6.701-0.199,6.951s5.5,0.25,5.75-0.125C277.375,409.5,277.826,403.824,277.326,403.574z M275.676,409.1c-0.117,0.212-2.568,0.212-2.686,0.07c-0.116-0.141-0.023-3.504,0.093-3.928c0.117-0.424,2.453-0.268,2.687-0.127C276.003,405.257,275.793,408.464,275.676,409.1z"></path><path style="fill:#DCDCDC;stroke:#000000;stroke-linecap:round;stroke-linejoin:round;" d="M278.375,407.063c0,0.449-0.363,0.813-0.813,0.813h-1.875c-0.449,0-0.813-0.363-0.813-0.813l0,0c0-0.449,0.363-0.813,0.813-0.813h1.875C278.012,406.25,278.375,406.613,278.375,407.063L278.375,407.063z"></path></g><path style="fill:#DCDCDC;stroke:#000000;stroke-linecap:round;stroke-linejoin:round;" d="M271.531,407.625c0,0-1.656-1.625-1.531-4c2.375,0.5,3.063,2.75,3.063,2.75s1.063-2.25,2.313-2.5c-0.5,3-1.063,3.531-1.063,3.531s0.969,1.875,0.719,2.625c-1.125-0.25-2.094-1.313-2.094-1.313s-1.125,1.375-2,1.5C270.563,409.219,271.531,407.625,271.531,407.625z"></path></g></g></g></g></g></svg>