<svg xmlns="http://www.w3.org/2000/svg" width="500" height="500" version="1.1"><g id="x9077"><g><g><g><path style="fill:#6E6E6E;stroke:#000000;stroke-linecap:round;stroke-linejoin:round;" d="M239.081,439.646c0,0,2.545-15.104,3.164-20.971c0.241-2.283,0.779-8.565,0.856-10.676h-23.226c1.259,12.708,5.172,31.969,5.691,34.25c0,0,2.383-1.25,7.383-1.25s6.769,1.25,6.769,1.25C239.428,440.768,239.081,439.646,239.081,439.646z"></path><path style="fill:#6E6E6E;stroke:#000000;stroke-linecap:round;stroke-linejoin:round;" d="M223.199,429.25c0,0-0.75,3-1,5c1.5,2.75,3,5,3,5s4.75-2.5,7.5-2.5s6.5,2,6.5,2s2.25-3,2.5-4.25c-1.25-2-1.25-4.5-1.25-4.5s2.25-1.75,2-2.5s-1.25-5-1.25-5"></path><path style="fill:#505050;" d="M222.616,433.917c0,0,0.5-3.166,0.833-3.916c1.083-0.75,6.667,1.25,6.833,1.5C229.449,432.417,222.616,433.917,222.616,433.917z"></path><path style="fill:#505050;" d="M239.533,422.751c0,0-9.417,2.417-9.667,3.5s8.167,2.417,9.167,2.75s3.083-1,3.083-1L239.533,422.751z"></path><g><path style="fill:none;stroke:#000000;stroke-linecap:round;stroke-linejoin:round;" d="M230.449,426.75c0,0,3.25,1.5,7.25,2.25"></path><path style="fill:none;stroke:#000000;stroke-linecap:round;stroke-linejoin:round;" d="M233.199,424.5c0,0,3.25-1.5,6.5-2.25"></path></g><path style="fill:#6E6E6E;stroke:#000000;stroke-linecap:round;stroke-linejoin:round;" d="M226.548,447c0.222,0.666,0.471,1.172,0.733,1.26c0.902,0.3,12.326,0.685,12.625-0.451c0.066-0.253,0.109-0.526,0.142-0.809H226.548z"></path></g><g><path style="fill:#BBB7B4;stroke:#000000;stroke-linecap:round;stroke-linejoin:round;" d="M219.949,413c0,0,0.75,7.5,1.5,8.75c15.25-4,22.75-11,22.75-11V400.5C244.199,400.5,225.949,407.75,219.949,413z"></path><path style="fill:#9D9996;" d="M221.449,412.375l4.5,7.25c0,0,4-1,6.5-2.375C226.824,414.875,221.449,412.375,221.449,412.375z"></path><path style="fill:#9D9996;" d="M243.724,402v8.5c0,0-2.25,1.75-3.875,2.625c0.125-5.25,0-9.625,0-9.625L243.724,402z"></path><g><path style="fill:#BBB7B4;stroke:#000000;stroke-linecap:round;stroke-linejoin:round;" d="M244.699,415.25c0,0-1.5,5.25-2.25,6.5c-15.75-5-23.75-11.25-23.75-11.25l1.5-7.75C220.199,402.75,238.699,410,244.699,415.25z"></path><polygon style="fill:#9D9996;" points="243.949,415.75 242.324,421.125 239.449,420.125 241.324,413.875 "></polygon><path style="fill:#6E6E6E;stroke:#000000;stroke-linecap:round;stroke-linejoin:round;" d="M226.449,405.5c0,0-2.75,6-2,8.75c3.25,1.75,11,5.25,11,5.25l2.5-8.5C237.949,411,233.949,408.5,226.449,405.5z"></path><path style="fill:#BBB7B4;stroke:#000000;stroke-linecap:round;stroke-linejoin:round;" d="M227.949,406.5c0,0-2.125,3.875-2,8c5.625,1.625,8.125,4,8.125,4l2.125-8.5C236.199,410,232.074,406.875,227.949,406.5z"></path><path style="fill:#6E6E6E;stroke:#000000;stroke-linecap:round;stroke-linejoin:round;" d="M231.449,413c0,0,0-1.125,0.75-1.5s4.75,2,4.75,2.375s-0.125,1.375-0.625,1.5S231.449,413,231.449,413z"></path></g></g></g><g><g><path style="fill:#6E6E6E;stroke:#000000;stroke-linecap:round;stroke-linejoin:round;" d="M260.919,439.646c0,0-2.545-15.104-3.164-20.971c-0.241-2.283-0.778-8.565-0.856-10.676h23.227c-1.26,12.708-5.172,31.969-5.691,34.25c0,0-2.383-1.25-7.383-1.25s-6.769,1.25-6.769,1.25C260.572,440.768,260.919,439.646,260.919,439.646z"></path><path style="fill:#6E6E6E;stroke:#000000;stroke-linecap:round;stroke-linejoin:round;" d="M276.801,429.25c0,0,0.75,3,1,5c-1.5,2.75-3,5-3,5s-4.75-2.5-7.5-2.5s-6.5,2-6.5,2s-2.25-3-2.5-4.25c1.25-2,1.25-4.5,1.25-4.5s-2.25-1.75-2-2.5s1.25-5,1.25-5"></path><path style="fill:#505050;" d="M277.384,433.917c0,0-0.499-3.166-0.833-3.916c-1.084-0.75-6.667,1.25-6.834,1.5C270.551,432.417,277.384,433.917,277.384,433.917z"></path><path style="fill:#505050;" d="M260.467,422.751c0,0,9.417,2.417,9.667,3.5s-8.167,2.417-9.167,2.75s-3.083-1-3.083-1L260.467,422.751z"></path><g><path style="fill:none;stroke:#000000;stroke-linecap:round;stroke-linejoin:round;" d="M269.551,426.75c0,0-3.25,1.5-7.25,2.25"></path><path style="fill:none;stroke:#000000;stroke-linecap:round;stroke-linejoin:round;" d="M266.801,424.5c0,0-3.25-1.5-6.5-2.25"></path></g><path style="fill:#6E6E6E;stroke:#000000;stroke-linecap:round;stroke-linejoin:round;" d="M273.452,447c-0.222,0.666-0.471,1.172-0.733,1.26c-0.902,0.3-12.326,0.685-12.625-0.451c-0.066-0.253-0.109-0.526-0.142-0.809H273.452z"></path></g><g><path style="fill:#BBB7B4;stroke:#000000;stroke-linecap:round;stroke-linejoin:round;" d="M280.051,413c0,0-0.75,7.5-1.5,8.75c-15.25-4-22.75-11-22.75-11V400.5C255.801,400.5,274.051,407.75,280.051,413z"></path><path style="fill:#9D9996;" d="M278.551,412.375l-4.5,7.25c0,0-4-1-6.5-2.375C273.176,414.875,278.551,412.375,278.551,412.375z"></path><path style="fill:#9D9996;" d="M256.275,402v8.5c0,0,2.25,1.75,3.875,2.625c-0.125-5.25,0-9.625,0-9.625L256.275,402z"></path><g><path style="fill:#BBB7B4;stroke:#000000;stroke-linecap:round;stroke-linejoin:round;" d="M255.301,415.25c0,0,1.5,5.25,2.25,6.5c15.75-5,23.75-11.25,23.75-11.25l-1.5-7.75C279.801,402.75,261.301,410,255.301,415.25z"></path><polygon style="fill:#9D9996;" points="256.051,415.75 257.676,421.125 260.551,420.125 258.676,413.875 "></polygon><path style="fill:#6E6E6E;stroke:#000000;stroke-linecap:round;stroke-linejoin:round;" d="M273.551,405.5c0,0,2.75,6,2,8.75c-3.25,1.75-11,5.25-11,5.25l-2.5-8.5C262.051,411,266.051,408.5,273.551,405.5z"></path><path style="fill:#BBB7B4;stroke:#000000;stroke-linecap:round;stroke-linejoin:round;" d="M272.051,406.5c0,0,2.125,3.875,2,8c-5.625,1.625-8.125,4-8.125,4l-2.125-8.5C263.801,410,267.926,406.875,272.051,406.5z"></path><path style="fill:#6E6E6E;stroke:#000000;stroke-linecap:round;stroke-linejoin:round;" d="M268.551,413c0,0,0-1.125-0.75-1.5s-4.75,2-4.75,2.375s0.125,1.375,0.625,1.5S268.551,413,268.551,413z"></path></g></g></g></g></g></svg>