<svg xmlns="http://www.w3.org/2000/svg" width="500" height="500" version="1.1"><g id="x9078"><g><g><path style="fill:#6E6E6E;stroke:#000000;stroke-linecap:round;stroke-linejoin:round;" d="M233.538,436.701c-3.077-0.188-5.167,2.917-6.333,3.25c-0.966,2.132-1.882,1.882-1.882,1.882s0.25,4.5,1.25,5.584c1.083,0.916,2.667,1.5,7.417,1.5s6-0.584,6.833-1.25c1-2.25,0.149-4.528,0-4.917c-0.833-1.417-1.5-2.333-2.083-3.5C237.905,437.75,237.072,436.917,233.538,436.701z"></path><path style="fill:#505050;" d="M226.155,444c0,0-0.5,3.125,2.125,4c3.25,0.875,10.75,1.125,12.25-0.625c0.25-0.625,0.25-1.125,0.25-1.125s-1.5-2.5-6.5-2.25c-3.764,0.188-5.308,1.955-6.341,1.665S226.155,444,226.155,444z"></path><g><g><line style="fill:none;stroke:#000000;stroke-linecap:round;stroke-linejoin:round;" x1="232.013" y1="440.594" x2="236.423" y2="438.156"></line><line style="fill:none;stroke:#000000;stroke-linecap:round;stroke-linejoin:round;" x1="236.616" y1="440.146" x2="231.819" y2="438.604"></line></g><g><line style="fill:none;stroke:#000000;stroke-linecap:round;stroke-linejoin:round;" x1="232.313" y1="442.793" x2="236.723" y2="440.355"></line><line style="fill:none;stroke:#000000;stroke-linecap:round;stroke-linejoin:round;" x1="236.917" y1="442.346" x2="232.12" y2="440.803"></line></g></g><g><path style="fill:none;stroke:#000000;stroke-linecap:round;stroke-linejoin:round;" d="M225.596,443.457c0.719-0.479,1.635-1.209,2.427-2.209c0.833,1.25,0.917,1.917,0.917,1.917s-0.667,1.417-1,2.5c0.917-0.5,2.966-2.5,7.167-2.5c2.808,0,3.675-0.29,6.175,2.335"></path></g></g><g><path style="fill:#6E6E6E;stroke:#000000;stroke-linecap:round;stroke-linejoin:round;" d="M266.462,436.701c3.077-0.188,5.167,2.917,6.334,3.25c0.965,2.132,1.882,1.882,1.882,1.882s-0.25,4.5-1.25,5.584c-1.083,0.916-2.667,1.5-7.417,1.5s-6-0.584-6.833-1.25c-1-2.25-0.149-4.528,0-4.917c0.833-1.417,1.5-2.333,2.083-3.5C262.095,437.75,262.928,436.917,266.462,436.701z"></path><path style="fill:#505050;" d="M273.845,444c0,0,0.5,3.125-2.125,4c-3.25,0.875-10.75,1.125-12.25-0.625c-0.25-0.625-0.25-1.125-0.25-1.125s1.5-2.5,6.5-2.25c3.764,0.188,5.308,1.955,6.342,1.665C273.095,445.375,273.845,444,273.845,444z"></path><g><g><line style="fill:none;stroke:#000000;stroke-linecap:round;stroke-linejoin:round;" x1="267.987" y1="440.594" x2="263.577" y2="438.156"></line><line style="fill:none;stroke:#000000;stroke-linecap:round;stroke-linejoin:round;" x1="263.384" y1="440.146" x2="268.181" y2="438.604"></line></g><g><line style="fill:none;stroke:#000000;stroke-linecap:round;stroke-linejoin:round;" x1="267.687" y1="442.793" x2="263.276" y2="440.355"></line><line style="fill:none;stroke:#000000;stroke-linecap:round;stroke-linejoin:round;" x1="263.083" y1="442.346" x2="267.88" y2="440.803"></line></g></g><g><path style="fill:none;stroke:#000000;stroke-linecap:round;stroke-linejoin:round;" d="M274.404,443.457c-0.719-0.479-1.636-1.209-2.427-2.209c-0.833,1.25-0.916,1.917-0.916,1.917s0.666,1.417,1,2.5c-0.917-0.5-2.967-2.5-7.167-2.5c-2.808,0-3.675-0.29-6.175,2.335"></path></g></g></g></g></svg>