<svg xmlns="http://www.w3.org/2000/svg" width="500" height="500" version="1.1"><g id="x9079"><g><g><g><path style="fill:#6E6E6E;stroke:#000000;stroke-linecap:round;stroke-linejoin:round;" d="M242.719,411.5c0,0-2.519,1.25-10.269,1.25s-12.121-1.25-12.121-1.25c1.317,13.86,5.308,31.052,5.308,31.052s0.374,2.582,0.912,4.198h13.5c0.337-2.906-0.967-7.104-0.967-7.104s2.545-15.104,3.164-20.971C242.506,416.211,242.646,413.745,242.719,411.5z"></path><path style="fill:none;stroke:#000000;stroke-linecap:round;stroke-linejoin:round;" d="M225.95,444.5c0,0,5.25-0.5,7.5-4.5c3,3.75,6.75,4.25,6.75,4.25"></path><path style="fill:#151515;stroke:#000000;stroke-linecap:round;stroke-linejoin:round;" d="M226.549,446.75c0.222,0.666,0.471,1.172,0.733,1.26c0.902,0.3,12.326,0.685,12.625-0.451c0.066-0.253,0.109-0.526,0.142-0.809H226.549z"></path></g><g><g><g><circle style="fill:#E8CC8F;stroke:#000000;stroke-linecap:round;stroke-linejoin:round;" cx="227.91" cy="420.754" r="1.812"></circle><circle style="fill:#E8CC8F;stroke:#000000;stroke-linecap:round;stroke-linejoin:round;" cx="228.113" cy="424.767" r="1.813"></circle><circle style="fill:#E8CC8F;stroke:#000000;stroke-linecap:round;stroke-linejoin:round;" cx="228.316" cy="428.779" r="1.812"></circle><circle style="fill:#E8CC8F;stroke:#000000;stroke-linecap:round;stroke-linejoin:round;" cx="228.519" cy="432.792" r="1.812"></circle><circle style="fill:#E8CC8F;stroke:#000000;stroke-linecap:round;stroke-linejoin:round;" cx="228.721" cy="436.804" r="1.812"></circle><circle style="fill:#E8CC8F;stroke:#000000;stroke-linecap:round;stroke-linejoin:round;" cx="228.924" cy="440.816" r="1.812"></circle></g><g><circle style="fill:#E8CC8F;stroke:#000000;stroke-linecap:round;stroke-linejoin:round;" cx="236.674" cy="420.542" r="1.812"></circle><circle style="fill:#E8CC8F;stroke:#000000;stroke-linecap:round;stroke-linejoin:round;" cx="236.875" cy="424.553" r="1.813"></circle><circle style="fill:#E8CC8F;stroke:#000000;stroke-linecap:round;stroke-linejoin:round;" cx="237.075" cy="428.566" r="1.813"></circle><circle style="fill:#E8CC8F;stroke:#000000;stroke-linecap:round;stroke-linejoin:round;" cx="237.277" cy="432.58" r="1.813"></circle><circle style="fill:#E8CC8F;stroke:#000000;stroke-linecap:round;stroke-linejoin:round;" cx="237.478" cy="436.591" r="1.812"></circle><circle style="fill:#E8CC8F;stroke:#000000;stroke-linecap:round;stroke-linejoin:round;" cx="237.679" cy="440.604" r="1.812"></circle></g></g><g><g><g><path style="fill:#605F5D;stroke:#000000;stroke-linecap:round;stroke-linejoin:round;" d="M229.683,425.674l6.835-4.12l0,0c0.473-0.284,0.625-0.9,0.34-1.373s-0.9-0.625-1.373-0.34l0,0l-6.835,4.12l0,0c-0.473,0.285-0.625,0.9-0.339,1.373C228.596,425.807,229.21,425.959,229.683,425.674L229.683,425.674z"></path></g><g><path style="fill:#605F5D;stroke:#000000;stroke-linecap:round;stroke-linejoin:round;" d="M235.717,425.423l-7.153-3.538l0,0c-0.495-0.245-0.698-0.846-0.453-1.341c0.245-0.494,0.845-0.697,1.34-0.452l0,0l7.153,3.538l0,0c0.495,0.245,0.697,0.846,0.452,1.341C236.812,425.465,236.212,425.669,235.717,425.423L235.717,425.423z"></path></g></g><g><g><path style="fill:#605F5D;stroke:#000000;stroke-linecap:round;stroke-linejoin:round;" d="M229.849,429.67l6.835-4.12l0,0c0.473-0.284,0.625-0.9,0.339-1.372c-0.285-0.474-0.899-0.626-1.373-0.34l0,0l-6.834,4.12l0,0c-0.473,0.284-0.625,0.9-0.34,1.372C228.762,429.804,229.376,429.956,229.849,429.67L229.849,429.67z"></path></g><g><path style="fill:#605F5D;stroke:#000000;stroke-linecap:round;stroke-linejoin:round;" d="M235.883,429.42l-7.153-3.539l0,0c-0.495-0.244-0.698-0.845-0.453-1.34c0.245-0.494,0.845-0.698,1.34-0.453l0,0l7.153,3.539l0,0c0.495,0.244,0.698,0.845,0.453,1.34S236.378,429.665,235.883,429.42L235.883,429.42z"></path></g></g><g><g><path style="fill:#605F5D;stroke:#000000;stroke-linecap:round;stroke-linejoin:round;" d="M230.016,433.667l6.834-4.12l0,0c0.473-0.285,0.625-0.9,0.34-1.373c-0.285-0.473-0.9-0.625-1.373-0.34l0,0l-6.834,4.12l0,0c-0.473,0.285-0.625,0.9-0.34,1.373C228.928,433.8,229.543,433.952,230.016,433.667L230.016,433.667z"></path></g><g><path style="fill:#605F5D;stroke:#000000;stroke-linecap:round;stroke-linejoin:round;" d="M236.05,433.416l-7.154-3.538l0,0c-0.495-0.245-0.698-0.846-0.452-1.341c0.245-0.494,0.845-0.698,1.339-0.452l0,0l7.154,3.538l0,0c0.495,0.245,0.698,0.846,0.452,1.341C237.145,433.458,236.544,433.661,236.05,433.416L236.05,433.416z"></path></g></g><g><g><path style="fill:#605F5D;stroke:#000000;stroke-linecap:round;stroke-linejoin:round;" d="M230.182,437.663l6.834-4.12l0,0c0.473-0.284,0.625-0.9,0.34-1.372c-0.285-0.474-0.9-0.626-1.373-0.34l0,0l-6.835,4.12l0,0c-0.473,0.284-0.625,0.9-0.339,1.372C229.094,437.797,229.709,437.949,230.182,437.663L230.182,437.663z"></path></g><g><path style="fill:#605F5D;stroke:#000000;stroke-linecap:round;stroke-linejoin:round;" d="M236.216,437.413l-7.153-3.539l0,0c-0.495-0.244-0.698-0.845-0.453-1.34s0.845-0.698,1.34-0.453l0,0l7.153,3.539l0,0c0.495,0.244,0.698,0.845,0.453,1.34C237.311,437.454,236.711,437.657,236.216,437.413L236.216,437.413z"></path></g></g><g><g><path style="fill:#605F5D;stroke:#000000;stroke-linecap:round;stroke-linejoin:round;" d="M230.348,441.66l6.835-4.12l0,0c0.473-0.285,0.625-0.9,0.339-1.373c-0.285-0.473-0.899-0.625-1.373-0.34l0,0l-6.835,4.12l0,0c-0.473,0.284-0.625,0.899-0.34,1.373C229.26,441.793,229.875,441.945,230.348,441.66L230.348,441.66z"></path></g><g><path style="fill:#605F5D;stroke:#000000;stroke-linecap:round;stroke-linejoin:round;" d="M236.382,441.409l-7.153-3.539l0,0c-0.495-0.244-0.697-0.845-0.452-1.34c0.245-0.494,0.845-0.698,1.34-0.452l0,0l7.153,3.538l0,0c0.495,0.245,0.698,0.846,0.453,1.341C237.477,441.451,236.877,441.654,236.382,441.409L236.382,441.409z"></path></g></g></g></g><g><g><path style="fill:#6E6E6E;stroke:#000000;stroke-linecap:round;stroke-linejoin:round;" d="M219.95,409.402c1-1.207,6.25,0.604,7.5,1.61c1.25,1.006,5.25,9.455,5.25,9.455s-1.625,0.503-1.875-0.101c-0.625,0.402-2.25,0.805-3.25-0.101c-1,0.704-2.625,0.402-3-0.201c-0.625,0.704-2.25,0.905-2.5,0.101C222.075,420.166,219.95,410.61,219.95,409.402z"></path><path style="fill:#6E6E6E;stroke:#000000;stroke-linecap:round;stroke-linejoin:round;" d="M221.2,412.521c0,0,0.5-1.609,0.875-1.71c1.25,0.604,1.625,1.609,1.625,1.609l-0.625,1.308L221.2,412.521z"></path><path style="fill:#6E6E6E;stroke:#000000;stroke-linecap:round;stroke-linejoin:round;" d="M224.325,414.634c0,0,0.625-1.207,1-1.308c0.375,0.402,0.75,1.408,0.75,1.408l-0.75,0.805L224.325,414.634z"></path><path style="fill:#6E6E6E;stroke:#000000;stroke-linecap:round;stroke-linejoin:round;" d="M223.45,418.154c0,0,0.625-1.207,1-1.308c0.375,0.402,0.75,1.408,0.75,1.408l-0.75,0.805L223.45,418.154z"></path></g><path style="fill:#6E6E6E;stroke:#000000;stroke-linecap:round;stroke-linejoin:round;" d="M243.2,409.402c-0.75-0.402-4.25,0.402-5.5,1.007c-1.25,0.604-4.75,9.656-4.75,9.656s1,1.006,2.5,0.302c1,0.805,2.25,0.402,2.75,0c0.625,0.503,1.75,0.905,2.375,0.402s1-0.503,1-0.503S243.2,411.415,243.2,409.402z"></path></g><g><path style="fill:#505050;stroke:#000000;stroke-linecap:round;stroke-linejoin:round;" d="M219.95,412.334c0,0-5.75,4.25-6,5.25c1.5,2.75,3.5,6,3.75,5s3.25-8.75,3.25-8.75L219.95,412.334z"></path><path style="fill:#505050;stroke:#000000;stroke-linecap:round;stroke-linejoin:round;" d="M220.2,413.584c0,0-3.75,8-3.5,11.5c2.75,1.25,5,1,5,1l-0.25-10.75L220.2,413.584z"></path></g></g><g><g><path style="fill:#6E6E6E;stroke:#000000;stroke-linecap:round;stroke-linejoin:round;" d="M257.28,411.5c0,0,2.52,1.25,10.27,1.25s12.121-1.25,12.121-1.25c-1.317,13.86-5.308,31.052-5.308,31.052s-0.374,2.582-0.912,4.198h-13.5c-0.337-2.906,0.967-7.104,0.967-7.104s-2.545-15.104-3.164-20.971C257.494,416.211,257.354,413.745,257.28,411.5z"></path><path style="fill:none;stroke:#000000;stroke-linecap:round;stroke-linejoin:round;" d="M274.05,444.5c0,0-5.25-0.5-7.5-4.5c-3,3.75-6.75,4.25-6.75,4.25"></path><path style="fill:#151515;stroke:#000000;stroke-linecap:round;stroke-linejoin:round;" d="M273.451,446.75c-0.222,0.666-0.471,1.172-0.733,1.26c-0.902,0.3-12.326,0.685-12.625-0.451c-0.066-0.253-0.109-0.526-0.142-0.809H273.451z"></path></g><g><g><g><circle style="fill:#E8CC8F;stroke:#000000;stroke-linecap:round;stroke-linejoin:round;" cx="272.089" cy="420.754" r="1.813"></circle><circle style="fill:#E8CC8F;stroke:#000000;stroke-linecap:round;stroke-linejoin:round;" cx="271.887" cy="424.767" r="1.813"></circle><circle style="fill:#E8CC8F;stroke:#000000;stroke-linecap:round;stroke-linejoin:round;" cx="271.685" cy="428.779" r="1.812"></circle><circle style="fill:#E8CC8F;stroke:#000000;stroke-linecap:round;stroke-linejoin:round;" cx="271.481" cy="432.792" r="1.812"></circle><circle style="fill:#E8CC8F;stroke:#000000;stroke-linecap:round;stroke-linejoin:round;" cx="271.279" cy="436.804" r="1.813"></circle><circle style="fill:#E8CC8F;stroke:#000000;stroke-linecap:round;stroke-linejoin:round;" cx="271.076" cy="440.816" r="1.813"></circle></g><g><circle style="fill:#E8CC8F;stroke:#000000;stroke-linecap:round;stroke-linejoin:round;" cx="263.327" cy="420.542" r="1.813"></circle><circle style="fill:#E8CC8F;stroke:#000000;stroke-linecap:round;stroke-linejoin:round;" cx="263.125" cy="424.553" r="1.813"></circle><circle style="fill:#E8CC8F;stroke:#000000;stroke-linecap:round;stroke-linejoin:round;" cx="262.925" cy="428.566" r="1.812"></circle><circle style="fill:#E8CC8F;stroke:#000000;stroke-linecap:round;stroke-linejoin:round;" cx="262.723" cy="432.58" r="1.813"></circle><circle style="fill:#E8CC8F;stroke:#000000;stroke-linecap:round;stroke-linejoin:round;" cx="262.522" cy="436.591" r="1.812"></circle><circle style="fill:#E8CC8F;stroke:#000000;stroke-linecap:round;stroke-linejoin:round;" cx="262.321" cy="440.604" r="1.813"></circle></g></g><g><g><g><path style="fill:#605F5D;stroke:#000000;stroke-linecap:round;stroke-linejoin:round;" d="M270.317,425.674l-6.836-4.12l0,0c-0.473-0.284-0.625-0.9-0.34-1.373s0.9-0.625,1.373-0.34l0,0l6.836,4.12l0,0c0.473,0.285,0.625,0.9,0.339,1.373C271.404,425.807,270.79,425.959,270.317,425.674L270.317,425.674z"></path></g><g><path style="fill:#605F5D;stroke:#000000;stroke-linecap:round;stroke-linejoin:round;" d="M264.283,425.423l7.153-3.538l0,0c0.494-0.245,0.697-0.846,0.453-1.341c-0.246-0.494-0.846-0.697-1.341-0.452l0,0l-7.153,3.538l0,0c-0.494,0.245-0.697,0.846-0.452,1.341C263.188,425.465,263.788,425.669,264.283,425.423L264.283,425.423z"></path></g></g><g><g><path style="fill:#605F5D;stroke:#000000;stroke-linecap:round;stroke-linejoin:round;" d="M270.151,429.67l-6.836-4.12l0,0c-0.473-0.284-0.625-0.9-0.339-1.372c0.284-0.474,0.899-0.626,1.372-0.34l0,0l6.835,4.12l0,0c0.474,0.284,0.626,0.9,0.34,1.372C271.238,429.804,270.624,429.956,270.151,429.67L270.151,429.67z"></path></g><g><path style="fill:#605F5D;stroke:#000000;stroke-linecap:round;stroke-linejoin:round;" d="M264.116,429.42l7.154-3.539l0,0c0.494-0.244,0.697-0.845,0.452-1.34c-0.245-0.494-0.845-0.698-1.341-0.453l0,0l-7.152,3.539l0,0c-0.495,0.244-0.697,0.845-0.453,1.34C263.022,429.462,263.622,429.665,264.116,429.42L264.116,429.42z"></path></g></g><g><g><path style="fill:#605F5D;stroke:#000000;stroke-linecap:round;stroke-linejoin:round;" d="M269.984,433.667l-6.835-4.12l0,0c-0.473-0.285-0.625-0.9-0.34-1.373s0.9-0.625,1.373-0.34l0,0l6.834,4.12l0,0c0.474,0.285,0.626,0.9,0.34,1.373C271.072,433.8,270.457,433.952,269.984,433.667L269.984,433.667z"></path></g><g><path style="fill:#605F5D;stroke:#000000;stroke-linecap:round;stroke-linejoin:round;" d="M263.95,433.416l7.154-3.538l0,0c0.494-0.245,0.697-0.846,0.451-1.341c-0.244-0.494-0.844-0.698-1.339-0.452l0,0l-7.153,3.538l0,0c-0.495,0.245-0.698,0.846-0.453,1.341C262.855,433.458,263.456,433.661,263.95,433.416L263.95,433.416z"></path></g></g><g><g><path style="fill:#605F5D;stroke:#000000;stroke-linecap:round;stroke-linejoin:round;" d="M269.817,437.663l-6.834-4.12l0,0c-0.473-0.284-0.625-0.9-0.34-1.372c0.285-0.474,0.9-0.626,1.373-0.34l0,0l6.834,4.12l0,0c0.473,0.284,0.625,0.9,0.34,1.372C270.905,437.797,270.291,437.949,269.817,437.663L269.817,437.663z"></path></g><g><path style="fill:#605F5D;stroke:#000000;stroke-linecap:round;stroke-linejoin:round;" d="M263.784,437.413l7.153-3.539l0,0c0.495-0.244,0.698-0.845,0.452-1.34c-0.244-0.495-0.844-0.698-1.34-0.453l0,0l-7.152,3.539l0,0c-0.496,0.244-0.698,0.845-0.453,1.34C262.688,437.454,263.289,437.657,263.784,437.413L263.784,437.413z"></path></g></g><g><g><path style="fill:#605F5D;stroke:#000000;stroke-linecap:round;stroke-linejoin:round;" d="M269.651,441.66l-6.834-4.12l0,0c-0.473-0.285-0.625-0.9-0.34-1.373s0.899-0.625,1.373-0.34l0,0l6.834,4.12l0,0c0.474,0.284,0.625,0.899,0.34,1.373C270.739,441.793,270.124,441.945,269.651,441.66L269.651,441.66z"></path></g><g><path style="fill:#605F5D;stroke:#000000;stroke-linecap:round;stroke-linejoin:round;" d="M263.618,441.409l7.153-3.539l0,0c0.495-0.244,0.697-0.845,0.452-1.34c-0.244-0.494-0.845-0.698-1.34-0.452l0,0l-7.152,3.538l0,0c-0.496,0.245-0.699,0.846-0.453,1.341C262.522,441.451,263.123,441.654,263.618,441.409L263.618,441.409z"></path></g></g></g></g><g><g><path style="fill:#6E6E6E;stroke:#000000;stroke-linecap:round;stroke-linejoin:round;" d="M280.05,409.402c-1-1.207-6.25,0.604-7.5,1.61c-1.25,1.006-5.25,9.455-5.25,9.455s1.625,0.503,1.875-0.101c0.625,0.402,2.25,0.805,3.25-0.101c1,0.704,2.625,0.402,3-0.201c0.625,0.704,2.25,0.905,2.5,0.101C277.925,420.166,280.05,410.61,280.05,409.402z"></path><path style="fill:#6E6E6E;stroke:#000000;stroke-linecap:round;stroke-linejoin:round;" d="M278.8,412.521c0,0-0.5-1.609-0.875-1.71c-1.25,0.604-1.625,1.609-1.625,1.609l0.625,1.308L278.8,412.521z"></path><path style="fill:#6E6E6E;stroke:#000000;stroke-linecap:round;stroke-linejoin:round;" d="M275.675,414.634c0,0-0.625-1.207-1-1.308c-0.375,0.402-0.75,1.408-0.75,1.408l0.75,0.805L275.675,414.634z"></path><path style="fill:#6E6E6E;stroke:#000000;stroke-linecap:round;stroke-linejoin:round;" d="M276.55,418.154c0,0-0.625-1.207-1-1.308c-0.375,0.402-0.75,1.408-0.75,1.408l0.75,0.805L276.55,418.154z"></path></g><path style="fill:#6E6E6E;stroke:#000000;stroke-linecap:round;stroke-linejoin:round;" d="M256.8,409.402c0.75-0.402,4.25,0.402,5.5,1.007c1.25,0.604,4.75,9.656,4.75,9.656s-1,1.006-2.5,0.302c-1,0.805-2.25,0.402-2.75,0c-0.625,0.503-1.75,0.905-2.375,0.402s-1-0.503-1-0.503S256.8,411.415,256.8,409.402z"></path></g><g><path style="fill:#505050;stroke:#000000;stroke-linecap:round;stroke-linejoin:round;" d="M280.05,412.334c0,0,5.75,4.25,6,5.25c-1.5,2.75-3.5,6-3.75,5s-3.25-8.75-3.25-8.75L280.05,412.334z"></path><path style="fill:#505050;stroke:#000000;stroke-linecap:round;stroke-linejoin:round;" d="M279.8,413.584c0,0,3.75,8,3.5,11.5c-2.75,1.25-5,1-5,1l0.25-10.75L279.8,413.584z"></path></g></g></g></g></svg>