<svg xmlns="http://www.w3.org/2000/svg" width="500" height="500" version="1.1"><g id="x008"><g><g><path style="fill:#6E6E6E;stroke:#000000;stroke-linecap:round;stroke-linejoin:round;" d="M225.714,445.75c0,0-0.038,2.688,0.587,3.125s8.726,1.773,13.726,0.148c0.125-1.125,0-2.063,0-2.063L225.714,445.75z"></path><path style="fill:#FFFFFF;stroke:#000000;stroke-linecap:round;stroke-linejoin:round;" d="M237.047,435.547c0,0,2.375,0.037,2.75-0.338c0.063-0.375,0.313-0.85,0.313-0.85s0.625,1.25,0.625,1.625s-1.688,4.313-1.688,4.313s-2.124-0.188-2.124-0.376S237.047,435.547,237.047,435.547z"></path><path style="fill:#6E6E6E;" d="M237.87,436.719l0.031,0.688l1.85,0.031l0.306-0.938C240.058,436.5,238.433,436.75,237.87,436.719z"></path><path style="fill:#FFFFFF;stroke:#000000;stroke-linecap:round;stroke-linejoin:round;" d="M229.776,438.563c0,0-1.875,1.875-2.563,1.75s-2.572-0.77-2.688-1c-0.438-0.875-1.375-3.611-1.25-4.049s0.688-1.125,0.688-1.125l0.5,1.375c0,0,2.688,0.549,5.563-0.014C229.901,436.438,229.776,438.563,229.776,438.563z"></path><path style="fill:#6E6E6E;" d="M224.12,436.781l0.281,0.875c0,0,2,0.344,4.981-0.063c-0.031-0.5-0.169-0.75-0.169-0.75S225.558,437.031,224.12,436.781z"></path><path style="fill:#FFFFFF;stroke:#000000;stroke-linecap:round;stroke-linejoin:round;" d="M240.318,442.958c-0.375-1.708-1.292-3.981-1.292-3.981s-0.438-0.063-1.559-0.205c-0.093-0.967,0.022-3.877-0.428-4.195c-0.826-0.584-6.737-0.451-7.263,0.299c-0.231,0.329-0.104,3.176,0.125,4.125c-0.271,0.004-0.315,0.015-0.605,0.001c-2.895,0.624-4.708,0.249-4.708,0.249s-0.369,2.226,0.001,4.311c0.25,1.406,1,2.586,1.806,3.593c0.626,0.783,9.817,1.615,13.4,0.282C240.098,446.063,240.401,444.708,240.318,442.958z"></path><path style="fill:#6E6E6E;" d="M230.183,437.156c0,0,3.219-0.344,6.75,0.125c-0.063-0.5,0.038-0.969,0.038-0.969s-4.569-0.625-6.85-0.137C230.183,436.582,230.183,437.156,230.183,437.156z"></path><path style="fill:none;stroke:#000000;stroke-linecap:round;stroke-linejoin:round;" d="M230.089,440.389c0,0-1.979,0.986-2.2,1.5c-0.695,1.611-0.038,4.813,0.275,5.25"></path><path style="fill:none;stroke:#000000;stroke-linecap:round;stroke-linejoin:round;" d="M238.126,440.525c0,0,1.25,0.438,1.688,1.188"></path><path style="fill:#FFFFFF;stroke:#000000;stroke-linecap:round;stroke-linejoin:round;" d="M229.964,439.188c0,0-0.05,2.537,0.262,2.912s7.55,0.384,7.988-0.074s-0.875-3.188-1.125-3.313S231.339,437.813,229.964,439.188z"></path></g><g><path style="fill:#6E6E6E;stroke:#000000;stroke-linecap:round;stroke-linejoin:round;" d="M274.286,445.75c0,0,0.038,2.688-0.587,3.125s-8.726,1.773-13.726,0.148c-0.125-1.125,0-2.063,0-2.063L274.286,445.75z"></path><path style="fill:#FFFFFF;stroke:#000000;stroke-linecap:round;stroke-linejoin:round;" d="M262.952,435.547c0,0-2.375,0.037-2.75-0.338c-0.063-0.375-0.313-0.85-0.313-0.85s-0.625,1.25-0.625,1.625s1.689,4.313,1.689,4.313s2.123-0.188,2.123-0.376S262.952,435.547,262.952,435.547z"></path><path style="fill:#6E6E6E;" d="M262.13,436.719l-0.031,0.688l-1.85,0.031l-0.307-0.938C259.942,436.5,261.567,436.75,262.13,436.719z"></path><path style="fill:#FFFFFF;stroke:#000000;stroke-linecap:round;stroke-linejoin:round;" d="M270.224,438.563c0,0,1.875,1.875,2.563,1.75s2.572-0.77,2.688-1c0.438-0.875,1.375-3.611,1.25-4.049s-0.688-1.125-0.688-1.125l-0.5,1.375c0,0-2.688,0.549-5.563-0.014C270.099,436.438,270.224,438.563,270.224,438.563z"></path><path style="fill:#6E6E6E;" d="M275.88,436.781l-0.281,0.875c0,0-2,0.344-4.981-0.063c0.031-0.5,0.169-0.75,0.169-0.75S274.442,437.031,275.88,436.781z"></path><path style="fill:#FFFFFF;stroke:#000000;stroke-linecap:round;stroke-linejoin:round;" d="M259.683,442.958c0.375-1.708,1.291-3.981,1.291-3.981s0.438-0.063,1.559-0.205c0.094-0.967-0.021-3.877,0.429-4.195c0.826-0.584,6.737-0.451,7.263,0.299c0.23,0.329,0.104,3.176-0.125,4.125c0.271,0.004,0.315,0.015,0.605,0.001c2.895,0.624,4.707,0.249,4.707,0.249s0.369,2.226-0.002,4.311c-0.25,1.406-1,2.586-1.805,3.593c-0.627,0.783-9.817,1.615-13.4,0.282C259.902,446.063,259.599,444.708,259.683,442.958z"></path><path style="fill:#6E6E6E;" d="M269.817,437.156c0,0-3.219-0.344-6.75,0.125c0.063-0.5-0.037-0.969-0.037-0.969s4.568-0.625,6.85-0.137C269.817,436.582,269.817,437.156,269.817,437.156z"></path><path style="fill:none;stroke:#000000;stroke-linecap:round;stroke-linejoin:round;" d="M269.911,440.389c0,0,1.979,0.986,2.2,1.5c0.695,1.611,0.038,4.813-0.274,5.25"></path><path style="fill:none;stroke:#000000;stroke-linecap:round;stroke-linejoin:round;" d="M261.874,440.525c0,0-1.25,0.438-1.688,1.188"></path><path style="fill:#FFFFFF;stroke:#000000;stroke-linecap:round;stroke-linejoin:round;" d="M270.036,439.188c0,0,0.051,2.537-0.262,2.912s-7.551,0.384-7.988-0.074s0.875-3.188,1.125-3.313S268.661,437.813,270.036,439.188z"></path></g></g></g></svg>