<svg xmlns="http://www.w3.org/2000/svg" width="500" height="500" version="1.1"><g id="x9080"><g><g><g><path style="fill:#46423E;stroke:#000000;stroke-linecap:round;stroke-linejoin:round;" d="M240.49,431.167h-17.188c1.247,6.578,2.362,11.385,2.362,11.385s0.744,5.157,1.646,5.458c0.902,0.3,12.326,0.685,12.625-0.451c0.751-2.855-0.825-7.912-0.825-7.912S239.764,435.761,240.49,431.167z"></path><path style="fill:none;stroke:#000000;stroke-linecap:round;stroke-linejoin:round;" d="M225.734,438.75c0,0,4.125,0.875,5.25,5.75"></path><path style="fill:none;stroke:#000000;stroke-linecap:round;stroke-linejoin:round;" d="M236.859,443.875c0,0-0.5-2,1.875-4.625"></path><path style="fill:#6E6E6E;stroke:#000000;stroke-linecap:round;stroke-linejoin:round;" d="M226.359,445.125c0,0,2.25,0.875,7,0.875s7-0.625,7-0.625l-0.25-1.75c0,0-2.375,0.75-6.375,0.75s-7.875-1-7.875-1l0.125,1.5"></path></g><g><path style="fill:#46423E;stroke:#000000;stroke-linecap:round;stroke-linejoin:round;" d="M222.401,425.668c0,0-2.5,2.75-2.833,3.416s0.25,5.917,0.25,5.917l1.917,4.624l4.417-4.291c0,0,2.333,2.791,5.583,4.416c1.125,0,6.583-4.749,6.583-4.749l4.167,4.5c0,0,1.833-2.75,2.667-7c-0.167-2.75-0.417-4.583-0.417-4.583c-0.292-0.25-2.805-2.651-3-2.667c-0.583,1-1.083,3.083-1.083,3.083s-3,1.167-9.5,1.167s-8.167-1.167-8.167-1.167L222.401,425.668z"></path><path style="fill:none;stroke:#000000;stroke-linecap:round;stroke-linejoin:round;" d="M225.609,430.375c0,0,4.5,5.75,6.25,6.75c1.625-1.375,3.5-2.625,3.5-2.625"></path><path style="fill:none;stroke:#000000;stroke-linecap:round;stroke-linejoin:round;" d="M238.234,429.75c0,0,2.25,4.125,3.75,5.375c1-1.875,1.875-3.75,1.875-3.75"></path><path style="fill:#6E6E6E;stroke:#000000;stroke-linecap:round;stroke-linejoin:round;" d="M232.484,429.625c0,0,3.75,5.875,4.75,6.625c0.75-0.625,1.25-1,1.25-1l-4.125-6L232.484,429.625z"></path><g><path style="fill:#6E6E6E;stroke:#000000;stroke-linecap:round;stroke-linejoin:round;" d="M223.102,428.708c-0.375,0-2.125,0-2-0.5s1-1.874,1-1.874L223.102,428.708z"></path><path style="fill:#6E6E6E;stroke:#000000;stroke-linecap:round;stroke-linejoin:round;" d="M240.62,428.375c0.375,0,2.125,0,2-0.5s-1-1.874-1-1.874L240.62,428.375z"></path></g></g></g><g><g><path style="fill:#46423E;stroke:#000000;stroke-linecap:round;stroke-linejoin:round;" d="M259.51,431.167h17.188c-1.246,6.578-2.362,11.385-2.362,11.385s-0.744,5.157-1.646,5.458c-0.902,0.3-12.326,0.685-12.625-0.451c-0.751-2.855,0.825-7.912,0.825-7.912S260.235,435.761,259.51,431.167z"></path><path style="fill:none;stroke:#000000;stroke-linecap:round;stroke-linejoin:round;" d="M274.265,438.75c0,0-4.125,0.875-5.25,5.75"></path><path style="fill:none;stroke:#000000;stroke-linecap:round;stroke-linejoin:round;" d="M263.14,443.875c0,0,0.5-2-1.875-4.625"></path><path style="fill:#6E6E6E;stroke:#000000;stroke-linecap:round;stroke-linejoin:round;" d="M273.64,445.125c0,0-2.25,0.875-7,0.875s-7-0.625-7-0.625l0.25-1.75c0,0,2.375,0.75,6.375,0.75s7.875-1,7.875-1l-0.125,1.5"></path></g><g><path style="fill:#46423E;stroke:#000000;stroke-linecap:round;stroke-linejoin:round;" d="M277.598,425.668c0,0,2.5,2.75,2.834,3.416c0.332,0.666-0.25,5.917-0.25,5.917l-1.917,4.624l-4.417-4.291c0,0-2.333,2.791-5.583,4.416c-1.125,0-6.583-4.749-6.583-4.749l-4.167,4.5c0,0-1.833-2.75-2.667-7c0.167-2.75,0.417-4.583,0.417-4.583c0.292-0.25,2.805-2.651,3-2.667c0.583,1,1.083,3.083,1.083,3.083s3,1.167,9.5,1.167s8.168-1.167,8.168-1.167L277.598,425.668z"></path><path style="fill:none;stroke:#000000;stroke-linecap:round;stroke-linejoin:round;" d="M274.39,430.375c0,0-4.5,5.75-6.25,6.75c-1.625-1.375-3.5-2.625-3.5-2.625"></path><path style="fill:none;stroke:#000000;stroke-linecap:round;stroke-linejoin:round;" d="M261.765,429.75c0,0-2.25,4.125-3.75,5.375c-1-1.875-1.875-3.75-1.875-3.75"></path><path style="fill:#6E6E6E;stroke:#000000;stroke-linecap:round;stroke-linejoin:round;" d="M267.515,429.625c0,0-3.75,5.875-4.75,6.625c-0.75-0.625-1.25-1-1.25-1l4.125-6L267.515,429.625z"></path><g><path style="fill:#6E6E6E;stroke:#000000;stroke-linecap:round;stroke-linejoin:round;" d="M276.897,428.708c0.375,0,2.125,0,2-0.5s-1-1.874-1-1.874L276.897,428.708z"></path><path style="fill:#6E6E6E;stroke:#000000;stroke-linecap:round;stroke-linejoin:round;" d="M259.379,428.375c-0.375,0-2.125,0-2-0.5s1-1.874,1-1.874L259.379,428.375z"></path></g></g></g></g></g></svg>