<svg xmlns="http://www.w3.org/2000/svg" width="500" height="500" version="1.1"><g id="x9081"><g><g><g><g><path style="fill:#6E6E6E;stroke:#000000;stroke-linecap:round;stroke-linejoin:round;" d="M240.363,432.834h-16.667c-0.747,4.499-0.247,13.999,3.665,15.176c0.902,0.3,12.326,0.685,12.625-0.451C241.867,442.167,240.16,434.063,240.363,432.834z"></path></g><path style="fill:#6E6E6E;stroke:#000000;stroke-linecap:round;stroke-linejoin:round;" d="M225.013,445.887c0,0,0.136,0.553,0.65,1.998c0.366,0.573,3.032,1.521,4.92,0.128c0-0.008,0-0.014,0-0.021c0.596,1.003,3.588,2.032,6.412,0.143c1.327,0.294,3.255,0.333,4.796-0.562c0.341-2.505-1.028-3.771-1.028-3.771"></path></g><path style="fill:#505050;" d="M224.216,441.751c0,0,0.5,2.916,1.333,3.916c0.167,0.917,0.333,1.5,0.667,2s2.25,0.916,4.5,0c1,0.834,3.5,1.833,6.25,0c1.5,0.334,3.917,0.25,4.583-0.5c-0.083-0.916-0.833-2.166-0.833-2.166s-1.833,1.25-3.417,0.583s-1.833,0.416-3.917,0.583s-3.417-0.916-3.417-0.916s-1.833,1.334-2.75,0.75s-1.5-2.25-1.5-2.25L224.216,441.751z"></path><g><g><g><path style="fill:#FFFFFF;stroke:#000000;stroke-linecap:round;stroke-linejoin:round;" d="M241.161,425.833c0,0,1.648,4.334,1.236,6.167c-0.413,1.833-3.434,4.999-7.829,5.166c-0.962-2-1.648-5-1.648-5S238.963,429,241.161,425.833z"></path><path style="fill:#E4E0F3;" d="M236.05,434.584c0,0,4.5-2.083,5.25-5.667c0.667,0.75,1.142,2.35,0.75,3.084c-0.667,1.25-2.417,3.666-5.083,4.083C235.883,435.667,236.05,434.584,236.05,434.584z"></path></g><g><path style="fill:#FFFFFF;stroke:#000000;stroke-linecap:round;stroke-linejoin:round;" d="M222.446,425.833c0,0-1.111,4.334-0.618,6.167c0.493,1.833,4.106,4.999,9.364,5.166c1.15-2,1.971-5,1.971-5S225.075,429,222.446,425.833z"></path><path style="fill:#E4E0F3;" d="M222.3,429.084c0,0-0.417,2.583,0.417,3.583s3.667,4.501,7.167,3.584c0.667-0.667,1.083-1.084,1.083-1.084S223.8,433.501,222.3,429.084z"></path></g></g><g><circle style="fill:#FFFFFF;stroke:#000000;stroke-linecap:round;stroke-linejoin:round;" cx="233.28" cy="436.582" r="3.833"></circle><path style="fill:#E4E0F3;" d="M230.133,436.084c0,0-0.5,2.667,2.667,3.75c1.583-0.083,2.583-0.917,2.583-0.917s-0.417-1.249-1-1.166s-1.583,0.666-1.833,0.583s-1.167-0.834-1.167-1.917S230.216,435.667,230.133,436.084z"></path></g></g></g><g><g><g><path style="fill:#6E6E6E;stroke:#000000;stroke-linecap:round;stroke-linejoin:round;" d="M259.637,432.834h16.666c0.747,4.499,0.247,13.999-3.664,15.176c-0.902,0.3-12.326,0.685-12.625-0.451C258.133,442.167,259.84,434.063,259.637,432.834z"></path></g><path style="fill:#6E6E6E;stroke:#000000;stroke-linecap:round;stroke-linejoin:round;" d="M274.986,445.887c0,0-0.136,0.553-0.649,1.998c-0.366,0.573-3.032,1.521-4.92,0.128c-0.001-0.008,0-0.014-0.001-0.021c-0.596,1.003-3.588,2.032-6.411,0.143c-1.327,0.294-3.255,0.333-4.796-0.562c-0.342-2.505,1.027-3.771,1.027-3.771"></path></g><path style="fill:#505050;" d="M275.783,441.751c0,0-0.5,2.916-1.333,3.916c-0.167,0.917-0.333,1.5-0.667,2c-0.333,0.5-2.25,0.916-4.5,0c-1,0.834-3.5,1.833-6.25,0c-1.5,0.334-3.916,0.25-4.583-0.5c0.083-0.916,0.833-2.166,0.833-2.166s1.834,1.25,3.417,0.583s1.833,0.416,3.917,0.583c2.083,0.167,3.416-0.916,3.416-0.916s1.834,1.334,2.75,0.75c0.917-0.584,1.5-2.25,1.5-2.25L275.783,441.751z"></path><g><g><g><path style="fill:#FFFFFF;stroke:#000000;stroke-linecap:round;stroke-linejoin:round;" d="M258.839,425.833c0,0-1.647,4.334-1.236,6.167c0.413,1.833,3.434,4.999,7.829,5.166c0.962-2,1.648-5,1.648-5S261.037,429,258.839,425.833z"></path><path style="fill:#E4E0F3;" d="M263.95,434.584c0,0-4.5-2.083-5.25-5.667c-0.667,0.75-1.142,2.35-0.75,3.084c0.667,1.25,2.417,3.666,5.083,4.083C264.117,435.667,263.95,434.584,263.95,434.584z"></path></g><g><path style="fill:#FFFFFF;stroke:#000000;stroke-linecap:round;stroke-linejoin:round;" d="M277.554,425.833c0,0,1.11,4.334,0.618,6.167c-0.493,1.833-4.107,4.999-9.364,5.166c-1.149-2-1.971-5-1.971-5S274.925,429,277.554,425.833z"></path><path style="fill:#E4E0F3;" d="M277.7,429.084c0,0,0.417,2.583-0.417,3.583c-0.833,1-3.666,4.501-7.166,3.584c-0.667-0.667-1.084-1.084-1.084-1.084S276.2,433.501,277.7,429.084z"></path></g></g><g><circle style="fill:#FFFFFF;stroke:#000000;stroke-linecap:round;stroke-linejoin:round;" cx="266.72" cy="436.582" r="3.833"></circle><path style="fill:#E4E0F3;" d="M269.867,436.084c0,0,0.5,2.667-2.667,3.75c-1.583-0.083-2.583-0.917-2.583-0.917s0.417-1.249,1-1.166s1.583,0.666,1.833,0.583s1.167-0.834,1.167-1.917S269.784,435.667,269.867,436.084z"></path></g></g></g></g></g></svg>