<svg xmlns="http://www.w3.org/2000/svg" width="500" height="500" version="1.1"><g id="x9082"><g><g><path style="fill:#666666;stroke:#000000;stroke-linecap:round;stroke-linejoin:round;" d="M260.266,448.001l0.5,1.667c0,0,7.542,1.833,13.417-0.167l0.458-1.5H260.266z"></path><path style="fill:#6E6E6E;stroke:#000000;stroke-linecap:round;stroke-linejoin:round;" d="M260.599,439.77c0,0-2.25,7.861,0.125,8.693c2.042,0.87,10.125,1.204,13.5,0c1.667-0.277,1.125-5.961,0.75-8.314c0,0-4.125-1.663-6.375-1.94C264.349,438.07,260.599,439.77,260.599,439.77z"></path><polygon style="fill:#6E6E6E;stroke:#000000;stroke-linecap:round;stroke-linejoin:round;" points="264.619,438.667 264.015,441.25 264.724,441.125 265.327,438.5 "></polygon><polygon style="fill:#6E6E6E;stroke:#000000;stroke-linecap:round;stroke-linejoin:round;" points="270.335,438.844 270.696,441.472 270.002,441.281 269.646,438.612 "></polygon><g><path style="fill:#C49953;" d="M267.336,444.919c-0.22,0-0.439-0.014-0.658-0.044c-2.553-0.344-3.973-2.578-4.031-2.673l0.845-0.556c0.012,0.02,1.239,1.934,3.326,2.209c1.531,0.207,3.162-0.504,4.858-2.097l0.678,0.761C270.653,444.113,268.969,444.919,267.336,444.919z"></path></g><g><path style="fill:#C49953;" d="M274.817,444.047c-3.295-2.733-9.952-3.619-10.016-3.625l0.141-0.484c0.27,0.026,6.432,0.459,9.891,3.328L274.817,444.047z"></path></g><g><path style="fill:#C49953;" d="M260.364,443.594l0.094-0.859c0.122-0.118,2.704-2.588,9.391-2.672l0.063,0.547C263.524,440.69,260.393,443.566,260.364,443.594z"></path></g><g><ellipse transform="matrix(0.9992 0.0409 -0.0409 0.9992 18.3168 -10.5673)" style="fill:#C49953;" cx="267.233" cy="442.049" rx="0.203" ry="0.417"></ellipse><ellipse transform="matrix(0.0461 -0.9989 0.9989 0.0461 -186.5469 689.9025)" style="fill:#C49953;" cx="267.966" cy="442.629" rx="0.191" ry="0.443"></ellipse><ellipse transform="matrix(0.0459 -0.9989 0.9989 0.0459 -187.8259 688.4844)" style="fill:#C49953;" cx="266.499" cy="442.566" rx="0.192" ry="0.444"></ellipse><ellipse transform="matrix(0.9991 0.0433 -0.0433 0.9991 19.4536 -11.1614)" style="fill:#C49953;" cx="267.18" cy="443.145" rx="0.203" ry="0.418"></ellipse></g><g><path style="fill:#C49953;" d="M269.88,440.109c0.388,0.006-3.275-0.729-4.719-0.906l0.156-0.406c1.367,0.169,4.48,0.73,4.59,0.764L269.88,440.109z"></path></g><g><polygon style="fill:#C49953;" points="264.942,439.938 265.067,439.422 269.583,438.75 269.614,439.203 "></polygon></g></g><g><path style="fill:#666666;stroke:#000000;stroke-linecap:round;stroke-linejoin:round;" d="M239.733,448.001l-0.5,1.667c0,0-7.542,1.833-13.416-0.167l-0.458-1.5H239.733z"></path><path style="fill:#6E6E6E;stroke:#000000;stroke-linecap:round;stroke-linejoin:round;" d="M239.4,439.77c0,0,2.25,7.861-0.125,8.693c-2.042,0.87-10.125,1.204-13.499,0c-1.667-0.277-1.125-5.961-0.75-8.314c0,0,4.125-1.663,6.375-1.94C235.651,438.07,239.4,439.77,239.4,439.77z"></path><polygon style="fill:#6E6E6E;stroke:#000000;stroke-linecap:round;stroke-linejoin:round;" points="235.38,438.667 235.985,441.25 235.276,441.125 234.672,438.5 "></polygon><polygon style="fill:#6E6E6E;stroke:#000000;stroke-linecap:round;stroke-linejoin:round;" points="229.665,438.844 229.303,441.472 229.998,441.281 230.354,438.612 "></polygon><g><path style="fill:#C49953;" d="M232.664,444.919c0.22,0,0.439-0.014,0.658-0.044c2.553-0.344,3.972-2.578,4.031-2.673l-0.845-0.556c-0.012,0.02-1.239,1.934-3.326,2.209c-1.531,0.207-3.162-0.504-4.858-2.097l-0.678,0.761C229.346,444.113,231.031,444.919,232.664,444.919z"></path></g><g><path style="fill:#C49953;" d="M225.183,444.047c3.294-2.733,9.952-3.619,10.015-3.625l-0.141-0.484c-0.27,0.026-6.432,0.459-9.89,3.328L225.183,444.047z"></path></g><g><path style="fill:#C49953;" d="M239.635,443.594l-0.094-0.859c-0.122-0.118-2.704-2.588-9.39-2.672l-0.063,0.547C236.475,440.69,239.606,443.566,239.635,443.594z"></path></g><g><ellipse transform="matrix(-0.9992 0.0409 -0.0409 -0.9992 483.431 874.2012)" style="fill:#C49953;" cx="232.767" cy="442.049" rx="0.203" ry="0.417"></ellipse><ellipse transform="matrix(-0.0461 -0.9989 0.9989 -0.0461 -199.4266 694.8232)" style="fill:#C49953;" cx="232.034" cy="442.629" rx="0.191" ry="0.443"></ellipse><ellipse transform="matrix(-0.0459 -0.9989 0.9989 -0.0459 -197.8894 696.1216)" style="fill:#C49953;" cx="233.5" cy="442.566" rx="0.192" ry="0.444"></ellipse><ellipse transform="matrix(-0.9991 0.0433 -0.0433 -0.9991 484.6227 875.7841)" style="fill:#C49953;" cx="232.819" cy="443.145" rx="0.203" ry="0.418"></ellipse></g><g><path style="fill:#C49953;" d="M230.12,440.109c-0.388,0.006,3.275-0.729,4.719-0.906l-0.156-0.406c-1.367,0.169-4.48,0.73-4.59,0.764L230.12,440.109z"></path></g><g><polygon style="fill:#C49953;" points="235.057,439.938 234.932,439.422 230.417,438.75 230.385,439.203 "></polygon></g></g></g></g></svg>