<svg xmlns="http://www.w3.org/2000/svg" width="500" height="500" version="1.1"><g id="x9083"><g><g><g><g><linearGradient id="shoesXMLID_11_" gradientUnits="userSpaceOnUse" x1="267.6934" y1="414.9395" x2="267.6934" y2="441.0658"><stop offset="0.0056" style="stop-color:#1B1720"></stop><stop offset="0.1966" style="stop-color:#593386"></stop><stop offset="0.4" style="stop-color:#A452BC"></stop><stop offset="0.6" style="stop-color:#E373DB"></stop><stop offset="0.8" style="stop-color:#F09CB7"></stop><stop offset="1" style="stop-color:#F2E3D7"></stop></linearGradient><path style="fill:url(#shoesXMLID_11_);stroke:#000000;stroke-linecap:round;stroke-linejoin:round;" d="M275.879,437.333l-3.332-4.833l-5.5,4.666l-3.1-3.833c0,0-3.068,4.001-3.234,5.167c0,0-1.453,4.988-1.168,7.75h14.078C274.777,442.717,275.879,437.333,275.879,437.333z"></path><path style="fill:#4E4B5C;stroke:#000000;stroke-linecap:round;stroke-linejoin:round;" d="M259.545,446.25c0.055,0.534,0.168,0.994,0.377,1.309c1.625,1.274,11.625,1.274,13.125,0.274c0.189-0.452,0.383-0.995,0.576-1.583H259.545z"></path><g><linearGradient id="shoesXMLID_12_" gradientUnits="userSpaceOnUse" x1="262.2031" y1="412" x2="262.2031" y2="442.5001"><stop offset="0.0056" style="stop-color:#1B1720"></stop><stop offset="0.1966" style="stop-color:#593386"></stop><stop offset="0.4" style="stop-color:#A452BC"></stop><stop offset="0.6" style="stop-color:#E373DB"></stop><stop offset="0.8" style="stop-color:#F09CB7"></stop><stop offset="1" style="stop-color:#F2E3D7"></stop></linearGradient><path style="fill:url(#shoesXMLID_12_);stroke:#000000;stroke-linecap:round;stroke-linejoin:round;" d="M259.109,427.166c0,0-1.902,7-1.73,8c1.211,2,3.977,2.834,3.977,2.834s1.9-5.667,2.592-6.167c1.037,1.5,2.939,5.667,2.939,5.667c0.863-1-2.248-7.167-2.248-7.167L259.109,427.166z"></path><linearGradient id="shoesXMLID_14_" gradientUnits="userSpaceOnUse" x1="273.1514" y1="412" x2="273.1514" y2="442.5001"><stop offset="0.0056" style="stop-color:#1B1720"></stop><stop offset="0.1966" style="stop-color:#593386"></stop><stop offset="0.4" style="stop-color:#A452BC"></stop><stop offset="0.6" style="stop-color:#E373DB"></stop><stop offset="0.8" style="stop-color:#F09CB7"></stop><stop offset="1" style="stop-color:#F2E3D7"></stop></linearGradient><path style="fill:url(#shoesXMLID_14_);stroke:#000000;stroke-linecap:round;stroke-linejoin:round;" d="M277.014,427.166c0,0,2.041,7,1.855,8c-1.299,2-4.268,2.834-4.268,2.834s-2.041-5.667-2.783-6.167c-1.113,1.5-4.27,5.667-4.27,5.667c-0.928-1,3.527-7.167,3.527-7.167L277.014,427.166z"></path></g></g><g><line style="fill:none;stroke:#FFFFFF;stroke-linecap:round;stroke-linejoin:round;" x1="263.879" y1="437" x2="271.047" y2="437"></line><g><line style="fill:none;stroke:#FFFFFF;stroke-linecap:round;stroke-linejoin:round;" x1="263.777" y1="437.235" x2="270.111" y2="440.902"></line><line style="fill:none;stroke:#FFFFFF;stroke-linecap:round;stroke-linejoin:round;" x1="270.109" y1="437.235" x2="263.777" y2="440.902"></line></g><g><line style="fill:none;stroke:#FFFFFF;stroke-linecap:round;stroke-linejoin:round;" x1="263.777" y1="440.902" x2="270.111" y2="444.569"></line><line style="fill:none;stroke:#FFFFFF;stroke-linecap:round;stroke-linejoin:round;" x1="270.109" y1="440.902" x2="263.777" y2="444.569"></line></g></g></g></g><g><g><g><path style="fill:#1B181E;stroke:#000000;stroke-linecap:round;stroke-linejoin:round;" d="M224.121,437.333l3.333-4.833l5.5,4.666l3.1-3.833c0,0,3.068,4.001,3.234,5.167c0,0,1.453,4.988,1.168,7.75h-14.078C225.223,442.717,224.121,437.333,224.121,437.333z"></path><path style="fill:#4E4B5C;stroke:#000000;stroke-linecap:round;stroke-linejoin:round;" d="M240.456,446.25c-0.056,0.534-0.169,0.994-0.378,1.309c-1.624,1.274-11.624,1.274-13.124,0.274c-0.19-0.452-0.384-0.995-0.576-1.583H240.456z"></path><g><path style="fill:#1B181E;stroke:#000000;stroke-linecap:round;stroke-linejoin:round;" d="M240.891,427.166c0,0,1.902,7,1.729,8c-1.211,2-3.976,2.834-3.976,2.834s-1.9-5.667-2.592-6.167c-1.037,1.5-2.939,5.667-2.939,5.667c-0.863-1,2.247-7.167,2.247-7.167L240.891,427.166z"></path><path style="fill:#1B181E;stroke:#000000;stroke-linecap:round;stroke-linejoin:round;" d="M222.986,427.166c0,0-2.041,7-1.855,8c1.299,2,4.268,2.834,4.268,2.834s2.042-5.667,2.784-6.167c1.113,1.5,4.269,5.667,4.269,5.667c0.929-1-3.526-7.167-3.526-7.167L222.986,427.166z"></path></g></g><g><line style="fill:none;stroke:#FFFFFF;stroke-linecap:round;stroke-linejoin:round;" x1="236.121" y1="437" x2="228.954" y2="437"></line><g><line style="fill:none;stroke:#FFFFFF;stroke-linecap:round;stroke-linejoin:round;" x1="236.222" y1="437.235" x2="229.889" y2="440.902"></line><line style="fill:none;stroke:#FFFFFF;stroke-linecap:round;stroke-linejoin:round;" x1="229.89" y1="437.235" x2="236.223" y2="440.902"></line></g><g><line style="fill:none;stroke:#FFFFFF;stroke-linecap:round;stroke-linejoin:round;" x1="236.222" y1="440.902" x2="229.889" y2="444.569"></line><line style="fill:none;stroke:#FFFFFF;stroke-linecap:round;stroke-linejoin:round;" x1="229.89" y1="440.902" x2="236.223" y2="444.569"></line></g></g></g></g></g></g></svg>