<svg xmlns="http://www.w3.org/2000/svg" width="500" height="500" version="1.1"><g id="x9084"><g><g><g><g><path style="fill:#170F1A;stroke:#000000;stroke-linecap:round;stroke-linejoin:round;" d="M260.594,438.125c0.158,0.955,0.255,1.525,0.255,1.525s-1.58,5.05-0.83,7.909c0.3,1.131,11.729,0.75,12.63,0.45s1.64-5.46,1.64-5.46s0.393-1.691,0.971-4.425H260.594z"></path></g><path style="opacity:0.5;fill:#FFFFFF;" d="M268.104,441.625c0,0-1.875,6.875-2.875,5.875s-1-5.25-0.25-6.625S267.729,440.875,268.104,441.625z"></path></g><path style="fill:#6E6E6E;stroke:#000000;stroke-linecap:round;stroke-linejoin:round;" d="M257.979,421.752c0,0-2.166,1.654-2.666,3.759c0.833,0.601,1.833,0.751,1.833,0.751s-2.166,3.309-2.333,4.962c0.833-0.451,2.166-0.15,2.166-0.15s-2,3.908-2,4.511c1.167-0.902,2.5-0.902,2.5-0.902s-1.499,3.609-1.166,4.812c1.666-0.902,2.666-0.902,2.666-0.902s-0.167,2.857,0.5,3.608c1.5-1.053,3.334-1.504,3.334-1.504s1.667,1.504,2.5,1.805c1.5-0.902,2.833-1.653,2.833-1.653s1.333,1.353,2.333,1.653c1.834-0.902,2.834-1.805,2.834-1.805s2.667,1.504,3.5,1.504c0.666-2.255-1-5.112-1-5.112l2.5-0.15c0,0-0.5-3.607-1.167-4.66c1.167,0.601,2.833,0.601,2.833,0.601s-1-4.059-1.833-4.66c0.833-0.15,2.667-0.451,2.667-0.451s-1.834-3.458-2.334-4.06c1,0.15,1.334-1.203,1.334-1.203L278.146,421c0,0-2.166,2.556-10.333,2.556S257.979,421.752,257.979,421.752z"></path><path style="fill:#E6E6E6;stroke:#000000;stroke-linecap:round;stroke-linejoin:round;" d="M268.188,420.625c-5.688,0-9.716-1.25-11.313-1.375c0,0.75,1.308,2.502,1.308,2.502c1.841,2.252,10.005,2.248,10.005,2.248s8.164,0.004,10.005-2.248c0,0,1.308-1.752,1.308-2.502C277.903,419.375,273.875,420.625,268.188,420.625z"></path></g><g><g><g><path style="fill:#170F1A;stroke:#000000;stroke-linecap:round;stroke-linejoin:round;" d="M239.406,438.125c-0.158,0.955-0.255,1.525-0.255,1.525s1.58,5.05,0.83,7.909c-0.3,1.131-11.729,0.75-12.63,0.45s-1.64-5.46-1.64-5.46s-0.393-1.691-0.971-4.425H239.406z"></path></g><path style="opacity:0.5;fill:#FFFFFF;" d="M231.896,441.625c0,0,1.875,6.875,2.875,5.875s1-5.25,0.25-6.625S232.271,440.875,231.896,441.625z"></path></g><path style="fill:#6E6E6E;stroke:#000000;stroke-linecap:round;stroke-linejoin:round;" d="M242.021,421.752c0,0,2.166,1.654,2.666,3.759c-0.833,0.601-1.833,0.751-1.833,0.751s2.166,3.309,2.333,4.962c-0.833-0.451-2.166-0.15-2.166-0.15s2,3.908,2,4.511c-1.167-0.902-2.5-0.902-2.5-0.902s1.499,3.609,1.166,4.812c-1.666-0.902-2.666-0.902-2.666-0.902s0.167,2.857-0.5,3.608c-1.5-1.053-3.334-1.504-3.334-1.504s-1.667,1.504-2.5,1.805c-1.5-0.902-2.833-1.653-2.833-1.653s-1.333,1.353-2.333,1.653c-1.834-0.902-2.834-1.805-2.834-1.805s-2.667,1.504-3.5,1.504c-0.666-2.255,1-5.112,1-5.112l-2.5-0.15c0,0,0.5-3.607,1.167-4.66c-1.167,0.601-2.833,0.601-2.833,0.601s1-4.059,1.833-4.66c-0.833-0.15-2.667-0.451-2.667-0.451s1.834-3.458,2.334-4.06c-1,0.15-1.334-1.203-1.334-1.203l1.667-1.503c0,0,2.166,2.556,10.333,2.556S242.021,421.752,242.021,421.752z"></path><g><path style="fill:#E6E6E6;stroke:#000000;stroke-linecap:round;stroke-linejoin:round;" d="M231.813,420.625c5.688,0,9.716-1.25,11.313-1.375c0,0.75-1.308,2.502-1.308,2.502c-1.841,2.252-10.005,2.248-10.005,2.248s-8.164,0.004-10.005-2.248c0,0-1.308-1.752-1.308-2.502C222.097,419.375,226.125,420.625,231.813,420.625z"></path></g></g></g></g></svg>