<svg xmlns="http://www.w3.org/2000/svg" width="500" height="500" version="1.1"><g id="x9085"><g><g><g><g><path style="fill:#6E6E6E;stroke:#000000;stroke-linecap:round;stroke-linejoin:round;" d="M239.313,439.646c0,0,2.187-1.896,3.187-3.146c-0.405-0.608-1.632-2.365-2.082-3.01l0.582-3.24l-1.75-8.5c0,0-5.75,0.25-10,0.5c-4.75,2.5-6.25,5.5-6.25,5.5l1,4.75l-1.25,3.25c1,1,1.75,2,1.75,2s0.021,5.141,0.961,8.25h14.82C240.365,442.845,239.313,439.646,239.313,439.646z"></path><path style="fill:#D1CCCD;stroke:#000000;stroke-linecap:round;stroke-linejoin:round;" d="M225.461,446c0.269,0.89,0.61,1.623,1.052,2.01c3.487,0.74,11.513,1.357,13.625-0.451c0.087-0.508,0.129-1.033,0.143-1.559H225.461z"></path><path style="fill:none;stroke:#000000;stroke-linecap:round;stroke-linejoin:round;" d="M239.313,439.646l-4.563,3.104C233.25,442.5,228,441,228,441l7-0.75"></path><path style="fill:#6E6E6E;stroke:#000000;stroke-linecap:round;stroke-linejoin:round;" d="M232.75,422.25c0,0,3.75,4.5,3.75,6s-9,9.25-9.5,10.25"></path></g><circle style="fill:#787878;stroke:#000000;stroke-linecap:round;stroke-linejoin:round;" cx="233" cy="428.25" r="2.5"></circle></g><g><path style="fill:#D1CCCD;stroke:#000000;stroke-linecap:round;stroke-linejoin:round;" d="M231,421.75c0,0-5.5,5-5.75,6.5c1.25,2.5,1.25,2.5,1.25,2.5l-2.5,2.5c-2.25-2.25-5.75-2.25-6-5.5c2-4,2.25-10.5,2.25-10.5l1.25-2.5C221.5,414.75,224.25,422,231,421.75z"></path><ellipse style="fill:#6E6E6E;stroke:#000000;stroke-linecap:round;stroke-linejoin:round;" cx="223" cy="429.375" rx="1.25" ry="1.875"></ellipse><path style="fill:#D1CCCD;stroke:#000000;stroke-linecap:round;stroke-linejoin:round;" d="M234,421.75c0,0,5.5,5,5.75,6.5c-1.25,2.5-1.25,2.5-1.25,2.5l2.5,2.5c2.25-2.25,5.5-3,5.75-6.25c-2.5-3.5-2-9.75-2-9.75l-1.25-2.5C243.5,414.75,240.75,422,234,421.75z"></path><ellipse style="fill:#6E6E6E;stroke:#000000;stroke-linecap:round;stroke-linejoin:round;" cx="242" cy="429.375" rx="1.25" ry="1.875"></ellipse></g></g><g><g><g><path style="fill:#6E6E6E;stroke:#000000;stroke-linecap:round;stroke-linejoin:round;" d="M260.688,439.646c0,0-2.188-1.896-3.188-3.146c0.405-0.608,1.632-2.365,2.082-3.01L259,430.25l1.75-8.5c0,0,5.75,0.25,10,0.5c4.75,2.5,6.25,5.5,6.25,5.5l-1,4.75l1.25,3.25c-1,1-1.75,2-1.75,2s-0.021,5.141-0.961,8.25h-14.82C259.635,442.845,260.688,439.646,260.688,439.646z"></path><path style="fill:#D1CCCD;stroke:#000000;stroke-linecap:round;stroke-linejoin:round;" d="M274.539,446c-0.27,0.89-0.61,1.623-1.053,2.01c-3.486,0.74-11.513,1.357-13.625-0.451c-0.087-0.508-0.129-1.033-0.143-1.559H274.539z"></path><path style="fill:none;stroke:#000000;stroke-linecap:round;stroke-linejoin:round;" d="M260.688,439.646l4.563,3.104c1.5-0.25,6.75-1.75,6.75-1.75l-7-0.75"></path><path style="fill:#6E6E6E;stroke:#000000;stroke-linecap:round;stroke-linejoin:round;" d="M267.25,422.25c0,0-3.75,4.5-3.75,6s9,9.25,9.5,10.25"></path></g><circle style="fill:#787878;stroke:#000000;stroke-linecap:round;stroke-linejoin:round;" cx="267" cy="428.25" r="2.5"></circle></g><g><path style="fill:#D1CCCD;stroke:#000000;stroke-linecap:round;stroke-linejoin:round;" d="M269,421.75c0,0,5.5,5,5.75,6.5c-1.25,2.5-1.25,2.5-1.25,2.5l2.5,2.5c2.25-2.25,5.75-2.25,6-5.5c-2-4-2.25-10.5-2.25-10.5l-1.25-2.5C278.5,414.75,275.75,422,269,421.75z"></path><ellipse style="fill:#6E6E6E;stroke:#000000;stroke-linecap:round;stroke-linejoin:round;" cx="277" cy="429.375" rx="1.25" ry="1.875"></ellipse><path style="fill:#D1CCCD;stroke:#000000;stroke-linecap:round;stroke-linejoin:round;" d="M266,421.75c0,0-5.5,5-5.75,6.5c1.25,2.5,1.25,2.5,1.25,2.5l-2.5,2.5c-2.25-2.25-5.5-3-5.75-6.25c2.5-3.5,2-9.75,2-9.75l1.25-2.5C256.5,414.75,259.25,422,266,421.75z"></path><ellipse style="fill:#6E6E6E;stroke:#000000;stroke-linecap:round;stroke-linejoin:round;" cx="258" cy="429.375" rx="1.25" ry="1.875"></ellipse></g></g></g></g></svg>