<svg xmlns="http://www.w3.org/2000/svg" width="500" height="500" version="1.1"><g id="x9086"><g><g><g><g><g><path style="fill:#6E6E6E;stroke:#000000;stroke-linecap:round;stroke-linejoin:round;" d="M274.364,442.552c0,0,2.224-10.253,2.263-10.302l-8.375,0.688l-9.438-1.438c0.099,0.124,1.03,2.081,1.126,2.192c0.549,3.407,0.978,5.954,0.978,5.954s-1.163,3.74-1.011,6.604h13.699C274.061,444.651,274.364,442.552,274.364,442.552z"></path><path style="fill:#505050;" d="M260.939,436.375l0.375,2.875c0,0,1.5-1.875,6.125-1.625c4.121,0.223,6.75,2.75,6.75,2.75l1.25-4.875l-2.875-4.125l-4.313,1.563l-4.938-0.563L260.939,436.375z"></path><g><line style="fill:none;stroke:#000000;stroke-linecap:round;stroke-linejoin:round;" x1="260.398" y1="445.833" x2="266.314" y2="444.102"></line><path style="fill:none;stroke:#000000;stroke-linecap:round;stroke-linejoin:round;" d="M261.064,440c0,0,5.5,5.25,11.667,6"></path></g></g><path style="fill:#2A2A2A;stroke:#000000;stroke-linecap:round;stroke-linejoin:round;" d="M259.907,446.25c0.024,0.465,0.081,0.909,0.186,1.309c0.299,1.136,11.724,0.751,12.626,0.451c0.326-0.108,0.631-0.854,0.888-1.76H259.907z"></path></g><g><g><circle style="fill:#2A2A2B;stroke:#000000;stroke-linecap:round;stroke-linejoin:round;" cx="267.653" cy="439.953" r="1.771"></circle><g><path style="fill:#FFFFFF;" d="M266.685,440.911c-0.006,0.014-0.01,0.021-0.011,0.021c0.108-0.181,1.06-0.958,1.882-1.573l0,0c0.124-0.094,0.149-0.27,0.056-0.395c-0.094-0.124-0.271-0.149-0.394-0.056l0,0c-1.291,0.968-1.987,1.582-2.067,1.823l0,0c-0.05,0.148,0.03,0.307,0.178,0.356C266.476,441.138,266.635,441.058,266.685,440.911L266.685,440.911z"></path></g><g><path style="fill:#FFFFFF;" d="M266.636,438.888l1.22,2.345l0,0c0.071,0.138,0.242,0.192,0.379,0.12c0.138-0.071,0.191-0.241,0.12-0.379l0,0l-1.219-2.345l0,0c-0.071-0.139-0.242-0.192-0.379-0.12C266.619,438.58,266.565,438.75,266.636,438.888L266.636,438.888z"></path></g></g><g><circle style="fill:#2A2A2B;stroke:#000000;stroke-linecap:round;stroke-linejoin:round;" cx="267.873" cy="435.285" r="1.771"></circle><g><path style="fill:#FFFFFF;" d="M266.904,436.243c-0.006,0.014-0.01,0.021-0.011,0.021c0.108-0.181,1.06-0.958,1.882-1.573l0,0c0.124-0.094,0.149-0.27,0.056-0.395c-0.094-0.124-0.271-0.149-0.394-0.056l0,0c-1.291,0.968-1.987,1.582-2.067,1.823l0,0c-0.05,0.148,0.03,0.307,0.178,0.356C266.695,436.47,266.854,436.39,266.904,436.243L266.904,436.243z"></path></g><g><path style="fill:#FFFFFF;" d="M266.855,434.22l1.22,2.345l0,0c0.071,0.138,0.242,0.192,0.379,0.12c0.138-0.071,0.191-0.241,0.12-0.379l0,0l-1.219-2.345l0,0c-0.071-0.139-0.242-0.192-0.379-0.12C266.839,433.912,266.785,434.082,266.855,434.22L266.855,434.22z"></path></g></g></g></g><g><g><path style="fill:#6E6E6E;stroke:#000000;stroke-linecap:round;stroke-linejoin:round;" d="M277.465,424.25c0,0-7.142,2.332-8.881,8.666c1.739-0.166,3.112-0.916,3.112-0.916s2.016,4.917,3.389,4.5s1.373-2,1.373-2s3.388,0.25,3.662-1.167c0.275-1.417-1.373-4.167-1.373-4.167s1.648-3.999,1.373-4.916c-0.274-0.917-1.739-2.834-1.739-2.834L277.465,424.25z"></path></g><g><path style="fill:#6E6E6E;stroke:#000000;stroke-linecap:round;stroke-linejoin:round;" d="M258.985,424.25c0,0,7.142,2.332,8.881,8.666c-1.739-0.166-3.112-0.916-3.112-0.916s-2.016,4.917-3.389,4.5s-1.373-2-1.373-2s-3.388,0.25-3.662-1.167c-0.275-1.417,1.373-4.167,1.373-4.167s-1.648-3.999-1.373-4.916c0.274-0.917,1.739-2.834,1.739-2.834L258.985,424.25z"></path></g></g></g><g><g><g><g><path style="fill:#6E6E6E;stroke:#000000;stroke-linecap:round;stroke-linejoin:round;" d="M225.636,442.552c0,0-2.224-10.253-2.263-10.302l8.375,0.688l9.438-1.438c-0.099,0.124-1.03,2.081-1.126,2.192c-0.549,3.407-0.978,5.954-0.978,5.954s1.163,3.74,1.011,6.604h-13.699C225.939,444.651,225.636,442.552,225.636,442.552z"></path><path style="fill:#505050;" d="M239.061,436.375l-0.375,2.875c0,0-1.5-1.875-6.125-1.625c-4.121,0.223-6.75,2.75-6.75,2.75l-1.25-4.875l2.875-4.125l4.313,1.563l4.938-0.563L239.061,436.375z"></path><g><line style="fill:none;stroke:#000000;stroke-linecap:round;stroke-linejoin:round;" x1="239.602" y1="445.833" x2="233.686" y2="444.102"></line><path style="fill:none;stroke:#000000;stroke-linecap:round;stroke-linejoin:round;" d="M238.936,440c0,0-5.5,5.25-11.667,6"></path></g></g><path style="fill:#2A2A2A;stroke:#000000;stroke-linecap:round;stroke-linejoin:round;" d="M240.093,446.25c-0.024,0.465-0.081,0.909-0.186,1.309c-0.299,1.136-11.724,0.751-12.626,0.451c-0.326-0.108-0.631-0.854-0.888-1.76H240.093z"></path></g><g><g><circle style="fill:#2A2A2B;stroke:#000000;stroke-linecap:round;stroke-linejoin:round;" cx="232.347" cy="439.953" r="1.771"></circle><g><path style="fill:#FFFFFF;" d="M233.315,440.911c0.006,0.014,0.01,0.021,0.011,0.021c-0.108-0.181-1.06-0.958-1.882-1.573l0,0c-0.124-0.094-0.149-0.27-0.056-0.395c0.094-0.124,0.271-0.149,0.394-0.056l0,0c1.291,0.968,1.987,1.582,2.067,1.823l0,0c0.05,0.148-0.03,0.307-0.178,0.356C233.524,441.138,233.365,441.058,233.315,440.911L233.315,440.911z"></path></g><g><path style="fill:#FFFFFF;" d="M233.364,438.888l-1.22,2.345l0,0c-0.071,0.138-0.242,0.192-0.379,0.12c-0.138-0.071-0.191-0.241-0.12-0.379l0,0l1.219-2.345l0,0c0.071-0.139,0.242-0.192,0.379-0.12C233.381,438.58,233.435,438.75,233.364,438.888L233.364,438.888z"></path></g></g><g><circle style="fill:#2A2A2B;stroke:#000000;stroke-linecap:round;stroke-linejoin:round;" cx="232.127" cy="435.285" r="1.771"></circle><g><path style="fill:#FFFFFF;" d="M233.096,436.243c0.006,0.014,0.01,0.021,0.011,0.021c-0.108-0.181-1.06-0.958-1.882-1.573l0,0c-0.124-0.094-0.149-0.27-0.056-0.395c0.094-0.124,0.271-0.149,0.394-0.056l0,0c1.291,0.968,1.987,1.582,2.067,1.823l0,0c0.05,0.148-0.03,0.307-0.178,0.356C233.305,436.47,233.146,436.39,233.096,436.243L233.096,436.243z"></path></g><g><path style="fill:#FFFFFF;" d="M233.145,434.22l-1.22,2.345l0,0c-0.071,0.138-0.242,0.192-0.379,0.12c-0.138-0.071-0.191-0.241-0.12-0.379l0,0l1.219-2.345l0,0c0.071-0.139,0.242-0.192,0.379-0.12C233.161,433.912,233.215,434.082,233.145,434.22L233.145,434.22z"></path></g></g></g></g><g><g><path style="fill:#6E6E6E;stroke:#000000;stroke-linecap:round;stroke-linejoin:round;" d="M222.535,424.25c0,0,7.142,2.332,8.881,8.666c-1.739-0.166-3.112-0.916-3.112-0.916s-2.016,4.917-3.389,4.5s-1.373-2-1.373-2s-3.388,0.25-3.662-1.167c-0.275-1.417,1.373-4.167,1.373-4.167s-1.648-3.999-1.373-4.916c0.274-0.917,1.739-2.834,1.739-2.834L222.535,424.25z"></path></g><g><path style="fill:#6E6E6E;stroke:#000000;stroke-linecap:round;stroke-linejoin:round;" d="M241.015,424.25c0,0-7.142,2.332-8.881,8.666c1.739-0.166,3.112-0.916,3.112-0.916s2.016,4.917,3.389,4.5s1.373-2,1.373-2s3.388,0.25,3.662-1.167c0.275-1.417-1.373-4.167-1.373-4.167s1.648-3.999,1.373-4.916c-0.274-0.917-1.739-2.834-1.739-2.834L241.015,424.25z"></path></g></g></g></g></g></svg>