<svg xmlns="http://www.w3.org/2000/svg" width="500" height="500" version="1.1"><g id="x9087"><g><g><path style="fill:#6E6E6E;stroke:#000000;stroke-linecap:round;stroke-linejoin:round;" d="M274.134,445c0.524-2.195,1.166-5.334,1.166-5.334s4.666-10.166,5-11.666c-1.166-1.5-2.333-2.5-2.333-2.5l-0.667,1.666c0,0-3.333,1.667-9.833,1.667c-5.383,0-7.222-0.801-7.695-1.076c-0.099-0.057-0.805-2.424-0.805-2.424c-0.5,0-2.001,2.167-2.167,2.667c0.334,2.5,3.334,11.5,3.334,11.5s-0.888,2.455-0.887,4.897C264.229,443.219,269.134,444.245,274.134,445z"></path><g><path style="fill:none;stroke:#000000;stroke-linecap:round;stroke-linejoin:round;" d="M261.967,430c0,0,0.833,7.833,1.5,8.833c-0.5,1.333-1,5.167-1,5.167"></path><path style="fill:none;stroke:#000000;stroke-linecap:round;stroke-linejoin:round;" d="M271.634,430.333l-1.167,9.333c0.167,0.667,0.5,3.334,0.5,3.334"></path></g><g><g><g><path style="fill:#494949;stroke:#000000;stroke-linecap:round;stroke-linejoin:round;" d="M263.485,435.77l8-3l0,0c0.517-0.194,0.778-0.771,0.585-1.288c-0.194-0.517-0.771-0.778-1.288-0.585l0,0l-8,3l0,0c-0.517,0.194-0.778,0.771-0.585,1.288C262.392,435.701,262.968,435.963,263.485,435.77L263.485,435.77z"></path></g><g><path style="fill:#494949;stroke:#000000;stroke-linecap:round;stroke-linejoin:round;" d="M271.485,433.896l-8-3l0,0c-0.518-0.193-1.094,0.068-1.288,0.585c-0.193,0.518,0.068,1.094,0.585,1.288l0,0l8,3l0,0c0.518,0.193,1.094-0.068,1.288-0.585C272.264,434.667,272.002,434.091,271.485,433.896L271.485,433.896z"></path></g></g><g><g><path style="fill:#494949;stroke:#000000;stroke-linecap:round;stroke-linejoin:round;" d="M263.485,439.27l8-3l0,0c0.517-0.194,0.778-0.771,0.585-1.288c-0.194-0.517-0.771-0.778-1.288-0.585l0,0l-8,3l0,0c-0.517,0.194-0.778,0.771-0.585,1.288C262.392,439.201,262.968,439.463,263.485,439.27L263.485,439.27z"></path></g><g><path style="fill:#494949;stroke:#000000;stroke-linecap:round;stroke-linejoin:round;" d="M271.485,437.396l-8-3l0,0c-0.518-0.193-1.094,0.068-1.288,0.585c-0.193,0.518,0.068,1.094,0.585,1.288l0,0l8,3l0,0c0.518,0.193,1.094-0.068,1.288-0.585C272.264,438.167,272.002,437.591,271.485,437.396L271.485,437.396z"></path></g></g><g><g><path style="fill:#494949;stroke:#000000;stroke-linecap:round;stroke-linejoin:round;" d="M263.485,442.77l8-3l0,0c0.517-0.194,0.778-0.771,0.585-1.288c-0.194-0.517-0.771-0.778-1.288-0.585l0,0l-8,3l0,0c-0.517,0.194-0.778,0.771-0.585,1.288C262.392,442.701,262.968,442.963,263.485,442.77L263.485,442.77z"></path></g><g><path style="fill:#494949;stroke:#000000;stroke-linecap:round;stroke-linejoin:round;" d="M271.485,440.896l-8-3l0,0c-0.518-0.193-1.094,0.068-1.288,0.585c-0.193,0.518,0.068,1.094,0.585,1.288l0,0l8,3l0,0c0.518,0.193,1.094-0.068,1.288-0.585C272.264,441.667,272.002,441.091,271.485,440.896L271.485,440.896z"></path></g></g></g><path style="fill:#494949;stroke:#000000;stroke-linecap:round;stroke-linejoin:round;" d="M259.247,444.397c0,1.141,0.192,2.278,0.763,3.161c2.624,1.441,12.29,1.107,13.29,0.274c0.385-1.217,0.507-1.962,0.834-3.333C269.467,443,264.229,443.219,259.247,444.397z"></path><path style="fill:#6E6E6E;stroke:#000000;stroke-linecap:round;stroke-linejoin:round;" d="M278.8,431.166c0,0,0.251,0.584,0.584,1.251c-1.084,3-1.5,3.917-1.5,3.917L275.467,438l0.5-4.167C275.967,433.833,278.466,431.999,278.8,431.166z"></path></g><g><path style="fill:#6E6E6E;stroke:#000000;stroke-linecap:round;stroke-linejoin:round;" d="M225.865,445c-0.524-2.195-1.166-5.334-1.166-5.334s-4.666-10.166-5-11.666c1.166-1.5,2.333-2.5,2.333-2.5l0.667,1.666c0,0,3.333,1.667,9.833,1.667c5.383,0,7.222-0.801,7.695-1.076c0.099-0.057,0.805-2.424,0.805-2.424c0.5,0,2.001,2.167,2.167,2.667c-0.334,2.5-3.334,11.5-3.334,11.5s0.888,2.455,0.887,4.897C235.771,443.219,230.865,444.245,225.865,445z"></path><g><path style="fill:none;stroke:#000000;stroke-linecap:round;stroke-linejoin:round;" d="M238.032,430c0,0-0.833,7.833-1.5,8.833c0.5,1.333,1,5.167,1,5.167"></path><path style="fill:none;stroke:#000000;stroke-linecap:round;stroke-linejoin:round;" d="M228.365,430.333l1.167,9.333c-0.167,0.667-0.5,3.334-0.5,3.334"></path></g><g><g><g><path style="fill:#494949;stroke:#000000;stroke-linecap:round;stroke-linejoin:round;" d="M236.514,435.77l-8-3l0,0c-0.517-0.194-0.778-0.771-0.585-1.288c0.194-0.517,0.771-0.778,1.288-0.585l0,0l8,3l0,0c0.517,0.194,0.778,0.771,0.585,1.288C237.607,435.701,237.031,435.963,236.514,435.77L236.514,435.77z"></path></g><g><path style="fill:#494949;stroke:#000000;stroke-linecap:round;stroke-linejoin:round;" d="M228.514,433.896l8-3l0,0c0.518-0.193,1.094,0.068,1.288,0.585c0.193,0.518-0.068,1.094-0.585,1.288l0,0l-8,3l0,0c-0.518,0.193-1.094-0.068-1.288-0.585C227.735,434.667,227.997,434.091,228.514,433.896L228.514,433.896z"></path></g></g><g><g><path style="fill:#494949;stroke:#000000;stroke-linecap:round;stroke-linejoin:round;" d="M236.514,439.27l-8-3l0,0c-0.517-0.194-0.778-0.771-0.585-1.288c0.194-0.517,0.771-0.778,1.288-0.585l0,0l8,3l0,0c0.517,0.194,0.778,0.771,0.585,1.288C237.607,439.201,237.031,439.463,236.514,439.27L236.514,439.27z"></path></g><g><path style="fill:#494949;stroke:#000000;stroke-linecap:round;stroke-linejoin:round;" d="M228.514,437.396l8-3l0,0c0.518-0.193,1.094,0.068,1.288,0.585c0.193,0.518-0.068,1.094-0.585,1.288l0,0l-8,3l0,0c-0.518,0.193-1.094-0.068-1.288-0.585C227.735,438.167,227.997,437.591,228.514,437.396L228.514,437.396z"></path></g></g><g><g><path style="fill:#494949;stroke:#000000;stroke-linecap:round;stroke-linejoin:round;" d="M236.514,442.77l-8-3l0,0c-0.517-0.194-0.778-0.771-0.585-1.288c0.194-0.517,0.771-0.778,1.288-0.585l0,0l8,3l0,0c0.517,0.194,0.778,0.771,0.585,1.288C237.607,442.701,237.031,442.963,236.514,442.77L236.514,442.77z"></path></g><g><path style="fill:#494949;stroke:#000000;stroke-linecap:round;stroke-linejoin:round;" d="M228.514,440.896l8-3l0,0c0.518-0.193,1.094,0.068,1.288,0.585c0.193,0.518-0.068,1.094-0.585,1.288l0,0l-8,3l0,0c-0.518,0.193-1.094-0.068-1.288-0.585C227.735,441.667,227.997,441.091,228.514,440.896L228.514,440.896z"></path></g></g></g><path style="fill:#494949;stroke:#000000;stroke-linecap:round;stroke-linejoin:round;" d="M240.752,444.397c0,1.141-0.192,2.278-0.763,3.161c-2.624,1.441-12.29,1.107-13.29,0.274c-0.385-1.217-0.507-1.962-0.834-3.333C230.532,443,235.771,443.219,240.752,444.397z"></path><path style="fill:#6E6E6E;stroke:#000000;stroke-linecap:round;stroke-linejoin:round;" d="M221.199,431.166c0,0-0.251,0.584-0.584,1.251c1.084,3,1.5,3.917,1.5,3.917l2.417,1.666l-0.5-4.167C224.032,433.833,221.533,431.999,221.199,431.166z"></path></g></g></g></svg>