<svg xmlns="http://www.w3.org/2000/svg" width="500" height="500" version="1.1"><g id="x9088"><g><g><path style="fill:#6E6E6E;stroke:#000000;stroke-linecap:round;stroke-linejoin:round;" d="M261.494,439.167c0,0,2.251-1.668,5.584-1.584s6.166,1.584,6.166,1.584l-0.25,4.416l-11.916,0.167L261.494,439.167z"></path><path style="fill:#4F3A39;stroke:#000000;stroke-linecap:round;stroke-linejoin:round;" d="M275.661,437.083c0,0-3,1.167-3.5,1.75c-0.273,0.319-0.597,1.585-0.833,2.667h-1.087c-0.017-0.441-0.114-2.643-0.413-3.167c-0.333-0.583-1.5-2-2.084-2s-3.083,1.418-3.5,1.834c-0.284,0.283-0.839,2.116-1.163,3.333h-0.427c-0.18-0.944-0.439-2.315-0.493-2.583c-0.083-0.416-1.583-1.667-1.583-1.667s-0.084,1,0.083,2.333c-0.167,0.583-0.417,2.667-0.417,2.667l0.018,0.001c-0.328,1.668-0.584,3.795-0.186,5.308c0.299,1.136,11.723,0.751,12.625,0.451c0.647-0.216,1.211-2.922,1.479-4.439C274.181,443.57,275.161,439,275.661,437.083z"></path><path style="fill:#311C1B;" d="M264.911,442.333c-0.135,0.402,3.167-0.333,4-0.333c-0.834-0.75-2.75-1-2.75-1S265.078,441.833,264.911,442.333z"></path><path style="fill:none;stroke:#000000;stroke-linecap:round;stroke-linejoin:round;" d="M263.078,441.917l-1.25,2.083c0,0,2.75,1.083,4.083,1.25s4.834-0.499,5.167-1.083s-0.417-2.334-0.417-2.334"></path></g><g><path style="fill:#6E6E6E;stroke:#000000;stroke-linecap:round;stroke-linejoin:round;" d="M238.506,439.167c0,0-2.251-1.668-5.584-1.584s-6.166,1.584-6.166,1.584l0.25,4.416l11.916,0.167L238.506,439.167z"></path><path style="fill:#4F3A39;stroke:#000000;stroke-linecap:round;stroke-linejoin:round;" d="M224.339,437.083c0,0,3,1.167,3.5,1.75c0.273,0.319,0.597,1.585,0.833,2.667h1.087c0.017-0.441,0.114-2.643,0.413-3.167c0.333-0.583,1.5-2,2.084-2s3.083,1.418,3.5,1.834c0.284,0.283,0.839,2.116,1.163,3.333h0.427c0.18-0.944,0.439-2.315,0.493-2.583c0.083-0.416,1.583-1.667,1.583-1.667s0.084,1-0.083,2.333c0.167,0.583,0.417,2.667,0.417,2.667l-0.018,0.001c0.328,1.668,0.584,3.795,0.186,5.308c-0.299,1.136-11.723,0.751-12.625,0.451c-0.647-0.216-1.211-2.922-1.479-4.439C225.819,443.57,224.839,439,224.339,437.083z"></path><path style="fill:#311C1B;" d="M235.089,442.333c0.135,0.402-3.167-0.333-4-0.333c0.834-0.75,2.75-1,2.75-1S234.922,441.833,235.089,442.333z"></path><path style="fill:none;stroke:#000000;stroke-linecap:round;stroke-linejoin:round;" d="M236.922,441.917l1.25,2.083c0,0-2.75,1.083-4.083,1.25s-4.834-0.499-5.167-1.083s0.417-2.334,0.417-2.334"></path></g></g></g></svg>