<svg xmlns="http://www.w3.org/2000/svg" width="500" height="500" version="1.1"><g id="x9089"><g><g><path style="fill:#6E6E6E;stroke:#000000;stroke-linecap:round;stroke-linejoin:round;" d="M223.573,430.166c0,0,2.167,15.168,3,17.334c2.167,1.166,11.167,1.5,13.5,0.333c0.333-2.5-0.5-8.333-0.5-8.333l1.5-8.667c0,0-1.982-4.469-8.5-4.333C224.573,426.666,223.573,430.166,223.573,430.166z"></path><linearGradient id="shoesXMLID_19_" gradientUnits="userSpaceOnUse" x1="231.9063" y1="445.916" x2="235.9067" y2="445.916"><stop offset="0" style="stop-color:#FFFFFF"></stop><stop offset="1" style="stop-color:#FFFFFF"></stop></linearGradient><ellipse style="opacity:0.5;fill:url(#shoesXMLID_19_);" cx="233.906" cy="445.916" rx="2" ry="0.605"></ellipse><g><path style="fill:#6E6E6E;stroke:#000000;stroke-linecap:round;stroke-linejoin:round;" d="M223.907,435c-0.167,2.166,0.5,4.333,0.5,4.333c0.667-0.166,1.833-2.833,7.667-3s8.167,2.5,8.167,2.5s1-3.334,0.833-4s-3.5-3.5-9.167-3.333C225.909,431.677,224.574,434,223.907,435z"></path><path style="fill:#808080;stroke:#000000;stroke-linecap:round;stroke-linejoin:round;" d="M226.073,433.666l0.333,4.5l-1.833,1.667c0,0-0.667-3.499-0.667-4.833C224.073,433.666,226.073,433.666,226.073,433.666z"></path></g></g><g><path style="fill:#6E6E6E;stroke:#000000;stroke-linecap:round;stroke-linejoin:round;" d="M276.425,430.166c0,0-2.166,15.168-3,17.334c-2.166,1.166-11.166,1.5-13.5,0.333c-0.333-2.5,0.5-8.333,0.5-8.333l-1.5-8.667c0,0,1.982-4.469,8.5-4.333C275.425,426.666,276.425,430.166,276.425,430.166z"></path><linearGradient id="shoesXMLID_20_" gradientUnits="userSpaceOnUse" x1="268.0947" y1="445.916" x2="272.0957" y2="445.916" gradientTransform="matrix(-1 0 0 1 536.1875 0)"><stop offset="0" style="stop-color:#FFFFFF"></stop><stop offset="1" style="stop-color:#FFFFFF"></stop></linearGradient><ellipse style="opacity:0.5;fill:url(#shoesXMLID_20_);" cx="266.092" cy="445.916" rx="2" ry="0.605"></ellipse><g><path style="fill:#6E6E6E;stroke:#000000;stroke-linecap:round;stroke-linejoin:round;" d="M276.092,435c0.167,2.166-0.5,4.333-0.5,4.333c-0.667-0.166-1.833-2.833-7.667-3c-5.833-0.167-8.166,2.5-8.166,2.5s-1-3.334-0.834-4c0.167-0.666,3.5-3.5,9.167-3.333C274.089,431.677,275.425,434,276.092,435z"></path><path style="fill:#808080;stroke:#000000;stroke-linecap:round;stroke-linejoin:round;" d="M273.925,433.666l-0.333,4.5l1.833,1.667c0,0,0.667-3.499,0.667-4.833C275.925,433.666,273.925,433.666,273.925,433.666z"></path></g></g></g></g></svg>