<svg xmlns="http://www.w3.org/2000/svg" width="500" height="500" version="1.1"><g id="x009"><g><g><path style="fill:#E4BC96;stroke:#000000;stroke-linecap:round;stroke-linejoin:round;" d="M225.976,446.251c0,0,0.714,2.938,1.167,3.333c0.667,0.583,12.083,0.834,12.833-0.333c0.417-1.334,0.083-2.334,0.083-2.334L225.976,446.251z"></path><path style="fill:#6E6E6E;stroke:#000000;stroke-linecap:round;stroke-linejoin:round;" d="M221.726,423.667c0,0-0.917,1.583-1,2.417s3,11.001,3.75,12.417c0.5,2.416,1.333,8.416,2.333,9.333s11.333,0.833,13-0.167c0.417-2.083-0.8-8.25-0.8-8.25l2.8-14.25l-0.417-1.5l-0.917,1.25c0,0-1.667,0.667-8.917,0.667s-9.333-0.333-9.333-0.333L221.726,423.667z"></path><path style="fill:none;stroke:#000000;stroke-linecap:round;stroke-linejoin:round;" d="M224.143,431.834c0,0,1.917,5.999,2,6.333s0.417,2.834,0.417,2.834"></path><path style="fill:#6E6E6E;stroke:#000000;stroke-linecap:round;stroke-linejoin:round;" d="M221.143,429.501c0,0,0.417,2.333,0.917,2.583s3.583,0,3.583,0s0.05-2.501-0.2-2.667S221.143,429.501,221.143,429.501z"></path><path style="fill:#6E6E6E;stroke:#000000;stroke-linecap:round;stroke-linejoin:round;" d="M241.563,429.501c0,0-0.295,2.333-0.649,2.583c-0.354,0.25-1.686,0.199-1.686,0.199s-0.035-2.501,0.142-2.667S241.563,429.501,241.563,429.501z"></path><path style="fill:#6E6E6E;stroke:#000000;stroke-linecap:round;stroke-linejoin:round;" d="M225.511,444.45c0,0,0.973-1.365,1.56-1.699c0.586-0.334,10.644-0.333,11.146-0.25c0.503,0.083,1.593,1.583,1.593,1.583s-0.167-2.167-0.419-2.5s-0.872-1.167-1.375-1.167s-10.693,0.25-10.945,0.25s-1.845,1.251-1.928,1.834S225.511,444.45,225.511,444.45z"></path><path style="fill:#6E6E6E;stroke:#000000;stroke-linecap:round;stroke-linejoin:round;" d="M227.976,443.167c-0.125,0.042-0.917-2.625-0.708-2.833s1.5-0.459,1.667-0.292s0.833,2.666,0.667,2.875S227.976,443.167,227.976,443.167z"></path></g><g><path style="fill:#E4BC96;stroke:#000000;stroke-linecap:round;stroke-linejoin:round;" d="M274.024,446.251c0,0-0.715,2.938-1.167,3.333c-0.667,0.583-12.083,0.834-12.833-0.333c-0.417-1.334-0.084-2.334-0.084-2.334L274.024,446.251z"></path><path style="fill:#6E6E6E;stroke:#000000;stroke-linecap:round;stroke-linejoin:round;" d="M278.274,423.667c0,0,0.916,1.583,1,2.417c0.083,0.834-3,11.001-3.75,12.417c-0.5,2.416-1.334,8.416-2.334,9.333s-11.334,0.833-13-0.167c-0.416-2.083,0.8-8.25,0.8-8.25l-2.8-14.25l0.417-1.5l0.917,1.25c0,0,1.666,0.667,8.916,0.667s9.334-0.333,9.334-0.333L278.274,423.667z"></path><path style="fill:none;stroke:#000000;stroke-linecap:round;stroke-linejoin:round;" d="M275.857,431.834c0,0-1.917,5.999-2,6.333s-0.417,2.834-0.417,2.834"></path><path style="fill:#6E6E6E;stroke:#000000;stroke-linecap:round;stroke-linejoin:round;" d="M278.857,429.501c0,0-0.417,2.333-0.917,2.583s-3.583,0-3.583,0s-0.05-2.501,0.2-2.667S278.857,429.501,278.857,429.501z"></path><path style="fill:#6E6E6E;stroke:#000000;stroke-linecap:round;stroke-linejoin:round;" d="M258.437,429.501c0,0,0.295,2.333,0.648,2.583s1.686,0.199,1.686,0.199s0.035-2.501-0.141-2.667C260.452,429.45,258.437,429.501,258.437,429.501z"></path><path style="fill:#6E6E6E;stroke:#000000;stroke-linecap:round;stroke-linejoin:round;" d="M274.489,444.45c0,0-0.974-1.365-1.561-1.699c-0.586-0.334-10.643-0.333-11.146-0.25s-1.593,1.583-1.593,1.583s0.168-2.167,0.419-2.5s0.872-1.167,1.375-1.167s10.693,0.25,10.944,0.25c0.252,0,1.846,1.251,1.929,1.834S274.489,444.45,274.489,444.45z"></path><path style="fill:#6E6E6E;stroke:#000000;stroke-linecap:round;stroke-linejoin:round;" d="M272.024,443.167c0.125,0.042,0.916-2.625,0.708-2.833s-1.501-0.459-1.667-0.292s-0.833,2.666-0.666,2.875C270.565,443.126,272.024,443.167,272.024,443.167z"></path></g></g></g></svg>