<svg xmlns="http://www.w3.org/2000/svg" width="500" height="500" version="1.1"><g id="x9090"><g><g><g><path style="fill:#6E6E6E;stroke:#000000;stroke-linecap:round;stroke-linejoin:round;" d="M239.458,440.875h-1.905c-0.119-0.811-0.424-2.396-1.061-3.125c-0.875-1-6.875-0.625-7.375,0c-0.372,0.465-0.467,2.245-0.492,3.125h-3.323c0.234,1.062,0.376,1.677,0.376,1.677s0.744,5.157,1.646,5.458c0.902,0.3,12.326,0.685,12.625-0.451C240.469,445.582,239.875,442.554,239.458,440.875z"></path><polyline style="fill:none;stroke:#000000;stroke-linecap:round;stroke-linejoin:round;" points="227.742,441.25 230.992,441.625 232.242,444.25 "></polyline><polyline style="fill:none;stroke:#000000;stroke-linecap:round;stroke-linejoin:round;" points="234.867,444.375 235.742,441.5 238.117,440.875 "></polyline></g><g><g><line style="fill:none;stroke:#000000;stroke-linecap:round;stroke-linejoin:round;" x1="230.066" y1="443" x2="236.191" y2="440.625"></line><line style="fill:none;stroke:#000000;stroke-linecap:round;stroke-linejoin:round;" x1="236.191" y1="443" x2="230.066" y2="440.625"></line></g><g><line style="fill:none;stroke:#000000;stroke-linecap:round;stroke-linejoin:round;" x1="230.267" y1="445.299" x2="236.392" y2="442.924"></line><line style="fill:none;stroke:#000000;stroke-linecap:round;stroke-linejoin:round;" x1="236.392" y1="445.299" x2="230.267" y2="442.924"></line></g></g><path style="fill:none;stroke:#000000;stroke-linecap:round;stroke-linejoin:round;" d="M226.917,447.625c0,0,0.875-1.75,2.125-2s9.077-0.105,10,0.125c1.5,0.375,1.325,1.375,1.325,1.375"></path></g><g><g><path style="fill:#6E6E6E;stroke:#000000;stroke-linecap:round;stroke-linejoin:round;" d="M260.545,440.875h1.906c0.119-0.811,0.424-2.396,1.061-3.125c0.875-1,6.875-0.625,7.375,0c0.372,0.465,0.467,2.245,0.492,3.125h3.322c-0.233,1.062-0.376,1.677-0.376,1.677s-0.744,5.157-1.646,5.458c-0.902,0.3-12.326,0.685-12.625-0.451C259.535,445.582,260.129,442.554,260.545,440.875z"></path><polyline style="fill:none;stroke:#000000;stroke-linecap:round;stroke-linejoin:round;" points="272.262,441.25 269.012,441.625 267.762,444.25 "></polyline><polyline style="fill:none;stroke:#000000;stroke-linecap:round;stroke-linejoin:round;" points="265.137,444.375 264.262,441.5 261.887,440.875 "></polyline></g><g><g><line style="fill:none;stroke:#000000;stroke-linecap:round;stroke-linejoin:round;" x1="269.938" y1="443" x2="263.813" y2="440.625"></line><line style="fill:none;stroke:#000000;stroke-linecap:round;stroke-linejoin:round;" x1="263.813" y1="443" x2="269.938" y2="440.625"></line></g><g><line style="fill:none;stroke:#000000;stroke-linecap:round;stroke-linejoin:round;" x1="269.737" y1="445.299" x2="263.612" y2="442.924"></line><line style="fill:none;stroke:#000000;stroke-linecap:round;stroke-linejoin:round;" x1="263.612" y1="445.299" x2="269.737" y2="442.924"></line></g></g><path style="fill:none;stroke:#000000;stroke-linecap:round;stroke-linejoin:round;" d="M273.086,447.625c0,0-0.875-1.75-2.125-2s-9.076-0.105-10,0.125c-1.5,0.375-1.324,1.375-1.324,1.375"></path></g></g></g></svg>