<svg xmlns="http://www.w3.org/2000/svg" width="500" height="500" version="1.1"><g id="x9091"><g><g><path style="fill:#6E6E6E;stroke:#000000;stroke-linecap:round;stroke-linejoin:round;" d="M239.135,439.646c0,0,0.06-0.355,0.164-0.979l-0.895,0.749c0,0-1.083-0.833-5.583-0.666c-4.248,0.157-6.167,1.333-6.167,1.333l-1.818-1.416c0.513,2.411,0.854,3.885,0.854,3.885s0.744,5.157,1.646,5.458c0.902,0.3,12.326,0.685,12.625-0.451C240.711,444.703,239.135,439.646,239.135,439.646z M234.569,444c-3.5,0.166-6.167-0.334-6.167-0.334l-0.083-2.083c0,0,2.5-0.834,5.25-0.917s4.75,0.417,4.75,0.417l0.333,2C238.653,443.083,238.069,443.834,234.569,444z"></path><path style="fill:#F3F2ED;stroke:#000000;stroke-linecap:round;stroke-linejoin:round;" d="M225.336,441.416c0,0-1.599-0.584-1.766-1.25s1-1.666,1.5-1.583s0.966,1.468,0.966,1.468s0.117-1.385,0.534-1.718s1.917,0.083,1.917,0.583s-0.933,1.834-0.933,1.834s1.516,0.333,1.85,0.583s-0.583,2.251-1.083,1.917s-1.417-1-1.417-1s0.083,2.166-0.5,1.916s-2.25-0.75-2-1.25S225.336,441.416,225.336,441.416z"></path></g><g><path style="fill:#6E6E6E;stroke:#000000;stroke-linecap:round;stroke-linejoin:round;" d="M260.039,447.559c0.299,1.136,11.723,0.751,12.625,0.451c0.901-0.301,1.646-5.458,1.646-5.458s0.341-1.474,0.854-3.885l-1.818,1.416c0,0-1.918-1.176-6.166-1.333c-4.5-0.167-5.584,0.666-5.584,0.666l-0.895-0.749c0.104,0.624,0.163,0.979,0.163,0.979S259.288,444.703,260.039,447.559z M261.346,443.083l0.334-2c0,0,2-0.5,4.75-0.417s5.25,0.917,5.25,0.917l-0.084,2.083c0,0-2.666,0.5-6.166,0.334S261.346,443.083,261.346,443.083z"></path><path style="fill:#F3F2ED;stroke:#000000;stroke-linecap:round;stroke-linejoin:round;" d="M274.663,441.416c0,0,1.599-0.584,1.767-1.25c0.166-0.666-1-1.666-1.5-1.583s-0.967,1.468-0.967,1.468s-0.117-1.385-0.533-1.718c-0.417-0.333-1.917,0.083-1.917,0.583s0.933,1.834,0.933,1.834s-1.516,0.333-1.85,0.583c-0.333,0.25,0.584,2.251,1.084,1.917s1.416-1,1.416-1s-0.082,2.166,0.5,1.916c0.584-0.25,2.25-0.75,2-1.25S274.663,441.416,274.663,441.416z"></path></g></g></g></svg>