<svg xmlns="http://www.w3.org/2000/svg" width="500" height="500" version="1.1"><g id="x9092"><g><g><path style="fill:#6E6E6E;stroke:#000000;stroke-linecap:round;stroke-linejoin:round;" d="M225.721,442.552c0,0,0.744,5.157,1.646,5.458c0.902,0.3,12.326,0.685,12.625-0.451c0.605-2.302-0.301-6.031-0.675-7.392h-14.127C225.518,441.678,225.721,442.552,225.721,442.552z"></path><path style="fill:#6E6E6E;stroke:#000000;stroke-linecap:round;stroke-linejoin:round;" d="M227.201,441.25l1.25-2.667c0,0,0.583-1.583,4.75-1.583s5.583,1.167,5.583,1.167l0.583,2.499"></path><g><path style="fill:#6E6E6E;stroke:#000000;stroke-linecap:round;stroke-linejoin:round;" d="M228.368,441.416c0,0,1.5-1.166,5.083-1.166s6,1.25,6,1.25l0.333,2.666c0,0-2.167-0.583-5.75-0.583c-3.019,0-5.667,0.75-5.667,0.75S227.951,441.832,228.368,441.416z"></path><path style="fill:none;stroke:#000000;stroke-linecap:round;stroke-linejoin:round;" d="M232.451,442c0,0,1.75-0.583,3.417,0"></path></g></g><g><path style="fill:#6E6E6E;stroke:#000000;stroke-linecap:round;stroke-linejoin:round;" d="M274.278,442.552c0,0-0.744,5.157-1.646,5.458c-0.902,0.3-12.326,0.685-12.625-0.451c-0.605-2.302,0.301-6.031,0.675-7.392h14.128C274.481,441.678,274.278,442.552,274.278,442.552z"></path><path style="fill:#6E6E6E;stroke:#000000;stroke-linecap:round;stroke-linejoin:round;" d="M272.798,441.25l-1.25-2.667c0,0-0.583-1.583-4.75-1.583c-4.166,0-5.583,1.167-5.583,1.167l-0.583,2.499"></path><g><path style="fill:#6E6E6E;stroke:#000000;stroke-linecap:round;stroke-linejoin:round;" d="M271.632,441.416c0,0-1.5-1.166-5.084-1.166c-3.583,0-6,1.25-6,1.25l-0.333,2.666c0,0,2.167-0.583,5.75-0.583c3.019,0,5.667,0.75,5.667,0.75S272.048,441.832,271.632,441.416z"></path><path style="fill:none;stroke:#000000;stroke-linecap:round;stroke-linejoin:round;" d="M267.548,442c0,0-1.75-0.583-3.416,0"></path></g></g></g></g></svg>