<svg xmlns="http://www.w3.org/2000/svg" width="500" height="500" version="1.1"><g id="x9093"><g><g><g><path style="fill:#F7F2EC;stroke:#000000;stroke-linecap:round;stroke-linejoin:round;" d="M226.451,446.333c0.251,0.866,0.547,1.571,0.863,1.677c0.902,0.3,12.326,0.685,12.625-0.451c0.099-0.376,0.155-0.79,0.183-1.226H226.451z"></path><path style="fill:#6E6E6E;stroke:#000000;stroke-linecap:round;stroke-linejoin:round;" d="M239.113,439.646c0,0,0.197-1.169,0.494-2.979h-15.213c0.74,3.585,1.273,5.885,1.273,5.885s0.315,2.174,0.783,3.781h13.67C240.3,443.459,239.113,439.646,239.113,439.646z"></path><path style="fill:none;stroke:#000000;stroke-linecap:round;stroke-linejoin:round;" d="M227.815,440.666c0,0,0.167,2.333,1,3s10.167,0.5,11.167-0.333"></path></g><g><path style="fill:#F7F2EC;stroke:#000000;stroke-linecap:round;stroke-linejoin:round;" d="M233.648,439.499c0,0-2.333,4.167-3.167,3.834s-1.333-1.667-1.333-1.667L233.648,439.499z"></path><path style="fill:#F7F2EC;stroke:#000000;stroke-linecap:round;stroke-linejoin:round;" d="M233.814,439.499c0,0,2.333,4.167,3.167,3.834s1.333-1.667,1.333-1.667L233.814,439.499z"></path></g></g><g><g><path style="fill:#F7F2EC;stroke:#000000;stroke-linecap:round;stroke-linejoin:round;" d="M273.551,446.333c-0.251,0.866-0.548,1.571-0.862,1.677c-0.902,0.3-12.326,0.685-12.625-0.451c-0.1-0.376-0.156-0.79-0.184-1.226H273.551z"></path><path style="fill:#6E6E6E;stroke:#000000;stroke-linecap:round;stroke-linejoin:round;" d="M260.888,439.646c0,0-0.196-1.169-0.494-2.979h15.213c-0.739,3.585-1.273,5.885-1.273,5.885s-0.314,2.174-0.782,3.781H259.88C259.701,443.459,260.888,439.646,260.888,439.646z"></path><path style="fill:none;stroke:#000000;stroke-linecap:round;stroke-linejoin:round;" d="M272.187,440.666c0,0-0.167,2.333-1,3s-10.166,0.5-11.166-0.333"></path></g><g><path style="fill:#F7F2EC;stroke:#000000;stroke-linecap:round;stroke-linejoin:round;" d="M266.354,439.499c0,0,2.333,4.167,3.167,3.834c0.832-0.333,1.333-1.667,1.333-1.667L266.354,439.499z"></path><path style="fill:#F7F2EC;stroke:#000000;stroke-linecap:round;stroke-linejoin:round;" d="M266.187,439.499c0,0-2.333,4.167-3.166,3.834s-1.334-1.667-1.334-1.667L266.187,439.499z"></path></g></g></g></g></svg>