<svg xmlns="http://www.w3.org/2000/svg" width="500" height="500" version="1.1"><g id="x9094"><g><g><path style="fill:#6E6E6E;stroke:#000000;stroke-linecap:round;stroke-linejoin:round;" d="M221.444,446.079c0,0,3.967,2.314,12.232,2.314c8.264,0,11.569-2.645,11.569-2.645s0.199-12.893-11.371-12.893s-11.108,10.909-11.108,10.909s-2.645-0.992-2.975,0.33S221.444,446.079,221.444,446.079z"></path><path style="fill:#505050;" d="M222.766,444.427c0,0-1.818-0.992-2.148-0.165c-0.331,0.826,1.487,1.817,4.462,2.645c2.975,0.826,15.207,2.313,19.504-1.653c0.166-0.496-0.33-1.983-0.33-1.983s-2.148,2.645-9.587,2.645S222.766,444.427,222.766,444.427z"></path><path style="fill:#A64847;stroke:#000000;stroke-linecap:round;stroke-linejoin:round;" d="M235.989,433.353l2.313,0.661l0.496,0.991h-1.983l0.331,1.157c0,0-3.141,0-3.637-0.661l-2.314,0.826l-0.826-1.156l2.479-0.992l-0.495-1.157L235.989,433.353z"></path><path style="fill:none;stroke:#000000;stroke-linecap:round;stroke-linejoin:round;" d="M226.733,447.401c0,0,0.035-10.086,8.265-10.908c6.611-0.661,8.792,3.306,8.792,3.306"></path></g><g><path style="fill:#6E6E6E;stroke:#000000;stroke-linecap:round;stroke-linejoin:round;" d="M278.556,446.079c0,0-3.967,2.314-12.23,2.314c-8.265,0-11.57-2.645-11.57-2.645s-0.199-12.893,11.371-12.893s11.107,10.909,11.107,10.909s2.645-0.992,2.976,0.33S278.556,446.079,278.556,446.079z"></path><path style="fill:#505050;" d="M277.233,444.427c0,0,1.818-0.992,2.148-0.165c0.331,0.826-1.486,1.817-4.462,2.645c-2.976,0.826-15.206,2.313-19.504-1.653c-0.165-0.496,0.331-1.983,0.331-1.983s2.148,2.645,9.586,2.645S277.233,444.427,277.233,444.427z"></path><path style="fill:#A64847;stroke:#000000;stroke-linecap:round;stroke-linejoin:round;" d="M264.011,433.353l-2.314,0.661l-0.495,0.991h1.983l-0.33,1.157c0,0,3.14,0,3.636-0.661l2.313,0.826l0.826-1.156l-2.479-0.992l0.496-1.157L264.011,433.353z"></path><path style="fill:none;stroke:#000000;stroke-linecap:round;stroke-linejoin:round;" d="M273.267,447.401c0,0-0.034-10.086-8.264-10.908c-6.611-0.661-8.793,3.306-8.793,3.306"></path></g></g></g></svg>