<svg xmlns="http://www.w3.org/2000/svg" width="500" height="500" version="1.1"><g id="x9095"><g><g><path style="fill:#6E6E6E;stroke:#000000;stroke-linecap:round;stroke-linejoin:round;" d="M236.352,428.618c-0.221-0.803-2.304-1.95-4.059-1.95s-3.735,1.147-3.884,1.95c-0.148,0.804,0.339,4.791,0.606,5.277c0.502,0.918,3.653,1.147,3.653,1.147s3.13-0.229,3.55-1.147C236.441,433.409,236.572,429.422,236.352,428.618z"></path><path style="fill:#505050;" d="M231.335,433.002v-5c0,0,1.333-0.499,2.167,0.084c0,2.25,0,5.333,0,5.333L231.335,433.002z"></path><g><ellipse style="fill:#FBC880;" cx="232.586" cy="430.64" rx="1.767" ry="1.62"></ellipse><circle style="fill:#FBC880;" cx="231.224" cy="429.278" r="0.699"></circle><circle style="fill:#FBC880;" cx="233.962" cy="429.354" r="0.699"></circle></g><path style="fill:#4F477D;stroke:#000000;stroke-linecap:round;stroke-linejoin:round;" d="M224.549,438.722c0-0.702-0.982-3.649-0.562-4.07c0.421-0.422,3.229-0.562,3.229-0.562l2.807,7.299l-4.492,3.649L224.549,438.722z"></path><path style="fill:#4F477D;stroke:#000000;stroke-linecap:round;stroke-linejoin:round;" d="M237.042,433.106c0-0.421,2.807-1.965,2.807-1.965l0.842,4.343c0,0-0.562,3.097-0.421,4.22c0.141,1.123,0.842,3.649,0.842,3.649l-3.93-0.562L237.042,433.106z"></path><g><g><g><path style="fill:#FFFFFF;stroke:#000000;stroke-linecap:round;stroke-linejoin:round;" d="M222.293,426.063c0,0-0.486,2.067-0.688,2.813c-0.201,0.746-0.031,5.748,0.973,7.021c0.415,0.525,3.283,2.174,3.717,1.461c1.206-1.972,0.435-7.139-0.002-7.545c-0.307-0.284-3.114-1.277-3.114-1.277L222.293,426.063z"></path></g></g><path style="fill:#E4E0F3;" d="M222.168,430.781c0,0,0.031,3.844,0.719,4.719c0.5,0.5,2.771,1.75,2.938,1.5c0.844-1.031,0.5-4.688,0.5-4.688S223.575,433.063,222.168,430.781z"></path></g><g><path style="fill:#FFFFFF;stroke:#000000;stroke-linecap:round;stroke-linejoin:round;" d="M241.312,425.727c0,0,0.491,2.599,0.654,3.382c0.164,0.782,0.162,5.531-0.656,6.618c-0.338,0.448-2.673,1.564-3.027,0.771c-0.982-2.196-0.646-7.154-0.244-7.299c0.356-0.128,2.781-0.945,2.781-0.945L241.312,425.727z"></path></g><path style="fill:#E4E0F3;" d="M241.543,430.906c0,0,0.042,3.927-0.458,4.427s-2.333,1.167-2.5,0.917c-0.386-0.781-0.386-3.938-0.386-3.938S240.876,433.156,241.543,430.906z"></path><path style="fill:#FFFFFF;stroke:#000000;stroke-linecap:round;stroke-linejoin:round;" d="M225.251,443.634c0,0,3.369-1.824,5.474-3.509c3.369-0.421,4.913-0.562,4.913-0.562s1.404,2.386,5.193,2.947c0.562,1.123,0.842,2.808,0.842,2.808s-0.982,2.105-7.439,2.105c-6.457,0-8.563-1.544-8.563-1.544L225.251,443.634z"></path><g><polygon style="fill:#E4E0F3;stroke:#000000;stroke-linecap:round;stroke-linejoin:round;" points="227.777,434.651 228.62,439.002 238.164,438.44 237.883,433.528 "></polygon><g><line style="fill:none;stroke:#000000;stroke-linecap:round;stroke-linejoin:round;" x1="231.287" y1="435.493" x2="231.567" y2="438.722"></line><line style="fill:none;stroke:#000000;stroke-linecap:round;stroke-linejoin:round;" x1="234.795" y1="435.212" x2="234.936" y2="439.002"></line></g></g><path style="fill:#FFFFFF;stroke:#000000;stroke-linecap:round;stroke-linejoin:round;" d="M228.031,438.343c-0.374,0.516,0.141,3.067,0.421,3.488c0.281,0.421,2.246,0.982,4.913,0.982c2.667,0,5.193-1.123,5.193-1.123s0.421-3.255-0.141-3.675c-0.562-0.421-2.854,0.796-5.24,0.796S228.405,437.828,228.031,438.343z"></path><path style="fill:#FFFFFF;stroke:#000000;stroke-linecap:round;stroke-linejoin:round;" d="M227.469,432.308c-0.374,0.516,0.141,3.067,0.421,3.488s2.246,0.982,4.913,0.982s5.193-1.123,5.193-1.123s0.421-3.256-0.141-3.676s-2.854,0.796-5.24,0.796S227.843,431.792,227.469,432.308z"></path><path style="fill:#FFFFFF;stroke:#000000;stroke-linecap:round;stroke-linejoin:round;" d="M225.251,444.477c0,0,0.562,3.088,0.982,3.509c0.421,0.421,1.825,1.123,7.159,1.123c5.333,0,8-0.843,8.141-1.544c0.141-0.702,0.141-3.649-0.421-4.211c-1.263-0.281-2.526,0.421-2.526,0.421s0.562,1.824-4.632,1.824s-6.316-1.965-6.316-1.965L225.251,444.477z"></path><path style="fill:#FFFFFF;stroke:#000000;stroke-linecap:round;stroke-linejoin:round;" d="M223.988,436.896c0,0,1.404,2.105,1.404,2.948c0,0.842-0.562,2.807-0.562,2.807s-1.544-1.123-1.685-2.807C223.005,438.16,223.988,436.896,223.988,436.896z"></path><path style="fill:#FFFFFF;stroke:#000000;stroke-linecap:round;stroke-linejoin:round;" d="M240.691,435.484c0,0-1.165,2.246-1.074,3.083c0.093,0.837,0.865,2.729,0.865,2.729s1.413-1.284,1.368-2.975C241.806,436.633,240.691,435.484,240.691,435.484z"></path></g><g><path style="fill:#6E6E6E;stroke:#000000;stroke-linecap:round;stroke-linejoin:round;" d="M263.65,428.618c0.221-0.803,2.305-1.95,4.059-1.95c1.756,0,3.736,1.147,3.885,1.95c0.148,0.804-0.34,4.791-0.607,5.277c-0.502,0.918-3.652,1.147-3.652,1.147s-3.129-0.229-3.551-1.147C263.561,433.409,263.43,429.422,263.65,428.618z"></path><path style="fill:#505050;" d="M268.668,433.002v-5c0,0-1.334-0.499-2.168,0.084c0,2.25,0,5.333,0,5.333L268.668,433.002z"></path><g><ellipse style="fill:#FBC880;" cx="267.416" cy="430.64" rx="1.768" ry="1.62"></ellipse><circle style="fill:#FBC880;" cx="268.777" cy="429.278" r="0.699"></circle><circle style="fill:#FBC880;" cx="266.039" cy="429.354" r="0.699"></circle></g><path style="fill:#4F477D;stroke:#000000;stroke-linecap:round;stroke-linejoin:round;" d="M275.453,438.722c0-0.702,0.982-3.649,0.561-4.07c-0.42-0.422-3.229-0.562-3.229-0.562l-2.807,7.299l4.492,3.649L275.453,438.722z"></path><path style="fill:#4F477D;stroke:#000000;stroke-linecap:round;stroke-linejoin:round;" d="M262.961,433.106c0-0.421-2.807-1.965-2.807-1.965l-0.844,4.343c0,0,0.563,3.097,0.422,4.22s-0.842,3.649-0.842,3.649l3.93-0.562L262.961,433.106z"></path><g><g><g><path style="fill:#FFFFFF;stroke:#000000;stroke-linecap:round;stroke-linejoin:round;" d="M277.709,426.063c0,0,0.486,2.067,0.688,2.813c0.201,0.746,0.031,5.748-0.973,7.021c-0.416,0.525-3.283,2.174-3.717,1.461c-1.207-1.972-0.436-7.139,0.002-7.545c0.307-0.284,3.113-1.277,3.113-1.277L277.709,426.063z"></path></g></g><path style="fill:#E4E0F3;" d="M277.834,430.781c0,0-0.031,3.844-0.719,4.719c-0.5,0.5-2.771,1.75-2.938,1.5c-0.844-1.031-0.5-4.688-0.5-4.688S276.428,433.063,277.834,430.781z"></path></g><g><path style="fill:#FFFFFF;stroke:#000000;stroke-linecap:round;stroke-linejoin:round;" d="M258.691,425.727c0,0-0.492,2.599-0.654,3.382c-0.164,0.782-0.162,5.531,0.654,6.618c0.338,0.448,2.674,1.564,3.027,0.771c0.982-2.196,0.646-7.154,0.244-7.299c-0.355-0.128-2.781-0.945-2.781-0.945L258.691,425.727z"></path></g><path style="fill:#E4E0F3;" d="M258.459,430.906c0,0-0.043,3.927,0.457,4.427s2.334,1.167,2.5,0.917c0.387-0.781,0.387-3.938,0.387-3.938S259.125,433.156,258.459,430.906z"></path><path style="fill:#FFFFFF;stroke:#000000;stroke-linecap:round;stroke-linejoin:round;" d="M274.752,443.634c0,0-3.369-1.824-5.475-3.509c-3.369-0.421-4.912-0.562-4.912-0.562s-1.404,2.386-5.193,2.947c-0.563,1.123-0.844,2.808-0.844,2.808s0.982,2.105,7.439,2.105s8.563-1.544,8.563-1.544L274.752,443.634z"></path><g><polygon style="fill:#E4E0F3;stroke:#000000;stroke-linecap:round;stroke-linejoin:round;" points="272.225,434.651 271.383,439.002 261.838,438.44 262.119,433.528 "></polygon><g><line style="fill:none;stroke:#000000;stroke-linecap:round;stroke-linejoin:round;" x1="268.715" y1="435.493" x2="268.436" y2="438.722"></line><line style="fill:none;stroke:#000000;stroke-linecap:round;stroke-linejoin:round;" x1="265.207" y1="435.212" x2="265.066" y2="439.002"></line></g></g><path style="fill:#FFFFFF;stroke:#000000;stroke-linecap:round;stroke-linejoin:round;" d="M271.971,438.343c0.375,0.516-0.141,3.067-0.42,3.488c-0.281,0.421-2.246,0.982-4.914,0.982c-2.666,0-5.193-1.123-5.193-1.123s-0.42-3.255,0.141-3.675c0.563-0.421,2.854,0.796,5.24,0.796S271.598,437.828,271.971,438.343z"></path><path style="fill:#FFFFFF;stroke:#000000;stroke-linecap:round;stroke-linejoin:round;" d="M272.533,432.308c0.373,0.516-0.141,3.067-0.422,3.488s-2.246,0.982-4.912,0.982c-2.668,0-5.193-1.123-5.193-1.123s-0.422-3.256,0.141-3.676c0.561-0.42,2.854,0.796,5.24,0.796C269.771,432.775,272.158,431.792,272.533,432.308z"></path><path style="fill:#FFFFFF;stroke:#000000;stroke-linecap:round;stroke-linejoin:round;" d="M274.752,444.477c0,0-0.563,3.088-0.982,3.509c-0.422,0.421-1.826,1.123-7.16,1.123c-5.332,0-8-0.843-8.141-1.544c-0.141-0.702-0.141-3.649,0.422-4.211c1.264-0.281,2.525,0.421,2.525,0.421s-0.561,1.824,4.633,1.824s6.316-1.965,6.316-1.965L274.752,444.477z"></path><path style="fill:#FFFFFF;stroke:#000000;stroke-linecap:round;stroke-linejoin:round;" d="M276.014,436.896c0,0-1.402,2.105-1.402,2.948c0,0.842,0.561,2.807,0.561,2.807s1.545-1.123,1.686-2.807C276.996,438.16,276.014,436.896,276.014,436.896z"></path><path style="fill:#FFFFFF;stroke:#000000;stroke-linecap:round;stroke-linejoin:round;" d="M259.311,435.484c0,0,1.166,2.246,1.074,3.083s-0.865,2.729-0.865,2.729s-1.412-1.284-1.367-2.975C258.197,436.633,259.311,435.484,259.311,435.484z"></path></g></g></g></svg>