<svg xmlns="http://www.w3.org/2000/svg" width="500" height="500" version="1.1"><g id="x9096"><g><g><path style="fill:#6E6E6E;stroke:#000000;stroke-linecap:round;stroke-linejoin:round;" d="M225.663,442.552c0,0,0.744,5.157,1.646,5.458c0.902,0.3,12.327,0.685,12.625-0.451c0.751-2.855-0.825-7.912-0.825-7.912s1.22-7.243,2.177-13.646c0,0-2.392,0.834-9.225,0.834S222.365,426,222.365,426C223.926,435.069,225.663,442.552,225.663,442.552z"></path><g><g><path style="fill:#AF9376;stroke:#000000;stroke-linecap:round;stroke-linejoin:round;" d="M228.34,438.046c0,0,0.988,0.865,1.2,1.065c0.212,0.199-0.212,1.731-0.494,1.665c-0.283-0.067-1.554-0.866-1.554-1.066C227.492,439.511,228.34,438.046,228.34,438.046z"></path><path style="fill:#AF9376;stroke:#000000;stroke-linecap:round;stroke-linejoin:round;" d="M237.296,438.205c0,0-0.989,0.865-1.201,1.065c-0.211,0.199,0.212,1.731,0.495,1.665c0.282-0.067,1.554-0.866,1.554-1.066C238.144,439.67,237.296,438.205,237.296,438.205z"></path><path style="fill:#AF9376;stroke:#000000;stroke-linecap:round;stroke-linejoin:round;" d="M229.116,440.242c0,0,1.589-1.198,3.496-1.198c1.907,0,3.92,1.198,3.92,1.198s0.424-0.799,0.318-1.198s-1.589-1.397-4.343-1.397c-2.755,0-3.814,1.198-3.814,1.198S228.269,439.444,229.116,440.242z"></path></g><g><path style="fill:#AF9376;stroke:#000000;stroke-linecap:round;stroke-linejoin:round;" d="M228.057,434.318c0,0,0.989,0.865,1.2,1.064c0.212,0.2-0.212,1.732-0.494,1.665s-1.554-0.866-1.554-1.065C227.209,435.782,228.057,434.318,228.057,434.318z"></path><path style="fill:#AF9376;stroke:#000000;stroke-linecap:round;stroke-linejoin:round;" d="M237.013,434.478c0,0-0.988,0.865-1.2,1.064c-0.212,0.2,0.212,1.732,0.494,1.665s1.554-0.866,1.554-1.065C237.861,435.941,237.013,434.478,237.013,434.478z"></path><path style="fill:#AF9376;stroke:#000000;stroke-linecap:round;stroke-linejoin:round;" d="M228.834,436.515c0,0,1.589-1.198,3.496-1.198c1.907,0,3.92,1.198,3.92,1.198s0.424-0.799,0.318-1.198s-1.589-1.398-4.344-1.398c-2.755,0-3.814,1.199-3.814,1.199S227.986,435.716,228.834,436.515z"></path></g></g></g><g><path style="fill:#6E6E6E;stroke:#000000;stroke-linecap:round;stroke-linejoin:round;" d="M274.338,442.552c0,0-0.744,5.157-1.646,5.458c-0.902,0.3-12.326,0.685-12.625-0.451c-0.751-2.855,0.825-7.912,0.825-7.912s-1.22-7.243-2.177-13.646c0,0,2.392,0.834,9.225,0.834c6.834,0,9.695-0.834,9.695-0.834C276.074,435.069,274.338,442.552,274.338,442.552z"></path><g><g><path style="fill:#AF9376;stroke:#000000;stroke-linecap:round;stroke-linejoin:round;" d="M271.66,438.046c0,0-0.988,0.865-1.2,1.065c-0.212,0.199,0.212,1.731,0.494,1.665c0.282-0.067,1.554-0.866,1.554-1.066C272.508,439.511,271.66,438.046,271.66,438.046z"></path><path style="fill:#AF9376;stroke:#000000;stroke-linecap:round;stroke-linejoin:round;" d="M262.704,438.205c0,0,0.989,0.865,1.2,1.065c0.212,0.199-0.212,1.731-0.494,1.665c-0.282-0.067-1.554-0.866-1.554-1.066C261.856,439.67,262.704,438.205,262.704,438.205z"></path><path style="fill:#AF9376;stroke:#000000;stroke-linecap:round;stroke-linejoin:round;" d="M270.884,440.242c0,0-1.589-1.198-3.496-1.198s-3.92,1.198-3.92,1.198s-0.424-0.799-0.317-1.198c0.105-0.399,1.588-1.397,4.343-1.397s3.814,1.198,3.814,1.198S271.73,439.444,270.884,440.242z"></path></g><g><path style="fill:#AF9376;stroke:#000000;stroke-linecap:round;stroke-linejoin:round;" d="M271.943,434.318c0,0-0.989,0.865-1.201,1.064c-0.211,0.2,0.213,1.732,0.494,1.665c0.283-0.067,1.555-0.866,1.555-1.065C272.791,435.782,271.943,434.318,271.943,434.318z"></path><path style="fill:#AF9376;stroke:#000000;stroke-linecap:round;stroke-linejoin:round;" d="M262.986,434.478c0,0,0.988,0.865,1.201,1.064c0.211,0.2-0.213,1.732-0.494,1.665c-0.283-0.067-1.555-0.866-1.555-1.065C262.139,435.941,262.986,434.478,262.986,434.478z"></path><path style="fill:#AF9376;stroke:#000000;stroke-linecap:round;stroke-linejoin:round;" d="M271.166,436.515c0,0-1.589-1.198-3.496-1.198c-1.906,0-3.92,1.198-3.92,1.198s-0.424-0.799-0.318-1.198c0.106-0.399,1.59-1.398,4.344-1.398c2.756,0,3.814,1.199,3.814,1.199S272.014,435.716,271.166,436.515z"></path></g></g></g></g></g></svg>