<svg xmlns="http://www.w3.org/2000/svg" width="500" height="500" version="1.1"><g id="x9098"><g><g><g><path style="fill:#585979;stroke:#000000;stroke-linecap:round;stroke-linejoin:round;" d="M262.723,437.501l-5,2.5c0,0-1.5-1.834-1.5-4.334c0.666-1.5,6.333-0.833,6.333-0.833v1.167c0,0-4.166,0-4.333,0.5s0.333,1.333,0.333,1.333l2.833-1.333L262.723,437.501z"></path><path style="fill:#585979;stroke:#000000;stroke-linecap:round;stroke-linejoin:round;" d="M272.89,437.501l5,2.5c0,0,1.5-1.834,1.5-4.334c-0.666-1.5-6.333-0.833-6.333-0.833v1.167c0,0,4.166,0,4.333,0.5s-0.333,1.333-0.333,1.333l-2.833-1.333L272.89,437.501z"></path></g><g><path style="fill:#585777;stroke:#000000;stroke-linecap:round;stroke-linejoin:round;" d="M259.014,445.444c0,0,0.153,4.737,0.55,5.143s1.806,1.27,6.735,1.326c6.404,0.073,7.328-0.846,7.856-1.067s1.233-6.678,1.233-6.678s-1.233,2.515-9.331,2.318C259.196,446.32,259.014,445.444,259.014,445.444z"></path><g><path style="fill:#E5CE95;" d="M274.618,445.727c0,0-2.972,1.473-7.857,1.473s-6.999-0.7-6.999-0.7l0.066,0.479c0,0,2.904,0.699,7.064,0.699s7.66-1.325,7.66-1.325L274.618,445.727z"></path><path style="fill:#E5CE95;" d="M274.375,447.445c0.251-0.196,0.15-0.394,0.15-0.394l-2.669,1.011c-0.251,0.309-0.199,0.786,0.051,0.982c0.253,0.196,0.303,0.646-0.602,0.954c-0.907,0.309-2.669,0.309-2.971,0s-0.452-0.982,0.15-1.122c0.605-0.141,1.511-0.057,1.41,0.224c-0.103,0.281-0.453,0.449-0.654,0.449s-0.252,0.226,0.05,0.28c0.303,0.057,0.957-0.083,1.057-0.42c0.102-0.338-0.051-1.011-1.408-1.039c-1.359-0.028-1.21,0.562-1.21,0.562s-0.25-0.364-0.149-0.674c-0.059,0.018-0.113,0.03-0.17,0.045l-0.004-0.012c-0.213,0.006-0.425,0.012-0.646,0.012c-4.886,0-6.999-0.699-6.999-0.699l0.066,0.479c0,0,2.904,0.699,7.064,0.699c0.02,0,0.039-0.001,0.059-0.001c0.1,0.165,0.276,0.361,0.579,0.488c-0.051,0.337-0.201,0.982,0.754,1.263c0.957,0.281,2.063,0.169,2.063,0.169s0.503,0.225,1.358,0.057c0.856-0.169,0.907-0.338,0.907-0.338s0.453,0.085,0.855-0.112c0.402-0.196,0.705-1.263,0.553-1.403c-0.15-0.141-1.408-0.477-1.408-0.477S272.361,447.81,274.375,447.445z"></path><g><ellipse style="fill:#E5CE95;" cx="260.422" cy="448.782" rx="0.528" ry="0.295"></ellipse><ellipse style="fill:#E5CE95;" cx="260.405" cy="449.584" rx="0.313" ry="0.175"></ellipse></g></g></g><g><path style="fill:#6E6E6E;stroke:#000000;stroke-linecap:round;stroke-linejoin:round;" d="M257.076,412.563c0,0,0.109,1.4,0.979,1.771c1.138,0.482,3.547,1.352,8.208,1.104c0.333,2.5,1.457,6.729,1.457,6.729l1.668-6.729c0,0,6.29-0.037,9.417-1.271c0.449-0.177,1.083-0.5,1.146-1.916c0.666,2.334,1.104,4.417,0.938,5.084s-5.167,20.667-5.5,22c1,4.541-0.375,6.666-0.375,6.666s-0.631-3.014-8.458-3.333c-7.167-0.292-7.542,3.333-7.542,3.333s0.208-3.333,1.375-5.833c-0.333-2.166-4.813-21.688-4.813-22.854S257.076,412.563,257.076,412.563z"></path><path style="fill:#505050;" d="M261.889,436.667c0,0,3.084-1.501,4.167-1.834s6.417,1.084,6.75,1.417s-5.333,2.417-6.333,2.25S261.889,437.334,261.889,436.667z"></path><polyline style="fill:#FFFEFC;stroke:#000000;stroke-linecap:round;stroke-linejoin:round;" points="267.721,422.167 266.723,438.334 266.223,440.001 266.389,442.001 "></polyline></g><g id="shoesXMLID_3_"><g><radialGradient id="shoesXMLID_23_" cx="269.9336" cy="441.8623" r="6.2518" gradientTransform="matrix(-0.8259 0 0 0.8259 489.4591 76.0599)" gradientUnits="userSpaceOnUse"><stop offset="0" style="stop-color:#FFFEFC"></stop><stop offset="1" style="stop-color:#FFF4D8"></stop></radialGradient><path style="fill:url(#shoesXMLID_23_);stroke:#000000;stroke-linecap:round;stroke-linejoin:round;" d="M261.926,441.735l-0.892,0.513c0,0,1.652,2.891,2.445,3.097c0.784,0.207,2.543-0.099,2.543-0.099s2.577,0.412,2.99,0.132c0.413-0.272,0.76-0.751,0.76-0.751s2.131-0.967,2.445-1.858c0.305-0.9,0.412-3.098-0.586-3.791c-0.141-0.091,0.966-0.893,0.891-1.066c-0.065-0.173-0.412-0.891-1.957-1.651c-1.553-0.751-4.303-0.239-4.922,0.207c-0.033,0.347-0.1,0.586-0.1,0.586s-1.173,0.206-1.933,0.62c-0.76,0.412-2.371,1.824-2.371,2.378C261.24,440.597,261.926,441.735,261.926,441.735z"></path></g><path style="fill:none;stroke:#FFEFC8;stroke-linecap:round;stroke-linejoin:round;" d="M271.553,438.775c0,0-1.548,0.8-2.322,1.238"></path><path style="fill:none;stroke:#FFEFC8;stroke-linecap:round;stroke-linejoin:round;" d="M270.934,443.498c0,0-0.283-0.878-1.342-1.472"></path><path style="fill:none;stroke:#FFEFC8;stroke-linecap:round;stroke-linejoin:round;" d="M265.565,436.942c0,0-0.154,1.059-0.052,1.471"></path><path style="fill:none;stroke:#FFEFC8;stroke-linecap:round;stroke-linejoin:round;" d="M261.72,441.872c0,0,1.729-1.549,2.71-1.497"></path><path style="fill:none;stroke:#FFEFC8;stroke-linecap:round;stroke-linejoin:round;" d="M266.185,445.124c0,0-0.231-0.801-0.103-1.522"></path><path style="fill:none;stroke:#FFEFC8;stroke-linecap:round;stroke-linejoin:round;" d="M269.308,442.104c0.071-0.244,0-1.574-0.284-2.271c-0.67-0.284-1.058-0.311-1.058-0.311s0.026-1.135-0.051-1.264c-0.078-0.13-2.375-0.232-3.098,0.671c-0.258,0.723,0.154,1.161,0.154,1.161s-0.877,0.31-0.954,0.542c-0.078,0.232,0.31,2.659,0.696,2.788c0.388,0.129,2.065,0.155,2.117,0C266.882,443.267,269.179,442.543,269.308,442.104z"></path><path style="fill:none;stroke:#FFEFC8;stroke-linecap:round;stroke-linejoin:round;" d="M268.018,439.679c0,0-1.161,0.181-1.42,0.748"></path><path style="fill:none;stroke:#FFEFC8;stroke-linecap:round;stroke-linejoin:round;" d="M267.476,442.879c0,0-1.033-0.671-1.11-1.29"></path><path style="fill:none;stroke:#FFEFC8;stroke-linecap:round;stroke-linejoin:round;" d="M265.695,440.298c0,0-0.724-0.207-1.033-0.129"></path><path style="fill:none;stroke:#FFEFC8;stroke-linecap:round;stroke-linejoin:round;" d="M265.565,440.788c0,0,0.104,0.749,0.594,0.671"></path><g><path style="fill:none;stroke:#000000;stroke-linecap:round;stroke-linejoin:round;" d="M271.632,438.978c-0.141-0.091,0.966-0.893,0.891-1.066c-0.065-0.173-0.412-0.891-1.957-1.651c-1.553-0.751-4.303-0.239-4.922,0.207c-0.033,0.347-0.1,0.586-0.1,0.586s-1.173,0.206-1.933,0.62c-0.76,0.412-2.371,1.824-2.371,2.378c0,0.546,0.686,1.685,0.686,1.685l-0.892,0.513c0,0,1.652,2.891,2.445,3.097c0.784,0.207,2.543-0.099,2.543-0.099s2.577,0.412,2.99,0.132c0.413-0.272,0.76-0.751,0.76-0.751s2.131-0.967,2.445-1.858C272.522,441.868,272.63,439.671,271.632,438.978z"></path></g></g></g><g><g><path style="fill:#585979;stroke:#000000;stroke-linecap:round;stroke-linejoin:round;" d="M237.277,437.501l5,2.5c0,0,1.5-1.834,1.5-4.334c-0.666-1.5-6.333-0.833-6.333-0.833v1.167c0,0,4.166,0,4.333,0.5s-0.333,1.333-0.333,1.333l-2.833-1.333L237.277,437.501z"></path><path style="fill:#585979;stroke:#000000;stroke-linecap:round;stroke-linejoin:round;" d="M227.11,437.501l-5,2.5c0,0-1.5-1.834-1.5-4.334c0.666-1.5,6.333-0.833,6.333-0.833v1.167c0,0-4.166,0-4.333,0.5s0.333,1.333,0.333,1.333l2.833-1.333L227.11,437.501z"></path></g><g><path style="fill:#585777;stroke:#000000;stroke-linecap:round;stroke-linejoin:round;" d="M240.986,445.444c0,0-0.153,4.737-0.55,5.143s-1.806,1.27-6.735,1.326c-6.404,0.073-7.328-0.846-7.856-1.067s-1.233-6.678-1.233-6.678s1.233,2.515,9.331,2.318C240.804,446.32,240.986,445.444,240.986,445.444z"></path><g><path style="fill:#E5CE95;" d="M225.382,445.727c0,0,2.972,1.473,7.857,1.473s6.999-0.7,6.999-0.7l-0.066,0.479c0,0-2.904,0.699-7.064,0.699s-7.66-1.325-7.66-1.325L225.382,445.727z"></path><path style="fill:#E5CE95;" d="M225.625,447.445c-0.251-0.196-0.15-0.394-0.15-0.394l2.669,1.011c0.251,0.309,0.199,0.786-0.051,0.982c-0.253,0.196-0.303,0.646,0.602,0.954c0.907,0.309,2.669,0.309,2.971,0s0.452-0.982-0.15-1.122c-0.605-0.141-1.511-0.057-1.41,0.224c0.103,0.281,0.453,0.449,0.654,0.449s0.252,0.226-0.05,0.28c-0.303,0.057-0.957-0.083-1.057-0.42c-0.102-0.338,0.051-1.011,1.408-1.039c1.359-0.028,1.21,0.562,1.21,0.562s0.25-0.364,0.149-0.674c0.059,0.018,0.113,0.03,0.17,0.045l0.004-0.012c0.213,0.006,0.425,0.012,0.646,0.012c4.886,0,6.999-0.699,6.999-0.699l-0.066,0.479c0,0-2.904,0.699-7.064,0.699c-0.02,0-0.039-0.001-0.059-0.001c-0.1,0.165-0.276,0.361-0.579,0.488c0.051,0.337,0.201,0.982-0.754,1.263c-0.957,0.281-2.063,0.169-2.063,0.169s-0.503,0.225-1.358,0.057c-0.856-0.169-0.907-0.338-0.907-0.338s-0.453,0.085-0.855-0.112c-0.402-0.196-0.705-1.263-0.553-1.403c0.15-0.141,1.408-0.477,1.408-0.477S227.639,447.81,225.625,447.445z"></path><g><ellipse style="fill:#E5CE95;" cx="239.578" cy="448.782" rx="0.528" ry="0.295"></ellipse><ellipse style="fill:#E5CE95;" cx="239.595" cy="449.584" rx="0.313" ry="0.175"></ellipse></g></g></g><g><path style="fill:#6E6E6E;stroke:#000000;stroke-linecap:round;stroke-linejoin:round;" d="M242.924,412.563c0,0-0.109,1.4-0.979,1.771c-1.138,0.482-3.547,1.352-8.208,1.104c-0.333,2.5-1.457,6.729-1.457,6.729l-1.668-6.729c0,0-6.29-0.037-9.417-1.271c-0.449-0.177-1.083-0.5-1.146-1.916c-0.666,2.334-1.104,4.417-0.938,5.084s5.167,20.667,5.5,22c-1,4.541,0.375,6.666,0.375,6.666s0.631-3.014,8.458-3.333c7.167-0.292,7.542,3.333,7.542,3.333s-0.208-3.333-1.375-5.833c0.333-2.166,4.813-21.688,4.813-22.854S242.924,412.563,242.924,412.563z"></path><path style="fill:#505050;" d="M238.111,436.667c0,0-3.084-1.501-4.167-1.834s-6.417,1.084-6.75,1.417s5.333,2.417,6.333,2.25S238.111,437.334,238.111,436.667z"></path><polyline style="fill:#FFFEFC;stroke:#000000;stroke-linecap:round;stroke-linejoin:round;" points="232.279,422.167 233.277,438.334 233.777,440.001 233.611,442.001 "></polyline></g><g id="shoesXMLID_17_"><g><radialGradient id="shoesXMLID_26_" cx="282.377" cy="441.8623" r="6.2518" gradientTransform="matrix(0.8259 0 0 0.8259 0.2636 76.0599)" gradientUnits="userSpaceOnUse"><stop offset="0" style="stop-color:#FFFEFC"></stop><stop offset="1" style="stop-color:#FFF4D8"></stop></radialGradient><path style="fill:url(#shoesXMLID_26_);stroke:#000000;stroke-linecap:round;stroke-linejoin:round;" d="M238.074,441.735l0.892,0.513c0,0-1.652,2.891-2.445,3.097c-0.784,0.207-2.543-0.099-2.543-0.099s-2.577,0.412-2.99,0.132c-0.413-0.272-0.76-0.751-0.76-0.751s-2.131-0.967-2.445-1.858c-0.305-0.9-0.412-3.098,0.586-3.791c0.141-0.091-0.966-0.893-0.891-1.066c0.065-0.173,0.412-0.891,1.957-1.651c1.553-0.751,4.303-0.239,4.922,0.207c0.033,0.347,0.1,0.586,0.1,0.586s1.173,0.206,1.933,0.62c0.76,0.412,2.371,1.824,2.371,2.378C238.76,440.597,238.074,441.735,238.074,441.735z"></path></g><path style="fill:none;stroke:#FFEFC8;stroke-linecap:round;stroke-linejoin:round;" d="M228.447,438.775c0,0,1.548,0.8,2.322,1.238"></path><path style="fill:none;stroke:#FFEFC8;stroke-linecap:round;stroke-linejoin:round;" d="M229.066,443.498c0,0,0.283-0.878,1.342-1.472"></path><path style="fill:none;stroke:#FFEFC8;stroke-linecap:round;stroke-linejoin:round;" d="M234.435,436.942c0,0,0.154,1.059,0.052,1.471"></path><path style="fill:none;stroke:#FFEFC8;stroke-linecap:round;stroke-linejoin:round;" d="M238.28,441.872c0,0-1.729-1.549-2.71-1.497"></path><path style="fill:none;stroke:#FFEFC8;stroke-linecap:round;stroke-linejoin:round;" d="M233.815,445.124c0,0,0.231-0.801,0.103-1.522"></path><path style="fill:none;stroke:#FFEFC8;stroke-linecap:round;stroke-linejoin:round;" d="M230.692,442.104c-0.071-0.244,0-1.574,0.284-2.271c0.67-0.284,1.058-0.311,1.058-0.311s-0.026-1.135,0.051-1.264c0.078-0.13,2.375-0.232,3.098,0.671c0.258,0.723-0.154,1.161-0.154,1.161s0.877,0.31,0.954,0.542c0.078,0.232-0.31,2.659-0.696,2.788c-0.388,0.129-2.065,0.155-2.117,0C233.118,443.267,230.821,442.543,230.692,442.104z"></path><path style="fill:none;stroke:#FFEFC8;stroke-linecap:round;stroke-linejoin:round;" d="M231.982,439.679c0,0,1.161,0.181,1.42,0.748"></path><path style="fill:none;stroke:#FFEFC8;stroke-linecap:round;stroke-linejoin:round;" d="M232.524,442.879c0,0,1.033-0.671,1.11-1.29"></path><path style="fill:none;stroke:#FFEFC8;stroke-linecap:round;stroke-linejoin:round;" d="M234.305,440.298c0,0,0.724-0.207,1.033-0.129"></path><path style="fill:none;stroke:#FFEFC8;stroke-linecap:round;stroke-linejoin:round;" d="M234.435,440.788c0,0-0.104,0.749-0.594,0.671"></path><g><path style="fill:none;stroke:#000000;stroke-linecap:round;stroke-linejoin:round;" d="M228.368,438.978c0.141-0.091-0.966-0.893-0.891-1.066c0.065-0.173,0.412-0.891,1.957-1.651c1.553-0.751,4.303-0.239,4.922,0.207c0.033,0.347,0.1,0.586,0.1,0.586s1.173,0.206,1.933,0.62c0.76,0.412,2.371,1.824,2.371,2.378c0,0.546-0.686,1.685-0.686,1.685l0.892,0.513c0,0-1.652,2.891-2.445,3.097c-0.784,0.207-2.543-0.099-2.543-0.099s-2.577,0.412-2.99,0.132c-0.413-0.272-0.76-0.751-0.76-0.751s-2.131-0.967-2.445-1.858C227.478,441.868,227.37,439.671,228.368,438.978z"></path></g></g></g></g></g></svg>