<svg xmlns="http://www.w3.org/2000/svg" width="500" height="500" version="1.1"><g id="x9099"><g><g><path style="fill:#6E6E6E;stroke:#000000;stroke-linecap:round;stroke-linejoin:round;" d="M223.465,431.5c0.125,0.188,4,1.313,9.313,1.313s7.375-1.688,7.375-1.688s-5.375,9.688-6.25,9.688S223.465,431.5,223.465,431.5z"></path><g><path style="fill:#6E6E6E;stroke:#000000;stroke-linecap:round;stroke-linejoin:round;" d="M225.402,442.563c0,0,0.994,5.146,1.896,5.447c0.902,0.3,12.327,0.685,12.626-0.451c0.751-2.855-0.396-9.559-0.396-9.559s0.854-2.435,1-3.313l-2.373,1.563c0,0-2.375,1.625-4.125,5.063c-2.313-3.938-5.625-5.063-5.625-5.063l-4.314-0.438C224.652,438.475,225.402,442.563,225.402,442.563z"></path><g><path style="fill:#C3C2C4;stroke:#000000;stroke-linecap:round;stroke-linejoin:round;" d="M236.004,439.701c-0.031-0.221,0.346-0.683,0.802-0.964c0.35,0.021,0.968,0.715,0.956,0.934c-0.012,0.219-0.814,1.182-0.814,1.182S236.036,439.922,236.004,439.701z"></path><path style="fill:#C3C2C4;stroke:#000000;stroke-linecap:round;stroke-linejoin:round;" d="M236.167,441.665c-0.031-0.221,0.347-0.683,0.802-0.964c0.35,0.021,0.968,0.714,0.956,0.934c-0.013,0.219-0.813,1.182-0.813,1.182S236.198,441.886,236.167,441.665z"></path><path style="fill:#C3C2C4;stroke:#000000;stroke-linecap:round;stroke-linejoin:round;" d="M236.502,443.437c-0.03-0.221,0.348-0.682,0.802-0.963c0.35,0.021,0.969,0.714,0.956,0.934c-0.013,0.218-0.813,1.182-0.813,1.182S236.534,443.658,236.502,443.437z"></path></g><g><path style="fill:#505050;stroke:#000000;stroke-linecap:round;stroke-linejoin:round;" d="M233.779,439.938c0.063-0.313,0.875-4.125,4.5-7.813c2.603-2.647,3.587-4.313,3.587-4.313s1.75,1.875,1.75,4.438c-1.688,2.313-7.962,6.125-7.962,6.125L233.779,439.938z"></path><path style="fill:#505050;stroke:#000000;stroke-linecap:round;stroke-linejoin:round;" d="M220.217,432.063c0,0,0.438-1.625,2.313-2.875c0.813,3.438,9.875,4.875,11.125,10.938c-1.313-2.375-3.25-2.938-3.563-3.063S221.217,435.625,220.217,432.063z"></path></g><g><g><path style="fill:#C3C2C4;stroke:#000000;stroke-linecap:round;stroke-linejoin:round;" d="M234.154,441.813c0,0-0.183-2.808,1.375-4.5c1.438-1.563,7.275-3.938,8.025-5.813c0.75,1.25-0.188,2.5-0.188,2.5s-4.712,2.813-6.4,4.063s-1.25,3.188-1.375,3.875C234.654,442.375,234.154,441.813,234.154,441.813z"></path><path style="fill:#C3C2C4;stroke:#000000;stroke-linecap:round;stroke-linejoin:round;" d="M234.092,441.938c0.117-0.146-0.188-2.313-2.813-4.625c-2.008-1.769-10.25-2.063-10.875-5.563c-0.625,0.063-0.938,0.938-0.938,0.938s1.438,2.736,5.625,3.924s5.237,1.676,6.05,2.738c0.543,0.711,1.638,2.838,1.638,2.838S233.592,442.563,234.092,441.938z"></path></g><g><path style="fill:#C3C2C4;stroke:#000000;stroke-linecap:round;stroke-linejoin:round;" d="M233.842,441.688c0,0-0.188,3.125,0.063,3.313c0.813-0.063,1.5,0,1.5,0l-0.813-3.313H233.842z"></path><path style="fill:#C3C2C4;stroke:#000000;stroke-linecap:round;stroke-linejoin:round;" d="M233.214,441.956c-0.043-0.219,0.308-0.701,0.745-1.008c0.351,0,1.008,0.657,1.008,0.877c0,0.219-0.744,1.227-0.744,1.227S233.258,442.175,233.214,441.956z"></path></g></g></g></g><g><path style="fill:#6E6E6E;stroke:#000000;stroke-linecap:round;stroke-linejoin:round;" d="M276.537,431.5c-0.125,0.188-4,1.313-9.313,1.313s-7.375-1.688-7.375-1.688s5.375,9.688,6.25,9.688S276.537,431.5,276.537,431.5z"></path><g><path style="fill:#6E6E6E;stroke:#000000;stroke-linecap:round;stroke-linejoin:round;" d="M274.6,442.563c0,0-0.994,5.146-1.896,5.447c-0.902,0.3-12.327,0.685-12.626-0.451c-0.751-2.855,0.396-9.559,0.396-9.559s-0.854-2.435-1-3.313l2.373,1.563c0,0,2.375,1.625,4.125,5.063c2.313-3.938,5.625-5.063,5.625-5.063l4.314-0.438C275.35,438.475,274.6,442.563,274.6,442.563z"></path><g><path style="fill:#C3C2C4;stroke:#000000;stroke-linecap:round;stroke-linejoin:round;" d="M263.998,439.701c0.031-0.221-0.347-0.683-0.803-0.964c-0.35,0.021-0.968,0.715-0.955,0.934c0.012,0.219,0.814,1.182,0.814,1.182S263.967,439.922,263.998,439.701z"></path><path style="fill:#C3C2C4;stroke:#000000;stroke-linecap:round;stroke-linejoin:round;" d="M263.836,441.665c0.03-0.221-0.348-0.683-0.803-0.964c-0.35,0.021-0.968,0.714-0.955,0.934c0.013,0.219,0.813,1.182,0.813,1.182S263.805,441.886,263.836,441.665z"></path><path style="fill:#C3C2C4;stroke:#000000;stroke-linecap:round;stroke-linejoin:round;" d="M263.5,443.437c0.029-0.221-0.348-0.682-0.803-0.963c-0.35,0.021-0.969,0.714-0.955,0.934c0.012,0.218,0.813,1.182,0.813,1.182S263.469,443.658,263.5,443.437z"></path></g><g><path style="fill:#505050;stroke:#000000;stroke-linecap:round;stroke-linejoin:round;" d="M266.223,439.938c-0.063-0.313-0.875-4.125-4.5-7.813c-2.603-2.647-3.588-4.313-3.588-4.313s-1.75,1.875-1.75,4.438c1.688,2.313,7.963,6.125,7.963,6.125L266.223,439.938z"></path><path style="fill:#505050;stroke:#000000;stroke-linecap:round;stroke-linejoin:round;" d="M279.785,432.063c0,0-0.438-1.625-2.313-2.875c-0.813,3.438-9.875,4.875-11.125,10.938c1.313-2.375,3.25-2.938,3.563-3.063S278.785,435.625,279.785,432.063z"></path></g><g><g><path style="fill:#C3C2C4;stroke:#000000;stroke-linecap:round;stroke-linejoin:round;" d="M265.848,441.813c0,0,0.183-2.808-1.375-4.5c-1.438-1.563-7.275-3.938-8.025-5.813c-0.75,1.25,0.188,2.5,0.188,2.5s4.713,2.813,6.4,4.063s1.25,3.188,1.375,3.875C265.348,442.375,265.848,441.813,265.848,441.813z"></path><path style="fill:#C3C2C4;stroke:#000000;stroke-linecap:round;stroke-linejoin:round;" d="M265.91,441.938c-0.117-0.146,0.188-2.313,2.813-4.625c2.008-1.769,10.25-2.063,10.875-5.563c0.625,0.063,0.938,0.938,0.938,0.938s-1.438,2.736-5.625,3.924s-5.237,1.676-6.05,2.738c-0.543,0.711-1.638,2.838-1.638,2.838S266.41,442.563,265.91,441.938z"></path></g><g><path style="fill:#C3C2C4;stroke:#000000;stroke-linecap:round;stroke-linejoin:round;" d="M266.16,441.688c0,0,0.188,3.125-0.063,3.313c-0.813-0.063-1.5,0-1.5,0l0.813-3.313H266.16z"></path><path style="fill:#C3C2C4;stroke:#000000;stroke-linecap:round;stroke-linejoin:round;" d="M266.788,441.956c0.043-0.219-0.308-0.701-0.745-1.008c-0.351,0-1.008,0.657-1.008,0.877c0,0.219,0.744,1.227,0.744,1.227S266.744,442.175,266.788,441.956z"></path></g></g></g></g></g></g></svg>