<svg xmlns="http://www.w3.org/2000/svg" width="500" height="500" version="1.1"><g id="x100"><g><g><path style="fill:#FFFFFF;stroke:#000000;stroke-linecap:round;stroke-linejoin:round;" d="M331.588,382.347l-0.534,3.026c0,0-1.068,0.891-5.43,0.891s-5.43-0.891-5.43-0.891l-0.535-3.026H331.588z"></path><path style="fill:#FFFFFF;stroke:#000000;stroke-linecap:round;stroke-linejoin:round;" d="M325.624,368.241l17.091-3.649c0,0-1.691,3.649-2.404,5.965c-0.712,2.314-1.424,11.928-14.687,12.283c-13.264-0.355-13.976-9.969-14.688-12.283c-0.713-2.315-2.404-5.965-2.404-5.965L325.624,368.241z"></path><path style="fill:#CFD1CC;" d="M340.134,368.063c0,0-1.247,3.738-1.425,5.341s-3.771,6.543-8.934,6.899c3.383-3.026,6.085-5.475,5.373-10.281C336.929,369.132,340.134,368.063,340.134,368.063z"></path><ellipse style="fill:#CFD1CC;" cx="325.624" cy="364.859" rx="16.735" ry="4.718"></ellipse><g><ellipse style="fill:#6E6E6E;" cx="325.179" cy="366.194" rx="13.264" ry="3.383"></ellipse><path style="fill:#505050;" d="M337.106,365.928c0-2.55-8.901-1.959-8.901-1.959s3.383,0.178,3.383,1.604c0,1.423-2.314,2.491-2.314,2.491S337.106,368.241,337.106,365.928z"></path><path style="opacity:0.5;fill:#FFFFFF;" d="M317.701,367.708c0,0,1.78-1.78,3.026-1.959c1.246-0.177,5.341-0.355,5.876-1.067c0.533-0.713-10.86-1.068-12.285,1.602C315.565,367.352,317.701,367.708,317.701,367.708z"></path></g><path style="fill:#FFFFFF;stroke:#000000;stroke-linecap:round;stroke-linejoin:round;" d="M310.491,367.085c0,0,1.157,2.047-0.445,2.938c-1.216,0.675-2.581,0.355-2.759-0.712c-0.121-0.725,0.623-1.603,0.623-1.603s-1.781-2.403-3.294-1.068s-1.067,3.561,1.068,4.451c2.136,0.89,7.4,1.996,8.278,3.649c1.513,2.849-0.713,5.251-2.136,3.916c-1.425-1.334-0.624-2.848-0.624-2.848s-1.602-1.514-5.163-1.959c-3.561-0.445-7.744-2.582-5.964-7.388C301.857,361.655,309.334,363.702,310.491,367.085z"></path></g><ellipse style="fill:none;stroke:#000000;stroke-linecap:round;stroke-linejoin:round;" cx="325.624" cy="364.859" rx="16.735" ry="4.718"></ellipse></g></g></svg>