<svg xmlns="http://www.w3.org/2000/svg" width="500" height="500" version="1.1"><g id="x101"><g><path style="fill:#C9BEC4;stroke:#000000;stroke-linecap:round;stroke-linejoin:round;" d="M301.151,372.873c0,0-2.367,5.326-2.367,6.197s1.322,1.641,2.193,2.686s2.786,2.438,3.136,2.961c0.348,0.523,13.236,12.193,14.631,12.367c1.393,0.174,2.96-1.045,2.96-1.045l2.438-4.878L301.151,372.873z"></path><line style="fill:none;stroke:#000000;stroke-linecap:round;stroke-linejoin:round;" x1="318.047" y1="394.297" x2="319.788" y2="390.987"></line><g><path style="fill:#8A6354;stroke:#000000;stroke-linecap:round;stroke-linejoin:round;" d="M319.788,338.387l-19.333,35.88c0,0,17.417,16.895,18.811,17.417c1.394,0.523,4.529,0,4.529,0l21.598-37.1c0,0-4.703,0.871-5.574-0.174S319.788,338.387,319.788,338.387z"></path><polygon style="fill:#704F33;" points="319.788,390.29 323.098,390.378 342.692,356.326 339.208,355.891 "></polygon></g><polygon style="fill:#FFFFFF;stroke:#000000;stroke-linecap:round;stroke-linejoin:round;" points="315.782,388.2 335.899,351.624 325.188,343.699 305.158,379.317 "></polygon><path style="fill:#939393;stroke:#000000;stroke-linecap:round;stroke-linejoin:round;" d="M320.137,338.124c0,0,1.915-6.096,2.7-6.792c0.783-0.697,4.267,0.522,4.267,0.522l21.685,16.024c0,0,0.088,1.568,0.175,2.178c0.086,0.608,0.348,3.222,0.087,3.309c-0.262,0.088-2.265,0.088-2.265,0.088l-1.132,1.131l-5.226-0.261L320.137,338.124z"></path><path style="fill:#C6C6C8;stroke:#000000;stroke-linecap:round;stroke-linejoin:round;" d="M322.227,333.074c0,0,0.783,1.394,0.783,2.352s0,1.654,0,1.654s1.83,2.003,2.178,2.177s2.003,0.262,2.003,0.262s0.697,3.136,0.871,3.396s4.964,3.483,4.964,3.483l1.045,1.48l1.567,0.349l0.523,1.132h1.915l0.262,1.306c0,0,3.658-0.435,5.399-0.261c1.741,0.175,3.483,3.396,3.832,3.657c0.349,0.262,1.829,0.262,1.829,0.262l-0.436-2.613c0,0-0.088-3.309-0.349-3.482c-0.261-0.175-23.079-16.198-23.079-16.198S322.924,332.29,322.227,333.074z"></path><path style="fill:#C47369;stroke:#000000;stroke-linecap:round;stroke-linejoin:round;" d="M324.316,334.12c0,0,0.174,2.351,0.522,2.785c0.349,0.436,1.916,0.61,2.525,1.568c0.609,0.957,1.742,4.354,1.742,4.354s3.396,2.09,4.268,2.873c0.87,0.784,3.57,0.437,3.57,0.437s3.569,2.438,4.268,2.699c0.696,0.262,3.571-0.088,4.79,0.783c1.394-0.609,2.351-1.741,2.351-1.741s1.741-3.396,1.741-4.006c0-0.61-13.411-12.628-19.507-14.718c-1.394,0-4.093,0.958-4.093,0.958S324.665,333.51,324.316,334.12z"></path><line style="fill:none;stroke:#000000;stroke-linecap:round;stroke-linejoin:round;" x1="327.626" y1="330.113" x2="336.771" y2="337.167"></line><line style="fill:none;stroke:#000000;stroke-linecap:round;stroke-linejoin:round;" x1="338.076" y1="338.038" x2="346.263" y2="344.395"></line><line style="fill:none;stroke:#000000;stroke-linecap:round;stroke-linejoin:round;" x1="347.308" y1="345.093" x2="348.527" y2="345.006"></line><line style="fill:none;stroke:#000000;stroke-linecap:round;stroke-linejoin:round;" x1="344.173" y1="347.966" x2="345.305" y2="345.963"></line><line style="fill:none;stroke:#000000;stroke-linecap:round;stroke-linejoin:round;" x1="332.938" y1="344.134" x2="336.335" y2="338.561"></line><path style="fill:none;stroke:#000000;stroke-linecap:round;stroke-linejoin:round;" d="M327.626,331.768c-0.087,0.262,0.696,2.961,0.696,2.961"></path><line style="fill:none;stroke:#000000;stroke-linecap:round;stroke-linejoin:round;" x1="326.581" y1="337.69" x2="327.539" y2="336.122"></line><polyline style="fill:none;stroke:#000000;stroke-linecap:round;stroke-linejoin:round;" points="329.629,335.512 332.59,337.864 335.899,337.777 "></polyline><line style="fill:none;stroke:#000000;stroke-linecap:round;stroke-linejoin:round;" x1="330.325" y1="342.828" x2="332.416" y2="339.17"></line><line style="fill:none;stroke:#000000;stroke-linecap:round;stroke-linejoin:round;" x1="337.38" y1="339.083" x2="337.902" y2="341.782"></line><polyline style="fill:none;stroke:#000000;stroke-linecap:round;stroke-linejoin:round;" points="335.638,345.18 337.554,342.219 341.734,345.093 340.689,347.095 "></polyline><line style="fill:none;stroke:#000000;stroke-linecap:round;stroke-linejoin:round;" x1="342.953" y1="345.267" x2="345.479" y2="345.093"></line></g></g></svg>