<svg xmlns="http://www.w3.org/2000/svg" width="500" height="500" version="1.1"><g id="x102"><g><rect x="307.925" y="309.221" transform="matrix(0.9736 0.2282 -0.2282 0.9736 88.8928 -61.6645)" style="fill:#505050;stroke:#000000;stroke-linecap:round;stroke-linejoin:round;" width="6.277" height="88.579"></rect><path style="fill:#6E6E6E;stroke:#000000;stroke-linecap:round;stroke-linejoin:round;" d="M301.194,395.612c-3.056-0.716-2.896-1.395-2.896-1.395l-3.502,14.938c0,0-0.319,1.358,2.736,2.074c3.057,0.717,3.375-0.642,3.375-0.642l3.502-14.939C304.41,395.649,304.251,396.329,301.194,395.612z"></path><path style="fill:#FFBF00;stroke:#000000;stroke-linecap:round;stroke-linejoin:round;" d="M316.033,309.027c0,0-1.799,5.215-1.079,6.294c0.72,1.078,7.191,3.774,9.709,2.517c1.618-2.877,1.978-6.113,1.978-6.113L316.033,309.027z"></path><g><ellipse transform="matrix(0.9736 0.2282 -0.2282 0.9736 78.1602 -65.4987)" style="fill:#FFBF00;stroke:#000000;stroke-linecap:round;stroke-linejoin:round;" cx="322.364" cy="305.296" rx="10.587" ry="7.847"></ellipse><circle style="fill:#FFFFFF;" cx="325.407" cy="302.25" r="2.267"></circle></g></g></g></svg>