<svg xmlns="http://www.w3.org/2000/svg" width="500" height="500" version="1.1"><g id="x103"><g><g><path style="fill:#505050;stroke:#000000;stroke-linecap:round;stroke-linejoin:round;" d="M355.509,386.479c0.706-4.626,3.667-20.542,4.926-26.149c-9.753-2.685-23.888-7.991-23.888-7.991s-14.861-2.671-24.613-5.355c-1.788,5.464-7.386,20.653-9.146,24.99c-1.761,4.335-1.998,3.136-3.303,7.881c-0.266,11.271,24.803,17.033,24.803,17.033s24.488,7.873,30.026-1.946C355.62,390.196,354.803,391.105,355.509,386.479z"></path><path style="fill:#6E6E6E;stroke:#000000;stroke-linecap:round;stroke-linejoin:round;" d="M310.439,353.096c0,0,0.756,4.461,22.638,10.481c21.878,6.02,26.129,2.937,26.129,2.937l1.229-6.184l-48.326-13.298L310.439,353.096z"></path></g><g><path style="fill:#505050;stroke:#000000;stroke-linecap:round;stroke-linejoin:round;" d="M373.375,343.19c-8.039-7.884-20.506-12.731-30.083-15.366c-9.577-2.636-22.77-4.848-33.71-2.187c-10.939,2.661-18.46,9.381-12.84,15.748s27.351,11.213,38.861,14.379c11.511,3.168,32.66,10.121,40.746,7.526C384.438,360.695,381.414,351.074,373.375,343.19z"></path><path style="opacity:0.5;fill:#FFFFFF;" d="M297.592,341.053c6.555,6.058,25.824,10.226,25.824,10.226s-22.6-7.952-22.318-12.664c0.548-9.205,9.834-12.038,9.834-12.038S289.646,333.713,297.592,341.053z"></path><path style="opacity:0.5;fill:#FFFFFF;" d="M362.767,361.822c0,0,15.216,4.47,17.246-2.911c2.031-7.381-6.324-13.082-6.324-13.082s-3.289,1.647-3.414,4.164c-0.126,2.518,3.354,6.533,0.914,9.042C366.839,363.51,362.767,361.822,362.767,361.822z"></path><ellipse transform="matrix(0.9642 0.2653 -0.2653 0.9642 102.0999 -78.1222)" style="fill:#3F3F3F;stroke:#000000;stroke-linecap:round;stroke-linejoin:round;" cx="340.246" cy="338.896" rx="24.606" ry="6.834"></ellipse></g></g></g></svg>