<svg xmlns="http://www.w3.org/2000/svg" width="500" height="500" version="1.1"><g id="x104"><g><path style="fill:#B2B2B2;stroke:#000000;stroke-linecap:round;stroke-linejoin:round;" d="M318.605,352.229c0,0-7.481,8.969-8.787,10.152c-1.012,0.02-2.011-0.748-2.011-0.748l9.21-10.357L318.605,352.229z"></path><path style="fill:#B2B2B2;stroke:#000000;stroke-linecap:round;stroke-linejoin:round;" d="M298.249,375.766c-0.145,0.187-2.526,3.031-2.526,3.031l-1.593-1.422l2.862-3.469L298.249,375.766z"></path><path style="fill:#6E6E6E;stroke:#000000;stroke-linecap:round;stroke-linejoin:round;" d="M304.833,368.096l1.376,1.057l2.008-1.839l1.278,1.183c0,0-5.281,6.879-5.849,6.841c-0.566-0.037-3.752-2.881-3.752-2.881L304.833,368.096z"></path><path style="fill:#6E6E6E;stroke:#000000;stroke-linecap:round;stroke-linejoin:round;" d="M311.187,361.245c-0.231-0.477-1.463-1.72-2.223-1.508s-12.472,13.784-12.51,14.352s1.478,1.831,2.122,2.027C299.22,376.313,311.418,361.721,311.187,361.245z"></path><path style="fill:#6E6E6E;stroke:#000000;stroke-linecap:round;stroke-linejoin:round;" d="M315.866,350.788l2.628,2.018c0,0,47.534-57.078,64.612-83.465c2.229-0.142,3.063,0.498,3.063,0.498l2.061-3.72l-6.474-0.199C381.757,265.92,343.008,319.109,315.866,350.788z"></path><path style="fill:none;stroke:#000000;stroke-linecap:round;stroke-linejoin:round;" d="M307.91,369.267c0,0,18.682-20.449,40.059-47.774c19.644-25.108,38.22-52.369,38.22-52.369"></path></g></g></svg>