<svg xmlns="http://www.w3.org/2000/svg" width="500" height="500" version="1.1"><g id="x105"><g><g><circle style="fill:#6E6E6E;stroke:#000000;stroke-linecap:round;stroke-linejoin:round;" cx="333.141" cy="317.499" r="3.371"></circle><path style="fill:#6E6E6E;stroke:#000000;stroke-linecap:round;stroke-linejoin:round;" d="M332.132,319.45c-9.026-5.147-21.189-0.822-27.17,9.662c-5.125,8.986-4.036,19.575,2.062,25.66c-0.003,0.015-0.01,0.027-0.013,0.044c-0.251,1.376-1.019,6.68-2.959,10.975c-2.179,4.814-3.55,5.932-3.55,5.932s-1.099,3.774,3.413,3.089c0.534-0.081,0.643-2.167,3.295-6.8c2.175-3.799,6.229-7.754,7.019-9.043c8.405,2.329,18.237-2.127,23.421-11.216C343.628,337.27,341.157,324.598,332.132,319.45z"></path><g><ellipse transform="matrix(0.8687 0.4954 -0.4954 0.8687 209.7914 -114.7671)" style="fill:#DCDCDC;stroke:#000000;stroke-linecap:round;stroke-linejoin:round;" cx="321.348" cy="338.286" rx="14.244" ry="16.545"></ellipse><path style="fill:#FFFFFF;" d="M328.422,325.239c-5.813-3.313-13.646-0.528-17.496,6.224c-1.516,2.657-2.184,5.531-2.09,8.242l25.177-5.301C333.652,330.553,331.717,327.118,328.422,325.239z"></path></g></g><g><path style="fill:#DCDCDC;stroke:#000000;stroke-linecap:round;stroke-linejoin:round;" d="M310.353,359.393c0,0-2.334-6.238-5.027-6.549c-0.813,0.258-3.884,7.225-2.548,8.054C304.114,361.727,310.353,359.393,310.353,359.393z"></path><path style="fill:#DCDCDC;stroke:#000000;stroke-linecap:round;stroke-linejoin:round;" d="M310.043,359.168c0,0,6.271-2.242,8.247-0.386c0.327,0.787-3.014,7.629-4.51,7.144C312.285,365.439,310.043,359.168,310.043,359.168z"></path></g></g></g></svg>