<svg xmlns="http://www.w3.org/2000/svg" width="500" height="500" version="1.1"><g id="x106"><g><g><path style="fill:#6E6E6E;stroke:#000000;stroke-linecap:round;stroke-linejoin:round;" d="M314.95,362.649l-16.144,3.104l0.54,4.136l15.693-2.195c-0.096-0.234-0.177-0.464-0.231-0.682C314.809,365.528,314.648,364.044,314.95,362.649z"></path><ellipse style="fill:#6E6E6E;stroke:#000000;stroke-linecap:round;stroke-linejoin:round;" cx="315.417" cy="365.436" rx="2.38" ry="3.438"></ellipse><path style="fill:#6E6E6E;stroke:#000000;stroke-linecap:round;stroke-linejoin:round;" d="M329.307,407.035h-27.778c0,0-0.54,1.618,0.404,3.102c0.486,0.765,3.227,1.206,6.194,1.455c-0.071,1.156-0.059,2.69,0.413,3.399c0.809,1.214,6.877,0.81,6.877,0.81s6.068,0.404,6.877-0.81c0.474-0.709,0.485-2.243,0.413-3.399c2.968-0.249,5.708-0.69,6.195-1.455C329.846,408.653,329.307,407.035,329.307,407.035z"></path><path style="fill:#505050;" d="M309.64,410.541c0,0,8.226,0.405,11.192-0.067c-1.416,1.146-2.765,1.483-5.461,1.483C312.674,411.957,309.64,410.541,309.64,410.541z"></path><path style="fill:#FFBF00;" d="M302.763,400.697c0,0,0.27,3.911,1.483,4.315s18.204,2.157,23.059-0.135c2.022-3.506,1.753-4.854,1.753-4.854l-5.933-22.115l-15.104,0.27L302.763,400.697z"></path><path style="fill:#6E6E6E;stroke:#000000;stroke-linecap:round;stroke-linejoin:round;" d="M310.18,404.068c0,0,1.078-5.057,1.955-6.675c-0.742-0.337-2.091,0.202-2.158-0.135s0.136-3.438,1.079-3.843c0.944-0.404,4.922-0.675,6.203-0.135c1.281,0.539,2.697-0.337,3.438,0.539c0.741,0.877,2.262,2.131,2.157,2.697c-0.337,1.82-1.483,1.955-1.483,1.955l1.618,6.136c0,0-3.775,0.337-7.146,0.067S310.18,404.068,310.18,404.068z"></path><path style="fill:#8B5C29;stroke:#000000;stroke-linecap:round;stroke-linejoin:round;" d="M317.528,393.618c0,0,1.349-4.315,2.293-4.315c1.482,0.675,1.955,0.944,1.955,0.944s-1.753,4.72-1.955,4.652C319.618,394.832,317.528,395.169,317.528,393.618z"></path><path style="fill:#FF0000;stroke:#000000;stroke-linecap:round;stroke-linejoin:round;" d="M320.363,392.442c-1.166,0.122-2.819-0.806-3.253-2.979c-0.38-1.899,1.34-4.009,1.937-6.208s-0.319-4.306-0.412-4.384c-0.092-0.079,5.335,3.899,4.413,9.166c1.045-1.978,1.269-3.114,1.269-3.114s0.912,3.278-0.389,5.137C322.206,392.523,320.363,392.442,320.363,392.442z"></path><path style="fill:#6E6E6E;stroke:#000000;stroke-linecap:round;stroke-linejoin:round;" d="M324.856,375.774c-4.585,0-9.439-0.698-9.439-0.698s-4.854,0.698-9.439,0.698c-1.618,13.943-6.742,24.053-6.742,24.053s0,2.092,2.428,6.623c1.349,1.395,13.754,1.395,13.754,1.395s12.406,0,13.755-1.395c2.427-4.531,2.427-6.623,2.427-6.623S326.475,389.718,324.856,375.774z M305.537,402.721c0,0-0.989-2.697-0.89-3.372c0.099-0.674,5.127-16.316,5.127-19.553h3.621l0.021,23.6C313.416,403.396,305.637,403.529,305.537,402.721z M325.463,402.721c-0.099,0.809-7.877,0.675-7.877,0.675l0.021-23.6h3.621c0,3.236,5.027,18.879,5.126,19.553C326.452,400.023,325.463,402.721,325.463,402.721z"></path><path style="fill:#505050;" d="M300.784,400.203c0,0,1.844,0.404,2.203-0.359c0.674,2.383,1.213,4,1.663,4.315c0.449,0.314,6.742,0.989,10.742,0.989c4.001,0,9.979-0.091,11.238-1.26c0.674-1.572,1.349-3.82,1.349-3.82s1.303,0.539,2.066,0.18c-0.629,1.844-1.735,4.917-2.095,5.188c-2.157,0.494-7.929,0.952-12.604,0.952c-8.899,0-12.45-1.06-12.45-1.06S301.998,404.024,300.784,400.203z"></path><path style="fill:#6E6E6E;stroke:#000000;stroke-linecap:round;stroke-linejoin:round;" d="M325.666,372.38c-0.243-0.323-1.264-0.55-2.571-0.708c-0.112-0.994-0.306-2.213-0.607-2.798c-0.559-1.079-7.07-1.079-7.07-1.079s-6.511,0-7.068,1.079c-0.304,0.585-0.495,1.804-0.609,2.798c-1.308,0.158-2.327,0.385-2.57,0.708c-0.604,0.805-0.906,2.809-1.022,3.775h22.541C326.572,375.188,326.27,373.185,325.666,372.38z"></path><path style="fill:#505050;" d="M310.628,371.302c0,0,1.799-0.36,4.676-0.36c2.876,0,5.124,0.72,5.124,0.72S312.785,372.11,310.628,371.302z"></path><path style="fill:#505050;" d="M305.954,374.718h18.968l-0.179-1.259c0,0-3.865-0.539-9.62-0.539c-5.753,0-8.811,0.719-8.811,0.719L305.954,374.718z"></path></g><path style="fill:#6E6E6E;stroke:#000000;stroke-linecap:round;stroke-linejoin:round;" d="M329.104,362.788c-0.271-2.337-2.429-1.979-2.429-1.979l-9.566,1.84c-0.303,1.395-0.143,2.879-0.143,4.363c0.055,0.218,0.136,0.447,0.231,0.682l10.557-2.03C327.754,365.664,329.373,365.125,329.104,362.788z"></path></g></g></svg>