<svg xmlns="http://www.w3.org/2000/svg" width="500" height="500" version="1.1"><g id="x107"><g><path style="fill:#6E6E6E;stroke:#000000;stroke-linecap:round;stroke-linejoin:round;" d="M320.603,384.728l-18.247,6.94l-18.246-6.94c0,0-6.374,7.659-5.043,18.268c0.999,7.956,4.33,14.923,13.241,15.751c4.214,2.588,7.45,2.588,10.048,1.149c2.818,1.394,7.269,0.72,8.58-0.797c3.745,0.505,6.104-1.113,7.795-3.203c3.164-0.606,3.704-2.292,4.631-5.234c1.189-2.209,1.922-4.777,2.284-7.666C326.977,392.387,320.603,384.728,320.603,384.728z"></path><path style="fill:#505050;" d="M299.578,419.268c0,0,2.067-0.63,2.518-0.989c0.988,0.18,2.517,0.809,2.517,0.809s-2.427-2.966-2.967-3.056C301.106,415.94,299.578,419.268,299.578,419.268z"></path><path style="fill:#505050;" d="M308.928,418.548c0,0,1.258-0.72,1.618-1.079c1.259,0.36,2.517,0.181,2.517,0.181s-2.247-3.237-2.697-2.877c-0.448,0.359-1.707,3.865-1.707,3.865"></path><path style="fill:#505050;" d="M294.005,393.466c0,0-7.731,10.608-1.169,23.733c-2.428,0-12.406-1.497-12.406-14.923c0-9.439,3.327-14.114,3.327-14.114L294.005,393.466z"></path><ellipse style="fill:#6E6E6E;stroke:#000000;stroke-linecap:round;stroke-linejoin:round;" cx="302.455" cy="384.728" rx="17.923" ry="8.204"></ellipse><ellipse cx="301.916" cy="383.757" rx="12.765" ry="4.854"></ellipse><path style="fill:#505050;stroke:#000000;stroke-linecap:round;stroke-linejoin:round;" d="M313.063,365.238c-2.966-2.225-8.563-2.189-14.024-0.36c0,0-4.854,1.259-7.19,4.136c-2.338,2.877-4.496,12.046-3.236,18.339c0.898,0.36,2.336,0.36,2.336,0.36s1.979-11.508,5.035-15.643c0.319-0.433,0.691-0.827,1.069-1.178c0.876-0.468,6.343-3.257,11.457-2.941c0.861,0.187,1.727,0.464,2.396,0.883c2.877,1.798,6.293,13.484,6.293,13.484l1.618-0.539C318.816,381.779,317.378,368.475,313.063,365.238z"></path><path style="fill:#6E6E6E;stroke:#000000;stroke-linecap:round;stroke-linejoin:round;" d="M284.475,392.027c0,0,0.54-7.191,2.697-7.731c2.157-0.539,4.315,2.158,4.315,2.877c0,0.72-3.057,7.191-4.675,6.832S284.475,392.027,284.475,392.027z"></path><path d="M301.408,396.476c0,0-4.516,8.14-4.148,8.538c0.369,0.398,9.922-0.718,9.922-0.718L301.408,396.476z"></path><path d="M320.594,392.717c0,0-3.129,8.433-2.877,8.768c0.251,0.336,6.403-1.905,6.403-1.905L320.594,392.717z"></path><polygon points="312.741,402.187 310.748,407.806 316.548,406.718 "></polygon><path d="M294.364,409.266c0,0.27,0.696,3.146,3.123,5.214c2.428,2.067,7.935,2.248,9.732,1.889c-0.091-1.349-0.091-2.293-0.091-2.293l3.597-0.674l0.449,1.978c0,0,6.181-0.787,6.81-1.506c0-0.719-0.246-2.449-0.246-2.449l2.247-0.989l0.27,1.708c0,0,2.696-3.574,3.596-7.709c-3.236,2.404-4.653,4.465-10.967,5.462C304.77,411.176,294.364,409.266,294.364,409.266z"></path><circle style="fill:#003CFF;stroke:#000000;stroke-linecap:round;stroke-linejoin:round;" cx="308.882" cy="379.217" r="3.843"></circle><circle style="fill:#FFFFFF;" cx="308.725" cy="377.577" r="0.697"></circle><circle style="fill:#00A33D;stroke:#000000;stroke-linecap:round;stroke-linejoin:round;" cx="311.377" cy="382.61" r="3.843"></circle><circle style="fill:#FFFFFF;" cx="312.322" cy="381.397" r="0.697"></circle><circle style="fill:#6E6E6E;stroke:#000000;stroke-linecap:round;stroke-linejoin:round;" cx="294.588" cy="383.532" r="3.843"></circle><circle style="fill:#FFFFFF;" cx="293.578" cy="382.207" r="0.697"></circle><circle style="fill:#FF0000;stroke:#000000;stroke-linecap:round;stroke-linejoin:round;" cx="302.725" cy="378.678" r="3.843"></circle><circle style="fill:#FFFFFF;" cx="301.578" cy="377.532" r="0.697"></circle><circle style="fill:#FFFF00;stroke:#000000;stroke-linecap:round;stroke-linejoin:round;" cx="306.32" cy="383.847" r="3.843"></circle><circle style="fill:#FFFFFF;" cx="307.287" cy="382.791" r="0.697"></circle><circle style="fill:#D010B1;stroke:#000000;stroke-linecap:round;stroke-linejoin:round;" cx="300.252" cy="384.477" r="3.843"></circle><circle style="fill:#FFFFFF;" cx="300.904" cy="383.24" r="0.697"></circle></g></g></svg>