<svg xmlns="http://www.w3.org/2000/svg" width="500" height="500" version="1.1"><g id="x108"><g><g><circle style="fill:#6E6E6E;stroke:#000000;stroke-linecap:round;stroke-linejoin:round;" cx="346.417" cy="249.255" r="17.125"></circle><circle style="fill:#505050;" cx="346.418" cy="249.255" r="13.641"></circle><ellipse transform="matrix(0.8709 0.4915 -0.4915 0.8709 165.3204 -140.1846)" style="opacity:0.5;fill:#FFFFFF;" cx="349.451" cy="244.536" rx="10.046" ry="8.495"></ellipse><ellipse transform="matrix(0.855 0.5186 -0.5186 0.855 176.5223 -146.6768)" style="fill:#FFFFFF;" cx="350.598" cy="242.378" rx="6.203" ry="4.854"></ellipse></g><g><g><path style="fill:#D3DB6D;stroke:#000000;stroke-linecap:round;stroke-linejoin:round;" d="M374.576,226.708c-0.397-1.002-0.032-9.565,2.827-11.863c2.859-2.299,10.872-2.585,10.872-2.585s2.241,6.364-3.376,11.212C379.281,228.319,374.576,226.708,374.576,226.708z"></path><g><path style="fill:#D3DB6D;stroke:#000000;stroke-linecap:round;stroke-linejoin:round;" d="M377.207,223.859c0,0,3.597-6.293,6.653-7.552"></path><path style="fill:#D3DB6D;stroke:#000000;stroke-linecap:round;stroke-linejoin:round;" d="M381.139,219.189c0,0,2.542-0.511,3.531,0.866"></path></g></g><path style="fill:#94B048;stroke:#000000;stroke-linecap:round;stroke-linejoin:round;" d="M288.615,421.678c0.28-1.813,16.401-52.199,16.321-53.996c-0.079-1.797-0.271-6.107-0.271-6.107l5.804-7.096l4.551-11.001l3.554-9.156c0,0-1.509-9.652-0.838-10.762c0.67-1.108,4.447-5.236,4.447-5.236s-3.058-12.103-2.043-13.588c1.014-1.484,6.147-7.471,6.147-7.471l-1.054-7.513l-0.662-6.81c0,0-16.924-8.247-19.669-21.443c-2.746-13.196-1.604-11.807-1.604-11.807s-0.398-8.981,0.208-11.528c0.607-2.546,7.233-15.438,7.233-15.438s1.119-7.249,2.508-8.39c1.39-1.142,6.011-2.427,6.011-2.427l6.06-1.349c0,0,1.669-2.954,3.073-3.736c1.405-0.782,9.093,2.116,9.093,2.116s12.725-5.244,14.374-4.597c1.648,0.647,11.371,8.854,11.371,8.854l4.734,1.229c0,0,5.188,3.369,5.348,6.962c2.722,4.559,4.55,5.197,4.55,5.197s1.445,8.215,2.665,11.399c1.223,3.186,3.073,12.462,2.826,14.992c-0.248,2.531-8.847,11.551-8.847,11.551l-14.959,3.544c0,0,7.847-9.707,8.422-12.972c0.574-3.266-0.366-8.263-0.366-8.263s-4.016-1.262-4.079-2.698c-0.064-1.438,1.477-7.265,1.477-7.265s-13.603-14.514-17.944-15.041c-4.343-0.527-19.6,4.47-21.707,5.643c-2.107,1.174-8.52,10.816-9.156,12.645c-0.64,1.828-1.583,10.168,0.962,19.877c3.032,3.465,14.012,9.334,14.012,9.334l4.216-2.347l8.78,3.21l1.597,3.528c0,0,4.622-1.285,5.731-0.614c1.11,0.671,3.764,7.752,3.764,7.752l-9.815,1.875l-2.697,4.079c0,0,3.192,7.058,1.834,8.918c-1.355,1.859-8.598,9.021-8.598,9.021s1.302,4.98,0.008,8.277s-5.085,7.064-5.085,7.064l-0.544,3.984l-3.058,4.095c0,0-2.147,8.375-3.131,10.577c-0.981,2.204-4.16,11.703-4.16,11.703s0.486,2.858,0.224,5.029s-4.446,5.237-4.446,5.237s-3.011,5.173-3.617,7.719c-0.605,2.546-15.308,52.511-17.91,58.745c-2.603,6.235-8.088,20.517-8.088,20.517l-4.343-0.527L288.615,421.678z"></path><path style="fill:#76882A;" d="M306.906,361.942c0,0,3.776,3.236,3.776,4.315c0,1.078-2.158,8.63-2.697,8.091C307.446,373.809,305.648,365.358,306.906,361.942z"></path><path style="fill:#76882A;" d="M320.392,334.074c0.18,0.539,2.337,5.034,2.337,5.034l-2.157,6.113l-2.517-5.395L320.392,334.074z"></path><path style="fill:#76882A;" d="M329.741,318.611c0,0,4.314-3.775,5.034-5.933c-2.696-4.495-8.63-8.631-8.63-7.911S330.819,315.735,329.741,318.611z"></path><path style="fill:#76882A;" d="M348.8,220.264c0,0,13.844,10.248,17.979,16.721c1.618-5.754,1.619-10.248,0.36-10.788c-1.259-0.539-5.214-1.079-6.473-2.337c-1.259-1.259-2.338-6.652-2.338-6.652L348.8,220.264z"></path><path style="fill:#76882A;" d="M320.931,230.152c0,0,1.439-1.979,2.518-2.877c1.079-0.898,9.17-4.854,13.664-5.754c-4.135-1.978-9.528-3.775-11.147-3.236c-1.617,0.54-11.686,5.934-11.686,5.934L320.931,230.152z"></path><path style="fill:#76882A;" d="M313.919,249.21c0,0,0.18-7.73,0.36-8.45c0.179-0.719,4.135-6.652,5.213-7.731c-4.314,1.259-7.012,1.799-7.731,2.338c-0.718,0.539-5.214,3.236-5.214,3.236s5.754,1.079,5.934,2.337c0.181,1.259-3.236,5.754-3.956,6.293c-0.718,0.54,0.181,3.416,0.181,3.416L313.919,249.21z"></path><path style="fill:#76882A;" d="M327.583,282.473c0,0-8.81-12.586-8.989-13.485c-0.18-0.898-2.157-7.551-2.157-7.551s9.528,7.911,14.024,9.529c-3.236,2.517-4.854,2.337-4.854,2.337L327.583,282.473z"></path><polygon style="fill:#76882A;" points="343.226,283.911 344.305,282.293 344.844,275.82 333.517,270.605 "></polygon><path style="fill:#76882A;" d="M326.685,282.652l9.349,19.777c0,0,4.137-3.596,4.495-4.675C340.888,296.677,326.685,282.652,326.685,282.652z"></path><path style="fill:#DBF07D;" d="M345.383,277.618l-0.719-2.337l6.833-0.72c0,0,2.696,5.035,1.618,5.035C352.036,279.597,345.383,277.618,345.383,277.618z"></path><path style="fill:#DBF07D;" d="M373.611,263.594l6.832-8.091c-3.956,0.18-12.227,0.36-11.327,1.979C370.015,259.1,373.611,263.594,373.611,263.594z"></path><path style="fill:#DBF07D;" d="M326.146,211.453c0,0,2.157-3.416,3.415-3.416c1.259,0,6.833,0.898,8.991,3.775C332.797,213.431,326.146,211.453,326.146,211.453z"></path><path style="fill:#DBF07D;" d="M306.547,259.639c0,0.539,2.158,9.529,6.653,12.945c4.494,3.416,11.327,7.371,11.327,7.371s-7.731-7.371-8.99-10.607C314.279,266.111,306.547,259.639,306.547,259.639z"></path><path style="fill:#DBF07D;" d="M316.796,344.502c0,0,2.338,9.71,2.157,10.608c-0.18,0.898-3.596,3.057-3.596,3.057S315.357,348.099,316.796,344.502z"></path><path style="fill:#DBF07D;" d="M319.673,324.365c0,0,0.719,8.989,1.258,9.529c0.539,0.539,2.697-2.338,2.697-2.338L319.673,324.365z"></path><path style="fill:#DBF07D;" d="M322.189,305.307c0,0,0.899,10.068,2.338,11.327c1.438,1.259,5.033-0.18,5.573-1.438C328.123,312.679,325.426,309.262,322.189,305.307z"></path><path style="fill:#94B048;stroke:#000000;stroke-linecap:round;stroke-linejoin:round;" d="M334.955,267.819c-0.27-0.81-0.27-7.012-0.27-7.012s13.619,5.394,13.484,6.742s-4.854,3.236-4.854,3.236L334.955,267.819z"></path><path style="fill:#76882A;" d="M341.428,268.27c0,0-1.618-2.698-0.18-3.058c-1.979-1.258-5.034-2.517-5.034-2.517v3.956L341.428,268.27z"></path><path style="fill:#D3DB6D;stroke:#000000;stroke-linecap:round;stroke-linejoin:round;" d="M303.67,248.401c0,0-3.236,5.934-2.427,7.281c0.809,1.349,6.203,2.158,6.203,2.158s13.754-3.506,15.103-6.473C315.537,248.401,303.67,248.401,303.67,248.401z"></path><path style="fill:#D3DB6D;stroke:#000000;stroke-linecap:round;stroke-linejoin:round;" d="M324.167,210.104c-0.27,0.81-8.36,12.676-8.899,15.104c-2.697-0.271-5.183-0.755-4.854-1.618c0.328-0.864,0.809-10.249,2.427-11.327C314.458,211.184,324.167,210.104,324.167,210.104z"></path><path style="fill:#D3DB6D;stroke:#000000;stroke-linecap:round;stroke-linejoin:round;" d="M306.906,231.681c0,0-2.427-4.854-2.157-6.473s5.992-2.482,5.992-2.482s11.808,5.988,13.156,11.382C319.043,232.489,308.795,231.141,306.906,231.681z"></path><path style="fill:#D3DB6D;stroke:#000000;stroke-linecap:round;stroke-linejoin:round;" d="M344.395,205.52c0,0,2.966-6.472,4.584-5.394c1.618,1.079,5.664,5.934,5.664,5.934s3.236,22.924-1.349,25.891c-2.157-12.137-6.473-26.431-6.473-26.431H344.395z"></path><path style="fill:#D3DB6D;stroke:#000000;stroke-linecap:round;stroke-linejoin:round;" d="M364.621,243.277c0,0,13.754,0,16.99-1.888c1.618,1.618,2.967,2.696,2.967,2.696l-1.349,4.315C383.229,248.401,369.745,251.368,364.621,243.277z"></path><path style="fill:#D3DB6D;stroke:#000000;stroke-linecap:round;stroke-linejoin:round;" d="M370.015,216.577c0,0,5.664,0.54,5.395,1.349c-0.271,0.81,0.809,7.821,0.809,7.821s-4.045,18.069-9.979,22.654c-1.888-1.349-2.697-2.967-2.697-2.967S370.824,227.904,370.015,216.577z"></path><path style="fill:#D3DB6D;stroke:#000000;stroke-linecap:round;stroke-linejoin:round;" d="M323.897,210.914c-1.079,0-8.9-3.506-9.979-7.012c-1.079-3.506,1.618-11.058,1.618-11.058s6.742,0.27,9.169,7.282C327.134,207.138,323.897,210.914,323.897,210.914z"></path><g><path style="fill:#D3DB6D;stroke:#000000;stroke-linecap:round;stroke-linejoin:round;" d="M321.871,207.106c0,0-4.172-5.927-4.014-9.229"></path><path style="fill:#D3DB6D;stroke:#000000;stroke-linecap:round;stroke-linejoin:round;" d="M319.313,201.564c0,0,0.615-2.519,2.283-2.83"></path></g><g><path style="fill:#D3DB6D;stroke:#000000;stroke-linecap:round;stroke-linejoin:round;" d="M307.716,231.681c0,0-7.821,1.078-10.248-0.54c-2.428-1.618-3.236-8.899-3.236-8.899s5.124-0.81,8.899,1.349C306.906,225.747,307.716,231.681,307.716,231.681z"></path><g><path style="fill:#D3DB6D;stroke:#000000;stroke-linecap:round;stroke-linejoin:round;" d="M306.76,229.47c0,0-7.149-1.188-9.392-3.616"></path><path style="fill:#D3DB6D;stroke:#000000;stroke-linecap:round;stroke-linejoin:round;" d="M301.017,227.403c0,0-1.363-2.205-0.414-3.611"></path></g></g><path style="fill:none;stroke:#000000;stroke-linecap:round;stroke-linejoin:round;" d="M331.167,269.332c0,0,10.462,11.669,11.575,17.483"></path><path style="fill:none;stroke:#000000;stroke-linecap:round;stroke-linejoin:round;" d="M322.279,317.443c0,0,3.506,9.709,4.314,11.057"></path><path style="fill:none;stroke:#000000;stroke-linecap:round;stroke-linejoin:round;" d="M317.155,341.445c0,0,2.157,5.395,2.696,9.979"></path><path style="fill:none;stroke:#000000;stroke-linecap:round;stroke-linejoin:round;" d="M335.764,304.768c0,0-7.281-15.643-9.979-20.497"></path></g></g></g></svg>