<svg xmlns="http://www.w3.org/2000/svg" width="500" height="500" version="1.1"><g id="x109"><g><g><path style="fill:#6E6E6E;stroke:#000000;stroke-linecap:round;stroke-linejoin:round;" d="M363.336,272.218l5.431-14.473c0,0-3.213-7.263-5.979-7.034c-2.768,0.229-8.866,2.402-8.866,2.402l-1.933,8.735c0,0-1.9,2.779-4.03,2.791c-2.129,0.013-4.699-2.316-4.699-2.316s-3.894-10.412-4.563-15.521c-0.668-5.107-0.724-14.69-0.724-14.69s9.704-16.456,12.267-15.192c2.563,1.263,6.853,6.563,8.141,8.26c1.287,1.696,4.079,5.727,4.079,5.727s6.408,3.157,8.544,4.21s11.937,1.636,13.843-0.079c1.907-1.715,3.545-6.507,4.216-10.113c-0.809-1.945-8.083-5.691-8.306-7.394c-0.222-1.703-7.374-13.097-9.727-14.786c-2.352-1.69-15.185-11.2-18.375-10.118c-3.188,1.084-8.933,1.97-8.933,1.97s-16.729,16.708-19.057,19.277c-2.328,2.568-6.779,6.216-6.545,10.047c0.234,3.833,0.724,14.691,1.604,19.372c0.877,4.681,2.926,27.456,5.276,29.147c-1.46,5.119-5.058,9.187-5.058,9.187l1.535,7.658c0,0-2.08,8.53-2.712,9.813c-0.631,1.281-3.771,10.884-3.548,12.586c0.223,1.703-8.274,42.643-8.477,44.136c-0.206,1.492-17.172,72.561-18.856,75.978c-1.684,3.417-3.114,13.86-1.188,15.341c1.925,1.48,5.745-0.884,5.745-0.884l2.935-8.11l2.954-4.915l3.716-20.468c0,0,27.045-95.833,28.098-97.968c1.053-2.136,0.582-9.801,1.852-11.298c1.27-1.499,6.569-5.789,7.629-6.86c1.059-1.07,3.98-11.31,3.98-11.31s6.166-1.739,7.651-2.601C352.742,281.862,360.389,278.198,363.336,272.218z"></path><path style="opacity:0.5;fill:#FFFFFF;" d="M360.42,266.246c0,0,6.404-6.998,6.188-8.328c-0.216-1.332-2.912-5.483-2.912-5.483l-5.21,1.229l-0.693,11.205L360.42,266.246z"></path><polyline style="fill:#505050;" points="301.525,383.36 307.12,361.631 306.928,371.881 "></polyline><path style="fill:#505050;" d="M321.27,340.423c0,0-4.822,6.304-5.938,7.851c0.41,3.869-2.229,9.488-2.229,9.488l-0.977,13.493L321.27,340.423z"></path><path style="fill:#505050;" d="M316.936,309.942c0,0,3.344-11.035,3.253-10.474c0.008,3.86,0.077,8.768,0.623,9.661c0.547,0.896,1.169,6.296,1.169,6.296l-4.61,9.966l-0.138-5.552L316.936,309.942z"></path><path style="fill:#505050;" d="M326.901,301.767c-0.25,0.477-1.631,5.438-1.631,5.438l4.059,6.59c0,0-0.236-8.851,2.244-12.423C330.147,300.219,326.901,301.767,326.901,301.767z"></path><path style="fill:#505050;" d="M338.437,295.629c0,0-5.666,6.167-7.926,6.606c-2.101,0.524-5.999-1.721-5.999-1.721s4.179-4.104,5.476-4.642c1.297-0.539,4.99-0.229,4.99-0.229s1.084-2.07,0.599-6.182c0.728-0.228,6.082-2.7,6.082-2.7S339.824,294.529,338.437,295.629z"></path><path style="fill:#505050;" d="M338.653,266.923c0,0,3.663-2.344,2.138-6.796c1.783,3.572,3.998,5.545,5.439,5.893C343.788,267.582,341.042,268.174,338.653,266.923z"></path><path style="fill:#505050;" d="M383.746,233.912c0,0-8.479,1.852-12.143-0.067c-3.664-1.918-8.441-4.421-8.441-4.421s-7.661-11.725-13.941-15.622c0,0-10.638,13.102-12.495,17.812c0.514-6.021-2.505-6.994-3.211-7.973s-5.143-0.258-5.143-0.258s-5.749,2.063-6.006,2.943c-0.258,0.88-1.599,12.355-1.478,14.448c-1.775-8.236-1.436-17.8-0.928-19.157c0.508-1.358,22.758-25.63,24.692-25.835c-0.152,3.777-0.933,6.818,1.298,7.986c2.229,1.167,5.657,2.76,5.657,2.76l3.147,3.678c0,0,9.33,12.802,11.075,14.121c5.287,1.145,8.039,0.151,9.474,0.901C376.737,225.979,383.541,231.978,383.746,233.912z"></path><path style="fill:#505050;" d="M361.384,272.737c0,0-9.54,11.241-23.646,12.987c0.53-2.563,1.676-3.588,1.676-3.588l2.223-2.692c0,0,3.647-1.541,5.089-1.191c1.44,0.349,2.881,0.697,2.881,0.697S359.897,274.8,361.384,272.737z"></path><path style="fill:#505050;" d="M354.579,258.215c0,0-0.78,3.042-1.447,4.315c-0.668,1.274-4.589,4.498-7.022,5.658c3.836,1.198,7.955,0.311,7.955,0.311s3.466-4.681,3.715-5.157C358.03,262.863,355.832,260.088,354.579,258.215z"></path><path style="fill:none;stroke:#000000;stroke-linecap:round;stroke-linejoin:round;" d="M350.104,263.514c-0.668,0.72-4.299,6.332-12.289,3.568"></path><path style="fill:none;stroke:#000000;stroke-linecap:round;stroke-linejoin:round;" d="M351.573,217.854c0,0-4.047-5.487-9.086-4.727"></path><path style="fill:none;stroke:#000000;stroke-linecap:round;stroke-linejoin:round;" d="M344.689,284.723c0,0-2.587,0.75-7.208,1.74"></path><path style="fill:#505050;" d="M320.434,239.318c0,0,3.444,26.362,5.896,32.922c1.281-3.997,2.479-3.572,2.958-3.321c0.477,0.25,2.647,4.633,2.647,4.633l-3.513-14.22c0,0,1.455-4.718,0.992-5.771c-0.462-1.055-4.164-5.226-4.164-5.226l-0.289-6.036l1.296-4.802c0,0-4.899-4.595-5.188-6.37"></path><path style="fill:#505050;" d="M321.567,281.722c0,0,0.933,5.969,1.479,6.863c2.343-0.6,4.247-3.458,4.247-3.458L321.567,281.722z"></path><path style="fill:#505050;" d="M306.928,371.881c-0.501,0.955-1.309,5.403-1.309,5.403l-4.094,6.076"></path><path style="opacity:0.5;fill:#FFFFFF;" d="M384.591,231.717c0,0,2.855-4.29,2.411-6.349c-3.686-2.844-7.36-6.291-7.36-6.291s-8.305-1-8.92-0.408c3.437,3.321,5.916,6.143,5.916,6.143l6.839,2.059L384.591,231.717z"></path><path style="opacity:0.5;fill:#FFFFFF;" d="M365.135,201.435c0,0-4.096-0.318-5.313,0.262c-1.218,0.58-5.53-1.068-5.53-1.068l-3.197-3.197l-5.106,2.196l-1.389-3.162c0,0,7.895-2.868,8.852-2.367C354.406,194.598,363.609,199.113,365.135,201.435z"></path></g><g><path style="fill:#FFBF00;stroke:#000000;stroke-linecap:round;stroke-linejoin:round;" d="M341.595,255.88c0,0-1.221-3.48-2.654-4.231c-1.435-0.751-10.527-0.439-13.311,2.163c-2.783,2.601-3.397,5.324-3.397,5.324s-0.728,0.228-1.843-0.356c-1.114-0.584-1.13-4.042-1.13-4.042l-1.344-9.837c0,0-1.486-2.199-1.388-3.162c0.098-0.963,2.251-4.301,2.251-4.301s9.746-5.044,19.833-2.604c2.602,2.783,2.594,3.186,2.594,3.186l-0.758,1.836l0.797,8.94c0,0,2.353,3.262,2.178,3.982S341.595,255.88,341.595,255.88z"></path><path style="fill:#FFFFFF;" d="M338.521,239.657l0.91-1.35l-2.299-1.813c0,0-6.256-0.842-9.593,1.268C333.076,238.43,338.521,239.657,338.521,239.657z"></path><path style="fill:#D69100;" d="M329.02,248.889c0,0-3.784,0.25-4.937,1.677c-1.153,1.426-2.838,5.415-2.838,5.415l-1.479-11.126c0,0-1.487-2.199-1.555-2.844c-0.069-0.645,1.584-3.026,1.584-3.026l5.021-1.836c0,0-1.578,2.625-0.978,4.968c0.6,2.344,1.745,5.582,1.745,5.582L329.02,248.889z"></path></g><g><path style="fill:#FFBF00;stroke:#000000;stroke-linecap:round;stroke-linejoin:round;" d="M378.958,214.762c0,0-0.197-2.336-2.109-3.337c-1.911-1-9.966-4.609-14.341-2.842c-4.376,1.767-10.693,8.403-10.155,9.701c0.539,1.297,2.838,3.109,2.838,3.109l-3.869,0.409l-2.275-3.018c0,0-4.209-2.813-4.839-3.55c-0.63-0.735,6.271-12.749,9.032-14.146c2.76-1.396,13.454-1.275,18.224,1.629c2.647,2.503,4.423,4.346,7.062,5.119c1.912,1.001,3.33,2.556,3.33,2.556l-0.477,4.012L378.958,214.762z"></path><path style="fill:#FFFFFF;" d="M372.435,206.678l-3.004-2.79c0,0-8.069-2.806-12.278-1.357C362.431,204.077,372.435,206.678,372.435,206.678z"></path><path style="fill:#D69100;" d="M359.466,207.802c0,0-6.811,2.928-9.191,9.8c-2.942-1.744-4.369-2.897-4.369-2.897s5.567-9.465,7.614-11.438c-1.418,2.708,0.402,4.27,0.402,4.27L359.466,207.802z"></path></g><g><path style="fill:#FFBF00;stroke:#000000;stroke-linecap:round;stroke-linejoin:round;" d="M356.709,226.834c0,0-4.806-1.313-6.21-1.577c-1.154-3.568-2.346-7.352-2.346-7.352l-3.26,6.137l-5.967-0.609l4.027,7.425c0,0-0.955,7.734-0.744,8.437c2.436-1.504,5.772-3.784,5.772-3.784l5.996,4.41l-1.486-7.55L356.709,226.834z"></path><path style="fill:#FFFFFF;" d="M347.599,222.121c0,0-0.57,7.53-0.639,7.254c-0.069-0.275-1.797-3.651-1.797-3.651L347.599,222.121z"></path><polygon style="fill:#D69100;" points="351.658,236.402 347.368,229.947 351.005,231.935 "></polygon><path style="fill:#D69100;" d="M349.439,226.407c0,0-1.82-4.555-1.841-4.286c-0.02,0.27-0.459,7.268-0.459,7.268L349.439,226.407z"></path></g></g></g></svg>