<svg xmlns="http://www.w3.org/2000/svg" width="500" height="500" version="1.1"><g id="x011"><g><g><path style="fill:#505050;stroke:#000000;stroke-linecap:round;stroke-linejoin:round;" d="M318.972,393.144c-0.05,0.539,54.408,52.183,60.658,55.713c6.252,3.529,19.659,7.271,20.215,6.394c0.557-0.88-7.217-14.394-10.865-19.142c-7.55-9.822-55.241-54.073-55.241-54.073S320.494,376.83,318.972,393.144z"></path><polygon style="opacity:0.5;fill:#FFFFFF;" points="397.847,452.964 329.443,387.639 325.908,390.376 "></polygon><path style="fill:#6E6E6E;" d="M397.847,452.964l-69.431-64.642c0,0,3.078-3.421,6.841-2.736c5.472,4.79,48.225,46.173,54.038,52.671C390.586,439.698,397.847,452.964,397.847,452.964z"></path></g><path style="fill:#505050;stroke:#000000;stroke-linecap:round;stroke-linejoin:round;" d="M303.932,363.379l9.891,8.855l-4.107,4.585l-10.439-9.347C300.521,365.829,302.094,364.406,303.932,363.379z"></path><path style="fill:#505050;stroke:#000000;stroke-linecap:round;stroke-linejoin:round;" d="M304.574,380.254c0,0,9.852-10.233,15.346-9.446c10.158,6.342,13.953,13.643,13.953,13.643s-3.957-1.368-5.48-0.548c-1.171,0.633-1.544,2.75-1.161,4.186c-2.794,1.651-5.576,3.502-6.341,4.707C316.543,393.035,305.419,382.387,304.574,380.254z"></path><path style="fill:#B2B2B2;stroke:#000000;stroke-linecap:round;stroke-linejoin:round;" d="M306.225,383.794c0,0-3.83-1.362-2.454-4.95c0.664-1.728,12.366-10.734,14.923-10.511c2.556,0.221,4.358,4.361,4.358,4.361s-2.441-0.351-4.957,0.15C315.578,373.348,306.467,379.421,306.225,383.794z"></path><path style="fill:#B2B2B2;stroke:#000000;stroke-linecap:round;stroke-linejoin:round;" d="M320.145,394.654c0,0-2.71-0.82-3.017-2.016c-0.309-1.194,6.14-5.061,7.433-5.738c0.987-1.87,0.552-3.18,1.921-4.708s3.441-1.278,4.319-0.722c1.564-0.209,3.637,0.042,3.93,0.993c0.296,0.953,0.021,2.542,0.021,2.542l-1.718-0.39c0,0-1.859-0.745-3.366,0.428c-1.511,1.174-1.379,3.588-1.848,3.857C327.352,389.169,320.688,393.532,320.145,394.654z"></path></g></g></svg>