<svg xmlns="http://www.w3.org/2000/svg" width="500" height="500" version="1.1"><g id="x110"><g><g><path style="fill:#FFFFFF;stroke:#000000;stroke-linecap:round;stroke-linejoin:round;" d="M316.356,343.959c0,0-2.477-0.719-9.2-0.719c-6.723,0-9.199,0.719-9.199,0.719s-5.839,4.315-4.423,11.327c1.011,5.012,7.524,5.704,11.165,5.692v6.049c-0.765,0.508-3.708,2.622-5.723,6.35c2.577,2.338,13.423,2.338,16.001,0c-2.332-4.314-5.914-6.473-5.914-6.473v-0.247h-0.114v-5.683h0.114c3.491,0.078,10.652-0.417,11.717-5.688C322.195,348.274,316.356,343.959,316.356,343.959z"></path><rect x="305.667" y="361.25" style="fill:#CCCFFA;" width="2.167" height="5.917"></rect><path style="fill:#CCCFFA;" d="M306.504,368.141c0,0-3.236,3.236-3.573,4.922c2.091,0.404,3.776,0.472,4.383,0.472C307.313,371.63,306.504,368.141,306.504,368.141z"></path><path style="fill:#CCCFFA;" d="M307.583,368.208c0,0.202,1.281,5.191,1.281,5.191s0.944,0.202,2.292-0.404C309.809,370.837,307.583,368.208,307.583,368.208z"></path></g><path style="fill:#CCCFFA;" d="M296.593,350.229c0,0,2.091-3.708,2.765-3.911c5.057-0.539,15.845-0.337,15.979,0c0.135,0.338,2.899,3.709,2.899,6.203C314.73,355.96,296.593,350.229,296.593,350.229z"></path><path style="fill:#756BB3;" d="M310.033,346.071c0,0,0.091,8.227-1.303,10.114c2.606-2.338,2.921-10.159,2.921-10.159C311.697,346.207,310.033,346.071,310.033,346.071z"></path><path style="fill:#756BB3;" d="M298.887,351.87c0,0,0.135-3.281,1.349-4.36c1.123,1.618,0.942,2.022,1.168,2.022c0.225,0,2.832-1.258,2.832-1.258s-1.169,9.034,0.585,11.102c-0.9,0.181-5.035-0.629-5.305-1.033C297.897,355.376,298.887,351.87,298.887,351.87z"></path><path style="fill:#CCCFFA;" d="M295.717,353.196c0,0-1.281,6.271,10.923,6.271c9.102,0,11.934-2.428,12.136-3.372c0.202-0.943-1.214-5.933-1.214-5.933L295.717,353.196z"></path><g><path style="fill:#6E6E6E;" d="M316.955,349.42c0,0-5.553,1.913-10.08,1.913c-4.526,0-10.052-1.62-10.052-1.62s-6.241,9.629,10.333,9.152C324.304,358.865,316.955,349.42,316.955,349.42z"></path><g><path style="fill:#505050;" d="M296.823,349.713c0,0,0.377-1.034,1.995-0.697s7.349,2.63,10.45,2.157C305.089,353.264,297.794,351.69,296.823,349.713z"></path><path style="fill:#505050;" d="M308.662,351.309c0,0,5.191-3.034,7.079-2.495s1.012,0.944,1.012,0.944S312.438,350.903,308.662,351.309z"></path></g></g><path style="fill:#FFFFFF;" d="M297.739,349.758c-0.03-0.277,1.012-3.102,2.292-3.642c1.281-0.539,3.642-0.067,3.844,0.338c0.202,0.404-0.675,3.91-1.416,4.314S297.874,350.971,297.739,349.758z"></path><path style="fill:#FFFFFF;" d="M296.998,353.246c0,0,0-1.022,0.303-1.212c0.303-0.188,0.984-0.038,1.022,0.228s-0.303,1.438-0.606,1.477C297.415,353.776,296.998,353.549,296.998,353.246z"></path><g><path style="opacity:0.3;fill:#FFFFFF;" d="M304.887,346.521c0,0-2.293,9.304,2.225,12.068c3.708-2.495,2.899-12.136,2.899-12.136S306.774,345.442,304.887,346.521z"></path><path style="opacity:0.3;fill:#FFFFFF;" d="M308.729,358.186c0,0,1.753-1.753,2.359-5.664c0.477-3.064,0.067-4.787,0.067-4.787s2.563-1.146,3.304,0.135c0.742,1.281,0.944,3.236-0.27,6.068S310.348,357.781,308.729,358.186z"></path><path style="opacity:0.3;fill:#FFFFFF;" d="M301.853,351.376c0,0-0.135,3.573,0.943,5.73c-1.281-0.135-1.957-1.09-2.225-2.427C300.167,352.656,301.853,351.376,301.853,351.376z"></path></g></g></g></svg>