<svg xmlns="http://www.w3.org/2000/svg" width="500" height="500" version="1.1"><g id="x111"><g><g><path style="fill:#6E6E6E;stroke:#000000;stroke-linecap:round;stroke-linejoin:round;" d="M302.553,389.405c0,0-0.76,2.765-4.003,1.637c-3.241-1.128-3.218-2.937-3.218-2.937l29.079-74.89l7.697,1.668L302.553,389.405z"></path><path style="fill:#505050;" d="M299.909,388.688l27.368-70.167l1.44,0.502l-27.692,70.322C301.025,389.345,299.977,389.653,299.909,388.688z"></path><path style="fill:none;stroke:#000000;stroke-linecap:round;stroke-linejoin:round;" d="M329.319,322.327c0,0-2.277,1.899-4.673,0.662c-2.549-1.316-2.362-3.851-2.362-3.851"></path><g><path style="fill:#6E6E6E;stroke:#000000;stroke-linecap:round;stroke-linejoin:round;" d="M327.972,302.206l-4.774,11.597c0,0,0.517,3.545,4.002,4.556c3.484,1.011,5.239-0.937,5.239-0.937l1.927-5.175l6.227,2.727c0,0,3.343-1.269,4.924-4.579c1.488-3.116-1.374-5.627-1.374-5.627s-9.896-3.815-10.763-3.979C328.927,299.946,327.972,302.206,327.972,302.206z"></path></g></g><g><path style="fill:#6E6E6E;stroke:#000000;stroke-linecap:round;stroke-linejoin:round;" d="M338.265,307.994c-1.972,3.521-1.772,7.384,0.445,8.626c0.59,0.328,2.516,0.944,2.869,1.142c2.219,1.243,5.615-0.605,7.587-4.127c1.972-3.523,1.771-7.387-0.447-8.627c-0.589-0.33-2.515-0.945-2.868-1.144C343.633,302.623,340.234,304.472,338.265,307.994z"></path><ellipse transform="matrix(-0.8932 -0.4497 0.4497 -0.8932 513.7508 744.8197)" cx="345.34" cy="311.39" rx="2.653" ry="4.36"></ellipse></g></g></g></svg>