<svg xmlns="http://www.w3.org/2000/svg" width="500" height="500" version="1.1"><g id="x112"><g><rect x="317.871" y="341.458" transform="matrix(0.9609 0.2769 -0.2769 0.9609 108.1512 -75.7346)" style="fill:#E4BC96;stroke:#000000;stroke-linecap:round;stroke-linejoin:round;" width="8.765" height="7.282"></rect><g><g><path style="fill:#877899;stroke:#000000;stroke-linecap:round;stroke-linejoin:round;" d="M327.181,366.771c-0.479-2.338-2.611-3.964-4.709-5.025l1.611-5.593l-9.262-2.669l-1.61,5.593c-2.342-0.218-5.014,0.024-6.662,1.749c-3.451,3.606-3.216,20.033-2.366,20.548c1.405,0.85,3.123,1.938,6.756,2.986c3.636,1.047,5.669,1.038,7.312,1.066C319.242,385.443,328.185,371.662,327.181,366.771z"></path><path style="fill:#FFFFFF;" d="M307.402,363.153c0,0,3.576-3.158,6.706-2.13c0.871,0.505,1.271,1.763-0.322,2.446C312.191,364.153,309.241,364.699,307.402,363.153z"></path><path style="fill:#665285;" d="M305.494,369.333c0,0-0.944,9.883,0.058,11.696c2.761,1.432,11.033,4.449,12.93,2.71c2.789-3.513,5.101-9.322,5.101-9.322s-4.235,5.002-10.448,3.211C306.92,375.838,305.494,369.333,305.494,369.333z"></path></g><path style="fill:#6E6E6E;" d="M316.048,366.637c-3.233-0.933-6.46,0.417-7.208,3.014c-0.49,1.7,0.21,3.51,1.656,4.821l-0.341,1.18l1.481,0.426l0.297-1.032l0.704,0.203l-0.299,1.032l1.715,0.495l0.298-1.034l0.703,0.203l-0.297,1.033l1.479,0.427l0.34-1.181c1.922-0.34,3.478-1.5,3.969-3.2C321.293,370.427,319.28,367.566,316.048,366.637z M312.376,372.315c-0.654,0.036-1.783-0.419-1.945-1.181c-0.161-0.76,1.029-2.082,1.677-2.183c0.646-0.098,1.875,0.569,1.92,0.936C314.158,370.924,313.345,372.261,312.376,372.315z M313.381,374.3c-0.381-0.002-0.712-1-0.712-1c-0.001-0.325,0.58-0.195,0.83,0.095C313.749,373.683,313.762,374.301,313.381,374.3z M315.361,374.075c0,0-0.813,0.669-1.136,0.468c-0.322-0.201,0.017-0.718,0.382-0.828C314.974,373.603,315.536,373.801,315.361,374.075z M318.407,373.435c-0.541,0.559-1.74,0.342-2.274-0.037c-0.792-0.561-0.768-2.125-0.107-2.936c0.234-0.284,1.629-0.196,2.125,0.232C318.646,371.123,318.948,372.876,318.407,373.435z"></path><g><rect x="316.125" y="349.315" transform="matrix(0.9609 0.2769 -0.2769 0.9609 110.0527 -74.9024)" style="fill:#665285;stroke:#000000;stroke-linecap:round;stroke-linejoin:round;" width="8.174" height="5.733"></rect><path style="fill:#877899;stroke:#000000;stroke-linecap:round;stroke-linejoin:round;" d="M327.867,350.515c-0.168,0.583-0.777,0.919-1.36,0.75l-11.136-3.208c-0.584-0.168-0.92-0.776-0.751-1.359l0.472-1.642c0.168-0.583,0.776-0.919,1.359-0.751l11.138,3.209c0.583,0.169,0.919,0.776,0.751,1.359L327.867,350.515z"></path><path style="fill:#FFFFFF;" d="M316.257,345.646c-0.113,0.388,4.155,1.578,3.766,1.466c-0.389-0.113,3.272,0.982,3.384,0.595c0.111-0.389-4.11-1.407-3.722-1.294C320.073,346.523,316.368,345.256,316.257,345.646z"></path><path style="fill:#877899;stroke:#000000;stroke-linecap:round;stroke-linejoin:round;" d="M325.362,356.817c-0.152,0.527-0.702,0.83-1.229,0.68l-10.069-2.902c-0.527-0.151-0.831-0.702-0.679-1.229l0.427-1.484c0.152-0.527,0.702-0.831,1.229-0.679l10.069,2.9c0.527,0.152,0.83,0.703,0.678,1.229L325.362,356.817z"></path><path style="fill:#FFFFFF;" d="M314.397,352.093c-0.111,0.388,4.155,1.578,3.768,1.466c-0.389-0.112,3.271,0.982,3.384,0.594c0.111-0.388-4.11-1.406-3.723-1.295C318.215,352.971,314.51,351.704,314.397,352.093z"></path></g></g></g></g></svg>