<svg xmlns="http://www.w3.org/2000/svg" width="500" height="500" version="1.1"><g id="x113"><g><path style="fill:#6E6E6E;stroke:#000000;" d="M311.123,364.751c0,0-11.642,11.987-14.648,14.663c-1.494-0.491-4.04-0.743-4.219-1.532s16.741-17.626,16.741-17.626s28.552-30.515,29.693-30.358c1.142,0.155,2.115,2.009,2.115,2.009s-22.067,31.67-23.907,32.088C315.056,364.412,311.123,364.751,311.123,364.751z"></path><path style="fill:#505050;" d="M294.825,377.023l1.817,0.692l14.856-14.308l3.168-0.96l-3.308-2.185C311.209,360.773,294.825,377.023,294.825,377.023z"></path><polygon style="opacity:0.5;fill:#FFFFFF;" points="338.425,331.939 323.583,350.966 321.225,349.92 "></polygon></g></g></svg>