<svg xmlns="http://www.w3.org/2000/svg" width="500" height="500" version="1.1"><g id="x114"><g><path style="fill:#6E6E6E;stroke:#000000;stroke-linecap:round;stroke-linejoin:round;" d="M315.683,343.125c0.176,1.926,0.571,4.723,1.512,6.775c-12.324,13.195-25.806,28.001-25.699,28.435c0.193,0.785,2.743,0.99,4.247,1.455c1.557-1.439,13.526-14.76,24.509-27.05c2.157,0.653,5.105,0.365,7.189,0.176c2.692-0.245,14.808-16.531,14.889-17.382c0.081-0.849-1.522-2.277-2.539-1.86c-1.019,0.416-7.91,9.083-8.93,10.308c-0.316,0.379-1.21,0.078-2.261-0.552c2.682-3.182,9.095-10.82,9.209-11.279c0.144-0.583-1.362-2.002-1.362-2.002s-1.737-1.145-2.284-0.896c-0.428,0.193-6.677,7.753-9.36,11.014c-0.81-0.919-1.267-1.742-0.95-2.122c1.02-1.224,8.388-8.574,8.612-9.649c0.226-1.076-1.561-3.392-2.381-3.158S315.437,340.431,315.683,343.125z"></path><polygon style="opacity:0.5;fill:#FFFFFF;" points="321.679,338.286 330.964,328.134 330.32,326.964 321.402,337.147 "></polygon><path style="fill:#505050;" d="M320.924,350.52c1.298,0.702,3.957,0.818,6.03,0.119c2.072-0.7,4.152-3.04,4.602-4.205c-3.38,2.186-11.191,0.625-13.23-2.414C318.137,346.235,319.627,349.818,320.924,350.52z"></path><path style="fill:#505050;" d="M294.049,377.43l1.83,0.659l14.437-16.582l0.503-2.523C310.678,359.497,294.049,377.43,294.049,377.43z"></path></g></g></svg>