<svg xmlns="http://www.w3.org/2000/svg" width="500" height="500" version="1.1"><g id="x115"><g><g><g><rect x="313.073" y="309.975" transform="matrix(-0.8474 -0.5309 0.5309 -0.8474 396.6362 815.9308)" style="fill:#6E6E6E;stroke:#000000;stroke-linecap:round;stroke-linejoin:round;" width="4.99" height="81.987"></rect><rect x="314.147" y="311.477" transform="matrix(-0.8473 -0.5311 0.5311 -0.8473 395.1385 815.6676)" style="fill:#505050;" width="1.35" height="79.11"></rect><g><path style="fill:none;stroke:#000000;stroke-linecap:round;stroke-linejoin:round;" d="M329.525,332.557c0,0-2.031,2.227-5.732,1.021"></path><path style="fill:none;stroke:#000000;stroke-linecap:round;stroke-linejoin:round;" d="M326.446,337.47c0,0-2.033,2.227-5.732,1.021"></path><path style="fill:none;stroke:#000000;stroke-linecap:round;stroke-linejoin:round;" d="M323.366,342.381c0,0-2.033,2.228-5.732,1.021"></path><path style="fill:none;stroke:#000000;stroke-linecap:round;stroke-linejoin:round;" d="M320.286,347.295c0,0-2.033,2.227-5.732,1.021"></path><path style="fill:none;stroke:#000000;stroke-linecap:round;stroke-linejoin:round;" d="M317.207,352.209c0,0-2.033,2.226-5.733,1.02"></path><path style="fill:none;stroke:#000000;stroke-linecap:round;stroke-linejoin:round;" d="M314.127,357.12c0,0-2.033,2.227-5.734,1.021"></path><path style="fill:none;stroke:#000000;stroke-linecap:round;stroke-linejoin:round;" d="M311.047,362.033c0,0-2.033,2.226-5.733,1.021"></path><path style="fill:none;stroke:#000000;stroke-linecap:round;stroke-linejoin:round;" d="M307.966,366.946c0,0-2.033,2.226-5.732,1.021"></path><path style="fill:none;stroke:#000000;stroke-linecap:round;stroke-linejoin:round;" d="M304.887,371.859c0,0-2.034,2.227-5.733,1.019"></path><path style="fill:none;stroke:#000000;stroke-linecap:round;stroke-linejoin:round;" d="M301.807,376.771c0,0-2.033,2.227-5.733,1.021"></path><path style="fill:none;stroke:#000000;stroke-linecap:round;stroke-linejoin:round;" d="M298.727,381.685c0,0-2.033,2.227-5.733,1.021"></path></g></g><path style="fill:#6E6E6E;stroke:#000000;stroke-linecap:round;stroke-linejoin:round;" d="M337.985,317.116c1.087,0.044,7.879-1.904,9.94-4.432c2.063-2.525,2.805-12.087-1.322-15.153c-0.262,2.702-1.318,2.357-1.318,2.357s-1.242-10.965-9.357-13.507c-0.116,11.863,0.286,19.598-0.232,23.727C335.174,314.239,337.985,317.116,337.985,317.116z"></path><path style="fill:#505050;stroke:#000000;stroke-linecap:round;stroke-linejoin:round;" d="M338.375,314.973c0,0,4.483-6.897-0.469-12.707c-4.951-5.811-10.278-8.991-10.278-8.991S329.421,309.201,338.375,314.973z"></path><g><g><g><path style="fill:#6E6E6E;stroke:#000000;stroke-linecap:round;stroke-linejoin:round;" d="M320.796,307.454c0.799,0.501,11.262,1.33,14.582-1.681c-8.42-0.027-13.918-2.678-16.317-4.183c-2.399-1.504-6.973-1.824-8.446-0.998C314.197,304.271,320.796,307.454,320.796,307.454z"></path><path style="fill:#6E6E6E;stroke:#000000;stroke-linecap:round;stroke-linejoin:round;" d="M328.576,314.083c0.8,0.501,8.964-0.588,10.627-4.002c-6.233,0.549-12.266,0.269-15.536-1.623C324.19,312.447,328.576,314.083,328.576,314.083z"></path></g><g><path style="fill:#6E6E6E;stroke:#000000;stroke-linecap:round;stroke-linejoin:round;" d="M282.881,283.684c-0.799-0.501-6.104-9.557-4.84-13.857c3.692,7.567,8.475,11.361,10.873,12.865c2.399,1.505,4.681,5.48,4.578,7.167C288.621,288.237,282.881,283.684,282.881,283.684z"></path><path style="fill:#6E6E6E;stroke:#000000;stroke-linecap:round;stroke-linejoin:round;" d="M273.525,279.568c-0.801-0.502-3.376-8.323-1.028-11.307c2.221,5.848,5.102,11.155,8.229,13.275C276.907,282.804,273.525,279.568,273.525,279.568z"></path></g></g><path style="fill:#6E6E6E;stroke:#000000;stroke-linecap:round;stroke-linejoin:round;" d="M266.861,304.24c8.282,8.613,24.284,8.385,24.284,8.385s6.765,14.502,18.125,18.204c6.769,2.205,23.882-3.373,26.242-13.088c-7.4-0.596-14.699-13.26-23.045-16.313c-8.345-3.056-15.306,1.598-15.306,1.598s1.157-8.29-5.229-14.472c-6.387-6.181-20.962-7.232-24.724-13.634C259.494,281.276,261.929,299.11,266.861,304.24z M302.092,312.025c0,0,6.849-3.481,11.479,0.044c4.63,3.524,8.146,6.351,8.146,6.351s-5.984,5.577-12.181,3.558C303.339,319.957,302.092,312.025,302.092,312.025z M272.61,287.634c0,0,4.074,1.932,9.266,4.564c5.189,2.632,5.039,10.311,5.039,10.311s-7.683,2.336-12.199-2.362C270.197,295.449,272.61,287.634,272.61,287.634z"></path><ellipse transform="matrix(-0.8473 -0.5312 0.5312 -0.8473 384.6095 720.6864)" style="fill:#505050;" cx="295.924" cy="305.044" rx="5.259" ry="7.282"></ellipse><path style="fill:#505050;" d="M322.927,319.347c0,0-7.496,7.475-15.755,3.173c-6-3.125-6.54-10.387-6.54-10.387s-2.271,9.081,6.958,12.639C316.818,328.33,322.927,319.347,322.927,319.347z"></path><path style="fill:#505050;" d="M271.229,286.935c0,0-3.463,10.005,4.009,15.566c5.426,4.036,12.196,1.359,12.196,1.359s-7.183,6-14.406-0.756C265.805,296.348,271.229,286.935,271.229,286.935z"></path><g><path style="fill:#FFBF00;" d="M316.461,326.063c0,0-2.683,3.968-6.036,3.537c-3.83-0.491-7.771-3.598-9.054-6.631c-1.282-3.032-3.775-9.21-4.961-8.841c-1.188,0.371-0.904,2.458-0.904,2.458s-2.438-4.235-0.394-4.703c2.045-0.469,4.043,1.767,4.926,3.565c1.468,2.989,1.448,6.798,5.462,9.313C312.241,328.987,316.461,326.063,316.461,326.063z"></path><path style="fill:#FFBF00;" d="M321.399,311.333c0,0-0.174,1.801-1.418,1.499c-1.243-0.302-4.51-4.738-7.797-5.843c-3.285-1.105-11.152,2.558-15.067,1.694c4.233-1.167,11.364-3.475,13.585-3.897C313.233,304.304,319.847,306.699,321.399,311.333z"></path><path style="fill:#FFBF00;" d="M266.614,294.812c0,0-2.403,4.142-0.554,6.975c2.111,3.233,6.625,5.428,9.912,5.261c3.288-0.168,9.936-0.616,10.12,0.613c0.183,1.23-1.817,1.884-1.817,1.884s4.873,0.35,4.403-1.693c-0.468-2.046-3.351-2.869-5.354-2.881c-3.331-0.019-6.75,1.657-10.763-0.858C265.82,299.885,266.614,294.812,266.614,294.812z"></path><path style="fill:#FFBF00;" d="M277.721,283.95c0,0-1.545,0.941-0.731,1.929s6.229,1.995,8.656,4.471c2.426,2.477,2.557,11.153,5.04,14.302c-0.795-4.318-1.824-11.742-2.412-13.926C287.606,288.236,282.566,283.328,277.721,283.95z"></path></g><path style="fill:#6E6E6E;stroke:#000000;stroke-linecap:round;stroke-linejoin:round;" d="M296.019,281.952c3.177,3.215,5.368,7.031,5.368,7.031c1.237-1.973,7.413-4.517,7.413-4.517s0.401,6.667-0.836,8.641c0,0,4.389,0.308,8.666,1.768c0.521,0.631-6.37,3.338-9.718,4.293l4.223,2.035c0,0-4.805,2.792-7.767,2.158c-2.962-0.636-2.681-5.957-2.681-5.957s-4.666,2.572-6.528,0.183c-1.863-2.389-1.443-7.931-1.443-7.931l3.672,2.913C295.789,289.141,295.224,281.76,296.019,281.952z"></path><g><path style="fill:#6E6E6E;stroke:#000000;stroke-linecap:round;stroke-linejoin:round;" d="M317.219,330.675c-0.725-0.055,15.395-0.691,18.16-6.119c0.975-1.301,0.839-2.077-0.068-2.431C332.626,321.077,320.105,330.894,317.219,330.675z"></path><path style="fill:#6E6E6E;stroke:#000000;stroke-linecap:round;stroke-linejoin:round;" d="M263.537,297.021c0.366,0.629-6.083-14.159-2.401-19.014c0.744-1.441,1.503-1.659,2.216-0.998C265.466,278.971,262.084,294.519,263.537,297.021z"></path></g></g><ellipse transform="matrix(-0.8472 -0.5312 0.5312 -0.8472 390.9149 714.974)" style="fill:#FFBF00;stroke:#000000;stroke-linecap:round;stroke-linejoin:round;" cx="298.257" cy="301.281" rx="3.034" ry="7.282"></ellipse></g><g><circle style="fill:#FFBF00;" cx="330.947" cy="321.06" r="2.09"></circle><circle style="fill:#FFBF00;" cx="269.881" cy="282.774" r="2.09"></circle></g><g><circle style="fill:#FFBF00;" cx="327.606" cy="323.659" r="1.079"></circle><circle style="fill:#FFBF00;" cx="268.996" cy="286.916" r="1.079"></circle></g></g></g></svg>