<svg xmlns="http://www.w3.org/2000/svg" width="500" height="500" version="1.1"><g id="x116"><g><path style="fill:#D19100;stroke:#000000;stroke-linecap:round;stroke-linejoin:round;" d="M347.998,380.154c0,1.713-5.361,10.249-21.336,10.249s-21.335-8.536-21.335-10.249s9.552-1.078,21.335-1.078S347.998,378.441,347.998,380.154z"></path><ellipse style="fill:#FFBF00;stroke:#000000;stroke-linecap:round;stroke-linejoin:round;" cx="326.663" cy="380.289" rx="21.335" ry="3.102"></ellipse><g><g><path style="fill:#505050;stroke:#000000;stroke-linecap:round;stroke-linejoin:round;" d="M333.941,373.727c0.699-8.498,1.688-20.462,1.805-21.57c2.463-1.36,0.884-6.533,1.061-7.238c0.209-0.838,3.354-2.515,3.144-6.497c-0.209-3.983-5.659-3.982-5.659-3.982c-5.03,0-8.384,4.401-10.689,6.917c-2.306,2.515-5.868,1.467-9.641,2.724c-3.773,1.258-2.776,5.064-0.211,6.498c0.442,0.247,0.91,0.348,1.386,0.352c0.744,4.192,2.159,14.827,3.157,22.539C323.373,374.505,328.67,374.444,333.941,373.727z"></path><path style="fill:#FFBF00;stroke:#000000;stroke-linecap:round;stroke-linejoin:round;" d="M318.293,373.468c0.646,4.991,1.117,8.759,1.117,8.759s1.304,1.303,7.371,1.303s6.462-1.303,6.462-1.303s0.303-3.696,0.698-8.5C328.67,374.444,323.373,374.505,318.293,373.468z"></path><polygon style="fill:#FFFFFF;" points="320.595,375.3 321.673,381.503 324.37,381.503 324.37,375.84 "></polygon><path style="fill:#6E6E6E;" d="M313.961,344.079c-2.282,2.232-1.746,4.71,0.819,6.144c2.463,1.375,4.63-1.322,6.097-1.322c1.468,0,1.467,1.887,0.838,4.611c-0.628,2.725-1.257,5.03,1.887,6.078c3.145,1.048,4.611-2.306,4.611-5.239c0-2.935-0.629-4.401,1.048-7.756c1.678-3.354,0.277,5.25,3.185,5.516c5.001,0.455,2.757-6.174,2.967-7.013c0.209-0.838,3.581-3.434,3.371-7.416c0,0-0.48-1.717-4.314-1.618c-5.26,0.135-7.552,4.585-9.979,6.068C322.063,343.615,314.619,343.436,313.961,344.079z"></path><path style="fill:#505050;" d="M335.412,349.817c0,0-0.539,1.483-1.618,0.944s-2.292-6.203-1.888-6.068s1.349,4.72,2.563,4.585c1.213-0.135,1.213-2.022,1.213-2.022S335.816,349.009,335.412,349.817z"></path></g><path style="fill:none;stroke:#000000;stroke-linecap:round;stroke-linejoin:round;" d="M327.366,342.132c0,0-0.719,3.416-5.394,3.236"></path><rect x="322.691" y="328.287" width="2.877" height="16.182"></rect><path style="fill:#FCFA32;" d="M320.971,330.928c0,0,6.356,3.366,7.852-1.682c1.495-5.047-4.674-16.077-4.3-17.76C322.279,316.347,315.55,324.946,320.971,330.928z"></path></g><g><path style="fill:#D19100;stroke:#000000;stroke-linecap:round;stroke-linejoin:round;" d="M303.072,368.288c0,0-2.295,6.203-2.104,7.552c0.191,1.348,2.485,7.82,2.104,8.63c-0.383,0.809-8.413,4.854-9.178,1.618c3.06-3.775,5.354-5.934,5.354-5.934s-4.397-4.585-4.015-5.663c0.382-1.079,1.721-5.934,2.867-6.203C299.248,368.019,303.072,368.288,303.072,368.288z"></path><path style="fill:#FFBF00;stroke:#000000;stroke-linecap:round;stroke-linejoin:round;" d="M306.896,380.424c0,0,2.868-10.518,1.912-12.136s-3.633-5.394-5.735-4.315c-2.104,1.079-5.736,4.854-5.736,4.854s3.824-1.078,5.736-0.539C304.983,368.827,306.896,380.424,306.896,380.424z"></path><path style="fill:#FFFFFF;" d="M305.748,369.637l2.295-0.27c0,0-1.529-2.697-2.104-2.697h-1.338L305.748,369.637z"></path></g></g></g></svg>