<svg xmlns="http://www.w3.org/2000/svg" width="500" height="500" version="1.1"><g id="x117"><g><g><g><path style="fill:#6E6E6E;" d="M299.035,399.688l27.382-77.28c0.028-0.081,0.054-0.163,0.076-0.247c0.015-0.052,1.775-6.315,6.227-8.642c2.115-1.104,4.542-1.146,7.42-0.126c2.807,0.994,4.666,2.568,5.684,4.813c2.25,4.961-0.285,11.63-0.312,11.695l0,0c-0.66,1.661,0.15,3.543,1.812,4.204c1.661,0.66,3.542-0.15,4.203-1.811l0,0c0.148-0.374,3.603-9.241,0.191-16.763c-1.759-3.877-4.927-6.648-9.417-8.239c-4.62-1.638-8.866-1.465-12.621,0.513c-6.966,3.669-9.343,12.321-9.44,12.688c0.022-0.083,0.048-0.166,0.076-0.246l-27.381,77.279l0,0c-0.597,1.685,0.285,3.534,1.97,4.131S298.438,401.373,299.035,399.688L299.035,399.688z"></path></g><polygon style="fill:#FFFFFF;" points="304.271,384.914 296.007,388.854 293.46,396.044 301.723,392.105 "></polygon><polygon style="fill:#FFFFFF;" points="309.584,369.916 301.321,373.855 298.773,381.046 307.036,377.106 "></polygon><polygon style="fill:#FFFFFF;" points="314.898,354.918 306.636,358.857 304.088,366.048 312.351,362.108 "></polygon><path style="fill:#FFFFFF;" d="M345.512,329.901c-0.505,1.271-0.146,2.67,0.793,3.554l5.753-2.743c0.436-1.465,0.995-3.813,1.129-6.514l-6.982,3.329C345.877,328.944,345.521,329.877,345.512,329.901z"></path><polygon style="fill:#FFFFFF;" points="320.212,339.92 311.949,343.858 309.402,351.05 317.665,347.109 "></polygon><path style="fill:#FFFFFF;" d="M345.823,318.206c0.384,0.847,0.626,1.743,0.768,2.648l5.998-2.86c-0.221-0.828-0.504-1.653-0.871-2.462c-0.394-0.868-0.861-1.677-1.396-2.434l-6.003,2.862C344.941,316.618,345.442,317.365,345.823,318.206z"></path><polygon style="fill:#FFFFFF;" points="325.526,324.921 317.264,328.86 314.716,336.051 322.979,332.111 "></polygon><path style="fill:#FFFFFF;" d="M332.72,313.52c1.422-0.742,2.989-0.992,4.735-0.774l8.188-3.904c-1.018-0.6-2.131-1.119-3.343-1.548c-1.341-0.476-2.648-0.793-3.924-0.964l-14.731,7.023c-2.171,3.132-3.153,6.26-3.364,6.991l-0.251,0.709l9.18-4.377C330.119,315.44,331.278,314.273,332.72,313.52z"></path><g><path style="fill:none;stroke:#000000;stroke-linecap:round;stroke-linejoin:round;" d="M299.035,399.688l27.382-77.28c0.028-0.081,0.054-0.163,0.076-0.247c0.015-0.052,1.775-6.315,6.227-8.642c2.115-1.104,4.542-1.146,7.42-0.126c2.807,0.994,4.666,2.568,5.684,4.813c2.25,4.961-0.285,11.63-0.312,11.695l0,0c-0.66,1.661,0.15,3.543,1.812,4.204c1.661,0.66,3.542-0.15,4.203-1.811l0,0c0.148-0.374,3.603-9.241,0.191-16.763c-1.759-3.877-4.927-6.648-9.417-8.239c-4.62-1.638-8.866-1.465-12.621,0.513c-6.966,3.669-9.343,12.321-9.44,12.688c0.022-0.083,0.048-0.166,0.076-0.246l-27.381,77.279l0,0c-0.597,1.685,0.285,3.534,1.97,4.131S298.438,401.373,299.035,399.688L299.035,399.688z"></path></g></g><g><path style="fill:#505050;stroke:#000000;stroke-linecap:round;stroke-linejoin:round;" d="M319.469,333.967c0,0-10.299,16.951-13.333,15.019c-3.373-6.632-3.457-11.239-3.457-11.239L319.469,333.967z"></path><path style="fill:#505050;stroke:#000000;stroke-linecap:round;stroke-linejoin:round;" d="M319.214,333.876c0,0-2.672,19.654,0.903,20.063c6.795-3.028,9.762-6.556,9.762-6.556L319.214,333.876z"></path><g><g><path style="fill:#6E6E6E;stroke:#000000;stroke-linecap:round;stroke-linejoin:round;" d="M320.385,330.571c-0.583-0.778-4.432-9.295-7.26-8.58c-2.828,0.714-7.645,11.883-5.643,14.31c2.001,2.426,11.461-1.662,11.461-1.662L320.385,330.571z"></path><path style="fill:#505050;" d="M315.166,334.634c0,0-5.276,1.871-6.455,0.622c-0.478-2.067,1.123-5.314,1.123-5.314s4.377,3.044,6.211,1.183C316.122,332.138,315.166,334.634,315.166,334.634z"></path><path style="fill:#6E6E6E;stroke:#000000;stroke-linecap:round;stroke-linejoin:round;" d="M321.339,330.91c0.942-0.238,9.296-4.433,11.043-2.097c1.748,2.337-1.543,14.046-4.625,14.67c-3.083,0.625-7.858-8.506-7.858-8.506L321.339,330.91z"></path><path style="fill:#505050;" d="M323,337.16c0,0,2.786,4.855,4.495,4.675c1.708-1.259,2.607-4.765,2.607-4.765s-5.305-0.54-5.484-3.146C323.899,334.643,323,337.16,323,337.16z"></path></g><path style="fill:#6E6E6E;stroke:#000000;stroke-linecap:round;stroke-linejoin:round;" d="M323.61,331.36c0.268-1.361-2.462-1.327-2.462-1.327s-2.1-1.745-2.749-0.519c-0.649,1.226-1.691,4.771-1.742,5.117s2.428,1.224,2.428,1.224s2.479,0.879,2.656,0.578C321.92,336.133,323.343,332.723,323.61,331.36z"></path></g></g></g></g></svg>