<svg xmlns="http://www.w3.org/2000/svg" width="500" height="500" version="1.1"><g id="x118"><path style="fill:#6E6E6E;stroke:#000000;stroke-linecap:round;stroke-linejoin:round;" d="M341.253,414.69c-3.008-3.354-5.738-6.276-5.738-6.276l-1.661,0.486c0,0-5.123-3.294-5.371-5.758c-0.159-1.594,1.684-4.164,3.004-5.783l9.159,7.295l-0.665,3.392l9.42,2.381l-2.912-9.271l-3.346,0.854l-7.803-8.729c1.541-1.41,4.001-3.394,5.601-3.326c2.476,0.106,6.054,5.034,6.054,5.034l-0.392,1.688c0,0,3.072,2.561,6.593,5.373c0.993-5.41-8.303-15.912-11.527-17.585c-2.313-1.2-7.207,2.667-9.787,4.948l-0.02-0.02l-0.438,0.1l-27.876-25.308c0,0-1.007-0.609-2.309,0.769s-0.603,2.313-0.603,2.313l26.848,26.396l-0.076,0.444l0.021,0.017c-2.133,2.707-5.716,7.813-4.388,10.053C324.896,407.303,335.906,415.99,341.253,414.69z"></path></g></svg>