<svg xmlns="http://www.w3.org/2000/svg" width="500" height="500" version="1.1"><g id="x119"><g><g><rect x="307.754" y="342.989" transform="matrix(0.7343 0.6788 -0.6788 0.7343 327.6617 -114.3576)" style="fill:#505050;stroke:#000000;stroke-linecap:round;stroke-linejoin:round;" width="4.314" height="36.777"></rect><rect x="292.121" y="370.509" transform="matrix(0.7338 0.6794 -0.6794 0.7338 334.8932 -100.0978)" style="fill:#6E6E6E;stroke:#000000;stroke-linecap:round;stroke-linejoin:round;" width="6.115" height="13.581"></rect><rect x="318.487" y="345.387" transform="matrix(0.7337 0.6794 -0.6794 0.7337 322.6181 -125.5931)" style="fill:#6E6E6E;stroke:#000000;stroke-linecap:round;stroke-linejoin:round;" width="6.117" height="6.849"></rect><rect x="323.373" y="343.539" transform="matrix(0.7342 0.6789 -0.6789 0.7342 320.7367 -128.7489)" style="fill:#6E6E6E;stroke:#000000;stroke-linecap:round;stroke-linejoin:round;" width="2.877" height="3.486"></rect></g><g><path style="fill:#DCDCDC;stroke:#000000;stroke-linecap:round;stroke-linejoin:round;" d="M338.043,347.669c0.286,0.621,7.103,2.942,7.646,3.014c0.542,0.075,1.891-2.933,1.42-3.64c-0.469-0.707-6.199-2.875-7.003-2.674C339.301,344.572,337.754,347.049,338.043,347.669z"></path><g><path style="fill:#DCDCDC;stroke:#000000;stroke-linecap:round;stroke-linejoin:round;" d="M330.346,342.947c-0.467,1.364,0.523,5.653,1.354,6.259c0.826,0.605,9.794-0.469,10.933-1.493c0.482-0.43-0.741-5.644-1.39-6.254C340.595,340.849,330.811,341.584,330.346,342.947z"></path><path d="M332.357,344.102c0,0,5.628-1.442,6.274-0.894c0.644,0.548,0.593,1.823,0.593,1.823s-6.529,1.325-6.907,0.771C331.944,345.247,332.357,344.102,332.357,344.102z"></path></g><path style="fill:#DCDCDC;stroke:#000000;stroke-linecap:round;stroke-linejoin:round;" d="M351.014,348.187c0.287,0.621,7.104,2.943,7.646,3.015c0.541,0.074,1.892-2.935,1.421-3.642c-0.473-0.706-6.202-2.874-7.007-2.672C352.271,345.089,350.724,347.564,351.014,348.187z"></path><g><path style="fill:#DCDCDC;stroke:#000000;stroke-linecap:round;stroke-linejoin:round;" d="M344.229,343.98c-0.464,1.363,0.528,5.648,1.356,6.256c0.826,0.604,9.791-0.468,10.932-1.491c0.48-0.436-0.742-5.647-1.392-6.258C354.479,341.878,344.696,342.615,344.229,343.98z"></path><path d="M346.242,345.134c0,0,5.626-1.441,6.271-0.896c0.647,0.55,0.595,1.823,0.595,1.823s-6.529,1.326-6.905,0.771C345.829,346.28,346.242,345.134,346.242,345.134z"></path></g><path style="fill:#DCDCDC;stroke:#000000;stroke-linecap:round;stroke-linejoin:round;" d="M368.327,344.362c0.602-0.327,2.465-7.28,2.502-7.83c0.038-0.543-3.054-1.693-3.728-1.174c-0.674,0.516-2.458,6.377-2.202,7.166C365.154,343.312,367.727,344.691,368.327,344.362z"></path><g><path style="fill:#DCDCDC;stroke:#000000;stroke-linecap:round;stroke-linejoin:round;" d="M355.391,344.536c0.265,1.414,3.24,4.659,4.259,4.78c1.02,0.116,8.293-5.233,8.781-6.684c0.205-0.617-3.427-4.549-4.293-4.762C363.274,337.66,355.123,343.119,355.391,344.536z"></path><path d="M357.711,344.55c0,0,4.186-4.025,5.017-3.866c0.832,0.156,1.415,1.293,1.415,1.293s-5.029,4.369-5.63,4.07C357.914,345.75,357.711,344.55,357.711,344.55z"></path></g><g><path style="fill:#DCDCDC;stroke:#000000;stroke-linecap:round;stroke-linejoin:round;" d="M363.566,337.472c1.212,0.78,5.612,0.863,6.4,0.207c0.789-0.655,1.925-9.613,1.209-10.968c-0.305-0.571-5.659-0.652-6.408-0.17C364.017,327.022,362.357,336.69,363.566,337.472z"></path><path d="M365.176,335.798c0,0-0.03-5.806,0.655-6.3c0.688-0.492,1.913-0.135,1.913-0.135s-0.3,6.657-0.93,6.888C366.185,336.479,365.176,335.798,365.176,335.798z"></path></g><path style="fill:#DCDCDC;stroke:#000000;stroke-linecap:round;stroke-linejoin:round;" d="M365.105,320.154c-0.463,0.504,0.003,7.691,0.141,8.217c0.14,0.532,3.436,0.628,3.909-0.075c0.472-0.706,0.283-6.831-0.212-7.495C368.45,320.134,365.569,319.651,365.105,320.154z"></path><path style="fill:#DCDCDC;stroke:#000000;stroke-linecap:round;stroke-linejoin:round;" d="M325.074,344.183c0.287,0.62,7.103,2.938,7.646,3.015c0.541,0.071,1.89-2.933,1.42-3.641c-0.47-0.707-6.2-2.878-7.003-2.673C326.332,341.086,324.785,343.562,325.074,344.183z"></path><path style="fill:#DCDCDC;stroke:#000000;stroke-linecap:round;stroke-linejoin:round;" d="M339.835,344.378c0.289,0.621,7.102,2.938,7.646,3.014c0.543,0.074,1.895-2.933,1.423-3.64c-0.474-0.707-6.204-2.878-7.005-2.674C341.093,341.281,339.546,343.757,339.835,344.378z"></path><path style="fill:#DCDCDC;stroke:#000000;stroke-linecap:round;stroke-linejoin:round;" d="M352.252,344.465c0.288,0.621,7.104,2.938,7.646,3.013c0.542,0.071,1.891-2.935,1.421-3.643c-0.47-0.705-6.202-2.876-7.004-2.671C353.512,341.368,351.965,343.842,352.252,344.465z"></path><path style="fill:#DCDCDC;stroke:#000000;stroke-linecap:round;stroke-linejoin:round;" d="M364.88,341.901c0.602-0.33,2.463-7.283,2.5-7.831c0.04-0.545-3.052-1.692-3.723-1.177c-0.676,0.517-2.461,6.38-2.206,7.17C361.707,340.849,364.28,342.228,364.88,341.901z"></path></g><g><g><path style="fill:#8C8C8C;stroke:#000000;stroke-linecap:round;stroke-linejoin:round;" d="M374.071,309.151l9.903-11.898l-15.419,1.386c0,0-2.218,0.707,0.726,6.322C372.229,310.573,374.071,309.151,374.071,309.151z"></path><circle style="fill:#DCDCDC;stroke:#000000;stroke-linecap:round;stroke-linejoin:round;" cx="359.129" cy="310.287" r="16.121"></circle><path style="fill:#8C8C8C;" d="M359.125,325.03c0,0-4.654,0.069-8.716-2.646c0.439-1.158,0.22-1.692,0.22-1.692s6.566,2.979,12.466-0.637C362.672,321.755,359.125,325.03,359.125,325.03z"></path><path style="fill:#8C8C8C;" d="M359.674,295.527c0,0,13.244,0.69,13.999,12.543c0.673,10.566-6.697,15.514-6.697,15.514l-5.713,0.775c0,0,7.418-7.101,3.874-17.454c-3.546-10.354-12.256-8.344-12.256-8.344S359.541,295.666,359.674,295.527z"></path><g><path style="fill:#DCDCDC;stroke:#000000;stroke-linecap:round;stroke-linejoin:round;" d="M344.188,311.42l-9.904,11.9l15.418-1.386c0,0,2.218-0.708-0.727-6.321C346.031,309.997,344.188,311.42,344.188,311.42z"></path><path style="fill:#8C8C8C;" d="M338.098,321.33l9.573-4.938c0,0-1.784-3.253-2.67-3.565C343.688,314.081,338.098,321.33,338.098,321.33z"></path></g><path style="fill:#DCDCDC;stroke:#000000;stroke-linecap:round;stroke-linejoin:round;" d="M357.995,295.346l-11.899-9.907l1.385,15.421c0,0,0.708,2.217,6.324-0.727C359.417,297.188,357.995,295.346,357.995,295.346z"></path><path style="fill:#8C8C8C;" d="M352.756,298.9c0,0,2.597-1.154,3.764-2.742c-2.482-1.816-8.512-7.237-8.512-7.237L352.756,298.9z"></path><g><path style="fill:#DCDCDC;stroke:#000000;stroke-linecap:round;stroke-linejoin:round;" d="M360.264,325.228l11.897,9.905l-1.385-15.419c0,0-0.707-2.22-6.321,0.726C358.84,323.387,360.264,325.228,360.264,325.228z"></path><path style="fill:#8C8C8C;" d="M370.383,331.579l-1.003-11.169c0,0-2.564,0.007-4.674,1.688C366.55,325.146,370.383,331.579,370.383,331.579z"></path></g></g><g><circle style="fill:#DCDCDC;stroke:#000000;stroke-linecap:round;stroke-linejoin:round;" cx="360.468" cy="308.728" r="5.127"></circle><path style="fill:#8C8C8C;" d="M361.389,312.549l0.846-5.627l-4.534-0.474c0,0,3.565-3.638,6.088,0.563C365.514,310.537,361.389,312.549,361.389,312.549z"></path><polyline style="fill:none;stroke:#000000;stroke-linecap:round;stroke-linejoin:round;" points="361.396,312.749 362.234,306.922 356.76,306.544 "></polyline></g></g></g></g></svg>