<svg xmlns="http://www.w3.org/2000/svg" width="500" height="500" version="1.1"><g id="x012"><g><path style="fill:#505050;stroke:#000000;stroke-linecap:round;stroke-linejoin:round;" d="M304.034,364.493l7.805,6.988l-3.241,3.621l-8.238-7.377C301.342,366.428,302.584,365.305,304.034,364.493z"></path><path style="fill:#DED9D6;stroke:#000000;stroke-linecap:round;stroke-linejoin:round;" d="M303.384,380.939c0,0,9.177-0.135,13.767,8.907c9.985,18.895,28.141,36.125,38.597,38.868c16.465,4.319,27.262-4.858,27.262-4.858s-31.176-3.779-48.585-44.807c-8.3,2.362-11.741-0.066-16.465-10.257C314.45,370.413,304.193,377.43,303.384,380.939z"></path><path style="fill:#AD9991;" d="M333.614,381.007l-0.811,5.264c0,0-12.079,1.891-16.531-7.624c1.214-1.216,3.576-3.778,3.576-3.778S324.1,383.842,333.614,381.007z"></path><path style="fill:#6E6E6E;" d="M315.598,379.389c0.404,1.012,7.085,9.514,16.194,7.894c1.62,5.466,18.151,29.962,48.248,37.924c-19.435,7.828-37.518-5.263-37.518-5.263s-18.153-14.913-25.238-32.12c-2.093-3.442-5.668-4.927-5.668-4.927L315.598,379.389z"></path><path style="fill:none;stroke:#000000;stroke-linecap:round;stroke-linejoin:round;" d="M312.831,373.382c0,0.81,5.802,15.116,19.434,13.496c1.35,12.146,28.948,35.898,48.314,37.654c-4.588,2.968-22.403,9.852-42.917-8.098"></path><path style="fill:#B2B2B2;stroke:#000000;stroke-linecap:round;stroke-linejoin:round;" d="M320.788,369.493c0,0,1.279,1.29,1.171,1.835c-0.107,0.546-12.567,13.725-13.774,13.918c-1.206,0.194-2.107-1.653-2.107-1.653L320.788,369.493z"></path><path style="fill:#505050;stroke:#000000;stroke-linecap:round;stroke-linejoin:round;" d="M304.174,386.117c0,0-4.213-2.153-3.267-5.034c0.455-1.388,16.282-16.641,18.305-16.563c2.022,0.076,3.604,3.269,3.604,3.269S306.267,384.023,304.174,386.117z"></path></g></g></svg>