<svg xmlns="http://www.w3.org/2000/svg" width="500" height="500" version="1.1"><g id="x120"><g><g><g><path style="fill:#666666;stroke:#000000;stroke-linecap:round;stroke-linejoin:round;" d="M274.756,417.395l-3.418,5.215c0,0,0.901,3.958,6.475,4.138c3.059-3.417,3.779-6.294,3.779-6.294L274.756,417.395z"></path><path style="fill:#666666;stroke:#000000;stroke-linecap:round;stroke-linejoin:round;" d="M291.458,426.866l-1.055,5.637c0,0,1.8,3.598,7.755,1.501c1.499-4.335,0.786-6.962,0.786-6.962L291.458,426.866z"></path><path style="fill:#666666;stroke:#000000;stroke-linecap:round;stroke-linejoin:round;" d="M327.632,421.53l3.42,5.217c0,0-2.517,4.856-6.834,3.957c-3.06-3.417-3.419-6.115-3.419-6.115L327.632,421.53z"></path></g><path style="fill:#8C8C8C;stroke:#000000;stroke-linecap:round;stroke-linejoin:round;" d="M329.368,396.256c0-0.013,0.002-0.024,0.002-0.039v-2.877c0-4.944-11.597-8.947-25.898-8.947c-14.305,0-25.9,4.003-25.9,8.947v2.877c0,0.015,0.004,0.026,0.004,0.039c-4.296,3.982-7.149,16.508-2.16,23.657c5.394,7.733,16.481,9.712,28.057,9.712c11.573,0,22.661-1.979,28.055-9.712C336.517,412.764,333.664,400.238,329.368,396.256z"></path><path style="fill:#666666;" d="M275.477,406.603c0,0,3.237-3.776,6.475-2.967c3.236,0.81,5.394,6.745,16.727,7.285c11.33,0.538,16.457-8.634,21.582-8.634s11.329,2.158,11.872,8.094c0.27-4.587-2.161-12.682-3.779-12.951c-0.809-1.887-0.27-3.775-0.27-3.775s-4.856,5.935-24.28,5.935c-19.425,0-24.55-5.396-24.55-5.396l-0.539,1.35C278.714,395.543,273.586,402.826,275.477,406.603z"></path><path style="fill:#666666;" d="M274.128,412.539c0,0,0.809,15.646,29.942,15.646c29.139,0,28.599-15.378,28.599-15.378s-4.316,11.063-29.136,11.063S274.128,412.539,274.128,412.539z"></path><path style="fill:none;stroke:#000000;stroke-linecap:round;stroke-linejoin:round;" d="M280.511,398.15c0,0,3.6,4.137,22.301,4.137c18.707,0,23.744-4.137,23.744-4.137"></path><path style="fill:#666666;stroke:#000000;stroke-linecap:round;stroke-linejoin:round;" d="M322.536,392.737c0,2.593-8.535,4.692-19.064,4.692c-10.533,0-19.066-2.1-19.066-4.692s8.536-4.692,19.066-4.692C314.001,388.045,322.536,390.145,322.536,392.737z"></path><ellipse style="fill:#6E6E6E;stroke:#000000;stroke-linecap:round;stroke-linejoin:round;" cx="303.471" cy="394.463" rx="17.609" ry="2.967"></ellipse><path style="fill:#505050;" d="M298.542,396.082c0,0-1.483-1.079,0.81-1.753c2.294-0.675,14.027-0.54,14.027-0.54s-17.264-2.023-24.953,0.674C289.639,395.406,298.542,396.082,298.542,396.082z"></path><path style="opacity:0.5;fill:#FFFFFF;" d="M304.342,393.113c0,0,6.879,0.406,7.553,1.08c0.675,0.675-5.395,1.483-5.395,1.483s8.903,0.405,11.06-1.079C319.722,393.113,304.342,393.113,304.342,393.113z"></path></g><path style="fill:#6E6E6E;stroke:#000000;stroke-linecap:round;stroke-linejoin:round;" d="M280.871,395.271c0,0-1.799-2.338-0.72-3.776c1.08-1.438,3.059-1.978,3.598-1.077C284.289,391.316,283.929,394.913,280.871,395.271z"></path><g><path style="fill:#DCDCDC;stroke:#000000;stroke-linecap:round;stroke-linejoin:round;" d="M322.598,369.553c-0.952-1.252-3.678-2.126-7.238-2.613c0.692,1.482,0.839,3.198,0.561,4.894c1.688,0.192,2.924,0.413,3.441,0.598c2.517,0.9,3.957,14.749,3.957,14.749s2.516,1.258,3.955,1.619C327.814,383.761,326.014,374.05,322.598,369.553z"></path><path style="fill:#8C8C8C;stroke:#000000;stroke-linecap:round;stroke-linejoin:round;" d="M315.403,364.159c-0.678-0.558-20.806,0.697-21.278,0.966c-1.258,0.719-2.822,2.989-2.822,2.989c-0.722,3.417,1.979,6.476,2.697,6.835c0.297,0.149,21.138-1.586,22.481-1.8C318.46,370.452,317.384,365.777,315.403,364.159z"></path><g><path style="fill:#DCDCDC;stroke:#000000;stroke-linecap:round;stroke-linejoin:round;" d="M295.479,367.809c-4.702,0.75-8.734,2.045-10.65,3.902c-5.936,5.757-4.854,20.325-4.854,20.325l3.595,1.259c0,0-0.177-10.433,4.496-17.807c2.109-1.529,4.21-2.59,7.686-3.113C297.375,370.5,296.521,369.158,295.479,367.809z"></path></g></g></g></g></svg>