<svg xmlns="http://www.w3.org/2000/svg" width="500" height="500" version="1.1"><g id="x121"><g><g><path style="fill:#FED696;stroke:#000000;stroke-linecap:round;stroke-linejoin:round;" d="M367.226,285.73l-1.343-6.796l-6.796,1.339l-0.592,3.816c0,0-4.617,8.979-6.17,9.625c0.287,1.453,3.58,3.662,5.036,3.374c0.004-1.682,6.558-9.362,6.558-9.362L367.226,285.73z"></path><path style="opacity:0.5;fill:#FFFFFF;" d="M361.307,282.327c0,0,2.774-1.479,2.824-0.557c-0.313,1.128-2.677,3.327-2.677,3.327S361.513,282.687,361.307,282.327z"></path></g><g><path style="fill:#FED696;stroke:#000000;stroke-linecap:round;stroke-linejoin:round;" d="M355.377,294.601c0,0-7.365-6.273-14.452-3.012c-3.101,8.611-34.718,59.092-34.718,59.092l2.633,13.341l13.339-2.633c0,0,34.69-48.421,41.476-54.558C363.983,299.034,355.377,294.601,355.377,294.601z"></path><path style="opacity:0.5;fill:#FFFFFF;" d="M339.675,298.988c0,0,3.485,0.113,9.478,4.129c5.99,4.017,7.71,8.152,7.71,8.152l1.349-1.41c0,0-0.76-3.85-7.516-8.38c-6.759-4.53-9.938-4.435-9.938-4.435L339.675,298.988z"></path><path style="fill:#E0B878;" d="M336.531,304.674l-25.203,48.55c0,0,0.821-0.562,4.303,1.55c3.482,2.112,5.479,4.783,5.479,4.783l-10.828,1.87l-2.025-10.262L336.531,304.674z"></path><path style="opacity:0.5;fill:#FFFFFF;" d="M345.689,293.005c0,0,4.871,0.371,10.142,4.796c-7.409,9.057-22.841,27.428-23.353,26.864C331.969,324.098,345.689,293.005,345.689,293.005z"></path><path style="opacity:0.5;fill:#FFFFFF;" d="M309.801,348.859c0,0,3.385,0.933,7.069,3.405c3.686,2.471,5.319,5.347,5.319,5.347l1.44-2.15c0,0-0.558-2.154-5.319-5.347c-4.761-3.19-7.17-3.25-7.17-3.25L309.801,348.859z"></path></g><path style="fill:#E0B878;stroke:#000000;stroke-linecap:round;stroke-linejoin:round;" d="M306.66,373.246l8.444-12.594c0,0-0.153-1.775-2.142-2.911c-1.989-1.134-3.388-0.795-3.388-0.795l-8.443,12.592l-3.805,3.683l1.628,5.544l5.745-0.601L306.66,373.246z"></path></g></g></svg>