<svg xmlns="http://www.w3.org/2000/svg" width="500" height="500" version="1.1"><g id="x122"><g><path style="fill:#FCCF59;stroke:#000000;stroke-linecap:round;stroke-linejoin:round;" d="M319.255,356.549l-21.688,11.143c1.343,1.496,2.696,3.008,3.817,4.71l20.582-10.576L319.255,356.549z"></path><g><g><g><path style="fill:#BF0000;stroke:#000000;stroke-linecap:round;stroke-linejoin:round;" d="M317.851,360.222c0,0,21.436,3.798,25.826,9.399c-2.859,3.279-4.149,4.698-4.149,4.698s-15.172-9.885-19.17-10.398C318.568,361.816,317.851,360.222,317.851,360.222z"></path><path style="fill:none;stroke:#00A33D;stroke-linecap:round;stroke-linejoin:round;" d="M339.602,370.731c0,0-9.453-6.024-17.642-8.013"></path><g><path style="fill:#BF0000;stroke:#000000;stroke-linecap:round;stroke-linejoin:round;" d="M317.854,360.221c0.481,0.054,11.795,7.087,15.387,11.436c-4.718,8.462-14.791,10.614-16.125,9.486c-1.359-3.531-2.667-19.022-2.667-19.022l2.892,0.63c0,0,2.034,10.435,3.969,11.556c1.971-1.162,3.338-2.618,3.338-2.618l-6.219-8.288L317.854,360.221z"></path><path style="fill:#BF0000;stroke:#000000;stroke-linecap:round;stroke-linejoin:round;" d="M322.362,377.24c0,0-1.167-2.271-2.086-4.064"></path></g></g><g><path style="fill:#BF0000;stroke:#000000;stroke-linecap:round;stroke-linejoin:round;" d="M318.157,360.818c0,0,9.407-19.63,7.413-26.462c-4.331,0.41-6.235,0.633-6.235,0.633s-0.81,18.089-2.725,21.639C317.28,359.305,318.157,360.818,318.157,360.818z"></path><path style="fill:none;stroke:#00A33D;stroke-linecap:round;stroke-linejoin:round;" d="M322.295,337.02c0,0-0.615,11.192-3.771,19.006"></path><g><path style="fill:#BF0000;stroke:#000000;stroke-linecap:round;stroke-linejoin:round;" d="M300.728,349.224c2.078,3.163,13.905,13.255,13.905,13.255l1.174-2.718c0,0-7.297-7.733-7.078-9.961c2.093-0.923,4.073-1.185,4.073-1.185l3.11,9.883l2.248,2.319c0.236-0.422,1.116-13.714-0.324-19.168C308.207,340.551,300.589,347.482,300.728,349.224z"></path><path style="fill:#BF0000;stroke:#000000;stroke-linecap:round;stroke-linejoin:round;" d="M306.957,347.235c0,0,1.165,2.271,2.087,4.063"></path></g></g></g><g><g><path style="fill:#FCCF59;stroke:#000000;stroke-linecap:round;stroke-linejoin:round;" d="M325.022,342.114c-7.854,7.355-3.787,16.748-3.787,16.748s5.263,8.778,15.816,6.683c10.555-2.096,14.836-6.408,14.836-6.408l-13.012-25.343C338.876,333.794,332.877,334.758,325.022,342.114z"></path><path style="fill:#E09600;" d="M338.752,344.733c0,0-11.794,4.092-14.626,9.171c-0.478,0.245-1.146-0.469-1.146-0.469s0.084-8.958,12.879-15.223C337.328,340.782,338.752,344.733,338.752,344.733z"></path><path style="fill:#E09600;" d="M325.699,360.496c0,0,12.144,0.413,19.479-5.014c1.28,1.608,2.08,3.463,2.08,3.463S332.961,365.228,325.699,360.496z"></path><path style="fill:#FFFFFF;" d="M339.564,347.489c0,0-8.488,4.357-9.755,3.949c-1.266-0.407,5.826-6.012,7.564-6.451C339.364,345.628,339.564,347.489,339.564,347.489z"></path><ellipse transform="matrix(-0.457 -0.8895 0.8895 -0.457 160.8334 804.7535)" style="fill:#FFFFFF;" cx="326.073" cy="353.281" rx="1.68" ry="2.284"></ellipse></g><g><path style="fill:#FCCF59;stroke:#000000;stroke-linecap:round;stroke-linejoin:round;" d="M335.679,332.565c0.218,3.664,2.639,10.729,5.4,16.108c2.762,5.38,7.094,11.464,9.942,13.777c1.204,0.289,6.526-2.293,6.526-2.293s0.11-6.552-5.352-17.191c-5.462-10.639-10.851-14.368-10.851-14.368S336.146,331.419,335.679,332.565z"></path><path style="fill:#E09600;" d="M347.922,347.881c0,0-3.755-1.205-3.839,2.162c-2.537-4.1-4.249-7.523-4.647-8.983c2.168,0.397,3.591-1.239,3.701-2.203C344.178,340.588,347.922,347.881,347.922,347.881z"></path><path style="fill:#E09600;" d="M340.226,330.685c0.76-0.39,5.789,5.244,9.908,13.267c4.118,8.021,5.766,15.392,5.006,15.782c-0.759,0.389-4.714-5.797-8.831-13.819C342.19,337.894,339.467,331.073,340.226,330.685z"></path><path style="fill:none;stroke:#000000;stroke-linecap:round;stroke-linejoin:round;" d="M356.096,359.241c0,0-3.706-3.837-8.862-13.877c-5.155-10.042-6.052-15.17-6.052-15.17"></path><path style="fill:#E09600;" d="M338.652,337.15c0,0,2.941-2.184,2.211-3.018c-0.73-0.833-3.103-0.302-3.103-0.302S338.039,335.955,338.652,337.15z"></path><path style="fill:#FFFFFF;" d="M342.789,339.941c0,0-1.962,2.065-3.354,1.118c-1.394-0.946,1.147-5.121,1.996-4.349C342.282,337.482,342.956,338.799,342.789,339.941z"></path></g><path style="fill:#FCCF59;stroke:#000000;stroke-linecap:round;stroke-linejoin:round;" d="M348.54,347.318c0.122-0.052,0.244-0.106,0.366-0.17c1.717-0.881,2.654-2.479,2.095-3.567c-0.559-1.089-2.403-1.258-4.12-0.377c-0.121,0.062-0.238,0.128-0.353,0.197L348.54,347.318z"></path></g><g><path style="fill:#00A33D;stroke:#000000;stroke-linecap:round;stroke-linejoin:round;" d="M319.354,362.848c0,0,1.037,7.021-1.409,8.729c-1.566-0.403-1.65-2.626-1.65-2.626s-3.731,5.087-6.016,5.052c0.368-4.871,3.769-7.372,3.769-7.372s-4.327,0.107-4.033-0.498C310.308,365.529,314.957,361.934,319.354,362.848z"></path><path style="fill:#00A33D;stroke:#000000;stroke-linecap:round;stroke-linejoin:round;" d="M309.719,355.558c-0.584,1.509,1.173,2.872,1.173,2.872s-6.31,0.068-7.61,1.943c4.174,2.541,8.187,1.235,8.187,1.235s-2.608,3.454-1.946,3.567c0.664,0.112,6.295-1.569,8.113-5.675C317.635,359.501,312.534,354.566,309.719,355.558z"></path></g><g><path style="fill:#FCCF59;stroke:#000000;stroke-linecap:round;stroke-linejoin:round;" d="M320.18,366.222c1.324,0.226,3.996-2.807,4.342-4.192c0.347-1.386-5.015-2.41-5.015-2.41l-1.792,0.921C317.715,360.54,318.855,365.997,320.18,366.222z"></path><path style="fill:#FCCF59;stroke:#000000;stroke-linecap:round;stroke-linejoin:round;" d="M314.638,355.43c0.59-1.208,4.611-1.611,5.939-1.084c1.328,0.526-0.964,5.479-0.964,5.479l-1.793,0.92C317.82,360.744,314.051,356.639,314.638,355.43z"></path></g></g></g></g></svg>