<svg xmlns="http://www.w3.org/2000/svg" width="500" height="500" version="1.1"><g id="x123"><g><g><path style="fill:#DCDCDC;stroke:#000000;stroke-linecap:round;stroke-linejoin:round;" d="M325.073,349.537c5.284,3.343,7.749,6.479,7.749,6.479l-29.171,13.437l0.636-10.589C307.851,356.954,321.066,349.992,325.073,349.537z"></path><path style="fill:#FFFFFF;stroke:#000000;stroke-linecap:round;stroke-linejoin:round;" d="M273.107,349.301c0,0,5.121-2.908,10.018-3.795c10.508,3.886,20.27,13.838,20.27,13.838s0.325-0.176,0.893-0.48l-0.636,10.589l-0.764,0.352L273.107,349.301z"></path><path style="fill:#FFFFFF;stroke:#000000;stroke-linecap:round;stroke-linejoin:round;" d="M336.336,368.443c0,0-0.958-8.088-3.514-12.428c-7.383,1.591-29.607,12.445-29.607,12.445s-16.051-15.553-30.107-19.16c-1.523,5.081-2.974,9.641-2.974,9.641l24.438,10.663c0,0,1.479,4.451,6.672,5.197c5.191,0.744,8.198-3.594,8.198-3.594L336.336,368.443z"></path><path style="fill:#DCDCDC;" d="M302.055,368.689c0,0-16.986-15.95-28.224-17.961c-0.475,1.919-1.925,6.48-1.925,6.48L302.055,368.689z"></path><path style="fill:#FFFFFF;stroke:#000000;stroke-linecap:round;stroke-linejoin:round;" d="M334.411,363.398c0,0-5.675,0.773-7.095,0.97"></path><path style="fill:#FFFFFF;stroke:#000000;stroke-linecap:round;stroke-linejoin:round;" d="M272.465,353.315c0,0,6.814,3.759,6.23,3.676"></path><path style="fill:#6E6E6E;stroke:#000000;stroke-linecap:round;stroke-linejoin:round;" d="M269.06,357.198l28.108,10.924c0,0-0.402,3.723,4.661,4.45c5.063,0.727,5.725-2.96,5.725-2.96l30.045-2.578l0.851,3.302c0,0-24.072,1.579-28.635,1.986c-1.747,4.781-8.46,3.555-8.46,3.555s-6.787-0.71-7.118-5.791c-4.265-1.672-26.921-9.959-26.921-9.959L269.06,357.198z"></path></g><path style="fill:#FFFFFF;stroke:#000000;stroke-linecap:round;stroke-linejoin:round;" d="M303.307,366.883l0.006-8.345c0,0,12.558-12.711,18.051-14.971c2.409,0.743,5.968,2.713,7.938,5.583C320.619,354.265,303.307,366.883,303.307,366.883z"></path></g></g></svg>