<svg xmlns="http://www.w3.org/2000/svg" width="500" height="500" version="1.1"><g id="x124"><g><path style="fill:#6E6E6E;stroke:#000000;stroke-linecap:round;stroke-linejoin:round;" d="M292.614,311.146c-0.465-3.651,11.491,2.073,26.149-2.675c0.279-3.021-2.506-11.404-2.506-11.404l10.895,3.032c0,0,3.868,4.713-0.334,15.075c-0.729,28.763-2.746,89.311-6.925,97.022c-5.505,10.161-28.009,28.408-28.009,28.408s-4.754-9.072-5.345-13.699C285.95,422.282,293.029,314.411,292.614,311.146z"></path><path style="fill:none;stroke:#000000;stroke-linecap:round;stroke-linejoin:round;" d="M323.609,302.229c0,0-0.118,4.689-6.81,6.76"></path><path style="fill:#FFFFFF;" d="M324.183,320.047l-0.552,42.491c0,0-5.555-36.327-18.212-39.565C322.175,323.93,324.183,320.047,324.183,320.047z"></path><path style="fill:none;stroke:#000000;stroke-linecap:round;stroke-linejoin:round;" d="M320.486,404.821c0,0-23.627,24.452-25.723,24.545l3.357-101.632"></path><path style="fill:none;stroke:#000000;stroke-linecap:round;stroke-linejoin:round;" d="M326.772,314.084c-0.644,1.463-3.58,5.765-8.709,6.31c-5.128,0.544-19.782-0.296-19.782-0.296"></path><path style="fill:#FFBF00;stroke:#000000;stroke-linecap:round;stroke-linejoin:round;" d="M326.193,343.694c1.464,0.643,4.48,6.508,4.706,9.577c0.227,3.067-0.017,16.76-2.362,25.687c-2.344,8.927-7.067,16.113-7.067,16.113l-3.463-17.59l-18.862-4.781l0.236-8.106l17.677,1.119l-1.321-7.741l-18.723-6.295l1.302-19.688l17.89,15.359L326.193,343.694z"></path><path style="fill:#FFFFFF;" d="M328.295,355.672c0,0-2.081-4.146-4.375-4.006c-2.295,0.144-7.375-1.572-7.375-1.572l9.189-3.956C325.734,346.138,330.155,351.19,328.295,355.672z"></path><path style="fill:#FF0000;stroke:#000000;stroke-linecap:round;stroke-linejoin:round;" d="M326.827,365.561c0.056,4.882,0.327,9.261,2.827,9.231c2.498-0.027,4.479-4.008,4.423-8.892c-0.055-4.883-2.125-8.819-4.623-8.792C326.956,357.137,326.772,360.676,326.827,365.561z"></path></g></g></svg>