<svg xmlns="http://www.w3.org/2000/svg" width="500" height="500" version="1.1"><g id="x127"><g><g><g><rect x="346.773" y="355.371" transform="matrix(0.0971 0.9953 -0.9953 0.0971 671.2212 -26.3002)" style="fill:#A57E4E;stroke:#000000;stroke-linecap:round;stroke-linejoin:round;" width="6.666" height="2.87"></rect><path style="fill:#A57E4E;stroke:#000000;stroke-linecap:round;stroke-linejoin:round;" d="M352.886,340.929c0,0-5.438-0.81-7.552,0.736c-1.539,3.241,0.887,13.307,1.761,13.84c0.876,0.531,5.112,0.634,5.743-0.253C353.475,354.368,354.613,343.849,352.886,340.929z"></path><path style="fill:#FFFFFF;" d="M346.268,342.445c0.47-0.114,2.804-0.822,5.873-0.365c0.943,2.653,0.695,7.145,0.219,7.879c-0.65-1.037-1.911-6.204-1.911-6.204L346.268,342.445z"></path></g><g><rect x="353.877" y="372.214" transform="matrix(-0.0968 -0.9953 0.9953 -0.0968 19.9063 765.3633)" style="fill:#A57E4E;stroke:#000000;stroke-linecap:round;stroke-linejoin:round;" width="6.666" height="2.872"></rect><g><path style="fill:#A57E4E;stroke:#000000;stroke-linecap:round;stroke-linejoin:round;" d="M363.004,388.691c0,0-5.178,1.846-7.554,0.736c-2.135-2.882-1.7-13.225-0.944-13.917c0.757-0.69,4.892-1.611,5.686-0.863C360.986,375.395,364.132,385.492,363.004,388.691z"></path><path style="fill:#735636;" d="M355.458,376.097c0,0-1.562,9.355,1.232,12.654c0.558,0.083,1.483-0.282,1.483-0.282s-1.173-10.601-0.595-13.129C356.26,375.882,355.458,376.097,355.458,376.097z"></path><path style="fill:#FFFFFF;" d="M356.186,388.518c0.484,0.021,2.912,0.266,5.833-0.774c0.414-2.788-0.698-7.145-1.309-7.771c-0.438,1.142-0.674,6.454-0.674,6.454L356.186,388.518z"></path></g></g><g><rect x="341.509" y="371.147" transform="matrix(-0.0971 -0.9953 0.9953 -0.0971 9.7715 754.0285)" style="fill:#A57E4E;stroke:#000000;stroke-linecap:round;stroke-linejoin:round;" width="10.79" height="2.87"></rect><g><path style="fill:#A57E4E;stroke:#000000;stroke-linecap:round;stroke-linejoin:round;" d="M352.898,389.679c0,0-5.177,1.842-7.551,0.737c-2.135-2.884-1.7-13.227-0.944-13.921c0.756-0.692,4.89-1.609,5.685-0.861C350.881,376.378,354.03,386.479,352.898,389.679z"></path><path style="fill:#735636;" d="M345.263,377.229c0,0-1.56,9.354,1.235,12.652c0.557,0.085,1.484-0.281,1.484-0.281s-1.173-10.599-0.596-13.129C346.068,377.013,345.263,377.229,345.263,377.229z"></path><path style="fill:#FFFFFF;" d="M346.138,389.704c0.483,0.021,2.912,0.267,5.832-0.775c0.412-2.787-0.698-7.144-1.31-7.77c-0.438,1.141-0.674,6.453-0.674,6.453L346.138,389.704z"></path></g></g><path style="fill:#A57E4E;stroke:#000000;stroke-linecap:round;stroke-linejoin:round;" d="M343.331,373.972c1.504-0.457,2.686-4.176,2.686-4.176l7.218-1.015c0,0,3.439,2.549,3.887,2.918c0.449,0.368,3.613,0.059,5.31-1.549c1.698-1.606,2.568-7.461,2.568-7.461s-1.984-5.576-3.961-6.826c-1.978-1.249-5.139-0.939-5.509-0.492c-0.367,0.449-3.253,3.614-3.253,3.614l-7.273,0.401c0,0-1.881-3.423-3.443-3.579c-1.56-0.157-3.999,0.184-4.744,0.976c-0.746,0.795-8.911,4.775-8.911,4.775l-107.256,10.46l0.956,9.796l107.269-10.348c0,0,8.728,1.828,9.615,2.463C339.374,374.563,341.831,374.427,343.331,373.972z"></path><path style="fill:#735636;" d="M361.405,369.473c0,0-2.032,1.709-3.745,1.052s-5.129-4.721-5.129-4.721s4.534,2.854,6.251,2.14c1.717-0.72,4.414-2.629,4.414-2.629S362.588,368.945,361.405,369.473z"></path><path style="fill:#FFFFFF;" d="M353.054,359.916l3.207-3.746c0,0,3.202-0.244,4.168,0.485c0.963,0.729,3.4,5.301,3.406,6.057c0.005,0.755-1.819,1.07-1.844,0.798c-0.028-0.273-1.805-5.112-3.015-5.545C357.767,357.533,354.499,357.853,353.054,359.916z"></path><rect x="280.207" y="320.397" transform="matrix(-0.0974 -0.9952 0.9952 -0.0974 -58.0547 683.0929)" style="fill:#FFFFFF;" width="1.022" height="94.948"></rect><path style="fill:#FFFFFF;" d="M327.918,362.754l9.986-5.345c0,0,2.737-0.815,3.452-0.541c0.714,0.272,3.236,3.598,3.236,3.598l-1.504,0.079c0,0-1.658-2.175-2.22-2.326c-0.561-0.149-2.592,0.185-2.592,0.185l-10.26,5.368"></path><g><rect x="347.127" y="356.954" transform="matrix(0.0977 0.9952 -0.9952 0.0977 678.4869 -20.0613)" style="fill:#A57E4E;stroke:#000000;stroke-linecap:round;stroke-linejoin:round;" width="6.36" height="14.359"></rect></g><g><line style="fill:none;stroke:#000000;stroke-linecap:round;stroke-linejoin:round;" x1="355.433" y1="361.761" x2="190.519" y2="377.841"></line><line style="fill:none;stroke:#000000;stroke-linecap:round;stroke-linejoin:round;" x1="355.631" y1="363.799" x2="190.717" y2="379.88"></line><line style="fill:none;stroke:#000000;stroke-linecap:round;stroke-linejoin:round;" x1="355.829" y1="365.841" x2="190.917" y2="381.923"></line></g></g><g><path style="fill:#6E6E6E;stroke:#000000;stroke-linecap:round;stroke-linejoin:round;" d="M234.139,392.026l-3.163-32.451c0,0-3.977-9.09-28.878-6.662c-24.901,2.431-25.441,10.62-25.441,10.62l3.422,35.106c0,0,2.114,7.932,27.013,5.504C231.994,401.716,234.139,392.026,234.139,392.026z"></path><path style="fill:#FFFFFF;" d="M213.787,354.472c0,0,8.751,1.003,16.004,5.652C228.148,355.956,217.383,353.297,213.787,354.472z"></path><path style="fill:#FEFCE3;stroke:#000000;stroke-linecap:round;stroke-linejoin:round;" d="M233.831,388.864l-2.546-26.124c0,0-8.633-8.226-28.838-6.254c-19.39,1.891-25.456,10.472-25.456,10.472l2.755,28.257c0,0,7.609,7.248,27,5.356C226.952,398.604,233.831,388.864,233.831,388.864z"></path><path style="fill:#3F3F3F;stroke:#000000;stroke-linecap:round;stroke-linejoin:round;" d="M177.97,375.027l4.263-0.281l1.091,12.033l-5.262,0.791C178.062,387.57,175.296,379.915,177.97,375.027z"></path><path style="fill:#AFAE9C;" d="M200.29,399.883c0,0-13.425-0.339-19.475-5.313c-0.601-4.063-0.716-7.347-0.716-7.347S192.52,398.373,200.29,399.883z"></path></g><g><line style="fill:none;stroke:#000000;stroke-linecap:round;stroke-linejoin:round;" x1="232.26" y1="373.771" x2="190.519" y2="377.841"></line><line style="fill:none;stroke:#000000;stroke-linecap:round;stroke-linejoin:round;" x1="232.493" y1="375.807" x2="190.717" y2="379.88"></line><line style="fill:none;stroke:#000000;stroke-linecap:round;stroke-linejoin:round;" x1="232.623" y1="377.856" x2="190.917" y2="381.923"></line></g><rect x="178.966" y="377.827" transform="matrix(0.0971 0.9953 -0.9953 0.0971 549.19 154.6565)" style="fill:#FEFCE3;stroke:#000000;stroke-linecap:round;stroke-linejoin:round;" width="20.78" height="4.375"></rect></g></g></svg>