<svg xmlns="http://www.w3.org/2000/svg" width="500" height="500" version="1.1"><g id="x128"><g><path style="fill:#505050;stroke:#000000;stroke-linecap:round;stroke-linejoin:round;" d="M304.5,351.25c0,0-6.75,0.75-7.25,2s-1.75,19.5-0.75,21s13,4.5,13,4.5l-0.25-4.5l-8.5-3.5V358l4.5-1L304.5,351.25z"></path><g><path style="fill:#3F3F3F;stroke:#000000;stroke-linecap:round;stroke-linejoin:round;" d="M325.135,334.713c-1.53-1.531-9.73-1.969-9.73-1.969s-8.199,0.438-9.729,1.969c-1.53,1.529-1.094,11.26-0.984,11.697c0.11,0.438,2.187-0.219,2.187-0.219c0-0.547,0.001-8.965,0.547-10.168c0.547-1.201,7.98-1.311,7.98-1.311s7.435,0.109,7.981,1.311c0.546,1.203,0.547,9.621,0.547,10.168c0,0,2.077,0.656,2.187,0.219S326.665,336.242,325.135,334.713z"></path><g><path style="fill:#505050;stroke:#000000;stroke-linecap:round;stroke-linejoin:round;" d="M324.26,339.273c0-0.466-3.854-0.844-8.609-0.844s-8.609,0.378-8.609,0.844c0,0.034,0.022,0.066,0.061,0.1h-0.061v4.598c0,0,1.312,0.471,8.691,0.471c7.379,0,8.527-0.471,8.527-0.471v-4.598h-0.06C324.238,339.34,324.26,339.308,324.26,339.273z"></path></g><path style="fill:#3F3F3F;" d="M309.691,339.707c0.055,0.197-1.557,2.496-0.354,3.479c0.93,0.156,5.492-0.648,5.492-0.648s-0.163-2.201-0.055-2.83C313.354,339.59,309.691,339.707,309.691,339.707z"></path><path style="opacity:0.5;fill:#FFFFFF;" d="M318.411,339.461c0,0,0.602,1.062-0.328,2.791c2.46-0.118,4.592,0.196,4.592,0.196s-1.476-1.085-0.272-2.853C321.035,339.399,318.411,339.461,318.411,339.461z"></path><polygon style="fill:#505050;stroke:#000000;stroke-linecap:round;stroke-linejoin:round;" points="313,344.224 313,329.574 317.7,329.574 317.7,343.678 "></polygon><g><path style="fill:#6E6E6E;stroke:#000000;stroke-linecap:round;stroke-linejoin:round;" d="M333.197,364.176c0,18.53-7.855,21.318-17.547,21.318c-9.69,0-17.547-4.756-17.547-21.318s7.856-21.318,17.547-21.318C325.342,342.857,333.197,345.645,333.197,364.176z"></path><path style="opacity:0.3;fill:#FFFFFF;" d="M302.177,363.684c0,0,3.717-13.666,11.807-16.836c-1.749-1.859-6.122-1.203-7.652,0C304.801,348.05,300.209,353.516,302.177,363.684z"></path><path style="fill:#505050;" d="M318.794,382.706l5.576,0.219c0,0,8.09-4.154,7.434-16.836C328.415,378.005,318.794,382.706,318.794,382.706z"></path><g><path style="fill:none;stroke:#C8C8C8;stroke-linecap:round;stroke-linejoin:round;" d="M303.434,350.4c0,0,4.473-1.64,12.178-1.64c7.706,0,12.83,1.64,12.83,1.64"></path><path style="fill:none;stroke:#C8C8C8;stroke-linecap:round;stroke-linejoin:round;" d="M301.876,354.992c0,0,5.077-1.312,13.742-1.312c8.666,0,14.382,1.312,14.382,1.312"></path><path style="fill:none;stroke:#C8C8C8;stroke-linecap:round;stroke-linejoin:round;" d="M301.548,359.584c0,0,5.238-0.984,14.106-0.984c8.867,0,14.674,0.984,14.674,0.984"></path><g><path style="fill:none;stroke:#C8C8C8;stroke-linecap:round;stroke-linejoin:round;" d="M300.892,364.176c0,0,5.518-0.656,14.79-0.656c9.271,0,15.302,0.656,15.302,0.656"></path><path style="fill:none;stroke:#C8C8C8;stroke-linecap:round;stroke-linejoin:round;" d="M301.384,369.479c0,0,5.337-0.603,14.306-0.603c8.97,0,14.803,0.603,14.803,0.603"></path><path style="fill:none;stroke:#C8C8C8;stroke-linecap:round;stroke-linejoin:round;" d="M302.021,374.783c0,0,5.103-0.55,13.68-0.55c8.576,0,14.153,0.55,14.153,0.55"></path><path style="fill:none;stroke:#C8C8C8;stroke-linecap:round;stroke-linejoin:round;" d="M304.418,380.086c0,0,4.224-0.495,11.323-0.495s11.717,0.495,11.717,0.495"></path></g></g><path style="opacity:0.3;fill:#FFFFFF;" d="M302.177,363.684c0,0,3.717-13.666,11.807-16.836c-1.749-1.859-6.122-1.203-7.652,0C304.801,348.05,300.209,353.516,302.177,363.684z"></path></g><g><path style="fill:#505050;stroke:#000000;stroke-linecap:round;stroke-linejoin:round;" d="M324.26,388.76h-17.219v-4.598c0,0,1.148-0.472,8.527-0.472c7.38,0,8.691,0.472,8.691,0.472V388.76z"></path><path style="fill:#3F3F3F;" d="M317.919,384.477c-0.055,0.196,0.711,1.808-0.491,2.79c-0.93,0.157-4.646,0.039-4.646,0.039s0.164-2.201,0.055-2.829C314.257,384.358,317.919,384.477,317.919,384.477z"></path><path style="opacity:0.5;fill:#FFFFFF;" d="M317.919,384.477c0,0,0.602,1.061-0.327,2.79c2.459-0.118,4.591,0.196,4.591,0.196s-1.476-1.084-0.272-2.853C320.543,384.414,317.919,384.477,317.919,384.477z"></path><ellipse style="fill:#3F3F3F;stroke:#000000;stroke-linecap:round;stroke-linejoin:round;" cx="315.65" cy="388.858" rx="8.609" ry="0.845"></ellipse></g></g></g></g></svg>