<svg xmlns="http://www.w3.org/2000/svg" width="500" height="500" version="1.1"><g id="x129"><g><path style="fill:#505050;stroke:#000000;stroke-linecap:round;stroke-linejoin:round;" d="M304.5,351.25c0,0-6.75,0.75-7.25,2s-1.75,19.5-0.75,21s13,4.5,13,4.5l-0.25-4.5l-8.5-3.5V358l4.5-1L304.5,351.25z"></path><g><path style="fill:#3F3F3F;stroke:#000000;stroke-linecap:round;stroke-linejoin:round;" d="M325.135,334.713c-1.53-1.531-9.73-1.969-9.73-1.969s-8.199,0.438-9.729,1.969c-1.53,1.529-1.094,11.26-0.984,11.697c0.11,0.438,2.187-0.219,2.187-0.219c0-0.547,0.001-8.965,0.547-10.168c0.547-1.201,7.98-1.311,7.98-1.311s7.435,0.109,7.981,1.311c0.546,1.203,0.547,9.621,0.547,10.168c0,0,2.077,0.656,2.187,0.219S326.665,336.242,325.135,334.713z"></path><g><path style="fill:#505050;stroke:#000000;stroke-linecap:round;stroke-linejoin:round;" d="M324.26,339.273c0-0.466-3.854-0.844-8.609-0.844s-8.609,0.378-8.609,0.844c0,0.034,0.022,0.066,0.061,0.1h-0.061v4.598c0,0,1.312,0.471,8.691,0.471c7.379,0,8.527-0.471,8.527-0.471v-4.598h-0.06C324.238,339.34,324.26,339.308,324.26,339.273z"></path></g><path style="fill:#3F3F3F;" d="M309.691,339.707c0.055,0.197-1.557,2.496-0.354,3.479c0.93,0.156,5.492-0.648,5.492-0.648s-0.163-2.201-0.055-2.83C313.354,339.59,309.691,339.707,309.691,339.707z"></path><path style="opacity:0.5;fill:#FFFFFF;" d="M318.411,339.461c0,0,0.602,1.062-0.328,2.791c2.46-0.118,4.592,0.196,4.592,0.196s-1.476-1.085-0.272-2.853C321.035,339.399,318.411,339.461,318.411,339.461z"></path><polygon style="fill:#505050;stroke:#000000;stroke-linecap:round;stroke-linejoin:round;" points="313,344.224 313,329.574 317.7,329.574 317.7,343.678 "></polygon><g><path style="fill:#6E6E6E;stroke:#000000;stroke-linecap:round;stroke-linejoin:round;" d="M333.197,364.176c0,18.53-7.855,21.318-17.547,21.318c-9.69,0-17.547-4.756-17.547-21.318s7.856-21.318,17.547-21.318C325.342,342.857,333.197,345.645,333.197,364.176z"></path><path style="opacity:0.3;fill:#FFFFFF;" d="M302.177,363.684c0,0,3.717-13.666,11.807-16.836c-1.749-1.859-6.122-1.203-7.652,0C304.801,348.05,300.209,353.516,302.177,363.684z"></path><path style="fill:#505050;" d="M318.794,382.706l5.576,0.219c0,0,8.09-4.154,7.434-16.836C328.415,378.005,318.794,382.706,318.794,382.706z"></path><g><path style="fill:none;stroke:#C8C8C8;stroke-linecap:round;stroke-linejoin:round;" d="M303.434,350.4c0,0,4.473-1.64,12.178-1.64c7.706,0,12.83,1.64,12.83,1.64"></path><path style="fill:none;stroke:#C8C8C8;stroke-linecap:round;stroke-linejoin:round;" d="M301.876,354.992c0,0,5.077-1.312,13.742-1.312c8.666,0,14.382,1.312,14.382,1.312"></path><path style="fill:none;stroke:#C8C8C8;stroke-linecap:round;stroke-linejoin:round;" d="M301.548,359.584c0,0,5.238-0.984,14.106-0.984c8.867,0,14.674,0.984,14.674,0.984"></path><g><path style="fill:none;stroke:#C8C8C8;stroke-linecap:round;stroke-linejoin:round;" d="M300.892,364.176c0,0,5.518-0.656,14.79-0.656c9.271,0,15.302,0.656,15.302,0.656"></path><path style="fill:none;stroke:#C8C8C8;stroke-linecap:round;stroke-linejoin:round;" d="M301.384,369.479c0,0,5.337-0.603,14.306-0.603c8.97,0,14.803,0.603,14.803,0.603"></path><path style="fill:none;stroke:#C8C8C8;stroke-linecap:round;stroke-linejoin:round;" d="M302.021,374.783c0,0,5.103-0.55,13.68-0.55c8.576,0,14.153,0.55,14.153,0.55"></path><path style="fill:none;stroke:#C8C8C8;stroke-linecap:round;stroke-linejoin:round;" d="M304.418,380.086c0,0,4.224-0.495,11.323-0.495s11.717,0.495,11.717,0.495"></path></g></g><path style="opacity:0.3;fill:#FFFFFF;" d="M302.177,363.684c0,0,3.717-13.666,11.807-16.836c-1.749-1.859-6.122-1.203-7.652,0C304.801,348.05,300.209,353.516,302.177,363.684z"></path></g><g><path style="fill:#505050;stroke:#000000;stroke-linecap:round;stroke-linejoin:round;" d="M324.26,388.76h-17.219v-4.598c0,0,1.148-0.472,8.527-0.472c7.38,0,8.691,0.472,8.691,0.472V388.76z"></path><path style="fill:#3F3F3F;" d="M317.919,384.477c-0.055,0.196,0.711,1.808-0.491,2.79c-0.93,0.157-4.646,0.039-4.646,0.039s0.164-2.201,0.055-2.829C314.257,384.358,317.919,384.477,317.919,384.477z"></path><path style="opacity:0.5;fill:#FFFFFF;" d="M317.919,384.477c0,0,0.602,1.061-0.327,2.79c2.459-0.118,4.591,0.196,4.591,0.196s-1.476-1.084-0.272-2.853C320.543,384.414,317.919,384.477,317.919,384.477z"></path><ellipse style="fill:#3F3F3F;stroke:#000000;stroke-linecap:round;stroke-linejoin:round;" cx="315.65" cy="388.858" rx="8.609" ry="0.845"></ellipse></g></g></g><g><path style="fill:#6E6E6E;stroke:#000000;stroke-linecap:round;stroke-linejoin:round;" d="M306.885,329.563c0,0-9.27,1.952-16.17,8.085c-4.984,4.432-9.409,16.517-8.154,25.091c-0.835,2.928-1.464,5.854-1.464,5.854s3.137-2.3,4.393,0.209c1.253,2.509-1.465,20.28-5.646,22.58c-4.182,2.302-5.437,0.629-5.437,0.629l-0.627,3.135c0,0,1.254,0.418,0.627,2.718c-0.627,2.302-17.563,31.154,6.899,43.699c24.464,12.546,44.822,3.326,51.646-7.317c8.084-12.615,4.46-23.278,1.463-30.806c0.208-5.019,1.464-8.503,0.835-8.712c-0.627-0.208-5.017-0.835-5.435-2.09c-0.418-1.256-1.882-2.927-1.882-2.927s-6.272-4.602-3.973-13.591c2.3-8.991,5.226-7.736,7.318-7.736c0.418-2.3-1.255-5.437,0-7.945c1.254-2.509,3.693-15.542,0.347-20.352c-0.556-0.556-2.222-0.421-2.648-0.836c-1.813-1.761-1.88-3.276-1.88-3.276S321.66,329.146,306.885,329.563z"></path><path style="opacity:0.5;fill:#FFFFFF;" d="M275.521,426.788c0.937,5.989,6.969,11.291,6.969,11.291c-16.447-8.224-10.732-26.622-8.921-27.042C277.998,411.343,274.388,419.54,275.521,426.788z"></path><path style="opacity:0.5;fill:#FFFFFF;" d="M311.763,333.537c0,0,10.106-0.662,14.497,7.945c-2.927-0.559-3.206,0.139-5.437-0.837C318.594,339.67,320.545,335.906,311.763,333.537z"></path><path style="opacity:0.5;fill:#FFFFFF;" d="M284.303,361.135c0,0-0.418-11.847,5.576-18.954c5.995-7.11,11.987-6.412,11.987-6.412s-1.254,4.877-4.182,7.107C294.758,345.104,284.024,352.215,284.303,361.135z"></path><path style="fill:#505050;" d="M325.213,361.066l-0.313,3.137l5.229,2.875v-2.143c0,0-0.231-2.929-0.337-3.347c-0.104-0.419,0.649-1.985,0.649-1.985s2.928-7.006,1.255-17.146c-1.255-1.044-2.405-1.569-2.405-1.569s-0.314,8.363-4.078,15.264C325.109,358.034,325.213,361.066,325.213,361.066z"></path><path style="fill:#505050;" d="M325.945,389.815c0,0-4.703-5.122-3.344-12.336c1.358-7.213,3.031-8.573,5.122-10.036c-1.778-1.358-4.81-3.555-4.81-3.555s-2.194-1.882-5.854,4.078c-3.66,5.958-1.778,19.652,2.089,21.325C323.019,390.965,325.945,389.815,325.945,389.815z"></path><path style="fill:#505050;" d="M328.769,393.267c0,0-2.718,2.927-2.509,5.227c0.209,2.299,5.228,15.367,4.704,19.862c-0.522,4.494-7.004,23.313-14.428,26.345c6.065-2.091,13.989-5.243,18.504-17.145c4.602-12.128-1.776-23.835-1.776-23.835l0.941-8.051C334.205,395.67,329.396,394.834,328.769,393.267z"></path><path style="fill:none;stroke:#000000;stroke-linecap:round;stroke-linejoin:round;" d="M297.406,334.373c0,0,19.096-9.827,29.479,3.764"></path><path style="fill:none;stroke:#000000;stroke-linecap:round;stroke-linejoin:round;" d="M314.342,444.282c5.574-1.603,11.847-6.412,15.264-19.445c3.523-13.447-3.555-22.998-4.393-25.509c-0.574-1.729,0.907-4.53,3.068-7.107c0.373-0.946-0.906-1.951-0.906-1.951s-4.879,1.742-8.226-0.978c-6.106-4.962-3.553-19.862-1.253-23.625c2.3-3.764,7.316-2.719,7.316-2.719s-1.671-3.555-1.044-7.108c6.063-8.712,3.624-17.564,3.624-17.564s-0.487-1.951-1.951-2.996"></path><path style="fill:#505050;stroke:#000000;stroke-linecap:round;stroke-linejoin:round;" d="M281.934,442.609c-0.837-1.464,0.209-4.6,2.091-5.646c1.882-1.045,6.481-1.254,6.481-1.254l4.6,1.254c0,0,3.346-18.608,14.846-17.772c11.5,0.837,14.427,4.6,15.054,7.109c0.628,2.509-2.619,14.879-10.663,17.981C299.706,449.928,282.77,444.073,281.934,442.609z"></path><path style="fill:#665951;stroke:#000000;stroke-linecap:round;stroke-linejoin:round;" d="M296.151,435.082l-4.182,2.928l-2.508-0.837c0,0,2.926-5.227,2.09-10.245c-0.837-5.018-4.81-24.671-4.81-24.671c0-1.465,7.736-3.138,12.964-0.838C296.569,412.71,295.733,434.455,296.151,435.082z"></path><circle cx="290.228" cy="406.855" r="1.29"></circle><circle cx="289.113" cy="406.855" r="1.29"></circle><circle cx="293.016" cy="407.136" r="1.289"></circle><circle cx="295.804" cy="407.204" r="1.289"></circle><path style="fill:#FFE5B6;stroke:#000000;stroke-linecap:round;stroke-linejoin:round;" d="M291.69,388.039l-6.551-3.346c0,0,8.781-4.321,12.545-2.371c3.206,2.371,5.297,4.602,5.297,4.602l-3.066,0.558C299.915,387.481,293.642,386.924,291.69,388.039z"></path><path style="fill:#6E6E6E;stroke:#000000;stroke-linecap:round;stroke-linejoin:round;" d="M312.042,311.933c0.418-0.418,3.206-1.396,3.903-2.371c0.696-0.975,1.951-6.97,2.369-7.943c0.418-0.977,1.533-1.814,1.533-1.814l-0.558-3.344c0,0-8.642,2.509-10.176,3.901c-1.533,1.396-3.205,8.085-3.205,8.085L312.042,311.933z"></path><path style="fill:#7E6C65;stroke:#000000;stroke-linecap:round;stroke-linejoin:round;" d="M308.139,306.636l-4.809,2.02c0,0-2.159-1.046-2.3-1.74c-0.14-0.699,1.047-2.301,1.047-2.301l5.714-2.091L308.139,306.636z"></path><path style="fill:#665951;stroke:#000000;stroke-linecap:round;stroke-linejoin:round;" d="M290.02,367.27l0.974,1.811c0,0,3.067-2.368,6.831-1.95s6.272,0.697,6.272,0.697l1.255-0.14l8.503-56.452c0,0-1.534-0.28-1.534-0.836c0-0.56,0.697-8.781,0.697-8.781l-5.993,0.836L290.02,367.27z"></path><path style="fill:#6E6E6E;stroke:#000000;stroke-linecap:round;stroke-linejoin:round;" d="M311.206,290.326c0,0,3.554-1.114,4.111-0.977c0.558,0.141,3.276,0.906,3.555,3.626c0.277,2.718-1.324,5.644-1.533,5.715c-0.209,0.069-4.391,1.394-4.391,1.394s-2.161-1.324-2.997-4.322C309.074,292.62,311.206,290.326,311.206,290.326z"></path><path style="fill:#7E6C65;stroke:#000000;stroke-linecap:round;stroke-linejoin:round;" d="M315.062,302.137c0,0-1.095,1.778,0.026,2.455c1.122,0.677,5.623-1.52,5.623-1.52l-0.741-2.32L315.062,302.137z"></path><path style="fill:#7E6C65;stroke:#000000;stroke-linecap:round;stroke-linejoin:round;" d="M321.381,297.924l-0.278-1.673c0,0,2.719-0.837,3.484-0.558c0.767,0.277,2.719,1.254,2.439,2.23c-0.278,0.976-1.324,1.88-1.324,1.88l-3.275,0.838L321.381,297.924z"></path><path style="fill:#7E6C65;stroke:#000000;stroke-linecap:round;stroke-linejoin:round;" d="M320.113,301.397l-0.105-1.691c0,0,2.79-0.553,3.523-0.195c0.734,0.357,2.574,1.527,2.198,2.469c-0.378,0.94-1.513,1.735-1.513,1.735l-3.344,0.495L320.113,301.397z"></path><path d="M304.654,376.679c-0.069,0.418-0.976,2.091,0.767,2.509s2.091-1.882,1.951-2.439c0.277-0.627,1.394-1.045,2.091,0.068c0.697,1.115,0.976,2.65,0.558,7.181c-0.418,4.528-1.185,12.613,3.206,14.564c4.391,1.953,5.576-0.835,6.203-1.882c-0.627-0.209-1.604,0.28-1.604,0.28s-1.045,2.021-3.623,0.417c-2.579-1.602-2.23-7.247-1.673-10.313c0.557-3.066,1.183-12.476-4.53-12.406C305.212,374.519,304.654,376.679,304.654,376.679z"></path><circle cx="318.314" cy="395.146" r="2.16"></circle><path d="M291.499,376.33c0.493-0.14,1.464-0.052,2.17,1.124c0.225,0.374-0.758,0.81-1.255,1.124c0,0-0.306-0.924-1.351-0.575c-1.044,0.349-1.882,4.53-2.16,6.97c-0.279,2.438-1.95,12.404-3.972,13.312c-1.256,0.975-4.462,2.508-4.739-1.256c0.767,0,1.95-0.349,1.95-0.349s-0.663,1.299,0.104,1.369c0.767,0.069,2.268-0.637,2.823-3.633c0.558-2.998,2.021-13.625,4.043-16.135C289.643,377.219,291.119,376.438,291.499,376.33z"></path><path d="M281.882,397.395c0-0.077,1.228-1.201,0.941-2.377c-0.288-1.178-1.281-1.047-1.884-0.549c-0.601,0.497-1.462,2.482-0.495,3.815C281.411,399.616,281.882,397.395,281.882,397.395z"></path><circle cx="292.989" cy="378.63" r="1.359"></circle><polyline style="fill:none;stroke:#000000;stroke-linecap:round;stroke-linejoin:round;" points="311.624,302.175 297.685,382.322 296.012,406.578 "></polyline><polyline style="fill:none;stroke:#000000;stroke-linecap:round;stroke-linejoin:round;" points="292.945,406.855 293.363,383.3 310.647,302.036 "></polyline><polyline style="fill:none;stroke:#000000;stroke-linecap:round;stroke-linejoin:round;" points="309.114,302.454 289.739,383.298 290.157,406.298 "></polyline><polyline style="fill:none;stroke:#000000;stroke-linecap:round;stroke-linejoin:round;" points="288.346,405.045 286.673,385.251 308.278,302.314 "></polyline><line style="fill:#7E6C65;stroke:#000000;stroke-linecap:round;stroke-linejoin:round;" x1="323.542" y1="363.506" x2="329.534" y2="367.688"></line><line style="fill:#7E6C65;stroke:#000000;stroke-linecap:round;stroke-linejoin:round;" x1="325.606" y1="362.124" x2="330.049" y2="365.583"></line><path style="fill:none;stroke:#000000;stroke-linecap:round;stroke-linejoin:round;" d="M274.824,394.242c0,0,1.394,1.394,1.115,3.206c-0.278,1.811-5.09,13.611-5.575,18.539c-0.488,4.948-1.046,16.237,11.152,24.044"></path><path style="fill:none;stroke:#000000;stroke-linecap:round;stroke-linejoin:round;" d="M332.394,393.822c0,0-2.23,3.555-1.464,7.039c0.767,3.485,4.451,11.431,3.692,19.934c-0.975,10.942-7.527,19.863-10.313,21.396"></path><path style="fill:none;stroke:#000000;stroke-linecap:round;stroke-linejoin:round;" d="M324.309,390.339c0,0-9.13-8.363-2.021-20.387c2.332-3.944,4.81-3.764,4.81-3.764s1.672-0.87,1.531-1.567c-0.138-0.697-0.418-5.228-0.486-5.437c-0.069-0.209,1.657-3.557,2.509-9.096c1.046-6.793-1.045-10.453-1.045-10.453"></path></g></g></svg>