<svg xmlns="http://www.w3.org/2000/svg" width="500" height="500" version="1.1"><g id="x013"><g><g><circle style="fill:#F0F0F0;stroke:#000000;stroke-linecap:round;stroke-linejoin:round;" cx="307.712" cy="375.157" r="10.939"></circle><circle style="fill:#FFFFFF;" cx="309.021" cy="368.724" r="2.691"></circle><path style="fill:none;stroke:#000000;stroke-linecap:round;stroke-linejoin:round;" d="M308.32,364.614c0.171,0.196-0.811,3.696-4.02,6.49s-6.787,2.915-6.787,2.915"></path><path style="fill:none;stroke:#000000;stroke-linecap:round;stroke-linejoin:round;" d="M307.318,385.284c-0.171-0.196,0.811-3.698,4.02-6.491c3.21-2.793,6.786-2.914,6.786-2.914"></path></g><g><path style="fill:none;stroke:#FF0000;stroke-linecap:round;stroke-linejoin:round;" d="M306.643,365.729l0.918,1.848c0.573-0.269,2.073,0.267,2.073,0.267"></path><path style="fill:none;stroke:#FF0000;stroke-linecap:round;stroke-linejoin:round;" d="M305.314,367.728l0.918,1.85c0.573-0.269,2.073,0.267,2.073,0.267"></path><path style="fill:none;stroke:#FF0000;stroke-linecap:round;stroke-linejoin:round;" d="M303.605,369.591l0.633,1.966c0.607-0.181,2.013,0.572,2.013,0.572"></path><path style="fill:none;stroke:#FF0000;stroke-linecap:round;stroke-linejoin:round;" d="M301.768,370.815l0.011,2.063c0.632,0.013,1.744,1.154,1.744,1.154"></path><path style="fill:none;stroke:#FF0000;stroke-linecap:round;stroke-linejoin:round;" d="M299.674,371.646l-0.392,2.024c0.617,0.136,1.486,1.473,1.486,1.473"></path></g><g><path style="fill:none;stroke:#FF0000;stroke-linecap:round;stroke-linejoin:round;" d="M316.751,377.342l-1.703-1.163c0.345-0.531,0.021-2.092,0.021-2.092"></path><path style="fill:none;stroke:#FF0000;stroke-linecap:round;stroke-linejoin:round;" d="M314.587,378.383l-1.704-1.164c0.345-0.53,0.022-2.091,0.022-2.091"></path><path style="fill:none;stroke:#FF0000;stroke-linecap:round;stroke-linejoin:round;" d="M312.506,379.817l-1.857-0.898c0.262-0.575-0.29-2.07-0.29-2.07"></path><path style="fill:none;stroke:#FF0000;stroke-linecap:round;stroke-linejoin:round;" d="M311.041,381.471l-2.043-0.296c0.075-0.629-0.901-1.887-0.901-1.887"></path><path style="fill:none;stroke:#FF0000;stroke-linecap:round;stroke-linejoin:round;" d="M309.931,383.428l-2.061,0.109c-0.048-0.631-1.251-1.674-1.251-1.674"></path></g></g></g></svg>