<svg xmlns="http://www.w3.org/2000/svg" width="500" height="500" version="1.1"><g id="x130"><g><g><g><path style="fill:#505050;stroke:#000000;stroke-linecap:round;stroke-linejoin:round;" d="M330.87,452.768c-0.854,1.586-3.171,2.318-4.391,1.221c-1.342,1.098-3.536-0.244-3.414-1.708c-2.194-1.829-1.098-5.487,1.22-6.585c3.048-3.292,5.73,0,5.73,0L330.87,452.768z"></path><g><g><path style="fill:#6E6E6E;stroke:#000000;stroke-linecap:round;stroke-linejoin:round;" d="M322.734,451.914c0.875-3.164,6.34-1.585,6.34-1.585s-0.121-8.168,6.829-13.169c6.828,0,9.389-0.121,9.389-0.121s2.562,0.121,9.389,0.121c6.95,5.001,6.828,13.169,6.828,13.169s5.467-1.579,6.341,1.585c1.586,5.732-2.926,10.486-2.926,10.486s-6.863,1.952-19.789,1.952c-12.925,0-19.475-1.952-19.475-1.952S321.149,457.646,322.734,451.914z"></path></g><g><g><path style="fill:#6E6E6E;stroke:#000000;stroke-linecap:round;stroke-linejoin:round;" d="M345.121,450.695c0,1.585,1.05,11.583-0.291,11.949c-1.342,0.366-7.072-9.145-7.438-11.583"></path></g><g><path style="fill:#6E6E6E;stroke:#000000;stroke-linecap:round;stroke-linejoin:round;" d="M345.463,450.695c0,1.585-1.048,11.583,0.292,11.949c1.342,0.366,7.073-9.145,7.438-11.583"></path></g></g></g></g><g><g><path style="fill:#6E6E6E;stroke:#000000;stroke-linecap:round;stroke-linejoin:round;" d="M369.235,412.327c0,0,7.642,0.325,9.104,10.08c3.089,3.25,2.926,10.078-2.438,13.33c1.462,3.089-2.602,12.032-11.219,7.154c-3.414,2.926-11.055,1.626-12.193-5.853C358.667,429.722,369.235,412.327,369.235,412.327z"></path><path style="fill:#6E6E6E;stroke:#000000;stroke-linecap:round;stroke-linejoin:round;" d="M321.351,412.327c0,0-7.643,0.325-9.104,10.08c-3.089,3.25-2.927,10.078,2.438,13.33c-1.464,3.089,2.601,12.032,11.217,7.154c3.414,2.926,11.056,1.626,12.194-5.853C331.917,429.722,321.351,412.327,321.351,412.327z"></path></g><g><path style="fill:#6E6E6E;stroke:#000000;stroke-linecap:round;stroke-linejoin:round;" d="M324.139,400.62c1.137-3.739,4.063-7.642,8.778-8.29c1.95-1.79,3.415-4.716,12.519-3.252c9.104-1.464,10.568,1.462,12.519,3.252c4.716,0.648,7.642,4.551,8.78,8.29c5.202,3.089,4.389,9.755,3.252,12.032c1.95,5.364,0,8.616-1.789,10.241c1.138,5.529-2.438,6.503-2.438,6.503s-2.602,9.268-20.323,9.268c-17.72,0-20.322-9.268-20.322-9.268s-3.576-0.974-2.438-6.503c-1.788-1.625-3.74-4.877-1.788-10.241C319.748,410.375,318.935,403.709,324.139,400.62z"></path><g><g><circle style="stroke:#000000;stroke-linecap:round;stroke-linejoin:round;" cx="356.453" cy="416.96" r="4.796"></circle><ellipse style="fill:#6E6E6E;" cx="358.131" cy="415.762" rx="1.737" ry="1.768"></ellipse><ellipse style="fill:#6E6E6E;" cx="354.542" cy="418.736" rx="1.11" ry="1.129"></ellipse></g><circle style="stroke:#000000;stroke-linecap:round;stroke-linejoin:round;" cx="334.418" cy="416.96" r="4.796"></circle><ellipse style="fill:#6E6E6E;" cx="335.229" cy="415.762" rx="1.737" ry="1.768"></ellipse><ellipse style="fill:#6E6E6E;" cx="332.351" cy="418.817" rx="1.11" ry="1.13"></ellipse></g><g><path style="fill:#6E6E6E;stroke:#000000;stroke-linecap:round;stroke-linejoin:round;" d="M356.251,408.466c0,0-3.089,3.25-6.179-0.977c0,0-1.34,2.358-4.449,2.358s-4.093-2.358-4.093-2.358c-3.089,4.227-6.176,0.977-6.176,0.977"></path></g><path style="fill:#DE4A42;stroke:#000000;stroke-linecap:round;stroke-linejoin:round;" d="M345.867,434.554c0.8,0.095,2.932,0.406,4.551,1.184c0,6.028-3.46,6.688-4.551,6.747c-1.091-0.06-4.553-0.719-4.553-6.747C342.935,434.96,345.066,434.648,345.867,434.554z"></path><g><path style="fill:#6E6E6E;stroke:#000000;stroke-linecap:round;stroke-linejoin:round;" d="M326.414,427.935c1.95-6.178,9.918-8.13,11.544-8.293c1.879-4.134,5.786-4.116,7.478-3.892c1.693-0.225,5.6-0.242,7.479,3.892c1.625,0.163,9.592,2.115,11.542,8.293c0.325,2.601,0.651,7.479-5.689,9.592c-6.053,2.018-8.848-2.332-13.332-2.731c-4.482,0.399-7.278,4.749-13.331,2.731C325.764,435.413,326.089,430.535,326.414,427.935z"></path><path style="fill:#505050;" d="M327.272,429.235c0,0,1.974,4.633,7.032,5.73c4.258,0.924,11.164-4.268,11.164-4.268s6.909,5.191,11.165,4.268c5.059-1.098,7.032-5.73,7.032-5.73s1.357,7.864-8.451,7.864c-4.748,0-9.746-3.231-9.746-3.231s-4.995,3.231-9.746,3.231C325.916,437.1,327.272,429.235,327.272,429.235z"></path><path style="fill:#383C44;stroke:#000000;stroke-linecap:round;stroke-linejoin:round;" d="M340.749,427.284c0.121-2.764,4.687-2.602,4.687-2.602s4.566-0.162,4.687,2.602c0.163,3.746-4.687,4.878-4.687,4.878S340.587,431.03,340.749,427.284z"></path></g></g></g></g></g></g></svg>