<svg xmlns="http://www.w3.org/2000/svg" width="500" height="500" version="1.1"><g id="x131"><g><g><path style="fill:#6E6E6E;stroke:#000000;stroke-linecap:round;stroke-linejoin:round;" d="M328.43,447.535c0,0-1.792-6.52-6.684-7.498c-0.489,2.444-1.14,3.423-1.14,3.423s-3.262-2.934-7.499-1.305c-0.979,6.357,3.261,13.205,10.597,11.573C328.43,450.469,328.43,447.535,328.43,447.535z"></path><g><g><g><g><path style="fill:#FFFFFF;stroke:#000000;stroke-linecap:round;stroke-linejoin:round;" d="M319.983,450.469c0.877-3.173,6.356-1.59,6.356-1.59s-0.12-8.189,6.847-13.203c6.847,0,9.414-0.123,9.414-0.123s2.567,0.123,9.414,0.123c6.969,5.014,6.847,13.203,6.847,13.203s5.479-1.583,6.356,1.59c1.59,5.745-2.934,10.513-2.934,10.513s-6.882,1.957-19.84,1.957c-12.961,0-19.527-1.957-19.527-1.957S318.395,456.214,319.983,450.469z"></path></g><g><g><path style="fill:#FFFFFF;stroke:#000000;stroke-linecap:round;stroke-linejoin:round;" d="M342.43,449.246c0,1.59,1.053,11.615-0.293,11.979c-1.346,0.367-7.092-9.168-7.458-11.612"></path></g><g><path style="fill:#FFFFFF;stroke:#000000;stroke-linecap:round;stroke-linejoin:round;" d="M342.773,449.246c0,1.59-1.053,11.615,0.293,11.979c1.344,0.367,7.09-9.168,7.457-11.612"></path></g></g></g></g></g></g><g><circle style="fill:#FFFFFF;stroke:#000000;stroke-linecap:round;stroke-linejoin:round;" cx="342.852" cy="415.178" r="25.779"></circle><path style="fill:#6E6E6E;" d="M330.506,393.746c0,0,8.889,22.518,6.915,27.259c-1.977,4.742-12.051,11.457-12.051,11.457s-6.124-5.137-8.494-13.234c-2.369-8.098,8.494-21.333,8.494-21.333S328.512,394.776,330.506,393.746z"></path><path style="fill:#6E6E6E;" d="M354.948,393.746c0,0-8.889,22.518-6.913,27.259c1.974,4.742,12.048,11.457,12.048,11.457s6.124-5.137,8.495-13.234c2.37-8.098-8.495-21.333-8.495-21.333S357.363,395.021,354.948,393.746z"></path><g><g><g><g><path d="M351.954,419.654c0,2.604,2.108,4.714,4.711,4.714c2.604,0,4.713-2.109,4.713-4.714c0-2.601-2.109-4.711-4.713-4.711C354.063,414.943,351.954,417.054,351.954,419.654z"></path><ellipse style="fill:#FFFFFF;" cx="358.314" cy="418.478" rx="1.708" ry="1.737"></ellipse></g><path d="M333.898,419.654c0,2.604-2.11,4.714-4.712,4.714c-2.604,0-4.714-2.109-4.714-4.714c0-2.601,2.11-4.711,4.714-4.711C331.788,414.943,333.898,417.054,333.898,419.654z"></path><ellipse style="fill:#FFFFFF;" cx="329.981" cy="418.478" rx="1.707" ry="1.737"></ellipse></g><g><path style="fill:#FFFFFF;stroke:#000000;stroke-linecap:round;stroke-linejoin:round;" d="M342.706,429.862c0,0-1.574,4.072-5.288,3.787c-3.716-0.288-4.144-4.146-4.144-4.146"></path><path style="fill:#FFFFFF;stroke:#000000;stroke-linecap:round;stroke-linejoin:round;" d="M343.475,429.862c0,0,1.574,4.072,5.29,3.787c3.714-0.288,4.144-4.146,4.144-4.146"></path></g><g><path style="fill:#383C44;stroke:#000000;stroke-linecap:round;stroke-linejoin:round;" d="M338.623,424.455c0.104-2.413,4.095-2.272,4.095-2.272s3.989-0.141,4.094,2.272c0.143,3.273-4.094,4.261-4.094,4.261S338.48,427.729,338.623,424.455z"></path></g></g></g><g><path style="fill:#6E6E6E;stroke:#000000;stroke-linecap:round;stroke-linejoin:round;" d="M327.109,396.709c0,0-4.347-3.951-8.495-2.963s-10.271,15.606-10.667,19.358c-6.32,5.926-8.098,12.84-5.331,20.741c1.422-0.79,4.541-4.741,4.541-4.741s0.396,5.332,3.357,6.321c1.187-2.767,1.976-5.136,1.976-5.136s2.765,7.109,7.902,8.099c1.976-6.32,2.566-27.261,0.986-31.605c0,0,1.58-2.767,3.557-2.963"></path><path style="fill:#6E6E6E;stroke:#000000;stroke-linecap:round;stroke-linejoin:round;" d="M358.639,396.709c0,0,4.344-3.951,8.492-2.963s10.272,15.606,10.667,19.358c6.32,5.926,8.101,12.84,5.334,20.741c0.783-2.238-4.544-4.741-4.544-4.741s-0.394,5.332-3.357,6.321c-1.186-2.767-1.976-5.136-1.976-5.136s-2.765,7.109-7.901,8.099c-1.975-6.32-2.567-27.261-0.987-31.605c0,0-1.58-2.765-3.557-2.963"></path></g></g></g></g></svg>