<svg xmlns="http://www.w3.org/2000/svg" width="500" height="500" version="1.1"><g id="x132"><g><g><g><g><path style="fill:#6E6E6E;stroke:#000000;stroke-linecap:round;stroke-linejoin:round;" d="M320.715,426.39c-0.71,1.897-2.203,6.282-2.3,9.861c-0.128,4.708,0.851,8.397,0.851,8.397s-2.09,4.567-0.944,9.02c1.146,4.453,5.438,7.569,10.781,7.569c6.935,1.304,9.32,1.399,14.632-0.891c2.439-1.052,5.854-6.792,5.98-12.645s-5.598-13.105-8.525-15.396c-0.085-1.715-1.383-4.202-2.766-5.917"></path><path style="fill:#505050;" d="M325.518,454.553c0,0,3.607,1.148,5.903,0.246c-1.229,3.854-3.279,4.92-3.279,4.92S325.518,458.652,325.518,454.553z"></path><path style="fill:#505050;" d="M319.614,431.431c0,0,1.804,3.607,8.773,3.607c6.969,0,10.987-5.985,10.987-5.985l-11.808,1.64l-7.134-0.819L319.614,431.431z"></path><g><path style="fill:#6E6E6E;stroke:#000000;stroke-linecap:round;stroke-linejoin:round;" d="M319.467,444.33c0,0,1.623,9.841,1.72,13.971c-0.426,0.179-1.832,0.889-2.102,2.559c-0.318,1.973,0.436,3.572,3.817,3.754c3.563,0.191,4.962-2.036,4.263-5.09c-0.105-0.064-0.21-0.12-0.314-0.179c0.017-1.613,0.101-10.863,0.378-13.36"></path><path style="fill:none;stroke:#000000;stroke-linecap:round;stroke-linejoin:round;" d="M321.172,463.9c0,0-0.03-0.457-0.036-0.981"></path><path style="fill:none;stroke:#000000;stroke-linecap:round;stroke-linejoin:round;" d="M324.123,463.9c0,0-0.03-0.457-0.035-0.981"></path></g><g><path style="fill:#6E6E6E;stroke:#000000;stroke-linecap:round;stroke-linejoin:round;" d="M329.328,446.048c0,0-0.53,10.445-0.835,13.398c-0.047,0.027-0.093,0.049-0.139,0.077c-0.7,3.054,0.699,5.281,4.263,5.09c3.382-0.182,4.135-1.781,3.817-3.754c-0.201-1.245-1.003-1.805-1.567-2.049c0.154-1.799,0.431-4.619,0.759-6.222c0.509-2.48,1.082-8.067,0.954-9.022"></path><path style="fill:none;stroke:#000000;stroke-linecap:round;stroke-linejoin:round;" d="M330.883,463.9c0,0-0.03-0.457-0.036-0.981"></path><path style="fill:none;stroke:#000000;stroke-linecap:round;stroke-linejoin:round;" d="M333.834,463.9c0,0-0.03-0.457-0.035-0.981"></path></g></g></g><g><path style="fill:#6E6E6E;stroke:#000000;stroke-linecap:round;stroke-linejoin:round;" d="M339.962,428.911c-0.722-0.896-1.463-1.619-2.113-2.017c2.182-1.039,4.802-2.442,5.216-4.976c1.1-6.731-0.073-10.203-0.073-10.203s2.159-10.796-0.925-11.876c-3.085-1.079-9.853,6.633-9.853,6.633s-5.205-1.004-7.981-0.155c-1.234-1.619-5.378-7.249-7.383-6.554c-2.005,0.693-0.771,12.569-0.771,12.569s-1.691,8.156-0.463,10.41c1.47,2.693,3.712,4.41,4.847,5.044c-0.045,0.107-0.207,0.51-0.438,1.124"></path><path style="fill:none;stroke:#000000;stroke-linecap:round;stroke-linejoin:round;" d="M319.935,427.448c0,0,1.388,1.311,4.473,1.851"></path><path style="fill:#FBCCCA;" d="M317.747,410.867c-0.311-0.076-0.787-7.49-0.254-8.713c0.571-1.312,5.271,4.241,5.209,5.09c-0.063,0.848-1.843,1.232-2.414,1.695S318.058,410.944,317.747,410.867z"></path><path style="fill:#FBCCCA;" d="M340.801,410.867c0.377-0.076,0.955-7.49,0.309-8.713c-0.694-1.312-6.4,4.241-6.323,5.09c0.076,0.848,2.236,1.232,2.93,1.695C338.41,409.402,340.424,410.944,340.801,410.867z"></path><g><g><circle style="fill:#FFFFFF;" cx="334.66" cy="416.96" r="3.586"></circle></g><circle cx="334.253" cy="416.569" r="2.377"></circle><circle style="fill:#FFFFFF;" cx="332.952" cy="415.825" r="0.464"></circle></g><g><g><circle style="fill:#FFFFFF;" cx="320.949" cy="416.96" r="3.586"></circle></g><circle cx="320.463" cy="416.569" r="2.377"></circle><circle style="fill:#FFFFFF;" cx="319.231" cy="415.825" r="0.465"></circle></g><g><path style="fill:none;stroke:#F5F5F5;stroke-linecap:round;stroke-linejoin:round;" d="M317.965,421.092c0,0-3.326-0.816-6.958,0.402"></path><path style="fill:none;stroke:#F5F5F5;stroke-linecap:round;stroke-linejoin:round;" d="M312.559,425.688c0,0,3.548-2.391,5.552-2.391"></path></g><g><path style="fill:none;stroke:#F5F5F5;stroke-linecap:round;stroke-linejoin:round;" d="M336.377,421.092c0,0,3.326-0.816,6.958,0.402"></path><path style="fill:none;stroke:#F5F5F5;stroke-linecap:round;stroke-linejoin:round;" d="M341.784,425.688c0,0-3.548-2.391-5.553-2.391"></path></g><g><ellipse style="fill:#FBCCCA;" cx="326.739" cy="419.7" rx="0.914" ry="0.527"></ellipse><g><path style="fill:none;stroke:#FBCCCA;stroke-linecap:round;stroke-linejoin:round;" d="M324.317,422.542c0,0,0,0.914,1.151,0.915c1.15,0.001,1.21-1.127,1.21-1.127"></path><path style="fill:none;stroke:#FBCCCA;stroke-linecap:round;stroke-linejoin:round;" d="M329.549,422.547c0,0,0,0.914-1.404,0.913c-1.405-0.001-1.478-1.13-1.478-1.13"></path></g></g></g><g><path style="fill:#FF0000;stroke:#000000;stroke-linecap:round;stroke-linejoin:round;" d="M319.623,427.599c0,0,3.627,1.241,9.066,1.241s10.02-2.481,10.02-2.481s1.24,1.146,1.05,1.718s-5.535,2.958-11.643,2.958c-6.106,0-8.493-1.24-8.493-1.24S318.479,428.458,319.623,427.599z"></path><g><path style="fill:#FF0000;stroke:#000000;stroke-linecap:round;stroke-linejoin:round;" d="M326.668,430.08c-0.478,0.668-4.009,6.394-4.581,5.534c-0.572-0.858-2.767-6.584-2.29-6.774C320.274,428.648,326.668,430.08,326.668,430.08z"></path><path style="fill:#FF0000;stroke:#000000;stroke-linecap:round;stroke-linejoin:round;" d="M326.695,430.08c0.478,0.668,4.009,6.394,4.581,5.534c0.572-0.858,2.768-6.584,2.29-6.774C333.09,428.648,326.695,430.08,326.695,430.08z"></path></g></g></g><path style="fill:#6E6E6E;stroke:#000000;stroke-linecap:round;stroke-linejoin:round;" d="M348.761,452.185c0,0,1.973,1.527,1.209,5.472c-0.596,3.076-6.14,10.357-15.142,10.942c-4.898,0.318-4.629-3.1-3.244-4.263c1.591-1.336,5.854-0.637,9.988-4.326s4.199-4.453,4.326-5.789"></path></g></g></svg>