<svg xmlns="http://www.w3.org/2000/svg" width="500" height="500" version="1.1"><g id="x133"><g><path style="fill:#CC6635;stroke:#000000;" d="M367.806,418.354l-5.101-6.803l-16.327-0.999v-0.021l-0.171,0.009l-0.17-0.009v0.021l-16.326,0.999l-5.103,6.803l5.783,4.421c0,0-7.652,32.731,15.986,32.731c23.638,0,15.646-32.731,15.646-32.731L367.806,418.354z"></path><g><g><g><path style="fill:#E4BC96;stroke:#000000;stroke-linecap:round;stroke-linejoin:round;" d="M326.564,440.122c0,0,4.931,3.063,6.973,6.72c2.041,3.655,2.127,7.354,1.956,9.863c-0.17,2.508-0.85,2.892-2.126,4.167c-1.275,1.276-7.481,2.296-9.438,2.211c-1.956-0.087-5.017-1.36-5.102-4.167c-0.087-2.807,3.315-3.741,4.931-4.421c1.616-0.681,2.467-2.382,2.467-2.382s-8.929-2.636-11.311-9.015c-2.38-6.376,0.596-11.394,6.549-11.733c5.952-0.34,8.077,1.701,8.077,1.701s9.674,9.947,7.887,16.581"></path><path style="fill:#CC6635;" d="M321.548,461.978c0,0,1.231,0.212,1.444-0.936c0.341,0.043,0.979,0.851,0.979,0.851l-0.085,0.893C323.886,462.785,321.93,462.402,321.548,461.978z"></path><path style="fill:#CC6635;" d="M325.222,454.069c0,0,6.955-0.766,6.273-1.956c-0.679,0.17-3.74,0.51-4.931,0.256C326.48,452.283,325.222,454.069,325.222,454.069z"></path><path style="fill:#E4BC96;stroke:#000000;stroke-linecap:round;stroke-linejoin:round;" d="M324.892,456.196c0,0-1.659,0.892-1.659,2.55s-0.229,4.618,2.96,4.618c3.188,0,4.438-2.066,4.438-3.342"></path><path style="fill:#CC6635;" d="M326.905,462.614c0,0,1.616-0.254,1.656-2.039c0.044-1.786,0.342,1.614,0.342,1.614s-0.554,0.553-2.339,0.851C326.396,462.742,326.905,462.614,326.905,462.614z"></path><path style="fill:#E4BC96;stroke:#000000;stroke-linecap:round;stroke-linejoin:round;" d="M329.865,456.196c0,0-1.275,0.764-1.275,2.805s-0.384,3.955,3.316,3.955c3.698,0,4.081-4.976,2.296-6.634"></path><path style="fill:#CC6635;" d="M334.43,457.344c0,0,0.469,3.188-0.807,3.741c-1.149,0.51-0.724,1.104-0.724,1.104l0.425,0.044C333.324,462.233,335.747,460.914,334.43,457.344z"></path><path style="fill:none;stroke:#000000;stroke-linecap:round;stroke-linejoin:round;" d="M325.886,451.942c0,0,3.314,0.638,5.738-0.382"></path></g><g><path style="fill:#F5F5F5;stroke:#000000;stroke-linecap:round;stroke-linejoin:round;" d="M322.339,460.616c0,1.456-1.954,2.636-2.678,2.636s-1.658-1.18-1.658-2.636c0-1.455,0.97-2.636,2.168-2.636C321.368,457.98,322.339,459.161,322.339,460.616z"></path></g><g><path style="fill:#F5F5F5;stroke:#000000;stroke-linecap:round;stroke-linejoin:round;" d="M327.835,460.616c0,1.456-1.819,2.636-2.424,2.636c-0.605,0-1.914-1.18-1.914-2.636c0-1.455,0.97-2.636,2.167-2.636C326.862,457.98,327.835,459.161,327.835,460.616z"></path><path style="fill:#9CA3BD;" d="M326.862,458.98c0,0,0.53,1.382-0.021,2.316c-0.553,0.937-1.703,1.573-2.126,1.148c0,0,0.467,0.425,0.723,0.467c0.255,0.043,1.615-1,1.871-1.615C327.563,460.681,327.437,459.703,326.862,458.98z"></path></g><g><path style="fill:#F5F5F5;stroke:#000000;stroke-linecap:round;stroke-linejoin:round;" d="M333.564,460.616c0,1.456-1.676,2.636-2.168,2.636c-0.495,0-2.169-1.18-2.169-2.636c0-1.455,0.971-2.636,2.169-2.636C332.593,457.98,333.564,459.161,333.564,460.616z"></path><path style="fill:#9CA3BD;" d="M332.22,458.662c0,0,0.638,1.063,0.382,2.252c-0.254,1.19-1.19,1.659-1.318,1.659c-0.127,0-0.765-0.34-0.765-0.34s0.511,0.594,0.851,0.637c0.341,0.042,1.913-1.063,1.827-2.381C333.113,459.17,332.22,458.662,332.22,458.662z"></path></g></g><g><g><path style="fill:#E4BC96;stroke:#000000;stroke-linecap:round;stroke-linejoin:round;" d="M365.185,440.122c0,0-4.933,3.063-6.974,6.719c-2.041,3.656-2.126,7.355-1.955,9.864c0.17,2.508,0.851,2.892,2.126,4.167c1.275,1.276,7.481,2.296,9.438,2.211c1.957-0.087,5.017-1.36,5.103-4.167s-3.316-3.741-4.933-4.421c-1.615-0.681-2.465-2.382-2.465-2.382s8.928-2.635,11.309-9.015c2.381-6.376-0.595-11.394-6.548-11.733c-5.952-0.34-8.077,1.701-8.077,1.701s-9.674,9.947-7.888,16.581"></path><path style="fill:#CC6635;" d="M370.201,461.978c0,0-1.233,0.212-1.446-0.936c-0.34,0.043-0.978,0.851-0.978,0.851l0.086,0.893C367.863,462.785,369.818,462.402,370.201,461.978z"></path><path style="fill:#CC6635;" d="M366.527,454.069c0,0-6.956-0.766-6.275-1.956c0.681,0.17,3.742,0.51,4.933,0.256C365.271,452.283,366.527,454.069,366.527,454.069z"></path><path style="fill:#E4BC96;stroke:#000000;stroke-linecap:round;stroke-linejoin:round;" d="M366.858,456.196c0,0,1.657,0.892,1.657,2.55s0.23,4.619-2.958,4.619s-4.439-2.067-4.439-3.343"></path><path style="fill:#CC6635;" d="M364.845,462.614c0,0-1.617-0.254-1.658-2.039c-0.043-1.786-0.34,1.614-0.34,1.614s0.553,0.553,2.338,0.851C365.354,462.742,364.845,462.614,364.845,462.614z"></path><path style="fill:#E4BC96;stroke:#000000;stroke-linecap:round;stroke-linejoin:round;" d="M361.885,456.196c0,0,1.275,0.764,1.275,2.805s0.382,3.955-3.317,3.955c-3.698,0-4.082-4.976-2.295-6.634"></path><path style="fill:#CC6635;" d="M357.317,457.344c0,0-0.467,3.188,0.809,3.741c1.148,0.51,0.723,1.104,0.723,1.104l-0.425,0.044C358.424,462.233,356,460.914,357.317,457.344z"></path><path style="fill:none;stroke:#000000;stroke-linecap:round;stroke-linejoin:round;" d="M365.863,451.942c0,0-3.314,0.64-5.738-0.382"></path></g><g><path style="fill:#F5F5F5;stroke:#000000;stroke-linecap:round;stroke-linejoin:round;" d="M369.409,460.616c0,1.456,1.956,2.636,2.679,2.636s1.657-1.18,1.657-2.636c0-1.455-0.971-2.636-2.167-2.636C370.38,457.98,369.409,459.161,369.409,460.616z"></path></g><g><path style="fill:#F5F5F5;stroke:#000000;stroke-linecap:round;stroke-linejoin:round;" d="M363.915,460.616c0,1.456,1.818,2.636,2.424,2.636c0.604,0,1.913-1.18,1.913-2.636c0-1.455-0.971-2.636-2.168-2.636C364.886,457.98,363.915,459.161,363.915,460.616z"></path><path style="fill:#9CA3BD;" d="M364.886,458.98c0,0-0.53,1.382,0.022,2.316c0.553,0.937,1.701,1.573,2.126,1.148c0,0-0.469,0.425-0.723,0.467c-0.256,0.043-1.616-1-1.872-1.615C364.184,460.681,364.313,459.703,364.886,458.98z"></path></g><g><path style="fill:#F5F5F5;stroke:#000000;stroke-linecap:round;stroke-linejoin:round;" d="M358.186,460.616c0,1.456,1.674,2.636,2.168,2.636c0.493,0,2.168-1.18,2.168-2.636c0-1.455-0.97-2.636-2.168-2.636C359.156,457.98,358.186,459.161,358.186,460.616z"></path><path style="fill:#9CA3BD;" d="M359.53,458.662c0,0-0.639,1.063-0.383,2.252c0.254,1.19,1.191,1.659,1.318,1.659s0.765-0.34,0.765-0.34s-0.51,0.594-0.851,0.637c-0.341,0.042-1.912-1.063-1.828-2.381C358.636,459.17,359.53,458.662,359.53,458.662z"></path></g></g></g><g><g><path style="fill:#E4BC96;stroke:#000000;" d="M331.583,409.342l-4.934,5.612l3.401,7.312c0,0,0.341,6.464,0.681,11.226c0.233,3.273,3.68,9.61,3.912,16.327c0.169,4.931,3.23,7.313,3.23,7.313l6.293,0.85c0,0-0.152-10.034-0.152-11.563c0-1.531-1.209-14.116-2.06-17.008c-0.85-2.892-0.339-8.673-0.339-8.673"></path><path style="fill:#CC6635;" d="M330.986,430.43c0,0,2.381-1.189,3.997-0.084c1.615,1.104,7.397,5.612,8.078,9.863c0,0-0.138-1.945-0.445-4.395c-0.513-4.091-1.319-9.594-1.427-9.807c-0.169-0.339-5.525-2.552-5.525-2.552l-3.659-1.105l-1.358,2.722l0.34,5.698"></path></g><g><g><path style="fill:#E4BC96;stroke:#000000;stroke-linecap:round;stroke-linejoin:round;" d="M342.768,451.247c0,0,1.212,3.758,1.349,3.697c0.4,6.979-5.338,8.688-10.724,8.288c-5.384-0.399-9.229,2.046-9.771-3.154c-0.542-5.201,4.257-5.329,6.252-6.127c1.994-0.798,4.369-3.038,4.369-3.038s2.042-1.357,3.389-0.461"></path><path style="fill:#CC6635;" d="M331.838,454.367c0,0-1.957-0.044-2.127,0.297c-0.171,0.341,0.127,0.936-0.299,2.424c-0.424,1.487-1.743,4.974-2.125,5.187c-0.382,0.214-0.34,0.724-0.34,0.724s0.553,0.211,2.594-0.086C331.582,462.614,331.838,454.367,331.838,454.367z"></path><path style="fill:#E4BC96;stroke:#000000;stroke-linecap:round;stroke-linejoin:round;" d="M337.952,454.937c0,0-2.165,2.114-1.966,4.107c0.2,1.994,0.621,4.786-2.771,4.786c-3.39,0-4.099-1.195-4.099-4.188c0-2.99,1.258-4.74,3.252-5.338"></path><path style="fill:#CC6635;" d="M337.365,455.43c0,0-0.469-0.893-1.447-0.978c-0.978-0.085-0.085,0.256-0.085,1.402c0,1.148-0.086,3.997-0.85,5.358c-0.766,1.36-0.935,2.039-0.935,2.039s0.595,0.213,1.784-1.104c1.191-1.319,1.573-6.549,1.573-6.549"></path><path style="fill:#E4BC96;stroke:#000000;stroke-linecap:round;stroke-linejoin:round;" d="M337.358,454.483c0,0-0.984,0.836-1.403,2.414c-0.33,1.249-0.097,3.214-0.208,4.426c-0.249,2.742,0.8,2.497,3.94,2.497s5.384-4.338,4.188-9.275"></path></g><path style="fill:#FFFFFF;stroke:#000000;stroke-linecap:round;stroke-linejoin:round;" d="M327.925,460.319c0,2.325-2.7,4.209-3.614,4.209c-0.913,0-2.592-1.884-2.592-4.209s1.389-4.21,3.103-4.21C326.536,456.109,327.925,457.994,327.925,460.319z"></path><path style="fill:#FFFFFF;stroke:#000000;stroke-linecap:round;stroke-linejoin:round;" d="M334.983,460.404c0,2.325-2.659,4.21-3.614,4.21c-0.957,0-2.595-1.885-2.595-4.21c0-2.323,1.39-4.208,3.105-4.208C333.593,456.196,334.983,458.081,334.983,460.404z"></path><path style="fill:#FFFFFF;stroke:#000000;stroke-linecap:round;stroke-linejoin:round;" d="M342.297,460.064c0,2.324-2.042,4.209-3.105,4.209c-1.063,0-3.104-1.885-3.104-4.209c0-2.325,1.391-4.21,3.104-4.21C340.906,455.854,342.297,457.739,342.297,460.064z"></path></g></g><g><g><path style="fill:#E4BC96;stroke:#000000;" d="M360.578,409.342l4.932,5.612l-3.401,7.312c0,0-0.34,6.464-0.681,11.226c-0.233,3.273-3.68,9.61-3.911,16.327c-0.169,4.931-3.232,7.313-3.232,7.313l-6.292,0.85c0,0,0.154-10.034,0.154-11.563c0-1.531,1.207-14.116,2.058-17.008s0.339-8.673,0.339-8.673"></path><path style="fill:#CC6635;" d="M361.174,430.43c0,0-2.381-1.189-3.997-0.084c-1.616,1.104-7.398,5.612-8.079,9.863c0,0,0.138-1.945,0.445-4.395c0.514-4.091,1.319-9.594,1.425-9.807c0.172-0.339,5.527-2.552,5.527-2.552l3.659-1.105l1.358,2.722l-0.339,5.697"></path></g><g><g><path style="fill:#E4BC96;stroke:#000000;stroke-linecap:round;stroke-linejoin:round;" d="M349.392,451.247c0,0-1.212,3.758-1.35,3.697c-0.399,6.979,5.34,8.688,10.725,8.288c5.384-0.399,9.229,2.046,9.771-3.154c0.543-5.201-4.256-5.329-6.25-6.127c-1.996-0.798-4.371-3.038-4.371-3.038s-2.042-1.357-3.389-0.461"></path><path style="fill:#CC6635;" d="M360.323,454.367c0,0,1.955-0.044,2.126,0.297c0.17,0.341-0.128,0.936,0.297,2.424c0.426,1.487,1.742,4.974,2.126,5.187c0.382,0.214,0.34,0.724,0.34,0.724s-0.553,0.211-2.593-0.086C360.578,462.614,360.323,454.367,360.323,454.367z"></path><path style="fill:#E4BC96;stroke:#000000;stroke-linecap:round;stroke-linejoin:round;" d="M354.207,454.937c0,0,2.166,2.114,1.966,4.107c-0.2,1.994-0.621,4.786,2.771,4.786c3.39,0,4.1-1.195,4.1-4.188c0-2.99-1.258-4.74-3.252-5.338"></path><path style="fill:#CC6635;" d="M354.796,455.43c0,0,0.467-0.893,1.445-0.978c0.978-0.085,0.085,0.256,0.085,1.402c0,1.148,0.084,3.997,0.851,5.358c0.766,1.36,0.935,2.039,0.935,2.039s-0.595,0.213-1.785-1.104c-1.189-1.319-1.573-6.549-1.573-6.549"></path><path style="fill:#E4BC96;stroke:#000000;stroke-linecap:round;stroke-linejoin:round;" d="M354.802,454.483c0,0,0.983,0.836,1.402,2.414c0.331,1.248,0.098,3.214,0.206,4.426c0.251,2.742-0.796,2.497-3.938,2.497c-3.141,0-5.384-4.338-4.188-9.275"></path></g><path style="fill:#FFFFFF;stroke:#000000;stroke-linecap:round;stroke-linejoin:round;" d="M364.234,460.319c0,2.325,2.7,4.209,3.614,4.209s2.594-1.884,2.594-4.209s-1.391-4.21-3.104-4.21C365.625,456.109,364.234,457.994,364.234,460.319z"></path><path style="fill:#FFFFFF;stroke:#000000;stroke-linecap:round;stroke-linejoin:round;" d="M357.177,460.404c0,2.325,2.658,4.21,3.613,4.21c0.957,0,2.594-1.885,2.594-4.21c0-2.323-1.388-4.208-3.104-4.208C358.566,456.196,357.177,458.081,357.177,460.404z"></path><path style="fill:#FFFFFF;stroke:#000000;stroke-linecap:round;stroke-linejoin:round;" d="M349.864,460.064c0,2.324,2.041,4.209,3.104,4.209s3.104-1.885,3.104-4.209c0-2.325-1.391-4.21-3.104-4.21C351.253,455.854,349.864,457.739,349.864,460.064z"></path></g></g><g><path style="fill:#A81426;stroke:#000000;" d="M322.058,420.438c0,0,10.842,16.583,24.235,16.583c13.393,0,22.321-15.562,22.321-15.562l-22.321-9.311L322.058,420.438z"></path></g><g><path style="fill:#323232;stroke:#000000;" d="M335.536,424.01c0,0-2.297-2.679-4.464,0.766c-2.169,3.442-1.532,6.505,1.273,6.759c2.807,0.256,3.318-1.657,3.318-1.657L335.536,424.01z"></path><path style="fill:#A81426;" d="M330.179,428.857c-0.004-0.128,0.382,1.083,1.594,0.765c1.213-0.319,2.168-3.253,2.168-3.253s-0.319,1.339,0.064,2.488c-0.254,1.083-1.977,2.372-1.977,2.372S330.243,430.835,330.179,428.857z"></path></g><g><g id="leftXMLID_20_"><g><path style="fill:#6E6E6E;" d="M386.35,380.52c0.113,0.173,3.828,5.713,4.275,12.243c0.453,6.637-4.026,21.937-4.026,21.937l-5.611-13.522c0,0,0.511,6.38-1.203,14.999c-1.715,8.623-12.829,21.735-12.829,21.735l-3.826-13.265c0,0-1.2,3.343-3.664,6.843c-2.465,3.502-13.174,11.269-13.174,11.269s-9.27-7.228-12.828-11.01c-3.56-3.782-5.027-8.119-5.027-8.119l-0.767,13.774c0,0-9.691-10.458-12.824-19.689c-3.077-9.073-1.268-16.28-1.207-16.526l-6.12,14.021c0,0-4.336-14.285-3.541-21.678c0.784-7.282,4.198-12.839,4.303-13.012l-8.671,3.823c0,0,8.928-12.372,10.459-16.074c1.532-3.696,2.553-11.989,7.4-16.834c4.847-4.847,11.989-4.083,11.989-4.083s8.671-6.121,17.855-6.121s17.857,6.121,17.857,6.121s8.164,0.253,11.991,4.591c3.826,4.337,3.826,10.205,7.396,16.326c3.573,6.122,10.46,16.074,10.46,16.074L386.35,380.52z"></path></g><path style="fill:#505050;" d="M305.051,389.784c0,0,0.342,7.481,2.552,11.396c2.21,3.91,9.354-8.931,8.844-7.146c-0.51,1.786-2.552,18.241,5.611,26.021c0,0,0.383-11.863,3.316-10.97c2.935,0.894,19.771,8.547,19.771,8.547s16.837-5.996,19.131-7.271c2.298-1.275,4.211-1.02,4.467,6.252c0.254,7.269,0.254,5.102,0.254,5.102s12.585-17.135,9.355-27.509c0,0,6.632,10.713,7.822,10.713s3.741-6.803,3.741-6.803s-1.446,7.739-1.871,9.44c-0.426,1.7-1.614,5.865-1.614,5.865l-4.338-10.288c0,0-1.275-2.636-1.36-1.87c-0.086,0.766,0.441,11.515-2.789,19.337c-3.232,7.822-10.817,16.462-10.817,16.462l-3.485-12.059c0,0-0.511-1.616-1.021,0c-0.114,0.365-1.047,3.88-4.745,7.708c-4.409,4.565-11.597,9.531-11.597,9.531s-7.18-5.264-11.807-10.042c-3.846-3.971-5.368-7.642-5.524-8.148c0,0-0.597-1.616-0.851-0.087c-0.256,1.531-0.766,12.519-0.766,12.519s-8.758-10.221-11.394-16.854c-2.637-6.634-2.977-12.925-2.213-17.432c0,0,0.256-2.041-0.339-1.191c-0.596,0.851-5.782,12.992-5.782,12.992S302.331,396.501,305.051,389.784z"></path><g><path style="fill:none;stroke:#000000;stroke-linecap:round;stroke-linejoin:round;" d="M386.35,380.52l8.667,3.823c0,0-6.887-9.952-10.46-16.074c-3.569-6.121-3.569-11.989-7.396-16.326c-3.827-4.338-11.991-4.591-11.991-4.591s-8.673-6.121-17.857-6.121s-17.855,6.121-17.855,6.121s-7.143-0.764-11.989,4.083c-4.848,4.845-5.868,13.138-7.4,16.834c-1.531,3.702-10.459,16.074-10.459,16.074s8.671-3.823,8.675-3.826c0,0,0,0-0.004,0.003c-0.104,0.173-3.519,5.729-4.303,13.012c-0.795,7.393,3.541,21.678,3.541,21.678s6.12-14.021,6.123-14.029l-0.003,0.008c-0.061,0.246-1.87,7.453,1.207,16.526c3.133,9.231,12.824,19.689,12.824,19.689l0.767-13.774c0,0,1.468,4.337,5.027,8.119c3.559,3.782,12.828,11.01,12.828,11.01s10.709-7.767,13.174-11.269c2.464-3.5,3.664-6.843,3.664-6.843l3.826,13.265c0,0,11.114-13.112,12.829-21.735c1.714-8.619,1.203-14.999,1.203-14.999l5.611,13.522c0,0,4.479-15.3,4.026-21.937c-0.447-6.53-4.162-12.07-4.279-12.246L386.35,380.52z"></path></g></g><path style="opacity:0.3;fill:#FFFFFF;" d="M310.067,381.025c0,0-1.193,5.952-1.361,8.589c-0.169,2.635-0.169,6.845-0.169,6.845l7.399-9.568c0,0-4.748,4.467-5.563,4.083C309.557,390.592,310.067,381.025,310.067,381.025z"></path><path style="opacity:0.3;fill:#FFFFFF;" d="M384.165,381.025c0,0,1.194,5.953,1.362,8.588c0.169,2.636,0.169,6.846,0.169,6.846l-7.398-9.568c0,0,4.748,4.467,5.563,4.083C384.675,390.592,384.165,381.025,384.165,381.025z"></path><path style="opacity:0.3;fill:#FFFFFF;" d="M337.619,351.562l2.893,7.156l1.955,4.832c0,0,3.086-7.142,4.029-7.142c0.944,0,3.496,7.396,3.496,7.396l6.633-11.861c0,0-5.23,7.016-6.505,7.016c-1.276,0-3.625-6.506-3.625-6.506s-2.881,6.506-3.774,6.506S337.619,351.562,337.619,351.562z"></path></g><g><g><path style="fill:#E4BC96;stroke:#000000;" d="M328.736,349.951c1.267,1.438-0.215,3.008-2.592,4.23c-1.885,0.972-4.331,1.48-6.415,3.271c-2.181,1.874-3.19,4.521-4.635,6.475c-1.541,2.085-3.478,3.381-4.6,2.11c-4.44-5.037-3.959-12.722,1.078-17.163C316.61,344.433,324.295,344.915,328.736,349.951z"></path><path style="fill:#CC6635;stroke:#000000;" d="M319.729,357.605c-2.727,2.347-4.106,6.898-5.423,5.407c-2.687-3.047-2.395-7.693,0.65-10.381c3.046-2.688,7.693-2.397,10.382,0.65C326.711,354.836,322.574,355.153,319.729,357.605z"></path></g><g><path style="fill:#E4BC96;stroke:#000000;" d="M365.342,349.951c-1.268,1.438,0.216,3.008,2.592,4.23c1.884,0.972,4.332,1.48,6.416,3.272c2.179,1.873,3.189,4.52,4.634,6.474c1.54,2.085,3.478,3.381,4.6,2.11c4.439-5.038,3.958-12.72-1.078-17.163C377.469,344.433,369.784,344.915,365.342,349.951z"></path><path style="fill:#CC6635;stroke:#000000;" d="M374.349,357.605c2.726,2.347,4.107,6.898,5.423,5.407c2.688-3.047,2.396-7.693-0.651-10.381c-3.045-2.688-7.693-2.397-10.382,0.65C367.366,354.836,371.505,355.153,374.349,357.605z"></path></g></g><g><path style="fill:#E4BC96;stroke:#000000;" d="M372.738,406.961c3.401-5.953-3.567-19.467-3.567-19.467l5.735-0.2l-4.003-7.939l4.727-8.447l-9.847,2.232l-1.208-14.647c0,0-13.267,14.628-17.518,14.628c-4.252,0-17.518-14.628-17.518-14.628l-1.207,14.647l-9.847-2.232l4.907,8.868l-4.099,7.708l5.649,0.011c0,0-6.288,12.494-3.566,19.467c2.721,6.973,18.111,16.157,25.851,16.157C354.966,423.118,369.337,412.913,372.738,406.961z"></path><g><circle style="fill:#CC6635;" cx="324.738" cy="405.122" r="1.437"></circle><circle style="fill:#CC6635;" cx="331.33" cy="405.46" r="1.437"></circle><circle style="fill:#CC6635;" cx="328.288" cy="400.052" r="1.437"></circle></g><g><circle style="fill:#CC6635;" cx="370.035" cy="405.122" r="1.436"></circle><circle style="fill:#CC6635;" cx="363.443" cy="405.459" r="1.437"></circle><circle style="fill:#CC6635;" cx="366.485" cy="400.052" r="1.437"></circle></g><g><path style="fill:#CC6635;" d="M338.101,383.066c0,0,2.722,3.655,2.977,4.422c0.255,0.766-1.786,4.082-1.786,4.082L338.101,383.066z"></path><path style="fill:#FFFFFF;stroke:#000000;" d="M328.129,378.652c-1.934,1.85-3.209,5.021-3.209,8.623c0,5.706,3.197,10.331,7.144,10.331c3.944,0,7.143-2.074,7.143-7.78c0-1.289-0.164-2.654-0.463-3.992L328.129,378.652z"></path><circle cx="334.538" cy="388.499" r="2.226"></circle><path style="fill:none;stroke:#000000;stroke-linecap:round;stroke-linejoin:round;" d="M336.146,379.579c2.381,4.082,4.25,6.464,4.25,6.464s1.131,0.938,2.935,1.501"></path></g><g><path style="fill:#CC6635;" d="M355.503,383.066c0,0-2.723,3.655-2.977,4.422c-0.255,0.766,1.785,4.082,1.785,4.082L355.503,383.066z"></path><path style="fill:#FFFFFF;stroke:#000000;" d="M365.475,378.652c1.933,1.85,3.208,5.021,3.208,8.623c0,5.706-3.197,10.331-7.143,10.331c-3.944,0-7.144-2.074-7.144-7.78c0-1.289,0.165-2.654,0.464-3.992L365.475,378.652z"></path><circle cx="359.065" cy="388.499" r="2.227"></circle><path style="fill:none;stroke:#000000;stroke-linecap:round;stroke-linejoin:round;" d="M357.459,379.579c-2.382,4.082-4.253,6.464-4.253,6.464s-1.131,0.938-2.933,1.501"></path></g><g><path style="fill:none;stroke:#000000;stroke-linecap:round;stroke-linejoin:round;" d="M372.313,407.641c0,0,0.936-2.04,1.021-2.637c0,0,0.68-4.846-4.338-9.863"></path></g><g><path style="fill:none;stroke:#000000;stroke-linecap:round;stroke-linejoin:round;" d="M322.048,407.641c0,0-0.937-2.04-1.021-2.637c0,0-0.681-4.846,4.337-9.863"></path></g><g><line style="fill:none;stroke:#000000;stroke-linecap:round;stroke-linejoin:round;" x1="346.789" y1="408.575" x2="346.789" y2="412.658"></line><g><path style="fill:#E4BC96;stroke:#000000;stroke-linecap:round;stroke-linejoin:round;" d="M341.305,394.546c0,0-2.805,8.673-1.785,9.948c1.021,1.277,2.295,4.081,6.888,4.081c4.592,0,6.633-2.294,7.652-3.443c1.02-1.147-1.785-10.485-1.785-10.485"></path><path style="fill:#CC6635;stroke:#000000;stroke-linecap:round;stroke-linejoin:round;" d="M354.06,404.622c0,1.62-3.254,4.464-7.271,4.464c-4.014,0-7.27-2.844-7.27-4.464c0-1.621,3.256-0.383,7.27-0.383C350.806,404.239,354.06,403.001,354.06,404.622z"></path></g><g><path style="fill:none;stroke:#000000;stroke-linecap:round;stroke-linejoin:round;" d="M329.58,411.637c0,0-2.892,2.211,0.425,3.147"></path><path style="fill:none;stroke:#000000;stroke-linecap:round;stroke-linejoin:round;" d="M363.999,411.637c0,0,2.892,2.211-0.425,3.147"></path><g><path style="fill:#F5F5F5;stroke:#000000;stroke-linecap:round;stroke-linejoin:round;" d="M363.798,414.545c-0.68,0.851-12.533,2.551-17.296,2.551s-16.156-1.7-16.837-2.551s9.864-1.87,16.837-1.87S364.479,413.694,363.798,414.545z"></path><path style="fill:#9CA3BD;" d="M335.618,413.678c0,0-1.021,0.511-0.341,1.021c0.68,0.51,2.976,1.189,2.976,1.189s-4.761-0.084-7.397-1.614C330.855,414.274,335.107,413.509,335.618,413.678z"></path><path style="fill:#9CA3BD;" d="M357.472,413.678c0,0,1.02,0.511,0.341,1.021c-0.681,0.51-2.977,1.189-2.977,1.189s4.762-0.084,7.397-1.614C362.233,414.274,357.981,413.509,357.472,413.678z"></path><polyline style="fill:none;stroke:#000000;stroke-linecap:round;stroke-linejoin:round;" points="329.643,414.404 332.386,415.209 333.789,414.699 336.978,414.826 338.445,414.315 342.335,415.337 346.672,414.188 351.264,415.337 355.346,414.315 356.621,414.826 359.811,414.699 361.021,415.146 363.19,414.38 "></polyline></g></g><path style="fill:#CC6635;" d="M342.75,419.121c0,0,1.871,0.255,3.826,0.255c1.956,0,4.253-0.511,4.253-0.511s-2.806,1.871-4.422,1.871C344.793,420.736,342.75,419.121,342.75,419.121z"></path></g></g></g></g></svg>