<svg xmlns="http://www.w3.org/2000/svg" width="500" height="500" version="1.1"><g id="x134"><g><g><path style="fill:#6E6E6E;stroke:#000000;stroke-linecap:round;stroke-linejoin:round;" d="M329.095,434.184c0,0,3.027,12.281,15.349,13.371c35.515,3.147,33.462-42.03,33.462-42.03s-9.511,6.474-26.428,4.742C334.817,408.562,329.095,434.184,329.095,434.184z"></path><path style="fill:#505050;" d="M371.734,425.793c5.081-7.085,4.887-12.593,4.887-12.593s-1.127,26.329-19.39,32.16c-17.573,5.607-27.237-6.467-27.237-6.467l0.29-6.605c0,0,10.131,8.451,26.261,5.549C363.061,436.668,369.043,430.35,371.734,425.793z"></path><path style="fill:#F0F0F0;stroke:#000000;stroke-linejoin:round;" d="M355.276,411.095c14.513-0.009,22.2-5.105,22.2-5.105s0.271,15.066-5.844,27.046c0,0,0.674-6.986-0.493-10.973c-2.043,3.871-9.017,8.463-9.017,8.463s2.43-6.319,3.176-10.937c-3.735-0.777-9.082-0.341-9.082-0.341s2.01-3.67,3.702-5.24C358.26,412.731,355.276,411.095,355.276,411.095z"></path><path style="fill:#B5B5B5;" d="M372.417,424.124c1.807-2.584,2.795-8.629,3.835-11.218c0,0-0.545,8.501-3.598,15.909L372.417,424.124z"></path></g><g><path style="fill:#505050;stroke:#000000;stroke-linejoin:round;" d="M320.108,447.768c0.688,1.538,4.668,12.458,4.668,12.458s0.113,3.869,1.936,3.945c3.901,0.163,3.651-3.287,3.651-3.287l-0.875-5.151c0,0,1.491,0.439,2.997,0.502c1.479,0.062,3.205-0.054,3.205-0.054l-1.232,4.544c0,0-0.225,3.556,3.994,3.732c2.146,0.089,1.45-3.787,1.45-3.787s5.715-12.049,5.82-12.87c0.281-2.25-1.343-13.867-1.343-13.867l-22.64-1.18C321.74,432.753,319.592,446.623,320.108,447.768z"></path><path style="fill:#F0F0F0;stroke:#000000;stroke-linejoin:round;" d="M327.864,432.109l16.547,1.094c0,0,6.743,8.571,6.146,13.825c-1.851-0.831-4.814-0.598-4.814-0.598s0.628,3.042-1.428,7.106c-3.237-3.718-5.255-5.123-5.255-5.123s-4.095,3.226-4.382,5.663c-5.31,0.016-7.71-5.74-7.71-5.74s-3.442,1.88-8.11,0.741c0.494-2.809,1.907-5.01,1.907-5.01s-4.352,0.383-6.132-2.145C320.341,440.656,327.864,432.109,327.864,432.109z"></path><path style="fill:#B5B5B5;" d="M349.957,446.375c0,0,0.511-3.245-4.204-10.733l-1.58,1.693c0,0-0.164,3.307-1.609,5.464c-1.476,2.199-5.271,2.796-7.159,5.858c-1.947,3.159-1.197,4.603-1.197,4.603s1.795-3.823,4.879-5.453c0,0,4.387,3.327,4.956,4.732c0,0,2.055-4.062,0.899-6.5C344.941,446.039,348.356,445.553,349.957,446.375z"></path><path style="fill:#B5B5B5;" d="M325.948,440.344c0,0-3.417,0.549-4.174,5.136c0.063-0.062,6.201-3.983,8.142-3.838L325.948,440.344z"></path></g><g><g><path style="fill:#6E6E6E;stroke:#000000;stroke-linejoin:round;" d="M360.673,431.561c-2.991-0.948-5.536-2.85-7.066-3.849c0.957-6.859,0.729-14.955-0.557-17.332c-2.165-4.012-4.406-9.36-14.631-11.474c-9.103-1.883-18.801,3.811-21.839,7.872c-1.46,1.954-2.896,9.752-3.646,16.481c-1.165,1.334-3.295,3.343-5.802,3.66c1.175,2.895,4.479,7.91,12.153,10.737c3.498,2.57,13.476,4.626,15.604,4.468c2.766-0.209,8.229-1.121,11.815-2.839C352.045,438.697,357.382,435.243,360.673,431.561z"></path></g><g><path d="M324.128,424.557c-0.116,2.811-1.222,5.044-2.47,4.991c-1.247-0.052-2.161-2.369-2.044-5.179c0.118-2.813,1.224-5.047,2.47-4.994C323.332,419.427,324.246,421.745,324.128,424.557z"></path><path style="fill:#F5F5F5;" d="M321.592,423.807c0.027,0.342-0.23,0.642-0.575,0.666c-0.341,0.027-0.639-0.231-0.668-0.573c-0.023-0.344,0.235-0.643,0.576-0.666C321.269,423.206,321.565,423.464,321.592,423.807z"></path><path style="fill:#505050;" d="M330.276,413.798c1.124-0.347-0.139-1.534-1.252-1.563c-1.116-0.024-2.172,2.114-2.172,2.114S329.151,414.143,330.276,413.798z"></path></g><g><path d="M347.649,427.238c-0.116,2.808-1.225,5.041-2.472,4.989c-1.246-0.052-2.164-2.372-2.046-5.178c0.117-2.812,1.224-5.044,2.472-4.991C346.851,422.108,347.768,424.427,347.649,427.238z"></path><circle style="fill:#F5F5F5;" cx="344.573" cy="425.61" r="0.691"></circle><path style="fill:#505050;" d="M340.612,415.399c-0.997-0.534,0.414-1.422,1.47-1.237c1.056,0.179,1.657,2.392,1.657,2.392S341.606,415.932,340.612,415.399z"></path></g><g><path style="fill:#505050;" d="M329.38,429.026c-0.445-0.91,2.585-3.244,3.813-3.244c1.229,0.005,4.387,3.007,3.765,3.525C336.335,429.828,329.824,429.938,329.38,429.026z"></path><path d="M334.886,429.809c-0.051,0.853-1.514,1.813-2.097,1.756c-0.612-0.058-2.073-1.153-2.021-2.007c0.053-0.853,0.91-0.965,2.048-0.895C333.95,428.732,334.938,428.958,334.886,429.809z"></path><path style="fill:#F5F5F5;" d="M332.721,429.107c0.017,0.131-0.34,0.278-0.792,0.327c-0.452,0.051-0.834-0.019-0.848-0.149c-0.014-0.133,0.343-0.28,0.798-0.329C332.328,428.909,332.707,428.978,332.721,429.107z"></path></g><g><path style="fill:none;stroke:#000000;stroke-linecap:round;stroke-linejoin:round;" d="M328.858,434.821c0,0,2.559,1.395,3.951-0.754c1.729,2.196,4.054,1.28,4.054,1.28"></path></g><g><path style="fill:#6E6E6E;stroke:#000000;stroke-linejoin:round;" d="M348.747,404.924c0,0,4.069-1.799,8.108-0.651c5.294,1.503,10.618,7.902,13.963,8.082c-1.782,5.445-5.847,10.087-10.438,12.364c-3.798,1.883-7.589,1.269-7.589,1.269"></path><path style="fill:#F0F0F0;" d="M366.755,413.604c0,0-2.827-0.937-4.39-2.271c-1.563-1.334-3.475-2.654-5.331-2.584c-1.856,0.072-3.34,0.825-3.34,0.825s4.621,2.265,5.456,5.834c0,0-4.111-1.119-5.03-0.851c0,0,3.212,1.966,3.307,4.403c0,0-1.303-1.022-3.044-0.957c0,0,0.485,1.245,0.217,4.482c0,0,2.871,0.979,7.416-2.074C366.456,417.432,366.755,413.604,366.755,413.604z"></path><path style="fill:#B5B5B5;" d="M366.755,413.718c0,0-2.666-0.715-5.073-2.82c-1.504-1.318-5.784-3.361-7.782-1.398c0,0,4.753,2.708,5.124,5.837c0,0-3.423-0.748-4.671-0.575c0,0,2.739,2.597,3.183,4.275c0,0-1.994-1.18-3.183-0.944l0.532,2.303c0,0,2.195-0.083,3.424,0.813c0,0-0.53-2.306-2.005-4.7c0,0,3.038,0.576,4.28,1.849c0,0,0.205-2.837-1.515-5.095c0.228,0.106,3.961,1.021,4.751,1.011C365.848,414.24,366.755,413.718,366.755,413.718z"></path><path style="fill:none;stroke:#000000;stroke-linecap:round;stroke-linejoin:round;" d="M354.332,422.365c0.737-2.425-0.078-4.356-0.078-4.356s1.271-0.136,3.185,1.187c-0.811-2.874-3.318-4.638-3.318-4.638s2.206-0.086,5.039,1.084c-1.464-4.826-5.465-6.067-5.465-6.067s3.382-2.307,6.996,0.543c4.917,3.88,6.518,3.238,6.518,3.238"></path></g><g><path style="fill:#6E6E6E;stroke:#000000;stroke-linejoin:round;" d="M330.674,399.307c0,0-1.838-3.088-5.654-4.868c-4.423-2.063-11.099-3.829-14.144-5.551c-2.396,3.328-5.076,14.611-2.411,21.591c1.678,4.399,5.705,7.255,5.705,7.255"></path><path style="fill:#F0F0F0;" d="M314.799,412.262c0,0-4.414-1.496-4.478-8.626c-0.066-7.326,2.066-10.182,2.066-10.182s1.882,1.513,3.551,1.74c1.669,0.229,7.388,0.582,7.748,5.389c0,0-5.604-2.245-8.034-0.059c0,0,3.031,1.422,4.652,2.598c0,0-3.708,0.866-5.027,2.146c0,0,2.533,0.755,3.219,2.001C318.496,407.269,315.385,409.034,314.799,412.262z"></path><path style="fill:#B5B5B5;" d="M314.5,396.928c-2.038-1.07-2.131-3.24-2.131-3.24s3.126,1.401,6.695,1.953c3.568,0.553,5.133,5.472,5.133,5.472s-6.041-3.324-9.155-0.32c0,0,3.037,0.215,5.466,2.361c0,0-3.734,0.703-5.23,2.114c0,0,2.038,0.645,3.015,1.893l-2.236,2.118c0,0-0.16-2.126-2.719-2.69c0.387-1.539,3.712-2.547,3.712-2.547c0.582,0.374-1.749-2.314-5.16-1.628c0.741-1.881,3.898-3.44,5.635-3.823C316.824,397.697,315.552,397.479,314.5,396.928z"></path><path style="fill:none;stroke:#000000;stroke-linecap:round;stroke-linejoin:round;" d="M312.236,392.996c0,0,1.205,1.735,5.488,2.419c5.832,0.929,6.473,5.697,6.473,5.697s-5.216-3.08-8.91-0.444c3.112,0.592,5.381,2.544,5.381,2.544s-3.585,0.978-5.391,2.056c2.382,0.294,3.219,2.001,3.219,2.001s-2.593,1.228-3.466,5.302"></path></g></g></g></g></svg>