<svg xmlns="http://www.w3.org/2000/svg" width="500" height="500" version="1.1"><g id="x135"><g><path style="fill:#505050;stroke:#000000;stroke-linecap:round;stroke-linejoin:round;" d="M299.678,381.903c0,0-3.482-4.41-4.173-4.679c-0.687-0.268-1.61,1.396-1.61,1.396l-2.105-2.958c0,0,2.151-2.774,3.949-2.196c1.797,0.58,6.314,6.306,6.314,6.306L299.678,381.903z"></path><path style="fill:none;stroke:#000000;stroke-linecap:round;stroke-linejoin:round;" d="M298.112,375.381c0,0-1.736,0.431-2.301,2.25"></path><g><g><path style="fill:#6E6E6E;stroke:#000000;stroke-linecap:round;stroke-linejoin:round;" d="M315.016,383.151l-15.039,16.387c0,0-1.176,0.316-2.256-1.035c-1.08-1.351-0.889-1.951-0.889-1.951l15.607-16.98L315.016,383.151z"></path><polygon style="fill:#505050;" points="313.186,384.409 311.448,386.249 309.155,383.979 311.016,381.852 "></polygon><path style="fill:none;stroke:#000000;stroke-linecap:round;stroke-linejoin:round;" d="M298.354,395.303c0,0-0.435,0.723,0.891,2.165c0.729,0.794,1.763,0.722,1.763,0.722"></path></g><g><path style="fill:#6E6E6E;stroke:#000000;stroke-linecap:round;stroke-linejoin:round;" d="M312.028,380.067l-15.038,16.387c0,0-1.175,0.317-2.254-1.034c-1.084-1.353-0.889-1.951-0.889-1.951l15.604-16.98L312.028,380.067z"></path><polygon style="fill:#505050;" points="310.416,381.188 308.678,383.028 306.385,380.758 308.246,378.63 "></polygon><path style="fill:none;stroke:#000000;stroke-linecap:round;stroke-linejoin:round;" d="M295.299,392.115c0,0-0.434,0.723,0.892,2.165c0.73,0.794,1.763,0.721,1.763,0.721"></path></g><path style="fill:#6E6E6E;stroke:#000000;stroke-linecap:round;stroke-linejoin:round;" d="M309.042,376.979l-15.036,16.389c0,0-1.176,0.319-2.256-1.033c-1.081-1.353-0.889-1.953-0.889-1.953l15.605-16.979L309.042,376.979z"></path><polygon style="fill:#505050;" points="307.646,377.966 305.908,379.807 303.615,377.536 305.476,375.408 "></polygon><path style="fill:none;stroke:#000000;stroke-linecap:round;stroke-linejoin:round;" d="M292.324,389.1c0,0-0.434,0.723,0.892,2.163c0.729,0.794,1.763,0.723,1.763,0.723"></path></g><g><path style="fill:#6E6E6E;stroke:#000000;stroke-linecap:round;stroke-linejoin:round;" d="M318.404,379.494c0,0,1.285-1.059,1.377-1.54c0.094-0.479-0.328-1.74-0.328-1.74l1.922-2.254c0,0,1.854,1.183,2.078,0.913c0.223-0.272,1.115-1.102,1.119-1.349c0.004-0.253-0.539-1.059-1.695-2.168c-1.154-1.112-2.453-1.376-2.453-1.376l-1.091,1.372l0.563,1.277l-1.855,2.357c0,0-1.147-0.442-1.688-0.283c-0.539,0.16-1.479,1.355-1.479,1.355L318.404,379.494z"></path><path style="opacity:0.5;fill:#FFFFFF;" d="M323.143,374.457l0.824-0.974c0,0-1.041-1.701-2.318-2.45C322.463,372.468,323.143,374.457,323.143,374.457z"></path><path style="fill:#6E6E6E;stroke:#000000;stroke-linecap:round;stroke-linejoin:round;" d="M315.334,376.236c0,0,1.282-1.059,1.377-1.538c0.095-0.48-0.328-1.743-0.328-1.743l1.92-2.252c0,0,1.855,1.184,2.079,0.912c0.224-0.268,1.117-1.1,1.12-1.35c0.004-0.248-0.541-1.055-1.697-2.164c-1.155-1.112-2.451-1.378-2.451-1.378l-1.092,1.373l0.564,1.277l-1.856,2.358c0,0-1.15-0.444-1.689-0.283c-0.538,0.158-1.479,1.354-1.479,1.354L315.334,376.236z"></path><path style="opacity:0.5;fill:#FFFFFF;" d="M320.131,371.166l0.824-0.974c0,0-1.041-1.701-2.318-2.45C319.451,369.177,320.131,371.166,320.131,371.166z"></path><path style="fill:#6E6E6E;stroke:#000000;stroke-linecap:round;stroke-linejoin:round;" d="M312.262,372.98c0,0,1.285-1.058,1.379-1.537c0.092-0.482-0.329-1.74-0.329-1.74l1.924-2.257c0,0,1.851,1.183,2.075,0.914c0.225-0.271,1.115-1.1,1.12-1.351c0.003-0.251-0.542-1.058-1.696-2.165c-1.154-1.11-2.453-1.378-2.453-1.378l-1.091,1.374l0.562,1.277l-1.855,2.359c0,0-1.147-0.446-1.687-0.286c-0.539,0.163-1.48,1.356-1.48,1.356L312.262,372.98z"></path><path style="opacity:0.5;fill:#FFFFFF;" d="M317.053,367.949l0.824-0.974c0,0-1.041-1.701-2.318-2.45C316.373,365.96,317.053,367.949,317.053,367.949z"></path></g><path style="fill:#6E6E6E;stroke:#000000;stroke-linecap:round;stroke-linejoin:round;" d="M295.227,357.483c6.994,1.121,22.056,23.463,51.74,45.011c-4.026,1.372-15.947,11.141-15.947,11.141s-4.389-16.155-19.314-33.962c-9.725-11.594-14.303-17.461-17.73-17.72c-2.805,1.45-6.021,4.775-5.164,8.146c1.689,4.534,6.504,10.414,8.687,12.948l-2.655,2.861c-2.335-2.505-10.952-10.736-10.332-17.167C284.377,363.772,292.73,357.08,295.227,357.483z"></path><path style="fill:#505050;" d="M330.473,410.343c0,0-4.105-10.542-7.812-15.658c7.362,6.314,11.331,12.722,11.331,12.722l-3.771,3.102"></path><path style="opacity:0.5;fill:#FFFFFF;" d="M336.551,406.059c0,0,3.576-3.355,2.504-5.263c-4.82-4.199-21.295-21.795-21.295-21.795s26.773,23.067,27.253,23.465C345.493,402.866,336.551,406.059,336.551,406.059z"></path><g><path style="fill:#505050;stroke:#000000;stroke-linecap:round;stroke-linejoin:round;" d="M306.504,391.159c0,0-0.002-1.368,0.648-1.969c1.386-1.279,2.641,0.293,2.641,0.293s7.605,8.562,8.41,10.063c0.916,1.714,0.024,4.276-1.905,5.41c-1.929,1.134-4.615,0.347-6.769-2.276c-2.156-2.625-6.713-6.985-6.734-7.23c-0.023-0.249-0.707-1.38,0.285-2.27c0.883-0.788,1.925-0.304,1.925-0.304s6.739,7.771,7.145,8.108c0.407,0.332,0.911,1.284,2.059,0.263c0.819-0.726,0.096-1.668,0.096-1.668L306.504,391.159z"></path><path style="fill:none;stroke:#000000;stroke-linecap:round;stroke-linejoin:round;" d="M310.781,390.734c0,0-1.735,0.431-2.3,2.248"></path></g><g><ellipse transform="matrix(-0.6655 -0.7464 0.7464 -0.6655 263.9704 951.157)" style="fill:#6E6E6E;stroke:#000000;stroke-linecap:round;stroke-linejoin:round;" cx="345.107" cy="416.432" rx="14.82" ry="20.403"></ellipse><path style="fill:none;stroke:#000000;stroke-linecap:round;stroke-linejoin:round;" d="M360.344,404.737c-5.224-5.86-15.996-4.78-24.063,2.41c-8.063,7.189-10.369,17.771-5.145,23.628"></path><path style="opacity:0.5;fill:#FFFFFF;" d="M354.262,402.379c0,0,5.955,2.181,6.676,8.559c1.119,9.917-7.318,16.929-7.318,16.929s10.469-7.926,8.771-18.845C361.697,404.571,354.262,402.379,354.262,402.379z"></path><path style="fill:#505050;" d="M351.816,421.689c-5.012,5.28-11.989,7.327-15.59,4.577c-3.6-2.752-2.46-9.257,2.551-14.535c5.01-5.273,11.988-7.323,15.589-4.572C357.966,409.908,356.824,416.416,351.816,421.689z"></path><g><path d="M338.427,427.366c-3.052-3.212-1.45-9.495,3.583-14.034c5.031-4.539,11.586-5.618,14.64-2.408c1.423,1.495,1.822,3.658,1.349,6.005c1.489-3.822,1.272-7.544-0.992-9.921c-3.838-4.036-12.074-2.684-18.395,3.021c-6.32,5.708-8.336,13.604-4.498,17.638c2.497,2.624,6.85,2.956,11.331,1.311C342.627,429.544,340.035,429.055,338.427,427.366z"></path><path d="M341.33,411.594c-3.582,2.665-5.58,6.529-4.459,8.631c1.115,2.106,4.929,1.653,8.509-1.011c3.586-2.662,5.583-6.523,4.464-8.629S344.912,408.932,341.33,411.594z"></path></g></g><path style="fill:#6E6E6E;stroke:#000000;stroke-linecap:round;stroke-linejoin:round;" d="M301.746,390.216"></path><path style="fill:#6E6E6E;stroke:#000000;stroke-linecap:round;stroke-linejoin:round;" d="M290.76,353.77c0,0-1.127-3.215-1.695-3.594c-0.564-0.38-4.377,1.678-4.158,3.511c1.842,1.717,3.082,2.428,3.082,2.428L290.76,353.77z"></path><g><path style="fill:#6E6E6E;stroke:#000000;stroke-linecap:round;stroke-linejoin:round;" d="M303.802,391.83c0,0-1.476,0.437-2.065,1.104c-0.592,0.665-0.248,1.668-0.248,1.668s10.43,12.791,12.894,12.532c2.463-0.257,12.566-9.804,12.931-12.045c0.365-2.242-37.117-41.697-37.117-41.697s-0.777-0.28-1.686,0.538c-0.907,0.815-0.87,1.442-0.87,1.442s35.46,38.73,35.437,39.777c-0.024,1.043-7.473,8.823-8.611,8.326C313.325,402.979,303.802,391.83,303.802,391.83z"></path><path style="fill:none;stroke:#000000;stroke-linecap:round;stroke-linejoin:round;" d="M308.685,397.8c0,0-1.735,0.432-2.3,2.25"></path><path style="fill:none;stroke:#000000;stroke-linecap:round;stroke-linejoin:round;" d="M307.862,396.542c0,0-1.735,0.432-2.299,2.25"></path><path style="fill:none;stroke:#000000;stroke-linecap:round;stroke-linejoin:round;" d="M302.341,366.536c0,0-1.735,0.429-2.3,2.248"></path><path style="fill:none;stroke:#000000;stroke-linecap:round;stroke-linejoin:round;" d="M301.53,365.465c0,0-1.735,0.429-2.3,2.248"></path><path style="fill:none;stroke:#000000;stroke-linecap:round;stroke-linejoin:round;" d="M292.75,356.065c0,0-1.736,0.431-2.302,2.248"></path><path style="fill:none;stroke:#000000;stroke-linecap:round;stroke-linejoin:round;" d="M291.873,355.147c0,0-1.736,0.431-2.301,2.248"></path></g></g></g></svg>