<svg xmlns="http://www.w3.org/2000/svg" width="500" height="500" version="1.1"><g id="x136"><g><path style="fill:#6E6E6E;stroke:#000000;stroke-linecap:round;stroke-linejoin:round;" d="M322.272,407.594l-42.629-120.848c0,0-1.125-4.286-6.049-3.374c-4.923,0.914-3.82,5.827-3.82,5.827l41.149,122.422L322.272,407.594z"></path><path style="fill:#505050;stroke:#000000;stroke-linecap:round;stroke-linejoin:round;" d="M316,448.333c0,0-5.021-5.007-7.871-14.503c-2.741-9.132,2.826-17.069,2.826-17.069s-1.167-3.545-0.691-5.455c3.094-4.833,10.582-5.182,11.969-4.65c1.39,0.533,4.679,4.275,4.899,6.426c3.375,0.973,15.266,6.72,18.497,22.578C339.837,438.76,316,448.333,316,448.333z"></path><g><path style="fill:#FFFFFF;stroke:#000000;stroke-linecap:round;stroke-linejoin:round;" d="M317.75,458.75c-3.75-6.25-5.696-12.628-5.913-16.72c-0.101-1.937,5.292-9.02,11.836-12.861c6.681-3.921,15.527-3.577,16.242-3.241c8.512,3.999,12.479,7.878,18.633,20.185c2.406,5.014,10.229,17.047,14.841,18.249c-5.615,2.608-25.669,7.438-29.639,8.139C340.34,473.101,322.273,466.288,317.75,458.75z"></path><path style="fill:#E4E0F3;" d="M313.701,442.111c0,0-2.201,24.889,27.299,27.639c-8.127-6.501-23.324-23.685-21.541-35.946C315.583,436.589,313.701,442.111,313.701,442.111z"></path><g><path d="M335,469.667c0,0-4.13-2.697-4.13-9.114c2.408,0,10.029,0.801,10.029,0.801s-7.221-7.22-4.814-8.823c2.408-1.605,10.027,2.406,10.027,2.406s-4.813-10.027-2.807-11.231c2.005-1.204,9.627,6.818,9.627,6.818s1.422-9.612-0.183-14.023c7.735,8.522,7,12.75,9.407,16.832c1.878,3.185,10.429,10.829,16.847,10.829s56.155,4.813,44.522,6.417c-11.631,1.605-18.852,3.21-23.263,2.408c-4.413-0.803-24.067-0.401-30.084,0C364.162,473.387,337.406,474.479,335,469.667z"></path><path d="M414.854,476.14c0,0,12.033-3.208,15.242-2.809c3.208,0.401,19.253,0.401,15.242,3.611c-4.01,3.209-14.039,5.214-18.05,4.411C423.277,480.551,414.854,476.14,414.854,476.14z"></path><path d="M401.466,478.601c0,0,6.419-2.004,9.226-1.604c2.808,0.401,8.424,0.401,6.819,2.406C415.905,481.409,404.675,481.409,401.466,478.601z"></path></g></g></g></g></svg>