<svg xmlns="http://www.w3.org/2000/svg" width="500" height="500" version="1.1"><g id="x137"><g><g><path style="fill:#6E6E6E;stroke:#000000;stroke-linecap:round;stroke-linejoin:round;" d="M308.714,388.531c-1.837,0-3.326,1.489-3.326,3.325v2.661c0,1.837,1.489,3.326,3.326,3.326s3.326-1.489,3.326-3.326v-2.661C312.04,390.021,310.551,388.531,308.714,388.531z M310.29,393.857c0,0.926-0.706,1.676-1.576,1.676s-1.576-0.75-1.576-1.676v-1.341c0-0.925,0.706-1.675,1.576-1.675s1.576,0.75,1.576,1.675V393.857z"></path><path style="fill:#6E6E6E;stroke:#000000;stroke-linecap:round;stroke-linejoin:round;" d="M311.54,397.336c-1.707,0.682-2.537,2.617-1.856,4.323l0.986,2.471c0.682,1.706,2.616,2.537,4.323,1.856c1.705-0.682,2.537-2.617,1.855-4.323l-0.986-2.471C315.182,397.486,313.245,396.655,311.54,397.336z M314.979,401.699c0.343,0.859-0.034,1.817-0.842,2.14c-0.81,0.323-1.742-0.111-2.086-0.972l-0.497-1.244c-0.343-0.859,0.035-1.818,0.843-2.141s1.742,0.112,2.085,0.971L314.979,401.699z"></path><path style="fill:#6E6E6E;stroke:#000000;stroke-linecap:round;stroke-linejoin:round;" d="M312.876,407.599c-1.415-1.172-3.512-0.976-4.684,0.439l-1.696,2.049c-1.173,1.415-0.976,3.512,0.438,4.685c1.416,1.171,3.513,0.974,4.685-0.441l1.697-2.049C314.488,410.867,314.29,408.771,312.876,407.599z M310.692,412.706c-0.592,0.713-1.613,0.84-2.283,0.285c-0.671-0.555-0.734-1.583-0.146-2.297l0.855-1.031c0.59-0.712,1.612-0.84,2.282-0.285c0.671,0.555,0.735,1.583,0.146,2.295L310.692,412.706z"></path><path style="fill:#6E6E6E;stroke:#000000;stroke-linecap:round;stroke-linejoin:round;" d="M310.009,390.176c0,0.639-0.517,1.155-1.155,1.155l0,0c-0.639,0-1.155-0.517-1.155-1.155v-2.73c0-0.639,0.517-1.155,1.155-1.155l0,0c0.639,0,1.155,0.517,1.155,1.155V390.176z"></path><path style="fill:#6E6E6E;stroke:#000000;stroke-linecap:round;stroke-linejoin:round;" d="M313.179,399.116c0.374,0.519,0.256,1.239-0.262,1.613l0,0c-0.518,0.373-1.239,0.256-1.612-0.262l-2.997-3.896c-0.373-0.518-0.256-1.239,0.262-1.612l0,0c0.519-0.374,1.24-0.257,1.612,0.262L313.179,399.116z"></path><path style="fill:#6E6E6E;stroke:#000000;stroke-linecap:round;stroke-linejoin:round;" d="M312.921,408.78c-0.146,0.621-0.769,1.006-1.39,0.859l0,0c-0.621-0.146-1.006-0.768-0.86-1.389l0.977-4.818c0.146-0.621,0.768-1.006,1.389-0.859l0,0c0.622,0.146,1.007,0.769,0.86,1.389L312.921,408.78z"></path></g><g><path style="fill:#505050;stroke:#000000;stroke-linecap:round;stroke-linejoin:round;" d="M317.83,377.066c1.108-1.673,1.756-3.675,1.756-5.832c0-5.734-4.554-10.396-10.241-10.59v2.977c4.043,0.192,7.265,3.522,7.265,7.613c0,3.571-2.456,6.562-5.77,7.395c1.226,0.819,2.45,1.662,3.674,2.614c0.063-0.118,4.563-1.326,5.02-1.956C319.865,378.828,318.563,377.664,317.83,377.066z"></path><g><g><path style="fill:#6E6E6E;stroke:#000000;stroke-linecap:round;stroke-linejoin:round;" d="M308.978,378.867c-4.217,0-7.634-3.417-7.634-7.633c0-4.215,3.417-7.632,7.634-7.632c0.124,0,1.383-0.07,1.383-1.506c0-1.437-1.259-1.471-1.383-1.471c-5.859,0-10.609,4.75-10.609,10.608c0,3.431,1.636,6.473,4.162,8.412l-0.03-0.009c0,0,1.619,2.49,1.715,3.605c0.104,1.227,0.14,3.186,1.121,3.677c0.979,0.49,3.642,0.386,3.642,0.386s2.66,0.104,3.642-0.386c0.98-0.491,1.998-7.677,1.417-8.088C313.393,378.376,309.622,378.867,308.978,378.867z"></path><circle style="fill:#505050;stroke:#000000;stroke-linecap:round;stroke-linejoin:round;" cx="308.731" cy="362.096" r="0.735"></circle></g><path d="M309.895,382.88v-2.302h-1.66v2.302c-0.454,0.284-0.773,0.765-0.773,1.339c0,0.885,0.718,1.604,1.604,1.604s1.604-0.719,1.604-1.604C310.668,383.645,310.349,383.164,309.895,382.88z"></path></g></g><g><path style="fill:#6E6E6E;stroke:#000000;stroke-linecap:round;stroke-linejoin:round;" d="M307.371,416.356c-0.354,0.53-1.072,0.673-1.603,0.317l0,0c-0.53-0.355-0.672-1.073-0.316-1.603l1.52-2.27c0.355-0.53,1.073-0.672,1.604-0.316l0,0c0.53,0.355,0.672,1.072,0.317,1.603L307.371,416.356z"></path><g><path style="fill:#505050;stroke:#000000;stroke-linecap:round;stroke-linejoin:round;" d="M294.049,417.844c-1.873,0.717-3.564,1.97-4.818,3.724c-3.334,4.667-2.336,11.106,2.179,14.571l1.729-2.422c-3.178-2.506-3.864-7.089-1.486-10.419c2.077-2.905,5.813-3.91,8.992-2.662c-0.52-1.38-1.026-2.777-1.469-4.264c-0.119,0.061-4.484-1.573-5.221-1.326C293.417,415.227,293.801,416.932,294.049,417.844z"></path><g><g><path style="fill:#6E6E6E;stroke:#000000;stroke-linecap:round;stroke-linejoin:round;" d="M302.3,421.524c3.432,2.451,4.225,7.217,1.774,10.647c-2.451,3.43-7.218,4.225-10.648,1.773c-0.101-0.072-1.166-0.747-2,0.421c-0.835,1.169,0.17,1.929,0.271,2c4.768,3.406,11.393,2.303,14.799-2.465c1.994-2.791,2.433-6.217,1.503-9.263l0.021,0.024c0,0,0.129-2.968,0.7-3.931c0.627-1.06,1.738-2.674,1.225-3.644c-0.512-0.969-2.738-2.432-2.738-2.432s-2.104-1.631-3.188-1.803c-1.083-0.17-6.088,5.085-5.854,5.757C298.422,419.357,301.775,421.15,302.3,421.524z"></path><circle style="fill:#505050;stroke:#000000;stroke-linecap:round;stroke-linejoin:round;" cx="292.75" cy="435.314" r="0.735"></circle></g><path d="M303.887,417.727l-1.339,1.872l1.351,0.966l1.338-1.874c0.535,0.033,1.074-0.172,1.408-0.639c0.516-0.721,0.348-1.723-0.373-2.237c-0.72-0.516-1.722-0.348-2.236,0.372C303.701,416.654,303.682,417.23,303.887,417.727z"></path></g></g></g></g></g></svg>