<svg xmlns="http://www.w3.org/2000/svg" width="500" height="500" version="1.1"><g id="x138"><g><g><g><polygon style="fill:#E3DEDE;stroke:#000000;stroke-linecap:round;stroke-linejoin:round;" points="463.724,482.254 478.167,481.191 473.259,467.567 370.059,389.783 328.938,369.014 324.954,366.427 310.971,387.97 314.954,390.556 350.663,419.659 "></polygon><polygon style="fill:#8C8C8C;" points="473.946,478.949 469.151,468.033 472.683,467.689 477.243,480.759 "></polygon><polygon style="fill:#FFFFFF;" points="463.955,481.772 463.23,479.308 474.523,478.827 477.434,480.717 "></polygon><polygon style="opacity:0.5;fill:#FFFFFF;" points="350.837,418.979 463.955,481.772 462.956,478.959 351.474,417.23 "></polygon><g><polygon style="fill:#6E6E6E;stroke:#000000;stroke-linecap:round;stroke-linejoin:round;" points="462.601,478.891 474.523,478.827 469.731,467.91 367.895,391.267 332.125,373.167 328.682,370.931 316.6,389.541 320.043,391.777 351.138,417.078 "></polygon><polygon style="fill:#505050;" points="367.341,392.301 328.917,373.674 323.59,380.852 319.201,388.638 351.859,416.152 "></polygon></g><g><g><g><path style="fill:#F5D957;stroke:#000000;stroke-linecap:round;stroke-linejoin:round;" d="M384.852,408.819c-1.135-1.069-4.699-1.72-7.02-1.731c0,0-1.002,3.338-2.195,3.895c-0.701-0.457-1.626-3.385-2.444-3.915c-0.817-0.53-2.753-0.624-2.95-1.085c-0.2-0.461,0.12-2.745-0.745-3.974c-0.428-0.108-4.688-0.716-6.526,0.582c1.287,0.836,2.346,5.348,2.346,5.348s-4.551,0.867-5.838,0.033c-0.436,2.208,1.851,5.853,2.125,6.198c1.473,0.29,3.43-0.933,3.932-0.938c0.503-0.006,1.375,1.721,2.194,2.253c0.816,0.531,3.867,0.184,4.568,0.639c-0.022,1.315-2.662,3.591-2.662,3.591c0.955,2.115,3.002,5.105,4.438,5.707c-0.464-3.126,0.744-5.501,2.55-6.487c0.322,1.038,1.763,4.966,1.763,4.966s5.802,0.275,8.525,1.713c2.725,1.435,13.739,10.579,14.097,11.31c3.323-0.004,8.852-0.07,8.852-0.07s-2.188-5.077-3.539-8.115c-0.814-0.028-13.649-6.367-16.07-8.271c-2.42-1.902-5.035-7.089-5.035-7.089s-4.171,0.282-5.253,0.41C380.131,411.738,381.806,409.669,384.852,408.819z"></path><path style="fill:#F5D957;stroke:#000000;stroke-linecap:round;stroke-linejoin:round;" d="M461.662,464.828c0,0-6.862-1.463-14.584-6.974c-3.178-2.27-4.345-4.315-4.072-7.296c-2.098-0.863-5.732-0.896-5.732-0.896l-0.239,2.671l-3.583-2.161l-2.313,0.492l0.493,2.313l3.433,2.394l-2.344,1.306c0,0,1.51,3.306,3.152,4.87c2.612-1.463,4.954-1.231,8.322,0.75c8.177,4.809,12.306,10.479,12.306,10.479s3.647,1.04,4.918,3.691c2.938,0.079,8.771-0.456,8.771-0.456s-1.887-5.543-3.155-8.195C464.095,467.735,461.662,464.828,461.662,464.828z"></path><path style="fill:#F5D957;stroke:#000000;stroke-linecap:round;stroke-linejoin:round;" d="M418.742,437.632l-8.868-5.921l1.272,5.976l-5.976,1.271l9.018,5.689c0,0,3.304-0.351,3.997-0.397c0.695-0.046,5.297,3.105,7.197,6.832c1.713,0.946,7.158,0.492,7.158,0.492s-1.803-5.158-3.363-6.337c-4.179-0.22-8.931-3.139-9.171-3.793C419.768,440.791,418.742,437.632,418.742,437.632z"></path></g><g><g><path style="fill:#DBA117;" d="M365.525,409.278l-3.471,0.739c0,0-0.253,3.076,0.222,3.883c2.365-0.958,3.638-1.378,3.638-1.378S365.947,410.55,365.525,409.278z"></path><path style="fill:#DBA117;" d="M373.774,424.604c0,0-0.489-2.063,0.473-3.93c0.964-1.867,2.508-2.196,2.508-2.196l-1.068-1.938c0,0-1.929,0.41-2.97,2.144C371.673,420.415,372.735,423.515,373.774,424.604z"></path><path style="fill:#DBA117;" d="M368.051,414.989c0,0,1.073-0.632,1.316-1.389c0.243-0.758,0.277-1.066,0.277-1.066s3.32,2.82,3.018,3.288C370.996,415.571,368.638,415.621,368.051,414.989z"></path><path style="fill:#DBA117;" d="M378.862,423.421c0,0,2.346-2.718,2.887-2.781c2.278,1.48,5.643,4.745,5.469,4.63C387.043,425.156,382.693,423.664,378.862,423.421z"></path><path style="fill:#DBA117;" d="M401.272,436.387l5.783,0.182l-8.265-5.447C398.791,431.121,400.41,435.412,401.272,436.387z"></path><path style="fill:#DBA117;" d="M414.319,444.192l4.091-0.419l-4.675-3.034C413.735,440.739,414.754,443.395,414.319,444.192z"></path><path style="fill:#DBA117;" d="M425.823,450.663c0,0,2.018,0.728,4.259,0.604c-1.97-1.445-3.218-2.339-3.218-2.339S426.284,450.463,425.823,450.663z"></path><path style="fill:#DBA117;" d="M435.864,460.92c0,0,3.285-1.606,6.145-0.25c-3.006-2.283-4.365-2.749-4.365-2.749S435.902,459.2,435.864,460.92z"></path><path style="fill:#DBA117;" d="M456.688,472.361c0,0,2.057,0.669,2.701,1.339c-1.013-2.405-1.351-3.039-1.351-3.039S456.759,471.74,456.688,472.361z"></path><path style="fill:#DBA117;" d="M461.604,476.051l8.037-0.35l-7.128-4.381C462.514,471.32,462.521,475.148,461.604,476.051z"></path></g><g><path style="fill:#DBA117;" d="M366.627,407.583l-0.738-3.472c0,0,2.708-1.483,3.636-1.378c0.09,2.551,0.223,3.883,0.223,3.883S367.959,407.451,366.627,407.583z"></path><path style="fill:#DBA117;" d="M383.982,408.878c0,0-2.085,0.393-3.396,2.032c-1.314,1.642-0.987,3.185-0.987,3.185l-2.205-0.188c0,0-0.408-1.928,0.75-3.584C379.302,408.664,382.563,408.374,383.982,408.878z"></path><path style="fill:#DBA117;" d="M372.871,407.564c0,0-0.141,1.238-0.732,1.767c-0.594,0.531-0.862,0.687-0.862,0.687s3.928,1.886,4.231,1.418C374.603,410.018,373.686,407.844,372.871,407.564z"></path><path style="fill:#DBA117;" d="M384.974,414.008c0,0-1.526,3.247-1.364,3.768c2.279,1.479,6.629,3.224,6.453,3.11C389.889,420.771,386.754,417.408,384.974,414.008z"></path><path style="fill:#DBA117;" d="M405.938,429.197l2.521,5.207l-8.34-5.329C400.119,429.075,404.697,428.806,405.938,429.197z"></path><path style="fill:#DBA117;" d="M418.379,437.937l1.284,3.908l-4.676-3.035C414.987,438.81,417.827,438.659,418.379,437.937z"></path><path style="fill:#DBA117;" d="M428.974,445.81c0,0,1.486,1.547,2.285,3.645c-2.12-1.21-3.446-1.987-3.446-1.987S428.98,446.313,428.974,445.81z"></path><path style="fill:#DBA117;" d="M442.43,450.806c0,0-0.128,3.656,2.274,5.714c-3.309-1.814-4.29-2.867-4.29-2.867S440.873,451.541,442.43,450.806z"></path><path style="fill:#DBA117;" d="M461.356,465.169c0,0,1.449,1.604,2.322,1.924c-2.608,0.051-3.324,0.001-3.324,0.001S460.819,465.484,461.356,465.169z"></path><path style="fill:#DBA117;" d="M466.729,468.157l2.951,7.484l-6.902-4.729C462.777,470.912,466.278,469.361,466.729,468.157z"></path></g></g></g><path style="fill:#F5D957;stroke:#000000;stroke-linecap:round;stroke-linejoin:round;" d="M356.202,400.985l0.404,1.298l-1.349,0.161c0,0,104.483,68.283,105.887,69.192c1.403,0.912,6.646,2.819,6.646,2.819s-3.878-4.013-5.28-4.923C461.109,468.622,356.202,400.985,356.202,400.985z"></path></g></g><g><g><path style="fill:#F5D957;stroke:#000000;stroke-linecap:round;stroke-linejoin:round;" d="M282.699,354.31c1.751-2.696,0.983-6.302-1.712-8.052c-2.695-1.748-6.298-0.982-8.049,1.714c-1.749,2.696-0.983,6.3,1.712,8.05C277.347,357.772,280.951,357.006,282.699,354.31z M274.599,349.05c1.154-1.777,3.533-2.284,5.312-1.129c1.779,1.154,2.284,3.532,1.13,5.311s-3.531,2.284-5.313,1.129C273.951,353.207,273.444,350.829,274.599,349.05z"></path><g><rect x="294.17" y="348.002" transform="matrix(-0.5445 0.8388 -0.8388 -0.5445 763.3007 312.3967)" style="fill:#3F3F3F;stroke:#000000;stroke-linecap:round;stroke-linejoin:round;" width="5.298" height="30.943"></rect><rect x="278.917" y="353.44" transform="matrix(-0.5446 0.8387 -0.8387 -0.5446 734.7941 310.2373)" style="fill:#F5D957;stroke:#000000;stroke-linecap:round;stroke-linejoin:round;" width="8.503" height="2.347"></rect></g></g><g><g><path style="fill:#F5D957;stroke:#000000;stroke-linecap:round;stroke-linejoin:round;" d="M334.697,388.062c5.052-7.78,2.839-18.182-4.943-23.233c-7.779-5.052-18.181-2.838-23.232,4.943c-5.049,7.78-2.839,18.184,4.941,23.234C319.245,398.057,329.647,395.843,334.697,388.062z M311.315,372.884c3.332-5.134,10.194-6.594,15.328-3.261c5.134,3.331,6.591,10.194,3.262,15.326c-3.334,5.134-10.194,6.594-15.329,3.263C309.441,384.879,307.982,378.018,311.315,372.884z"></path><g><path style="fill:#DBA117;" d="M323.209,367.744l2.836-4.368c0,0-3.172-0.874-4.688-0.84l-3.378,5.201C319.703,367.261,321.43,367.355,323.209,367.744z"></path></g><g><path style="fill:#DBA117;" d="M311.429,385.891l-2.835,4.369c0,0-2.089-2.539-2.677-3.939l3.377-5.202C309.561,382.887,310.35,384.425,311.429,385.891z"></path></g></g><g><g><rect x="326.177" y="356.42" transform="matrix(-0.5446 0.8387 -0.8387 -0.5446 832.7892 317.9059)" style="fill:#F5D957;stroke:#000000;stroke-linecap:round;stroke-linejoin:round;" width="7.805" height="57.288"></rect><rect x="311.94" y="373.402" transform="matrix(-0.5445 0.8388 -0.8388 -0.5445 802.3176 315.4937)" style="fill:#DBA117;" width="7.109" height="4.39"></rect><rect x="334.008" y="371.453" transform="matrix(-0.5444 0.8388 -0.8388 -0.5444 848.4092 319.0516)" style="fill:#DBA117;" width="7.109" height="36.938"></rect></g><rect x="339.666" y="369.467" transform="matrix(0.5446 -0.8387 0.8387 0.5446 -173.6479 465.131)" style="fill:#F5D957;stroke:#000000;stroke-linecap:round;stroke-linejoin:round;" width="3.626" height="45.995"></rect><rect x="316.837" y="346.107" transform="matrix(0.8388 0.5444 -0.5444 0.8388 258.0461 -113.5284)" style="fill:#F5D957;stroke:#000000;stroke-linecap:round;stroke-linejoin:round;" width="7.806" height="65.789"></rect></g><rect x="286.438" y="376.448" transform="matrix(-0.5445 0.8388 -0.8388 -0.5445 809.0927 315.991)" style="fill:#DBA117;" width="64.603" height="2.509"></rect></g><path style="fill:#3F3F3F;stroke:#000000;stroke-linecap:round;stroke-linejoin:round;" d="M304.285,373.475c1.163,0.254,3.637-2.788,3.641-2.792l0,0l0,0l0,0l0,0c0.001-0.005,1.772-3.502,1.066-4.46c-1.829-1.021-4.698-1.72-4.698-1.72s-0.029,0.812-1.396,2.917c-1.365,2.104-2.098,2.462-2.098,2.462S302.608,372.217,304.285,373.475z"></path><rect x="298.324" y="365.81" transform="matrix(-0.5443 0.8389 -0.8389 -0.5443 774.5884 313.2097)" style="fill:#F5D957;stroke:#000000;stroke-linecap:round;stroke-linejoin:round;" width="7.804" height="2.348"></rect></g></g><g><path style="fill:#F5D957;stroke:#000000;stroke-linecap:round;stroke-linejoin:round;" d="M308.672,404.321c0,0-2.607-6.93-2.188-10.646c-1.794,0.457-3.429,4.131-3.416,5.262c0.295,2.81,2.848,9.824,2.848,9.824S308.152,406.849,308.672,404.321z"></path><path style="fill:#F5D957;stroke:#000000;stroke-linecap:round;stroke-linejoin:round;" d="M314.42,395.465c0,0-2.605-6.928-2.188-10.646c-1.794,0.457-3.43,4.131-3.416,5.263c0.295,2.809,2.846,9.822,2.846,9.822S313.9,397.992,314.42,395.465z"></path><path style="fill:#F5D957;stroke:#000000;stroke-linecap:round;stroke-linejoin:round;" d="M320.169,386.608c0,0-2.607-6.928-2.188-10.645c-1.792,0.456-3.429,4.132-3.415,5.261c0.295,2.811,2.847,9.824,2.847,9.824S319.648,389.138,320.169,386.608z"></path><path style="fill:#F5D957;stroke:#000000;stroke-linecap:round;stroke-linejoin:round;" d="M325.917,377.753c0,0-2.606-6.93-2.188-10.646c-1.791,0.458-3.429,4.13-3.414,5.262c0.295,2.809,2.847,9.823,2.847,9.823S325.399,380.28,325.917,377.753z"></path><path style="fill:#F5D957;stroke:#000000;stroke-linecap:round;stroke-linejoin:round;" d="M331.666,368.896c0,0-2.606-6.927-2.187-10.645c-1.792,0.458-3.432,4.132-3.416,5.262c0.295,2.811,2.846,9.823,2.846,9.823S331.148,371.424,331.666,368.896z"></path><path style="fill:#F5D957;stroke:#000000;stroke-linecap:round;stroke-linejoin:round;" d="M337.415,360.039c0,0-2.606-6.926-2.188-10.644c-1.793,0.456-3.431,4.131-3.417,5.262c0.296,2.809,2.848,9.823,2.848,9.823S336.897,362.568,337.415,360.039z"></path></g></g></g></svg>