<svg xmlns="http://www.w3.org/2000/svg" width="500" height="500" version="1.1"><g id="x139"><g><path style="fill:#B2B2B2;stroke:#000000;stroke-linecap:round;stroke-linejoin:round;" d="M361.763,424.254c-3.889,3.715-17.206,12.462-17.206,12.462s28.06,0.444,39.664,9.3c11.602,8.856,54.08,41.342,58.956,43.326c4.874,1.985,38.572-6.653,43.211-14.416c-13.882-3.856-32.96-15.573-37.337-19.214c-0.5,4.709-7.656,10.777-12.491,9.946c-4.834-0.833-75.45-50.206-75.45-50.206l-8.225,1.189C352.885,416.642,358.996,421.896,361.763,424.254z"></path><path style="opacity:0.8;fill:#FFFFFF;" d="M368.021,430.502c0,0,16.177,5.131,21.377,10.282c5.197,5.15,50.221,38.236,55.021,39.036c4.801,0.798,23.702-6.671,25.727-8.407c0.551-0.863-0.227-2.728-0.227-2.728s11.089,5.436,15.702,6.645c-1.444,1.427-15.702,11.948-41.298,13.762c-5.466-1.303-60.575-44.112-60.575-44.112s-8.469-6.563-37.482-8.951C350.83,434.89,368.021,430.502,368.021,430.502z"></path><path style="fill:#FFFFFF;" d="M485.622,475.33c-4.613-1.209-15.702-6.645-15.702-6.645s0.777,1.864,0.227,2.728c-1.202,1.032-8.366,4.088-14.989,6.231c0.657,1.024,1.227,2.101,1.688,3.153c0.534,2.438,0.37,4.668-0.309,6.666C474.446,483.918,484.424,476.511,485.622,475.33z"></path><polygon style="opacity:0.5;fill:#FFFFFF;" points="346.267,436.028 366.799,429.034 369.967,421.959 368.021,430.502 "></polygon><polygon style="fill:#666666;" points="346.267,436.028 366.799,429.034 369.541,421.913 361.003,415.873 354.486,417.159 362.262,424.478 "></polygon><path style="fill:#3F3F3F;stroke:#000000;stroke-linecap:round;stroke-linejoin:round;" d="M377.836,426.851c0,0,4.529-0.438,5.646,0.429c1.113,0.868,1.555,3.73,1.555,3.73s-3.771,3.046-5.476,2.865C377.854,433.692,377.836,426.851,377.836,426.851z"></path><path style="fill:#3F3F3F;stroke:#000000;stroke-linecap:round;stroke-linejoin:round;" d="M384.077,430.849c0,0,4.529-0.438,5.646,0.429c1.113,0.866,1.555,3.73,1.555,3.73s-3.773,3.047-5.477,2.864C384.096,437.691,384.077,430.849,384.077,430.849z"></path><path style="fill:#B2B2B2;stroke:#000000;stroke-linecap:round;stroke-linejoin:round;" d="M330.438,395.414c0,0-2.785,11.157-9.073,16.233c13.814-2.193,24.453-0.913,30.164,3.201c4.309-4.826,3.617-9.673,3.617-9.673s-17.375-4.151-18.389-5.409c-1.016-1.256-0.37-6.764-0.37-6.764L330.438,395.414z"></path><path style="opacity:0.8;fill:#FFFFFF;" d="M323.452,411.051c0,0,2.364-3.153,4.582-6.97c5.126,1.237,20.528,3.138,20.528,3.138l-2.204,4.508C346.358,411.727,335.504,408.413,323.452,411.051z"></path><path style="fill:#3F3F3F;stroke:#000000;stroke-linecap:round;stroke-linejoin:round;" d="M347.137,389.725c0,0,2.64-3.168,5.308-4.491c0.006,4.252-0.144,7.802-0.144,7.802S348.093,391.548,347.137,389.725z"></path><path style="fill:#3F3F3F;stroke:#000000;stroke-linecap:round;stroke-linejoin:round;" d="M350.43,392.084c0,0,3.894-1.35,6.864-1.107c-2.191,3.646-4.149,6.61-4.149,6.61S350.306,394.141,350.43,392.084z"></path><path style="fill:#3F3F3F;stroke:#000000;stroke-linecap:round;stroke-linejoin:round;" d="M353.993,395.813c0,0,4.123,0.105,6.818,1.376c-3.332,2.644-6.209,4.73-6.209,4.73S353.155,397.693,353.993,395.813z"></path><path style="fill:#6E6E6E;stroke:#000000;stroke-linecap:round;stroke-linejoin:round;" d="M338.321,394.245c0,0,5.434-1.375,8.663,0.693c3.229,2.069,3.969,9.677,3.969,9.677s-4.438,1.711-5.021,6.649c-0.01,3.331,10.613,10.441,15.809,9.675c-4.619-2.505-7.542-7.415-7.542-7.415s3.733,2.696,6.35,0.274c2.615-2.424,0.633-8.094-4.891-9.66c-0.573-4.313-2.004-10.844-4.838-12.815c-2.839-1.97-11.401-3.054-11.401-3.054L338.321,394.245z"></path><polygon style="fill:#3F3F3F;stroke:#000000;stroke-linecap:round;stroke-linejoin:round;" points="340.576,387.646 339.804,384.114 348.981,370.264 348.461,386.475 345.316,389.012 "></polygon><g><rect x="298.852" y="344.197" transform="matrix(0.5866 -0.8099 0.8099 0.5866 -171.6567 395.2962)" style="fill:#3F3F3F;stroke:#000000;stroke-linecap:round;stroke-linejoin:round;" width="5.061" height="43.193"></rect><path style="fill:#3F3F3F;stroke:#000000;stroke-linecap:round;stroke-linejoin:round;" d="M285.735,357.285c0,0,1.464-2.818,2.776-3.799c-1.598-1.593-3.639-2.673-3.639-2.673s-2.915,1.889-2.792,4.356C282.946,355.954,285.735,357.285,285.735,357.285z"></path><g><path style="fill:#6E6E6E;stroke:#000000;stroke-linecap:round;stroke-linejoin:round;" d="M309.316,376.77c0,0-1.596-1.345-1.762-1.723c-0.081-1.168,2.77-5.102,4.495-5.745c1.364,0.146,2.517,1.112,2.517,1.112L309.316,376.77z"></path><path style="fill:#6E6E6E;stroke:#000000;stroke-linecap:round;stroke-linejoin:round;" d="M309.233,376.44c0,0,2.916,2.693,4.528,3.262c2.442-2.781,4.722-6.499,4.722-6.499s-3.438-2.839-4.674-3.018C310.183,372.988,309.233,376.44,309.233,376.44z"></path><path style="fill:#6E6E6E;stroke:#000000;stroke-linecap:round;stroke-linejoin:round;" d="M314.841,381.229c0,0-1.81-1.687-1.975-2.063c-0.085-1.167,2.988-5.581,4.713-6.224c1.364,0.145,2.517,1.112,2.517,1.112L314.841,381.229z"></path></g><path style="fill:#6E6E6E;stroke:#000000;stroke-linecap:round;stroke-linejoin:round;" d="M335.36,384.077c-0.418-0.701,0.309-8.253-7.373-13.174c-7.681-4.921-15.136-0.383-18.139,1.596c-1.378,0.911-10.689,10.262,1.604,24.206c1.056,2.41,0.482,6.738-2.206,10.935c2.173,2.693,5.037,5.61,5.037,5.61s7.126-6.051,7.089-13.437c-2.216-5.324-12.59-16.52-6.111-21.9c1.739-1.7,8.349-2.882,12.192,2.614c2.471,4.075,2.533,8.002,1.972,11.169l8.988,5.92l3.618-8.398C338.986,388.566,335.775,384.778,335.36,384.077z"></path><path style="opacity:0.3;fill:#FFFFFF;" d="M329.867,377.596c0,0,4.901,5.494,2.783,12.712c-0.993,0.125-2.271-1.075-2.271-1.075s0.294-3.305-2.501-8.889C328.559,378.808,329.867,377.596,329.867,377.596z"></path><path style="fill:#6E6E6E;stroke:#000000;stroke-linecap:round;stroke-linejoin:round;" d="M336.439,394.1c0.332,0.67,1.498,4.3,2.595,4.243c1.099-0.054,3.783-0.458,3.783-0.458l3.674-8.573c0,0-1.483-1.714-2.561-2.399c-1.076-0.689-4.253,0.006-4.253,0.006L336.439,394.1z"></path><path style="fill:#505050;" d="M338.779,398.028l-1.861-3.848l3.083-7.056c0,0,2.832-0.158,3.369,0.187C341.526,391.139,338.779,398.028,338.779,398.028z"></path><path style="fill:#505050;" d="M312.798,382.026c0,0-0.357-3.531,3.708-5.253c4.063-1.724,8.82-0.267,10.927,3.021c1.552,2.018,1.742-2.188,2.492-1.935c-3.74-3.763-6.419-6.504-14.115-4.265c-7.29,2.123-6.007,11.86-6.007,11.86L312.798,382.026z"></path><path style="opacity:0.3;fill:#FFFFFF;" d="M312.755,381.202c0,0-1.05,2.172-2.605,1.403c-1.466,2.817,1.334,10.531,4.712,12.01c0.062-0.984,1.46-1.567,2.427-0.948C312.353,386.979,312.755,381.202,312.755,381.202z"></path></g><g><path style="fill:#6E6E6E;stroke:#000000;stroke-linecap:round;stroke-linejoin:round;" d="M309.208,401.537c0,0,4.708,3.987,5.459,4.71c0.747,0.721,5.529,2.332,5.529,2.332s-12.06,15.038-21.319,15.886C306.614,411.26,309.208,401.537,309.208,401.537z"></path></g><path style="fill:#3F3F3F;stroke:#000000;stroke-linecap:round;stroke-linejoin:round;" d="M334.174,378.688c0,0,3.42-2.971,6.698-4.058c0.008,4.255-3.521,10.947-3.521,10.947S333.822,384.685,334.174,378.688z"></path><path style="fill:#3F3F3F;stroke:#000000;stroke-linecap:round;stroke-linejoin:round;" d="M331.203,388.773c0,0-1.726,0.561-2.278,1.423c-0.552,0.86,1.513,5.218,1.513,5.218s1.706,0.182,4.337-1.317C333.925,390.212,331.203,388.773,331.203,388.773z"></path><path style="fill:#6E6E6E;stroke:#000000;stroke-linecap:round;stroke-linejoin:round;" d="M358.043,412.496c0,0,2.357-1.902,7.26,1.465c4.898,3.366,4.462,11.511,4.462,11.511l6.207-0.805c0,0-0.407-10.733-5.631-14.31c-5.223-3.572-12.075-3.182-12.075-3.182"></path><path style="fill:#6E6E6E;stroke:#000000;stroke-linecap:round;stroke-linejoin:round;" d="M375.563,420.688c-0.061,0.569,3.255,5.576,3.271,6.499c-2.692,2.069-9.416,2.617-9.416,2.617c0.048-3.157,0.119-7.057,0.533-7.703"></path></g></g></svg>