<svg xmlns="http://www.w3.org/2000/svg" width="500" height="500" version="1.1"><g id="x014"><g><circle style="fill:#FAFAFA;stroke:#000000;stroke-linecap:round;stroke-linejoin:round;" cx="311.892" cy="388.248" r="23.738"></circle><path style="fill:#DCDCDC;" d="M328.141,398.836c0.081,0.086-0.084,0.379-0.254,0.744c-1.358,2.932-8.203,12.613-21.137,9.951c-14.544-2.995-17.539-17.754-16.256-21.391c3.637-0.428,11.551,12.192,18.824,12.192C316.59,400.333,324.504,394.985,328.141,398.836z"></path><ellipse transform="matrix(0.697 -0.7171 0.7171 0.697 -170.1084 341.9572)" style="fill:#FFFFFF;" cx="319.542" cy="372.247" rx="3.342" ry="5.914"></ellipse><path style="fill:none;stroke:#000000;stroke-linecap:round;stroke-linejoin:round;" d="M289.042,386.416c0,0,0.339,7.585,7.18,15.571c6.841,7.987,15.062,9.801,15.096,9.88"></path><path style="fill:none;stroke:#000000;stroke-linecap:round;stroke-linejoin:round;" d="M311.42,364.796c0,0-5.914,1.862-7.729,7.011"></path><path style="fill:none;stroke:#000000;stroke-linecap:round;stroke-linejoin:round;" d="M299.39,384.252c-0.314,0.134-4.06,6.66-3.906,12.276"></path><path style="fill:none;stroke:#000000;stroke-linecap:round;stroke-linejoin:round;" d="M301.642,403.129c0.271-0.021,6.908,0.695,12.441-2.496"></path><line style="fill:none;stroke:#000000;stroke-linecap:round;stroke-linejoin:round;" x1="307.934" y1="383.319" x2="315.828" y2="392.907"></line><path style="fill:none;stroke:#000000;stroke-linecap:round;stroke-linejoin:round;" d="M324.486,391.368c0,0,4.831-5.5,3.997-12.502"></path><path style="fill:none;stroke:#000000;stroke-linecap:round;stroke-linejoin:round;" d="M310.772,374.662c0.235-0.101,8.278-2.867,11.134-1.847"></path><line style="fill:none;stroke:#000000;stroke-linecap:round;stroke-linejoin:round;" x1="319.821" y1="366.158" x2="323.366" y2="369.681"></line><path style="fill:none;stroke:#000000;stroke-linecap:round;stroke-linejoin:round;" d="M330.246,376.44c0,0,4.46,6.112,5.168,14.564"></path><path style="fill:none;stroke:#000000;stroke-linecap:round;stroke-linejoin:round;" d="M326.77,399.149c0,0,5.99-0.59,7.186-1.938"></path><path style="fill:none;stroke:#000000;stroke-linecap:round;stroke-linejoin:round;" d="M316.519,410.959c0,0,3.833-2.374,3.881-7.517"></path><path style="fill:none;stroke:#000000;stroke-linecap:round;stroke-linejoin:round;" d="M290.569,379.713c0,0,2.324-2.198,6.704-2.85"></path><polygon points="303.975,370.941 311.312,374.619 308.113,383.522 299.119,384.926 296.688,377.019 "></polygon><polygon points="291.928,396.27 295.724,395.122 302.77,402.929 301.586,407.158 294.505,404.301 "></polygon><polygon points="315.166,392.443 313.048,401.261 320.406,405.209 327.468,399.04 324.813,391.042 "></polygon><path d="M309.764,412.155l7.726-1.98l0.853,1.127C318.342,411.302,313.823,412.942,309.764,412.155z"></path><path d="M335.225,390.34l-2.425,5.688l0.827,2.163C333.627,398.19,336.093,393.696,335.225,390.34z"></path><polygon points="322.683,368.947 328.089,371.584 332.632,380.082 328.635,380.756 321.444,372.826 "></polygon><path d="M291.002,377.666l-1.475,8.357l-1.195,0.694C288.332,386.718,289.082,380.159,291.002,377.666z"></path></g></g></svg>