<svg xmlns="http://www.w3.org/2000/svg" width="500" height="500" version="1.1"><g id="x140"><g><g><g><g><path style="fill:#3F3F3F;stroke:#000000;stroke-linecap:round;stroke-linejoin:round;" d="M303.755,390.231c0,0-1.665,1.881-2.432,1.021c-0.767-0.86-0.132-3.022-0.132-3.022L303.755,390.231z"></path><path style="fill:#3F3F3F;stroke:#000000;stroke-linecap:round;stroke-linejoin:round;" d="M306.597,386.807c0,0,0.083,2.514-0.518,2.925c-0.603,0.411-2.165,0.518-3.415-0.056c-1.248-0.574-2.334-2.998-2.127-3.452c0.209-0.455,2.573-1.706,2.573-1.706L306.597,386.807z"></path><polygon style="fill:#3F3F3F;stroke:#000000;stroke-linecap:round;stroke-linejoin:round;" points="303.124,384.692 304.914,384.132 306.84,385.521 306.498,387.278 "></polygon></g><g><path style="fill:#3F3F3F;stroke:#000000;stroke-linecap:round;stroke-linejoin:round;" d="M325.184,360.489c0,0,1.259-2.173,0.199-2.628c-1.059-0.455-2.909,0.831-2.909,0.831L325.184,360.489z"></path><path style="fill:#3F3F3F;stroke:#000000;stroke-linecap:round;stroke-linejoin:round;" d="M322.835,364.27c0,0,2.411-0.717,2.611-1.418c0.199-0.701-0.193-2.217-1.135-3.221c-0.938-1.003-3.582-1.266-3.948-0.924c-0.365,0.342-0.804,2.98-0.804,2.98L322.835,364.27z"></path><polygon style="fill:#3F3F3F;stroke:#000000;stroke-linecap:round;stroke-linejoin:round;" points="319.729,361.645 319.766,363.52 321.692,364.909 323.251,364.027 "></polygon></g></g><path style="fill:#3F3F3F;stroke:#000000;stroke-linecap:round;stroke-linejoin:round;" d="M313.964,374.994l-2.306,2.344c0,0,1.391,0.849,3.014,2.019c0.783,0.409,2.232-2.243,2.232-2.243s2.058-2.216,1.421-2.827c-1.622-1.17-2.868-2.222-2.868-2.222L313.964,374.994z"></path><g><path style="fill:#3F3F3F;stroke:#000000;stroke-linecap:round;stroke-linejoin:round;" d="M287.679,350.817c-2.758-0.447-4.513,1.986-4.513,1.986s-1.753,2.436-0.456,4.91c1.299,2.476,4.585,1.763,4.585,1.763l3.508-4.868C290.803,354.608,290.438,351.265,287.679,350.817z"></path><path style="fill:none;stroke:#000000;stroke-linecap:round;stroke-linejoin:round;" d="M283.213,357.87c0,0-0.783-1.335,0.774-3.498c1.56-2.164,4.805-2.034,6.354,0.521"></path><path style="fill:none;stroke:#000000;stroke-linecap:round;stroke-linejoin:round;" d="M286.092,355.015c0,0-0.479-1.116,0.583-1.377c1.062-0.262,2.554,1.019,1.426,3.081"></path></g><path style="fill:#3F3F3F;stroke:#000000;stroke-linecap:round;stroke-linejoin:round;" d="M300.891,359.565c-1.657-0.835-4.237-0.534-4.851-0.823c-0.615-0.287-1.044-1.829-0.87-2.782c-1.218,0.406-3.169-0.59-3.996-1.084c-0.793-0.109-2.356,1.846-2.43,1.947c-0.073,0.101-1.434,2.202-1.077,2.921c0.729,0.629,2.292,2.165,2.291,3.449c0.849-0.466,2.448-0.548,2.916-0.056c0.468,0.491,0.999,3.03,2.316,4.339c1.317,1.308,3.662,1.047,4.657,0.736l1.642-2.207l1.573-2.255C303.043,362.709,302.548,360.402,300.891,359.565z"></path><g><path style="fill:#3F3F3F;stroke:#000000;stroke-linecap:round;stroke-linejoin:round;" d="M301.982,362.613c-0.873,0.142-2.218,2.149-2.218,2.149s-1.48,1.912-1.339,2.784c0.143,0.874,1.355,2.824,3.331,2.861l2.132-2.674l1.862-2.868C305.089,363.002,302.854,362.471,301.982,362.613z"></path><g><path style="fill:none;stroke:#000000;stroke-linecap:round;stroke-linejoin:round;" d="M300.052,368.001c0,0-1.042,0.02-1.003-1.032c0.038-1.051,4.009-2.143,4.441-1.318"></path><path style="fill:none;stroke:#000000;stroke-linecap:round;stroke-linejoin:round;" d="M302.699,365.183c-0.103-0.073-1.469-1.313-0.916-2.508"></path></g></g><path style="fill:#3F3F3F;stroke:#000000;stroke-linecap:round;stroke-linejoin:round;" d="M309.059,366.478c-1.529-1.513-2.876-1.712-3.434-1.651c-1.148,0.097-2.581,2.3-2.581,2.3s-1.637,2.057-1.364,3.177c0.119,0.548,0.734,1.762,2.651,2.734c1.921,0.972,3.71,2.62,3.652,3.556c1.14-0.155,1.778-0.259,1.778-0.259l2.31-2.704l1.832-3.044c0,0-0.103-0.64-0.317-1.77C312.719,369.166,310.588,367.99,309.059,366.478z"></path><path style="fill:#3F3F3F;stroke:#000000;stroke-linecap:round;stroke-linejoin:round;" d="M311.326,373.095c0,0-6.324,7.922-6.585,11.277c1.116,0.804,1.926,1.388,1.926,1.388l15.2-21.094c0,0-0.812-0.585-1.928-1.388C316.839,364.587,311.326,373.095,311.326,373.095z"></path><path style="fill:#3F3F3F;stroke:#000000;stroke-linecap:round;stroke-linejoin:round;" d="M316.904,377.113c0,0-1.939,2.607,0.19,4.143c2.13,1.534,4.068-1.073,4.068-1.073s1.861-2.667-0.269-4.2C318.766,374.447,316.904,377.113,316.904,377.113z"></path><path style="fill:#6E6E6E;stroke:#000000;stroke-linecap:round;stroke-linejoin:round;" d="M325.855,377.091l-4.692,3.092l-1.446,5.429c0,0,82.076,60.573,112.442,77.729c10.592,5.982,16.384,8.62,16.384,8.62s-4.335-4.66-13.364-12.812C409.294,435.773,325.855,377.091,325.855,377.091z"></path><path style="fill:#505050;" d="M320.484,385.546c0,0,1.226-3.841,1.48-4.479c3.245,2.338,13.503,9.626,13.503,9.626L320.484,385.546z"></path><path style="opacity:0.8;fill:#FFFFFF;" d="M320.541,385.536c0,0,9.603,2.144,14.395,5.184c4.792,3.043,106.555,76.776,106.555,76.776s-17.945-9.856-23.134-12.869C378.881,428.803,320.541,385.536,320.541,385.536z"></path></g><line style="fill:none;stroke:#000000;stroke-linecap:round;stroke-linejoin:round;" x1="322.177" y1="380.914" x2="445.5" y2="469.771"></line><g><path style="fill:none;stroke:#000000;stroke-linecap:round;stroke-linejoin:round;" d="M307.652,382.256c0,0-1.266,0.116-0.964-1.157c0.173-0.73,4.012-1.577,5.558-4.007c1.234-1.941,0.247-1.979-0.499-2.157"></path><path style="fill:none;stroke:#000000;stroke-linecap:round;stroke-linejoin:round;" d="M318.852,366.712c0,0-0.289-1.237-1.401-0.548c-0.638,0.395-0.227,4.304-2.043,6.539c-1.45,1.785-1.799,0.86-2.203,0.209"></path></g></g></g></svg>