<svg xmlns="http://www.w3.org/2000/svg" width="500" height="500" version="1.1"><g id="x141"><g><g><path style="fill:#F5D957;stroke:#000000;stroke-linecap:round;stroke-linejoin:round;" d="M314.777,376.945l-2.832-1.975c0,0-4.521,6.828-8.543,12.08c-2.232,2.914-4.822,5.536-4.822,5.536s0.013,2.053,0.279,2.359c0.268,0.307,2.141-0.312,2.504-0.659C301.727,393.938,314.777,376.945,314.777,376.945z"></path><path style="fill:#F5D957;stroke:#000000;stroke-linecap:round;stroke-linejoin:round;" d="M311.131,375.967c-0.152,0.735-10.764,8.367-16.185,4.587c-2.308-2.21,1.416-7.55,0.065-12.339c-0.636-2.256-2.858,0.651-2.858,0.651s-1.027-0.595-1.206-1.201c0.345-0.841,3.048-3.165,4.999-0.963c3.256,3.954,0.595,10.875,1.047,11.433c0.454,0.556,6.814,1.264,11.985-3.909C310.305,374.909,311.131,375.967,311.131,375.967z"></path><path style="fill:#FFFFA8;" d="M294.834,378.167c0,0-0.333,2.418,2.25,2.584s6.417-1.584,6.417-1.584s-7.416-0.25-7.5-0.833s0.416-3,0.416-3S294.834,377.083,294.834,378.167z"></path><path style="fill:#F5D957;stroke:#000000;stroke-linecap:round;stroke-linejoin:round;" d="M315.639,375.709l-2.832-1.975c0,0,4.845-6.603,8.382-12.192c1.962-3.102,3.526-6.438,3.526-6.438s1.931-0.698,2.311-0.554s0.448,2.116,0.247,2.577S315.639,375.709,315.639,375.709z"></path><path style="fill:#F5D957;stroke:#000000;stroke-linecap:round;stroke-linejoin:round;" d="M313.459,372.626c0.639-0.396,4.13-12.992-1.291-16.772c-2.871-1.4-6.595,3.939-11.555,4.329c-2.338,0.183-0.378-2.908-0.378-2.908s-0.915-0.759-1.544-0.717c-0.67,0.615-1.917,3.955,0.825,5.024c4.835,1.688,10.409-3.203,11.089-2.97s3.542,5.957,0.476,12.596C312.182,372.217,313.459,372.626,313.459,372.626z"></path><path style="fill:#FFFFA8;" d="M311.625,358.125L312.5,357c0,0,2.875,3.375,1.75,8.125C312.75,361.625,311.625,358.125,311.625,358.125z"></path></g><g><g><path style="fill:#F5D957;stroke:#000000;stroke-linecap:round;stroke-linejoin:round;" d="M325.145,370.871c-3.243-1.901-6.724-0.359-6.724-0.359l-1.748,2.509c0,0,3.673-1.647,7.071,0.722s2.117,4.723,2.117,4.723s-2.462,1.289-5.051-0.516c-2.589-1.806-4.057-4.873-4.057-4.873l-1.951,2.969l-2.111,2.857c0,0,3.387,0.316,5.976,2.122c2.589,1.805,2.23,4.561,2.23,4.561s-1.766,2.016-5.164-0.354s-3.122-6.386-3.122-6.386l-1.75,2.508c0,0-0.243,3.799,2.662,6.185s6,2.26,8.106,0.963c1.734-1.797,3.61-5.179,3.61-5.179s2.524-2.93,3.61-5.178C329.339,375.72,328.389,372.771,325.145,370.871z"></path><g><path style="fill:#DBA117;" d="M312.313,385.567l1.204-1.985c0,0-0.989-1.772-0.975-2.483c-0.633,0.219-1.298,1.259-1.298,1.259S311.296,383.836,312.313,385.567z"></path><path style="fill:#DBA117;" d="M322.833,370.478l-1.447,1.816c0,0-2.004-0.314-2.666-0.056c-0.014-0.67,0.732-1.653,0.732-1.653S320.856,370.122,322.833,370.478z"></path></g></g><g><path style="fill:none;stroke:#000000;stroke-linecap:round;stroke-linejoin:round;" d="M312.343,383.022c0,0,1.05,2.978,3.601,4.034c2.55,1.058,4.24,0.472,4.24,0.472"></path><path style="fill:none;stroke:#000000;stroke-linecap:round;stroke-linejoin:round;" d="M320.564,371.231c0,0,3.156-0.044,5.03,1.983c1.873,2.028,1.908,3.816,1.908,3.816"></path></g></g><g><g><polygon style="fill:#6E6E6E;stroke:#000000;stroke-linecap:round;stroke-linejoin:round;" points="313.832,375.368 311.448,379.478 432.939,463.224 441.345,464.275 437.452,456.751 316.863,371.71 "></polygon><rect x="316.932" y="375.807" transform="matrix(0.5718 -0.8204 0.8204 0.5718 -176.582 425.1884)" style="fill:#505050;" width="4.208" height="11.902"></rect></g><polygon style="opacity:0.8;fill:#FFFFFF;" points="325.653,388.535 433.186,462.87 440.159,463.445 345.01,397.104 "></polygon><polygon style="fill:#505050;" points="327.932,385.154 344.76,396.888 325.044,388.433 "></polygon></g><path style="fill:#F5D957;stroke:#000000;stroke-linecap:round;stroke-linejoin:round;" d="M285.729,351.556c-1.333,0.021-3.221,1.973-3.221,1.973s-1.18,2.446-0.737,3.704c0.441,1.257,2.242,1.247,2.242,1.247l1.546-2.823l2.114-2.428C287.674,353.229,287.062,351.536,285.729,351.556z"></path><path style="fill:#FFFFA8;" d="M283.375,353.625c0,0-1.25,1.875-0.625,2.625s1.625-0.125,1.625-0.125l1-2.25C285.375,353.875,284.125,353.125,283.375,353.625z"></path><path style="fill:#F5D957;stroke:#000000;stroke-linecap:round;stroke-linejoin:round;" d="M297.079,360.882c-0.154-0.066,0.102-0.491,0.102-0.491s-0.617-1.472-1.365-1.432c-0.749,0.038-2.566,1.898-2.589,2.043c-0.127,0.07-1.244,2.419-1.022,3.135c0.223,0.716,1.817,0.785,1.817,0.785s0.31-0.386,0.426-0.265c0.115,0.121,0.205,0.625,0.205,0.625s13.844,10.438,15.838,11.66l3.663-5.255c-1.837-1.447-16.417-10.828-16.417-10.828S297.232,360.949,297.079,360.882z"></path><polygon style="fill:#DBA117;" points="295.875,363.125 311.5,373.625 310.875,376.25 294.875,364.875 "></polygon><g><path style="fill:#F5D957;stroke:#000000;stroke-linecap:round;stroke-linejoin:round;" d="M311.891,374.014c0,0-3.513,5.729-5.531,10.693c0.809,0.564,1.618,1.129,1.618,1.129l7.635-9.227l6.017-10.354c0,0-0.81-0.563-1.618-1.128C316.05,368.738,311.891,374.014,311.891,374.014z"></path><path style="fill:#FFFFA8;" d="M312.75,374c0,0,4-5.75,6.125-6.625c-0.75,2.875-3.625,8.875-3.625,8.875L312.75,374z"></path><path style="fill:#DBA117;" d="M312.315,374.267c1.012,0.705,2.953,2.06,2.953,2.06l-7.304,9.096l-1.116-0.898C306.849,384.523,310.027,377.722,312.315,374.267z"></path></g><path style="fill:#F5D957;stroke:#000000;stroke-linecap:round;stroke-linejoin:round;" d="M323.865,382.363c0,0-2.688,4.546-4.064,8.589c0.809,0.564,1.618,1.129,1.618,1.129l6.168-7.122l4.551-8.251c0,0-0.81-0.564-1.618-1.128C327.2,378.27,323.865,382.363,323.865,382.363z"></path><path style="fill:#FFFFA8;" d="M324.375,383.125l2.375,1.75L330.5,378l-0.75-0.75C329.75,377.25,324.75,382.625,324.375,383.125z"></path><line style="fill:none;stroke:#000000;stroke-linecap:round;stroke-linejoin:round;" x1="294.812" y1="363.789" x2="296.391" y2="361.523"></line><g><path style="fill:#F5D957;stroke:#000000;stroke-linecap:round;stroke-linejoin:round;" d="M290.562,353.037c-3.132-0.545-5.378,2.324-5.394,2.345l0,0l-0.001,0.001v0.001l0,0c-0.014,0.021-1.93,3.121-0.335,5.871c1.6,2.758,4.582,3.195,5.655,3.003c1.07-0.19,2.576-3.354,2.582-3.365c0.009-0.01,2.456-2.517,2.266-3.586C295.145,356.232,293.702,353.584,290.562,353.037z"></path><path style="fill:#DBA117;" d="M288.25,363.375c0,0-2.625-3-0.625-5.625S294,356,294,356s1.125,3.625-1,5.5S288.25,363.375,288.25,363.375z"></path><ellipse style="fill:#FFFFA8;" cx="288.75" cy="356.375" rx="2.375" ry="2.125"></ellipse><path style="fill:none;stroke:#000000;stroke-linecap:round;stroke-linejoin:round;" d="M291.643,357.008c0,0,1.402,2.968,1.085,4.631"></path><path style="fill:none;stroke:#000000;stroke-linecap:round;stroke-linejoin:round;" d="M292.984,356.982c0,0,1.181,1.583,0.938,2.736"></path><path style="fill:none;stroke:#000000;stroke-linecap:round;stroke-linejoin:round;" d="M291.85,362.403c0,0-4.734-2.98-3.609-8.85"></path><path style="fill:none;stroke:#000000;stroke-linecap:round;stroke-linejoin:round;" d="M291.185,363.703c0,0-5.742-2.801-4.564-9.435"></path><path style="fill:none;stroke:#000000;stroke-linecap:round;stroke-linejoin:round;" d="M284.535,360.316c0,0,2.219,2.107,3.655,1.426"></path><path style="fill:none;stroke:#000000;stroke-linecap:round;stroke-linejoin:round;" d="M284.616,358.545c0,0,1.464,1.391,2.784,1.547"></path><path style="fill:none;stroke:#000000;stroke-linecap:round;stroke-linejoin:round;" d="M288.094,355.891c0,0,3.609-1.583,6.786,0.412"></path><path style="fill:none;stroke:#000000;stroke-linecap:round;stroke-linejoin:round;" d="M288.34,357.255c0.983-0.34,4.051-1.159,6.727,0.707"></path></g><g><path style="fill:none;stroke:#000000;stroke-linecap:round;stroke-linejoin:round;" d="M301.455,394.154c-0.186-0.25-1.2-2.762-0.281-3.563c0.92-0.803,2.327-0.062,3.393-1.243c1.063-1.182,1.219-4.681,1.219-4.681"></path><path style="fill:none;stroke:#000000;stroke-linecap:round;stroke-linejoin:round;" d="M327.18,357.259c-0.299-0.087-3.006-0.171-3.44,0.969c-0.435,1.141,0.748,2.204,0.007,3.612c-0.741,1.407-3.971,2.763-3.971,2.763"></path></g></g></g></svg>