<svg xmlns="http://www.w3.org/2000/svg" width="500" height="500" version="1.1"><g id="x142"><g><circle style="fill:#F5D957;stroke:#000000;stroke-linecap:round;stroke-linejoin:round;" cx="279.667" cy="351.798" r="2.713"></circle><g><g><path style="fill:#B2B2B2;stroke:#000000;stroke-linecap:round;stroke-linejoin:round;" d="M327.285,385.422l-2.652,9.527c0,0,125.721,86.283,130.382,88.334c4.66,2.053,12.312,1.024,12.312,1.024s-1.593-7.552-5.087-11.257c-3.492-3.707-126.865-93.316-126.865-93.316L327.285,385.422z"></path><path style="fill:#FFFFFF;" d="M458.086,477.782l8.521,6.019c0,0-2.049-7.776-4.909-10.335c-3.462-2.98-7.921-2-7.921-2l3.389,2.571L458.086,477.782z"></path><path style="opacity:0.48;fill:#FFFFFF;" d="M328.917,386.574l-0.4,4.026c0,0,124.783,87.036,125.936,87.133c1.158,0.097,3.634,0.049,3.634,0.049s-0.786-2.349-1.263-3.401c-0.478-1.058-124.246-89.531-124.246-89.531L328.917,386.574z"></path></g><path style="fill:#DBA117;stroke:#000000;stroke-linecap:round;stroke-linejoin:round;" d="M329.456,386.957l-4.575,7.72c0,0,9.188,6.309,10.196,6.66c0.438-1.126,0.993-2.171,0.993-2.171l2.412-1.887l2.34-2.296l1.382-2.976l0.973-2.902c0,0,0.797-0.876,1.713-1.664c-0.669-0.832-9.688-7.381-9.688-7.381L329.456,386.957z"></path><g><path style="fill:#F5D957;stroke:#000000;stroke-linecap:round;stroke-linejoin:round;" d="M336.149,379.159c-3.317,0.889-7.066,7.533-7.066,7.533s-5.008,5.754-4.732,9.18c0,0,9.819,7.069,12.378,7.26c1.009-0.094,1.476-1.517,0.819-2.116c-0.36-0.252-0.37-2.145,0.461-2.366c0.778-0.209,1.588,0.184,2.146-0.887l2.79,3.431l5.367-0.924l-0.925-5.367l-4.165-1.481c0.819-0.882,0.181-1.517,0.115-2.318c-0.068-0.856,1.718-1.479,2.079-1.227c0.781,0.418,1.965-0.497,1.718-1.479C346.097,386.049,336.149,379.159,336.149,379.159z M343.585,387.509c-0.659,0.745-1.526,1.21-1.843,1.659c-0.317,0.449,0.172,1.47-0.054,1.982c-0.228,0.513-1.966,0.496-1.966,0.496l-0.033,0.044c-0.205-1.476-1.263-3.111-2.952-4.306c-2.604-1.839-5.71-1.922-6.937-0.186s-0.106,4.636,2.497,6.476c1.688,1.192,3.584,1.643,5.044,1.341l-0.032,0.046c0,0,0.599,1.634,0.192,2.019c-0.408,0.386-1.534,0.264-1.851,0.713c-0.318,0.448-0.467,1.421-0.948,2.294c-1.395-0.313-9.279-6.688-9.279-6.688c0.196-1.613,4.034-6.442,4.034-6.442s3.267-5.234,4.722-5.957C334.18,381,342.825,386.299,343.585,387.509z"></path><path style="fill:#DBA117;" d="M333.568,393.876l1.085-0.58c0,0,2.542-0.359,3.05-1.078c1.025,0.455,1.914,1.484,1.914,1.484S336.994,395.89,333.568,393.876z"></path><polygon style="fill:#DBA117;" points="340.438,397.114 343.246,400.574 347.538,399.836 345.947,398.848 343.928,399.037 341.382,396.161 "></polygon><g><path style="fill:#F5D957;stroke:#000000;stroke-linecap:round;stroke-linejoin:round;" d="M328.763,396.488c0,0,4.741,1.865,6.063,0.377c1.322-1.491-0.669-3.437-1.654-3.189c-0.982,0.25-0.654,1.694-0.654,1.694s-3.949,0.44-5.631-0.611C326.839,395.399,328.763,396.488,328.763,396.488z"></path><path style="fill:#F5D957;stroke:#000000;stroke-linecap:round;stroke-linejoin:round;" d="M338.208,383.113c0,0,3.345,3.842,2.382,5.587s-3.462,0.518-3.557-0.492s1.375-1.184,1.375-1.184s-0.904-3.87-2.458-5.101C336.537,381.664,338.208,383.113,338.208,383.113z"></path></g><ellipse transform="matrix(-0.5773 0.8165 -0.8165 -0.5773 846.515 342.829)" style="fill:#6E6E6E;stroke:#000000;stroke-linecap:round;stroke-linejoin:round;" cx="334.518" cy="390.53" rx="2.071" ry="3.109"></ellipse></g><path style="fill:#6E6E6E;stroke:#000000;stroke-linecap:round;stroke-linejoin:round;" d="M295.31,354.945c-4.519-0.722-7.077,2.901-7.077,2.901s-2.561,3.624-0.368,7.64c6.203,2.404,18.166,9.865,23.204,13.918c5.04,4.05,11.763,9.786,11.763,9.786l6.512-9.226c0,0-7.649-4.416-13.156-7.808C310.684,368.764,299.649,359.983,295.31,354.945z"></path><path style="fill:#505050;" d="M287.683,362.948c0,0-0.221,1.458,0.317,1.838c0.538,0.382,8.039,4.062,8.578,4.442c2.22,1.433,15.088,9.712,19.084,13.205c2.161-2.108,2.4-3.017,2.4-3.017s-15.519-8.533-16.035-9.708c-0.52-1.175,0.565-4.042,0.937-4.186c0.37-0.142-4.524,2.595-5.485,2.051c-0.965-0.545-5.118-2.671-5.868-4.277s-1.336-5.926-1.336-5.926L287.683,362.948z"></path><path style="fill:#6E6E6E;stroke:#000000;stroke-linecap:round;stroke-linejoin:round;" d="M301.711,361.387c-1.032,0.316-3.626,3.419-3.626,3.419s-2.053,3.48-2.009,4.558c0.02,0.422,0.652,2.701,1.133,2.593c0.48-0.109,2.516-0.317,2.516-0.317s0.849-2.538,2.047-4.233c1.194-1.695,3.302-3.345,3.302-3.345s-0.482-1.984-0.541-2.474C304.475,361.095,302.113,361.262,301.711,361.387z"></path><path style="fill:#F5D957;stroke:#000000;stroke-linecap:round;stroke-linejoin:round;" d="M320.554,374.745c0,0-1.828,2.21-2.971,3.826c-1.144,1.615-2.611,4.081-2.611,4.081l2.092,3.9l5.19-4.684l2.677-6.457L320.554,374.745z"></path><path style="fill:#F5D957;stroke:#000000;stroke-linecap:round;stroke-linejoin:round;" d="M289.922,351.769c0,0-2.568-2.084-3.849-2.179c-1.276-0.096-6.228,2.335-6.228,2.335s-0.634,5.476-0.115,6.648c0.518,1.174,3.34,2.898,3.34,2.898l0.675,2.092c0,0,3.985-0.685,4.673-1.276c0.687-0.594,1.313-3.383,1.313-3.383s2.42-1.522,2.748-2.368c0.327-0.846-0.359-4.831-0.359-4.831L289.922,351.769z"></path><path style="fill:#DBA117;" d="M283.402,361l0.557,2.01c0,0,3.382-0.215,4.138-1.029c0.752-0.813,1.448-3.195,1.448-3.195s2.446-1.685,2.621-2.188c0.177-0.505-0.364-4.566-0.364-4.566l-2.242,0.122c0,0,0.585,2.479,0.18,3.179c-0.406,0.702-2.812,1.693-2.812,1.693s0.26,2.43-0.571,3.098C285.523,360.793,283.402,361,283.402,361z"></path><path style="fill:#6E6E6E;stroke:#000000;stroke-linecap:round;stroke-linejoin:round;" d="M341.555,366.549c-6.993,2.47-19.839,14.941-19.839,14.941s-7.456,16.277-7.441,23.694c0.001,0.329,4.66,1.405,4.66,1.405s5.756-14.248,9.878-20.089c4.125-5.838,15.626-16.03,15.626-16.03S341.865,366.44,341.555,366.549z"></path><rect x="317.308" y="381.155" transform="matrix(0.5768 -0.8169 0.8169 0.5768 -176.5117 428.2083)" style="fill:#505050;" width="15.397" height="6.599"></rect><g><path style="fill:#F5D957;stroke:#000000;stroke-linecap:round;stroke-linejoin:round;" d="M317.503,408.731c1.551,0.563,3.22,1.158,4.718,1.661c-1.067-6.14,4.492-17.835,8.044-22.865c3.556-5.032,12.715-14.181,18.856-15.229c-0.975-1.245-2.094-2.618-3.144-3.891c-11.396,3.126-20.578,15.684-20.578,15.684S316.635,396.945,317.503,408.731z"></path><path style="fill:#DBA117;" d="M341.896,370.833l2.331,2.992c0,0-3.501,0.762-10.77,8.958c-1.392-1.51-3.085-3.257-3.085-3.257S336.623,372.871,341.896,370.833z"></path><path style="fill:#DBA117;" d="M318.399,404.107l3.601,1.196c0,0-0.454-3.552,4.837-13.145c-1.888-0.807-4.1-1.818-4.1-1.818S318.555,398.457,318.399,404.107z"></path><path style="fill:#FFFFA8;" d="M321.245,393.47l4.169,1.597c0,0,1.971-4.443,2.832-5.54c-2.589-1.29-4.16-1.861-4.16-1.861S321.781,391.693,321.245,393.47z"></path><path style="fill:#F5D957;stroke:#000000;stroke-linecap:round;stroke-linejoin:round;" d="M344.866,367.067c-1.502-1.803-2.655-3.149-2.655-3.149c-12.283,2.098-22.531,16.134-22.531,16.134s-9.802,14.355-7.667,26.632c0,0,1.656,0.636,3.856,1.447c-1.211-11.939,7.853-25.225,7.853-25.225S333.207,369.922,344.866,367.067z"></path><path style="fill:#DBA117;" d="M337.846,365.893l1.766,2.458c0,0-5.578,1.984-11.271,8.333c-1.301-1.591-2.305-2.839-2.305-2.839S332.46,367.608,337.846,365.893z"></path><path style="fill:#DBA117;" d="M312.389,401.944l2.906,0.84c0,0,0.007-5.919,4.084-13.408c-1.936-0.691-3.447-1.221-3.447-1.221S312.204,396.294,312.389,401.944z"></path></g><linearGradient id="leftXMLID_107_" gradientUnits="userSpaceOnUse" x1="341.3926" y1="334.0508" x2="335.4692" y2="255.0731" gradientTransform="matrix(0.5768 -0.8168 0.8168 0.5768 -5.7858 569.2458)"><stop offset="0" style="stop-color:#FFFFFF"></stop><stop offset="0.4438" style="stop-color:#000000"></stop><stop offset="1" style="stop-color:#B2B2B2"></stop></linearGradient><path style="opacity:0.48;fill:url(#leftXMLID_107_);" d="M454.015,478.244l4.038-0.379l8.499,6.27c0,0-9.029-0.183-11.978-1.726c-2.949-1.543-66.351-45.233-66.351-45.233l3.364-2.473L454.015,478.244z"></path></g></g></g></svg>