<svg xmlns="http://www.w3.org/2000/svg" width="500" height="500" version="1.1"><g id="x143"><path style="fill:#78A638;stroke:#000000;" d="M327.73,285.514c0,0,2.942,22.056-2.121,30.358l3.062-0.548C328.671,315.324,332.826,295.468,327.73,285.514z"></path><path style="fill:#78A638;stroke:#000000;" d="M363.427,248.541c0,0,2.561,15.419-2.645,21.331l3.067-0.435C363.85,269.438,368.343,255.435,363.427,248.541z"></path><g><g><g><path style="fill:#A6D513;stroke:#000000;" d="M312.945,258.188c1.942,6.347,10.986,16.833,10.986,16.833s1.625-13.753-0.32-20.096c-1.94-6.352-9.984-13.547-9.984-13.547S311,251.842,312.945,258.188z"></path><path style="fill:#D9EFA8;" d="M317.867,256.681c1.946,6.346,6.064,18.341,6.064,18.341s-3.297-12.242-5.242-18.593c-1.944-6.345-5.063-15.05-5.063-15.05S315.923,250.336,317.867,256.681z"></path></g><g><path style="fill:#3B871B;stroke:#000000;" d="M326.515,271.909c-1.012,6.556,2.574,19.935,2.574,19.935s7.441-11.68,8.455-18.236c1.009-6.559-3.095-16.545-3.095-16.545S327.528,265.349,326.515,271.909z"></path><path style="fill:#D9EFA8;" d="M331.604,272.691c-1.011,6.556-2.516,19.152-2.516,19.152s2.352-12.463,3.365-19.022c1.011-6.558,1.995-15.759,1.995-15.759S332.614,266.133,331.604,272.691z"></path></g><g><path style="fill:#78A638;stroke:#000000;" d="M314.204,283.99c-4.513-4.868-9.036-17.958-9.036-17.958s12.708,5.506,17.219,10.374c4.511,4.866,6.702,15.438,6.702,15.438S318.716,288.858,314.204,283.99z"></path><path style="fill:#D9EFA8;" d="M317.979,280.489c-4.512-4.866-12.812-14.457-12.812-14.457s8.931,9.007,13.442,13.873c4.511,4.873,10.479,11.938,10.479,11.938S322.492,285.357,317.979,280.489z"></path></g></g><g><g><path style="fill:#A6D513;stroke:#000000;" d="M393.001,273.999c-6.297,2.095-16.562,11.39-16.562,11.39s13.788,1.292,20.087-0.808c6.296-2.095,13.301-10.311,13.301-10.311S399.294,271.898,393.001,273.999z"></path><path style="fill:#D9EFA8;" d="M394.626,278.881c-6.297,2.099-18.187,6.508-18.187,6.508s12.16-3.592,18.457-5.692c6.299-2.098,14.931-5.426,14.931-5.426S400.923,276.786,394.626,278.881z"></path></g><g><path style="fill:#3B871B;stroke:#000000;" d="M379.616,287.896c-6.583-0.855-19.869,3.056-19.869,3.056s11.854,7.155,18.438,8.007c6.577,0.853,16.461-3.492,16.461-3.492S386.196,288.747,379.616,287.896z"></path><path style="fill:#D9EFA8;" d="M378.955,293.003c-6.583-0.854-19.208-2.051-19.208-2.051s12.517,2.05,19.097,2.901c6.583,0.851,15.803,1.613,15.803,1.613S385.537,293.854,378.955,293.003z"></path></g><g><path style="fill:#78A638;stroke:#000000;" d="M367.238,275.88c4.756-4.627,17.733-9.467,17.733-9.467s-5.196,12.837-9.954,17.467c-4.756,4.627-15.271,7.072-15.271,7.072S362.479,280.509,367.238,275.88z"></path><path style="fill:#D9EFA8;" d="M370.829,279.569c4.759-4.626,14.143-13.156,14.143-13.156s-8.788,9.147-13.544,13.773c-4.757,4.628-11.681,10.766-11.681,10.766S366.071,284.199,370.829,279.569z"></path></g></g><g><g><path style="fill:#A6D513;stroke:#000000;" d="M419.571,211.545c-5.643,3.488-13.484,14.902-13.484,14.902s13.712-1.923,19.355-5.418c5.645-3.493,10.568-13.099,10.568-13.099S425.216,208.051,419.571,211.545z"></path><path style="fill:#D9EFA8;" d="M422.28,215.92c-5.639,3.494-16.193,10.527-16.193,10.527s11.002-6.299,16.647-9.795c5.646-3.493,13.276-8.723,13.276-8.723S427.925,212.428,422.28,215.92z"></path></g><g><path style="fill:#3B871B;stroke:#000000;" d="M409.752,228.152c-6.599,0.69-18.626,7.555-18.626,7.555s13.185,4.235,19.787,3.541c6.601-0.686,15.212-7.197,15.212-7.197S416.354,227.464,409.752,228.152z"></path><path style="fill:#D9EFA8;" d="M410.29,233.278c-6.602,0.685-19.164,2.429-19.164,2.429s12.651-0.887,19.251-1.581c6.602-0.687,15.748-2.076,15.748-2.076S416.894,232.585,410.29,233.278z"></path></g><g><path style="fill:#78A638;stroke:#000000;" d="M394.939,219.316c3.563-5.6,15.071-13.3,15.071-13.3s-2.098,13.688-5.654,19.29c-3.563,5.599-13.23,10.402-13.23,10.402S391.378,224.917,394.939,219.316z"></path><path style="fill:#D9EFA8;" d="M399.286,222.078c3.561-5.601,10.725-16.062,10.725-16.062s-6.443,10.925-10.002,16.525c-3.562,5.598-8.883,13.167-8.883,13.167S395.725,227.68,399.286,222.078z"></path></g></g><path style="fill:#78A638;stroke:#000000;" d="M365.384,289.962c0,0-21.354,6.237-26.894,14.233l-0.742-3.02C337.748,301.176,354.219,289.336,365.384,289.962z"></path><g><g><g><path style="fill:#A6D513;stroke:#000000;" d="M294.218,287.088c1.526,6.46,9.871,17.511,9.871,17.511s2.514-13.615,0.988-20.073c-1.53-6.462-9.085-14.174-9.085-14.174S292.691,280.627,294.218,287.088z"></path><path style="fill:#D9EFA8;" d="M299.23,285.906c1.524,6.456,4.858,18.692,4.858,18.692s-2.499-12.434-4.025-18.89c-1.524-6.463-4.071-15.357-4.071-15.357S297.702,279.446,299.23,285.906z"></path></g><g><path style="fill:#3B871B;stroke:#000000;" d="M306.867,301.66c-1.437,6.479,1.268,20.063,1.268,20.063s8.188-11.17,9.624-17.65c1.437-6.479-2.012-16.709-2.012-16.709S308.303,295.181,306.867,301.66z"></path><path style="fill:#D9EFA8;" d="M311.894,302.772c-1.436,6.482-3.759,18.95-3.759,18.95s3.16-12.283,4.599-18.762c1.435-6.481,3.014-15.598,3.014-15.598S313.33,296.289,311.894,302.772z"></path></g><g><path style="fill:#78A638;stroke:#000000;" d="M293.794,312.915c-4.185-5.152-7.845-18.507-7.845-18.507s12.32,6.32,16.505,11.47c4.185,5.153,5.681,15.845,5.681,15.845S297.978,318.064,293.794,312.915z"></path><path style="fill:#D9EFA8;" d="M297.79,309.665c-4.184-5.147-11.841-15.257-11.841-15.257s8.324,9.567,12.509,14.718c4.184,5.153,9.677,12.597,9.677,12.597S301.977,314.816,297.79,309.665z"></path></g></g><path style="fill:#78A638;stroke:#000000;" d="M307.92,319.793c0,0,6.723,21.206,3.175,30.262l2.921-1.069C314.016,348.985,314.662,328.71,307.92,319.793z"></path></g><g><g><g><path style="fill:#A6D513;stroke:#000000;" d="M378.624,366.847c-6.352-1.929-16.854-10.952-16.854-10.952s13.746-1.653,20.097,0.278c6.352,1.929,13.573,9.954,13.573,9.954S384.973,368.779,378.624,366.847z"></path><path style="fill:#D9EFA8;" d="M380.122,361.921c-6.351-1.933-18.353-6.026-18.353-6.026s12.25,3.273,18.6,5.203c6.351,1.932,15.07,5.029,15.07,5.029S386.469,363.852,380.122,361.921z"></path></g><g><path style="fill:#3B871B;stroke:#000000;" d="M364.874,353.311c-6.556,1.025-19.942-2.53-19.942-2.53s11.662-7.47,18.22-8.495c6.559-1.027,16.552,3.058,16.552,3.058S371.432,352.284,364.874,353.311z"></path><path style="fill:#D9EFA8;" d="M364.08,348.222c-6.558,1.023-19.148,2.559-19.148,2.559s12.458-2.383,19.017-3.408c6.555-1.022,15.755-2.029,15.755-2.029S370.64,347.196,364.08,348.222z"></path></g><g><path style="fill:#78A638;stroke:#000000;" d="M352.822,365.646c4.875,4.498,17.977,8.993,17.977,8.993s-5.535-12.693-10.409-17.192c-4.881-4.5-15.458-6.667-15.458-6.667S347.943,361.146,352.822,365.646z"></path><path style="fill:#D9EFA8;" d="M356.314,361.863c4.878,4.498,14.484,12.776,14.484,12.776s-9.027-8.91-13.904-13.409c-4.881-4.5-11.963-10.45-11.963-10.45S351.437,357.359,356.314,361.863z"></path></g></g><path style="fill:#78A638;stroke:#000000;" d="M346.843,351.115c0,0-20.74-8.043-30.003-5.069l1.253-2.853C318.093,343.193,338.367,343.827,346.843,351.115z"></path></g><g><g><g><path style="fill:#A6D513;stroke:#000000;" d="M366.664,322.67c-5.688,3.416-19.426,5.163-19.426,5.163s7.991-11.311,13.678-14.728c5.691-3.419,16.489-3.394,16.489-3.394S372.354,319.251,366.664,322.67z"></path><path style="fill:#D9EFA8;" d="M364.011,318.254c-5.688,3.416-16.772,9.579-16.772,9.579s10.644-6.898,16.331-10.313c5.69-3.416,13.836-7.808,13.836-7.808S369.701,314.837,364.011,318.254z"></path></g><g><path style="fill:#3B871B;stroke:#000000;" d="M347.4,323.791c-3.634,5.552-15.244,13.101-15.244,13.101s2.274-13.664,5.91-19.215c3.637-5.553,13.368-10.226,13.368-10.226S351.035,318.236,347.4,323.791z"></path><path style="fill:#D9EFA8;" d="M343.095,320.968c-3.637,5.556-10.938,15.924-10.938,15.924s6.584-10.843,10.217-16.394c3.639-5.552,9.062-13.047,9.062-13.047S346.731,315.415,343.095,320.968z"></path></g><g><path style="fill:#78A638;stroke:#000000;" d="M348.472,341.008c6.608-0.601,18.729-7.309,18.729-7.309s-13.129-4.407-19.738-3.804c-6.607,0.6-15.306,6.996-15.306,6.996S341.864,341.608,348.472,341.008z"></path><path style="fill:#D9EFA8;" d="M348.008,335.878c6.609-0.604,19.192-2.179,19.192-2.179s-12.665,0.725-19.27,1.324c-6.612,0.602-15.774,1.868-15.774,1.868S341.397,336.478,348.008,335.878z"></path></g></g><path style="fill:#78A638;stroke:#000000;" d="M333.686,335.698c0,0-19.876,9.994-23.88,18.858l-1.276-2.836C308.529,351.721,322.593,337.099,333.686,335.698z"></path></g><g><g><path style="fill:#A6D513;stroke:#000000;" d="M348.432,217.416c1.941,6.35,10.991,16.833,10.991,16.833s1.621-13.753-0.322-20.096c-1.942-6.352-9.985-13.548-9.985-13.548S346.488,211.071,348.432,217.416z"></path><path style="fill:#D9EFA8;" d="M353.356,215.912c1.943,6.343,6.066,18.337,6.066,18.337s-3.301-12.243-5.246-18.589c-1.944-6.345-5.062-15.054-5.062-15.054S351.41,209.564,353.356,215.912z"></path></g><g><path style="fill:#3B871B;stroke:#000000;" d="M362.003,231.139c-1.009,6.555,2.573,19.935,2.573,19.935s7.44-11.682,8.455-18.239c1.012-6.558-3.097-16.542-3.097-16.542S363.014,224.577,362.003,231.139z"></path><path style="fill:#D9EFA8;" d="M367.093,231.921c-1.009,6.555-2.517,19.152-2.517,19.152s2.355-12.464,3.366-19.024c1.009-6.558,1.992-15.757,1.992-15.757S368.104,225.361,367.093,231.921z"></path></g><g><path style="fill:#78A638;stroke:#000000;" d="M349.693,243.219c-4.513-4.866-9.037-17.958-9.037-17.958s12.707,5.507,17.22,10.374c4.509,4.865,6.7,15.439,6.7,15.439S354.203,248.086,349.693,243.219z"></path><path style="fill:#D9EFA8;" d="M353.466,239.718c-4.51-4.867-12.81-14.458-12.81-14.458s8.93,9.01,13.442,13.873c4.511,4.873,10.478,11.94,10.478,11.94S357.981,244.585,353.466,239.718z"></path></g></g><path style="fill:#78A638;stroke:#000000;stroke-linecap:round;stroke-linejoin:round;" d="M320.575,334.654c0,0-10.294,16.411-28.228,55.841l-6.327-3.904c0,0,12.051-28.476,30.29-55.29L320.575,334.654z"></path><path style="fill:#78A638;stroke:#000000;stroke-linecap:round;stroke-linejoin:round;" d="M361.147,273.663c0,0-14.991,18.692-38.919,58.484l-4.262-3.351c0,0,15.152-28.137,40.413-57.313L361.147,273.663z"></path><path style="fill:#78A638;stroke:#000000;stroke-linecap:round;stroke-linejoin:round;" d="M390.667,237.916c0,0-8.017,7.697-27.988,33.701l-2.768-2.176c0,0,14.361-16.772,29.09-32.451L390.667,237.916z"></path></g><path style="fill:#7BCAB4;stroke:#000000;" d="M403.262,239.903l-12.703-0.128c0,0-0.31,23.755-5.589,31.106l13.918,3.399C398.888,274.281,404.789,252.55,403.262,239.903z"></path><polygon style="fill:#FBCE5F;stroke:#000000;" points="362.385,299.5 355.274,332.445 341.063,325.782 351.942,291.56 "></polygon><g><path style="fill:#F74141;stroke:#000000;" d="M322.525,356.264c0,0,0.073,5.137-1.521,10.393c-1.481,4.873-3.477,4.782-3.477,4.782L314.2,369.5l4.722-12.28l2.015-0.106"></path><path style="fill:#F74141;stroke:#000000;" d="M328.089,327.702c0,0,0.074,5.139-1.521,10.391c-1.485,4.876-3.478,4.786-3.478,4.786l-3.327-1.939l4.724-12.279l2.013-0.107"></path><g><path style="fill:#FBCE5F;stroke:#000000;" d="M314.868,318.588c-0.611,6.255,2.988,11.748,8.023,12.243c5.041,0.493,9.642-4.194,10.258-10.447c0.612-6.253-2.987-11.745-8.025-12.244C320.083,307.646,315.482,312.333,314.868,318.588z M324.649,312.924c2.362,0.234,4.064,3.436,3.716,6.99c-0.35,3.555-2.643,6.363-5.003,6.134c-2.357-0.232-4.058-3.435-3.709-6.991C320.002,315.502,322.292,312.693,324.649,312.924z"></path></g><g><path style="fill:#FBCE5F;stroke:#000000;" d="M311.815,346.382c-0.613,6.251,2.366,11.487,6.779,11.921c4.414,0.432,8.352-4.125,8.966-10.376c0.359-3.65-0.532-7.178-2.386-9.436c-1.197-1.46-2.717-2.318-4.393-2.483c-1.675-0.165-3.33,0.38-4.79,1.577C313.735,339.438,312.173,342.728,311.815,346.382z M320.351,340.396c0.494,0.049,0.97,0.349,1.417,0.892c1.109,1.354,1.648,3.731,1.404,6.207c-0.38,3.869-2.503,6.579-4.146,6.417c-1.644-0.161-3.2-3.232-2.82-7.102c0.242-2.477,1.232-4.706,2.586-5.816C319.334,340.55,319.857,340.348,320.351,340.396z"></path></g><path style="fill:#F85D47;stroke:#000000;" d="M321.124,324.466c1.097-0.65,3.354-0.925,4.442,0.793c0,0-2.479-0.347-4.652,6.464c-2.602,8.143,1.04,9.889,1.04,9.889l-4.87,1.025C317.084,342.637,312.065,329.852,321.124,324.466z"></path><g><path style="fill:#FBCE5F;stroke:#000000;" d="M306.252,374.942c-0.612,6.249,2.366,11.486,6.78,11.921c1.674,0.164,3.328-0.382,4.786-1.579c2.258-1.854,3.821-5.144,4.179-8.797c0.614-6.251-2.363-11.486-6.779-11.92C310.803,364.137,306.865,368.693,306.252,374.942z M314.786,368.956c1.646,0.161,3.202,3.232,2.822,7.101c-0.242,2.479-1.235,4.707-2.589,5.82c-0.542,0.444-1.065,0.646-1.556,0.597c-1.646-0.161-3.202-3.233-2.823-7.102C311.021,371.506,313.144,368.796,314.786,368.956z"></path></g><path style="fill:#F85D47;stroke:#000000;" d="M315.562,353.029c1.097-0.651,3.354-0.926,4.443,0.793c0,0-2.481-0.349-4.655,6.461c-2.599,8.144,1.041,9.891,1.041,9.891l-4.871,1.026C311.52,371.2,306.502,358.414,315.562,353.029z"></path></g><g><rect x="351.165" y="252.673" transform="matrix(-0.8276 -0.5613 0.5613 -0.8276 509.9339 677.6829)" style="fill:#F85D47;stroke:#000000;" width="15.73" height="15.729"></rect><rect x="354.516" y="270.154" transform="matrix(-0.8276 -0.5614 0.5614 -0.8276 506.1949 711.5271)" style="fill:#FBCE5F;stroke:#000000;" width="15.729" height="15.726"></rect><polygon style="fill:#FFBF5C;stroke:#000000;" points="354.811,297.59 367.824,306.418 376.657,293.403 363.638,284.572 "></polygon><rect x="361.224" y="305.111" transform="matrix(-0.8276 -0.5613 0.5613 -0.8276 498.888 779.1615)" style="fill:#7BCAB4;stroke:#000000;" width="15.725" height="15.728"></rect></g><polygon style="fill:#FFBF5C;stroke:#000000;" points="341.853,329.161 337.11,334.569 329.966,333.726 333.643,339.906 330.632,346.443 337.648,344.856 342.934,349.738 343.594,342.572 349.868,339.057 343.261,336.216 "></polygon><polygon style="fill:#FFBF5C;stroke:#000000;" points="390.277,221.472 385.534,226.878 378.392,226.037 382.066,232.217 379.06,238.753 386.073,237.167 391.358,242.047 392.018,234.883 398.292,231.367 391.685,228.524 "></polygon></g></svg>