<svg xmlns="http://www.w3.org/2000/svg" width="500" height="500" version="1.1"><g id="x9144"><g><g><path style="fill:#FEFEFE;stroke:#000000;stroke-linecap:round;stroke-linejoin:round;" d="M306.89,365.685c0.732-1.193,1.826-1.19,1.697-0.624c-0.359,2.687-0.602,6.877-0.195,13.046c0.844,12.805,3.507,36.271-4.135,44.527c-0.59-0.486-1.483,0.086-1.483,0.086s5.118-9.848,4.92-18.521c-2.396,8.823-5.462,15.946-7.038,17.425c-3.269,1.23-8.171,3.076-13.505-1.654c-5.336-4.73-6.683-13.859-6.683-13.859s8.011-5.496,14.279-17.667C299.839,378.554,304.25,370.454,306.89,365.685z"></path><path style="fill:#C3B5B0;" d="M305.779,405.294c0,0-2.307,12.984-6.04,15.631c-3.997,1.445-8.227,2.209-12.219-1.904c-3.992-4.111-5.977-11.641-5.977-11.641s6.33-5.574,9.299-8.523c-3.921,5.436-5.107,10.02-3.336,11.482c2.314,1.91,7.542-1.303,8.019-2.547c-0.362,2.975-1.629,6.348,0.826,6.9C298.808,415.245,305.779,405.294,305.779,405.294z"></path><path style="fill:#C3B5B0;" d="M292.762,413.856c0,0,4.742-4.266,7.833-13.823c-0.775,10.813-5.09,15.923-5.09,15.923L292.762,413.856z"></path></g><g><g><g id="leftXMLID_3_"><g><path style="fill:#FFF2E8;" d="M326.21,391.792c0.044-1.9,1.032-5.398,4.412-7.111c-1.979-0.26-4.7-2.843-5.949-4.6c1.916-0.343,3.28-1.344,4.663-2.58c1.18,1.211,3.532,2.938,6.771,1.954c4.747-1.45,6.092-3.452,6.092-3.452s-5.926-0.848-7.782-3.684c1.731-2.201,4.64-7.834,5.687-11.523c0.765,1.84,4.206,9.483,7.124,5.865c4.69-5.787-2.968-20.234-2.968-20.234c-4.208-7.552-12.039-10.111-13.391-10.805c-1.336-0.693-0.284-2.533-0.284-2.533s4.534-3.547,13.541,2.031c9.004,5.592,15.293,16.828,16.193,22.706c2.405-2.468,5.787-4.429,5.862-10.86c0.074-6.415-9.288-12.196-9.288-12.196s8.022-1.681,12.236,4.731c4.196,6.426,0.284,16-3.577,20.547c-3.845,4.548-8.38,10.875-7.223,15.627c2.988-1.639,7.284-5.811,7.284-5.811s-4.593,15.272-15.095,21.765c0.941-2.82,2.922-11.387,2.794-13.382c-2.383,0.635-8.54,5.041-8.281,9.227c0.273,4.187,4.542,4.265,4.542,4.265l-5.431,5.924c0,0-4.299,0.17-4.919-2.897c-0.619-3.08,0.321-5.887,0.321-5.887s-3.947,3.234-4.638,7.794c-0.689,4.558-0.56,5.26-0.56,5.26s-8.272-4.144-10.707-7.864c-2.438-3.704-9.181-5.852-15.61-17.625c-5.047-9.201-5.929-18.982-6.078-22.813c1.247,1.132,2.557,1.989,4.063,2.597c-0.411,0.988-0.551,2.341-0.326,3.828c0.447,2.766,2.044,4.836,3.564,4.623c1.441-0.191,2.794-2.944,2.484-5.547c2.607,2.117,3.906,6.755,3.463,9.062c-0.874,4.646-6.384,2.31-6.384,2.31s1.059,4.664,5.441,7.362c3.008,3.407,4.577,3.752,4.577,3.752l-1.149,1.766C317.686,383.381,321.441,389.516,326.21,391.792z"></path></g><path style="fill:#C3B0AC;" d="M305.784,354.53c0,0-1.283,7.487,2.291,9.615c3.573,2.129,3.91-5.416,3.91-5.416l4.031,11.632l-4.396,0.743l-2.811-0.602c0,0,3.389,6.575,5.515,8.095c2.129,1.519,4.537,1.664,4.537,1.664l-0.797,3.427c0,0,1.305,2.218,3.405,4.329c1.917,1.926,4.642,3.762,4.744,3.782c0.216,0.04,0.964-2.693,0.964-2.693l7.841,4.993l-0.333,7.449c0,0-9.778-3.895-11.861-8.711c-7.313-4.935-15.034-13.594-17.892-23.323c-2.858-9.729-2.807-16.153-2.807-16.153L305.784,354.53z"></path><g><path style="fill:none;stroke:#000000;stroke-linecap:round;stroke-linejoin:round;" d="M358.329,375.675c-1.157-4.752,3.378-11.079,7.223-15.627c3.861-4.547,7.773-14.121,3.577-20.547c-4.214-6.412-12.236-4.731-12.236-4.731s9.362,5.781,9.288,12.196c-0.075,6.432-3.457,8.393-5.862,10.86c-0.9-5.878-7.189-17.114-16.193-22.706c-9.007-5.578-13.541-2.031-13.541-2.031s-1.052,1.84,0.284,2.533c1.352,0.693,9.183,3.253,13.391,10.805c0,0,7.658,14.447,2.968,20.234c-2.918,3.618-6.359-4.025-7.124-5.865c-1.047,3.689-3.955,9.322-5.687,11.523c1.856,2.836,7.782,3.684,7.782,3.684s-1.345,2.002-6.092,3.452c-3.238,0.984-5.591-0.743-6.771-1.954c-1.383,1.236-2.747,2.237-4.663,2.58c1.249,1.757,3.971,4.34,5.949,4.6c-3.38,1.713-4.368,5.211-4.412,7.111c-4.769-2.276-8.524-8.411-8.524-8.411l1.149-1.766c0,0-1.569-0.345-4.577-3.752c-4.383-2.698-5.441-7.362-5.441-7.362s5.51,2.337,6.384-2.31c0.443-2.307-0.855-6.944-3.463-9.062c0.31,2.603-1.043,5.355-2.484,5.547c-1.521,0.213-3.117-1.857-3.564-4.623c-0.225-1.487-0.085-2.84,0.326-3.828c-1.506-0.607-2.815-1.465-4.063-2.597c0.149,3.831,1.031,13.612,6.078,22.813c6.43,11.773,13.173,13.921,15.61,17.625c2.435,3.721,10.707,7.864,10.707,7.864s-0.13-0.702,0.56-5.26c0.69-4.56,4.638-7.794,4.638-7.794s-0.94,2.807-0.321,5.887c0.62,3.067,4.919,2.897,4.919,2.897l5.431-5.924c0,0-4.269-0.078-4.542-4.265c-0.259-4.186,5.898-8.592,8.281-9.227c0.128,1.995-1.853,10.562-2.794,13.382c10.502-6.492,15.095-21.765,15.095-21.765S361.317,374.036,358.329,375.675z"></path></g></g><g><path style="fill:#6E6E6E;stroke:#000000;stroke-linecap:round;stroke-linejoin:round;" d="M322.111,318.499c-10.656-3.853-18.773,2.334-18.773,2.334l-0.313,4.498c-0.543-0.207-2.224-0.135-2.224-0.135s-3.733,5.506-3.164,13.357c0.569,7.853,3.633,14.641,5.886,17.035c2.767,0.342,6.88,0.07,8.642,4.174c1.761,4.102,4.123,12.932-1.351,19.375c1.225,1.117,22.425,9.353,30.842-23.318C346.167,338.313,334.817,323.092,322.111,318.499z"></path><path style="opacity:0.5;fill:#FFFFFF;" d="M303.938,321.541l-0.27,1.2c0,0,5.084-5.702,16.356-1.891s21.64,15.281,19.088,34.792c-2.231,17.059-17.436,23.784-17.436,23.784s15.539-4.895,18.793-23.98s-6.21-29.62-18.342-35.338C312.937,315.778,303.938,321.541,303.938,321.541z"></path><path style="fill:#505050;" d="M316.799,351.125c0,0-1.354,3.393,2.781,8.16c4.134,4.769,9.641,3.191,12.727,1.642c3.085-1.55,6.027-14.4,6.027-14.4s1.403,25.275-11.459,30.922s-14.067,1.579-14.067,1.579s4.046-3.903,2.979-13.37c-1.38-12.245-11.508-11.123-11.508-11.123s-9.916-12.589-3.051-28.328c1.589,3.918,4.598,8.791,4.598,8.791s-2.669,6.266,1.022,12.05C311.867,354.911,316.799,351.125,316.799,351.125z"></path><path style="opacity:0.3;fill:#FFFFFF;" d="M318.651,340.684c1.769,4.608,0.546,9.229-2.732,10.323c-3.277,1.094-7.367-1.756-9.134-6.363c-1.767-4.605-0.546-9.228,2.732-10.32C312.795,333.229,316.885,336.077,318.651,340.684z"></path><path style="fill:#505050;" d="M318.651,340.684c-1.231-3.211-3.593-5.563-6.021-6.325l-0.36,3.346c1.688-0.039,3.545,1.473,4.412,3.735c1.002,2.614,0.307,5.237-1.554,5.857c-0.163,0.056-0.332,0.09-0.502,0.11c-0.144,1.4,0.259,2.633,0.971,3.684c0.108-0.028,0.215-0.049,0.321-0.084C319.197,349.913,320.42,345.292,318.651,340.684z"></path><path style="opacity:0.5;fill:#FFFFFF;" d="M316.683,341.439c1.002,2.614,0.307,5.237-1.554,5.857c-1.858,0.62-4.179-0.995-5.18-3.61c-1.002-2.614-0.307-5.236,1.554-5.857C313.361,337.208,315.682,338.826,316.683,341.439z"></path><path style="fill:none;stroke:#000000;stroke-linecap:round;stroke-linejoin:round;" d="M316.683,341.439c1.002,2.614,0.307,5.237-1.554,5.857c-1.858,0.62-4.179-0.995-5.18-3.61c-1.002-2.614-0.307-5.236,1.554-5.857C313.361,337.208,315.682,338.826,316.683,341.439z"></path></g><g><path style="fill:#FEFEFE;stroke:#000000;stroke-linecap:round;stroke-linejoin:round;" d="M360.768,365.488c-0.504-1.293-1.582-1.464-1.559-0.886c-0.137,2.705-0.664,6.873-2.191,12.887c-3.171,12.482-10.083,35.182-4.062,44.533c0.67-0.387,1.446,0.32,1.446,0.32s-3.245-10.518-1.465-19.031c0.749,9.074,2.469,16.58,3.752,18.291c2.995,1.73,7.488,4.33,13.609,0.518c6.122-3.811,9.116-12.592,9.116-12.592s-6.889-6.69-10.841-19.682C365.363,379.291,362.498,370.607,360.768,365.488z"></path><path style="fill:#C3B5B0;" d="M354.624,404.694c0,0-0.1,13.162,3.096,16.363c3.674,2.061,7.702,3.486,12.388,0.07c4.685-3.416,8.016-10.52,8.016-10.52s-5.219-6.501-7.604-9.879c2.87,5.98,3.201,10.686,1.188,11.844c-2.63,1.514-7.193-2.482-7.436-3.785c-0.187,2.988,0.445,6.514-2.075,6.668S354.624,404.694,354.624,404.694z"></path><path style="fill:#C3B5B0;" d="M365.887,415.204c0,0-3.894-4.959-5.192-14.868c-1.212,10.778,2.105,16.501,2.105,16.501L365.887,415.204z"></path></g></g><path style="fill:#FFFFFF;" d="M322.355,324.25c-0.716,1.548-2.834,2.179-4.733,1.407c-1.9-0.772-2.862-2.654-2.146-4.203c0.714-1.549,2.832-2.178,4.732-1.406S323.069,322.701,322.355,324.25z"></path></g></g></g></svg>