<svg xmlns="http://www.w3.org/2000/svg" width="500" height="500" version="1.1"><g id="x9145"><g><path style="fill:#FF5443;stroke:#000000;stroke-linecap:round;stroke-linejoin:round;" d="M332.456,332.883c0.833,0.456,1.818,0.353,2.534-0.179c-0.022,0.33-0.109,0.659-0.28,0.968c-0.623,1.141-2.058,1.559-3.197,0.933c-1.14-0.625-1.559-2.06-0.934-3.199c0.171-0.308,0.4-0.561,0.666-0.756C331.184,331.54,331.625,332.425,332.456,332.883z"></path><path style="fill:#FF5443;stroke:#000000;stroke-linecap:round;stroke-linejoin:round;" d="M335.683,325.469c-0.141-0.15,0.935-1.431,2.174-1.645c1.237-0.219,1.703,0.708,1.703,0.708s-1.294-4.253-2.934-3.772C333.778,321.589,335.683,325.469,335.683,325.469z"></path><linearGradient id="leftXMLID_108_" gradientUnits="userSpaceOnUse" x1="972.8633" y1="206.7925" x2="1110.3434" y2="203.9117" gradientTransform="matrix(0.481 -0.8767 -0.8767 -0.481 55.5748 1268.5022)"><stop offset="0" style="stop-color:#402222"></stop><stop offset="1" style="stop-color:#8192A5"></stop></linearGradient><path style="fill:url(#leftXMLID_108_);stroke:#000000;stroke-linecap:round;stroke-linejoin:round;" d="M415.906,178.55c-4.546,10.871-74.189,128.574-84.661,145.755c-7.563,12.41-32.072,47.44-32.072,47.44s0.995,3.086,2.101,3.245c1.109,0.159,3.713-0.504,3.713-0.504l23.436-29.109c0,0-0.716-2.78,0.447-4.084c1.642-0.945,7.627-3.488,12.917-5.307c-0.013-2.582-0.322-5.865-0.348-6.14c4.859-8.397,64.453-111.415,71.899-125.378C415.312,191.886,416.563,182.119,415.906,178.55z M312.747,358.435c0.568,0.312,0.779,1.029,0.467,1.6c-0.313,0.57-1.031,0.778-1.602,0.467c-0.568-0.313-0.778-1.031-0.466-1.602C311.461,358.33,312.178,358.122,312.747,358.435z M321.154,346.919c0.57,0.313,0.781,1.028,0.469,1.599c-0.315,0.571-1.032,0.78-1.602,0.467c-0.57-0.313-0.781-1.029-0.466-1.602C319.868,346.813,320.585,346.604,321.154,346.919z M333.636,330.767c1.028,0.565,1.406,1.858,0.843,2.889c-0.566,1.029-1.857,1.407-2.89,0.842c-1.03-0.564-1.406-1.858-0.842-2.888C331.313,330.578,332.607,330.201,333.636,330.767z M337.763,322.667c0.729,0.399,0.999,1.318,0.597,2.05c-0.398,0.729-1.318,0.998-2.05,0.596c-0.729-0.401-0.998-1.318-0.596-2.05C336.114,322.533,337.032,322.265,337.763,322.667z M338.658,316.645c0.568,0.314,0.777,1.031,0.465,1.602c-0.312,0.569-1.029,0.779-1.599,0.467c-0.571-0.313-0.78-1.028-0.467-1.601C337.37,316.541,338.086,316.333,338.658,316.645z"></path><linearGradient id="leftXMLID_109_" gradientUnits="userSpaceOnUse" x1="-142.1406" y1="170.4277" x2="-113.1407" y2="245.4277" gradientTransform="matrix(-1 0 0 1 271.2539 0)"><stop offset="0" style="stop-color:#FFFFFF"></stop><stop offset="1" style="stop-color:#FF5443"></stop></linearGradient><path style="fill:url(#leftXMLID_109_);" d="M342.564,327.899c0,0-1.977-3.474-0.046-6.447c1.929-2.975,2.5-1.019,3.885-3.544c1.385-2.524,0.677-3.957,2.292-6.358c1.615-2.398,2.659-2.124,3.604-3.847c0.943-1.724-0.044-3.458,2.053-6.191c2.095-2.733,2.898-2.293,3.843-4.015c0.946-1.721,0.667-3.666,2.587-6.347c1.919-2.682,2.448-1.194,3.352-3.387c0.904-2.193,1.148-4.001,2.66-6.755c1.511-2.755,2.942-1.821,3.373-3.973c0.435-2.154,0.292-2.979,2.587-6.35c2.298-3.366,3.101-2.927,3.805-4.482c0.704-1.554,0.574-4.315,2.639-7.809c2.069-3.498,3.216-2.867,4.163-4.59c0.943-1.721,0.529-3.145,1.852-5.553c1.321-2.412,2.253-2.2,3.312-3.858c1.059-1.659,0.741-4.073,2.522-6.232c1.78-2.158,3.17-1.697,3.569-2.971c0.401-1.273-0.243-2.82,2.064-6.483c2.309-3.661,3.687-2.906,4.275-4.524c0.59-1.62-0.789-2.373,1.204-5.462c1.992-3.088,4.291-3.471,4.526-4.985c0.231-1.514,0.478-3.322,1.434-5.335c0.955-2.015,3.129-2.167,3.249-3.743c0.117-1.578-1.155-1.979-1.143-3.91c0.017-1.934,3.696-15.447,3.696-15.447l1.311-2.119c0,0-1.437,14.594-2.718,22.105C409.364,210.354,342.564,327.899,342.564,327.899z"></path><polyline style="fill:none;stroke:#000000;stroke-linecap:round;stroke-linejoin:round;" points="342.413,328.041 340.995,319.871 409.283,202.468 413.176,186.386 415.985,178.815 "></polyline></g></g></svg>