<svg xmlns="http://www.w3.org/2000/svg" width="500" height="500" version="1.1"><g id="x9146"><g><polygon style="fill:#CB8751;stroke:#000000;stroke-linecap:round;stroke-linejoin:round;" points="296.832,347.299 308.135,365.547 309.27,365.234 298.688,345.643 "></polygon><polygon style="fill:#CB8751;stroke:#000000;stroke-linecap:round;stroke-linejoin:round;" points="300.851,343.676 307.821,363.794 309.577,364.719 303.638,343.358 "></polygon><polygon style="fill:#CB8751;stroke:#000000;stroke-linecap:round;stroke-linejoin:round;" points="306.162,342.42 308.093,363.624 309.574,364.944 308.944,342.782 "></polygon><polygon style="fill:#CB8751;stroke:#000000;stroke-linecap:round;stroke-linejoin:round;" points="311.982,342.313 308.291,363.283 309.377,364.945 314.571,343.392 "></polygon><polygon style="fill:#CB8751;stroke:#000000;stroke-linecap:round;stroke-linejoin:round;" points="317.172,343.663 308.534,363.125 309.188,364.999 319.426,345.333 "></polygon><polygon style="fill:#CB8751;stroke:#000000;stroke-linecap:round;stroke-linejoin:round;" points="321.565,346.13 308.735,363.121 308.946,365.096 323.383,348.269 "></polygon><polygon style="fill:#CB8751;stroke:#000000;stroke-linecap:round;stroke-linejoin:round;" points="325.721,349.874 309.06,363.133 308.771,365.097 326.947,352.399 "></polygon><polygon style="fill:#CB8751;stroke:#000000;stroke-linecap:round;stroke-linejoin:round;" points="328.817,354.822 309.212,363.126 308.408,364.939 329.323,357.581 "></polygon><polygon style="fill:#CB8751;stroke:#000000;stroke-linecap:round;stroke-linejoin:round;" points="330.448,359.63 309.515,363.527 308.34,365.128 330.348,362.434 "></polygon><polygon style="fill:#CB8751;stroke:#000000;stroke-linecap:round;stroke-linejoin:round;" points="331.221,364.5 309.937,363.849 308.449,365.162 330.524,367.22 "></polygon><polygon style="fill:#CB8751;stroke:#000000;stroke-linecap:round;stroke-linejoin:round;" points="277.78,326.59 274.846,330.161 307.473,369.11 311.499,368.791 "></polygon><polyline style="fill:#CB8751;stroke:#000000;stroke-linecap:round;stroke-linejoin:round;" points="308.131,364.283 360.753,368.046 359.373,373.47 302.666,367.109 302.192,363.857 308.131,364.283 "></polyline><path style="fill:#6E6E6E;stroke:#000000;stroke-linecap:round;stroke-linejoin:round;" d="M294.772,348.957c0,0,12.698-10.031,24.258-3.059c12.617,7.609,12.849,17.318,12.134,20.521l29.128,2.815c0,0,9.821-34.754-24.509-52.839c-36.128-19.032-58.62,11.54-58.62,11.54L294.772,348.957z"></path><path style="fill:#EAD97B;" d="M298.142,333.975c0,0,11.751-8.496,23.122-3.569c11.37,4.928,20.057,10.274,22.042,19.253c-1.133,0.728-1.854,1.243-1.749,2.174c0.105,0.93,1.143,3.405,2.795,2.987c1.651-0.418,6.09-1.564,6.09-1.564s0.69-12.083-11.624-22.895c-12.315-10.812-32.754-7.454-35.641-5.795c2.066,0.201,6.92,0.084,6.505-0.12c-0.414-0.205-12.07,4.266-13.718,5.922c5.877-3.011,13.722-4.475,13.722-4.475s-9.178,4.668-8.353,4.254c0.824-0.415,5.673-1.977,5.673-1.977S300.713,330.354,298.142,333.975z"></path></g></g></svg>