<svg xmlns="http://www.w3.org/2000/svg" width="500" height="500" version="1.1"><g id="x9147"><g><g><g><g><path style="fill:#BDA89F;stroke:#000000;stroke-linecap:round;stroke-linejoin:round;" d="M380.762,288.225c0,0-8.646-10.139,0.39-26.853c9.034-16.712,18.912-15.611,18.912-15.611l0.174-9.217c0,0-11.158-4.846-19.62,3.533c-8.462,8.38-11.812,18.696-11.68,19.534C369.16,276.233,380.762,288.225,380.762,288.225z"></path><g id="leftXMLID_11_"><g><path style="fill:#FFFFFF;" d="M388.831,293.646c0,0-4.497,15.563-6.302,13.359c-1.81-2.203-12.655-10.534-17.599-23.318c-4.431-11.456,1.658-27.062,11.953-39.44c-6.143,8.678-5.015,19.475-2.785,28.46C376.702,283.196,388.831,293.646,388.831,293.646z"></path><path style="fill:#EEDDCC;" d="M369.289,255.862c0,0-3.172,14.155,2.693,23.015c5.867,8.862,15.659,23.543,15.659,23.543l-4.144,6.923c0,0-18.653-20.233-19.408-28.788C362.415,271.033,366.425,260.009,369.289,255.862z"></path><path style="fill:#EEDDCC;" d="M367.219,265.213c0,0,3.035,0.03,3.758,3.451c0.726,3.424-3.653,5.084-3.653,5.084S364.721,268.411,367.219,265.213z"></path><path style="fill:#EEDDCC;" d="M370.368,277.543c0,0,2.863-1.003,4.708,1.968c1.844,2.972-1.711,6.022-1.711,6.022S369.105,281.4,370.368,277.543z"></path><path style="fill:#EEDDCC;" d="M377.071,287.086c0,0,2.866-1.001,4.708,1.969c1.844,2.973-1.711,6.024-1.711,6.024S375.812,290.943,377.071,287.086z"></path><path style="fill:#FFFFFF;" d="M367.97,271.81c0,0-2.033-1.31-2.316-2.515c-0.287-1.2,0.632-2.556,1.033-2.695c0.4-0.143,2.151,0.503,2.447,2.241C369.428,270.582,367.97,271.81,367.97,271.81z"></path><path style="fill:#FFFFFF;" d="M372.47,283.977c0,0-2.03-1.31-2.317-2.514c-0.286-1.201,0.633-2.556,1.032-2.697c0.4-0.14,2.153,0.506,2.448,2.242C373.927,282.748,372.47,283.977,372.47,283.977z"></path><path style="fill:#FFFFFF;" d="M379.537,292.841c0,0-2.211-0.97-2.685-2.114c-0.473-1.139,0.215-2.623,0.591-2.827c0.373-0.201,2.204,0.155,2.773,1.827C380.785,291.396,379.537,292.841,379.537,292.841z"></path><path style="fill:#FFFFFF;" d="M380.617,240.076c-1.292,1.328-2.536,2.715-3.719,4.15C377.922,242.776,379.153,241.387,380.617,240.076z"></path></g><g><path style="fill:none;stroke:#000000;stroke-linecap:round;stroke-linejoin:round;" d="M376.898,244.227c1.023-1.45,2.255-2.84,3.719-4.15C379.325,241.404,378.081,242.791,376.898,244.227z"></path><path style="fill:none;stroke:#000000;stroke-linecap:round;stroke-linejoin:round;" d="M376.898,244.227c-0.008,0.003-0.012,0.012-0.015,0.02"></path><path style="fill:none;stroke:#000000;stroke-linecap:round;stroke-linejoin:round;" d="M376.884,244.246c-10.295,12.379-16.384,27.984-11.953,39.44c4.943,12.784,15.789,21.115,17.599,23.318c1.805,2.204,6.302-13.359,6.302-13.359s-12.129-10.449-14.732-20.939C371.869,263.721,370.741,252.924,376.884,244.246z"></path></g></g></g><g><path style="fill:#BDA89F;stroke:#000000;stroke-linecap:round;stroke-linejoin:round;" d="M400.406,196.876c0,0,1.582-26.924,17.807-26.398c16.224,0.523,20.872,13.986,23.577,21.687c2.707,7.699,15.465,13.811,17.64,11.636c2.174-2.177,3.641-24.046,0.346-30.394c-3.294-6.348-20.64-17.575-38.45-15.099C402.925,166.483,393.109,173.187,400.406,196.876z"></path><g id="leftXMLID_8_"><g><path style="fill:#FFFFFF;" d="M416.306,310.453c-1.123,8.878-9.524,14.999-9.524,14.999l-4.101-4.762c0,0,4.499-62.148-6.967-82.544c-11.474-20.398-19.828-55.139-6.311-68.837c13.52-13.704,40.268-13.237,44.912-10.654c-10.406-2.819-25.864,2.95-31.331,18.353c-5.462,15.404,5.124,41.092,9.832,58.547C417.524,253.016,417.416,301.572,416.306,310.453z"></path></g><path style="fill:#EEDDCC;" d="M407.922,160.426c0,0-7.231,6.41-8.169,9.877c-0.94,3.471-0.296,3.124-0.765,5.946c-0.47,2.822-4.077,5.71-3.921,8.865c0.139,2.883,3.18,4.017,3.242,5.84c0.061,1.822-3.278,5.527-2.865,7.407c0.411,1.882,3.396,2.74,3.396,4.916c0.001,2.175-2.813,4.654-2.048,6.593c0.765,1.939,3.499,2.396,3.793,4.98c0.293,2.586-2.585,5.189-2.407,6.305c0.176,1.119,4.469,5.82,4.469,5.82l10.762,13.754c0,0,6.829,46.09,2.957,71.543c-4.702,8.645-9.583,13.996-9.583,13.996l-8.053-6.055l-3.725-84.359c0,0-10.409-18.045-12.649-43.794C381.175,164.312,407.922,160.426,407.922,160.426z"></path><g><path style="fill:#6E6E6E;" d="M385.643,173.209c-0.178,1.052,0.314,1.937,2.052,4.842c0.708,1.185,1.895,3.169,2.04,3.749c0,0-0.016-0.065-0.02-0.173c-0.001-0.02,0-0.032,0-0.032c-0.051,0.68-1.161,2.375-1.753,2.517c0,0,0.02-0.005,0.054-0.004c-0.016,0-0.093-0.039-0.201-0.161c-0.419-0.471-0.702-1.454-0.632-2.192c-0.015,0.155-0.063,0.243-0.064,0.244c0.223-0.388,1.508-1.296,2.446-1.958c1.827-1.29,4.1-2.895,6.087-5.189c4.262-4.925,3.536-9.881,3.503-10.089l0,0c-0.173-1.091-1.197-1.835-2.288-1.663c-1.091,0.173-1.836,1.197-1.663,2.288l0,0c-0.002-0.015-0.001-0.006-0.003-0.021c0.019,0.138,0.421,3.408-2.573,6.868c-1.667,1.925-3.721,3.375-5.37,4.54c-2.17,1.533-3.884,2.743-4.057,4.609c-0.177,1.862,0.461,3.914,1.625,5.223c0.85,0.956,1.921,1.476,3.099,1.502c1.191,0.027,2.381-0.524,3.441-1.595c1.208-1.22,2.402-3.334,2.348-5.014c-0.035-1.123-0.815-2.538-2.585-5.499c-0.569-0.953-1.431-2.392-1.566-2.796c0.004,0.011,0.092,0.277,0.024,0.671l0,0c0.185-1.089-0.55-2.121-1.639-2.305C386.857,171.386,385.826,172.12,385.643,173.209L385.643,173.209z"></path></g><path style="fill:#6E6E6E;" d="M384.532,195.324c0,0,0.833-8.291,2.774-6.88c1.94,1.41,4.767,8.949,2.56,10.757C387.664,201.008,384.529,198.585,384.532,195.324z"></path><g><path style="fill:none;stroke:#000000;stroke-linecap:round;stroke-linejoin:round;" d="M402.681,320.69l4.101,4.762c0,0,8.401-6.121,9.524-14.999c1.11-8.881,1.219-57.438-3.489-74.898c-4.708-17.456-15.294-43.144-9.832-58.547c5.467-15.402,20.925-21.172,31.331-18.353c-4.645-2.583-31.393-3.049-44.912,10.654c-13.518,13.698-5.163,48.439,6.311,68.837C407.18,258.542,402.681,320.69,402.681,320.69z"></path></g></g></g><g><path style="fill:#BDA89F;stroke:#000000;stroke-linecap:round;stroke-linejoin:round;" d="M428.453,224.385c0,0-4.114,0.767-10.464,4.056c-1.471-4.231,3.996-6.583,5.113-6.761C424.219,221.503,428.453,224.385,428.453,224.385z"></path><g id="leftXMLID_10_"><g><path style="fill:#FFFFFF;" d="M422.397,215.04c5.938,1.348,6.058,9.344,6.058,9.344c-8-6.404-15.342,11.585-18.983,33.453c-3.64,21.873-0.055,30.807,0.949,44.387c1.004,13.579-7.285,17.637-7.285,17.637l-6.629-6.178l-1.428-12.923c0,0-3.415-20.872-4.067-43.092c-0.651-22.222,10.281-39.979,13.927-42.271C408.582,213.1,416.454,213.688,422.397,215.04z"></path></g><path style="fill:#EEDDCC;" d="M427.791,221.281c0,0-7.012-3.612-11.815-0.876c-4.807,2.733-11.329,19.048-13.615,39.332c-2.292,20.281,8.165,39.149,7.944,43.736c0.267,4.94,0.047,11.155-7.535,15.875c-6.791-4.937-7.32-8.288-7.32-8.288s-3.846-35.714-4.066-44.178c-0.223-8.465-1.55-25,5.281-38.272c6.83-13.273,9.962-14.113,9.962-14.113S427.214,211.669,427.791,221.281z"></path><g><path style="fill:none;stroke:#000000;stroke-linecap:round;stroke-linejoin:round;" d="M428.455,224.383c0,0-0.119-7.996-6.058-9.344c-5.943-1.352-13.815-1.94-17.459,0.357c-3.646,2.292-14.578,20.048-13.927,42.271c0.652,22.22,4.067,43.092,4.067,43.092l1.428,12.923l6.629,6.178c0,0,8.289-4.058,7.285-17.637c-1.004-13.58-4.589-22.514-0.949-44.387C413.113,235.968,420.455,217.979,428.455,224.383z"></path></g></g></g></g><path style="fill:#6E6E6E;stroke:#000000;stroke-linecap:round;stroke-linejoin:round;" d="M405.479,315.311c0,0,2.092-3.594,2.381-5.312c-2.581-0.839-4.764-1.608-4.764-1.608s1.214-4.829,0.64-6.283c-3.33-0.42-4.939,0.266-4.939,0.266s-1.237-5.644-2.647-6.967c-2.953,0.597-4.453,1.435-4.453,1.435s-1.476-4.188-2.956-5.112c-2.446,0.813-3.239,2.315-3.239,2.315s-3.395-2.472-5.731-2.316c-1.058,2.271-0.705,5.048-0.705,5.048l-2.821-0.195c0,0,0.595,4.585,0.773,5.157c0.177,0.573,6.748,6.834,6.594,15.916c10.873,6.568,21.078,4.867,21.078,4.867l4.363-2.537L405.479,315.311z M378.479,301.664c0,0-0.722-3.564-0.7-3.696l1.822,0.213l0.456,3.521L378.479,301.664z M381.644,300.879l-0.065-1.781l0.853,0.053l0.596,1.323L381.644,300.879z M383.4,297.952l-3.086-1.6l1.109-2.307l2.881,1.473L383.4,297.952z M386.545,298.385l-1.021-0.125l0.389-1.249l0.939,0.067L386.545,298.385z M388.678,298.377l-1.555-3.204l1.773-0.838l1.398,3.043L388.678,298.377z M390.479,301.714l-0.135-1.654l1.089-0.272l0.471,1.803L390.479,301.714z M393.615,298.926l1.769-0.293l1.222,2.47l-1.806,1.604L393.615,298.926z M394.741,306.865l0.389-2.066l1.272,0.259l-0.286,1.99L394.741,306.865z M401.621,303.93l-0.341,3.93l-1.963-0.188l-0.373-3.461L401.621,303.93z M398.143,312.006c0.024-0.132,0.545-1.904,1.023-2.05c0.993,0.302,1.521,0.661,1.521,0.661l-0.924,2.02L398.143,312.006z M400.676,317.23l-1.104-0.727l0.823-1.131c0,0,0.609,0.419,1.158,0.918C401.363,316.621,400.676,317.23,400.676,317.23z M402.157,312.674c0,0,0.52-1.228,0.874-1.441c1.061,0.178,1.832,0.714,1.832,0.714l-1.243,1.741L402.157,312.674z M404.746,320.266l-1.516-2.066c0,0,1.271-1.373,1.833-1.463c0.946,1.111,1.29,2.301,1.29,2.301L404.746,320.266z"></path><path style="fill:#6E6E6E;stroke:#000000;stroke-linecap:round;stroke-linejoin:round;" d="M369.221,338.775c0,0,4.871,1.765,8.598-4.278c3.723-6.042,2.267-11.177,2.817-13.669c0.551-2.49,2.666-4.585,4.519-5.092c1.853-0.51,18.849-2.164,23.261,12.162c4.411,14.329-2.332,22.179-3.238,22.708c-0.902,0.528-3.593,1.987-3.593,1.987s-5.157-2.492-10.999-2.514c-5.841-0.02-19.332,5.075-21.979,8.713C369.687,351.497,369.221,338.775,369.221,338.775z"></path><path style="fill:#505050;" d="M407.604,346.662c0,0-1.698,3.656-5.821,5.556c-1.697-1.234-8.773-2.819-12.101-2.424c7.053-1.542,12.058-2.206,12.3-2.847c0.242-0.637,5.088-10.166,5.089-10.979C408.001,341.018,407.604,346.662,407.604,346.662z"></path><path style="fill:#EDDCD1;stroke:#000000;stroke-linecap:round;stroke-linejoin:round;" d="M380.621,324.451c0,0,0.036-3.22,0.409-4.643c0.861-3.256,4.124-4.072,4.124-4.072s17.313-3.912,23.812,12.119c4.883,12.051-1.415,19.928-1.415,19.928s2.115-12.697-3.474-20.515c-5.585-7.818-17.872-8.049-20.343-6.286C381.267,322.748,380.621,324.451,380.621,324.451z"></path><path style="fill:#6E6E6E;stroke:#000000;stroke-linecap:round;stroke-linejoin:round;" d="M345.235,341.582c0,0,5.6,2.292,8.773-0.441c3.175-2.734,7.672-8.513,7.672-8.513s5.466-0.175,6.79,1.675c1.322,1.85,5.201,6.304,3.839,16.135c-1.367,9.833-6.478,16.051-6.478,16.051s-5.471-7.979-11.377-8.417c-5.91-0.441-11.067,1.146-11.067,1.146L345.235,341.582z"></path><path style="fill:#505050;" d="M342.989,359.153c0,0,9.271-2.274,13.471-0.886c5.799,1.918,9.372,8.221,9.372,8.221s2.533-3.79,2.84-8.092c-1.805,0.244-3.681,0.884-5.313,0.067c-1.632-0.814-5.735-4.76-8.841-4.87c-3.108-0.109-11.44,1.767-11.44,1.767L342.989,359.153z"></path><path style="fill:#6E6E6E;stroke:#000000;stroke-linecap:round;stroke-linejoin:round;" d="M287.906,390.361c0,0,4.186-14.531,15.955-28.885c8.575-10.458,25.701-15.572,30.088-16.607c4.386-1.037,8.311-4.189,8.311-4.189s2.82,3.461,1.878,10.777c-0.949,7.32-7.12,10.1-7.12,10.1s-3.416-2.334-9.878-1.915c-6.457,0.42-21.803,6.841-23.693,19.848c-1.894,13.004-0.217,16.005-0.217,16.005s-2.756,1.849-6.282,0.992c-1.633,1.631-2.865,4.961-2.865,4.961s3.419,8.861,8.601,12.033c-1.808,1.877-17.716,15.226-33.913,16.696c-16.192,1.475-37.826,1.862-40.062,3.303c-2.234,1.438,0.825,2.675,0.825,2.675s-6.202-1.938-8.113-0.263c-1.91,1.677-5.818,8.819-3.409,12.846c-3.114-0.88-10.434-1.556-12.519-0.996c-2.088,0.559-7.496,2.561-7.349,4.939c0.149,2.382,4.499,5.643,4.706,8.759c-4.321,1.999-29.244,14.526-40.532,13.735c10.988-14.846,47.841-45.688,58.746-50.219c11.376,1.352,33.005-1.096,42.942-9.709c11.229-9.732,18.809-21.521,23.835-24.491"></path><path style="fill:#505050;" d="M221.212,426.249c0,0-1.584,13.876-7.696,15.76c-6.113,1.879-20.342,4.589-20.342,4.589S213.806,429.369,221.212,426.249z"></path><path style="fill:#505050;" d="M300.968,396.293c0,0-3.223-8.418-3.282-10.24c-0.061-1.824,2.787-15.671,13.958-22.873c11.167-7.203,19.134-6.061,26.101-3.268c-1.145,1.439-0.684,1.379-0.684,1.379s-9.719-6.473-24.139,3.462c-15.048,10.366-10.194,30.748-10.194,30.748L300.968,396.293z"></path><path style="fill:#505050;" d="M224.915,425.779c0,0,35.658,5.751,50.674-6.067c15.019-11.82,7.55-19.224,7.55-19.224s5.441,8.699,10.144,9.845c3.086-1.12,3.645-2.295,3.645-2.295l-3.382-5.818c0,0,2.496-6.294,2.409-5.763c-0.088,0.528-7.525-1.617-8.114-5.701c-4.262,3.825-15.577,19.521-24.744,25.606C244.028,429.019,224.915,425.779,224.915,425.779z"></path><path style="fill:#EDDCD1;stroke:#000000;stroke-linecap:round;stroke-linejoin:round;" d="M342.26,340.68l1.166-2.118c0,0,3.353,1.919,4.081,5.71s-2.246,15.938-9.431,19.093c-1.589-1.08-1.699-2.05-1.699-2.05s3.988-3.043,5.751-9.238C344.42,344.03,342.26,340.68,342.26,340.68z"></path><path style="fill:#EDDCD1;stroke:#000000;stroke-linecap:round;stroke-linejoin:round;" d="M361.681,332.628c0,0,7.539,1.524,8.364,16.165c0.688,12.187-4.213,17.695-4.213,17.695s6.745-6.763,7.74-17.108c0.996-10.346-4.942-16.05-4.942-16.05S362.427,331.393,361.681,332.628z"></path><path style="fill:#EEDDCC;" d="M401.159,210.596c0,0-1.766-1.652-1.833-2.888c-0.066-1.233,1.08-2.402,1.498-2.469c0.421-0.066,2.03,0.881,2.01,2.646C402.811,209.648,401.159,210.596,401.159,210.596z"></path><path style="fill:#FFFFFF;" d="M395.026,205.77c0,0-1.762-1.652-1.83-2.888c-0.067-1.235,1.081-2.403,1.499-2.47c0.417-0.066,2.026,0.882,2.007,2.646C396.682,204.823,395.026,205.77,395.026,205.77z"></path><path style="fill:#FFFFFF;" d="M396.64,218.138c0,0-1.766-1.655-1.831-2.89c-0.065-1.234,1.079-2.404,1.499-2.468c0.419-0.068,2.03,0.881,2.007,2.646C398.294,217.188,396.64,218.138,396.64,218.138z"></path><path style="fill:#FFFFFF;" d="M393.988,194.041c0,0-1.763-1.651-1.829-2.886c-0.067-1.234,1.078-2.403,1.497-2.47c0.418-0.066,2.03,0.88,2.006,2.643C395.643,193.094,393.988,194.041,393.988,194.041z"></path><path style="fill:#EEDDCC;" d="M399.743,199.487c0,0-1.763-1.654-1.831-2.889c-0.065-1.234,1.08-2.403,1.499-2.47c0.421-0.065,2.029,0.883,2.006,2.645C401.396,198.536,399.743,199.487,399.743,199.487z"></path><path style="fill:#EEDDCC;" d="M398.837,186.963c0,0-1.765-1.651-1.83-2.886c-0.069-1.235,1.081-2.403,1.496-2.47c0.421-0.065,2.031,0.882,2.009,2.646C400.49,186.016,398.837,186.963,398.837,186.963z"></path><path style="fill:#EEDDCC;" d="M418.089,219.124c0,0,1.765,2.469-0.569,5.071c-2.339,2.603-6.263,0.046-6.263,0.046S414.03,218.992,418.089,219.124z"></path><path style="fill:#FFFFFF;" d="M412.845,223.202c0,0-0.14-2.414,0.663-3.356c0.801-0.941,2.44-0.996,2.787-0.754c0.349,0.242,0.864,2.035-0.367,3.298C414.693,223.653,412.845,223.202,412.845,223.202z"></path><path style="fill:#EEDDCC;" d="M409.109,228.539c0,0,2.941,0.748,2.834,4.244c-0.104,3.496-4.751,4.074-4.751,4.074S405.925,231.057,409.109,228.539z"></path><path style="fill:#FFFFFF;" d="M407.731,235.039c0,0-1.665-1.755-1.656-2.992c0.007-1.235,1.221-2.334,1.641-2.376c0.423-0.04,1.974,0.998,1.847,2.76C409.438,234.188,407.731,235.039,407.731,235.039z"></path><path style="fill:#EEDDCC;" d="M405.673,241.018c0,0,2.939,0.749,2.836,4.241c-0.108,3.498-4.757,4.078-4.757,4.078S402.489,243.534,405.673,241.018z"></path><path style="fill:#FFFFFF;" d="M404.295,247.517c0,0-1.663-1.754-1.656-2.991c0.005-1.236,1.219-2.333,1.643-2.375c0.421-0.043,1.971,0.997,1.847,2.757C406,246.666,404.295,247.517,404.295,247.517z"></path><path style="fill:#EEDDCC;" d="M402.388,255.803c0,0,3.013,0.361,3.359,3.844c0.346,3.479-4.19,4.652-4.19,4.652S399.555,258.709,402.388,255.803z"></path><path style="fill:#FFFFFF;" d="M401.858,262.427c0,0-1.875-1.525-2.027-2.753c-0.151-1.227,0.906-2.473,1.322-2.569c0.413-0.096,2.086,0.738,2.188,2.498C403.441,261.362,401.858,262.427,401.858,262.427z"></path><path style="fill:#EEDDCC;" d="M402.208,268.997c0,0,3.032,0.03,3.758,3.452c0.725,3.421-3.655,5.083-3.655,5.083S399.707,272.197,402.208,268.997z"></path><path style="fill:#FFFFFF;" d="M402.407,275.638c0,0-2.032-1.312-2.32-2.513c-0.285-1.202,0.634-2.56,1.033-2.699c0.403-0.141,2.154,0.505,2.447,2.242C403.863,274.408,402.407,275.638,402.407,275.638z"></path></g><g><linearGradient id="leftXMLID_110_" gradientUnits="userSpaceOnUse" x1="372.833" y1="222.5293" x2="242.8377" y2="386.5232" gradientTransform="matrix(0.9987 -0.0517 0.0517 0.9987 -16.101 17.8469)"><stop offset="0" style="stop-color:#FFFFFF"></stop><stop offset="1" style="stop-color:#EEDDCC"></stop></linearGradient><path style="fill:url(#leftXMLID_110_);" d="M220.546,430.295l167.858-234.249l0,0c0.643-0.898,0.438-2.147-0.461-2.791s-2.146-0.437-2.791,0.461l0,0l-167.858,234.25l0,0c-0.644,0.898-0.437,2.146,0.461,2.791C218.653,431.399,219.902,431.194,220.546,430.295L220.546,430.295z"></path></g></g></g></svg>