<svg xmlns="http://www.w3.org/2000/svg" width="500" height="500" version="1.1"><g id="x9148"><g><path style="fill:#6E6E6E;stroke:#000000;stroke-linecap:round;stroke-linejoin:round;" d="M309.317,357.792c0,0,9.943-13.125,25.853-13.125s17.897,7.159,19.887,12.329c1.988,5.171-0.796,18.693,9.545,33.409S451.98,497,451.98,497s-106.867-90.686-118.799-93.867s-29.83-2.387-34.603-15.113C293.807,375.292,309.317,357.792,309.317,357.792z"></path><path style="fill:#505050;" d="M397.314,450.334c0,0-52.667-43-62-48c-9-2-24.667-2.334-29.667-6.334s-11.333-14.666-1.333-29.333c-1.334,7.333,0.716,12.249,8.524,13.458c0.476,7.875,5.142,17.542,5.142,17.542s5.667-7.333,11.667-8.333S381.98,434.334,397.314,450.334z"></path><path style="fill:#FFFFFF;" d="M357.647,380.667c-1-5.333-1.333-7-2-10c-3.667-7-10.001-12.333-11.667-13C346.647,365,348.314,372,347.647,374s6,16.667,9,19.667s33.667,30.667,33.667,30.667S358.647,386,357.647,380.667z"></path><path style="fill:#402B32;stroke:#000000;stroke-linecap:round;stroke-linejoin:round;" d="M356.71,370.375c0,0-8-17.875-29.688-24.25c4.25-2.25,23.125-3.188,27.901,8.088C357.638,360.621,356.71,370.375,356.71,370.375z"></path><path style="fill:#402B32;stroke:#000000;stroke-linecap:round;stroke-linejoin:round;" d="M370.98,399.166c0,0-12.345-18.969-30.641-18.703c-18.295,0.265-23.192,14.12-21.025,19.787c-5.039,0.53-15.83-3.084-18.482-8.387c1.326-8.484,15.91-24.658,37.918-21.477C357.314,372.75,370.98,399.166,370.98,399.166z"></path><path style="fill:#402B32;stroke:#000000;stroke-linecap:round;stroke-linejoin:round;" d="M391.314,424.213c0,0-6.429-12.727-26.314-15.379c-19.887-2.652-20.603,1.082-20.603,1.082s-6.75-4.166-9.89-6.386C334.242,402.471,364.647,385.25,391.314,424.213z"></path><path style="fill:#402B32;stroke:#000000;stroke-linecap:round;stroke-linejoin:round;" d="M408.98,445.25c0,0-12.357-8.732-29.58-8.587l-15.817-12.393C372.614,425.28,395.171,429.348,408.98,445.25z"></path><path style="fill:#402B32;stroke:#000000;stroke-linecap:round;stroke-linejoin:round;" d="M404.334,457c4.146-0.083,12.896,0.917,19.679,6.389l6.635,8.278c-3.083-2.084-8.75-3.667-12.833-3.334L404.334,457z"></path></g></g></svg>