<svg xmlns="http://www.w3.org/2000/svg" width="500" height="500" version="1.1"><g id="x9149"><g><path style="opacity:0.5;fill:#6E6E6E;" d="M468.696,137.106c-6.743-6.388-18.1-7.098-23.068-1.774c-4.969,5.324-15.971,16.68-19.164,14.196c-3.194-2.484,6.388-24.133,11.711-30.167c5.324-6.033,11.357-23.778,9.938-26.263c-1.42-2.484-9.76-7.808-9.938-8.34c-0.177-0.533,0.888-2.307,0-3.372c-0.887-1.065-1.774-1.242-1.597-12.421s3.194-21.117,5.501-26.795s3.371-22.891-5.146-26.44c-8.517-3.549-31.23,17.922-39.926,28.569c-7.843,9.604-47.734,59.341-65.114,83.191L322.5,142.5c3.328-4.923,17.922-20.812,21.627-25.978c0,0,11.357-9.227,14.551-15.97c3.194-6.743,7.808-19.875,19.52-27.327c11.712-7.453,16.681-3.549,18.1,1.774c1.42,5.323-6.033,23.423-5.678,31.941c0.354,8.518,11.002-0.355,12.421,9.937c1.42,10.292-2.129,30.167-6.743,34.78c-4.613,4.614-15.261,12.422-13.485,18.1c1.774,5.678,5.323,4.259,3.549,6.743s-12.066,2.839-16.681,9.582c-4.613,6.743-13.131,61.752-10.292,71.69c2.839,9.937,8.872,18.454,18.1,17.744c9.228-0.709,27.327-9.937,32.296-22.003c4.969-12.067,7.453-76.304,14.196-75.949s7.098,6.388,12.776,4.259c5.678-2.129,11.711-13.486,15.615-13.841s8.163-5.324,11.002-10.647C466.212,152.012,475.439,143.495,468.696,137.106z"></path><g><path style="fill:#6E6E6E;stroke:#000000;stroke-linecap:round;stroke-linejoin:round;" d="M327.188,215.485c-0.278,0.835,8.629,31.454,8.629,31.454l-1.948,29.228l33.124-2.227l37.438-3.898l-10.855-33.124l2.645-20.042l-9.464-1.113l-6.402-18.649l-27.558,19.206L327.188,215.485z"></path><path style="opacity:0.5;fill:#FFFFFF;" d="M357.807,238.032l2.505,15.31c0,0-3.062-5.011-3.896-5.29c-0.836-0.278-6.402,3.62-6.402,3.62L357.807,238.032z"></path><path style="opacity:0.1;" d="M386.198,216.042l10.438,1.253c0,0-3.34,21.572-3.34,21.155C393.297,238.032,386.198,216.042,386.198,216.042z"></path><polygon style="opacity:0.3;" points="352.657,215.763 356.972,236.918 380.354,197.809 "></polygon><polygon style="opacity:0.5;" points="327.326,215.624 356.972,236.918 352.657,215.763 "></polygon><polygon style="opacity:0.5;" points="356.972,236.918 333.868,276.026 335.955,246.661 "></polygon><polygon style="opacity:0.3;" points="327.326,215.624 335.955,246.661 356.972,236.918 "></polygon><polygon style="opacity:0.5;fill:#FFFFFF;" points="356.972,236.918 388.426,260.579 392.322,233.717 "></polygon><polygon style="opacity:0.1;" points="356.972,236.918 366.436,272.827 388.426,260.579 "></polygon><polygon style="opacity:0.1;fill:#FFFFFF;" points="388.147,260.579 392.322,233.717 403.457,269.485 "></polygon><g><ellipse transform="matrix(0.97 0.2432 -0.2432 0.97 60.0296 -82.0149)" style="fill:#6E6E6E;" cx="362.19" cy="202.124" rx="1.044" ry="1.531"></ellipse><ellipse style="fill:#6E6E6E;" cx="358.85" cy="206.438" rx="0.905" ry="0.835"></ellipse><ellipse style="fill:#6E6E6E;" cx="361.773" cy="208.666" rx="0.905" ry="0.835"></ellipse></g><g><ellipse style="fill:#6E6E6E;" cx="323.082" cy="260.3" rx="0.905" ry="0.836"></ellipse></g><g><ellipse style="fill:#6E6E6E;" cx="402.134" cy="205.603" rx="0.905" ry="0.835"></ellipse><ellipse style="fill:#6E6E6E;" cx="400.743" cy="214.232" rx="0.905" ry="0.835"></ellipse><ellipse style="fill:#6E6E6E;" cx="408.955" cy="220.913" rx="0.905" ry="0.835"></ellipse><ellipse style="fill:#6E6E6E;" cx="449.621" cy="182.246" rx="0.905" ry="0.835"></ellipse><ellipse style="fill:#6E6E6E;" cx="434.954" cy="153.579" rx="0.905" ry="0.835"></ellipse><ellipse style="fill:#6E6E6E;" cx="426.287" cy="104.913" rx="0.905" ry="0.835"></ellipse><ellipse style="fill:#6E6E6E;" cx="434.954" cy="88.246" rx="0.905" ry="0.835"></ellipse><ellipse style="fill:#6E6E6E;" cx="432.287" cy="66.246" rx="0.905" ry="0.835"></ellipse><ellipse style="fill:#6E6E6E;" cx="398.794" cy="223.139" rx="0.905" ry="0.836"></ellipse></g></g></g></g></svg>