<svg xmlns="http://www.w3.org/2000/svg" width="500" height="500" version="1.1"><g id="x015"><ellipse transform="matrix(0.8711 -0.4911 0.4911 0.8711 -147.4324 193.0427)" style="fill:#6E6E6E;stroke:#000000;stroke-linecap:round;stroke-linejoin:round;" cx="294.017" cy="377.37" rx="5.329" ry="6.997"></ellipse><g><g><path style="fill:#6E6E6E;stroke:#000000;stroke-linecap:round;stroke-linejoin:round;" d="M292.629,374.505c0,0-0.597,1.571,0.72,3.528c1.316,1.958,3.195,1.344,3.195,1.344l23.775-13.739L314,355.667L292.629,374.505z"></path><path style="fill:#6E6E6E;stroke:#000000;stroke-linecap:round;stroke-linejoin:round;" d="M412.105,288.463c5.511,7.266,5.163,16.811,1.242,19.785c-0.001,0.001-0.002,0.003-0.002,0.004l0.036,0.04c0,0-36.198,23.935-46.228,30.368c-10.028,6.434-44.067,25.598-55.147,31.653c-3.987,1.457-5.813-1.468-5.813-1.468s-2.699-3.044,0.153-5.991c7.949-7.599,33.396-33.956,45.339-44.583c11.992-10.67,41.697-36.337,41.697-36.337C397.306,278.961,406.593,281.196,412.105,288.463z"></path><g><path style="fill:#FFFFFF;stroke:#000000;stroke-linecap:round;stroke-linejoin:round;" d="M335.716,356.634l-25.389,14.563c0,0-1.494,1.131-4.134-2.351c-2.642-3.48-1.029-5.486-1.029-5.486l21.18-19.595c0,0-1.167,3.63,2.419,8.353C332.347,356.841,335.716,356.634,335.716,356.634z"></path><g><path style="fill:none;stroke:#000000;stroke-linecap:round;stroke-linejoin:round;" d="M328.368,359.862c0,0-6.628-2.024-7.108-9.887"></path><path style="fill:none;stroke:#000000;stroke-linecap:round;stroke-linejoin:round;" d="M321.337,364.019c0,0-7.137-3.205-5.421-9.206"></path><path style="fill:none;stroke:#000000;stroke-linecap:round;stroke-linejoin:round;" d="M315.865,368.17c0,0-7.135-3.207-5.419-9.209"></path></g></g><path style="fill:#505050;" d="M398.11,283.442c-2.747,2.084-1.639,8.17,2.479,13.596c4.112,5.423,9.678,8.133,12.425,6.048c2.744-2.082,1.637-8.171-2.479-13.595S400.857,281.361,398.11,283.442z"></path></g></g></g></svg>