<svg xmlns="http://www.w3.org/2000/svg" width="500" height="500" version="1.1"><g id="x9150"><g><g><path style="fill:#414141;stroke:#000000;stroke-linecap:round;stroke-linejoin:round;" d="M324.101,370.248c0,0-4.613,2.746-5.237,4.71c-0.621,1.964,0.851,3.592,0.625,3.996c-0.228,0.402-1.33,0.75-1.902,0.21c-1.117-3.149-0.932-6.61,0.123-8.784c1.304-1.703,1.537-1.868,1.537-1.868s-0.664-1.096-0.512-1.338c0.15-0.241-0.326-0.308-0.326-0.308l-1.208-0.603l1.927-2.197l5.379,5.019L324.101,370.248z"></path><path style="fill:#232021;stroke:#000000;stroke-linecap:round;stroke-linejoin:round;" d="M328.854,356.494c0,0-3.58-1.691-4.508-5.122c1.318-1.229,2.273-1.173,2.273-1.173l0.624-1.887c0,0-1.06-1.003-1.347-1.353c-0.287-0.351-0.326-1.778-0.211-1.899c0.116-0.125,1.292-0.711,2.016-0.413c0.723,0.299,2.314,3.354,2.314,3.354s0.279,1.501,0.243,3.093c2.46,1.322,3.065,3.214,3.065,3.214L328.854,356.494z"></path><g><path style="fill:#DBD7D3;stroke:#000000;stroke-linecap:round;stroke-linejoin:round;" d="M349.221,367.089l2.088-1.388l0.252-0.999l1.134-0.708c0,0,0.563-2.636,0.708-3.196c0.143-0.56-2.131-18.652-2.427-19.319c-0.296-0.668-3.405-3.999-7.987-3.003c-4.581,0.997-5.741,3.61-6.004,4.213c-0.262,0.603,2.017,21.794,2.017,21.794l4.479,2.542L349.221,367.089z"></path><path style="fill:#BDB9B5;" d="M351.006,365.532l-1.795,1.16l-4.869-0.822l-2.823-5.267c0,0,5.317-3.898,11.256,1.226c-0.158,0.78-0.565,1.863-0.565,1.863l-1.269,0.847L351.006,365.532z"></path><path style="fill:#6D6A69;" d="M351.271,365.222c0,0-1.064-1.337-3.055-1.522c1.527-0.796,3.197,0.749,3.197,0.749L351.271,365.222z"></path><path style="fill:none;stroke:#6D6A69;stroke-linecap:round;stroke-linejoin:round;" d="M352.74,359.783c0,0-1.629-2.895-7.254-2.307c-5.443,0.569-6.082,4.297-6.082,4.297"></path><path style="fill:#FFFFFF;" d="M348.268,356.012c0.516-0.055,0.047-5.603-0.287-7.7c0.623-0.493,1.152-1.461,1.152-1.461s-0.975-6.728-1.51-7.388c-0.535-0.661-3.124-0.949-3.823-0.373c-0.7,0.574,1.728,11.077,2.129,11.225c0.401,0.146,0.851-0.898,0.851-0.898S347.753,356.063,348.268,356.012z"></path><path style="fill:none;stroke:#6D6A69;stroke-linecap:round;stroke-linejoin:round;" d="M350.531,342.683c0,0-2.959-2.89-6.539-2.328c-3.361,0.527-5.389,1.935-6.506,4.743"></path><line style="fill:none;stroke:#6D6A69;stroke-linecap:round;stroke-linejoin:round;" x1="338.811" y1="341.169" x2="340.568" y2="357.768"></line><path style="fill:#6D6A69;" d="M341.83,357.416c0,0-2.247,2.125-2.331,1.971c-0.083-0.159-0.536-3.682-0.427-4.041c0.737-0.695,2.053-2.002,2.215-1.848C341.451,353.652,341.83,357.416,341.83,357.416z"></path><g><path style="fill:none;stroke:#6D6A69;stroke-linecap:round;stroke-linejoin:round;" d="M352.197,363.215c0,0-2.051-3.104-7.268-2.089c-3.99,0.778-5.209,3.498-5.209,3.498"></path><path style="fill:none;stroke:#6D6A69;stroke-linecap:round;stroke-linejoin:round;" d="M350.219,361.343l0.336-1.5c0,0-0.928-0.571-1.557-0.314c-0.238,0.739-0.419,1.421-0.419,1.421"></path><path style="fill:#6D6A69;" d="M349.959,359.656l-0.479,1.547l0.725,0.397c0,0,0.395-1.456,0.31-1.796C350.154,359.664,349.959,359.656,349.959,359.656z"></path></g><ellipse transform="matrix(-0.145 -0.9894 0.9894 -0.145 33.788 762.5651)" cx="346.38" cy="366.684" rx="1.691" ry="3.146"></ellipse></g><path style="fill:#414141;stroke:#000000;stroke-linecap:round;stroke-linejoin:round;" d="M321.422,346.048c0,0,4.133,7.396,7.262,8.505c3.128,1.106,8.162-2.246,8.162-2.246l8.645,15.618l9.019-1.435l15.396,9.715l5.138-3.952l5.207,7.488l-2.299,3.159l3.67,3.478l1.145-1.699c0,0,13.885,19.887,34.064,39.007c12.863,12.188,23.422,21.818,29.394,27.203l-18.214,8.51c-22.641-22.153-56.756-55.222-56.756-55.222l-5.71,4.801c0,0-9.604-11.421-16.876-11.583c-7.275-0.161-11.809,4.132-11.809,4.132l-15.344-16.632c0,0,0.838-8.72,2.809-15.208c-4.159-3.94-6.727-6.374-6.727-6.374l0.902-15.161L321.422,346.048z"></path><g><polygon style="fill:#6E6E6E;" points="350.533,372.582 349.926,369.222 350.016,369.341 348.445,368.55 348.371,368.513 348.355,368.431 347.939,366.257 348.271,366.194 348.688,368.367 348.598,368.25 350.168,369.041 350.244,369.077 350.258,369.161 350.865,372.522 "></polygon></g><g><polygon style="fill:#6E6E6E;" points="349.289,373.291 348.683,369.929 348.772,370.051 347.202,369.26 347.128,369.221 347.112,369.139 346.695,366.967 347.027,366.902 347.444,369.076 347.354,368.957 348.924,369.75 349,369.787 349.014,369.871 349.621,373.231 "></polygon></g><g><path style="fill:#DBD7D3;stroke:#000000;stroke-linecap:round;stroke-linejoin:round;" d="M367.104,380.319l2.09-1.386l0.25-1l1.134-0.707c0,0,0.564-2.635,0.708-3.196c0.144-0.559-2.131-18.654-2.428-19.321c-0.295-0.668-3.404-4-7.985-3.002c-4.582,0.999-5.743,3.612-6.005,4.214c-0.262,0.603,2.018,21.794,2.018,21.794l4.478,2.541L367.104,380.319z"></path><path style="fill:#BDB9B5;" d="M368.89,378.764l-1.796,1.16l-4.869-0.822l-2.822-5.268c0,0,5.317-3.896,11.255,1.228c-0.157,0.777-0.565,1.862-0.565,1.862l-1.27,0.848L368.89,378.764z"></path><path style="fill:#6D6A69;" d="M369.154,378.453c0,0-1.063-1.339-3.055-1.523c1.527-0.794,3.198,0.751,3.198,0.751L369.154,378.453z"></path><path style="fill:none;stroke:#6D6A69;stroke-linecap:round;stroke-linejoin:round;" d="M370.623,373.016c0,0-1.629-2.895-7.253-2.309c-5.444,0.569-6.081,4.296-6.081,4.296"></path><path style="fill:#FFFFFF;" d="M366.15,369.242c0.516-0.051,0.048-5.603-0.286-7.699c0.622-0.492,1.151-1.46,1.151-1.46s-0.975-6.728-1.509-7.389s-3.124-0.947-3.823-0.373c-0.701,0.574,1.727,11.075,2.129,11.225c0.401,0.147,0.85-0.896,0.85-0.896S365.637,369.297,366.15,369.242z"></path><path style="fill:none;stroke:#6D6A69;stroke-linecap:round;stroke-linejoin:round;" d="M368.414,355.914c0,0-2.957-2.888-6.537-2.329c-3.364,0.53-5.391,1.936-6.508,4.746"></path><line style="fill:none;stroke:#6D6A69;stroke-linecap:round;stroke-linejoin:round;" x1="356.693" y1="354.402" x2="358.451" y2="371.001"></line><path style="fill:#6D6A69;" d="M359.713,370.647c0,0-2.246,2.125-2.33,1.97c-0.084-0.157-0.536-3.68-0.427-4.041c0.737-0.694,2.052-2.002,2.215-1.847C359.334,366.884,359.713,370.647,359.713,370.647z"></path><g><path style="fill:none;stroke:#6D6A69;stroke-linecap:round;stroke-linejoin:round;" d="M370.079,376.447c0,0-2.05-3.104-7.267-2.089c-3.991,0.775-5.209,3.495-5.209,3.495"></path><path style="fill:none;stroke:#6D6A69;stroke-linecap:round;stroke-linejoin:round;" d="M368.102,374.572l0.338-1.496c0,0-0.93-0.572-1.559-0.317c-0.238,0.74-0.419,1.423-0.419,1.423"></path><path style="fill:#6D6A69;" d="M367.844,372.887l-0.48,1.547l0.726,0.398c0,0,0.394-1.456,0.31-1.797C368.037,372.896,367.844,372.887,367.844,372.887z"></path></g><ellipse transform="matrix(-0.1449 -0.9894 0.9894 -0.1449 41.1351 795.3839)" cx="364.263" cy="379.917" rx="1.692" ry="3.147"></ellipse><g><polygon style="fill:#6E6E6E;" points="366.684,385.177 366.077,381.815 366.166,381.937 364.596,381.145 364.521,381.108 364.506,381.025 364.09,378.853 364.422,378.789 364.837,380.963 364.747,380.844 366.318,381.637 366.393,381.673 366.408,381.757 367.016,385.116 "></polygon></g><g><polygon style="fill:#6E6E6E;" points="365.439,385.886 364.833,382.523 364.924,382.646 363.352,381.854 363.278,381.816 363.262,381.734 362.846,379.562 363.178,379.497 363.594,381.671 363.504,381.552 365.074,382.347 365.149,382.382 365.164,382.465 365.771,385.826 "></polygon></g></g><path style="fill:#232021;stroke:#000000;stroke-linecap:round;stroke-linejoin:round;" d="M451.535,455.646l12.592,11.697l-7.32,6.99c0,0-8.129-5.384-12.784-5.615c2.832,3.381,6.405,7.694,6.405,7.694s-1.836,2.671-2.795,2.458c-0.637-0.828-8.828-8.912-19.623-19.472l18.214-8.51C449.621,453.95,451.535,455.646,451.535,455.646z"></path><path style="fill:#232021;" d="M411.626,442.896l8.642,8.189c0,0-21.381-29.856-42.609-48.115C399.984,426.604,411.626,442.896,411.626,442.896z"></path><g><path style="fill:#414141;stroke:#000000;stroke-linecap:round;stroke-linejoin:round;" d="M327.025,363.813l2.681-0.786c0,0-0.277-2.895-0.694-3.678c-0.419-0.782-5.855-2.065-6.013-1.982c-0.157,0.084-0.126,2.744-0.126,2.744L327.025,363.813z"></path><circle style="fill:#232021;stroke:#000000;stroke-linecap:round;stroke-linejoin:round;" cx="327.844" cy="361.765" r="0.758"></circle></g><path style="fill:none;stroke:#000000;stroke-linecap:round;stroke-linejoin:round;" d="M332.107,364.606c0,0-4.261,1.068-8.347,4.236"></path><circle style="fill:#232021;stroke:#000000;stroke-linecap:round;stroke-linejoin:round;" cx="336.166" cy="377.185" r="13.22"></circle><g><path style="fill:#232021;stroke:#000000;stroke-linecap:round;stroke-linejoin:round;" d="M318.248,363.851l-4.322,4.726c0,0-1.27,0.112-2.063-1.336c-0.793-1.449-0.148-2.538-2.206-3.715c-1.757-0.349-2.88-0.717-2.88-0.717l-2.693,0.312c0,0-1.07,1.538-2.295,1.77c-1.226,0.232-4.176-0.164-4.885,0.092c-0.98,0.464-1.258,0.511-1.258,0.511s-1.561,2.545-2.388,2.766c-0.827,0.222-4.609-0.035-5.158,0.218c-0.55,0.254-2.749,2.657-3.228,2.591c-0.479-0.067-1.956-0.385-3.07-1.903c-1.114-1.52-4.603-8.618-3.548-12.261c0.607-1.049,2.792-2.537,2.792-2.537s0.641-1.248,3.588-2.481c2.947-1.23,12.092-5.329,15.834-5.033s7.365,2.105,10.457,1.784c3.088-0.321,7.574-0.483,7.574-0.483L318.248,363.851z"></path><path style="fill:#414141;" d="M317.939,355.357c0,0-1.505,4.609-4.02,7.101c-0.422-2.333,0.049-6.992,0.204-7.156c0.153-0.163,3.917-3.562,3.917-3.562L317.939,355.357z"></path><path style="opacity:0.5;fill:#414141;" d="M316.462,349.161c0.172,0.042-1.784,3.105-3.71,5.383c-0.963,2.569-1.396,5.64-1.396,5.64s-8.405-2.315-10.137-1.714c-1.73,0.603-3.631,0.894-3.631,0.894s0.088-8.506,2.044-11.142c3.3,0.11,8.12,0.576,8.12,0.576S315.142,348.836,316.462,349.161z"></path></g><g><path style="fill:#232021;" d="M359.9,402.932l-14.986-14.315l-0.031-1.19l-4.291,2.2c0,0,7.109,5.114,8.35,6.868C351.734,396.24,359.9,402.932,359.9,402.932z"></path><path style="fill:#232021;" d="M354.069,398.878c0,0-4.252-3.023-10.124-1.237c-6.105,1.858-7.137,3.45-7.137,3.45l-1.924-2.133C334.885,398.958,345.166,391.292,354.069,398.878z"></path></g><g><circle style="fill:#6E6E6E;stroke:#000000;stroke-linecap:round;stroke-linejoin:round;" cx="336.165" cy="377.185" r="10.587"></circle><g><g><g><path style="fill:#505050;" d="M335.979,370.203c1.864-0.05,3.637,0.629,4.991,1.913c1.354,1.282,2.127,3.015,2.178,4.879c0.05,1.866-0.628,3.64-1.911,4.995c-2.65,2.795-7.08,2.914-9.876,0.267c-1.354-1.284-2.128-3.019-2.179-4.885c-0.049-1.865,0.63-3.637,1.912-4.99C332.379,371.027,334.113,370.253,335.979,370.203z M335.951,369.203c-2.132,0.058-4.115,0.942-5.582,2.491c-1.467,1.547-2.244,3.572-2.187,5.704c0.058,2.133,0.941,4.116,2.49,5.585c3.195,3.026,8.26,2.89,11.288-0.306c1.468-1.549,2.244-3.576,2.186-5.71c-0.058-2.131-0.941-4.112-2.489-5.578C340.109,369.923,338.083,369.146,335.951,369.203z"></path></g><path style="fill:#505050;" d="M342.949,379.831c-0.082-0.116-1.547-0.691-1.783-0.607s-0.447,0.348-0.343,0.566c0.106,0.215,1.522,1.21,1.522,1.21L342.949,379.831z"></path><path style="fill:#505050;" d="M332.424,383.471c0.129-0.061,0.943-1.407,0.898-1.657c-0.045-0.246-0.268-0.499-0.498-0.432c-0.23,0.068-1.45,1.297-1.45,1.297L332.424,383.471z"></path><path style="fill:#505050;" d="M334.43,370.068c0.114,0.087,0.645,1.569,0.553,1.803c-0.094,0.234-0.363,0.436-0.576,0.323c-0.213-0.109-1.162-1.557-1.162-1.557L334.43,370.068z"></path></g><path style="opacity:0.5;fill:#FFFFFF;" d="M337.252,371.802c-0.271-0.449-1.852-0.13-1.881,0.228c-0.03,0.359,1.816,4.777,2.096,4.811s-0.398-3.703-0.398-3.703S337.521,372.251,337.252,371.802z"></path><path style="opacity:0.5;fill:#FFFFFF;" d="M337.365,368.618c-0.174,0.224-3.664,0.437-4.777,1.084c-0.503-0.167-1.181-1.001-0.875-1.485c0.305-0.485,2.426-1.714,4.217-1.268C337.15,367.255,337.537,368.396,337.365,368.618z"></path></g></g></g><g><path style="fill:#6E6E6E;stroke:#000000;stroke-linecap:round;stroke-linejoin:round;" d="M454.492,454.731c-0.342,0.605-3.729,3.198-3.729,3.198s-11.221,8.169-17.896,8.11c-3.192,0.919-4.384,0.952-4.384,0.952s-1.673-9.012-18.048-28.475s-33.11-34.623-43.814-42.678c-10.705-8.056-21.114-9.563-21.114-9.563l3.71-12.732l2.098-1.725l11.484,10.417c0,0,7.088-6.745,10.764-7.441c1.48,1.868,3.502,6.104,3.502,6.104l-2.196,2.563l5.272,5.46l1.879-1.004c0,0,12.01,15.284,32.963,33.555C436.461,440.2,453.133,452.98,454.492,454.731z"></path><path style="fill:#505050;" d="M453.52,454.668c0,0-1.305,1.853-2.012,2.111c-2.746-2.371-44.446-37.36-51.791-48.96C417.283,425.043,453.52,454.668,453.52,454.668z"></path><path style="opacity:0.5;fill:#FFFFFF;" d="M367.617,381.927c-0.314-0.146-1.975,1.962-1.604,2.429c0.369,0.467,18.246,15.896,19.143,16.05C385.089,400.108,368.1,382.154,367.617,381.927z"></path><path style="fill:#505050;" d="M432.816,465.603c0,0-2.914,0.959-3.631,0.898c-1.904-6.542-11.479-21.327-26.633-37.483C423.247,446.246,432.816,465.603,432.816,465.603z"></path></g><path style="opacity:0.5;fill:#FFFFFF;" d="M450.379,456.867c0,0-34.844-28.142-51.161-45.459c15.384,13.647,52.106,45.195,52.106,45.195L450.379,456.867z"></path></g></g></svg>