<svg xmlns="http://www.w3.org/2000/svg" width="500" height="500" version="1.1"><g id="x9152"><g><g><g><path style="fill:#6E6E6E;stroke:#000000;stroke-linecap:round;stroke-linejoin:round;" d="M361.995,432.6c4.764,6.178,13.12,20.752,23.625,25.443c5.256,2.348,11.188,0.962,16.65-0.958l-9.688-4.4c-0.97,0.084-1.872,0.107-2.674,0.011c-5.42-0.642-13.646-9.547-19.246-17.713c-5.6-8.167-21.947-16.376-21.947-16.376l-2.572,0.664C346.144,419.271,355.085,423.63,361.995,432.6z"></path><path style="fill:#505050;" d="M409.063,449.071c0,0-14.559,5.934-20.801,3.598c-6.245-2.338-15.068-14.544-18.238-17.024c4.701,7.271,8.824,18.907,17.875,20.588C396.952,457.916,409.063,449.071,409.063,449.071z"></path><path style="fill:#6E6E6E;stroke:#000000;stroke-linecap:round;stroke-linejoin:round;" d="M379.603,413.92c11.073,3.424,11.674,8.776,11.674,8.776l4.908,2.446c0,0,0.715-14.403-12.21-17.528c-7.264-1.755-17.089,2.708-25.296,4.913l6.14,2.116C370.161,413.321,375.466,412.643,379.603,413.92z"></path><path style="fill:#6E6E6E;stroke:#000000;stroke-linecap:round;stroke-linejoin:round;" d="M337.674,430.779c-0.058-0.5,2.305-5.17,5.933-3.631c1.387,0.589,0.448,5.327-3.951,6.012c-4.402,0.685-11.319,0.174-16.423-29.597c0.469-0.063,1.116-0.249,1.116-0.249s5.499,26.108,12.883,27.371"></path><path style="fill:#FFFFFF;" d="M340.228,428.354c0.979-0.901,2.256-1.036,2.848-0.296c0.595,0.734,0.277,2.063-0.703,2.964c-0.98,0.899-2.257,1.034-2.85,0.297C338.931,430.581,339.245,429.256,340.228,428.354z"></path><path style="fill:#6E6E6E;stroke:#000000;stroke-linecap:round;stroke-linejoin:round;" d="M320.573,393.596c0,0-2.104-3.974,1.789-10.8c2.439-4.276,17.154-12.401,29.706-7.563c12.552,4.84,10.364,11.727,8.063,14.755c2.615,0.562,16.364-9.109-2.13-16.603c-18.492-7.496-41.437,5.256-40.379,20.649"></path><path style="fill:#FFFFFF;" d="M364.081,383.313c0.656-1.189,1.283-2.178,2.069-1.686c0.784,0.491,0.889,1.854,0.231,3.046c-0.657,1.188-2.887,3.778-3.67,3.285C361.925,387.468,363.425,384.501,364.081,383.313z"></path><g id="leftXMLID_5_"><g><path style="fill:#6E6E6E;" d="M218.228,333.66c0,0,0-4.733,1.064-5.204c3.846,1.184,67.106,41.564,67.106,41.564l1.62,4.042c0,0,4.203,1.064,4.829,1.205c0.625,0.139,3.646,3.915,3.646,3.915s-1.669-4.013-1.353-5.689c1.671-1.027,1.671-1.027,1.671-1.027s0.566-1.273,1.193-2.007c0.628-0.733,1.378-0.4,1.985-1.832c0.603-1.444,1.814-5.191,3.413-5.896c2.006-0.263,2.758,0.071,2.758,0.071s1.454-2.47,3.974-4.537c2.515-2.077,5.117-2.036,5.518-1.603c0.399,0.432,1.896,2.845,0.971,6.827c-2.519,2.214-6.603,2.912-9.559,4.086c-2.386,2.595-2.978,6.442-2.978,6.442c-0.36,2.691,0.21,4.648,1.016,6.034l4.343,0.781c0.22-0.064,4.179,6.239,4.179,6.239s4.377,1.431,4.471,1.805c0.047,0.188,0.035,0.651,0.021,1.088c-0.028,0.432-0.06,0.813-0.06,0.813l0.093,0.08c6.972,0.457,13.528-6.491,16.292-8.45c1.986,5.529,9.925,24.063,23.984,30.1c14.044,6.031,18.781-2.24,18.781-2.24s103.434,68.874,120.522,86.817c-47.062-14.63-122.196-52.701-122.196-52.701s-1.386-9.705-14.436-19.812c-15.014-11.639-29.586-10.481-38.572-9.185c-2.406-6.096-6.467-19.296-6.467-19.296l-1.43-0.644c0,0-0.927,1.446-1.999,2.779c-1.825-1.948-4.072-3.396-4.072-3.396s-2.351,0.372-2.601,0.398c-0.261,0.034-0.57-2.128-0.57-2.128s-0.441,0.168-0.885,0.338c0.044,5.321,3.385,6.988,3.385,6.988l1.496,0.242c0,0,0.437,1.137,0.201,3.261c-0.253,2.12-2.258,3.694-2.472,3.916c0,0-4.76-4.074-6.164-10.295c-1.415-6.229-1.415-6.229-1.415-6.229s-2.23-2.392-2.59-5.596c-1.07-1.634-2.014-3.046-2.594-3.438c-0.574-0.382-2.016-0.953-2.545-1.15c-0.535-0.206-4.137-4.375-4.137-4.375l-3.677,1.386L218.228,333.66z"></path></g><path style="fill:#505050;" d="M465.757,479.419c-0.571,0.115-79.41-36.342-79.41-36.342l-18.393-20.172l15.378-1.505L465.757,479.419z"></path><g><path style="fill:#666666;" d="M368.603,419.902c3.805-0.066,9.067-2.136,10.279-3.468l0.759,2.686c-1.88,2.307-6.491,4.124-8.515,4.84c1.064,1.207,2.475,2.329,4.291,2.942c2.527-0.637,6.721-2.961,8.967-5.901c1.103,0.916,1.704,1.678,1.704,1.678s-3.214,1.165-5.275,4.945c3.565,0.103,7.021,0.188,9.979,4.552c0.322,0.478,0.659,0.937,1.016,1.381c1.944-0.186,6.859-0.318,11.183,2.351c-3.423-0.292-6.176,0.519-7.659,1.304c3.698,3.16,8.361,5.535,13.63,7.376c1.442-0.544,4.083-1.087,7.256,0.251c-1.556,0.21-2.782,0.561-3.739,0.899c8.369,2.756,11.254,7.119,14.283,11.401c3.123,4.412,6.043,3.579,12.794,4.048c-2.771,2.755-10.077,2.842-13.065,1.928c-2.988-0.909-4.24-3.749-8.707-9.151c-4.473-5.395-12.045-3.822-18.77-5.875c-6.726-2.052-7.575-7.352-11.397-10.682c-0.864-0.748-1.726-1.243-2.62-1.611c2.152,2.679,4.693,6.697,4.087,10.127c-2.583-5.242-5.925-9.055-8.04-11.153c-2.063-0.361-4.373-0.737-7.143-1.98c-6.01-2.689-7.787-8.569-7.787-8.569s-5.355-5.103-10.538-5.385c-5.183-0.285-11.403-4.191-13.017-5.703l6.096-6.061c0,0,2.924,3.631,5.834,6.831c7.703-0.539,13.825,5.222,13.825,5.222S368.409,419.428,368.603,419.902z"></path></g><path style="fill:none;stroke:#000000;stroke-linecap:round;stroke-linejoin:round;" d="M342.558,413.131c1.613,1.512,7.834,5.418,13.017,5.703c5.183,0.282,10.538,5.385,10.538,5.385s1.777,5.88,7.787,8.569c2.77,1.243,5.079,1.619,7.143,1.98c2.115,2.099,5.457,5.911,8.04,11.153c0.606-3.43-1.935-7.448-4.087-10.127c0.895,0.368,1.756,0.863,2.62,1.611c3.822,3.33,4.672,8.63,11.397,10.682c6.725,2.053,14.297,0.48,18.77,5.875c4.467,5.402,5.719,8.242,8.707,9.151c2.988,0.914,10.295,0.827,13.065-1.928c-6.751-0.469-9.671,0.364-12.794-4.048c-3.029-4.282-5.914-8.646-14.283-11.401c0.957-0.339,2.184-0.689,3.739-0.899c-3.173-1.338-5.813-0.795-7.256-0.251c-5.269-1.841-9.932-4.216-13.63-7.376c1.483-0.785,4.236-1.596,7.659-1.304c-4.323-2.669-9.238-2.536-11.183-2.351c-0.356-0.444-0.693-0.903-1.016-1.381c-2.959-4.363-6.414-4.449-9.979-4.552c2.062-3.78,5.275-4.945,5.275-4.945"></path><path style="fill:none;stroke:#000000;stroke-linecap:round;stroke-linejoin:round;" d="M384.706,420.811c-2.245,2.938-6.762,5.455-9.289,6.092c-1.816-0.613-3.227-1.735-4.291-2.942c2.023-0.716,6.635-2.533,8.515-4.84"></path><g id="leftXMLID_28_"><g><path style="fill:none;stroke:#000000;stroke-linecap:round;stroke-linejoin:round;" d="M378.882,416.435c-1.212,1.332-6.475,3.401-10.279,3.468c-0.193-0.475-0.29-0.779-0.29-0.779s-6.122-5.761-13.825-5.222c-2.91-3.2-5.834-6.831-5.834-6.831"></path></g></g><path style="fill:#666666;" d="M336.354,409.658l11.409,6.652c0,0-1.022-3.194-1.657-4.83c-0.634-1.634,5.568-2.623,5.568-2.623s-15.604-9.089-18.514-21.218c-5.109,3.917-11.523,3.69-14.494,3.217c-0.137-1.482-0.137-1.482-0.137-1.482l-4.749-1.882l-4.336-6.658l-4.343-0.781c0,0-3.898-6.344,1.454-12.641c2.282-0.457,8.201-2.397,9.384-3.765c1.18-1.37-0.288-6.984-0.288-6.984s-3.457-1.077-9.039,5.577c-2.355,0.723-3.657,1.045-3.657,1.045l-3.389,6.031c-1.125,0.665-2.258,3.347-2.258,3.347l-2.169,0.83l1.353,5.689l-3.646-3.915l-2.529-0.703l-2.008-1.044l-7.667-7.528l-41.404-25.321l-1.18,5.837l46.297,31.138l2.663-1.351l5.003,4.41l3.232,3.005l3.591,6.142c0,0,3.343,14.529,8.266,17.996c2.036-1.305,2.271-7.177,2.271-7.177s-4.141-2.095-5.057-4.68c-0.914-2.587-0.893-4.164-0.893-4.164l1.943,1.05l0.58,2.354l2.436-0.304l4.237,3.301l1.999-2.779c0,0,4.787,0.103,6.993,3.154c2.204,3.053,3.292,12.464,3.292,12.464L336.354,409.658z"></path><path d="M305.818,383.043l3.665,5.874c0,0-6.595,3.015-9.971-0.241s-5.184-10.006-5.184-10.006S301.776,378.061,305.818,383.043z"></path><path style="fill:#3F3F3F;" d="M342.966,408.648c0,0-5.48-1.674-2.564-4.962c-5.046,1.198-8.732,1.372-8.732,1.372S339.027,408.745,342.966,408.648z"></path><path style="fill:#3F3F3F;" d="M336.224,401.691c0.546-0.214-6.334-2.509-4.396-5.665c-4.104,2.205-6.41,4.239-6.41,4.239S332.905,402.985,336.224,401.691z"></path><path style="fill:#3F3F3F;" d="M323.585,395.093c-0.505,0.238-5.189-2.735-4.797-3.192c3.189-0.322,6.203-0.989,7.896-1.769c1.695-0.78,5.81-0.532,9.996,3.914C331.45,392.45,329.152,392.469,323.585,395.093z"></path><path style="fill:#3F3F3F;" d="M311.571,392.149c0,0,1.125-5.134,0.7-5.553c-0.426-0.418-3.384-4.924-3.384-4.924l-3.544-0.36C305.344,381.313,309.354,389.887,311.571,392.149z"></path><path style="fill:#3F3F3F;" d="M306.557,367.412l-0.396-4.609c0,0-2.24-0.087-3.101,1.091c-0.86,1.181-0.353,8.254,0.67,11.448C303.655,371.14,305.591,367.984,306.557,367.412z"></path><polygon style="fill:#3F3F3F;" points="296.937,380.555 297.501,373.442 301.786,380.516 "></polygon><path style="fill:#3F3F3F;" d="M308.295,401.239c0,0-4.659-1.711-3.978-7.702c-1.863-1.578-4.018-2.089-4.018-2.089S300.614,402.207,308.295,401.239z"></path><path style="fill:none;stroke:#000000;stroke-linecap:round;stroke-linejoin:round;" d="M311.839,392.664c0,0-6.309-8.559-7.691-14.889"></path><path style="fill:none;stroke:#000000;stroke-linecap:round;stroke-linejoin:round;" d="M299.794,379.905c0,0-2.709-4.43-2.251-7.604"></path><path style="fill:none;stroke:#000000;stroke-linecap:round;stroke-linejoin:round;" d="M301.544,378.422c0,0-2.258-5.591-1.641-8.858"></path><path style="fill:none;stroke:#000000;stroke-linecap:round;stroke-linejoin:round;" d="M314.767,363.001c0,0-3.961-2.795-0.49-6.636"></path><path style="fill:#FFFFFF;" d="M495.37,495.52c0,0-58.697-49.047-117.635-84.547c-1.688,0.999-2.627,2.226-2.627,2.226L495.37,495.52z"></path><path style="fill:#FFFFFF;" d="M494.997,495.405c-39.906-16.937-120.211-54.201-120.211-54.201l0.746,3.18C375.532,444.384,477.956,494.096,494.997,495.405z"></path><g><path style="fill:none;stroke:#000000;stroke-linecap:round;stroke-linejoin:round;" d="M310.135,358.266c-2.52,2.067-3.974,4.537-3.974,4.537s-0.752-0.334-2.758-0.071c-1.599,0.704-2.811,4.451-3.413,5.896c-0.607,1.432-1.357,1.099-1.985,1.832c-0.627,0.733-1.193,2.007-1.193,2.007s0,0-1.671,1.027c-0.316,1.677,1.353,5.689,1.353,5.689s-3.021-3.776-3.646-3.915c-0.626-0.141-4.829-1.205-4.829-1.205l-1.62-4.042c0,0-63.261-40.381-67.106-41.564c-1.064,0.471-1.064,5.204-1.064,5.204l65.763,44.489l3.677-1.386c0,0,3.602,4.169,4.137,4.375c0.529,0.197,1.971,0.769,2.545,1.15c0.58,0.393,1.523,1.805,2.594,3.438c0.359,3.204,2.59,5.596,2.59,5.596s0,0,1.415,6.229c1.404,6.221,6.164,10.295,6.164,10.295c0.214-0.222,2.219-1.796,2.472-3.916c0.235-2.124-0.201-3.261-0.201-3.261l-1.496-0.242c0,0-3.341-1.667-3.385-6.988c0.443-0.17,0.885-0.338,0.885-0.338s0.31,2.162,0.57,2.128c0.25-0.026,2.601-0.398,2.601-0.398s2.247,1.447,4.072,3.396c1.072-1.333,1.999-2.779,1.999-2.779l1.43,0.644c0,0,4.061,13.2,6.467,19.296c8.986-1.297,23.559-2.454,38.572,9.185c13.05,10.106,14.436,19.812,14.436,19.812s75.135,38.071,122.196,52.701c-17.089-17.943-120.522-86.817-120.522-86.817s-4.737,8.271-18.781,2.24c-14.06-6.037-21.998-24.57-23.984-30.1c-2.764,1.959-9.32,8.907-16.292,8.45l-0.093-0.08c0,0,0.031-0.381,0.06-0.813c0.015-0.437,0.026-0.899-0.021-1.088c-0.094-0.374-4.471-1.805-4.471-1.805s-3.959-6.304-4.179-6.239l-4.343-0.781c-0.806-1.386-1.376-3.343-1.016-6.034c0,0,0.592-3.848,2.978-6.442c2.956-1.174,7.04-1.872,9.559-4.086c0.926-3.982-0.571-6.396-0.971-6.827C315.252,356.229,312.649,356.188,310.135,358.266z"></path></g></g><path style="fill:#6E6E6E;stroke:#000000;stroke-linecap:round;stroke-linejoin:round;" d="M360.577,412.074c-5.461,1.468-12.037,3.445-14.641,3.951c-0.445,0.087-0.838,0.146-1.156,0.169c-4.953,0.329-6.914-2.184-6.914-2.184s-0.968,5.888,5.107,6.494c1.846,0.187,4.936-0.669,8.645-1.849c3.941-1.251,9.744-3.291,14.363-4.434"></path><path style="fill:#6E6E6E;stroke:#000000;stroke-linecap:round;stroke-linejoin:round;" d="M400.642,457.515c5.457-1.918,10.447-4.368,13.828-4.164c6.766,0.407,15.548,11.521,18.139,13.299c2.593,1.775,7.244-1.233,7.244-1.233s-3.732,0.766-7.193-2.414c-3.465-3.183-7.945-13.047-18.277-14.397c-8.801-1.147-17.855,4.018-23.43,4.508"></path><path style="fill:#6E6E6E;stroke:#000000;stroke-linecap:round;stroke-linejoin:round;" d="M259.055,352.692c0,0,10.11,21.674,16.731,26.229c11.602,2.965,15.569,1.543,15.569,1.543l-2.812-7.307c0,0-8.107,0.554-10.172,0.212c-5.533-2.581-13.314-17.997-17.242-22.148c-0.965-0.59-5.997-2.892-9.466-3.156l2.859,1.881C256.547,351.431,259.055,352.692,259.055,352.692z"></path><path style="fill:#6E6E6E;stroke:#000000;stroke-linecap:round;stroke-linejoin:round;" d="M227.329,330.383c-2.729,0.634-7.459,0.662-11.125,0.224c0.527,1.507,2.617,3.349,2.617,3.349c1.939,0.937,9.951,2.484,9.951,2.484s5.877,9.27,10.898,13.657c1.381,0.458,3.16,0.842,5.074,1.162l-3.328-2.716C240.407,348.465,229.519,331.725,227.329,330.383z"></path><path style="fill:#6E6E6E;stroke:#000000;stroke-linecap:round;stroke-linejoin:round;" d="M306.62,386.923c0,0-3.381,3.561-7.107,1.753c-3.727-1.805-3.177-6.306-2.576-8.121c0.688,0.016,1.305-0.254,1.305-0.254s2.498-0.938,4.95,0.661C305.642,382.561,306.62,386.923,306.62,386.923z"></path><path d="M305.288,386.033l0.717,1.157c0,0-2.271,1.057-5.289-0.533c-3.02-1.584-3.596-4.118-3.412-4.414C298.335,383.068,301.276,385.373,305.288,386.033z"></path><path style="fill:#FFFFFF;" d="M298.628,386.748c0,0,1.004-0.654,1.373-1.917c0.369-1.26,0.789-3.114,0.365-3.205C299.944,381.536,297.69,384.135,298.628,386.748z"></path><path style="fill:#6E6E6E;stroke:#000000;stroke-linecap:round;stroke-linejoin:round;" d="M278.005,364.695c0,0,3.173-2.111,7.037,0.197c-1.348-2.593-3.117-3.792-3.117-3.792s-4.343-0.603-6.394,2.075C276.854,364.283,278.005,364.695,278.005,364.695z"></path><path style="fill:#6E6E6E;stroke:#000000;stroke-linecap:round;stroke-linejoin:round;" d="M279.077,361.334c0,0,8.986,16.302,11.05,21.388c2.065,5.085,4.136,8.391,7.53,10.514c3.23,1.273,6.646,0.685,7.719-0.358c0,0-4.453-0.148-7.599-3.064c-2.539-2.354-3.144-9.987-5.779-16.465C284.59,363.88,279.077,361.334,279.077,361.334z"></path></g><path style="fill:none;stroke:#000000;stroke-linecap:round;stroke-linejoin:round;" d="M317.953,391.502c0,0,3.261,3.879,6.112,3.309c2.854-0.57,9.925-4.758,15.05,0.699"></path><path style="fill:none;stroke:#000000;stroke-linecap:round;stroke-linejoin:round;" d="M334.683,395.454c-0.572,0.113-5.652,0.439-9.266,4.812c0,0,8.969,2.736,15.869,0.661"></path><path style="fill:none;stroke:#000000;stroke-linecap:round;stroke-linejoin:round;" d="M342.668,402.791c0,0-6.71,2.854-10.999,2.268c2.112,1.651,10.364,5.035,18.352,3.438"></path></g></g></g></svg>