<svg xmlns="http://www.w3.org/2000/svg" width="500" height="500" version="1.1"><g id="x9153"><g><g><path style="fill:#6E6E6E;" d="M381.135,113.671c0,0-0.026-0.035-0.077-0.103c-0.818-1.083-7.867-10.368-10.432-11.833c-1.298,0.648-6.747-2.206-5.969-4.93c0.779-2.725,4.541-2.984,4.541-2.984s-4.151-10.12-7.654-13.752c-3.504-3.633-3.893-5.319-3.893-5.319s1.168-3.114,2.076-4.022s-0.648-3.633-0.648-3.633s-1.816-13.752-10.77-23.224c-8.951-9.471-14.4-13.882-16.736-14.142c-2.336-0.259-5.969,1.946-5.969,1.946s-7.654-2.725-9.471-1.427s-1.168,2.854-1.168,2.854S287.202,4.299,283.698,3.521c-3.502-0.778,9.602,13.104,10.77,15.699c1.167,2.595,0.777,3.114,0.777,3.114s23.484,29.711,24.651,30.749c1.168,2.076,1.298,4.022,1.298,4.022s-2.854,0.908-2.725,3.893c0.129,2.984,2.076,5.06,2.076,5.06s-1.168,0.908-0.779,2.076c0.39,1.167,7.136,9.211,7.136,9.211s-0.778,1.168-0.13,1.816c0.648,0.649,4.541,6.357,4.541,6.357s0.39,3.892,3.373,7.396c2.984,3.503,19.721,14.012,20.37,14.661c0.648,0.648,18.553,10.509,18.553,10.509"></path><path style="fill:#505050;" d="M378.8,112.503c0,0-2.941-6.919-7.611-10.033c-3.807-0.865-6.92-2.422-6.747-4.844c0.173-2.421,4.757-3.806,4.757-3.806s-2.162-8.996-6.832-12.801c0.519,10.898,0.137,16.855-2.076,20.932c-2.956,5.444-9.516,2.421-9.516,2.421l14.705,10.726L378.8,112.503z"></path><path style="opacity:0.2;fill:#FFFFFF;" d="M357.867,65.277c0,0-1.731,5.535-5.017,4.325c-3.287-1.211-37.364-34.944-37.885-36.5c-0.52-1.557,1.168-2.854,1.168-2.854s6.618-0.691,9.471,1.427c0.951-0.649,4.586-2.206,5.969-1.946C332.957,29.988,357.867,46.076,357.867,65.277z"></path><path style="opacity:0.2;fill:#FFFFFF;" d="M323.615,42.27c0,0-1.557,6.747,0.519,8.822c0,2.595,2.249,8.649,5.536,11.244c0.864,2.768-0.692,6.574,0,7.439c1.038,1.557,5.362,10.379,6.92,11.936c-0.347,1.73,1.729,5.708,3.114,6.919c1.383,1.211,6.054,6.4,6.054,6.4l0.346,6.92c0,0-12.456-7.785-14.013-12.628c-1.557-4.844-1.21-4.844-1.21-4.844l-5.017-5.536l1.038-1.6l-7.612-9.644l1.256-1.644c0,0-2.984-5.103-2.12-6.487c0.864-1.384,2.769-2.465,2.769-2.465l-1.039-3.07C320.155,54.033,319.464,51.266,323.615,42.27z"></path><path style="fill:none;stroke:#000000;" d="M381.135,113.671c0,0-0.026-0.035-0.077-0.103c-0.818-1.083-7.867-10.368-10.432-11.833c-1.298,0.648-6.747-2.206-5.969-4.93c0.779-2.725,4.541-2.984,4.541-2.984s-4.151-10.12-7.654-13.752c-3.504-3.633-3.893-5.319-3.893-5.319s1.168-3.114,2.076-4.022s-0.648-3.633-0.648-3.633s-1.816-13.752-10.77-23.224c-8.951-9.471-14.4-13.882-16.736-14.142c-2.336-0.259-5.969,1.946-5.969,1.946s-7.654-2.725-9.471-1.427s-1.168,2.854-1.168,2.854S287.202,4.299,283.698,3.521c-3.502-0.778,9.602,13.104,10.77,15.699c1.167,2.595,0.777,3.114,0.777,3.114s23.484,29.711,24.651,30.749c1.168,2.076,1.298,4.022,1.298,4.022s-2.854,0.908-2.725,3.893c0.129,2.984,2.076,5.06,2.076,5.06s-1.168,0.908-0.779,2.076c0.39,1.167,7.136,9.211,7.136,9.211s-0.778,1.168-0.13,1.816c0.648,0.649,4.541,6.357,4.541,6.357s0.39,3.892,3.373,7.396c2.984,3.503,19.721,14.012,20.37,14.661c0.648,0.648,18.553,10.509,18.553,10.509"></path></g><g id="leftXMLID_9_"><g><path style="fill:#6E6E6E;" d="M338.579,196.316c4.234,2.854,13.234-8.044,13.234-10.379c0,0-9.342-3.114-10.38-2.076S332.767,192.404,338.579,196.316z M372.053,178.153c0,0-2.595,8.044-0.778,10.12s3.893,4.93,4.411,5.968c0.519,1.038,1.038,3.633,1.038,3.633s11.936,11.936,17.904,13.752c5.968,1.816,4.93-0.519,4.93-0.519s39.701,22.056,46.188,39.701s0.259,24.651,0.259,24.651s-6.746-3.114-10.119-0.778c-3.373,2.335-7.525,3.373-7.525,3.373s2.854-2.076,3.373-4.671c0.52-2.595,1.039-5.449,1.039-5.449s4.93,2.595,7.524-1.297c2.595-3.893-2.335-13.493-7.266-15.31c-4.007-1.474-5.272-0.551-5.605-0.156c0.551-0.914,2.606-6.01-10.224-16.97c-14.271-12.196-43.074-32.176-44.631-33.474s-3.633-3.373-3.633-3.373s-11.936-0.519-15.828,4.93s-1.038,7.266-1.038,7.266s-4.931,0.519-6.747,3.892c-1.816,3.373-0.777,4.152-1.557,4.671c-0.777,0.519-4.151-2.076-7.266,6.746c-3.113,8.823-57.599,230.371-57.599,230.371l-6.747-4.151c0,0,57.6-237.637,57.859-241.529c0.26-3.893-0.779-5.968,1.037-9.86c1.816-3.893-2.075-13.493,11.938-19.461C359.598,177.634,372.053,178.153,372.053,178.153z"></path><path style="fill:#505050;" d="M351.813,185.937c0,0-6.747,12.715-13.234,10.379c-2.335-3.028-3.545-3.028-0.605-8.217c-3.46,3.46-5.708,9.169-0.519,11.072C342.646,201.073,350.948,192.079,351.813,185.937z"></path><path style="fill:#505050;" d="M371.188,179.104l-0.693,8.649c0,0-24.391-3.633-29.58-6.747C352.505,178.412,371.188,179.104,371.188,179.104z"></path><path style="opacity:0.5;fill:#FFFFFF;" d="M432.772,270.01c0,0,6.486,0,7.524-3.373c1.038-3.374,0.13-6.228,0.13-6.228s4.67-2.725-0.779-12.066c-5.449-9.341-22.314-27.246-38.922-35.29c-1.687,1.427-2.854,0.519-5.189-0.779c2.595,0,4.281,0.13,4.151-1.557c2.206,1.427,38.015,23.094,45.15,37.755s1.167,26.986,1.167,26.986s-7.135-2.465-8.822-1.428c-1.687,1.038-5.578,3.244-8.303,3.633C432.382,274.681,432.772,270.01,432.772,270.01z"></path><path style="fill:#FFFFFF;" d="M438.805,268.388c0,0-2.659,2.336-6.098,1.882c0.194-1.362,0.065-2.336,0.065-2.336S435.95,269.815,438.805,268.388z"></path><path style="fill:#857A7A;" d="M440.687,260.538c0,0-3.438-11.676-12.586-9.601c-0.259-2.919-3.438-8.952-3.438-8.952s4.346,4.995,4.67,6.682C434.588,249.251,440.297,253.078,440.687,260.538z"></path><path style="fill:#6E6E6E;" d="M427.333,251.307c0.021-0.031,0.051-0.073,0.093-0.136C427.374,251.233,427.343,251.285,427.333,251.307z"></path></g><g><path style="fill:none;stroke:#000000;stroke-linecap:round;stroke-linejoin:round;" d="M427.426,251.171c-0.042,0.063-0.071,0.104-0.103,0.156c0,0,0.01-0.011,0.01-0.021C427.343,251.285,427.374,251.233,427.426,251.171z"></path><path style="fill:none;stroke:#000000;stroke-linecap:round;stroke-linejoin:round;" d="M330.017,209.55c0.26-3.893-0.779-5.968,1.037-9.86c1.816-3.893-2.075-13.493,11.938-19.461c16.606-2.595,29.062-2.076,29.062-2.076s-2.595,8.044-0.778,10.12s3.893,4.93,4.411,5.968c0.519,1.038,1.038,3.633,1.038,3.633s11.936,11.936,17.904,13.752c5.968,1.816,4.93-0.519,4.93-0.519s39.701,22.056,46.188,39.701s0.259,24.651,0.259,24.651s-6.746-3.114-10.119-0.778c-3.373,2.335-7.525,3.373-7.525,3.373s2.854-2.076,3.373-4.671c0.52-2.595,1.039-5.449,1.039-5.449s4.93,2.595,7.524-1.297c2.595-3.893-2.335-13.493-7.266-15.31c-4.007-1.474-5.272-0.551-5.605-0.156c0.551-0.914,2.606-6.01-10.224-16.97c-14.271-12.196-43.074-32.176-44.631-33.474s-3.633-3.373-3.633-3.373s-11.936-0.519-15.828,4.93s-1.038,7.266-1.038,7.266s-4.931,0.519-6.747,3.892c-1.816,3.373-0.777,4.152-1.557,4.671c-0.777,0.519-4.151-2.076-7.266,6.746c-3.113,8.823-57.599,230.371-57.599,230.371l-6.747-4.151C272.157,451.079,329.757,213.442,330.017,209.55z"></path><path style="fill:none;stroke:#000000;stroke-linecap:round;stroke-linejoin:round;" d="M338.579,196.316c4.234,2.854,13.234-8.044,13.234-10.379c0,0-9.342-3.114-10.38-2.076S332.767,192.404,338.579,196.316z"></path></g></g><g id="leftXMLID_7_"><g><path style="fill:#6E6E6E;" d="M291.354,182.823c0,0-7.007,1.816-12.196,5.449c12.715-4.152,44.891-5.449,61.758-6.487c16.866-1.038,62.795-3.373,65.908-8.044c3.113-4.67-5.449-15.31-5.449-15.31c-12.715-16.088-54.491-29.062-57.605-25.948c-3.113,3.114,1.816,13.493,1.816,13.493s-2.594,0.519-4.41,1.816c-6.229-2.076-18.164-2.076-23.354-1.557c-4.931-1.557-20.5-1.297-20.5-1.297s-0.778,1.557-1.037,2.335c-0.26,0.779-3.114,1.297-8.305,3.893c13.754-0.779,49.821,5.189,57.087,7.525c1.298,5.708-2.854,8.563-4.671,9.341c-4.67-1.557-9.601-0.778-9.342,0.778c-4.93-0.778-9.859,1.557-9.859,2.854c-4.671,0.259-12.715,2.595-16.348,5.189C297.581,176.855,291.354,182.823,291.354,182.823z"></path></g><path style="fill:#505050;" d="M401.374,158.432c0,0,5.969,8.736,5.449,12.369c-0.519,3.633-7.438,4.324-7.438,4.324s3.287-3.459-11.763-18.682c-10.582-10.703-29.236-22.316-29.236-22.316S396.963,149.869,401.374,158.432z"></path><path style="opacity:0.2;fill:#FFFFFF;" d="M311.593,183.602c18.967-1.862,41.172-3.027,41.172-3.027s-1.903-0.864-1.211-1.989c0.691-1.125,1.211-1.211,1.297-1.471c0.086-0.26-0.432-2.509,0.692-2.768c1.124-0.26,2.508-0.346,2.508-0.346s-1.644-2.25,0.173-2.768c1.816-0.519,6.488-0.086,6.488-0.086s-2.855-4.239-4.845-4.584s-5.189,0.606-5.189,0.606s-1.815-1.384-3.806-0.952c-1.989,0.433-3.892,1.124-3.892,1.124s-3.201-0.346-4.325,0.433c-2.162-0.26-8.39-1.99-9.86,1.124c-3.806-0.086-7.438,2.681-9.946,2.854c-2.509,0.173-13.667,2.422-16.002,5.104c-3.2,0.087-10.984,2.854-13.58,5.623c-4.844,1.471-10.639,5.19-10.726,5.19C280.501,187.667,294.53,185.277,311.593,183.602z"></path><g><path style="fill:#6E6E6E;" d="M356.388,172.435L356.388,172.435c-0.164-0.031-16.514-3.085-26.181-1.941l0,0c-0.285,0.035-0.542-0.169-0.575-0.454c-0.035-0.285,0.168-0.542,0.453-0.576l0,0c9.826-1.164,26.33,1.92,26.495,1.951l0,0c0.282,0.053,0.468,0.325,0.413,0.606C356.94,172.303,356.669,172.489,356.388,172.435L356.388,172.435z"></path></g><g><path style="fill:#6E6E6E;" d="M355.794,173.999L355.794,173.999c-0.227-0.018-22.879-1.767-43.33,1.94l0,0c-0.281,0.051-0.552-0.136-0.604-0.418c-0.051-0.282,0.137-0.552,0.419-0.604l0,0c20.587-3.731,43.369-1.97,43.597-1.952l0,0c0.286,0.022,0.499,0.273,0.477,0.559C356.329,173.809,356.079,174.022,355.794,173.999L355.794,173.999z"></path></g><g><path style="fill:#6E6E6E;" d="M353.894,175.168L353.894,175.168c-0.271,0.003-27.469,0.348-61.91,7.902l0,0c-0.28,0.062-0.557-0.116-0.617-0.396c-0.063-0.281,0.115-0.558,0.395-0.618l0,0c34.554-7.579,61.852-7.923,62.123-7.926l0,0c0.287-0.003,0.521,0.227,0.523,0.514C354.411,174.931,354.181,175.166,353.894,175.168L353.894,175.168z"></path></g><g><path style="fill:#6E6E6E;" d="M353.87,175.805c-2.953,0.652-28.892,6.37-30.082,6.37l0,0c-0.286,0-0.518-0.232-0.518-0.519c0-0.287,0.231-0.519,0.518-0.519l0,0c-0.006,0,0.003,0-0.004,0c0.965-0.032,18.387-3.812,29.863-6.345l0,0c0.279-0.062,0.557,0.116,0.619,0.396C354.327,175.467,354.15,175.743,353.87,175.805L353.87,175.805z"></path></g><path style="opacity:0.2;fill:#FFFFFF;" d="M345.066,143.555l1.384,2.941c0,0,5.104,1.211,7.093,3.027c-1.211,0.865-3.2-0.346-2.163,2.681c0,0-5.361-0.432-6.313,0.779c-0.952,1.21-0.604,1.384-0.604,1.384s-5.277-1.729-6.92-3.114c-1.125-0.086-1.125-0.086-1.125-0.086s3.892,2.336,4.064,3.979c0.174,1.643-1.643,1.902-1.643,1.902s-33.128-7.005-48.956-6.314c7.524-0.778,14.358-0.605,14.358-0.605s2.336-1.038,7.871-1.038s20.153,1.989,20.153,1.989s-14.099-1.729-15.569-2.249s-1.73-1.038-1.73-1.038s-5.535-0.778-5.708-1.21c-0.173-0.433,7.179-0.952,7.179-0.952l3.374,0.606c0,0,12.974-1.297,21.364,1.557c2.334-1.644,3.633-1.644,3.633-1.644L345.066,143.555z"></path><g><path style="fill:none;stroke:#000000;stroke-linecap:round;stroke-linejoin:round;" d="M401.374,158.432c0,0,8.563,10.639,5.449,15.31c-3.113,4.671-49.042,7.006-65.908,8.044c-16.867,1.038-49.043,2.335-61.758,6.487c5.189-3.633,12.196-5.449,12.196-5.449s6.228-5.968,13.493-5.968c3.633-2.595,11.677-4.93,16.348-5.189c0-1.297,4.93-3.633,9.859-2.854c-0.259-1.557,4.672-2.335,9.342-0.778c1.816-0.778,5.969-3.633,4.671-9.341c-7.266-2.335-43.333-8.304-57.087-7.525c5.19-2.595,8.045-3.114,8.305-3.893c0.259-0.778,1.037-2.335,1.037-2.335s15.569-0.26,20.5,1.297c5.189-0.519,17.125-0.519,23.354,1.557c1.816-1.297,4.41-1.816,4.41-1.816s-4.93-10.379-1.816-13.493C346.883,129.37,388.659,142.344,401.374,158.432z"></path></g></g><g id="leftXMLID_6_"><g><path style="fill:#6E6E6E;" d="M438.823,167.337c3.113,20.759,0,28.377-1.381,26.986c-1.381-1.38-30.1-38.746-72.655-57.086c-42.556-18.33-87.528-36.67-87.528-36.67s30.441,3.809,38.402,10.037c7.266,0.685,12.455,1.723,12.455,1.723s-35.984-22.139-61.933-27.671c-8.72-4.017-10.94-8.698-11.064-8.989c0.841,0.187,37.138,8.376,48.087,15.559c10.38,2.771,29.063,2.418,42.898,13.836c2.418-1.723,10.037-0.685,21.102,7.266c0,0,4.068-2.678,13.41-0.083c5.885,0.26,7.783-1.297,7.783-5.189s-3.892-7.006-3.892-7.006s5.325,1.307,4.671-8.304c-0.861-12.631-8.999-18.683-8.999-18.683s3.633,0,5.968-5.532c2.906-6.892,0.955-14.967-5.531-12.113c2.335-3.892,1.037-16.088-6.747-20.499c-0.478-6.01-9.643-11.345-10.991-12.113c4.607,2.159,103.035,49.458,121.791,145.747c18.442,94.711-27.756,159.261-31.43,164.211c1.963-2.771,16.328-24.132,10.847-50.899c5.19-15.227,9.685-22.835,4.837-30.453c-4.837-7.608-7.951-10.722-7.951-10.722l-4.15-10.379c0,0,10.025,0.695,11.76-6.57c1.732-7.266,0.695-8.656,0.695-8.656s5.189-3.799,1.723-11.417c-3.457-7.608-15.569-20.759-15.569-20.759s8.656,0.695,7.266-4.494c-1.38-5.189-13.835-14.531-13.835-14.531s11.76-7.608,4.846-11.417c-6.32-3.477-22.46-10.41-25.201-11.594C431.941,146.039,436.903,154.509,438.823,167.337z M424.987,134.819c-0.125,0.903,1.339,2.782,3.394,5.864c1.921-0.166,13.473-1.225,12.519-3.446C439.86,134.819,425.33,132.4,424.987,134.819z M408.899,100.744c3.975-7.619,3.633-30.276-1.899-35.124c-5.542-4.837-10.732-1.204-11.417,0.695c-0.695,1.899-2.596,11.075,2.761,13.835c-2.076,1.214-2.761,3.809-3.28,8.48s0,12.974,2.076,15.05C397.14,103.681,404.924,108.352,408.899,100.744z"></path><path style="opacity:0.2;fill:#FFFFFF;" d="M340.553,102c0,0-14.667-10-35.667-9.667c-6.666-4-38.667-16-49-16.333c2.334,4.333,6.667,7,6.667,7s36.666,11,43.333,14S340.553,102,340.553,102z"></path><path style="fill:#505050;" d="M395.752,65.796c0.386-0.387-2.249,6.747-0.691,9.86c1.557,3.114,3.633,4.325,3.633,4.325s-3.114,1.038-3.46,5.881c-0.346,4.843-1.205,14.704,1.906,17.818c-3.637-0.692-6.924-12.801-3.982-21.624C390.562,74.965,393.676,67.872,395.752,65.796z"></path><path style="fill:#505050;" d="M438.999,168.379c0,0,1.73,24.211-1.557,25.944c-3.287-4.148-25.775-28.539-42.555-40.13c25.947,16.088,37.184,26.467,39.268,26.467C439.173,180.661,438.999,168.379,438.999,168.379z"></path><path style="fill:#505050;" d="M315.659,110.601c0.519,0.173,11.59,1.73,11.59,1.73l-11.764-7.612c0,0,21.277,5.709,23.873,14.531C332.784,116.482,315.659,110.601,315.659,110.601z"></path><path style="opacity:0.2;fill:#FFFFFF;" d="M415.3,134.819c0.141-0.327-8.131-11.244-9.342-11.59s-2.162,1.644-2.162,1.644s-6.229-5.017-9.169-5.017s-1.989,0.778-1.989,0.778s-9.342-7.352-10.985-7.179s3.374,4.844,3.374,4.844s-11.937-6.314-13.494-5.19c-1.557,1.125,4.585,7.093,4.585,7.093s-16.002-5.795-19.375-3.46c-3.374,2.335,1.038,4.238,1.038,4.238s-10.727-2.941-13.234-0.692c-2.508,2.249,4.672,9.514,5.449,9.86c0.779,0.346,57.52,26.467,58.816,26.467c1.298,0-1.989-4.151,0.087-4.238c2.075-0.086,5.017,1.47,5.449,0.605c0.433-0.865-4.065-5.19-2.508-6.141c1.557-0.951,3.46,0.259,4.151-0.519s-6.659-6.833-6.486-7.438c0.172-0.605,3.373,0.952,3.719,0.173c0.346-0.778-5.104-4.67-5.189-6.4C407.947,130.927,415.04,135.424,415.3,134.819z"></path><g><path style="fill:#6E6E6E;" d="M415.22,144.976L415.22,144.976c-1.686-1.168-6.475-3.914-8.357-2.596c-0.469,0.328-0.723,0.726-0.775,1.219c-0.133,1.241,1.043,2.819,1.507,3.323c0.163,0.177,0.184,0.442,0.05,0.642c-0.135,0.2-0.389,0.281-0.613,0.197c-0.014-0.005-1.421-0.517-2.445-0.045c-0.426,0.196-0.723,0.536-0.908,1.036c-0.746,2.025,0.646,2.979,0.706,3.019c0.218,0.145,0.295,0.429,0.179,0.664c-0.115,0.234-0.385,0.347-0.632,0.261c-0.14-0.047-3.462-1.143-5.534,1.274l0,0c-0.187,0.218-0.514,0.244-0.732,0.057c-0.218-0.187-0.242-0.514-0.057-0.731l0,0c2.536-2.959,6.494-1.638,6.662-1.58c-0.248-0.086-0.522,0.028-0.637,0.264c-0.115,0.236-0.035,0.521,0.186,0.663c-0.748-0.481-1.946-1.99-1.113-4.249c0.281-0.764,0.77-1.309,1.451-1.622c1.422-0.651,3.166-0.01,3.24,0.018c-0.226-0.084-0.48-0.003-0.613,0.197c-0.135,0.2-0.113,0.465,0.049,0.642c-0.08-0.088-1.986-2.171-1.775-4.136c0.085-0.799,0.492-1.458,1.211-1.961c2.811-1.967,8.864,2.121,9.545,2.594l0,0c0.236,0.163,0.295,0.486,0.131,0.722C415.778,145.081,415.455,145.14,415.22,144.976L415.22,144.976z"></path></g><g><path style="fill:#6E6E6E;" d="M412.162,140.08L412.162,140.08c-3.443-1.794-9.435-4.207-10.848-3.044c-0.609,0.502-0.927,1.009-0.946,1.507c-0.021,0.628,0.447,1.083,0.453,1.087c0.178,0.169,0.213,0.442,0.084,0.651s-0.385,0.299-0.617,0.215c-0.053-0.019-5.375-1.906-7.45,0.862c-0.55,0.731-0.737,1.387-0.561,1.948c0.351,1.109,1.976,1.653,1.991,1.658c0.253,0.083,0.402,0.342,0.348,0.601c-0.055,0.259-0.295,0.436-0.559,0.41c-2.025-0.201-7.336-0.21-7.606,2.138l0,0c-0.034,0.285-0.291,0.489-0.576,0.456c-0.284-0.033-0.488-0.291-0.456-0.575l0,0c0.436-3.772,7.893-3.137,8.742-3.052c-0.266-0.026-0.506,0.15-0.561,0.41s0.097,0.519,0.35,0.6c-0.088-0.028-2.146-0.709-2.661-2.328c-0.286-0.9-0.045-1.872,0.718-2.888c2.537-3.383,8.389-1.305,8.637-1.214c-0.232-0.084-0.492,0.007-0.621,0.217c-0.128,0.211-0.09,0.484,0.092,0.651c-0.033-0.03-0.814-0.764-0.782-1.867c0.022-0.814,0.468-1.583,1.323-2.288c2.352-1.937,10.398,2.096,11.987,2.924l0,0c0.253,0.132,0.353,0.446,0.22,0.7C412.729,140.113,412.417,140.212,412.162,140.08L412.162,140.08z"></path></g><g><path style="fill:#6E6E6E;" d="M412.493,135.893L412.493,135.893c-1.766-1.237-6.789-4.447-8.783-4.447c-0.838,0-0.979,0.188-0.98,0.19v0c-0.031,0.083,0.121,0.403,0.324,0.627c-0.028-0.032-0.059-0.058-0.094-0.081c-0.238-0.158-0.559-0.095-0.719,0.141c-0.16,0.237-0.098,0.558,0.138,0.719c-2.231-1.523-8.524-5.431-10.82-5.231c-0.862,0.075-1.014,0.259-1.015,0.26c0.007-0.009,0.014-0.031,0.014-0.043c0.01,0.148,0.371,0.537,0.731,0.785c0.03,0.021,0.059,0.045,0.084,0.072c0.173,0.184,0.188,0.464,0.038,0.666c-0.149,0.202-0.424,0.267-0.648,0.154c-3.115-1.558-6.881-3.039-7.519-2.762c0,0,0.007-0.004,0.019-0.012c-0.015,0.011-0.021,0.045-0.025,0.071c-0.082,0.659,1.006,2.35,1.804,3.339c0.142,0.175,0.154,0.422,0.03,0.611c-0.123,0.188-0.354,0.275-0.572,0.215c-4.998-1.385-13.513-3.322-15.09-2.621c-0.043,0.019-0.058,0.032-0.058,0.032c0.017-0.015,0.032-0.054,0.03-0.077c0.051,0.754,3.879,3.377,8.361,5.728c0.241,0.127,0.344,0.418,0.234,0.668c-0.109,0.25-0.395,0.372-0.65,0.28c-0.117-0.042-11.766-4.165-16.559-1.339l0,0c-0.246,0.146-0.564,0.063-0.71-0.184c-0.146-0.247-0.063-0.565,0.184-0.71l0,0c5.21-3.072,16.938,1.078,17.435,1.256c-0.256-0.092-0.541,0.03-0.65,0.28c-0.109,0.25-0.007,0.542,0.234,0.668c-2.699-1.416-8.974-4.901-8.916-6.677c0.008-0.223,0.101-0.632,0.643-0.874c2.436-1.082,14.429,2.192,15.789,2.569c-0.218-0.061-0.449,0.027-0.572,0.215c-0.124,0.188-0.111,0.436,0.03,0.611c-0.368-0.455-2.192-2.791-2.026-4.12c0.041-0.324,0.189-0.592,0.432-0.773c1.127-0.845,5.863,1.313,8.588,2.675c-0.244-0.122-0.541-0.034-0.68,0.201c-0.139,0.235-0.07,0.537,0.154,0.691c-0.328-0.224-1.377-1.022-1.151-1.885c0.202-0.771,1.192-0.943,1.919-1.007c3.079-0.268,10.643,4.826,11.495,5.408c-0.218-0.148-0.513-0.11-0.687,0.09c-0.172,0.2-0.167,0.497,0.012,0.691c-0.145-0.156-0.848-0.977-0.512-1.746c0.355-0.812,1.542-0.812,1.932-0.812c2.681,0,8.701,4.16,9.379,4.635l0,0c0.234,0.164,0.293,0.488,0.127,0.723C413.052,136,412.729,136.057,412.493,135.893L412.493,135.893z"></path></g><path style="opacity:0.5;fill:#FFFFFF;" d="M408.121,66.662c0,0-1.989-7.698-6.833-10.033s-8.303-0.26-8.303-0.26s-0.779-6.833-4.152-7.871c-3.373-1.038-3.807,1.644-3.807,1.644s3.287-8.649-2.854-12.282c-6.142-3.633-7.957-3.028-7.957-3.028s3.979-0.778,8.476,2.163c5.329,3.484,3.806,10.379,3.806,10.379s0.541-0.912,2.941,0.26c3.72,1.816,4.151,7.352,4.151,7.352s3.114-2.574,8.218,0.432C408.121,59.137,408.121,66.662,408.121,66.662z"></path><path style="opacity:0.5;fill:#FFFFFF;" d="M424.599,135.208c0,0-0.649-2.465,0.129-3.114c0.779-0.648,5.838-1.946,13.104-0.648s12.196,5.708,11.418,6.747c-0.778,1.038-7.654,1.946-7.654,1.946s18.293,4.801,21.277,13.493c2.984,8.693-3.893,9.99-5.061,10.379c0,0,23.023,17.072,21.019,26.597c-0.519,2.465-5.19,1.946-5.19,1.946s9.4,11.935,9.213,19.98c-0.131,5.579-3.504,5.579-3.504,5.579s3.633,5.449,1.428,10.509c-2.206,5.06-7.006,5.449-7.006,5.449s6.172,5.175,5.449,15.958c-1.298,19.332-14.791,31.397-14.791,31.397c0.26-0.26,6.357-25.3,6.357-25.3s-4.801-10.898-10.12-15.179c-1.557-4.801-3.845-10.639-3.845-10.639s8.775,1.038,11.629-5.708c2.855-6.747,0.779-9.601,0.779-9.601s4.151-0.129,2.465-8.952c-1.687-8.822-15.959-23.354-15.959-23.354s7.506,0.031,6.877-3.503c-1.038-5.838-13.752-15.31-13.752-15.31s8.395-4.721,6.486-9.082c-1.816-4.152-26.838-13.925-26.838-13.925s12.955-3.331,12.307-4.239C433.031,132.354,424.599,135.208,424.599,135.208z"></path><path style="fill:#FFFFFF;" d="M473.64,192.554l-16.996-9.124c0,0,15.656,6.833,18.338,8.908C474.289,192.771,473.64,192.554,473.64,192.554z"></path><polygon style="fill:#FFFFFF;" points="458.136,164.271 460.245,163.005 449.476,163.925 "></polygon><path style="fill:#FFFFFF;" d="M479.349,218.113c0,0-5.492-2.334-9.385-2.768c3.547,1.384,10.12,4.066,10.12,4.066L479.349,218.113z"></path><path style="fill:#FFFFFF;" d="M474.03,234.202c0,0-10.639-1.21-16.261-3.2c0.086,0.865,0.345,1.384,0.345,1.384S465.813,234.288,474.03,234.202z"></path><path style="fill:#6E6E6E;" d="M362.743,22.743c0.02,0.01,0.051,0.021,0.093,0.042C362.794,22.764,362.763,22.743,362.743,22.743z"></path><path style="fill:#6E6E6E;" d="M453.021,333.054c0.021-0.031,0.042-0.052,0.073-0.093C453.054,333.002,453.032,333.032,453.021,333.054z"></path></g><g><path style="fill:none;stroke:#000000;stroke-linecap:round;stroke-linejoin:round;" d="M453.239,332.763c1.963-2.771,16.328-24.132,10.847-50.899c5.19-15.227,9.685-22.835,4.837-30.453c-4.837-7.608-7.951-10.722-7.951-10.722l-4.15-10.379c0,0,10.025,0.695,11.76-6.57c1.732-7.266,0.695-8.656,0.695-8.656s5.189-3.799,1.723-11.417c-3.457-7.608-15.569-20.759-15.569-20.759s8.656,0.695,7.266-4.494c-1.38-5.189-13.835-14.531-13.835-14.531s11.76-7.608,4.846-11.417c-6.32-3.477-22.46-10.41-25.201-11.594c3.437,5.169,8.398,13.639,10.318,26.467c3.113,20.759,0,28.377-1.381,26.986c-1.381-1.38-30.1-38.746-72.655-57.086c-42.556-18.33-87.528-36.67-87.528-36.67s30.441,3.809,38.402,10.037c7.266,0.685,12.455,1.723,12.455,1.723s-35.984-22.139-61.933-27.671c-8.72-4.017-10.94-8.698-11.075-8.999c0,0,0,0,0.011,0.01c0.841,0.187,37.138,8.376,48.087,15.559c10.38,2.771,29.063,2.418,42.898,13.836c2.418-1.723,10.037-0.685,21.102,7.266c0,0,4.068-2.678,13.41-0.083c5.885,0.26,7.783-1.297,7.783-5.189s-3.892-7.006-3.892-7.006s5.325,1.307,4.671-8.304c-0.861-12.631-8.999-18.683-8.999-18.683s3.633,0,5.968-5.532c2.906-6.892,0.955-14.967-5.531-12.113c2.335-3.892,1.037-16.088-6.747-20.499c-0.478-6.01-9.643-11.345-11.033-12.133c0.011,0.01,0.021,0.021,0,0c-0.042-0.021-0.073-0.032-0.124-0.063c0,0,0.01,0.01,0.031,0.021c0.02,0,0.051,0.021,0.093,0.042"></path><path style="fill:none;stroke:#000000;stroke-linecap:round;stroke-linejoin:round;" d="M362.878,22.805c4.607,2.159,103.035,49.458,121.791,145.747c18.442,94.711-27.756,159.261-31.574,164.409c0-0.012,0.01-0.021,0.02-0.031c0.032-0.042,0.074-0.104-0.02,0.031c-0.031,0.041-0.052,0.062-0.084,0.104c0,0,0-0.011,0.011-0.011c0.011-0.021,0.032-0.052,0.073-0.093"></path><path style="fill:none;stroke:#000000;stroke-linecap:round;stroke-linejoin:round;" d="M428.381,140.683c1.921-0.166,13.473-1.225,12.519-3.446c-1.039-2.418-15.569-4.837-15.912-2.418C424.862,135.722,426.326,137.601,428.381,140.683z"></path><path style="fill:none;stroke:#000000;stroke-linecap:round;stroke-linejoin:round;" d="M395.063,88.631c-0.52,4.671,0,12.974,2.076,15.05c0,0,7.784,4.67,11.76-2.938c3.975-7.619,3.633-30.276-1.899-35.124c-5.542-4.837-10.732-1.204-11.417,0.695c-0.695,1.899-2.596,11.075,2.761,13.835C396.268,81.365,395.583,83.96,395.063,88.631z"></path></g></g><path style="opacity:0.5;fill:#FFFFFF;" d="M433.377,116.223c0,0,4.671-0.259,5.708-1.384c1.039-1.125,0.864-3.2,0.432-3.287c-0.432-0.087-4.237,1.297-4.237,1.297s-1.989-0.433-2.421,0.432C432.425,114.147,432.339,115.791,433.377,116.223z"></path><path style="opacity:0.5;fill:#FFFFFF;" d="M436.317,107.573c0,0-0.086,1.125-1.124,2.163c-1.038,1.038-12.283,6.055-13.667,6.228c-1.383,0.173-2.422-0.173-2.248-1.903c0.173-1.729,3.719-8.13,5.881-9.082c2.162-0.952,11.277-4.161,13.061-0.952C439.085,105.584,436.317,107.573,436.317,107.573z"></path><path style="opacity:0.5;fill:#FFFFFF;" d="M411.062,115.271c0,0,3.805-0.173,4.757-2.076c0.952-1.903,0.261-4.238-0.605-4.238c-0.865,0-3.114,0.346-3.979,2.595C410.369,113.801,409.937,114.838,411.062,115.271z"></path><path style="opacity:0.5;fill:#FFFFFF;" d="M419.105,98.578c0.202,0.162-0.691,3.114-1.558,3.546c-0.865,0.432-2.075-0.173-2.075-0.173s1.123,1.471-1.385,3.892c-2.508,2.422-9.86,4.498-10.466,5.709c-0.604,1.21-1.123,2.249-1.123,2.249s0.259-6.747,1.557-7.785c1.297-1.038,3.805-2.249,4.583-3.892s1.558-2.595,1.816-2.595C410.715,99.529,417.808,97.54,419.105,98.578z"></path><path style="opacity:0.5;fill:#FFFFFF;" d="M398.087,105.065c0,0,0.347,2.249,0,3.027c-0.346,0.778-1.47,2.508-1.816,2.163c-0.346-0.346-1.297-2.509-0.951-3.46C395.665,105.843,396.79,104.719,398.087,105.065z"></path></g></g></svg>