<svg xmlns="http://www.w3.org/2000/svg" width="500" height="500" version="1.1"><g id="x9154"><g><g><path style="opacity:0.5;fill:#6E6E6E;" d="M420.863,301.865c3.274,5.463-12.419,11.775-21.235,9.15c-8.815-2.627-29.583-10.211-35.584-19.438c-6.002-9.229-11.514-19.443-18.861-25.043c-7.348-5.602-12.294,1.625-23.773,0.398c-11.479-1.227-10.052-50.09,18.067-44.104c-3.941,6.589-10.369,14.315-5.941,17.537c4.428,3.22,20.527-0.917,30.984,9.273c10.456,10.192-2.023,37.276,12.728,43.965C391.998,300.293,415.674,304.188,420.863,301.865z"></path><g><path style="opacity:0.5;fill:#6E6E6E;" d="M470.818,146.998c-10.123,1.428-17.551,28.184-18,28.172c-1.233-0.032-0.799-18.819-0.725-27.247c0.109-11.943-0.342-29.121-9.024-37.474c-5.32-5.119-11.63-5.118-13.77-7.403c-2.14-2.285-2.221-1.285-6.571-4.652c-7.74-5.991-15.266-13.984-22.24-21.375c-8.756-9.278-23.722-7.941-34.382-9.226c-19.192-2.313-8.394,16.74-4.978,23.58c5.842,11.693,2.703,26.559,4.271,39.262c1.38,11.183-3.908,22.905-2.889,34.986c1.556-11.193,5.323-22.093,7.341-33.121c0.83-4.542-0.049-8.465-1.645-17.088c-1.596-8.624,3.779-11.419,13.475-10.352c9.695,1.065,12.909,10.757,13.608,13.455c0.7,2.697,1.614,2.833,5.129,6.023c3.515,3.189,2.746,4.864,0.995,7.887c-1.752,3.023,0.926,6.148,7.969,8.284c7.041,2.135,7.467,0.12,12.27,3.978c4.801,3.857,3.738,6.444,3.146,9.305c-0.594,2.86,1.647,5.061,3.382,6.997c1.734,1.936,1.042,5.234,1.042,5.234s-0.407,3.234-1.17,4.199c-0.762,0.965-1.039,3.388,0.123,8.613c-1.248,8.152-9.18,13.95-11.56,19.586c-2.379,5.635,5.285,10.008,5.285,10.008s-6.116,0.684-7.374,4.827c-1.26,4.142,6.827,12.833,6.827,12.833c-7.614,11.422-16.155,22.166-25.097,32.43c-10.242,11.752-14.945,26.809-23.547,39.498c-8.359,12.33-1.604,13.857-0.036,15.184c3.088,2.611,19.073-8.08,25.585-11.615c12.393-6.727,20.283-18.082,26.613-29.514c6.73-12.15,17.392-24.356,25.585-36.661c6.847-10.282,2.145-21.656,5.122-31.099c1.623-5.146,5.15,2.231,12.922-1.138c7.772-3.372,3.045-5.306,8.059-13.484c5.014-8.177,4.596-1.079,9.627-6.948c5.031-5.87,3.532-7.263,5.339-17.323C493.556,154.324,479.125,145.826,470.818,146.998z M431.314,109.278c-0.113-1.699,9.781,2.817,14.037,8.302c5.229,6.736,1.649,19.595-1.545,28.424C440.923,133.214,431.962,118.91,431.314,109.278z M481.275,155.085c-5.31,7.854-11.809,16.305-20.57,20.575c0,0,4.629-17.196,9.014-19.8C474.104,153.254,483.422,151.911,481.275,155.085z"></path></g><g><g><ellipse transform="matrix(-0.97 0.2432 -0.2432 -0.97 958.4786 313.9218)" style="fill:#6E6E6E;" cx="459.862" cy="216.124" rx="1.044" ry="1.531"></ellipse><ellipse style="fill:#6E6E6E;" cx="463.203" cy="220.438" rx="0.904" ry="0.835"></ellipse><ellipse style="fill:#6E6E6E;" cx="460.28" cy="222.666" rx="0.905" ry="0.835"></ellipse></g><g><ellipse transform="matrix(-0.97 0.2432 -0.2432 -0.97 782.5105 432.9803)" style="fill:#6E6E6E;" cx="364.529" cy="264.791" rx="1.044" ry="1.53"></ellipse><ellipse style="fill:#6E6E6E;" cx="367.87" cy="269.105" rx="0.905" ry="0.834"></ellipse><ellipse style="fill:#6E6E6E;" cx="364.947" cy="271.332" rx="0.905" ry="0.836"></ellipse></g></g><g><g><rect x="383.492" y="238.78" transform="matrix(-0.9432 -0.3322 0.3322 -0.9432 691.7979 662.264)" style="fill:#36292B;stroke:#000000;" width="38.037" height="66.431"></rect><g><path style="fill:#E1577E;" d="M378.162,294.957c0.174,0.529,1.36,0.842,1.84,0.805c0.479-0.039,0.525-1.059,0.525-1.059s0.648,0.227,1.071,0.639c0.427,0.408,0.333,1.408,0.333,1.408l0.316,0.424l6.174,2.176c0,0-0.181-0.221,0.911-1.699c1.091-1.482,4.513-1.051,4.513-1.051s2.934,1.809,2.857,3.648c-0.076,1.836-0.357,1.893-0.357,1.893l6.176,2.174l0.51-0.129c0,0,0.557-0.842,1.145-0.893c0.589-0.053,1.232,0.176,1.232,0.176s-0.6,0.824-0.253,1.154c0.353,0.33,1.472,0.83,1.938,0.527c0.471-0.303,0.561-2.029,0.01-2.381c-0.33-0.207-0.443-0.232-0.484-0.213c0.113-0.189,0.705-1.066,1.722-0.801c0.585-1.658,5.194-14.744,5.194-14.744s-0.274-0.25-0.729,0.16c0.12-0.633,0.16-1.189,0.16-1.189s-0.659-3.131,0.122-5.496c-0.048-0.742-0.289-1.086-0.102-1.176c0.186-0.09,0.573-0.16,0.573-0.16s0.976-1.006,1.836-0.807c0.468-0.143,0.468-0.143,0.468-0.143l-0.096-0.76c0,0-0.32-0.268-0.285-0.514c0.013-0.094,0.104-0.197,0.213-0.289c-0.027-0.139-0.034-0.275,0.014-0.355c0.128-0.217,0.545-0.223,0.545-0.223l0.55-0.533c0,0,0,0-0.271-0.406c-0.796-0.385-0.928-1.777-0.928-1.777s-0.258-0.295-0.347-0.484c-0.09-0.188,0.313-0.303,0.816-0.852c0.874-2.33,3.35-4.361,3.35-4.361s0.316-0.457,0.621-1.025c0.098,0.604,0.469,0.578,0.469,0.578s4.609-13.084,5.193-14.742c-0.962-0.43-0.87-1.485-0.842-1.703c0.021,0.038,0.123,0.094,0.513,0.138c0.647,0.074,1.661-1.33,1.483-1.858c-0.175-0.528-1.361-0.843-1.84-0.805c-0.48,0.036-0.527,1.058-0.527,1.058s-0.646-0.227-1.07-0.635c-0.428-0.41-0.332-1.413-0.332-1.413l-0.317-0.424l-6.175-2.175c0,0,0.183,0.221-0.908,1.702c-1.094,1.479-4.514,1.051-4.514,1.051s-2.937-1.81-2.858-3.648c0.079-1.836,0.356-1.896,0.356-1.896l-6.172-2.175l-0.515,0.132c0,0-0.556,0.839-1.141,0.892c-0.589,0.052-1.234-0.176-1.234-0.176s0.601-0.824,0.251-1.156c-0.349-0.328-1.469-0.826-1.938-0.524c-0.468,0.301-0.559,2.03-0.009,2.378c0.33,0.208,0.444,0.23,0.486,0.214c-0.113,0.188-0.707,1.067-1.723,0.8c-0.584,1.656-5.193,14.744-5.193,14.744s0.271,0.25,0.727-0.16c-0.117,0.633-0.156,1.186-0.156,1.186s0.653,3.135-0.126,5.502c0.05,0.74,0.291,1.086,0.105,1.176c-0.188,0.088-0.574,0.158-0.574,0.158s-0.978,1.004-1.839,0.805c-0.465,0.145-0.465,0.145-0.465,0.145l0.097,0.76c0,0,0.319,0.268,0.282,0.514c-0.014,0.094-0.104,0.197-0.209,0.289c0.025,0.141,0.032,0.277-0.02,0.357c-0.125,0.215-0.541,0.223-0.541,0.223l-0.551,0.531c0,0,0,0,0.272,0.406c0.794,0.383,0.928,1.777,0.928,1.777s0.255,0.295,0.347,0.482c0.088,0.189-0.314,0.305-0.819,0.854c-0.874,2.334-3.347,4.359-3.347,4.359s-0.318,0.459-0.622,1.027c-0.099-0.605-0.469-0.582-0.469-0.582s-4.608,13.086-5.192,14.744c0.962,0.432,0.871,1.484,0.84,1.703c-0.02-0.039-0.125-0.094-0.512-0.137C378.996,293.025,377.984,294.43,378.162,294.957z"></path><g><g><polygon style="fill:#D1A879;" points="384.747,281.66 382.146,285.031 381.385,284.559 386.979,277.205 388.11,277.396 391.934,272.426 392.547,273.158 388.371,278.838 387.298,278.355 385.32,280.92 386.146,282.506 381.403,288.914 380.91,288.428 385.162,282.471 "></polygon><polygon style="fill:#D1A879;" points="395.346,284.916 390.535,291.508 389.674,291.309 384.709,298.053 383.751,297.715 389.322,290.254 390.217,290.359 394.99,283.859 "></polygon><polygon style="fill:#D1A879;" points="380.1,292.908 379.645,292.438 385.238,286.848 387.157,288.713 394.798,278.82 395.217,279.693 381.932,296.75 381.469,296.082 386.523,289.371 385.098,288.125 "></polygon><polygon style="fill:#D1A879;" points="410.34,290.676 410.252,294.932 411.146,295.041 411.396,285.807 410.393,285.246 410.529,278.977 409.592,279.164 409.287,286.205 410.427,286.5 410.357,289.738 408.721,290.457 408.4,298.424 409.088,298.354 409.51,291.045 "></polygon><polygon style="fill:#D1A879;" points="400.044,286.572 399.658,294.721 400.455,295.107 400.098,303.473 401.057,303.811 401.393,294.506 400.629,294.027 400.979,285.971 "></polygon><polygon style="fill:#D1A879;" points="406.914,302.354 407.564,302.273 406.707,294.41 404.042,294.658 404.289,282.162 403.416,282.58 403.076,304.201 403.857,303.969 404.123,295.57 406.018,295.492 "></polygon></g><g><polygon style="fill:#D1A879;" points="394.75,253.262 394.84,249.004 393.945,248.898 393.695,258.133 394.699,258.693 394.563,264.961 395.5,264.773 395.803,257.736 394.664,257.438 394.73,254.201 396.371,253.479 396.691,245.512 396.003,245.582 395.584,252.893 "></polygon><polygon style="fill:#D1A879;" points="405.05,257.365 405.432,249.214 404.637,248.828 404.994,240.464 404.035,240.126 403.701,249.431 404.465,249.909 404.111,257.965 "></polygon><polygon style="fill:#D1A879;" points="398.178,241.583 397.528,241.665 398.381,249.527 401.051,249.276 400.804,261.773 401.674,261.355 402.014,239.736 401.233,239.967 400.97,248.365 399.076,248.445 "></polygon><polygon style="fill:#D1A879;" points="420.342,262.277 422.943,258.902 423.707,259.381 418.115,266.732 416.98,266.539 413.16,271.514 412.545,270.775 416.72,265.1 417.794,265.584 419.77,263.02 418.945,261.432 423.688,255.023 424.182,255.508 419.928,261.469 "></polygon><polyline style="fill:#D1A879;" points="412.475,255.281 414.555,252.426 415.416,252.627 420.384,245.883 421.342,246.222 415.77,253.684 414.877,253.576 410.102,260.074 409.748,259.018 412.475,255.281 "></polyline><polygon style="fill:#D1A879;" points="424.992,251.027 425.448,251.5 419.852,257.092 417.934,255.225 410.293,265.115 409.877,264.244 423.16,247.184 423.625,247.854 418.566,254.564 419.992,255.814 "></polygon></g></g><path style="fill:#9E176B;" d="M389.086,264.971c1.066,0.307,10.149-0.773,13.542-5.313c3.393-4.537,6.552-10.949,6.958-11.912c0.408-0.961,1.664-1.002,1.664-1.002s0.955,0.82,0.67,1.825s-1.845,7.982-2.044,13.642c-0.2,5.662,6.2,12.197,7.224,12.627c-0.74,1.121-1.283,1.48-1.283,1.48s0.195,0.623,0.069,1.961c-1.065-0.307-10.146,0.773-13.54,5.311c-3.395,4.537-6.549,10.951-6.956,11.912c-0.409,0.961-1.667,1-1.667,1s-0.954-0.818-0.668-1.824c0.284-1.002,1.844-7.979,2.041-13.641c0.201-5.662-6.199-12.197-7.221-12.625c0.739-1.121,1.281-1.484,1.281-1.484S388.961,266.307,389.086,264.971z"></path><path style="fill:#AB6643;stroke:#000000;stroke-linecap:round;stroke-linejoin:round;" d="M397.629,269.24l0.537-0.123c0,0,0.258-0.893,1.315-1.711c1.054-0.82,2.757-0.84,3.487-0.895s1.428-1.414,1.428-1.414s-0.254,1.332-0.109,1.707c0.349-0.199,0.985-1.398,0.985-1.398s-0.308,1.496,0.228,1.998c0.535,0.5,1.852,1.584,2.158,2.883s-0.049,2.158-0.049,2.158l0.342,0.43c0,0-0.359,0.238-0.488,0.604c-0.131,0.373-0.097,0.746-0.097,0.746l-0.438,0.156c0,0-0.502,0.961-1.67,1.947c-1.171,0.986-3.442,0.756-3.442,0.756l-1.281,1.152l0.503-1.426l-0.487-0.17l-0.503,1.426l-0.275-1.701c0,0-1.916-1.246-2.207-2.748c-0.293-1.498-0.08-2.564-0.08-2.564l-0.244-0.396c0,0,0.26-0.271,0.389-0.639C397.76,269.648,397.629,269.24,397.629,269.24z"></path><path style="fill:#5D331C;" d="M399.189,273.117c0,0,0.074-2.564,0.051-3.09c-0.021-0.525-0.66-1.061-0.758-0.785S396.619,271.59,399.189,273.117z"></path><path style="fill:#5D331C;" d="M404.109,274.852c0,0,1.549-2.045,1.895-2.439c0.349-0.396,1.182-0.414,1.083-0.141C406.992,272.551,407.068,275.271,404.109,274.852z"></path><path style="fill:#E6D755;" d="M400.959,274.373c-0.324,0.918,0.156,1.922,1.072,2.244s1.92-0.16,2.243-1.076c0.322-0.914-0.158-1.918-1.076-2.24C402.283,272.977,401.281,273.459,400.959,274.373z"></path><path style="fill:#FFFFFF;" d="M401.178,274.037c-0.269,0.766,0.133,1.6,0.895,1.869c0.766,0.271,1.6-0.133,1.869-0.896s-0.131-1.598-0.895-1.869C402.283,272.873,401.447,273.275,401.178,274.037z"></path><path style="fill:#E0B482;" d="M400.125,270.973c-0.475,1.344,0.232,2.818,1.574,3.291c1.344,0.473,2.816-0.234,3.29-1.576c0.473-1.344-0.231-2.814-1.575-3.291C402.07,268.926,400.596,269.629,400.125,270.973z"></path><path style="fill:#FFFFFF;" d="M400.773,268.91c-0.267,0.764,0.133,1.602,0.895,1.871c0.765,0.27,1.603-0.135,1.871-0.896c0.268-0.764-0.132-1.602-0.895-1.869C401.879,267.746,401.043,268.146,400.773,268.91z"></path><path style="fill:#FFFFFF;" d="M402.119,271.557c-0.18,0.512,0.09,1.07,0.596,1.248c0.512,0.18,1.07-0.088,1.248-0.598c0.18-0.508-0.086-1.064-0.596-1.246C402.857,270.783,402.3,271.051,402.119,271.557z"></path><rect x="406.578" y="254.773" transform="matrix(-0.9434 -0.3318 0.3318 -0.9434 704.325 640.3416)" style="fill:#D1A879;" width="0.489" height="10.551"></rect><rect x="398.318" y="278.224" transform="matrix(-0.9436 -0.3312 0.3312 -0.9436 680.7566 682.9865)" style="fill:#D1A879;" width="0.49" height="10.549"></rect><path style="fill:#D1A879;" d="M398.594,289.881c0,0-0.094-0.912-0.451-0.781c-0.357,0.135-1.123,0.693-1.1,1.064c0.026,0.371,0.695,1.852,0.912,1.822c0.217-0.027-0.138-0.93,0.055-1.328C398.203,290.26,398.594,289.881,398.594,289.881z"></path><path style="fill:#D1A879;" d="M394.182,288.326c0,0,0.645-0.652,0.84-0.324c0.196,0.326,0.443,1.242,0.191,1.518c-0.252,0.271-1.701,1.006-1.854,0.848c-0.152-0.156,0.691-0.637,0.791-1.066C394.251,288.869,394.182,288.326,394.182,288.326z"></path><path style="fill:#D1A879;" d="M377.103,295.467l-0.655,1.271c0,0,1.763-0.156,2.04-0.061c0.275,0.096,0.476,0.273,0.476,0.273l10.273,3.617l0.404-0.115c0,0-0.553-0.197-0.561-0.768c-0.006-0.572,1.449-3.375,4.49-2.305s2.414,4.166,2.053,4.609c-0.361,0.441-0.917,0.248-0.917,0.248l0.243,0.342l10.273,3.619c0,0,0.264-0.012,0.539,0.086c0.277,0.098,1.553,1.326,1.553,1.326l0.288-1.402c0,0,0.476,0.117,1.026,0.467c0.164-0.463-0.221-2.463-0.221-2.463l6.186-17.551c0,0-0.217-0.129-0.775-0.896c-0.559-0.766-0.559-3.408-0.271-4.963c0.291-1.555,0.773-1.902,1.685-1.842c0.911,0.063,1.243,1.32,1.449,1.184c0.202-0.133,0.198-0.859-0.067-1.576c-0.266-0.715-0.02-1.561-0.02-1.561l0.025-0.045l0.008-0.047c0,0,0.337-0.814,0.992-1.203c0.655-0.391,1.113-0.957,1.039-1.189c-0.072-0.232-1.119,0.539-1.869,0.016c-0.746-0.523-0.908-1.098-0.16-2.49c0.752-1.393,2.406-3.451,3.322-3.697c0.918-0.25,1.164-0.213,1.164-0.213l6.184-17.554c0,0,1.553-1.316,1.714-1.778c-0.648-0.074-1.091-0.283-1.091-0.283l0.653-1.269c0,0-1.763,0.155-2.04,0.058s-0.475-0.272-0.475-0.272l-10.273-3.619l-0.406,0.116c0,0,0.555,0.195,0.561,0.767s-1.449,3.375-4.487,2.304c-3.04-1.07-2.419-4.166-2.055-4.608c0.362-0.442,0.916-0.246,0.916-0.246l-0.243-0.344l-10.271-3.62c0,0-0.266,0.012-0.543-0.085c-0.275-0.099-1.551-1.326-1.551-1.326l-0.287,1.402c0,0-0.475-0.116-1.028-0.465c-0.161,0.46,0.224,2.46,0.224,2.46l-6.185,17.553c0,0,0.215,0.127,0.773,0.895c0.559,0.766,0.562,3.408,0.271,4.963c-0.287,1.555-0.773,1.904-1.684,1.84c-0.911-0.061-1.246-1.318-1.448-1.182s-0.199,0.863,0.065,1.576c0.267,0.715,0.021,1.563,0.021,1.563l-0.024,0.043l-0.008,0.051c0,0-0.337,0.811-0.994,1.201c-0.654,0.391-1.113,0.955-1.039,1.189c0.074,0.23,1.121-0.537,1.869-0.018c0.75,0.521,0.91,1.098,0.158,2.488c-0.749,1.395-2.405,3.453-3.321,3.699c-0.915,0.25-1.161,0.213-1.161,0.213l-6.185,17.553c0,0-1.553,1.318-1.714,1.779C376.658,295.258,377.103,295.467,377.103,295.467z M379.645,293.098c0.387,0.043,0.492,0.098,0.512,0.137c0.031-0.219,0.122-1.271-0.84-1.703c0.584-1.658,5.192-14.744,5.192-14.744s0.37-0.023,0.469,0.582c0.304-0.568,0.622-1.027,0.622-1.027s2.473-2.025,3.347-4.359c0.505-0.549,0.907-0.664,0.819-0.854c-0.092-0.188-0.347-0.482-0.347-0.482s-0.134-1.395-0.928-1.777c-0.272-0.406-0.272-0.406-0.272-0.406l0.551-0.531c0,0,0.416-0.008,0.541-0.223c0.052-0.08,0.045-0.217,0.02-0.357c0.105-0.092,0.195-0.195,0.209-0.289c0.037-0.246-0.282-0.514-0.282-0.514l-0.097-0.76c0,0,0,0,0.465-0.145c0.861,0.199,1.839-0.805,1.839-0.805s0.386-0.07,0.574-0.158c0.186-0.09-0.056-0.436-0.105-1.176c0.779-2.367,0.126-5.502,0.126-5.502s0.039-0.553,0.156-1.186c-0.455,0.41-0.727,0.16-0.727,0.16s4.609-13.087,5.193-14.744c1.016,0.267,1.609-0.612,1.723-0.8c-0.042,0.016-0.156-0.006-0.486-0.214c-0.55-0.349-0.459-2.078,0.009-2.378c0.47-0.301,1.59,0.197,1.938,0.524c0.35,0.332-0.251,1.156-0.251,1.156s0.646,0.228,1.234,0.176c0.585-0.052,1.141-0.892,1.141-0.892l0.515-0.132l6.172,2.175c0,0-0.277,0.059-0.356,1.896c-0.078,1.838,2.858,3.648,2.858,3.648s3.42,0.428,4.514-1.051c1.091-1.481,0.908-1.702,0.908-1.702l6.175,2.175l0.317,0.424c0,0-0.096,1.002,0.332,1.413c0.424,0.408,1.07,0.635,1.07,0.635s0.047-1.021,0.527-1.058c0.479-0.038,1.665,0.277,1.84,0.805c0.178,0.528-0.836,1.932-1.483,1.858c-0.39-0.044-0.491-0.1-0.513-0.138c-0.028,0.217-0.12,1.273,0.842,1.703c-0.584,1.658-5.193,14.742-5.193,14.742s-0.371,0.025-0.469-0.578c-0.305,0.568-0.621,1.025-0.621,1.025s-2.476,2.031-3.35,4.361c-0.503,0.549-0.906,0.664-0.816,0.852c0.089,0.189,0.347,0.484,0.347,0.484s0.132,1.393,0.928,1.777c0.271,0.406,0.271,0.406,0.271,0.406l-0.55,0.533c0,0-0.417,0.006-0.545,0.223c-0.048,0.08-0.041,0.217-0.014,0.355c-0.108,0.092-0.2,0.195-0.213,0.289c-0.035,0.246,0.285,0.514,0.285,0.514l0.096,0.76c0,0,0,0-0.468,0.143c-0.86-0.199-1.836,0.807-1.836,0.807s-0.388,0.07-0.573,0.16c-0.188,0.09,0.054,0.434,0.102,1.176c-0.781,2.365-0.122,5.496-0.122,5.496s-0.04,0.557-0.16,1.189c0.455-0.41,0.729-0.16,0.729-0.16s-4.609,13.086-5.194,14.744c-1.017-0.266-1.608,0.611-1.722,0.801c0.041-0.02,0.154,0.006,0.484,0.213c0.551,0.352,0.461,2.078-0.01,2.381c-0.467,0.303-1.586-0.197-1.938-0.527c-0.347-0.33,0.253-1.154,0.253-1.154s-0.644-0.229-1.232-0.176c-0.588,0.051-1.145,0.893-1.145,0.893l-0.51,0.129l-6.176-2.174c0,0,0.281-0.057,0.357-1.893c0.076-1.84-2.857-3.648-2.857-3.648s-3.422-0.432-4.513,1.051c-1.092,1.479-0.911,1.699-0.911,1.699l-6.174-2.176l-0.316-0.424c0,0,0.094-1-0.333-1.408c-0.423-0.412-1.071-0.639-1.071-0.639s-0.047,1.02-0.525,1.059c-0.479,0.037-1.666-0.275-1.84-0.805C377.984,294.43,378.996,293.025,379.645,293.098z"></path></g></g><g><g><path style="fill:none;stroke:#D1A879;stroke-linecap:round;stroke-linejoin:round;" d="M407.676,257.447c0,0-3.055,10.732,6.76,18.746"></path><path style="fill:none;stroke:#D1A879;stroke-linecap:round;stroke-linejoin:round;" d="M407.604,257.422c0,0-4.346,10.277-17.016,10.371"></path></g><g><path style="fill:none;stroke:#D1A879;stroke-linecap:round;stroke-linejoin:round;" d="M397.42,286.564c0,0,4.344-10.275,17.016-10.371"></path><path style="fill:none;stroke:#D1A879;stroke-linecap:round;stroke-linejoin:round;" d="M397.346,286.539c0,0,3.055-10.73-6.758-18.746"></path></g></g></g></g><g><circle style="fill:#FFFFFF;" cx="389.422" cy="231.024" r="1.49"></circle></g><g><circle style="fill:#FFFFFF;" cx="358.968" cy="284.3" r="1.491"></circle></g><g><path style="fill:#FFFFFF;" d="M438.082,273.129c0.154,0.809,0.932,1.342,1.742,1.191c0.81-0.15,1.343-0.93,1.191-1.738c-0.15-0.807-0.93-1.342-1.738-1.189C438.467,271.541,437.934,272.32,438.082,273.129z"></path></g></g></g></svg>