<svg xmlns="http://www.w3.org/2000/svg" width="500" height="500" version="1.1"><g id="x9155"><g><linearGradient id="leftXMLID_111_" gradientUnits="userSpaceOnUse" x1="55.77" y1="306.3525" x2="51.7699" y2="422.8525" gradientTransform="matrix(-1 0 0 1 368.2656 0)"><stop offset="0" style="stop-color:#363030"></stop><stop offset="1" style="stop-color:#7D2C2C"></stop></linearGradient><path style="fill:url(#leftXMLID_111_);stroke:#000000;stroke-linecap:round;stroke-linejoin:round;" d="M319.037,379.828c0,0-1.9-2.74-4.572-2.037c-2.67,0.704-3.464,1.392-3.464,1.392l-0.573-1.664c0,0,3.681-4.082,8.986-0.45C319.633,379.314,319.037,379.828,319.037,379.828z"></path><polygon style="fill:#181212;stroke:#000000;stroke-linecap:round;stroke-linejoin:round;" points="312.324,325.227 313.919,342.838 329.961,343.025 330.463,336.986 "></polygon><linearGradient id="leftXMLID_112_" gradientUnits="userSpaceOnUse" x1="48.2119" y1="306.0928" x2="44.2119" y2="422.5919" gradientTransform="matrix(-1 0 0 1 368.2656 0)"><stop offset="0" style="stop-color:#363030"></stop><stop offset="1" style="stop-color:#7D2C2C"></stop></linearGradient><path style="fill:url(#leftXMLID_112_);stroke:#000000;stroke-linecap:round;stroke-linejoin:round;" d="M324.664,280.9c-0.232,0.613-3.857,10.896-12.842,13.697c-8.983,2.801-11.354,2.784-11.354,2.784s6.814,11.317,8.525,17.271c1.711,5.952,2.149,11.077,2.149,11.077s21.307,14.907,22.329,14.301c1.021-0.606-0.369-6.012,6.399-18.32c-0.147-7.99-3.415-20.306-6.065-25.173C331.157,291.669,324.664,280.9,324.664,280.9z"></path><path style="opacity:0.5;fill:#FFFFFF;" d="M338.932,321.333c0,0-6.334,11.668-6.334,16.334c1.5-14.667,2.5-23,2.5-23l2.334-2.167C337.432,312.5,339.266,317.999,338.932,321.333z"></path><path style="fill:#181212;" d="M302.932,298c0,0,7.667,10,8.334,17c0.666,7,1.059,10.227,1.059,10.227l12.107,8.44c0,0,0.667-13.334-3.5-21.667s-10-16.167-10-16.167L302.932,298z"></path><linearGradient id="leftXMLID_113_" gradientUnits="userSpaceOnUse" x1="55.0967" y1="306.3291" x2="51.0966" y2="422.8291" gradientTransform="matrix(-1 0 0 1 368.2656 0)"><stop offset="0" style="stop-color:#363030"></stop><stop offset="1" style="stop-color:#7D2C2C"></stop></linearGradient><path style="fill:url(#leftXMLID_113_);stroke:#000000;stroke-linecap:round;stroke-linejoin:round;" d="M311.394,340.959l-0.045-12.104l5.577,3.063l0.288,5.874C317.214,337.792,314.531,340.521,311.394,340.959z"></path><polygon style="fill:#181212;" points="316.098,332.166 316.598,339.666 312.432,342.333 311.932,330.166 "></polygon><path style="fill:#181212;stroke:#000000;stroke-linecap:round;stroke-linejoin:round;" d="M315.252,360.489c0.092,0.368,0.134,0.679,0.111,0.881c0,0,0.134,1.742-1.676,2.684c-1.809,0.944-6.369-0.968-6.814-2.234c-0.446-1.267-0.262-7.343,5.125-5.868c0.803,0.364,1.492,1.079,2.034,1.88c-3.228-5.444-9.868-7.708-9.868-7.708s-1.127,2.278-2.422,3.26c-1.295,0.98-6.162,0.228-6.162,0.228l-5.508,11.885l4.338-1.477l-0.004,0.029c0,0,3.039-0.353,11.646,3.434c8.605,3.784,11.092,8.036,11.092,8.036S317.466,366.731,315.252,360.489z"></path><linearGradient id="leftXMLID_114_" gradientUnits="userSpaceOnUse" x1="77.3345" y1="307.0908" x2="73.3342" y2="423.5952" gradientTransform="matrix(-1 0 0 1 368.2656 0)"><stop offset="0" style="stop-color:#363030"></stop><stop offset="1" style="stop-color:#7D2C2C"></stop></linearGradient><path style="fill:url(#leftXMLID_114_);stroke:#000000;stroke-linecap:round;stroke-linejoin:round;" d="M294.227,352.416c0,0,2.588,2.238,2.828,2.649c-0.809,2.487-4.418,9.937-4.418,9.937s-1.613,0.773-4.186,0.242C289.848,362.25,294.227,352.416,294.227,352.416z"></path><linearGradient id="leftXMLID_115_" gradientUnits="userSpaceOnUse" x1="48.8271" y1="306.1133" x2="44.827" y2="422.6141" gradientTransform="matrix(-1 0 0 1 368.2656 0)"><stop offset="0" style="stop-color:#363030"></stop><stop offset="1" style="stop-color:#7D2C2C"></stop></linearGradient><path style="fill:url(#leftXMLID_115_);stroke:#000000;stroke-linecap:round;stroke-linejoin:round;" d="M317.281,389.825c0,0,0.305-22.691-2.063-28.308c-2.365-5.616-6.664-9.153-13.079-10.817c1.177-1.015,5.129-4.013,6.557-9.419c2.001-0.168,7.602-1.241,9.41-5.324c1.771,0.673,14.101,7.184,14.235,7.526c0.135,0.341-0.859,9.756,1.15,14.188c2.497,5.503,6.154,8.17,6.154,8.17l1.746,31.241L317.281,389.825z"></path><polygon style="fill:#181212;" points="318.266,336.5 319.932,337.167 322.432,390.167 320.766,392.167 "></polygon><line style="fill:none;stroke:#000000;stroke-linecap:round;stroke-linejoin:round;" x1="338.793" y1="395.635" x2="336.674" y2="363.111"></line><path style="fill:#181212;stroke:#000000;stroke-linecap:round;stroke-linejoin:round;" d="M309.913,343.417c-0.206,0.546,0.141,1.14,0.775,1.326c0.634,0.187,1.315-0.104,1.522-0.649c0.206-0.544-0.141-1.138-0.775-1.325S310.119,342.872,309.913,343.417z"></path><linearGradient id="leftXMLID_116_" gradientUnits="userSpaceOnUse" x1="47.8647" y1="306.0811" x2="43.8647" y2="422.58" gradientTransform="matrix(-1 0 0 1 368.2656 0)"><stop offset="0" style="stop-color:#363030"></stop><stop offset="1" style="stop-color:#7D2C2C"></stop></linearGradient><path style="fill:url(#leftXMLID_116_);stroke:#000000;stroke-linecap:round;stroke-linejoin:round;" d="M324.84,392.657l-3.436-56.107c0,0-0.641-1.098-1.422,0.034c0.152,2.393,2.872,55.035,2.872,55.035L324.84,392.657z"></path><path style="fill:#6E6E6E;stroke:#000000;stroke-linecap:round;stroke-linejoin:round;" d="M333.122,391.013c0,0-0.162-9.584-0.378-10.178c-0.215-0.594-2.925-3.208-2.925-3.208s-1.049-14.688-1.245-16.033c-0.143-0.261-0.996-4.288-0.996-4.288l-0.379-16.459l-1.973-0.899l2.049,45.104L333.122,391.013z"></path><linearGradient id="leftXMLID_117_" gradientUnits="userSpaceOnUse" x1="54.8174" y1="306.2939" x2="50.8167" y2="422.8125" gradientTransform="matrix(-1 0 0 1 368.2656 0)"><stop offset="0" style="stop-color:#363030"></stop><stop offset="1" style="stop-color:#7D2C2C"></stop></linearGradient><path style="fill:url(#leftXMLID_117_);stroke:#000000;stroke-linecap:round;stroke-linejoin:round;" d="M321.832,465.333c0,0,1.048,2.353-0.133,2.913c-1.18,0.561-5.585-0.132-5.585-0.132l-0.463-1.804L321.832,465.333z"></path><g><linearGradient id="leftXMLID_118_" gradientUnits="userSpaceOnUse" x1="49.9238" y1="306.1523" x2="45.9238" y2="422.6513" gradientTransform="matrix(-1 0 0 1 368.2656 0)"><stop offset="0" style="stop-color:#363030"></stop><stop offset="1" style="stop-color:#7D2C2C"></stop></linearGradient><path style="fill:url(#leftXMLID_118_);stroke:#000000;stroke-linecap:round;stroke-linejoin:round;" d="M321.89,465.878c0,0-6.001,0.503-7.269,0.129c-0.582-6.377-2.16-30.606-2.16-30.606s4.035-2.291,5.129-9.841c1.095-7.548-1.898-36.886-1.898-36.886s5.319-0.097,5.795,0.043c1.699,1.56,9.717,8.768,9.717,8.768l1.35,22.042L321.89,465.878z"></path><path style="fill:#181212;" d="M323.599,391.5c0,0,1.166,23.666,0.833,28.833s-7,14.667-7,14.667l0.5,8.833l4.167-1l9-21.5l-2.333-25.166L323.599,391.5z"></path><polygon style="fill:#6E6E6E;stroke:#000000;stroke-linecap:round;stroke-linejoin:round;" points="320.925,439.562 317.887,441.541 318.507,461.554 317.055,461.201 317.078,463.705 319.033,464.585 319.021,466.247 321.68,465.97 "></polygon><polygon style="fill:#6E6E6E;stroke:#000000;stroke-linecap:round;stroke-linejoin:round;" points="328.505,408.344 329.486,421.349 332.752,418.3 333.075,409.994 "></polygon><g><linearGradient id="leftXMLID_119_" gradientUnits="userSpaceOnUse" x1="40.4824" y1="305.8271" x2="36.4824" y2="422.3269" gradientTransform="matrix(-1 0 0 1 368.2656 0)"><stop offset="0" style="stop-color:#363030"></stop><stop offset="1" style="stop-color:#7D2C2C"></stop></linearGradient><path style="fill:url(#leftXMLID_119_);stroke:#000000;stroke-linecap:round;stroke-linejoin:round;" d="M337.195,475.233c0,0-9.134-2.389-10.667-2.992c-0.376-0.867-0.272-1.141-0.272-1.141s-4.223-0.942-4.596-1.354c0.027-2.866-1.127-32.875-1.127-32.875s5.803-5.1,6.608-15.609c2.194-2.077,4.076-3.793,4.076-3.793l-0.158-6.102l-3.767-3.078l-1.484-25.411c0,0,4.566,4.221,6.75,6.832c2.182,2.611,4.052,5.583,5.318,5.958c1.268,0.373,3.962,1.167,3.962,1.167s2.288,33.064,1.938,35.384c-1.339,3.542-5.852,11.747-6.287,16.158C337.055,452.791,337.195,475.233,337.195,475.233z"></path><polygon style="opacity:0.5;fill:#FFFFFF;" points="341.266,397.5 338.766,397 342.766,432.25 "></polygon><path style="fill:#181212;" d="M336.766,395.833l-0.168,6.834l-4,8.166l0.334,16.834c0,0-7.5,16.334-8.334,20c-0.166,7.666,0,22.5,0,22.5h1.668l-0.334-22.334l8.747-19.961l-0.413-17.372l3.832-7.333l-0.166-6.834L336.766,395.833z"></path><path style="fill:none;stroke:#000000;stroke-linecap:round;stroke-linejoin:round;" d="M326.256,471.101c0,0-0.396-21.306,0.166-23.26c1.594-4.678,8.257-19.969,8.257-19.969l-0.418-17.984l3.731-7.073l-0.115-7.146"></path></g><g><path style="fill:#181212;stroke:#000000;stroke-linecap:round;stroke-linejoin:round;" d="M329.728,394.401c-0.241,0.64,0.165,1.336,0.909,1.554c0.743,0.22,1.542-0.121,1.783-0.759c0.242-0.64-0.164-1.336-0.908-1.556C330.768,393.422,329.969,393.762,329.728,394.401z"></path><path style="fill:#181212;stroke:#000000;stroke-linecap:round;stroke-linejoin:round;" d="M333.227,397.021c-0.241,0.64,0.166,1.335,0.91,1.555c0.742,0.219,1.542-0.122,1.783-0.76c0.242-0.641-0.164-1.337-0.908-1.557C334.268,396.042,333.469,396.381,333.227,397.021z"></path><path style="fill:#181212;stroke:#000000;stroke-linecap:round;stroke-linejoin:round;" d="M330.041,400.322c-0.241,0.64,0.166,1.335,0.91,1.554c0.743,0.22,1.542-0.121,1.783-0.76c0.242-0.641-0.165-1.336-0.908-1.556C331.082,399.343,330.283,399.682,330.041,400.322z"></path></g></g><path style="fill:#181212;stroke:#000000;stroke-linecap:round;stroke-linejoin:round;" d="M317.912,340.894c0,0-3.334,1.136-3.518,1.386c-0.182,0.249-0.684,3.203-0.892,3.521s-0.972,0.242-0.972,0.242s-0.912,4.273-0.674,4.343c0.237,0.07,1.029,0.303,1.029,0.303l0.453,3.691c0,0,3.051,2.413,3.471,5.261c0.419,2.849,1.045,8.179,1.045,8.179l1.691,0.651C319.547,368.47,317.884,340.734,317.912,340.894z"></path><linearGradient id="leftXMLID_120_" gradientUnits="userSpaceOnUse" x1="52.4868" y1="306.2393" x2="48.4867" y2="422.7392" gradientTransform="matrix(-1 0 0 1 368.2656 0)"><stop offset="0" style="stop-color:#363030"></stop><stop offset="1" style="stop-color:#7D2C2C"></stop></linearGradient><path style="fill:url(#leftXMLID_120_);stroke:#000000;stroke-linecap:round;stroke-linejoin:round;" d="M316.004,341.693c0.061,0.188,0.447,12.959,0.447,12.959s1,1.374,1.939,0.458c0.037-2.543-0.479-14.217-0.479-14.217L316.004,341.693z"></path><g><path style="fill:#181212;stroke:#000000;stroke-linecap:round;stroke-linejoin:round;" d="M328.811,356.024l1.838-2.068c0,0-0.246-1.094-0.936-0.844s-2.016,2.187-2.016,2.187S327.666,356.255,328.811,356.024z"></path><line style="fill:none;stroke:#000000;stroke-linecap:round;stroke-linejoin:round;" x1="329.61" y1="354.955" x2="328.655" y2="354.163"></line></g><g><path style="fill:#181212;stroke:#000000;stroke-linecap:round;stroke-linejoin:round;" d="M332.737,377.813l2.155-2.425c0,0-0.289-1.282-1.097-0.989c-0.808,0.295-2.362,2.564-2.362,2.564S331.396,378.082,332.737,377.813z"></path><line style="fill:none;stroke:#000000;stroke-linecap:round;stroke-linejoin:round;" x1="333.676" y1="376.56" x2="332.557" y2="375.631"></line></g><path style="fill:#6E6E6E;stroke:#000000;stroke-linecap:round;stroke-linejoin:round;" d="M323.531,334.843c0,0,1.025-10.256-2.699-20.661c-3.553-9.928-10.676-19.268-10.676-19.268l2.492-0.754c0,0,8.336,12.619,10.76,19.745c3.689,10.851,2.64,22.007,2.64,22.007L323.531,334.843z"></path></g></g></svg>