<svg xmlns="http://www.w3.org/2000/svg" width="500" height="500" version="1.1"><g id="x9156"><g><g><path style="fill:#FBFBFB;stroke:#000000;stroke-linecap:round;stroke-linejoin:round;" d="M309.834,370c0,0,2.332,2.333,2.332,3s0.334,2.333,0.334,2.333s3.166,3,3.166,3.667c-0.666,1.667-2,2.667-2,2.667s-3.832-4.167-4.332-5.167C309.166,374.667,309,374,309,374l-1.5-2.5L309.834,370z"></path><path style="fill:#CD4951;stroke:#000000;stroke-linecap:round;stroke-linejoin:round;" d="M315.666,379c0,0-1.832,0.167-2.332,1s0.332,1.667,0.332,1.667S315.666,381.167,315.666,379z"></path></g><polygon style="fill:#333334;stroke:#000000;stroke-linecap:round;stroke-linejoin:round;" points="304.583,367.583 307.166,365.75 310.628,370.208 308.078,372.106 "></polygon></g></g></svg>