<svg xmlns="http://www.w3.org/2000/svg" width="500" height="500" version="1.1"><g id="x9157"><g><g><path style="fill:#6E6E6E;stroke:#000000;stroke-linecap:round;stroke-linejoin:round;" d="M270.315,444.847l4.064,0.75l56.616-212.263l11.182,2.983l-56.387,211.408c0.468,0.166,2.896,1.101,2.986,2.586c0.078,1.264-3.336,1.751-5.152,4.007c-1.814,2.255,0.21,6.784,0.21,6.784l-14.55-3.476l3.879-5.966C273.699,449.652,270.315,444.847,270.315,444.847z"></path><path style="opacity:0.5;fill:#FFFFFF;" d="M272.242,458.144c0,0,3.533-2.153,3.559-3.758c0.024-1.609-5.143,2.124-5.627,2.937C269.687,458.135,272.242,458.144,272.242,458.144z"></path><path style="opacity:0.5;fill:#FFFFFF;" d="M282.344,459.629c0,0-0.645-3.135,0.159-4.129c0.804-0.997,3.142-3.203,2.354-3.277c-0.789-0.075-5.396,2.059-5.512,3.509c-0.118,1.45-0.008,4.574-0.008,4.574S281.547,462.108,282.344,459.629z"></path><rect x="307.268" y="240.122" transform="matrix(0.9662 0.2579 -0.2579 0.9662 99.1834 -67.9318)" style="opacity:0.5;fill:#FFFFFF;" width="2.602" height="208.059"></rect></g><g><path style="fill:#462107;stroke:#000000;stroke-linecap:round;stroke-linejoin:round;" d="M387.836,148.903c0,0-15.715-7.691-29.906,0.099c-14.189,7.79-13.554,13.476-13.554,13.476l-16.649-10.228l17.404-11.776c0,0,24.275-9.272,25.115-12.413c0.836-3.141-0.847-6.416-5.371-5.604c2.59-2.136,6.5-4.188,6.719-3.996c0.218,0.193,18.42,20.256,18.42,20.256S390.992,146.649,387.836,148.903z"></path><path d="M381.142,135.139c0,0-7.587-6.868-13.393-4.783c2.145-1.984,2.471-2.705,2.471-2.705s0.788-3.962-2.722-5.437c1.558-0.795,1.768-2.085,1.768-2.085L381.142,135.139z"></path><g><path style="fill:#56280E;stroke:#000000;stroke-linecap:round;stroke-linejoin:round;" d="M344.857,105.677c0,0-6.359-0.888-8.729-0.578c-2.371,0.31-3.954,0.695-4.539-0.134c-0.588-0.83-0.504-2.152-1.006-2.287c-0.503-0.134-2.748,0.209-3.209-0.586s-1.349-2.513-3.082-2.572c-1.733-0.058-2.99-0.394-2.947-1.056c0.041-0.662,0.872-1.247-0.102-1.642c-0.97-0.393-3.3-0.747-3.752-2.077c-0.453-1.332-0.602-1.776-0.602-1.776s-7.742,0.761-10.447,0.309c-2.705-0.453-5.295-2.354-5.295-2.354s-5.813,0.604-8.5-0.921c-2.689-1.523-3.46-4.691-3.46-4.691s-7.69-0.437-10.036-1.734c-2.345-1.299-2.428-1.994-2.428-1.994s-3.913-1.986-5.913-5.077c-3.025-0.267-4.935-1.182-6.04-3.091c-4.254-2.212-5.494-3.619-6.124-5.805c9.472-0.703,59.733-5.466,65.522-2.442c5.788,3.025,17.07,31.873,17.412,32.099c0.344,0.226,12.547,4.424,12.547,4.424L344.857,105.677z"></path><g><path style="opacity:0.2;fill:#FFFFFF;" d="M333.953,103.666c0,0,2.904-0.122,3.598-1.372c0.691-1.252,1.396-3.217,0.893-3.351c-0.502-0.134-3.07,0.078-3.887,1.116C333.742,101.098,333.552,102.482,333.953,103.666z"></path><path style="opacity:0.2;fill:#FFFFFF;" d="M318.441,75.034c0,0,2.692-2.691,2.08-3.751c-0.614-1.062-8.076,0-8.076,0s0.367-2.056-0.335-2.782c-0.704-0.726-11.034-1.687-11.561-0.392c-0.525,1.295,0.479,1.563,0.479,1.563s-3.662,2.971-1.785,4.011c1.875,1.038,8.242,0.045,8.7,0.348c0.458,0.299-4.849,3.371-3.218,3.985C306.359,78.63,316.465,77.737,318.441,75.034z"></path><path style="opacity:0.2;fill:#FFFFFF;" d="M286.701,83.705c0.549-0.033,5.774,1.899,9.684-0.647c3.908-2.546,8.254-6.052,8.053-6.644c-0.199-0.59-25.15,5.495-25.465,6.666C282.825,84.107,286.701,83.705,286.701,83.705z"></path><path style="opacity:0.2;fill:#FFFFFF;" d="M272.293,77.171c0,0,13.215,2.269,15.627,1.297c2.411-0.972,10.262-5.518,10.498-7.069c0.233-1.553-29.004-0.917-33.083,1.583c1.151,1.743,7.218,3.899,7.218,3.899"></path><path style="opacity:0.2;fill:#FFFFFF;" d="M314.602,82.713c0,0,5.293,0.335,6.186-0.324c0.895-0.658,4.233-4.433,3.328-5.751c-0.904-1.318-5.637,0.291-7.716,1.352s-4.591,3.083-4.591,3.083s-3.72-1.531-5.998-1.062c-2.278,0.468-15.189,5.817-15.167,7.08c0.021,1.263,5.282,3.743,9.304,2.122c2.971,0.973,5.639,2.402,5.639,2.402s6.914-3.718,7.527-5.35c0.615-1.631,1.107-3.472,1.107-3.472"></path><path style="opacity:0.2;fill:#FFFFFF;" d="M313.711,91.824c-0.41,0.362,5.758,0.264,6.971-0.338c1.213-0.601,4.95-5.205,4.276-6.261C324.289,84.171,315.572,90.18,313.711,91.824z"></path><path style="opacity:0.2;fill:#FFFFFF;" d="M324.544,98.914c0.442,0.029,2.013,0.537,2.694,0c0.681-0.534,1.188-2.105,1.194-2.462c0.004-0.357-1.169-0.671-2.336,0.005C324.93,97.133,324.544,98.914,324.544,98.914z"></path><path style="opacity:0.2;fill:#FFFFFF;" d="M321.937,96.245c0,0,6.384-0.719,7.02-1.088c0.637-0.368,3.457-4.551,2.882-5.423c-0.575-0.871-4.471,0.961-5.215,1.391c-0.743,0.429-7.271,3.713-7.215,4.177C319.464,95.764,321.937,96.245,321.937,96.245z"></path><path style="opacity:0.2;fill:#FFFFFF;" d="M324.217,90.393c0.4,0.691,2.607-0.022,3.395-0.62s2.346-3.41,2.334-4.042c-0.01-0.631-4.093,0.881-4.712,1.524C324.611,87.896,323.908,89.863,324.217,90.393z"></path></g><linearGradient id="leftXMLID_121_" gradientUnits="userSpaceOnUse" x1="14.561" y1="-10.8726" x2="14.561" y2="244.5352" gradientTransform="matrix(-0.9662 -0.2577 -0.2577 0.9662 328.8481 32.9856)"><stop offset="0" style="stop-color:#CB7927"></stop><stop offset="1" style="stop-color:#80511B"></stop></linearGradient><path style="fill:url(#leftXMLID_121_);stroke:#000000;stroke-linecap:round;stroke-linejoin:round;" d="M352.631,102.771c-0.352,0.31-8.234-1.928-11.795-4.223c-4.815-6.668-11.39-27.937-18.888-30.609c-7.495-2.671-54.371,1.514-61.306,1.279c-6.934-0.234-12.397-1.962-13.678-4.726c-1.281-2.765,1.121-3.199,1.877-2.998c0.752,0.201,6.69,3.668,10.453,3.191c3.764-0.477,62.153-4.955,69.458-2.065c7.303,2.89,11.984,32.268,13.635,33.648c1.649,1.383,9.264,4.625,12.615,4.172C354.891,101.354,352.631,102.771,352.631,102.771z"></path><path style="fill:#BE905F;" d="M352.504,100.719c0,0-8.018-0.883-11.129-5.033c2.102,2.894,4.055,4.311,6.107,4.68C349.538,100.736,352.504,100.719,352.504,100.719z"></path><ellipse transform="matrix(-0.9748 0.223 -0.223 -0.9748 676.1658 73.0954)" style="fill:#FFFFFF;" cx="333.955" cy="74.732" rx="1.04" ry="2.99"></ellipse></g><g><path style="fill:#56280E;stroke:#000000;stroke-linecap:round;stroke-linejoin:round;" d="M391.35,118.078c0,0,5.955,2.397,7.857,3.846c1.9,1.448,3.082,2.57,4.004,2.145c0.92-0.428,1.508-1.617,2.01-1.483c0.502,0.134,2.277,1.549,3.073,1.089c0.796-0.46,2.422-1.507,3.954-0.696c1.533,0.814,2.791,1.149,3.084,0.554s-0.135-1.517,0.904-1.374s3.232,0.997,4.288,0.067c1.056-0.93,1.407-1.239,1.407-1.239s6.334,4.516,8.904,5.47c2.572,0.955,5.762,0.595,5.762,0.595s4.742,3.418,7.832,3.435c3.092,0.017,5.337-2.345,5.337-2.345s6.885,3.452,9.565,3.494c2.68,0.042,3.1-0.519,3.1-0.519s4.381,0.226,7.656-1.458c2.756,1.274,4.866,1.433,6.777,0.328c4.791,0.2,6.566-0.403,8.199-1.985c-7.864-5.329-49.075-34.489-55.6-34.749c-6.527-0.261-30.676,19.138-31.087,19.163s-13.083-2.414-13.083-2.414L391.35,118.078z"></path><g><path style="opacity:0.2;fill:#FFFFFF;" d="M401.806,121.764c0,0-2.456-1.551-2.435-2.981c0.022-1.43,0.392-3.485,0.895-3.352c0.502,0.134,2.623,1.597,2.813,2.904S402.744,120.938,401.806,121.764z"></path><path style="opacity:0.2;fill:#FFFFFF;" d="M429.517,104.661c0,0-0.993-3.675,0.067-4.289c1.061-0.615,7.002,4.021,7.002,4.021s0.705-1.965,1.676-2.244c0.971-0.28,10.408,4.033,10.219,5.417c-0.189,1.385-1.195,1.118-1.195,1.118s1.697,4.4-0.447,4.366c-2.143-0.033-7.169-4.063-7.717-4.031c-0.548,0.031,2.523,5.339,0.804,5.059C438.205,113.797,429.885,107.988,429.517,104.661z"></path><path style="opacity:0.2;fill:#FFFFFF;" d="M452.723,127.986c-0.457-0.301-5.953-1.229-8.074-5.384c-2.123-4.154-4.144-9.358-3.674-9.772c0.469-0.412,19.074,17.292,18.761,18.463C455.884,130.266,452.723,127.986,452.723,127.986z"></path><path style="opacity:0.2;fill:#FFFFFF;" d="M468.471,129.497c0,0-12.587-4.615-14.195-6.658c-1.607-2.044-6.152-9.896-5.583-11.359c0.569-1.464,25.608,13.65,27.899,17.85c-1.866,0.937-8.201-0.215-8.201-0.215"></path><path style="opacity:0.2;fill:#FFFFFF;" d="M429.024,113.232c0,0-4.757-2.345-5.204-3.36c-0.448-1.017-1.463-5.955-0.021-6.646c1.441-0.693,4.744,3.06,6.018,5.015c1.274,1.955,2.446,4.959,2.446,4.959s3.988,0.524,5.729,2.065c1.742,1.542,10.274,12.609,9.628,13.693c-0.649,1.083-6.446,0.614-9.126-2.792c-3.061-0.636-6.086-0.726-6.086-0.726s-4.145-6.667-3.865-8.388c0.28-1.719,0.772-3.562,0.772-3.562"></path><path style="opacity:0.2;fill:#FFFFFF;" d="M425.259,121.576c0.175,0.519-5.125-2.639-5.878-3.764c-0.752-1.126-1.699-6.98-0.59-7.559C419.897,109.673,424.463,119.224,425.259,121.576z"></path><path style="opacity:0.2;fill:#FFFFFF;" d="M412.332,122.328c-0.396-0.194-2.01-0.536-2.334-1.341c-0.324-0.803,0.016-2.417,0.189-2.729s1.346,0,2.022,1.167C412.886,120.592,412.332,122.328,412.332,122.328z"></path><path style="opacity:0.2;fill:#FFFFFF;" d="M415.924,121.313c0,0-5.178-3.803-5.545-4.44c-0.369-0.636-0.734-5.668,0.199-6.138c0.934-0.468,3.4,3.06,3.832,3.802c0.43,0.743,4.455,6.843,4.176,7.216C418.309,122.127,415.924,121.313,415.924,121.313z"></path><path style="opacity:0.2;fill:#FFFFFF;" d="M416.86,115.103c-0.691,0.4-2.25-1.318-2.635-2.229c-0.386-0.91-0.335-4.125-0.011-4.667s3.111,2.803,3.328,3.669C417.762,112.741,417.392,114.797,416.86,115.103z"></path></g><linearGradient id="leftXMLID_122_" gradientUnits="userSpaceOnUse" x1="1756.3379" y1="-10.7256" x2="1756.3379" y2="244.6746" gradientTransform="matrix(0.9662 0.2577 -0.2577 0.9662 -1241.4343 -385.9819)"><stop offset="0" style="stop-color:#CB7927"></stop><stop offset="1" style="stop-color:#80511B"></stop></linearGradient><path style="fill:url(#leftXMLID_122_);stroke:#000000;stroke-linecap:round;stroke-linejoin:round;" d="M386.056,111.687c0.151,0.444,8.101,2.429,12.331,2.211c7.496-3.382,23.79-18.552,31.621-17.137c7.832,1.417,46.396,28.392,52.527,31.642c6.133,3.25,11.729,4.474,14.213,2.714c2.49-1.758,0.623-3.333-0.131-3.534c-0.756-0.202-7.632-0.151-10.655-2.439c-3.024-2.287-51.43-35.25-59.204-36.382c-7.773-1.131-26.463,22.012-28.58,22.39c-2.121,0.375-10.337-0.604-13.019-2.666C384.799,109.333,386.056,111.687,386.056,111.687z"></path><path style="fill:#BE905F;" d="M387.188,109.97c0,0,7.392,3.227,12.155,1.177c-3.262,1.464-5.66,1.719-7.627,1.017C389.752,111.461,387.188,109.97,387.188,109.97z"></path><ellipse transform="matrix(0.7344 0.6787 -0.6787 0.7344 176.1615 -256.8167)" style="fill:#FFFFFF;" cx="416.215" cy="96.673" rx="1.039" ry="2.99"></ellipse></g><path style="fill:#462107;stroke:#000000;stroke-linecap:round;stroke-linejoin:round;" d="M372.828,75.994c-0.373,0.113,11.752,6.902,12.236,8.109c0.486,1.205-2.018,6.056-4.028,7.539c-2.011,1.482-9.249,2.377-12.766,3.458c-3.519,1.081-34.311,13.593-35.953,15.712c7.062,4.305,26.468,17.827,26.468,17.827s10.682-7.246,12.809-10.178c2.129-2.931,19.016-9.731,25.163-19.667c6.15-9.933,1.401-12.815,1.401-12.815S378.976,74.134,372.828,75.994z"></path><path d="M366.953,122.741c-0.436-0.384-8.317-10.696-10.243-20.632c9.147,10.111,13.427,18.79,13.427,18.79L366.953,122.741z"></path><linearGradient id="leftXMLID_123_" gradientUnits="userSpaceOnUse" x1="-60.0601" y1="-10.8711" x2="-60.0601" y2="244.5308" gradientTransform="matrix(-0.9662 -0.2577 -0.2577 0.9662 328.8481 32.9856)"><stop offset="0" style="stop-color:#CB7927"></stop><stop offset="1" style="stop-color:#80511B"></stop></linearGradient><path style="fill:url(#leftXMLID_123_);stroke:#000000;stroke-linecap:round;stroke-linejoin:round;" d="M397.653,132.276c0,0-3.594-3.433-5.915-11.133c-1.498-4.976-1.697-12.297-2.352-12.875c-0.654-0.578-11.125-4.717-18.973-17.173c-7.848-12.455-1.322-18.252-0.971-18.562c0.353-0.31,29.06-16.608,34.328-16.684c1.256-1.684-1.574-4.189-1.574-4.189s-12.69-7.422-31.58-1.694c-18.889,5.729-24.996,19.039-23.782,32.147c1.214,13.109,29.667,51.249,41.778,59.325c0.084,2.714-0.302,7.187-0.302,7.187S396.689,137.402,397.653,132.276z"></path><path style="fill:#A0713E;" d="M366.21,68.846c0.61-1.273,1.491-7.946-0.651-9.326c-2.145-1.379-12.074,1.535-13.711,10.699s0.988,24.219,5.17,32.422c6.42,14.275,30.928,37.771,31.822,38.457l0.055,5.846c0,0,5.646-7.377,8.177-14.508c-3.26-2.575-11.692-13.348-12.205-22.187c0,0-14.022-4.278-20.249-22.987C359.609,72.21,366.21,68.846,366.21,68.846z"></path><path style="fill:#BE905F;" d="M388.865,108.713c0,0-2.064,2.681-4.859,1.397c-4.305-1.687-15.572-9.897-18.926-21.558c1.09-2.401,2.201-2.194,2.201-2.194s1.977,6.718,10.783,15.078C384.854,107.88,388.865,108.713,388.865,108.713z"></path><path style="fill:#BE905F;" d="M390.323,124.938c0,0-4.481-7.925-4.849-10.58c-2.781,4.372-10.203,13.026-10.203,13.026s3.482,5.101,6.859,7.078C386.228,130.708,390.323,124.938,390.323,124.938z"></path><g><g><path style="fill:#462107;stroke:#000000;stroke-linecap:round;stroke-linejoin:round;" d="M363.322,46.541c0,0,5.514,12.372,6.792,13.386c1.276,1.014,2.2,1.596,2.2,1.596s-0.35,3.069-1.477,3.51c-1.125,0.439-1.988,0.142-1.988,0.142s-16.855,5.665-15.283,8.104c4.986,0.725,32.484,2.338,35.902-2.402l1.16-6.622c0,0-14.909-16.762-26.592-20.147C363.288,44.648,363.322,46.541,363.322,46.541z"></path><path d="M378.355,70.738c0,0,3.133-1.318,2.771-3.658c-0.362-2.338-2.593-5.086-8.583-5.159c-3.162-2.279-4.043-3.681-4.043-3.681s-4.607-9.304-4.539-9.555c0.066-0.251-0.737-2.62-0.424-3.792c4.629,1.145,19.222,10.688,19.449,10.84c0.228,0.151,7.889,9.104,6.376,11.75C387.849,70.13,383.076,71.549,378.355,70.738z"></path></g><g><linearGradient id="leftXMLID_124_" gradientUnits="userSpaceOnUse" x1="-42.8999" y1="-10.8745" x2="-42.8999" y2="244.5703" gradientTransform="matrix(-0.9662 -0.2577 -0.2577 0.9662 328.8481 32.9856)"><stop offset="0" style="stop-color:#CB7927"></stop><stop offset="1" style="stop-color:#80511B"></stop></linearGradient><path style="fill:url(#leftXMLID_124_);stroke:#000000;stroke-linecap:round;stroke-linejoin:round;" d="M369.68,52.476c0,0-0.784-2.363-1.332-2.576c-0.549-0.213-1.168,0.093-1.168,0.093s-2.279,5.515-0.018,8.138C368.771,56.136,369.68,52.476,369.68,52.476z"></path><linearGradient id="leftXMLID_125_" gradientUnits="userSpaceOnUse" x1="-37.9077" y1="-10.8711" x2="-37.9077" y2="244.5306" gradientTransform="matrix(-0.9662 -0.2577 -0.2577 0.9662 328.8481 32.9856)"><stop offset="0" style="stop-color:#CB7927"></stop><stop offset="1" style="stop-color:#80511B"></stop></linearGradient><path style="fill:url(#leftXMLID_125_);stroke:#000000;stroke-linecap:round;stroke-linejoin:round;" d="M365.071,49.564c0,0-0.009-1.482-0.669-2.534c-0.908-0.376-1.65,0.637-1.65,0.637s-1.302,4.632,0.616,7.028C364.172,52.69,365.071,49.564,365.071,49.564z"></path></g><linearGradient id="leftXMLID_126_" gradientUnits="userSpaceOnUse" x1="-60.437" y1="-10.8711" x2="-60.437" y2="244.5272" gradientTransform="matrix(-0.9662 -0.2577 -0.2577 0.9662 328.8481 32.9856)"><stop offset="0" style="stop-color:#CB7927"></stop><stop offset="1" style="stop-color:#80511B"></stop></linearGradient><path style="fill:url(#leftXMLID_126_);stroke:#000000;stroke-linecap:round;stroke-linejoin:round;" d="M388.916,108.155c4.259-2.937,13.107-9.82,15.767-17.879c3.511-10.638,3.427-25.462-10.536-36.186c-13.962-10.722-29.334-12.132-30.505-11.771c-1.173,0.359-1.341,3.008-1.341,3.008s1.038,0.142,2.771,0.201c1.734,0.059,5.805,5.989,6.826,7.203c1.021,1.215,3.226,1.533,5.932,1.986c0.661,4.08,3.719,8.26,6.791,9.349c3.075,1.088,3.376,1.977,3.376,1.977s0.286,1.961-2.479,3.242c-2.764,1.282-11.525,0.828-14.324,2.235c-2.797,1.407-16.878,2.227-17.531,1.65c-0.652-0.578-0.2-1.265-0.2-1.265s-2.489,1.759-1.206,2.503c1.28,0.745,19.993,2.238,20.949,1.685c0.955-0.553,12.521,4.013,17.84,8.797c0,0,5.771,6.114,5.563,9.423c-0.188,2.952-3.881,10.216-10.408,11.75C385.97,106.954,388.498,108.569,388.916,108.155z"></path><path style="fill:#462107;stroke:#000000;stroke-linecap:round;stroke-linejoin:round;" d="M383.564,51.765c1.252-0.201,2.957-0.389,3.354-0.007c0.643,0.62,0.717,3.287,0.717,3.287s-0.02,0.487,2.527,4.396c-2.28-0.877-3.942-5.896-4.657-6.087c-1.089-0.291-2.054,0.978-2.054,0.978s-3.544-4.377-3.539-4.646C380.9,50.211,382.529,51.158,383.564,51.765z"></path><path style="fill:#FFFFFF;" d="M385.254,49.25c-0.643-0.619-10.264-5.248-15.184-5.305c3.205,2.111,4.898,4.177,6.657,4.646C378.486,49.062,385.254,49.25,385.254,49.25z"></path><path style="fill:#FFBF00;" d="M399.543,60.599c0,0-1.223,1.559-0.245,3.614s6.351,14.882,5.623,20.969C406.646,78.375,405.418,66.831,399.543,60.599z"></path><g><linearGradient id="leftXMLID_127_" gradientUnits="userSpaceOnUse" x1="-62.2266" y1="-10.8726" x2="-62.2266" y2="244.549" gradientTransform="matrix(-0.9662 -0.2577 -0.2577 0.9662 328.8481 32.9856)"><stop offset="0" style="stop-color:#CB7927"></stop><stop offset="1" style="stop-color:#80511B"></stop></linearGradient><path style="fill:url(#leftXMLID_127_);stroke:#000000;stroke-linecap:round;stroke-linejoin:round;" d="M382.898,52.368c-0.006,0.267,0.385,4.611,1.916,5.424c1.533,0.813,3.149,1.311,3.149,1.311l3.15,1.311c0,0-3.174-3.74-3.479-5.369c-0.307-1.629-0.867-3.058-1.291-3.238C385.922,51.626,382.898,52.368,382.898,52.368z"></path></g></g><path style="fill:#462107;stroke:#000000;stroke-linecap:round;stroke-linejoin:round;" d="M371.381,184.351c0,0-25.605,4.836-29.301,7.259c-7.248-9.83-11.57-15.827-10.564-15.559c1.004,0.268,6.434,2.794,7.852,0.839c1.418-1.956,1.675-4.938,1.675-4.938l10.309-2.993c0,0,9.964-5.06,10.923-7.314c0.961-2.256-1.071-6.747-1.071-6.747S375.766,167.575,371.381,184.351z"></path><path d="M371.063,180.497c-0.134,0.812-1.758-10.563-6.708-12.69c-4.95-2.128-9.39-0.621-9.39-0.621s6.826-4.909,7.095-5.914c0.269-1.005,0.403-5.544,0.403-5.544S372.631,171.091,371.063,180.497z"></path><linearGradient id="leftXMLID_128_" gradientUnits="userSpaceOnUse" x1="-54.9429" y1="-10.8716" x2="-54.9429" y2="244.5305" gradientTransform="matrix(-0.9662 -0.2577 -0.2577 0.9662 328.8481 32.9856)"><stop offset="0" style="stop-color:#CB7927"></stop><stop offset="1" style="stop-color:#80511B"></stop></linearGradient><path style="fill:url(#leftXMLID_128_);stroke:#000000;stroke-linecap:round;stroke-linejoin:round;" d="M384.391,167.364c0,0-3.117,1.591-5.537,5.117c-2.421,3.527-5.653,10.605-6.166,11.006c-0.512,0.402-1.307,0.863-1.307,0.863s1.543-19.912-16.072-33.088s-22.021-13.814-23.396-14.719c-0.058-2.304,1.728-5.46,0.538-12.104c-1.189-6.643-2.43-12.087-2.43-12.087s2.371-2.329,2.906-2.319c0.537,0.008,23.981,11.51,35.355,26.387C379.658,151.297,384.391,167.364,384.391,167.364z"></path><path style="fill:#BE905F;" d="M376.442,151.248c0,0-4.565-6.602-8.618-11.586c-4.055-4.984-5.47-9.264-5.47-9.264s2.462,7.923,3.425,8.854c-1.164,1.842-6.785,8.283-6.928,9.322c3.008,3.359,7.697,12.012,8.342,15.145c-0.251-4.104,0.922-6.483,3.494-9.566C373.26,151.071,376.442,151.248,376.442,151.248z"></path><path style="fill:#462107;stroke:#000000;stroke-linecap:round;stroke-linejoin:round;" d="M366.559,164.085c0,0-3.68-12.957-12.53-19.623c-8.855-6.669-17.206-9.166-21.864-7.852C357.193,147.729,366.559,164.085,366.559,164.085z"></path><path style="fill:#462107;stroke:#000000;stroke-linecap:round;stroke-linejoin:round;" d="M352.303,196.667c-0.066,0.251-0.179,4.708-5.813,0.603c0.537,4.72,3.813,11.605,3.813,11.605s4.642-3.608,5.502-6.16C356.664,200.164,352.303,196.667,352.303,196.667z"></path><linearGradient id="leftXMLID_129_" gradientUnits="userSpaceOnUse" x1="-53.6636" y1="-10.8711" x2="-53.6636" y2="244.5301" gradientTransform="matrix(-0.9662 -0.2577 -0.2577 0.9662 328.8481 32.9856)"><stop offset="0" style="stop-color:#CB7927"></stop><stop offset="1" style="stop-color:#80511B"></stop></linearGradient><path style="fill:url(#leftXMLID_129_);stroke:#000000;stroke-linecap:round;stroke-linejoin:round;" d="M364.203,199.485c0,0-3.752-4.769-3.762-6.746c-0.156-3.452-1.921-14.33-7.749-23.421c-5.831-9.092-12.511-15-24.202-17.581c-0.023,4.122,0.223,15.312,0.223,15.312s10.386,2.771,15.109,9.952c4.724,7.182,7.852,22.371,7.852,22.371l1.729,4.949c0,0-1.811,2.746-3.798,3.472c0.481,1.565,0.481,1.565,0.481,1.565s4.411-2.413,6.423-1.877C359.793,201.896,364.203,199.485,364.203,199.485z"></path><path style="fill:#BE905F;" d="M359.276,189.869c0,0-6.056,8.076-7.254,8.025c0.778-5.445-4.287-16.216-4.287-16.216s5.36-3.955,5.244-10.58C355.559,175.555,358.055,183.353,359.276,189.869z"></path><linearGradient id="leftXMLID_130_" gradientUnits="userSpaceOnUse" x1="-53.8364" y1="-10.8691" x2="-53.8364" y2="244.5279" gradientTransform="matrix(-0.9662 -0.2577 -0.2577 0.9662 328.8481 32.9856)"><stop offset="0" style="stop-color:#CB7927"></stop><stop offset="1" style="stop-color:#80511B"></stop></linearGradient><path style="fill:url(#leftXMLID_130_);stroke:#000000;stroke-linecap:round;stroke-linejoin:round;" d="M332.313,200.308c0,0,0.436,3.077,0.111,3.619c-0.325,0.542-1.447,1.05-1.447,1.05s0.531,2.384,0.715,2.703c0.184,0.319-3.916,5.595-4.078,6.538c-0.161,0.944,1.859,7.495,1.53,11.086c-0.329,3.59-0.95,4.232-0.95,4.232s-0.977,1.983-1.004,2.424c-0.029,0.441,0.754,4.238,0.754,4.238s3.846,9.458,3.958,15.77c0.111,6.312,1.893,14.771,1.893,14.771l1.741,0.196c0,0-0.534-2.026,1.57-4.874c2.105-2.849,4.826-5.981,4.826-5.981s-0.575-4.908-2.105-9.264c2.35-3.771,6.499-8.227,8.008-9.17c-1.608-3.39-1.302-9.588-0.38-10.688c-1.312-0.799-1.898-3.646-0.882-5.438c1.018-1.792,5.954-2.81,5.954-2.81s-1.888-17.818-8.745-28.44c-6.854-10.623-12.969-14.945-15.009-15.04c-0.353,3.673-1.437,19.176-1.437,19.176S330.982,197.891,332.313,200.308z"></path><path style="fill:#BE905F;" d="M342.254,221.397c0,0-1.34,5.027-2.253,4.918c-0.913-0.11-5.394-6.015-5.159-6.895c0.233-0.879,1.725-3.443,2.663-2.924C338.443,217.018,341.584,219.873,342.254,221.397z"></path><path style="fill:#BE905F;" d="M349.057,208.005c0,0-3.785,4.104-3.854,6.374c-3.216-4.088-8.542-12.372-10.788-14.048c5.043,0.269,8.82-5.318,8.863-7.999C346.326,197.048,349.166,203.054,349.057,208.005z"></path><path style="fill:#462107;" d="M339.271,246.71c0,0-4.313-10.57-10.419-17.447c0.269-1.006,1.768-6.124-0.074-11.326c3.652,2.454,14.18,12.934,18.492,19.467C344.021,239.5,339.271,246.71,339.271,246.71z"></path><path style="fill:#462107;" d="M333.334,200.851c-0.656-0.78-0.529,3.492-0.529,3.492l-1.59,0.922l0.938,2.537l13.562,14.25c0,0-0.177-0.855,0.779-1.408C344.182,215.183,336.018,204.029,333.334,200.851z"></path><linearGradient id="leftXMLID_131_" gradientUnits="userSpaceOnUse" x1="-54.6704" y1="-10.8755" x2="-54.6704" y2="244.5297" gradientTransform="matrix(-0.9662 -0.2577 -0.2577 0.9662 328.8481 32.9856)"><stop offset="0" style="stop-color:#CB7927"></stop><stop offset="1" style="stop-color:#80511B"></stop></linearGradient><path style="fill:url(#leftXMLID_131_);stroke:#000000;stroke-linecap:round;stroke-linejoin:round;" d="M323.807,257.257c0,0-1.961,4.321-4.278,5.452c-0.085,3.342,1.438,10.748,1.438,10.748s1.961-0.285,1.985,0.124c0.024,0.412-1.576,11.963-1.76,13.664C322.7,285.627,328.531,271.84,323.807,257.257z"></path></g><g><g><linearGradient id="leftXMLID_132_" gradientUnits="userSpaceOnUse" x1="-59.2412" y1="346.1006" x2="-59.2412" y2="428.2497" gradientTransform="matrix(-0.9662 -0.2577 -0.2577 0.9662 328.8481 32.9856)"><stop offset="0" style="stop-color:#CB7927"></stop><stop offset="1" style="stop-color:#80511B"></stop></linearGradient><path style="fill:url(#leftXMLID_132_);stroke:#000000;stroke-linecap:round;stroke-linejoin:round;" d="M269.208,444.134c1.854,1.798,3.466,6.244,3.466,6.244l-0.347,4.104l0.872,0.231c0,0,0.697-4.012,0.765-4.273c0.07-0.26-1.462-2.908-1.462-2.908s-1.743-1.863-0.772-2.354c0.969-0.486,4.867,2.044,4.867,2.044s1.241-1.159,3.489-0.842c2.248,0.321,2.922,3.395,2.922,3.395s4.6-0.454,5.109,0.429c0.514,0.881-3.234,2.684-3.234,2.684s4.666-1.744,5.315-2.78c-0.418-1.233-2.886-14.024-2.88-14.396l-0.018-0.284c0,0,1.227-5.644-0.604-6.131c-1.83-0.49-10.496,6.81-10.496,6.81l0.041,1.598C276.242,437.704,272.025,441.618,269.208,444.134z M278.889,437.246c1.092-2.692,5.896-6.356,7.093-5.946c1.196,0.412-0.507,4.347-1.196,5.188C284.092,437.332,278.789,437.497,278.889,437.246z"></path><path style="fill:#BE905F;" d="M285.188,447.285c0,0-0.29-6.985-1.328-7.802c-1.04-0.815-3.643,5.58-3.643,5.58S284.203,448.279,285.188,447.285z"></path></g><g><linearGradient id="leftXMLID_133_" gradientUnits="userSpaceOnUse" x1="-59.5112" y1="404.8906" x2="-59.5112" y2="436.8668" gradientTransform="matrix(-0.9662 -0.2577 -0.2577 0.9662 328.8481 32.9856)"><stop offset="0" style="stop-color:#CB7927"></stop><stop offset="1" style="stop-color:#80511B"></stop></linearGradient><path style="fill:url(#leftXMLID_133_);stroke:#000000;stroke-linecap:round;stroke-linejoin:round;" d="M270.84,455.86l1.104,2.16c0.974,0.541,2.774-1.313,3.361-1.063s0.559,2.109,0.559,2.109l0.847,0.32l0.895,0.146c0,0,0.9-1.63,1.534-1.553c0.632,0.074,1.272,2.579,2.386,2.598l2.033-1.325c0.213,0.244,2.138,3.183,1.54,3.674c-0.601,0.495-3.154,1.68-3.154,1.68s-2.8,1.4-3.956,2.585c-1.156,1.186-1.922,1.259-3.578,0.818c-1.654-0.441-2.281-0.887-2.695-2.49c-0.412-1.604-2.142-4.214-2.142-4.214s-1.624-2.3-1.898-3.025C267.4,457.556,270.533,455.964,270.84,455.86z"></path><path style="fill:#BE905F;" d="M280.227,460.498c-0.068,0.251-4.048,4.753-4.628,4.236c-0.582-0.513-0.151-5.154-0.151-5.154l2.623,0.253c0,0,0.717-1.332,1.006-1.075C279.367,459.013,280.227,460.498,280.227,460.498z"></path></g></g></g></g></svg>