<svg xmlns="http://www.w3.org/2000/svg" width="500" height="500" version="1.1"><g id="x9158"><g><path style="fill:#505050;stroke:#000000;stroke-linecap:round;stroke-linejoin:round;" d="M313.836,366.246c0,0-8.318,2.971-10.102,7.13c2.179,1.979,5.943,5.94,6.734,7.327c0.792,1.387,19.41,26.342,23.173,35.849c0.396-8.715,0.197-19.607,0.197-19.607s-16.438-20.202-17.032-21.391C316.212,374.365,313.836,366.246,313.836,366.246z"></path><g><path style="opacity:0.8;fill:#6E6E6E;" d="M331.858,411.401c0,0.792,0.594,11.687,3.763,13.864c3.169,2.179,6.933-7.525,6.14-9.902c-0.792-2.376-2.376-11.686,1.782-16.24c4.159-4.555,12.479-8.319,13.864-12.082c1.386-3.762-2.907-10.541-6.933-14.655c2.65,10.364-6.41,19.301-9.975,20.489c-1.25-8.75-0.938-13.375,12-27.875c-6.14,2.971-6.977,1.049-7.967,0.85c-0.99-0.198,0.154-3.537-3.221-5.287c-1.981-2.575,2.229-1.445,2.627-5.803c0.396-4.357-3.889-3.023-4.159-6.734c-0.718-9.838,7.724-10.299,7.724-10.299s-7.526-2.773-10.101,0s-0.197-2.18-4.555-2.377s-9.637,10.962-15.974,12.15c-7.13-4.754-7.595-7.793-7.198-9.575c-1.783,8.119,2.575,14.062,4.357,15.25c1.782,1.188,6.216,4.054,6.216,5.638c-0.438-6.375,5.864-14.55,10.816-15.342c0.989,9.109-0.197,18.616-5.149,22.181c-4.167,2.224-9.11-2.178-9.11-2.178s0.193,10.151,9.506,21.191c-0.198,5.149-1.387,8.119-0.792,10.694C326.114,397.935,331.858,411.401,331.858,411.401z"></path></g></g></g></svg>