<svg xmlns="http://www.w3.org/2000/svg" width="500" height="500" version="1.1"><g id="x9159"><g><g><g><path style="fill:#E7AD4E;stroke:#000000;stroke-linecap:round;stroke-linejoin:round;" d="M370.83,409.318c-3.172,4.48-7.597,7.547-12.461,9.067l-2.709-5.104c4.123-1.036,7.91-3.489,10.561-7.23c5.894-8.322,3.927-19.848-4.397-25.743c-8.323-5.895-19.849-3.927-25.744,4.398c-3.679,5.192-4.294,11.635-2.214,17.176l-5.209,2.192c-2.809-7.284-2.037-15.788,2.813-22.635c7.698-10.871,22.75-13.44,33.62-5.743C375.959,383.397,378.529,398.448,370.83,409.318z"></path><g><path style="fill:#A37E37;" d="M360.718,416.081l-0.589-1.279c-0.18,0.086-0.358,0.171-0.541,0.25l0.588,1.278L360.718,416.081z M365.68,412.862l-0.895-1.077c-0.152,0.128-0.306,0.252-0.461,0.377l0.897,1.082L365.68,412.862z M367.145,381.816c0.13,0.151,0.254,0.307,0.377,0.461l1.084-0.897l-0.381-0.46L367.145,381.816z M369.298,408.958l0.345-0.487l-1.15-0.814c-0.057,0.083-0.109,0.168-0.168,0.251c-0.059,0.08-0.118,0.155-0.177,0.235L369.298,408.958z M373.365,392.1l-0.102-0.588l-1.391,0.236c0.036,0.196,0.07,0.393,0.1,0.589L373.365,392.1z M371.691,386.426l-0.249-0.542l-1.278,0.589c0.084,0.179,0.169,0.36,0.249,0.541L371.691,386.426z M372.125,403.763l0.207-0.56l-1.318-0.488c-0.066,0.187-0.132,0.375-0.203,0.561L372.125,403.763z M373.514,398.013l0.055-0.594l-1.399-0.13c-0.017,0.199-0.036,0.395-0.058,0.593L373.514,398.013z M337.639,379.077l-0.898-1.083l-0.459,0.382l0.896,1.079C337.328,379.325,337.484,379.203,337.639,379.077z M353.244,374.488l0.13-1.4l-0.593-0.056l-0.131,1.399C352.849,374.448,353.047,374.468,353.244,374.488z M358.639,375.791l0.487-1.316l-0.56-0.205l-0.488,1.316C358.266,375.653,358.453,375.718,358.639,375.791z M342.375,376.187l-0.587-1.277l-0.542,0.251l0.588,1.276C342.014,376.351,342.193,376.268,342.375,376.187z M364.319,377.303l-0.486-0.344l-0.815,1.15c0.081,0.056,0.164,0.106,0.244,0.164c0.082,0.059,0.16,0.12,0.242,0.182L364.319,377.303z M347.698,374.626l-0.237-1.39l-0.588,0.101l0.237,1.39C347.307,374.69,347.502,374.657,347.698,374.626z M330.089,399.49c-0.036-0.195-0.069-0.392-0.102-0.588l-1.389,0.236l0.1,0.59L330.089,399.49z M333.636,383.338c0.058-0.082,0.12-0.159,0.18-0.24l-1.151-0.816l-0.345,0.485l1.151,0.816C333.526,383.502,333.578,383.419,333.636,383.338z M330.947,388.522c0.067-0.187,0.132-0.374,0.205-0.56l-1.315-0.487l-0.207,0.562L330.947,388.522z M329.793,393.95c0.016-0.197,0.035-0.396,0.057-0.593l-1.4-0.13l-0.056,0.592L329.793,393.95z"></path><path style="fill:#FFE38F;" d="M332.738,382.702c-4.393,6.201-5.164,13.893-2.756,20.549l-0.557,0.247c-2.49-6.846-1.703-14.764,2.816-21.146c4.958-7.002,13.147-10.38,21.126-9.561l0.071,0.617C345.629,372.56,337.593,375.849,332.738,382.702z"></path><path style="fill:#A37E37;" d="M369.717,408.892c-2.935,4.144-7.004,7.017-11.49,8.502l-0.297-0.538c4.41-1.438,8.41-4.246,11.291-8.314c7.125-10.058,4.736-24.04-5.324-31.166c-3.203-2.269-6.807-3.568-10.457-3.966l-0.071-0.617c3.797,0.392,7.548,1.729,10.879,4.089C374.58,384.199,377.033,398.561,369.717,408.892z"></path></g></g><g id="leftXMLID_25_"><g><path style="fill:#E8E2D7;" d="M341.926,408.398c-7.055-4.997-8.725-14.773-3.729-21.829c5.002-7.061,14.778-8.729,21.834-3.733c7.061,5,8.73,14.777,3.73,21.838C358.765,411.729,348.987,413.399,341.926,408.398z M339.902,387.775c-4.332,6.114-2.885,14.59,3.23,18.92c6.119,4.335,14.595,2.888,18.926-3.228c4.334-6.119,2.887-14.593-3.234-18.928C352.711,380.209,344.236,381.655,339.902,387.775z"></path></g><g><path style="fill:#4E4228;" d="M362.396,402.962l0.662,0.468c0.273,0.194,0.338,0.571,0.145,0.846s-0.572,0.339-0.846,0.145l-0.662-0.469c0.123-0.159,0.245-0.32,0.363-0.487C362.176,403.3,362.287,403.13,362.396,402.962z"></path><path style="fill:#4E4228;" d="M339.564,388.276l-0.664-0.47c-0.273-0.193-0.336-0.571-0.143-0.845c0.193-0.274,0.571-0.339,0.845-0.146l0.663,0.47c-0.125,0.159-0.246,0.322-0.363,0.486C339.783,387.939,339.673,388.107,339.564,388.276z"></path><path style="fill:#4E4228;" d="M364.244,392.737l0.801-0.136c0.33-0.058,0.643,0.165,0.7,0.495c0.056,0.329-0.167,0.644-0.496,0.701l-0.8,0.136C364.398,393.531,364.33,393.134,364.244,392.737z"></path><path style="fill:#4E4228;" d="M359.781,384.242l-0.469,0.661c-0.16-0.123-0.32-0.245-0.486-0.363c-0.166-0.117-0.334-0.228-0.504-0.339l0.469-0.661c0.193-0.273,0.572-0.338,0.846-0.144C359.91,383.589,359.976,383.967,359.781,384.242z"></path><path style="fill:#4E4228;" d="M353.859,408.884l0.139,0.8c0.057,0.331-0.166,0.643-0.496,0.699c-0.331,0.057-0.645-0.164-0.7-0.496l-0.138-0.799C353.066,409.037,353.465,408.971,353.859,408.884z"></path><path style="fill:#4E4228;" d="M337.715,398.499l-0.801,0.138c-0.328,0.056-0.643-0.166-0.699-0.496c-0.057-0.331,0.166-0.645,0.496-0.702l0.801-0.135C337.561,397.704,337.631,398.104,337.715,398.499z"></path><path style="fill:#4E4228;" d="M348.098,382.354l-0.136-0.798c-0.057-0.332,0.165-0.645,0.495-0.701c0.331-0.057,0.643,0.165,0.7,0.496l0.138,0.8C348.893,382.201,348.494,382.269,348.098,382.354z"></path><path style="fill:#4E4228;" d="M343.637,407.035l-0.468,0.662c-0.193,0.274-0.573,0.338-0.847,0.146c-0.273-0.195-0.338-0.573-0.145-0.846l0.471-0.664c0.158,0.125,0.319,0.246,0.485,0.363C343.3,406.814,343.468,406.927,343.637,407.035z"></path></g><g><path style="fill:none;stroke:#000000;stroke-linecap:round;stroke-linejoin:round;" d="M363.762,404.674c-4.997,7.056-14.774,8.726-21.836,3.725c-7.055-4.997-8.725-14.773-3.729-21.829c5.002-7.061,14.778-8.729,21.834-3.733C367.092,387.836,368.762,397.613,363.762,404.674z"></path><path style="fill:none;stroke:#000000;stroke-linecap:round;stroke-linejoin:round;" d="M339.902,387.775c-4.332,6.114-2.885,14.59,3.23,18.92c6.119,4.335,14.595,2.888,18.926-3.228c4.334-6.119,2.887-14.593-3.234-18.928C352.711,380.209,344.236,381.655,339.902,387.775z"></path></g></g><g><circle style="fill:#E7AD4E;stroke:#000000;stroke-linecap:round;stroke-linejoin:round;" cx="350.98" cy="395.619" r="6.56"></circle><path style="fill:#A37E37;" d="M346.039,397.841c-0.096-0.213-0.178-0.432-0.245-0.653l-0.886,0.151c0.091,0.322,0.211,0.638,0.352,0.942L346.039,397.841z M351.559,401.901l-0.148-0.879c-0.381,0.031-0.764,0.021-1.145-0.029l-0.238,0.861C350.537,401.933,351.051,401.948,351.559,401.901z M352.6,400.788l0.152,0.886c0.301-0.088,0.594-0.198,0.881-0.331l-0.441-0.778C352.998,400.651,352.801,400.724,352.6,400.788z M356.393,395.377c0.016,0.367-0.006,0.734-0.064,1.102l0.863,0.237c0.086-0.495,0.118-0.994,0.086-1.489L356.393,395.377z M351.965,390.292l0.24-0.863c-0.519-0.102-1.043-0.138-1.564-0.11l0.152,0.887C351.184,390.191,351.576,390.219,351.965,390.292z M356.003,393.586c0.079,0.196,0.148,0.392,0.204,0.593l0.881-0.15c-0.079-0.301-0.184-0.595-0.306-0.883L356.003,393.586z M349.592,390.379l-0.15-0.878c-0.322,0.08-0.638,0.188-0.947,0.321l0.442,0.779C349.152,390.513,349.368,390.438,349.592,390.379z M345.571,395.995c-0.028-0.405-0.007-0.813,0.056-1.216l-0.861-0.239c-0.092,0.533-0.119,1.072-0.074,1.604L345.571,395.995z M346.654,398.888l-0.779,0.44c0.307,0.42,0.668,0.806,1.083,1.149l0.515-0.728C347.164,399.488,346.89,399.199,346.654,398.888z M345.949,393.607c0.088-0.217,0.184-0.433,0.301-0.641l-0.728-0.516c-0.174,0.297-0.315,0.605-0.437,0.92L345.949,393.607z M347.871,391.183l-0.439-0.777c-0.438,0.296-0.846,0.646-1.205,1.057l0.734,0.521C347.238,391.678,347.543,391.411,347.871,391.183z M354.229,390.211c-0.28-0.167-0.567-0.312-0.861-0.434l-0.239,0.863c0.199,0.085,0.394,0.187,0.585,0.298L354.229,390.211z M348.48,400.427l-0.52,0.732c0.289,0.159,0.587,0.289,0.891,0.397l0.237-0.862C348.883,400.618,348.68,400.529,348.48,400.427z M355.424,392.521l0.777-0.439c-0.281-0.415-0.611-0.804-0.996-1.148l-0.521,0.734C354.965,391.928,355.211,392.214,355.424,392.521z M356.004,397.646c-0.076,0.189-0.162,0.375-0.26,0.558l0.733,0.52c0.155-0.271,0.279-0.554,0.388-0.837L356.004,397.646z M354.678,400.73c0.4-0.289,0.771-0.626,1.103-1.015l-0.729-0.517c-0.249,0.284-0.522,0.534-0.813,0.754L354.678,400.73z"></path></g><circle style="fill:#A37E37;" cx="351.31" cy="395.155" r="5.138"></circle><circle style="fill:#423D32;stroke:#000000;stroke-linecap:round;stroke-linejoin:round;" cx="350.98" cy="395.619" r="4.619"></circle><g><path style="fill:#423D32;stroke:#000000;stroke-linecap:round;stroke-linejoin:round;" d="M353.273,396.777c0,0,6.513-0.405,8.869,0.335c1.813,1.377,2.098,1.764,2.098,1.764l4.543-1.43l-4.401-2.838l-2.103,1.393c0,0-7.262-1.427-9.459-1.866C354.131,395.435,353.273,396.777,353.273,396.777z"></path><path style="fill:#423D32;stroke:#000000;stroke-linecap:round;stroke-linejoin:round;" d="M350.547,394.196c-0.889,0.207-2.021-0.688-2.097-1.764c-0.05-0.696,0.832-3.406,0.539-4.173c-0.646-0.27-1.3-0.919-1.103-1.988c0.199-1.065,2.033-3.394,1.966-4.742c0.413,1.78,1.449,3.072,2.079,3.891c0.628,0.816,0.221,2.572-0.588,2.928c0.455,1.718,1.395,2.754,1.02,4.07C352.051,393.523,351.473,393.982,350.547,394.196z"></path></g><g><g><circle style="fill:#423D32;stroke:#000000;stroke-linecap:round;stroke-linejoin:round;" cx="350.98" cy="395.619" r="3.223"></circle><path style="opacity:0.5;fill:#FFFFFF;" d="M351.586,398.371c0.018-0.057-0.217-0.874-0.217-0.874s0.574-0.053,1.16-1.014c0.573-0.941,0.321-1.538,0.321-1.538l0.88-0.027c0,0,0.436,0.959-0.406,2.244C352.598,398.275,351.586,398.371,351.586,398.371z"></path><path style="fill:#241F14;" d="M352.737,394.861c-0.136-0.313-0.35-0.598-0.649-0.808c-0.865-0.612-2.062-0.409-2.675,0.456c-0.612,0.866-0.407,2.063,0.457,2.676c0.413,0.292,0.901,0.393,1.364,0.33l0.182,1.004c-0.725,0.11-1.49-0.045-2.135-0.502c-1.324-0.938-1.638-2.772-0.699-4.097c0.938-1.324,2.771-1.639,4.096-0.7c0.568,0.402,0.939,0.977,1.115,1.598L352.737,394.861z"></path></g><g><circle style="fill:#423D32;stroke:#000000;stroke-linecap:round;stroke-linejoin:round;" cx="350.979" cy="395.619" r="0.91"></circle><circle style="fill:#241F14;" cx="350.838" cy="395.425" r="0.492"></circle></g></g></g><rect x="367.012" y="405.167" transform="matrix(0.5781 -0.816 0.816 0.5781 -177.5972 472.78)" style="fill:#E7AD4E;stroke:#000000;stroke-linecap:round;stroke-linejoin:round;" width="2.73" height="5.917"></rect><g><g><path style="fill:#E7AD4E;stroke:#000000;stroke-linecap:round;stroke-linejoin:round;" d="M386.578,416.277c0,0-4.419-2.944-7.145-7.756c-2.053,0.405-5.578,0.79-5.578,0.79l-1.555,1.407l-0.813,1.934c0,0,0.809,3.454,1.107,5.524c5.443,0.974,9.688,4.166,9.688,4.166l-0.021,5.934c0,0,1.877-0.156,3.182-0.162c13.477,5.641,64.934,40.321,68.032,43.165c3.097,2.844,1.228,7.189,0.503,9c11.787-0.108,21.076,5.54,21.076,5.54s0.93,1.31,1.113,3.02c2.334-0.672,8.522,1.482,8.522,1.482s-4.085-5.123-4.227-7.547c-1.674,0.395-3.218-0.051-3.218-0.051s-8.412-6.886-12.221-18.041c-1.468,1.284-4.947,4.489-8.657,2.512c-3.711-1.979-53.504-39.01-63.298-49.849c-0.428-1.233-0.902-3.057-0.902-3.057L386.578,416.277z M460.037,475.926c0,0,0.552,1.319-0.354,2.599l-1.412-0.193c0,0,0.221-0.836-0.668-1.156c-0.291-0.638,0.225-2.505,0.225-2.505s1.486,1.488,1.834,1.609C460.009,476.401,460.037,475.926,460.037,475.926z M464.433,477.242c0.631,0.509,1.32,2.422,1.32,2.422s-2.063,0.026-4.229-0.765c-0.327-0.85,1.366-2.191,1.366-2.191L464.433,477.242z M465.266,470.644c-0.906,1.28-2.336,1.197-2.336,1.197s0.44-0.185,0.211-0.472c-0.23-0.287-2.127-1.196-2.127-1.196s1.588-1.105,2.287-1.044c0.598,0.734,1.313,0.248,1.313,0.248L465.266,470.644z M466.229,472.257c1.465,1.78,2.125,3.734,2.125,3.734s-2.034-0.016-2.724-0.44l-1.017-1.278C464.614,474.272,465.318,472.23,466.229,472.257z"></path><polygon style="fill:#FFE38F;" points="393.105,425.826 379.902,416.475 376.76,418.988 383.83,422.479 "></polygon><path style="fill:#A37E37;" d="M461.608,476.945c0,0-0.813-3.054-2.759-4.679c4.061,1.265,5.705,0.693,5.705,0.693s-1.757,1.604,1.097,3.875C464.049,475.947,463.098,475.893,461.608,476.945z"></path><path style="fill:#FFE38F;" d="M475.313,485.412l-0.431-1.667l-9.043-6.652c0,0,2.421,2.706,1.477,4.391C471.6,482.781,475.313,485.412,475.313,485.412z"></path><path style="fill:#A37E37;" d="M474.883,483.745c0.189,0.257,1.641,4.508,1.641,4.508s1.498-1.417,2.074-1.879C477.193,485.38,474.883,483.745,474.883,483.745z"></path><path style="fill:#FFE38F;" d="M476.829,488.343c0,0,4.491-0.04,6.812,1.232c-2.486-1.39-4.902-3.226-4.902-3.226L476.829,488.343z"></path><path style="fill:#A37E37;" d="M457.399,470.99l-63.56-45.018l-6.964-9.021l4.917-2.217l0.966,3.534c0,0,23.766,19.806,30.192,24.729c6.426,4.923,33.695,24.856,33.695,24.856L457.399,470.99z"></path><polyline style="fill:#FFE38F;" points="385.649,427.607 385.861,427.572 393.626,426.318 406.027,435.226 392.232,430.908 "></polyline><path style="fill:#A37E37;" d="M382.464,427.86c0.503,0.079,11.331-1.825,11.331-1.825l-11.158-3.534L382.464,427.86z"></path><polygon style="fill:#A37E37;" points="372.355,411.038 371.887,412.748 372.771,417.93 376.76,418.988 379.512,416.941 "></polygon><path style="fill:#A37E37;" d="M465.972,479.882c0.185-0.306-0.266-1.2-1.327-2.85c1.385,0.67,3.744,2.671,2.343,4.65c-1.618-0.34-9.514-2.399-9.514-2.399s1.333-0.482,1.85-0.425C459.841,478.915,465.788,480.185,465.972,479.882z"></path><path style="fill:#A37E37;" d="M461.951,479.389c0,0-0.582-0.228-0.67-0.32c-0.089-0.095-0.209-0.799,0.373-1.533c0.737-0.778,1.162-1.158,1.162-1.158s-1.152,0.051-1.939,1.074c-0.785,1.022-0.209,1.957,0.018,2.119C461.121,479.73,461.951,479.389,461.951,479.389z"></path><path style="fill:#A37E37;" d="M468.618,476.146c-0.226,0.273-1.22,0.146-3.129-0.308c1.092,1.083,3.764,2.647,5.165,0.666c-0.857-1.412-5.421-8.177-5.421-8.177s-0.013,1.418,0.212,1.885C465.671,470.681,468.844,475.871,468.618,476.146z"></path><path style="fill:#A37E37;" d="M466.82,472.518c0,0-0.408-0.476-0.526-0.527c-0.117-0.053-0.822,0.068-1.321,0.861c-0.49,0.952-0.709,1.479-0.709,1.479s-0.334-1.104,0.37-2.185c0.705-1.081,1.778-0.848,2.005-0.686C466.865,471.62,466.82,472.518,466.82,472.518z"></path></g><g><circle style="fill:#E7AD4E;stroke:#000000;stroke-linecap:round;stroke-linejoin:round;" cx="376.688" cy="414.104" r="3.261"></circle><circle style="fill:#6E6E6E;stroke:#000000;stroke-linecap:round;stroke-linejoin:round;" cx="376.687" cy="414.104" r="1.857"></circle></g></g><g><path style="fill:#E7AD4E;stroke:#000000;stroke-linecap:round;stroke-linejoin:round;" d="M374.08,411.095l-0.834,1.178c0,0-1.998-0.198-3.324-0.031c-0.836-2.361-0.839-3.801-0.839-3.801s1.358-0.476,3.864-0.471C373.23,409.276,374.08,411.095,374.08,411.095z"></path><polygon style="fill:#A37E37;" points="370.228,411.853 371.525,410.107 369.844,408.546 369.407,409.599 "></polygon></g><g><g><rect x="310.205" y="345.291" transform="matrix(0.578 -0.816 0.816 0.578 -168.8035 411.0269)" style="fill:#512E0F;stroke:#000000;stroke-linecap:round;stroke-linejoin:round;" width="5.613" height="46.869"></rect><rect x="310.877" y="346.492" transform="matrix(0.5773 -0.8165 0.8165 0.5773 -168.6022 409.5391)" style="opacity:0.5;fill:#FFFFFF;" width="0.809" height="42.267"></rect><g><rect x="323.105" y="376.956" transform="matrix(0.5779 -0.8161 0.8161 0.5779 -170.8232 425.5393)" style="fill:#E7AD4E;stroke:#000000;stroke-linecap:round;stroke-linejoin:round;" width="5.765" height="1.922"></rect><rect x="325.563" y="377.424" transform="matrix(0.5777 -0.8162 0.8162 0.5777 -170.8507 425.6223)" style="fill:#FFE38F;" width="0.708" height="1.011"></rect></g><g><g><rect x="317.576" y="373.04" transform="matrix(0.5779 -0.8161 0.8161 0.5779 -169.9617 419.375)" style="fill:#E7AD4E;stroke:#000000;stroke-linecap:round;stroke-linejoin:round;" width="5.765" height="1.922"></rect><rect x="320.116" y="373.567" transform="matrix(0.579 -0.8153 0.8153 0.579 -170.0752 418.7643)" style="fill:#FFE38F;" width="0.707" height="1.012"></rect></g><g><rect x="315.101" y="371.287" transform="matrix(0.5779 -0.8161 0.8161 0.5779 -169.5743 416.6345)" style="fill:#E7AD4E;stroke:#000000;stroke-linecap:round;stroke-linejoin:round;" width="5.764" height="1.922"></rect><rect x="317.558" y="371.755" transform="matrix(0.5774 -0.8164 0.8164 0.5774 -169.5894 416.8547)" style="fill:#FFE38F;" width="0.707" height="1.011"></rect></g></g><rect x="326.488" y="379.353" transform="matrix(0.578 -0.816 0.816 0.578 -171.3564 429.2627)" style="fill:#E7AD4E;stroke:#000000;stroke-linecap:round;stroke-linejoin:round;" width="5.765" height="1.922"></rect><path style="fill:#E7AD4E;stroke:#000000;stroke-linecap:round;stroke-linejoin:round;" d="M294.196,351.684l-1.093,2.943l-2.414,2.007c0,0-3.928-1.976-8.99-1.038c-1.39-1.976-2.159-3.512,1.172-8.216c3.332-4.705,5.035-4.487,7.36-3.833C291.028,348.635,294.196,351.684,294.196,351.684z"></path><path style="fill:#A37E37;" d="M289.65,352.505l-6.766-4.619c0,0-3.355,4.563-1.066,6.928c1.809-0.453,6.948,0.336,7.892,0.755C289.691,354.195,289.65,352.505,289.65,352.505z"></path><path style="fill:#FFE38F;" d="M290.535,356.154l3.215-4.539c0,0-2.288-1.668-4.1,0.89C287.838,355.063,290.535,356.154,290.535,356.154z"></path><g><rect x="290.142" y="353.688" transform="matrix(0.5782 -0.8159 0.8159 0.5782 -165.744 389.0168)" style="fill:#E7AD4E;stroke:#000000;stroke-linecap:round;stroke-linejoin:round;" width="6.42" height="2.227"></rect><rect x="292.558" y="354.061" transform="matrix(0.5778 -0.8162 0.8162 0.5778 -165.7675 389.2047)" style="fill:#FFE38F;" width="1.462" height="1.517"></rect></g></g><g><path style="fill:#E7AD4E;stroke:#000000;stroke-linecap:round;stroke-linejoin:round;" d="M336.533,383.54l-1.742,2.46c0,0-5.557-1.21-5.828-1.526c-0.271-0.316-0.64-1.195-0.64-1.195l3.495-4.937c0,0,0.953,0.056,1.342,0.206C333.549,378.699,336.533,383.54,336.533,383.54z"></path><polygon style="fill:#A37E37;" points="334.799,384.282 330.344,381.127 331.862,378.979 333.203,379.186 335.783,383.244 "></polygon><rect x="331.441" y="380.753" transform="matrix(0.578 -0.816 0.816 0.578 -172.1952 432.5544)" style="fill:#FFE38F;" width="1.416" height="4.046"></rect></g></g><path style="fill:#FFE38F;" d="M393.519,426.119"></path></g></g></svg>