<svg xmlns="http://www.w3.org/2000/svg" width="500" height="500" version="1.1"><g id="x016"><g><g><g><g><g><path style="fill:#D9C794;stroke:#000000;stroke-linecap:round;stroke-linejoin:round;" d="M372.504,241.034c0,0,16.331-8.595,18.479-19.769c-4.297-3.438-11.604-5.586-11.604-5.586l-11.174,16.33"></path><path style="fill:#D9C794;stroke:#000000;stroke-linecap:round;stroke-linejoin:round;" d="M374.478,231.437c0,0,9.32-11.082,9.118-17.877c-5.505-9.056-12.381-8.625-12.381-8.625l-2.114,18.85"></path><path style="fill:#D9C794;stroke:#000000;stroke-linecap:round;stroke-linejoin:round;" d="M333.444,268.245c0,0-8.777-10.076-6.176-25.027c2.14-12.311,4.867-19.952,13.469-27.262c-3.001-4.985-6.399-9.342-8.596-10.738c13.733-6.988,44.152,8.101,47.133,21.423c3.095,13.851-10.727,40.954-26.979,46.154C345.145,272.795,333.444,268.245,333.444,268.245z"></path><path style="fill:#D9C794;stroke:#000000;stroke-linecap:round;stroke-linejoin:round;" d="M347.63,207.39c-1.327-1.444-8.429-6.431-6.902-7.042c6.104-2.443,13.251-2.104,13.251-2.104s3.793,5.223,3.465,11.21c0.681-5.447,3.332-11.411,3.332-11.411s8.745,1.609,11.75,5.035c3.617,4.953,5.932,14.987,1.389,22.185"></path><path style="fill:none;stroke:#000000;stroke-linecap:round;stroke-linejoin:round;" d="M340.654,216.26c0,0,3.66-3.41,11.146-4.425"></path></g><path style="fill:none;stroke:#000000;stroke-linecap:round;stroke-linejoin:round;" d="M344.439,222.509c0,0-12.102,12.129-4.785,31.599"></path><path style="fill:none;stroke:#000000;stroke-linecap:round;stroke-linejoin:round;" d="M353.563,257.733c0,0,10.107-3.79,13.027-24.275"></path><path style="fill:none;stroke:#000000;stroke-linecap:round;stroke-linejoin:round;" d="M368.636,205.793c0,0-0.738,8.171-5.614,12.072"></path></g><path style="fill:#6E6E6E;stroke:#000000;stroke-linecap:round;stroke-linejoin:round;" d="M349.22,279.289c0,0,2.571-3.25,2.751-5.519c0.179-2.268-0.373-9.248-7.733-11.948c-8.715-3.199-13.541,2.979-15.167,5.253c-1.626,2.276-1.304,5.513-1.304,5.513L349.22,279.289z"></path><g><path style="fill:#D9C794;stroke:#000000;stroke-linecap:round;stroke-linejoin:round;" d="M321.667,277.834c0,0,5.885-9.854,8.453-11.166c6.676-3.089,17.467-0.348,20.568,7.941c1.793,5.721,0.479,12.225,0.479,12.225L321.667,277.834z"></path><path style="fill:#B0916D;stroke:#000000;stroke-linecap:round;stroke-linejoin:round;" d="M325.272,283.708c0,0-4.56-4.658-3.046-6.204c1.515-1.548,3.335-1.399,3.335-1.399l3.031-0.949c3.034-0.232,9.101,0.732,9.101,0.732l6.376,2.839c2.429,1.567,4.253,3.681,4.861,4.563c0.608,0.885,3.038,3.166,1.829,4.261c-1.212,1.097-3.634,4.356-3.634,4.356l-8.19-1.197l-5.766-1.417c-1.521-1.315-3.646-3.336-3.646-3.336L325.272,283.708z"></path></g></g></g><g><g><path style="fill:#B0916D;stroke:#000000;stroke-linecap:round;stroke-linejoin:round;" d="M280.615,434.054L332.03,283.34c0,0,0.609-2.346,4.028-1.501c3.061,0.758,3.784,2.522,3.784,2.522l-53.04,151.954L280.615,434.054z"></path></g></g></g></g></svg>