<svg xmlns="http://www.w3.org/2000/svg" width="500" height="500" version="1.1"><g id="x9161"><g style="opacity:0.9;"><path style="fill:#6E6E6E;" d="M305.32,325.472l2.943-9.603c0,0-7.684-15.563-12.241-20.25c-0.628,10.86-0.179,21.931-0.179,21.931L305.32,325.472z"></path><path style="fill:#505050;" d="M305.32,325.472l-3.229-9.786l-6.248,1.864C295.844,317.55,303.695,324.915,305.32,325.472z"></path><path style="opacity:0.5;fill:#FFFFFF;" d="M296.309,296.213l5.907,19.107c0,0,4.163,0.243,5.507,0.324C304.95,307.772,296.309,296.213,296.309,296.213z"></path><path style="fill:#6E6E6E;" d="M311.751,339.384l-5.96-6.817c0,0-1.913,8.125-2.277,9.462c1.966,3.075,5.281,6.534,5.281,6.534L311.751,339.384z"></path><path style="fill:#505050;" d="M305.809,333.168l1.82,7.417c0,0-2.909,1.409-4.115,1.443C303.967,339.123,305.809,333.168,305.809,333.168z"></path><polygon style="opacity:0.5;fill:#FFFFFF;" points="311.751,339.384 307.629,340.585 308.779,348.021 "></polygon><path style="fill:#6E6E6E;" d="M314.533,361.711c0,0-2.838-5.46-3.528-6.164c-0.999,2.558-2.085,6.807-2.085,6.807s3.418,7.01,4.116,7.954C313.732,366.554,314.533,361.711,314.533,361.711z"></path><path style="fill:#505050;" d="M311.016,355.909l0.711,6.123c0,0-2.115,1.024-2.807,0.321C309.628,358.96,311.016,355.909,311.016,355.909z"></path><path style="fill:#6E6E6E;" d="M270.971,315.067l-0.253,2.898c0,0,1.771,3.322,1.829,5.368c-1.451,0.825-3.309,1.479-3.309,1.479l-0.741,2.251c0,0,2.931,1.663,3.196,1.594c1.596-0.467,4.713-1.639,5.324-1.354c0.611,0.283-0.031,1.266-0.031,1.266l-2.785,1.043c0,0,5.709,2.729,6.049,2.899c1.461-0.464,4.564-2.118,4.902-2.008c0.339,0.111,1.095,0.752,0.904,1.12c-0.191,0.365-3.635,1.85-3.635,1.85l7,3.354l0.316-0.671c0,0,3.629-2.032,3.834-1.915c0.205,0.112,0.68,0.34,0.422,0.71c-0.258,0.367-3.618,2.392-3.618,2.392l3.581,0.981c0,0,4.571-1.876,5.353-2.683c0.124-2.714-0.521-4.202-0.521-4.202l-4.136-1.626c0,0,0.627,3.174,0.23,3.364c-0.398,0.191-0.943-0.154-1.025-0.694c-0.082-0.537-0.777-3.711-0.777-3.711l-6.477-3.792c0,0,0.936,4.553,0.877,4.854c-0.059,0.306-0.65,0.683-1.072,0.031c-0.42-0.649-1.154-5.206-1.436-5.682c-0.282-0.473-4.758-2.272-5.859-3.325c0.262,2.161,0.825,5.458-0.387,5.251c-1.213-0.206-0.488-5.347-2.073-6.868C274.867,317.728,270.971,315.067,270.971,315.067z"></path><path style="fill:#6E6E6E;" d="M270.189,320.57c0,0,1.18,1.413,0.925,1.902c-0.254,0.49-1.85,0.955-2.267,0.426C269.209,321.442,270.189,320.57,270.189,320.57z"></path><path style="fill:#6E6E6E;" d="M284.924,341.232c0.271,0.113,1.557,0.559,1.689,0.524s0.672-1.135,0.656-1.705c-0.018-0.573-0.004-2.47,0.053-2.862c0.055-0.394-1.061-0.753-1.295-0.746c-0.235,0.006-1.068,2.529-1.09,2.953C284.916,339.817,284.924,341.232,284.924,341.232z"></path><path style="fill:#6E6E6E;" d="M289.311,337.614c0,0-0.541-0.165-0.64-0.103s-1.474,7.06-1.271,7.174c0.205,0.116,0.479,0.319,0.64,0.073C288.201,344.513,289.502,338.422,289.311,337.614z"></path><path style="fill:#6E6E6E;" d="M300.449,332.146c0,0,0.408,2.519,0.351,2.853c-0.058,0.331-0.294,1.424-0.987,1.804c-0.693,0.382-4.231,2.079-4.16,2.229c0.071,0.147,2.746,1.095,3.611,0.89c0.866-0.205,3.773-0.527,4.28-1.567c0.507-1.038,0.479-1.972,0.083-2.953c-0.396-0.983-1.18-2.557-1.42-2.73C301.969,332.493,300.65,332.11,300.449,332.146z"></path><path style="fill:#6E6E6E;" d="M303.463,330.854c0,0,0.26,0.866-0.138,1.028s-0.767-1.032-1.993-1.72s-6.439-3.701-6.65-4.027c-0.211-0.324-0.123-0.778-0.123-0.778s-1.104,2.44-1.305,2.476c-0.199,0.036-0.575-0.226-0.575-0.226s1.626-2.907,1.624-3.027c-0.005-0.119-0.042-1.443-0.049-1.653c-0.006-0.211-0.852-0.489-0.852-0.489s-2.264,4.041-2.465,4.046c-0.2,0.007-1.492-0.589-1.567-0.889c-0.075-0.299,3.126-5.569,3.358-5.667c0.231-0.099,0.766-0.173,0.861-0.326c0.097-0.152,0.666-0.109,0.771-0.021c0.103,0.089-0.015,1.837-0.079,1.93s1.803,0.942,1.977,1.148c0.174,0.207,0.984,3.947,1.784,3.774c0.799-0.175,0.799-1.349,0.278-1.997C299.512,325.124,303.135,329.899,303.463,330.854z"></path><path style="fill:#6E6E6E;" d="M307.68,348.234c0,0-0.686-0.554-0.986-0.514c-0.301,0.038-1.771,0.201-1.771,0.201s-0.85-2.778-1.193-3.069c-0.344-0.292-0.754-0.611-0.92-0.546s-0.993,1.625-0.99,1.714c0.002,0.092,0.176,3.85,0.451,4.053c0.273,0.205,3.401-0.578,3.774-0.438c0.372,0.14,0.685,0.522,0.685,0.522S307.822,348.501,307.68,348.234z"></path><path style="fill:#6E6E6E;" d="M308.79,349.527c0,0-0.548-0.376-0.849-0.308c-0.299,0.069-0.978,0.933-1.004,1.203c-0.025,0.272,0.107,1.412-0.543,2.124c0.221,0.686,0.307,3.667,0.045,3.915c-0.261,0.247-0.569,0.016-0.569,0.016c-0.007-0.241-0.15-1.774-0.394-2.067c-0.244-0.294-0.85,0.777-0.85,0.777s0.865,2.113,0.979,3.767s0.13,3.37,0.296,3.335s2.114-4.577,2.493-6.606C308.772,353.652,308.79,349.527,308.79,349.527z"></path><path style="fill:#6E6E6E;" d="M306.313,350.833c-0.03,0.121-2.54,3.776-2.54,3.776s-3.709,0.407-4.149,0.21c-0.441-0.2-0.402-1.163-0.603-1.129c-0.2,0.036-0.486,0.587-0.591,0.439c-0.105-0.149-0.164-2.194-0.365-2.249c-0.203-0.053-0.705-0.011-0.705-0.011s3.035-4.061,3.303-4.069c0.268-0.008,0.361,3.243,0.627,3.146c0.265-0.099,0.491-0.377,0.666-0.171c0.172,0.208,0.363,1.044,0.564,1.008C302.719,351.748,306.313,350.833,306.313,350.833z"></path><path style="fill:#6E6E6E;" d="M304.424,357.452c0,0,0.92,1.689,0.858,1.903c-0.062,0.213-0.454,0.523-0.454,0.523s-3.963-0.247-4.168-0.392c-0.205-0.146,1.324-1.784,1.324-1.784s2.094,0.57,2.223,0.388C304.336,357.907,304.424,357.452,304.424,357.452z"></path><path style="fill:#6E6E6E;" d="M302.501,355.881c0,0-2.901,2.853-3.297,3.076c-0.396,0.221-0.396,0.221-0.396,0.221s-3.54,0.465-3.771,0.591c-0.23,0.127-0.656,0.5-0.146,0.757c0.512,0.256,2.68-0.077,2.68-0.077s-1.917,2.103-2.969,2.855c-1.051,0.753-2.68,2.396-2.805,2.732c-0.123,0.332-1.017-0.424-1.02-0.514c-0.002-0.092-0.467-2.247-0.473-3.661c-0.547-0.378-1.455-0.501-1.307-1.138c0.15-0.637,2.486-3.354,2.816-3.484c-0.108,0.876-0.091,2.685,0.215,2.795c0.305,0.113,1-0.148,1-0.148s0.094-3.797,0.384-4.197c0.29-0.401,3.097-3.071,3.427-3.23c-0.137,1.088-0.293,3.864,0.347,3.936C297.826,356.466,302.501,355.881,302.501,355.881z"></path><polygon style="opacity:0.5;fill:#FFFFFF;" points="314.537,361.832 311.737,362.394 312.892,369.951 "></polygon><path style="fill:#6E6E6E;" d="M270.321,320.507c0,0,0.714,1.546,0.595,2.031c-0.121,0.484-1.592,0.588-1.93,0.536C269.224,321.984,270.321,320.507,270.321,320.507z"></path></g></g></svg>