<svg xmlns="http://www.w3.org/2000/svg" width="500" height="500" version="1.1"><g id="x9162"><g><g><path style="fill:#383F48;stroke:#000000;stroke-linecap:round;stroke-linejoin:round;" d="M336.786,373.25c0,0-2.884,2.476-1.724,5.373c-1.48-3.315-1.668-6.159-1.668-6.159s2.177-0.54,3.021-2.384C336.98,371.771,336.786,373.25,336.786,373.25z"></path><path style="fill:#383F48;stroke:#000000;stroke-linecap:round;stroke-linejoin:round;" d="M322.918,393.749c0,0,1.225-3.598,4.346-3.6c-3.627-0.14-6.338,0.743-6.338,0.743s0.31,2.222-1.088,3.691C321.618,394.479,322.918,393.749,322.918,393.749z"></path></g><path style="fill:#383F48;stroke:#000000;stroke-linecap:round;stroke-linejoin:round;" d="M480.572,485.591l-130.08-76.31l-5.384-3.643l-8.344-1.721l-5.776-1.946c0,0-3.161,0.88-3.686,1.431c-0.968-0.354-2.283-5.771-2.167-7.503c2.07,1.4,3.873,1.413,4.675,0.898c0.801-0.515,1.318-5.296,1.318-5.296l-5.932-4.616c0,0,0.855-3.496-1.045-4.479c-1.9-0.984-5.611-0.628-5.611-0.628s0.499-2.076-0.847-2.987c-1.347-0.91-2.321-0.362-2.802-0.989c-0.48-0.628,0.299-1.778-4.54-5.336c-8.97-6.596-21.686-12.784-21.686-12.784s0.896-1.658,1.77-2.728c0.667-1.209,1.873-2.656,1.873-2.656s10.475,9.501,19.935,15.373c5.103,3.167,5.88,2.016,6.641,2.229c0.762,0.213,0.615,1.321,1.961,2.231c1.346,0.911,3.088-0.325,3.088-0.325s1.051,3.578,2.671,4.976c1.62,1.398,4.546-0.697,4.546-0.697l6.492,3.789c0,0,4.245-2.26,4.426-3.194c0.18-0.935-0.503-2.604-2.574-4.005c1.566-0.752,7.084-1.546,7.771-0.778c-0.316,0.69,0.043,3.952,0.043,3.952l3.955,4.638l4.701,7.104l5.384,3.643L480.572,485.591"></path><rect x="304.238" y="350.158" transform="matrix(-0.561 0.8278 -0.8278 -0.561 778.8538 319.8597)" style="opacity:0.5;fill:#FFFFFF;" width="0.75" height="32.584"></rect><g><rect x="396.424" y="384.982" transform="matrix(-0.5602 0.8284 -0.8284 -0.5602 977.2153 340.6338)" style="fill:#6E6E6E;stroke:#000000;stroke-linecap:round;stroke-linejoin:round;" width="3.514" height="89.5"></rect><g><rect x="332.132" y="379.376" transform="matrix(-0.8607 0.5091 -0.5091 -0.8607 813.7822 540.3243)" style="fill:#6E6E6E;stroke:#000000;stroke-linecap:round;stroke-linejoin:round;" width="1.667" height="4.251"></rect><rect x="328.21" y="385.174" transform="matrix(0.1518 -0.9884 0.9884 0.1518 -103.7266 653.72)" style="fill:#6E6E6E;stroke:#000000;stroke-linecap:round;stroke-linejoin:round;" width="1.666" height="4.251"></rect></g></g><path style="fill:#B4B6C2;stroke:#000000;stroke-linecap:round;stroke-linejoin:round;" d="M487.303,490.143c0,0-22.824-11.669-39.123-21.438c-11.74-7.036-100.436-59.599-100.436-59.599s1.012,0.584,1.922-0.611s-0.219-2.059-1.07-2.435c-3.984,1.43-7.926-0.331-8.92-3.62s-0.252-7.213-2.367-8.846c-2.115-1.632-4.729-1.487-4.729-1.487l-0.75-1.716c0,0,2.643-1.229,6.504,1.986c5.545,4.617,1.896,6.715,4.398,9.113c2.504,2.398,4.523,1.048,5.775,0.386c1.588,4.495,9.555,9.079,9.555,9.079s3.309-0.578,4.832-0.151c1.521,0.426,2.762,1.566,2.84,3.832c2.549,2.329,12.016,3.804,13.213,4.413s2.16,1.864,2.242,3.528c1.563,1.26,12.07,5.953,12.07,5.953s36.67,25.212,38.1,25.776s2.729-0.166,2.729-0.166s0.195-1.479-0.861-2.595c-1.055-1.117-38.1-25.776-38.1-25.776s-8.266-8.007-10.016-8.99c-1.575,0.545-3.098,0.117-4.109-0.768c-1.01-0.885-5.9-9.123-9.012-10.624c-2.131,0.771-3.651,0.044-4.613-1.21c-0.963-1.255-1.657-4.542-1.657-4.542s-7.22-5.688-11.981-5.489c0.148-1.409,0.65-3.787-2.507-5.218c-3.157-1.432-3.747,2.735-10.095-0.693c-4.422-2.388-4.264-5.299-4.264-5.299l1.871,0.059c0,0,0.838,2.479,3.141,3.836c2.303,1.355,5.668-0.794,9.092-1.094c3.423-0.301,6.521,2.703,6.678,6.934c0.666,0.651,1.887,1.376,2.658,0.087c0.771-1.29-0.148-2.012-0.148-2.012s81.786,62.777,92.685,71.057C467.98,473.298,487.303,490.143,487.303,490.143"></path><path style="opacity:0.5;fill:#FFFFFF;" d="M394.857,424.234l-8.818-8.381l-3.952,0.042c0,0-4.659-8.283-9.354-11.158c-2.083,0.402-3.886,0.39-4.227-0.444c-0.341-0.835-1.839-4.866-1.839-4.866s-5.036-3.709-6.419-4.343c0.493-1.176,1.748-2.138,1.748-2.138s32.832,25.532,55.878,43.257c4.818,3.706,9.887,7.63,14.98,11.589l0.032,2.17L394.857,424.234z"></path><path style="fill:#FFFFFF;" d="M432.887,449.962l-0.032-2.17c24.862,19.327,50.327,39.518,50.327,39.518l-47.831-32.36l-1.358-4.238L432.887,449.962z"></path><polygon style="fill:#6E6E6E;stroke:#000000;stroke-linecap:round;stroke-linejoin:round;" points="332.466,395.848 336.346,390.111 317.711,377.504 319.68,374.593 338.315,387.201 341.501,382.492 344.814,384.734 341.629,389.442 360.402,402.144 358.434,405.055 339.659,392.354 335.779,398.089 "></polygon><path style="fill:#B4B6C2;stroke:#000000;stroke-linecap:round;stroke-linejoin:round;" d="M353.78,385.014l2.552,2.027c0,0-2.807,6.174-9.564,1.98c-5.369-3.33-5.557-6.399-5.557-6.399l2.178-1.545c0,0,0.964,3.595,4.537,5.786C351.499,389.054,353.78,385.014,353.78,385.014z"></path><path style="fill:#B4B6C2;stroke:#000000;stroke-linecap:round;stroke-linejoin:round;" d="M331.205,377.337c0,0-2.271,2.388-4.484,0.084c-2.216-2.303-0.381-3.526-0.381-3.526s-1.948-0.765-2.909-0.459c-0.255,1.639,0.569,4.51,3.067,6.099c2.497,1.59,6.004,0.793,6.179,0.609C332.851,379.959,331.205,377.337,331.205,377.337z"></path><g><path style="fill:#B4B6C2;stroke:#000000;stroke-linecap:round;stroke-linejoin:round;" d="M325.938,355.008c0,0,2.188,2.938,2.242,3.229c0.057,0.289-1.35,2.96,0.214,5.93c1.155,2.193,2.843,3.383,2.843,3.383s-0.209,1.72-0.244,1.848c-0.035,0.127-4.459-1.811-6.224-5.671C323.003,359.865,325.938,355.008,325.938,355.008z"></path><path style="fill:#B4B6C2;stroke:#000000;stroke-linecap:round;stroke-linejoin:round;" d="M324.453,350.584c0.217,0.348,1.969,2.89,2.057,3.354c-0.855,1.936-1.889,6.065,0.095,9.974s5.601,5.701,5.601,5.701l-0.018,2.403c0,0-6.266-1.221-9.104-6.914C320.244,359.407,324.453,350.584,324.453,350.584z"></path><path style="fill:#B4B6C2;stroke:#000000;stroke-linecap:round;stroke-linejoin:round;" d="M344.098,376.35l-5.26,0.97l0.466,0.314c0,0-0.521,2.666-3.401,0.566s-1.912-6.878-1.912-6.878s-3.236,1.885-7.461-4.142c-4.223-6.026-4.12-13.428-1.42-17.864c-0.59-2.587-5.081-10.002-9.717-13.969c0.983,3.231,1.09,5.416,0.96,9.177s-1.595,20.427,7.614,27.337c0.717-0.724,2.954-1.021,4.949,1.386c1.994,2.405,1.954,5.699,4.902,8.146c2.947,2.447,6.391,3.269,8.73,0.927C344.887,379.978,344.098,376.35,344.098,376.35z"></path><path style="opacity:0.5;fill:#FFFFFF;" d="M316.932,337.908c0,0,4.863,5.304,5.518,7.758c-2.313,3.566-4.471,15.085-2.584,19.581c-3.313-5.661-3.285-12.661-2.79-17.885C317.648,341.312,316.932,337.908,316.932,337.908z"></path><circle style="fill:#B4B6C2;stroke:#000000;stroke-linecap:round;stroke-linejoin:round;" cx="322.811" cy="349.07" r="0.834"></circle></g><path style="fill:#B4B6C2;stroke:#000000;stroke-linecap:round;stroke-linejoin:round;" d="M340.873,354.047c0,0-1.021,2.177-2.006,2.667c1.801,2.023,2.356,5.518,0.752,8.407c-1.603,2.889-2.61,1.554-2.61,1.554l0.103,3.641c0,0,5.033-4.241,5.699-7.011C343.477,360.536,340.862,353.988,340.873,354.047z"></path><path style="fill:#B4B6C2;stroke:#000000;stroke-linecap:round;stroke-linejoin:round;" d="M341.928,372.417c0,0-0.82-1.912-2.302-1.356c-1.483,0.557-3.761,3.996-3.722,5.13c-0.519-1.911-0.634-6.869,0.293-9.059c0.418,1.39,1.747,2.205,3.292,0.265c5.361-6.735,0.438-15.298,0.438-15.298s2.518-4.837,2.357-8.467C343.805,347.93,346.036,359.652,341.928,372.417z"></path><path style="fill:#B4B6C2;stroke:#000000;stroke-linecap:round;stroke-linejoin:round;" d="M340.047,405.313l2.832,1.614c0,0,4.686-4.901-1.721-9.615c-5.088-3.744-8.007-2.776-8.007-2.776l-0.624,2.597c0,0,3.695-0.443,7.059,2.059S340.047,405.313,340.047,405.313z"></path><path style="fill:#B4B6C2;stroke:#000000;stroke-linecap:round;stroke-linejoin:round;" d="M324.522,387.213c0,0,1.372-2.995-1.59-4.193c-2.962-1.2-3.415,0.959-3.415,0.959s-1.434-1.524-1.508-2.53c1.426-0.846,4.397-1.148,6.802,0.578s2.97,5.279,2.864,5.509C327.569,387.766,324.522,387.213,324.522,387.213z"></path><g><path style="fill:#B4B6C2;stroke:#000000;stroke-linecap:round;stroke-linejoin:round;" d="M301.837,390.63c0,0,3.542,0.938,3.831,0.881c0.289-0.056,2.246-2.354,5.584-2.007c2.465,0.256,4.197,1.381,4.197,1.381s1.52-0.834,1.624-0.914s-3.339-3.467-7.579-3.668C305.254,386.1,301.837,390.63,301.837,390.63z"></path><path style="fill:#B4B6C2;stroke:#000000;stroke-linecap:round;stroke-linejoin:round;" d="M297.178,390.898c0.404,0.072,3.416,0.752,3.879,0.662c1.478-1.516,4.928-4.011,9.293-3.623s7.375,3.077,7.375,3.077l2.225-0.909c0,0-3.464-5.362-9.805-5.879C303.803,383.709,297.178,390.898,297.178,390.898z"></path><path style="fill:#B4B6C2;stroke:#000000;stroke-linecap:round;stroke-linejoin:round;" d="M328.402,399.548l-1.057-5.242l0.466,0.314c0,0,2.281-1.475-0.739-3.367c-3.021-1.894-7.096,0.783-7.096,0.783s0.545-3.706-6.619-5.384c-7.166-1.679-13.998,1.17-17.111,5.326c-2.621,0.416-11.174-0.994-16.581-3.822c3.364-0.289,5.433-1.003,8.876-2.522c3.441-1.52,18.367-9.08,28.207-3.102c-0.405,0.934,0.152,3.121,3.127,4.077c2.975,0.957,6.018-0.306,9.385,1.521c3.368,1.826,5.411,4.717,4.107,7.76C332.064,398.932,328.402,399.548,328.402,399.548z"></path><path style="opacity:0.5;fill:#FFFFFF;" d="M282.685,388.527c0,0,6.732,2.543,9.253,2.236c2.451-3.474,12.34-9.762,17.216-9.683c-6.488-0.97-12.975,1.66-17.64,4.063C286.11,387.927,282.685,388.527,282.685,388.527z"></path><circle style="fill:#B4B6C2;stroke:#000000;stroke-linecap:round;stroke-linejoin:round;" cx="295.162" cy="389.938" r="0.833"></circle></g><path style="fill:#B4B6C2;stroke:#000000;stroke-linecap:round;stroke-linejoin:round;" d="M306.502,404.853c0,0,1.641-1.758,1.729-2.854c2.548,0.919,5.998,0.135,8.084-2.43c2.085-2.563,0.471-3.001,0.471-3.001l3.418-1.26c0,0-2.064,6.25-4.388,7.898S306.443,404.863,306.502,404.853z"></path><path style="fill:#B4B6C2;stroke:#000000;stroke-linecap:round;stroke-linejoin:round;" d="M297.359,410.037c4.555-0.188,16.266-2.478,26.586-11.04c0,0-2.08-0.05-2.115-1.632c-0.035-1.584,2.311-4.978,3.377-5.363c-1.967,0.229-6.612,1.967-8.3,3.643c1.446-0.13,2.697,0.801,1.471,2.956c-4.258,7.482-14.037,6.099-14.037,6.099S300.787,408.835,297.359,410.037"></path><g><g><circle style="fill:#E7AD4E;stroke:#000000;stroke-linecap:round;stroke-linejoin:round;" cx="349.583" cy="381.457" r="2.844"></circle><circle style="fill:#A37E37;stroke:#000000;stroke-linecap:round;stroke-linejoin:round;" cx="349.583" cy="381.457" r="1.437"></circle></g><g><circle style="fill:#E7AD4E;stroke:#000000;stroke-linecap:round;stroke-linejoin:round;" cx="335.184" cy="402.74" r="2.844"></circle><circle style="fill:#A37E37;stroke:#000000;stroke-linecap:round;stroke-linejoin:round;" cx="335.185" cy="402.74" r="1.437"></circle></g></g><path style="fill:#A9DEFF;stroke:#000000;stroke-linecap:round;stroke-linejoin:round;" d="M289.092,356.043l1.975-2.361c0,0,0.638,0.507,0.965,0.804c-0.598,1.331-1.646,2.434-1.646,2.434s-0.633,1.382-1.646,2.433c-0.397-0.193-1.105-0.597-1.105-0.597L289.092,356.043z"></path><path style="fill:#B4B6C2;stroke:#000000;stroke-linecap:round;stroke-linejoin:round;" d="M285.46,354.718l0.37-0.881l0.681-0.672c0,0,3.538-0.322,4.505,0.256c-1.119,1.432-1.924,2.622-1.924,2.622s-0.807,1.19-1.719,2.762C286.477,358.123,285.46,354.718,285.46,354.718z"></path><g><path style="fill:#E7AD4E;stroke:#000000;stroke-linecap:round;stroke-linejoin:round;" d="M280.285,345.189c0,0,1.139,0.771,3.521,2.382c-1.72,0.422-2.704,2.547-2.704,2.547l-2.02-1.365C279.082,348.753,280.83,346.615,280.285,345.189z"></path><path style="fill:#E7AD4E;stroke:#000000;stroke-linecap:round;stroke-linejoin:round;" d="M275.74,351.907c0,0,1.139,0.771,3.521,2.382c-0.248-1.753,1.358-3.458,1.358-3.458l-2.02-1.366C278.6,349.465,277.266,351.883,275.74,351.907z"></path></g><path style="fill:#E7AD4E;stroke:#000000;stroke-linecap:round;stroke-linejoin:round;" d="M274.071,347.794c1.418,0.582,5.567,2.591,7.083,3.584c3.504,2.295,4.93,4.091,4.93,4.091l0.439-1.163l0.915-0.839c0,0-2.196-0.656-5.63-3.055c-1.486-1.038-4.895-4.142-5.963-5.241L274.071,347.794z"></path></g></g></svg>