<svg xmlns="http://www.w3.org/2000/svg" width="500" height="500" version="1.1"><g id="x9163"><g><g><path style="fill:#4B4A49;stroke:#000000;stroke-linecap:round;stroke-linejoin:round;" d="M458.469,400.856l11.674-8.499l3.969,0.098l10.941-9.298l0.178,8.977l-10.45,19.262c-0.349-2.93-2.899-6.886-7.667-5.328c-5.688,1.859-3.026,10.367-3.026,10.367l-5.761,2.369L458.469,400.856z"></path><path style="fill:#2D2C2B;" d="M484.352,387.606l-8.243,6.222l-6.065,0.622l-8.555,5.91l2.488,5.289c0,0,3.889-1.556,7.466-0.156s3.421,4.51,3.421,4.51l10.367-17.869L484.352,387.606z"></path></g><path style="fill:#2D2C2B;stroke:#000000;stroke-linecap:round;stroke-linejoin:round;" d="M458.71,413.186l-0.02,14.188l-4.997,2.968l-2.176,15.739l22.291-21.195l3.119-6.326l-12.553,2.438c0,0-1.1-13.561-1.289-15.443C462.897,403.671,458.71,413.186,458.71,413.186z"></path><path style="fill:#4B4A49;stroke:#000000;stroke-linecap:round;stroke-linejoin:round;" d="M441.217,462.269c0,0,3.299,5.716,8.383,6.692c-2.539,2.024-5.252,4.454-5.252,4.454s-3.291,0.985-4.041,1.622c-1.039,0.751-0.285,3.466-0.285,3.466l-8.552,7.092l-0.155-13.842l-3.733-6.223L441.217,462.269z"></path><path style="fill:#2D2C2B;" d="M446.207,470.585c0,0-9.449-5.249-10.266-6.416c-2.8,1.283-6.766,3.149-6.766,3.149l2.799,4.316l-0.116,12.948l6.065-5.016c0,0-1.516-2.916-0.116-5.716s6.3-0.7,6.3-0.7L446.207,470.585z"></path><g><path style="fill:#4B4A49;stroke:#000000;stroke-linecap:round;stroke-linejoin:round;" d="M403.162,418.092l65.791,2.566c0,0-4.837,49.693-65.791,49.693c-60.955,0-65.792-49.693-65.792-49.693L403.162,418.092z"></path><path style="fill:#4B4A49;stroke:#000000;stroke-linecap:round;stroke-linejoin:round;" d="M346.336,401.818c0.588,0.674,1.443,1.108,2.408,1.108c1.771,0,3.207-1.437,3.207-3.208c0-0.701-0.23-1.344-0.612-1.872c12.14-8.417,30.835-13.817,51.823-13.817c3.307,0,6.554,0.139,9.73,0.396c-0.023,0.157-0.049,0.314-0.049,0.479c0,1.771,1.437,3.208,3.208,3.208c1.698,0,3.073-1.323,3.187-2.991c28.822,3.973,50.182,18.373,50.182,35.537c0,20.229-29.665,36.629-66.258,36.629c-36.594,0-66.259-16.4-66.259-36.629C336.903,413.768,340.352,407.323,346.336,401.818z"></path><path style="opacity:0.5;fill:#FFFFFF;" d="M452.156,398.495c0,0-10.422-7.466-32.818-11.665c0.311-0.313,0.311-1.09,0.311-1.09s16.643,1.399,33.44,11.51C453.089,397.717,452.156,398.495,452.156,398.495z"></path><path style="fill:#2D2C2B;" d="M355.957,396.005c0,0,11.12,18.51,17.809,30.719c-4.434,2.1,11.665,29.163,11.665,29.163s-30.563-6.532-39.661-17.964c-8.866-9.333-8.244-24.81,0.389-34.142c2.1,0.934,3.93,0.476,5.599-0.777c2.489-1.866,0.7-4.977,0.7-4.977L355.957,396.005z"></path><path style="fill:#2D2C2B;" d="M456.122,408.06c-0.233,0.7-9.799,16.098-22.164,21.23c0.233,8.166-6.532,23.797-6.532,23.797s34.295-7.932,39.662-23.797c5.365-15.864-4.434-22.863-4.434-22.863L456.122,408.06z"></path><g><path style="fill:#2D2C2B;" d="M403.162,408.298c25.683,0,46.577,10.79,46.577,24.052c0,13.263-20.895,24.053-46.577,24.053c-25.684,0-46.578-10.79-46.578-24.053C356.584,419.088,377.479,408.298,403.162,408.298z M354.718,432.35c0,14.292,21.731,25.92,48.444,25.92c26.712,0,48.443-11.628,48.443-25.92c0-14.291-21.731-25.918-48.443-25.918C376.449,406.432,354.718,418.059,354.718,432.35z"></path></g><g><path style="fill:#2D2C2B;" d="M403.162,394.984c31.516,0,57.156,13.975,57.156,31.15c0,17.178-25.641,31.152-57.156,31.152c-15.361,0-29.789-3.297-40.625-9.281c-10.66-5.889-16.531-13.656-16.531-21.871C346.006,408.959,371.646,394.984,403.162,394.984z M344.14,426.135c0,8.925,6.214,17.272,17.495,23.504c11.108,6.136,25.855,9.515,41.527,9.515c32.545,0,59.021-14.813,59.021-33.019s-26.477-33.017-59.021-33.017S344.14,407.929,344.14,426.135z"></path></g><ellipse style="fill:#6E6E6E;" cx="403.162" cy="430.829" rx="54.593" ry="31.891"></ellipse><ellipse style="fill:#505050;" cx="403.395" cy="438.855" rx="32.429" ry="18.432"></ellipse><ellipse style="opacity:0.3;" cx="403.854" cy="436.855" rx="45.979" ry="26.133"></ellipse><ellipse style="opacity:0.2;fill:none;stroke:#000000;stroke-linecap:round;stroke-linejoin:round;" cx="403.161" cy="432.35" rx="47.511" ry="24.986"></ellipse><g style="opacity:0.6;"><path style="fill:#FFFFFF;" d="M456.355,431.156c0,0-0.934-17.73-23.797-25.663c-22.864-7.933-60.66-8.399-77.457,13.998c-8.399,10.732-0.934,19.598-0.934,19.598s6.543,2.28,7.471-3.293c0.928-5.572-6.537-18.171,8.395-24.237c14.931-6.065,45.759-8.945,61.125-2.799C452.156,417.158,456.355,431.156,456.355,431.156z"></path><path style="fill:#FFFFFF;" d="M405.512,411.542c12.645,2.006,16.396,2.865,16.422,4.011c0.025,1.146-10.207,2.579-8.322,3.438c1.887,0.859,4.705,1.719,4.705,1.719s-10.643,4.011-10.604,5.73c0.039,1.719,22.092,7.162,29.493,4.297c7.401-2.864-8.611-9.454-4.885-9.74c3.727-0.287,9.747-2.293,8.782-3.725C440.138,415.84,418.507,408.391,405.512,411.542z"></path></g><ellipse style="fill:none;stroke:#000000;stroke-linecap:round;stroke-linejoin:round;" cx="403.162" cy="426.135" rx="58.089" ry="32.085"></ellipse><g><path style="fill:#FFFF7A;" d="M403.162,393.585c32.287,0,58.556,14.603,58.556,32.55c0,7.532-4.639,14.469-12.394,19.99l-0.085-1.026c7.245-5.288,11.545-11.855,11.545-18.964c0-17.434-25.849-31.617-57.622-31.617s-57.623,14.184-57.623,31.617c0,1.358,0.172,2.701,0.479,4.028l-0.888,0.308c-0.338-1.427-0.525-2.872-0.525-4.336C344.605,408.188,370.874,393.585,403.162,393.585z"></path><polygon style="fill:#FFFF7A;" points="355.918,407.359 353.935,408.992 357.084,413.309 359.184,411.792 "></polygon></g><polygon style="fill:#FFFF7A;" points="415.293,395.228 414.594,399.66 413.193,399.194 413.66,394.761 "></polygon><polygon points="416.344,388.812 414.711,388.462 413.66,393.828 415.76,394.178 "></polygon></g><g><path style="fill:#4B4A49;stroke:#000000;stroke-linecap:round;stroke-linejoin:round;" d="M329.834,374.456l0.1-0.297l-0.029-0.085l0.063-0.011l5.226-15.543l-2.255-3.841c0.688-2.344,1.364-4.252,1.943-5.18c1.289,1.496,5.225,6.906,9.333,11.354c0.649,0.703,1.556-0.621,2.432-0.128c11.228,12.127,26.809,28.747,26.809,28.747l-14.31,3.889c0,0-14.932-17.886-16.486-19.131c-2.445-0.383-5.377-0.051-7.729,0.386c-0.359,3.03,0.574,4.901,0.574,4.901l-3.578,0.313l-1.693-4.823L329.834,374.456z"></path><polygon style="fill:#2D2C2B;" points="334.881,373.608 332.704,374.853 331.926,379.83 330.232,375.007 335.659,358.678 333.326,354.944 334.104,352.768 342.503,362.254 344.836,362.1 363.655,383.874 363.033,390.251 358.057,390.563 342.814,373.298 "></polygon></g><path style="fill:#2D2C2B;stroke:#000000;stroke-linecap:round;stroke-linejoin:round;" d="M363.812,382.784l-1.089,5.91c0,0-4.044,2.178-5.91,2.178c0.934,3.11,1.244,4.044,1.244,4.044s9.332-3.267,13.842-4.355C369.41,385.895,363.812,382.784,363.812,382.784z"></path><g><path style="fill:#4B4A49;stroke:#000000;stroke-linecap:round;stroke-linejoin:round;" d="M380.454,377.185c0,0-5.444-3.111-13.376-5.288c-6.066,7.31-5.756,11.976-5.756,11.976s19.442,16.332,24.42,22.865C389.785,393.05,380.454,377.185,380.454,377.185z"></path><path style="fill:#2D2C2B;" d="M385.897,405.649c0,0-11.043-26.909-18.665-32.663c-1.711,1.866-5.6,8.243-5.288,10.732C370.033,388.385,385.897,405.649,385.897,405.649z"></path></g><ellipse style="fill:#4B4A49;stroke:#000000;stroke-linecap:round;stroke-linejoin:round;" cx="357.201" cy="388.538" rx="3.344" ry="4.512"></ellipse><ellipse style="fill:#2D2C2B;" cx="356.424" cy="388.631" rx="2.1" ry="3.485"></ellipse><path style="fill:#4B4A49;stroke:#000000;stroke-linecap:round;stroke-linejoin:round;" d="M381.201,455.218c-0.367,0.492-0.592,1.097-0.592,1.758c0,1.632,1.323,2.955,2.955,2.955c1.633,0,2.955-1.323,2.955-2.955c0-0.31-0.061-0.603-0.149-0.883c5.363,0.774,10.987,1.194,16.792,1.194c29.062,0,53.736-10.349,62.669-24.74c-5.638,14.701-21.104,37.805-62.669,37.805s-57.032-23.104-62.67-37.805C347.059,443.125,362.135,451.513,381.201,455.218z"></path><path style="fill:#2D2C2B;" d="M386.908,456.664c0,0-0.078,1.167-0.156,1.478c3.889,0.467,26.675,3.811,47.283-3.267c0.312-0.155,0.078-1.399,0.078-1.399s-10.42,3.236-23.952,4.092S386.908,456.664,386.908,456.664z"></path><path style="fill:#2D2C2B;" d="M380.298,455.576c0,0-0.078,0.233-0.155,1.011c-3.578-0.233-25.119-6.067-34.219-15.088c0.545-0.154,1.479-0.311,1.479-0.311S361.09,452.076,380.298,455.576z"></path><g><path style="fill:#2D2C2B;" d="M453.884,449.944c-0.024,0.014-0.046,0.028-0.068,0.043C453.838,449.973,453.859,449.958,453.884,449.944z"></path><path style="fill:#2D2C2B;" d="M453.578,450.207c0.064-0.087,0.146-0.158,0.237-0.22C453.727,450.047,453.644,450.116,453.578,450.207L453.578,450.207z"></path><path style="fill:#2D2C2B;" d="M348.365,447.827c0.002,0.003,0.021,0.02,0.031,0.029c0.001,0.001,0.001,0.002,0.002,0.003L348.365,447.827z"></path><path style="fill:#2D2C2B;" d="M453.938,449.91l-0.031,0.025c-0.008,0.004-0.016,0.005-0.022,0.009C453.902,449.934,453.918,449.919,453.938,449.91z"></path><path style="fill:#2D2C2B;" d="M349.672,446.494C349.672,446.494,349.672,446.494,349.672,446.494c0.18,0.167,18.339,16.733,49.016,17.948c42.723,1.691,54.762-14.061,54.891-14.234l0.328-0.272c0.303-0.156,0.677-0.15,0.973,0.063c0.418,0.302,0.513,0.885,0.211,1.303c-0.494,0.685-12.59,16.744-56.476,15.007c-23.759-0.941-40.071-10.79-46.798-15.712l-3.323-4.155C348.848,446.181,349.338,446.184,349.672,446.494z"></path><polygon style="fill:#2D2C2B;" points="453.576,450.209 453.578,450.207 453.578,450.208 "></polygon><path style="fill:#2D2C2B;" d="M453.578,450.207c0.065-0.091,0.148-0.16,0.237-0.22c0.022-0.015,0.044-0.029,0.068-0.043c0.007-0.004,0.015-0.005,0.022-0.009L453.578,450.207L453.578,450.207z"></path></g><path style="fill:none;stroke:#000000;stroke-linecap:round;stroke-linejoin:round;" d="M454.333,450.755c0,0-11.793,16.358-55.682,14.62c-31.419-1.244-49.616-18.198-49.616-18.198"></path><g><g><path style="fill:#4B4A49;stroke:#000000;stroke-linecap:round;stroke-linejoin:round;" d="M339.041,430.703l-13.492-5.146l-3.804,1.133l-12.994-6.11l2.178,8.71l15.129,15.855c-0.431-2.919,0.995-7.405,6.005-7.15c5.977,0.305,5.635,9.213,5.635,9.213l5.738,1.097L339.041,430.703z"></path><path style="fill:#2D2C2B;" d="M333.521,430.923c-0.351-0.232-12.015-3.849-12.015-3.849l-2.45,0.933l-8.749-3.383l0.816,4.316l14.349,14.932c0,0-1.05-3.733,3.966-5.949c5.016-2.217,5.6,0,5.6,0L333.521,430.923z"></path></g><g><path style="fill:#4B4A49;stroke:#000000;stroke-linecap:round;stroke-linejoin:round;" d="M342.036,442.666l3.733,13.688l5.599,1.556l6.222,14.62l-27.063-14.62l-4.667-5.288l12.909-0.351c0,0-2.645-13.959-2.955-15.825S342.036,442.666,342.036,442.666z"></path><path style="fill:#2D2C2B;" d="M356.501,471.519c0-0.351-4.899-11.433-4.899-11.433l-5.6-1.283l-4.199-15.164l-4.899-3.033l2.566,13.998l-10.966,0.233l2.217,2.683L356.501,471.519z"></path></g><path style="fill:#4B4A49;stroke:#000000;stroke-linecap:round;stroke-linejoin:round;" d="M340.285,423.509c0,0,16.502,9.026,21.354,12.287c-12.76,3.76-19.603,8.115-19.603,8.115l-12.837-8.547C332.119,430.718,340.285,423.509,340.285,423.509z"></path><path style="fill:#2D2C2B;" d="M359.768,435.59c-0.467-0.117-13.882-3.384-18.432-3.267c-7.115,1.75-11.314,2.916-11.314,2.916s10.381,6.649,12.015,7.933C345.535,440.955,359.768,435.59,359.768,435.59z"></path></g><g><g><path style="fill:#4B4A49;stroke:#000000;stroke-linecap:round;stroke-linejoin:round;" d="M455.385,394.238c0,0-13.563,13.032-17.393,17.45c13.299,0.287,21.044,2.699,21.044,2.699l10.151-11.609C465.154,399.059,455.385,394.238,455.385,394.238z"></path></g><path style="fill:#2D2C2B;" d="M458.71,413.186l9.466-10.647c0,0-15.554-0.622-27.996,7.777C450.445,411.248,458.71,413.186,458.71,413.186z"></path></g><path style="fill:#4B4A49;stroke:#000000;stroke-linecap:round;stroke-linejoin:round;" d="M445.002,461.486c0,0,8.709-7.154,8.242-9.954c-1.867-4.665-8.709-12.133-10.576-11.977c-8.398,6.066-10.888,10.11-13.065,14.466c3.423-1.089,5.134-1.4,5.134-1.4s-1.867,11.198-6.066,13.998C436.603,465.686,445.002,461.486,445.002,461.486z"></path><path style="fill:#2D2C2B;" d="M443.057,440.605c0,0,2.684,5.133,2.8,8.982c-3.032,4.199-6.3,13.648-6.3,13.648s-7.582,2.449-9.215,2.799c1.982-2.683,4.899-10.615,4.783-13.531c-1.634,0-4.55,0.934-4.55,0.934S437.457,443.521,443.057,440.605z"></path><g><path style="fill:#4B4A49;stroke:#000000;stroke-linecap:round;stroke-linejoin:round;" d="M442.608,451.373c1.766-2.561,6.979-3.651,6.979-3.651l27.871,18.543l-2.16,2.364l-4.634,14.478c0,0-7.154-10.576-13.998-17.109c-4.137-3.533-10.498-4.99-13.738-0.952c-3.441,0.498-3.441,0.498-3.441,0.498L442.608,451.373z"></path><path style="fill:#2D2C2B;" d="M476.069,466.619c0,0.35-1.283,1.633-1.283,1.633l-4.315,13.531c0,0-8.75-12.481-13.766-16.564c0.147-0.344-8.982-6.532-16.447-0.35c0.933-5.016,2.332-10.499,3.032-13.415c1.05-1.167,3.149-1.866,3.149-1.866s13.189,8.39,13.299,8.165c0.393-0.807-0.816,2.8-0.816,2.8L476.069,466.619z"></path></g><polygon points="351.742,401.294 356.268,407.359 353.935,408.992 349.969,402.927 "></polygon><g><g><ellipse style="fill:#4B4A49;stroke:#000000;stroke-linecap:round;stroke-linejoin:round;" cx="444.573" cy="458.92" rx="4.666" ry="5.016"></ellipse></g><g><ellipse style="fill:#2D2C2B;" cx="443.59" cy="458.92" rx="3.402" ry="3.499"></ellipse></g></g></g></g></svg>