<svg xmlns="http://www.w3.org/2000/svg" width="500" height="500" version="1.1"><g id="x9164"><g><g><path style="fill:#4C4D49;stroke:#000000;stroke-linecap:round;stroke-linejoin:round;" d="M331.857,261.421c0,0,0.043-15.291,3.642-21.394c3.091-3.853,8.241-11.041,8.814-12.779c0.573-1.739,6.136-37.631-0.323-44.665c-8.77,28.508-28.265,51.549-28.265,51.549s-4.964,18.115-4.688,23.585c0.273,5.473,0.389,16.693,0.389,16.693s-6.207,16.157-6.92,21.036c4.305,5.81,11.022,4.133,11.022,4.133L331.857,261.421z"></path><path style="fill:#28272D;" d="M322.008,272.279l-6.318-36.903c0,0-4.929,20.179-4.58,22.904c0.348,2.725,0.998,16.544,0.998,16.544s-4.692,9.122-4.684,16.686c5.03,1.433,9.887,1.504,9.887,1.504L322.008,272.279z"></path></g><path style="fill:#4C4D49;stroke:#000000;stroke-linecap:round;stroke-linejoin:round;" d="M333.926,276.434c0,0-1.062-15.35-1.317-16.712c-5.038,5.035-15.196,13.784-15.928,16.233c-0.731,2.448-4.371,18.806-4.371,18.806l7.091,2.511L333.926,276.434z"></path><g><path style="fill:#4C4D49;stroke:#000000;stroke-linecap:round;stroke-linejoin:round;" d="M345.795,357.254c0,0-3.029,21.155-7.279,31.032c-4.665,7.546-11.779,17.717-11.898,18.249c-0.119,0.533-4.664,9.225-7.154,10.35c0.594-2.667,0.297-5.531,0.297-5.531l-2.707,4.622c-1.087,0.689-3.279,1.321-3.279,1.321s-7.625-2.63-11.1-7.134c0.73-4.128,0.751-5.058,0.751-5.058s-1.163-3.991-4.817-5.177c-4.068-5.196-4.814-20.29-4.814-20.29s0.773-5.984,1.326-6.796c0.553-0.808,2.983-2.507,2.983-2.507s1.681-6.717,1.603-8.039c-2.725-2.847-9.895-5.001-10.133-5.614c-0.236-0.612,4.429-11.516,6.405-15.366c-2.153,0.454-3.239-0.534-3.239-0.534s-0.435-1.402-0.552-2.549c-0.119-1.146,1.03-11.339,2.038-13.354c4.387-2.941,6.007-5.194,6.007-5.194s-3.812-5.512-3.534-6.757s2.61-6.696,2.61-6.696s3.263-10.468,3.421-11.179s3.221-1.896,4.367-2.015c1.146-0.118,12.306,2.553,12.306,2.553s11.286-19.692,17.884-22.516c-2,18.214,2.657,32.498,2.657,32.498l3.22,1.462l2.049,17.622c0,0,0.869,2.806,1.066,3.596C346.592,330.189,345.795,357.254,345.795,357.254z"></path><path style="opacity:0.5;fill:#FFFFFF;" d="M343.947,355.922c0,0-2.199,23.611-6.586,32.215c2.836-21.136-6.404-27.997-6.404-27.997S336.324,352.955,343.947,355.922z"></path><path style="fill:#28272D;" d="M293.283,330.036c0,0-1.13,8.383-0.322,9.7c1.229,0.445,3.879,1.172,3.879,1.172s-5.91,12.368-6.482,15.389c2.278,0.882,9.051,4.419,9.859,5.734c-0.164,2.329-1.871,8.69-1.871,8.69s-2.252,1.281-2.66,1.974c-0.408,0.691-1.121,3.162-1.121,3.162s0.076,21.972,1.229,23.492c1.883,1.394,2.688,0.189,2.688,0.189s4.288,0.481,5.394,5.239c0.065,1.626-0.544,5.184-0.544,5.184s3.152,3.823,5.993,4.383c2.349-5.236,4.37-5.814,4.37-5.814l11.572-18.633c0,0-9.029-17.558-8.8-18.262c0.229-0.705,5.433-15.822,5.829-16.335S293.283,330.036,293.283,330.036z"></path></g><g><path style="fill:#4C4D49;stroke:#000000;stroke-linecap:round;stroke-linejoin:round;" d="M324.376,294.951l-4.073-3.526l-11.491-0.448c0,0-1.075-0.076-1.968,2.383c-0.894,2.458-5.164,27.365-4.008,31.406c1.156,4.042,4.972,6.11,4.972,6.11l11.304-7.127L324.376,294.951z"></path><path style="fill:#28272D;" d="M308.253,295.078c-1.082,0.804-5.023,21.522-4.401,28.048c1.923,3.376,6.82,6.69,6.82,6.69l6.639-36.803C317.311,293.014,310.248,293.599,308.253,295.078z"></path></g><g><ellipse transform="matrix(-0.9975 -0.0701 0.0701 -0.9975 610.896 688.3425)" style="fill:#706B6A;stroke:#000000;stroke-linecap:round;stroke-linejoin:round;" cx="317.529" cy="333.45" rx="11.135" ry="13.56"></ellipse><ellipse transform="matrix(-0.9975 -0.0701 0.0701 -0.9975 610.8918 688.3469)" style="fill:#4C4D49;stroke:#000000;stroke-linecap:round;stroke-linejoin:round;" cx="317.529" cy="333.45" rx="8.515" ry="10.37"></ellipse><ellipse transform="matrix(-0.9975 -0.0701 0.0701 -0.9975 610.8961 688.3442)" style="fill:#706B6A;stroke:#000000;stroke-linecap:round;stroke-linejoin:round;" cx="317.529" cy="333.45" rx="4.304" ry="5.24"></ellipse><path style="fill:#955134;" d="M310.195,332.935c-0.346,4.932,2.656,9.16,6.706,9.444c4.05,0.285,7.614-3.482,7.96-8.414c0.347-4.931-2.654-9.16-6.705-9.445C314.106,324.235,310.543,328.004,310.195,332.935z M311.125,333c0.303-4.307,3.415-7.599,6.952-7.35c3.537,0.248,6.159,3.943,5.856,8.25s-3.416,7.598-6.953,7.349C313.443,341.001,310.822,337.307,311.125,333z"></path></g><g><path style="fill:#6E6E6E;stroke:#000000;stroke-linecap:round;stroke-linejoin:round;" d="M341.188,305.291c0,0-2.13-9.43-0.469-15.777c1.66-6.348,2.16-7.479,2.16-7.479s-1.129-9.456-3.709-11.275c-3.609,1.687-12.858,15.301-15.784,22.858c-2.927,7.56-5.485,22.414-5.485,22.414s5.637,1.502,8.479,4.374c2.844,2.871,4.904,6.899,4.904,6.899S333.783,315.087,341.188,305.291z"></path><path style="opacity:0.5;fill:#FFFFFF;" d="M338.975,271.671c0,0,3.576,5.473,3.096,9.761c-1.48,3.137-2.739,10.789-2.777,11.327c-2.105-5.909-2.176-12.575-5.237-15.131C334.719,275.873,338.246,271.799,338.975,271.671z"></path><path style="fill:#505050;" d="M331.052,325.488c0,0-2.001-4.821-5.638-6.878s-6.965-3.37-6.965-3.37s3.003-14.554,4.547-18.585c4.436-4.19,6.484-2.605,7.33-1.826c0.846,0.78,7.613,12.057,6.07,16.091C334.328,314.735,331.052,325.488,331.052,325.488z"></path><path style="fill:#505050;stroke:#000000;stroke-linecap:round;stroke-linejoin:round;" d="M317.744,351.945c0,0-2.176,6.978-5.652,9.189c-2.014-3.807-7.027-17.61-12.886-24.262c-5.858-6.654-16.063-13.898-17.3-16.166c-1.238-2.265-2.5-8.89-1.498-11.154c2.91-0.225,20.857,9.12,24.504,14.532c-0.528,4.61-3.242,10.102,4.168,20.956C314.503,352.982,317.744,351.945,317.744,351.945z"></path><path style="fill:#505050;stroke:#000000;stroke-linecap:round;stroke-linejoin:round;" d="M310.687,304.847c0,0,0.644,4.374-0.345,7.139c-0.988,2.766-4.098,4.438-6.033,3.633s-13.242-20.984-13.609-23.802c-0.368-2.82,0.661-7.441,1.332-7.665c0.672-0.224,1.857,0.041,1.857,0.041S310.016,302.831,310.687,304.847z"></path><path style="fill:#505050;stroke:#000000;stroke-linecap:round;stroke-linejoin:round;" d="M312.758,290.506c0,0,0.711,3.516-0.305,5.283c-1.014,1.763-3.082,2.671-3.713,2.155c-0.633-0.512-6.305-13.592-6.489-15.002c-0.184-1.407,0.673-5.82,1.28-6.307c0.605-0.487,1.554-0.276,1.554-0.276S312.363,288.926,312.758,290.506z"></path><path style="fill:#6E6E6E;stroke:#000000;stroke-linecap:round;stroke-linejoin:round;" d="M344.029,315.999c-0.548-3.417,0.543-9.705-0.168-9.864c-0.712-0.156-6.139,6.347-8.421,13.8c-2.28,7.452-3.863,15.684-7.751,22.53c-3.887,6.846-6.995,8.519-8.01,10.284c-1.014,1.763-4.994,7.347-5.574,11.072c2.91-1.343,10.283-5.094,13.024-10.701c4.118-12.494,10.784-24.178,19.017-28.192C346.357,322.09,344.541,319.195,344.029,315.999z"></path><path style="opacity:0.5;fill:#FFFFFF;" d="M343.111,307.61c0,0-3.98,10.523-3.595,12.711c0.387,2.188,1.659,7.138,1.659,7.138l4.035-2.801c0,0-0.449-4.688-1.73-6.938C342.199,315.47,343.111,307.61,343.111,307.61z"></path><path style="fill:#505050;" d="M336.344,332.161c0,0-1.819-2.287-2.689-2.709c-1.619,5.107-5.574,15.272-7.914,17.809c-2.338,2.536-4.664,4.894-5.24,5.393c-0.574,0.499-5.12,8.822-5.375,9.886c2.621-1.438,9.373-5.285,10.904-9.138C329.014,344.249,336.344,332.161,336.344,332.161z"></path><path style="fill:#6E6E6E;stroke:#000000;stroke-linecap:round;stroke-linejoin:round;" d="M346.422,326.483c0,0-7.152,4.752-10.934,11.124c-3.782,6.373-6.366,14.63-7.828,16.17c-1.463,1.541-14.412,13.336-14.334,14.101c0.08,0.764,12.053-3.289,17.178-8.991c5.124-5.699,11.366-5.802,13.855-5.248c2.488,0.554,0.736,6.756,0.736,6.756c0.697-0.342,2.016-4.029,3.426-8.69C349.933,347.042,349.266,331.593,346.422,326.483z"></path><path style="opacity:0.5;fill:#FFFFFF;" d="M345.949,328.695c0,0-3.963,2.602-5.201,4.856c2.649,0.726,7.036,10.036,7.373,12.94C349.099,340.26,347.308,329.872,345.949,328.695z"></path><path style="fill:#505050;" d="M341.28,351.594c0,0,1.294-10.713-2.629-16.389c-2.595,3.598-9.563,18.232-9.563,18.232s-13.077,11.864-13.703,13.08c3.877-1.348,9.607-3.467,11.178-5.336c1.572-1.87,6.313-7.838,8.154-8.43C336.559,352.161,341.28,351.594,341.28,351.594z"></path><path style="fill:#6E6E6E;stroke:#000000;stroke-linecap:round;stroke-linejoin:round;" d="M339.029,387.654c0,0-1.333,5.425-2.781,7.466c-1.449,2.042-5.902,6.398-6.482,7.887c-0.581,1.489-4.797,8.139-5.508,7.979c-0.711-0.157,3.585-7.163,3.611-9.521c0.027-2.357-1.211-1.266-1.896-0.423c-0.687,0.843-2.958,7.262-3.929,8.704c-1.672,2.488-2.924,3.642-5.61,5.095c0.514-2.869,1.344-4.925,1.344-4.925s2.832,0.134,2.913-4.7c0.079-4.833-3.697-13.014-4.579-15.199c-0.881-2.187-2.276-5.98-4.634-6.007s-3.293,1.383-4.004,0.103c-0.711-1.277,0.425-6.373,4.719-11.139c4.295-4.766,7.416-4.817,7.73-4.002c0.317,0.817-0.514,5.11-0.514,5.11s6.436,15.24,11.57,16.756C336.116,392.355,339.029,387.654,339.029,387.654z"></path><path style="fill:#505050;" d="M321.33,401.054c0,0,5.211-8.815,5.344-10.697c-7.689-9.723-7.887-14.598-7.887-14.598s-0.617-2.744,0.185-6.469c-0.481-0.844-10.378,5.481-10.964,13.813c1.881,0.133,4.875-0.196,4.875-0.196S320.402,395.047,321.33,401.054z"></path><g><path style="fill:#6E6E6E;stroke:#000000;stroke-linecap:round;stroke-linejoin:round;" d="M317.254,404.451c0,0-0.004,0.062-0.014,0.173c-0.071,0.899-0.492,5.148-2.176,7.985c-1.89,3.188-4.347,4.442-6.322,3.258c3.884-6.242-4.297-8.978-4.037-18.748c0.105-3.922,1.545-7.947,2.248-8.704c1.391-1.496,5.214-2.842,6.368-1.507c1.731,2.002,1.952,4.268,1.952,4.268s-5.811,5.804-2.636,13.616C315.758,407.539,317.254,404.451,317.254,404.451z"></path><path style="fill:#505050;" d="M313.918,406.609c-0.028,0.403-0.628,5.088-3.936,7.96c0.191-0.796,1.408-2.735-0.756-6.534c-2.164-3.798-6.391-7.065-1.875-19.441c1.68-0.827,4.086-2.414,4.576-1.704c0.49,0.709-4.966,13.02-2.755,16.146S313.918,406.609,313.918,406.609z"></path></g><path style="fill:#6E6E6E;stroke:#000000;stroke-linecap:round;stroke-linejoin:round;" d="M312.067,417.415c0.033,0.132-1.299,4.998-6.093,8.657c-4.795,3.66-10.42,4.896-10.979,4.897c0.244-1.377,0.699-2.581,0.699-2.581s-3.912,1.929-6.718,2.236c-0.459-2.403-0.696-4.137-0.696-4.137s-5.987,3.148-9.595,3.153c-2.488-6.712-5.507-17.46-2.078-29.508c3.428-12.051,18.155-25.131,19.136-25.347c2.417,0.04,3.536,1.16,3.536,1.16s-4.355,6.992-3.764,13.839c0.646,7.488,3.092,10.143,3.092,10.143s-0.238,2.187-0.516,2.871c-0.277,0.686-2.78,6.906-4.823,9.935c1.699,0.751,7.976,0.779,7.976,0.779s-0.193,2.819-1.24,4.452c2.45-0.949,7.922-2.902,7.922-2.902s0.323,2.187-0.355,3.839C309.328,418.546,312.067,417.415,312.067,417.415z"></path><path style="fill:#505050;" d="M288.813,426.946l0.527,2.738c0,0,9.844-2.999,11.153-4.978s2.021-6.97,2.021-6.97l-2.847,0.79L288.813,426.946z"></path><path style="fill:#505050;" d="M297.655,376.704c0,0-6.051,13.079-7.772,18.358c0.787,0.326,1.174,2.514,1.174,2.514s-8.121,15.633-7.234,18.396c0.887,2.762,14.188,1.807,14.188,1.807s-10.737,10.589-19.106,10.54c-2.196-7.176-3.991-16.215-2.981-22.896c3.079-9.235,19.641-29.677,19.641-29.677L297.655,376.704z"></path><path style="fill:none;stroke:#000000;stroke-linecap:round;stroke-linejoin:round;" d="M307.396,418.709c0,0-3.004,8.161-11.702,9.68"></path><path style="fill:none;stroke:#000000;stroke-linecap:round;stroke-linejoin:round;" d="M298.702,419.448c0,0-3.698,5.233-10.03,6.947"></path></g></g></g></svg>