<svg xmlns="http://www.w3.org/2000/svg" width="500" height="500" version="1.1"><g id="x9165"><g><path style="fill:#6E6E6E;stroke:#000000;stroke-linecap:round;stroke-linejoin:round;" d="M330.879,341.717c0,0,5.91-6.038,6.635-10.426c-0.362-0.87-1.941-4.043-1.941-4.043s-1.113,0.081-1.404,1.224c-0.289,1.143,0.246,3.345,0.246,3.345s-3.607,7.887-5.039,8.74C329.457,341.672,330.879,341.717,330.879,341.717z"></path><path style="fill:#6E6E6E;stroke:#000000;stroke-linecap:round;stroke-linejoin:round;" d="M307.389,335.292c6.191-3.219,12.501-2.785,14.378-1.652c1.877,1.134,6.364,4.242,9.981,4.649c2.856,2.257,8.231,3.209,10.363,3.725c2.13,0.518,6.917,4.65,9.049,11.295c2.131,6.646-1.07,19.172-9.807,27.324c-11.123,10.382-28.764,4.201-28.764,4.201s-16.881-8.029-17.473-23.232C294.652,349.662,301.197,338.511,307.389,335.292z"></path><path style="fill:#505050;" d="M336.455,341.308c0,0-4.008-1.649-4.896-2.556c-2.502-0.489-7.951-3.452-7.951-3.452c0.662,1.895,5.268,5.592,7.271,6.417C332.883,342.541,336.455,341.308,336.455,341.308z"></path><path style="fill:#505050;" d="M338.458,345.197c0,0,3.755,14.522-6.687,25.003c-4.108,4.125-13.488,2.559-18.539-0.062c-5.05-2.619-17.163-13.913-17.163-13.913s-0.339,9.865,2.368,13.952c3.445,5.203,8.668,9.935,14.207,12.336c8.26,3.58,16.636,4.685,27.242-3.566c6.588-5.126,12.072-18.821,10.213-24.813c-1.859-5.991-7.199-10.533-7.199-10.533L338.458,345.197z"></path><path style="opacity:0.3;fill:#FFFFFF;" d="M337.008,344.779c0,0,0.146,7.09-1.64,9.238c-1.786,2.149-7.806,0.573-10.742,0.265c-2.938-0.308-14.778-10.949-14.941-13.18c-0.163-2.229,6.218-5.911,9.218-5.757c3.001,0.153,7.534,4.903,9.938,6.072C331.242,342.587,336.273,343.937,337.008,344.779z"></path><g><path style="fill:#FFFFFF;" d="M324.76,340.82c0,0-1.133,1.877-1.749,1.623c-0.617-0.254-7.101-5.086-6.411-5.883C317.289,335.763,324.116,340.195,324.76,340.82z"></path><path style="fill:#FFFFFF;" d="M321.969,344.537c0,0-0.635,1.542-1.904,1.56c-1.27,0.019-7.008-4.867-6.872-6.073c0.136-1.205,1.106-2.248,1.876-1.931C315.839,338.41,321.887,343.422,321.969,344.537z"></path></g></g></g></svg>