<svg xmlns="http://www.w3.org/2000/svg" width="500" height="500" version="1.1"><g id="x9166"><g><g><path style="fill:#505050;stroke:#000000;" d="M381.58,163.167c0,0-5.75,9.25-6.75,12.25c5.5,5.75,8,9.5,8,9.5l-2.25,3.5l9,10.25l-2.75,2.75l-3.75-4.25c0,0-4.5,2.75-5.75,5c5.5,10,31,50.5,33,50.5s21.75-2,22-4.25s-10.75-58.75-10.75-58.75L381.58,163.167z"></path><path d="M408.162,200.333c0,0,9.334,26-14.666,22c6.666,18.667,21.334,32.001,21.334,32.001l14-13.334C428.83,241,423.496,211,408.162,200.333z"></path><g><g id="leftXMLID_17_"><g><path style="fill:#6E6E6E;" d="M281.08,301.667l-1.25,4.38c0,0,19,32.24,19.25,33.24s0.25,10.63,0.25,10.63l2.75,0.87l0.129,2.76l-4.129,0.24c0,0,0.129,17.26,0.629,20.5c-2.5,0.5-11.5,2.38-12.129,2.5c0.25,3.76,2.129,18.5,6.25,27.63c1.119,0.13,1.5-0.25,1.5-0.25l12.5-5.75l4.25,13.5c0,0-12.25,6-13,6.87c0.629,2.76,1.42,6.71,1.42,6.71l61.709-18.33c0,0,0.371,6.88-0.879,9s-39.621,33.12-53.121,42.5c1,4,3.121,10.5,3.121,10.5l72-42.12c0,0,26.119-21,35.75-40.13c-1.5-15.37,30.75-73.75,30.75-73.75s11.5-41.75-2.25-103c0,0-53.5-118.25-54-119s-11.75-8-11.75-8s-7,6.5-7,7.25s9,13.5,9,13.5l-15.5,14.75l-13.5-2.5c0,0-3.25,7.25-3.5,9.75c5.75,7,57.5,65.75,67.75,102.75c1.25,17.5-18,7.75-18,7.75l-42.42-61.58c0,0-4.33,1.33-5.08,2.33c-3.5,4.25-5.75,6.75-5.75,8c1,1.25,7.75,8,7.75,8s-3.75,5.25-4.131,6.25c2,1.75,8.26,7.75,8.26,7.75l-2.76-0.12c-2.24,2.37-7,9-7.119,9.74c2,1.76,5.379,5.38,5.379,5.38l-4.129,6l-3.42-3l-2.711-0.75c-2.5,3.75-4.5,7.63-4.5,7.63l5.381,5.62l-10.75-2.62l-12.08-7.71l-2.17,0.08c-1.881,2.75-4.5,8.87-4.5,8.87l4.119,2.26l-1.119,1.87l-1.381-0.75c0,0-6,12.38-6.5,13.62c1.5,0.88,2.881,1.63,2.881,1.63s-3.25,6.63-3.75,8.13c0.869,1.37,2.129,1.74,2.129,1.74s-1.379,3.26-1.629,4c1.629,0.88,3.629,1.76,3.629,1.76l44.621,23c0,0,9,7,10.25,13.12s-3.75,13.75-12.5,14S281.08,301.667,281.08,301.667z"></path></g><path style="fill:#505050;" d="M353.83,440c0,0,2.666-11-5.334-13.333c4.334-3,11.334-9.667,11.334-9.667s2.666-3.999,1.666-10.666c7.334,0,11.334,6.333,11.334,6.333S364.164,438.666,353.83,440z"></path><path style="fill:#505050;" d="M389.83,411.667c0,0,5.666,0.001,3.332,5.667c5.668-4.667,20.668-20.668,21-25.334C404.496,395,389.83,411.667,389.83,411.667z"></path><path style="fill:#505050;" d="M448.83,226.334c0,0-1,4.666-5.334,5.333c-4.332,0.667-7.666-3.333-7.666-3.333l14,75.667C449.83,304.001,457.496,261.001,448.83,226.334z"></path><g><path style="fill:none;stroke:#000000;stroke-linecap:round;stroke-linejoin:round;" d="M380.83,83.167c0,0-7,6.5-7,7.25s9,13.5,9,13.5l-15.5,14.75l-13.5-2.5c0,0-3.25,7.25-3.5,9.75c5.75,7,57.5,65.75,67.75,102.75c1.25,17.5-18,7.75-18,7.75l-42.42-61.58c0,0-4.33,1.33-5.08,2.33c-3.5,4.25-5.75,6.75-5.75,8c1,1.25,7.75,8,7.75,8s-3.75,5.25-4.131,6.25c2,1.75,8.26,7.75,8.26,7.75l-2.76-0.12c-2.24,2.37-7,9-7.119,9.74c2,1.76,5.379,5.38,5.379,5.38l-4.129,6l-3.42-3l-2.711-0.75c-2.5,3.75-4.5,7.63-4.5,7.63l5.381,5.62l-10.75-2.62l-12.08-7.71l-2.17,0.08c-1.881,2.75-4.5,8.87-4.5,8.87l4.119,2.26l-1.119,1.87l-1.381-0.75c0,0-6,12.38-6.5,13.62c1.5,0.88,2.881,1.63,2.881,1.63s-3.25,6.63-3.75,8.13c0.869,1.37,2.129,1.74,2.129,1.74s-1.379,3.26-1.629,4c1.629,0.88,3.629,1.76,3.629,1.76l44.621,23c0,0,9,7,10.25,13.12s-3.75,13.75-12.5,14s-75-19-75-19l-1.25,4.38c0,0,19,32.24,19.25,33.24s0.25,10.63,0.25,10.63l2.75,0.87l0.129,2.76l-4.129,0.24c0,0,0.129,17.26,0.629,20.5c-2.5,0.5-11.5,2.38-12.129,2.5c0.25,3.76,2.129,18.5,6.25,27.63c1.119,0.13,1.5-0.25,1.5-0.25l12.5-5.75l4.25,13.5c0,0-12.25,6-13,6.87c0.629,2.76,1.42,6.71,1.42,6.71l61.709-18.33c0,0,0.371,6.88-0.879,9s-39.621,33.12-53.121,42.5c1,4,3.121,10.5,3.121,10.5l72-42.12c0,0,26.119-21,35.75-40.13c-1.5-15.37,30.75-73.75,30.75-73.75s11.5-41.75-2.25-103c0,0-53.5-118.25-54-119S380.83,83.167,380.83,83.167z"></path></g></g><path style="fill:#292021;stroke:#000000;stroke-linecap:round;stroke-linejoin:round;" d="M398.83,73.667c0,0-14.5,6.5-18,9.5c5.5,6.5,10.5,16.5,10.5,16.5l-5.5,3.5l3,6.5l-6.5,3.5c0,0-8-15-11.5-18c-6,4-8,6-8,6l2.5,4.5c0,0-8.5,7-11.5,10.5c8.5,8.5,61.332,68.5,70.5,120.5c1.621,10.634-4.381,12.322-9.5,10c-4.348-1.973-7.834-7.333-7.834-7.333s-31-49.834-49.334-64.501c-2.832,3-4.332,5.667-4.332,5.667l8.166,10l-6.334,8c0,0,10.168,11,11.334,12c-0.834,1.5-2.166,3.667-2.166,3.667s-4.834-4.834-6.5-6.334c-2.5,3-4.668,6.334-4.668,6.334s4.334,5,4.668,6c-1.334,2.833-6,9.333-6,9.333s-4.5-3.999-5.168-4.333c-2.166,2.166-4.332,6-4.332,6l6.5,5.833c-1,2.333-2.5,4.333-2.5,4.333s-16.168-11.5-24.334-14c-2.5,3.5-5.166,9.667-5.166,9.667l9.666,4.667L324.664,245l-6.168-2.833l-4.5,10.667l1.834,2l-4,9.666l1.5,1.167l-1.5,4.333c0,0,55.334,25.333,69.5,38.667c5,5.667-0.334,18.333-11.334,18s-90.332-21-90.332-21l-3.168,14.167c0,0,12.668,3.333,12.668,3.833s-2.668,14.667-2.668,14.667l15,2.333l-0.832,8.334l3.166,0.5l0.166,12.667l-4.666,0.833c0,0,0.832,12.833,1.332,18c-3.166,0.667-11.832,3.834-11.832,3.834s3.166,14.666,5.5,19.333c3.166-1,14-5.5,14-5.5l2.832,7l5.334-1.333l0.666,4.333l-3.5,1.333c0,0,1.5,6.667,1.834,7.167s-16.166,7.833-16,8.333s3.334,12.166,4.5,14c5.666-1.5,43.334-21,53.166-29.5c5.168-0.833,8.168-0.5,10.168,1.667s0.648,12.305-3.668,16.833c-10.166,10.667-53.807,39.688-53.666,40.167c0.584,1.999,2.166,8.167,2.166,8.167s36.668-14.167,71-47.501c0.334-2.334-1-7,1.334-10.667s34.334-30,34.334-30s17.666-18.334,27.332-58.667c9.668-40.333,0.002-72.666-9.332-101.999c-2-8.668,2.332-17.668,2.332-17.668s1.668,4.667,4.668,4c3-0.666,3.666-8,3.666-8S438.496,147.667,398.83,73.667z"></path><ellipse transform="matrix(-0.9773 -0.2119 0.2119 -0.9773 768.4919 713.1365)" style="opacity:0.1;fill:#FFFFFF;" cx="422.457" cy="315.391" rx="25.521" ry="66.668"></ellipse><g id="leftXMLID_16_"><path style="fill:#6E6E6E;" d="M393.08,278.917c0.363-1.819,0.873-3.354,1.492-4.646c-0.857,2.117-0.742,4.169,0.514,5.205c1.775,1.465,5.115,0.35,7.457-2.49c2.344-2.84,2.805-6.33,1.029-7.795c-0.756-0.623-1.795-0.774-2.92-0.529c2.684-0.852,5.627-0.521,8.178,0.256c5.75,1.75,24.5,32,27.5,54.25c0,0,0.379,2.88-3.121,3c-2.549,0.09-4.379-6.38-19.879-19.38C400.301,295.867,390.83,290.167,393.08,278.917z"></path><path style="fill:#505050;" d="M418.164,281c0,0-9.334-3.334-14,2c-4.668,5.334-2.334,11.5-2,14.5c11.832,8.333,29.666,28.167,29.666,28.167s4.5,1.333,4.5-3C436.33,320.333,429.496,294,418.164,281z"></path></g><path style="fill:none;stroke:#000000;stroke-linecap:round;stroke-linejoin:round;" d="M393.08,278.917c0.363-1.819,0.873-3.354,1.492-4.646c-0.857,2.117-0.742,4.169,0.514,5.205c1.775,1.465,5.115,0.35,7.457-2.49c2.344-2.84,2.805-6.33,1.029-7.795c-0.756-0.623-1.795-0.774-2.92-0.529c2.684-0.852,5.627-0.521,8.178,0.256c5.75,1.75,24.5,32,27.5,54.25c0,0,0.379,2.88-3.121,3c-2.549,0.09-4.379-6.38-19.879-19.38C400.301,295.867,390.83,290.167,393.08,278.917z"></path><g id="leftXMLID_15_"><path style="fill:#6E6E6E;" d="M375.104,376.955c2.285-0.267,3.793-3.449,3.365-7.105c-0.428-3.657-2.627-6.405-4.912-6.139c-0.613,0.071-1.166,0.356-1.645,0.8c1.486-6.521,6.814-9.984,9.297-10.344c6.871-1,53.871-15.75,54.621-14.25s-5.5,16.3-25.75,29.3c-17.535,11.257-31.127,16.654-36.406,7.513C374.137,376.925,374.617,377.012,375.104,376.955z"></path><path style="fill:#505050;" d="M393.33,351.468c0,0-6.668,5.667-4.834,14.5s10.834,9.667,10.834,9.667s31.5-17.833,36-35.5C420.996,343.301,393.33,350.968,393.33,351.468z"></path></g><path style="fill:none;stroke:#000000;stroke-linecap:round;stroke-linejoin:round;" d="M375.104,376.955c2.285-0.267,3.793-3.449,3.365-7.105c-0.428-3.657-2.627-6.405-4.912-6.139c-0.613,0.071-1.166,0.356-1.645,0.8c1.486-6.521,6.814-9.984,9.297-10.344c6.871-1,53.871-15.75,54.621-14.25s-5.5,16.3-25.75,29.3c-17.535,11.257-31.127,16.654-36.406,7.513C374.137,376.925,374.617,377.012,375.104,376.955z"></path></g></g><g><g><g><ellipse style="fill:#6E6E6E;" cx="439.143" cy="193.917" rx="2.063" ry="2.625"></ellipse><path style="fill:#6E6E6E;" d="M435.205,182.667c0,0,0.75,2,0,3.125s-2.875,0.125-2.625-0.875s2.625-3.875,2.625-10.125s-3-12.125-8.125-12.75c3.625,2.75,6.625,9.375,6.125,12.625s-3.25,10.25-3,11.625s3.375,4.375,5.875,2.125s2.25-4.75,1.375-6.125S435.205,181.917,435.205,182.667z"></path><path style="fill:#6E6E6E;" d="M433.83,178.833c0.582-0.082,1.584-0.082,2-1.916s0.166-4.916-1.25-5.666c-1.418-0.75-2.668,1.582-6.168-2.418s-3.832-10.916-3.666-14.5c0.166-3.582,0.416-5.916-0.5-6.832c-0.916-0.918-2-0.001-2.334,1.082c-0.332,1.084-0.916,5.084-1.332,4.668c-0.418-0.418-0.334-2.668-0.084-3.334s-0.666-1.25-0.416-1.584c0.25-0.332,1.916,0.918,1.666-0.082s-1-2.584-1.5-2.584s-1.334,1.916-1.334,1.916s-1.916,2.417-1.666,4.5c0.25,2.084,2.334,5,3.166,4.5c0.834-0.5,2.168-0.5,2.668,0.25c0.416,3.418,0.25,13.834,9.5,16.668C432.662,174.833,433.83,178.833,433.83,178.833z"></path></g><path style="fill:#6E6E6E;" d="M417.996,140.751c0,0,0.416-2.084-1.334-4.168c-1.75-2.082-2.916-2.166-3-1.5C413.58,135.751,413.496,138.667,417.996,140.751z"></path></g><g><path style="fill:#6E6E6E;" d="M387.455,276.167c-1.5-0.5-2.25-1-1.625-1.75s2.25-3,1.25-5.625s-3.625-4.375-3.625-4.375s0.375-2.625,1.375-2.125s5.5,3.375,5.5,6.625S388.955,276.667,387.455,276.167z"></path><path style="fill:#6E6E6E;" d="M390.268,264.792c-0.813-0.688-0.063-0.375,0.188-2.313s0.5-3.5-1-3.938s-8.313,3.5-9,7.125c-1,0.375-1.563-0.375-1.563-0.375s5.563-9.813,12.688-8.063C395.268,258.729,391.08,265.479,390.268,264.792z"></path><path style="fill:#6E6E6E;" d="M383.705,259.354c0,0-1.125,0.563-1.063,0.125s1.438-1.438,1.188-1.938s-2.563-1.063-2.875-0.938c0.313,0.875-0.75,4,0.188,4.188s2.25-0.125,2.25-0.125L383.705,259.354z"></path><path style="fill:#6E6E6E;" d="M374.205,261.542c0.82,2.734,3,4.063,3,4.063s0.25,1.563-0.313,1.688s-2.313-2.563-4-3.563s-3.813-8.063-2-12.688c-0.313-2.438-2.791-5.605-2.188-6.125s1.209,0.479,1.563,0s1.75-0.374,2,0.084c0.021-0.438-0.375-1.334-0.25-1.584s3,1.125,3.125,3.125s-0.75,4.063-0.563,7.063C374.674,255.104,374.518,257.979,374.205,261.542z"></path><path style="fill:#6E6E6E;" d="M368.393,246.126c0,0,0.291,1.855-0.021,1.896s-0.229-0.543-0.729-0.584s-2.543-1.041-2.771-1.646s-0.02-1.771,0.355-1.792S367.83,244.979,368.393,246.126z"></path><g><path style="fill:#6E6E6E;" d="M361.934,242.46c0,0,0.313,1.208-1.021,1.458c-1.332,0.25-4.395,0.146-4.707-1.604s1.104-2.832,1.104-3.541s-0.938-1.709-2.334-1.209c-1.104-0.541-1.457-0.875-1.457-0.875s1.895-1.146,4.832,0.729s-1.061,3.188-0.582,4.167S360.35,241.064,361.934,242.46z"></path><path style="fill:#6E6E6E;" d="M359.246,242.105c0,0-1.875-2.208-3.334-2.583c-1.457-0.375-2.125,0.166-2.125,0.166s-0.832-0.792-0.854-1.125s0.125-0.896,0.125-0.896s-1.709-0.896-1.875-1.417s0.125-1.646,0.771-1.521c0.645,0.125,6.457,5.208,7.604,7.438"></path></g></g><g><path style="fill:#6E6E6E;" d="M360.768,380.354c0,0,6-6.75,5.688-7.438s-1.063-1.375-1.438-0.875s-4.813,5.813-5.375,6.125s-2.625-0.5-4.75,1.438c0.875-1.25,1.813-3.25,1.25-4.313c-0.688-0.125-1-0.125-1-0.125s0,1.688-0.625,2.375s-6.188,4.25-7.938,7.438s-2.063,4.875,0.063,6.375c0.813,1.75-0.125,4.688-0.125,4.688s1.313-3.313,1.313-4.5c0.688-0.375,1.375-1.438,1.625-2.125s-0.063-3.438,3.75-6.125S359.58,381.104,360.768,380.354z"></path><path style="fill:#6E6E6E;" d="M354.049,374.604c-0.178,0.925-0.813,3.344-1.5,3.156s0.188-1.938,0.25-3.156s0.188-2.219,0.656-2.188S354.205,373.792,354.049,374.604z"></path><path style="fill:#6E6E6E;" d="M349.58,378.448c-0.313,0.143-1.156-1.969-1.656-3.844s-0.813-3.531-2-3.781s-0.344-0.906,0.281-1s2.25,1.625,3,3.531S350.268,378.136,349.58,378.448z"></path><g><path style="fill:#6E6E6E;" d="M341.518,382.198c0,0,1-0.469,1.25-0.156s0.125,3.25-0.656,4.219s-3.781,3.406-5.25,4.938s-1.469,1.594-1.344,1.594s-0.688,2.625-3.625,2.438s-5.219-5.688-8.313-5.469s-5.563,3.219-6.219,2.969s-0.563-1.75-0.563-1.75s2.781-3.375,6.844-3.031s5.938,5.656,8.5,5.313s1.813-1.813,2.75-2.781s5.031-4.156,5-4.313c-0.875,0.219-1.719,0.469-1.906,0.344s-1.125-3.625-0.75-4.094s1.406-0.188,1.406-0.188s0.031-1.469,0.188-1.656s2.625,0.406,3.031,0.688C341.486,381.636,341.518,382.198,341.518,382.198z"></path><path style="fill:#6E6E6E;" d="M342.111,379.542c0,0-2.938-2.844-5.125-2.156s-4.625,6.219-3.625,9.781c0.375,0.469,0.781,0.25,0.781,0.25s1.5-1.688,2.125-1.063s-0.531,1.469-1.125,2s-1.938,1.281-3.313-0.25s-0.938-7.375,2.219-10.281s6.313-2.063,8.031,1.594"></path></g></g></g></g></g></svg>