<svg xmlns="http://www.w3.org/2000/svg" width="500" height="500" version="1.1"><g id="x9167"><g><g><path style="fill:#6E6E6E;" d="M310.436,370.521c0.318-0.479,5.578-8.129,12.591-12.272c4.144,4.463,21.994,24.703,21.994,24.703s-7.104,7.297-14.981,11.954C324.142,388.85,310.436,370.521,310.436,370.521z"></path><g><g><path style="fill:#FFFAFF;stroke:#FAC454;stroke-linecap:round;stroke-linejoin:round;" d="M320.246,378.207c-0.05,0.151-0.101,2.152-0.025,2.303c0.501-1.051,1.15-2.052,1.15-2.052s1.577-0.251,2.326,0.125c0.751,0.375,1.501,1.175,2.676,1.375c1.176,0.2,2.678,0.074,3.477,1.275c0.801,1.201,1.101,3.803,1.101,3.803l1.227-1.226c0,0-0.426-2.452-1.276-3.577c0.525-0.301,1.375-1.302,1.476-1.626c0.575,0.6,2.651,1.752,2.651,1.752c0.024-0.05-0.9-1.928-1.575-2.728c-0.275-0.925-0.176-1.25-0.176-1.25s2.05-0.625,2.5-1.225c-2.177-0.351-7.728-0.876-8.402-1.401s-4.804-0.45-5.652-0.101c-0.776,1.125-0.95,1.602-0.95,1.602s-0.851,0.725-0.825,1.676C319.961,377.438,320.246,378.207,320.246,378.207z"></path><path style="fill:none;stroke:#FAC454;stroke-linecap:round;stroke-linejoin:round;" d="M322.547,375.557c0,0-0.524,1.201,0.476,1.576s4.626-0.375,4.626-0.375"></path><path style="fill:none;stroke:#FAC454;stroke-linecap:round;stroke-linejoin:round;" d="M329.524,376.458c0,0,4.028-0.752,4.979-1.077"></path></g><path style="fill:none;stroke:#FAC454;stroke-linecap:round;stroke-linejoin:round;" d="M329.049,387.361c0.025-0.1,5.003-4.953,6.003-6.652"></path></g></g><g><path style="fill:#E0E1A0;" d="M310.852,370.799c0.053-0.079,5.317-7.917,12.429-12.119l-0.62-0.091c4.092,4.407,21.807,24.491,21.985,24.694l0.017-0.68c-0.07,0.072-7.151,7.304-14.878,11.872l0.613,0.082c-5.808-5.965-19.425-24.152-19.562-24.336L310.852,370.799z M330.294,395.337c7.843-4.638,15.014-11.963,15.085-12.036l0.323-0.332l-0.307-0.348c-0.179-0.202-17.902-20.296-22.003-24.712l-0.273-0.296l-0.347,0.205c-7.308,4.317-12.699,12.346-12.753,12.426l-0.195,0.294l0.211,0.283c0.138,0.184,13.793,18.424,19.646,24.434l0.274,0.282L330.294,395.337z"></path></g><g style="opacity:0.2;"><path d="M310.852,370.799c0.053-0.079,5.317-7.917,12.429-12.119l-0.62-0.091c4.092,4.407,21.807,24.491,21.985,24.694l0.017-0.68c-0.07,0.072-7.151,7.304-14.878,11.872l0.613,0.082c-5.808-5.965-19.425-24.152-19.562-24.336L310.852,370.799z M330.294,395.337c7.843-4.638,15.014-11.963,15.085-12.036l0.323-0.332l-0.307-0.348c-0.179-0.202-17.902-20.296-22.003-24.712l-0.273-0.296l-0.347,0.205c-7.308,4.317-12.699,12.346-12.753,12.426l-0.195,0.294l0.211,0.283c0.138,0.184,13.793,18.424,19.646,24.434l0.274,0.282L330.294,395.337z"></path></g></g></g></svg>