<svg xmlns="http://www.w3.org/2000/svg" width="500" height="500" version="1.1"><g id="x9168"><g><g><path style="fill:#6E6E6E;" d="M347.061,362.342c0.193,0.026,1.579-0.461,2.002-0.369c0.424,0.094,1.499,0.268,1.627,0.527c0.128,0.262-20.777,53.173-21.788,54.289c-0.629,0.377-1.116,0.514-1.116,0.514l-7.857-3.184l23.232-55.086L347.061,362.342z"></path><path style="fill:#FFFFFF;" d="M343.354,359.113c0,0,2.726,3.622,5.36,3.487c-1.063,3.104-20.97,53.383-20.97,53.383s-0.529,0.588-0.73,0.408c-0.197-0.182-4.15-1.506-5.734-1.921C322.379,410.605,343.354,359.113,343.354,359.113z"></path><polygon style="fill:#E4E0F3;" points="348.763,362.483 327.652,416.68 326.76,416.342 347.916,361.838 "></polygon><path style="fill:#6E6E6E;" d="M315.92,355.017c0,0,26.542,2.514,27.18,3.093c0.641,0.576,0.97,1.069,0.97,1.069l-22.519,54.884c0,0-25.479-8.533-26.01-9.016C295.008,404.569,315.92,355.017,315.92,355.017z"></path></g><path style="fill:none;stroke:#000000;stroke-linecap:round;stroke-linejoin:round;" d="M343.1,358.109c0.641,0.576,0.97,1.069,0.97,1.069l-0.19,0.465l2.947,2.495c0.13,0.067,0.262,0.13,0.396,0.181c0.424-0.082,1.479-0.424,1.84-0.347c0.424,0.094,1.499,0.268,1.627,0.527c0.128,0.262-20.777,53.173-21.788,54.289c-0.629,0.377-1.116,0.514-1.116,0.514l-7.857-3.184l0.232-0.551c-5.672-2.021-24.159-8.104-24.619-8.521c-0.533-0.478,20.379-50.03,20.379-50.03S342.462,357.53,343.1,358.109z"></path></g></g></svg>