<svg xmlns="http://www.w3.org/2000/svg" width="500" height="500" version="1.1"><g id="x9169"><g><g><path style="fill:#6E6E6E;stroke:#000000;stroke-linecap:round;stroke-linejoin:round;" d="M365.416,169.036c0,0,11.727,3.434,14.31,9.541c-1.787,1.277-2.382,2.168-2.382,2.168s-2.198-4.217-13.191-7.586c-10.992-3.369-15.176-1.109-15.176-1.109s0.006-1.07-0.758-3.13C353.78,165.309,365.416,169.036,365.416,169.036z"></path><g><g><path style="fill:#6E6E6E;stroke:#000000;stroke-linecap:round;stroke-linejoin:round;" d="M376.928,117.856c0,0-9.423,5.165-12.734,13.17c-3.312,8.004,2.234,13.032,2.234,13.032s-11.16-3.528-5.799-15.414C365.99,116.759,376.928,117.856,376.928,117.856z"></path><path style="fill:#6E6E6E;stroke:#000000;stroke-linecap:round;stroke-linejoin:round;" d="M280.16,443.017c0,0-4.064-10.909-1.396-25.393c1.565-8.503,6.73-9.054,6.73-9.054s-8.381-2.459-11,10.267C271.877,431.563,280.16,443.017,280.16,443.017z"></path><path style="fill:#161416;stroke:#000000;stroke-linecap:round;stroke-linejoin:round;" d="M274.738,411.664c-3.426,13.983-5.723,69.114-6.002,74.934c3.703-2.623,35.457-56.132,35.793-66.338c0.336-10.204-4.992-11.73-7.197-11.547c-2.204,0.185-2.981,0.266-4.369-0.805c-0.092-1.102,2.557-6.946,2.557-6.946s5.65-2.67,6.896-3.575c-2.184-1.637-3.804-5.462-3.804-5.462s0.358-3.971,2.007-8.298c1.646-4.326,6.898-7.442,7.959-9.156c-1.144-4.322-0.246-14.783-0.246-14.783s43.581-147.438,47.896-156.261c4.316-8.825,12.78-14.633,13.453-16.038c-3.673-3.782-3.318-11.244-2.483-13.968c0.835-2.723,3.216-3.926,4.643-4.375c1.426-0.449,3.279-2.029,3.354-2.274c-1.031-1.015-4.638-6.415-4.638-6.415s0.222-4.925,1.352-6.511c1.483,0.938,8.774,10.259,16.26,1.602c7.485-8.658,5.178-81.521,4.821-86.141c-3.912,5.405-34.643,53.646-37.387,61.019s1.568,16.425,5.703,18.177c2.982,1.262,4.222-0.639,5.379,0.843c1.156,1.482-1.566,7.733-2.471,8.584c0,0-3.424,2.763-7.008,3.596c-0.209,0.688,1.305,2.74,2.352,4.587c1.123,1.984,2.334,3.6,1.787,5.38c-2.588,7.044-10.231,9.212-11.723,11.976c0.622,2.875,3.277,15.932,2.346,18.973c-0.933,3.04-45.219,147.525-47.626,155.376c-0.707,1.609-7.958,11.948-9.979,12.939c0.65,1.381,2.515,7.214,1.922,10.897c-0.594,3.684-2.354,8.728-2.354,8.728s-4.986,1.907-6.594,2.596c1.428,2.693,3.654,7.348,3.654,7.348s-0.939,5.512-2.207,5.444c-1.269-0.066-1.482-3.567-3.816-4.714C284.056,400.884,278.164,397.683,274.738,411.664z M372.75,142.346c0,0,2.089-2.259,3.74-2.397c-0.42-5.283-0.904-14.559-0.904-14.559l-7.009,10.953c0,0,1.4,4.187,0.467,5.833c-0.935,1.647-4.761,1.87-6.788-2.725c-2.027-4.596-0.486-17.329,14.582-21.3c2.478,1.726,8.693,19.63,5.154,27.672C378.455,153.865,371.813,147.857,372.75,142.346z M282.682,408.516c2.868,0.451,4.684,4.336,4.302,5.936c-0.347,0.432-0.973,1.421-2.714,3.249c0.055,2.272-0.612,13.559-0.703,13.852c-0.09,0.295,4.34-7.15,7.34-10.635c-0.461-1.646-1.258-5.004-1.258-5.004s1.905-1.877,3.229-2.124c2.887-0.539,6.29,2.157,4.427,11.128c-2.702,13.023-15.046,18.259-17.265,17.794c-5.216-7.503-4.611-21.385-3.696-26.474C277.258,411.149,279.813,408.065,282.682,408.516z"></path><path style="opacity:0.1;fill:#FFFFFF;" d="M304.581,362.292l0.106,0.016l49.382-161.104c0.317-6.643,2.153-14.746,2.153-14.746l6.213,1.796c0,0-4.119,8.186-7.178,13.261l-49.501,161.817c-0.448,2.405-1.652,9.263-1.087,10.583c-2.967-0.479-6.479-1.986-6.479-1.986L304.581,362.292z"></path><g><path style="fill:#6E6E6E;" d="M369.004,187.584c0,0-3.167,1.928-10.014-0.17c-6.846-2.099-8.546-3.909-8.546-3.909s4.87,1.976,8.992,3.24C363.56,188.008,369.004,187.584,369.004,187.584z"></path><g><path style="fill:#6E6E6E;" d="M365.166,188.018c0,0,0.085-1.584-0.21-1.675c-0.296-0.09-1.108,1.512-1.108,1.512L365.166,188.018z"></path><path style="fill:#6E6E6E;" d="M359.783,186.932c0,0,0.18-1.636-0.115-1.726c-0.295-0.091-1.211,1.32-1.211,1.32L359.783,186.932z"></path><path style="fill:#6E6E6E;" d="M355.043,185.318c0,0,0.18-1.636-0.115-1.727c-0.295-0.09-1.211,1.32-1.211,1.32L355.043,185.318z"></path></g></g><g><path style="fill:#6E6E6E;" d="M308.139,374.315c0,0-2.636,1.967-7.452,0.152c-4.814-1.817-5.83-3.518-5.83-3.518s3.358,1.762,6.258,2.855C304.014,374.898,308.139,374.315,308.139,374.315z"></path><g><path style="fill:#6E6E6E;" d="M305.213,374.857c0,0,0.284-1.538,0.078-1.616c-0.207-0.08-1.041,1.5-1.041,1.5L305.213,374.857z"></path><path style="fill:#6E6E6E;" d="M301.346,373.975c0,0,0.364-1.592,0.156-1.668c-0.207-0.08-1.088,1.317-1.088,1.317L301.346,373.975z"></path><path style="fill:#6E6E6E;" d="M298.034,372.562c0,0,0.364-1.591,0.157-1.669c-0.208-0.078-1.088,1.317-1.088,1.317L298.034,372.562z"></path></g></g><path style="opacity:0.1;fill:#FFFFFF;" d="M366.695,166.743c-0.067,0.22-3.721,9.249-4.32,9.628c0.449-2.52,2.502-10.266,2.502-10.266L366.695,166.743z"></path><path style="opacity:0.1;fill:#FFFFFF;" d="M392.11,71.831l-14.168,46.224c0,0,6.017,11.192,5.938,21.261c-0.08,10.068-7.395,16.417-12.163,4.648c-2.165,7.067-6.558,21.397-6.558,21.397s5.452,2.532,9.391,1.59c-2.07-2.353-5.033-6.697-5.033-6.697l1.893-7.581c0,0,4.791,4.69,8.838,5.5c4.045,0.812,7.861-2.53,9.426-7.633C394.125,119.908,392.11,71.831,392.11,71.831z"></path><path style="opacity:0.2;fill:#FFFFFF;" d="M389.789,131.249c0,0,0.623,4.271-0.055,5.781c-0.242-2.007-4.439-0.932-5.192,0.126c0.237-3.579-0.702-7.516-0.702-7.516s1.18,3.154,3.203,3.558C389.067,133.604,389.789,131.249,389.789,131.249z"></path></g><g><g><path style="fill:#6E6E6E;stroke:#000000;stroke-linecap:round;stroke-linejoin:round;" d="M383.256,97.556c0.58-1.557-0.181-4.235,0.393-5.438c0.572-1.2,2.136-0.978,2.136-0.978s1.419,0.692,1.22,2.006c-0.199,1.317-2.33,3.109-2.721,4.723c-0.395,1.614-1.635,6.995,0.744,9.712c-0.072,0.231-0.27,0.375-0.27,0.375s-2.953,0.321-4.071,2.474c-1.119,2.156-2.792,7.609-2.792,7.609l-0.396,0.134l-0.254-0.333c0,0,1.67-5.453,1.952-7.866c0.278-2.412-1.987-4.332-1.987-4.332s-0.084-0.229-0.012-0.461C380.689,104.264,382.678,99.112,383.256,97.556z"></path><ellipse transform="matrix(-0.956 -0.2933 0.2933 -0.956 715.2566 318.0441)" style="fill:#F2E1E0;" cx="381.473" cy="105.398" rx="0.693" ry="3.388"></ellipse><ellipse transform="matrix(-0.9561 -0.2929 0.2929 -0.9561 725.7085 295.8736)" style="fill:#F2E1E0;" cx="385.009" cy="93.597" rx="0.616" ry="1.385"></ellipse><g><ellipse transform="matrix(-0.9561 -0.2929 0.2929 -0.9561 725.9575 326.076)" style="fill:#6E6E6E;stroke:#000000;stroke-linecap:round;stroke-linejoin:round;" cx="387.391" cy="108.688" rx="0.999" ry="0.513"></ellipse><ellipse transform="matrix(-0.956 -0.2933 0.2933 -0.956 702.041 314.8025)" style="fill:#6E6E6E;stroke:#000000;stroke-linecap:round;stroke-linejoin:round;" cx="374.619" cy="104.774" rx="0.999" ry="0.512"></ellipse></g></g></g></g><g><path style="fill:#161416;stroke:#000000;stroke-linecap:round;stroke-linejoin:round;" d="M348.449,168.561c0.797,7.153,11.486,11.346,13.443,11.97c1.971,0.58,13.174,3.098,17.844-2.381c0,0,1.333,2.126,0.32,4.554c-1.943,2.009-9.568,4.526-19.33,1.636c-9.707-3.078-14.612-9.436-15.096-12.188C346.152,169.574,348.449,168.561,348.449,168.561z"></path></g><path style="opacity:0.1;fill:#FFFFFF;" d="M362.285,181.658c0,0-2.293-0.139-3.273-1.405c0.72,1.589,0.03,2.264-0.87,2.31c0.402,0.525,2.854,1.197,3.806,1.248C361.125,183.075,362.285,181.658,362.285,181.658z"></path></g><g><path style="fill:#161416;stroke:#000000;stroke-linecap:round;stroke-linejoin:round;" d="M286.525,380.692c0.588,5.279,8.475,8.372,9.92,8.836c1.455,0.426,9.721,2.283,13.168-1.758c0,0,0.983,1.568,0.236,3.361c-1.433,1.479-7.062,3.338-14.265,1.205c-7.165-2.271-10.782-6.964-11.14-8.992C284.83,381.439,286.525,380.692,286.525,380.692z"></path></g><path style="opacity:0.2;fill:#FFFFFF;" d="M387.686,154.226c0,0-2.547,4.804-8.616,3.587C384.246,157.038,387.686,154.226,387.686,154.226z"></path><path style="opacity:0.1;fill:#FFFFFF;" d="M290.93,407.179c0,0-6.949,22.675-6.859,22.38c0.092-0.295,5.961-8.589,5.961-8.589l-0.971-5.237c0,0,2.51-3.633,6.08-2.322c3.572,1.309,5.603,8.695,0.563,17.781c-5.041,9.085-15.904,12.305-15.904,12.305l-10.794,42.217c0,0,23.925-37.762,29.321-50.817c5.398-13.059,7.623-20.32,1.543-24.654c-1.479-0.775-4.438,0.465-6.378-0.559C291.551,408.658,290.93,407.179,290.93,407.179z"></path><g><g><path style="fill:#6E6E6E;stroke:#000000;stroke-linecap:round;stroke-linejoin:round;" d="M273.944,467.726c-0.548,1.566-0.28,4.095-0.788,5.316c-0.509,1.22-1.565,1.152-1.565,1.152s-0.911-0.537-0.649-1.831c0.264-1.297,1.902-3.241,2.327-4.845c0.423-1.605,1.79-6.946,0.411-9.356c0.071-0.233,0.221-0.39,0.221-0.39s2.065-0.593,3.041-2.791c0.978-2.199,2.648-7.652,2.648-7.652l0.289-0.168l0.144,0.3c0,0-1.673,5.453-2.097,7.822c-0.422,2.368,0.957,4.016,0.957,4.016s0.035,0.215-0.036,0.446C276.353,460.969,274.491,466.159,273.944,467.726z"></path><ellipse transform="matrix(0.956 0.2934 -0.2934 0.956 147.0963 -60.7148)" style="fill:#F2E1E0;" cx="275.922" cy="459.942" rx="0.458" ry="3.388"></ellipse><ellipse transform="matrix(0.9556 0.2945 -0.2945 0.9556 151.0095 -59.2902)" style="fill:#F2E1E0;" cx="272.36" cy="471.736" rx="0.406" ry="1.386"></ellipse><g><ellipse transform="matrix(0.956 0.2935 -0.2935 0.956 146.2151 -59.7391)" style="fill:#6E6E6E;stroke:#000000;stroke-linecap:round;stroke-linejoin:round;" cx="272.156" cy="457.313" rx="0.66" ry="0.512"></ellipse><ellipse transform="matrix(0.9562 0.2926 -0.2926 0.9562 146.832 -61.9683)" style="fill:#6E6E6E;stroke:#000000;stroke-linecap:round;stroke-linejoin:round;" cx="280.584" cy="459.895" rx="0.659" ry="0.512"></ellipse></g></g></g></g></g></svg>