<svg xmlns="http://www.w3.org/2000/svg" width="500" height="500" version="1.1"><g id="x017"><g><g><g><polygon style="fill:#B2B2B2;stroke:#000000;stroke-linecap:round;stroke-linejoin:round;" points="272.675,381.992 332.561,381.992 329.392,376.61 275.844,376.61 "></polygon><g><rect x="272.701" y="381.992" style="fill:#B2B2B2;stroke:#000000;stroke-linecap:round;stroke-linejoin:round;" width="59.832" height="55.401"></rect><g><polyline style="fill:none;stroke:#FF0000;stroke-linecap:round;stroke-linejoin:round;" points="325.161,422.456 325.161,430.502 316.475,430.502 316.475,425.139 319.604,425.139 "></polyline><g><polyline style="fill:none;stroke:#FF0000;stroke-linecap:round;stroke-linejoin:round;" points="313.857,422.456 313.857,430.502 305.173,430.502 305.173,425.139 308.302,425.139 "></polyline><polyline style="fill:none;stroke:#FF0000;stroke-linecap:round;stroke-linejoin:round;" points="319.221,427.564 322.223,427.564 322.223,422.265 313.857,422.265 "></polyline></g><g><polyline style="fill:none;stroke:#FF0000;stroke-linecap:round;stroke-linejoin:round;" points="302.681,422.456 302.681,430.502 293.996,430.502 293.996,425.139 297.125,425.139 "></polyline><polyline style="fill:none;stroke:#FF0000;stroke-linecap:round;stroke-linejoin:round;" points="308.046,427.564 311.047,427.564 311.047,422.265 302.681,422.265 "></polyline></g><g><polyline style="fill:none;stroke:#FF0000;stroke-linecap:round;stroke-linejoin:round;" points="291.506,422.456 291.506,430.502 282.82,430.502 282.82,425.139 285.949,425.139 "></polyline><polyline style="fill:none;stroke:#FF0000;stroke-linecap:round;stroke-linejoin:round;" points="296.87,427.564 299.871,427.564 299.871,422.265 291.506,422.265 "></polyline></g><g><line style="fill:none;stroke:#FF0000;stroke-linecap:round;stroke-linejoin:round;" x1="280.33" y1="422.456" x2="280.33" y2="430.502"></line><polyline style="fill:none;stroke:#FF0000;stroke-linecap:round;stroke-linejoin:round;" points="285.693,427.564 288.694,427.564 288.694,422.265 280.33,422.265 "></polyline></g></g><polygon style="opacity:0.5;fill:#FFFFFF;" points="330.714,412.699 302.854,384.84 329.765,384.84 "></polygon><path style="opacity:0.5;fill:#FFFFFF;" d="M290.824,431.694c-1.582-1.899-12.979-17.411-12.979-17.411v17.411H290.824z"></path><line style="fill:none;stroke:#000000;stroke-linecap:round;stroke-linejoin:round;" x1="328.497" y1="384.207" x2="328.497" y2="437.394"></line><line style="fill:none;stroke:#000000;stroke-linecap:round;stroke-linejoin:round;" x1="276.578" y1="384.207" x2="276.578" y2="437.394"></line><line style="fill:none;stroke:#000000;stroke-linecap:round;stroke-linejoin:round;" x1="327.864" y1="433.277" x2="277.211" y2="433.277"></line></g></g><g><rect x="314.879" y="364.768" style="fill:#B2B2B2;stroke:#000000;stroke-linecap:round;stroke-linejoin:round;" width="6.131" height="14.05"></rect><rect x="284.226" y="364.768" style="fill:#B2B2B2;stroke:#000000;stroke-linecap:round;stroke-linejoin:round;" width="6.13" height="14.05"></rect></g></g><rect x="296.75" y="365.5" style="fill:#D9C794;stroke:#000000;stroke-linecap:round;stroke-linejoin:round;" width="12.375" height="3.313"></rect><path style="fill:#D59758;stroke:#000000;stroke-linecap:round;stroke-linejoin:round;" d="M315.135,365.278h-7.983v4.723c1.143,0.405,2.103,1.015,2.618,1.919c2.045,3.577,0.511,6.131,0.511,6.131h4.854V365.278z M290.101,365.278v12.772h4.854c0,0-1.533-2.554,0.51-6.131c0.753-1.318,2.444-2.009,4.279-2.359v-4.282H290.101z"></path><rect x="278.031" y="385.798" style="fill:#B2B2B2;stroke:#000000;stroke-linecap:round;stroke-linejoin:round;" width="49.812" height="4.599"></rect></g></g></svg>