<svg xmlns="http://www.w3.org/2000/svg" width="500" height="500" version="1.1"><g id="x9170"><g><g><g><rect x="180.543" y="303.349" transform="matrix(0.2897 -0.9571 0.9571 0.2897 -75.4458 506.0364)" style="fill:#6E6E6E;" width="245.342" height="1"></rect></g><g><path style="fill:#6E6E6E;" d="M332.241,252.971c-0.67,1.441-56.181,163.153-58.543,170.037l0.945,0.324c0.577-1.68,57.679-168.026,58.506-169.944L332.241,252.971z"></path></g><g><rect x="231.708" y="354.386" transform="matrix(-0.3804 0.9248 -0.9248 -0.3804 751.402 206.3848)" style="fill:#6E6E6E;" width="149.724" height="1"></rect></g></g><g><path style="fill:#C6BDBA;stroke:#000000;stroke-linecap:round;stroke-linejoin:round;" d="M353.259,357.327c0,0-8.945,0.495-12.446,1.776c-2.858-5.859-2.589-11.196-2.589-11.196s7.537-4.347,9.498-8.316C351.437,340.851,353.259,357.327,353.259,357.327z"></path><path style="fill:none;stroke:#000000;stroke-linecap:round;stroke-linejoin:round;" d="M346.88,341.467c0,0-2.606,5.239-0.615,9.868s6.516,5.771,6.516,5.771"></path><g><path style="fill:#C6BDBA;stroke:#000000;stroke-linecap:round;stroke-linejoin:round;" d="M328.899,406.857c0,0-9.48,8.528-21.177,12.569s-30.966,7.559-38.093,17.15c-7.125,9.591-2.714,12.104-2.714,12.104l-6.86,5.764l7.621-33.186c0,0,1.453,0.5,3.033,1.351c1.582,0.85,7.521,3.2,16.143-0.352c8.623-3.551,10.258-14.645,10.588-21.987C304.062,402.531,328.899,406.857,328.899,406.857z"></path><g><path style="fill:none;stroke:#000000;stroke-linecap:round;stroke-linejoin:round;" d="M320.28,413.386c0,0-0.66-1.491-4.85-1.366c-4.191,0.123-7.34,2.554-11.412,1.053c-4.07-1.501-3.386-5.191-6.813-7.606"></path><path style="fill:none;stroke:#000000;stroke-linecap:round;stroke-linejoin:round;" d="M315.449,416.067c0,0-1.536-0.12-3.558-1.55c-1.578-1.118-3.305-3.478-5.798-4.292c-5.783-1.888-7.153,1.318-10.224,0.728"></path></g><path style="fill:none;stroke:#000000;stroke-linecap:round;stroke-linejoin:round;" d="M275.811,424.162c0,0-7.317,0.629-10.175,6.973"></path></g><path style="fill:#1B1B1B;stroke:#000000;stroke-linecap:round;stroke-linejoin:round;" d="M349.978,392.181c-0.109-0.516-5.884-2.849-12.514-0.581c-6.631,2.268-7.133,3.721-6.536,8.82s-2.157,10.154-18.131,9.015s-15.795-7.159-15.585-10.489c0.211-3.331,20.436-10.096,20.436-10.096c2.438-3.749,2.438-3.749,2.438-3.749s9.054-7.36,22.836-6.133C347.104,384.977,349.978,392.181,349.978,392.181z"></path><path style="fill:#C6BDBA;stroke:#000000;stroke-linecap:round;stroke-linejoin:round;" d="M335.353,364.354c0,0-2.056-2.581-8.299-0.772c-6.244,1.808-9.68,6.953-9.41,10.507c0.268,3.553,2.18,13.329,8.54,16.399c0.64,1.75-3.144,7.023-10.284,6.382s-7.992-6.441-7.88-7.436c2.085-2.111,2.954-3.857,3.142-5.514s-2.369-19.056,1.845-26.629c3.624,0.579,15.036,0.531,18.362-5.13c2.933,5.196,3.781,12.506,3.781,12.506"></path><path style="fill:none;stroke:#000000;stroke-linecap:round;stroke-linejoin:round;" d="M321.521,366.52c0.082,0.387-3.287,1.163-6.101-0.566c-3.764-2.313-2.618-7.971-2.618-7.971"></path><g><path style="fill:none;stroke:#000000;stroke-linecap:round;stroke-linejoin:round;" d="M322.825,388.305c0,0-1.311,6.016-6.527,5.424c-5.217-0.591-6.517-5.771-6.517-5.771"></path><path style="fill:none;stroke:#000000;stroke-linecap:round;stroke-linejoin:round;" d="M324.839,389.413c0,0-1.168,3.643-4.494,3.014c-3.325-0.629-3.819-1.817-6.083-1.822c-2.265-0.005-4.282,1.15-5.99-0.428"></path></g><g id="leftXMLID_21_"><g><path style="fill:#3F3C3F;" d="M332.491,328.971c-4.699,10.377-2.077,28.618,1.391,33.54c3.467,4.923,6.643,16.856,8.104,21.722c0.844,1.435,7.488,9.403,13.243,11.897c5.756,2.495,9.262,1.222,9.262,1.222c-1.273-6.525-6.027-16.695-8.883-20.804c-7.207-10.378-10.916-22.04-12.172-30.233c-1.254-8.193,6.688-20.537,5.872-23.649c-0.824-3.112-5.089-6.957-5.089-6.957S335.997,324.679,332.491,328.971z"></path></g><g><path style="fill:#6E6E6E;" d="M332.76,359.49c2.579,1.732,11.184,8.85,14.243,11.396c0.605,4.021,1.583,8.319,3.168,11.462c3.902,7.739,9.063,8.827,10.102,7.436c1.038-1.393-1.925-9.653-11.536-20.304c-0.573-2.707-1.462-7.085-1.462-7.085l-1.305-2.916c0.039,0.184,0.109,3.587,0.584,7.94c-3.819-3.446-15.537-12.529-15.537-12.529S331.715,357.61,332.76,359.49z M349.584,373.098c0,0,3.679,3.059,6.308,6.502c2.307,3.021,3.586,7.2,2.991,8.013c-0.595,0.813-2.667,1.333-5.763-3.547C350.026,379.187,349.584,373.098,349.584,373.098z"></path><ellipse transform="matrix(-0.5615 -0.8275 0.8275 -0.5615 238.9832 914.3462)" style="fill:#6E6E6E;" cx="361.761" cy="393.851" rx="1.687" ry="1.251"></ellipse></g><path style="fill:#1B1B1B;" d="M344.3,316.517c0,0-6.102,6.102-7.74,10.57c-1.44,8.266,10.418,32.38,10.418,32.38s-4.846-11.619-3.226-20.368c2.099-6.304,3.278-8.938,3.278-8.938L344.3,316.517z"></path><path style="fill:#1B1B1B;" d="M332.208,328.858c0,0-5.66,12.189-0.605,29.746c-2.051-15.203,3.164-32.35,3.164-32.35L332.208,328.858z"></path><g><path style="fill:none;stroke:#000000;stroke-linecap:round;stroke-linejoin:round;" d="M364.491,397.352c0,0-3.506,1.273-9.262-1.222c-5.755-2.494-12.399-10.463-13.243-11.897c-1.462-4.865-4.638-16.799-8.104-21.722c-3.468-4.922-6.09-23.163-1.391-33.54c3.506-4.292,11.729-13.263,11.729-13.263s4.265,3.845,5.089,6.957c0.815,3.112-7.126,15.456-5.872,23.649c1.256,8.193,4.965,19.855,12.172,30.233C358.464,380.656,363.218,390.826,364.491,397.352z"></path></g></g><g id="leftXMLID_19_"><g><path style="fill:#3F3C3F;" d="M336.914,177.505c0.327,3.057,2.966,31.535,6.394,45.681c3.429,14.146,6.123,42.128,6.084,54.362c-0.049,12.242-1.597,22.966-3.586,30.127c-1.988,7.152,0.117,22.658,1.203,30.832c1.086,8.175,3.551,16.002,6.25,18.824c1.931,0.723,7.386,4.36,9.008,4.876c2.111-14.183,1.227-46.326,1.227-46.326s-5.352-8.99-7.281-18.6c-1.928-9.618-0.324-13.462,4.409-15.271c0.434-9.683-4.108-37.703-10.695-56.564c-6.577-18.861-4.548-45.633-3.131-55.205c4.056-12.422,27.449-40.687,28.183-41.569C374.33,129.152,350.269,147.247,336.914,177.505z"></path></g><g><path style="fill:#6E6E6E;" d="M348.272,255.954c0,0,1.572,0.556,1.568,2.819c-0.004,1.5-1.442,2.73-1.442,2.73L348.272,255.954z"></path><path style="fill:#6E6E6E;" d="M349.094,265.356c0,0,3.361-3.016,3.081-7.199c-0.281-4.183-4.309-5.269-4.309-5.269l0.189,1.656c0,0,2.247,1.262,2.586,3.816c0.34,2.555-1.833,5.076-1.833,5.076L349.094,265.356z"></path></g><path style="fill:#1B1B1B;" d="M363.493,315.881c0,0,0.033,38.544-1.227,46.326c-3.145-1.111-3.447-1.774-3.447-1.774L363.493,315.881z"></path><g><path style="fill:#6E6E6E;" d="M344.574,308.66c0.015,0.289,1.612,29.145,17.398,47.83l1.527-1.291c-15.354-18.175-16.914-46.355-16.928-46.639L344.574,308.66z"></path></g><path style="fill:#1B1B1B;" d="M344.837,310.665c0,0,0.057,30.576,7.504,45.888c2.521,2.173,8.051,4.436,8.051,4.436S349.802,350.101,344.837,310.665z"></path><path style="fill:#1B1B1B;" d="M360.141,282.208c0,0-7.173-2.197-11.222-18.633c0.946,14.952,2.287,26.426,6.779,30.08C354.921,289.416,353.118,286.444,360.141,282.208z"></path><path style="fill:#1B1B1B;" d="M355.519,244.196c0,0-6.229-4.984-11.176-14.603c-2.08-8.287-7.43-52.085-7.43-52.085s16.903-35.907,37.637-47.898c-8.387,9.617-28.387,39.554-28.387,39.554l-0.049,9.304c0,0-3.649,14.431,2.416,43.046C352.54,230.523,355.519,244.196,355.519,244.196z"></path><g><path style="fill:#6E6E6E;" d="M343.896,223.341c0,0,1.598,0.479,1.701,2.741c0.07,1.499-1.308,2.796-1.308,2.796L343.896,223.341z"></path><path style="fill:#6E6E6E;" d="M345.169,232.693c0,0,3.212-3.174,2.73-7.339c-0.482-4.165-4.559-5.055-4.559-5.055l0.27,1.646c0,0,2.306,1.151,2.768,3.687s-1.587,5.158-1.587,5.158L345.169,232.693z"></path></g><g><path style="fill:#6E6E6E;" d="M340.933,192.485c0.295,2.547-0.792,4.72-1.68,6.026l-0.296-2.595c0.378-0.917,0.657-2.043,0.455-3.153c-0.173-0.947-0.603-1.7-1.073-2.272l-0.268-2.35C339.252,188.834,340.661,190.142,340.933,192.485z"></path></g><g><path style="fill:none;stroke:#000000;stroke-linecap:round;stroke-linejoin:round;" d="M374.978,128.672c-0.733,0.883-24.127,29.147-28.183,41.569c-1.417,9.571-3.446,36.343,3.131,55.205c6.587,18.862,11.129,46.882,10.695,56.564c-4.733,1.809-6.337,5.652-4.409,15.271c1.93,9.609,7.281,18.6,7.281,18.6s0.885,32.144-1.227,46.326c-1.622-0.516-7.077-4.153-9.008-4.876c-2.699-2.822-5.164-10.649-6.25-18.824c-1.086-8.174-3.191-23.68-1.203-30.832c1.989-7.161,3.537-17.885,3.586-30.127c0.039-12.233-2.655-40.215-6.084-54.362c-3.428-14.146-6.066-42.625-6.394-45.681C350.269,147.247,374.33,129.152,374.978,128.672z"></path><path style="fill:none;stroke:#000000;stroke-linecap:round;stroke-linejoin:round;" d="M374.978,128.672c0.013-0.019,0.013-0.019,0.013-0.019"></path></g></g></g></g></g></svg>