<svg xmlns="http://www.w3.org/2000/svg" width="500" height="500" version="1.1"><g id="x9171"><g><g><path style="fill:#6E6E6E;stroke:#000000;stroke-linecap:round;stroke-linejoin:round;" d="M304.187,302.519c0,0-1.336,0.89-1.473,1.906c-0.136,1.017,1.628,7.274,0.469,9.992c-1.159,2.72-2.233,3.321-2.469,6.181c-0.231,2.859,2.887,6.664,3.103,9.317c0.217,2.656,0.467,6.044,0.963,6.847c0.497,0.804,1.716,1.298,1.716,1.298L304.187,302.519z M303.541,321.129c-0.352-0.817-0.241-1.764-0.108-2.065c0.108-0.243,0.7-0.181,0.905-0.13l-0.004,0.001c0.099,0.024,0.193,0.013,0.283-0.012c0.112,0.919,0.237,2.096,0.351,3.49c-0.055-0.055-0.121-0.099-0.197-0.127C304.197,322.082,303.783,321.693,303.541,321.129z M304.298,316.663c0,0,0.073,0.418,0.179,1.178c-0.316-0.063-0.726-0.084-1.11,0.017C303.845,317.154,304.298,316.663,304.298,316.663z M302.277,320.721c0.054,0.285,0.134,0.571,0.251,0.843c0.191,0.445,0.468,0.82,0.806,1.125c-0.032,0.075-0.136,0.229-0.46,0.442C302.524,322.341,302.29,321.487,302.277,320.721z M303.375,324.1c0.025-0.011,0.053-0.016,0.078-0.029c0.386-0.252,0.653-0.523,0.815-0.809c0.046,0.019,0.086,0.045,0.133,0.063c0.234,0.084,0.481-0.008,0.623-0.199c0.061,0.83,0.116,1.725,0.161,2.685C304.695,325.832,303.978,325.105,303.375,324.1z"></path><path style="fill:#6E6E6E;stroke:#000000;stroke-linecap:round;stroke-linejoin:round;" d="M307.105,338.031c0,0,1.166-0.606,1.585-1.453c0.42-0.847,0.353-4.243,0.321-6.905c-0.033-2.663,2.715-6.742,2.216-9.567c-0.501-2.825-1.627-3.323-3.034-5.923c-1.407-2.598-0.238-8.992-0.468-9.992c-0.23-1-1.645-1.761-1.645-1.761L307.105,338.031z M307.348,322.166c-0.075,0.034-0.135,0.085-0.186,0.145c-0.017-1.399-0.002-2.583,0.024-3.508c0.092,0.016,0.187,0.019,0.282-0.016h-0.002c0.197-0.068,0.781-0.187,0.911,0.044c0.161,0.289,0.359,1.222,0.086,2.066C308.275,321.482,307.899,321.909,307.348,322.166z M308.331,317.625c-0.392-0.064-0.797-0.007-1.106,0.087c0.034-0.767,0.067-1.189,0.067-1.189S307.789,316.97,308.331,317.625z M309.314,322.829c-0.342-0.183-0.46-0.326-0.499-0.396c0.309-0.336,0.547-0.734,0.697-1.197c0.09-0.279,0.145-0.571,0.171-0.861C309.742,321.139,309.587,322.012,309.314,322.829z M307.263,325.712c-0.045-0.959-0.072-1.854-0.088-2.688c0.156,0.178,0.411,0.246,0.638,0.14c0.046-0.021,0.082-0.051,0.125-0.075c0.19,0.27,0.48,0.516,0.889,0.729c0.025,0.012,0.054,0.013,0.079,0.021C308.4,324.897,307.754,325.688,307.263,325.712z"></path></g><polygon style="fill:#3D403F;stroke:#000000;stroke-linecap:round;stroke-linejoin:round;" points="310.603,408.155 311.889,406.166 310.748,399.465 305.725,292.202 303.708,292.296 308.73,399.56 308.222,406.337 309.687,408.197 307.996,410.344 311.501,437.146 312.486,410.134 "></polygon></g></g></svg>