<svg xmlns="http://www.w3.org/2000/svg" width="500" height="500" version="1.1"><g id="x9172"><g><g><path style="fill:#1E160E;stroke:#000000;stroke-linecap:round;stroke-linejoin:round;" d="M289.266,382.156c1.938-1.719,5.625-2.219,5.625-2.219s0.375,2.406-0.563,4.094c-0.938-0.531-2.969-0.531-3.156-0.469c0,0,0.406,2.25,0.156,3.344c-0.469,0.125-0.75,0-0.75,0s-0.969,0.594-1.531,0.563s-1.031-0.344-1.031-0.344s0.063,1.688-0.531,2.094s-2.5,0.594-2.531,0.75S285.828,384.906,289.266,382.156z"></path><path style="fill:#3C342C;stroke:#000000;stroke-linecap:round;stroke-linejoin:round;" d="M299.756,367.75c0,0,2.583,1.666,2.5,6.333c-0.5,1.584-1.418,3.334-1.418,3.334s-0.499-0.834-1.082-0.834c-0.334-1.166-1.918-2.75-2.418-3.25c0.584,1.584,0.168,3,0.168,3s-1.584-0.582-3.75,0.334c-2.168,0.916-6.917,10.166-7.25,11.166c-0.168,1.084-0.168,1.834-0.168,1.834s-3.75,4.084-3.916,12c-1.25-4.417-0.917-10.834-0.584-12.667c0.584-1,1-1.5,1-1.5s2.334-10.333,6.834-17.083c2,1.666,4.416,1.583,6.916,0.833S299.756,367.75,299.756,367.75z"></path><path style="fill:#1E160E;" d="M299.849,368.333c0,0-0.5,4.5-3,5S292.047,372,292.047,372s-5.375,4.625-8.865,16.166c-0.666,0.667-0.666,0.667-0.666,0.667s-1,7.333-0.334,10c0.5-3.333,4-9.833,4-9.833s1.406-6.906,7.74-12.906c3.666-0.5,6.906,0.469,6.906,0.469s0.854-1.563,0.854-2.729S299.849,368.333,299.849,368.333z"></path><path style="fill:#6E6E6E;stroke:#000000;stroke-linecap:round;stroke-linejoin:round;" d="M300.172,376.813l-2.125-0.25l-1.25-4.313C296.797,372.25,299.484,374.125,300.172,376.813z"></path><path style="fill:#6E6E6E;stroke:#000000;stroke-linecap:round;stroke-linejoin:round;" d="M315.609,353.063c0,0-1.25-0.25-2.75-0.063c-0.875,1.875-0.25,7.625-0.125,7.188S315.609,353.063,315.609,353.063z"></path><path style="fill:#3C342C;stroke:#000000;stroke-linecap:round;stroke-linejoin:round;" d="M321.547,350.063c0,0,0.813-2.188,0.75-2.813c-1.375-0.5-3.188-1.5-3.188-1.5s-0.438,3.75-3.563,6.813c-1.813,3-2.625,5.938-2.813,6.313c-0.563-2.563,0.25-6.313,0.25-6.313s-2.938,6-5.563,7.063c-1,1.188-2.188,2.313-3.25,2.438c0.125,0.5-0.688,2-0.688,2l-1.188-0.563c0,0-0.813,1.938-1.625,2.375c0.375,1.188,1.25,5.313,2.875,7.688c0.188-2.688,0.875-5.25,2.125-6.25c0.063-0.813,1.313-2.75,2.875-3c1.125-0.625,5.125-0.938,6.625-0.188C315.922,364,320.797,354.188,321.547,350.063z"></path><path style="fill:#1E160E;" d="M313.172,360.125l2.25,0.375c0,0-0.25,2.125-0.875,3c-1.125-0.5-6.25,0-7.625,1.125S303.297,372,303.297,372s-2.25-4.75-2.125-5.75c0.375-0.625,1.25-1.875,1.25-1.875l1.344,0.969l0.656-2.969c0,0,2.75-1.75,3-2.25c1.375-0.625,4.25-4.375,4.75-5.25c2-0.5,3.25-1.625,3.25-1.625L313.172,360.125z"></path><path style="fill:#6E6E6E;stroke:#000000;stroke-linecap:round;stroke-linejoin:round;" d="M321.297,350.25l0.375,0.625c0,0-3.313,11.063-6.563,12.75C318.047,354,321.297,350.25,321.297,350.25z"></path><path style="fill:#3C342C;stroke:#000000;stroke-linecap:round;stroke-linejoin:round;" d="M323.172,348.5c0,0-5.375,8.75-6.375,15.25c0.375,0.375,2.688,0.875,2.688,0.875s0.438-0.563,0.625-0.5s2.563-0.875,2.563-0.875s1.563-2.875,1.938-4.063s4.063-13.375,4.063-13.375s-1.063,2.188-3,2.75S323.172,348.5,323.172,348.5z"></path><path style="fill:#1E160E;" d="M322.297,358.375c0,0-1.25,2.875-1.375,5c-1,0.25-1.375,0.625-1.375,0.625l-2.25-0.75c0,0,1-4.125,1.875-5.625C319.922,358.5,322.297,358.375,322.297,358.375z"></path><path style="fill:#6E6E6E;stroke:#000000;stroke-linecap:round;stroke-linejoin:round;" d="M324.984,357.313c0,0-2.25,6.063-3.563,6.563c0.625-3.938,2.625-8.375,3.688-10.313C324.984,356.5,324.984,357.313,324.984,357.313z"></path><path style="fill:#3C342C;stroke:#000000;stroke-linecap:round;stroke-linejoin:round;" d="M328.672,345.938c-0.188,0.125-3.063,4.688-4.375,10.125s0.25,9.5,0.25,9.5l3.375,1.625l1.563-1.875L328.672,345.938z"></path><path style="fill:#1E160E;" d="M324.297,360c0,0,0,3.75,0.5,5c0.875,0.75,2.625,1.375,2.625,1.375s-1.5-4.625-1.125-6C325.297,360.25,324.297,360,324.297,360z"></path><path style="fill:#6E6E6E;stroke:#000000;stroke-linecap:round;stroke-linejoin:round;" d="M328.422,358.375l-1-2.438c0,0-0.813,7.25,0.5,11.125c0.75-0.375,1.563-1.188,1.563-1.188s0-9.813,1.375-15.438C329.172,353.375,328.422,358.375,328.422,358.375z"></path><g><g id="leftXMLID_18_"><g><path style="fill:#3C342C;" d="M329.802,366.88c0.37,0.811,2.62,3,2.62,3c0.62-10.76,5.5-16.13,8.5-14.13s3.25,6.63,3.5,12.63c30.38-28,14.92-57.86,14.12-77.26c-1.12-27.5,16-45,24.26-51.12c-35.5,16-36.5,48.31-36.44,51.62c5.181,3.76,5.311,13.76,6.561,17.82c-1.061,2.869-1.311,8.31-1.62,11.5c-1.69,2.31-2.88,6.369-3.38,8.31c-0.939,0.37-2.25,2.56-6,5.5s-8.75,1.5-11.25,0.63c0.37,9.311-2.63,14.5-3.311,18.12C327.232,354.75,329.361,365.19,329.802,366.88z"></path></g><path style="fill:#1E160E;" d="M351.297,291.625l-4.375-1.75l-0.25,1.625c0,0,2.375,1.375,4,6.125c0.125-0.25,0.375-0.75,1-0.625s2.25,2.125,2.25,2.125L351.297,291.625z"></path><path style="fill:#1E160E;" d="M331.047,335.75c0,0,4.5,6.875,13.375,3.25c0.125-0.5,0.75-1.25,0.75-1.25S335.047,338.875,331.047,335.75z"></path><path style="fill:#1E160E;" d="M339.047,354.5c0,0-6,2.125-6.875,13.625c-0.875-0.625-1.875-1.375-1.875-1.375S329.922,358.25,339.047,354.5z"></path><g><path style="fill:none;stroke:#000000;stroke-linecap:round;stroke-linejoin:round;" d="M344.734,342.75c0,0-2.354,1.875-5.646,0.708c-3.291-1.167-5.75-4.292-5.75-4.292s-4.479,16.271-4.666,21.584"></path><path style="fill:#6E6E6E;stroke:#000000;stroke-linecap:round;stroke-linejoin:round;" d="M337.703,342.781c-0.156,0-1.469-0.594-3.656-1.25c-0.375,0.563-1.406,2.906-2.094,3.969c0.375-2.625,1.313-6.531,1.313-6.531L337.703,342.781z"></path><path style="fill:none;stroke:#000000;stroke-linecap:round;stroke-linejoin:round;" d="M342.172,349.541c0,0-4.625,0-7.667-3.625c-0.792,1-4.792,10.209-4.583,20.167"></path><path style="fill:#6E6E6E;stroke:#000000;stroke-linecap:round;stroke-linejoin:round;" d="M335.703,347.125c0,0-3.469,4.875-3.969,6.063c0.313-2.594,2.719-7.25,2.719-7.25L335.703,347.125z"></path><path style="fill:none;stroke:#000000;stroke-linecap:round;stroke-linejoin:round;" d="M339.422,354.083c0,0-2.209-0.375-3.75-2.458c-0.667,0.75-4.625,7.125-4.584,16.375"></path><path style="fill:#6E6E6E;stroke:#000000;stroke-linecap:round;stroke-linejoin:round;" d="M336.641,352.719c0,0-2.813,2.438-3.281,3.438c0.688-2.406,2.125-4.875,2.125-4.875L336.641,352.719z"></path></g><g><path style="fill:#ECECEC;" d="M342.172,356.25c0,0,1.875,2.26,2.25,12.13c3.875-3.005,17.75-17.005,18.625-36.255s-3.742-28.008-4.25-40.25c-1.375-33.125,22-50.75,22-50.75s-15,6.625-22.25,17c-4,7.625-8.75,18.125-7.75,32.375c2.75,6.875,8.018,15.835,6.625,35.125C355.797,348.125,342.172,356.25,342.172,356.25z"></path><path style="fill:#B5B5B5;" d="M365.047,260c0,0,0.625-2.875-1.125-3.625s-2.625-0.25-2.625-0.25s8.25-9.5,17.375-13.375C372.797,247.125,365.047,260,365.047,260z"></path><path style="fill:#B5B5B5;" d="M358.672,299.75c0.623,4.608,1.615,8.909,2.375,12.125c0,0-2.5-1.625-3,1.25c-0.25-4.125-3-16.875-6.625-22.375c2.625,1.5,6.25-1.625,6.25-1.625S357.963,294.507,358.672,299.75z"></path><path style="fill:#B5B5B5;" d="M361.047,338.5c0,0-0.25,5-3.25,10c1.125-3.5-2.75-4.875-4.75-3.375c2.5-3.875,3.75-10.25,3.75-10.25s0.375,3.125,2.25,4.25S361.047,338.5,361.047,338.5z"></path></g><g><path style="fill:none;stroke:#000000;stroke-linecap:round;stroke-linejoin:round;" d="M332.422,369.88c0,0-2.25-2.189-2.62-3c-0.44-1.689-2.569-12.13-2.44-13.38c0.681-3.62,3.681-8.81,3.311-18.12c2.5,0.87,7.5,2.311,11.25-0.63s5.061-5.13,6-5.5c0.5-1.94,1.689-6,3.38-8.31c0.31-3.19,0.56-8.631,1.62-11.5c-1.25-4.061-1.38-14.061-6.561-17.82c-0.06-3.311,0.94-35.62,36.44-51.62c-8.26,6.12-25.38,23.62-24.26,51.12c0.8,19.399,16.26,49.26-14.12,77.26c-0.25-6-0.5-10.63-3.5-12.63S333.042,359.12,332.422,369.88z"></path></g></g><path style="fill:none;stroke:#000000;stroke-linecap:round;stroke-linejoin:round;" d="M341.797,356.25c0,0,13-7.75,15.25-28.625c2.17-20.134-4.75-32.75-6-36.75s0-20.826,8.125-33.076"></path></g></g><g><g><g><circle style="fill:#3C342C;stroke:#000000;stroke-linecap:round;stroke-linejoin:round;" cx="288.891" cy="395.531" r="3.375"></circle><circle style="fill:#1E160E;" cx="288.773" cy="395.7" r="2.552"></circle><circle style="fill:#3C342C;" cx="291.081" cy="395.668" r="0.719"></circle><path style="fill:#6E6E6E;stroke:#000000;stroke-linecap:round;stroke-linejoin:round;" d="M286.669,397.742c0,0,1.784,0.15,2.237-1.497c0.564,0.259,0.887-0.163,0.887-0.163s0.332-1.009-0.605-1.407c-0.936-0.397-1.564,0.334-1.564,0.334l0.359,0.489c0,0-0.578,1.293-1.742,1.376C286.195,397.306,286.669,397.742,286.669,397.742z"></path></g><g><circle style="fill:#3C342C;stroke:#000000;stroke-linecap:round;stroke-linejoin:round;" cx="292.047" cy="390.844" r="3.375"></circle><circle style="fill:#1E160E;" cx="292.151" cy="391.021" r="2.552"></circle><circle style="fill:#3C342C;" cx="293.078" cy="388.906" r="0.719"></circle><path style="fill:#6E6E6E;stroke:#000000;stroke-linecap:round;stroke-linejoin:round;" d="M293.141,393.781c0,0,0.875-1.563-0.438-2.656c0.469-0.406,0.219-0.875,0.219-0.875s-0.781-0.719-1.531-0.031s-0.344,1.563-0.344,1.563l0.594-0.125c0,0,0.938,1.063,0.531,2.156C292.547,394.031,293.141,393.781,293.141,393.781z"></path></g></g><g><path style="fill:#1E160E;stroke:#000000;stroke-linecap:round;stroke-linejoin:round;" d="M330.338,374.25c0,0.25-0.582,4.917-1.082,5.167s-1.25,0-1.25,0l-0.418,1.833c0,0,1.751,0.167,2.168,0.417c-0.5,3.166-2.25,12.5-2.584,14.333c0.416,0.667,2.167,1.833,0.834,4c0.25,1.167,0.916,4.001-1.168,5.667c0,2,0.834,6.416,0,8.416c1.918-4.75,3.918-23.082,3.834-25.666c-0.416-1.25-0.583-3.084-0.416-3.334c0.166-0.25,0.916-2.166,0.916-2.166s0-2.334,0.334-3.584c0.25,1.334,1.082,3.5,1.082,3.5s-0.5,0.833-0.25,2.5s1.084,3.834,1.168,5.917c0.916-4-0.25-7.417-0.084-9s0.166-2.333,0.166-2.333l-1-1.167c0,0-0.082-2.249,0.584-3.083c-0.334-3-0.75-6.584-0.75-6.584l-0.916-1L330.338,374.25z"></path><path style="fill:#1E160E;stroke:#000000;stroke-linecap:round;stroke-linejoin:round;" d="M331.172,368.75c-0.084,0.583-7.17,29.497-25.916,33.75c-9.918,2.25-13.334-7.333-13.334-7.333l-0.75,1.583c0,0,2.916,8.583,13,7.167C325.598,400.908,331.172,368.75,331.172,368.75z"></path><path style="fill:#1E160E;stroke:#000000;stroke-linecap:round;stroke-linejoin:round;" d="M321.338,397.167c0.479,0.148-2.082,10.667-9.332,11.5c0.582-0.5,0.582-0.834,0.582-0.834S319.672,404.167,321.338,397.167z"></path><path style="fill:#1E160E;stroke:#000000;stroke-linecap:round;stroke-linejoin:round;" d="M327.922,379.833c0.081-0.324-3,9.916-3.666,10.75c-1,0.667-1.584,0.584-1.584,0.584s-0.5,1.916-1,2.833s-6.5,14.083-16.166,14.583c-9.668,0.5-12.668-7.666-13.668-10.333c-0.75-0.417-1.582-0.083-1.582-0.083s1.583,11.5,15.25,12.083c4.416,0.083,5.832-0.417,6.416-0.75s9.25-13.001,11.166-14.667C325.756,391.5,326.756,384.499,327.922,379.833z"></path></g></g><path style="fill:none;stroke:#000000;stroke-linecap:round;stroke-linejoin:round;" d="M352.922,309.44c0,0,3.098,9.042,2.25,17.185c-2.25,21.625-14.5,28.625-14.5,28.625"></path><path style="fill:#6E6E6E;stroke:#000000;stroke-linecap:round;stroke-linejoin:round;" d="M352.859,311.5c0,0.188,0.438,5.313,2.125,7.625c0.438-2.188-0.813-8.75-2.063-11.063C352.859,309.438,352.859,311.5,352.859,311.5z"></path><path style="fill:#6E6E6E;stroke:#000000;stroke-linecap:round;stroke-linejoin:round;" d="M355.422,325.188c0,0.188,1,4.938-1.438,9.438C353.609,328.938,355.422,325.188,355.422,325.188z"></path><path style="fill:none;stroke:#000000;stroke-linecap:round;stroke-linejoin:round;" d="M351.322,320.938c0,0,0.6,18.563-11.275,33.938"></path><path style="fill:none;stroke:#000000;stroke-linecap:round;stroke-linejoin:round;" d="M338.997,355.324c6.341-6.699,7.112-22.762,8.862-25.887"></path><path style="fill:none;stroke:#000000;stroke-linecap:round;stroke-linejoin:round;" d="M345.922,337.438c0,0-6.584,2.896-13.834-1.563"></path><path style="fill:#6E6E6E;stroke:#000000;stroke-linecap:round;stroke-linejoin:round;" d="M346.935,332.188c0,0-1.75,3.625-2.125,5.438s-0.063,5.438,0,4.938S346.872,337.188,346.935,332.188z"></path><path style="fill:#6E6E6E;stroke:#000000;stroke-linecap:round;stroke-linejoin:round;" d="M350.722,329.162c-0.063,0.188,0.438,5.188-0.313,7.438s-2.625,3.813-2.625,3.813L350.722,329.162z"></path><path style="fill:#6E6E6E;stroke:#000000;stroke-linecap:round;stroke-linejoin:round;" d="M309.641,359.031c0,0,0.813,1.969-0.219,4.25C308.453,362.844,308.266,359.75,309.641,359.031z"></path><path style="fill:#6E6E6E;stroke:#000000;stroke-linecap:round;stroke-linejoin:round;" d="M306.859,360.875c0,0,0.783,1.65-0.281,3.563C305.615,364.071,305.474,361.478,306.859,360.875z"></path><path style="fill:#6E6E6E;stroke:#000000;stroke-linecap:round;stroke-linejoin:round;" d="M305.016,368.031c-0.063-0.313-1.281-3.188-1.25-2.688s0.125,5.969,0.125,5.969L305.016,368.031z"></path></g></g></svg>