<svg xmlns="http://www.w3.org/2000/svg" width="500" height="500" version="1.1"><g id="x9173"><g><path style="fill:#060405;stroke:#000000;stroke-linecap:round;stroke-linejoin:round;" d="M367.428,401.95c0.39,0.171,2.315,1.633,3.689,1.276c0.064,1.066,0.557,3.315,2.566,3.445c3.023,0.195,3.293-3.796,3.017-4.706c2.086,0.657,3.299,1.105,3.299,1.105l11.45,18.895l-11.329,4.346l-19.371-14.898L367.428,401.95z"></path><path style="fill:#413F40;" d="M376.584,417.594c0,0,5.111-0.523,5.923-1.022c-0.024-1.699-1.208-5.442-1.208-5.442s-6.114,0.427-6.33,0.733C374.872,412.865,376.584,417.594,376.584,417.594z"></path><g><circle style="fill:#CC0300;" cx="380.72" cy="420.513" r="1.312"></circle><circle style="fill:#CC0300;" cx="372.607" cy="414.556" r="1.312"></circle><ellipse transform="matrix(0.5764 -0.8171 0.8171 0.5764 -178.174 484.7341)" style="fill:#CC0300;" cx="378.495" cy="414.236" rx="1.844" ry="2.188"></ellipse></g><path style="fill:#6E6E6E;" d="M374.71,420.248l1.526,0.006l-0.607-1.959l-3.184-0.257C373.046,418.921,374.71,420.248,374.71,420.248z"></path><path style="fill:#6E6E6E;" d="M385.979,421.623c0,0-2.601-5.201-2.811-6.42c1.447,1.633,3.364,3.903,3.364,3.903l1.789,3.1L385.979,421.623z"></path><path style="fill:#6E6E6E;" d="M366.246,412.946c0.078,0.106,1.727,1.169,1.877,1.173s0.385-0.545,0.385-0.545s-1.757-1.343-1.921-1.254C366.422,412.409,366.246,412.946,366.246,412.946z"></path><path style="fill:#6E6E6E;" d="M364.736,412.341l0.989,0.188l0.084-0.552c0,0-1.775-0.591-2.162-0.406C364.047,412.16,364.736,412.341,364.736,412.341z"></path><path style="fill:#6E6E6E;" d="M370.67,409.644c0,0,1.778,0.95,2.055,0.991c0.275,0.042,5.153,0.067,5.375-0.029c0.251-0.283-0.134-0.606-0.134-0.606l-5.232-0.174l-1.792-0.856c0,0-0.482,0.322-0.34,0.626"></path><path style="fill:#F5F5F5;stroke:#000000;stroke-linecap:round;stroke-linejoin:round;" d="M485,492.898c0,0-16.867-7.316-32.233-16.326c-15.366-9.012-57.359-39.05-65.189-42.039c-8.497-3.243-10.365-0.814-10.365-0.814l-0.159-5.085l18.217-2.544c0,0-18.309-17.412-18.117-24.62c2.428-2.57,4.494-3.765,4.494-3.765s5.791,13.472,28.506,32.158c22.715,18.688,47.064,37.356,52.31,41.209C469.582,476.303,485,492.898,485,492.898z"></path><polygon style="fill:#D2D2D2;" points="377.672,432.743 377.49,429.096 379.798,428.43 379.906,432.179 "></polygon><path style="fill:#D2D2D2;" d="M378.248,403.314c0,0-0.457-1.087-0.301-1.742c1.4-1.767,3.791-2.986,3.791-2.986l0.984,2.072C381.811,401.086,378.248,403.314,378.248,403.314z"></path><path style="fill:#3B3939;stroke:#000000;stroke-linecap:round;stroke-linejoin:round;" d="M445.247,462.368c3.804,2.991,7.833,7.978,7.833,7.978s-6.047-2.126-10.141-4.708c-4.092-2.584-43.349-29.051-43.349-29.051l9.345-0.666C408.936,435.921,441.441,459.377,445.247,462.368z"></path><g><path style="fill:#6E6E6E;" d="M403.514,436.448l34.383,24.12c-0.041-0.031-0.088-0.054-0.137-0.068l3.509,1.099c-0.203-0.063-0.423,0.007-0.55,0.176c-0.127,0.17-0.135,0.399-0.018,0.576l-2.066-3.142c0.033,0.052,0.078,0.097,0.129,0.134l-30.432-21.481l0,0c-0.227-0.16-0.279-0.471-0.12-0.697c0.159-0.226,0.47-0.279,0.696-0.119l0,0l30.433,21.481c0.05,0.035,0.095,0.081,0.129,0.134l2.066,3.142c0.116,0.175,0.108,0.407-0.019,0.574c-0.127,0.169-0.348,0.239-0.549,0.177l-3.508-1.1c-0.049-0.014-0.096-0.037-0.138-0.067l-34.386-24.119l0,0c-0.227-0.159-0.28-0.472-0.121-0.696C402.977,436.344,403.288,436.29,403.514,436.448L403.514,436.448z"></path></g><path style="fill:#231F20;stroke:#000000;stroke-linecap:round;stroke-linejoin:round;" d="M364.117,388.289c-4.037,0.517-13.035,0.694-13.289,0.616c-0.252-0.074-10.184-2.189-10.98-2.65c-0.797-0.46-12.518-7.408-12.771-7.485c-0.187-0.056-5.76-0.458-8.651-0.662l-11.117-5.436c0,0,4.117,8.617,4.458,8.858c3.745,2.643,20.669,14.792,20.669,14.792l-0.965,0.646c0,0,16.323,12.134,17.641,12.146c1.152,0.011,7.476-2.106,9.04-2.637l0.091,0.106l10.861-1.515C369.104,405.069,364.261,391.554,364.117,388.289z M350.104,392.679c0.967,1.09,1.842,2.015,1.459,2.56c-0.385,0.544-2.066,1.192-2.066,1.192l-0.857-0.809l-6.868,1.782c0,0-19.743-13.937-20.083-14.177c-0.25-0.176-1.545-2.68-2.217-4.004c3.76,1.698,10.23,4.641,11.932,5.558c6.928,3.769,10.272,5.823,10.272,5.823S349.628,392.342,350.104,392.679z"></path><path style="fill:#6E6E6E;" d="M347.068,400.125c0.152,0.107,4.01,2.447,4.055,2.709c0.045,0.261,0.104,0.609-0.258,0.582c-0.363-0.027-5.322-3.299-5.17-3.19c0.154,0.108-0.426,0.389-0.426,0.389s6.836,5.055,7.266,5.204c0.43,0.151,8.166-1.272,8.911-1.896c-0.139-1.32-0.517-2.735-0.517-2.735l-10.99-3.396L347.068,400.125z"></path><g><path style="fill:#D2D0D1;stroke:#000000;stroke-linecap:round;stroke-linejoin:round;" d="M377.053,428.634c-0.045-0.261-3.473-3.752-5.674-5.076l1.544-0.67c0,0-1.655-3.616-5.208-6.277c-3.554-2.66-6.699-3.732-6.699-3.732s-7.394,1.588-9.379,1.258c-1.564-0.493-2.576-0.9-2.576-0.9s-20.521-14.716-21.031-15.076c0.176-0.793,2.928-1.222,2.928-1.222c2.379,1.832,14.441,9.888,15.744,10.426c1.304,0.537,18.977-2.824,18.977-2.824s4.697,4.617,6.25,6.861c-0.963,0.389-4.594,0.657-4.594,0.657s-2.008-1.493-2.422-1.555c-0.414-0.064-2.418,0.281-2.865,0.806c2.066,0.542,11.242,6.941,14.469,10.825c0.85-0.012,1.423-0.066,1.423-0.066s2.511,2.079,4.31,1.59c1.801-0.489,1.878-2.118,1.878-2.118l5.419-0.306c0,0,17.727,14.119,20.466,15.441c-0.622,0.555-0.817,0.725-0.817,0.725s-9.293-0.058-10.653-0.405c-1.571-1.568-3.676-3.896-3.676-3.896s-3.098-0.275-4.005-0.074c-0.508-1.123-2.576-3.5-2.576-3.5L377.053,428.634z"></path><path style="fill:#FFFFFF;" d="M346.627,410.829l-9.805-6.921c0,0,6.969,4,7.684,4.506C345.221,408.919,346.627,410.829,346.627,410.829z"></path><path style="fill:#FFFFFF;" d="M352.033,413.574c0,0-2.955-1.016-2.649-0.8c0.307,0.217,10.717-1.309,10.717-1.309l0.673,0.781C360.773,412.247,354.867,413.892,352.033,413.574z"></path><polygon style="fill:#FFFFFF;" points="377.72,428.34 378.309,427.072 395.885,428.616 398.678,429.212 "></polygon><polygon style="fill:#8C8B8A;" points="397.549,435.146 396.07,433.338 404.295,433.176 406.367,434.792 "></polygon><polygon style="fill:#8C8B8A;" points="389.541,429.8 390.377,431 402.12,431.486 400.66,430.304 "></polygon><polygon style="fill:#FFFFFF;" points="403.479,432.599 402.12,431.486 390.887,431.361 391.242,432.377 "></polygon><path style="fill:#8C8B8A;" d="M372.475,423.414l5.464-1.347c0,0,1.301,2.602,4.16,2.019c2.859-0.581,2.313-2.191,2.313-2.191l4.59-0.433l10.159,7.844l-3.275-0.689l-6.933-5.353l-2.601-0.001c0,0-1.105,2.434-3.82,2.812c-2.715,0.379-5.041-2.179-5.041-2.179l-3.249,0.917L372.475,423.414z"></path><path style="fill:#8C8B8A;" d="M370.997,411.201c0,0-3.321-4.181-5.526-6.044c-3.033,0.613-18.25,2.88-18.628,2.764c-1.268-0.588-15.984-10.518-15.984-10.518l-1.263,0.486c0,0,15.697,10.927,18.172,11.756c3.736,0.343,17.596-3.033,17.596-3.033l4.517,4.871L370.997,411.201z"></path><line style="fill:none;stroke:#000000;stroke-linecap:round;stroke-linejoin:round;" x1="361.016" y1="412.878" x2="362.047" y2="411.309"></line><path style="fill:none;stroke:#000000;stroke-linecap:round;stroke-linejoin:round;" d="M394.864,433.099c0,0,8.181,0.113,9.954-0.014"></path><path style="fill:none;stroke:#000000;stroke-linecap:round;stroke-linejoin:round;" d="M387.883,429.547c0,0,9.113,0.313,12.165,0.325"></path></g><path style="fill:#D2D0D1;stroke:#000000;stroke-linecap:round;stroke-linejoin:round;" d="M351.418,404.112c0,0,15.814-2.607,16.799-3.136c-3.088-1.262-11.35-4.441-12.338-4.629c-0.988-0.188-7.044-0.281-7.861-0.858c-0.816-0.575-6.496-4.381-6.496-4.381s-6.443,1.47-6.404,1.703c0.041,0.232,5.359,3.68,5.359,3.68s1.213-1.284,2.847-0.132c1.634,1.153,0.773,3.096,0.773,3.096l2.315,1.634c0,0,1.236-2.187,3.279-0.745S351.418,404.112,351.418,404.112z"></path><path style="fill:#8C8B8A;" d="M344.789,399.126c0,0,0.233-2.281-1.195-3.292c-1.43-1.008-3.022,0.163-3.022,0.163c-0.036-1.25,1.832-2.379,4.241-0.372c2.408,2.006,1.327,3.538,1.327,3.538L344.789,399.126z"></path><path style="fill:#8C8B8A;" d="M352.063,403.344c0,0-0.406-2.43-1.85-3.447c-2.145-1.515-3.82,0.21-3.82,0.21l0.414-1.236c0,0,1.881-1.581,4.361,0.323c2.48,1.903,1.965,3.07,1.965,3.07L352.063,403.344z"></path><polygon style="fill:#8C8B8A;" points="366.348,400.882 355.673,396.712 348.507,396.244 341.244,391.576 339.604,391.948 348.369,397.523 354.851,397.66 364.258,401.241 "></polygon><g><path style="fill:#D2D0D1;stroke:#000000;stroke-linecap:round;stroke-linejoin:round;" d="M279.972,345.725c0,0-6.788-5.559-7.768-6.555c-0.401,0.787-0.822,0.949-0.822,0.949s4.788,6.438,5.677,6.914c0.889,0.475,2.914,1.291,2.914,1.291L279.972,345.725z"></path><g><path style="fill:#FFFFFF;stroke:#000000;stroke-linecap:round;stroke-linejoin:round;" d="M272.914,341.2c0,0-4.218-0.528-4.627-0.816c-1.549-1.707-6.752-4.308-10.969-2.236c2.151-2.612,7.93-6.03,12.477-3.586c2.163,2.14,3.635,5.473,3.635,5.473L272.914,341.2z"></path><path style="fill:#D3CFCE;" d="M268.475,339.903c0,0,3.479,0.925,3.898,0.762c0.36-0.51,0.36-0.51,0.36-0.51s-1.082-3.671-3.328-5.256c-1.472-0.733-4.308-1.052-6.104-0.023c2.325-0.044,5.652,2.612,5.652,2.612L268.475,339.903z"></path></g></g><path style="fill:#353334;stroke:#000000;stroke-linecap:round;stroke-linejoin:round;" d="M328.871,382.587c0,0-20.588-9.128-21.201-9.56c-0.613-0.433-3.02-4.681-3.02-4.681l-7.304-3.524l-2.96,2.602l-5.438-2.41c0,0-9.771-13.323-11.173-19.719c6.74,1.289,12.189,2.382,12.189,2.382s5.828,9.521,14.722,14.982c8.895,5.462,19.555,9.724,19.555,9.724L328.871,382.587z"></path><path style="fill:#070707;stroke:#000000;stroke-linecap:round;stroke-linejoin:round;" d="M310.512,370.954c0.323,0.228,10.909,4.486,11.287,4.601c0.379,0.114,0.589-1.267,0.324-1.759c-0.264-0.493-12.584-5.364-12.584-5.364S309.593,370.305,310.512,370.954z"></path><path style="fill:#070707;stroke:#000000;stroke-linecap:round;stroke-linejoin:round;" d="M291.812,360.813c0,0,1.124,3.395,0.745,3.279c-0.379-0.113-3.406-1.026-3.406-1.026L291.812,360.813z"></path><path style="fill:#070707;stroke:#000000;stroke-linecap:round;stroke-linejoin:round;" d="M284.525,351.845c0,0-1.641-2.228-1.441-3.159c2.313,0.409,5.094,1.454,5.094,1.454L284.525,351.845z"></path><circle style="fill:#FFFFFF;stroke:#000000;stroke-linecap:round;stroke-linejoin:round;" cx="319.567" cy="374.056" r="1.938"></circle></g></g></svg>