<svg xmlns="http://www.w3.org/2000/svg" width="500" height="500" version="1.1"><g id="x9175"><g><g><g><path style="fill:#C4CBD3;stroke:#000000;stroke-linecap:round;stroke-linejoin:round;" d="M360.314,351.687c0,0,2.979-5.371,0.947-8.287c-0.765-0.782-1.99-1.215-1.99-1.215s-4.207,0.793-6.258,4.517C355.438,348.762,360.314,351.687,360.314,351.687z"></path></g><g><path style="fill:#FFFFFF;" d="M359.501,351.078L359.501,351.078c0.017-0.043,1.718-4.341,1.16-6.435c-0.054-0.193-0.159-0.396-0.56-0.436c-1.454-0.142-4.872,2.071-5.9,4.172l0,0c-0.109,0.221-0.375,0.312-0.596,0.204c-0.219-0.108-0.311-0.374-0.203-0.594l0,0c1.141-2.329,4.818-4.858,6.785-4.667c0.689,0.067,1.16,0.455,1.33,1.092c0.636,2.377-1.117,6.806-1.192,6.994l0,0c-0.091,0.228-0.35,0.339-0.577,0.247S359.41,351.306,359.501,351.078L359.501,351.078z"></path></g></g><g><g><path style="fill:#6E6E6E;stroke:#000000;stroke-linecap:round;stroke-linejoin:round;" d="M305.852,431.741l-0.273-0.171c0.15-0.024,0.301-0.051,0.457-0.085L305.852,431.741z"></path><path style="fill:#6E6E6E;stroke:#000000;stroke-linecap:round;stroke-linejoin:round;" d="M362.248,352.745l-0.125,0.174c-0.014-0.095-0.023-0.191-0.04-0.283L362.248,352.745z"></path><line style="fill:#6E6E6E;stroke:#000000;stroke-linecap:round;stroke-linejoin:round;" x1="362.083" y1="352.636" x2="355.96" y2="348.57"></line><line style="fill:#6E6E6E;stroke:#000000;stroke-linecap:round;stroke-linejoin:round;" x1="299.819" y1="427.983" x2="305.578" y2="431.57"></line><g><path style="fill:#ADB4BB;stroke:#000000;stroke-linecap:round;stroke-linejoin:round;" d="M350.295,344.385c0.402,0.287,0.737,0.659,1.016,1.097l4.649,3.089c-8.164,1.598-22.82,14.876-36.18,33.508c-13.86,19.332-21.815,38.138-19.961,45.905l-6.543-4.075c-5.972-4.281,1.952-25.555,17.697-47.514C326.719,354.435,344.324,340.103,350.295,344.385z"></path><path style="fill:#8F969D;" d="M355.217,348.488l-4.167-2.716c0,0-2.122-3.159-7.05-0.696c-3.156,0.857-7.101,4.692-7.101,4.692s7.518,0.681,7.174,5.704C350.044,351.989,355.217,348.488,355.217,348.488z"></path><path style="fill:#8F969D;" d="M304.252,410.227c0,0-5.451,3.604-10.059-2.421c-0.855,2.37-3.789,9.778-1.742,14.86c1.971,1.479,6.451,3.762,6.451,3.762L304.252,410.227z"></path><path style="fill:#4E555A;stroke:#000000;stroke-linecap:round;stroke-linejoin:round;" d="M319.78,382.078c13.359-18.632,28.016-31.91,36.18-33.508l6.123,4.065c0.017,0.092,0.026,0.188,0.04,0.283l-56.088,78.566c-0.156,0.034-0.307,0.061-0.457,0.085l-5.759-3.587C297.965,420.216,305.92,401.41,319.78,382.078z"></path></g></g><ellipse transform="matrix(-0.8127 -0.5827 0.5827 -0.8127 376.4937 904.6599)" style="fill:#4E555A;stroke:#000000;stroke-linecap:round;stroke-linejoin:round;" cx="333.639" cy="391.822" rx="13.304" ry="48.926"></ellipse><path style="fill:#6E6E6E;" d="M326.031,386.195c-13.781,19.22-21.255,37.455-16.69,40.727c4.564,3.273,19.435-9.654,33.22-28.875c13.779-19.22,21.254-37.454,16.689-40.727C354.686,354.047,339.814,366.976,326.031,386.195z"></path><g><path style="fill:#FEFFFF;" d="M337.679,397.254c0,0-0.971,2.308-1.591,2.563c-0.619,0.256-1.094,0.391-1.094,0.391s-0.709,0.938-1.223,0.926s-0.93-0.925-0.507-1.537c0.423-0.613,1.284-1.425,1.284-1.425s0.057-0.664,0.571-1.496s0.88-2.089,1.174-2.631c0.292-0.541,1.071-0.97,1.587,0.353C338.152,395.431,338.301,396.235,337.679,397.254z"></path><circle style="fill:#FEFFFF;" cx="335.627" cy="401.781" r="1.054"></circle><circle style="fill:#FEFFFF;" cx="338.448" cy="399.791" r="1.055"></circle><circle style="fill:#FEFFFF;" cx="339.685" cy="396.775" r="1.055"></circle><circle style="fill:#FEFFFF;" cx="339.262" cy="393.818" r="1.055"></circle></g><g><path style="fill:#FEFFFF;" d="M348.208,385.249c0,0-0.797,2.372-1.396,2.674c-0.598,0.3-1.063,0.47-1.063,0.47s-0.637,0.988-1.15,1.014s-0.996-0.853-0.62-1.495s1.177-1.517,1.177-1.517s0.008-0.667,0.459-1.534c0.451-0.868,0.723-2.148,0.975-2.71c0.254-0.562,0.998-1.046,1.609,0.234C348.547,383.395,348.754,384.188,348.208,385.249z"></path><circle style="fill:#FEFFFF;" cx="346.87" cy="389.481" r="1.054"></circle><circle style="fill:#FEFFFF;" cx="348.968" cy="387.168" r="1.055"></circle><circle style="fill:#FEFFFF;" cx="350.065" cy="384.604" r="1.054"></circle><circle style="fill:#FEFFFF;" cx="349.149" cy="381.463" r="1.055"></circle></g><g><path style="fill:#FEFFFF;" d="M331.838,387.194c0,0-0.832,2.359-1.437,2.652c-0.603,0.291-1.069,0.452-1.069,0.452s-0.652,0.979-1.166,0.997c-0.515,0.018-0.982-0.869-0.596-1.506c0.387-0.636,1.199-1.497,1.199-1.497s0.018-0.667,0.482-1.527s0.756-2.137,1.018-2.695c0.261-0.557,1.014-1.03,1.604,0.26C332.206,385.346,332.401,386.142,331.838,387.194z"></path><circle style="fill:#FEFFFF;" cx="330.056" cy="391.834" r="1.055"></circle><circle style="fill:#FEFFFF;" cx="332.674" cy="389.567" r="1.054"></circle><circle style="fill:#FEFFFF;" cx="334.172" cy="386.537" r="1.055"></circle><circle style="fill:#FEFFFF;" cx="333.134" cy="383.087" r="1.055"></circle></g><g><path style="fill:#FEFFFF;" d="M319.441,402.066c0,0-0.834,2.36-1.438,2.652s-1.069,0.453-1.069,0.453s-0.653,0.979-1.166,0.996c-0.515,0.018-0.983-0.868-0.597-1.505s1.199-1.498,1.199-1.498s0.019-0.667,0.483-1.526c0.464-0.861,0.756-2.137,1.017-2.695c0.261-0.557,1.015-1.03,1.605,0.259C319.809,400.218,320.004,401.014,319.441,402.066z"></path><circle style="fill:#FEFFFF;" cx="317.659" cy="406.706" r="1.055"></circle><circle style="fill:#FEFFFF;" cx="320.12" cy="404.497" r="1.055"></circle><circle style="fill:#FEFFFF;" cx="321.593" cy="401.24" r="1.055"></circle><circle style="fill:#FEFFFF;" cx="320.736" cy="397.96" r="1.055"></circle></g></g><path style="fill:#484F56;stroke:#000000;stroke-linecap:round;stroke-linejoin:round;" d="M336.233,356.846l-1.569,1.354c0,0-2.498,0.928-2.15-2.28c1.395-1.348,13.601-9.615,13.601-9.615s1.781-0.307,2.771,1.398c-0.145,0.409-0.432,0.753-0.432,0.753l-3.553,1.912L336.233,356.846z"></path><g><path style="fill:#C4CBD3;stroke:#000000;stroke-linecap:round;stroke-linejoin:round;" d="M345.871,349.474c0,0-9.043,6.264-10.185,7.813c-0.858,0.082-1.579,0.054-1.579,0.054s-0.541-10.269,6.92-13.409C347.02,341.407,345.871,349.474,345.871,349.474z"></path><g><path style="fill:#FFFFFF;" d="M343.463,344.538c0.977-0.161,1.447,0.158,1.671,0.454c0.835,1.104,0.626,3.282,0.485,4.227l-0.895,0.539c-0.045-0.086-0.068-0.183-0.047-0.285c0.155-0.799,0.412-3.064-0.253-3.944c-0.103-0.137-0.415-0.18-0.817-0.113c-1.762,0.292-4.775,2.425-5.848,5.671c-0.614,1.862-0.8,3.471-0.844,4.521l-0.901,0.774c-0.021-0.979,0.065-3.038,0.901-5.573C338.152,347.066,341.554,344.855,343.463,344.538z"></path></g></g><path style="fill:#484F56;stroke:#000000;stroke-linecap:round;stroke-linejoin:round;" d="M315.156,381.084l-1.842,3.171c0,0-2.555,0.772-2.764-1.223c0.779-2.363,2.379-4.911,2.379-4.911s9.988-13.603,13.242-15.522c1.763-0.833,2.909,0.34,2.502,1.794c-2.104,2.145-3.623,3.953-3.623,3.953L315.156,381.084z"></path><g><path style="fill:#C4CBD3;stroke:#000000;stroke-linecap:round;stroke-linejoin:round;" d="M320.416,373.563c3.308-4.467,5.664-6.43,5.664-6.43s-0.827-1.587-2.416-2.358c-1.111-0.12-2.372-0.008-2.372-0.008s-3.427,0.979-6.814,6.205s-1.948,8.779-1.948,8.779l2.365,1.903C314.895,381.654,316.117,379.364,320.416,373.563z"></path><g><path style="fill:#FFFFFF;" d="M323.145,365.483c1.293-0.063,2.07,0.694,2.439,1.333l-0.645,0.697c-0.049-0.134-0.474-1.204-1.753-1.143c-1.851,0.089-4.585,2.883-6.649,6.795c-2.25,4.263-1.582,6.18-1.146,6.845l-0.518,0.788c-0.598-0.663-1.859-2.862,0.879-8.048C317.991,368.508,320.962,365.589,323.145,365.483z"></path></g></g><path style="fill:#484F56;stroke:#000000;stroke-linecap:round;stroke-linejoin:round;" d="M301.019,409.494c0,0-0.894,3.174-0.758,3.538c-0.534,0.316-1.968-0.038-2.181-0.61s-0.199-2.769-0.199-2.769s3.914-14.484,7.017-17.769c1.112-0.354,2.308-0.325,2.729,1.769c-0.588,1.284-1.883,4.017-1.883,4.017l-4.751,11.596"></path><g><path style="fill:#C4CBD3;stroke:#000000;stroke-linecap:round;stroke-linejoin:round;" d="M300.404,410.551c0,0-1.908,1.716-4.15-0.175c-0.771-0.483-0.848-1.166-0.848-1.166s-0.907-3.085,3.098-8.554c3.575-4.882,7.7-4.461,7.7-4.461L300.404,410.551z"></path><g><path style="fill:#FFFFFF;" d="M304.739,398.633c-3.91,2.294-6.068,6.452-6.749,8.686c-0.412,1.353-0.33,2.033-0.229,2.203c0.119,0.201,0.277,0.319,0.496,0.371c0.678,0.158,1.686-0.363,2.018-0.578c0.074-0.048,0.158-0.063,0.24-0.063l-0.482,1.19c-0.543,0.24-1.295,0.474-1.979,0.315c-0.45-0.106-0.816-0.378-1.057-0.783c-0.43-0.723-0.096-2.137,0.143-2.916c1.033-3.391,3.932-7.69,8.081-9.689L304.739,398.633z"></path></g></g><path style="fill:#484F56;stroke:#000000;stroke-linecap:round;stroke-linejoin:round;" d="M299.943,423.811c0,0-0.258-2.925-0.119-3.509c-0.797-1.186-1.431-1.778-1.801-1.819c-0.37-0.039-0.8,0.238-0.8,0.238s-0.565,1.987,0.7,4.597C298.658,423.222,299.943,423.811,299.943,423.811z"></path><g><path style="fill:#C4CBD3;stroke:#000000;stroke-linecap:round;stroke-linejoin:round;" d="M303.395,427.68c0,0-3.441,4.122-6.795,4.184c-1.35-0.445-1.952-1.11-1.797-1.168c0.156-0.059-1.491-3.059,4.486-9.603c0.177,1.592,1.369,5.117,1.888,5.397C301.695,426.772,303.395,427.68,303.395,427.68z"></path><path style="fill:#FFFFFF;" d="M299.352,423.126l0.176,0.718c-1.863,2.463-2.857,5.789-2.741,6.673c-0.101,0.017-0.2,0.036-0.302,0.047c0.121-0.012,0.243,0.026,0.335,0.106c0.011,0.009,0.015,0.017,0.015,0.017c-0.023-0.039-0.037-0.099-0.048-0.17c2.372-0.386,4.51-2.424,5.191-3.133l0.913,0.313c-0.005,0.006-0.006,0.015-0.012,0.021c-0.121,0.139-2.971,3.395-6.306,3.729c-0.122,0.011-0.243-0.027-0.335-0.107c-1.137-0.987,0.823-5.73,2.611-8.073C298.969,423.109,299.174,423.061,299.352,423.126z"></path></g><g><path style="fill:#FFFFFF;" d="M296.819,430.67c-0.092-0.08-0.214-0.118-0.335-0.106c0.102-0.011,0.201-0.03,0.302-0.047c0.011,0.071,0.024,0.131,0.048,0.17C296.834,430.687,296.83,430.679,296.819,430.67z"></path></g></g></g></svg>