<svg xmlns="http://www.w3.org/2000/svg" width="500" height="500" version="1.1"><g id="x9176"><g><path style="fill:#C49953;stroke:#000000;stroke-linecap:round;stroke-linejoin:round;stroke-miterlimit:10;" d="M298.561,362.13c0,0-0.644-0.822-2.24-0.084c-1.835,0.843-4.96,4.688-5.15,5.335c-0.193,0.648,0.37,1.814,0.37,1.814L298.561,362.13z"></path><path style="fill:#29B2A1;stroke:#000000;stroke-linecap:round;stroke-linejoin:round;stroke-miterlimit:10;" d="M404.145,397.854c0,0,36.659-7.354,43.648-3.152c0,0-14.283-15.646-26.257-12.798c-19.611,4.662-29.248,1.457-29.248,1.457s-3.176-0.009-9.261,0.01c-7.563-0.112-17.81-6.576-21.718-8.653c-1.583-0.302-6.927,0.643-11.917,3.992c-6.918-0.01-21.525-0.003-30.596,0.195c-12.216,0.267-23.662-14.219-23.662-14.219l-3.782,4.063c0,0,1.69,3.67,2.832,4.845c8.337,10.746,18.452,10.012,28.959,10.104c3.582,0.03,4.654,0.854,7.24,1.62c3.346,0.992,6.238,4.367,6.238,4.367c1.843-3.201,5.216-2.626,7.93-2.519c4.129,0.379,5.191,2.153,6.239,4.54c0.183,1.646,0.424,4.883-0.307,6.979l17.649,4.188L404.145,397.854z"></path><path style="fill:#17787F;stroke:#000000;stroke-linecap:round;stroke-linejoin:round;stroke-miterlimit:10;" d="M368.273,400.714l20.403,0.134c0,0,45.45-9.489,57.123-8.063c-7.077-7.124-16.343-12.636-24.732-11.995c-7.347,1.073-12.354,2.192-16.484,2.594c-9.787,0.949-12.295-0.022-12.295-0.022s-3.176-0.009-9.261,0.01c-7.563-0.112-17.81-6.576-21.718-8.653c-1.583-0.302-6.927,0.643-11.917,3.992c-3.532-0.005-5.072-2.317-10.854-2.289c-0.874,1.095-3.492-0.117-3.541,1.374c3.188,1.019,2.544,8.685,2.544,8.685c2.106-0.828,4.455-0.961,7.167-0.853c5.538,1.056,6.833,3.216,7.715,6.117c0.184,1.647,0.125,3.768-0.605,5.863L368.273,400.714z"></path><linearGradient id="leftXMLID_134_" gradientUnits="userSpaceOnUse" x1="483.1543" y1="253.5762" x2="483.1543" y2="470.2583" gradientTransform="matrix(-0.1874 0.9822 -0.9822 -0.1874 799.7926 -15.6409)"><stop offset="0" style="stop-color:#DBFFA3"></stop><stop offset="0.0954" style="stop-color:#D1FDA5"></stop><stop offset="0.2568" style="stop-color:#B7F9A9"></stop><stop offset="0.4644" style="stop-color:#8BF2B0"></stop><stop offset="0.7102" style="stop-color:#50E7BA"></stop><stop offset="0.9854" style="stop-color:#04DBC6"></stop><stop offset="1" style="stop-color:#00DAC7"></stop></linearGradient><path style="fill:url(#leftXMLID_134_);stroke:#000000;stroke-miterlimit:10;" d="M357.109,408.72c2.69,0.458,5.332,0.759,7.912,0.917c1.576-4.803,4.421-1.8,4.808,0.143c24.854-0.044,42.962-12.12,42.962-12.12c26.939-7.98,53.922,12.475,53.922,12.475c-4.594-7.437-20.376-17.828-20.376-17.828s-22.817-7.904-38.016,0.127c-14.421,9.685-42.901,7.119-48.615,4.117c-5.714-3.003-8.177-1.56-8.177-1.56c-3.9,6.841-17.005,6.047-17.005,6.047c5.972,3.131,11.862,5.275,17.572,6.658C355.183,403.066,357.227,406.394,357.109,408.72z"></path><circle style="fill:#C49953;stroke:#000000;stroke-miterlimit:10;" cx="375.115" cy="385.618" r="1.091"></circle><path style="fill:#FFFFFF;stroke:#000000;stroke-linecap:round;stroke-linejoin:round;" d="M335.814,383.177c0,0-1.652-0.111-2.75-1.344c-0.435-1.656,0.245-2.544,1.254-2.631c0.852-0.521,2.892,0.244,3.459,1.205c0.739,0.962,0.697,4.404,0.697,4.404l6.174-0.667c5.331-8.241,15.358-0.451,15.358-0.451s7.947,7.767,19.772,5.411c12.328-3.729,15.679-7.325,15.679-7.325l-8.264,0.336c0,0-4.64,0.224-9.586-0.801l-0.869,3.315c0,0,0.636,0.43,0.465,1.32c-0.169,0.888-1.363,2.391-3.207,1.232c-2.501-1.571,0.003-3.416,0.931-3.445l0.696-2.901c-2.335-0.654-4.601-1.636-6.358-3.087l-1.745,3.02c0,0,0.631,0.719,0.234,1.532c-0.399,0.813-2.103,2.29-3.916,0.824c-2.083-1.969,0.344-3.814,1.652-3.647l2.351-3.359c-4.09-5.357-5.213-9.655-5.746-11.433c-0.193-0.644-0.678-0.745-0.678-0.745s-9.474,3.455-12.685,6.326c-9.894,6.723-21.292,5.749-32.657,4.634c-11.069-1.086-17.545-12.981-17.545-12.981s-2.796,2.054-3.152,2.435c-0.357,0.381-0.797,1.254-0.797,1.254c-0.066,0.534,0.036,1.209,0.336,1.88c6.755,15.066,29.188,14.267,31.686,14.546c2.608,0.294,9.445,3.136,9.445,3.136L335.814,383.177z"></path><path style="fill:#E1E1E1;" d="M326.531,381.338c2.543,0.285,8.9,3.132,8.9,3.132l0.063-1.047c0,0-1.756-0.463-2.825-1.665c-0.424-1.613-0.033-2.74,0.95-2.826c0.829-0.507,3.491-0.304,4.046,0.635c0.72,0.938,0.995,2.308,0.995,2.308l0.536,2.563c2.277-1.546,4.39-5.555,7.455-8.28c2.505-2.227,10.608-8.186,13.879-11.496c-2.947,1.191-9.457,4.073-12.63,6.747c-9.712,6.142-20.692,5.002-31.769,3.916c-11.12-1.168-17.556-12.575-17.556-12.575l-2.423,1.771l-0.777,1.224c-0.064,0.518,0.036,1.177,0.329,1.829C302.286,382.257,324.097,381.063,326.531,381.338z"></path><path style="fill:#C49953;" d="M299.408,373.259c9.184,8.449,24.28,8.117,27.266,8.584c2.61,0.293,8.972,2.941,8.972,2.941l-0.151-1.361c0,0-1.075-0.612-1.686-0.835c-1.392-0.325-3.09-0.999-4.764-1.523c-2.966-0.941-2.708-0.139-13.615-1.709c-9.443-2.075-13.238-5.338-13.931-5.955c-3.154-2.445-5.305-7.109-5.305-7.109c0.134-1.957,2.797-3.021,2.797-3.021l-0.578-0.726c0,0-3.031,1.917-3.257,3.104C294.708,365.836,295.05,368.531,299.408,373.259z"></path><ellipse transform="matrix(-0.1872 0.9823 -0.9823 -0.1872 808.6994 94.1642)" style="fill:#C49953;stroke:#000000;stroke-miterlimit:10;" cx="365.394" cy="381.645" rx="1.226" ry="1.384"></ellipse><ellipse transform="matrix(-0.3465 0.938 -0.938 -0.3465 808.9198 198.6574)" style="fill:#C49953;stroke:#000000;stroke-miterlimit:10;" cx="335.263" cy="381.093" rx="1.058" ry="1.377"></ellipse><g><g><path style="fill:#FFFFD2;" d="M445.8,392.784c0,0,13.835,10.223,14.845,12.978l4.051,2.413c0,0-5.442-5.855-9.517-8.938C451.104,396.152,445.825,392.123,445.8,392.784z"></path></g></g><path style="fill:#FFFFD2;" d="M409.819,398.73c0.956-0.282,1.731-1.131,2.688-1.343l-2.191,0.346c0,0-0.154,0.243-6.975,3.248c-6.586,3.841-25.017,6.924-34.195,6.252c0.045,0.76,0.677,1.347,0.912,2.021C393.025,409.138,409.819,398.73,409.819,398.73z"></path><path style="fill:#FFFFD2;" d="M364.876,409.031c0.173-0.751,0.497-1.355,0.742-1.924c-2.435-0.265-5.639-1.183-8.671-1.973c0.172,1.123,0.345,2.105,0.4,3.107C359.904,408.644,362.42,408.902,364.876,409.031z"></path><path style="fill:#FFFFD2;" d="M354.289,404.536c-3.423-1.026-6.497-2.389-9.356-3.746c-4.19,0.912-7.649,1.013-7.649,1.013c5.234,2.578,9.482,4.089,14.539,5.269C352.383,406.062,353.361,405.452,354.289,404.536z"></path><g><path style="fill:#FFFFD2;" d="M362.642,404.351c0.053-0.27,0.283-0.479,0.569-0.488c0.333-0.015,0.615,0.245,0.628,0.578l0.042,1.034c0.016,0.333-0.246,0.614-0.578,0.626c-0.334,0.015-0.615-0.244-0.629-0.578l-0.041-1.033C362.631,404.441,362.634,404.396,362.642,404.351z"></path></g><g><path style="fill:#FFFFD2;" d="M360.65,404.4c0.004-0.015,0.009-0.03,0.012-0.047l0.115-0.422c0.088-0.321,0.419-0.513,0.741-0.426c0.323,0.087,0.51,0.419,0.424,0.743l-0.114,0.423c-0.089,0.322-0.419,0.51-0.741,0.424C360.779,405.014,360.593,404.708,360.65,404.4z"></path></g><g><path style="fill:#FFFFD2;" d="M354.062,402.859c0.012-0.06,0.035-0.117,0.075-0.171l0.461-0.652c0.166-0.235,0.53-0.298,0.813-0.141c0.282,0.157,0.379,0.473,0.215,0.705l-0.464,0.652c-0.166,0.233-0.528,0.298-0.812,0.142C354.131,403.273,354.025,403.059,354.062,402.859z"></path></g><g><path style="fill:#FFFFD2;" d="M350.912,402.386c0.02-0.104,0.08-0.201,0.178-0.276l2.763-2.097c0.238-0.182,0.613-0.153,0.84,0.062c0.225,0.214,0.217,0.534-0.021,0.715l-2.765,2.099c-0.236,0.18-0.611,0.153-0.838-0.063C350.936,402.698,350.884,402.535,350.912,402.386z"></path></g><g><path style="fill:#FFFFD2;" d="M347.314,401.871c0.023-0.121,0.099-0.232,0.222-0.307l5.196-3.176c0.26-0.158,0.633-0.099,0.834,0.133c0.203,0.232,0.153,0.55-0.104,0.707l-5.197,3.174c-0.258,0.158-0.632,0.099-0.834-0.132C347.326,402.148,347.288,402.005,347.314,401.871z"></path></g><g><path style="fill:#FFFFD2;" d="M399.217,400.039c0.06-0.304,0.34-0.518,0.652-0.488c0.332,0.031,0.576,0.326,0.543,0.66l-0.036,0.369c-0.033,0.326-0.328,0.574-0.66,0.542c-0.331-0.032-0.574-0.328-0.542-0.659l0.035-0.369C399.212,400.075,399.215,400.058,399.217,400.039z"></path></g><g><path style="fill:#FFFFD2;" d="M396.882,400.464c0.06-0.311,0.353-0.525,0.672-0.485c0.331,0.044,0.564,0.347,0.521,0.678l-0.111,0.85c-0.034,0.326-0.347,0.564-0.677,0.52c-0.331-0.042-0.564-0.345-0.521-0.675l0.11-0.852C396.876,400.488,396.88,400.475,396.882,400.464z"></path></g><g><path style="fill:#FFFFD2;" d="M394.576,400.998c0.06-0.307,0.345-0.522,0.661-0.487c0.331,0.037,0.569,0.337,0.533,0.669l-0.074,0.651c-0.052,0.33-0.336,0.571-0.668,0.533c-0.331-0.038-0.568-0.335-0.532-0.667l0.073-0.652C394.571,401.028,394.573,401.014,394.576,400.998z"></path></g><g><path style="fill:#FFFFD2;" d="M392.352,401.65c0.059-0.307,0.342-0.521,0.656-0.487c0.33,0.035,0.573,0.333,0.537,0.665l-0.153,1.423c-0.032,0.327-0.331,0.572-0.663,0.536c-0.331-0.036-0.571-0.334-0.535-0.665l0.149-1.423C392.346,401.683,392.348,401.665,392.352,401.65z"></path></g><g><g><path style="fill:#FFFFD2;" d="M443.835,394.709c0.044-0.176,0.266-0.282,0.517-0.239c0.267,0.047,0.467,0.239,0.444,0.436l-0.024,0.218c-0.022,0.191-0.255,0.316-0.521,0.273c-0.268-0.045-0.466-0.242-0.445-0.436l0.025-0.219C443.831,394.731,443.833,394.722,443.835,394.709z"></path></g><g><path style="fill:#FFFFD2;" d="M445.764,394.706c0.221-0.29,0.601-0.398,0.873-0.242c0.29,0.167,0.35,0.567,0.133,0.897l-0.237,0.365c-0.215,0.323-0.625,0.461-0.914,0.294c-0.288-0.166-0.349-0.565-0.132-0.896l0.239-0.364C445.737,394.742,445.749,394.724,445.764,394.706z"></path></g><g><path style="fill:#FFFFD2;" d="M447.487,395.604c0.269-0.376,0.696-0.569,0.979-0.428c0.301,0.145,0.328,0.609,0.063,1.034l-0.299,0.472c-0.264,0.416-0.724,0.647-1.023,0.498c-0.301-0.147-0.329-0.612-0.062-1.034l0.297-0.473C447.455,395.651,447.47,395.627,447.487,395.604z"></path></g><g><path style="fill:#FFFFD2;" d="M449.199,396.702c0.199-0.287,0.564-0.405,0.846-0.26c0.294,0.151,0.382,0.54,0.191,0.869l-0.211,0.361c-0.189,0.321-0.584,0.467-0.878,0.314c-0.296-0.151-0.383-0.542-0.193-0.87l0.212-0.363C449.175,396.738,449.188,396.72,449.199,396.702z"></path></g><g><path style="fill:#FFFFD2;" d="M450.772,397.898c0.124-0.299,0.426-0.476,0.695-0.399c0.287,0.079,0.432,0.414,0.322,0.745l-0.12,0.369c-0.111,0.327-0.43,0.534-0.717,0.454c-0.286-0.08-0.432-0.414-0.321-0.746l0.119-0.368C450.756,397.935,450.763,397.916,450.772,397.898z"></path></g><g><path style="fill:#FFFFD2;" d="M452.272,399.181c0.053-0.216,0.283-0.356,0.534-0.318c0.269,0.041,0.459,0.267,0.427,0.505l-0.034,0.262c-0.034,0.234-0.275,0.396-0.542,0.354c-0.266-0.039-0.457-0.266-0.426-0.504l0.036-0.262C452.269,399.206,452.271,399.191,452.272,399.181z"></path></g></g><path style="fill:#FFFFD2;" d="M410.77,398.229c0,0,3.052-1.673,6.851-2.245c0,0-5.88,0.381-7.944,2.244"></path><g><g><path style="fill:#C49953;" d="M317.956,378.443c0.063-0.336,0.327-0.616,0.68-0.682c0.46-0.085,0.899,0.225,0.982,0.687l0.216,1.213c0.081,0.463-0.225,0.907-0.686,0.994c-0.46,0.084-0.899-0.225-0.98-0.688l-0.216-1.214C317.936,378.649,317.937,378.544,317.956,378.443z"></path></g><g><path style="fill:#C49953;" d="M315.245,377.992c0.083-0.436,0.485-0.739,0.928-0.688c0.464,0.054,0.796,0.477,0.74,0.944l-0.145,1.226c-0.051,0.464-0.475,0.803-0.938,0.749c-0.464-0.053-0.796-0.476-0.739-0.943l0.142-1.226C315.237,378.033,315.24,378.014,315.245,377.992z"></path></g><g><path style="fill:#F4E3B8;" d="M315.526,378.715c0.048-0.255,0.282-0.437,0.539-0.406c0.268,0.03,0.459,0.279,0.428,0.555l-0.087,0.72c-0.029,0.272-0.277,0.473-0.546,0.443c-0.267-0.031-0.458-0.278-0.425-0.555l0.085-0.721C315.522,378.739,315.522,378.728,315.526,378.715z"></path></g><g><path style="fill:#C49953;" d="M311.896,378.428c0.004-0.023,0.01-0.045,0.016-0.067l0.323-1.188c0.123-0.454,0.589-0.725,1.041-0.601c0.447,0.123,0.717,0.599,0.589,1.046l-0.323,1.19c-0.124,0.454-0.59,0.725-1.041,0.602C312.073,379.29,311.813,378.86,311.896,378.428z"></path></g><g><path style="fill:#F4E3B8;" d="M312.175,378.544c0.004-0.013,0.006-0.025,0.01-0.04l0.197-0.729c0.076-0.278,0.361-0.441,0.636-0.367c0.274,0.075,0.44,0.366,0.362,0.642l-0.198,0.728c-0.076,0.278-0.36,0.442-0.637,0.367C312.283,379.073,312.126,378.81,312.175,378.544z"></path></g><g><path style="fill:#C49953;" d="M308.527,377.845c0.005-0.036,0.016-0.075,0.029-0.112l0.563-1.677c0.15-0.448,0.631-0.688,1.072-0.539c0.442,0.15,0.685,0.634,0.528,1.081l-0.565,1.677c-0.148,0.447-0.629,0.689-1.07,0.537C308.679,378.675,308.446,378.26,308.527,377.845z"></path></g><g><path style="fill:#C49953;" d="M305.185,376.195c0.022-0.113,0.066-0.225,0.136-0.324l1.009-1.471c0.266-0.389,0.793-0.486,1.177-0.219c0.383,0.268,0.479,0.8,0.211,1.187l-1.009,1.47c-0.266,0.391-0.792,0.486-1.176,0.219C305.249,376.859,305.122,376.517,305.185,376.195z"></path></g><g><path style="fill:#F4E3B8;" d="M305.473,376.295c0.015-0.069,0.04-0.138,0.085-0.202l0.63-0.916c0.163-0.241,0.493-0.303,0.731-0.135c0.238,0.165,0.299,0.498,0.132,0.738l-0.629,0.917c-0.164,0.241-0.493,0.305-0.73,0.135C305.513,376.71,305.435,376.496,305.473,376.295z"></path></g></g><path style="fill:#C49953;" d="M356.596,382.77c0,0,6.281,3.248,6.324,8.037c0.043,4.792-3.444,3.375-3.444,3.375l0.326-0.28c0,0,1.705-0.7,1.464-2.657c-0.241-1.959-2.293-4.812-4.975-5.801c-2.681-0.989-5.44-0.492-6.017,1.448c0,0-0.862-0.846-1.968-1.306c-0.596-0.246-1.906-0.595-1.906-0.595S349.221,379.176,356.596,382.77z"></path><path style="fill:#C49953;" d="M356.205,386.247c0,0,3.223,1.023,4.362,5.067c0.546,2.153-2.098,2.402-2.098,2.402l-1.902-0.774c0,0,1.277,0.108,1.831,0.076c0.553-0.032,0.826-1.823,0.826-1.823s-0.829-1.387-1.847-1.788c-1.016-0.397-1.876,0.531-1.876,0.531s-0.254,0.978,1.707,1.078c0.578-0.163-0.139-0.71-0.139-0.71s1.477,0.145,0.775,1.309c-0.7,1.165-3.701-1.729-3.478-1.825c0.224-0.094,0.361-2.254,2.904-1.974c0,0-2.567-1.584-3.382,0.175c-0.813,1.759-0.199,2.831-0.199,2.831l1.238,1.399l-1.287,0.301l-0.54-1.469l-0.69-2.114c0,0-0.018-2.054,1.019-2.472C354.467,386.051,355.48,386.108,356.205,386.247z"></path><path style="fill:#C49953;" d="M373.329,397.405c4.175-1.56,7.092-4.318,8.995-5.697c1.902-1.379,4.237-1.616,7.963-2.341c3.726-0.724,8.631-4.948,8.631-4.948l-5.847-0.157l-1.985,1.808l-9.604,3.43c0,0-2.351,0.507-3.745,0.651c-1.395,0.146-2.424,1.246-2.538,1.839c-0.114,0.594-1.501,1.422-1.501,1.422l0.162-0.857c0.031-2.658-1.941-2.352-1.941-2.352c1.972,1.126,0.796,2.27,0.796,2.27l0.088-0.462c-1.328-3.056-3.804-1.546-3.804-1.546s3.566,1.364,2.307,3.311c-1.259,1.946-2.807,1.104-2.807,1.104l-2.049,0.703l1.386-1.171c0,0,4.063-0.524,1.939-2.295c-2.12-1.771-3.857,0.084-3.857,0.084c0.39-0.337,2.437-0.15,2.374,0.18c-0.063,0.329-1.783,0.754-1.783,0.754s-1.334-0.888-1.365-1.44s1.883-0.921,1.883-0.921l-1.826-0.452c-4.27,0.894,1.166,4.63,1.166,4.63c-0.786,0.362-4.037-0.054-4.037-0.054s1.869,0.666,3.576,1.4C367.608,397.032,371.73,397.716,373.329,397.405z M374.906,394.598c0.509-0.519,4.233-3.564,4.233-3.564s3.513-1.584,6.669-2.008c2.719-0.643,5.591-1.734,5.591-1.734l4.561-2.411c0,0-3.304,2.993-6.509,3.679c-3.207,0.688-7.939,1.492-9.376,2.585c-0.911,0.69-2.07,1.176-2.828,1.922c-0.756,0.742-2.193,1.834-2.702,2.352c-0.509,0.519-3.161,1.517-3.161,1.517S374.398,395.116,374.906,394.598z"></path><path style="fill:#C49953;" d="M403.56,394.119c1.577-0.982,2.956-2.092,5.922-3.729l1.533-0.244l2.937-1.081l-1.3-0.382c0.074-0.052,0.148-0.105,0.223-0.155l0.809-0.195c0,0,4.105-0.038,4.569,0.051c0.462,0.089,1.076-0.273,1.325-0.499c0.247-0.227-1.743-0.538-1.743-0.538l1.721-0.423l2.056,0.323c0,0,1.742,0.538,2.308,0.441c0.565-0.098,3.2,0.063,3.2,0.063l-2.202-1l1.814,0.176c0,0,1.991,0.651,2.388,0.729c0.396,0.076,3.688,0.361,3.688,0.361l-0.439-0.562l2.484,0.952l1.721,0.009c2.262,0.583,5.64,1.875,5.64,1.875s-4.82-5.36-13.763-5.223c-2.222-0.034-8.9-0.194-13.296,0.839l-0.188,0.006l-0.103,0.072c-1.316,0.33-2.498,0.773-3.389,1.379C407.453,390.899,403.56,394.119,403.56,394.119z"></path><path style="fill:#C49953;" d="M380.428,398.249c0.854-0.002,3.017-0.179,5.036-0.361c1.808-0.06,5.879-0.276,7.91-1.064c2.623-1.018,4.129-2.486,5.516-4.058l0.799-0.204l1.314-0.09c0,0,1.618-0.238,2.417-0.497c0.802-0.257,2.152-0.886,2.152-0.886l-1.04,0.073l-1.963-0.102l0.354-0.41c0,0,0.182-0.238,1.179-0.457c1-0.22,3.942-0.957,3.942-0.957l-1.175-0.293l-2.198,0.059l0.993-0.903c0,0,1.024-0.353,1.799-0.477c0.776-0.125,2.863-0.684,2.863-0.684l2.416-0.838c0,0-0.66-0.124-1.109-0.279s-2.828,0.145-2.828,0.145l2.112-1.094c0.007-0.003,0.012-0.003,0.016-0.006c0.069,0.009,2.75,0.32,3.803,0.453c1.067,0.136,3.364-0.451,3.364-0.451s-0.67-0.06-0.686-0.335c-0.017-0.275-2.572-0.49-2.572-0.49l2.735-0.367c0.492,0.64,3.576,0.955,3.576,0.955l3.265,0.076c0,0-0.594-0.113-1.426-0.408c-0.674-0.239-2.086-1.067-2.599-1.372c4.47-0.716,12.977,1.952,12.977,1.952c-2.42-1.282-5.111-2.546-6.616-2.939c-3.148-0.822-6.285-0.343-6.285-0.343s-11.155,2.416-14.038,2.48c-2.881,0.065-9.912,6.821-12.39,10.141c-1.563,2.095-4.999,2.856-7.234,3.326c-2.048,0.186-5.545-0.092-5.545-0.092l-2.979-0.501l1.432-0.343l1.397-1.407c0,0,1.542-1.652,4.197-2.308c2.653-0.656,4.137,1.063,4.137,1.063c-0.49,1.137-2.411,1.179-2.411,1.179c-0.761-1.034,1.565-1.407,1.565-1.407s-3.066-0.039-3.68,0.664c-0.611,0.703,1.55,1.183,1.55,1.183c-0.599,0.639-5.019,0.888-5.019,0.888s5.089,0.904,8.263-0.335c2.241-0.876,4.327-3.344,4.327-3.344l1.549-2.027l4.025-4.973c-1.558,1.343-6.761,3.904-6.761,3.904s-6.794,1.231-7.569,1.357c-0.774,0.124-4.241,2.537-5.562,3.722c-1.318,1.183-5.779,3.166-5.779,3.166S378.649,398.25,380.428,398.249z M391.446,394.713c0,0-0.853-0.24-1.045-0.301C390.401,394.412,391.264,394.195,391.446,394.713z M391.89,393.74c0,0-1.476-0.17-1.56-0.046C390.33,393.694,391.57,392.895,391.89,393.74z M389.057,391.522c0,0-1.077,0.401-1.549,1.084C387.508,392.606,386.795,391.289,389.057,391.522z M391.505,392.299c0,0-1.392,0.393-1.784,0.808C389.721,393.106,389.785,391.459,391.505,392.299z"></path><path style="fill:#F4E3B8;" d="M436.916,388.507c2.242,0.616,5.296,1.783,5.296,1.783s-2.45-2.705-7.075-4.221L436.916,388.507z"></path><path style="fill:#F4E3B8;" d="M414.043,385.234c0.267,0.033,0.504,0.062,0.692,0.085c1.067,0.136,3.364-0.451,3.364-0.451s-0.67-0.06-0.686-0.335c-0.017-0.275-2.572-0.49-2.572-0.49l2.735-0.367c0.492,0.64,3.576,0.955,3.576,0.955l1.584,0.038l-2.154-1.628c-0.069-0.043-0.136-0.084-0.189-0.114c0.012-0.003,0.023-0.003,0.034-0.006l-1.358-1.027c-1.754,0.368-4.87,1.006-7.646,1.499L414.043,385.234z"></path><path style="fill:#F4E3B8;" d="M419.577,387.884c0.247-0.227-1.743-0.538-1.743-0.538l1.721-0.423l2.056,0.323c0,0,1.742,0.538,2.308,0.441c0.442-0.077,2.14,0.005,2.866,0.044l-0.441-0.333l-1.427-0.648l0.654,0.063l-2.305-1.744c-2.657,0.066-5.722,0.275-8.112,0.837l-0.149,0.004l3.507,2.466C418.923,388.332,419.373,388.068,419.577,387.884z"></path><g><path style="fill:#F4E3B8;" d="M369.774,392.116c-1.199-1.002-2.276-0.843-2.987-0.517l0.419,0.436c0.58,0.042,1.117,0.173,1.085,0.345c-0.02,0.103-0.207,0.212-0.448,0.317l1.342,1.395C370.13,393.767,371.024,393.159,369.774,392.116z"></path><path style="fill:#F4E3B8;" d="M365.669,390.437l0.528,0.55c0.431-0.135,0.828-0.214,0.828-0.214L365.669,390.437z"></path><path style="fill:#F4E3B8;" d="M374.906,394.598c0.388-0.395,2.649-2.263,3.698-3.127l-1.238-1.25c-1.201,0.279-2.065,1.23-2.168,1.769c-0.114,0.594-1.501,1.422-1.501,1.422l0.162-0.857c0.031-2.658-1.941-2.352-1.941-2.352c1.972,1.126,0.796,2.27,0.796,2.27l0.088-0.462c-1.328-3.056-3.804-1.546-3.804-1.546s3.566,1.364,2.307,3.311c-0.429,0.662-0.89,0.998-1.313,1.156l1.729,1.799C372.518,396.241,374.5,395.011,374.906,394.598z"></path><path style="fill:#F4E3B8;" d="M373.329,397.405c2.938-1.099,5.242-2.782,7.019-4.168l-1.366-1.382c-0.63,0.376-1.259,0.742-1.734,1.21c-0.756,0.742-2.193,1.834-2.702,2.352c-0.388,0.396-2.019,1.068-2.772,1.366l0.67,0.697C372.783,397.476,373.087,397.454,373.329,397.405z"></path></g><g><path style="fill:#F4E3B8;" d="M381.452,396.462c0,0,0.979,0.174,2.344,0.265l-0.421-0.427C382.34,396.412,381.452,396.462,381.452,396.462z"></path><path style="fill:#F4E3B8;" d="M373.945,397.933c0,0,4.704,0.317,6.482,0.316c0.787-0.001,2.686-0.152,4.558-0.319l-0.319-0.325c-1.718-0.02-3.404-0.152-3.404-0.152l-2.979-0.501l1.432-0.343l1.397-1.407c0,0,0.217-0.231,0.627-0.557l-0.832-0.84c-0.466,0.354-0.882,0.692-1.183,0.962C378.406,395.949,373.945,397.933,373.945,397.933z"></path></g><g><path style="fill:#F4E3B8;" d="M367.595,394.614l-3.785-3.641c-0.718,0.813,0.297,2.052,1.256,2.93l1.867,1.27L367.595,394.614z"></path><path style="fill:#F4E3B8;" d="M370.441,397.351l-2.405-2.313l-0.865,0.297l2.894,1.968C370.191,397.319,370.315,397.335,370.441,397.351z"></path></g><path style="fill:#F4E3B8;" d="M353.469,386.458l1.157,0.816c1.075-0.421,2.646,0.542,2.646,0.542c-0.681-0.075-1.188,0.027-1.572,0.218l4.898,3.46c-0.011-0.061-0.015-0.116-0.031-0.18c-0.351-1.242-0.897-2.198-1.487-2.928l-3.675-2.227C354.818,386.132,354.153,386.188,353.469,386.458z"></path><path style="fill:#F4E3B8;" d="M362.92,390.807c-0.001-0.032-0.008-0.065-0.009-0.101l-2.353-1.425c0.375,0.686,0.634,1.365,0.707,1.963c0.032,0.262,0.027,0.501,0,0.72l1.343,0.951C362.809,392.4,362.927,391.718,362.92,390.807z"></path><path style="fill:#F4E3B8;" d="M353.959,382.266c0,0,3.306,0.221,5.887,3.173c1.81,2.326-0.528,1.332-0.528,1.332s-2.719-2.226-4.606-2.722c-2.951-0.29-2.744-0.659-2.744-0.659S352.116,382.254,353.959,382.266z"></path><g><path style="fill:#F4E3B8;" d="M308.86,377.82c0.005-0.023,0.009-0.046,0.017-0.068l0.348-1.03c0.092-0.273,0.386-0.421,0.657-0.33c0.271,0.093,0.419,0.388,0.324,0.663l-0.347,1.029c-0.093,0.275-0.388,0.421-0.657,0.328C308.954,378.329,308.813,378.074,308.86,377.82z"></path></g><path style="fill:#F4E3B8;" d="M295.96,364.299c0,0-0.979,1.01-1.024,1.786s0.541,1.469,0.541,1.469s0.704,0.237,0.72-0.204c-0.241-0.524-0.428-1.688-0.428-1.688l0.379-0.918C296.147,364.744,296.511,364.096,295.96,364.299z"></path><g><path style="fill:#F4E3B8;" d="M315.416,379.766c0-0.011,0.004-0.022,0.005-0.032c0.057-0.176,0.106-0.171,0.317-0.112c1.103,0.3,3.602,0.492,6.003,0.771c1.941,0.227,4.324,0.328,5.588,0.567c2.342,0.571,7.746,2.358,7.964,2.432c0.209,0.068,0.319,0.269,0.256,0.436c-0.067,0.175-0.291,0.259-0.498,0.19c-0.054-0.02-4.902-1.895-7.642-2.417c-1.23-0.235-4.082-0.47-6.006-0.695c-2.549-0.294-4.526-0.426-5.698-0.745C315.506,380.103,315.382,379.932,315.416,379.766z"></path></g><g><path style="fill:#F4E3B8;" d="M384.988,389.493c-1.046,0.236-2.049,0.484-2.902,0.756l0.982,0.988c0.781-0.43,1.646-0.722,2.646-0.967L384.988,389.493z"></path><path style="fill:#F4E3B8;" d="M384.727,389.213l-0.609-0.656l-2.636,0.942c0,0-0.042,0.009-0.117,0.024l0.476,0.479C382.712,389.71,383.714,389.418,384.727,389.213z"></path></g><g><path style="fill:#F4E3B8;" d="M388.601,393.728c0,0-1.685-0.021-2.805,0.255l2.519,2.537c0.491-0.097,0.964-0.223,1.4-0.393c0.34-0.134,0.673-0.306,0.997-0.496l-1.388-1.488c-0.613,0.942-2.289,0.992-2.289,0.992C386.274,394.101,388.601,393.728,388.601,393.728z"></path><path style="fill:#F4E3B8;" d="M385.31,392.894c1.397-0.347,2.468-0.031,3.169,0.343l-0.789-0.849c-0.066,0.071-0.129,0.141-0.182,0.219c0,0-0.139-0.256-0.101-0.521l-1.133-1.214c-0.484,0.086-0.842,0.148-0.988,0.173c-0.271,0.043-0.872,0.369-1.592,0.821l1.156,1.167C385.005,392.987,385.148,392.932,385.31,392.894z"></path><path style="fill:#F4E3B8;" d="M391.278,396.237c-0.782,0.349-1.617,0.617-2.419,0.83l0.548,0.553c0.957-0.105,1.918-0.246,2.751-0.439L391.278,396.237z"></path></g><g><path style="fill:#F4E3B8;" d="M388.601,393.728c0,0-1.685-0.021-2.805,0.255l2.519,2.537c0.491-0.097,0.964-0.223,1.4-0.393c0.34-0.134,0.673-0.306,0.997-0.496l-1.388-1.488c-0.613,0.942-2.289,0.992-2.289,0.992C386.274,394.101,388.601,393.728,388.601,393.728z"></path><path style="fill:#F4E3B8;" d="M385.31,392.894c1.397-0.347,2.468-0.031,3.169,0.343l-0.789-0.849c-0.066,0.071-0.129,0.141-0.182,0.219c0,0-0.139-0.256-0.101-0.521l-1.133-1.214c-0.484,0.086-0.842,0.148-0.988,0.173c-0.271,0.043-0.872,0.369-1.592,0.821l1.156,1.167C385.005,392.987,385.148,392.932,385.31,392.894z"></path><path style="fill:#F4E3B8;" d="M391.278,396.237c-0.782,0.349-1.617,0.617-2.419,0.83l0.548,0.553c0.957-0.105,1.918-0.246,2.751-0.439L391.278,396.237z"></path></g></g></g></svg>