<svg xmlns="http://www.w3.org/2000/svg" width="500" height="500" version="1.1"><g id="x9177"><g><g><g><path style="fill:#606070;stroke:#000000;stroke-linecap:round;stroke-linejoin:round;" d="M229.019,390.577l-43.964,15.915l1.244-3.464l-24.054,8.708l-1.48,3.549l-1.916,4.593l73.253-26.519C231.146,392.603,230.063,391.648,229.019,390.577z"></path><path style="fill:#606070;stroke:#000000;stroke-linecap:round;stroke-linejoin:round;" d="M225.458,381.585l0.992-13.786c0,0-2.359-1.007-2.438-5.632c-0.079-4.624,7.111-14.14,7.421-14.385l-94.894,34.22l19.238,11.646l6.51,17.983l-0.043,0.104l64.792-23.455C224.107,384.286,225.458,381.585,225.458,381.585z"></path><path style="opacity:0.5;fill:#FFFFFF;" d="M224.25,382.288c0,0-0.819,5.082,6.926,11.053C225.709,392.927,222.686,386.045,224.25,382.288z"></path><path style="opacity:0.5;fill:#FFFFFF;" d="M229.489,349.019c0,0-9.31,13.207-4.938,17.208C221.07,366.157,221.362,355.948,229.489,349.019z"></path><g><polygon style="opacity:0.5;fill:#FFFFFF;" points="179.349,420.079 199.012,351.986 200.893,351.306 181.229,419.398 "></polygon><polygon style="opacity:0.5;fill:#FFFFFF;" points="160.857,426.773 180.521,358.681 182.401,358 162.738,426.092 "></polygon><polygon style="opacity:0.5;fill:#FFFFFF;" points="166.185,424.845 185.848,356.752 194.938,353.461 175.275,421.554 "></polygon></g><path style="fill:#D12FDC;stroke:#000000;stroke-linecap:round;stroke-linejoin:round;" d="M229.019,390.577c-0.658-0.675-1.304-1.386-1.883-2.155c-0.036-0.048-0.064-0.094-0.099-0.141l-40.738,14.747l-1.244,3.464L229.019,390.577z"></path><path style="fill:#D12FDC;stroke:#000000;stroke-linecap:round;stroke-linejoin:round;" d="M234.986,395.418c0,0-1.251-0.768-2.883-2.059l-73.253,26.519l-2.112,5.063L234.986,395.418z"></path></g><g><g><path style="fill:#1D0E21;stroke:#000000;stroke-linecap:round;stroke-linejoin:round;" d="M254.818,335.505c0,0-7.367-0.522-13.168,3.527c-4.281,2.988-9.105,8.88-9.105,8.88l-2.201,0.53l-100.61,36.423c0,0-1.605,2.176-5.232-0.499c-3.627-2.675-49.338-30.529-49.338-30.529s-1.066-1.475,2.075-2.346c0,0,29.109-2.828,47.7,0.545c18.592,3.373,46.997,4.967,64.263-0.221c17.266-5.187,22.984-12.397,28.908-21.986c6.525-2.539,31.855-1.605,39.737,3.518C257.931,334.557,254.818,335.505,254.818,335.505z"></path><path style="opacity:0.5;fill:#FFFFFF;" d="M256.936,333.765c0,0-1.305,1.535-2.501,1.171c-2.541-0.409-16.746,0.745-21.89,12.977C230.858,346.927,238.292,331.474,256.936,333.765z"></path><path style="fill:#1D0E21;stroke:#000000;stroke-linecap:round;stroke-linejoin:round;" d="M235.119,394.927l1.666,0.194c0,0,3.31,4.74,9.898,3.596s7.188-2.425,7.188-2.425s1.146,0.472,1.08,1.027c-0.064,0.555-6.665,11.452-8.797,13.642c-2.904-1.164-20.123-7.604-36.025-0.606s-33.379,26.529-43.437,34.247c-10.057,7.718-18.035,11.139-24.395,11.934c-0.939-0.635-0.331-2.628-0.331-2.628l12.444-28.788L235.119,394.927z"></path><path style="opacity:0.5;fill:#FFFFFF;" d="M236.25,395.847l-1.264-0.429c0,0,5.359,9.049,19.075,2.135c0.179-0.242-0.17-0.471-0.17-0.471S242.333,402.861,236.25,395.847z"></path></g><g><g><circle style="fill:#B927AE;stroke:#000000;stroke-linecap:round;stroke-linejoin:round;" cx="180.813" cy="420.845" r="3.031"></circle><circle style="fill:#B927AE;stroke:#000000;stroke-linecap:round;stroke-linejoin:round;" cx="180.813" cy="420.845" r="1.563"></circle></g><g><circle style="fill:#B927AE;stroke:#000000;stroke-linecap:round;stroke-linejoin:round;" cx="172.14" cy="428.837" r="3.032"></circle><circle style="fill:#B927AE;stroke:#000000;stroke-linecap:round;stroke-linejoin:round;" cx="172.14" cy="428.837" r="1.563"></circle></g><g><circle style="fill:#B927AE;stroke:#000000;stroke-linecap:round;stroke-linejoin:round;" cx="163.719" cy="436.605" r="3.031"></circle><circle style="fill:#B927AE;stroke:#000000;stroke-linecap:round;stroke-linejoin:round;" cx="163.719" cy="436.605" r="1.563"></circle></g><g><circle style="fill:#B927AE;stroke:#000000;stroke-linecap:round;stroke-linejoin:round;" cx="155.65" cy="444.245" r="3.032"></circle><circle style="fill:#B927AE;stroke:#000000;stroke-linecap:round;stroke-linejoin:round;" cx="155.65" cy="444.246" r="1.563"></circle></g></g></g><g><g><g><g><rect x="378.136" y="281.637" transform="matrix(0.3406 0.9402 -0.9402 0.3406 520.4685 -169.7157)" style="fill:#5D4D6C;stroke:#000000;stroke-linecap:round;stroke-linejoin:round;" width="6.187" height="9.125"></rect><rect x="379.024" y="283.055" transform="matrix(0.3403 0.9403 -0.9403 0.3403 520.6104 -170.0927)" style="fill:#493152;" width="5" height="5.833"></rect><rect x="381.06" y="284.484" transform="matrix(0.3402 0.9404 -0.9404 0.3402 521.2914 -172.4856)" style="fill:#F4E8F7;" width="5" height="1.5"></rect></g><rect x="377.605" y="268.564" transform="matrix(0.3398 0.9405 -0.9405 0.3398 512.5814 -172.0258)" style="fill:#FF60F9;stroke:#000000;stroke-linecap:round;stroke-linejoin:round;" width="2.437" height="21.062"></rect><g><polygon style="fill:#5D4D6C;stroke:#000000;stroke-linecap:round;stroke-linejoin:round;" points="389.89,275.786 367.499,283.892 375.806,284.806 384.798,281.552 "></polygon><polygon style="fill:#493152;" points="383.343,278.755 375.507,281.591 377.874,283.481 382.812,281.694 "></polygon><polygon style="fill:#F4E8F7;" points="385.065,278.131 383.106,278.84 381.479,282.177 383.673,281.382 "></polygon></g><g><polygon style="fill:#5D4D6C;stroke:#000000;stroke-linecap:round;stroke-linejoin:round;" points="389.747,274.109 366.829,282.406 369.772,254.554 "></polygon><polygon style="fill:#493152;" points="370.312,255.733 382.612,276.006 374.071,279.098 "></polygon><path style="opacity:0.5;fill:#F4E8F7;" d="M370.14,255.75c0,0-2.975,25.937-2.504,25.766c0.471-0.17,3.836-1.521,3.836-1.521L370.14,255.75z"></path><path style="fill:#F4E8F7;" d="M370.13,255.354c0,0,14.9,19.864,14.549,19.992c-0.354,0.127-2.512,0.775-2.512,0.775L370.13,255.354z"></path></g></g><g><g><rect x="397.899" y="336.233" transform="matrix(-0.3406 -0.9402 0.9402 -0.3406 217.1279 833.8773)" style="fill:#5D4D6C;stroke:#000000;stroke-linecap:round;stroke-linejoin:round;" width="6.188" height="9.125"></rect><rect x="398.865" y="337.865" transform="matrix(-0.3403 -0.9403 0.9403 -0.3403 217.4904 834.1541)" style="fill:#493152;" width="5" height="5.833"></rect><rect x="400.902" y="339.294" transform="matrix(-0.3402 -0.9404 0.9404 -0.3402 220.8815 835.0687)" style="fill:#F4E8F7;" width="5" height="1.5"></rect></g><rect x="402.475" y="337.262" transform="matrix(-0.3405 -0.9402 0.9402 -0.3405 214.1509 845.7917)" style="fill:#FF60F9;stroke:#000000;stroke-linecap:round;stroke-linejoin:round;" width="2.438" height="21.063"></rect><g><polygon style="fill:#5D4D6C;stroke:#000000;stroke-linecap:round;stroke-linejoin:round;" points="414.313,343.251 391.923,351.357 397.72,345.337 406.71,342.082 "></polygon><polygon style="fill:#493152;" points="407.382,345.162 399.546,347.999 400.155,345.03 405.093,343.243 "></polygon><polygon style="fill:#F4E8F7;" points="409.106,344.538 407.147,345.247 403.761,343.726 405.954,342.932 "></polygon></g><g><polygon style="fill:#5D4D6C;stroke:#000000;stroke-linecap:round;stroke-linejoin:round;" points="415.276,344.63 392.358,352.928 412.45,372.441 "></polygon><polygon style="fill:#493152;" points="412.108,371.191 408.581,347.741 400.04,350.833 "></polygon><path style="opacity:0.5;fill:#F4E8F7;" d="M411.966,371.287c0,0-18.889-18.022-18.418-18.192s3.922-1.286,3.922-1.286L411.966,371.287z"></path><path style="fill:#F4E8F7;" d="M412.21,371.598c0,0-1.266-24.8-1.619-24.673c-0.354,0.128-2.426,1.012-2.426,1.012L412.21,371.598z"></path></g></g></g><g><g><g><g><rect x="365.938" y="298.29" transform="matrix(0.8818 0.4716 -0.4716 0.8818 185.4778 -137.8911)" style="fill:#5D4D6C;stroke:#000000;stroke-linecap:round;stroke-linejoin:round;" width="3.781" height="5.577"></rect><rect x="366.342" y="299.072" transform="matrix(0.8818 0.4716 -0.4716 0.8818 185.3606 -137.9299)" style="fill:#493152;" width="3.054" height="3.564"></rect><rect x="366.965" y="299.229" transform="matrix(0.8818 0.4716 -0.4716 0.8818 184.8752 -138.3586)" style="fill:#F4E8F7;" width="3.057" height="0.917"></rect></g><rect x="363.087" y="292.398" transform="matrix(0.882 0.4712 -0.4712 0.882 183.733 -136.1831)" style="fill:#FF60F9;stroke:#000000;stroke-linecap:round;stroke-linejoin:round;" width="1.488" height="12.87"></rect><g><polygon style="fill:#5D4D6C;stroke:#000000;stroke-linecap:round;stroke-linejoin:round;" points="367.509,292.808 360.647,305.641 364.796,302.661 367.55,297.509 "></polygon><polygon style="fill:#493152;" points="365.745,296.832 363.347,301.323 365.194,301.214 366.706,298.385 "></polygon><polygon style="fill:#F4E8F7;" points="366.274,295.845 365.675,296.967 366.298,299.148 366.972,297.892 "></polygon></g><g><polygon style="fill:#5D4D6C;stroke:#000000;stroke-linecap:round;stroke-linejoin:round;" points="366.759,292.104 359.735,305.239 349.692,291.382 "></polygon><polygon style="fill:#493152;" points="350.419,291.698 364.292,295.882 361.675,300.776 "></polygon><path style="opacity:0.5;fill:#F4E8F7;" d="M350.347,291.774c0,0,9.248,12.999,9.393,12.73c0.145-0.27,1.121-2.259,1.121-2.259L350.347,291.774z"></path><path style="fill:#F4E8F7;" d="M350.181,291.601c0,0,14.889,2.935,14.781,3.137c-0.109,0.203-0.824,1.379-0.824,1.379L350.181,291.601z"></path></g></g><g><g><rect x="412.44" y="323.151" transform="matrix(-0.8818 -0.4716 0.4716 -0.8818 625.9601 808.7631)" style="fill:#5D4D6C;stroke:#000000;stroke-linecap:round;stroke-linejoin:round;" width="3.781" height="5.577"></rect><rect x="412.965" y="324" transform="matrix(-0.882 -0.4713 0.4713 -0.882 626.5052 808.4713)" style="fill:#493152;" width="3.056" height="3.563"></rect><rect x="413.589" y="324.156" transform="matrix(-0.8818 -0.4716 0.4716 -0.8818 628.094 806.6284)" style="fill:#F4E8F7;" width="3.057" height="0.917"></rect></g><rect x="417.673" y="321.581" transform="matrix(-0.882 -0.4712 0.4712 -0.882 632.9097 814.4943)" style="fill:#FF60F9;stroke:#000000;stroke-linecap:round;stroke-linejoin:round;" width="1.488" height="12.871"></rect><g><polygon style="fill:#5D4D6C;stroke:#000000;stroke-linecap:round;stroke-linejoin:round;" points="421.386,321.613 414.524,334.444 414.698,329.341 417.452,324.188 "></polygon><polygon style="fill:#493152;" points="419.017,325.313 416.616,329.804 415.681,328.206 417.192,325.378 "></polygon><polygon style="fill:#F4E8F7;" points="419.546,324.325 418.944,325.447 416.784,326.141 417.456,324.883 "></polygon></g><g><polygon style="fill:#5D4D6C;stroke:#000000;stroke-linecap:round;stroke-linejoin:round;" points="422.388,321.845 415.364,334.98 432.466,335.636 "></polygon><polygon style="fill:#493152;" points="431.8,335.208 420.616,325.995 417.999,330.89 "></polygon><path style="opacity:0.5;fill:#F4E8F7;" d="M431.774,335.31c0,0-15.945-0.47-15.801-0.739s1.256-2.187,1.256-2.187L431.774,335.31z"></path><path style="fill:#F4E8F7;" d="M432.013,335.351c0,0-10.709-10.75-10.816-10.547c-0.109,0.202-0.689,1.449-0.689,1.449L432.013,335.351z"></path></g></g></g><g><g><g><rect x="379.283" y="335.154" transform="matrix(0.3755 -0.9268 0.9268 0.3755 -75.1654 564.3337)" style="fill:#5D4D6C;stroke:#000000;stroke-linecap:round;stroke-linejoin:round;" width="3.782" height="5.576"></rect><rect x="379.82" y="336.306" transform="matrix(0.3758 -0.9267 0.9267 0.3758 -75.2681 564.4329)" style="fill:#493152;" width="3.056" height="3.564"></rect><rect x="381.047" y="338.128" transform="matrix(0.3758 -0.9267 0.9267 0.3758 -74.9625 565.8807)" style="fill:#F4E8F7;" width="3.056" height="0.915"></rect></g><rect x="378.796" y="335.792" transform="matrix(0.3752 -0.9269 0.9269 0.3752 -80.0957 565.6188)" style="fill:#FF60F9;stroke:#000000;stroke-linecap:round;stroke-linejoin:round;" width="1.489" height="12.869"></rect><g><polygon style="fill:#5D4D6C;stroke:#000000;stroke-linecap:round;stroke-linejoin:round;" points="386.222,344.501 372.737,339.034 377.831,338.668 383.245,340.863 "></polygon><polygon style="fill:#493152;" points="382.292,342.538 377.573,340.624 379.063,339.524 382.036,340.729 "></polygon><polygon style="fill:#F4E8F7;" points="383.331,342.958 382.151,342.479 381.233,340.404 382.556,340.94 "></polygon></g><g><polygon style="fill:#5D4D6C;stroke:#000000;stroke-linecap:round;stroke-linejoin:round;" points="386.097,345.522 372.292,339.926 373.448,357.002 "></polygon><polygon style="fill:#493152;" points="373.804,356.294 381.782,344.199 376.64,342.113 "></polygon><path style="opacity:0.5;fill:#F4E8F7;" d="M373.698,356.28c0,0-1.215-15.906-0.934-15.792c0.283,0.114,2.309,1.018,2.309,1.018L373.698,356.28z"></path><path style="fill:#F4E8F7;" d="M373.683,356.521c0,0,9.559-11.785,9.348-11.871c-0.213-0.086-1.516-0.531-1.516-0.531L373.683,356.521z"></path></g></g><g><g><rect x="399.094" y="286.287" transform="matrix(-0.3756 0.9268 -0.9268 -0.3756 819.4962 26.0147)" style="fill:#5D4D6C;stroke:#000000;stroke-linecap:round;stroke-linejoin:round;" width="3.781" height="5.576"></rect><rect x="399.683" y="287.31" transform="matrix(-0.3759 0.9267 -0.9267 -0.3759 819.918 25.9783)" style="fill:#493152;" width="3.055" height="3.564"></rect><rect x="400.909" y="289.131" transform="matrix(-0.3758 0.9267 -0.9267 -0.3758 822.035 25.4759)" style="fill:#F4E8F7;" width="3.056" height="0.917"></rect></g><rect x="402.051" y="278.428" transform="matrix(-0.3752 0.9269 -0.9269 -0.3752 817.9854 18.3905)" style="fill:#FF60F9;stroke:#000000;stroke-linecap:round;stroke-linejoin:round;" width="1.489" height="12.87"></rect><g><polygon style="fill:#5D4D6C;stroke:#000000;stroke-linecap:round;stroke-linejoin:round;" points="409.175,287.882 395.688,282.417 399.091,286.226 404.505,288.421 "></polygon><polygon style="fill:#493152;" points="404.987,286.556 400.269,284.643 400.571,286.47 403.544,287.675 "></polygon><polygon style="fill:#F4E8F7;" points="406.024,286.978 404.845,286.499 402.741,287.351 404.063,287.886 "></polygon></g><g><polygon style="fill:#5D4D6C;stroke:#000000;stroke-linecap:round;stroke-linejoin:round;" points="409.796,287.063 395.991,281.468 408.71,270.017 "></polygon><polygon style="fill:#493152;" points="408.474,270.771 405.778,285.009 400.636,282.923 "></polygon><path style="opacity:0.5;fill:#F4E8F7;" d="M408.39,270.709c0,0-11.949,10.568-11.668,10.684c0.283,0.114,2.365,0.876,2.365,0.876L408.39,270.709z"></path><path style="fill:#F4E8F7;" d="M408.546,270.526c0,0-1.348,15.113-1.559,15.027c-0.213-0.087-1.459-0.674-1.459-0.674L408.546,270.526z"></path></g></g></g></g><g><path style="fill:#1D0E21;stroke:#000000;stroke-linecap:round;stroke-linejoin:round;" d="M397.003,342.073c12.781-5.823,17.662-20.618,19.58-25.966c2.705-2.441,12.348-8.856,12.348-8.856s-12.387-0.435-22.83,5.605c0.404,1.848-0.107,16.975-12.844,20.337c-14.926,3.94-20.775-12.952-20.775-12.952s-6.318-16.723,7.67-23.249c11.938-5.569,22.014,5.724,22.887,7.401c11.889-2.043,21.127-10.307,21.127-10.307s-11.514,1.243-15.154,1.1c-4.898-2.88-18.119-11.122-31.666-7.414c-13.547,3.707-18.164,13.355-18.539,14.155c-0.373,0.8,3.873,2.985,5.053,7.345c1.18,4.358-2.104,7.408-2.104,7.408l4.766,13.164c0,0,4.475,0.24,6.357,4.345c1.885,4.104,0.02,8.501,0.82,8.876S384.222,347.896,397.003,342.073z"></path><g><path style="fill:#835C9E;" d="M376.157,341.776c0.139-1.618,2.449-4.438,3.463-5.309c0,0,0.674-0.709,3.059,0.555s5.795,2.422,14.492-0.727s9.895-11.227,16.318-15.146c1.23-1.376,2.01-4.915,2.01-4.915s-2.318,0.573-2.049-1.253s7.771-5.339,8.051-5.307c1.047,0.264,0.205,1.121,0.205,1.121s2.244-1.145,4.721-3.303c0,0-11.105,3.289-14.465,6.498c-2.16-1.012-5.219-1.566-5.219-1.566l-0.227,1.212l5.334,0.595c0,0-2.33,7.488-6.584,14.681c-3.752,6.343-25.277,18.124-34.725-7.969c-9.445-26.093,14.633-30.821,21.576-28.35c7.873,2.802,14.455,7.063,14.455,7.063l-3.717,3.871l0.949,0.787c0,0,1.996-2.385,3.008-4.545c4.635,0.316,15.273-4.267,15.273-4.267c-3.285-0.074-5.742,0.483-5.742,0.483s1.197,0.121,0.561,0.994c-0.193,0.202-8.205,2.305-9.582,1.075c-1.375-1.229,0.773-2.273,0.773-2.273s-2.865-2.22-4.691-2.489c-7.445,1.1-13.535-4.34-22.232-1.191s-10.576,6.222-11.6,8.719c-1.023,2.498-1.996,2.385-1.996,2.385c-1.334-0.021-4.914-0.708-6.057-1.861c-0.518-0.523,0.26-1.878,0.217-2.339c-1.664,1.466-2.217,3.794-1.875,4.002c1.629-0.457,8.662-0.677,7.992,4.817s1.748,13.459,1.748,13.459s3.24,7.666,7.271,11.459c4.031,3.791-1.512,8.125-3.055,8.816c-0.129,0.379,1.785,1.813,4.002,1.875C377.558,343.052,376.093,342.51,376.157,341.776z"></path><path style="fill:#835C9E;" d="M371.479,323.961c0.082,0.103,1.121,1.013,2.658,0.854c0.455,1.254,3.475,7.028,8.973,8.627c1.016,2.07,4.383,4.396,4.383,4.396s-6.453-0.811-10.586-5.74C372.774,327.171,371.479,323.961,371.479,323.961z"></path></g></g></g><circle style="fill:#835C9E;stroke:#000000;stroke-linecap:round;stroke-linejoin:round;" cx="160.425" cy="389.347" r="1.104"></circle><circle style="fill:#835C9E;stroke:#000000;stroke-linecap:round;stroke-linejoin:round;" cx="161.985" cy="393.657" r="1.105"></circle><g><g><linearGradient id="leftXMLID_135_" gradientUnits="userSpaceOnUse" x1="140.2163" y1="55.3628" x2="140.2163" y2="-124.3018" gradientTransform="matrix(0.3404 0.9403 -0.9403 0.3404 199.1696 233.8412)"><stop offset="0.0056" style="stop-color:#F9FBEA"></stop><stop offset="0.4888" style="stop-color:#FDACF8"></stop><stop offset="0.8258" style="stop-color:#872693"></stop><stop offset="1" style="stop-color:#320F4B"></stop></linearGradient><polygon style="fill:url(#leftXMLID_135_);stroke:#000000;stroke-linecap:round;stroke-linejoin:round;" points="366.271,328.056 364.954,322.948 362.696,318.183 191.55,376.418 197.506,392.873 "></polygon><g><rect x="357.261" y="322.668" transform="matrix(0.3404 0.9403 -0.9403 0.3404 543.9688 -128.5048)" style="fill:#1D0F21;stroke:#000000;stroke-linecap:round;stroke-linejoin:round;" width="12.625" height="1.562"></rect><rect x="346.095" y="326.71" transform="matrix(0.3404 0.9403 -0.9403 0.3404 540.4043 -115.3388)" style="fill:#1D0F21;stroke:#000000;stroke-linecap:round;stroke-linejoin:round;" width="12.625" height="1.562"></rect><rect x="335.634" y="330.497" transform="matrix(0.3404 0.9403 -0.9403 0.3404 537.0643 -103.0046)" style="fill:#1D0F21;stroke:#000000;stroke-linecap:round;stroke-linejoin:round;" width="12.625" height="1.562"></rect><rect x="325.173" y="334.284" transform="matrix(0.3404 0.9403 -0.9403 0.3404 533.7248 -90.67)" style="fill:#1D0F21;stroke:#000000;stroke-linecap:round;stroke-linejoin:round;" width="12.625" height="1.562"></rect><rect x="313.627" y="338.368" transform="matrix(0.3404 0.9403 -0.9403 0.3404 530.0873 -77.3839)" style="fill:#1D0F21;stroke:#000000;stroke-linecap:round;stroke-linejoin:round;" width="13.15" height="1.562"></rect><rect x="301.025" y="342.771" transform="matrix(0.3405 0.9403 -0.9403 0.3405 526.1841 -63.053)" style="fill:#1D0F21;stroke:#000000;stroke-linecap:round;stroke-linejoin:round;" width="14.025" height="1.564"></rect><rect x="289.518" y="346.772" transform="matrix(0.3404 0.9403 -0.9403 0.3404 522.7004 -50.0023)" style="fill:#1D0F21;stroke:#000000;stroke-linecap:round;stroke-linejoin:round;" width="14.942" height="1.562"></rect><rect x="277.338" y="351.09" transform="matrix(0.3405 0.9403 -0.9403 0.3405 518.8489 -35.9623)" style="fill:#1D0F21;stroke:#000000;stroke-linecap:round;stroke-linejoin:round;" width="15.442" height="1.562"></rect><rect x="265.991" y="355.048" transform="matrix(0.3405 0.9403 -0.9403 0.3405 515.3695 -23.0693)" style="fill:#1D0F21;stroke:#000000;stroke-linecap:round;stroke-linejoin:round;" width="16.275" height="1.562"></rect><rect x="257.656" y="358.005" transform="matrix(0.3405 0.9403 -0.9403 0.3405 512.7542 -13.4441)" style="fill:#1D0F21;stroke:#000000;stroke-linecap:round;stroke-linejoin:round;" width="16.61" height="1.562"></rect><rect x="249.565" y="360.813" transform="matrix(0.3404 0.9403 -0.9403 0.3404 510.3193 -4.2694)" style="fill:#1D0F21;stroke:#000000;stroke-linecap:round;stroke-linejoin:round;" width="17.275" height="1.562"></rect><rect x="242.639" y="363.366" transform="matrix(0.3404 0.9403 -0.9403 0.3404 508.0518 4.0328)" style="fill:#1D0F21;stroke:#000000;stroke-linecap:round;stroke-linejoin:round;" width="17.026" height="1.563"></rect><rect x="236.67" y="365.451" transform="matrix(0.3404 0.9403 -0.9403 0.3404 506.2351 10.8402)" style="fill:#1D0F21;stroke:#000000;stroke-linecap:round;stroke-linejoin:round;" width="17.442" height="1.563"></rect><rect x="231.173" y="367.365" transform="matrix(0.3404 0.9403 -0.9403 0.3404 504.5312 17.0649)" style="fill:#1D0F21;stroke:#000000;stroke-linecap:round;stroke-linejoin:round;" width="17.859" height="1.563"></rect><rect x="225.296" y="369.493" transform="matrix(0.3404 0.9403 -0.9403 0.3404 502.662 23.9986)" style="fill:#1D0F21;stroke:#000000;stroke-linecap:round;stroke-linejoin:round;" width="17.859" height="1.563"></rect><rect x="219.263" y="371.557" transform="matrix(0.3404 0.9403 -0.9403 0.3404 500.8431 30.7209)" style="fill:#1D0F21;stroke:#000000;stroke-linecap:round;stroke-linejoin:round;" width="18.525" height="1.563"></rect><rect x="213.56" y="373.727" transform="matrix(0.3404 0.9403 -0.9403 0.3404 498.9283 37.7873)" style="fill:#1D0F21;stroke:#000000;stroke-linecap:round;stroke-linejoin:round;" width="17.943" height="1.562"></rect><rect x="205.253" y="376.462" transform="matrix(0.3404 0.9403 -0.9403 0.3404 496.5118 46.6942)" style="fill:#1D0F21;stroke:#000000;stroke-linecap:round;stroke-linejoin:round;" width="19.442" height="1.563"></rect></g><circle style="fill:#1D0E21;stroke:#000000;stroke-linecap:round;stroke-linejoin:round;" cx="218.74" cy="375.88" r="0.812"></circle><circle style="fill:#1D0E21;stroke:#000000;stroke-linecap:round;stroke-linejoin:round;" cx="231.258" cy="371.349" r="0.812"></circle><circle style="fill:#1D0E21;stroke:#000000;stroke-linecap:round;stroke-linejoin:round;" cx="242.659" cy="367.221" r="0.813"></circle><circle style="fill:#1D0E21;stroke:#000000;stroke-linecap:round;stroke-linejoin:round;" cx="291.671" cy="349.478" r="0.813"></circle><circle style="fill:#1D0E21;stroke:#000000;stroke-linecap:round;stroke-linejoin:round;" cx="314.167" cy="341.334" r="0.813"></circle><g><circle style="fill:#1D0E21;stroke:#000000;stroke-linecap:round;stroke-linejoin:round;" cx="261.005" cy="357.124" r="0.813"></circle><circle style="fill:#1D0E21;stroke:#000000;stroke-linecap:round;stroke-linejoin:round;" cx="263.217" cy="363.235" r="0.812"></circle></g></g><g><g><path style="fill:#D12FDC;stroke:#000000;stroke-linecap:round;stroke-linejoin:round;" d="M202.737,393.979c-0.82,0.297-1.724-0.127-2.021-0.946l-6.803-18.792c-0.297-0.819,0.126-1.725,0.947-2.021l8.193-2.967c0.82-0.297,1.725,0.127,2.021,0.946l6.803,18.793c0.296,0.819-0.127,1.724-0.947,2.021L202.737,393.979z"></path><path style="fill:#D12FDC;stroke:#000000;stroke-linecap:round;stroke-linejoin:round;" d="M203.771,391.275c-0.464,0.167-0.976-0.072-1.144-0.536l-5.778-15.961c-0.167-0.463,0.072-0.975,0.536-1.143l4.636-1.679c0.463-0.168,0.975,0.072,1.143,0.535l5.778,15.961c0.168,0.464-0.072,0.976-0.535,1.144L203.771,391.275z"></path><g><g><circle style="fill:#D12FDC;stroke:#000000;stroke-linecap:round;stroke-linejoin:round;" cx="203.91" cy="370.901" r="1.104"></circle><circle style="fill:#D12FDC;stroke:#000000;stroke-linecap:round;stroke-linejoin:round;" cx="195.448" cy="373.965" r="1.104"></circle></g><g><circle style="fill:#D12FDC;stroke:#000000;stroke-linecap:round;stroke-linejoin:round;" cx="210.534" cy="389.198" r="1.104"></circle><circle style="fill:#D12FDC;stroke:#000000;stroke-linecap:round;stroke-linejoin:round;" cx="202.071" cy="392.262" r="1.104"></circle></g></g></g><g><path style="fill:#D12FDC;stroke:#000000;stroke-linecap:round;stroke-linejoin:round;" d="M180.406,402.063c-0.82,0.297-1.725-0.127-2.021-0.947l-6.803-18.792c-0.296-0.819,0.127-1.724,0.947-2.021l8.194-2.966c0.82-0.297,1.724,0.127,2.021,0.946l6.803,18.792c0.297,0.819-0.126,1.724-0.947,2.021L180.406,402.063z"></path><path style="fill:#D12FDC;stroke:#000000;stroke-linecap:round;stroke-linejoin:round;" d="M181.438,399.359c-0.463,0.168-0.975-0.072-1.143-0.536l-5.778-15.96c-0.168-0.464,0.072-0.976,0.535-1.144l4.636-1.679c0.464-0.167,0.976,0.072,1.143,0.536l5.778,15.96c0.167,0.464-0.072,0.976-0.536,1.144L181.438,399.359z"></path><g><g><circle style="fill:#D12FDC;stroke:#000000;stroke-linecap:round;stroke-linejoin:round;" cx="181.578" cy="378.986" r="1.104"></circle><circle style="fill:#D12FDC;stroke:#000000;stroke-linecap:round;stroke-linejoin:round;" cx="173.116" cy="382.049" r="1.104"></circle></g><g><circle style="fill:#D12FDC;stroke:#000000;stroke-linecap:round;stroke-linejoin:round;" cx="188.202" cy="397.282" r="1.104"></circle><circle style="fill:#D12FDC;stroke:#000000;stroke-linecap:round;stroke-linejoin:round;" cx="179.74" cy="400.346" r="1.104"></circle></g></g></g></g><g><g><rect x="144.182" y="394.9" transform="matrix(0.3404 0.9403 -0.9403 0.3404 479.8385 108.3634)" style="fill:#D12FDC;stroke:#000000;stroke-linecap:round;stroke-linejoin:round;" width="37.001" height="2.583"></rect><g><circle style="fill:#D12FDC;stroke:#000000;stroke-linecap:round;stroke-linejoin:round;" cx="160.537" cy="389.656" r="1.104"></circle><circle style="fill:#D12FDC;stroke:#000000;stroke-linecap:round;stroke-linejoin:round;" cx="162.097" cy="393.965" r="1.105"></circle><circle style="fill:#D12FDC;stroke:#000000;stroke-linecap:round;stroke-linejoin:round;" cx="163.657" cy="398.275" r="1.104"></circle><circle style="fill:#D12FDC;stroke:#000000;stroke-linecap:round;stroke-linejoin:round;" cx="165.217" cy="402.585" r="1.105"></circle></g></g><rect x="138.854" y="396.829" transform="matrix(0.3404 0.9403 -0.9403 0.3404 478.1379 114.6451)" style="fill:#D12FDC;stroke:#000000;stroke-linecap:round;stroke-linejoin:round;" width="37.001" height="2.583"></rect></g></g></g><g><line style="fill:none;stroke:#FFFFFF;stroke-width:0.5;stroke-linecap:round;stroke-linejoin:round;" x1="364.251" y1="327.618" x2="165.136" y2="402.359"></line><line style="fill:none;stroke:#FFFFFF;stroke-width:0.5;stroke-linecap:round;stroke-linejoin:round;" x1="361.341" y1="319.577" x2="160.523" y2="389.618"></line><line style="fill:none;stroke:#FFFFFF;stroke-width:0.5;stroke-linecap:round;stroke-linejoin:round;" x1="162.549" y1="393.989" x2="362.849" y2="322.275"></line><line style="fill:none;stroke:#FFFFFF;stroke-width:0.5;stroke-linecap:round;stroke-linejoin:round;" x1="164.047" y1="398.127" x2="363.837" y2="325.003"></line></g></g></g></svg>