<svg xmlns="http://www.w3.org/2000/svg" width="500" height="500" version="1.1"><g id="x9178"><g><g id="leftXMLID_14_"><g><g><linearGradient id="leftXMLID_136_" gradientUnits="userSpaceOnUse" x1="-96.1348" y1="437.7832" x2="9.4984" y2="333.2334" gradientTransform="matrix(-0.9982 0.0597 0.0597 0.9982 256.7426 -9.262)"><stop offset="0" style="stop-color:#45413E"></stop><stop offset="0.3258" style="stop-color:#45413E"></stop><stop offset="0.6011" style="stop-color:#8D888B"></stop><stop offset="0.6966" style="stop-color:#4B4745"></stop><stop offset="1" style="stop-color:#45413E"></stop></linearGradient><path style="fill:url(#leftXMLID_136_);" d="M268.844,328.304c0,0-3.123,2.222-3.861,3.487c2.534,4.936,76.944,98.979,181.228,137.917c0,0,6.106,0.042,7.835-1.69C426.045,452.396,355.281,426.105,268.844,328.304z"></path></g><g><circle style="fill:#6E6E6E;" cx="289.073" cy="355.177" r="0.711"></circle><circle style="fill:#6E6E6E;" cx="286.589" cy="352.782" r="1.155"></circle><path style="fill:#6E6E6E;" d="M281.096,349.415c0.07,1.159,1.064,2.042,2.224,1.973c1.159-0.07,2.042-1.064,1.972-2.224c-0.068-1.157-1.063-2.041-2.223-1.972C281.909,347.261,281.027,348.257,281.096,349.415z M282.043,349.766c-0.048-0.816,0.574-1.519,1.392-1.566c0.816-0.05,1.519,0.573,1.567,1.389c0.049,0.817-0.574,1.52-1.391,1.568C282.794,351.205,282.092,350.582,282.043,349.766z"></path></g><circle style="fill:#6E6E6E;" cx="277.212" cy="342.604" r="1.155"></circle><path style="fill:#6E6E6E;" d="M271.986,338.835c-0.016,1.16,0.909,2.115,2.07,2.133c1.161,0.02,2.115-0.908,2.133-2.068c0.018-1.161-0.908-2.115-2.068-2.133C272.959,336.749,272.006,337.674,271.986,338.835z M272.906,339.255c0.013-0.818,0.686-1.472,1.504-1.458c0.818,0.013,1.471,0.687,1.458,1.503c-0.013,0.819-0.687,1.473-1.505,1.46C273.546,340.747,272.893,340.072,272.906,339.255z"></path><path style="fill:#6E6E6E;" d="M296.615,363.883l2.354,0.267l3.964,3.324l3.38,0.357c1.546,1.48,3.084,2.931,4.615,4.365l-5.044,5.401c-1.828-1.761-3.612-3.5-5.332-5.202l0.057-2.951l-3.48-3.761L296.615,363.883z"></path><ellipse transform="matrix(-0.711 -0.7032 0.7032 -0.711 250.8377 826.5387)" style="fill:#6E6E6E;" cx="295.265" cy="361.725" rx="1.625" ry="0.948"></ellipse><path style="fill:#6E6E6E;" d="M446.21,469.708c-62.687-23.406-114.569-66.719-146.543-98.624c0.044-0.014,0.087-0.019,0.124-0.015c0.308,0.033,1.367,0.733,2.166,1.347c0.77,0.589,1.523,0.289,1.582,0.265c-0.03,0.018-0.047,0.11,1.018,0.647c1.258,0.637,1.421-0.898,3.322,0.26c1.9,1.159,1.387,3.629,3.217,5.301c1.829,1.673,2.254,0.274,3.849,1.399c1.593,1.124,1.208,3.184,2.718,4.618c1.511,1.437,1.369-0.081,3.368,1.021s0.659,2.505,2.593,4.221s1.742,0.202,3.531,1.213c1.791,1.013,0.564,2.611,3.43,4.575c2.865,1.967,2.945-0.071,4.641,1.046c1.695,1.121,1.758,3.864,3.375,5.395c1.618,1.532,2.033-0.02,3.699,0.593c1.664,0.614,1.137,3.697,3.482,5.49s1.818-0.211,3.818,0.891c1.998,1.102,1.632,3.465,3.338,4.786c1.707,1.323,2.016-0.324,3.675,0.188s0.502,1.599,2.663,3.707c2.162,2.109,1.623-0.097,3.705,0.695c2.082,0.789,1.654,2.14,2.599,4.32c0.944,2.183,3.491,2.233,4.644,2.775c1.151,0.541,0.877,1.066,2.198,2.717c1.319,1.651,3.949,1.392,5.846,2.5c1.898,1.106,0.838,2.087,2.032,3.337c1.194,1.251,2.059,0.385,3.621,1.005c1.563,0.62,0.997,1.365,2.299,2.711c1.302,1.348,1.558,0.519,3.824,0.992c2.268,0.476,1.726,1.626,2.389,2.502c0.662,0.877,3.621,1.005,4.755,1.243c1.133,0.237,1.021,1.77,2.633,3.199c1.612,1.431,2.882,0.541,4.433,0.957c1.552,0.415,1.016,1.668,2.418,3.01c1.404,1.34,2.465,0.36,3.801,0.586c1.336,0.225,0.562,0.882,2.262,2.104c1.701,1.22,2.864,0.235,4.105,0.567c1.24,0.333,1.217,1.658,2.943,3.284c1.725,1.626,3.197,0.725,4.229,0.969c1.032,0.243,0.46,0.889,1.337,1.955c0.879,1.066,2.959,0.128,4.087,0.263c1.128,0.137-0.06,0.717,1.647,2.039s1.976,0.696,2.78,0.547c0.806-0.15,0.651,0.672,1.6,1.227c0.948,0.554,1.366,0.732,2.272,0.576c0.907-0.158,2.083,0.79,3.09,0.629c1.008-0.162,0.322-1.444,0.196-1.843l1.952-0.66c4.208,2.119,7.914,4.02,11.072,5.781C452.316,469.75,446.21,469.708,446.21,469.708z"></path></g><g><path style="fill:none;stroke:#000000;stroke-linecap:round;stroke-linejoin:round;" d="M268.844,328.304c0,0-3.123,2.222-3.861,3.487c2.534,4.936,76.944,98.979,181.228,137.917c0,0,6.106,0.042,7.835-1.69C426.045,452.396,355.281,426.105,268.844,328.304z"></path></g></g><path style="fill:#6E6E6E;" d="M321.232,374.009c-0.168,0.252,2.684-3.892,2.141-7.317c-1.301-0.194-6.901,1.431-14.217,9.534c-7.316,8.103-8.439,14.274-8.025,15.538c0.415,1.264,1.35,1.004,1.882,0.837s6.44-4.591,6.44-4.591s-4.304,6.295-11.802,6.812c-1.042-0.413-0.808-1.036-0.808-1.036s-1.292-6.845,11.268-20.28c12.559-13.437,16.101-10.934,16.101-10.934S327.396,364.756,321.232,374.009z"></path></g></g></svg>