<svg xmlns="http://www.w3.org/2000/svg" width="500" height="500" version="1.1"><g id="x9179"><g><g><g><g><path style="fill:#B5C2EC;" d="M371.127,128.419c6.015-5.878,6.391-16.044,6.391-16.044c4.633-0.976,10.479-0.366,10.479-0.366s7.906,1.399,10.096,7.619c0,0-3.978,8.217-4.283,15.187c-0.305,6.969,0.396,27.295-1.969,33.476c-2.365,6.181-20.68,33.597-25.484,40.334c-4.421-1.247-5.189-1.463-5.189-1.463s-0.77-0.217-5.19-1.464c-0.577-8.255-2.042-32.908,0.716-46.695C358.971,147.61,366.137,133.294,371.127,128.419z"></path><path style="fill:#D8BDF0;" d="M386.236,178.228c0,0-2.486,2.931-2.764,1.71c-0.279-1.22,0.452-3.815,0.777-4.968s0.34-8.931-2.867-11.91c-1.685,4.505-4.124,9.109-4.184,7.847c-0.059-1.262-2.968-9.345-4.986-9.914c-2.019-0.569-3.09,2.864-3.881,4.197c-0.792,1.333-1.609,2.763-2.79,2.533c-1.181-0.229-3.484-4.199-4.414-3.112c-0.929,1.087,5.361,15.208,3.774,16.42c-1.587,1.212-2.57-1.555-4.238-0.054c-1.669,1.501-2.193,8.513-1.021,10.607c1.174,2.095,5.617,9.884,6.569,11.294c0.951,1.409,1.686,3.587,1.686,3.587S381.888,185.925,386.236,178.228z"></path><path style="fill:#FAC2CD;" d="M370.958,130.861c0,0,5.233-5.683,9.526-5.822c-1.443-1.133-1.764-2.572-0.557-2.439c1.207,0.132,1.787,1.022,1.787,1.022s-1.134-2.602-1.96-3.354c0.364-1.661,3.753-5.582,7.169-5.553c3.415,0.03,4.581,3.99,4.188,5.021c-0.395,1.03-1.407,1.678-0.789,2.06c0.619,0.382,1.4,0.187,1.4,0.187s-1.803,2.708-0.498,2.869c1.304,0.16,2.779-1.395,2.514-3.026c1.291,0.571,2.592,0.005,2.681-2.149c0.089-2.154-1.257-2.533-1.257-2.533s-1.079-2.794-2.206-3.216c-1.126-0.421-1.673,0.047-1.673,0.047s-4.216-4.924-14.121-1.803c-0.396,4.35-1.563,8.483-1.563,8.483s-0.217-3.278-1.637-5.234c-1.034,6.245-2.07,12.489-7.738,19.71C367.282,135.428,370.958,130.861,370.958,130.861z"></path><path style="fill:#D4E4FC;" d="M393.336,149c0.026-0.092,0.029-0.413-0.006-0.875C393.311,148.748,393.309,149.101,393.336,149z M374.158,161.576c0,0,0.02,0.421,1.141,1.843c-1.516,6.352,0.818,14.757,0.986,15.634c0.168,0.877,1.012,1.807,1.689,1.86s1.816-3.5,3.666-8.097s5.313-8.047,6.943-7.449c1.63,0.597,0.5,7.058,0.5,7.058c1.533-0.536,2.635-4.929,2.635-4.929s1.875-7.634-1.181-8.081c-3.056-0.446-7.237,6.537-8.126,9.191c-0.887,2.655-3.597,6.871-4.313,5.978c-1.449-1.239-0.066-8.596-0.066-8.596c-2.734-13.36,5.971-23.633,5.971-23.633s2.183-3.812,4.801-2.796c3.396,1.317,4.365,6.464,4.525,8.564c0.082-2.54,0.482-9.642,0.482-9.642s-0.795-2.576-1.291-3.27c-0.496-0.693-0.08-7.078-2.133-8.625c-2.054-1.548-6.451,1.778-7.869,3.868c-3.254,0.743-4.525,3.29-7.627,10.854C371.791,148.873,374.158,161.576,374.158,161.576z M385.6,130.079c0.018-0.548,0.779-1.786,1.457-1.734c0.676,0.053,1.255,0.7,1.038,1.469c-0.217,0.769-0.323,1.638-1.192,1.531C386.034,131.238,385.582,130.627,385.6,130.079z M380.15,132.969c0.47-1.182,2.031-2.056,3.334-1.273c1.301,0.782,1.055,3.617,0.024,4.572c-1.031,0.954-2.689-0.274-2.689-0.274C379.078,134.811,379.68,134.15,380.15,132.969z"></path><path style="fill:#FAC2CD;" d="M369.584,193.869c0,0,1.711-5.328,1.102-6.849c-0.608-1.52-5.197-7.691-7.359-9.96c-0.762-2.082-1.03-4.441-1.747-5.577c-0.718-1.136-1.516-1.984-1.737-2.669c-0.223-0.685-3.262-10.88,0.609-22.032c-3.391,7.967-5.911,20.226-5.309,27.659c-0.365,1.661-0.279,2.826-0.279,2.826s-0.193,11.359,0.127,12.798s0.728,8.091,0.728,8.091l5.604-1.844l-2.057-3.381c0,0,1.412-0.224,1.465-1.144c0,0,1.461-1.871,1.113-3.213c-0.348-1.343-4.49-1.37-4.594-3.579c-0.104-2.208-0.963-8.364,0.145-9.712c1.106-1.348,2.124-0.542,3.421,1.483c0,0,3.824,3.361,4.663,7.748c1.209,0.86,1.848,3.012,1.713,3.492c-0.136,0.481-1.285,4.93-2.491,5.523C363.494,194.123,367.99,196.947,369.584,193.869z"></path><path style="fill:#F8D2F9;" d="M365.517,156.407c0,0-2.483-15.848,1.172-22.185c-4.212,7.943-5.737,11.145-5.749,11.556s-2.047,6.893,0.602,11.479C362.485,156.486,365.517,156.407,365.517,156.407z"></path><path style="fill:#D4E4FC;" d="M366.739,160.66c-0.316-0.526-2.083-7.574-2.953-7.681c-0.869-0.107-0.806,2.125-0.806,2.125s-1.439-0.544-1.783,0.188c-0.346,0.733,0.945,4.002,1.344,5.291s0.377,3.08,1.902,5.032c1.523,1.952,4.989,7.079,4.808,9.933c-0.183,2.853-0.512,5.251,0.014,6.575c0.524,1.324,1.195,7.047,0.632,8.063c-0.564,1.017-0.597,2.115-0.723,2.564c-0.127,0.448-1.518,0.471-1.518,0.471s1.216-0.141,1.229-1.659c0.014-1.518-0.654-7.24-3.764-7.01c-1.115,2.729-0.838,3.707-1.287,3.58c-0.447-0.126-0.75-0.281-0.895,0.232s-1.344,0.589-1.742,1.515c-0.398,0.926-0.592,3.568-0.488,3.943c0.101,0.374-1.336,3.013-2.238,3.519c-0.903,0.506-2.87,0.367-2.87,0.367s0.05,6.447-0.595,7.995c2.791,0.648,11.078,3.4,11.078,3.4s2.121-5.558,3.524-6.615c-1.107-0.243-2.001-2.224-1.655-2.957s2.58-4.736,4.082-4.175c0.893-1.201,0.053-2.89,0.053-2.89s1.939-2.704,1.259-6.424c-0.681-3.719-0.507-3.602-0.419-4.891c0.087-1.29-2.695-4.426-2.777-7.078C370.068,171.421,369.094,164.575,366.739,160.66z"></path></g><path style="fill:none;stroke:#000000;" d="M354.99,190.065c-0.32-1.439-0.127-12.798-0.127-12.798s-0.086-1.166,0.279-2.826c-0.373-4.598,0.451-11.042,1.936-17.174c0.131-0.554,0.275-1.113,0.426-1.676c0.047-0.176,0.092-0.353,0.14-0.528c0.075-0.271,0.15-0.542,0.229-0.814c0.761-2.688,1.634-5.246,2.578-7.466c-0.025,0.074-0.043,0.146-0.068,0.219c1.778-4.463,3.899-8.743,6.011-12.221c0.099-0.188,0.192-0.365,0.295-0.558c-0.097,0.167-0.186,0.343-0.272,0.522c1.01-1.663,2.014-3.138,2.977-4.355c2.957-5.292,3.77-10.132,4.57-14.971c1.42,1.957,1.637,5.234,1.637,5.234s1.166-4.133,1.563-8.483c5.326-1.678,8.994-1.027,11.26-0.069c1.654,0.388,7.781,2.164,9.67,7.527c0,0-3.978,8.217-4.283,15.187c-0.04,0.923-0.063,2.085-0.077,3.413c0.051,0.158,0.081,0.254,0.081,0.254s-0.041,0.708-0.098,1.756c-0.054,8.963,0.027,23.082-1.875,28.053c-0.994,2.599-4.813,8.956-9.256,15.948c-1.328,2.102-2.813,4.399-4.319,6.7c-2.769,4.242-5.511,8.354-7.765,11.681c-1.576,2.339-2.602,3.846-2.602,3.846s-0.008-0.023-0.01-0.029c-0.598,0.862-1.118,1.607-1.533,2.188c-0.026-0.007-0.049-0.014-0.076-0.021c-0.123,0.31-0.195,0.498-0.195,0.498s-8.287-2.751-11.078-3.4c0.429-1.028,0.55-4.213,0.583-6.239c-0.118-2.168-0.233-4.629-0.325-7.267C355.173,191.258,355.078,190.461,354.99,190.065z"></path><path style="fill:#3C3C3C;stroke:#000000;stroke-linecap:round;stroke-linejoin:round;" d="M344.973,213.075c2.68-6.195,10.658-7.993,10.658-7.993l11.341,3.198c0,0,5.863,5.7,4.913,12.383c-2.99,0.298-13.596,15.465-14.61,19.434c-1.015,3.967,0.915,6.69,0.915,6.69s-1.311,1.705-2.243,2.064c-0.394,1.03,0.472,9.367,2.209,12.037c-0.843,0.926-16.698,42.757-31.284,88.501c-11.26,35.313-22.794,72.553-28.558,93.005c-2.735,9.707-3.575,15.801-3.575,15.801l-4.85,1.745l-3.224-4.022c0,0,2.445-5.557,5.151-15.147c5.76-20.407,15.416-58.311,24.291-94.416c11.459-46.626,19.793-90.578,19.558-91.808c2.876-1.369,7.97-8.025,8.171-9.109c-0.605-0.793-0.832-2.933-0.832-2.933s3.068-1.313,4.275-5.227C348.486,233.365,347.365,214.892,344.973,213.075z"></path><path style="fill:#FFFFFF;" d="M349.63,244.928c0,0,1.657,1.297,2.081,0.725c0.424-0.571,0.93-5.686,0.687-5.754C352.154,239.829,349.763,243.928,349.63,244.928z"></path><path style="opacity:0.8;fill:#FFFFFF;" d="M357.43,260.892c0,0-20.634,54.775-27.306,76.966c6.884-24.414,25.16-78.192,25.16-78.192L357.43,260.892z"></path><path style="opacity:0.8;fill:#FFFFFF;" d="M356.738,259.66c0,0-5.234-2.411-9.49-3.507s-10.457-1.185-10.457-1.185s7.291-5.622,7.963-6.159c0.67-0.537,2.518-1.573,5.017-0.868c2.499,0.704,2.442,4.217,3.653,5.076c1.21,0.86,1.291,0.572,1.291,0.572L356.738,259.66z"></path><path style="fill:#FFFFFF;" d="M345.885,254.731c0,0,3.242,1.744,3.873,1.229c0.629-0.515,0.4-5.836-0.049-5.962C349.262,249.873,345.9,253.697,345.885,254.731z"></path><path style="fill:#FFFFFF;" d="M343.525,242.86c0,0-0.093,0.7,0.572,2.756c-0.818,1.43-4.518,6.819-7.609,8.955c3.221-0.751,7.824-6.404,8.561-7.547C345.785,245.884,343.525,242.86,343.525,242.86z"></path><path style="fill:#FFFFFF;" d="M357.847,246.898c0,0-1.546,1.433-2.231,1.654c-0.406,1.441,0.657,7.239,1.412,11.188c-2.66-3.448-2.922-11.719-2.65-12.68C354.966,246.813,357.847,246.898,357.847,246.898z"></path><path style="opacity:0.8;fill:#FFFFFF;" d="M360.681,217.712c0,0-3.354-2.086-4.465-2.192c-1.794,0.842-4.171,0.069-5.091-0.709c-1.455,0.005-2.82,1.903-2.82,1.903l-2.438-2.763c0,0,3.33,6.957,1.955,22.133c-0.13,1.935-1.014,3.968-4.297,6.777c0.73,0.725,3.518,1.51,3.518,1.51s2.168-3.642,3.276-8.31c1.108-4.667,0.534-12.196,0.669-12.677c0.136-0.48,2.08,2.558,3.878,2.442C356.662,225.709,360.36,220.32,360.681,217.712z"></path><path style="opacity:0.8;fill:#FFFFFF;" d="M367.044,213.177c-0.056-0.535-1.823-3.834-3.007-4.791c-1.307-0.888-7.705-2.483-8.844-2.494c-1.576,0.075-6.354,2.669-7.693,4.471c2.697-1.834,4.466-1.854,4.466-1.854s1.627-1.72,4.522-1.318c1.98,0.274,2.63,2.816,2.63,2.816S364.102,211.103,367.044,213.177z"></path><path style="fill:#FFFFFF;" d="M362.721,208.638c0,0,0.516,2.221,0.407,2.605c-1.249-0.352-3.405-1.168-3.405-1.168s-0.064-2.716-0.533-3.263C361.111,207.354,362.721,208.638,362.721,208.638z"></path><path style="fill:#FFFFFF;" d="M371.579,219.54c0,0,0.058-6.832-4.771-10.683c-1.236-0.764-11.203-2.952-11.203-2.952s10.094,3.692,11.086,4.474C370.172,213.125,371.579,219.54,371.579,219.54z"></path><g style="opacity:0.8;"><path style="fill:none;stroke:#FFFFFF;stroke-linecap:round;stroke-linejoin:round;" d="M371.239,220.378c0,0-2.319-4.285-13.509-6.922c-0.914,1.403-1.747,2.517-4.449,2.169c-2.9-0.373-2.865-3.09-2.865-3.09s-2.606-0.32-5.086,0.745"></path><circle style="fill:none;stroke:#FFFFFF;stroke-linecap:round;stroke-linejoin:round;" cx="354.882" cy="212.705" r="2.646"></circle></g><path style="fill:none;stroke:#000000;stroke-linecap:round;stroke-linejoin:round;" d="M357.291,260.646c0,0-2.354-2.323-8.986-4.193c-8.266-2.331-12.171-1.357-12.171-1.357"></path><g><path style="fill:#FDD5B1;stroke:#000000;stroke-linecap:round;stroke-linejoin:round;" d="M299.2,439.429c0,0-1.524-0.845-3.255-1.333c-1.73-0.487-3.39-0.124-3.39-0.124l2.763-10.531c0,0,6.158-0.131,7.26-2.933c-0.155-1.289-0.666-2.056-0.666-2.056l2.093-1.9l0.296,2.263L299.2,439.429z"></path><path style="fill:#FFFFFF;" d="M302.492,426.282l-3.517,11.735c0,0,1.532-9.113,0.87-10.2C301.417,427.154,302.492,426.282,302.492,426.282z"></path></g></g><g><g><path style="fill:#FEFEFF;stroke:#000000;stroke-linecap:round;stroke-linejoin:round;" d="M375.281,195.371c0,0-10.65-1.48-19.416,2.134c-0.846-0.93-0.599-3.766-0.599-3.766s8.76-5.554,22.472-1.687C377.178,193.554,375.281,195.371,375.281,195.371z"></path><path style="fill:#FEFEFF;stroke:#000000;stroke-linecap:round;stroke-linejoin:round;" d="M355.417,189.77c0,0,9.854,4.301,15.441,11.963c1.206-0.352,2.478-2.898,2.478-2.898s-4.568-9.312-18.28-13.178C354.749,187.23,355.417,189.77,355.417,189.77z"></path></g><g><path style="fill:#FEFEFF;stroke:#000000;stroke-linecap:round;stroke-linejoin:round;" d="M369.561,204.1c0,0-7.412-1.031-13.514,1.485c-0.588-0.647-0.416-2.621-0.416-2.621s6.097-3.865,15.639-1.174C370.879,202.835,369.561,204.1,369.561,204.1z"></path><path style="fill:#FEFEFF;stroke:#000000;stroke-linecap:round;stroke-linejoin:round;" d="M355.736,200.202c0,0,6.857,2.993,10.746,8.325c0.839-0.245,1.723-2.018,1.723-2.018s-3.179-6.48-12.721-9.17C355.271,198.434,355.736,200.202,355.736,200.202z"></path></g></g></g><g><g><circle style="fill:none;stroke:#000000;stroke-linecap:round;stroke-linejoin:round;" cx="335.75" cy="214.264" r="13.252"></circle><circle style="fill:none;stroke:#FFFFFF;stroke-width:2;stroke-linecap:round;stroke-linejoin:round;" cx="335.75" cy="214.263" r="11.259"></circle><g><path style="fill:#FFC9FF;" d="M345.37,216.515c0.688,1.965-3.902,10.261-12.359,8.036c-7.853-2.069-11.208-12.395-3.552-17.543c2.125-1.429,7.624,4.594,8.733,5.914C341.098,213.317,344.684,214.549,345.37,216.515z"></path><path style="fill:#FFFFFF;stroke:#000000;" d="M328.693,210.841c0,0,5.464-0.801,6.084-1.238c-1.846-0.644-7.271-0.706-7.271-0.706S327.289,210.164,328.693,210.841z"></path><path style="fill:#FFFFFF;stroke:#000000;" d="M338.826,213.234c0,0-4.892,2.528-6.244,5.341c-1.354,2.812-0.664,5.757-0.664,5.757s-3.41-1.023-4.02-2.54c-0.373-2.892,5.597-9.801,8.713-9.591C337.806,212.841,338.826,213.234,338.826,213.234z"></path><path style="fill:#FFFFFF;stroke:#000000;" d="M344.52,215.518c0,0-3.512,5.265-5.823,6.064c1.745-3.832,4.616-7.251,4.616-7.251S344.193,214.265,344.52,215.518z"></path></g><path style="fill:#3C3C3C;" d="M330.524,203.982c0,0-3.779,5.546-0.339,7.659c-1.604,0.484-3.629-2.907-3.355-5.142C328.707,204.43,330.524,203.982,330.524,203.982z"></path><ellipse transform="matrix(-0.9086 -0.4178 0.4178 -0.9086 560.9661 534.6393)" style="fill:#FFFFFF;" cx="338.996" cy="205.926" rx="3.857" ry="2.946"></ellipse><path style="fill:#FFFFFF;" d="M345.217,220.963c0,0,1.031-5.367-2.222-6.688c-3.252-1.319-10.782,0.756-14.556-1.957c-3.773-2.714-1.551-6.788-1.551-6.788l0.953-0.489c0,0-1.733,5.028,1.256,5.977c2.989,0.949,10.566,0.513,14.346,1.922c3.777,1.409,4.075,5.373,2.955,7.465C345.886,220.86,345.217,220.963,345.217,220.963z"></path></g><g><circle style="fill:none;stroke:#000000;stroke-linecap:round;stroke-linejoin:round;" cx="381.472" cy="234.718" r="12.408"></circle><circle style="fill:none;stroke:#FFFFFF;stroke-width:2;stroke-linecap:round;stroke-linejoin:round;" cx="381.471" cy="234.719" r="10.543"></circle><g><path style="fill:#C1FEFF;" d="M390.479,236.825c0.646,1.84-3.654,9.609-11.572,7.524c-7.353-1.936-10.494-11.604-3.326-16.424c1.99-1.339,7.139,4.301,8.177,5.535C386.479,233.833,389.834,234.986,390.479,236.825z"></path><path style="fill:#FFFFFF;stroke:#000000;" d="M374.864,231.514c0,0,5.115-0.75,5.694-1.159c-1.728-0.603-6.807-0.661-6.807-0.661S373.547,230.879,374.864,231.514z"></path><path style="fill:#FFFFFF;stroke:#000000;" d="M384.352,233.754c0,0-4.58,2.368-5.848,5.001c-1.266,2.633-0.619,5.391-0.619,5.391s-3.195-0.958-3.767-2.378c-0.348-2.707,5.242-9.175,8.16-8.979C383.396,233.387,384.352,233.754,384.352,233.754z"></path><path style="fill:#FFFFFF;stroke:#000000;" d="M389.683,235.892c0,0-3.288,4.932-5.452,5.678c1.633-3.588,4.32-6.789,4.32-6.789S389.377,234.719,389.683,235.892z"></path></g><path style="fill:#3C3C3C;" d="M376.578,225.091c0,0-3.537,5.193-0.316,7.172c-1.504,0.453-3.4-2.723-3.143-4.816C374.877,225.51,376.578,225.091,376.578,225.091z"></path><ellipse transform="matrix(-0.9086 -0.4177 0.4177 -0.9086 639.0821 593.6947)" style="fill:#FFFFFF;" cx="384.51" cy="226.912" rx="3.611" ry="2.758"></ellipse><path style="fill:#FFFFFF;" d="M390.334,240.991c0,0,0.965-5.025-2.08-6.26c-3.045-1.236-10.096,0.708-13.627-1.833c-3.534-2.541-1.453-6.356-1.453-6.356l0.893-0.457c0,0-1.623,4.708,1.177,5.596c2.797,0.888,9.893,0.479,13.431,1.798c3.537,1.321,3.816,5.032,2.768,6.99C390.962,240.896,390.334,240.991,390.334,240.991z"></path></g><g><circle style="fill:none;stroke:#000000;stroke-linecap:round;stroke-linejoin:round;" cx="376.057" cy="204.856" r="13.388"></circle><circle style="fill:none;stroke:#FFFFFF;stroke-width:2;stroke-linecap:round;stroke-linejoin:round;" cx="376.057" cy="204.856" r="11.376"></circle><g><path style="fill:#FEFFB3;" d="M385.776,207.13c0.696,1.985-3.942,10.368-12.486,8.119c-7.935-2.089-11.323-12.521-3.589-17.723c2.146-1.443,7.702,4.641,8.822,5.974C381.461,203.9,385.082,205.145,385.776,207.13z"></path><path style="fill:#FFFFFF;stroke:#000000;" d="M368.928,201.398c0,0,5.52-0.809,6.146-1.25c-1.864-0.65-7.346-0.713-7.346-0.713S367.508,200.714,368.928,201.398z"></path><path style="fill:#FFFFFF;stroke:#000000;" d="M379.164,203.816c0,0-4.941,2.555-6.308,5.396c-1.367,2.84-0.671,5.816-0.671,5.816s-3.445-1.033-4.062-2.565c-0.376-2.921,5.655-9.901,8.804-9.689C378.135,203.419,379.164,203.816,379.164,203.816z"></path><path style="fill:#FFFFFF;stroke:#000000;" d="M384.917,206.123c0,0-3.549,5.319-5.884,6.127c1.764-3.871,4.664-7.326,4.664-7.326S384.587,204.857,384.917,206.123z"></path></g><path style="fill:#3C3C3C;" d="M370.777,194.469c0,0-3.817,5.603-0.342,7.738c-1.621,0.49-3.668-2.937-3.391-5.195C368.941,194.921,370.777,194.469,370.777,194.469z"></path><ellipse transform="matrix(-0.9086 -0.4178 0.4178 -0.9086 641.9238 533.3726)" style="fill:#FFFFFF;" cx="379.335" cy="196.433" rx="3.897" ry="2.977"></ellipse><path style="fill:#FFFFFF;" d="M385.621,211.625c0,0,1.041-5.422-2.244-6.755c-3.286-1.333-10.895,0.764-14.705-1.978c-3.813-2.742-1.568-6.858-1.568-6.858l0.965-0.494c0,0-1.752,5.08,1.268,6.039c3.02,0.958,10.674,0.517,14.492,1.941c3.817,1.424,4.117,5.43,2.986,7.542C386.297,211.521,385.621,211.625,385.621,211.625z"></path></g></g></g></g></svg>