<svg xmlns="http://www.w3.org/2000/svg" width="500" height="500" version="1.1"><g id="x018"><g><path style="fill:#505050;stroke:#000000;stroke-linecap:round;stroke-linejoin:round;" d="M288.133,434.422l-2.573-34.076l20.896-1.606l20.896,1.606l-2.556,33.878c0.093,0.119,0.146,0.239,0.146,0.358c0,1.599-8.239,4.342-18.405,4.342c-10.165,0-18.405-2.743-18.405-4.342c0-0.054,0.013-0.106,0.03-0.16H288.133z"></path><g><g><path style="fill:#505050;stroke:#000000;stroke-linecap:round;stroke-linejoin:round;" d="M300.883,371.35c0.028-0.02,0.015-0.008,0.041-0.027c-0.047,0.034-4.766,3.513-3.833,16.095l0,0c0.087,1.168-0.788,2.184-1.956,2.271s-2.184-0.791-2.271-1.958l0,0c-1.121-15.13,5.039-19.507,5.744-19.956l0,0c0.987-0.627,2.297-0.337,2.924,0.65C302.162,369.411,301.871,370.72,300.883,371.35L300.883,371.35z"></path></g><path style="fill:#505050;stroke:#000000;stroke-linecap:round;stroke-linejoin:round;" d="M300.166,372.083c0,0,1.625-2.208,4.584-2.375c2.125-2.832,1.335-4.932,1.335-4.932s-5.085-2.109-9.794,5.515"></path><path style="fill:#6E6E6E;stroke:#000000;stroke-linecap:round;stroke-linejoin:round;" d="M286.324,429.955l-2.825-37.436l22.957-1.768l22.957,1.768l-2.809,37.22c0.101,0.129,0.16,0.261,0.16,0.394c0,1.755-9.053,4.769-20.221,4.769c-11.166,0-20.22-3.014-20.22-4.769c0-0.059,0.013-0.119,0.034-0.178H286.324z"></path><ellipse style="fill:#6E6E6E;stroke:#000000;stroke-linecap:round;stroke-linejoin:round;" cx="306.986" cy="392.52" rx="22.427" ry="3.178"></ellipse></g><path style="fill:#6E6E6E;stroke:#000000;stroke-linecap:round;stroke-linejoin:round;" d="M331.709,391.813l-0.53,6.887c0,0-2.648,3.178-21.191,3.178c-18.542,0-26.841-3.708-26.841-3.708l-0.53-7.063c0,0,5.297-3.886,23.663-3.886C324.645,387.22,331.709,391.813,331.709,391.813z"></path><path style="fill:#505050;stroke:#000000;stroke-linecap:round;stroke-linejoin:round;" d="M287.341,391.459c0.121,1.562,9.273,2.824,20.439,2.824c11.167,0,20.121-1.264,20-2.824c-0.122-1.561-9.274-2.825-20.441-2.825C296.173,388.634,287.218,389.898,287.341,391.459z"></path><rect x="307.869" y="394.283" style="fill:#6E6E6E;stroke:#000000;stroke-linecap:round;stroke-linejoin:round;" width="7.947" height="10.949"></rect><g><path style="fill:#6E6E6E;stroke:#000000;stroke-linecap:round;stroke-linejoin:round;" d="M302.757,368.225c0.087,0.049,8.603,5.83,6.448,26.877c-0.134,1.309,0.818,2.48,2.13,2.613c1.309,0.134,2.479-0.818,2.614-2.128c1.853-18.103-3.862-26.609-6.405-29.426c-0.538-0.596-1.05-1.082-1.538-1.468"></path></g><path style="opacity:0.5;fill:#FFFFFF;" d="M322.618,421.435c-0.279,0.144-0.577,0.223-0.886,0.223c-1.61,0-2.914-2.095-2.914-4.681c0-2.584,1.304-4.679,2.914-4.679c0.452,0,0.879,0.17,1.262,0.468c0.008-4.907-0.115-10.004-0.115-10.004l4.238-0.354l-2.118,27.728c0,0-4.239,2.471-8.301,2.471C319.737,430.243,321.965,424.979,322.618,421.435z"></path></g></g></svg>