<svg xmlns="http://www.w3.org/2000/svg" width="500" height="500" version="1.1"><g id="x9180"><g><path style="fill:#3E3D3B;stroke:#000000;stroke-linecap:round;stroke-linejoin:round;" d="M373.869,405.355c-0.141-0.422-28.723-48.855-28.723-48.855s-14.079-0.985-14.783-0.845c-1.143,0.825-12.902,10.492-25.473,20.86c-0.111,0.093-0.04,0.431-0.152,0.522c-0.744,0.615-1.434,1.249-2.182,1.866c-0.148,0.123-0.539-0.016-0.688,0.107c-14.387,11.871-28.809,23.81-28.809,23.81l15.486,26.095l1.033,0.188l1.783,3.238l-0.375,0.703l14.173,23.279l10.981,0.141l1.831-1.408L373.869,405.355z"></path><g style="opacity:0.5;"><path style="fill:#FFFFFF;" d="M286.365,404.546l29.797,50.392l0,0c0.156,0.27-0.582,0.542-0.582,0.542l-29.773-50.662c-0.138-0.24-0.082-0.545,0.133-0.72l57.162-46.649l0,0c0.241-0.196,0.596-0.161,0.792,0.08C344.091,357.77,286.504,404.786,286.365,404.546z"></path><path style="fill:#FFFFFF;" d="M311.145,455.831l-29.004-50.462c-0.131-0.238-0.073-0.537,0.138-0.708l58.102-47.401l0,0c0.241-0.195,0.596-0.16,0.792,0.08c0.197,0.241-58.196,48.042-58.326,47.805l29.039,50.651L311.145,455.831z"></path><path style="fill:#FFFFFF;" d="M289.11,404.418l-2.628-1.127l-12.813-0.938c0,0-0.517,1.221,0.703,3.566C276.252,405.919,289.11,404.418,289.11,404.418z"></path></g><path style="fill:#3E3D3B;stroke:#000000;stroke-linecap:round;stroke-linejoin:round;" d="M419.77,405.215c0,0-13.377-16.051-14.361-16.051c-0.986,0-2.254,0.142-2.254,0.142l-29.285,16.05l-56.036,50.124l12.953,19.57l11.687-3.661l0.281-0.845l2.675-0.845c0,0,0.845,0.845,1.267,0.845c0.423,0,13.518-5.068,13.518-5.068l11.545-10.56l40.408-41.676L419.77,405.215z"></path><polygon style="opacity:0.5;fill:#FFFFFF;" points="405.408,389.728 404.281,389.587 399.635,395.359 "></polygon><g style="opacity:0.5;"><path style="fill:#FFFFFF;" d="M377.812,417.183c-0.704,0.704-30.095,28.934-30.13,29.356c-0.035,0.422,1.162,3.202,1.162,3.202s-1.831-2.464-2.184-2.534c-0.352-0.07-14.114,5.526-14.114,5.526s-0.498-0.163,0.669-0.669c3.75-1.624,12.986-5.294,13.657-6.019C347.484,445.385,377.812,417.183,377.812,417.183z"></path><path style="fill:#FFFFFF;" d="M330.716,453.086c0,0-9.892,3.73-10.384,3.836c-0.492,0.106-1.232-0.492-1.232-0.492l12.109-4.013L330.716,453.086z"></path></g><g><path style="fill:#1B1B1A;stroke:#000000;stroke-linecap:round;stroke-linejoin:round;" d="M400.058,425.138c-0.212-0.07-4.857-1.197-5.351-1.689c-0.492-0.493-4.294-4.224-4.436-4.717c-0.141-0.493,0.142-1.268,0.142-1.268s2.183-2.464,3.238-2.252c1.056,0.211,6.406,5.209,6.97,7.603C400.128,424.856,400.058,425.138,400.058,425.138z"></path><path style="fill:#1B1B1A;stroke:#000000;stroke-linecap:round;stroke-linejoin:round;" d="M391.609,418.38c0,0,2.253-0.071,4.365,1.196c2.111,1.268,6.617,6.336,2.675,11.615c-3.942,5.28-16.051,4.576-19.782,3.591c-3.238-0.915-5.701-0.845-5.701-0.845s-3.803,2.183-1.76,5.421c2.041,3.238,5.912,0.703,5.912,0.703s13.939,4.576,22.81-3.941C409.355,427.259,398.367,416.197,391.609,418.38z"></path><circle style="fill:#C4BFC3;stroke:#000000;stroke-linecap:round;stroke-linejoin:round;" cx="373.717" cy="437.666" r="1.014"></circle></g><g><path style="fill:#1B1B1A;stroke:#000000;stroke-linecap:round;stroke-linejoin:round;" d="M283.549,393.529c0,0.352-2.887,8.94-2.887,9.926s-0.211,11.615-0.352,12.179s-0.563,0.774-0.563,0.774s-7.744-12.53-7.744-13.305s10.489-9.645,10.489-9.645L283.549,393.529z"></path><path style="opacity:0.3;fill:#FFFFFF;" d="M279.959,403.033l-0.281,2.182c0,0-5.421,0.353-5.773,0.212c-0.352-0.142-1.126-2.253-1.126-2.253l1.126-1.197L279.959,403.033z"></path><g><circle style="fill:#C4BFC3;stroke:#000000;stroke-width:0.5;stroke-linecap:round;stroke-linejoin:round;" cx="280.651" cy="397.166" r="0.634"></circle><circle style="fill:#C4BFC3;stroke:#000000;stroke-width:0.5;stroke-linecap:round;stroke-linejoin:round;" cx="279.853" cy="399.466" r="0.633"></circle><circle style="fill:#C4BFC3;stroke:#000000;stroke-width:0.5;stroke-linecap:round;stroke-linejoin:round;" cx="279.29" cy="401.858" r="0.634"></circle></g><g><circle style="fill:#C4BFC3;stroke:#000000;stroke-width:0.5;stroke-linecap:round;stroke-linejoin:round;" cx="278.633" cy="406.692" r="0.633"></circle><circle style="fill:#C4BFC3;stroke:#000000;stroke-width:0.5;stroke-linecap:round;stroke-linejoin:round;" cx="278.585" cy="409.086" r="0.633"></circle><circle style="fill:#C4BFC3;stroke:#000000;stroke-width:0.5;stroke-linecap:round;stroke-linejoin:round;" cx="278.539" cy="411.573" r="0.633"></circle></g></g><path style="fill:#1B1B1A;stroke:#000000;stroke-linecap:round;stroke-linejoin:round;" d="M295.658,389.974c-0.106,0.177-4.014,3.273-4.049,3.38c-0.035,0.105,0.352,0.915,0.352,0.915s-6.793-0.81-6.969-1.092c-0.176-0.281-0.352-1.231-0.352-1.231s3.098-3.168,3.484-3.203S295.658,389.974,295.658,389.974z"></path><path style="fill:#C4BFC3;stroke:#000000;stroke-linecap:round;stroke-linejoin:round;" d="M297.065,390.33l-0.053-0.51c0,0-1.737-0.116-1.795-0.105c-0.106,0.018-3.661,3.643-3.696,3.766s0.193,0.799,0.193,0.799l1.232,0.134L297.065,390.33z"></path><g><path style="fill:#1B1B1A;stroke:#000000;stroke-linecap:round;stroke-linejoin:round;" d="M314.418,372.233c0,0,3.626,1.232,3.943,1.303c0.492-0.105,2.393-2.077,2.463-2.745c0.07-0.669-1.196-1.937-3.168-1.338C316.037,370.614,314.418,372.233,314.418,372.233z"></path><circle style="fill:#C4BFC3;stroke:#000000;stroke-width:0.5;stroke-linecap:round;stroke-linejoin:round;" cx="318.29" cy="371.307" r="0.634"></circle></g><path style="fill:#1B1B1A;stroke:#000000;stroke-linecap:round;stroke-linejoin:round;" d="M314.313,372.269c0,0-4.646-8.87-12.248-6.194c-8.539,3.004-3.098,16.473-1.408,19.147c-1.127,0.563-4.787-0.141-4.787-0.141s-5.196-14.853,2.533-19.711c9.856-6.195,18.164,5.209,18.164,5.209L314.313,372.269z"></path><g><path style="fill:#1B1B1A;stroke:#000000;stroke-linecap:round;stroke-linejoin:round;" d="M300.48,385.151c0,0,0.879,1.021,0.879,1.197s-2.428,2.675-2.78,2.886c-0.353,0.212-4.259,0.634-4.787-1.161c0.845-1.196,2.569-3.098,2.569-3.098L300.48,385.151z"></path><circle style="fill:#C4BFC3;stroke:#000000;stroke-width:0.5;stroke-linecap:round;stroke-linejoin:round;" cx="297.593" cy="387.123" r="0.633"></circle></g><g><path style="fill:#1B1B1A;stroke:#000000;stroke-linecap:round;stroke-linejoin:round;" d="M327.125,365.229c0,0-0.422-0.563-0.527-0.599s-7.639-0.353-7.99-0.388s-3.52,2.781-3.625,3.063c-0.106,0.282,0.211,0.634,0.211,0.634l8.307,0.95L327.125,365.229z"></path><path style="fill:#C4BFC3;stroke:#000000;stroke-linecap:round;stroke-linejoin:round;" d="M327.971,365.07l-0.053-0.51c0,0-1.737-0.115-1.796-0.105c-0.105,0.018-3.661,3.643-3.696,3.766c-0.035,0.124,0.194,0.799,0.194,0.799l1.231,0.135L327.971,365.07z"></path></g><path style="fill:#1B1B1A;stroke:#000000;stroke-linecap:round;stroke-linejoin:round;" d="M341.346,355.901c0,0-0.774-1.091-0.985-1.196c-0.212-0.106-9.609-0.07-10.278,0.141s-7.744,6.089-7.885,6.406c-0.141,0.316,0.634,1.161,0.634,1.161L341.346,355.901z"></path><path style="opacity:0.3;fill:#FFFFFF;" d="M339.867,355.268h-1.162c0,0-13.305,4.26-13.305,4.646C325.4,360.302,339.867,355.268,339.867,355.268z"></path><g><circle style="fill:#C4BFC3;stroke:#000000;stroke-width:0.5;stroke-linecap:round;stroke-linejoin:round;" cx="329.976" cy="357.556" r="0.633"></circle><circle style="fill:#C4BFC3;stroke:#000000;stroke-width:0.5;stroke-linecap:round;stroke-linejoin:round;" cx="332.757" cy="356.922" r="0.634"></circle><circle style="fill:#C4BFC3;stroke:#000000;stroke-width:0.5;stroke-linecap:round;stroke-linejoin:round;" cx="335.608" cy="356.112" r="0.634"></circle></g><g><path style="fill:#1B1B1A;stroke:#000000;stroke-linecap:round;stroke-linejoin:round;" d="M412.764,396.169c0-0.035-0.703,0.81-0.809,1.161c-0.105,0.353-1.092,17.389-1.092,17.776c0,0.387,1.092,1.407,1.092,1.407s9.187-9.574,9.292-10.172c0.105-0.599-0.105-1.479-0.246-1.725C420.859,404.37,412.764,396.169,412.764,396.169z"></path><g><circle style="fill:#C4BFC3;stroke:#000000;stroke-linecap:round;stroke-linejoin:round;" cx="413.328" cy="409.884" r="1.013"></circle><circle style="fill:#C4BFC3;stroke:#000000;stroke-linecap:round;stroke-linejoin:round;" cx="413.656" cy="405.331" r="1.014"></circle><circle style="fill:#C4BFC3;stroke:#000000;stroke-linecap:round;stroke-linejoin:round;" cx="413.844" cy="400.919" r="1.014"></circle></g></g><path style="fill:#1B1B1A;stroke:#000000;stroke-linecap:round;stroke-linejoin:round;" d="M369.822,454.423c0.105,0.212,1.125,2.288,1.02,2.569c-0.105,0.282-5.279,7.04-6.512,8.237c-1.231,1.196-3.906,2.217-4.857,2.71c-0.949,0.493-6.547,1.936-6.898,1.619s-0.986-1.865-0.986-1.865s-0.879-13.271-0.492-13.904C351.482,453.156,369.822,454.423,369.822,454.423z"></path><path style="opacity:0.3;fill:#FFFFFF;" d="M367.182,460.055c0,0-2.887,4.365-4.013,4.857c-1.126,0.493-2.815,0.563-3.098,0.282c-0.281-0.282-5.139-7.885-5.139-7.885s0.845,1.056,1.76,1.196C357.607,458.647,366.619,459.069,367.182,460.055z"></path><circle style="fill:#C4BFC3;stroke:#000000;stroke-linecap:round;stroke-linejoin:round;" cx="366.349" cy="456.486" r="0.896"></circle><circle style="fill:#C4BFC3;stroke:#000000;stroke-linecap:round;stroke-linejoin:round;" cx="361.092" cy="456.064" r="0.896"></circle><circle style="fill:#C4BFC3;stroke:#000000;stroke-linecap:round;stroke-linejoin:round;" cx="356.258" cy="455.971" r="0.896"></circle><circle style="fill:#C4BFC3;stroke:#000000;stroke-linecap:round;stroke-linejoin:round;" cx="353.162" cy="459.021" r="0.896"></circle><circle style="fill:#C4BFC3;stroke:#000000;stroke-linecap:round;stroke-linejoin:round;" cx="353.066" cy="463.386" r="0.896"></circle><circle style="fill:#C4BFC3;stroke:#000000;stroke-linecap:round;stroke-linejoin:round;" cx="353.254" cy="467.469" r="0.896"></circle><path style="fill:#1B1B1A;stroke:#000000;stroke-linecap:round;stroke-linejoin:round;" d="M339.234,472.867c0,0,0.035,0.81-0.07,0.985c-0.106,0.177-7.357,2.288-8.202,2.112s-5.808-7.779-5.702-8.061s0.492-0.739,0.492-0.739L339.234,472.867z"></path><path style="fill:#1B1B1A;stroke:#000000;stroke-linecap:round;stroke-linejoin:round;" d="M309.385,456.219c0,0.141,0.035,0.668-0.105,0.773c-0.141,0.106-4.822-0.07-5.104-0.281s-6.02-9.222-5.809-9.469c0.212-0.246,0.916-0.281,0.916-0.281L309.385,456.219z"></path><path style="fill:#333032;stroke:#000000;stroke-linecap:round;stroke-linejoin:round;" d="M400.245,392.402c-0.094,0.375-53.972,51.813-53.972,51.813l-11.501,4.929l-0.572,0.544l-2.657,1.127l-0.396-0.117l-11.813,5.063l54.628-49.092L400.245,392.402z"></path><path style="fill:none;stroke:#000000;stroke-linecap:round;stroke-linejoin:round;" d="M407.848,392.309c0,0.469-58.852,58.195-58.852,58.195l-27.972,9.763"></path><path style="fill:#C4BFC3;stroke:#000000;stroke-linecap:round;stroke-linejoin:round;" d="M394.215,429.15c-0.211-0.141-14.502-14.925-14.502-14.925l-2.042,0.234l-2.815,2.934l1.971-0.352l13.517,14.502L394.215,429.15z"></path><path style="fill:#605F5D;stroke:#000000;stroke-linecap:round;stroke-linejoin:round;" d="M371.992,405.919l-27.033-46.087c0,0-55.004,44.585-55.285,44.772c-0.281,0.188,28.628,48.716,28.628,48.716L371.992,405.919z"></path><path style="fill:#333032;" d="M290.565,405.31l2.323,3.919l0.219-0.922c5.198-1.624,11.008,0.748,11.699,1.046l-2.215,14.323c-0.332,0.072-0.721,0.241-1.021,0.337c-0.083,0.027,2.605,4.2,2.605,4.2l0.392-2.573c3.476-0.317,8.241,0.505,11.339,1.751l-2.885,16.004l1.784,3.075l0.907-5.307c8.57-0.315,13.449,1.706,13.524,1.739l1.924-1.666c-0.205-0.09-6.188-2.597-15.038-2.344l2.082-11.552c7.771-0.555,13.66,1.922,13.73,1.952l0.894-2.067c-0.271-0.117-6.174-2.608-14.214-2.161l2.592-14.379c8.047-0.72,14.223,1.868,14.294,1.899l0.895-2.068c-0.276-0.118-6.446-2.733-14.772-2.133l2.49-13.815c7.319-0.723,13.134,1.311,14.336,1.774l-5.682,40.582l2.231,0.313l7.706-55.043c0.491,0.267,0.984,0.544,1.481,0.846l1.171-1.925c-9.777-5.943-18.525-5.261-18.893-5.229l-0.561,1.263l-1.014,0.41l-2.604,14.445c-3.708-1.233-8.741-1.896-12.315-1.305l0.059-0.379l-2.227-0.343l-2.643,17.086c-1.699-0.665-6.453-2.231-11.286-1.266l0.745-3.19l-1.357-0.318l-1.864,1.582L290.565,405.31z M324.529,392.264l2.555-14.174c1.184-0.039,6.822-0.006,13.495,3.045l-1.81,12.921C336.779,393.34,331.358,391.714,324.529,392.264z M319.359,408.238c-3.493-1.208-8.271-1.91-11.87-1.496l2.115-13.678c3.202-0.82,8.603-0.108,12.278,1.179L319.359,408.238z M304.918,423.367l2.213-14.311c3.332-0.577,8.404,0.175,11.823,1.428l-2.642,14.65C313.088,423.927,308.563,423.156,304.918,423.367z"></path><g><ellipse style="fill:#605F5D;" cx="323.418" cy="393.06" rx="1.736" ry="1.596"></ellipse><ellipse style="fill:#605F5D;" cx="308.775" cy="391.933" rx="1.736" ry="1.597"></ellipse><ellipse style="fill:#605F5D;" cx="306.334" cy="407.983" rx="1.736" ry="1.597"></ellipse><ellipse style="fill:#605F5D;" cx="320.32" cy="409.485" rx="1.737" ry="1.596"></ellipse><ellipse style="fill:#605F5D;" cx="317.41" cy="426.334" rx="1.737" ry="1.597"></ellipse><ellipse style="fill:#605F5D;" cx="314.875" cy="439.663" rx="1.736" ry="1.596"></ellipse><ellipse style="fill:#605F5D;" cx="303.611" cy="424.503" rx="1.736" ry="1.596"></ellipse></g><path style="fill:#333032;" d="M314.595,438.912c0,0-1.549-1.079-4.787-0.985c0.328,0.704,1.454,2.394,1.454,2.394s1.033,0.141,2.582,0.423C314.688,439.569,314.595,438.912,314.595,438.912z"></path><polygon style="fill:#333032;" points="362.512,413.616 335.197,370.814 290.706,405.732 290.143,404.794 344.771,360.584 371.335,405.92 "></polygon><polygon style="fill:#C4BFC3;stroke:#000000;stroke-linecap:round;stroke-linejoin:round;" points="318.64,380.887 317.926,379.732 304.633,377.073 302.416,378.887 314.97,381.563 316.096,383.111 "></polygon><path style="fill:#C4BFC3;stroke:#000000;stroke-linecap:round;stroke-linejoin:round;" d="M304.703,430.065c-0.035,0.281-1.302,1.197-1.372,1.303c-0.071,0.105-12.179,1.161-12.179,1.161l-1.76-3.238l11.721-1.514l1.549-0.95L304.703,430.065z"></path><path style="fill:#1B1B1A;stroke:#000000;stroke-linecap:round;stroke-linejoin:round;" d="M378.422,451.162c0,0-4.225,4.505-4.365,4.599s-2.439-0.281-2.439-0.281l0.234-1.033c0,0-11.357-13.75-12.484-17.786c3.238-2.066,9.387-4.928,9.387-4.928s-0.609,4.318,0.188,6.054C369.739,439.521,378.281,450.693,378.422,451.162z"></path><circle style="fill:#C4BFC3;stroke:#000000;stroke-linecap:round;stroke-linejoin:round;" cx="368.414" cy="443.017" r="0.896"></circle><path style="fill:#1B1B1A;stroke:#000000;stroke-linecap:round;stroke-linejoin:round;" d="M414.888,448.815c0,0,0.403,2.662-1.032,3.379c-2.253,1.127-3.755-1.596-3.755-1.596s-5.35-13.608-19.335-18.772c-13.986-5.163-29.568,3.755-30.131,4.317c-0.563,0.563-1.314,0.375-1.314,0.375s4.412-6.382,8.354-8.259c3.943-1.878,13.986-5.632,28.91,0.845C411.509,435.581,414.888,448.815,414.888,448.815z"></path><path style="fill:#1B1B1A;stroke:#000000;stroke-linecap:round;stroke-linejoin:round;" d="M410.054,418.543c0,0-0.047,1.221-0.235,1.549c-0.188,0.329-3.895,3.848-4.457,4.083c-0.563,0.235-1.455-0.703-1.455-0.703s-8.542-12.813-8.683-20.65c2.064-1.596,6.382-4.271,6.382-4.271S403.061,409.392,410.054,418.543z"></path><path style="fill:none;stroke:#FFFFFF;stroke-width:0.5;stroke-linecap:round;stroke-linejoin:round;stroke-dasharray:1 1.5;" d="M408.294,419.083c0,0-5.913-7.18-7.04-15.347"></path><path style="fill:none;stroke:#FFFFFF;stroke-width:0.5;stroke-linecap:round;stroke-linejoin:round;stroke-dasharray:1 1.5;" d="M405.126,422.11c0,0-6.899-9.785-7.813-16.332"></path><circle style="fill:#C4BFC3;stroke:#000000;stroke-linecap:round;stroke-linejoin:round;" cx="401.547" cy="411.01" r="1.014"></circle><path style="fill:#1B1B1A;stroke:#000000;stroke-linecap:round;stroke-linejoin:round;" d="M400.573,394.374c0.048,0.188-0.188,0.75-0.328,0.938c-0.142,0.188-3.896,3.427-4.6,3.614c-0.704,0.187-0.938-0.423-0.938-0.423s-1.514-17.963,5.279-26.975c2.207-2.111,5.515-2.686,7.861-2.592c-2.628,1.407-6.814,4.876-7.603,12.671C399.307,390.901,400.573,394.374,400.573,394.374z"></path><path style="fill:none;stroke:#FFFFFF;stroke-width:0.5;stroke-linecap:round;stroke-linejoin:round;stroke-dasharray:1 1.5;" d="M401.958,373.113c0,0.282-4.575,11.193-3.168,22.739"></path><path style="fill:none;stroke:#FFFFFF;stroke-width:0.5;stroke-linecap:round;stroke-linejoin:round;stroke-dasharray:1 1.5;" d="M397.383,378.534c0.07,0.211-3.027,10.138-1.197,19.782"></path><circle style="fill:#C4BFC3;stroke:#000000;stroke-linecap:round;stroke-linejoin:round;" cx="397.652" cy="393.879" r="1.014"></circle><path style="fill:#3E3D3B;stroke:#000000;stroke-linecap:round;stroke-linejoin:round;" d="M422.901,370.791c0.305,0.484-0.95,2.287-2.429,1.83c-1.725-0.985-10.807-5.033-20.38-0.95c0.88-2.218,4.963-4.506,6.582-5.21C408.224,365.651,418.15,363.223,422.901,370.791z"></path><path style="fill:#C4BFC3;stroke:#000000;stroke-linecap:round;stroke-linejoin:round;" d="M421.505,368.045c0,0-0.28,0.61-0.328,0.751c-0.048,0.142,1.173,1.644,1.173,1.972s-0.798,1.031-1.126,1.079c-0.329,0.047-1.737-0.845-2.065-0.704s-0.845,1.126-0.703,1.408c0.141,0.281,0.844,1.174,0.844,1.174s2.348,1.08,3.004,0.703c0.657-0.376,2.77-2.675,2.206-3.941C423.945,369.219,421.505,368.045,421.505,368.045z"></path><circle style="fill:#C4BFC3;stroke:#000000;stroke-linecap:round;stroke-linejoin:round;" cx="419.662" cy="369.239" r="1.014"></circle><path style="fill:#C4BFC3;stroke:#000000;stroke-linecap:round;stroke-linejoin:round;" d="M334.361,449.668c0,0-0.807,2.246-0.807,2.574c0,0.327,12.108,17.881,12.108,17.881l-2.815,0.797l-12.484-17.599l1.229-2.479L334.361,449.668z"></path><path style="fill:#C4BFC3;stroke:#000000;stroke-linecap:round;stroke-linejoin:round;" d="M400.504,394.304c0,0,0,0.586-0.094,0.774c-0.095,0.188-3.004,2.229-4.061,3.145c-1.056,0.915-2.558,3.049-2.628,3.707c-0.07,0.657,1.338,6.453,1.572,6.735c0.234,0.281,0.962,0.233,0.962,0.233s6.898-5.794,7.181-6.522s0.069-1.595-0.023-2.183c-0.094-0.587-1.173-3.943-1.149-4.106c0.023-0.164,0.117-1.103-0.023-1.384C402.1,394.421,400.855,394.021,400.504,394.304z"></path><path style="fill:#1B1B1A;stroke:#000000;stroke-linecap:round;stroke-linejoin:round;" d="M400.926,397.588c0,0,1.22,3.659,0.821,4.528c-0.938,1.057-4.81,4.492-5.14,4.375c-0.492-1.009-0.986-3.803-0.962-3.919C395.669,402.455,400.926,397.588,400.926,397.588z"></path><path style="fill:#C4BFC3;stroke:#000000;stroke-linecap:round;stroke-linejoin:round;" d="M397.828,398.786c0,0,0.563,2.229,0.563,2.791c0.211,0.61,1.407,0.893,1.431,0.729s0.611-2.3-0.539-3.849C398.392,397.753,397.828,398.786,397.828,398.786z"></path><g><g><path style="fill:#F9F7F8;stroke:#000000;stroke-linecap:round;stroke-linejoin:round;" d="M344.303,428.869c0,0-3.098,5.209-8.729,6.194c-6.336,1.689-13.376-4.928-15.065-12.813c-1.689-7.884,5.351-15.487,10.278-15.628c0.282,4.646,0.423,9.434,0.423,9.434s-6.195,4.787-1.268,9.292c4.928,4.506,10.982,0.563,10.982,0.563L344.303,428.869z"></path><path style="fill:#B8B1B8;" d="M343.316,429.361c0,0-1.549,2.676-3.73,3.027c0.845-2.042,0.774-3.52,0.774-3.52L343.316,429.361z"></path><path style="fill:#B8B1B8;" d="M328.445,418.362c0,0-0.088-0.563-0.299-0.405s-0.423,2.147-0.881,2.13c-0.457-0.018-0.475-0.282-0.387-0.37s0.527-0.229,0.651-0.827c0.123-0.599,0.123-2.64-0.599-2.851c-0.722-0.212-1.355,0.81-1.408,1.214c-0.053,0.405,0.035,2.358,0.317,2.957c-0.265,0.123-0.458-0.141-0.476-0.458c-0.018-0.316-0.053-0.123-0.018-0.316s0.105-0.968-0.229-1.355c-0.334-0.387-0.845-0.792-1.232-0.774c0.388-0.123,1.057,0.405,1.584-0.88c0.528-1.284,0.951-3.045-0.88-3.063c-0.616-0.105-1.654,0.317-1.918,1.338c-0.229-0.229-0.563-0.281-0.563-0.281s1.672-4.418,6.441-6.688c0.07,2.077,0.951,9.381,0.934,9.434S328.445,418.362,328.445,418.362z"></path><g><path style="fill:#B8B1B8;" d="M330.047,426.211c0,0,0.035,0.229,0,0.335c0.316,0.229,1.197,0.88,0.739,2.587c0.353,0.299,0.88,1.391,0.193,1.971c-0.687,0.581-1.39,0.088-1.513-0.299c-0.124-0.387-0.054-0.774,0.053-0.915c-0.106-0.105-0.388,0-0.405,0.105s0.316,1.549-0.282,1.953c-0.598,0.405-1.144,0.37-0.879,0.845c0.334,0.265,1.76,1.549,4.275,1.849c0.177-1.549,1.443-6.741,1.443-6.741S331.473,427.408,330.047,426.211z"></path><path style="fill:#B8B1B8;" d="M328.164,428.834c0,0-0.881-0.616-0.881-1.18s-0.176-0.968-0.281-1.021s-0.158,0.51-0.246,0.687C326.668,427.496,326.932,428.622,328.164,428.834z"></path></g></g><g><path style="fill:#F9F7F8;stroke:#000000;stroke-linecap:round;stroke-linejoin:round;" d="M338.529,396.063c0,0-4.364-1.126-3.66-4.928s5.068-7.321,8.025-5.914c-1.689-1.971-8.307-1.689-11.264,4.225c-2.957,5.913-0.704,8.166,2.534,10.56C336.84,397.33,338.529,396.063,338.529,396.063z"></path><path style="fill:#B8B1B8;" d="M335.338,394.773c0,0-0.469,0.611-0.985,0.235c-0.516-0.376-0.82-1.831-0.728-2.183c-0.352,0.328-0.854,0.275-1.032-0.681c-0.399-2.135,1.009-4.693,1.009-4.693s-2.886,3.449-2.815,6.758s2.347,4.318,2.417,4.342c0.07,0.022,3.332-2.746,3.332-2.746L335.338,394.773z"></path></g><g><path style="fill:#F9F7F8;stroke:#000000;stroke-linecap:round;stroke-linejoin:round;" d="M368.168,403.948c-0.239-3.583-3.803-5.632-5.352-1.972c-2.322-2.182-3.309-3.66-3.309-3.66s1.127-6.547,9.715-3.942c8.589,2.604,5.28,16.191,1.127,18.374c-4.787,0.352-10.489-0.774-10.489-0.774S368.52,409.228,368.168,403.948z"></path><path style="fill:#B8B1B8;" d="M363.756,399.842c0,0-0.728,0.726-1.104,1.173c-0.82-1.197-2.487-3.215-2.487-3.215s0.985-2.464,3.145-3.167c-0.728,1.031-1.666,2.251-1.431,3.565C362.113,399.513,363.756,399.842,363.756,399.842z"></path><path style="fill:#B8B1B8;" d="M373.166,405.585c-0.016-0.07,0,1.953-0.758,2.199c-0.756,0.247-0.932-0.334-0.721-1.196s0.07-1.619,0.387-1.654s1.162-0.053,1.285,1.073c0.299-0.81,0.264-2.974-0.264-3.449c0.211,1.091-0.053,2.165-0.793,1.971c-0.738-0.193-0.826-0.51-0.985-0.492c-0.158,0.018-0.651,0.193-0.511,0.299s0.476,0.105,0.6,0.211c0.123,0.106,0.264,0.916,0.035,1.849c-0.229,0.933-1.057,1.971-1.69,1.443c-0.634-0.528-1.126-2.57-1.126-2.57s-0.774,2.992-3.045,4.242c-0.088,0.299-0.123,0.457-0.035,0.457s5.896,1.162,5.896,1.162S373.746,408.26,373.166,405.585z"></path></g><g><circle style="fill:#F9F7F8;stroke:#000000;stroke-linecap:round;stroke-linejoin:round;" cx="347.048" cy="411.199" r="18.233"></circle><path style="fill:#B8B1B8;" d="M343.457,422.814c9.593,3.255,19.712-4.928,19.712-4.928s-4.083,12.531-19.57,10.7c-9.434-2.394-17.882-11.545-12.39-25.343C329.66,414.085,335.573,420.14,343.457,422.814z"></path><g><g><ellipse transform="matrix(-0.179 0.9838 -0.9838 -0.179 806.7626 133.8344)" style="fill:#3F403D;" cx="347.541" cy="403.526" rx="8.87" ry="10.559"></ellipse><path style="fill:#E1DCDA;" d="M346.281,409.555c4.218,0.767,8.165-1.519,8.818-5.103c0.652-3.586-2.238-7.115-6.455-7.881c-4.217-0.768-8.164,1.518-8.816,5.103C339.176,405.26,342.066,408.788,346.281,409.555z M346.445,408.371c-3.75-0.684-6.327-3.771-5.758-6.899c0.568-3.128,4.07-5.109,7.817-4.429c3.749,0.684,6.327,3.771,5.758,6.898C353.693,407.069,350.193,409.053,346.445,408.371z"></path><ellipse transform="matrix(-0.179 0.9838 -0.9838 -0.179 805.141 131.4666)" style="fill:#E0DCDB;" cx="347.717" cy="401.671" rx="1.17" ry="1.355"></ellipse><ellipse transform="matrix(-0.1787 0.9839 -0.9839 -0.1787 805.0631 131.3348)" style="fill:none;stroke:#E0DCDB;stroke-width:0.5;" cx="347.717" cy="401.671" rx="1.735" ry="2.01"></ellipse><ellipse transform="matrix(-0.1791 0.9838 -0.9838 -0.1791 811.3208 134.1282)" style="fill:none;stroke:#E0DCDB;stroke-width:0.5;" cx="349.703" cy="405.541" rx="1.548" ry="1.666"></ellipse><ellipse transform="matrix(-0.5819 0.8133 -0.8133 -0.5819 879.9351 347.028)" style="fill:none;stroke:#E0DCDB;stroke-width:0.5;" cx="350.765" cy="399.7" rx="1.032" ry="1.666"></ellipse><ellipse transform="matrix(0.035 0.9994 -0.9994 0.035 732.359 43.832)" style="fill:none;stroke:#E0DCDB;stroke-width:0.5;" cx="343.482" cy="401.146" rx="1.395" ry="1.646"></ellipse><path style="fill:none;stroke:#E0DCDB;stroke-width:0.5;" d="M340.668,400.988c0,0,0.766-0.076,0.896-0.017"></path><line style="fill:none;stroke:#E0DCDB;stroke-width:0.5;" x1="345.389" y1="396.873" x2="344.881" y2="400.251"></line><line style="fill:none;stroke:#E0DCDB;stroke-width:0.5;" x1="351.152" y1="404.794" x2="354.867" y2="403.177"></line><polyline style="fill:none;stroke:#E0DCDB;stroke-width:0.5;" points="344.752,401.945 343.986,407.923 348.028,406.154 "></polyline><path style="fill:none;stroke:#E0DCDB;stroke-width:0.5;" d="M344.536,402.218c0.034,1.571,1.168,2.955,2.774,3.248c0.228,0.04,0.454,0.059,0.678,0.054"></path><path style="fill:none;stroke:#E0DCDB;stroke-width:0.5;" d="M349.271,399.045c-0.234-0.103-0.487-0.181-0.75-0.229c-1.439-0.262-2.829,0.429-3.524,1.621"></path><path style="fill:none;stroke:#E0DCDB;stroke-width:0.5;" d="M350.586,404.212c0.323-0.416,0.553-0.913,0.654-1.466c0.111-0.605,0.051-1.205-0.143-1.744"></path><line style="fill:none;stroke:#E0DCDB;stroke-width:0.5;" x1="349.445" y1="399.618" x2="345.699" y2="396.93"></line><line style="fill:none;stroke:#E0DCDB;stroke-width:0.5;" x1="354.781" y1="403.447" x2="351.446" y2="401.054"></line></g><ellipse transform="matrix(-0.5593 -0.829 0.829 -0.5593 192.4023 920.6067)" style="opacity:0.5;fill:#F9F7F8;" cx="340.923" cy="409.158" rx="2.956" ry="4.787"></ellipse></g></g><g><path style="fill:#F9F7F8;stroke:#000000;stroke-linecap:round;stroke-linejoin:round;" d="M340.431,428.306c0,0-1.901,7.321,2.323,7.743c4.224,0.423,2.393-3.801,3.238-8.024c0.845-4.225,4.571-15.986,16.895-17.6c11.828-1.549,10.982,6.758,10.982,6.758s-3.801,3.942-4.787,3.942c0.281-3.238-6.054-6.195-10.137-0.141c-4.084,6.054-2.957,10.56-3.379,11.968c-0.423,1.407-7.885,9.292-12.672,10.981s-10.701-2.253-10.137-11.123c0.563-4.646,2.886-7.251,2.886-7.251L340.431,428.306z"></path><path style="fill:#B8B1B8;" d="M335.802,429.925c0.053,0,0.282,0.053,0.44,0.369c0.158,0.317,0.176,0.563,0.299,0.493s0.316-1.83,1.25-1.514c0.932,0.316,0.264,1.654-0.018,1.936c0.035,0.423-0.035,2.183,0.738,3.608c0.775,1.426,2.024,2.446,4.453,1.83c-1.268-0.229-2.904-0.739-3.361-3.256c-0.413-2.272,0.176-4.787,0.176-4.787l-3.995-2.376c0,0-0.335,0.528-0.405,0.599c0.317,0.141,0.74,0.528,0.74,0.968c0.229-0.281,0.844-0.334,1.056-0.158c0.211,0.176,0.546,1.25-0.405,1.848C336.092,429.911,335.802,429.925,335.802,429.925z"></path><path style="fill:#B8B1B8;" d="M349.037,439.217c3.045-1.971,5.896-6.124,6.019-6.529c0.053-0.158,0.212-3.256,0.3-4.329s1.002-3.872,1.302-4.488c-0.968,0.07-1.725,2.2-2.2,2.481c-0.475,0.282-1.196,0.071-1.25,0.071c-0.053,0-0.387,1.073-1.107,0.527c-0.723-0.545-0.018-2.624-0.142-2.692c-0.158-0.088-0.897,2.041-1.777,1.918s-0.423-1.319-0.581-1.602c-0.105,0.123-0.246,0.95-0.264,1.25c-0.018,0.299,0.246,0.281,0.563,0.563c0.317,0.281-0.281,1.478-0.51,1.725c-0.229,0.246-0.316,0.439-0.316,0.439s0.299-0.035,0.791,0.317c0.493,0.352-0.053,1.161,0,1.39c0.053,0.229,0.335-0.316,0.617-0.88c0.281-0.563,0.563-0.457,0.896-0.404c0.018-0.353,0.705-1.443,1.303-1.479c0.599-0.035,1.496,0.915,0.387,2.868c-1.108,1.954-1.936,0.898-1.936,0.898s0.299,1.126-0.105,3.484S349.037,439.217,349.037,439.217z M351.536,427.771c-0.225,0.57-0.719,0.908-1.103,0.756c-0.385-0.151-0.514-0.735-0.289-1.306c0.225-0.569,0.719-0.908,1.104-0.757C351.632,426.616,351.762,427.201,351.536,427.771z"></path><path style="fill:#B8B1B8;" d="M371.241,412.396c0,0,1.548,1.597,0.188,2.816s-2.253-0.328-2.206-0.657s0.33-0.704,0.141-0.985c-0.188-0.281-0.422-0.188-0.422-0.188s0.609,0.938-0.469,1.268c-1.08,0.329-2.253-0.235-2.488-0.751c-0.141,0.61,1.268,1.126,1.361,1.314c0.094,0.188-0.376,0.704,0.141,0.985s1.689,0.422,1.689,0.422s-1.455-0.468-1.455-0.797s0.422-1.127,1.033-0.752c0.609,0.376,1.221,0.939,0.798,1.314c-0.142,0.328-2.394,0.188-3.38,0.751c0.61,0.188,2.394,0.704,3.426,3.097c0.893-0.797,3.756-3.238,3.756-3.238S373.729,414.414,371.241,412.396z"></path></g><g><path style="fill:#F9F7F8;stroke:#000000;stroke-linecap:round;stroke-linejoin:round;" d="M384.007,406.553c0,0-2.253,3.731-4.294,4.153c-2.253-1.126-3.802-5.913-2.042-11.123c1.76-5.209,7.885-5.632,9.222-4.224c-2.463,0.352-6.758,2.816-6.266,6.828C381.121,406.2,384.007,406.553,384.007,406.553z"></path><path style="fill:#B8B1B8;" d="M378.703,403.056c0,0-0.164-0.938-0.398-1.079s-0.398-0.001-0.398,0.117C377.906,402.211,378.093,402.868,378.703,403.056z"></path><path style="fill:#B8B1B8;" d="M379.431,406.153c0,0,0.212-2.205,0-2.275c-0.211-0.07-0.233,1.478-0.398,1.501s-1.479-0.023-1.526-0.234c-0.022,0.328-0.047,0.445,0.07,0.516c0.119,0.071,0.611,0.072,0.939,0.048S379.431,406.153,379.431,406.153z"></path><path style="fill:#B8B1B8;" d="M382.105,406.388c0,0,0.188,0.399,0.047,0.61s-1.173,1.29-1.525,1.22c-0.305-0.539-0.867-1.337-0.844-1.126s0.586,1.173,0.398,1.267c-0.188,0.095-0.656,0.305-0.867,0.142c-0.212-0.164-0.729-1.148-1.526-1.736c0.141,0.609,0.517,2.253,1.972,3.309c0.563-0.117,2.253-1.174,3.355-3.215C382.411,406.576,382.105,406.388,382.105,406.388z"></path></g></g></g></g></svg>