<svg xmlns="http://www.w3.org/2000/svg" width="500" height="500" version="1.1"><g id="x9181"><g><g><path style="fill:#414141;stroke:#000000;stroke-linecap:round;stroke-linejoin:round;" d="M269.167,446.501c17.5-5.083,36.25-17.584,38.25-20.5c-0.083-17.916,9-18.5,12.083-18.584c-2.084-3.834,1.334-11.833,5.75-10.166s2.084,10.666,2.084,10.666s7.166,4.75,19.916,5.5s18.084-3.833,18.084-3.833s-0.167-4.417,0.25-7.333c3.5-7.333,8.916-4.5,9.666-3.917s2.667,4.333,2.917,6.75c0.417-0.25,3.917-1.167,8.333,5.667c4.418,6.834,3.25,13.749,2.917,17.249c2.167,7,39.667,29.667,50.5,32.5c-7.5-38.834-27.375-58.375-27.375-58.375s-7,1.75-12.875-0.625s-5.375-9-5.5-9.5s-6.375-4.625-8.5-6c-1.25-7,3.125-11,4.375-12s4.125-0.875,7.125-0.875c9.25-23.625,0.625-39.875,0.25-40.375s-3.125-0.75-3.125-0.75s-2.375,1.25-5,0.75s-7.5-3.75-5.375-8.375s9.75-3.875,9.75-3.875s1.875-6,4.75-10.375s10.75-5.875,14.75-5.875c15.125-15,19.625-43.125,19.625-43.125c-36.5,16-42.25,26.688-42.25,26.688s0.813,6.75-2.625,12.813c-2.302,4.061-8.188,5.375-8.188,5.375s-1.125,3.563-2.625,7.125s-6.25,2.563-6.25,2.563c-3.938-0.75-2.75-4.938-1.625-8.313c-16.625-3.75-31.125,0.375-33.625,3.188c-0.813,8.313-6.063,10.688-8.563,9.688s-1.563-4.438-1.563-4.438s-9.375-0.438-6.375-14.625c-10.375-8.938-26.688-10.813-26.688-10.813s1.5,24.875,9.5,30.563c0.563-0.563,5.125-2.25,7.688-1.25s3.688,4.25,3.688,6.813c2.063,0.188,3.438,1.75,3.438,1.75s1.813,4.313-1.063,8.625c-1.593,2.39-4.375,3.188-6.875,3.125c-6.625,11.375-6.625,29.834-3.542,35.584c7-0.417,10.75,4.583,9.084,9.25c-1.668,4.667-9.084,7.25-9.5,7.333c-0.418,0.083,0.083,4.5-3.334,8.5c-3.416,4-12.166,5.667-12.166,5.667l-2.084-1.917C287.25,404.417,269.334,428.501,269.167,446.501z M327.559,344.317c9.308-15.403,27.263-21.599,40.105-13.839c12.841,7.76,15.707,26.536,6.398,41.94c-9.307,15.402-27.263,21.6-40.104,13.84C321.117,378.498,318.251,359.72,327.559,344.317z"></path><path style="opacity:0.3;fill:#FFFFFF;" d="M336.011,310.844c0,0.188-0.884,9.4-7.063,10.125c-5.063,0.594-4.125-4.719-4.125-4.719s-1.951,7.156,2.313,7.156C336.042,323.406,336.011,310.844,336.011,310.844z"></path><path style="opacity:0.3;fill:#FFFFFF;" d="M370.573,316.188c4.575,1.103,6.063-1.469,6.063-1.469c0,0.094-1.188,3.938-6.406,2.969s-5.906-5.406-5.906-5.406s-14.469-1.989-26.656,3.636c-0.938-1.938-1.563-5.229-1.563-5.229s10.292-7.584,32.479-2.916C368.584,307.771,365.386,314.938,370.573,316.188z"></path><g><path style="fill:#414141;" d="M341.354,308.771c0.226-0.184,0.58,1.471,1.254,2.269c0.629,0.743,1.498,2.271-0.116,2.425c-1.331,0.127-0.976-1.057-0.958-1.979S341.1,308.975,341.354,308.771z"></path><path style="fill:#414141;" d="M358.669,307.173c0.282-0.118,0.181,0.892,0.234,1.815c0.054,0.927,0.573,3.117-0.989,2.858c-1.287-0.214-0.506-1.273-0.137-2.163C358.145,308.793,358.354,307.307,358.669,307.173z"></path></g><path style="opacity:0.3;fill:#FFFFFF;" d="M386.948,320.906c0,0-3.5,1.219-4.063,4.406s1.313,6.531,7.531,8.094c-2.031,0.375-5.719,0-6.406-0.344s-3.781-3.969-4.75-7.438s-0.344-7,1.406-7.5S386.948,320.906,386.948,320.906z"></path><path style="opacity:0.3;fill:#FFFFFF;" d="M431.584,263.916c0,0-6.167,28.251-18.5,39.668c-0.167,0-0.875-0.584-1-0.75C425.5,287.25,431.584,263.916,431.584,263.916z"></path><path style="fill:#6E6E6E;stroke:#000000;stroke-linecap:round;stroke-linejoin:round;" d="M280.854,426.875c0.625-0.125,5.563-1,5.563-1s9.75-6.25,10.688-7.938s5.313-12.563,5.313-12.563s16.75-17.5,17.75-18.5s3.125-1,3.875-1.125s2.25,6,18.125,9.125s25.375-9.5,26.25-10.125s2.875-0.375,4,0.375s17.625,20,18.5,21.5s4.75,14.125,4.75,14.125s7.625,9.75,8.875,10.5s11.625,3.75,11.875,2.625s-1.5-11.875-2-12.625s-8.875-10.875-9.375-11.25s-11.625-5-12.75-5.25s-18.625-21.5-18.625-21.5s-0.625-2.375,0.25-5c5.75-7.5,9.875-19.375,9-30.375s-6.833-17.958-8.375-19.916c-1.542-1.959-0.917-4.75-0.875-5.167s18.417-21.542,18.708-21.75c0.293-0.208,7.375-3.833,7.375-3.833s10.667-11.709,11.209-13.042c0.541-1.333,1-6.958,0.916-7.125l-8.396,3.521l-9.563,10.25l-2.688,9.75c0,0-18.563,20.5-19,21.125s-2.063,1-2.813,1s-7.875-6.5-21.063-4.875S329.979,328,329.292,328.438s-3.375,0.188-4.063-0.125s-12.375-14.813-12.375-15s-1.375-8-1.625-8.75s-4.438-4.938-4.75-5.125s-5.125-0.25-6.563,0c-0.188,0.375-0.375,7-0.188,7.563s3.75,4.813,4.063,5.188s8.063,2.375,8.063,2.375s12.563,14.438,12.938,15.563s-0.5,3.375-0.5,3.375s-6.625,6.25-8.125,18.375c-2.364,19.109,3.375,26.938,3.875,28.313s-0.063,4.063-0.25,4.813s-18.438,19.813-18.438,19.813l-10.5,4.313l-8.25,9.75C282.604,418.875,281.542,423.75,280.854,426.875z M327.559,344.317c9.308-15.403,27.263-21.599,40.105-13.839c12.841,7.76,15.707,26.536,6.398,41.94c-9.307,15.402-27.263,21.6-40.104,13.84C321.117,378.498,318.251,359.72,327.559,344.317z"></path><path style="fill:none;stroke:#000000;stroke-linecap:round;stroke-linejoin:round;" d="M397.917,295.375c0,0-0.875,0.813-1.25,3.125"></path><g><g><path style="fill:#414141;stroke:#000000;stroke-linecap:round;stroke-linejoin:round;" d="M298.5,412.875c0.107,0.064-1.375,4.041-1.75,4.708s-5.625,5.708-7.041,6.625c-1.417,0.917-3.334,1.251-3.584,1.042s-0.875-1.75-0.875-1.75s-1.666-0.25-1.791-0.542s-1.293-5.208,3.416-9.5s7.666-3.583,7.875-3.458s1.292,1.75,1.292,1.75S297.875,412.5,298.5,412.875z"></path><path style="fill:#232323;" d="M297.209,415.083c0,0-0.875,2.25-0.959,2.417c-0.083,0.167-5.5,5.501-6.75,6.292c0.084-1.292-0.125-3.125,2.75-5.917S297.209,415.083,297.209,415.083z"></path><path style="fill:#232323;" d="M295.667,412.125c0,0-2.757,0.094-6.208,3.875c-3.5,3.833-2.25,8.75-2.25,8.75l-0.875,0.083l-0.709-1.666c-0.333-0.042-1.125-4.125,2.959-8.375c3.538-3.684,6.5-3.5,6.5-3.5L295.667,412.125z"></path></g><g><path style="fill:#414141;stroke:#000000;stroke-linecap:round;stroke-linejoin:round;" d="M311.292,311.125c0.024-0.17-0.417-4.833-0.792-5.916c-0.375-1.084-4.209-4.875-4.5-5.042s-2.25-0.292-2.416-0.125c-0.167,0.167-0.292,2-0.292,2l-1.125,1.333c0,0-1.458,0.084-1.625,0.292s-0.25,3-0.125,3.25s4.125,5.042,4.542,5.25c0.416,0.208,3.166,1.167,3.708,1.042S311.25,311.416,311.292,311.125z"></path><polygon style="fill:#232323;" points="310.792,310.917 308.75,312.584 301.917,303.792 303.792,302.209 "></polygon><polygon style="fill:#232323;" points="310.459,307.5 304.334,300.5 303.959,300.459 303.875,301.334 310.709,309.792 "></polygon><polygon style="fill:#232323;" points="307.25,312.375 301,303.959 300.917,305 306.417,312.167 "></polygon></g><g><path style="fill:#414141;stroke:#000000;stroke-linecap:round;stroke-linejoin:round;" d="M411,284.792c0,0-0.25-1.667-0.5-1.833c-0.25-0.167-2.416-0.375-2.416-0.375s-1.084-1.292-1.334-1.375c-0.25-0.084-3.916-1.501-7.666,3.541s-2.417,9.959-2,10.167c0.416,0.208,1.583,0.25,1.625,0.375c0.041,0.125,0.458,1.875,0.833,1.75s4.042-1.958,4.042-1.958S409.916,289.625,411,284.792z"></path><path style="fill:#232323;" d="M409.875,286.334c0,0-0.291-0.541-0.458-0.625c-0.167-0.083-2.833,0.459-4.583,3.084s-1.375,5.833-1.375,5.833s2.875-3,3.625-3.708C408.434,289.643,409.875,286.334,409.875,286.334z"></path><path style="fill:#232323;" d="M407.917,283.043c0,0-3.499-0.084-6.042,4.166c-2.541,4.25-1.541,8.834-1.541,8.834l-0.75,0.458l-0.542-1.583l-0.667-0.25c0,0-0.151-5.006,2.209-8.209c2.916-3.958,6.458-4.25,6.458-4.25L407.917,283.043z"></path></g><g><path style="fill:#414141;stroke:#000000;stroke-linecap:round;stroke-linejoin:round;" d="M415.375,432.626c0,0-0.75-8.668-1.875-10.959c-2.875-3.916-8.791-10.209-9.291-10.5s-3.875-1.583-4.417-1.458s-1,1.917-1,1.917s-1.542,1.959-1.792,2.125s-1.5,0.249-1.583,0.541s0.25,4.791,1.125,6s7.5,9.251,8.875,9.959S414.625,432.751,415.375,432.626z"></path><polygon style="fill:#232323;" points="414.459,428.668 399.209,411.751 397.209,414.168 411.875,431.584 414.834,432.084 "></polygon><path style="fill:#232323;" d="M400.709,410.334c0,0,9.666,10.626,10.041,11.459c-4.375-4.042-11.166-10.75-11.166-10.75s0.166-0.834,0.291-0.834S400.709,410.334,400.709,410.334z"></path></g></g></g><path style="opacity:0.3;fill:#FFFFFF;" d="M411.625,303.5c0,0-7.208-6.541-7.041-6.791c0.166-0.25,6.291-6.959,7.291-9.375c1-2.418,2.959-13.584,2.959-13.584s-8.292,3.25-10.417,4.791c-2.125,1.543-10.792,10.043-10.792,10.043l-2.166-1.084c0,0,12.041-12.875,30.625-20.541c-3.959,3.332-6,5.75-6,5.75s-2.871,13.766-3.334,15.125c-1.333,3.916-5.833,8.957-5.833,9.082S411,302.291,411.625,303.5z"></path><path style="opacity:0.3;fill:#FFFFFF;" d="M397.042,332.938c0,0-2.375-0.438-2.813-0.438s-7.438,3.5-7.438,3.5s2.75,9.625,2,17.188s-2.625,14.875-2.625,14.875l10.688,4.563c0,0,4.296-9.376,4.063-20.938C400.667,339.313,397.042,332.938,397.042,332.938z"></path><g><path style="fill:#414141;" d="M394.959,339.834c0.26,0.223-1.959,0.875-3,1.749c-0.971,0.814-2.988,2.02-3.292,0.25c-0.25-1.458,1.375-1.249,2.625-1.374S394.667,339.584,394.959,339.834z"></path><path style="fill:#414141;" d="M394.667,362.583c0.132,0.318-1.233,0.154-2.5,0.167s-4.311,0.476-3.782-1.24c0.435-1.414,1.791-0.495,2.963-0.042C392.52,361.92,394.52,362.229,394.667,362.583z"></path></g><path style="opacity:0.3;fill:#FFFFFF;" d="M396.854,372.625c0,0-4.75-0.438-6.75,0.813s-4.813,2.5-5,12.688c1,0.75,8.75,5.938,8.75,5.938s-1.313,5,3.688,8.813s14.5,1.875,14.5,1.875s-8.438,4.375-15.313-1.188s-5.375-10-5.375-10l-5.813-4.313c0,0-6.25-0.25-6.688-5.063s3.75-9.688,5.125-10.875C387.542,370.063,391.604,370.438,396.854,372.625z"></path><path style="opacity:0.3;fill:#FFFFFF;" d="M412.042,402.75c0,0.25-1.688,4.5-4.438,7.188c1.75,1.5,16.813,17.563,14.438,30.375c2.938,3.813,17.125,19.25,17.125,19.25s-5.236-21.403-12.688-36.188C418.604,407.75,412.042,402.75,412.042,402.75z"></path><path style="opacity:0.3;fill:#FFFFFF;" d="M439.167,459.563c0,0-16-5.938-23.375-11.75c7.188,3.5,17.375,7.938,17.563,7.5s0.25-1.813,0.25-1.813L439.167,459.563z"></path><path style="opacity:0.3;fill:#FFFFFF;" d="M398.542,425.563c0,0-3.5-1.5-4-1.438s-3.75,3.5-4.688,3.688c2.625-2.625,5.188-6.313,5.188-6.313s-3.125-9.875-4-10.813c-1.563-0.688-3.875,0.188-3.875,0.188s-3.688-6.75-8.563-6.313c-0.25-2.625,0.5-5.188,0.5-5.188s9.188,3.25,13,12.25c1.438,3.438,3.438,10.25,3.438,10.25L398.542,425.563z"></path><path style="opacity:0.3;fill:#FFFFFF;" d="M375.604,398.125c0,0-4-2.625-7.063-0.375s-3.938,3.313-3.688,11.625c-2.125-1-3.5-2.375-3.5-2.375s-1.25-6.563,0.188-10.125s5.728-6.495,9.75-5.813C374.604,391.625,375.604,398.125,375.604,398.125z"></path><path style="opacity:0.3;fill:#FFFFFF;" d="M364.854,409.375c0,0-3.625-1.75-3.938-2.438s-2.438-6.938-2.5-7.313c-2.188,1.063-5.188,1.688-13,1.938s-14.25-2.25-14.25-2.25l-3.375,8.313c0,0,7.188,5,19.5,5.438S364.854,409.375,364.854,409.375z"></path><g><path style="fill:#414141;" d="M354.207,408.659c-0.27,0.211-0.465-2.094-1.113-3.289c-0.604-1.114-1.383-3.331,0.412-3.274c1.479,0.047,0.949,1.597,0.822,2.847C354.201,406.191,354.512,408.424,354.207,408.659z"></path><path style="fill:#414141;" d="M334.969,407.97c-0.324,0.115-0.094-1.24-0.045-2.506c0.049-1.267-0.266-4.328,1.423-3.718c1.392,0.503,0.407,1.813-0.103,2.961C335.736,405.856,335.331,407.84,334.969,407.97z"></path></g><path style="opacity:0.3;fill:#FFFFFF;" d="M327.792,407.625c0,0,2.625-8.938-2.75-10.938c-2.375-0.438-4.438,1-5.25,2.875c-1-2.625-2.188-5.938-2.188-5.938s3.25-2.313,5.688-1.563s5.125,3.125,5.688,5.625C329.604,401,327.792,407.625,327.792,407.625z"></path><path style="opacity:0.3;fill:#FFFFFF;" d="M318.417,406.834c0,0-5-6.708-6-7.333c1.708,2.708,2.125,7.917,0.875,8.875C315.25,406.626,318.417,406.834,318.417,406.834z"></path><path style="opacity:0.3;fill:#FFFFFF;" d="M298.542,418.293l7.875,7.374c0,0-7.917-4.583-8.458-5.083c-1.5,1.833-5.167,5.001-7.292,6.292s-12.708,4.25-12.708,4.25s-4.584,5.583-5.042,6.458c2.042-4.042,4.125-7.417,4.125-7.417s1.499-7.459,2.458-9.875s2-3.083,2-3.083s-1.25,2.834-1.541,3.667c-0.292,0.833-1.792,8.458-1.75,9.208c1.208-0.291,11.125-2.875,12.625-3.958S298.542,418.293,298.542,418.293z"></path><path style="opacity:0.3;fill:#FFFFFF;" d="M305.125,392.584c0,0-0.459,6.542-4.25,9.417c4.167-2.125,5.75-7.626,5.834-8.167C306.792,393.293,305.125,392.584,305.125,392.584z"></path><path style="opacity:0.3;fill:#FFFFFF;" d="M305.084,374.083c0,0,1.584-2.083,5.916-3.583c-0.416-3-0.75-18.75,3.084-27.417c-2-1-5.167-2.499-5.167-2.499s-4.522,8.923-5,17.666C303.334,368.917,305.084,374.083,305.084,374.083z"></path><g><path style="fill:#414141;" d="M305.177,366.712c-0.163-0.277,1.704-0.392,2.688-0.998c0.917-0.564,2.729-1.264,2.633,0.527c-0.08,1.477-1.316,0.893-2.322,0.722S305.358,367.023,305.177,366.712z"></path><path style="fill:#414141;" d="M306.283,347.51c-0.084-0.328,1.004-0.051,2.024,0.043c1.022,0.094,3.503-0.112,2.962,1.553c-0.445,1.373-1.476,0.344-2.389-0.206C307.968,348.351,306.377,347.876,306.283,347.51z"></path></g><path style="opacity:0.3;fill:#FFFFFF;" d="M309,340.459c0,0,3,1.666,6.834-0.25c3.833-1.917,5.041-7.334,4.791-9.334S317,327.834,317,327.834s1.488,2.208,0,7.375C315.5,340.417,309,340.459,309,340.459z"></path><path style="opacity:0.3;fill:#FFFFFF;" d="M313.75,325.459c0,0-0.25-2.751-1.583-4.334s-2.958-2-3.083-2.083s0.332-2.5,0.875-2.708c0.541-0.209,3.041,1.207,4.416,4.041s1.043,4.292,0.875,4.417C315.084,324.917,313.75,325.459,313.75,325.459z"></path><path style="opacity:0.3;fill:#FFFFFF;" d="M303.292,314.209c0,0-1.417,5.041-1.625,4.791s0.5-4.959,0.5-4.959s-3.458-5.124-3.792-6.082c-0.333-0.959,0.292-8.959,0.542-9c0.25-0.043,0.458,0.082,0.458,0.082s-0.457,8.209-0.375,8.668C299.084,308.166,303.167,313.75,303.292,314.209z"></path><path style="opacity:0.3;fill:#FFFFFF;" d="M318.5,301.292c0,0-0.375,1.458-0.375,1.292c0-0.167-12.416-10.126-25.125-11.584C295.834,290.792,311.209,294.917,318.5,301.292z"></path><path style="opacity:0.3;fill:#FFFFFF;" d="M324.834,316.375c0,0-4.168-0.791-5.709-4.541s-0.666-10.375-0.666-10.375s-2.334,6.541,0.083,11.082C320.959,317.084,324.834,316.375,324.834,316.375z"></path><path style="opacity:0.3;fill:#FFFFFF;" d="M299.104,299c-0.125-0.188-6.104-8-6.104-8c3.229,2.813,7.542,7.75,7.542,7.75L299.104,299z"></path><path style="opacity:0.3;fill:#FFFFFF;" d="M318.229,302c0,0-3.25,0.438-4.5,1.438c-0.938,0.563-1.375,0.438-1.375,0.438l-0.625,0.625l-1.563-1.875c0,0,1.125,0.5,2.25,0.313s4.375-1.625,5.813-1.313C317.979,302,318.229,302,318.229,302z"></path></g></g></svg>