<svg xmlns="http://www.w3.org/2000/svg" width="500" height="500" version="1.1"><g id="x9183"><g><g><path style="fill:#BDBDC3;stroke:#000000;stroke-linecap:round;stroke-linejoin:round;" d="M324.198,392.112c0,0,1.063,1.55,1.015,1.875c-0.045,0.324-1.872-0.622-1.872-0.622s12.098,21.739,19.9,29.418c7.803,7.678,11.043,7.773,11.043,7.773s-7.313,1.55-11.694-2.688c-7.646-7.671-25.76-29.232-24.636-43.436C321.055,386.112,324.198,392.112,324.198,392.112z"></path><path style="fill:#F2F1F0;stroke:#000000;stroke-linecap:round;stroke-linejoin:round;" d="M335.254,417.624c-0.323-0.127,16.829,17.787,16.829,17.787s-0.913,0.174-1.945,0.248c0.543,0.371,3.074,0.93,3.074,0.93s2.849,3.008,7.198,5.965c-3.932-0.628-10.28-4.149-10.28-4.149l-1.691-2.452l0.384,1.734l-2.055-1.379l-1.669-2.92l0.533,1.898l-1.364-0.847c0,0-0.123-1.317-0.482-1.614c-0.36-0.299-0.357,0.919-0.357,0.919c-0.854-0.385-9.49-6.325-16.335-14.424c-5.336-6.313-7.473-17.118-7.473-17.118C318.942,402.045,335.438,417.696,335.254,417.624z"></path><path style="fill:none;stroke:#000000;stroke-linecap:round;stroke-linejoin:round;" d="M327.303,412.371c0,0,7.715,13.354,22.835,23.288"></path><path style="fill:#BDBDC3;stroke:#000000;stroke-linecap:round;stroke-linejoin:round;" d="M314.52,392.877c-0.043,0.247-0.249,17.396-0.048,20.964s0.865,11.118,0.865,11.118s0.787-0.118,0.671,0.313c-0.114,0.431-0.882,1.455-0.882,1.455s-0.479,4.78-0.056,5.051c0.422,0.27,1.089-2.537,1.467-3.236c0.377-0.699,2.791-6.104,2.941-13.71c0.149-7.605-1.572-16.519-1.684-17.459C317.686,396.432,314.52,392.877,314.52,392.877z"></path><g><path style="fill:#F2F1F0;stroke:#000000;stroke-linecap:round;stroke-linejoin:round;" d="M308.125,387.7c0,0-5.176,6.659-5.273,7.729c0.975-0.466,1.738-1.411,1.738-1.411s2.578-1.404,3.37-2.286c0.791-0.883,2.688-5.221,2.688-5.221L308.125,387.7z"></path><path style="fill:#F2F1F0;stroke:#000000;stroke-linecap:round;stroke-linejoin:round;" d="M311.41,387.811c0,0-0.669,4.789-1.212,6.667c-0.543,1.876-1.15,3.781-1.063,4.581c0.348-0.077,0.951-1.297,1.107-1.632c0.159-0.334,2.62-4.162,3.016-6.202C312.651,388.294,311.41,387.811,311.41,387.811z"></path><path style="fill:#F2F1F0;stroke:#000000;stroke-linecap:round;stroke-linejoin:round;" d="M313.941,391.569c-0.154-0.017-0.508,4.375-0.244,5.401c0.491,0.508,1.975-2.774,1.965-2.886C315.651,393.976,314.858,391.659,313.941,391.569z"></path><path style="fill:#F2F1F0;stroke:#000000;stroke-linecap:round;stroke-linejoin:round;" d="M320.001,385.623c0.058,0.128,1.288,3.433,3.894,6.318c2.604,2.888,4.995,3.129,4.995,3.129c-0.269-0.264-8.134-9.552-8.134-9.552L320.001,385.623z"></path><path style="fill:#F2F1F0;stroke:#000000;stroke-linecap:round;stroke-linejoin:round;" d="M320.997,385.375c0.005,0.006,0.011,0.011,0.019,0.021c0.37,0.425,3.873,3.898,7.482,4.21c3.682,0.317,8.051-2.902,8.051-2.902s-4.801,1.202-8.904-0.072c-4.104-1.274-6.824-3.388-6.824-3.388s2.373,1.237,5.045-0.473c-2.824-0.622-4.443-1.355-5.342-1.148s-3.019,1.788-3.019,1.788"></path></g><path style="fill:#F2F1F0;stroke:#000000;stroke-linecap:round;stroke-linejoin:round;" d="M312.194,384.84c0,0-1.376,2.32-0.407,4.52c0.642-1.654,1.28-2.276,1.28-2.276s-1.26,2.84-0.06,6.079c0.841-0.94,1.313-2.978,1.345-2.649c0.03,0.33-1.244,4.433,7.414,16.037c8.657,11.604,20.359,16.383,27.018,15.16c2.796-1.689,2.951-3.928,2.174-6.213c-0.165,1.442-3.676,4.362-3.676,4.362s-9.265-0.739-15.44-7.813c-7.848-8.991-11.375-22.172-11.375-22.172s1.092,0.66,1.612,0.546c-0.782-1.256-3.51-4.851-3.51-4.851s1.94,0.515,2.886,0.327c-0.271-1.137-2.539-2.65-4.12-2.867C315.755,382.812,312.194,384.84,312.194,384.84z"></path><path style="fill:#FFFFFF;" d="M316.918,423.881c0,0,1.193-13.702-0.171-23.532C319.325,411.548,316.74,423.653,316.918,423.881z"></path><path style="fill:none;stroke:#000000;stroke-linecap:round;stroke-linejoin:round;" d="M324.27,409.291c0,0-9.076-12.296-8.17-21.986"></path></g><g><polygon style="fill:#E3C089;stroke:#000000;stroke-linecap:round;stroke-linejoin:round;" points="309.871,367.813 307.987,367.104 307.241,368.974 306.379,368.639 307.364,365.691 310.205,366.954 "></polygon><rect x="307.291" y="360.526" transform="matrix(0.9148 -0.404 0.404 0.9148 -122.0188 155.6888)" style="fill:#F1F1EC;stroke:#000000;stroke-linecap:round;stroke-linejoin:round;" width="1.308" height="12.961"></rect><path style="fill:#F1F1EC;stroke:#000000;stroke-linecap:round;stroke-linejoin:round;" d="M305.668,361.842l-2.148-1.565c-0.097-0.529,0.861-1.35,0.861-1.35s1.253-0.153,1.578,0.274L305.668,361.842z"></path><g><path style="fill:#E3C089;stroke:#000000;stroke-linecap:round;stroke-linejoin:round;" d="M311.981,372.977l0.797-1.646l-0.65-1.046c0,0-5.343-1.491-5.585-1.611c0.03,0.329,0.628,1.512,0.628,1.512l4.296,1.19l-0.543,1.192L311.981,372.977z"></path><path style="fill:#E3C089;stroke:#000000;stroke-linecap:round;stroke-linejoin:round;" d="M309.629,374.014l-1.753-0.521l-0.333-1.185c0,0,2.502-4.951,2.576-5.212c0.223,0.242,0.692,1.483,0.692,1.483l-2.019,3.976l1.245,0.402L309.629,374.014z"></path></g><polygon style="fill:#E3C089;stroke:#000000;stroke-linecap:round;stroke-linejoin:round;" points="308.218,365.83 307.749,364.295 305.605,361.699 306.074,365.033 306.891,366.416 305.125,365.537 304.37,358.901 308.76,363.935 "></polygon><path style="fill:#E3C089;stroke:#000000;stroke-linecap:round;stroke-linejoin:round;" d="M304.498,359.188c-0.909,0.402-0.898,0.938-0.868,1.113l-1.262-5.941l3.534,4.938C305.793,359.157,305.405,358.788,304.498,359.188z"></path></g><g><polygon style="fill:#E3C089;stroke:#000000;stroke-linecap:round;stroke-linejoin:round;" points="319.534,377.489 317.855,376.403 317.922,372.861 305.536,378.322 308.196,380.663 307.866,382.634 301.99,377.858 319.971,369.93 "></polygon><path style="fill:#E3C089;stroke:#000000;stroke-linecap:round;stroke-linejoin:round;" d="M325.064,380.251l-14.791-7.961l-4.099,16.288L325.064,380.251z M321.014,380.064l-12.243,5.398l3-9.776L321.014,380.064z"></path><g><polygon style="fill:#E3C089;stroke:#000000;stroke-linecap:round;stroke-linejoin:round;" points="319.404,381.164 310.667,385.016 311.67,380.729 308.462,378.716 312.337,376.968 316.24,375.286 315.561,379.014 "></polygon><polygon style="fill:#E3C089;stroke:#000000;stroke-linecap:round;stroke-linejoin:round;" points="315.986,381.187 316.241,385.566 313.181,382.424 309.858,381.454 311.311,378.526 310.957,373.58 314.37,377.179 317.51,378.079 "></polygon><polygon style="fill:#FDD48B;" points="313.406,382.059 313.529,381.395 312.284,380.382 310.406,381.134 "></polygon><path style="fill:#FDD48B;" d="M315.773,384.193c-0.021-0.047-0.963-1.88-0.963-1.88l0.306-2.457l0.81,0.539l-0.333,0.756L315.773,384.193z"></path><path style="fill:#FFE899;" d="M312.745,377.627c0,0-1.095-2.222-1.164-2.381c-0.071-0.158-0.087-0.457-0.087-0.457l0.328,0.313L312.745,377.627z"></path><path style="fill:#FFE899;" d="M314.705,382.245c0.098,0.225,0.938,2.216,1.049,2.204c0.107-0.011-0.045-0.704-0.045-0.704L314.705,382.245z"></path><polygon style="fill:#E3C089;stroke:#000000;stroke-linecap:round;stroke-linejoin:round;" points="314.606,381.947 312.545,380.381 312.878,378.024 314.841,379.369 "></polygon><polygon style="fill:#FFE899;" points="314.236,381.139 313.655,379.929 314.311,379.603 "></polygon><polygon style="fill:#FCFFB9;" points="312.987,380.205 313.565,380.007 314.236,381.139 313.75,379.908 314.311,379.603 313.72,379.751 313.21,378.813 313.536,379.811 "></polygon></g></g><g><path style="fill:#FFE899;" d="M315.245,379.152c0,0,1.589-0.586,1.678-0.814c-0.175-0.094-0.439-0.093-0.439-0.093l-1.569,0.672L315.245,379.152z"></path><path style="fill:#FFE899;" d="M312.143,380.521c0,0-1.379,0.759-1.608,0.669c-0.229-0.088,0.001-0.343,0.001-0.343l1.506-0.665L312.143,380.521z"></path></g></g></g></svg>