<svg xmlns="http://www.w3.org/2000/svg" width="500" height="500" version="1.1"><g id="x9184"><g><g><g><g><path style="fill:#404146;stroke:#000000;stroke-linecap:round;stroke-linejoin:round;" d="M407.912,213.107c46.221,30.936,55.196,66.979,55.196,66.979s-11.544-10.204-21.544-17.481c-10.002-7.277-17.462-8.77-18.099-9.343s0.644-2.922,0.479-4.2c-0.164-1.277-1.675-3.599-3.083-4.979c-1.408-1.38-9.298-6.806-9.298-6.806l-14.03-8.663c0,0-22.652-17.349-25.272-18.228c-2.621-0.879-6.721-0.416-10.958,1.123c-13.952-15.753-37.798-24.132-37.798-24.132l-28.55-9.194C294.955,178.184,361.691,182.171,407.912,213.107z"></path><path style="opacity:0.5;fill:#FFFFFF;" d="M411.012,236.251c0,0,9.87,6.168,10.624,7.329c0.754,1.162,3.167,4.745,3.115,5.803c-0.054,1.059-0.813,3.174-0.813,3.174s7.407,2.333,16.217,8.448c8.812,6.116,19.684,15.362,19.684,15.362l0.559-2.471c0,0-13.44-10.963-20.388-15.613c-6.372-4.265-12.894-6.225-12.894-6.225l0.51-3.377c0,0-2.863-5.197-4.727-6.663c-1.862-1.466-11.529-7.936-11.529-7.936L411.012,236.251z"></path><path style="opacity:0.5;fill:#FFFFFF;" d="M325.401,187.7c0,0,23.328,7.302,36.003,23.002c4.387-1,8.171-2.404,11.193-1.038c3.021,1.367,10.321,7.126,10.321,7.126l1.312-1.308c0,0-9.563-7.932-11.629-8.439c-2.065-0.508-10.639,1.19-10.639,1.19s-3.063-6.862-27.287-19.357C328.983,186.598,325.401,187.7,325.401,187.7z"></path></g><path style="fill:#1E1E1E;stroke:#000000;stroke-linecap:round;stroke-linejoin:round;" d="M299.288,178.46c0.201,0.572,0.872,1.312,1.509,1.885c0.639,0.573,21.664,7.064,21.664,7.064s1.077-0.737,1.952-0.735c0.873,0,41.19,6.864,76.938,30.79c35.748,23.927,60.011,61.309,60.011,61.309l5.604,4.918c0,0,9.111-1.193,8.608-1.968c-0.504-0.774-16.12-24.932-16.12-24.932s-21.791-29.313-52.268-50.44c-21.795-9.047-102.715-31.276-102.715-31.276L299.288,178.46z"></path><g id="leftXMLID_68_"><g><linearGradient id="leftXMLID_137_" gradientUnits="userSpaceOnUse" x1="266.9434" y1="325.167" x2="376.3677" y2="303.7184" gradientTransform="matrix(0.831 0.5562 -0.5562 0.831 267.3929 -244.6257)"><stop offset="0" style="stop-color:#80BCFB"></stop><stop offset="1" style="stop-color:#6254A1"></stop></linearGradient><path style="fill:url(#leftXMLID_137_);" d="M408.153,206.421c0,0-3.155,0.792-9.212,4.613c-45.861-26.899-104.924-33.186-109.631-33.134c-1.023,0.014-14.295-9.568-14.295-9.568C352.773,171.104,408.153,206.421,408.153,206.421z"></path></g><path style="fill:#79B4FA;" d="M406.073,208.012c1.017-0.41,2.087-1.593,2.087-1.593s-55.387-35.322-133.149-38.085c0,0,1.415,1.021,3.354,2.395C349.723,175.544,394.593,201.102,406.073,208.012z"></path><g><path style="fill:none;stroke:#000000;stroke-linecap:round;stroke-linejoin:round;" d="M275.016,168.332c0,0,13.271,9.582,14.295,9.568c4.707-0.052,63.77,6.235,109.631,33.134c6.057-3.82,9.212-4.613,9.212-4.613S352.773,171.104,275.016,168.332z"></path></g></g><g id="leftXMLID_66_"><g><linearGradient id="leftXMLID_138_" gradientUnits="userSpaceOnUse" x1="480.749" y1="331.3721" x2="440.0326" y2="314.6492" gradientTransform="matrix(0.831 0.5562 -0.5562 0.831 267.3929 -244.6257)"><stop offset="0" style="stop-color:#80BCFB"></stop><stop offset="1" style="stop-color:#6254A1"></stop></linearGradient><path style="fill:url(#leftXMLID_138_);" d="M469.196,275.991c-0.738-1.51-10.834-14.53-11.03-15.099c-0.196-0.57,1.085-4.681,1.085-4.681c16.07,16.302,40.228,59.731,39.742,60.877c-0.467,1.14-33.77-34.273-33.77-34.273s4.738,0.109,5.175-0.333C470.827,282.052,469.928,277.514,469.196,275.991z"></path></g><path style="fill:#79B4FA;" d="M460.729,257.062l-1.919,2.215c0,0,22.733,28.775,37.404,55.219c2.112,2.725,2.778,2.594,2.778,2.594S486.38,289.977,460.729,257.062z"></path><g><g id="leftXMLID_67_"><path style="fill:none;stroke:#000000;stroke-linecap:round;stroke-linejoin:round;" d="M459.251,256.212c0,0-1.281,4.11-1.085,4.681c0.196,0.568,10.292,13.589,11.03,15.099c0.731,1.522,1.631,6.061,1.202,6.491c-0.437,0.442-5.175,0.333-5.175,0.333s33.303,35.413,33.77,34.273C499.479,315.943,475.321,272.514,459.251,256.212z"></path></g></g></g></g><g><g><path style="fill:#404146;stroke:#000000;stroke-linecap:round;stroke-linejoin:round;" d="M411.597,223.38l-3.074-5.518l1.545-10.849l-9.439,5.564l-6.274-0.739c0,0-8.818,7.108-8.889,7.437c-0.07,0.33,4.24,12.766,4.24,12.766l4.986,3.337c0,0,13.142-0.756,13.419-0.946C408.388,234.243,411.597,223.38,411.597,223.38z"></path><polygon style="opacity:0.5;fill:#FFFFFF;" points="410.193,224.47 410.494,224.321 407.127,232.646 395.927,233.874 391.253,230.745 387.632,220.199 395.063,213.591 400.054,214.224 408.001,210.218 407.85,210.818 400.469,214.953 395.2,214.285 388.43,220.131 391.738,230.469 396.102,233.389 406.908,232.149 "></polygon><polygon style="opacity:0.5;fill:#FFFFFF;" points="409.426,207.862 407.813,217.914 411.2,223.64 410.193,224.47 406.563,218.431 408.001,210.218 "></polygon><circle style="opacity:0.5;fill:#FFFFFF;" cx="399.934" cy="222.153" r="7.117"></circle><circle style="fill:#404146;" cx="399.933" cy="222.154" r="6.194"></circle><g><circle style="fill:#79B4FA;stroke:#000000;stroke-linecap:round;stroke-linejoin:round;" cx="399.934" cy="222.154" r="4.531"></circle><g><path style="fill:none;stroke:#000000;stroke-width:2;stroke-linecap:round;stroke-linejoin:round;" d="M403.298,224.405c-2.817-1.192-3.466-1.063-5.616,1.112c1.192-2.817,1.064-3.465-1.111-5.615c2.816,1.192,3.464,1.063,5.614-1.112C400.993,221.606,401.121,222.254,403.298,224.405z"></path></g></g><g><circle style="fill:#6B6C6E;" cx="404.356" cy="230.265" r="0.813"></circle><circle style="fill:#6B6C6E;" cx="390.749" cy="221.157" r="0.813"></circle></g></g><g><path style="fill:#404146;stroke:#000000;stroke-linecap:round;stroke-linejoin:round;" d="M388.514,239.216l-6.909-3.723c0,0,0.516,2.151-0.197,3.328c2.701,1.808,5.09,3.407,5.09,3.407s2.39,1.599,5.09,3.406c0.817-1.108,3.002-1.451,3.002-1.451L388.514,239.216z"></path><polygon style="fill:#1E1E1E;" points="382.309,236.542 382.353,237.674 392.44,244.476 393.795,243.878 "></polygon><path style="fill:#404146;stroke:#000000;stroke-linecap:round;stroke-linejoin:round;" d="M390.767,249.071c0.745-0.328,1.371-1.488,1.58-1.799c0.209-0.312-0.361-1.37-0.361-1.37l-10.978-7.348c0,0-1.195-0.124-1.404,0.188c-0.208,0.312-1.043,1.333-1.062,2.147c-0.019,0.815,0.168,2.896-1.17,5.008c-1.339,2.112-4.26,6.701-7.208,7.509c0.363,0.695,0.465,1.666,0.465,1.666l-1.37,0.587c0,0,0.633,4.784-5.139,13.406c-5.771,8.622-77.837,116.294-77.837,116.294l0.322,1.619c-0.924,0.183-1.572,0.551-1.572,0.551s-1.395,3.881-5.01,9.282c-3.615,5.402-13.477,13.242-13.432,14.074s0.275,1.387,0.275,1.387l-0.974,1.756l7.755,5.19l1.251-1.569c0,0,0.601,0.001,1.387-0.274s4.277-12.38,7.893-17.782c3.615-5.401,6.672-8.169,6.672-8.169s0.093-0.74-0.091-1.664l1.619-0.321c0,0,72.065-107.671,77.837-116.293c5.771-8.622,10.436-9.862,10.436-9.862l0.02-1.49c0,0,0.938-0.275,1.717-0.204c-0.375-3.034,2.753-7.483,4.195-9.526S390.02,249.399,390.767,249.071z"></path><path style="opacity:0.5;fill:#FFFFFF;" d="M373.047,258.469l3.843,2.572c0,0-1.687-0.625-2.368-0.431s-85.311,127.46-85.311,127.46l-0.692-0.463c0,0,84.233-125.625,84.547-126.769C373.38,259.695,373.047,258.469,373.047,258.469z"></path><g><line style="fill:none;stroke:#000000;stroke-linecap:round;stroke-linejoin:round;" x1="370.593" y1="254.119" x2="381.673" y2="261.535"></line><line style="fill:none;stroke:#000000;stroke-linecap:round;stroke-linejoin:round;" x1="369.62" y1="255.574" x2="380.7" y2="262.99"></line></g><path style="opacity:0.5;fill:#FFFFFF;" d="M386.116,242.8l3.272,2.19c0,0-1.918,0.622-3.158,2.098c-1.24,1.477-4.901,7.18-5.667,8.541c-1.644,2.924,1.262,5.307,1.262,5.307s-7.677-5.238-9.407-6.396c1.85,0.084,5.214,2.217,6.402,1.691C380.477,255.496,387.368,245.48,386.116,242.8z"></path><path style="fill:#1E1E1E;" d="M267.189,410.936c0,0-0.082,1.097,0.286,1.595c0.346,0.532,3.415,2.537,3.415,2.537l17.174-25.658l-0.981-0.707c0,0-5.589,10.748-15.058,19.203C270.177,409.555,267.189,410.936,267.189,410.936z"></path><line style="fill:none;stroke:#000000;stroke-linecap:round;stroke-linejoin:round;" x1="285.168" y1="387.671" x2="290.673" y2="391.355"></line><line style="fill:none;stroke:#000000;stroke-linecap:round;stroke-linejoin:round;" x1="286.605" y1="386.979" x2="290.676" y2="389.702"></line><polygon style="fill:#1E1E1E;" points="266.455,413.904 267.36,412.403 274.597,417.247 273.519,418.632 "></polygon><path style="fill:#404146;stroke:#000000;stroke-linecap:round;stroke-linejoin:round;" d="M396.527,236.457l-8.518-5.702c0,0-5.359,1.603-6.837,3.246c-0.254,0.283,0.691,1.666,0.691,1.666l12.465,8.344c0,0,1.638,0.346,1.803,0.003C397.089,242.022,396.527,236.457,396.527,236.457z"></path><path style="opacity:0.5;fill:#FFFFFF;" d="M391.98,237.147l1.835,1.229c0,0-1.133,0.345-1.505,1.049c-0.371,0.704-0.42,2.276-0.42,2.276l-2.146-1.437c0,0,1.249-0.367,1.874-1.302C392.244,238.027,391.98,237.147,391.98,237.147z"></path><path style="opacity:0.5;fill:#FFFFFF;" d="M385.102,232.294c0,0-2.616,2.411-2.363,3.081c-0.439,0.056-0.969-1.1-0.969-1.1S383.517,232.639,385.102,232.294z"></path><path style="fill:#1E1E1E;" d="M388.003,231.329l8.137,5.446c0,0,0.03,2.427,0.007,2.912c-3.013-2.016-11.045-7.393-11.045-7.393L388.003,231.329z"></path><path style="fill:#1E1E1E;stroke:#000000;stroke-linecap:round;stroke-linejoin:round;" d="M264.533,424.45l-3.992-2.874c0,0-0.124,3.93-0.055,4.577c0.067,0.647,3.39,2.871,4.015,2.688c0.624-0.184,4.211-1.796,4.211-1.796L264.533,424.45z"></path><path style="fill:#404146;stroke:#000000;stroke-linecap:round;stroke-linejoin:round;" d="M272.32,425.249l0.811-1.361l1.135-0.045c0,0,0.901-1.2,1.437-2.146c0.531-0.948-1.131-1.76-1.131-1.76l-9.694-6.489c0,0-1.386-1.228-2.056-0.373c-0.673,0.854-1.438,2.146-1.438,2.146l0.391,1.064l-0.95,1.269c0,0-2.451,0.065-2.729,0.479c-0.277,0.416-0.811,1.964-0.811,1.964l14.128,9.456c0,0,1.226-1.084,1.504-1.499C273.194,427.539,272.32,425.249,272.32,425.249z"></path><rect x="264.44" y="418.078" transform="matrix(-0.8311 -0.5561 0.5561 -0.8311 251.4516 915.4866)" style="opacity:0.5;fill:#FFFFFF;" width="0.625" height="2.959"></rect><rect x="269.357" y="421.369" transform="matrix(-0.8311 -0.5561 0.5561 -0.8311 258.6248 924.2473)" style="opacity:0.5;fill:#FFFFFF;" width="0.625" height="2.959"></rect><path style="opacity:0.5;fill:#FFFFFF;" d="M267.273,415.754c0,0-0.094,0.439-0.349,0.82c-0.256,0.381-1.745,0.286-1.745,0.286l6.89,4.61c0,0-0.219-0.346,0.199-1.119s0.937-0.727,0.937-0.727L267.273,415.754z"></path><path style="opacity:0.5;fill:#FFFFFF;" d="M264.671,422.487c0,0,0.255,0.52,0.022,0.866s-0.867,0.322-0.867,0.322l3.186,2.132c0,0-0.334-0.475-0.033-0.925c0.302-0.449,0.833-0.345,0.833-0.345L264.671,422.487z"></path><g><line style="fill:none;stroke:#000000;stroke-linecap:round;stroke-linejoin:round;" x1="261.536" y1="414.973" x2="274.44" y2="423.608"></line><line style="fill:none;stroke:#000000;stroke-linecap:round;stroke-linejoin:round;" x1="258.74" y1="417.854" x2="272.843" y2="427.292"></line></g></g></g></g><g><g><path style="fill:#FBF8EF;stroke:#000000;stroke-linecap:round;stroke-linejoin:round;" d="M363.236,270.355c0,0,3.536,0.11,8.006,1.297c-1.946,2.908-3.059,4.571-3.059,4.571l-8.876,0.226L363.236,270.355z"></path><path style="fill:#FBF8EF;stroke:#000000;stroke-linecap:round;stroke-linejoin:round;" d="M360.49,274.684c0,0,3.154,0.006,6.199,3.548c-2.087,3.116-3.129,4.674-3.129,4.674l-6.305-3.166L360.49,274.684z"></path><g><path style="fill:#FBF8EF;stroke:#000000;stroke-linecap:round;stroke-linejoin:round;" d="M349.992,289.918c0.416-0.173,3.087-0.791,8.422,1.576c-8.899,13.297-41.161,61.496-41.161,61.496s-4.37,1.137-8.561-1.367C319.121,336.04,349.992,289.918,349.992,289.918z"></path><g><line style="fill:none;stroke:#000000;stroke-linecap:round;stroke-linejoin:round;" x1="312.756" y1="347.573" x2="319.445" y2="348.592"></line><path style="fill:none;stroke:#000000;stroke-linecap:round;stroke-linejoin:round;" d="M314.216,345.844c0.346,0.382,3.357,2.397,3.357,2.397"></path><line style="fill:none;stroke:#000000;stroke-linecap:round;stroke-linejoin:round;" x1="319.573" y1="335.592" x2="323.719" y2="343.33"></line><path style="fill:none;stroke:#000000;stroke-linecap:round;stroke-linejoin:round;" d="M320.164,334.934c0,0,4.756-3.736,12.28-4.415"></path><line style="fill:none;stroke:#000000;stroke-linecap:round;stroke-linejoin:round;" x1="328.09" y1="323.091" x2="333.209" y2="329.376"></line><path style="fill:none;stroke:#000000;stroke-linecap:round;stroke-linejoin:round;" d="M326.491,325.48c0,0,2.772,0.352,3.708,0.526"></path><line style="fill:none;stroke:#000000;stroke-linecap:round;stroke-linejoin:round;" x1="334.313" y1="314.02" x2="338.077" y2="321.203"></line><path style="fill:none;stroke:#000000;stroke-linecap:round;stroke-linejoin:round;" d="M336.573,309.967c0,0,2.671-1.069,9.29,0.503"></path><path style="fill:none;stroke:#000000;stroke-linecap:round;stroke-linejoin:round;" d="M339.735,305.916c0,0,3.293,0.249,7.103,2.198"></path><path style="fill:none;stroke:#000000;stroke-linecap:round;stroke-linejoin:round;" d="M346.48,295.39c0,0,2.977,2.744,4.46,6.596"></path><line style="fill:none;stroke:#000000;stroke-linecap:round;stroke-linejoin:round;" x1="348.635" y1="292.62" x2="356.294" y2="293.986"></line><line style="fill:none;stroke:#000000;stroke-linecap:round;stroke-linejoin:round;" x1="349.849" y1="292.83" x2="355.043" y2="295.855"></line></g></g></g><g><path style="fill:#FBF8EF;stroke:#000000;stroke-linecap:round;stroke-linejoin:round;" d="M304.625,357.925l-9.387,14.023c0,0,3.397-0.133,7.38,2.232c3.338-4.986,5.91-8.829,5.91-8.829S307.98,361.676,304.625,357.925z"></path><path style="fill:none;stroke:#000000;stroke-linecap:round;stroke-linejoin:round;" d="M301.043,363.5c0,0,3.426,3.646,3.87,7.253"></path><line style="fill:none;stroke:#000000;stroke-linecap:round;stroke-linejoin:round;" x1="298.923" y1="366.442" x2="303.257" y2="366.485"></line></g><path style="fill:#FBF8EF;stroke:#000000;stroke-linecap:round;stroke-linejoin:round;" d="M302.097,375.186c0,0-7.348-1.158-9.569,0.364c-1.946,2.908-6.185,7.441-6.185,7.441l0.518,1.25l4.101-4.777c0,0,6.95,0.064,8.597-0.261C301.297,376.605,302.097,375.186,302.097,375.186z"></path></g></g></g></svg>