<svg xmlns="http://www.w3.org/2000/svg" width="500" height="500" version="1.1"><g id="x9185"><g><g><path style="fill:#2A2826;stroke:#000000;stroke-linecap:round;stroke-linejoin:round;" d="M312.521,371.311c0,0-9.125-1.613-13.212-1.954c-4.087-0.345-11.417,0.866-12.052,0.681c-0.639-0.188-1.889-0.918-2.367-1.852c-0.479-0.933-3.961-14.254-2.545-16.034c2.928-2.295,5.959-2.854,5.959-2.854s9.879,0.005,19.965,6.189c6.773,3.873,9.377,2.136,9.377,2.136l2.032,11.818"></path></g><path style="fill:#2A2826;stroke:#000000;stroke-linecap:round;stroke-linejoin:round;" d="M359.99,435.463l-2.077,0.6l-5.591-2.945c0,0-13.914,4.813-14.771,4.685c-0.858-0.13-3.802-1.946-4.275-2.411c-0.474-0.464-17.835-64.607-17.835-64.607l1.295-13.042c0,0,5.829-4.7,6.238-4.923c0.414-0.228,2.014-0.408,2.014-0.408l-0.068-1.158c0,0,3.777-2.635,4.22-2.749c0.442-0.117,1.168,0.868,1.168,0.868l4.114,13.038c0,0,4.301,2.051,4.496,2.353l8.365,31.095l2.393-0.741L359.99,435.463z"></path><polygon style="fill:#1C1A18;" points="337.724,437.106 333.436,434.878 315.141,368.51 316.557,358.85 "></polygon><path style="fill:#D6C8C0;stroke:#000000;stroke-linecap:round;stroke-linejoin:round;" d="M319.455,369.016c0,0-14.278-2.075-18.964-2.793c-4.687-0.713-9.894-0.104-11.026-0.906c-1.133-0.804-2.688-12.283-2.179-13.032c0.511-0.751,4.364-0.979,10.308,0.496c2.586,0.643,7.752,3.029,11.743,4.584c4.388,1.709,7.554,2.258,7.554,2.258L319.455,369.016z"></path><path style="fill:#2A2826;stroke:#000000;stroke-linecap:round;stroke-linejoin:round;" d="M291.9,362.094c0,0,0.307,0.98,1.178,0.957c0.87-0.019,1.008-0.576,1.008-0.576s-0.494-6.45-0.791-6.992c-0.296-0.548-0.668-0.638-1.169-0.525c-0.497,0.11-1.006,0.575-1.006,0.575L291.9,362.094z"></path><polygon style="opacity:0.2;fill:#FFFFFF;" points="324.637,352.812 323.17,353.106 326.662,365.115 327.99,364.459 "></polygon><polygon style="opacity:0.2;fill:#FFFFFF;" points="338.455,437.212 340.078,436.67 331.155,410.189 "></polygon><polygon style="opacity:0.2;fill:#FFFFFF;" points="349.73,433.558 341.52,403.951 344.564,397.156 339.429,378.859 337.92,377.137 330.203,349.87 329.365,348.914 326.593,350.461 338.291,391.152 335.71,394.767 347.285,434.55 "></polygon><polygon style="opacity:0.2;fill:#FFFFFF;" points="351.744,420.565 350.663,422.729 353.704,433.461 352.622,432.919 349.414,421.998 350.633,419.916 344.393,396.495 345.518,395.849 "></polygon><polyline style="fill:none;stroke:#000000;stroke-linecap:round;stroke-linejoin:round;" points="354.456,434.088 351.213,422.587 352.189,420.919 345.973,397.143 "></polyline><path style="fill:none;stroke:#000000;stroke-linecap:round;stroke-linejoin:round;" d="M343.617,393.524c0,0-3.572-1.064-5.283-3.324"></path><line style="fill:none;stroke:#000000;stroke-linecap:round;stroke-linejoin:round;" x1="324.988" y1="352.41" x2="328.401" y2="364.571"></line><polyline style="fill:none;stroke:#000000;stroke-linecap:round;stroke-linejoin:round;" points="344.963,398.229 339.84,378.634 338.332,376.911 334.282,362.233 "></polyline><polygon style="fill:#C9C0C0;stroke:#000000;stroke-linecap:round;stroke-linejoin:round;" points="349.031,396.695 348.795,395.345 344.694,396.299 345.04,397.621 "></polygon><path style="fill:#2A2826;stroke:#000000;stroke-linecap:round;stroke-linejoin:round;" d="M340.475,381.058c1.665,0.975,5.223,0.631,5.223,0.631s4.252,2.771,4.313,3.459c0.063,0.691-1.544,10.283-1.544,10.283l-3.192,0.834"></path><path style="opacity:0.2;fill:#FFFFFF;" d="M349.462,385.293l-6.717,1.754c0,0,1.446,8.679,1.834,8.813c0.388,0.133,3.472-0.674,3.472-0.674L349.462,385.293z"></path><polygon style="fill:#C9C0C0;stroke:#000000;stroke-linecap:round;stroke-linejoin:round;" points="345.584,394.304 346.904,393.957 345.806,389.305 344.543,389.872 "></polygon><g><path style="fill:#2A2826;stroke:#000000;stroke-linecap:round;stroke-linejoin:round;" d="M322.487,383.112c0,0-2.202,0.575-2.383,0.327c-0.183-0.243-0.952-2.513-1.448-2.618c-0.5-0.105-1.695,0.267-1.695,0.267s-0.654-1.594-0.342-2.204c0.875-0.7,3.576-1.171,4.366-0.613C321.779,378.828,322.487,383.112,322.487,383.112z"></path><g><path style="fill:#2A2826;stroke:#000000;stroke-linecap:round;stroke-linejoin:round;" d="M324.092,388.574c0,0-3.045-2.204-5.547-2.549c-0.75-1.744-3.408-10.339-2.978-12.514c0.435-2.17,3.542-4.451,3.542-4.451l-3.969-0.551c0,0-2.254,0.822-2.455,1.171c-0.203,0.348-1.341,1.173-1.229,5.2c0.111,4.027,3.498,13.376,3.498,13.376s3.314-0.807,4.98,1.286c1.664,2.093,1.837,4.105,1.837,4.105l4.06,0.232C325.832,393.881,324.537,388.927,324.092,388.574z"></path><path style="opacity:0.2;fill:#FFFFFF;" d="M325.154,393.529c-0.332,0.086-3.21-5.981-8.162-6.922c-1.016-2.086-3.353-10.12-3.348-13.708c0-1.44,2.773-3.782,2.773-3.782l-1.355-0.233l-2.307,1.072c0,0-1.59,2.238-1.004,5.379c0.704,3.78,3.406,12.575,3.406,12.575s1.824-0.889,4.089,0.578c2.267,1.465,2.894,4.771,2.894,4.771L325.154,393.529z"></path></g></g><g><path style="fill:#C9C0C0;stroke:#000000;stroke-linecap:round;stroke-linejoin:round;" d="M344.51,417.637c0,0,2.756,3.571,3.297,6.311s-1.521,6.103-3.508,6.151c-1.986,0.049-4.789-1.22-5.412-4.054c-0.623-2.838,0.119-6.973,0.119-6.973s-3.656,1.311-3.765,1.575c-0.107,0.262-0.603,1.744-0.603,1.744l-1.107-1.533l-3.165-0.645l-0.695,0.714l-1.171-3.576c0,0,1.423,0.04,1.737-0.103c0.315-0.139,1.861-1.426,1.861-1.426s2.275,1.05,3.54,0.72c1.266-0.33,2.377-1.03,2.633-1.394c0.26-0.362-4.322-18.334-5.229-19.331c-0.907-0.998-4.256-1.885-4.354-2.038c-0.099-0.149-0.399-1.305-0.399-1.305s2.023,0.998,5.385,0.353c3.359-0.64,4.565-2.78,4.565-2.78l0.852,1.014c0,0-1.373,1.946-2.43,2.635c2.53,9.218,6.263,20.119,6.263,20.119s2.975-0.542,3.55-0.811c0.578-0.268,1.394-1.668,1.583-1.591c0.529,0.217,1.723,4.784,1.723,4.784l-0.645,0.461l-0.873-0.418C348.262,416.241,344.791,416.913,344.51,417.637z"></path><polygon style="fill:#FFFFFF;" points="337.16,419.438 336.591,416.589 334.445,417.15 332.908,416.67 333.908,421.172 "></polygon><path style="fill:#FFFFFF;" d="M345.789,428.825c0,0,1.658-3.785,1.482-4.444c-0.17-0.66-4.779-9.512-4.779-9.512L345.789,428.825z"></path><path style="fill:#2A2826;stroke:#000000;stroke-linecap:round;stroke-linejoin:round;" d="M342.119,426.258c0,0,1.421,1.392,2.943,0.466c1.521-0.928-2.229-7.18-3.063-7.668C341.32,421.175,341.228,424.197,342.119,426.258z"></path></g><g><g><g><path style="fill:#6E6E6E;stroke:#000000;stroke-linecap:round;stroke-linejoin:round;" d="M338.334,390.2l-6.5-24.645l-10.41,2.017c0,0,6.713,25.001,6.906,25.067c0.195,0.066,1.934,1.537,5.799,0.364C338.381,391.719,338.334,390.2,338.334,390.2z"></path><path style="fill:#505050;" d="M335.669,383.372c0,0-1.755,3.633-7.532,5.378c-0.633-2.421-1.035-3.964-1.035-3.964s5.174-1.353,7.527-5.848C335.202,381.14,335.669,383.372,335.669,383.372z"></path></g><path style="opacity:0.8;fill:#FFFFFF;" d="M335.152,391.738c0,0-1.896,0.848-2.422,0.633c-0.527-0.216,0.516-0.723,0.329-2.791c0.214-0.526-4.711-17.115-6.839-19.852c0.135-0.387,2.4-0.273,3.906-1.259c0,0-1.756,3.636,3.721,20.081C334.468,390.414,334.787,391.245,335.152,391.738z"></path><path style="fill:#FFFFFF;" d="M334.521,392.022c0,0,2.608-1.271,2.847-2.158c-1.551-0.535-3.207-0.571-3.207-0.571L334.521,392.022z"></path><g><line style="fill:none;stroke:#000000;stroke-linecap:round;stroke-linejoin:round;" x1="332.806" y1="391.764" x2="327.107" y2="369.967"></line><g><line style="fill:none;stroke:#000000;stroke-linecap:round;stroke-linejoin:round;" x1="329.402" y1="372.895" x2="328.08" y2="373.24"></line><line style="fill:none;stroke:#000000;stroke-linecap:round;stroke-linejoin:round;" x1="328.969" y1="371.244" x2="327.648" y2="371.59"></line><line style="fill:none;stroke:#000000;stroke-linecap:round;stroke-linejoin:round;" x1="328.537" y1="369.593" x2="327.218" y2="369.938"></line></g><g><line style="fill:none;stroke:#000000;stroke-linecap:round;stroke-linejoin:round;" x1="331.676" y1="381.592" x2="330.355" y2="381.937"></line><line style="fill:none;stroke:#000000;stroke-linecap:round;stroke-linejoin:round;" x1="331.244" y1="379.941" x2="329.922" y2="380.285"></line><line style="fill:none;stroke:#000000;stroke-linecap:round;stroke-linejoin:round;" x1="330.813" y1="378.29" x2="329.49" y2="378.636"></line></g><g><line style="fill:none;stroke:#000000;stroke-linecap:round;stroke-linejoin:round;" x1="333.949" y1="390.29" x2="332.629" y2="390.633"></line><line style="fill:none;stroke:#000000;stroke-linecap:round;stroke-linejoin:round;" x1="333.518" y1="388.637" x2="332.197" y2="388.983"></line><line style="fill:none;stroke:#000000;stroke-linecap:round;stroke-linejoin:round;" x1="333.086" y1="386.987" x2="331.766" y2="387.332"></line></g></g></g><g><path style="fill:#C9C0C0;stroke:#000000;stroke-linecap:round;stroke-linejoin:round;" d="M332.377,363.354l0.375,1.434c0,0-0.98,2.55-5.385,3.7c-4.402,1.15-7.044-0.628-7.044-0.628l-0.358-1.143L332.377,363.354z"></path><path style="fill:#6E6E6E;stroke:#000000;stroke-linecap:round;stroke-linejoin:round;" d="M331.432,364.016l-10.458,2.734c0,0,1.672,1.443,6.185,0.264C331.672,365.833,331.432,364.016,331.432,364.016z"></path></g></g><line style="fill:none;stroke:#000000;stroke-linecap:round;stroke-linejoin:round;" x1="338.038" y1="436.968" x2="316.736" y2="357.741"></line><polygon style="opacity:0.2;fill:#FFFFFF;" points="359.684,435.19 357.674,435.598 354.968,417.604 "></polygon></g></g></svg>