<svg xmlns="http://www.w3.org/2000/svg" width="500" height="500" version="1.1"><g id="x9186"><g><g><g><g id="leftXMLID_12_"><g><path style="fill:#6E6E6E;" d="M351.388,217.592c-0.397-0.784-1.481-2.097-1.371-6.29c0.182-6.882,2.865-10.983,2.865-10.983l-2.217-0.428l-2.13-0.745c0,0,0.254,4.894-3.059,10.93c-2.62,4.78-4.531,4.346-4.77,5.227c-0.005,0.017-0.002,0.033-0.005,0.05C344.408,215.208,348.062,216.014,351.388,217.592z"></path><path style="fill:#505050;" d="M347.047,224.259c1.747-5.306,4.228-5.158,4.466-6.039c0.055-0.203-0.006-0.393-0.125-0.628c-3.326-1.578-6.979-2.384-10.686-2.24c-0.147,0.874,1.963,2.053,0.823,7.417c-1.159,5.458-6.326,8.265-6.326,8.265l13.153,3.553C348.353,234.586,345.3,229.56,347.047,224.259z"></path><g><path style="fill:#6E6E6E;" d="M341.946,217.025c0,0,1.526-1.91,1.796-2.034c0.39,0.183,0.577,0.234,0.577,0.234l-2.39,2.858L341.946,217.025z"></path><path style="fill:#6E6E6E;" d="M346.553,216.064c0,0-3.839,3.609-4.544,4.72c-0.015-0.438-0.053-0.803-0.053-0.803s2.432-2.887,4.124-4.162C346.458,215.921,346.553,216.064,346.553,216.064z"></path><path style="fill:#6E6E6E;" d="M349.736,219.129c0,0-0.358-2.419-0.528-2.662c-0.428-0.037-0.616-0.088-0.616-0.088l0.626,3.673L349.736,219.129z"></path><path style="fill:#6E6E6E;" d="M348.721,216.847l-0.268-0.505c-0.386,0.511-2.417,3.732-3.372,4.547c-0.414-1.184-0.547-4.989-0.623-5.626l-0.486,0.302c-0.016,0.169,0.712,6.417,0.839,6.328C344.876,222.033,348.65,217.001,348.721,216.847z"></path><path style="fill:#6E6E6E;" d="M346.239,215.98c0,0,1.501,5.052,1.55,6.364c0.234-0.37,0.45-0.666,0.45-0.666s-0.647-3.719-1.468-5.674C346.395,215.903,346.239,215.98,346.239,215.98z"></path></g><path style="opacity:0.5;fill:#FFFFFF;" d="M340.85,231.876l3.363,0.962c0,0,1.168-10.133,0.776-10.764C344.602,221.444,340.977,231.543,340.85,231.876z"></path></g><g><path style="fill:none;stroke:#000000;stroke-linecap:round;stroke-linejoin:round;" d="M347.047,224.259c1.747-5.306,4.228-5.158,4.466-6.039c0.237-0.881-1.639-1.47-1.496-6.918c0.182-6.882,2.865-10.983,2.865-10.983l-2.217-0.428l-2.13-0.745c0,0,0.254,4.894-3.059,10.93c-2.62,4.78-4.531,4.346-4.77,5.227c-0.237,0.881,1.979,2.003,0.818,7.467c-1.159,5.458-6.326,8.265-6.326,8.265l13.153,3.553C348.353,234.586,345.3,229.56,347.047,224.259z"></path></g></g><g><path style="fill:#2D2D2D;stroke:#000000;stroke-linecap:round;stroke-linejoin:round;" d="M338.81,235.736c-0.005,0.209-0.152,1.533-0.36,1.53c-0.209-0.004-1.627,0.19-1.627,0.19l3.891,5.618c0,0,3.202,0.393,4.108-1.41C342.582,238.487,338.81,235.736,338.81,235.736z"></path><path style="fill:#2D2D2D;stroke:#000000;stroke-linecap:round;stroke-linejoin:round;" d="M337.007,245.33c0,0,0.101,1.183-0.3,1.494c-0.398,0.313-2.371,0.619-2.371,0.619l2.464,4.289c0,0,2.54,0.318,3.603-1.285C339.224,248.396,337.007,245.33,337.007,245.33z"></path><path style="fill:#2D2D2D;stroke:#000000;stroke-linecap:round;stroke-linejoin:round;" d="M334.71,255.001c0,0,0.049,1.378-0.079,1.658c-0.13,0.279-2.398,1.295-2.398,1.295l4.122,5.733c0,0-0.654-1.856-0.31-2.551c0.346-0.694,1.6-0.671,1.6-0.671S336.501,256.533,334.71,255.001z"></path><path style="fill:#3E3E3E;stroke:#000000;stroke-linecap:round;stroke-linejoin:round;" d="M334.336,247.443c0,0,3.244,4.709,3.854,6.921c0.61,2.213,0.475,2.912,0.475,2.912s-0.948,3.357-1.02,3.189c-0.707-1.661-1.099-3.71-4.544-7.476C333.211,251.025,334.336,247.443,334.336,247.443z"></path><polygon style="opacity:0.5;fill:#FFFFFF;" points="337.589,253.572 336.893,257.322 335.541,255.618 336.8,251.732 "></polygon><path style="fill:#3E3E3E;stroke:#000000;stroke-linecap:round;stroke-linejoin:round;" d="M336.861,237.311c0,0-1.865-0.084-1.968,0.098c-0.104,0.183-0.323,4.113-0.061,4.5c0.264,0.386,4.182,6.483,4.606,9.382c0.645-0.246,1.123-0.853,1.123-0.853s1.757-3.2,1.902-3.738C342.302,245.553,339.171,240.034,336.861,237.311z"></path><path style="opacity:0.5;fill:#FFFFFF;" d="M338.951,240.946c0,0,1.647,2.65,1.655,3.203c-0.637,1.481-1.502,4.398-1.502,4.398l-1.072-1.864L338.951,240.946z"></path><path style="fill:#3E3E3E;stroke:#000000;stroke-linecap:round;stroke-linejoin:round;" d="M335.002,230.979c0,0-0.237,0.882,0.074,1.28c0.313,0.4,7.311,7.54,8.907,10.177c1.767-1.099,4.485-5.72,4.599-6.529s-0.423-1.741-0.423-1.741L335.002,230.979z"></path><path style="opacity:0.5;fill:#FFFFFF;" d="M340.696,237.401c0,0,0.404-3.829,0.591-3.937c0.187-0.106,2.087-0.146,2.368,0.561c0.281,0.707-1.588,5.006-1.588,5.006L340.696,237.401z"></path><g><path style="fill:#3E3E3E;stroke:#000000;stroke-linecap:round;stroke-linejoin:round;" d="M285.943,414.175l11.549,3.119c0,0-0.447-7.681,1.186-16.061c1.634-8.379-4.8,14.665-4.641,14.077l-0.014-0.003c9.808-38.036,41.608-148.554,42.309-151.153c-0.096-1.392-4.011-6.334-4.011-6.334l-42.592,157.095c-1.424,5.164,5.868-22.669,3.272-15.214C290.195,407.764,285.943,414.175,285.943,414.175z"></path><path style="opacity:0.5;fill:#FFFFFF;" d="M294.519,405.36c0,0,3.558-13.949,3.627-14.98c0.067-1.032,36.114-129.043,36.114-129.043l0.962,1.1c0,0-31.317,109.337-35.122,123.431c-3.806,14.093-0.938,5.416-0.938,5.416L294.519,405.36z"></path><path style="fill:#505050;stroke:#000000;stroke-linecap:round;stroke-linejoin:round;" d="M297.59,417.32c0,0-1.781-1.374-5.745-2.444c-3.963-1.069-5.999-0.727-5.999-0.727s1.389,10.003-0.115,15.569c-2.662,9.855-8.294,15.978-8.294,15.978s2.152,2.675,5.242,3.51c3.091,0.835,6.297-0.393,6.297-0.393s-1.785-8.126,0.876-17.981C291.354,425.266,297.59,417.32,297.59,417.32z"></path></g></g></g><g><path style="fill:#6E6E6E;" d="M286.265,414.446c0,0,2.197-0.116,5.573,0.797c3.046,0.821,5.307,2.22,5.307,2.22l-0.455,0.665c0,0-2.087-1.313-4.986-2.095c-2.899-0.783-5.373-0.663-5.373-0.663L286.265,414.446z"></path><g><path style="fill:#6E6E6E;" d="M286.534,416.803c0,0,1.686-1.868,1.991-1.982c0.458,0.203,0.678,0.262,0.678,0.262l-2.643,2.791L286.534,416.803z"></path><path style="fill:#6E6E6E;" d="M291.823,416.025c0,0-4.288,3.489-5.057,4.582c-0.037-0.444-0.095-0.814-0.095-0.814s2.689-2.817,4.594-4.035C291.706,415.877,291.823,416.025,291.823,416.025z"></path><path style="fill:#6E6E6E;" d="M295.636,419.261c0,0-0.517-2.463-0.725-2.715c-0.497-0.057-0.717-0.116-0.717-0.116l0.88,3.743L295.636,419.261z"></path><path style="fill:#6E6E6E;" d="M294.364,416.909l-0.331-0.522c-0.425,0.5-2.638,3.673-3.707,4.456c-0.531-1.216-0.846-5.069-0.961-5.716l-0.55,0.284c-0.012,0.17,1.095,6.521,1.238,6.436C290.137,421.993,294.289,417.062,294.364,416.909z"></path><path style="fill:#6E6E6E;" d="M291.456,415.927c0,0,1.95,5.173,2.063,6.504c0.256-0.365,0.491-0.655,0.491-0.655s-0.905-3.789-1.938-5.8C291.633,415.856,291.456,415.927,291.456,415.927z"></path></g></g></g><g><path style="fill:#6E6E6E;stroke:#000000;stroke-linecap:round;stroke-linejoin:round;" d="M351.169,136.676c0,0,6.262-3.599,15.507-0.008c-0.982,2.288-1.805,7.356-1.805,7.356s-8.278-0.413-11.948,1.697C351.717,139.377,351.169,136.676,351.169,136.676z"></path><path style="fill:#FFF3F8;" d="M354.329,144.734c0,0,3.4-1.954,8.824-0.764c0.646-0.372,0.854-1.137,0.854-1.137s-5.203-0.995-10.296,0.64C354.049,144.248,354.329,144.734,354.329,144.734z"></path><path style="fill:#505050;" d="M353.452,141.897c0,0,4.489-1.934,10.123-0.001c1.553-4.231,1.736-5.414,1.736-5.414s-7.131-2.472-13.529,0.451C351.895,139.563,353.452,141.897,353.452,141.897z"></path><path style="fill:#6E6E6E;stroke:#000000;stroke-linecap:round;stroke-linejoin:round;" d="M341.407,135.682c0,0,4.699-4.568,8.558-5.35c1.246,4.167,4.938,16.837,4.938,16.837l-4.777,4.181L341.407,135.682z"></path><polygon style="fill:#FFF3F8;" points="350.636,150.303 354.414,146.945 351.319,136.124 353.405,146.126 349.881,149.552 "></polygon><path style="fill:#505050;" d="M342.49,135.381c0,0,4.01-3.705,7.264-4.605c1.015,3.831,2.43,8.728,2.43,8.728s-2.312-3.087-4.568-2.329c-2.258,0.758-1.236,6.096-1.236,6.096L342.49,135.381z"></path><path style="fill:#6E6E6E;stroke:#000000;stroke-linecap:round;stroke-linejoin:round;" d="M343.46,153.746c0,0-2.909,3.684-2.003,7.758c2.911,0.695,7.54,2.128,7.54,2.128l-0.679,6.565l-2.252,0.578l0.811,3.41l-4.194,2.698c0,0,1.271,4.082,4.48,6.043c1.886-1.588,2.85-2.788,2.85-2.788l3.166,3.134l-0.915,4.405c0,0,4.995,2.443,8.862,2.301c0.5,2.872,0.131,8.975,0.131,8.975l-4.326-0.531c0,0-2.428,1.898-3.375,5.746c-2.891-0.78-6.854-1.303-6.716-1.813s-0.081-4.763-0.986-5.464c-2.732,3.366-12.036,13.165-12.036,13.165l-1.515-0.135c0,0-4.649-7.092-4.7-7.926c-0.046-0.833,0.467-2.063,0.467-2.063l7.042-6.49l-2.055-3.198c1.849-1.781,3.405-2.82,3.405-2.82s-2.66-5.005-2.795-5.862c-3.225,1.135-15.21,7.019-15.21,7.019s-5.665-5.36-5.402-14.773c3.256-0.581,5.294-1.033,5.294-1.033s-1.542-8.806,0.65-15.237c3.552,0.686,13.324,2.321,13.324,2.321s-0.039-6.941,4.981-12.699C340.816,150.023,343.46,153.746,343.46,153.746z"></path><polygon style="fill:#505050;" points="345.99,196.38 351.76,187.678 352.864,188.66 347.071,198.45 "></polygon><path style="fill:#505050;" d="M341.346,201.419c0,0-4.134-4.948-3.733-5.933c0.264-0.643,13.417-13.204,13.417-13.204l-0.593-0.844l-22.27,20.662l4.442,7.357l1.217,0.053L341.346,201.419z"></path><path style="fill:#FFF3F8;" d="M342.292,176.641c0,0-0.036,3.683,4.871,6.787c-0.845,0.593-1.237,1.034-1.237,1.034s-5.431-4.203-4.535-7.518C342.175,176.062,342.292,176.641,342.292,176.641z"></path><polygon style="fill:#FFF3F8;" points="349.047,182.021 350.063,180.791 352.607,183.528 352.575,185.163 "></polygon><path style="fill:#FFF3F8;" d="M352.107,187.909c0,0,3.608,2.342,8.764,2.504c0.176,0.869,0.166,1.413,0.166,1.413s-7.194-0.711-9.298-3.057C351.911,188.129,352.107,187.909,352.107,187.909z"></path><polygon style="fill:#FFF3F8;" points="348.459,163.941 347.964,169.827 345.647,170.295 346.282,174.023 335.722,180.201 345.067,173.969 344.418,169.28 346.442,168.869 347.089,163.436 "></polygon><path style="fill:#FFF3F8;" d="M342.654,154.029c0,0-2.771,4.177-1.616,7.498c-0.893-0.241-0.893-0.241-0.893-0.241s-1.051-3.704,1.958-8.773C342.697,153.357,342.654,154.029,342.654,154.029z"></path><path style="fill:#505050;" d="M332.927,160.157c0,0-0.674-5.106,4.497-12.602c1.104,0.982,1.104,0.982,1.104,0.982s-4.488,6.995-3.643,11.464C333.701,159.82,332.927,160.157,332.927,160.157z"></path><path style="fill:#505050;" d="M319.846,158.952c0,0-1.473,8.493,0.103,13.296c4.643-1.482,13.326-3.241,13.326-3.241s-3.35-0.767-2.883-3.514c0.469-2.747,1.784-4.58,1.784-4.58L319.846,158.952z"></path><path style="fill:#505050;" d="M314.881,174.3c0,0-0.824,8.122,4.931,12.138c4.71-1.738,16.995-7.722,16.995-7.722l-3.066-8.899L314.881,174.3z"></path><path style="fill:#6E6E6E;stroke:#000000;stroke-linecap:round;stroke-linejoin:round;" d="M313.342,122.083c0.4-0.804,5.076-8.661,13.481-12.775c3.037,4.287,25.903,44.568,25.903,44.568l-4.929,5.418L313.342,122.083z"></path><polygon style="fill:#FFF3F8;" points="345.683,142.809 352.173,153.728 351.122,155.085 "></polygon><path style="fill:#505050;" d="M327.151,111.13c0,0-8.405,5.8-10.651,11.077c2.661,3.317,14.438,15.937,14.438,15.937s-1.772-4.583,1.255-7.185c3.03-2.602,5.556-2.33,5.556-2.33L327.151,111.13z"></path><path style="fill:#6E6E6E;stroke:#000000;stroke-linecap:round;stroke-linejoin:round;" d="M376.723,127.161l4.063,1.828l-4.002,10.774c0,0,2.397,1.924,3.437,3.481c1.309-1.47,2.311-2.477,2.311-2.477l3.699,3.188l2.003-2.013c1.327-0.188,5.284,7.446,5.284,7.446l-15.168,11.589l-3.625-4.809l1.708-2.274c0,0-3.842-4.685-7.596-4.97C371.362,139.576,376.723,127.161,376.723,127.161z"></path><path style="fill:#FFF3F8;" d="M378.507,160.565l-2.988-4.638l1.64-2.02c0,0-4.622-4.667-7.01-5.449c0.311-1.147,0.448-1.657,0.448-1.657s6.196,4.408,7.196,5.773c1.707-2.274,4.102-3.543,4.102-3.543l-5.126,6.824l2.652,3.862L378.507,160.565z"></path><path style="fill:#505050;" d="M388.89,143.396l-6.735,7.21c0,0,2.48,0.943,2.843,2.136c0.361,1.192,0.051,2.339,0.051,2.339l7.702-5.717C392.75,149.364,390.815,144.874,388.89,143.396z"></path><g><path style="fill:#6E6E6E;stroke:#000000;stroke-linecap:round;stroke-linejoin:round;" d="M367.708,154.457l-6.631-1.79l10.856-61.819c0,0,8.573,0.673,15.209,4.473C384.17,103.637,367.708,154.457,367.708,154.457z"></path><path style="fill:#505050;" d="M374.006,93.14l-6.377,34.256c0,0,2.083-5.183,6.276-5.008c4.193,0.174,3.949-0.438,3.949-0.438l8.357-25.376C386.212,96.573,380.274,93.738,374.006,93.14z"></path></g></g></g></g></svg>