<svg xmlns="http://www.w3.org/2000/svg" width="500" height="500" version="1.1"><g id="x9188"><g><path style="fill:#34323D;stroke:#000000;stroke-linecap:round;stroke-linejoin:round;" d="M252.36,413.1c0,0,1.794,2.334,5.167,1.474c3.374-0.861,8.349-9.516,8.349-9.516l5.282-3.545l4.056,4.154c0,0-9.163,15.715-15.395,17.102c-6.23,1.394-10.157-5.386-10.157-5.386L252.36,413.1z"></path><g><g><radialGradient id="leftXMLID_139_" cx="304.0254" cy="481.7207" r="13.94" gradientTransform="matrix(-0.1914 -0.7495 0.7495 -0.1914 -16.3414 749.2958)" gradientUnits="userSpaceOnUse"><stop offset="0" style="stop-color:#FFFEFC"></stop><stop offset="1" style="stop-color:#DDDEFA"></stop></radialGradient><path style="fill:url(#leftXMLID_139_);stroke:#000000;stroke-linecap:round;stroke-linejoin:round;" d="M287.213,420.814c0,0,4.284,0.955,5.135,1.733c0.848,0.781,1.853,2.372,2.558,2.592c-1.136,0.638-2.881,1.034-2.881,1.034s-0.283,1.621-0.739,1.983c-1.607-0.035-2.489-0.359-2.489-0.359s-1.958,2.296-2.438,2.568c-0.479,0.271-2.452-0.622-2.452-0.622s-1.379,1.25-1.964,1.497c-1.175-0.299-1.647-1.175-1.647-1.175s-2.08,1.63-4.266,0.492c0.567-1.492,0.711-5.221,4.897-7.59C284.46,421.169,287.213,420.814,287.213,420.814z"></path><path style="fill:#DDDDFF;" d="M277.155,428.124c0,0,0.58-0.846,1.567-0.5s0.546,1.358,1.039,1.332c0.493-0.027,2.108-0.736,2.644-1.373c0.537-0.637,1.433,0.927,1.716,0.857c0.281-0.071,0.58-0.845,1.263-0.92c0.68-0.072,2.161,0.248,2.647-0.176c0.492-0.427,0.371-1.292,0.371-1.292l1.271,1.07c0,0,0.892-0.028,1.125-0.286c0.233-0.259-0.876-1.473-0.785-1.896c0.094-0.421,1.642-0.218,1.827-0.665c0.186-0.446-0.334-1.312-0.334-1.312s-1.818-2.032-4.536-1.735c-3.232,0.624-6.345,2.118-6.345,2.118S277.849,426.151,277.155,428.124z"></path><g><path style="fill:none;stroke:#000000;stroke-linecap:round;stroke-linejoin:round;" d="M284.294,429.856c0,0-1.069-0.079-1.883-1.318"></path><path style="fill:none;stroke:#000000;stroke-linecap:round;stroke-linejoin:round;" d="M288.547,428.021c0,0,0.723-0.486,0.707-1.329"></path><path style="fill:none;stroke:#000000;stroke-linecap:round;stroke-linejoin:round;" d="M292.154,426.093l-1.031,0.262c0,0-1.326-0.508-2.214-1.828"></path><path style="fill:none;stroke:#000000;stroke-linecap:round;stroke-linejoin:round;" d="M281.716,425.862c-0.036-0.141-0.385-1.896,1.133-3.382"></path><path style="fill:none;stroke:#000000;stroke-linecap:round;stroke-linejoin:round;" d="M279.008,426.005c0,0,0.965-1.893,3.033-2.971"></path><path style="fill:none;stroke:#000000;stroke-linecap:round;stroke-linejoin:round;" d="M285.201,421.527c0,0,2.671-0.48,4.168,1.283"></path><path style="fill:none;stroke:#000000;stroke-linecap:round;stroke-linejoin:round;" d="M280.416,429.915c0,0,0.514-0.53,0.832-0.659"></path></g></g><path style="fill:#34323D;stroke:#000000;stroke-linecap:round;stroke-linejoin:round;" d="M288.284,416.6c0,0-4.608,0.132-4.745,0.964s1.006,1.988,1.006,1.988s2.547,0.198,2.963,1.439c-1.796-0.193-3.844,0.382-4.344,1.357c-1.556,0.549-2.237,0.62-2.237,0.62s0.775-2.242,1.548-2.541c-0.414-0.641-0.934-1.704-1.429-1.878c-0.494-0.175-1.766-1.448-1.442-2.33c-0.542-0.557-3.028-0.918-3.028-0.918s4.619-2.428,6.273-2.004C284.505,413.724,288.284,416.6,288.284,416.6z"></path></g><g><path style="fill:#555466;stroke:#000000;stroke-linecap:round;stroke-linejoin:round;" d="M277.535,380.365c-1.62,4.603-8.794,5.436-8.794,5.436l7.561,29.606c0,0,6.693-2.706,10.323,0.562c3.628,3.262,3.686,5.841,3.686,5.841s25.31-13.446,26.949-14.064c1.637-0.618,110.618-34.233,110.618-34.233l-6.034-23.611c0,0-111.749,22.75-113.485,22.99c-1.733,0.242-30.393,0.573-30.393,0.573S279.151,375.759,277.535,380.365z"></path><path style="fill:#E5CE95;" d="M281.41,376.753c0.137,1.933-0.733,3.444-0.744,3.467l0.997,0.59c0.038-0.066,0.874-1.517,0.914-3.504l22.101,0.574l0.068,0.002l0.064-0.014L410.22,356.27c0.794,1.757,3.15,6.04,7.642,6.945l0.01,0.035c-3.876,3.258-3.49,8.893-3.329,10.27l-102.783,31.56l-0.063,0.018l-0.059,0.034l-19.122,11.103c-0.985-1.725-2.415-2.6-2.479-2.639l-0.592,0.998c0.02,0.013,1.508,0.922,2.315,2.685l0.268,0.581c-0.001,0.002,0.549-0.32,0.549-0.32l19.589-11.369l111.911-34.364l0.529-0.161l-4.732-18.539l-0.544,0.112l-114.685,23.5l-22.64-0.588c0,0-0.64-0.014-0.637-0.018L281.41,376.753z M420.672,371.638l2.502-0.901l0.032,0.122L420.672,371.638z"></path></g><path style="fill:#34323D;stroke:#000000;stroke-linecap:round;stroke-linejoin:round;" d="M244.515,401.132c0,0,3.449-4.474,2.499-6.626c-0.95-2.152-2.693-1.555-2.693-1.555s4.346-5.256,5.938-6.062c1.589-0.804,15.109,1.331,15.109,1.331l6.403,4.753l-10.416,8.448c0,0-0.472,9.103-7.685,11.342C247.604,409.322,244.515,401.132,244.515,401.132z"></path><g><path style="fill:#1C1A25;stroke:#000000;stroke-linecap:round;stroke-linejoin:round;" d="M194.518,414.562c-0.487,1.854-0.029,4.149,0.265,5.289c0.288,1.14,0.988,3.377,2.302,4.768c10.728-5.935,42.397-13.222,42.397-13.222l-1.419-5.561C238.064,405.836,206.776,414.627,194.518,414.562z"></path><g><path style="fill:#AF9B76;stroke:#000000;stroke-linecap:round;stroke-linejoin:round;" d="M196.208,419.486c0,0,1.049,3.326,2.58,4.633c1.169-0.5,3.344-1.754,3.344-1.754s-1.795-2.335-2.178-3.836c-0.382-1.498,0.072-4.409,0.072-4.409s-2.509-0.06-3.774,0.067C195.533,416.065,196.208,419.486,196.208,419.486z"></path><path style="fill:#AF9B76;stroke:#000000;stroke-linecap:round;stroke-linejoin:round;" d="M201.362,418.171c0,0,1.114,2.409,2.223,3.624l1.237-0.616c0,0-1.252-1.777-1.683-3.462c-0.431-1.689-0.181-3.845-0.181-3.845l-1.385,0.052C201.183,415.521,201.362,418.171,201.362,418.171z"></path></g></g><g><path style="fill:#C4AC80;stroke:#000000;stroke-linecap:round;stroke-linejoin:round;" d="M264.034,391.405c0,0,1.383-0.651,2.954,1.99c2.431-1.817,5.139-4.505,5.139-4.505s-1.485-3.862-4.598-4.514C264.431,388.061,264.034,391.405,264.034,391.405z"></path><g><path style="fill:#E5CE95;stroke:#000000;stroke-linecap:round;stroke-linejoin:round;" d="M251.92,402.384c0.221-0.099-0.562-3.949,3.597-4.86c4.159-0.912,6.1,2.584,6.1,2.584s6.652-15.771,6.532-16.238c-0.589-0.547-2.993-0.981-5.255-0.257c-2.26,0.729-3.615,1.474-5.929,0.817c-2.313-0.659-2.416-2.429-4.586-2.124c-2.166,0.305-3.679,5.13-5.171,6.511c-1.494,1.379-2.842,3.52-2.887,4.135c1.668-1.877,4.707-3.651,5.83-2.189c1.121,1.458-4.184,10.198-4.136,10.384C246.062,401.336,248.56,403.89,251.92,402.384z"></path><path style="fill:#C4AC80;" d="M245.403,391.323c0.28-0.072,5.498-7.393,6.505-7.748c1.006-0.356,5.192,1.967,5.192,1.967l8.823,1.34l-1.429,5.354l-1.9,4.277c0,0-4.921-4.431-7.406-3.997c-2.485,0.435-5.083,1.2-5.083,1.2s1.382-2.602,0.241-3.356C248.065,388.847,245.403,391.323,245.403,391.323z"></path><path style="fill:#FFFCD4;" d="M261.621,384.487c0,0,3.868-0.488,5.493,1.194c-0.161,0.537-0.347,0.984-0.347,0.984L261.621,384.487z"></path><path style="fill:#FFFCD4;" d="M248.362,401.744c0,0,1.378-5.477,4.636-6.471c5.924-1.813,9.27,1.125,9.27,1.125s-3.335-5.237-8.348-4.158C248.906,393.321,248.362,401.744,248.362,401.744z"></path><path style="fill:#AF9B76;" d="M247.856,389.6c0,0,1.708-0.737,2.748,0.594c0.255-0.164,0.976-1.646,0.175-2.04C249.981,387.76,247.856,389.6,247.856,389.6z"></path><path style="fill:#AF9B76;" d="M264.495,392.236l2.066-4.819c0,0-0.576-2.246-4.071-2.254c-1.875-0.002-4.096,1.146-3.951,2.106c0.145,0.962,3.76,1.436,4.539,2.534C263.857,390.903,264.495,392.236,264.495,392.236z"></path><path style="fill:#FFFCD4;" d="M249.39,387.01c0,0,1.364-4.04,3.03-4.162c1.662-0.128,2.893,1.951,4.679,2.298c1.782,0.341,6.186-0.785,9.155,1.852c-2.043-0.578-7.745-1.018-9.646-1.429c-1.902-0.414-3.832-1.715-4.558-1.43C251.326,384.421,249.39,387.01,249.39,387.01z"></path><path style="fill:none;stroke:#000000;stroke-linecap:round;stroke-linejoin:round;" d="M258.878,384.689c0.245-0.016,7.081-0.013,8.021,2.491"></path><path style="fill:none;stroke:#000000;stroke-linecap:round;stroke-linejoin:round;" d="M248.338,401.451c0,0,0.552-6.432,6.201-7.372c6.175-1.026,7.705,2.624,7.705,2.624"></path></g><g><path style="fill:#E5CE95;stroke:#000000;stroke-linecap:round;stroke-linejoin:round;" d="M253.354,415.041c0,0,2.601,3.53,6.014,1.656c3.412-1.868,5.257-8.325,6.028-8.822s4.07-2.437,5.618-2.234c1.984-1.604,5.845-3.688,5.845-3.688s-3.081-1.507-2.274-4.607c0.805-3.101,3.603-6.209,3.603-6.209s7.323-17.437,6.574-17.248c-0.751,0.19-5.724-0.137-8.649,0.913c0,0-0.091,5.378-2.643,11.019c-3.062,6.771-10.189,6.725-13.216,15.983c1.504,0.813,4.066,1.857,2.817,5.17c-1.251,3.312-4.503,4.642-7.065,3.601c-2.562-1.043-4.646-4.904-2.666-8.103c-3.265-0.663-5.959-0.673-6.526-0.928c-0.563-0.254-6.778-4.658-13.175-3.523c-6.398,1.134-10.276,3.523-10.276,3.523s5.408,1.294,9.24,4.926c5.396,5.106,6.676,7.774,7.313,8.312C240.552,415.314,253.354,415.041,253.354,415.041z"></path><path style="fill:#C4AC80;" d="M270.848,405.384c-0.259-0.235-2.136-0.551-2.28-1.114c-0.143-0.563-0.125-1.665-0.481-3.071c-0.36-1.404-1.133-3.899-2.174-4.333c0.127-1.332,2.082-4.225,2.478-4.626c0.396-0.4,4.653-2.885,6.893-10.142c0.893-4.32,1.089-7.064,1.089-7.064s4.64-0.986,6.728-0.619c-0.812,1.503-1.48,2.139-1.48,2.139l-1.006,7.276l-7.574,9.419l3.421-0.674c0,0-2.657,3.674-2.434,5.711c0.222,2.04,2.036,3.672,2.036,3.672L270.848,405.384z"></path><path style="fill:#FFFCD4;" d="M239.387,412.321c0,0-6.216-9.494-12.416-11.103c4.813,0.866,7.187,1.957,8.865,4.624C237.514,408.506,239.387,412.321,239.387,412.321z"></path><path style="fill:#FFFCD4;" d="M262.576,401.907c0,0-1.221-0.485-1.293-0.767c-0.073-0.279,1.842-1.766,2.196-1.56C263.831,399.791,262.576,401.907,262.576,401.907z"></path><path style="fill:#FFFCD4;" d="M264.275,404.267c0,0-0.992-1.541-0.806-1.988c0.186-0.446,0.949-2.141,1.444-1.767C265.408,400.886,265.189,403.935,264.275,404.267z"></path><path style="fill:#FFFCD4;" d="M276.163,380.077c0,0,0.47-4.41,0.772-4.791c0.304-0.376,3.913-0.697,3.8,0.027C280.619,376.04,276.163,380.077,276.163,380.077z"></path><path style="fill:#AF9B76;" d="M255.584,410.879c0,0,1.319,0.86,3.475,0.31c2.154-0.552,4.438-3.331,4.018-3.022c-0.421,0.309-0.358,3.685-3.074,4.377C257.285,413.239,255.584,410.879,255.584,410.879z"></path><path style="fill:#AF9B76;" d="M275.174,402.383c0,0-2.495-1.159-2.459-3.363c0.036-2.207,1.574-4.393,1.502-4.676c-0.07-0.278-4.261,1.688-4.842,2.934c-0.577,1.244-0.453,2.908-0.287,3.167C269.254,400.702,271.021,402.545,275.174,402.383z"></path><path style="fill:none;stroke:#000000;stroke-linecap:round;stroke-linejoin:round;" d="M252.308,405.077c0,0-2.691,1.386-5.699,0.158c-3.007-1.227-7.834-4.854-12.181-4.322c-5.225,0.636-6.942,2.119-6.942,2.119"></path><path style="fill:none;stroke:#000000;stroke-linecap:round;stroke-linejoin:round;" d="M252.563,406.66c0,0-2.623,1.354-5.733,0.415c-3.407-1.024-8.401-5.307-12.747-4.779c-3.074,0.374-4.43,0.866-5.443,1.35"></path><path style="fill:none;stroke:#000000;stroke-linecap:round;stroke-linejoin:round;" d="M262.659,402.885c0,0,0.81-3.865,3.253-6.02c2.444-2.153,6.276-4.861,6.956-6.365"></path></g><g><path style="fill:#E5CE95;stroke:#000000;stroke-linecap:round;stroke-linejoin:round;" d="M256.815,431.72c0,0,1.067,2.624,1.378,3.443c-0.701,0.377-1.123,0.286-1.123,0.286s-6.529-1.328-8.99-5.888c-2.462-4.563-4.564-12.406-13.738-13.159c1.563-1.696,10.701-8.121,19.041-4.761c0.033,1.287-0.722,5.373,1.726,7.143c2.448,1.771,5.757,1.824,8.392-1.144c2.636-2.968,5.494-12.881,11.674-15.258c4.494-1.545,10.096,1.083,12.221,0.974c0.494-0.027,3.655-0.936,2.821-3.416c-0.833-2.482-1.913-2.805-1.913-2.805s3.77-0.864,5.438-0.592c1.666,0.274,8.995,2.396,11.606,4.024c-3.424,0.273-7.859-0.291-10.421,3.358c-2.563,3.648-1.831,7.821-2.254,8.76c-0.513,1.127-2.004,2.308-3.722,1.448c-1.921-0.962-5.825-1.973-7.722-1.32c-1.898,0.648-2.582,1.09-4.674,3.587c-0.385,2.795-1.117,10.866-8.159,14.559C261.355,434.652,256.815,431.72,256.815,431.72z"></path><path style="fill:#C4AC80;" d="M292.238,405.379l-0.149,7.756c0,0-1.026,1.193-2.593,0.795c-1.563-0.398-4.229-1.449-6.482-1.938c1.091-0.942,1.085-2.006-0.519-3.595c-1.602-1.587-4.156-5.855-4.156-5.855s5.161-0.118,8.358,1.46c3.195,1.577,5.896-2.439,2.56-6.644c2.971-0.358,7.575,1.524,7.575,1.524L292.238,405.379z"></path><path style="fill:#FFFCD4;" d="M246.723,425.017c0,0-3.115-8.285-10.46-8.906c5.439-0.589,7.294,0.035,8.452,1.835C245.875,419.743,246.723,425.017,246.723,425.017z"></path><path style="fill:#FFFCD4;" d="M268.792,420.779c0,0-3.184,5.902-8.271,6.305c-5.088,0.399-6.771-3.461-7.195-3.953c1.444,2.927,3.328,8.733,9.397,8.28C268.795,430.958,268.792,420.779,268.792,420.779z"></path><path style="fill:#AF9B76;" d="M287.327,412.854c0,0,0.396-0.402,0.135-1.034c-0.263-0.631-2.379-1.887-2.379-1.887s3.656-0.534,4.771-2.814c1.113-2.282,3.06-7.17,0.395-9.782c1.757-0.547,3.376-0.463,3.847-0.184c0.471,0.28,9.678,3.117,9.678,3.117s-5.309,0.057-8.064,2.158s-3.199,7.804-3.344,9.969C291.88,413.619,291.438,414.497,287.327,412.854z"></path><path style="fill:#FFFCD4;" d="M288.715,409.304c0,0-2.246,0.972-5.422-0.909c0.359,1.406,3.083,2.307,4.325,2.089c1.241-0.218,3.022-0.671,3.456-3.276C290.165,408.335,288.715,409.304,288.715,409.304z"></path><path style="fill:#AF9B76;" d="M257.464,434.648c0,0-4.159-1.431-4.869-2.646c1.286-0.828,3.258-0.931,3.258-0.931L257.464,434.648z"></path><path style="fill:#AF9B76;" d="M252.967,412.348c0,0-0.875,3.614,2.52,6.742c3.393,3.121,7.925-0.229,8.971-1.994c1.195-2.013,3.719-6.937,4.092-7.429c-0.692,2.367-1.135,7.672-1.38,10.23c-0.245,2.558-1.708,5.427-6.466,5.941C255.945,426.356,250.8,419.886,252.967,412.348z"></path><path style="fill:#E5CE95;stroke:#000000;stroke-linecap:round;stroke-linejoin:round;" d="M235.923,415.432c0,0,4.729-1.805,7-1.252"></path><path style="fill:none;stroke:#000000;stroke-linecap:round;stroke-linejoin:round;" d="M244.892,414.34c0,0,2.674,0.316,5.654,4.943c2.979,4.631,7.958,9.281,12.792,6.849s5.969-10.24,7.722-12.752c1.755-2.511,4.814-6.16,5.8-6.472c3.45-1.079,10.33,5.282,13.482,0.951c2.038-2.804,1.411-5.42,2.472-5.956c1.062-0.534,3.605-1.517,7.345-0.94"></path></g><g><path style="fill:#E5CE95;stroke:#000000;stroke-linecap:round;stroke-linejoin:round;" d="M281.618,376.553c0.046,3.053-0.645,5.819-1.045,6.855c-0.402,1.034-6.958,9.493-6.958,9.493c0.188-0.048,10.761-2.68,13.517-4.647c2.757-1.969,6.508-8.647,7.179-15.139c-4.002,0.221-10.145,0.657-10.145,0.657S282.53,374.922,281.618,376.553z"></path><path style="fill:#C4AC80;" d="M274.884,391.879c0,0,5.966-7.91,6.149-8.358c0.186-0.445,0.601-6.638,1.045-6.851c0.446-0.216,8.548-2.615,8.548-2.615s-5.416,14.092-5.767,14.281C284.508,388.524,276.34,392.106,274.884,391.879z"></path><path style="fill:#FFFCD4;" d="M281.242,382.771c0,0,0.795-5.095,0.836-6.102c1.072-1.273,2.145-2.548,2.145-2.548l7.2-0.336c0,0-7.559,3.625-8.282,4.308S281.147,382.796,281.242,382.771z"></path><path style="fill:#AF9B76;" d="M276.41,391.59c0,0,7.016-3.389,7.789-3.885c0.771-0.498,2.469-7.917,5.224-10.415c1.576,1.093,2.499,2.754,2.499,2.754s-1.801,5.848-4.957,7.95C283.811,390.099,276.41,391.59,276.41,391.59z"></path><g><path style="fill:none;stroke:#000000;stroke-linecap:round;stroke-linejoin:round;" d="M274.35,392.646c0,0,7.266-3.85,9.747-4.55"></path><path style="fill:none;stroke:#000000;stroke-linecap:round;stroke-linejoin:round;" d="M284.922,387.154c0,0,1.469-6.229,3.846-9.434"></path></g></g></g><g><linearGradient id="leftXMLID_140_" gradientUnits="userSpaceOnUse" x1="365.7051" y1="511.7998" x2="365.8624" y2="514.0245" gradientTransform="matrix(-0.2474 -0.9689 0.9689 -0.2474 -90.2963 849.1471)"><stop offset="0" style="stop-color:#FFFEFC"></stop><stop offset="1" style="stop-color:#E4EAFA"></stop></linearGradient><path style="fill:url(#leftXMLID_140_);stroke:#000000;stroke-linecap:round;stroke-linejoin:round;" d="M317.275,368.333l-3.728-1.695l-0.665,0.717c0,0,2.906,2.202,4.129,2.289C317.231,369.14,317.275,368.333,317.275,368.333z"></path><linearGradient id="leftXMLID_141_" gradientUnits="userSpaceOnUse" x1="368.3525" y1="495.8936" x2="368.5079" y2="498.0907" gradientTransform="matrix(-0.2474 -0.9689 0.9689 -0.2474 -90.2963 849.1471)"><stop offset="0" style="stop-color:#FFFEFC"></stop><stop offset="1" style="stop-color:#E4EAFA"></stop></linearGradient><path style="fill:url(#leftXMLID_141_);stroke:#000000;stroke-linecap:round;stroke-linejoin:round;" d="M297.599,371.009c0.235-0.058,2.864-1.679,3.261-2.279c-2.05,0.175-3.668,0.489-3.668,0.489L297.599,371.009z"></path><linearGradient id="leftXMLID_142_" gradientUnits="userSpaceOnUse" x1="367.043" y1="503.9824" x2="367.9438" y2="516.7205" gradientTransform="matrix(-0.2474 -0.9689 0.9689 -0.2474 -90.2963 849.1471)"><stop offset="0" style="stop-color:#FFFEFC"></stop><stop offset="1" style="stop-color:#E4EAFA"></stop></linearGradient><path style="fill:url(#leftXMLID_142_);stroke:#000000;stroke-linecap:round;stroke-linejoin:round;" d="M298.303,371.029c0,0-0.616-1.239-0.265-1.43c0.35-0.191,11.063-3.773,15.292-2.059c1.478-0.079,3.855-0.334,4.21,0.071c0.353,0.408,0.299,0.974,0.299,0.974s0.387,0.149,0.527,0.114c0.14-0.035,0.96-0.542,0.486-1.222c-0.473-0.678-1.485-1.916-5.199-1.217c-2.95-0.993-9.034-0.789-17.202,2.793c-0.113,0.929,0.398,2.144,0.398,2.144L298.303,371.029z"></path><linearGradient id="leftXMLID_143_" gradientUnits="userSpaceOnUse" x1="362.6641" y1="516.5654" x2="362.806" y2="518.5729" gradientTransform="matrix(-0.2474 -0.9689 0.9689 -0.2474 -90.2963 849.1471)"><stop offset="0" style="stop-color:#FFFEFC"></stop><stop offset="1" style="stop-color:#E4EAFA"></stop></linearGradient><path style="fill:url(#leftXMLID_143_);stroke:#000000;stroke-linecap:round;stroke-linejoin:round;" d="M318.794,369.589c0,0,3.257-0.533,3.375-0.264c0.119,0.27,0.189,0.553,0.238,0.935c-0.291,0.029-3.187,0.618-3.327,0.653C318.941,370.949,318.794,369.589,318.794,369.589z"></path><linearGradient id="leftXMLID_144_" gradientUnits="userSpaceOnUse" x1="363.6377" y1="514.2842" x2="363.7279" y2="515.5594" gradientTransform="matrix(-0.2474 -0.9689 0.9689 -0.2474 -90.2963 849.1471)"><stop offset="0" style="stop-color:#FFFEFC"></stop><stop offset="1" style="stop-color:#E4EAFA"></stop></linearGradient><path style="fill:url(#leftXMLID_144_);stroke:#000000;stroke-linecap:round;stroke-linejoin:round;" d="M317.812,367.894c0.151,0.023,1.947,2.149,1.62,2.63c-0.327,0.483-0.313,0.729-0.795,0.603c-0.48-0.127-2.051-2.171-2.054-2.571C316.581,368.159,317.446,367.835,317.812,367.894z"></path></g><g><path style="fill:#E5CE95;stroke:#000000;stroke-linecap:round;stroke-linejoin:round;" d="M292.909,380.392c-0.188,0.046-2.591,0.793-3.415-1.125c-0.822-1.917,0.225-4.847,1.132-5.212c0.904-0.364,1.732-0.243,1.732-0.243s-0.478-1.874,1.147-2.553c1.62-0.685,4.87-1.246,6.054,1.047c1.185,2.292,0.203,2.874,0.203,2.874s1.98-0.838,2.79,1.55c0.811,2.388-1.512,4.247-2.745,4.362c0.101,1.172-1.063,4.395-4.14,3.851C291.975,384.288,292.909,380.392,292.909,380.392z"></path><path style="fill:#AF9B76;" d="M299.204,380.812c0,0-1.822-0.233-2.896-2.088c-0.49-1.404-0.257-1.797-0.257-1.797s2.185-2.123,2.584-2.123c0.397-0.002,0.955,0.487,0.932,0.656c0.696-0.01,1.96-0.663,2.682,1.515C302.773,378.898,301.642,380.589,299.204,380.812z"></path><g><linearGradient id="leftXMLID_145_" gradientUnits="userSpaceOnUse" x1="360.0254" y1="488.3242" x2="360.1097" y2="489.5168" gradientTransform="matrix(-0.2474 -0.9689 0.9689 -0.2474 -90.2963 849.1471)"><stop offset="0" style="stop-color:#FFFEFC"></stop><stop offset="1" style="stop-color:#E4EAFA"></stop></linearGradient><path style="fill:url(#leftXMLID_145_);stroke:#000000;stroke-linecap:round;stroke-linejoin:round;" d="M292.979,380.271c0.116-0.061,0.977-0.348,1.664-1.555"></path><linearGradient id="leftXMLID_146_" gradientUnits="userSpaceOnUse" x1="358.9121" y1="492.0576" x2="358.9766" y2="492.9693" gradientTransform="matrix(-0.2474 -0.9689 0.9689 -0.2474 -90.2963 849.1471)"><stop offset="0" style="stop-color:#FFFEFC"></stop><stop offset="1" style="stop-color:#E4EAFA"></stop></linearGradient><path style="fill:url(#leftXMLID_146_);stroke:#000000;stroke-linecap:round;stroke-linejoin:round;" d="M298.732,380.268c0,0-1.291-0.103-2.076-1.232"></path><linearGradient id="leftXMLID_147_" gradientUnits="userSpaceOnUse" x1="362.2646" y1="490.0508" x2="362.3154" y2="490.7678" gradientTransform="matrix(-0.2474 -0.9689 0.9689 -0.2474 -90.2963 849.1471)"><stop offset="0" style="stop-color:#FFFEFC"></stop><stop offset="1" style="stop-color:#E4EAFA"></stop></linearGradient><path style="fill:url(#leftXMLID_147_);stroke:#000000;stroke-linecap:round;stroke-linejoin:round;" d="M295.758,377.47c-0.096,0.023-0.94-0.16-1.688-1.135"></path><path d="M294.848,379.13c0,0,0.659,0.494,1.013,0.573c0.353,0.075,1.483-0.313,1.45-0.437c0,0-0.288-0.492-0.331-0.913c-0.04-0.423,0.298-1.175-0.03-1.289c-0.771,0.229-1.385,0.053-1.385,0.053s-0.135,0.898-0.261,1.198c-0.121,0.297-0.686-0.092-0.74,0.09C294.512,378.583,294.848,379.13,294.848,379.13z"></path><linearGradient id="leftXMLID_148_" gradientUnits="userSpaceOnUse" x1="361.7881" y1="493.1895" x2="361.9105" y2="494.92" gradientTransform="matrix(-0.2474 -0.9689 0.9689 -0.2474 -90.2963 849.1471)"><stop offset="0" style="stop-color:#FFFEFC"></stop><stop offset="1" style="stop-color:#E4EAFA"></stop></linearGradient><path style="fill:url(#leftXMLID_148_);stroke:#000000;stroke-linecap:round;stroke-linejoin:round;" d="M296.819,377.462c0,0,1.679-0.33,2.57-1.788"></path></g><path style="fill:#FFFCD4;" d="M295.313,373.653c0.041,0.158,0.599,2.079,0.442,2.249c-0.155,0.175-0.781,0.466-0.982,0.453c-0.204-0.016-1.905-1.343-1.716-2.289c0.189-0.949,2.391-1.577,2.532-1.281c0.144,0.297-0.213,0.852-0.213,0.852"></path><path style="fill:#FFFCD4;" d="M294.19,378.368c-0.004,0.376-0.412,0.867-1.762,0.915c-1.354,0.045-1.824-0.101-2.005-0.555c-0.182-0.452-0.019-2.923,0.421-3.033C291.284,375.583,294.2,377.232,294.19,378.368z"></path><path style="fill:#FFFCD4;" d="M293.965,380.487c0,0,0.406-0.236,0.646-0.332c0.242-0.097,0.153-0.704,0.443-0.743c0.288-0.043,0.798,0.127,0.88,0.838c0.081,0.712-0.018,2.666-0.604,2.849C294.744,383.278,293.82,381.355,293.965,380.487z"></path></g><g><path style="fill:#E5CE95;stroke:#000000;stroke-linecap:round;stroke-linejoin:round;" d="M421.063,367.151c-0.189,0.049-2.656,0.547-2.459,2.625c0.199,2.077,2.522,4.145,3.494,4.031c0.965-0.115,1.636-0.618,1.636-0.618s0.478,1.874,2.229,1.692c1.751-0.179,4.872-1.244,4.813-3.824c-0.06-2.577-1.201-2.62-1.201-2.62s2.143-0.213,1.706-2.696c-0.436-2.483-3.36-3.003-4.498-2.51c-0.477-1.078-3.043-3.349-5.482-1.398C418.376,364.179,421.063,367.151,421.063,367.151z"></path><path style="fill:#AF9B76;" d="M426.385,363.763c0,0-1.487,1.078-1.542,3.221c0.245,1.469,0.637,1.701,0.637,1.701s2.933,0.815,3.288,0.626c0.348-0.191,0.602-0.888,0.501-1.026c0.614-0.325,2.041-0.354,1.628-2.61C430.432,363.727,428.631,362.792,426.385,363.763z"></path><g><linearGradient id="leftXMLID_149_" gradientUnits="userSpaceOnUse" x1="-159.3076" y1="615.8857" x2="-159.2232" y2="617.08" gradientTransform="matrix(0.2474 0.9689 0.9689 -0.2474 -135.0768 674.2359)"><stop offset="0" style="stop-color:#FFFEFC"></stop><stop offset="1" style="stop-color:#E4EAFA"></stop></linearGradient><path style="fill:url(#leftXMLID_149_);stroke:#000000;stroke-linecap:round;stroke-linejoin:round;" d="M421.181,367.22c0.132,0.001,1.021-0.158,2.21,0.57"></path><linearGradient id="leftXMLID_150_" gradientUnits="userSpaceOnUse" x1="-160.4194" y1="619.6152" x2="-160.3549" y2="620.5281" gradientTransform="matrix(0.2474 0.9689 0.9689 -0.2474 -135.0768 674.2359)"><stop offset="0" style="stop-color:#FFFEFC"></stop><stop offset="1" style="stop-color:#E4EAFA"></stop></linearGradient><path style="fill:url(#leftXMLID_150_);stroke:#000000;stroke-linecap:round;stroke-linejoin:round;" d="M426.231,364.47c0,0-1.084,0.707-1.233,2.075"></path><linearGradient id="leftXMLID_151_" gradientUnits="userSpaceOnUse" x1="-157.0659" y1="617.6104" x2="-157.0153" y2="618.3268" gradientTransform="matrix(0.2474 0.9689 0.9689 -0.2474 -135.0768 674.2359)"><stop offset="0" style="stop-color:#FFFEFC"></stop><stop offset="1" style="stop-color:#E4EAFA"></stop></linearGradient><path style="fill:url(#leftXMLID_151_);stroke:#000000;stroke-linecap:round;stroke-linejoin:round;" d="M424.962,368.353c-0.095,0.023-0.75,0.589-0.937,1.802"></path><path d="M423.368,367.328c0,0,0.34-0.752,0.611-0.988c0.274-0.238,1.45-0.438,1.483-0.313c0,0-0.019,0.569,0.148,0.961c0.163,0.391,0.824,0.888,0.594,1.146c-0.791,0.17-1.241,0.616-1.241,0.616s-0.554-0.723-0.805-0.926c-0.25-0.202-0.56,0.409-0.693,0.277C423.335,367.971,423.368,367.328,423.368,367.328z"></path><linearGradient id="leftXMLID_152_" gradientUnits="userSpaceOnUse" x1="-157.5439" y1="620.748" x2="-157.4214" y2="622.4803" gradientTransform="matrix(0.2474 0.9689 0.9689 -0.2474 -135.0768 674.2359)"><stop offset="0" style="stop-color:#FFFEFC"></stop><stop offset="1" style="stop-color:#E4EAFA"></stop></linearGradient><path style="fill:url(#leftXMLID_152_);stroke:#000000;stroke-linecap:round;stroke-linejoin:round;" d="M425.896,367.849c0,0,1.631-0.52,3.115,0.335"></path></g><path style="fill:#FFFCD4;" d="M426.402,371.909c-0.038-0.159-0.473-2.11-0.691-2.188c-0.221-0.073-0.909-0.033-1.078,0.077c-0.172,0.11-1.028,2.09-0.408,2.833c0.622,0.738,2.855,0.235,2.838-0.096c-0.016-0.327-0.596-0.646-0.596-0.646"></path><path style="fill:#FFFCD4;" d="M423.155,368.312c-0.181-0.327-0.776-0.563-1.987,0.043c-1.206,0.61-1.548,0.961-1.491,1.447c0.058,0.481,1.388,2.573,1.826,2.46C421.939,372.152,423.709,369.302,423.155,368.312z"></path><path style="fill:#FFFCD4;" d="M421.94,366.561c0,0,0.471,0.015,0.729-0.019c0.258-0.033,0.474,0.544,0.745,0.441c0.272-0.103,0.639-0.495,0.368-1.16c-0.267-0.662-1.293-2.331-1.893-2.209C421.288,363.735,421.399,365.868,421.94,366.561z"></path></g><g><path style="fill:#E5CE95;stroke:#000000;stroke-linecap:round;stroke-linejoin:round;" d="M304.216,384.338c-0.095,0.025-1.322,0.408-1.742-0.573c-0.421-0.98,0.115-2.474,0.576-2.663c0.463-0.182,0.887-0.121,0.887-0.121s-0.245-0.959,0.584-1.304c0.828-0.349,2.486-0.637,3.091,0.536c0.604,1.171,0.104,1.467,0.104,1.467s1.011-0.429,1.424,0.791c0.415,1.217-0.77,2.169-1.402,2.224c0.053,0.601-0.54,2.245-2.11,1.969C303.739,386.328,304.216,384.338,304.216,384.338z"></path><path style="fill:#AF9B76;" d="M307.431,384.554c0,0-0.93-0.12-1.479-1.066c-0.25-0.716-0.132-0.918-0.132-0.918s1.115-1.08,1.319-1.082s0.488,0.249,0.477,0.336c0.354-0.007,0.999-0.341,1.368,0.772C309.254,383.578,308.676,384.439,307.431,384.554z"></path><g><linearGradient id="leftXMLID_153_" gradientUnits="userSpaceOnUse" x1="353.0869" y1="497.7881" x2="353.1301" y2="498.3987" gradientTransform="matrix(-0.2474 -0.9689 0.9689 -0.2474 -90.2963 849.1471)"><stop offset="0" style="stop-color:#FFFEFC"></stop><stop offset="1" style="stop-color:#E4EAFA"></stop></linearGradient><path style="fill:url(#leftXMLID_153_);stroke:#000000;stroke-linecap:round;stroke-linejoin:round;" d="M304.251,384.278c0.062-0.029,0.498-0.177,0.853-0.794"></path><linearGradient id="leftXMLID_154_" gradientUnits="userSpaceOnUse" x1="352.5176" y1="499.6943" x2="352.5505" y2="500.1598" gradientTransform="matrix(-0.2474 -0.9689 0.9689 -0.2474 -90.2963 849.1471)"><stop offset="0" style="stop-color:#FFFEFC"></stop><stop offset="1" style="stop-color:#E4EAFA"></stop></linearGradient><path style="fill:url(#leftXMLID_154_);stroke:#000000;stroke-linecap:round;stroke-linejoin:round;" d="M307.19,384.277c0,0-0.66-0.055-1.061-0.63"></path><linearGradient id="leftXMLID_155_" gradientUnits="userSpaceOnUse" x1="354.2324" y1="498.668" x2="354.2582" y2="499.0332" gradientTransform="matrix(-0.2474 -0.9689 0.9689 -0.2474 -90.2963 849.1471)"><stop offset="0" style="stop-color:#FFFEFC"></stop><stop offset="1" style="stop-color:#E4EAFA"></stop></linearGradient><path style="fill:url(#leftXMLID_155_);stroke:#000000;stroke-linecap:round;stroke-linejoin:round;" d="M305.668,382.846c-0.046,0.013-0.479-0.082-0.859-0.578"></path><path d="M305.207,383.695c0,0,0.337,0.253,0.515,0.291c0.182,0.042,0.76-0.157,0.742-0.223c0,0-0.147-0.248-0.17-0.466c-0.021-0.216,0.151-0.599-0.016-0.659c-0.393,0.121-0.706,0.03-0.706,0.03s-0.07,0.456-0.133,0.611c-0.064,0.15-0.352-0.046-0.378,0.044C305.033,383.417,305.207,383.695,305.207,383.695z"></path><linearGradient id="leftXMLID_156_" gradientUnits="userSpaceOnUse" x1="353.9863" y1="500.2705" x2="354.0489" y2="501.1546" gradientTransform="matrix(-0.2474 -0.9689 0.9689 -0.2474 -90.2963 849.1471)"><stop offset="0" style="stop-color:#FFFEFC"></stop><stop offset="1" style="stop-color:#E4EAFA"></stop></linearGradient><path style="fill:url(#leftXMLID_156_);stroke:#000000;stroke-linecap:round;stroke-linejoin:round;" d="M306.212,382.844c0,0,0.859-0.167,1.313-0.912"></path></g><path style="fill:#FFFCD4;" d="M305.443,380.899c0.021,0.081,0.305,1.061,0.228,1.15c-0.08,0.087-0.398,0.233-0.503,0.228c-0.104-0.006-0.974-0.685-0.877-1.168c0.099-0.482,1.221-0.804,1.294-0.654c0.074,0.153-0.108,0.438-0.108,0.438"></path><path style="fill:#FFFCD4;" d="M304.871,383.306c-0.002,0.191-0.209,0.447-0.901,0.467c-0.691,0.022-0.93-0.05-1.023-0.283c-0.092-0.229-0.006-1.49,0.216-1.546C303.386,381.884,304.875,382.729,304.871,383.306z"></path><path style="fill:#FFFCD4;" d="M304.755,384.389c0,0,0.208-0.122,0.33-0.169c0.124-0.049,0.079-0.361,0.228-0.382c0.146-0.019,0.406,0.067,0.448,0.429c0.042,0.365-0.01,1.36-0.309,1.455C305.156,385.814,304.682,384.83,304.755,384.389z"></path></g></g></g></svg>