<svg xmlns="http://www.w3.org/2000/svg" width="500" height="500" version="1.1"><g id="x9189"><g><g><path style="fill:#FFFFFF;stroke:#000000;stroke-linecap:round;stroke-linejoin:round;" d="M351.175,414.04l7.98-15.408l9.418-14.575l5.555-5.254c0,0,13.259,11.353,14.533,12.478c2.093,2.371,3.754,4.49,3.754,4.49l106.373,70.392l-11.71,20.182l-113.901-57.418c0,0-2.664-0.39-5.76-1.03c-1.609-0.548-18.047-6.425-18.047-6.425L351.175,414.04z"></path><linearGradient id="leftXMLID_157_" gradientUnits="userSpaceOnUse" x1="71.4771" y1="753.293" x2="71.4771" y2="670.0406" gradientTransform="matrix(-0.5019 0.8649 0.8649 0.5019 -124.0193 35.608)"><stop offset="0.0056" style="stop-color:#FFFEFC"></stop><stop offset="1" style="stop-color:#DDDEFA"></stop></linearGradient><path style="fill:url(#leftXMLID_157_);" d="M356.78,404.382c0,0,1.859,0.115,5.494,0.491c4.576,2.078,6.105-0.89,6.105-0.89s1.816-2.8-2.257-5.741c-2.13-2.971-3.154-4.527-3.154-4.527l5.589-8.8c0,0,4.994,9.159,5.57,9.493c0.578,0.336,111.105,73.522,111.105,73.522l-3.346,5.768c0,0-118.391-59.637-118.968-59.972c-0.577-0.336-11.007-0.125-11.007-0.125L356.78,404.382z"></path><g><path style="fill:none;stroke:#000000;stroke-linecap:round;stroke-linejoin:round;" d="M368.56,384.579c1.502,1.064,15.303,13.311,17.661,16.22c8.171,5.514,103.786,67.543,103.786,67.543l-2.927,5.044"></path><path style="fill:none;stroke:#000000;stroke-linecap:round;stroke-linejoin:round;" d="M351.622,413.769c1.67,0.777,19.151,6.682,22.848,7.284c8.84,4.358,110.143,56.587,110.143,56.587l2.928-5.046"></path></g></g><g><g><path style="fill:#34323D;stroke:#000000;stroke-linecap:round;stroke-linejoin:round;" d="M345.296,404.913c5.055,1.583,6.291,2.106,6.291,2.106s-1.542,1.996-3.342,2.108c0.553,0.707,0.4,1.969-0.199,2.005c-0.6,0.037-1.693-0.404-1.693-0.404l-0.113-1.799l-2.217-0.324c0,0-0.247,1.614-0.746,1.783c-0.839,0.283-1.136-0.37-1.136-0.37l0.595-2.353c0,0-1.932-0.157-3.001-0.97c-0.874,0.84-0.981,1.358-1.953,1.371c-0.687,0.01-0.747-1.205-0.747-1.205l1.497-1.249l-1.708-1.378C336.823,404.235,341.399,406.314,345.296,404.913z"></path><path style="fill:#34323D;stroke:#000000;stroke-linecap:round;stroke-linejoin:round;" d="M363.969,414.832l0.554-1.292c-1.117-0.62-2.322-1.385-3.625-2.322c-0.123,0.621-0.35,1.487-1.001,1.424c-0.912-0.089-1.004-0.852-1.004-0.852l0.674-1.57c-0.917-0.705-1.872-1.483-2.878-2.358c2.188-2.776,3.223-4.762,3.223-4.762s0.846,1.245,2.273,2.896c0.368-0.512,0.92-1.155,1.469-0.838c0.793,0.461,0.561,1.192,0.561,1.192l-0.938,0.853c0.852,0.904,1.838,1.862,2.926,2.768c0.271-0.571,0.736-1.479,1.393-1.234c0.858,0.322,0.75,1.081,0.75,1.081l-0.891,1.133c1.146,0.839,2.375,1.585,3.663,2.14l-0.558-0.486c0.203-0.278,0.77-1.935,1.621-1.6c0.854,0.34,0.73,1.098,0.73,1.098l-1.049,1.283c1.605,0.582,3.286,0.845,4.982,0.586c-1.324,1.038-3.191,2.058-6.04,1.771c-0.112,0.43-0.229,2.001-1.101,1.916c-0.912-0.09-1.004-0.851-1.004-0.851l0.571-1.334c-0.993-0.237-2.091-0.622-3.302-1.194c-0.123,0.62-0.354,1.466-0.997,1.404C364.062,415.595,363.969,414.832,363.969,414.832z"></path><path style="fill:#34323D;stroke:#000000;stroke-linecap:round;stroke-linejoin:round;" d="M364.157,400.635c0,0-2.41-4.482-1.058-5.817c0.605-0.598,2.173-1.643,4.171-2.3l-0.818-1.151c0,0,0.741-1.111,1.186-1.047c0.338,0.05,0.836,1.246,1.059,1.821c2.18-0.44,4.674-0.295,6.961,1.293c-1.017,0.169-2.006,0.486-2.955,0.883c0.494,0.504,0.953,1.101,0.616,1.323c-0.623,0.409-1.336,0.479-1.336,0.479l-0.817-1.076c-1.475,0.79-2.795,1.738-3.888,2.634c0.636,0.709,1.313,1.58,1.023,1.797c-0.51,0.379-1.266,0.518-1.266,0.518l-0.997-1.245C364.858,399.823,364.157,400.635,364.157,400.635z"></path><path style="fill:#34323D;stroke:#000000;stroke-linecap:round;stroke-linejoin:round;" d="M352.143,382.486c0,0,1.306-0.608,3.069-0.862l0.278-1.643c0,0,1.31-0.262,1.579,0.098c0.146,0.196-0.066,0.865-0.291,1.438c1.232,0.016,2.553,0.272,3.76,1.026l0.151-0.894c0,0,1.31-0.262,1.577,0.099c0.172,0.229-0.146,1.106-0.4,1.718c1.183,0.908,2.299,2.014,3.129,3.268c0.498-0.252,1.043-0.494,1.367-0.525c0.713-0.067,0.865,0.502,0.819,1.246c-0.024,0.384-0.737,0.597-1.401,0.716c0.781,1.806,0.902,3.838-0.174,5.982C359.097,390.761,352.143,382.486,352.143,382.486z"></path></g><g><g><path style="fill:#34323D;stroke:#000000;stroke-linecap:round;stroke-linejoin:round;" d="M317.655,398.304c-1.427-1.316-4.426-8.106-4.426-8.106s1.652,1.142,3.283-0.834c1.633-1.973-0.654-7.682-0.654-7.682s1.494-2.014,3.936-4.221l4.943,22.625C321.394,399.526,318.273,398.872,317.655,398.304z"></path><g><path style="fill:#D3D5F3;stroke:#000000;stroke-linecap:round;stroke-linejoin:round;" d="M331.601,375.384l-2.569-5.537c0,0,8.189-6.809,8.911-6.39c0.721,0.417,11.832,11.489,11.832,11.489l2.69,11.967l-5.718,1.884c0,0-2.525-2.622-3.01-4.444c-0.482-1.822-0.053-7.547-0.053-7.547s-3.103-2.954-5.796-5.288C335.058,371.416,331.601,375.384,331.601,375.384z"></path><path style="fill:#34323D;stroke:#000000;stroke-linecap:round;stroke-linejoin:round;" d="M316.705,367.512c0,0,6.802-0.1,8.229-0.234c1.427-0.135,10.119-7.811,10.658-8.074c0.539-0.267,1.701-0.94,4.213,0.709c2.512,1.648,14.44,13.967,14.44,13.967s-1.276,2.534-1.714,5.942c-0.436,3.409,2.773,5.849,2.773,5.849l-3.607,1.567c-4.832-3.959-3.299-10.585-3.807-12.036c-0.508-1.45-9.739-9.118-9.739-9.118s-0.638-0.563-2.339,0.377c-1.701,0.94-5.521,3.541-4.424,6.297c1.098,2.758,3.137,7.215,1.733,12.952c0.954,2.674,2.023,3.484,2.646,3.077c0.624-0.409,3.596-2.539,3.596-2.539s0.716,4.077-1.292,7.535c-2.007,3.461-6.372,4.011-6.372,4.011l-8.952-6.156L316.705,367.512z"></path></g></g><g><path style="fill:#1C1A25;stroke:#000000;stroke-linecap:round;stroke-linejoin:round;" d="M267.463,352.79c0.04-2.087,1.2-4.356,1.845-5.462c0.642-1.109,2.035-3.243,3.826-4.313c9.48,9.397,40.5,26.421,40.5,26.421l-3.135,5.402C310.499,374.838,280.325,356.356,267.463,352.79z"></path><g><path style="fill:#AF9B76;stroke:#000000;stroke-linecap:round;stroke-linejoin:round;" d="M270.692,348.131c0,0,2.084-3.171,4.075-4.085c1.079,0.869,2.985,2.827,2.985,2.827s-2.571,1.916-3.417,3.372c-0.846,1.459-1.233,4.641-1.233,4.641s-2.645-0.684-3.934-1.189C268.972,351.516,270.692,348.131,270.692,348.131z"></path><path style="fill:#AF9B76;stroke:#000000;stroke-linecap:round;stroke-linejoin:round;" d="M275.702,351.039c0,0,1.883-2.196,3.402-3.139l1.115,1.013c0,0-1.838,1.489-2.788,3.129c-0.951,1.639-1.333,3.974-1.333,3.974l-1.432-0.468C274.731,353.761,275.702,351.039,275.702,351.039z"></path></g></g><g><g><path style="fill:#C4AC80;stroke:#000000;stroke-linecap:round;stroke-linejoin:round;" d="M334.099,397.645c0,0,1.502,1.065,3.031-1.903c1.528-2.966-1.028-13.506-0.32-14.06c0.705-0.553,8.086-0.318,9.503,0.891c0.497,2.794,2.628,5.763,3.47,6.638c-1.849,4.515-3.596,12.174-3.596,12.174s-3.071-1.013-4.508,0.466c-1.437,1.479-4.333,4.81-6.951,3.676C333.435,401.113,334.099,397.645,334.099,397.645z"></path><path style="fill:#FFFCD4;" d="M340.831,383.052c0,0-2.437-0.45-2.832-0.101c-0.395,0.349,3.783,6.434,4.346,5.796C341.821,386.325,342.394,384.346,340.831,383.052z"></path><path style="fill:#FFFCD4;" d="M342.736,382.424c0,0,2.233,0.139,2.726,0.618c0.493,0.479,1.196,3.583,0.801,3.934c-0.395,0.347-2.353-0.596-2.353-0.596L342.736,382.424z"></path><path style="fill:#AF9B76;" d="M342.903,391.77c0,0-2.631,3.868-1.402,5.737c1.227,1.868,1.901,3.031,1.901,3.031l2.377,0.223l-0.005-2.315C345.774,398.445,343.331,395.681,342.903,391.77z"></path><path style="fill:none;stroke:#000000;stroke-linecap:round;stroke-linejoin:round;" d="M341.765,382.439c0,0,2.41,6.628,1.44,10.469c-0.595,2.352,1.499,4.724,3.146,5.872"></path></g><g><path style="fill:#E5CE95;stroke:#000000;stroke-linecap:round;stroke-linejoin:round;" d="M315.03,395.379c-1.156-1.886-1.935-4.528-1.801-5.182c1.192,2.458,3.852,5.217,5.459,4.02c1.056-0.786,0.143-5.667-0.582-8.989c0,0-1.367-5.416-2.8-6.175c-4.053-2.139-5.598-2.4-7.125-1.59c-1.526,0.808-7.589,3.223-12.951-0.313c1.304-1.15,4.083-2.291,4.977-3.469c0.896-1.174,2.131-2.575,2.131-2.575s2.02,0.535,4.166-0.972c2.146-1.509,3.501-3.479,8.315-3.014c4.813,0.463,12.145,5.353,12.258,8.81c-1.726,1.313-3.636,4.549-3.238,7.48c0.207,1.53,3.1,7.028,9.137,4.625c0.022,0.044,0.044,0.103,0.066,0.152c0.275-0.21,0.432-0.364,0.432-0.364s0.35,2.828,0.762,6.296c0.305,2.399,0.597,5.1,1.012,7.521l-0.172-0.166c0.312,2.895,0.518,5.142,0.428,5.297c-0.779,0.4-3.428,0.142-5.581-1.289c-2.151-1.432-3.351-2.614-5.971-2.613c-2.616,0.002-3.25,1.827-5.431,0.866C316.34,402.775,316.187,397.268,315.03,395.379z"></path><path style="fill:#FFFCD4;" d="M313.418,367.531c0,0-2.771,0.127-3.585,1.196c-0.814,1.07-1.732,2.656-1.732,2.656s6.225-0.436,6.271-1.179C314.417,369.46,313.418,367.531,313.418,367.531z"></path><polygon style="fill:#34323D;stroke:#000000;stroke-linecap:round;stroke-linejoin:round;" points="314.149,372.581 308.993,373.829 310.848,371.629 "></polygon><path style="fill:#C4AC80;" d="M326.345,375.803c0,0-4.68,4.415-2.581,9.101c2.098,4.686,7.3,5.048,9.278,3.284c0.076,1.181,0.296,2.464,0.296,2.464s-5.653,6.026-11.628-1.543C316.38,382.353,323.681,375.413,326.345,375.803z"></path><path style="fill:#C4AC80;" d="M313.884,392.219c0.272,0.158,3.567,9.375,4.516,10.047c0.95,0.672,6.023-0.523,6.023-0.523l9.643,1.214l0.092-6.033l-0.725-5.045c0,0-6.471,3.182-8.944,1.991c-2.473-1.19-4.97-2.762-4.97-2.762s0.676,3.134-0.742,3.585C315.938,395.602,313.884,392.219,313.884,392.219z"></path><path style="fill:#FFFCD4;" d="M328.847,404.188c0,0,3.908,1.659,6.109,0.379c-0.01-0.612-0.07-1.136-0.07-1.136L328.847,404.188z"></path><path style="fill:#FFFCD4;" d="M320.073,382.179c0,0-0.18,6.146,2.938,8.154c5.668,3.655,10.044,1.571,10.044,1.571s-5.044,4.495-9.976,1.877C318.146,391.165,320.073,382.179,320.073,382.179z"></path><path style="fill:#AF9B76;" d="M315.942,394.753c0,0,1.572,1.277,3.054,0.189c0.22,0.252,0.536,2.016-0.418,2.191C317.623,397.31,315.942,394.753,315.942,394.753z"></path><path style="fill:#AF9B76;" d="M334.157,396.923l0.733,5.66c0,0-1.268,2.186-4.931,1.156c-1.969-0.553-3.954-2.416-3.517-3.379c0.438-0.967,4.364-0.391,5.507-1.31S334.157,396.923,334.157,396.923z"></path><path style="fill:#FFFCD4;" d="M316.784,397.919c0,0,0.229,4.639,1.937,5.262c1.706,0.625,3.612-1.188,5.583-1.021c1.971,0.17,6.25,2.653,10.142,0.773c-2.313-0.002-8.415-1.231-10.53-1.364c-2.115-0.132-4.521,0.662-5.199,0.148C318.042,401.205,316.784,397.919,316.784,397.919z"></path><path style="fill:none;stroke:#000000;stroke-linecap:round;stroke-linejoin:round;" d="M326.033,403.164c0.254,0.085,7.416,2.113,9.142-0.231"></path><path style="fill:none;stroke:#000000;stroke-linecap:round;stroke-linejoin:round;" d="M333.495,391.332c0,0-3.06,3.614-9.222,0.707c-5.639-2.659-5.221-10.641-2.149-15.603c-1.252-1.495-9.189-4.754-11.276-4.808c-2.128,3.003-5.652,4.428-11.701,3.23"></path></g></g></g><g><path style="fill:#D5D9FC;stroke:#000000;stroke-linecap:round;stroke-linejoin:round;" d="M350.342,384.077c0,0,0.53-0.641,1.412-1.073c0.882-0.435,4.063-1.428,6.524-0.236c1.336,0.145,3.777,0.692,5.418,3.302c1.643,2.608,0.697,6.004,0.697,6.004l0.568-0.301c0,0,3.385,2.596,2.063,6.638c-1.32,4.043-4.488,5.833-6.417,5.896c-0.12,1.43-3.361,5.385-7.113,4.783c-3.753-0.599-4.253-1.915-4.253-1.915s-1.708-0.044-3.542-1.503c-2.11-0.986-3.287-0.725-4.7-4.541c-1.412-3.814-1.484-7.091,0.266-8.203c1.027-0.273,1.576-0.27,1.576-0.27s-0.709-2.854,0.271-5.363c0.983-2.505,0.697-2.829,0.697-2.829S347.446,382.003,350.342,384.077z"></path><radialGradient id="leftXMLID_158_" cx="-173.6304" cy="736.5771" r="16.262" gradientTransform="matrix(-0.3411 0.5879 0.5879 0.3411 -137.9063 247.0388)" gradientUnits="userSpaceOnUse"><stop offset="0.0056" style="stop-color:#FFFEFC"></stop><stop offset="0.6966" style="stop-color:#FEFDFC"></stop><stop offset="1" style="stop-color:#DDDEFA"></stop></radialGradient><path style="fill:url(#leftXMLID_158_);" d="M354.994,388.329c-0.392-0.226-2.616-2.04-3.797-1.808c-1.182,0.229-1.21,0.454-1.563,0.662c-1.791,1.056-3.649,1.552-3.582,2.114c0.066,0.561,0.736,1.212,0.736,1.212s-0.507-0.032-0.82,0.965c-0.316,0.994-0.421,1.853-0.591,2.144c-0.171,0.296,0.24,1.844,0.069,2.138c-0.17,0.293-2.092,1.798-2.187,3.315c-0.093,1.517,0.788,2.028,1.18,2.255c0.392,0.229,1.503,0.347,1.315,0.895c-0.187,0.547-0.248,1.559,0.396,1.8c0.644,0.244,1.672,0.055,1.672,0.055s2.078,0.028,2.372,0.197c0.294,0.171,0.845,1.932,1.741,2.189c0.898,0.26,1.508-0.566,1.508-0.566c1.801-0.395,2.926-0.528,2.916-1.188c-0.008-0.661-0.174-1.281,0.527-1.136c0.703,0.146,1.15,0.274,1.615,0.151c0.464-0.123,1.125-0.132,1.408-0.624c0.285-0.487,1.115-0.791,1.115-0.791s0.753,0.959,1.477-0.062c0.723-1.02,0.65-0.67,0.486-1.29c-0.164-0.619-0.67-0.65,0.178-1.207c0.844-0.556,1.17-0.892,1.17-0.892s0.219-1.052-0.117-1.376c-0.335-0.325-0.51-1.607-0.51-1.607c-0.832-1.271-1.503-1.92-1.503-1.92s0.676-0.262,0.641-1.331c-0.034-1.065,0.433-1.572,0.068-1.924c-1.005-0.976-1.165-0.021-0.958-1.735c0.209-1.712,0.859-2.382-0.771-2.281c-1.63,0.103-2.174,1.49-3.004,1.794c-0.832,0.304-0.524-1.353-1.283-1.399C356.14,387.029,354.994,388.329,354.994,388.329z"></path><g><path style="fill:none;stroke:#000000;stroke-linecap:round;stroke-linejoin:round;" d="M351.184,398.327c0,0,0.093-0.499,0.444-0.767"></path><path style="fill:none;stroke:#000000;stroke-linecap:round;stroke-linejoin:round;" d="M353.476,386.763c0.161,0.134,0.901,0.759,0.951,1.421c0.051,0.66-1.197,2.063-1.203,2.14"></path><path style="fill:none;stroke:#000000;stroke-linecap:round;stroke-linejoin:round;" d="M360.029,389.264c0,0-0.551,1.969-1.465,2.66"></path><path style="fill:none;stroke:#000000;stroke-linecap:round;stroke-linejoin:round;" d="M364.144,392.638c0,0-0.459,1.744-2.057,2.118s-2.863,0.112-2.863,0.112"></path><path style="fill:none;stroke:#000000;stroke-linecap:round;stroke-linejoin:round;" d="M352.536,394.498c-0.096-0.174-0.728-1.328-0.686-1.738c0.04-0.411,0.232-2.034,0.512-2.106c0.281-0.076,0.855,0.021,0.855,0.021s1.049-0.651,2.037-0.316c0.986,0.338,3.109,1.844,3.428,2.858c0.32,1.012-0.236,2.583-0.618,2.834c-0.383,0.25-1.864-0.254-1.864-0.254"></path><path style="fill:none;stroke:#000000;stroke-linecap:round;stroke-linejoin:round;" d="M358.805,394.704c0,0,1.802,1.993,1.727,2.461c-0.075,0.471-0.591,2.377-1.771,2.917c-1.18,0.535-3.332,0.509-3.774,0.253"></path><path style="fill:none;stroke:#000000;stroke-linecap:round;stroke-linejoin:round;" d="M353.321,396.137c0,0-0.103-1.795,0.314-2.104c0.417-0.312,1.322,0.37,1.322,0.37s1.576,2.178,1.391,2.701c-0.186,0.522-1.482,0.717-1.482,0.717"></path><path style="fill:none;stroke:#000000;stroke-linecap:round;stroke-linejoin:round;" d="M352.379,396.537c-0.083-0.128-1.356-3.232-1.61-3.34c-0.254-0.109-1.02,2.642-0.287,3.895"></path><path style="fill:none;stroke:#000000;stroke-linecap:round;stroke-linejoin:round;" d="M350.694,397.609c0,0,0.109,0.418,0.489,0.718c0.312,0.889,1.011,1.927,1.64,2.134s2.716,0.077,2.701-0.444c-0.014-0.518-1.834-2.681-2.666-3.083"></path><path style="fill:none;stroke:#000000;stroke-linecap:round;stroke-linejoin:round;" d="M349.559,397.186c0,0-1.682,1.47-2.155,2.692"></path><path style="fill:none;stroke:#000000;stroke-linecap:round;stroke-linejoin:round;" d="M352.334,400.215c-0.187,0.053-1.122,0.375-1.133,0.527c-0.009,0.153,0.751,2.645-0.019,3.498c-0.771,0.855-2.697,1.59-2.697,1.59"></path><path style="fill:none;stroke:#000000;stroke-linecap:round;stroke-linejoin:round;" d="M356.22,400.9c0,0,1.752,2.28,2.756,2.862c1.002,0.581,1.662,0.531,1.662,0.531"></path><path style="fill:none;stroke:#000000;stroke-linecap:round;stroke-linejoin:round;" d="M343.082,392.664c0,0,2.483,0.613,3.812,1.855"></path><path style="fill:none;stroke:#000000;stroke-linecap:round;stroke-linejoin:round;" d="M350.138,394.014c-0.086,0.146-0.723,1.04-2.112,0.784"></path><path style="fill:#E5CE95;stroke:#000000;stroke-linecap:round;stroke-linejoin:round;" d="M351.517,392.723c0,0-0.284-1.07-2.825-3.965"></path></g></g></g></g></g></svg>