<svg xmlns="http://www.w3.org/2000/svg" width="500" height="500" version="1.1"><g id="x019"><g><polygon style="fill:#8B5C29;stroke:#000000;stroke-linecap:round;stroke-linejoin:round;" points="282.667,371.697 283.335,376.289 318.051,367.036 316.686,360.403 "></polygon><path style="fill:#B2B2B2;stroke:#000000;stroke-linecap:round;stroke-linejoin:round;" d="M326.198,363.174c-15.6-31.761-26.858-43.789-26.858-43.789s24.704,5.921,38.761,42.729c13.003,34.056,1.328,46.024,1.328,46.024S341.412,394.15,326.198,363.174z"></path><path style="fill:#FFFFFF;" d="M332.926,354.158c0,0-7.863-19.087-25.756-29.75C319.159,335.93,332.926,354.158,332.926,354.158z"></path><polygon style="fill:#8B5C29;stroke:#000000;stroke-linecap:round;stroke-linejoin:round;" points="333.867,356.03 328.715,357.449 331.996,365.278 337.148,363.859 "></polygon><path style="fill:#8C8C8C;stroke:#000000;stroke-linecap:round;stroke-linejoin:round;" d="M324.049,366l-5.998,1.036l-2.349-6.49l4.115-1.522c-1.257-3.39-10.452-27.159-20.478-39.639c20.474,16.448,39.854,60.388,40.089,88.754C335.417,392.512,327.92,373.362,324.049,366z"></path></g></g></svg>