<svg xmlns="http://www.w3.org/2000/svg" width="500" height="500" version="1.1"><g id="x9190"><g><path style="fill:#34323D;stroke:#000000;stroke-linecap:round;stroke-linejoin:round;" d="M344.814,413.804c0,0-6.888,0.471-8.477-3.757c-1.589-4.227,0.643-11.952,1.551-12.604c0.908-0.652,23.375-8.177,23.375-8.177s-4.868,10.857-5.264,11.072c-0.396,0.216-5.048,0.733-6.748,4.5C347.551,408.605,344.814,413.804,344.814,413.804z"></path><g><path style="fill:#34323D;stroke:#000000;stroke-linecap:round;stroke-linejoin:round;" d="M332.067,344.371l-1.625,0.134c0,0-2.259,1.071-1.892,2.253c0.366,1.182,5.711-0.385,5.711-0.385s3.865-0.365,4.354,0.316c0.489,0.681,0.483,0.96,1.111,0.302c0.63-0.657,0.205-1.729,0.205-1.729l1.577-0.582l0.196,0.962l-1.36,1.25l0.809,1.415l-2.713,1.396c0,0-0.519,3.4-0.274,5.083l2.73-2.235l0.291,1.508c-1.257,0.809-2.143,1.473-2.143,1.473l8.651,3.424l5.257-5.425c0,0-1.774-0.652-4.982-2.341c-0.798-0.018-1.782,0.271-2.804,0.7l2.589-3.78l2.166-4.651l-0.215-3.079l0.548-2.114l-3.394-3.481c0,0-0.868,1.38-1.404,2.935c-0.902,0.372-4.437,3.597-4.437,3.597l-2.259,1.071c0,0-1.101-0.862-2.835-0.786c-0.624,0.026,1.03,1.53,1.03,1.53l-2.301,0.344l-2.49-1.171c0,0-0.676,0.21-1.247,0.757C330.35,343.607,332.067,344.371,332.067,344.371z M342.443,353.287c-0.212-1.264,1.622-2.458,1.622-2.458l-0.959,2.077C342.881,353.031,342.66,353.159,342.443,353.287z M345.224,346.909l-0.465,0.188l0.497-1.5l-0.212,1.227L345.224,346.909z M345.936,341.642l-0.448,2.604l-1.625,0.261l-0.396,2.898c-0.596,0.3-1.127-0.454-1.444-1.069l1.428-0.775l-0.402-2.189L345.936,341.642z"></path><path style="fill:#34323D;stroke:#000000;stroke-linecap:round;stroke-linejoin:round;" d="M364.26,338.364c0.172-0.192,1.737-1.558,1.782-2.312c-0.882,0.736-1.13,0.536-1.493,0.556c-0.364,0.021-1.243-0.725-0.704-1.077c0.537-0.353,1.897-1.19,1.897-1.19s-0.069-2.014-1.024-3.152c-0.469,1.024-1.558,2.288-1.974,2.14s-0.82-0.856-0.704-1.078c0.116-0.221,1.625-2.816,1.625-2.816s-0.429-0.933-0.962-0.859c-0.532,0.072-2.337,0.817-2.337,0.817s-0.862,6.469-1.898,7.9c-1.037,1.432-5.846,1.443-5.846,1.443s-3.274-3.844-3.524-5.246c2.317-2.523,4.387-3.905,4.407-3.542c0.021,0.364,1.74,5.013,1.86,4.651c0.118-0.36,0.579-3.65,0.579-3.65s2.476-10.068,2.781-9.979c0.306,0.091,3.533,0.802,4.855,0.438c1.321-0.363,3.927-1.958,3.927-1.958s4.096,3.357,3.9,3.324c-0.195-0.031-4.113,1.508-5.28,1.177c-0.184,0.75-0.135,1.059-0.135,1.059l1.211,0.92c0,0,4.235-2.008,4.978-2.747c0.073,0.533,0.065,0.952,0.065,0.952s-3.725,2.913-3.762,3.388c-0.038,0.474,0.724,1.44,0.724,1.44l3.485-4.875l0.66,0.488l-2.168,3.45c0,0,0.983-0.259,0.78,0.128c-0.205,0.387-0.83,0.905-0.974,1.042c-0.143,0.137-0.916,1.071-0.916,1.071s1.633-0.553,2.046-0.265s0.398,0.986,0.398,0.986s-1.793,0.187-1.97,0.658c-0.178,0.472-0.042,1.956-0.042,1.956s2.122-1.214,2.564-0.98s0.236,0.76,0.236,0.76l-1.415,0.809c0.475,0.038,0.967,0.579,0.967,0.579s-0.946,1.127-1.31,1.147c-0.364,0.021-1.625,0.133-1.625,0.133s-1.039,2.914-2.667,4.529C365.316,339.979,364.26,338.364,364.26,338.364z"></path><path style="fill:#34323D;stroke:#000000;stroke-linecap:round;stroke-linejoin:round;" d="M364.378,300.708c-0.605,2.224-1.587,3.686-1.587,3.686s-3.811,3.079-5.397,5.422c0.179-1.813,1.562-5.11,1.328-4.668c-0.232,0.442-2.92,3.265-4.736,7.252c1.949,1.663,3.894,2.263,3.894,2.263s1.782-2.311,1.721-2.061c-0.062,0.251-0.093,1.788-0.093,1.788s-0.821,0.485-0.746,0.878c0.075,0.394,1.295,2.236,1.295,2.236s1.569,1.18,1.805,0.597c0.236-0.582-1.51-3.974-1.51-3.974s0.413-1.053,0.698-1.327c0.396,1.127,2.244,3.654,4.403,4.649c-1.595,0.078-2.584,0.617-2.59,0.896c-0.006,0.28,0.174,1.011,0.174,1.011l3.145-0.604l0.551-3.596c0,0-0.69-3.117-1.12-3.909c-0.432-0.792-1.653-2.495-1.505-2.911c0,0,2.498-4.477,6.617-4.922c0.62-0.256,1.24-0.109,1.814,0.229c-0.702,0.922-2.304,3.217-3.003,5.786c1.68-0.105,3.033-0.664,3.033-0.664s1.148-1.693,2.269-2.66c0.255,0.397,0.4,0.675,0.4,0.675l0.282,2.551l2.221-0.597c0,0,0.758-2.78-0.333-4.061c0.316-0.469,1.223-0.98,1.223-0.98s-0.003,1.481,0.444,1.435c0.448-0.047,0.902-0.372,0.902-0.372s0.088-1.508-0.374-2.104c0.538-0.353,2.081-0.6,3.217-0.073c1.134,0.527,6.249-0.735,7.911-2.686c0.233-1.784-0.049-1.65-0.215-1.737c-0.166-0.088-2.282,0.847-4.018,0.922c-1.734,0.075-2.011-0.07-2.011-0.07s0.544-0.632,0.162-1.114c-0.381-0.483-1.111-0.304-1.111-0.304l-0.029,1.397l-2.85-0.087c0,0,0.006-1.622-0.635-1.747c-0.64-0.125-1.01,0.175-1.01,0.175s0.538,0.989,0.306,1.432c-0.711,0.544-1.756,1.054-1.756,1.054s-1.749-0.567-2.131-1.051c-0.763,0.375-0.687,0.768-0.687,0.768l1.682,1.099l-0.853,0.681c0,0-2.366-1.811-4.023-1.482c0.181-0.611-0.052-1.511-0.36-1.461c-0.308,0.049-0.847,0.401-0.847,0.401l0.146,1.065l-2.475,0.675l0.105-1.004c0,0,2.238-1.436,2.244-1.715s-0.57-0.794-0.57-0.794l-2.232,1.154l-0.298-1.851c0,0,1.302-0.728,1.369-1.258c0.067-0.529-0.146-1.064-0.146-1.064l-1.534,1.169c0,0-0.783-1.33-1.427-1.315c-0.643,0.014-2.005,0.992-2.005,0.992S364.984,298.484,364.378,300.708z"></path></g><g><g><g><g><path style="fill:#555466;stroke:#000000;stroke-linecap:round;stroke-linejoin:round;" d="M401.124,371.927c0,0,11.722-42.416,16.269-54.28c4.545-11.864,26.348-73.109,26.348-73.109l10.054-28.072l-27.225-12.605l-69.65,148.479l-11.037,7.663l15.955,31.605l20.752,1.396L401.124,371.927z"></path><g><g><polygon style="fill:#E5CE95;" points="401.003,360.718 405.157,343.865 405.134,343.94 449.647,220.315 449.886,219.654 449.243,219.375 428.157,210.156 427.485,209.863 427.176,210.526 362.271,349.634 362.412,349.426 348.919,363.212 349.992,364.261 363.485,350.476 363.575,350.384 363.629,350.268 428.535,211.161 427.556,211.532 448.641,220.748 448.236,219.807 403.723,343.433 403.71,343.47 403.7,343.508 399.547,360.358 "></polygon></g><path style="fill:#E5CE95;" d="M438.119,215.458c0,0-2.076,8.426-15.942,8.464c1.915-5.18,4.999-13.396,4.999-13.396L438.119,215.458z"></path></g></g><g><path style="fill:#E5CE95;stroke:#000000;stroke-linecap:round;stroke-linejoin:round;" d="M438.926,257.935c0,0,0.365-0.192,0.8-0.909c0.437-0.717,5.698-14.087,5.76-14.796s-0.328-1.634,0.141-2.426c0.469-0.791,0.799-1.094,0.941-1.396c0.145-0.3,1.276-2.859,1.32-3.156c0.165-1.121,0.642-1.541,0.859-1.806c0.219-0.264,6.974-17.538,6.744-17.833c-0.227-0.293-9.951-3.912-10.323-3.904c-0.371,0.007-0.736,0.387-1.038,0.243c-0.303-0.144-1.252-1.057-1.252-1.057l-4.206-1.635c0,0-5.467,9.042-6.069,16.031c-0.795,9.222,4.297,11.299,6.144,17.327C440.732,249.104,438.926,257.935,438.926,257.935z"></path><path style="fill:#FFFCD4;" d="M441.029,251c0.179-0.376,2.44-6.867,2.606-7.99c0.165-1.121-0.084-2.531-0.354-2.938c-0.267-0.405-3.642-3.398-3.972-3.093C438.98,237.284,441.029,251,441.029,251z"></path><path style="fill:#FFFCD4;" d="M451.517,222.211c0,0-2.233,7.98-2.969,8.555c-0.734,0.574-2.804-2.445-3.371-2.806c-0.565-0.362-2.207-2.343-1.998-3.167c0.209-0.824,2.77,0.581,2.77,0.581S451.027,221.884,451.517,222.211z"></path><path style="fill:#FFFCD4;" d="M445.231,238.694c0.068-0.338-0.349-4.69-1.757-6.192s-4.652-3.602-5.608-6.828c-0.957-3.224,0.493-7.426,1.19-7.924c0.7-0.498-6.083,3.47-4.029,9.618c2.054,6.149,7.845,4.847,8.665,6.808C444.513,236.137,445.231,238.694,445.231,238.694z"></path><path style="fill:#C4AC80;" d="M448.808,232.738c0,0-0.544,0.755-0.952,0.837c-0.408,0.083-5.765-7.272-6.084-10.285c-0.318-3.013,3.442-11.098,3.442-11.098l9.799,3.653L448.808,232.738z"></path><path style="fill:#AF9B76;" d="M453.022,220.991c-0.22,0.265-0.616,0.906-1.068,0.69c-0.452-0.213-0.949-2.852-1.583-2.876c-0.633-0.026-6.912,1.136-7.406,0.624c-0.492-0.512-0.136-1.264-0.136-1.264s-1.898,2.047-0.889,6.129c1.009,4.082,6.356,6.999,5.721,10.852c-0.183,0.188-0.183,0.188-0.183,0.188s-2.207-2.345-4.209-3.759c-2.002-1.415-5.506-3.361-5.633-8.131c-0.127-4.769,1.683-5.661,2.632-6.684c0.95-1.024,5.434-4.428,5.434-4.428l9.237,3.665L453.022,220.991z"></path><g><path style="fill:none;stroke:#000000;stroke-linecap:round;stroke-linejoin:round;" d="M445.521,240.216c0,0-0.812-5.465-1.722-6.268c-0.909-0.802-6.269-4.279-6.935-5.981c-0.666-1.701-0.402-7.484,0.983-9.039c1.389-1.556,3.381-2.638,3.807-3.726c0.428-1.088,1.353-3.417,1.353-3.417"></path><path style="fill:none;stroke:#000000;stroke-linecap:round;stroke-linejoin:round;" d="M447.723,234.435c0,0-1.03-3.261-2.287-4.691c-1.258-1.43-4.078-3.425-3.498-7.574c0.689-4.934,3.463-9.98,3.463-9.98"></path></g></g><g><g><path style="fill:#E5CE95;stroke:#000000;stroke-linecap:round;stroke-linejoin:round;" d="M345.422,413.405c0,0-3.726-3.685-0.921-7.403c2.807-3.716,10.77-4.778,11.491-5.605c0.722-0.826,3.434-5.793,3.461-7.664c2.246-2.069,5.533-4.874,5.533-4.874s1.254,3.906,5.061,3.49c3.81-0.414,7.976-3.188,7.976-3.188s21.907-5.643,21.551-4.789c-0.357,0.855-0.832,6.798-2.578,10.079c0,0-6.381-0.826-13.501,1.216c-8.542,2.451-9.73,10.895-21.207,12.87c-0.704-1.922-1.492-5.135-5.63-4.229c-4.139,0.903-6.275,4.523-5.485,7.735c0.788,3.213,4.995,6.348,9.124,4.563c0.22,3.978-0.236,7.171-0.031,7.883c0.204,0.712,4.334,8.829,1.883,16.203c-2.453,7.373-5.951,11.554-5.951,11.554s-1.047-5.894-4.678-11.061c-5.11-7.272-8.204-8.438-8.729-9.283C342.265,430.056,345.422,413.405,345.422,413.405z"></path><path style="fill:#C4AC80;" d="M359.852,393.062c0.23,0.347,0.315,3.939,0.957,4.208c0.64,0.268,1.947,0.437,3.55,1.104c1.6,0.67,4.421,2.016,4.752,3.324c1.597,0.08,5.36-1.731,5.904-2.132c0.542-0.4,4.22-5.007,13.199-6.397c5.267-0.308,8.549-0.064,8.549-0.064s2.89-7.372,2.823-9.908c-1.923,0.703-6.385-0.55-6.385-0.55l-7.111,2.428l-11.463,8.815l1.391-3.932c0,0-4.806,2.505-7.182,1.891c-2.374-0.615-3.992-3.047-3.992-3.047L359.852,393.062z"></path><path style="fill:#FFFCD4;" d="M346.22,430.409c0,0,10.153,9.001,10.985,16.619c-0.192-5.846-1.07-8.845-3.935-11.293C350.408,433.286,346.22,430.409,346.22,430.409z"></path><path style="fill:#FFFCD4;" d="M362.563,404.771c0,0,0.364,1.53,0.685,1.663c0.319,0.134,2.412-1.875,2.226-2.329C365.288,403.651,362.563,404.771,362.563,404.771z"></path><path style="fill:#FFFCD4;" d="M360.066,402.349c0,0,1.653,1.442,2.212,1.301c0.563-0.143,2.697-0.754,2.342-1.404C364.266,401.596,360.617,401.325,360.066,402.349z"></path><path style="fill:#FFFCD4;" d="M390.758,392.476c0,0,5.303,0.21,5.802-0.084c0.498-0.294,1.506-4.511,0.626-4.501C396.305,387.898,390.758,392.476,390.758,392.476z"></path><path style="fill:#AF9B76;" d="M350.735,411.488c0,0-0.792-1.709,0.234-4.163c1.024-2.456,4.71-4.677,4.272-4.232c-0.437,0.444-4.422-0.217-5.713,2.879C348.237,409.067,350.735,411.488,350.735,411.488z"></path><path style="fill:#AF9B76;" d="M364.186,389.779c0,0,0.939,3.15,3.557,3.49c2.614,0.341,5.471-1.099,5.791-0.965c0.321,0.134-2.734,4.749-4.31,5.218c-1.575,0.473-3.523,0.034-3.798-0.206C365.149,397.077,363.273,394.664,364.186,389.779z"></path><path style="fill:none;stroke:#000000;stroke-linecap:round;stroke-linejoin:round;" d="M357.029,416.373c0,0-2.105,2.943-1.174,6.716c0.933,3.774,4.387,10.116,3.007,15.169c-1.659,6.075-3.716,7.849-3.716,7.849"></path><path style="fill:none;stroke:#000000;stroke-linecap:round;stroke-linejoin:round;" d="M355.202,415.797c0,0-2.056,2.868-1.485,6.713c0.624,4.209,4.823,10.862,3.445,15.915c-0.976,3.572-1.79,5.094-2.542,6.204"></path><path style="fill:none;stroke:#000000;stroke-linecap:round;stroke-linejoin:round;" d="M361.421,404.503c0,0,4.718-0.287,7.689-2.806c2.975-2.519,6.843-6.586,8.742-7.131"></path></g><g><g><path style="fill:#C4AC80;stroke:#000000;stroke-linecap:round;stroke-linejoin:round;" d="M400.134,382.626c-0.274,0.285-2.248,2.391-2.973,2.46c-0.726,0.07-3.225-1.951-8.718,0.278c-5.491,2.228-10.395,6.123-13.463,6.461c2.328-4.014,4.7-11.608,7.984-15.304c3.285-3.696,15.836-8.239,18.919-7.739C402.975,373.18,400.134,382.626,400.134,382.626z"></path><path style="fill:#AF9B76;" d="M398.583,374.549c0,0-3.575,3.143-7.471,4.055c-3.897,0.913-8.191,1.498-8.191,1.498l-5.236,6.919c0,0,3.378-7.668,4.964-9.542c1.586-1.876,12.513-6.499,12.904-6.451C395.945,371.076,398.583,374.549,398.583,374.549z"></path><path style="fill:none;stroke:#000000;stroke-linecap:round;stroke-linejoin:round;" d="M399.255,374.592c0,0-10.761,4.564-15.059,4.87c-2.882,5.366-6.78,8.123-6.78,8.123"></path></g><path style="fill:#FFFCD4;" d="M398.898,382.313c0,0-2.672,0.665-4.354,0.419c1.592-1.596,5.657-8.383,6.06-7.776C401.006,375.564,400.425,380.272,398.898,382.313z"></path></g><g><path style="fill:#E5CE95;stroke:#000000;stroke-linecap:round;stroke-linejoin:round;" d="M339.928,436.323c0,0,8.547-9.219,9.834-18.022c-0.563-3.176-0.864-4.288-0.864-4.288s-6.809,0.633-9.064-3.351c-2.255-3.983-1.051-8.256,3.384-10.297c4.435-2.04,16.877-6.357,20.473-11.29c1.013-2.703,9.582-16.62,10.031-22.499c-0.413-6.981-2.624-14.542-2.624-14.542s-0.997,9.354-6.249,12.53c-5.253,3.174-15.392-0.828-15.392-0.828l-24.921,36.313c0,0-1.128,2.369,0.396,6.143c-2.3-0.403-4.738-2.259-4.738-2.259s-0.846,5.551,4.29,11.045S340.678,425.741,339.928,436.323z"></path><g><path style="fill:#E5CE95;stroke:#000000;stroke-linecap:round;stroke-linejoin:round;" d="M343.888,423.947c0,0-0.854-3.729-5.298-8.063c-4.443-4.332-7.14-7.973-6.627-13.404"></path><g><path style="fill:#AF9B76;" d="M371.784,370.639c0,0,0.978-1.472,1.332-3.379c0.166-0.888-0.722-8.653-2.01-14.668c-0.185,5.036-1.266,9.92-7.969,13.233C369.109,365.21,371.784,370.639,371.784,370.639z"></path><path style="fill:#AF9B76;" d="M324.22,412.914c0.23,0.295,1.264-4.105,0.749-4.767c-0.516-0.661-2.837-2.183-3.169-2.064C321.465,406.201,323.018,411.372,324.22,412.914z"></path><path style="fill:#FFFCD4;" d="M334.393,412.777c0,0-4.002-4.677-3.238-8.604c-3.63-2.838-5.372-3.253-5.372-3.253S328.677,409.084,334.393,412.777z"></path><path style="fill:#FFFCD4;" d="M340.557,434.13c0,0,1.694-5.007,0.652-6.888c-1.042-1.883-9.639-7.087-10.949-8.403c3.023,3.241,6.856,4.79,8.317,8.117C340.036,430.282,340.557,434.13,340.557,434.13z"></path><path style="fill:#AF9B76;" d="M343.98,414.161c0,0-4.701-0.302-7.415-1.872s-4.744-5.445-4.416-8.75c2.888-4.025,11.335-3.737,11.335-3.737s-3.116,0.729-4.67,4.974C336.329,411.623,343.98,414.161,343.98,414.161z"></path></g></g></g></g><g><g><path style="fill:#E5CE95;stroke:#000000;stroke-linecap:round;stroke-linejoin:round;" d="M391.018,355.777c-0.055,0.114-0.846,1.575,0.292,2.353c1.138,0.778,3.167,0.474,3.519-0.065c0.351-0.54,0.38-1.093,0.38-1.093s1.151,0.549,1.799-0.414c0.648-0.965,1.429-2.995,0.096-4.056c-1.333-1.059-1.837-0.498-1.837-0.498s0.797-1.175-0.646-2.005c-1.442-0.83-2.941,0.436-3.173,1.222c-0.747-0.215-2.982,0.126-3.023,2.188C388.375,355.883,391.018,355.777,391.018,355.777z"></path><path style="fill:#AF9B76;" d="M391.548,351.646c0,0-0.08,1.21,0.983,2.141c0.847,0.498,1.131,0.398,1.131,0.398s1.652-1.146,1.704-1.402c0.053-0.258-0.192-0.682-0.308-0.688c0.097-0.449,0.681-1.185-0.635-1.93C393.242,349.579,392.005,350.096,391.548,351.646z"></path><g><linearGradient id="leftXMLID_159_" gradientUnits="userSpaceOnUse" x1="1065.0996" y1="33.4189" x2="1065.0996" y2="115.1157" gradientTransform="matrix(0.9027 0.4302 0.4302 -0.9027 -659.3514 85.1087)"><stop offset="0.0056" style="stop-color:#DCE2FF"></stop><stop offset="1" style="stop-color:#CDCBF0"></stop></linearGradient><path style="fill:url(#leftXMLID_159_);stroke:#000000;stroke-linecap:round;stroke-linejoin:round;" d="M391.103,355.745c0.056-0.066,0.351-0.586,1.222-0.88"></path><linearGradient id="leftXMLID_160_" gradientUnits="userSpaceOnUse" x1="1064.3652" y1="33.2534" x2="1064.3652" y2="115.026" gradientTransform="matrix(0.9027 0.4302 0.4302 -0.9027 -659.3514 85.1087)"><stop offset="0.0056" style="stop-color:#DCE2FF"></stop><stop offset="1" style="stop-color:#CDCBF0"></stop></linearGradient><path style="fill:url(#leftXMLID_160_);stroke:#000000;stroke-linecap:round;stroke-linejoin:round;" d="M391.842,352.021c0,0-0.1,0.849,0.531,1.503"></path><linearGradient id="leftXMLID_161_" gradientUnits="userSpaceOnUse" x1="1066.5781" y1="33.291" x2="1066.5781" y2="115.0469" gradientTransform="matrix(0.9027 0.4302 0.4302 -0.9027 -659.3514 85.1087)"><stop offset="0.0056" style="stop-color:#DCE2FF"></stop><stop offset="1" style="stop-color:#CDCBF0"></stop></linearGradient><path style="fill:url(#leftXMLID_161_);stroke:#000000;stroke-linecap:round;stroke-linejoin:round;" d="M393.272,354.305c-0.026,0.058-0.016,0.629,0.52,1.237"></path><path d="M392.081,354.682c0,0-0.237-0.49-0.24-0.729c-0.006-0.238,0.392-0.921,0.468-0.885c0,0,0.28,0.25,0.548,0.332c0.269,0.081,0.799-0.042,0.831,0.185c-0.248,0.47-0.211,0.889-0.211,0.889s-0.6-0.027-0.808,0.016c-0.21,0.043-0.03,0.457-0.154,0.469C392.392,354.97,392.081,354.682,392.081,354.682z"></path><linearGradient id="leftXMLID_162_" gradientUnits="userSpaceOnUse" x1="1066.2695" y1="33.438" x2="1066.2695" y2="115.1251" gradientTransform="matrix(0.9027 0.4302 0.4302 -0.9027 -659.3514 85.1087)"><stop offset="0.0056" style="stop-color:#DCE2FF"></stop><stop offset="1" style="stop-color:#CDCBF0"></stop></linearGradient><path style="fill:url(#leftXMLID_162_);stroke:#000000;stroke-linecap:round;stroke-linejoin:round;" d="M393.412,353.619c0,0,0.429-1.047,1.486-1.438"></path></g><path style="fill:#FFFCD4;" d="M395.687,355.079c-0.096-0.048-1.27-0.651-1.401-0.574c-0.131,0.079-0.399,0.445-0.415,0.58c-0.019,0.132,0.626,1.406,1.262,1.401c0.638-0.003,1.325-1.346,1.151-1.476c-0.172-0.131-0.579,0.029-0.579,0.029"></path><path style="fill:#FFFCD4;" d="M392.492,355.206c-0.244-0.047-0.615,0.153-0.818,1.023c-0.202,0.87-0.17,1.193,0.101,1.369c0.271,0.174,1.891,0.382,2.02,0.112C393.923,357.442,393.227,355.344,392.492,355.206z"></path><path style="fill:#FFFCD4;" d="M391.091,355.081c0,0,0.204-0.233,0.297-0.378c0.093-0.144,0.476-0.009,0.539-0.192c0.062-0.181,0.018-0.531-0.432-0.676c-0.45-0.143-1.729-0.329-1.922,0.026C389.381,354.218,390.51,355.063,391.091,355.081z"></path></g><g><path style="fill:#E5CE95;stroke:#000000;stroke-linecap:round;stroke-linejoin:round;" d="M393.772,370.088c-0.106,0.226-1.654,3.087,0.573,4.611c2.228,1.522,6.204,0.927,6.895-0.131c0.688-1.057,0.742-2.138,0.742-2.138s2.255,1.075,3.523-0.813c1.271-1.887,2.797-5.866,0.185-7.942c-2.61-2.075-3.595-0.977-3.595-0.977s1.559-2.304-1.269-3.927c-2.826-1.623-5.761,0.856-6.216,2.393c-1.462-0.421-5.841,0.247-5.92,4.287C388.598,370.298,393.772,370.088,393.772,370.088z"></path><path style="fill:#AF9B76;" d="M394.815,361.997c0,0-0.164,2.37,1.923,4.194c1.658,0.975,2.214,0.778,2.214,0.778s3.237-2.241,3.34-2.748c0.103-0.505-0.38-1.333-0.603-1.348c0.188-0.879,1.334-2.318-1.247-3.778C398.129,357.947,395.708,358.961,394.815,361.997z"></path><g><linearGradient id="leftXMLID_163_" gradientUnits="userSpaceOnUse" x1="1051.7344" y1="34.6826" x2="1051.7344" y2="116.3336" gradientTransform="matrix(0.9027 0.4302 0.4302 -0.9027 -639.1151 94.7552)"><stop offset="0.0056" style="stop-color:#DCE2FF"></stop><stop offset="1" style="stop-color:#CDCBF0"></stop></linearGradient><path style="fill:url(#leftXMLID_163_);stroke:#000000;stroke-linecap:round;stroke-linejoin:round;" d="M393.941,370.027c0.108-0.132,0.685-1.148,2.39-1.722"></path><linearGradient id="leftXMLID_164_" gradientUnits="userSpaceOnUse" x1="1050.2969" y1="34.6885" x2="1050.2969" y2="116.3369" gradientTransform="matrix(0.9027 0.4302 0.4302 -0.9027 -639.1151 94.7552)"><stop offset="0.0056" style="stop-color:#DCE2FF"></stop><stop offset="1" style="stop-color:#CDCBF0"></stop></linearGradient><path style="fill:url(#leftXMLID_164_);stroke:#000000;stroke-linecap:round;stroke-linejoin:round;" d="M395.387,362.732c0,0-0.192,1.662,1.043,2.942"></path><linearGradient id="leftXMLID_165_" gradientUnits="userSpaceOnUse" x1="1054.6309" y1="34.6528" x2="1054.6309" y2="116.3194" gradientTransform="matrix(0.9027 0.4302 0.4302 -0.9027 -639.1151 94.7552)"><stop offset="0.0056" style="stop-color:#DCE2FF"></stop><stop offset="1" style="stop-color:#CDCBF0"></stop></linearGradient><path style="fill:url(#leftXMLID_165_);stroke:#000000;stroke-linecap:round;stroke-linejoin:round;" d="M398.193,367.207c-0.055,0.113-0.033,1.23,1.015,2.422"></path><path d="M395.858,367.943c0,0-0.466-0.96-0.474-1.426c-0.01-0.467,0.767-1.807,0.917-1.734c0,0,0.55,0.494,1.074,0.651c0.525,0.159,1.563-0.085,1.629,0.36c-0.485,0.923-0.414,1.74-0.414,1.74s-1.175-0.05-1.583,0.032c-0.41,0.081-0.059,0.895-0.302,0.918C396.465,368.508,395.858,367.943,395.858,367.943z"></path><linearGradient id="leftXMLID_166_" gradientUnits="userSpaceOnUse" x1="1054.0254" y1="34.6304" x2="1054.0254" y2="116.3075" gradientTransform="matrix(0.9027 0.4302 0.4302 -0.9027 -639.1151 94.7552)"><stop offset="0.0056" style="stop-color:#DCE2FF"></stop><stop offset="1" style="stop-color:#CDCBF0"></stop></linearGradient><path style="fill:url(#leftXMLID_166_);stroke:#000000;stroke-linecap:round;stroke-linejoin:round;" d="M398.466,365.861c0,0,0.837-2.049,2.91-2.814"></path></g><path style="fill:#FFFCD4;" d="M402.918,368.721c-0.188-0.088-2.484-1.277-2.742-1.122c-0.258,0.153-0.785,0.872-0.816,1.134c-0.032,0.262,1.226,2.754,2.474,2.75c1.25-0.007,2.597-2.641,2.256-2.896c-0.34-0.255-1.136,0.059-1.136,0.059"></path><path style="fill:#FFFCD4;" d="M396.66,368.969c-0.477-0.09-1.205,0.303-1.603,2.006c-0.396,1.705-0.328,2.337,0.2,2.682c0.528,0.344,3.704,0.751,3.955,0.223C399.465,373.353,398.101,369.241,396.66,368.969z"></path><path style="fill:#FFFCD4;" d="M393.916,368.724c0,0,0.401-0.457,0.582-0.738c0.182-0.281,0.933-0.017,1.057-0.374c0.122-0.356,0.035-1.044-0.846-1.325c-0.882-0.281-3.387-0.643-3.765,0.052C390.567,367.035,392.777,368.69,393.916,368.724z"></path></g></g><g><path style="fill:#E5CE95;stroke:#000000;stroke-linecap:round;stroke-linejoin:round;" d="M432.078,215.349c-0.107,0.225-1.355,3.23-3.941,2.46c-2.587-0.771-4.629-4.236-4.241-5.436c0.389-1.2,1.193-1.924,1.193-1.924s-2.258-1.076-1.589-3.25c0.667-2.174,2.796-5.867,6.053-5.146c3.255,0.722,3.022,2.178,3.022,2.178s0.808-2.662,3.85-1.49c3.041,1.173,2.964,5.015,2.058,6.336c1.245,0.871,3.485,4.693,0.399,7.298C435.175,219.501,432.078,215.349,432.078,215.349z"></path><path style="fill:#AF9B76;" d="M437.707,209.445c0,0-1.74,1.617-4.47,1.146c-1.803-0.674-1.998-1.229-1.998-1.229s-0.3-3.928,0.029-4.325c0.328-0.398,1.274-0.545,1.426-0.381c0.566-0.7,0.961-2.497,3.721-1.412C438.765,204.318,439.503,206.838,437.707,209.445z"></path><g><linearGradient id="leftXMLID_167_" gradientUnits="userSpaceOnUse" x1="1091.7461" y1="26.0718" x2="1091.7461" y2="107.7382" gradientTransform="matrix(0.9027 0.4302 0.4302 -0.9027 -705.619 63.0609)"><stop offset="0.0056" style="stop-color:#DCE2FF"></stop><stop offset="1" style="stop-color:#CDCBF0"></stop></linearGradient><path style="fill:url(#leftXMLID_167_);stroke:#000000;stroke-linecap:round;stroke-linejoin:round;" d="M432.02,215.181c0.033-0.168,0.46-1.258-0.168-2.941"></path><linearGradient id="leftXMLID_168_" gradientUnits="userSpaceOnUse" x1="1093.1826" y1="26.2192" x2="1093.1826" y2="107.8496" gradientTransform="matrix(0.9027 0.4302 0.4302 -0.9027 -705.619 63.0609)"><stop offset="0.0056" style="stop-color:#DCE2FF"></stop><stop offset="1" style="stop-color:#CDCBF0"></stop></linearGradient><path style="fill:url(#leftXMLID_168_);stroke:#000000;stroke-linecap:round;stroke-linejoin:round;" d="M436.774,209.462c0,0-1.169,1.196-2.942,1.042"></path><linearGradient id="leftXMLID_169_" gradientUnits="userSpaceOnUse" x1="1088.8496" y1="26.0728" x2="1088.8496" y2="107.7393" gradientTransform="matrix(0.9027 0.4302 0.4302 -0.9027 -705.619 63.0609)"><stop offset="0.0056" style="stop-color:#DCE2FF"></stop><stop offset="1" style="stop-color:#CDCBF0"></stop></linearGradient><path style="fill:url(#leftXMLID_169_);stroke:#000000;stroke-linecap:round;stroke-linejoin:round;" d="M431.532,210.102c-0.053,0.112-0.935,0.801-2.521,0.737"></path><path d="M432.432,212.377c0,0,1.037-0.243,1.405-0.528c0.367-0.287,0.92-1.733,0.769-1.805c0,0-0.729-0.116-1.183-0.425c-0.453-0.307-0.919-1.268-1.307-1.038c-0.408,0.958-1.089,1.419-1.089,1.419s0.778,0.88,0.974,1.249c0.191,0.369-0.661,0.609-0.525,0.811C431.609,212.263,432.432,212.377,432.432,212.377z"></path><linearGradient id="leftXMLID_170_" gradientUnits="userSpaceOnUse" x1="1089.4541" y1="26.0728" x2="1089.4541" y2="107.7394" gradientTransform="matrix(0.9027 0.4302 0.4302 -0.9027 -705.619 63.0609)"><stop offset="0.0056" style="stop-color:#DCE2FF"></stop><stop offset="1" style="stop-color:#CDCBF0"></stop></linearGradient><path style="fill:url(#leftXMLID_170_);stroke:#000000;stroke-linecap:round;stroke-linejoin:round;" d="M432.405,209.041c0,0,1.064-1.94,0.353-4.032"></path></g><path style="fill:#FFFCD4;" d="M427.38,207.385c0.189,0.09,2.556,1.125,2.6,1.423c0.042,0.297-0.184,1.16-0.366,1.349c-0.183,0.19-2.912,0.783-3.693-0.19c-0.783-0.973,0.413-3.679,0.826-3.576c0.412,0.104,0.669,0.919,0.669,0.919"></path><path style="fill:#FFFCD4;" d="M431.128,212.401c0.371,0.315,0.525,1.127-0.549,2.508c-1.073,1.381-1.607,1.729-2.207,1.534c-0.602-0.195-2.916-2.405-2.665-2.931C425.958,212.984,430.01,211.453,431.128,212.401z"></path><path style="fill:#FFFCD4;" d="M433.047,214.379c0,0,0.101-0.599,0.207-0.918c0.105-0.319-0.573-0.735-0.374-1.056c0.199-0.32,0.789-0.684,1.563-0.178c0.773,0.508,2.633,2.225,2.329,2.958C436.469,215.916,433.79,215.241,433.047,214.379z"></path></g></g><g><g><path style="fill:#555466;stroke:#000000;stroke-linecap:round;stroke-linejoin:round;" d="M296.65,316.924c0,0,28.336-33.67,35.545-44.133c7.208-10.462,45.36-63.098,45.36-63.098l17.454-24.177l25.8,15.312l-82.991,141.453l-0.072,13.438l-35.087,4.733l-12.895-16.318L296.65,316.924z"></path><g><g><polygon style="fill:#E5CE95;" points="305.961,310.681 317.503,297.717 317.454,297.778 394.183,191.114 394.593,190.544 395.188,190.916 414.721,203.082 415.343,203.47 414.971,204.1 337.02,336.34 337.11,336.105 333.38,355.031 331.909,354.741 335.637,335.814 335.663,335.689 335.727,335.578 413.678,203.339 413.927,204.356 394.396,192.19 395.4,191.99 318.671,298.655 318.648,298.687 318.622,298.716 307.08,311.677 "></polygon></g><path style="fill:#E5CE95;" d="M404.712,197.869c0,0-5.772,6.481,2.044,17.934c3.187-4.51,8.215-11.703,8.215-11.703L404.712,197.869z"></path></g></g><g><path style="fill:#E5CE95;stroke:#000000;stroke-linecap:round;stroke-linejoin:round;" d="M369.236,221.245c0,0-0.049-0.411,0.297-1.175c0.344-0.765,8.389-12.671,8.938-13.122c0.549-0.451,1.533-0.654,1.92-1.488c0.387-0.834,0.45-1.278,0.618-1.567c0.166-0.289,1.636-2.67,1.855-2.874c0.83-0.771,0.907-1.401,1.002-1.73c0.094-0.331,10.513-15.675,10.885-15.653c0.37,0.022,8.856,5.992,9.063,6.302c0.203,0.311,0.098,0.826,0.387,0.994c0.289,0.168,1.58,0.434,1.58,0.434l3.729,2.542c0,0-4.361,9.625-9.782,14.077c-7.153,5.875-11.747,2.852-17.763,4.742C375.494,214.757,369.236,221.245,369.236,221.245z"></path><path style="fill:#FFFCD4;" d="M373.762,215.586c0.21-0.361,4.281-5.899,5.112-6.671c0.831-0.771,2.136-1.364,2.622-1.371c0.485-0.008,4.864,1.08,4.799,1.524C386.23,209.512,373.762,215.586,373.762,215.586z"></path><path style="fill:#FFFCD4;" d="M391.562,190.646c0,0-5.315,6.358-5.373,7.29c-0.057,0.93,3.603,0.928,4.222,1.19c0.618,0.262,3.182,0.493,3.742-0.145c0.562-0.638-2.047-1.955-2.047-1.955S392.108,190.865,391.562,190.646z"></path><path style="fill:#FFFCD4;" d="M381.529,205.157c0.239-0.247,4.063-2.367,6.1-2.055c2.035,0.31,5.603,1.796,8.804,0.759c3.198-1.036,5.843-4.609,5.857-5.467c0.015-0.858,0.583,6.979-5.648,8.765c-6.231,1.788-8.436-3.724-10.516-3.291C384.046,204.302,381.529,205.157,381.529,205.157z"></path><path style="fill:#C4AC80;" d="M384.417,198.836c0,0-0.315,0.877-0.151,1.26c0.161,0.383,9.257,0.637,11.921-0.805c2.665-1.444,7.201-9.12,7.201-9.12l-8.557-6.011L384.417,198.836z"></path><path style="fill:#AF9B76;" d="M391.716,188.714c-0.095,0.331-0.398,1.021,0.034,1.272c0.434,0.251,2.89-0.832,3.269-0.323c0.379,0.507,2.975,6.341,3.678,6.458c0.7,0.118,1.118-0.603,1.118-0.603s-0.613,2.724-4.55,4.202c-3.936,1.479-9.367-1.279-12.184,1.424c-0.053,0.257-0.053,0.257-0.053,0.257s3.183,0.492,5.481,1.342c2.3,0.85,5.887,2.637,9.892,0.042c4.003-2.593,3.715-4.59,4.021-5.953c0.307-1.363,0.575-6.984,0.575-6.984l-8.249-5.542L391.716,188.714z"></path><g><path style="fill:none;stroke:#000000;stroke-linecap:round;stroke-linejoin:round;" d="M380.11,205.779c0,0,4.965-2.423,6.143-2.128c1.176,0.296,7.074,2.747,8.855,2.333c1.777-0.415,6.397-3.905,6.895-5.928c0.497-2.024,0.261-4.279,0.917-5.246c0.655-0.968,2.053-3.05,2.053-3.05"></path><path style="fill:none;stroke:#000000;stroke-linecap:round;stroke-linejoin:round;" d="M383.632,200.692c0,0,3.271-0.996,5.161-0.77c1.892,0.228,5.132,1.424,8.225-1.402c3.678-3.361,6.269-8.503,6.269-8.503"></path></g></g><g><g><path style="fill:#E5CE95;stroke:#000000;stroke-linecap:round;stroke-linejoin:round;" d="M293.979,386.322c0,0,5.147,0.985,6.624-3.431c1.476-4.417-2.155-11.583-1.881-12.646c0.271-1.063,2.833-6.111,4.359-7.192c0.436-3.021,0.888-7.32,0.888-7.32s-3.93,1.178-5.742-2.195c-1.814-3.376-1.886-8.381-1.886-8.381s-7.747-21.255-8.248-20.477c-0.504,0.777-5.135,4.532-6.851,7.829c0,0,4.292,4.793,6.638,11.819c2.814,8.429-3.475,14.188,1.393,24.768c1.982-0.509,5.077-1.676,6.673,2.247c1.598,3.924-0.178,7.734-3.273,8.9c-3.095,1.168-8.061-0.525-8.926-4.94c-3.402,2.07-5.777,4.254-6.479,4.487c-0.704,0.235-9.733,1.424-14.425,7.618c-4.69,6.195-6.157,11.446-6.157,11.446s5.451-2.473,11.765-2.404c8.89,0.098,11.602,1.989,12.596,1.943C282.038,398.348,293.979,386.322,293.979,386.322z"></path><path style="fill:#C4AC80;" d="M302.584,362.912c-0.416,0.006-3.427,1.969-4.011,1.593c-0.582-0.377-1.462-1.359-2.918-2.302c-1.459-0.94-4.165-2.505-5.431-2.037c-0.969-1.271-1.606-5.399-1.584-6.074c0.023-0.673,1.74-6.313-2.196-14.503c-2.728-4.516-4.784-7.085-4.784-7.085s4.441-6.554,6.57-7.934c0.509,1.982,4.066,4.951,4.066,4.951l2.024,7.237L293.54,351.2l2.453-3.372c0,0,0.655,5.378,2.508,6.989c1.85,1.608,4.771,1.568,4.771,1.568L302.584,362.912z"></path><path style="fill:#FFFCD4;" d="M279.508,395.287c0,0-13.166-3.276-19.917,0.35c4.928-3.15,7.897-4.124,11.537-3.148C274.767,393.463,279.508,395.287,279.508,395.287z"></path><path style="fill:#FFFCD4;" d="M291.396,367.303c0,0-1.469,0.566-1.76,0.378s0.181-3.051,0.66-3.154C290.775,364.423,291.396,367.303,291.396,367.303z"></path><path style="fill:#FFFCD4;" d="M294.807,367.991c0,0-2.125-0.547-2.323-1.088c-0.202-0.544-0.906-2.65-0.169-2.727C293.05,364.103,295.338,366.957,294.807,367.991z"></path><path style="fill:#FFFCD4;" d="M285.575,337.1c0,0-3.173-4.253-3.214-4.83c-0.039-0.577,2.866-3.795,3.357-3.063S285.575,337.1,285.575,337.1z"></path><path style="fill:#AF9B76;" d="M292.553,380.856c0,0,1.856-0.314,3.299-2.55c1.446-2.234,1.19-6.529,1.07-5.919c-0.118,0.612,2.683,3.524,0.861,6.341S292.553,380.856,292.553,380.856z"></path><path style="fill:#AF9B76;" d="M302.838,357.481c0,0-3.13,1.008-4.89-0.957c-1.761-1.963-2.191-5.133-2.483-5.321c-0.291-0.189-2.367,4.942-1.863,6.508c0.502,1.564,1.966,2.923,2.32,3.014C296.276,360.816,299.327,360.998,302.838,357.481z"></path><path style="fill:none;stroke:#000000;stroke-linecap:round;stroke-linejoin:round;" d="M284.963,378.432c0,0-1.235,3.402-4.873,4.769c-3.639,1.367-10.822,2.109-14.206,6.106c-4.07,4.806-4.368,7.506-4.368,7.506"></path><path style="fill:none;stroke:#000000;stroke-linecap:round;stroke-linejoin:round;" d="M286.472,379.613c0,0-1.201,3.317-4.693,5.022c-3.823,1.867-11.685,2.171-15.07,6.167c-2.395,2.826-3.186,4.358-3.677,5.607"></path><path style="fill:none;stroke:#000000;stroke-linecap:round;stroke-linejoin:round;" d="M292.264,368.094c0,0-2.434-4.052-2.039-7.928c0.394-3.877,1.557-9.368,0.931-11.243"></path></g><g><g><path style="fill:#C4AC80;stroke:#000000;stroke-linecap:round;stroke-linejoin:round;" d="M288.391,323.795c-0.08,0.388-0.7,3.207-0.347,3.845c0.353,0.637,3.433,1.554,4.705,7.343c1.271,5.788,0.834,12.036,2.293,14.757c1.991-4.191,6.91-10.444,8.098-15.244c1.188-4.801-2.17-17.718-4.327-19.978C294.57,316.107,288.391,323.795,288.391,323.795z"></path><path style="fill:#AF9B76;" d="M295.927,320.503c0,0-0.566,4.726,0.885,8.453c1.454,3.73,3.402,7.603,3.402,7.603l-2.741,8.232c0,0,4.41-7.125,5.057-9.493c0.649-2.369-1.723-13.994-1.984-14.29S295.927,320.503,295.927,320.503z"></path><path style="fill:none;stroke:#000000;stroke-linecap:round;stroke-linejoin:round;" d="M295.511,319.974c0,0,2.328,11.454,4.509,15.171c-2.794,5.413-2.86,10.187-2.86,10.187"></path></g><path style="fill:#FFFCD4;" d="M289.347,324.638c0,0,0.964,2.578,2.119,3.826c0.414-2.215,3.709-9.408,2.981-9.396C293.718,319.08,290.166,322.224,289.347,324.638z"></path></g><g><path style="fill:#E5CE95;stroke:#000000;stroke-linecap:round;stroke-linejoin:round;" d="M278.194,403.822c0,0,2.763-12.265,9.293-18.308c2.937-1.334,4.024-1.716,4.024-1.716s3.332,5.973,7.892,5.577c4.561-0.394,7.4-3.805,6.574-8.616c-0.828-4.812-4.31-17.513-2.277-23.268c1.654-2.365,8.278-17.307,12.871-21.004c5.988-3.611,13.474-6.067,13.474-6.067s-7.148,6.117-6.793,12.244c0.355,6.126,9.393,12.221,9.393,12.221l-15.833,41.096c0,0-1.314,2.272-5.289,3.15c1.635,1.668,4.544,2.629,4.544,2.629s-4.098,3.838-11.533,2.714C297.096,403.35,286.493,397.215,278.194,403.822z"></path><g><path style="fill:#E5CE95;stroke:#000000;stroke-linecap:round;stroke-linejoin:round;" d="M286.156,393.554c0,0,3.558-1.406,9.646-0.196c6.086,1.212,10.613,1.375,14.802-2.122"></path><g><path style="fill:#AF9B76;" d="M314.317,340.384c0,0,0.659-1.639,2.032-3.011c0.637-0.64,7.542-4.303,13.229-6.644c-4.047,3.002-7.461,6.657-6.4,14.059C320.306,339.517,314.317,340.384,314.317,340.384z"></path><path style="fill:#AF9B76;" d="M306.383,403.523c-0.374-0.022,2.67-3.365,3.507-3.314s3.405,1.104,3.495,1.444C313.478,401.995,308.335,403.642,306.383,403.523z"></path><path style="fill:#FFFCD4;" d="M300.739,395.059c0,0,6.119,0.653,8.926-2.2c4.395,1.388,5.723,2.589,5.723,2.589S307.018,397.681,300.739,395.059z"></path><path style="fill:#FFFCD4;" d="M279.646,402.062c0,0,3.17-4.23,5.311-4.436c2.142-0.207,11.297,3.936,13.124,4.271c-4.383-0.659-7.828-2.941-11.398-2.263C283.112,400.313,279.646,402.062,279.646,402.062z"></path><path style="fill:#AF9B76;" d="M294.171,387.938c0,0,2.91,3.705,5.74,5.053c2.831,1.35,7.175,0.83,9.714-1.312c1.684-4.658-3.335-11.46-3.335-11.46s1.163,2.982-1.458,6.666C300.595,392.81,294.171,387.938,294.171,387.938z"></path></g></g></g></g><g><g><path style="fill:#E5CE95;stroke:#000000;stroke-linecap:round;stroke-linejoin:round;" d="M315.685,316.115c-0.063,0.11-0.82,1.589-2.105,1.091c-1.285-0.497-2.182-2.342-1.938-2.938c0.247-0.595,0.686-0.932,0.686-0.932s-1.103-0.638-0.675-1.717c0.428-1.08,1.661-2.873,3.289-2.374c1.627,0.5,1.448,1.232,1.448,1.232s0.52-1.322,2.021-0.603c1.502,0.721,1.307,2.673,0.789,3.308c0.6,0.495,1.584,2.53-0.093,3.73C317.093,318.354,315.685,316.115,315.685,316.115z"></path><path style="fill:#AF9B76;" d="M318.79,313.34c0,0-0.951,0.751-2.321,0.401c-0.891-0.416-0.968-0.706-0.968-0.706s0.009-2.011,0.191-2.199c0.184-0.188,0.67-0.227,0.743-0.136c0.315-0.334,0.59-1.231,1.949-0.568C319.536,310.774,319.81,312.087,318.79,313.34z"></path><g><linearGradient id="leftXMLID_171_" gradientUnits="userSpaceOnUse" x1="348.2275" y1="61.4741" x2="348.2275" y2="143.0802" gradientTransform="matrix(-0.8656 -0.5008 0.5008 -0.8656 498.848 694.066)"><stop offset="0.0056" style="stop-color:#DCE2FF"></stop><stop offset="1" style="stop-color:#CDCBF0"></stop></linearGradient><path style="fill:url(#leftXMLID_171_);stroke:#000000;stroke-linecap:round;stroke-linejoin:round;" d="M315.663,316.027c0.023-0.083,0.284-0.62,0.033-1.504"></path><linearGradient id="leftXMLID_172_" gradientUnits="userSpaceOnUse" x1="347.4932" y1="61.3442" x2="347.4932" y2="143.0107" gradientTransform="matrix(-0.8656 -0.5008 0.5008 -0.8656 498.848 694.066)"><stop offset="0.0056" style="stop-color:#DCE2FF"></stop><stop offset="1" style="stop-color:#CDCBF0"></stop></linearGradient><path style="fill:url(#leftXMLID_172_);stroke:#000000;stroke-linecap:round;stroke-linejoin:round;" d="M318.315,313.312c0,0-0.644,0.562-1.54,0.411"></path><linearGradient id="leftXMLID_173_" gradientUnits="userSpaceOnUse" x1="349.7051" y1="61.1519" x2="349.7051" y2="142.9077" gradientTransform="matrix(-0.8656 -0.5008 0.5008 -0.8656 498.848 694.066)"><stop offset="0.0056" style="stop-color:#DCE2FF"></stop><stop offset="1" style="stop-color:#CDCBF0"></stop></linearGradient><path style="fill:url(#leftXMLID_173_);stroke:#000000;stroke-linecap:round;stroke-linejoin:round;" d="M315.622,313.424c-0.032,0.056-0.51,0.368-1.313,0.272"></path><path d="M315.986,314.619c0,0,0.538-0.082,0.737-0.214c0.198-0.13,0.536-0.844,0.463-0.886c0,0-0.364-0.09-0.583-0.265c-0.219-0.176-0.417-0.683-0.624-0.58c-0.246,0.471-0.611,0.677-0.611,0.677s0.36,0.479,0.443,0.674c0.084,0.197-0.359,0.284-0.3,0.393C315.572,314.527,315.986,314.619,315.986,314.619z"></path><linearGradient id="leftXMLID_174_" gradientUnits="userSpaceOnUse" x1="349.3965" y1="61.3887" x2="349.3965" y2="143.0346" gradientTransform="matrix(-0.8656 -0.5008 0.5008 -0.8656 498.848 694.066)"><stop offset="0.0056" style="stop-color:#DCE2FF"></stop><stop offset="1" style="stop-color:#CDCBF0"></stop></linearGradient><path style="fill:url(#leftXMLID_174_);stroke:#000000;stroke-linecap:round;stroke-linejoin:round;" d="M316.109,312.92c0,0,0.62-0.945,0.344-2.038"></path></g><path style="fill:#FFFCD4;" d="M313.618,311.871c0.093,0.054,1.255,0.679,1.266,0.831c0.009,0.153-0.141,0.582-0.242,0.671c-0.1,0.089-1.515,0.279-1.871-0.248c-0.358-0.526,0.359-1.854,0.565-1.784c0.206,0.068,0.304,0.494,0.304,0.494"></path><path style="fill:#FFFCD4;" d="M315.32,314.577c0.177,0.176,0.223,0.594-0.38,1.254c-0.603,0.659-0.888,0.815-1.187,0.69c-0.297-0.123-1.385-1.341-1.235-1.599C312.668,314.664,314.793,314.05,315.32,314.577z"></path><path style="fill:#FFFCD4;" d="M316.218,315.661c0,0,0.076-0.3,0.143-0.458c0.066-0.157-0.263-0.397-0.146-0.553c0.114-0.154,0.429-0.316,0.802-0.027c0.372,0.29,1.249,1.239,1.065,1.601C317.896,316.583,316.562,316.131,316.218,315.661z"></path></g><g><path style="fill:#E5CE95;stroke:#000000;stroke-linecap:round;stroke-linejoin:round;" d="M302.327,321.944c-0.125,0.214-1.608,3.111-4.126,2.137c-2.517-0.976-4.276-4.591-3.794-5.758c0.48-1.164,1.343-1.821,1.343-1.821s-2.162-1.251-1.325-3.366s3.255-5.625,6.444-4.647c3.188,0.978,2.84,2.411,2.84,2.411s1.017-2.588,3.955-1.177c2.938,1.412,2.555,5.235,1.546,6.479c1.173,0.968,3.102,4.956-0.185,7.307C305.083,326.33,302.327,321.944,302.327,321.944z"></path><path style="fill:#AF9B76;" d="M308.407,316.506c0,0-1.862,1.475-4.546,0.788c-1.742-0.816-1.896-1.385-1.896-1.385s0.017-3.938,0.376-4.309c0.357-0.37,1.313-0.442,1.452-0.267c0.619-0.652,1.156-2.411,3.821-1.11C309.87,311.481,310.405,314.051,308.407,316.506z"></path><g><linearGradient id="leftXMLID_175_" gradientUnits="userSpaceOnUse" x1="334.8633" y1="62.5112" x2="334.8633" y2="144.1777" gradientTransform="matrix(-0.8656 -0.5008 0.5008 -0.8656 479.4456 682.8414)"><stop offset="0.0056" style="stop-color:#DCE2FF"></stop><stop offset="1" style="stop-color:#CDCBF0"></stop></linearGradient><path style="fill:url(#leftXMLID_175_);stroke:#000000;stroke-linecap:round;stroke-linejoin:round;" d="M302.281,321.771c0.048-0.164,0.559-1.216,0.067-2.945"></path><linearGradient id="leftXMLID_176_" gradientUnits="userSpaceOnUse" x1="333.4258" y1="62.5112" x2="333.4258" y2="144.1777" gradientTransform="matrix(-0.8656 -0.5008 0.5008 -0.8656 479.4456 682.8414)"><stop offset="0.0056" style="stop-color:#DCE2FF"></stop><stop offset="1" style="stop-color:#CDCBF0"></stop></linearGradient><path style="fill:url(#leftXMLID_176_);stroke:#000000;stroke-linecap:round;stroke-linejoin:round;" d="M307.478,316.45c0,0-1.261,1.1-3.017,0.806"></path><linearGradient id="leftXMLID_177_" gradientUnits="userSpaceOnUse" x1="337.7598" y1="62.5576" x2="337.7598" y2="144.2014" gradientTransform="matrix(-0.8656 -0.5008 0.5008 -0.8656 479.4456 682.8414)"><stop offset="0.0056" style="stop-color:#DCE2FF"></stop><stop offset="1" style="stop-color:#CDCBF0"></stop></linearGradient><path style="fill:url(#leftXMLID_177_);stroke:#000000;stroke-linecap:round;stroke-linejoin:round;" d="M302.2,316.67c-0.063,0.108-0.996,0.723-2.571,0.533"></path><path d="M302.914,319.011c0,0,1.056-0.159,1.444-0.416c0.391-0.257,1.055-1.655,0.91-1.737c0,0-0.718-0.175-1.145-0.518c-0.429-0.344-0.814-1.337-1.219-1.139c-0.485,0.922-1.201,1.326-1.201,1.326s0.707,0.94,0.871,1.323c0.165,0.384-0.706,0.554-0.588,0.768C302.106,318.83,302.914,319.011,302.914,319.011z"></path><linearGradient id="leftXMLID_178_" gradientUnits="userSpaceOnUse" x1="337.1553" y1="62.4673" x2="337.1553" y2="144.1549" gradientTransform="matrix(-0.8656 -0.5008 0.5008 -0.8656 479.4456 682.8414)"><stop offset="0.0056" style="stop-color:#DCE2FF"></stop><stop offset="1" style="stop-color:#CDCBF0"></stop></linearGradient><path style="fill:url(#leftXMLID_178_);stroke:#000000;stroke-linecap:round;stroke-linejoin:round;" d="M303.155,315.684c0,0,1.216-1.851,0.673-3.993"></path></g><path style="fill:#FFFCD4;" d="M298.277,313.631c0.18,0.104,2.46,1.325,2.478,1.625c0.021,0.3-0.274,1.142-0.472,1.315c-0.198,0.175-2.965,0.549-3.668-0.484c-0.702-1.033,0.708-3.635,1.11-3.498c0.403,0.137,0.595,0.969,0.595,0.969"></path><path style="fill:#FFFCD4;" d="M301.615,318.93c0.344,0.343,0.433,1.165-0.747,2.457c-1.181,1.291-1.74,1.593-2.323,1.353c-0.583-0.242-2.715-2.629-2.423-3.135S300.576,317.896,301.615,318.93z"></path><path style="fill:#FFFCD4;" d="M303.37,321.054c0,0,0.149-0.589,0.279-0.897s-0.514-0.778-0.289-1.083c0.225-0.303,0.841-0.619,1.571-0.054c0.732,0.569,2.447,2.43,2.087,3.134C306.658,322.858,304.042,321.974,303.37,321.054z"></path></g></g><g><path style="fill:#E5CE95;stroke:#000000;stroke-linecap:round;stroke-linejoin:round;" d="M408.221,202.788c-0.125,0.217-1.896,2.946,0.203,4.642s6.111,1.419,6.882,0.419c0.77-0.999,0.91-2.072,0.91-2.072s2.164,1.252,3.579-0.529c1.414-1.782,3.255-5.626,0.817-7.904c-2.438-2.275-3.507-1.259-3.507-1.259s1.736-2.172-0.95-4.016c-2.688-1.843-5.813,0.395-6.389,1.89c-1.424-0.535-5.842-0.218-6.242,3.801C403.044,202.585,408.221,202.788,408.221,202.788z"></path><path style="fill:#AF9B76;" d="M409.902,194.806c0,0-0.349,2.35,1.584,4.334c1.576,1.105,2.145,0.952,2.145,0.952s3.407-1.976,3.549-2.472c0.143-0.496-0.271-1.359-0.492-1.392c0.256-0.862,1.514-2.204-0.943-3.866C413.53,191.033,411.034,191.85,409.902,194.806z"></path><g><linearGradient id="leftXMLID_179_" gradientUnits="userSpaceOnUse" x1="374.876" y1="54.0474" x2="374.876" y2="135.6829" gradientTransform="matrix(-0.8656 -0.5008 0.5008 -0.8656 543.2103 719.7321)"><stop offset="0.0056" style="stop-color:#DCE2FF"></stop><stop offset="1" style="stop-color:#CDCBF0"></stop></linearGradient><path style="fill:url(#leftXMLID_179_);stroke:#000000;stroke-linecap:round;stroke-linejoin:round;" d="M408.393,202.74c0.119-0.121,0.777-1.089,2.521-1.525"></path><linearGradient id="leftXMLID_180_" gradientUnits="userSpaceOnUse" x1="376.3125" y1="54.0698" x2="376.3125" y2="135.7002" gradientTransform="matrix(-0.8656 -0.5008 0.5008 -0.8656 543.2103 719.7321)"><stop offset="0.0056" style="stop-color:#DCE2FF"></stop><stop offset="1" style="stop-color:#CDCBF0"></stop></linearGradient><path style="fill:url(#leftXMLID_180_);stroke:#000000;stroke-linecap:round;stroke-linejoin:round;" d="M410.416,195.585c0,0-0.325,1.641,0.805,3.016"></path><linearGradient id="leftXMLID_181_" gradientUnits="userSpaceOnUse" x1="371.9805" y1="53.9233" x2="371.9805" y2="135.5899" gradientTransform="matrix(-0.8656 -0.5008 0.5008 -0.8656 543.2103 719.7321)"><stop offset="0.0056" style="stop-color:#DCE2FF"></stop><stop offset="1" style="stop-color:#CDCBF0"></stop></linearGradient><path style="fill:url(#leftXMLID_181_);stroke:#000000;stroke-linecap:round;stroke-linejoin:round;" d="M412.855,200.269c-0.063,0.107-0.131,1.224,0.818,2.496"></path><path d="M410.47,200.815c0,0-0.388-0.993-0.359-1.458c0.028-0.465,0.908-1.738,1.055-1.655c0,0,0.507,0.536,1.019,0.734c0.509,0.2,1.565,0.041,1.595,0.49c-0.559,0.879-0.553,1.701-0.553,1.701s-1.167-0.144-1.581-0.095c-0.413,0.05-0.128,0.889-0.371,0.893S410.47,200.815,410.47,200.815z"></path><linearGradient id="leftXMLID_182_" gradientUnits="userSpaceOnUse" x1="372.584" y1="53.9233" x2="372.584" y2="135.59" gradientTransform="matrix(-0.8656 -0.5008 0.5008 -0.8656 543.2103 719.7321)"><stop offset="0.0056" style="stop-color:#DCE2FF"></stop><stop offset="1" style="stop-color:#CDCBF0"></stop></linearGradient><path style="fill:url(#leftXMLID_182_);stroke:#000000;stroke-linecap:round;stroke-linejoin:round;" d="M413.235,198.948c0,0,0.997-1.974,3.125-2.573"></path></g><path style="fill:#FFFCD4;" d="M417.444,202.155c-0.18-0.105-2.373-1.471-2.644-1.338c-0.269,0.133-0.852,0.808-0.905,1.065c-0.053,0.257,1.003,2.843,2.248,2.937c1.245,0.095,2.799-2.424,2.48-2.705c-0.319-0.28-1.138-0.031-1.138-0.031"></path><path style="fill:#FFFCD4;" d="M411.188,201.903c-0.469-0.127-1.227,0.206-1.757,1.872c-0.531,1.667-0.515,2.303-0.016,2.688c0.5,0.386,3.633,1.043,3.925,0.538C413.633,206.496,412.603,202.289,411.188,201.903z"></path><path style="fill:#FFFCD4;" d="M408.473,201.44c0,0,0.437-0.422,0.639-0.69c0.203-0.268,0.93,0.057,1.082-0.289c0.151-0.345,0.118-1.038-0.736-1.389c-0.857-0.351-3.325-0.912-3.758-0.247C405.268,199.489,407.341,201.316,408.473,201.44z"></path></g></g></g><g><g><g><path style="fill:#D5D9FC;stroke:#000000;stroke-linecap:round;stroke-linejoin:round;" d="M354.197,382.627c-0.004,0.186,1.813,2.46,3.839,1.832c2.026-0.629,3.665-2.31,3.665-2.31s3.71,0.824,4.187-0.62c0.478-1.444-1.104-4.16-1.287-4.351c-0.183-0.189,1.083-0.088,1.533-0.229c0.449-0.141,2.693-2.256,2.86-3.109c0.168-0.854,0.245-2.79-1.563-5.438c-1.809-2.646-3.749-2.539-3.749-2.539s-2.23-2.021-3.687-1.94c-1.455,0.082-5.337,2.087-5.985,4.571c-0.648,2.483,0.644,4.858,0.644,4.858l-1.273,2.062L354.197,382.627z"></path><g><path style="fill:none;stroke:#000000;stroke-linecap:round;stroke-linejoin:round;" d="M361.708,381.777c0,0-0.226-1.719-1.39-3.086"></path><path style="fill:none;stroke:#000000;stroke-linecap:round;stroke-linejoin:round;" d="M356.478,375.256c0,0-1.467-1.148-1.933-2.053"></path><path style="fill:none;stroke:#000000;stroke-linecap:round;stroke-linejoin:round;" d="M359.505,369.505c0,0,0.873-2.554-0.687-4.6"></path></g></g><path style="fill:#FDFEFD;" d="M357.72,374.686l-0.167,0.854c0,0,2.184,0.68,1.874,1.27c-0.311,0.589-0.795,0.617-1.168,0.608c-0.373-0.007-1.767-1.117-1.755-1.678c0.012-0.559,0.711-1.886,0.711-1.886l1.281-0.643c0,0,0.284-1.075,0.4-1.297c0.116-0.221,1.781-3.206,2.263-3.047s0.892,0.095,0.698,0.463c-0.194,0.368-1.743,3.131-1.743,3.131s2.14-0.662,2.508-0.468c0.516,0.271,1.365,0.624,1.249,0.845c-0.116,0.222-1.319,0.718-1.319,0.718l-0.254,1.375c0,0,1.954-0.668,2.241-0.14c0.286,0.527,0.224,1.719-0.377,1.968c-0.603,0.249-2.919,0.535-3.436,0.263c-0.517-0.271-2.308-1.874-2.005-2.092c0.301-0.218,1.566-0.116,1.566-0.116l0.536-0.659L357.72,374.686z"></path></g><g><g><path style="fill:#D5D9FC;stroke:#000000;stroke-linecap:round;stroke-linejoin:round;" d="M314.386,361.667c-0.15,0.108-3.054-0.103-3.683-2.128c-0.629-2.026-0.171-4.328-0.171-4.328s-2.777-2.593-1.857-3.804s4.056-1.443,4.315-1.4c0.261,0.043-0.54-0.942-0.68-1.394c-0.139-0.449,0.335-3.497,0.944-4.118c0.609-0.62,2.162-1.779,5.369-1.788c3.205-0.008,4.214,1.654,4.214,1.654s2.93,0.694,3.688,1.941c0.756,1.245,1.299,5.58-0.381,7.521c-1.682,1.939-4.371,2.219-4.371,2.219l-0.979,2.217L314.386,361.667z"></path><g><path style="fill:none;stroke:#000000;stroke-linecap:round;stroke-linejoin:round;" d="M310.836,354.994c0,0,1.545-0.787,3.33-0.601"></path><path style="fill:none;stroke:#000000;stroke-linecap:round;stroke-linejoin:round;" d="M319.173,355.616c0,0,1.776,0.559,2.786,0.432"></path><path style="fill:none;stroke:#000000;stroke-linecap:round;stroke-linejoin:round;" d="M322.201,349.865c0,0,1.61-2.164,4.18-2.038"></path></g></g><path style="fill:#FDFEFD;" d="M318.94,354.269l-0.61,0.621c0,0-1.797-1.416-2.107-0.826c-0.311,0.589-0.059,1.005,0.159,1.308c0.218,0.304,1.921,0.823,2.375,0.497c0.455-0.326,1.154-1.653,1.154-1.653l-0.195-1.42c0,0,0.727-0.843,0.843-1.064c0.116-0.221,1.634-3.283,1.23-3.589c-0.403-0.307-0.582-0.683-0.776-0.314c-0.193,0.368-1.596,3.209-1.596,3.209s-0.664-2.139-1.031-2.332c-0.517-0.271-1.288-0.772-1.404-0.552c-0.116,0.222,0.153,1.494,0.153,1.494l-0.988,0.986c0,0-0.556-1.987-1.153-1.926c-0.598,0.063-1.544,0.789-1.409,1.425c0.135,0.637,1.21,2.708,1.727,2.98s2.853,0.842,2.86,0.47c0.009-0.372-0.791-1.358-0.791-1.358l0.24-0.814L318.94,354.269z"></path></g></g><g><path style="fill:#D5D9FC;stroke:#000000;stroke-linecap:round;stroke-linejoin:round;" d="M338.063,397.112c0,0,1.443,0.477,3.237,0.291c1.793-0.187,7.696-1.739,10.357-5.989c1.934-1.525,5.188-4.756,5.195-10.403c0.007-5.646-4.767-9.997-4.767-9.997l1.175-0.087c0,0,2.726-7.323-3.265-12.313c-5.989-4.99-12.65-4.682-15.707-2.901c-1.577-2.102-10.461-5.084-15.701-0.496c-5.239,4.587-4.733,7.113-4.733,7.113s-2.608,1.734-4.035,5.786c-2.312,3.586-4.396,4.325-2.872,11.626s4.604,12.453,8.405,12.478c1.857-0.576,2.707-1.118,2.707-1.118s1.682,5.123,5.646,8.058c3.964,2.937,3.836,3.716,3.836,3.716S335.588,403.154,338.063,397.112z"></path><radialGradient id="leftXMLID_183_" cx="544.1768" cy="192.7891" r="16.2633" gradientTransform="matrix(-1.1021 -0.5802 0.5802 -1.1021 820.3505 902.5806)" gradientUnits="userSpaceOnUse"><stop offset="0.0056" style="stop-color:#FFFEFC"></stop><stop offset="0.6966" style="stop-color:#FEFDFC"></stop><stop offset="1" style="stop-color:#DDDEFA"></stop></radialGradient><path style="fill:url(#leftXMLID_183_);" d="M341.141,385.981c-0.387,0.734-2.069,5.715-4.13,6.506c-2.06,0.792-2.324,0.472-3.073,0.493c-3.811,0.105-7.176,1.148-7.619,0.211c-0.444-0.938-0.039-2.601-0.039-2.601s-0.753,0.541-2.213-0.696c-1.461-1.238-2.456-2.466-3.006-2.756c-0.552-0.29-1.421-3.094-1.973-3.384c-0.552-0.291-4.999-0.755-6.624-3.018c-1.623-2.263-0.752-3.916-0.365-4.65s1.993-2,1.171-2.669c-0.823-0.667-1.904-2.175-1.14-3.18c0.762-1.006,2.542-1.713,2.542-1.713s3.199-2.068,3.489-2.619c0.291-0.551-0.571-3.82,0.572-5.096c1.141-1.273,2.89-0.588,2.89-0.588c3.182-1.141,5.057-2.029,5.686-0.996c0.629,1.036,0.978,2.157,1.924,1.248c0.948-0.909,1.519-1.546,2.359-1.807c0.842-0.262,1.876-0.89,2.794-0.406c0.918,0.482,2.504,0.144,2.504,0.144s0.231-2.221,2.349-1.343c2.118,0.88,1.663,0.406,2.012,1.528c0.35,1.122-0.405,1.663,1.45,1.702c1.855,0.038,2.688,0.242,2.688,0.242s1.363,1.42,1.16,2.252c-0.204,0.833,0.774,2.988,0.774,2.988c-0.06,2.783-0.465,4.447-0.465,4.447s1.304-0.252,2.291,1.439c0.984,1.692,2.2,2.021,1.98,2.921c-0.61,2.494-1.789,1.171,0.203,3.627c1.991,2.455,3.653,2.86,1.024,4.291c-2.63,1.432-4.824-0.195-6.41,0.145s0.503,2.61-0.628,3.422C344.187,386.881,341.141,385.981,341.141,385.981z"></path><g><path style="fill:none;stroke:#000000;stroke-linecap:round;stroke-linejoin:round;" d="M325.487,374.175c0,0,0.629,0.685,1.438,0.757"></path><path style="fill:none;stroke:#000000;stroke-linecap:round;stroke-linejoin:round;" d="M340.312,389.89c0.118-0.36,0.658-2.055,0.093-3.129c-0.564-1.074-3.871-2.038-3.953-2.152"></path><path style="fill:none;stroke:#000000;stroke-linecap:round;stroke-linejoin:round;" d="M348.047,379.624c0,0-2.771-2.519-4.864-2.702"></path><path style="fill:none;stroke:#000000;stroke-linecap:round;stroke-linejoin:round;" d="M351.147,370.379c0,0-2.412-2.259-5.257-1.283c-2.844,0.974-4.556,2.615-4.556,2.615"></path><path style="fill:none;stroke:#000000;stroke-linecap:round;stroke-linejoin:round;" d="M331.317,378.798c0.021,0.364,0.166,2.772,0.629,3.369s2.342,2.928,2.85,2.771c0.507-0.157,1.304-0.867,1.304-0.867s2.265-0.009,3.471-1.492c1.205-1.484,3.03-5.892,2.538-7.775c-0.491-1.883-2.884-3.779-3.722-3.796c-0.839-0.019-2.647,2.209-2.647,2.209"></path><path style="fill:none;stroke:#000000;stroke-linecap:round;stroke-linejoin:round;" d="M340.846,372.372c0,0,0.857-4.847,0.283-5.502c-0.573-0.654-3.233-3.114-5.589-2.801s-5.671,2.453-6.107,3.283"></path><path style="fill:none;stroke:#000000;stroke-linecap:round;stroke-linejoin:round;" d="M330.939,375.491c0,0,1.59,2.886,2.538,2.961c0.949,0.076,1.688-1.865,1.688-1.865s0.327-4.914-0.471-5.546c-0.797-0.632-2.998,0.329-2.998,0.329"></path><path style="fill:none;stroke:#000000;stroke-linecap:round;stroke-linejoin:round;" d="M329.089,375.788c-0.007,0.279,1.04,6.34,0.753,6.753c-0.288,0.413-4.156-3.106-4.24-5.764"></path><path style="fill:none;stroke:#000000;stroke-linecap:round;stroke-linejoin:round;" d="M325.427,375.768c0,0-0.236-0.761,0.061-1.593c-0.384-1.686-0.308-3.976,0.466-4.911c0.775-0.934,4.141-2.765,4.627-1.943s-0.236,5.95-1.134,7.385"></path><path style="fill:none;stroke:#000000;stroke-linecap:round;stroke-linejoin:round;" d="M324.075,377.528c0,0-4.04-0.644-5.967-2.082"></path><path style="fill:none;stroke:#000000;stroke-linecap:round;stroke-linejoin:round;" d="M325.434,370.12c-0.338,0.104-2.107,0.515-2.271,0.288c-0.162-0.228-1.407-4.838-3.438-5.412c-2.028-0.574-5.733,0.16-5.733,0.16"></path><path style="fill:none;stroke:#000000;stroke-linecap:round;stroke-linejoin:round;" d="M330.797,365.273c0,0,0.501-5.245,1.491-7.126c0.989-1.88,2.064-2.444,2.064-2.444"></path><path style="fill:none;stroke:#000000;stroke-linecap:round;stroke-linejoin:round;" d="M318.429,390.857c0,0,3.258-3.37,4.107-6.596"></path><path style="fill:none;stroke:#000000;stroke-linecap:round;stroke-linejoin:round;" d="M328.065,381.889c-0.276-0.145-2.133-0.91-4.043,0.839"></path><path style="fill:#E5CE95;stroke:#000000;stroke-linecap:round;stroke-linejoin:round;" d="M331.463,382.547c0,0,0.602,1.942-0.522,8.907"></path></g></g></g><g><path style="fill:#D5D9FC;stroke:#000000;stroke-linecap:round;stroke-linejoin:round;" d="M370.399,348.213c0,0,1.103,2.557,2.302,2.246c1.2-0.309,1.866-1.937,1.614-2.351c-0.251-0.416,0.979-0.427,1.771-0.857s2.923-2.512,2.093-3.797c-0.83-1.284-2.071-2.503-2.452-2.138c-0.381,0.364-0.905,0.466-0.905,0.466s-0.154-1.494-0.775-2.104c-0.622-0.609-2.305-2.063-3.102-1.444c-0.796,0.616-2.814,4.451-2.814,4.451S368.511,347.689,370.399,348.213z"></path><circle style="fill:#D5D9FC;stroke:#000000;stroke-linecap:round;stroke-linejoin:round;" cx="332.009" cy="348.956" r="3.041"></circle><g><circle style="fill:#D5D9FC;stroke:#000000;stroke-linecap:round;stroke-linejoin:round;" cx="351.862" cy="308.74" r="3.292"></circle><circle style="fill:#D5D9FC;stroke:#000000;stroke-linecap:round;stroke-linejoin:round;" cx="347.169" cy="310.32" r="1.041"></circle></g><g><g><path style="fill:#D5D9FC;stroke:#000000;stroke-linecap:round;stroke-linejoin:round;" d="M361.843,359.048c0,0,0.721,0.238,1.616,0.146s3.845-0.868,5.174-2.991c0.965-0.762,2.591-2.376,2.595-5.196c0.004-2.821-2.382-4.993-2.382-4.993l0.588-0.043c0,0,1.36-3.658-1.63-6.15c-2.993-2.493-6.319-2.338-7.846-1.45c-0.787-1.048-5.226-2.538-7.843-0.248c-2.618,2.291-2.364,3.553-2.364,3.553s-1.304,0.867-2.017,2.891c-1.153,1.792-2.194,2.161-1.434,5.809c0.763,3.646,2.299,6.219,4.199,6.23c0.926-0.288,1.351-0.559,1.351-0.559s0.841,2.56,2.82,4.026c1.981,1.466,1.917,1.855,1.917,1.855S360.606,362.066,361.843,359.048z"></path><radialGradient id="leftXMLID_184_" cx="265.5674" cy="110.9297" r="16.2628" gradientTransform="matrix(-0.5505 -0.2898 0.2898 -0.5505 473.0978 485.7219)" gradientUnits="userSpaceOnUse"><stop offset="0.0056" style="stop-color:#FFFEFC"></stop><stop offset="0.6966" style="stop-color:#FEFDFC"></stop><stop offset="1" style="stop-color:#DDDEFA"></stop></radialGradient><path style="fill:url(#leftXMLID_184_);" d="M363.381,353.488c-0.194,0.367-1.035,2.855-2.064,3.25c-1.028,0.396-1.16,0.235-1.534,0.245c-1.903,0.054-3.585,0.575-3.806,0.106c-0.223-0.468-0.02-1.299-0.02-1.299s-0.377,0.271-1.105-0.348s-1.227-1.231-1.503-1.376c-0.274-0.146-0.708-1.546-0.983-1.69c-0.276-0.146-2.497-0.378-3.309-1.508c-0.81-1.13-0.375-1.955-0.183-2.322c0.194-0.367,0.995-0.999,0.586-1.333c-0.412-0.334-0.953-1.086-0.57-1.588c0.38-0.503,1.27-0.856,1.27-0.856s1.597-1.032,1.742-1.309c0.145-0.274-0.284-1.908,0.286-2.544c0.57-0.638,1.443-0.294,1.443-0.294c1.59-0.57,2.526-1.015,2.839-0.498c0.315,0.519,0.488,1.077,0.962,0.624c0.475-0.454,0.759-0.771,1.177-0.902c0.423-0.131,0.938-0.445,1.398-0.204c0.458,0.241,1.25,0.073,1.25,0.073s0.116-1.111,1.174-0.672c1.058,0.44,0.829,0.204,1.004,0.764c0.174,0.562-0.203,0.831,0.723,0.851c0.928,0.019,1.344,0.121,1.344,0.121s0.68,0.71,0.579,1.124c-0.102,0.417,0.387,1.493,0.387,1.493c-0.029,1.391-0.232,2.222-0.232,2.222s0.652-0.127,1.146,0.718c0.491,0.846,1.099,1.009,0.988,1.46c-0.305,1.245-0.893,0.585,0.102,1.811c0.996,1.227,1.825,1.428,0.513,2.145c-1.314,0.715-2.411-0.098-3.202,0.072c-0.793,0.169,0.251,1.303-0.313,1.709C364.901,353.938,363.381,353.488,363.381,353.488z"></path><g><path style="fill:none;stroke:#000000;stroke-linecap:round;stroke-linejoin:round;" d="M355.562,347.592c0,0,0.314,0.341,0.718,0.378"></path><path style="fill:none;stroke:#000000;stroke-linecap:round;stroke-linejoin:round;" d="M362.966,355.441c0.059-0.181,0.329-1.027,0.047-1.563c-0.282-0.538-1.936-1.019-1.975-1.076"></path><path style="fill:none;stroke:#000000;stroke-linecap:round;stroke-linejoin:round;" d="M366.829,350.313c0,0-1.385-1.258-2.429-1.349"></path><path style="fill:none;stroke:#000000;stroke-linecap:round;stroke-linejoin:round;" d="M368.379,345.696c0,0-1.207-1.128-2.626-0.643c-1.421,0.487-2.275,1.308-2.275,1.308"></path><path style="fill:none;stroke:#000000;stroke-linecap:round;stroke-linejoin:round;" d="M358.473,349.901c0.011,0.182,0.083,1.384,0.313,1.682c0.232,0.298,1.171,1.464,1.425,1.385c0.252-0.079,0.651-0.435,0.651-0.435s1.131-0.004,1.733-0.745c0.602-0.74,1.514-2.941,1.268-3.883c-0.245-0.941-1.441-1.888-1.859-1.896c-0.418-0.009-1.321,1.103-1.321,1.103"></path><path style="fill:none;stroke:#000000;stroke-linecap:round;stroke-linejoin:round;" d="M363.232,346.69c0,0,0.429-2.419,0.142-2.747c-0.287-0.327-1.615-1.557-2.791-1.399c-1.177,0.156-2.833,1.226-3.051,1.639"></path><path style="fill:none;stroke:#000000;stroke-linecap:round;stroke-linejoin:round;" d="M358.284,348.249c0,0,0.794,1.44,1.269,1.479c0.474,0.037,0.844-0.932,0.844-0.932s0.163-2.455-0.235-2.771s-1.497,0.164-1.497,0.164"></path><path style="fill:none;stroke:#000000;stroke-linecap:round;stroke-linejoin:round;" d="M357.359,348.397c-0.003,0.14,0.521,3.167,0.376,3.373c-0.144,0.207-2.075-1.552-2.118-2.879"></path><path style="fill:none;stroke:#000000;stroke-linecap:round;stroke-linejoin:round;" d="M355.531,348.387c0,0-0.118-0.38,0.03-0.795c-0.192-0.842-0.153-1.986,0.232-2.453c0.387-0.466,2.068-1.381,2.311-0.971c0.243,0.41-0.117,2.972-0.566,3.688"></path><path style="fill:none;stroke:#000000;stroke-linecap:round;stroke-linejoin:round;" d="M354.856,349.267c0,0-2.019-0.322-2.981-1.04"></path><path style="fill:none;stroke:#000000;stroke-linecap:round;stroke-linejoin:round;" d="M355.533,345.565c-0.168,0.054-1.053,0.258-1.133,0.146c-0.082-0.114-0.703-2.418-1.717-2.703c-1.014-0.287-2.864,0.079-2.864,0.079"></path><path style="fill:none;stroke:#000000;stroke-linecap:round;stroke-linejoin:round;" d="M358.214,343.146c0,0,0.251-2.622,0.744-3.56c0.495-0.939,1.031-1.221,1.031-1.221"></path><path style="fill:none;stroke:#000000;stroke-linecap:round;stroke-linejoin:round;" d="M352.036,355.925c0,0,1.627-1.685,2.051-3.295"></path><path style="fill:none;stroke:#000000;stroke-linecap:round;stroke-linejoin:round;" d="M356.85,351.445c-0.139-0.072-1.065-0.456-2.02,0.418"></path><path style="fill:#E5CE95;stroke:#000000;stroke-linecap:round;stroke-linejoin:round;" d="M358.547,351.774c0,0,0.3,0.97-0.262,4.449"></path></g></g><g><path style="fill:#D5D9FC;stroke:#000000;stroke-linecap:round;stroke-linejoin:round;" d="M353.797,333.905c0,0,0.721,0.238,1.616,0.145c0.896-0.093,3.845-0.868,5.174-2.991c0.965-0.763,2.591-2.376,2.595-5.196c0.003-2.82-2.382-4.993-2.382-4.993l0.588-0.043c0,0,1.36-3.658-1.63-6.151c-2.993-2.492-6.319-2.337-7.846-1.449c-0.788-1.048-5.226-2.538-7.843-0.248c-2.618,2.291-2.364,3.554-2.364,3.554s-1.304,0.867-2.017,2.891c-1.154,1.791-2.194,2.16-1.435,5.807c0.763,3.646,2.3,6.22,4.2,6.231c0.926-0.288,1.351-0.558,1.351-0.558s0.841,2.56,2.82,4.025c1.981,1.466,1.916,1.855,1.916,1.855S352.561,336.924,353.797,333.905z"></path><radialGradient id="leftXMLID_185_" cx="295.8408" cy="140.6675" r="16.2622" gradientTransform="matrix(-0.5505 -0.2898 0.2898 -0.5505 473.0978 485.7219)" gradientUnits="userSpaceOnUse"><stop offset="0.0056" style="stop-color:#FFFEFC"></stop><stop offset="0.6966" style="stop-color:#FEFDFC"></stop><stop offset="1" style="stop-color:#DDDEFA"></stop></radialGradient><path style="fill:url(#leftXMLID_185_);" d="M355.334,328.345c-0.193,0.367-1.034,2.854-2.063,3.251c-1.028,0.395-1.161,0.235-1.534,0.245c-1.904,0.053-3.585,0.574-3.806,0.105c-0.223-0.468-0.021-1.3-0.021-1.3s-0.376,0.271-1.104-0.346c-0.729-0.619-1.227-1.232-1.503-1.377c-0.274-0.146-0.708-1.545-0.983-1.69c-0.277-0.146-2.498-0.377-3.309-1.507c-0.81-1.131-0.376-1.956-0.183-2.323s0.995-0.999,0.585-1.333c-0.412-0.333-0.952-1.087-0.57-1.588c0.381-0.503,1.27-0.856,1.27-0.856s1.598-1.033,1.743-1.308c0.145-0.275-0.285-1.908,0.286-2.546c0.57-0.636,1.443-0.294,1.443-0.294c1.589-0.569,2.526-1.013,2.839-0.496c0.315,0.517,0.488,1.076,0.962,0.623c0.475-0.453,0.758-0.771,1.177-0.902c0.422-0.13,0.938-0.445,1.397-0.203c0.458,0.24,1.251,0.072,1.251,0.072s0.115-1.11,1.174-0.671c1.057,0.439,0.829,0.204,1.003,0.763c0.175,0.561-0.203,0.831,0.724,0.85c0.928,0.021,1.344,0.122,1.344,0.122s0.68,0.71,0.579,1.125c-0.102,0.416,0.387,1.492,0.387,1.492c-0.03,1.391-0.232,2.223-0.232,2.223s0.651-0.128,1.146,0.718c0.491,0.845,1.099,1.008,0.987,1.46c-0.304,1.244-0.893,0.584,0.103,1.811c0.995,1.226,1.825,1.428,0.512,2.143c-1.314,0.716-2.411-0.096-3.201,0.073c-0.793,0.17,0.25,1.303-0.314,1.709S355.334,328.345,355.334,328.345z"></path><g><path style="fill:none;stroke:#000000;stroke-linecap:round;stroke-linejoin:round;" d="M347.516,322.449c0,0,0.313,0.341,0.717,0.377"></path><path style="fill:none;stroke:#000000;stroke-linecap:round;stroke-linejoin:round;" d="M354.919,330.298c0.059-0.182,0.329-1.027,0.048-1.563c-0.282-0.538-1.936-1.019-1.975-1.076"></path><path style="fill:none;stroke:#000000;stroke-linecap:round;stroke-linejoin:round;" d="M358.782,325.171c0,0-1.384-1.26-2.428-1.351"></path><path style="fill:none;stroke:#000000;stroke-linecap:round;stroke-linejoin:round;" d="M360.333,320.554c0,0-1.207-1.13-2.626-0.643c-1.421,0.487-2.275,1.306-2.275,1.306"></path><path style="fill:none;stroke:#000000;stroke-linecap:round;stroke-linejoin:round;" d="M350.427,324.757c0.011,0.182,0.083,1.385,0.313,1.683c0.232,0.299,1.171,1.464,1.425,1.385c0.252-0.078,0.651-0.434,0.651-0.434s1.131-0.004,1.733-0.745c0.601-0.741,1.513-2.943,1.267-3.883c-0.244-0.942-1.44-1.888-1.858-1.896c-0.419-0.01-1.321,1.104-1.321,1.104"></path><path style="fill:none;stroke:#000000;stroke-linecap:round;stroke-linejoin:round;" d="M355.187,321.548c0,0,0.428-2.421,0.142-2.748c-0.287-0.326-1.615-1.556-2.791-1.398c-1.177,0.156-2.834,1.226-3.051,1.639"></path><path style="fill:none;stroke:#000000;stroke-linecap:round;stroke-linejoin:round;" d="M350.238,323.104c0,0,0.794,1.442,1.268,1.48s0.845-0.932,0.845-0.932s0.163-2.455-0.235-2.771c-0.398-0.316-1.497,0.164-1.497,0.164"></path><path style="fill:none;stroke:#000000;stroke-linecap:round;stroke-linejoin:round;" d="M349.313,323.254c-0.003,0.14,0.521,3.166,0.376,3.374c-0.144,0.207-2.075-1.553-2.118-2.88"></path><path style="fill:none;stroke:#000000;stroke-linecap:round;stroke-linejoin:round;" d="M347.484,323.244c0,0-0.117-0.381,0.031-0.795c-0.192-0.842-0.153-1.987,0.231-2.454c0.388-0.466,2.069-1.38,2.312-0.972c0.242,0.411-0.117,2.974-0.566,3.689"></path><path style="fill:none;stroke:#000000;stroke-linecap:round;stroke-linejoin:round;" d="M346.81,324.123c0,0-2.018-0.321-2.98-1.041"></path><path style="fill:none;stroke:#000000;stroke-linecap:round;stroke-linejoin:round;" d="M347.487,320.423c-0.168,0.054-1.053,0.257-1.133,0.145c-0.082-0.115-0.704-2.418-1.717-2.703c-1.016-0.287-2.865,0.079-2.865,0.079"></path><path style="fill:none;stroke:#000000;stroke-linecap:round;stroke-linejoin:round;" d="M350.168,318.004c0,0,0.25-2.622,0.744-3.56c0.495-0.939,1.031-1.223,1.031-1.223"></path><path style="fill:none;stroke:#000000;stroke-linecap:round;stroke-linejoin:round;" d="M343.989,330.781c0,0,1.628-1.685,2.052-3.295"></path><path style="fill:none;stroke:#000000;stroke-linecap:round;stroke-linejoin:round;" d="M348.803,326.303c-0.138-0.074-1.065-0.456-2.019,0.417"></path><path style="fill:#E5CE95;stroke:#000000;stroke-linecap:round;stroke-linejoin:round;" d="M350.5,326.63c0,0,0.301,0.971-0.261,4.449"></path></g></g><g><path style="fill:#D5D9FC;stroke:#000000;stroke-linecap:round;stroke-linejoin:round;" d="M376.364,323.414c0,0,0.507,0.169,1.137,0.102c0.627-0.064,2.697-0.608,3.63-2.099c0.678-0.535,1.819-1.668,1.821-3.647c0.003-1.979-1.672-3.504-1.672-3.504l0.413-0.031c0,0,0.954-2.566-1.145-4.315c-2.101-1.751-4.435-1.643-5.506-1.019c-0.554-0.734-3.668-1.781-5.505-0.174c-1.838,1.607-1.66,2.493-1.66,2.493s-0.915,0.609-1.415,2.028c-0.81,1.259-1.54,1.518-1.007,4.077c0.535,2.559,1.614,4.366,2.948,4.374c0.649-0.202,0.947-0.392,0.947-0.392s0.59,1.796,1.98,2.824c1.39,1.029,1.345,1.303,1.345,1.303S375.498,325.532,376.364,323.414z"></path><radialGradient id="leftXMLID_186_" cx="60.8516" cy="103.2285" r="16.2628" gradientTransform="matrix(-0.3864 -0.2034 0.2034 -0.3864 376.9211 367.7089)" gradientUnits="userSpaceOnUse"><stop offset="0.0056" style="stop-color:#FFFEFC"></stop><stop offset="0.6966" style="stop-color:#FEFDFC"></stop><stop offset="1" style="stop-color:#DDDEFA"></stop></radialGradient><path style="fill:url(#leftXMLID_186_);" d="M377.444,319.513c-0.136,0.257-0.726,2.004-1.448,2.281c-0.722,0.277-0.814,0.164-1.078,0.172c-1.336,0.037-2.516,0.403-2.67,0.073c-0.156-0.327-0.014-0.911-0.014-0.911s-0.265,0.19-0.776-0.243c-0.512-0.435-0.86-0.865-1.054-0.967s-0.498-1.084-0.691-1.186c-0.193-0.103-1.753-0.265-2.322-1.059c-0.568-0.792-0.263-1.373-0.127-1.63c0.136-0.258,0.698-0.702,0.41-0.937c-0.288-0.233-0.669-0.762-0.4-1.114c0.268-0.353,0.891-0.601,0.891-0.601s1.121-0.725,1.225-0.918c0.101-0.193-0.201-1.34,0.2-1.786c0.4-0.447,1.014-0.207,1.014-0.207c1.115-0.399,1.773-0.712,1.992-0.349c0.221,0.363,0.343,0.756,0.675,0.437c0.333-0.317,0.532-0.54,0.826-0.632c0.296-0.092,0.658-0.313,0.98-0.144c0.321,0.17,0.878,0.052,0.878,0.052s0.082-0.78,0.823-0.472c0.743,0.309,0.582,0.143,0.706,0.536c0.121,0.394-0.144,0.583,0.507,0.597c0.65,0.013,0.943,0.085,0.943,0.085s0.477,0.498,0.406,0.789c-0.071,0.293,0.271,1.049,0.271,1.049c-0.021,0.975-0.163,1.559-0.163,1.559s0.457-0.089,0.803,0.505c0.346,0.593,0.771,0.707,0.694,1.024c-0.213,0.872-0.626,0.409,0.072,1.271c0.698,0.86,1.28,1.002,0.359,1.505c-0.923,0.502-1.692-0.067-2.248,0.05c-0.557,0.12,0.176,0.915-0.221,1.2C378.513,319.829,377.444,319.513,377.444,319.513z"></path><g><path style="fill:none;stroke:#000000;stroke-linecap:round;stroke-linejoin:round;" d="M371.957,315.374c0,0,0.22,0.239,0.503,0.265"></path><path style="fill:none;stroke:#000000;stroke-linecap:round;stroke-linejoin:round;" d="M377.153,320.884c0.041-0.128,0.23-0.722,0.032-1.098c-0.197-0.377-1.357-0.715-1.385-0.755"></path><path style="fill:none;stroke:#000000;stroke-linecap:round;stroke-linejoin:round;" d="M379.865,317.283c0,0-0.972-0.883-1.705-0.947"></path><path style="fill:none;stroke:#000000;stroke-linecap:round;stroke-linejoin:round;" d="M380.953,314.043c0,0-0.847-0.792-1.844-0.45s-1.597,0.917-1.597,0.917"></path><path style="fill:none;stroke:#000000;stroke-linecap:round;stroke-linejoin:round;" d="M374,316.993c0.007,0.129,0.059,0.973,0.22,1.182c0.163,0.21,0.822,1.027,1.001,0.972c0.177-0.056,0.457-0.304,0.457-0.304s0.793-0.003,1.216-0.523s1.063-2.064,0.889-2.726c-0.171-0.661-1.011-1.325-1.304-1.331c-0.294-0.006-0.928,0.775-0.928,0.775"></path><path style="fill:none;stroke:#000000;stroke-linecap:round;stroke-linejoin:round;" d="M377.341,314.741c0,0,0.3-1.698,0.099-1.928s-1.133-1.093-1.958-0.982c-0.827,0.109-1.989,0.861-2.141,1.149"></path><path style="fill:none;stroke:#000000;stroke-linecap:round;stroke-linejoin:round;" d="M373.867,315.835c0,0,0.559,1.011,0.891,1.038s0.593-0.654,0.593-0.654s0.114-1.723-0.165-1.944c-0.28-0.221-1.051,0.116-1.051,0.116"></path><path style="fill:none;stroke:#000000;stroke-linecap:round;stroke-linejoin:round;" d="M373.219,315.938c-0.002,0.099,0.364,2.223,0.265,2.368c-0.101,0.146-1.457-1.09-1.488-2.021"></path><path style="fill:none;stroke:#000000;stroke-linecap:round;stroke-linejoin:round;" d="M371.935,315.932c0,0-0.083-0.267,0.022-0.558c-0.136-0.591-0.108-1.396,0.163-1.722c0.271-0.328,1.452-0.97,1.621-0.683c0.171,0.288-0.082,2.087-0.396,2.59"></path><path style="fill:none;stroke:#000000;stroke-linecap:round;stroke-linejoin:round;" d="M371.462,316.55c0,0-1.416-0.227-2.092-0.731"></path><path style="fill:none;stroke:#000000;stroke-linecap:round;stroke-linejoin:round;" d="M371.938,313.951c-0.118,0.038-0.738,0.182-0.796,0.102s-0.494-1.697-1.205-1.896c-0.712-0.202-2.011,0.055-2.011,0.055"></path><path style="fill:none;stroke:#000000;stroke-linecap:round;stroke-linejoin:round;" d="M373.817,312.254c0,0,0.177-1.84,0.524-2.5c0.346-0.658,0.722-0.855,0.722-0.855"></path><path style="fill:none;stroke:#000000;stroke-linecap:round;stroke-linejoin:round;" d="M369.481,321.223c0,0,1.142-1.183,1.44-2.313"></path><path style="fill:none;stroke:#000000;stroke-linecap:round;stroke-linejoin:round;" d="M372.86,318.078c-0.097-0.051-0.747-0.319-1.417,0.293"></path><path style="fill:#E5CE95;stroke:#000000;stroke-linecap:round;stroke-linejoin:round;" d="M374.052,318.309c0,0,0.211,0.681-0.184,3.123"></path></g></g></g></g></g></g></svg>