<svg xmlns="http://www.w3.org/2000/svg" width="500" height="500" version="1.1"><g id="x9191"><g><path style="fill:#0D0D0D;stroke:#000000;stroke-linecap:round;stroke-linejoin:round;" d="M315.055,315.591c0,0-0.977,10.265-2.246,12.901c-0.529,1.098-2.826,3.479-2.826,3.479s2.82,4.453-2.875,7.775c-0.133,0.978,1.207,5.696,0.828,7.569c-2.649,13.099-8.133,39.958-8.133,39.958l-8.627,29.269c0,0-3.382,10.591-3.99,15.16c-0.61,4.571-3.906,16.491-3.906,16.491l5.286,2.699c0,0,9.384-21.155,10.123-26.705c0.741-5.55,10.363-35.386,10.363-35.386l4.013-6.08c0,0,1.875-17.009,2.567-19.26c0.693-2.249,7.851-29.341,7.851-29.341l3.242-18.428C326.725,315.693,315.535,309.024,315.055,315.591z"></path><line style="fill:none;stroke:#B5B5B5;stroke-linecap:round;stroke-linejoin:round;" x1="322.482" y1="322.897" x2="323.703" y2="328.521"></line><path style="fill:#0D0D0D;stroke:#000000;stroke-linecap:round;stroke-linejoin:round;" d="M327.117,302.62c0,0-0.074,13.888,6.735,18.7l-4.173,4.016c0,0-7.589-4.564-8.939-14.003L327.117,302.62z"></path><path style="fill:#0D0D0D;stroke:#000000;stroke-linecap:round;stroke-linejoin:round;" d="M298.126,424.464c0,0,1.231,9.483,2.269,10.57l-2.135,2.224l-3.557-2.866"></path><path style="fill:#0D0D0D;stroke:#000000;stroke-linecap:round;stroke-linejoin:round;" d="M329.73,271.464c0,0-2.58,17.388,2.755,28.574c0,0-15.905,14.926-18.069,19.349c0,0,0.094-9.575-4.832-11.03c0,0,6.906-5.522,7.211-7.808c0.303-2.286-4.831-14.998-4.831-14.998L329.73,271.464z"></path><path style="fill:#0D0D0D;stroke:#000000;stroke-linecap:round;stroke-linejoin:round;" d="M330.56,254.409l5.612,9.616c0,0-17.174,21.472-32.225,27.992l-1.775-4.904c0,0,13.629-12.107,13.633-16.571c0.926-2.997-5.891-11.21-5.891-11.21l9.387-7.633L330.56,254.409z"></path><polyline style="fill:#6E6E6E;stroke:#000000;stroke-linecap:round;stroke-linejoin:round;" points="325.371,254.914 312.594,259.17 312.943,256.557 322.563,253.823 "></polyline><path style="fill:#0D0D0D;stroke:#000000;stroke-linecap:round;stroke-linejoin:round;" d="M317.55,196.459l8.161,11.179l9.401,2.369l8.705-2.268c-2.822-2.468-3.967-13.593-3.967-13.593l-4.32-3.05c2.771-5.029,9.116-9.281,9.116-9.281s-1.864-2.764-2.201-3.678c-0.338-0.913-1.509-4.934-1.509-4.934c11.458-54.455,7.751-99.535,7.751-99.535l-9.402,8.483l-3.096,5.494c0,0,2.18,4.337-0.203,10.394c0.197,1.691,1.829,3.861,2.07,5.152c0.918,4.934-1.627,49.648-3.074,56.563c-1.449,6.914-12.984,18.613-12.984,18.613l4.429,10.112C325.326,192.784,317.55,196.459,317.55,196.459z M342.381,89.218c-1.773-0.167-3.049-1.507-2.852-2.994c0.199-1.486,1.795-2.558,3.571-2.393c1.771,0.166,3.046,1.507,2.848,2.995C345.75,88.313,344.154,89.384,342.381,89.218z"></path><polyline style="fill:#6E6E6E;stroke:#000000;stroke-linecap:round;stroke-linejoin:round;" points="335.221,208.695 320.514,196.405 320.682,199.563 332.021,209.056 "></polyline><polygon style="fill:#6E6E6E;stroke:#000000;stroke-linecap:round;stroke-linejoin:round;" points="341.742,89.323 336.496,90.264 336.496,88.28 340.346,87.98 "></polygon><g><polygon style="fill:#505050;stroke:#000000;stroke-linecap:round;stroke-linejoin:round;" points="333.242,244.939 334.107,237.13 335.07,228.433 336.011,219.938 336.682,213.878 337.21,209.108 323.132,205.162 320.478,228.978 318.08,250.303 332.346,253.028 "></polygon><path style="fill:none;stroke:#000000;stroke-linecap:round;stroke-linejoin:round;" d="M328.873,216.625c0,0-2.375-2.125-3.563-5.313"></path><path style="fill:none;stroke:#000000;stroke-linecap:round;stroke-linejoin:round;" d="M328.561,231.813c0,0-4.125-2.625-7.125-9"></path><path style="fill:none;stroke:#000000;stroke-linecap:round;stroke-linejoin:round;" d="M327.477,239.762c0,0-4.125-2.625-7.125-9"></path><path style="fill:none;stroke:#000000;stroke-linecap:round;stroke-linejoin:round;" d="M327.289,247.667c0,0-5.166-1.75-7.75-9.083"></path><path style="fill:none;stroke:#000000;stroke-linecap:round;stroke-linejoin:round;" d="M333.302,243.041c0,0-7.344,4.758-9.287,10.825"></path><path style="fill:none;stroke:#000000;stroke-linecap:round;stroke-linejoin:round;" d="M322.248,214.563c1.313,4.438,6.125,9.25,6.125,9.25"></path><path style="fill:#6E6E6E;stroke:#000000;stroke-linecap:round;stroke-linejoin:round;" d="M338.168,208.422c0,0-6.272-0.64-7.986-1.269c-1.715-0.63-7.036-2.567-7.036-2.567s-2.587,3.396-0.515,5.322c0,0,1.698,1.36,7.529,2.773c2.582,0.639,6.533,0.972,6.533,0.972S338.624,212.275,338.168,208.422z"></path><path style="fill:#6E6E6E;stroke:#000000;stroke-linecap:round;stroke-linejoin:round;" d="M332.854,251.98c0,0-9.377-0.884-15.363-4.044c0,0-2.947,3.189-0.106,5.188c1.619,2.403,14.659,3.627,14.659,3.627S334.451,254.556,332.854,251.98z"></path><path style="fill:none;stroke:#000000;stroke-linecap:round;stroke-linejoin:round;" d="M335.904,213.753c0,0-7.84,2.497-10.068,6.099"></path><path style="fill:none;stroke:#000000;stroke-linecap:round;stroke-linejoin:round;" d="M335.623,220.375c0,0-8.42,3.3-10.523,7.433"></path><path style="fill:none;stroke:#000000;stroke-linecap:round;stroke-linejoin:round;" d="M334.873,228.313c0,0-7,3.354-10.167,8.688"></path><path style="fill:none;stroke:#000000;stroke-linecap:round;stroke-linejoin:round;" d="M334.122,236.479c0,0-6.583,1.938-10.083,8.521"></path></g><path style="fill:#6E6E6E;stroke:#000000;stroke-linecap:round;stroke-linejoin:round;" d="M343.173,84.499c0,0-0.244-3.107-2.751-4.003l-1.543,1.728c0,0,1.583,1.913,2.116,2.843L343.173,84.499z"></path><polygon style="fill:#6E6E6E;stroke:#000000;stroke-linecap:round;stroke-linejoin:round;" points="340.723,85.151 337.364,84.726 336.338,87.495 340.852,87.146 "></polygon><path style="fill:#6E6E6E;stroke:#000000;stroke-linecap:round;stroke-linejoin:round;" d="M327.158,83.729c0,0-0.668,4.949,0.728,5.44c1.397,0.492,7.82-1.283,8.108-3.404c0,0-3.136-2.09-4.549-2.464C330.034,82.929,327.158,83.729,327.158,83.729z M329.744,86.054l0.628-0.828l3.798,1.249l-4.205,0.486L329.744,86.054z"></path><path style="fill:#6E6E6E;stroke:#000000;stroke-linecap:round;stroke-linejoin:round;" d="M335.898,84.54l-2.063-0.27l-0.628,2.29l2.008,0.873C335.215,87.432,337.72,85.092,335.898,84.54z"></path><path style="fill:#6E6E6E;stroke:#000000;stroke-linecap:round;stroke-linejoin:round;" d="M335.552,87.746l-5.649,4.778l-3.084-1.434c0,0,6.961-4.272,8.373-4.517L335.552,87.746z"></path><path style="fill:none;stroke:#B5B5B5;stroke-linecap:round;stroke-linejoin:round;" d="M345.439,89.174c0,0-1.883,2.302-4.238,0.759"></path><path style="fill:none;stroke:#B5B5B5;stroke-linecap:round;stroke-linejoin:round;" d="M338.217,91.637c0,0,6.189,17.106,6.869,29.73c0.683,12.625-0.495,25.158-0.495,25.158"></path><path style="fill:none;stroke:#B5B5B5;stroke-linecap:round;stroke-linejoin:round;" d="M337.683,135.547c0,0,1.954,14.893,0.65,23.198c-1.304,8.306-2.848,19.896-2.848,19.896s2.077-2.285,2.964-4.515c0.889-2.231,3.294-9.938,3.294-9.938"></path><path style="fill:none;stroke:#B5B5B5;stroke-linecap:round;stroke-linejoin:round;" d="M339.702,176.558c0,0-6.431,8.186-9.038,2.789c-2.007-4.156,1.648-7.944,1.848-12.387"></path><path style="fill:none;stroke:#B5B5B5;stroke-linecap:round;stroke-linejoin:round;" d="M330.328,192.206c0,0-1.217,7.652,3.77,14.566"></path><path style="fill:none;stroke:#B5B5B5;stroke-linecap:round;stroke-linejoin:round;" d="M334.371,191.427c0,0-5.814,0.776-7.455-1.691"></path><path style="fill:#B5B5B5;" d="M340.864,181.129c0,0-0.582-1.542-1.771-1.488S335.006,182.231,340.864,181.129z"></path><path style="fill:#B5B5B5;" d="M337.717,195.873c0,0-0.818-1.233-2.073-0.691C334.39,195.726,337.264,196.327,337.717,195.873z"></path><path style="fill:none;stroke:#B5B5B5;stroke-linecap:round;stroke-linejoin:round;" d="M334.002,264.538c0,0-17.483,20.835-27.212,24.88"></path><path style="fill:none;stroke:#B5B5B5;stroke-linecap:round;stroke-linejoin:round;" d="M328.113,274.729c0,0-2.31,19.283,2.631,24.594"></path><path style="fill:none;stroke:#B5B5B5;stroke-linecap:round;stroke-linejoin:round;" d="M326.313,306.952c0,0,0.438,11.5,6.717,14.622"></path><path style="fill:none;stroke:#B5B5B5;stroke-linecap:round;stroke-linejoin:round;" d="M326.894,303.59c0,0-9.431,8.699-11.884,12.326"></path><path style="fill:none;stroke:#B5B5B5;stroke-linecap:round;stroke-linejoin:round;" d="M319.834,282.655c0,0,2.868,0.161,3.127,1.175c0.26,1.017-0.21,9.455-5.992,14.421"></path><path style="fill:none;stroke:#B5B5B5;stroke-linecap:round;stroke-linejoin:round;" d="M316.245,284.964c0,0,3.053,1.718,2.849,5.226c-0.204,3.503-1.938,6.646-1.938,6.646"></path><path style="fill:none;stroke:#B5B5B5;stroke-linecap:round;stroke-linejoin:round;" d="M314.227,287.308c0,0,4.855,0.016,4.867,2.882"></path><path style="fill:none;stroke:#B5B5B5;stroke-linecap:round;stroke-linejoin:round;" d="M320.042,313.634c0,0,1.622,5.551,2.933,6.557c0,0-3.309,10.046-6.828,14.782l-5.832-2.528"></path><path style="fill:none;stroke:#B5B5B5;stroke-linecap:round;stroke-linejoin:round;" d="M310.885,337.014c0,0,2.594-0.747,2.418,2.54c-0.174,3.293-5.075,4.594-5.075,4.594"></path><path style="fill:none;stroke:#B5B5B5;stroke-linecap:round;stroke-linejoin:round;" d="M321.676,337.808c0,0-4.273,11.387-6.769,13.355c-2.493,1.969-7.568,4.577-8.462,6.367"></path><path style="fill:none;stroke:#B5B5B5;stroke-linecap:round;stroke-linejoin:round;" d="M317.715,351.758c0,0-3.914,8.665-4.965,9.669c-1.053,1.005-5.468,9.514-5.068,12.416c0.402,2.903,0.814,7.679,0.986,9.348c0.172,1.668,0.432,3.677,0.432,3.677"></path><path style="fill:none;stroke:#B5B5B5;stroke-linecap:round;stroke-linejoin:round;" d="M312.594,375.407c0,0-0.632-1.162-1.915-0.401c-1.009,0.677-1.331,6.045,0.698,8.55"></path><path style="fill:none;stroke:#B5B5B5;stroke-linecap:round;stroke-linejoin:round;" d="M305.396,367.349c0,0-2.152,4.314-1.462,7.026c0.69,2.708,3.954,9.359,3.301,14.256c-0.651,4.898-1.563,8.776-1.563,8.776"></path><path style="fill:none;stroke:#B5B5B5;stroke-linecap:round;stroke-linejoin:round;" d="M300.355,414.65c0,0-0.214-1.032-1.08-0.764c-1.645,0.507-1.459,3.06,0.182,4.534"></path><path style="fill:none;stroke:#B5B5B5;stroke-linecap:round;stroke-linejoin:round;" d="M296.895,398.238c0,0-0.604,13.385-2.787,23.867c-2.185,10.481-6.153,18.594-6.153,18.594l-2.888,6.89"></path><path style="fill:none;stroke:#B5B5B5;stroke-linecap:round;stroke-linejoin:round;" d="M291.199,420.291c0,0,0.598,6.335-0.398,8.888c-0.994,2.55-1.976,3.008-3.13,4.772"></path><path style="fill:none;stroke:#B5B5B5;stroke-linecap:round;stroke-linejoin:round;" d="M330.34,257.528c0,0-0.479,5.079,4.665,6.387"></path><path style="fill:none;stroke:#B5B5B5;stroke-linecap:round;stroke-linejoin:round;" d="M316.453,261.318c-1.188,2.786-1.126,6.205,0.478,6.687c1.607,0.482,4.149-2.157,5.335-4.944c1.188-2.785,0.846-5.438-0.758-5.918C319.9,256.662,317.641,258.532,316.453,261.318z"></path><path style="fill:none;stroke:#B5B5B5;stroke-linecap:round;stroke-linejoin:round;" d="M317.119,262.657c-0.979,2.299-0.949,5.119,0.354,5.51c1.303,0.39,3.385-1.796,4.363-4.098c0.982-2.301,0.719-4.486-0.582-4.876C319.949,258.803,318.102,260.354,317.119,262.657z"></path><path style="fill:none;stroke:#000000;stroke-linecap:round;stroke-linejoin:round;" d="M331.986,254.048c0,0-6.799,0.557-13.906-3.745"></path><path style="fill:none;stroke:#000000;stroke-linecap:round;stroke-linejoin:round;" d="M336.32,210.781c0,0-8.406-0.457-13.505-3.581"></path><path style="fill:none;stroke:#B5B5B5;stroke-linecap:round;stroke-linejoin:round;" d="M347.93,76.407c0,0,0.312,10.913,0.296,22.93c-0.012,10.184-1.509,21.199-1.78,26.622c-0.711,14.201-2.857,30.306-4.986,41.841c-0.451,2.45-0.936,3.608-0.9,5.286c0.127,6.223,3.201,8.482,3.201,8.482l-2.767,2.302"></path><path style="fill:#6E6E6E;stroke:#000000;stroke-linecap:round;stroke-linejoin:round;" d="M318.973,195.657l-7.768,63.106l1.339,0.292l0.94-0.408l8.06-61.594C321.544,197.054,320.539,194.233,318.973,195.657z"></path></g></g></svg>