<svg xmlns="http://www.w3.org/2000/svg" width="500" height="500" version="1.1"><g id="x002"><g><path style="fill:#6E6E6E;stroke:#000000;stroke-linecap:round;stroke-linejoin:round;" d="M291.125,381.125c0,0,20.75-0.5,24.375,0.75s4.375,2.875,4.375,2.875L319.25,390h-21.875L291.125,381.125z"></path><path style="fill:#6E6E6E;stroke:#000000;stroke-linecap:round;stroke-linejoin:round;" d="M317.962,391.229c0,0-3.895-5.472-5.101-5.843s-10.48-0.835-11.777,0.464c-1.299,1.299-0.928,6.213-0.928,6.213S313.047,394.846,317.962,391.229z"></path><g><g><path style="fill:#6E6E6E;stroke:#000000;stroke-linecap:round;stroke-linejoin:round;" d="M304.75,364.625c0,0,4.875-0.25,8.375,1.75c2.875,5.375,7.292,19.875,7.292,19.875l-2.375,0.125l-7.167-16.625l-6.5-0.875L304.75,364.625z"></path></g></g><path style="fill:#6E6E6E;stroke:#000000;stroke-linecap:round;stroke-linejoin:round;" d="M304.886,363.222c0,0-4.264,3.058-5.564,4.729c-3.071,8.174-2.875,16.138-2.875,16.138l-4.451-2.504c0,0,1.112-12.057,2.875-14.468C295.921,365.679,304.886,363.222,304.886,363.222z"></path><path style="fill:#6E6E6E;stroke:#000000;stroke-linecap:round;stroke-linejoin:round;" d="M325.381,429.623l-0.835-3.895l-26.244-1.206l-3.247,5.564c0,0,1.021,3.524,3.061,5.193c2.041,1.669,18.919,0.186,22.258-0.371C323.711,434.353,325.381,429.623,325.381,429.623z"></path><path style="fill:#6E6E6E;stroke:#000000;stroke-linecap:round;stroke-linejoin:round;" d="M323.526,423.873c0,0-2.226,5.286-5.286,5.843c-3.061,0.556-14.746,1.669-16.693,0c-1.947-1.67-2.782-6.121-2.782-6.121s0-23.648,0.835-29.77c2.226-2.504,15.858-6.12,20.866,0C321.301,400.225,323.526,423.873,323.526,423.873z"></path><path style="fill:none;stroke:#000000;stroke-linecap:round;stroke-linejoin:round;" d="M314.066,406.81c0,0,2.968,19.29-0.371,22.257"></path><path style="fill:none;stroke:#000000;stroke-linecap:round;stroke-linejoin:round;" d="M306.276,407.551c0,0,0.928,15.58-1.483,21.701"></path><path style="fill:#6E6E6E;stroke:#000000;stroke-linecap:round;stroke-linejoin:round;" d="M290.141,381.028l11.128,4.451c0,0,0.127,50.105-2.04,50.265c-6.307,0.464-11.87-7.976-12.427-10.758S290.141,381.028,290.141,381.028z"></path><path style="fill:none;stroke:#000000;stroke-linecap:round;stroke-linejoin:round;" d="M292.551,384.737c0,0-2.717,42.466-2.16,43.95c0.556,1.484,2.41,4.637,2.41,4.637"></path><path style="fill:#B2B2B2;stroke:#000000;stroke-linecap:round;stroke-linejoin:round;" d="M296.521,384.051l1.854,1.854c0,0-0.63,3.654-1.112,7.234c-1.299,1.112-4.341,1.243-4.341,1.243l-2.41-2.412l0.073-6.436C290.585,385.535,295.222,383.495,296.521,384.051z"></path><polygon style="fill:#6E6E6E;stroke:#000000;stroke-linecap:round;stroke-linejoin:round;" points="295.89,392.527 295.704,412.745 291.438,411.261 291.624,391.971 "></polygon><path style="fill:#B2B2B2;stroke:#000000;stroke-linecap:round;stroke-linejoin:round;" d="M295.89,410.891l-4.08-1.299c0,0-0.371,3.896-0.371,4.823c0,0.927,1.669,3.338,1.669,3.338l2.968-2.226L295.89,410.891z"></path><path style="fill:#6E6E6E;stroke:#000000;stroke-linecap:round;stroke-linejoin:round;" d="M292.368,378.301c0,0-0.868,6.074-0.967,8.625c0.557,2.504,3.729,2.782,4.284,1.112c0.557-1.669,0.835-5.008,0.835-6.955"></path><path style="fill:#6E6E6E;stroke:#000000;stroke-linecap:round;stroke-linejoin:round;" d="M320.466,383.253c0,0-2.504,0-3.061,0.835c0.835,8.347,4.173,42.289,4.173,44.793c1.948,2.782,3.896,0.557,3.896,0.557S323.805,389.931,320.466,383.253z"></path><path style="fill:#6E6E6E;stroke:#000000;stroke-linecap:round;stroke-linejoin:round;" d="M313.232,389.374c0,0,2.226,14.745,0.556,16.972c-1.669,2.226-6.677,1.947-7.512,0.278c-0.834-1.67-1.112-16.972-1.112-16.972S311.284,387.427,313.232,389.374z"></path><path style="fill:#666666;stroke:#000000;stroke-linecap:round;stroke-linejoin:round;" d="M308.502,398.834h2.782c0,0-0.927-9.273-1.391-10.572s-2.133-1.484-2.782,0C308.131,390.302,308.502,398.834,308.502,398.834z"></path><polygon style="fill:#B2B2B2;stroke:#000000;stroke-linecap:round;stroke-linejoin:round;" points="311.191,398.092 308.688,397.813 308.409,409.499 313.417,408.942 "></polygon></g></g></svg>