<svg xmlns="http://www.w3.org/2000/svg" width="500" height="500" version="1.1"><g id="x021"><g><path style="fill:#6E6E6E;stroke:#000000;stroke-linecap:round;stroke-linejoin:round;" d="M283.419,387.248c0,0,13.601-13.056,15.336-13.725c5.209,0,14.757,0,14.757,0l2.894,7.7v11.714h15.046l0.335,18.411l-15.397,4.018v5.355l-19.948,4.017l-23.232,6.359c0,0-6.694-21.087-6.694-22.762s2.894-13.054,3.472-14.059C272.589,392.27,283.419,387.248,283.419,387.248z"></path><polygon style="fill:#505050;" points="270.196,416.201 274.379,429.927 289.944,425.408 "></polygon><path style="fill:#DCDCDC;stroke:#000000;stroke-linecap:round;stroke-linejoin:round;" d="M268.019,414.193l3.348-1.338l2.344,7.364l-3.349,2.008C270.361,422.228,266.681,419.886,268.019,414.193z"></path><polyline style="fill:none;stroke:#000000;stroke-linecap:round;stroke-linejoin:round;" points="300.322,382.228 320.07,382.228 320.07,387.918 304.672,387.918 "></polyline><g><path style="fill:#DCDCDC;stroke:#000000;stroke-linecap:round;stroke-linejoin:round;" d="M297.308,396.287c0,0-1.254-3.6,2.01-5.692c1.805-1.155,3.682,0.67,3.682,0.67s-0.921-3.347,2.343-5.354c1.453-0.896,4.645,1.129,4.645,1.129s-1.005-3.223,2.008-4.896c3.013-1.675,4.395,0.251,4.395,0.251s-0.239-3.861,2.133-5.147c3.013-1.63,4.646,0.126,4.646,0.126s-0.712-3.055,2.636-4.395c3.347-1.338,4.143,0.252,4.143,0.252s0.51-3.472,2.887-4.393c2.803-1.088,4.393,0.753,4.393,0.753s3.014-3.013,5.942-1.423c2.372,1.289,2.343,5.021,2.343,5.021s2.008-0.669,3.348,1.673c1.339,2.344-1.34,5.691-1.34,5.691s2.763,0.711,3.013,3.682c0.259,3.047-3.013,4.687-3.013,4.687s2.321,2.546,1.382,4.77c-1.382,3.264-4.058,2.261-4.058,2.261s1.547,2.007-0.588,4.267c-1.625,1.723-3.766,0.083-3.766,0.083s-0.333,3.348-2.678,3.683c-2.343,0.335-4.016-1.338-4.016-1.338s0.224,2.85-3.098,3.473c-2.008,0.375-3.389-1.381-3.389-1.381s0,2.258-2.259,3.013c-1.822,0.606-4.31-1.758-4.31-1.758s0.041,3.013-2.47,3.39c-1.898,0.284-3.222-2.052-3.222-2.052s-0.307,3.475-2.05,3.934c-2.386,0.629-3.305-1.589-3.305-1.589s-0.587,2.802-2.595,2.468c-2.009-0.335-3.431-2.135-3.431-2.135s0.417,3.39-2.47,4.018c-1.667,0.363-2.887-2.008-2.887-2.008"></path><path style="fill:#DCDCDC;stroke:#000000;stroke-linecap:round;stroke-linejoin:round;" d="M287.937,402.479l6.193,10.208c0,0,43.723-11.665,46.693-13.391c10.377-6.024,7.998-30.639-3.348-29.789C325.387,374.847,287.937,402.479,287.937,402.479z"></path><polygon style="fill:#8C8C8C;" points="292.455,401.098 341.16,397.29 292.455,411.894 "></polygon><path style="fill:#FFFFFF;" d="M299.819,396.453c0,0,37.49-23.933,38.493-24.268c1.005-0.335,7.03,2.175,6.527,8.87C340.32,379.718,299.819,396.453,299.819,396.453z"></path><ellipse transform="matrix(0.9851 -0.1721 0.1721 0.9851 -61.219 63.519)" style="fill:#8C8C8C;stroke:#000000;stroke-linecap:round;stroke-linejoin:round;" cx="335.803" cy="384.904" rx="2.004" ry="3.881"></ellipse><path style="fill:#DCDCDC;stroke:#000000;stroke-linecap:round;stroke-linejoin:round;" d="M308.689,386.245l-3.013,3.347c0,0,2.678,21.422,3.683,21.087c1.004-0.335,3.682-0.67,3.682-0.67l-1.005-2.008l-2.342-19.079L308.689,386.245z"></path></g><path style="fill:#B2B2B2;stroke:#000000;stroke-linecap:round;stroke-linejoin:round;" d="M289.979,393.678c-4.596,0.493-7.737,6.333-7.017,13.041c0.721,6.71,5.029,11.748,9.625,11.254c4.596-0.493,7.736-6.331,7.017-13.042C298.884,398.223,294.573,393.184,289.979,393.678z M289.786,414.15c-2.653,0.284-5.142-2.625-5.557-6.498c-0.416-3.873,1.396-7.244,4.05-7.529c2.652-0.284,5.142,2.625,5.558,6.497C294.252,410.494,292.438,413.865,289.786,414.15z"></path><path style="fill:#B2B2B2;stroke:#000000;stroke-linecap:round;stroke-linejoin:round;" d="M283.418,402.354c-0.629-1.758,0.376-5.524,3.515-7.658c3.891-2.385,10.418-1.255,12.678,0.879c0,0-4.393-0.25-5.649,3.139C293.961,398.713,288.439,395.826,283.418,402.354z"></path><path style="fill:#DCDCDC;stroke:#000000;stroke-linecap:round;stroke-linejoin:round;" d="M285.928,406.328l4.853-0.335l4.018,17.74l12.386-0.503c0,0-11.214,4.855-12.889,4.521c-1.673-0.335-4.351-2.343-4.351-2.343L285.928,406.328z"></path><path style="fill:#8C8C8C;" d="M291.45,424.738l2.51-0.168l4.854,0.67l-4.185,1.506C294.63,426.746,291.785,426.243,291.45,424.738z"></path><g><ellipse transform="matrix(0.9982 -0.0594 0.0594 0.9982 -23.6759 17.8747)" style="fill:#8C8C8C;stroke:#000000;stroke-linecap:round;stroke-linejoin:round;" cx="288.94" cy="407.332" rx="2.845" ry="4.686"></ellipse><ellipse transform="matrix(0.9982 -0.0594 0.0594 0.9982 -23.7343 17.6676)" style="fill:#8C8C8C;stroke:#000000;stroke-linecap:round;stroke-linejoin:round;" cx="285.425" cy="408.211" rx="2.845" ry="4.686"></ellipse></g><path style="fill:#DCDCDC;stroke:#000000;stroke-linecap:round;stroke-linejoin:round;" d="M275.384,414.696c-0.373-0.933-4.018-13.222-2.009-16.904s9.038-8.368,9.038-8.368s2.859-19.413,5.202-22.093c2.343-2.677,25.594-2.845,31.953-1.507c3.18,4.019,3.18,9.038,3.18,9.038l-4.017,2.846c0,0-0.502-5.524-2.008-6.192c-1.507-0.67-20.921-1.172-23.934,1.841c-2.511,6.361-4.018,18.41-4.018,18.41s-10.376,7.365-10.711,9.038c-0.335,1.675,2.678,14.729,2.678,14.729C279.401,416.203,276.723,418.044,275.384,414.696z"></path><path style="fill:#FFFFFF;" d="M284.756,386.913c0,0,2.344-16.234,4.017-18.41c5.021-1.34,12.218-1.842,12.218-1.842s-8.368,2.01-11.046,5.692C287.266,376.033,284.756,386.913,284.756,386.913z"></path></g></g></svg>