<svg xmlns="http://www.w3.org/2000/svg" width="500" height="500" version="1.1"><g id="x022"><g><path style="fill:#B2B2B2;stroke:#000000;stroke-linecap:round;stroke-linejoin:round;" d="M380.969,234.064c0,0-46.821-23.919-82.027-8.01c31.825,0.985,60.081,17.739,71.612,27.416L380.969,234.064z"></path><path style="fill:#FFFFFF;" d="M308.522,224.522c0,0,29.482-7.032,68.356,9.847c-2.612,5.684-0.594,4.79-3.146,6.524C339.065,223.964,308.522,224.522,308.522,224.522z"></path><path style="fill:#6E6363;stroke:#000000;stroke-linecap:round;stroke-linejoin:round;" d="M349.579,284.549c17.296-34.195,31.819-59.732,31.819-59.732s2.16-3.973,6.697-0.552c4.682,3.532,3.252,6.531,3.252,6.531l-33.401,54.847C353.513,287.888,352.198,285.859,349.579,284.549z"></path><path style="fill:#6E6E6E;stroke:#000000;stroke-linecap:round;stroke-linejoin:round;" d="M259.338,450.243c2.726-5.436,87.491-160.258,90.241-165.694c2.619,1.311,5.511,1.577,8.367,1.094l-92.199,166.421C265.747,452.063,261.326,452.68,259.338,450.243z"></path><path style="fill:#B2B2B2;stroke:#000000;stroke-linecap:round;stroke-linejoin:round;" d="M383.365,219.721c0,0-0.008,5.434,2.737,7.541c2.744,2.102,7.114,1.07,7.818-0.749c0.701-1.823,6.931-10.921,7.305-21.651C392.481,209.642,383.955,217.648,383.365,219.721z"></path><path style="fill:#B2B2B2;stroke:#000000;stroke-linecap:round;stroke-linejoin:round;" d="M372.206,255.152c8.585,8.34,14.214,21.165,4.954,34.587c21.741,29.374,60.241,90.87,51.589,148.452c37.563-65.383,6.614-166.39-44.708-204.464C379.958,240.638,376.072,247.932,372.206,255.152z"></path><path style="fill:#666666;" d="M378.94,245.828l-4.54,9.055c0,0,16.44,14.847,4.805,34.897c8.03,10.627,32.456,45.074,45.247,86.19C425.455,351.681,423.631,299.667,378.94,245.828z"></path><path style="fill:#FFFFFF;" d="M384.805,236.589l-3.368,6.019c0,0,77.183,64.492,50.305,185.67C447.458,401.088,456.662,301.325,384.805,236.589z"></path></g></g></svg>