<svg xmlns="http://www.w3.org/2000/svg" width="500" height="500" version="1.1"><g id="x023"><g><g><g><path style="fill:#FFDB61;stroke:#000000;stroke-linecap:round;stroke-linejoin:round;" d="M355.484,218.625c3.127-0.329,14.407-8.699,14.407-8.699s18.063-36.336,21.265-40.57c3.203-4.229,24.479-14.75,24.479-14.75s3.454,23.481,1.796,28.523c-1.657,5.042-21.266,40.568-21.266,40.568s-0.462,14.042,1.044,16.803l-15.727-0.07c-0.341,3.386-1.187,7.908-3.229,11.802c-2.25,4.289-7.288,4.926-11.092,4.718l-15.615,29.798c0,0-1.689,1.204-5.2-0.548c-3.511-1.748-2.915-3.706-2.915-3.706l15.618-29.799c-2.336-3.007-4.681-7.515-2.432-11.801c2.042-3.897,5.278-7.164,7.869-9.374L355.484,218.625z"></path><path style="fill:#505050;stroke:#000000;stroke-linecap:round;stroke-linejoin:round;" d="M352.476,263.84c0,0,3.829,5.898,8.53,4.594c-3.632,9.514-87.559,184.086-87.559,184.086s-5.873,0.687-8.117-4.255C268.177,441.825,352.476,263.84,352.476,263.84z"></path><polygon style="fill:#FFF2BD;" points="412.231,163.409 411.372,172.564 409.839,166.096 402.366,169.075 410.491,162.499 414.203,157.301 "></polygon><polygon style="fill:#D4A300;" points="369.68,230.498 369.126,223.56 358.86,219.657 366.733,231.419 "></polygon><polygon style="fill:#D4A300;" points="379.145,235.46 385.163,231.967 394.213,238.188 380.064,238.406 "></polygon><path style="fill:#505050;stroke:#000000;stroke-linecap:round;stroke-linejoin:round;" d="M395.719,175.688c1.216-2.319,13.233-8.331,13.233-8.331s1.892,13.303,0.676,15.624c-1.216,2.316-24.909,47.521-24.909,47.521l-7.487,3.957c1.089,2.124-1.668,10.221-3.08,12.914c-2.069,3.949-6.257,5.833-9.349,4.212c-3.094-1.623-3.924-6.135-1.856-10.084c1.414-2.695,6.507-9.568,8.868-9.88l-1.005-8.409C370.81,223.211,394.505,178.006,395.719,175.688z"></path><ellipse transform="matrix(-0.8856 -0.4644 0.4644 -0.8856 584.5286 628.5734)" style="fill:#6E6E6E;stroke:#000000;stroke-linecap:round;stroke-linejoin:round;" cx="369.663" cy="242.311" rx="4.361" ry="6.325"></ellipse><ellipse transform="matrix(-0.8856 -0.4644 0.4644 -0.8856 584.5045 628.5883)" cx="369.664" cy="242.311" rx="1.479" ry="2.146"></ellipse><g><rect x="388.862" y="170.527" transform="matrix(-0.8856 -0.4644 0.4644 -0.8856 643.1559 562.2864)" style="fill:#6E6E6E;stroke:#000000;stroke-linecap:round;stroke-linejoin:round;" width="3.927" height="62.817"></rect><ellipse transform="matrix(-0.8857 -0.4643 0.4643 -0.8857 657.251 546.3795)" style="fill:#6E6E6E;stroke:#000000;stroke-linecap:round;stroke-linejoin:round;" cx="395.89" cy="192.276" rx="4.144" ry="6.761"></ellipse></g></g></g><path style="fill:#D4A300;" d="M415.666,182.695c0,0-2.071,1.132-4.205,0.505c-4.759,9.079-21.061,40.182-21.061,40.182l4.112-0.799L415.666,182.695z"></path><path style="fill:#D4A300;" d="M392.602,170.606c0,0,0.247,2.348,1.976,3.747c-4.758,9.079-21.062,40.183-21.062,40.183l-1.682-3.838L392.602,170.606z"></path></g></g></svg>