<svg xmlns="http://www.w3.org/2000/svg" width="500" height="500" version="1.1"><g id="x024"><g><path style="fill:#6E6E6E;stroke:#000000;stroke-linecap:round;stroke-linejoin:round;" d="M401.286,209.23c2.961-4.815-4.401-17.409-6.953-18.571c-1.857-0.845-9.455,0.18-13.459,0.801c-0.212-1.485-0.406-2.49-0.406-2.49s-29.461-24.965-58.818-29.856c0,0-17.177,28.09-8.145,43.279c13.289-5.505,35.97,5.591,38.868,7.68c1.064,0.767,4.708,0.426,9.028-0.442c-0.118,2.46-0.833,9.735-5.147,12.222c-5.223,3.015-30.47,16.171-34.937,14.138c-6.207,1.796-13.869,6.782-12.535,8.93c1.331,2.147,15.418,27.047,16.231,23.565c0.814-3.482,10.219-12.296,10.219-12.296l-0.749-11.894c0,0,21.242-11.13,29.6-14.258c2.367-0.886,12.42-3.59,15.553-3.705C382.768,226.22,398.323,214.044,401.286,209.23z"></path><path style="fill:none;stroke:#000000;stroke-linecap:round;stroke-linejoin:round;" d="M340.593,241.17c0,0-15.421,4.761-17.925,9.039"></path><path style="fill:#6E6E6E;stroke:#000000;stroke-linecap:round;stroke-linejoin:round;" d="M320.261,262.211c-0.283,8.439-10.434,22.778-10.434,22.778s2.786,2.818,5.483,5.078c-7.285,14.444-14.06,56.033-14.06,56.033s5.657,11.959,5.087,16.831c-0.57,4.874-9.084,17.288-9.084,17.288l-5.188,48.833l6.576,0.211c2.112-19.362,4.277-47.201,5.122-50.398c1.268-4.793,11.707-15.568,13.139-21.754c-1.167-3.229-3.993-11.536-5.437-15.79c4.173-13.038,13.694-41.328,14.625-44.543c0.833-2.878-1.385-6.459-2.778-8.337c5.389-6.737,15.874-19.069,15.874-19.069s-0.006-12-1.152-14.252c-1.149-2.252-8.727-3.846-8.727-3.846"></path><path style="fill:#FFBF00;stroke:#000000;stroke-linecap:round;stroke-linejoin:round;" d="M292.065,429.053l-1.625,15.309c0,0-1.961,4.678,5.245,3.438c0.856-1.311,1.9-8.868,2.956-18.536L292.065,429.053z"></path></g></g></svg>