<svg xmlns="http://www.w3.org/2000/svg" width="500" height="500" version="1.1"><g id="x025"><path style="fill:#666666;stroke:#000000;stroke-linecap:round;stroke-linejoin:round;" d="M299.853,369.115c0,0,0.119,6.952,1.982,8.016c1.862,1.062,4.536,1.983,4.536,1.983l-0.505-9.115L299.853,369.115z"></path><path style="fill:#8B5C29;stroke:#000000;stroke-linecap:round;stroke-linejoin:round;" d="M294.729,364.775c0,0-0.276,5.857,0.815,6.779c1.093,0.921,5.751,3.069,6.737,2.337c0.983-0.733-0.713-8.285-1.857-8.455C299.279,365.268,295.832,363.649,294.729,364.775z"></path><g><path style="fill:#666666;stroke:#000000;stroke-linecap:round;stroke-linejoin:round;" d="M317.848,363.558c0,0,0.255-8.226-3.062-7.821c-3.315,0.402-10.688,1.062-10.688,1.062l2.914,44.658l13.983,3.371L317.848,363.558z"></path><path style="fill:#666666;stroke:#000000;stroke-linecap:round;stroke-linejoin:round;" d="M314.929,360.851c-0.191-1.08-0.659-6.854-2.125-8.825c-1.465-1.972-5.424-0.709-5.424-0.709l1.387,3.099l0.245,6.093L314.929,360.851z"></path><polygon style="fill:#666666;stroke:#000000;stroke-linecap:round;stroke-linejoin:round;" points="319.914,409.327 320.316,413.161 312.283,413.471 312.724,408.096 "></polygon><polygon style="fill:#3F3F3F;stroke:#000000;stroke-linecap:round;stroke-linejoin:round;" points="317.897,362.228 308.688,362.311 311.535,409.483 321.052,409.428 "></polygon><polygon style="fill:#3F3F3F;stroke:#000000;stroke-linecap:round;stroke-linejoin:round;" points="306.939,366.639 320.449,366.285 321.298,382.681 307.84,383.213 "></polygon><polygon style="fill:#666666;stroke:#000000;stroke-linecap:round;stroke-linejoin:round;" points="316.223,367.455 312.555,367.866 313.261,380.286 317.057,380.339 "></polygon><polygon style="fill:#666666;stroke:#000000;stroke-linecap:round;stroke-linejoin:round;" points="319.303,402.744 315.209,402.727 315.888,412.831 319.229,412.796 "></polygon></g></g></svg>