<svg xmlns="http://www.w3.org/2000/svg" width="500" height="500" version="1.1"><g id="x026"><g><g><polygon style="fill:#6E6E6E;stroke:#000000;stroke-linecap:round;stroke-linejoin:round;" points="342.734,354.144 247.597,382.902 247.048,385.457 271.36,431.159 273.575,431.531 361.902,400.171 361.814,362.753 "></polygon><polygon style="fill:#505050;" points="286.917,381.837 322.843,369.106 318.287,367.152 284.107,378.603 "></polygon><line style="fill:none;stroke:#000000;stroke-linecap:round;stroke-linejoin:round;" x1="267.03" y1="386.078" x2="350.075" y2="358.146"></line><polygon style="fill:#505050;" points="267.663,396.983 359.134,364.186 359.325,397.907 266.85,430.971 "></polygon><path style="opacity:0.6;fill:#FFFFFF;" d="M350.538,369.013c1.003-0.348,7.174-3.114,7.174-3.114l-3.062-3.147l5.058,1.779l-0.55,9.236c0,0-0.404-5.196-2.083-5.343C355.396,368.278,350.538,369.013,350.538,369.013z"></path><polyline style="fill:none;stroke:#000000;stroke-linecap:round;stroke-linejoin:round;" points="252,382 279.883,391.357 279.984,427.92 "></polyline><polyline style="fill:none;stroke:#000000;stroke-linecap:round;stroke-linejoin:round;" points="253.375,381.5 282.104,391.328 282.206,427.891 "></polyline><polygon style="fill:#6E6E6E;stroke:#000000;stroke-linecap:round;stroke-linejoin:round;" points="239.23,386.966 244.833,385.083 272.688,394.366 271.167,431.766 266.573,433.834 238.106,423.959 "></polygon><polygon style="fill:#505050;" points="267.924,397.501 271.688,396.696 270.604,429.177 266.853,430.987 "></polygon><path style="fill:#505050;stroke:#000000;stroke-linecap:round;stroke-linejoin:round;" d="M240.963,388.853l25.222,7.708l-1.351,34.985c0,0-24.424-8.222-24.529-8.521C240.201,422.725,240.963,388.853,240.963,388.853z"></path><polygon style="fill:#6E6E6E;stroke:#000000;stroke-linecap:round;stroke-linejoin:round;" points="285.814,378.711 285.762,374.692 291.478,372.32 299.543,374.426 298.463,377.74 291.661,380.242 "></polygon><polygon style="fill:#6E6E6E;stroke:#000000;stroke-linecap:round;stroke-linejoin:round;" points="308.89,370.405 308.838,366.387 314.554,364.015 322.619,366.12 321.538,369.436 314.737,371.937 "></polygon><polygon style="fill:#949494;stroke:#000000;stroke-linecap:round;stroke-linejoin:round;" points="307.841,366.451 313.841,368.759 318.764,367.067 313.688,363.683 "></polygon><polygon style="fill:#B2B2B2;stroke:#000000;stroke-linecap:round;stroke-linejoin:round;" points="295.072,375.528 288.304,373.99 289.082,371.608 294.122,367.952 311.38,362.298 315.379,364.914 299.681,370.445 296.345,373.925 "></polygon></g><g><g><polygon style="fill:#505050;stroke:#000000;stroke-linecap:round;stroke-linejoin:round;" points="254.551,413.593 251.156,415.347 250.71,427.21 259.894,430.203 263.488,428.549 263.734,416.588 "></polygon><polygon style="fill:#B2B2B2;stroke:#000000;stroke-linecap:round;stroke-linejoin:round;" points="253.141,420.948 253.06,414.718 256.049,412.871 262.404,414.796 262.521,416.002 258.421,417.463 258.378,421.883 256.876,422.304 "></polygon><polygon style="fill:#B2B2B2;stroke:#000000;stroke-linecap:round;stroke-linejoin:round;" points="252.367,423.27 253.559,422.148 258.907,423.887 258.493,430.725 256.692,431.251 252.246,429.4 "></polygon></g><g><polygon style="fill:#505050;stroke:#000000;stroke-linecap:round;stroke-linejoin:round;" points="240.932,409.451 237.537,411.204 237.091,423.066 246.274,426.062 249.869,424.407 250.113,412.446 "></polygon><polygon style="fill:#B2B2B2;stroke:#000000;stroke-linecap:round;stroke-linejoin:round;" points="239.521,416.805 239.44,410.576 242.43,408.729 248.786,410.654 248.903,411.858 244.801,413.319 244.759,417.741 243.257,418.162 "></polygon><polygon style="fill:#B2B2B2;stroke:#000000;stroke-linecap:round;stroke-linejoin:round;" points="238.749,419.128 239.939,418.005 245.288,419.745 244.874,426.583 243.073,427.106 238.628,425.258 "></polygon></g><g><polygon style="fill:#505050;stroke:#000000;stroke-linecap:round;stroke-linejoin:round;" points="254.324,396.314 250.93,398.067 250.483,409.929 259.667,412.924 263.262,411.269 263.508,399.31 "></polygon><polygon style="fill:#B2B2B2;stroke:#000000;stroke-linecap:round;stroke-linejoin:round;" points="252.914,403.668 252.832,397.438 255.822,395.592 262.179,397.518 262.296,398.721 258.193,400.182 258.152,404.604 256.65,405.025 "></polygon><polygon style="fill:#B2B2B2;stroke:#000000;stroke-linecap:round;stroke-linejoin:round;" points="252.142,405.988 253.332,404.868 258.68,406.606 258.268,413.444 256.466,413.971 252.02,412.12 "></polygon><path style="fill:#FFFFFF;" d="M253.255,411.268c0.825-0.851,3.979-3.408,3.979-3.408l-3.701-0.79L253.255,411.268z"></path></g><g><polygon style="fill:#505050;stroke:#000000;stroke-linecap:round;stroke-linejoin:round;" points="240.705,392.172 237.313,393.924 236.864,405.787 246.048,408.782 249.643,407.128 249.889,395.167 "></polygon><polygon style="fill:#B2B2B2;stroke:#000000;stroke-linecap:round;stroke-linejoin:round;" points="239.295,399.525 239.214,393.296 242.204,391.45 248.559,393.375 248.676,394.579 244.575,396.04 244.533,400.462 243.031,400.883 "></polygon><polygon style="fill:#B2B2B2;stroke:#000000;stroke-linecap:round;stroke-linejoin:round;" points="238.522,401.847 239.713,400.727 245.062,402.464 244.648,409.303 242.847,409.829 238.4,407.978 "></polygon><path style="fill:#FFFFFF;" d="M239.611,407.251c0.828-0.85,3.982-3.406,3.982-3.406l-3.702-0.792L239.611,407.251z"></path></g></g></g></g></svg>