<svg xmlns="http://www.w3.org/2000/svg" width="500" height="500" version="1.1"><g id="x027"><g><g><path style="fill:#505050;stroke:#000000;stroke-linecap:round;stroke-linejoin:round;" d="M298.538,364.34l13.926,6.898l-3.199,6.458l-14.701-7.279C295.457,368.174,296.787,366.076,298.538,364.34z"></path><g><path style="fill:#DCDCDC;stroke:#000000;stroke-linecap:round;stroke-linejoin:round;" d="M437.276,450.03c0,0-83.465-37.326-87.679-38.935c-3.749-1.167-8.622,0.231-8.622,0.231s-5.889-7.519-12.681-10.725c-6.791-3.205-14.935-1.823-14.935-1.823l5.066-21.324l12.218-18.193c0,0,4.514,6.917,11.479,9.727c6.963,2.812,16.481,2.031,16.481,2.031s2.28,4.528,5.685,6.486c4.041,2.003,87.681,38.935,87.681,38.935s6.924,1.405,10.963-1.09c2.918,4.573,5.492,15.13,0.651,26.193c-4.839,11.065-14.325,16.316-19.662,17.277C442.735,454.039,437.276,450.03,437.276,450.03z"></path><path style="fill:#FFFFFF;" d="M462.005,418.222l-6.43,5.711l-4.694,0.24l-16.748-6.669c0,0,6.516-1.41,3.474-5.692c4.677,2.045,16.507,7.22,16.507,7.22S458.412,418.945,462.005,418.222z"></path><path style="fill:#B2B2B2;" d="M357.886,373.411l-1.734,5.467c0,0-11.039-0.238-14.067-1.562c-3.024-1.324-15.087-8.966-15.087-8.966l4.084-6.337c0,0,6.809,6.911,11.881,8.803C348.035,372.708,357.886,373.411,357.886,373.411z"></path><path style="fill:#B2B2B2;" d="M342.365,408.901l2.836-4.987c0,0-7.671-7.943-10.697-9.266c-3.026-1.324-16.824-4.994-16.824-4.994l-1.881,7.299c0,0,9.697,0.311,14.528,2.751C335.161,402.146,342.365,408.901,342.365,408.901z"></path><path style="fill:#666666;stroke:#000000;stroke-linecap:round;stroke-linejoin:round;" d="M442.201,442.905c0,0-89.137-39.713-91.671-40.681c-2.259-0.704-5.189,0.139-5.189,0.139s-8.073-6.506-12.159-8.435c-4.087-1.929-15.622-3.998-15.622-3.998l2.566-11.731l6.871-9.849c0,0,9.351,7.064,13.541,8.757c4.191,1.691,14.448,3.201,14.448,3.201s1.371,2.725,3.42,3.904c2.432,1.203,91.673,40.68,91.673,40.68s4.424-0.191,4.941-1.379c1.756,2.749,0.985,6.768-1.927,13.427s-5.341,9.952-8.551,10.53C445.063,446.282,442.201,442.905,442.201,442.905z"></path></g><path style="fill:#B2B2B2;stroke:#000000;stroke-linecap:round;stroke-linejoin:round;" d="M327.099,353.487c0,0,4.066,1.813,4.303,3.153c0.235,1.345-16.558,42.516-19.146,44.029c-2.583,1.515-6.282-1.909-6.282-1.909L327.099,353.487z"></path><polygon style="fill:#6E6E6E;stroke:#000000;stroke-linecap:round;stroke-linejoin:round;" points="311.883,365.306 306.877,364.026 300.647,378.683 305.526,381.299 "></polygon><path style="fill:#505050;stroke:#000000;stroke-linecap:round;stroke-linejoin:round;" d="M306.267,405.563c0,0-7.232,0.068-6.739-6.7c0.239-3.258,19.574-50.362,22.728-52.318c3.15-1.954,6.667,2.807,6.667,2.807S308.799,399.178,306.267,405.563z"></path></g><g><ellipse transform="matrix(-0.9254 -0.379 0.379 -0.9254 468.34 845.2827)" style="fill:#505050;stroke:#000000;stroke-linecap:round;stroke-linejoin:round;" cx="317.371" cy="376.543" rx="11.862" ry="9.159"></ellipse><ellipse transform="matrix(-0.9254 -0.3789 0.3789 -0.9254 468.3881 845.269)" style="fill:#6E6E6E;stroke:#000000;stroke-linecap:round;stroke-linejoin:round;" cx="317.371" cy="376.544" rx="6.018" ry="4.645"></ellipse></g></g></g></svg>