<svg xmlns="http://www.w3.org/2000/svg" width="500" height="500" version="1.1"><g id="x028"><g><g><polygon style="fill:#B2B2B2;stroke:#000000;stroke-linecap:round;stroke-linejoin:round;" points="319.166,355.737 294.792,370.864 300.123,379.977 325.441,366.726 "></polygon><path style="fill:#B2B2B2;stroke:#000000;stroke-linecap:round;stroke-linejoin:round;" d="M334.997,365.693c-4.878,2.783-11.086,1.088-13.87-3.79c-2.784-4.875-1.089-11.084,3.788-13.869c4.877-2.786,11.085-1.087,13.869,3.788C341.568,356.7,339.872,362.908,334.997,365.693z"></path><g><g><line style="fill:none;stroke:#000000;stroke-linecap:round;stroke-linejoin:round;" x1="323.7" y1="348.641" x2="339.572" y2="352.976"></line><line style="fill:none;stroke:#000000;stroke-linecap:round;stroke-linejoin:round;" x1="323.025" y1="351.106" x2="338.9" y2="355.44"></line><line style="fill:none;stroke:#000000;stroke-linecap:round;stroke-linejoin:round;" x1="322.354" y1="353.572" x2="338.227" y2="357.909"></line><line style="fill:none;stroke:#000000;stroke-linecap:round;stroke-linejoin:round;" x1="321.68" y1="356.038" x2="337.554" y2="360.373"></line><line style="fill:none;stroke:#000000;stroke-linecap:round;stroke-linejoin:round;" x1="321.007" y1="358.503" x2="336.881" y2="362.839"></line><line style="fill:none;stroke:#000000;stroke-linecap:round;stroke-linejoin:round;" x1="320.333" y1="360.971" x2="336.207" y2="365.306"></line></g><g><line style="fill:none;stroke:#000000;stroke-linecap:round;stroke-linejoin:round;" x1="333.951" y1="366.594" x2="338.286" y2="350.72"></line><line style="fill:none;stroke:#000000;stroke-linecap:round;stroke-linejoin:round;" x1="331.484" y1="365.919" x2="335.819" y2="350.047"></line><line style="fill:none;stroke:#000000;stroke-linecap:round;stroke-linejoin:round;" x1="329.019" y1="365.246" x2="333.354" y2="349.373"></line><line style="fill:none;stroke:#000000;stroke-linecap:round;stroke-linejoin:round;" x1="326.552" y1="364.572" x2="330.888" y2="348.7"></line><line style="fill:none;stroke:#000000;stroke-linecap:round;stroke-linejoin:round;" x1="324.088" y1="363.899" x2="328.422" y2="348.025"></line><line style="fill:none;stroke:#000000;stroke-linecap:round;stroke-linejoin:round;" x1="321.62" y1="363.226" x2="325.956" y2="347.353"></line></g></g><rect x="312.57" y="359.531" transform="matrix(0.4958 0.8684 -0.8684 0.4958 476.1849 -96.1845)" style="fill:#DCDCDC;stroke:#000000;stroke-linecap:round;stroke-linejoin:round;" width="16.719" height="4.97"></rect><rect x="319.519" y="355.285" transform="matrix(0.4959 0.8684 -0.8684 0.4959 476.225 -107.5413)" style="fill:#DCDCDC;stroke:#000000;stroke-linecap:round;stroke-linejoin:round;" width="22.443" height="2.26"></rect></g><path style="fill:#DCDCDC;" d="M297.106,371.607l0.351,0.616c6.676-3.285,15.701-7.646,16.4-7.558c1.123,0.141,4.872,2.245,4.872,2.245l-3.709-6.261L297.106,371.607z"></path></g></g></svg>