<svg xmlns="http://www.w3.org/2000/svg" width="500" height="500" version="1.1"><g id="x029"><g><g><path style="fill:#B2B2B2;stroke:#000000;stroke-linecap:round;stroke-linejoin:round;" d="M324.139,361.94c0.804,1.563,1.403,7.845,1.403,7.845l-8.806,1.501l-1.11-8.77C320.386,361.808,323.894,361.467,324.139,361.94z"></path><path style="fill:#FFFFFF;" d="M323.228,364.976l0.475,3.417l-4.992,0.831C318.71,369.224,323.436,368.157,323.228,364.976z"></path><path style="fill:#B2B2B2;stroke:#000000;stroke-linecap:round;stroke-linejoin:round;" d="M287.232,367.668c0,0,4.247-0.857,9.857-1.921l1.3,8.669l-9.484,1.617L287.232,367.668z"></path><path style="fill:#FFFFFF;" d="M296.74,372.851l-6.479,1.265l-0.686-4.077c0,0,0.967,3.218,1.973,3.153c1.005-0.067,1.406-0.346,1.406-0.346l-0.275-2.927l1.281,2.861c0,0,1.183,0.09,1.653-0.445c0.469-0.535,0.194-3.462,0.194-3.462L296.74,372.851z"></path><path style="fill:#6E6E6E;stroke:#000000;stroke-linecap:round;stroke-linejoin:round;" d="M315.626,362.517l1.11,8.77l-18.347,3.13l-1.3-8.669C302.868,364.653,310.093,363.338,315.626,362.517z"></path></g><g><g><path style="fill:#6E6E6E;stroke:#000000;stroke-linecap:round;stroke-linejoin:round;" d="M322.239,368.691c0,0,0,0-0.002,0c0.238-0.068,23.728-6.702,31.014,2.297c0.852,1.053,1.144,2.195,0.917,3.598c-1.598,9.904-26.804,26.075-47.057,39.068c-9.561,6.131-31.69,21.424-30.735,30.958c0.15,1.525,0.964,3.586,3.964,4.752c9.016,3.507,38.592,1.945,47.188-0.921l0,0c0.871-0.29,1.342-1.232,1.05-2.103c-0.289-0.871-1.231-1.341-2.101-1.05l0,0c-8.019,2.671-36.608,4.214-44.932,0.976c-1.551-0.602-1.807-1.422-1.863-1.984c-0.425-4.249,8.447-14.502,29.224-27.83c21.896-14.047,46.711-29.965,48.545-41.336c0.377-2.336-0.168-4.429-1.616-6.219c-8.666-10.706-33.464-3.705-34.517-3.4l0,0c-0.881,0.255-1.39,1.175-1.137,2.057C320.437,368.437,321.357,368.945,322.239,368.691L322.239,368.691z"></path></g><g><path style="fill:#6E6E6E;stroke:#000000;stroke-linecap:round;stroke-linejoin:round;" d="M326.281,449.087l29.397,7.395l3.209-2.799l-4.522-2.143l5.417,0.02l0.812-4.047l-1.656-2.114c-2.552,0.009,0.818-1.495,0.818-1.495l1.439-3.971l-34.142,5.42C327.054,445.353,325.33,446.42,326.281,449.087z"></path><line style="fill:#B2B2B2;stroke:#000000;stroke-linecap:round;stroke-linejoin:round;" x1="342.29" y1="445.928" x2="358.938" y2="445.398"></line></g></g></g></g></svg>