<svg xmlns="http://www.w3.org/2000/svg" width="500" height="500" version="1.1"><g id="x003"><g><g><path style="fill:#6E6E6E;stroke:#000000;stroke-linecap:round;stroke-linejoin:round;" d="M302.483,378.734l15.239,3.244c0,0-2.496,54.93-3.745,56.926c-1.247,1.998-5.492,2.497-10.735,0.749c0,0-8.738-6.74-9.987-8.488C292.007,429.417,292,377.25,292,377.25L302.483,378.734z"></path><path style="fill:#505050;" d="M303.741,387.472l-0.499,48.687c0,0-8.738-4.494-9.238-6.491c-0.499-1.998-0.999-48.687-0.999-48.687L303.741,387.472z"></path><polygon style="fill:#F2E096;stroke:#000000;stroke-linecap:round;stroke-linejoin:round;" points="297.25,411.689 291.757,408.195 291.757,416.185 297.749,419.43 "></polygon><polygon style="fill:#FFBF00;stroke:#000000;stroke-linecap:round;stroke-linejoin:round;" points="294.166,375 302.483,378.734 315.966,379.732 310.972,375.737 "></polygon><path style="fill:#505050;stroke:#000000;stroke-linecap:round;stroke-linejoin:round;" d="M309.166,363.916c0,0,9.306,20.06,7.309,18.563l-2.996-0.5l-6.063-16.563L309.166,363.916z"></path><path style="fill:#505050;stroke:#000000;stroke-linecap:round;stroke-linejoin:round;" d="M317.723,379.232c0,0-8.143-6.066-10.39-6.316s-14.667-0.497-14.167,1.25c4.993,3.995,11.324,9.56,11.324,9.56S316.974,382.977,317.723,379.232z"></path></g></g><path style="fill:#505050;stroke:#000000;stroke-linecap:round;stroke-linejoin:round;" d="M299.746,382.229c0,0,0.25,52.183,0.749,53.431c0.499,1.249,1.248,2.995,1.248,2.995l-3.994-2.246c0,0-0.749-2.746-0.998-3.495c-0.25-0.749-1.498-47.938-0.999-51.184C297.25,380.73,299.746,382.229,299.746,382.229z"></path><path style="fill:#6E6E6E;stroke:#000000;stroke-linecap:round;stroke-linejoin:round;" d="M317.723,379.232c0.999,2.996,0.749,4.493-0.249,5.991c-0.999,1.499-13.233,0.999-14.481,0.5c-1.249-0.5-11.235-6.99-11.485-8.489c-0.249-1.498,0.5-4.494,1.498-3.995c0.999,0.5,9.487,5.993,11.735,6.492C306.987,380.231,317.723,379.232,317.723,379.232z"></path><path style="fill:#505050;stroke:#000000;stroke-linecap:round;stroke-linejoin:round;" d="M308.833,363.75c0,0,0.75,1.166,0.833,1.666c-0.908,0.724-9.624,1.393-9.92,2.082c-0.748,1.746-0.748,15.729-0.748,15.729l-3.995-2.246c0,0-0.086-13.816,1.163-14.814C297.414,365.167,308.833,363.75,308.833,363.75z"></path></g></svg>