<svg xmlns="http://www.w3.org/2000/svg" width="500" height="500" version="1.1"><g id="x030"><g><g><g><path style="fill:#DCDCDC;stroke:#000000;stroke-linecap:round;stroke-linejoin:round;" d="M411.132,409.646c0.358,0.407,2.548,4.27,2.548,4.27l19.04-0.821l-18.635-9.415L411.132,409.646z"></path><path style="fill:#DCDCDC;stroke:#000000;stroke-linecap:round;stroke-linejoin:round;" d="M409.13,412.851l2.418,0.284c0,0,2.613-4.705,1.26-9.54c-1.588-1.257-3.494-1.508-3.494-1.508s-4.623,5.987-0.542,10.356"></path></g><g><path style="fill:#DCDCDC;stroke:#000000;stroke-linecap:round;stroke-linejoin:round;" d="M387.221,397.515c0,0,1.497-5.291,0.472-7.282c1.79,2.039,15.242,8.299,22.372-3.75c1.242,7.587-2.229,22.564-1.636,25.297c0.594,2.732,3.597,9.853,9.556,12.934c3.3,2.522,3.845,6.021,6.132,12.326c-4.144-1.421-10.201-2.969-10.201-2.969s-8.333,9.854-13.364,10.3c-5.034,0.442-28.27-6.255-33.803-12.963c-2.987-3.624-11.543-30.838-19.979-39.201c7.077,0.649,15.102,1.554,18.786,4.1c1.878,6.665,4.943,10.808,6.769,11.406C377.408,409.389,382.718,407.616,387.221,397.515z"></path><path style="fill:#FFFFFF;" d="M397.437,442.469c0,0-3.39-4.68-1.355-9.358c-3.475,0.161-23.928-7.896-25.208-8.941c2.052,3.982-0.147,6.418-2.47,6.652C373.57,434.233,381.283,439.308,397.437,442.469z"></path><path style="fill:#666666;" d="M414.963,424.408c0,0-3.748,0.829-5.919,1.652c-2.168,0.82-10.458,7.021-12.963,7.05c-2.504,0.032-20.857-4.812-24.489-8.126c-3.636-3.313-9.383-24.302-14.4-30.015c3.769,0.483,7.202,2.368,7.202,2.368s1.76,6.342,5.4,10.281c2.23,2.411,6.624,2.09,9.529,0.45c6.64-3.756,9.603-11.688,9.51-16.127c2.966,1.73,12.459,5.955,20.802-3.273c0.239,5.21-2.163,17.085-1.96,22.869C409.416,419.587,414.963,424.408,414.963,424.408z"></path><path d="M370.936,408.297c5.049,4.094,13.107,2.266,17.878-3.277c3.281-3.813,3.614-11.519,3.614-11.519l-4.735-3.269c0,0,2.785,8.657-4.865,14.742C376.107,410.316,370.936,408.297,370.936,408.297z"></path></g></g><path style="fill:#DCDCDC;stroke:#000000;stroke-linecap:round;stroke-linejoin:round;" d="M387.73,395.521c0,0,1.676,1.044,0.635,4.581c-0.864,2.941-3.549,4.766-5.768,3.848c-1.686-0.468-2.973-1.386-2.973-1.386s-1.688-2.33-0.366-5.574c1.323-3.246,2.936-3.405,2.936-3.405S387.027,394.967,387.73,395.521z"></path><path style="fill:#DCDCDC;stroke:#000000;stroke-linecap:round;stroke-linejoin:round;" d="M285.076,359.742l-1.039,4.659l97.216,35.92c0.934-1.215,1.938-2.883,1.786-4.392L285.076,359.742z"></path></g></g></svg>