<svg xmlns="http://www.w3.org/2000/svg" width="500" height="500" version="1.1"><g id="x031"><g><g><rect x="311.133" y="355.21" transform="matrix(-0.8958 -0.4444 0.4444 -0.8958 433.1312 826.6412)" style="fill:#DEBD6E;stroke:#000000;stroke-linecap:round;stroke-linejoin:round;" width="4.66" height="14.68"></rect><g><path style="fill:#6E6E6E;stroke:#000000;stroke-linecap:round;stroke-linejoin:round;" d="M320.747,333.917c5.213,2.585,6.799,7.211,4.237,12.374l-6.434,12.972c-0.1,0.204-0.22,0.392-0.354,0.563l-5.653-2.803c0.056-0.211,0.132-0.42,0.233-0.623l6.434-12.973c0.418-0.842,0.598-1.57,0.506-2.046c-0.135-0.712-1.071-1.312-1.833-1.69c-1.489-0.736-2.841-1.104-4.317,1.874c-0.791,1.595-2.726,2.248-4.321,1.456c-1.595-0.791-2.246-2.726-1.453-4.319C310.584,333.067,315.428,331.28,320.747,333.917z"></path></g></g><polygon style="fill:#DEBD6E;stroke:#000000;stroke-linecap:round;stroke-linejoin:round;" points="274.944,440.476 277.287,441.457 271.959,450.399 268.85,448.856 272.743,439.203 "></polygon><path style="fill:#6E6E6E;stroke:#000000;stroke-linecap:round;stroke-linejoin:round;" d="M296.477,389.249l6.219,3.084c0,0-1.05,12.333-6.021,22.356c-8.646,17.432-19.387,26.768-19.387,26.768l-2.343-0.981l-2.201-1.272c0,0,0.933-14.198,9.579-31.633C287.295,397.547,296.477,389.249,296.477,389.249z"></path><path style="fill:#6E6E6E;stroke:#000000;stroke-linecap:round;stroke-linejoin:round;" d="M312.52,376.646c0,0,1.812-3.393,1.65-4.643c0.262-0.261,1.397-3.077,1.397-3.077s-2.829-4.785-7.103-5.345c-0.984,1.984-1.45,2.402-1.45,2.402s-1.716,1.099-2.388,2.716C305.472,372.241,309.026,376.085,312.52,376.646z"></path><path style="fill:#6E6E6E;stroke:#000000;stroke-linecap:round;stroke-linejoin:round;" d="M305.013,392.002c0,0,8.922-4.146,10.525-8.114c-0.63-1.957-1.483-2.802-1.483-2.802l0.715-2.044c0,0-0.271-2.508-3.295-3.954c0.102-0.99-1.626-3.798-4.15-4.198c-0.295-0.997-0.777-3.358-4.574-3.64c-0.101,0.729-0.979,3.546-0.979,3.546s-2.382-1.231-4.638-0.35c-0.695,4.149-0.513,16.966-0.513,16.966L305.013,392.002z"></path><g><rect x="293.592" y="388.689" transform="matrix(-0.8958 -0.4445 0.4445 -0.8958 392.9804 875.5684)" style="fill:#6E6E6E;stroke:#000000;stroke-linecap:round;stroke-linejoin:round;" width="11.067" height="6.059"></rect><circle style="fill:#B2B2B2;stroke:#000000;stroke-linecap:round;stroke-linejoin:round;" cx="301.237" cy="392.876" r="3.127"></circle></g></g></g></svg>