<svg xmlns="http://www.w3.org/2000/svg" width="500" height="500" version="1.1"><g id="x032"><g><g><rect x="311.247" y="355.273" transform="matrix(-0.8959 -0.4442 0.4442 -0.8959 433.451 826.8192)" style="fill:#DEBD6E;stroke:#000000;stroke-linecap:round;stroke-linejoin:round;" width="4.674" height="14.718"></rect><g><path style="fill:#6E6E6E;stroke:#000000;stroke-linecap:round;stroke-linejoin:round;" d="M320.89,333.92c5.226,2.594,6.816,7.231,4.248,12.407l-6.45,13.009c-0.101,0.204-0.222,0.393-0.355,0.563l-5.669-2.81c0.055-0.213,0.132-0.423,0.233-0.626l6.452-13.008c0.419-0.844,0.599-1.575,0.508-2.052c-0.136-0.713-1.076-1.313-1.84-1.694c-1.493-0.739-2.849-1.108-4.329,1.878c-0.794,1.601-2.731,2.256-4.332,1.461c-1.6-0.793-2.254-2.733-1.459-4.33C310.698,333.068,315.556,331.276,320.89,333.92z"></path></g></g><polygon style="fill:#DEBD6E;stroke:#000000;stroke-linecap:round;stroke-linejoin:round;" points="274.961,440.772 277.31,441.756 271.968,450.723 268.85,449.176 272.753,439.496 "></polygon><g><path style="fill:#6E6E6E;stroke:#000000;stroke-linecap:round;stroke-linejoin:round;" d="M296.553,389.404l6.234,3.092c0,0-1.052,12.366-6.037,22.418c-8.671,17.48-19.44,26.842-19.44,26.842l-2.349-0.983l-2.208-1.276c0,0,0.937-14.238,9.606-31.72C287.346,397.727,296.553,389.404,296.553,389.404z"></path><path style="fill:none;stroke:#000000;stroke-linecap:round;stroke-linejoin:round;" d="M290.04,397.679c0,0.978-3.259,9.774,5.865,18.246"></path><path style="fill:none;stroke:#000000;stroke-linecap:round;stroke-linejoin:round;" d="M280.267,412.015c0,0-0.979,13.685,8.47,16.29"></path><path style="fill:none;stroke:#000000;stroke-linecap:round;stroke-linejoin:round;" d="M275.379,428.631c0,0,0.325,6.517,4.234,9.449"></path></g><path style="fill:#6E6E6E;stroke:#000000;stroke-linecap:round;stroke-linejoin:round;" d="M312.64,376.768c0,0,1.815-3.402,1.654-4.656c0.262-0.262,1.401-3.086,1.401-3.086s-2.835-4.798-7.121-5.357c-0.987,1.988-1.457,2.407-1.457,2.407s-1.719,1.103-2.393,2.723C305.572,372.349,309.138,376.205,312.64,376.768z"></path><path style="fill:#6E6E6E;stroke:#000000;stroke-linecap:round;stroke-linejoin:round;" d="M313.341,363.14c0,0,6.268-0.705,7.473,0.742c-0.723,4.823-5.546,6.993-5.546,6.993l-2.895-5.064c0,0-4.1-0.722-6.271-1.446c-0.48-2.411,2.172-6.031,2.896-6.271C310.685,358.333,313.341,363.14,313.341,363.14z"></path><path style="fill:#6E6E6E;stroke:#000000;stroke-linecap:round;stroke-linejoin:round;" d="M305.111,392.165c0,0,8.947-4.158,10.556-8.137c-0.633-1.962-1.487-2.811-1.487-2.811l0.716-2.049c0,0-0.271-2.515-3.303-3.965c0.102-0.993-1.633-3.808-4.162-4.21c-0.295-0.999-0.779-3.367-4.588-3.649c-0.101,0.732-0.982,3.555-0.982,3.555s-2.388-1.233-4.651-0.352c-0.696,4.163-0.513,17.016-0.513,17.016L305.111,392.165z"></path><g><rect x="293.66" y="388.843" transform="matrix(-0.8958 -0.4444 0.4444 -0.8958 393.0995 875.9069)" style="fill:#6E6E6E;stroke:#000000;stroke-linecap:round;stroke-linejoin:round;" width="11.097" height="6.075"></rect><circle style="fill:#B2B2B2;stroke:#000000;stroke-linecap:round;stroke-linejoin:round;" cx="301.326" cy="393.042" r="3.135"></circle></g></g></g></svg>