<svg xmlns="http://www.w3.org/2000/svg" width="500" height="500" version="1.1"><g id="x033"><g><g><g><path style="fill:#676768;stroke:#000000;stroke-linecap:round;stroke-linejoin:round;" d="M323.828,393.631c0,0,1.07-15.905,1.07-16.517c0-0.612-1.529-5.048-5.199-6.347c-3.67-1.301-8.946-1.071-8.946-1.071l0.075,22.864L323.828,393.631z"></path><path style="fill:#828181;" d="M320.35,373.405c0,0,2.179,3.326,2.294,3.9c0.114,0.573-0.229,4.474-0.229,4.474l1.261,0.228c0,0,0.345-3.898,0.114-4.931C323.562,376.043,320.35,373.405,320.35,373.405z"></path><path style="fill:#676768;stroke:#000000;stroke-linecap:round;stroke-linejoin:round;" d="M318.274,371.858l0.215-2.193c0,0-1.684-2.168-6.38-0.775c-0.507,1.464-0.479,2.276-0.479,2.276S314.417,372.951,318.274,371.858z"></path><ellipse transform="matrix(-0.7985 0.602 -0.602 -0.7985 800.6445 479.4058)" style="fill:#676768;stroke:#000000;stroke-linecap:round;stroke-linejoin:round;" cx="320.081" cy="373.712" rx="1.606" ry="2.332"></ellipse></g><path style="fill:#676768;stroke:#000000;stroke-linecap:round;stroke-linejoin:round;" d="M295.152,371.379c0-1.836,2.219-5.505,2.601-5.734s6.575-0.995,8.488-0.766c1.911,0.229,6.652,2.982,7.569,4.052c0.918,1.071-0.229,4.13-0.229,4.13s3.211,4.359,3.44,9.253c0.23,4.895-1.299,12.54-1.299,12.54l-14.911,3.441l-1.912-0.611c0,0-4.281-3.365-4.816-13.306C293.547,374.438,295.152,371.379,295.152,371.379z"></path><path style="fill:#575754;" d="M301.883,374.553c0,0-3.724,3.223-3.212,9.291c0.803,9.52,3.441,12.847,3.441,12.847l-1.836,0.229c-0.803-0.345-6.423-3.557-5.964-12.273c0.459-8.719,2.255-10.323,2.255-10.323L301.883,374.553z"></path><path style="fill:#575754;" d="M312.779,373.635c0,0,0.229-3.556,0.114-4.014c-3.212-0.229-10.209,0-11.699,1.146c-1.491,1.147-1.262,4.015-1.262,4.015L312.779,373.635z"></path><path style="fill:#828181;" d="M311.632,372.374c0,0,0.229-1.263-0.458-2.41c-0.688-1.146-5.392-3.555-5.392-3.555c2.638-0.114,6.193,1.72,6.882,2.867c0.688,1.146,0.115,3.441,0.115,3.441L311.632,372.374z"></path><g><path style="fill:#676768;stroke:#000000;stroke-linecap:round;stroke-linejoin:round;" d="M297.18,374.323c0-0.307-1.301-1.454-1.682-1.76c-0.383-0.305-2.219-0.612-3.212-0.458c-0.994,0.153-6.193,2.906-6.576,5.2c-0.383,2.293,1.223,17.129,2.064,18.581s4.512,3.135,5.199,3.135c0.688,0,5.926-1.338,5.926-1.338s-4.112-2.08-4.473-11.891C294.044,375.395,297.18,374.323,297.18,374.323z"></path><path style="fill:#676768;stroke:#000000;stroke-linecap:round;stroke-linejoin:round;" d="M294.351,383.499c-0.17-0.267-3.135-0.229-3.441,0c-0.306,0.229-1.604,1.224-1.147,3.364c0.459,2.142,0.536,2.601,0.995,3.06s4.053-0.077,4.053-0.077S294.81,385.41,294.351,383.499z"></path><path style="fill:#676768;stroke:#000000;stroke-linecap:round;stroke-linejoin:round;" d="M293.814,372.488l-1.223-1.836c0,0-2.677-0.61-5.43,3.441c0.536,1.453,1.071,2.063,1.071,2.063S291.521,375.776,293.814,372.488z"></path></g><line style="fill:none;stroke:#000000;stroke-linecap:round;stroke-linejoin:round;" x1="311.899" y1="373.367" x2="302.493" y2="374.361"></line><path style="fill:#676768;stroke:#000000;stroke-linecap:round;stroke-linejoin:round;" d="M319.317,406.065c-0.229-0.229-16.441-12.128-16.441-12.128s-3.594-6.729,0.536-12.694c4.128-5.964,8.717-5.429,8.717-5.429l19.881,7.845L319.317,406.065z"></path><path style="fill:#828181;" d="M320.006,383.155c-0.459,0-8.374-6.194-8.374-6.194l11.93,4.474L320.006,383.155z"></path><path style="fill:none;stroke:#000000;stroke-linecap:round;stroke-linejoin:round;" d="M323.446,380.058c0,0-7.997,0.575-10.782,8.717c-2.982,8.718,0.345,12.388,0.345,12.388"></path><ellipse transform="matrix(-0.9457 -0.3249 0.3249 -0.9457 505.9744 874.5098)" style="fill:#676768;stroke:#000000;stroke-linecap:round;stroke-linejoin:round;" cx="326.007" cy="395.007" rx="10.973" ry="12.999"></ellipse><ellipse transform="matrix(-0.9457 -0.325 0.325 -0.9457 507.5026 875.103)" style="fill:#736E78;stroke:#000000;stroke-linecap:round;stroke-linejoin:round;" cx="326.848" cy="395.16" rx="7.679" ry="9.096"></ellipse><ellipse transform="matrix(-0.9457 -0.325 0.325 -0.9457 504.8383 873.2761)" style="fill:#A4C9D5;stroke:#000000;stroke-linecap:round;stroke-linejoin:round;" cx="325.357" cy="394.473" rx="5.556" ry="6.58"></ellipse><ellipse transform="matrix(-0.9562 -0.2926 0.2926 -0.9562 520.5175 867.1498)" style="fill:#125F70;" cx="325.1" cy="394.653" rx="2.647" ry="3.336"></ellipse><ellipse transform="matrix(-0.9457 -0.3251 0.3251 -0.9457 499.8912 870.0354)" style="fill:#0C1932;stroke:#000000;stroke-linecap:round;stroke-linejoin:round;" cx="322.644" cy="393.248" rx="1.967" ry="2.33"></ellipse><circle style="fill:#FFFFFF;" cx="327.289" cy="391.929" r="1.434"></circle><path style="fill:none;stroke:#000000;stroke-linecap:round;stroke-linejoin:round;" d="M318.284,378.224c0,0-7.685-0.229-10.781,7.799c-2.654,6.882,1.835,12.731,1.835,12.731"></path></g><path style="fill:none;stroke:#000000;stroke-linecap:round;stroke-linejoin:round;" d="M318.514,381.32c-0.344-0.115-3.9-1.951-3.9-1.951"></path><path style="fill:none;stroke:#000000;stroke-linecap:round;stroke-linejoin:round;" d="M316.129,383.339c-0.345-0.114-3.854-2.042-3.854-2.042"></path><path style="fill:none;stroke:#000000;stroke-linecap:round;stroke-linejoin:round;" d="M313.397,385.816c-0.344-0.115-3.807-2.134-3.807-2.134"></path><path style="fill:none;stroke:#000000;stroke-linecap:round;stroke-linejoin:round;" d="M311.931,389.325c-0.345-0.114-3.763-2.226-3.763-2.226"></path><path style="fill:none;stroke:#000000;stroke-linecap:round;stroke-linejoin:round;" d="M311.588,392.768c-0.345-0.114-3.718-2.316-3.718-2.316"></path><path style="fill:none;stroke:#000000;stroke-linecap:round;stroke-linejoin:round;" d="M310.944,396.346c-0.345-0.114-3.671-2.408-3.671-2.408"></path></g></g></svg>