<svg xmlns="http://www.w3.org/2000/svg" width="500" height="500" version="1.1"><g id="x035"><g><g><path style="fill:#6E6E6E;stroke:#000000;stroke-linecap:round;stroke-linejoin:round;" d="M321.786,407.079c2.77,2.831,6.576,4.506,9.125,2.45c2.125-1.711-3.821-8.852-5.867-11.187l7.303-6.543c2.101,2.289,8.546,8.982,10.478,7.058c2.322-2.31,1.078-6.279-1.436-9.34c-1.609-1.962-3.738-3.219-5.322-3.953c-0.126-0.952-0.529-1.877-1.218-2.647l-19.478-21.74c-1.823-2.035-4.951-2.206-6.985-0.384l-11.669,10.454c-2.035,1.823-2.206,4.95-0.383,6.984l19.476,21.742c0.734,0.82,1.683,1.332,2.685,1.537C319.062,403.152,320.066,405.319,321.786,407.079z"></path><path style="fill:none;stroke:#C8C8C8;" d="M298.587,377.431c-1.581-1.765-1.472-3.748,0.293-5.33l10.119-9.064c1.765-1.58,4.091-1.086,5.673,0.678l17.577,19.621c1.581,1.766,1.816,4.134,0.052,5.713l-10.117,9.066c-1.766,1.58-4.093,1.087-5.673-0.678L298.587,377.431z"></path><path style="fill:#7AB0C4;" d="M303.425,379.86c-1.225-1.368-1.108-3.469,0.259-4.692l7.835-7.021c1.369-1.226,3.469-1.109,4.693,0.257l13.036,14.553c1.225,1.365,1.11,3.469-0.258,4.692l-7.835,7.021c-1.368,1.228-3.47,1.109-4.693-0.256L303.425,379.86z"></path><circle style="fill:#505050;" cx="305.868" cy="369.724" r="1.756"></circle></g><rect x="322.313" y="391.611" transform="matrix(-0.7447 0.6674 -0.6674 -0.7447 830.8203 466.5592)" width="7.72" height="1.155"></rect><g><rect x="324.117" y="382.145" transform="matrix(-0.7448 0.6673 -0.6673 -0.7448 824.7997 452.4164)" style="fill:#BF0000;" width="3.551" height="3.55"></rect><rect x="320.153" y="385.698" transform="matrix(-0.7443 0.6678 -0.6678 -0.7443 820.3086 460.8859)" style="fill:#047391;" width="3.549" height="3.551"></rect><rect x="316.185" y="389.252" transform="matrix(-0.7446 0.6676 -0.6676 -0.7446 815.7346 469.9073)" style="fill:#CCFF00;" width="3.552" height="3.55"></rect></g><g><rect x="320.595" y="378.212" transform="matrix(-0.7447 0.6674 -0.6674 -0.7447 816.0388 447.8256)" style="fill:#000094;" width="3.548" height="3.551"></rect><rect x="316.628" y="381.765" transform="matrix(-0.7448 0.6672 -0.6672 -0.7448 811.4767 456.7626)" style="fill:#FF7F00;" width="3.549" height="3.55"></rect><rect x="312.662" y="385.319" transform="matrix(-0.7448 0.6673 -0.6673 -0.7448 806.9294 465.598)" style="fill:#FFFFFF;" width="3.551" height="3.549"></rect></g><g><rect x="317.071" y="374.279" transform="matrix(-0.7448 0.6672 -0.6672 -0.7448 807.2538 443.4038)" style="fill:#00A0C6;" width="3.549" height="3.548"></rect><rect x="313.104" y="377.833" transform="matrix(-0.745 0.6671 -0.6671 -0.745 802.6912 452.3405)" style="fill:#BF0000;" width="3.55" height="3.548"></rect></g></g></g></svg>