<svg xmlns="http://www.w3.org/2000/svg" width="500" height="500" version="1.1"><g id="x036"><g><g><g><g><path style="fill:#6E6E6E;stroke:#000000;stroke-linecap:round;stroke-linejoin:round;" d="M311.612,339.759l1.316,0.475l1.6-4.419l8.144,2.947l-1.601,4.419l1.316,0.478c0,0,0.73,8.699,0.416,9.568l-6.648,18.37l-1.022,1.292l-0.13,1.893l-6.295,17.391c-0.235,0.651-1.73,0.847-1.73,0.847s-3.98-0.609-8.275-2.165c-4.297-1.555-6.84-3.306-6.84-3.306s-1.025-1.107-0.789-1.76l6.116-16.899l1.11-1.537l0.042-1.647l6.827-18.859C305.483,345.976,311.612,339.759,311.612,339.759z"></path></g><path style="fill:#505050;" d="M319.906,347.746l-9.063-3.279l-3.356,2.386l-14.094,38.943c0,0,1.604,1.689,6.502,3.463c4.898,1.772,7.145,0.924,7.145,0.924l5.586-15.431c0,0-0.781-1.668-0.338-2.893s1.976-3.163,1.976-3.163l6.384-17.636L319.906,347.746z"></path><path style="fill:#FFFFFF;" d="M307.834,384.929c0.457-0.633,0.75-3.606-0.385-4.293c-1.138-0.688-2.243,3.896-3.467,3.454c-1.225-0.443-3.342-1.486-3.342-1.486s-1.005-2.581,0.059-5.519c1.064-2.939,3.269-2.143,4.046-3.522c0.777-1.381,0.611-7.813-0.436-8.746s-2.648,0.427-2.936,1.985c-0.286,1.558-4.229,13.981-4.229,13.981s0.475,4.05,2.59,5.092C301.849,386.919,306.723,386.467,307.834,384.929z"></path><line style="fill:none;stroke:#000000;stroke-linecap:round;stroke-linejoin:round;" x1="319.16" y1="354.402" x2="318.901" y2="345.166"></line><rect x="301.417" y="349.475" transform="matrix(-0.9403 -0.3403 0.3403 -0.9403 480.9119 802.0568)" style="fill:#505050;stroke:#000000;stroke-linecap:round;stroke-linejoin:round;" width="18.755" height="18.756"></rect><line style="fill:none;stroke:#000000;stroke-linecap:round;stroke-linejoin:round;" x1="310.867" y1="375.777" x2="306.348" y2="388.271"></line><line style="fill:none;stroke:#000000;stroke-linecap:round;stroke-linejoin:round;" x1="300.337" y1="371.966" x2="295.815" y2="384.458"></line><line style="fill:none;stroke:#000000;stroke-linecap:round;stroke-linejoin:round;" x1="308.44" y1="374.067" x2="301.827" y2="371.675"></line><line style="fill:none;stroke:#000000;stroke-linecap:round;stroke-linejoin:round;" x1="303.388" y1="388.028" x2="296.773" y2="385.637"></line></g></g><g><polygon style="fill:#505050;stroke:#000000;stroke-linecap:round;stroke-linejoin:round;" points="313.564,337.254 322.495,340.481 325.063,333.39 316.132,330.162 "></polygon><line style="fill:none;stroke:#000000;stroke-linecap:round;stroke-linejoin:round;" x1="322.746" y1="337.603" x2="314.826" y2="334.736"></line></g></g></g></svg>