<svg xmlns="http://www.w3.org/2000/svg" width="500" height="500" version="1.1"><g id="x037"><g><path style="fill:#6E6E6E;stroke:#000000;stroke-linecap:round;stroke-linejoin:round;" d="M325.146,388.167c1.691-2.409-0.31-6.032-1.75-7.783c-0.966-1.172-1.308-2.227-1.196-3.053c0.874-0.299,2.217-0.044,3.942-0.401c0.977-0.202,1.681-0.95,2.105-1.9c1.405-1.069,1.878-3.533,1.331-5.249c-0.664-2.083-2.731-4.572-6.744-4.842c-2.972-0.2-4.095,1.359-4.872,2.634c-0.479,0.466-0.821,1-1.117,1.487c-0.919,0.718-2.06,0.535-3.17,0.144c-1.084-0.381-3.805-4.197-7.73-4.93c-2.135-0.397-5.129,0.617-6.463,2.619c-1.333,2-1.459,3.305-0.571,5.628c1.766,4.63,7.332,4.76,9.39,5.001c2.059,0.241,4.402,2.543,4.287,4.433c-0.113,1.89-1.262,4.974,2.063,8.412c3.326,3.44,7.726,1.632,9.417-0.775C324.19,389.415,324.931,388.472,325.146,388.167z"></path><g><g><path style="fill:#505050;stroke:#000000;stroke-linecap:round;stroke-linejoin:round;" d="M321.534,376.596c1.216-1.604,0.379-4.282-1.868-5.983c-2.245-1.701-5.052-1.779-6.265-0.177c-0.103,0.136-0.494,0.655-0.595,0.789c-1.216,1.602-0.379,4.281,1.866,5.982c2.247,1.702,5.054,1.779,6.267,0.174C321.041,377.249,321.435,376.729,321.534,376.596z"></path><ellipse transform="matrix(0.7974 0.6035 -0.6035 0.7974 289.6748 -115.9772)" style="fill:#6E6E6E;" cx="317.538" cy="373.364" rx="3.735" ry="2.902"></ellipse></g><g><path style="fill:#6E6E6E;stroke:#000000;stroke-linecap:round;stroke-linejoin:round;" d="M326.266,367.117c-1.78-1.35-4.061-1.339-5.095,0.023c-1.031,1.363-0.423,3.561,1.36,4.911c1.78,1.349,4.063,1.336,5.094-0.025S328.048,368.466,326.266,367.117z"></path><ellipse transform="matrix(0.7974 0.6035 -0.6035 0.7974 288.6524 -121.0304)" style="fill:#B2B2B2;stroke:#000000;stroke-linecap:round;stroke-linejoin:round;" cx="324.569" cy="369.357" rx="2.344" ry="1.793"></ellipse><ellipse transform="matrix(0.7979 0.6028 -0.6028 0.7979 288.7336 -121.4073)" style="fill:#FFFFFF;" cx="325.407" cy="369.851" rx="0.551" ry="0.631"></ellipse></g><g><path style="fill:#6E6E6E;stroke:#000000;stroke-linecap:round;stroke-linejoin:round;" d="M321.836,382.539c-1.78-1.349-4.063-1.338-5.094,0.026c-1.031,1.36-0.424,3.561,1.359,4.909c1.781,1.348,4.063,1.337,5.094-0.023C324.227,386.087,323.619,383.888,321.836,382.539z"></path><ellipse transform="matrix(0.7973 0.6036 -0.6036 0.7973 297.1454 -115.2362)" style="fill:#B2B2B2;stroke:#000000;stroke-linecap:round;stroke-linejoin:round;" cx="320.14" cy="384.78" rx="2.344" ry="1.793"></ellipse><ellipse transform="matrix(0.7969 0.6041 -0.6041 0.7969 297.8861 -115.7489)" style="fill:#FFFFFF;" cx="321.093" cy="385.164" rx="0.552" ry="0.632"></ellipse></g><g><path style="fill:#6E6E6E;stroke:#000000;stroke-linecap:round;stroke-linejoin:round;" d="M306.875,366.798c-1.782-1.349-4.064-1.339-5.097,0.024c-1.031,1.362-0.422,3.561,1.359,4.91c1.781,1.349,4.063,1.336,5.096-0.023C309.263,370.346,308.656,368.146,306.875,366.798z"></path><g><ellipse transform="matrix(0.7972 0.6037 -0.6037 0.7972 284.6516 -109.3974)" style="fill:#B2B2B2;stroke:#000000;stroke-linecap:round;stroke-linejoin:round;" cx="305.177" cy="369.039" rx="2.343" ry="1.792"></ellipse><ellipse transform="matrix(0.7978 0.603 -0.603 0.7978 284.6443 -109.7838)" style="fill:#FFFFFF;" cx="305.983" cy="369.443" rx="0.551" ry="0.63"></ellipse></g></g></g><path style="fill:#505050;" d="M299.826,367.22c0.127-0.168-0.627,3.874,2.347,6.124c2.976,2.251,6.874-0.463,10.727,4.63c3.855,5.091,0.025,6.407,2.676,9.865c2.653,3.459,6.019,2.844,6.778,2.363c-1.964,1.809-4.262,3.151-7.261,0.104c-4.581-4.654-0.99-8.788-3.28-11.245c-2.289-2.458-5.109-2.595-6.837-2.807C301.657,375.853,295.896,372.411,299.826,367.22z"></path></g></g></svg>