<svg xmlns="http://www.w3.org/2000/svg" width="500" height="500" version="1.1"><g id="x038"><g><polygon style="fill:#666666;stroke:#000000;stroke-linecap:round;stroke-linejoin:round;" points="301.883,367.477 304.161,363.949 347.483,408.367 342.693,413.309 "></polygon><path style="fill:#666666;stroke:#000000;stroke-linecap:round;stroke-linejoin:round;" d="M329.973,398.144c0,0-0.577-1.273,1.072-2.683c0.968-0.824,2.288-1.102,3.08-1.103c0.561-0.001,1.329,0.973,1.329,0.973l0.093-2.107l-3.019-2.936c0,0-2.641-0.57-4.752,1.384c-2.988,2.77-1.837,4.659-1.837,4.659l3.28,3.476l1.425-0.414L329.973,398.144z"></path><ellipse transform="matrix(0.9727 -0.2321 0.2321 0.9727 -84.4731 89.7038)" style="fill:#666666;stroke:#000000;stroke-linecap:round;stroke-linejoin:round;" cx="339.019" cy="403.875" rx="5.388" ry="5.301"></ellipse><polygon style="fill:#666666;stroke:#000000;stroke-linecap:round;stroke-linejoin:round;" points="340.129,403.638 346.6,410.309 350.842,402.987 347.892,399.437 343.753,399.875 "></polygon><polygon style="fill:#666666;stroke:#000000;stroke-linecap:round;stroke-linejoin:round;" points="338.829,403.863 345.825,409.979 338.732,414.595 335.034,411.831 335.258,407.676 "></polygon><ellipse transform="matrix(0.9727 -0.232 0.232 0.9727 -84.7523 90.173)" style="fill:#666666;stroke:#000000;stroke-linecap:round;stroke-linejoin:round;" cx="341.019" cy="405.434" rx="5.388" ry="5.301"></ellipse><polygon style="fill:#666666;stroke:#000000;stroke-linecap:round;stroke-linejoin:round;" points="336.109,403.621 338.785,400.337 344.729,405.634 341.613,409.633 "></polygon><g><path style="fill:#666666;stroke:#000000;stroke-linecap:round;stroke-linejoin:round;" d="M361.656,411.769l-3.057-5.985l-2.883-2.087c-3.156-2.795-8.787-1.578-13.466,2.243c-7.217,5.892-3.998,12.634-3.998,12.634l1.688,3.666l6.348,3.573L361.656,411.769z"></path><path style="fill:#8C8C8C;" d="M340.04,410.144c0,0,1.493,3.983,3.877,2.602c-2.139,2.409-1.708,9.902-1.708,9.902l-1.65-1.234C340.559,421.413,336.705,416.636,340.04,410.144z"></path><ellipse transform="matrix(0.7335 -0.6797 0.6797 0.7335 -189.6547 351.2048)" style="fill:#666666;stroke:#000000;stroke-linecap:round;stroke-linejoin:round;" cx="352.999" cy="417.434" rx="10.823" ry="8.081"></ellipse></g><g><path style="fill:#6E6E6E;stroke:#000000;stroke-linecap:round;stroke-linejoin:round;" d="M348.353,428.228c0,0,49.6,34.762,50.425,33.954c0.824-0.807-34.015-48.277-34.015-48.277s-7.755-4.833-13.784,2.302C344.949,423.343,348.353,428.228,348.353,428.228z"></path><ellipse transform="matrix(0.7486 -0.663 0.663 0.7486 -189.2344 341.9288)" style="opacity:0.48;fill:#666666;stroke:#000000;stroke-linecap:round;stroke-linejoin:round;" cx="356.277" cy="420.504" rx="8.181" ry="4.486"></ellipse><path style="fill:#FFFFFF;" d="M351.208,427.683l40.084,28.146l-38.278-35.359C353.014,420.469,348.7,422.854,351.208,427.683z"></path></g></g></g></svg>