<svg xmlns="http://www.w3.org/2000/svg" width="500" height="500" version="1.1"><g id="x039"><g><g><g><g><g><polygon style="fill:#7F5E40;stroke:#000000;stroke-linecap:round;stroke-linejoin:round;" points="311.27,368.704 299.703,372.338 299.404,370.053 337.114,358.278 337.824,360.363 "></polygon><polygon style="fill:#7F5E40;stroke:#000000;stroke-linecap:round;stroke-linejoin:round;" points="310.811,373.041 298.692,372.69 299.159,370.435 338.645,371.638 338.633,373.84 "></polygon><polygon style="fill:#7F5E40;stroke:#000000;stroke-linecap:round;stroke-linejoin:round;" points="309.723,377.686 299.023,371.984 300.443,370.171 335.277,388.801 334.29,390.768 "></polygon><polygon style="fill:#7F5E40;stroke:#000000;stroke-linecap:round;stroke-linejoin:round;" points="306.203,381.382 299.392,371.351 301.493,370.408 323.634,403.124 321.843,404.405 "></polygon></g><polygon style="fill:#7F5E40;stroke:#000000;stroke-linecap:round;stroke-linejoin:round;" points="298.998,364.276 303.859,379.158 314.238,410.92 311.948,411.896 296.624,365.112 "></polygon><polygon style="fill:#7F5E40;stroke:#000000;stroke-linecap:round;stroke-linejoin:round;" points="307.352,366.246 298.161,374.15 296.984,372.17 326.979,346.463 328.455,348.1 "></polygon><path style="fill:#6E6E6E;" d="M306.179,391.208l3.363-1.423l3.142-1.48l2.609-2.696l1.561-1.884l1.199-2.816l0.957-5.16l0.354-3.271l-1.705-3.199l0.269-3.414l-1.541-1.952l-1.507-3.509l-1.539-2.914l16.219-15.559l3.584,5.718l2.085,6.418l4.834,4.596c0.109,0.509,0.166,6.408,0.166,6.408l4.854,5.923c0,0-1.81,6.622-1.558,7.047c0.251,0.426,1.923,5.174,1.923,5.174l-2.886,7.071l0.591,6.155l-2.985,4.643l-1.717,4.846l-5.844,5.954c0,0-1.013,2.441-1.424,2.761c-1.049,0.812-7.05,4.565-7.05,4.565l-9.026,4.783l-9.019-31.965"></path><polygon style="fill:#505050;" points="313.13,389.021 330.091,414.333 326.577,416.635 311.805,389.808 "></polygon><polygon style="fill:#505050;" points="309.045,391.085 307.912,391.471 319.232,420.704 322.332,419.153 "></polygon><polygon style="fill:#505050;" points="316.024,386.034 337.21,405.611 331.935,411.229 314.676,387.793 "></polygon><polygon style="fill:#505050;" points="318.544,381.574 342.202,396.167 339.322,400.627 317.77,384.139 "></polygon><path style="fill:#505050;" d="M319.632,378.248c0.149,0.008,24.819,4.981,24.819,4.981l-2.904,7.036L319.2,380.179L319.632,378.248z"></path></g></g><path style="fill:#505050;" d="M320.222,373.114c0.213-0.125,23.872-2.016,23.872-2.016l-1.598,6.738l-22.559-1.492L320.222,373.114z"></path><path style="fill:#505050;" d="M339.317,365.466c-0.147-0.247-0.126-6.336-0.126-6.336l-20.282,6.533l-0.249,3.45L339.317,365.466z"></path><polygon style="fill:#505050;" points="334.297,354.428 317.107,363.194 315.557,360.097 332.421,348.367 "></polygon></g><path style="fill:none;stroke:#000000;stroke-linecap:round;stroke-linejoin:round;" d="M306.179,391.208l3.363-1.423l3.142-1.48l2.609-2.696l1.561-1.884l1.199-2.816l0.957-5.16l0.354-3.271l-1.705-3.199l0.269-3.414l-1.541-1.952l-1.507-3.509l-1.539-2.914l16.219-15.559l3.584,5.718l2.085,6.418l4.834,4.596c0.109,0.509,0.166,6.408,0.166,6.408l4.854,5.923c0,0-1.81,6.622-1.558,7.047c0.251,0.426,1.923,5.174,1.923,5.174l-2.886,7.071l0.591,6.155l-2.985,4.643l-1.717,4.846l-5.844,5.954c0,0-1.013,2.441-1.424,2.761c-1.049,0.812-7.05,4.565-7.05,4.565l-9.026,4.783l-9.019-31.965"></path></g></g></svg>