<svg xmlns="http://www.w3.org/2000/svg" width="500" height="500" version="1.1"><g id="x004"><g><g><path style="fill:#FFB05E;stroke:#000000;stroke-linecap:round;stroke-linejoin:round;" d="M326.49,352.851c0,0-4.563-16.623-21.186-8.801c-0.652,15.646,0,31.617,0,31.617L326.49,352.851z"></path><g><line style="fill:none;stroke:#C98200;stroke-linecap:round;stroke-linejoin:round;" x1="318.587" y1="356.15" x2="307.953" y2="358.718"></line><line style="fill:none;stroke:#C98200;stroke-linecap:round;stroke-linejoin:round;" x1="314.554" y1="362.14" x2="308.197" y2="363.484"></line><line style="fill:none;stroke:#C98200;stroke-linecap:round;stroke-linejoin:round;" x1="310.031" y1="353.34" x2="311.254" y2="365.195"></line><path style="fill:none;stroke:#C98200;stroke-linecap:round;stroke-linejoin:round;" d="M314.31,353.217c0,0.367,0.978,7.09,0.978,7.09"></path></g></g><g><path style="fill:#6E6E6E;stroke:#000000;stroke-linecap:round;stroke-linejoin:round;" d="M329.221,348.694c-0.122,0.979,2.144,5.457,0.244,6.723c-2.199,1.467-4.604-3.218-4.604-3.218s-2.934,2.934-5.215,0.978c-2.282-1.956-3.278-1.835-6.682-3.138c-3.301-1.263-3.301-2.812-3.301-2.812s-2.118,2.078-4.399,1.101c-2.282-0.978-5.176-3.951-3.872-4.604c1.305-0.652,4.238-1.02,5.216-2.486c-1.1-4.033,1.956-20.29,17.846-13.934C341.988,334.318,332.154,347.839,329.221,348.694z"></path><path style="fill:#6E6E6E;stroke:#000000;stroke-linecap:round;stroke-linejoin:round;" d="M312.354,346.128c0,0-1.345,2.078-2.078,4.156c-0.733,2.077-2.111,2.033-3.3,1.1c-1.711-1.345-0.367-6.479,1.1-7.578"></path><path style="fill:none;stroke:#000000;stroke-linecap:round;stroke-linejoin:round;" d="M327.266,348.817c0,0-3.178,0.733-5.134-0.367"></path></g></g></g></svg>