<svg xmlns="http://www.w3.org/2000/svg" width="500" height="500" version="1.1"><g id="x040"><g><g><path style="fill:#6E6E6E;stroke:#000000;stroke-linecap:round;stroke-linejoin:round;" d="M318.346,375.912c6.011,5.288,14.482,12.804,18.675,16.805c0.94,7.219-4.865,7.18-4.865,7.18l-19.521-17.361c0.411-1.547,1.1-3.024,1.79-4.059C315.564,377.715,316.707,376.033,318.346,375.912z"></path><path style="fill:#505050;" d="M333.844,393.306l-22.716-20.243c0,0-1.413-0.588-2.235,0.823c-0.824,1.413-0.118,2.706-0.118,2.706l23.185,19.773L333.844,393.306z"></path><path style="fill:#FFFFFF;" d="M333.372,394.365c0,0-7.455-7.219-11.888-10.946c-5.179-4.354-12.476-10.121-12.592-9.533c-0.118,0.589,7.649,7.65,12.592,11.653C324.729,388.164,332.195,395.541,333.372,394.365z"></path><path style="fill:#505050;" d="M335.255,393.658c0,0,0.706,4.12-2.942,4.237c-1.883-1.884-1.295-1.295-1.295-1.295s2.708-2.707,2.708-4.237C334.43,392.13,335.255,393.658,335.255,393.658z"></path></g><path style="fill:#FFFFFF;stroke:#000000;stroke-linecap:round;stroke-linejoin:round;" d="M300.371,365.837c2.571-2.752,4.238-1.963,4.238-1.963s5.277,4.719,9.165,8.141c-1.638,0.12-2.781,1.803-3.922,2.563c-0.689,1.035-1.379,2.513-1.79,4.06l-8.045-7.23C300.018,371.407,298.136,368.229,300.371,365.837z"></path><path style="fill:#FFFFFF;stroke:#000000;stroke-linecap:round;stroke-linejoin:round;" d="M307.361,371.964c2.571-2.752,4.238-1.963,4.238-1.963s2.857,2.49,6.746,5.911c-1.639,0.121-2.781,1.803-3.922,2.564c-0.69,1.034-1.379,2.512-1.79,4.059l-5.626-5.001C307.008,377.534,305.126,374.356,307.361,371.964z"></path></g></g></svg>