<svg xmlns="http://www.w3.org/2000/svg" width="500" height="500" version="1.1"><g id="x041"><g><g><g><path style="fill:#6E6E6E;stroke:#000000;stroke-linecap:round;stroke-linejoin:round;" d="M318.346,375.912c6.011,5.288,14.482,12.804,18.675,16.805c0.94,7.219-4.865,7.18-4.865,7.18l-19.521-17.361c0.411-1.547,1.1-3.024,1.79-4.059C315.564,377.715,316.707,376.033,318.346,375.912z"></path><path style="fill:#505050;" d="M333.844,393.306l-22.716-20.243c0,0-1.413-0.588-2.235,0.823c-0.824,1.413-0.118,2.706-0.118,2.706l23.185,19.773L333.844,393.306z"></path><path style="fill:#FFFFFF;" d="M333.372,394.365c0,0-7.455-7.219-11.888-10.946c-5.179-4.354-12.476-10.121-12.592-9.533c-0.118,0.589,7.649,7.65,12.592,11.653C324.729,388.164,332.195,395.541,333.372,394.365z"></path><path style="fill:#505050;" d="M335.255,393.658c0,0,0.706,4.12-2.942,4.237c-1.883-1.884-1.295-1.295-1.295-1.295s2.708-2.707,2.708-4.237C334.43,392.13,335.255,393.658,335.255,393.658z"></path></g><path style="fill:#FFFFFF;stroke:#000000;stroke-linecap:round;stroke-linejoin:round;" d="M300.371,365.837c2.571-2.752,4.238-1.963,4.238-1.963s5.277,4.719,9.165,8.141c-1.638,0.12-2.781,1.803-3.922,2.563c-0.689,1.035-1.379,2.513-1.79,4.06l-8.045-7.23C300.018,371.407,298.136,368.229,300.371,365.837z"></path><path style="fill:#FFFFFF;stroke:#000000;stroke-linecap:round;stroke-linejoin:round;" d="M307.361,371.964c2.571-2.752,4.238-1.963,4.238-1.963s2.857,2.49,6.746,5.911c-1.639,0.121-2.781,1.803-3.922,2.564c-0.69,1.034-1.379,2.512-1.79,4.059l-5.626-5.001C307.008,377.534,305.126,374.356,307.361,371.964z"></path></g><g><g><path style="fill:#6E6E6E;stroke:#000000;stroke-linecap:round;stroke-linejoin:round;" d="M321.12,368.586c7.821,1.706,18.876,4.165,24.483,5.629c4.326,5.854-0.769,8.639-0.769,8.639l-25.495-5.705c-0.391-1.552-0.506-3.178-0.404-4.417C319.563,371.512,319.746,369.486,321.12,368.586z"></path><path style="fill:#505050;" d="M343.112,376.271l-29.687-6.674c0,0-1.521,0.172-1.555,1.805c-0.035,1.635,1.21,2.423,1.21,2.423l29.868,6.036L343.112,376.271z"></path><path style="fill:#FFFFFF;" d="M343.214,377.427c0,0-10.021-2.693-15.706-3.801c-6.642-1.293-15.82-2.794-15.637-2.224c0.183,0.572,10.401,2.976,16.665,4.077C332.646,376.2,342.756,379.025,343.214,377.427z"></path><path style="fill:#505050;" d="M344.517,375.895c0,0,2.617,3.26-0.516,5.133c-2.561-0.733-1.761-0.504-1.761-0.504s1.054-3.681,0.311-5.019C343.054,374.959,344.517,375.895,344.517,375.895z"></path></g><path style="fill:#FFFFFF;stroke:#000000;stroke-linecap:round;stroke-linejoin:round;" d="M300.514,368.501c0.913-3.654,2.753-3.773,2.753-3.773s6.905,1.564,11.965,2.669c-1.374,0.9-1.557,2.926-2.185,4.145c-0.101,1.24,0.014,2.866,0.405,4.419l-10.544-2.418C302.908,373.542,299.721,371.678,300.514,368.501z"></path><path style="fill:#FFFFFF;stroke:#000000;stroke-linecap:round;stroke-linejoin:round;" d="M309.6,370.465c0.912-3.654,2.753-3.773,2.753-3.773s3.707,0.791,8.768,1.895c-1.374,0.9-1.558,2.926-2.185,4.146c-0.102,1.239,0.014,2.865,0.404,4.417l-7.346-1.642C311.994,375.507,308.807,373.642,309.6,370.465z"></path></g><g><g><path style="fill:#6E6E6E;stroke:#000000;stroke-linecap:round;stroke-linejoin:round;" d="M313.768,384.013c3.705,7.097,8.905,17.156,11.376,22.398c-1.719,7.073-7.122,4.948-7.122,4.948l-11.967-23.224c0.94-1.295,2.114-2.426,3.131-3.142C310.523,384.693,312.195,383.535,313.768,384.013z"></path><path style="fill:#505050;" d="M321.969,405.818l-13.91-27.063c0,0-1.107-1.057-2.382-0.036c-1.277,1.021-1.084,2.482-1.084,2.482l14.516,26.792L321.969,405.818z"></path><path style="fill:#FFFFFF;" d="M321.146,406.637c0,0-4.357-9.418-7.151-14.49c-3.266-5.927-7.998-13.933-8.318-13.427c-0.322,0.507,4.385,9.891,7.555,15.404C315.313,397.74,319.626,407.31,321.146,406.637z"></path><path style="fill:#505050;" d="M323.158,406.654c0,0-0.824,4.098-4.27,2.895c-1.079-2.436-0.742-1.674-0.742-1.674s3.5-1.552,4.05-2.979C322.938,404.932,323.158,406.654,323.158,406.654z"></path></g><path style="fill:#FFFFFF;stroke:#000000;stroke-linecap:round;stroke-linejoin:round;" d="M300.622,368.144c3.39-1.642,4.661-0.307,4.661-0.307s3.226,6.303,5.622,10.894c-1.572-0.477-3.243,0.682-4.581,0.98c-1.017,0.718-2.191,1.849-3.132,3.145l-4.904-9.643C298.288,373.213,297.676,369.571,300.622,368.144z"></path><path style="fill:#FFFFFF;stroke:#000000;stroke-linecap:round;stroke-linejoin:round;" d="M304.939,376.376c3.39-1.643,4.661-0.307,4.661-0.307s1.77,3.353,4.167,7.943c-1.572-0.478-3.244,0.681-4.582,0.981c-1.017,0.716-2.19,1.847-3.131,3.142l-3.449-6.69C302.605,381.445,301.993,377.804,304.939,376.376z"></path></g></g></g></svg>