<svg xmlns="http://www.w3.org/2000/svg" width="500" height="500" version="1.1"><g id="x042"><g><path style="fill:none;stroke:#000000;stroke-linecap:round;stroke-linejoin:round;" d="M348.248,177.766c0,1.105,3.861,49.979-17.914,81.234c-28.333,40.667-30.421,135.502-15.667,158"></path><g style="opacity:0.95;"><ellipse style="fill:#6E6E6E;" cx="348.064" cy="136.454" rx="38.914" ry="46.107"></ellipse><path style="fill:#505050;" d="M386.056,133.319c0,0,2.95,22.13-11.066,37.623c-12.541,9.221-24.343,14.016-40.573,8.852C364.293,179.793,386.056,133.319,386.056,133.319z"></path></g><ellipse style="fill:none;stroke:#000000;stroke-linecap:round;" cx="348.064" cy="136.454" rx="38.914" ry="46.107"></ellipse><g style="opacity:0.8;"><ellipse transform="matrix(0.8534 0.5213 -0.5213 0.8534 106.7794 -155.5981)" style="fill:#FFFFFF;" cx="329.99" cy="112.018" rx="8.668" ry="10.881"></ellipse></g><path style="fill:#505050;stroke:#000000;" d="M348.985,182.561c-0.921,0-4.241,8.299-4.241,8.299l8.483-0.368L348.985,182.561z"></path></g></g></svg>