<svg xmlns="http://www.w3.org/2000/svg" width="500" height="500" version="1.1"><g id="x044"><g><g><g><path style="fill:#068ACD;stroke:#000000;stroke-linecap:round;stroke-linejoin:round;" d="M336.054,419.738l-0.137,2.798c0,0,2.6,4.443,3.995,5.353c1.828,1.191,4.375,0.985,5.066-0.215c0.689-1.201,4.436-9.068,4.052-9.834C348.645,417.076,336.713,418.735,336.054,419.738z"></path><path style="fill:#06BAF0;" d="M341.476,422.063l1.193,4.973h-1.592c0,0-3.181-3.182-3.181-5.569C339.687,421.467,341.476,422.063,341.476,422.063z"></path></g><path style="fill:#068ACD;stroke:#000000;stroke-linecap:round;stroke-linejoin:round;" d="M343.328,384.747c0,0,4.386-0.155,5.433,5.176c1.12,5.709-3.487,7.507-3.487,7.507L343.328,384.747z"></path><path style="fill:#6E6E6E;stroke:#000000;stroke-linecap:round;stroke-linejoin:round;" d="M335.934,419.217c0,0,3.005,1.375,6.219,0.771c3.215-0.605,5.538-1.952,5.538-1.952l2.73-17.488l-4.271,0.607l-2.875-16.717l4.15-3.377l-1.541-6.883l-5.318-2.038l-19.84-37.919c0,0-0.438-1.073-2.236-1.154c-1.798-0.078-8.246,2.538-8.246,2.538l1.389,7.864c0,0,0.732,4.341-0.933,4.686c-1.664,0.343-19.882-6.729-19.882-6.729c-1.922,0.707,1.488,17.543,1.488,17.543l2.202,1.35l1.867-2.929l8.186,4.297l7.063,25.657l2.464,0.989c0,0,2.807,15.532,4.121,16.142c1.313,0.607,12.272,1.313,12.272,1.313l3.665,2.608C334.93,413.116,335.934,419.217,335.934,419.217z"></path><polygon style="fill:#505050;" points="341.276,383.884 341.476,387.064 328.153,389.253 327.357,385.474 "></polygon><path style="fill:#505050;" d="M315.426,387.064c0.295,0.047,3.579,0.199,3.579,0.199l4.375,16.108l-4.176-0.398L315.426,387.064z"></path><path style="fill:#068ACD;stroke:#000000;stroke-linecap:round;stroke-linejoin:round;" d="M337.732,334.864c0,0-3.204-6.537-9.862-5.162c-6.653,1.375-6.759,7.197-6.759,7.197l6.182,35.181c0,0,1.08,3.387,2.971,2.879c1.892-0.51,12.207-2.119,12.207-2.119s0.927-2.071,1.399-3.809S337.732,334.864,337.732,334.864z"></path><path style="fill:#065799;" d="M325.965,338.344c0,0,1.591-4.873,7.755-2.833c1.592,9.596,5.569,34.451,5.569,34.451l-8.353,1.592L325.965,338.344z"></path><polygon style="fill:#068ACD;stroke:#000000;stroke-linecap:round;stroke-linejoin:round;" points="308.962,361.871 314.584,363.251 317.82,382.475 315.168,382.061 "></polygon><path style="fill:#068ACD;stroke:#000000;stroke-linecap:round;stroke-linejoin:round;" d="M330.429,406.784l3.102,15.58c0,0,0.117,5.05-4.804,4.986c-4.087-0.054-4.551-3.729-4.551-3.729l-3.407-18.144L330.429,406.784z"></path><path style="fill:#06BAF0;" d="M323.579,407.847l2.982,16.405c0,0,0.597,1.491,2.535,0.446c-0.745-4.473-2.685-16.404-2.685-16.404L323.579,407.847z"></path></g><path style="fill:#505050;stroke:#000000;stroke-linecap:round;stroke-linejoin:round;" d="M309.663,352.219c-0.052-0.312-14.829-4.932-14.829-4.932l0.833,6.268l15.222,4.995L309.663,352.219z"></path><polygon style="fill:#505050;" points="342.339,404.618 339.692,404.809 339.324,416.827 341.76,416.706 "></polygon><path style="fill:#505050;" d="M347.23,403.572l-2.512,0.613c0,0-1.326,12.372-1.031,12.418c0.294,0.046,1.845-0.215,1.845-0.215L347.23,403.572z"></path></g><path style="fill:#06BAF0;" d="M324.176,337.897l6.114,34.303l5.967-1.492c0,0-3.134-0.148-3.729-1.938c-0.597-1.791-5.37-31.021-4.773-31.917s4.624-2.687,5.965-1.343C331.483,332.229,325.219,332.676,324.176,337.897z"></path><polygon style="fill:#FFFFFF;" points="329.693,377.568 341.774,375.481 344.012,376.078 345.055,380.105 342.371,377.568 329.693,379.807 "></polygon></g></svg>