<svg xmlns="http://www.w3.org/2000/svg" width="500" height="500" version="1.1"><g id="x045"><g><g><path style="fill:#FFBF00;stroke:#000000;stroke-linecap:round;stroke-linejoin:round;" d="M302.797,378.117l0.563,0.317l0.645,0.007c0,0-0.655,3.136,0.087,4.162c-1.753,1.022-2.387,2.014-2.47,2.323c0.083-0.31,0.027-1.483-0.979-3.243C301.8,381.162,302.797,378.117,302.797,378.117z"></path><path style="fill:#6E6E6E;stroke:#000000;stroke-linecap:round;stroke-linejoin:round;" d="M307.519,370.219c0,0-1.452,5.423-2.419,8.515c-0.802,0.902-3.154,0.272-3.397-0.91c0.708-3.162,2.158-8.583,2.158-8.583L307.519,370.219z"></path><polygon style="fill:#505050;" points="304.223,373.864 303.36,378.435 304.527,378.219 305.683,373.945 "></polygon><path style="fill:#6E6E6E;stroke:#000000;stroke-linecap:round;stroke-linejoin:round;" d="M305.626,360.549l4.703,1.26c-1.076,6.639-3.586,11.778-3.586,11.778l-3.894-1.043C302.85,372.544,303.242,366.84,305.626,360.549z"></path><path style="fill:#505050;" d="M308.807,364.641c0,0-1.606,6.49-2.678,7.977c-0.86-0.342-0.86-0.342-0.86-0.342l1.947-8.238L308.807,364.641z"></path><path style="fill:#6E6E6E;stroke:#000000;stroke-linecap:round;stroke-linejoin:round;" d="M308.646,349.961l4.354,1.165c0,0-0.227,4.058-1.99,10.752l-6.008-1.607C306.817,353.589,308.646,349.961,308.646,349.961z"></path><path style="fill:#505050;" d="M310.61,351.344l-1.847,9.099l1.668,0.474c0,0,2.025-7.924,1.768-8.969C311.209,351.527,310.61,351.344,310.61,351.344z"></path><path style="fill:#FFBF00;stroke:#000000;stroke-linecap:round;stroke-linejoin:round;" d="M311.01,361.878c-0.028,0.104-0.056,0.207-0.083,0.313c-0.168,0.627-0.347,1.251-0.529,1.871l-5.956-1.596c0.148-0.626,0.307-1.257,0.476-1.883c0.028-0.106,0.056-0.211,0.085-0.313L311.01,361.878z"></path></g><path style="fill:#BEA36D;stroke:#000000;stroke-linecap:round;stroke-linejoin:round;" d="M305.376,359.141"></path><polygon style="fill:#FFBF00;stroke:#000000;stroke-linecap:round;stroke-linejoin:round;" points="310.47,350.923 307.85,359.432 305.705,358.857 307.541,349.664 "></polygon></g></g></svg>