<svg xmlns="http://www.w3.org/2000/svg" width="500" height="500" version="1.1"><g id="x047"><g><path style="fill:#505050;stroke:#000000;stroke-linecap:round;stroke-linejoin:round;" d="M334.695,348.521l-2.448,0.016c0,0-4.443,4.49-5.902,8.048c3.519,3.352,5.112,5.373,5.112,5.373s-5.882,8.906-6.032,13.291c3.15,2.329,7.005,5.413,7.005,5.413s-1.579,9.232-0.714,11.229c5.057,1.208,10.71,4.075,10.71,4.075l1.299,9.204c0,0,9.031,2.228,11.519,5.519c-2.584,3.241-5.24,7.086-5.24,7.086s8.584,4.989,8.488,6.322c-0.096,1.334-2.097,7.397-1.959,7.779c0.14,0.383,1.522,4.216,1.522,4.216s3.951-7.057,3.781-8.726c-0.17-1.672-1.975-3.476-1.975-3.476l1.4-7.723c0,0-4.459-3.155-4.73-5.512c-0.273-2.354-2.232-12.187-2.232-12.187s-5.64,1.168-9.088-2.786c-3.446-3.953-8.227-39.617-8.227-39.617L334.695,348.521z"></path><g><path style="fill:#6E6E6E;stroke:#000000;stroke-linecap:round;stroke-linejoin:round;" d="M335.519,348.8c0,0,7.629,6.344,8.901,7.471c1.274,1.129-0.205,7.437-0.205,7.437l4.385,5.349l-5.968,10.669c0,0,5.217,9.667,5.167,11.129c-0.05,1.461-4.292,8.91-4.292,8.91l1.307,6.024c0,0-5.319,7.261-5.627,8.814c-0.306,1.555-0.02,7.946-0.02,7.946s-8.837,7.519-9.005,9.456c-0.167,1.938,1.344,9.332,1.344,9.332l-11.876,7.893l1.213-11.842c0,0,7.133-3.438,7.367-4.39s-1.619-6.49-2.31-8.405c1.64-1.459,7.984-5.479,10.231-8.455c2.246-2.977,0.353-10.231-0.927-13.379c3.157-0.851,6.946-3.949,6.946-3.949s-1.249-5.469-4.222-9.305c0.828-1.309,1.981-3.313,1.981-3.313l-6.68-6.108l2.396-10.969c0,0-3.194-7.654-2.81-7.792c0.382-0.14,3.946-5.467,3.946-5.467L335.519,348.8z"></path><path style="fill:none;stroke:#000000;stroke-linecap:round;stroke-linejoin:round;" d="M335.171,357.441l-0.229,2.97l7.207,3.175c0,0-4.237,5.859-4.844,7.378c1.765,3.694,5.172,9.537,5.172,9.537"></path></g><path style="fill:#D59758;stroke:#000000;stroke-linecap:round;stroke-linejoin:round;" d="M331.912,348.001c0.519-0.457,5.796-4.459,5.796-4.459s-0.569-3.509-1.411-3.299c-0.845,0.21-5.766,3.972-5.766,3.972l-42.923,33.178c0,0-0.06,3.884,0.943,4.138C289.555,381.782,331.912,348.001,331.912,348.001z"></path><path style="fill:#6E6E6E;stroke:#000000;stroke-linecap:round;stroke-linejoin:round;" d="M333.96,346.66l-4.584-3.841l-1.4,1.836c0,0-4.097,2.682-4.104,3.36c-0.005,0.68,6.216,3.719,7.414,3.268C332.484,350.83,333.96,346.66,333.96,346.66z"></path></g></g></svg>