<svg xmlns="http://www.w3.org/2000/svg" width="500" height="500" version="1.1"><g id="x048"><g><g><path style="fill:#E9C220;stroke:#000000;stroke-linecap:round;stroke-linejoin:round;" d="M316.034,376.29c0,0-1.297,0.28-1.908,0.011c-0.613-0.27-9.61-7.806-9.61-7.806s-0.69,0.028-1.244-0.248c-0.558-0.275-0.744-1.294-0.075-1.956c0.667-0.666,1.586-0.723,1.978-0.367c0.393,0.355,0.315,1.117,0.315,1.117s10.901,5.214,11.579,5.995c0.677,0.781,0.699,1.878,0.699,1.878L316.034,376.29z"></path></g><path style="fill:#6E6E6E;stroke:#000000;stroke-linecap:round;stroke-linejoin:round;" d="M334.672,389.144l-19.13-13.08c0,0-0.656-0.819,0.026-1.623c0.603-0.712,1.487-0.131,1.487-0.131l18.354,12.426L334.672,389.144z"></path><g><g><path style="fill:#E9C220;stroke:#000000;stroke-linecap:round;stroke-linejoin:round;" d="M352.034,393.075c-2.104-0.859-2.51,0.059-2.51,0.059l-0.78,1.693c-0.891-0.85-2.978-2.781-4.999-4.171c-2.662-1.834-7.152-4.389-7.152-4.389s-0.802-0.16-1.718,0.826c-0.917,0.983-0.681,2.169-0.681,2.169s3.497,2.941,6.545,5.071c3.047,2.129,8.379,3.742,8.379,3.742c0.854,0.213,2.397,0.506,2.821-0.043c0.597-0.769,2.225-2.538,2.225-2.538S354.139,393.938,352.034,393.075z"></path><line style="fill:none;stroke:#000000;stroke-linecap:round;stroke-linejoin:round;" x1="348.448" y1="395.814" x2="348.744" y2="394.827"></line></g><ellipse transform="matrix(0.9075 0.42 -0.42 0.9075 198.165 -111.2685)" cx="351.749" cy="394.355" rx="1.621" ry="0.633"></ellipse></g></g></g></svg>