<svg xmlns="http://www.w3.org/2000/svg" width="500" height="500" version="1.1"><g id="x049"><g><path style="fill:#B2B2B2;stroke:#000000;stroke-linecap:round;stroke-linejoin:round;" d="M311.008,351.422c1.91-3.821,18.259-32.485,22.294-39.918c3.822-1.061,4.989,2.762,4.989,3.61c0,0.85-21.764,37.157-21.764,37.157s0.851,2.973,2.973,2.335c2.123-0.636,9.979-14.438,9.979-14.438c2.124-0.425,3.397,3.609,3.397,3.609c-0.213,1.698-10.829,17.411-13.164,16.986c-1.033-0.188-2.729-1.331-4.338-2.694c-0.161,0.549-0.398,1.061-0.758,1.42c-1.274,1.274-2.973,1.699-2.973,1.699l-3.397-2.973C308.247,358.217,307.416,353.771,311.008,351.422z"></path><path style="fill:#8C8C8C;" d="M331.71,343.885c0,0-8.281,15.182-11.572,15.817c-0.956-0.105-0.956-0.318-1.274-0.423c5.414-4.354,12.209-16.668,12.209-16.668L331.71,343.885z"></path><polygon style="fill:#8C8C8C;" points="335.637,315.008 314.405,351.315 315.359,352.06 336.911,315.008 "></polygon><path style="fill:#8C8C8C;" d="M319.288,355.88c0,0-2.548,1.063-3.929-3.82c-0.318-0.426-0.954-0.744-0.954-0.744s-0.106,3.079,1.91,4.46C318.332,357.154,319.288,355.88,319.288,355.88z"></path><path style="fill:#FFFFFF;" d="M336.911,315.008c0,0,0.106-2.441-2.973-2.335C333.938,314.797,335.212,315.433,336.911,315.008z"></path><g><path style="fill:#505050;stroke:#000000;stroke-linecap:round;stroke-linejoin:round;" d="M301.624,392.232c0,0-1.935,7.15,3.299,9.922c2.128,0.506,4.213,0.111,4.213,0.111l0.237-3.935l1.976-0.372c0,0-3.452-6.607-6.622-6.918C301.728,391.177,301.624,392.232,301.624,392.232z"></path><path style="fill:#505050;stroke:#000000;stroke-linecap:round;stroke-linejoin:round;" d="M304.964,392.984c0,0-0.546,1.229-2.347,1.308c-4.877-2.524-6.114-13.666-3.749-19.18c0.797,0.243,1.188-0.914,2.414,0.678C298.473,386.086,304.964,392.984,304.964,392.984z"></path></g><g><path style="fill:#6E6E6E;stroke:#000000;stroke-linecap:round;stroke-linejoin:round;" d="M319.493,396.702c0,0,6.583,3.397,5.096,9.13c-0.318,0.574-1.823-0.865-2.193-0.425c-0.863,1.029-0.566,3.61-0.566,3.61l-4.671-1.274c0,0-2.548-7.006-0.638-9.554C318.644,396.066,319.493,396.702,319.493,396.702z"></path><path style="fill:#6E6E6E;stroke:#000000;stroke-linecap:round;stroke-linejoin:round;" d="M301.87,375.045c0,0,0.425,6.37,6.157,7.856c5.733,1.486,13.802,10.404,12.316,15.925c-1.275,1.273-2.55,0.849-2.55,0.849s-5.308-13.801-9.554-14.226c-4.247-0.425-9.343-4.459-8.918-10.829C300.385,374.62,301.87,375.045,301.87,375.045z"></path></g><path style="fill:#6E6E6E;stroke:#000000;stroke-linecap:round;stroke-linejoin:round;" d="M312,361.5c0,0-9.065,16.333-10.398,16.833s-3.935-2.5-4.102-3.333s10.667-16.667,10.667-16.667L312,361.5z"></path></g></g></svg>