<svg xmlns="http://www.w3.org/2000/svg" width="500" height="500" version="1.1"><g id="x005"><g><g><path style="fill:#FFB05E;stroke:#000000;stroke-linecap:round;stroke-linejoin:round;" d="M326.389,352.851c0,0-4.563-16.623-21.186-8.801c-0.652,15.646,0,31.617,0,31.617L326.389,352.851z"></path><g><line style="fill:none;stroke:#C98200;stroke-linecap:round;stroke-linejoin:round;" x1="318.485" y1="356.15" x2="307.852" y2="358.718"></line><line style="fill:none;stroke:#C98200;stroke-linecap:round;stroke-linejoin:round;" x1="314.452" y1="362.14" x2="308.096" y2="363.484"></line><line style="fill:none;stroke:#C98200;stroke-linecap:round;stroke-linejoin:round;" x1="309.93" y1="353.34" x2="311.152" y2="365.195"></line><path style="fill:none;stroke:#C98200;stroke-linecap:round;stroke-linejoin:round;" d="M314.208,353.217c0,0.367,0.978,7.09,0.978,7.09"></path></g></g><g><path style="fill:#6E6E6E;stroke:#000000;stroke-linecap:round;stroke-linejoin:round;" d="M329.119,348.694c-0.122,0.979,2.144,5.457,0.244,6.723c-2.199,1.467-4.604-3.218-4.604-3.218s-2.934,2.934-5.215,0.978c-2.282-1.956-3.278-1.835-6.682-3.138c-3.301-1.263-3.301-2.812-3.301-2.812s-2.118,2.078-4.399,1.101c-2.282-0.978-5.176-3.951-3.872-4.604c1.305-0.652,4.238-1.02,5.216-2.486c-1.1-4.033,1.956-20.29,17.846-13.934C341.887,334.318,332.053,347.839,329.119,348.694z"></path><path style="fill:#6E6E6E;stroke:#000000;stroke-linecap:round;stroke-linejoin:round;" d="M312.252,346.128c0,0-1.345,2.078-2.078,4.156c-0.733,2.077-2.111,2.033-3.3,1.1c-1.711-1.345-0.367-6.479,1.1-7.578"></path><path style="fill:none;stroke:#000000;stroke-linecap:round;stroke-linejoin:round;" d="M327.164,348.817c0,0-3.178,0.733-5.134-0.367"></path></g></g><g><path style="fill:#FF94B8;stroke:#000000;stroke-linecap:round;stroke-linejoin:round;" d="M317.537,324.55c0,0-2.813-0.001-2.531,1.404c0.281,1.407,2.25,0.846,2.813,1.688c0.563,0.844,5.625,7.596,8.156,7.875c2.532,0.283,3.938,0.845,3.938,0.845s0.562,5.345,1.968,4.782c1.407-0.563,1.97-3.376,1.97-4.782c0.563-1.407,4.782-0.845,7.313-7.032c1.764-4.309-0.494-9.323-5.906-13.219C328.227,311.047,316.975,316.111,317.537,324.55z"></path><circle style="fill:#FF0059;" cx="337.888" cy="327.971" r="1.189"></circle><circle style="fill:#FF0059;" cx="330.65" cy="331.016" r="1.189"></circle><circle style="fill:#FF0059;" cx="330.017" cy="324.372" r="1.189"></circle><circle style="fill:#FF0059;" cx="323.058" cy="321.206" r="1.189"></circle><circle style="fill:#FF0059;" cx="329.385" cy="318.044" r="1.188"></circle><circle style="fill:#FF0059;" cx="322.742" cy="326.826" r="1.189"></circle></g></g></svg>