<svg xmlns="http://www.w3.org/2000/svg" width="500" height="500" version="1.1"><g id="x050"><g><g><path style="fill:#666666;stroke:#000000;stroke-linecap:round;stroke-linejoin:round;" d="M289.375,374.5c0,0-3.25,3.375,0.33,7.706c3.479,4.209,6.903,2.674,6.903,2.674l14.054-9.106l-7.521-10.328L289.375,374.5z"></path><path style="fill:#666666;stroke:#000000;stroke-linecap:round;stroke-linejoin:round;" d="M299.742,367.94c0,0-2.56,3.396,1.47,7.23c4.029,3.838,6.903,2.675,6.903,2.675l14.054-9.106l-7.521-10.328L299.742,367.94z"></path><path style="fill:#B2B2B2;" d="M315.811,363.951l-13.67,8.741c0,0-2.385-2.104-1.554-3.123c0.832-1.023,13.526-8.79,13.526-8.79L315.811,363.951z"></path><path style="fill:#FFFFFF;" d="M313.277,363.75l-2.93,1.456c-0.629-1.513,2.982-3.552,2.982-3.552L313.277,363.75z"></path><path style="fill:#FFFFFF;" d="M318.771,369.175c0,0-4.818-2.595-5.494-5.425c-1.125,0.924,0.135,4.925,0.718,5.12c0.585,0.197,2.922,1.471,2.922,1.471L318.771,369.175z"></path><path style="fill:none;stroke:#000000;stroke-linecap:round;stroke-linejoin:round;" d="M307.668,364.468c0,0,0.225,7.557,7.878,8.502"></path></g><g><path style="fill:#6E6E6E;" d="M320.542,369.711l102.454-72.245c0,0,1.124-7.862-8.037-9.64c-15.688,9.904-101.053,70.987-101.053,70.987S310.964,365.631,320.542,369.711z"></path><path style="opacity:0.5;fill:#FFFFFF;" d="M416.062,289.227c-0.438-0.147-100.939,71.457-100.939,71.457l-0.191-1.852l99.814-70.048L416.062,289.227z"></path><path style="opacity:0.5;fill:#FFFFFF;" d="M422.038,297.09c-0.438-0.147-100.94,71.458-100.94,71.458l-1.362-1.271l102.11-71.552L422.038,297.09z"></path><path style="fill:#FFFFFF;" d="M414.054,292.781c0,0,3.459,0.837,3.062,3.955c-20.575,14.769-97.051,68.915-97.051,68.915s-3.766-1.699-2.59-3.905C318.649,359.54,414.054,292.781,414.054,292.781z"></path></g></g></g></svg>