<svg xmlns="http://www.w3.org/2000/svg" width="500" height="500" version="1.1"><g id="x051"><g><g><path style="fill:#6E6E6E;stroke:#000000;stroke-linecap:round;stroke-linejoin:round;" d="M296.768,327.491c-3.002,6.733-3.161,13.395-0.278,14.958c2.992,1.621,8.109-2.815,11.34-9.998c3.251-7.219,3.188-14.072-0.043-15.233C304.674,316.096,299.779,320.726,296.768,327.491z"></path><path style="fill:#6E6E6E;stroke:#000000;stroke-linecap:round;stroke-linejoin:round;" d="M298.97,328.48c-3.047,6.823-3.178,13.59-0.216,15.195c3.074,1.668,8.309-2.811,11.595-10.096c3.303-7.322,3.205-14.286-0.117-15.484C307.029,316.943,302.031,321.624,298.97,328.48z"></path><path style="fill:#6E6E6E;stroke:#000000;stroke-linecap:round;stroke-linejoin:round;" d="M301.234,329.496c-3.094,6.916-3.202,13.791-0.15,15.443c3.163,1.715,8.517-2.809,11.857-10.194c3.361-7.43,3.224-14.514-0.195-15.744C309.456,317.816,304.343,322.547,301.234,329.496z"></path><path style="fill:#6E6E6E;stroke:#000000;stroke-linecap:round;stroke-linejoin:round;" d="M303.563,330.538c-3.145,7.011-3.22,13.999-0.084,15.698c3.257,1.768,8.737-2.799,12.137-10.297c3.417-7.535,3.241-14.738-0.279-16.005C311.947,318.713,306.723,323.496,303.563,330.538z"></path><path style="fill:#6E6E6E;stroke:#000000;stroke-linecap:round;stroke-linejoin:round;" d="M305.958,331.613c-3.194,7.105-3.242,14.21-0.014,15.962c3.358,1.818,8.966-2.79,12.424-10.396c3.478-7.652,3.264-14.979-0.367-16.286C314.516,319.635,309.167,324.47,305.958,331.613z"></path><path style="fill:#6E6E6E;stroke:#000000;stroke-linecap:round;stroke-linejoin:round;" d="M308.423,332.716c-3.246,7.208-3.262,14.434,0.063,16.237c3.46,1.873,9.204-2.781,12.724-10.504c3.539-7.766,3.278-15.223-0.46-16.568C317.152,320.59,311.685,325.475,308.423,332.716z"></path></g><g><path style="fill:#FFDB00;stroke:#000000;stroke-linecap:round;stroke-linejoin:round;" d="M323.261,323.393c-3.788-1.54-9.298,2.693-12.552,9.832s-3.079,14.043,0.566,15.894l6.336,3.132l11.983-26.298L323.261,323.393z"></path><path style="fill:#FF0000;stroke:#000000;stroke-linecap:round;stroke-linejoin:round;" d="M314.16,350.252l-4.688-2.152c0,0,0.508,3.316,0.206,4.525c-0.302,1.211-14.091,30.829-14.321,32.842c-0.23,2.015-0.663,2.332,0.492,2.857c1.156,0.528,1.111-0.008,2.478-1.504c1.369-1.495,14.675-31.332,15.392-32.355c0.718-1.02,3.551-2.811,3.551-2.811L314.16,350.252z"></path><path style="fill:#FF0000;stroke:#000000;stroke-linecap:round;stroke-linejoin:round;" d="M326.92,324.738l-5.152-2.086c0,0,1.789-4.506,2.435-4.387c0.642,0.119,5.218,1.821,5.582,2.109c0.509,0.404,1.449,0.834,1.469,1.366c0.019,0.532-1.54,3.569-1.54,3.569L326.92,324.738z"></path></g><g><path style="fill:#6E6E6E;stroke:#000000;stroke-linecap:round;stroke-linejoin:round;" d="M316.506,335.868c-3.514,7.718-3.424,15.472,0.28,17.366c3.801,1.941,9.923-2.982,13.599-11.043c3.672-8.06,3.371-15.914-0.583-17.505C325.938,323.13,320.023,328.15,316.506,335.868z"></path><path style="fill:#6E6E6E;stroke:#000000;stroke-linecap:round;stroke-linejoin:round;" d="M319.322,337.152c-3.548,7.783-3.431,15.625,0.346,17.556c3.867,1.978,10.082-2.981,13.788-11.115c3.709-8.138,3.374-16.075-0.656-17.698C328.866,324.31,322.871,329.368,319.322,337.152z"></path><path style="fill:#6E6E6E;stroke:#000000;stroke-linecap:round;stroke-linejoin:round;" d="M322.189,338.456c-3.583,7.856-3.433,15.784,0.411,17.75c3.942,2.017,10.246-2.972,13.986-11.186c3.743-8.215,3.374-16.241-0.73-17.896C331.85,325.513,325.769,330.602,322.189,338.456z"></path><path style="fill:#6E6E6E;stroke:#000000;stroke-linecap:round;stroke-linejoin:round;" d="M325.105,339.788c-3.613,7.927-3.434,15.944,0.484,17.946c4.016,2.055,10.411-2.967,14.191-11.26c3.78-8.292,3.373-16.415-0.813-18.096C334.888,326.732,328.721,331.857,325.105,339.788z"></path><path style="fill:#6E6E6E;stroke:#000000;stroke-linecap:round;stroke-linejoin:round;" d="M328.079,341.141c-3.646,8.004-3.437,16.109,0.556,18.149c4.092,2.093,10.582-2.96,14.398-11.333c3.817-8.373,3.373-16.585-0.892-18.305C337.983,327.979,331.729,333.141,328.079,341.141z"></path><path style="opacity:0.5;fill:#FFFFFF;" d="M328.699,341.903c-0.407,0.764-0.773,1.533-1.104,2.294c0.318-0.916,0.686-1.842,1.109-2.771c3.492-7.66,9.405-12.654,13.18-11.133c0.02,0.006,0.037,0.016,0.055,0.023C337.785,330.484,332.276,335.152,328.699,341.903z"></path><path style="opacity:0.5;fill:#FFFFFF;" d="M325.758,340.446c-0.389,0.749-0.739,1.499-1.055,2.247c0.3-0.898,0.655-1.803,1.056-2.712c3.344-7.493,9.078-12.416,12.783-10.972c0.019,0.006,0.037,0.017,0.056,0.025C334.533,329.238,329.193,333.84,325.758,340.446z"></path><path style="opacity:0.5;fill:#FFFFFF;" d="M322.845,339.604c-0.359,0.78-0.683,1.56-0.973,2.333c0.271-0.929,0.588-1.869,0.961-2.807c3.058-7.781,8.579-12.997,12.31-11.628c0.017,0.009,0.036,0.021,0.054,0.024C331.171,327.855,326.026,332.73,322.845,339.604z"></path><path style="opacity:0.5;fill:#FFFFFF;" d="M319.87,338.582c-0.36,0.781-0.682,1.559-0.971,2.336c0.27-0.932,0.587-1.871,0.958-2.813c3.059-7.778,8.582-12.993,12.31-11.623c0.019,0.007,0.037,0.019,0.055,0.022C328.197,326.835,323.055,331.707,319.87,338.582z"></path><path style="opacity:0.5;fill:#FFFFFF;" d="M316.889,337.365c-0.362,0.781-0.686,1.559-0.974,2.332c0.271-0.929,0.588-1.867,0.959-2.807c3.059-7.781,8.58-12.998,12.31-11.626c0.018,0.007,0.037,0.017,0.055,0.025C325.212,325.617,320.067,330.49,316.889,337.365z"></path><path style="opacity:0.5;fill:#FFFFFF;" d="M310.363,330.596c-0.321,0.547-0.609,1.099-0.873,1.648c0.258-0.662,0.555-1.332,0.889-1.997c2.771-5.507,7.221-8.987,9.921-7.759c0.015,0.008,0.026,0.016,0.036,0.022C317.313,322.506,313.164,325.76,310.363,330.596z"></path><path style="opacity:0.5;fill:#FFFFFF;" d="M308.343,329.329c-0.284,0.528-0.545,1.062-0.779,1.591c0.229-0.639,0.494-1.287,0.79-1.929c2.478-5.317,6.498-8.696,8.967-7.532c0.012,0.002,0.026,0.01,0.036,0.016C314.601,321.495,310.855,324.655,308.343,329.329z"></path><path style="opacity:0.5;fill:#FFFFFF;" d="M306.174,327.91c-0.278,0.502-0.531,1.004-0.761,1.507c0.226-0.61,0.485-1.218,0.777-1.827c2.422-5.029,6.304-8.204,8.656-7.074c0.012,0.006,0.021,0.012,0.033,0.016C312.241,320.522,308.625,323.492,306.174,327.91z"></path><path style="opacity:0.5;fill:#FFFFFF;" d="M303.718,327.01c-0.278,0.5-0.53,1.002-0.763,1.506c0.229-0.607,0.486-1.218,0.778-1.826c2.423-5.033,6.305-8.206,8.654-7.078c0.011,0.008,0.024,0.014,0.036,0.02C309.787,319.621,306.168,322.589,303.718,327.01z"></path><path style="opacity:0.5;fill:#FFFFFF;" d="M301.329,326.03c-0.277,0.501-0.529,1.004-0.761,1.507c0.228-0.607,0.485-1.219,0.779-1.826c2.421-5.033,6.302-8.205,8.653-7.078c0.011,0.006,0.022,0.015,0.034,0.019C307.398,318.643,303.78,321.611,301.329,326.03z"></path><path style="opacity:0.5;fill:#FFFFFF;" d="M298.877,325.2c-0.278,0.501-0.531,1.004-0.761,1.507c0.225-0.606,0.484-1.22,0.778-1.826c2.42-5.031,6.303-8.205,8.653-7.074c0.012,0.004,0.023,0.011,0.035,0.016C304.946,317.813,301.329,320.782,298.877,325.2z"></path><path style="fill:#6E6E6E;stroke:#000000;stroke-linecap:round;stroke-linejoin:round;" d="M331.11,342.523c-3.683,8.077-3.44,16.275,0.628,18.354c4.174,2.132,10.76-2.952,14.614-11.407c3.854-8.457,3.37-16.763-0.979-18.516C341.135,329.25,334.79,334.445,331.11,342.523z"></path><ellipse transform="matrix(0.908 0.419 -0.419 0.908 177.6456 -109.0477)" style="fill:#505050;" cx="337.133" cy="349.989" rx="5.95" ry="11.002"></ellipse><path style="opacity:0.5;fill:#FFFFFF;" d="M344.745,350.037c2.521-5.526,3.244-11.361,1.842-14.872c-0.549-1.37-1.374-2.288-2.449-2.72c-1.857-0.748-4.214,0.034-6.55,1.911c2.646-2.479,5.413-3.617,7.532-2.764c1.075,0.433,1.899,1.349,2.449,2.722c1.4,3.509,0.678,9.345-1.841,14.871c-1.778,3.898-4.257,7.215-6.816,9.273C341.115,356.393,343.197,353.435,344.745,350.037z"></path></g></g></g></svg>