<svg xmlns="http://www.w3.org/2000/svg" width="500" height="500" version="1.1"><g id="x052"><g><g><line style="fill:none;stroke:#000000;stroke-linecap:round;stroke-linejoin:round;" x1="338.413" y1="291.43" x2="264.937" y2="412.953"></line><path style="fill:#6E6E6E;stroke:#000000;stroke-linecap:round;stroke-linejoin:round;" d="M341.096,289.408c1.32,2.152,4.967,18.271,2.559,23.553c-2.407,5.279-56.034,90.397-59.863,94.261c-3.828,3.869-10.771,8.601-14.979,8.682c-4.195,0.079-6.907-0.832-8.954-2.364c-2.043-1.529,14.3-2.232,20.1-9.441c5.795-7.215,56.563-88.817,58.573-93.215c2.002-4.388-1.105-22.248-3.093-27.506C338.241,283.782,339.77,287.255,341.096,289.408z"></path></g><g><path style="fill:#FAFAFA;stroke:#000000;stroke-linecap:round;stroke-linejoin:round;" d="M320.106,352.961c0,0-1.48-0.397-3.369-1.488c-1.89-1.091-2.647-2.524-2.647-2.524l-19.079,30.175c0,0,0.672,1.293,2.811,2.645c2.139,1.353,3.761,1.219,3.761,1.219L320.106,352.961z"></path></g></g></g></svg>