<svg xmlns="http://www.w3.org/2000/svg" width="500" height="500" version="1.1"><g id="x053"><g><g><polygon style="fill:#6E6E6E;stroke:#000000;stroke-linecap:round;stroke-linejoin:round;" points="329.602,339.2 275.58,398.377 277.926,400.694 331.813,341.117 "></polygon></g><g><polygon style="fill:#BCBCBC;stroke:#000000;stroke-linecap:round;stroke-linejoin:round;" points="270.848,404.565 275.802,392.037 281.566,394.074 284.451,399.232 "></polygon><path style="fill:#FAFAFA;" d="M277.402,393.814l-1.043-0.379c0,0-3.498,8.474-3.672,8.851c1.396-2.356,3.551-7.714,3.9-8.008C276.938,393.983,277.402,393.814,277.402,393.814z"></path><path style="fill:#707070;" d="M281.392,395.183l1.694,3.086l-9.992,4.106C273.094,402.375,280.956,395.235,281.392,395.183z"></path><polygon points="280.527,394.112 273.289,402.187 281.584,395.033 "></polygon></g><g><path style="fill:#FAFAFA;stroke:#000000;stroke-linecap:round;stroke-linejoin:round;" d="M315.935,354.432c0,0,2.558-9.456,2.429-10.798c3.731-3.642,7.634-8.63,8.415-9.37c-0.088,1.391-0.088,2.257-0.088,2.257l1.561-4.032c0,0,3.12-2.692,3.773-3.295c-1.259,4.291-2.125,10.535-2.125,10.535L315.935,354.432z"></path><path d="M325.947,336.51l1.875-0.913c0,0-1.478,3.919-1.697,4.458C326.234,337.43,325.947,336.51,325.947,336.51z"></path><path d="M320.562,342.274c0,0-0.115,3.036-0.229,4.137c1.022-2.877,1.618-5.793,1.618-5.793L320.562,342.274z"></path></g><g><path style="fill:#FAFAFA;stroke:#000000;stroke-linecap:round;stroke-linejoin:round;" d="M331.405,340.931l11.104-1.915c0,0-7.064,6.964-7.971,7.669c-1.114-0.098-2.593,0.644-2.593,0.644l1.176,0.366c0,0-5.86,5.557-6.362,6.061c-1.107,0.304-6.66,1.415-8.176,2.015C321.816,352.342,331.405,340.931,331.405,340.931z"></path><path d="M332.212,346.573l-0.649,1.327c0,0-2.528-0.077-2.87,0c-0.339,0.074-0.339,0.074-0.339,0.074C330.585,347.22,332.212,346.573,332.212,346.573z"></path></g></g></g></svg>