<svg xmlns="http://www.w3.org/2000/svg" width="500" height="500" version="1.1"><g id="x054"><g><path style="fill:#FFDE52;stroke:#000000;stroke-linecap:round;stroke-linejoin:round;" d="M311.67,355.827c0,0-17.791,20.915-18.615,22.093c-1.57,2.25,1.837,5.183,3.629,3.257c0.95-1.021,19.108-21.713,19.108-21.713L311.67,355.827z"></path><path style="fill:#6E6E6E;stroke:#000000;stroke-linecap:round;stroke-linejoin:round;" d="M311.576,355.954c0,0-15.009,18.115-15.913,19.133c-1.452,1.637,2.24,4.907,3.711,3.205c0.795-0.926,16.803-18.609,16.803-18.609L311.576,355.954z"></path><path style="fill:#FFDE52;stroke:#000000;stroke-linecap:round;stroke-linejoin:round;" d="M314.7,332.851c2.405-2.002,5.887,2.734,4.443,4.277c-1.21,1.289-6.53,6.362-6.312,11.969c0.163,4.155,5.905,9.352,10.261,8.241c5.143-1.312,9.367-8.226,10.235-9.241c1.634-1.919,5.538,1.316,4.582,3.199c-0.634,1.248-5.883,9.976-13.567,11.672c-7.368,1.623-17.504-5.331-17.421-14.874C306.99,340.093,313.316,333.997,314.7,332.851z"></path><ellipse transform="matrix(-0.7554 0.6553 -0.6553 -0.7554 779.9369 419.5607)" style="fill:#FFFFFF;" cx="311.654" cy="355.362" rx="0.444" ry="1.677"></ellipse><path style="fill:#FFFFFF;" d="M310.836,339.979c0,0-2.852,6.14-1.457,10.043c1.397,3.908-0.297,3.009-0.879,0.853C307.915,348.718,307.358,345.775,310.836,339.979z"></path><path style="fill:#D13036;stroke:#000000;stroke-linecap:round;stroke-linejoin:round;" d="M313.598,333.947c0.009,1.066,3.556,4.735,4.211,4.117c-1.057,1.605-2.562,3.337-3.419,4.448c-0.854,1.114-5.11-2.868-4.611-3.659C310.549,337.617,313.152,334.607,313.598,333.947z"></path><path style="fill:#D13036;stroke:#000000;stroke-linecap:round;stroke-linejoin:round;" d="M332.68,349.25c0.007,1.063,3.918,3.95,4.571,3.333c-1.058,1.606-3.524,4.642-4.246,5.246c-0.721,0.605-4.721-2.938-4.151-3.679C329.424,353.41,332.231,349.906,332.68,349.25z"></path></g></g></svg>