<svg xmlns="http://www.w3.org/2000/svg" width="500" height="500" version="1.1"><g id="x055"><g><path style="fill:#6E6E6E;stroke:#000000;" d="M285.479,446.089c-0.124,1.351,3.495,1.412,3.957-0.616c0.347-1.53,4.175-13.193,4.655-15.581c0.479-2.39,7.093-29.603,7.093-29.603s8.435-17.77,9.358-20.47c0.495-1.449,1.682-12.305,1.682-12.305s2.444-10.134,2.534-10.854c0.196-1.557,4.444-8.29,4.763-9.387c0.336-1.159,1.002-6.203,1.016-8.186c0.014-1.996,1.218-6.896,1.218-6.896s2.792-5.139,2.989-6.696c0.194-1.557,0.943-5.712,1.369-6.958c0.426-1.247,3.787-8.731,3.309-10.288c-0.477-1.557-0.76-4.671-1.664-4.979c-0.905-0.31-4.964-1.232-5.851-0.608c-0.888,0.625-3.019,6.858-3.019,6.858s-0.74,11.63-1.094,12.669c-0.357,1.039-2.788,7.169-3.144,8.209c-0.355,1.038-1.159,10.279-1.373,10.901c-0.213,0.625-4.378,10.343-5.096,11.95c-1.439,3.221-2.817,8.884-3.34,9.766c-0.374,0.629-0.807,13.184-1.534,14.327c-0.727,1.146-6.872,17.145-7.672,18.496c-0.799,1.351-2.59,14.095-2.485,15.756c0.105,1.659-3.344,15.842-3.468,17.191C289.557,430.138,285.604,444.739,285.479,446.089z"></path><path style="fill:#505050;" d="M313.345,355.806c0,0-1.578-4.141-0.973-5.049c0.606-0.912,5.141-3.674,5.988-3.568C316.468,350.526,313.345,355.806,313.345,355.806z"></path><path style="fill:#505050;" d="M304.743,377.405c-0.416,0.256,0.949-13.559,1.313-13.514c0.364,0.045,3.397,1.409,3.125,2.607C308.909,367.697,306.077,376.585,304.743,377.405z"></path><path style="fill:#505050;" d="M299.706,400.066c-0.337,0.19-0.608-3.033-0.23-4.096c0.379-1.061,4.85-6.297,4.896-5.675C304.418,390.919,300.236,399.762,299.706,400.066z"></path><g><path style="fill:#FFFFFF;stroke:#000000;" d="M313.381,338.319c1.945-2.105,6.971-0.487,7.21-0.497s0.967-0.896,0.967-0.896l-0.266-0.707l0.4-1.924c0,0,0.422-1.447,0.964-2.232s2.463-4.701,2.804-6.409c0.338-1.706,0.728-5.756,1.128-7.131c0.398-1.375,3.393-8.437,3.324-9.554c-0.067-1.119-0.699-6.248-1.711-6.541c-1.015-0.297-6.407-0.921-6.698-0.455c-0.293,0.465-3.615,7.037-3.804,7.688c-0.188,0.652-0.055,7.757-0.108,8.213c-0.054,0.455-1.024,6.769-1.024,6.769s-2.186,5.097-2.29,5.458c-0.105,0.362-0.81,4.947-0.863,5.401c-0.054,0.457-0.566,1.956-0.566,1.956L313.381,338.319z"></path><path style="fill:none;stroke:#000000;" d="M319.882,305.48c4.428-0.286,9.758,2.623,9.758,2.623"></path><path style="fill:none;stroke:#000000;" d="M329.843,309.211c-6.918-0.854-12.174,2.629-12.174,2.629"></path><path style="fill:none;stroke:#000000;" d="M317.604,318.008c3.812-1.405,8.984,0.515,8.984,0.515"></path><path style="fill:none;stroke:#000000;" d="M325.639,324.945c-3.861-2.741-8.759-2.28-8.759-2.28"></path><path style="fill:none;stroke:#000000;" d="M314.332,330.352c4.63-2.425,9.484-0.753,9.484-0.753"></path></g></g></g></svg>