<svg xmlns="http://www.w3.org/2000/svg" width="500" height="500" version="1.1"><g id="x056"><g><path style="fill:#6E6E6E;stroke:#000000;stroke-linecap:round;stroke-linejoin:round;" d="M308.609,365.987c0.263,0.177,8.063,21.997,7.675,22.983c-0.387,0.988-15.81,7.503-18.042,4.134c-2.23-3.369-8.333-20.649-7.428-22.697C291.719,368.36,306.953,364.861,308.609,365.987z"></path><polygon style="fill:#FF0000;" points="301.256,391.723 299.563,390.814 300.138,389.163 301.756,390.073 "></polygon><path style="fill:#6E6E6E;stroke:#000000;stroke-linecap:round;stroke-linejoin:round;" d="M311.905,364.828c0.298,0.104,13.349,19.254,13.223,20.308c-0.127,1.053-13.411,11.243-16.42,8.548c-3.009-2.697-13.268-17.883-12.909-20.093C296.159,371.382,310.019,364.156,311.905,364.828z"></path><g><path d="M309.875,389.063c-0.074,0.075-1.234,1.155-0.745,1.521c0.492,0.367,1.947,0.458,1.947,0.458s0.596-1.408,0.271-1.906C311.024,388.637,309.875,389.063,309.875,389.063z"></path><path d="M309.934,389.23c-0.113-0.035-0.903-0.435-0.903-0.435l1.15-0.576L309.934,389.23z"></path></g><path style="fill:#6E6E6E;stroke:#000000;stroke-linecap:round;stroke-linejoin:round;" d="M309.973,359.988c0.315-0.032,20.281,11.731,20.616,12.735c0.333,1.008-7.341,15.889-11.211,14.731c-3.872-1.158-19.624-10.523-20.24-12.676C298.521,372.628,307.98,360.185,309.973,359.988z"></path><path style="fill:#FF0000;" d="M311.962,373.065c0,0-0.865,4.749,2.611,5.187c1.822,0.228,1.488-2.82,1.488-2.82s2.425-0.072,2.438-1.825C318.513,371.854,313.87,370.725,311.962,373.065z"></path><path style="fill:#FF0000;" d="M318.904,383.549c0,0-0.307,1.684,0.927,1.838c0.644,0.081,0.527-0.999,0.527-0.999s0.857-0.026,0.863-0.646C321.226,383.119,319.579,382.719,318.904,383.549z"></path></g></g></svg>