<svg xmlns="http://www.w3.org/2000/svg" width="500" height="500" version="1.1"><g id="x057"><g><path style="fill:#7A523A;stroke:#000000;stroke-linecap:round;stroke-linejoin:round;" d="M313.558,376.408l-28.682-19.168c0,0-2.859-0.573-3.969,1.286c-1.108,1.858-0.352,3.906-0.352,3.906l26.931,21.449L313.558,376.408z"></path><g><g><path style="fill:#AAAAAA;stroke:#000000;stroke-linecap:round;stroke-linejoin:round;" d="M335.374,403.605c0,0-6.63-5.055-7.107-5.221c-0.476-0.17-1.91,0.128-2.285,1.1c-0.372,0.969,0.08,2.626,0.823,3.554c0.741,0.928,5.648,4.144,5.648,4.144L335.374,403.605z"></path><path style="fill:#AAAAAA;stroke:#000000;stroke-linecap:round;stroke-linejoin:round;" d="M323.161,389.929c-0.047,0.276,0.699,1.044,1.056,1.169c0.356,0.124,0.96-0.264,1.136-0.103c0.179,0.161,3.934,4.578,3.761,6.685c-0.611,1.086-0.716,1.283-0.716,1.283s3.74,2.742,3.982,2.628c0.239-0.117,1.818-1.965,1.867-2.48c0.047-0.517-4.377-9.301-6.112-10.44C326.603,387.662,323.336,388.855,323.161,389.929z"></path><path style="fill:#AAAAAA;stroke:#000000;stroke-linecap:round;stroke-linejoin:round;" d="M322.555,395.751c0,0,0.88,3.772,1.353,4.139c0.472,0.366,1.031,0.096,1.031,0.096l2.516,4.814c0,0-3.017,0.812-4.417-0.146c-1.396-0.955-5.166-8.476-4.872-10.741c0.46-0.173,1.187-0.817,1.187-0.817L322.555,395.751z"></path><path style="fill:#AAAAAA;stroke:#000000;stroke-linecap:round;stroke-linejoin:round;" d="M329.588,388.711c0,0,0.819-3.014,0.669-3.533c0.694-1.122,2.772-2.963,3.438-2.297c0.667,0.667,0.751,6.897-2.053,9.383C330.614,391.871,329.588,388.711,329.588,388.711z"></path><path style="fill:#AAAAAA;stroke:#000000;stroke-linecap:round;stroke-linejoin:round;" d="M326.144,397.972c0,0-6.354-3.558-7.09-4.982c-0.735-1.423-1.412-3.96-0.75-5.66c0.659-1.704,4.845-7.174,5.866-7.617c1.022-0.44,4.087-0.438,4.732,0.191c-0.948,1.002-1.296,1.413-1.296,1.413s-4.776,5.262-5.243,7.365c-0.47,2.102,1.865,2.954,2.502,3.042c1.106,0.454,3.853,4.318,3.683,5.29C328.373,397.987,326.144,397.972,326.144,397.972z"></path><path style="fill:#AAAAAA;stroke:#000000;stroke-linecap:round;stroke-linejoin:round;" d="M332.93,374.212c0.032-0.27-0.134-1.713-0.566-2c-0.436-0.283-1.617,0.234-1.617,0.234s-4.42,5.486-4.407,5.926c0.014,0.439,1.862,1.919,2.824,1.456C330.125,379.364,332.655,376.615,332.93,374.212z"></path><path style="fill:#AAAAAA;stroke:#000000;stroke-linecap:round;stroke-linejoin:round;" d="M322.427,367.169c0.064-0.179,0.819-1.479,1.217-1.576c0.402-0.093,4.66-0.167,4.77,0.569c0.108,0.738-2.765,3.9-2.765,3.9l-3.208-1.122l0.004-1.633"></path><path style="fill:#AAAAAA;stroke:#000000;stroke-linecap:round;stroke-linejoin:round;" d="M333.243,373.222c0,0-1.277-3.779-1.374-3.881c-0.099-0.103-7.457,2.257-7.817,2.23c-0.356-0.026-0.826-0.489-0.697-1.144c0.129-0.657,7.923-5.496,10.069-5.244c2.146,0.251,3.604,2.463,3.517,3C336.852,368.718,333.243,373.222,333.243,373.222z"></path><path style="fill:#AAAAAA;stroke:#000000;stroke-linecap:round;stroke-linejoin:round;" d="M328.839,370.947c0,0-6.855,1.968-7.287,1.581c-0.435-0.385-0.757-1.464-0.757-1.464s-1.326-0.498-2.046-0.249c-0.717,0.248-1.417,4.436-0.496,5.325c0.921,0.889,7.133,0.765,8.175,0.363c1.041-0.403,4.381-4.134,4.272-4.974C330.593,370.693,328.839,370.947,328.839,370.947z"></path><path style="fill:#AAAAAA;stroke:#000000;stroke-linecap:round;stroke-linejoin:round;" d="M308.075,377.88c0,0,0.086,0.994,0.236,1.614c0.149,0.619,2.109,3.972,3.198,4.286c1.091,0.316,3.295,0.687,3.074,0.743c-0.219,0.06-5.507,2.105-7.483,0.046c-1.348-1.397-3.064-6.671-2.852-7.663c0.215-0.992,1.523-1.867,1.523-1.867L308.075,377.88z"></path><path style="fill:#AAAAAA;stroke:#000000;stroke-linecap:round;stroke-linejoin:round;" d="M311.302,375.143c0,0,3.097,0.483,3.669,0.851c0.572,0.365,2.005,1.602,2.02,3.474c0.012,1.867-0.446,3.177-1.208,3.443c-0.761,0.269-2.976-0.644-3.148-1.003C312.459,381.548,311.302,375.143,311.302,375.143z"></path><path style="fill:#AAAAAA;stroke:#000000;stroke-linecap:round;stroke-linejoin:round;" d="M312.222,372.13c0,0-2.27,1.439-2.399,1.994c-0.126,0.556,2.369,4.095,2.723,4.42s0.505,2.176-0.096,2.367c-0.6,0.188-6.438-4.757-6.773-7.507c-0.339-2.751,2.467-4.004,2.467-4.004L312.222,372.13z"></path><path style="fill:#AAAAAA;stroke:#000000;stroke-linecap:round;stroke-linejoin:round;" d="M321.654,370.997c0,0,1.93-1.424,1.706-2.402c-0.224-0.978-2.112-2.341-2.112-2.341s-5.833-1.341-8.449-0.722c-2.615,0.616-5.179,1.553-5.071,2.489c0.104,0.938,0.979,2.345,2.012,2.537c1.029,0.196,5.042-0.402,6.57-0.197C317.839,370.563,320.936,371.148,321.654,370.997z"></path><path style="fill:#AAAAAA;stroke:#000000;stroke-linecap:round;stroke-linejoin:round;" d="M327.77,381.339c0,0-1.558,0.156-1.962,0.547c-0.403,0.394-1.014,2.614,0.204,3.605c1.221,0.995,4.309,0.394,6.553-1.572c3.752-3.286,6.394-8.263,6.675-11.064c0.28-2.801-1.016-5.29-1.715-5.1c-0.701,0.186-2.356,4.859-4.072,7.34C331.561,377.834,327.77,381.339,327.77,381.339z"></path></g><g><path style="fill:#AAAAAA;stroke:#000000;stroke-linecap:round;stroke-linejoin:round;" d="M329.674,442.104c0,0-2.067,11.015-1.267,12.216c0.802,1.201,10.411-7.011,10.411-7.879C338.818,445.575,329.674,442.104,329.674,442.104z"></path><path style="fill:#AAAAAA;stroke:#000000;stroke-linecap:round;stroke-linejoin:round;" d="M345.56,447.773c0,0,4.407,7.943,5.276,7.81c0.866-0.134,4.07-7.543,3.603-8.543C353.97,446.04,345.56,447.773,345.56,447.773z"></path><path style="fill:#AAAAAA;stroke:#000000;stroke-linecap:round;stroke-linejoin:round;" d="M368.119,438.291l-6.206,7.011c0,0,9.212,5.672,9.479,4.672C371.658,448.972,368.119,438.291,368.119,438.291z"></path><path style="fill:#AAAAAA;stroke:#000000;stroke-linecap:round;stroke-linejoin:round;" d="M370.116,416.999c0,0,6.342,0.866,6.54,1.868c0.203,1.002-5.672,3.938-5.672,3.938L370.116,416.999z"></path><path style="fill:#AAAAAA;stroke:#000000;stroke-linecap:round;stroke-linejoin:round;" d="M322.527,424.354c-0.534,0.065-6.94,3.938-7.273,4.539c-0.336,0.601,7.944,2.268,8.61,1.933C324.531,430.49,322.527,424.354,322.527,424.354z"></path><circle style="fill:#3F3F3F;stroke:#000000;stroke-linecap:round;stroke-linejoin:round;" cx="347.691" cy="425.014" r="24.364"></circle><path style="fill:#AAAAAA;stroke:#000000;stroke-linecap:round;stroke-linejoin:round;" d="M354.034,427.681c0,0-3.341-5.938-8.346-4.67c-5.005,1.271-6.54,7.076-6.674,8.013c-0.133,0.933,10.552,18.688,11.619,18.888C351.7,450.108,355.169,429.284,354.034,427.681z"></path><path style="fill:#AAAAAA;stroke:#000000;stroke-linecap:round;stroke-linejoin:round;" d="M353.761,406.791c0,0-1.4,4.604,3.406,7.741c4.808,3.137,7.343-0.201,7.476-0.602c0.134-0.4,4.67-15.153,3.869-15.755C367.711,397.575,354.496,405.188,353.761,406.791z"></path><path style="fill:#FFFFFF;" d="M366.754,400.559l-5.872,13.216c0,0-2.935-0.133-4.139-2.802C358.61,407.103,366.754,400.559,366.754,400.559z"></path><path style="fill:#AAAAAA;stroke:#000000;stroke-linecap:round;stroke-linejoin:round;" d="M332.735,405.727c0,0-16.685-3.601-17.954-2.331c-1.27,1.269,10.216,13.413,11.283,14.081c1.065,0.668,4.47-0.067,6.205-3.138C334.006,411.267,333.471,406.326,332.735,405.727z"></path><path style="fill:#FFFFFF;" d="M316.962,404.974c0.665,0.134,14.15,6.808,14.418,8.007c0.149,0.665-2.402,3.204-4.539,3.339C324.172,413.383,316.962,404.974,316.962,404.974z"></path><path style="fill:#AAAAAA;stroke:#000000;stroke-linecap:round;stroke-linejoin:round;" d="M339.652,393.757l-1.6,8.23l7.52-1.869c0,0-2.805-5.828-3.738-6.184C340.901,393.578,339.878,393.49,339.652,393.757z"></path></g></g><path style="fill:#FFFFFF;" d="M342.998,426.995c0,0,1.868-2.403,3.067-2.404c0.861,0,2.812-0.274,4.491,1.232c0.665,0.6-0.748,20.928-0.748,20.928L342.998,426.995z"></path></g></g></svg>