<svg xmlns="http://www.w3.org/2000/svg" width="500" height="500" version="1.1"><g id="x058"><g><g><path style="fill:#754226;stroke:#000000;stroke-linecap:round;stroke-linejoin:round;" d="M402.873,448.756c0.281,0.248,3.062,3.308,3.062,3.308s0.807,1.909-1.224,4.206c-2.031,2.295-4.171,1.103-4.171,1.103l-3.741-2.313L402.873,448.756z"></path><path style="fill:#322C2E;stroke:#000000;stroke-linecap:round;stroke-linejoin:round;" d="M399.715,443.863c0.464-0.186,4.195-0.68,4.489-0.221c0.291,0.459-1.416,2.841-1.416,2.841s1.984,1.256,2.017,1.783s-2.451,1.526-2.451,1.526s0.375,2.626-0.355,3.676c-0.729,1.052-2.656,0.746-2.656,0.746s-0.775,2.907-1.96,3.455c-1.185,0.551-2.28-0.919-2.28-0.919s-2.475,1.104-3.259,0.412c-0.783-0.694-0.392-5.538-0.392-5.538L399.715,443.863z"></path><path style="fill:#6E6E6E;stroke:#000000;stroke-linejoin:round;" d="M391.617,453.47c3.612-0.698,5.673-3.367,5.673-3.367s2.396-2.37,2.647-6.042c-19.669-33.274-65.494-75.912-65.494-75.912l-4.192-1.014l-5.661,0.982l-0.943,2.759l-4.71,0.923c0,0,0.265,1.731,0.937,2.325c0.673,0.596-5.06,3.011-5.06,3.011s-1.698,5.984-2.37,5.389c-0.671-0.594-2.423-0.646-2.423-0.646l-0.343,4.787l-2.623,1.274l-0.285,5.735l1.52,4.039C308.289,397.713,356.193,437.999,391.617,453.47z"></path><path style="fill:#332E30;" d="M324.719,371.524l0.731-2.348l4.299-1.138c0,0,4.792,3.44,4.547,3.773c-0.244,0.332-2.786,4.223-2.786,4.223l1.104,3.771l-4.436,1.516l-0.416,4.872l-2.905,0.574l-0.866,4.025c0,0-3.022-0.079-3.232,0.383c-0.211,0.464-2.753,4.354-2.753,4.354s-2.198-2.595-2.47-2.285c-0.273,0.309-3.873,2.514-4.292,2.142s-3.137-3.223-3.137-3.223l0.028-3.419l2.773-1.441l0.222-4.145l1.549,0.622l6.919-7.653c0,0,1.283-1.112,1.393-1.913c0.109-0.8-0.729-1.544-0.729-1.544L324.719,371.524z"></path><path style="fill:none;stroke:#000000;stroke-linecap:round;stroke-linejoin:round;" d="M330.474,367.333l0.681,1.601l3.142,2.879l-2.436,4.333l0.754,3.661l-4.181,1.792l-0.475,4.371l-3.971,0.879l-0.394,3.942l-2.836,0.386l-2.729,3.875c0,0-2.191-2.038-2.494-1.807c-0.304,0.229-3.986,2.361-3.986,2.361l-2.148-2.199"></path></g><path style="fill:#B48C57;stroke:#000000;stroke-linecap:round;stroke-linejoin:round;" d="M299.771,368.071l16.808,14.518c0,0,1.66,1.17,2.998-0.342c1.337-1.513,1.704-3.282,0.865-4.025l-16.639-14.368C303.803,363.854,299.519,363.955,299.771,368.071z"></path><ellipse transform="matrix(-0.6626 0.749 -0.749 -0.6626 775.9529 382.7428)" style="fill:#7A5C2E;" cx="301.759" cy="366.164" rx="3.196" ry="1.793"></ellipse><path style="fill:#505050;" d="M336.184,379.721c-1.663,1.373,30.331,32.226,31.68,30.872C369.211,409.24,337.848,378.349,336.184,379.721z"></path><path style="fill:#505050;" d="M321.184,400.394c-1.534,1.517,50.53,41.307,51.749,39.84C374.152,438.765,322.717,398.878,321.184,400.394z"></path><path style="fill:#505050;" d="M322.996,393.973c-1.224,1.308,25.077,21.624,26.056,20.374C350.027,413.094,324.215,392.665,322.996,393.973z"></path></g></g></svg>