<svg xmlns="http://www.w3.org/2000/svg" width="500" height="500" version="1.1"><g id="x059"><g><path style="fill:#6E6E6E;stroke:#000000;stroke-linecap:round;stroke-linejoin:round;" d="M371.479,382.521c-3.062-2.663-7.24-3.151-8.864-1.024c-1.038,1.359-2.037,8.768-2.037,8.768l-6.419,0.677c-4.147-2.391-8.348-4.823-10.015-5.789l1.692-3.918l-28.04-13.815l-14.329,22.866c0,0-0.708,2.939,0.031,3.561c0.372,0.314,3.749,5.347,12.52,9.831c8.771,4.483,15.567,5.043,16.581,4.956c2.042-0.175,2.75-3.114,2.75-3.114l0.488-1.13c5.103-1.492,21.687-6.327,26.574-7.627c1.617,0.896,4.048,2.215,6.704,3.559c10.63,5.375,12.358,1.274,12.935-0.81C382.3,398.606,377.271,387.562,371.479,382.521z M340.089,394.543l2.351-5.441c1.237,0.513,6.528,3.518,6.354,3.954C348.643,393.438,342.481,394.243,340.089,394.543z"></path><path style="fill:#505050;" d="M338.57,394.691c0,0-1.646,3.373-1.152,3.702c0.494,0.329,13.328-2.305,13.739-2.963c0.083-1.151-0.905-2.139-0.905-2.139s-0.41,0.987-0.739,1.152c-0.329,0.164-10.119,1.563-10.448,1.315C338.735,395.514,338.57,394.691,338.57,394.691z"></path><path style="fill:#505050;" d="M316.935,370.339l-12.506,21.226c0,0-2.797,1.069,8.968,8.885c-1.481-5.429-2.058-10.036,0.739-15.301c2.799-5.267,5.841-9.873,9.873-8.64C319.772,373.277,320.089,373.362,316.935,370.339z"></path><path style="fill:#6E6E6E;stroke:#000000;stroke-linecap:round;stroke-linejoin:round;" d="M303.983,391.223c0,0-8.845-6.944-10.179-9.709c-1.333-2.767-1.444-9.682,2.213-12.874c3.656-3.193,9.709-6.179,19.873,2.048c0.825,2.419-1.575,5.618-2.222,5.538c-1.285-1.125-9.02-7.136-11.391-6.521c-2.369,0.614-6.367,4.91-5.396,8.254c0.973,3.345,10.672,8.273,10.672,8.273S308.783,390.973,303.983,391.223z"></path><g><ellipse transform="matrix(0.6199 0.7847 -0.7847 0.6199 448.7759 -144.1626)" style="fill:#B2B2B2;stroke:#000000;stroke-linecap:round;stroke-linejoin:round;" cx="373.192" cy="391.145" rx="12.641" ry="5.221"></ellipse><path style="fill:#FFFFFF;" d="M366.356,385.478c0,0-0.986-2.592,0.679-3.085c1.667-0.494,9.069,5.553,9.811,7.958c-4.011-3.641-7.465-4.873-8.021-4.564C368.27,386.093,366.541,386.34,366.356,385.478z"></path><ellipse transform="matrix(0.6536 0.7568 -0.7568 0.6536 425.4541 -146.7499)" cx="373.04" cy="391.399" rx="1.764" ry="0.972"></ellipse><ellipse transform="matrix(0.6536 0.7568 -0.7568 0.6536 422.9098 -147.6052)" cx="372.702" cy="388.192" rx="1.764" ry="0.972"></ellipse><ellipse transform="matrix(0.6537 0.7567 -0.7567 0.6537 419.0396 -145.3771)" cx="368.371" cy="385.188" rx="1.763" ry="0.971"></ellipse><ellipse transform="matrix(0.6535 0.757 -0.757 0.6535 422.4054 -144.2151)" cx="368.708" cy="389.226" rx="1.764" ry="0.972"></ellipse><ellipse transform="matrix(0.6537 0.7567 -0.7567 0.6537 428.304 -148.6847)" cx="376.623" cy="393.675" rx="1.764" ry="0.972"></ellipse><ellipse transform="matrix(0.6536 0.7568 -0.7568 0.6536 431.4132 -147.8005)" cx="377.173" cy="397.402" rx="1.765" ry="0.972"></ellipse><ellipse transform="matrix(0.6535 0.757 -0.757 0.6535 427.8989 -145.58)" cx="372.946" cy="394.543" rx="1.764" ry="0.973"></ellipse></g><ellipse transform="matrix(0.8982 0.4397 -0.4397 0.8982 198.3459 -107.7614)" style="fill:#6E6E6E;stroke:#000000;stroke-linecap:round;stroke-linejoin:round;" cx="331.786" cy="374.268" rx="15.577" ry="4.117"></ellipse><ellipse transform="matrix(0.8982 0.4396 -0.4396 0.8982 196.5574 -105.7577)" style="fill:#505050;stroke:#000000;stroke-linecap:round;stroke-linejoin:round;" cx="326.627" cy="371.522" rx="7.246" ry="1.914"></ellipse></g></g></svg>