<svg xmlns="http://www.w3.org/2000/svg" width="500" height="500" version="1.1"><g id="x006"><g><path style="fill:#FCCFA8;stroke:#000000;stroke-linecap:round;stroke-linejoin:round;" d="M314.467,343.173c0,0,2.784-5.551,4.356-6.471c2.98,0.971,10.371,6.898,11.63,10.083c1.26,3.183,1.396,7.022,1.396,7.022l-4.398,2.273C327.45,356.081,317.813,351.467,314.467,343.173z"></path><path style="fill:#FCCFA8;stroke:#000000;stroke-linecap:round;stroke-linejoin:round;" d="M311.903,349.096c0,0,0.441-5.085,4.192-7.781c4.892,1.661,10.221,8.191,10.638,10.965C320.585,351.05,311.903,349.096,311.903,349.096z"></path><path style="fill:#FFD17D;stroke:#000000;stroke-linecap:round;stroke-linejoin:round;" d="M308.318,354.309c0,0,3.271-5.232,4.619-6.021c2.286-0.733,6.597,0.966,8.92,0.813s7.329,3.249,7.329,3.249s5.694-2.124,10.925,1.148c-2.132,3.057-8.513,9.847-10.348,10.317C327.928,364.287,312.017,359.081,308.318,354.309z"></path><path style="fill:#FFD17D;stroke:#000000;stroke-linecap:round;stroke-linejoin:round;" d="M322.594,354.139c0,0-3.038-7.771-8.402-11.267c-1.919,2.732-3.913,6.712-3.647,8.368c2,2.046,8.736,5.14,8.736,5.14L322.594,354.139z"></path><path style="fill:none;stroke:#000000;stroke-linecap:round;stroke-linejoin:round;" d="M327.69,353.56c-0.237,0.105-4.22,0.554-6.165,1.517"></path><path style="fill:#FFFFFF;stroke:#000000;stroke-linecap:round;stroke-linejoin:round;" d="M325.194,342.265c0,0,1.609-1.545,0.632-4.592c-2.824-0.357-6.068,2.344-6.036,3.43C319.824,342.189,321.294,345.049,325.194,342.265z"></path><path style="fill:#FFFFFF;stroke:#000000;stroke-linecap:round;stroke-linejoin:round;" d="M331.385,353.016c0,0,2.517-0.165,2.835-0.653c0.319-0.487,0.427-2.36,0.227-3.047c-0.201-0.688-1.211-3.615-1.586-4.601c-0.375-0.987-0.143-3.335-0.954-3.864c-0.813-0.531-4.116-0.507-4.49-0.287c-0.375,0.218-3.461,0.616-4.57,1.467s-3.229,2.896-3.312,3.445c-0.08,0.55-0.921,2.549-0.313,2.896c0.605,0.35,2.221,3.627,2.841,4.169c0.617,0.543,2.124,1.572,2.124,1.572L331.385,353.016z"></path><path style="fill:#FF0000;stroke:#000000;stroke-linecap:round;stroke-linejoin:round;" d="M327.35,346.633c0,0,1.77-2.644,0.479-4.504c-1.288-1.859-7.2-0.109-6.948,1.352s1.548,4.021,2.304,4.282C323.941,348.023,326.612,347.265,327.35,346.633z"></path><path style="fill:#FF0000;stroke:#000000;stroke-linecap:round;stroke-linejoin:round;" d="M327.343,352.466c0,0,1.771-2.645,0.48-4.503c-1.287-1.861-7.198-0.109-6.946,1.352c0.251,1.46,1.547,4.021,2.304,4.281C323.936,353.857,326.607,353.097,327.343,352.466z"></path><g><path style="fill:#6E6E6E;stroke:#000000;stroke-linecap:round;stroke-linejoin:round;" d="M310.648,349.871c7.096,1.477,17.512,10.861,20.263,13.675c-9.784,10.249-19.361,16.213-27.656,19.559c-2.492-0.652-2.969-1.638-2.969-1.638S304.104,360.334,310.648,349.871z"></path><g><polygon style="fill:#FFFFFF;" points="324.147,359.058 325.566,367.078 323.69,368.777 321.519,357.072 "></polygon><path style="fill:#FFFFFF;" d="M321.062,370.908c-0.128,0.263-2.116,1.804-2.116,1.804l-2.918-19.305l2.435,1.523L321.062,370.908z"></path><path style="fill:#FFFFFF;" d="M313.133,352.003l3.027,22.59l-2.227,1.636l-3.04-24.258l0.367-0.722C311.261,351.249,312.883,351.807,313.133,352.003z"></path><path style="fill:#FFFFFF;" d="M308.695,356.582l2.343,21.359c0,0-1.816,1.069-2.222,1.273c-0.293-3.104-2.054-17.892-2.054-17.892L308.695,356.582z"></path><polygon style="fill:#FFFFFF;" points="304.798,367.94 306.26,380.348 304.149,381.428 303.104,373.963 "></polygon></g></g><path style="fill:#FFFFFF;stroke:#000000;stroke-linecap:round;stroke-linejoin:round;" d="M319.224,346.662c0,0,2.183-2.282,1.979-4.174c-0.2-1.892-1.965-3.876-1.965-3.876s-3.325,2.047-3.393,3.994C315.78,344.555,319.224,346.662,319.224,346.662z"></path></g></g></svg>