<svg xmlns="http://www.w3.org/2000/svg" width="500" height="500" version="1.1"><g id="x060"><g><g><path style="fill:#FFE34A;stroke:#000000;stroke-linecap:round;stroke-linejoin:round;" d="M336.835,260.535c-1.972,1.747-4.151,3.137-5.907,2.86l-0.228,0.786c-0.622,0.67-0.604,2.092-0.709,3.196c-0.097,1.026,6.011,4.577,6.871,5.07c0.991,0.042,8.052,0.299,8.516-0.623c0.501-0.988,1.275-2.18,1.107-3.081l0.227-0.785c-1.632-0.702-2.733-3.041-3.47-5.569c7.756-0.028,27.703-1.596,36.486-31.971c4.149-14.347,1.201-47.994-15.443-52.808c-16.643-4.813-37.095,22.069-41.243,36.417C314.258,244.4,330.291,256.371,336.835,260.535z"></path><path style="fill:#FFFFFF;" d="M372.81,188.817c0,0-1.923,2.58-2.337,2.2c-0.412-0.381-5.074-8.906-9.714-9.344c-7.379-0.696-18.724,8.702-20.66,10.886c3.416-5.938,11.573-16.123,22.1-13.605C370.022,180.823,372.246,186.694,372.81,188.817z"></path><path style="fill:#CCA12B;" d="M345.131,269.166c0,0-3.846-5.688-3.7-7.995c-1.607,1.492-2.699,7.975-2.699,7.975S343.331,270.867,345.131,269.166z"></path><path style="fill:#CCA12B;" d="M349.042,259.71c0,0,0.833-1.98-0.319-2.967c-1.153-0.985-3.891-1.909-3.891-1.909s4.645-2.056,7.475-2.805c2.832-0.749,19.215-11.303,22.743-30.281C376.552,231.463,370.61,250.655,349.042,259.71z"></path><path style="fill:#CCA12B;" d="M337.563,251.947c0,0-12.241-6.937-13.571-17.255c-1.328-10.316,9.43-36.222,17.774-41.128c1.34,1.694,5.491,9.038,11.862,6.436c6.373-2.601,10.133-13.799,6.762-16.604c5.467,0.535,8.807,7.512,8.835,9.22c0.031,1.708-31.867,31.874-34.026,43.094C332.341,250.568,337.563,251.947,337.563,251.947z"></path></g><g><g><rect x="320.559" y="272.421" transform="matrix(-0.9606 -0.2778 0.2778 -0.9606 550.1802 704.1803)" style="fill:#FFE34A;stroke:#000000;stroke-linecap:round;stroke-linejoin:round;" width="8.85" height="81.372"></rect><rect x="319.45" y="296.99" transform="matrix(0.9607 0.2775 -0.2775 0.9607 101.4725 -76.3404)" style="fill:#FFFFFF;" width="2.01" height="46.706"></rect><polygon style="fill:#CCA12B;" points="326.105,300.805 330.791,302.682 335.395,286.762 332.447,280.682 "></polygon><g><path style="fill:#FFE34A;stroke:#000000;stroke-linecap:round;stroke-linejoin:round;" d="M281.453,438.704c-1.484,4.071,4.627,8.41,4.627,8.41s0.399-1.385,0.857-2.967c-0.564-0.162-3.479-2.291-2.481-5.218c1.001-2.923,5.539-4.826,5.539-4.826l-2.006-2.08C287.989,432.023,282.938,434.634,281.453,438.704z M294.764,442.554c0.918-4.233-1.961-9.139-1.961-9.139l-2.808,0.688c0,0,2.823,4.032,2.109,7.039c-0.718,3.008-4.317,3.252-4.883,3.088c-0.458,1.582-0.858,2.967-0.858,2.967S293.846,446.788,294.764,442.554z"></path><path style="fill:#FFEDDB;stroke:#000000;stroke-linecap:round;stroke-linejoin:round;" d="M294.142,430.374c-1.84-0.531-3.002-0.227-3.002-0.227s-0.819-0.879-2.66-1.411c-1.798,4.624,1.516,5.367,1.516,5.367S293.194,435.243,294.142,430.374z"></path><path style="fill:#FFE34A;stroke:#000000;stroke-linecap:round;stroke-linejoin:round;" d="M286.684,421.146c-2.175,8.584,3.56,8.744,4.456,9.001c0.895,0.26,5.829,3.188,8.573-5.233C297.898,424.816,288.269,422.032,286.684,421.146z"></path><path style="fill:#FFE34A;stroke:#000000;stroke-linecap:round;stroke-linejoin:round;" d="M320.491,349.872c0.007-3.213-4.864-4.405-4.864-4.405s-4.759-1.591-6.466,1.132c-1.592,2.323-0.322,4.835-0.322,4.835l5.244-0.628l4.1,3.329C318.183,354.135,320.596,352.689,320.491,349.872z"></path><path style="fill:#FFE34A;stroke:#000000;stroke-linecap:round;stroke-linejoin:round;" d="M330.336,273.377c-0.009,3.213,4.863,4.406,4.863,4.406s4.756,1.59,6.464-1.13c1.593-2.325,0.323-4.836,0.323-4.836l-5.243,0.628l-4.101-3.328C332.643,269.117,330.228,270.562,330.336,273.377z"></path><path style="fill:#FFE34A;stroke:#000000;stroke-linecap:round;stroke-linejoin:round;" d="M319.347,353.829c0.008-3.213-4.863-4.406-4.863-4.406s-4.759-1.591-6.464,1.129c-1.594,2.326-0.324,4.836-0.324,4.836l5.244-0.626l4.1,3.329C317.039,358.091,319.452,356.645,319.347,353.829z"></path><path style="fill:#5A3D1C;stroke:#000000;stroke-linecap:round;stroke-linejoin:round;" d="M301.276,411.009c0.633-3.244,4.235-15.704,4.235-15.704c1.546-6.408,11.615-38.047,11.615-38.047l-3.959-3.288l-5.104,0.666c0,0-8.369,32.131-10.481,38.377c0,0-3.604,12.456-4.801,15.54c-3.492,3.061-5.06,5.822-6.71,8.344c-0.462,3.725,6.326,8.901,6.326,8.901s8.504-0.755,10.099-4.15C302.448,418.633,302.599,415.461,301.276,411.009z"></path><path style="fill:#FFE34A;stroke:#000000;stroke-linecap:round;stroke-linejoin:round;" d="M286.574,419.4c0.24,6.068,3.71,6.645,5.595,7.188c1.886,0.546,5.125,1.911,8.566-3.094C298.922,423.399,288.159,420.287,286.574,419.4z"></path></g></g><g><g><path style="fill:#6E6E6E;stroke:#000000;stroke-linecap:round;stroke-linejoin:round;" d="M341.463,281.642c0.398,1.217,8.996,33.278,16.465,40.883c-11.349,2.376-20.56,0.367-20.56,0.367s-5.549-26.565-3.618-39.481C338.227,278.573,341.463,281.642,341.463,281.642z"></path><path style="fill:#FFE34A;stroke:#000000;stroke-linecap:round;stroke-linejoin:round;" d="M339.375,285.647c-0.14,0.482,10.887,33.47,14.827,37.92c3.288,0.08,4.554-0.076,4.554-0.076s-11.073-24.986-13.924-32.606C342.563,288.485,339.375,285.647,339.375,285.647z"></path><path style="fill:#FFE34A;stroke:#000000;stroke-linecap:round;stroke-linejoin:round;" d="M336.413,284.442c0,0,4.666,36.897,6.545,38.837c-3.079-0.195-5.59-0.388-5.59-0.388s-6.336-31.293-3.618-39.481C335.91,283.773,336.413,284.442,336.413,284.442z"></path></g><g><path style="fill:#6E6E6E;stroke:#000000;stroke-linecap:round;stroke-linejoin:round;" d="M335.482,278.161c-0.591,1.136-17.48,29.712-17.687,40.367c-9.638-6.444-14.647-14.43-14.647-14.43s11.203-19.762,21.783-27.42C331.52,276.491,335.482,278.161,335.482,278.161z"></path></g><path style="fill:#FFE34A;stroke:#000000;stroke-linecap:round;stroke-linejoin:round;" d="M330.774,278.746c-0.442,0.24-16.218,31.237-16.626,37.168c2.251,2.397,3.25,3.189,3.25,3.189s10.037-25.418,13.47-32.794C330.987,283.01,330.774,278.746,330.774,278.746z"></path><path style="fill:#FFE34A;stroke:#000000;stroke-linecap:round;stroke-linejoin:round;" d="M329.555,275.79c0,0-23.025,29.21-23.087,31.907c-2.023-2.329-3.645-4.253-3.645-4.253s17.855-26.468,25.597-30.276C329.679,274.963,329.555,275.79,329.555,275.79z"></path><g><g><g><path style="fill:#6E6E6E;stroke:#000000;stroke-linecap:round;stroke-linejoin:round;" d="M334.103,275.409c0,0-27.87,18.08-31.551,13.88c-3.68-4.202,4.458-17.531,4.458-17.531s-5.825-13.711-3.441-17.725c11.14-0.438,28.744,12.755,30.869,15.984C335.441,275.012,334.103,275.409,334.103,275.409z"></path><path style="fill:#FFE34A;stroke:#000000;stroke-linecap:round;stroke-linejoin:round;" d="M301.764,254.207c-0.251-0.006,0.229,3.728,1.25,4.72c1.02,0.991,7.66-0.573,27.992,12.275c2.189-1.545,3.215-2.382,3.215-2.382S319.319,254.666,301.764,254.207z"></path><path style="fill:#505050;" d="M328.492,277.186c0,0-11.329,4.827-12.98,3.305c-1.65-1.524-3.843-6.601-2.217-7.699c1.624-1.101,16.655,1.155,17.101,2.33C330.84,276.297,328.492,277.186,328.492,277.186z"></path><path style="fill:#6E6E6E;stroke:#000000;stroke-linecap:round;stroke-linejoin:round;" d="M315.987,272.522c0,0,9.52-0.382,12.65,2.352"></path></g><path style="fill:#FFE34A;stroke:#000000;stroke-linecap:round;stroke-linejoin:round;" d="M330.396,279.043c-0.681,0.238-17.27,10.602-27.678,11.338c-1.055-1.176-1.421-5.027-0.577-6.439c9.111-1.373,21.747-5.3,27.267-9.019C329.783,276.339,330.396,279.043,330.396,279.043z"></path><g><path style="fill:#6E6E6E;stroke:#000000;stroke-linecap:round;stroke-linejoin:round;" d="M337.392,276.36c0,0,13.919,30.165,19.273,28.576c5.355-1.588,5.588-17.206,5.588-17.206s12.244-8.483,12.37-13.151c-9.189-6.317-31.116-4.554-34.637-2.958C336.471,275.31,337.392,276.36,337.392,276.36z"></path><path style="fill:#505050;" d="M340.944,280.786c0,0,7.005,10.128,9.213,9.721c2.209-0.405,6.772-3.529,5.984-5.327c-0.788-1.796-14.702-7.91-15.706-7.155C339.432,278.778,340.944,280.786,340.944,280.786z"></path><path style="fill:#6E6E6E;stroke:#000000;stroke-linecap:round;stroke-linejoin:round;" d="M340.25,279.015c0,0,8.109-1.835,12.548,1.8"></path></g><path style="fill:#FFE34A;stroke:#000000;stroke-linecap:round;stroke-linejoin:round;" d="M374.705,274.599c0.223,0.116-1.997,3.154-3.368,3.531c-1.375,0.377-6.436-4.195-30.445-2.739c-1.173-2.408-1.668-3.636-1.668-3.636S359.103,266.539,374.705,274.599z"></path><path style="fill:#FFE34A;stroke:#000000;stroke-linecap:round;stroke-linejoin:round;" d="M337.648,282.556c0.479,0.536,10.019,17.613,18.782,23.277c1.491-0.523,3.67-3.721,3.61-5.364c-7.32-5.597-16.498-15.128-19.541-21.047C339.489,280.48,337.648,282.556,337.648,282.556z"></path></g><path style="fill:#6E6E6E;stroke:#000000;stroke-linecap:round;stroke-linejoin:round;" d="M339.757,270.77c-1.111-0.723-3.383,0.854-3.383,0.854s-1.08-2.545-2.407-2.528c-1.324,0.022-4.809,4.885-4.815,6.711c-0.006,1.829,1.151,6.869,1.151,6.869l3.211-1.162l2.097,2.696c0,0,3.667-3.644,4.64-5.194C341.22,277.467,340.867,271.494,339.757,270.77z"></path></g></g></g></g></g></svg>