<svg xmlns="http://www.w3.org/2000/svg" width="500" height="500" version="1.1"><g id="x061"><g><g><path style="fill:#FFE34A;stroke:#000000;stroke-linecap:round;stroke-linejoin:round;" d="M378.036,168.135c-0.964-1.067-12.795,57.41-16.685,60.62c-3.893,3.21-2.883-3.199-2.462-4.655c0.42-1.454,13.571-57.183,12.324-58.726c-1.245-1.542-16.681,60.622-21.684,60.358c-4.369-2.448,15.753-63.256,13.876-62.616c-1.878,0.64-20.499,54.788-20.919,56.242c-0.421,1.456-2.989,7.416-4.567,2.623c-1.576-4.792,19.63-60.558,18.246-60.169c-1.381,0.389-25.873,58.75-27.966,70.368c-2.089,11.617,6.351,21.943,6.351,21.943l-0.227,6.637c0,0-1.855,2.894-3.293,2.667l-0.228,0.784c-0.621,0.672-0.604,2.093-0.71,3.197c-0.098,1.026,6.012,4.578,6.871,5.07c0.991,0.042,8.051,0.3,8.516-0.621c0.502-0.99,1.274-2.184,1.106-3.083l0.228-0.784c-1.402-0.604-2.412-2.419-3.137-4.522l0.018,0.002l3.352-5.733c0,0,12.647-4.228,17.08-15.167C368.559,231.627,378.995,169.2,378.036,168.135z"></path><path style="fill:#FFFFFF;" d="M346.181,256.09c0,0,13.498-6.903,15.171-12.691c1.674-5.79,3.442-11.901,3.442-11.901s-4.635,11.207-7.632,13.128C354.168,246.548,346.181,256.09,346.181,256.09z"></path><path style="fill:#CCA12B;" d="M332.571,226.014c0,0-3.332,6.705-2.155,12.27c1.18,5.57,5.017,13.998,8.139,15.251c-4.844-9.765-3.771-14.684-3.349-17.35C335.63,233.519,332.571,226.014,332.571,226.014z"></path><path style="fill:#CCA12B;" d="M345.233,269.195c0,0-3.846-5.687-3.699-7.997c-1.609,1.496-2.7,7.977-2.7,7.977S343.435,270.897,345.233,269.195z"></path></g><g><g><rect x="320.66" y="272.451" transform="matrix(-0.9606 -0.2779 0.2779 -0.9606 550.3545 704.2771)" style="fill:#FFE34A;stroke:#000000;stroke-linecap:round;stroke-linejoin:round;" width="8.853" height="81.372"></rect><rect x="319.554" y="297.02" transform="matrix(0.9605 0.2782 -0.2782 0.9605 101.7776 -76.5291)" style="fill:#FFFFFF;" width="2.008" height="46.706"></rect><polygon style="fill:#CCA12B;" points="326.208,300.835 330.895,302.712 335.496,286.791 332.551,280.711 "></polygon><g><path style="fill:#FFE34A;stroke:#000000;stroke-linecap:round;stroke-linejoin:round;" d="M281.555,438.735c-1.482,4.071,4.629,8.409,4.629,8.409s0.399-1.385,0.856-2.967c-0.566-0.164-3.479-2.292-2.481-5.218c0.999-2.925,5.54-4.826,5.54-4.826l-2.006-2.081C288.093,432.053,283.041,434.664,281.555,438.735z M294.865,442.583c0.918-4.234-1.96-9.137-1.96-9.137l-2.807,0.688c0,0,2.823,4.03,2.107,7.038c-0.717,3.007-4.316,3.251-4.883,3.088c-0.458,1.582-0.858,2.967-0.858,2.967S293.949,446.818,294.865,442.583z"></path><path style="fill:#FFEDDB;stroke:#000000;stroke-linecap:round;stroke-linejoin:round;" d="M294.245,430.404c-1.84-0.533-3.003-0.227-3.003-0.227s-0.819-0.879-2.661-1.411c-1.796,4.624,1.518,5.367,1.518,5.367S293.299,435.271,294.245,430.404z"></path><path style="fill:#FFE34A;stroke:#000000;stroke-linecap:round;stroke-linejoin:round;" d="M286.786,421.176c-2.175,8.584,3.56,8.743,4.456,9.002c0.896,0.261,5.83,3.187,8.571-5.234C298.001,424.848,288.371,422.063,286.786,421.176z"></path><path style="fill:#FFE34A;stroke:#000000;stroke-linecap:round;stroke-linejoin:round;" d="M320.592,349.902c0.009-3.212-4.863-4.406-4.863-4.406s-4.757-1.589-6.464,1.131c-1.592,2.324-0.324,4.837-0.324,4.837l5.246-0.629l4.1,3.328C318.286,354.163,320.7,352.719,320.592,349.902z"></path><path style="fill:#FFE34A;stroke:#000000;stroke-linecap:round;stroke-linejoin:round;" d="M330.438,273.406c-0.008,3.212,4.863,4.407,4.863,4.407s4.758,1.59,6.464-1.13c1.593-2.325,0.324-4.837,0.324-4.837l-5.244,0.626l-4.101-3.328C332.745,269.145,330.332,270.591,330.438,273.406z"></path><path style="fill:#FFE34A;stroke:#000000;stroke-linecap:round;stroke-linejoin:round;" d="M319.448,353.859c0.009-3.213-4.863-4.407-4.863-4.407s-4.757-1.59-6.464,1.131c-1.593,2.324-0.323,4.834-0.323,4.834l5.244-0.625l4.101,3.328C317.143,358.12,319.556,356.675,319.448,353.859z"></path><path style="fill:#5A3D1C;stroke:#000000;stroke-linecap:round;stroke-linejoin:round;" d="M301.381,411.039c0.631-3.247,4.232-15.706,4.232-15.706c1.548-6.408,11.617-38.045,11.617-38.045L313.271,354l-5.104,0.666c0,0-8.37,32.128-10.483,38.376c0,0-3.602,12.458-4.801,15.539c-3.494,3.063-5.06,5.823-6.71,8.347c-0.463,3.723,6.326,8.899,6.326,8.899s8.505-0.755,10.1-4.15C302.551,418.662,302.7,415.492,301.381,411.039z"></path><path style="fill:#FFE34A;stroke:#000000;stroke-linecap:round;stroke-linejoin:round;" d="M286.677,419.429c0.241,6.071,3.709,6.646,5.595,7.19c1.884,0.545,5.125,1.909,8.566-3.095C299.024,423.429,288.262,420.317,286.677,419.429z"></path></g></g><g><g><path style="fill:#6E6E6E;stroke:#000000;stroke-linecap:round;stroke-linejoin:round;" d="M341.566,281.671c0.396,1.218,8.995,33.278,16.463,40.884c-11.347,2.373-20.558,0.366-20.558,0.366s-5.55-26.565-3.62-39.481C338.33,278.603,341.566,281.671,341.566,281.671z"></path><path style="fill:#FFE34A;stroke:#000000;stroke-linecap:round;stroke-linejoin:round;" d="M339.479,285.675c-0.14,0.484,10.885,33.473,14.827,37.922c3.288,0.08,4.551-0.076,4.551-0.076s-11.07-24.986-13.922-32.606C342.666,288.516,339.479,285.675,339.479,285.675z"></path><path style="fill:#FFE34A;stroke:#000000;stroke-linecap:round;stroke-linejoin:round;" d="M336.516,284.471c0,0,4.666,36.9,6.547,38.838c-3.081-0.195-5.591-0.388-5.591-0.388s-6.337-31.291-3.62-39.481C336.012,283.804,336.516,284.471,336.516,284.471z"></path></g><g><path style="fill:#6E6E6E;stroke:#000000;stroke-linecap:round;stroke-linejoin:round;" d="M335.584,278.19c-0.59,1.136-17.479,29.71-17.685,40.369c-9.638-6.447-14.647-14.431-14.647-14.431s11.203-19.764,21.783-27.422C331.623,276.521,335.584,278.19,335.584,278.19z"></path></g><path style="fill:#FFE34A;stroke:#000000;stroke-linecap:round;stroke-linejoin:round;" d="M330.878,278.776c-0.442,0.238-16.219,31.236-16.627,37.168c2.252,2.396,3.25,3.188,3.25,3.188s10.038-25.419,13.471-32.793C331.09,283.039,330.878,278.776,330.878,278.776z"></path><path style="fill:#FFE34A;stroke:#000000;stroke-linecap:round;stroke-linejoin:round;" d="M329.657,275.82c0,0-23.024,29.209-23.088,31.906c-2.022-2.33-3.646-4.254-3.646-4.254s17.856-26.466,25.6-30.275C329.782,274.993,329.657,275.82,329.657,275.82z"></path><g><g><g><path style="fill:#6E6E6E;stroke:#000000;stroke-linecap:round;stroke-linejoin:round;" d="M334.206,275.438c0,0-27.871,18.081-31.551,13.88c-3.681-4.201,4.458-17.532,4.458-17.532s-5.827-13.708-3.442-17.725c11.142-0.438,28.744,12.757,30.871,15.985C335.544,275.041,334.206,275.438,334.206,275.438z"></path><path style="fill:#FFE34A;stroke:#000000;stroke-linecap:round;stroke-linejoin:round;" d="M301.867,254.238c-0.252-0.007,0.229,3.726,1.249,4.718c1.021,0.99,7.66-0.573,27.993,12.276c2.189-1.545,3.215-2.382,3.215-2.382S319.424,254.695,301.867,254.238z"></path><path style="fill:#505050;" d="M328.595,277.215c0,0-11.328,4.828-12.979,3.304c-1.651-1.522-3.844-6.6-2.22-7.7c1.626-1.097,16.657,1.158,17.102,2.334C330.943,276.325,328.595,277.215,328.595,277.215z"></path><path style="fill:#6E6E6E;stroke:#000000;stroke-linecap:round;stroke-linejoin:round;" d="M316.089,272.554c0,0,9.52-0.384,12.651,2.35"></path></g><path style="fill:#FFE34A;stroke:#000000;stroke-linecap:round;stroke-linejoin:round;" d="M330.498,279.073c-0.682,0.237-17.27,10.602-27.678,11.339c-1.053-1.178-1.421-5.029-0.576-6.441c9.109-1.372,21.747-5.299,27.267-9.018C329.885,276.369,330.498,279.073,330.498,279.073z"></path><g><path style="fill:#6E6E6E;stroke:#000000;stroke-linecap:round;stroke-linejoin:round;" d="M337.495,276.39c0,0,13.918,30.164,19.274,28.576c5.354-1.588,5.585-17.205,5.585-17.205s12.243-8.483,12.372-13.152c-9.189-6.315-31.116-4.553-34.638-2.958C336.575,275.341,337.495,276.39,337.495,276.39z"></path><path style="fill:#505050;" d="M341.047,280.815c0,0,7.005,10.129,9.214,9.722c2.208-0.408,6.771-3.531,5.984-5.328c-0.788-1.795-14.703-7.91-15.707-7.154C339.535,278.81,341.047,280.815,341.047,280.815z"></path><path style="fill:#6E6E6E;stroke:#000000;stroke-linecap:round;stroke-linejoin:round;" d="M340.351,279.045c0,0,8.112-1.836,12.549,1.801"></path></g><path style="fill:#FFE34A;stroke:#000000;stroke-linecap:round;stroke-linejoin:round;" d="M374.809,274.629c0.222,0.116-1.998,3.153-3.369,3.532c-1.373,0.376-6.434-4.196-30.445-2.739c-1.171-2.408-1.668-3.637-1.668-3.637S359.206,266.566,374.809,274.629z"></path><path style="fill:#FFE34A;stroke:#000000;stroke-linecap:round;stroke-linejoin:round;" d="M337.752,282.585c0.479,0.536,10.018,17.613,18.782,23.276c1.488-0.521,3.668-3.721,3.609-5.363c-7.32-5.596-16.498-15.127-19.542-21.046C339.591,280.511,337.752,282.585,337.752,282.585z"></path></g><path style="fill:#6E6E6E;stroke:#000000;stroke-linecap:round;stroke-linejoin:round;" d="M339.859,270.801c-1.11-0.725-3.384,0.852-3.384,0.852s-1.08-2.546-2.405-2.526c-1.325,0.019-4.81,4.883-4.815,6.711c-0.007,1.826,1.149,6.868,1.149,6.868l3.212-1.162l2.096,2.695c0,0,3.667-3.644,4.639-5.193C341.321,277.497,340.971,271.524,339.859,270.801z"></path></g></g></g></g></g></svg>