<svg xmlns="http://www.w3.org/2000/svg" width="500" height="500" version="1.1"><g id="x062"><g><g><g><g><path style="fill:#6E6E6E;stroke:#000000;stroke-linecap:round;stroke-linejoin:round;" d="M297.295,371.015c-0.222,0.868,1.989,6.668,1.989,6.668l4.139,0.982l18.277-17.267l-5.56-8.66L297.295,371.015z"></path><polygon style="fill:#505050;" points="300.125,376.205 319.553,357.153 316.968,353.719 298.739,371.692 "></polygon></g><g><path style="fill:#6E6E6E;stroke:#000000;stroke-linecap:round;stroke-linejoin:round;" d="M316.607,353.318c0,0-0.095,3.981,0.841,5.144c0.934,1.163,4.544,2.703,4.544,2.703s-6.68,7.146-7.836,6.85c-1.155-0.296-4.064-1.27-4.064-1.27s-2.003-4.209-0.825-7.604C312.614,355.686,316.607,353.318,316.607,353.318z"></path><path style="fill:#505050;" d="M316.158,359.287c-0.271-0.146-1.108-2.285-0.794-3.515c-1.472,0.933-4.563,3.685-4.907,4.136c-0.348,0.449-0.313,3.924,0.227,4.522C312.542,362.289,316.158,359.287,316.158,359.287z"></path></g></g><g><g><g><polygon style="fill:#505050;stroke:#000000;stroke-linecap:round;stroke-linejoin:round;" points="310.261,330.145 301.367,329.955 301.006,321.823 304.286,313.313 324.594,287.937 330.381,286.338 362.837,286.948 359.753,295.364 "></polygon><polygon style="fill:#6E6E6E;stroke:#000000;stroke-linecap:round;stroke-linejoin:round;" points="307.434,329.255 310.31,320.22 329.349,294.188 359.474,294.469 384.9,354.321 331.057,384.56 "></polygon><path style="fill:none;stroke:#000000;stroke-linecap:round;stroke-linejoin:round;" d="M333.411,299.212c0,0,21.726,53.933,21.777,54.258"></path><path style="fill:none;stroke:#000000;stroke-linecap:round;stroke-linejoin:round;" d="M356.571,297.924c0,0,21.726,53.931,21.775,54.257"></path><polygon style="fill:#505050;" points="314.428,319.675 329.33,300.772 353.958,358.366 339.673,375.459 "></polygon><path style="fill:none;stroke:#000000;stroke-linecap:round;stroke-linejoin:round;" d="M320.313,325.242c0,0-5.321-7.067-3.11-12.76"></path><path style="fill:none;stroke:#000000;stroke-linecap:round;stroke-linejoin:round;" d="M324.395,323.682c0,0-6.515-9.493-4.304-15.188"></path><path style="fill:none;stroke:#000000;stroke-linecap:round;stroke-linejoin:round;" d="M336.328,358.973c0,0,3.073,10.386,7.312,9.809"></path><path style="fill:none;stroke:#000000;stroke-linecap:round;stroke-linejoin:round;" d="M338.993,356.999c0,0,2.416,7.909,6.765,10.536"></path><polygon style="fill:#505050;" points="311.23,323.61 309.019,329.304 331.153,380.752 335.485,375.727 "></polygon><line style="fill:none;stroke:#000000;stroke-linecap:round;stroke-linejoin:round;" x1="312.417" y1="322.214" x2="336.554" y2="375.69"></line><ellipse transform="matrix(0.9041 -0.4273 0.4273 0.9041 -114.0382 172.3233)" style="fill:#505050;stroke:#000000;stroke-linecap:round;stroke-linejoin:round;" cx="326.975" cy="340.277" rx="15.724" ry="20.284"></ellipse><ellipse transform="matrix(0.9041 -0.4273 0.4273 0.9041 -114.0408 172.3295)" style="fill:none;stroke:#000000;stroke-linecap:round;stroke-linejoin:round;" cx="326.975" cy="340.277" rx="9.177" ry="11.837"></ellipse><path style="fill:#6E6E6E;stroke:#000000;stroke-linecap:round;stroke-linejoin:round;" d="M311.723,336.76c0,0,4.212,2.816,13.639-5.406c9.427-8.225,10.431-22.083,10.431-22.083l33.62-2.224l10.863,27.922l-0.451,6.618l-2.168-3.549l-30.355,2.024c0,0-7.658-2.537-14.33,4.441c-6.671,6.976-10.499,22.495-10.499,22.495l-2.482-0.409l-11.361-26.516L311.723,336.76z"></path><line style="fill:none;stroke:#000000;stroke-linecap:round;stroke-linejoin:round;" x1="341.789" y1="316.739" x2="347.645" y2="331.513"></line><polygon style="fill:#6E6E6E;stroke:#000000;stroke-linecap:round;stroke-linejoin:round;" points="334.529,395.832 324.938,392.13 355.057,356.287 394.688,353.034 392.641,362.896 362.029,393.981 "></polygon></g><polygon style="fill:#505050;" points="355.556,364.791 388.227,362.517 359.753,393.528 330.664,394.693 "></polygon><polygon style="fill:#505050;" points="357.729,364.59 390.4,362.313 361.925,393.328 332.838,394.492 "></polygon><path style="fill:#505050;" d="M321.064,365.547c0,0,4.384-16.968,10.631-21.995c6.244-5.029,7.509-5.938,16.016-5.335c11.113-0.721,30.241-1.718,30.241-1.718l1.192,1.47l-1.898-5.889l-30.061,2.546c0,0-12.544-3.181-20.616,6.169c-8.07,9.349-6.546,21.393-6.546,21.393L321.064,365.547z"></path></g><path style="fill:none;stroke:#000000;stroke-linecap:round;stroke-linejoin:round;" d="M379.982,334.494l-35.139,0.489c0,0-7.946-0.138-15.378,5.651c-7.434,5.788-8.097,18.215-8.097,18.215l-7.567-17.924c0,0,7.116,0,14.633-6.942c7.516-6.942,11.35-19.912,11.297-20.24c-0.052-0.327,30.604-1.978,30.604-1.978"></path><path style="fill:none;stroke:#000000;stroke-linecap:round;stroke-linejoin:round;" d="M353.853,349.32c0,0,3.135-0.973,3.702-9.59"></path><path style="fill:none;stroke:#000000;stroke-linecap:round;stroke-linejoin:round;" d="M376.185,347.894c0,0-6.344-0.193-8.067-9.655"></path></g></g><polygon style="fill:#FFFFFF;" points="302.524,326.2 306.947,315.375 326.569,290.782 331.66,289.642 360.076,289.781 360.797,288.26 330.539,287.859 325.657,289.141 305.646,313.954 302.524,322.438 "></polygon></g></g></svg>