<svg xmlns="http://www.w3.org/2000/svg" width="500" height="500" version="1.1"><g id="x063"><g><g><path style="fill:#6E6E6E;stroke:#000000;stroke-linecap:round;stroke-linejoin:round;" d="M340.024,441.881c0.334,0.835,4.839,6.343,7.01,6.009c2.337-3.506,2.504-4.84,2.504-4.84h4.841l-1.002-5.007L340.024,441.881z"></path><path style="fill:#6E6E6E;stroke:#000000;stroke-linecap:round;stroke-linejoin:round;" d="M342.128,442.965c0.739,0.386-2.349,4.203-4.611,5.218c-3.406-0.736-5.152-3.779-5.152-3.779s-3.348,4.28-5.024,4.246c-1.676-0.035-4.985-3.794-4.985-3.794s-3.272,3.104-5.729,3.8c-3.651-1.722-5.937-5.226-5.937-5.226s-4.229,3.682-5.907,3.646c-2.348-2.159-4.352-6.354-4.352-6.354s-3.604,3.13-5.319,2.596c-1.952-3.528-2.499-8.342-2.499-8.342S330.431,436.854,342.128,442.965z"></path></g><path style="fill:#6E6E6E;stroke:#000000;stroke-linecap:round;stroke-linejoin:round;" d="M285.946,369.777c-0.707-0.442,2.67-4.006,5.008-4.839c3.338,1,4.84,4.171,4.84,4.171s3.673-4.006,5.342-3.839c1.668,0.167,4.672,4.173,4.672,4.173s3.506-2.837,6.011-3.338c3.505,2.004,5.507,5.675,5.507,5.675s4.506-3.337,6.176-3.172c2.17,2.338,3.839,6.677,3.839,6.677s3.839-2.837,5.507-2.169c1.67,3.672,1.837,8.511,1.837,8.511S297.13,376.788,285.946,369.777z"></path><g><path style="fill:#6E6E6E;stroke:#000000;stroke-linecap:round;stroke-linejoin:round;" d="M348.036,431.031c-0.133,2.15,4.255,2.756,5.257,6.01c1.002,3.255-5.758,3.755-12.518,5.758s-32.546-3.505-36.302-3.254c-3.756,0.25-10.991-0.953-12.269-3.506c-0.75-1.502,0.751-6.509,0.751-6.509s-11.265-14.271-16.022-27.791c-4.758-13.519,1.002-25.035,1.002-25.035l-0.25-9.263c0.501-3.006,2.002-3.505,3.004-6.01c0,0,5.758,8.012,11.016,8.764c5.258,0.751,28.791-0.752,41.059,9.514c4.006,5.507,3.505,11.516,3.505,11.516S349.037,414.759,348.036,431.031z"></path><path style="fill:#505050;" d="M346.533,432.785c0,0,2.754,1.002,2.504,1.752c-0.251,0.751-11.266-1.502-11.015-3.255c0.25-1.752,8.511-2.253,8.511-2.253V432.785z"></path><path style="fill:#505050;" d="M279.437,377.456c0-1.002-1-8.764-0.501-10.015c0.501-1.252,1.754-4.006,1.754-4.006s9.764,8.011,10.516,9.764c0.749,1.752-4.508,7.761-5.76,8.262c-1.251,0.5-4.005,0.25-4.005,0.25s5.007-4.506,3.756-5.007C283.944,376.203,279.437,377.456,279.437,377.456z"></path><path style="fill:#505050;" d="M293.708,427.027c0,0,0,3.505,0.751,4.505c0.752,1.002,11.767-0.751,12.268-3.505S297.464,425.774,293.708,427.027z"></path><path style="fill:none;stroke:#000000;stroke-linecap:round;stroke-linejoin:round;" d="M281.19,366.94c0,0,2.002,7.761,3.505,8.762c-0.751,7.762-2.505,14.772-0.501,20.279c2.002,5.508,14.771,29.793,17.024,31.796c-1.252,3.505-3.004,8.513-2.004,9.264c1.002,0.75,3.255,1.502,3.255,1.502"></path></g></g></g></svg>