<svg xmlns="http://www.w3.org/2000/svg" width="500" height="500" version="1.1"><g id="x064"><g><g><path style="fill:#43340D;stroke:#000000;stroke-linecap:round;stroke-linejoin:round;" d="M303.869,364.703c-0.754,2.171-0.882,4.609-0.449,6.904c0.039,0.031,0.081,0.067,0.109,0.091c0.818,0.629,11.449,5.722,11.449,5.722s-0.403-2.895-1.351-6.209C310.756,370.812,306.65,367.299,303.869,364.703z"></path><path style="fill:#525252;stroke:#000000;stroke-linecap:round;stroke-linejoin:round;" d="M312.55,390.535c0,0-1.924-14.194,1.956-20.086c0.542-0.406,2.181-0.452,3.326-0.149c11.201,6.196,79.082,40.716,79.082,40.716l0.114,2.522l-13.095,27.241l-18.729,25.954l2.131-21.618L312.55,390.535z"></path></g><path style="fill:#BEC1C0;" d="M312.989,390.412c0,0-0.24-7.619,0.35-10.027c8.756,5.874,69.86,47.097,69.86,47.097l-8.606,14.81l-8.853,22.302l2.728-21.289L312.989,390.412z"></path><path style="fill:#FBFBFB;" d="M326.628,389.474c0,0,3.173,4.555,3.859,7.567c0.686,3.01-1.892,5.655-0.287,9.689c-4.136-4.606-16.939-17.035-16.939-17.035s-0.637-6.227,0.475-8.46C317.893,384.233,326.628,389.474,326.628,389.474z"></path><path style="fill:#FBFBFB;" d="M331.929,393.808c0,0,1.59,2.946,1.806,6.384c0.214,3.438-1.119,9.125-1.119,9.125l1.868,1.894c0,0,1.913-12.565-0.307-16.866C331.847,393.241,331.929,393.808,331.929,393.808z"></path><polygon style="fill:#FBFBFB;" points="323.596,389.362 381.632,428.658 382.472,426.53 322.491,387.11 "></polygon><polyline style="fill:none;stroke:#000000;stroke-linecap:round;stroke-linejoin:round;" points="365.74,464.593 375.87,438.167 391.648,410.009 "></polyline></g></g></svg>