<svg xmlns="http://www.w3.org/2000/svg" width="500" height="500" version="1.1"><g id="x065"><g><g><g><path style="fill:#6E6E6E;stroke:#000000;stroke-linecap:round;stroke-linejoin:round;" d="M373.018,293.153c-15.906,2.695-31.505,13.439-44.685,40.207c-6.25,12.692-11.224,20.178-15.427,23.442c2.389,5.222,4.38,4.59,4.38,4.59s9.669-6.03,15.754-6.719c6.082-0.692,21.241-2.598,32.722-9.21c11.879-6.841,24.923-19.815,27.321-32.185S387.065,290.773,373.018,293.153z M322.212,353.084c2.346-2.011,5.387-8.05,6.307-10.167c2.549,4.828,5.293,6.89,5.293,6.89S326.294,351.323,322.212,353.084z M385.286,301.395c5.775,6.689-0.684,21.732-14.429,33.6c-13.744,11.865-30.581,14.792-35.344,9.373c-4.513-5.138,0.165-19.526,14.525-32.211C363.647,300.135,379.511,294.705,385.286,301.395z"></path><path style="opacity:0.5;fill:#FFFFFF;" d="M321.021,352.652c0,0,5.26-7.253,6.635-10.839C324.34,345.477,321.021,352.652,321.021,352.652z"></path><path style="opacity:0.5;fill:#FFFFFF;" d="M383.183,295.295c1.527,0.679,5.964,2.347,7.393,8.785C387.972,298.433,383.183,295.295,383.183,295.295z"></path><path style="fill:#FFFFFF;" d="M319.733,358.419l2.113-1.073c0,0-2.164-2.119-3.258-4.653c-0.713,1.05-1.929,2.345-1.929,2.345S318.226,357.729,319.733,358.419z"></path><path style="fill:none;stroke:#000000;stroke-linecap:round;stroke-linejoin:round;" d="M341.729,349.302c0,0,16.092,1.576,32.843-14.198c19.756-18.608,14.936-31.441,14.936-31.441"></path><path style="fill:#505050;" d="M333.171,335.148c0,0,2.301-12.302,18.208-25.962c10.183-7.8,17.445-11.066,26.832-12.135c-4.342-0.843-17.335-1.548-31.341,13.471C332.17,326.286,333.171,335.148,333.171,335.148z"></path><path style="fill:none;stroke:#000000;stroke-linecap:round;stroke-linejoin:round;" d="M334.279,343.892c0,0-9.202-13.747,15.738-36.158c22.507-20.229,35.414-7.299,35.414-7.299"></path></g><line style="fill:none;stroke:#000000;stroke-linecap:round;stroke-linejoin:round;" x1="350.468" y1="346.322" x2="335.828" y2="326.697"></line><line style="fill:none;stroke:#000000;stroke-linecap:round;stroke-linejoin:round;" x1="387.3" y1="310.373" x2="373.867" y2="298.703"></line><line style="fill:none;stroke:#000000;stroke-linecap:round;stroke-linejoin:round;" x1="363.343" y1="340.404" x2="343.163" y2="316.051"></line><line style="fill:none;stroke:#000000;stroke-linecap:round;stroke-linejoin:round;" x1="368.885" y1="336.38" x2="347.293" y2="311.411"></line><line style="fill:none;stroke:#000000;stroke-linecap:round;stroke-linejoin:round;" x1="373.295" y1="332.477" x2="351.145" y2="308.207"></line><line style="fill:none;stroke:#000000;stroke-linecap:round;stroke-linejoin:round;" x1="377.809" y1="328.931" x2="354.847" y2="305.042"></line><line style="fill:none;stroke:#000000;stroke-linecap:round;stroke-linejoin:round;" x1="381.163" y1="324.197" x2="359.502" y2="301.923"></line><line style="fill:none;stroke:#000000;stroke-linecap:round;stroke-linejoin:round;" x1="364.326" y1="299.4" x2="384.601" y2="318.744"></line><line style="fill:none;stroke:#000000;stroke-linecap:round;stroke-linejoin:round;" x1="357.664" y1="342.959" x2="340.005" y2="320.283"></line><line style="fill:none;stroke:#000000;stroke-linecap:round;stroke-linejoin:round;" x1="348.815" y1="346.511" x2="384.195" y2="318.497"></line><line style="fill:none;stroke:#000000;stroke-linecap:round;stroke-linejoin:round;" x1="340.898" y1="347.018" x2="387.556" y2="309.347"></line><line style="fill:none;stroke:#000000;stroke-linecap:round;stroke-linejoin:round;" x1="335.886" y1="346.13" x2="386.59" y2="304.399"></line><line style="fill:none;stroke:#000000;stroke-linecap:round;stroke-linejoin:round;" x1="333.627" y1="343.313" x2="385.042" y2="300.98"></line><line style="fill:none;stroke:#000000;stroke-linecap:round;stroke-linejoin:round;" x1="334.007" y1="338.286" x2="381.147" y2="299.15"></line><line style="fill:none;stroke:#000000;stroke-linecap:round;stroke-linejoin:round;" x1="334.435" y1="333.155" x2="374.793" y2="298.598"></line><line style="fill:none;stroke:#000000;stroke-linecap:round;stroke-linejoin:round;" x1="334.553" y1="328.022" x2="368.639" y2="298.196"></line><path style="fill:none;stroke:#000000;stroke-linecap:round;stroke-linejoin:round;" d="M337.184,349.951c0,0-2.942,0.28-4.391-1.021"></path></g><g><path style="fill:#EDEFF1;stroke:#000000;stroke-linecap:round;stroke-linejoin:round;" d="M291.729,384.483c0,0-2.816-0.374-4.666-3.114c-1.849-2.737-0.944-4.771-0.389-5.004c0.555-0.231,2.775-1.162,5.513-3.011c2.74-1.85,16.516-13.287,16.516-13.287s2.042-3.514,4.203-3.265c2.015,2.771,4.417,5.276,4.417,5.276s-1.492,2.432-3.156,3.127c-1.665,0.698-18.725,15.918-18.725,15.918S292.978,385.066,291.729,384.483z"></path><path style="fill:none;stroke:#000000;stroke-linecap:round;stroke-linejoin:round;" d="M312.302,365.185c-0.788-0.323-3.805-1.417-5.063-3.701"></path><path style="fill:none;stroke:#000000;stroke-linecap:round;stroke-linejoin:round;" d="M308.53,369.142c0,0-3.504-0.507-6.438-3.315"></path><path style="fill:none;stroke:#000000;stroke-linecap:round;stroke-linejoin:round;" d="M294.357,380.574c-0.818-0.158-2.886-0.899-4.306-3.214"></path><path style="fill:none;stroke:#000000;stroke-linecap:round;stroke-linejoin:round;" d="M298.721,376.489c0,0-3.346-1.158-4.799-3.31"></path><path style="fill:none;stroke:#000000;stroke-linecap:round;stroke-linejoin:round;" d="M302.918,372.375c0,0-3.346-1.158-4.798-3.311"></path></g></g></g></svg>