<svg xmlns="http://www.w3.org/2000/svg" width="500" height="500" version="1.1"><g id="x066"><g><g><path style="fill:#FFFFFF;stroke:#000000;stroke-linecap:round;stroke-linejoin:round;" d="M331.721,356.06c0,0-9.479,6.943-10.012,8.692c-0.531,1.748-1.041,4.322-1.041,4.322s0.316,8.828-3.57,11.74c-3.889,2.911-6.896,4.726-8.818,3.868c-1.923-0.857-3.466-2.964-3.466-2.964s-7.069-1.878-7.94-3.506c-0.867-1.629-1.945-7.962,3.668-11.166c5.615-3.205,8.559-1.219,8.559-1.219s4.139-2.834,6.419-4.052c2.28-1.217,12.542-9.831,12.542-9.831S332.784,352.564,331.721,356.06z"></path><path style="fill:#C8C8C8;" d="M307.128,382.97c0,0-1.16-1.396-1.673-2.104c-1.244-0.323-3.733-0.97-3.927-1.335c-0.192-0.365,2.621-1.758,4.059-1.069C307.024,379.15,307.256,382.155,307.128,382.97z"></path></g><g><path style="fill:#AD7D4D;stroke:#000000;stroke-linecap:round;stroke-linejoin:round;" d="M382.626,341.159c0,0,3.4-8.239,1.477-15.065c-1.925-6.829-13.453-23.709-25.644-25.398c-12.188-1.686-19.966,5.688-29.04,21.218c-8.72,4.884-23.622,12.38-24.106,23.841c-0.485,11.462,3.07,18.548,11.476,26.154c8.405,7.607,16.301,10.534,20.853,9.252c4.551-1.282,18.642-12.086,20.067-21.056C369.174,355.825,378.198,347.978,382.626,341.159z"></path><path style="fill:#825E4D;" d="M347.584,302.938c0,0-6.743,3.233-10.44,8.874c-3.698,5.643-7.073,10.831-7.073,10.831s-16.127,8.097-19.568,13.694c-4.341,4.954-4.109,8.753-4.109,8.753s9.541-10.314,13.964-10.78c4.422-0.469,6.676-1.238,7.018,0.028c0.343,1.267-0.715,6.072,1.175,6.29c1.889,0.218,8.288-2.695,9.447-3.682c1.159-0.987,3.225-5.298,2.625-7.316c-0.599-2.02-3.731-3.352-4.565-4.404c-0.836-1.054,0.113-5.71,0.393-6.417c0.28-0.707,5.053-7.056,6.812-7.614c1.76-0.554,6.284,4.389,6.284,4.389S346.935,306.221,347.584,302.938z"></path><path style="fill:#825E4D;" d="M381.153,341.051c0,0-3.42,6.521-12.763,12.434c-9.044,6.13-11.834,6.062-11.834,6.062s3.658-7.487,5.397-8.965c1.74-1.479,8.373-2.182,9.063-4.412c0.689-2.231-1.237-7.47-1.237-7.47S372.224,342.265,381.153,341.051z"></path><circle style="fill:#825E4D;" cx="320.435" cy="351.169" r="1.632"></circle><circle style="fill:#825E4D;" cx="319.78" cy="340.823" r="1.632"></circle><circle style="fill:#825E4D;" cx="332.646" cy="351.396" r="1.631"></circle><path style="fill:#825E4D;" d="M345.124,354.823c0.146,0.888,0.987,1.489,1.875,1.344c0.89-0.147,1.49-0.987,1.346-1.879c-0.149-0.888-0.989-1.49-1.877-1.344C345.578,353.093,344.977,353.934,345.124,354.823z"></path><circle style="fill:#825E4D;" cx="346.56" cy="337.514" r="1.631"></circle><path style="fill:#825E4D;" d="M359.475,342.389c0.147,0.89,0.987,1.493,1.877,1.344c0.888-0.146,1.489-0.987,1.344-1.875c-0.149-0.892-0.989-1.493-1.877-1.345C359.929,340.659,359.326,341.501,359.475,342.389z"></path><path style="fill:#825E4D;" d="M342.543,320.846c0.146,0.888,0.987,1.488,1.875,1.341c0.889-0.146,1.491-0.987,1.344-1.876c-0.147-0.888-0.987-1.489-1.875-1.344C342.995,319.116,342.394,319.954,342.543,320.846z"></path><circle style="fill:#825E4D;" cx="328.274" cy="365.354" r="1.632"></circle></g><g><path style="fill:#FAC6BF;" d="M360.15,325.105c7.798,9.332,17.173,14.342,20.944,11.192c3.771-3.149,0.506-13.267-7.292-22.599c-7.798-9.328-17.173-14.339-20.943-11.189C349.09,305.659,352.354,315.776,360.15,325.105z"></path><path style="fill:#C86A67;" d="M368.762,313.901c0,0-4.281,3.441-6.242,2.796c-1.959-0.645-7.58-2.097-8.28-3.658c-0.7-1.56-2.295-7.472-0.09-8.541C356.354,303.428,364.634,308.145,368.762,313.901z"></path><path style="fill:#C86A67;" d="M369.251,323.259c-0.053-0.256-0.969-3.193-1.954-3.823c-0.986-0.629-8.64-3.687-9.498-3.014c-0.859,0.671,0.467,4.949,1.969,6.024c1.5,1.075,6.373,6.532,6.976,5.904C367.344,327.722,369.649,325.135,369.251,323.259z"></path><path style="fill:#C86A67;" d="M374.566,331.906c-0.13-0.242-2.57-5.925-3.285-5.983c-0.714-0.059-3.279,3.102-3.138,3.959c0.142,0.858,3.817,3.338,4.763,3.182C373.85,332.908,374.566,331.906,374.566,331.906z"></path><path style="fill:#C86A67;" d="M378.631,331.938c0,0-6.536-4.826-7.092-6.06c-0.557-1.231-1.41-5.322-1.252-5.967c0.157-0.645,2.576-2.015,2.576-2.015s3.547,2.235,5.218,5.4c1.671,3.163,2.425,6.127,2.08,6.713C379.819,330.596,379.501,331.883,378.631,331.938z"></path></g><path style="fill:none;stroke:#000000;stroke-linecap:round;stroke-linejoin:round;" d="M384.093,335.622c0,0,0.101,6.203-7.883,5.144c-7.984-1.061-12.077-6.604-12.077-6.604"></path><path style="fill:none;stroke:#000000;stroke-linecap:round;stroke-linejoin:round;" d="M349.595,301.504c0,0-3.136,2.44-0.313,10.901c2.888,8.653,7.692,12.887,7.692,12.887"></path><g><path style="fill:#FFFFFF;stroke:#000000;stroke-linecap:round;stroke-linejoin:round;" d="M369.726,322.385c0,0,2.274-4.691,4.08-4.988c1.803-0.299,4.42-0.469,4.42-0.469s8.712,1.47,12.107-2.004c3.395-3.473,5.587-6.217,4.988-8.236c-0.598-2.019-2.486-3.824-2.486-3.824s-0.935-7.254-2.438-8.329c-1.501-1.075-7.638-2.97-11.549,2.177c-3.912,5.147-2.327,8.326-2.327,8.326s-3.352,3.729-4.855,5.831c-1.507,2.103-5.541,7.351-5.541,7.351S366.119,322.984,369.726,322.385z"></path><path style="fill:#C8C8C8;" d="M393.612,305.957c-0.214-0.493-1.799-2.877-1.799-2.877s-0.318-4.315-0.961-4.209c-0.646,0.106-3.955,4.095-2.946,5.383C388.913,305.544,393.612,305.957,393.612,305.957z"></path></g></g></g></svg>