<svg xmlns="http://www.w3.org/2000/svg" width="500" height="500" version="1.1"><g id="x067"><g><rect x="315.237" y="303.292" transform="matrix(0.9093 0.4161 -0.4161 0.9093 172.2122 -100.7146)" style="fill:#5A3D1C;stroke:#000000;stroke-linecap:round;stroke-linejoin:round;" width="3.887" height="82.933"></rect><g><path style="fill:#999682;stroke:#000000;stroke-linecap:round;stroke-linejoin:round;" d="M370.314,248.216c0,0,8.569-15.968,14.239-19.466c0.563,4.58,0.383,5.863,0.383,5.863s2.582,5.856,1.859,9.523c5.509,3.649,15.973,10.033,15.973,10.033s-8.972,2.775-13.188,1.87c-4.219-0.903-15.769-2.521-15.769-2.521L370.314,248.216z"></path><path style="fill:#999682;stroke:#000000;stroke-linecap:round;stroke-linejoin:round;" d="M346.147,255.981c0,0,3.274-8.439,6.933-10.648c6.782,0.164,13.02,2.346,13.02,2.346L346.147,255.981z"></path><path style="fill:#999682;stroke:#000000;stroke-linecap:round;stroke-linejoin:round;" d="M337.925,264.251c0,0-10.086-2.353-12.097,0.033c0.189,1.649,2.771,7.141,2.413,10.073C335.008,270.123,337.925,264.251,337.925,264.251z"></path><path style="fill:#999682;stroke:#000000;stroke-linecap:round;stroke-linejoin:round;" d="M364.551,283.051c0,0,7.714,6.208,9.914,6.569c2.2,0.36,5.318,1.268,4.771,2.552c-0.546,1.283-10.232,10.292-17.381,9.761C362.008,291.121,364.551,283.051,364.551,283.051z"></path><path style="fill:#EBDBB0;stroke:#57384D;stroke-linecap:round;stroke-linejoin:round;" d="M378.742,247.458c0,0-12.647-0.88-14.662-0.691c-2.015,0.189-17.207,7.015-21.959,11.059c-4.753,4.045-24.133,20.226-28.46,44.795c-1.922,17.004,3.561,28.027,4.479,28.576c0.918,0.546,4.208-2.029,4.208-2.029s2.771,7.873,5.158,9.15c2.386,1.274,10.064-4.979,12.81-6.27c2.745-1.29,16.458-12.507,19.902-25.528c3.445-13.021,6.514-29.339,8.507-37.225C370.72,261.409,378.742,247.458,378.742,247.458z"></path><path style="fill:#999682;" d="M322.655,327.852c0,0-10.38-19.085-0.778-40.153c9.604-21.069,23.103-31.055,28.856-33.54c5.803-2.923,12.543-6.013,13.495-6.007c1.731,0.023,6.086,0.064,6.086,0.064s-29.888,33.905-36.065,53.553c-6.18,19.649-7.866,33.202-7.866,33.202S322.49,329.942,322.655,327.852z"></path><path style="fill:#AD6958;" d="M342.249,306.27c0,0-2.719,0.581-3.602-0.642c-0.884-1.221-3.557-7.133-3.557-7.133l1.704-7.324l0.149-5.29c0,0,0.438-9.986,0.845-10.28s7.843-5.348,8.251-5.641c0.406-0.295,1.333-1.586,1.333-1.586s4.816-8.373,5.486-8.604c0.672-0.231,4.303-2.273,5.348-2.19c1.045,0.082,4.849,1.052,5.222,1.365s-3.207,4.947-3.207,4.947s-0.914,5.443-0.699,5.942c0.216,0.5,0.901,7.448,0.901,7.448l-7.215,7.628c0,0-2.946,2.936-3.167,3.387s-0.693,8.019-0.741,8.455c-0.05,0.436-0.617,4.897-0.931,5.27c-0.313,0.375-3.028,0.001-3.028,0.001L342.249,306.27z"></path><g><path style="fill:none;stroke:#000000;stroke-linecap:round;stroke-linejoin:round;" d="M349.589,298.112c0,0-9.745-4.697-12.776-13.778"></path><path style="fill:none;stroke:#000000;stroke-linecap:round;stroke-linejoin:round;" d="M355.957,284.675c0,0-8.855-3.947-11.191-12.443"></path><path style="fill:none;stroke:#000000;stroke-linecap:round;stroke-linejoin:round;" d="M361.235,270.64c0,0-6.94-4.246-8.673-10.323"></path></g><path style="fill:#FFFFFF;" d="M319.212,330.053c0,0-10.111-17.64,0.07-41.353c11.316-26.353,29.713-33.297,29.713-33.297s-19.697,11.674-27.636,33.981c-7.938,22.311,1.296,38.467,1.296,38.467L319.212,330.053z"></path><path style="fill:#999682;stroke:#000000;stroke-linecap:round;stroke-linejoin:round;" d="M324.281,300.025c0,0-2.777-10.071-0.767-12.094c2.011-2.021,12.469,2.896,14.127,5.642C331.795,299.819,327.768,301.297,324.281,300.025z"></path><path style="fill:none;stroke:#000000;stroke-linecap:round;stroke-linejoin:round;" d="M318.42,300.408c0,0,10.439-2.045,15.588,4.538"></path></g><circle cx="322.435" cy="315.243" r="2.681"></circle></g></g></svg>