<svg xmlns="http://www.w3.org/2000/svg" width="500" height="500" version="1.1"><g id="x068"><g><g><g><path style="fill:#FF0000;stroke:#C2384D;stroke-linecap:round;stroke-linejoin:round;" d="M346.539,306.294c0,0-1.742-4.516,0.414-5.977c2.156-1.46,6.872-2.155,10.254-3.032c3.383-0.876,7.284-1.917,7.112-8.784c-0.855,1.112-5.672,0.229-5.246-1.385c0.426-1.612,9.83-7.634,2.466-19.464c-5.474,5.09-10.275,6.868-12.165,2.096c2.436-4.367,2.079-11.396-4.019-17.883c-0.646,10.619-2.653,14.869-10.637,16.171c-7.984,1.3-21.495,7.186-21.878,17.787c-0.386,10.604,4.669,25.621,20.828,23.933C342.104,307.236,346.539,306.294,346.539,306.294z"></path><path style="fill:#FFBF00;" d="M337.834,302.483c0.925-0.455,4.883-6.394,8.108-7.656c3.228-1.263,9.958-3.54,9.958-3.54s-6.093-0.143-6.663-2.885c-0.571-2.74,3.351-7.618,1.604-10.151c-2.952,3.492-7.691,5.909-11.144,3.617c-0.537-2.214,0.218-4.906,0.218-4.906s-2.662-2.344-8.428,2.651c-5.766,4.994-11.619,10.657-9.386,14.615C324.337,298.185,331.68,305.521,337.834,302.483z"></path><path style="fill:#FF7F00;" d="M330.049,273.622c0,0-9.201,4.983-11.669,11.981c-2.576,7.306,3.321,18.963,3.321,18.963s-10.035-8.089-7.085-19.914C317.567,272.828,330.049,273.622,330.049,273.622z"></path></g><path style="fill:#FF0000;stroke:#C2384D;stroke-linecap:round;stroke-linejoin:round;" d="M349.455,248.458c0,0-5.104-3.551-3.076-6.287c2.027-2.737,4.381-7.037,3.661-10.548C353.265,235.156,360.478,240.729,349.455,248.458z"></path></g><path style="fill:#EBDBB0;stroke:#000000;stroke-linecap:round;stroke-linejoin:round;" d="M328.73,299.962c0,0-7.307,18.009-10.261,25.462c-2.955,7.454-5.057,21.194-8.864,28.415c-3.808,7.219-14.066,28.644-14.534,32.371c1.785,2.874,4.27,3.186,4.27,3.186c1.085,1.398,3.104,1.399,3.104,1.399s3.889-10.869,8.083-16.146c4.195-5.28,11.038-27.638,13.84-39.904c6.22-17.39,13.755-26.16,13.755-26.16l0.468-5.745l-3.804-0.857c0.078-1.63-1.862-1.243-1.862-1.243L328.73,299.962z"></path><path style="fill:#FFFFE0;" d="M317.862,352.729c0.036,0.673,4.433-13.534,4.407-15.01c-0.024-1.475-0.646-3.908-0.646-3.908s-1.708,2.899-2.383,4.917C318.566,340.745,317.812,351.797,317.862,352.729z"></path><path style="fill:#B5998C;" d="M296.081,385.874c0,0,1.499,2.122,3.519,2.125c0.934-4.763,5.078-13.664,9.067-19.978c3.988-6.314,6.392-24.961,6.522-27.005c-2.022,7.401-3.719,10.701-5.43,14.271C308.051,358.86,296.366,384.606,296.081,385.874z"></path><path style="fill:none;stroke:#000000;stroke-linecap:round;stroke-linejoin:round;" d="M301.233,382.02c0,0,9.041-16.068,11.113-20.519c2.071-4.451,1.786-3.184,2.071-4.451c0.286-1.268,2.177-5.278,2.177-5.278"></path><path style="fill:none;stroke:#000000;stroke-linecap:round;stroke-linejoin:round;" d="M321.727,319.425c0,0-3.392,19.25-4.66,20.768"></path><g><path style="fill:#8B5C29;stroke:#000000;stroke-linecap:round;stroke-linejoin:round;" d="M320.178,324.882c0,0-1.629-4.115-1.045-6.251c-0.115-1.593-1.047-2.213,0.235-3.883c1.281-1.669,2.757-2.367,2.757-2.367c-0.348-1.746-0.27-2.367,0.429-2.912c0.698-0.543,0.001-3.027,0.001-3.027s1.592-1.125,4.311-1.668c2.718-0.541,3.999-0.19,3.999-0.19s5.59-1.319,6.326,2.369c0.737,3.689-1.556,6.367-1.556,6.367l1.358,2.757c0,0-2.254,2.872-2.874,2.794c0.464,1.321,0.502,2.523,0.502,2.523s-0.855,3.805-2.175,3.26c-0.854,0.777-1.671,2.756-1.671,2.756l-2.756,0.349L320.178,324.882z"></path><path style="fill:none;stroke:#000000;stroke-linecap:round;stroke-linejoin:round;" d="M335.737,314.511c0,0-2.055-4.569-3.439-5.101c-1.384-0.532-8.488,0.28-9.395,0.462"></path><path style="fill:#734F29;" d="M320.124,315.972c0,0-0.637,2.098,0.479,2.205c1.532,0.146,4.603,2.726,5.368,3.454c1.321,1.259,5.462,1.675,5.462,1.675s-1.458-7.098-2.945-8.083c-1.485-0.988-7.625-1.988-7.625-1.988L320.124,315.972z"></path><path style="fill:#734F29;" d="M333.691,321.838l-0.447-2.799l1.28-1.716c0,0-1.468-2.258-2.311-1.312C331.371,316.96,332.401,319.987,333.691,321.838z"></path><g><path style="fill:#734F29;stroke:#000000;stroke-linecap:round;stroke-linejoin:round;" d="M320.993,326.939c0,0,3.331,16.695,4.378,17.899c2.485,0.312,6.757-3.569,6.759-5.587c-5.354-8.622-8.418-14.874-8.418-14.874L320.993,326.939z"></path><path style="fill:#8B5C29;stroke:#000000;stroke-linecap:round;stroke-linejoin:round;" d="M321.187,325.892c0,0,2.948,6.68,4.967,8.698c2.017,2.019,8.149,6.448,11.876,4.897c2.799-8.229,2.373-10.364,2.373-10.364s-8.658,2.13-9.821,0.345c-1.164-1.787-4.694-7.341-4.694-7.341L321.187,325.892z"></path><path style="fill:#8B5C29;stroke:#000000;stroke-linecap:round;stroke-linejoin:round;" d="M318.82,319.435c0,0,0.443,5.431,0.889,6.063c0.447,0.632,2.908,1.34,2.908,1.34c0.215-0.124,3.709-1.858,3.693-3.138c-0.014-1.275,0.555-0.83-0.168-1.244C325.42,322.037,321.774,318.605,318.82,319.435z"></path></g></g><path d="M340.211,307.183c0,0,0.777-4.717,0.286-5.404c-0.493-0.686-3.345-4.271-6.889-4.722c-3.544-0.451-6.507,0.581-7.055,0.949c-0.548,0.367-0.797,2.602-0.845,3.522c-0.05,0.925-3.906,1.381-4.482,2.277c-0.211,0.327,0.489,4.307,0.403,4.91c5.996,0.89,11.76-0.366,15.984,3.526c0.797-0.818,1.563-1.761,1.528-2.341C339.074,308.709,340.211,307.183,340.211,307.183z"></path><path style="fill:#5A3D1C;" d="M336.909,297.097c-0.791-0.04-7.853-1.471-7.796-2.524c0.055-1.054,6.979-2.011,9.26-0.174c2.282,1.839,5.202,4.105,3.094,3.996C339.357,298.284,336.909,297.097,336.909,297.097z"></path><path style="fill:none;stroke:#000000;stroke-linecap:round;stroke-linejoin:round;" d="M321.543,313.507c0,0,3.352-0.737,5.46,0.728"></path></g></g></svg>