<svg xmlns="http://www.w3.org/2000/svg" width="500" height="500" version="1.1"><g id="x069"><g><g id="leftXMLID_4_"><g><path style="fill:#C4F0F2;" d="M316.175,339.691l-1.461,2.039l1.071,1.289l-23.895,44.031c0,0,0.799,1.141,3.172,2.429c2.368,1.287,3.394,1.135,3.394,1.135l23.893-44.033l1.663,0.196l0.914-2.337L316.175,339.691z"></path></g><g><path style="fill:#6E6E6E;" d="M312.126,365.422l-13.67,25.192c0,0-1.025,0.152-3.394-1.135c-2.373-1.288-3.172-2.429-3.172-2.429l14.925-27.501L312.126,365.422z"></path></g><polygon style="opacity:0.5;fill:#FFFFFF;" points="296.075,387.753 294.475,386.758 317.409,343.925 319.418,345.054 "></polygon><polygon style="fill:#FFFFFF;" points="294.003,386.514 317.453,343.633 317.289,342.522 318.656,343.105 294.628,387.206 "></polygon><g><path style="fill:none;stroke:#000000;stroke-linecap:round;stroke-linejoin:round;" d="M316.175,339.691l8.751,4.749l-0.914,2.337l-1.663-0.196l-23.893,44.033c0,0-1.025,0.152-3.394-1.135c-2.373-1.288-3.172-2.429-3.172-2.429l23.895-44.031l-1.071-1.289L316.175,339.691z"></path></g></g><line style="fill:none;stroke:#000000;stroke-linecap:round;stroke-linejoin:round;" x1="316.493" y1="346.792" x2="314.156" y2="345.497"></line><line style="fill:none;stroke:#000000;stroke-linecap:round;stroke-linejoin:round;" x1="314.983" y1="349.287" x2="312.646" y2="347.991"></line><line style="fill:none;stroke:#000000;stroke-linecap:round;stroke-linejoin:round;" x1="313.439" y1="351.742" x2="311.615" y2="350.7"></line></g></g></svg>