<svg xmlns="http://www.w3.org/2000/svg" width="500" height="500" version="1.1"><g id="x007"><g><g><polygon style="fill:#666666;stroke:#000000;stroke-linecap:round;stroke-linejoin:round;" points="317.629,375.472 304.823,364.038 301.394,366.096 312.143,379.131 "></polygon><path style="fill:#666666;stroke:#000000;stroke-linecap:round;stroke-linejoin:round;" d="M322.431,377.3l-5.944-1.6l-4.573,2.286v5.717C311.913,383.703,321.289,378.444,322.431,377.3z"></path><g><path style="fill:#6E6E6E;stroke:#000000;stroke-linecap:round;stroke-linejoin:round;" d="M364.938,401.668c0,0-2.908,7.635-8.198,12.095c-9.057,7.64-21.741,4.949-25.735,3.952c-3.992-0.995-16.456-4.575-20.866-15.574c-2.573-6.422-1.557-14.529-1.557-14.529L364.938,401.668z"></path><g><ellipse transform="matrix(-0.9703 -0.242 0.242 -0.9703 568.0203 859.038)" style="fill:#666666;stroke:#000000;stroke-linecap:round;stroke-linejoin:round;" cx="336.76" cy="394.639" rx="29.27" ry="16.236"></ellipse><ellipse transform="matrix(-0.9703 -0.242 0.242 -0.9703 564.2182 868.9263)" style="fill:#8C8C8C;stroke:#000000;stroke-linecap:round;stroke-linejoin:round;" cx="335.471" cy="399.814" rx="22.879" ry="10.362"></ellipse></g></g></g></g></g></svg>