<svg xmlns="http://www.w3.org/2000/svg" width="500" height="500" version="1.1"><g id="x070"><g><path style="fill:#C4F0F2;" d="M310.022,367.979l8.645-20.904c0.45,0.149,0.754,0.219,0.828,0.163c0.433-0.319,1.391-1.914,0.986-2.381c-0.19-0.218-1.907-1.023-3.736-1.804c-1.846-0.74-3.63-1.382-3.919-1.361c-0.615,0.044-1.063,1.85-0.984,2.382c0.015,0.093,0.277,0.258,0.702,0.468l-8.645,20.906c-3.901,3.529-18.48,16.755-18.847,17.638c-0.423,1.021,0.357,1.542,0.357,1.542l24.152,9.987c0,0,0.92,0.183,1.342-0.839C311.271,392.893,310.291,373.232,310.022,367.979z"></path><path style="fill:#6E6E6E;" d="M292.544,375.818c-3.927,3.633-7.317,6.847-7.491,7.267c-0.423,1.021,0.357,1.542,0.357,1.542l10.462,6.618l13.69,3.369c0,0,0.92,0.183,1.342-0.839c0.255-0.615-0.143-10.336-0.498-17.957H292.544z"></path><ellipse transform="matrix(-0.9256 -0.3785 0.3785 -0.9256 427.0624 860.7374)" style="opacity:0.2;fill:#666666;" cx="298.124" cy="388.397" rx="12.049" ry="1.874"></ellipse><path style="opacity:0.5;fill:#FFFFFF;" d="M307.679,368.642l0.827,24.22c0,0-2.161-0.166-5.416-0.962c-0.167-10.571-0.434-20.829-0.434-20.829l3.059-3.111l8.804-23.079l2.551,1.056L307.679,368.642z"></path><path style="fill:#FFFFFF;" d="M307.976,368.166c0.104-0.254,9.039-21.855,9.039-21.855l-1.105-0.457l-10.833,26.193l0.492,20.521l3.708,0.391C309.276,392.958,307.871,368.422,307.976,368.166z"></path><g><line style="fill:none;stroke:#000000;stroke-linecap:round;stroke-linejoin:round;" x1="315.153" y1="349.127" x2="316.939" y2="349.864"></line><line style="fill:none;stroke:#000000;stroke-linecap:round;stroke-linejoin:round;" x1="313.957" y1="352.018" x2="315.743" y2="352.757"></line><line style="fill:none;stroke:#000000;stroke-linecap:round;stroke-linejoin:round;" x1="312.761" y1="354.909" x2="314.547" y2="355.647"></line></g><path style="fill:none;stroke:#000000;stroke-linecap:round;stroke-linejoin:round;" d="M310.022,367.979l8.645-20.904c0.45,0.149,0.754,0.219,0.828,0.163c0.433-0.319,1.391-1.914,0.986-2.381c-0.19-0.218-1.907-1.023-3.736-1.804c-1.846-0.74-3.63-1.382-3.919-1.361c-0.615,0.044-1.063,1.85-0.984,2.382c0.015,0.093,0.277,0.258,0.702,0.468l-8.645,20.906c-3.901,3.529-18.48,16.755-18.847,17.638c-0.423,1.021,0.357,1.542,0.357,1.542s3.556,4.267,11.05,7.205c8.809,3.456,13.103,2.782,13.103,2.782s0.92,0.183,1.342-0.839C311.271,392.893,310.291,373.232,310.022,367.979z"></path></g></g></svg>