<svg xmlns="http://www.w3.org/2000/svg" width="500" height="500" version="1.1"><g id="x071"><g><g><path style="fill:#C2C2C2;stroke:#000000;stroke-linecap:round;stroke-linejoin:round;" d="M307.565,370.95c0,0,1.423,11.583,1.384,13.085c-2.057,1.938-25.853,20.042-25.853,20.042l9.289-36.604l9.883-0.593L307.565,370.95z"></path><polygon style="fill:#E8E8E8;" points="302.329,369.112 301.854,368.342 293.849,368.697 295.569,374.39 "></polygon><polygon style="fill:#E8E8E8;" points="306.895,383.758 285.607,400.479 286.379,398.701 305.116,383.225 "></polygon><polygon style="fill:#E8E8E8;" points="290.706,384.529 286.26,395.381 289.699,383.521 "></polygon><path style="fill:#E8E8E8;" d="M296.256,390.696l-10.174,8.656l4.387-10.554c0,0,2.668-3.023,4.033-2.254C295.866,387.316,296.256,390.696,296.256,390.696z"></path><path style="fill:#696969;" d="M305.767,371.365l0.771,10.793l-13.342,11.087c0,0,1.306-3.558,0.119-5.039c-1.186-1.483-4.269,3.32-4.269,3.32l6.048-13.639l8.538-7.411L305.767,371.365z"></path><path style="fill:none;stroke:#000000;stroke-linecap:round;stroke-linejoin:round;" d="M303.572,369.726c0,0-7.629,6.522-8.775,8.183c-1.778,3.201-10.91,24.035-10.91,24.232"></path><path style="fill:none;stroke:#000000;stroke-linecap:round;stroke-linejoin:round;" d="M308.554,383.641c0,0-11.781-4.389-13.44-5.535c-1.107-2.569-2.253-9.21-2.253-9.21"></path></g><g><path style="fill:#6E6E6E;stroke:#000000;stroke-linecap:round;stroke-linejoin:round;" d="M311.558,363.084c0,0-3.677,5.851-4.19,6.998c-1.105,0.276-4.189-0.673-4.427-3.439c2.095-2.847,4.229-6.642,4.229-6.642L311.558,363.084z"></path><path style="fill:none;stroke:#000000;stroke-linecap:round;stroke-linejoin:round;" d="M308.317,367.393c0,0-2.194,0.593-3.913-2.253"></path><path style="fill:none;stroke:#000000;stroke-linecap:round;stroke-linejoin:round;" d="M309.088,365.792c-0.179-0.297-2.016-0.771-2.965-3.261"></path></g><path style="fill:#696969;stroke:#000000;stroke-linecap:round;stroke-linejoin:round;" d="M308.514,361.978c5.021,3.637,10.22,1.12,11.978-1.027c3.044-3.716,1.426-9.886-2.095-12.335c-2.728-1.896-7.472-3.596-11.108,0.475C303.652,353.162,303.494,358.342,308.514,361.978z M310.528,352.288c1.56-1.657,3.939-0.749,5.102,0.162c1.657,1.3,2.11,4.028,0.683,5.425c-1.43,1.397-3.866,0.65-5.133-0.454C309.912,356.317,308.969,353.944,310.528,352.288z"></path><path style="fill:#C2C2C2;" d="M308.496,355.83c0,0,0.888,2.787,3.675,3.736s5.101,0,5.931-1.838c-1.067,2.846-4.032,4.684-7.354,2.965C307.428,358.973,308.496,355.83,308.496,355.83z"></path><path style="fill:#C2C2C2;" d="M317.237,350.09c0,0-0.771,0.712-1.779,0.534c-1.009-0.178-3.677-1.839-5.633-0.118c-1.958,1.719-2.018,4.742-2.018,4.742s-1.719-3.854,1.898-6.285S317.354,349.734,317.237,350.09z"></path></g></g></svg>