<svg xmlns="http://www.w3.org/2000/svg" width="500" height="500" version="1.1"><g id="x072"><g><path style="fill:#C2C2C2;stroke:#000000;stroke-linecap:round;stroke-linejoin:round;" d="M323.164,371.319c-2.258-0.664-9.557,0.133-9.557,0.133c-1.46-1.99-6.238-7.034-8.229-7.433c0,0-2.521,4.911-2.124,14.6c-1.592,2.125-4.91,7.301-5.176,13.671c3.451,0.134,11.282-1.326,11.282-1.326c2.389,2.786,6.238,5.573,9.29,6.237c1.461-4.38,0.797-12.476,0.266-14.068C321.704,378.619,323.164,371.319,323.164,371.319z M312.911,383.862c-0.93,0.53-2.47,0.167-3.152-1.493c-0.697-1.692-0.001-3.352,1.027-3.85c1.029-0.498,2.489,0.199,3.054,1.56C314.528,381.741,313.84,383.331,312.911,383.862z"></path><path style="fill:#696969;" d="M316.478,382.452l1.294,0.498c0,0,3.186-5.874,3.981-10.752c-0.896,0.896-2.09,1.644-2.09,1.644L316.478,382.452z"></path><path style="fill:#696969;" d="M317.522,394.198l0.398,1.643c0,0-4.131-1.395-8.112-5.923c0-0.548,0.198-1.195,0.198-1.195S314.138,393.054,317.522,394.198z"></path><path style="fill:#696969;" d="M306.175,365.928l1.096,2.389l-0.698,10.833l-4.777,9.623l-2.091,2.191c0,0,0.647-5.774,5.026-12.245C304.084,371.851,306.175,365.928,306.175,365.928z"></path><g><path style="fill:#6E6E6E;stroke:#000000;stroke-linecap:round;stroke-linejoin:round;" d="M319.846,373.642c-3.119-0.331-6.902,0.664-6.902,0.664s-3.78-4.997-5.574-6.172c-0.465,1.593-1.128,6.835-0.797,11.016c-3.318,3.386-4.646,9.49-4.646,9.49c1.792,0.266,8.297-0.929,8.297-0.929s6.171,5.575,7.167,5.243c0.199-3.186-0.465-8.296-0.73-10.286C317.987,380.344,319.912,374.969,319.846,373.642z M312.985,382.863c-0.524,0.465-1.524,0.343-2.123-0.787c-0.61-1.151-0.346-2.405,0.245-2.854c0.591-0.45,1.573-0.082,2.067,0.844C313.777,381.195,313.511,382.398,312.985,382.863z"></path><path style="fill:#505050;" d="M313.873,378.42l5.043-3.981c0,0-1.062,5.442-3.451,8.362C314.735,381.009,313.873,378.42,313.873,378.42z"></path><path style="fill:#505050;" d="M302.789,387.978c0,0,6.704-0.797,7.565-1.063c1.063,0.928,5.774,4.711,6.372,4.978c-0.863-2.257-3.783-7.632-3.783-7.632l-3.649-0.398L302.789,387.978z"></path><path style="fill:#505050;" d="M307.899,369.86l3.119,8.824l-2.189,1.794l-1.46-1.063C307.369,379.416,306.839,373.642,307.899,369.86z"></path></g><path style="fill:#C2C2C2;stroke:#000000;stroke-linecap:round;stroke-linejoin:round;" d="M314.873,379.5c-0.85-2.05-3.049-3.1-4.599-2.35c-1.551,0.749-2.599,3.25-1.55,5.799c1.03,2.501,3.35,3.05,4.75,2.25C314.873,384.399,315.911,382.003,314.873,379.5z M312.985,382.863c-0.524,0.465-1.524,0.343-2.123-0.787c-0.61-1.151-0.346-2.405,0.245-2.854c0.591-0.45,1.573-0.082,2.067,0.844C313.777,381.195,313.511,382.398,312.985,382.863z"></path></g></g></svg>