<svg xmlns="http://www.w3.org/2000/svg" width="500" height="500" version="1.1"><g id="x073"><g><path style="fill:#6E6E6E;stroke:#000000;stroke-linecap:round;stroke-linejoin:round;" d="M358.801,307.643c-1.884,1.424-4.677,10.214-5.677,12.162c-0.997,1.944-52.015,57.907-55.48,59.741c-3.466,1.833-12.641,0.451-12.641,0.451l1.35-2.037c0,0,3.7-0.203,7.035-1.817c3.336-1.612,51.861-54.866,55.156-61.723c3.294-6.856,3.521-11.79,6.775-12.258l6.832,0.298c0,0,6.544,2.813,10.917,15.379c-1.675,0.058-3.661-0.368-3.661-0.368l-2.581-5.149l0.16,5.213l-3.223-0.854C363.764,316.68,360.838,308.991,358.801,307.643z"></path><path style="fill:#7C7F7C;" d="M362.203,307.983c0,0,3.055-0.885,3.96-0.775c0.599,0.627,3.544,4.275,5.413,9.578c-0.823-0.162-1.463-0.216-1.463-0.216l-2.985-5.264c0,0-1.045,0.075-1.217,0.62s0.072,4.272,0.072,4.272l-1.009-0.271C364.975,315.928,362.72,309.131,362.203,307.983z"></path><path style="fill:#3F4A50;" d="M297.927,378.22c0.138-0.131-1.463-1.06-1.838-2.024c-1.829,0.91-9.202,2.627-9.202,2.627l-0.159,0.354C286.728,379.176,295.769,380.279,297.927,378.22z"></path><path style="fill:#3F4A50;" d="M330.347,343.952l-1.887-1.014l-0.863-1.403l20.865-25.017c0,0,4.623-12.841,6.615-13.356c1.994-0.515,7.082,0.297,7.082,0.297s3.099,1.826,4.113,3.816c-2.145-0.073-5.424,1.276-5.424,1.276l-1.76-1.735c0,0-2.795,1.536-3.878,5.568c-1.327,3.094-2.91,7.131-2.91,7.131L330.347,343.952z"></path><path style="fill:#2D373F;" d="M359.273,308.021c-0.309,0.017-2.054-3.347-3.633-2.438c-1.577,0.908-2.042,10.973-2.042,10.973c0.96-3.063,4.18-9.962,5.484-8.548"></path><path style="fill:none;stroke:#000000;stroke-linecap:round;stroke-linejoin:round;" d="M364.24,315.868c0,0-2.898-11.947-7.216-13.646"></path><path style="fill:none;stroke:#000000;stroke-linecap:round;stroke-linejoin:round;" d="M360.146,308.733c-0.063-0.235-3.209-4.424-4.988-3.089c-1.781,1.335-2.285,6.407-4.406,11.27c-2.121,4.863-50.485,56.323-50.485,56.323s-5.565,5.816-13,5.112"></path></g></g></svg>