<svg xmlns="http://www.w3.org/2000/svg" width="500" height="500" version="1.1"><g id="x074"><g><g><path style="fill:#C9C9C9;stroke:#000000;stroke-linecap:round;stroke-linejoin:round;" d="M326.616,343.454l6.254-2.395c0,0,2.564,4.879-3.767,8.223C326.987,345.34,326.616,343.454,326.616,343.454z"></path><path style="fill:#787878;" d="M332.376,342.233c0,0,1.485,3.96-2.758,5.717c-0.168-0.311-0.305-0.519-0.305-0.519s3.301-1.57,2.515-5.024C332.063,342.295,332.376,342.233,332.376,342.233z"></path><path style="fill:#C9C9C9;stroke:#000000;stroke-linecap:round;stroke-linejoin:round;" d="M295.36,373.972c0.076,2.616,2.26,4.676,4.876,4.6c2.617-0.076,4.677-2.259,4.601-4.875c-0.004-0.139-0.017-0.275-0.032-0.411c4.569-5.143,16.244-18.266,17.065-19.051c1.026-0.979,7.409-2.534,7.409-2.534l0.267-1.693l-0.009-0.315c-0.434-0.409-3.475-7.17-3.475-7.17l-0.162-1.997l6.105-1.995l0.004-1.66c0,0-4.582-1.765-8.118-0.186c-3.538,1.577-3.245,4.414-3.818,6.433c-0.573,2.02-1.613,6.159-2.437,6.815c-0.767,0.61-16.664,17.065-18.879,19.36C296.743,369.886,295.297,371.774,295.36,373.972z M298.039,373.673c-0.027-0.961,0.728-1.761,1.688-1.789c0.96-0.027,1.761,0.728,1.788,1.688c0.028,0.96-0.728,1.761-1.688,1.788C298.867,375.388,298.066,374.631,298.039,373.673z"></path><path style="fill:#FFFFFF;" d="M318.652,350.454l-19.084,19.628c0,0,0.957,0.288,1.584,0.111C301.779,370.018,318.652,350.454,318.652,350.454z"></path><path style="fill:#FFFFFF;" d="M330.448,337.521c0,0-2.78-1.396-5.588-0.102c-2.808,1.292-2.631,1.92-2.631,1.92l2.631-0.075L330.448,337.521z"></path><polygon style="fill:#787878;" points="331.106,337.476 331.126,338.187 325.08,340.469 324.998,339.443 "></polygon></g><path style="fill:#787878;" d="M328.672,349.848l-0.125,1.109c0,0-5.716,1.353-7.407,2.982c-1.661,1.601-17.17,18.965-17.17,18.965s0.523,2.274-1.283,3.857c-1.772,1.554-4.204,1.282-5.846-0.805c1.066,0.849,3.519,1.262,4.989,0.329c1.169-0.741,1.546-2.653,1.345-3.569c2.907-3.325,17.185-19.269,18.374-20.529C322.736,350.93,328.672,349.848,328.672,349.848z"></path></g></g></svg>