<svg xmlns="http://www.w3.org/2000/svg" width="500" height="500" version="1.1"><g id="x075"><g><g><path style="fill:#FFF504;stroke:#000000;stroke-linecap:round;stroke-linejoin:round;" d="M305.158,398.834c0,0-0.029,6.608,4.881,6.524c4.909-0.084,4.481-4.075,4.481-4.075L305.158,398.834z"></path><path style="fill:none;stroke:#000000;stroke-linecap:round;stroke-linejoin:round;" d="M308.562,400.452c-0.268,0.249,0.339,1.939,1.568,2.328c1.481,0.465,2.311-1.055,2.311-1.055"></path></g><g><path style="fill:#FFF504;stroke:#000000;stroke-linecap:round;stroke-linejoin:round;" d="M321.057,355.296c0,0,3.229-6.889,8.83-2.887c3.575,2.552,0.286,6.464,0.286,6.464L321.057,355.296z"></path><path style="fill:none;stroke:#000000;stroke-linecap:round;stroke-linejoin:round;" d="M324.676,355.166c0,0,1.448-1.549,2.978-0.979c1.529,0.571,0.779,2.816,0.779,2.816"></path></g><path style="fill:#6E6E6E;stroke:#000000;stroke-linecap:round;stroke-linejoin:round;" d="M330.144,358.252c0,0-9.27-3.634-10.769-3.584c-1.5,0.052-14.45,3.281-19.636,17.844c-5.448,15.299,4.07,25.035,4.817,25.836c0.745,0.801,13.28,4.086,13.28,4.086L330.144,358.252z"></path><path style="opacity:0.5;fill:#FFFFFF;" d="M312.952,358.107c0.315-0.143,3.999-2.079,6.424-2.044c2.255,0.493,3.89,1.017,3.89,1.017L312.952,358.107z"></path><path style="fill:#505050;" d="M303.732,379.314c0,0-2.728,2.642-4.278-0.203c-0.044,2.684-0.793,12.158,6.218,18.347c1.835,0.685,3.171,0.835,3.171,0.835s-4.264-3.507-5.037-9.37C302.781,381.154,303.732,379.314,303.732,379.314z"></path><g><ellipse transform="matrix(0.9048 0.4259 -0.4259 0.9048 192.723 -101.6521)" style="fill:#FFFBD9;stroke:#000000;stroke-linecap:round;stroke-linejoin:round;" cx="323.654" cy="380.1" rx="18.002" ry="22.788"></ellipse><path style="fill:#FFFFFF;" d="M336.38,364.412c0,0-9.094-7.14-19.145,2.522c-10.05,9.663-10.388,25.039-2.174,32.197c-6.826-3.38-14.656-16.269-2.446-31.482C324.824,352.436,336.38,364.412,336.38,364.412z"></path><path style="fill:none;stroke:#000000;stroke-linecap:round;stroke-linejoin:round;" d="M314.009,369.659c0,0,10.026-14.352,21.514-8.377"></path></g><g><path style="fill:#FFF504;stroke:#000000;stroke-linecap:round;stroke-linejoin:round;" d="M316.857,357.213c0,0-4.982,2.147-7.803,5.972c-1.349-1.287-4.512-8.214,0.099-10.064C313.764,351.269,316.857,357.213,316.857,357.213z"></path><path style="fill:none;stroke:#000000;stroke-linecap:round;stroke-linejoin:round;" d="M313.688,357.771c0,0-1.666-2.537-3.25-1.56c-1.584,0.976,0.322,4.038,0.322,4.038"></path></g><g><path style="fill:#FFF504;stroke:#000000;stroke-linecap:round;stroke-linejoin:round;" d="M305.655,368.797c0,0-2.631,4.244-3.215,9.078c-2.483,0.118-6.898-2.052-5.082-6.687C299.465,365.817,305.655,368.797,305.655,368.797z"></path><path style="fill:none;stroke:#000000;stroke-linecap:round;stroke-linejoin:round;" d="M303.728,370.691c0,0-3.458-0.071-3.626,1.781c-0.169,1.854,1.905,3.063,1.905,3.063"></path></g><g><path style="fill:#FFF504;stroke:#000000;stroke-linecap:round;stroke-linejoin:round;" d="M301.564,385.125c0,0,0.177,3.726,2.354,9.327c-4.114,0.99-7.342,0.798-8.218-2.719C294.481,386.837,301.564,385.125,301.564,385.125z"></path><path style="fill:none;stroke:#000000;stroke-linecap:round;stroke-linejoin:round;" d="M301.025,388.669c0,0-2.243,0.644-1.782,2.21c0.462,1.564,2.791,1.389,2.791,1.389"></path></g></g></g></svg>