<svg xmlns="http://www.w3.org/2000/svg" width="500" height="500" version="1.1"><g id="x076"><g><g><rect x="302.113" y="356.391" transform="matrix(0.7918 0.6108 -0.6108 0.7918 288.7727 -109.2528)" style="fill:#FFFFFF;stroke:#000000;stroke-linecap:round;stroke-linejoin:round;" width="5.03" height="25.05"></rect><g><g><path style="fill:#505050;stroke:#000000;stroke-linecap:round;stroke-linejoin:round;" d="M354.021,353.327c3.687-15.233-14.425-29.441-14.425-29.441s-18.347-13.905-32.144-6.468c-11.578,6.243-14.538,28.359,3.678,43.383C330.29,374.598,350.926,366.111,354.021,353.327z"></path><line style="fill:none;stroke:#000000;stroke-linecap:round;stroke-linejoin:round;" x1="324.655" y1="361.948" x2="335.918" y2="361.597"></line><line style="fill:none;stroke:#000000;stroke-linecap:round;stroke-linejoin:round;" x1="323.115" y1="358.562" x2="334.662" y2="357.206"></line></g><g><path style="fill:#FFFFFF;stroke:#000000;stroke-linecap:round;stroke-linejoin:round;" d="M302.345,349.386c0,0,3.399-2.508,12.591,4.579c9.189,7.086,7.663,11.284,7.663,11.284s-4.423,0.985-11.469-4.448C304.083,355.367,302.345,349.386,302.345,349.386z"></path><line style="fill:none;stroke:#000000;stroke-linecap:round;stroke-linejoin:round;" x1="307.46" y1="351.621" x2="308.327" y2="356.197"></line><line style="fill:none;stroke:#000000;stroke-linecap:round;stroke-linejoin:round;" x1="312.271" y1="353.619" x2="311.062" y2="358.672"></line><line style="fill:none;stroke:#000000;stroke-linecap:round;stroke-linejoin:round;" x1="315.875" y1="355.912" x2="312.545" y2="360.55"></line><line style="fill:none;stroke:#000000;stroke-linecap:round;stroke-linejoin:round;" x1="313.924" y1="361.611" x2="319.456" y2="360.139"></line></g></g></g><g><path style="fill:#6E6E6E;stroke:#000000;" d="M306.4,333.776c0.271,0.382,0.691,0.6,1.116,0.77c0.936,0.373,1.884,0.718,2.807,1.136c0.64,0.289,0.739,0.81,0.321,1.532c-0.348,0.606-0.785,1.235-1.365,1.532c-0.999,0.521-2.037,0.328-2.828,0c-1.753-0.757-4.667-1.307-5.143-3.845c-0.181-0.896-0.094-1.876,0.134-2.79c0.34-1.346,0.84-2.626,1.459-3.794c0.63-1.627,3.771-5.347,5.74-5.891c1.454-0.521,2.565-0.314,3.672,0.006c1.782,0.494-0.866,2.687-1.736,3.694c-0.646,0.664-1.301,1.345-1.915,2.052c-0.292,0.336-0.597,0.67-0.846,1.024C307.018,330.241,305.624,332.693,306.4,333.776z"></path><path style="fill:#6E6E6E;stroke:#000000;" d="M328.01,340.346c-3.267,4.223-8.938,5.624-12.56,3.374c-3.736-2.354-5.184-7.664-1.869-12.056c3.175-4.022,10.332-5.551,13.998-3.634C331.363,330.03,331.431,335.642,328.01,340.346z M323.73,337.892c1.733-2.23,3.509-5.095,1.004-6.56c-2.501-1.4-5.367,0.754-7.058,2.923c-1.704,2.153-1.876,4.524,0.262,5.837C319.817,341.262,322.288,339.715,323.73,337.892z"></path><path style="fill:#6E6E6E;stroke:#000000;" d="M338.89,340.005c0.26-0.252,0.623-0.531,0.922-0.61c0.311-0.062,0.604,0.223,0.816,0.491c0.907,1.154,1.513,1.9,0.56,3.822c-0.729,2.674-10.79,9.47-13.282,9.129c-0.593-0.054-1.068-0.447-1.468-0.83c-0.381-0.368-0.693-0.848-0.751-1.461c-0.056-0.614,0.048-1.26,0.234-1.871c0.84-2.494,4.708-12.839,6.215-14.764c1.155-1.523,2.157-0.752,2.968-0.016c2.069,1.923-4.461,11.129-4,12.801C332.016,347.001,338.096,341.071,338.89,340.005z"></path><path style="fill:#6E6E6E;stroke:#000000;" d="M337.801,358.792c0.661,0.959,1.351,1.88,1.91,2.81c0.486,0.822,0.254,1.154-0.868,1.747c-2.041,0.988-3.202-0.2-3.824-1.167c-0.685-1.078-1.728-2.264-1.969-3.771c-0.286-1.691,0.624-3.117,1.936-4.663c0.855-1.004,1.688-2.018,2.485-3.05c0.65-0.842,1.235-1.708,1.82-2.603c3.524-5.748,4.744-4.033,7.696,0.759c0.595,0.983,1.234,2.482,1.302,3.992c0.039,0.892-0.243,1.652-0.566,2.211c-0.534,0.915-1.36-0.507-1.75-1.142c-0.431-0.702-0.807-1.512-1.253-2.201c-0.78-1.203-1.111-1.749-2.029-0.27c-0.689,1.069,0.069,2.313,0.547,3.045c0.396,0.606,0.83,1.153,1.211,1.765c0.315,0.507,0.629,1.198,0.476,1.911c-0.091,0.442-0.589,0.961-0.877,1.235c-0.231,0.226-0.548,0.457-0.835,0.512c-0.726,0.107-1.777-1.857-2.195-2.468c-0.308-0.471-0.889-1.454-1.429-1.507c-0.199-0.02-0.399,0.095-0.59,0.226c-0.295,0.206-0.575,0.479-0.841,0.731C337.472,357.543,337.366,358.166,337.801,358.792z"></path></g></g></g></svg>