<svg xmlns="http://www.w3.org/2000/svg" width="500" height="500" version="1.1"><g id="x077"><g><g><path style="fill:#6E6E6E;stroke:#000000;stroke-linecap:round;stroke-linejoin:round;" d="M316.299,356.76c-1.061,0.571-20.066,12.795-20.066,12.795s-1.03,2.292,0.77,4.955c1.803,2.663,3.315,1.954,3.315,1.954l21.806-13.574L316.299,356.76z"></path><path style="fill:none;stroke:#000000;stroke-linecap:round;stroke-linejoin:round;" d="M310.904,360.137c0,0-2.288,4.651,3.564,6.82"></path></g><path style="fill:#FF90DC;stroke:#000000;stroke-linecap:round;stroke-linejoin:round;" d="M317.226,361.42c0,0-4.055-19.77,6.038-25.566c10.091-5.799,16.134,3.479,15.128,10.706c4.062,1.972,10.583,7.148,5.857,13.532C339.525,366.476,322.813,365.151,317.226,361.42z"></path><path style="fill:#FF3D9B;" d="M321,360.021c0,0-2.416-7.913-0.098-10.845c2.319-2.933,9.867-5.729,11.479,4.405c3.874,0.547,6.834,4.587,4.291,7.587C334.128,364.169,323.548,362.702,321,360.021z"></path><circle style="fill:#FDE0ED;" cx="329.275" cy="343.41" r="4.017"></circle><circle style="fill:#FDE0ED;" cx="329.232" cy="350.959" r="1.773"></circle></g></g></svg>