<svg xmlns="http://www.w3.org/2000/svg" width="500" height="500" version="1.1"><g id="x078"><g><path style="fill:#FFBF00;stroke:#000000;stroke-linecap:round;stroke-linejoin:round;" d="M303.334,375.705c0,0,0.006,3.079-0.67,4.162c-0.677,1.084-5.64,3.045-9.045-0.767c-3.401-3.814-1.225-8.359-0.016-9.231c1.207-0.872,7.361-0.885,7.361-0.885L303.334,375.705z"></path><path style="fill:#6E6E6E;stroke:#000000;stroke-linecap:round;stroke-linejoin:round;" d="M314.28,362.717l-10.821,11.44c0,0-1.907,0.283-3.144-0.759c-1.658-1.396-1.577-3.455-1.577-3.455l10.865-10.931L314.28,362.717z"></path><path style="fill:#D4A300;stroke:#000000;stroke-linecap:round;stroke-linejoin:round;" d="M321.12,376.753c0,0-6.164,5.913-14.979,1.791c-2.416,1.744-1.755,3.484-1.755,3.484s11.239,5.453,19.207-0.356C326.279,377.082,321.12,376.753,321.12,376.753z"></path><path style="fill:#FFBF00;stroke:#000000;stroke-linecap:round;stroke-linejoin:round;" d="M316.6,365.854c0,0-5.457-0.815-8.14-5.204c-2.682-4.388-2.738-11.052,0.697-12.885c3.434-1.831,13.873-2.722,17.688,5.929c3.816,8.651,6.059,25.9-6.455,29.532C321.981,371.806,316.6,365.854,316.6,365.854z"></path><path style="fill:#FFF278;" d="M324.564,376.964c0,0,5.075-8.422,1.743-15.979c-2.767,3.166-5.125,1.521-5.838,3.081C323.598,371.245,324.564,376.964,324.564,376.964z"></path><path style="fill:#FFFFFF;stroke:#000000;stroke-linecap:round;stroke-linejoin:round;" d="M320.925,353.429c0,0-3.288,0.538-2.487-2.095c0.801-2.634,84.376-92.451,84.376-92.451L320.925,353.429z"></path></g></g></svg>