<svg xmlns="http://www.w3.org/2000/svg" width="500" height="500" version="1.1"><g id="x079"><g><g><path style="fill:#8C8C8C;stroke:#000000;stroke-linecap:round;stroke-linejoin:round;" d="M347.584,104.967c0,0,2.145,3.407,2.185,4.529c0.041,1.121-2.876,6.001-2.876,6.001l-24.958-8.267L347.584,104.967z"></path><g><path style="fill:#BEA36D;stroke:#000000;stroke-linecap:round;stroke-linejoin:round;" d="M340.269,226.865c0,0-0.312,1.783-5.776,3.342c0.06,2.484-0.404,5.161-0.404,5.161s9.242,0.299,10.324-6.12C343.279,226.61,340.269,226.865,340.269,226.865z"></path><path style="fill:#D9E6F0;stroke:#000000;stroke-linecap:round;stroke-linejoin:round;" d="M356.935,139.003c-3.021-6.476-2.896-11.09-1.454-18.511c-0.302-0.61-0.648-1.119-1.026-1.548l2.442-13.984l-7.082-1.238l-2.364,13.535c-1.396,0.329-2.383,0.823-2.383,0.823s-0.359,6.738-1.678,9.545c-1.32,2.807-3.559,6.83-5.547,8.02c-0.646,4.245,3.646,9.688,3.646,9.688l-4.725,3.958c0,0,2.707,5.046,3.569,5.957c0.308,0.09-44.939,260.132-44.939,260.132l7.08,1.236l45.243-258.505c0.078,0.015,6.531-5.15,6.531-5.15s-3.952-4.902-4.097-6.149C351.448,144.892,355.995,140.929,356.935,139.003z"></path><rect x="321.905" y="154.97" transform="matrix(-0.9852 -0.1713 0.1713 -0.9852 592.8147 618.047)" style="fill:#8C8C8C;" width="2.337" height="256.953"></rect><path style="fill:#8C8C8C;" d="M340.218,142.59c0.405,0.573,3.629,3.001,3.629,3.001l5.053,0.48l3.2-4.777l-11.766-1.646C340.334,139.647,339.583,141.689,340.218,142.59z"></path><g><g><path style="fill:#FEFEFE;stroke:#000000;stroke-linecap:round;stroke-linejoin:round;" d="M363.879,254.482c0,0-18.963,20.396,24.432,46.917c26.382,16.124,65.382,8.544,83.301-19.164c-23.223,4.948-33.076-14.397-33.076-14.397s27.002-1.871,34.465-16.78c-27.716,1.12-52.994-32.514-62.217-59.458C405.481,218.595,363.879,254.482,363.879,254.482z"></path><path style="fill:#6E6E6E;" d="M415.337,221.801c0,0,9.733,21.317,24.822,29.074c15.091,7.757,24.651,8.625,24.651,8.625s-10.463,6.798-25.509,8.25c-0.228,1.087,8.087,11.82,18.221,14.75c-0.759,2.337-14.14,19.858-43.301,16.5s-43.087-22.5-39.351-44.83c4.063,0.878,19.641,0.527,26.817-5.487C412.979,239.218,415.337,221.801,415.337,221.801z"></path><path style="fill:none;stroke:#000000;stroke-linecap:round;stroke-linejoin:round;" d="M374.871,254.17c0,0-4.929,19.057,11.026,33.104c19.483,17.155,54.533,16.467,71.37-3.935"></path><path style="fill:none;stroke:#000000;stroke-linecap:round;stroke-linejoin:round;" d="M414.824,220.375c0,0,15.754,36.383,48.918,38.779"></path></g><g><path style="fill:#C8C8C8;stroke:#000000;stroke-linecap:round;stroke-linejoin:round;" d="M421.376,243.669c0,0-15.991,14.313-57.042,9.664c17.333-16.667,44.272-60.781,44.272-60.781S435.462,231.322,421.376,243.669z"></path><path style="fill:none;stroke:#000000;stroke-linecap:round;stroke-linejoin:round;" d="M376.489,239.903c0,0,19.134,1.098,27.601-5.487"></path></g><path style="fill:#FEFEFE;stroke:#000000;stroke-linecap:round;stroke-linejoin:round;" d="M349.105,132.063c0,0,8.895,16.937,2.959,49.961c-6.903,38.412-18.436,51.096-18.436,51.096s56.405-13.599,87.747,10.549c42.71-40.43,37.064-91.541,11.561-101.255C407.775,128.198,349.105,132.063,349.105,132.063z"></path><path style="fill:#6E6E6E;" d="M343.5,215.5c0,0,6.29-17.27,9-32.875c3.625-20.875,1.125-36.875,1.125-36.875s35.532-2.25,64.042,6.25c22.517,6.713,34.711,19.75,34.711,19.75s3.624,30.962-20.793,60.625C394.93,205.75,343.5,215.5,343.5,215.5z"></path><circle style="fill:#FFBF00;stroke:#000000;stroke-linecap:round;stroke-linejoin:round;" cx="359.199" cy="137.375" r="5.06"></circle><path style="fill:#FEFEFE;stroke:#000000;stroke-linecap:round;stroke-linejoin:round;" d="M342.078,228.823c0,0-6.965,21.124-2.043,36.175c5.412-3.052,10.23-3.985,10.23-3.985S345.303,247.559,342.078,228.823z"></path><circle style="fill:#FFBF00;stroke:#000000;stroke-linecap:round;stroke-linejoin:round;" cx="344.553" cy="225.959" r="5.059"></circle><path style="fill:none;stroke:#000000;stroke-linecap:round;stroke-linejoin:round;" d="M353.625,145.625c0,0,71.318-4.24,98.003,25.335"></path><path style="fill:none;stroke:#000000;stroke-linecap:round;stroke-linejoin:round;" d="M343.25,215.75c0,0,55.168-10.151,87.25,16.758"></path></g></g><polygon style="fill:#D9E6F0;stroke:#000000;stroke-linecap:round;stroke-linejoin:round;" points="339.944,110.481 343.644,131.362 353.73,132.698 363.818,114.322 358.464,75.816 "></polygon><polygon style="fill:#8C8C8C;" points="353.814,129.146 348.895,127.896 357.462,81.965 361.307,114.442 "></polygon><polygon style="fill:#FEFEFE;" points="357.462,81.965 350.274,113.12 342.385,110.763 "></polygon><path style="fill:#D9E6F0;stroke:#000000;stroke-linecap:round;stroke-linejoin:round;" d="M359.821,107.652c0,0-3.089,2.581-3.472,3.637c-0.385,1.056,0.887,6.596,0.887,6.596l26.29-0.179L359.821,107.652z"></path><polygon style="fill:#FEFEFE;" points="358.187,111.924 360.379,109.54 375.44,116.106 "></polygon><g><path style="fill:#FEFEFE;stroke:#000000;stroke-linecap:round;stroke-linejoin:round;" d="M342.534,132.93c0,0-5.726,34.479-21.841,39.371c-1.396-7.497-1.772-13.368-1.772-13.368s15.771-11.828,19.872-25.571C340.966,131.822,342.534,132.93,342.534,132.93z"></path><path style="fill:#FEFEFE;stroke:#000000;stroke-linecap:round;stroke-linejoin:round;" d="M342.534,132.93c0,0-9.524,17.325-28.115,15.226c2.374-8.994,2.374-8.994,2.374-8.994S331.153,140.082,342.534,132.93z"></path></g><path style="fill:#FEFEFE;stroke:#000000;stroke-linecap:round;stroke-linejoin:round;" d="M354.858,136.992c0,0-2.735-3.981-8.942-4.326c-3.368-0.187-6.454,2.312-6.454,2.312s-1.905-1.826-1.868-3.247c0.038-1.419,2.529-5.601,9.555-5.247c7.627,0.384,11.058,4.916,11.191,6.518C358.475,134.604,359.648,137.121,354.858,136.992z"></path><path style="fill:#FEFEFE;stroke:#000000;stroke-linecap:round;stroke-linejoin:round;" d="M340.854,229.992c0,0-2.871-3.883-9.087-4.014c-1.229-0.025-2.41,0.307-3.413,0.735c-1.045,1.443-1.717,6.62-1.717,6.62s-2.72-1.41-3.633-3.562c-0.649-1.53-0.368-3.291-0.007-4.661c0.594-2.248,2.754-5.463,9.787-5.354c7.634,0.118,11.223,4.53,11.41,6.126C344.384,227.479,345.646,229.955,340.854,229.992z"></path></g><polygon style="fill:#D9E6F0;stroke:#000000;stroke-linecap:round;stroke-linejoin:round;" points="304.358,415.142 304.913,427.884 295.809,442.828 291.521,424.064 296.055,414.064 "></polygon><polygon style="fill:#FEFEFE;" points="296.179,417.871 293.061,424.44 296.552,438.481 299.632,418.469 "></polygon><path style="fill:#D9E6F0;stroke:#000000;stroke-linecap:round;stroke-linejoin:round;" d="M296.182,409.271l9.539,1.855c0,0,0.908,5.887-1.77,6.349c-2.675,0.46-8.557-2.096-8.557-2.096S295.002,413.503,296.182,409.271z"></path></g></g></svg>