<svg xmlns="http://www.w3.org/2000/svg" width="500" height="500" version="1.1"><g id="x080"><g><polygon style="fill:#B2B2B2;stroke:#000000;stroke-linecap:round;stroke-linejoin:round;" points="342.987,182.586 348.999,190.858 345.122,225.447 338.271,224.678 "></polygon><polygon style="fill:#FFFFFF;" points="341.234,218.401 344.635,188.057 345.685,190.486 342.429,219.527 "></polygon><path style="fill:#B2B2B2;stroke:#000000;stroke-linecap:round;stroke-linejoin:round;" d="M346.739,232.343l-11.571-1.297l1.076-9.614c0,0,1.715-0.529,5.798-0.071c4.085,0.458,5.775,1.368,5.775,1.368L346.739,232.343z"></path><path style="fill:#6E6E6E;stroke:#000000;stroke-linecap:round;stroke-linejoin:round;" d="M350.424,251.48l-23.086-2.587l1.976-17.62c0,0,3.405-0.94,11.553-0.027c8.147,0.914,11.532,2.614,11.532,2.614L350.424,251.48z"></path><path style="fill:#FFFFFF;" d="M332,240.825l0.695-6.199c0,0,1.452-1.159,8.304-0.391c6.853,0.768,7.358,2.146,7.358,2.146l-0.841,7.505L332,240.825z"></path><path d="M330.236,246.245l0.769-6.853c0,0,3.799-0.73,9.142-0.131c5.344,0.599,8.805,2.143,8.805,2.143l-0.694,6.2L330.236,246.245z"></path><path style="fill:#FFFFFF;stroke:#000000;stroke-linecap:round;stroke-linejoin:round;" d="M343.859,391.493l-41.113-4.608l15.577-139.001c0,0,6.494-1.916,21.178-0.271c14.683,1.646,19.937,4.878,19.937,4.878L343.859,391.493z"></path><path style="fill:#6E6E6E;" d="M355.52,255.024c0,0-5.074-1.89-16.822-3.207c-11.747-1.316-17.112-0.596-17.112-0.596l-6.4,57.102l33.936,3.803L355.52,255.024z"></path><path style="opacity:0.3;fill:#D9F2F0;" d="M340.636,387.827l-33.936-3.803l14.885-132.803c0,0,5.365-0.72,17.112,0.596c11.748,1.317,16.822,3.207,16.822,3.207L340.636,387.827z"></path><path d="M348.335,317.656c0,0-2.177,1.737-16.534,0.129c-14.356-1.608-17.074-3.896-17.074-3.896l0.878-7.831c0,0,4.787-1.445,17.676-0.001s15.933,3.768,15.933,3.768L348.335,317.656z"></path><path style="fill:#B2B2B2;stroke:#000000;stroke-linecap:round;stroke-linejoin:round;" d="M331.586,315.283c-9.191-1.03-16.789-0.551-16.971,1.072l-0.768,6.852c-0.182,1.622,7.121,3.771,16.312,4.802c9.191,1.03,16.789,0.55,16.97-1.072l0.769-6.852C348.079,318.463,340.776,316.313,331.586,315.283z"></path><ellipse transform="matrix(0.9938 0.1114 -0.1114 0.9938 38.2626 -34.787)" style="fill:#8C8C8C;" cx="330.488" cy="325.072" rx="15.094" ry="2.955"></ellipse><g><rect x="320.338" y="323.056" transform="matrix(0.9938 0.1113 -0.1113 0.9938 41.9503 -34.1512)" style="fill:#B2B2B2;stroke:#000000;stroke-linecap:round;stroke-linejoin:round;" width="12.805" height="70.922"></rect><rect x="324.853" y="321.902" transform="matrix(0.9938 0.1114 -0.1114 0.9938 42.0582 -34.1567)" style="fill:#B2B2B2;stroke:#000000;stroke-linecap:round;stroke-linejoin:round;" width="3.611" height="74.698"></rect></g><g><line style="opacity:0.5;fill:none;stroke:#879CB5;stroke-linecap:round;stroke-linejoin:round;" x1="322.07" y1="254.25" x2="307.59" y2="383.463"></line><line style="opacity:0.5;fill:none;stroke:#879CB5;stroke-linecap:round;stroke-linejoin:round;" x1="322.681" y1="260.596" x2="328.229" y2="261.217"></line><line style="opacity:0.5;fill:none;stroke:#879CB5;stroke-linecap:round;stroke-linejoin:round;" x1="321.95" y1="267.121" x2="327.498" y2="267.743"></line><line style="opacity:0.5;fill:none;stroke:#879CB5;stroke-linecap:round;stroke-linejoin:round;" x1="321.219" y1="273.647" x2="326.767" y2="274.269"></line><line style="opacity:0.5;fill:none;stroke:#879CB5;stroke-linecap:round;stroke-linejoin:round;" x1="320.487" y1="280.173" x2="326.033" y2="280.795"></line><line style="opacity:0.5;fill:none;stroke:#879CB5;stroke-linecap:round;stroke-linejoin:round;" x1="319.755" y1="286.699" x2="325.303" y2="287.32"></line><line style="opacity:0.5;fill:none;stroke:#879CB5;stroke-linecap:round;stroke-linejoin:round;" x1="319.024" y1="293.225" x2="324.572" y2="293.847"></line><line style="opacity:0.5;fill:none;stroke:#879CB5;stroke-linecap:round;stroke-linejoin:round;" x1="318.293" y1="299.751" x2="323.84" y2="300.372"></line><line style="opacity:0.5;fill:none;stroke:#879CB5;stroke-linecap:round;stroke-linejoin:round;" x1="317.562" y1="306.276" x2="323.108" y2="306.898"></line><line style="opacity:0.5;fill:none;stroke:#879CB5;stroke-linecap:round;stroke-linejoin:round;" x1="316.831" y1="312.802" x2="322.378" y2="313.424"></line><line style="opacity:0.5;fill:none;stroke:#879CB5;stroke-linecap:round;stroke-linejoin:round;" x1="316.099" y1="319.327" x2="321.646" y2="319.949"></line><line style="opacity:0.5;fill:none;stroke:#879CB5;stroke-linecap:round;stroke-linejoin:round;" x1="315.367" y1="325.854" x2="320.915" y2="326.475"></line><line style="opacity:0.5;fill:none;stroke:#879CB5;stroke-linecap:round;stroke-linejoin:round;" x1="314.637" y1="332.379" x2="320.184" y2="333"></line><line style="opacity:0.5;fill:none;stroke:#879CB5;stroke-linecap:round;stroke-linejoin:round;" x1="313.905" y1="338.905" x2="319.452" y2="339.526"></line><line style="opacity:0.5;fill:none;stroke:#879CB5;stroke-linecap:round;stroke-linejoin:round;" x1="313.174" y1="345.432" x2="318.721" y2="346.053"></line><line style="opacity:0.5;fill:none;stroke:#879CB5;stroke-linecap:round;stroke-linejoin:round;" x1="312.442" y1="351.956" x2="317.99" y2="352.578"></line><line style="opacity:0.5;fill:none;stroke:#879CB5;stroke-linecap:round;stroke-linejoin:round;" x1="311.711" y1="358.481" x2="317.259" y2="359.104"></line><line style="opacity:0.5;fill:none;stroke:#879CB5;stroke-linecap:round;stroke-linejoin:round;" x1="310.979" y1="365.008" x2="316.526" y2="365.63"></line><line style="opacity:0.5;fill:none;stroke:#879CB5;stroke-linecap:round;stroke-linejoin:round;" x1="310.248" y1="371.533" x2="315.795" y2="372.155"></line><line style="opacity:0.5;fill:none;stroke:#879CB5;stroke-linecap:round;stroke-linejoin:round;" x1="309.517" y1="378.06" x2="315.064" y2="378.681"></line></g><rect x="333.723" y="252.967" transform="matrix(0.9938 0.1114 -0.1114 0.9938 37.7557 -35.7919)" style="opacity:0.5;fill:#FFFFFF;" width="11.164" height="134.292"></rect><g><path style="fill:#B2B2B2;stroke:#000000;stroke-linecap:round;stroke-linejoin:round;" d="M354.361,395.973c-0.528-4.298-13.841-9.149-30.582-11.025c-16.743-1.876-30.799-0.092-32.266,3.983l-0.064-0.008l-0.859,7.668l0.018,0.002c-0.144,4.378,13.419,9.434,30.593,11.358c17.176,1.924,31.519-0.002,32.35-4.304l0.016,0.001l0.859-7.668L354.361,395.973z"></path><ellipse transform="matrix(0.9938 0.1114 -0.1114 0.9938 46.5504 -33.386)" style="fill:#8C8C8C;" cx="322.097" cy="399.957" rx="29.5" ry="7.061"></ellipse></g><g><rect x="313.225" y="397.521" transform="matrix(0.9938 0.1113 -0.1113 0.9938 48.9687 -32.9624)" style="fill:#B2B2B2;stroke:#000000;stroke-linecap:round;stroke-linejoin:round;" width="12.806" height="48.922"></rect><rect x="317.867" y="396.703" transform="matrix(0.9938 0.1108 -0.1108 0.9938 48.7001 -32.8369)" style="fill:#B2B2B2;stroke:#000000;stroke-linecap:round;stroke-linejoin:round;" width="3.612" height="49.741"></rect></g><path style="fill:#B2B2B2;stroke:#000000;stroke-linecap:round;stroke-linejoin:round;" d="M341.523,438.682l-0.049-0.006c-0.394-3.204-10.316-6.82-22.797-8.219c-12.479-1.398-22.957-0.068-24.049,2.97l-0.05-0.006c0,0-0.739,6.6-0.791,7.062c-0.368,3.291,9.841,7.138,22.804,8.591c12.964,1.453,23.771-0.037,24.14-3.329C340.784,445.281,341.523,438.682,341.523,438.682z"></path><ellipse transform="matrix(0.9938 0.1114 -0.1114 0.9938 51.3335 -32.5822)" style="fill:#8C8C8C;" cx="317.259" cy="443.114" rx="21.497" ry="5.047"></ellipse></g></g></svg>