<svg xmlns="http://www.w3.org/2000/svg" width="500" height="500" version="1.1"><g id="x081"><g><path style="fill:#6E6E6E;stroke:#000000;stroke-linecap:round;stroke-linejoin:round;" d="M286.625,442.294c0,0,1.046,3.024,4.479,2.177c4.166-7.537,67.997-251.934,67.997-251.934l-12.146-6.438L286.625,442.294z"></path><path style="fill:#505050;" d="M289.485,441.545l52.754-202.676l3.235,0.627C345.475,239.496,292.033,439.505,289.485,441.545z"></path></g><path style="fill:#6E6E6E;stroke:#000000;stroke-linecap:round;stroke-linejoin:round;" d="M333.516,225.433c0,0-0.817,7.205,6.663,9.981c10.035,3.726,14.29-4.142,14.29-4.142l5.854-20.703l-20.975-11.87L333.516,225.433z"></path><path style="fill:#505050;" d="M342.606,233.953c0,0,7.709,1.146,9.993-3.938c1.297-4.656,3.662-12.699,3.662-12.699s-5.792,1.3-9.625-0.978C347.059,218.573,346.11,228.537,342.606,233.953z"></path><path style="fill:#505050;stroke:#000000;stroke-linecap:round;stroke-linejoin:round;" d="M336.443,198.43c0.07,0.804,1.672,12.211,10.887,15.663c9.215,3.451,17.238-2.11,17.238-2.11L336.443,198.43z"></path><path style="fill:#B2B2B2;stroke:#000000;stroke-linecap:round;stroke-linejoin:round;" d="M327.56,177.909c3.477,3.2,58.332,39.426,58.332,39.426l4.358,9.669l-10.316,0.521l-59.554-40.021l-8.825-10.833L327.56,177.909z"></path><polyline style="fill:#DCDCDC;" points="387.189,225.524 384.232,218.968 361.412,203.549 326.692,180.369 316.649,178.519 "></polyline><path style="fill:#B2B2B2;stroke:#000000;stroke-linecap:round;stroke-linejoin:round;" d="M340.133,194.338c0.875,1.18,7.344,8.854,7.344,8.854l13.936,0.357l27.963-78.049l-8.739-29.904l-26.55,17.313L340.133,194.338z"></path><polygon style="fill:#DCDCDC;" points="348.957,201.257 369.923,125.151 378.461,101.918 385.714,126.5 360.175,200.961 "></polygon><polygon style="fill:#FFFFFF;" points="370.898,124.611 385.714,126.5 378.461,101.918 "></polygon><polygon style="fill:#8C8C8C;" points="356.101,115.111 368.173,124.622 348.868,200.243 343.206,193.922 "></polygon></g></svg>