<svg xmlns="http://www.w3.org/2000/svg" width="500" height="500" version="1.1"><g id="x082"><g><g><g><path style="fill:#B2B2B2;stroke:#000000;stroke-linecap:round;stroke-linejoin:round;" d="M336.283,184.226c0,0-1.8-7.001-7.809-5.018c-6.008,1.982-10.711,10.876-10.711,10.876s-2.104-25.02,7.206-36.665c9.311-11.645,19.306-35.483,16.7-54.948c-2.605-19.466-16.514-22.005-16.514-22.005s32.232-44.415,73.995-28.579c-24.918,46.931-16.771,57.114-20.506,78.16c-2.828,15.939-14.118,45.628-19.857,51.765C349.935,181.328,336.283,184.226,336.283,184.226z"></path><path style="fill:#8C8C8C;" d="M355.225,146.244c0,0,5.771,7.468,7.807,8.316c2.037,0.849,6.28-1.019,6.28-1.019s-4.922,12.899-6.45,13.748c-3.903-0.169-6.449-0.169-6.449-0.169l-5.601-13.917L355.225,146.244z"></path><path style="fill:none;stroke:#000000;stroke-linecap:round;stroke-linejoin:round;" d="M396.976,48.314c0,0-29.645,3.734-46.391,28.853c9.505,14.257,13.805,31.229,5.657,57.706c-9.165,28.514-24.779,43.109-24.779,43.109"></path><g><path style="fill:#FFBF00;stroke:#000000;stroke-linecap:round;stroke-linejoin:round;" d="M356.513,191.511l-17.881-3.264c0,0,2.721-14.9,0.509-16.844c-2.212-1.944-8.128-0.458-8.128-0.458s10.083-18.689,22.098-22.654c0.853,9.394,4.594,19.828,8.251,19.47c3.658-0.359,5.873-4.061,5.873-4.061S362.524,183.882,356.513,191.511z"></path><path style="fill:#E0A100;" d="M334.971,168.477c0,0,5.092-0.679,6.11,2.263s0.791,8.826,0.791,8.826s5.206-8.147,3.622-12.899C343.909,161.915,334.971,168.477,334.971,168.477z"></path><path style="fill:#FFFFFF;" d="M356.922,186.581c0,0,5.431-14.257,6.109-16.746c-2.036,0.453-4.526,1.923-6.619-2.715c-0.849,5.544-2.771,17.764-7.524,17.877C353.301,186.468,356.922,186.581,356.922,186.581z"></path></g></g><g><rect x="317.009" y="186.724" transform="matrix(0.9837 0.1796 -0.1796 0.9837 59.9362 -52.9063)" style="fill:#6E6E6E;stroke:#000000;stroke-linecap:round;stroke-linejoin:round;" width="10.409" height="235.801"></rect><polygon style="fill:#505050;" points="335.876,244.399 304.646,416.385 301.479,417.29 332.707,243.494 "></polygon><g><path style="fill:#FFBF00;stroke:#000000;stroke-linecap:round;stroke-linejoin:round;" d="M307.855,436.814c0.078-3.359-0.311-7.964-2.657-10.616c-2.672-0.488-5.009-0.915-5.009-0.915s-2.338-0.427-5.009-0.915c-3.134,1.653-5.124,5.823-6.237,8.994c0,0-4.892,3.295-7.714,1.744c-0.093,2.399,3.956,7.624,5.444,7.032c1.037-0.41,2.94-2.836,4.002-4.272l3.753,0.686l-4.294,5.433l5.253,7.601l7.6-5.254l-2.098-6.6l3.753,0.685c0.485,1.719,1.41,4.66,2.234,5.411c1.183,1.079,6.817-2.379,7.578-4.655C311.267,441.625,307.855,436.814,307.855,436.814z"></path><path style="fill:#E0A100;" d="M300.801,437.431c0,0,1.119-4.615,0-6.789c3.167,0.452,4.752,0,4.752,0s1.131,6.11-0.227,7.468C304.195,437.431,300.801,437.431,300.801,437.431z"></path></g><g><path style="fill:#FFBF00;stroke:#000000;stroke-linecap:round;stroke-linejoin:round;" d="M296.261,415.077c0,0,0.939,2.414,4.946,3.146s6.71-0.845,6.71-0.845s1.59,5.466,1.013,6.741c-0.578,1.273-3.357,4.217-3.357,4.217s-2.385,0.773-5.891,0.133c-3.506-0.64-5.1-2.312-5.1-2.312s-2.501-4.252-2.091-5.557C292.902,419.295,296.261,415.077,296.261,415.077z"></path><path style="fill:#E0A100;" d="M304.874,426.795c0,0,2.715-2.942,2.488-3.621c-0.226-0.679-0.904-2.942-0.904-2.942s-3.169,1.133-5.885,0.227c2.264,2.263,1.358,5.432-0.452,5.657C301.705,427.247,304.874,426.795,304.874,426.795z"></path></g><g><path style="fill:#FFBF00;stroke:#000000;stroke-linecap:round;stroke-linejoin:round;" d="M342.257,240.192c0,0-3.401,1.622-8.243,0.738s-7.785-3.663-7.785-3.663l9.113-49.923l16.027,2.926L342.257,240.192z"></path><polygon style="fill:#FFFFFF;" points="335.649,199.367 337.799,199.933 330.897,237.498 328.861,236.479 "></polygon><path style="fill:#E0A100;" d="M334.404,238.629c0,0,3.735,0.679,5.998-0.113c1.47-7.92,7.015-37.225,7.015-37.225l-5.884-1.132L334.404,238.629z"></path><g><line style="fill:none;stroke:#000000;stroke-linecap:round;stroke-linejoin:round;" x1="332.231" y1="206.272" x2="346.924" y2="208.955"></line><line style="fill:none;stroke:#000000;stroke-linecap:round;stroke-linejoin:round;" x1="331.469" y1="210.447" x2="346.162" y2="213.129"></line></g></g><path style="fill:#FFBF00;stroke:#000000;stroke-linecap:round;stroke-linejoin:round;" d="M333.839,184.771c0,0-3.733,3.734-3.733,6.11c0,2.376,3.733,5.771,3.733,5.771l17.651,3.055c0,0,4.752-1.358,5.432-3.395c0.679-2.037-0.68-7.128-0.68-7.128L333.839,184.771z"></path><path style="fill:#FFFFFF;" d="M338.632,188.247c0,0-1.624,1.842-1.851,2.747s1.019,3.734,1.019,3.734l-2.603-0.339c0,0-3.056-2.149-2.716-3.621s2.036-3.168,2.036-3.168L338.632,188.247z"></path><path style="fill:#E0A100;" d="M344.928,195.746c0,0,2.603-1.018,2.829-2.376c0.226-1.358-1.697-3.507-1.697-3.507l8.146,1.245c0,0,0.904,3.621,0.339,4.526s-2.828,1.471-2.828,1.471L344.928,195.746z"></path></g></g><path style="fill:#DCDCDC;" d="M329.427,74.96c0,0,11.541-3.395,18.839-1.528c2.206-5.771,12.22-18.16,40.563-25.967C375.251,44.41,353.018,48.483,329.427,74.96z"></path><path style="fill:#FFFFFF;" d="M337.573,66.305c0,0,10.522-4.074,12.898,1.357c5.432-6.449,12.221-13.238,23.422-16.972C363.71,50.69,350.133,53.406,337.573,66.305z"></path><path style="fill:#DCDCDC;" d="M327.22,154.56c0,0,13.918-7.298,22.573-8.147c1.867-7.807,8.995-22.743,8.316-35.302c0,0-7.128,6.11-14.087,3.225c0.34,3.734-2.546,14.766-7.128,24.609C333.444,146.356,327.22,154.56,327.22,154.56z"></path></g></g></svg>