<svg xmlns="http://www.w3.org/2000/svg" width="500" height="500" version="1.1"><g id="x083"><g><path style="fill:#505050;stroke:#000000;stroke-linecap:round;stroke-linejoin:round;" d="M298.646,403.864l14.181,8.374c0,0-3.406,10.178-4.472,10.188c-1.067,0.013-13.188-5.506-13.205-6.999S298.646,403.864,298.646,403.864z"></path><path style="fill:#666666;stroke:#000000;stroke-linecap:round;stroke-linejoin:round;" d="M323.396,424.293c0,0-1.416,7.93-3.105,9.313c-1.69,1.384-27.652-7.578-30.248-9.546c-2.599-1.967-1.278-4.318-1.278-4.318l2.676-6.563c0,0,10.598,5.02,17.017,6.825C314.874,421.81,323.396,424.293,323.396,424.293z"></path><path style="fill:#6E6E6E;stroke:#000000;stroke-linecap:round;stroke-linejoin:round;" d="M328.729,356.546l-2.182-5.016l-18.438-3.218l-4.231,23.617l-12.832,43.295c0,0,0.402,1.58,3.428,4.31c3.024,2.729,21.896,8.167,24.454,8.037c2.559-0.136,3.736-2.117,3.94-4.371c0.206-2.254,6.653-42.976,6.653-42.976s3.335-1.667,4.164-2.137c1.918-0.101,8.087-10.995,7.621-13.858C336.969,360.929,328.729,356.546,328.729,356.546z M312.626,404.817c1.613,2.267-3.247,13.734-4.492,14.439c-1.244,0.705-8.14-2.463-9.159-3.586c-1.02-1.124-1.186-2.292-1.186-2.292c-0.029-2.669,2.704-11.784,4.263-12.612C303.613,399.938,311.014,402.548,312.626,404.817z M325.614,372.842c0.572,0.718-1.248,4.763-2.013,6.513s-1.014,13.515-2.383,13.907c-1.369,0.392-12.806-3.828-14.026-4.728c-1.223-0.897-2.16-4.591-2.16-4.591c0.249-1.4,3.212-14.374,4.808-16.594c1.595-2.22,4.243-2.677,5.747-2.54C317.088,364.945,325.046,372.122,325.614,372.842z"></path><path style="fill:#FFFFFF;" d="M318.561,357.661l5.845-4.789c0,0,2.418,3.401,1.524,4.73C325.037,358.931,319.737,358.723,318.561,357.661z"></path><path style="fill:#FFFFFF;" d="M305.695,388.504c0,0,1.546,2.005,2.521,2.275c0.975,0.27,10.932,3.764,10.932,3.764l-0.674,2.438c0,0-11.22-3.107-12.396-4.167C304.9,391.751,305.695,388.504,305.695,388.504z"></path><path style="fill:#505050;" d="M327.296,371.994c0,0-8.224-8.231-10.713-8.852c-2.042-0.214-5.599,1.252-5.599,1.252s3.056-4.967,7.307-5.398c4.252-0.435,10.007,6.31,10.345,7.908C329.061,368.912,327.296,371.994,327.296,371.994z"></path><line style="fill:none;stroke:#000000;stroke-linecap:round;stroke-linejoin:round;" x1="298.87" y1="407.309" x2="305.172" y2="382.579"></line><path style="fill:#505050;stroke:#000000;stroke-linecap:round;stroke-linejoin:round;" d="M312.048,410.187c0,0,1.889-2.767,5.33-2.304c1.147-2.624,1.048-4.542,1.048-4.542s-3.005-0.271-5.364,1.665C312.794,405.982,312.048,410.187,312.048,410.187z"></path><path style="fill:#6E6E6E;stroke:#000000;stroke-linecap:round;stroke-linejoin:round;" d="M297.802,401.198c0,0-1.516,1.681-2.179,1.288c-0.66-0.394-1.478-1.74-1.478-1.74l6.831-31.229c0,0,2.986-2.185,4.051-2.238c0.029,2.667,0.239,6.719,0.239,6.719L297.802,401.198z"></path><path style="fill:#666666;stroke:#000000;stroke-linecap:round;stroke-linejoin:round;" d="M292.686,401.463c0,0-2.981-1.877-3.024-4.759c-0.039-2.881,4.837-22.259,6.222-24.468c1.381-2.208,5.33-4.337,5.79-3.717c0.458,0.617-0.006,6.09-0.006,6.09l-7.094,26.115C294.573,400.725,293.36,402.068,292.686,401.463z"></path><g><path style="fill:#666666;stroke:#000000;stroke-linecap:round;stroke-linejoin:round;" d="M322.968,342.206c0,0,5.515,3.349,6.995,3.058c-1.526,1.468-5.967,0.306-7.401-0.578C321.126,343.797,322.968,342.206,322.968,342.206z"></path><path style="fill:#666666;stroke:#000000;stroke-linecap:round;stroke-linejoin:round;" d="M322.876,334.197c0,0,1.681,1.517,2.018,1.818c0.335,0.305,4.249,1.597,5.302,3.359c1.052,1.764,0.416,8.098-0.718,8.907c-1.134,0.805-6.661-0.726-8.15-2.683c-0.574,1.314-1.844,3.623-1.844,3.623s9.575,3.353,11.73,1.641c2.157-1.716,3.512-10.653,1.675-13.124c-1.839-2.468-9.751-6.761-9.751-6.761L322.876,334.197z"></path></g><g><path style="fill:#666666;stroke:#000000;stroke-linecap:round;stroke-linejoin:round;" d="M298.63,352.97c0,0,2.288,9.177,9.78,9.431c1.891-4.797,6.586-13.159,6.586-13.159l5.172,0.801c0,0,2.135-4.17,2.088-5.022c-0.041-0.852,4.862-23.863,4.862-23.863s-4.089-4.704-3.941-5.993c0.146-1.29,8.423-29.391,8.423-29.391l-16.259-4.503L298.63,352.97z"></path><path style="fill:#505050;" d="M307.475,360.847l5.398-13.42l6.444,0.63c0,0,7.223-21.527,5.8-27.385c-1.882-2.308-3.428-4.312-3.428-4.312l5.428-25.282l1.127,0.103l1.386-4.236l-8.46-2.451l-18.84,72.932C302.33,357.425,304.294,361.331,307.475,360.847z"></path><path style="opacity:0.5;fill:#FFFFFF;" d="M305.307,359.195c0,0-1.969-0.86-2.218-2.609c-0.251-1.75,5.9-31.255,7.834-31.035C312.857,325.771,306.202,357.868,305.307,359.195z"></path><path style="fill:none;stroke:#000000;stroke-linecap:round;stroke-linejoin:round;" d="M317.476,349.648c0,0,0.678-15.85,0.107-16.568c-0.572-0.719-3.201-6.139-3.201-6.139l9.929-43.677"></path></g><g><path style="fill:#666666;stroke:#000000;stroke-linecap:round;stroke-linejoin:round;" d="M326.238,324.833l5.439,1.857l3.268-2.947l16.664,4.057l2.908-3.674c0,0,1.133-21.535,0.46-22.143c-0.672-0.606-19.873-2.074-26.987-9.507c-1.483,4.35-5.017,22.91-4.882,23.438c0.134,0.524,3.226,4.533,3.226,4.533L326.238,324.833z"></path><path style="fill:#505050;" d="M327.85,299.056l1.232-4.07c0,0,3.327,2.394,8.862,4.028c5.533,1.641,14.464,3.904,14.464,3.904l-2.123,2.353C350.285,305.271,335.903,302.968,327.85,299.056z"></path><path style="fill:none;stroke:#000000;stroke-linecap:round;stroke-linejoin:round;" d="M324.646,316.689c0,0,22.591,7.169,25.058,7.362"></path><path style="fill:none;stroke:#000000;stroke-linecap:round;stroke-linejoin:round;" d="M349.646,306.319c-10.217-1.29-22.65-6.206-22.65-6.206"></path><line style="fill:none;stroke:#000000;stroke-linecap:round;stroke-linejoin:round;" x1="336.375" y1="318.328" x2="337.948" y2="305.319"></line><polyline style="fill:none;stroke:#000000;stroke-linecap:round;stroke-linejoin:round;" points="351.363,327.173 351.732,305.356 353.946,302.678 "></polyline></g><path style="fill:#6E6E6E;stroke:#000000;stroke-linecap:round;stroke-linejoin:round;" d="M313.793,275.098c0,0,0.533,4.141,1.392,5.218c0.854,1.08,11.131,4.555,13.689,4.423c2.559-0.133,4.156-0.214,4.865-2.014c0.708-1.799,16.711-83.08,16.711-83.08l-16.903-4.577C333.547,195.068,316.018,256.071,313.793,275.098z"></path><path style="opacity:0.5;fill:#FFFFFF;" d="M320.449,279.883c0,0-2.942-1.129-3.781-1.887c-0.843-0.76-1.024-5.506,0.635-12.532c3.024-12.82,15.467-66.831,17.282-65.803C336.402,200.689,321.526,279.026,320.449,279.883z"></path><path style="fill:#505050;" d="M332.596,282.304c1.704-7.3,15.445-79.649,15.445-79.649s-5.114,0.263-6.778-0.934c-3.224,8.982-19.148,79.361-19.148,79.361S330.928,284.152,332.596,282.304z"></path><path style="fill:#666666;stroke:#000000;stroke-linecap:round;stroke-linejoin:round;" d="M333.253,195.562c0,0,1.461,1.931,2.773,2.501c1.312,0.575,10.116,3.487,11.848,2.917c1.734-0.572,2.646-1.58,2.646-1.58l0.38-3.465l-16.634-4.031L333.253,195.562z"></path><path style="fill:#666666;stroke:#000000;stroke-linecap:round;stroke-linejoin:round;" d="M344.71,191.391c-3.472-1.095-7.755-1.18-10.048,0.413c0,0,1.268,2.82,8.406,4.536c6.322,1.519,6.444,0.63,7.53-0.067C351.684,195.575,350.111,193.093,344.71,191.391z"></path><path style="fill:#666666;stroke:#000000;stroke-linecap:round;stroke-linejoin:round;" d="M336.571,191.545c0,0,0.855,2.601,3.935,1.721c0.911-1.008,2.079-7.88,2.079-7.88l-4.064-1.074L336.571,191.545z"></path><path style="fill:#666666;stroke:#000000;stroke-linecap:round;stroke-linejoin:round;" d="M337.932,183.783c0,0,1.087,2.347,2.287,2.365c1.204,0.017,2.769-0.704,2.769-0.704L346.8,167.7c0,0-0.871-2.921-2.939-2.653c-2.071,0.265-2.484,1.57-2.484,1.57L337.932,183.783z"></path><path style="fill:#666666;stroke:#000000;stroke-linecap:round;stroke-linejoin:round;" d="M342.93,192.101l23.249-97.762l5.339,2.53l-22.665,96.607C348.853,193.476,346.536,195.2,342.93,192.101z"></path><polygon style="fill:#666666;stroke:#000000;stroke-linecap:round;stroke-linejoin:round;" points="371.336,93.351 376.156,95.108 375.149,98.925 370.441,97.725 "></polygon><g><path style="fill:#666666;stroke:#000000;stroke-linecap:round;stroke-linejoin:round;" d="M374.139,82.469c0,0,1.644-0.805,1.932-1.462c0.287-0.655,5.742-28.503,5.742-28.503l0.728-3.002c0,0-5.693-1.629-6.007-1.454c-0.311,0.178-0.414,2.826-0.414,2.826l-1.196,1.665l-5.628,24.491c0,0-1.552,2.564-1.283,3.112c0.268,0.547,1.311,2.095,1.311,2.095L374.139,82.469z"></path><path d="M377.321,52.416c0,0,0.834,5.326-1.464,13.616c-3.041,10.988-4.487,12.414-4.487,12.414S373.632,63.263,377.321,52.416z"></path></g><path style="fill:#666666;stroke:#000000;stroke-linecap:round;stroke-linejoin:round;" d="M364.965,95.684c0,0,1.529,3.208,5.477,2.042c1.65-3.691,4.635-15.785,4.635-15.785l-6.468-1.109L364.965,95.684z"></path><path style="fill:#666666;stroke:#000000;stroke-linecap:round;stroke-linejoin:round;" d="M365.319,96.307l-3.985-2.68c-0.875,0.125-3.295-1.753-3.295-1.753s-5.434-1.242-5.771-1.546c-0.335-0.303,1.481-7.048,1.481-7.048s12.389,2.487,13.802,3.457C367.557,89.941,365.319,96.307,365.319,96.307z"></path><path d="M329.257,252.546c0.21,0.187,0.252,0.987,1.141,1.103c0.887,0.114,1.195-0.902,1.195-0.902l1.326-6.121c0,0-0.251-0.988-1.092-0.984c-0.841,0.003-1.089,0.617-1.089,0.617L329.257,252.546z"></path><path d="M326.825,242.654c0.209,0.188,0.252,0.987,1.139,1.102c0.886,0.116,1.195-0.903,1.195-0.903l1.328-6.118c0,0-0.252-0.987-1.093-0.984c-0.843,0.003-1.091,0.617-1.091,0.617L326.825,242.654z"></path><path d="M333.251,235.952c0.21,0.188,0.249,0.987,1.138,1.102c0.888,0.115,1.198-0.9,1.198-0.9l1.324-6.12c0,0-0.25-0.989-1.092-0.986c-0.841,0.004-1.091,0.618-1.091,0.618L333.251,235.952z"></path><path d="M330.868,226.258c0.21,0.189,0.251,0.986,1.139,1.104c0.887,0.114,1.196-0.903,1.196-0.903l1.325-6.118c0,0-0.252-0.99-1.092-0.986c-0.842,0.002-1.089,0.617-1.089,0.617L330.868,226.258z"></path><path d="M337.584,218.981c0.21,0.188,0.251,0.987,1.14,1.102c0.887,0.114,1.195-0.903,1.195-0.903l1.328-6.119c0,0-0.253-0.987-1.095-0.984c-0.841,0.002-1.089,0.619-1.089,0.619L337.584,218.981z"></path><path d="M335.067,209.012c0.209,0.189,0.253,0.989,1.139,1.104c0.889,0.115,1.196-0.902,1.196-0.902l1.326-6.12c0,0-0.25-0.989-1.093-0.984c-0.842,0.002-1.091,0.617-1.091,0.617L335.067,209.012z"></path><path style="fill:#666666;stroke:#000000;stroke-linecap:round;stroke-linejoin:round;" d="M294.975,292.471"></path><g><path style="fill:#666666;stroke:#000000;stroke-linecap:round;stroke-linejoin:round;" d="M297.548,335.128l0.367,1.958c0,0,2.364,2.335,4.037,1.607c2.694-6.816,3.267-17.477,3.267-17.477l-1.588-1.735c0,0,1.012-5.287,1.511-5.954c0.5-0.667,2.023,0.912,2.023,0.912l2.446-9.583l-3.521,2.212l-3.184-0.638c0,0-7.895,25.089-7.827,25.352C295.145,332.046,297.548,335.128,297.548,335.128z"></path><g><path style="fill:#666666;stroke:#000000;stroke-linecap:round;stroke-linejoin:round;" d="M278.052,367.332c0,0-2.176,0.271-3.423,3.007c-1.247,2.736,2.403,6.234,8.225,7.218c5.819,0.982,7.618-2.479,7.734-4.405c0.112-1.93-5.072-5.082-6.473-5.331C282.711,367.572,278.052,367.332,278.052,367.332z"></path><path style="fill:#666666;stroke:#000000;stroke-linecap:round;stroke-linejoin:round;" d="M277.826,367.13c0.275,1.161,2.105,3.682,5.045,4.546c4.014,1.184,6.071-3.463,6.071-3.463s3.753-15.312,3.85-15.532c0.093-0.217-0.654-3.331-0.654-3.331l-8.5-2.178l-1.937,1.808C281.701,348.979,277.555,365.969,277.826,367.13z"></path><path style="fill:#505050;" d="M282.582,369.182c0,0,2.016,1.819,4.258-1.342c1.806-5.381,4.374-14.648,4.374-14.648s-3.18,0.484-4.979-0.224C284.764,358.653,282.582,369.182,282.582,369.182z"></path><path style="fill:#666666;stroke:#000000;stroke-linecap:round;stroke-linejoin:round;" d="M283.984,348.703c0,0,0.623,1.783,2.8,2.525c2.689,0.917,4.152-0.321,4.152-0.321l2.549-13.754l-5.881-1.14L283.984,348.703z"></path><path style="fill:#666666;stroke:#000000;stroke-linecap:round;stroke-linejoin:round;" d="M285.309,332.927c0,0,0.29,1.48,0.687,1.942c0.396,0.459,2,2.514,5.073,3.053c3.071,0.533,5.25-1.77,5.807-2.386c0.554-0.615,6.069-15.966,6.069-15.966l-12.658-6.132c0,0-6.271,6.843-4.909,11.525c1.122,1.01,1.727,1.354,1.727,1.354L285.309,332.927z"></path><g><path style="fill:#666666;stroke:#000000;stroke-linecap:round;stroke-linejoin:round;" d="M290.24,314.615c0,0,0.641,3.12,3.579,4.144c2.938,1.021,5.192,0.214,5.851-0.515c0.657-0.728,6.871-26.317,6.854-26.639c-0.008-0.158-0.092-2.826-4.23-4.323c-4.136-1.496-5.698,2.377-5.698,2.377L290.24,314.615z"></path><path style="fill:#505050;" d="M293.491,316.534c0,0,2.674,2.104,4.996,0.541c1.925-6.188,6.756-24.388,6.756-24.388l-4.256-1.704L293.491,316.534z"></path><ellipse transform="matrix(0.3902 -0.9207 0.9207 0.3902 -83.6571 455.1451)" cx="301.778" cy="290.729" rx="2.074" ry="3.358"></ellipse></g><g><path style="fill:#DCDCDC;stroke:#000000;stroke-linecap:round;stroke-linejoin:round;" d="M293.054,321.352c3.683,1.53,5.579,5.393,4.233,8.626c-1.343,3.229-5.416,4.61-9.1,3.079c-3.679-1.532-5.575-5.393-4.233-8.623C285.301,321.201,289.372,319.82,293.054,321.352z"></path><path style="fill:none;stroke:#000000;stroke-linecap:round;stroke-linejoin:round;" d="M289.131,324.747c1.061,0.957,1.163,2.576,0.224,3.616c-0.938,1.038-2.558,1.104-3.619,0.146c-1.065-0.958-1.163-2.576-0.227-3.616C286.446,323.852,288.067,323.787,289.131,324.747z"></path><ellipse transform="matrix(0.6699 -0.7424 0.7424 0.6699 -146.9438 325.7532)" style="fill:none;stroke:#000000;stroke-linecap:round;stroke-linejoin:round;" cx="292.895" cy="328.141" rx="2.533" ry="2.591"></ellipse></g></g></g><path style="fill:none;stroke:#000000;stroke-linecap:round;stroke-linejoin:round;" d="M311.485,411.714c0,0,2.324-2.579,3.693-2.97c1.37-0.389,2.982-0.155,2.982-0.155l3.981-18.153"></path><path style="fill:none;stroke:#000000;stroke-linecap:round;stroke-linejoin:round;" d="M336.375,318.328"></path></g></g></svg>