<svg xmlns="http://www.w3.org/2000/svg" width="500" height="500" version="1.1"><g id="x084"><g><path style="fill:#D29997;stroke:#000000;stroke-linecap:round;stroke-linejoin:round;" d="M301.644,371.825c0,0-6.563,2.715-7.92,14.934c-3.62,2.037-5.883,1.584-5.883,1.584s-0.905-16.518,11.087-21.496C301.87,369.109,301.644,371.825,301.644,371.825z"></path><g><path style="fill:#FFC296;stroke:#000000;stroke-linecap:round;stroke-linejoin:round;" d="M283.768,391.511c0,0-7.41-10.457-3.847-15.16c5.657-7.468,18.103,7.014,18.103,7.014l-11.314,10.862"></path><path style="fill:#FFEDD1;" d="M285.503,387.211c0,0-2.942-3.62-2.866-8.146c2.414,1.811,6.109,5.732,6.109,5.732L285.503,387.211z"></path></g><circle style="fill:#BF0000;stroke:#000000;stroke-linecap:round;stroke-linejoin:round;" cx="323.328" cy="377.218" r="6.901"></circle><path style="fill:#E89C75;stroke:#000000;stroke-linecap:round;stroke-linejoin:round;" d="M325.185,378.585c0,0,2.705-12.527-2.42-15.452c-8.137-4.644-13.889,13.563-13.889,13.563l14.671,5.541"></path><path style="fill:#FFC296;" d="M314.663,373.809c0,0,2.442-5.453,6.16-8.035c-0.852,4.316-1.43,9.344-1.43,9.344L314.663,373.809z"></path><path style="fill:#FFD69D;stroke:#000000;stroke-linecap:round;stroke-linejoin:round;" d="M304.585,369.788c0,0,10.258,1.811,13.2,10.861c3.167-0.679,5.43-2.488,5.43-2.488s-5.203-11.843-18.178-13.125C304.811,367.752,304.585,369.788,304.585,369.788z"></path><circle style="fill:#FFBF00;stroke:#000000;stroke-linecap:round;stroke-linejoin:round;" cx="321.405" cy="378.802" r="6.901"></circle><g><path style="fill:#FFD69D;stroke:#000000;stroke-linecap:round;stroke-linejoin:round;" d="M288.46,362.382c0,0-1.39-2.732-1.383-3.336c0.009-0.603,3.575-2.293,4.023-1.985c0.448,0.307,1.773,2.963,1.317,3.184C291.963,360.466,288.835,362.613,288.46,362.382z"></path><path style="fill:#006B33;stroke:#000000;stroke-linecap:round;stroke-linejoin:round;" d="M296.938,390.974c0,0-5.62-10.28-5.479-13.77c0.141-3.489,1.716-5.183,1.716-5.183l-3.584-8.182c0,0-0.813,0.803-1.116,0.317c-0.301-0.484-0.463-1.403-0.463-1.403s5.021-2.716,5.433-2.397c0.413,0.318,0.673,1.158,0.673,1.158l-0.935,1.059l3.754,7.814c0,0,4.56-0.542,6.707,4.116c2.148,4.658,4.395,12.295,4.395,12.295L296.938,390.974z"></path><path style="fill:#00A33D;" d="M292.086,362.729l4.033,9.178c0,0,3.929-0.403,5.331,2.028c1.401,2.431,3.146,7.809,3.146,7.809l-2.651,0.946c0,0-2.925-7.503-4.8-8.356c-1.875-0.853-2.544-1.616-2.544-1.616l-3.576-9.549L292.086,362.729z"></path><path style="fill:#FFFFFF;" d="M291.024,363.169c0,0,3.285,8.715,3.661,8.796c0.376,0.08-2.447-9.31-2.6-9.235S291.024,363.169,291.024,363.169z"></path></g><g><path style="fill:#BF0000;stroke:#000000;stroke-linecap:round;stroke-linejoin:round;" d="M316.314,372.353c1.896,1.23,2.111,3.719,2.111,6.147c0,3.812-3.09,6.901-6.901,6.901s-6.901-3.09-6.901-6.901c0-2.368,0.595-4.603,2.413-5.846c1.108-0.757,3.045-1.056,4.488-1.056C312.906,371.599,315.233,371.652,316.314,372.353z"></path><path style="fill:#EB8F36;" d="M306.508,376.048c0,0,0.378-2.865,4.451-3.017c-0.227,1.434,0.452,2.263,0.98,2.791C310.129,375.897,306.508,376.048,306.508,376.048z"></path></g><path style="fill:#FFD69D;stroke:#000000;stroke-linecap:round;stroke-linejoin:round;" d="M281.808,394.372c0.593-2.633,7.343-8,22.249-12.969c17.197-5.732,25.302-3.08,26.575-2.401c1.954,5.095,3.144,17.487-2.438,29.856c-1.035,0.887-7.629,5.034-13.274,6.638c-5.879,1.669-15.038,1.38-15.991,1.206C290.18,412.629,283.59,403.288,281.808,394.372z"></path><path style="fill:none;stroke:#000000;stroke-linecap:round;stroke-linejoin:round;" d="M331.059,396.489c0,0-2.866,1.81-5.279,1.055"></path><path style="fill:none;stroke:#000000;stroke-linecap:round;stroke-linejoin:round;" d="M330.455,402.976c0,0-2.866,1.811-5.279,1.056"></path><path style="fill:#D29997;" d="M292.744,388.191c0,0-0.302,3.621,1.508,4.979c0.15,2.715,0.453,4.073,1.509,4.525c-0.15,1.509,0.302,3.62,1.659,4.827c0.453,2.414,0,1.961,1.508,4.375c-0.15,1.961,0.001,2.715,1.208,3.62c-0.151,0.905,3.017,4.525,3.921,4.828c0.906,0.904-5.129,0.301-5.129,0.301s-6.033-2.715-10.559-9.654c-3.932-6.028-5.129-11.615-5.129-11.615S287.464,390.153,292.744,388.191z"></path><ellipse transform="matrix(0.9709 -0.2394 0.2394 0.9709 -89.5155 87.0515)" style="fill:#D29997;" cx="313.624" cy="412.051" rx="12.82" ry="2.681"></ellipse><path style="fill:#FFFFFF;stroke:#000000;stroke-linecap:round;stroke-linejoin:round;" d="M280.557,393.047c-0.659,1.081-0.157,4.915,1.581,7.367c0.675,2.401,1.296,6.212,1.296,6.212s2.376-4.161,2.883-5.231c0.708,1.108,4.353,1.227,5.395,1.021c1.665-1.671,2.519-3.928,2.519-3.928s3.52,0.385,5.625,0.229c2.694-2.007,3.283-3.856,3.283-3.856s4.341,1.099,5.984,0.848c2.474-2.763,2.97-3.961,2.97-3.961s4.1,1.761,5.916,1.757c2.532-2.124,4.323-4.063,4.323-4.063s2.306,2.022,3.869,2.552c2.417-1.727,3.966-3.002,3.966-3.002s4.562,1.855,5.488,2.045c-0.848-2.646-2.828-4.436-2.828-4.436s-1.295-9.253-2.521-9.421c-1.227-0.167-11.877-3.068-27.842,1.989C287.313,383.968,281.215,391.966,280.557,393.047z"></path><path style="fill:#D2C1C1;" d="M322.008,377.935c0,0,1.367,2.832,1.902,4.567c1.322,0.297,1.719,0.297,2.906,0.58c-1.074,0.735-1.641,0.905-2.094,1.584c0.695,2.134,1.51,5.788,1.51,5.788s3.62-2.413,3.922-2.715c0.904,0.452,3.167,1.357,3.167,1.357l-1.96-2.563c0,0-0.066-0.858-0.204-2.045c-0.063-0.551-1.587-0.711-1.683-1.35c-0.103-0.688,1.221-1.859,1.081-2.523c-0.297-1.408-0.681-2.612-1.156-2.983C325.629,377.481,322.008,377.935,322.008,377.935z"></path><path style="fill:#D2C1C1;" d="M283.692,403.88l-0.151-3.922c0,0-2.262-3.781-1.733-5.586c1.885-1.655,5.506-4.973,7.768-5.124l-0.452,3.62l-3.017,1.961l3.317-1.056c0,0.604,1.208,6.486,1.208,7.24c-1.358,0.302-4.525-0.754-4.525-0.754C284.898,401.467,283.692,403.88,283.692,403.88z"></path><path style="fill:none;stroke:#000000;stroke-linecap:round;stroke-linejoin:round;" d="M289.273,407.953c0,0,2.715,0,4.224-1.056"></path><path style="fill:none;stroke:#000000;stroke-linecap:round;stroke-linejoin:round;" d="M293.195,412.63c0,0,2.715,0,4.224-1.056"></path></g></g></svg>