<svg xmlns="http://www.w3.org/2000/svg" width="500" height="500" version="1.1"><g id="x085"><g><path style="fill:#6E6E6E;stroke:#000000;stroke-linecap:round;stroke-linejoin:round;" d="M321.347,377.55c-0.955,0.135-1.729-0.677-1.813,2.81c16.688,11.506,34.773,24.155,36.359,24.194c1.584,0.039,1.286-0.762,0.851-2.358C356.306,400.6,321.347,377.55,321.347,377.55z"></path><g><path style="fill:#6E6E6E;stroke:#000000;stroke-linecap:round;stroke-linejoin:round;" d="M338.667,389.07c0,0-3.319-0.397-4.784,1.153c-1.427-0.035-1.427-0.035-1.427-0.035l-15.598-10.687c0,0,0.727-3.788,3.733-3.557c5.149,3.455,16.846,11.51,16.846,11.51L338.667,389.07z"></path><path style="fill:#505050;" d="M321.171,379.358l13.084,8.924l-1.063,0.733l-12.085-8.241C321.107,380.774,320.891,380.091,321.171,379.358z"></path></g><path style="fill:#6E6E6E;stroke:#000000;stroke-linecap:round;stroke-linejoin:round;" d="M322.637,376.629c0,0-1.747,0.116-2.578,1.683c-0.83,1.565-0.238,3.324-0.238,3.324s-2.343-1.484-2.962-2.134c-0.62-0.649-10.908-7.876-11.376-8.205s-3.645-0.089-3.932-1.363c-0.286-1.276,2.523-5.965,3.938-5.455s2.941,2.925,2.941,2.925l12.641,8.395L322.637,376.629z"></path><path style="fill:#505050;" d="M302.808,369.487c0.272,0.226,2.583,0.152,3.34,0.683c0.757,0.531,12.303,8.925,12.303,8.925l0.337-1.191l-12.553-8.9c0,0-1.288-2.116-2.077-1.938C303.289,368.232,302.808,369.487,302.808,369.487z"></path></g></g></svg>