<svg xmlns="http://www.w3.org/2000/svg" width="500" height="500" version="1.1"><g id="x086"><g><g><path style="fill:#6E6E6E;stroke:#000000;stroke-linecap:round;stroke-linejoin:round;" d="M320.886,375.52c-0.945,0.192-1.766-0.57-1.639,2.915c17.356,10.469,36.18,21.993,37.765,21.936c1.584-0.058,1.238-0.839,0.705-2.405S320.886,375.52,320.886,375.52z"></path><g><path style="fill:#6E6E6E;stroke:#000000;stroke-linecap:round;stroke-linejoin:round;" d="M338.875,385.964c0,0-3.337-0.193-4.705,1.442c-1.426,0.052-1.426,0.052-1.426,0.052l-16.22-9.716c0,0,0.494-3.825,3.511-3.777c5.35,3.135,17.515,10.462,17.515,10.462L338.875,385.964z"></path><path style="fill:#505050;" d="M320.82,377.336l13.604,8.11l-1.016,0.797l-12.564-7.49C320.844,378.753,320.586,378.084,320.82,377.336z"></path></g><path style="fill:#6E6E6E;stroke:#000000;stroke-linecap:round;stroke-linejoin:round;" d="M322.117,374.522c0,0-1.736,0.222-2.471,1.836c-0.733,1.613-0.036,3.332-0.036,3.332s-2.428-1.339-3.086-1.948c-0.657-0.611-11.367-7.197-11.854-7.498c-0.487-0.3-3.644,0.134-4.008-1.122c-0.363-1.256,2.156-6.107,3.6-5.684c1.442,0.423,3.113,2.74,3.113,2.74l13.129,7.609L322.117,374.522z"></path><path style="fill:#505050;" d="M301.89,368.601c0.286,0.209,2.588-0.005,3.376,0.479c0.788,0.484,12.823,8.159,12.823,8.159l0.264-1.21l-13.071-8.12c0,0-1.415-2.033-2.191-1.808C302.294,367.319,301.89,368.601,301.89,368.601z"></path></g><path style="fill:#505050;stroke:#000000;stroke-linecap:round;stroke-linejoin:round;" d="M305.574,368.472c0,0-0.814,2.21,0.132,3.686c0.944,1.473,3.297,2.215,4.073,1.989c0.775-0.226,2.755-5.008,2.755-5.008s-1.891-2.562-3.234-2.784C307.735,366.097,305.574,368.472,305.574,368.472z"></path><path style="fill:#505050;stroke:#000000;stroke-linecap:round;stroke-linejoin:round;" d="M318.889,376.197c0,0-0.814,2.211,0.131,3.686c0.945,1.474,3.296,2.216,4.073,1.99c0.776-0.226,2.755-5.008,2.755-5.008s-1.89-2.562-3.235-2.784C321.048,373.822,318.889,376.197,318.889,376.197z"></path><path style="fill:#505050;stroke:#000000;stroke-linecap:round;stroke-linejoin:round;" d="M332.739,384.27c0,0-0.815,2.212,0.13,3.686c0.946,1.474,3.297,2.215,4.072,1.99c0.777-0.226,2.756-5.008,2.756-5.008s-1.89-2.563-3.235-2.783C334.898,381.896,332.739,384.27,332.739,384.27z"></path></g></g></svg>