<svg xmlns="http://www.w3.org/2000/svg" width="500" height="500" version="1.1"><g id="x087"><g><g><path style="fill:#8B5C29;stroke:#000000;stroke-linecap:round;stroke-linejoin:round;" d="M344.17,400.805l-39.623-36.372c-1.495,0.218-3.222,2.014-1.954,4.761l35.426,38.087L344.17,400.805z"></path><path style="fill:#5A3D1C;" d="M304.038,367.749c0.105,0.953,31.236,33.924,31.236,33.924l1.439-1.845l-32.465-33.065L304.038,367.749z"></path></g><g><g><path style="fill:#FFBF00;stroke:#000000;stroke-linecap:round;stroke-linejoin:round;" d="M335.568,407.577c0,0-0.298-4.138,2.008-6.481c2.309-2.341,6.342-2.146,6.342-2.146s2.833,5.301-1.006,8.294c-3.84,2.993-6.868,0.282-6.868,0.282"></path><path style="fill:#C79400;" d="M338.611,402.828c0,0-0.229,1.188,0.959,1.055c-0.408,0.648-1.3,2.752-1.3,2.752s-0.748-0.237-0.805-0.392C337.449,405.362,337.902,403.668,338.611,402.828z"></path><path style="fill:#FFBF00;stroke:#000000;stroke-linecap:round;stroke-linejoin:round;" d="M338.998,422.602c0,0-1.232-5.321-0.087-6.57c1.145-1.251,7.888,7.469,6.338,7.962C342.149,424.979,338.998,422.602,338.998,422.602z"></path><path style="fill:#C79400;" d="M340.72,421.486c-0.097-0.132,0.93-0.664,0.93-0.664l1.329,1.497C342.979,422.319,341.239,422.191,340.72,421.486z"></path><path style="fill:#FFBF00;stroke:#000000;stroke-linecap:round;stroke-linejoin:round;" d="M360.813,403.395c0,0-4.932-2.341-6.397-1.489c-1.467,0.85,5.607,9.302,6.422,7.893C362.462,406.982,360.813,403.395,360.813,403.395z"></path><path style="fill:#C79400;" d="M358.093,405.602l1.097-0.604c0,0,0.664,1.652,0.589,2.422C358.724,406.575,358.093,405.602,358.093,405.602z"></path><path style="fill:#FFBF00;stroke:#000000;stroke-linecap:round;stroke-linejoin:round;" d="M343.05,420.064l-3.468-6.676c0,0,0,0-0.193-3.187c-0.193-3.188,2.678-6.233,2.678-6.233s6.976-2.217,9.88-0.613c3.153,2.377,5.354,3.416,5.354,3.416L343.05,420.064z"></path><path style="fill:#C79400;" d="M342.585,407.2c0,0,1.181,2.316,2.324,2.872c-1.343,1.993-2.396,4.797-2.396,4.797l-1.062-1.968c0,0-0.263-3.1-0.231-3.544C341.252,408.912,342.585,407.2,342.585,407.2z"></path><g><path style="fill:#6E6E6E;stroke:#000000;stroke-linecap:round;stroke-linejoin:round;" d="M343.543,418.727c-0.123-2.554,2.273-6.991,3.208-8.699c0.933-1.708,7.802-3.431,10.162-2.409c2.358,1.021,7.095,7.557,7.008,8.208c-0.09,0.652-0.885,12.293-0.885,12.293l-11.923-1.889C351.113,426.23,343.665,421.28,343.543,418.727z"></path><path style="fill:#505050;" d="M348.339,411.696l8.024,8.337c0,0-4.682,2.646-5.13,4.019c-3.769-2.15-5.934-5.4-5.934-5.4S346.613,412.048,348.339,411.696z"></path><polygon style="opacity:0.5;fill:#FFFFFF;" points="351.36,424.118 356.363,420.033 361.362,426.057 "></polygon><polygon style="fill:#FFFFFF;" points="361.362,426.057 356.363,420.033 361.119,416.619 "></polygon></g></g><path style="fill:#FFBF00;stroke:#000000;stroke-linecap:round;stroke-linejoin:round;" d="M345.094,412.458c0,0-1.314-5.19,0.16-5.795c1.076-0.439,4.931,1.06,5.335,1.816c0.407,0.757,1.162,6.128,1.162,6.128S345.252,413.885,345.094,412.458z"></path><path style="fill:#FFFFFF;" d="M347.93,410.178c0,0,1.581,2.313,1.567,2.192c-0.013-0.118-0.33-2.249-0.467-2.755C348.528,409.79,347.93,410.178,347.93,410.178z"></path><path style="fill:#C79400;" d="M346.914,411.494c0,0,0.465-1.215,0.896-1.304c-0.471-0.629-1.346-1.656-1.346-1.656S346.297,410.279,346.914,411.494z"></path></g></g></g></svg>