<svg xmlns="http://www.w3.org/2000/svg" width="500" height="500" version="1.1"><g id="x088"><polygon style="fill:#6E6E6E;stroke:#000000;stroke-linecap:round;stroke-linejoin:round;" points="335.822,397.104 328.173,389.323 334.894,382.717 334.894,379.862 330.444,375.337 322.298,383.345 302.899,363.61 298.373,368.06 298.373,370.913 316.346,389.196 309.624,395.804 309.624,398.657 314.073,403.183 322.221,395.174 331.297,404.406 335.822,399.958 "></polygon><path style="fill:#505050;" d="M311.022,396.251v1.981l3.013,3.012l7.768-7.293c0,0,0.635-0.396,1.189,0.238c-0.158-1.188-0.793-2.536-0.793-2.536l-8.085,7.292L311.022,396.251z"></path><polygon style="fill:#505050;" points="299.768,368.667 299.768,370.411 317.443,388.482 317.443,386.897 "></polygon><polygon style="fill:#505050;" points="322.357,391.495 322.755,393.793 331.337,402.568 332.158,401.748 "></polygon></g></svg>