<svg xmlns="http://www.w3.org/2000/svg" width="500" height="500" version="1.1"><g id="x089"><g><path style="fill:#6E6E6E;stroke:#000000;stroke-linecap:round;stroke-linejoin:round;" d="M321.05,364.136c-0.962-3.979-8.767-12.831-12.861-10.917c-4.098,1.915-16.967,18.534-15.89,21.562c1.079,3.03,9.196,12.586,12.701,11.566C308.505,385.323,322.014,368.115,321.05,364.136z"></path><path style="fill:#505050;" d="M294.245,374.564c-1.079-3.029,10.603-17.757,14.7-19.67c1.054-0.494,2.593,0.541,3.134,1.188c0,0-4.323,1.729-10.16,8.648c-5.836,6.916-6.593,11.78-6.593,11.78C295.048,376.017,294.376,374.932,294.245,374.564z"></path><path style="fill:none;stroke:#000000;stroke-linecap:round;stroke-linejoin:round;" d="M316.997,365.756c-0.649-2.269-5.351-6.484-6.648-5.835c-1.296,0.648-11.672,14.428-11.186,15.887c0.486,1.46,3.729,5.675,5.513,5.188C306.458,380.51,317.646,368.026,316.997,365.756z"></path><g><g><g id="leftXMLID_1_"><g><path style="fill:#B2B2B2;" d="M421.03,461.46c-8.65,6.92-25.511,6.92-38.05,2.16c-4.521-1.71-76.521-87.33-77.82-89.061c-1.29-1.729,4.32-9.51,4.32-9.51S381.68,437.25,421.03,461.46z"></path></g></g><polygon style="fill:#FFFFFF;" points="364.823,429.039 353.581,428.606 341.477,413.906 350.556,411.313 "></polygon><path style="fill:#FFFFFF;" d="M417.998,461.462c0,0-6.052,9.079-34.586,0c-12.105-11.239-17.291-19.455-17.291-19.455l14.697,0.865L417.998,461.462z"></path><path style="fill:#666666;" d="M359.635,413.041l60.094,49.286c-1.73,0.433-23.347,1.298-34.587-9.079c-11.239-10.376-78.684-83.439-78.684-83.439l3.025-4.754L359.635,413.041z"></path><g><path style="fill:none;stroke:#000000;stroke-linecap:round;stroke-linejoin:round;" d="M309.48,365.05c0,0-5.61,7.78-4.32,9.51c1.3,1.73,73.3,87.351,77.82,89.061c12.539,4.76,29.399,4.76,38.05-2.16C381.68,437.25,309.48,365.05,309.48,365.05z"></path></g></g><path style="fill:#FFBF00;stroke:#000000;stroke-linecap:round;stroke-linejoin:round;" d="M320.726,375.159l-7.619,9.565c0,0-8.593-8.268-8.917-10.701c-0.324-2.431,2.863-8.322,5.294-8.969C311.917,364.406,320.726,375.159,320.726,375.159z"></path></g></g></g></svg>