<svg xmlns="http://www.w3.org/2000/svg" width="500" height="500" version="1.1"><g id="x009"><g><g><path style="fill:#DCDCDC;stroke:#000000;stroke-linecap:round;stroke-linejoin:round;" d="M343.979,330.403c1.23-1.292,6.944-9.956-2.908-19.352c-9.851-9.395-18.236-3.276-19.467-1.985c-1.231,1.291,2.778,7.113,8.957,13.007C336.74,327.965,342.747,331.695,343.979,330.403z"></path><path style="fill:#FFFFFF;" d="M333.157,315.166c0,0-6.361-5.83-8.841-6.256c2.271-1.771,8.997-3.267,13.622,1.351C331.468,308.608,333.157,315.166,333.157,315.166z"></path><ellipse transform="matrix(0.7237 0.6901 -0.6901 0.7237 312.8918 -140.6967)" style="fill:#B2B2B2;stroke:#000000;stroke-linecap:round;stroke-linejoin:round;" cx="332.153" cy="320.403" rx="15.459" ry="3.232"></ellipse><path d="M328.369,312.806l11.491,10.3C334.989,323.148,329.357,316.518,328.369,312.806z"></path></g><rect x="324.219" y="322.404" transform="matrix(0.7235 0.6904 -0.6904 0.7235 329.2631 -128.847)" style="fill:#DCDCDC;stroke:#000000;stroke-linecap:round;stroke-linejoin:round;" width="2.48" height="48.321"></rect><g><g><path style="fill:#E4BC96;stroke:#000000;stroke-linecap:round;stroke-linejoin:round;" d="M300.109,370.155c0,0,0.294,2.563,3.825,3.648c4.797-4.671,9.349-9.805,9.349-9.805l-4.064-3.876L300.109,370.155z"></path></g></g></g></g></svg>