<svg xmlns="http://www.w3.org/2000/svg" width="500" height="500" version="1.1"><g id="x090"><g><g><path style="fill:#8B5C29;stroke:#000000;stroke-linecap:round;stroke-linejoin:round;" d="M311.001,377.311c5.118-4.168,6.856-10.507,3.883-14.157c-0.283-0.349-0.6-0.659-0.943-0.934c-3.062-3.391-9.439-2.901-14.442,1.172c-5.118,4.167-6.857,10.506-3.884,14.156c0.283,0.349,0.6,0.659,0.944,0.934C299.62,381.873,305.999,381.385,311.001,377.311z"></path><path d="M312.594,362.223c0,0-6.577-2.822-12.495,4.082c-4.506,5.258-3.92,9.953-1.801,12.233c-2.311-0.604-6.467-8.685,0.979-14.264C307.859,357.843,312.594,362.223,312.594,362.223z"></path></g><path style="fill:#E8C799;stroke:#000000;stroke-linecap:round;stroke-linejoin:round;" d="M303.296,374.113l66.712,72.229l8.843-10.032l-68.734-67.222c0,0-3.072-1.307-5.114,0.46C302.961,371.314,303.296,374.113,303.296,374.113z"></path><path style="fill:#FFFFFF;" d="M362.553,422.983l13.412,13.002c0,0-4.146-0.076-4.989-1.008C370.132,434.047,362.553,422.983,362.553,422.983z"></path><path style="fill:#CAA97B;" d="M307.869,372.155c0,0-1.938,1.699-1.504,3.388c2.184,2.545,62.781,67.775,62.781,67.775l3.701-4.441L307.869,372.155z"></path><line style="fill:none;stroke:#000000;stroke-linecap:round;stroke-linejoin:round;" x1="306.94" y1="369.55" x2="375.725" y2="437.736"></line><line style="fill:none;stroke:#000000;stroke-linecap:round;stroke-linejoin:round;" x1="305.335" y1="372.432" x2="371.131" y2="443.392"></line><g><path style="fill:#F7F5F2;stroke:#000000;stroke-linecap:round;stroke-linejoin:round;" d="M381.965,436.312c0,0-5.176-1.476-8.944,2.395c-3.768,3.868-3.728,8.015-3.182,9.74c0.547,1.726,9.968,11.577,11.083,12.042c1.115,0.463,7.513-1.639,10.061-5.046s3.201-5.722,2.318-7.911C392.418,445.343,381.965,436.312,381.965,436.312z"></path><path style="fill:#DBD4D4;" d="M371.397,447.724c5.577,6.193,8.462,9.273,8.462,9.273s0.648-1.609,1.798-3.463c1.192-1.923,4.708-2.638,4.301-3.879c-0.802-2.438-8.688-8.247-8.656-9.241C377.335,439.421,371.915,440.123,371.397,447.724z"></path><path style="fill:#FFFFFF;" d="M383.714,440.247c0,0,8.077,7.153,8.188,7.824c0.111,0.67-0.859,5.883-3.467,7.464c-1.508-2.16-0.501-5.083-0.221-6.163C388.495,448.293,386.003,441.589,383.714,440.247z"></path></g><g><path style="fill:#F7F5F2;stroke:#000000;stroke-linecap:round;stroke-linejoin:round;" d="M363.996,422.111c-0.072-0.437-3.383-0.271-6.509,2.632c-3.629,3.372-1.987,7.735-1.987,7.735s-1.13-0.228-2.308-1.454c-1.177-1.227-3.684-3.426-3.897-4.439c-0.351-1.662-0.743-4.146,2.777-7.142c2.819-2.399,6.461-2.996,7.978-1.977c1.516,1.021,3.343,2.499,3.5,2.997C363.708,420.961,363.996,422.111,363.996,422.111z"></path><path style="fill:#DBD4D4;" d="M352.156,421.576l1.979,2.601c0,0-1.815,2.81-1.371,4.105c-2.809-3.184-1.979-2.602-1.979-2.602S350.75,422.72,352.156,421.576z"></path></g><path style="fill:#F7F5F2;stroke:#000000;stroke-linecap:round;stroke-linejoin:round;" d="M309.528,368.32c0,0-2.52-1.801-5.27,0.532c-2.973,2.52-2.007,5.192-2.007,5.192l2.648,2.354c0,0-1.005-1.9,1.622-4.978c1.843-2.158,5.183-1.052,5.183-1.052L309.528,368.32z"></path></g></g></svg>