<svg xmlns="http://www.w3.org/2000/svg" width="500" height="500" version="1.1"><g id="x091"><g><g><g><path style="fill:#505050;stroke:#000000;stroke-linecap:round;stroke-linejoin:round;" d="M307.834,371.5H305l0.167-8.5c0,0,1.834-3.166,2.667-6s0.157-13.347,0.157-13.347c8.509,7.68,2.343,30.347,2.343,30.347L307.834,371.5z"></path><path style="fill:#8C8C8C;stroke:#000000;stroke-linecap:round;stroke-linejoin:round;" d="M299.104,366.747c0,0,4.363-3.635,5.575-3.15s1.453,5.089,0.727,7.755c-0.727,2.667-4.847,5.09-4.847,5.09L299.104,366.747z"></path></g><g><g><path style="fill:#8C8C8C;stroke:#000000;stroke-linecap:round;stroke-linejoin:round;" d="M307.991,343.653c0,0,1.801-3.688,1.966-5.338c2.047,0.83,4.504,0.616,5.486-1.224c0.983-1.838,4.095-14.34,4.095-14.34s3.439-6.674,9.664-5.009c0.819,7.869-0.492,22.253-1.72,27.158c-1.229,4.907-11.957,24.907-12.038,25.259c-0.083,0.35-0.819,3.982-0.655,5.177c-1.639-0.333-4.668-1.219-4.668-1.219s2.042-19,1.31-21.376C310.611,350.087,307.991,343.653,307.991,343.653z"></path><path style="fill:#6E6E6E;" d="M319.488,347.091c0.177-0.533,4.089-14.756,4.8-15.111c0.711-0.356,1.777,0.533,1.777,0.533l-5.334,17.6l-1.243,4.978l-1.778-1.6L319.488,347.091z"></path><path style="fill:#DCDCDC;" d="M316.427,339.046c-1.966,2.375-5.528,1.458-5.528,1.458l-1.105,2.957c0,0,5.65,2.105,7.739-0.084c0.069-0.073,0.138-0.158,0.208-0.251l-1.19-4.409C316.507,338.831,316.466,338.941,316.427,339.046z"></path><path style="fill:#B2B2B2;" d="M321.577,322.771c-0.414,0.615-0.605,1.072-0.605,1.072s-2.907,10.767-4.422,14.874l1.19,4.409c1.994-2.683,3.633-13.275,4.583-14.938c0.078-0.139,0.188-0.267,0.31-0.391L321.577,322.771z"></path><path style="fill:#DCDCDC;" d="M327.139,319.62c-3.378-0.319-4.652,1.798-5.562,3.15l1.056,5.027c1.398-1.423,4.629-1.949,4.629-1.949S327.631,324.093,327.139,319.62z"></path></g></g></g><g><path style="fill:#505050;stroke:#000000;stroke-linecap:round;stroke-linejoin:round;" d="M295.954,367.574c0.226-0.09,1.85-3.718,2.362-3.82c0.513-0.104,3.655,2.187,3.852,2.744s0.22,5.085,0.23,5.326c0.011,0.243,2.422,0.219,2.253,0.308c-0.168,0.088-2.82,6.511-4.003,7.046c-2.092-0.557-3.505-2.678-3.77-3.476C296.616,374.905,295.954,367.574,295.954,367.574z"></path><path style="fill:#6E6E6E;" d="M298.727,365.272c0,0,0.705,9.672,1.802,12.456c-1.509-0.341-2.87-2.626-2.87-2.626l-0.708-7.086L298.727,365.272z"></path></g></g></g></svg>