<svg xmlns="http://www.w3.org/2000/svg" width="500" height="500" version="1.1"><g id="x092"><g><g><path style="fill:#505050;stroke:#000000;stroke-linecap:round;stroke-linejoin:round;" d="M303.276,351.241c0,0-4.853,6.354-6.004,14.229c-1.151,7.875,1.272,14.115,1.272,14.115s4.994,0.73,9.027,1.319c1.403-3.466,2.58-8.255,3.479-14.401c1.234-8.452,0.101-14.111,0.101-14.111L303.276,351.241z"></path><path style="fill:#666666;" d="M306.099,354.715c0,0-3.627,5.044-4.535,11.259c-0.908,6.216,0.912,11.126,0.912,11.126s1.629,0.238,4.029,0.589c0.937-2.76,1.774-6.553,2.483-11.404c0.976-6.67,0.453-11.082,0.453-11.082L306.099,354.715z"></path></g><path style="fill:#6E6E6E;stroke:#000000;stroke-linecap:round;stroke-linejoin:round;" d="M308.541,357.504l7.936-0.605l1.34,1.569l3.157-0.127l0.858-1.838l5.105-0.037l0.652,2.254c1.151,0.168,1.794-2.878,1.794-2.878l4.914-0.065c0.983,1.321,3.537,1.302,3.537,1.302l2.649-4.713l7.146-1.899c0,0,19.578,7.111,23.224,8.889c-2.58,2.667-21.077,23.404-36.344,32.551c-7.516-2.276-28.965-16.594-28.965-16.594S305.436,366.663,308.541,357.504z"></path><polygon style="fill:#505050;" points="326.205,359.988 320.152,368.537 314.371,367.006 318.93,360.468 321.883,360.215 323.043,358.153 325.635,358.019 "></polygon><path style="fill:#FFFFFF;" d="M335.107,375.354l22.864-19.128l9.757,3.656c0,0-25.763,24.879-33.364,29.944c-9.995-4.379-27.577-15.524-27.577-15.524l1.319-6.669L335.107,375.354z"></path><path style="fill:#DCDCDC;" d="M334.641,378.545l0.206,10.323c0,0,18.562-16.671,21.161-19.207c-3.424-2.387-4.76-4.983-4.76-4.983L334.641,378.545z"></path><circle cx="344.929" cy="355.432" r="1.387"></circle><circle cx="349.174" cy="356.675" r="1.386"></circle><circle cx="345.669" cy="359.83" r="1.386"></circle><g><line style="fill:none;stroke:#000000;stroke-linecap:round;stroke-linejoin:round;" x1="308.463" y1="372.795" x2="307.958" y2="376.253"></line><line style="fill:none;stroke:#000000;stroke-linecap:round;stroke-linejoin:round;" x1="310.203" y1="373.639" x2="309.698" y2="377.096"></line><line style="fill:none;stroke:#000000;stroke-linecap:round;stroke-linejoin:round;" x1="311.944" y1="374.481" x2="311.439" y2="377.939"></line></g><path style="fill:none;stroke:#000000;stroke-linecap:round;stroke-linejoin:round;" d="M307.138,367.107l27.532,8.931c0,0,16.625-13.068,22.251-20.682"></path></g></g></svg>