<svg xmlns="http://www.w3.org/2000/svg" width="500" height="500" version="1.1"><g id="x093"><g><g><g><g><path style="fill:#6E6E6E;stroke:#000000;" d="M301.447,370.769c0,0,62.095-48.994,79.735-60.016c4.14,2.93,3.629,8.182,3.629,8.182l-80.866,62.243L301.447,370.769z"></path><path style="fill:#505050;" d="M304.164,374.542l71.772-54.232c0,0,1.123,1.532,0.457,2.956c-3.747,2.069-71.732,55.189-71.732,55.189L304.164,374.542z"></path><polygon style="fill:#505050;" points="304.03,373.122 303.496,372.107 374.715,318.312 375.184,319.019 "></polygon></g><g><path style="fill:#FFBF00;stroke:#000000;stroke-linecap:round;stroke-linejoin:round;" d="M374.475,315.63c0,0,1.861,1.218,2.866,2.937c1.002,1.72,1.095,5.238,1.095,5.238l8.096-5.873c0,0-1.007-6.35-4.846-7.798C377.452,312.948,374.475,315.63,374.475,315.63z"></path><path style="fill:#D49C00;" d="M378.193,314.958c0,0,1.384,0.461,1.58,1.92c1.472-1.164,3.683-2.377,3.683-2.377s-0.49-1.827-1.688-2.434C380.193,313.254,378.193,314.958,378.193,314.958z"></path></g></g><g><path style="fill:#666666;stroke:#000000;stroke-linecap:round;stroke-linejoin:round;" d="M303.032,368.349c0,0,2.466,0.273,3.309,4.29c0.771,3.697,0.39,5.706,0.39,5.706s1.765,0.758,2.623,0.255c0.859-0.501,13.079-10.025,13.361-10.671c0.547-1.239,0.422-3.878-0.986-7.026c-1.51-3.381-3.769-4.196-3.769-4.196L303.032,368.349z"></path><path style="fill:none;stroke:#000000;stroke-linecap:round;stroke-linejoin:round;" d="M310.635,366.276c0,0,3.417,2.5,1.682,8.81"></path><path style="fill:none;stroke:#000000;stroke-linecap:round;stroke-linejoin:round;" d="M316.687,362.921c0,0,2.954,2.598,1.365,8.073"></path></g><g><path style="fill:#666666;stroke:#000000;stroke-linecap:round;stroke-linejoin:round;" d="M314.453,356.715c0,0,5.535-6.468,6.996-6.41c1.462,0.056,2.569,4.199,2.438,5.303c-0.131,1.102-7.88,5.062-7.88,5.062L314.453,356.715z"></path><path style="fill:#666666;stroke:#000000;stroke-linecap:round;stroke-linejoin:round;" d="M305.979,369.316c0.542,0.021,10.611-7.59,10.611-7.59s0.438-4.25-0.922-5.563c-1.362-1.313-12.834,8.524-12.834,8.524S303.058,369.202,305.979,369.316z"></path><path style="fill:#666666;stroke:#000000;stroke-linecap:round;stroke-linejoin:round;" d="M306.697,367.55l-5.303,4.109c0,0-2.599-4.354-2.729-4.971c-0.131-0.615,6.002-3.063,6.002-3.063S306.972,364.251,306.697,367.55z"></path></g></g><g><path style="fill:#FFBF00;stroke:#000000;stroke-linecap:round;stroke-linejoin:round;" d="M306.48,376.035c-0.579-4.831-2.554-6.729-3.286-7.28c-0.025-0.049-0.047-0.098-0.069-0.144c0.119-0.308,0.064-1.161-0.413-1.885c-0.524-0.797-1.221-1.231-1.515-1.167c-1.541-1.876-3.322-2.885-5.053-2.625c-1.139,0.174-2.119,0.886-2.909,1.986c-0.202-0.005-0.402,0.004-0.605,0.035c-1.654,0.251-2.985,1.619-3.865,3.699c-0.782,0.31-1.839,1.017-1.973,2.196c-0.084,0.747,0.369,1.449,0.93,2.021c-0.229,2.004-0.179,4.258,0.203,6.606c0.508,3.144,1.528,5.951,2.822,8.104c-0.086,0.586-0.053,1.314,0.342,2.051c0.334,0.622,1.139,0.706,1.789,0.658c1.306,1.222,2.729,1.832,4.117,1.621c1.139-0.172,2.123-0.883,2.914-1.986c0.203,0.005,0.404-0.003,0.604-0.034c1.44-0.218,2.635-1.285,3.501-2.932c0.415,0.034,1.316-0.105,1.958-1.735c0.388-0.978-0.235-2.074-0.632-2.634c0,0,0,0,0-0.003C306.124,381.413,306.883,379.364,306.48,376.035z"></path><path style="fill:#D49C00;" d="M302.048,382.865l2.086-1.129c0,0,1.352-1.952,0.347-6.177c-0.999,0.737-2.008,1.545-2.008,1.545S303.331,380.062,302.048,382.865z"></path><path style="fill:#FFED75;" d="M297.459,369.384c0,0,0.961,0.202,1.278,0.827c0.322,0.623,0.319,1.704,0.319,1.704l2.738-2.263c0,0,0.178-1.084-1.251-2.151C299.443,366.679,297.459,369.384,297.459,369.384z"></path><path style="fill:#D49C00;" d="M300.895,383.508c0.651-0.977,1.28-2.672,0.947-5.437c-0.481-4.006-2.119-5.579-2.728-6.037c-0.02-0.04-0.038-0.081-0.058-0.119c0.04-0.373,0-1.089-0.395-1.689c-0.436-0.661-1.081-0.938-1.203-0.842c-1.278-1.558-2.757-2.394-4.191-2.177c-1.372,0.207-2.476,1.343-3.206,3.066c-0.648,0.259-1.526,0.846-1.637,1.822c-0.071,0.619,0.307,1.203,0.771,1.676c-0.189,1.663-0.148,3.532,0.169,5.48c0.422,2.605,1.27,4.936,2.343,6.721c-0.073,0.487-0.044,1.09,0.283,1.699c0.275,0.518,0.946,0.59,1.483,0.549c1.082,1.014,2.264,1.52,3.417,1.346c1.195-0.182,2.187-1.067,2.903-2.432c0.345,0.027,1.091-0.088,1.626-1.439c0.32-0.812-0.196-1.72-0.526-2.184C300.895,383.512,300.896,383.51,300.895,383.508z"></path><g><g><path style="fill:#948C91;stroke:#000000;stroke-linecap:round;stroke-linejoin:round;" d="M293.397,384.237c0,0-30.348,22.891-31.067,23.208c-2.242-4.343-4.27-10.155-4.27-10.155s28.446-20.173,31.778-21.973C291.732,376.895,293.534,382.976,293.397,384.237z"></path><g><path style="fill:none;stroke:#000000;stroke-linecap:round;stroke-linejoin:round;" d="M270.001,391.344c-0.013,0.323-1.162,4.826-1.162,4.826l3.845,1.847l1.224-4.916L270.001,391.344z"></path><path style="fill:none;stroke:#000000;stroke-linecap:round;stroke-linejoin:round;" d="M277.212,386.622c-0.012,0.323-1.161,4.823-1.161,4.823l3.845,1.849l1.221-4.916L277.212,386.622z"></path><path style="fill:none;stroke:#000000;stroke-linecap:round;stroke-linejoin:round;" d="M284.424,381.898c-0.013,0.323-1.161,4.822-1.161,4.822l3.842,1.852l1.226-4.919L284.424,381.898z"></path></g></g><path style="fill:#FFBF00;stroke:#000000;stroke-linecap:round;stroke-linejoin:round;" d="M254.24,400.562c0,0-0.372,1.755,1.56,5.365c1.932,3.611,3.759,3.77,3.759,3.77l6.453-4.361c0,0,0.802-2.667-1.123-6.627c-1.928-3.964-3.759-3.772-3.759-3.772S254.681,398.947,254.24,400.562z"></path><path style="fill:#FFED75;" d="M257.56,400.646c0,0,1.379,0.837,1.854,1.941c2.055-1.314,3.788-2.641,3.788-2.641s-0.553-1.49-1.516-2.255C259.138,399.351,257.56,400.646,257.56,400.646z"></path><ellipse transform="matrix(0.899 -0.4379 0.4379 0.899 -150.8961 153.9472)" style="fill:#D49C00;" cx="258.353" cy="404.159" rx="1.494" ry="3.62"></ellipse><path style="fill:#FFBF00;stroke:#000000;stroke-linecap:round;stroke-linejoin:round;" d="M290.89,380.217c-0.881-2.895-3.06-3.411-3.06-3.411s4.051-3.545,4.961-3.113c0.911,0.435,3.679,4.686,2.86,8.759c-2.563,2.646-4.405,3.893-4.405,3.893S291.772,383.113,290.89,380.217z"></path></g><path style="fill:#FFED75;" d="M300.895,383.508l2.762-1.504c0,0,0.681,0.178,0.654,0.824c-0.024,0.648-2.68,2.17-2.68,2.17S301.442,383.92,300.895,383.508z"></path></g></g></g></svg>