<svg xmlns="http://www.w3.org/2000/svg" width="500" height="500" version="1.1"><g id="x094"><g><g><path style="fill:#505050;stroke:#000000;stroke-linecap:round;stroke-linejoin:round;" d="M329.636,296.01c0.093-1.218-4.675-4.854-15.94-6.7c0,10.333,0,18.577,0,18.577S328.724,308.029,329.636,296.01z"></path><path style="fill:#6E6E6E;stroke:#000000;stroke-linecap:round;stroke-linejoin:round;" d="M270.389,297.726c0.051-2.69,1.325-3.694,3.399-2.924c7.375,2.743,25.463,8.576,37.178,4.78c15.009-4.862,17.959-7.938,18.193-4.255c6.367,100.295-20.467,145.884-26.38,150.139c-12.735-10.941-26.22-51.878-29.563-77.197C269.889,343.065,270.167,309.427,270.389,297.726z"></path><path style="opacity:0.5;fill:#FFFFFF;" d="M274.978,298.887c0,0,8.63,3.775,14.023,4.314c-1.078,10.788-9.169,88.46,10.788,125.139C286.844,423.485,269.583,352.286,274.978,298.887z"></path><path style="fill:#505050;" d="M292.225,302.123c0,0-11.793,84.145,14.062,129.453c10.432-23.194,17.236-133.229,17.236-133.229S306.739,308.056,292.225,302.123z"></path></g><g><path style="fill:#6E6E6E;" d="M330.068,310.523c0-9.726-0.909-15.196-0.909-15.196l-4.918-0.576c-3.685,2.906-9.182,3.615-9.182,3.615s0.002,0.017,0.003,0.023c-1.226,0.462-2.602,0.885-4.097,1.192c-5.912,1.216-9.551,21.275-9.097,19.451c0.455-1.823,7.732-10.94,10.916-10.333c1.468,0.279,2.742,2.241,3.689,4.272c0.557,8.109,0.999,19.203,0.701,32.295c-3.576,0.781-7.027,1.188-10.315,1.303c-2.193-2.351-7.265-11.733-7.265-11.733l-7.111,10.454c-3.769-0.802-7.105-1.885-9.914-2.995c-1.534-3.042-3.571-7.769-2.987-10.498c0.91-4.254,8.187-13.372,8.187-13.372s-14.099,7.902-15.464,12.765c-0.923,3.292-0.388,8.254,0.055,11.117c-0.015,1.94,1.478,8.955,2.051,9.523c-0.451,1.578-1.65,5.954-1.65,7.929c0,2.431,5.458,23.705,11.826,25.528c-2.854-11.987-3.878-21.529-0.783-27.318c2.518,1.061,5.16,1.842,7.823,2.403c2.411,3.176,6.604,10.936,6.604,10.936l6.563-9.648c4.834,0.01,9.017-0.42,11.694-0.787c-0.181,2.756-0.397,5.57-0.653,8.438c-1.625,4.286-4.283,9.228-8.053,9.899c2.445,4.723,4.08,10.527,4.998,14.437c-2.078,12.755-5.036,26.066-9.174,39.455c-2.442-3.639-8.747-13.923-11.288-26.538c-2.274,13.372,3.184,29.784,8.642,34.647c0.455,4.862,1.819,4.255,1.819,4.255s16.774-30.008,22.163-85.401c1.046-0.293,2.496-0.799,3.307-1.521c1.365-6.687,1.365-13.981,1.365-13.981l-3.537,0.338c0.549-10.352,0.68-21.452,0.254-33.276C327.837,303.201,329.791,309.412,330.068,310.523z"></path><polygon style="fill:#505050;" points="322.982,353.005 324.062,358.579 326.759,357.859 328.017,352.826 "></polygon><path style="fill:#505050;" d="M293.496,416.833c0,0,3.956,16.182,11.147,21.575c-0.899,2.157-2.157,4.136-2.157,4.136S294.395,431.936,293.496,416.833z"></path><path style="fill:#505050;" d="M309.857,379.795c0,0.54,4.495,14.024,4.495,14.024s3.236-12.586,3.236-14.204C313.094,381.233,309.857,379.795,309.857,379.795z"></path><path style="fill:#505050;" d="M305.363,311.473c0,0,4.494-4.136,6.652-4.136c2.157,0,5.933,4.854,5.933,4.854l0.54,33.981l3.236-0.719l-0.18-36.318c0,0-4.676-7.552-6.113-7.911C313.993,300.864,305.363,311.473,305.363,311.473z"></path><polygon style="fill:#505050;" points="297.812,353.185 276.416,350.848 274.618,359.299 283.248,356.063 292.058,358.22 "></polygon><polygon style="fill:#505050;" points="304.823,359.838 300.868,353.725 322.084,353.005 317.769,359.478 "></polygon><path style="fill:#505050;" d="M299.43,338.263c0,0-6.113,7.73-6.113,8.27c0,0.54,5.394,7.912,5.394,7.912L299.43,338.263z"></path><polygon style="fill:#505050;" points="298.71,352.286 293.316,359.118 298.351,367.748 "></polygon><path style="opacity:0.5;fill:#6E6E6E;" d="M330.068,310.523c0-9.726-0.909-15.196-0.909-15.196l-4.918-0.576c-3.685,2.906-9.182,3.615-9.182,3.615s0.002,0.017,0.003,0.023c-1.226,0.462-2.602,0.885-4.097,1.192c-5.912,1.216-9.551,21.275-9.097,19.451c0.455-1.823,7.732-10.94,10.916-10.333c1.468,0.279,2.742,2.241,3.689,4.272c0.557,8.109,0.999,19.203,0.701,32.295c-3.576,0.781-7.027,1.188-10.315,1.303c-2.193-2.351-7.265-11.733-7.265-11.733l-7.111,10.454c-3.769-0.802-7.105-1.885-9.914-2.995c-1.534-3.042-3.571-7.769-2.987-10.498c0.91-4.254,8.187-13.372,8.187-13.372s-14.099,7.902-15.464,12.765c-0.923,3.292-0.388,8.254,0.055,11.117c-0.015,1.94,1.478,8.955,2.051,9.523c-0.451,1.578-1.65,5.954-1.65,7.929c0,2.431,5.458,23.705,11.826,25.528c-2.854-11.987-3.878-21.529-0.783-27.318c2.518,1.061,5.16,1.842,7.823,2.403c2.411,3.176,6.604,10.936,6.604,10.936l6.563-9.648c4.834,0.01,9.017-0.42,11.694-0.787c-0.181,2.756-0.397,5.57-0.653,8.438c-1.625,4.286-4.283,9.228-8.053,9.899c2.445,4.723,4.08,10.527,4.998,14.437c-2.078,12.755-5.036,26.066-9.174,39.455c-2.442-3.639-8.747-13.923-11.288-26.538c-2.274,13.372,3.184,29.784,8.642,34.647c0.455,4.862,1.819,4.255,1.819,4.255s16.774-30.008,22.163-85.401c1.046-0.293,2.496-0.799,3.307-1.521c1.365-6.687,1.365-13.981,1.365-13.981l-3.537,0.338c0.549-10.352,0.68-21.452,0.254-33.276C327.837,303.201,329.791,309.412,330.068,310.523z"></path><path style="fill:none;stroke:#000000;stroke-linecap:round;stroke-linejoin:round;" d="M330.068,310.523c0-9.726-0.909-15.196-0.909-15.196l-4.918-0.576c-3.685,2.906-9.182,3.615-9.182,3.615s0.002,0.017,0.003,0.023c-1.226,0.462-2.602,0.885-4.097,1.192c-5.912,1.216-9.551,21.275-9.097,19.451c0.455-1.823,7.732-10.94,10.916-10.333c1.468,0.279,2.742,2.241,3.689,4.272c0.557,8.109,0.999,19.203,0.701,32.295c-3.576,0.781-7.027,1.188-10.315,1.303c-2.193-2.351-7.265-11.733-7.265-11.733l-7.111,10.454c-3.769-0.802-7.105-1.885-9.914-2.995c-1.534-3.042-3.571-7.769-2.987-10.498c0.91-4.254,8.187-13.372,8.187-13.372s-14.099,7.902-15.464,12.765c-0.923,3.292-0.388,8.254,0.055,11.117c-0.015,1.94,1.478,8.955,2.051,9.523c-0.451,1.578-1.65,5.954-1.65,7.929c0,2.431,5.458,23.705,11.826,25.528c-2.854-11.987-3.878-21.529-0.783-27.318c2.518,1.061,5.16,1.842,7.823,2.403c2.411,3.176,6.604,10.936,6.604,10.936l6.563-9.648c4.834,0.01,9.017-0.42,11.694-0.787c-0.181,2.756-0.397,5.57-0.653,8.438c-1.625,4.286-4.283,9.228-8.053,9.899c2.445,4.723,4.08,10.527,4.998,14.437c-2.078,12.755-5.036,26.066-9.174,39.455c-2.442-3.639-8.747-13.923-11.288-26.538c-2.274,13.372,3.184,29.784,8.642,34.647c0.455,4.862,1.819,4.255,1.819,4.255s16.774-30.008,22.163-85.401c1.046-0.293,2.496-0.799,3.307-1.521c1.365-6.687,1.365-13.981,1.365-13.981l-3.537,0.338c0.549-10.352,0.68-21.452,0.254-33.276C327.837,303.201,329.791,309.412,330.068,310.523z"></path></g></g></g></svg>