<svg xmlns="http://www.w3.org/2000/svg" width="500" height="500" version="1.1"><g id="x095"><g><g><g><path style="fill:#6E6E6E;stroke:#000000;stroke-linecap:round;stroke-linejoin:round;" d="M326.386,403.274c0,0,4.353,3.699,4.353,12.187s-1.741,18.933,4.787,24.372c-2.176,2.829-7.398,5.44-7.398,5.44s-1.959-2.611-1.741-1.959c0.218,0.653-0.435,2.83-0.435,2.83h-5.44c0,0-5.006-11.099-3.699-20.238c1.305-9.14,6.093-18.497,5.005-21.762C322.47,401.97,326.168,402.404,326.386,403.274z"></path><path style="fill:#505050;" d="M329.206,430.899c0,0,0.887,5.981,4.135,9.14c-1.524,1.523-3.454,2.259-3.454,2.259S328.118,434.163,329.206,430.899z"></path><path style="fill:#505050;" d="M325.173,442.021c0,0-3.413-7.581-2.324-10.628c1.522,5.006,3.952,10.356,3.952,10.356L325.173,442.021z"></path><path style="fill:#505050;" d="M318.116,428.735c0,0,2.177-3.482,4.57-1.523c1.522-1.523,4.135-1.959,6.093-0.435c0.87-5.44,1.959-11.316,1.088-14.146c-0.87-2.829-2.828-7.834-2.828-7.834s-3.699,0.219-4.353-0.653c0.218,2.829-0.435,6.965-1.741,9.793C319.641,416.767,317.247,425.253,318.116,428.735z"></path></g><path style="fill:#6E6E6E;stroke:#000000;stroke-linecap:round;stroke-linejoin:round;" d="M321.863,394.844c-0.549,2.195,0.274,7.681,1.921,9.053c1.646,1.371,2.193,0,2.193,0l-1.92-8.778L321.863,394.844z"></path></g><g><g><path style="fill:#6E6E6E;stroke:#000000;stroke-linecap:round;stroke-linejoin:round;" d="M325.614,387.248c-5.369-5.725-19.397-19.928-19.978-21.187c-3.702,1.288-7.137,1.288-7.137,1.288l22.467,25.549c0.137-0.473,0.344-0.927,0.623-1.346C322.318,389.85,323.806,388.256,325.614,387.248z"></path><path style="fill:#505050;" d="M300.924,366.542c-0.647,1.51,1.011,4.04,1.011,4.04l19.188,20.935c0.301-1.047,0.672-2.066,1.129-3.005C318.891,384.723,302.988,368.454,300.924,366.542z"></path><g><path style="fill:#FFFFFF;stroke:#000000;stroke-linecap:round;stroke-linejoin:round;" d="M339.324,401.596c0,0-7.112-7.315-13.71-14.348c-1.809,1.008-3.296,2.602-4.024,4.305c-0.279,0.419-0.486,0.873-0.623,1.346l16.416,18.404L339.324,401.596z"></path><path style="fill:#DCDCDC;" d="M334.794,403.105c0,0-6.423-7.69-12.543-14.594c-0.457,0.938-0.828,1.958-1.129,3.005l13.024,14.609L334.794,403.105z"></path><path style="fill:none;stroke:#000000;stroke-linecap:round;stroke-linejoin:round;" d="M327.213,400.011c0,0-0.229-4.252,3.886-5.761"></path><path style="fill:none;stroke:#000000;stroke-linecap:round;stroke-linejoin:round;" d="M330.459,403.668c0-0.138,0.594-4.435,4.068-5.989"></path></g></g><path style="fill:#FFBF00;stroke:#000000;stroke-linecap:round;stroke-linejoin:round;" d="M348.736,409.656c0,0-4.389-5.76-9.326-9.052c-4.114,1.098-4.937,7.955-3.84,10.972c1.097,3.018,8.777,8.504,8.777,8.504L348.736,409.656z"></path><path style="fill:#D49600;" d="M337.407,410.846c0,0,1.646,2.835,3.383,3.84c0.823-2.835,1.28-4.48,1.28-4.48l-4.297-3.932c0,0-1.281,1.372-0.366,4.298"></path><ellipse style="fill:#6E6E6E;stroke:#000000;stroke-linecap:round;stroke-linejoin:round;" cx="348.05" cy="415.966" rx="6.72" ry="7.68"></ellipse><path style="fill:#FFBF00;stroke:#000000;stroke-linecap:round;stroke-linejoin:round;" d="M354.497,411.851c0,0-6.31-0.822-7.681,1.098c-1.372,1.92-2.194,5.761-0.822,8.229c1.371,2.469,4.937,5.212,4.937,5.212L354.497,411.851z"></path><g><path style="fill:#666666;stroke:#000000;stroke-linecap:round;stroke-linejoin:round;" d="M351.205,411.576c0.121,0.04,3.841,0,6.035,0.549c6.669,5.397,24.824,24.099,43.065,23.864c10.92-0.14,19.476-15.087,19.476-15.087s10.972,50.746-23.59,46.905c-28.304-3.145-46.906-37.305-48.004-42.242C349.56,418.159,351.205,411.576,351.205,411.576z"></path><path style="fill:#FFFFFF;" d="M395.916,437.635c0,0-9.783,0.823-43.522-24.412C363.641,427.212,379.184,437.635,395.916,437.635z"></path><polygon style="fill:#FFFFFF;" points="352.851,413.496 351.296,418.982 352.394,413.223 "></polygon><path style="fill:#505050;" d="M390.156,436.264c0,0-15.636-4.938-33.739-23.315c-3.291,0-4.114,0-4.114,0C352.988,413.634,367.115,430.778,390.156,436.264z"></path><path style="fill:#FFFFFF;" d="M419.507,424.469c1.371,1.371,6.309,48.825-25.785,41.694c-32.093-7.132-44.162-40.048-44.162-40.048l1.371-5.486c0,0,21.67,33.465,42.518,33.465C415.202,454.094,419.507,424.469,419.507,424.469z"></path><path style="fill:#DCDCDC;" d="M390.612,454.002c0,0-0.365,8.869,4.024,11.612c-9.511-1.098-21.945-9.053-24.688-11.979c4.115-0.823,5.944-3.84,5.486-6.125C385.401,454.733,390.612,454.002,390.612,454.002z"></path></g><path style="fill:#6E6E6E;stroke:#000000;stroke-linecap:round;stroke-linejoin:round;" d="M320.492,393.885c-1.098-3.018-0.274-5.213,1.646-6.858c1.783-1.371,4.526-1.509,6.035,0.138c1.391,1.517,2.236,3.245,1.646,3.978c-2.469-1.098-3.154-2.47-5.212-0.412c-3.259,3.259-0.822,6.31-0.822,6.31S321.336,396.204,320.492,393.885z"></path></g></g></g></svg>