<svg xmlns="http://www.w3.org/2000/svg" width="500" height="500" version="1.1"><g id="x096"><g><g><polygon style="fill:#6E6E6E;stroke:#000000;stroke-linecap:round;stroke-linejoin:round;" points="294.463,426.308 329.176,453.618 332.396,449.585 296.604,421.905 "></polygon><path style="fill:#505050;stroke:#000000;stroke-linecap:round;stroke-linejoin:round;" d="M329.067,454.297c0,0,5.376,6.69,6.611,6.728c1.234,0.036,3.577-1.083,4.392-3.392c0.814-2.308,0.479-4.323,0.479-4.323l-7.878-4.13L329.067,454.297z"></path></g><path style="fill:#505050;stroke:#000000;stroke-linecap:round;stroke-linejoin:round;" d="M294.228,403.782l-3.639,4.906l-3.828,14.277c0,0,1.034,2.88,5.281,3.706c4.247,0.825,5.633-0.471,5.633-0.471l3.65-15.465l-0.669-4.511L294.228,403.782z"></path><polygon style="fill:#6E6E6E;stroke:#000000;stroke-linecap:round;stroke-linejoin:round;" points="326.465,287.383 294.097,404.529 299.742,406.604 332.252,290.406 "></polygon><g><path style="fill:#DCDCDC;stroke:#000000;stroke-linecap:round;stroke-linejoin:round;" d="M363.392,218.953c-5.178-3.84-13.633-7.193-20.479-5.34c-7.945,4.32-27.119,34.598-28.166,36.01c-1.047,1.411,1.745,8.956,4.524,13.57c2.779,4.612,12.715,10.887,18.294,13.202c3.983,0.038,12.303-0.359,15.042-3.068c2.738-2.709,20.942-28.236,22.165-29.884c1.221-1.646,0.483-8.031-1.657-13.995C371.688,225.472,363.392,218.953,363.392,218.953z"></path><path style="fill:#FFFFFF;" d="M330.13,233.146c0,0,12.744-12.158,13.477-11.865c0.733,0.293,15.966-0.147,17.724,1.319c-2.782-4.102-10.839-6.884-18.31-6.299C336.868,222.599,330.13,233.146,330.13,233.146z"></path><path style="fill:#B2B2B2;" d="M317.094,250.283c0,0,1.903,10.108,2.929,11.28s18.017,11.571,18.017,11.571l3.37,1.905c0,0,9.083-1.612,11.426-2.638c2.343-1.024,20.214-31.054,20.067-30.614c-0.147,0.439,0.879-7.91-4.102-14.355c-0.146,2.344-1.123,2.773-2.05,3.955c-9.082,11.572-26.014,34.424-26.954,34.424C338.333,265.812,317.094,250.283,317.094,250.283z"></path><path style="fill:#DCDCDC;stroke:#000000;stroke-linecap:round;stroke-linejoin:round;" d="M323.839,273.51c0,0-3.38,8.982-3.277,11.795c0.103,2.812,14.38,10.118,14.38,10.118l7.64-1.445l2.776-6.696L323.839,273.51z"></path><polygon style="fill:#B2B2B2;" points="334.817,292.178 340.384,291.591 341.85,288.223 337.015,284.999 "></polygon><path style="fill:#DCDCDC;stroke:#000000;stroke-linecap:round;stroke-linejoin:round;" d="M352.657,267.666c0,0-1.492,8.467-2.426,10.646c-0.934,2.181-2.729,3.311-2.729,3.311s-22.788-12.798-26.455-16.338c-0.782-2.633-0.718-2.722-0.718-2.722l-2.893-2.555c0,0-2.888,6.475-1.665,8.886c1.221,2.411,30.18,18.691,33.26,19.335c3.078,0.641,5.284-1.962,5.284-1.962s7.396-22.145,7.758-28.716"></path><g><path d="M341.309,220.45c0,0-2.087-0.715-3.567-0.724l-2.497,3.367c0.715-0.163,2.473-0.424,3.914,0.503c1.853,1.191,7.469,5.175,7.469,5.175l2.094-2.823L341.309,220.45z"></path><path d="M337.471,225.626c0,0-2.088-0.714-3.569-0.723l-2.497,3.366c0.715-0.163,2.474-0.424,3.915,0.503c1.852,1.19,7.468,5.175,7.468,5.175l2.096-2.824L337.471,225.626z"></path><path d="M333.63,230.802c0,0-2.087-0.714-3.568-0.723l-2.497,3.366c0.716-0.162,2.474-0.423,3.915,0.503c1.852,1.191,7.469,5.176,7.469,5.176l2.094-2.824L333.63,230.802z"></path><path d="M329.792,235.979c0,0-2.088-0.716-3.569-0.724l-2.497,3.366c0.716-0.163,2.474-0.424,3.915,0.503c1.852,1.191,7.468,5.176,7.468,5.176l2.095-2.825L329.792,235.979z"></path><path d="M325.952,241.156c0,0-2.088-0.715-3.568-0.725l-2.496,3.367c0.713-0.163,2.472-0.425,3.913,0.503c1.852,1.191,7.469,5.175,7.469,5.175l2.095-2.823L325.952,241.156z"></path></g><g><path d="M362.47,236.144l-10.824-8.028l-2.095,2.824c0,0,8.854,6.749,10.532,8.176c1.203,1.023,1.515,2.597,1.6,3.411l2.465-3.323C363.671,237.814,362.47,236.144,362.47,236.144z"></path><path d="M358.63,241.321l-10.824-8.028l-2.094,2.823c0,0,8.854,6.749,10.532,8.176c1.203,1.024,1.516,2.596,1.598,3.411l2.466-3.324C359.832,242.99,358.63,241.321,358.63,241.321z"></path><path d="M354.79,246.496l-10.824-8.026l-2.094,2.823c0,0,8.854,6.748,10.532,8.176c1.202,1.022,1.515,2.596,1.599,3.411l2.465-3.324C355.991,248.167,354.79,246.496,354.79,246.496z"></path><path d="M350.952,251.673l-10.824-8.028l-2.096,2.825c0,0,8.855,6.749,10.532,8.176c1.203,1.023,1.517,2.595,1.6,3.409l2.465-3.323C352.152,253.343,350.952,251.673,350.952,251.673z"></path><path d="M347.112,256.85l-10.825-8.027l-2.094,2.822c0,0,8.46,6.457,10.138,7.884c1.254,1.068,1.767,2.909,1.943,3.771l2.516-3.391C348.313,258.521,347.112,256.85,347.112,256.85z"></path></g><path d="M315.852,250.715c0.092-0.199,2.096,0.004,2.595,0.558c0.501,0.555-1.82,4.669-1.412,7.068C315.27,257.033,314.663,253.301,315.852,250.715z"></path><path d="M318.389,262.537c0,0-0.562-3.791-0.318-4.979c0.242-1.188,2.335-4.379,2.862-4.352c0.527,0.026,2.354,1.746,2.354,1.746s-2.077,3.291-2.279,4.056c-0.2,0.763-0.119,4.833,0.043,5.229C321.213,264.631,318.389,262.537,318.389,262.537z"></path><path d="M322.861,265.854c0,0-0.563-3.79-0.32-4.978c0.243-1.188,2.335-4.379,2.863-4.353c0.526,0.026,2.354,1.746,2.354,1.746s-2.079,3.291-2.28,4.055s-0.118,4.836,0.044,5.229S322.861,265.854,322.861,265.854z"></path><path d="M327.331,269.171c0,0-0.562-3.791-0.318-4.979c0.243-1.188,2.335-4.379,2.863-4.352c0.525,0.027,2.354,1.745,2.354,1.745s-2.08,3.293-2.28,4.056c-0.2,0.764-0.119,4.835,0.043,5.229C330.155,271.265,327.331,269.171,327.331,269.171z"></path><path d="M331.803,272.486c0,0-0.562-3.791-0.318-4.979c0.242-1.187,2.335-4.378,2.861-4.352c0.527,0.027,2.354,1.746,2.354,1.746s-2.077,3.29-2.278,4.054c-0.2,0.765-0.12,4.836,0.043,5.23C334.627,274.58,331.803,272.486,331.803,272.486z"></path><path d="M350.866,214.967c0,0-2.247,1.138-2.882,1.835c-0.633,0.698-1.844,2.487-1.844,2.487l-2.563-1.901c0.28-0.376,3.021-3.601,3.021-3.601S348.303,213.067,350.866,214.967z"></path><path d="M355.986,216.302c0,0-2.247,1.137-2.881,1.835c-0.635,0.698-1.845,2.487-1.845,2.487l-2.563-1.9c0.28-0.377,3.021-3.601,3.021-3.601S353.424,214.401,355.986,216.302z"></path><path d="M360.104,219.357c0,0-2.247,1.137-2.881,1.835c-0.635,0.698-1.845,2.487-1.845,2.487l-2.563-1.901c0.279-0.376,3.804-4.655,3.804-4.655S357.542,217.456,360.104,219.357z"></path><path d="M364.222,222.412c0,0-2.246,1.137-2.88,1.835s-1.845,2.487-1.845,2.487l-2.562-1.9c0.278-0.377,4.063-5.008,4.063-5.008S361.66,220.511,364.222,222.412z"></path><path d="M368.341,225.466c0,0-2.247,1.137-2.882,1.835c-0.633,0.698-1.844,2.487-1.844,2.487l-2.563-1.9c0.28-0.377,4.372-5.421,4.372-5.421S365.777,223.565,368.341,225.466z"></path><path style="fill:none;stroke:#000000;stroke-linecap:round;stroke-linejoin:round;" d="M372.292,228.837c0,0-0.61,6.478-1.221,7.301c-0.612,0.824-26.703,36.002-26.703,36.002s-4.964,3.249-7.396,3.086"></path><path d="M367.73,251.215c0,0,0.179-3.56-1.014-4.719c1.244-1.677,1.897-2.559,1.897-2.559s1.965,1.594,1.385,4.035C368.56,249.915,367.73,251.215,367.73,251.215z"></path><path d="M363.673,256.687c0,0,0.178-3.562-1.014-4.719c1.243-1.677,1.897-2.559,1.897-2.559s1.965,1.593,1.384,4.035C364.501,255.386,363.673,256.687,363.673,256.687z"></path></g><path style="fill:#505050;stroke:#000000;stroke-linecap:round;stroke-linejoin:round;" d="M322.255,299.896c0,0,0.897,2.778,3.413,3.376c2.515,0.598,3.657-1.514,3.657-1.514l-3.405,14.488c0,0-6.166-0.708-7.468-2.941C320.036,307.422,322.255,299.896,322.255,299.896z"></path><path style="fill:#505050;stroke:#000000;stroke-linecap:round;stroke-linejoin:round;" d="M285.888,437.533l-3.903,6.402c0,0-0.088,2.683,3.958,3.781s5.87-0.506,5.87-0.506l-0.041-7.639L285.888,437.533z"></path><path style="fill:#6E6E6E;stroke:#000000;stroke-linecap:round;stroke-linejoin:round;" d="M292.731,422.323c-1.732-0.229-2.674,1.61-2.674,1.61l-3.792,14.515l4.521,1.028l3.959-15.025C294.746,424.451,294.464,422.552,292.731,422.323z"></path><g><polygon style="fill:#6E6E6E;stroke:#000000;stroke-linecap:round;stroke-linejoin:round;" points="287.139,423.88 243.558,431.072 242.683,425.985 287.385,418.991 "></polygon><path style="fill:#505050;stroke:#000000;stroke-linecap:round;stroke-linejoin:round;" d="M243.327,431.72c0,0-7.935,3.269-9.035,2.706c-1.1-0.563-2.612-2.675-2.212-5.089c0.398-2.415,1.665-4.019,1.665-4.019l8.893,0.181L243.327,431.72z"></path></g></g></g></svg>