<svg xmlns="http://www.w3.org/2000/svg" width="500" height="500" version="1.1"><g id="x097"><g><ellipse transform="matrix(0.982 0.1887 -0.1887 0.982 66.7487 -56.0577)" style="fill:#6E6E6E;stroke:#000000;stroke-linecap:round;stroke-linejoin:round;" cx="327.829" cy="322.583" rx="27.922" ry="28.618"></ellipse><path style="fill:#FFF589;" d="M323.266,330.293c0,0,4.617,2.145,7.22-0.499c2.603-2.643,3.015-6.963,3.015-6.963s6.746,6.324,3.071,11.275c-3.652,2.65-12.573,2.193-13.375-2.36C323.718,331.218,323.266,330.293,323.266,330.293z"></path><path style="fill:#FFF589;" d="M328.467,340.302c0,0-3.334,2.083-2.882,8.455c-4.32-0.41-9.77-5.857-10.197-9.082c2.036-2.961,4.88-5.768,7.554-4.415C323.602,337.271,326.407,340.115,328.467,340.302z"></path><path style="fill:#FFF589;" d="M304.885,316.915c0,0-0.146,7.305,7.54,9.829c2.983-5.713,6.922-7.68,6.922-7.68s-7.927-7.809-6.01-15.611C307.789,306.159,304.969,312.112,304.885,316.915z"></path><path style="fill:#FFF589;" d="M326.481,317.921c0,0-1.713-12.899,6.749-19.864c5.16-0.685,7.958,1.109,7.958,1.109s6.77,4.024,8.169,7.646c-3.87,0.514-13.085,9.219-13.395,16.283C334.502,321.976,326.481,317.921,326.481,317.921z"></path><path style="fill:#FFF589;" d="M338.016,327.68c0,0,9.153-6.203,15.232,2.507c-1.499,4.531-3.402,8.984-6.534,11.106c-1.15-2.735-6.824-5.92-12.178-4.226C336.852,333.741,338.016,327.68,338.016,327.68z"></path><path style="fill:#DFEFF9;stroke:#000000;stroke-linecap:round;stroke-linejoin:round;" d="M317.914,351.47l-11.854,24.858c0,0-0.629,0.823-2.904,0.386c-2.276-0.438-2.251-3.028-2.251-3.028l11.627-24.901C312.531,348.784,316.609,347.208,317.914,351.47z"></path><path style="fill:#6E6E6E;stroke:#000000;stroke-linecap:round;stroke-linejoin:round;" d="M315.078,349.038c0,0-11.632,0.36-13.732-0.986c-2.101-1.348,3.455-11.843,4.854-12.989c1.401-1.146,10.986,10.369,10.986,10.369s11.675-0.589,14.144,1.302c2.468,1.89-4.3,12.777-5.665,12.515C324.301,358.986,315.078,349.038,315.078,349.038z"></path><path style="fill:none;stroke:#000000;stroke-linecap:round;stroke-linejoin:round;" d="M316.71,343.7c0,0-9.607-11.064-1.371-21.216c8.234-10.15,23.717-1.31,22.335,8.063c-1.381,9.373-8.794,10.881-13.179,7.525c-4.383-3.356-2.97-8.532-0.234-9.683"></path><g><path style="fill:#FFFFFF;" d="M304.71,336.366c0,0-8.544-14.422,1.875-29.391c10.418-14.97,26.295-12.549,34.604-7.81C295.943,292.569,304.71,336.366,304.71,336.366z"></path><ellipse transform="matrix(0.9975 -0.0711 0.0711 0.9975 -20.6081 23.9864)" style="fill:#FFFFFF;" cx="326.517" cy="301.376" rx="6.481" ry="3.395"></ellipse></g></g></g></svg>