<svg xmlns="http://www.w3.org/2000/svg" width="500" height="500" version="1.1"><g id="x098"><g><g><g><g id="leftXMLID_2_"><g><path style="fill:#DBEBF7;" d="M302.764,383.334c-4.087-3.115-5.461-8.033-4.258-11.745c-0.944,2.514-2.424,8.124,0.948,12.638c4.491,6.006,11.523,4.564,11.523,4.564l-0.018-2.003l-0.012-1.453C310.948,385.335,307.358,386.837,302.764,383.334z"></path><path style="fill:#DBEBF7;" d="M298.999,370.414c-0.194,0.374-0.359,0.767-0.493,1.175C298.719,371.028,298.904,370.62,298.999,370.414z"></path><path style="fill:#DBEBF7;" d="M310.149,362.539c-5.231-0.619-10.893,7.468-11.07,7.72c0.215-0.206,5.684-5.474,10.209-5.146c4.614,0.334,7.695,5.192,7.695,5.192l0.408-0.355c0.611-0.701,1.224-1.332,1.813-1.887C318.449,367.144,314.859,363.097,310.149,362.539z"></path><path style="fill:#DBEBF7;" d="M317.392,369.949l1.96-1.708c0,0-0.049-0.067-0.147-0.179C318.615,368.617,318.003,369.248,317.392,369.949z"></path><circle style="fill:#DBEBF7;" cx="338.92" cy="353.792" r="3.136"></circle><path style="fill:#DBEBF7;" d="M338.445,356.892c-9.299-1.425-14.414,3.95-14.414,3.95s-0.645,1.767-0.363,2.369l0.226,0.968c2.048,1.246,13.1,2.193,13.1,2.193s10.827,2.406,13.155,1.829l0.505-0.855c0.447-0.49,0.362-2.37,0.362-2.37S347.744,358.316,338.445,356.892z"></path><path style="fill:#BFCFD9;" d="M349.865,365.172l-0.055,1.983c0,0-1.552,0.384-12.612-1.311c-11.062-1.695-12.549-2.546-12.549-2.546l0.317-2.065L349.865,365.172z"></path><path style="fill:#6E6E6E;" d="M337.866,358.233c0,0-4.777,1.135-5.431,2.154s2.646,1.399,2.646,1.399s-6.227,0.042-8.004-1.35C329.134,358.389,334.846,357.646,337.866,358.233z"></path><path style="fill:#DBEBF7;" d="M356.384,383.526c-1.021,3.015-0.864,8.077-0.864,8.077s0.166,0.015,0.459,0.022c0.114-0.453,0.216-0.919,0.312-1.396c0.468-2.369,0.549-4.604,0.372-6.668C356.569,383.554,356.476,383.54,356.384,383.526z"></path><path style="fill:#DBEBF7;" d="M355.52,391.604c0,0-0.157-5.063,0.864-8.077c0.092,0.014,0.186,0.027,0.278,0.035c-0.766-8.985-6.415-14.785-6.415-14.785l-26.62-4.079c0,0-2.018,1.087-4.423,3.365c0.099,0.111,0.147,0.179,0.147,0.179l-1.96,1.708c-2.658,3.052-5.304,7.479-5.954,13.407c-0.133,1.204-0.185,2.346-0.171,3.43c0.128,10.469,6.508,15.374,8.836,16.745l10.827,2.406l11.052,0.946c2.794-0.65,11.141-3.73,13.997-15.258C355.686,391.618,355.52,391.604,355.52,391.604z"></path><path style="fill:#BFCFD9;" d="M349.194,369.549l-0.521,3.403c0,0-4.384,0.199-12.407-1.03c-8.021-1.229-12.595-3.049-12.595-3.049l0.102-3.096L349.194,369.549z"></path><ellipse transform="matrix(-0.9885 -0.1514 0.1514 -0.9885 597.8619 852.3132)" style="fill:#BFCFD9;" cx="331.381" cy="403.394" rx="12.973" ry="1.721"></ellipse><path style="fill:#DBEBF7;" d="M356.662,383.562c0.177,2.064,0.096,4.299-0.372,6.668c-0.096,0.478-0.197,0.943-0.312,1.396c1.79,0.058,8.342-0.076,11.458-4.727c3.63-5.415,7.411-13.047,7.411-13.047s-2.483-2.061-3.955-0.979C368.982,375.711,363.464,384.354,356.662,383.562z"></path><path style="fill:#6E6E6E;" d="M373.253,374.106c0,0-2.222,4.76-2.82,5.414c0.756-2.496,1.778-4.703,1.118-5.676C371.935,373.779,373.253,374.106,373.253,374.106z"></path></g></g></g><g><path style="fill:#6E6E6E;" d="M363.673,388.935c0,0-24.688-9.381-49.614-8.069c-0.3,2.567-1.1,14.48,7.542,17.765c8.64,3.283,18.408,3.473,19.754,3.214c1.347-0.261,10.016-7.517,10.849-9.907C354.131,392.138,361.241,392.015,363.673,388.935z"></path><g><path style="fill:#505050;" d="M360.406,390.767c0,0-33.33-3.521-39.726-5.62c-1.184,2.244,2.006,13.09,5.814,14.42s14.136,2.539,15.854,1.869c5.16-2.009,9.454-8.722,9.454-8.722S358.752,393.032,360.406,390.767z"></path><path style="opacity:0.3;fill:#FFFFFF;" d="M320.681,385.146c3.145,1.032,12.799,2.407,21.803,3.54c-0.736,4.759-3.423,9.278-7.055,12.589c-3.334-0.381-6.986-1.029-8.934-1.709C322.687,398.236,319.497,387.391,320.681,385.146z"></path></g></g><path style="opacity:0.5;fill:#6E6E6E;" d="M329.16,371.207c0,0-5.021-0.521-5.797-1.138c-1.495,1.637-3.596,6.415-3.184,6.976c0.411,0.561,6.031,2.045,7.602,1.538C328.189,374.292,329.16,371.207,329.16,371.207z"></path><path style="fill:none;stroke:#C4D1ED;stroke-linecap:round;stroke-linejoin:round;" d="M352.591,387.983c-1.192,7.779-7.013,14.227-9.537,14.462c-2.523,0.235-19.962-2.188-22.17-4.019c-3.965-1.728-8.599-11.271-5.621-20.145c2.977-8.874,9.191-12.897,9.191-12.897l24.517,4.005C348.971,369.39,353.782,380.203,352.591,387.983z"></path></g><g><circle style="fill:none;stroke:#000000;stroke-linecap:round;stroke-linejoin:round;" cx="338.92" cy="353.792" r="3.135"></circle><path style="fill:none;stroke:#000000;stroke-linecap:round;stroke-linejoin:round;" d="M324.031,360.842c0,0,5.115-5.375,14.414-3.95s12.57,8.084,12.57,8.084s0.085,1.88-0.362,2.37l-0.505,0.855c-2.328,0.577-13.155-1.829-13.155-1.829s-11.052-0.947-13.1-2.193l-0.226-0.968C323.387,362.608,324.031,360.842,324.031,360.842z"></path><path style="fill:none;stroke:#000000;stroke-linecap:round;stroke-linejoin:round;" d="M355.979,391.626c-2.856,11.527-11.203,14.607-13.997,15.258l-11.052-0.946l-10.827-2.406c-2.328-1.371-8.708-6.276-8.836-16.745c-0.014-1.084,0.038-2.226,0.171-3.43c0.65-5.928,3.296-10.355,5.954-13.407"></path><path style="fill:none;stroke:#000000;stroke-linecap:round;stroke-linejoin:round;" d="M319.204,368.063c2.405-2.278,4.423-3.365,4.423-3.365l26.62,4.079c0,0,5.649,5.8,6.415,14.785"></path><path style="fill:none;stroke:#000000;stroke-linecap:round;stroke-linejoin:round;" d="M356.662,383.562c-0.093-0.008-0.187-0.021-0.278-0.035c-1.021,3.015-0.864,8.077-0.864,8.077s0.166,0.015,0.459,0.022c1.79,0.058,8.342-0.076,11.458-4.727c3.63-5.415,7.411-13.047,7.411-13.047s-2.483-2.061-3.955-0.979C368.982,375.711,363.464,384.354,356.662,383.562z"></path><path style="fill:none;stroke:#000000;stroke-linecap:round;stroke-linejoin:round;" d="M299.079,370.259c0.178-0.252,5.839-8.339,11.07-7.72c4.71,0.558,8.3,4.604,9.055,5.523c0.099,0.111,0.147,0.179,0.147,0.179l-1.96,1.708l-0.408,0.355c0,0-3.081-4.858-7.695-5.192C304.763,364.785,299.294,370.053,299.079,370.259"></path><path style="fill:none;stroke:#000000;stroke-linecap:round;stroke-linejoin:round;" d="M299.079,370.259c-0.004,0.004-0.005,0.007-0.005,0.007s0,0.004-0.005,0.007c-0.025,0.048-0.048,0.094-0.07,0.142c-0.194,0.374-0.359,0.767-0.493,1.175c-1.203,3.712,0.171,8.63,4.258,11.745c4.595,3.503,8.185,2.001,8.185,2.001l0.012,1.453l0.018,2.003c0,0-7.032,1.441-11.523-4.564c-3.372-4.514-1.893-10.124-0.948-12.638c0.213-0.561,0.398-0.969,0.493-1.175L299.079,370.259z"></path></g><circle style="fill:#6E6E6E;" cx="338.442" cy="352.849" r="1.291"></circle></g></g></svg>