<svg xmlns="http://www.w3.org/2000/svg" width="500" height="500" version="1.1"><g id="x099"><g><g><path style="fill:#6E6E6E;stroke:#000000;stroke-linecap:round;stroke-linejoin:round;" d="M309.205,381.238c0.753-4.534,3.777-7.738,4.502-8.969c0.724-1.229,0.733-3.333,0.733-3.333l14.643,1.863l14.721,1.068c0,0-0.405,2.063,0.061,3.412c0.422,1.221,2.366,4.403,2.616,8.401c1.748-1.036,5.172-3.197,6.501-4.887c1.606-2.043,4.384-3.77,7.647-3.344s3.473,3.353,3.473,3.353s-0.645,1.438-1.944,1.408c-1.299-0.028-5.267,0.577-5.693,2.839s-1.201,8.297-3.946,11.429c-2.434,2.775-5.42,3.33-6.912,3.422c-0.335,1.599-1.09,5.791-1.776,6.831c-2.479,3.76-7.786,6.737-18.697,5.647c-10.912-1.09-15.526-5.057-17.213-9.232C306.231,396.972,308.451,385.771,309.205,381.238z"></path><path style="fill:#505050;" d="M354.385,387.818c0,0-0.786,7.87-9.336,9.221c-0.841-0.951-0.748-3.882-0.748-3.882S351.145,394.176,354.385,387.818z"></path><path style="fill:#505050;" d="M344.443,397.079c0,0,2.307,14.357-19.153,12.214c-21.46-2.142-16.608-16.284-16.608-16.284s-2.161,11.606,16.886,13.507C344.614,408.418,344.443,397.079,344.443,397.079z"></path><ellipse transform="matrix(-0.995 -0.0995 0.0995 -0.995 680.6657 788.6132)" cx="359.989" cy="377.341" rx="1.944" ry="0.748"></ellipse><path style="fill:#505050;" d="M342.752,372.865c0,0-3.997,2.907-14.908,1.817c-10.912-1.089-12.59-4.362-12.59-4.362L342.752,372.865z"></path><path style="fill:#6E6E6E;stroke:#000000;stroke-linecap:round;stroke-linejoin:round;" d="M317.604,364.343c0,0,1.895-2.916,5.247-3.383c1.095-0.152,2.66-0.172,4.381-0.091c-0.104-0.342-0.144-0.708-0.105-1.086c0.152-1.533,1.521-2.653,3.055-2.5s2.653,1.521,2.5,3.055c-0.037,0.368-0.146,0.712-0.308,1.021c1.896,0.271,3.621,0.627,4.762,1.027c3.195,1.12,4.475,4.354,4.475,4.354s4.495,1.149,4.286,3.232c-0.401,4.018-16.902,1.719-16.902,1.719s-16.632-1.009-16.23-5.026C312.972,364.582,317.604,364.343,317.604,364.343z"></path><path style="fill:#6E6E6E;stroke:#000000;stroke-linecap:round;stroke-linejoin:round;" d="M309.601,372.762c0,0-2.352-1.537-3.729,0.229c-1.38,1.766-0.773,4.732,3.056,4.513c3.829-0.219,4.78-5.733,4.78-5.733s0.872-5.724-5.824-6.894s-10.663,1.439-11.278,5.586c-0.614,4.146,4.932,10.813,6.162,12.538s-0.207,3.085-1.219,3.185c-1.012,0.099-3.016,0.1-1.944,2.411c1.072,2.311,5.605,2.062,6.756-0.428c1.15-2.49,0.763-4.633-1.331-7.748c0,0-4.892-6.199-3.453-9.562C303.013,367.495,310.274,368.02,309.601,372.762z"></path></g><path style="fill:none;stroke:#000000;stroke-linecap:round;stroke-linejoin:round;" d="M344.947,386.008c0,0-2.837,4.326-0.752,9.544"></path></g></g></svg>