<svg xmlns="http://www.w3.org/2000/svg" width="500" height="500" version="1.1"><g id="x103"><g><g><g><g><g><linearGradient id="hair1XMLID_3211_" gradientUnits="userSpaceOnUse" x1="250.0503" y1="216.667" x2="250.0503" y2="149.6671"><stop offset="0" style="stop-color:#FCFCE4"></stop><stop offset="0.5" style="stop-color:#A0C8DD"></stop><stop offset="1" style="stop-color:#5D6EC5"></stop></linearGradient><path style="fill:url(#hair1XMLID_3211_);stroke:#1E1E1E;stroke-linecap:round;stroke-linejoin:round;" d="M311.534,135.882c-17.021-17.418-41.603-23.852-61.484-20.131c-19.882-3.721-44.464,2.713-61.484,20.131c-13.061,13.365-22.283,30.165-22.283,51.08c0,24.372,15.268,44.372,25.934,48.538c-7.33-33.49-0.484-59.331,5.084-68.5c1.798-2.157,29.369-5.491,52.75-5.619c23.381,0.128,50.952,3.462,52.75,5.619c5.568,9.169,12.414,35.01,5.084,68.5c10.666-4.167,25.934-24.167,25.934-48.538C333.817,166.047,324.595,149.248,311.534,135.882z"></path></g></g></g></g><linearGradient id="hair1XMLID_3212_" gradientUnits="userSpaceOnUse" x1="191.8989" y1="216.667" x2="191.8989" y2="149.667"><stop offset="0" style="stop-color:#FCFCE4"></stop><stop offset="0.5" style="stop-color:#A0C8DD"></stop><stop offset="1" style="stop-color:#5D6EC5"></stop></linearGradient><path style="fill:url(#hair1XMLID_3212_);stroke:#1E1E1E;stroke-linecap:round;stroke-linejoin:round;" d="M193.273,160.606c0,0-1.117,127.077,17.866,167.724c-13.4-1.117-29.479-14.295-29.479-14.295s-17.42-83.973-3.796-151.195"></path><linearGradient id="hair1XMLID_3213_" gradientUnits="userSpaceOnUse" x1="306.9141" y1="216.667" x2="306.9141" y2="149.667"><stop offset="0" style="stop-color:#FCFCE4"></stop><stop offset="0.5" style="stop-color:#A0C8DD"></stop><stop offset="1" style="stop-color:#5D6EC5"></stop></linearGradient><path style="fill:url(#hair1XMLID_3213_);stroke:#1E1E1E;stroke-linecap:round;stroke-linejoin:round;" d="M305.539,160.606c0,0,1.117,127.077-17.866,167.724c13.4-1.117,29.48-14.295,29.48-14.295s17.42-83.973,3.796-151.195"></path><linearGradient id="hair1XMLID_3214_" gradientUnits="userSpaceOnUse" x1="249.5542" y1="216.667" x2="249.5542" y2="149.6669"><stop offset="0" style="stop-color:#FCFCE4"></stop><stop offset="0.5" style="stop-color:#A0C8DD"></stop><stop offset="1" style="stop-color:#5D6EC5"></stop></linearGradient><path style="fill:url(#hair1XMLID_3214_);stroke:#1E1E1E;stroke-linecap:round;stroke-linejoin:round;" d="M259.157,160.17c0,1.34-1.117,51.59-19.207,65.66c6.7-24.566,2.01-65.661,2.01-65.661"></path><g><linearGradient id="hair1XMLID_3215_" gradientUnits="userSpaceOnUse" x1="215.0327" y1="216.667" x2="215.0327" y2="149.6671"><stop offset="0" style="stop-color:#FCFCE4"></stop><stop offset="0.5" style="stop-color:#A0C8DD"></stop><stop offset="1" style="stop-color:#5D6EC5"></stop></linearGradient><path style="fill:url(#hair1XMLID_3215_);stroke:#1E1E1E;stroke-linecap:round;stroke-linejoin:round;" d="M191.375,157.479c0,0-11.39,21.104-5.695,48.91c7.705,1.34,18.761-1.005,18.761-1.005s-0.017-13.701,3.007-21.926c-1.332,11.875,1.348,22.931,1.348,22.931s14.405-1.675,20.771-1.34c0,0-0.67-16.415,2.345-23.785c-1.005,14.405,8.934,24.12,8.934,24.12c1.116-32.495,3.249-35.635,5.137-45.448"></path><linearGradient id="hair1XMLID_3216_" gradientUnits="userSpaceOnUse" x1="286.5547" y1="216.667" x2="286.5547" y2="149.6671"><stop offset="0" style="stop-color:#FCFCE4"></stop><stop offset="0.5" style="stop-color:#A0C8DD"></stop><stop offset="1" style="stop-color:#5D6EC5"></stop></linearGradient><path style="fill:url(#hair1XMLID_3216_);stroke:#1E1E1E;stroke-linecap:round;stroke-linejoin:round;" d="M309.04,157.479c0,0,11.39,21.104,5.694,48.91c-7.704,1.34-18.76-1.005-18.76-1.005s0.017-13.701-3.007-21.926c1.332,11.875-1.348,22.931-1.348,22.931s-14.405-1.675-20.771-1.34c0,0,0.67-16.415-2.345-23.785c1.005,14.405-5.695,24.12-5.695,24.12s-4.354-36.516-6.029-45.225"></path></g></g></g></svg>