<svg xmlns="http://www.w3.org/2000/svg" width="500" height="500" version="1.1"><g id="x105"><g><linearGradient id="hair1XMLID_3221_" gradientUnits="userSpaceOnUse" x1="250.0503" y1="224.3335" x2="250.0503" y2="151.667"><stop offset="0" style="stop-color:#FCFCE4"></stop><stop offset="0.5" style="stop-color:#A0C8DD"></stop><stop offset="1" style="stop-color:#5D6EC5"></stop></linearGradient><path style="fill:url(#hair1XMLID_3221_);stroke:#1E1E1E;stroke-linecap:round;stroke-linejoin:round;" d="M333.817,186.962c0-20.915-9.223-37.714-22.283-51.08c-17.021-17.418-41.603-23.852-61.484-20.131c-19.882-3.721-44.464,2.713-61.484,20.131c-13.061,13.365-22.283,30.165-22.283,51.08c0,4.383,0.5,8.621,1.372,12.654c1.512,12.119,19.372,33.857,24.562,35.884c-1.705-7.79-2.635-15.158-3.001-22.006c13.914-24.748,59.13-52.104,60.835-52.113c1.951,0.011,47.136,27.681,60.811,52.586c-0.384,6.714-1.311,13.923-2.977,21.533c5.136-2.006,22.765-23.128,24.332-34.862C333.23,196.301,333.817,191.716,333.817,186.962z"></path><g><linearGradient id="hair1XMLID_3222_" gradientUnits="userSpaceOnUse" x1="191.1792" y1="224.3335" x2="191.1792" y2="151.667"><stop offset="0" style="stop-color:#FCFCE4"></stop><stop offset="0.5" style="stop-color:#A0C8DD"></stop><stop offset="1" style="stop-color:#5D6EC5"></stop></linearGradient><path style="fill:url(#hair1XMLID_3222_);stroke:#1E1E1E;stroke-linecap:round;stroke-linejoin:round;" d="M206.674,163.616c0,0-13.847,54.177-10.72,79.421s14.294,38.449,11.613,47.381c-3.127,4.66-16.08,13.982-15.634,15.146c0,0,20.101,15.535,20.994,18.643c-2.234,6.99-21.887,19.807-21.887,19.807c-1.34,1.941-6.254,9.32,8.933,19.029c-10.72-2.33-22.334-10.875-24.12-17.477s16.527-20.584,16.527-20.584c-6.253-2.719-19.207-14.369-18.76-17.477c6.253-5.049,25.013-20.584,23.227-22.525c-1.787-1.941-29.845-29.096-27.247-65.246c1.787-24.855,7.593-44.662,15.633-59.032"></path><linearGradient id="hair1XMLID_3223_" gradientUnits="userSpaceOnUse" x1="308.6543" y1="224.3335" x2="308.6543" y2="151.667"><stop offset="0" style="stop-color:#FCFCE4"></stop><stop offset="0.5" style="stop-color:#A0C8DD"></stop><stop offset="1" style="stop-color:#5D6EC5"></stop></linearGradient><path style="fill:url(#hair1XMLID_3223_);stroke:#1E1E1E;stroke-linecap:round;stroke-linejoin:round;" d="M293.159,163.616c0,0,13.847,54.177,10.72,79.421s-14.294,38.449-11.614,47.381c3.127,4.66,16.081,13.982,15.634,15.146c0,0-20.1,15.535-20.993,18.643c2.233,6.99,21.887,19.807,21.887,19.807c1.34,1.941,6.253,9.32-8.934,19.029c10.721-2.33,22.334-10.875,24.12-17.477s-16.526-20.584-16.526-20.584c6.253-2.719,19.207-14.369,18.76-17.477c-6.253-5.049-25.013-20.584-23.227-22.525s29.845-29.096,27.247-65.246c-1.787-24.855-7.594-44.662-15.634-59.032"></path></g></g></g></svg>