<svg xmlns="http://www.w3.org/2000/svg" width="500" height="500" version="1.1"><g id="x107"><g><g><g><linearGradient id="hair1XMLID_3233_" gradientUnits="userSpaceOnUse" x1="250.0503" y1="215" x2="250.0503" y2="145.667"><stop offset="0" style="stop-color:#FCFCE4"></stop><stop offset="0.5" style="stop-color:#A0C8DD"></stop><stop offset="1" style="stop-color:#5D6EC5"></stop></linearGradient><path style="fill:url(#hair1XMLID_3233_);stroke:#1E1E1E;stroke-linecap:round;stroke-linejoin:round;" d="M311.534,135.882c-17.021-17.418-41.603-23.852-61.484-20.131c-19.882-3.721-44.464,2.713-61.484,20.131c-13.061,13.365-22.283,30.165-22.283,51.08c0,24.372,15.268,44.372,25.934,48.538c-7.33-33.49-0.484-59.331,5.084-68.5c1.798-2.157,29.369-5.491,52.75-5.619c23.381,0.128,50.952,3.462,52.75,5.619c5.568,9.169,12.414,35.01,5.084,68.5c10.666-4.167,25.934-24.167,25.934-48.538C333.817,166.047,324.595,149.248,311.534,135.882z"></path><g><linearGradient id="hair1XMLID_3234_" gradientUnits="userSpaceOnUse" x1="327.3848" y1="215" x2="327.3848" y2="145.667"><stop offset="0" style="stop-color:#FCFCE4"></stop><stop offset="0.5" style="stop-color:#A0C8DD"></stop><stop offset="1" style="stop-color:#5D6EC5"></stop></linearGradient><path style="fill:url(#hair1XMLID_3234_);stroke:#1E1E1E;stroke-linecap:round;stroke-linejoin:round;" d="M314.352,188.289c0,0,3.127-7.146,5.807-8.039c2.68-0.894,7.594,1.787,7.594,1.787l4.913-4.914c0,0,6.7,1.787,7.594,4.467c0.893,2.68-2.233,12.061-2.233,12.061l-5.36,0.446c0,0-4.02,5.36-6.7,5.807c-2.68,0.446-9.38-2.681-9.38-2.681L314.352,188.289z"></path><path style="fill:none;stroke:#1E1E1E;stroke-linecap:round;stroke-linejoin:round;" d="M325.965,188.289c0,0,3.127-9.379,4.913-10.272"></path></g><g><linearGradient id="hair1XMLID_3235_" gradientUnits="userSpaceOnUse" x1="172.6147" y1="215" x2="172.6147" y2="145.667"><stop offset="0" style="stop-color:#FCFCE4"></stop><stop offset="0.5" style="stop-color:#A0C8DD"></stop><stop offset="1" style="stop-color:#5D6EC5"></stop></linearGradient><path style="fill:url(#hair1XMLID_3235_);stroke:#1E1E1E;stroke-linecap:round;stroke-linejoin:round;" d="M185.648,188.289c0,0-3.127-7.146-5.807-8.039c-2.68-0.894-7.593,1.787-7.593,1.787l-4.914-4.914c0,0-6.7,1.787-7.593,4.467c-0.894,2.68,2.232,12.061,2.232,12.061l5.36,0.446c0,0,4.02,5.36,6.7,5.807c2.68,0.446,9.38-2.681,9.38-2.681L185.648,188.289z"></path><path style="fill:none;stroke:#1E1E1E;stroke-linecap:round;stroke-linejoin:round;" d="M174.035,188.289c0,0-3.127-9.379-4.913-10.272"></path></g></g></g><linearGradient id="hair1XMLID_3236_" gradientUnits="userSpaceOnUse" x1="302.0684" y1="215" x2="302.0684" y2="145.667"><stop offset="0" style="stop-color:#FCFCE4"></stop><stop offset="0.5" style="stop-color:#A0C8DD"></stop><stop offset="1" style="stop-color:#5D6EC5"></stop></linearGradient><polygon style="fill:url(#hair1XMLID_3236_);stroke:#1E1E1E;stroke-linecap:round;stroke-linejoin:round;" points="312.565,173.996 297.378,167.52 291.571,147.643 304.972,148.09 "></polygon><linearGradient id="hair1XMLID_3237_" gradientUnits="userSpaceOnUse" x1="213.0469" y1="215" x2="213.0469" y2="145.6672"><stop offset="0" style="stop-color:#FCFCE4"></stop><stop offset="0.5" style="stop-color:#A0C8DD"></stop><stop offset="1" style="stop-color:#5D6EC5"></stop></linearGradient><path style="fill:url(#hair1XMLID_3237_);stroke:#1E1E1E;stroke-linecap:round;stroke-linejoin:round;" d="M226.916,157.023c-4.912,18.313-9.38,48.686-11.613,67c-10.719-13.4-19.652-35.287-14.74-66.107"></path><linearGradient id="hair1XMLID_3238_" gradientUnits="userSpaceOnUse" x1="290.9521" y1="215" x2="290.9521" y2="145.6672"><stop offset="0" style="stop-color:#FCFCE4"></stop><stop offset="0.5" style="stop-color:#A0C8DD"></stop><stop offset="1" style="stop-color:#5D6EC5"></stop></linearGradient><path style="fill:url(#hair1XMLID_3238_);stroke:#1E1E1E;stroke-linecap:round;stroke-linejoin:round;" d="M269.686,157.023c9.826,20.1,12.506,39.753,11.613,67c6.241-7.803,11.872-18.488,14.521-32.133c2.586,10.325,7.403,21.965,16.298,27.666c0.894-19.653-4.467-51.813-4.467-51.813"></path><linearGradient id="hair1XMLID_3239_" gradientUnits="userSpaceOnUse" x1="247.936" y1="215" x2="247.936" y2="145.667"><stop offset="0" style="stop-color:#FCFCE4"></stop><stop offset="0.5" style="stop-color:#A0C8DD"></stop><stop offset="1" style="stop-color:#5D6EC5"></stop></linearGradient><path style="fill:url(#hair1XMLID_3239_);stroke:#1E1E1E;stroke-linecap:round;stroke-linejoin:round;" d="M270.132,154.79c0,0,3.127,46.9-5.807,68.787c-0.894-16.973-5.36-35.732-5.36-35.732l-6.699,48.686c0,0-32.161-20.993-26.355-81.74"></path><g><linearGradient id="hair1XMLID_3240_" gradientUnits="userSpaceOnUse" x1="295.5537" y1="215" x2="295.5537" y2="145.6669"><stop offset="0" style="stop-color:#FCFCE4"></stop><stop offset="0.5" style="stop-color:#A0C8DD"></stop><stop offset="1" style="stop-color:#5D6EC5"></stop></linearGradient><path style="fill:url(#hair1XMLID_3240_);stroke:#1E1E1E;stroke-linecap:round;stroke-linejoin:round;" d="M287.764,151.995c2.414,1.699,4.96,3.992,6.712,7.262c4.74,8.849,19.716,75.407-12.061,142.933c18.313-4.467,46.677-51.813,39.083-129.533c0,0-6.253-35.733-43.326-45.113c-6.254,0.447-9.826,4.467-9.826,4.467"></path><linearGradient id="hair1XMLID_3241_" gradientUnits="userSpaceOnUse" x1="317.4629" y1="215" x2="317.4629" y2="145.667"><stop offset="0" style="stop-color:#FCFCE4"></stop><stop offset="0.5" style="stop-color:#A0C8DD"></stop><stop offset="1" style="stop-color:#5D6EC5"></stop></linearGradient><path style="fill:url(#hair1XMLID_3241_);stroke:#1E1E1E;stroke-linecap:round;stroke-linejoin:round;" d="M322.169,198.117c0,1.786-5.806,72.807,1.787,83.525c-14.294-7.146-12.954-28.586-12.954-28.586"></path></g><g><linearGradient id="hair1XMLID_3242_" gradientUnits="userSpaceOnUse" x1="204.9565" y1="215" x2="204.9565" y2="145.6669"><stop offset="0" style="stop-color:#FCFCE4"></stop><stop offset="0.5" style="stop-color:#A0C8DD"></stop><stop offset="1" style="stop-color:#5D6EC5"></stop></linearGradient><path style="fill:url(#hair1XMLID_3242_);stroke:#1E1E1E;stroke-linecap:round;stroke-linejoin:round;" d="M212.595,152.557c-2.261,1.787-4.662,4.02-6.561,6.7c-5.801,8.192-19.717,75.407,12.061,142.933c-18.314-4.467-46.677-51.813-39.083-129.533c0,0,6.253-35.733,43.326-45.113c7.146,0.447,9.826,4.467,9.826,4.467"></path><linearGradient id="hair1XMLID_3243_" gradientUnits="userSpaceOnUse" x1="183.0483" y1="215" x2="183.0483" y2="145.667"><stop offset="0" style="stop-color:#FCFCE4"></stop><stop offset="0.5" style="stop-color:#A0C8DD"></stop><stop offset="1" style="stop-color:#5D6EC5"></stop></linearGradient><path style="fill:url(#hair1XMLID_3243_);stroke:#1E1E1E;stroke-linecap:round;stroke-linejoin:round;" d="M178.341,198.117c0,1.786,5.806,72.807-1.786,83.525c14.293-7.146,12.953-28.586,12.953-28.586"></path></g></g></g></svg>