<svg xmlns="http://www.w3.org/2000/svg" width="500" height="500" version="1.1"><g id="x108"><g><linearGradient id="hair1XMLID_3244_" gradientUnits="userSpaceOnUse" x1="250.0503" y1="217.667" x2="250.0503" y2="148.3335"><stop offset="0" style="stop-color:#FCFCE4"></stop><stop offset="0.5" style="stop-color:#A0C8DD"></stop><stop offset="1" style="stop-color:#5D6EC5"></stop></linearGradient><path style="fill:url(#hair1XMLID_3244_);stroke:#1E1E1E;stroke-linecap:round;stroke-linejoin:round;" d="M311.534,135.882c-17.021-17.418-41.603-23.852-61.484-20.131c-19.882-3.721-44.464,2.713-61.484,20.131c-13.061,13.365-22.283,30.165-22.283,51.08c0,24.372,15.268,44.372,25.934,48.538c-7.33-33.49-0.484-59.331,5.084-68.5c1.798-2.157,29.369-5.491,52.75-5.619c23.381,0.128,50.952,3.462,52.75,5.619c5.568,9.169,12.414,35.01,5.084,68.5c10.666-4.167,25.934-24.167,25.934-48.538C333.817,166.047,324.595,149.248,311.534,135.882z"></path><linearGradient id="hair1XMLID_3245_" gradientUnits="userSpaceOnUse" x1="185.2363" y1="217.667" x2="185.2363" y2="148.3335"><stop offset="0" style="stop-color:#FCFCE4"></stop><stop offset="0.5" style="stop-color:#A0C8DD"></stop><stop offset="1" style="stop-color:#5D6EC5"></stop></linearGradient><path style="fill:url(#hair1XMLID_3245_);stroke:#1E1E1E;stroke-linecap:round;stroke-linejoin:round;" d="M196.847,171.209c-0.893,1.787-11.167,47.348-4.913,71.468c-14.739-16.08-27.247-51.813-9.827-86.654"></path><linearGradient id="hair1XMLID_3246_" gradientUnits="userSpaceOnUse" x1="210.8906" y1="217.667" x2="210.8906" y2="148.3332"><stop offset="0" style="stop-color:#FCFCE4"></stop><stop offset="0.5" style="stop-color:#A0C8DD"></stop><stop offset="1" style="stop-color:#5D6EC5"></stop></linearGradient><path style="fill:url(#hair1XMLID_3246_);stroke:#1E1E1E;stroke-linecap:round;stroke-linejoin:round;" d="M226.773,160.49c0,0-9.826,34.393-5.359,58.067c-11.168-5.807-16.527-18.76-16.08-29.033c-2.233,12.506-1.787,19.207-0.447,26.354c-9.826-8.487-13.847-40.2-4.913-62.087"></path><linearGradient id="hair1XMLID_3247_" gradientUnits="userSpaceOnUse" x1="249.563" y1="217.667" x2="249.563" y2="148.3335"><stop offset="0" style="stop-color:#FCFCE4"></stop><stop offset="0.5" style="stop-color:#A0C8DD"></stop><stop offset="1" style="stop-color:#5D6EC5"></stop></linearGradient><path style="fill:url(#hair1XMLID_3247_);stroke:#1E1E1E;stroke-linecap:round;stroke-linejoin:round;" d="M274.119,152.003c0,0,12.954,38.413-8.486,71.021c5.562-22.781,0.446-54.494,0.446-54.494s-2.232,33.053-8.04,54.494c-11.926-3.574-15.984-23.228-16.526-26.354c-5.36,9.826-3.907,26.8-3.907,26.8s-30.485-22.444-8.525-71.913"></path><g><linearGradient id="hair1XMLID_3248_" gradientUnits="userSpaceOnUse" x1="309.0879" y1="217.667" x2="309.0879" y2="148.3335"><stop offset="0" style="stop-color:#FCFCE4"></stop><stop offset="0.5" style="stop-color:#A0C8DD"></stop><stop offset="1" style="stop-color:#5D6EC5"></stop></linearGradient><path style="fill:url(#hair1XMLID_3248_);stroke:#1E1E1E;stroke-linecap:round;stroke-linejoin:round;" d="M296.453,164.51c0,0,10.44,47.968,4.633,108.471c-1.953,21.063-9.1,37.59-2.399,64.389c0-10.719,9.827-46.453,10.272-48.24l-0.098,0.096c14.627-45.301,16.263-107.185,9.925-133.202"></path><path style="fill:none;stroke:#1E1E1E;stroke-linecap:round;stroke-linejoin:round;" d="M309.406,221.236c0,0,0.224,19.652-7.816,49.133"></path></g></g></g></svg>