<svg xmlns="http://www.w3.org/2000/svg" width="500" height="500" version="1.1"><g id="x123"><g><linearGradient id="hair1XMLID_3342_" gradientUnits="userSpaceOnUse" x1="250.0503" y1="215.3335" x2="250.0503" y2="152.667"><stop offset="0" style="stop-color:#FCFCE4"></stop><stop offset="0.5" style="stop-color:#A0C8DD"></stop><stop offset="1" style="stop-color:#5D6EC5"></stop></linearGradient><path style="fill:url(#hair1XMLID_3342_);stroke:#1E1E1E;stroke-linecap:round;stroke-linejoin:round;" d="M311.534,135.882c-17.021-17.418-41.603-23.852-61.484-20.131c-19.882-3.721-44.464,2.713-61.484,20.131c-13.061,13.365-22.283,30.165-22.283,51.08c0,24.372,15.268,44.372,25.934,48.538c-7.33-33.49-0.484-59.331,5.084-68.5c1.798-2.157,29.369-5.491,52.75-5.619c23.381,0.128,50.952,3.462,52.75,5.619c5.568,9.169,12.414,35.01,5.084,68.5c10.666-4.167,25.934-24.167,25.934-48.538C333.817,166.047,324.595,149.248,311.534,135.882z"></path><g><linearGradient id="hair1XMLID_3343_" gradientUnits="userSpaceOnUse" x1="267.5908" y1="215.3335" x2="267.5908" y2="152.6668"><stop offset="0" style="stop-color:#FCFCE4"></stop><stop offset="0.5" style="stop-color:#A0C8DD"></stop><stop offset="1" style="stop-color:#5D6EC5"></stop></linearGradient><path style="fill:url(#hair1XMLID_3343_);stroke:#1E1E1E;stroke-linecap:round;stroke-linejoin:round;" d="M221.191,155.12c0,0-2.345,52.93,55.945,57.285c32.16,1.676,36.515-2.01,36.515-2.01s4.021-33.5-15.075-48.91"></path><path style="fill:none;stroke:#1E1E1E;stroke-linecap:round;stroke-linejoin:round;" d="M281.826,164.165c0,0,22.775,18.76,25.793,49.246"></path></g><g><g><linearGradient id="hair1XMLID_3344_" gradientUnits="userSpaceOnUse" x1="319.2402" y1="215.3335" x2="319.2402" y2="152.6669"><stop offset="0" style="stop-color:#FCFCE4"></stop><stop offset="0.5" style="stop-color:#A0C8DD"></stop><stop offset="1" style="stop-color:#5D6EC5"></stop></linearGradient><path style="fill:url(#hair1XMLID_3344_);stroke:#1E1E1E;stroke-linecap:round;stroke-linejoin:round;" d="M310.611,262.813c0,0,2.593,9.104,9.715,4.354c7.035-4.689,2.01-14.069,2.01-14.069s13.735,17.085-1.34,22.444C308.121,280.121,310.611,262.813,310.611,262.813z"></path><linearGradient id="hair1XMLID_3345_" gradientUnits="userSpaceOnUse" x1="303.8203" y1="215.3335" x2="303.8203" y2="152.6672"><stop offset="0" style="stop-color:#FCFCE4"></stop><stop offset="0.5" style="stop-color:#A0C8DD"></stop><stop offset="1" style="stop-color:#5D6EC5"></stop></linearGradient><path style="fill:url(#hair1XMLID_3345_);stroke:#1E1E1E;stroke-linecap:round;stroke-linejoin:round;" d="M312.28,265.507c0,0,10.486,11.827,1.152,28.66c1.334-6.5-1.822-13.25-1.822-13.25s3.578,19.725-14.177,25.084c0.833-7.667-6.335-13.667-7.001-21.667s2.245-15.866,8.668-18.167C305.131,268.177,312.28,265.507,312.28,265.507z"></path><linearGradient id="hair1XMLID_3346_" gradientUnits="userSpaceOnUse" x1="313.5547" y1="215.3335" x2="313.5547" y2="152.667"><stop offset="0" style="stop-color:#FCFCE4"></stop><stop offset="0.5" style="stop-color:#A0C8DD"></stop><stop offset="1" style="stop-color:#5D6EC5"></stop></linearGradient><path style="fill:url(#hair1XMLID_3346_);stroke:#1E1E1E;stroke-linecap:round;stroke-linejoin:round;" d="M316.767,203.333c0,0,17.756,34.252,13.584,45.25c-3.686,9.716-18.918,21.083-18.918,21.083s-7.666,3.167-13.166-2.167c-8-20.5,8.969-45.045,9.304-54.09"></path><path style="fill:none;stroke:#1E1E1E;stroke-linecap:round;stroke-linejoin:round;" d="M304.85,270.549c1-0.75,8.25-1,16.25-24.999"></path><linearGradient id="hair1XMLID_3347_" gradientUnits="userSpaceOnUse" x1="309.7939" y1="215.3335" x2="309.7939" y2="152.6669"><stop offset="0" style="stop-color:#FCFCE4"></stop><stop offset="0.5" style="stop-color:#A0C8DD"></stop><stop offset="1" style="stop-color:#5D6EC5"></stop></linearGradient><path style="fill:url(#hair1XMLID_3347_);stroke:#1E1E1E;stroke-linecap:round;stroke-linejoin:round;" d="M307.219,213.41c0,0,5.024,27.805-7.37,35.844c11.585-2.087,21.104-10.385,19.765-39.194"></path><linearGradient id="hair1XMLID_3348_" gradientUnits="userSpaceOnUse" x1="325.1602" y1="215.3335" x2="325.1602" y2="152.6669"><stop offset="0" style="stop-color:#FCFCE4"></stop><stop offset="0.5" style="stop-color:#A0C8DD"></stop><stop offset="1" style="stop-color:#5D6EC5"></stop></linearGradient><path style="fill:url(#hair1XMLID_3348_);stroke:#1E1E1E;stroke-linecap:round;stroke-linejoin:round;" d="M305.1,198c1,2-8.197,19.995,12.5,28.5c18.25,7.5,33.5-15.833,27.474-31.516c-4.474,13.266-13.089,18.044-23.474,12.349s-9.25-13.083-8.017-22.399"></path></g><g><linearGradient id="hair1XMLID_3349_" gradientUnits="userSpaceOnUse" x1="180.7603" y1="215.3335" x2="180.7603" y2="152.6669"><stop offset="0" style="stop-color:#FCFCE4"></stop><stop offset="0.5" style="stop-color:#A0C8DD"></stop><stop offset="1" style="stop-color:#5D6EC5"></stop></linearGradient><path style="fill:url(#hair1XMLID_3349_);stroke:#1E1E1E;stroke-linecap:round;stroke-linejoin:round;" d="M189.389,262.813c0,0-2.593,9.104-9.715,4.354c-7.035-4.689-2.01-14.069-2.01-14.069s-13.735,17.085,1.34,22.444C191.879,280.121,189.389,262.813,189.389,262.813z"></path><linearGradient id="hair1XMLID_3350_" gradientUnits="userSpaceOnUse" x1="196.1792" y1="215.3335" x2="196.1792" y2="152.6672"><stop offset="0" style="stop-color:#FCFCE4"></stop><stop offset="0.5" style="stop-color:#A0C8DD"></stop><stop offset="1" style="stop-color:#5D6EC5"></stop></linearGradient><path style="fill:url(#hair1XMLID_3350_);stroke:#1E1E1E;stroke-linecap:round;stroke-linejoin:round;" d="M187.72,265.507c0,0-10.486,11.827-1.152,28.66c-1.334-6.5,1.822-13.25,1.822-13.25s-3.578,19.725,14.177,25.084c-0.833-7.667,6.335-13.667,7.001-21.667s-2.245-15.866-8.668-18.167C194.869,268.177,187.72,265.507,187.72,265.507z"></path><linearGradient id="hair1XMLID_3351_" gradientUnits="userSpaceOnUse" x1="186.4448" y1="215.3335" x2="186.4448" y2="152.667"><stop offset="0" style="stop-color:#FCFCE4"></stop><stop offset="0.5" style="stop-color:#A0C8DD"></stop><stop offset="1" style="stop-color:#5D6EC5"></stop></linearGradient><path style="fill:url(#hair1XMLID_3351_);stroke:#1E1E1E;stroke-linecap:round;stroke-linejoin:round;" d="M183.233,203.333c0,0-17.756,34.252-13.584,45.25c3.686,9.716,18.918,21.083,18.918,21.083s7.666,3.167,13.166-2.167c8-20.5-8.969-45.045-9.304-54.09"></path><path style="fill:none;stroke:#1E1E1E;stroke-linecap:round;stroke-linejoin:round;" d="M195.15,270.549c-1-0.75-8.25-1-16.25-24.999"></path><linearGradient id="hair1XMLID_3352_" gradientUnits="userSpaceOnUse" x1="190.2061" y1="215.3335" x2="190.2061" y2="152.6669"><stop offset="0" style="stop-color:#FCFCE4"></stop><stop offset="0.5" style="stop-color:#A0C8DD"></stop><stop offset="1" style="stop-color:#5D6EC5"></stop></linearGradient><path style="fill:url(#hair1XMLID_3352_);stroke:#1E1E1E;stroke-linecap:round;stroke-linejoin:round;" d="M192.781,213.41c0,0-5.024,27.805,7.37,35.844c-11.585-2.087-21.104-10.385-19.765-39.194"></path><linearGradient id="hair1XMLID_3353_" gradientUnits="userSpaceOnUse" x1="174.8408" y1="215.3335" x2="174.8408" y2="152.6669"><stop offset="0" style="stop-color:#FCFCE4"></stop><stop offset="0.5" style="stop-color:#A0C8DD"></stop><stop offset="1" style="stop-color:#5D6EC5"></stop></linearGradient><path style="fill:url(#hair1XMLID_3353_);stroke:#1E1E1E;stroke-linecap:round;stroke-linejoin:round;" d="M194.9,198c-1,2,8.197,19.995-12.5,28.5c-18.25,7.5-33.5-15.833-27.474-31.516c4.474,13.266,13.089,18.044,23.474,12.349s9.25-13.083,8.017-22.399"></path></g></g><linearGradient id="hair1XMLID_3354_" gradientUnits="userSpaceOnUse" x1="304.5518" y1="215.3335" x2="304.5518" y2="152.667"><stop offset="0" style="stop-color:#FCFCE4"></stop><stop offset="0.5" style="stop-color:#A0C8DD"></stop><stop offset="1" style="stop-color:#5D6EC5"></stop></linearGradient><path style="fill:url(#hair1XMLID_3354_);stroke:#1E1E1E;stroke-linecap:round;stroke-linejoin:round;" d="M286.182,149.425c0.335,1.34,32.515,37.185,10.74,85.76c9.045-4.354,39.175-41.205,19.409-81.74"></path><g><linearGradient id="hair1XMLID_3355_" gradientUnits="userSpaceOnUse" x1="200.9155" y1="215.3335" x2="200.9155" y2="152.667"><stop offset="0" style="stop-color:#FCFCE4"></stop><stop offset="0.5" style="stop-color:#A0C8DD"></stop><stop offset="1" style="stop-color:#5D6EC5"></stop></linearGradient><path style="fill:url(#hair1XMLID_3355_);stroke:#1E1E1E;stroke-linecap:round;stroke-linejoin:round;" d="M220.856,161.82c0,0,0.67,38.525-23.45,50.92c-4.02,5.359-11.39,12.06-11.39,12.06s-12.396-22.11,1.675-57.955"></path><path style="fill:none;stroke:#1E1E1E;stroke-linecap:round;stroke-linejoin:round;" d="M194.727,216.09c0,0,10.72-10.721,12.395-34.506"></path></g></g></g></svg>