<svg xmlns="http://www.w3.org/2000/svg" width="500" height="500" version="1.1"><g id="x124"><g><linearGradient id="hair1XMLID_3356_" gradientUnits="userSpaceOnUse" x1="250.0503" y1="235.3335" x2="250.0503" y2="174"><stop offset="0" style="stop-color:#FCFCE4"></stop><stop offset="0.5" style="stop-color:#A0C8DD"></stop><stop offset="1" style="stop-color:#5D6EC5"></stop></linearGradient><path style="fill:url(#hair1XMLID_3356_);stroke:#1E1E1E;stroke-linecap:round;stroke-linejoin:round;" d="M311.534,135.882c-17.021-17.418-41.603-23.852-61.484-20.131c-19.882-3.721-44.464,2.713-61.484,20.131c-13.061,13.365-22.283,30.165-22.283,51.08c0,24.372,15.268,44.372,25.934,48.538c-7.33-33.49-0.484-59.331,5.084-68.5c1.798-2.157,27.319-5.491,50.7-5.619c5.75-3.506,11.877-7.933,16.334-7.714c2.291,1.833,7.916,5.333,13.984,9.137c13.107,1.195,23.406,2.906,24.481,4.197c5.568,9.169,12.414,35.01,5.084,68.5c10.666-4.167,25.934-24.167,25.934-48.538C333.817,166.047,324.595,149.248,311.534,135.882z"></path><linearGradient id="hair1XMLID_3357_" gradientUnits="userSpaceOnUse" x1="224.9111" y1="235.3335" x2="224.9111" y2="174"><stop offset="0" style="stop-color:#FCFCE4"></stop><stop offset="0.5" style="stop-color:#A0C8DD"></stop><stop offset="1" style="stop-color:#5D6EC5"></stop></linearGradient><path style="fill:url(#hair1XMLID_3357_);stroke:#1E1E1E;stroke-linecap:round;stroke-linejoin:round;" d="M264.325,153.11c0,0-57.62,24.791-77.72,71.02c-3.351-20.435,0.335-45.896,18.76-66.665"></path><linearGradient id="hair1XMLID_3358_" gradientUnits="userSpaceOnUse" x1="287.7871" y1="235.3335" x2="287.7871" y2="173.9998"><stop offset="0" style="stop-color:#FCFCE4"></stop><stop offset="0.5" style="stop-color:#A0C8DD"></stop><stop offset="1" style="stop-color:#5D6EC5"></stop></linearGradient><path style="fill:url(#hair1XMLID_3358_);stroke:#1E1E1E;stroke-linecap:round;stroke-linejoin:round;" d="M264.123,153.45c0,0,33.032,21.435,46.432,54.265c3.016-15.41-2.01-41.875-8.71-48.91"></path><g><g><linearGradient id="hair1XMLID_3359_" gradientUnits="userSpaceOnUse" x1="320.2559" y1="235.3335" x2="320.2559" y2="174"><stop offset="0" style="stop-color:#FCFCE4"></stop><stop offset="0.5" style="stop-color:#A0C8DD"></stop><stop offset="1" style="stop-color:#5D6EC5"></stop></linearGradient><path style="fill:url(#hair1XMLID_3359_);stroke:#1E1E1E;stroke-linecap:round;stroke-linejoin:round;" d="M324.134,176c0,0,9.9,11.651,6,37c-5.334,34.667-20.667,44.667-20.667,44.667L313.134,175"></path><g><linearGradient id="hair1XMLID_3360_" gradientUnits="userSpaceOnUse" x1="323.834" y1="235.3335" x2="323.834" y2="173.9999"><stop offset="0" style="stop-color:#FCFCE4"></stop><stop offset="0.5" style="stop-color:#A0C8DD"></stop><stop offset="1" style="stop-color:#5D6EC5"></stop></linearGradient><path style="fill:url(#hair1XMLID_3360_);stroke:#1E1E1E;stroke-linecap:round;stroke-linejoin:round;" d="M322.909,154.45c0,0,43.886,72.695-14.069,164.484c29.814-72.359,22.779-124.954,11.39-146.059"></path><linearGradient id="hair1XMLID_3361_" gradientUnits="userSpaceOnUse" x1="319.4004" y1="235.3335" x2="319.4004" y2="174"><stop offset="0" style="stop-color:#FCFCE4"></stop><stop offset="0.5" style="stop-color:#A0C8DD"></stop><stop offset="1" style="stop-color:#5D6EC5"></stop></linearGradient><path style="fill:url(#hair1XMLID_3361_);stroke:#1E1E1E;stroke-linecap:round;stroke-linejoin:round;" d="M335.145,224.465c0,0-9.715,53.936-31.489,68.34c3.015-8.375,2.01-7.371,2.01-7.371s23.45-49.579,24.455-82.074"></path></g><g><linearGradient id="hair1XMLID_3362_" gradientUnits="userSpaceOnUse" x1="300.709" y1="235.3335" x2="300.709" y2="174"><stop offset="0" style="stop-color:#FCFCE4"></stop><stop offset="0.5" style="stop-color:#A0C8DD"></stop><stop offset="1" style="stop-color:#5D6EC5"></stop></linearGradient><path style="fill:url(#hair1XMLID_3362_);stroke:#1E1E1E;stroke-linecap:round;stroke-linejoin:round;" d="M307.249,206.375c0,3.685-13.582,56.809-13.064,81.404c0.67,31.824,5.023,41.205,5.023,41.205"></path><linearGradient id="hair1XMLID_3363_" gradientUnits="userSpaceOnUse" x1="308.627" y1="235.3335" x2="308.627" y2="174"><stop offset="0" style="stop-color:#FCFCE4"></stop><stop offset="0.5" style="stop-color:#A0C8DD"></stop><stop offset="1" style="stop-color:#5D6EC5"></stop></linearGradient><path style="fill:url(#hair1XMLID_3363_);stroke:#1E1E1E;stroke-linecap:round;stroke-linejoin:round;" d="M302.56,154.45c0,2.345,5.023,46.565-2.682,117.25c-5.682,52.133-2.68,76.715,4.691,96.814c-2.68-48.238,6.648-79.236,10.719-110.549c4.355-33.5,7.371-80.064,2.682-91.79"></path></g></g><g><linearGradient id="hair1XMLID_3364_" gradientUnits="userSpaceOnUse" x1="179.7446" y1="235.3335" x2="179.7446" y2="174"><stop offset="0" style="stop-color:#FCFCE4"></stop><stop offset="0.5" style="stop-color:#A0C8DD"></stop><stop offset="1" style="stop-color:#5D6EC5"></stop></linearGradient><path style="fill:url(#hair1XMLID_3364_);stroke:#1E1E1E;stroke-linecap:round;stroke-linejoin:round;" d="M175.866,176c0,0-9.9,11.651-6,37c5.334,34.667,20.667,44.667,20.667,44.667L186.866,175"></path><g><linearGradient id="hair1XMLID_3365_" gradientUnits="userSpaceOnUse" x1="176.1655" y1="235.3335" x2="176.1655" y2="173.9999"><stop offset="0" style="stop-color:#FCFCE4"></stop><stop offset="0.5" style="stop-color:#A0C8DD"></stop><stop offset="1" style="stop-color:#5D6EC5"></stop></linearGradient><path style="fill:url(#hair1XMLID_3365_);stroke:#1E1E1E;stroke-linecap:round;stroke-linejoin:round;" d="M177.091,154.45c0,0-43.886,72.695,14.069,164.484c-29.814-72.359-22.779-124.954-11.39-146.059"></path><linearGradient id="hair1XMLID_3366_" gradientUnits="userSpaceOnUse" x1="180.6001" y1="235.3335" x2="180.6001" y2="174"><stop offset="0" style="stop-color:#FCFCE4"></stop><stop offset="0.5" style="stop-color:#A0C8DD"></stop><stop offset="1" style="stop-color:#5D6EC5"></stop></linearGradient><path style="fill:url(#hair1XMLID_3366_);stroke:#1E1E1E;stroke-linecap:round;stroke-linejoin:round;" d="M164.855,224.465c0,0,9.715,53.936,31.489,68.34c-3.015-8.375-2.01-7.371-2.01-7.371s-23.45-49.579-24.455-82.074"></path></g><g><linearGradient id="hair1XMLID_3367_" gradientUnits="userSpaceOnUse" x1="199.2905" y1="235.3335" x2="199.2905" y2="174"><stop offset="0" style="stop-color:#FCFCE4"></stop><stop offset="0.5" style="stop-color:#A0C8DD"></stop><stop offset="1" style="stop-color:#5D6EC5"></stop></linearGradient><path style="fill:url(#hair1XMLID_3367_);stroke:#1E1E1E;stroke-linecap:round;stroke-linejoin:round;" d="M192.751,206.375c0,3.685,13.582,56.809,13.064,81.404c-0.67,31.824-5.023,41.205-5.023,41.205"></path><linearGradient id="hair1XMLID_3368_" gradientUnits="userSpaceOnUse" x1="191.3735" y1="235.3335" x2="191.3735" y2="174"><stop offset="0" style="stop-color:#FCFCE4"></stop><stop offset="0.5" style="stop-color:#A0C8DD"></stop><stop offset="1" style="stop-color:#5D6EC5"></stop></linearGradient><path style="fill:url(#hair1XMLID_3368_);stroke:#1E1E1E;stroke-linecap:round;stroke-linejoin:round;" d="M197.44,154.45c0,2.345-5.023,46.565,2.682,117.25c5.682,52.133,2.68,76.715-4.691,96.814c2.68-48.238-6.648-79.236-10.719-110.549c-4.355-33.5-7.371-80.064-2.682-91.79"></path></g></g></g></g></g></svg>