<svg xmlns="http://www.w3.org/2000/svg" width="500" height="500" version="1.1"><g id="x125"><g><g><linearGradient id="hair1XMLID_3369_" gradientUnits="userSpaceOnUse" x1="303.957" y1="223.333" x2="303.957" y2="151.9995"><stop offset="0" style="stop-color:#FCFCE4"></stop><stop offset="0.5" style="stop-color:#A0C8DD"></stop><stop offset="1" style="stop-color:#5D6EC5"></stop></linearGradient><path style="fill:url(#hair1XMLID_3369_);stroke:#1E1E1E;stroke-linecap:round;stroke-linejoin:round;" d="M311.313,227.705c0,0,12.01,72.373-9.041,109.742c-6.195-19.539-9.082-41.691-9.082-41.691l3.846-46.707"></path><g><linearGradient id="hair1XMLID_3370_" gradientUnits="userSpaceOnUse" x1="297.3145" y1="223.3335" x2="297.3145" y2="152.0002"><stop offset="0" style="stop-color:#FCFCE4"></stop><stop offset="0.5" style="stop-color:#A0C8DD"></stop><stop offset="1" style="stop-color:#5D6EC5"></stop></linearGradient><path style="fill:url(#hair1XMLID_3370_);stroke:#1E1E1E;stroke-linecap:round;stroke-linejoin:round;" d="M306.795,327.512c-0.596,2.762-8.967,36.938-8.689,55.779c-8.811-18.803-12.113-20.236-9.285-35.377c1.412-7.57,5.658-11.857,9.676-14.658"></path><linearGradient id="hair1XMLID_3371_" gradientUnits="userSpaceOnUse" x1="303.4746" y1="223.3335" x2="303.4746" y2="152.0001"><stop offset="0" style="stop-color:#FCFCE4"></stop><stop offset="0.5" style="stop-color:#A0C8DD"></stop><stop offset="1" style="stop-color:#5D6EC5"></stop></linearGradient><path style="fill:url(#hair1XMLID_3371_);stroke:#1E1E1E;stroke-linecap:round;stroke-linejoin:round;" d="M302.693,335.152c0,0-0.537,44.098,7.047,55.846c-9.707-10.615-12.904-19.25-12.496-31.879"></path></g><linearGradient id="hair1XMLID_3372_" gradientUnits="userSpaceOnUse" x1="297.3047" y1="223.3335" x2="297.3047" y2="152"><stop offset="0" style="stop-color:#FCFCE4"></stop><stop offset="0.5" style="stop-color:#A0C8DD"></stop><stop offset="1" style="stop-color:#5D6EC5"></stop></linearGradient><path style="fill:url(#hair1XMLID_3372_);stroke:#1E1E1E;stroke-linecap:round;stroke-linejoin:round;" d="M297.996,274.107c0,0-13.553,36.094,3.682,66.102c-4.307-35.027-0.045-53.471-0.045-53.471"></path></g><g><linearGradient id="hair1XMLID_3373_" gradientUnits="userSpaceOnUse" x1="189.3911" y1="223.3335" x2="189.3911" y2="152"><stop offset="0" style="stop-color:#FCFCE4"></stop><stop offset="0.5" style="stop-color:#A0C8DD"></stop><stop offset="1" style="stop-color:#5D6EC5"></stop></linearGradient><path style="fill:url(#hair1XMLID_3373_);stroke:#1E1E1E;stroke-linecap:round;stroke-linejoin:round;" d="M182.036,227.705c0,0-12.011,72.373,9.04,109.742c6.195-19.539,9.083-41.691,9.083-41.691l-11.807-68.373"></path><g><linearGradient id="hair1XMLID_3374_" gradientUnits="userSpaceOnUse" x1="196.0327" y1="223.3335" x2="196.0327" y2="152.0002"><stop offset="0" style="stop-color:#FCFCE4"></stop><stop offset="0.5" style="stop-color:#A0C8DD"></stop><stop offset="1" style="stop-color:#5D6EC5"></stop></linearGradient><path style="fill:url(#hair1XMLID_3374_);stroke:#1E1E1E;stroke-linecap:round;stroke-linejoin:round;" d="M186.552,327.512c0.595,2.762,8.967,36.938,8.689,55.779c8.811-18.803,12.113-20.236,9.286-35.377c-1.413-7.57-5.66-11.857-9.677-14.658"></path><linearGradient id="hair1XMLID_3375_" gradientUnits="userSpaceOnUse" x1="189.8726" y1="223.3335" x2="189.8726" y2="152.0001"><stop offset="0" style="stop-color:#FCFCE4"></stop><stop offset="0.5" style="stop-color:#A0C8DD"></stop><stop offset="1" style="stop-color:#5D6EC5"></stop></linearGradient><path style="fill:url(#hair1XMLID_3375_);stroke:#1E1E1E;stroke-linecap:round;stroke-linejoin:round;" d="M190.654,335.152c0,0,0.537,44.098-7.047,55.846c9.707-10.615,12.903-19.25,12.497-31.879"></path></g><linearGradient id="hair1XMLID_3376_" gradientUnits="userSpaceOnUse" x1="196.043" y1="223.3335" x2="196.043" y2="152"><stop offset="0" style="stop-color:#FCFCE4"></stop><stop offset="0.5" style="stop-color:#A0C8DD"></stop><stop offset="1" style="stop-color:#5D6EC5"></stop></linearGradient><path style="fill:url(#hair1XMLID_3376_);stroke:#1E1E1E;stroke-linecap:round;stroke-linejoin:round;" d="M195.351,274.107c0,0,13.552,36.094-3.681,66.102c4.305-35.027,0.044-53.471,0.044-53.471"></path></g><linearGradient id="hair1XMLID_3377_" gradientUnits="userSpaceOnUse" x1="250.0503" y1="223.3335" x2="250.0503" y2="152"><stop offset="0" style="stop-color:#FCFCE4"></stop><stop offset="0.5" style="stop-color:#A0C8DD"></stop><stop offset="1" style="stop-color:#5D6EC5"></stop></linearGradient><path style="fill:url(#hair1XMLID_3377_);stroke:#1E1E1E;stroke-linecap:round;stroke-linejoin:round;" d="M311.534,135.882c-17.021-17.418-41.603-23.852-61.484-20.131c-19.882-3.721-44.464,2.713-61.484,20.131c-13.061,13.365-22.283,30.165-22.283,51.08c0,24.372,15.268,44.372,25.934,48.538c-7.33-33.49-0.484-59.331,5.084-68.5c1.798-2.157,29.369-5.491,52.75-5.619c23.381,0.128,50.952,3.462,52.75,5.619c5.568,9.169,12.414,35.01,5.084,68.5c10.666-4.167,25.934-24.167,25.934-48.538C333.817,166.047,324.595,149.248,311.534,135.882z"></path><linearGradient id="hair1XMLID_3378_" gradientUnits="userSpaceOnUse" x1="328.1582" y1="223.3335" x2="328.1582" y2="152"><stop offset="0" style="stop-color:#FCFCE4"></stop><stop offset="0.5" style="stop-color:#A0C8DD"></stop><stop offset="1" style="stop-color:#5D6EC5"></stop></linearGradient><path style="fill:url(#hair1XMLID_3378_);stroke:#1E1E1E;stroke-linecap:round;stroke-linejoin:round;" d="M309.398,199.243c3.127,34.84,23.674,47.794,37.52,49.134c-20.545-15.188-17.42-67-17.42-67s-1.787-22.78-12.061-32.161"></path><linearGradient id="hair1XMLID_3379_" gradientUnits="userSpaceOnUse" x1="304.0254" y1="223.3335" x2="304.0254" y2="151.9999"><stop offset="0" style="stop-color:#FCFCE4"></stop><stop offset="0.5" style="stop-color:#A0C8DD"></stop><stop offset="1" style="stop-color:#5D6EC5"></stop></linearGradient><path style="fill:url(#hair1XMLID_3379_);stroke:#1E1E1E;stroke-linecap:round;stroke-linejoin:round;" d="M304.484,214.877c0,0,0.895,26.353-12.953,39.752c17.867-2.68,28.141-21.439,24.121-47.793"></path><linearGradient id="hair1XMLID_3380_" gradientUnits="userSpaceOnUse" x1="303.6104" y1="223.3335" x2="303.6104" y2="152.0003"><stop offset="0" style="stop-color:#FCFCE4"></stop><stop offset="0.5" style="stop-color:#A0C8DD"></stop><stop offset="1" style="stop-color:#5D6EC5"></stop></linearGradient><path style="fill:url(#hair1XMLID_3380_);stroke:#1E1E1E;stroke-linecap:round;stroke-linejoin:round;" d="M290.639,164.627c0,2.68,14.293,34.84,10.721,64.319c13.846-16.526,19.205-51.813,12.061-71.02"></path><linearGradient id="hair1XMLID_3381_" gradientUnits="userSpaceOnUse" x1="175.3506" y1="223.3335" x2="175.3506" y2="152"><stop offset="0" style="stop-color:#FCFCE4"></stop><stop offset="0.5" style="stop-color:#A0C8DD"></stop><stop offset="1" style="stop-color:#5D6EC5"></stop></linearGradient><path style="fill:url(#hair1XMLID_3381_);stroke:#1E1E1E;stroke-linecap:round;stroke-linejoin:round;" d="M185.896,146.983c0,0-21.217,28.14-25.237,72.361c-7.146-32.607,4.021-72.361,31.49-87.994"></path><linearGradient id="hair1XMLID_3382_" gradientUnits="userSpaceOnUse" x1="170.7173" y1="223.3335" x2="170.7173" y2="152"><stop offset="0" style="stop-color:#FCFCE4"></stop><stop offset="0.5" style="stop-color:#A0C8DD"></stop><stop offset="1" style="stop-color:#5D6EC5"></stop></linearGradient><path style="fill:url(#hair1XMLID_3382_);stroke:#1E1E1E;stroke-linecap:round;stroke-linejoin:round;" d="M183.829,218.989c-3.82,12.505-7.854,26.333-30.747,42.106c23.211-40.859-2.862-84.887,35.271-119.473"></path><linearGradient id="hair1XMLID_3383_" gradientUnits="userSpaceOnUse" x1="207.603" y1="223.3335" x2="207.603" y2="152"><stop offset="0" style="stop-color:#FCFCE4"></stop><stop offset="0.5" style="stop-color:#A0C8DD"></stop><stop offset="1" style="stop-color:#5D6EC5"></stop></linearGradient><path style="fill:url(#hair1XMLID_3383_);stroke:#1E1E1E;stroke-linecap:round;stroke-linejoin:round;" d="M194.159,146.983c-38.859,42.88-22.333,87.546-7.593,108.093c1.34-25.906,4.913-49.58,25.013-78.613c-4.466,10.273-9.38,32.607-5.806,42.881c4.913-16.08,9.826-29.48,17.866-39.754c-2.233,4.467-8.04,30.82-2.681,44.22c4.021-21.886,13.848-41.986,14.294-41.093l9.826-28.587"></path><linearGradient id="hair1XMLID_3384_" gradientUnits="userSpaceOnUse" x1="256.833" y1="223.3335" x2="256.833" y2="152"><stop offset="0" style="stop-color:#FCFCE4"></stop><stop offset="0.5" style="stop-color:#A0C8DD"></stop><stop offset="1" style="stop-color:#5D6EC5"></stop></linearGradient><path style="fill:url(#hair1XMLID_3384_);stroke:#1E1E1E;stroke-linecap:round;stroke-linejoin:round;" d="M282.152,161.053c0,0-0.447,37.296-33.053,59.629c5.36-4.466,14.293-29.927,14.293-29.927s-13.401,30.82-30.374,39.307c-0.894-22.779-6.254-50.92,10.72-79.506"></path><linearGradient id="hair1XMLID_3385_" gradientUnits="userSpaceOnUse" x1="284.8828" y1="223.3335" x2="284.8828" y2="152.0001"><stop offset="0" style="stop-color:#FCFCE4"></stop><stop offset="0.5" style="stop-color:#A0C8DD"></stop><stop offset="1" style="stop-color:#5D6EC5"></stop></linearGradient><path style="fill:url(#hair1XMLID_3385_);stroke:#1E1E1E;stroke-linecap:round;stroke-linejoin:round;" d="M291.086,155.47c0,1.787,8.039,36.627-13.848,59.854c5.809-19.653,1.787-55.387,1.787-55.387"></path><linearGradient id="hair1XMLID_3386_" gradientUnits="userSpaceOnUse" x1="233.9121" y1="223.3335" x2="233.9121" y2="152"><stop offset="0" style="stop-color:#FCFCE4"></stop><stop offset="0.5" style="stop-color:#A0C8DD"></stop><stop offset="1" style="stop-color:#5D6EC5"></stop></linearGradient><path style="fill:url(#hair1XMLID_3386_);stroke:#1E1E1E;stroke-linecap:round;stroke-linejoin:round;" d="M237.486,118.843c-1.34,0-25.014-6.7-50.027,8.486c13.848-19.653,63.428-29.48,92.907-4.02"></path></g></g></svg>