<svg xmlns="http://www.w3.org/2000/svg" width="500" height="500" version="1.1"><g id="x126"><g><linearGradient id="hair1XMLID_3387_" gradientUnits="userSpaceOnUse" x1="250.0503" y1="207.3335" x2="250.0503" y2="150"><stop offset="0" style="stop-color:#FCFCE4"></stop><stop offset="0.5" style="stop-color:#A0C8DD"></stop><stop offset="1" style="stop-color:#5D6EC5"></stop></linearGradient><path style="fill:url(#hair1XMLID_3387_);stroke:#1E1E1E;stroke-linecap:round;stroke-linejoin:round;" d="M311.534,135.882c-17.021-17.418-41.603-23.852-61.484-20.131c-19.882-3.721-44.464,2.713-61.484,20.131c-13.061,13.365-22.283,30.165-22.283,51.08c0,24.372,15.268,44.372,25.934,48.538c-7.33-33.49-0.484-59.331,5.084-68.5c1.798-2.157,29.369-5.491,52.75-5.619c23.381,0.128,50.952,3.462,52.75,5.619c5.568,9.169,12.414,35.01,5.084,68.5c10.666-4.167,25.934-24.167,25.934-48.538C333.817,166.047,324.595,149.248,311.534,135.882z"></path><linearGradient id="hair1XMLID_3388_" gradientUnits="userSpaceOnUse" x1="294.4863" y1="207.3335" x2="294.4863" y2="149.9999"><stop offset="0" style="stop-color:#FCFCE4"></stop><stop offset="0.5" style="stop-color:#A0C8DD"></stop><stop offset="1" style="stop-color:#5D6EC5"></stop></linearGradient><path style="fill:url(#hair1XMLID_3388_);stroke:#1E1E1E;stroke-linecap:round;stroke-linejoin:round;" d="M280.146,160.256c0,0,4.69,25.46,27.702,42.21c3.341-14.518-2.465-35.063-8.272-42.21"></path><linearGradient id="hair1XMLID_3389_" gradientUnits="userSpaceOnUse" x1="229.7925" y1="207.3335" x2="229.7925" y2="149.9998"><stop offset="0" style="stop-color:#FCFCE4"></stop><stop offset="0.5" style="stop-color:#A0C8DD"></stop><stop offset="1" style="stop-color:#5D6EC5"></stop></linearGradient><path style="fill:url(#hair1XMLID_3389_);stroke:#1E1E1E;stroke-linecap:round;stroke-linejoin:round;" d="M279.922,159.81c0,0-2.68,29.927-14.739,41.54c-0.447-7.594-0.447-17.42-0.447-17.42s-4.913,12.508-16.527,17.42c0.894-6.253,3.127-16.526,3.127-16.526s-8.487,16.08-29.034,18.313c2.68-4.02,6.699-12.953,8.04-23.227c-7.594,15.633-16.527,23.673-24.12,24.566c1.787-7.594,6.253-21.439,6.253-21.439s-9.826,22.779-32.606,25.459c-2.233-16.973,14.293-48.24,21.44-51.813"></path><g><linearGradient id="hair1XMLID_3390_" gradientUnits="userSpaceOnUse" x1="188.2476" y1="207.3335" x2="188.2476" y2="150"><stop offset="0" style="stop-color:#FCFCE4"></stop><stop offset="0.5" style="stop-color:#A0C8DD"></stop><stop offset="1" style="stop-color:#5D6EC5"></stop></linearGradient><path style="fill:url(#hair1XMLID_3390_);stroke:#1E1E1E;stroke-linecap:round;stroke-linejoin:round;" d="M218.952,122.29c0,0-57.191,11.979-61.192,90.227c-4.021,78.612,49.355,82.187,56.726,76.157c-12.283,1.115-21.886-7.148-21.886-7.148s6.029-11.166,12.506-11.836c-9.156-6.924-16.08-33.276-16.08-33.276l-8.933-14.517"></path><linearGradient id="hair1XMLID_3391_" gradientUnits="userSpaceOnUse" x1="202.5371" y1="207.3335" x2="202.5371" y2="150.0001"><stop offset="0" style="stop-color:#FCFCE4"></stop><stop offset="0.5" style="stop-color:#A0C8DD"></stop><stop offset="1" style="stop-color:#5D6EC5"></stop></linearGradient><path style="fill:url(#hair1XMLID_3391_);stroke:#1E1E1E;stroke-linecap:round;stroke-linejoin:round;" d="M194.832,251.6c0,0,5.36,12.061,23.45,9.827c-5.36,7.593-13.399,8.04-13.399,8.04s7.146,5.582,19.653,3.127c-3.127,4.912-22.11,20.77-43.997,3.127"></path><linearGradient id="hair1XMLID_3392_" gradientUnits="userSpaceOnUse" x1="190.0835" y1="207.3335" x2="190.0835" y2="150"><stop offset="0" style="stop-color:#FCFCE4"></stop><stop offset="0.5" style="stop-color:#A0C8DD"></stop><stop offset="1" style="stop-color:#5D6EC5"></stop></linearGradient><path style="fill:url(#hair1XMLID_3392_);stroke:#1E1E1E;stroke-linecap:round;stroke-linejoin:round;" d="M212.251,152.663c0,0-20.1,20.547-20.1,49.804c0,29.256,14.963,41.539,14.963,41.539s-12.729,4.467-18.982-5.137c0.445,4.914,2.232,10.498,8.933,15.634c-25.683-0.67-41.093-43.326-17.42-88.886"></path></g><g><linearGradient id="hair1XMLID_3393_" gradientUnits="userSpaceOnUse" x1="311.752" y1="207.3335" x2="311.752" y2="150"><stop offset="0" style="stop-color:#FCFCE4"></stop><stop offset="0.5" style="stop-color:#A0C8DD"></stop><stop offset="1" style="stop-color:#5D6EC5"></stop></linearGradient><path style="fill:url(#hair1XMLID_3393_);stroke:#1E1E1E;stroke-linecap:round;stroke-linejoin:round;" d="M281.048,122.29c0,0,57.191,11.979,61.193,90.227c4.02,78.612-49.356,82.187-56.727,76.157c12.283,1.115,21.886-7.148,21.886-7.148s-6.029-11.166-12.506-11.836c9.156-6.924,16.08-33.276,16.08-33.276l8.934-14.517"></path><linearGradient id="hair1XMLID_3394_" gradientUnits="userSpaceOnUse" x1="297.4629" y1="207.3335" x2="297.4629" y2="150.0001"><stop offset="0" style="stop-color:#FCFCE4"></stop><stop offset="0.5" style="stop-color:#A0C8DD"></stop><stop offset="1" style="stop-color:#5D6EC5"></stop></linearGradient><path style="fill:url(#hair1XMLID_3394_);stroke:#1E1E1E;stroke-linecap:round;stroke-linejoin:round;" d="M305.167,251.6c0,0-5.36,12.061-23.45,9.827c5.36,7.593,13.4,8.04,13.4,8.04s-7.146,5.582-19.653,3.127c3.127,4.912,22.11,20.77,43.997,3.127"></path><linearGradient id="hair1XMLID_3395_" gradientUnits="userSpaceOnUse" x1="309.916" y1="207.3335" x2="309.916" y2="150"><stop offset="0" style="stop-color:#FCFCE4"></stop><stop offset="0.5" style="stop-color:#A0C8DD"></stop><stop offset="1" style="stop-color:#5D6EC5"></stop></linearGradient><path style="fill:url(#hair1XMLID_3395_);stroke:#1E1E1E;stroke-linecap:round;stroke-linejoin:round;" d="M287.748,152.663c0,0,20.1,20.547,20.1,49.804c0,29.256-14.963,41.539-14.963,41.539s12.729,4.467,18.983-5.137c-0.447,4.914-2.233,10.498-8.934,15.634c25.684-0.67,41.093-43.326,17.42-88.886"></path></g></g></g></svg>