<svg xmlns="http://www.w3.org/2000/svg" width="500" height="500" version="1.1"><g id="x130"><g><linearGradient id="hair1XMLID_3425_" gradientUnits="userSpaceOnUse" x1="250.0503" y1="214.667" x2="250.0503" y2="156"><stop offset="0" style="stop-color:#FCFCE4"></stop><stop offset="0.5" style="stop-color:#A0C8DD"></stop><stop offset="1" style="stop-color:#5D6EC5"></stop></linearGradient><path style="fill:url(#hair1XMLID_3425_);stroke:#1E1E1E;stroke-linecap:round;stroke-linejoin:round;" d="M311.534,135.882c-17.021-17.418-41.603-23.852-61.484-20.131c-19.882-3.721-44.464,2.713-61.484,20.131c-13.061,13.365-22.283,30.165-22.283,51.08c0,24.372,15.268,44.372,25.934,48.538c-7.33-33.49-0.484-59.331,5.084-68.5c1.798-2.157,29.369-5.491,52.75-5.619c23.381,0.128,50.952,3.462,52.75,5.619c5.568,9.169,12.414,35.01,5.084,68.5c10.666-4.167,25.934-24.167,25.934-48.538C333.817,166.047,324.595,149.248,311.534,135.882z"></path><linearGradient id="hair1XMLID_3426_" gradientUnits="userSpaceOnUse" x1="170.0464" y1="214.667" x2="170.0464" y2="156"><stop offset="0" style="stop-color:#FCFCE4"></stop><stop offset="0.5" style="stop-color:#A0C8DD"></stop><stop offset="1" style="stop-color:#5D6EC5"></stop></linearGradient><path style="fill:url(#hair1XMLID_3426_);stroke:#1E1E1E;stroke-linecap:round;stroke-linejoin:round;" d="M174.065,157.033c0,0-20.546,38.86-15.187,50.473c5.36,11.613,18.313,16.527,18.313,16.527l4.913-5.807c0,0-9.379-4.914-10.273-15.634c-0.893-10.72,3.127-24.566,3.127-24.566"></path><linearGradient id="hair1XMLID_3427_" gradientUnits="userSpaceOnUse" x1="179.4126" y1="214.667" x2="179.4126" y2="156"><stop offset="0" style="stop-color:#FCFCE4"></stop><stop offset="0.5" style="stop-color:#A0C8DD"></stop><stop offset="1" style="stop-color:#5D6EC5"></stop></linearGradient><path style="fill:url(#hair1XMLID_3427_);stroke:#1E1E1E;stroke-linecap:round;stroke-linejoin:round;" d="M187.912,237.433c0,0,4.914,7.593,6.7,14.74c1.787,7.147-2.68,13.399-2.233,15.634c0.446,2.232,5.807,4.02,5.807,4.02s-13.846,1.34-16.973-5.807s-0.446-15.633-1.34-17.42s-16.974-20.1-18.761-25.014c-1.786-4.913,1.787-29.926,5.808-37.52"></path><linearGradient id="hair1XMLID_3428_" gradientUnits="userSpaceOnUse" x1="316.9863" y1="214.667" x2="316.9863" y2="156"><stop offset="0" style="stop-color:#FCFCE4"></stop><stop offset="0.5" style="stop-color:#A0C8DD"></stop><stop offset="1" style="stop-color:#5D6EC5"></stop></linearGradient><path style="fill:url(#hair1XMLID_3428_);stroke:#1E1E1E;stroke-linecap:round;stroke-linejoin:round;" d="M308.485,237.433c0,0-4.913,7.593-6.699,14.74c-1.787,7.147,2.68,13.399,2.232,15.634c-0.446,2.232-5.806,4.02-5.806,4.02s13.846,1.34,16.973-5.807s0.447-15.633,1.34-17.42c0.894-1.787,16.974-20.1,18.761-25.014c1.786-4.913-1.787-29.926-5.808-37.52"></path><linearGradient id="hair1XMLID_3429_" gradientUnits="userSpaceOnUse" x1="329.9531" y1="214.667" x2="329.9531" y2="156"><stop offset="0" style="stop-color:#FCFCE4"></stop><stop offset="0.5" style="stop-color:#A0C8DD"></stop><stop offset="1" style="stop-color:#5D6EC5"></stop></linearGradient><path style="fill:url(#hair1XMLID_3429_);stroke:#1E1E1E;stroke-linecap:round;stroke-linejoin:round;" d="M325.934,157.033c0,0,20.547,38.86,15.188,50.473c-5.36,11.613-18.313,16.527-18.313,16.527l-4.914-5.807c0,0,13.4-4.914,14.294-15.634s-7.146-24.566-7.146-24.566"></path><linearGradient id="hair1XMLID_3430_" gradientUnits="userSpaceOnUse" x1="175.3501" y1="214.667" x2="175.3501" y2="156.0001"><stop offset="0" style="stop-color:#FCFCE4"></stop><stop offset="0.5" style="stop-color:#A0C8DD"></stop><stop offset="1" style="stop-color:#5D6EC5"></stop></linearGradient><path style="fill:url(#hair1XMLID_3430_);stroke:#1E1E1E;stroke-linecap:round;stroke-linejoin:round;" d="M174.841,203.195c0,0-13.047,19.184-1.222,45.404c0.894-18.313,8.419-26.381,8.419-26.381"></path><linearGradient id="hair1XMLID_3431_" gradientUnits="userSpaceOnUse" x1="320.4375" y1="214.667" x2="320.4375" y2="156"><stop offset="0" style="stop-color:#FCFCE4"></stop><stop offset="0.5" style="stop-color:#A0C8DD"></stop><stop offset="1" style="stop-color:#5D6EC5"></stop></linearGradient><path style="fill:url(#hair1XMLID_3431_);stroke:#1E1E1E;stroke-linecap:round;stroke-linejoin:round;" d="M322.611,162.393c0,0,5.901,27.051,6.885,40.33s-5.489,20.711-4.426,26.559c0.982,5.409,7.869,13.771-3.936,28.525c1.477-11.313-2.459-20.165-8.36-26.559c-5.902-6.395,7.377-22.133,9.837-29.018"></path><g><linearGradient id="hair1XMLID_3432_" gradientUnits="userSpaceOnUse" x1="314" y1="214.667" x2="314" y2="156"><stop offset="0" style="stop-color:#FCFCE4"></stop><stop offset="0.5" style="stop-color:#A0C8DD"></stop><stop offset="1" style="stop-color:#5D6EC5"></stop></linearGradient><path style="fill:url(#hair1XMLID_3432_);stroke:#1E1E1E;stroke-linecap:round;stroke-linejoin:round;" d="M304.188,172c0,0,11.64,49.354-1.761,71.686c8.934-4.466,30.727-31.713,20.452-70.572"></path><linearGradient id="hair1XMLID_3433_" gradientUnits="userSpaceOnUse" x1="186" y1="214.667" x2="186" y2="156"><stop offset="0" style="stop-color:#FCFCE4"></stop><stop offset="0.5" style="stop-color:#A0C8DD"></stop><stop offset="1" style="stop-color:#5D6EC5"></stop></linearGradient><path style="fill:url(#hair1XMLID_3433_);stroke:#1E1E1E;stroke-linecap:round;stroke-linejoin:round;" d="M195.813,172c0,0-11.64,49.354,1.761,71.686c-8.934-4.466-30.727-31.713-20.452-70.572"></path></g><linearGradient id="hair1XMLID_3434_" gradientUnits="userSpaceOnUse" x1="194.9907" y1="214.667" x2="194.9907" y2="156.0003"><stop offset="0" style="stop-color:#FCFCE4"></stop><stop offset="0.5" style="stop-color:#A0C8DD"></stop><stop offset="1" style="stop-color:#5D6EC5"></stop></linearGradient><path style="fill:url(#hair1XMLID_3434_);stroke:#1E1E1E;stroke-linecap:round;stroke-linejoin:round;" d="M206.673,153.459c0,0-10.721,20.546-9.827,57.173c-8.04-4.913-20.993-28.586-8.04-56.727"></path><linearGradient id="hair1XMLID_3435_" gradientUnits="userSpaceOnUse" x1="215.269" y1="214.667" x2="215.269" y2="156.0001"><stop offset="0" style="stop-color:#FCFCE4"></stop><stop offset="0.5" style="stop-color:#A0C8DD"></stop><stop offset="1" style="stop-color:#5D6EC5"></stop></linearGradient><path style="fill:url(#hair1XMLID_3435_);stroke:#1E1E1E;stroke-linecap:round;stroke-linejoin:round;" d="M208.013,154.353c0,0-6.7,33.053,9.827,50.92c5.359,0,6.029-0.447,6.029-0.447s-7.816-31.268-5.584-50.473"></path><linearGradient id="hair1XMLID_3436_" gradientUnits="userSpaceOnUse" x1="238.0576" y1="214.667" x2="238.0576" y2="156"><stop offset="0" style="stop-color:#FCFCE4"></stop><stop offset="0.5" style="stop-color:#A0C8DD"></stop><stop offset="1" style="stop-color:#5D6EC5"></stop></linearGradient><path style="fill:url(#hair1XMLID_3436_);stroke:#1E1E1E;stroke-linecap:round;stroke-linejoin:round;" d="M218.956,154.576c0,0-3.127,32.383,14.739,51.367c4.914,0.446,23.674,0,23.674,0s-8.04-27.248-3.573-46.9"></path><linearGradient id="hair1XMLID_3437_" gradientUnits="userSpaceOnUse" x1="297.5488" y1="214.667" x2="297.5488" y2="156"><stop offset="0" style="stop-color:#FCFCE4"></stop><stop offset="0.5" style="stop-color:#A0C8DD"></stop><stop offset="1" style="stop-color:#5D6EC5"></stop></linearGradient><path style="fill:url(#hair1XMLID_3437_);stroke:#1E1E1E;stroke-linecap:round;stroke-linejoin:round;" d="M281.266,160.16c0,0-4.163,26.799,11.844,45.784c4.401,0.446,21.209,0,21.209,0s-12.041-27.248-8.04-46.9"></path><linearGradient id="hair1XMLID_3438_" gradientUnits="userSpaceOnUse" x1="271.5566" y1="214.667" x2="271.5566" y2="156"><stop offset="0" style="stop-color:#FCFCE4"></stop><stop offset="0.5" style="stop-color:#A0C8DD"></stop><stop offset="1" style="stop-color:#5D6EC5"></stop></linearGradient><path style="fill:url(#hair1XMLID_3438_);stroke:#1E1E1E;stroke-linecap:round;stroke-linejoin:round;" d="M254.444,154.576c0,0-2.802,32.383,13.205,51.367c4.401,0.446,21.209,0,21.209,0s-12.041-27.248-8.04-46.9"></path></g></g></svg>