<svg xmlns="http://www.w3.org/2000/svg" width="500" height="500" version="1.1"><g id="x134"><g><linearGradient id="hair1XMLID_3459_" gradientUnits="userSpaceOnUse" x1="250.0503" y1="209" x2="250.0503" y2="148.3335"><stop offset="0" style="stop-color:#FCFCE4"></stop><stop offset="0.5" style="stop-color:#A0C8DD"></stop><stop offset="1" style="stop-color:#5D6EC5"></stop></linearGradient><path style="fill:url(#hair1XMLID_3459_);stroke:#1E1E1E;stroke-linecap:round;stroke-linejoin:round;" d="M311.534,135.882c-17.021-17.418-41.603-23.852-61.484-20.131c-19.882-3.721-44.464,2.713-61.484,20.131c-13.061,13.365-22.283,30.165-22.283,51.08c0,24.372,15.268,44.372,25.934,48.538c-7.33-33.49-0.484-59.331,5.084-68.5c1.798-2.157,29.369-5.491,52.75-5.619c23.381,0.128,50.952,3.462,52.75,5.619c5.568,9.169,12.414,35.01,5.084,68.5c10.666-4.167,25.934-24.167,25.934-48.538C333.817,166.047,324.595,149.248,311.534,135.882z"></path><linearGradient id="hair1XMLID_3460_" gradientUnits="userSpaceOnUse" x1="175.6304" y1="209" x2="175.6304" y2="148.3335"><stop offset="0" style="stop-color:#FCFCE4"></stop><stop offset="0.5" style="stop-color:#A0C8DD"></stop><stop offset="1" style="stop-color:#5D6EC5"></stop></linearGradient><path style="fill:url(#hair1XMLID_3460_);stroke:#1E1E1E;stroke-linecap:round;stroke-linejoin:round;" d="M167.895,185.844c0,2.232-7.147,59.853-2.233,80.846c4.913,20.994,18.313,34.395,18.313,34.395l3.35-12.508c0,0-16.304-13.848-17.644-32.16c-1.08-14.761,1.34-55.387,1.34-55.387"></path><linearGradient id="hair1XMLID_3461_" gradientUnits="userSpaceOnUse" x1="187.1758" y1="209" x2="187.1758" y2="148.3335"><stop offset="0" style="stop-color:#FCFCE4"></stop><stop offset="0.5" style="stop-color:#A0C8DD"></stop><stop offset="1" style="stop-color:#5D6EC5"></stop></linearGradient><path style="fill:url(#hair1XMLID_3461_);stroke:#1E1E1E;stroke-linecap:round;stroke-linejoin:round;" d="M176.14,158.596c0,0-18.824,28.894-1.992,92.013c12.507,46.9,7.146,68.787,7.146,68.787l25.907,6.254c0,0-2.63-43.773-23.228-127.301"></path><g><linearGradient id="hair1XMLID_3462_" gradientUnits="userSpaceOnUse" x1="306.293" y1="209" x2="306.293" y2="148.3335"><stop offset="0" style="stop-color:#FCFCE4"></stop><stop offset="0.5" style="stop-color:#A0C8DD"></stop><stop offset="1" style="stop-color:#5D6EC5"></stop></linearGradient><path style="fill:url(#hair1XMLID_3462_);stroke:#1E1E1E;stroke-linecap:round;stroke-linejoin:round;" d="M308.817,198.35c-0.893,2.68-4.913,54.939-20.1,66.106c10.72,3.126,27.247,0.894,27.247,0.894s16.526-49.58,1.786-94.246"></path><linearGradient id="hair1XMLID_3463_" gradientUnits="userSpaceOnUse" x1="303.3105" y1="209" x2="303.3105" y2="148.3336"><stop offset="0" style="stop-color:#FCFCE4"></stop><stop offset="0.5" style="stop-color:#A0C8DD"></stop><stop offset="1" style="stop-color:#5D6EC5"></stop></linearGradient><path style="fill:url(#hair1XMLID_3463_);stroke:#1E1E1E;stroke-linecap:round;stroke-linejoin:round;" d="M300.331,265.35c0,0,3.107-4.088,5.958-12.167"></path></g><g><g><linearGradient id="hair1XMLID_3464_" gradientUnits="userSpaceOnUse" x1="304.4082" y1="209" x2="304.4082" y2="148.3335"><stop offset="0" style="stop-color:#FCFCE4"></stop><stop offset="0.5" style="stop-color:#A0C8DD"></stop><stop offset="1" style="stop-color:#5D6EC5"></stop></linearGradient><path style="fill:url(#hair1XMLID_3464_);stroke:#1E1E1E;stroke-linecap:round;stroke-linejoin:round;" d="M283.357,157.256c0,0,8.487,30.374,4.467,58.96c19.206,1.34,35.733,7.593,35.733,7.593s8.04-28.587-8.934-62.087"></path><linearGradient id="hair1XMLID_3465_" gradientUnits="userSpaceOnUse" x1="301.6709" y1="209" x2="301.6709" y2="148.3334"><stop offset="0" style="stop-color:#FCFCE4"></stop><stop offset="0.5" style="stop-color:#A0C8DD"></stop><stop offset="1" style="stop-color:#5D6EC5"></stop></linearGradient><path style="fill:url(#hair1XMLID_3465_);stroke:#1E1E1E;stroke-linecap:round;stroke-linejoin:round;" d="M302.534,195.223c0.146,6.992-0.211,15.052-1.757,22.78"></path></g><linearGradient id="hair1XMLID_3466_" gradientUnits="userSpaceOnUse" x1="270.5" y1="209" x2="270.5" y2="148.3334"><stop offset="0" style="stop-color:#FCFCE4"></stop><stop offset="0.5" style="stop-color:#A0C8DD"></stop><stop offset="1" style="stop-color:#5D6EC5"></stop></linearGradient><path style="fill:url(#hair1XMLID_3466_);stroke:#1E1E1E;stroke-linecap:round;stroke-linejoin:round;" d="M281.334,159.333c0,1.34-4.229,17.577-4.229,17.577l-14.294,11.613l-3.144-31.19"></path></g><linearGradient id="hair1XMLID_3467_" gradientUnits="userSpaceOnUse" x1="211.8345" y1="209" x2="211.8345" y2="148.3335"><stop offset="0" style="stop-color:#FCFCE4"></stop><stop offset="0.5" style="stop-color:#A0C8DD"></stop><stop offset="1" style="stop-color:#5D6EC5"></stop></linearGradient><path style="fill:url(#hair1XMLID_3467_);stroke:#1E1E1E;stroke-linecap:round;stroke-linejoin:round;" d="M229.311,156.363c0,0-24.566,34.84-33.5,58.067c-4.02-25.906,0.447-48.24,11.614-60.747"></path><g><g><linearGradient id="hair1XMLID_3468_" gradientUnits="userSpaceOnUse" x1="240.5962" y1="209" x2="240.5962" y2="148.3335"><stop offset="0" style="stop-color:#FCFCE4"></stop><stop offset="0.5" style="stop-color:#A0C8DD"></stop><stop offset="1" style="stop-color:#5D6EC5"></stop></linearGradient><path style="fill:url(#hair1XMLID_3468_);stroke:#1E1E1E;stroke-linecap:round;stroke-linejoin:round;" d="M220.824,147.876c0,0-17.866,31.713,5.807,71.466c19.653-0.894,35.287,0,35.287,0l4.913-62.533"></path><linearGradient id="hair1XMLID_3469_" gradientUnits="userSpaceOnUse" x1="246.0571" y1="209" x2="246.0571" y2="148.3335"><stop offset="0" style="stop-color:#FCFCE4"></stop><stop offset="0.5" style="stop-color:#A0C8DD"></stop><stop offset="1" style="stop-color:#5D6EC5"></stop></linearGradient><path style="fill:url(#hair1XMLID_3469_);stroke:#1E1E1E;stroke-linecap:round;stroke-linejoin:round;" d="M244.052,160.83c0,0-4.021,42.433,4.913,58.513"></path><linearGradient id="hair1XMLID_3470_" gradientUnits="userSpaceOnUse" x1="231.209" y1="209" x2="231.209" y2="148.3335"><stop offset="0" style="stop-color:#FCFCE4"></stop><stop offset="0.5" style="stop-color:#A0C8DD"></stop><stop offset="1" style="stop-color:#5D6EC5"></stop></linearGradient><path style="fill:url(#hair1XMLID_3470_);stroke:#1E1E1E;stroke-linecap:round;stroke-linejoin:round;" d="M227.971,199.801c1.005,5.919,2.903,13.289,6.477,19.096"></path></g></g><g><linearGradient id="hair1XMLID_3471_" gradientUnits="userSpaceOnUse" x1="195.2026" y1="209" x2="195.2026" y2="148.3335"><stop offset="0" style="stop-color:#FCFCE4"></stop><stop offset="0.5" style="stop-color:#A0C8DD"></stop><stop offset="1" style="stop-color:#5D6EC5"></stop></linearGradient><path style="fill:url(#hair1XMLID_3471_);stroke:#1E1E1E;stroke-linecap:round;stroke-linejoin:round;" d="M213.678,148.323c0,0-15.633,33.5-7.593,67.894c-8.935,1.786-27.247,11.613-27.247,11.613s-11.167-40.646,17.866-79.954"></path><linearGradient id="hair1XMLID_3472_" gradientUnits="userSpaceOnUse" x1="192.3403" y1="209" x2="192.3403" y2="148.3335"><stop offset="0" style="stop-color:#FCFCE4"></stop><stop offset="0.5" style="stop-color:#A0C8DD"></stop><stop offset="1" style="stop-color:#5D6EC5"></stop></linearGradient><path style="fill:url(#hair1XMLID_3472_);stroke:#1E1E1E;stroke-linecap:round;stroke-linejoin:round;" d="M191.554,202.816c-0.048,5.809,0.307,12.422,1.577,18.648"></path></g><linearGradient id="hair1XMLID_3473_" gradientUnits="userSpaceOnUse" x1="265.9375" y1="209" x2="265.9375" y2="148.3334"><stop offset="0" style="stop-color:#FCFCE4"></stop><stop offset="0.5" style="stop-color:#A0C8DD"></stop><stop offset="1" style="stop-color:#5D6EC5"></stop></linearGradient><path style="fill:url(#hair1XMLID_3473_);stroke:#1E1E1E;stroke-linecap:round;stroke-linejoin:round;" d="M283.357,153.236c0,0-0.893,46.9-26.8,57.619c-2.233-2.68-8.04-11.613-8.04-11.613s13.847-7.146,20.547-20.992"></path></g></g></svg>