<svg xmlns="http://www.w3.org/2000/svg" width="500" height="500" version="1.1"><g id="x137"><g><g><linearGradient id="hair1XMLID_3492_" gradientUnits="userSpaceOnUse" x1="192.1187" y1="232.3335" x2="192.1187" y2="163"><stop offset="0" style="stop-color:#FCFCE4"></stop><stop offset="0.5" style="stop-color:#A0C8DD"></stop><stop offset="1" style="stop-color:#5D6EC5"></stop></linearGradient><path style="fill:url(#hair1XMLID_3492_);stroke:#1E1E1E;stroke-linecap:round;stroke-linejoin:round;" d="M200.839,212.963l-12.787,4.783c-4.953,20.617-4.65,143.063-4.65,143.063s5.314-6.238,10.297-14.139c-0.163-2.557-0.307-7.904-0.425-14.543c1.843-2.748,3.809-5.672,5.738-8.539C198.016,312.982,200.839,214.002,200.839,212.963z"></path><linearGradient id="hair1XMLID_3493_" gradientUnits="userSpaceOnUse" x1="193.3667" y1="232.3335" x2="193.3667" y2="162.9998"><stop offset="0" style="stop-color:#FCFCE4"></stop><stop offset="0.5" style="stop-color:#A0C8DD"></stop><stop offset="1" style="stop-color:#5D6EC5"></stop></linearGradient><line style="fill:url(#hair1XMLID_3493_);stroke:#1E1E1E;stroke-linecap:round;stroke-linejoin:round;" x1="193.367" y1="298.428" x2="193.367" y2="333.777"></line></g><linearGradient id="hair1XMLID_3494_" gradientUnits="userSpaceOnUse" x1="250.0503" y1="232.3335" x2="250.0503" y2="163"><stop offset="0" style="stop-color:#FCFCE4"></stop><stop offset="0.5" style="stop-color:#A0C8DD"></stop><stop offset="1" style="stop-color:#5D6EC5"></stop></linearGradient><path style="fill:url(#hair1XMLID_3494_);stroke:#1E1E1E;stroke-linecap:round;stroke-linejoin:round;" d="M311.534,135.882c-17.021-17.418-41.603-23.852-61.484-20.131c-19.882-3.721-44.464,2.713-61.484,20.131c-13.061,13.365-22.283,30.165-22.283,51.08c0,24.372,15.268,44.372,25.934,48.538c-7.33-33.49-0.484-59.331,5.084-68.5c1.798-2.157,29.369-5.491,52.75-5.619c23.381,0.128,50.952,3.462,52.75,5.619c5.568,9.169,12.414,35.01,5.084,68.5c10.666-4.167,25.934-24.167,25.934-48.538C333.817,166.047,324.595,149.248,311.534,135.882z"></path><linearGradient id="hair1XMLID_3495_" gradientUnits="userSpaceOnUse" x1="301.7598" y1="232.3335" x2="301.7598" y2="163.0001"><stop offset="0" style="stop-color:#FCFCE4"></stop><stop offset="0.5" style="stop-color:#A0C8DD"></stop><stop offset="1" style="stop-color:#5D6EC5"></stop></linearGradient><polygon style="fill:url(#hair1XMLID_3495_);" points="314.824,198.223 299.861,176.56 297.627,176.336 288.695,162.937 311.922,160.479 "></polygon><linearGradient id="hair1XMLID_3496_" gradientUnits="userSpaceOnUse" x1="300.0332" y1="232.3335" x2="300.0332" y2="163"><stop offset="0" style="stop-color:#FCFCE4"></stop><stop offset="0.5" style="stop-color:#A0C8DD"></stop><stop offset="1" style="stop-color:#5D6EC5"></stop></linearGradient><path style="fill:url(#hair1XMLID_3496_);stroke:#1E1E1E;stroke-linecap:round;stroke-linejoin:round;" d="M325.667,207.333c-4.333,16.667-18,28.333-18,28.333s2.667-16.333,3-25.667c-5.137-14.965-11.253-34.334-11.253-34.334s-3.08,2.334-4.08,3.667c-6.701-9.603-17.582-13.047-17.582-13.047L274.4,141.72"></path><g><g><linearGradient id="hair1XMLID_3497_" gradientUnits="userSpaceOnUse" x1="183.7817" y1="232.3335" x2="183.7817" y2="163"><stop offset="0" style="stop-color:#FCFCE4"></stop><stop offset="0.5" style="stop-color:#A0C8DD"></stop><stop offset="1" style="stop-color:#5D6EC5"></stop></linearGradient><path style="fill:url(#hair1XMLID_3497_);stroke:#1E1E1E;stroke-linecap:round;stroke-linejoin:round;" d="M185.738,201.127c0,1.116-1.786,38.859,3.573,54.492c-6.477,2.01-12.283,4.914-12.283,4.914s-6.253-18.983-4.467-34.84c-5.807,2.68-11.613,4.243-11.613,4.243s-4.69-75.487,45.783-100.947"></path><linearGradient id="hair1XMLID_3498_" gradientUnits="userSpaceOnUse" x1="174.5718" y1="232.3335" x2="174.5718" y2="163"><stop offset="0" style="stop-color:#FCFCE4"></stop><stop offset="0.5" style="stop-color:#A0C8DD"></stop><stop offset="1" style="stop-color:#5D6EC5"></stop></linearGradient><path style="fill:url(#hair1XMLID_3498_);stroke:#1E1E1E;stroke-linecap:round;stroke-linejoin:round;" d="M176.582,184.152c0,0-5.137,17.42-3.797,42.434"></path></g><linearGradient id="hair1XMLID_3499_" gradientUnits="userSpaceOnUse" x1="206.1094" y1="232.3335" x2="206.1094" y2="163"><stop offset="0" style="stop-color:#FCFCE4"></stop><stop offset="0.5" style="stop-color:#A0C8DD"></stop><stop offset="1" style="stop-color:#5D6EC5"></stop></linearGradient><path style="fill:url(#hair1XMLID_3499_);stroke:#1E1E1E;stroke-linecap:round;stroke-linejoin:round;" d="M228.841,157.353c0,0-18.761,42.209-17.644,61.194c-5.36,1.116-13.177,4.689-13.177,4.689s-0.447,15.41,3.127,23.45c-8.486,4.243-10.943,5.36-10.943,5.36s-24.12-60.747,18.313-114.124"></path><linearGradient id="hair1XMLID_3500_" gradientUnits="userSpaceOnUse" x1="202.1646" y1="232.3335" x2="202.1646" y2="162.9998"><stop offset="0" style="stop-color:#FCFCE4"></stop><stop offset="0.5" style="stop-color:#A0C8DD"></stop><stop offset="1" style="stop-color:#5D6EC5"></stop></linearGradient><path style="fill:url(#hair1XMLID_3500_);stroke:#1E1E1E;stroke-linecap:round;stroke-linejoin:round;" d="M206.507,168.967c0,0-10.943,18.982-8.264,62.533"></path></g><linearGradient id="hair1XMLID_3501_" gradientUnits="userSpaceOnUse" x1="230.0127" y1="232.3335" x2="230.0127" y2="163.0001"><stop offset="0" style="stop-color:#FCFCE4"></stop><stop offset="0.5" style="stop-color:#A0C8DD"></stop><stop offset="1" style="stop-color:#5D6EC5"></stop></linearGradient><path style="fill:url(#hair1XMLID_3501_);stroke:#1E1E1E;stroke-linecap:round;stroke-linejoin:round;" d="M240.007,151.323c0,0-8.263,8.933-12.06,63.874c-1.34,0.445-6.03-0.225-6.03-0.225s-7.37-32.605,6.924-61.193"></path><g><linearGradient id="hair1XMLID_3502_" gradientUnits="userSpaceOnUse" x1="257.1396" y1="232.3335" x2="257.1396" y2="163"><stop offset="0" style="stop-color:#FCFCE4"></stop><stop offset="0.5" style="stop-color:#A0C8DD"></stop><stop offset="1" style="stop-color:#5D6EC5"></stop></linearGradient><path style="fill:url(#hair1XMLID_3502_);stroke:#1E1E1E;stroke-linecap:round;stroke-linejoin:round;" d="M275.965,135.69c0,0,6.029,54.716,1.117,74.37c-1.787,0.67-5.584,1.341-5.584,1.341s-0.895,8.039,4.02,28.363c-4.242,2.232-18.09,4.02-18.09,4.02s-2.902-9.826-3.127-17.197c-3.573,1.787-9.603,1.341-9.603,1.341s-18.76-35.511-3.351-90.003"></path><linearGradient id="hair1XMLID_3503_" gradientUnits="userSpaceOnUse" x1="271.6094" y1="232.3335" x2="271.6094" y2="163"><stop offset="0" style="stop-color:#FCFCE4"></stop><stop offset="0.5" style="stop-color:#A0C8DD"></stop><stop offset="1" style="stop-color:#5D6EC5"></stop></linearGradient><path style="fill:url(#hair1XMLID_3503_);stroke:#1E1E1E;stroke-linecap:round;stroke-linejoin:round;" d="M271.721,184.153c0,0.894-0.223,27.917-0.223,27.917"></path><linearGradient id="hair1XMLID_3504_" gradientUnits="userSpaceOnUse" x1="252.8477" y1="232.3335" x2="252.8477" y2="163"><stop offset="0" style="stop-color:#FCFCE4"></stop><stop offset="0.5" style="stop-color:#A0C8DD"></stop><stop offset="1" style="stop-color:#5D6EC5"></stop></linearGradient><path style="fill:url(#hair1XMLID_3504_);stroke:#1E1E1E;stroke-linecap:round;stroke-linejoin:round;" d="M250.81,176.963c-0.034,1.786-0.681,24.111,4.124,53.464"></path></g></g></g></svg>