<svg xmlns="http://www.w3.org/2000/svg" width="500" height="500" version="1.1"><g id="x144"><g><linearGradient id="hair1XMLID_3563_" gradientUnits="userSpaceOnUse" x1="250.0503" y1="216" x2="250.0503" y2="160"><stop offset="0" style="stop-color:#FCFCE4"></stop><stop offset="0.5" style="stop-color:#A0C8DD"></stop><stop offset="1" style="stop-color:#5D6EC5"></stop></linearGradient><path style="fill:url(#hair1XMLID_3563_);stroke:#1E1E1E;stroke-linecap:round;stroke-linejoin:round;" d="M311.534,135.882c-17.021-17.418-41.603-23.852-61.484-20.131c-19.882-3.721-44.464,2.713-61.484,20.131c-13.061,13.365-22.283,30.165-22.283,51.08c0,24.372,15.268,44.372,25.934,48.538c-7.33-33.49-0.484-59.331,5.084-68.5c1.798-2.157,29.369-5.491,52.75-5.619c23.381,0.128,50.952,3.462,52.75,5.619c5.568,9.169,12.414,35.01,5.084,68.5c10.666-4.167,25.934-24.167,25.934-48.538C333.817,166.047,324.595,149.248,311.534,135.882z"></path><g><g><linearGradient id="hair1XMLID_3564_" gradientUnits="userSpaceOnUse" x1="296.1055" y1="216" x2="296.1055" y2="160"><stop offset="0" style="stop-color:#FCFCE4"></stop><stop offset="0.5" style="stop-color:#A0C8DD"></stop><stop offset="1" style="stop-color:#5D6EC5"></stop></linearGradient><path style="fill:url(#hair1XMLID_3564_);stroke:#1E1E1E;stroke-linecap:round;stroke-linejoin:round;" d="M275.616,158.135c0,0,12.73,39.865,36.851,64.99c7.617-29.623,4.305-50.931-6.735-69.324"></path></g><linearGradient id="hair1XMLID_3565_" gradientUnits="userSpaceOnUse" x1="216.1543" y1="216" x2="216.1543" y2="160"><stop offset="0" style="stop-color:#FCFCE4"></stop><stop offset="0.5" style="stop-color:#A0C8DD"></stop><stop offset="1" style="stop-color:#5D6EC5"></stop></linearGradient><path style="fill:url(#hair1XMLID_3565_);stroke:#1E1E1E;stroke-linecap:round;stroke-linejoin:round;" d="M237.762,149.09l-0.335,20.1c0,0-3.351,47.235-16.08,51.256c3.685-11.056,1.675-26.466,1.675-26.466s-2.01,22.445-11.725,26.466c2.68-12.061,0.67-35.176-0.671-39.865c0,20.1-3.685,35.51-14.404,43.215c6.7-15.075,4.354-45.225,4.02-44.221l-5.694-13.399"></path><linearGradient id="hair1XMLID_3566_" gradientUnits="userSpaceOnUse" x1="257.1904" y1="216" x2="257.1904" y2="160"><stop offset="0" style="stop-color:#FCFCE4"></stop><stop offset="0.5" style="stop-color:#A0C8DD"></stop><stop offset="1" style="stop-color:#5D6EC5"></stop></linearGradient><path style="fill:url(#hair1XMLID_3566_);stroke:#1E1E1E;stroke-linecap:round;stroke-linejoin:round;" d="M278.509,146.469c1.98,17.419,4.193,52.964-9.8,68.812c4.39-12.075,3.018-25.658,3.018-25.658s-1.92,22.639-8.78,25.055c-6.858,2.414-13.992,2.414-13.992,2.414s3.566-9.357,4.39-19.923c-3.293,6.642-7.134,19.622-10.701,21.131c3.567-12.075,2.744-24.149,3.019-27.772c-3.019,15.396-4.665,25.056-11.25,28.376c2.312-10.679,4.427-51.126,2.087-71.556"></path><g><linearGradient id="hair1XMLID_3567_" gradientUnits="userSpaceOnUse" x1="194.7251" y1="216" x2="194.7251" y2="160.0001"><stop offset="0" style="stop-color:#FCFCE4"></stop><stop offset="0.5" style="stop-color:#A0C8DD"></stop><stop offset="1" style="stop-color:#5D6EC5"></stop></linearGradient><path style="fill:url(#hair1XMLID_3567_);stroke:#1E1E1E;stroke-linecap:round;stroke-linejoin:round;" d="M209.621,159.81c0,1.005-17.085,35.845-21.439,81.07c-2.225,23.095,0.335,41.54,5.359,49.245c-9.715-5.361-16.75-25.125-12.395-55.945c3.015-25.125-3.35-70.015,11.725-91.79"></path><linearGradient id="hair1XMLID_3568_" gradientUnits="userSpaceOnUse" x1="197.7285" y1="216" x2="197.7285" y2="160.0001"><stop offset="0" style="stop-color:#FCFCE4"></stop><stop offset="0.5" style="stop-color:#A0C8DD"></stop><stop offset="1" style="stop-color:#5D6EC5"></stop></linearGradient><path style="fill:url(#hair1XMLID_3568_);stroke:#1E1E1E;stroke-linecap:round;stroke-linejoin:round;" d="M186.842,270.695c0,0,2.68,18.76,22.779,16.75c-4.354,11.055-16.415,15.744-23.785-6.701"></path></g><g><linearGradient id="hair1XMLID_3569_" gradientUnits="userSpaceOnUse" x1="305.2754" y1="216" x2="305.2754" y2="160.0001"><stop offset="0" style="stop-color:#FCFCE4"></stop><stop offset="0.5" style="stop-color:#A0C8DD"></stop><stop offset="1" style="stop-color:#5D6EC5"></stop></linearGradient><path style="fill:url(#hair1XMLID_3569_);stroke:#1E1E1E;stroke-linecap:round;stroke-linejoin:round;" d="M290.379,159.81c0,1.005,17.085,35.845,21.439,81.07c2.225,23.095-0.335,41.54-5.359,49.245c9.715-5.361,16.75-25.125,12.395-55.945c-3.015-25.125,3.351-70.015-11.725-91.79"></path><linearGradient id="hair1XMLID_3570_" gradientUnits="userSpaceOnUse" x1="302.2715" y1="216" x2="302.2715" y2="160.0001"><stop offset="0" style="stop-color:#FCFCE4"></stop><stop offset="0.5" style="stop-color:#A0C8DD"></stop><stop offset="1" style="stop-color:#5D6EC5"></stop></linearGradient><path style="fill:url(#hair1XMLID_3570_);stroke:#1E1E1E;stroke-linecap:round;stroke-linejoin:round;" d="M313.158,270.695c0,0-2.68,18.76-22.779,16.75c4.354,11.055,16.415,15.744,23.785-6.701"></path></g></g></g></g></svg>