<svg xmlns="http://www.w3.org/2000/svg" width="500" height="500" version="1.1"><g id="x145"><g><linearGradient id="hair1XMLID_3571_" gradientUnits="userSpaceOnUse" x1="250.0503" y1="232.667" x2="250.0503" y2="159.3335"><stop offset="0" style="stop-color:#FCFCE4"></stop><stop offset="0.5" style="stop-color:#A0C8DD"></stop><stop offset="1" style="stop-color:#5D6EC5"></stop></linearGradient><path style="fill:url(#hair1XMLID_3571_);stroke:#1E1E1E;stroke-linecap:round;stroke-linejoin:round;" d="M311.534,135.882c-17.021-17.418-41.603-23.852-61.484-20.131c-19.882-3.721-44.464,2.713-61.484,20.131c-13.061,13.365-22.283,30.165-22.283,51.08c0,24.372,15.268,44.372,25.934,48.538c-7.33-33.49-0.484-59.331,5.084-68.5c1.798-2.157,29.369-5.491,52.75-5.619c23.381,0.128,50.952,3.462,52.75,5.619c5.568,9.169,12.414,35.01,5.084,68.5c10.666-4.167,25.934-24.167,25.934-48.538C333.817,166.047,324.595,149.248,311.534,135.882z"></path><g><linearGradient id="hair1XMLID_3572_" gradientUnits="userSpaceOnUse" x1="285.4512" y1="232.667" x2="285.4512" y2="159.3336"><stop offset="0" style="stop-color:#FCFCE4"></stop><stop offset="0.5" style="stop-color:#A0C8DD"></stop><stop offset="1" style="stop-color:#5D6EC5"></stop></linearGradient><path style="fill:url(#hair1XMLID_3572_);stroke:#1E1E1E;stroke-linecap:round;stroke-linejoin:round;" d="M253.574,160.15c0,0,5.024,44.889,60.635,59.965c3.35-11.391,8.04-39.195-10.385-59.295"></path><path style="fill:none;stroke:#1E1E1E;stroke-linecap:round;stroke-linejoin:round;" d="M288.079,154.45c0.335,1.005,17.085,10.72,22.779,29.48"></path><linearGradient id="hair1XMLID_3573_" gradientUnits="userSpaceOnUse" x1="215.1016" y1="232.667" x2="215.1016" y2="159.3336"><stop offset="0" style="stop-color:#FCFCE4"></stop><stop offset="0.5" style="stop-color:#A0C8DD"></stop><stop offset="1" style="stop-color:#5D6EC5"></stop></linearGradient><path style="fill:url(#hair1XMLID_3573_);stroke:#1E1E1E;stroke-linecap:round;stroke-linejoin:round;" d="M246.979,160.15c0,0-5.025,44.889-60.636,59.965c-3.35-11.391-8.039-39.195,10.386-59.295"></path></g><g><path style="fill:none;stroke:#1E1E1E;stroke-linecap:round;stroke-linejoin:round;" d="M253.239,166.175c0,0-20.101,92.795,58.625,98.825"></path><linearGradient id="hair1XMLID_3574_" gradientUnits="userSpaceOnUse" x1="251.0898" y1="232.667" x2="251.0898" y2="159.3336"><stop offset="0" style="stop-color:#FCFCE4"></stop><stop offset="0.5" style="stop-color:#A0C8DD"></stop><stop offset="1" style="stop-color:#5D6EC5"></stop></linearGradient><path style="fill:url(#hair1XMLID_3574_);stroke:#1E1E1E;stroke-linecap:round;stroke-linejoin:round;" d="M244.529,158.805c0,0-5.025,45.225,13.734,71.02c-6.03-17.084-4.354-56.949-2.01-71.02"></path></g><g><linearGradient id="hair1XMLID_3575_" gradientUnits="userSpaceOnUse" x1="304.1025" y1="232.667" x2="304.1025" y2="159.3335"><stop offset="0" style="stop-color:#FCFCE4"></stop><stop offset="0.5" style="stop-color:#A0C8DD"></stop><stop offset="1" style="stop-color:#5D6EC5"></stop></linearGradient><path style="fill:url(#hair1XMLID_3575_);stroke:#1E1E1E;stroke-linecap:round;stroke-linejoin:round;" d="M298.045,152.104c0,0,10.05,55.275,6.7,83.08c-3.351,27.806-10.721,60.636-18.09,74.37c10.385-9.381,16.079-30.82,15.409-28.141s-8.04,23.115,0.67,45.225c2.346-21.773,4.69-32.83,8.375-45.559c3.686-12.73,17.085-77.051,6.365-110.885"></path><linearGradient id="hair1XMLID_3576_" gradientUnits="userSpaceOnUse" x1="195.8979" y1="232.667" x2="195.8979" y2="159.3335"><stop offset="0" style="stop-color:#FCFCE4"></stop><stop offset="0.5" style="stop-color:#A0C8DD"></stop><stop offset="1" style="stop-color:#5D6EC5"></stop></linearGradient><path style="fill:url(#hair1XMLID_3576_);stroke:#1E1E1E;stroke-linecap:round;stroke-linejoin:round;" d="M201.955,152.104c0,0-10.05,55.275-6.699,83.08c3.35,27.806,10.72,60.636,18.09,74.37c-10.386-9.381-16.08-30.82-15.41-28.141s8.04,23.115-0.67,45.225c-2.345-21.773-4.69-32.83-8.375-45.559c-3.686-12.73-17.085-77.051-6.365-110.885"></path></g></g></g></svg>