<svg xmlns="http://www.w3.org/2000/svg" width="500" height="500" version="1.1"><g id="x146"><g><linearGradient id="hair1XMLID_3577_" gradientUnits="userSpaceOnUse" x1="250.0503" y1="236.667" x2="250.0503" y2="160.3335"><stop offset="0" style="stop-color:#FCFCE4"></stop><stop offset="0.5" style="stop-color:#A0C8DD"></stop><stop offset="1" style="stop-color:#5D6EC5"></stop></linearGradient><path style="fill:url(#hair1XMLID_3577_);stroke:#1E1E1E;stroke-linecap:round;stroke-linejoin:round;" d="M311.534,135.882c-17.021-17.418-41.603-23.852-61.484-20.131c-19.882-3.721-44.464,2.713-61.484,20.131c-13.061,13.365-22.283,30.165-22.283,51.08c0,24.372,15.268,44.372,25.934,48.538c-7.33-33.49-0.484-59.331,5.084-68.5c1.798-2.157,29.369-5.491,52.75-5.619c23.381,0.128,50.952,3.462,52.75,5.619c5.568,9.169,12.414,35.01,5.084,68.5c10.666-4.167,25.934-24.167,25.934-48.538C333.817,166.047,324.595,149.248,311.534,135.882z"></path><g><linearGradient id="hair1XMLID_3578_" gradientUnits="userSpaceOnUse" x1="209.5161" y1="236.667" x2="209.5161" y2="160.3336"><stop offset="0" style="stop-color:#FCFCE4"></stop><stop offset="0.5" style="stop-color:#A0C8DD"></stop><stop offset="1" style="stop-color:#5D6EC5"></stop></linearGradient><path style="fill:url(#hair1XMLID_3578_);stroke:#1E1E1E;stroke-linecap:round;stroke-linejoin:round;" d="M232.854,155.237c-0.391,1.787-2.744,46.005-46.676,60.746c0.784-15.633,1.177-46.453,18.436-66.552"></path><linearGradient id="hair1XMLID_3579_" gradientUnits="userSpaceOnUse" x1="172.5029" y1="236.667" x2="172.5029" y2="160.3335"><stop offset="0" style="stop-color:#FCFCE4"></stop><stop offset="0.5" style="stop-color:#A0C8DD"></stop><stop offset="1" style="stop-color:#5D6EC5"></stop></linearGradient><path style="fill:url(#hair1XMLID_3579_);stroke:#1E1E1E;stroke-linecap:round;stroke-linejoin:round;" d="M183.275,141.709c-1.34,0.447-25.46,38.191-20.993,73.923c6.7,9.826,18.313,22.334,18.313,22.334s-4.467-25.461-2.233-40.2"></path><linearGradient id="hair1XMLID_3580_" gradientUnits="userSpaceOnUse" x1="180.4409" y1="236.667" x2="180.4409" y2="160.3335"><stop offset="0" style="stop-color:#FCFCE4"></stop><stop offset="0.5" style="stop-color:#A0C8DD"></stop><stop offset="1" style="stop-color:#5D6EC5"></stop></linearGradient><path style="fill:url(#hair1XMLID_3580_);stroke:#1E1E1E;stroke-linecap:round;stroke-linejoin:round;" d="M193.995,167.185c-3.572,9.492-8.263,31.378-4.689,45.672c3.35,8.04,7.37,23.673,7.37,23.673s2.903,21.44-17.867,21.44c6.7-6.253,9.38-14.293,9.38-14.293s-7.146,16.079-24.12-0.447c13.4,2.233,16.527-12.953,13.4-20.1c-7.37-15.187-10.273-37.967-3.573-56.727"></path></g><g><g><linearGradient id="hair1XMLID_3581_" gradientUnits="userSpaceOnUse" x1="287.5195" y1="236.667" x2="287.5195" y2="160.3336"><stop offset="0" style="stop-color:#FCFCE4"></stop><stop offset="0.5" style="stop-color:#A0C8DD"></stop><stop offset="1" style="stop-color:#5D6EC5"></stop></linearGradient><path style="fill:url(#hair1XMLID_3581_);stroke:#1E1E1E;stroke-linecap:round;stroke-linejoin:round;" d="M261.219,160.597c0.392,1.787,8.671,40.646,52.603,55.386c-0.784-15.633-1.176-46.453-18.435-66.552"></path><path style="fill:none;stroke:#1E1E1E;stroke-linecap:round;stroke-linejoin:round;" d="M278.639,165.063c1.787,2.234,6.7,34.84,31.714,46.454"></path></g><linearGradient id="hair1XMLID_3582_" gradientUnits="userSpaceOnUse" x1="327.4971" y1="236.667" x2="327.4971" y2="160.3335"><stop offset="0" style="stop-color:#FCFCE4"></stop><stop offset="0.5" style="stop-color:#A0C8DD"></stop><stop offset="1" style="stop-color:#5D6EC5"></stop></linearGradient><path style="fill:url(#hair1XMLID_3582_);stroke:#1E1E1E;stroke-linecap:round;stroke-linejoin:round;" d="M316.725,141.709c1.34,0.447,25.46,38.191,20.994,73.923c-6.7,9.826-18.314,22.334-18.314,22.334s4.468-25.461,2.234-40.2"></path><linearGradient id="hair1XMLID_3583_" gradientUnits="userSpaceOnUse" x1="319.5586" y1="236.667" x2="319.5586" y2="160.3335"><stop offset="0" style="stop-color:#FCFCE4"></stop><stop offset="0.5" style="stop-color:#A0C8DD"></stop><stop offset="1" style="stop-color:#5D6EC5"></stop></linearGradient><path style="fill:url(#hair1XMLID_3583_);stroke:#1E1E1E;stroke-linecap:round;stroke-linejoin:round;" d="M306.005,167.185c3.573,9.492,8.264,31.378,4.689,45.672c-3.35,8.04-7.37,23.673-7.37,23.673s-2.902,21.44,17.867,21.44c-6.7-6.253-9.38-14.293-9.38-14.293s7.146,16.079,24.12-0.447c-13.4,2.233-16.527-12.953-13.4-20.1c7.37-15.187,10.273-37.967,3.573-56.727"></path></g><linearGradient id="hair1XMLID_3584_" gradientUnits="userSpaceOnUse" x1="248.875" y1="236.667" x2="248.875" y2="160.3335"><stop offset="0" style="stop-color:#FCFCE4"></stop><stop offset="0.5" style="stop-color:#A0C8DD"></stop><stop offset="1" style="stop-color:#5D6EC5"></stop></linearGradient><path style="fill:url(#hair1XMLID_3584_);stroke:#1E1E1E;stroke-linecap:round;stroke-linejoin:round;" d="M231.292,144.924c0,0-15.634,68.291,17.421,84.431c-8.935-10.348-10.721-29.799-10.721-29.799s-0.446,38.49,32.161,39.318c-14.294-11.589-12.954-33.938-12.954-42.63s9.381-38.491,1.341-54.632"></path></g></g></svg>