<svg xmlns="http://www.w3.org/2000/svg" width="500" height="500" version="1.1"><g id="x147"><g><linearGradient id="hair1XMLID_3585_" gradientUnits="userSpaceOnUse" x1="250.0503" y1="222.3335" x2="250.0503" y2="150.667"><stop offset="0" style="stop-color:#FCFCE4"></stop><stop offset="0.5" style="stop-color:#A0C8DD"></stop><stop offset="1" style="stop-color:#5D6EC5"></stop></linearGradient><path style="fill:url(#hair1XMLID_3585_);stroke:#1E1E1E;stroke-linecap:round;stroke-linejoin:round;" d="M311.534,135.882c-17.021-17.418-41.603-23.852-61.484-20.131c-19.882-3.721-44.464,2.713-61.484,20.131c-13.061,13.365-22.283,30.165-22.283,51.08c0,24.372,15.268,44.372,25.934,48.538c-7.33-33.49-0.484-59.331,5.084-68.5c1.798-2.157,29.369-5.491,52.75-5.619c23.381,0.128,50.952,3.462,52.75,5.619c5.568,9.169,12.414,35.01,5.084,68.5c10.666-4.167,25.934-24.167,25.934-48.538C333.817,166.047,324.595,149.248,311.534,135.882z"></path><linearGradient id="hair1XMLID_3586_" gradientUnits="userSpaceOnUse" x1="297.7305" y1="222.3335" x2="297.7305" y2="150.6667"><stop offset="0" style="stop-color:#FCFCE4"></stop><stop offset="0.5" style="stop-color:#A0C8DD"></stop><stop offset="1" style="stop-color:#5D6EC5"></stop></linearGradient><path style="fill:url(#hair1XMLID_3586_);stroke:#1E1E1E;stroke-linecap:round;stroke-linejoin:round;" d="M273.674,161.155c0,0,14.405,14.07,31.49,23.785c0,0,0,7.705,5.694,14.07c-1.34,7.37-2.01,17.085,2.011,27.135c6.029-19.43,12.395-33.165,6.699-61.64"></path><linearGradient id="hair1XMLID_3587_" gradientUnits="userSpaceOnUse" x1="308.6035" y1="222.3335" x2="308.6035" y2="150.667"><stop offset="0" style="stop-color:#FCFCE4"></stop><stop offset="0.5" style="stop-color:#A0C8DD"></stop><stop offset="1" style="stop-color:#5D6EC5"></stop></linearGradient><path style="fill:url(#hair1XMLID_3587_);stroke:#1E1E1E;stroke-linecap:round;stroke-linejoin:round;" d="M314.209,220.779c0,0-5.695,65.66-1.675,88.775c-11.391-25.795-10.386-41.541-8.04-63.314c2.345-21.775,6.364-34.506,6.364-34.506"></path><linearGradient id="hair1XMLID_3588_" gradientUnits="userSpaceOnUse" x1="230.1147" y1="222.3335" x2="230.1147" y2="150.667"><stop offset="0" style="stop-color:#FCFCE4"></stop><stop offset="0.5" style="stop-color:#A0C8DD"></stop><stop offset="1" style="stop-color:#5D6EC5"></stop></linearGradient><path style="fill:url(#hair1XMLID_3588_);stroke:#1E1E1E;stroke-linecap:round;stroke-linejoin:round;" d="M277.023,149.425c0,0,0,57.62-30.484,70.685c13.399-15.074,15.41-52.595,15.41-52.595s-10.051,39.865-43.886,44.89c20.101-12.729,24.79-40.199,24.79-40.199s-22.444,39.865-55.944,45.56c-8.375-26.13-2.346-54.605,16.08-72.025"></path><linearGradient id="hair1XMLID_3589_" gradientUnits="userSpaceOnUse" x1="190.7095" y1="222.3335" x2="190.7095" y2="150.667"><stop offset="0" style="stop-color:#FCFCE4"></stop><stop offset="0.5" style="stop-color:#A0C8DD"></stop><stop offset="1" style="stop-color:#5D6EC5"></stop></linearGradient><path style="fill:url(#hair1XMLID_3589_);stroke:#1E1E1E;stroke-linecap:round;stroke-linejoin:round;" d="M208.014,145.405c0,0-32.495,43.884-7.035,106.195c-16.415-9.045-31.154-28.811-26.8-63.65"></path><linearGradient id="hair1XMLID_3590_" gradientUnits="userSpaceOnUse" x1="194.2788" y1="222.3335" x2="194.2788" y2="150.6672"><stop offset="0" style="stop-color:#FCFCE4"></stop><stop offset="0.5" style="stop-color:#A0C8DD"></stop><stop offset="1" style="stop-color:#5D6EC5"></stop></linearGradient><polygon style="fill:url(#hair1XMLID_3590_);" points="186.574,183.26 208.014,140.044 198.969,136.36 180.544,177.9 "></polygon><linearGradient id="hair1XMLID_3591_" gradientUnits="userSpaceOnUse" x1="235.9292" y1="222.3335" x2="235.9292" y2="150.6673"><stop offset="0" style="stop-color:#FCFCE4"></stop><stop offset="0.5" style="stop-color:#A0C8DD"></stop><stop offset="1" style="stop-color:#5D6EC5"></stop></linearGradient><path style="fill:url(#hair1XMLID_3591_);stroke:#1E1E1E;stroke-linecap:round;stroke-linejoin:round;" d="M241.514,142.725c0,0-12.395,49.245,2.345,69.68c-9.045-6.365-21.104-27.805-13.399-62.979"></path></g></g></svg>