<svg xmlns="http://www.w3.org/2000/svg" width="500" height="500" version="1.1"><g id="x9231"><g><g><linearGradient id="hair1XMLID_4341_" gradientUnits="userSpaceOnUse" x1="249.4922" y1="169.5" x2="249.4922" y2="349.9998"><stop offset="0" style="stop-color:#FCFCE4"></stop><stop offset="0.5" style="stop-color:#A0C8DD"></stop><stop offset="1" style="stop-color:#5D6EC5"></stop></linearGradient><path style="fill:url(#hair1XMLID_4341_);stroke:#000000;stroke-linecap:round;stroke-linejoin:round;" d="M304,161.1c0,0-110.5-1-109-2.5s27-42,55-41.5S304,161.1,304,161.1z"></path><g><g><linearGradient id="hair1XMLID_4342_" gradientUnits="userSpaceOnUse" x1="251.3623" y1="161.3633" x2="251.3623" y2="207.7304"><stop offset="0" style="stop-color:#FCFCE4"></stop><stop offset="0.5" style="stop-color:#A0C8DD"></stop><stop offset="1" style="stop-color:#5D6EC5"></stop></linearGradient><path style="fill:url(#hair1XMLID_4342_);stroke:#000000;stroke-linecap:round;stroke-linejoin:round;" d="M210.514,147.403c-20.014,38.097-10.043,77.018-10.043,77.018s10.043-2.4,14.844-6.241c-5.282-15.844,2.401-42.731,2.401-42.731S220.878,204.196,230,221c7,5.667,12.682,7.262,12.682,7.262s-8.643-17.284-10.083-26.887c4.802,11.523,13.922,20.646,24.486,24.967c0.404-0.151-3.244-7.082-3.585-8.926c2.955,3.487,5.358,6.17,6.51,7.44c0.49-0.291,0.985-0.595,1.485-0.918c-2.246-3.993-7.224-13.057-10.495-20.604c6.875,11.042,9.5,12.167,14.375,15.917c1.75,1.125,2.754-0.109,2.754-0.109s-5.762-11.524-5.762-13.924c-0.961-7.681-4.321-30.248-4.321-38.409c3.842,18.725,20.047,45.789,46.454,60.193c1.931-32.049-8.405-66.584-14.167-76.667"></path><path style="fill:none;stroke:#000000;stroke-linecap:round;stroke-linejoin:round;" d="M251,181c0,0,3.667,13,11.667,26"></path></g><g><g><linearGradient id="hair1XMLID_4343_" gradientUnits="userSpaceOnUse" x1="291.7705" y1="263.5" x2="291.7705" y2="326.5001"><stop offset="0" style="stop-color:#FCFCE4"></stop><stop offset="0.5" style="stop-color:#A0C8DD"></stop><stop offset="1" style="stop-color:#5D6EC5"></stop></linearGradient><path style="fill:url(#hair1XMLID_4343_);stroke:#000000;stroke-linecap:round;stroke-linejoin:round;" d="M249.732,116.333c0,0,49.618-11.754,72.333,40.333c19.334,44.333,9.615,136.458,6.834,165.667c-1.42,14.906-1.148,58.667-33.732,65.567c17.898-15.9,19.898-37.4,17.76-69.567c-1.881-28.303-9.875-84.051-9.527-99.333c0.668-29.333-6-53.333-9.666-61.667c-3.668-8.333-11.334-14.667-11.334-14.667"></path><linearGradient id="hair1XMLID_4344_" gradientUnits="userSpaceOnUse" x1="302.0645" y1="263.5" x2="302.0645" y2="326.5001"><stop offset="0" style="stop-color:#FCFCE4"></stop><stop offset="0.5" style="stop-color:#A0C8DD"></stop><stop offset="1" style="stop-color:#5D6EC5"></stop></linearGradient><path style="fill:url(#hair1XMLID_4344_);stroke:#000000;stroke-linecap:round;stroke-linejoin:round;" d="M314.564,252.5c0,0,2.5,102-28.5,116.5c14.5-6,29.5-8.5,32-53.5"></path><linearGradient id="hair1XMLID_4345_" gradientUnits="userSpaceOnUse" x1="320.5088" y1="263.5" x2="320.5088" y2="326.5001"><stop offset="0" style="stop-color:#FCFCE4"></stop><stop offset="0.5" style="stop-color:#A0C8DD"></stop><stop offset="1" style="stop-color:#5D6EC5"></stop></linearGradient><path style="fill:url(#hair1XMLID_4345_);stroke:#000000;stroke-linecap:round;stroke-linejoin:round;" d="M323.75,331.5c3.5,21-1,37-20,44.5c17,1.5,24.076-4.5,29.076-12.5c8.254-13.205,3-35,0.184-44.753c0,0-11.514-60.015-11.26-94.247"></path></g><g><linearGradient id="hair1XMLID_4346_" gradientUnits="userSpaceOnUse" x1="208.2295" y1="263.5" x2="208.2295" y2="326.5001"><stop offset="0" style="stop-color:#FCFCE4"></stop><stop offset="0.5" style="stop-color:#A0C8DD"></stop><stop offset="1" style="stop-color:#5D6EC5"></stop></linearGradient><path style="fill:url(#hair1XMLID_4346_);stroke:#000000;stroke-linecap:round;stroke-linejoin:round;" d="M250.268,116.333c0,0-49.618-11.754-72.333,40.333c-19.334,44.333-9.615,136.458-6.834,165.667c1.42,14.906,1.148,58.667,33.733,65.567c-17.899-15.9-19.899-37.4-17.761-69.567c1.882-28.303,9.875-84.051,9.527-99.333c-0.667-29.333,6-53.333,9.667-61.667s11.333-14.667,11.333-14.667"></path><linearGradient id="hair1XMLID_4347_" gradientUnits="userSpaceOnUse" x1="197.9351" y1="263.5" x2="197.9351" y2="326.5001"><stop offset="0" style="stop-color:#FCFCE4"></stop><stop offset="0.5" style="stop-color:#A0C8DD"></stop><stop offset="1" style="stop-color:#5D6EC5"></stop></linearGradient><path style="fill:url(#hair1XMLID_4347_);stroke:#000000;stroke-linecap:round;stroke-linejoin:round;" d="M185.435,252.5c0,0-2.5,102,28.5,116.5c-14.5-6-29.5-8.5-32-53.5"></path><linearGradient id="hair1XMLID_4348_" gradientUnits="userSpaceOnUse" x1="179.4907" y1="263.5" x2="179.4907" y2="326.5001"><stop offset="0" style="stop-color:#FCFCE4"></stop><stop offset="0.5" style="stop-color:#A0C8DD"></stop><stop offset="1" style="stop-color:#5D6EC5"></stop></linearGradient><path style="fill:url(#hair1XMLID_4348_);stroke:#000000;stroke-linecap:round;stroke-linejoin:round;" d="M176.25,331.5c-3.5,21,1,37,20,44.5c-17,1.5-24.076-4.5-29.076-12.5c-8.254-13.205-3-35-0.184-44.753c0,0,11.515-60.015,11.26-94.247"></path></g></g></g><g><g><linearGradient id="hair1XMLID_4349_" gradientUnits="userSpaceOnUse" x1="207.6929" y1="199.8472" x2="207.6929" y2="179.7365"><stop offset="0" style="stop-color:#FCFCE4"></stop><stop offset="0.5" style="stop-color:#A0C8DD"></stop><stop offset="1" style="stop-color:#5D6EC5"></stop></linearGradient><path style="fill:url(#hair1XMLID_4349_);stroke:#000000;stroke-linecap:round;stroke-linejoin:round;" d="M199.535,180.5c0,0-0.333-15.833,1.833-26c4-5.75,14.5-11.167,14.5-11.167s-7.333,6.5-11.5,17.167C201.119,168.743,199.535,180.5,199.535,180.5z"></path><path style="fill:none;stroke:#000000;stroke-linecap:round;stroke-linejoin:round;" d="M217.669,142.25c0,0-8.25,4-15.25,11.5c-3.5,12.5-3.25,30.583-3.25,30.583"></path></g><g><linearGradient id="hair1XMLID_4350_" gradientUnits="userSpaceOnUse" x1="306.5225" y1="199.8472" x2="306.5225" y2="179.7365" gradientTransform="matrix(-1 0 0 1 598.8281 0)"><stop offset="0" style="stop-color:#FCFCE4"></stop><stop offset="0.5" style="stop-color:#A0C8DD"></stop><stop offset="1" style="stop-color:#5D6EC5"></stop></linearGradient><path style="fill:url(#hair1XMLID_4350_);stroke:#000000;stroke-linecap:round;stroke-linejoin:round;" d="M300.463,180.5c0,0,0.333-15.833-1.833-26c-4-5.75-14.5-11.167-14.5-11.167s7.333,6.5,11.5,17.167C298.879,168.743,300.463,180.5,300.463,180.5z"></path><path style="fill:none;stroke:#000000;stroke-linecap:round;stroke-linejoin:round;" d="M282.331,142.25c0,0,8.25,4,15.25,11.5c3.5,12.5,3.25,30.583,3.25,30.583"></path></g></g></g><g><g><path style="fill:#FFF0DE;" d="M184.274,179.257c0,0,5.335-10.679,7.472-11.21c2.136-0.534-0.744,17.4-3.738,16.547C185.207,183.794,183.206,181.793,184.274,179.257z"></path><path style="fill:#FFF0DE;" d="M193.344,183.523c0,0,0.411-6.983,2.67-8.538c2.259-1.557,1.602,10.673,0,10.673C194.412,185.659,193.344,186.194,193.344,183.523z"></path><path style="fill:#FFF0DE;" d="M315.147,179.253c0,0-5.337-10.675-7.472-11.207c-2.134-0.534,0.743,17.4,3.734,16.547C314.213,183.793,316.215,181.793,315.147,179.253z"></path><path style="fill:#FFF0DE;" d="M307.749,183.524c0,0-0.411-6.984-2.672-8.541c-2.26-1.555-1.6,10.676,0,10.676C306.681,185.659,307.749,186.194,307.749,183.524z"></path><path style="fill:#FFF0DE;" d="M236.449,188.998c0,0,0-10.41,2.403-13.211c2.4-2.802,5.523,13.451,2.804,14.811C239.251,191.801,236.449,191.801,236.449,188.998z"></path><path style="fill:#FFF0DE;" d="M245.259,188.998c-1.606-2.003,0-9.208,0.799-10.41c0.801-1.201,4.002,9.207,2.402,11.208C246.396,192.376,246.858,190.998,245.259,188.998z"></path></g></g></g></g></svg>