<svg xmlns="http://www.w3.org/2000/svg" width="500" height="500" version="1.1"><g id="x9232"><g><linearGradient id="hair1XMLID_4351_" gradientUnits="userSpaceOnUse" x1="249.9995" y1="184.2139" x2="249.9995" y2="224.8057"><stop offset="0" style="stop-color:#FCFCE4"></stop><stop offset="0.5" style="stop-color:#A0C8DD"></stop><stop offset="1" style="stop-color:#5D6EC5"></stop></linearGradient><path style="fill:url(#hair1XMLID_4351_);stroke:#000000;stroke-linecap:round;stroke-linejoin:round;" d="M312.838,135.566C288.513,113.213,250,115.606,250,115.606s-38.513-2.393-62.838,19.96c-27.353,25.135-13.34,85.851-13.34,85.851s12.191-1.48,46.237-29.852c19.96-16.633,29.94-30.495,29.94-30.495s9.98,13.861,29.94,30.495c34.047,28.372,46.237,29.852,46.237,29.852S340.191,160.701,312.838,135.566z"></path><g><path style="fill:none;stroke:#000000;stroke-linecap:round;stroke-linejoin:round;" d="M282.414,165c4.157,3.326,14.535,16.329,21.173,30.964"></path><path style="fill:none;stroke:#000000;stroke-linecap:round;stroke-linejoin:round;" d="M217.586,165c-4.157,3.326-14.535,16.329-21.173,30.964"></path></g><g><g><g><path style="fill:#4B4E58;stroke:#000000;stroke-linecap:round;stroke-linejoin:round;" d="M182.183,175.5c0,0-15.223-29-5.723-60c32,5.5,44.5,18.296,44.5,18.296L182.183,175.5z"></path><g><path style="fill:#FFFFFF;" d="M179.727,122.191c0,0,0,15.925,11.996,21.923c2.275-1.655,2.896-2.688,2.896-2.688S183.863,136.462,179.727,122.191z"></path><path style="fill:#FFFFFF;" d="M186.759,137.497c0,0-2.482-9.928,1.448-14.064c0.207,7.859,0.207,12.203,1.861,15.512C187.586,137.91,186.759,137.497,186.759,137.497z"></path><path style="fill:#FFFFFF;" d="M197.307,130.464c3.93-1.654,10.134,0,7.032,5.998c-1.861-1.448-1.448-4.137-5.584-2.068c-2.75,1.375-3.516,7.239-4.963,8.687s-4.757,2.896-4.757,2.896s-5.17,0.207-5.998,3.103s1.241,5.377,2.896,5.377c-5.377,2.068-7.652-0.828-7.239-3.31c0.414-2.481,3.516-8.272,11.582-8.479C192.343,141.633,193.377,132.119,197.307,130.464z"></path></g></g><linearGradient id="hair1XMLID_4352_" gradientUnits="userSpaceOnUse" x1="197.334" y1="235" x2="197.334" y2="338"><stop offset="0" style="stop-color:#FCFCE4"></stop><stop offset="0.5" style="stop-color:#A0C8DD"></stop><stop offset="1" style="stop-color:#5D6EC5"></stop></linearGradient><path style="fill:url(#hair1XMLID_4352_);stroke:#000000;stroke-linecap:round;stroke-linejoin:round;" d="M221.683,133.5c-25,11-46,26-48.477,94.518L173.196,228c0,0-1.5,39,3.5,48c6.116,12.232,18.575,24.056,25.04,33.472c4.015,13.835,5.031,28.486-0.04,42.528c34.5-32-8.98-93.477-9-141.5c-0.013-31.5,12.487-50,12.487-50 M183.055,260.135c2.179,8.575,4.806,16.922,7.212,24.498c-2.268-3.361-4.647-7.771-6.012-12.909C183.318,268.194,183.018,264.121,183.055,260.135z"></path><linearGradient id="hair1XMLID_4353_" gradientUnits="userSpaceOnUse" x1="195.0015" y1="235" x2="195.0015" y2="337.9998"><stop offset="0" style="stop-color:#FCFCE4"></stop><stop offset="0.5" style="stop-color:#A0C8DD"></stop><stop offset="1" style="stop-color:#5D6EC5"></stop></linearGradient><path style="fill:url(#hair1XMLID_4353_);stroke:#000000;stroke-linecap:round;stroke-linejoin:round;" d="M189.696,290c0,0,12.5,46.5-3.5,57.5c14-5.5,21-26.5,16-49.5"></path></g><g><g><path style="fill:#4B4E58;stroke:#000000;stroke-linecap:round;stroke-linejoin:round;" d="M317.816,175.5c0,0,15.223-29,5.723-60c-32,5.5-44.5,18.296-44.5,18.296L317.816,175.5z"></path><g><path style="fill:#FFFFFF;" d="M320.273,122.191c0,0,0,15.925-11.996,21.923c-2.275-1.655-2.896-2.688-2.896-2.688S316.137,136.462,320.273,122.191z"></path><path style="fill:#FFFFFF;" d="M313.24,137.497c0,0,2.482-9.928-1.447-14.064c-0.207,7.859-0.207,12.203-1.861,15.512C312.414,137.91,313.24,137.497,313.24,137.497z"></path><path style="fill:#FFFFFF;" d="M302.693,130.464c-3.93-1.654-10.135,0-7.033,5.998c1.861-1.448,1.449-4.137,5.586-2.068c2.75,1.375,3.516,7.239,4.963,8.687s4.758,2.896,4.758,2.896s5.17,0.207,5.996,3.103c0.828,2.896-1.24,5.377-2.895,5.377c5.377,2.068,7.652-0.828,7.238-3.31c-0.414-2.481-3.516-8.272-11.582-8.479C307.656,141.633,306.623,132.119,302.693,130.464z"></path></g></g><linearGradient id="hair1XMLID_4354_" gradientUnits="userSpaceOnUse" x1="302.666" y1="235" x2="302.666" y2="338"><stop offset="0" style="stop-color:#FCFCE4"></stop><stop offset="0.5" style="stop-color:#A0C8DD"></stop><stop offset="1" style="stop-color:#5D6EC5"></stop></linearGradient><path style="fill:url(#hair1XMLID_4354_);stroke:#000000;stroke-linecap:round;stroke-linejoin:round;" d="M294.816,160.5c0,0,12.5,18.5,12.488,50c-0.02,48.023-43.5,109.5-9,141.5c-5.072-14.042-4.057-28.693-0.041-42.528c6.465-9.416,18.924-21.239,25.041-33.472c5-9,3.5-48,3.5-48l-0.012,0.018c-2.477-68.518-23.477-83.518-48.477-94.518 M315.744,271.724c-1.363,5.139-3.744,9.548-6.012,12.909c2.406-7.576,5.033-15.923,7.213-24.498C316.982,264.121,316.682,268.194,315.744,271.724z"></path><linearGradient id="hair1XMLID_4355_" gradientUnits="userSpaceOnUse" x1="304.999" y1="235" x2="304.999" y2="337.9998"><stop offset="0" style="stop-color:#FCFCE4"></stop><stop offset="0.5" style="stop-color:#A0C8DD"></stop><stop offset="1" style="stop-color:#5D6EC5"></stop></linearGradient><path style="fill:url(#hair1XMLID_4355_);stroke:#000000;stroke-linecap:round;stroke-linejoin:round;" d="M310.305,290c0,0-12.5,46.5,3.5,57.5c-14-5.5-21-26.5-16-49.5"></path></g></g></g></g></svg>