<svg xmlns="http://www.w3.org/2000/svg" width="500" height="500" version="1.1"><g id="x9234"><g><g><g><g><linearGradient id="hair1XMLID_4362_" gradientUnits="userSpaceOnUse" x1="249.9995" y1="160.332" x2="249.9995" y2="387.6652"><stop offset="0" style="stop-color:#FCFCE4"></stop><stop offset="0.5" style="stop-color:#A0C8DD"></stop><stop offset="1" style="stop-color:#5D6EC5"></stop></linearGradient><path style="fill:url(#hair1XMLID_4362_);stroke:#000000;stroke-linecap:round;stroke-linejoin:round;" d="M312.734,135.882c-17.241-17.643-42.244-24.026-62.256-19.991c-0.16,0.019-0.317,0.034-0.478,0.054c-0.16-0.02-0.317-0.035-0.478-0.054c-20.014-4.035-45.017,2.348-62.258,19.991c-13.061,13.365-22.283,30.165-22.283,51.08c0,32.694,14.267,47.104,14.827,48.325c0,0-5.229-21.928,5.742-24.67c4.113-0.686,9.78-33.574,16.455-44.566c1.829-2.195,24.358-4.665,47.994-4.677c23.633,0.012,46.163,2.481,47.992,4.677c6.674,10.992,12.342,43.88,16.455,44.566c10.971,2.742,6.645,25.272,6.645,25.272c0.561-1.221,13.925-19.239,13.925-48.927C335.018,166.047,325.795,149.248,312.734,135.882z"></path></g></g></g><g><linearGradient id="hair1XMLID_4363_" gradientUnits="userSpaceOnUse" x1="249.9585" y1="166.332" x2="249.9585" y2="208.332"><stop offset="0" style="stop-color:#FCFCE4"></stop><stop offset="0.5" style="stop-color:#A0C8DD"></stop><stop offset="1" style="stop-color:#5D6EC5"></stop></linearGradient><path style="fill:url(#hair1XMLID_4363_);stroke:#000000;stroke-linecap:round;stroke-linejoin:round;" d="M201.382,153.207c-12.49,23.637-9.368,69.126-9.368,69.126s3.122-2.229,8.029-6.689c3.568-13.825,5.13-21.407,12.489-37.462c-3.568,17.839,0.445,33.895,0.445,33.895s4.461,0.892,11.151,0c-1.127-3.004-1.305-18.971-0.533-32.194c-0.2,14.073,3.655,31.748,3.655,31.748s2.23,0.445,4.016,0.446c-3.569-8.027-3.123-41.03-3.123-41.03s0.445,32.11,7.137,40.584c8.92,1.338,14.719,0.446,14.719,0.446s5.8,0.892,14.72-0.446c6.692-8.474,7.139-40.584,7.139-40.584s-1.664,32.802-5.232,40.829c1.785-0.001,7-0.25,7-0.25s2.979-17.666,2.78-31.738c0.771,13.223,0.592,29.185-0.534,32.189c6.69,0.892,11.15,0,11.15,0s4.016-16.056,0.446-33.895c6.032,17.693,4.657,22.318,5.657,33.318c9.25,3.875,14.75,7.75,14.75,7.75s3.233-42.406-9.257-66.043"></path><linearGradient id="hair1XMLID_4364_" gradientUnits="userSpaceOnUse" x1="202.8564" y1="175.7471" x2="202.8564" y2="206.9366"><stop offset="0" style="stop-color:#FCFCE4"></stop><stop offset="0.5" style="stop-color:#A0C8DD"></stop><stop offset="1" style="stop-color:#5D6EC5"></stop></linearGradient><path style="fill:url(#hair1XMLID_4364_);stroke:#000000;stroke-linecap:round;stroke-linejoin:round;" d="M201.333,166c0,0-8,23.333-3.666,51.333c8.666-2.333,9.666-3.333,9.666-3.333s-3-20,2-39.333"></path><g><g><linearGradient id="hair1XMLID_4365_" gradientUnits="userSpaceOnUse" x1="180.7505" y1="172.1113" x2="180.7505" y2="334.2769"><stop offset="0" style="stop-color:#FCFCE4"></stop><stop offset="0.5" style="stop-color:#A0C8DD"></stop><stop offset="1" style="stop-color:#5D6EC5"></stop></linearGradient><path style="fill:url(#hair1XMLID_4365_);stroke:#000000;stroke-linecap:round;stroke-linejoin:round;" d="M179.498,150c-17.264,44.665-2.995,112.847-1.001,120.83c-1.666,47.549-17.999,53.302-11.332,95.094c2.875,18.021,14.762,19.987,24.096,22.41c-8.667-8.479-6.667-24.228-6.667-24.228s-0.75,11.887,9.505,15.747c-4.185-3.405-11.254-18.86-9.338-37.703c2.329-22.922,10.093-86.128,9.069-100.392c-2.769-38.598,2.097-80.758,2.097-80.758"></path><path style="fill:none;stroke:#000000;stroke-linecap:round;stroke-linejoin:round;" d="M178.527,270.075c0,0,3.069,17.108,6.403,37.096"></path></g><g><linearGradient id="hair1XMLID_4366_" gradientUnits="userSpaceOnUse" x1="322.2539" y1="172.1113" x2="322.2539" y2="334.2769" gradientTransform="matrix(-1 0 0 1 641.5039 0)"><stop offset="0" style="stop-color:#FCFCE4"></stop><stop offset="0.5" style="stop-color:#A0C8DD"></stop><stop offset="1" style="stop-color:#5D6EC5"></stop></linearGradient><path style="fill:url(#hair1XMLID_4366_);stroke:#000000;stroke-linecap:round;stroke-linejoin:round;" d="M320.502,150c17.264,44.665,2.995,112.847,1.002,120.83c1.664,47.549,17.998,53.302,11.332,95.094c-2.875,18.021-14.763,19.987-24.096,22.41c8.666-8.479,6.666-24.228,6.666-24.228s0.75,11.887-9.505,15.747c4.185-3.405,11.253-18.86,9.339-37.703c-2.33-22.922-10.094-86.128-9.07-100.392c2.77-38.598-2.097-80.758-2.097-80.758"></path><path style="fill:#FDFBE1;" d="M179.524,179.257c0,0,5.335-10.679,7.472-11.21c2.136-0.534-0.744,17.4-3.738,16.547C180.457,183.794,178.456,181.793,179.524,179.257z"></path><path style="fill:#FDFBE1;" d="M188.594,183.523c0,0,0.411-6.983,2.67-8.538c2.259-1.557,1.602,10.673,0,10.673C189.662,185.659,188.594,186.194,188.594,183.523z"></path><path style="fill:#FDFBE1;" d="M320.563,179.586c0,0-5.337-10.675-7.472-11.207c-2.134-0.534,0.743,17.4,3.734,16.547C319.629,184.126,321.631,182.126,320.563,179.586z"></path><path style="fill:#FDFBE1;" d="M313.165,183.857c0,0-0.411-6.984-2.672-8.541c-2.26-1.555-1.6,10.676,0,10.676C312.097,185.992,313.165,186.527,313.165,183.857z"></path><path style="fill:#FDFBE1;" d="M234.449,190.331c0,0,0-10.41,2.403-13.211c2.4-2.802,5.523,13.451,2.804,14.811C237.251,193.134,234.449,193.134,234.449,190.331z"></path><path style="fill:#FDFBE1;" d="M243.259,190.331c-1.606-2.003,0-9.208,0.799-10.41c0.801-1.201,4.002,9.207,2.402,11.208C244.396,193.709,244.858,192.331,243.259,190.331z"></path><path style="fill:none;stroke:#000000;stroke-linecap:round;stroke-linejoin:round;" d="M321.473,270.075c0,0-3.069,17.108-6.402,37.096"></path></g></g></g></g></g></svg>