<svg xmlns="http://www.w3.org/2000/svg" width="500" height="500" version="1.1"><g id="x9235"><g><g><g><g><g><linearGradient id="hair1XMLID_4367_" gradientUnits="userSpaceOnUse" x1="250.0005" y1="216.3335" x2="250.0005" y2="166.667"><stop offset="0" style="stop-color:#FCFCE4"></stop><stop offset="0.5" style="stop-color:#A0C8DD"></stop><stop offset="1" style="stop-color:#5D6EC5"></stop></linearGradient><path style="fill:url(#hair1XMLID_4367_);stroke:#000000;stroke-linecap:round;stroke-linejoin:round;" d="M312.734,135.882c-17.241-17.643-42.244-24.026-62.256-19.991c-0.16,0.019-0.317,0.034-0.478,0.054c-0.16-0.02-0.317-0.035-0.478-0.054c-20.014-4.035-45.017,2.348-62.258,19.991c-13.061,13.365-22.283,30.165-22.283,51.08c0,32.694,14.267,47.104,14.827,48.325c0,0-5.229-21.928,5.742-24.67c4.113-0.686,9.78-33.574,16.455-44.566c1.829-2.195,24.358-4.665,47.994-4.677c23.633,0.012,46.163,2.481,47.992,4.677c6.674,10.992,10.007,25.95,16.455,44.566C313.725,218.059,311,226.5,310,231.5c4.167,1.5,5.5,6.5,5.5,6.5c0.561-1.221,19.518-21.35,19.518-51.038C335.018,166.047,325.795,149.248,312.734,135.882z"></path><linearGradient id="hair1XMLID_4368_" gradientUnits="userSpaceOnUse" x1="157.6997" y1="216.3335" x2="157.6997" y2="166.667"><stop offset="0" style="stop-color:#FCFCE4"></stop><stop offset="0.5" style="stop-color:#A0C8DD"></stop><stop offset="1" style="stop-color:#5D6EC5"></stop></linearGradient><path style="fill:url(#hair1XMLID_4368_);stroke:#000000;stroke-linecap:round;stroke-linejoin:round;" d="M170.333,188c0,0-6.667,11.667-28.967,17.434c17.3-12.767,26.667-40.667,32.667-52"></path><g><g><linearGradient id="hair1XMLID_4369_" gradientUnits="userSpaceOnUse" x1="189.0884" y1="330.3896" x2="189.0884" y2="243.6947"><stop offset="0" style="stop-color:#FCFCE4"></stop><stop offset="0.5" style="stop-color:#A0C8DD"></stop><stop offset="1" style="stop-color:#5D6EC5"></stop></linearGradient><path style="fill:url(#hair1XMLID_4369_);stroke:#000000;stroke-linecap:round;stroke-linejoin:round;" d="M178.5,216.5c0.5,1.5-5.583,43.917-1.083,53.917C180,274.917,186,276,186,276l13-0.5c0,0,3.667-1.5,3.417-5c-1.5-8-5.083-22.083-7.583-34.083"></path><path style="fill:none;stroke:#000000;stroke-linecap:round;stroke-linejoin:round;" d="M195.25,250.75c0,0,2.417,14.084,2.75,24.5"></path><path style="fill:none;stroke:#000000;stroke-linecap:round;stroke-linejoin:round;" d="M181.25,264c0,0,1.5,6.5,7.25,11.5"></path></g><g><linearGradient id="hair1XMLID_4370_" gradientUnits="userSpaceOnUse" x1="190.7183" y1="320.334" x2="190.7183" y2="249.667"><stop offset="0" style="stop-color:#FCFCE4"></stop><stop offset="0.5" style="stop-color:#A0C8DD"></stop><stop offset="1" style="stop-color:#5D6EC5"></stop></linearGradient><path style="fill:url(#hair1XMLID_4370_);stroke:#000000;stroke-linecap:round;stroke-linejoin:round;" d="M187.25,283c0,0-10,12.75-9,21.75s7.5,15.25,7.5,15.25s0,8.25,8,11.75c-0.75-7,1.75-12.75,3.5-14.75s7.25-8,5.75-17s-5.5-17-5.5-17H187.25z"></path><path style="fill:none;stroke:#000000;stroke-linecap:round;stroke-linejoin:round;" d="M198.75,305.25c0,0-0.25,9.75-3,14.25"></path><path style="fill:none;stroke:#000000;stroke-linecap:round;stroke-linejoin:round;" d="M183,296.75c0,0-2.25,13.25,2,19"></path></g><g><path style="fill:#4B345F;stroke:#000000;stroke-linecap:round;stroke-linejoin:round;" d="M200.917,279.935c0,3.636-3.806,4.314-8.5,4.314s-8.5-0.679-8.5-4.314s3.806-6.583,8.5-6.583S200.917,276.299,200.917,279.935z"></path><path style="fill:#FFE6FF;stroke:#000000;stroke-linecap:round;stroke-linejoin:round;" d="M201.5,278.602c0,0.828-0.671,1.5-1.5,1.5h-15.166c-0.829,0-1.5-0.672-1.5-1.5l0,0c0-0.828,0.671-1.5,1.5-1.5H200C200.829,277.102,201.5,277.773,201.5,278.602L201.5,278.602z"></path></g></g></g></g></g><linearGradient id="hair1XMLID_4371_" gradientUnits="userSpaceOnUse" x1="203.5254" y1="216.3335" x2="203.5254" y2="166.667"><stop offset="0" style="stop-color:#FCFCE4"></stop><stop offset="0.5" style="stop-color:#A0C8DD"></stop><stop offset="1" style="stop-color:#5D6EC5"></stop></linearGradient><path style="fill:url(#hair1XMLID_4371_);stroke:#000000;stroke-linecap:round;stroke-linejoin:round;" d="M220.5,159.5c0,0-23.5,30.5-28.5,63.5c-11-19.5-3-58.5,3.5-66"></path><linearGradient id="hair1XMLID_4372_" gradientUnits="userSpaceOnUse" x1="156.333" y1="216.3335" x2="156.333" y2="166.667"><stop offset="0" style="stop-color:#FCFCE4"></stop><stop offset="0.5" style="stop-color:#A0C8DD"></stop><stop offset="1" style="stop-color:#5D6EC5"></stop></linearGradient><path style="fill:url(#hair1XMLID_4372_);stroke:#000000;stroke-linecap:round;stroke-linejoin:round;" d="M185.008,164.67c-2.967,6.498-5.767,15.374-6.425,26.48c-1.5,25.313,2,59.456-26.5,75.35c10-10.596,14.5-26.49,14.5-26.49s-12.5,32.377-42,22.37c32-5.887,32.5-90.656,63.5-115.38"></path><linearGradient id="hair1XMLID_4373_" gradientUnits="userSpaceOnUse" x1="187.6353" y1="216.3335" x2="187.6353" y2="166.667"><stop offset="0" style="stop-color:#FCFCE4"></stop><stop offset="0.5" style="stop-color:#A0C8DD"></stop><stop offset="1" style="stop-color:#5D6EC5"></stop></linearGradient><path style="fill:url(#hair1XMLID_4373_);stroke:#000000;stroke-linecap:round;stroke-linejoin:round;" d="M202,153c0,0-24.5,55-2,91.5c-14.5-5-37-34-21.5-85"></path><path style="fill:none;stroke:#000000;stroke-linecap:round;stroke-linejoin:round;" d="M305.5,183.5c0,0,9,9.5,13,19"></path><linearGradient id="hair1XMLID_4374_" gradientUnits="userSpaceOnUse" x1="242.7622" y1="216.3335" x2="242.7622" y2="166.667"><stop offset="0" style="stop-color:#FCFCE4"></stop><stop offset="0.5" style="stop-color:#A0C8DD"></stop><stop offset="1" style="stop-color:#5D6EC5"></stop></linearGradient><path style="fill:url(#hair1XMLID_4374_);stroke:#000000;stroke-linecap:round;stroke-linejoin:round;" d="M265.5,151.5c0,0-6,41.5,2.5,68c-10.5-10.5-13.5-24-13.5-24s2.5,24.5,11.5,34c-5-0.5-7.5-4-7.5-4l2,5c0,0-9.5,1.5-13.5-1.5c-6.5-4.5-9.5-17.5-10.5-22c0.5,11,3.5,16.5,6,20.5c-6.5-3-17.5-19-17-46c-2,14,0,33.5,5.5,42.5c-10.5-9.5-21-47-6-79.5"></path><path style="fill:none;stroke:#000000;stroke-linecap:round;stroke-linejoin:round;" d="M238,135c0,0-9.5,19.5-8.5,40.5"></path><path style="fill:none;stroke:#000000;stroke-linecap:round;stroke-linejoin:round;" d="M265.5,161.5c0,0,13.5-7.5,30.5-9"></path><path style="fill:none;stroke:#000000;stroke-linecap:round;stroke-linejoin:round;" d="M269,160.5c0,0,12.5-3,21.5-2"></path><path style="fill:none;stroke:#000000;stroke-linecap:round;stroke-linejoin:round;" d="M298,159.5c0,0,8.5,1.5,12,6"></path><g><linearGradient id="hair1XMLID_4375_" gradientUnits="userSpaceOnUse" x1="341.167" y1="216.3335" x2="341.167" y2="166.667"><stop offset="0" style="stop-color:#FCFCE4"></stop><stop offset="0.5" style="stop-color:#A0C8DD"></stop><stop offset="1" style="stop-color:#5D6EC5"></stop></linearGradient><path style="fill:url(#hair1XMLID_4375_);stroke:#000000;stroke-linecap:round;stroke-linejoin:round;" d="M306.917,151.709c0,0,12.978,13.756,14.5,39.441c1.5,25.313-2,59.456,26.5,75.35c-10-10.596-14.5-26.49-14.5-26.49s12.5,32.377,42,22.37c-32-5.887-32.5-90.656-63.5-115.38"></path></g><path style="fill:none;stroke:#000000;stroke-linecap:round;stroke-linejoin:round;" d="M313.334,207.5c0,0,3.666,8.5,5.333,14.5"></path></g><g><g><path style="fill:#FFF0DE;" d="M177.274,179.257c0,0,5.335-10.679,7.472-11.21c2.136-0.534-0.744,17.4-3.738,16.547C178.207,183.794,176.206,181.793,177.274,179.257z"></path><path style="fill:#FFF0DE;" d="M186.344,183.523c0,0,0.411-6.983,2.67-8.538c2.259-1.557,1.602,10.673,0,10.673C187.412,185.659,186.344,186.194,186.344,183.523z"></path><path style="fill:#FFF0DE;" d="M236.449,188.998c0,0,0-10.41,2.403-13.211c2.4-2.802,5.523,13.451,2.804,14.811C239.251,191.801,236.449,191.801,236.449,188.998z"></path><path style="fill:#FFF0DE;" d="M245.259,188.998c-1.606-2.003,0-9.208,0.799-10.41c0.801-1.201,4.002,9.207,2.402,11.208C246.396,192.376,246.858,190.998,245.259,188.998z"></path></g></g></g></g></svg>