<svg xmlns="http://www.w3.org/2000/svg" width="500" height="500" version="1.1"><g id="x9250"><g><g><linearGradient id="hair1XMLID_4485_" gradientUnits="userSpaceOnUse" x1="249.9995" y1="125" x2="249.9995" y2="183.667"><stop offset="0" style="stop-color:#FCFCE4"></stop><stop offset="0.5" style="stop-color:#A0C8DD"></stop><stop offset="1" style="stop-color:#5D6EC5"></stop></linearGradient><path style="fill:url(#hair1XMLID_4485_);stroke:#000000;stroke-linecap:round;stroke-linejoin:round;" d="M312.734,135.882c-17.241-17.643-42.244-24.026-62.256-19.991c-0.16,0.019-0.317,0.034-0.478,0.054c-0.16-0.02-0.317-0.035-0.478-0.054c-20.014-4.035-45.017,2.348-62.258,19.991c-13.061,13.365-22.283,30.165-22.283,51.08c0,32.694,14.267,47.104,14.827,48.325c0,0-5.229-21.928,5.742-24.67c4.113-0.686,9.78-33.574,16.455-44.566c1.829-2.195,24.358-4.665,47.994-4.677c23.633,0.012,46.163,2.481,47.992,4.677c6.674,10.992,12.342,43.88,16.455,44.566c10.971,2.742,6.645,25.272,6.645,25.272c0.561-1.221,13.925-19.239,13.925-48.927C335.018,166.047,325.795,149.248,312.734,135.882z"></path></g><g><g><g><linearGradient id="hair1XMLID_4486_" gradientUnits="userSpaceOnUse" x1="306.9902" y1="125" x2="306.9902" y2="183.667"><stop offset="0" style="stop-color:#FCFCE4"></stop><stop offset="0.5" style="stop-color:#A0C8DD"></stop><stop offset="1" style="stop-color:#5D6EC5"></stop></linearGradient><path style="fill:url(#hair1XMLID_4486_);stroke:#000000;stroke-linecap:round;stroke-linejoin:round;" d="M306.23,239.364c0,0-13.666,51.969-9.833,81.969c6.667,6.5,20.079,5.502,20.079,5.502s-9.745-11.502-6.274-42.167c2.771-24.486,10.456-39.729,7.318-64.123"></path><linearGradient id="hair1XMLID_4487_" gradientUnits="userSpaceOnUse" x1="312.9795" y1="125" x2="312.9795" y2="183.6671"><stop offset="0" style="stop-color:#FCFCE4"></stop><stop offset="0.5" style="stop-color:#A0C8DD"></stop><stop offset="1" style="stop-color:#5D6EC5"></stop></linearGradient><path style="fill:url(#hair1XMLID_4487_);stroke:#000000;stroke-linecap:round;stroke-linejoin:round;" d="M309.564,287.5c0,0.5,2.833,28.834,12.5,35.667c-3.167,0.666-10.667,3-10.667,3s-7.666-8.5-7.5-33.334"></path></g><linearGradient id="hair1XMLID_4488_" gradientUnits="userSpaceOnUse" x1="250.0005" y1="125" x2="250.0005" y2="183.667"><stop offset="0" style="stop-color:#FCFCE4"></stop><stop offset="0.5" style="stop-color:#A0C8DD"></stop><stop offset="1" style="stop-color:#5D6EC5"></stop></linearGradient><path style="fill:url(#hair1XMLID_4488_);stroke:#000000;stroke-linecap:round;stroke-linejoin:round;" d="M200.667,156.342c-8.1,18.408-8.097,50.805-8.097,50.805s8.835,0.736,13.989,0.736c0-8.835,5.89-32.396,5.89-32.396s-2.208,21.352,0.735,33.133c10.31,6.626,36.816,6.626,36.816,6.626s26.507,0,36.814-6.626c2.945-11.781,0.736-33.133,0.736-33.133s5.892,23.562,5.892,32.396c5.153,0,13.989-0.736,13.989-0.736s0.002-32.397-8.098-50.805"></path><linearGradient id="hair1XMLID_4489_" gradientUnits="userSpaceOnUse" x1="312.1738" y1="125" x2="312.1738" y2="183.667"><stop offset="0" style="stop-color:#FCFCE4"></stop><stop offset="0.5" style="stop-color:#A0C8DD"></stop><stop offset="1" style="stop-color:#5D6EC5"></stop></linearGradient><path style="fill:url(#hair1XMLID_4489_);stroke:#000000;stroke-linecap:round;stroke-linejoin:round;" d="M298.912,155.725c0,0,11.155,58.546,4.88,87.82c6.968,1.395,13.242,0.698,13.242,0.698s12.549-31.365,6.971-73.881"></path></g><g><g><linearGradient id="hair1XMLID_4490_" gradientUnits="userSpaceOnUse" x1="194.0103" y1="125" x2="194.0103" y2="183.667"><stop offset="0" style="stop-color:#FCFCE4"></stop><stop offset="0.5" style="stop-color:#A0C8DD"></stop><stop offset="1" style="stop-color:#5D6EC5"></stop></linearGradient><path style="fill:url(#hair1XMLID_4490_);stroke:#000000;stroke-linecap:round;stroke-linejoin:round;" d="M194.77,239.364c0,0,13.666,51.969,9.833,81.969c-6.667,6.5-20.079,5.502-20.079,5.502s9.745-11.502,6.274-42.167c-2.771-24.486-10.456-39.729-7.318-64.123"></path><linearGradient id="hair1XMLID_4491_" gradientUnits="userSpaceOnUse" x1="188.02" y1="125" x2="188.02" y2="183.6671"><stop offset="0" style="stop-color:#FCFCE4"></stop><stop offset="0.5" style="stop-color:#A0C8DD"></stop><stop offset="1" style="stop-color:#5D6EC5"></stop></linearGradient><path style="fill:url(#hair1XMLID_4491_);stroke:#000000;stroke-linecap:round;stroke-linejoin:round;" d="M191.436,287.5c0,0.5-2.833,28.834-12.5,35.667c3.167,0.666,10.667,3,10.667,3s7.666-8.5,7.5-33.334"></path></g><linearGradient id="hair1XMLID_4492_" gradientUnits="userSpaceOnUse" x1="187.8267" y1="125" x2="187.8267" y2="183.667"><stop offset="0" style="stop-color:#FCFCE4"></stop><stop offset="0.5" style="stop-color:#A0C8DD"></stop><stop offset="1" style="stop-color:#5D6EC5"></stop></linearGradient><path style="fill:url(#hair1XMLID_4492_);stroke:#000000;stroke-linecap:round;stroke-linejoin:round;" d="M201.088,155.725c0,0-11.155,58.546-4.88,87.82c-6.968,1.395-13.242,0.698-13.242,0.698s-12.549-31.365-6.971-73.881"></path></g></g><g><g><path style="fill:#FFF0DE;" d="M177.524,180.757c0,0,5.335-10.679,7.472-11.21c2.136-0.534-0.744,17.4-3.738,16.547C178.457,185.294,176.456,183.293,177.524,180.757z"></path><path style="fill:#FFF0DE;" d="M186.594,185.023c0,0,0.411-6.983,2.67-8.538c2.259-1.557,1.602,10.673,0,10.673C187.662,187.159,186.594,187.694,186.594,185.023z"></path><path style="fill:#FFF0DE;" d="M322.48,180.753c0,0-5.337-10.675-7.472-11.207c-2.134-0.534,0.743,17.4,3.734,16.547C321.546,185.293,323.548,183.293,322.48,180.753z"></path><path style="fill:#FFF0DE;" d="M315.082,185.024c0,0-0.411-6.984-2.672-8.541c-2.26-1.555-1.6,10.676,0,10.676C314.014,187.159,315.082,187.694,315.082,185.024z"></path><path style="fill:#FFF0DE;" d="M244.782,189.498c0,0,0-10.41,2.403-13.211c2.4-2.802,5.523,13.451,2.804,14.811C247.585,192.301,244.782,192.301,244.782,189.498z"></path><path style="fill:#FFF0DE;" d="M254.259,190.498c-1.606-2.003,0-9.208,0.799-10.41c0.801-1.201,4.002,9.207,2.402,11.208C255.396,193.876,255.858,192.498,254.259,190.498z"></path></g></g></g></g></svg>