<svg xmlns="http://www.w3.org/2000/svg" width="500" height="500" version="1.1"><g id="x9255"><g><g><g><g><linearGradient id="hair1XMLID_4527_" gradientUnits="userSpaceOnUse" x1="249.9995" y1="157.3335" x2="249.9995" y2="191.667"><stop offset="0" style="stop-color:#FCFCE4"></stop><stop offset="0.5" style="stop-color:#A0C8DD"></stop><stop offset="1" style="stop-color:#5D6EC5"></stop></linearGradient><path style="fill:url(#hair1XMLID_4527_);stroke:#000000;stroke-linecap:round;stroke-linejoin:round;" d="M309.77,135.882c-16.427-17.643-40.247-24.026-59.313-19.991c-0.152,0.019-0.302,0.034-0.455,0.054c-0.152-0.02-0.302-0.035-0.455-0.054c-19.068-4.035-42.889,2.348-59.316,19.991c-12.443,13.365-21.23,30.165-21.23,51.08c0,32.694,13.592,47.104,14.126,48.325c0,0-4.981-21.928,5.471-24.67c3.919-0.686,9.318-33.574,15.677-44.566c1.743-2.195,23.208-4.665,45.727-4.677c22.517,0.012,49.923,2.481,51.666,4.677c4.333,5.283,12.666,16.283,14,45.95c0.598,6.05,2.066,23.889,2.066,23.889C318.268,234.667,331,216.65,331,186.962C331,166.047,322.214,149.248,309.77,135.882z"></path></g><linearGradient id="hair1XMLID_4528_" gradientUnits="userSpaceOnUse" x1="317.7227" y1="157.3335" x2="317.7227" y2="191.6669"><stop offset="0" style="stop-color:#FCFCE4"></stop><stop offset="0.5" style="stop-color:#A0C8DD"></stop><stop offset="1" style="stop-color:#5D6EC5"></stop></linearGradient><path style="fill:url(#hair1XMLID_4528_);stroke:#000000;stroke-linecap:round;stroke-linejoin:round;" d="M309.333,178.333c0.334,1,4,65.333,1.025,112.642c-2.26,46.13-7.288,95.42-9.024,103.357c3,0.334,3,0.334,3,0.334S307,375.668,309,364.334C308.666,379,307.334,395,307.334,395l9.666,1l1-11.667L320,396c0,0,5.667,2,9.333,0.667c0.668-6.147-0.554-31.37-0.262-63.754c1.518-8.058,5.786-38.182,4.929-63.913c-0.85-25.491-2.346-49.287-3.377-55.867c-0.496-12.897,1.461-24.476-0.289-35.133 M328,321.667c0.044-13.508,0.172-33.285,0-47.667c0.586-14.293,0.938-27.29,0.973-39.232c1.023,9.385,2.18,22.146,2.36,34.232C331.545,283.149,331.333,308.333,328,321.667z"></path><linearGradient id="hair1XMLID_4529_" gradientUnits="userSpaceOnUse" x1="167.9858" y1="157.3335" x2="167.9858" y2="191.667"><stop offset="0" style="stop-color:#FCFCE4"></stop><stop offset="0.5" style="stop-color:#A0C8DD"></stop><stop offset="1" style="stop-color:#5D6EC5"></stop></linearGradient><path style="fill:url(#hair1XMLID_4529_);stroke:#000000;stroke-linecap:round;stroke-linejoin:round;" d="M172.667,164c0,0-10.568,28.002-11,46.333c-0.667,28.333,10.667,44.333,10.667,44.333l0.667-11c0,0-8.333-6.667-8-32.333c0.217-16.669,9.333-43.667,9.333-43.667"></path><linearGradient id="hair1XMLID_4530_" gradientUnits="userSpaceOnUse" x1="196.7954" y1="157.3335" x2="196.7954" y2="191.667"><stop offset="0" style="stop-color:#FCFCE4"></stop><stop offset="0.5" style="stop-color:#A0C8DD"></stop><stop offset="1" style="stop-color:#5D6EC5"></stop></linearGradient><path style="fill:url(#hair1XMLID_4530_);stroke:#000000;stroke-linecap:round;stroke-linejoin:round;" d="M169.333,184c-3.667,31.333,3,84.001,5.667,90.667s7.333,15.333,15.333,19.667c11.667,6.333,26.333,3.25,28.333,2.916c1.083-1.667,6.448-8.231,6.667-8.25c-15-1.333-30.333-28.167-31.442-31.222c-2.392-18.723-3.558-49.111-3.558-49.111 M196.667,271c-0.702-1.404-1.344-4.038-1.928-7.449c4.062,11.354,16.894,23.424,23.682,27.417C213.344,288.893,202.824,283.316,196.667,271z"></path></g><g><linearGradient id="hair1XMLID_4531_" gradientUnits="userSpaceOnUse" x1="249.856" y1="157.3335" x2="249.856" y2="191.667"><stop offset="0" style="stop-color:#FCFCE4"></stop><stop offset="0.5" style="stop-color:#A0C8DD"></stop><stop offset="1" style="stop-color:#5D6EC5"></stop></linearGradient><path style="fill:url(#hair1XMLID_4531_);stroke:#000000;stroke-linecap:round;stroke-linejoin:round;" d="M198.667,155.667c-13.667,27.333-10,55.667-10,55.667S204,207.667,268,209.435c-0.667-22,2.334-50.435,2.334-50.435s5.999,23,6.666,50.667c15.333,0,34,3.333,34,3.333s3.666-31.333-9-53.333"></path><path style="fill:none;stroke:#000000;stroke-linecap:round;stroke-linejoin:round;" d="M212.667,208.667c0,0-3-26.666,6.333-51.333"></path></g></g><linearGradient id="hair1XMLID_4532_" gradientUnits="userSpaceOnUse" x1="166.1665" y1="157.3335" x2="166.1665" y2="191.667"><stop offset="0" style="stop-color:#FCFCE4"></stop><stop offset="0.5" style="stop-color:#A0C8DD"></stop><stop offset="1" style="stop-color:#5D6EC5"></stop></linearGradient><path style="fill:url(#hair1XMLID_4532_);stroke:#000000;stroke-linecap:round;stroke-linejoin:round;" d="M172.333,172.667c0,0-1.333,31.333-14.667,39.333c0,0,15.333-2.667,17-26.333"></path><g><g><path style="fill:#FFF0DE;" d="M190.94,180.757c0,0,5.335-10.679,7.472-11.21c2.136-0.534-0.744,17.4-3.738,16.547C191.874,185.294,189.872,183.293,190.94,180.757z"></path><path style="fill:#FFF0DE;" d="M200.011,185.023c0,0,0.411-6.983,2.67-8.538c2.259-1.557,1.602,10.673,0,10.673C201.079,187.159,200.011,187.694,200.011,185.023z"></path><path style="fill:#FFF0DE;" d="M308.48,180.753c0,0-5.337-10.675-7.472-11.207c-2.134-0.534,0.743,17.4,3.734,16.547C307.546,185.293,309.548,183.293,308.48,180.753z"></path><path style="fill:#FFF0DE;" d="M301.082,185.024c0,0-0.411-6.984-2.672-8.541c-2.26-1.555-1.6,10.676,0,10.676C300.014,187.159,301.082,187.694,301.082,185.024z"></path><path style="fill:#FFF0DE;" d="M244.782,189.498c0,0,0-10.41,2.403-13.211c2.4-2.802,5.523,13.451,2.804,14.811C247.585,192.301,244.782,192.301,244.782,189.498z"></path><path style="fill:#FFF0DE;" d="M254.259,190.498c-1.606-2.003,0-9.208,0.799-10.41c0.801-1.201,4.002,9.207,2.402,11.208C255.396,193.876,255.858,192.498,254.259,190.498z"></path></g></g></g></g></svg>