<svg xmlns="http://www.w3.org/2000/svg" width="500" height="500" version="1.1"><g id="x9257"><g><g><linearGradient id="hair1XMLID_4544_" gradientUnits="userSpaceOnUse" x1="249.9995" y1="123" x2="249.9995" y2="272.3329"><stop offset="0" style="stop-color:#FCFCE4"></stop><stop offset="0.5" style="stop-color:#A0C8DD"></stop><stop offset="1" style="stop-color:#5D6EC5"></stop></linearGradient><path style="fill:url(#hair1XMLID_4544_);stroke:#000000;stroke-linecap:round;stroke-linejoin:round;" d="M312.734,135.882c-17.241-17.643-42.244-24.026-62.256-19.991c-0.16,0.019-0.317,0.034-0.478,0.054c-0.16-0.02-0.317-0.035-0.478-0.054c-20.014-4.035-45.017,2.348-62.258,19.991c-13.061,13.365-22.283,30.165-22.283,51.08c0,32.694,14.267,47.104,14.827,48.325c0,0-5.229-21.928,5.742-24.67c4.113-0.686,9.78-33.574,16.455-44.566c1.829-2.195,24.358-4.665,47.994-4.677c23.633,0.012,46.163,2.481,47.992,4.677c6.674,10.992,12.342,43.88,16.455,44.566c10.971,2.742,6.645,25.272,6.645,25.272c0.561-1.221,13.925-19.239,13.925-48.927C335.018,166.047,325.795,149.248,312.734,135.882z"></path></g><g><g><g><linearGradient id="hair1XMLID_4545_" gradientUnits="userSpaceOnUse" x1="183.3853" y1="123" x2="183.3853" y2="272.3329"><stop offset="0" style="stop-color:#FCFCE4"></stop><stop offset="0.5" style="stop-color:#A0C8DD"></stop><stop offset="1" style="stop-color:#5D6EC5"></stop></linearGradient><path style="fill:url(#hair1XMLID_4545_);stroke:#000000;stroke-linecap:round;stroke-linejoin:round;" d="M193.93,180.699c-0.222-0.6,2.958,17.521,2.807,19.145c-0.153,1.625-7.455,7.918-7.455,7.918s2.47,8.021,2.306,9.242c-0.167,1.219-4.433,7.421-4.433,7.421s4.18,11.008,3.829,12.84c-0.35,1.833-4.157,6.501-4.157,6.501s1.229,3.811,2.896,12.058c-1.278,4.593-7.148,11.349-7.148,11.349l-8.135-1.269c0,0-4.222-5.745-4.411-12.016c2.718-7.167,5.139-10.783,5.139-10.783s-2.504-5.895-2.572-8.118c-0.069-2.227,4.821-11.281,4.821-11.281s-3.193-5.167-3.499-8.599c1.285-4.29,4.565-9.651,4.565-9.651s-4.073-7.57-3.742-10.008c0.331-2.44,8.409-16.449,8.409-16.449L193.93,180.699z"></path><path style="fill:none;stroke:#000000;stroke-linecap:round;stroke-linejoin:round;" d="M189.383,207.698c0,0-5.917,5.239-7.393,6.701"></path><path style="fill:none;stroke:#000000;stroke-linecap:round;stroke-linejoin:round;" d="M178.332,205.178c0,0,2.642,5.668,4.431,7.943"></path><path style="fill:none;stroke:#000000;stroke-linecap:round;stroke-linejoin:round;" d="M181.919,215.372c0,0-1.026,6.206-0.416,9.629"></path><path style="fill:none;stroke:#000000;stroke-linecap:round;stroke-linejoin:round;" d="M186.951,224.431c0,0-5.184,6.028-5.754,7.259"></path><path style="fill:none;stroke:#000000;stroke-linecap:round;stroke-linejoin:round;" d="M177.199,223.208c0,0,2.986,5.172,4.563,7.049"></path><path style="fill:none;stroke:#000000;stroke-linecap:round;stroke-linejoin:round;" d="M181.032,232.91c-0.091,0.306-1.137,5.904-1.722,9.971"></path><path style="fill:none;stroke:#000000;stroke-linecap:round;stroke-linejoin:round;" d="M174.97,242.606c0,0,4.181,7.769,5.441,9.249"></path><path style="fill:none;stroke:#000000;stroke-linecap:round;stroke-linejoin:round;" d="M186.727,243.852c0,0-4.533,3.983-6.217,5.249"></path><path style="fill:none;stroke:#000000;stroke-linecap:round;stroke-linejoin:round;" d="M184.272,249.611c-0.3,0.212-5.389,5.934-8.06,11.38"></path><path style="fill:none;stroke:#000000;stroke-linecap:round;stroke-linejoin:round;" d="M190.245,189.514c-0.188,0.412-6.842,11.341-7.382,20.264"></path><path style="fill:none;stroke:#000000;stroke-linecap:round;stroke-linejoin:round;" d="M185.943,197.842c0,0-4.152-6.858-5.612-11.571"></path></g><g><g><g><g><path style="fill:#E5E5E7;stroke:#000000;stroke-linecap:round;stroke-linejoin:round;" d="M183.251,307.963c0,0-2.039,15.347-1.994,16.554c0.646,0.783,1.089,0.343,1.089,0.343l0.353-1.167l1.413,0.298c0,0,1.088-15.441,0.636-16.605C184.299,306.22,183.251,307.963,183.251,307.963z"></path><path style="fill:#E5E5E7;stroke:#000000;stroke-linecap:round;stroke-linejoin:round;" d="M165.756,306.279c0,0-0.925,15.452-1.199,16.63c-0.783,0.646-1.134,0.131-1.134,0.131l-0.125-1.213l-1.444,0.02c0,0,1.879-15.365,2.542-16.421C165.06,304.369,165.756,306.279,165.756,306.279z"></path></g><path style="fill:#E5E5E7;stroke:#000000;stroke-linecap:round;stroke-linejoin:round;" d="M174.214,317.027c0.058,0.247-0.923,16.256-1.652,18.83c-1.204,0.043-1.824-0.176-1.824-0.176s2.017-18.476,2.293-18.849C173.308,316.459,174.214,317.027,174.214,317.027z"></path></g><g><g><path style="fill:#6BCFB7;stroke:#000000;stroke-linecap:round;stroke-linejoin:round;" d="M164.688,297.146c0.094,2.716,9.555,16.59,9.555,16.59s11.933-11.815,12.542-14.466c-1.841-3.614-3.849-6.579-9.691-15.168C169.72,291.419,167.185,293.946,164.688,297.146z M174.604,309.975c0,0-7.059-10.352-7.127-12.377c1.861-2.391,3.753-4.275,9.255-9.732c4.358,6.405,5.855,8.618,7.23,11.316C183.509,301.159,174.604,309.975,174.604,309.975z"></path><path style="fill:#8768A0;stroke:#000000;stroke-linecap:round;stroke-linejoin:round;" d="M161.592,296.643c0.118,3.486,12.248,21.273,12.248,21.273s15.3-15.149,16.081-18.549c-2.359-4.634-4.933-8.435-12.425-19.442C168.043,289.302,164.793,292.543,161.592,296.643z M174.254,313.62c0,0-9.388-13.766-9.48-16.464c2.477-3.171,4.995-5.681,12.31-12.937c5.798,8.517,7.79,11.46,9.616,15.047C186.096,301.898,174.254,313.62,174.254,313.62z"></path></g><path style="fill:#FAE6D1;stroke:#000000;stroke-linecap:round;stroke-linejoin:round;" d="M174.936,306.549c0,0-4.872-7.145-4.921-8.544c1.286-1.646,2.592-2.948,6.39-6.713c3.008,4.42,4.041,5.946,4.989,7.81C181.079,300.466,174.936,306.549,174.936,306.549z"></path><path style="fill:#8DB999;stroke:#000000;stroke-linecap:round;stroke-linejoin:round;" d="M175.324,302.489c0,0-2.278-3.342-2.301-3.997c0.602-0.77,1.213-1.379,2.988-3.141c1.407,2.067,1.892,2.781,2.333,3.651C178.199,299.642,175.324,302.489,175.324,302.489z"></path><g><ellipse transform="matrix(-0.9954 -0.0958 0.0958 -0.9954 334.8447 614.3146)" style="fill:#ECEEEC;stroke:#000000;stroke-linecap:round;stroke-linejoin:round;" cx="182.162" cy="299.123" rx="1.316" ry="1.917"></ellipse><ellipse transform="matrix(-0.9954 -0.0957 0.0957 -0.9954 309.2305 610.5939)" style="fill:#ECEEEC;stroke:#000000;stroke-linecap:round;stroke-linejoin:round;" cx="169.255" cy="297.883" rx="1.317" ry="1.912"></ellipse></g><g><ellipse transform="matrix(-0.9954 -0.0958 0.0958 -0.9954 324.485 595.4384)" style="fill:#ECEEEC;stroke:#000000;stroke-linecap:round;stroke-linejoin:round;" cx="176.535" cy="289.931" rx="1.315" ry="1.912"></ellipse><ellipse transform="matrix(-0.9954 -0.0958 0.0958 -0.9954 319.16 632.1006)" style="fill:#ECEEEC;stroke:#000000;stroke-linecap:round;stroke-linejoin:round;" cx="174.758" cy="308.387" rx="1.315" ry="1.914"></ellipse></g></g></g><g><g><circle style="fill:#6BCFB7;stroke:#000000;stroke-linecap:round;stroke-linejoin:round;" cx="178.77" cy="264.811" r="7.408"></circle><circle style="fill:#50B19A;" cx="178.769" cy="264.812" r="2.949"></circle><circle style="fill:#FFFFFF;" cx="176.492" cy="262.21" r="2.157"></circle></g><g><circle style="fill:#687FE0;stroke:#000000;stroke-linecap:round;stroke-linejoin:round;" cx="177.364" cy="279.416" r="7.407"></circle><circle style="fill:#4861C2;" cx="177.364" cy="279.416" r="2.949"></circle><path style="fill:#FFFFFF;" d="M172.938,276.605c-0.113,1.186,0.756,2.24,1.943,2.354c1.182,0.115,2.239-0.757,2.351-1.941c0.114-1.186-0.753-2.24-1.939-2.354C174.107,274.551,173.053,275.421,172.938,276.605z"></path></g></g></g></g><g><g><linearGradient id="hair1XMLID_4546_" gradientUnits="userSpaceOnUse" x1="316.6152" y1="123" x2="316.6152" y2="272.3329"><stop offset="0" style="stop-color:#FCFCE4"></stop><stop offset="0.5" style="stop-color:#A0C8DD"></stop><stop offset="1" style="stop-color:#5D6EC5"></stop></linearGradient><path style="fill:url(#hair1XMLID_4546_);stroke:#000000;stroke-linecap:round;stroke-linejoin:round;" d="M306.07,180.699c0.222-0.6-2.958,17.521-2.807,19.145c0.152,1.625,7.455,7.918,7.455,7.918s-2.471,8.021-2.306,9.242c0.167,1.219,4.433,7.421,4.433,7.421s-4.18,11.008-3.829,12.84c0.35,1.833,4.157,6.501,4.157,6.501s-1.229,3.811-2.896,12.058c1.278,4.593,7.148,11.349,7.148,11.349l8.135-1.269c0,0,4.222-5.745,4.411-12.016c-2.718-7.167-5.14-10.783-5.14-10.783s2.505-5.895,2.573-8.118c0.069-2.227-4.821-11.281-4.821-11.281s3.193-5.167,3.498-8.599c-1.285-4.29-4.564-9.651-4.564-9.651s4.073-7.57,3.742-10.008c-0.331-2.44-8.41-16.449-8.41-16.449L306.07,180.699z"></path><path style="fill:none;stroke:#000000;stroke-linecap:round;stroke-linejoin:round;" d="M310.617,207.698c0,0,5.917,5.239,7.393,6.701"></path><path style="fill:none;stroke:#000000;stroke-linecap:round;stroke-linejoin:round;" d="M321.668,205.178c0,0-2.643,5.668-4.431,7.943"></path><path style="fill:none;stroke:#000000;stroke-linecap:round;stroke-linejoin:round;" d="M318.08,215.372c0,0,1.027,6.206,0.417,9.629"></path><path style="fill:none;stroke:#000000;stroke-linecap:round;stroke-linejoin:round;" d="M313.049,224.431c0,0,5.184,6.028,5.754,7.259"></path><path style="fill:none;stroke:#000000;stroke-linecap:round;stroke-linejoin:round;" d="M322.801,223.208c0,0-2.986,5.172-4.563,7.049"></path><path style="fill:none;stroke:#000000;stroke-linecap:round;stroke-linejoin:round;" d="M318.967,232.91c0.092,0.306,1.137,5.904,1.723,9.971"></path><path style="fill:none;stroke:#000000;stroke-linecap:round;stroke-linejoin:round;" d="M325.029,242.606c0,0-4.18,7.769-5.441,9.249"></path><path style="fill:none;stroke:#000000;stroke-linecap:round;stroke-linejoin:round;" d="M313.273,243.852c0,0,4.533,3.983,6.217,5.249"></path><path style="fill:none;stroke:#000000;stroke-linecap:round;stroke-linejoin:round;" d="M315.728,249.611c0.3,0.212,5.388,5.934,8.06,11.38"></path><path style="fill:none;stroke:#000000;stroke-linecap:round;stroke-linejoin:round;" d="M309.754,189.514c0.188,0.412,6.842,11.341,7.383,20.264"></path><path style="fill:none;stroke:#000000;stroke-linecap:round;stroke-linejoin:round;" d="M314.057,197.842c0,0,4.152-6.858,5.612-11.571"></path></g><g><g><g><g><path style="fill:#E5E5E7;stroke:#000000;stroke-linecap:round;stroke-linejoin:round;" d="M316.748,307.963c0,0,2.04,15.347,1.995,16.554c-0.646,0.783-1.089,0.343-1.089,0.343l-0.354-1.167l-1.412,0.298c0,0-1.088-15.441-0.637-16.605C315.701,306.22,316.748,307.963,316.748,307.963z"></path><path style="fill:#E5E5E7;stroke:#000000;stroke-linecap:round;stroke-linejoin:round;" d="M334.244,306.279c0,0,0.925,15.452,1.199,16.63c0.783,0.646,1.133,0.131,1.133,0.131l0.126-1.213l1.444,0.02c0,0-1.879-15.365-2.543-16.421C334.94,304.369,334.244,306.279,334.244,306.279z"></path></g><path style="fill:#E5E5E7;stroke:#000000;stroke-linecap:round;stroke-linejoin:round;" d="M325.785,317.027c-0.057,0.247,0.924,16.256,1.652,18.83c1.205,0.043,1.825-0.176,1.825-0.176s-2.017-18.476-2.294-18.849C326.691,316.459,325.785,317.027,325.785,317.027z"></path></g><g><g><path style="fill:#6BCFB7;stroke:#000000;stroke-linecap:round;stroke-linejoin:round;" d="M322.906,284.102c-5.844,8.589-7.852,11.554-9.691,15.168c0.609,2.65,12.541,14.466,12.541,14.466s9.462-13.874,9.556-16.59C332.814,293.946,330.279,291.419,322.906,284.102z M316.037,299.182c1.375-2.698,2.871-4.911,7.23-11.316c5.502,5.457,7.394,7.342,9.255,9.732c-0.068,2.025-7.128,12.377-7.128,12.377S316.49,301.159,316.037,299.182z"></path><path style="fill:#8768A0;stroke:#000000;stroke-linecap:round;stroke-linejoin:round;" d="M322.504,279.925c-7.492,11.008-10.066,14.809-12.426,19.442c0.782,3.399,16.082,18.549,16.082,18.549s12.129-17.787,12.248-21.273C335.207,292.543,331.957,289.302,322.504,279.925z M313.301,299.267c1.826-3.587,3.818-6.53,9.616-15.047c7.314,7.256,9.833,9.766,12.31,12.937c-0.093,2.698-9.48,16.464-9.48,16.464S313.904,301.898,313.301,299.267z"></path></g><path style="fill:#FAE6D1;stroke:#000000;stroke-linecap:round;stroke-linejoin:round;" d="M325.064,306.549c0,0,4.871-7.145,4.92-8.544c-1.285-1.646-2.592-2.948-6.389-6.713c-3.008,4.42-4.041,5.946-4.989,7.81C318.92,300.466,325.064,306.549,325.064,306.549z"></path><path style="fill:#8DB999;stroke:#000000;stroke-linecap:round;stroke-linejoin:round;" d="M324.676,302.489c0,0,2.278-3.342,2.301-3.997c-0.602-0.77-1.213-1.379-2.988-3.141c-1.407,2.067-1.893,2.781-2.334,3.651C321.801,299.642,324.676,302.489,324.676,302.489z"></path><g><ellipse transform="matrix(0.9954 -0.0958 0.0958 0.9954 -27.182 31.8089)" style="fill:#ECEEEC;stroke:#000000;stroke-linecap:round;stroke-linejoin:round;" cx="317.837" cy="299.123" rx="1.316" ry="1.917"></ellipse><ellipse transform="matrix(0.9954 -0.0957 0.0957 0.9954 -26.9851 33.0138)" style="fill:#ECEEEC;stroke:#000000;stroke-linecap:round;stroke-linejoin:round;" cx="330.745" cy="297.883" rx="1.317" ry="1.912"></ellipse></g><g><ellipse transform="matrix(0.9954 -0.0958 0.0958 0.9954 -26.2851 32.3181)" style="fill:#ECEEEC;stroke:#000000;stroke-linecap:round;stroke-linejoin:round;" cx="323.465" cy="289.931" rx="1.315" ry="1.912"></ellipse><ellipse transform="matrix(0.9954 -0.0958 0.0958 0.9954 -28.0547 32.5857)" style="fill:#ECEEEC;stroke:#000000;stroke-linecap:round;stroke-linejoin:round;" cx="325.242" cy="308.387" rx="1.315" ry="1.914"></ellipse></g></g></g><g><g><circle style="fill:#6BCFB7;stroke:#000000;stroke-linecap:round;stroke-linejoin:round;" cx="321.23" cy="264.811" r="7.408"></circle><circle style="fill:#50B19A;" cx="321.23" cy="264.812" r="2.949"></circle><circle style="fill:#FFFFFF;" cx="323.508" cy="262.21" r="2.157"></circle></g><g><circle style="fill:#687FE0;stroke:#000000;stroke-linecap:round;stroke-linejoin:round;" cx="322.635" cy="279.416" r="7.407"></circle><circle style="fill:#4861C2;" cx="322.636" cy="279.416" r="2.949"></circle><path style="fill:#FFFFFF;" d="M327.061,276.605c0.114,1.186-0.756,2.24-1.942,2.354c-1.183,0.115-2.239-0.757-2.351-1.941c-0.115-1.186,0.753-2.24,1.939-2.354C325.893,274.551,326.947,275.421,327.061,276.605z"></path></g></g></g></g></g><g><linearGradient id="hair1XMLID_4547_" gradientUnits="userSpaceOnUse" x1="250.0005" y1="123" x2="250.0005" y2="272.3334"><stop offset="0" style="stop-color:#FCFCE4"></stop><stop offset="0.5" style="stop-color:#A0C8DD"></stop><stop offset="1" style="stop-color:#5D6EC5"></stop></linearGradient><path style="fill:url(#hair1XMLID_4547_);stroke:#000000;stroke-linecap:round;stroke-linejoin:round;" d="M332.04,177.768c-7.097-12.208-17.602-32.363-25.55-37.756c-7.947-5.394-21.574-4.542-21.574-4.542s10.789-5.677,9.37-15.046c-7.382,9.937-26.117,11.64-32.363,10.788c-1.703-8.516-8.232-17.316-11.923-20.439c-3.69,3.123-10.22,11.923-11.923,20.439c-6.246,0.852-24.982-0.852-32.362-10.788c-1.419,9.369,9.368,15.046,9.368,15.046s-13.626-0.852-21.574,4.542c-7.947,5.394-18.453,25.549-25.549,37.756c-7.096,12.208-24.698,27.252-40.027,30.375c17.033,11.638,37.755-2.271,37.755-2.271l25.266-6.246c0,0-1.987,17.317-7.664,26.401c13.626-3.691,18.736-16.181,21.573-20.723c-0.284,11.354,4.827,18.167,5.11,19.304c0,0-3.406-9.937,2.271-22.71c4.125-9.281,11.923-27.82,14.762-38.607c3.974,1.703,9.936,5.393,9.936,5.393l-0.282-6.245l7.664,5.11c0,0,0-5.11,0.567-7.381c0,2.555,5.11,6.245,5.11,6.245s5.108-3.69,5.108-6.245c0.568,2.271,0.568,7.381,0.568,7.381l7.666-5.11l-0.282,6.245c0,0,5.96-3.69,9.933-5.393c2.841,10.788,10.639,29.327,14.764,38.607c5.678,12.774,2.271,22.71,2.271,22.71c0.282-1.136,5.396-7.949,5.109-19.304c2.839,4.542,7.947,17.031,21.574,20.723c-5.677-9.083-7.665-26.401-7.665-26.401l25.268,6.246c0,0,20.722,13.909,37.755,2.271C356.737,205.02,339.137,189.976,332.04,177.768z"></path><g><path style="fill:none;stroke:#000000;stroke-linecap:round;stroke-linejoin:round;" d="M236.889,143.833c0,0,6.28,5.833,7.89,16.333"></path><path style="fill:none;stroke:#000000;stroke-linecap:round;stroke-linejoin:round;" d="M263.111,143.833c0,0-6.28,5.833-7.89,16.333"></path></g><g><linearGradient id="hair1XMLID_4548_" gradientUnits="userSpaceOnUse" x1="180.1655" y1="123" x2="180.1655" y2="272.3333"><stop offset="0" style="stop-color:#FCFCE4"></stop><stop offset="0.5" style="stop-color:#A0C8DD"></stop><stop offset="1" style="stop-color:#5D6EC5"></stop></linearGradient><path style="fill:url(#hair1XMLID_4548_);stroke:#000000;stroke-linecap:round;stroke-linejoin:round;" d="M206.14,145.689c-0.851,0-4.825,2.27-8.232,7.948c-3.406,5.678-14.762,44.57-43.718,58.763c14.478,0.285,31.227-1.988,40.028-14.478"></path><linearGradient id="hair1XMLID_4549_" gradientUnits="userSpaceOnUse" x1="319.835" y1="123" x2="319.835" y2="272.3333"><stop offset="0" style="stop-color:#FCFCE4"></stop><stop offset="0.5" style="stop-color:#A0C8DD"></stop><stop offset="1" style="stop-color:#5D6EC5"></stop></linearGradient><path style="fill:url(#hair1XMLID_4549_);stroke:#000000;stroke-linecap:round;stroke-linejoin:round;" d="M293.859,145.689c0.852,0,4.824,2.27,8.232,7.948c3.405,5.678,14.761,44.57,43.719,58.763c-14.479,0.285-31.227-1.988-40.027-14.478"></path></g><g><path style="fill:none;stroke:#000000;stroke-linecap:round;stroke-linejoin:round;" d="M218.916,142.282c0,0,11.637,3.975,17.315,19.304"></path><path style="fill:none;stroke:#000000;stroke-linecap:round;stroke-linejoin:round;" d="M281.084,142.282c0,0-11.636,3.975-17.315,19.304"></path></g></g><g><g><path style="fill:#FFF0DE;" d="M168.607,180.757c0,0,5.335-10.679,7.472-11.21c2.136-0.534-0.744,17.4-3.738,16.547C169.54,185.294,167.539,183.293,168.607,180.757z"></path><path style="fill:#FFF0DE;" d="M175.677,185.023c0,0,0.411-6.983,2.67-8.538c2.259-1.557,1.602,10.673,0,10.673C176.745,187.159,175.677,187.694,175.677,185.023z"></path><path style="fill:#FFF0DE;" d="M330.147,180.753c0,0-5.337-10.675-7.472-11.207c-2.134-0.534,0.743,17.4,3.734,16.547C329.213,185.293,331.215,183.293,330.147,180.753z"></path><path style="fill:#FFF0DE;" d="M322.749,185.024c0,0-0.411-6.984-2.672-8.541c-2.26-1.555-1.6,10.676,0,10.676C321.681,187.159,322.749,187.694,322.749,185.024z"></path></g></g></g></g></svg>