<svg xmlns="http://www.w3.org/2000/svg" width="500" height="500" version="1.1"><g id="x9259"><g><g><linearGradient id="hair1XMLID_4554_" gradientUnits="userSpaceOnUse" x1="249.9995" y1="121.3325" x2="249.9995" y2="247.3329"><stop offset="0" style="stop-color:#FCFCE4"></stop><stop offset="0.5" style="stop-color:#A0C8DD"></stop><stop offset="1" style="stop-color:#5D6EC5"></stop></linearGradient><path style="fill:url(#hair1XMLID_4554_);stroke:#000000;stroke-linecap:round;stroke-linejoin:round;" d="M310.227,135.882c-16.552-17.643-40.556-24.026-59.768-19.991c-0.153,0.019-0.305,0.034-0.458,0.054c-0.154-0.02-0.305-0.035-0.459-0.054c-19.214-4.035-43.217,2.348-59.769,19.991c-12.539,13.365-21.393,30.165-21.393,51.08c0,32.694,13.696,47.104,14.234,48.325c0,0-5.02-21.928,5.513-24.67c3.948-0.686,9.39-33.574,15.797-44.566c1.756-2.195,23.385-4.665,46.076-4.677c22.688,0.012,44.317,2.481,46.074,4.677c6.406,10.992,11.848,43.88,15.796,44.566c10.533,2.742,6.38,25.272,6.38,25.272c0.537-1.221,13.368-19.239,13.368-48.927C331.619,166.047,322.766,149.248,310.227,135.882z"></path><g><linearGradient id="hair1XMLID_4555_" gradientUnits="userSpaceOnUse" x1="317.334" y1="121.3325" x2="317.334" y2="247.3326"><stop offset="0" style="stop-color:#FCFCE4"></stop><stop offset="0.5" style="stop-color:#A0C8DD"></stop><stop offset="1" style="stop-color:#5D6EC5"></stop></linearGradient><path style="fill:url(#hair1XMLID_4555_);stroke:#000000;stroke-linecap:round;stroke-linejoin:round;" d="M307.598,195.333c0,1,2,101-5.667,141.667c5.667-2.666,9-7.666,9-7.666s1.667-6.667,1.667-8.667c0.666,4.333,0.333,8,0.333,8s13.334-7.667,14-9.667c0-10,9.333-82,4.333-138.333"></path><linearGradient id="hair1XMLID_4556_" gradientUnits="userSpaceOnUse" x1="182.6665" y1="121.3325" x2="182.6665" y2="247.3326"><stop offset="0" style="stop-color:#FCFCE4"></stop><stop offset="0.5" style="stop-color:#A0C8DD"></stop><stop offset="1" style="stop-color:#5D6EC5"></stop></linearGradient><path style="fill:url(#hair1XMLID_4556_);stroke:#000000;stroke-linecap:round;stroke-linejoin:round;" d="M192.402,195.333c0,1-2,101,5.667,141.667c-5.667-2.666-9-7.666-9-7.666s-1.667-6.667-1.667-8.667c-0.666,4.333-0.333,8-0.333,8s-13.334-7.667-14-9.667c0-10-9.333-82-4.333-138.333"></path></g><g><linearGradient id="hair1XMLID_4557_" gradientUnits="userSpaceOnUse" x1="283.6162" y1="121.3325" x2="283.6162" y2="247.3325"><stop offset="0" style="stop-color:#FCFCE4"></stop><stop offset="0.5" style="stop-color:#A0C8DD"></stop><stop offset="1" style="stop-color:#5D6EC5"></stop></linearGradient><path style="fill:url(#hair1XMLID_4557_);stroke:#000000;stroke-linecap:round;stroke-linejoin:round;" d="M252.92,156.551c0,0,5.081,41.72,6.352,58.788c1.693,0,1.693,0,1.693,0s0.847-25.791,0.847-30.721c1.271,10.62,3.811,23.894,4.233,29.583c4.234,1.138,35.141-3.414,39.375-6.068c0.847-7.965,1.693-15.93,1.693-15.93s2.963,14.033,2.54,16.688c2.541-1.138,4.657-1.897,4.657-1.897S314.734,178.17,302.88,152"></path><linearGradient id="hair1XMLID_4558_" gradientUnits="userSpaceOnUse" x1="216.3838" y1="121.3325" x2="216.3838" y2="247.3325"><stop offset="0" style="stop-color:#FCFCE4"></stop><stop offset="0.5" style="stop-color:#A0C8DD"></stop><stop offset="1" style="stop-color:#5D6EC5"></stop></linearGradient><path style="fill:url(#hair1XMLID_4558_);stroke:#000000;stroke-linecap:round;stroke-linejoin:round;" d="M247.08,156.551c0,0-5.081,41.72-6.351,58.788c-1.693,0-1.693,0-1.693,0s-0.847-25.791-0.847-30.721c-1.271,10.62-3.811,23.894-4.234,29.583c-4.234,1.138-35.141-3.414-39.375-6.068c-0.847-7.965-1.693-15.93-1.693-15.93s-2.964,14.034-2.54,16.688c-2.541-1.138-4.658-1.896-4.658-1.896S185.266,178.17,197.12,152"></path></g></g><g><g><path style="fill:#FFF0DE;" d="M308.194,180.753c0,0-5.337-10.675-7.472-11.207c-2.134-0.534,0.743,17.4,3.734,16.547C307.26,185.293,309.262,183.293,308.194,180.753z"></path><path style="fill:#FFF0DE;" d="M300.796,185.024c0,0-0.411-6.984-2.672-8.541c-2.26-1.555-1.6,10.676,0,10.676C299.728,187.159,300.796,187.694,300.796,185.024z"></path></g><g><path style="fill:#FFF0DE;" d="M191.987,180.757c0,0,5.335-10.679,7.472-11.21c2.136-0.534-0.744,17.4-3.738,16.547C192.92,185.294,190.919,183.293,191.987,180.757z"></path><path style="fill:#FFF0DE;" d="M201.058,185.023c0,0,0.411-6.983,2.67-8.538c2.259-1.557,1.602,10.673,0,10.673C202.125,187.159,201.058,187.694,201.058,185.023z"></path></g></g></g></g></svg>