<svg xmlns="http://www.w3.org/2000/svg" width="500" height="500" version="1.1"><g id="x9262"><g><linearGradient id="hair1XMLID_4581_" gradientUnits="userSpaceOnUse" x1="250.3804" y1="130.3335" x2="250.3804" y2="349.6674"><stop offset="0" style="stop-color:#FCFCE4"></stop><stop offset="0.5" style="stop-color:#A0C8DD"></stop><stop offset="1" style="stop-color:#5D6EC5"></stop></linearGradient><path style="fill:url(#hair1XMLID_4581_);stroke:#000000;stroke-linecap:round;stroke-linejoin:round;" d="M333,186.962c0-20.915-8.963-37.714-21.654-51.08c-16.439-17.31-40.135-23.774-59.392-20.201c-0.37,0.069-0.742,0.134-1.109,0.21c-0.155,0.019-0.308,0.034-0.464,0.054c-0.156-0.02-0.309-0.035-0.464-0.054c-19.449-4.035-43.747,2.348-60.501,19.991c-12.692,13.365-21.655,30.165-21.655,51.08c0,32.694,13.864,47.104,14.409,48.325c0,0-5.081-21.928,5.581-24.67c3.997-0.686,9.504-33.574,15.991-44.566c1.777-2.195,23.671-4.665,46.64-4.677c0.525,0,1.049,0.003,1.573,0.006c22.384,0.12,43.329,2.526,45.066,4.671c6.485,10.992,11.993,43.88,15.99,44.566c10.661,2.742,6.457,25.272,6.457,25.272C320.013,234.667,333,216.65,333,186.962z"></path><g><g><g><linearGradient id="hair1XMLID_4582_" gradientUnits="userSpaceOnUse" x1="202.1631" y1="123.5381" x2="202.1631" y2="359.6981"><stop offset="0" style="stop-color:#FCFCE4"></stop><stop offset="0.5" style="stop-color:#A0C8DD"></stop><stop offset="1" style="stop-color:#5D6EC5"></stop></linearGradient><path style="fill:url(#hair1XMLID_4582_);stroke:#000000;stroke-linecap:round;stroke-linejoin:round;" d="M198.484,218.916c0,0-6.333,38.241,11.5,62.656c19.064,24.093,10.674,55.435,10.674,55.435s-0.074-8.301-0.31-10.66c0,0-0.065,12.521-10.831,18.653c0,0,2.438-9.852-1.277-18.065c0,0,3.236,11.012-2.367,14.055c0,0,4.237-2.665-5.063-15.563c-2.94-4.078-8.908-6.469-12.153-15.554c-7.019-19.653-9.898-54.342-2.441-90.426L198.484,218.916z"></path><path style="fill:none;stroke:#000000;stroke-linecap:round;stroke-linejoin:round;" d="M192.119,226.186c0,0-0.164,26.21,4.989,36.875"></path><path style="fill:none;stroke:#000000;stroke-linecap:round;stroke-linejoin:round;" d="M191.151,298.747c0,0,1.841,16.525,9.659,26.68"></path><path style="fill:none;stroke:#000000;stroke-linecap:round;stroke-linejoin:round;" d="M216.049,304.98c0,0,1.897,3.15,4.3,21.366"></path></g><g><linearGradient id="hair1XMLID_4583_" gradientUnits="userSpaceOnUse" x1="297.168" y1="123.5381" x2="297.168" y2="359.6981"><stop offset="0" style="stop-color:#FCFCE4"></stop><stop offset="0.5" style="stop-color:#A0C8DD"></stop><stop offset="1" style="stop-color:#5D6EC5"></stop></linearGradient><path style="fill:url(#hair1XMLID_4583_);stroke:#000000;stroke-linecap:round;stroke-linejoin:round;" d="M300.848,218.916c0,0,6.334,38.241-11.5,62.656c-19.066,24.093-10.674,55.435-10.674,55.435s0.072-8.301,0.309-10.66c0,0,0.066,12.521,10.832,18.653c0,0-2.439-9.852,1.277-18.065c0,0-3.236,11.012,2.367,14.055c0,0-4.238-2.665,5.063-15.563c2.939-4.078,8.908-6.469,12.154-15.554c7.018-19.653,9.898-54.342,2.441-90.426L300.848,218.916z"></path><path style="fill:none;stroke:#000000;stroke-linecap:round;stroke-linejoin:round;" d="M307.213,226.186c0,0,0.164,26.21-4.99,36.875"></path><path style="fill:none;stroke:#000000;stroke-linecap:round;stroke-linejoin:round;" d="M308.182,298.747c0,0-1.842,16.525-9.66,26.68"></path><path style="fill:none;stroke:#000000;stroke-linecap:round;stroke-linejoin:round;" d="M283.281,304.98c0,0-1.896,3.15-4.299,21.366"></path></g></g><g><linearGradient id="hair1XMLID_4584_" gradientUnits="userSpaceOnUse" x1="249.9995" y1="130.3335" x2="249.9995" y2="349.6674"><stop offset="0" style="stop-color:#FCFCE4"></stop><stop offset="0.5" style="stop-color:#A0C8DD"></stop><stop offset="1" style="stop-color:#5D6EC5"></stop></linearGradient><path style="fill:url(#hair1XMLID_4584_);stroke:#000000;stroke-linecap:round;stroke-linejoin:round;" d="M222,130.667c-12.333,1-43,20.667-53.333,66.333c-10.334,45.667-28.333,56-28.333,56C161.667,250,173,242.333,173,242.333c40.417-2.583,44.334-63,44.334-63S212.75,201.25,227.75,216c0,0,22.75-6.25,50.584,2c0,0-2.168-22.583,1.416-34.75c0,0,13.916,40,34.916,47c0,0,22.666,22.083,45,21.75c0,0-22-13-32.666-62c-8-43-41-59.999-53-59.999"></path><g><g><path style="fill:#FFF0DE;" d="M179.607,180.757c0,0,5.335-10.679,7.472-11.21c2.136-0.534-0.744,17.4-3.738,16.547C180.54,185.294,178.539,183.293,179.607,180.757z"></path><path style="fill:#FFF0DE;" d="M188.677,185.023c0,0,0.411-6.983,2.67-8.538c2.259-1.557,1.602,10.673,0,10.673C189.745,187.159,188.677,187.694,188.677,185.023z"></path><path style="fill:#FFF0DE;" d="M321.813,180.753c0,0-5.337-10.675-7.472-11.207c-2.134-0.534,0.743,17.4,3.734,16.547C320.879,185.293,322.881,183.293,321.813,180.753z"></path><path style="fill:#FFF0DE;" d="M314.415,185.024c0,0-0.411-6.984-2.672-8.541c-2.26-1.555-1.6,10.676,0,10.676C313.347,187.159,314.415,187.694,314.415,185.024z"></path><path style="fill:#FFF0DE;" d="M244.782,189.498c0,0,0-10.41,2.403-13.211c2.4-2.802,5.523,13.451,2.804,14.811C247.585,192.301,244.782,192.301,244.782,189.498z"></path><path style="fill:#FFF0DE;" d="M254.259,190.498c-1.606-2.003,0-9.208,0.799-10.41c0.801-1.201,4.002,9.207,2.402,11.208C255.396,193.876,255.858,192.498,254.259,190.498z"></path></g></g><path style="fill:none;stroke:#000000;stroke-linecap:round;stroke-linejoin:round;" d="M298.334,203.333c0,0,8.332,19,16.748,27.167"></path><path style="fill:none;stroke:#000000;stroke-linecap:round;stroke-linejoin:round;" d="M195.333,215.667c-7.082,16.416-18.121,21.889-22.333,26.667"></path></g></g></g></g></svg>