<svg xmlns="http://www.w3.org/2000/svg" width="500" height="500" version="1.1"><g id="x9264"><g><linearGradient id="hair1XMLID_4591_" gradientUnits="userSpaceOnUse" x1="250.0513" y1="117.334" x2="250.0513" y2="307.3341"><stop offset="0" style="stop-color:#FCFCE4"></stop><stop offset="0.5" style="stop-color:#A0C8DD"></stop><stop offset="1" style="stop-color:#5D6EC5"></stop></linearGradient><path style="fill:url(#hair1XMLID_4591_);stroke:#000000;stroke-linecap:round;stroke-linejoin:round;" d="M331.5,181.962c-0.983-14.462-10.341-32.714-22.935-46.08c-16.312-17.31-37.896-23.774-57.002-20.201c-0.367,0.069-0.737,0.134-1.1,0.21c-0.155,0.019-0.306,0.034-0.46,0.054c-0.155-0.02-0.306-0.035-0.46-0.054c-19.298-4.035-41.003-0.891-58.104,19.991c-12.792,13.118-22.434,32.618-22.836,47.08c0,32.694,13.177,51.104,13.718,52.325c0,0-5.042-21.928,5.537-24.67c3.966-0.686,9.431-33.574,15.867-44.566c1.764-2.195,23.488-4.665,46.279-4.677c0.521,0,1.04,0.003,1.561,0.006c22.209,0.12,42.992,2.526,44.716,4.671c6.436,10.992,11.9,43.88,15.867,44.566c10.578,2.742,3.514,25.272,3.514,25.272C316.201,234.667,331.5,211.65,331.5,181.962z"></path><g><linearGradient id="hair1XMLID_4592_" gradientUnits="userSpaceOnUse" x1="300" y1="117.334" x2="300" y2="307.334"><stop offset="0" style="stop-color:#FCFCE4"></stop><stop offset="0.5" style="stop-color:#A0C8DD"></stop><stop offset="1" style="stop-color:#5D6EC5"></stop></linearGradient><path style="fill:url(#hair1XMLID_4592_);stroke:#000000;stroke-linecap:round;stroke-linejoin:round;" d="M290.768,188c0,0,9.585,37.97,5.732,70c-1.144,9.503-12.121,22.094-14.066,28.5c-16,42-8.443,82.819-8.404,82.171c0.613,1.072,4.457,7.372,10.404,7.829c-0.5-58,10.809-80.516,18.5-93.333c26.5-44.167,24.834-97.333,24.834-97.333"></path><linearGradient id="hair1XMLID_4593_" gradientUnits="userSpaceOnUse" x1="222.6299" y1="117.334" x2="222.6299" y2="307.334"><stop offset="0" style="stop-color:#FCFCE4"></stop><stop offset="0.5" style="stop-color:#A0C8DD"></stop><stop offset="1" style="stop-color:#5D6EC5"></stop></linearGradient><path style="fill:url(#hair1XMLID_4593_);stroke:#000000;stroke-linecap:round;stroke-linejoin:round;" d="M176,157.5c0,0-9.383,16.976-9.065,42.457c0.061,34.357,15.668,66.601,25.491,91.267C200.5,311.5,198.5,343,193.76,352.027c12.74-16.027,11.518-45.506,11.518-45.506s10.59,35.092,10.29,69.979c5.946-0.457,9.79-6.757,10.403-7.829c0.026,0.43-1.124-29.748-4.104-59.938c3.717,4.934,9.717,11.684,13.134,15.601c-7.333-19-16.583-58.834-7-92.334s50.334-71,50.334-71 M211.341,172.016C203.257,187.725,200.667,205.09,200,221.5c-0.3,7.379,3.667,34.167,7.667,50.167C178.333,216.333,202.815,183.236,211.341,172.016z"></path><path style="fill:none;stroke:#000000;stroke-linecap:round;stroke-linejoin:round;" d="M214.812,298.998c0.015,0.307,3.499,5.082,6.981,9.5"></path><path style="fill:none;stroke:#000000;stroke-linecap:round;stroke-linejoin:round;" d="M197,156c0,0-22.5,19.5-20,65c2.285,41.585,32.5,72.5,32.5,72.5"></path><path style="fill:none;stroke:#000000;stroke-linecap:round;stroke-linejoin:round;" d="M205.333,306.666c0,0,0.088-6.783-0.06-17.966"></path><path style="fill:none;stroke:#000000;stroke-linecap:round;stroke-linejoin:round;" d="M237,211.5c0,0,10-29,20-40.5"></path><linearGradient id="hair1XMLID_4594_" gradientUnits="userSpaceOnUse" x1="300.4199" y1="117.334" x2="300.4199" y2="307.3343"><stop offset="0" style="stop-color:#FCFCE4"></stop><stop offset="0.5" style="stop-color:#A0C8DD"></stop><stop offset="1" style="stop-color:#5D6EC5"></stop></linearGradient><path style="fill:url(#hair1XMLID_4594_);stroke:#000000;stroke-linecap:round;stroke-linejoin:round;" d="M314.667,163c15,45-2.667,98.75-33.917,120.5c15.25-22.25,13-43.25,13-43.25l-5-75.75"></path><linearGradient id="hair1XMLID_4595_" gradientUnits="userSpaceOnUse" x1="289.6514" y1="117.334" x2="289.6514" y2="307.3334"><stop offset="0" style="stop-color:#FCFCE4"></stop><stop offset="0.5" style="stop-color:#A0C8DD"></stop><stop offset="1" style="stop-color:#5D6EC5"></stop></linearGradient><path style="fill:url(#hair1XMLID_4595_);stroke:#000000;stroke-linecap:round;stroke-linejoin:round;" d="M283,133.5c0,0,10,8,15.5,25.5c7.301,23.231,6.5,62.25-8.75,93.75C292,199,276.334,160,276.334,160"></path></g><g><path style="fill:none;stroke:#000000;stroke-linecap:round;stroke-linejoin:round;" d="M208.766,305.357"></path><path style="fill:none;stroke:#000000;stroke-linecap:round;stroke-linejoin:round;" d="M200.834,281.143"></path></g><g><g><path style="fill:#FFF0DE;" d="M185.273,180.757c0,0,5.335-10.679,7.472-11.21c2.136-0.534-0.744,17.4-3.738,16.547C186.207,185.294,184.205,183.293,185.273,180.757z"></path><path style="fill:#FFF0DE;" d="M194.344,185.023c0,0,0.411-6.983,2.67-8.538c2.259-1.557,1.602,10.673,0,10.673C195.412,187.159,194.344,187.694,194.344,185.023z"></path><path style="fill:#FFF0DE;" d="M316.813,180.753c0,0-5.337-10.675-7.472-11.207c-2.134-0.534,0.743,17.4,3.734,16.547C315.879,185.293,317.881,183.293,316.813,180.753z"></path><path style="fill:#FFF0DE;" d="M309.415,185.024c0,0-0.411-6.984-2.672-8.541c-2.26-1.555-1.6,10.676,0,10.676C308.347,187.159,309.415,187.694,309.415,185.024z"></path></g></g></g></g></svg>