<svg xmlns="http://www.w3.org/2000/svg" width="500" height="500" version="1.1"><g id="x9269"><g><g><linearGradient id="hair1XMLID_4626_" gradientUnits="userSpaceOnUse" x1="250.0513" y1="95" x2="250.0513" y2="143"><stop offset="0" style="stop-color:#FCFCE4"></stop><stop offset="0.5" style="stop-color:#A0C8DD"></stop><stop offset="1" style="stop-color:#5D6EC5"></stop></linearGradient><path style="fill:url(#hair1XMLID_4626_);stroke:#000000;stroke-linecap:round;stroke-linejoin:round;" d="M334.52,181.962c-1.02-14.462-10.725-32.714-23.785-46.08c-16.916-17.31-39.3-23.774-59.115-20.201c-0.381,0.069-0.764,0.134-1.141,0.21c-0.16,0.019-0.317,0.034-0.478,0.054c-0.16-0.02-0.317-0.035-0.478-0.054C229.51,111.856,207,115,189.266,135.882C176,149,166,168.5,165.583,182.962c0,32.694,13.666,51.104,14.227,52.325c0,0-5.229-21.928,5.742-24.67c4.113-0.686,9.78-33.574,16.455-44.566c8.994-7.05,49.073-4.673,49.612-4.671c23.033,0.12,44.587,2.526,46.374,4.671c6.674,10.992,10.894,52.597,15.007,53.283c10.971,2.742,5.093,16.555,5.093,16.555C318.653,234.667,334.52,211.65,334.52,181.962z"></path></g><g><g><g><linearGradient id="hair1XMLID_4627_" gradientUnits="userSpaceOnUse" x1="310.833" y1="95" x2="310.833" y2="143"><stop offset="0" style="stop-color:#FCFCE4"></stop><stop offset="0.5" style="stop-color:#A0C8DD"></stop><stop offset="1" style="stop-color:#5D6EC5"></stop></linearGradient><path style="fill:url(#hair1XMLID_4627_);stroke:#000000;stroke-linecap:round;stroke-linejoin:round;" d="M270.729,115.667c14-15.333,40.334-27.667,62.141-29.632c4.201-1.117,20.711,24.752,17.705,48.373c-1.734,13.634-3.711,14.415-3.711,14.415s5.094,15.826-10.734,20.92c3.592,1.736,6.324,5.258,6.324,5.258s-2.465,3.296-5.555,6.074"></path><g><g><linearGradient id="hair1XMLID_4628_" gradientUnits="userSpaceOnUse" x1="334.2676" y1="169.6719" x2="334.2676" y2="114.3575"><stop offset="0" style="stop-color:#F8F8F8"></stop><stop offset="1" style="stop-color:#DCDCDC"></stop></linearGradient><path style="fill:url(#hair1XMLID_4628_);stroke:#000000;stroke-linecap:round;stroke-linejoin:round;" d="M321.395,138.667c6.666-19.667,7.881-47.4,12-50.333c4.117-2.931,25.957,36.333,13.957,67c2.666,3.333,2,5.333,2,5.333l-5,3.333c0,0,1.957,7.792,0.334,13c-1.268,4.064-7.625,7.75-10.125,8.25C331.311,169,318.395,152,318.395,152S315.336,156.539,321.395,138.667z"></path></g><path style="fill:none;stroke:#000000;stroke-linecap:round;stroke-linejoin:round;" d="M318.018,151.333c0,0,3.33-6.224,12.27-11.342c-0.654,11.008-2.617,17.035-2.617,17.035s5.453-0.739,9.16,0.212c-0.219,3.669-5.67,12.075-5.67,12.075s7.27,0.667,11.049,5.902c-5.162,8.687-6.906,9.71-6.906,9.71"></path></g></g><g><linearGradient id="hair1XMLID_4629_" gradientUnits="userSpaceOnUse" x1="183.1304" y1="95" x2="183.1304" y2="143" gradientTransform="matrix(-1 0 0 1 372.2969 0)"><stop offset="0" style="stop-color:#FCFCE4"></stop><stop offset="0.5" style="stop-color:#A0C8DD"></stop><stop offset="1" style="stop-color:#5D6EC5"></stop></linearGradient><path style="fill:url(#hair1XMLID_4629_);stroke:#000000;stroke-linecap:round;stroke-linejoin:round;" d="M229.271,115.667c-14-15.333-40.333-27.667-62.14-29.632c-4.202-1.117-20.712,24.752-17.706,48.373c1.734,13.634,3.711,14.415,3.711,14.415s-5.094,15.826,10.734,20.92c-3.592,1.736-6.324,5.258-6.324,5.258s2.465,3.296,5.555,6.074"></path><g><g><linearGradient id="hair1XMLID_4630_" gradientUnits="userSpaceOnUse" x1="206.5649" y1="169.6719" x2="206.5649" y2="114.3575" gradientTransform="matrix(-1 0 0 1 372.2969 0)"><stop offset="0" style="stop-color:#F8F8F8"></stop><stop offset="1" style="stop-color:#DCDCDC"></stop></linearGradient><path style="fill:url(#hair1XMLID_4630_);stroke:#000000;stroke-linecap:round;stroke-linejoin:round;" d="M178.605,138.667c-6.666-19.667-7.881-47.4-12-50.333c-4.117-2.931-25.957,36.333-13.957,67c-2.666,3.333-2,5.333-2,5.333l5,3.333c0,0-1.957,7.792-0.333,13c1.268,4.064,7.624,7.75,10.124,8.25C168.689,169,181.605,152,181.605,152S184.664,156.539,178.605,138.667z"></path></g><path style="fill:none;stroke:#000000;stroke-linecap:round;stroke-linejoin:round;" d="M181.982,151.333c0,0-3.329-6.224-12.27-11.342c0.654,11.008,2.617,17.035,2.617,17.035s-5.452-0.739-9.159,0.212c0.218,3.669,5.67,12.075,5.67,12.075s-7.271,0.667-11.05,5.902c5.162,8.687,6.906,9.71,6.906,9.71"></path></g></g></g><g><g><g><g><g><linearGradient id="hair1XMLID_4631_" gradientUnits="userSpaceOnUse" x1="193.1626" y1="95" x2="193.1626" y2="143"><stop offset="0" style="stop-color:#FCFCE4"></stop><stop offset="0.5" style="stop-color:#A0C8DD"></stop><stop offset="1" style="stop-color:#5D6EC5"></stop></linearGradient><path style="fill:url(#hair1XMLID_4631_);stroke:#000000;stroke-linecap:round;stroke-linejoin:round;" d="M184.036,149.266c-31.598,44.333-19.214,128.669,35.364,138.669c-14.518-21.479-25.47-59.336-25.151-71.002c15.958-25.333,22.022-56,22.022-56"></path></g><linearGradient id="hair1XMLID_4632_" gradientUnits="userSpaceOnUse" x1="210.2739" y1="95" x2="210.2739" y2="143"><stop offset="0" style="stop-color:#FCFCE4"></stop><stop offset="0.5" style="stop-color:#A0C8DD"></stop><stop offset="1" style="stop-color:#5D6EC5"></stop></linearGradient><path style="fill:url(#hair1XMLID_4632_);stroke:#000000;stroke-linecap:round;stroke-linejoin:round;" d="M197.774,241.267c0,0,18.333,35.336,25,38.002c-5,2.333-16.667-1.333-16.667-1.333"></path></g></g><g><linearGradient id="hair1XMLID_4633_" gradientUnits="userSpaceOnUse" x1="259.8789" y1="95" x2="259.8789" y2="142.9999"><stop offset="0" style="stop-color:#FCFCE4"></stop><stop offset="0.5" style="stop-color:#A0C8DD"></stop><stop offset="1" style="stop-color:#5D6EC5"></stop></linearGradient><path style="fill:url(#hair1XMLID_4633_);stroke:#000000;stroke-linecap:round;stroke-linejoin:round;" d="M301,158.25c0,0,6.5,19.75,5,33.75c-62.667-2.333-92.466-31.5-92.466-31.5"></path><linearGradient id="hair1XMLID_4634_" gradientUnits="userSpaceOnUse" x1="286.375" y1="95" x2="286.375" y2="143"><stop offset="0" style="stop-color:#FCFCE4"></stop><stop offset="0.5" style="stop-color:#A0C8DD"></stop><stop offset="1" style="stop-color:#5D6EC5"></stop></linearGradient><path style="fill:url(#hair1XMLID_4634_);stroke:#000000;stroke-linecap:round;stroke-linejoin:round;" d="M254.667,159.667c0,0,49.999,34,57.666,67.333c7-11.667,9-49.667-2-73.333"></path><g><g><g><path style="fill:none;stroke:#000000;stroke-linecap:round;stroke-linejoin:round;" d="M305.084,175.75c0,0-0.98-6.81-4.871-11.642c-2.59-2.611-13.791-3.738-13.791-3.738s-2.834-11.129-5.127-13.791s-10.872-4.547-10.872-4.547S267.5,132.25,261.5,123.5c0,0-5.25-4.5-12.5-4.75"></path><path style="fill:none;stroke:#000000;stroke-linecap:round;stroke-linejoin:round;" d="M301.256,182.577c0,0-11.805-2.857-15.131-4.424c-3.327-1.566-6.255-11.457-6.255-11.457s-12.439-1.219-15.622-3.728c-3.743-2.948-5.958-11.508-5.958-11.508s-15.232,1.375-23.79-5.71c0,0-2.25-3.25-4.25-10.75"></path><line style="fill:none;stroke:#000000;stroke-linecap:round;stroke-linejoin:round;" x1="279.87" y1="166.696" x2="283.809" y2="166.935"></line></g><g><path style="fill:none;stroke:#000000;stroke-linecap:round;stroke-linejoin:round;" d="M258.29,151.46c0,0,2.876,0.728,6.49,0.41"></path><path style="fill:none;stroke:#000000;stroke-linecap:round;stroke-linejoin:round;" d="M270.064,140.833c0,0,0.637,3.608,1.275,7.219"></path></g></g><path style="fill:none;stroke:#000000;stroke-linecap:round;stroke-linejoin:round;" d="M285.934,158.718c0,0,2.441,7.783,2.767,10.492"></path></g><g><linearGradient id="hair1XMLID_4635_" gradientUnits="userSpaceOnUse" x1="306.8379" y1="95" x2="306.8379" y2="143"><stop offset="0" style="stop-color:#FCFCE4"></stop><stop offset="0.5" style="stop-color:#A0C8DD"></stop><stop offset="1" style="stop-color:#5D6EC5"></stop></linearGradient><path style="fill:url(#hair1XMLID_4635_);stroke:#000000;stroke-linecap:round;stroke-linejoin:round;" d="M315.965,149.266c31.597,44.333,19.213,128.669-35.363,138.669c14.516-21.479,25.47-59.336,25.15-71.002c0,0,0.423-35.6-6.6-59.933"></path></g><g><linearGradient id="hair1XMLID_4636_" gradientUnits="userSpaceOnUse" x1="289.7266" y1="95" x2="289.7266" y2="143"><stop offset="0" style="stop-color:#FCFCE4"></stop><stop offset="0.5" style="stop-color:#A0C8DD"></stop><stop offset="1" style="stop-color:#5D6EC5"></stop></linearGradient><path style="fill:url(#hair1XMLID_4636_);stroke:#000000;stroke-linecap:round;stroke-linejoin:round;" d="M302.226,241.267c0,0-18.333,35.336-24.999,38.002c5,2.333,16.666-1.333,16.666-1.333"></path></g></g></g></g></g><g><g><path style="fill:#FFF0DE;" d="M175.274,183.757c0,0,5.335-10.679,7.472-11.21c2.136-0.534-0.744,17.4-3.738,16.547C176.207,188.294,174.206,186.293,175.274,183.757z"></path><path style="fill:#FFF0DE;" d="M184.344,188.023c0,0,0.411-6.983,2.67-8.538c2.259-1.557,1.602,10.673,0,10.673C185.412,190.159,184.344,190.694,184.344,188.023z"></path><path style="fill:#FFF0DE;" d="M328.813,183.42c0,0-5.337-10.675-7.472-11.207c-2.134-0.534,0.743,17.4,3.734,16.547C327.879,187.96,329.881,185.96,328.813,183.42z"></path><path style="fill:#FFF0DE;" d="M321.415,187.691c0,0-0.411-6.984-2.672-8.541c-2.26-1.555-1.6,10.676,0,10.676C320.347,189.826,321.415,190.361,321.415,187.691z"></path></g></g></g></g></svg>