<svg xmlns="http://www.w3.org/2000/svg" width="500" height="500" version="1.1"><g id="x9273"><g><linearGradient id="hair1XMLID_4677_" gradientUnits="userSpaceOnUse" x1="249.9995" y1="118.0034" x2="249.9995" y2="270.3321"><stop offset="0" style="stop-color:#FCFCE4"></stop><stop offset="0.5" style="stop-color:#A0C8DD"></stop><stop offset="1" style="stop-color:#5D6EC5"></stop></linearGradient><path style="fill:url(#hair1XMLID_4677_);stroke:#000000;stroke-linecap:round;stroke-linejoin:round;" d="M330.5,183.962c-0.416-14.462-7.416-33.962-20.682-47.08c-17.605-20.73-39.916-23.975-59.818-20.075c-19.903-3.9-42.213-0.655-59.818,20.075C176.917,150,169.917,169.5,169.5,183.962c0,32.694,10.666,51.104,11.227,52.325c0,0-5.229-21.928,5.742-24.67c4.113-0.686,14.023-35.875,20.698-46.867c0.534-0.64,28.25,4.25,28.25,4.25s0.5-3.5,1.25-5c2.566,0.767,10.759,3.604,13.333,4.608c2.574-1.004,10.768-3.842,13.334-4.608c0.75,1.5,1.25,5,1.25,5s27.715-4.89,28.25-4.25c6.674,10.992,16.584,46.181,20.697,46.867c10.971,2.742,5.742,24.67,5.742,24.67C319.834,235.066,330.5,216.656,330.5,183.962z"></path><g><g><g><linearGradient id="hair1XMLID_4678_" gradientUnits="userSpaceOnUse" x1="197.7256" y1="118.0005" x2="197.7256" y2="270.3333"><stop offset="0" style="stop-color:#FCFCE4"></stop><stop offset="0.5" style="stop-color:#A0C8DD"></stop><stop offset="1" style="stop-color:#5D6EC5"></stop></linearGradient><path style="opacity:0.9;fill:url(#hair1XMLID_4678_);" d="M198.166,252c0.121-6.837,1.092-26.916,1.25-33.25c1.42-9.21,4.245-18.515,8.294-27.71c-3.996,7.344-14.544,12.71-19.544,32.71C185.646,227.109,195.012,246.186,198.166,252z"></path><linearGradient id="hair1XMLID_4679_" gradientUnits="userSpaceOnUse" x1="208.6665" y1="118" x2="208.6665" y2="270.333"><stop offset="0" style="stop-color:#FCFCE4"></stop><stop offset="0.5" style="stop-color:#A0C8DD"></stop><stop offset="1" style="stop-color:#5D6EC5"></stop></linearGradient><path style="fill:url(#hair1XMLID_4679_);" d="M208.416,189c0.087,0,0.157,0,0.229-0.001c5.217-11.315,12.268-22.443,20.874-32.998c0,0,7.25,1.75,18.5,11.75l-1.792-45.917c0,0-9.485-5.333-17.485-6.333c-22.333,0.333-48.973,38.25-58.223,71.75c-2,5.667-5.75,83.998,29.223,125.581c-1.375-7.423-1.645-32.16-1.076-64.331c-5.827-4.148-9.333-20.833-8-26.5c1.75-12.5,11.067-19.973,17.044-30.96c0.3-0.682,0.622-1.361,0.935-2.042C208.573,189,208.503,189,208.416,189z"></path><linearGradient id="hair1XMLID_4680_" gradientUnits="userSpaceOnUse" x1="196.2974" y1="118" x2="196.2974" y2="270.3331"><stop offset="0" style="stop-color:#FCFCE4"></stop><stop offset="0.5" style="stop-color:#A0C8DD"></stop><stop offset="1" style="stop-color:#5D6EC5"></stop></linearGradient><path style="fill:url(#hair1XMLID_4680_);" d="M198.916,205.333c0,0-4.167,26-4.5,40.333c-1.667-9.5-0.167-31.333,1.167-36.5S198.916,205.333,198.916,205.333z"></path><path style="fill:none;stroke:#000000;stroke-linecap:round;stroke-linejoin:round;" d="M246.227,121.834c0,0-9.485-5.333-17.485-6.333c-22.333,0.333-48.973,38.25-58.223,71.75c-2,5.667-5.75,83.998,29.223,125.581c-1.667-9-1.23-57.94-0.326-94.081c3.277-21.25,14-43,30.104-62.75c0,0,7.25,1.75,18.5,11.75"></path></g><g><linearGradient id="hair1XMLID_4681_" gradientUnits="userSpaceOnUse" x1="366.8936" y1="118.0005" x2="366.8936" y2="270.3333" gradientTransform="matrix(-1 0 0 1 669.168 0)"><stop offset="0" style="stop-color:#FCFCE4"></stop><stop offset="0.5" style="stop-color:#A0C8DD"></stop><stop offset="1" style="stop-color:#5D6EC5"></stop></linearGradient><path style="opacity:0.9;fill:url(#hair1XMLID_4681_);" d="M301.834,252c-0.121-6.837-1.092-26.916-1.25-33.25c-1.42-9.21-4.244-18.515-8.294-27.71c3.995,7.344,14.544,12.71,19.544,32.71C314.354,227.109,304.988,246.186,301.834,252z"></path><linearGradient id="hair1XMLID_4682_" gradientUnits="userSpaceOnUse" x1="377.834" y1="118" x2="377.834" y2="270.333" gradientTransform="matrix(-1 0 0 1 669.168 0)"><stop offset="0" style="stop-color:#FCFCE4"></stop><stop offset="0.5" style="stop-color:#A0C8DD"></stop><stop offset="1" style="stop-color:#5D6EC5"></stop></linearGradient><path style="fill:url(#hair1XMLID_4682_);" d="M291.584,189c-0.086,0-0.156,0-0.229-0.001c-5.218-11.315-12.269-22.443-20.875-32.998c0,0-7.25,1.75-18.5,11.75l1.793-45.917c0,0,9.484-5.333,17.484-6.333c22.334,0.333,48.973,38.25,58.223,71.75c2,5.667,5.75,83.998-29.223,125.581c1.375-7.423,1.646-32.16,1.076-64.331c5.827-4.148,9.334-20.833,8-26.5c-1.75-12.5-11.066-19.973-17.044-30.96c-0.3-0.682-0.622-1.361-0.935-2.042C291.428,189,291.498,189,291.584,189z"></path><linearGradient id="hair1XMLID_4683_" gradientUnits="userSpaceOnUse" x1="365.4648" y1="118" x2="365.4648" y2="270.3331" gradientTransform="matrix(-1 0 0 1 669.168 0)"><stop offset="0" style="stop-color:#FCFCE4"></stop><stop offset="0.5" style="stop-color:#A0C8DD"></stop><stop offset="1" style="stop-color:#5D6EC5"></stop></linearGradient><path style="fill:url(#hair1XMLID_4683_);" d="M301.084,205.333c0,0,4.168,26,4.5,40.333c1.668-9.5,0.168-31.333-1.166-36.5S301.084,205.333,301.084,205.333z"></path><path style="fill:none;stroke:#000000;stroke-linecap:round;stroke-linejoin:round;" d="M253.773,121.834c0,0,9.484-5.333,17.484-6.333c22.334,0.333,48.973,38.25,58.223,71.75c2,5.667,5.75,83.998-29.223,125.581c1.668-9,1.23-57.94,0.326-94.081c-3.277-21.25-14-43-30.104-62.75c0,0-7.25,1.75-18.5,11.75"></path></g></g><g><path style="fill:none;stroke:#000000;stroke-linecap:round;stroke-linejoin:round;" d="M249.75,156c0,0-5-5-8.25-7.25"></path><path style="fill:none;stroke:#000000;stroke-linecap:round;stroke-linejoin:round;" d="M250.75,153.25c0-0.75,4.5-5,6.5-6.75"></path></g></g><g><g><g><path style="fill:#FFF0DE;" d="M176.007,180.757c0,0,5.335-10.679,7.472-11.21c2.136-0.534-0.744,17.4-3.738,16.547C176.94,185.294,174.939,183.293,176.007,180.757z"></path><path style="fill:#FFF0DE;" d="M183.677,185.023c0,0,0.411-6.983,2.67-8.538c2.259-1.557,1.602,10.673,0,10.673C184.745,187.159,183.677,187.694,183.677,185.023z"></path><path style="fill:#FFF0DE;" d="M324.313,180.753c0,0-5.337-10.675-7.472-11.207c-2.134-0.534,0.743,17.4,3.734,16.547C323.379,185.293,325.381,183.293,324.313,180.753z"></path><path style="fill:#FFF0DE;" d="M316.915,185.024c0,0-0.411-6.984-2.672-8.541c-2.26-1.555-1.6,10.676,0,10.676C315.847,187.159,316.915,187.694,316.915,185.024z"></path></g></g></g></g></g></svg>