<svg xmlns="http://www.w3.org/2000/svg" width="500" height="500" version="1.1"><g id="x9276"><g><g><g><linearGradient id="hair1XMLID_4700_" gradientUnits="userSpaceOnUse" x1="250.0513" y1="140.5" x2="250.0513" y2="292.0002"><stop offset="0" style="stop-color:#FCFCE4"></stop><stop offset="0.5" style="stop-color:#A0C8DD"></stop><stop offset="1" style="stop-color:#5D6EC5"></stop></linearGradient><path style="fill:url(#hair1XMLID_4700_);stroke:#000000;stroke-linecap:round;stroke-linejoin:round;" d="M334.52,181.962c-1.02-14.462-10.725-32.714-23.785-46.08c-16.916-17.31-39.3-23.774-59.115-20.201c-0.381,0.069-0.764,0.134-1.141,0.21c-0.16,0.019-0.317,0.034-0.478,0.054c-0.16-0.02-0.317-0.035-0.478-0.054C229.51,111.856,207,115,189.266,135.882C176,149,166,168.5,165.583,182.962c0,32.694,13.666,51.104,14.227,52.325c0,0-5.229-21.928,5.742-24.67c4.113-0.686,9.78-33.574,16.455-44.566c1.829-2.195,24.358-4.665,47.994-4.677c0.54,0,1.079,0.003,1.618,0.006c23.033,0.12,44.587,2.526,46.374,4.671c6.674,10.992,10.894,52.597,15.007,53.283c10.971,2.742,5.093,16.555,5.093,16.555C318.653,234.667,334.52,211.65,334.52,181.962z"></path></g></g><g><linearGradient id="hair1XMLID_4701_" gradientUnits="userSpaceOnUse" x1="201.8687" y1="140.5" x2="201.8687" y2="291.9999"><stop offset="0" style="stop-color:#FCFCE4"></stop><stop offset="0.5" style="stop-color:#A0C8DD"></stop><stop offset="1" style="stop-color:#5D6EC5"></stop></linearGradient><path style="fill:url(#hair1XMLID_4701_);stroke:#000000;stroke-linecap:round;stroke-linejoin:round;" d="M219.75,154c0,0-6.25,28-14.75,45s-14,26-13.25,37c-8-20.25-11.25-39.75-2.75-71.75"></path><g><linearGradient id="hair1XMLID_4702_" gradientUnits="userSpaceOnUse" x1="265.7412" y1="140.5" x2="265.7412" y2="292"><stop offset="0" style="stop-color:#FCFCE4"></stop><stop offset="0.5" style="stop-color:#A0C8DD"></stop><stop offset="1" style="stop-color:#5D6EC5"></stop></linearGradient><path style="fill:url(#hair1XMLID_4702_);stroke:#000000;stroke-linecap:round;stroke-linejoin:round;" d="M297.75,151.5C320,191.25,316.25,225,312,233.75c-8.75-20.5-52-15.75-77.25-40.75c-17.343-17.171-18.5-32.5-18.5-32.5s0.5-7.5,6.25-14.5c0,0,7.167-13.333,20.167-16.667"></path><path style="fill:none;stroke:#000000;stroke-linecap:round;stroke-linejoin:round;" d="M260.417,176.5c0,0,9.75,6.5,21,15.25S304.5,209.583,306,224.833"></path><path style="fill:none;stroke:#000000;stroke-linecap:round;stroke-linejoin:round;" d="M245.333,130.667c0,0,52.667,21.166,59.667,87.5"></path></g><g><g><g><linearGradient id="hair1XMLID_4703_" gradientUnits="userSpaceOnUse" x1="160.8208" y1="140.5" x2="160.8208" y2="292.0004"><stop offset="0" style="stop-color:#FCFCE4"></stop><stop offset="0.5" style="stop-color:#A0C8DD"></stop><stop offset="1" style="stop-color:#5D6EC5"></stop></linearGradient><path style="fill:url(#hair1XMLID_4703_);stroke:#000000;stroke-linecap:round;stroke-linejoin:round;" d="M171.34,277.498c0,0-3.693,11.738-18.474,10.727c13.065-7.725,7.974-27.932,4.667-36.838c-6.223-9.513-10.113-24.693-10.89-33.397c-0.777-8.703,22.733-52.168,28.373-53.99C171.906,179.99,171.34,277.498,171.34,277.498z"></path><path style="fill:none;stroke:#000000;stroke-linecap:round;stroke-linejoin:round;" d="M159.172,214.145c0,0-1.556,23.073,11.084,39.672"></path></g><g><linearGradient id="hair1XMLID_4704_" gradientUnits="userSpaceOnUse" x1="200.1997" y1="140.5" x2="200.1997" y2="291.9999"><stop offset="0" style="stop-color:#FCFCE4"></stop><stop offset="0.5" style="stop-color:#A0C8DD"></stop><stop offset="1" style="stop-color:#5D6EC5"></stop></linearGradient><path style="fill:url(#hair1XMLID_4704_);stroke:#000000;stroke-linecap:round;stroke-linejoin:round;" d="M208.331,141.595c0,0-9.918,20.944-11.376,34.723c-1.459,13.779-3.542,77.989-1.208,84.878c2.333,3.858,13.944,14.146,15.402,16.901c0.195,10.105-11.861,23.608-11.861,22.781c0-0.826,1.459-7.44-0.583-8.543c-2.042-1.102-41.372-20.116-48.081-36.376c-1.458-44.368,13.415-83.225,28-108.578c0,0,19.206-33.928,60.042-33.376c0,0,6.188,0.526,11.209,1.885"></path><path style="fill:none;stroke:#000000;stroke-linecap:round;stroke-linejoin:round;" d="M172.896,199.283c0,0.551,7.974,38.398,21.78,58.973"></path><path style="fill:none;stroke:#000000;stroke-linecap:round;stroke-linejoin:round;" d="M165.646,203.876c0,0-2.818,25.483,0.974,44.644c4.472,22.598,7.389,24.618,7.389,24.618"></path><g><linearGradient id="hair1XMLID_4705_" gradientUnits="userSpaceOnUse" x1="198.2065" y1="141.5" x2="198.2065" y2="292.9997"><stop offset="0" style="stop-color:#FCFCE4"></stop><stop offset="0.5" style="stop-color:#A0C8DD"></stop><stop offset="1" style="stop-color:#5D6EC5"></stop></linearGradient><path style="fill:url(#hair1XMLID_4705_);stroke:#000000;stroke-linecap:round;stroke-linejoin:round;" d="M211.54,278.524c0,0-2.917,11.573-12.445,20.943c-9.529,9.37-15.995,11.3-19.277,19.152c2.334,1.837,3.914,3.078,3.914,3.078s-0.582,3.674-0.193,4.226c0.389,0.551,17.695,15.984,28.975-1.47c-5.834,3.307-16.334,2.203-12.64-9.187c6.222-0.734,15.557-5.88,16.723-11.574C216.013,287.526,211.54,278.524,211.54,278.524z"></path><path style="fill:none;stroke:#000000;stroke-linecap:round;stroke-linejoin:round;" d="M200.747,314.97c2.771-0.827,12.979-8.681,15.095-21.22"></path><path style="fill:none;stroke:#000000;stroke-linecap:round;stroke-linejoin:round;" d="M183.683,321.928c0,0,0.292-4.065,4.376-7.097"></path><path style="fill:none;stroke:#000000;stroke-linecap:round;stroke-linejoin:round;" d="M193.844,330.149c-0.754-0.574-3.987-4.593-0.754-10.013c2.301-3.856,6.49-4.754,6.49-4.754"></path></g></g></g><g><g><linearGradient id="hair1XMLID_4706_" gradientUnits="userSpaceOnUse" x1="339.1797" y1="140.5" x2="339.1797" y2="292.0004"><stop offset="0" style="stop-color:#FCFCE4"></stop><stop offset="0.5" style="stop-color:#A0C8DD"></stop><stop offset="1" style="stop-color:#5D6EC5"></stop></linearGradient><path style="fill:url(#hair1XMLID_4706_);stroke:#000000;stroke-linecap:round;stroke-linejoin:round;" d="M328.66,277.498c0,0,3.694,11.738,18.474,10.727c-13.065-7.725-7.974-27.932-4.667-36.838c6.224-9.513,10.113-24.693,10.89-33.397c0.777-8.703-22.732-52.168-28.373-53.99C328.095,179.99,328.66,277.498,328.66,277.498z"></path><path style="fill:none;stroke:#000000;stroke-linecap:round;stroke-linejoin:round;" d="M340.828,214.145c0,0,1.556,23.073-11.084,39.672"></path></g><g><linearGradient id="hair1XMLID_4707_" gradientUnits="userSpaceOnUse" x1="299.8008" y1="140.5" x2="299.8008" y2="291.9999"><stop offset="0" style="stop-color:#FCFCE4"></stop><stop offset="0.5" style="stop-color:#A0C8DD"></stop><stop offset="1" style="stop-color:#5D6EC5"></stop></linearGradient><path style="fill:url(#hair1XMLID_4707_);stroke:#000000;stroke-linecap:round;stroke-linejoin:round;" d="M291.669,141.595c0,0,9.918,20.944,11.377,34.723c1.458,13.779,3.541,77.989,1.207,84.878c-2.332,3.858-13.943,14.146-15.402,16.901c-0.195,10.105,11.861,23.608,11.861,22.781c0-0.826-1.459-7.44,0.584-8.543c2.041-1.102,41.371-20.116,48.08-36.376c1.459-44.368-13.415-83.225-28-108.578c0,0-19.205-33.928-60.042-33.376c0,0-6.188,0.526-11.209,1.885"></path><path style="fill:none;stroke:#000000;stroke-linecap:round;stroke-linejoin:round;" d="M327.104,199.283c0,0.551-7.974,38.398-21.78,58.973"></path><path style="fill:none;stroke:#000000;stroke-linecap:round;stroke-linejoin:round;" d="M334.354,203.876c0,0,2.818,25.483-0.973,44.644c-4.473,22.598-7.39,24.618-7.39,24.618"></path><g><linearGradient id="hair1XMLID_4708_" gradientUnits="userSpaceOnUse" x1="301.793" y1="141.5" x2="301.793" y2="292.9997"><stop offset="0" style="stop-color:#FCFCE4"></stop><stop offset="0.5" style="stop-color:#A0C8DD"></stop><stop offset="1" style="stop-color:#5D6EC5"></stop></linearGradient><path style="fill:url(#hair1XMLID_4708_);stroke:#000000;stroke-linecap:round;stroke-linejoin:round;" d="M288.46,278.524c0,0,2.917,11.573,12.445,20.943c9.529,9.37,15.996,11.3,19.277,19.152c-2.334,1.837-3.914,3.078-3.914,3.078s0.582,3.674,0.193,4.226c-0.389,0.551-17.695,15.984-28.975-1.47c5.834,3.307,16.334,2.203,12.641-9.187c-6.223-0.734-15.557-5.88-16.724-11.574C283.987,287.526,288.46,278.524,288.46,278.524z"></path><path style="fill:none;stroke:#000000;stroke-linecap:round;stroke-linejoin:round;" d="M299.253,314.97c-2.771-0.827-12.979-8.681-15.094-21.22"></path><path style="fill:none;stroke:#000000;stroke-linecap:round;stroke-linejoin:round;" d="M316.317,321.928c0,0-0.291-4.065-4.375-7.097"></path><path style="fill:none;stroke:#000000;stroke-linecap:round;stroke-linejoin:round;" d="M306.156,330.149c0.754-0.574,3.987-4.593,0.754-10.013c-2.3-3.856-6.489-4.754-6.489-4.754"></path></g></g></g></g></g><g><path style="fill:#FFF0DE;" d="M170.007,180.757c0,0,5.335-10.679,7.472-11.21c2.136-0.534-0.744,17.4-3.738,16.547C170.94,185.294,168.939,183.293,170.007,180.757z"></path><path style="fill:#FFF0DE;" d="M177.677,185.023c0,0,0.411-6.983,2.67-8.538c2.259-1.557,1.602,10.673,0,10.673C178.745,187.159,177.677,187.694,177.677,185.023z"></path><g><g><path style="fill:#FFF0DE;" d="M332.813,180.753c0,0-5.337-10.675-7.472-11.207c-2.134-0.534,0.743,17.4,3.734,16.547C331.879,185.293,333.881,183.293,332.813,180.753z"></path><path style="fill:#FFF0DE;" d="M325.415,185.024c0,0-0.411-6.984-2.672-8.541c-2.26-1.555-1.6,10.676,0,10.676C324.347,187.159,325.415,187.694,325.415,185.024z"></path><path style="fill:#FFF0DE;" d="M240.032,184.165c0,0,0-10.41,2.403-13.211c2.399-2.802,5.522,13.451,2.803,14.811C242.835,186.967,240.032,186.967,240.032,184.165z"></path><path style="fill:#FFF0DE;" d="M249.509,185.165c-1.606-2.003,0-9.208,0.799-10.41c0.801-1.201,4.002,9.207,2.402,11.208C250.646,188.542,251.108,187.165,249.509,185.165z"></path></g></g></g></g></g></svg>