<svg xmlns="http://www.w3.org/2000/svg" width="500" height="500" version="1.1"><g id="x9277"><g><g><g><linearGradient id="hair1XMLID_4709_" gradientUnits="userSpaceOnUse" x1="250.0513" y1="110.6665" x2="250.0513" y2="301.3326"><stop offset="0" style="stop-color:#FCFCE4"></stop><stop offset="0.5" style="stop-color:#A0C8DD"></stop><stop offset="1" style="stop-color:#5D6EC5"></stop></linearGradient><path style="fill:url(#hair1XMLID_4709_);stroke:#000000;stroke-linecap:round;stroke-linejoin:round;" d="M334.52,181.962c-1.02-14.462-10.725-32.714-23.785-46.08c-16.916-17.31-39.3-23.774-59.115-20.201c-0.381,0.069-0.764,0.134-1.141,0.21c-0.16,0.019-0.317,0.034-0.478,0.054c-0.16-0.02-0.317-0.035-0.478-0.054C229.51,111.856,207,115,189.266,135.882C176,149,166,168.5,165.583,182.962c0,32.694,13.666,51.104,14.227,52.325c0,0-5.229-21.928,5.742-24.67c4.113-0.686,9.78-33.574,16.455-44.566c1.829-2.195,24.358-4.665,47.994-4.677c0.54,0,1.079,0.003,1.618,0.006c23.033,0.12,44.587,2.526,46.374,4.671c6.674,10.992,10.894,52.597,15.007,53.283c10.971,2.742,5.093,16.555,5.093,16.555C318.653,234.667,334.52,211.65,334.52,181.962z"></path></g></g><linearGradient id="hair1XMLID_4710_" gradientUnits="userSpaceOnUse" x1="251.125" y1="110.6665" x2="251.125" y2="301.3331"><stop offset="0" style="stop-color:#FCFCE4"></stop><stop offset="0.5" style="stop-color:#A0C8DD"></stop><stop offset="1" style="stop-color:#5D6EC5"></stop></linearGradient><path style="fill:url(#hair1XMLID_4710_);" d="M185.5,185.5c0,0,43-10.5,43.75-10.5s43,0,43,0l44.5,16.25l-12-31c0,0-37-11.5-54.25-11.75s-55.5,11-55.5,11L185.5,185.5z"></path><linearGradient id="hair1XMLID_4711_" gradientUnits="userSpaceOnUse" x1="204.2329" y1="110.6665" x2="204.2329" y2="301.3328"><stop offset="0" style="stop-color:#FCFCE4"></stop><stop offset="0.5" style="stop-color:#A0C8DD"></stop><stop offset="1" style="stop-color:#5D6EC5"></stop></linearGradient><path style="fill:url(#hair1XMLID_4711_);stroke:#000000;stroke-linecap:round;stroke-linejoin:round;" d="M223.089,177.75c0,0-16.875,29.75-35.319,47c-4.872-16.75-1.568-36,3.304-47"></path><linearGradient id="hair1XMLID_4712_" gradientUnits="userSpaceOnUse" x1="290.75" y1="110.6665" x2="290.75" y2="301.3329"><stop offset="0" style="stop-color:#FCFCE4"></stop><stop offset="0.5" style="stop-color:#A0C8DD"></stop><stop offset="1" style="stop-color:#5D6EC5"></stop></linearGradient><path style="fill:url(#hair1XMLID_4712_);stroke:#000000;stroke-linecap:round;stroke-linejoin:round;" d="M317.011,191.955C318.053,202.788,320,211,320,211l-4.5,20.5c0,0-2.5-6-11-15c-17-13.5-34.5-43-34.5-43l-8.5-16.5"></path><g><linearGradient id="hair1XMLID_4713_" gradientUnits="userSpaceOnUse" x1="246.4419" y1="110.6665" x2="246.4419" y2="301.3334"><stop offset="0" style="stop-color:#FCFCE4"></stop><stop offset="0.5" style="stop-color:#A0C8DD"></stop><stop offset="1" style="stop-color:#5D6EC5"></stop></linearGradient><path style="fill:url(#hair1XMLID_4713_);stroke:#000000;stroke-linecap:round;stroke-linejoin:round;" d="M216.635,160.936c0,0,3.015,43.564,13.9,60.149c1.474,14.356-1.587,22.525-1.587,22.525c3.856-3.878,7.03-9.736,7.03-9.736s2.609,9.406,13.04,13.201c-2.381-8.416,0.114-20.792,2.495-29.043c-2.381,17.244,0.906,29.043,1.587,29.786c3.062-19.307,22.791-32.426,23.132-61.138c0,0,0.796-18.565-8.048-32.179"></path><path style="fill:none;stroke:#000000;stroke-linecap:round;stroke-linejoin:round;" d="M230.648,221.579c0,0,0.34-22.772-1.36-35.148"></path></g><g><linearGradient id="hair1XMLID_4714_" gradientUnits="userSpaceOnUse" x1="153.75" y1="110.6665" x2="153.75" y2="301.333"><stop offset="0" style="stop-color:#FCFCE4"></stop><stop offset="0.5" style="stop-color:#A0C8DD"></stop><stop offset="1" style="stop-color:#5D6EC5"></stop></linearGradient><path style="fill:url(#hair1XMLID_4714_);stroke:#000000;stroke-linecap:round;stroke-linejoin:round;" d="M171.5,180.25c0,0-12.75,28.25-40,23.25c11.25,13.75,26,22.75,44.5,15"></path><linearGradient id="hair1XMLID_4715_" gradientUnits="userSpaceOnUse" x1="346.25" y1="110.6665" x2="346.25" y2="301.333"><stop offset="0" style="stop-color:#FCFCE4"></stop><stop offset="0.5" style="stop-color:#A0C8DD"></stop><stop offset="1" style="stop-color:#5D6EC5"></stop></linearGradient><path style="fill:url(#hair1XMLID_4715_);stroke:#000000;stroke-linecap:round;stroke-linejoin:round;" d="M328.5,180.25c0,0,12.75,28.25,40,23.25c-11.25,13.75-26,22.75-44.5,15"></path></g><g><linearGradient id="hair1XMLID_4716_" gradientUnits="userSpaceOnUse" x1="185.7505" y1="110.6665" x2="185.7505" y2="301.3337"><stop offset="0" style="stop-color:#FCFCE4"></stop><stop offset="0.5" style="stop-color:#A0C8DD"></stop><stop offset="1" style="stop-color:#5D6EC5"></stop></linearGradient><path style="fill:url(#hair1XMLID_4716_);stroke:#000000;stroke-linecap:round;stroke-linejoin:round;" d="M168.593,204.728c-5,8.138-6.72,24.494-2.5,38.6c8,26.741,28.161,35.856,31.446,37.335c0.284,9.418-3.147,16.164-10.696,18.937c7.25,2.558,15-3.721,15-3.721s-3,6.046-7,8.371c14.75-4.884,14.75-28.601,10.5-47.436c-4.25-18.835-19-41.623-19.5-42.321c0,0-0.25-30.461,13.75-49.994 M173.226,233.771c5.732,14.464,20.914,27.055,23.367,39.087c0.34,1.668,0.591,3.277,0.753,4.826C167.093,263.324,173.948,238.406,173.226,233.771z"></path><linearGradient id="hair1XMLID_4717_" gradientUnits="userSpaceOnUse" x1="314.25" y1="110.6665" x2="314.25" y2="301.3337"><stop offset="0" style="stop-color:#FCFCE4"></stop><stop offset="0.5" style="stop-color:#A0C8DD"></stop><stop offset="1" style="stop-color:#5D6EC5"></stop></linearGradient><path style="fill:url(#hair1XMLID_4717_);stroke:#000000;stroke-linecap:round;stroke-linejoin:round;" d="M300.407,164.5c14,19.532,13.75,49.994,13.75,49.994c-0.5,0.698-15.25,23.485-19.5,42.321c-4.25,18.835-4.25,42.552,10.5,47.436c-4-2.325-7-8.371-7-8.371s7.75,6.278,15,3.721c-7.549-2.772-10.98-9.519-10.696-18.937c3.285-1.479,23.446-10.595,31.446-37.335c4.221-14.106,2.5-30.462-2.5-38.6 M302.653,277.685c0.163-1.549,0.414-3.158,0.754-4.826c2.453-12.032,17.635-24.623,23.367-39.087C326.052,238.406,332.907,263.324,302.653,277.685z"></path></g><g><g><path style="fill:#7D7D7D;stroke:#000000;stroke-linecap:round;stroke-linejoin:round;" d="M165,135.5c0,0-19-28.5-12.75-46.25c4.75,2.75,11,10.25,11,10.25l38.75,40c0,0-20.25,14.25-21.25,17C176,151.75,165,135.5,165,135.5z"></path><linearGradient id="hair1XMLID_4718_" gradientUnits="userSpaceOnUse" x1="178.875" y1="110.6665" x2="178.875" y2="301.333"><stop offset="0" style="stop-color:#FCFCE4"></stop><stop offset="0.5" style="stop-color:#A0C8DD"></stop><stop offset="1" style="stop-color:#5D6EC5"></stop></linearGradient><path style="fill:url(#hair1XMLID_4718_);stroke:#000000;stroke-linecap:round;stroke-linejoin:round;" d="M175.5,118.25c-0.75-0.25-9.25-7.5-10.5-8.25c0.75,4,2.5,8.5,2.5,8.5s-2.75,0.5-3.75,0.5c1,6,3.75,10.5,6.5,12.5c-5.5-1.5-12.5,0-12.5,0s5.5,9,11,10.5c-5.75,1.75-12,3-12,3s5.25,2.75,8.5,2.75c-2.5,1.25-4.75,2.5-4.75,2.5s4.75,5.5,12.25,4c-1.5,3.75-5,13.5-4.75,15.25c8.5-6.75,13.5-10.75,13.5-10.75s-2,5.75-1.25,7c5.25-7.25,13.75-19,13.75-19s4,0.75,7,0.75c-3-4-7.25-10.75-7.25-10.75L175.5,118.25z"></path><linearGradient id="hair1XMLID_4719_" gradientUnits="userSpaceOnUse" x1="187.75" y1="110.6665" x2="187.75" y2="301.3328"><stop offset="0" style="stop-color:#FCFCE4"></stop><stop offset="0.5" style="stop-color:#A0C8DD"></stop><stop offset="1" style="stop-color:#5D6EC5"></stop></linearGradient><path style="fill:url(#hair1XMLID_4719_);stroke:#000000;stroke-linecap:round;stroke-linejoin:round;" d="M213.75,117.5c0,0-3.75-5.75-15.25-9.5s-32-5-36.75-9.75c6.5,13.25,21.75,35.5,40,43"></path></g><g><path style="fill:#7D7D7D;stroke:#000000;stroke-linecap:round;stroke-linejoin:round;" d="M335,135.5c0,0,19-28.5,12.75-46.25c-4.75,2.75-11,10.25-11,10.25l-38.75,40c0,0,20.25,14.25,21.25,17C324,151.75,335,135.5,335,135.5z"></path><linearGradient id="hair1XMLID_4720_" gradientUnits="userSpaceOnUse" x1="321.125" y1="110.6665" x2="321.125" y2="301.333"><stop offset="0" style="stop-color:#FCFCE4"></stop><stop offset="0.5" style="stop-color:#A0C8DD"></stop><stop offset="1" style="stop-color:#5D6EC5"></stop></linearGradient><path style="fill:url(#hair1XMLID_4720_);stroke:#000000;stroke-linecap:round;stroke-linejoin:round;" d="M324.5,118.25c0.75-0.25,9.25-7.5,10.5-8.25c-0.75,4-2.5,8.5-2.5,8.5s2.75,0.5,3.75,0.5c-1,6-3.75,10.5-6.5,12.5c5.5-1.5,12.5,0,12.5,0s-5.5,9-11,10.5c5.75,1.75,12,3,12,3s-5.25,2.75-8.5,2.75c2.5,1.25,4.75,2.5,4.75,2.5s-4.75,5.5-12.25,4c1.5,3.75,5,13.5,4.75,15.25c-8.5-6.75-13.5-10.75-13.5-10.75s2,5.75,1.25,7c-5.25-7.25-13.75-19-13.75-19s-4,0.75-7,0.75c3-4,7.25-10.75,7.25-10.75L324.5,118.25z"></path><linearGradient id="hair1XMLID_4721_" gradientUnits="userSpaceOnUse" x1="312.25" y1="110.6665" x2="312.25" y2="301.3328"><stop offset="0" style="stop-color:#FCFCE4"></stop><stop offset="0.5" style="stop-color:#A0C8DD"></stop><stop offset="1" style="stop-color:#5D6EC5"></stop></linearGradient><path style="fill:url(#hair1XMLID_4721_);stroke:#000000;stroke-linecap:round;stroke-linejoin:round;" d="M286.25,117.5c0,0,3.75-5.75,15.25-9.5s32-5,36.75-9.75c-6.5,13.25-21.75,35.5-40,43"></path></g></g></g></g></svg>