<svg xmlns="http://www.w3.org/2000/svg" width="500" height="500" version="1.1"><g id="x9283"><g><g><linearGradient id="hair1XMLID_4805_" gradientUnits="userSpaceOnUse" x1="250.0005" y1="309.1787" x2="250.0005" y2="235.9954"><stop offset="0" style="stop-color:#FCFCE4"></stop><stop offset="0.5" style="stop-color:#A0C8DD"></stop><stop offset="1" style="stop-color:#5D6EC5"></stop></linearGradient><path style="fill:url(#hair1XMLID_4805_);stroke:#000000;stroke-linecap:round;stroke-linejoin:round;" d="M334.469,181.962c-1.02-14.462-10.725-32.714-23.785-46.08c-8.71-8.913-18.87-9.942-29.382-13.215c1.581-0.834,3.307-1.722,5.198-2.667c-8.5-13-36.5-14-36.5-14s-28,1-36.5,14c1.332,0.666,2.577,1.302,3.754,1.912c-9.911,3.017-19.526,3.945-28.04,13.97c-13.266,13.118-23.266,32.618-23.683,47.08c0,32.694,13.666,51.104,14.227,52.325c0,0-5.229-21.928,5.742-24.67c4.113-0.687,9.78-33.575,16.455-44.567c1.83-2.195,24.359-4.665,47.994-4.677c0.541,0,1.08,0.003,1.619,0.006c23.033,0.12,44.586,2.526,46.373,4.671c6.674,10.992,10.895,52.597,15.008,53.284c10.971,2.742,5.092,16.555,5.092,16.555C318.602,234.668,334.469,211.65,334.469,181.962z"></path></g><g><g><g><linearGradient id="hair1XMLID_4806_" gradientUnits="userSpaceOnUse" x1="189.8354" y1="298" x2="189.8354" y2="263.3331"><stop offset="0" style="stop-color:#FCFCE4"></stop><stop offset="0.5" style="stop-color:#A0C8DD"></stop><stop offset="1" style="stop-color:#5D6EC5"></stop></linearGradient><path style="fill:url(#hair1XMLID_4806_);stroke:#000000;stroke-linecap:round;stroke-linejoin:round;" d="M175.091,234c0,0-0.5,21,14.5,34.5c12.5,0.5,14.992-2.307,14.992-2.307s-5.492-7.193-9.992-19.693"></path><g><g><path style="fill:#CC373C;stroke:#000000;stroke-linecap:round;stroke-linejoin:round;" d="M188.455,268.583c0,0,2.189,7.767,2.189,9.159c0,1.395,1.194,2.191,1.194,2.191s11.149-1.195,11.946-2.191c0.798-0.995,0.399-1.991,0.2-2.788c-0.2-0.795,0.598-8.761,0.598-8.761s-2.59-2.786-8.563-1.99C190.047,265,188.654,267.388,188.455,268.583z"></path><g><polygon style="fill:#FFFFFF;stroke:#000000;stroke-linecap:round;stroke-linejoin:round;" points="189.284,271.121 192.196,272.466 190.553,275.9 "></polygon><polygon style="fill:#FFFFFF;stroke:#000000;stroke-linecap:round;stroke-linejoin:round;" points="192.196,272.466 193.988,269.105 196.75,271.271 195.333,274.333 "></polygon><polygon style="fill:#FFFFFF;stroke:#000000;stroke-linecap:round;stroke-linejoin:round;" points="196.75,271.271 199.064,268.135 201.679,270.376 199.662,273.511 "></polygon><polygon style="fill:#FFFFFF;stroke:#000000;stroke-linecap:round;stroke-linejoin:round;" points="201.827,270.301 204.292,268.06 203.918,272.839 "></polygon></g></g><g><linearGradient id="hair1XMLID_4807_" gradientUnits="userSpaceOnUse" x1="196.4692" y1="308.3457" x2="196.4692" y2="241.1306" gradientTransform="matrix(0.9979 0.0642 -0.0642 0.9979 18.064 -12.8731)"><stop offset="0" style="stop-color:#FCFCE4"></stop><stop offset="0.5" style="stop-color:#A0C8DD"></stop><stop offset="1" style="stop-color:#5D6EC5"></stop></linearGradient><path style="fill:url(#hair1XMLID_4807_);stroke:#000000;stroke-linecap:round;stroke-linejoin:round;" d="M192.632,277.115c0,0-10.103,10.81-11.591,19.621c-1.836,10.858,2.45,15.096,2.45,15.096s-1.187-5.282,2.937-10.901c0.658,6.491,0.454,23.232,10.451,29.082c0.647-5.277,1.538-6.804,1.538-6.804s12.888-14.906,10.268-29.105c-2.621-14.201-6.525-17.394-6.525-17.394S196.818,275.235,192.632,277.115z"></path><linearGradient id="hair1XMLID_4808_" gradientUnits="userSpaceOnUse" x1="209.1221" y1="303.5234" x2="209.1221" y2="246.6113" gradientTransform="matrix(0.9979 0.0642 -0.0642 0.9979 18.064 -12.8731)"><stop offset="0" style="stop-color:#FCFCE4"></stop><stop offset="0.5" style="stop-color:#A0C8DD"></stop><stop offset="1" style="stop-color:#5D6EC5"></stop></linearGradient><path style="fill:url(#hair1XMLID_4808_);stroke:#000000;stroke-linecap:round;stroke-linejoin:round;" d="M207.282,288.057c0,0,7.018,13.207-0.858,27.708c1.936-8.505-1.491-19.98-1.491-19.98"></path></g></g></g><g><linearGradient id="hair1XMLID_4809_" gradientUnits="userSpaceOnUse" x1="313.9648" y1="298" x2="313.9648" y2="263.3331" gradientTransform="matrix(-1 0 0 1 624.1289 0)"><stop offset="0" style="stop-color:#FCFCE4"></stop><stop offset="0.5" style="stop-color:#A0C8DD"></stop><stop offset="1" style="stop-color:#5D6EC5"></stop></linearGradient><path style="fill:url(#hair1XMLID_4809_);stroke:#000000;stroke-linecap:round;stroke-linejoin:round;" d="M324.909,234c0,0,0.5,21-14.5,34.5c-12.5,0.5-14.991-2.307-14.991-2.307s5.491-7.193,9.991-19.693"></path><g><g><path style="fill:#CC373C;stroke:#000000;stroke-linecap:round;stroke-linejoin:round;" d="M311.545,268.583c0,0-2.189,7.767-2.189,9.159c0,1.395-1.194,2.191-1.194,2.191s-11.149-1.195-11.946-2.191c-0.797-0.995-0.398-1.991-0.199-2.788c0.199-0.795-0.598-8.761-0.598-8.761s2.59-2.786,8.563-1.99C309.953,265,311.346,267.388,311.545,268.583z"></path><g><polygon style="fill:#FFFFFF;stroke:#000000;stroke-linecap:round;stroke-linejoin:round;" points="310.716,271.121 307.805,272.466 309.447,275.9 "></polygon><polygon style="fill:#FFFFFF;stroke:#000000;stroke-linecap:round;stroke-linejoin:round;" points="307.805,272.466 306.012,269.105 303.25,271.271 304.668,274.333 "></polygon><polygon style="fill:#FFFFFF;stroke:#000000;stroke-linecap:round;stroke-linejoin:round;" points="303.25,271.271 300.936,268.135 298.321,270.376 300.338,273.511 "></polygon><polygon style="fill:#FFFFFF;stroke:#000000;stroke-linecap:round;stroke-linejoin:round;" points="298.173,270.301 295.708,268.06 296.082,272.839 "></polygon></g></g><g><linearGradient id="hair1XMLID_4810_" gradientUnits="userSpaceOnUse" x1="320.3457" y1="300.376" x2="320.3457" y2="233.1609" gradientTransform="matrix(-0.9979 0.0642 0.0642 0.9979 606.0648 -12.8731)"><stop offset="0" style="stop-color:#FCFCE4"></stop><stop offset="0.5" style="stop-color:#A0C8DD"></stop><stop offset="1" style="stop-color:#5D6EC5"></stop></linearGradient><path style="fill:url(#hair1XMLID_4810_);stroke:#000000;stroke-linecap:round;stroke-linejoin:round;" d="M307.367,277.115c0,0,10.104,10.81,11.592,19.621c1.836,10.858-2.449,15.096-2.449,15.096s1.187-5.282-2.938-10.901c-0.658,6.491-0.453,23.232-10.451,29.082c-0.646-5.277-1.537-6.804-1.537-6.804s-12.888-14.906-10.268-29.105c2.621-14.201,6.525-17.394,6.525-17.394S303.182,275.235,307.367,277.115z"></path><linearGradient id="hair1XMLID_4811_" gradientUnits="userSpaceOnUse" x1="332.998" y1="295.5537" x2="332.998" y2="238.6415" gradientTransform="matrix(-0.9979 0.0642 0.0642 0.9979 606.0648 -12.8731)"><stop offset="0" style="stop-color:#FCFCE4"></stop><stop offset="0.5" style="stop-color:#A0C8DD"></stop><stop offset="1" style="stop-color:#5D6EC5"></stop></linearGradient><path style="fill:url(#hair1XMLID_4811_);stroke:#000000;stroke-linecap:round;stroke-linejoin:round;" d="M292.718,288.057c0,0-7.019,13.207,0.858,27.708c-1.937-8.505,1.49-19.98,1.49-19.98"></path></g></g></g></g><g><linearGradient id="hair1XMLID_4812_" gradientUnits="userSpaceOnUse" x1="250.0005" y1="289.666" x2="250.0005" y2="218.9995"><stop offset="0" style="stop-color:#FCFCE4"></stop><stop offset="0.5" style="stop-color:#A0C8DD"></stop><stop offset="1" style="stop-color:#5D6EC5"></stop></linearGradient><path style="fill:url(#hair1XMLID_4812_);stroke:#000000;stroke-linecap:round;stroke-linejoin:round;" d="M206.707,131.554c0,0-34.783,42.513-10.731,86.345c6.846,0.165,11.842-0.658,11.842-0.658s-1.48-3.297-1.11-7.251c2.59,4.778,4.07,6.591,4.07,6.591l4.07-0.329c0,0-5.55-20.598,1.666-38.229c-0.37,10.381-0.37,24.883,10.917,36.746c3.515,1.318,5.55,0.989,5.55,0.989s-4.995-7.415-5.735-17.632c2.405,11.699,7.03,17.302,8.511,18.126c1.85,0.659,6.846,1.813,6.846,1.813s-4.256-6.097-5.181-22.41c2.405,14.336,4.995,20.104,7.586,22.081c3.7,0.494,4.995,0.164,4.995,0.164s1.295,0.33,4.996-0.164c2.59-1.978,5.18-7.745,7.585-22.081c-0.926,16.313-5.182,22.41-5.182,22.41s4.996-1.153,6.847-1.813c1.48-0.824,6.105-6.427,8.512-18.126c-0.74,10.217-5.736,17.632-5.736,17.632s2.035,0.329,5.551-0.989c11.286-11.863,11.286-26.365,10.915-36.746c7.217,17.632,1.666,38.229,1.666,38.229l4.07,0.329c0,0,1.48-1.813,4.069-6.591c0.371,3.954-1.109,7.251-1.109,7.251s4.996,0.823,11.842,0.658c24.052-43.832-10.732-86.345-10.732-86.345"></path><g><linearGradient id="hair1XMLID_4813_" gradientUnits="userSpaceOnUse" x1="190.8394" y1="287.877" x2="190.8394" y2="220.6657"><stop offset="0" style="stop-color:#FCFCE4"></stop><stop offset="0.5" style="stop-color:#A0C8DD"></stop><stop offset="1" style="stop-color:#5D6EC5"></stop></linearGradient><path style="fill:url(#hair1XMLID_4813_);stroke:#000000;stroke-linecap:round;stroke-linejoin:round;" d="M224.708,123.884c-31.527,18.111-34.649,55.52-34.649,60.27c0,4.75-6.526,56.261,18.759,67.246c-3.902,1.336-7.492,1.484-7.492,1.484l-1.561-1.93c0.156,1.039,0.156,1.93,0.156,1.93s-16.076,1.633-22.631-4.601c-9.677-16.33-10.33-34.738-8.769-48.84c0,0-9.053,21.228-26.222,23.307c6.868-6.531,15.296-14.548,18.417-36.221s21.124-58.702,46.199-69.473c19.354-8.313,32.464,2.969,32.464,2.969"></path><linearGradient id="hair1XMLID_4814_" gradientUnits="userSpaceOnUse" x1="309.1602" y1="287.877" x2="309.1602" y2="220.6657"><stop offset="0" style="stop-color:#FCFCE4"></stop><stop offset="0.5" style="stop-color:#A0C8DD"></stop><stop offset="1" style="stop-color:#5D6EC5"></stop></linearGradient><path style="fill:url(#hair1XMLID_4814_);stroke:#000000;stroke-linecap:round;stroke-linejoin:round;" d="M275.292,123.884c31.527,18.111,34.648,55.52,34.648,60.27c0,4.75,6.527,56.261-18.758,67.246c3.902,1.336,7.492,1.484,7.492,1.484l1.561-1.93c-0.156,1.039-0.156,1.93-0.156,1.93s16.076,1.633,22.632-4.601c9.677-16.33,10.33-34.738,8.77-48.84c0,0,9.052,21.228,26.221,23.307c-6.867-6.531-15.296-14.548-18.417-36.221c-3.122-21.673-21.124-58.702-46.199-69.473c-19.354-8.313-32.465,2.969-32.465,2.969"></path></g></g></g><g><path style="fill:#FFF0DE;" d="M174.015,180.757c0,0,5.335-10.679,7.472-11.21c2.136-0.534-0.744,17.4-3.738,16.547C174.947,185.294,172.946,183.293,174.015,180.757z"></path><path style="fill:#FFF0DE;" d="M181.685,185.023c0,0,0.41-6.983,2.67-8.538c2.26-1.557,1.603,10.673,0,10.673S181.685,187.694,181.685,185.023z"></path><g><g><path style="fill:#FFF0DE;" d="M327.32,180.753c0,0-5.337-10.675-7.472-11.207c-2.134-0.534,0.743,17.4,3.734,16.547C326.386,185.293,328.388,183.293,327.32,180.753z"></path><path style="fill:#FFF0DE;" d="M319.922,185.024c0,0-0.411-6.984-2.672-8.541c-2.26-1.555-1.6,10.676,0,10.676C318.854,187.159,319.922,187.694,319.922,185.024z"></path></g></g></g></g></g></svg>