<svg xmlns="http://www.w3.org/2000/svg" width="500" height="500" version="1.1"><g id="x9286"><g><linearGradient id="hair1XMLID_4835_" gradientUnits="userSpaceOnUse" x1="249.9995" y1="173.3857" x2="249.9995" y2="242.681"><stop offset="0" style="stop-color:#FCFCE4"></stop><stop offset="0.5" style="stop-color:#A0C8DD"></stop><stop offset="1" style="stop-color:#5D6EC5"></stop></linearGradient><path style="fill:url(#hair1XMLID_4835_);stroke:#000000;stroke-linecap:round;stroke-linejoin:round;" d="M312.299,135.882c-17.122-17.643-42.436-19.938-62.298-19.938c-19.862,0-45.329,2.45-62.299,19.938c-12.97,13.365-22.128,30.165-22.128,51.08c0,32.694,14.167,47.104,14.724,48.325c0,0-5.192-21.928,5.702-24.67c4.085-0.686,9.712-33.574,16.341-44.566c1.816-2.195,24.189-4.665,47.661-4.677c23.469,0.012,45.843,2.481,47.659,4.677c6.627,10.992,12.256,43.88,16.34,44.566c10.895,2.742,6.599,25.272,6.599,25.272c0.557-1.221,13.828-19.239,13.828-48.927C334.427,166.047,325.269,149.248,312.299,135.882z"></path><g><g><linearGradient id="hair1XMLID_4836_" gradientUnits="userSpaceOnUse" x1="186.562" y1="201.5249" x2="186.562" y2="268.5507" gradientTransform="matrix(0.9975 0.0705 -0.0705 0.9975 15.558 -12.9377)"><stop offset="0" style="stop-color:#FCFCE4"></stop><stop offset="0.5" style="stop-color:#A0C8DD"></stop><stop offset="1" style="stop-color:#5D6EC5"></stop></linearGradient><path style="fill:url(#hair1XMLID_4836_);stroke:#000000;stroke-linecap:round;stroke-linejoin:round;" d="M190.76,195.833c0,0-3.142,25.196,1.833,40.167s15.379,24.913,18.675,26.708c-9.35,1.548-24.175-1.208-29.732-14.206c0.057,7.331,2.391,12.498,2.391,12.498s-52.425-47.333-4.091-116"></path><linearGradient id="hair1XMLID_4837_" gradientUnits="userSpaceOnUse" x1="353.7773" y1="189.7065" x2="353.7773" y2="256.7324" gradientTransform="matrix(-0.9975 0.0705 0.0705 0.9975 652.0709 -12.9377)"><stop offset="0" style="stop-color:#FCFCE4"></stop><stop offset="0.5" style="stop-color:#A0C8DD"></stop><stop offset="1" style="stop-color:#5D6EC5"></stop></linearGradient><path style="fill:url(#hair1XMLID_4837_);stroke:#000000;stroke-linecap:round;stroke-linejoin:round;" d="M309.237,195.833c0,0,3.142,25.196-1.834,40.167c-4.975,14.97-15.379,24.913-18.674,26.708c9.35,1.548,24.174-1.208,29.731-14.206C318.403,255.833,316.07,261,316.07,261s52.425-47.333,4.091-116"></path></g><g><linearGradient id="hair1XMLID_4838_" gradientUnits="userSpaceOnUse" x1="207.5366" y1="176.7153" x2="207.5366" y2="219.0437"><stop offset="0" style="stop-color:#FCFCE4"></stop><stop offset="0.5" style="stop-color:#A0C8DD"></stop><stop offset="1" style="stop-color:#5D6EC5"></stop></linearGradient><path style="fill:url(#hair1XMLID_4838_);stroke:#000000;stroke-linecap:round;stroke-linejoin:round;" d="M227.406,158.998c0,0-9.836,36.568-9.079,55.766c-6.809,0.914-26.229-3.107-27.742-6.764c-0.414-2.5,0.505-7.863,0.505-7.863s-2.271,3.657-2.271,11.884c-4.539-10.056,4.54-53.937,23.455-70.393"></path><g><linearGradient id="hair1XMLID_4839_" gradientUnits="userSpaceOnUse" x1="270.2559" y1="176.1392" x2="270.2559" y2="219.977"><stop offset="0" style="stop-color:#FCFCE4"></stop><stop offset="0.5" style="stop-color:#A0C8DD"></stop><stop offset="1" style="stop-color:#5D6EC5"></stop></linearGradient><path style="fill:url(#hair1XMLID_4839_);stroke:#000000;stroke-linecap:round;stroke-linejoin:round;" d="M227.552,149.667c0,0-5.584,43.157,5.765,65.097c-2.593-10.764-1.513-22.854-1.513-22.854s2.024,16.341,9.059,22.091c12.86,1.828,21.962,1.677,21.962,1.677s-6.783-33.909-3.755-57.677c4.538,30.168,11.32,47.622,21.912,55.85c-5.152-11.1-5.296-22.854-5.296-22.854l9.079,21.026c0,0,19.671,4.571,24.211-3.657c0.755-6.399-0.758-12.798-0.758-12.798s5.296,13.712,6.054,18.284c0.757-9.142-5.296-52.108-27.237-74.049"></path></g></g></g><g><g><path style="fill:#FFF0DE;" d="M174.274,179.257c0,0,5.335-10.679,7.472-11.21c2.136-0.534-0.744,17.4-3.738,16.547C175.207,183.794,173.206,181.793,174.274,179.257z"></path><path style="fill:#FFF0DE;" d="M183.344,183.523c0,0,0.411-6.983,2.67-8.538c2.259-1.557,1.602,10.673,0,10.673C184.412,185.659,183.344,186.194,183.344,183.523z"></path><path style="fill:#FFF0DE;" d="M325.647,179.253c0,0-5.337-10.675-7.472-11.207c-2.134-0.534,0.743,17.4,3.734,16.547C324.713,183.793,326.715,181.793,325.647,179.253z"></path><path style="fill:#FFF0DE;" d="M318.249,183.524c0,0-0.411-6.984-2.672-8.541c-2.26-1.555-1.6,10.676,0,10.676C317.181,185.659,318.249,186.194,318.249,183.524z"></path><path style="fill:#FFF0DE;" d="M236.449,188.998c0,0,0-10.41,2.403-13.211c2.4-2.802,5.523,13.451,2.804,14.811C239.251,191.801,236.449,191.801,236.449,188.998z"></path><path style="fill:#FFF0DE;" d="M245.259,188.998c-1.606-2.003,0-9.208,0.799-10.41c0.801-1.201,4.002,9.207,2.402,11.208C246.396,192.376,246.858,190.998,245.259,188.998z"></path></g></g></g></g></svg>