<svg xmlns="http://www.w3.org/2000/svg" width="500" height="500" version="1.1"><g id="x9288"><g><g><g><linearGradient id="hair1XMLID_4856_" gradientUnits="userSpaceOnUse" x1="304.1348" y1="126" x2="304.1348" y2="439.0193"><stop offset="0" style="stop-color:#FCFCE4"></stop><stop offset="0.5" style="stop-color:#A0C8DD"></stop><stop offset="1" style="stop-color:#5D6EC5"></stop></linearGradient><path style="fill:url(#hair1XMLID_4856_);stroke:#000000;stroke-linecap:round;stroke-linejoin:round;" d="M311,244.5c0,0,2.75,34.75,5.66,43.239c2.34,7.011-13.656,13.739-13.656,13.739l1.496-2.229c0,0,6.838-6.309,8-10.125S308.75,254,308.75,254s2.539,22.51,0.25,37c-0.763,4.83-5.416,9.27-7.014,11.114c0,0-11.939-9.173-10.486-12.989c0.131-0.343,1.37-3.066,1.875-4.75c1.148-3.822,2.064-8.542,2.875-12.375c2.812-13.272,4.284-27.386,4.284-27.386S308.675,238.648,311,244.5z"></path><linearGradient id="hair1XMLID_4857_" gradientUnits="userSpaceOnUse" x1="299.7051" y1="126" x2="299.7051" y2="439.0194"><stop offset="0" style="stop-color:#FCFCE4"></stop><stop offset="0.5" style="stop-color:#A0C8DD"></stop><stop offset="1" style="stop-color:#5D6EC5"></stop></linearGradient><path style="fill:url(#hair1XMLID_4857_);stroke:#000000;stroke-linecap:round;stroke-linejoin:round;" d="M300.728,301.055c0,0-11.85,24.106-0.228,29.195c0,0-1.02,5.806-7.52,8.501c0,0,10.735-0.477,12.77-16.251c2.033-15.773-1.148-21.021-1.148-21.021"></path><path style="fill:none;stroke:#000000;stroke-linecap:round;stroke-linejoin:round;" d="M300.5,330.25c0,0,0.75-7.125,0.75-12.375"></path><g><path style="fill:#0D0D0D;stroke:#000000;stroke-linecap:round;stroke-linejoin:round;" d="M303.585,300.969c0,0,9.539,0.467,9.733,2.503c1.017,4.621-1.162,5.385-1.162,5.385s-3.291-0.465-8.328-6.911l7.165,3.73v-2.204C310.993,303.472,304.166,302.665,303.585,300.969z"></path><path style="fill:#0D0D0D;stroke:#000000;stroke-linecap:round;stroke-linejoin:round;" d="M301.696,300.249c0,0-8.91-4.412-10.071-3.224c-1.162,1.188,0.338,3.435,0.338,3.435l10.023,0.891C301.986,301.351,303.827,300.418,301.696,300.249z"></path><path style="fill:#0D0D0D;stroke:#000000;stroke-linecap:round;stroke-linejoin:round;" d="M300.728,301.055c0,0-11.041,2.204-12.396,6.954l2.132,3.223c0,0,6.197-7.802,12.009-9.159C302.472,302.072,303.246,300.885,300.728,301.055z"></path><path style="fill:#0D0D0D;stroke:#000000;stroke-linecap:round;stroke-linejoin:round;" d="M303.053,302.963c0,0-2.857-1.272-0.34-2.884C305.328,300.206,303.683,302.794,303.053,302.963z"></path></g></g><path style="fill:none;stroke:#000000;stroke-linecap:round;stroke-linejoin:round;" d="M304,246c0,0-4.75,31.5-10.75,39.5"></path></g><g><linearGradient id="hair1XMLID_4858_" gradientUnits="userSpaceOnUse" x1="250.125" y1="125.6157" x2="250.125" y2="175.2786"><stop offset="0" style="stop-color:#FCFCE4"></stop><stop offset="0.5" style="stop-color:#A0C8DD"></stop><stop offset="1" style="stop-color:#5D6EC5"></stop></linearGradient><polyline style="fill:url(#hair1XMLID_4858_);stroke:#000000;stroke-linecap:round;stroke-linejoin:round;" points="219.633,170.155 280.617,171.167 273.782,155.667 248.572,166.955 225.847,155.835 219.633,170.155 "></polyline><g><g><linearGradient id="hair1XMLID_4859_" gradientUnits="userSpaceOnUse" x1="250.3325" y1="126.9604" x2="250.3325" y2="427"><stop offset="0" style="stop-color:#FCFCE4"></stop><stop offset="0.5" style="stop-color:#A0C8DD"></stop><stop offset="1" style="stop-color:#5D6EC5"></stop></linearGradient><path style="fill:url(#hair1XMLID_4859_);stroke:#000000;stroke-linecap:round;stroke-linejoin:round;" d="M308.056,129.203c-0.941-0.599-4.22-5.678-5.617-6.077c-4.568-3.178-13.638-8.867-16.737-9.825c-0.807-0.12-2.639,0.066-3.501,0.359c-3.591-1.22-5.296-1.418-6.964-2.037c-5.721-1.58-18.807-1.359-24.905-1.129c-6.1-0.23-19.184-0.451-24.904,1.129c-1.668,0.619-3.373,0.817-6.965,2.037c-0.862-0.293-2.692-0.479-3.5-0.359c-3.098,0.958-12.169,6.647-16.737,9.825c-1.398,0.399-4.673,5.478-5.616,6.077c-6.656,5.433-16.944,58.784-16.944,58.784l74.666-42.7l74.669,42.7C325,187.987,314.711,134.636,308.056,129.203z"></path><path style="fill:none;stroke:#000000;stroke-linecap:round;stroke-linejoin:round;" d="M198.226,123.126c0,0,25.686,2.875,35.594,9.346"></path><path style="fill:none;stroke:#000000;stroke-linecap:round;stroke-linejoin:round;" d="M250.87,125.842c0,0-1.257-1.638-6.643-5.711c-5.224-3.951-24.776-6.35-24.776-6.35"></path><path style="fill:none;stroke:#000000;stroke-linecap:round;stroke-linejoin:round;" d="M240.994,110.545c0,0,6.33,5.272,7.138,11.862"></path><path style="fill:none;stroke:#000000;stroke-linecap:round;stroke-linejoin:round;" d="M248.535,133.071c0,0,1.481-7.908,6.329-12.222s26.797-7.069,26.797-7.069"></path><path style="fill:none;stroke:#000000;stroke-linecap:round;stroke-linejoin:round;" d="M269.274,111.025c0,0-10.506,2.037-14.007,8.986"></path></g><linearGradient id="hair1XMLID_4860_" gradientUnits="userSpaceOnUse" x1="249.9995" y1="125.126" x2="249.9995" y2="440.9103"><stop offset="0" style="stop-color:#FCFCE4"></stop><stop offset="0.5" style="stop-color:#A0C8DD"></stop><stop offset="1" style="stop-color:#5D6EC5"></stop></linearGradient><path style="fill:url(#hair1XMLID_4860_);stroke:#000000;stroke-linecap:round;stroke-linejoin:round;" d="M347.5,246c-12.25-18.5-21.177-70.467-29.25-86c-14.8-28.477-24.07-37.256-29.75-37c-5.418,0.244-22.748,4.25-38.5,13.658c-15.752-9.409-33.082-13.414-38.5-13.658c-5.68-0.256-14.95,8.523-29.75,37c-8.073,15.533-17,67.5-29.25,86c0,0,9.749-4.025,21-18c0,0-2.5,7.5-6,14c15.867-6.194,24.677-23.724,24.677-23.724l34.594-60.364c4.126-1.59,19.769,9.38,23.229,11.863c3.461-2.483,19.104-13.454,23.229-11.863l34.594,60.364c0,0,8.81,17.53,24.677,23.724c-3.5-6.5-6-14-6-14C337.751,241.975,347.5,246,347.5,246z"></path><g><g><linearGradient id="hair1XMLID_4861_" gradientUnits="userSpaceOnUse" x1="303.2773" y1="126" x2="303.2773" y2="439.0194"><stop offset="0" style="stop-color:#FCFCE4"></stop><stop offset="0.5" style="stop-color:#A0C8DD"></stop><stop offset="1" style="stop-color:#5D6EC5"></stop></linearGradient><path style="fill:url(#hair1XMLID_4861_);stroke:#000000;stroke-linecap:round;stroke-linejoin:round;" d="M323.747,206.333c0,0,2.089,30.966-9.747,50.334c-11,18-24.836,29.083-31.336,31.666c0,0,11.5-14.499,16.75-40.833c4.756-23.854-12.25-69.5-12.25-69.5"></path><linearGradient id="hair1XMLID_4862_" gradientUnits="userSpaceOnUse" x1="282.0322" y1="126" x2="282.0322" y2="439.0192"><stop offset="0" style="stop-color:#FCFCE4"></stop><stop offset="0.5" style="stop-color:#A0C8DD"></stop><stop offset="1" style="stop-color:#5D6EC5"></stop></linearGradient><path style="fill:url(#hair1XMLID_4862_);stroke:#000000;stroke-linecap:round;stroke-linejoin:round;" d="M270.497,155.333c3.25,0,15.621,35.003,17.834,50c4.083,27.667-4,68.667-7.334,80.667c0,0,17.251-42.5,11.334-82.667c-4.457-30.256-8.834-41.5-8.834-41.5"></path><path style="fill:none;stroke:#000000;stroke-linecap:round;stroke-linejoin:round;" d="M301.414,157c0,0,6.75,52-1.25,88"></path></g><g><linearGradient id="hair1XMLID_4863_" gradientUnits="userSpaceOnUse" x1="196.479" y1="126" x2="196.479" y2="439.0194"><stop offset="0" style="stop-color:#FCFCE4"></stop><stop offset="0.5" style="stop-color:#A0C8DD"></stop><stop offset="1" style="stop-color:#5D6EC5"></stop></linearGradient><path style="fill:url(#hair1XMLID_4863_);stroke:#000000;stroke-linecap:round;stroke-linejoin:round;" d="M176.158,206.333c0,0-2.825,24,5.842,45.667c7.87,19.674,28.739,33.75,35.239,36.333c0,0-11.499-14.499-16.749-40.833c-4.756-23.854,12.249-69.5,12.249-69.5"></path><linearGradient id="hair1XMLID_4864_" gradientUnits="userSpaceOnUse" x1="217.8711" y1="126" x2="217.8711" y2="439.0192"><stop offset="0" style="stop-color:#FCFCE4"></stop><stop offset="0.5" style="stop-color:#A0C8DD"></stop><stop offset="1" style="stop-color:#5D6EC5"></stop></linearGradient><path style="fill:url(#hair1XMLID_4864_);stroke:#000000;stroke-linecap:round;stroke-linejoin:round;" d="M229.405,155.333c-3.249,0-15.62,35.003-17.833,50c-4.083,27.667,4,68.667,7.334,80.667c0,0-17.25-42.5-11.334-82.667c4.457-30.256,8.834-41.5,8.834-41.5"></path><path style="fill:none;stroke:#000000;stroke-linecap:round;stroke-linejoin:round;" d="M198.49,157c0,0-6.75,52,1.25,88"></path></g><path style="fill:none;stroke:#000000;stroke-linecap:round;stroke-linejoin:round;" d="M248.164,156.167c0,0,3-5.5,9.334-9"></path><path style="fill:none;stroke:#000000;stroke-linecap:round;stroke-linejoin:round;" d="M250.997,151.667c0,0-2.833-4-6.5-5.833"></path></g></g></g></g></g></svg>