<svg xmlns="http://www.w3.org/2000/svg" width="500" height="500" version="1.1"><g id="x003"><g><linearGradient id="hair1XMLID_2449_" gradientUnits="userSpaceOnUse" x1="250.0005" y1="215.667" x2="250.0005" y2="183.9999"><stop offset="0" style="stop-color:#FCFCE4"></stop><stop offset="0.5" style="stop-color:#A0C8DD"></stop><stop offset="1" style="stop-color:#5D6EC5"></stop></linearGradient><path style="fill:url(#hair1XMLID_2449_);stroke:#1E1E1E;stroke-linecap:round;stroke-linejoin:round;" d="M311.484,135.882c-17.021-17.418-41.603-23.852-61.484-20.131c-19.882-3.721-44.464,2.713-61.484,20.131c-13.061,13.365-22.283,30.165-22.283,51.08c0,24.372,15.268,44.372,25.934,48.538c-7.33-33.49-0.484-59.331,5.084-68.5c1.798-2.157,29.369-5.491,52.75-5.619c23.381,0.128,50.952,3.462,52.75,5.619c5.568,9.169,12.414,35.01,5.084,68.5c10.666-4.167,25.934-24.167,25.934-48.538C333.768,166.047,324.545,149.248,311.484,135.882z"></path><g><g><linearGradient id="hair1XMLID_2450_" gradientUnits="userSpaceOnUse" x1="299.6602" y1="214.832" x2="299.6602" y2="163.832"><stop offset="0" style="stop-color:#FCFCE4"></stop><stop offset="0.5" style="stop-color:#A0C8DD"></stop><stop offset="1" style="stop-color:#5D6EC5"></stop></linearGradient><path style="fill:url(#hair1XMLID_2450_);stroke:#1E1E1E;stroke-linecap:round;stroke-linejoin:round;" d="M303.121,160.771c0,0,12.518,49.137,0.928,84.835c-11.59,35.697-41.31,67.934-29.67,89.469c9.272,17.154,24.107-0.924,24.107-0.924s-14.372,7.879-14.372-6.953c0-14.834,70.465-97.354,31.989-170.135"></path><g><linearGradient id="hair1XMLID_2451_" gradientUnits="userSpaceOnUse" x1="252.1719" y1="214.832" x2="252.1719" y2="163.832"><stop offset="0" style="stop-color:#FCFCE4"></stop><stop offset="0.5" style="stop-color:#A0C8DD"></stop><stop offset="1" style="stop-color:#5D6EC5"></stop></linearGradient><path style="fill:url(#hair1XMLID_2451_);stroke:#1E1E1E;stroke-linecap:round;stroke-linejoin:round;" d="M192.818,161.697c-16.688,20.861-21.093,38.362-3.708,65.133c0.059-3.113,4.884-6.242,9.677-9.278c0.826-0.524,0.65-6.199,1.449-6.715c1.738,1.739,5.097,4.45,6.258,2.781c20.257-29.072,82.299-41.083,81.706-53.542c11.265,13.741,10.378,45.951,15.297,61.192c5.216,1.392,14.952-4.172,16.343,2.435c16.592-30.073-0.348-81.358-30.945-88.66"></path><linearGradient id="hair1XMLID_2452_" gradientUnits="userSpaceOnUse" x1="192.9585" y1="214.832" x2="192.9585" y2="163.832"><stop offset="0" style="stop-color:#FCFCE4"></stop><stop offset="0.5" style="stop-color:#A0C8DD"></stop><stop offset="1" style="stop-color:#5D6EC5"></stop></linearGradient><path style="fill:url(#hair1XMLID_2452_);stroke:#1E1E1E;stroke-linecap:round;stroke-linejoin:round;" d="M196.411,220.224c0,0-12.864-15.298-3.477-44.156"></path></g></g><g><linearGradient id="hair1XMLID_2453_" gradientUnits="userSpaceOnUse" x1="245.9175" y1="214.7725" x2="245.9175" y2="162.939"><stop offset="0" style="stop-color:#FCFCE4"></stop><stop offset="0.5" style="stop-color:#A0C8DD"></stop><stop offset="1" style="stop-color:#5D6EC5"></stop></linearGradient><path style="fill:url(#hair1XMLID_2453_);stroke:#1E1E1E;stroke-linecap:round;stroke-linejoin:round;" d="M287.504,156.293c-0.348,1.043,1.391,48.285-15.646,59.759c-3.129-1.391-1.738-5.216-1.738-5.216s-6.953,4.172-10.431,6.259c-5.562,1.391-11.819,0-11.819,0s9.734-19.818,9.734-29.901c-6.605,10.083-12.864,27.467-23.642,30.945c-3.477-0.696,0-7.302,0-7.302c-5.563,6.259-10.778,7.302-10.778,7.302s-15.646,0.347-16.689,0.347s-9.388-37.16,15.646-61.845"></path></g><linearGradient id="hair1XMLID_2454_" gradientUnits="userSpaceOnUse" x1="203.2344" y1="214.832" x2="203.2344" y2="163.832"><stop offset="0" style="stop-color:#FCFCE4"></stop><stop offset="0.5" style="stop-color:#A0C8DD"></stop><stop offset="1" style="stop-color:#5D6EC5"></stop></linearGradient><path style="fill:url(#hair1XMLID_2454_);stroke:#1E1E1E;stroke-linecap:round;stroke-linejoin:round;" d="M199.773,160.771c0,0-12.518,49.137-0.928,84.835c11.589,35.697,41.31,67.934,29.67,89.469c-9.272,17.154-24.107-0.924-24.107-0.924s14.372,7.879,14.372-6.953c0-14.834-70.465-97.354-31.987-170.135c0,0,4.403-10.2,17.615-20.63"></path></g></g><g><g><path style="fill:#FFF0DE;" d="M181.506,181.536c0,0,5.852-11.712,8.195-12.295c2.342-0.585-0.816,19.084-4.1,18.149C182.529,186.513,180.334,184.318,181.506,181.536z"></path><path style="fill:#FFF0DE;" d="M189.619,186.217c0,0,0.45-7.659,2.929-9.365c2.478-1.707,1.757,11.708,0,11.708C190.791,188.56,189.619,189.145,189.619,186.217z"></path><path style="fill:#FFF0DE;" d="M318.494,181.536c0,0-5.853-11.712-8.195-12.295c-2.343-0.585,0.816,19.084,4.1,18.149C317.471,186.513,319.665,184.318,318.494,181.536z"></path><path style="fill:#FFF0DE;" d="M310.381,186.217c0,0-0.451-7.659-2.93-9.365c-2.478-1.707-1.756,11.708,0,11.708C309.209,188.56,310.381,189.145,310.381,186.217z"></path></g><path style="fill:#FFF0DE;" d="M239.911,192.22c0,0,0-11.417,2.635-14.489c2.631-3.074,6.058,14.753,3.074,16.245C242.984,195.294,239.911,195.294,239.911,192.22z"></path><path style="fill:#FFF0DE;" d="M249.573,192.22c-1.761-2.196,0-10.1,0.876-11.417c0.879-1.317,4.391,10.098,2.635,12.294C250.82,195.926,251.328,194.415,249.573,192.22z"></path></g><g><path style="fill:none;stroke:#1E1E1E;stroke-linecap:round;stroke-linejoin:round;" d="M296.66,150.571c-1.854-2.781,29.786,19.586,20.051,69.653"></path></g></g></svg>