<svg xmlns="http://www.w3.org/2000/svg" width="500" height="500" version="1.1"><g id="x031"><g><linearGradient id="hair1XMLID_2645_" gradientUnits="userSpaceOnUse" x1="250.0005" y1="236" x2="250.0005" y2="155.667"><stop offset="0" style="stop-color:#FCFCE4"></stop><stop offset="0.5" style="stop-color:#A0C8DD"></stop><stop offset="1" style="stop-color:#5D6EC5"></stop></linearGradient><path style="fill:url(#hair1XMLID_2645_);stroke:#1E1E1E;stroke-linecap:round;stroke-linejoin:round;" d="M311.484,135.882c-17.021-17.418-41.603-23.852-61.484-20.131c-19.882-3.721-44.464,2.713-61.484,20.131c-13.061,13.365-22.283,30.165-22.283,51.08c0,24.372,15.268,44.372,25.934,48.538c-7.33-33.49-0.484-59.331,5.084-68.5c1.798-2.157,29.369-5.491,52.75-5.619c23.381,0.128,50.952,3.462,52.75,5.619c5.568,9.169,12.414,35.01,5.084,68.5c10.666-4.167,25.934-24.167,25.934-48.538C333.768,166.047,324.545,149.248,311.484,135.882z"></path><g><linearGradient id="hair1XMLID_2646_" gradientUnits="userSpaceOnUse" x1="313.4082" y1="236" x2="313.4082" y2="155.667"><stop offset="0" style="stop-color:#FCFCE4"></stop><stop offset="0.5" style="stop-color:#A0C8DD"></stop><stop offset="1" style="stop-color:#5D6EC5"></stop></linearGradient><path style="fill:url(#hair1XMLID_2646_);stroke:#1E1E1E;stroke-linecap:round;stroke-linejoin:round;" d="M311.677,220.779c0,0,3.573,34.841-14.74,49.135c18.76-6.254,39.754-20.547,30.82-82.188"></path><linearGradient id="hair1XMLID_2647_" gradientUnits="userSpaceOnUse" x1="311.4551" y1="236" x2="311.4551" y2="155.667"><stop offset="0" style="stop-color:#FCFCE4"></stop><stop offset="0.5" style="stop-color:#A0C8DD"></stop><stop offset="1" style="stop-color:#5D6EC5"></stop></linearGradient><path style="fill:url(#hair1XMLID_2647_);stroke:#1E1E1E;stroke-linecap:round;stroke-linejoin:round;" d="M302.968,176.561c0.893,1.34,15.633,38.414,1.785,71.02c15.635-17.42,15.188-37.967,15.188-37.967"></path><linearGradient id="hair1XMLID_2648_" gradientUnits="userSpaceOnUse" x1="298.6494" y1="236" x2="298.6494" y2="155.6672"><stop offset="0" style="stop-color:#FCFCE4"></stop><stop offset="0.5" style="stop-color:#A0C8DD"></stop><stop offset="1" style="stop-color:#5D6EC5"></stop></linearGradient><path style="fill:url(#hair1XMLID_2648_);stroke:#1E1E1E;stroke-linecap:round;stroke-linejoin:round;" d="M284.08,163.5c0,0,9.716,29.926,11.056,52.259c6.7-0.447,17.978,2.234,17.978,2.234s2.232-34.395-13.848-58.514"></path><linearGradient id="hair1XMLID_2649_" gradientUnits="userSpaceOnUse" x1="279.5469" y1="236" x2="279.5469" y2="155.6672"><stop offset="0" style="stop-color:#FCFCE4"></stop><stop offset="0.5" style="stop-color:#A0C8DD"></stop><stop offset="1" style="stop-color:#5D6EC5"></stop></linearGradient><path style="fill:url(#hair1XMLID_2649_);stroke:#1E1E1E;stroke-linecap:round;stroke-linejoin:round;" d="M283.202,159.927c0,0,20.547,43.773-6.7,59.407c5.806-33.5-5.807-56.28-8.04-57.174"></path><linearGradient id="hair1XMLID_2650_" gradientUnits="userSpaceOnUse" x1="186.1069" y1="236" x2="186.1069" y2="155.667"><stop offset="0" style="stop-color:#FCFCE4"></stop><stop offset="0.5" style="stop-color:#A0C8DD"></stop><stop offset="1" style="stop-color:#5D6EC5"></stop></linearGradient><path style="fill:url(#hair1XMLID_2650_);stroke:#1E1E1E;stroke-linecap:round;stroke-linejoin:round;" d="M187.838,220.779c0,0-3.573,34.841,14.74,49.135c-18.76-6.254-39.753-20.547-30.82-82.188"></path><linearGradient id="hair1XMLID_2651_" gradientUnits="userSpaceOnUse" x1="188.0601" y1="236" x2="188.0601" y2="155.667"><stop offset="0" style="stop-color:#FCFCE4"></stop><stop offset="0.5" style="stop-color:#A0C8DD"></stop><stop offset="1" style="stop-color:#5D6EC5"></stop></linearGradient><path style="fill:url(#hair1XMLID_2651_);stroke:#1E1E1E;stroke-linecap:round;stroke-linejoin:round;" d="M196.547,176.561c-0.894,1.34-15.632,38.414-1.786,71.02c-15.634-17.42-15.187-37.967-15.187-37.967"></path><linearGradient id="hair1XMLID_2652_" gradientUnits="userSpaceOnUse" x1="202.1416" y1="236" x2="202.1416" y2="155.6672"><stop offset="0" style="stop-color:#FCFCE4"></stop><stop offset="0.5" style="stop-color:#A0C8DD"></stop><stop offset="1" style="stop-color:#5D6EC5"></stop></linearGradient><path style="fill:url(#hair1XMLID_2652_);stroke:#1E1E1E;stroke-linecap:round;stroke-linejoin:round;" d="M217.667,160.667c0,0-10.846,35.1-12.186,57.433c-6.7-0.447-18.76,0.895-18.76,0.895s-2.233-34.395,13.847-58.514"></path><linearGradient id="hair1XMLID_2653_" gradientUnits="userSpaceOnUse" x1="219.605" y1="236" x2="219.605" y2="155.6669"><stop offset="0" style="stop-color:#FCFCE4"></stop><stop offset="0.5" style="stop-color:#A0C8DD"></stop><stop offset="1" style="stop-color:#5D6EC5"></stop></linearGradient><path style="fill:url(#hair1XMLID_2653_);stroke:#1E1E1E;stroke-linecap:round;stroke-linejoin:round;" d="M226.922,160.927c0,0-10.72,28.587-8.04,55.387c-8.487-10.72-8.934-37.521-0.447-58.066"></path><linearGradient id="hair1XMLID_2654_" gradientUnits="userSpaceOnUse" x1="248.5283" y1="236" x2="248.5283" y2="155.6673"><stop offset="0" style="stop-color:#FCFCE4"></stop><stop offset="0.5" style="stop-color:#A0C8DD"></stop><stop offset="1" style="stop-color:#5D6EC5"></stop></linearGradient><path style="fill:url(#hair1XMLID_2654_);stroke:#1E1E1E;stroke-linecap:round;stroke-linejoin:round;" d="M224.242,149.761c-0.391,3.903-12.954,40.2,9.826,67.446c0.893-0.285,1.936-0.52,3.094-0.707c0.695-0.111,1.05-5.02,1.819-5.1c1.279-0.135,3.033,4.582,4.466,4.524c1.442-0.058,2.943-0.081,4.47-0.075c1.622,0.008,4.169-7.195,5.805-7.13c1.2,0.048,1.497,7.351,2.664,7.421c4.355,0.266,8.371,0.676,11.183,1.066c20.1-31.268,0.447-66.056,0.447-68.34"></path><linearGradient id="hair1XMLID_2655_" gradientUnits="userSpaceOnUse" x1="217.0947" y1="162.7139" x2="217.0947" y2="162.7139"><stop offset="0" style="stop-color:#FCFCE4"></stop><stop offset="0.5" style="stop-color:#A0C8DD"></stop><stop offset="1" style="stop-color:#5D6EC5"></stop></linearGradient><path style="fill:url(#hair1XMLID_2655_);stroke:#1E1E1E;stroke-linecap:round;stroke-linejoin:round;" d="M217.095,162.714"></path></g></g><g><g><path style="fill:#FFF0DE;" d="M176.006,181.536c0,0,5.852-11.712,8.195-12.295c2.342-0.585-0.816,19.084-4.1,18.149C177.029,186.513,174.834,184.318,176.006,181.536z"></path><path style="fill:#FFF0DE;" d="M184.119,186.217c0,0,0.45-7.659,2.929-9.365c2.478-1.707,1.757,11.708,0,11.708C185.291,188.56,184.119,189.145,184.119,186.217z"></path><path style="fill:#FFF0DE;" d="M324.744,181.536c0,0-5.853-11.712-8.195-12.295c-2.343-0.585,0.816,19.084,4.1,18.149C323.721,186.513,325.915,184.318,324.744,181.536z"></path><path style="fill:#FFF0DE;" d="M316.631,186.217c0,0-0.451-7.659-2.93-9.365c-2.478-1.707-1.756,11.708,0,11.708C315.459,188.56,316.631,189.145,316.631,186.217z"></path></g><path style="fill:#FFF0DE;" d="M242.828,187.72c0,0,0-11.417,2.635-14.489c2.631-3.074,6.058,14.753,3.074,16.245C245.901,190.794,242.828,190.794,242.828,187.72z"></path><path style="fill:#FFF0DE;" d="M252.489,187.72c-1.761-2.196,0-10.1,0.876-11.417c0.879-1.317,4.391,10.098,2.635,12.294C253.736,191.426,254.244,189.915,252.489,187.72z"></path></g></g></svg>