<svg xmlns="http://www.w3.org/2000/svg" width="500" height="500" version="1.1"><g id="x064"><g><linearGradient id="hair1XMLID_2899_" gradientUnits="userSpaceOnUse" x1="250.0005" y1="226.667" x2="250.0005" y2="153.667"><stop offset="0" style="stop-color:#FCFCE4"></stop><stop offset="0.5" style="stop-color:#A0C8DD"></stop><stop offset="1" style="stop-color:#5D6EC5"></stop></linearGradient><path style="fill:url(#hair1XMLID_2899_);stroke:#1E1E1E;stroke-linecap:round;stroke-linejoin:round;" d="M311.484,135.882c-17.021-17.418-41.603-23.852-61.484-20.131c-19.882-3.721-44.464,2.713-61.484,20.131c-13.061,13.365-22.283,30.165-22.283,51.08c0,24.372,15.268,44.372,25.934,48.538c-7.33-33.49-0.484-59.331,5.084-68.5c1.798-2.157,29.369-5.491,52.75-5.619c23.381,0.128,50.952,3.462,52.75,5.619c5.568,9.169,12.414,35.01,5.084,68.5c10.666-4.167,25.934-24.167,25.934-48.538C333.768,166.047,324.545,149.248,311.484,135.882z"></path><g><linearGradient id="hair1XMLID_2900_" gradientUnits="userSpaceOnUse" x1="265.7334" y1="226.667" x2="265.7334" y2="153.667"><stop offset="0" style="stop-color:#FCFCE4"></stop><stop offset="0.5" style="stop-color:#A0C8DD"></stop><stop offset="1" style="stop-color:#5D6EC5"></stop></linearGradient><path style="fill:url(#hair1XMLID_2900_);stroke:#1E1E1E;stroke-linecap:round;stroke-linejoin:round;" d="M252.166,160.5c0,0,4.69,21.44,27.135,27.805c-5.024-12.73-5.694-27.47-5.694-27.47"></path><linearGradient id="hair1XMLID_2901_" gradientUnits="userSpaceOnUse" x1="238.9336" y1="226.667" x2="238.9336" y2="153.667"><stop offset="0" style="stop-color:#FCFCE4"></stop><stop offset="0.5" style="stop-color:#A0C8DD"></stop><stop offset="1" style="stop-color:#5D6EC5"></stop></linearGradient><path style="fill:url(#hair1XMLID_2901_);stroke:#1E1E1E;stroke-linecap:round;stroke-linejoin:round;" d="M252.501,160.5c0,0-4.69,21.44-27.135,27.805c5.025-12.73,5.695-27.47,5.695-27.47"></path><linearGradient id="hair1XMLID_2902_" gradientUnits="userSpaceOnUse" x1="223.0205" y1="226.667" x2="223.0205" y2="153.667"><stop offset="0" style="stop-color:#FCFCE4"></stop><stop offset="0.5" style="stop-color:#A0C8DD"></stop><stop offset="1" style="stop-color:#5D6EC5"></stop></linearGradient><path style="fill:url(#hair1XMLID_2902_);stroke:#1E1E1E;stroke-linecap:round;stroke-linejoin:round;" d="M244.125,156.145c0,0-3.015,36.516-42.21,47.57c6.03-15.41,9.715-46.23,9.715-46.23"></path><linearGradient id="hair1XMLID_2903_" gradientUnits="userSpaceOnUse" x1="204.6851" y1="226.667" x2="204.6851" y2="153.6673"><stop offset="0" style="stop-color:#FCFCE4"></stop><stop offset="0.5" style="stop-color:#A0C8DD"></stop><stop offset="1" style="stop-color:#5D6EC5"></stop></linearGradient><path style="fill:url(#hair1XMLID_2903_);stroke:#1E1E1E;stroke-linecap:round;stroke-linejoin:round;" d="M219.67,152.459c0,0-1.005,48.91-28.475,65.996c-4.355-22.78,1.34-54.605,10.05-65.661"></path><linearGradient id="hair1XMLID_2904_" gradientUnits="userSpaceOnUse" x1="190.9365" y1="226.667" x2="190.9365" y2="153.667"><stop offset="0" style="stop-color:#FCFCE4"></stop><stop offset="0.5" style="stop-color:#A0C8DD"></stop><stop offset="1" style="stop-color:#5D6EC5"></stop></linearGradient><path style="fill:url(#hair1XMLID_2904_);stroke:#1E1E1E;stroke-linecap:round;stroke-linejoin:round;" d="M211.184,144.419c-0.447,0.894-27.693,89.78-4.243,127.524c-7.37,1.115-34.84-11.279-36.181-51.479c-1.34-40.2,16.526-80.065,24.79-85.648"></path><g><linearGradient id="hair1XMLID_2905_" gradientUnits="userSpaceOnUse" x1="201.6489" y1="226.667" x2="201.6489" y2="153.667"><stop offset="0" style="stop-color:#FCFCE4"></stop><stop offset="0.5" style="stop-color:#A0C8DD"></stop><stop offset="1" style="stop-color:#5D6EC5"></stop></linearGradient><path style="fill:url(#hair1XMLID_2905_);stroke:#1E1E1E;stroke-linecap:round;stroke-linejoin:round;" d="M197.394,321.648c0,0-9.151,8.599-4.227,20.185c0.583-4.167,4.517-8.312,4.517-8.312s2.896,12.455-1.448,16.799c10.137-5.502,15.351-15.061,15.351-15.061s-1.738-11.584-8.399-15.641C200.291,319.91,197.394,321.648,197.394,321.648z"></path><g><g><linearGradient id="hair1XMLID_2906_" gradientUnits="userSpaceOnUse" x1="187.4229" y1="226.667" x2="187.4229" y2="153.667"><stop offset="0" style="stop-color:#FCFCE4"></stop><stop offset="0.5" style="stop-color:#A0C8DD"></stop><stop offset="1" style="stop-color:#5D6EC5"></stop></linearGradient><path style="fill:url(#hair1XMLID_2906_);stroke:#1E1E1E;stroke-linecap:round;stroke-linejoin:round;" d="M176.638,208.404c0,0,0.386,24.618-2.703,37.361c-3.089,12.744-7.748,19.533-7.53,21.434c1.158,10.135,23.267,15.35,25.391,16.508c5.02-0.58,15.832-7.145,15.832-7.145s3.282-10.232-3.281-22.977c-6.565-12.743-6.399-15.127-6.785-20.727"></path><linearGradient id="hair1XMLID_2907_" gradientUnits="userSpaceOnUse" x1="194.5903" y1="226.667" x2="194.5903" y2="153.667"><stop offset="0" style="stop-color:#FCFCE4"></stop><stop offset="0.5" style="stop-color:#A0C8DD"></stop><stop offset="1" style="stop-color:#5D6EC5"></stop></linearGradient><path style="fill:url(#hair1XMLID_2907_);stroke:#1E1E1E;stroke-linecap:round;stroke-linejoin:round;" d="M185.012,278.18c-0.262,1.02-4.097,10.563-4.285,14.137c-0.188,3.572,12.643,7.213,15.427,11.906c2.63,1.758,6.08,1.01,6.08,1.01s4.597-8.785,5.852-12.99c1.263-4.232-1.047-14.832-1.854-15.221"></path><linearGradient id="hair1XMLID_2908_" gradientUnits="userSpaceOnUse" x1="198.1616" y1="226.667" x2="198.1616" y2="153.6671"><stop offset="0" style="stop-color:#FCFCE4"></stop><stop offset="0.5" style="stop-color:#A0C8DD"></stop><stop offset="1" style="stop-color:#5D6EC5"></stop></linearGradient><path style="fill:url(#hair1XMLID_2908_);stroke:#1E1E1E;stroke-linecap:round;stroke-linejoin:round;" d="M192.333,300.666c-1.083,1.5-5.517,9.102-5.674,12.086c-0.156,2.986,10.564,6.027,12.892,9.951c2.197,1.467,5.08,0.842,5.08,0.842s3.842-7.34,4.89-10.855c1.056-3.535-4.015-12.365-4.688-12.689"></path></g><path style="fill:none;stroke:#1E1E1E;stroke-linecap:round;stroke-linejoin:round;" d="M182.564,276.061c0,0,9.595,5.738,11.75,10.174"></path><path style="fill:none;stroke:#1E1E1E;stroke-linecap:round;stroke-linejoin:round;" d="M206.281,277.309c0,0-6.502,7.904-7.225,11.904"></path><path style="fill:none;stroke:#1E1E1E;stroke-linecap:round;stroke-linejoin:round;" d="M192.618,300.614c2.809,1.815,5.833,4.34,7.183,7.376"></path></g></g><linearGradient id="hair1XMLID_2909_" gradientUnits="userSpaceOnUse" x1="280.9668" y1="226.667" x2="280.9668" y2="153.667"><stop offset="0" style="stop-color:#FCFCE4"></stop><stop offset="0.5" style="stop-color:#A0C8DD"></stop><stop offset="1" style="stop-color:#5D6EC5"></stop></linearGradient><path style="fill:url(#hair1XMLID_2909_);stroke:#1E1E1E;stroke-linecap:round;stroke-linejoin:round;" d="M259.862,156.145c0,0,3.015,36.516,42.21,47.57c-6.03-15.41-9.715-46.23-9.715-46.23"></path><linearGradient id="hair1XMLID_2910_" gradientUnits="userSpaceOnUse" x1="299.3027" y1="226.667" x2="299.3027" y2="153.6673"><stop offset="0" style="stop-color:#FCFCE4"></stop><stop offset="0.5" style="stop-color:#A0C8DD"></stop><stop offset="1" style="stop-color:#5D6EC5"></stop></linearGradient><path style="fill:url(#hair1XMLID_2910_);stroke:#1E1E1E;stroke-linecap:round;stroke-linejoin:round;" d="M284.317,152.459c0,0,1.005,48.91,28.475,65.996c4.355-22.78-1.34-54.605-10.05-65.661"></path><linearGradient id="hair1XMLID_2911_" gradientUnits="userSpaceOnUse" x1="309.9746" y1="226.667" x2="309.9746" y2="153.667"><stop offset="0" style="stop-color:#FCFCE4"></stop><stop offset="0.5" style="stop-color:#A0C8DD"></stop><stop offset="1" style="stop-color:#5D6EC5"></stop></linearGradient><path style="fill:url(#hair1XMLID_2911_);stroke:#1E1E1E;stroke-linecap:round;stroke-linejoin:round;" d="M292.804,144.419c0.447,0.894,28.037,90.45-3.117,143.045c2.826,0.428,11.39-3.016,17.755-14.406c0.226,3.779-1.675,17.086-6.365,27.137c18.425-9.381,18.276-27.008,18.89-34.783c-0.018,6.684-0.341,13.959-1.135,20.713c27.47-45.225-2.13-145.725-10.395-151.309"></path></g></g></g></svg>