<svg xmlns="http://www.w3.org/2000/svg" width="500" height="500" version="1.1"><g id="x081"><g><linearGradient id="hair1XMLID_3055_" gradientUnits="userSpaceOnUse" x1="250.0005" y1="233" x2="250.0005" y2="172.6665"><stop offset="0" style="stop-color:#FCFCE4"></stop><stop offset="0.5" style="stop-color:#A0C8DD"></stop><stop offset="1" style="stop-color:#5D6EC5"></stop></linearGradient><path style="fill:url(#hair1XMLID_3055_);stroke:#1E1E1E;stroke-linecap:round;stroke-linejoin:round;" d="M311.484,135.882c-17.021-17.418-41.603-23.852-61.484-20.131c-19.882-3.721-44.464,2.713-61.484,20.131c-13.061,13.365-22.283,30.165-22.283,51.08c0,24.372,15.268,44.372,25.934,48.538c-7.33-33.49-0.484-59.331,5.084-68.5c1.798-2.157,29.369-5.491,52.75-5.619c23.381,0.128,50.952,3.462,52.75,5.619c5.568,9.169,12.414,35.01,5.084,68.5c10.666-4.167,25.934-24.167,25.934-48.538C333.768,166.047,324.545,149.248,311.484,135.882z"></path><g><g><polyline style="fill:none;stroke:#1E1E1E;stroke-linecap:round;stroke-linejoin:round;" points="250.346,159.81 249.102,154.003 251.175,146.41 251.175,136.583 "></polyline><g><linearGradient id="hair1XMLID_3056_" gradientUnits="userSpaceOnUse" x1="215.6968" y1="233" x2="215.6968" y2="172.6665"><stop offset="0" style="stop-color:#FCFCE4"></stop><stop offset="0.5" style="stop-color:#A0C8DD"></stop><stop offset="1" style="stop-color:#5D6EC5"></stop></linearGradient><path style="fill:url(#hair1XMLID_3056_);stroke:#1E1E1E;stroke-linecap:round;stroke-linejoin:round;" d="M250.346,159.83l-1.244,8.467c0,0-47.93,9.465-51.012,69.232c-1.66,32.16,0.829,56.281,14.515,63.873c-19.077,1.787-32.349-22.779-31.52-67.893l0.415-51.813l12.027-23.674"></path><linearGradient id="hair1XMLID_3057_" gradientUnits="userSpaceOnUse" x1="190.9097" y1="233" x2="190.9097" y2="172.6665"><stop offset="0" style="stop-color:#FCFCE4"></stop><stop offset="0.5" style="stop-color:#A0C8DD"></stop><stop offset="1" style="stop-color:#5D6EC5"></stop></linearGradient><path style="fill:url(#hair1XMLID_3057_);stroke:#1E1E1E;stroke-linecap:round;stroke-linejoin:round;" d="M188.965,226.363c0,0-11.612,55.834,11.198,86.652c-22.811-7.592-33.179-43.773-31.104-97.818c2.072-54.047,29.86-72.584,43.961-75.71"></path></g><g><linearGradient id="hair1XMLID_3058_" gradientUnits="userSpaceOnUse" x1="284.3203" y1="233" x2="284.3203" y2="172.6665"><stop offset="0" style="stop-color:#FCFCE4"></stop><stop offset="0.5" style="stop-color:#A0C8DD"></stop><stop offset="1" style="stop-color:#5D6EC5"></stop></linearGradient><path style="fill:url(#hair1XMLID_3058_);stroke:#1E1E1E;stroke-linecap:round;stroke-linejoin:round;" d="M249.672,159.83l1.243,8.467c0,0,47.93,9.465,51.013,69.232c1.658,32.16-0.83,56.281-14.517,63.873c19.078,1.787,32.351-22.779,31.521-67.893l-0.415-51.813l-12.027-23.674"></path><linearGradient id="hair1XMLID_3059_" gradientUnits="userSpaceOnUse" x1="309.1074" y1="233" x2="309.1074" y2="172.6665"><stop offset="0" style="stop-color:#FCFCE4"></stop><stop offset="0.5" style="stop-color:#A0C8DD"></stop><stop offset="1" style="stop-color:#5D6EC5"></stop></linearGradient><path style="fill:url(#hair1XMLID_3059_);stroke:#1E1E1E;stroke-linecap:round;stroke-linejoin:round;" d="M311.051,226.363c0,0,11.613,55.834-11.197,86.652c22.811-7.592,33.178-43.773,31.105-97.818c-2.074-54.047-29.861-72.584-43.962-75.71"></path></g></g></g></g></g></svg>