<svg xmlns="http://www.w3.org/2000/svg" width="500" height="500" version="1.1"><g id="x083"><g><linearGradient id="hair1XMLID_3071_" gradientUnits="userSpaceOnUse" x1="250.0005" y1="230" x2="250.0005" y2="150.3335"><stop offset="0" style="stop-color:#FCFCE4"></stop><stop offset="0.5" style="stop-color:#A0C8DD"></stop><stop offset="1" style="stop-color:#5D6EC5"></stop></linearGradient><path style="fill:url(#hair1XMLID_3071_);stroke:#1E1E1E;stroke-linecap:round;stroke-linejoin:round;" d="M186.805,152.44c0.034,0,0.04-0.006,0.025-0.02C186.797,152.432,186.781,152.44,186.805,152.44z M313.168,152.424c-0.009,0.01-0.002,0.016,0.028,0.016C313.218,152.44,313.202,152.433,313.168,152.424z M325.032,108.443c-13.623-37.297-70.334-33.946-75.471-33.946c-5.136,0-60.97-3.351-74.594,33.946c-13.208,36.162,11.372,43.561,11.863,43.978c1.327-0.455,124.907-0.415,126.337,0.003C313.499,152.052,338.285,144.725,325.032,108.443z"></path><g><path style="fill:#FFBF00;stroke:#1E1E1E;stroke-linecap:round;stroke-linejoin:round;" d="M309.351,96.83c-10.014-11.532-47.459-12.719-59.965-12.719s-48.722,1.188-58.736,12.719c-11.055,12.73,0,35.51,0,35.51h118.701C309.351,132.34,320.405,109.56,309.351,96.83z"></path><g><path style="fill:#6E3300;stroke:#1E1E1E;stroke-linecap:round;stroke-linejoin:round;" d="M200.029,124.635c0,0-6.365-18.76-3.015-23.45c4.689-1.675,4.354-0.335,4.354-0.335l5.36,23.115L200.029,124.635z"></path><path style="fill:#6E3300;stroke:#1E1E1E;stroke-linecap:round;stroke-linejoin:round;" d="M213.68,119.773c0,0-4.647-19.258-0.888-23.626c4.822-1.245,4.367,0.059,4.367,0.059l3.253,23.504L213.68,119.773z"></path><path style="fill:#6E3300;stroke:#1E1E1E;stroke-linecap:round;stroke-linejoin:round;" d="M229.229,117.051c0,0-4.33-19.331-0.5-23.638c4.842-1.166,4.365,0.13,4.365,0.13l2.868,23.555L229.229,117.051z"></path><path style="fill:#6E3300;stroke:#1E1E1E;stroke-linecap:round;stroke-linejoin:round;" d="M245.925,116.595c0,0-1.676-24.12,0.335-24.79c2.01-0.67,7.035,0,7.035,0l-0.671,24.455L245.925,116.595z"></path><path style="fill:#6E3300;stroke:#1E1E1E;stroke-linecap:round;stroke-linejoin:round;" d="M299.309,124.635c0,0,6.365-18.76,3.015-23.45c-4.689-1.675-4.354-0.335-4.354-0.335l-5.36,23.115L299.309,124.635z"></path><path style="fill:#6E3300;stroke:#1E1E1E;stroke-linecap:round;stroke-linejoin:round;" d="M285.658,119.773c0,0,4.647-19.258,0.888-23.626c-4.822-1.245-4.367,0.059-4.367,0.059l-3.253,23.504L285.658,119.773z"></path><path style="fill:#6E3300;stroke:#1E1E1E;stroke-linecap:round;stroke-linejoin:round;" d="M269.439,117.051c0,0,4.33-19.331,0.5-23.638c-4.842-1.166-4.365,0.13-4.365,0.13l-2.868,23.555L269.439,117.051z"></path></g></g><g><rect x="267.501" y="128.733" style="fill:#FFBF00;stroke:#1E1E1E;stroke-linecap:round;stroke-linejoin:round;" width="68.77" height="7.353"></rect><g><circle style="fill:#DC3D85;stroke:#1E1E1E;stroke-linecap:round;stroke-linejoin:round;" cx="334.756" cy="132.842" r="15.354"></circle><circle style="fill:#FFCFE3;" cx="330.864" cy="125.346" r="3.676"></circle></g><path style="fill:#FFBF00;stroke:#1E1E1E;stroke-linecap:round;stroke-linejoin:round;" d="M363.519,124.552c-2.973,0-5.543,1.702-6.806,4.181h-12.226c0,0-2.018,1.009-2.018,4.037s2.018,3.316,2.018,3.316h12.465c1.332,2.241,3.77,3.748,6.566,3.748c4.221,0,7.642-3.42,7.642-7.641C371.16,127.973,367.739,124.552,363.519,124.552z"></path></g><g><g><g><path style="fill:#DC7ADC;stroke:#1E1E1E;stroke-linecap:round;stroke-linejoin:round;" d="M164.149,126.309c0,0-10.146,0.295-12.881-3.824c-1.625-2.447,2.564-10.181,6.403-10.017c3.839,0.164,8.539,11.201,8.539,11.201L164.149,126.309z"></path><path style="fill:#DC7ADC;stroke:#1E1E1E;stroke-linecap:round;stroke-linejoin:round;" d="M167.119,125.026c0,0,7.781-6.52,12.48-4.982c2.791,0.914,4.296,9.58,1.182,11.83c-3.116,2.251-13.644-3.498-13.644-3.498L167.119,125.026z"></path><path style="fill:#DC7ADC;stroke:#1E1E1E;stroke-linecap:round;stroke-linejoin:round;" d="M164.944,122.747c0,0-2.204-9.909,1.325-13.371c2.098-2.058,10.482,0.599,11.045,4.399c0.563,3.801-9.389,10.498-9.389,10.498L164.944,122.747z"></path><path style="fill:#DC7ADC;stroke:#1E1E1E;stroke-linecap:round;stroke-linejoin:round;" d="M167.643,125.873c0,0,8.529,5.504,8.451,10.446c-0.048,2.938-7.881,6.939-10.952,4.629c-3.07-2.309-0.694-14.067-0.694-14.067L167.643,125.873z"></path><path style="fill:#DC7ADC;stroke:#1E1E1E;stroke-linecap:round;stroke-linejoin:round;" d="M166.164,125.975c0,0-0.958,10.106-5.382,12.313c-2.63,1.312-9.787-3.8-9.152-7.589c0.636-3.79,12.167-7.095,12.167-7.095L166.164,125.975z"></path></g><circle style="fill:#DC7ADC;stroke:#1E1E1E;stroke-linecap:round;stroke-linejoin:round;" cx="165.818" cy="124.803" r="4.244"></circle></g><g><g><linearGradient id="hair1XMLID_3072_" gradientUnits="userSpaceOnUse" x1="177.5483" y1="230" x2="177.5483" y2="150.3335"><stop offset="0" style="stop-color:#FCFCE4"></stop><stop offset="0.5" style="stop-color:#A0C8DD"></stop><stop offset="1" style="stop-color:#5D6EC5"></stop></linearGradient><path style="fill:url(#hair1XMLID_3072_);stroke:#1E1E1E;stroke-linecap:round;stroke-linejoin:round;" d="M174.858,140.341c0,0-5.324-8.643-3.122-13.07c1.31-2.629,10.102-2.864,11.876,0.544c1.776,3.407-5.437,12.992-5.437,12.992L174.858,140.341z"></path><linearGradient id="hair1XMLID_3073_" gradientUnits="userSpaceOnUse" x1="181.3003" y1="230" x2="181.3003" y2="150.3335"><stop offset="0" style="stop-color:#FCFCE4"></stop><stop offset="0.5" style="stop-color:#A0C8DD"></stop><stop offset="1" style="stop-color:#5D6EC5"></stop></linearGradient><path style="fill:url(#hair1XMLID_3073_);stroke:#1E1E1E;stroke-linecap:round;stroke-linejoin:round;" d="M177.453,142.273c0,0,9.534,3.484,10.549,8.323c0.604,2.875-6.152,8.508-9.657,6.933c-3.505-1.574-3.784-13.566-3.784-13.566L177.453,142.273z"></path><linearGradient id="hair1XMLID_3074_" gradientUnits="userSpaceOnUse" x1="186.0835" y1="230" x2="186.0835" y2="150.3335"><stop offset="0" style="stop-color:#FCFCE4"></stop><stop offset="0.5" style="stop-color:#A0C8DD"></stop><stop offset="1" style="stop-color:#5D6EC5"></stop></linearGradient><path style="fill:url(#hair1XMLID_3074_);stroke:#1E1E1E;stroke-linecap:round;stroke-linejoin:round;" d="M178.342,139.25c0,0,7.482-6.859,12.245-5.531c2.83,0.789,4.718,9.379,1.707,11.766c-3.013,2.386-13.785-2.89-13.785-2.89L178.342,139.25z"></path><linearGradient id="hair1XMLID_3075_" gradientUnits="userSpaceOnUse" x1="169.8164" y1="230" x2="169.8164" y2="150.3335"><stop offset="0" style="stop-color:#FCFCE4"></stop><stop offset="0.5" style="stop-color:#A0C8DD"></stop><stop offset="1" style="stop-color:#5D6EC5"></stop></linearGradient><path style="fill:url(#hair1XMLID_3075_);stroke:#1E1E1E;stroke-linecap:round;stroke-linejoin:round;" d="M176.981,143.149c0,0-0.507,10.139-4.828,12.539c-2.568,1.427-9.948-3.36-9.48-7.174c0.466-3.814,11.839-7.629,11.839-7.629L176.981,143.149z"></path><linearGradient id="hair1XMLID_3076_" gradientUnits="userSpaceOnUse" x1="169.2168" y1="230" x2="169.2168" y2="150.3335"><stop offset="0" style="stop-color:#FCFCE4"></stop><stop offset="0.5" style="stop-color:#A0C8DD"></stop><stop offset="1" style="stop-color:#5D6EC5"></stop></linearGradient><path style="fill:url(#hair1XMLID_3076_);stroke:#1E1E1E;stroke-linecap:round;stroke-linejoin:round;" d="M176.153,141.919c0,0-9.232,4.218-13.353,1.488c-2.45-1.622-1.599-10.377,2.002-11.719c3.601-1.342,12.224,6.996,12.224,6.996L176.153,141.919z"></path></g><linearGradient id="hair1XMLID_3077_" gradientUnits="userSpaceOnUse" x1="176.9971" y1="230" x2="176.9971" y2="150.3335"><stop offset="0" style="stop-color:#FCFCE4"></stop><stop offset="0.5" style="stop-color:#A0C8DD"></stop><stop offset="1" style="stop-color:#5D6EC5"></stop></linearGradient><circle style="fill:url(#hair1XMLID_3077_);stroke:#1E1E1E;stroke-linecap:round;stroke-linejoin:round;" cx="176.997" cy="141.035" r="4.244"></circle></g><g><g><path style="fill:#DC3D85;stroke:#1E1E1E;stroke-linecap:round;stroke-linejoin:round;" d="M185.791,114.576c0,0-5.324-8.643-3.122-13.069c1.309-2.63,10.102-2.864,11.876,0.544c1.776,3.407-5.437,12.993-5.437,12.993L185.791,114.576z"></path><path style="fill:#DC3D85;stroke:#1E1E1E;stroke-linecap:round;stroke-linejoin:round;" d="M188.387,116.508c0,0,9.534,3.484,10.548,8.322c0.604,2.875-6.152,8.508-9.657,6.933c-3.506-1.574-3.784-13.566-3.784-13.566L188.387,116.508z"></path><path style="fill:#DC3D85;stroke:#1E1E1E;stroke-linecap:round;stroke-linejoin:round;" d="M189.273,113.485c0,0,7.484-6.858,12.246-5.53c2.83,0.789,4.718,9.379,1.706,11.766c-3.012,2.385-13.784-2.89-13.784-2.89L189.273,113.485z"></path><path style="fill:#DC3D85;stroke:#1E1E1E;stroke-linecap:round;stroke-linejoin:round;" d="M187.914,117.385c0,0-0.508,10.138-4.829,12.539c-2.567,1.427-9.947-3.36-9.48-7.174c0.467-3.814,11.84-7.628,11.84-7.628L187.914,117.385z"></path><path style="fill:#DC3D85;stroke:#1E1E1E;stroke-linecap:round;stroke-linejoin:round;" d="M187.086,116.155c0,0-9.232,4.218-13.354,1.488c-2.449-1.623-1.598-10.378,2.003-11.72c3.6-1.342,12.224,6.996,12.224,6.996L187.086,116.155z"></path></g><circle style="fill:#DC3D85;stroke:#1E1E1E;stroke-linecap:round;stroke-linejoin:round;" cx="187.929" cy="115.27" r="4.243"></circle></g></g><g><g><linearGradient id="hair1XMLID_3078_" gradientUnits="userSpaceOnUse" x1="250.0005" y1="230" x2="250.0005" y2="150.3335"><stop offset="0" style="stop-color:#FCFCE4"></stop><stop offset="0.5" style="stop-color:#A0C8DD"></stop><stop offset="1" style="stop-color:#5D6EC5"></stop></linearGradient><path style="fill:url(#hair1XMLID_3078_);stroke:#1E1E1E;stroke-linecap:round;stroke-linejoin:round;" d="M329.946,145.293c-17.418-23.223-41.535-30.594-79.938-30.597l0,0c-0.003,0-0.006,0-0.009,0s-0.005,0-0.008,0l0,0c-38.403,0.002-62.52,7.374-79.937,30.597c-14.448,19.263-19.654,44.891-14.74,67.447c2.68,6.477,27.693,14.516,35.063,15.856c-4.468-29.033,8.486-61.64,8.486-61.64s2.647,21.217,51.797,21.217s50.474-21.217,50.474-21.217s12.953,32.607,8.486,61.64c7.37-1.341,32.384-9.38,35.063-15.856C349.599,190.184,344.393,164.556,329.946,145.293z"></path></g></g><g><path style="fill:#FFBF00;stroke:#1E1E1E;stroke-linecap:round;stroke-linejoin:round;" d="M154.272,181.473c0,0-3.35,31.938-2.01,33.277s6.477,0.67,6.477,0.67v-35.287L154.272,181.473z"></path><path style="fill:#FFBF00;stroke:#1E1E1E;stroke-linecap:round;stroke-linejoin:round;" d="M182.636,174.996c0,0-3.35,31.938-2.01,33.277s6.477,0.67,6.477,0.67v-35.287L182.636,174.996z"></path><path style="fill:#FFBF00;stroke:#1E1E1E;stroke-linecap:round;stroke-linejoin:round;" d="M182.636,173.992c0,0-3.35,31.936-2.01,33.275s6.477,0.671,6.477,0.671v-35.287L182.636,173.992z"></path><path style="fill:#FFBF00;stroke:#1E1E1E;stroke-linecap:round;stroke-linejoin:round;" d="M160.749,181.026c0,0,2.903,33.276,4.243,33.724c1.341,0.446,5.137-1.117,5.137-1.117l-4.244-34.17L160.749,181.026z"></path><path style="fill:#FFBF00;stroke:#1E1E1E;stroke-linecap:round;stroke-linejoin:round;" d="M173.821,178.357c0,0-0.985,33.389,0.295,33.987c1.278,0.6,5.231-0.512,5.231-0.512l-0.242-34.432L173.821,178.357z"></path><path style="fill:#FFBF00;stroke:#1E1E1E;stroke-linecap:round;stroke-linejoin:round;" d="M167.122,179.027c0,0-0.985,33.389,0.294,33.987c1.278,0.6,5.231-0.512,5.231-0.512l-0.242-34.432L167.122,179.027z"></path><path style="fill:#FFBF00;stroke:#1E1E1E;stroke-linecap:round;stroke-linejoin:round;" d="M190.898,175.666c-10.496,2.234-42.21,8.04-42.21,8.04s-1.563-4.689-0.446-6.253s38.86-8.711,41.986-7.816C193.355,170.529,190.898,175.666,190.898,175.666z"></path></g><g><g><linearGradient id="hair1XMLID_3079_" gradientUnits="userSpaceOnUse" x1="340.6719" y1="230" x2="340.6719" y2="150.3335"><stop offset="0" style="stop-color:#FCFCE4"></stop><stop offset="0.5" style="stop-color:#A0C8DD"></stop><stop offset="1" style="stop-color:#5D6EC5"></stop></linearGradient><path style="fill:url(#hair1XMLID_3079_);stroke:#1E1E1E;stroke-linecap:round;stroke-linejoin:round;" d="M341.014,173.545c0,0-10.759,7.269-7.561,12.211c3.198,4.943,6.688,0.873,6.688,0.873s3.779,3.197,7.56-0.582C351.361,182.387,341.014,173.545,341.014,173.545z"></path><path style="fill:#DC3D85;stroke:#1E1E1E;stroke-linecap:round;stroke-linejoin:round;" d="M341.014,186.047c0,0-10.759,7.27-7.561,12.212c3.198,4.943,6.688,0.872,6.688,0.872s3.779,3.199,7.56-0.581C351.361,194.889,341.014,186.047,341.014,186.047z"></path><path style="fill:#FFD1F0;stroke:#1E1E1E;stroke-linecap:round;stroke-linejoin:round;" d="M341.014,198.55c0,0-10.759,7.269-7.561,12.212c3.198,4.942,6.688,0.872,6.688,0.872s3.779,3.198,7.56-0.581C351.361,207.392,341.014,198.55,341.014,198.55z"></path><path style="fill:#DC3D85;stroke:#1E1E1E;stroke-linecap:round;stroke-linejoin:round;" d="M341.014,211.053c0,0-10.759,7.269-7.561,12.211c3.198,4.943,6.688,0.873,6.688,0.873s3.779,3.197,7.56-0.582C351.361,219.895,341.014,211.053,341.014,211.053z"></path></g><g><path style="fill:#FFD1F0;stroke:#1E1E1E;stroke-linecap:round;stroke-linejoin:round;" d="M327.514,180.58c0,0-12.395,8.375-8.71,14.07c3.686,5.694,7.705,1.004,7.705,1.004s4.355,3.686,8.71-0.67C339.437,190.768,327.514,180.58,327.514,180.58z"></path><path style="fill:#DC3D85;stroke:#1E1E1E;stroke-linecap:round;stroke-linejoin:round;" d="M327.514,194.984c0,0-12.395,8.375-8.71,14.07c3.686,5.695,7.705,1.005,7.705,1.005s4.355,3.685,8.71-0.67C339.437,205.172,327.514,194.984,327.514,194.984z"></path><path style="fill:#FFD1F0;stroke:#1E1E1E;stroke-linecap:round;stroke-linejoin:round;" d="M327.514,209.39c0,0-12.395,8.375-8.71,14.069c3.686,5.695,7.705,1.006,7.705,1.006s4.355,3.686,8.71-0.67C339.437,219.577,327.514,209.39,327.514,209.39z"></path><path style="fill:#DC3D85;stroke:#1E1E1E;stroke-linecap:round;stroke-linejoin:round;" d="M327.514,223.795c0,0-12.395,8.375-8.71,14.07c3.686,5.694,7.705,1.004,7.705,1.004s4.355,3.686,8.71-0.67C339.437,233.982,327.514,223.795,327.514,223.795z"></path></g><g><g><g><path style="fill:#DC7ADC;stroke:#1E1E1E;stroke-linecap:round;stroke-linejoin:round;" d="M326.418,155.437c0,0-4.887-8.897-2.466-13.208c1.438-2.561,10.23-2.356,11.834,1.136c1.604,3.491-6.078,12.705-6.078,12.705L326.418,155.437z"></path><path style="fill:#DC7ADC;stroke:#1E1E1E;stroke-linecap:round;stroke-linejoin:round;" d="M328.913,157.496c0,0,9.35,3.956,10.122,8.838c0.458,2.901-6.57,8.189-9.992,6.443c-3.423-1.748-3.104-13.739-3.104-13.739L328.913,157.496z"></path><path style="fill:#DC7ADC;stroke:#1E1E1E;stroke-linecap:round;stroke-linejoin:round;" d="M329.951,154.521c0,0,7.816-6.477,12.506-4.913c2.788,0.929,4.244,9.603,1.118,11.836c-3.128,2.233-13.624-3.573-13.624-3.573V154.521z"></path><path style="fill:#DC7ADC;stroke:#1E1E1E;stroke-linecap:round;stroke-linejoin:round;" d="M328.398,158.347c0,0-1.012,10.101-5.447,12.284c-2.637,1.296-9.768-3.853-9.111-7.639s12.205-7.029,12.205-7.029L328.398,158.347z"></path><path style="fill:#DC7ADC;stroke:#1E1E1E;stroke-linecap:round;stroke-linejoin:round;" d="M327.634,157.078c0,0-9.433,3.753-13.412,0.82c-2.365-1.743-1.078-10.444,2.585-11.604c3.662-1.161,11.859,7.597,11.859,7.597L327.634,157.078z"></path></g><circle style="fill:#DC7ADC;stroke:#1E1E1E;stroke-linecap:round;stroke-linejoin:round;" cx="328.519" cy="156.236" r="4.244"></circle></g><g><g><path style="fill:#FFD1F0;stroke:#1E1E1E;stroke-linecap:round;stroke-linejoin:round;" d="M317.601,176.511c0,0,5.268-8.677,10.211-8.733c2.938-0.034,7.152,7.686,4.928,10.818c-2.224,3.133-14.043,1.081-14.043,1.081L317.601,176.511z"></path><path style="fill:#FFD1F0;stroke:#1E1E1E;stroke-linecap:round;stroke-linejoin:round;" d="M317.063,179.701c0,0,1.244,10.075-2.601,13.184c-2.284,1.846-10.377-1.601-10.572-5.438c-0.196-3.838,10.351-9.551,10.351-9.551L317.063,179.701z"></path><path style="fill:#FFD1F0;stroke:#1E1E1E;stroke-linecap:round;stroke-linejoin:round;" d="M320.159,179.114c0,0,9.516,3.536,10.503,8.38c0.588,2.879-6.198,8.473-9.695,6.881c-3.496-1.594-3.71-13.588-3.71-13.588L320.159,179.114z"></path><path style="fill:#FFD1F0;stroke:#1E1E1E;stroke-linecap:round;stroke-linejoin:round;" d="M316.068,179.681c0,0-9.256,4.169-13.361,1.417c-2.44-1.637-1.542-10.387,2.065-11.709s12.186,7.063,12.186,7.063L316.068,179.681z"></path><path style="fill:#FFD1F0;stroke:#1E1E1E;stroke-linecap:round;stroke-linejoin:round;" d="M316.786,178.384c0,0-7.962-6.296-7.41-11.208c0.328-2.92,8.51-6.152,11.345-3.559c2.835,2.593-0.657,14.068-0.657,14.068L316.786,178.384z"></path></g><circle style="fill:#FFD1F0;stroke:#1E1E1E;stroke-linecap:round;stroke-linejoin:round;" cx="317.958" cy="178.73" r="4.243"></circle></g><g><g><path style="fill:#DC3D85;stroke:#1E1E1E;stroke-linecap:round;stroke-linejoin:round;" d="M345.517,174.501c0,0,5.268-8.678,10.211-8.734c2.938-0.034,7.152,7.687,4.928,10.819c-2.224,3.133-14.043,1.08-14.043,1.08L345.517,174.501z"></path><path style="fill:#DC3D85;stroke:#1E1E1E;stroke-linecap:round;stroke-linejoin:round;" d="M344.979,177.691c0,0,1.244,10.075-2.601,13.184c-2.284,1.846-10.377-1.601-10.572-5.438c-0.196-3.838,10.351-9.551,10.351-9.551L344.979,177.691z"></path><path style="fill:#DC3D85;stroke:#1E1E1E;stroke-linecap:round;stroke-linejoin:round;" d="M348.075,177.104c0,0,9.516,3.536,10.504,8.38c0.587,2.879-6.199,8.473-9.696,6.881c-3.496-1.594-3.71-13.588-3.71-13.588L348.075,177.104z"></path><path style="fill:#DC3D85;stroke:#1E1E1E;stroke-linecap:round;stroke-linejoin:round;" d="M343.984,177.67c0,0-9.256,4.17-13.361,1.418c-2.44-1.637-1.542-10.387,2.065-11.709c3.608-1.323,12.186,7.063,12.186,7.063L343.984,177.67z"></path><path style="fill:#DC3D85;stroke:#1E1E1E;stroke-linecap:round;stroke-linejoin:round;" d="M344.702,176.374c0,0-7.962-6.297-7.41-11.208c0.328-2.92,8.51-6.151,11.345-3.559c2.835,2.593-0.657,14.069-0.657,14.069L344.702,176.374z"></path></g><circle style="fill:#DC3D85;stroke:#1E1E1E;stroke-linecap:round;stroke-linejoin:round;" cx="345.874" cy="176.721" r="4.243"></circle></g></g></g><g><linearGradient id="hair1XMLID_3080_" gradientUnits="userSpaceOnUse" x1="250.0005" y1="230" x2="250.0005" y2="150.3335"><stop offset="0" style="stop-color:#FCFCE4"></stop><stop offset="0.5" style="stop-color:#A0C8DD"></stop><stop offset="1" style="stop-color:#5D6EC5"></stop></linearGradient><path style="fill:url(#hair1XMLID_3080_);stroke:#1E1E1E;stroke-linecap:round;stroke-linejoin:round;" d="M189.589,139.715c-0.67,1.005-21.44,35.175-6.365,73.699c12.061-0.67,30.15-1.004,30.15-1.004s-3.016-24.455,4.02-42.211c-1.34,11.726,0,37.855,5.36,42.881c8.945,1.248,45.545,1.248,54.492,0c5.36-5.025,6.7-31.155,5.36-42.881c7.034,17.756,4.02,42.211,4.02,42.211s18.09,0.334,30.15,1.004c15.074-38.524-5.695-72.694-6.365-73.699"></path></g></g></g></svg>