<svg xmlns="http://www.w3.org/2000/svg" width="500" height="500" version="1.1"><g id="x084"><g><linearGradient id="hair1XMLID_3081_" gradientUnits="userSpaceOnUse" x1="250.0005" y1="220.6665" x2="250.0005" y2="163.6665"><stop offset="0" style="stop-color:#FCFCE4"></stop><stop offset="0.5" style="stop-color:#A0C8DD"></stop><stop offset="1" style="stop-color:#5D6EC5"></stop></linearGradient><path style="fill:url(#hair1XMLID_3081_);stroke:#1E1E1E;stroke-linecap:round;stroke-linejoin:round;" d="M311.484,135.882c-17.021-17.418-41.603-23.852-61.484-20.131c-19.882-3.721-44.464,2.713-61.484,20.131c-13.061,13.365-22.283,30.165-22.283,51.08c0,24.372,15.268,44.372,25.934,48.538c-7.33-33.49-0.484-59.331,5.084-68.5c1.798-2.157,29.369-5.491,52.75-5.619c23.381,0.128,50.952,3.462,52.75,5.619c5.568,9.169,12.414,35.01,5.084,68.5c10.666-4.167,25.934-24.167,25.934-48.538C333.768,166.047,324.545,149.248,311.484,135.882z"></path><g><g><linearGradient id="hair1XMLID_3082_" gradientUnits="userSpaceOnUse" x1="305.5957" y1="220.6665" x2="305.5957" y2="163.6665"><stop offset="0" style="stop-color:#FCFCE4"></stop><stop offset="0.5" style="stop-color:#A0C8DD"></stop><stop offset="1" style="stop-color:#5D6EC5"></stop></linearGradient><path style="fill:url(#hair1XMLID_3082_);stroke:#1E1E1E;stroke-linecap:round;stroke-linejoin:round;" d="M305.956,255.844c0,0,1.786,16.525-7.594,26.799s-16.974,32.162-4.021,46.455c-2.232-10.721,0-28.588,13.848-37.967c9.133-6.188,17.42-18.314,15.187-48.688"></path><linearGradient id="hair1XMLID_3083_" gradientUnits="userSpaceOnUse" x1="334.041" y1="220.6665" x2="334.041" y2="163.6665"><stop offset="0" style="stop-color:#FCFCE4"></stop><stop offset="0.5" style="stop-color:#A0C8DD"></stop><stop offset="1" style="stop-color:#5D6EC5"></stop></linearGradient><path style="fill:url(#hair1XMLID_3083_);stroke:#1E1E1E;stroke-linecap:round;stroke-linejoin:round;" d="M328.193,178.123c0,0,15.186,16.527,13.846,34.394s-14.74,24.567-14.74,24.567v-12.061c0,0,5.808-1.787,5.808-13.4s-7.147-19.652-7.147-19.652"></path><g><linearGradient id="hair1XMLID_3084_" gradientUnits="userSpaceOnUse" x1="322.2861" y1="220.6665" x2="322.2861" y2="163.6665"><stop offset="0" style="stop-color:#FCFCE4"></stop><stop offset="0.5" style="stop-color:#A0C8DD"></stop><stop offset="1" style="stop-color:#5D6EC5"></stop></linearGradient><path style="fill:url(#hair1XMLID_3084_);stroke:#1E1E1E;stroke-linecap:round;stroke-linejoin:round;" d="M322.588,203.137c0.446,1.34,0.893,17.867,12.507,32.607c10.766,13.664,8.933,30.819-12.507,44.219c-21.44,13.4-6.254,26.799-4.467,28.586c-10.721-4.912-19.653-20.545-12.507-33.945s10.72-31.267,8.934-48.24"></path><linearGradient id="hair1XMLID_3085_" gradientUnits="userSpaceOnUse" x1="323.6348" y1="220.6665" x2="323.6348" y2="163.6666"><stop offset="0" style="stop-color:#FCFCE4"></stop><stop offset="0.5" style="stop-color:#A0C8DD"></stop><stop offset="1" style="stop-color:#5D6EC5"></stop></linearGradient><path style="fill:url(#hair1XMLID_3085_);stroke:#1E1E1E;stroke-linecap:round;stroke-linejoin:round;" d="M327.725,252.047c0,0,7.593,12.953-9.827,30.373"></path></g><linearGradient id="hair1XMLID_3086_" gradientUnits="userSpaceOnUse" x1="309.5889" y1="220.6665" x2="309.5889" y2="163.6665"><stop offset="0" style="stop-color:#FCFCE4"></stop><stop offset="0.5" style="stop-color:#A0C8DD"></stop><stop offset="1" style="stop-color:#5D6EC5"></stop></linearGradient><path style="fill:url(#hair1XMLID_3086_);stroke:#1E1E1E;stroke-linecap:round;stroke-linejoin:round;" d="M308.093,216.983c-0.952,2.376,1.609,17.271-6.7,35.733c-8.04,17.867-13.399,43.326,6.7,54.047c-4.913-16.975-0.078-42.187,5.807-51.367c11.167-17.42,14.294-33.5,7.594-55.833"></path></g><linearGradient id="hair1XMLID_3087_" gradientUnits="userSpaceOnUse" x1="300.4512" y1="220.6665" x2="300.4512" y2="163.6665"><stop offset="0" style="stop-color:#FCFCE4"></stop><stop offset="0.5" style="stop-color:#A0C8DD"></stop><stop offset="1" style="stop-color:#5D6EC5"></stop></linearGradient><path style="fill:url(#hair1XMLID_3087_);stroke:#1E1E1E;stroke-linecap:round;stroke-linejoin:round;" d="M299.159,141.943c38.414,38.859,8.934,76.826,8.934,76.826s-4.02-5.359-4.913-8.934c-0.895-3.572,3.573-10.272,3.573-10.272s-3.573-2.681-4.914-8.487c-1.34-5.807,1.341-11.166,1.341-11.166s-2.233-0.894-7.594-3.574c-5.359-2.68-7.146-8.486-7.146-8.486L282,163"></path><g><linearGradient id="hair1XMLID_3088_" gradientUnits="userSpaceOnUse" x1="234.1704" y1="220.6665" x2="234.1704" y2="163.6665"><stop offset="0" style="stop-color:#FCFCE4"></stop><stop offset="0.5" style="stop-color:#A0C8DD"></stop><stop offset="1" style="stop-color:#5D6EC5"></stop></linearGradient><path style="fill:url(#hair1XMLID_3088_);stroke:#1E1E1E;stroke-linecap:round;stroke-linejoin:round;" d="M187.493,207.156c0,0,4.02,0,5.807-10.72c7.146-4.913,7.146-11.613,5.36-18.313c2.68-1.34,8.04-0.894,10.72-11.613c0,0,2.68,5.807,12.953,4.914c10.273-0.895,13.847-4.021,13.847-4.021s7.594,5.807,15.633,4.913c8.04-0.893,15.188-4.467,15.188-4.467s2.233,4.02,8.933,4.914c6.7,0.893,13.4-3.574,13.4-3.574s-3.574-39.306-46.007-40.646c-38.905-1.229-54.493,18.313-64.319,37.52"></path><linearGradient id="hair1XMLID_3089_" gradientUnits="userSpaceOnUse" x1="229.9263" y1="220.6665" x2="229.9263" y2="163.6665"><stop offset="0" style="stop-color:#FCFCE4"></stop><stop offset="0.5" style="stop-color:#A0C8DD"></stop><stop offset="1" style="stop-color:#5D6EC5"></stop></linearGradient><path style="fill:url(#hair1XMLID_3089_);stroke:#1E1E1E;stroke-linecap:round;stroke-linejoin:round;" d="M223.673,155.343c0,0,10.272,2.68,12.507,10.72"></path><linearGradient id="hair1XMLID_3090_" gradientUnits="userSpaceOnUse" x1="260.5234" y1="220.6665" x2="260.5234" y2="163.6666"><stop offset="0" style="stop-color:#FCFCE4"></stop><stop offset="0.5" style="stop-color:#A0C8DD"></stop><stop offset="1" style="stop-color:#5D6EC5"></stop></linearGradient><path style="fill:url(#hair1XMLID_3090_);stroke:#1E1E1E;stroke-linecap:round;stroke-linejoin:round;" d="M254.046,153.557c0,0,11.614,2.679,12.954,14.293"></path></g><g><linearGradient id="hair1XMLID_3091_" gradientUnits="userSpaceOnUse" x1="171.5093" y1="220.6665" x2="171.5093" y2="163.6665"><stop offset="0" style="stop-color:#FCFCE4"></stop><stop offset="0.5" style="stop-color:#A0C8DD"></stop><stop offset="1" style="stop-color:#5D6EC5"></stop></linearGradient><path style="fill:url(#hair1XMLID_3091_);stroke:#1E1E1E;stroke-linecap:round;stroke-linejoin:round;" d="M178.433,173.21c0,0-16.08,23.673-16.08,38.413s16.08,22.78,16.08,22.78l-0.894-10.72c0,0-7.146-6.254-6.253-16.08c0.607-6.688,9.38-21.439,9.38-21.439"></path><linearGradient id="hair1XMLID_3092_" gradientUnits="userSpaceOnUse" x1="188.1143" y1="220.6665" x2="188.1143" y2="163.6665"><stop offset="0" style="stop-color:#FCFCE4"></stop><stop offset="0.5" style="stop-color:#A0C8DD"></stop><stop offset="1" style="stop-color:#5D6EC5"></stop></linearGradient><path style="fill:url(#hair1XMLID_3092_);stroke:#1E1E1E;stroke-linecap:round;stroke-linejoin:round;" d="M193.664,181.697c0,0-5.807,46.006,1.786,62.532c7.594,16.526,4.913,27.694-1.786,42.88c0-27.246-4.015-29.494-8.934-37.967c-8.04-13.846-10.72-39.753-6.7-65.66"></path><linearGradient id="hair1XMLID_3093_" gradientUnits="userSpaceOnUse" x1="192.6836" y1="220.6665" x2="192.6836" y2="163.6665"><stop offset="0" style="stop-color:#FCFCE4"></stop><stop offset="0.5" style="stop-color:#A0C8DD"></stop><stop offset="1" style="stop-color:#5D6EC5"></stop></linearGradient><path style="fill:url(#hair1XMLID_3093_);stroke:#1E1E1E;stroke-linecap:round;stroke-linejoin:round;" d="M192.323,255.844c0,0-1.786,16.525,7.594,26.799s16.973,32.162,4.02,46.455c2.233-10.721,0-28.588-13.847-37.967c-9.134-6.188-17.42-18.314-15.187-48.688"></path><g><linearGradient id="hair1XMLID_3094_" gradientUnits="userSpaceOnUse" x1="180.1177" y1="220.6665" x2="180.1177" y2="163.6665"><stop offset="0" style="stop-color:#FCFCE4"></stop><stop offset="0.5" style="stop-color:#A0C8DD"></stop><stop offset="1" style="stop-color:#5D6EC5"></stop></linearGradient><path style="fill:url(#hair1XMLID_3094_);stroke:#1E1E1E;stroke-linecap:round;stroke-linejoin:round;" d="M179.816,203.137c-0.446,1.34-0.893,17.867-12.507,32.607c-10.766,13.664-8.933,30.819,12.507,44.219c21.44,13.4,6.254,26.799,4.467,28.586c10.721-4.912,19.653-20.545,12.507-33.945s-10.72-31.267-8.934-48.24"></path><linearGradient id="hair1XMLID_3095_" gradientUnits="userSpaceOnUse" x1="178.77" y1="220.6665" x2="178.77" y2="163.6666"><stop offset="0" style="stop-color:#FCFCE4"></stop><stop offset="0.5" style="stop-color:#A0C8DD"></stop><stop offset="1" style="stop-color:#5D6EC5"></stop></linearGradient><path style="fill:url(#hair1XMLID_3095_);stroke:#1E1E1E;stroke-linecap:round;stroke-linejoin:round;" d="M174.68,252.047c0,0-7.593,12.953,9.827,30.373"></path></g></g></g></g></g></svg>