<svg xmlns="http://www.w3.org/2000/svg" width="500" height="500" version="1.1"><g id="x016"><g><g><g><linearGradient id="hair4XMLID_98_" gradientUnits="userSpaceOnUse" x1="221.9995" y1="87" x2="221.9995" y2="108.75"><stop offset="0" style="stop-color:#FCFCE4"></stop><stop offset="0.5" style="stop-color:#A0C8DD"></stop><stop offset="1" style="stop-color:#5D6EC5"></stop></linearGradient><path style="fill:url(#hair4XMLID_98_);stroke:#1E1E1E;stroke-linecap:round;stroke-linejoin:round;" d="M237.479,88.062c-14-7.5-46,2.833-42.333,36.167c2-6,6.333-11.667,6.333-11.667s0.333,7,3.333,10.167c1.744-18.312,9-26.5,23.667-29.5c13.333,8,20.667,27.667,20.667,27.667C248.831,100.171,237.679,88.169,237.479,88.062z"></path><linearGradient id="hair4XMLID_99_" gradientUnits="userSpaceOnUse" x1="230.145" y1="87" x2="230.145" y2="108.75"><stop offset="0" style="stop-color:#FCFCE4"></stop><stop offset="0.5" style="stop-color:#A0C8DD"></stop><stop offset="1" style="stop-color:#5D6EC5"></stop></linearGradient><path style="fill:url(#hair4XMLID_99_);stroke:#1E1E1E;stroke-linecap:round;stroke-linejoin:round;" d="M225.155,94.052c0,0,5.71-1.718,9.98-0.979"></path></g></g><g><g><linearGradient id="hair4XMLID_100_" gradientUnits="userSpaceOnUse" x1="278" y1="87" x2="278" y2="108.75"><stop offset="0" style="stop-color:#FCFCE4"></stop><stop offset="0.5" style="stop-color:#A0C8DD"></stop><stop offset="1" style="stop-color:#5D6EC5"></stop></linearGradient><path style="fill:url(#hair4XMLID_100_);stroke:#1E1E1E;stroke-linecap:round;stroke-linejoin:round;" d="M262.521,88.062c14-7.5,46.001,2.833,42.334,36.167c-2-6-6.333-11.667-6.333-11.667s-0.334,7-3.334,10.167c-1.744-18.312-8.999-26.5-23.667-29.5c-13.333,8-20.666,27.667-20.666,27.667C251.169,100.171,262.321,88.169,262.521,88.062z"></path><linearGradient id="hair4XMLID_101_" gradientUnits="userSpaceOnUse" x1="269.8545" y1="87" x2="269.8545" y2="108.75"><stop offset="0" style="stop-color:#FCFCE4"></stop><stop offset="0.5" style="stop-color:#A0C8DD"></stop><stop offset="1" style="stop-color:#5D6EC5"></stop></linearGradient><path style="fill:url(#hair4XMLID_101_);stroke:#1E1E1E;stroke-linecap:round;stroke-linejoin:round;" d="M274.845,94.052c0,0-5.711-1.718-9.98-0.979"></path></g></g></g></g></svg>