<svg xmlns="http://www.w3.org/2000/svg" width="500" height="500" version="1.1"><g id="x017"><g><linearGradient id="hair4XMLID_102_" gradientUnits="userSpaceOnUse" x1="256.0244" y1="75" x2="256.0244" y2="111"><stop offset="0" style="stop-color:#FCFCE4"></stop><stop offset="0.5" style="stop-color:#A0C8DD"></stop><stop offset="1" style="stop-color:#5D6EC5"></stop></linearGradient><path style="fill:url(#hair4XMLID_102_);stroke:#1E1E1E;stroke-linecap:round;stroke-linejoin:round;" d="M248.458,126.229c0,0-16.667-15-18.667-23.333c0.333-12,2.333-24.333,4.667-26c2.333-1.667,20.333-9,28.333-8.333c8.333,4,15,13.333,17.666,16.667c2,5.667,2.334,13.333,1,15.667c-5.333,5-15.332,10-28,4.667c-6.666-6.667-4.667-13.667-4.333-15.333c0.333-1.667,5.667-4.667,7.667-4.667c-1.334,2.333,4,15.333,13.666,12.667c5.334-3.667,3.667-7,3.667-9.667c-0.667-1-8-9.333-13.333-12c-6,0.333-12,6.083-14.667,8.75c-3,7-4,15.917-3.333,17.25c0.667,1.333,5,14.667,10.333,18"></path><path style="fill:none;stroke:#1E1E1E;stroke-linecap:round;stroke-linejoin:round;" d="M243.624,92.812c1.5-4.5,3.25-13,12.25-22.25"></path><path style="fill:none;stroke:#1E1E1E;stroke-linecap:round;stroke-linejoin:round;" d="M260.874,95.312c0,0,6,5.5,13.5,5.75"></path></g></g></svg>