<svg xmlns="http://www.w3.org/2000/svg" width="500" height="500" version="1.1"><g id="x019"><g><g><linearGradient id="hair4XMLID_104_" gradientUnits="userSpaceOnUse" x1="235.707" y1="68.3335" x2="235.707" y2="96"><stop offset="0" style="stop-color:#FCFCE4"></stop><stop offset="0.5" style="stop-color:#A0C8DD"></stop><stop offset="1" style="stop-color:#5D6EC5"></stop></linearGradient><path style="fill:url(#hair4XMLID_104_);stroke:#1E1E1E;stroke-linecap:round;stroke-linejoin:round;" d="M248.958,120.062c0,0-24.5-11-30-17.5c4.5-4,14-13,14-13s10,21,19.5,28"></path><linearGradient id="hair4XMLID_105_" gradientUnits="userSpaceOnUse" x1="240.457" y1="68.3335" x2="240.457" y2="96"><stop offset="0" style="stop-color:#FCFCE4"></stop><stop offset="0.5" style="stop-color:#A0C8DD"></stop><stop offset="1" style="stop-color:#5D6EC5"></stop></linearGradient><path style="fill:url(#hair4XMLID_105_);stroke:#1E1E1E;stroke-linecap:round;stroke-linejoin:round;" d="M231.516,102.98c1.954-11.433,10.047-31.488,42.441-36.418c-5,0.5-52-6.5-67,25c6.5,13,24,19.5,24,19.5"></path><path style="fill:none;stroke:#1E1E1E;stroke-linecap:round;stroke-linejoin:round;" d="M261.457,66.562c0,0,19-2,28,4"></path><linearGradient id="hair4XMLID_106_" gradientUnits="userSpaceOnUse" x1="281.749" y1="68.3335" x2="281.749" y2="96"><stop offset="0" style="stop-color:#FCFCE4"></stop><stop offset="0.5" style="stop-color:#A0C8DD"></stop><stop offset="1" style="stop-color:#5D6EC5"></stop></linearGradient><path style="fill:url(#hair4XMLID_106_);stroke:#1E1E1E;stroke-linecap:round;stroke-linejoin:round;" d="M279.457,68.062c0,0,2,24-7.5,32c12.5-4,20.5-21,19.5-28.5C284.957,68.562,280.457,66.562,279.457,68.062z"></path><linearGradient id="hair4XMLID_107_" gradientUnits="userSpaceOnUse" x1="260.707" y1="68.3335" x2="260.707" y2="96.0001"><stop offset="0" style="stop-color:#FCFCE4"></stop><stop offset="0.5" style="stop-color:#A0C8DD"></stop><stop offset="1" style="stop-color:#5D6EC5"></stop></linearGradient><path style="fill:url(#hair4XMLID_107_);stroke:#1E1E1E;stroke-linecap:round;stroke-linejoin:round;" d="M271.957,100.062c0,0-16-2-19-5c-3-3-3.5-10-3.5-10c1.5-2,11.5-5,17-5.5c1,3,0,9.5-0.5,8s-0.5-5-4.5-3s-7.5,6.5-6.5,8.5C255.457,95.062,271.957,100.062,271.957,100.062z"></path></g></g></g></svg>