<svg xmlns="http://www.w3.org/2000/svg" width="500" height="500" version="1.1"><g id="x020"><g><g><linearGradient id="hair4XMLID_108_" gradientUnits="userSpaceOnUse" x1="232.75" y1="82.3335" x2="232.75" y2="118"><stop offset="0" style="stop-color:#FCFCE4"></stop><stop offset="0.5" style="stop-color:#A0C8DD"></stop><stop offset="1" style="stop-color:#5D6EC5"></stop></linearGradient><path style="fill:url(#hair4XMLID_108_);stroke:#1E1E1E;stroke-linecap:round;stroke-linejoin:round;" d="M248.5,123.562c0,0-19-28.5-21.5-45.5c-6.5-0.5-10,0-10,0s11.5,33.5,29,47.5"></path><linearGradient id="hair4XMLID_109_" gradientUnits="userSpaceOnUse" x1="210" y1="142.6665" x2="210" y2="105"><stop offset="0" style="stop-color:#FCFCE4"></stop><stop offset="0.5" style="stop-color:#A0C8DD"></stop><stop offset="1" style="stop-color:#5D6EC5"></stop></linearGradient><path style="fill:url(#hair4XMLID_109_);stroke:#1E1E1E;stroke-linecap:round;stroke-linejoin:round;" d="M225,78.062c0,0-19.5,31-18.5,73.5c-8-1.5-11.5-10-11.5-10s5.5-47.5,22-64.5C222.5,77.062,225,78.062,225,78.062z"></path></g><g><linearGradient id="hair4XMLID_110_" gradientUnits="userSpaceOnUse" x1="267.25" y1="82.3335" x2="267.25" y2="118"><stop offset="0" style="stop-color:#FCFCE4"></stop><stop offset="0.5" style="stop-color:#A0C8DD"></stop><stop offset="1" style="stop-color:#5D6EC5"></stop></linearGradient><path style="fill:url(#hair4XMLID_110_);stroke:#1E1E1E;stroke-linecap:round;stroke-linejoin:round;" d="M251.5,123.562c0,0,19-28.5,21.5-45.5c6.5-0.5,10,0,10,0s-11.5,33.5-29,47.5"></path><linearGradient id="hair4XMLID_111_" gradientUnits="userSpaceOnUse" x1="290" y1="142.6665" x2="290" y2="105"><stop offset="0" style="stop-color:#FCFCE4"></stop><stop offset="0.5" style="stop-color:#A0C8DD"></stop><stop offset="1" style="stop-color:#5D6EC5"></stop></linearGradient><path style="fill:url(#hair4XMLID_111_);stroke:#1E1E1E;stroke-linecap:round;stroke-linejoin:round;" d="M275,78.062c0,0,19.5,31,18.5,73.5c8-1.5,11.5-10,11.5-10s-5.5-47.5-22-64.5C277.5,77.062,275,78.062,275,78.062z"></path></g></g></g></svg>