<svg xmlns="http://www.w3.org/2000/svg" width="500" height="500" version="1.1"><g id="x022"><g><g><linearGradient id="hair4XMLID_114_" gradientUnits="userSpaceOnUse" x1="224.8657" y1="75.3335" x2="224.8657" y2="106.3336"><stop offset="0" style="stop-color:#FCFCE4"></stop><stop offset="0.5" style="stop-color:#A0C8DD"></stop><stop offset="1" style="stop-color:#5D6EC5"></stop></linearGradient><path style="fill:url(#hair4XMLID_114_);stroke:#1E1E1E;stroke-linecap:round;stroke-linejoin:round;" d="M249.938,117.554c0,0-0.335-20.003-21.984-23.102c-24.258-3.472-28.16,20.694-28.16,20.694s8.597-13.842,26.038-11.598C243.442,105.814,249.938,117.554,249.938,117.554z"></path><linearGradient id="hair4XMLID_115_" gradientUnits="userSpaceOnUse" x1="275.3145" y1="75.3335" x2="275.3145" y2="106.3335"><stop offset="0" style="stop-color:#FCFCE4"></stop><stop offset="0.5" style="stop-color:#A0C8DD"></stop><stop offset="1" style="stop-color:#5D6EC5"></stop></linearGradient><path style="fill:url(#hair4XMLID_115_);stroke:#1E1E1E;stroke-linecap:round;stroke-linejoin:round;" d="M250.438,117.533c0,0-1.335-19.962,19.98-24.856c23.883-5.484,29.789,18.272,29.789,18.272s-9.723-13.077-26.916-9.384C255.932,105.292,250.438,117.533,250.438,117.533z"></path></g><linearGradient id="hair4XMLID_116_" gradientUnits="userSpaceOnUse" x1="251.6582" y1="75.3335" x2="251.6582" y2="106.3335"><stop offset="0" style="stop-color:#FCFCE4"></stop><stop offset="0.5" style="stop-color:#A0C8DD"></stop><stop offset="1" style="stop-color:#5D6EC5"></stop></linearGradient><path style="fill:url(#hair4XMLID_116_);stroke:#1E1E1E;stroke-linecap:round;stroke-linejoin:round;" d="M252.07,118.394c0,0-12.156-7.564-9.057-24.309c3.098-16.745,17.795-21.461,17.795-21.461S245.245,88.316,252.07,118.394z"></path></g></g></svg>