<svg xmlns="http://www.w3.org/2000/svg" width="500" height="500" version="1.1"><g id="x024"><g><linearGradient id="hair4XMLID_119_" gradientUnits="userSpaceOnUse" x1="291.4521" y1="164.6665" x2="291.4521" y2="132.3335"><stop offset="0" style="stop-color:#FCFCE4"></stop><stop offset="0.5" style="stop-color:#A0C8DD"></stop><stop offset="1" style="stop-color:#5D6EC5"></stop></linearGradient><path style="fill:url(#hair4XMLID_119_);stroke:#1E1E1E;stroke-linecap:round;stroke-linejoin:round;" d="M247.957,122.229c0,0,17.788-32.137,57.25-26.5c15.75,2.25,22.363,13.333,25.5,18c10.5,18.25-6.23,40.75-12.75,40.75c-5.25,0-7.09-4.511-7-9.5c0.097-5.363,4.371-11,4.5-11c0,0-6.281-3.926-11.25,2.75c-8,10.75-0.5,26,13.75,24c28.5-7.75,27-64-12.75-71.5c-38.015-7.172-60.25,30.5-59.75,31.5"></path></g></g></svg>