<svg xmlns="http://www.w3.org/2000/svg" width="500" height="500" version="1.1"><g id="x025"><g><g><g><linearGradient id="hair4XMLID_120_" gradientUnits="userSpaceOnUse" x1="252.2559" y1="83" x2="252.2559" y2="99.6665"><stop offset="0" style="stop-color:#FCFCE4"></stop><stop offset="0.5" style="stop-color:#A0C8DD"></stop><stop offset="1" style="stop-color:#5D6EC5"></stop></linearGradient><path style="fill:url(#hair4XMLID_120_);stroke:#1E1E1E;stroke-linecap:round;stroke-linejoin:round;" d="M250.124,123.896c18.667-17.333,27.558-32.263,25.246-40.85c-0.992-3.689-3.418-6.224-6.83-7.136c-6.34-1.695-14.214,5.582-14.856,5.409s-7.278-6.053-14.407-5.27c-2.874,0.315-7.972,1.956-9.832,9.396c-1.856,7.427,0.272,14.225,5.401,20.322c4.945,5.878,9.611,8.129,16.612,7.795c-6.248-3.745-17.342-15.878-14.737-26.299c0.772-3.089,2.175-3.448,2.688-3.629c5.632-1.989,12.007,4.511,13.632,5.761c2.875-3.25,10.25-8.25,13.875-5.25c5.819,4.816-21.458,39.084-21.458,39.084"></path></g></g></g></g></svg>