<svg xmlns="http://www.w3.org/2000/svg" width="500" height="500" version="1.1"><g id="x027"><g><linearGradient id="hair4XMLID_122_" gradientUnits="userSpaceOnUse" x1="213.5" y1="70.3335" x2="213.5" y2="99.3335"><stop offset="0" style="stop-color:#FCFCE4"></stop><stop offset="0.5" style="stop-color:#A0C8DD"></stop><stop offset="1" style="stop-color:#5D6EC5"></stop></linearGradient><path style="fill:url(#hair4XMLID_122_);stroke:#1E1E1E;stroke-linecap:round;stroke-linejoin:round;" d="M227.183,86.562c19.974,10.779,22.667,31,22.667,31s0.833-24.833-21.333-37.5c-13.401-7.658-30.167-9-42.667,4.833c-5.817,6.588-11.167,18.167-7.5,31.167C184.017,94.229,206.183,75.229,227.183,86.562z"></path><linearGradient id="hair4XMLID_123_" gradientUnits="userSpaceOnUse" x1="286.5" y1="70.3335" x2="286.5" y2="99.3335"><stop offset="0" style="stop-color:#FCFCE4"></stop><stop offset="0.5" style="stop-color:#A0C8DD"></stop><stop offset="1" style="stop-color:#5D6EC5"></stop></linearGradient><path style="fill:url(#hair4XMLID_123_);stroke:#1E1E1E;stroke-linecap:round;stroke-linejoin:round;" d="M272.817,86.562c-19.975,10.779-22.667,31-22.667,31s-0.833-24.833,21.333-37.5c13.401-7.658,30.167-9,42.667,4.833c5.817,6.588,11.167,18.167,7.5,31.167C315.983,94.229,293.817,75.229,272.817,86.562z"></path></g></g></svg>