<svg xmlns="http://www.w3.org/2000/svg" width="500" height="500" version="1.1"><g id="x028"><g><linearGradient id="hair4XMLID_124_" gradientUnits="userSpaceOnUse" x1="217.5386" y1="180.3335" x2="217.5386" y2="140.6664"><stop offset="0" style="stop-color:#FCFCE4"></stop><stop offset="0.5" style="stop-color:#A0C8DD"></stop><stop offset="1" style="stop-color:#5D6EC5"></stop></linearGradient><path style="fill:url(#hair4XMLID_124_);stroke:#1E1E1E;stroke-linecap:round;stroke-linejoin:round;" d="M255.791,116.562c0,0-9-26.5-25-30s-52,20.5-51.5,38.5c2.5,0,6.5,0.5,6.5,0.5s17.5-30.5,46.5-26.5c4,0,19,18,19,18"></path><linearGradient id="hair4XMLID_125_" gradientUnits="userSpaceOnUse" x1="187.9536" y1="180.3335" x2="187.9536" y2="140.6664"><stop offset="0" style="stop-color:#FCFCE4"></stop><stop offset="0.5" style="stop-color:#A0C8DD"></stop><stop offset="1" style="stop-color:#5D6EC5"></stop></linearGradient><path style="fill:url(#hair4XMLID_125_);stroke:#1E1E1E;stroke-linecap:round;stroke-linejoin:round;" d="M188.291,170.062c0,0-12.5,15-10,21s7,9,25,10c-16,2.5-25.5,5-30-7.5S188.291,170.062,188.291,170.062z"></path><linearGradient id="hair4XMLID_126_" gradientUnits="userSpaceOnUse" x1="189.7339" y1="180.3335" x2="189.7339" y2="140.6665"><stop offset="0" style="stop-color:#FCFCE4"></stop><stop offset="0.5" style="stop-color:#A0C8DD"></stop><stop offset="1" style="stop-color:#5D6EC5"></stop></linearGradient><path style="fill:url(#hair4XMLID_126_);stroke:#1E1E1E;stroke-linecap:round;stroke-linejoin:round;" d="M187.791,108.062c-2.5,10.5-3,22.5,1,27.5s13.884,20.951,11,28c-4.5,11-15.5,10.5-18.5,12c8.5-10.5,9.5-19,2.5-30.5C177.699,135.055,176.291,119.062,187.791,108.062z"></path></g></g></svg>