<svg xmlns="http://www.w3.org/2000/svg" width="500" height="500" version="1.1"><g id="x029"><g><g><linearGradient id="hair4XMLID_127_" gradientUnits="userSpaceOnUse" x1="191.6167" y1="250.9995" x2="191.6167" y2="175.9996"><stop offset="0" style="stop-color:#FCFCE4"></stop><stop offset="0.5" style="stop-color:#A0C8DD"></stop><stop offset="1" style="stop-color:#5D6EC5"></stop></linearGradient><path style="fill:url(#hair4XMLID_127_);stroke:#1E1E1E;stroke-linecap:round;stroke-linejoin:round;" d="M204.547,122.896c0,0-5.676-8.824-9.5-5c-20.5,20.5-21.5,49.5-14.5,86.5c6.835,36.132,7.5,79.501,5.5,88.001c15-31.5,8.537-69.758,16-104.001C210.547,149.396,204.547,122.896,204.547,122.896z"></path><linearGradient id="hair4XMLID_128_" gradientUnits="userSpaceOnUse" x1="183.8472" y1="250.9995" x2="183.8472" y2="175.9995"><stop offset="0" style="stop-color:#FCFCE4"></stop><stop offset="0.5" style="stop-color:#A0C8DD"></stop><stop offset="1" style="stop-color:#5D6EC5"></stop></linearGradient><path style="fill:url(#hair4XMLID_128_);stroke:#1E1E1E;stroke-linecap:round;stroke-linejoin:round;" d="M182.547,174.396c0,0,1,50,9,75c-16.5-30-16.5-65.5-14.5-86.5"></path></g><g><linearGradient id="hair4XMLID_129_" gradientUnits="userSpaceOnUse" x1="308.3838" y1="250.9995" x2="308.3838" y2="175.9996"><stop offset="0" style="stop-color:#FCFCE4"></stop><stop offset="0.5" style="stop-color:#A0C8DD"></stop><stop offset="1" style="stop-color:#5D6EC5"></stop></linearGradient><path style="fill:url(#hair4XMLID_129_);stroke:#1E1E1E;stroke-linecap:round;stroke-linejoin:round;" d="M295.453,122.896c0,0,5.676-8.824,9.5-5c20.5,20.5,21.5,49.5,14.5,86.5c-6.836,36.132-7.5,79.501-5.5,88.001c-15-31.5-8.537-69.758-16-104.001C289.453,149.396,295.453,122.896,295.453,122.896z"></path><linearGradient id="hair4XMLID_130_" gradientUnits="userSpaceOnUse" x1="316.1523" y1="250.9995" x2="316.1523" y2="175.9995"><stop offset="0" style="stop-color:#FCFCE4"></stop><stop offset="0.5" style="stop-color:#A0C8DD"></stop><stop offset="1" style="stop-color:#5D6EC5"></stop></linearGradient><path style="fill:url(#hair4XMLID_130_);stroke:#1E1E1E;stroke-linecap:round;stroke-linejoin:round;" d="M317.453,174.396c0,0-1,50-9,75c16.5-30,16.5-65.5,14.5-86.5"></path></g></g></g></svg>