<svg xmlns="http://www.w3.org/2000/svg" width="500" height="500" version="1.1"><g id="x030"><g><g><linearGradient id="hair4XMLID_131_" gradientUnits="userSpaceOnUse" x1="188.6572" y1="238.5435" x2="188.6572" y2="155.4119"><stop offset="0" style="stop-color:#FCFCE4"></stop><stop offset="0.5" style="stop-color:#A0C8DD"></stop><stop offset="1" style="stop-color:#5D6EC5"></stop></linearGradient><path style="fill:url(#hair4XMLID_131_);stroke:#1E1E1E;stroke-linecap:round;stroke-linejoin:round;" d="M212.62,120.43c-21.549,21.549-36.156,70.235-37.927,83.514c-1.724,12.929,24.519,40.991,24.765,45.832c-0.862,15.514-20.934,29.255-19.784,31.17c9.96,19.537,26.529,24.71,25.667,29.881c-0.862,5.172-17.951,23.417-18.812,30.313c-1.109-12.689,10.384-29.163,10.384-29.163s-29.498-13.791-25.898-30.311c1.724-10.342,20.687-31.89,18.962-35.338c-1.724-3.448-30.99-29.358-31.029-43.096c-0.054-18.829,28.963-84.143,56.546-91.039c2.586,5.65,2.873,10.535,2.873,10.535"></path></g><g><linearGradient id="hair4XMLID_132_" gradientUnits="userSpaceOnUse" x1="311.3428" y1="238.5435" x2="311.3428" y2="155.4119"><stop offset="0" style="stop-color:#FCFCE4"></stop><stop offset="0.5" style="stop-color:#A0C8DD"></stop><stop offset="1" style="stop-color:#5D6EC5"></stop></linearGradient><path style="fill:url(#hair4XMLID_132_);stroke:#1E1E1E;stroke-linecap:round;stroke-linejoin:round;" d="M287.38,120.43c21.549,21.549,36.156,70.235,37.926,83.514c1.724,12.929-24.518,40.991-24.763,45.832c0.861,15.514,20.933,29.255,19.783,31.17c-9.961,19.537-26.529,24.71-25.667,29.881c0.862,5.172,17.949,23.417,18.812,30.313c1.109-12.689-10.384-29.163-10.384-29.163s29.498-13.791,25.898-30.311c-1.725-10.342-20.687-31.89-18.963-35.338c1.725-3.448,30.99-29.358,31.03-43.096c0.054-18.829-28.964-84.143-56.546-91.039c-2.586,5.65-2.874,10.535-2.874,10.535"></path></g></g></g></svg>