<svg xmlns="http://www.w3.org/2000/svg" width="500" height="500" version="1.1"><g id="x033"><g><linearGradient id="hair4XMLID_137_" gradientUnits="userSpaceOnUse" x1="173.3335" y1="200.3335" x2="173.3335" y2="145.6665"><stop offset="0" style="stop-color:#FCFCE4"></stop><stop offset="0.5" style="stop-color:#A0C8DD"></stop><stop offset="1" style="stop-color:#5D6EC5"></stop></linearGradient><path style="fill:url(#hair4XMLID_137_);stroke:#1E1E1E;stroke-linecap:round;stroke-linejoin:round;" d="M189.912,125.837c-1.293-0.309-12.408-0.886-19.055,7.533c-6.647,8.42-31.908,32.794-21.272,59.384c2.216-7.534,6.205-16.841,6.205-16.841s-12.409,23.488,11.966,50.078c2.659-17.727,11.521-32.351,19.498-41.214c7.977-8.864,12.409-26.59,12.409-36.339C199.663,138.688,199.219,128.052,189.912,125.837z"></path><linearGradient id="hair4XMLID_138_" gradientUnits="userSpaceOnUse" x1="326.666" y1="200.3335" x2="326.666" y2="145.6665"><stop offset="0" style="stop-color:#FCFCE4"></stop><stop offset="0.5" style="stop-color:#A0C8DD"></stop><stop offset="1" style="stop-color:#5D6EC5"></stop></linearGradient><path style="fill:url(#hair4XMLID_138_);stroke:#1E1E1E;stroke-linecap:round;stroke-linejoin:round;" d="M310.088,125.837c1.293-0.309,12.408-0.886,19.056,7.533c6.647,8.42,31.907,32.794,21.271,59.384c-2.215-7.534-6.203-16.841-6.203-16.841s12.408,23.488-11.966,50.078c-2.659-17.727-11.522-32.351-19.499-41.214c-7.978-8.864-12.41-26.59-12.41-36.339C300.337,138.688,300.781,128.052,310.088,125.837z"></path></g></g></svg>