<svg xmlns="http://www.w3.org/2000/svg" width="500" height="500" version="1.1"><g id="x034"><g><linearGradient id="hair4XMLID_139_" gradientUnits="userSpaceOnUse" x1="184.0034" y1="182.5791" x2="184.0034" y2="142.3655"><stop offset="0" style="stop-color:#FCFCE4"></stop><stop offset="0.5" style="stop-color:#A0C8DD"></stop><stop offset="1" style="stop-color:#5D6EC5"></stop></linearGradient><path style="fill:url(#hair4XMLID_139_);stroke:#1E1E1E;stroke-linecap:round;stroke-linejoin:round;" d="M225.092,135.294c0,0-20.012-13.625-29.379-18.735c-9.368-5.11-44.282,22.566-52.798,46.836c2.981-1.704,8.941-6.387,8.941-6.387s2.555,27.25,19.587,40.023c7.237-25.121,28.102-57.054,31.082-58.758c6.813,0.426,17.883,3.832,17.883,3.832"></path><linearGradient id="hair4XMLID_140_" gradientUnits="userSpaceOnUse" x1="315.9961" y1="182.5791" x2="315.9961" y2="142.3655"><stop offset="0" style="stop-color:#FCFCE4"></stop><stop offset="0.5" style="stop-color:#A0C8DD"></stop><stop offset="1" style="stop-color:#5D6EC5"></stop></linearGradient><path style="fill:url(#hair4XMLID_140_);stroke:#1E1E1E;stroke-linecap:round;stroke-linejoin:round;" d="M274.908,135.294c0,0,20.013-13.625,29.379-18.735c9.369-5.11,44.282,22.567,52.798,46.836c-2.98-1.703-8.94-6.387-8.94-6.387s-2.556,27.25-19.587,40.023c-7.238-25.121-28.102-57.054-31.082-58.758c-6.813,0.426-17.883,3.832-17.883,3.832"></path></g></g></svg>