<svg xmlns="http://www.w3.org/2000/svg" width="500" height="500" version="1.1"><g id="x004"><g><g><linearGradient id="hair4XMLID_79_" gradientUnits="userSpaceOnUse" x1="231.312" y1="94.248" x2="231.312" y2="104.7299"><stop offset="0" style="stop-color:#FCFCE4"></stop><stop offset="0.5" style="stop-color:#A0C8DD"></stop><stop offset="1" style="stop-color:#5D6EC5"></stop></linearGradient><path style="fill:url(#hair4XMLID_79_);stroke:#1E1E1E;stroke-linecap:round;stroke-linejoin:round;" d="M249.629,116.5c-0.762,0.25-3.875,0.625-4.375-1.25c-2.104-4.516-4.306-14.5-12.988-14.5c-15,0-20,14.25-20,14.25s-0.001-22,21.25-22C254.016,93,250.391,116.25,249.629,116.5z"></path></g><g><linearGradient id="hair4XMLID_80_" gradientUnits="userSpaceOnUse" x1="225.6797" y1="94.248" x2="225.6797" y2="104.7299" gradientTransform="matrix(-1 0 0 1 494.3672 0)"><stop offset="0" style="stop-color:#FCFCE4"></stop><stop offset="0.5" style="stop-color:#A0C8DD"></stop><stop offset="1" style="stop-color:#5D6EC5"></stop></linearGradient><path style="fill:url(#hair4XMLID_80_);stroke:#1E1E1E;stroke-linecap:round;stroke-linejoin:round;" d="M250.371,116.5c0.762,0.25,3.875,0.625,4.375-1.25c2.104-4.516,4.306-14.5,12.988-14.5c15,0,20,14.25,20,14.25s0.001-22-21.25-22C245.984,93,249.609,116.25,250.371,116.5z"></path></g></g></g></svg>