<svg xmlns="http://www.w3.org/2000/svg" width="500" height="500" version="1.1"><g id="x007"><g><g><linearGradient id="hair4XMLID_83_" gradientUnits="userSpaceOnUse" x1="234.6699" y1="144.75" x2="234.6699" y2="117"><stop offset="0" style="stop-color:#FCFCE4"></stop><stop offset="0.5" style="stop-color:#A0C8DD"></stop><stop offset="1" style="stop-color:#5D6EC5"></stop></linearGradient><path style="fill:url(#hair4XMLID_83_);stroke:#1E1E1E;stroke-linecap:round;stroke-linejoin:round;" d="M250.419,119.613c0,0-7.499-35.998-26.248-44.998c-5.25,2.25-5.25,6-5.25,6S238.42,87.365,250.419,119.613z"></path><linearGradient id="hair4XMLID_84_" gradientUnits="userSpaceOnUse" x1="215.915" y1="144.75" x2="215.915" y2="117"><stop offset="0" style="stop-color:#FCFCE4"></stop><stop offset="0.5" style="stop-color:#A0C8DD"></stop><stop offset="1" style="stop-color:#5D6EC5"></stop></linearGradient><path style="fill:url(#hair4XMLID_84_);stroke:#1E1E1E;stroke-linecap:round;stroke-linejoin:round;" d="M223.864,80.572c-6.456,10.181-21.844,40.249-6.443,76.54c-17.714-16.882-21.714-62.549,2.25-83.246c7.5,0,9.25,4,9.25,4"></path></g><g><linearGradient id="hair4XMLID_85_" gradientUnits="userSpaceOnUse" x1="255.9355" y1="144.75" x2="255.9355" y2="117"><stop offset="0" style="stop-color:#FCFCE4"></stop><stop offset="0.5" style="stop-color:#A0C8DD"></stop><stop offset="1" style="stop-color:#5D6EC5"></stop></linearGradient><path style="fill:url(#hair4XMLID_85_);stroke:#1E1E1E;stroke-linecap:round;stroke-linejoin:round;" d="M250.419,119.613c-2.378-12.051-2.045-41.718,6.955-49.718c4,1,5.333,0,5.333,0S252.707,91.562,250.419,119.613z"></path><linearGradient id="hair4XMLID_86_" gradientUnits="userSpaceOnUse" x1="265.0859" y1="144.75" x2="265.0859" y2="117"><stop offset="0" style="stop-color:#FCFCE4"></stop><stop offset="0.5" style="stop-color:#A0C8DD"></stop><stop offset="1" style="stop-color:#5D6EC5"></stop></linearGradient><path style="fill:url(#hair4XMLID_86_);stroke:#1E1E1E;stroke-linecap:round;stroke-linejoin:round;" d="M256.874,70.062l6.667-1.667c13.666,19,11,70.333,4,77.667c4.457-21.765-4.699-56.32-8.81-70.071"></path></g></g></g></svg>