<svg xmlns="http://www.w3.org/2000/svg" width="500" height="500" version="1.1"><g id="x011"><g><g><linearGradient id="hair3XMLID_807_" gradientUnits="userSpaceOnUse" x1="182.8428" y1="385" x2="182.8428" y2="129.9997"><stop offset="0" style="stop-color:#FCFCE4"></stop><stop offset="0.5" style="stop-color:#A0C8DD"></stop><stop offset="1" style="stop-color:#5D6EC5"></stop></linearGradient><path style="fill:url(#hair3XMLID_807_);stroke:#1E1E1E;stroke-linecap:round;stroke-linejoin:round;" d="M190.167,242.931c-2.822,4.797-7.619,18.625-3.951,29.914c3.67,11.288,13.546,15.52,17.215,24.834c3.534,8.972-0.848,18.623-9.877,17.495c4.797-4.233,5.08-14.109-4.515-16.649c-6.844-1.81-22.013-6.49-27.374-23.987c-5.362-17.496,25.115-32.734,25.115-32.734L190.167,242.931z"></path><path style="fill:none;stroke:#1E1E1E;stroke-linecap:round;stroke-linejoin:round;" d="M175.775,265.508c0,0-1.411,13.263,22.858,24.269"></path></g><g><linearGradient id="hair3XMLID_808_" gradientUnits="userSpaceOnUse" x1="317.1582" y1="385" x2="317.1582" y2="129.9997"><stop offset="0" style="stop-color:#FCFCE4"></stop><stop offset="0.5" style="stop-color:#A0C8DD"></stop><stop offset="1" style="stop-color:#5D6EC5"></stop></linearGradient><path style="fill:url(#hair3XMLID_808_);stroke:#1E1E1E;stroke-linecap:round;stroke-linejoin:round;" d="M309.835,242.931c2.82,4.797,7.619,18.625,3.95,29.914c-3.67,11.288-13.546,15.52-17.213,24.834c-3.534,8.972,0.846,18.623,9.876,17.495c-4.798-4.233-5.08-14.109,4.515-16.649c6.843-1.81,22.012-6.49,27.372-23.987c5.362-17.496-25.115-32.734-25.115-32.734L309.835,242.931z"></path><path style="fill:none;stroke:#1E1E1E;stroke-linecap:round;stroke-linejoin:round;" d="M324.226,265.508c0,0,1.412,13.263-22.857,24.269"></path></g></g></g></svg>