<svg xmlns="http://www.w3.org/2000/svg" width="500" height="500" version="1.1"><g id="x013"><g><g><g><linearGradient id="hair3XMLID_816_" gradientUnits="userSpaceOnUse" x1="173.7993" y1="385" x2="173.7993" y2="130"><stop offset="0" style="stop-color:#FCFCE4"></stop><stop offset="0.5" style="stop-color:#A0C8DD"></stop><stop offset="1" style="stop-color:#5D6EC5"></stop></linearGradient><path style="fill:url(#hair3XMLID_816_);stroke:#1E1E1E;stroke-linecap:round;stroke-linejoin:round;" d="M205.914,126.151c0,0-6.81-24.382-30.639-14.621c-10.53,4.313-18.399,25.69-22.205,50.906c-11.103,46.335-25.916,138.999,8.921,229.839c-8.039-39.4-8.039-80.992-8.039-80.992s2.68,64.575,30.148,88.653C178.74,380.235,214.93,158.464,205.914,126.151z"></path></g><g><linearGradient id="hair3XMLID_817_" gradientUnits="userSpaceOnUse" x1="326.2012" y1="385" x2="326.2012" y2="130"><stop offset="0" style="stop-color:#FCFCE4"></stop><stop offset="0.5" style="stop-color:#A0C8DD"></stop><stop offset="1" style="stop-color:#5D6EC5"></stop></linearGradient><path style="fill:url(#hair3XMLID_817_);stroke:#1E1E1E;stroke-linecap:round;stroke-linejoin:round;" d="M294.086,126.151c0,0,6.809-24.382,30.64-14.621c10.529,4.313,18.398,25.69,22.204,50.906c11.104,46.335,25.915,138.999-8.922,229.839c8.039-39.4,8.039-80.992,8.039-80.992s-2.68,64.575-30.147,88.653C321.261,380.235,285.072,158.464,294.086,126.151z"></path></g></g></g></g></svg>