<svg xmlns="http://www.w3.org/2000/svg" width="500" height="500" version="1.1"><g id="x016"><g><g><linearGradient id="hair3XMLID_824_" gradientUnits="userSpaceOnUse" x1="332.75" y1="385" x2="332.75" y2="130.0009"><stop offset="0" style="stop-color:#FCFCE4"></stop><stop offset="0.5" style="stop-color:#A0C8DD"></stop><stop offset="1" style="stop-color:#5D6EC5"></stop></linearGradient><path style="fill:url(#hair3XMLID_824_);stroke:#1E1E1E;stroke-linecap:round;stroke-linejoin:round;" d="M308.836,153.755c-5.639-8.407-11.609-23.637-9.586-29.007c0,0,31.594-12.184,46.857-11.603c3.195,4.351,7.809,14.794,7.809,20.305c2.131,2.611,8.166,17.404,2.131,27.557c6.389,4.351,11.359,20.305,6.744,28.138c3.551,4.641,6.035,17.694,0.355,25.236c4.26,6.962,5.324,19.146-0.711,27.848c-1.773,2.03-4.615,4.642-4.615,4.642s4.971,3.19,5.682,4.641s-0.355,11.022-8.164,15.373c0.354,1.451,6.035,0.871,6.035,0.871s-1.422,9.572-8.875,11.022c-2.133,0.29-5.326,0-5.326,0l7.809,4.641c0,0,0.711,3.772-3.549,6.093c-1.775,1.159-6.744,0.289-6.744,0.289l4.258,4.351c0,0,1.066,7.832-13.486,8.123c1.42-1.45,8.518-8.412,2.482-13.634c0,0-4.615,0-6.035-1.161c0-3.19,1.066-7.54,1.066-7.54s5.326,2.609,9.584,2.32l-2.484-4.642c0,0-6.389-0.29-7.809-2.9c-0.357-2.901,3.904-5.512,2.129-11.023c4.26,0,11.004,2.611,13.135,1.741c1.064-0.871,1.418-13.924-8.52-18.564c-1.42-0.291-6.744-4.353-6.744-4.353s-1.955-5.519-1.066-10.151c0.295-1.545,3.906-0.871,6.744-3.481c-2.838-1.74-7.76-2.805-7.455-4.061c-2.129-2.321-3.193-6.671-0.709-10.152c-0.354-0.291-3.193-2.611-3.193-2.611s-4.26-17.115-0.711-24.656c-2.131-0.871-7.453-1.16-6.744-2.03c0.709-0.871,1.064-5.222,1.064-7.833c0-2.61-7.809-13.343-6.035-14.214c1.775-0.87,2.131-3.77,2.131-3.77S311.111,157.154,308.836,153.755z"></path><path style="fill:none;stroke:#1E1E1E;stroke-linecap:round;stroke-linejoin:round;" d="M341.492,115.466c0,0,4.615,0.29,3.195,2.031c-1.42,1.74-24.494,9.862-44.018,9.282"></path><path style="fill:none;stroke:#1E1E1E;stroke-linecap:round;stroke-linejoin:round;" d="M354.98,283.418c0,0-8.375-0.298-14.764-1.168"></path><path style="fill:none;stroke:#1E1E1E;stroke-linecap:round;stroke-linejoin:round;" d="M347.355,278.75c0,0-3.977-0.25-8.26-1.333"></path><path style="fill:none;stroke:#1E1E1E;stroke-linecap:round;stroke-linejoin:round;" d="M355.922,267.25c0,0-4.488-0.583-9.279-1.583"></path><path style="fill:none;stroke:#1E1E1E;stroke-linecap:round;stroke-linejoin:round;" d="M358.369,246.417c0,0-8.668,5.667-18.152,0.917"></path><g><path style="fill:none;stroke:#1E1E1E;stroke-linecap:round;stroke-linejoin:round;" d="M357.111,161.877c0,0-9.939,29.297-41.178,25.237"></path><path style="fill:none;stroke:#1E1E1E;stroke-linecap:round;stroke-linejoin:round;" d="M356.105,160.833c0,0-9.998,23.38-41.238,24.83"></path></g><path style="fill:none;stroke:#1E1E1E;stroke-linecap:round;stroke-linejoin:round;" d="M363.57,213.667c0,0-13.768,9.833-31.664,11.447"></path><path style="fill:none;stroke:#1E1E1E;stroke-linecap:round;stroke-linejoin:round;" d="M334.609,230.917c1.066,0,20.594-0.962,28.758-16.917"></path><path style="fill:none;stroke:#1E1E1E;stroke-linecap:round;stroke-linejoin:round;" d="M363.502,187.404c0,0-9.23,15.664-36.918,15.954"></path><path style="fill:none;stroke:#1E1E1E;stroke-linecap:round;stroke-linejoin:round;" d="M363.264,189.833c0,0-8.283,21.356-38.455,15.265"></path><path style="fill:none;stroke:#1E1E1E;stroke-linecap:round;stroke-linejoin:round;" d="M352.902,128c0,0-3.246,28.656-38.744,34.167"></path></g><g><linearGradient id="hair3XMLID_825_" gradientUnits="userSpaceOnUse" x1="167.25" y1="385" x2="167.25" y2="130.0009"><stop offset="0" style="stop-color:#FCFCE4"></stop><stop offset="0.5" style="stop-color:#A0C8DD"></stop><stop offset="1" style="stop-color:#5D6EC5"></stop></linearGradient><path style="fill:url(#hair3XMLID_825_);stroke:#1E1E1E;stroke-linecap:round;stroke-linejoin:round;" d="M191.165,153.755c5.638-8.407,11.608-23.637,9.586-29.007c0,0-31.594-12.184-46.857-11.603c-3.195,4.351-7.81,14.794-7.81,20.305c-2.131,2.611-8.166,17.404-2.131,27.557c-6.389,4.351-11.358,20.305-6.744,28.138c-3.551,4.641-6.034,17.694-0.354,25.236c-4.26,6.962-5.325,19.146,0.71,27.848c1.773,2.03,4.615,4.642,4.615,4.642s-4.971,3.19-5.682,4.641c-0.71,1.45,0.356,11.022,8.165,15.373c-0.354,1.451-6.035,0.871-6.035,0.871s1.422,9.572,8.874,11.022c2.133,0.29,5.326,0,5.326,0l-7.809,4.641c0,0-0.71,3.772,3.549,6.093c1.776,1.159,6.745,0.289,6.745,0.289l-4.259,4.351c0,0-1.066,7.832,13.487,8.123c-1.42-1.45-8.518-8.412-2.483-13.634c0,0,4.615,0,6.035-1.161c0-3.19-1.066-7.54-1.066-7.54s-5.325,2.609-9.584,2.32l2.484-4.642c0,0,6.39-0.29,7.809-2.9c0.357-2.901-3.904-5.512-2.128-11.023c-4.26,0-11.005,2.611-13.135,1.741c-1.065-0.871-1.419-13.924,8.519-18.564c1.42-0.291,6.744-4.353,6.744-4.353s1.955-5.519,1.066-10.151c-0.294-1.545-3.906-0.871-6.744-3.481c2.838-1.74,7.761-2.805,7.455-4.061c2.13-2.321,3.193-6.671,0.71-10.152c0.354-0.291,3.193-2.611,3.193-2.611s4.26-17.115,0.71-24.656c2.132-0.871,7.454-1.16,6.744-2.03c-0.709-0.871-1.064-5.222-1.064-7.833c0-2.61,7.81-13.343,6.036-14.214c-1.775-0.87-2.132-3.77-2.132-3.77S188.889,157.154,191.165,153.755z"></path><path style="fill:none;stroke:#1E1E1E;stroke-linecap:round;stroke-linejoin:round;" d="M158.508,115.466c0,0-4.615,0.29-3.195,2.031c1.42,1.74,24.493,9.862,44.017,9.282"></path><path style="fill:none;stroke:#1E1E1E;stroke-linecap:round;stroke-linejoin:round;" d="M145.019,283.418c0,0,8.375-0.298,14.764-1.168"></path><path style="fill:none;stroke:#1E1E1E;stroke-linecap:round;stroke-linejoin:round;" d="M152.644,278.75c0,0,3.978-0.25,8.261-1.333"></path><path style="fill:none;stroke:#1E1E1E;stroke-linecap:round;stroke-linejoin:round;" d="M144.078,267.25c0,0,4.488-0.583,9.28-1.583"></path><path style="fill:none;stroke:#1E1E1E;stroke-linecap:round;stroke-linejoin:round;" d="M141.63,246.417c0,0,8.668,5.667,18.152,0.917"></path><g><path style="fill:none;stroke:#1E1E1E;stroke-linecap:round;stroke-linejoin:round;" d="M142.889,161.877c0,0,9.938,29.297,41.178,25.237"></path><path style="fill:none;stroke:#1E1E1E;stroke-linecap:round;stroke-linejoin:round;" d="M143.894,160.833c0,0,9.999,23.38,41.238,24.83"></path></g><path style="fill:none;stroke:#1E1E1E;stroke-linecap:round;stroke-linejoin:round;" d="M136.429,213.667c0,0,13.768,9.833,31.664,11.447"></path><path style="fill:none;stroke:#1E1E1E;stroke-linecap:round;stroke-linejoin:round;" d="M165.391,230.917c-1.066,0-20.594-0.962-28.759-16.917"></path><path style="fill:none;stroke:#1E1E1E;stroke-linecap:round;stroke-linejoin:round;" d="M136.498,187.404c0,0,9.23,15.664,36.919,15.954"></path><path style="fill:none;stroke:#1E1E1E;stroke-linecap:round;stroke-linejoin:round;" d="M136.736,189.833c0,0,8.283,21.356,38.456,15.265"></path><path style="fill:none;stroke:#1E1E1E;stroke-linecap:round;stroke-linejoin:round;" d="M147.098,128c0,0,3.246,28.656,38.744,34.167"></path></g></g></g></svg>