<svg xmlns="http://www.w3.org/2000/svg" width="500" height="500" version="1.1"><g id="x162"><g><g><linearGradient id="hair3XMLID_1476_" gradientUnits="userSpaceOnUse" x1="200.0415" y1="148.0957" x2="200.0415" y2="55.0998"><stop offset="0" style="stop-color:#FCFCE4"></stop><stop offset="0.5" style="stop-color:#A0C8DD"></stop><stop offset="1" style="stop-color:#5D6EC5"></stop></linearGradient><path style="fill:url(#hair3XMLID_1476_);stroke:#1E1E1E;stroke-linecap:round;stroke-linejoin:round;" d="M252.13,123.146c-0.159-1.39-0.872-36.614-28.767-55.058c-19.048-12.595-44.194-10.312-61.152,5.551c-15.414,14.419-18.651,35.546-8.246,53.823c6.465,11.354,15.809,18.748,27.772,21.974c27.514,7.42,59.075-10.65,60.405-11.423C244.978,136.365,252.646,127.671,252.13,123.146z M233.859,123.749c-0.001,0-0.001,0-0.005,0.002h0c-0.422,0.242-27.091,15.382-47.867,9.748c-7.644-2.073-13.429-6.717-17.688-14.197c-6.692-11.755-4.756-24.322,5.18-33.616c9.293-8.693,26.02-13.602,40.786-3.837C234.839,95.451,235.407,122.851,233.859,123.749z M233.854,123.751c0.001-0.001,0.003-0.002,0.005-0.002c0.001,0,0.001-0.001,0.005-0.003C233.863,123.747,233.855,123.751,233.854,123.751z"></path><linearGradient id="hair3XMLID_1477_" gradientUnits="userSpaceOnUse" x1="300.0059" y1="148.0957" x2="300.0059" y2="55.1001"><stop offset="0" style="stop-color:#FCFCE4"></stop><stop offset="0.5" style="stop-color:#A0C8DD"></stop><stop offset="1" style="stop-color:#5D6EC5"></stop></linearGradient><path style="fill:url(#hair3XMLID_1477_);stroke:#1E1E1E;stroke-linecap:round;stroke-linejoin:round;" d="M258.028,137.987c1.334,0.766,32.987,18.673,60.464,11.11c11.945-3.288,21.252-10.73,27.657-22.118c10.311-18.331,6.964-39.441-8.525-53.78c-17.04-15.775-42.198-17.928-61.182-5.234c-27.796,18.588-28.329,53.815-28.479,55.206C247.471,127.7,255.184,136.354,258.028,137.987z M285.612,81.678c14.715-9.84,31.468-5.019,40.806,3.626c9.983,9.243,11.985,21.8,5.354,33.589c-4.22,7.502-9.981,12.176-17.614,14.289c-20.746,5.742-47.493-9.259-47.918-9.5h0.002c-0.005-0.002-0.005-0.002-0.007-0.002C264.684,122.79,265.11,95.387,285.612,81.678z M266.23,123.677c0.004,0.002,0.005,0.002,0.005,0.003c0.002,0,0.004,0.001,0.005,0.002C266.24,123.682,266.232,123.677,266.23,123.677z"></path></g><g><g><path style="fill:#FF8069;stroke:#1E1E1E;stroke-linecap:round;stroke-linejoin:round;" d="M177.167,135.916c-18.064,16.827-34,26-34,26s0.666,15-2.667,35c8-2,34-29.667,52-54.333c10.286-14.096,28.513-18.645,36-22.167c1.25-3,2-5.833,2-5.833S201.5,113.25,177.167,135.916z"></path><path style="fill:#FF4D42;" d="M140.75,195.666c0,0,2.75-13,2.25-17.25c8.5-4,38.25-22.5,38.25-22.5S153,190.166,140.75,195.666z"></path></g><g><path style="fill:#FF8069;stroke:#1E1E1E;stroke-linecap:round;stroke-linejoin:round;" d="M322.834,135.916c18.064,16.827,34,26,34,26s-0.666,15,2.666,35c-8-2-34-29.667-52-54.333c-10.285-14.096-28.512-18.645-36-22.167c-1.25-3-2-5.833-2-5.833S298.5,113.25,322.834,135.916z"></path><path style="fill:#FF4D42;" d="M359.25,195.666c0,0-2.75-13-2.25-17.25c-8.5-4-38.25-22.5-38.25-22.5S347,190.166,359.25,195.666z"></path></g></g><g><path style="fill:#FF8069;stroke:#1E1E1E;stroke-linecap:round;stroke-linejoin:round;" d="M266.177,105.787c0,0-4.411-1.188-16.177-1.188c-11.765,0-16.176,1.188-16.176,1.188S225,127.76,225,129.145l25,2.771l25-2.771C275,127.76,266.177,105.787,266.177,105.787z"></path><line style="fill:none;stroke:#1E1E1E;stroke-linecap:round;stroke-linejoin:round;" x1="248" y1="113.25" x2="270.25" y2="116.25"></line><path style="fill:none;stroke:#1E1E1E;stroke-linecap:round;stroke-linejoin:round;" d="M229.75,117.25c0,0,16.5-5,37.75-7.25"></path></g></g></g></svg>