<svg xmlns="http://www.w3.org/2000/svg" width="500" height="500" version="1.1"><g id="x164"><g><g><g><g><g><linearGradient id="hair3XMLID_1479_" gradientUnits="userSpaceOnUse" x1="411.3916" y1="303.6768" x2="411.3916" y2="187.7669"><stop offset="0" style="stop-color:#FCFCE4"></stop><stop offset="0.5" style="stop-color:#A0C8DD"></stop><stop offset="1" style="stop-color:#5D6EC5"></stop></linearGradient><path style="fill:url(#hair3XMLID_1479_);stroke:#1E1E1E;stroke-linecap:round;stroke-linejoin:round;" d="M376.021,234.52c0.422,1.264,18.326,14.746,44.869,21.276c7.794,8.426,24.226,21.065,20.434,46.975c2.105,6.109,4.633,8.848,4.633,8.848s20.645-13.06,2.528-37.496c-18.116-24.435-65.513-32.02-81.522-67.83C365.699,216.825,376.021,234.52,376.021,234.52z"></path></g><path style="fill:none;stroke:#1E1E1E;stroke-linecap:round;stroke-linejoin:round;" d="M407.934,247.264c0,0,9.689,5.794,12.956,8.532"></path></g></g><g><linearGradient id="hair3XMLID_1480_" gradientUnits="userSpaceOnUse" x1="388.5" y1="405.9209" x2="388.5" y2="78.9942"><stop offset="0" style="stop-color:#FCFCE4"></stop><stop offset="0.5" style="stop-color:#A0C8DD"></stop><stop offset="1" style="stop-color:#5D6EC5"></stop></linearGradient><path style="fill:url(#hair3XMLID_1480_);stroke:#1E1E1E;stroke-linecap:round;stroke-linejoin:round;" d="M325.885,159.949c0,0,8.005,6.741,10.111,21.065c2.106,14.324-3.194,70.643,32.439,101.113c29.07,24.856,46.345,30.018,46.345,30.018s9.479,14.377,4.423,32.546c-4.643,16.686-60.877,68.462-25.909,83.628c-1.686-5.477-4.214-15.166,4.634-22.328c18.537-10.112,60.667-21.486,58.14-65.723c-2.527-44.238-73.729-98.586-73.729-98.586s-12.639-17.273-16.431-46.344c-3.792-29.07-28.227-65.723-43.814-64.038C317.88,143.939,325.464,159.949,325.885,159.949z"></path><path style="fill:none;stroke:#1E1E1E;stroke-linecap:round;stroke-linejoin:round;" d="M350.742,195.971c0,0.565,15.311,28.386,31.197,45.271"></path><path style="fill:none;stroke:#1E1E1E;stroke-linecap:round;stroke-linejoin:round;" d="M354.745,228.622c0,0.842,14.534,43.815,41.287,62.774"></path><path style="fill:none;stroke:#1E1E1E;stroke-linecap:round;stroke-linejoin:round;" d="M413.938,311.826c0,0,25.067,10.322,36.653,29.912"></path></g></g><g><g><g><g><linearGradient id="hair3XMLID_1481_" gradientUnits="userSpaceOnUse" x1="94.5327" y1="303.6768" x2="94.5327" y2="187.7669" gradientTransform="matrix(-1 0 0 1 183.1406 0)"><stop offset="0" style="stop-color:#FCFCE4"></stop><stop offset="0.5" style="stop-color:#A0C8DD"></stop><stop offset="1" style="stop-color:#5D6EC5"></stop></linearGradient><path style="fill:url(#hair3XMLID_1481_);stroke:#1E1E1E;stroke-linecap:round;stroke-linejoin:round;" d="M123.979,234.52c-0.422,1.264-18.326,14.746-44.869,21.276c-7.794,8.426-24.226,21.065-20.434,46.975c-2.105,6.109-4.633,8.848-4.633,8.848s-20.645-13.06-2.528-37.496c18.116-24.435,65.513-32.02,81.522-67.83C134.301,216.825,123.979,234.52,123.979,234.52z"></path></g><path style="fill:none;stroke:#1E1E1E;stroke-linecap:round;stroke-linejoin:round;" d="M92.066,247.264c0,0-9.689,5.794-12.956,8.532"></path></g></g><g><linearGradient id="hair3XMLID_1482_" gradientUnits="userSpaceOnUse" x1="71.6401" y1="405.9209" x2="71.6401" y2="78.9942" gradientTransform="matrix(-1 0 0 1 183.1406 0)"><stop offset="0" style="stop-color:#FCFCE4"></stop><stop offset="0.5" style="stop-color:#A0C8DD"></stop><stop offset="1" style="stop-color:#5D6EC5"></stop></linearGradient><path style="fill:url(#hair3XMLID_1482_);stroke:#1E1E1E;stroke-linecap:round;stroke-linejoin:round;" d="M174.115,159.949c0,0-8.005,6.741-10.111,21.065c-2.106,14.324,3.194,70.643-32.439,101.113c-29.07,24.856-46.345,30.018-46.345,30.018s-9.479,14.377-4.423,32.546c4.643,16.686,60.877,68.462,25.909,83.628c1.686-5.477,4.214-15.166-4.634-22.328c-18.537-10.112-60.667-21.486-58.14-65.723c2.527-44.238,73.729-98.586,73.729-98.586s12.639-17.273,16.431-46.344c3.792-29.07,28.227-65.723,43.814-64.038C182.12,143.939,174.536,159.949,174.115,159.949z"></path><path style="fill:none;stroke:#1E1E1E;stroke-linecap:round;stroke-linejoin:round;" d="M149.258,195.971c0,0.565-15.311,28.386-31.197,45.271"></path><path style="fill:none;stroke:#1E1E1E;stroke-linecap:round;stroke-linejoin:round;" d="M145.255,228.622c0,0.842-14.534,43.815-41.287,62.774"></path><path style="fill:none;stroke:#1E1E1E;stroke-linecap:round;stroke-linejoin:round;" d="M86.063,311.826c0,0-25.067,10.322-36.653,29.912"></path></g></g></g></g></svg>