<svg xmlns="http://www.w3.org/2000/svg" width="500" height="500" version="1.1"><g id="x9164"><g><g><path style="fill:#E04052;stroke:#000000;stroke-linecap:round;stroke-linejoin:round;" d="M175.13,327.577c0,0-12.77,3.047-20.326,2.09c3.494-15.043,10.425-22.139,10.425-22.139S176.02,321.602,175.13,327.577z"></path><path style="fill:#E04052;stroke:#000000;stroke-linecap:round;stroke-linejoin:round;" d="M103.886,287.646c0,0,7.837,12.838,20.684,19.563c9.267-9.416,9.673-18.894,9.673-18.894S109.722,284.415,103.886,287.646z"></path><g><linearGradient id="hair3XMLID_1483_" gradientUnits="userSpaceOnUse" x1="152.5796" y1="310.7559" x2="152.5796" y2="357.8099" gradientTransform="matrix(0.9881 -0.1539 0.1539 0.9881 -44.5832 24.6234)"><stop offset="0" style="stop-color:#FCFCE4"></stop><stop offset="0.5" style="stop-color:#A0C8DD"></stop><stop offset="1" style="stop-color:#5D6EC5"></stop></linearGradient><path style="fill:url(#hair3XMLID_1483_);stroke:#1E1E1E;stroke-linecap:round;stroke-linejoin:round;" d="M167.935,161.633c0.657,1.504-7.437,11.615-16.898,25.759c-9.461,14.145-12.993,16.078-14.199,27.654c-1.205,11.577,2.143,43.646-0.374,52.211c-4.009,6.938-14.323,23.737-17.1,42.301c-4.132,27.628,0.178,58.202,0.178,58.202s24.756-3.642,46.99-67.251c17.901-51.216,6.021-65.167,8.692-81.984c2.671-16.817,3.574-40.563,1.291-44.372C174.231,170.345,167.935,161.633,167.935,161.633z"></path><linearGradient id="hair3XMLID_1484_" gradientUnits="userSpaceOnUse" x1="143.8965" y1="310.9658" x2="143.8965" y2="358.2477" gradientTransform="matrix(0.9881 -0.1539 0.1539 0.9881 -44.5832 24.6234)"><stop offset="0" style="stop-color:#FCFCE4"></stop><stop offset="0.5" style="stop-color:#A0C8DD"></stop><stop offset="1" style="stop-color:#5D6EC5"></stop></linearGradient><path style="fill:url(#hair3XMLID_1484_);stroke:#1E1E1E;stroke-linecap:round;stroke-linejoin:round;" d="M153.519,305.878c0.282,1.695-13.369,36.668,20.478,53.431c-18.162,7.856-42.705-5.924-47.187-35.648"></path><g><linearGradient id="hair3XMLID_1485_" gradientUnits="userSpaceOnUse" x1="113.2124" y1="310.6221" x2="113.2124" y2="357.9394" gradientTransform="matrix(0.9881 -0.1539 0.1539 0.9881 -44.5832 24.6234)"><stop offset="0" style="stop-color:#FCFCE4"></stop><stop offset="0.5" style="stop-color:#A0C8DD"></stop><stop offset="1" style="stop-color:#5D6EC5"></stop></linearGradient><path style="fill:url(#hair3XMLID_1485_);stroke:#1E1E1E;stroke-linecap:round;stroke-linejoin:round;" d="M107.676,376.705c0,0,12.269,19.383,38.472,14.978c-25.843-12.393-31.465-39.649-22.823-57.601c-1.73-15.737-5.505-24.36-5.505-24.36S94.264,350.886,107.676,376.705z"></path><linearGradient id="hair3XMLID_1486_" gradientUnits="userSpaceOnUse" x1="125.2964" y1="310.8525" x2="125.2964" y2="358.0868" gradientTransform="matrix(0.9881 -0.1539 0.1539 0.9881 -44.5832 24.6234)"><stop offset="0" style="stop-color:#FCFCE4"></stop><stop offset="0.5" style="stop-color:#A0C8DD"></stop><stop offset="1" style="stop-color:#5D6EC5"></stop></linearGradient><path style="fill:url(#hair3XMLID_1486_);stroke:#1E1E1E;stroke-linecap:round;stroke-linejoin:round;" d="M136.483,267.568c0,0-15.076,32.745-9.625,55.153c5.45,22.409,15.016,42.763,42.113,47.201c-13.943,6.509-30.975,0.318-35.929-4.519c3.214,15.031,15.903,21.957,20.746,22.891c-22.428-1.069-43.292-20.595-43.289-54.011c-7.037,16.216-8.852,27.99-2.824,42.421C82.018,335.834,136.483,267.568,136.483,267.568z"></path></g></g><g><path style="fill:#FE5E70;" d="M189.555,205.134c0.042-0.03,0.1-0.059,0.143-0.088c-0.295-1.44-0.606-2.98-0.916-4.549l-3.771-22.582l0.957-0.735c0,0-0.127-0.734-0.373-1.8c-0.477-2.087-1.391-5.452-2.641-7.036c-0.317-0.962-0.693-2.055-1.125-3.016c-1.824-1.417-7.247-2.063-14.123-3.408c-7.562,1.189-23.321,9.714-36.929,17.125s-21.063,16.179-22.511,15.838c-1.449-0.34,2.266,7.186,13.854,9.909c11.182,2.628,15.922,0.972,16.239,0.866c-0.185,0.292-2.44,4.092,6.961,6.384c7.934-0.474,10.215,7.795,9.823,14.657c0.058-0.044,0.114-0.074,0.171-0.118c-2.061,5.298-4.033,10.826-5.771,16.438c-13.361,6.656-26.82,18.413-30.521,23.171c-4.253,5.473-6.356,9.833-15.573,21.513c4.654-2.592,25.403-15.517,33.64-19.967c2.408-1.304,4.889-2.349,7.231-3.178c5.659-2,23.579-0.231,24.854,0.256c1.815,0.696,4.382,3.547,4.382,3.547s2.866-1.484,5.005-3.317c2.14-1.836-5.532-33.185-5.532-33.185s-1.133,0.579-3.641,1.813c0.279-0.682,0.527-1.394,0.75-2.132c0.912,0.319,1.896,0.42,2.891,0.319c4.47-0.367,9.276-4.492,10.691-9.535c6.458-2.618,7.474-7.324,7.474-7.324L189.555,205.134z"></path><path style="fill:#E04052;" d="M172.626,164.624c-0.16,0.502-14.504,11.542-20.194,33.457c5.395-7.411,19.32-24.61,19.32-24.61L172.626,164.624z"></path><path style="fill:#E04052;" d="M149.734,242.957l-5.476,21.431c0,0-12.3,6.16-19.241,10.425c-6.94,4.265-21.159,12.468-21.159,12.468s11.087-17.492,17.004-23.41C126.778,257.951,148.572,243.307,149.734,242.957z"></path><path style="fill:#E04052;" d="M172.423,232.633c0,0-2.639,13.707-6.946,15.6c-4.307,1.895-6.141,1.921-6.141,1.921s-1.903,6.861-6.709,8.765c-4.807,1.9-5.799,2.414-5.799,2.414l1.636-5.668c0,0,4.77-0.923,6.384-4.612c1.615-3.691,3.174-8.516,3.174-8.516s4.173,0.746,7.833-2.81c2.959-2.876,3.532-6.057,3.532-6.057L172.423,232.633z"></path><path style="fill:#E04052;" d="M171.452,175.975c0,0-7.318,12.939-7.236,30.439c3.555-7.885,14.28-27.372,14.28-27.372L171.452,175.975z"></path><g><g><path style="fill:none;stroke:#FFFFFF;stroke-width:2;stroke-linecap:round;stroke-linejoin:round;" d="M147.509,171.35c0,0-0.576,1.933,1.124,2.871c1.697,0.938,2.988-1.366,4.443-0.544c1.455,0.822,0.166,3.245,1.745,4.306c1.579,1.06,4.315-1.143,5.17-0.193c0.855,0.95,0.67,4.802,1.88,5.267"></path><path style="fill:none;stroke:#FFFFFF;stroke-width:2;stroke-linecap:round;stroke-linejoin:round;" d="M150.016,169.991c0,0-0.906,3.982,0.202,5.771c1.108,1.789,5.514-1.402,6.616-0.093c1.1,1.307-0.29,5.055,0.925,5.88c1.215,0.825,5.264-2.121,6.354-1.534"></path></g></g><path style="fill:none;stroke:#FFFFFF;stroke-width:3;stroke-linecap:round;stroke-linejoin:round;" d="M109.95,194.86c0,0,2.975,5.902,12.15,8.489c8.938,2.52,18.062,1.187,18.062,1.187s-1.88,3.155,2,5.265c3.879,2.11,8.059-0.021,10.384,2.739c4.405,5.231,3.763,10.774,3.763,10.774"></path><path style="fill:none;stroke:#FFFFFF;stroke-width:3;stroke-linecap:round;stroke-linejoin:round;" d="M116.846,189.228c0,0,7.035,3.991,9.583,14.059"></path><path style="fill:none;stroke:#FFFFFF;stroke-width:3;stroke-linecap:round;stroke-linejoin:round;" d="M114.1,199.131c0,0,6.873-7.316,16.017-7.205c3.214,5.97,4.26,11.97,4.26,11.97"></path><path style="fill:none;stroke:#FFFFFF;stroke-width:3;stroke-linecap:round;stroke-linejoin:round;" d="M118.468,201.716c0,0,6.48-1.055,11.504-3.051c5.025-1.996,10.568-1.354,14.468,2.201c3.899,3.554,3.483,8.13,3.483,8.13"></path><path style="fill:none;stroke:#FFFFFF;stroke-width:2;stroke-linecap:round;stroke-linejoin:round;" d="M151.186,201.613c0,0,1.833,1.898,3.52,2.115c1.687,0.217,2.449-5.448,3.415-5.102c0.969,0.348,2.925,2.605,4.007,2.47c1.08-0.135,1.141-4.347,2.584-4.367c1.443-0.02,3.268,1.397,3.268,1.397"></path><path style="fill:none;stroke:#FFFFFF;stroke-width:2;stroke-linecap:round;stroke-linejoin:round;" d="M151.721,205.335c0,0,1.362-5.794,2.563-5.932c1.199-0.138,3.781,3.676,5.098,3.296c1.318-0.379,1.131-5.069,2.209-5.325c1.08-0.255,3.894,3.073,4.253,2.947c0.36-0.125,2.836-3.649,2.836-3.649"></path><path style="fill:none;stroke:#FFFFFF;stroke-width:3;stroke-linecap:round;stroke-linejoin:round;" d="M145.782,261.479c0,0,1.138-4.589,1.819-7.485c3.805-3.06,8.087-6.489,9.196-13.123c3.364-0.409,10.68-1.836,12.222-11.843c3.27,1.518,8.198,1.207,13.485-7.77c3.217-2.211,7.516-4.438,7.72-6.967"></path><path style="fill:none;stroke:#FFFFFF;stroke-width:3;stroke-linecap:round;stroke-linejoin:round;" d="M189.427,209.13c0,0-6.104,2.131-7.734,14.305"></path><path style="fill:none;stroke:#FFFFFF;stroke-width:3;stroke-linecap:round;stroke-linejoin:round;" d="M188.688,216.358c0,0-2.686-2.848-9.192-3.598c-4.006,5.951-2.191,15.188-2.191,15.188"></path><path style="fill:none;stroke:#FFFFFF;stroke-width:3;stroke-linecap:round;stroke-linejoin:round;" d="M187.279,218.784c0,0-10.444-2.683-17.642,2.897c-11.542,8.945-8.965,19.037-8.965,19.037"></path><path style="fill:none;stroke:#FFFFFF;stroke-width:3;stroke-linecap:round;stroke-linejoin:round;" d="M167.658,234.821c0,0-5.564-2.207-12.405-1.027c-4.107,7.276-2.688,17.041-2.688,17.041"></path><path style="fill:none;stroke:#FFFFFF;stroke-width:3;stroke-linecap:round;stroke-linejoin:round;" d="M164.82,238.35c0,0-8.208-2.049-14.489,4.657"></path><path style="fill:none;stroke:#FFFFFF;stroke-width:2;stroke-linecap:round;stroke-linejoin:round;" d="M160.748,214.108c0,0,2.792-6.777,5.542-7.898c2.75-1.122,4.464,1.02,6.002-0.807c1.539-1.826,1.611-5.195,3.761-6.308c2.149-1.113,3.517,1.994,5.669,1.123c2.153-0.873,1.739-4.596,3.412-5.342c1.675-0.746,3.041,2.363,3.041,2.363"></path><path style="fill:none;stroke:#FFFFFF;stroke-width:2;stroke-linecap:round;stroke-linejoin:round;" d="M162.741,210.471c0,0,3.377,0.553,5.043-0.673c1.667-1.227,1.341-7.237,3.256-7.866c1.917-0.628,5.682,1.965,7.354,1.1c1.672-0.867,1.845-5.561,3.279-6.303c1.433-0.742,4.136,3.189,6.177,3.041"></path><path style="fill:none;stroke:#E1E1E1;stroke-width:3;stroke-linecap:round;stroke-linejoin:round;" d="M108.152,284.384c0,0,2.677-5.815,5.073-6.572c2.396-0.755,5.597-0.312,5.597-0.312s1.034-3.735,3.824-5.323c3.308-1.879,4.523,0.151,4.523,0.151s1.774-4.186,4.41-4.943c2.635-0.761,4.501,0.103,4.501,0.103"></path><g><g><g id="hair3XMLID_5_"><g><path style="fill:none;stroke:#000000;stroke-linecap:round;stroke-linejoin:round;" d="M169.389,233.671c2.508-1.234,3.641-1.813,3.641-1.813s7.671,31.349,5.532,33.185c-2.14,1.833-5.005,3.317-5.005,3.317s-2.567-2.851-4.382-3.547c-1.276-0.487-19.195-2.256-24.854-0.256c-2.342,0.829-4.823,1.874-7.231,3.178c-8.236,4.45-28.986,17.375-33.64,19.967c9.217-11.68,11.32-16.04,15.573-21.513c3.701-4.758,17.16-16.515,30.521-23.171"></path><path style="fill:none;stroke:#000000;stroke-linecap:round;stroke-linejoin:round;" d="M189.555,205.134c0.042-0.03,0.1-0.059,0.143-0.088c-0.295-1.44-0.606-2.98-0.916-4.549"></path><path style="fill:none;stroke:#000000;stroke-linecap:round;stroke-linejoin:round;" d="M182.954,168.344c-0.317-0.962-0.693-2.055-1.125-3.016c-1.824-1.417-7.247-2.063-14.123-3.408c-7.562,1.189-23.321,9.714-36.929,17.125s-21.063,16.179-22.511,15.838c-1.449-0.34,2.266,7.186,13.854,9.909c11.182,2.628,15.922,0.972,16.253,0.852c0,0,0,0-0.014,0.014c-0.185,0.292-2.44,4.092,6.961,6.384c7.934-0.474,10.215,7.795,9.823,14.657c0.058-0.044,0.114-0.074,0.171-0.118"></path><path style="fill:none;stroke:#000000;stroke-linecap:round;stroke-linejoin:round;" d="M148.48,205.861c0,0,11.524-22.091,21.719-31.894"></path><path style="fill:none;stroke:#000000;stroke-linecap:round;stroke-linejoin:round;" d="M185.011,177.915l0.957-0.735c0,0-0.127-0.734-0.373-1.8c-0.477-2.087-1.391-5.452-2.641-7.036c-0.338-0.442-0.703-0.741-1.095-0.851c-2.536-0.686-10.798,1.958-10.798,1.958s-0.877,2.308-0.861,4.516c0.008,0.563,0.074,1.11,0.227,1.628c0.561,1.854,5.06,2.483,7.81,3.988"></path><path style="fill:none;stroke:#000000;stroke-linecap:round;stroke-linejoin:round;" d="M178.236,179.584c-0.201,0.191-0.372,0.381-0.527,0.6c0,0-12.339,20.559-22.395,46.396c-2.061,5.298-4.033,10.826-5.771,16.438c-2.196,7.063-4.041,14.276-5.284,21.369c2.156-0.754,4.207-8.723,4.207-8.723s7.898-2.999,9.559-13.128c4.845,0.582,9.05-3.16,11.365-8.866c0.279-0.682,0.527-1.394,0.75-2.132c0.912,0.319,1.896,0.42,2.891,0.319c4.47-0.367,9.276-4.492,10.691-9.535c6.458-2.618,7.474-7.324,7.474-7.324l-1.641-9.865l-0.773-4.638l-3.771-22.582l-0.127-0.72c0,0-0.056,0.001-0.187,0.017C183.833,177.311,180.101,177.797,178.236,179.584z"></path></g></g></g></g></g><g><g><path style="fill:#FE5E70;stroke:#000000;stroke-linecap:round;stroke-linejoin:round;" d="M168.668,315.905c0,0-43.701-32.735-64.782-28.259c13.918-12.313,25.059-16.018,25.059-16.018s36.404,7.26,56.339,36.918c-2.607,5.427-6.723,12.847-5.76,16.211c-1.853,2.611-4.394,2.819-4.394,2.819L168.668,315.905z"></path></g><g><path style="fill:none;stroke:#FFFFFF;stroke-width:2;stroke-linecap:round;stroke-linejoin:round;" d="M183.682,310.36c0,0,0.944-3.688-1.34-5.357c-2.284-1.668-4.26-1.36-4.26-1.36s0.279-3.08-1.472-4.578s-3.442-0.981-3.442-0.981s0.164-3.821-2.329-5.204s-4.562-0.049-4.562-0.049s-0.616-3.952-2.784-4.879c-2.168-0.928-4.392-0.581-4.392-0.581s-0.994-3.135-2.916-4.101c-1.922-0.966-4.601-0.295-4.601-0.295s-0.539-3.459-2.877-3.854c-2.338-0.395-5.017,0.275-5.017,0.275s-0.253-3.25-2.383-3.93c-2.13-0.681-3.628,1.071-3.628,1.071s-1.488-3.058-3.086-3.568c-1.597-0.51-3.875,1.11-3.875,1.11l-3.155,0.042"></path><path style="fill:none;stroke:#FFFFFF;stroke-width:2;stroke-linecap:round;stroke-linejoin:round;" d="M109.354,284.745c0,0,1.029,1.737,3.511,2.236s4.625-1.985,4.625-1.985s-1.885,3.329,2.005,4.748c3.89,1.418,5.261-1.958,5.261-1.958s0.616,3.952,3.421,4.906c2.184,0.743,3.737-1.027,3.737-1.027s0.612,2.921,3.197,4.122c2.584,1.201,4.885-0.519,4.885-0.519s0.655,3.348,2.886,4.115c2.229,0.771,5.226-0.561,5.226-0.561s0.654,4.433,2.639,5.258c1.986,0.826,4.609-0.035,4.609-0.035s-0.049,4.554,2.312,4.779c2.362,0.227,4.985-0.634,4.985-0.634s-0.951,3.189,1.989,5.009c2.097,1.297,4.218,0.277,4.218,0.277s-1.333,2.815,0.951,4.483c2.284,1.668,3.555,0.079,3.555,0.079s-1.468,2.759,0.646,4.959c2.114,2.201,3.388,2.256,3.388,2.256"></path><path style="fill:none;stroke:#FFFFFF;stroke-width:2;stroke-linecap:round;stroke-linejoin:round;" d="M179.042,322.807c0,0-16.304-18.038-38.499-28.413s-30.026-10.842-30.026-10.842"></path><path style="fill:none;stroke:#FFFFFF;stroke-width:2;stroke-linecap:round;stroke-linejoin:round;" d="M183.855,311.473c-0.058-0.371-11.139-15.471-30.716-25.831s-31.001-11.309-31.001-11.309"></path></g></g></g><g><path style="fill:#E04052;stroke:#000000;stroke-linecap:round;stroke-linejoin:round;" d="M324.869,327.577c0,0,12.771,3.047,20.326,2.09c-3.494-15.043-10.425-22.139-10.425-22.139S323.98,321.602,324.869,327.577z"></path><path style="fill:#E04052;stroke:#000000;stroke-linecap:round;stroke-linejoin:round;" d="M396.113,287.646c0,0-7.836,12.838-20.684,19.563c-9.267-9.416-9.673-18.894-9.673-18.894S390.277,284.415,396.113,287.646z"></path><g><linearGradient id="hair3XMLID_1487_" gradientUnits="userSpaceOnUse" x1="386.1523" y1="347.1348" x2="386.1523" y2="394.1887" gradientTransform="matrix(-0.9881 -0.1539 -0.1539 0.9881 780.9738 24.6234)"><stop offset="0" style="stop-color:#FCFCE4"></stop><stop offset="0.5" style="stop-color:#A0C8DD"></stop><stop offset="1" style="stop-color:#5D6EC5"></stop></linearGradient><path style="fill:url(#hair3XMLID_1487_);stroke:#1E1E1E;stroke-linecap:round;stroke-linejoin:round;" d="M332.064,161.633c-0.656,1.504,7.438,11.615,16.898,25.759c9.461,14.145,12.992,16.078,14.199,27.654c1.204,11.577-2.143,43.646,0.373,52.211c4.01,6.938,14.323,23.737,17.1,42.301c4.133,27.628-0.178,58.202-0.178,58.202s-24.756-3.642-46.989-67.251c-17.901-51.216-6.021-65.167-8.692-81.984c-2.671-16.817-3.574-40.563-1.291-44.372C325.769,170.345,332.064,161.633,332.064,161.633z"></path><linearGradient id="hair3XMLID_1488_" gradientUnits="userSpaceOnUse" x1="377.4678" y1="347.3457" x2="377.4678" y2="394.6276" gradientTransform="matrix(-0.9881 -0.1539 -0.1539 0.9881 780.9738 24.6234)"><stop offset="0" style="stop-color:#FCFCE4"></stop><stop offset="0.5" style="stop-color:#A0C8DD"></stop><stop offset="1" style="stop-color:#5D6EC5"></stop></linearGradient><path style="fill:url(#hair3XMLID_1488_);stroke:#1E1E1E;stroke-linecap:round;stroke-linejoin:round;" d="M346.48,305.878c-0.281,1.695,13.369,36.668-20.478,53.431c18.162,7.856,42.705-5.924,47.187-35.648"></path><g><linearGradient id="hair3XMLID_1489_" gradientUnits="userSpaceOnUse" x1="346.7832" y1="347.002" x2="346.7832" y2="394.3193" gradientTransform="matrix(-0.9881 -0.1539 -0.1539 0.9881 780.9738 24.6234)"><stop offset="0" style="stop-color:#FCFCE4"></stop><stop offset="0.5" style="stop-color:#A0C8DD"></stop><stop offset="1" style="stop-color:#5D6EC5"></stop></linearGradient><path style="fill:url(#hair3XMLID_1489_);stroke:#1E1E1E;stroke-linecap:round;stroke-linejoin:round;" d="M392.324,376.705c0,0-12.269,19.383-38.473,14.978c25.844-12.393,31.466-39.649,22.823-57.601c1.729-15.737,5.505-24.36,5.505-24.36S405.736,350.886,392.324,376.705z"></path><linearGradient id="hair3XMLID_1490_" gradientUnits="userSpaceOnUse" x1="358.8672" y1="347.2314" x2="358.8672" y2="394.4653" gradientTransform="matrix(-0.9881 -0.1539 -0.1539 0.9881 780.9738 24.6234)"><stop offset="0" style="stop-color:#FCFCE4"></stop><stop offset="0.5" style="stop-color:#A0C8DD"></stop><stop offset="1" style="stop-color:#5D6EC5"></stop></linearGradient><path style="fill:url(#hair3XMLID_1490_);stroke:#1E1E1E;stroke-linecap:round;stroke-linejoin:round;" d="M363.517,267.568c0,0,15.076,32.745,9.626,55.153c-5.451,22.409-15.017,42.763-42.113,47.201c13.943,6.509,30.975,0.318,35.929-4.519c-3.214,15.031-15.903,21.957-20.746,22.891c22.429-1.069,43.292-20.595,43.288-54.011c7.037,16.216,8.852,27.99,2.824,42.421C417.982,335.834,363.517,267.568,363.517,267.568z"></path></g></g><g><path style="fill:#FE5E70;" d="M310.445,205.134c-0.042-0.03-0.1-0.059-0.143-0.088c0.295-1.44,0.605-2.98,0.916-4.549l3.771-22.582l-0.956-0.735c0,0,0.127-0.734,0.372-1.8c0.478-2.087,1.391-5.452,2.641-7.036c0.317-0.962,0.692-2.055,1.126-3.016c1.824-1.417,7.246-2.063,14.123-3.408c7.561,1.189,23.32,9.714,36.928,17.125c13.608,7.411,21.063,16.179,22.512,15.838c1.449-0.34-2.267,7.186-13.854,9.909c-11.182,2.628-15.923,0.972-16.239,0.866c0.186,0.292,2.441,4.092-6.961,6.384c-7.934-0.474-10.215,7.795-9.822,14.657c-0.058-0.044-0.113-0.074-0.172-0.118c2.062,5.298,4.033,10.826,5.771,16.438c13.361,6.656,26.82,18.413,30.521,23.171c4.253,5.473,6.355,9.833,15.572,21.513c-4.653-2.592-25.402-15.517-33.639-19.967c-2.408-1.304-4.89-2.349-7.231-3.178c-5.659-2-23.579-0.231-24.854,0.256c-1.815,0.696-4.383,3.547-4.383,3.547s-2.865-1.484-5.005-3.317c-2.14-1.836,5.532-33.185,5.532-33.185s1.133,0.579,3.641,1.813c-0.279-0.682-0.527-1.394-0.75-2.132c-0.912,0.319-1.896,0.42-2.891,0.319c-4.471-0.367-9.276-4.492-10.691-9.535c-6.459-2.618-7.475-7.324-7.475-7.324L310.445,205.134z"></path><path style="fill:#E04052;" d="M327.374,164.624c0.159,0.502,14.505,11.542,20.194,33.457c-5.396-7.411-19.32-24.61-19.32-24.61L327.374,164.624z"></path><path style="fill:#E04052;" d="M350.266,242.957l5.477,21.431c0,0,12.3,6.16,19.24,10.425c6.939,4.265,21.159,12.468,21.159,12.468s-11.087-17.492-17.004-23.41C373.222,257.951,351.428,243.307,350.266,242.957z"></path><path style="fill:#E04052;" d="M327.576,232.633c0,0,2.64,13.707,6.946,15.6c4.307,1.895,6.141,1.921,6.141,1.921s1.903,6.861,6.709,8.765c4.807,1.9,5.8,2.414,5.8,2.414l-1.637-5.668c0,0-4.77-0.923-6.385-4.612c-1.614-3.691-3.174-8.516-3.174-8.516s-4.173,0.746-7.833-2.81c-2.96-2.876-3.532-6.057-3.532-6.057L327.576,232.633z"></path><path style="fill:#E04052;" d="M328.548,175.975c0,0,7.317,12.939,7.235,30.439c-3.555-7.885-14.279-27.372-14.279-27.372L328.548,175.975z"></path><g><g><path style="fill:none;stroke:#FFFFFF;stroke-width:2;stroke-linecap:round;stroke-linejoin:round;" d="M352.49,171.35c0,0,0.576,1.933-1.123,2.871c-1.697,0.938-2.988-1.366-4.443-0.544s-0.166,3.245-1.744,4.306c-1.579,1.06-4.316-1.143-5.171-0.193c-0.855,0.95-0.67,4.802-1.88,5.267"></path><path style="fill:none;stroke:#FFFFFF;stroke-width:2;stroke-linecap:round;stroke-linejoin:round;" d="M349.984,169.991c0,0,0.905,3.982-0.203,5.771c-1.107,1.789-5.514-1.402-6.615-0.093c-1.101,1.307,0.289,5.055-0.926,5.88c-1.215,0.825-5.264-2.121-6.354-1.534"></path></g></g><path style="fill:none;stroke:#FFFFFF;stroke-width:3;stroke-linecap:round;stroke-linejoin:round;" d="M390.051,194.86c0,0-2.975,5.902-12.15,8.489c-8.938,2.52-18.062,1.187-18.062,1.187s1.88,3.155-1.999,5.265s-8.06-0.021-10.385,2.739c-4.404,5.231-3.763,10.774-3.763,10.774"></path><path style="fill:none;stroke:#FFFFFF;stroke-width:3;stroke-linecap:round;stroke-linejoin:round;" d="M383.154,189.228c0,0-7.035,3.991-9.584,14.059"></path><path style="fill:none;stroke:#FFFFFF;stroke-width:3;stroke-linecap:round;stroke-linejoin:round;" d="M385.9,199.131c0,0-6.873-7.316-16.018-7.205c-3.214,5.97-4.26,11.97-4.26,11.97"></path><path style="fill:none;stroke:#FFFFFF;stroke-width:3;stroke-linecap:round;stroke-linejoin:round;" d="M381.532,201.716c0,0-6.48-1.055-11.505-3.051s-10.567-1.354-14.467,2.201c-3.9,3.554-3.483,8.13-3.483,8.13"></path><path style="fill:none;stroke:#FFFFFF;stroke-width:2;stroke-linecap:round;stroke-linejoin:round;" d="M348.814,201.613c0,0-1.834,1.898-3.52,2.115c-1.688,0.217-2.449-5.448-3.416-5.102c-0.969,0.348-2.925,2.605-4.006,2.47c-1.08-0.135-1.142-4.347-2.585-4.367c-1.443-0.02-3.268,1.397-3.268,1.397"></path><path style="fill:none;stroke:#FFFFFF;stroke-width:2;stroke-linecap:round;stroke-linejoin:round;" d="M348.279,205.335c0,0-1.362-5.794-2.563-5.932c-1.199-0.138-3.78,3.676-5.099,3.296c-1.318-0.379-1.131-5.069-2.209-5.325c-1.08-0.255-3.894,3.073-4.253,2.947c-0.36-0.125-2.836-3.649-2.836-3.649"></path><path style="fill:none;stroke:#FFFFFF;stroke-width:3;stroke-linecap:round;stroke-linejoin:round;" d="M354.219,261.479c0,0-1.139-4.589-1.819-7.485c-3.806-3.06-8.087-6.489-9.196-13.123c-3.363-0.409-10.68-1.836-12.222-11.843c-3.271,1.518-8.198,1.207-13.485-7.77c-3.217-2.211-7.516-4.438-7.72-6.967"></path><path style="fill:none;stroke:#FFFFFF;stroke-width:3;stroke-linecap:round;stroke-linejoin:round;" d="M310.572,209.13c0,0,6.104,2.131,7.734,14.305"></path><path style="fill:none;stroke:#FFFFFF;stroke-width:3;stroke-linecap:round;stroke-linejoin:round;" d="M311.312,216.358c0,0,2.687-2.848,9.192-3.598c4.006,5.951,2.191,15.188,2.191,15.188"></path><path style="fill:none;stroke:#FFFFFF;stroke-width:3;stroke-linecap:round;stroke-linejoin:round;" d="M312.721,218.784c0,0,10.443-2.683,17.643,2.897c11.541,8.945,8.965,19.037,8.965,19.037"></path><path style="fill:none;stroke:#FFFFFF;stroke-width:3;stroke-linecap:round;stroke-linejoin:round;" d="M332.342,234.821c0,0,5.564-2.207,12.405-1.027c4.106,7.276,2.688,17.041,2.688,17.041"></path><path style="fill:none;stroke:#FFFFFF;stroke-width:3;stroke-linecap:round;stroke-linejoin:round;" d="M335.18,238.35c0,0,8.207-2.049,14.488,4.657"></path><path style="fill:none;stroke:#FFFFFF;stroke-width:2;stroke-linecap:round;stroke-linejoin:round;" d="M339.252,214.108c0,0-2.791-6.777-5.542-7.898c-2.749-1.122-4.464,1.02-6.003-0.807c-1.539-1.826-1.611-5.195-3.761-6.308s-3.517,1.994-5.669,1.123c-2.154-0.873-1.739-4.596-3.412-5.342c-1.676-0.746-3.041,2.363-3.041,2.363"></path><path style="fill:none;stroke:#FFFFFF;stroke-width:2;stroke-linecap:round;stroke-linejoin:round;" d="M337.26,210.471c0,0-3.378,0.553-5.044-0.673c-1.667-1.227-1.341-7.237-3.257-7.866c-1.916-0.628-5.682,1.965-7.354,1.1c-1.672-0.867-1.845-5.561-3.279-6.303c-1.433-0.742-4.135,3.189-6.177,3.041"></path><path style="fill:none;stroke:#E1E1E1;stroke-width:3;stroke-linecap:round;stroke-linejoin:round;" d="M391.848,284.384c0,0-2.677-5.815-5.072-6.572c-2.396-0.755-5.598-0.312-5.598-0.312s-1.033-3.735-3.824-5.323c-3.307-1.879-4.522,0.151-4.522,0.151s-1.774-4.186-4.41-4.943c-2.636-0.761-4.501,0.103-4.501,0.103"></path><g><g><g id="hair3XMLID_64_"><g><path style="fill:none;stroke:#000000;stroke-linecap:round;stroke-linejoin:round;" d="M330.611,233.671c-2.508-1.234-3.641-1.813-3.641-1.813s-7.672,31.349-5.532,33.185c2.14,1.833,5.005,3.317,5.005,3.317s2.567-2.851,4.383-3.547c1.275-0.487,19.195-2.256,24.854-0.256c2.342,0.829,4.823,1.874,7.231,3.178c8.236,4.45,28.985,17.375,33.639,19.967c-9.217-11.68-11.319-16.04-15.572-21.513c-3.701-4.758-17.16-16.515-30.521-23.171"></path><path style="fill:none;stroke:#000000;stroke-linecap:round;stroke-linejoin:round;" d="M310.445,205.134c-0.042-0.03-0.1-0.059-0.143-0.088c0.295-1.44,0.605-2.98,0.916-4.549"></path><path style="fill:none;stroke:#000000;stroke-linecap:round;stroke-linejoin:round;" d="M317.046,168.344c0.317-0.962,0.692-2.055,1.126-3.016c1.824-1.417,7.246-2.063,14.123-3.408c7.561,1.189,23.32,9.714,36.928,17.125c13.608,7.411,21.063,16.179,22.512,15.838c1.449-0.34-2.267,7.186-13.854,9.909c-11.182,2.628-15.923,0.972-16.253,0.852c0,0,0,0,0.014,0.014c0.186,0.292,2.441,4.092-6.961,6.384c-7.934-0.474-10.215,7.795-9.822,14.657c-0.058-0.044-0.113-0.074-0.172-0.118"></path><path style="fill:none;stroke:#000000;stroke-linecap:round;stroke-linejoin:round;" d="M351.52,205.861c0,0-11.523-22.091-21.719-31.894"></path><path style="fill:none;stroke:#000000;stroke-linecap:round;stroke-linejoin:round;" d="M314.989,177.915l-0.956-0.735c0,0,0.127-0.734,0.372-1.8c0.478-2.087,1.391-5.452,2.641-7.036c0.339-0.442,0.702-0.741,1.095-0.851c2.535-0.686,10.799,1.958,10.799,1.958s0.877,2.308,0.861,4.516c-0.009,0.563-0.074,1.11-0.227,1.628c-0.561,1.854-5.061,2.483-7.811,3.988"></path><path style="fill:none;stroke:#000000;stroke-linecap:round;stroke-linejoin:round;" d="M321.764,179.584c0.201,0.191,0.373,0.381,0.527,0.6c0,0,12.34,20.559,22.395,46.396c2.062,5.298,4.033,10.826,5.771,16.438c2.197,7.063,4.041,14.276,5.285,21.369c-2.156-0.754-4.207-8.723-4.207-8.723s-7.898-2.999-9.559-13.128c-4.845,0.582-9.05-3.16-11.365-8.866c-0.279-0.682-0.527-1.394-0.75-2.132c-0.912,0.319-1.896,0.42-2.891,0.319c-4.471-0.367-9.276-4.492-10.691-9.535c-6.459-2.618-7.475-7.324-7.475-7.324l1.641-9.865l0.773-4.638l3.771-22.582l0.127-0.72c0,0,0.056,0.001,0.187,0.017C316.167,177.311,319.898,177.797,321.764,179.584z"></path></g></g></g></g></g><g><g><path style="fill:#FE5E70;stroke:#000000;stroke-linecap:round;stroke-linejoin:round;" d="M331.332,315.905c0,0,43.7-32.735,64.781-28.259c-13.918-12.313-25.059-16.018-25.059-16.018s-36.404,7.26-56.34,36.918c2.607,5.427,6.724,12.847,5.761,16.211c1.853,2.611,4.394,2.819,4.394,2.819L331.332,315.905z"></path></g><g><path style="fill:none;stroke:#FFFFFF;stroke-width:2;stroke-linecap:round;stroke-linejoin:round;" d="M316.318,310.36c0,0-0.944-3.688,1.34-5.357c2.284-1.668,4.26-1.36,4.26-1.36s-0.279-3.08,1.473-4.578s3.441-0.981,3.441-0.981s-0.164-3.821,2.329-5.204s4.562-0.049,4.562-0.049s0.616-3.952,2.785-4.879c2.168-0.928,4.391-0.581,4.391-0.581s0.994-3.135,2.916-4.101s4.601-0.295,4.601-0.295s0.538-3.459,2.878-3.854c2.338-0.395,5.017,0.275,5.017,0.275s0.253-3.25,2.384-3.93c2.129-0.681,3.628,1.071,3.628,1.071s1.488-3.058,3.086-3.568c1.597-0.51,3.875,1.11,3.875,1.11l3.155,0.042"></path><path style="fill:none;stroke:#FFFFFF;stroke-width:2;stroke-linecap:round;stroke-linejoin:round;" d="M390.646,284.745c0,0-1.029,1.737-3.511,2.236s-4.625-1.985-4.625-1.985s1.885,3.329-2.004,4.748c-3.891,1.418-5.262-1.958-5.262-1.958s-0.615,3.952-3.421,4.906c-2.184,0.743-3.737-1.027-3.737-1.027s-0.611,2.921-3.197,4.122c-2.584,1.201-4.885-0.519-4.885-0.519s-0.654,3.348-2.886,4.115c-2.229,0.771-5.226-0.561-5.226-0.561s-0.654,4.433-2.64,5.258c-1.985,0.826-4.609-0.035-4.609-0.035s0.049,4.554-2.312,4.779c-2.362,0.227-4.985-0.634-4.985-0.634s0.95,3.189-1.989,5.009c-2.097,1.297-4.218,0.277-4.218,0.277s1.333,2.815-0.951,4.483s-3.555,0.079-3.555,0.079s1.468,2.759-0.646,4.959c-2.114,2.201-3.389,2.256-3.389,2.256"></path><path style="fill:none;stroke:#FFFFFF;stroke-width:2;stroke-linecap:round;stroke-linejoin:round;" d="M320.957,322.807c0,0,16.305-18.038,38.499-28.413s30.026-10.842,30.026-10.842"></path><path style="fill:none;stroke:#FFFFFF;stroke-width:2;stroke-linecap:round;stroke-linejoin:round;" d="M316.145,311.473c0.058-0.371,11.139-15.471,30.717-25.831c19.577-10.36,31-11.309,31-11.309"></path></g></g></g></g></g></svg>