<svg xmlns="http://www.w3.org/2000/svg" width="500" height="500" version="1.1"><g id="x9165"><g><g><linearGradient id="hair3XMLID_1491_" gradientUnits="userSpaceOnUse" x1="365.25" y1="137.4238" x2="365.25" y2="222.6365"><stop offset="0" style="stop-color:#FCFCE4"></stop><stop offset="0.5" style="stop-color:#A0C8DD"></stop><stop offset="1" style="stop-color:#5D6EC5"></stop></linearGradient><path style="fill:url(#hair3XMLID_1491_);stroke:#1E1E1E;stroke-linecap:round;stroke-linejoin:round;" d="M314.825,94.332l25.455,6.94l18.155,38.82l10.146,72.652c0,0-7.108,51.519-6.22,70.289C374.802,349.728,437,308.992,437,308.992c-7.108,15.575-31.797,49.046-76.667,30.675c-40.666-14.667-23.738-49.845-24.183-55.835c-0.445-5.991,19.412-42.345,17.327-60.704c-1.568-13.807-33.811-43.461-34.21-95.449L293.5,101.32"></path><linearGradient id="hair3XMLID_1492_" gradientUnits="userSpaceOnUse" x1="348.3535" y1="137.9658" x2="348.3535" y2="222.8127"><stop offset="0" style="stop-color:#FCFCE4"></stop><stop offset="0.5" style="stop-color:#A0C8DD"></stop><stop offset="1" style="stop-color:#5D6EC5"></stop></linearGradient><path style="fill:url(#hair3XMLID_1492_);stroke:#1E1E1E;stroke-linecap:round;stroke-linejoin:round;" d="M322.673,101.986c24.288,26.092,34.95,79.874,37.32,119.278c1.206,20.081,7.972,38.693,6.865,46.827c-3.607,26.523-25.258,36.338-25.229,61.535c0.037,32.04,36.037,32.04,36.037,32.04s-22-6.667-20.637-28.313c32.637-17.021,39.394-51.314,38.366-57.433c2.203-4.24,3.582-8.693,4.112-12.982c1.572-12.707-10.189-20.109-19.509-30.438c-4.149-4.6-5.918-10.73-6.639-15.858c1.166-23.761,3.449-49.078,3.218-65.001c-0.141-9.651-1.387-16.285-5.331-27.157c-11.809-32.542-30.253-44.198-37.319-47.259c-1.782-0.771-3.11-0.266-3.11-0.266c-27.1,9.186-33.764,24.761-33.764,24.761 M373.147,226.895c7.205,15.429,17.022,19.212,18.353,32.605c0.086,1.568,0.079,3.082-0.003,4.545C385.296,250.569,374.455,237.4,373.147,226.895z"></path><path style="fill:none;stroke:#000000;stroke-linecap:round;stroke-linejoin:round;" d="M395.396,275.921c0,0-3.396,7.412-7.396,13.079"></path><path style="fill:none;stroke:#000000;stroke-linecap:round;stroke-linejoin:round;" d="M357.03,333.354c0,0-4.363-15.021,21.637-34.354"></path><linearGradient id="hair3XMLID_1493_" gradientUnits="userSpaceOnUse" x1="321.1934" y1="135.5313" x2="321.1934" y2="217.0004"><stop offset="0" style="stop-color:#FCFCE4"></stop><stop offset="0.5" style="stop-color:#A0C8DD"></stop><stop offset="1" style="stop-color:#5D6EC5"></stop></linearGradient><path style="fill:url(#hair3XMLID_1493_);stroke:#1E1E1E;stroke-linecap:round;stroke-linejoin:round;" d="M299.868,96.395c0,0,9.849-7.188,23.103-7.188c10.366,0,19.548,6.39,19.548,6.39"></path><linearGradient id="hair3XMLID_1494_" gradientUnits="userSpaceOnUse" x1="364.8164" y1="135.5322" x2="364.8164" y2="217.0035"><stop offset="0" style="stop-color:#FCFCE4"></stop><stop offset="0.5" style="stop-color:#A0C8DD"></stop><stop offset="1" style="stop-color:#5D6EC5"></stop></linearGradient><path style="fill:url(#hair3XMLID_1494_);stroke:#1E1E1E;stroke-linecap:round;stroke-linejoin:round;" d="M355.551,129.676c0.592,1.065,21.917,39.405,18.066,69.224"></path></g><g><path style="fill:#2A201F;stroke:#000000;stroke-linecap:round;stroke-linejoin:round;" d="M318,161.5l12.5-1.5c0,0,3-7.5,5-19.5c-3.756-10.798-14.113-26.484-16-29c-1.5-2-13-3.5-13-3.5s-4.5-9-8.5-10.5s-14-1-17-1.5s-7.25,5.25-9,8.5s-1.5,8.5-1.5,8.5L318,161.5z"></path><path style="fill:#3B2F2E;" d="M319.25,157c0,0,7.75-2.5,9.25-4.25c1.75-7.75-1-18.25-1-18.25L316,152.25L319.25,157z"></path><path style="fill:#3B2F2E;" d="M308,109.5c0,0,7.75,0.5,8.75,2.25c1,8.5-2.5,15.25-2.5,15.25C311.25,122.5,308,109.5,308,109.5z"></path><path style="fill:#3B2F2E;" d="M291.25,110.75c0,0,3,8.5,4.25,9.75c6,1.5,12.75,5,12.75,5S296,112.5,291.25,110.75z"></path><path style="fill:#3B2F2E;" d="M279.75,117.5c0,0,7-6.25,8.5-6c1,6.75,2.25,12.75,2.25,12.75L279.75,117.5z"></path><path style="fill:none;stroke:#000000;stroke-linecap:round;stroke-linejoin:round;" d="M289.25,114.75c0,0,1.75,7.5,4.25,10.75"></path><path style="fill:#3B2F2E;stroke:#000000;stroke-linecap:round;stroke-linejoin:round;" d="M309.5,128.5c0.25,1,2.25,5.25,0.75,13.75"></path></g></g></g></svg>