<svg xmlns="http://www.w3.org/2000/svg" width="500" height="500" version="1.1"><g id="x9171"><g><g><linearGradient id="hair3XMLID_1519_" gradientUnits="userSpaceOnUse" x1="120.0298" y1="458" x2="120.0298" y2="120.0008"><stop offset="0" style="stop-color:#FCFCE4"></stop><stop offset="0.5" style="stop-color:#A0C8DD"></stop><stop offset="1" style="stop-color:#5D6EC5"></stop></linearGradient><path style="fill:url(#hair3XMLID_1519_);stroke:#1E1E1E;stroke-linecap:round;stroke-linejoin:round;" d="M159.3,190.507c0.171,1.49,7.286,45.969-20.306,81.847c-20.709,26.929-54.684,40.999-57.57,99.207c-8.4-64.463,17.799-103.704,38.696-127.742C141.017,219.781,159.3,190.507,159.3,190.507z"></path><linearGradient id="hair3XMLID_1520_" gradientUnits="userSpaceOnUse" x1="99.8086" y1="458" x2="99.8086" y2="120.0005"><stop offset="0" style="stop-color:#FCFCE4"></stop><stop offset="0.5" style="stop-color:#A0C8DD"></stop><stop offset="1" style="stop-color:#5D6EC5"></stop></linearGradient><path style="fill:url(#hair3XMLID_1520_);stroke:#1E1E1E;stroke-linecap:round;stroke-linejoin:round;" d="M82.799,330.889c0.391,1.214,2.894,29.613,34.469,19.7c-4.238,11.307-19.14,18.889-34.918,9.29"></path><linearGradient id="hair3XMLID_1521_" gradientUnits="userSpaceOnUse" x1="70.2188" y1="458" x2="70.2187" y2="120.0003"><stop offset="0" style="stop-color:#FCFCE4"></stop><stop offset="0.5" style="stop-color:#A0C8DD"></stop><stop offset="1" style="stop-color:#5D6EC5"></stop></linearGradient><path style="fill:url(#hair3XMLID_1521_);stroke:#1E1E1E;stroke-linecap:round;stroke-linejoin:round;" d="M113.37,224.462c-6.687,5.262-14.398,10.525-22.403,15.959c-25.154,17.075-53.187,35.838-61.306,61.585c-10.702,33.94,14.582,48.152,23.85,45.579c-15.985-7.729-28.45-50.588,38.01-103.002"></path><linearGradient id="hair3XMLID_1522_" gradientUnits="userSpaceOnUse" x1="103.6323" y1="458" x2="103.6323" y2="120.0011"><stop offset="0" style="stop-color:#FCFCE4"></stop><stop offset="0.5" style="stop-color:#A0C8DD"></stop><stop offset="1" style="stop-color:#5D6EC5"></stop></linearGradient><path style="fill:url(#hair3XMLID_1522_);stroke:#1E1E1E;stroke-linecap:round;stroke-linejoin:round;" d="M34.677,308.589c4.18-8.405,16.704-37.311,40.598-56.473c24.561-17.778,49.375-41.899,61.583-70.455c12.208-28.555,10.505-37.051,19.407-43.936s23.057-8.765,24.278-6.957c0,0,6.796,5.349,5.124,12.231c-4.607,18.954-22.85,57.15-37.208,85.469c-15.914,31.385-64.3,54.509-66.261,120.035c-1.721,57.512,21.068,75.726,28.643,75.796c7.991,0.072,28.316-8.169,36.021-35.092c0.757,10.603-0.359,22.385-7.069,29.442c4.576-1.721,10.533-10.881,10.533-10.881s-4.204,30.26-34.928,36.413C38.867,459.511-1.333,381,34.677,308.589z"></path><path style="fill:none;stroke:#000000;stroke-linecap:round;stroke-linejoin:round;" d="M112.26,424.128c0,0-15.937,5.65-33.77-8.892"></path><linearGradient id="hair3XMLID_1523_" gradientUnits="userSpaceOnUse" x1="93.2944" y1="458" x2="93.2944" y2="119.9995"><stop offset="0" style="stop-color:#FCFCE4"></stop><stop offset="0.5" style="stop-color:#A0C8DD"></stop><stop offset="1" style="stop-color:#5D6EC5"></stop></linearGradient><path style="fill:url(#hair3XMLID_1523_);stroke:#1E1E1E;stroke-linecap:round;stroke-linejoin:round;" d="M72.684,285.417C43.667,328,42.307,377.185,82.819,392.796c26.503,10.212,45.29-1.505,52.196-15.886c-45.44,16.284-57.997-21.531-57.997-21.531"></path><linearGradient id="hair3XMLID_1524_" gradientUnits="userSpaceOnUse" x1="47.9165" y1="458" x2="47.9165" y2="119.9998"><stop offset="0" style="stop-color:#FCFCE4"></stop><stop offset="0.5" style="stop-color:#A0C8DD"></stop><stop offset="1" style="stop-color:#5D6EC5"></stop></linearGradient><path style="fill:url(#hair3XMLID_1524_);stroke:#1E1E1E;stroke-linecap:round;stroke-linejoin:round;" d="M40.167,289.5c0,1.5-17,44,28.5,59.5c-27.5,2-40-8.5-41.5-30"></path></g><g><linearGradient id="hair3XMLID_1525_" gradientUnits="userSpaceOnUse" x1="379.9688" y1="458" x2="379.9688" y2="120.0008"><stop offset="0" style="stop-color:#FCFCE4"></stop><stop offset="0.5" style="stop-color:#A0C8DD"></stop><stop offset="1" style="stop-color:#5D6EC5"></stop></linearGradient><path style="fill:url(#hair3XMLID_1525_);stroke:#1E1E1E;stroke-linecap:round;stroke-linejoin:round;" d="M340.7,190.507c-0.172,1.49-7.287,45.969,20.305,81.847c20.709,26.929,54.684,40.999,57.57,99.207c8.4-64.463-17.799-103.704-38.695-127.742C358.983,219.781,340.7,190.507,340.7,190.507z"></path><linearGradient id="hair3XMLID_1526_" gradientUnits="userSpaceOnUse" x1="400.1904" y1="458" x2="400.1904" y2="120.0005"><stop offset="0" style="stop-color:#FCFCE4"></stop><stop offset="0.5" style="stop-color:#A0C8DD"></stop><stop offset="1" style="stop-color:#5D6EC5"></stop></linearGradient><path style="fill:url(#hair3XMLID_1526_);stroke:#1E1E1E;stroke-linecap:round;stroke-linejoin:round;" d="M417.2,330.889c-0.391,1.214-2.893,29.613-34.469,19.7c4.238,11.307,19.141,18.889,34.918,9.29"></path><linearGradient id="hair3XMLID_1527_" gradientUnits="userSpaceOnUse" x1="429.7813" y1="458" x2="429.7813" y2="120.0003"><stop offset="0" style="stop-color:#FCFCE4"></stop><stop offset="0.5" style="stop-color:#A0C8DD"></stop><stop offset="1" style="stop-color:#5D6EC5"></stop></linearGradient><path style="fill:url(#hair3XMLID_1527_);stroke:#1E1E1E;stroke-linecap:round;stroke-linejoin:round;" d="M386.63,224.462c6.686,5.262,14.398,10.525,22.402,15.959c25.154,17.075,53.188,35.838,61.307,61.585c10.701,33.94-14.582,48.152-23.85,45.579c15.984-7.729,28.449-50.588-38.01-103.002"></path><linearGradient id="hair3XMLID_1528_" gradientUnits="userSpaceOnUse" x1="396.3672" y1="458" x2="396.3672" y2="120.0011"><stop offset="0" style="stop-color:#FCFCE4"></stop><stop offset="0.5" style="stop-color:#A0C8DD"></stop><stop offset="1" style="stop-color:#5D6EC5"></stop></linearGradient><path style="fill:url(#hair3XMLID_1528_);stroke:#1E1E1E;stroke-linecap:round;stroke-linejoin:round;" d="M465.323,308.589c-4.18-8.405-16.705-37.311-40.598-56.473c-24.561-17.778-49.375-41.899-61.584-70.455c-12.207-28.555-10.504-37.051-19.406-43.936s-23.057-8.765-24.279-6.957c0,0-6.795,5.349-5.123,12.231c4.607,18.954,22.85,57.15,37.207,85.469c15.914,31.385,64.301,54.509,66.262,120.035c1.721,57.512-21.068,75.726-28.643,75.796c-7.992,0.072-28.316-8.169-36.021-35.092c-0.758,10.603,0.359,22.385,7.068,29.442c-4.576-1.721-10.533-10.881-10.533-10.881s4.205,30.26,34.928,36.413C461.132,459.511,501.333,381,465.323,308.589z"></path><path style="fill:none;stroke:#000000;stroke-linecap:round;stroke-linejoin:round;" d="M387.739,424.128c0,0,15.938,5.65,33.77-8.892"></path><linearGradient id="hair3XMLID_1529_" gradientUnits="userSpaceOnUse" x1="406.7051" y1="458" x2="406.7051" y2="119.9995"><stop offset="0" style="stop-color:#FCFCE4"></stop><stop offset="0.5" style="stop-color:#A0C8DD"></stop><stop offset="1" style="stop-color:#5D6EC5"></stop></linearGradient><path style="fill:url(#hair3XMLID_1529_);stroke:#1E1E1E;stroke-linecap:round;stroke-linejoin:round;" d="M427.315,285.417c29.018,42.583,30.377,91.768-10.135,107.379c-26.504,10.212-45.291-1.505-52.197-15.886c45.441,16.284,57.998-21.531,57.998-21.531"></path><linearGradient id="hair3XMLID_1530_" gradientUnits="userSpaceOnUse" x1="452.083" y1="458" x2="452.083" y2="119.9998"><stop offset="0" style="stop-color:#FCFCE4"></stop><stop offset="0.5" style="stop-color:#A0C8DD"></stop><stop offset="1" style="stop-color:#5D6EC5"></stop></linearGradient><path style="fill:url(#hair3XMLID_1530_);stroke:#1E1E1E;stroke-linecap:round;stroke-linejoin:round;" d="M459.833,289.5c0,1.5,17,44-28.5,59.5c27.5,2,40-8.5,41.5-30"></path></g></g></g></svg>