<svg xmlns="http://www.w3.org/2000/svg" width="500" height="500" version="1.1"><g id="x9175"><g><g><g><linearGradient id="hair3XMLID_1543_" gradientUnits="userSpaceOnUse" x1="158.7061" y1="74.9419" x2="158.7061" y2="127.4644" gradientTransform="matrix(-0.975 -0.2223 -0.2223 0.975 365.264 55.0777)"><stop offset="0" style="stop-color:#FCFCE4"></stop><stop offset="0.5" style="stop-color:#A0C8DD"></stop><stop offset="1" style="stop-color:#5D6EC5"></stop></linearGradient><path style="fill:url(#hair3XMLID_1543_);stroke:#1E1E1E;stroke-linecap:round;stroke-linejoin:round;" d="M220.644,115.99c0,0-12.691-6.797-31.5-8.165c-0.385-0.028-1.02,0.584-1.412,0.56c-0.745-0.046-2.528-0.51-3.29-0.54c-3.086-0.12-6.278-0.487-9.469-0.135c-0.53,0.058-1.392,0.552-1.92,0.608c-0.572,0.061-1.596-0.248-2.161-0.177c-4.102,0.515-7.758,0.995-13.105,2.868c-8.796,31.172,3.458,59.006,9.274,68.599C190.801,159.846,220.644,115.99,220.644,115.99z"></path></g><path style="fill:none;stroke:#000000;stroke-linecap:round;stroke-linejoin:round;" d="M203.057,121.926c0,0-6.616-9.863-17.238-13.663"></path><path style="fill:none;stroke:#000000;stroke-linecap:round;stroke-linejoin:round;" d="M180.946,136.13c0,0,1.381-17.711-7.747-27.626"></path><g><linearGradient id="hair3XMLID_1544_" gradientUnits="userSpaceOnUse" x1="148.897" y1="69.3911" x2="148.897" y2="122.6112" gradientTransform="matrix(-0.9663 -0.2573 -0.2573 0.9663 368.053 66.5198)"><stop offset="0" style="stop-color:#FCFCE4"></stop><stop offset="0.5" style="stop-color:#A0C8DD"></stop><stop offset="1" style="stop-color:#5D6EC5"></stop></linearGradient><path style="fill:url(#hair3XMLID_1544_);stroke:#1E1E1E;stroke-linecap:round;stroke-linejoin:round;" d="M165.984,179.446c12.77-5.499,58.807-62.024,58.807-62.024l-1.153-1.564c-0.643-0.729-7.589-3.479-12.637-2.868c-2.425,2.286-5.28,7.248-5.28,7.248s-10.132-0.036-13.2,1.52c-1.39,3.119-2.78,6.24-2.78,6.24s-8.256,3.245-10.456,5.729c-0.67,3.033-1.006,7.968-1.006,7.968s-5.96,4.553-8.738,8.699c-0.396,2.546-0.805,5.648-0.805,5.648s-2.062,1.814-4.44,5.507c-0.949,6.408-1.321,13.867-1.141,15.154C163.175,176.846,165.984,179.446,165.984,179.446z"></path><g><path style="fill:none;stroke:#000000;stroke-linecap:round;stroke-linejoin:round;" d="M190.924,125.659c0,0-0.743,8.516-1.225,11.11"></path><path style="fill:none;stroke:#000000;stroke-linecap:round;stroke-linejoin:round;" d="M178.43,140.337c0,0,1.337,8.965,1.475,9.63"></path><path style="fill:none;stroke:#000000;stroke-linecap:round;stroke-linejoin:round;" d="M168.966,154.253c0,0,1.618,6.737,1.905,8.803"></path><path style="fill:none;stroke:#000000;stroke-linecap:round;stroke-linejoin:round;" d="M206.485,118.941c0,0-3.615,6.888-5.269,10.74"></path></g></g></g><g><g><linearGradient id="hair3XMLID_1545_" gradientUnits="userSpaceOnUse" x1="55.1938" y1="51.3413" x2="55.1938" y2="103.8638" gradientTransform="matrix(0.975 -0.2223 0.2223 0.975 240.9059 55.0777)"><stop offset="0" style="stop-color:#FCFCE4"></stop><stop offset="0.5" style="stop-color:#A0C8DD"></stop><stop offset="1" style="stop-color:#5D6EC5"></stop></linearGradient><path style="fill:url(#hair3XMLID_1545_);stroke:#1E1E1E;stroke-linecap:round;stroke-linejoin:round;" d="M279.356,115.99c0,0,12.691-6.797,31.499-8.165c0.386-0.028,1.021,0.584,1.411,0.56c0.746-0.046,2.529-0.51,3.291-0.54c3.086-0.12,6.277-0.487,9.469-0.135c0.529,0.058,1.392,0.552,1.92,0.608c0.571,0.061,1.596-0.248,2.16-0.177c4.103,0.515,7.759,0.995,13.105,2.868c8.797,31.172-3.458,59.006-9.274,68.599C309.199,159.846,279.356,115.99,279.356,115.99z"></path></g><path style="fill:none;stroke:#000000;stroke-linecap:round;stroke-linejoin:round;" d="M296.943,121.926c0,0,6.616-9.863,17.238-13.663"></path><path style="fill:none;stroke:#000000;stroke-linecap:round;stroke-linejoin:round;" d="M319.054,136.13c0,0-1.381-17.711,7.747-27.626"></path><g><linearGradient id="hair3XMLID_1546_" gradientUnits="userSpaceOnUse" x1="46.2993" y1="42.0728" x2="46.2993" y2="95.2925" gradientTransform="matrix(0.9663 -0.2573 0.2573 0.9663 238.1169 66.5198)"><stop offset="0" style="stop-color:#FCFCE4"></stop><stop offset="0.5" style="stop-color:#A0C8DD"></stop><stop offset="1" style="stop-color:#5D6EC5"></stop></linearGradient><path style="fill:url(#hair3XMLID_1546_);stroke:#1E1E1E;stroke-linecap:round;stroke-linejoin:round;" d="M334.017,179.446c-12.77-5.499-58.808-62.024-58.808-62.024l1.153-1.564c0.643-0.729,7.59-3.479,12.637-2.868c2.426,2.286,5.28,7.248,5.28,7.248s10.132-0.036,13.2,1.52c1.39,3.119,2.78,6.24,2.78,6.24s8.257,3.245,10.456,5.729c0.67,3.033,1.006,7.968,1.006,7.968s5.96,4.553,8.738,8.699c0.396,2.546,0.805,5.648,0.805,5.648s2.063,1.814,4.44,5.507c0.949,6.408,1.321,13.867,1.141,15.154C336.825,176.846,334.017,179.446,334.017,179.446z"></path><g><path style="fill:none;stroke:#000000;stroke-linecap:round;stroke-linejoin:round;" d="M309.076,125.659c0,0,0.743,8.516,1.226,11.11"></path><path style="fill:none;stroke:#000000;stroke-linecap:round;stroke-linejoin:round;" d="M321.569,140.337c0,0-1.337,8.965-1.475,9.63"></path><path style="fill:none;stroke:#000000;stroke-linecap:round;stroke-linejoin:round;" d="M331.034,154.253c0,0-1.618,6.737-1.906,8.803"></path><path style="fill:none;stroke:#000000;stroke-linecap:round;stroke-linejoin:round;" d="M293.515,118.941c0,0,3.615,6.888,5.269,10.74"></path></g></g></g></g></g></svg>