<svg xmlns="http://www.w3.org/2000/svg" width="500" height="500" version="1.1"><g id="x026"><g><g><linearGradient id="hair3XMLID_850_" gradientUnits="userSpaceOnUse" x1="181.6567" y1="385" x2="181.6567" y2="129.9996"><stop offset="0" style="stop-color:#FCFCE4"></stop><stop offset="0.5" style="stop-color:#A0C8DD"></stop><stop offset="1" style="stop-color:#5D6EC5"></stop></linearGradient><path style="fill:url(#hair3XMLID_850_);stroke:#1E1E1E;stroke-linecap:round;stroke-linejoin:round;" d="M192.113,297.693c0,0,3.095,13.922-8.896,15.083c1.548-4.642,1.548-6.575,1.548-6.575s-10.442,6.961-13.924-4.255c6.575,1.547,15.084,1.935,17.018-6.962C190.179,293.438,192.113,297.693,192.113,297.693z"></path><g><linearGradient id="hair3XMLID_851_" gradientUnits="userSpaceOnUse" x1="210.6831" y1="385" x2="210.6831" y2="130"><stop offset="0" style="stop-color:#FCFCE4"></stop><stop offset="0.5" style="stop-color:#A0C8DD"></stop><stop offset="1" style="stop-color:#5D6EC5"></stop></linearGradient><path style="fill:url(#hair3XMLID_851_);stroke:#1E1E1E;stroke-linecap:round;stroke-linejoin:round;" d="M185.195,243.737c-1.204,10.879,4.598,17.6,4.598,17.6c-4.795,7.612-3.829,14.606-1.157,19.338h-0.005c-4.454,7.882-3.147,17.052,0.387,19.724c13.513-1.491,12.82-14.229,12.224-18.4c3.464-2.274,5.918-5.543,7.609-8.647c9.264-0.526,20.325-6.601,21.987-8.146s6.816-15.374,5.182-21.467H185.195z"></path><path style="fill:none;stroke:#1E1E1E;stroke-linecap:round;stroke-linejoin:round;" d="M225.375,248.573c0,0-5.414,22.046-27.073,21.659"></path><path style="fill:none;stroke:#1E1E1E;stroke-linecap:round;stroke-linejoin:round;" d="M188.631,258.629c0,0,4.256,8.896,8.123,11.604"></path><path style="fill:none;stroke:#1E1E1E;stroke-linecap:round;stroke-linejoin:round;" d="M194.434,268.686c0,0-3.017,7.288,6.808,13.313"></path><path style="fill:none;stroke:#1E1E1E;stroke-linecap:round;stroke-linejoin:round;" d="M198.688,280.868c0,2.708-0.772,8.896-4.642,11.603c-3.867,2.708-8.122,3.481-8.122,3.481"></path><path style="fill:none;stroke:#1E1E1E;stroke-linecap:round;stroke-linejoin:round;" d="M187.859,278.548c0,0,3.094,10.83,6.188,12.763"></path></g></g><g><linearGradient id="hair3XMLID_852_" gradientUnits="userSpaceOnUse" x1="318.3438" y1="385" x2="318.3438" y2="129.9996"><stop offset="0" style="stop-color:#FCFCE4"></stop><stop offset="0.5" style="stop-color:#A0C8DD"></stop><stop offset="1" style="stop-color:#5D6EC5"></stop></linearGradient><path style="fill:url(#hair3XMLID_852_);stroke:#1E1E1E;stroke-linecap:round;stroke-linejoin:round;" d="M307.887,297.693c0,0-3.095,13.922,8.896,15.083c-1.548-4.642-1.548-6.575-1.548-6.575s10.443,6.961,13.925-4.255c-6.576,1.547-15.084,1.935-17.018-6.962C309.821,293.438,307.887,297.693,307.887,297.693z"></path><g><linearGradient id="hair3XMLID_853_" gradientUnits="userSpaceOnUse" x1="289.3154" y1="385" x2="289.3154" y2="130"><stop offset="0" style="stop-color:#FCFCE4"></stop><stop offset="0.5" style="stop-color:#A0C8DD"></stop><stop offset="1" style="stop-color:#5D6EC5"></stop></linearGradient><path style="fill:url(#hair3XMLID_853_);stroke:#1E1E1E;stroke-linecap:round;stroke-linejoin:round;" d="M314.804,243.737c1.204,10.879-4.597,17.6-4.597,17.6c4.794,7.612,3.829,14.606,1.156,19.338h0.005c4.456,7.882,3.147,17.052-0.386,19.724c-13.512-1.491-12.821-14.229-12.225-18.4c-3.464-2.274-5.916-5.543-7.608-8.647c-9.265-0.526-20.325-6.601-21.987-8.146c-1.664-1.546-6.817-15.374-5.183-21.467H314.804z"></path><path style="fill:none;stroke:#1E1E1E;stroke-linecap:round;stroke-linejoin:round;" d="M274.624,248.573c0,0,5.414,22.046,27.073,21.659"></path><path style="fill:none;stroke:#1E1E1E;stroke-linecap:round;stroke-linejoin:round;" d="M311.368,258.629c0,0-4.257,8.896-8.122,11.604"></path><path style="fill:none;stroke:#1E1E1E;stroke-linecap:round;stroke-linejoin:round;" d="M305.566,268.686c0,0,3.016,7.288-6.809,13.313"></path><path style="fill:none;stroke:#1E1E1E;stroke-linecap:round;stroke-linejoin:round;" d="M301.312,280.868c0,2.708,0.772,8.896,4.641,11.603c3.868,2.708,8.123,3.481,8.123,3.481"></path><path style="fill:none;stroke:#1E1E1E;stroke-linecap:round;stroke-linejoin:round;" d="M312.141,278.548c0,0-3.096,10.83-6.188,12.763"></path></g></g></g></g></svg>