<svg xmlns="http://www.w3.org/2000/svg" width="500" height="500" version="1.1"><g id="x031"><g><g><g><g><g><linearGradient id="hair3XMLID_881_" gradientUnits="userSpaceOnUse" x1="320.002" y1="385" x2="320.002" y2="129.9998"><stop offset="0" style="stop-color:#FCFCE4"></stop><stop offset="0.5" style="stop-color:#A0C8DD"></stop><stop offset="1" style="stop-color:#5D6EC5"></stop></linearGradient><path style="fill:url(#hair3XMLID_881_);stroke:#1E1E1E;stroke-linecap:round;stroke-linejoin:round;" d="M334.107,305.926c-0.502-1.136,9.604,4.029,5.027,35.023c-4.662-8.824-4.703-14.294-4.703-14.294s1.762,17.1-5.23,25.521c-1.871,0.386-4.641,1.16-9.281-0.386c-1.465,0.038,0.102-1.931-1.16-2.707c-8.123,0-15.518-2.443-15.518-2.443s3.439-8.123,3.178-20.647c-2.309,5.543-2.186,7.512-6.742,12.359c3.914-17.424-1.557-31.822,17.959-40.505C326.607,297.889,334.107,305.926,334.107,305.926z"></path><path style="fill:none;stroke:#1E1E1E;stroke-linecap:round;stroke-linejoin:round;" d="M318.76,349.084c0.773-0.773,4.641-9.282,4.254-20.113"></path></g><linearGradient id="hair3XMLID_882_" gradientUnits="userSpaceOnUse" x1="346.6191" y1="385" x2="346.6191" y2="130.0003"><stop offset="0" style="stop-color:#FCFCE4"></stop><stop offset="0.5" style="stop-color:#A0C8DD"></stop><stop offset="1" style="stop-color:#5D6EC5"></stop></linearGradient><path style="fill:url(#hair3XMLID_882_);stroke:#1E1E1E;stroke-linecap:round;stroke-linejoin:round;" d="M337.324,158.795c0,0,11.602,40.223,11.217,46.798c-0.387,6.575-6.963,29.008-6.963,29.008l4.256,7.735c0,0,9.281-31.715,10.055-39.837c0.773-8.123-17.404-56.468-17.404-56.468L337.324,158.795z"></path><linearGradient id="hair3XMLID_883_" gradientUnits="userSpaceOnUse" x1="321.7383" y1="385" x2="321.7383" y2="130.0003"><stop offset="0" style="stop-color:#FCFCE4"></stop><stop offset="0.5" style="stop-color:#A0C8DD"></stop><stop offset="1" style="stop-color:#5D6EC5"></stop></linearGradient><path style="fill:url(#hair3XMLID_883_);stroke:#1E1E1E;stroke-linecap:round;stroke-linejoin:round;" d="M344.285,217.97c-3.867-8.123,3.01-57.523-1.639-75.368c-4.137-15.878-16.342-24.731-21.973-25.106c-11.965-0.795-14.893,19.941-14.893,19.941s10.467-11.708,15.408-10.216c3.32,1.002,7.855,7.331,10.477,11.379c-3.82-3.078-8.107-5.362-12.379-6.079c-7.668-1.285-13.971,6.049-13.971,6.049s-18.889,109.032-17.111,123.105c1.777,14.072,17.791,25.526,17.791,25.526s16.244,2.708,25.914,1.934c18.176-4.254,22.891-25.522,23.205-27.46C356.428,253.622,353.064,235.252,344.285,217.97z M348.539,263.608c-2.32,7.348-11.215,19.338-11.215,19.338l-9.283,5.027c0,0,5.416-3.866,13.15-21.271c1.615-3.639,5.414-25.14,5.414-25.14S350.859,256.26,348.539,263.608z"></path><path style="fill:none;stroke:#1E1E1E;stroke-linecap:round;stroke-linejoin:round;" d="M324.947,289.521c0,0,14.311-22.046,13.922-36.743c-0.387-14.696-6.572-29.78-6.572-29.78"></path><path style="fill:none;stroke:#1E1E1E;stroke-linecap:round;stroke-linejoin:round;" d="M321.854,289.909c-1.16-0.388-11.604-8.51-14.699-15.857c-3.092-7.35-5.027-21.659-5.027-21.659"></path></g><g><linearGradient id="hair3XMLID_884_" gradientUnits="userSpaceOnUse" x1="317.5986" y1="385" x2="317.5986" y2="130.0003"><stop offset="0" style="stop-color:#FCFCE4"></stop><stop offset="0.5" style="stop-color:#A0C8DD"></stop><stop offset="1" style="stop-color:#5D6EC5"></stop></linearGradient><path style="fill:url(#hair3XMLID_884_);stroke:#1E1E1E;stroke-linecap:round;stroke-linejoin:round;" d="M311.359,290.682c0,0-5.105,6.962,0,10.442c6.809,1.548,12.479-0.387,12.479-0.387c2.271,0,2.836-7.349,1.701-10.443C323.271,289.521,316.463,288.361,311.359,290.682z"></path></g></g></g><g><g><g><g><linearGradient id="hair3XMLID_885_" gradientUnits="userSpaceOnUse" x1="179.9976" y1="385" x2="179.9975" y2="129.9998"><stop offset="0" style="stop-color:#FCFCE4"></stop><stop offset="0.5" style="stop-color:#A0C8DD"></stop><stop offset="1" style="stop-color:#5D6EC5"></stop></linearGradient><path style="fill:url(#hair3XMLID_885_);stroke:#1E1E1E;stroke-linecap:round;stroke-linejoin:round;" d="M165.892,305.926c0.502-1.136-9.603,4.029-5.027,35.023c4.662-8.824,4.704-14.294,4.704-14.294s-1.762,17.1,5.229,25.521c1.872,0.386,4.642,1.16,9.282-0.386c1.465,0.038-0.102-1.931,1.16-2.707c8.123,0,15.518-2.443,15.518-2.443s-3.439-8.123-3.178-20.647c2.309,5.543,2.186,7.512,6.742,12.359c-3.914-17.424,1.557-31.822-17.959-40.505C173.392,297.889,165.892,305.926,165.892,305.926z"></path><path style="fill:none;stroke:#1E1E1E;stroke-linecap:round;stroke-linejoin:round;" d="M181.241,349.084c-0.773-0.773-4.642-9.282-4.255-20.113"></path></g><linearGradient id="hair3XMLID_886_" gradientUnits="userSpaceOnUse" x1="153.3813" y1="385" x2="153.3813" y2="130.0003"><stop offset="0" style="stop-color:#FCFCE4"></stop><stop offset="0.5" style="stop-color:#A0C8DD"></stop><stop offset="1" style="stop-color:#5D6EC5"></stop></linearGradient><path style="fill:url(#hair3XMLID_886_);stroke:#1E1E1E;stroke-linecap:round;stroke-linejoin:round;" d="M162.675,158.795c0,0-11.602,40.223-11.216,46.798c0.387,6.575,6.962,29.008,6.962,29.008l-4.255,7.735c0,0-9.282-31.715-10.056-39.837c-0.772-8.123,17.404-56.468,17.404-56.468L162.675,158.795z"></path><linearGradient id="hair3XMLID_887_" gradientUnits="userSpaceOnUse" x1="178.2622" y1="385" x2="178.2622" y2="130.0003"><stop offset="0" style="stop-color:#FCFCE4"></stop><stop offset="0.5" style="stop-color:#A0C8DD"></stop><stop offset="1" style="stop-color:#5D6EC5"></stop></linearGradient><path style="fill:url(#hair3XMLID_887_);stroke:#1E1E1E;stroke-linecap:round;stroke-linejoin:round;" d="M144.885,261.675c0.314,1.938,5.028,23.206,23.205,27.46c9.67,0.774,25.914-1.934,25.914-1.934s16.014-11.454,17.791-25.526c1.777-14.073-17.111-123.105-17.111-123.105s-6.303-7.333-13.971-6.049c-4.272,0.717-8.559,3.001-12.379,6.079c2.621-4.048,7.156-10.377,10.477-11.379c4.941-1.492,15.408,10.216,15.408,10.216s-2.928-20.736-14.893-19.941c-5.632,0.375-17.837,9.228-21.974,25.106c-4.648,17.845,2.229,67.246-1.639,75.368C146.935,235.252,143.573,253.622,144.885,261.675z M153.394,241.563c0,0,3.799,21.501,5.415,25.14c7.734,17.405,13.149,21.271,13.149,21.271l-9.282-5.027c0,0-8.896-11.99-11.216-19.338C149.14,256.26,153.394,241.563,153.394,241.563z"></path><path style="fill:none;stroke:#1E1E1E;stroke-linecap:round;stroke-linejoin:round;" d="M175.053,289.521c0,0-14.312-22.046-13.923-36.743c0.387-14.696,6.572-29.78,6.572-29.78"></path><path style="fill:none;stroke:#1E1E1E;stroke-linecap:round;stroke-linejoin:round;" d="M178.147,289.909c1.16-0.388,11.604-8.51,14.699-15.857c3.092-7.35,5.027-21.659,5.027-21.659"></path></g><g><linearGradient id="hair3XMLID_888_" gradientUnits="userSpaceOnUse" x1="182.4014" y1="385" x2="182.4014" y2="130.0003"><stop offset="0" style="stop-color:#FCFCE4"></stop><stop offset="0.5" style="stop-color:#A0C8DD"></stop><stop offset="1" style="stop-color:#5D6EC5"></stop></linearGradient><path style="fill:url(#hair3XMLID_888_);stroke:#1E1E1E;stroke-linecap:round;stroke-linejoin:round;" d="M188.641,290.682c0,0,5.105,6.962,0,10.442c-6.809,1.548-12.479-0.387-12.479-0.387c-2.271,0-2.836-7.349-1.701-10.443C176.728,289.521,183.538,288.361,188.641,290.682z"></path></g></g></g></g></g></svg>