<svg xmlns="http://www.w3.org/2000/svg" width="500" height="500" version="1.1"><g id="x033"><g><g><linearGradient id="hair3XMLID_891_" gradientUnits="userSpaceOnUse" x1="132.2661" y1="385" x2="132.2661" y2="130.0002"><stop offset="0" style="stop-color:#FCFCE4"></stop><stop offset="0.5" style="stop-color:#A0C8DD"></stop><stop offset="1" style="stop-color:#5D6EC5"></stop></linearGradient><path style="fill:url(#hair3XMLID_891_);stroke:#1E1E1E;stroke-linecap:round;stroke-linejoin:round;" d="M128.908,325.485c0,0-4.63,28.705,12.961,34.26C127.519,360.669,114.556,349.559,128.908,325.485z"></path><linearGradient id="hair3XMLID_892_" gradientUnits="userSpaceOnUse" x1="164.1226" y1="385" x2="164.1225" y2="130.0008"><stop offset="0" style="stop-color:#FCFCE4"></stop><stop offset="0.5" style="stop-color:#A0C8DD"></stop><stop offset="1" style="stop-color:#5D6EC5"></stop></linearGradient><path style="fill:url(#hair3XMLID_892_);stroke:#1E1E1E;stroke-linecap:round;stroke-linejoin:round;" d="M199.276,228.729c5.556,44.907-35.648,72.22-54.166,81.017c-18.518,8.796-20.37,28.239-20.37,28.239s-3.041-6.708-5.628-18.032c-1.546-0.831-2.236-2.95-2.589-4.825c-0.315-1.677-0.348-2.951,0.592-5.764c-1.528-10.208-2.267-22.636-0.787-36.425c-1.02-0.866-1.053-3.032-0.847-4.511c0.343-2.456,0.807-3.453,2.778-6.599c6.341-29.892,24.278-53.54,26.851-54.397c-0.983-1.504-0.637-3.241,1.237-5.852c5.526-23.05,24.689-42.757,24.689-42.757s31.455-11.111,39.788,7.407C219.157,184.748,199.276,228.729,199.276,228.729z"></path><path style="fill:none;stroke:#1E1E1E;stroke-linecap:round;stroke-linejoin:round;" d="M139.555,213.451c0,0,4.166-12.037,41.204-10.185"></path><path style="fill:none;stroke:#1E1E1E;stroke-linecap:round;stroke-linejoin:round;" d="M145.11,204.539c0,0,4.167-12.037,41.204-10.185"></path><path style="fill:none;stroke:#1E1E1E;stroke-linecap:round;stroke-linejoin:round;" d="M117.796,272.71c0,0,10.186-22.223,67.591-23.149"></path><path style="fill:none;stroke:#1E1E1E;stroke-linecap:round;stroke-linejoin:round;" d="M118.259,262.987c0,0,13.425-19.444,59.722-13.889"></path><path style="fill:none;stroke:#1E1E1E;stroke-linecap:round;stroke-linejoin:round;" d="M118.953,321.782c0,0,5.556-13.426,30.556-14.354"></path><path style="fill:none;stroke:#1E1E1E;stroke-linecap:round;stroke-linejoin:round;" d="M117.334,309.745c0,0,7.87-9.258,32.868-4.165"></path></g><g><linearGradient id="hair3XMLID_893_" gradientUnits="userSpaceOnUse" x1="367.7344" y1="385" x2="367.7344" y2="130.0002"><stop offset="0" style="stop-color:#FCFCE4"></stop><stop offset="0.5" style="stop-color:#A0C8DD"></stop><stop offset="1" style="stop-color:#5D6EC5"></stop></linearGradient><path style="fill:url(#hair3XMLID_893_);stroke:#1E1E1E;stroke-linecap:round;stroke-linejoin:round;" d="M371.093,325.485c0,0,4.631,28.705-12.962,34.26C372.481,360.669,385.444,349.559,371.093,325.485z"></path><linearGradient id="hair3XMLID_894_" gradientUnits="userSpaceOnUse" x1="335.8789" y1="385" x2="335.8789" y2="130.0008"><stop offset="0" style="stop-color:#FCFCE4"></stop><stop offset="0.5" style="stop-color:#A0C8DD"></stop><stop offset="1" style="stop-color:#5D6EC5"></stop></linearGradient><path style="fill:url(#hair3XMLID_894_);stroke:#1E1E1E;stroke-linecap:round;stroke-linejoin:round;" d="M300.726,228.729c-5.555,44.907,35.646,72.22,54.165,81.017c18.519,8.796,20.368,28.239,20.368,28.239s3.042-6.708,5.63-18.032c1.548-0.831,2.236-2.95,2.591-4.825c0.315-1.677,0.346-2.951-0.594-5.764c1.529-10.208,2.268-22.636,0.787-36.425c1.02-0.866,1.053-3.032,0.847-4.511c-0.344-2.456-0.808-3.453-2.777-6.599c-6.343-29.892-24.279-53.54-26.852-54.397c0.984-1.504,0.637-3.241-1.236-5.852c-5.527-23.05-24.689-42.757-24.689-42.757s-31.453-11.111-39.788,7.407C280.845,184.748,300.726,228.729,300.726,228.729z"></path><path style="fill:none;stroke:#1E1E1E;stroke-linecap:round;stroke-linejoin:round;" d="M360.445,213.451c0,0-4.165-12.037-41.202-10.185"></path><path style="fill:none;stroke:#1E1E1E;stroke-linecap:round;stroke-linejoin:round;" d="M354.891,204.539c0,0-4.165-12.037-41.202-10.185"></path><path style="fill:none;stroke:#1E1E1E;stroke-linecap:round;stroke-linejoin:round;" d="M382.205,272.71c0,0-10.187-22.223-67.591-23.149"></path><path style="fill:none;stroke:#1E1E1E;stroke-linecap:round;stroke-linejoin:round;" d="M381.742,262.987c0,0-13.427-19.444-59.721-13.889"></path><path style="fill:none;stroke:#1E1E1E;stroke-linecap:round;stroke-linejoin:round;" d="M381.047,321.782c0,0-5.555-13.426-30.555-14.354"></path><path style="fill:none;stroke:#1E1E1E;stroke-linecap:round;stroke-linejoin:round;" d="M382.669,309.745c0,0-7.87-9.258-32.871-4.165"></path></g></g></g></svg>