<svg xmlns="http://www.w3.org/2000/svg" width="500" height="500" version="1.1"><g id="x008"><g><linearGradient id="hair3XMLID_799_" gradientUnits="userSpaceOnUse" x1="166.2529" y1="385" x2="166.2529" y2="130"><stop offset="0" style="stop-color:#FCFCE4"></stop><stop offset="0.5" style="stop-color:#A0C8DD"></stop><stop offset="1" style="stop-color:#5D6EC5"></stop></linearGradient><path style="fill:url(#hair3XMLID_799_);stroke:#1E1E1E;stroke-linecap:round;stroke-linejoin:round;" d="M193.24,134.197c0,0-5.898-12.924-26.532-7.75c-9.118,2.286-15.933,13.617-19.228,26.983c-9.613,24.561-22.441,73.679,7.725,121.832c-6.961-20.886-6.961-42.931-6.961-42.931s2.321,34.229,26.106,46.992c-4.641-10.442-4.993-53.478,0.311-86.729C192.507,176.496,201.048,151.325,193.24,134.197z"></path><linearGradient id="hair3XMLID_800_" gradientUnits="userSpaceOnUse" x1="333.7471" y1="385" x2="333.7471" y2="130"><stop offset="0" style="stop-color:#FCFCE4"></stop><stop offset="0.5" style="stop-color:#A0C8DD"></stop><stop offset="1" style="stop-color:#5D6EC5"></stop></linearGradient><path style="fill:url(#hair3XMLID_800_);stroke:#1E1E1E;stroke-linecap:round;stroke-linejoin:round;" d="M306.76,134.197c0,0,5.897-12.924,26.533-7.75c9.116,2.286,15.931,13.617,19.225,26.983c9.617,24.561,22.443,73.679-7.725,121.832c6.963-20.886,6.963-42.931,6.963-42.931s-2.32,34.229-26.107,46.992c4.641-10.442,4.994-53.478-0.311-86.729C307.492,176.496,298.953,151.325,306.76,134.197z"></path></g></g></svg>