<svg xmlns="http://www.w3.org/2000/svg" width="500" height="500" version="1.1"><g id="x009"><g><g><g><linearGradient id="hair3XMLID_801_" gradientUnits="userSpaceOnUse" x1="330.75" y1="385" x2="330.75" y2="130.0003"><stop offset="0" style="stop-color:#FCFCE4"></stop><stop offset="0.5" style="stop-color:#A0C8DD"></stop><stop offset="1" style="stop-color:#5D6EC5"></stop></linearGradient><path style="fill:url(#hair3XMLID_801_);stroke:#1E1E1E;stroke-linecap:round;stroke-linejoin:round;" d="M297.046,167.507c-8.028-10.423-5.466-29.742-5.466-29.742s5.415-29.394,32.409-29.971c16.313-0.349,20.885,12.378,20.885,12.378c3.093,2.706,17.018,6.959,17.403,25.912c0.387,18.952-13.367,21.626-12.764,35.584c0.388,8.895,3.87,14.309,11.604,13.536c7.735-0.772,8.51-11.215,8.51-11.215s4.021,15.528-7.465,22.268c-11.488,6.739-19.222-0.222-21.542-3.704C333.907,192.833,309.007,183.036,297.046,167.507z"></path><path style="fill:none;stroke:#1E1E1E;stroke-linecap:round;stroke-linejoin:round;" d="M349.514,123.807c-4.64-3.866-20.112-11.99-33.261,0"></path></g></g><g><g><linearGradient id="hair3XMLID_802_" gradientUnits="userSpaceOnUse" x1="169.25" y1="385" x2="169.25" y2="130.0003"><stop offset="0" style="stop-color:#FCFCE4"></stop><stop offset="0.5" style="stop-color:#A0C8DD"></stop><stop offset="1" style="stop-color:#5D6EC5"></stop></linearGradient><path style="fill:url(#hair3XMLID_802_);stroke:#1E1E1E;stroke-linecap:round;stroke-linejoin:round;" d="M202.954,167.507c8.028-10.423,5.466-29.742,5.466-29.742s-5.415-29.394-32.409-29.971c-16.313-0.349-20.885,12.378-20.885,12.378c-3.093,2.706-17.018,6.959-17.403,25.912c-0.387,18.952,13.367,21.626,12.764,35.584c-0.388,8.895-3.87,14.309-11.604,13.536c-7.735-0.772-8.51-11.215-8.51-11.215s-4.021,15.528,7.465,22.268c11.488,6.739,19.222-0.222,21.542-3.704C166.093,192.833,190.993,183.036,202.954,167.507z"></path><path style="fill:none;stroke:#1E1E1E;stroke-linecap:round;stroke-linejoin:round;" d="M150.486,123.807c4.64-3.866,20.112-11.99,33.261,0"></path></g></g></g></g></svg>