<svg xmlns="http://www.w3.org/2000/svg" width="500" height="500" version="1.1"><g id="x010"><g><path style="fill:#FFFFFF;" d="M235.389,229.993c0,0,0.001,10.425-0.801,11.628c-0.803,1.203-6.816,7.221-12.029,5.616C229.374,238.012,235.389,229.993,235.389,229.993z"></path><path style="fill:#6E6E6E;stroke:#000000;" d="M306.636,223.951c-3.261-4.246-14.034-6.958-25.06-6.306c-9.718,0.574-20.442,2.796-22.952,4.756c-0.782,0.612-1.292,2.38-1.602,4.683h-14.096c-0.31-2.302-0.819-4.071-1.603-4.683c-2.507-1.96-13.232-4.183-22.951-4.756c-11.026-0.652-21.799,2.06-25.061,6.305c-2.821,3.673-0.675,21.424,2.056,23.559c2.272,1.776,12.443,5.233,22.979,5.233c10.708,0,22.148-4.293,23.941-7.097c0.582-0.91,1.146-7.275,1.017-13.148h13.337c-0.131,5.873,0.435,12.238,1.016,13.148c1.793,2.804,13.232,7.097,23.943,7.097c10.535,0,20.706-3.457,22.979-5.233C307.313,245.374,309.457,227.624,306.636,223.951z M236.867,243.513c-1.73,1.285-10.015,4.529-18.519,4.529c-8.969,0-16.666-2.792-18.473-3.719c-1.24-2.832-2.828-15.841-1.399-17.963c1.552-2.017,9.374-4.623,19.444-4.028c8.984,0.531,16.578,2.354,18.789,3.249C237.479,228.632,237.461,240.97,236.867,243.513z M300.073,244.323c-1.807,0.927-9.504,3.719-18.472,3.719c-8.505,0-16.789-3.244-18.521-4.529c-0.594-2.543-0.611-14.881,0.16-17.932c2.211-0.895,9.803-2.718,18.789-3.249c10.068-0.595,17.891,2.011,19.44,4.028C302.903,228.481,301.314,241.491,300.073,244.323z"></path><path style="fill:#FFFFFF;" d="M297.141,229.993c0,0,0,10.425-0.801,11.628c-0.804,1.203-6.815,7.221-12.029,5.616C291.127,238.012,297.141,229.993,297.141,229.993z"></path></g></g></svg>