<svg xmlns="http://www.w3.org/2000/svg" width="500" height="500" version="1.1"><g id="x011"><g><g><path style="fill:#FFFFFF;" d="M275.983,250.58c1.181,0,21.375,0.354,23.498-2.24c2.124-2.597,7.288-17.576,7.288-17.576L275.983,250.58z"></path><path style="fill:#FFFFFF;" d="M211.935,250.58c1.18,0,21.376,0.354,23.498-2.24c2.124-2.597,7.287-17.576,7.287-17.576L211.935,250.58z"></path></g><path style="fill:#6E6E6E;stroke:#000000;" d="M317.415,213.188c-2.832-7.548-28.604-2.948-37.54-0.205c-12.156,3.729-18.134,8.767-21.767,13.749c0.004-0.025,0.005-0.038,0.005-0.038c0,0.265-5.484,5.75-8.139,5.75s-8.139-5.485-8.139-5.75c0,0,0.001,0.013,0.005,0.038c-3.634-4.982-9.611-10.02-21.767-13.749c-8.935-2.743-34.709-7.343-37.54,0.205c-2.831,7.549,7.128,26.32,7.435,26.831c3.224,5.349,10.764,14.54,25.055,16.002c15.967,1.638,24.108-6.557,27.152-10.703c2.55-1.692,5.144-5.178,7.798-5.178s5.247,3.486,7.798,5.178c3.044,4.146,11.185,12.34,27.151,10.703c14.293-1.463,21.831-10.654,25.055-16.002C310.288,239.508,320.245,220.738,317.415,213.188z M235.346,243.563c-3.269,3.378-9.339,7.183-19.672,6.124c-11.539-1.183-17.641-8.625-20.25-12.956c-3.868-6.421-3.135-12.432-2.244-14.636c1.715-4.246,12.132-6.199,25.14-2.137c14.702,4.591,18.43,9.763,21.337,15.552C239.679,236.424,238.813,239.985,235.346,243.563z M304.523,236.73c-2.609,4.331-8.711,11.773-20.249,12.956c-10.333,1.059-16.403-2.746-19.672-6.124c-3.466-3.578-4.332-7.139-4.311-8.053c2.906-5.789,6.635-10.96,21.337-15.552c13.007-4.063,23.425-2.109,25.141,2.137C307.658,224.299,308.394,230.31,304.523,236.73z"></path></g></g></svg>