<svg xmlns="http://www.w3.org/2000/svg" width="500" height="500" version="1.1"><g id="x012"><g><g><path style="fill:#FFFFFF;" d="M236.11,249.979c-3.282,3.493-5.716,4.975-5.716,4.975s5.081,0.424,8.152-4.023c3.07-4.446,0.846-8.044,0.846-8.044S239.392,246.485,236.11,249.979z"></path></g><g><path style="fill:#6E6E6E;stroke:#000000;" d="M267.727,233.489c-6.405,0-11.742,4.648-12.827,10.747c-1.255-0.281-2.993-0.531-5.216-0.531c-1.963,0-3.5,0.196-4.653,0.435c-1.122-6.051-6.437-10.65-12.809-10.65c-7.186,0-13.032,5.845-13.032,13.031c0,7.186,5.846,13.03,13.032,13.03c6.32,0,11.6-4.521,12.782-10.499c1.156-0.243,2.701-0.442,4.68-0.442c2.261,0,4.021,0.258,5.28,0.547c1.222,5.925,6.48,10.394,12.763,10.394c7.187,0,13.032-5.845,13.032-13.03C280.759,239.334,274.913,233.489,267.727,233.489z M232.222,255.191c-4.782,0-8.671-3.891-8.671-8.671c0-4.781,3.889-8.672,8.671-8.672c4.781,0,8.67,3.891,8.67,8.672C240.893,251.301,237.003,255.191,232.222,255.191z M267.727,255.191c-4.78,0-8.671-3.891-8.671-8.671c0-4.781,3.891-8.672,8.671-8.672c4.781,0,8.671,3.891,8.671,8.672C276.397,251.301,272.508,255.191,267.727,255.191z"></path><path style="fill:#FFFFFF;" d="M272.209,250.219c-2.973,3.164-5.179,4.508-5.179,4.508s4.604,0.383,7.386-3.645c2.782-4.029,0.769-7.291,0.769-7.291S275.185,247.053,272.209,250.219z"></path></g></g></g></svg>