<svg xmlns="http://www.w3.org/2000/svg" width="500" height="500" version="1.1"><g id="x013"><g><g><path style="fill:#FFFFFF;" d="M228.866,249.031c-6.637,7.066-11.563,10.063-11.563,10.063s10.277,0.856,16.489-8.136c6.208-8.994,1.713-16.275,1.713-16.275S235.505,241.965,228.866,249.031z"></path><g><path style="fill:#FFFFFF;" d="M294.391,245.604c-6.638,7.066-11.563,10.064-11.563,10.064s10.277,0.857,16.489-8.136c6.207-8.994,1.71-16.275,1.71-16.275S301.026,238.538,294.391,245.604z"></path></g></g><path style="fill:#6E6E6E;stroke:#000000;" d="M306.523,224.619c-1.882-2.853-10.226-7.989-14.601-8.998c-0.382-0.087-9.553-2.632-41.956-2.632c-32.017,0-37.699,2.469-38.242,2.75c-0.075,0.039-0.143,0.089-0.209,0.136c-8.618,1.81-15.874,5.385-18.089,8.743c-3.592,5.444-3.29,14.261,0.768,22.46c4.171,8.428,11.157,13.767,18.685,14.282c11.28,0.773,19.684-1.749,24.982-7.492c4.873-5.285,6.88-13.308,5.718-22.679h12.794c-1.165,9.369,0.842,17.392,5.716,22.678c5.298,5.744,13.704,8.267,24.982,7.493c7.527-0.516,14.512-5.854,18.686-14.282C309.813,238.88,310.116,230.063,306.523,224.619z M233.609,249.95c-4.05,4.392-10.893,6.29-20.337,5.644c-5.453-0.373-10.647-4.515-13.897-11.079c-3.065-6.194-3.528-13.068-1.123-16.713c1.606-2.434,12.99-7.726,25.723-7.32c11.967,0.38,13.682,10.048,13.695,10.147c0-0.001,0.041,0.271,0.041,0.271C238.928,238.998,237.471,245.763,233.609,249.95z M256.942,227.978h-13.976c-1.073-3.467-4.058-8.727-10.356-11.473c4.643-0.186,10.349-0.303,17.357-0.303c6.553,0,12.133,0.106,16.886,0.275C260.94,219.087,258.017,224.054,256.942,227.978z M300.573,244.513c-3.25,6.566-8.444,10.708-13.896,11.081c-9.444,0.646-16.287-1.252-20.339-5.645c-3.861-4.188-5.317-10.953-4.1-19.051l0.04-0.27c0.232-1.633,1.959-9.796,13.053-10.147c12.187-0.387,24.563,4.585,26.367,7.32C304.102,231.446,303.64,238.319,300.573,244.513z"></path></g></g></svg>