<svg xmlns="http://www.w3.org/2000/svg" width="500" height="500" version="1.1"><g id="x014"><g><path style="fill:#FFFFFF;" d="M236.185,238.479c0,0,0.002,6.673-0.897,7.443c-0.896,0.77-7.623,4.622-13.454,3.594C229.458,243.612,236.185,238.479,236.185,238.479z"></path><path style="fill:#FFFFFF;" d="M308.441,238.479c0,0,0,6.673-0.896,7.443c-0.899,0.77-7.623,4.622-13.454,3.594C301.715,243.612,308.441,238.479,308.441,238.479z"></path><path style="fill:#6E6E6E;stroke:#000000;" d="M313.342,234.613c-3.646-2.718-15.695-4.453-28.025-4.036c-10.869,0.367-22.862,1.791-25.668,3.045c-0.876,0.39-1.446,1.522-1.792,2.996h-15.764c-0.346-1.474-0.916-2.606-1.792-2.996c-2.805-1.254-14.799-2.678-25.667-3.045c-12.331-0.417-24.379,1.318-28.026,4.036c-3.155,2.352-0.755,13.713,2.299,15.079c2.541,1.136,13.916,3.35,25.699,3.35c11.976,0,24.77-2.747,26.775-4.542c0.65-0.582,1.281-2.621,1.137-6.38h14.916c-0.146,3.759,0.486,5.798,1.136,6.38c2.006,1.795,14.799,4.542,26.777,4.542c11.782,0,23.157-2.213,25.699-3.35C314.099,248.326,316.498,236.964,313.342,234.613z M235.315,245.484c-1.935,0.57-11.201,2.006-20.711,2.006c-10.03,0-18.639-1.238-20.659-1.648c-1.387-1.255-3.164-7.016-1.564-7.955c1.735-0.893,10.482-2.047,21.745-1.784c10.047,0.236,18.54,1.044,21.012,1.439C236,238.894,235.979,244.357,235.315,245.484z M306.003,245.842c-2.021,0.411-10.63,1.648-20.658,1.648c-9.511,0-18.776-1.438-20.712-2.006c-0.664-1.126-0.684-6.59,0.178-7.942c2.473-0.395,10.964-1.203,21.013-1.439c11.262-0.263,20.01,0.891,21.743,1.784C309.168,238.826,307.391,244.587,306.003,245.842z"></path></g></g></svg>