<svg xmlns="http://www.w3.org/2000/svg" width="500" height="500" version="1.1"><g id="x015"><g><path style="fill:#FFFFFF;" d="M216.991,249.808c1.125,0,17.336-3.377,19.361-5.854c2.026-2.477,3.151-9.455,3.151-9.455L216.991,249.808z"></path><path style="fill:#FFFFFF;" d="M281.832,249.808c1.127,0,17.11,3.376,19.137,0.9c2.025-2.477,3.602-13.508,3.602-13.508L281.832,249.808z"></path><path style="fill:#6E6E6E;stroke:#000000;" d="M321.906,206.582c-45.421,3.208-71.93,21.106-71.93,21.106s-26.513-17.898-71.934-21.106c-3.376,3.376,2.701,9.117,8.78,18.911c1.893,5.709,4.35,11.67,4.39,11.819c4.89,17.637,6.206,16.592,7.351,17.203c6.553,3.493,34.733-3.111,38.115-5.142c2.662-1.596,5.271-6.942,7.018-11.898c1.185-2.35,3.215-5.06,6.28-5.06c3.06,0,5.092,2.71,6.277,5.06c1.746,4.956,4.355,10.302,7.017,11.898c3.383,2.03,31.563,8.635,38.115,5.142c1.146-0.61,2.462,0.435,7.353-17.203c0.038-0.149,2.496-6.11,4.389-11.819C319.205,215.699,325.283,209.958,321.906,206.582z M233.503,245.535c-3.825,2.138-28.269,6.756-32.042,4.981c-3.31-2.55-8.999-23.917-9.901-31.762c12.909,0.413,37.414,5.061,48.107,10.941C239.099,233.647,235.368,243.943,233.503,245.535z M298.488,250.517c-3.775,1.774-28.219-2.844-32.043-4.981c-1.863-1.592-5.596-11.888-6.163-15.84c10.693-5.88,35.198-10.528,48.106-10.941C307.485,226.6,301.797,247.967,298.488,250.517z"></path></g></g></svg>