<svg xmlns="http://www.w3.org/2000/svg" width="500" height="500" version="1.1"><g id="x016"><g><path style="fill:#FFFFFF;" d="M239.088,235.211c0,0,0.001,10.338-0.794,11.532c-0.797,1.193-6.76,7.16-11.931,5.569C233.123,243.165,239.088,235.211,239.088,235.211z"></path><path style="fill:#FFFFFF;" d="M303.016,235.211c0,0,0,10.338-0.794,11.532c-0.798,1.193-6.76,7.16-11.931,5.569C297.052,243.165,303.016,235.211,303.016,235.211z"></path><g><path style="fill:#6E6E6E;stroke:#000000;" d="M306.169,221.94c-3.235-5.387-13.919-8.827-24.854-7.999c-9.638,0.726-20.273,3.548-22.763,6.035c-0.771,0.771-1.275,2.99-1.582,5.882h-13.992c-0.308-2.892-0.812-5.111-1.584-5.882c-2.487-2.486-13.123-5.309-22.761-6.035c-10.935-0.828-21.619,2.611-24.854,7.999c-2.798,4.661-0.669,27.185,2.039,29.892c2.253,2.254,12.341,6.641,22.79,6.641c10.621,0,21.966-5.447,23.744-9.005c0.618-1.235,1.216-10.398,0.971-18.24h13.302c-0.245,7.842,0.353,17.004,0.97,18.24c1.778,3.558,13.123,9.005,23.746,9.005c10.448,0,20.535-4.387,22.789-6.641C306.84,249.124,308.968,226.601,306.169,221.94z M236.975,246.762c-1.716,1.629-9.933,5.748-18.367,5.748c-8.895,0-16.528-3.544-18.32-4.721c-1.23-3.594-2.805-20.099-1.388-22.791c1.539-2.559,9.296-5.866,19.283-5.11c8.911,0.673,16.441,2.987,18.634,4.122C237.582,227.883,237.565,243.535,236.975,246.762z M299.66,247.789c-1.791,1.175-9.427,4.721-18.319,4.721c-8.435,0-16.65-4.118-18.367-5.748c-0.589-3.227-0.606-18.88,0.158-22.752c2.192-1.135,9.722-3.449,18.634-4.122c9.986-0.756,17.744,2.551,19.281,5.11C302.467,227.69,300.891,244.194,299.66,247.789z"></path></g></g></g></svg>