<svg xmlns="http://www.w3.org/2000/svg" width="500" height="500" version="1.1"><g id="x017"><g><path style="fill:#6E6E6E;stroke:#000000;stroke-linecap:round;stroke-linejoin:round;" d="M258.996,237.271c0,0-4.36-1.921-9.206-1.921s-9.154,1.921-9.154,1.921v-6.296c0,0,4.915-1.922,9.357-1.922c4.44,0,9.003,1.922,9.003,1.922V237.271z"></path><g><g><circle style="fill:#6E6E6E;stroke:#000000;stroke-linecap:round;stroke-linejoin:round;" cx="216.622" cy="235.789" r="24.53"></circle><path style="fill:#FFFFFF;" d="M213.968,256.531l22.965-24.446c0,0,2.593,12.963-7.038,20.741C220.267,260.604,213.968,256.531,213.968,256.531z"></path><path style="opacity:0.5;fill:#FFFFFF;" d="M197.303,243.938l25.927-28.519c0,0,5.186,3.334,6.666,5.185c-8.148,10-28.519,30.742-28.519,30.742S196.932,246.531,197.303,243.938z"></path></g><g><circle style="fill:#6E6E6E;stroke:#000000;stroke-linecap:round;stroke-linejoin:round;" cx="283.327" cy="235.789" r="24.53"></circle><path style="fill:#FFFFFF;" d="M280.675,256.531l22.962-24.446c0,0,2.594,12.963-7.037,20.741C286.971,260.604,280.675,256.531,280.675,256.531z"></path><path style="opacity:0.5;fill:#FFFFFF;" d="M264.008,243.938l25.926-28.519c0,0,5.186,3.334,6.666,5.185c-8.147,10-28.519,30.742-28.519,30.742S263.636,246.531,264.008,243.938z"></path></g></g></g></g></svg>