<svg xmlns="http://www.w3.org/2000/svg" width="500" height="500" version="1.1"><g id="x018"><g><rect x="244.516" y="244.144" style="fill:#6E6E6E;stroke:#000000;stroke-linecap:round;stroke-linejoin:round;" width="10.355" height="2.317"></rect><g><g><circle style="fill:#6E6E6E;stroke:#000000;stroke-linecap:round;stroke-linejoin:round;" cx="236.962" cy="245.915" r="9.024"></circle><path style="fill:#FFFFFF;" d="M235.986,253.546l8.448-8.993c0,0,0.953,4.769-2.589,7.631C238.302,255.044,235.986,253.546,235.986,253.546z"></path><path style="opacity:0.5;fill:#FFFFFF;" d="M229.854,248.914l9.538-10.492c0,0,1.908,1.226,2.453,1.907c-2.997,3.68-10.492,11.309-10.492,11.309S229.719,249.866,229.854,248.914z"></path></g><g><circle style="fill:#6E6E6E;stroke:#000000;stroke-linecap:round;stroke-linejoin:round;" cx="262.987" cy="245.915" r="9.024"></circle><path style="fill:#FFFFFF;" d="M262.011,253.546l8.448-8.993c0,0,0.954,4.769-2.589,7.631C264.328,255.044,262.011,253.546,262.011,253.546z"></path><path style="opacity:0.5;fill:#FFFFFF;" d="M255.88,248.914l9.538-10.492c0,0,1.908,1.226,2.452,1.907c-2.997,3.68-10.491,11.309-10.491,11.309S255.744,249.866,255.88,248.914z"></path></g></g></g></g></svg>