<svg xmlns="http://www.w3.org/2000/svg" width="500" height="500" version="1.1"><g id="x019"><g><g><path style="opacity:0.9;fill:#6E6E6E;stroke:#000000;stroke-linecap:round;stroke-linejoin:round;" d="M200.396,219.586c0,0,6.541-4.55,18.486-1.707c11.946,2.846,18.486,10.241,19.341,13.084c0.852,2.274-0.57,21.899-18.488,22.751c-23.864,1.138-23.605-27.588-24.174-29.293C194.99,222.716,200.396,219.586,200.396,219.586z"></path><path style="fill:#FFFFFF;" d="M209.688,222.061c0,0-5.459,3.413-5.459,7.85c0,4.437,3.071,14.675,3.071,14.675s-9.557-6.142-8.874-19.453C200.474,221.72,209.688,222.061,209.688,222.061z"></path></g><g><path style="fill:#3F3F3F;stroke:#000000;stroke-linecap:round;stroke-linejoin:round;" d="M318.225,211.302c-0.62-0.384-12.312,3.305-14.479,3.993c-1.255-0.783-9.339-5.333-23.186-2.036c-14.045,3.345-22.174,11.658-24.115,15.7v-0.756h-13.31v0.062c-2.472-4.237-10.464-11.843-23.746-15.006c-13.845-3.296-21.929,1.253-23.185,2.036c-2.168-0.688-13.861-4.377-14.479-3.993c-0.684,0.419-1.441,5.604,0.833,8.029c2.026,2.161,5.681,4.048,7.674,4.98c0.905,8.916,4.327,35.499,30.236,34.265c16.303-0.776,21.807-13.841,23.209-22.181h12.593c1.403,8.34,6.907,21.405,23.21,22.181c25.91,1.234,29.331-25.35,30.236-34.265c1.993-0.932,5.649-2.82,7.675-4.98C319.665,216.906,318.905,211.721,318.225,211.302z M219.734,253.716c-23.864,1.138-23.605-27.588-24.174-29.293c-0.57-1.707,4.835-4.836,4.835-4.836s6.541-4.55,18.486-1.707c11.946,2.846,18.486,10.241,19.341,13.084C239.074,233.239,237.652,252.863,219.734,253.716z M304.39,224.423c-0.569,1.705-0.311,30.431-24.176,29.293c-17.917-0.853-19.338-20.477-18.487-22.751c0.855-2.844,7.395-10.239,19.34-13.084c11.946-2.844,18.488,1.707,18.488,1.707S304.958,222.716,304.39,224.423z"></path><path style="opacity:0.9;fill:#6E6E6E;stroke:#000000;stroke-linecap:round;stroke-linejoin:round;" d="M299.555,219.586c0,0-6.542-4.55-18.488-1.707c-11.945,2.846-18.484,10.241-19.34,13.084c-0.851,2.274,0.57,21.899,18.487,22.751c23.865,1.138,23.606-27.588,24.176-29.293C304.958,222.716,299.555,219.586,299.555,219.586z"></path><path style="fill:#FFFFFF;" d="M290.26,222.061c0,0,5.461,3.413,5.461,7.85c0,4.437-3.072,14.675-3.072,14.675s9.557-6.142,8.873-19.453C299.476,221.72,290.26,222.061,290.26,222.061z"></path></g></g></g></svg>