<svg xmlns="http://www.w3.org/2000/svg" width="500" height="500" version="1.1"><g id="x002"><g><path style="fill:#FFFFFF;" d="M230.399,241.722c-6.948,5.434-12.104,7.741-12.104,7.741s10.759,0.658,17.26-6.26c6.5-6.917,1.793-12.517,1.793-12.517S237.348,236.286,230.399,241.722z"></path><path style="fill:#FFFFFF;" d="M295.149,241.722c-6.948,5.434-12.104,7.741-12.104,7.741s10.759,0.658,17.26-6.26c6.5-6.917,1.793-12.517,1.793-12.517S302.098,236.286,295.149,241.722z"></path><path style="fill:#6E6E6E;stroke:#000000;" d="M282.471,214.9c-6.705,0-13.04,1.941-17.838,5.467c-4.229,3.108-6.858,7.131-7.602,11.522c-1.444-0.423-3.751-0.877-7.031-0.89c-3.28,0.013-5.587,0.467-7.031,0.89c-0.743-4.392-3.372-8.414-7.602-11.522c-4.798-3.525-11.133-5.467-17.838-5.467c-14.151,0-25.664,8.779-25.664,19.57c0,10.792,11.513,19.572,25.664,19.572c6.705,0,13.04-1.941,17.838-5.467c3.924-2.885,6.47-6.557,7.411-10.579c1.429-0.439,3.799-0.932,7.222-0.946c3.423,0.014,5.793,0.507,7.222,0.946c0.941,4.022,3.487,7.694,7.411,10.579c4.798,3.525,11.133,5.467,17.838,5.467c14.151,0,25.664-8.78,25.664-19.572C308.135,223.68,296.622,214.9,282.471,214.9z M234.634,245.875c-4.53,3.328-10.605,5.162-17.104,5.162c-13.058,0-23.68-7.431-23.68-16.566c0-9.135,10.622-16.566,23.68-16.566c6.499,0,12.574,1.833,17.104,5.163c4.24,3.116,6.574,7.166,6.574,11.403C241.208,238.709,238.874,242.76,234.634,245.875z M282.471,251.037c-6.499,0-12.574-1.834-17.104-5.162c-4.239-3.115-6.574-7.166-6.574-11.404c0-4.237,2.335-8.288,6.574-11.403c4.53-3.329,10.605-5.163,17.104-5.163c13.058,0,23.68,7.431,23.68,16.566C306.15,243.606,295.528,251.037,282.471,251.037z"></path></g></g></svg>