<svg xmlns="http://www.w3.org/2000/svg" width="500" height="500" version="1.1"><g id="x020"><g><g><path style="fill:#6E6E6E;stroke:#000000;stroke-linecap:round;stroke-linejoin:round;" d="M195.416,213.031c0,0-8.121,0-8.745,0.388c-0.625,0.384-0.625,6.186,2.186,7.348c2.812,1.16,6.872,1.547,6.872,1.547L195.416,213.031z"></path><path style="fill:#6E6E6E;stroke:#000000;stroke-linecap:round;stroke-linejoin:round;" d="M243.467,225.404c-0.551,10.375-1.911,23.489-5.256,25.439c-5.31,3.095-39.045,1.25-39.045,1.25s-3.652-4.531-5.31-13.147c-1.736-9.024-1.445-22.192,0.312-24.367c3.437-4.257,49.667,0,49.667,0S243.792,219.3,243.467,225.404z"></path><path style="opacity:0.2;fill:#FFFFFF;" d="M201.092,249.688c0,0-5.778-3.905-4.842-12.495c8.122,0,43.889-0.157,43.889-0.157s0.624,10.153-3.281,12.027C232.954,250.938,201.092,249.688,201.092,249.688z"></path><path style="opacity:0.2;fill:#FFFFFF;" d="M197.215,216.905c0,0,10.208-2.436,14.22-0.165c0.416,2.509-1.01,3.416-1.01,3.416s-11.9,1.308-13.282,0.185C195.76,219.218,195.482,217.649,197.215,216.905z"></path></g><g><path style="fill:#6E6E6E;stroke:#000000;stroke-linecap:round;stroke-linejoin:round;" d="M304.533,213.031c0,0,8.121,0,8.745,0.388c0.625,0.384,0.625,6.186-2.187,7.348c-2.811,1.16-6.872,1.547-6.872,1.547L304.533,213.031z"></path><path style="fill:#6E6E6E;stroke:#000000;stroke-linecap:round;stroke-linejoin:round;" d="M256.483,225.404c0.549,10.375,1.91,23.489,5.254,25.439c5.311,3.095,39.046,1.25,39.046,1.25s3.653-4.531,5.311-13.147c1.737-9.024,1.445-22.192-0.312-24.367c-3.437-4.257-49.668,0-49.668,0S256.158,219.3,256.483,225.404z"></path><path style="opacity:0.2;fill:#FFFFFF;" d="M299.578,249.688c0,0,5.779-3.905,4.842-12.495c-8.121,0-43.889-0.157-43.889-0.157s-0.624,10.153,3.279,12.027C267.717,250.938,299.578,249.688,299.578,249.688z"></path><path style="opacity:0.2;fill:#FFFFFF;" d="M261.72,216.905c0,0,10.207-2.436,14.218-0.165c0.415,2.509-1.01,3.416-1.01,3.416s-11.9,1.308-13.281,0.185C260.264,219.218,259.984,217.649,261.72,216.905z"></path><polygon style="fill:#6E6E6E;stroke:#000000;stroke-linecap:round;stroke-linejoin:round;" points="242.771,214.371 256.14,214.371 256.14,224.367 242.709,224.367 "></polygon></g></g></g></svg>