<svg xmlns="http://www.w3.org/2000/svg" width="500" height="500" version="1.1"><g id="x021"><g><g><path style="fill:#6E6E6E;stroke:#000000;stroke-linecap:round;stroke-linejoin:round;" d="M202.621,216.648c0,0-13.52-4.328-14.173-3.923c-0.652,0.399-1.376,5.357,0.796,7.675c2.754,2.937,8.667,5.354,8.667,5.354L202.621,216.648z"></path><polygon style="fill:#6E6E6E;stroke:#000000;stroke-linecap:round;stroke-linejoin:round;" points="239.715,215.989 259.228,215.989 259.227,226.433 239.623,226.433 "></polygon><path style="fill:#6E6E6E;stroke:#000000;stroke-linecap:round;stroke-linejoin:round;" d="M297.328,216.648c0,0,13.52-4.328,14.172-3.923c0.652,0.399,1.378,5.357-0.795,7.675c-2.754,2.937-8.666,5.354-8.666,5.354L297.328,216.648z"></path><g><path style="fill:#6E6E6E;stroke:#000000;stroke-linecap:round;stroke-linejoin:round;" d="M256.708,219.258c-1.958,4.079-1.796,25.775,11.419,34.911c13.213,9.135,32.3,5.058,36.217-1.142c3.914-6.2,7.666-31.159-9.625-38.99C277.426,206.208,258.664,215.18,256.708,219.258z"></path><path style="opacity:0.2;fill:#FFFFFF;" d="M303.527,229.373c0,0-2.773-10.44-11.584-13.377c-8.809-2.937-25.611-1.958-32.137,4.895c-1.469,2.936,0.49,10.441,0.49,10.441s-1.305-6.526,4.894-9.952s22.675-3.59,26.916-1.632C296.35,221.706,303.527,229.373,303.527,229.373z"></path></g><g><path style="fill:#6E6E6E;stroke:#000000;stroke-linecap:round;stroke-linejoin:round;" d="M243.241,219.258c1.958,4.079,1.796,25.775-11.419,34.911c-13.213,9.135-32.3,5.058-36.215-1.142c-3.915-6.2-7.667-31.159,9.625-38.99C222.523,206.208,241.284,215.18,243.241,219.258z"></path><path style="opacity:0.2;fill:#FFFFFF;" d="M196.421,229.373c0,0,2.774-10.44,11.583-13.377c8.809-2.937,25.612-1.958,32.137,4.895c1.469,2.936-0.489,10.441-0.489,10.441s1.305-6.526-4.895-9.952c-6.198-3.426-22.675-3.59-26.917-1.632C203.599,221.706,196.421,229.373,196.421,229.373z"></path></g></g></g></g></svg>