<svg xmlns="http://www.w3.org/2000/svg" width="500" height="500" version="1.1"><g id="x022"><g><g><g><path style="fill:#6E6E6E;stroke:#000000;stroke-linecap:round;stroke-linejoin:round;" d="M198.898,215.92c0,0-13.111-4.198-13.744-3.804c-0.634,0.389-1.336,5.195,0.772,7.443c2.669,2.848,8.403,5.192,8.403,5.192L198.898,215.92z"></path><path style="opacity:0.9;" d="M308.486,215.762c-16.771-6.645-42.07-2.402-48.471,1.519v-0.101h-8.435h-3.219h-8.429v0.101c-6.4-3.921-31.701-8.164-48.471-1.519c-1.266,12.023,1.583,23.415,5.379,29.11c9.493,10.758,32.59,9.809,35.438,9.334c6.012-3.639,6.328-19.459,11.708-24.206c1.802-1.589,4.348-2.244,5.986-2.512c1.639,0.268,4.187,0.923,5.987,2.512c5.38,4.747,5.695,20.567,11.708,24.206c2.848,0.475,25.945,1.424,35.438-9.334C306.903,239.177,309.752,227.785,308.486,215.762z"></path></g></g><g><g><path style="fill:#6E6E6E;stroke:#000000;stroke-linecap:round;stroke-linejoin:round;" d="M301.05,215.92c0,0,13.111-4.198,13.744-3.804c0.633,0.389,1.337,5.195-0.771,7.443c-2.672,2.848-8.406,5.192-8.406,5.192L301.05,215.92z"></path><path style="fill:#6E6E6E;stroke:#000000;stroke-linecap:round;stroke-linejoin:round;" d="M311.967,217.977c-0.949-2.848-8.854-8.681-27.528-9.492c-17.54-0.763-30.173,5.309-34.466,7.727c-4.292-2.418-16.923-8.49-34.462-7.727c-18.674,0.812-26.579,6.645-27.527,9.492c-0.95,2.848,2.531,4.747,2.531,4.747s10.441-6.646,23.731-7.278c13.289-0.633,28.793,4.113,28.793,4.113s1.899,3.48,3.165,4.747c0.745,0.744,2.472,0.612,3.771,0.377c1.298,0.234,3.028,0.367,3.773-0.377c1.266-1.267,3.164-4.747,3.164-4.747s15.505-4.746,28.793-4.113c13.29,0.632,23.731,7.278,23.731,7.278S312.917,220.824,311.967,217.977z"></path></g></g></g></g></svg>