<svg xmlns="http://www.w3.org/2000/svg" width="500" height="500" version="1.1"><g id="x023"><g><rect x="245.208" y="232.192" style="fill:#B2B2B2;stroke:#000000;stroke-linecap:round;stroke-linejoin:round;" width="9.084" height="3.547"></rect><g><g><path style="fill:#B2B2B2;stroke:#000000;stroke-linecap:round;stroke-linejoin:round;" d="M201.297,217.189c0,0-13.371-4.28-14.015-3.879c-0.646,0.395-1.362,5.297,0.787,7.589c2.724,2.904,8.569,5.293,8.569,5.293L201.297,217.189z"></path><g style="opacity:0.8;"><path style="stroke:#000000;stroke-linecap:round;stroke-linejoin:round;" d="M242.108,227.675c1.936,4.033-0.322,22.583-6.452,24.196c-9.386,2.469-31.118,4.528-36.779,0c-3.652-2.922-8.711-12.905-9.679-17.745c-0.762-3.81,3.226-14.195,6.775-15.486C213.614,212.227,240.173,223.641,242.108,227.675z"></path></g><path style="opacity:0.8;fill:#FFFFFF;" d="M194.037,230.255c0,0,4.517-8.711,8.389-8.711c3.872,0,16.777,0.646,16.455,1.937C218.557,224.771,194.037,230.255,194.037,230.255z"></path><path style="fill:#505050;stroke:#000000;stroke-linecap:round;stroke-linejoin:round;" d="M190.489,233.159c0,0,5.808-13.228,8.389-13.872c2.581-0.646,31.617,3.871,35.811,7.419c4.194,3.55,8.389,9.68,8.389,9.68s1.29,1.29,2.581-0.646c1.29-1.935-0.848-10.983-2.904-13.228c-3.548-3.872-39.386-11.715-45.813-10.001c-9.678,2.582-11.292,17.422-11.292,17.422S185.327,233.805,190.489,233.159z"></path></g></g><g><g><path style="fill:#B2B2B2;stroke:#000000;stroke-linecap:round;stroke-linejoin:round;" d="M298.651,217.189c0,0,13.37-4.28,14.015-3.879c0.646,0.395,1.362,5.297-0.787,7.589c-2.722,2.904-8.569,5.293-8.569,5.293L298.651,217.189z"></path><g style="opacity:0.8;"><path style="stroke:#000000;stroke-linecap:round;stroke-linejoin:round;" d="M257.841,227.675c-1.937,4.033,0.322,22.583,6.452,24.196c9.387,2.469,31.118,4.528,36.778,0c3.653-2.922,8.712-12.905,9.679-17.745c0.763-3.81-3.225-14.195-6.774-15.486C286.335,212.227,259.775,223.641,257.841,227.675z"></path></g><path style="opacity:0.8;fill:#FFFFFF;" d="M305.911,230.255c0,0-4.516-8.711-8.388-8.711s-16.777,0.646-16.455,1.937C281.393,224.771,305.911,230.255,305.911,230.255z"></path><path style="fill:#505050;stroke:#000000;stroke-linecap:round;stroke-linejoin:round;" d="M309.459,233.159c0,0-5.807-13.228-8.388-13.872c-2.58-0.646-31.617,3.871-35.811,7.419c-4.195,3.55-8.389,9.68-8.389,9.68s-1.29,1.29-2.58-0.646c-1.287-1.935,0.846-10.983,2.903-13.228c3.548-3.872,39.386-11.715,45.813-10.001c9.679,2.582,11.291,17.422,11.291,17.422S314.623,233.805,309.459,233.159z"></path></g></g></g></g></svg>