<svg xmlns="http://www.w3.org/2000/svg" width="500" height="500" version="1.1"><g id="x025"><g><g><g><g><path style="fill:#6E6E6E;stroke:#000000;" d="M238.146,234.525c0,11.33-9.217,20.549-20.547,20.549c-11.33,0-20.548-9.219-20.548-20.549s9.218-20.548,20.548-20.548S238.146,223.195,238.146,234.525z M217.599,207.463c-14.921,0-27.062,12.14-27.062,27.062s12.141,27.063,27.062,27.063c14.921,0,27.061-12.14,27.061-27.063S232.52,207.463,217.599,207.463z"></path></g><path style="fill:#FFFFFF;" d="M227.218,242.885c-7.246,7.711-12.62,10.982-12.62,10.982s11.217,0.935,17.994-8.88c6.778-9.815,1.871-17.76,1.871-17.76S234.463,235.172,227.218,242.885z"></path></g></g><g><path style="fill:#6E6E6E;stroke:#000000;" d="M245.725,244.841c-0.027,0.033-0.011,0.017-0.041,0.046c0.012-0.012,1.304-1.26,5.244-1.26c3.453,0,4.2,0.933,4.207,0.942c-0.001,0-0.04-0.053-0.09-0.179l0,0c0.313,0.811,1.224,1.215,2.034,0.903c0.811-0.313,1.216-1.222,0.904-2.033l0,0c-0.251-0.653-1.5-2.781-7.056-2.781c-5.364,0-7.276,1.94-7.604,2.329l0,0c-0.561,0.664-0.478,1.656,0.185,2.217C244.171,245.588,245.164,245.505,245.725,244.841L245.725,244.841z"></path></g></g></g></svg>