<svg xmlns="http://www.w3.org/2000/svg" width="500" height="500" version="1.1"><g id="x026"><g><path style="fill:#6E6E6E;stroke:#000000;stroke-linecap:round;stroke-linejoin:round;" d="M310.713,215.12c-5.682-6.897-33.852-17.622-61.75-17.538c-27.222,0.083-54.183,10.806-59.727,17.538c-11.223,13.63,3.207,40.889,13.629,44.095c10.422,3.206,27.258-6.415,36.077-8.819c7.465-2.037,10.327-2.92,11.032-3.145c0.704,0.224,3.566,1.108,11.031,3.145c8.819,2.404,25.655,12.025,36.078,8.819C307.505,256.009,321.937,228.75,310.713,215.12z"></path><g><g><g><path style="fill:#FFFFFF;stroke:#000000;stroke-linecap:round;stroke-linejoin:round;" d="M236.775,235.238c0,0-7.065,11.727-22.798,10.581c-13.531-0.985-18.824-11.315-18.824-11.315s2.774-13.242,18.83-15.1C230.038,217.545,236.775,235.238,236.775,235.238z"></path><ellipse transform="matrix(1 0.009 -0.009 1 2.0978 -1.932)" cx="216.512" cy="232.987" rx="13.178" ry="13.718"></ellipse></g></g><g><g><path style="fill:#FFFFFF;stroke:#000000;stroke-linecap:round;stroke-linejoin:round;" d="M263.102,235.238c0,0,7.063,11.727,22.797,10.581c13.53-0.985,18.824-11.315,18.824-11.315s-2.774-13.242-18.829-15.1C269.837,217.545,263.102,235.238,263.102,235.238z"></path><ellipse transform="matrix(-1 0.009 -0.009 -1 568.8052 463.4246)" cx="283.364" cy="232.987" rx="13.179" ry="13.718"></ellipse></g></g></g></g></g></svg>