<svg xmlns="http://www.w3.org/2000/svg" width="500" height="500" version="1.1"><g id="x027"><g><g><g><path style="fill:#879699;stroke:#000000;stroke-linecap:round;stroke-linejoin:round;" d="M198.253,248.868c0,0-16.052-0.981-18.145-2.841c-3.935-3.498-7.541-8.645-7.214-16.833c0.437-10.931,3.497-18.582,8.525-19.894c6.777-0.875,16.177-0.656,16.177-0.656L198.253,248.868z"></path><path style="fill:#879699;stroke:#000000;stroke-linecap:round;stroke-linejoin:round;" d="M301.696,248.868c0,0,16.051-0.982,18.145-2.841c3.935-3.498,7.541-8.645,7.214-16.833c-0.438-10.931-3.497-18.582-8.525-19.894c-6.776-0.875-16.177-0.656-16.177-0.656L301.696,248.868z"></path></g><path style="fill:#879699;stroke:#000000;stroke-linecap:round;stroke-linejoin:round;" d="M304.606,206.889c-10.455-1.315-29.146,2.132-54.632,2.191c-25.486-0.059-44.177-3.506-54.632-2.191c-8.763,1.101-9.938,13.646-9.592,15.381c0.392,9.548,0.938,24.301,21.595,28.786c9.1,1.975,28.266-0.365,42.629-0.435c14.362,0.07,33.529,2.41,42.629,0.435c20.658-4.484,21.203-19.238,21.596-28.786C314.544,220.535,313.371,207.989,304.606,206.889z"></path><path style="fill:#9CB5BA;" d="M299.522,238.103c0,0,6.065,2.459,9.673-0.328c-1.312,3.279-8.853,11.642-18.035,11.477c0.983-3.77-0.654-9.672-0.654-9.672S297.72,239.906,299.522,238.103z"></path><path style="fill:#9CB5BA;" d="M197.378,225.806c0,0,0-3.443,1.148-4.918c1.147-1.476,12.952-0.656,12.952-0.656s-8.034-7.706-7.542-11.806c-4.098-0.163-10.492-0.163-12.296,1.968c-1.803,2.131-5.247,8.197-3.28,18.363C191.64,226.134,197.378,225.806,197.378,225.806z"></path><path style="fill:#6E6E6E;stroke:#000000;stroke-linecap:round;stroke-linejoin:round;" d="M199.477,222.2c0,0,0.438,12.241,2.625,14.428c2.186,2.185,47.873,0,47.873,0s45.688,2.185,47.875,0c2.187-2.188,2.624-14.428,2.624-14.428H199.477z"></path><polygon style="fill:#505050;" points="201.969,224.167 299.031,224.167 297.72,228.102 202.625,228.102 "></polygon></g><polygon style="fill:#FFFFFF;" points="242.107,224.771 259.21,224.771 258.003,234.831 243.113,234.831 "></polygon><polygon style="opacity:0.5;fill:#FFFFFF;" points="263.234,224.771 261.625,235.031 268.867,235.272 270.578,224.569 "></polygon></g></g></svg>