<svg xmlns="http://www.w3.org/2000/svg" width="500" height="500" version="1.1"><g id="x028"><g><path style="fill:#6E6E6E;stroke:#000000;stroke-linecap:round;stroke-linejoin:round;" d="M313.597,187.326c-0.522,0.523-27.351,21.438-49.008,39.399c-14.287,11.848-30.816,31.31-40.589,33.608c-24.59,5.786-29.128-5.838-29.128-5.838S184,238.667,187.333,219c17.667-7.333,53.333-8,53.333-8l70.325-30.038L313.597,187.326z"></path><circle style="fill:#8C8C8C;stroke:#000000;stroke-linecap:round;stroke-linejoin:round;" cx="216.857" cy="253.484" r="3.616"></circle><circle style="fill:#8C8C8C;stroke:#000000;stroke-linecap:round;stroke-linejoin:round;" cx="202.682" cy="253.918" r="3.616"></circle><circle style="fill:#8C8C8C;stroke:#000000;stroke-linecap:round;stroke-linejoin:round;" cx="198.053" cy="226.147" r="3.616"></circle><circle style="fill:#8C8C8C;stroke:#000000;stroke-linecap:round;stroke-linejoin:round;" cx="211.361" cy="223.832" r="3.616"></circle><circle style="fill:#8C8C8C;stroke:#000000;stroke-linecap:round;stroke-linejoin:round;" cx="225.535" cy="222.386" r="3.616"></circle><circle style="fill:#8C8C8C;stroke:#000000;stroke-linecap:round;stroke-linejoin:round;" cx="239.132" cy="219.204" r="3.616"></circle><circle style="fill:#8C8C8C;stroke:#000000;stroke-linecap:round;stroke-linejoin:round;" cx="251.571" cy="214.576" r="3.617"></circle><circle style="fill:#8C8C8C;stroke:#000000;stroke-linecap:round;stroke-linejoin:round;" cx="229.296" cy="250.735" r="3.616"></circle><path style="fill:#8C8C8C;stroke:#000000;stroke-linecap:round;stroke-linejoin:round;" d="M209.335,224.411c0,0,10.993,21.696,17.936,26.903c1.157-2.024,2.025-2.894,2.025-2.894l-15.622-25.167L209.335,224.411z"></path><path style="fill:#8C8C8C;stroke:#000000;stroke-linecap:round;stroke-linejoin:round;" d="M223.808,220.966c0,0-9.435,22.417-8.916,31.081c2.293-0.428,3.516-0.327,3.516-0.327l9.09-28.192L223.808,220.966z"></path><path style="fill:#8C8C8C;stroke:#000000;stroke-linecap:round;stroke-linejoin:round;" d="M238.272,218.652c0,0-9.436,22.417-8.917,31.08c2.293-0.427,3.516-0.327,3.516-0.327l9.089-28.191L238.272,218.652z"></path><circle style="fill:#8C8C8C;stroke:#000000;stroke-linecap:round;stroke-linejoin:round;" cx="241.446" cy="241.479" r="3.616"></circle><path style="fill:#8C8C8C;stroke:#000000;stroke-linecap:round;stroke-linejoin:round;" d="M221.646,219.362c0,0,12.846,20.652,20.217,25.233c0.976-2.12,1.764-3.06,1.764-3.06l-17.76-23.706L221.646,219.362z"></path><circle style="fill:#8C8C8C;stroke:#000000;stroke-linecap:round;stroke-linejoin:round;" cx="252.728" cy="231.643" r="3.616"></circle></g></g></svg>