<svg xmlns="http://www.w3.org/2000/svg" width="500" height="500" version="1.1"><g id="x029"><g><g><path style="fill:#6E6E6E;stroke:#000000;stroke-linecap:round;stroke-linejoin:round;" d="M250.42,233.905c0,0-14.273-21.086-29.195-24.006c-14.923-2.92-50.283,2.271-53.202,5.839c-2.92,3.569,0.647,11.679,3.244,14.273c2.595,2.595,7.137,1.947,7.137,1.947s1.621,6.812,3.893,9.407c2.27,2.595,10.381,1.298,10.381,1.298s0.324,7.137,3.568,9.084c3.245,1.946,8.11,2.595,8.11,2.595l-2.918,11.029l27.898-7.137c0,0,6.489-11.678,10.706-13.3c4.217-1.622,10.704,0,10.704,0L250.42,233.905z M174.51,225.795c0,0-1.945-5.19-0.323-6.812c1.621-1.623,12.002,2.271,12.002,2.271S181.972,225.471,174.51,225.795z M185.541,237.474c0,0-3.569-5.839-1.947-7.462c1.622-1.622,9.083,3.569,9.083,3.569S193.001,237.149,185.541,237.474z M208.249,247.206c-8.55-1.93-12.651-19.14-11.03-22.383c1.622-3.245,20.691-3.802,26.277-1.298c9.408,4.218,12.003,17.193,12.003,17.193S218.305,249.478,208.249,247.206z"></path></g><g><path style="fill:#6E6E6E;stroke:#000000;stroke-linecap:round;stroke-linejoin:round;" d="M249.198,244.936c0,0,6.494-1.622,10.71,0c4.218,1.622,10.706,13.3,10.706,13.3l27.898,7.137l-2.919-11.029c0,0,4.865-0.648,8.109-2.595c3.245-1.947,3.568-9.084,3.568-9.084s8.111,1.297,10.381-1.298c2.272-2.595,3.893-9.407,3.893-9.407s4.542,0.648,7.137-1.947c2.596-2.595,6.164-10.705,3.245-14.273c-2.921-3.568-38.279-8.759-53.202-5.839c-14.923,2.919-29.203,24.006-29.203,24.006L249.198,244.936z M313.761,221.254c0,0,10.38-3.893,12.002-2.271c1.622,1.622-0.324,6.812-0.324,6.812C317.978,225.471,313.761,221.254,313.761,221.254z M307.271,233.581c0,0,7.461-5.19,9.084-3.569c1.622,1.623-1.947,7.462-1.947,7.462C306.948,237.149,307.271,233.581,307.271,233.581z M264.45,240.718c0,0,2.595-12.976,12.004-17.193c5.586-2.504,24.654-1.947,26.276,1.298c1.622,3.243-2.48,20.453-11.03,22.383C281.644,249.478,264.45,240.718,264.45,240.718z"></path></g><g><path style="fill:#6E6E6E;stroke:#000000;stroke-linecap:round;stroke-linejoin:round;" d="M250.551,245.906c0.028-0.054,8.402-16.552,7.105-22.381c-1.292-5.833-7.09-6.163-7.105-6.164l0,0l0,0h-0.001l0,0c-0.014,0.001-5.839,0.332-7.136,6.164C242.118,229.354,250.522,245.852,250.551,245.906l-0.001,0.002l0.001-0.001v0.001V245.906z"></path><g><path style="fill:none;stroke:#000000;stroke-linecap:round;stroke-linejoin:round;" d="M247.176,222.551c0,0,0.325-15.572-12.327-25.953"></path><path style="fill:none;stroke:#000000;stroke-linecap:round;stroke-linejoin:round;" d="M253.729,222.551c0,0-0.323-15.572,12.276-25.953"></path></g></g></g></g></svg>