<svg xmlns="http://www.w3.org/2000/svg" width="500" height="500" version="1.1"><g id="x003"><g><g><g><path style="fill:#FFFFFF;" d="M229.745,244.458c-6.406,4.94-11.149,7.021-11.149,7.021s9.862,0.673,15.868-5.629c6.006-6.301,1.724-11.467,1.724-11.467S236.152,239.519,229.745,244.458z"></path></g><g><path style="fill:#FFFFFF;" d="M291.209,244.283c-6.407,4.938-11.15,7.021-11.15,7.021s9.863,0.674,15.869-5.629c6.004-6.302,1.723-11.468,1.723-11.468S297.614,239.342,291.209,244.283z"></path></g></g><path style="fill:#6E6E6E;stroke:#000000;" d="M299.961,240.699c0.002-0.011,0.002-0.005,0.002-0.016c-0.06,0.544-1.652,13.309-18.298,13.192c-12.938-0.09-17.35-7.406-18.76-11.133c0.061-0.066-1.591-1.966-2.42-2.265c-3.897-2.883-17.231-2.99-21.156-0.074c-0.618,0.271-2.398,2.139-2.318,2.232c-1.54,3.737-6.144,10.885-18.859,10.796c-16.8-0.116-18.064-12.886-18.11-13.43c-0.128-1.527-5.659-4.063-5.53-2.536c0.015,0.184,1.792,18.365,23.602,18.518c12.471,0.086,18.875-5.708,22.073-10.66c1.863-1.442,5.248-3.438,9.724-3.406c4.679,0.033,8.138,2.266,9.917,3.739c3.171,4.953,9.492,10.682,21.799,10.768c22.571,0.158,23.075-10.008,23.857-18.186C305.634,236.714,300.109,239.173,299.961,240.699z"></path></g></g></svg>