<svg xmlns="http://www.w3.org/2000/svg" width="500" height="500" version="1.1"><g id="x030"><g><g><path style="fill:#6E6E6E;stroke:#000000;stroke-linecap:round;stroke-linejoin:round;" d="M303.3,217.907l-4.624-4.834c0,0-20.388,0.631-35.1,1.051c-4.203,3.573-5.464,6.516-5.464,6.516l1.05,27.325l4.833,5.675c0,0,25.223,0.841,31.318-1.684c6.307-2.73,7.776-6.725,7.776-6.725S305.822,223.371,303.3,217.907z"></path><path style="fill:none;stroke:#DCDCDC;stroke-linecap:round;stroke-linejoin:round;" d="M297.364,222.205c0,0,0.052,18.192-0.789,20.084c-0.841,1.891-5.044,2.521-7.357,3.152c-1.606,0.438-11.536,0.37-17.446,0.286c-2.594-0.036-5.462-3.438-5.462-3.438l-0.212-19.968C266.098,222.321,286.064,220.85,297.364,222.205z"></path></g><path style="fill:#6E6E6E;stroke:#000000;stroke-linecap:round;stroke-linejoin:round;" d="M199.167,256.667c-0.631,0.632,0.152,2.782,1.833,3.833c0.235,0.146,0.89,0.96,3.321,0.495c12.179-2.328,51.346-10.329,59.512-11.829c1.472-2.311-0.833-2.5-0.833-2.5l-59.833,12.167L199.167,256.667z"></path><path style="fill:#6E6E6E;stroke:#000000;stroke-linecap:round;stroke-linejoin:round;" d="M296.834,249.5c-0.42-1.051-0.139-2.709,1.332-2.5c1.473,0.21,5.834,5,5.834,5s1.06,2.545-0.833,2.333C302.334,254.333,298.167,250.833,296.834,249.5z"></path><path style="fill:#6E6E6E;stroke:#000000;stroke-linecap:round;stroke-linejoin:round;" d="M298.667,217c0,0,0.115,0.915,1.167,1.333c5.994-3.698,14-7.167,14-7.167v2.5c0,0,1.766-1.208,1.666-3c-0.166-1.167-1.833-2.167-1.833-2.167S300.834,214.833,298.667,217z"></path><path style="fill:#6E6E6E;stroke:#000000;stroke-linecap:round;stroke-linejoin:round;" d="M185.333,205.667c3.833,2.667,76.875,15.662,76.875,15.662s0.843,0.072-0.209-2.662c-13.833-2-75.833-15.5-75.833-15.5L186,200.5C186,200.5,183.333,202.833,185.333,205.667z"></path></g></g></svg>