<svg xmlns="http://www.w3.org/2000/svg" width="500" height="500" version="1.1"><g id="x031"><g><g><path style="fill:#3F3F3F;stroke:#000000;stroke-linecap:round;stroke-linejoin:round;" d="M241.571,249.978c1.29,0.41,4.786-18.18,4.466-24.879c-5.422-8.293-17.863-16.268-17.863-16.268s-6.458,2.326-19.936,0.318c-14.993-2.232-11.803-13.716-13.397-15.63c-6.698-2.074-29.505-3.188-29.505-3.188s16.586,20.254,7.018,30.462c7.496,0.479,12.918,6.698,8.931,17.703c5.742-0.319,15.63,1.436,15.311,12.759c6.38-7.655,21.372-0.002,22.967,5.74C224.984,250.616,234.554,247.746,241.571,249.978z"></path><path style="opacity:0.5;fill:#FFFFFF;" d="M182.241,223.184c0,0,3.351,6.38,2.074,13.557c2.391,0.797,3.828,0.638,3.828,0.638S187.982,229.724,182.241,223.184z"></path><path style="opacity:0.5;fill:#FFFFFF;" d="M175.704,219.676c0,0,2.71-6.38,0-14.833c3.029,5.423,4.624,10.686,3.507,16.587C177.616,220.313,175.704,219.676,175.704,219.676z"></path></g><g><path style="fill:#6E6E6E;stroke:#000000;stroke-linecap:round;stroke-linejoin:round;" d="M195.37,225.26c0,0,22.322-5.979,25.112-5.979c7.972,3.189,13.952,9.965,19.532,15.547c0,1.593-14.351,4.782-22.322,6.377C216.498,241.605,195.37,225.26,195.37,225.26z"></path><path style="fill:#505050;" d="M229.442,236.231c0.978-0.178,6.752-1.867,6.752-1.867s-0.159-0.187,0,0c-6.663-7.906-14.215-11.638-14.215-11.638s-13.504,3.553-18.036,4.976c-0.089,0.8,3.763,4.378,8.441,5.42c-0.89-1.599-0.81-4.198,0.212-4.067c3.188,0.402,11.596,1.364,17.534,2.814C231.114,233.051,231.891,234.942,229.442,236.231z"></path><ellipse transform="matrix(0.9953 0.0973 -0.0973 0.9953 23.2843 -19.5212)" style="fill:#FFFFFF;" cx="211.807" cy="228.99" rx="2.976" ry="1.733"></ellipse></g></g></g></svg>