<svg xmlns="http://www.w3.org/2000/svg" width="500" height="500" version="1.1"><g id="x032"><g><g><path style="opacity:0.6;fill:#6E6E6E;" d="M282.05,255.186c4.463,0.204,18.055,1.622,18.055,1.622s5.274-9.127,6.491-16.025c1.217-6.896-0.608-21.096-0.608-21.096l-7.912-5.68c0,0-21.706-1.624-47.874-1.624s-47.873,1.624-47.873,1.624l-7.911,5.68c0,0-1.826,14.2-0.609,21.096c1.217,6.897,6.491,16.025,6.491,16.025s13.592-1.418,18.055-1.622c3.046-0.14,8.519-5.477,15.619-9.128c7.1-3.651,16.229-4.26,16.229-4.26s9.129,0.609,16.229,4.26L282.05,255.186z"></path></g><path style="fill:none;stroke:#000000;stroke-linecap:round;stroke-linejoin:round;" d="M282.05,255.186c4.463,0.204,18.055,1.622,18.055,1.622s5.274-9.127,6.491-16.025c1.217-6.896-0.608-21.096-0.608-21.096l-7.912-5.68c0,0-21.706-1.624-47.874-1.624s-47.873,1.624-47.873,1.624l-7.911,5.68c0,0-1.826,14.2-0.609,21.096c1.217,6.897,6.491,16.025,6.491,16.025s13.592-1.418,18.055-1.622c3.046-0.14,8.519-5.477,15.619-9.128c7.1-3.651,16.229-4.26,16.229-4.26s9.129,0.609,16.229,4.26L282.05,255.186z"></path><g><g><path style="fill:#4F4F69;stroke:#000000;stroke-linecap:round;stroke-linejoin:round;" d="M192.541,231.654l-0.608,5.275c0,0,1.014,13.388,2.636,15.214c2.434-0.407,4.666-0.813,4.666-0.813l1.42,4.87l-5.883,1.621l0.609,4.058l-4.869,1.217l-1.421-5.071c-1.013,0.405-2.23,0-2.23,0s-3.245-18.256-2.839-19.879c1.825-1.42,2.028-0.811,2.028-0.811s1.014-2.84,2.028-6.086C190.106,230.843,192.541,231.654,192.541,231.654z"></path><path style="opacity:0.5;fill:#FFFFFF;" d="M187.469,238.958c0,0.304,2.333,17.444,2.333,17.444l-1.217,0.305l-2.638-17.648L187.469,238.958z"></path><path style="fill:#4F4F69;stroke:#000000;stroke-linecap:round;stroke-linejoin:round;" d="M184.224,226.787c0,0,1.015,6.289,1.623,6.289c0.609,0,8.926-1.016,9.128-1.624c0.204-0.609-1.217-6.288-1.217-6.288L184.224,226.787z"></path><g><path style="fill:#4F4F69;stroke:#000000;stroke-linecap:round;stroke-linejoin:round;" d="M192.541,218.063c0,0,5.072-6.492,6.086-6.694c1.013-0.204,7.911-1.42,8.316-0.204s-1.015,4.057-1.015,4.057l-4.868,1.015l-7.709,8.722L192.541,218.063z"></path><path style="opacity:0.5;fill:#FFFFFF;" d="M195.582,217.151v1.318l4.058-4.666l5.478-0.811l0.506-0.914c0,0-5.883,0.508-6.287,0.71C198.93,212.993,195.887,216.542,195.582,217.151z"></path></g><path style="fill:#4F4F69;stroke:#000000;stroke-linecap:round;stroke-linejoin:round;" d="M180.167,215.223c0,0,11.968-2.84,12.577-2.435c0.608,0.407,2.028,11.36,2.028,11.36l-1.42,2.636l-8.316,1.827c0,0-2.84-2.027-3.043-2.636C181.79,225.366,180.167,215.223,180.167,215.223z"></path><path style="opacity:0.5;fill:#FFFFFF;" d="M182.296,216.542c0,0,1.826,2.028,2.637,2.129c1.927-0.303,5.579-1.015,5.579-1.015l0.912-2.941L182.296,216.542z"></path></g><g><path style="fill:#4F4F69;stroke:#000000;stroke-linecap:round;stroke-linejoin:round;" d="M307.861,231.654l0.61,5.275c0,0-1.014,13.388-2.638,15.214c-2.435-0.407-4.666-0.813-4.666-0.813l-1.419,4.87l5.883,1.621l-0.609,4.058l4.868,1.217l1.42-5.071c1.016,0.405,2.232,0,2.232,0s3.245-18.256,2.839-19.879c-1.826-1.42-2.027-0.811-2.027-0.811s-1.016-2.84-2.028-6.086C310.298,230.843,307.861,231.654,307.861,231.654z"></path><path style="opacity:0.5;fill:#FFFFFF;" d="M312.934,238.958c0,0.304-2.332,17.444-2.332,17.444l1.217,0.305l2.637-17.648L312.934,238.958z"></path><path style="fill:#4F4F69;stroke:#000000;stroke-linecap:round;stroke-linejoin:round;" d="M316.181,226.787c0,0-1.016,6.289-1.625,6.289c-0.607,0-8.924-1.016-9.128-1.624c-0.201-0.609,1.217-6.288,1.217-6.288L316.181,226.787z"></path><g><path style="fill:#4F4F69;stroke:#000000;stroke-linecap:round;stroke-linejoin:round;" d="M307.861,218.063c0,0-5.069-6.492-6.084-6.694c-1.016-0.204-7.911-1.42-8.316-0.204c-0.406,1.217,1.013,4.057,1.013,4.057l4.87,1.015l7.707,8.722L307.861,218.063z"></path><path style="opacity:0.5;fill:#FFFFFF;" d="M304.82,217.151v1.318l-4.059-4.666l-5.477-0.811l-0.505-0.914c0,0,5.882,0.508,6.287,0.71C301.474,212.993,304.516,216.542,304.82,217.151z"></path></g><path style="fill:#4F4F69;stroke:#000000;stroke-linecap:round;stroke-linejoin:round;" d="M320.237,215.223c0,0-11.968-2.84-12.577-2.435c-0.609,0.407-2.028,11.36-2.028,11.36l1.419,2.636l8.316,1.827c0,0,2.842-2.027,3.043-2.636C318.614,225.366,320.237,215.223,320.237,215.223z"></path><path style="opacity:0.5;fill:#FFFFFF;" d="M318.106,216.542c0,0-1.825,2.028-2.637,2.129c-1.927-0.303-5.579-1.015-5.579-1.015l-0.912-2.941L318.106,216.542z"></path></g></g></g></g></svg>