<svg xmlns="http://www.w3.org/2000/svg" width="500" height="500" version="1.1"><g id="x9033"><g><g><path style="fill:#6E6E6E;stroke:#000000;stroke-linecap:round;stroke-linejoin:round;" d="M306.109,273.25c-6.8,0-12.313,1.986-12.313,4.438s5.513,4.438,12.313,4.438s12.313-1.986,12.313-4.438S312.909,273.25,306.109,273.25z M306.109,279.5c-4.798,0-8.688-0.811-8.688-1.813c0-1.001,3.89-1.813,8.688-1.813s8.688,0.812,8.688,1.813C314.797,278.689,310.907,279.5,306.109,279.5z"></path><circle style="fill:#6E6E6E;stroke:#000000;stroke-linecap:round;stroke-linejoin:round;" cx="306.109" cy="271.063" r="2.438"></circle><circle style="fill:#6E6E6E;stroke:#000000;stroke-linecap:round;stroke-linejoin:round;" cx="306.109" cy="277.438" r="1.313"></circle><g><polygon style="fill:#6E6E6E;stroke:#000000;stroke-linecap:round;stroke-linejoin:round;" points="306.109,283.625 297.609,297.75 314.609,297.75 "></polygon><path style="opacity:0.5;fill:#FFFFFF;" d="M306.125,285.125c-0.125,0.375-1,11.625-1,11.625L298.75,297L306.125,285.125z"></path><polygon style="fill:#505050;stroke:#000000;stroke-linecap:round;stroke-linejoin:round;" points="306.109,311.875 314.609,297.75 297.609,297.75 "></polygon></g></g><g><path style="fill:#6E6E6E;stroke:#000000;stroke-linecap:round;stroke-linejoin:round;" d="M302.167,259c-1.833-0.5-2.5,1.667-2.5,1.667s-0.229,4.396,4.166,6.167c3.376,1.36,7.854,1.312,9.854-5.021s-3.521-10.479-7.021-11.313c-1.666,0.167-2.167,3.5-2.167,3.5s6.375,2,5.375,5.813c-0.821,3.131-2.875,4.292-4.875,3.125S302.167,259,302.167,259z"></path><path style="fill:none;stroke:#000000;stroke-linecap:round;stroke-linejoin:round;" d="M302.313,262c0,0,2.188,2.375,4.625,1.438"></path></g></g></g></svg>