<svg xmlns="http://www.w3.org/2000/svg" width="500" height="500" version="1.1"><g id="x9034"><g><g><path style="fill:none;stroke:#FFFFFF;stroke-linecap:round;stroke-linejoin:round;" d="M237.802,230.833c0,0-11.034-2.5-37.534,0"></path><path style="fill:none;stroke:#FFFFFF;stroke-linecap:round;stroke-linejoin:round;" d="M262.199,230.833c0,0,11.033-2.5,37.533,0"></path></g><path style="fill:#6E6E6E;stroke:#000000;stroke-linecap:round;stroke-linejoin:round;" d="M299.061,230.167c0,0-0.023,14.5-1.066,15.667c-1.045,1.167-32.719,1.167-33.764,0c-1.043-1.167-0.865-15.667-0.865-15.667l-3.232,0.333c0,0-0.018,1.941,0.007,4.565c-3.611-0.416-16.667-0.416-20.279,0c0.024-2.624,0.007-4.565,0.007-4.565l-3.231-0.333c0,0,0.178,14.5-0.866,15.667s-32.719,1.167-33.763,0s-1.066-15.667-1.066-15.667l-3.231,0.333c0,0,0.05,16.699,1.244,18.366c1.193,1.667,38.677,1.667,39.87,0c0.586-0.818,0.848-5.255,0.963-9.563c3.444,0.146,16.982,0.146,20.427,0c0.115,4.308,0.377,8.745,0.964,9.563c1.193,1.667,38.676,1.667,39.869,0c1.193-1.667,1.244-18.366,1.244-18.366L299.061,230.167z"></path><path style="fill:#FFFFFF;" d="M217.801,245.5l-15.333-7.667c0,0-0.668,6.667,0.666,7.167S217.801,245.5,217.801,245.5z"></path><path style="fill:#505050;" d="M236.722,244.667c0,0,1.917,1.75,2,2.417c0.333-2.833,0.45-15.25,0.45-15.25l-1.783-0.667C236.972,243.678,236.958,243.724,236.722,244.667z"></path><ellipse transform="matrix(-0.9997 0.0233 -0.0233 -0.9997 459.996 491.6431)" style="opacity:0.5;fill:#FFFFFF;" cx="227.135" cy="248.5" rx="6.5" ry="0.834"></ellipse><path style="fill:#FFFFFF;" d="M282.199,245.5l15.334-7.667c0,0,0.668,6.667-0.666,7.167S282.199,245.5,282.199,245.5z"></path><path style="fill:#505050;" d="M263.279,244.667c0,0-1.918,1.75-2,2.417c-0.334-2.833-0.451-15.25-0.451-15.25l1.783-0.667C263.029,243.678,263.043,243.724,263.279,244.667z"></path><ellipse transform="matrix(0.9997 0.0233 -0.0233 0.9997 5.8611 -6.2871)" style="opacity:0.5;fill:#FFFFFF;" cx="272.865" cy="248.5" rx="6.5" ry="0.834"></ellipse><path style="fill:#505050;" d="M245.53,238.605l5.516-2.473l8.274-0.095c0,0,0.379,1.712-0.096,2.188C258.75,238.7,245.53,238.605,245.53,238.605z"></path><path style="opacity:0.5;fill:#FFFFFF;" d="M240.775,238.319c0,0-0.285-1.332,0.476-1.997c0.761-0.665,8.655-0.856,9.13-0.57C250.856,236.037,242.487,238.795,240.775,238.319z"></path></g></g></svg>