<svg xmlns="http://www.w3.org/2000/svg" width="500" height="500" version="1.1"><g id="x9035"><g><g><path style="fill:#6E6E6E;stroke:#000000;stroke-linecap:round;stroke-linejoin:round;" d="M306.619,240.63c1.385-1.205,2.099-3.779,1.655-6.595c-0.448-2.814-1.918-5.042-3.605-5.762c1.384-1.206,2.096-3.779,1.652-6.595c-0.443-2.814-1.915-5.044-3.604-5.764c1.348-1.172,2.321-3.561,1.678-6.368c-0.646-2.807-3.137-5.73-6.799-5.153c-2.815,0.445-5.045,1.916-5.764,3.604c-1.205-1.385-3.78-2.097-6.594-1.653c-2.817,0.443-5.044,1.916-5.764,3.604c-1.207-1.385-3.78-2.099-6.596-1.653c-2.813,0.443-5.042,1.916-5.763,3.604c-1.204-1.385-3.779-2.098-6.595-1.653c-3.662,0.579-5.195,4.132-4.879,6.999c0.315,2.865,1.914,4.838,3.561,5.539c-1.388,1.206-2.102,3.779-1.654,6.594c0.444,2.815,1.915,5.045,3.604,5.765c-1.387,1.205-2.098,3.778-1.654,6.594c0.444,2.814,1.916,5.043,3.607,5.764c-1.351,1.172-2.13,4.728-1.395,7.04c0.734,2.312,2.849,5.057,6.513,4.48c2.814-0.445,5.043-1.917,5.764-3.606c1.205,1.386,3.777,2.098,6.592,1.653c2.817-0.444,5.046-1.915,5.766-3.604c1.206,1.386,3.779,2.097,6.595,1.653s5.043-1.915,5.763-3.605c1.207,1.387,3.778,2.1,6.595,1.655c3.663-0.578,4.458-3.104,4.813-6.142C310.489,243.799,308.262,241.33,306.619,240.63z M298.232,248.532"></path><rect x="265.898" y="214.695" transform="matrix(0.9878 -0.156 0.156 0.9878 -32.6761 46.9598)" style="fill:none;stroke:#000000;stroke-linecap:round;stroke-linejoin:round;stroke-dasharray:1 3;" width="34.028" height="34.026"></rect></g><path style="fill:#CB8D7F;" d="M298.847,230.724l-4.295-2.562l0.035-0.057c-0.023,0.035-2.469,3.531-11.321,4.929c-8.908,1.406-12.54-1.152-12.572-1.179l-3.15,3.884c0.236,0.191,1.405,1.058,3.683,1.763l-1.721,2.993l3.905,2.123l2.219-4.277c1.758,0.16,3.824,0.168,6.235-0.083l0.78,4.261l4.162-0.658l-0.778-4.248c2.382-0.495,4.334-1.135,5.952-1.824l3.586,3.01l3.057-2.717l-2.737-2.439C297.873,232.223,298.69,230.986,298.847,230.724z"></path></g></g></svg>