<svg xmlns="http://www.w3.org/2000/svg" width="500" height="500" version="1.1"><g id="x9036"><g><path style="fill:#403738;stroke:#000000;stroke-linecap:round;stroke-linejoin:round;" d="M184,209c0,0,11,9,15,9.667c-3.667,8.333-8.667,19-8.667,19S183.333,217.667,184,209z"></path><g><path style="fill:#403738;stroke:#000000;stroke-linecap:round;stroke-linejoin:round;" d="M232.333,213.333l9.667,21c0,0,48.021-30.987,71.924-46.588c-0.896-6.417-2.521-12.644-4.885-18.363L232.333,213.333z"></path><path style="fill:#976C64;stroke:#000000;stroke-linecap:round;stroke-linejoin:round;" d="M292.333,178.333l6.667,20c0,0,3.333-1,4-2.667C301.667,189,297,176,297,176S292.999,176.333,292.333,178.333z"></path></g><g><path style="fill:#403738;stroke:#000000;stroke-linecap:round;stroke-linejoin:round;" d="M187.667,231.667c0,0,6.333,15.334,11,20s18.667,6.667,20.333,6s22-10.334,23.333-13c1-7-4.667-29-10.667-32c-9.333-2-37.285,4.717-38.667,6C188.333,223,187.667,231.667,187.667,231.667z"></path><g><ellipse transform="matrix(0.9902 -0.14 0.14 0.9902 -29.4373 32.0905)" style="fill:#6E6E6E;stroke:#000000;stroke-linecap:round;stroke-linejoin:round;" cx="213.358" cy="225.265" rx="3.167" ry="3.833"></ellipse><ellipse transform="matrix(0.9901 -0.14 0.14 0.9901 -31.9227 31.6673)" style="fill:#6E6E6E;stroke:#000000;stroke-linecap:round;stroke-linejoin:round;" cx="209.09" cy="242.701" rx="3.166" ry="3.833"></ellipse><ellipse transform="matrix(0.9901 -0.14 0.14 0.9901 -31.0642 34.1152)" style="fill:#6E6E6E;stroke:#000000;stroke-linecap:round;stroke-linejoin:round;" cx="226.917" cy="237.824" rx="3.166" ry="3.834"></ellipse></g><path style="fill:none;stroke:#000000;stroke-linecap:round;stroke-linejoin:round;" d="M193.105,232.337c0,0,5.076,12.29,8.816,16.029s14.96,5.343,16.296,4.809s17.632-8.282,18.7-10.419c0.802-5.61-3.74-23.241-8.549-25.646c-7.48-1.603-29.88,3.78-30.988,4.809C193.64,225.392,193.105,232.337,193.105,232.337z"></path></g></g></g></svg>