<svg xmlns="http://www.w3.org/2000/svg" width="500" height="500" version="1.1"><g id="x9037"><g><g><g><g><path style="fill:#E3A242;stroke:#000000;stroke-linecap:round;stroke-linejoin:round;" d="M314.244,262.204c-2.557-1.748-5.044,0.335-5.582,1.075c-0.535-0.336-0.807,0-0.807,0s-0.268-0.336-0.807,0c-0.536-0.74-3.026-2.823-5.578-1.075c-2.558,1.747-3.294,5.983,0.268,8.74c-0.943,1.413-1.882,3.766-1.277,5.177c0.605,1.412,1.343,2.422,1.343,2.422s-0.674,1.64-0.403,2.219c1.009,2.15,6.455,7.865,6.455,7.865s5.446-5.715,6.454-7.865c0.271-0.579-0.403-2.219-0.403-2.219s0.74-1.01,1.346-2.422c0.605-1.411-0.338-3.764-1.279-5.177C317.537,268.188,316.796,263.951,314.244,262.204z"></path><g><path style="fill:#BF8836;" d="M300.19,265.465c0,0,0.655-3.783,4.842-3.076c1.815,0.604,1.815,2.673,1.26,3.631c-0.404-1.161-1.128-1.732-2.571-1.968C301.552,263.699,300.19,265.465,300.19,265.465z"></path><path style="fill:#BF8836;" d="M315.517,265.465c0,0-0.655-3.783-4.841-3.076c-1.815,0.604-1.815,2.673-1.26,3.631c0.402-1.161,1.127-1.732,2.57-1.968C314.155,263.699,315.517,265.465,315.517,265.465z"></path></g><path style="fill:#FDFBF5;" d="M313.61,263.513c0.468,0.476,0.216,1.487-0.567,2.261c-0.781,0.773-1.798,1.014-2.27,0.538c-0.468-0.476,0.09-1.055,0.872-1.829C312.429,263.709,313.139,263.038,313.61,263.513z"></path><g><path style="fill:#A0733E;" d="M308.814,263.347c0,0-0.907,1.715,0,3.076c0.908,1.361,2.319,0.705,2.926,0.504C310.227,266.473,308.814,263.347,308.814,263.347z"></path><path style="fill:#A0733E;" d="M306.898,263.347c0,0,0.908,1.715,0,3.076c-0.907,1.361-2.319,0.705-2.924,0.504C305.487,266.473,306.898,263.347,306.898,263.347z"></path></g><path style="fill:#E6B44E;" d="M311.737,279.332c0,0,1.211,1.108,1.413,1.159c0.201,0.05,0.101-1.108-0.202-1.966c0.604-1.362,1.664-2.572,1.563-3.127c-0.706-0.706-1.866-0.604-2.269-0.354C312.444,275.902,312.747,277.617,311.737,279.332z"></path><path style="fill:#A0733E;" d="M303.115,281.197c0,0,4.236,5.396,4.841,5.85c1.261-1.563,5.093-5.749,5.093-6.152s-1.412-1.411-1.563-1.311c-0.152,0.101-4.942,3.126-4.942,3.126L303.115,281.197z"></path><g><g><circle style="fill:#E3A242;stroke:#000000;stroke-linecap:round;stroke-linejoin:round;" cx="307.857" cy="251.984" r="3.765"></circle><circle style="fill:#BF8836;" cx="307.847" cy="251.773" r="2.193"></circle><path style="fill:#FDFBF5;" d="M308.679,250.236c0-0.151,0.303-0.756,0.606-0.706c0.302,0.05,1.663,1.109,1.512,2.319c-0.15,1.211-1.664,2.371-1.664,2.371s0.959-1.563,0.656-2.673C309.486,250.437,308.679,250.236,308.679,250.236z"></path></g><g><circle style="fill:#E3A242;stroke:#000000;stroke-linecap:round;stroke-linejoin:round;" cx="307.857" cy="259.716" r="3.765"></circle><circle style="fill:#BF8836;" cx="307.847" cy="259.389" r="2.193"></circle><path style="fill:#FDFBF5;" d="M308.428,257.748c0-0.15,0.303-0.755,0.604-0.705c0.303,0.051,1.664,1.109,1.514,2.319c-0.152,1.211-1.665,2.37-1.665,2.37s0.958-1.563,0.655-2.673C309.234,257.951,308.428,257.748,308.428,257.748z"></path></g></g></g><g><circle style="fill:#6E6E6E;stroke:#000000;stroke-linecap:round;stroke-linejoin:round;" cx="307.855" cy="276.987" r="3.555"></circle><circle style="fill:#A7A9B1;" cx="307.856" cy="276.987" r="1.996"></circle><path style="fill:#FDFBF5;" d="M309.3,276.256c0,0-1.108-0.807-1.108-1.06c0-0.252,0.453-0.705,0.755-0.655C309.25,274.592,309.854,275.65,309.3,276.256z"></path></g></g><g><path style="fill:#A0733E;" d="M307.528,268.086c2.723,0.656,5.496,2.774,5.496,2.774s-4.641-1.312-5.548-1.413c-0.908-0.101-5.043,1.867-5.043,1.867S304.502,269.246,307.528,268.086z"></path><path style="fill:#A0733E;" d="M300.165,266.674c0,0-0.201,2.018,2.472,3.984c-0.152,0.554-0.606,1.311-0.606,1.311s1.917-1.563,3.177-2.219C302.434,270.255,300.165,266.674,300.165,266.674z"></path><path style="fill:#A0733E;" d="M315.529,266.674c0,0,0.201,2.018-2.472,3.984c0.152,0.554,0.606,1.311,0.606,1.311s-1.916-1.563-3.177-2.219C313.261,270.254,315.529,266.674,315.529,266.674z"></path></g></g><g><g><g><path style="fill:#E3A242;stroke:#000000;stroke-linecap:round;stroke-linejoin:round;" d="M199.244,262.204c-2.557-1.748-5.044,0.335-5.582,1.075c-0.535-0.336-0.807,0-0.807,0s-0.268-0.336-0.807,0c-0.536-0.74-3.026-2.823-5.578-1.075c-2.558,1.747-3.294,5.983,0.268,8.74c-0.943,1.413-1.882,3.766-1.277,5.177c0.605,1.412,1.343,2.422,1.343,2.422s-0.674,1.64-0.403,2.219c1.009,2.15,6.455,7.865,6.455,7.865s5.446-5.715,6.454-7.865c0.271-0.579-0.403-2.219-0.403-2.219s0.74-1.01,1.346-2.422c0.605-1.411-0.338-3.764-1.279-5.177C202.537,268.188,201.796,263.951,199.244,262.204z"></path><g><path style="fill:#BF8836;" d="M185.19,265.465c0,0,0.655-3.783,4.842-3.076c1.815,0.604,1.815,2.673,1.26,3.631c-0.404-1.161-1.128-1.732-2.571-1.968C186.552,263.699,185.19,265.465,185.19,265.465z"></path><path style="fill:#BF8836;" d="M200.517,265.465c0,0-0.655-3.783-4.841-3.076c-1.815,0.604-1.815,2.673-1.26,3.631c0.402-1.161,1.127-1.732,2.57-1.968C199.155,263.699,200.517,265.465,200.517,265.465z"></path></g><path style="fill:#FDFBF5;" d="M198.61,263.513c0.468,0.476,0.216,1.487-0.567,2.261c-0.781,0.773-1.798,1.014-2.27,0.538c-0.468-0.476,0.09-1.055,0.872-1.829C197.429,263.709,198.139,263.038,198.61,263.513z"></path><g><path style="fill:#A0733E;" d="M193.814,263.347c0,0-0.907,1.715,0,3.076c0.908,1.361,2.319,0.705,2.926,0.504C195.227,266.473,193.814,263.347,193.814,263.347z"></path><path style="fill:#A0733E;" d="M191.898,263.347c0,0,0.908,1.715,0,3.076c-0.907,1.361-2.319,0.705-2.924,0.504C190.487,266.473,191.898,263.347,191.898,263.347z"></path></g><path style="fill:#E6B44E;" d="M196.737,279.332c0,0,1.211,1.108,1.413,1.159c0.201,0.05,0.101-1.108-0.202-1.966c0.604-1.362,1.664-2.572,1.563-3.127c-0.706-0.706-1.866-0.604-2.269-0.354C197.444,275.902,197.747,277.617,196.737,279.332z"></path><path style="fill:#A0733E;" d="M188.115,281.197c0,0,4.236,5.396,4.841,5.85c1.261-1.563,5.093-5.749,5.093-6.152s-1.412-1.411-1.563-1.311c-0.152,0.101-4.942,3.126-4.942,3.126L188.115,281.197z"></path><g><g><circle style="fill:#E3A242;stroke:#000000;stroke-linecap:round;stroke-linejoin:round;" cx="192.857" cy="251.984" r="3.765"></circle><circle style="fill:#BF8836;" cx="192.847" cy="251.773" r="2.193"></circle><path style="fill:#FDFBF5;" d="M193.679,250.236c0-0.151,0.303-0.756,0.606-0.706c0.302,0.05,1.663,1.109,1.512,2.319c-0.15,1.211-1.664,2.371-1.664,2.371s0.959-1.563,0.656-2.673C194.486,250.437,193.679,250.236,193.679,250.236z"></path></g><g><circle style="fill:#E3A242;stroke:#000000;stroke-linecap:round;stroke-linejoin:round;" cx="192.857" cy="259.716" r="3.765"></circle><circle style="fill:#BF8836;" cx="192.847" cy="259.389" r="2.193"></circle><path style="fill:#FDFBF5;" d="M193.428,257.748c0-0.15,0.303-0.755,0.604-0.705c0.303,0.051,1.664,1.109,1.514,2.319c-0.152,1.211-1.665,2.37-1.665,2.37s0.958-1.563,0.655-2.673C194.234,257.951,193.428,257.748,193.428,257.748z"></path></g></g></g><g><circle style="fill:#6E6E6E;stroke:#000000;stroke-linecap:round;stroke-linejoin:round;" cx="192.855" cy="276.987" r="3.555"></circle><circle style="fill:#A7A9B1;" cx="192.856" cy="276.987" r="1.996"></circle><path style="fill:#FDFBF5;" d="M194.3,276.256c0,0-1.108-0.807-1.108-1.06c0-0.252,0.453-0.705,0.755-0.655C194.25,274.592,194.854,275.65,194.3,276.256z"></path></g></g><g><path style="fill:#A0733E;" d="M192.528,268.086c2.723,0.656,5.496,2.774,5.496,2.774s-4.641-1.312-5.548-1.413c-0.908-0.101-5.043,1.867-5.043,1.867S189.502,269.246,192.528,268.086z"></path><path style="fill:#A0733E;" d="M185.165,266.674c0,0-0.201,2.018,2.472,3.984c-0.152,0.554-0.606,1.311-0.606,1.311s1.917-1.563,3.177-2.219C187.434,270.255,185.165,266.674,185.165,266.674z"></path><path style="fill:#A0733E;" d="M200.529,266.674c0,0,0.201,2.018-2.472,3.984c0.152,0.554,0.606,1.311,0.606,1.311s-1.916-1.563-3.177-2.219C198.261,270.254,200.529,266.674,200.529,266.674z"></path></g></g></g></g></svg>