<svg xmlns="http://www.w3.org/2000/svg" width="500" height="500" version="1.1"><g id="x9038"><path style="fill:#6E6E6E;stroke:#000000;stroke-linecap:round;stroke-linejoin:round;" d="M309.176,222.171c-1.432-0.103-4.498,2.248-5.008,3.474c-0.513,1.227-4.19,17.783-9.71,18.908c-5.519,1.125-21.155,1.022-23.404,0c-2.248-1.022-8.483-9.812-8.585-12.775c-0.614-3.27-12.469-3.373-12.469-3.373s-11.854,0.103-12.469,3.373c-0.102,2.963-6.337,11.753-8.585,12.775c-2.249,1.022-17.886,1.125-23.404,0c-5.52-1.125-9.197-17.681-9.71-18.908c-0.51-1.226-3.576-3.577-5.008-3.474c-1.43,0.102-4.189,0.919-4.189,3.986c2.045,9.402,10.118,19.418,15.024,21.155c4.19,1.226,19.622,1.737,28.207,0.409c6.337-1.941,9.914-12.059,11.446-13.695c1.534-1.635,8.688-1.635,8.688-1.635s7.153,0,8.688,1.635c1.532,1.636,5.109,11.754,11.446,13.695c8.585,1.329,24.017,0.817,28.207-0.409c4.906-1.737,12.979-11.753,15.024-21.155C313.365,223.091,310.605,222.273,309.176,222.171z"></path></g></svg>