<svg xmlns="http://www.w3.org/2000/svg" width="500" height="500" version="1.1"><g id="x9039"><g><g><g><path style="fill:#6E6E6E;stroke:#000000;stroke-linecap:round;stroke-linejoin:round;" d="M269.043,245.341c0,0,0.006,3.448-1.854,4.466c0,0,4.376,0.338,5.041-3.301"></path><path style="fill:#6E6E6E;stroke:#000000;stroke-linecap:round;stroke-linejoin:round;" d="M303.979,219.494c-18.325-1.456-39.971,2.184-39.971,2.184c-1.392,0.447-5.43,11.822-5.43,11.822c0.664,3.611,11.14,13.361,11.14,13.361s20.979,1.344,24.521,0.897c3.543-0.448,18.006-14.258,17.339-16.758C311.579,230.553,303.979,219.494,303.979,219.494z M292.16,248.026l-21.414-0.359c0,0-8.667-11.333-8.465-14.925c0.267-1.748,2.79-8.734,2.79-8.734c3.008-1.174,19.122-3.203,21.513-2.912c11.153,0.874,14.027,2.773,14.027,2.773s2.171,3.574,2.968,6.631C304.579,235.5,292.16,248.026,292.16,248.026z"></path><path style="fill:#6E6E6E;stroke:#000000;stroke-linecap:round;stroke-linejoin:round;" d="M304.287,240.875c0,0-1.5,46.625-12.25,48c-7.984,1.063-7.037-9.208-7.5-15.5l1.375-0.75c0,0-0.412,13.875,5.901,13.898c7.849-2.023,10.474-44.148,10.474-44.148L304.287,240.875z"></path><path style="fill:#D29A00;stroke:#000000;stroke-linecap:round;stroke-linejoin:round;" d="M257.162,224.793c0,0,13.449-11.019,24.786-15.211c11.714-4.332,24.123-5.997,24.123-5.997L319.458,203c0,0-15.508,4.388-16.833,5.412c-1.325,1.023-37.378,12.725-37.378,12.725L257.162,224.793z"></path><path style="fill:#D29A00;stroke:#000000;stroke-linecap:round;stroke-linejoin:round;" d="M266.579,220.333c0,0,13.169-6.953,24.833-9c11.664-2.048,17.045-2.336,17.045-2.336s11.267,0.877,14.58,1.462c0,0-21.605,4.242-24.123,4.827c-2.519,0.584-29.028,4.827-29.028,4.827L266.579,220.333z"></path><path style="fill:#D29A00;stroke:#000000;stroke-linecap:round;stroke-linejoin:round;" d="M264.188,222.012c0,0,35.009-7.566,37.244-6.289c5.568,5.944,9.825,13.864,9.825,13.864S300.667,221,290.537,220c-3.537-1-25.875,3.125-25.875,3.125L264.188,222.012z"></path><path style="fill:#FFE9A5;" d="M275.412,213.5c0,0,2.458-2.5,13.125-4.5l-5.625,3.167l2.334-0.167l-7.667,2.5l1.083-1.875L275.412,213.5z"></path><path style="fill:#FFE9A5;" d="M275.537,217c0,0,8.294-3.55,21.667-6.167l-12.576,4.377l-0.168,1.333l-1.509,0.571l-0.671-0.571L275.537,217z"></path><path style="fill:#D29A00;stroke:#000000;stroke-linecap:round;stroke-linejoin:round;" d="M264.246,243.333c0,0,8.937,4.055,20.546,3.73c11.51-0.321,11.553,1.085,11.553,1.085l3.744,4.379c0,0-12.063-3.844-16.195-3.964c-4.134-0.12-8.814-0.229-8.814-0.229s-0.522,4.127-6.006,4.23c0,0,3.977-1.606,2.798-4.024C271.871,248.539,268.09,247.958,264.246,243.333z"></path></g></g><path style="fill:#FFE9A5;" d="M270.912,246.25l3.75,1.125l-1.125,0.5l-1.75-0.125C271.787,247.75,269.594,245.994,270.912,246.25z"></path></g></g></svg>