<svg xmlns="http://www.w3.org/2000/svg" width="500" height="500" version="1.1"><g id="x004"><g><path style="fill:#6E6E6E;stroke:#000000;" d="M282.032,210.812c-13.086,0-23.871,10.019-25.094,22.788c-1.401-0.419-3.72-0.91-6.938-0.976c-3.219,0.066-5.537,0.557-6.938,0.976c-1.223-12.769-12.008-22.788-25.094-22.788c-13.9,0-25.209,11.31-25.209,25.21c0,13.902,11.309,25.211,25.209,25.211c12.691,0,23.219-9.428,24.956-21.647c1.386-0.428,3.75-0.95,7.076-1.018c3.326,0.068,5.69,0.59,7.076,1.018c1.737,12.219,12.265,21.647,24.956,21.647c13.9,0,25.209-11.31,25.209-25.211C307.241,222.121,295.933,210.812,282.032,210.812z M217.968,258.687c-12.494,0-22.66-10.168-22.66-22.665c0-12.496,10.166-22.663,22.66-22.663c12.498,0,22.666,10.167,22.666,22.663C240.634,248.519,230.466,258.687,217.968,258.687z M282.032,258.687c-12.497,0-22.666-10.168-22.666-22.665c0-12.496,10.169-22.663,22.666-22.663c12.495,0,22.661,10.167,22.661,22.663C304.693,248.519,294.527,258.687,282.032,258.687z"></path><path style="fill:#FFFFFF;" d="M294.1,246.5c-6.824,7.266-11.89,10.347-11.89,10.347s10.569,0.882,16.954-8.366s1.761-16.734,1.761-16.734S300.925,239.233,294.1,246.5z"></path><path style="fill:#FFFFFF;" d="M230.1,246.5c-6.824,7.266-11.89,10.347-11.89,10.347s10.569,0.882,16.954-8.366s1.761-16.734,1.761-16.734S236.925,239.233,230.1,246.5z"></path></g></g></svg>