<svg xmlns="http://www.w3.org/2000/svg" width="500" height="500" version="1.1"><g id="x9040"><g><g><line style="fill:none;stroke:#FFFFFF;stroke-linecap:round;stroke-linejoin:round;" x1="200.593" y1="242.679" x2="233.906" y2="242.679"></line><line style="fill:none;stroke:#FFFFFF;stroke-linecap:round;stroke-linejoin:round;" x1="266.094" y1="242.679" x2="299.406" y2="242.679"></line></g><path style="fill:#6E6E6E;stroke:#000000;stroke-linecap:round;stroke-linejoin:round;" d="M307.466,242.285c-1.446-0.132-3.813,1.315-3.813,1.315s-0.263-1.709-2.104-1.841c-1.842-0.131-2.236,0.92-2.236,0.92v10.257h-33.138v-8.942l0.132-0.395c-0.526-2.893-4.077-1.527-4.077-1.007c-1.202-1.745-5.2-6.667-12.229-6.883c-7.029,0.216-11.027,5.139-12.229,6.883c0-0.52-3.551-1.886-4.077,1.007l0.131,0.395v8.942h-33.138v-10.257c0,0-0.395-1.052-2.235-0.92c-1.841,0.132-2.104,1.841-2.104,1.841s-2.367-1.447-3.813-1.315c-1.447,0.131-3.551,1.183-3.551,1.183v6.838c0,0,1.315,1.314,3.024,1.446c1.71,0.131,4.077-1.184,4.077-1.184v3.682c0,0-0.526,2.894,3.024,2.894h35.769c0.395,0,2.63-0.132,2.893-3.813v-5.943c0.594-0.037,1.467-0.131,2.104-0.369c1.052-0.394,2.63-4.471,4.866-6.049c2.235-1.578,5.26-1.315,5.26-1.315s3.024-0.263,5.26,1.315c2.235,1.578,3.813,5.655,4.866,6.049c0.637,0.238,1.51,0.332,2.104,0.369v5.943c0.263,3.682,2.499,3.813,2.894,3.813h35.768c3.551,0,3.024-2.894,3.024-2.894v-3.682c0,0,2.367,1.314,4.077,1.184c1.709-0.132,3.024-1.446,3.024-1.446v-6.838C311.017,243.468,308.912,242.417,307.466,242.285z"></path><path style="opacity:0.5;fill:#FFFFFF;" d="M304,247.875c0-0.188,0-3.125,0-3.125s1.688-2.125,3.625-1.625C305.688,245.313,304,247.875,304,247.875z"></path><path style="opacity:0.5;fill:#FFFFFF;" d="M300.063,248.625V243c0,0,1.375-1.125,2.375-0.25C301.5,245.313,300.063,248.625,300.063,248.625z"></path><path style="opacity:0.5;fill:#FFFFFF;" d="M196.038,247.875c0-0.188,0-3.125,0-3.125s-1.688-2.125-3.625-1.625C194.351,245.313,196.038,247.875,196.038,247.875z"></path><path style="opacity:0.5;fill:#FFFFFF;" d="M199.976,248.625V243c0,0-1.375-1.125-2.375-0.25C198.538,245.313,199.976,248.625,199.976,248.625z"></path></g></g></svg>