<svg xmlns="http://www.w3.org/2000/svg" width="500" height="500" version="1.1"><g id="x9041"><g><g><g><path style="fill:#6E6E6E;stroke:#000000;stroke-linecap:round;stroke-linejoin:round;" d="M284.348,223.833c-11.501,0-23.477,9.646-25.84,13.569c0,0-0.945,4.415,0.473,7.52c0.789,3.761,8.352,13.079,27.102,13.079c18.748,0,22.845-11.118,22.845-17.329C308.927,234.46,299.946,223.833,284.348,223.833z M286.413,257.875c-17.571,0-24.659-9.146-25.397-12.84c-1.329-3.048-0.443-7.381-0.443-7.381c2.215-3.852,13.438-13.321,24.217-13.321c14.618,0,23.035,10.433,23.035,16.53C307.824,246.962,303.984,257.875,286.413,257.875z"></path></g><g><path style="fill:#6E6E6E;stroke:#000000;stroke-linecap:round;stroke-linejoin:round;" d="M191.073,240.672c0,6.211,4.097,17.329,22.845,17.329c18.75,0,26.313-9.318,27.102-13.079c1.418-3.104,0.473-7.52,0.473-7.52c-2.363-3.923-14.339-13.569-25.84-13.569C200.054,223.833,191.073,234.46,191.073,240.672z M192.176,240.863c0-6.097,8.417-16.53,23.035-16.53c10.779,0,22.002,9.469,24.217,13.321c0,0,0.886,4.333-0.443,7.381c-0.738,3.693-7.826,12.84-25.397,12.84S192.176,246.962,192.176,240.863z"></path></g></g><path style="fill:#6E6E6E;stroke:#000000;stroke-linecap:round;stroke-linejoin:round;" d="M250,237.046c-4.727-0.315-8.508,1.103-8.508,1.103s-0.687,2.521-0.687,6.146c1.891-4.255,7.027-5.357,9.194-5.357s7.304,1.103,9.194,5.357c0-3.625-0.687-6.146-0.687-6.146S254.727,236.73,250,237.046z"></path></g></g></svg>