<svg xmlns="http://www.w3.org/2000/svg" width="500" height="500" version="1.1"><g id="x9043"><path style="fill:#6E6E6E;stroke:#000000;stroke-linecap:round;stroke-linejoin:round;" d="M312.543,237c0,0-6.5-2.75-26.5-3.25c-18.994-0.475-26,1.75-27.25,3.25c-0.357,0.429-0.551,1.94-0.622,3.914c-2.876-0.836-8.171-0.664-8.171-0.664s-5.295-0.173-8.171,0.664c-0.072-1.973-0.265-3.485-0.622-3.914c-1.25-1.5-8.256-3.725-27.25-3.25c-20,0.5-26.5,3.25-26.5,3.25s-0.5,2.5,0.25,5.25c0.75,0.5,4,0.25,4,0.25s-0.5,11.5,0.75,13s10.228,3.651,23.25,3c15-0.75,24-2.25,25-3.75c0.547-0.82,1.018-5.6,1.129-10.01c2.201-0.259,6.518-0.74,8.165-0.74c1.646,0,5.963,0.481,8.164,0.74c0.111,4.41,0.582,9.189,1.129,10.01c1,1.5,10,3,25,3.75c13.023,0.651,22-1.5,23.25-3s0.75-13,0.75-13s3.25,0.25,4-0.25C313.043,239.5,312.543,237,312.543,237z M237.207,252c0,0-6,2.3-22,2.3s-19-1.8-19-1.8v-12.25c0,0,6.25-2,20.5-2s20.5,1.75,20.5,1.75V252z M303.793,252.5c0,0-3,1.8-19,1.8s-22-2.3-22-2.3v-12c0,0,6.25-1.75,20.5-1.75s20.5,2,20.5,2V252.5z"></path></g></svg>