<svg xmlns="http://www.w3.org/2000/svg" width="500" height="500" version="1.1"><g id="x9044"><g><path style="fill:#5F5F5F;stroke:#000000;stroke-linecap:round;stroke-linejoin:round;" d="M257.899,226.5c0,0-2,0.625-2.875,1.125c-0.352,0.201-0.703,2.384-0.827,5.222c-1.865-0.921-4.197-1.097-4.197-1.097s-2.331,0.176-4.195,1.096c-0.125-2.837-0.476-5.02-0.828-5.221c-0.875-0.5-2.875-1.125-2.875-1.125l-2.75,20.625c0,0,2.125,0.375,4.75-1.625c1.042-1.837,1.532-4.957,1.689-8.081c0.856-0.358,2.284-0.794,4.208-0.794c1.926,0,3.354,0.438,4.21,0.795c0.157,3.124,0.646,6.243,1.689,8.08c2.625,2,4.75,1.625,4.75,1.625L257.899,226.5z"></path><g><g><circle style="fill:#FEFEFF;stroke:#000000;stroke-linecap:round;stroke-linejoin:round;" cx="216.334" cy="234.333" r="26.625"></circle><g><path style="fill:#6E6E6E;" d="M223.8,211.694c-0.514-0.104-12.681-2.47-21.064,4.385c-4.954,4.051-7.465,10.358-7.465,18.746c0,5.396,3.9,20.801,21.228,20.801c6.314,0,11.3-1.784,14.818-5.304c4.815-4.816,5.333-11.371,5.333-13.966c0-8.121-4.6-17.583-17.563-17.583c-5.442,0-9.63,1.58-12.448,4.695c-4.009,4.433-3.763,10.316-3.592,12.014c0.454,4.517,3.934,12.161,14.099,12.161c9.056,0,11.094-8.056,11.094-10.878c0-4.615-3.134-9.582-10.015-9.582c-4.303,0-7.066,2.403-7.39,6.427c0.058-0.607,0.533-1.428,1.451-1.761c0.818-0.297,1.729-0.097,2.347,0.515c-0.645-0.639-1.611-0.828-2.45-0.479c-0.838,0.349-1.384,1.168-1.384,2.077c0,2.772,1.158,4.239,2.129,4.982c2.198,1.68,5.045,0.972,5.362,0.886l0,0c1.199-0.326,1.907-1.563,1.581-2.762c-0.326-1.199-1.563-1.907-2.762-1.581l0,0c0.017-0.004,0.007-0.002,0.024-0.006c-0.414,0.102-1.177,0.119-1.477-0.115c-0.225-0.176-0.358-0.701-0.358-1.404c0,0.908-0.546,1.728-1.384,2.077c-0.838,0.35-1.805,0.161-2.45-0.479c0.622,0.616,1.549,0.817,2.37,0.513c0.507-0.188,1.374-0.71,1.485-2.102c0.089-1.107,0.395-2.289,2.904-2.289c5.249,0,5.515,4.233,5.515,5.082c-0.006,0.246-0.223,6.378-6.594,6.378c-8.383,0-9.486-6.756-9.622-8.111c-0.088-0.877-0.384-5.409,2.452-8.546c1.929-2.132,4.994-3.214,9.111-3.214c12.122,0,13.063,9.999,13.063,13.063c0,2.054-0.39,7.177-4.015,10.803c-2.644,2.645-6.559,3.986-11.636,3.986c-16.09,0-16.723-16.167-16.728-16.33c0-6.932,1.95-12.062,5.796-15.218c6.712-5.509,17.239-3.494,17.345-3.473l-0.004-0.001c1.218,0.247,2.405-0.541,2.652-1.758C225.806,213.128,225.018,211.941,223.8,211.694L223.8,211.694z"></path></g></g><g><circle style="fill:#FEFEFF;stroke:#000000;stroke-linecap:round;stroke-linejoin:round;" cx="283.666" cy="234.333" r="26.625"></circle><g><path style="fill:#6E6E6E;" d="M291.132,211.694c-0.514-0.104-12.68-2.47-21.063,4.385c-4.953,4.051-7.465,10.358-7.465,18.746c0,5.396,3.899,20.801,21.227,20.801c6.314,0,11.301-1.784,14.819-5.304c4.815-4.816,5.334-11.371,5.333-13.966c0-8.121-4.6-17.583-17.564-17.583c-5.44,0-9.628,1.579-12.445,4.693c-4.009,4.431-3.765,10.317-3.595,12.016c0.454,4.517,3.935,12.162,14.101,12.162c9.054,0,11.092-8.056,11.092-10.878c0-4.615-3.134-9.582-10.014-9.582c-4.304,0-7.066,2.403-7.39,6.428c0.058-0.607,0.532-1.429,1.451-1.762c0.817-0.297,1.729-0.097,2.347,0.515c-0.646-0.639-1.611-0.828-2.449-0.479c-0.839,0.349-1.385,1.168-1.385,2.077c0,2.772,1.158,4.239,2.13,4.981c2.197,1.681,5.045,0.972,5.362,0.886l0,0c1.199-0.326,1.907-1.563,1.581-2.762c-0.325-1.199-1.562-1.907-2.761-1.581l0,0c0.017-0.004,0.006-0.002,0.023-0.006c-0.413,0.102-1.178,0.119-1.478-0.116c-0.225-0.176-0.358-0.7-0.358-1.403c0,0.908-0.546,1.728-1.385,2.077c-0.838,0.35-1.804,0.161-2.449-0.479c0.622,0.616,1.55,0.817,2.37,0.513c0.507-0.188,1.374-0.71,1.485-2.103c0.089-1.107,0.394-2.288,2.904-2.288c5.248,0,5.514,4.233,5.514,5.082c-0.006,0.246-0.223,6.378-6.592,6.378c-8.384,0-9.486-6.756-9.623-8.111c-0.088-0.877-0.383-5.412,2.454-8.547c1.929-2.131,4.993-3.212,9.108-3.212c12.122,0,13.064,9.999,13.064,13.063c0,2.054-0.39,7.177-4.016,10.803c-2.644,2.645-6.56,3.986-11.637,3.986c-16.089,0-16.723-16.167-16.727-16.33c0-6.943,1.956-12.078,5.813-15.233c6.75-5.52,17.217-3.479,17.322-3.458l0,0c1.218,0.247,2.405-0.541,2.651-1.758C293.138,213.128,292.351,211.941,291.132,211.694L291.132,211.694z"></path></g></g></g></g></g></svg>