<svg xmlns="http://www.w3.org/2000/svg" width="500" height="500" version="1.1"><g id="x005"><g><g><path style="fill:#FFFFFF;" d="M227.899,241.472c-6.948,5.434-12.104,7.741-12.104,7.741s10.759,0.658,17.26-6.26c6.5-6.917,1.793-12.517,1.793-12.517S234.848,236.036,227.899,241.472z"></path></g><g><path style="fill:#6E6E6E;stroke:#000000;" d="M282.972,214.9c-13.067,0-23.878,7.487-25.458,17.131c-1.52-0.463-4.14-1.034-7.872-1.034c-3.358,0-5.707,0.463-7.173,0.893c-0.743-4.392-3.372-8.414-7.602-11.522c-4.798-3.525-11.133-5.467-17.838-5.467c-14.151,0-25.664,8.779-25.664,19.57c0,10.792,11.513,19.572,25.664,19.572c6.705,0,13.04-1.941,17.838-5.467c3.924-2.885,6.47-6.557,7.411-10.579c1.449-0.445,3.861-0.948,7.363-0.948c3.945,0,6.657,0.639,8.129,1.112c2.271,9.034,12.704,15.882,25.201,15.882c14.151,0,25.663-8.78,25.663-19.572C308.635,223.68,297.123,214.9,282.972,214.9z M231.682,244.24c-3.881,2.851-9.085,4.422-14.652,4.422c-11.186,0-20.285-6.365-20.285-14.191c0-7.825,9.1-14.191,20.285-14.191c5.567,0,10.771,1.571,14.652,4.422c3.632,2.669,5.632,6.139,5.632,9.769C237.313,238.102,235.313,241.571,231.682,244.24z M282.972,248.662c-11.186,0-20.285-6.365-20.285-14.191c0-7.825,9.1-14.191,20.285-14.191c11.185,0,20.283,6.366,20.283,14.191C303.255,242.297,294.156,248.662,282.972,248.662z"></path><path style="fill:#FFFFFF;" d="M294.918,240.813c-6.947,5.435-12.104,7.74-12.104,7.74s10.759,0.66,17.26-6.258c6.499-6.918,1.792-12.518,1.792-12.518S301.866,235.377,294.918,240.813z"></path></g></g></g></svg>