<svg xmlns="http://www.w3.org/2000/svg" width="500" height="500" version="1.1"><g id="x006"><g><g><g><path style="fill:#FFFFFF;" d="M229.745,245.458c-6.406,4.94-11.149,7.021-11.149,7.021s9.862,0.673,15.868-5.629c6.006-6.301,1.724-11.467,1.724-11.467S236.152,240.519,229.745,245.458z"></path></g><g><path style="fill:#FFFFFF;" d="M291.209,245.283c-6.407,4.938-11.15,7.021-11.15,7.021s9.863,0.674,15.869-5.629c6.004-6.302,1.723-11.468,1.723-11.468S297.614,240.342,291.209,245.283z"></path></g></g><path style="fill:#6E6E6E;stroke:#000000;" d="M302.994,236.207c-1.526-0.149-2.885,0.966-3.033,2.492c0.002-0.011,0.002-0.005,0.002-0.016c-0.06,0.544-1.652,13.309-18.298,13.192c-12.938-0.09-17.35-7.406-18.76-11.133c0.061-0.066-1.591-3.966-2.42-4.265c-3.897-2.883-17.231-2.99-21.156-0.074c-0.618,0.271-2.398,4.139-2.318,4.232c-1.54,3.737-6.144,10.885-18.859,10.796c-16.8-0.116-18.064-12.886-18.11-13.43c-0.128-1.527-1.47-2.662-2.997-2.533c-1.527,0.128-2.662,1.469-2.533,2.997c0.015,0.184,1.792,18.365,23.602,18.518c12.471,0.086,18.875-5.708,22.073-10.66c1.863-1.442,5.248-3.438,9.724-3.406c4.679,0.033,8.138,2.266,9.917,3.739c3.171,4.953,9.492,10.682,21.799,10.768c21.81,0.152,23.84-18.002,23.857-18.186C305.634,237.714,304.52,236.356,302.994,236.207z"></path></g></g></svg>