<svg xmlns="http://www.w3.org/2000/svg" width="500" height="500" version="1.1"><g id="x007"><g><g><path style="fill:#FFFFFF;" d="M228.264,245.381c-6.826,7.266-11.891,10.348-11.891,10.348s10.57,0.881,16.955-8.366c6.386-9.249,1.762-16.736,1.762-16.736S235.09,238.115,228.264,245.381z"></path></g><g><path style="fill:#6E6E6E;stroke:#000000;" d="M282.365,210.812c-13.086,0-23.871,10.019-25.094,22.788c-1.504-0.45-4.052-0.989-7.649-0.989c-3.229,0-5.509,0.435-6.954,0.85c-0.58-5.766-3.103-11.111-7.255-15.265c-4.762-4.762-11.093-7.384-17.828-7.384c-13.901,0-25.21,11.31-25.21,25.21c0,13.902,11.31,25.211,25.21,25.211c6.735,0,13.065-2.622,17.828-7.385c3.947-3.946,6.417-8.973,7.151-14.413c1.438-0.424,3.749-0.881,7.059-0.881c3.711,0,6.303,0.573,7.787,1.031c1.737,12.219,12.265,21.647,24.956,21.647c13.9,0,25.209-11.31,25.209-25.211C307.574,222.121,296.266,210.812,282.365,210.812z M231.676,250.112c-3.764,3.764-8.768,5.838-14.091,5.838c-10.987,0-19.926-8.94-19.926-19.928c0-10.987,8.939-19.926,19.926-19.926c5.323,0,10.327,2.073,14.091,5.837c3.764,3.763,5.836,8.768,5.836,14.089C237.512,241.345,235.439,246.349,231.676,250.112z M282.365,255.95c-10.988,0-19.93-8.94-19.93-19.928c0-10.987,8.941-19.926,19.93-19.926c10.986,0,19.925,8.939,19.925,19.926C302.29,247.01,293.352,255.95,282.365,255.95z"></path><path style="fill:#FFFFFF;" d="M294.1,244.5c-6.824,7.266-11.89,10.347-11.89,10.347s10.569,0.882,16.954-8.366s1.761-16.734,1.761-16.734S300.925,237.233,294.1,244.5z"></path></g></g></g></svg>