<svg xmlns="http://www.w3.org/2000/svg" width="500" height="500" version="1.1"><g id="x008"><g><g><g><path style="fill:#FFFFFF;" d="M228.694,249.28c-6.691,5.235-11.655,7.454-11.655,7.454s10.358,0.634,16.619-6.027c6.259-6.661,1.727-12.053,1.727-12.053S235.383,244.047,228.694,249.28z"></path></g><g><path style="fill:#FFFFFF;" d="M293.225,248.646c-6.688,5.232-11.652,7.453-11.652,7.453s10.357,0.635,16.618-6.027c6.258-6.661,1.725-12.052,1.725-12.052S299.915,243.412,293.225,248.646z"></path></g></g><path style="fill:#6E6E6E;stroke:#000000;" d="M314.29,226.717c-0.323-4.533-2.266-6.476-2.266-6.476s-8.102-3.801-17.808-5.972c-3.686-1.369-7.896-2.122-12.463-2.122c-10.854,0-19.692,4.24-24.274,10.937c-0.712-0.769-4.483-2.527-7.506-2.527c-3.02,0-6.791,1.758-7.505,2.527c-4.582-6.696-13.421-10.937-24.273-10.937c-4.568,0-8.777,0.753-12.463,2.122c-9.705,2.171-17.808,5.972-17.808,5.972s-1.941,1.943-2.266,6.476c0.209,1.879,2.973,4.429,4.912,6.004c-0.033,0.477-0.055,0.956-0.055,1.442c0,13.796,12.934,25.9,27.68,25.9c14.744,0,27.679-12.104,27.679-25.9c0-1.505-0.165-2.958-0.478-4.357c1.351-1.402,3.028-2.108,4.578-2.447c1.549,0.339,3.228,1.044,4.577,2.447c-0.313,1.399-0.479,2.853-0.479,4.357c0,13.796,12.937,25.9,27.681,25.9c14.746,0,27.68-12.104,27.68-25.9c0-0.487-0.022-0.966-0.055-1.442C311.316,231.146,314.082,228.596,314.29,226.717z M218.195,256.501c-16.798,0-21.293-11.833-21.293-22.337c0-9.532,8.756-17.699,21.293-17.699c12.535,0,21.292,8.167,21.292,17.699C239.487,244.667,234.991,256.501,218.195,256.501z M281.754,256.501c-16.797,0-21.292-11.833-21.292-22.337c0-9.532,8.755-17.699,21.292-17.699c12.538,0,21.292,8.167,21.292,17.699C303.046,244.667,298.551,256.501,281.754,256.501z"></path></g></g></svg>