<svg xmlns="http://www.w3.org/2000/svg" width="500" height="500" version="1.1"><g id="x009"><g><g><g><g><path style="fill:#FFFFFF;" d="M230.899,247.835c-6.469,5.062-11.269,7.208-11.269,7.208s10.017,0.612,16.069-5.828s1.669-11.654,1.669-11.654S237.369,242.774,230.899,247.835z"></path></g></g></g><g><g><g><path style="fill:#FFFFFF;" d="M292.672,247.835c-6.47,5.062-11.27,7.208-11.27,7.208s10.017,0.612,16.069-5.828c6.052-6.44,1.669-11.654,1.669-11.654S299.141,242.774,292.672,247.835z"></path></g></g></g><path style="fill:#6E6E6E;stroke:#000000;" d="M311.911,222.887c-0.312-4.383-2.189-6.26-2.189-6.26s-11.135-5.374-29.269-4.696c-11.176,0.417-19.043,2.223-23.473,8.696c-0.67-0.722-4.132-2.344-7.007-2.435c-2.874,0.09-6.335,1.713-7.005,2.435c-4.429-6.473-12.297-8.278-23.472-8.696c-18.132-0.677-29.269,4.696-29.269,4.696s-1.878,1.877-2.191,6.26c0.202,1.816,2.875,4.282,4.75,5.806c-0.032,0.46-0.055,0.923-0.055,1.394c0,8.315,3.807,19.48,11.124,24.73c4.8,3.443,10.907,3.651,16.277,3.651c6.063,0,12.143-0.946,16.695-4.277c6.38-4.669,9.433-15.066,9.433-22.853c0-1.455-0.158-2.86-0.461-4.211c1.234-1.281,2.75-1.958,4.175-2.306c1.426,0.349,2.941,1.025,4.174,2.306c-0.302,1.351-0.459,2.756-0.459,4.211c0,7.787,3.051,18.184,9.432,22.853c4.554,3.331,10.633,4.277,16.694,4.277c5.371,0,11.479-0.208,16.278-3.651c7.316-5.25,11.123-16.415,11.123-24.73c0-0.471-0.022-0.933-0.054-1.394C309.037,227.169,311.711,224.704,311.911,222.887z M234.637,250.852c-3.172,2.835-8.66,3.966-15.141,3.966c-20.858,0-20.588-14.572-20.588-24.73c0-9.215,8.467-13.982,20.588-13.982c12.123,0,20.588,7.897,20.588,17.113C240.084,239.322,239.415,246.582,234.637,250.852z M280.453,254.817c-6.48,0-11.969-1.131-15.142-3.966c-4.778-4.27-5.447-11.53-5.447-17.634c0-9.216,8.466-17.113,20.589-17.113c12.122,0,20.588,4.767,20.588,13.982C301.041,240.246,301.311,254.817,280.453,254.817z"></path></g></g></svg>