<svg xmlns="http://www.w3.org/2000/svg" width="500" height="500" version="1.1"><g id="x011"><g><g><path style="fill:#6E6E6E;" d="M217.417,247.333c0,0-0.667,16.666,5.333,25.5l1.333,0.5c0,0-5.5-5.999-5.5-26.333C217.583,247,217.417,247.333,217.417,247.333z"></path><rect x="214.917" y="251.834" style="fill:#6E6E6E;" width="6.5" height="0.833"></rect><rect x="215.084" y="257.667" style="fill:#6E6E6E;" width="6.5" height="0.833"></rect><rect x="215.251" y="263.5" style="fill:#6E6E6E;" width="6.5" height="0.833"></rect></g><g><path style="fill:#6E6E6E;" d="M282.583,247.333c0,0,0.667,16.666-5.333,25.5l-1.334,0.5c0,0,5.5-5.999,5.5-26.333C282.416,247,282.583,247.333,282.583,247.333z"></path><rect x="278.583" y="251.834" style="fill:#6E6E6E;" width="6.5" height="0.833"></rect><rect x="278.416" y="257.667" style="fill:#6E6E6E;" width="6.5" height="0.833"></rect><rect x="278.249" y="263.5" style="fill:#6E6E6E;" width="6.5" height="0.833"></rect></g></g></g></svg>