<svg xmlns="http://www.w3.org/2000/svg" width="500" height="500" version="1.1"><g id="x016"><g><path style="fill:#6E6E6E;" d="M279.592,197.288c-0.142,0.464-4.571,28.079-4.964,32.885s-0.992,27.341,4.625,39.051c0.063-15.955,1.847-37.375,2.064-41.954C281.696,219.273,279.592,197.288,279.592,197.288z"></path><path style="fill:#6E6E6E;" d="M286.672,197.288c-0.142,0.464-4.572,28.079-4.965,32.885c-0.392,4.807-0.992,24.403,4.626,36.112c0.061-15.954,1.847-34.437,2.063-39.015C288.776,219.273,286.672,197.288,286.672,197.288z"></path><path style="fill:#6E6E6E;" d="M293.751,197.288c-0.142,0.464-4.57,28.079-4.964,32.885c-0.393,4.807-0.993,21.694,4.625,33.405c0.062-15.955,1.847-31.73,2.064-36.308C295.854,219.273,293.751,197.288,293.751,197.288z"></path></g></g></svg>