<svg xmlns="http://www.w3.org/2000/svg" width="500" height="500" version="1.1"><g id="x019"><g><path style="fill:#6E6E6E;" d="M256.746,183.875c0,0-11.868,5.414-17.699,15.2c-1.098,1.842-1.666,6.456-0.208,8.329c1.457,1.874,4.789,2.707,4.998,3.957c0.208,1.249-3.124,3.956-2.499,5.83c0.625,1.875,5.206,3.332,5.622,5.414c0.417,2.083-2.291,9.579-2.291,9.579s8.121-6.455,8.537-10.411c0.417-3.958-2.082-5.415-2.29-6.04c-0.208-0.625,2.707-8.538,2.083-9.37c-0.625-0.833-4.998-1.666-4.789-3.54C248.417,200.949,256.746,183.875,256.746,183.875z"></path><circle style="fill:#6E6E6E;" cx="259.038" cy="200.533" r="4.997"></circle></g></g></svg>