<svg xmlns="http://www.w3.org/2000/svg" width="500" height="500" version="1.1"><g id="x020"><g><g><path style="fill:#6E6E6E;" d="M250.1,186.241c-7.016,0-12.703,5.686-12.703,12.702c0,7.015,5.687,12.702,12.703,12.702c7.017,0,12.704-5.687,12.704-12.702C262.804,191.927,257.116,186.241,250.1,186.241z M250.1,207.816c-4.901,0-8.874-3.973-8.874-8.873c0-4.901,3.973-8.874,8.874-8.874s8.876,3.972,8.876,8.874C258.976,203.843,255.001,207.816,250.1,207.816z"></path><path style="fill:#6E6E6E;" d="M252.808,209.562c0,0,0,7.705-3.541,23.113c0-17.909-2.915-18.319-2.915-23.113H252.808z"></path><path style="fill:#6E6E6E;" d="M253.434,189.572c0-1.041,3.956-8.953,12.701-10.619c0.625,6.455,5.623,9.995,9.996,10.412c1.665,1.874-4.374,16.45-10.829,19.574c5.207-9.995,4.79-16.451,4.79-16.451s-5.623-2.707-6.664-5.83c-2.916,2.499-4.373,5.622-4.58,7.913"></path><path style="fill:#6E6E6E;" d="M243.645,190.613c0,0-0.625-4.998,7.498-17.074c-12.496,10.41-16.245,15.825-17.493,22.489c-1.875,5.413,0,17.699,8.954,23.946c-3.332-9.162-1.25-17.908-1.665-20.198C240.521,197.485,243.645,190.613,243.645,190.613z"></path></g><path style="fill:#6E6E6E;" d="M262.596,201.858c-0.209,0.624-1.25,10.619-13.121,21.864c6.665-9.995,7.915-17.491,7.915-17.491L262.596,201.858z"></path><circle style="fill:#6E6E6E;" cx="250.101" cy="199.358" r="4.374"></circle></g></g></svg>