<svg xmlns="http://www.w3.org/2000/svg" width="500" height="500" version="1.1"><g id="x023"><g><path style="fill:#6E6E6E;" d="M289.906,249.979c0,0-5.042,5.563-9.848,6.258c-4.808,0.695-10.978,8.947-10.852,10.805c6.516-5.848,9.402-7.347,12.188-7.534c2.788-0.186,14.136-3.558,17.034-10.471C297.289,243.14,289.906,249.979,289.906,249.979z"></path><path style="fill:#6E6E6E;" d="M287.975,254.588c0,0,4.868,0.235,6.145,2.575c1.276,2.342,1.365,6.443-2.452,8.004c-3.814,1.562-10.48,2.38-10.48,2.38s6.926-2.515,8.052-5.204c1.127-2.688-2.552-4.683-3.864-4.781"></path><path style="fill:#6E6E6E;" d="M279.808,252.399c0,0-6.38,2.292-10.715,7.248c1.235-9.415,13.166-17.759,14.641-15.538C287.054,249.116,279.808,252.399,279.808,252.399z"></path></g></g></svg>