<svg xmlns="http://www.w3.org/2000/svg" width="500" height="500" version="1.1"><g id="x028"><path style="fill:#6E6E6E;" d="M304.016,241.921c-0.209-1.248-3.332-6.871-3.332-6.871s-4.582-4.373-4.79-7.704c-0.019-0.296-0.088-0.607-0.179-0.922c-1.074-5.252-4.123-11.184-5.652-14.07c-1.873-3.54-2.914,1.249-2.914,1.249s-2.499-2.915-3.54-7.913c-1.787,2.338-2.12,6.21-2.141,8.577c-1.226-0.778-2.269-1.63-2.856-2.538c-2.291-3.541-14.369-15.409-14.369-15.409l2.291,14.992c0,0,0.417,5.415,0.417,6.039s-0.208,3.331-0.208,3.331s-1.457,2.916-3.748,3.541c0.207,2.916,3.123,5.414,3.123,5.414s-2.916,1.874-5.206,1.666c1.874,6.456,5.831,10.412,5.831,10.412s0.416,8.329,0.416,11.244c0,2.916,2.081,4.581,2.291,5.205c0.207,0.625,0.417-2.081,1.874-5.205c0.416,2.082,3.747,6.871,3.747,6.871s4.582,6.664,6.871,9.579c1.459-0.416,2.291-8.954,2.291-8.954s2.082,1.458,3.957,3.956c2.081-1.666,7.08-8.119,7.08-8.119s2.29-1.876,4.164-0.209c0.833-2.291,0.209-7.08,0.209-7.08s1.664-1.874,3.748-0.625C303.807,246.087,304.223,243.172,304.016,241.921z"></path></g></svg>