<svg xmlns="http://www.w3.org/2000/svg" width="500" height="500" version="1.1"><g id="x033"><g><path style="fill:#6E6E6E;" d="M240.599,197.08c-0.29,4.629,4.05,17.646,2.604,22.565c-1.446,4.917-9.546,8.968-8.39,6.943c2.894-2.893,5.497-4.628,5.786-7.522c0.289-2.893-3.182-10.993-6.654-17.068c-3.471-6.075-0.868-17.068,8.389-19.672C246.673,182.326,240.888,192.452,240.599,197.08z"></path><path style="fill:#6E6E6E;" d="M260.4,197.08c0.289,4.629-4.05,17.646-2.603,22.565c1.444,4.917,9.545,8.968,8.389,6.943c-2.894-2.893-5.497-4.628-5.786-7.522c-0.289-2.893,3.182-10.993,6.653-17.068c3.473-6.075,0.868-17.068-8.389-19.672C254.326,182.326,260.111,192.452,260.4,197.08z"></path></g></g></svg>