<svg xmlns="http://www.w3.org/2000/svg" width="500" height="500" version="1.1"><g id="x034"><g><g><path style="fill:#6E6E6E;" d="M302.858,246.63c0,3.782-0.742,5.707-2.712,5.707c-1.968,0-4.137-1.925-4.137-5.707s2.169-7.988,4.137-7.988C302.116,238.643,302.858,242.849,302.858,246.63z"></path><path style="fill:#6E6E6E;" d="M295.439,255.76c0,3.782-2.738,6.276-4.707,6.276s-3.566-3.065-3.566-6.846c0-3.783,4.021-4.852,5.99-4.852C295.126,250.339,295.439,251.979,295.439,255.76z"></path><path style="fill:#6E6E6E;" d="M285.455,261.182c0,0,4.563,5.421,1.995,6.277c-2.567,0.854-9.415,2.852-9.128,0.284C278.605,265.176,280.319,260.325,285.455,261.182z"></path></g><g><path style="fill:#6E6E6E;" d="M198.142,246.63c0,3.782,0.741,5.707,2.71,5.707c1.97,0,4.137-1.925,4.137-5.707s-2.167-7.988-4.137-7.988C198.883,238.643,198.142,242.849,198.142,246.63z"></path><path style="fill:#6E6E6E;" d="M205.56,255.76c0,3.781,2.737,6.276,4.708,6.276c1.97,0,3.566-3.065,3.566-6.846c0-3.783-4.022-4.852-5.991-4.852C205.874,250.339,205.56,251.979,205.56,255.76z"></path><path style="fill:#6E6E6E;" d="M215.546,261.182c0,0-4.564,5.421-1.997,6.277c2.566,0.854,9.414,2.852,9.128,0.284S220.681,260.324,215.546,261.182z"></path></g></g></g></svg>