<svg xmlns="http://www.w3.org/2000/svg" width="500" height="500" version="1.1"><g id="x037"><g><path style="fill:#6E6E6E;" d="M240.076,184.762c0,0-4.632,9.497-3.473,18.067c1.157,8.57,3.011,11.581,3.011,11.581s-7.645-4.4-6.718-15.75C233.823,187.31,240.076,184.762,240.076,184.762z"></path><path style="fill:#6E6E6E;" d="M250.5,221.588c0.011-0.029,1.852-5.358,1.852-17.833s-1.84-19.876-1.852-19.917v-0.004v0.001v-0.001v0.004c-0.01,0.04-1.852,7.442-1.852,19.917S250.49,221.559,250.5,221.588v0.002v-0.001v0.001V221.588z"></path><path style="fill:#6E6E6E;" d="M260.922,184.762c0,0,4.632,9.497,3.476,18.067c-1.16,8.57-3.011,11.581-3.011,11.581s7.642-4.4,6.716-15.75C267.178,187.31,260.922,184.762,260.922,184.762z"></path></g></g></svg>