<svg xmlns="http://www.w3.org/2000/svg" width="500" height="500" version="1.1"><g id="x038"><g><g><path style="fill:#6E6E6E;" d="M278.557,257.633c0,0-2.266-2.914-0.836-7.502C280.031,254.049,278.557,257.633,278.557,257.633z"></path><path style="fill:#6E6E6E;" d="M281.881,253.455c0,0-2.915,2.265-7.501,0.837C278.296,251.98,281.881,253.455,281.881,253.455z"></path></g><g><path style="fill:#6E6E6E;" d="M286.596,256.726c0,0-2.461-2.75-1.359-7.425C287.815,253.046,286.596,256.726,286.596,256.726z"></path><path style="fill:#6E6E6E;" d="M289.619,252.325c0,0-2.748,2.464-7.425,1.36C285.941,251.106,289.619,252.325,289.619,252.325z"></path></g><g><path style="fill:#6E6E6E;" d="M294.273,255.32c0,0-2.56-2.66-1.62-7.372C295.362,251.602,294.273,255.32,294.273,255.32z"></path><path style="fill:#6E6E6E;" d="M297.14,250.817c0,0-2.66,2.559-7.373,1.621C293.42,249.729,297.14,250.817,297.14,250.817z"></path></g></g></g></svg>