<svg xmlns="http://www.w3.org/2000/svg" width="500" height="500" version="1.1"><g id="x039"><g><path style="fill:#6E6E6E;" d="M274.441,142.284l2.186,56.846l7.966,2.812l5.154,48.413l6.09,5.936l1.093,5.465l-4.373,3.279l-1.249-5.935l-6.56-6.09l-4.841-47.633l-7.965-2.499c0,0-2.499-59.658-2.499-60.126L274.441,142.284z"></path><path style="fill:#6E6E6E;" d="M225.56,142.284l-2.187,56.846l-7.965,2.813l-5.154,48.413l-6.091,5.936l-1.093,5.465l4.373,3.279l1.249-5.935l6.559-6.09l4.841-47.633l7.965-2.499c0,0,2.499-59.658,2.499-60.126L225.56,142.284z"></path></g></g></svg>