<svg xmlns="http://www.w3.org/2000/svg" width="500" height="500" version="1.1"><g id="x040"><g><path style="fill:#6E6E6E;" d="M196.991,252.145c0,0,1.562,3.749,2.499,4.53c2.655-1.405,6.872-1.25,9.214,1.873c2.342,3.124,1.562,9.059,1.562,9.059l4.685,2.186c0,0,2.187-9.525-3.123-15.617C206.518,248.088,196.991,252.145,196.991,252.145z"></path><path style="fill:#6E6E6E;" d="M303.009,252.145c0,0-1.562,3.749-2.498,4.53c-2.655-1.405-6.872-1.25-9.215,1.873c-2.343,3.124-1.563,9.059-1.563,9.059l-4.686,2.186c0,0-2.186-9.525,3.125-15.617C293.482,248.088,303.009,252.145,303.009,252.145z"></path></g></g></svg>