<svg xmlns="http://www.w3.org/2000/svg" width="500" height="500" version="1.1"><g id="x9043"><g><path style="fill:#6E6E6E;" d="M287.664,200.665c2.036-0.458,3.849-0.832,4.915-0.832c2.667,0,7.334,4,7.334,4l-4.167,7.333l4.667,1.167L311.579,205l-7.333-11l-3-2c0,0-11.833,1.5-14,2s-21.334,10.333-27.167,16.5c0,0,14.834-8,18.667-8.167C281.047,202.233,284.607,201.353,287.664,200.665"></path><g><path style="fill:#6E6E6E;" d="M261.412,242.5c0,0,7.834-2.5,16.834,0.333c4.629,1.458,13.333,0.333,16.333-0.333s13.167-8.5,13.167-8.5s-7.501,14.333-13.334,14.333s-15.5-1.833-18.5-3S269.079,243.333,261.412,242.5z"></path><path style="fill:#6E6E6E;" d="M273.58,243.333c0,0,0,12.667,15.667,17.167c0,0-10.333-5.999-11-9.833s-0.833-5.667-0.5-6.5"></path><path style="fill:#6E6E6E;" d="M295.912,260.834c0,0-2.276,0.395-4.033-0.859c-2.258-1.613-6.645-6.965-8.801-10.809c0,0,5.502,6,9.168,7.334s4.165,0.833,4.832,2.5"></path><path style="fill:#6E6E6E;" d="M286.245,246.666c0,0,3.833,6.833,13.833,9c0,0-9.166-6-8-8.667"></path></g></g></g></svg>