<svg xmlns="http://www.w3.org/2000/svg" width="500" height="500" version="1.1"><g id="x9045"><g><path style="fill:#6E6E6E;" d="M293.442,250.427c-20.905-4.499-43.442-5.26-43.442-5.26s-22.537,0.761-43.442,5.26c-3.565,0.528-6.844,1.251-9.058,2.24c0,0,1.5,10.832,15.167,17.166c1.919-12.199,10.032-18.419,12.855-20.245c4.203-1.289,11.774-2.754,24.478-2.754s20.274,1.466,24.478,2.754c2.823,1.826,10.938,8.046,12.855,20.245C301,263.499,302.5,252.667,302.5,252.667C300.286,251.678,297.008,250.955,293.442,250.427z"></path><path style="fill:#6E6E6E;" d="M250,240.833c0,0-32.918,1.249-53.918,7.083c0.166,1,0.583,1.583,0.583,1.583s23.417-6.167,53.335-6.808c29.918,0.641,53.335,6.808,53.335,6.808s0.417-0.583,0.583-1.583C282.918,242.083,250,240.833,250,240.833z"></path></g></g></svg>