<svg xmlns="http://www.w3.org/2000/svg" width="500" height="500" version="1.1"><g id="x9046"><path style="fill:#6E6E6E;" d="M277.404,252.564c-0.232,0.466,2.224,5.612,2.925,6.665c-1.052,1.755-3.391,5.965-3.157,6.549c0.232,0.585,4.327,0.234,7.835-1.169c1.17,1.52,3.358,4.575,3.827,4.106c0.469-0.468,1.787-5.275,1.787-6.797c2.105-1.755,4.763-2.767,4.879-3.703c0.117-0.936-4.411-2.729-4.411-2.729s-0.234-5.612-1.755-7.367c-1.637,0.702-5.145,5.496-5.145,5.496S277.638,252.098,277.404,252.564z"></path></g></svg>