<svg xmlns="http://www.w3.org/2000/svg" width="500" height="500" version="1.1"><g id="x9047"><g><path style="fill:#6E6E6E;" d="M205.911,264.454c0,0,4.338-3.183,6.263-4.199c-0.7,2.448-3.062,6.952-3.062,6.952S206.107,265.854,205.911,264.454z"></path><path style="fill:#6E6E6E;" d="M212.034,267.992c0,0,2.562-1.659,2.998-3.645c0.445-2.024,0.875-4.836,1.155-5.936c0.284-1.11,3.103-4.479,5.352-7.046c2.313-2.639,4.842-7.275,4.842-7.275s-2.08,6.459-3.446,8.312c-1.341,1.817-2.715,6.679-4.379,9.539C216.941,264.718,213.967,267.585,212.034,267.992z"></path><path style="fill:#6E6E6E;" d="M216.448,270.696c0,0,0.686-3.455,3.4-7.39c2.834-4.109,4.548-8.195,4.548-8.195s-2.323,9.131-3.693,10.907C219.358,267.761,216.448,270.696,216.448,270.696z"></path><path style="fill:#6E6E6E;" d="M220.027,271.877c0,0-0.313-1.81,0.097-3.116c0.416-1.324,2.879-4.05,3.634-5.03C223.061,265.671,220.694,271.347,220.027,271.877z"></path><path style="fill:#6E6E6E;" d="M223.936,274.386c0,0,0.557-3.441,2.941-5.922c-0.493,1.552-1.429,6.212-1.429,6.212L223.936,274.386z"></path><path style="fill:#6E6E6E;" d="M226.345,275.042c0,0,1.292-5.111,3.809-8.027c-1.564,4.211-2.197,8.245-2.197,8.245L226.345,275.042z"></path><path style="fill:#6E6E6E;" d="M230.043,275.771c0,0,1.127-2.519,1.749-3.047c0.625-0.531-0.38,3.193-0.38,3.193L230.043,275.771z"></path><path style="fill:#6E6E6E;" d="M201.897,260.96c0,0,3.016-1.78,4.042-3.219c1.042-1.461,3.711-5.878,4.048-6.958c0.341-1.091,2.795-8.574,3.818-9.396c-3.28,3.306-5.193,9.262-5.689,9.992c-0.492,0.724-7.057,8.131-7.057,8.131L201.897,260.96z"></path><path style="fill:#6E6E6E;" d="M201.067,259.506c0,0-0.082-5.12,1.933-7.089c2.062-2.014,6.468-3.609,6.468-3.609l-0.372,1.73c0,0-3.897,1.105-5.222,2.813c-1.301,1.678-1.386,5.051-1.386,5.051L201.067,259.506z"></path><path style="fill:#6E6E6E;" d="M210.291,250.198c0,0,2.064-4.309,3.906-5.991c1.876-1.714,6.7-3.99,8.239-5.36c1.563-1.39,5.228-3.115,5.228-3.115s-4.516,4.779-6.744,6.159C218.728,243.25,212.455,249.854,210.291,250.198z"></path><path style="fill:#6E6E6E;" d="M224.55,240.448c0,0-0.417,2.671-3.184,4.613c-2.706,1.899-6.402,3.886-7.432,5.015c-1.017,1.116-3.013,7.446-4.125,7.979c1.394-0.709,3.833-6.617,5.607-7.756c1.799-1.155,6.259-3.639,7.559-5.684C224.302,242.527,224.55,240.448,224.55,240.448z"></path><path style="fill:#6E6E6E;" d="M222.519,245.206c0.359-0.588,1.195-1.876,2.631-2.325c-0.662,1.384-2.9,3.851-3.275,4.614c-0.373,0.758-1.901,5.264-3.11,6.099c-1.197,0.825-7.645,3.667-8.3,5.449c0.565-1.779,5.287-5.009,6.686-6.11C218.566,251.819,222.519,245.206,222.519,245.206z"></path><path style="fill:#6E6E6E;" d="M196.833,250l1.499,4.027c0.554-2.453,4.013-3.988,5.49-4.578c1.49-0.595,7.957-9.761,7.843-10.647c-6.118,3.701-9.406,7.046-10.706,7.283C199.667,246.32,196.833,250,196.833,250z"></path><path style="fill:#6E6E6E;" d="M197,249.917l-1.333-3.25c0,0,7.729-9.487,8.891-9.546c-3.168,3.899-4.777,10.73-4.777,10.73L197,249.917z"></path><path style="fill:#6E6E6E;" d="M206.284,246.685c0,0,8.475-7.272,11.529-8.418c-2.91,4.278-3.86,6.617-5.229,7.05C211.226,245.747,206.284,246.685,206.284,246.685z"></path></g></g></svg>