<svg xmlns="http://www.w3.org/2000/svg" width="500" height="500" version="1.1"><g id="x006"><g><g><path style="fill:#6E6E6E;" d="M276.549,254.601c-1.027,1.26-0.111,3.779,1.256,4.915c1.369,1.135,16.256-0.63,19.334-2.395c0.686-0.505,1.318-4.412,1.43-5.674C294.689,251.952,290.697,252.96,276.549,254.601z"></path><path style="fill:#6E6E6E;" d="M274.547,261.923c-1.027,1.26-0.115,3.782,1.256,4.916c1.369,1.134,13.393-0.631,16.473-2.396c0.686-0.505,4.178-4.412,4.291-5.672C292.688,259.275,288.693,260.283,274.547,261.923z"></path></g><g><path style="fill:#6E6E6E;" d="M223.451,254.601c1.027,1.26,0.114,3.779-1.256,4.915c-1.369,1.135-16.253-0.63-19.334-2.395c-0.685-0.505-1.316-4.412-1.43-5.674C205.31,251.952,209.304,252.96,223.451,254.601z"></path><path style="fill:#6E6E6E;" d="M225.455,261.923c1.026,1.26,0.113,3.782-1.256,4.916c-1.369,1.134-13.393-0.631-16.474-2.396c-0.684-0.505-4.178-4.412-4.292-5.672C207.313,259.275,211.307,260.283,225.455,261.923z"></path></g></g></g></svg>