<svg xmlns="http://www.w3.org/2000/svg" width="500" height="500" version="1.1"><g id="x007"><g><path style="fill:#6E6E6E;" d="M293.004,257.951l-1.535,1.615l-1.706-1.615c-2.274-2.2-3.411-4.119-3.411-5.757c0-0.655,0.255-1.24,0.768-1.755c0.454-0.327,1.079-0.491,1.876-0.491c0.683,0,1.25,0.164,1.707,0.491c0.227,0.28,0.483,0.608,0.767,0.983c0.113-0.375,0.313-0.703,0.598-0.983c0.511-0.327,1.108-0.491,1.79-0.491c0.742,0,1.337,0.164,1.793,0.491c0.566,0.515,0.853,1.1,0.853,1.755C296.502,253.832,295.336,255.751,293.004,257.951z"></path></g></g></svg>