<svg xmlns="http://www.w3.org/2000/svg" width="500" height="500" version="1.1"><g id="a010"><g><g style="opacity:0.5;"><path style="fill:#C8C8C8;" d="M103.246,342.271c0.442,1.428,2.019,2.578,3.545,2.687c2.466,0.174,4.671-2.193,3.707-4.597c0.827-2.248-0.454-5.222-3.008-5.518c-2.345-0.274-3.796,2.035-4.069,4.127C102.555,340.009,102.637,341.261,103.246,342.271z"></path><path style="fill:#C8C8C8;" d="M93.225,182.099c1.504-0.011,2.979-0.792,3.78-2.074c0.06,0.005,0.116,0.018,0.175,0.018c1.847,0.015,2.687-1.016,3.721-2.359c0.831-1.079,0.101-2.819-0.428-3.837c-0.745-1.434-2.007-2.633-3.493-3.244c-2.318-0.953-4.999,0.749-6.173,2.913c-0.218,0.256-0.435,0.517-0.662,0.783C87.901,176.924,89.368,182.13,93.225,182.099z"></path><path style="fill:#C8C8C8;" d="M132.566,224.278c0.757,0.757,1.536,0.732,2.127,0.25c0.656-0.064,1.303-0.302,1.833-0.653c0.727-0.481,1.096-1.099,1.215-1.745c0.873-1.495,0.444-3.707-1.512-4.053c-0.292-0.052-0.587-0.034-0.882,0.012c-0.257-0.115-0.56-0.154-0.918-0.073c-0.208,0.047-0.392,0.138-0.563,0.243c-0.246,0.034-0.494,0.089-0.741,0.191C130.55,219.508,130.652,223.157,132.566,224.278z"></path><path style="fill:#C8C8C8;" d="M365.063,238.699c0.195,2.436,1.688,5.973,4.37,6.475c0.57,0.648,1.308,1.09,2.212,1.146c1.72,0.108,2.936-1.321,3.548-2.914c0.272-0.327,0.483-0.687,0.594-1.082c0.28-1.003,0.417-2.032,0.243-2.939c0.372-1.263,0.293-2.577-0.578-3.614c-0.522-0.622-1.191-0.925-1.918-1.001c-1.315-0.799-3.011-0.642-4.272,0.165c-0.865-0.413-1.918-0.153-2.767,0.339C365.172,236.041,364.943,237.228,365.063,238.699z"></path><path style="fill:#C8C8C8;" d="M388.864,202.576c-0.023,0.056-0.062,0.101-0.078,0.16c-0.048,0.172-0.054,0.344-0.04,0.513c-0.538,1.858,0.616,3.249,2.3,3.599c0.919,0.373,2.057,0.327,2.838-0.173c0.077-0.049,0.145-0.103,0.212-0.156c0.362-0.12,0.69-0.332,0.952-0.632c0.939-0.663,1.689-1.591,2.062-2.642c1.071-3.023-2.615-4.525-5.311-3.761c-0.723-0.398-1.532-0.539-2.36-0.18C388.075,199.897,388.288,201.391,388.864,202.576z"></path><path style="fill:#C8C8C8;" d="M359.013,123.817c-0.517,0.583-0.677,1.375-0.06,2.199c0.316,0.423,0.691,0.703,1.083,0.848c1.033,1.129,2.69,1.706,3.854,0.611c0.696-0.655,0.856-1.514,0.673-2.33c0.33-0.945,0.063-1.935-1.07-2.512c-0.743-0.379-1.587-0.399-2.393-0.274c-0.414,0.063-0.746,0.214-1.031,0.418C359.611,122.938,359.235,123.282,359.013,123.817z"></path><path style="fill:#C8C8C8;" d="M451.722,207.951c0.442,1.152,1.004,2.507,2.122,3.16c1.906,1.109,3.513-1.096,3.934-2.703c0.212-0.811,0.244-1.813-0.247-2.533c-0.631-0.927-1.871-1.027-2.859-0.656c-0.105,0.041-0.2,0.09-0.293,0.14c-0.743-0.425-1.585-0.575-2.257-0.11C451.209,205.88,451.375,207.046,451.722,207.951z"></path><path style="fill:#C8C8C8;" d="M417.855,363.45c0.188,0.622,0.516,1.151,0.929,1.591c0.118,0.86,0.389,1.715,0.828,2.523c1.394,2.568,3.789,2.687,5.866,1.343c1.032,0.398,2.178,0.438,3.301-0.092c1.885-0.889,3.144-2.754,3.247-4.566c0.713-2.402-0.027-5.301-2.069-6.863c-0.319-0.244-0.705-0.413-1.128-0.528c-0.177-0.257-0.391-0.485-0.651-0.672c-1.25-0.896-3.17,0.005-4.457,0.443C420.892,357.597,416.802,359.968,417.855,363.45z"></path><path style="fill:#C8C8C8;" d="M161.56,49.235c-0.279,0.739-0.364,1.559-0.169,2.461c1.042,4.842,6.65,5.673,10.353,3.286c0.981-0.632,1.569-1.512,1.834-2.463c0.131-0.243,0.254-0.496,0.362-0.773c0.689-1.761,0.421-3.592-0.464-5.019c-0.137-1.958-1.738-3.729-3.623-4.09c-0.042-0.044-0.082-0.091-0.125-0.133c-0.085-0.084-0.179-0.107-0.27-0.104c-2.003-1.3-5.88-0.747-6.554,1.64c-0.242,0.233-0.48,0.499-0.567,0.815c-0.107,0.389-0.052,0.865,0.013,1.305c-0.102,0.117-0.201,0.233-0.297,0.364c-0.58,0.792-0.651,1.629-0.517,2.572C161.541,49.14,161.551,49.19,161.56,49.235z"></path><path style="fill:#C8C8C8;" d="M383.785,36.905c0.261,0.327,0.579,0.484,0.915,0.536c0.047,0.045,0.089,0.098,0.141,0.136c0.909,0.689,2.126,0.405,2.271-0.788c0.017-0.139,0.016-0.279,0.002-0.418c0.042-0.087,0.069-0.178,0.066-0.272c-0.009-0.217-0.065-0.42-0.142-0.614c0.27-0.345,0.371-0.77,0.104-1.31c-0.197-0.397-0.536-0.709-0.925-0.847c-0.23-0.347-0.598-0.58-0.977-0.729c-0.752-0.293-1.204,0.381-1.597,0.916C382.856,34.584,382.963,35.871,383.785,36.905z"></path><path style="fill:#C8C8C8;" d="M286.195,12.797c1.419,0.883,3.239,0.057,3.298-1.539c0.002-0.007,0.007-0.013,0.008-0.021c0.061-0.357-0.021-0.656-0.186-0.917c-0.234-0.502-0.677-0.907-1.186-1.123c-0.828-0.35-1.581,0.076-2.067,0.763c-0.144,0.203-0.234,0.447-0.296,0.7C285.175,11.372,285.411,12.31,286.195,12.797z"></path><path style="fill:#C8C8C8;" d="M318.121,83.51c0.548,0.551,1.41,0.663,2.124,0.421c0.678-0.228,1.306-0.789,1.435-1.518c0.072-0.41-0.006-0.776-0.174-1.154c-0.084-0.188-0.227-0.353-0.356-0.507c-0.188-0.225-0.34-0.473-0.551-0.681c-0.768-0.75-1.936-0.591-2.552,0.251c-0.222,0.305-0.31,0.572-0.298,0.874C317.249,81.911,317.538,82.922,318.121,83.51z"></path><path style="fill:#C8C8C8;" d="M333.774,92.217c0.142,0.909,1.042,1.39,1.893,1.201c0.775-0.173,1.189-0.929,0.924-1.632c0.147-0.468,0.118-0.898-0.253-1.306c-0.315-0.348-0.885-0.371-1.299-0.222c-0.421,0.152-0.766,0.431-1.036,0.783C333.726,91.405,333.705,91.776,333.774,92.217z"></path></g><g><path style="fill:#E6E6E6;" d="M34.697,310.767c0.779,0.286,1.88,0.006,2.578-0.459c0.585,0.055,1.149-0.182,1.552-0.845c0.592-0.33,1.134-0.792,1.589-1.298c1.538-1.708,0.497-3.935-1.524-4.523c-0.328-0.096-0.64-0.135-0.935-0.134c-0.182-0.028-0.354-0.028-0.522-0.018c-0.395-0.039-0.792-0.016-1.171,0.08c-0.263-0.125-0.54-0.206-0.832-0.215c-0.779-0.022-1.547,0.479-1.927,1.177c-0.427,0.442-0.742,1.017-0.862,1.649C32.314,307.904,32.923,310.116,34.697,310.767z"></path><path style="fill:#E6E6E6;" d="M97.679,301.531c-0.002,0.193,0.004,0.378,0.023,0.548c0.238,2.134,2.112,3.019,3.987,2.079c0.831-0.415,1.565-1.314,1.534-2.258c-0.013-0.382-0.096-0.768-0.214-1.142c0.01-0.038,0.019-0.076,0.027-0.117c0.854-0.373,0.673-1.601-0.208-1.792c-0.502-1.076-1.628-1.745-2.87-1.403c-0.915,0.253-1.537,1.091-1.898,2.053c-0.057,0.066-0.124,0.125-0.175,0.198C97.514,300.226,97.488,300.887,97.679,301.531z"></path><path style="fill:#E6E6E6;" d="M58.013,240.346c0.881,0.352,1.97,0.084,2.824-0.446c0.685-0.178,1.308-0.645,1.781-1.175c0.776-0.871,1.334-2.393,0.887-3.518c-0.472-1.191-1.509-1.896-2.73-2.16c-0.794-0.17-1.676-0.172-2.506,0.008c-0.763-0.015-1.549,0.223-2.204,0.671C53.591,235.423,55.855,239.485,58.013,240.346z"></path><path style="fill:#E6E6E6;" d="M136.473,419.757c0.345,0.283,0.764,0.484,1.264,0.538c0.874,0.092,1.77-0.265,2.447-0.853c1.221-0.53,2.272-1.587,2.008-2.974c-0.188-0.992-1.052-1.526-1.98-1.781c-0.408-0.29-0.899-0.494-1.473-0.561c-1.722-0.199-3.731,1.136-4.038,2.865C134.431,418.509,135.33,419.43,136.473,419.757z"></path><path style="fill:#E6E6E6;" d="M157.132,326.573c0.175,0.199,0.364,0.358,0.557,0.501c0.128,0.212,0.276,0.413,0.457,0.588c0.431,0.415,0.925,0.627,1.449,0.725c0.658,0.435,1.469,0.688,2.314,0.698c1.703,0.021,2.763-1.537,3.075-3.036c0.421-2.026-0.29-4.502-1.818-5.63c-0.092-0.087-0.202-0.158-0.332-0.207c-0.282-0.161-0.589-0.272-0.917-0.337c-0.248-0.1-0.513-0.177-0.8-0.219c-2.067-0.305-3.627,1.03-4.142,2.798C156.142,323.694,155.922,325.197,157.132,326.573z"></path><path style="fill:#E6E6E6;" d="M157.575,189.365c4.846,2.591,11.981-0.501,11.035-6.542c-0.29-1.844-1.297-3.396-2.658-4.5c-0.639-0.833-1.438-1.521-2.383-2.003c-0.106-0.147-0.212-0.292-0.317-0.436c-0.157-0.215-0.503-0.157-0.57,0.06c-2.355-0.776-4.983,1.084-6.605,2.549C152.754,181.498,153.703,187.293,157.575,189.365z M164.794,185.212c-0.009-0.005-0.014-0.015-0.023-0.021c-0.054-0.038-0.108-0.066-0.162-0.1c-0.023-0.042-0.046-0.086-0.073-0.124c0.294-0.422,0.513-0.896,0.632-1.41C165.161,184.14,165.058,184.698,164.794,185.212z"></path><path style="fill:#E6E6E6;" d="M64.326,203.414c0.427,0.491,1.104,0.786,1.752,0.688c0.087-0.014,0.161-0.054,0.241-0.083c0.558,0.101,1.127-0.23,1.534-0.783c0.428-0.58,0.257-1.313-0.126-1.913c-0.282-1.005-1.099-1.941-2.068-1.944c-0.87-0.004-1.369,0.752-1.514,1.561c-0.033,0.03-0.072,0.055-0.103,0.089C63.393,201.756,63.764,202.77,64.326,203.414z"></path><path style="fill:#E6E6E6;" d="M431.188,275.558c0.413,0.634,0.921,1.116,1.489,1.484c0.148,0.17,0.305,0.33,0.465,0.477c0.653,0.598,1.461,0.893,2.317,0.989c1.742,1.088,4.236,1.075,6.155-0.758c0.331-0.316,0.602-0.646,0.843-0.979c1.313-0.525,2.605-1.462,3.509-2.588c2.227-1.629,3.646-3.986,2.127-6.449c-0.703-1.142-1.745-2.015-2.942-2.603c-0.034-0.619-0.849-0.913-1.165-0.464c-0.404-0.128-0.817-0.229-1.236-0.297c-0.274-0.684-0.745-1.313-1.474-1.827c-2.05-1.449-5.455-1.533-7.141,0.544c-1.547,1.906-3.867,4.763-3.182,7.381C430.223,272.153,430.155,273.971,431.188,275.558z"></path><path style="fill:#E6E6E6;" d="M400.108,273.53c1.302,1.805,3.899,1.418,5.515,0.226c0.943-0.237,1.786-0.794,2.267-1.729c0.439-0.857,0.299-1.843-0.137-2.698c0-0.013,0.002-0.025,0.001-0.039c-0.111-2.492-2.369-3.006-4.325-2.315c-1.024,0.024-2.035,0.316-2.759,0.921C399.161,269.153,398.997,271.989,400.108,273.53z"></path><path style="fill:#E6E6E6;" d="M378.082,277.403c0.007,0.01,0.014,0.022,0.02,0.032c0.496,0.745,1.348,0.844,2.11,0.492c0.507-0.233,0.896-0.666,1.185-1.163c0.119-0.034,0.232-0.074,0.332-0.12c1.015-0.472,1.626-1.826,0.977-2.832c-0.571-0.884-1.753-0.97-2.779-0.646c-0.335-0.214-0.724-0.355-1.158-0.373c-1.713-0.076-1.895,1.194-1.588,2.484C376.74,276.035,377.268,276.935,378.082,277.403z"></path><path style="fill:#E6E6E6;" d="M367.008,241.541c-0.237-0.45-0.404-0.937-0.526-1.436c0.169,0.368,0.392,0.697,0.658,0.973c0.087,0.478,0.235,0.915,0.444,1.298c0.071,0.212,0.156,0.416,0.249,0.617C367.509,242.52,367.246,241.99,367.008,241.541z"></path><path style="fill:#E6E6E6;" d="M394.497,202.256c-0.019-0.005-0.042-0.007-0.062-0.012c-0.158-0.423-0.384-0.828-0.667-1.188c0.239,0.113,0.475,0.324,0.689,0.661c0.134,0.209,0.21,0.421,0.245,0.635C394.636,202.318,394.573,202.276,394.497,202.256z"></path><path style="fill:#E6E6E6;" d="M383.785,347.8c0.261,0.327,0.579,0.484,0.915,0.538c0.047,0.043,0.089,0.096,0.141,0.134c0.909,0.689,2.126,0.405,2.271-0.787c0.018-0.14,0.016-0.278,0.002-0.418c0.042-0.086,0.069-0.179,0.066-0.271c-0.009-0.218-0.065-0.422-0.142-0.616c0.27-0.345,0.371-0.77,0.104-1.308c-0.197-0.398-0.536-0.711-0.925-0.848c-0.23-0.347-0.598-0.581-0.977-0.73c-0.752-0.293-1.204,0.381-1.597,0.915C382.856,345.48,382.963,346.768,383.785,347.8z"></path><path style="fill:#E6E6E6;" d="M133.114,127.537c-0.071,0.156-0.113,0.329-0.138,0.488c-0.057,0.363,0.087,0.848,0.52,0.916c0.265,0.042,0.527,0.087,0.795,0.092c0.448,0.008,0.803-0.374,0.811-0.81c0.004-0.214,0.009-0.428,0.014-0.64c0.178-0.084,0.347-0.227,0.49-0.444c0.433-0.65,0.329-1.739-0.262-2.254c-0.938-0.813-2.385-0.279-2.774,0.825C132.334,126.38,132.613,127.088,133.114,127.537z"></path><path style="fill:#E6E6E6;" d="M111.633,145.986c0.142,0.909,1.042,1.39,1.893,1.201c0.776-0.173,1.19-0.928,0.924-1.632c0.147-0.468,0.118-0.897-0.252-1.306c-0.316-0.349-0.886-0.371-1.3-0.222c-0.42,0.152-0.766,0.431-1.035,0.783C111.584,145.174,111.564,145.545,111.633,145.986z"></path><path style="fill:#E6E6E6;" d="M62.563,147.749c0.145,0.006,0.279,0.091,0.396,0.189c-0.183,0.339-0.194,0.794-0.173,1.206c0.014,0.272,0.311,0.479,0.563,0.323c0.175-0.109,0.322-0.242,0.436-0.391c0.25-0.012,0.491-0.187,0.527-0.53c0.02-0.196-0.028-0.402-0.053-0.598c-0.042-0.339-0.287-0.549-0.635-0.483c-0.019,0.003-0.032,0.011-0.05,0.016c-0.271-0.285-0.623-0.496-1.011-0.53C62.056,146.91,62.047,147.729,62.563,147.749z"></path><path style="fill:#E6E6E6;" d="M41.615,156.29c0.063-0.064,0.129-0.126,0.193-0.189c0.05,0.036,0.093,0.078,0.145,0.108c0.821,0.495,1.735,0.103,2.176-0.684c0.545-0.972-0.81-1.815-1.666-1.688c-0.305-0.149-0.656-0.156-1.033-0.083c-0.327,0.064-0.607,0.438-0.585,0.77c0.005,0.076,0.033,0.147,0.047,0.22c-0.145,0.133-0.283,0.271-0.417,0.405C39.736,155.883,40.88,157.027,41.615,156.29z"></path><path style="fill:#E6E6E6;" d="M429.073,228.896c1.85,0.637,4.445,0.415,5.598-1.391c0.217-0.339,0.355-0.69,0.459-1.045c0.37-0.442,0.662-0.946,0.833-1.497c0.27-0.869,0.285-1.735,0.104-2.531c0.015-0.152,0.02-0.307,0.017-0.459c0.312-0.524,0.12-1.018-0.272-1.328c-0.147-0.354-0.356-0.695-0.637-1.02c-1.942-2.249-5.827-1.98-7.356,0.582c-0.198,0.332-0.343,0.699-0.46,1.08c-0.577,0.668-1,1.474-1.208,2.396C425.653,225.891,426.94,228.161,429.073,228.896z"></path><path style="fill:#E6E6E6;" d="M391.072,371.254c0.452,0.967,1.607,1.399,2.597,1.043c0.653-0.234,1.171-0.643,1.394-1.32c0.171-0.521,0.13-1.11-0.027-1.63c-0.001-0.002-0.002-0.005-0.002-0.007c-0.019-0.287-0.095-0.572-0.236-0.849c-0.028-0.644-0.494-0.982-0.988-1.022c-0.316-0.177-0.659-0.262-0.986-0.157c-0.205-0.021-0.414-0.02-0.628,0.04c-0.944,0.26-1.301,1.162-1.335,2.049C390.729,370.018,390.805,370.68,391.072,371.254z"></path><path style="fill:#E6E6E6;" d="M106.814,105.007c0.624,1.831,2.061,2.183,3.531,1.803c0.365,0.086,0.752,0.152,1.148,0.196c1.736,0.655,4.075-0.18,5.023-1.732c0.692-1.134,0.719-2.422,0.335-3.608c-0.067-0.827-0.302-1.655-0.647-2.403c-0.834-1.807-2.917-2.935-4.839-2.176c-0.138,0.055-0.26,0.126-0.389,0.191c-0.513,0.162-0.99,0.402-1.384,0.724c-0.129,0.011-0.259,0.028-0.389,0.075c-0.011,0.003-0.022,0.01-0.033,0.015c-1.185,0.036-2.444,0.841-3.238,2.215C104.846,102.184,105.512,103.822,106.814,105.007z"></path><path style="fill:#E6E6E6;" d="M85.411,90.494c0.016,0.238,0.199,0.483,0.464,0.465c0.111-0.008,0.214-0.019,0.318-0.029c0.321,0.131,0.706,0.175,1.083,0.118c0.286,0.219,0.671,0.284,1.165,0.081c0.218-0.087,0.417-0.258,0.465-0.494c0.218,0.068,0.45,0.115,0.709,0.117c0.856,0.008,1.491-0.604,1.747-1.332c0.823-0.183,0.811-1.305-0.044-1.45c-0.152-0.313-0.408-0.581-0.796-0.746c-0.622-0.264-1.35-0.329-2.012-0.196c-0.286-0.189-0.496-0.222-0.84-0.224c-0.36-0.001-0.703,0.31-0.698,0.679C85.675,87.574,85.333,89.342,85.411,90.494z"></path><path style="fill:#E6E6E6;" d="M53.569,144.903c-0.246,0.449-0.391,0.946-0.389,1.493c0.014,3.615,3.603,6.496,6.992,6.707c2.86,0.176,7.55-3.092,6.075-6.344c-0.086-0.191-0.181-0.384-0.276-0.575c0.47-1.591-0.085-3.432-0.923-4.8c-0.589-0.961-1.336-1.779-2.214-2.371c-0.326-0.295-0.725-0.544-1.219-0.721c-1.213-0.438-2.683-0.397-4.053,0.011c-0.015-0.005-0.027-0.01-0.042-0.013c-0.688-0.187-1.186,0.139-1.412,0.612c-1.968,1.065-3.356,2.975-2.731,5.388C53.433,144.506,53.499,144.708,53.569,144.903z"></path><path style="fill:#E6E6E6;" d="M452.835,330.114c0.757,0.757,1.536,0.732,2.126,0.249c0.656-0.066,1.304-0.301,1.834-0.652c0.727-0.481,1.097-1.099,1.215-1.745c0.873-1.496,0.444-3.708-1.512-4.055c-0.291-0.05-0.587-0.032-0.882,0.013c-0.258-0.115-0.56-0.155-0.919-0.072c-0.208,0.047-0.392,0.136-0.563,0.242c-0.246,0.034-0.494,0.09-0.741,0.191C450.818,325.344,450.92,328.993,452.835,330.114z"></path><path style="fill:#E6E6E6;" d="M448.351,316.017c0.827,0.105,1.567-0.24,2.182-0.776c0.905,0.316,1.865,0.364,2.631,0.012c4.696-2.164,1.955-11.083-2.931-8.046c-1.622,1.008-3.381,3.095-2.735,4.959c-0.11,0.192-0.213,0.387-0.295,0.586C446.676,314.004,446.647,315.799,448.351,316.017z"></path><path style="fill:#E6E6E6;" d="M460.203,386.22c0.827,0.105,1.567-0.241,2.182-0.777c0.905,0.315,1.864,0.364,2.631,0.011c4.695-2.163,1.954-11.082-2.932-8.045c-1.621,1.008-3.379,3.095-2.734,4.96c-0.11,0.191-0.212,0.386-0.296,0.585C458.527,384.206,458.5,386.003,460.203,386.22z"></path><path style="fill:#E6E6E6;" d="M136.472,108.862c0.345,0.284,0.764,0.484,1.264,0.538c0.874,0.092,1.77-0.264,2.447-0.853c1.221-0.53,2.272-1.586,2.008-2.975c-0.188-0.99-1.052-1.525-1.98-1.779c-0.408-0.29-0.899-0.494-1.473-0.561c-1.722-0.199-3.731,1.136-4.038,2.865C134.431,107.614,135.33,108.534,136.472,108.862z"></path><path style="fill:#E6E6E6;" d="M239.154,52.498c0.178,0.653,0.817,0.797,1.31,0.604c0.003,0,0.005,0.002,0.009,0.003c0.091,0.266,0.321,0.509,0.587,0.556c0.833,0.147,1.68,0.133,2.202-0.625c0.121-0.177,0.175-0.381,0.187-0.591c0.157-0.191,0.284-0.386,0.369-0.618c0.365-0.071,0.683-0.376,0.668-0.784c-0.042-1.118-1.113-1.646-2.082-1.214c-0.155,0.07-0.281,0.17-0.395,0.286C240.551,49.724,238.607,50.494,239.154,52.498z"></path><path style="fill:#E6E6E6;" d="M445.5,131.024c0.141,0.259,0.351,0.493,0.653,0.671c0.498,0.295,1.103,0.3,1.621,0.041c0.109-0.055,0.192-0.12,0.276-0.183c0.908-0.256,1.633-0.987,1.821-2.048c0.114-0.633-0.682-0.956-1.014-0.575c-0.024-0.086-0.046-0.17-0.083-0.251c0.288-0.044,0.525-0.316,0.452-0.671c-0.216-1.057-1.369-0.909-2.079-0.495c-0.027,0.017-0.052,0.036-0.078,0.054c-0.197-0.036-0.396-0.062-0.596-0.075c-0.521-0.031-1.018,0.366-1.377,0.711C444.073,129.182,444.585,130.337,445.5,131.024z"></path><path style="fill:#E6E6E6;" d="M271.057,77.722c0.119-0.05,0.227-0.117,0.342-0.17c1.721,0.284,3.509-0.173,4.774-1.702c1.506-1.816,2.126-4.654,1.02-6.704c0.022-2.283-1.447-4.302-4.124-3.635c-0.872,0.219-1.827,0.532-2.741,0.955c-0.64,0.225-1.259,0.553-1.797,0.883c-0.886,0.129-1.599,0.674-2,1.617c-0.694,0.825-1.122,1.802-1.322,2.986C264.588,75.617,267.129,79.367,271.057,77.722z"></path><path style="fill:#E6E6E6;" d="M417.855,52.555c0.188,0.623,0.516,1.151,0.929,1.591c0.118,0.861,0.389,1.714,0.828,2.523c1.394,2.569,3.789,2.687,5.866,1.344c1.032,0.398,2.178,0.436,3.301-0.093c1.885-0.888,3.144-2.753,3.247-4.566c0.713-2.403-0.027-5.301-2.069-6.864c-0.319-0.245-0.705-0.412-1.128-0.527c-0.177-0.257-0.391-0.486-0.651-0.672c-1.25-0.898-3.17,0.003-4.457,0.444C420.892,46.702,416.802,49.071,417.855,52.555z"></path><path style="fill:#E6E6E6;" d="M391.072,60.357c0.452,0.969,1.607,1.4,2.597,1.045c0.653-0.235,1.171-0.645,1.394-1.32c0.171-0.523,0.13-1.11-0.027-1.63c-0.001-0.001-0.002-0.005-0.002-0.006c-0.019-0.287-0.095-0.572-0.236-0.849c-0.028-0.644-0.494-0.984-0.988-1.022c-0.316-0.177-0.659-0.261-0.986-0.157c-0.205-0.021-0.414-0.02-0.628,0.039c-0.944,0.261-1.301,1.164-1.335,2.05C390.729,59.123,390.805,59.785,391.072,60.357z"></path><path style="fill:#E6E6E6;" d="M458.684,179.317c0.203,0.551,0.521,1.032,0.939,1.387c-0.036,0.034-0.072,0.068-0.105,0.104c-0.498,0.53-0.112,1.159,0.424,1.256c0.034,0.212,0.159,0.412,0.348,0.516c0.898,0.504,1.895,0.303,2.795-0.282c0.19,0.026,0.386,0.037,0.591,0.02c1.882-0.164,3.33-2.382,3.541-4.102c0.107-0.862-0.13-1.603-0.575-2.132c-0.241-0.69-0.87-1.115-1.624-1.321c-0.748-1.176-2.198-0.894-3.007-0.014c-0.508-0.212-1.054-0.3-1.568-0.159c-0.515,0.143-0.952,0.54-1.292,1.029c-0.309,0.036-0.607,0.071-0.883,0.095c-0.448,0.041-0.875,0.36-0.855,0.856C457.458,177.7,457.933,178.664,458.684,179.317z"></path><path style="fill:#E6E6E6;" d="M308.531,67.879c0.011,0.379,0.265,0.585,0.549,0.635c0.041,0.612,0.693,0.799,1.115,0.572c0.089,0.168,0.193,0.331,0.32,0.477c0.244,0.28,0.731,0.259,0.979,0c0.499-0.523,0.524-1.24,0.313-1.886c0.037-0.027,0.073-0.047,0.11-0.079c0.237-0.206,0.125-0.545-0.09-0.704c-0.221-0.162-0.465-0.204-0.702-0.172c-0.335-0.21-0.74-0.277-1.149-0.212c-0.081-0.112-0.157-0.226-0.262-0.331c-0.428-0.436-1.234-0.122-1.217,0.504C308.511,67.082,308.521,67.48,308.531,67.879z"></path><path style="fill:#E6E6E6;" d="M339.23,397.448c0.548,0.551,1.41,0.662,2.124,0.421c0.678-0.229,1.306-0.789,1.435-1.519c0.072-0.409-0.006-0.775-0.174-1.153c-0.084-0.188-0.227-0.354-0.356-0.507c-0.188-0.226-0.34-0.474-0.551-0.681c-0.768-0.751-1.936-0.592-2.552,0.251c-0.222,0.305-0.31,0.572-0.298,0.873C338.358,395.849,338.647,396.859,339.23,397.448z"></path><path style="fill:#E6E6E6;" d="M354.884,406.154c0.142,0.909,1.042,1.391,1.893,1.201c0.776-0.174,1.189-0.929,0.924-1.632c0.147-0.469,0.118-0.897-0.253-1.306c-0.315-0.349-0.885-0.371-1.299-0.223c-0.421,0.152-0.766,0.432-1.036,0.783C354.835,405.343,354.814,405.714,354.884,406.154z"></path><path style="fill:#E6E6E6;" d="M40.975,94.369c0.274-0.329,0.638-0.758,1.108-0.6c0.308,0.105,0.481,0.394,0.591,0.686c-0.277,0.005-0.55,0.141-0.668,0.412c-0.36,0.298-0.664,0.677-0.719,1.147c-0.073,0.623,0.492,1.113,0.884,1.51c0.016,0.016,0.036,0.024,0.053,0.039c0.036,0.031,0.072,0.06,0.112,0.084c0.026,0.013,0.052,0.023,0.079,0.033c0.044,0.02,0.089,0.036,0.137,0.045c0.006,0.001,0.014,0.003,0.02,0.003c0.162,0.031,0.335,0.013,0.499-0.083c1.335-0.774,1.231-2.56,0.472-3.712c-0.304-0.462-0.783-0.88-1.361-0.893c-0.639-0.017-1.159,0.664-1.436,1.152C40.666,94.332,40.866,94.498,40.975,94.369z"></path><path style="fill:#E6E6E6;" d="M191.598,73.588c-0.511,0.48-0.229,1.645,0.243,2.076c0.493,0.452,1.06,0.521,1.696,0.391c0.028-0.005,0.059-0.015,0.088-0.021c0.793,0.324,1.71,0.159,2.543-0.394c0.61-0.403,0.117-1.329-0.508-1.076c0.104-0.22,0.146-0.454,0.101-0.69c0.145-0.571,0.099-1.173-0.121-1.726c0.012,0.003,0.022,0.007,0.035,0.01c0.485,0.143,1.068-0.358,0.874-0.874c-0.352-0.928-1.245-1.199-2.169-1.029c-0.313,0.059-0.601,0.198-0.864,0.384c-0.446,0.011-0.919,0.076-1.299,0.087c-0.393,0.013-0.764,0.331-0.746,0.747c0.027,0.645,0.116,1.319,0.292,1.965C191.707,73.489,191.65,73.54,191.598,73.588z"></path></g></g></g></svg>