<svg xmlns="http://www.w3.org/2000/svg" width="500" height="500" version="1.1"><g id="a011"><g><path style="opacity:0.5;fill:#E6E6E6;stroke:#C8C8C8;stroke-linecap:round;stroke-linejoin:round;" d="M38.143,216.628c-0.899,0.003,22.214-3.964,27.759-2.432c-1.896,14.748-1.611,68.866,0.975,72.355c-11.68,0.828-16.651,0.213-16.73,0.229c0.289,7.507,0.653,14.965,1.092,22.347c-5.79,1.354-11.635,1.81-11.61,1.808c-0.282-0.1-7.423-54.524-1.529-92.108"></path><path style="opacity:0.5;fill:#E6E6E6;stroke:#C8C8C8;stroke-linecap:round;stroke-linejoin:round;" d="M91.807,356.208c-0.253-1.534-8.702-26.276-8.851-49.121c9.97-2.054,18.712-0.933,18.688-0.919c-0.292,0.422,6.978,46.065,9.375,47.888C102.117,357.008,91.783,356.206,91.807,356.208z"></path><path style="opacity:0.5;fill:#E6E6E6;stroke:#C8C8C8;stroke-linecap:round;stroke-linejoin:round;" d="M133.1,56.791c1.172-1.185,15.556-17.278,32.607-23.623c9.619,1.155,15.398,2.972,15.403,2.987c0.231-1.645-29.291,20.038-29.693,23.52C141.48,59.434,133.087,56.784,133.1,56.791z"></path><path style="opacity:0.5;fill:#E6E6E6;stroke:#C8C8C8;stroke-linecap:round;stroke-linejoin:round;" d="M108.649,434.549c-0.638-0.832-14.721-17.763-19.943-36.699c8.925-2.029,17.184-1.447,17.173-1.442c-0.279,1.09,17.089,35.013,19.834,35.146C118.44,434.169,108.647,434.545,108.649,434.549z"></path><path style="opacity:0.5;fill:#E6E6E6;stroke:#C8C8C8;stroke-linecap:round;stroke-linejoin:round;" d="M72.146,370.78c-0.033,0.049-3.754-12.733-3.058-15.797c0.582-2.99,10.177-1.522,10.246-1.534c1.74,5.714,3.546,11.337,5.417,16.842C80.424,370.491,76.221,370.655,72.146,370.78z"></path><path style="opacity:0.5;fill:#E6E6E6;stroke:#C8C8C8;stroke-linecap:round;stroke-linejoin:round;" d="M79.119,261.125c-0.03-0.008-2.393-14.482-1.251-18.086c1.019-3.611,11.331-3.684,11.407-3.683c1.15,6.318,2.363,12.67,3.638,19.033C88.158,259.325,83.554,260.238,79.119,261.125z"></path><path style="opacity:0.5;fill:#E6E6E6;stroke:#C8C8C8;stroke-linecap:round;stroke-linejoin:round;" d="M59.181,296.534c-0.031,0.002-2.544-13.877-1.668-17.26c0.741-3.366,9.74-2.825,9.829-2.828c1.219,6.122,2.502,12.247,3.852,18.356C67.014,295.416,63.006,295.995,59.181,296.534z"></path><path style="opacity:0.5;fill:#E6E6E6;stroke:#C8C8C8;stroke-linecap:round;stroke-linejoin:round;" d="M18.318,270.169c-0.005-0.016-0.488-12.197,0.001-15.073c0.342-2.879,4.594-1.995,4.722-1.988c0.347,5.427,0.72,10.883,1.124,16.363C21.956,269.733,20.002,269.966,18.318,270.169z"></path><path style="opacity:0.5;fill:#E6E6E6;stroke:#C8C8C8;stroke-linecap:round;stroke-linejoin:round;" d="M139.544,433.041c-0.011,0.133-6.863-8.856-6.769-11.46c0.042-2.442,10.801-2.579,10.83-2.588c3.031,4.252,6.081,8.261,9.137,11.992C148.28,431.69,143.882,432.373,139.544,433.041z"></path><path style="opacity:0.5;fill:#E6E6E6;stroke:#C8C8C8;stroke-linecap:round;stroke-linejoin:round;" d="M103.53,55.71c-0.03-0.127,8.306-8.703,11.708-10.021c3.348-1.471,10.907,1.266,10.928,1.262c-3.522,3.372-7.012,7.033-10.455,10.946C111.595,57.161,107.539,56.436,103.53,55.71z"></path><path style="opacity:0.5;fill:#E6E6E6;stroke:#C8C8C8;stroke-linecap:round;stroke-linejoin:round;" d="M133.507,453.689c-0.014,0.165-7.346-6.281-7.452-8.363c-0.145-1.899,10.008-2.175,10.021-2.169c3.212,3.186,6.447,6.066,9.691,8.603C141.651,452.382,137.568,453.021,133.507,453.689z"></path><path style="opacity:0.5;fill:#E6E6E6;stroke:#C8C8C8;stroke-linecap:round;stroke-linejoin:round;" d="M101.931,243.645c-0.78-4.952-4.041-53.643,8.482-89.61c16.373-2.519,27.369-3.138,27.31-3.146c-0.559-0.998-13.349,74.314-8.586,91.484C118.844,244.923,101.816,243.632,101.931,243.645z"></path><path style="opacity:0.5;fill:#E6E6E6;stroke:#C8C8C8;stroke-linecap:round;stroke-linejoin:round;" d="M144.71,332.525c-1.087-4.373-7.974-52.428,2.861-92.27c18.331-1.334,30.351-1.366,30.303-1.363c-0.466,0.361-9.514,79.066-3.858,93.778C163.304,334.713,144.644,332.539,144.71,332.525z"></path><path style="opacity:0.5;fill:#E6E6E6;stroke:#C8C8C8;stroke-linecap:round;stroke-linejoin:round;" d="M28.96,334.622c3.045,0.293,6.333,0.538,9.854,0.731c-0.467,0.292,10.188,46.509,13.929,51.835c-5.603,2.993-12.305,1.299-12.275,1.297C39.991,388.712,28.678,354.55,28.96,334.622z"></path><path style="opacity:0.5;fill:#E6E6E6;stroke:#C8C8C8;stroke-linecap:round;stroke-linejoin:round;" d="M47.357,391.394c-0.04,0.043-3.335-12.067-2.751-14.864c0.469-2.733,8.708-0.794,8.781-0.808c1.621,5.356,3.32,10.625,5.098,15.779C54.67,391.491,50.961,391.455,47.357,391.394z"></path><path style="opacity:0.5;fill:#E6E6E6;stroke:#C8C8C8;stroke-linecap:round;stroke-linejoin:round;" d="M40.25,153.605c0.004-1.628,5.072-22.752,6.4-25.962c-6.274,1.473-13.289,4.068-13.24,4.075c-0.137-0.029-4.964,21.504-4.656,25.015C34.813,155.354,40.282,153.613,40.25,153.605z"></path><path style="opacity:0.5;fill:#E6E6E6;stroke:#C8C8C8;stroke-linecap:round;stroke-linejoin:round;" d="M73.198,114.29c0.04,0.218,4.732-15.226,11.9-29.91c7.037-14.98,16.549-29.2,23.194-33.396c18.116-1.099,44.545,1.71,44.674,1.734c-0.111-1.505-20.383,31.377-22.032,36.252c-15.976-0.369-28.913-0.485-28.913-0.49c-4.277,8.304-8.387,17.101-12.304,26.236C84.02,114.967,73.131,114.267,73.198,114.29z"></path><path style="opacity:0.5;fill:#E6E6E6;stroke:#C8C8C8;stroke-linecap:round;stroke-linejoin:round;" d="M104.946,130.574c0.018,0.05,0.937-14.362,12.061-31.151c14.568-0.594,22.789,1.275,22.75,1.264c-3.695,9.745-7.274,20.105-10.708,30.893C121.111,132.156,104.834,130.534,104.946,130.574z"></path><path style="opacity:0.5;fill:#E6E6E6;stroke:#C8C8C8;stroke-linecap:round;stroke-linejoin:round;" d="M461.856,216.628c0.9,0.003-22.214-3.964-27.759-2.432c1.897,14.747,1.61,68.866-0.974,72.355c11.678,0.83,16.65,0.213,16.729,0.229c-0.288,7.507-0.652,14.965-1.093,22.349c5.791,1.354,11.636,1.808,11.61,1.806c0.282-0.098,7.422-54.524,1.529-92.108"></path><path style="opacity:0.5;fill:#E6E6E6;stroke:#C8C8C8;stroke-linecap:round;stroke-linejoin:round;" d="M408.193,356.208c0.253-1.534,8.7-26.276,8.85-49.121c-9.97-2.052-18.711-0.933-18.688-0.919c0.292,0.422-6.979,46.065-9.375,47.888C397.882,357.008,408.217,356.206,408.193,356.208z"></path><path style="opacity:0.5;fill:#E6E6E6;stroke:#C8C8C8;stroke-linecap:round;stroke-linejoin:round;" d="M366.899,56.791c-1.172-1.184-15.557-17.278-32.607-23.623c-9.618,1.155-15.397,2.972-15.401,2.987c-0.232-1.644,29.29,20.039,29.691,23.52C358.52,59.434,366.912,56.785,366.899,56.791z"></path><path style="opacity:0.5;fill:#E6E6E6;stroke:#C8C8C8;stroke-linecap:round;stroke-linejoin:round;" d="M391.351,434.549c0.639-0.832,14.722-17.763,19.943-36.699c-8.925-2.029-17.184-1.447-17.174-1.442c0.28,1.09-17.088,35.013-19.835,35.146C381.56,434.169,391.354,434.545,391.351,434.549z"></path><path style="opacity:0.5;fill:#E6E6E6;stroke:#C8C8C8;stroke-linecap:round;stroke-linejoin:round;" d="M427.854,370.78c0.034,0.049,3.756-12.733,3.059-15.797c-0.582-2.99-10.177-1.522-10.246-1.534c-1.739,5.714-3.545,11.337-5.417,16.842C419.575,370.491,423.779,370.655,427.854,370.78z"></path><path style="opacity:0.5;fill:#E6E6E6;stroke:#C8C8C8;stroke-linecap:round;stroke-linejoin:round;" d="M420.882,261.125c0.029-0.008,2.392-14.482,1.251-18.086c-1.02-3.609-11.332-3.684-11.407-3.683c-1.149,6.318-2.363,12.67-3.638,19.033C411.843,259.325,416.446,260.238,420.882,261.125z"></path><path style="opacity:0.5;fill:#E6E6E6;stroke:#C8C8C8;stroke-linecap:round;stroke-linejoin:round;" d="M440.819,296.534c0.031,0.004,2.543-13.877,1.668-17.26c-0.74-3.366-9.74-2.825-9.828-2.828c-1.219,6.122-2.503,12.247-3.854,18.356C432.986,295.416,436.994,295.995,440.819,296.534z"></path><path style="opacity:0.5;fill:#E6E6E6;stroke:#C8C8C8;stroke-linecap:round;stroke-linejoin:round;" d="M481.682,270.169c0.006-0.016,0.488-12.197-0.001-15.073c-0.342-2.879-4.595-1.997-4.722-1.988c-0.348,5.427-0.72,10.885-1.123,16.363C478.044,269.733,479.998,269.966,481.682,270.169z"></path><path style="opacity:0.5;fill:#E6E6E6;stroke:#C8C8C8;stroke-linecap:round;stroke-linejoin:round;" d="M360.456,433.041c0.01,0.133,6.862-8.856,6.768-11.46c-0.041-2.442-10.801-2.581-10.829-2.588c-3.031,4.252-6.081,8.261-9.137,11.992C351.72,431.69,356.118,432.373,360.456,433.041z"></path><path style="opacity:0.5;fill:#E6E6E6;stroke:#C8C8C8;stroke-linecap:round;stroke-linejoin:round;" d="M396.471,55.711c0.03-0.127-8.308-8.705-11.708-10.022c-3.347-1.471-10.906,1.266-10.928,1.262c3.521,3.372,7.012,7.033,10.454,10.946C388.404,57.161,392.462,56.436,396.471,55.711z"></path><path style="opacity:0.5;fill:#E6E6E6;stroke:#C8C8C8;stroke-linecap:round;stroke-linejoin:round;" d="M366.492,453.689c0.015,0.165,7.346-6.281,7.453-8.363c0.145-1.901-10.01-2.175-10.022-2.169c-3.212,3.186-6.446,6.066-9.691,8.603C358.349,452.382,362.432,453.021,366.492,453.689z"></path><path style="opacity:0.5;fill:#E6E6E6;stroke:#C8C8C8;stroke-linecap:round;stroke-linejoin:round;" d="M398.068,243.645c0.779-4.952,4.04-53.643-8.481-89.61c-16.373-2.519-27.369-3.138-27.311-3.146c0.56-0.997,13.35,74.313,8.587,91.484C381.156,244.923,398.184,243.632,398.068,243.645z"></path><path style="opacity:0.5;fill:#E6E6E6;stroke:#C8C8C8;stroke-linecap:round;stroke-linejoin:round;" d="M355.29,332.525c1.087-4.375,7.975-52.427-2.86-92.27c-18.331-1.334-30.352-1.364-30.303-1.363c0.466,0.361,9.514,79.066,3.857,93.778C336.694,334.713,355.355,332.541,355.29,332.525z"></path><path style="opacity:0.5;fill:#E6E6E6;stroke:#C8C8C8;stroke-linecap:round;stroke-linejoin:round;" d="M471.039,334.622c-3.044,0.293-6.333,0.538-9.854,0.731c0.468,0.292-10.188,46.511-13.928,51.835c5.602,2.995,12.305,1.299,12.274,1.297C460.009,388.712,471.321,354.55,471.039,334.622z"></path><path style="opacity:0.5;fill:#E6E6E6;stroke:#C8C8C8;stroke-linecap:round;stroke-linejoin:round;" d="M452.643,391.394c0.04,0.045,3.335-12.067,2.751-14.864c-0.469-2.733-8.708-0.794-8.781-0.808c-1.62,5.356-3.319,10.625-5.098,15.779C445.33,391.491,449.039,391.455,452.643,391.394z"></path><path style="opacity:0.5;fill:#E6E6E6;stroke:#C8C8C8;stroke-linecap:round;stroke-linejoin:round;" d="M459.751,153.605c-0.006-1.628-5.071-22.752-6.401-25.962c6.274,1.473,13.288,4.068,13.24,4.074c0.137-0.03,4.965,21.506,4.656,25.015C465.188,155.356,459.718,153.611,459.751,153.605z"></path><path style="opacity:0.5;fill:#E6E6E6;stroke:#C8C8C8;stroke-linecap:round;stroke-linejoin:round;" d="M426.803,114.29c-0.039,0.218-4.732-15.226-11.9-29.91c-7.036-14.98-16.549-29.2-23.193-33.396c-18.117-1.099-44.546,1.709-44.676,1.734c0.112-1.505,20.384,31.377,22.031,36.252c15.979-0.371,28.914-0.486,28.914-0.49c4.277,8.304,8.387,17.101,12.303,26.236C415.979,114.967,426.869,114.267,426.803,114.29z"></path><path style="opacity:0.5;fill:#E6E6E6;stroke:#C8C8C8;stroke-linecap:round;stroke-linejoin:round;" d="M395.054,130.574c-0.019,0.05-0.936-14.363-12.061-31.151c-14.568-0.594-22.789,1.276-22.75,1.264c3.695,9.745,7.274,20.105,10.707,30.893C378.889,132.156,395.165,130.534,395.054,130.574z"></path></g></g></svg>