<svg xmlns="http://www.w3.org/2000/svg" width="500" height="500" version="1.1"><g id="a012"><g><g><path style="fill:#E6E6E6;" d="M154.78,470.814c0,0-51.483-19.994-56.981-23.493s-12.996-11.496-14.495-17.994s-16.495-14.495-17.994-12.995c-1.5,1.499,0,12.995,4.999,22.492c4.998,9.498,28.491,15.496,28.491,15.496s14.995,21.492,23.492,27.49c8.498,5.998,41.486-1.5,49.484,1.499c7.998,2.999,21.493,10.497,23.492,2.999C197.266,478.812,163.277,474.313,154.78,470.814z M130.788,476.813c-6.998,0-14.496-13.495-14.496-13.495l30.99,11.496C147.283,474.813,137.786,476.813,130.788,476.813z"></path><path style="fill:#C8C8C8;" d="M77.555,442.572c0,0,4.874-0.374,4.874-7.497c3.749,5.623,14.995,15.37,17.994,16.869C95.174,451.57,81.805,446.821,77.555,442.572z"></path><path style="opacity:0.3;fill:#FFFFFF;" d="M69.806,422.829c-1.5,0,1,13.497,3.499,15.495c2.499,1.999,7.498,2.499,7.498,2.499s1.5-8.497-1-10.996C77.303,427.328,71.305,422.829,69.806,422.829z"></path></g><g><path style="fill:#E6E6E6;" d="M68.308,363.35c-1-2.999-11.996-7.997-14.495-18.993c-2.5-10.997-13.496-70.478-7.998-84.973s30.49-54.482,42.486-50.483c11.996,3.998,17.994,37.987,17.494,55.981s-2.999,50.982-5.498,63.979c-2.5,12.996,16.994,40.986,16.495,48.484c-12.496-17.494-16.495-13.496-16.495-13.496s10.496,32.49,21.493,39.487c10.997,6.998,30.991,7.997,36.488,15.495c5.498,7.497,9.997,15.494,11.496,16.494s41.486,22.993,46.485,28.991c-11.996,0.5-28.99-4.999-42.486-13.496s-29.49-27.49-33.489-23.492c-3.999,3.999,10.497,12.995,14.995,19.993s-14.995,2.999-19.494-2.499s-21.993-24.491-26.491-29.49c-4.499-4.998-27.492,4.998-33.989-15.495S68.308,363.35,68.308,363.35z"></path><path style="fill:#C8C8C8;" d="M95.549,411.083c0,0-2.624-10.871,1.5-15.37c4.124-4.498,11.621-2.624,10.872-3.749c-0.75-1.124-11.247-29.615-11.247-29.615s-20.993,5.998-23.242,13.121c0.75,13.87,4.873,26.241,9.372,29.99S95.549,411.083,95.549,411.083z"></path><path style="fill:#57383D;" d="M77.805,299.37c0.205-2.051,1.999-16.495,4.499-16.495c2.499,0,6.498,7.498,5.998,13.496c-0.5,5.998,0,47.984-5.998,53.482C79.305,332.858,77.305,304.368,77.805,299.37z"></path><path style="fill:#C8C8C8;" d="M62.185,265.255c-0.75,1.875-3.749,19.494-2.249,23.243c1.499,3.749,7.498,6.748,10.122,4.498c2.624-2.249,5.998-31.114,2.624-34.113S62.185,265.255,62.185,265.255z"></path><path style="fill:#57383D;" d="M61.311,275.877c0,0,2.499-18.993,7.997-20.993c5.499-1.999,5.998,30.49,0,31.49C63.31,287.373,61.311,275.877,61.311,275.877z"></path><path style="fill:#C8C8C8;" d="M86.177,255.134c0,0,0.375,21.368,3.374,22.867c2.999,1.5,8.997-7.122,8.997-9.372c0-2.249,0-12.745-2.624-17.994C91.425,250.26,86.177,255.134,86.177,255.134z"></path><path style="fill:#57383D;" d="M98.113,260.883c0,0-2.499-18.993-7.997-20.993c-5.499-2-5.998,30.49,0,31.489C96.114,272.379,98.113,260.883,98.113,260.883z"></path><path style="opacity:0.3;fill:#FFFFFF;" d="M54.311,322.362c0,0-3.999-16.995-2.499-23.992c1.5-6.998,4.499-4.998,4.999-2.499c0.5,2.499,6.998,20.493,6.498,26.491c-0.5,5.998,0,20.493-1.999,20.493S54.311,322.362,54.311,322.362z"></path><path style="opacity:0.3;fill:#FFFFFF;" d="M73.305,371.346c-2.95,0.737,0.5,24.492,6.498,30.49s32.489,9.997,24.492,6.998c-7.998-2.999-16.994-4.998-18.994-12.496C83.301,388.841,75.304,370.846,73.305,371.346z"></path><path style="opacity:0.3;fill:#FFFFFF;" d="M117.29,413.332c0,0,9.497,15.995,11.996,20.993c2.5,4.999,13.496,12.996,15.495,12.496s-5.499-10.996-7.498-12.496C135.284,432.826,117.29,413.332,117.29,413.332z"></path><path style="opacity:0.3;fill:#FFFFFF;" d="M132.285,416.331c0,0,15.495,2.5,18.494,6.498c2.999,3.999,11.996,10.997,11.996,10.997s-3.999-13.496-9.497-15.495C147.78,416.331,132.285,416.331,132.285,416.331z"></path><path style="opacity:0.3;fill:#FFFFFF;" d="M103.295,360.85c0,0-6.998-7.498-7.498-11.996c-0.5-4.499,0-13.496,0-13.496S104.794,353.852,103.295,360.85z"></path></g><g><path style="fill:#E6E6E6;" d="M410.986,108.2c1.615,2.718,13.422,5.264,18.202,15.479s28.167,65.999,25.874,81.332c-2.29,15.332-18.213,59.717-30.784,58.359s-25.657-33.295-28.994-50.983c-3.335-17.69-7.905-50.456-8.226-63.686c-0.318-13.231-25.316-36.438-26.422-43.871c15.928,14.439,18.985,9.682,18.985,9.682s-17.161-29.517-29.395-34.017c-12.232-4.5-31.981-1.228-38.948-7.385c-6.965-6.158-13.061-13.016-14.738-13.674s-45.426-13.649-51.584-18.448c11.616-3.038,29.39-1.277,44.383,4.157c14.993,5.434,34.659,20.595,37.717,15.837c3.058-4.757-13.02-10.467-18.902-16.349s14.016-6.118,19.579-1.701c5.565,4.416,26.697,19.257,32.155,23.186s25.801-10.727,36.507,7.917C407.1,92.676,410.986,108.2,410.986,108.2z"></path><path style="fill:#C8C8C8;" d="M427.316,168.537c0,0-7.123-7.872-6.748-19.494c0.375-11.621-7.498-20.243-6.373-22.493c1.125-2.249,15.745,8.623,17.994,14.995c2.249,6.373,10.496,26.242,5.998,29.616C433.688,174.535,427.316,168.537,427.316,168.537z"></path><path style="fill:#C8C8C8;" d="M310.354,68.819c0,0,4.124,5.248,10.122,5.998c5.998,0.75,23.992,0.375,27.741,2.624c-11.996-4.124-9.747-8.622-20.993-13.121s-15.37-2.999-18.369-5.998C306.23,59.822,305.855,65.445,310.354,68.819z"></path><path style="fill:#C8C8C8;" d="M386.454,137.797c-0.396,1.979-16.494-22.118-16.494-22.118s10.121,3.374,11.996,5.249C383.83,122.802,387.204,134.048,386.454,137.797z"></path><path style="fill:#57383D;" d="M415.306,172.736c0.236,2.047,1.554,16.542-0.89,17.074c-2.442,0.531-7.942-5.945-8.729-11.913c-0.786-5.967-10.198-46.888-5.506-53.535C406.724,140.331,414.732,167.745,415.306,172.736z"></path><path style="fill:#57383D;" d="M436.417,192.187c0,0,1.596,19.091-3.352,22.213c-4.948,3.123-12.342-28.519-6.693-30.77S436.417,192.187,436.417,192.187z"></path><path style="fill:#57383D;" d="M403.643,214.66c0,0,6.479,18.028,12.276,18.814c5.798,0.784-0.619-31.069-6.693-30.771C403.152,203.002,403.643,214.66,403.643,214.66z"></path><path style="opacity:0.3;fill:#FFFFFF;" d="M433.377,145.276c0,0,7.52,15.756,7.542,22.913c0.021,7.156-3.334,5.84-4.354,3.504c-1.019-2.335-11.192-18.538-11.979-24.505c-0.786-5.967-4.355-20.025-2.402-20.45C424.138,126.313,433.377,145.276,433.377,145.276z"></path><path style="opacity:0.3;fill:#FFFFFF;" d="M404.405,101.448c2.726-1.348-5.693-23.827-12.829-28.413c-7.136-4.586-33.872-2.863-25.42-1.632c8.452,1.231,17.668,1.272,21.215,8.173C390.919,86.478,402.559,102.362,404.405,101.448z"></path><path style="opacity:0.3;fill:#FFFFFF;" d="M352.501,69.77c0,0-12.679-13.611-16.184-17.964s-15.95-9.831-17.797-8.917c-1.848,0.914,7.71,9.577,9.982,10.617C330.774,54.546,352.501,69.77,352.501,69.77z"></path><path style="opacity:0.3;fill:#FFFFFF;" d="M337.211,70.026c0,0-15.672,0.851-19.451-2.419c-3.78-3.27-14.06-8.196-14.06-8.196s6.774,12.338,12.573,13.123C322.07,73.32,337.211,70.026,337.211,70.026z"></path><path style="opacity:0.3;fill:#FFFFFF;" d="M377.331,118.079c0,0,8.432,5.839,9.876,10.128c1.446,4.29,2.868,13.188,2.868,13.188S377.354,125.236,377.331,118.079z"></path></g><path style="fill:#E6E6E6;" d="M413.88,357.915c0-3.374,14.619-22.491,17.993-38.235s22.492-46.108,23.616-42.734c1.125,3.374-2.25,34.862-7.872,41.609s-4.498,21.367-8.996,29.239c-4.499,7.871-13.496,17.992-24.741,24.74c-11.246,6.748-22.491,11.245-25.865,8.996C384.641,379.282,413.88,357.915,413.88,357.915z"></path><path style="fill:#C8C8C8;" d="M433.688,325.985c0.687-0.891,5.624,5.623,7.873,2.25c-1.125,8.997-3.374,18.743-7.498,21.742c-4.873,8.622-18.369,22.493-24.367,22.118c-0.374-8.247,6.373-14.245,6.373-14.245S429.94,330.859,433.688,325.985z"></path></g></g></svg>