<svg xmlns="http://www.w3.org/2000/svg" width="500" height="500" version="1.1"><g id="a013"><g><path style="fill:#E6E6E6;" d="M139.843,138.741c0,0-7.653-2.317-12.391-3.477c-4.738-1.159,6.196-12.749,21.502-14.294c15.306-1.545,41.545-1.932,41.545-1.932s-43.368,3.864-44.096,8.5c-0.729,4.635,1.822,5.022,1.822,5.022s16.035,1.545,14.577,5.022c-1.457,3.478-21.137,6.954-28.425,6.954c-7.289,0-44.461,10.433-48.105,26.272c-3.645,15.84,1.458,15.84,0.364,18.158c-1.093,2.318-5.831,9.659-6.195,11.591c-0.365,1.932-4.009,8.886,2.915,15.454c6.924,6.568,21.866,11.59,24.782,16.226c2.915,4.637,3.28,6.955,4.737,7.728c1.458,0.772,41.545-2.706,42.274,13.135c-7.289-4.25-14.942-10.431-21.138-7.727c-6.195,2.705-12.026,5.023-13.12,5.409c-1.093,0.387-33.527,5.795-39.723-0.386c-6.195-6.182-8.018-10.431-8.018-10.431s-34.985-12.751-35.35-26.272c-0.364-13.523,21.137-28.204,21.137-28.204s-3.811-16.638,15.67-28.204C101.941,141.06,139.843,138.741,139.843,138.741z"></path><path style="fill:#E6E6E6;" d="M78.618,301.395c-2.551,0-23.323,7.727-27.697,15.452c-4.373,7.728,1.458,8.501,0.365,8.501c-1.094,0-14.577,3.863-13.12,16.226c1.458,12.363,13.849,22.409,13.849,22.409s-10.569,8.112-3.28,20.09c7.288,11.977,24.052,22.021,24.052,22.021s0.364,15.84,16.035,25.112c12.026,13.137,18.95,16.614,30.612,12.363c11.662-4.25,26.968-3.863,33.528-1.546c6.559,2.319,40.087-1.545,40.087,6.568c0,8.114-4.009,7.728-1.823,8.886c2.187,1.16,13.12-9.657,10.205-13.135c-2.916-3.478-33.165-13.523-47.742-13.909c-14.577-0.386-25.51-2.704-32.434-12.362c-6.925-9.659-22.959-22.022-28.426-22.022c-5.467,0-10.934-11.204-9.84-13.136c1.093-1.932,13.484-4.25,13.849-9.658c0.364-5.409-4.009-21.636-9.111-23.182c-1.822-7.341-4.008-16.999-7.288-17.771c-3.28-0.772-11.298-4.25-11.298-4.25s-4.212-4.323-5.102-9.272C62.583,310.666,78.618,301.395,78.618,301.395z"></path><path style="fill:#E6E6E6;" d="M399.528,296.746c2.552,0,23.323,7.728,27.696,15.454c4.374,7.727-1.457,8.5-0.364,8.5c1.094,0,14.577,3.863,13.12,16.227c-1.458,12.362-13.849,22.407-13.849,22.407s10.569,8.113,3.279,20.091c-7.288,11.976-24.053,22.021-24.053,22.021s-0.362,15.841-16.034,25.113c-12.026,13.136-18.949,16.612-30.612,12.362c-11.662-4.249-26.968-3.862-33.528-1.545c-6.56,2.318-40.087-1.546-40.087,6.568c0,8.112,4.009,7.726,1.822,8.886c-2.188,1.158-13.12-9.659-10.205-13.136c2.917-3.478,33.164-13.522,47.742-13.909c14.576-0.387,25.509-2.704,32.434-12.363c6.925-9.658,22.96-22.022,28.426-22.022c5.467,0,10.934-11.203,9.84-13.134c-1.093-1.933-13.484-4.251-13.848-9.66c-0.365-5.408,4.008-21.635,9.11-23.18c1.822-7.342,4.01-17.001,7.289-17.772c3.28-0.773,11.297-4.25,11.297-4.25s4.212-4.324,5.103-9.272C415.563,306.019,399.528,296.746,399.528,296.746z"></path><path style="fill:#E6E6E6;" d="M356.32,175.059c0,0,7.653-2.318,12.391-3.478c4.737-1.159-6.195-12.75-21.502-14.295c-15.306-1.545-41.545-1.931-41.545-1.931s43.367,3.863,44.097,8.499c0.729,4.636-1.823,5.022-1.823,5.022s-16.034,1.545-14.577,5.022c1.458,3.478,21.138,6.955,28.427,6.955s44.46,10.431,48.104,26.272c3.645,15.839-1.456,15.839-0.363,18.158c1.093,2.319,5.832,9.659,6.195,11.591c0.364,1.932,4.008,8.886-2.915,15.453c-6.925,6.568-21.867,11.591-24.781,16.228c-2.916,4.636-3.279,6.954-4.738,7.727c-1.458,0.773-41.546-2.704-42.274,13.136c7.288-4.25,14.942-10.432,21.137-7.728c6.196,2.704,12.026,5.023,13.119,5.41c1.095,0.385,33.528,5.795,39.725-0.387c6.194-6.182,8.019-10.432,8.019-10.432s34.983-12.75,35.349-26.271c0.365-13.522-21.138-28.204-21.138-28.204s3.813-16.637-15.67-28.203C394.222,177.376,356.32,175.059,356.32,175.059z"></path><path style="fill:#E6E6E6;" d="M210.542,98.562c0,0,46.647-3.09,57.58-0.386c10.934,2.705,16.399,5.022,22.96,6.954c6.56,1.932,20.044-1.159,24.415,1.159c4.375,2.319,13.122,11.591,13.851,15.841c0.728,4.25-8.382,6.954-14.578,6.954c-6.195,0-17.857,10.819-6.924,13.136s22.96-1.545,24.417-1.159c1.457,0.386,26.239,0,34.62-11.205c8.384-11.204-4.008-25.112-27.696-28.589c-23.689-3.477-31.706-3.091-40.452-7.34c-8.746-4.25-27.419-8.837-38.63-5.409C241.154,94.312,210.542,98.562,210.542,98.562z"></path></g></g></svg>