<svg xmlns="http://www.w3.org/2000/svg" width="500" height="500" version="1.1"><g id="a014"><g><g><circle style="fill:#73D9FA;" cx="441.8" cy="135.566" r="15.745"></circle><circle style="fill:#73D9FA;" cx="399.998" cy="239.789" r="6.54"></circle><circle style="fill:#FFFFFF;" cx="416.442" cy="191.8" r="4.268"></circle><circle style="fill:#FFFFFF;" cx="433.047" cy="226.854" r="4.268"></circle><circle style="fill:#73D9FA;" cx="112.018" cy="396.595" r="6.54"></circle><circle style="fill:#FFFFFF;" cx="123.848" cy="366.133" r="4.267"></circle><circle style="fill:#00A0C6;" cx="443.656" cy="137.219" r="8.149"></circle><ellipse transform="matrix(0.8649 -0.502 0.502 0.8649 -5.5786 236.8026)" style="fill:#FFFFFF;" cx="437.044" cy="128.763" rx="4.919" ry="3.537"></ellipse><circle style="fill:#73D9FA;" cx="452.461" cy="165.739" r="9.596"></circle><circle style="fill:#00A0C6;" cx="453.592" cy="166.747" r="4.966"></circle><ellipse transform="matrix(0.8649 -0.502 0.502 0.8649 -20.3704 247.5098)" style="fill:#FFFFFF;" cx="449.563" cy="161.593" rx="2.998" ry="2.156"></ellipse><circle style="fill:#73D9FA;" cx="47.676" cy="192.513" r="20.531"></circle><circle style="fill:#73D9FA;" cx="73.279" cy="324.814" r="6.539"></circle><circle style="fill:#FFFFFF;" cx="83.781" cy="275.185" r="4.267"></circle><circle style="fill:#FFFFFF;" cx="155.402" cy="308.613" r="4.267"></circle><circle style="fill:#FFFFFF;" cx="51.545" cy="296.759" r="4.267"></circle><circle style="fill:#00A0C6;" cx="44.492" cy="193.123" r="10.626"></circle><ellipse transform="matrix(-0.485 -0.8745 0.8745 -0.485 -79.012 329.6287)" style="fill:#FFFFFF;" cx="57.549" cy="188.078" rx="6.415" ry="4.613"></ellipse><circle style="fill:#73D9FA;" cx="66.229" cy="234.337" r="9.596"></circle><circle style="fill:#00A0C6;" cx="64.742" cy="234.622" r="4.965"></circle><ellipse transform="matrix(-0.4849 -0.8746 0.8746 -0.4849 -97.9456 406.8403)" style="fill:#FFFFFF;" cx="70.844" cy="232.266" rx="2.998" ry="2.155"></ellipse><circle style="fill:#73D9FA;" cx="117.146" cy="267.997" r="15.746"></circle><circle style="fill:#00A0C6;" cx="117.139" cy="270.482" r="8.149"></circle><ellipse transform="matrix(0.9492 0.3146 -0.3146 0.9492 87.8074 -24.265)" style="fill:#FFFFFF;" cx="119.085" cy="259.926" rx="4.919" ry="3.537"></ellipse><circle style="fill:#73D9FA;" cx="101.629" cy="295.984" r="9.596"></circle><circle style="fill:#00A0C6;" cx="101.625" cy="297.5" r="4.966"></circle><ellipse transform="matrix(0.9493 0.3144 -0.3144 0.9493 96.7151 -17.5638)" style="fill:#FFFFFF;" cx="102.811" cy="291.066" rx="2.998" ry="2.156"></ellipse></g><g><circle style="fill:#73D9FA;" cx="124.767" cy="86.674" r="15.746"></circle><circle style="fill:#73D9FA;" cx="94.613" cy="156.764" r="6.54"></circle><circle style="fill:#00A0C6;" cx="122.911" cy="88.327" r="8.149"></circle><ellipse transform="matrix(-0.8649 -0.502 0.502 -0.8649 201.4474 213.9668)" style="fill:#FFFFFF;" cx="129.522" cy="79.87" rx="4.919" ry="3.537"></ellipse></g><circle style="fill:#73D9FA;" cx="414.428" cy="260.507" r="20.532"></circle><circle style="fill:#73D9FA;" cx="388.824" cy="392.809" r="6.539"></circle><circle style="fill:#FFFFFF;" cx="378.323" cy="343.179" r="4.267"></circle><circle style="fill:#FFFFFF;" cx="410.559" cy="364.753" r="4.268"></circle><circle style="fill:#00A0C6;" cx="417.612" cy="261.117" r="10.626"></circle><ellipse transform="matrix(0.485 -0.8745 0.8745 0.485 -15.5831 485.6875)" style="fill:#FFFFFF;" cx="404.555" cy="256.074" rx="6.415" ry="4.611"></ellipse><circle style="fill:#73D9FA;" cx="395.875" cy="302.333" r="9.596"></circle><circle style="fill:#00A0C6;" cx="397.362" cy="302.617" r="4.965"></circle><ellipse transform="matrix(0.485 -0.8745 0.8745 0.485 -61.0779 496.8068)" style="fill:#FFFFFF;" cx="391.26" cy="300.26" rx="2.998" ry="2.155"></ellipse><circle style="fill:#73D9FA;" cx="344.958" cy="335.991" r="15.746"></circle><circle style="fill:#00A0C6;" cx="344.964" cy="338.477" r="8.149"></circle><ellipse transform="matrix(-0.9492 0.3146 -0.3146 -0.9492 771.7743 531.2952)" style="fill:#FFFFFF;" cx="343.018" cy="327.92" rx="4.919" ry="3.536"></ellipse><path style="fill:#73D9FA;" d="M354.111,371.161c3.968,3.514,10.033,3.147,13.548-0.819c3.513-3.967,3.145-10.032-0.822-13.546c-3.965-3.514-10.031-3.146-13.545,0.82C349.777,361.583,350.146,367.648,354.111,371.161z"></path><circle style="fill:#00A0C6;" cx="360.479" cy="365.493" r="4.965"></circle><ellipse transform="matrix(-0.9493 0.3145 -0.3145 -0.9493 813.2704 586.9181)" style="fill:#FFFFFF;" cx="359.292" cy="359.06" rx="2.998" ry="2.157"></ellipse><g><circle style="fill:#73D9FA;" cx="378.849" cy="153.746" r="15.746"></circle><circle style="fill:#73D9FA;" cx="367.49" cy="224.759" r="6.54"></circle><circle style="fill:#00A0C6;" cx="380.705" cy="155.399" r="8.148"></circle><ellipse transform="matrix(0.8649 -0.502 0.502 0.8649 -23.2121 207.6576)" style="fill:#FFFFFF;" cx="374.094" cy="146.943" rx="4.919" ry="3.537"></ellipse></g></g></g></svg>