<svg xmlns="http://www.w3.org/2000/svg" width="500" height="500" version="1.1"><g id="a015"><g><path style="opacity:0.8;fill:none;stroke:#C8C8C8;stroke-linecap:round;stroke-linejoin:round;" d="M283.973,393.219c-6.139-5.905-9.629-13.826-13.947-26.063c1.919,4.692,5.968,8.167,11.561,10.71c-8.011-8.262-9.715-19.228-7.85-29.572c-1.104,7.433,3.691,9.455,3.691,9.455s-1.13-10.157,4.379-13.381s24.353-4.403,35.926,5.211c4.669,3.88,7.164,7.604,8.494,10.696c-0.677-0.647-1.404-1.271-2.172-1.857c-1.206-2.015-2.611-3.734-4.031-4.872c-5.353-4.293-18.091-7.352-26.87,1.093c-8.777,8.442-6.448,28.904,2.232,42.647c8.682,13.743,23.415,21.276,34.606,18.917c-6.991-1.317-14.828-5.49-14.828-5.49s11.525,0.563,20.231-8.025c8.708-8.59,10.041-23.756,10.041-23.756s-9.111,18.949-21.2,23.194c-12.09,4.247-26.521-10.873-28.563-17.683c-0.972-3.24-0.409-9.074,0.904-14.602c0.04,0.214,0.088,0.431,0.14,0.647c-1.009,3.13-1.452,5.748-1.11,6.728c1.188,3.404,5.976,7.437,5.976,7.437s-2.352,1.509-4.527,0.39c3.973,3.692,16.351,6.383,25.37,2.54c7.306-3.112,15.045-10.962,18.939-18.861c10.746-18.771,7.673-41.167-1.022-51.008c-10.093-11.424-23.586,1.128-27.173,8.68c13.709-12.112,22.275-7.932,25.718-2.346c-14.849-10.381-20.244,9.12-20.244,9.12s11.205-16.883,20.449-1.235c8.146,13.79-4.145,35.682-7.015,39.735c0.655-4.094,1.18-13.407-3.717-19.637c-2.597-3.305-6.051-5.55-9.156-7.062c-13.345-9.944-43.923-19.519-53.008-1.356C256.721,362.559,274.72,385.017,283.973,393.219z M303.275,357.874c-1.121,0.303-2.117,0.803-2.93,1.504c0.745-1.321,1.518-2.314,2.274-2.811c0.727-0.478,1.705-0.724,2.835-0.786C304.703,356.347,303.975,357.057,303.275,357.874z"></path><g><path style="opacity:0.5;fill:#6E6E6E;" d="M345.437,378.932c0,0-9.111,18.949-21.2,23.194c-12.09,4.247-26.521-10.873-28.563-17.683c-2.041-6.811,2.683-25.077,6.947-27.876c4.264-2.801,17.054,2.229,19.85,6.858c2.796,4.629,2.511,4.041,2.796,4.629c0.286,0.587-3.78,12-11.213,10.897c0,0,6.028,2.692,11.271-2.941c5.244-5.637,0.054-18.173-5.301-22.465c-5.353-4.293-18.091-7.352-26.87,1.093c-8.777,8.442-6.448,28.904,2.232,42.647c8.682,13.743,23.415,21.276,34.606,18.917c-6.991-1.317-14.828-5.49-14.828-5.49s11.525,0.563,20.231-8.025C344.104,394.098,345.437,378.932,345.437,378.932z"></path><path style="opacity:0.5;fill:#6E6E6E;" d="M283.973,393.219c-6.139-5.905-9.629-13.826-13.947-26.063c1.919,4.692,5.968,8.167,11.561,10.71c-8.011-8.262-9.715-19.228-7.85-29.572c-1.104,7.433,3.691,9.455,3.691,9.455s-1.13-10.157,4.379-13.381s24.353-4.403,35.926,5.211c11.572,9.615,9.798,18.281,10.012,18.721c0,0,1.07,8.916-9.115,12.601c-6.618,2.394-12.481-1.248-16.752-5.362c-0.892-2.944-2.86-10.681,0.101-13.579c3.429-3.354,11.857-3.181,15.574-0.005c-4.992-4.704-14.165-6.177-17.814-1.989c-2.484,2.851-3.038,9.646-3.241,9.38c1.557,11.038,20.713,28.034,38.594,8.087c17.881-19.949,15.346-48.295,5.252-59.718c-10.093-11.424-23.586,1.128-27.173,8.68c13.709-12.112,22.275-7.932,25.718-2.346c-14.849-10.381-20.244,9.12-20.244,9.12s11.205-16.883,20.449-1.235c9.243,15.647-7.83,41.734-7.595,40.35c0.233-1.384,1.631-15.674-10.663-26.026c-12.295-10.352-45.16-21.587-54.638-2.643C256.721,362.559,274.72,385.017,283.973,393.219z"></path><path style="fill:#FFFFFF;" d="M340.892,387.881c0,0-11.483,17.401-21.246,16.331c-11.405-1.251-17.146-5.655-17.146-5.655s10.421,13.181,20.327,8.907C337.369,401.19,340.892,387.881,340.892,387.881z"></path><path style="fill:#FFFFFF;" d="M289.527,334.889c0,0-12.839-2.554-18.362,2.533c-5.523,5.085-4.259,21.663-4.259,21.663s-0.474-13.596,7.771-19.374C282.134,334.485,289.527,334.889,289.527,334.889z"></path><path style="fill:#FFFFFF;" d="M323.997,315.324c0,0,6.185-3.751,11.265-0.681s10.45,14.91,10.45,14.91S339.92,315.177,323.997,315.324z"></path><path style="opacity:0.5;fill:#505050;" d="M295.606,377.217c1.188,3.404,5.976,7.437,5.976,7.437s-2.352,1.509-4.527,0.39c3.973,3.692,16.351,6.383,25.37,2.54s18.701-14.902,20.994-24.365c-7.139,5.469-12.24,11.397-11.792,10.453c0.448-0.943,2.925-13.763-3.267-21.64c-6.189-7.877-17.263-9.751-16.823-9.965c0.44-0.214,13.662,12.047,15.339,18.853c-5.484-5.679-15.073-9.726-21.253-5.269C299.443,360.108,294.686,374.579,295.606,377.217z"></path><path style="opacity:0.8;fill:#6E6E6E;" d="M329.15,364.924c-0.298-1.322-0.747-2.631-1.365-3.901c-0.943-1.939-2.19-3.632-3.656-5.048c2.293-0.146,4.506-0.151,5.37,0.259c-6.234-7.49-12.986-6.078-15.587-5.144c-3.332-0.421-6.817,0.083-10.062,1.661c-5.759,2.801-9.339,8.284-9.974,14.216l-0.198-0.11c0.091,13.751,4.564,16.375,11.259,21.915c-0.5-1.028-0.861-2.368-1.124-3.838c4.78,2.335,10.546,2.53,15.7,0.023c1.163-0.565,2.234-1.242,3.213-2.008c0.443,2.311,0.586,5.179-0.205,8.268C333.045,380.982,330.725,369.547,329.15,364.924z"></path><g><circle style="fill:#FFFFFF;" cx="311.682" cy="368.854" r="5.482"></circle><path style="fill:#FFFFFF;" d="M321.755,358.399c0,0-4.116-9.082-19.44-3.284C313.286,353.322,321.755,358.399,321.755,358.399z"></path><path style="fill:#FFFFFF;" d="M318.629,380.9c0,0-8.29,6.645-17.841-2.306C306.013,386.051,313.6,386.331,318.629,380.9z"></path></g><path style="fill:#505050;" d="M308.655,418.597c0,0-12.164-2.25-23.019-17.476C286.934,409.382,297.463,420.957,308.655,418.597z"></path></g></g></g></svg>