<svg xmlns="http://www.w3.org/2000/svg" width="500" height="500" version="1.1"><g id="a9018"><g><path style="fill:#EB29F0;" d="M167.693,279.528c8.62-0.727,16.198,5.673,16.923,14.296c0.728,8.616-5.668,16.2-14.292,16.921c-8.62,0.731-16.196-5.669-16.925-14.292C152.673,287.833,159.074,280.26,167.693,279.528z"></path><path style="fill:#1E1D22;" d="M159.02,348.729c0,0,1.914,53.118-5.916,69.246c11.757-1.294,32.29-9.009,32.29-9.009l-2.403-1.706l-25.559,7.159C157.432,414.419,162.922,367.196,159.02,348.729z"></path><g><circle style="fill:#EB29F0;" cx="191.289" cy="399.599" r="19.927"></circle><path style="fill:#1E1D22;" d="M191.89,414.028c0,0,0.669,8.605,4.619,11.635c-2.476,2.536-21.728,8.975-21.728,8.975c0.093,2.099,1.895,3.378,1.895,3.378c0.723-1.973,16.552-6.776,22.063-11.673c-5.717-7.221-4.618-11.636-5.011-13.946C192.869,412.014,191.89,414.028,191.89,414.028z"></path><path style="fill:#1E1D22;" d="M198.718,391.996c0,0,5.931-7.084,7.117-10.986c-1.212-4.021-2.554-8.814-1.482-8.731c1.071,0.083,6.218,2.381,6.218,2.381s4.249-10.764,4.415-12.905c2.441,0.379,3.6,0.975,3.6,0.975s-5.996,14.49-7.536,14.754c-2.704-1.92-5.233-2.81-5.233-2.81s1.604,6.332,1.352,7.961c-3.542,4.037-6.561,11.156-6.561,11.156L198.718,391.996z"></path><g><path style="fill:#1E1D22;" d="M184.293,394.183c0,0-12.682-15.551-16.34-21.534c-2.995,1.037-3.121,1.853-3.121,1.853S176.519,387.31,184.293,394.183z"></path><path style="fill:#1E1D22;" d="M172.57,370.279c0,0-7.689,6.062-13.083,6.977c5.941-3.915,13.162-9.634,13.287-10.448c0.126-0.813-1.168-3.763-0.31-3.381c0.857,0.382,3.687,1.487,3.687,1.487l-1.695,5.573l5.838,18.825l-1.289-1.367L172.57,370.279z"></path></g><circle style="fill:#1E1D22;" cx="191.289" cy="399.599" r="16.15"></circle><circle style="fill:#BFCECF;" cx="191.062" cy="407.343" r="0.564"></circle><path style="fill:#BFCECF;" d="M186.485,399.842c-0.092-0.543-0.607-0.91-1.151-0.817c-0.545,0.091-0.909,0.607-0.816,1.15c0.092,0.544,0.607,0.911,1.15,0.818C186.212,400.898,186.578,400.384,186.485,399.842z"></path><circle style="fill:#BFCECF;" cx="199.65" cy="398.529" r="0.607"></circle></g><g><path style="fill:#EB29F0;" d="M136.354,324.626c7.399-0.624,13.902,4.868,14.525,12.271c0.624,7.394-4.865,13.902-12.266,14.521c-7.398,0.626-13.902-4.865-14.527-12.267C123.462,331.752,128.955,325.25,136.354,324.626z"></path><path style="fill:#1E1D22;" d="M127.956,340.06c0,0-5.736,1.012-8.38-1.058c-1.238,2.045-2.202,15.709-2.202,15.709c-1.387,0.292-2.525-0.669-2.525-0.669c1.166-0.804,1.637-11.954,3.907-16.377c5.68,2.515,8.378,1.052,9.954,0.922C129.105,339.081,127.956,340.06,127.956,340.06z"></path><path style="fill:#1E1D22;" d="M141.2,331.89c0,0,3.627-5.068,5.975-6.501c2.833,0.112,6.189,0.184,5.957-0.5c-0.236-0.689-2.605-3.662-2.605-3.662s16.343-11.93,17.715-12.397c-0.658-1.534-1.241-2.188-1.241-2.188s-18.487,13.697-18.399,14.749c1.711,1.441,2.717,2.945,2.717,2.945s-4.407,0.017-5.428,0.457c-2.04,2.996-6.181,6.165-6.181,6.165L141.2,331.89z"></path><g><path style="fill:#1E1D22;" d="M142.201,341.684c0,0,12.295,5.665,16.819,7.045c-0.173,2.133-0.682,2.351-0.682,2.351S147.999,345.602,142.201,341.684z"></path></g><circle style="fill:#1E1D22;" cx="137.483" cy="338.024" r="10.896"></circle><path style="fill:#BFCECF;" d="M132.43,339.095c0.209-0.016,0.394,0.14,0.411,0.349c0.018,0.21-0.138,0.393-0.346,0.411c-0.213,0.018-0.396-0.136-0.412-0.346C132.065,339.298,132.218,339.114,132.43,339.095z"></path><path style="fill:#BFCECF;" d="M138.134,341.2c0.369-0.03,0.695,0.246,0.724,0.614c0.033,0.374-0.241,0.697-0.61,0.731c-0.37,0.028-0.7-0.247-0.729-0.614C137.487,341.561,137.764,341.233,138.134,341.2z"></path><path style="fill:#BFCECF;" d="M136.735,331.971c0.228-0.017,0.428,0.15,0.445,0.375c0.021,0.225-0.149,0.424-0.373,0.444c-0.226,0.019-0.423-0.148-0.442-0.375C136.347,332.192,136.511,331.989,136.735,331.971z"></path></g><g><path style="fill:#1E1D22;" d="M167.943,282.489c6.986-0.591,13.126,4.596,13.716,11.581c0.589,6.99-4.597,13.13-11.582,13.722c-6.987,0.588-13.13-4.602-13.718-11.587C155.768,289.218,160.957,283.077,167.943,282.489z"></path><path style="fill:#BFCECF;" d="M163.123,296.39c0.243-0.02,0.458,0.161,0.478,0.404c0.021,0.245-0.161,0.456-0.404,0.481c-0.247,0.017-0.459-0.161-0.479-0.405C162.698,296.626,162.876,296.41,163.123,296.39z"></path><path style="fill:#BFCECF;" d="M169.769,298.841c0.429-0.035,0.81,0.287,0.843,0.716c0.037,0.435-0.281,0.814-0.711,0.851c-0.432,0.036-0.816-0.286-0.85-0.715C169.013,299.258,169.335,298.88,169.769,298.841z"></path><path style="fill:#BFCECF;" d="M168.139,288.09c0.266-0.02,0.499,0.174,0.518,0.435c0.023,0.261-0.173,0.495-0.436,0.515c-0.26,0.025-0.492-0.172-0.514-0.435C167.685,288.344,167.878,288.111,168.139,288.09z"></path></g><g><path style="fill:#1E1D22;" d="M165.945,286.146c0,0-12.817-9.094-14.549-15.143c3.411-4.809,5.451-9.382,5.451-9.382l8.414,1.83c0.557-5.026,4.542-13.716,4.542-13.716s-23.887-52.489-25.295-64.931c2.623-1.153,2.623-1.153,2.623-1.153s15.804,51.574,25.327,66.16c-0.088,7.596-0.065,6.925-0.399,18.385l-14.287-3.736c0,0-0.212,5.496,0.137,7.55c5.156,5.468,14.55,15.145,14.55,15.145L165.945,286.146z"></path><path style="fill:#1E1D22;" d="M144.851,185.273c0,0-4.468,9.478-5.572,12.308c6.488,7.087,15.631,14.254,15.631,14.254l-12.851-14.99l5.583-9.139L144.851,185.273z"></path></g><path style="fill:#1E1D22;" d="M161.281,291.872c0,0-28.92-8.477-39.786-14.381c4.664-5.729,6.705-10.3,6.705-10.3s-35.34-17.252-38.429-18.84c0.814,4.794,5.84,5.349,5.84,5.349l27.912,14.99c0,0-5.907,10.864-7.96,11.215C122.425,282.966,149.743,290.309,161.281,291.872z"></path></g></g></svg>