<svg xmlns="http://www.w3.org/2000/svg" width="500" height="500" version="1.1"><g id="a002_1_"><g><g><path style="fill:#FF890A;" d="M134.404,322.725c0,0-1.729-1.306-3.286-6.962c-1.557-5.657-0.173-17.188,3.632-23.28c-0.864,6.31,2.075,19.147,2.594,19.364c0.519,0.218,3.459-0.436,5.534,0.218c0.692-0.87,0.519-2.61,1.73-1.959c1.21,0.654,2.94,3.264,2.94,3.264s3.459-10.008,8.301-13.706c6.572-4.353,14.702-9.574,14.702-9.574l-2.94,4.787l2.421,1.74c0,0-11.069,4.788-11.934,6.963c-0.864,2.176,0,9.573,0.691,10.227c0.346-3.7,2.769-4.57,2.769-4.57l-0.174,8.486c0,0,2.595-3.916,6.227-5.005c3.63-1.089,10.375-0.217,15.738,5.005c4.497,6.526,4.149,8.268,4.149,8.268s5.536-0.653,7.091,1.522c0.865,1.958-2.767,2.175-2.767,2.175s5.881,1.307,7.957,2.611c2.075,1.306,2.94,2.176,2.94,2.176s16.428,0.437,25.768,0.219c-9.684,7.832-33.206,4.133-30.266,6.31c2.94,2.174,10.031,7.396,18.851,2.392c-3.631,3.265-8.646,5.441-7.783,5.223c0.866-0.218,13.491,1.959,18.333,1.088c-2.076,1.305-21.964,5.439-36.319,1.305c-6.572-3.263-12.106-6.962-16.084-6.962c1.558,1.306,7.782,10.227,9.166,10.443c-10.03,1.522-17.121-4.133-22.31-7.178c-5.188-3.049-8.3-8.704-8.819-8.704C152.735,338.608,138.036,339.26,134.404,322.725z"></path><path style="fill:#FDBC00;" d="M133.155,301.594c0,0-3.694,10.623,2.64,21.245c-2.112,0.662,4.839,11.62,17.46,15.77c2.592,2.155,8.398,12.114,18.953,13.441c-7.388-8.631-13.193-18.59-13.193-18.59s-16.36-5.975-17.416-9.294c-1.055-3.319-3.166-11.95-3.166-11.95S133.683,302.921,133.155,301.594z"></path><ellipse style="fill:#FDBC00;" cx="163.5" cy="331.137" rx="7.653" ry="10.955"></ellipse></g><path style="fill:#FF890A;" d="M226.506,417.863c-2.854,0.325-3.891,0-5.707,2.284c-3.373-1.306-7.263-6.527-10.377-7.832c0.519-2.612,11.674-1.307,13.75,0.652c0-0.979-4.93-5.221-8.042-6.201c1.037-2.937,14.787,1.632,19.197,4.242c4.41,2.611,10.377,6.854,15.046,9.791c4.67,2.938,8.82,2.284,9.599,4.242c0.777,1.959-1.816,2.939-1.816,2.939s2.853,0,3.632,2.936c6.745-1.632,21.791-12.729,23.606-13.706c0,2.937-2.335,8.159-3.892,9.463c-1.555,1.308-7.521,3.591-12.711,8.16c-5.188,4.568-16.861,5.548-22.311,8.484c-5.447,2.937-11.673,6.854-16.083,6.201c-4.41-0.652-8.562-4.243-10.118-5.221c-1.557-0.98-11.674,2.284-14.009,0.651c-2.334-1.632-1.816-5.548-3.113-5.874c-1.296-0.326-7.264,0.326-6.745-1.306c0.519-1.631,5.967-2.61,5.967-2.61l-2.076-3.264c0,0,12.971,0,19.198,2.938c4.15-3.591,7.263-6.528,14.787-7.507C228.841,425.696,226.765,423.737,226.506,417.863z"></path><path style="fill:#FF890A;" d="M396.01,97.598c-3.167-5.311-8.444,1.992-10.027,4.647c-1.583,2.656,0.528,7.304,4.222,9.958c3.693,2.656,6.332,0,6.332,0S399.177,102.909,396.01,97.598z"></path><path style="fill:#FF890A;" d="M386.511,75.688c-1.056-6.639-8.972,0.665-13.194,1.993c-4.222,1.328-8.971,8.629-7.915,13.941c1.055,5.312,4.221,8.631,6.332,9.295c2.112,0.665,8.971-2.655,11.083-3.983C382.816,96.934,387.565,82.328,386.511,75.688z"></path><path style="fill:#FF890A;" d="M105.314,103.838c0,0,3.256-9.729,2.442-14.85c-0.814-5.121-6.92,0.512-10.176,1.537c-3.256,1.023-6.919,6.656-6.104,10.752c0.813,4.097,3.255,6.657,4.884,7.169C97.597,108.836,105.314,103.838,105.314,103.838z"></path><g><path style="fill:#FF890A;" d="M119.179,91.937c0,0-0.215-18.385,2.766-29.436c2.98-11.05,5.621-17.962,5.621-17.962s2.904-17.482,3.736-12.893c0.832,4.591,0.886,9.188,0.886,9.188s3.077-2.778,4.302,2.271c1.226,5.048,0.589,17.003,0.589,17.003c-1.81,11.502,3.283,14.687-2.084,21.156C129.626,87.735,119.254,98.372,119.179,91.937z"></path><path style="fill:#FDBC00;" d="M132.521,69.333c0.072,6.092-1.931,13.514-4.471,16.576c-2.541,3.062-4.659,0.606-4.73-5.487c-0.071-6.092,1.931-13.512,4.471-16.574C130.332,60.785,132.45,63.24,132.521,69.333z"></path></g><g><path style="fill:#FF890A;" d="M444.271,363.055c0,0,1.729-1.306,3.286-6.961c1.557-5.659,0.172-17.189-3.632-23.281c0.864,6.31-2.075,19.147-2.594,19.364c-0.52,0.218-3.459-0.437-5.534,0.218c-0.693-0.871-0.519-2.611-1.73-1.96c-1.21,0.654-2.939,3.266-2.939,3.266s-3.459-10.01-8.302-13.707c-6.572-4.354-14.701-9.573-14.701-9.573l2.941,4.785l-2.422,1.74c0,0,11.068,4.788,11.934,6.964c0.864,2.175,0,9.574-0.692,10.226c-0.346-3.7-2.768-4.569-2.768-4.569l0.174,8.485c0,0-2.595-3.916-6.226-5.004c-3.632-1.09-10.376-0.217-15.739,5.004c-4.496,6.528-4.15,8.268-4.15,8.268s-5.534-0.652-7.091,1.523c-0.864,1.958,2.767,2.175,2.767,2.175s-5.88,1.307-7.955,2.611c-2.075,1.306-2.94,2.175-2.94,2.175s-16.429,0.438-25.768,0.22c9.684,7.831,33.205,4.133,30.266,6.309c-2.941,2.176-10.031,7.397-18.852,2.393c3.631,3.264,8.646,5.44,7.782,5.223c-0.865-0.218-13.49,1.958-18.332,1.088c2.075,1.306,21.964,5.439,36.318,1.306c6.572-3.265,12.105-6.964,16.084-6.964c-1.557,1.306-7.781,10.227-9.165,10.443c10.03,1.522,17.121-4.133,22.309-7.178c5.189-3.048,8.302-8.703,8.821-8.703S440.64,379.591,444.271,363.055z"></path><path style="fill:#FDBC00;" d="M445.521,341.923c0,0,3.693,10.624-2.64,21.245c2.111,0.663-4.841,11.622-17.46,15.771c-2.593,2.155-8.398,12.114-18.953,13.441c7.389-8.631,13.192-18.59,13.192-18.59s16.36-5.976,17.416-9.294c1.057-3.32,3.166-11.95,3.166-11.95S444.992,343.251,445.521,341.923z"></path><ellipse style="fill:#FDBC00;" cx="415.175" cy="371.467" rx="7.653" ry="10.954"></ellipse><ellipse style="fill:#FFFFFF;" cx="410.653" cy="377.745" rx="5.014" ry="6.306"></ellipse></g><g><path style="fill:#FF890A;" d="M91.527,395.471c0,0-1.728-1.306-3.285-6.962c-1.557-5.657-0.173-17.188,3.632-23.28c-0.865,6.31,2.075,19.147,2.594,19.365c0.52,0.218,3.459-0.437,5.535,0.218c0.692-0.871,0.519-2.611,1.729-1.96c1.211,0.654,2.94,3.266,2.94,3.266s3.458-10.01,8.301-13.707c6.572-4.354,14.701-9.574,14.701-9.574l-2.94,4.786l2.421,1.74c0,0-11.068,4.788-11.934,6.963c-0.864,2.176,0,9.575,0.691,10.227c0.346-3.7,2.768-4.569,2.768-4.569l-0.173,8.485c0,0,2.594-3.916,6.226-5.005c3.631-1.089,10.376-0.217,15.738,5.005c4.497,6.527,4.15,8.268,4.15,8.268s5.535-0.653,7.091,1.522c0.865,1.959-2.767,2.176-2.767,2.176s5.88,1.307,7.956,2.611c2.076,1.306,2.94,2.175,2.94,2.175s16.429,0.438,25.769,0.219c-9.685,7.832-33.206,4.133-30.266,6.31c2.94,2.176,10.031,7.396,18.852,2.393c-3.632,3.264-8.648,5.44-7.783,5.223c0.865-0.219,13.491,1.958,18.333,1.087c-2.075,1.305-21.964,5.439-36.319,1.305c-6.572-3.263-12.106-6.962-16.084-6.962c1.557,1.306,7.782,10.227,9.166,10.443c-10.031,1.522-17.122-4.133-22.31-7.178c-5.188-3.049-8.302-8.704-8.82-8.704S95.16,412.007,91.527,395.471z"></path><path style="fill:#FDBC00;" d="M90.279,374.34c0,0-3.694,10.624,2.639,21.245c-2.111,0.663,4.841,11.622,17.461,15.77c2.593,2.156,8.398,12.115,18.953,13.442c-7.388-8.631-13.194-18.59-13.194-18.59s-16.359-5.976-17.415-9.294c-1.056-3.32-3.167-11.95-3.167-11.95S90.808,375.667,90.279,374.34z"></path><ellipse style="fill:#FDBC00;" cx="120.624" cy="403.884" rx="7.652" ry="10.954"></ellipse><ellipse style="fill:#FFFFFF;" cx="125.146" cy="410.161" rx="5.013" ry="6.307"></ellipse></g></g></g></svg>