<svg xmlns="http://www.w3.org/2000/svg" width="500" height="500" version="1.1"><g id="a003_1_"><g><path style="fill:#47C2E3;" d="M386.956,449.665c0,0,21.611-25.283,24.592-53.631c-2.237-24.517,2.979-31.411,6.706-38.308c3.726-6.896,8.941-11.492,10.432-3.064c1.492,8.429-2.979,21.453-2.979,21.453c-0.746,6.895,2.235,13.791-1.491,20.686c-3.726,6.895-13.413,41.371-34.276,56.695"></path><g><path style="fill:#47C2E3;" d="M172.414,464.729c-1.194-3.365,64.978-1.495,88.225-3.365c10.73-2.243,39.347-10.84,44.711-9.719c5.365,1.122-5.962,6.355-5.962,6.355s22.057-7.102,25.634-7.849c3.576-0.75-14.307,7.849-17.288,7.849c22.057-4.486,28.614-10.092,30.998-12.335c2.385-2.244,0.596-5.233,0.596-5.233s5.364-5.232,11.923-2.989c6.558,2.242,7.749,8.223,2.385,9.716c-5.364,1.496-6.557,3.74-6.557,3.74s16.095-2.618,19.672-7.478c0-6.354,0.598-8.969,2.98-10.091c0-1.121,4.172-10.092,10.73-8.224c6.557,1.869,5.961,8.971,2.385,10.466s-2.981,8.223-4.769,9.718c-1.789,1.496-14.904,8.972-19.672,10.093c-2.387,2.617-41.111,9.383-47.096,10.84C289.85,471.456,173.604,468.091,172.414,464.729z"></path><path style="fill:#47C2E3;" d="M296.604,468.092c0,0,85.05-2.241,94.586-15.325c-5.961-8.596-20.863-8.972-20.863-8.972l-1.79,4.859c0,0,6.558,0.375,4.175,3.365c-2.385,2.99-53.057,10.838-77.498,11.587"></path><path style="fill:#00A0C6;" d="M271.767,463.856c8.545-1.743,18.68-8.723,22.059-8.474c3.377,0.25-4.572,5.856-1.592,5.234c2.98-0.624,18.877-7.227,17.884-5.483c-0.994,1.744-3.377,5.233-3.377,5.233s18.876-3.738,22.254-3.489c3.38,0.25-2.581,7.102-4.967,7.476c-2.384,0.376-66.966,4.236-73.323,3.117C263.618,465.851,271.767,463.856,271.767,463.856z"></path><path style="fill:#73D9FA;" d="M270.178,460.615c0,0,29.21-8.224,30.998-7.849c1.789,0.375-16.691,7.849-23.844,7.849C270.178,460.615,270.178,460.615,270.178,460.615z"></path><path style="fill:#73D9FA;" d="M310.715,461.737c0,0,10.133-5.232,17.287-7.103c7.152-1.868,13.114-3.736,11.325-2.243c-1.787,1.497-5.96,6.729-11.921,7.479C321.444,460.615,314.887,463.233,310.715,461.737z"></path><path style="fill:#73D9FA;" d="M338.137,459.87c0,0,9.537-5.235,11.923-4.487c2.384,0.747,5.364,4.487,0,5.98C344.691,462.857,339.924,461.737,338.137,459.87z"></path><path style="fill:#FFFFFF;" d="M357.741,454.098c-1.446,0.845-3.254,1.1-4.041,0.573c-0.785-0.531-0.25-1.644,1.195-2.487c1.445-0.845,3.253-1.1,4.039-0.572C359.721,452.14,359.187,453.253,357.741,454.098z"></path><path style="fill:#73D9FA;" d="M380.175,430.168c-1.195,1.925-3.906,3.059-6.054,2.533s-2.917-2.512-1.722-4.435c1.197-1.922,3.907-3.056,6.055-2.53C380.603,426.261,381.373,428.244,380.175,430.168z"></path><ellipse style="fill:#FFFFFF;" cx="376.438" cy="426.976" rx="2.012" ry="1.262"></ellipse></g><g><path style="fill:#00A0C6;" d="M180.695,342.685c4.044,4.092,2.755,12.185-2.883,18.077c-5.636,5.893-13.487,7.351-17.532,3.26c-4.044-4.091-2.753-12.184,2.884-18.076C168.802,340.055,176.651,338.596,180.695,342.685z"></path><path style="fill:#B3FFFF;" d="M182.973,346.957c0,4.09-10.538,11.837-14.583,11.837c-4.045,0-0.065-7.747-0.065-11.837c0-4.091,3.279-7.408,7.324-7.408C179.693,339.549,182.973,342.866,182.973,346.957z"></path><ellipse style="fill:#FFFFFF;" cx="174.774" cy="349.172" rx="5.137" ry="3.302"></ellipse></g><g><g><path style="fill:#73D9FA;" d="M432.658,295.621c0,0,2.686,11.935-2.256,14.723c-3.238,6.413-2.705,7.846-6.396,7.381c-3.69-0.464,12.796-50.491-17.605-112.306C429.484,231.521,434.259,275.358,432.658,295.621z"></path><path style="fill:#73D9FA;" d="M330.676,385.211c1.301-1.268,8.941-16.855,25.832-23.496c8.444-13.28,9.937-26.56,27.819-36.265c17.884-9.704,35.769-16.855,38.252-19.409c2.483-2.553,7.948-9.704,8.445-12.77c0.497-3.063-11.426-15.833-9.935-21.962c1.489-6.129,15.896-21.453,12.915-39.33c-2.979-17.877-12.419-28.603-15.896-28.603c-0.499-6.641,17.883-20.941,17.387-30.647c-0.498-9.705-8.941-19.92-8.941-19.92s21.858,13.281,18.379,22.475c-3.477,9.193-15.399,31.156-13.412,32.178c1.987,1.022,15.4,11.748,14.903,29.114c-0.497,17.367-9.936,35.753-7.947,39.84c1.986,4.087,13.412,19.921,8.94,30.137c-4.47,10.216-32.289,56.185-77.995,79.169c-14.405,6.128-15.399,4.086-15.399,4.086s-14.406,8.683-16.89,9.194c-2.485,0.51-10.433,1.532-10.433,1.532l-8.941-2.554C317.76,397.98,321.235,394.404,330.676,385.211z"></path><path style="fill:#00A0C6;" d="M344.338,381.635c0,0,8.942-12.259,21.61-20.686c8.197-4.599,26.081-19.921,26.081-19.921s-28.316,25.283-35.769,30.646c-11.923,19.92-0.744,15.323-0.744,15.323s39.493-13.024,46.945-30.647c7.451-17.62,32.041-37.54,29.807-41.371c-2.235-3.83-22.355,3.831-22.355,3.831S353.28,357.118,344.338,381.635z"></path><path style="fill:#00A0C6;" d="M433.014,263.646c0,0,6.706,20.687,5.961,26.816c-0.746,6.13,0,14.556,0,14.556s-13.412-26.048-14.158-32.178S433.014,263.646,433.014,263.646z"></path><path style="fill:#FFFFFF;" d="M425.563,206.95l-5.218-3.83c0,0,4.472-8.428,8.198-10.727C424.816,197.757,425.563,206.95,425.563,206.95z"></path><path style="fill:#FFFFFF;" d="M424.816,272.841c0,0,0.746,7.661,4.472,6.896s2.98-4.598,2.98-4.598s2.234-23.75,5.96-29.113C430.778,253.687,425.563,267.478,424.816,272.841z"></path><path style="fill:#FFFFFF;" d="M360.731,361.714c0,0,8.943-37.541,55.143-47.501c1.492,3.831,1.492,3.831,1.492,3.831S379.612,357.117,360.731,361.714z"></path></g><path style="fill:#FFFFFF;" d="M360.731,369.376c0,0,32.787-8.427,49.927-29.879C395.01,347.158,370.419,364.014,360.731,369.376z"></path></g><path style="fill:#00A0C6;" d="M413.894,294.945c3.442,3.916,2.112,10.916-2.966,15.635c-5.08,4.717-18.688,18.276-22.13,14.359c-3.442-3.915,4.585-23.827,9.664-28.544C403.543,291.679,410.45,291.028,413.894,294.945z"></path><ellipse style="fill:#47C2E3;" cx="102.872" cy="317.688" rx="7.511" ry="7.337"></ellipse><path style="fill:#00A0C6;" d="M401.847,259.864c1.648,1.666,1.12,4.964-1.176,7.363c-2.297,2.4-5.493,2.997-7.141,1.329c-1.647-1.667-1.12-4.965,1.177-7.364C397.002,258.791,400.199,258.196,401.847,259.864z"></path><path style="fill:#00A0C6;" d="M407.934,245.953c0.939,0.953,0.64,2.839-0.675,4.211c-1.312,1.372-3.139,1.711-4.078,0.757c-0.94-0.954-0.64-2.838,0.672-4.21C405.166,245.339,406.993,245,407.934,245.953z"></path><path style="fill:#3D738C;" d="M414.012,303.486c0,4.654-3.17,8.429-7.079,8.429s-13.414,10.784-13.414,6.129c0-4.654,9.505-22.985,13.414-22.985S414.012,298.833,414.012,303.486z"></path><path style="fill:#47EBFA;" d="M407.143,294.275c1.421,0.956,1.479,3.453,0.128,5.578c-1.352,2.125-3.599,3.073-5.02,2.119c-1.421-0.955-1.478-3.453-0.127-5.578C403.475,294.271,405.724,293.32,407.143,294.275z"></path><g><path style="fill:#00A0C6;" d="M146.39,403.525c1.647,1.667,1.121,4.965-1.175,7.365c-2.296,2.4-5.495,2.995-7.141,1.328c-1.648-1.666-1.121-4.964,1.176-7.365C141.546,402.453,144.742,401.859,146.39,403.525z"></path><path style="fill:#00A0C6;" d="M118.802,431.174c0,0-56.633-36.484-52.907-116.214c3.945-84.425,44.71-119.592,52.163-124.997c-19.375,32.432-36.513,75.995-36.513,128.375C81.544,371.04,121.783,429.822,118.802,431.174z"></path><path style="fill:#73D9FA;" d="M92.916,304.936c0,0-2.686,11.937,2.256,14.724c3.239,6.414,2.706,7.845,6.397,7.38c3.69-0.465-12.796-50.492,17.606-112.306C96.09,240.836,91.315,284.674,92.916,304.936z"></path><path style="fill:#B3FFFF;" d="M95.33,304.375c0.63-1.39,1.117-30.264,4.471-38.309c-0.372,26.816,2.608,55.931,1.118,54.78c-1.49-1.148-3.726-6.512-3.726-6.512S92.721,310.121,95.33,304.375z"></path><path style="fill:#73D9FA;" d="M88.25,374.419c0,0-2.236-20.27,2.235-24.324c4.471-4.054,29.061,58.107,32.788,66.89c-9.688-2.702-23.101-12.16-25.336-20.269"></path><path style="fill:#73D9FA;" d="M74.092,372.18c0,0-15.649-7.661-18.629-18.389c-2.981-10.725-12.109-53.821,7.265-76.806C63.474,307.631,74.092,372.18,74.092,372.18z"></path><path style="fill:#73D9FA;" d="M82.289,381.851c0,0-6.707,14.189,1.49,25.675s13.413,14.188,26.826,13.513c-13.414-26.351-19.375-39.188-19.375-39.188"></path><path style="fill:#73D9FA;" d="M174.972,433.983c-1.301-1.267-8.942-16.855-25.833-23.496c-8.445-13.28-9.936-26.56-27.819-36.265c-17.884-9.704-35.769-16.855-38.252-19.409c-2.483-2.553-7.948-9.704-8.444-12.77c-0.498-3.063,11.426-15.833,9.935-21.962c-1.49-6.129-15.896-21.453-12.916-39.33c2.981-17.877,12.419-28.603,15.897-28.603c0.497-6.641-17.883-20.942-17.387-30.647c0.496-9.706,8.942-19.92,8.942-19.92s-21.858,13.281-18.381,22.476c3.478,9.191,15.4,31.155,13.413,32.178c-1.986,1.021-15.4,11.747-14.904,29.113c0.498,17.368,9.937,35.753,7.949,39.84c-1.988,4.088-13.413,19.921-8.942,30.137c4.471,10.216,32.29,56.185,77.995,79.169c14.405,6.128,15.399,4.086,15.399,4.086s14.407,8.683,16.891,9.194c2.484,0.51,10.432,1.532,10.432,1.532l8.943-2.554C187.889,446.753,184.411,443.177,174.972,433.983z"></path><path style="fill:#B3FFFF;" d="M103.186,405.123c0,0-21.641-19.153-25.367-26.048c-8.197-13.024-17.139-29.88-17.885-39.84c-0.745-9.961,4.535-48.269,7.483-44.438c2.949,3.831,7.42,13.024,7.42,15.323c0,2.298-7.451,24.517-5.216,29.88c2.235,5.364,17.203,19.153,20.151,22.984c2.948,3.831,26.794,26.815,26.049,34.477C115.076,405.123,103.186,405.123,103.186,405.123z"></path><path style="fill:#00A0C6;" d="M161.309,430.407c0,0-8.942-12.259-21.611-20.686c-8.196-4.599-26.08-19.921-26.08-19.921s28.316,25.283,35.768,30.646c11.923,19.92,0.745,15.323,0.745,15.323s-39.494-13.024-46.946-30.647c-7.452-17.62-32.042-37.54-29.807-41.371c2.236-3.83,22.355,3.831,22.355,3.831S152.367,405.891,161.309,430.407z"></path><path style="fill:#00A0C6;" d="M72.634,312.419c0,0-6.708,20.687-5.962,26.816c0.745,6.13,0,14.556,0,14.556s13.413-26.048,14.158-32.178S72.634,312.419,72.634,312.419z"></path><path style="fill:#FFFFFF;" d="M80.831,321.613c0,0-0.745,7.661-4.471,6.896c-3.725-0.766-2.981-4.597-2.981-4.597s-2.235-23.751-5.961-29.114C74.87,302.459,80.085,316.251,80.831,321.613z"></path></g></g></g></svg>