<svg xmlns="http://www.w3.org/2000/svg" width="500" height="500" version="1.1"><g id="a004_1_"><g><g><g><path style="fill:#96E042;" d="M141.893,464.811c1.437,2.155,48.849,10.776,106.318,10.057c57.468-0.718,155.884-28.016,173.126-61.061c14.715-28.203-26.581-38.791-26.581-38.791s40.948,20.831,1.438,43.819C281.642,485.485,141.893,464.811,141.893,464.811z"></path><path style="fill:#96E042;" d="M301.37,305.334c0,0,79.021-3.593,106.318-67.526C357.402,294.558,301.37,305.334,301.37,305.334z"></path><path style="fill:#96E042;" d="M412.717,228.469c0,0,2.873,28.016-27.298,51.722c-37.913,29.789-38.793,12.932-38.793,12.932l48.85-38.073"></path><path style="fill:#96E042;" d="M258.269,471.275c2.155,0,93.388-22.987,141.518-71.836c-106.318,71.836-191.803,72.555-191.803,72.555"></path><path style="fill:#96E042;" d="M421.338,403.03c-0.189-2.263-20.115,46.694-76.865,62.5C411.998,450.443,423.493,428.893,421.338,403.03z"></path><path style="fill:#96E042;" d="M86.579,262.95c0,0-7.902,25.144,22.269,37.355C77.959,290.967,80.832,280.91,86.579,262.95z"></path><path style="fill:#96E042;" d="M164.163,468.403c-3.592-0.72-12.212-2.156-10.776-9.34s45.257-5.028,75.429-9.339c30.171-4.31,102.008-26.579,137.926-51.722c-41.666,43.82-67.525,56.751-107.037,68.244"></path><path style="fill:#96E042;" d="M162.726,458.347c0,0,155.167-7.184,249.273-124.278c0.718-8.621,4.311-12.931-5.028-14.367c-58.906,86.922-202.939,128.587-253.225,137.926C157.338,458.347,162.726,458.347,162.726,458.347z"></path><path style="fill:#EBF580;" d="M280.179,420.272c0.718-1.438,8.619-0.719,8.619-0.719s-10.057,6.466-8.979,6.106c1.077-0.359,82.612-32.686,113.143-78.303C330.464,400.517,280.179,420.272,280.179,420.272z"></path></g></g><path style="fill:#EBF580;" d="M158.774,459.782c0,0-1.077,3.593,4.669,4.31c5.748,0.719,42.025-8.979,57.11-21.191C189.664,454.035,158.774,459.782,158.774,459.782z"></path><path style="fill:#EBF580;" d="M159.494,461.219c0,0,1.437,5.747,6.106,6.824c4.669,1.078,92.31,10.775,151.216-5.388c-85.845,5.748-139.723-3.95-139.723-3.95L159.494,461.219z"></path><path style="fill:#EBF580;" d="M290.235,467.684c11.135-0.718,89.437-15.444,117.812-44.538c-85.126,41.665-118.17,39.51-133.256,41.306C259.704,466.247,290.235,467.684,290.235,467.684z"></path><path style="fill:#EBF580;" d="M265.093,466.606c0,0,56.751-11.853,86.203-33.403c-37.354,14.008-112.424,34.48-112.424,34.48"></path><path style="fill:#EBF580;" d="M210.497,463.375c0,0,88.719,3.591,145.469-57.47c-58.188,33.763-93.387,42.383-182.105,54.955C189.305,460.86,210.497,463.375,210.497,463.375z"></path><g><path style="fill:#EBF580;" d="M349.86,290.967c0,0,3.232,5.028,7.901,5.028c4.67,0,47.053-27.298,49.927-49.927C387.574,274.803,349.86,290.967,349.86,290.967z"></path></g></g></g></svg>