<svg xmlns="http://www.w3.org/2000/svg" width="500" height="500" version="1.1"><g id="a005_1_"><g><path style="stroke:#FFCCF0;stroke-linecap:round;stroke-linejoin:round;" d="M314.587,432.387c-0.795,0.51,13.522,6.882,19.402,12.511c-1.764,5.004-3.821,8.132-3.821,8.132s-8.819,2.815-9.994,5.317c-1.177,2.502-3.821,3.127,6.173,0.313c9.993-2.814,31.747-7.506,33.217-9.07c1.47-1.563,10.289-12.822,7.644-15.324S320.467,428.635,314.587,432.387z"></path><path style="stroke:#FFCCF0;stroke-linecap:round;stroke-linejoin:round;" d="M131.45,443.959c0,0,7.447-17.097,12.151-20.851c4.704-3.753,24.301-6.255,25.869-6.255c1.567,0,10.582,2.085,14.894,3.337c4.312,1.25,22.341,2.085,19.989,2.502c-2.352,0.416-22.733,6.045-27.632,5.316c-4.899-0.729-8.819-3.233-10.387-2.398c-1.567,0.834-9.014,7.09-12.542,10.426c-3.527,3.336-9.407,10.425-14.109,11.677C134.978,448.963,131.45,443.959,131.45,443.959z"></path><path style="stroke:#FFCCF0;stroke-linecap:round;stroke-linejoin:round;" d="M355.448,275.694c0,0-7.055,3.753-12.347,11.26c-5.291,7.506-22.928,28.774-22.928,28.774s16.461-5.63,24.104-9.384c7.643-3.753,31.159-15.014,26.456-20.955C366.031,279.447,357.8,276.008,355.448,275.694z"></path><g><path style="stroke:#FFCCF0;stroke-linecap:round;stroke-linejoin:round;" d="M394.756,241.961c0,0-1.765-11.885,1.175-18.766c2.939-6.88,10.583-12.51,13.523-11.259c2.938,1.25,8.23,7.506,8.23,7.506s8.818,1.876,9.995,4.378c1.175,2.502,0,13.762,1.764,16.888c1.763,3.128-1.764,6.256-6.468,8.758c-4.703,2.501-11.171,5.63-15.873,2.501C402.399,248.841,394.756,241.961,394.756,241.961z"></path><path style="stroke:#FFCCF0;stroke-linecap:round;stroke-linejoin:round;" d="M103.505,108.503c0,0-1.764-11.885,1.175-18.766c2.94-6.881,10.583-12.51,13.523-11.259c2.94,1.251,8.23,7.506,8.23,7.506s8.819,1.876,9.995,4.378s0,13.761,1.764,16.889c1.764,3.127-1.764,6.255-6.467,8.757c-4.704,2.502-11.17,5.63-15.875,2.502C111.148,115.384,103.505,108.503,103.505,108.503z"></path><path style="stroke:#FFCCF0;stroke-linecap:round;stroke-linejoin:round;" d="M96.331,263.382c0,0-11.308,0.149-17.286-3.934c-5.978-4.082-10.117-12.939-8.531-15.854s8.163-7.588,8.163-7.588s3.013-9.017,5.509-9.895c2.496-0.879,12.8,1.977,15.962,0.568c3.163-1.409,5.566,2.754,7.217,8.067c1.652,5.312,3.632,12.57,0.048,17.073S96.331,263.382,96.331,263.382z"></path><path style="stroke:#FFCCF0;stroke-linecap:round;stroke-linejoin:round;" d="M420.036,207.557c0,0-3.528-5.629-1.764-7.506c1.764-1.876,7.644-4.378,7.644-4.378c4.703,5.63,4.703,13.136,4.703,13.136s-5.292,1.876-7.056,1.876S420.036,207.557,420.036,207.557z"></path><path style="stroke:#FFCCF0;stroke-linecap:round;stroke-linejoin:round;" d="M68.021,270.752c0,0-3.528-5.63-1.763-7.507c1.763-1.877,7.642-4.379,7.642-4.379c4.704,5.63,4.704,13.136,4.704,13.136s-5.292,1.876-7.055,1.876C69.785,273.878,68.021,270.752,68.021,270.752z"></path><path style="stroke:#FFCCF0;stroke-linecap:round;stroke-linejoin:round;" d="M121.278,383.146c0,0-6.153-9.818-3.076-13.093c3.076-3.272,13.331-7.638,13.331-7.638c8.203,9.82,8.203,22.912,8.203,22.912s-9.229,3.273-12.305,3.273C124.354,388.601,121.278,383.146,121.278,383.146z"></path></g><path style="stroke:#FFCCF0;stroke-linecap:round;stroke-linejoin:round;" d="M143.208,276.632c0,0-2.352-8.132,0-10.634c2.352-2.502,10.583-4.378,10.583-4.378c4.704,6.254,5.291,14.386,3.528,15.012c-1.764,0.626-7.056,5.63-9.407,4.379S143.208,276.632,143.208,276.632z"></path><path style="stroke:#FFCCF0;stroke-linecap:round;stroke-linejoin:round;" d="M384.257,396.106c0,0-4.703-11.26-4.116-14.387c0.588-3.128,8.819-11.26,8.819-11.26s11.171-1.876,12.345,1.252c1.177,3.126,3.529,10.633,2.354,13.135c-1.177,2.502,0,8.132-5.292,9.384C393.074,395.48,387.195,401.736,384.257,396.106z"></path><path style="stroke:#FFCCF0;stroke-linecap:round;stroke-linejoin:round;" d="M386.607,361.703l0.588-6.881c5.879-0.625,7.056,0,7.645,2.502c0.588,2.502-1.176,6.256-1.176,6.256S387.195,366.082,386.607,361.703z"></path><path style="stroke:#FFCCF0;stroke-linecap:round;stroke-linejoin:round;" d="M397.607,94.703l0.588-6.881c5.879-0.625,7.056,0,7.645,2.502c0.588,2.502-1.176,6.256-1.176,6.256S398.195,99.082,397.607,94.703z"></path><path style="stroke:#FFCCF0;stroke-linecap:round;stroke-linejoin:round;" d="M380.729,314.789l4.115-9.383c6.468,5.004,12.347,12.511,5.88,16.889s-10.583,6.256-11.17,4.378C378.967,324.797,378.377,316.665,380.729,314.789z"></path><path style="stroke:#FFCCF0;stroke-linecap:round;stroke-linejoin:round;" d="M176.917,196.773l4.115-9.382c6.468,5.004,12.347,12.51,5.88,16.89c-6.467,4.378-10.583,6.254-11.17,4.378C175.153,206.783,174.565,198.651,176.917,196.773z"></path><path style="stroke:#FFCCF0;stroke-linecap:round;stroke-linejoin:round;" d="M401.894,322.295c1.743-2.596,7.057-6.255,8.819-6.255c1.764,0,5.879-1.877,7.644,1.877c1.764,3.752,4.114,11.259,2.938,14.387c-1.175,3.127,0,8.758-7.055,10.634c-7.056,1.876-15.286,1.876-16.462-0.626C396.602,339.81,398.954,326.673,401.894,322.295z"></path><path style="stroke:#FFCCF0;stroke-linecap:round;stroke-linejoin:round;" d="M318.801,168.834l4.114-9.383c6.468,5.005,12.347,12.511,5.88,16.89c-6.467,4.378-10.583,6.255-11.17,4.378C317.037,178.843,316.45,170.711,318.801,168.834z"></path><path style="stroke:#FFCCF0;stroke-linecap:round;stroke-linejoin:round;" d="M339.967,176.341c1.741-2.596,7.054-6.256,8.817-6.256s5.88-1.876,7.644,1.877c1.764,3.753,4.115,11.259,2.939,14.387c-1.176,3.127,0,8.757-7.056,10.634c-7.054,1.876-15.285,1.876-16.461-0.626S337.026,180.719,339.967,176.341z"></path><path style="stroke:#FFCCF0;stroke-linecap:round;stroke-linejoin:round;" d="M360.74,137.141c-1.764-5.004-1.177-16.889,0.587-17.514c1.764-0.626,8.231-5.005,8.231-5.005s18.226-9.382,21.753-3.127c3.528,6.255,5.29,20.017,5.29,20.017s-2.351,6.255-2.938,8.132c-0.59,1.876-11.171,0-14.11,1.251c-2.94,1.251-4.116,10.008-7.644,8.757c-3.528-1.251-7.643-1.877-9.406-3.753C360.74,144.021,360.74,137.141,360.74,137.141z"></path><path style="stroke:#FFCCF0;stroke-linecap:round;stroke-linejoin:round;" d="M398.954,139.643c0,0,4.704-5.004,7.056-3.128c2.352,1.877,5.291,8.757,5.291,8.757s-2.351,6.255-6.467,1.877C400.718,142.771,398.954,139.643,398.954,139.643z"></path><path style="stroke:#FFCCF0;stroke-linecap:round;stroke-linejoin:round;" d="M107.934,187.808c-0.588-1.876,4.115-8.758,7.055-6.88c2.94,1.876,7.644,7.506,5.292,9.383c-2.352,1.876-3.527,7.506-8.818,4.378S107.934,187.808,107.934,187.808z"></path><path style="stroke:#FFCCF0;stroke-linecap:round;stroke-linejoin:round;" d="M185.934,41.808c-0.588-1.876,4.115-8.758,7.055-6.88c2.94,1.876,7.644,7.506,5.292,9.383c-2.352,1.876-3.527,7.506-8.818,4.378S185.934,41.808,185.934,41.808z"></path><path style="stroke:#FFCCF0;stroke-linecap:round;stroke-linejoin:round;" d="M88.173,369.214c0,0-4.704-11.26-4.116-14.388c0.588-3.128,8.819-11.259,8.819-11.259s11.17-1.877,12.347,1.251c1.175,3.128,3.527,10.634,2.352,13.136c-1.176,2.502,0,8.132-5.292,9.383C96.991,368.589,91.112,374.843,88.173,369.214z"></path></g></g></svg>