<svg xmlns="http://www.w3.org/2000/svg" width="500" height="500" version="1.1"><g id="a006"><g><path style="fill:#FFD600;" d="M132.688,423.163c0,0-22.759-20.978-24.445-20.139c1.686,7.552,7.586,15.105,7.586,15.105s-14.33-9.232-11.801-5.036c2.528,4.196,10.115,15.104,10.115,15.104s47.204,37.76,84.294,41.955c-25.289-13.425-29.503-15.943-29.503-15.943s15.173,5.875,21.073,6.715c-9.272-5.036-19.387-12.588-19.387-12.588s25.288,4.196,27.817,5.873C173.993,444.14,132.688,423.163,132.688,423.163z"></path><path style="fill:#FFFF8F;" d="M145.932,446.614c0,0-1.124,5.594,7.119,9.323c8.242,3.731,19.857,5.223,23.229,6.714c3.372,1.492,16.11,1.119,17.609,1.492c1.499,0.372-14.252-2.409-17.234-4.849c-2.982-2.44-14.237-14.917-15.735-19.394C154.923,436.919,145.557,438.41,145.932,446.614z"></path><path style="fill:#FFD600;" d="M205.182,424.842c0,0-50.576,0.838-63.22,18.459c-12.645,17.623,53.948,32.726,140.771,28.529c86.822-4.194,87.665-27.69,84.293-36.081s-73.335-15.104-85.979-15.104c28.66,6.713,68.278,9.23,66.593,19.3c-1.687,10.069-47.015,23.494-93.566,23.494c-54.792,0-93.228-5.87-96.938-15.104C153.762,439.945,205.182,424.842,205.182,424.842z"></path><path style="fill:#FFD600;" d="M345.11,433.232c1.686-4.195,22.758-20.978,43.832-26.851c-11.802,11.748-18.545,17.621-18.545,17.621s14.33-6.713,16.859-6.713c-5.901,5.873-3.372,8.392-3.372,8.392L394,423.163c0,0-0.843,27.69-48.89,36.921C346.796,445.818,345.11,433.232,345.11,433.232z"></path><path style="fill:#FFFF8F;" d="M308.534,464.89c0,0,40.463-11.563,48.705-22.378s-2.622-13.054-2.622-13.054s15.734-5.968,17.233,1.865c1.874,6.341,9.366,0.375,9.366,5.222c0,4.849-11.988,14.918-20.23,16.41C352.744,454.446,308.534,464.89,308.534,464.89z"></path><path style="fill:#FFD600;" d="M136.061,434.07c0,0-18.545,28.53,20.23,35.244C128.474,465.957,98.972,454.209,136.061,434.07z"></path></g><path style="fill:#FFD600;" d="M216.091,391.221c0,0-57.721,22.201-46.621,32.191c11.101,9.99,117.663,17.76,172.054-5.551c-53.281,6.66-152.073,5.549-158.733,0S216.091,391.221,216.091,391.221z"></path><g><path style="fill:none;" d="M452.638,262.762c-0.55-1.48-0.883-2.336-0.883-2.336l-23.979,10.271c0,0,26.642,14.43,25.531,28.861c-1.109,14.43-27.751,37.74-64.381,69.932c37.74-7.77,70.433-54.531,73.261-65.492C471.066,269.588,455.471,270.406,452.638,262.762z"></path><circle style="fill:#FFBF00;" cx="370.51" cy="367.871" r="33.856"></circle><path style="fill:#FFBF00;" d="M376.114,343.375c0,0,35.411-47.607,42.796-48.557c7.386-0.953,14.26,9.674,14.26,9.674s-27.053,27.01-32.439,35.713c-5.386,8.699-8.041,23.057-8.041,23.057"></path><path style="fill:#FFBF00;" d="M425.468,302.984c0,0,16.5-0.125,28.735-21.721c-1.221-13.359-2.448-20.838-2.448-20.838l-32.946-9.139c1.317,6.336,1.317,6.336,1.317,6.336s18.183,5.166,18.135,8.676c-0.049,3.51,6.193,9.211-0.876,12.625c-7.068,3.414-9.041,19.184-18.206,21.865"></path><circle style="fill:#FFFF8F;" cx="370.855" cy="368.197" r="24.607"></circle><circle style="fill:#FFFFFF;" cx="370.856" cy="368.197" r="11.381"></circle></g><g><circle style="fill:#FFBF00;" cx="77.49" cy="290.869" r="21.646"></circle><circle style="fill:#FFFF8F;" cx="78.186" cy="291.371" r="11.101"></circle><circle style="fill:#FFFFFF;" cx="77.326" cy="293.009" r="5.551"></circle><circle style="fill:#FFBF00;" cx="105.621" cy="279.953" r="7.77"></circle><path style="fill:#FFBF00;" d="M117.407,314.307c-2.866,7.436-11.219,11.139-18.655,8.273c-7.436-2.869-11.14-11.221-8.272-18.658c2.867-7.434,11.219-11.139,18.656-8.271C116.571,298.518,120.274,306.871,117.407,314.307z"></path><path style="fill:#FFBF00;" d="M102.583,315.729l16.558,21.852c0,0,7.013,0.322,18.169,2.246c11.156,1.92,5.402,19.928,5.402,19.928c-4.305,1.91-7.101,9.158-7.101,9.158c4.143,1.598,15.062,1.049,17.769,3.283c2.708,2.234,14.175,12.604,14.175,12.604c7.974-5.254-7.473-20.727-7.473-20.727c-4.854-9.01-8.983-26.07-12.727-28.701c-3.744-2.633-14.263-3.121-14.263-3.121l-13.464-5.191c0,0-11.505-18.713-10.308-21.82C106.525,312.49,102.583,315.729,102.583,315.729z"></path><circle style="fill:#FFBF00;" cx="182.019" cy="389.74" r="19.426"></circle><circle style="fill:#FFBF00;" cx="128.624" cy="373.375" r="6.105"></circle><circle style="fill:#FFBF00;" cx="109.199" cy="357.279" r="6.66"></circle><circle style="fill:#FFFFFF;" cx="104.063" cy="306.16" r="8.51"></circle><circle style="fill:#FFFFFF;" cx="183.989" cy="390.158" r="12.766"></circle><g><path style="fill:#FFD600;" d="M143.167,391.26c-2.22-4.439-13.321-29.602-17.021-32.563c-3.701-2.959-9.621-5.18-9.621-5.18s0.74,5.18-15.542-2.961c-16.281-8.141-34.782-26.641-34.782-26.641l10.361-19.982l7.4,4.441l-1.48,4.439c-3.701,0-10.361,8.881-10.361,8.881s16.281,14.063,19.242,15.541c2.96,1.48,12.581,6.662,14.801,7.4c2.22,0.74,17.021,3.701,17.021,3.701l13.321,12.58l17.761,25.902l23.682,12.58l-8.88,13.322L143.167,391.26z"></path><path style="fill:#FFD600;" d="M136.506,360.918c-3.7-4.439-17.761-36.262-17.761-36.262s4.44-14.801,3.7-17.021s-8.881-12.58-8.881-12.58l-14.061-21.463l-5.181-10.359l-7.401-4.441c0,0-8.88,2.959-8.88,5.92s8.88,11.842,11.101,12.582c2.221,0.738,6.661,6.66,6.661,6.66s12.581,11.842,14.061,14.801c1.479,2.959,2.22,8.881,2.96,11.102c0.74,2.221,2.96,7.4,0.74,12.58c-2.22,5.182-5.92,14.801-5.92,14.801l8.88,16.281L136.506,360.918z"></path></g></g></g></svg>