<svg xmlns="http://www.w3.org/2000/svg" width="500" height="500" version="1.1"><g id="a009"><g><path style="fill-rule:evenodd;clip-rule:evenodd;fill:#F7A8DB;" d="M431.303,20.239c0.388,3.087,1.66,6.467,0.847,9.304c-0.38,1.329-2.014,2.24-2.537,3.665c-1.195,3.252-0.17,6.384-1.691,8.458c-1.961,2.674-7.643,4.342-10.996,4.512c-7.943,0.401-18.775-8.032-17.198-16.635c0.318-1.729,1.695-3.559,4.512-3.665c1.567-2.158,3.463-5.599,5.921-7.33C415.932,14.485,427.544,14.592,431.303,20.239z"></path><path style="fill-rule:evenodd;clip-rule:evenodd;fill:#F7A8DB;" d="M183.485,16.856c0.282,0,0.564,0,0.846,0c4.861,5.5,12.211,9.935,10.713,20.863c-8.85,2.713-11.334-3.336-13.251-10.714c-0.548-2.108-0.419-6.646,1.692-7.612c-0.325-0.333-0.319-0.997-0.282-1.691C183.123,17.247,183.469,17.217,183.485,16.856z"></path><path style="fill-rule:evenodd;clip-rule:evenodd;fill:#F7A8DB;" d="M157.265,28.415c3.754,2.465,1.059,8.058-1.973,10.714c-1.123,0.982-4.59,3.364-6.203,3.665c-6.947,1.299-10.813-4.344-13.815-8.458c-1.463-9.272,4.9-14.932,15.224-13.251C154.214,21.69,157.414,24.166,157.265,28.415z"></path><path style="fill-rule:evenodd;clip-rule:evenodd;fill:#F7A8DB;" d="M120.459,229.271c0.628,2.495-2.27,4.813-3.947,7.33c-1.431,2.148-3.028,4.948-5.075,6.486c-3.498,2.625-10.902,6.459-15.224,5.919c-3.86-0.48-5.554-4.465-5.921-9.021c5.89-4.73,13.845-8.898,23.964-8.458C116.104,230.553,117.643,229.274,120.459,229.271z"></path><path style="fill-rule:evenodd;clip-rule:evenodd;fill:#F7A8DB;" d="M377.734,101.814c-2.412,4.745-12.843,2.135-17.762-0.847c-1.5-0.909-2.843-2.423-4.793-3.665c-4.153-2.645-6.259-4.371-7.05-9.867c-0.203-1.424,0.172-3.38,0-5.075c-0.296-2.95-0.663-3.62,1.129-6.202c2.431-3.501,5.955-7.163,11.841-4.793c3.716,1.497,7.428,5.523,11.278,9.586c3.963,4.182,7.978,7.989,10.148,10.714C386.328,96.432,386.948,103.575,377.734,101.814z"></path><path style="fill-rule:evenodd;clip-rule:evenodd;fill:#F7A8DB;" d="M301.19,48.316c2.003,2.825,3.17,10.592,2.818,15.788c-0.142,2.099-1.381,5.275-2.818,5.638c-4.498,1.137-9.904-6.114-10.15-9.868c-0.305-4.666,1.74-9.377,4.511-11.558C298.178,49.254,298.509,47.593,301.19,48.316z"></path><path style="fill-rule:evenodd;clip-rule:evenodd;fill:#F7A8DB;" d="M322.898,61.567c-1.627,4.475-8.005,6.13-13.533,4.228c-1.414-2.445-3.041-4.329-2.818-7.33c0.171-2.327,2.831-6.924,5.356-8.74c5.533-3.982,17.947,0.48,17.479,5.921C329.121,58.665,325.314,59.997,322.898,61.567z"></path><path style="fill-rule:evenodd;clip-rule:evenodd;fill:#F7A8DB;" d="M133.3,70.142c-2.23,1.072-5.546-1.574-8.458-1.691c-6.384,6.303-14.67,10.704-25.656,12.405c-0.238-1.178,0.548-1.332,0.564-2.256c2.61-1.568,5.796-0.247,8.176-1.128c1.976-0.731,3.971-3.807,5.639-5.356c2.114-1.963,4.112-3.688,5.357-5.639c-1.898-1.672-4.322-2.82-4.793-5.92c3.074-5.865,5.816,0.258,8.74,3.101C126.195,66.892,129.75,68.386,133.3,70.142z"></path><path style="fill-rule:evenodd;clip-rule:evenodd;fill:#F7A8DB;" d="M73.034,253.825c-0.751,1.821-3.321,0.867-4.511,0.563c-1.578-0.402-3.158-1.295-4.511-1.691c-3.208-0.938-6.795-1.446-9.868-2.538c-1.87-0.664-3.543-2.28-5.638-3.102c-6.118-2.396-13.181-4.741-17.48-8.739c-0.12-1.289-0.429-2.39-0.282-3.948c1.008-1.247,1.971-2.539,3.665-3.101c2.104,1.072,4.992,3.431,7.612,5.639c2.499,2.105,5.312,3.435,7.612,5.075c3.063,2.183,5.101,5.852,8.176,7.048c3.687,1.435,7.98-0.384,11.56,1.41C70.942,251.23,71.235,252.782,73.034,253.825z"></path><path style="fill-rule:evenodd;clip-rule:evenodd;fill:#F7A8DB;" d="M147.908,167.795c-2.424,1.893-6.748,0.289-8.458-1.128c-7.777-0.492-14.079-2.461-17.48-7.33C126.643,145.281,147.981,155.23,147.908,167.795z"></path><path style="fill-rule:evenodd;clip-rule:evenodd;fill:#F7A8DB;" d="M96.931,116.097c4.221,0.44,6.908,6.342,5.92,11.841c-0.428,2.388-3.303,6.927-5.356,7.331c-4.361,0.859-11.405-4.028-12.124-7.612c-0.459-2.294,0.791-3.206,1.128-4.793c0.314-1.477-0.306-2.403,0-3.102C87.656,117.124,92.015,115.585,96.931,116.097z"></path><path style="fill-rule:evenodd;clip-rule:evenodd;fill:#F7A8DB;" d="M359.127,195.348c-0.179,2.657-0.534,5.444-1.974,7.33c-3.313,4.34-12.516,6.813-18.044,4.793c-0.146-0.997-0.34-1.754,0.563-2.256c-0.472-0.468-1.142-0.737-1.128-1.691c-0.077-2.297,0.297-4.652,1.41-6.202c2.213-3.083,8.272-7.797,13.814-5.921C355.788,192.084,357.4,193.646,359.127,195.348z"></path><path style="fill-rule:evenodd;clip-rule:evenodd;fill:#F7A8DB;" d="M449.146,128.009c1.756,2.815-1.581,6.027-2.255,8.457c-1.018,3.665-0.111,7.682-1.691,10.715c-1.075,2.061-3.998,3.888-5.639,5.074c-1.836,1.326-3.942,3.928-6.767,3.102c-0.93-3.541,2.177-6.005,3.665-8.459c0.765-1.26,0.945-2.775,1.691-3.947C441.44,137.787,446.43,133.562,449.146,128.009z"></path><path style="fill-rule:evenodd;clip-rule:evenodd;fill:#F7A8DB;" d="M39.29,148.801c1.829-0.075,3.802-0.628,5.357,0c1.471,0.595,4.738,3.738,5.356,5.075c2.138,4.625-2.761,12.163-5.639,14.66c-1.532,1.329-4.755,2.742-6.484,2.82c-1.901,0.085-2.869-1.266-4.793-1.692c-2.267-0.504-4.055,0.303-5.639-1.691c-1.828-2.303-2.811-9.31-0.846-13.533c0.688-1.479,4.219-4.401,7.33-5.358C35.577,148.578,37.545,148.874,39.29,148.801z"></path><path style="fill-rule:evenodd;clip-rule:evenodd;fill:#F7A8DB;" d="M453.094,157.049c1.848,0.56,1.289,1.34,3.102,0.28c3.165,1.73,5.409,6.917,7.33,11.278c1.107,2.514,2.065,3.501,1.692,7.33c-0.135,1.371-1.019,2.924-1.409,4.511c-0.774,3.126-0.836,5.596-3.666,6.484c-2.736-4.558-1.805-10.619-3.384-15.787c-1.364-4.469-3.011-8.769-3.665-13.252C453.094,157.612,453.094,157.329,453.094,157.049z"></path><path style="fill-rule:evenodd;clip-rule:evenodd;fill:#F7A8DB;" d="M150.499,206.598c-0.474-3.831,1.166-6.153,3.101-7.895c0.765-0.688,4.039-3.029,4.793-2.818c2.918,0.811,8.385,3.101,10.432,5.074c1.659,1.601,3.725,6.382,1.974,8.458c-1.828,2.166-11.38,4.607-15.506,2.256c-1.109-0.633-1.829-1.807-2.538-2.539C151.873,208.226,150.917,207.595,150.499,206.598z"></path><path style="fill-rule:evenodd;clip-rule:evenodd;fill:#F7A8DB;" d="M385.421,202.404c-0.484-1.132-1.611-2.418-1.41-3.665c0.183-1.139,7.12-7.366,10.714-7.612c4.019-0.276,7.074,2.592,10.148,2.538c2.15,1.833,3.209,2.439,2.256,5.921c-0.504,1.838-2.005,2.95-6.203,3.382C395.937,203.481,388.669,202.867,385.421,202.404z"></path><path style="fill-rule:evenodd;clip-rule:evenodd;fill:#F7A8DB;" d="M462.337,215.425c4.57,1.72,10.264,3.526,9.586,9.586c1.569,1.481,3.249,2.959,2.255,6.202c-1.005,3.28-6.771,7.867-11.841,9.305c-3.981,1.129-9.607-0.135-12.97-1.691c-1.7-0.788-2.969-2.313-4.51-3.949c-2.275-2.41-5.344-5.176-2.538-9.584c-1.51-2.39-1.067-7.534,0.563-10.997c0.384-0.814,1.771-1.949,2.819-3.382c1.06-1.447,3.58-7.178,5.921-6.766c3.06,0.538,5.878,1.243,9.304,3.664C461.947,209.751,463.31,212.378,462.337,215.425z"></path><path style="fill-rule:evenodd;clip-rule:evenodd;fill:#F7A8DB;" d="M168.051,297.178c3.689-0.863,6.926,1.387,9.022,4.23c3.021,4.095,1.203,7.008-1.691,10.714c-1.482,1.897-2.953,4.827-4.229,6.202c-1.359,1.465-7.217,5.654-9.585,3.947c-2.989-2.155-2.815-15.292-0.846-18.609c0.416-0.697,1.456-1.323,2.256-2.254C164.477,299.662,165.388,297.803,168.051,297.178z"></path><path style="fill-rule:evenodd;clip-rule:evenodd;fill:#F7A8DB;" d="M68.772,293.802c7.749-0.993,13.2,5.945,15.788,12.404c1.861,4.645,4.083,9.947,2.255,14.662c-0.875,2.256-4.533,5.792-6.766,6.202c-3.157,0.58-12.43-1.533-14.942-2.819c-1.106-0.566-2.209-2.292-3.383-3.102c-2.566-1.77-6.748-4.056-7.331-7.611c-1.16-7.081,1.307-18.628,7.894-19.454C64.396,293.819,66.324,295.332,68.772,293.802z"></path><path style="fill-rule:evenodd;clip-rule:evenodd;fill:#F7A8DB;" d="M405.647,262.139c0.998,0.506,1.925,1.082,3.101,1.41c5.337,5.783,4.918,26.658-4.228,27.065c-2.547,0.112-7.813-3.073-9.586-5.356c-0.626-0.807-2.63-4.479-3.1-5.641c-2.311-5.675,1.158-16.54,6.482-18.042C400.943,260.834,402.554,263.144,405.647,262.139z"></path><path style="fill-rule:evenodd;clip-rule:evenodd;fill:#F7A8DB;" d="M332.817,297.385c-0.171-1.485,0.398-2.234,1.408-2.537c-0.255-0.872-1.494-0.76-1.408-1.974c0.383-7.434,4.301-8.985,9.304-12.404c2.488-1.703,4.087-2.704,7.049-4.229c0.76-0.393,1.409-1.194,1.972-1.41c4.887-1.868,11.063,1.783,14.381,4.229c0.958,0.708,3.154,1.963,3.383,3.383c0.457,2.835-3.767,7.636-5.639,9.022c-1.561,1.153-4.989,2.309-8.46,3.101C347.954,296.13,340.313,299.539,332.817,297.385z"></path><path style="fill-rule:evenodd;clip-rule:evenodd;fill:#F7A8DB;" d="M201.59,368.698c4.802,5.187,0.072,17.842-4.511,21.707c-2.374,2.004-6.616,2.699-7.894-0.563c-6.548,1.6-6.429-10.074-4.229-14.941C186.892,370.612,194.535,366.561,201.59,368.698z"></path><path style="fill-rule:evenodd;clip-rule:evenodd;fill:#F7A8DB;" d="M438.634,280.465c0.229,0.054,0.281,0.282,0.564,0.282c2.361,5.034,5.003,9.637,7.612,14.378c1.23,2.236,3.747,3.65,4.511,6.201C442.082,304.934,431.956,286.19,438.634,280.465z"></path><path style="fill-rule:evenodd;clip-rule:evenodd;fill:#F7A8DB;" d="M48.438,67.04c6.232,1.399,14.805,5.846,19.454,7.895c4.201,0.496,3.614-8.318,7.33-10.149c2.511-0.778,5.088-1.491,8.176-1.691c3.05,2.627,7.248,5.351,7.612,10.149c0.406,5.332-4.517,14.628-10.713,14.097c-2.175-0.186-2.577-1.931-5.357-0.847c-2.385-1.185-2.983-4.158-4.229-6.483c-3.89-1.993-8.438-1.287-11.841-2.819C54.16,75.069,52.794,69.224,48.438,67.04z"></path></g></g></svg>