<svg xmlns="http://www.w3.org/2000/svg" width="500" height="500" version="1.1"><g id="x010"><path style="fill:#6E6E6E;stroke:#000000;stroke-linecap:round;stroke-linejoin:round;" d="M241.837,422.325c0.542-0.692,1.979-2.599,2.046-3.409c0.083-1-1.333-3.166-1.333-3.166h-0.003c0.043-0.599,0.085-1.198,0.117-1.783h-22.029c0.064,0.563,0.132,1.131,0.203,1.699c-0.244,0.444-1.446,2.693-1.371,3.667c0.083,1.083,2.333,3.25,2.333,3.25h0.023c1.671,10.528,3.862,19.969,3.862,19.969s0.744,5.157,1.646,5.458c0.901,0.3,12.326,0.685,12.625-0.451c0.751-2.855-0.824-7.912-0.824-7.912S240.888,429.217,241.837,422.325z"></path><path style="fill:#6E6E6E;stroke:#000000;stroke-linecap:round;stroke-linejoin:round;" d="M279.163,415.666c0.07-0.568,0.14-1.136,0.203-1.699h-22.029c0.032,0.585,0.073,1.185,0.116,1.783h-0.002c0,0-1.417,2.166-1.334,3.166c0.067,0.811,1.502,2.715,2.045,3.408c0.949,6.892,2.706,17.322,2.706,17.322s-1.576,5.057-0.825,7.912c0.299,1.136,11.724,0.751,12.626,0.451c0.901-0.301,1.646-5.458,1.646-5.458s2.191-9.44,3.862-19.969h0.024c0,0,2.25-2.167,2.333-3.25C280.608,418.359,279.406,416.109,279.163,415.666z"></path></g></svg>