<svg xmlns="http://www.w3.org/2000/svg" width="500" height="500" version="1.1"><g id="x011"><g><g><path style="fill:#6E6E6E;stroke:#000000;stroke-linecap:round;stroke-linejoin:round;" d="M242.663,413.967h-22.029c1.514,13.349,5.051,28.585,5.051,28.585s0.744,5.157,1.646,5.458c0.901,0.3,12.326,0.685,12.625-0.451c0.751-2.855-0.824-7.912-0.824-7.912s2.544-15.104,3.163-20.971C242.462,417.087,242.58,415.498,242.663,413.967z"></path><g><path style="fill:#6E6E6E;stroke:#000000;stroke-linecap:round;stroke-linejoin:round;" d="M221.588,408.61c0,0-7.53,4.265-7.729,6.261c2.775,3.902,4.063,4.719,4.063,4.719l2.081-1.27c0,0,5.647,2.087,6.043,2.179c0.396,0.09,4.953-4.266,5.747-4.266c0.792,0,5.449,3.629,5.943,3.992c1.091,0.273,3.567-2.358,3.567-2.358l2.674,1.995c0,0,3.667-4.083,3.964-4.991c-2.873-3.358-5.747-6.352-5.747-6.352L221.588,408.61z"></path><path style="fill:#6E6E6E;stroke:#000000;stroke-linecap:round;stroke-linejoin:round;" d="M220.003,418.32c-0.694-0.271-6.143-3.449-6.143-3.449s3.469,3.902,4.063,4.719C217.922,419.59,219.111,418.411,220.003,418.32z"></path><path style="fill:none;stroke:#000000;stroke-linecap:round;stroke-linejoin:round;" d="M226.245,418.593c0,0,1.585-3.994,1.981-5.263"></path><path style="fill:#6E6E6E;stroke:#000000;stroke-linecap:round;stroke-linejoin:round;" d="M219.948,410.778c0,0-0.07-3.354,0.259-4.237c0.878,0.883,4.938,1.962,11.415,1.962c6.476,0,11.086-1.862,11.086-1.862s0.509,3.68,0.179,4.269"></path><path style="fill:none;stroke:#000000;stroke-linecap:round;stroke-linejoin:round;" d="M222.623,409.543c0.259,0.237,1.815,1.584,8.812,1.584c6.651,0,9.329-1.584,9.329-1.584"></path></g></g><g><g><path style="fill:#6E6E6E;stroke:#000000;stroke-linecap:round;stroke-linejoin:round;" d="M257.337,413.967c0.083,1.531,0.2,3.12,0.367,4.709c0.619,5.866,3.164,20.971,3.164,20.971s-1.576,5.057-0.825,7.912c0.299,1.136,11.724,0.751,12.626,0.451c0.901-0.301,1.646-5.458,1.646-5.458s3.537-15.236,5.052-28.585H257.337z"></path></g><g><path style="fill:#6E6E6E;stroke:#000000;stroke-linecap:round;stroke-linejoin:round;" d="M278.414,408.61c0,0,7.529,4.265,7.728,6.261c-2.774,3.902-4.062,4.719-4.062,4.719l-2.081-1.27c0,0-5.647,2.087-6.044,2.179c-0.396,0.09-4.952-4.266-5.746-4.266c-0.792,0-5.449,3.629-5.943,3.992c-1.091,0.273-3.567-2.358-3.567-2.358l-2.674,1.995c0,0-3.667-4.083-3.964-4.991c2.873-3.358,5.746-6.352,5.746-6.352L278.414,408.61z"></path><path style="fill:#6E6E6E;stroke:#000000;stroke-linecap:round;stroke-linejoin:round;" d="M279.999,418.32c0.694-0.271,6.143-3.449,6.143-3.449s-3.468,3.902-4.062,4.719C282.08,419.59,280.891,418.411,279.999,418.32z"></path><path style="fill:none;stroke:#000000;stroke-linecap:round;stroke-linejoin:round;" d="M273.758,418.593c0,0-1.586-3.994-1.982-5.263"></path><path style="fill:#6E6E6E;stroke:#000000;stroke-linecap:round;stroke-linejoin:round;" d="M280.054,410.778c0,0,0.07-3.354-0.259-4.237c-0.879,0.883-4.939,1.962-11.415,1.962s-11.086-1.862-11.086-1.862s-0.509,3.68-0.179,4.269"></path><path style="fill:none;stroke:#000000;stroke-linecap:round;stroke-linejoin:round;" d="M277.379,409.543c-0.26,0.237-1.814,1.584-8.812,1.584c-6.651,0-9.329-1.584-9.329-1.584"></path></g></g></g></g></svg>