<svg xmlns="http://www.w3.org/2000/svg" width="500" height="500" version="1.1"><g id="x012"><g><g><path style="fill:#6E6E6E;stroke:#000000;stroke-linecap:round;stroke-linejoin:round;" d="M241.456,425h-19.238c1.602,9.514,3.467,17.552,3.467,17.552s0.744,5.157,1.646,5.458c0.901,0.3,12.326,0.685,12.625-0.451c0.751-2.855-0.824-7.912-0.824-7.912S240.483,431.623,241.456,425z"></path><g><path style="fill:#6E6E6E;stroke:#000000;stroke-linecap:round;stroke-linejoin:round;" d="M222.368,419.36c0,0-6.528,4.265-6.7,6.261c2.406,3.902,3.522,4.719,3.522,4.719l1.804-1.27c0,0,4.896,2.087,5.24,2.179c0.344,0.09,4.294-4.266,4.982-4.266c0.687,0,4.724,3.629,5.153,3.992c0.946,0.273,3.093-2.358,3.093-2.358l2.318,1.995c0,0,3.179-4.083,3.437-4.991c-2.491-3.358-4.982-6.352-4.982-6.352L222.368,419.36z"></path><path style="fill:#6E6E6E;stroke:#000000;stroke-linecap:round;stroke-linejoin:round;" d="M220.993,429.07c-0.602-0.271-5.326-3.449-5.326-3.449s3.007,3.902,3.522,4.719C219.189,430.34,220.22,429.161,220.993,429.07z"></path><path style="fill:none;stroke:#000000;stroke-linecap:round;stroke-linejoin:round;" d="M226.405,429.343c0,0,1.375-3.994,1.718-5.263"></path><path style="fill:#6E6E6E;stroke:#000000;stroke-linecap:round;stroke-linejoin:round;" d="M220.008,421.528c0,0-0.069-3.354,0.256-4.237c0.864,0.883,4.861,1.962,11.237,1.962s10.914-1.862,10.914-1.862s0.501,3.68,0.176,4.269"></path><path style="fill:none;stroke:#000000;stroke-linecap:round;stroke-linejoin:round;" d="M223.265,420.293c0.225,0.237,1.573,1.584,7.639,1.584c5.767,0,8.088-1.584,8.088-1.584"></path></g></g><g><g><path style="fill:#6E6E6E;stroke:#000000;stroke-linecap:round;stroke-linejoin:round;" d="M258.544,425c0.973,6.623,2.324,14.646,2.324,14.646s-1.576,5.057-0.825,7.912c0.299,1.136,11.724,0.751,12.626,0.451c0.901-0.301,1.646-5.458,1.646-5.458s1.865-8.038,3.467-17.552H258.544z"></path></g><g><path style="fill:#6E6E6E;stroke:#000000;stroke-linecap:round;stroke-linejoin:round;" d="M277.635,419.36c0,0,6.527,4.265,6.699,6.261c-2.405,3.902-3.521,4.719-3.521,4.719l-1.804-1.27c0,0-4.896,2.087-5.24,2.179c-0.344,0.09-4.293-4.266-4.981-4.266c-0.687,0-4.725,3.629-5.153,3.992c-0.945,0.273-3.093-2.358-3.093-2.358l-2.318,1.995c0,0-3.179-4.083-3.437-4.991c2.491-3.358,4.982-6.352,4.982-6.352L277.635,419.36z"></path><path style="fill:#6E6E6E;stroke:#000000;stroke-linecap:round;stroke-linejoin:round;" d="M279.009,429.07c0.602-0.271,5.325-3.449,5.325-3.449s-3.007,3.902-3.521,4.719C280.813,430.34,279.781,429.161,279.009,429.07z"></path><path style="fill:none;stroke:#000000;stroke-linecap:round;stroke-linejoin:round;" d="M273.598,429.343c0,0-1.375-3.994-1.719-5.263"></path><path style="fill:#6E6E6E;stroke:#000000;stroke-linecap:round;stroke-linejoin:round;" d="M279.993,421.528c0,0,0.07-3.354-0.254-4.237c-0.865,0.883-4.863,1.962-11.238,1.962c-6.374,0-10.913-1.862-10.913-1.862s-0.501,3.68-0.177,4.269"></path><path style="fill:none;stroke:#000000;stroke-linecap:round;stroke-linejoin:round;" d="M276.737,420.293c-0.226,0.237-1.573,1.584-7.64,1.584c-5.767,0-8.088-1.584-8.088-1.584"></path></g></g></g></g></svg>