<svg xmlns="http://www.w3.org/2000/svg" width="500" height="500" version="1.1"><g id="x013"><g><g><g><path style="fill:#6E6E6E;stroke:#000000;stroke-linecap:round;stroke-linejoin:round;" d="M242.697,413.967l-11.351,3.408l-10.679-3.408c1.514,13.349,5.051,28.585,5.051,28.585s0.744,5.157,1.646,5.458c0.901,0.3,12.326,0.685,12.625-0.451c0.751-2.855-0.824-7.912-0.824-7.912s2.544-15.104,3.163-20.971C242.496,417.087,242.614,415.498,242.697,413.967z"></path></g><g><g><path style="fill:#6E6E6E;stroke:#000000;stroke-linecap:round;stroke-linejoin:round;" d="M239.687,436.327c0-0.221,2.424-2.938,2.938-5.362c-0.734-1.104-1.403-3.777-1.403-3.777c1.471-2.058,3.7-5.674,3.994-7.29c0.146-0.734-2.204-2.866-2.204-2.866s1.396-2.058,1.249-2.571c-0.147-0.515-1.543-2.278-1.543-2.278l0.073,1.396c-0.221,0-5.801,1.627-10.944,1.922c-5.144,0.293-11.103-1.101-11.103-1.101l-0.18-1.616c0,0-1.804,0.882-1.951,1.69s1.25,3.013,1.25,3.013s-0.422,4.03-0.642,6.014c1.103,2.353,2.758,4.026,3.025,4.599c-1.029,1.175-2.204,1.688-2.058,2.497c0.147,0.809,3.258,5.438,4.213,6.319"></path><path style="fill:#212121;" d="M221.438,426.188c0,0,3.013,4.188,3.307,4.262c1.91,0.588,8.45-0.588,9.259-1.69c-4.482,0.661-8.33,0.208-9.259-0.367C223.202,427.437,221.438,426.188,221.438,426.188z"></path><path style="fill:#6E6E6E;stroke:#000000;stroke-linecap:round;stroke-linejoin:round;" d="M220.792,425.893c0,0,2.571,4.115,3.674,4.777"></path><path style="fill:none;stroke:#000000;stroke-linecap:round;stroke-linejoin:round;" d="M234.959,428.171c0,0.221-7.128,4.557-12.271,2.058"></path></g></g></g><g><g><path style="fill:#6E6E6E;stroke:#000000;stroke-linecap:round;stroke-linejoin:round;" d="M257.303,413.967l11.351,3.408l10.679-3.408c-1.514,13.349-5.051,28.585-5.051,28.585s-0.744,5.157-1.646,5.458c-0.901,0.3-12.326,0.685-12.625-0.451c-0.751-2.855,0.824-7.912,0.824-7.912s-2.544-15.104-3.163-20.971C257.504,417.087,257.386,415.498,257.303,413.967z"></path></g><g><g><path style="fill:#6E6E6E;stroke:#000000;stroke-linecap:round;stroke-linejoin:round;" d="M260.313,436.327c0-0.221-2.424-2.938-2.938-5.362c0.735-1.104,1.403-3.777,1.403-3.777c-1.471-2.058-3.699-5.674-3.994-7.29c-0.146-0.734,2.205-2.866,2.205-2.866s-1.396-2.058-1.25-2.571c0.147-0.515,1.543-2.278,1.543-2.278l-0.072,1.396c0.221,0,5.801,1.627,10.943,1.922c5.144,0.293,11.103-1.101,11.103-1.101l0.18-1.616c0,0,1.804,0.882,1.951,1.69s-1.249,3.013-1.249,3.013s0.421,4.03,0.641,6.014c-1.102,2.353-2.758,4.026-3.025,4.599c1.029,1.175,2.205,1.688,2.059,2.497c-0.148,0.809-3.258,5.438-4.214,6.319"></path><path style="fill:#212121;" d="M278.562,426.188c0,0-3.013,4.188-3.307,4.262c-1.91,0.588-8.45-0.588-9.258-1.69c4.482,0.661,8.329,0.208,9.258-0.367C276.798,427.437,278.562,426.188,278.562,426.188z"></path><path style="fill:#6E6E6E;stroke:#000000;stroke-linecap:round;stroke-linejoin:round;" d="M279.208,425.893c0,0-2.571,4.115-3.674,4.777"></path><path style="fill:none;stroke:#000000;stroke-linecap:round;stroke-linejoin:round;" d="M265.041,428.171c0,0.221,7.128,4.557,12.271,2.058"></path></g></g></g></g></g></svg>