<svg xmlns="http://www.w3.org/2000/svg" width="500" height="500" version="1.1"><g id="x014"><g><g><path style="fill:#6E6E6E;stroke:#000000;stroke-linecap:round;stroke-linejoin:round;" d="M241.751,423.125h-19.816c1.659,10.309,3.775,19.427,3.775,19.427s0.744,5.157,1.646,5.458c0.901,0.3,12.326,0.685,12.625-0.451c0.751-2.855-0.824-7.912-0.824-7.912S240.783,429.994,241.751,423.125z"></path><g><path style="fill:#6E6E6E;stroke:#000000;stroke-linecap:round;stroke-linejoin:round;" d="M220.777,414.885c0,0-2.076,1.134-2.15,1.938c-0.075,0.804,2.426,9.878,2.538,11.477c-0.506,0.284-2.125,2.856-1.838,3.205c0.287,0.347,2.053,2.714,14.119,2.327c12.065-0.386,11.321-3.574,11.321-3.574l-2.32-1.912c0,0,1.813-11.973,1.664-12.235c-0.15-0.263-1.526-2.073-1.526-2.073l-0.257,2.341c0,0-5.577,0.779-11.741,0.978s-9.542-0.519-9.542-0.519L220.777,414.885z"></path><path style="fill:#212121;" d="M221.689,428.479c0,0,5.04,0.802,9.897,0.711c-3.414,1.603-10.948,0.714-10.948,0.714L221.689,428.479z"></path><g><polyline style="fill:none;stroke:#000000;stroke-linecap:round;stroke-linejoin:round;" points="222.396,417.445 221.215,418.69 222.79,429.014 221.346,432.128 "></polyline><polyline style="fill:none;stroke:#000000;stroke-linecap:round;stroke-linejoin:round;" points="225.504,417.831 224.672,418.898 225.767,429.19 224.672,433.047 "></polyline><polyline style="fill:none;stroke:#000000;stroke-linecap:round;stroke-linejoin:round;" points="228.611,417.949 228.129,419.106 228.742,429.367 227.998,433.432 "></polyline><polyline style="fill:none;stroke:#000000;stroke-linecap:round;stroke-linejoin:round;" points="241.346,416.91 242.528,418.157 240.952,428.479 242.396,431.861 "></polyline><polyline style="fill:none;stroke:#000000;stroke-linecap:round;stroke-linejoin:round;" points="238.239,417.298 239.07,418.365 237.976,428.657 239.07,432.779 "></polyline><polyline style="fill:none;stroke:#000000;stroke-linecap:round;stroke-linejoin:round;" points="235.131,417.416 235.613,418.572 235,428.834 235.744,433.164 "></polyline><polyline style="fill:none;stroke:#000000;stroke-linecap:round;stroke-linejoin:round;" points="231.718,417.8 231.586,419.313 231.718,429.547 231.324,433.284 "></polyline></g></g></g><g><path style="fill:#6E6E6E;stroke:#000000;stroke-linecap:round;stroke-linejoin:round;" d="M258.249,423.125h19.816c-1.659,10.309-3.775,19.427-3.775,19.427s-0.744,5.157-1.646,5.458c-0.901,0.3-12.326,0.685-12.625-0.451c-0.751-2.855,0.824-7.912,0.824-7.912S259.217,429.994,258.249,423.125z"></path><g><path style="fill:#6E6E6E;stroke:#000000;stroke-linecap:round;stroke-linejoin:round;" d="M279.223,414.885c0,0,2.076,1.134,2.15,1.938c0.076,0.804-2.426,9.878-2.537,11.477c0.506,0.284,2.125,2.856,1.838,3.205c-0.287,0.347-2.053,2.714-14.119,2.327c-12.064-0.386-11.321-3.574-11.321-3.574l2.32-1.912c0,0-1.813-11.973-1.664-12.235c0.15-0.263,1.526-2.073,1.526-2.073l0.256,2.341c0,0,5.577,0.779,11.741,0.978s9.542-0.519,9.542-0.519L279.223,414.885z"></path><path style="fill:#212121;" d="M278.311,428.479c0,0-5.039,0.802-9.897,0.711c3.413,1.603,10.948,0.714,10.948,0.714L278.311,428.479z"></path><g><polyline style="fill:none;stroke:#000000;stroke-linecap:round;stroke-linejoin:round;" points="277.604,417.445 278.785,418.69 277.21,429.014 278.654,432.128 "></polyline><polyline style="fill:none;stroke:#000000;stroke-linecap:round;stroke-linejoin:round;" points="274.496,417.831 275.328,418.898 274.233,429.19 275.328,433.047 "></polyline><polyline style="fill:none;stroke:#000000;stroke-linecap:round;stroke-linejoin:round;" points="271.389,417.949 271.871,419.106 271.258,429.367 272.002,433.432 "></polyline><polyline style="fill:none;stroke:#000000;stroke-linecap:round;stroke-linejoin:round;" points="258.654,416.91 257.472,418.157 259.048,428.479 257.604,431.861 "></polyline><polyline style="fill:none;stroke:#000000;stroke-linecap:round;stroke-linejoin:round;" points="261.762,417.298 260.93,418.365 262.023,428.657 260.93,432.779 "></polyline><polyline style="fill:none;stroke:#000000;stroke-linecap:round;stroke-linejoin:round;" points="264.869,417.416 264.387,418.572 265,428.834 264.256,433.164 "></polyline><polyline style="fill:none;stroke:#000000;stroke-linecap:round;stroke-linejoin:round;" points="268.281,417.8 268.414,419.313 268.281,429.547 268.676,433.284 "></polyline></g></g></g></g></g></svg>