<svg xmlns="http://www.w3.org/2000/svg" width="500" height="500" version="1.1"><g id="x015"><g><g><path style="fill:#6E6E6E;stroke:#000000;stroke-linecap:round;stroke-linejoin:round;" d="M244.369,409.834c-0.167-1.167-1.167-3.667-1.167-3.667l-23.333,0.667l0.417,4.833c0,0-1.667,1.917-1.333,2.917s1.833,2.833,1.833,2.833c-0.25,1.834-0.75,3.667-0.25,4.5c0.358,0.596,1.225,2.884,1.691,3.903c1.568,9.15,3.327,16.731,3.327,16.731s0.744,5.157,1.646,5.458c0.901,0.3,12.326,0.685,12.625-0.451c0.751-2.855-0.824-7.912-0.824-7.912l3.202-17.646c0,0,1.5-3.166,1.667-4.5s-1-4-1-4S244.203,410.334,244.369,409.834z"></path><g><path style="fill:#6E6E6E;stroke:#000000;stroke-linecap:round;stroke-linejoin:round;" d="M219.123,392.979c0,0-1.83,1.708-2.049,2.24c-0.217,0.534,0.219,3.306,0.219,3.306s0,7.255,0.217,7.895c0.218,0.639,4.462,3.944,13.823,3.944c9.361,0,11.547-2.346,12.744-3.518c0.324-1.653,0.092-5.206-0.135-7.894c0.435-2.134,0.544-3.626,0.544-3.626l-1.703-2.988l-0.435,2.988c0,0-3.722,2.24-11.45,2.24s-11.45-2.24-11.45-2.24L219.123,392.979z"></path><path style="fill:none;stroke:#000000;stroke-linecap:round;stroke-linejoin:round;" d="M221.233,396.259c0,0-0.854,1.279-0.96,1.707c-0.106,0.426,0.213,9.627,0.213,9.627"></path><path style="fill:none;stroke:#000000;stroke-linecap:round;stroke-linejoin:round;" d="M239.779,396.954l0.923,1.88c-0.107,0.96-0.167,9.799-0.167,9.799"></path><path style="fill:none;stroke:#000000;stroke-linecap:round;stroke-linejoin:round;" d="M226.713,397.667c0,0-0.533,1.278-0.64,1.599c-0.107,0.319,0,10.452,0,10.452"></path><line style="fill:none;stroke:#000000;stroke-linecap:round;stroke-linejoin:round;" x1="233.432" y1="397.993" x2="233.432" y2="409.938"></line></g><path style="fill:none;stroke:#000000;stroke-linecap:round;stroke-linejoin:round;" d="M242.902,413.2c0,0-2,1.999-4.833,3.166"></path><path style="fill:none;stroke:#000000;stroke-linecap:round;stroke-linejoin:round;" d="M242.203,422.001c0,0-1.833-1.167-2.5-1.167s-12,4.667-13.833,4.667"></path></g><g><path style="fill:#6E6E6E;stroke:#000000;stroke-linecap:round;stroke-linejoin:round;" d="M255.631,409.834c0.166-1.167,1.166-3.667,1.166-3.667l23.334,0.667l-0.416,4.833c0,0,1.666,1.917,1.332,2.917c-0.333,1-1.832,2.833-1.832,2.833c0.25,1.834,0.75,3.667,0.25,4.5c-0.358,0.596-1.226,2.884-1.691,3.903c-1.568,9.15-3.327,16.731-3.327,16.731s-0.744,5.157-1.646,5.458c-0.901,0.3-12.326,0.685-12.625-0.451c-0.751-2.855,0.824-7.912,0.824-7.912l-3.202-17.646c0,0-1.5-3.166-1.666-4.5s1-4,1-4S255.797,410.334,255.631,409.834z"></path><g><path style="fill:#6E6E6E;stroke:#000000;stroke-linecap:round;stroke-linejoin:round;" d="M280.877,392.979c0,0,1.83,1.708,2.049,2.24c0.218,0.534-0.219,3.306-0.219,3.306s0,7.255-0.217,7.895c-0.219,0.639-4.463,3.944-13.823,3.944c-9.361,0-11.548-2.346-12.744-3.518c-0.324-1.653-0.093-5.206,0.135-7.894c-0.435-2.134-0.544-3.626-0.544-3.626l1.703-2.988l0.436,2.988c0,0,3.721,2.24,11.449,2.24s11.449-2.24,11.449-2.24L280.877,392.979z"></path><path style="fill:none;stroke:#000000;stroke-linecap:round;stroke-linejoin:round;" d="M278.768,396.259c0,0,0.854,1.279,0.959,1.707c0.107,0.426-0.213,9.627-0.213,9.627"></path><path style="fill:none;stroke:#000000;stroke-linecap:round;stroke-linejoin:round;" d="M260.221,396.954l-0.924,1.88c0.107,0.96,0.167,9.799,0.167,9.799"></path><path style="fill:none;stroke:#000000;stroke-linecap:round;stroke-linejoin:round;" d="M273.287,397.667c0,0,0.533,1.278,0.641,1.599c0.106,0.319,0,10.452,0,10.452"></path><line style="fill:none;stroke:#000000;stroke-linecap:round;stroke-linejoin:round;" x1="266.568" y1="397.993" x2="266.568" y2="409.938"></line></g><path style="fill:none;stroke:#000000;stroke-linecap:round;stroke-linejoin:round;" d="M257.098,413.2c0,0,2,1.999,4.834,3.166"></path><path style="fill:none;stroke:#000000;stroke-linecap:round;stroke-linejoin:round;" d="M257.797,422.001c0,0,1.834-1.167,2.5-1.167c0.668,0,12,4.667,13.834,4.667"></path></g></g></g></svg>