<svg xmlns="http://www.w3.org/2000/svg" width="500" height="500" version="1.1"><g id="x016"><g><path style="fill:#6E6E6E;stroke:#000000;stroke-linecap:round;stroke-linejoin:round;" d="M243.368,407.736c-0.88,0.619-1.899,3.007-2.41,4.32c-0.498-0.89-1.429-2.383-2.55-3.363c-1.446,0.603-2.655,3.927-3.085,5.25c-0.493-0.998-1.855-3.559-3.285-4.552c-1.432,0.434-2.925,3.063-3.555,4.285c-0.359-1.155-1.378-4.018-2.815-4.617c-1.105,0.963-2.268,2.716-2.939,3.813c-0.566-1.425-1.728-4.14-2.626-4.77c-0.002,0.051-0.004,0.101-0.006,0.151c-0.044-0.041-0.087-0.077-0.129-0.106c-0.092,1.962,0,2.417,0,2.417l0.796,2.023c-0.586-0.399-0.664-0.738-0.674-0.818c0.028,4.147,5.629,30.782,5.629,30.782s0.744,5.157,1.646,5.458c0.901,0.3,12.326,0.685,12.625-0.451c0.751-2.855-0.824-7.912-0.824-7.912s2.544-15.104,3.163-20.971c0.152-1.444,0.259-2.883,0.34-4.283c0.152-1.615,0.251-2.739,0.276-3.041c-0.018,0.055,0.423-1.198,0.423-1.198S243.458,409.697,243.368,407.736z M238.542,411.112c0.377,0.302,1.06,1.557,1.285,1.985c-0.642,0.205-1.404,0.397-2.302,0.564C237.771,412.866,238.28,411.299,238.542,411.112z M231.771,411.563c0.374,0.454,0.866,1.663,1.148,2.403h-2.354C230.849,413.204,231.329,412.032,231.771,411.563z M225.53,411.477c0.314,0.224,0.917,2.071,1.052,2.49h-0.477c-0.74-0.074-1.414-0.158-1.982-0.26C224.434,413.12,225.174,411.76,225.53,411.477z"></path><path style="fill:#6E6E6E;stroke:#000000;stroke-linecap:round;stroke-linejoin:round;" d="M256.632,410.153c0,0,0.441,1.253,0.424,1.198c0.025,0.302,0.124,1.426,0.276,3.041c0.081,1.4,0.188,2.839,0.341,4.283c0.619,5.866,3.162,20.971,3.162,20.971s-1.574,5.057-0.824,7.912c0.299,1.136,11.725,0.751,12.625,0.451c0.902-0.301,1.646-5.458,1.646-5.458s5.602-26.635,5.629-30.782c-0.01,0.08-0.087,0.419-0.674,0.818l0.797-2.023c0,0,0.092-0.455,0-2.417c-0.042,0.029-0.086,0.065-0.129,0.106c-0.002-0.051-0.005-0.101-0.007-0.151c-0.898,0.63-2.06,3.345-2.626,4.77c-0.672-1.097-1.834-2.85-2.939-3.813c-1.438,0.6-2.457,3.462-2.815,4.617c-0.63-1.223-2.123-3.852-3.555-4.285c-1.43,0.993-2.792,3.554-3.284,4.552c-0.432-1.323-1.641-4.647-3.086-5.25c-1.121,0.98-2.053,2.474-2.551,3.363c-0.511-1.313-1.529-3.701-2.41-4.32C256.542,409.697,256.632,410.153,256.632,410.153z M262.474,413.662c-0.896-0.167-1.66-0.359-2.301-0.564c0.225-0.429,0.907-1.684,1.285-1.985C261.72,411.299,262.229,412.866,262.474,413.662z M269.435,413.967h-2.354c0.281-0.74,0.773-1.949,1.147-2.403C268.671,412.032,269.151,413.204,269.435,413.967z M275.878,413.707c-0.568,0.102-1.242,0.186-1.982,0.26h-0.477c0.134-0.419,0.737-2.267,1.051-2.49C274.826,411.76,275.565,413.12,275.878,413.707z"></path></g></g></svg>