<svg xmlns="http://www.w3.org/2000/svg" width="500" height="500" version="1.1"><g id="x017"><g><path style="fill:#6E6E6E;stroke:#000000;stroke-linecap:round;stroke-linejoin:round;" d="M243.908,386.781c-0.97,0.683-2.095,3.316-2.658,4.766c-0.55-0.981-1.577-2.628-2.814-3.71c-1.595,0.665-2.928,4.331-3.403,5.791c-0.544-1.101-2.046-3.926-3.623-5.021c-1.579,0.479-3.227,3.378-3.921,4.728c-0.396-1.275-1.521-4.433-3.106-5.094c-1.219,1.063-2.501,2.996-3.243,4.205c-0.625-1.571-1.905-4.566-2.896-5.262c-0.002,0.057-0.005,0.112-0.007,0.168c-0.048-0.046-0.097-0.085-0.143-0.117c-0.102,2.164,0,2.666,0,2.666l0.878,2.231c-0.647-0.44-0.732-0.814-0.744-0.902c0.007,0.973,0.293,3.074,0.737,5.771h0.011c0.436,5.121,0.961,11.415,0.961,12c0,0.908,0.14,2.298,0.663,4.966h-0.029c1.514,13.349,5.051,28.585,5.051,28.585s0.744,5.157,1.646,5.458c0.901,0.3,12.326,0.685,12.625-0.451c0.751-2.855-0.824-7.912-0.824-7.912s2.431-14.709,3.264-20.971c0.242-1.822,0.505-12.279,0.586-21.675h0.01c0.081-0.969,0.152-1.932,0.207-2.877c0.168-1.782,0.277-3.021,0.305-3.354c-0.02,0.06,0.467-1.322,0.467-1.322S244.007,388.944,243.908,386.781z M238.585,390.505c0.416,0.334,1.168,1.718,1.417,2.19c-0.708,0.227-1.549,0.438-2.539,0.622C237.733,392.439,238.296,390.711,238.585,390.505z M231.116,391.003c0.413,0.501,0.956,1.834,1.267,2.651h-2.596C230.099,392.813,230.627,391.521,231.116,391.003z M224.231,390.906c0.346,0.248,1.012,2.286,1.16,2.748h-0.526c-0.816-0.082-1.559-0.175-2.186-0.286C223.022,392.72,223.838,391.219,224.231,390.906z"></path><path style="fill:#6E6E6E;stroke:#000000;stroke-linecap:round;stroke-linejoin:round;" d="M256.092,389.447c0,0,0.487,1.382,0.468,1.322c0.027,0.333,0.136,1.572,0.305,3.354c0.055,0.945,0.126,1.908,0.207,2.877h0.01c0.081,9.396,0.344,19.853,0.586,21.675c0.833,6.262,3.264,20.971,3.264,20.971s-1.575,5.057-0.824,7.912c0.299,1.136,11.724,0.751,12.625,0.451c0.902-0.301,1.646-5.458,1.646-5.458s3.537-10.236,5.051-23.585h-0.029c0.523-2.668,0.663-9.058,0.663-9.966c0-0.585,0.525-6.879,0.961-12h0.012c0.443-2.696,0.729-4.798,0.736-5.771c-0.012,0.088-0.097,0.462-0.744,0.902l0.879-2.231c0,0,0.102-0.502,0-2.666c-0.046,0.032-0.095,0.071-0.143,0.117c-0.002-0.056-0.005-0.111-0.007-0.168c-0.991,0.695-2.272,3.69-2.896,5.262c-0.741-1.209-2.023-3.143-3.243-4.205c-1.584,0.661-2.709,3.818-3.105,5.094c-0.694-1.35-2.342-4.249-3.921-4.728c-1.577,1.095-3.079,3.92-3.623,5.021c-0.476-1.46-1.809-5.126-3.403-5.791c-1.237,1.082-2.264,2.729-2.814,3.71c-0.563-1.449-1.688-4.083-2.658-4.766C255.992,388.944,256.092,389.447,256.092,389.447z M262.536,393.317c-0.989-0.184-1.831-0.396-2.538-0.622c0.248-0.473,1-1.856,1.416-2.19C261.704,390.711,262.267,392.439,262.536,393.317z M270.213,393.654h-2.596c0.312-0.817,0.854-2.15,1.268-2.651C269.373,391.521,269.901,392.813,270.213,393.654z M277.321,393.368c-0.627,0.111-1.37,0.204-2.187,0.286h-0.525c0.147-0.462,0.813-2.5,1.16-2.748C276.162,391.219,276.979,392.72,277.321,393.368z"></path></g></g></svg>