<svg xmlns="http://www.w3.org/2000/svg" width="500" height="500" version="1.1"><g id="x018"><g><g><path style="fill:#FFFFFF;stroke:#000000;stroke-linecap:round;stroke-linejoin:round;" d="M243.038,385.667c-0.5-0.166-4,0.667-12,0.667s-12.533-1-12.533-1s1.533,17.667,1.533,18.667c0,0.908,0.14,7.298,0.663,9.966h-0.029c1.514,13.349,5.051,28.585,5.051,28.585s0.744,5.157,1.646,5.458c0.901,0.3,12.326,0.685,12.625-0.451c0.751-2.855-0.824-7.912-0.824-7.912s2.431-14.709,3.264-20.971C242.749,416.301,243.1,390.75,243.038,385.667z"></path><path style="fill:none;" d="M242.384,402.727c0.033-2.104,0.063-4.224,0.087-6.233c-2.015,0.296-5.988,0.757-11.197,0.757c-5.726,0-9.68-0.512-11.317-0.77c0.216,2.586,0.41,4.977,0.51,6.353c2.143,0.291,5.793,0.666,10.391,0.666C236.042,403.499,240.267,403.021,242.384,402.727z"></path><path style="fill:none;" d="M242.542,388.538c0.003-0.959,0.004-1.769,0-2.378c-0.263,0.021-0.619,0.06-1.002,0.103c-1.796,0.199-5.139,0.571-10.502,0.571c-6.327,0-10.452-0.611-11.978-0.884c0.049,0.566,0.126,1.455,0.219,2.542c1.765,0.282,5.966,0.841,11.579,0.841C236.181,389.333,240.485,388.83,242.542,388.538z"></path><path style="fill:none;" d="M225.573,439.568c0.385,1.786,0.633,2.861,0.644,2.912c0.315,2.187,0.925,4.725,1.337,5.061c1.254,0.359,10.928,0.476,11.976-0.208c0.646-2.702-0.823-7.489-0.838-7.538c-0.023-0.074-0.028-0.153-0.016-0.229c0.001-0.008,0.01-0.061,0.023-0.139c-2.01,0.179-4.526,0.321-7.425,0.321C229.107,439.748,227.204,439.674,225.573,439.568z"></path><path style="fill:none;" d="M220.671,414.467c0.072,0,0.142-0.016,0.206-0.045C220.812,414.449,220.741,414.467,220.671,414.467z"></path><path style="fill:none;" d="M231.274,411.416c-4.886,0-8.478-0.372-10.447-0.642c0.093,1.202,0.211,2.318,0.364,3.096c0.01,0.054,0,0.105-0.01,0.158c0.118,1.027,0.248,2.066,0.387,3.109c2.196,0.259,5.402,0.527,9.289,0.527c4.928,0,8.98-0.431,11.188-0.727c0.065-1.451,0.128-3.651,0.188-6.246C240.154,410.988,236.291,411.416,231.274,411.416z"></path><path style="fill:none;" d="M222.793,425.173c0.379,2.236,0.771,4.386,1.15,6.369c1.919,0.163,4.255,0.289,6.914,0.289c3.667,0,6.849-0.239,9.15-0.483c0.326-2.043,0.673-4.244,0.993-6.327c-2.217,0.269-5.576,0.562-9.727,0.562C227.718,425.582,224.854,425.385,222.793,425.173z"></path><path style="fill:#6E6E6E;" d="M242.471,396.493c0.037-3.066,0.062-5.869,0.07-7.955c-2.057,0.292-6.36,0.795-11.684,0.795c-5.612,0-9.814-0.559-11.579-0.841c0.189,2.199,0.445,5.202,0.678,7.988c1.638,0.258,5.591,0.77,11.317,0.77C236.483,397.25,240.456,396.789,242.471,396.493z"></path><path style="fill:#6E6E6E;" d="M242.233,410.692c0.055-2.422,0.106-5.176,0.151-7.966c-2.117,0.295-6.343,0.772-11.527,0.772c-4.597,0-8.248-0.375-10.391-0.666c0.044,0.616,0.071,1.034,0.071,1.168c0,0.547,0.069,3.911,0.29,6.773c1.969,0.27,5.561,0.642,10.447,0.642C236.291,411.416,240.154,410.988,242.233,410.692z"></path><path style="fill:#6E6E6E;" d="M221.568,417.138c0.36,2.698,0.782,5.423,1.225,8.035c2.06,0.212,4.924,0.409,8.48,0.409c4.15,0,7.509-0.293,9.727-0.562c0.376-2.452,0.715-4.74,0.937-6.411c0.036-0.271,0.072-0.858,0.108-1.671c-2.208,0.296-6.26,0.727-11.188,0.727C226.971,417.665,223.764,417.396,221.568,417.138z"></path><path style="fill:#6E6E6E;" d="M223.943,431.542c0.625,3.271,1.209,6.075,1.63,8.026c1.631,0.105,3.534,0.18,5.701,0.18c2.899,0,5.415-0.143,7.425-0.321c0.114-0.694,0.67-4.077,1.309-8.079c-2.301,0.244-5.484,0.483-9.15,0.483C228.199,431.831,225.863,431.705,223.943,431.542z"></path></g><g><path style="fill:#FFFFFF;stroke:#000000;stroke-linecap:round;stroke-linejoin:round;" d="M256.964,385.667c0.5-0.166,4,0.667,12,0.667s12.533-1,12.533-1s-1.533,17.667-1.533,18.667c0,0.908-0.14,7.298-0.663,9.966h0.029c-1.514,13.349-5.051,28.585-5.051,28.585s-0.744,5.157-1.646,5.458c-0.901,0.3-12.326,0.685-12.625-0.451c-0.751-2.855,0.824-7.912,0.824-7.912s-2.431-14.709-3.264-20.971C257.253,416.301,256.901,390.75,256.964,385.667z"></path><path style="fill:none;" d="M257.617,402.727c-0.033-2.104-0.063-4.224-0.087-6.233c2.016,0.296,5.988,0.757,11.197,0.757c5.727,0,9.68-0.512,11.317-0.77c-0.216,2.586-0.41,4.977-0.511,6.353c-2.143,0.291-5.793,0.666-10.391,0.666C263.96,403.499,259.734,403.021,257.617,402.727z"></path><path style="fill:none;" d="M257.46,388.538c-0.004-0.959-0.004-1.769,0-2.378c0.263,0.021,0.619,0.06,1.002,0.103c1.795,0.199,5.139,0.571,10.502,0.571c6.327,0,10.452-0.611,11.979-0.884c-0.05,0.566-0.127,1.455-0.22,2.542c-1.765,0.282-5.966,0.841-11.579,0.841C263.82,389.333,259.517,388.83,257.46,388.538z"></path><path style="fill:none;" d="M274.429,439.568c-0.385,1.786-0.633,2.861-0.645,2.912c-0.315,2.187-0.926,4.725-1.337,5.061c-1.255,0.359-10.928,0.476-11.976-0.208c-0.646-2.702,0.822-7.489,0.838-7.538c0.023-0.074,0.028-0.153,0.016-0.229c-0.001-0.008-0.01-0.061-0.023-0.139c2.011,0.179,4.527,0.321,7.426,0.321C270.894,439.748,272.798,439.674,274.429,439.568z"></path><path style="fill:none;" d="M279.33,414.467c-0.071,0-0.142-0.016-0.206-0.045C279.19,414.449,279.261,414.467,279.33,414.467z"></path><path style="fill:none;" d="M268.728,411.416c4.886,0,8.479-0.372,10.447-0.642c-0.094,1.202-0.212,2.318-0.365,3.096c-0.01,0.054,0.001,0.105,0.01,0.158c-0.117,1.027-0.247,2.066-0.387,3.109c-2.195,0.259-5.402,0.527-9.289,0.527c-4.928,0-8.98-0.431-11.188-0.727c-0.065-1.451-0.129-3.651-0.188-6.246C259.848,410.988,263.71,411.416,268.728,411.416z"></path><path style="fill:none;" d="M277.208,425.173c-0.379,2.236-0.771,4.386-1.15,6.369c-1.919,0.163-4.255,0.289-6.914,0.289c-3.666,0-6.849-0.239-9.15-0.483c-0.326-2.043-0.672-4.244-0.992-6.327c2.217,0.269,5.576,0.562,9.727,0.562C272.284,425.582,275.147,425.385,277.208,425.173z"></path><path style="fill:#6E6E6E;" d="M257.53,396.493c-0.037-3.066-0.063-5.869-0.07-7.955c2.057,0.292,6.36,0.795,11.684,0.795c5.613,0,9.814-0.559,11.579-0.841c-0.188,2.199-0.445,5.202-0.678,7.988c-1.638,0.258-5.591,0.77-11.317,0.77C263.519,397.25,259.546,396.789,257.53,396.493z"></path><path style="fill:#6E6E6E;" d="M257.769,410.692c-0.056-2.422-0.107-5.176-0.151-7.966c2.117,0.295,6.343,0.772,11.526,0.772c4.598,0,8.248-0.375,10.391-0.666c-0.044,0.616-0.07,1.034-0.07,1.168c0,0.547-0.069,3.911-0.289,6.773c-1.969,0.27-5.562,0.642-10.447,0.642C263.71,411.416,259.848,410.988,257.769,410.692z"></path><path style="fill:#6E6E6E;" d="M278.433,417.138c-0.359,2.698-0.781,5.423-1.225,8.035c-2.061,0.212-4.924,0.409-8.48,0.409c-4.15,0-7.51-0.293-9.727-0.562c-0.376-2.452-0.715-4.74-0.938-6.411c-0.035-0.271-0.072-0.858-0.107-1.671c2.207,0.296,6.26,0.727,11.188,0.727C273.03,417.665,276.237,417.396,278.433,417.138z"></path><path style="fill:#6E6E6E;" d="M276.058,431.542c-0.624,3.271-1.209,6.075-1.629,8.026c-1.631,0.105-3.535,0.18-5.701,0.18c-2.898,0-5.415-0.143-7.426-0.321c-0.113-0.694-0.67-4.077-1.309-8.079c2.302,0.244,5.484,0.483,9.15,0.483C271.803,431.831,274.139,431.705,276.058,431.542z"></path></g></g></g></svg>