<svg xmlns="http://www.w3.org/2000/svg" width="500" height="500" version="1.1"><g id="x020"><g><path style="fill:#6E6E6E;stroke:#000000;stroke-linecap:round;stroke-linejoin:round;" d="M231.731,377.692c0-0.152-3.517,0-3.517,0c-0.157,0.314-0.233,5.391-0.167,11.558h3.683C231.731,383.146,231.731,377.759,231.731,377.692z"></path><path style="fill:#6E6E6E;stroke:#000000;stroke-linecap:round;stroke-linejoin:round;" d="M216.597,357.36c0,0,14.37,4.28,33.327,4.28c0,2.293-1.224,7.796-6.88,7.796c-1.07,3.518-3.058,6.727-8.255,6.115c-1.224,1.836-1.804,4.7-6.88,3.975c-5.351-0.763-5.198-5.809-5.198-5.809s-5.351-0.306-4.127-6.421c-1.683-3.058-2.446-5.044-2.446-5.044L216.597,357.36z"></path><path style="fill:#6E6E6E;stroke:#000000;stroke-linecap:round;stroke-linejoin:round;" d="M271.784,377.692c0,0-3.516-0.152-3.516,0c0,0.066,0,5.454,0,11.558h3.683C272.018,383.083,271.941,378.007,271.784,377.692z"></path><path style="fill:#6E6E6E;stroke:#000000;stroke-linecap:round;stroke-linejoin:round;" d="M283.404,357.36c0,0-14.371,4.28-33.327,4.28c0,2.293,1.223,7.796,6.879,7.796c1.069,3.518,3.058,6.727,8.256,6.115c1.223,1.836,1.802,4.7,6.878,3.975c5.352-0.763,5.198-5.809,5.198-5.809s5.352-0.306,4.129-6.421c1.682-3.058,2.445-5.044,2.445-5.044L283.404,357.36z"></path></g><g><g><g style="opacity:0.8;"><path style="fill:#6E6E6E;stroke:#000000;stroke-linecap:round;stroke-linejoin:round;" d="M243.048,385.667c-0.5-0.166-4,0.667-12,0.667s-12.533-1-12.533-1s1.533,17.667,1.533,18.667c0,0.908,0.14,7.298,0.663,9.966h-0.029c1.514,13.349,5.051,28.585,5.051,28.585s0.744,5.157,1.646,5.458c0.901,0.3,12.326,0.685,12.625-0.451c0.751-2.855-0.824-7.912-0.824-7.912s2.431-14.709,3.264-20.971C242.759,416.301,243.111,390.75,243.048,385.667z"></path></g><g><path style="fill:none;stroke:#000000;stroke-linecap:round;stroke-linejoin:round;" d="M243.048,385.667c-0.5-0.166-4,0.667-12,0.667s-12.533-1-12.533-1s1.533,17.667,1.533,18.667c0,0.908,0.14,7.298,0.663,9.966h-0.029c1.514,13.349,5.051,28.585,5.051,28.585s0.744,5.157,1.646,5.458c0.901,0.3,12.326,0.685,12.625-0.451c0.751-2.855-0.824-7.912-0.824-7.912s2.431-14.709,3.264-20.971C242.759,416.301,243.111,390.75,243.048,385.667z"></path></g><g><g><line style="fill:none;stroke:#000000;stroke-linecap:round;stroke-linejoin:round;" x1="219.035" y1="390.249" x2="223.304" y2="385.981"></line><line style="fill:none;stroke:#000000;stroke-linecap:round;stroke-linejoin:round;" x1="219.41" y1="395.251" x2="228.307" y2="386.354"></line><line style="fill:none;stroke:#000000;stroke-linecap:round;stroke-linejoin:round;" x1="219.889" y1="400.146" x2="233.618" y2="386.419"></line><line style="fill:none;stroke:#000000;stroke-linecap:round;stroke-linejoin:round;" x1="220.056" y1="405.354" x2="239.331" y2="386.08"></line><line style="fill:none;stroke:#000000;stroke-linecap:round;stroke-linejoin:round;" x1="220.37" y1="410.416" x2="242.889" y2="387.896"></line><line style="fill:none;stroke:#000000;stroke-linecap:round;stroke-linejoin:round;" x1="220.932" y1="415.227" x2="243.013" y2="393.146"></line><line style="fill:none;stroke:#000000;stroke-linecap:round;stroke-linejoin:round;" x1="221.473" y1="420.062" x2="242.807" y2="398.729"></line><line style="fill:none;stroke:#000000;stroke-linecap:round;stroke-linejoin:round;" x1="222.224" y1="424.686" x2="242.846" y2="404.063"></line><line style="fill:none;stroke:#000000;stroke-linecap:round;stroke-linejoin:round;" x1="223.015" y1="429.271" x2="242.826" y2="409.46"></line><line style="fill:none;stroke:#000000;stroke-linecap:round;stroke-linejoin:round;" x1="223.785" y1="433.875" x2="242.597" y2="415.063"></line><line style="fill:none;stroke:#000000;stroke-linecap:round;stroke-linejoin:round;" x1="224.743" y1="438.291" x2="242.202" y2="420.833"></line><line style="fill:none;stroke:#000000;stroke-linecap:round;stroke-linejoin:round;" x1="225.743" y1="442.666" x2="241.18" y2="427.229"></line><line style="fill:none;stroke:#000000;stroke-linecap:round;stroke-linejoin:round;" x1="226.701" y1="447.085" x2="240.184" y2="433.602"></line><line style="fill:none;stroke:#000000;stroke-linecap:round;stroke-linejoin:round;" x1="230.889" y1="448.271" x2="239.287" y2="439.873"></line><line style="fill:none;stroke:#000000;stroke-linecap:round;stroke-linejoin:round;" x1="236.409" y1="448.126" x2="240.098" y2="444.437"></line></g><g><line style="fill:none;stroke:#000000;stroke-linecap:round;stroke-linejoin:round;" x1="242.931" y1="396.396" x2="232.971" y2="386.437"></line><line style="fill:none;stroke:#000000;stroke-linecap:round;stroke-linejoin:round;" x1="242.827" y1="401.667" x2="227.513" y2="386.353"></line><line style="fill:none;stroke:#000000;stroke-linecap:round;stroke-linejoin:round;" x1="242.701" y1="406.916" x2="221.599" y2="385.814"></line><line style="fill:none;stroke:#000000;stroke-linecap:round;stroke-linejoin:round;" x1="242.723" y1="412.313" x2="218.807" y2="388.397"></line><line style="fill:none;stroke:#000000;stroke-linecap:round;stroke-linejoin:round;" x1="242.573" y1="417.538" x2="219.348" y2="394.313"></line><line style="fill:none;stroke:#000000;stroke-linecap:round;stroke-linejoin:round;" x1="241.949" y1="422.289" x2="219.832" y2="400.171"></line><line style="fill:none;stroke:#000000;stroke-linecap:round;stroke-linejoin:round;" x1="241.242" y1="426.957" x2="220.053" y2="405.769"></line><line style="fill:none;stroke:#000000;stroke-linecap:round;stroke-linejoin:round;" x1="240.556" y1="431.646" x2="220.512" y2="411.602"></line><line style="fill:none;stroke:#000000;stroke-linecap:round;stroke-linejoin:round;" x1="239.786" y1="436.252" x2="221.161" y2="417.626"></line><line style="fill:none;stroke:#000000;stroke-linecap:round;stroke-linejoin:round;" x1="239.556" y1="441.396" x2="222.348" y2="424.188"></line><line style="fill:none;stroke:#000000;stroke-linecap:round;stroke-linejoin:round;" x1="240.076" y1="447.292" x2="223.218" y2="430.434"></line><line style="fill:none;stroke:#000000;stroke-linecap:round;stroke-linejoin:round;" x1="235.721" y1="448.311" x2="224.572" y2="437.162"></line><line style="fill:none;stroke:#000000;stroke-linecap:round;stroke-linejoin:round;" x1="230.286" y1="448.252" x2="225.928" y2="443.895"></line></g></g><path style="fill:#6E6E6E;stroke:#000000;stroke-linecap:round;stroke-linejoin:round;" d="M218.515,385.334l0.52,6.166c0,0,2,0.951,12.25,0.951s11.8-0.951,11.8-0.951l0.2-6.5c0,0-4,0.75-12,0.75S218.515,385.334,218.515,385.334z"></path></g><g><g style="opacity:0.8;"><path style="fill:#6E6E6E;stroke:#000000;stroke-linecap:round;stroke-linejoin:round;" d="M256.951,385.667c0.5-0.166,4,0.667,12,0.667s12.533-1,12.533-1s-1.533,17.667-1.533,18.667c0,0.908-0.14,7.298-0.663,9.966h0.029c-1.514,13.349-5.051,28.585-5.051,28.585s-0.744,5.157-1.646,5.458c-0.901,0.3-12.326,0.685-12.625-0.451c-0.751-2.855,0.824-7.912,0.824-7.912s-2.431-14.709-3.264-20.971C257.24,416.301,256.889,390.75,256.951,385.667z"></path></g><g><path style="fill:none;stroke:#000000;stroke-linecap:round;stroke-linejoin:round;" d="M256.951,385.667c0.5-0.166,4,0.667,12,0.667s12.533-1,12.533-1s-1.533,17.667-1.533,18.667c0,0.908-0.14,7.298-0.663,9.966h0.029c-1.514,13.349-5.051,28.585-5.051,28.585s-0.744,5.157-1.646,5.458c-0.901,0.3-12.326,0.685-12.625-0.451c-0.751-2.855,0.824-7.912,0.824-7.912s-2.431-14.709-3.264-20.971C257.24,416.301,256.889,390.75,256.951,385.667z"></path></g><g><g><line style="fill:none;stroke:#000000;stroke-linecap:round;stroke-linejoin:round;" x1="280.965" y1="390.249" x2="276.695" y2="385.981"></line><line style="fill:none;stroke:#000000;stroke-linecap:round;stroke-linejoin:round;" x1="280.59" y1="395.251" x2="271.693" y2="386.354"></line><line style="fill:none;stroke:#000000;stroke-linecap:round;stroke-linejoin:round;" x1="280.11" y1="400.146" x2="266.382" y2="386.419"></line><line style="fill:none;stroke:#000000;stroke-linecap:round;stroke-linejoin:round;" x1="279.943" y1="405.354" x2="260.668" y2="386.08"></line><line style="fill:none;stroke:#000000;stroke-linecap:round;stroke-linejoin:round;" x1="279.63" y1="410.416" x2="257.11" y2="387.896"></line><line style="fill:none;stroke:#000000;stroke-linecap:round;stroke-linejoin:round;" x1="279.068" y1="415.227" x2="256.986" y2="393.146"></line><line style="fill:none;stroke:#000000;stroke-linecap:round;stroke-linejoin:round;" x1="278.527" y1="420.062" x2="257.193" y2="398.729"></line><line style="fill:none;stroke:#000000;stroke-linecap:round;stroke-linejoin:round;" x1="277.775" y1="424.686" x2="257.154" y2="404.063"></line><line style="fill:none;stroke:#000000;stroke-linecap:round;stroke-linejoin:round;" x1="276.984" y1="429.271" x2="257.174" y2="409.46"></line><line style="fill:none;stroke:#000000;stroke-linecap:round;stroke-linejoin:round;" x1="276.215" y1="433.875" x2="257.402" y2="415.063"></line><line style="fill:none;stroke:#000000;stroke-linecap:round;stroke-linejoin:round;" x1="275.257" y1="438.291" x2="257.798" y2="420.833"></line><line style="fill:none;stroke:#000000;stroke-linecap:round;stroke-linejoin:round;" x1="274.256" y1="442.666" x2="258.82" y2="427.229"></line><line style="fill:none;stroke:#000000;stroke-linecap:round;stroke-linejoin:round;" x1="273.299" y1="447.085" x2="259.815" y2="433.602"></line><line style="fill:none;stroke:#000000;stroke-linecap:round;stroke-linejoin:round;" x1="269.11" y1="448.271" x2="260.713" y2="439.873"></line><line style="fill:none;stroke:#000000;stroke-linecap:round;stroke-linejoin:round;" x1="263.59" y1="448.126" x2="259.901" y2="444.437"></line></g><g><line style="fill:none;stroke:#000000;stroke-linecap:round;stroke-linejoin:round;" x1="257.068" y1="396.396" x2="267.028" y2="386.437"></line><line style="fill:none;stroke:#000000;stroke-linecap:round;stroke-linejoin:round;" x1="257.172" y1="401.667" x2="272.486" y2="386.353"></line><line style="fill:none;stroke:#000000;stroke-linecap:round;stroke-linejoin:round;" x1="257.299" y1="406.916" x2="278.4" y2="385.814"></line><line style="fill:none;stroke:#000000;stroke-linecap:round;stroke-linejoin:round;" x1="257.276" y1="412.313" x2="281.192" y2="388.397"></line><line style="fill:none;stroke:#000000;stroke-linecap:round;stroke-linejoin:round;" x1="257.426" y1="417.538" x2="280.652" y2="394.313"></line><line style="fill:none;stroke:#000000;stroke-linecap:round;stroke-linejoin:round;" x1="258.051" y1="422.289" x2="280.168" y2="400.171"></line><line style="fill:none;stroke:#000000;stroke-linecap:round;stroke-linejoin:round;" x1="258.758" y1="426.957" x2="279.946" y2="405.769"></line><line style="fill:none;stroke:#000000;stroke-linecap:round;stroke-linejoin:round;" x1="259.443" y1="431.646" x2="279.487" y2="411.602"></line><line style="fill:none;stroke:#000000;stroke-linecap:round;stroke-linejoin:round;" x1="260.213" y1="436.252" x2="278.839" y2="417.626"></line><line style="fill:none;stroke:#000000;stroke-linecap:round;stroke-linejoin:round;" x1="260.443" y1="441.396" x2="277.652" y2="424.188"></line><line style="fill:none;stroke:#000000;stroke-linecap:round;stroke-linejoin:round;" x1="259.924" y1="447.292" x2="276.781" y2="430.434"></line><line style="fill:none;stroke:#000000;stroke-linecap:round;stroke-linejoin:round;" x1="264.279" y1="448.311" x2="275.428" y2="437.162"></line><line style="fill:none;stroke:#000000;stroke-linecap:round;stroke-linejoin:round;" x1="269.713" y1="448.252" x2="274.071" y2="443.895"></line></g></g><path style="fill:#6E6E6E;stroke:#000000;stroke-linecap:round;stroke-linejoin:round;" d="M281.484,385.334l-0.52,6.166c0,0-2,0.951-12.25,0.951s-11.8-0.951-11.8-0.951l-0.2-6.5c0,0,4,0.75,12,0.75S281.484,385.334,281.484,385.334z"></path></g></g></g></svg>