<svg xmlns="http://www.w3.org/2000/svg" width="500" height="500" version="1.1"><g id="x021"><g><g><path style="fill:#6E6E6E;stroke:#000000;stroke-linecap:round;stroke-linejoin:round;" d="M224.662,439.25c0,0,6.23,2.002,14.974-0.5c0.119-2.625,1.11-7.413,1.11-7.413s-12.359,3.271-17.722,0.096C223.711,435.5,224.662,439.25,224.662,439.25z"></path><path style="fill:#6E6E6E;stroke:#000000;stroke-linecap:round;stroke-linejoin:round;" d="M222.657,431.049c0,0,12.12-0.193,19.641-7.792c0.365-2.507,0.49-7.408,0.49-7.408s-10.59,6.927-20.827,8.466C221.392,426.335,222.657,431.049,222.657,431.049z"></path><path style="fill:#6E6E6E;stroke:#000000;stroke-linecap:round;stroke-linejoin:round;" d="M223.314,392.857c0,0,6.734,3.271,19.432,3.463c0.289,1.636,0.289,7.312,0.289,7.312s-17.604-0.866-20.297-3.463C222.833,396.417,223.314,392.857,223.314,392.857z"></path><path style="fill:#6E6E6E;stroke:#000000;stroke-linecap:round;stroke-linejoin:round;" d="M220.169,412.771c0,0,10.03,3.559,22.778-0.386c0.21-2.693,0.105-6.734,0.105-6.734s-12.896,2.502-22.356-0.288C220.064,409.02,220.169,412.771,220.169,412.771z"></path><g><g><path style="fill:#6E6E6E;stroke:#000000;stroke-linecap:round;stroke-linejoin:round;" d="M220.236,406.71c0,0-6.638,26.744-6.926,32.227c-1.058-2.789-3.463-2.597-5.387-0.866c1.924-5.963,5.099-15.391,6.445-17.893c1.54-4.713,1.731-9.619,2.694-11.64C218.216,407.384,220.236,406.71,220.236,406.71z"></path><g><path style="fill:#6E6E6E;stroke:#000000;stroke-linecap:round;stroke-linejoin:round;" d="M218.504,416.785c0,0,1.65,18.646,2.642,20.716c-1.446,2.916-4.211,4.787-4.211,4.787s-1.39-10.948,0.32-18.875C217.34,420.515,218.504,416.785,218.504,416.785z"></path><path style="fill:#6E6E6E;stroke:#000000;stroke-linecap:round;stroke-linejoin:round;" d="M219.085,405.608c0,0-1.678,7.72-1.887,10.037c-0.442,4.89-0.073,5.035-0.299,9.759c1.325-7.2,1.007-5.799,2.526-8.984c2.134-4.476,2.53-9.76,2.845-10.688C221.523,404.761,219.085,405.608,219.085,405.608z"></path></g></g><g><path style="fill:#6E6E6E;stroke:#000000;stroke-linecap:round;stroke-linejoin:round;" d="M220.525,394.974c0,0-0.962-3.463-3.656-5.002c-2.501,2.309-3.078,7.118-2.693,8.657c0.385,1.54,1.539,3.464,1.539,3.464s-2.02,2.886-1.635,5.194c1.058,1.443,2.309,3.656,3.367,3.752c1.058,0.097,2.501-4.81,2.79-6.445C220.429,401.9,220.525,394.974,220.525,394.974z"></path><path style="fill:#6E6E6E;stroke:#000000;stroke-linecap:round;stroke-linejoin:round;" d="M218.697,398.342c0,0-1.635,1.634-1.635,2.597c0,0.962,1.154,3.271,1.827,3.366c1.058-1.25,1.54-2.116,1.54-2.116L218.697,398.342z"></path><g><path style="fill:#6E6E6E;stroke:#000000;stroke-linecap:round;stroke-linejoin:round;" d="M218.504,396.417c0.097-0.674,2.982-6.156,5.58-6.926c2.501,2.886,3.271,6.829,2.693,8.08c-0.577,1.251-2.116,4.329-2.116,4.329s1.443,4.617,0.77,5.867c-0.673,1.252-0.962,2.982-2.02,3.368c-1.058,0.384-3.752-2.116-4.81-5.772c-0.385-1.347,0.385-4.041,0.385-4.041S218.409,397.09,218.504,396.417z"></path><path style="fill:none;stroke:#000000;stroke-linecap:round;stroke-linejoin:round;" d="M219.082,401.228c0,0,1.347-2.982,2.982-3.752"></path></g></g></g></g><g><path style="fill:#6E6E6E;stroke:#000000;stroke-linecap:round;stroke-linejoin:round;" d="M275.338,439.25c0,0-6.23,2.002-14.973-0.5c-0.119-2.625-1.111-7.413-1.111-7.413s12.359,3.271,17.723,0.096C276.289,435.5,275.338,439.25,275.338,439.25z"></path><path style="fill:#6E6E6E;stroke:#000000;stroke-linecap:round;stroke-linejoin:round;" d="M277.344,431.049c0,0-12.119-0.193-19.641-7.792c-0.365-2.507-0.49-7.408-0.49-7.408s10.59,6.927,20.826,8.466C278.609,426.335,277.344,431.049,277.344,431.049z"></path><path style="fill:#6E6E6E;stroke:#000000;stroke-linecap:round;stroke-linejoin:round;" d="M276.686,392.857c0,0-6.733,3.271-19.432,3.463c-0.289,1.636-0.289,7.312-0.289,7.312s17.604-0.866,20.298-3.463C277.167,396.417,276.686,392.857,276.686,392.857z"></path><path style="fill:#6E6E6E;stroke:#000000;stroke-linecap:round;stroke-linejoin:round;" d="M279.831,412.771c0,0-10.03,3.559-22.778-0.386c-0.21-2.693-0.104-6.734-0.104-6.734s12.896,2.502,22.356-0.288C279.936,409.02,279.831,412.771,279.831,412.771z"></path><g><g><path style="fill:#6E6E6E;stroke:#000000;stroke-linecap:round;stroke-linejoin:round;" d="M279.764,406.71c0,0,6.638,26.744,6.927,32.227c1.058-2.789,3.463-2.597,5.387-0.866c-1.924-5.963-5.099-15.391-6.445-17.893c-1.539-4.713-1.731-9.619-2.693-11.64C281.785,407.384,279.764,406.71,279.764,406.71z"></path><g><path style="fill:#6E6E6E;stroke:#000000;stroke-linecap:round;stroke-linejoin:round;" d="M281.496,416.785c0,0-1.649,18.646-2.642,20.716c1.446,2.916,4.212,4.787,4.212,4.787s1.389-10.948-0.32-18.875C282.66,420.515,281.496,416.785,281.496,416.785z"></path><path style="fill:#6E6E6E;stroke:#000000;stroke-linecap:round;stroke-linejoin:round;" d="M280.916,405.608c0,0,1.678,7.72,1.887,10.037c0.441,4.89,0.072,5.035,0.299,9.759c-1.324-7.2-1.007-5.799-2.525-8.984c-2.135-4.476-2.531-9.76-2.846-10.688C278.477,404.761,280.916,405.608,280.916,405.608z"></path></g></g><g><path style="fill:#6E6E6E;stroke:#000000;stroke-linecap:round;stroke-linejoin:round;" d="M279.476,394.974c0,0,0.962-3.463,3.655-5.002c2.501,2.309,3.078,7.118,2.693,8.657c-0.385,1.54-1.539,3.464-1.539,3.464s2.021,2.886,1.636,5.194c-1.059,1.443-2.309,3.656-3.366,3.752c-1.059,0.097-2.502-4.81-2.791-6.445C279.572,401.9,279.476,394.974,279.476,394.974z"></path><path style="fill:#6E6E6E;stroke:#000000;stroke-linecap:round;stroke-linejoin:round;" d="M281.303,398.342c0,0,1.636,1.634,1.636,2.597c0,0.962-1.153,3.271-1.827,3.366c-1.059-1.25-1.539-2.116-1.539-2.116L281.303,398.342z"></path><g><path style="fill:#6E6E6E;stroke:#000000;stroke-linecap:round;stroke-linejoin:round;" d="M281.496,396.417c-0.097-0.674-2.982-6.156-5.58-6.926c-2.501,2.886-3.271,6.829-2.693,8.08s2.117,4.329,2.117,4.329s-1.443,4.617-0.771,5.867c0.673,1.252,0.962,2.982,2.021,3.368c1.058,0.384,3.752-2.116,4.81-5.772c0.386-1.347-0.385-4.041-0.385-4.041S281.592,397.09,281.496,396.417z"></path><path style="fill:none;stroke:#000000;stroke-linecap:round;stroke-linejoin:round;" d="M280.918,401.228c0,0-1.346-2.982-2.982-3.752"></path></g></g></g></g></g></g></svg>