<svg xmlns="http://www.w3.org/2000/svg" width="500" height="500" version="1.1"><g id="a022"><g><g><g><path style="fill:#6E6E6E;stroke:#000000;stroke-linecap:round;stroke-linejoin:round;" d="M242.688,413.967c-0.001,0.017-0.002,0.034-0.003,0.051C242.707,413.986,242.688,413.967,242.688,413.967z"></path><path style="fill:#6E6E6E;stroke:#000000;stroke-linecap:round;stroke-linejoin:round;" d="M239.16,439.657c0-0.002-0.003-0.011-0.003-0.011s2.544-15.104,3.163-20.971c0.165-1.571,0.282-3.143,0.365-4.658c-0.108,0.154-1.217,0.607-10.546,0.607c-11.238,0-11.479-0.658-11.479-0.658c1.216,10.72,3.734,22.649,4.68,26.936C229.519,437.658,234.779,437.717,239.16,439.657z"></path><path style="fill:#6E6E6E;stroke:#000000;stroke-linecap:round;stroke-linejoin:round;" d="M241.863,421.188c0,0,0.063,3.938,0.938,5.313s0.25,3,0.25,3l-3.5,1.5l-1.5-0.375"></path><path style="fill:#505050;" d="M224.775,433.813c0,0,2.688-1.438,5.125-2.938c-0.75-0.563-4.875,0.625-4.875,0.625s-0.75,1.25-0.813,1.438S224.775,433.813,224.775,433.813z"></path><path style="fill:#6E6E6E;stroke:#000000;stroke-linecap:round;stroke-linejoin:round;" d="M221.9,419.375c0,0-0.375,5.25-0.375,5.875s-0.875,3.375-0.625,4.5s2.5,2.375,3.125,2.625c0.875-1.875,1-1.375,1-1.375s4.896-0.5,9.063-0.834"></path><path style="fill:#6E6E6E;stroke:#000000;stroke-linecap:round;stroke-linejoin:round;" d="M221.192,417.583c0,0-0.833,1.583-0.833,2s0.833,1.333,1.416,1.583c0.584,0.25,1.75-0.25,10-0.25s10.75-0.333,10.75-0.333s0.917-0.749,0.917-1.083s-0.833-1.667-0.833-1.667"></path><path style="fill:none;stroke:#000000;stroke-linecap:round;stroke-linejoin:round;" d="M227.087,439.813c-0.75-0.125-2.125-0.75-2.125-0.75s-0.563-1.688-0.5-2.063s1.5-3.75,1.5-3.75l-0.688-2.438c0,0-1.625-1.063-1.625-1.875s0.438-3.563,0.438-3.563l-0.063-4.188c0,0-0.938-1-1-1.688s0.5-1.75,0.5-1.75s0-2,0-2.188c0,0,0.188-0.563,0.438-0.875"></path><path style="fill:none;stroke:#000000;stroke-linecap:round;stroke-linejoin:round;" d="M227.712,414.875l-0.625,1.063l0.063,2.188c0,0-0.438,1.063-0.438,1.5s0.625,1.25,0.625,1.25s0.063,4.063,0.063,4.375s-0.25,3.125-0.188,3.438s1.125,1.375,1.125,1.375l0.625,3.25"></path><path style="fill:none;stroke:#000000;stroke-linecap:round;stroke-linejoin:round;" d="M231.337,414.875l-0.063,3.375c0,0,0.188,2.125,0.188,2.375s0.125,5.625,0.188,6.125s0.125,1.688,0.188,2s0.063,1,0.063,1l0.25,3.313"></path><path style="fill:none;stroke:#000000;stroke-linecap:round;stroke-linejoin:round;" d="M236.15,414.875c0,0,0.188,0.75,0.188,1.063s0,1.125,0,1.125l0.188,3.563L235.962,421c0,0,0.188,4.875,0.188,5.25s0.688,1.938,0.688,2.313S236.65,430,236.65,430l0.188,3.125"></path><path style="fill:none;stroke:#000000;stroke-linecap:round;stroke-linejoin:round;" d="M240.275,414.688l0.188,0.938v2c0,0,1,0.688,0.938,1.375s-1.063,1.75-1.063,1.75l-0.563,0.125c0,0,0.25,4.313,0.375,4.875s0.875,1,0.938,1.75s0.188,2-0.063,2.5s-1.125,1-1.125,1s0.75,1.938,0.813,2.75"></path></g><g><path style="fill:#6E6E6E;stroke:#000000;stroke-linecap:round;stroke-linejoin:round;" d="M224.4,433.688c0,0-2.375,2.5-2.375,3.25s0.438,2.938,0.438,2.938l2.625,1.125c0,0,3.563-0.959,8.5-1.084c4.688-0.119,7.938,1.521,7.938,1.521s1-2.375,1.125-3.125s-1.125-2-1.25-2.875s1.25-1.75,1.25-2.25s-1.25-3.75-1.875-3.875"></path><path style="fill:#505050;" d="M222.9,439.438c0,0-0.5-2.25-0.313-2.563s2.063,0.313,2.625,0.313s2.938,0.625,2.375,1.063s-2.563,2-3.125,1.938S222.9,439.438,222.9,439.438z"></path><path style="fill:#505050;" d="M242.025,437.375c0,0-1.125-1.313-1.125-1.813s0.75-1.75,0.75-1.75s-4.563,0.25-5.563,0.875S241.212,436.938,242.025,437.375z"></path><path style="fill:none;stroke:#000000;stroke-linecap:round;stroke-linejoin:round;" d="M225.962,433.156c0,0-1.469,2.813-1.531,3.344s0.188,1.969,0.406,2.25s2.156,1.094,2.156,1.094"></path><path style="fill:none;stroke:#000000;stroke-linecap:round;stroke-linejoin:round;" d="M228.712,432.469c0,0-0.5,3.344-0.469,3.906s-0.063,1.822,0.094,2.041s1.917,1.084,1.917,1.084"></path><path style="fill:none;stroke:#000000;stroke-linecap:round;stroke-linejoin:round;" d="M232.119,431.531c0,0-0.281,4.406-0.25,4.938s0.938,2.51,1.219,2.947"></path><path style="fill:none;stroke:#000000;stroke-linecap:round;stroke-linejoin:round;" d="M236.65,430.281c0,0,1.219,1.594,1.063,2.406s-0.594,1.969-0.594,1.969s0,0.438,0.188,0.719s1.031,1.281,1.094,1.75s-0.927,2.688-1.146,2.875"></path></g></g><g><g><path style="fill:#6E6E6E;stroke:#000000;stroke-linecap:round;stroke-linejoin:round;" d="M257.315,413.967c0.001,0.017,0.003,0.034,0.003,0.051C257.297,413.986,257.315,413.967,257.315,413.967z"></path><path style="fill:#6E6E6E;stroke:#000000;stroke-linecap:round;stroke-linejoin:round;" d="M260.844,439.657c0-0.002,0.003-0.011,0.003-0.011s-2.544-15.104-3.163-20.971c-0.165-1.571-0.282-3.143-0.365-4.658c0.108,0.154,1.218,0.607,10.547,0.607c11.238,0,11.479-0.658,11.479-0.658c-1.216,10.72-3.734,22.649-4.681,26.936C270.484,437.658,265.225,437.717,260.844,439.657z"></path><path style="fill:#6E6E6E;stroke:#000000;stroke-linecap:round;stroke-linejoin:round;" d="M258.141,421.188c0,0-0.063,3.938-0.938,5.313s-0.25,3-0.25,3l3.5,1.5l1.5-0.375"></path><path style="fill:#505050;" d="M275.229,433.813c0,0-2.688-1.438-5.125-2.938c0.75-0.563,4.875,0.625,4.875,0.625s0.75,1.25,0.813,1.438S275.229,433.813,275.229,433.813z"></path><path style="fill:#6E6E6E;stroke:#000000;stroke-linecap:round;stroke-linejoin:round;" d="M278.104,419.375c0,0,0.375,5.25,0.375,5.875s0.875,3.375,0.625,4.5s-2.5,2.375-3.125,2.625c-0.875-1.875-1-1.375-1-1.375s-4.896-0.5-9.063-0.834"></path><path style="fill:#6E6E6E;stroke:#000000;stroke-linecap:round;stroke-linejoin:round;" d="M278.812,417.583c0,0,0.833,1.583,0.833,2s-0.833,1.333-1.416,1.583c-0.584,0.25-1.75-0.25-10-0.25s-10.75-0.333-10.75-0.333s-0.917-0.749-0.917-1.083s0.833-1.667,0.833-1.667"></path><path style="fill:none;stroke:#000000;stroke-linecap:round;stroke-linejoin:round;" d="M272.916,439.813c0.75-0.125,2.125-0.75,2.125-0.75s0.563-1.688,0.5-2.063s-1.5-3.75-1.5-3.75l0.688-2.438c0,0,1.625-1.063,1.625-1.875s-0.438-3.563-0.438-3.563l0.063-4.188c0,0,0.938-1,1-1.688s-0.5-1.75-0.5-1.75s0-2,0-2.188c0,0-0.188-0.563-0.438-0.875"></path><path style="fill:none;stroke:#000000;stroke-linecap:round;stroke-linejoin:round;" d="M272.291,414.875l0.625,1.063l-0.063,2.188c0,0,0.438,1.063,0.438,1.5s-0.625,1.25-0.625,1.25s-0.063,4.063-0.063,4.375s0.25,3.125,0.188,3.438s-1.125,1.375-1.125,1.375l-0.625,3.25"></path><path style="fill:none;stroke:#000000;stroke-linecap:round;stroke-linejoin:round;" d="M268.666,414.875l0.063,3.375c0,0-0.188,2.125-0.188,2.375s-0.125,5.625-0.188,6.125s-0.125,1.688-0.188,2s-0.063,1-0.063,1l-0.25,3.313"></path><path style="fill:none;stroke:#000000;stroke-linecap:round;stroke-linejoin:round;" d="M263.854,414.875c0,0-0.188,0.75-0.188,1.063s0,1.125,0,1.125l-0.188,3.563l0.563,0.375c0,0-0.188,4.875-0.188,5.25s-0.688,1.938-0.688,2.313s0.188,1.438,0.188,1.438l-0.188,3.125"></path><path style="fill:none;stroke:#000000;stroke-linecap:round;stroke-linejoin:round;" d="M259.729,414.688l-0.188,0.938v2c0,0-1,0.688-0.938,1.375s1.063,1.75,1.063,1.75l0.563,0.125c0,0-0.25,4.313-0.375,4.875s-0.875,1-0.938,1.75s-0.188,2,0.063,2.5s1.125,1,1.125,1s-0.75,1.938-0.813,2.75"></path></g><g><path style="fill:#6E6E6E;stroke:#000000;stroke-linecap:round;stroke-linejoin:round;" d="M275.604,433.688c0,0,2.375,2.5,2.375,3.25s-0.438,2.938-0.438,2.938L274.916,441c0,0-3.563-0.959-8.5-1.084c-4.688-0.119-7.938,1.521-7.938,1.521s-1-2.375-1.125-3.125s1.125-2,1.25-2.875s-1.25-1.75-1.25-2.25s1.25-3.75,1.875-3.875"></path><path style="fill:#505050;" d="M277.104,439.438c0,0,0.5-2.25,0.313-2.563s-2.063,0.313-2.625,0.313s-2.938,0.625-2.375,1.063s2.563,2,3.125,1.938S277.104,439.438,277.104,439.438z"></path><path style="fill:#505050;" d="M257.979,437.375c0,0,1.125-1.313,1.125-1.813s-0.75-1.75-0.75-1.75s4.563,0.25,5.563,0.875S258.791,436.938,257.979,437.375z"></path><path style="fill:none;stroke:#000000;stroke-linecap:round;stroke-linejoin:round;" d="M274.041,433.156c0,0,1.469,2.813,1.531,3.344s-0.188,1.969-0.406,2.25s-2.156,1.094-2.156,1.094"></path><path style="fill:none;stroke:#000000;stroke-linecap:round;stroke-linejoin:round;" d="M271.291,432.469c0,0,0.5,3.344,0.469,3.906s0.063,1.822-0.094,2.041s-1.916,1.084-1.916,1.084"></path><path style="fill:none;stroke:#000000;stroke-linecap:round;stroke-linejoin:round;" d="M267.885,431.531c0,0,0.281,4.406,0.25,4.938s-0.938,2.51-1.219,2.947"></path><path style="fill:none;stroke:#000000;stroke-linecap:round;stroke-linejoin:round;" d="M263.354,430.281c0,0-1.219,1.594-1.063,2.406s0.594,1.969,0.594,1.969s0,0.438-0.188,0.719s-1.031,1.281-1.094,1.75s0.928,2.688,1.146,2.875"></path></g></g></g></g></svg>