<svg xmlns="http://www.w3.org/2000/svg" width="500" height="500" version="1.1"><g id="x023"><g><path style="fill:#6E6E6E;stroke:#000000;stroke-linecap:round;stroke-linejoin:round;" d="M242.647,395.375c-0.677,1.467-2.116,2.573-3.493,3.35c0.07-1.908-0.265-4.067-0.757-5.475c-0.879,3.341-3.3,5.44-4.661,6.395c-3.027-1.014-7.839-6.27-0.589-10.27c-8.25-2.5-12.375,0.5-14.125,4c3.5-0.125,5.25,1.875,3.125,5.625c3.625,0.375,4,1.5,3.75,2.5c-0.996,3.982-5.984,2.75-5.984,2.75c0.018,1.483,0.172,7.224,0.661,9.717h-0.029c1.514,13.349,5.051,28.585,5.051,28.585s0.744,5.157,1.646,5.458c0.901,0.3,12.326,0.685,12.625-0.451c0.751-2.855-0.824-7.912-0.824-7.912s2.431-14.709,3.264-20.971C242.457,417.548,243.147,402.75,242.647,395.375z M237.563,405.25l-0.75-4.125l5.625,3.25L237.563,405.25z"></path><path style="fill:#6E6E6E;stroke:#000000;stroke-linecap:round;stroke-linejoin:round;" d="M257.691,418.676c0.833,6.262,3.264,20.971,3.264,20.971s-1.575,5.057-0.824,7.912c0.299,1.136,11.724,0.751,12.625,0.451c0.902-0.301,1.646-5.458,1.646-5.458s3.537-15.236,5.051-28.585h-0.029c0.489-2.493,0.643-8.233,0.661-9.717c0,0-4.989,1.232-5.984-2.75c-0.25-1,0.125-2.125,3.75-2.5c-2.125-3.75-0.375-5.75,3.125-5.625c-1.75-3.5-5.875-6.5-14.125-4c7.25,4,2.438,9.256-0.589,10.27c-1.361-0.954-3.781-3.054-4.661-6.395c-0.492,1.407-0.827,3.566-0.757,5.475c-1.377-0.776-2.816-1.883-3.493-3.35C256.851,402.75,257.541,417.548,257.691,418.676z M257.561,404.375l5.625-3.25l-0.75,4.125L257.561,404.375z"></path></g></g></svg>