<svg xmlns="http://www.w3.org/2000/svg" width="500" height="500" version="1.1"><g id="x024"><g><g><path style="fill:#6E6E6E;" d="M242.798,401.25h-23.063c0.117,1.486,0.193,2.529,0.193,2.751c0,0.908,0.14,7.298,0.663,9.966h-0.029c1.514,13.349,5.051,28.585,5.051,28.585s0.744,5.157,1.646,5.458c0.901,0.3,12.326,0.685,12.625-0.451c0.751-2.855-0.824-7.912-0.824-7.912s2.431-14.709,3.264-20.971C242.495,417.384,242.677,409.233,242.798,401.25z"></path><path style="opacity:0.5;fill:none;stroke:#FFFFFF;stroke-linecap:round;stroke-linejoin:round;" d="M224.082,401.583c0,0,0.75,31.084,3.5,38.167c0.5,3.416,0.75,7,1.333,7.833"></path><path style="opacity:0.5;fill:none;stroke:#FFFFFF;stroke-linecap:round;stroke-linejoin:round;" d="M228.915,401.583c0,0.5,0.75,32.249,2.333,38.833c0.5,4.084,0.75,7.083,1.083,7.75"></path><path style="opacity:0.5;fill:none;stroke:#FFFFFF;stroke-linecap:round;stroke-linejoin:round;" d="M234.915,401.5c0,0.25-0.05,38.75-0.05,38.75s0.584,7,0.417,7.583"></path><path style="opacity:0.5;fill:none;stroke:#FFFFFF;stroke-linecap:round;stroke-linejoin:round;" d="M240.832,401.5c0,0-0.833,33.249-1.583,36.333"></path><path style="fill:none;stroke:#000000;stroke-linecap:round;stroke-linejoin:round;" d="M242.798,401.25h-23.063c0.117,1.486,0.193,2.529,0.193,2.751c0,0.908,0.14,7.298,0.663,9.966h-0.029c1.514,13.349,5.051,28.585,5.051,28.585s0.744,5.157,1.646,5.458c0.901,0.3,12.326,0.685,12.625-0.451c0.751-2.855-0.824-7.912-0.824-7.912s2.431-14.709,3.264-20.971C242.495,417.384,242.677,409.233,242.798,401.25z"></path></g><g><path style="fill:#6E6E6E;" d="M257.203,401.25h23.063c-0.117,1.486-0.192,2.529-0.192,2.751c0,0.908-0.141,7.298-0.664,9.966h0.029c-1.514,13.349-5.051,28.585-5.051,28.585s-0.744,5.157-1.646,5.458c-0.9,0.3-12.326,0.685-12.625-0.451c-0.75-2.855,0.824-7.912,0.824-7.912s-2.43-14.709-3.264-20.971C257.506,417.384,257.323,409.233,257.203,401.25z"></path><path style="opacity:0.5;fill:none;stroke:#FFFFFF;stroke-linecap:round;stroke-linejoin:round;" d="M275.919,401.583c0,0-0.75,31.084-3.5,38.167c-0.5,3.416-0.749,7-1.332,7.833"></path><path style="opacity:0.5;fill:none;stroke:#FFFFFF;stroke-linecap:round;stroke-linejoin:round;" d="M271.087,401.583c0,0.5-0.75,32.249-2.334,38.833c-0.5,4.084-0.75,7.083-1.084,7.75"></path><path style="opacity:0.5;fill:none;stroke:#FFFFFF;stroke-linecap:round;stroke-linejoin:round;" d="M265.087,401.5c0,0.25,0.05,38.75,0.05,38.75s-0.584,7-0.417,7.583"></path><path style="opacity:0.5;fill:none;stroke:#FFFFFF;stroke-linecap:round;stroke-linejoin:round;" d="M259.169,401.5c0,0,0.834,33.249,1.584,36.333"></path><path style="fill:none;stroke:#000000;stroke-linecap:round;stroke-linejoin:round;" d="M257.203,401.25h23.063c-0.117,1.486-0.192,2.529-0.192,2.751c0,0.908-0.141,7.298-0.664,9.966h0.029c-1.514,13.349-5.051,28.585-5.051,28.585s-0.744,5.157-1.646,5.458c-0.9,0.3-12.326,0.685-12.625-0.451c-0.75-2.855,0.824-7.912,0.824-7.912s-2.43-14.709-3.264-20.971C257.506,417.384,257.323,409.233,257.203,401.25z"></path></g></g></g></svg>