<svg xmlns="http://www.w3.org/2000/svg" width="500" height="500" version="1.1"><g id="x025"><g><g><path style="fill:#6E6E6E;" d="M242.946,385.667c-0.5-0.166-4,0.667-12,0.667s-12.533-1-12.533-1s1.533,17.667,1.533,18.667c0,0.908,0.14,7.298,0.663,9.966h-0.029c1.514,13.349,5.051,28.585,5.051,28.585s0.744,5.157,1.646,5.458c0.901,0.3,12.326,0.685,12.625-0.451c0.751-2.855-0.824-7.912-0.824-7.912s2.431-14.709,3.264-20.971C242.657,416.301,243.009,390.75,242.946,385.667z"></path><path style="opacity:0.5;fill:none;stroke:#FFFFFF;stroke-linecap:round;stroke-linejoin:round;" d="M223.266,386.167c0,0-1.5,18.666,0.667,47.5"></path><path style="opacity:0.5;fill:none;stroke:#FFFFFF;stroke-linecap:round;stroke-linejoin:round;" d="M227.599,386.167c0,0-0.533,32.999,1.634,61.833"></path><path style="opacity:0.5;fill:none;stroke:#FFFFFF;stroke-linecap:round;stroke-linejoin:round;" d="M232.266,386.167c0,0,0.917,33.28,1.083,61.78"></path><path style="opacity:0.5;fill:none;stroke:#FFFFFF;stroke-linecap:round;stroke-linejoin:round;" d="M236.799,386.167c0,0,0.917,32.583,1.083,61.083"></path><path style="opacity:0.5;fill:none;stroke:#FFFFFF;stroke-linecap:round;stroke-linejoin:round;" d="M241.433,386.167c0,0,0.26,17.688-0.2,39.164"></path><path style="fill:none;stroke:#000000;stroke-linecap:round;stroke-linejoin:round;" d="M242.946,385.667c-0.5-0.166-4,0.667-12,0.667s-12.533-1-12.533-1s1.533,17.667,1.533,18.667c0,0.908,0.14,7.298,0.663,9.966h-0.029c1.514,13.349,5.051,28.585,5.051,28.585s0.744,5.157,1.646,5.458c0.901,0.3,12.326,0.685,12.625-0.451c0.751-2.855-0.824-7.912-0.824-7.912s2.431-14.709,3.264-20.971C242.657,416.301,243.009,390.75,242.946,385.667z"></path></g><g><path style="fill:#6E6E6E;" d="M257.055,385.667c0.5-0.166,4,0.667,12,0.667s12.533-1,12.533-1s-1.533,17.667-1.533,18.667c0,0.908-0.14,7.298-0.663,9.966h0.029c-1.514,13.349-5.051,28.585-5.051,28.585s-0.744,5.157-1.646,5.458c-0.901,0.3-12.326,0.685-12.625-0.451c-0.751-2.855,0.824-7.912,0.824-7.912s-2.431-14.709-3.264-20.971C257.344,416.301,256.992,390.75,257.055,385.667z"></path><path style="opacity:0.5;fill:none;stroke:#FFFFFF;stroke-linecap:round;stroke-linejoin:round;" d="M276.735,386.167c0,0,1.5,18.666-0.667,47.5"></path><path style="opacity:0.5;fill:none;stroke:#FFFFFF;stroke-linecap:round;stroke-linejoin:round;" d="M272.401,386.167c0,0,0.533,32.999-1.633,61.833"></path><path style="opacity:0.5;fill:none;stroke:#FFFFFF;stroke-linecap:round;stroke-linejoin:round;" d="M267.735,386.167c0,0-0.917,33.28-1.084,61.78"></path><path style="opacity:0.5;fill:none;stroke:#FFFFFF;stroke-linecap:round;stroke-linejoin:round;" d="M263.202,386.167c0,0-0.917,32.583-1.084,61.083"></path><path style="opacity:0.5;fill:none;stroke:#FFFFFF;stroke-linecap:round;stroke-linejoin:round;" d="M258.568,386.167c0,0-0.261,17.688,0.2,39.164"></path><path style="fill:none;stroke:#000000;stroke-linecap:round;stroke-linejoin:round;" d="M257.055,385.667c0.5-0.166,4,0.667,12,0.667s12.533-1,12.533-1s-1.533,17.667-1.533,18.667c0,0.908-0.14,7.298-0.663,9.966h0.029c-1.514,13.349-5.051,28.585-5.051,28.585s-0.744,5.157-1.646,5.458c-0.901,0.3-12.326,0.685-12.625-0.451c-0.751-2.855,0.824-7.912,0.824-7.912s-2.431-14.709-3.264-20.971C257.344,416.301,256.992,390.75,257.055,385.667z"></path></g></g></g></svg>