<svg xmlns="http://www.w3.org/2000/svg" width="500" height="500" version="1.1"><g id="x026"><g><path style="fill:#6E6E6E;stroke:#000000;stroke-linecap:round;stroke-linejoin:round;" d="M261.531,409.121c-0.775-0.447-1.851-3.555-0.828-4.577c1.023-1.023,11.736-2.775,12.467-1.46c0.73,1.314,1.12,3.652,0.098,4.527C272.174,408.547,262.798,409.852,261.531,409.121z"></path><path style="fill:#FFFFFF;stroke:#000000;stroke-linecap:round;stroke-linejoin:round;" d="M269.32,406.929c0.03,0.201-0.106,0.386-0.306,0.416l-3.282,0.497c-0.197,0.032-0.384-0.106-0.414-0.305l-0.383-2.516c-0.029-0.2,0.105-0.385,0.306-0.415l3.283-0.499c0.197-0.03,0.384,0.107,0.412,0.306L269.32,406.929z"></path></g></g></svg>