<svg xmlns="http://www.w3.org/2000/svg" width="500" height="500" version="1.1"><g id="x9027"><g><g><path style="fill:#6E6E6E;stroke:#000000;stroke-width:0.75;stroke-linecap:round;stroke-linejoin:round;" d="M235.667,400.501c-0.75,0-2.812-0.678-4.582-1.344c-1.215,0.77-5.376,1.278-8.085,0.313c1.223-0.27,5.611-1.396,5.611-1.396s2.722-5.322,8.176-6.755c1.962,1.016,2.296,2.933,1.879,4.849c-1.384,0.23-3.2-1.204-3.2-1.204s-3.592,2.264-0.967,3.389c1.25,0.625,5.149-1.085,5.149-1.085S237.583,399.334,235.667,400.501z"></path><path style="fill:#6E6E6E;stroke:#000000;stroke-width:0.75;stroke-linecap:round;stroke-linejoin:round;" d="M238.982,397.859c0,0,2.435-2.508,3.29-4.966c0.652-1.874,1.52-2.725,2.895-2.143c1.167,1.666,1,3.5,0.708,5.101c-1.34,1.42-3.292,2.935-3.542,2.75c2.75-3.268,2.276-5.594,2.276-5.594S243.167,396.602,238.982,397.859z"></path><g><path style="fill:#6E6E6E;stroke:#000000;stroke-width:0.75;stroke-linecap:round;stroke-linejoin:round;" d="M222.848,399.889c0,0-2.704,0.214-4.098-0.889c-2-2.25-2.375-4.166-2.333-6.416c-0.333,1.125,0.268,5.032,0.268,5.032s-1.684-2.116-1.954-4.719c-0.155-1.497,2.659-5.545,4.415-5.199c2.052,3.092,1.503,7.727,1.503,7.727s0.602-2.091,2.702-2.92c3.326-1.313,6.012,0.65,6.012,0.65S229.083,398.75,222.848,399.889z"></path><path style="fill:#6E6E6E;stroke:#000000;stroke-width:0.75;stroke-linecap:round;stroke-linejoin:round;" d="M220.648,395.425c0,0-0.246,1.992,2.281,1.838c1.571-0.096,2.071-1.847,0.404-2.43"></path></g></g><g><g><path style="fill:#6E6E6E;stroke:#000000;stroke-width:0.75;stroke-linecap:round;stroke-linejoin:round;" d="M281.262,411.693c1.418-3.109,1.238-3.85,1.238-3.85s-1.156-3.156-1.688-4.031c-0.031,0.844-0.125,2.594-0.208,3.076c-1.396,1.255-3.483,3.032-4.131,3.049c-1.003,0.025-4.158-4.187-9.733-3.883c-6.654,0.362-5.286,4.885-5.286,4.885c-0.305,0.008-2.895-0.358-4.858-1.273c0.123-0.916,0.029-2.947,0.029-3.635c-0.938,1.438-2.088,2.813-2.281,3.406s0.656,2.313,1.444,3.771c0.586,0.36,5.072,1.497,5.371,1.864c0.299,0.368-0.662,1.643-1.075,2.153c-1.955,0.316-4.09,1.211-4.09,1.211s-0.827,2.396,0.84,3.73c0.678-1.143,2.999-2.501,2.999-2.501l0.256,3.665c0,0,1.615,1.26,2.911,2.001c-0.67,1.393-3.855,2.547-4.724,2.318c-0.597-0.735-1.39-2.025-1.39-2.025l1.697,8.207c0,0,0.661,1.422,2.813,1.493c-2.063-2.493-1.729-5.076-1.729-5.076s3.411-0.469,4.463-3.371c0.736,0.607,2.181,0.946,2.181,0.946s-3.453,3.963,0.75,5.358c-1.478-2.017,0.444-3.825,2.737-3.945c4.58-0.24,3.785,4.845-1.215,6.679c-3.836,1.407-7.26-2.84-7.26-2.84s3.177,4.256,7.01,5.173c1.334-0.083,9.417-2.667,10.621-11.041c-1.289,2.833-5.037,5.041-5.037,5.041l1.167-4.083c0,0-1.646-1.386-2.94-1.739c0,0,1.627-2.792,1.111-5.404c-1.838,4.727-5.382,4.807-6.672,4.56c-1.999-2-1.833-5.416-1.416-6.916c1-1.75,3.327-4.06,7.666-2.917c-0.401,0.885-0.405,4.122,0.548,4.77s6.338,2.022,6.338,2.022s1.146-1.541,0.717-3.833c-0.155-0.372-5.682-0.338-5.853-1.209c-0.173-0.871,0.584-3.917,0.584-3.917S280.566,412.336,281.262,411.693z M264.106,413.124c0,0-1.19-2.374,0.144-4.291c0.285-0.41,5.917-2.333,8.389,2.201C267.322,410.667,264.106,413.124,264.106,413.124z"></path></g></g></g></g></svg>