<svg xmlns="http://www.w3.org/2000/svg" width="500" height="500" version="1.1"><g id="x9028"><g><g><rect x="229.401" y="366.001" style="fill:#6E6E6E;stroke:#000000;stroke-linecap:round;stroke-linejoin:round;" width="3.667" height="26.332"></rect><path style="fill:#6E6E6E;stroke:#000000;stroke-linecap:round;stroke-linejoin:round;" d="M243.334,389c0,0-1.569,0.332-2.355,2.666c-1.57,0-2.551,1.834-2.747,2.667c-1.962,0-2.551,0.333-2.551,0.333s0-2.167-2.354-2.5c-0.173-1.027-0.805-2.568-2.159-2.809c-1.354,0.24-1.986,1.781-2.159,2.809c-2.354,0.333-2.354,2.5-2.354,2.5s-0.589-0.333-2.551-0.333c-0.196-0.833-1.178-2.667-2.748-2.667C220.57,389.332,219,389,219,389s1.083,22.168,1.75,26.918s3.466,20.083,3.8,22.333s1.45,9.001,2.45,9.667s10.75,0.584,13.083-0.25c0.5-2.25-0.8-8.417-0.8-8.417s2.967-15.499,3.3-21.833S243.334,389,243.334,389z M231.217,394.917l-2.25-0.417c0,0,1.083-1.583,2.25-1.833c1.167,0.25,2.25,1.833,2.25,1.833L231.217,394.917z"></path></g><g><rect x="266.934" y="366.001" style="fill:#6E6E6E;stroke:#000000;stroke-linecap:round;stroke-linejoin:round;" width="3.666" height="26.332"></rect><path style="fill:#6E6E6E;stroke:#000000;stroke-linecap:round;stroke-linejoin:round;" d="M257.416,417.418c0.334,6.334,3.301,21.833,3.301,21.833s-1.301,6.167-0.801,8.417c2.334,0.834,12.084,0.916,13.084,0.25s2.117-7.417,2.451-9.667c0.332-2.25,3.133-17.583,3.799-22.333S281,389,281,389s-1.568,0.332-2.355,2.666c-1.568,0-2.551,1.834-2.746,2.667c-1.963,0-2.551,0.333-2.551,0.333s0-2.167-2.355-2.5c-0.174-1.027-0.805-2.568-2.158-2.809c-1.355,0.24-1.986,1.781-2.16,2.809c-2.354,0.333-2.354,2.5-2.354,2.5s-0.59-0.333-2.551-0.333c-0.197-0.833-1.178-2.667-2.748-2.667c-0.785-2.334-2.355-2.666-2.355-2.666S257.084,411.084,257.416,417.418z M266.533,394.5c0,0,1.084-1.583,2.25-1.833c1.166,0.25,2.25,1.833,2.25,1.833l-2.25,0.417L266.533,394.5z"></path></g></g></g></svg>