<svg xmlns="http://www.w3.org/2000/svg" width="500" height="500" version="1.1"><g id="x9029"><g><g><path style="fill:#6E6E6E;stroke:#000000;stroke-linecap:round;stroke-linejoin:round;" d="M239.783,431.645c0,0,0.866-1.505,2.102-4.137c-2.392-2.986-3.876-0.229-5.129-0.597c-1.509-1.616-3.376-0.23-5.247,0.405c-2.76-1.734-3.38-0.731-5.247,0.654c-1.385-1.742-3.883-1.479-5-0.097c0.128,0.499,3.021,3.857,3.021,3.857s-1.361,2.383-1.859,2.761s0.513,2.247,2.389,2.486c1.248-0.382,1.997-0.636,1.997-0.636s0.51,1.747,2.634,1.61s2.743-1.141,2.743-1.141s0.508,1.372,2.757,1.234c2.25-0.138,2.992-1.392,2.992-1.392s1.132,1.118,2.504,0.61c1.372-0.507,2.612-2.265,2.612-2.265L239.783,431.645z"></path><path style="fill:#505050;" d="M226.098,432.438c0,0-1.25,2.625-0.438,2.75s2.563-2.375,2.563-2.375L226.098,432.438z"></path><path style="fill:#505050;" d="M230.723,433.25c0,0,0.75,2.5,1.5,2.25s1.063-2.563,1.063-2.563L230.723,433.25z"></path><path style="fill:#505050;" d="M236.348,432.813c0,0,1.25,2.625,2,2.188s0.188-3,0.188-3L236.348,432.813z"></path><path style="fill:none;stroke:#000000;stroke-linecap:round;stroke-linejoin:round;" d="M226.535,431.875c0,0,2.125,0.938,6.375,0.938s6-0.688,6-0.688"></path></g><g><path style="fill:#6E6E6E;stroke:#000000;stroke-linecap:round;stroke-linejoin:round;" d="M260.217,431.645c0,0-0.866-1.505-2.102-4.137c2.393-2.986,3.877-0.229,5.129-0.597c1.509-1.616,3.376-0.23,5.248,0.405c2.76-1.734,3.379-0.731,5.246,0.654c1.385-1.742,3.883-1.479,5-0.097c-0.127,0.499-3.021,3.857-3.021,3.857s1.361,2.383,1.859,2.761s-0.512,2.247-2.389,2.486c-1.248-0.382-1.996-0.636-1.996-0.636s-0.51,1.747-2.635,1.61c-2.124-0.137-2.743-1.141-2.743-1.141s-0.508,1.372-2.757,1.234c-2.25-0.138-2.992-1.392-2.992-1.392s-1.131,1.118-2.504,0.61c-1.372-0.507-2.612-2.265-2.612-2.265L260.217,431.645z"></path><path style="fill:#505050;" d="M273.902,432.438c0,0,1.25,2.625,0.438,2.75s-2.563-2.375-2.563-2.375L273.902,432.438z"></path><path style="fill:#505050;" d="M269.277,433.25c0,0-0.75,2.5-1.5,2.25s-1.063-2.563-1.063-2.563L269.277,433.25z"></path><path style="fill:#505050;" d="M263.652,432.813c0,0-1.25,2.625-2,2.188s-0.188-3-0.188-3L263.652,432.813z"></path><path style="fill:none;stroke:#000000;stroke-linecap:round;stroke-linejoin:round;" d="M273.465,431.875c0,0-2.125,0.938-6.375,0.938s-6-0.688-6-0.688"></path></g></g></g></svg>