<svg xmlns="http://www.w3.org/2000/svg" width="500" height="500" version="1.1"><g id="x003"><g><path style="fill:#6E6E6E;stroke:#000000;stroke-linecap:round;stroke-linejoin:round;" d="M242.883,401.25h-23.063c0.117,1.486,0.193,2.529,0.193,2.751c0,0.908,0.14,7.298,0.663,9.966h-0.029c1.514,13.349,5.051,28.585,5.051,28.585s0.744,5.157,1.646,5.458c0.901,0.3,12.326,0.685,12.625-0.451c0.751-2.855-0.824-7.912-0.824-7.912s2.431-14.709,3.264-20.971C242.581,417.384,242.763,409.233,242.883,401.25z"></path><path style="fill:#6E6E6E;stroke:#000000;stroke-linecap:round;stroke-linejoin:round;" d="M280.18,401.25h-23.063c0.12,7.983,0.303,16.134,0.475,17.426c0.832,6.262,3.263,20.971,3.263,20.971s-1.575,5.057-0.824,7.912c0.299,1.136,11.724,0.751,12.625,0.451c0.902-0.301,1.646-5.458,1.646-5.458s3.537-15.236,5.051-28.585h-0.029c0.523-2.668,0.663-9.058,0.663-9.966C279.986,403.779,280.062,402.736,280.18,401.25z"></path></g></g></svg>