<svg xmlns="http://www.w3.org/2000/svg" width="500" height="500" version="1.1"><g id="x9030"><g><path style="fill:#6E6E6E;stroke:#000000;stroke-linecap:round;stroke-linejoin:round;" d="M242.938,409.125c0,0-1.173,0.207-1.958,2.541c-0.006,0-0.012,0.002-0.018,0.002c-0.467-0.66-1.295-1.294-2.742-1.168c-2.252,0.195-2.539,4.166-2.539,4.166s-0.596-3.979-4.514-3.979c-3.917,0-4.514,3.979-4.514,3.979s0.409-3.916-2.466-4.166c-1.453-0.126-2.282,0.514-2.749,1.178c-0.028-0.001-0.054-0.012-0.083-0.012c-0.786-2.334-1.23-2.666-1.23-2.666s-0.041,2.168,0.626,6.918c0.666,4.75,3.466,20.083,3.799,22.333c0.334,2.25,1.451,9.001,2.451,9.667s10.75,0.584,13.083-0.25c0.5-2.25-0.8-8.417-0.8-8.417s2.967-15.499,3.3-21.833S242.938,409.125,242.938,409.125z M224.969,414.219c-0.125-0.031-2.188-1.25-2.188-1.719c0,0,0.75-0.781,1.563-0.438S225.094,414.25,224.969,414.219z M231.218,414.917l-2.25-0.417c0,0,1.083-1.583,2.25-1.833c1.166,0.25,2.25,1.833,2.25,1.833L231.218,414.917z M237.687,414.219c-0.125,0.031-0.188-1.813,0.625-2.156s1.563,0.438,1.563,0.438C239.874,412.969,237.812,414.188,237.687,414.219z"></path><path style="fill:#6E6E6E;stroke:#000000;stroke-linecap:round;stroke-linejoin:round;" d="M257.428,417.418c0.333,6.334,3.3,21.833,3.3,21.833s-1.3,6.167-0.8,8.417c2.333,0.834,12.084,0.916,13.084,0.25s2.116-7.417,2.449-9.667c0.334-2.25,3.134-17.583,3.801-22.333c0.666-4.75,0.625-6.918,0.625-6.918s-0.445,0.332-1.23,2.666c-0.029,0-0.055,0.011-0.084,0.012c-0.465-0.664-1.295-1.304-2.748-1.178c-2.875,0.25-2.467,4.166-2.467,4.166s-0.596-3.979-4.514-3.979c-3.917,0-4.513,3.979-4.513,3.979s-0.288-3.971-2.54-4.166c-1.445-0.126-2.274,0.508-2.742,1.168c-0.006,0-0.01-0.002-0.016-0.002c-0.786-2.334-1.959-2.541-1.959-2.541S257.095,411.084,257.428,417.418z M275.668,412.063c0.813-0.344,1.563,0.438,1.563,0.438c0,0.469-2.063,1.688-2.188,1.719S274.855,412.406,275.668,412.063z M266.545,414.5c0,0,1.083-1.583,2.25-1.833c1.166,0.25,2.25,1.833,2.25,1.833l-2.25,0.417L266.545,414.5z M260.139,412.5c0,0,0.75-0.781,1.563-0.438s0.75,2.188,0.625,2.156S260.139,412.969,260.139,412.5z"></path></g></g></svg>