<svg xmlns="http://www.w3.org/2000/svg" width="500" height="500" version="1.1"><g id="x9031"><g><path style="fill:#6E6E6E;stroke:#000000;stroke-linecap:round;stroke-linejoin:round;" d="M219.654,363.063c0,0,0.875,31.438,1.563,33.625c1.875,0.188,3.375,0.5,3.188,0.375s-1.063-33.688-1.063-33.688L219.654,363.063z"></path><path style="fill:#6E6E6E;stroke:#000000;stroke-linecap:round;stroke-linejoin:round;" d="M242.896,395.25H219.26c0.354,4.219,0.686,8.286,0.686,8.751c0,0.908,0.14,7.298,0.663,9.966h-0.029c1.514,13.349,5.051,28.585,5.051,28.585s0.744,5.157,1.646,5.458c0.901,0.3,12.326,0.685,12.625-0.451c0.751-2.855-0.824-7.912-0.824-7.912s2.431-14.709,3.264-20.971C242.558,417.052,242.79,404.593,242.896,395.25z"></path><path style="fill:#6E6E6E;stroke:#000000;stroke-linecap:round;stroke-linejoin:round;" d="M280.346,363.063c0,0-0.875,31.438-1.563,33.625c-1.875,0.188-3.375,0.5-3.188,0.375s1.063-33.688,1.063-33.688L280.346,363.063z"></path><path style="fill:#6E6E6E;stroke:#000000;stroke-linecap:round;stroke-linejoin:round;" d="M280.74,395.25h-23.635c0.105,9.343,0.338,21.802,0.554,23.426c0.833,6.262,3.264,20.971,3.264,20.971s-1.575,5.057-0.824,7.912c0.299,1.136,11.724,0.751,12.625,0.451c0.902-0.301,1.646-5.458,1.646-5.458s3.537-15.236,5.051-28.585h-0.029c0.523-2.668,0.663-9.058,0.663-9.966C280.055,403.536,280.386,399.469,280.74,395.25z"></path></g></g></svg>