<svg xmlns="http://www.w3.org/2000/svg" width="500" height="500" version="1.1"><g id="x9032"><g><g><path style="fill:#6E6E6E;stroke:#000000;stroke-linecap:round;stroke-linejoin:round;" d="M224.8,437.5c0,0,1.663,9.27,2.582,10.51s10.833,0.357,12.625-0.451C240.8,444.5,239.3,439,239.3,439l0.25-2.5L224.8,437.5z"></path><path style="fill:#505050;" d="M225.8,437.5c0,0,2.75,5.25,7.25,5.25s6.25-5,6.25-5L225.8,437.5z"></path><g><path style="fill:#6E6E6E;stroke:#000000;stroke-linecap:round;stroke-linejoin:round;" d="M221.8,422l-2.25,3.5c0,0,2.5,4,2.75,6.5s0.5,5.75,0.5,5.75s2.75,1.75,9.5,1.75s8.5-3,8.5-3l0.25-5.25l2-6.5l-1.5-2.5L240.8,425c0,0-0.75,1-9.25,1s-8.75-0.75-8.75-0.75L221.8,422z"></path><g><polygon points="222.55,425.667 223.758,432.001 225.092,432.001 224.133,425.917 "></polygon><polygon points="221.341,428.125 225.675,427.959 226.008,429.625 221.841,429.792 "></polygon></g><g><polygon points="223.8,432.917 223.55,437.833 224.717,438.167 225.05,433.125 "></polygon><path d="M222.633,434.417l3.583,0.458c-0.333,1-0.333,1.5-0.333,1.5l-3.125-0.542L222.633,434.417z"></path></g></g></g><g><path style="fill:#6E6E6E;stroke:#000000;stroke-linecap:round;stroke-linejoin:round;" d="M275.2,437.5c0,0-1.663,9.27-2.582,10.51c-0.918,1.24-10.832,0.357-12.625-0.451C259.2,444.5,260.7,439,260.7,439l-0.25-2.5L275.2,437.5z"></path><path style="fill:#505050;" d="M274.2,437.5c0,0-2.75,5.25-7.25,5.25s-6.25-5-6.25-5L274.2,437.5z"></path><g><path style="fill:#6E6E6E;stroke:#000000;stroke-linecap:round;stroke-linejoin:round;" d="M278.2,422l2.25,3.5c0,0-2.5,4-2.75,6.5s-0.5,5.75-0.5,5.75s-2.75,1.75-9.5,1.75s-8.5-3-8.5-3l-0.25-5.25l-2-6.5l1.5-2.5l0.75,2.75c0,0,0.75,1,9.25,1s8.75-0.75,8.75-0.75L278.2,422z"></path><g><polygon points="277.45,425.667 276.241,432.001 274.908,432.001 275.866,425.917 "></polygon><polygon points="278.659,428.125 274.325,427.959 273.991,429.625 278.159,429.792 "></polygon></g><g><polygon points="276.2,432.917 276.45,437.833 275.283,438.167 274.95,433.125 "></polygon><path d="M277.366,434.417l-3.582,0.458c0.333,1,0.332,1.5,0.332,1.5l3.125-0.542L277.366,434.417z"></path></g></g></g></g></g></svg>