<svg xmlns="http://www.w3.org/2000/svg" width="500" height="500" version="1.1"><g id="x9033"><g><g><path style="fill:#323232;stroke:#000000;stroke-linecap:round;stroke-linejoin:round;" d="M257.283,400.375c0,0-0.625-3.125-0.25-4s3.625,2.25,3.625,2.25s0.125-3.125,1.125-3.75s4,1.875,4,1.875s0.563-3.25,1.563-3.563s3.438,2.063,3.438,2.063s0.625-3.688,1.75-3.875s3.25,2.875,3.25,2.875s0.375-3.75,2-4.25s3.375,2.25,3.375,2.25s-0.875,9.75-0.875,11.375c0,4.5-2.75,25.875-5.25,36.625c-0.625,3.25-1.25,7.375-1.75,7.75s-12.75,1-13.375,0c-0.625-2.25,0.75-8.625,0.75-8.625s-2.578-13.462-3.25-20.75C256.658,410.5,257.283,400.375,257.283,400.375z"></path><ellipse style="fill:#6E6E6E;stroke:#000000;stroke-linecap:round;stroke-linejoin:round;" cx="257.814" cy="403.469" rx="0.906" ry="1.844"></ellipse><ellipse style="fill:#6E6E6E;stroke:#000000;stroke-linecap:round;stroke-linejoin:round;" cx="279.127" cy="400.594" rx="0.906" ry="1.844"></ellipse><path style="fill:#141414;" d="M268.596,403.896c-2.758-0.206-9.496,5.378-11,6.56v2.009c1.049-0.814,8.799-6.765,11.188-6.59c2.303,0.168,8.977,5.822,10.311,6.971l0.234-2.001C277.75,409.497,271.275,404.097,268.596,403.896z"></path><g><path style="fill:#E8E0E0;stroke:#000000;stroke-linecap:round;stroke-linejoin:round;" d="M268.533,404.25c-0.188-0.25-2.313-3.75-2.125-4.563s1.875-3.063,2.25-3.063s2.25,2.625,2.188,3.563S268.533,404.25,268.533,404.25z"></path><path style="fill:#FFFFFF;" d="M268.721,400.875c-0.188,0-0.063-3.125,0.063-3.313s1.125,1.25,1,1.688S269.033,400.875,268.721,400.875z"></path></g></g><g><path style="fill:#323232;stroke:#000000;stroke-linecap:round;stroke-linejoin:round;" d="M242.716,400.375c0,0,0.625-3.125,0.25-4s-3.625,2.25-3.625,2.25s-0.125-3.125-1.125-3.75s-4,1.875-4,1.875s-0.563-3.25-1.563-3.563s-3.438,2.063-3.438,2.063s-0.625-3.688-1.75-3.875s-3.25,2.875-3.25,2.875s-0.375-3.75-2-4.25s-3.375,2.25-3.375,2.25s0.875,9.75,0.875,11.375c0,4.5,2.75,25.875,5.25,36.625c0.625,3.25,1.25,7.375,1.75,7.75s12.75,1,13.375,0c0.625-2.25-0.75-8.625-0.75-8.625s2.577-13.462,3.25-20.75C243.341,410.5,242.716,400.375,242.716,400.375z"></path><ellipse style="fill:#6E6E6E;stroke:#000000;stroke-linecap:round;stroke-linejoin:round;" cx="242.185" cy="403.469" rx="0.906" ry="1.844"></ellipse><ellipse style="fill:#6E6E6E;stroke:#000000;stroke-linecap:round;stroke-linejoin:round;" cx="220.873" cy="400.594" rx="0.906" ry="1.844"></ellipse><path style="fill:#141414;" d="M231.404,403.896c2.757-0.206,9.496,5.378,11,6.56v2.009c-1.049-0.814-8.8-6.765-11.188-6.59c-2.303,0.168-8.977,5.822-10.312,6.971l-0.233-2.001C222.249,409.497,228.724,404.097,231.404,403.896z"></path><g><path style="fill:#E8E0E0;stroke:#000000;stroke-linecap:round;stroke-linejoin:round;" d="M231.466,404.25c0.188-0.25,2.313-3.75,2.125-4.563s-1.875-3.063-2.25-3.063s-2.25,2.625-2.188,3.563S231.466,404.25,231.466,404.25z"></path><path style="fill:#FFFFFF;" d="M231.279,400.875c0.188,0,0.063-3.125-0.063-3.313s-1.125,1.25-1,1.688S230.966,400.875,231.279,400.875z"></path></g></g></g></g></svg>