<svg xmlns="http://www.w3.org/2000/svg" width="500" height="500" version="1.1"><g id="x9034"><g><g><g><path style="fill:#6E6E6E;stroke:#000000;stroke-linecap:round;stroke-linejoin:round;" d="M281.644,391.105c0,0,1.63-3.966,1.529-5.078c-0.101-1.111-1.708-2.919-1.708-2.919l-0.597,2.352c0,0-0.613,1.202-11.941,1.54c-11.329,0.337-11.306-1.648-11.306-1.648l-0.706-1.933c0,0-1.131,1.828-1.272,2.693c-0.105,0.647,0.71,3.101,1.126,4.291c-0.315,1.695-0.936,4.653-1.779,6.847c0.75,8.5,2.25,16.5,2.25,17.25s3.053,21.75,2.803,23.5s-1.053,8.75-0.053,9.5s11.25,1.25,12.75,0.5c1.5-3.25,6.049-24.75,6.799-34.5c1.701-5.75,2.666-12.383,2.951-16.75c-0.422-1.406-0.923-3.762-1.28-5.553C281.481,391.141,281.644,391.105,281.644,391.105z"></path><path style="fill:none;stroke:#000000;stroke-linecap:round;stroke-linejoin:round;" d="M259.654,386.833l0.5,3.167c0,0-2.333,6.833-2.333,7.333s2,35.667,2.167,37.667"></path><path style="fill:none;stroke:#000000;stroke-linecap:round;stroke-linejoin:round;" d="M264.821,387.667l0.333,3.333c0,0-1.333,6.333-1.333,7.333s-0.833,36.166-0.667,37.5s-0.666,11.667-0.666,11.667"></path><path style="fill:none;stroke:#000000;stroke-linecap:round;stroke-linejoin:round;" d="M271.321,387.667V392c0,0-0.167,5.833-0.167,6.833s-1.999,40-1.999,40L268.821,448"></path><path style="fill:none;stroke:#000000;stroke-linecap:round;stroke-linejoin:round;" d="M278.321,386.666c0,0-0.166,3.335-0.333,4.501c0.5,2.5,0.5,6.666,0.5,6.666l-0.667,16.667l-3,25.167"></path><path style="fill:none;stroke:#000000;stroke-linecap:round;stroke-linejoin:round;" d="M258.82,391.166c0,0,2.834,1.167,9.834,1.167s10.833-1.167,10.833-1.167"></path></g><path style="fill:#6E6E6E;stroke:#000000;stroke-linecap:round;stroke-linejoin:round;" d="M253.378,375.208c0,0,3.443,1.917,14.756,1.917s14.618-2.75,14.618-2.75l-0.957,4.834c0,0-0.957,2.249-13.487,2.249c-12.529,0-13.189-1.917-13.189-1.917L253.378,375.208z"></path></g><g><g><path style="fill:#6E6E6E;stroke:#000000;stroke-linecap:round;stroke-linejoin:round;" d="M218.356,391.105c0,0-1.63-3.966-1.529-5.078c0.1-1.111,1.708-2.919,1.708-2.919l0.597,2.352c0,0,0.613,1.202,11.941,1.54c11.329,0.337,11.306-1.648,11.306-1.648l0.706-1.933c0,0,1.131,1.828,1.272,2.693c0.105,0.647-0.71,3.101-1.126,4.291c0.315,1.695,0.936,4.653,1.779,6.847c-0.75,8.5-2.25,16.5-2.25,17.25s-3.053,21.75-2.803,23.5s1.053,8.75,0.053,9.5s-11.25,1.25-12.75,0.5c-1.5-3.25-6.049-24.75-6.799-34.5c-1.701-5.75-2.666-12.383-2.951-16.75c0.422-1.406,0.923-3.762,1.28-5.553C218.518,391.141,218.356,391.105,218.356,391.105z"></path><path style="fill:none;stroke:#000000;stroke-linecap:round;stroke-linejoin:round;" d="M240.345,386.833l-0.5,3.167c0,0,2.333,6.833,2.333,7.333s-2,35.667-2.167,37.667"></path><path style="fill:none;stroke:#000000;stroke-linecap:round;stroke-linejoin:round;" d="M235.178,387.667L234.845,391c0,0,1.333,6.333,1.333,7.333s0.833,36.166,0.667,37.5s0.666,11.667,0.666,11.667"></path><path style="fill:none;stroke:#000000;stroke-linecap:round;stroke-linejoin:round;" d="M228.678,387.667V392c0,0,0.167,5.833,0.167,6.833s1.999,40,1.999,40l0.334,9.167"></path><path style="fill:none;stroke:#000000;stroke-linecap:round;stroke-linejoin:round;" d="M221.678,386.666c0,0,0.166,3.335,0.333,4.501c-0.5,2.5-0.5,6.666-0.5,6.666l0.667,16.667l3,25.167"></path><path style="fill:none;stroke:#000000;stroke-linecap:round;stroke-linejoin:round;" d="M241.179,391.166c0,0-2.834,1.167-9.834,1.167s-10.833-1.167-10.833-1.167"></path></g><path style="fill:#6E6E6E;stroke:#000000;stroke-linecap:round;stroke-linejoin:round;" d="M246.622,375.208c0,0-3.443,1.917-14.756,1.917s-14.618-2.75-14.618-2.75l0.957,4.834c0,0,0.957,2.249,13.487,2.249c12.529,0,13.189-1.917,13.189-1.917L246.622,375.208z"></path></g></g></g></svg>