<svg xmlns="http://www.w3.org/2000/svg" width="500" height="500" version="1.1"><g id="x9035"><g><g><path style="fill:#6E6E6E;stroke:#000000;stroke-linecap:round;stroke-linejoin:round;" d="M219.688,405.576c0,0,12.092,1.375,23.1-0.834c0,2,0,2.875,0,2.875s-10.483,2.709-22.767,0.5C219.688,405.784,219.688,405.576,219.688,405.576z"></path><path style="fill:#6E6E6E;stroke:#000000;stroke-linecap:round;stroke-linejoin:round;" d="M221.703,423.576c0.25-0.375,12.102-3.375,20.727-8c0.125,1.75-0.125,3.75-0.125,3.75s-9.851,5.25-19.976,7.25C221.954,425.701,221.703,423.576,221.703,423.576z"></path><path style="fill:#6E6E6E;stroke:#000000;stroke-linecap:round;stroke-linejoin:round;" d="M219.829,410.076c0,0,9.026,2.125,22.901,4.125c0,2.125-0.75,3-0.75,3s-13.276-0.5-21.526-4C220.329,411.701,219.829,410.076,219.829,410.076z"></path><g><path style="fill:#6E6E6E;stroke:#000000;stroke-linecap:round;stroke-linejoin:round;" d="M224.429,436.076c0,0,14,4.75,15.375,5.25c-0.375-2.75-0.618-3.979-0.618-3.979s-14.382-4.021-15.632-4.771C224.054,434.576,224.429,436.076,224.429,436.076z"></path><path style="fill:#6E6E6E;stroke:#000000;stroke-linecap:round;stroke-linejoin:round;" d="M225.054,439.951c0,0,10.676-6.25,15.301-9.375c0,1.75-0.25,3.625-0.25,3.625l-14.426,8.875L225.054,439.951z"></path></g><path style="fill:#6E6E6E;stroke:#000000;stroke-linecap:round;stroke-linejoin:round;" d="M222.454,425.951c0,0,9.401,1.25,18.276,2.25c-0.125,2.375-0.25,3.625-0.25,3.625s-16.901-2.25-17.651-2.75C222.454,427.326,222.454,425.951,222.454,425.951z"></path></g><g><path style="fill:#6E6E6E;stroke:#000000;stroke-linecap:round;stroke-linejoin:round;" d="M280.311,405.576c0,0-12.092,1.375-23.1-0.834c0,2,0,2.875,0,2.875s10.482,2.709,22.766,0.5C280.311,405.784,280.311,405.576,280.311,405.576z"></path><path style="fill:#6E6E6E;stroke:#000000;stroke-linecap:round;stroke-linejoin:round;" d="M278.295,423.576c-0.25-0.375-12.102-3.375-20.727-8c-0.125,1.75,0.125,3.75,0.125,3.75s9.852,5.25,19.977,7.25C278.045,425.701,278.295,423.576,278.295,423.576z"></path><path style="fill:#6E6E6E;stroke:#000000;stroke-linecap:round;stroke-linejoin:round;" d="M280.17,410.076c0,0-9.027,2.125-22.902,4.125c0,2.125,0.75,3,0.75,3s13.277-0.5,21.527-4C279.67,411.701,280.17,410.076,280.17,410.076z"></path><g><path style="fill:#6E6E6E;stroke:#000000;stroke-linecap:round;stroke-linejoin:round;" d="M275.568,436.076c0,0-14,4.75-15.375,5.25c0.375-2.75,0.618-3.979,0.618-3.979s14.382-4.021,15.632-4.771C275.943,434.576,275.568,436.076,275.568,436.076z"></path><path style="fill:#6E6E6E;stroke:#000000;stroke-linecap:round;stroke-linejoin:round;" d="M274.943,439.951c0,0-10.676-6.25-15.301-9.375c0,1.75,0.25,3.625,0.25,3.625l14.426,8.875L274.943,439.951z"></path></g><path style="fill:#6E6E6E;stroke:#000000;stroke-linecap:round;stroke-linejoin:round;" d="M277.545,425.951c0,0-9.402,1.25-18.277,2.25c0.125,2.375,0.25,3.625,0.25,3.625s16.902-2.25,17.652-2.75C277.545,427.326,277.545,425.951,277.545,425.951z"></path></g></g></g></svg>