<svg xmlns="http://www.w3.org/2000/svg" width="500" height="500" version="1.1"><g id="x9036"><g><g><rect x="229.485" y="369.5" style="fill:#6E6E6E;stroke:#000000;stroke-linecap:round;stroke-linejoin:round;" width="2.75" height="33.5"></rect><path style="fill:#6E6E6E;stroke:#000000;stroke-linecap:round;stroke-linejoin:round;" d="M219.944,403.922c0.025,14.076,5.728,38.63,5.728,38.63s0.744,5.157,1.646,5.458c0.902,0.3,12.326,0.685,12.625-0.451c0.751-2.855-0.825-7.912-0.825-7.912s2.545-15.104,3.164-20.971c0.854-8.1,0.442-16.269,0.442-16.269s0.004-0.742,0.013-1.907h-22.972C219.924,402.543,220.005,403.893,219.944,403.922z"></path><path style="fill:#505050;" d="M220.735,405.834c0,0,1.417,1.75,3.75,1.75s4.833-1.667,4.833-1.667s2.833,1.251,5.417,1.584s5.25-2.167,5.25-2.167L220.735,405.834z"></path><path style="fill:#6E6E6E;stroke:#000000;stroke-linecap:round;stroke-linejoin:round;" d="M219.36,400.125c0,0-1,5.625-0.625,6.125s2.25-0.875,2.25-0.875s1.75,1.5,2.875,1.5s3.125-1.375,3.125-1.375s2.75,2,4.25,1.875s3.25-1.625,3.25-1.625s2.125,1.5,3.625,1.5s2.375-1.375,2.375-1.375s2.75,2.25,3.25,1.375s0.5-6.375-0.25-6.75S219.36,400.125,219.36,400.125z"></path><g><g><path style="fill:#6E6E6E;stroke:#000000;stroke-linecap:round;stroke-linejoin:round;" d="M231.68,402.141c0,0-4.696-3.757-5.792-3.6c-1.096,0.156-1.252,7.2,0.157,7.044S231.68,402.141,231.68,402.141z"></path><path style="fill:#505050;" d="M229.402,401.834c-0.083-0.25-1.75-1.333-2.333-0.833s-0.833,1.999-0.083,2.166s3.167-0.5,3.167-0.5L229.402,401.834z"></path><path style="fill:#6E6E6E;stroke:#000000;stroke-linecap:round;stroke-linejoin:round;" d="M230.353,402.141c0,0,4.696-3.757,5.792-3.6c1.096,0.156,1.252,7.2-0.157,7.044C234.579,405.429,230.353,402.141,230.353,402.141z"></path><path style="fill:#505050;" d="M231.985,402.084c0,0,1.75-1.333,2.5-1.083s1.417,1.75,0.5,1.833S231.985,402.084,231.985,402.084z"></path><path style="fill:none;stroke:#000000;stroke-linecap:round;stroke-linejoin:round;" d="M232.485,402.313c0,0,0.813-0.438,1.375-0.313"></path><path style="fill:none;stroke:#000000;stroke-linecap:round;stroke-linejoin:round;" d="M229.235,402.313c0,0-0.813-0.438-1.375-0.313"></path></g><path style="fill:#6E6E6E;stroke:#000000;stroke-linecap:round;stroke-linejoin:round;" d="M230.86,400.801c-0.764,0-1.438,0.5-1.438,0.5s0.045,1.5,0.135,1.688s1.303,0.313,1.303,0.313s1.213-0.125,1.303-0.313s0.135-1.688,0.135-1.688S231.624,400.801,230.86,400.801z"></path></g></g><g><rect x="267.767" y="369.5" style="fill:#6E6E6E;stroke:#000000;stroke-linecap:round;stroke-linejoin:round;" width="2.75" height="33.5"></rect><path style="fill:#6E6E6E;stroke:#000000;stroke-linecap:round;stroke-linejoin:round;" d="M280.058,403.922c-0.025,14.076-5.728,38.63-5.728,38.63s-0.744,5.157-1.646,5.458c-0.902,0.3-12.326,0.685-12.625-0.451c-0.751-2.855,0.825-7.912,0.825-7.912s-2.545-15.104-3.164-20.971c-0.854-8.1-0.442-16.269-0.442-16.269s-0.005-0.742-0.013-1.907h22.971C280.078,402.543,279.996,403.893,280.058,403.922z"></path><path style="fill:#505050;" d="M279.267,405.834c0,0-1.417,1.75-3.75,1.75s-4.833-1.667-4.833-1.667s-2.834,1.251-5.417,1.584s-5.25-2.167-5.25-2.167L279.267,405.834z"></path><path style="fill:#6E6E6E;stroke:#000000;stroke-linecap:round;stroke-linejoin:round;" d="M280.642,400.125c0,0,1,5.625,0.625,6.125s-2.25-0.875-2.25-0.875s-1.75,1.5-2.875,1.5s-3.125-1.375-3.125-1.375s-2.75,2-4.25,1.875s-3.25-1.625-3.25-1.625s-2.125,1.5-3.625,1.5s-2.375-1.375-2.375-1.375s-2.75,2.25-3.25,1.375s-0.5-6.375,0.25-6.75S280.642,400.125,280.642,400.125z"></path><g><g><path style="fill:#6E6E6E;stroke:#000000;stroke-linecap:round;stroke-linejoin:round;" d="M268.321,402.141c0,0,4.696-3.757,5.792-3.6c1.096,0.156,1.252,7.2-0.156,7.044C272.548,405.429,268.321,402.141,268.321,402.141z"></path><path style="fill:#505050;" d="M270.6,401.834c0.084-0.25,1.75-1.333,2.334-0.833c0.583,0.5,0.833,1.999,0.083,2.166s-3.167-0.5-3.167-0.5L270.6,401.834z"></path><path style="fill:#6E6E6E;stroke:#000000;stroke-linecap:round;stroke-linejoin:round;" d="M269.648,402.141c0,0-4.695-3.757-5.791-3.6c-1.096,0.156-1.253,7.2,0.156,7.044C265.422,405.429,269.648,402.141,269.648,402.141z"></path><path style="fill:#505050;" d="M268.017,402.084c0,0-1.75-1.333-2.5-1.083s-1.417,1.75-0.5,1.833S268.017,402.084,268.017,402.084z"></path><path style="fill:none;stroke:#000000;stroke-linecap:round;stroke-linejoin:round;" d="M267.517,402.313c0,0-0.813-0.438-1.375-0.313"></path><path style="fill:none;stroke:#000000;stroke-linecap:round;stroke-linejoin:round;" d="M270.767,402.313c0,0,0.813-0.438,1.375-0.313"></path></g><path style="fill:#6E6E6E;stroke:#000000;stroke-linecap:round;stroke-linejoin:round;" d="M269.142,400.801c0.764,0,1.438,0.5,1.438,0.5s-0.045,1.5-0.135,1.688s-1.303,0.313-1.303,0.313s-1.213-0.125-1.303-0.313s-0.135-1.688-0.135-1.688S268.378,400.801,269.142,400.801z"></path></g></g></g></g></svg>