<svg xmlns="http://www.w3.org/2000/svg" width="500" height="500" version="1.1"><g id="x9037"><g><g><path style="fill:#6E6E6E;stroke:#000000;stroke-linecap:round;stroke-linejoin:round;" d="M280.168,403.334l0.002-2.167c0,0-6.002,1-8.502-3.333c-1.758-3.045-0.566-26.433-0.566-26.433h-3.166c0,0,0.332,21.398-1.668,26.231s-8.756,3.133-8.746,3.534h-0.268c0.006,0.772,0.008,1.24,0.008,1.24s-0.41,8.169,0.443,16.269c0.619,5.866,3.164,20.971,3.164,20.971s-1.576,5.057-0.826,7.912c0.299,1.136,11.725,0.751,12.627,0.451c0.9-0.301,1.645-5.458,1.645-5.458s5.703-24.554,5.729-38.63c-0.023-0.012-0.025-0.222-0.012-0.577L280.168,403.334z"></path><path style="fill:#6E6E6E;stroke:#000000;stroke-linecap:round;stroke-linejoin:round;" d="M258.475,424.666c0,0-0.699,1-0.875,1.5s0.824,8.833-0.049,9.833c1.049,1.333,3.848,0.333,4.547,0c1.4,1.667,5.949,2.501,9.273,0.667c1.574,1.333,6.297,0.667,7.346-0.5c-1.4-1.5,0.125-9.501,0.125-10.334s-0.875-1.666-0.875-1.666s-2.398,2.166-10.096,2.166S258.475,424.666,258.475,424.666z"></path><g><g><path style="fill:#6E6E6E;stroke:#000000;stroke-linecap:round;stroke-linejoin:round;" d="M268.898,389.167c0,0-4.666,2.833-6.166,2.5c-1.334-2-1-5.333,0-6.666c1-1.5,6,1.564,6,1.564L268.898,389.167z"></path><path style="fill:#6E6E6E;stroke:#000000;stroke-linecap:round;stroke-linejoin:round;" d="M269.854,389.167c0,0,4.666,2.833,6.166,2.5c1.334-2,1-5.333,0-6.666c-1-1.5-6,1.564-6,1.564L269.854,389.167z"></path></g><path style="fill:#6E6E6E;stroke:#000000;stroke-linecap:round;stroke-linejoin:round;" d="M270.656,386.5c-0.402-0.5-1.406,0.125-1.406,0.125s-1.002-0.625-1.404-0.125c-0.4,0.5-0.301,2.188-0.15,2.375s1.555,0.5,1.555,0.5s1.406-0.313,1.557-0.5S271.057,387,270.656,386.5z"></path></g></g><g><path style="fill:#6E6E6E;stroke:#000000;stroke-linecap:round;stroke-linejoin:round;" d="M219.833,403.334l-0.003-2.167c0,0,6.003,1,8.503-3.333c1.757-3.045,0.565-26.433,0.565-26.433h3.166c0,0-0.331,21.398,1.669,26.231s8.756,3.133,8.745,3.534h0.269c-0.006,0.772-0.009,1.24-0.009,1.24s0.411,8.169-0.442,16.269c-0.619,5.866-3.164,20.971-3.164,20.971s1.576,5.057,0.825,7.912c-0.299,1.136-11.724,0.751-12.626,0.451c-0.901-0.301-1.646-5.458-1.646-5.458s-5.702-24.554-5.728-38.63c0.023-0.012,0.025-0.222,0.011-0.577L219.833,403.334z"></path><path style="fill:#6E6E6E;stroke:#000000;stroke-linecap:round;stroke-linejoin:round;" d="M241.527,424.666c0,0,0.699,1,0.874,1.5c0.176,0.5-0.824,8.833,0.05,9.833c-1.05,1.333-3.848,0.333-4.548,0c-1.4,1.667-5.949,2.501-9.272,0.667c-1.574,1.333-6.297,0.667-7.347-0.5c1.4-1.5-0.125-9.501-0.125-10.334s0.875-1.666,0.875-1.666s2.399,2.166,10.097,2.166C239.827,426.332,241.527,424.666,241.527,424.666z"></path><g><g><path style="fill:#6E6E6E;stroke:#000000;stroke-linecap:round;stroke-linejoin:round;" d="M231.102,389.167c0,0,4.666,2.833,6.166,2.5c1.334-2,1-5.333,0-6.666c-1-1.5-6,1.564-6,1.564L231.102,389.167z"></path><path style="fill:#6E6E6E;stroke:#000000;stroke-linecap:round;stroke-linejoin:round;" d="M230.148,389.167c0,0-4.666,2.833-6.166,2.5c-1.334-2-1-5.333,0-6.666c1-1.5,6,1.564,6,1.564L230.148,389.167z"></path></g><path style="fill:#6E6E6E;stroke:#000000;stroke-linecap:round;stroke-linejoin:round;" d="M229.345,386.5c0.402-0.5,1.405,0.125,1.405,0.125s1.003-0.625,1.405-0.125c0.4,0.5,0.301,2.188,0.15,2.375s-1.556,0.5-1.556,0.5s-1.405-0.313-1.556-0.5S228.945,387,229.345,386.5z"></path></g></g></g></g></svg>