<svg xmlns="http://www.w3.org/2000/svg" width="500" height="500" version="1.1"><g id="x9038"><g><g><path style="fill:#6E6E6E;stroke:#000000;stroke-linecap:round;stroke-linejoin:round;" d="M242.014,426.833c0,0-19.5,0.667-19.5,0.584s2.417,11.833,2.417,11.833s0.664,7.603,2.332,8.76c0,0,8.582,1.024,12.625-0.451c0.293-2.476,0.293-6.142-0.457-9.642C240.431,432.417,242.014,426.833,242.014,426.833z"></path><g><polygon style="fill:#505050;" points="232.715,432.432 231.149,434.375 232.877,436.318 234.442,434.363 "></polygon><polygon style="fill:#505050;" points="232.985,436.265 231.419,438.208 233.147,440.151 234.712,438.196 "></polygon><polygon style="fill:#505050;" points="233.215,440.182 231.649,442.125 233.377,444.068 234.942,442.113 "></polygon><polygon style="fill:#505050;" points="233.485,444.015 231.919,445.958 233.647,447.901 235.212,445.946 "></polygon></g><g><path style="fill:#D9D9CF;stroke:#000000;stroke-linecap:round;stroke-linejoin:round;" d="M221.224,419.398c-2.623,0.538-3.07,2.658-3.07,2.658s3.222,1.904,4.04,2.513L221.224,419.398z"></path><path style="fill:#D9D9CF;stroke:#000000;stroke-linecap:round;stroke-linejoin:round;" d="M242.726,418.56l-0.563,3.824c1.176-0.729,2.526-1.526,2.526-1.526S244.378,419.358,242.726,418.56z"></path><g><path style="fill:#F7F7ED;stroke:#000000;stroke-linecap:round;stroke-linejoin:round;" d="M244.678,420.736c0,0-2.051-0.861-3.89,0.917c-2.724-1.472-5.12,0.416-5.544,1.562c-1.935-1.752-5.781-1.561-7.532,0.375c-0.537-1.098-3.108-2.737-5.672-1.004c-2.007-1.587-3.962-0.525-3.962-0.525c0.012,0.24,1.517,5.58,4.854,8.064c-0.875,1.875-1.458,2.801-1.458,2.801s2.382,1.939,4.701,1.744c2.32-0.195,2.917-1.109,2.917-1.109s1.009,0.914,2.932,0.818c1.923-0.096,2.837-1.105,2.837-1.105s0.685,0.85,3.013,0.814c2.327-0.036,4.509-2.104,4.509-2.104s-1.014-1.047-1.702-2.734C243.754,426.446,244.69,420.977,244.678,420.736z"></path><path style="fill:#D9D9CF;" d="M225.431,429.938c0,0-1.315-2.457-0.75-4c1.13,1.726,4.428,3.249,4.428,3.249s1.459,0.284,2.644-0.132c0.418-1.268,1.576-2.218,1.576-2.218l-0.375,2.158c1.1-0.499,2.996-3.438,3.602-4.183c1.063,1.5,0.75,3,0.75,3s4.435-1.936,5.25-3.313c-1.5,3.375-2.5,4.688-2.5,4.688l1.688,2.938c0,0-4.267-0.75-4.885-1.878c-1.188,0.326-1.994,0.277-1.994,0.277s0.08,1.601,0.418,1.941c-1.06-0.305-1.998-1.416-1.998-1.416s-4.404,0.439-4.978,0.2c-0.939,0.493-3,2-3,2C224.931,430.688,225.431,429.938,225.431,429.938z"></path><path style="fill:none;stroke:#000000;stroke-linecap:round;stroke-linejoin:round;" d="M236.792,429.322c0,0-1.398,0.953-5.084,1.137s-4.931-0.639-4.931-0.639"></path></g></g></g><g><path style="fill:#6E6E6E;stroke:#000000;stroke-linecap:round;stroke-linejoin:round;" d="M258.986,426.833c0,0,18.5,0.667,18.5,0.584s-2.417,11.833-2.417,11.833s-0.664,7.603-2.332,8.76c0,0-8.582,1.024-12.625-0.451c-0.293-2.476-0.293-6.142,0.457-9.642C259.569,432.417,258.986,426.833,258.986,426.833z"></path><g><polygon style="fill:#505050;" points="267.286,432.432 268.851,434.375 267.124,436.318 265.558,434.363 "></polygon><polygon style="fill:#505050;" points="267.016,436.265 268.581,438.208 266.854,440.151 265.288,438.196 "></polygon><polygon style="fill:#505050;" points="266.786,440.182 268.351,442.125 266.624,444.068 265.058,442.113 "></polygon><polygon style="fill:#505050;" points="266.516,444.015 268.081,445.958 266.354,447.901 264.788,445.946 "></polygon></g><g><path style="fill:#D9D9CF;stroke:#000000;stroke-linecap:round;stroke-linejoin:round;" d="M278.776,419.398c2.623,0.538,3.07,2.658,3.07,2.658s-3.222,1.904-4.04,2.513L278.776,419.398z"></path><path style="fill:#D9D9CF;stroke:#000000;stroke-linecap:round;stroke-linejoin:round;" d="M257.274,418.56l0.563,3.824c-1.176-0.729-2.525-1.526-2.525-1.526S255.622,419.358,257.274,418.56z"></path><g><path style="fill:#F7F7ED;stroke:#000000;stroke-linecap:round;stroke-linejoin:round;" d="M255.323,420.736c0,0,2.051-0.861,3.89,0.917c2.724-1.472,5.12,0.416,5.544,1.562c1.936-1.752,5.781-1.561,7.532,0.375c0.536-1.098,3.108-2.737,5.673-1.004c2.006-1.587,3.961-0.525,3.961-0.525c-0.012,0.24-1.517,5.58-4.854,8.064c0.875,1.875,1.458,2.801,1.458,2.801s-2.382,1.939-4.701,1.744s-2.917-1.109-2.917-1.109s-1.01,0.914-2.932,0.818c-1.924-0.096-2.838-1.105-2.838-1.105s-0.684,0.85-3.012,0.814c-2.328-0.036-4.51-2.104-4.51-2.104s1.014-1.047,1.701-2.734C256.247,426.446,255.311,420.977,255.323,420.736z"></path><path style="fill:#D9D9CF;" d="M274.569,429.938c0,0,1.316-2.457,0.75-4c-1.13,1.726-4.428,3.249-4.428,3.249s-1.459,0.284-2.644-0.132c-0.419-1.268-1.576-2.218-1.576-2.218l0.374,2.158c-1.1-0.499-2.995-3.438-3.602-4.183c-1.063,1.5-0.75,3-0.75,3s-4.434-1.936-5.25-3.313c1.5,3.375,2.5,4.688,2.5,4.688l-1.688,2.938c0,0,4.268-0.75,4.886-1.878c1.188,0.326,1.994,0.277,1.994,0.277s-0.079,1.601-0.418,1.941c1.06-0.305,1.998-1.416,1.998-1.416s4.403,0.439,4.978,0.2c0.939,0.493,3,2,3,2C275.069,430.688,274.569,429.938,274.569,429.938z"></path><path style="fill:none;stroke:#000000;stroke-linecap:round;stroke-linejoin:round;" d="M263.208,429.322c0,0,1.398,0.953,5.084,1.137s4.932-0.639,4.932-0.639"></path></g></g></g></g></g></svg>