<svg xmlns="http://www.w3.org/2000/svg" width="500" height="500" version="1.1"><g id="x9039"><g><g><g><path style="fill:#FFFFFF;stroke:#000000;stroke-linecap:round;stroke-linejoin:round;" d="M242.955,386.5c-0.143,3.217-0.219,15.907-0.219,15.907s0.41,8.169-0.443,16.269c-0.619,5.866-3.164,20.971-3.164,20.971s1.576,5.057,0.826,7.912c-0.299,1.136-11.725,0.751-12.627,0.451c-0.9-0.301-1.645-5.458-1.645-5.458s-5.703-24.554-5.729-38.63c0.17-0.082-0.742-10.14-1.4-17.422H242.955z"></path><path style="fill:#E4E0F3;" d="M219.375,389.25l0.5,6c0,0,2.75,1.625,11.75,1.625s10.625-0.375,10.625-0.375l-0.125-6.25l-11.75-2.625L219.375,389.25z"></path><g><g><path style="fill:#505050;" d="M221.959,388.167c0,0,2.244,4.85,2.229,5.23c-0.016,0.38-2.049,5.16-2.049,5.16c-0.797-2.22-1.186-3.337-1.936-5.59C220.889,391.036,221.24,390.075,221.959,388.167z"></path><path style="fill:#6E6E6E;" d="M222.273,398.177c0,0,2.42,4.75,2.418,5.13c-0.004,0.38-1.859,5.214-1.859,5.214c-0.877-2.181-1.305-3.28-2.139-5.496C221.309,401.074,221.623,400.104,222.273,398.177z"></path><path style="fill:#6E6E6E;" d="M222.953,408.138c0,0,2.592,4.645,2.602,5.022c0.012,0.378-1.668,5.263-1.668,5.263c-0.955-2.143-1.422-3.223-2.336-5.4C222.094,411.059,222.375,410.082,222.953,408.138z"></path><path style="fill:#6E6E6E;" d="M223.992,418.037c0,0,2.76,4.53,2.783,4.907c0.025,0.378-1.479,5.308-1.479,5.308c-1.033-2.102-1.537-3.161-2.529-5.299C223.24,420.977,223.484,419.995,223.992,418.037z"></path><path style="fill:#6E6E6E;" d="M225.393,427.862c0,0,2.92,4.419,2.959,4.793c0.037,0.375-1.287,5.344-1.287,5.344c-1.107-2.057-1.652-3.094-2.721-5.188C224.744,430.822,224.955,429.831,225.393,427.862z"></path><path style="fill:#6E6E6E;" d="M227.145,437.606c0,0,3.074,4.297,3.127,4.67c0.053,0.372-1.09,5.377-1.09,5.377c-1.182-2.011-1.762-3.025-2.906-5.075C226.604,440.581,226.779,439.587,227.145,437.606z"></path></g></g></g><g><g><g><path style="fill:#FFFFFF;stroke:#000000;stroke-linecap:round;stroke-linejoin:round;" d="M217.813,386.566c0,0-3.989,2.79-3.563,3.251c0.421,0.459,2.575,1.873,4.54,1.423c1.965-0.449,2.461-1.757,2.834-1.795s1.766,0.072,1.766,0.072l0.016,1.381c0,0,1.682,1.714,4.641,1.162c0.396-1.045,0.732-1.456,0.732-1.456l1.777,0.197c0,0-0.932,0.724-0.633,1.194c0.299,0.473,5.277,1.225,6.916,0.053c-0.092-1.049-0.161-1.456,0.325-1.632c0.484-0.175,1.667-0.209,1.667-0.209l0.26,1.739c0,0,3.994,0.977,7.311-2.249c-1.035-1.529-2.469-3.269-2.469-3.269L217.813,386.566z"></path><path style="fill:#E4E0F3;" d="M239.205,389.917l-0.375-2.5l-2.292-0.042l-0.25,3.625c0,0-0.083-0.333,0.417-0.833S239.205,389.917,239.205,389.917z"></path><path style="fill:#E4E0F3;" d="M230.996,390.75l-0.083-2.917l-1.75-0.5l-0.792,2.917C228.371,390.25,230.079,390.333,230.996,390.75z"></path><path style="fill:#E4E0F3;" d="M223.871,389.542c0,0,0.041-0.417-0.375-0.542s-2.041-0.083-2.291,0.125c0.208-0.708,0.291-2,0.291-2l2.209,0.125L223.871,389.542z"></path></g><g><path style="fill:#FFFFFF;stroke:#000000;stroke-linecap:round;stroke-linejoin:round;" d="M244.697,382.836c0,0,3.353-2.845,2.922-3.298c-0.428-0.454-3.004-1.841-4.963-1.362c-1.957,0.476-2.436,1.79-2.809,1.833c-0.371,0.043-1.766-0.049-1.766-0.049l-0.033-1.379c0,0-2.303-1.692-5.256-1.101c-0.381,1.051-0.711,1.466-0.711,1.466l-1.781-0.172c0,0,0.922-0.735,0.615-1.203c-0.305-0.469-5.291-1.153-6.914,0.04c0.453,1.097,0.286,1.222,0.036,1.639c-0.48,0.182-1.917,0.125-1.917,0.125l-0.369-1.63c0,0-4.006-0.923-7.279,2.348c1.057,1.515,3.109,3.234,3.109,3.234L244.697,382.836z"></path><path style="fill:#E4E0F3;" d="M240.121,380.417c0,0-1.958,0.125-2.458-0.167c0.083,1-0.25,2.5-0.25,2.5l2.25,0.5L240.121,380.417z"></path><path style="fill:#E4E0F3;" d="M224.538,379.458c0,0-0.292,2.833-0.375,2.875s-1.5,0.334-1.5,0.334l-0.958-3.042C221.705,379.625,222.955,379.749,224.538,379.458z"></path><path style="fill:#E4E0F3;" d="M232.33,379.375l-0.584,3.167l-1.875-0.042v-3.708c0,0-0.083,0.417,0.417,0.5S232.33,379.375,232.33,379.375z"></path></g><rect x="216.596" y="382.625" style="fill:#2B1B25;stroke:#000000;stroke-linecap:round;stroke-linejoin:round;" width="28.125" height="4.375"></rect></g><g><path style="fill:#7E7476;stroke:#000000;stroke-linecap:round;stroke-linejoin:round;" d="M235.678,381.5c0,0,0.084,1.833-0.25,1.833c-0.332,0-5.564,0-5.564,0v4.084h5.982c0,0,0.416,0.999,0.082,1.416c-0.332,0.417-6.248,0.449-6.914,0.199s-1.668-1.032-1.752-3.782s0.5-3.583,1-3.833S235.678,381.5,235.678,381.5z"></path><path style="fill:#7E7476;stroke:#000000;stroke-linecap:round;stroke-linejoin:round;" d="M234.262,384.75c0,0,0.5,0.749,0,1.083s-4.75,0.416-5.084,0c-0.332-0.416-0.334-1.332,0.084-1.416C229.678,384.333,233.844,384.417,234.262,384.75z"></path></g></g></g><g><g><path style="fill:#FFFFFF;stroke:#000000;stroke-linecap:round;stroke-linejoin:round;" d="M257.07,386.5c0.143,3.217,0.219,15.907,0.219,15.907s-0.41,8.169,0.443,16.269c0.619,5.866,3.164,20.971,3.164,20.971s-1.576,5.057-0.826,7.912c0.299,1.136,11.725,0.751,12.627,0.451c0.9-0.301,1.645-5.458,1.645-5.458s5.703-24.554,5.729-38.63c-0.17-0.082,0.742-10.14,1.4-17.422H257.07z"></path><path style="fill:#E4E0F3;" d="M280.65,389.25l-0.5,6c0,0-2.75,1.625-11.75,1.625s-10.625-0.375-10.625-0.375l0.125-6.25l11.75-2.625L280.65,389.25z"></path><g><g><path style="fill:#505050;" d="M278.066,388.167c0,0-2.244,4.85-2.229,5.23c0.016,0.38,2.049,5.16,2.049,5.16c0.797-2.22,1.186-3.337,1.936-5.59C279.137,391.036,278.785,390.075,278.066,388.167z"></path><path style="fill:#6E6E6E;" d="M277.752,398.177c0,0-2.42,4.75-2.418,5.13c0.004,0.38,1.859,5.214,1.859,5.214c0.877-2.181,1.305-3.28,2.139-5.496C278.717,401.074,278.402,400.104,277.752,398.177z"></path><path style="fill:#6E6E6E;" d="M277.072,408.138c0,0-2.592,4.645-2.602,5.022c-0.012,0.378,1.668,5.263,1.668,5.263c0.955-2.143,1.422-3.223,2.336-5.4C277.932,411.059,277.65,410.082,277.072,408.138z"></path><path style="fill:#6E6E6E;" d="M276.033,418.037c0,0-2.76,4.53-2.783,4.907c-0.025,0.378,1.479,5.308,1.479,5.308c1.033-2.102,1.537-3.161,2.529-5.299C276.785,420.977,276.541,419.995,276.033,418.037z"></path><path style="fill:#6E6E6E;" d="M274.633,427.862c0,0-2.92,4.419-2.959,4.793c-0.037,0.375,1.287,5.344,1.287,5.344c1.107-2.057,1.652-3.094,2.721-5.188C275.281,430.822,275.07,429.831,274.633,427.862z"></path><path style="fill:#6E6E6E;" d="M272.881,437.606c0,0-3.074,4.297-3.127,4.67c-0.053,0.372,1.09,5.377,1.09,5.377c1.182-2.011,1.762-3.025,2.906-5.075C273.422,440.581,273.246,439.587,272.881,437.606z"></path></g></g></g><g><g><g><path style="fill:#FFFFFF;stroke:#000000;stroke-linecap:round;stroke-linejoin:round;" d="M282.213,386.566c0,0,3.989,2.79,3.563,3.251c-0.421,0.459-2.575,1.873-4.54,1.423c-1.965-0.449-2.461-1.757-2.834-1.795s-1.766,0.072-1.766,0.072l-0.016,1.381c0,0-1.682,1.714-4.641,1.162c-0.396-1.045-0.732-1.456-0.732-1.456l-1.777,0.197c0,0,0.932,0.724,0.633,1.194c-0.299,0.473-5.277,1.225-6.916,0.053c0.092-1.049,0.161-1.456-0.325-1.632c-0.484-0.175-1.667-0.209-1.667-0.209l-0.26,1.739c0,0-3.994,0.977-7.311-2.249c1.035-1.529,2.469-3.269,2.469-3.269L282.213,386.566z"></path><path style="fill:#E4E0F3;" d="M260.82,389.917l0.375-2.5l2.292-0.042l0.25,3.625c0,0,0.083-0.333-0.417-0.833S260.82,389.917,260.82,389.917z"></path><path style="fill:#E4E0F3;" d="M269.029,390.75l0.083-2.917l1.75-0.5l0.792,2.917C271.654,390.25,269.946,390.333,269.029,390.75z"></path><path style="fill:#E4E0F3;" d="M276.154,389.542c0,0-0.041-0.417,0.375-0.542s2.041-0.083,2.291,0.125c-0.208-0.708-0.291-2-0.291-2l-2.209,0.125L276.154,389.542z"></path></g><g><path style="fill:#FFFFFF;stroke:#000000;stroke-linecap:round;stroke-linejoin:round;" d="M255.328,382.836c0,0-3.353-2.845-2.922-3.298c0.428-0.454,3.004-1.841,4.963-1.362c1.957,0.476,2.436,1.79,2.809,1.833c0.371,0.043,1.766-0.049,1.766-0.049l0.033-1.379c0,0,2.303-1.692,5.256-1.101c0.381,1.051,0.711,1.466,0.711,1.466l1.781-0.172c0,0-0.922-0.735-0.615-1.203c0.305-0.469,5.291-1.153,6.914,0.04c-0.453,1.097-0.286,1.222-0.036,1.639c0.48,0.182,1.917,0.125,1.917,0.125l0.369-1.63c0,0,4.006-0.923,7.279,2.348c-1.057,1.515-3.109,3.234-3.109,3.234L255.328,382.836z"></path><path style="fill:#E4E0F3;" d="M259.904,380.417c0,0,1.958,0.125,2.458-0.167c-0.083,1,0.25,2.5,0.25,2.5l-2.25,0.5L259.904,380.417z"></path><path style="fill:#E4E0F3;" d="M275.487,379.458c0,0,0.292,2.833,0.375,2.875s1.5,0.334,1.5,0.334l0.958-3.042C278.32,379.625,277.07,379.749,275.487,379.458z"></path><path style="fill:#E4E0F3;" d="M267.695,379.375l0.584,3.167l1.875-0.042v-3.708c0,0,0.083,0.417-0.417,0.5S267.695,379.375,267.695,379.375z"></path></g><rect x="255.305" y="382.625" style="fill:#2B1B25;stroke:#000000;stroke-linecap:round;stroke-linejoin:round;" width="28.125" height="4.375"></rect></g><g><path style="fill:#7E7476;stroke:#000000;stroke-linecap:round;stroke-linejoin:round;" d="M264.348,381.5c0,0-0.084,1.833,0.25,1.833c0.332,0,5.564,0,5.564,0v4.084h-5.982c0,0-0.416,0.999-0.082,1.416c0.332,0.417,6.248,0.449,6.914,0.199s1.668-1.032,1.752-3.782s-0.5-3.583-1-3.833S264.348,381.5,264.348,381.5z"></path><path style="fill:#7E7476;stroke:#000000;stroke-linecap:round;stroke-linejoin:round;" d="M265.764,384.75c0,0-0.5,0.749,0,1.083s4.75,0.416,5.084,0c0.332-0.416,0.334-1.332-0.084-1.416C270.348,384.333,266.182,384.417,265.764,384.75z"></path></g></g></g></g></g></svg>