<svg xmlns="http://www.w3.org/2000/svg" width="500" height="500" version="1.1"><g id="x004"><g><path style="fill:#6E6E6E;stroke:#000000;stroke-linecap:round;stroke-linejoin:round;" d="M241.637,423.75h-19.626c1.643,10.049,3.674,18.802,3.674,18.802s0.744,5.157,1.646,5.458c0.901,0.3,12.326,0.685,12.625-0.451c0.751-2.855-0.824-7.912-0.824-7.912S240.661,430.564,241.637,423.75z"></path><path style="fill:#6E6E6E;stroke:#000000;stroke-linecap:round;stroke-linejoin:round;" d="M258.362,423.75c0.976,6.814,2.506,15.896,2.506,15.896s-1.576,5.057-0.825,7.912c0.299,1.136,11.724,0.751,12.626,0.451c0.901-0.301,1.646-5.458,1.646-5.458s2.031-8.753,3.675-18.802H258.362z"></path></g></g></svg>