<svg xmlns="http://www.w3.org/2000/svg" width="500" height="500" version="1.1"><g id="x9040"><g><g id="socksXMLID_1_"><g><path style="fill:#FFFFFF;" d="M242.812,394H219.23c0.462,5.239,0.842,9.864,0.73,9.92c0.02,14.08,5.73,38.63,5.73,38.63s0.74,5.16,1.64,5.46s12.33,0.681,12.63-0.45c0.75-2.859-0.83-7.909-0.83-7.909s2.55-15.11,3.17-20.971c0.85-8.1,0.44-16.27,0.44-16.27S242.764,398.19,242.812,394z"></path></g><g><path style="fill:#6E6E6E;" d="M225.833,394.139l0,0.029c0-0.058-0.011-0.112-0.017-0.168h-2.966c-0.006,0.056-0.017,0.11-0.017,0.168c0,0.288,3.455,36.504,3.885,43.225c0.407,6.357,0.775,9.979,0.865,10.785c0.806,0.054,1.361,0.1,2.5,0.124c0.008-0.093,0.25-4.469-0.469-11.692C229.022,430.656,225.875,395.495,225.833,394.139z"></path><path style="fill:#6E6E6E;" d="M234,394.144l0,0.024c0-0.058-0.011-0.112-0.017-0.168h-2.966c-0.006,0.056-0.017,0.11-0.017,0.168c0,0.512,1.806,36.526,2.168,43.741c-0.002-0.05,0.165,9.784,0.165,9.784c0.004,0.227,0.062,0.438,0.155,0.629c0.928,0.002,1.857-0.013,2.713-0.049c0.086-0.193,0.136-0.405,0.132-0.631l-0.167-9.834C235.425,423.019,234.02,394.933,234,394.144z"></path><path style="fill:#6E6E6E;" d="M241.483,394h-2.968c-0.008,0.072-0.018,0.146-0.015,0.221c0.01,0.284,0.999,35.364,0.999,40.446c0,0.761,0.833-2.459,1.303-5.353c0.617-3.969,1.229-8.141,1.493-10.639c0-0.001,0-0.002,0-0.003c-0.284-9.908-0.769-23.737-0.797-24.558C241.498,394.075,241.488,394.039,241.483,394z"></path></g><g><path style="fill:none;stroke:#000000;stroke-linecap:round;stroke-linejoin:round;" d="M242.812,394H219.23c0.462,5.239,0.842,9.864,0.73,9.92c0.02,14.08,5.73,38.63,5.73,38.63s0.74,5.16,1.64,5.46s12.33,0.681,12.63-0.45c0.75-2.859-0.83-7.909-0.83-7.909s2.55-15.11,3.17-20.971c0.85-8.1,0.44-16.27,0.44-16.27S242.764,398.19,242.812,394z"></path></g></g><path style="fill:#2E2C30;stroke:#000000;stroke-linecap:round;stroke-linejoin:round;" d="M280.77,394h-23.582c0.049,4.189,0.074,8.407,0.074,8.407s-0.411,8.169,0.442,16.269c0.619,5.866,3.164,20.971,3.164,20.971s-1.576,5.057-0.825,7.912c0.299,1.136,11.724,0.751,12.626,0.451c0.901-0.301,1.646-5.458,1.646-5.458s5.702-24.554,5.728-38.63C279.927,403.866,280.308,399.241,280.77,394z"></path></g></g></svg>