<svg xmlns="http://www.w3.org/2000/svg" width="500" height="500" version="1.1"><g id="x9041"><g><g><path style="fill:#EAE7DE;stroke:#000000;stroke-linecap:round;stroke-linejoin:round;" d="M225.68,442.552c0,0,0.744,5.157,1.646,5.458c0.902,0.3,12.326,0.685,12.625-0.451c0.751-2.855-0.825-7.912-0.825-7.912s2.545-15.104,3.164-20.971c0.26-2.464,0.401-4.931,0.474-7.176h-22.393C221.688,425.36,225.68,442.552,225.68,442.552z"></path><g><g><polygon style="fill:#6E6E6E;" points="224.735,414.895 223.477,416.477 222.217,414.895 223.477,413.312 "></polygon><g><polygon style="fill:#6E6E6E;" points="222.952,416.8 221.693,415.218 221.352,415.646 221.692,418.381 221.693,418.382 "></polygon><polygon style="fill:#6E6E6E;" points="226.519,416.8 225.26,418.382 224.001,416.8 225.26,415.218 "></polygon></g><polygon style="fill:#6E6E6E;" points="224.735,418.607 223.477,420.189 222.217,418.607 223.477,417.024 "></polygon></g><g><polygon style="fill:#6E6E6E;" points="232.652,414.895 231.393,416.477 230.134,414.895 231.393,413.312 "></polygon><g><polygon style="fill:#6E6E6E;" points="230.869,416.8 229.61,418.382 228.351,416.8 229.61,415.218 "></polygon><polygon style="fill:#6E6E6E;" points="234.435,416.8 233.176,418.382 231.917,416.8 233.176,415.218 "></polygon></g><polygon style="fill:#6E6E6E;" points="232.652,418.607 231.393,420.189 230.134,418.607 231.393,417.024 "></polygon></g><g><polygon style="fill:#6E6E6E;" points="240.568,414.895 239.31,416.477 238.05,414.895 239.31,413.312 "></polygon><g><polygon style="fill:#6E6E6E;" points="238.785,416.8 237.526,418.382 236.267,416.8 237.526,415.218 "></polygon><polygon style="fill:#6E6E6E;" points="241.093,415.218 239.834,416.8 241.093,418.382 241.922,417.34 242,416.357 "></polygon></g><polygon style="fill:#6E6E6E;" points="240.568,418.607 239.31,420.189 238.05,418.607 239.31,417.024 "></polygon></g></g></g><g><path style="fill:#EAE7DE;stroke:#000000;stroke-linecap:round;stroke-linejoin:round;" d="M274.319,442.552c0,0-0.744,5.157-1.645,5.458c-0.902,0.3-12.326,0.685-12.625-0.451c-0.752-2.855,0.824-7.912,0.824-7.912s-2.545-15.104-3.164-20.971c-0.26-2.464-0.4-4.931-0.474-7.176h22.393C278.312,425.36,274.319,442.552,274.319,442.552z"></path><g><g><polygon style="fill:#6E6E6E;" points="275.265,414.895 276.522,416.477 277.782,414.895 276.522,413.312 "></polygon><g><polygon style="fill:#6E6E6E;" points="277.048,416.8 278.306,415.218 278.647,415.646 278.308,418.381 278.306,418.382 "></polygon><polygon style="fill:#6E6E6E;" points="273.481,416.8 274.739,418.382 275.999,416.8 274.739,415.218 "></polygon></g><polygon style="fill:#6E6E6E;" points="275.265,418.607 276.522,420.189 277.782,418.607 276.522,417.024 "></polygon></g><g><polygon style="fill:#6E6E6E;" points="267.348,414.895 268.606,416.477 269.866,414.895 268.606,413.312 "></polygon><g><polygon style="fill:#6E6E6E;" points="269.131,416.8 270.39,418.382 271.649,416.8 270.39,415.218 "></polygon><polygon style="fill:#6E6E6E;" points="265.564,416.8 266.823,418.382 268.082,416.8 266.823,415.218 "></polygon></g><polygon style="fill:#6E6E6E;" points="267.348,418.607 268.606,420.189 269.866,418.607 268.606,417.024 "></polygon></g><g><polygon style="fill:#6E6E6E;" points="259.431,414.895 260.69,416.477 261.949,414.895 260.69,413.312 "></polygon><g><polygon style="fill:#6E6E6E;" points="261.214,416.8 262.474,418.382 263.732,416.8 262.474,415.218 "></polygon><polygon style="fill:#6E6E6E;" points="258.907,415.218 260.165,416.8 258.907,418.382 258.077,417.34 257.999,416.357 "></polygon></g><polygon style="fill:#6E6E6E;" points="259.431,418.607 260.69,420.189 261.949,418.607 260.69,417.024 "></polygon></g></g></g></g></g></svg>