<svg xmlns="http://www.w3.org/2000/svg" width="500" height="500" version="1.1"><g id="x9042"><g><path style="fill:#1B1720;stroke:#000000;stroke-linecap:round;stroke-linejoin:round;" d="M219.959,403.922c0.025,14.076,5.728,38.63,5.728,38.63s0.744,5.157,1.646,5.458c0.902,0.3,12.326,0.685,12.625-0.451c0.751-2.855-0.825-7.912-0.825-7.912s2.545-15.104,3.164-20.971c0.854-8.1,0.442-16.269,0.442-16.269s0.048-7.999,0.139-12.907h-24.048C219.438,396.264,220.106,403.851,219.959,403.922z"></path><linearGradient id="socksXMLID_4_" gradientUnits="userSpaceOnUse" x1="269.1475" y1="403.5" x2="269.1475" y2="450"><stop offset="0.0056" style="stop-color:#1B1720"></stop><stop offset="0.1966" style="stop-color:#593386"></stop><stop offset="0.4" style="stop-color:#A452BC"></stop><stop offset="0.6" style="stop-color:#E373DB"></stop><stop offset="0.8" style="stop-color:#F09CB7"></stop><stop offset="1" style="stop-color:#F2E3D7"></stop></linearGradient><path style="fill:url(#socksXMLID_4_);stroke:#000000;stroke-linecap:round;stroke-linejoin:round;" d="M281.172,389.5h-24.049c0.091,4.908,0.139,12.907,0.139,12.907s-0.411,8.169,0.442,16.269c0.619,5.866,3.164,20.971,3.164,20.971s-1.576,5.057-0.825,7.912c0.299,1.136,11.724,0.751,12.626,0.451c0.901-0.301,1.646-5.458,1.646-5.458s5.702-24.554,5.728-38.63C279.895,403.851,280.563,396.264,281.172,389.5z"></path></g></g></svg>