<svg xmlns="http://www.w3.org/2000/svg" width="500" height="500" version="1.1"><g id="x9043"><g><g id="socksXMLID_37_"><g><path style="fill:#EDEDED;" d="M280.334,398.5c-0.26,3.13-0.42,5.38-0.34,5.42c-0.021,14.08-5.73,38.63-5.73,38.63s-0.739,5.16-1.64,5.46s-12.33,0.681-12.63-0.45c-0.75-2.859,0.83-7.909,0.83-7.909s-2.55-15.11-3.17-20.971c-0.851-8.1-0.44-16.27-0.44-16.27s-0.01-1.65-0.029-3.91c0,0,1.939,1.3,11.1,1.3C277.454,399.8,280.334,398.5,280.334,398.5z"></path></g><path style="fill:#6E6E6E;" d="M257.288,402.167c0,0,2.5,1,10.5,1s12.166-1.667,12.166-1.667l-0.333,5c0,0-2.834,1.833-12.167,1.833s-10.333-1.5-10.333-1.5L257.288,402.167z"></path><path style="fill:#6E6E6E;" d="M257.657,411.354c0,0,2.418,1,10.155,1s11.767-1.667,11.767-1.667l-0.322,5c0,0-2.74,1.833-11.768,1.833c-9.026,0-9.993-1.5-9.993-1.5L257.657,411.354z"></path><path style="fill:#6E6E6E;" d="M267.813,422.604c-5.83,0-8.638-0.567-9.669-0.848l0.789,5.211c1.325,0.392,3.83,0.803,8.557,0.803c4.884,0,7.916-0.536,9.681-1.028l0.965-5.343C276.337,421.893,272.873,422.604,267.813,422.604z"></path><path style="fill:#6E6E6E;" d="M267.813,432.854c-3.945,0-6.502-0.26-8.065-0.515l0.793,5.234c1.491,0.25,3.688,0.446,6.949,0.446c3.427,0,5.943-0.265,7.752-0.592l0.962-5.33C274.239,432.488,271.438,432.854,267.813,432.854z"></path><g><path style="fill:none;stroke:#000000;stroke-linecap:round;stroke-linejoin:round;" d="M280.334,398.5c0,0-2.88,1.3-12.05,1.3c-9.16,0-11.1-1.3-11.1-1.3c0.02,2.26,0.029,3.91,0.029,3.91s-0.41,8.17,0.44,16.27c0.62,5.86,3.17,20.971,3.17,20.971s-1.58,5.05-0.83,7.909c0.3,1.131,11.729,0.75,12.63,0.45s1.64-5.46,1.64-5.46s5.71-24.55,5.73-38.63C279.914,403.88,280.074,401.63,280.334,398.5z"></path></g></g><g id="socksXMLID_50_"><g><path style="fill:#EDEDED;" d="M219.666,398.5c0.26,3.13,0.42,5.38,0.34,5.42c0.021,14.08,5.73,38.63,5.73,38.63s0.739,5.16,1.64,5.46s12.33,0.681,12.63-0.45c0.75-2.859-0.83-7.909-0.83-7.909s2.55-15.11,3.17-20.971c0.851-8.1,0.44-16.27,0.44-16.27s0.01-1.65,0.029-3.91c0,0-1.939,1.3-11.1,1.3C222.545,399.8,219.666,398.5,219.666,398.5z"></path></g><path style="fill:#6E6E6E;" d="M242.711,402.167c0,0-2.5,1-10.5,1s-12.166-1.667-12.166-1.667l0.333,5c0,0,2.834,1.833,12.167,1.833s10.333-1.5,10.333-1.5L242.711,402.167z"></path><path style="fill:#6E6E6E;" d="M242.342,411.354c0,0-2.418,1-10.155,1s-11.767-1.667-11.767-1.667l0.322,5c0,0,2.74,1.833,11.768,1.833c9.026,0,9.993-1.5,9.993-1.5L242.342,411.354z"></path><path style="fill:#6E6E6E;" d="M232.187,422.604c5.83,0,8.638-0.567,9.669-0.848l-0.789,5.211c-1.325,0.392-3.83,0.803-8.557,0.803c-4.884,0-7.916-0.536-9.681-1.028l-0.965-5.343C223.663,421.893,227.126,422.604,232.187,422.604z"></path><path style="fill:#6E6E6E;" d="M232.187,432.854c3.945,0,6.502-0.26,8.065-0.515l-0.793,5.234c-1.491,0.25-3.688,0.446-6.949,0.446c-3.427,0-5.943-0.265-7.752-0.592l-0.962-5.33C225.76,432.488,228.561,432.854,232.187,432.854z"></path><g><path style="fill:none;stroke:#000000;stroke-linecap:round;stroke-linejoin:round;" d="M219.666,398.5c0,0,2.88,1.3,12.05,1.3c9.16,0,11.1-1.3,11.1-1.3c-0.02,2.26-0.029,3.91-0.029,3.91s0.41,8.17-0.44,16.27c-0.62,5.86-3.17,20.971-3.17,20.971s1.58,5.05,0.83,7.909c-0.3,1.131-11.729,0.75-12.63,0.45s-1.64-5.46-1.64-5.46s-5.71-24.55-5.73-38.63C220.085,403.88,219.925,401.63,219.666,398.5z"></path></g></g></g></g></svg>