<svg xmlns="http://www.w3.org/2000/svg" width="500" height="500" version="1.1"><g id="x9044"><g><g><g><path style="fill:#6E6E6E;stroke:#000000;stroke-linecap:round;stroke-linejoin:round;" d="M225.618,442.552c0,0,0.744,5.157,1.646,5.458c0.902,0.3,12.326,0.685,12.625-0.451c0.751-2.855-0.825-7.912-0.825-7.912s2.545-15.104,3.164-20.971c0.077-0.728,0.14-1.453,0.197-2.176c0,0-3.159,1.333-10.493,1.333s-11.057-1.333-11.057-1.333C222.512,429.17,225.618,442.552,225.618,442.552z"></path><g><path style="fill:none;stroke:#000000;stroke-linecap:round;stroke-linejoin:round;" d="M223.931,417.667c0,0,4.167,28.5,5.167,30"></path><path style="fill:none;stroke:#000000;stroke-linecap:round;stroke-linejoin:round;" d="M228.265,418c0,0,1.201,13.284,2.289,22.175c0.533,4.358,1.268,7.661,1.377,7.825"></path><path style="fill:none;stroke:#000000;stroke-linecap:round;stroke-linejoin:round;" d="M238.931,417.333c0,0-2.167,21-2,22.167s0.833,8.499,0.5,8.833"></path><polyline style="fill:none;stroke:#000000;stroke-linecap:round;stroke-linejoin:round;" points="233.765,418.5 233.765,440.167 234.265,448.167 "></polyline></g></g><g><path style="fill:#6E6E6E;stroke:#000000;stroke-linecap:round;stroke-linejoin:round;" d="M274.382,442.552c0,0-0.744,5.157-1.646,5.458c-0.902,0.3-12.326,0.685-12.625-0.451c-0.751-2.855,0.825-7.912,0.825-7.912s-2.545-15.104-3.164-20.971c-0.077-0.728-0.14-1.453-0.197-2.176c0,0,3.159,1.333,10.493,1.333s11.057-1.333,11.057-1.333C277.488,429.17,274.382,442.552,274.382,442.552z"></path><g><path style="fill:none;stroke:#000000;stroke-linecap:round;stroke-linejoin:round;" d="M276.068,417.667c0,0-4.166,28.5-5.166,30"></path><path style="fill:none;stroke:#000000;stroke-linecap:round;stroke-linejoin:round;" d="M271.734,418c0,0-1.2,13.284-2.289,22.175c-0.533,4.358-1.268,7.661-1.377,7.825"></path><path style="fill:none;stroke:#000000;stroke-linecap:round;stroke-linejoin:round;" d="M261.068,417.333c0,0,2.166,21,2,22.167s-0.834,8.499-0.5,8.833"></path><polyline style="fill:none;stroke:#000000;stroke-linecap:round;stroke-linejoin:round;" points="266.234,418.5 266.234,440.167 265.734,448.167 "></polyline></g></g></g><g><g><path style="fill:#6E6E6E;stroke:#000000;stroke-linecap:round;stroke-linejoin:round;" d="M257.167,389.518c0,0,5.059,0.663,12.083,0.528c3.643-0.07,9.25,0.067,12.084-1.015c0.416,1.887,0.083,4.303-0.834,5.72c-1.583,0.917-6.333,1.162-12.166,1c-6-0.167-9.167-0.25-11.084-1.25C256.75,391.167,257.167,389.518,257.167,389.518z"></path><path style="fill:#6E6E6E;stroke:#000000;stroke-linecap:round;stroke-linejoin:round;" d="M269.25,390.046c0,0-3.75,0.454-4.25,1.037s-0.667,3.417,0.25,4s4.499,0.483,4.833,0.483"></path></g><circle style="fill:#6E6E6E;stroke:#000000;stroke-linecap:round;stroke-linejoin:round;" cx="267.667" cy="392.916" r="1.083"></circle></g></g></g></svg>