<svg xmlns="http://www.w3.org/2000/svg" width="500" height="500" version="1.1"><g id="x9045"><g><g><path style="fill:#FEFEFF;stroke:#000000;stroke-linecap:round;stroke-linejoin:round;" d="M279.609,411.5c0,0-2.957,1.667-11.457,1.667s-10.937-1.667-10.937-1.667c0.072,2.245,0.214,4.712,0.474,7.176c0.255,2.418,0.838,6.406,1.435,10.26c-0.371,1.035-0.706,2.237-0.514,2.814c0.205,0.616,0.782,1.376,1.266,1.942c0.549,3.407,0.978,5.954,0.978,5.954s-1.576,5.057-0.825,7.912c0.299,1.136,11.724,0.751,12.626,0.451c0.901-0.301,1.646-5.458,1.646-5.458s0.861-3.71,1.915-9.07c0.439-0.536,0.908-1.19,1.089-1.731c0.159-0.478-0.043-1.383-0.327-2.268C277.995,423.945,279.046,417.421,279.609,411.5z"></path><path style="fill:#FFE6CA;" d="M268.61,418.625c-5.362,0-9.138-0.473-10.467-0.667l0.43,3.822c0.454,0.661,1.193,1.22,2.412,1.22c2.841,0,3.457-1.569,3.59-2.336c0.174,0.848,0.853,2.987,3.258,2.848c2.385-0.139,3.134-1.293,3.363-2.117c0.281,0.809,1.084,1.859,3.371,1.946c1.766,0.066,2.764-1.146,3.289-2.155l0.444-3.362C277.352,418.032,274.172,418.625,268.61,418.625z M261.11,421.125c-0.649,0-1.137-0.577-1.401-0.983c0.697,0.124,1.615,0.258,2.773,0.368C262.134,420.808,261.643,421.125,261.11,421.125z M267.85,421.633c-0.649,0.037-1.171-0.513-1.458-0.903c0.509,0.013,1.034,0.021,1.594,0.021c0.484,0,0.947-0.005,1.396-0.013C269.063,421.089,268.499,421.596,267.85,421.633z M274.515,421.463c-0.657-0.025-1.236-0.531-1.561-0.878c1.291-0.09,2.346-0.204,3.17-0.316C275.938,420.589,275.339,421.494,274.515,421.463z"></path><path style="fill:none;stroke:#F0EDEC;stroke-linecap:round;stroke-linejoin:round;" d="M263.485,414.074c0,0,0,4.125,0,4.625"></path><path style="fill:none;stroke:#F0EDEC;stroke-linecap:round;stroke-linejoin:round;" d="M272.985,414.5c0,0-0.25,3.352-0.5,4.602"></path></g><g><path style="fill:#FEFEFF;stroke:#000000;stroke-linecap:round;stroke-linejoin:round;" d="M220.391,411.5c0,0,2.957,1.667,11.457,1.667s10.937-1.667,10.937-1.667c-0.072,2.245-0.214,4.712-0.474,7.176c-0.255,2.418-0.838,6.406-1.435,10.26c0.371,1.035,0.706,2.237,0.514,2.814c-0.205,0.616-0.782,1.376-1.266,1.942c-0.549,3.407-0.978,5.954-0.978,5.954s1.576,5.057,0.825,7.912c-0.299,1.136-11.724,0.751-12.626,0.451c-0.901-0.301-1.646-5.458-1.646-5.458s-0.861-3.71-1.915-9.07c-0.439-0.536-0.908-1.19-1.089-1.731c-0.159-0.478,0.043-1.383,0.327-2.268C222.005,423.945,220.955,417.421,220.391,411.5z"></path><path style="fill:#FFE6CA;" d="M221.7,417.823l0.444,3.362c0.525,1.009,1.523,2.222,3.289,2.155c2.287-0.087,3.09-1.138,3.371-1.946c0.229,0.824,0.979,1.979,3.363,2.117c2.405,0.14,3.084-2,3.258-2.848c0.133,0.767,0.749,2.336,3.59,2.336c1.219,0,1.958-0.559,2.412-1.22l0.43-3.822c-1.329,0.194-5.104,0.667-10.467,0.667C225.829,418.625,222.649,418.032,221.7,417.823z M237.518,420.51c1.158-0.11,2.076-0.244,2.773-0.368c-0.265,0.406-0.752,0.983-1.401,0.983C238.358,421.125,237.867,420.808,237.518,420.51z M230.619,420.737c0.449,0.008,0.912,0.013,1.396,0.013c0.56,0,1.085-0.008,1.594-0.021c-0.287,0.391-0.809,0.94-1.458,0.903S230.937,421.089,230.619,420.737z M223.876,420.269c0.824,0.112,1.879,0.227,3.17,0.316c-0.324,0.347-0.903,0.853-1.561,0.878C224.662,421.494,224.063,420.589,223.876,420.269z"></path><path style="fill:none;stroke:#F0EDEC;stroke-linecap:round;stroke-linejoin:round;" d="M236.515,414.074c0,0,0,4.125,0,4.625"></path><path style="fill:none;stroke:#F0EDEC;stroke-linecap:round;stroke-linejoin:round;" d="M227.015,414.5c0,0,0.25,3.352,0.5,4.602"></path></g></g></g></svg>