<svg xmlns="http://www.w3.org/2000/svg" width="500" height="500" version="1.1"><g id="x9046"><g><g><path style="fill:#6E6E6E;stroke:#000000;stroke-linecap:round;stroke-linejoin:round;" d="M267.8,422.333c-7.333,0-9.933-1.333-9.933-1.333c0.977,6.784,2.968,18.646,2.968,18.646s-1.576,5.057-0.825,7.912c0.299,1.136,11.724,0.751,12.626,0.451c0.901-0.301,1.646-5.458,1.646-5.458s2.597-11.608,4.232-21.552C278.514,421,275.133,422.333,267.8,422.333z"></path><path style="fill:none;stroke:#000000;stroke-linecap:round;stroke-linejoin:round;" d="M262.3,422.333c0,0,0.001,3.834,0.334,4.667"></path><path style="fill:none;stroke:#000000;stroke-linecap:round;stroke-linejoin:round;" d="M273.967,422.333c0,0-0.001,3.834-0.334,4.667"></path><line style="fill:none;stroke:#000000;stroke-linecap:round;stroke-linejoin:round;" x1="268.634" y1="422.5" x2="268.634" y2="427"></line></g><g><path style="fill:#6E6E6E;stroke:#000000;stroke-linecap:round;stroke-linejoin:round;" d="M232.199,422.333c7.333,0,9.933-1.333,9.933-1.333c-0.977,6.784-2.968,18.646-2.968,18.646s1.576,5.057,0.825,7.912c-0.299,1.136-11.724,0.751-12.626,0.451c-0.901-0.301-1.646-5.458-1.646-5.458s-2.597-11.608-4.232-21.552C221.485,421,224.866,422.333,232.199,422.333z"></path><path style="fill:none;stroke:#000000;stroke-linecap:round;stroke-linejoin:round;" d="M237.699,422.333c0,0-0.001,3.834-0.334,4.667"></path><path style="fill:none;stroke:#000000;stroke-linecap:round;stroke-linejoin:round;" d="M226.032,422.333c0,0,0.001,3.834,0.334,4.667"></path><line style="fill:none;stroke:#000000;stroke-linecap:round;stroke-linejoin:round;" x1="231.365" y1="422.5" x2="231.365" y2="427"></line></g></g></g></svg>