<svg xmlns="http://www.w3.org/2000/svg" width="500" height="500" version="1.1"><g id="x9047"><g><g><path style="fill:#6E6E6E;stroke:#000000;stroke-linecap:round;stroke-linejoin:round;" d="M266.039,393.667l5.166,0.5c0,0-1.666,16.666-2.834,16.833C267.205,411.167,266.039,393.667,266.039,393.667z"></path><path style="fill:#313332;stroke:#000000;stroke-linecap:round;stroke-linejoin:round;" d="M280.873,393.667c0,0,0.117-0.843,0.141-1.978c0.016-0.175,0.031-0.349,0.047-0.522c0,0-0.016,0.012-0.045,0.029c-0.002-0.642-0.037-1.341-0.143-2.029c-3.334,0.167-4.334,3.333-4.334,3.333s-0.666-0.5-2.834-0.667c-2.166-0.167-3.332,1.334-3.332,1.334l-0.023,0.133c-0.629,0.021-1.281,13.867-1.979,13.867c-0.518,0-0.998-13.841-1.471-13.853c-0.111-0.227-0.232-0.396-0.361-0.481c-1.5-1-4.334,0-4.334,0s0.168-1.333-1.5-2c-1.666-0.667-3.516,0.334-3.516,0.334c0.072,4.861,0.111,11.24,0.111,11.24s-0.412,8.169,0.441,16.269c0.619,5.866,3.164,20.971,3.164,20.971s-1.576,5.057-0.824,7.912c0.299,1.136,11.723,0.751,12.625,0.451c0.902-0.301,1.646-5.458,1.646-5.458s5.701-24.554,5.727-38.63c-0.117-0.057,0.283-4.876,0.758-10.251L280.873,393.667z"></path><g style="opacity:0.5;"><path style="fill:none;stroke:#FFFFFF;stroke-linecap:round;stroke-linejoin:round;" d="M270.873,408.501c0-0.5,0.666-13.5,1.5-14c0.832-0.5,5,0.333,5,0.333s1.498-2,2.666-2"></path><path style="fill:none;stroke:#FFFFFF;stroke-linecap:round;stroke-linejoin:round;" d="M258.102,393.063c0,0,1.625,0,2.438,0.438s1.25,1.25,1.25,1.25s2.625-0.25,3.5,0.25s0.75,13.5,0.75,13.5"></path></g><polygon style="fill:#6E6E6E;" points="268.438,408.418 267,410.968 268.307,413.752 269.709,411.076 "></polygon></g><g><path style="fill:#6E6E6E;stroke:#000000;stroke-linecap:round;stroke-linejoin:round;" d="M233.962,393.667l-5.167,0.5c0,0,1.667,16.666,2.834,16.833S233.962,393.667,233.962,393.667z"></path><path style="fill:#313332;stroke:#000000;stroke-linecap:round;stroke-linejoin:round;" d="M219.128,393.667c0,0-0.117-0.843-0.142-1.978c-0.016-0.175-0.031-0.349-0.047-0.522c0,0,0.017,0.012,0.045,0.029c0.003-0.642,0.038-1.341,0.144-2.029c3.333,0.167,4.334,3.333,4.334,3.333s0.666-0.5,2.833-0.667s3.333,1.334,3.333,1.334l0.022,0.133c0.629,0.021,1.282,13.867,1.979,13.867c0.518,0,0.999-13.841,1.471-13.853c0.112-0.227,0.232-0.396,0.362-0.481c1.5-1,4.333,0,4.333,0s-0.167-1.333,1.5-2s3.517,0.334,3.517,0.334c-0.073,4.861-0.111,11.24-0.111,11.24s0.411,8.169-0.442,16.269c-0.619,5.866-3.164,20.971-3.164,20.971s1.576,5.057,0.825,7.912c-0.299,1.136-11.724,0.751-12.626,0.451c-0.901-0.301-1.646-5.458-1.646-5.458s-5.702-24.554-5.728-38.63c0.117-0.057-0.282-4.876-0.758-10.251L219.128,393.667z"></path><g style="opacity:0.5;"><path style="fill:none;stroke:#FFFFFF;stroke-linecap:round;stroke-linejoin:round;" d="M229.128,408.501c0-0.5-0.667-13.5-1.5-14s-5,0.333-5,0.333s-1.499-2-2.666-2"></path><path style="fill:none;stroke:#FFFFFF;stroke-linecap:round;stroke-linejoin:round;" d="M241.899,393.063c0,0-1.625,0-2.438,0.438s-1.25,1.25-1.25,1.25s-2.625-0.25-3.5,0.25s-0.75,13.5-0.75,13.5"></path></g><polygon style="fill:#6E6E6E;" points="231.563,408.418 233,410.968 231.694,413.752 230.292,411.076 "></polygon></g></g></g></svg>