<svg xmlns="http://www.w3.org/2000/svg" width="500" height="500" version="1.1"><g id="x9048"><g><g><g id="socksXMLID_29_"><g><path style="fill:#F3F2ED;" d="M231.59,414.43c-0.36,2.511-0.65,2.9-2.51,3.38c1.86,0.48,2.15,0.87,2.51,3.381c0.36-2.511,0.65-2.9,2.51-3.381C232.24,417.33,231.95,416.94,231.59,414.43z M221.21,418.23c-0.34-2.53-0.69-5.23-0.69-5.23s4.72,0.83,5.67,2.17c1.73-2.84,5.66-2.34,5.66-2.34s3.93-0.5,5.66,2.34c0.95-1.34,5.51-2.17,5.51-2.17s-0.34,2.94-0.66,5.57c-1.41-0.57-1.65-1.11-1.78-3.42c-0.57,2.47-0.89,2.84-2.79,3.159c1.82,0.641,2.07,1.051,2.22,3.58c0.52-2.239,0.84-2.75,2.32-3.06c-0.25,2.01-0.48,3.77-0.51,3.78c-0.96,6.89-2.67,17.04-2.67,17.04s1.57,5.05,0.82,7.909c-0.3,1.131-11.72,0.75-12.62,0.45s-1.65-5.46-1.65-5.46s-2.19-9.43-3.86-19.96c-0.03-0.01-0.3-1.92-0.58-4.03c1.38,0.32,1.69,0.851,2.2,3.03c0.14-2.52,0.4-2.939,2.21-3.58c-1.9-0.319-2.22-0.68-2.79-3.149C222.75,417.11,222.53,417.69,221.21,418.23z"></path></g><g><path style="fill:#D5D4CF;" d="M222.142,423.958c0.101,0,2.489-0.029,4.284-2.588c-0.099,0.142-0.265,0.222-0.438,0.212c-0.172-0.01-0.328-0.107-0.411-0.26c1.188,2.178,3.779,2.178,6.522,2.178c4.621,0,5.673-2.543,5.715-2.651c-0.073,0.186-0.25,0.311-0.449,0.317c-0.199,0.006-0.384-0.106-0.469-0.287c0.06,0.127,1.495,3.104,4.59,3.286l0,0c0.275,0.017,0.512-0.194,0.528-0.47c0.017-0.275-0.194-0.512-0.47-0.528l0,0c-2.494-0.147-3.731-2.689-3.744-2.715c-0.086-0.18-0.27-0.292-0.469-0.285s-0.375,0.131-0.448,0.316c-0.033,0.077-0.892,2.017-4.785,2.017c-2.939,0-4.785-0.08-5.645-1.656c-0.083-0.152-0.238-0.25-0.411-0.26c-0.173-0.01-0.338,0.07-0.438,0.212c-1.484,2.115-3.388,2.161-3.469,2.162h0.003c-0.276,0-0.5,0.224-0.5,0.5S221.865,423.958,222.142,423.958L222.142,423.958z"></path></g><g><path style="fill:none;stroke:#000000;stroke-linecap:round;stroke-linejoin:round;" d="M242.33,418.83c-1.48,0.31-1.8,0.82-2.32,3.06c-0.15-2.529-0.4-2.939-2.22-3.58c1.9-0.319,2.22-0.689,2.79-3.159c0.13,2.31,0.37,2.85,1.78,3.42c0.32-2.63,0.66-5.57,0.66-5.57s-4.56,0.83-5.51,2.17c-1.73-2.84-5.66-2.34-5.66-2.34s-3.93-0.5-5.66,2.34c-0.95-1.34-5.67-2.17-5.67-2.17s0.35,2.7,0.69,5.23c1.32-0.54,1.54-1.12,1.67-3.37c0.57,2.47,0.89,2.83,2.79,3.149c-1.81,0.641-2.07,1.061-2.21,3.58c-0.51-2.18-0.82-2.71-2.2-3.03c0.28,2.11,0.55,4.021,0.58,4.03c1.67,10.53,3.86,19.96,3.86,19.96s0.75,5.16,1.65,5.46s12.32,0.681,12.62-0.45c0.75-2.859-0.82-7.909-0.82-7.909s1.71-10.15,2.67-17.04C241.85,422.6,242.08,420.84,242.33,418.83z"></path><path style="fill:none;stroke:#000000;stroke-linecap:round;stroke-linejoin:round;" d="M231.59,421.19c-0.36-2.511-0.65-2.9-2.51-3.381c1.86-0.479,2.15-0.869,2.51-3.38c0.36,2.511,0.65,2.9,2.51,3.38C232.24,418.29,231.95,418.68,231.59,421.19z"></path></g></g></g><g><g id="socksXMLID_30_"><g><path style="fill:#F3F2ED;" d="M268.41,414.43c-0.36,2.511-0.65,2.9-2.51,3.38c1.859,0.48,2.149,0.87,2.51,3.381c0.359-2.511,0.649-2.9,2.51-3.381C269.06,417.33,268.77,416.94,268.41,414.43z M276.54,421.59c0.5-2.18,0.82-2.71,2.2-3.03c-0.28,2.11-0.55,4.021-0.58,4.03c-1.68,10.53-3.87,19.96-3.87,19.96s-0.74,5.16-1.64,5.46c-0.9,0.3-12.33,0.681-12.631-0.45c-0.75-2.859,0.83-7.909,0.83-7.909s-1.71-10.15-2.67-17.04c-0.04-0.011-0.26-1.771-0.51-3.78c1.48,0.31,1.8,0.82,2.32,3.06c0.14-2.529,0.399-2.939,2.21-3.58c-1.891-0.319-2.22-0.689-2.79-3.159c-0.13,2.31-0.36,2.85-1.771,3.42c-0.319-2.63-0.659-5.57-0.659-5.57s4.56,0.83,5.51,2.17c1.729-2.84,5.66-2.34,5.66-2.34s3.93-0.5,5.659,2.34c0.94-1.34,5.671-2.17,5.671-2.17s-0.351,2.7-0.7,5.23c-1.32-0.54-1.54-1.12-1.66-3.37c-0.58,2.47-0.9,2.83-2.8,3.149C276.14,418.65,276.4,419.07,276.54,421.59z"></path></g><g><path style="fill:#D5D4CF;" d="M277.855,422.958c0.002,0,0.001,0,0.003,0c-0.08-0.001-1.984-0.047-3.469-2.162c-0.1-0.142-0.265-0.222-0.438-0.212s-0.328,0.107-0.411,0.26c-0.859,1.576-2.704,1.656-5.644,1.656c-3.894,0-4.752-1.939-4.787-2.021c-0.024-0.061-0.063-0.12-0.109-0.166c-0.115-0.115-0.279-0.167-0.439-0.139c-0.16,0.027-0.297,0.132-0.366,0.279c-0.012,0.024-1.251,2.566-3.744,2.714l0,0c-0.275,0.017-0.486,0.253-0.47,0.528s0.253,0.486,0.528,0.47l0,0c3.094-0.183,4.53-3.159,4.59-3.286c-0.085,0.181-0.27,0.293-0.469,0.287c-0.199-0.007-0.376-0.132-0.449-0.317c0.043,0.108,1.094,2.651,5.716,2.651c2.743,0,5.335,0,6.522-2.178c-0.083,0.152-0.238,0.25-0.411,0.26s-0.338-0.07-0.438-0.212c1.796,2.559,4.184,2.588,4.284,2.588l0,0c0.276,0,0.5-0.224,0.5-0.5S278.132,422.958,277.855,422.958L277.855,422.958z"></path></g><g><path style="fill:none;stroke:#000000;stroke-linecap:round;stroke-linejoin:round;" d="M258.18,422.61c0.96,6.89,2.67,17.04,2.67,17.04s-1.58,5.05-0.83,7.909c0.301,1.131,11.73,0.75,12.631,0.45c0.899-0.3,1.64-5.46,1.64-5.46s2.19-9.43,3.87-19.96c0.03-0.01,0.3-1.92,0.58-4.03c-1.38,0.32-1.7,0.851-2.2,3.03c-0.14-2.52-0.4-2.939-2.22-3.58c1.899-0.319,2.22-0.68,2.8-3.149c0.12,2.25,0.34,2.83,1.66,3.37c0.35-2.53,0.7-5.23,0.7-5.23s-4.73,0.83-5.671,2.17c-1.729-2.84-5.659-2.34-5.659-2.34s-3.931-0.5-5.66,2.34c-0.95-1.34-5.51-2.17-5.51-2.17s0.34,2.94,0.659,5.57c1.41-0.57,1.641-1.11,1.771-3.42c0.57,2.47,0.899,2.84,2.79,3.159c-1.811,0.641-2.07,1.051-2.21,3.58c-0.521-2.239-0.84-2.75-2.32-3.06C257.92,420.84,258.14,422.6,258.18,422.61z"></path><path style="fill:none;stroke:#000000;stroke-linecap:round;stroke-linejoin:round;" d="M265.9,417.81c1.859-0.479,2.149-0.869,2.51-3.38c0.359,2.511,0.649,2.9,2.51,3.38c-1.86,0.48-2.15,0.87-2.51,3.381C268.05,418.68,267.76,418.29,265.9,417.81z"></path></g></g></g></g></g></svg>