<svg xmlns="http://www.w3.org/2000/svg" width="500" height="500" version="1.1"><g id="x9049"><g><g id="socksXMLID_39_"><path style="fill:#6E6E6E;" d="M242.942,394.824c0.032-2.495-0.037-6.806,0.013-8.074h-23.81c1.15,0.95,2.83,2.4,3.36,3.25c-0.38,1.087-1.939,3.604-2.563,4.5C223.129,395,237.192,395.512,242.942,394.824z"></path><path style="opacity:0.9;fill:#6E6E6E;" d="M242.832,392.858c-7.307,0.527-14.614,0.206-21.921,0.15c-0.542,0.778-1.108,1.462-1.586,1.991c0.42,4.81,0.75,8.87,0.64,8.92c0.02,14.08,5.73,38.63,5.73,38.63s0.74,5.16,1.64,5.46s12.33,0.681,12.63-0.45c0.75-2.859-0.83-7.909-0.83-7.909s2.55-15.11,3.17-20.971c0.85-8.1,0.44-16.27,0.44-16.27S242.774,397.386,242.832,392.858z"></path><g><path style="fill:none;stroke:#000000;stroke-linecap:round;stroke-linejoin:round;" d="M242.955,386.75h-23.81c1.15,0.95,2.83,2.4,3.36,3.25c-0.71,2.03-2.15,3.86-3.18,5c0.42,4.81,0.75,8.87,0.64,8.92c0.02,14.08,5.73,38.63,5.73,38.63s0.74,5.16,1.64,5.46s12.33,0.681,12.63-0.45c0.75-2.859-0.83-7.909-0.83-7.909s2.55-15.11,3.17-20.971c0.85-8.1,0.44-16.27,0.44-16.27S242.814,390.32,242.955,386.75z"></path></g></g><g id="socksXMLID_41_"><path style="fill:#6E6E6E;" d="M257.059,394.824c-0.032-2.495,0.037-6.806-0.014-8.074h23.811c-1.15,0.95-2.83,2.4-3.359,3.25c0.379,1.087,1.938,3.604,2.563,4.5C276.871,395,262.809,395.512,257.059,394.824z"></path><path style="opacity:0.9;fill:#6E6E6E;" d="M257.168,392.858c7.307,0.527,14.614,0.206,21.922,0.15c0.541,0.778,1.107,1.462,1.586,1.991c-0.42,4.81-0.75,8.87-0.641,8.92c-0.02,14.08-5.729,38.63-5.729,38.63s-0.74,5.16-1.64,5.46c-0.9,0.3-12.33,0.681-12.631-0.45c-0.75-2.859,0.83-7.909,0.83-7.909s-2.55-15.11-3.17-20.971c-0.85-8.1-0.439-16.27-0.439-16.27S257.227,397.386,257.168,392.858z"></path><g><path style="fill:none;stroke:#000000;stroke-linecap:round;stroke-linejoin:round;" d="M257.045,386.75h23.811c-1.15,0.95-2.83,2.4-3.359,3.25c0.709,2.03,2.149,3.86,3.18,5c-0.42,4.81-0.75,8.87-0.641,8.92c-0.02,14.08-5.729,38.63-5.729,38.63s-0.74,5.16-1.64,5.46c-0.9,0.3-12.33,0.681-12.631-0.45c-0.75-2.859,0.83-7.909,0.83-7.909s-2.55-15.11-3.17-20.971c-0.85-8.1-0.439-16.27-0.439-16.27S257.186,390.32,257.045,386.75z"></path></g></g></g></g></svg>