<svg xmlns="http://www.w3.org/2000/svg" width="500" height="500" version="1.1"><g id="x005"><g><path style="fill:#6E6E6E;stroke:#000000;stroke-linecap:round;stroke-linejoin:round;" d="M240.06,434.001h-16.188c1.007,5.078,1.813,8.551,1.813,8.551s0.744,5.157,1.646,5.458c0.901,0.3,12.326,0.685,12.625-0.451c0.751-2.855-0.824-7.912-0.824-7.912S239.535,437.251,240.06,434.001z"></path><path style="fill:#6E6E6E;stroke:#000000;stroke-linecap:round;stroke-linejoin:round;" d="M259.94,434.001c0.524,3.25,0.928,5.646,0.928,5.646s-1.576,5.057-0.825,7.912c0.299,1.136,11.724,0.751,12.626,0.451c0.901-0.301,1.646-5.458,1.646-5.458s0.806-3.473,1.813-8.551H259.94z"></path></g></g></svg>