<svg xmlns="http://www.w3.org/2000/svg" width="500" height="500" version="1.1"><g id="x9050"><g><g><path style="fill:#6E6E6E;stroke:#000000;stroke-linecap:round;stroke-linejoin:round;" d="M282.029,379.148c0-0.546,0.229-1.755,0.513-3.481h-29.117c1.412,2.852,3.323,7.219,3.549,10.381c0.032,0.45,0.062,1.399,0.087,2.619h24.142C281.641,383.802,282.029,379.555,282.029,379.148z"></path><g id="socksXMLID_5_"><g style="opacity:0.8;"><path style="fill:#6E6E6E;" d="M257.065,388.67h24.14c-0.63,6.95-1.36,15.18-1.21,15.25c-0.021,14.08-5.73,38.63-5.73,38.63s-0.739,5.16-1.64,5.46s-12.33,0.681-12.63-0.45c-0.75-2.859,0.83-7.909,0.83-7.909s-2.55-15.11-3.17-20.971c-0.851-8.1-0.44-16.27-0.44-16.27S257.165,393.44,257.065,388.67z"></path></g><g><path style="fill:none;stroke:#000000;stroke-linecap:round;stroke-linejoin:round;" d="M281.205,388.67h-24.14c0.1,4.771,0.149,13.74,0.149,13.74s-0.41,8.17,0.44,16.27c0.62,5.86,3.17,20.971,3.17,20.971s-1.58,5.05-0.83,7.909c0.3,1.131,11.729,0.75,12.63,0.45s1.64-5.46,1.64-5.46s5.71-24.55,5.73-38.63C279.845,403.85,280.575,395.62,281.205,388.67z"></path></g></g></g><g><path style="fill:#6E6E6E;stroke:#000000;stroke-linecap:round;stroke-linejoin:round;" d="M217.971,379.148c0-0.546-0.229-1.755-0.513-3.481h29.117c-1.412,2.852-3.323,7.219-3.549,10.381c-0.032,0.45-0.062,1.399-0.087,2.619h-24.142C218.359,383.802,217.971,379.555,217.971,379.148z"></path><g id="socksXMLID_3_"><g style="opacity:0.8;"><path style="fill:#6E6E6E;" d="M242.935,388.67h-24.14c0.63,6.95,1.36,15.18,1.21,15.25c0.021,14.08,5.73,38.63,5.73,38.63s0.739,5.16,1.64,5.46s12.33,0.681,12.63-0.45c0.75-2.859-0.83-7.909-0.83-7.909s2.55-15.11,3.17-20.971c0.851-8.1,0.44-16.27,0.44-16.27S242.835,393.44,242.935,388.67z"></path></g><g><path style="fill:none;stroke:#000000;stroke-linecap:round;stroke-linejoin:round;" d="M218.795,388.67h24.14c-0.1,4.771-0.149,13.74-0.149,13.74s0.41,8.17-0.44,16.27c-0.62,5.86-3.17,20.971-3.17,20.971s1.58,5.05,0.83,7.909c-0.3,1.131-11.729,0.75-12.63,0.45s-1.64-5.46-1.64-5.46s-5.71-24.55-5.73-38.63C220.155,403.85,219.425,395.62,218.795,388.67z"></path></g></g></g></g></g></svg>