<svg xmlns="http://www.w3.org/2000/svg" width="500" height="500" version="1.1"><g id="x9051"><g><g><path style="fill:#6E6E6E;stroke:#000000;stroke-linecap:round;stroke-linejoin:round;" d="M242.86,391.334c0,0-0.513,0.556-3.127,0.991c-0.148-1.449-1.149-2.575-2.376-2.575c-1.329,0-2.406,1.315-2.406,2.938c0,0.028,0.006,0.055,0.007,0.083c-0.972,0.04-2.059,0.063-3.278,0.063c-1.358,0-2.57-0.03-3.672-0.08c0-0.022,0.005-0.044,0.005-0.066c0-1.622-1.077-2.938-2.406-2.938c-1.232,0-2.236,1.135-2.378,2.592c-3.135-0.438-4.222-1.008-4.222-1.008c0.558,6.23,1.1,12.523,0.965,12.588c0.025,14.076,5.728,38.63,5.728,38.63s0.744,5.157,1.646,5.458c0.902,0.3,12.326,0.685,12.625-0.451c0.751-2.855-0.825-7.912-0.825-7.912s2.545-15.104,3.164-20.971c0.854-8.1,0.442-16.269,0.442-16.269S242.789,396.173,242.86,391.334z"></path><ellipse style="fill:#F8BA71;" cx="225.606" cy="393.125" rx="1.239" ry="1.512"></ellipse><ellipse style="fill:#F8BA71;" cx="237.294" cy="393.125" rx="1.239" ry="1.512"></ellipse></g><g><path style="fill:#6E6E6E;stroke:#000000;stroke-linecap:round;stroke-linejoin:round;" d="M257.141,391.334c0,0,0.513,0.556,3.127,0.991c0.147-1.449,1.149-2.575,2.376-2.575c1.33,0,2.406,1.315,2.406,2.938c0,0.028-0.006,0.055-0.006,0.083c0.971,0.04,2.059,0.063,3.277,0.063c1.357,0,2.57-0.03,3.672-0.08c0-0.022-0.006-0.044-0.006-0.066c0-1.622,1.078-2.938,2.406-2.938c1.232,0,2.236,1.135,2.379,2.592c3.135-0.438,4.222-1.008,4.222-1.008c-0.558,6.23-1.1,12.523-0.966,12.588c-0.025,14.076-5.727,38.63-5.727,38.63s-0.744,5.157-1.646,5.458c-0.902,0.3-12.326,0.685-12.625-0.451c-0.75-2.855,0.826-7.912,0.826-7.912s-2.545-15.104-3.164-20.971c-0.854-8.1-0.443-16.269-0.443-16.269S257.212,396.173,257.141,391.334z"></path><ellipse style="fill:#F8BA71;" cx="274.394" cy="393.125" rx="1.239" ry="1.512"></ellipse><ellipse style="fill:#F8BA71;" cx="262.707" cy="393.125" rx="1.239" ry="1.512"></ellipse></g></g></g></svg>