<svg xmlns="http://www.w3.org/2000/svg" width="500" height="500" version="1.1"><g id="x9052"><g><path style="fill:#6E6E6E;stroke:#000000;stroke-linecap:round;stroke-linejoin:round;" d="M239.122,439.646c0,0,2.545-15.104,3.164-20.971c0.854-8.1,0.442-16.269,0.442-16.269s0.081-13.415,0.231-16.157c0,0-2.886,1.083-12.386,1.083s-12.048-1.083-12.048-1.083c0.659,7.299,1.595,17.589,1.423,17.672c0.025,14.076,5.728,38.63,5.728,38.63s0.016,0.107,0.043,0.282h14.148C239.563,441.071,239.122,439.646,239.122,439.646z"></path><path style="fill:#6E6E6E;stroke:#000000;stroke-linecap:round;stroke-linejoin:round;" d="M260.877,439.646c0,0-2.545-15.104-3.164-20.971c-0.854-8.1-0.441-16.269-0.441-16.269s-0.081-13.415-0.231-16.157c0,0,2.886,1.083,12.386,1.083s12.049-1.083,12.049-1.083c-0.66,7.299-1.596,17.589-1.424,17.672c-0.025,14.076-5.728,38.63-5.728,38.63s-0.016,0.107-0.044,0.282h-14.147C260.436,441.071,260.877,439.646,260.877,439.646z"></path></g></g></svg>