<svg xmlns="http://www.w3.org/2000/svg" width="500" height="500" version="1.1"><g id="x9053"><g><path style="fill:#6E6E6E;stroke:#000000;stroke-linecap:round;stroke-linejoin:round;" d="M242.8,408c0,0-1.158,0.333-10.658,0.333S220.065,408,220.065,408c0.876,14.265,5.587,34.552,5.587,34.552s0.016,0.107,0.043,0.282h14.148c-0.304-1.763-0.746-3.188-0.746-3.188s2.545-15.104,3.164-20.971C242.666,414.837,242.785,410.993,242.8,408z"></path><path style="fill:#6E6E6E;stroke:#000000;stroke-linecap:round;stroke-linejoin:round;" d="M257.202,408c0,0,1.158,0.333,10.658,0.333S279.938,408,279.938,408c-0.876,14.265-5.587,34.552-5.587,34.552s-0.016,0.107-0.043,0.282h-14.148c0.305-1.763,0.746-3.188,0.746-3.188s-2.545-15.104-3.164-20.971C257.337,414.837,257.218,410.993,257.202,408z"></path></g></g></svg>