<svg xmlns="http://www.w3.org/2000/svg" width="500" height="500" version="1.1"><g id="x006"><g><path style="fill:#6E6E6E;stroke:#000000;stroke-linecap:round;stroke-linejoin:round;" d="M243.014,385.667c-0.5-0.166-4,0.667-12,0.667s-12.533-1-12.533-1s1.533,17.667,1.533,18.667c0,0.908,0.14,7.298,0.663,9.966h-0.029c1.514,13.349,5.051,28.585,5.051,28.585s0.744,5.157,1.646,5.458c0.901,0.3,12.326,0.685,12.625-0.451c0.751-2.855-0.824-7.912-0.824-7.912s2.431-14.709,3.264-20.971C242.725,416.301,243.076,390.75,243.014,385.667z"></path><path style="fill:#6E6E6E;stroke:#000000;stroke-linecap:round;stroke-linejoin:round;" d="M256.986,385.667c0.5-0.166,4,0.667,12,0.667s12.533-1,12.533-1s-1.533,17.667-1.533,18.667c0,0.908-0.14,7.298-0.663,9.966h0.029c-1.514,13.349-5.051,28.585-5.051,28.585s-0.744,5.157-1.646,5.458c-0.901,0.3-12.326,0.685-12.625-0.451c-0.751-2.855,0.824-7.912,0.824-7.912s-2.431-14.709-3.263-20.971C257.275,416.301,256.924,390.75,256.986,385.667z"></path></g></g></svg>