<svg xmlns="http://www.w3.org/2000/svg" width="500" height="500" version="1.1"><g id="x007"><path style="fill:#6E6E6E;stroke:#000000;stroke-linecap:round;stroke-linejoin:round;" d="M283.367,355.501c-5.635,2.035-30.376,3.04-33.369,3.154c-2.993-0.114-27.731-1.119-33.366-3.154c-1.167,4.833-0.667,13.334,0.167,17.5s3.18,30.269,3.18,31c0,0.908,0.14,7.298,0.663,9.966h-0.029c1.514,13.349,5.051,28.585,5.051,28.585s0.744,5.157,1.646,5.458c0.901,0.3,12.326,0.685,12.625-0.451c0.751-2.855-0.824-7.912-0.824-7.912s2.431-14.709,3.264-20.971c0.312-2.349,0.659-27.349,0.606-32.818c0.409-1.784,1.436-6.016,2.219-7.19c1-1.5,2.433-5.166,2.433-5.166h4.735c0,0,1.434,3.666,2.434,5.166c0.783,1.175,1.811,5.406,2.219,7.19c-0.053,5.47,0.295,30.47,0.605,32.818c0.834,6.262,3.264,20.971,3.264,20.971s-1.574,5.057-0.824,7.912c0.299,1.136,11.725,0.751,12.625,0.451c0.902-0.301,1.646-5.458,1.646-5.458s3.537-15.236,5.051-28.585h-0.029c0.523-2.668,0.664-9.058,0.664-9.966c0-0.731,2.346-26.834,3.18-31S284.535,360.334,283.367,355.501z"></path></g></svg>