<svg xmlns="http://www.w3.org/2000/svg" width="500" height="500" version="1.1"><g id="x009"><g><path style="fill:#6E6E6E;stroke:#000000;stroke-linecap:round;stroke-linejoin:round;" d="M243.802,412.918c0-1-0.917-2.584-0.917-2.584s-0.333,1.084-0.417,1.834c-0.167,0.334-2.417,1.75-2.417,1.75s-1.667-1.75-2.583-2.25c-1,0.417-2.25,2-2.25,2s-1.083-1.251-2.083-1.834c-0.75,0.25-2.667,1.667-2.667,1.667s-1.333-1.167-2.333-1.667c-1,0.166-2.583,1.584-2.583,1.584s-1.417-1.167-2.167-1.584c-1-0.084-2.167,1.917-2.167,1.917l-0.917-2.417c0,0-1.25,2.667-1.167,3.084s0.75,2.083,1.917,4.166l0.17-0.009c1.686,12.013,4.462,23.977,4.462,23.977s0.744,5.157,1.646,5.458c0.901,0.3,12.326,0.685,12.625-0.451c0.751-2.855-0.824-7.912-0.824-7.912s2.544-15.104,3.163-20.971C242.336,418.284,243.802,413.918,243.802,412.918z"></path><path style="fill:#6E6E6E;stroke:#000000;stroke-linecap:round;stroke-linejoin:round;" d="M279.695,411.334l-0.917,2.417c0,0-1.166-2.001-2.166-1.917c-0.75,0.417-2.167,1.584-2.167,1.584s-1.583-1.418-2.583-1.584c-1,0.5-2.334,1.667-2.334,1.667s-1.916-1.417-2.666-1.667c-1,0.583-2.084,1.834-2.084,1.834s-1.25-1.583-2.25-2c-0.916,0.5-2.583,2.25-2.583,2.25s-2.251-1.416-2.417-1.75c-0.083-0.75-0.416-1.834-0.416-1.834s-0.917,1.584-0.917,2.584s1.468,5.366,1.509,5.758c0.619,5.866,3.164,20.971,3.164,20.971s-1.576,5.057-0.825,7.912c0.299,1.136,11.724,0.751,12.626,0.451c0.901-0.301,1.646-5.458,1.646-5.458s2.776-11.964,4.463-23.977l0.168,0.009c1.167-2.083,1.833-3.749,1.917-4.166C280.945,414.001,279.695,411.334,279.695,411.334z"></path></g></g></svg>