<svg xmlns="http://www.w3.org/2000/svg" width="500" height="500" version="1.1"><g id="x010"><g><path style="fill:#6E6E6E;stroke:#000000;stroke-linecap:round;stroke-linejoin:round;" d="M288.332,387.844c0.114-1.142-3.365-16.019-3.975-18.49l-0.125-6.754c0,0,0.737-1.969,0-3.693c-0.739-1.724-1.725-5.91-1.725-5.91s-9.174,2.337-32.674,2.337c-23.5,0-32.341-2.337-32.341-2.337s-0.985,4.187-1.724,5.91c-0.739,1.725,0,3.693,0,3.693l-0.126,6.754c-0.609,2.472-4.087,17.349-3.974,18.49c1.34,1.058,3.731,1.671,6.131,2.047c2.387,0.696,6.564,1.523,12.991,1.523c11.083,0,13.545,0.492,13.545,0.492l0.738-8.619l3.694-8.62h2.463l3.694,8.62l0.738,8.619c0,0,2.463-0.492,13.545-0.492c6.426,0,10.604-0.827,12.99-1.523C284.601,389.515,286.991,388.901,288.332,387.844z"></path><path style="fill:none;stroke:#000000;stroke-linecap:round;stroke-linejoin:round;" d="M240.438,370.486c0,0,4.188,3.188,8.313,4.125"></path><path style="fill:none;stroke:#000000;stroke-linecap:round;stroke-linejoin:round;" d="M259.563,370.486c0,0-4.188,3.188-8.313,4.125"></path></g></g></svg>