<svg xmlns="http://www.w3.org/2000/svg" width="500" height="500" version="1.1"><g id="x100"><g><g><g><path style="fill:#6E6E6E;stroke:#000000;stroke-linecap:round;stroke-linejoin:round;" d="M281.341,347.967L250,350.499l-31.34-2.532c0,0-2.564,10.668-2.104,18.747c0.151,2.651,0.718,23.709,2.625,41.453c1.71,15.909,4.789,28.828,4.789,28.828s2,1.942,8.861,1.817c4.826,0.375,7.684-1.938,7.684-1.938s2.882-16.542,3.051-22.042s0.441-25.646,0.441-25.646s0.762-7.75,4.663-15.91h2.659c3.902,8.16,4.664,15.91,4.664,15.91s0.271,20.146,0.441,25.646s3.051,22.042,3.051,22.042s2.858,2.313,7.685,1.938c6.859,0.125,8.86-1.817,8.86-1.817s3.079-12.919,4.789-28.828c1.908-17.744,2.475-38.802,2.626-41.453C283.904,358.635,281.341,347.967,281.341,347.967z"></path><g><g><path style="fill:#505050;" d="M256.449,369.182L250,367.934l-6.449,1.248c0,0-3.846-1.357-9.953-4.523c0,0,8.821,8.143,10.18,8.821c1.356,0.679,1.762,5.146,1.762,5.146l2.715-5.874h3.489l2.516,5.874c0,0,0.605-4.467,1.963-5.146s10.18-8.821,10.18-8.821C260.295,367.824,256.449,369.182,256.449,369.182z"></path><path style="fill:none;stroke:#000000;stroke-linecap:round;stroke-linejoin:round;" d="M252.045,373.333c0,0,0.529-2.022,0.982-2.781c0.451-0.758,1.055-15.572,1.055-15.572"></path><path style="fill:none;stroke:#000000;stroke-linecap:round;stroke-linejoin:round;" d="M247.74,373.333c0,0-0.528-2.022-0.981-2.781c-0.452-0.758-1.056-15.572-1.056-15.572"></path><g><path style="fill:#505050;stroke:#000000;stroke-linecap:round;stroke-linejoin:round;" d="M275.023,352.716c0,0,0.68,4.751,2.035,6.561c1.357,1.81,6.063,4.786,6.063,4.786s0.875-6.25-1.438-13.25C278.404,351.604,275.023,352.716,275.023,352.716z"></path><path style="fill:#505050;stroke:#000000;stroke-linecap:round;stroke-linejoin:round;" d="M224.762,352.716c0,0-0.679,4.751-2.036,6.561c-1.357,1.81-6.062,4.786-6.062,4.786s-0.875-6.25,1.438-13.25C221.381,351.604,224.762,352.716,224.762,352.716z"></path></g></g><g><path style="fill:#1E1E1E;stroke:#000000;stroke-linecap:round;stroke-linejoin:round;" d="M280.765,344.599c0,0-0.688-1.213-1.472-0.958c-2.345,0.762-9.506,2.282-29.293,2.29c-19.787-0.008-26.948-1.528-29.293-2.29c-0.783-0.255-1.472,0.958-1.472,0.958l-1.805,5.63c0,0,5.953,3.932,32.569,3.935c26.616-0.003,32.569-3.935,32.569-3.935L280.765,344.599z"></path></g></g></g><g><g><g><g><path style="fill:#1E1E1E;stroke:#000000;stroke-linecap:round;stroke-linejoin:round;" d="M215.285,376.6c-0.548,0.525-0.125,5.65,0.364,6.301s6.978-0.275,6.978-0.275c0.644-0.625,1.655-3.25,1.563-3.875c-0.735-1.375-1.654-2.75-2.114-2.875S215.833,376.074,215.285,376.6z"></path><path style="fill:#DCDCDC;stroke:#000000;stroke-linecap:round;stroke-linejoin:round;" d="M217.449,376.238c0,0,0.813-0.188,1-0.063s0.875,6.438,0.5,6.75s-1.063,0.25-1.063,0.25s-0.188,1.375,0.438,1.5s2.438,0.125,2.563-0.375s-0.375-9.588-0.938-9.9s-2.313-0.125-2.5,0.313S217.449,376.238,217.449,376.238z"></path><ellipse style="fill:#DCDCDC;stroke:#000000;stroke-linecap:round;stroke-linejoin:round;" cx="216.943" cy="379.725" rx="0.906" ry="1.063"></ellipse></g><g><path style="fill:#1E1E1E;stroke:#000000;stroke-linecap:round;stroke-linejoin:round;" d="M216.16,388.475c-0.548,0.525-0.125,5.65,0.364,6.301s6.978-0.275,6.978-0.275c0.644-0.625,1.655-3.25,1.563-3.875c-0.735-1.375-1.654-2.75-2.114-2.875S216.708,387.949,216.16,388.475z"></path><path style="fill:#DCDCDC;stroke:#000000;stroke-linecap:round;stroke-linejoin:round;" d="M218.324,388.113c0,0,0.813-0.188,1-0.063s0.875,6.438,0.5,6.75s-1.063,0.25-1.063,0.25s-0.188,1.375,0.438,1.5s2.438,0.125,2.563-0.375s-0.375-9.588-0.938-9.9s-2.313-0.125-2.5,0.313S218.324,388.113,218.324,388.113z"></path><ellipse style="fill:#DCDCDC;stroke:#000000;stroke-linecap:round;stroke-linejoin:round;" cx="217.818" cy="391.6" rx="0.906" ry="1.063"></ellipse></g></g><g><path style="fill:#1E1E1E;stroke:#000000;stroke-linecap:round;stroke-linejoin:round;" d="M218.265,400.412c0,0-1.108,0.532-1.207,0.862s-0.158,5.332,0.481,5.944c0.64,0.613,20.899,0.865,25.807-0.665c1.388-1.188,2.126-2.739,2.126-2.739s-1.612-3.076-2.097-3.433c-9.736,1.311-24.812,0.794-24.812,0.794L218.265,400.412z"></path><ellipse transform="matrix(0.999 0.0453 -0.0453 0.999 18.5493 -10.3888)" style="fill:#DCDCDC;stroke:#000000;stroke-linecap:round;stroke-linejoin:round;" cx="238.688" cy="404.425" rx="0.906" ry="1.062"></ellipse><ellipse transform="matrix(0.999 0.0452 -0.0452 0.999 18.5358 -10.086)" style="fill:#DCDCDC;stroke:#000000;stroke-linecap:round;stroke-linejoin:round;" cx="232.055" cy="404.389" rx="0.906" ry="1.064"></ellipse><ellipse transform="matrix(0.999 0.0453 -0.0453 0.999 18.5437 -9.8556)" style="fill:#DCDCDC;stroke:#000000;stroke-linecap:round;stroke-linejoin:round;" cx="226.911" cy="404.568" rx="0.906" ry="1.062"></ellipse><ellipse transform="matrix(0.999 0.0452 -0.0452 0.999 18.522 -9.6085)" style="fill:#DCDCDC;stroke:#000000;stroke-linecap:round;stroke-linejoin:round;" cx="221.5" cy="404.322" rx="0.906" ry="1.063"></ellipse><path style="fill:#DCDCDC;stroke:#000000;stroke-linecap:round;stroke-linejoin:round;" d="M239.629,400.213c-0.401-0.353-4.083-0.102-4.518,0.295c-0.435,0.397-0.593,7.564,0.054,8.011c0.647,0.447,4.336,0.03,4.771-0.367C240.371,407.755,240.03,400.565,239.629,400.213z M238.548,406.22c-0.191,0.194-1.815,0.406-2.098,0.189c-0.284-0.217-0.198-3.723-0.006-3.918c0.192-0.195,1.812-0.326,1.987-0.154S238.74,406.024,238.548,406.22z"></path></g><g><path style="fill:#1E1E1E;stroke:#000000;stroke-linecap:round;stroke-linejoin:round;" d="M219.59,412.51c0,0-1.097,0.555-1.189,0.887c-0.091,0.332-0.048,5.335,0.604,5.934c0.652,0.6,14.431,0.939,19.306-0.691c1.364-1.217,2.069-2.784,2.069-2.784s-1.676-3.042-2.167-3.387c-9.707,1.511-18.309,0.8-18.309,0.8L219.59,412.51z"></path><ellipse transform="matrix(0.9997 0.0248 -0.0248 0.9997 10.3967 -5.6617)" style="fill:#DCDCDC;stroke:#000000;stroke-linecap:round;stroke-linejoin:round;" cx="233.611" cy="416.605" rx="0.906" ry="1.063"></ellipse><ellipse transform="matrix(0.9997 0.0242 -0.0242 0.9997 10.1698 -5.3806)" style="fill:#DCDCDC;stroke:#000000;stroke-linecap:round;stroke-linejoin:round;" cx="226.979" cy="416.708" rx="0.906" ry="1.062"></ellipse><ellipse transform="matrix(0.9997 0.0248 -0.0248 0.9997 10.4055 -5.3713)" style="fill:#DCDCDC;stroke:#000000;stroke-linecap:round;stroke-linejoin:round;" cx="221.839" cy="416.992" rx="0.906" ry="1.063"></ellipse><path style="fill:#DCDCDC;stroke:#000000;stroke-linecap:round;stroke-linejoin:round;" d="M234.465,412.375c-0.408-0.344-4.084-0.018-4.511,0.389c-0.426,0.407-0.437,7.575,0.22,8.008c0.656,0.434,4.336-0.06,4.763-0.466C235.363,419.9,234.873,412.72,234.465,412.375z M233.508,418.403c-0.188,0.198-1.806,0.444-2.094,0.233s-0.275-3.718-0.086-3.917c0.188-0.2,1.805-0.364,1.983-0.195C233.489,414.691,233.696,418.204,233.508,418.403z"></path></g><g><path style="fill:#1E1E1E;stroke:#000000;stroke-linecap:round;stroke-linejoin:round;" d="M221.069,424.165c0,0-1.094,0.562-1.184,0.894s-0.02,5.334,0.636,5.93s12.436,0.824,17.302-0.833c1.357-1.224,2.055-2.794,2.055-2.794s-1.692-3.034-2.185-3.377c-9.699,1.563-16.305,0.938-16.305,0.938L221.069,424.165z"></path><ellipse transform="matrix(0.9998 0.0194 -0.0194 0.9998 8.3491 -4.4414)" style="fill:#DCDCDC;stroke:#000000;stroke-linecap:round;stroke-linejoin:round;" cx="233.112" cy="428.147" rx="0.906" ry="1.063"></ellipse><ellipse transform="matrix(0.9998 0.0194 -0.0194 0.9998 8.3528 -4.3138)" style="fill:#DCDCDC;stroke:#000000;stroke-linecap:round;stroke-linejoin:round;" cx="226.48" cy="428.285" rx="0.906" ry="1.062"></ellipse><ellipse transform="matrix(0.9998 0.0194 -0.0194 0.9998 8.3448 -4.2119)" style="fill:#DCDCDC;stroke:#000000;stroke-linecap:round;stroke-linejoin:round;" cx="221.279" cy="428.037" rx="0.906" ry="1.062"></ellipse><path style="fill:#DCDCDC;stroke:#000000;stroke-linecap:round;stroke-linejoin:round;" d="M233.942,423.913c-0.409-0.342-4.084,0.004-4.508,0.412c-0.424,0.41-0.396,7.577,0.262,8.007c0.658,0.43,4.335-0.084,4.76-0.491C234.881,431.433,234.353,424.255,233.942,423.913z M233.018,429.945c-0.187,0.2-1.804,0.455-2.093,0.245c-0.289-0.209-0.294-3.717-0.107-3.917c0.187-0.2,1.802-0.373,1.982-0.206C232.98,426.233,233.205,429.745,233.018,429.945z"></path></g></g><g><g><g><path style="fill:#1E1E1E;stroke:#000000;stroke-linecap:round;stroke-linejoin:round;" d="M284.715,376.6c0.549,0.525,0.125,5.65-0.363,6.301c-0.489,0.65-6.979-0.275-6.979-0.275c-0.644-0.625-1.654-3.25-1.563-3.875c0.735-1.375,1.654-2.75,2.113-2.875C278.384,375.75,284.167,376.074,284.715,376.6z"></path><path style="fill:#DCDCDC;stroke:#000000;stroke-linecap:round;stroke-linejoin:round;" d="M282.551,376.238c0,0-0.813-0.188-1-0.063s-0.875,6.438-0.5,6.75s1.063,0.25,1.063,0.25s0.188,1.375-0.438,1.5s-2.438,0.125-2.563-0.375s0.375-9.588,0.938-9.9s2.313-0.125,2.5,0.313S282.551,376.238,282.551,376.238z"></path><ellipse style="fill:#DCDCDC;stroke:#000000;stroke-linecap:round;stroke-linejoin:round;" cx="283.057" cy="379.725" rx="0.906" ry="1.063"></ellipse></g><g><path style="fill:#1E1E1E;stroke:#000000;stroke-linecap:round;stroke-linejoin:round;" d="M283.84,388.475c0.549,0.525,0.125,5.65-0.363,6.301c-0.489,0.65-6.979-0.275-6.979-0.275c-0.644-0.625-1.654-3.25-1.563-3.875c0.735-1.375,1.654-2.75,2.113-2.875C277.509,387.625,283.292,387.949,283.84,388.475z"></path><path style="fill:#DCDCDC;stroke:#000000;stroke-linecap:round;stroke-linejoin:round;" d="M281.676,388.113c0,0-0.813-0.188-1-0.063s-0.875,6.438-0.5,6.75s1.063,0.25,1.063,0.25s0.188,1.375-0.438,1.5s-2.438,0.125-2.563-0.375s0.375-9.588,0.938-9.9s2.313-0.125,2.5,0.313S281.676,388.113,281.676,388.113z"></path><ellipse style="fill:#DCDCDC;stroke:#000000;stroke-linecap:round;stroke-linejoin:round;" cx="282.182" cy="391.6" rx="0.906" ry="1.063"></ellipse></g></g><g><path style="fill:#1E1E1E;stroke:#000000;stroke-linecap:round;stroke-linejoin:round;" d="M281.735,400.412c0,0,1.108,0.532,1.206,0.862c0.1,0.33,0.158,5.332-0.48,5.944c-0.64,0.613-20.898,0.865-25.807-0.665c-1.389-1.188-2.127-2.739-2.127-2.739s1.613-3.076,2.098-3.433c9.735,1.311,24.811,0.794,24.811,0.794L281.735,400.412z"></path><ellipse transform="matrix(-0.999 0.0453 -0.0453 -0.999 540.66 796.6079)" style="fill:#DCDCDC;stroke:#000000;stroke-linecap:round;stroke-linejoin:round;" cx="261.312" cy="404.425" rx="0.906" ry="1.062"></ellipse><ellipse transform="matrix(-0.999 0.0453 -0.0453 -0.999 553.9171 796.2355)" style="fill:#DCDCDC;stroke:#000000;stroke-linecap:round;stroke-linejoin:round;" cx="267.944" cy="404.389" rx="0.906" ry="1.064"></ellipse><ellipse transform="matrix(-0.999 0.0453 -0.0453 -0.999 564.2091 796.3618)" style="fill:#DCDCDC;stroke:#000000;stroke-linecap:round;stroke-linejoin:round;" cx="273.089" cy="404.568" rx="0.906" ry="1.062"></ellipse><ellipse transform="matrix(-0.999 0.0452 -0.0452 -0.999 575.004 795.6323)" style="fill:#DCDCDC;stroke:#000000;stroke-linecap:round;stroke-linejoin:round;" cx="278.5" cy="404.322" rx="0.907" ry="1.063"></ellipse><path style="fill:#DCDCDC;stroke:#000000;stroke-linecap:round;stroke-linejoin:round;" d="M260.063,408.151c0.435,0.397,4.124,0.814,4.771,0.367c0.647-0.446,0.489-7.613,0.054-8.011c-0.436-0.396-4.117-0.647-4.518-0.295C259.97,400.565,259.629,407.755,260.063,408.151z M261.569,402.337c0.175-0.172,1.795-0.041,1.987,0.154c0.191,0.195,0.277,3.701-0.006,3.918s-1.907,0.005-2.099-0.189C261.26,406.024,261.395,402.509,261.569,402.337z"></path></g><g><path style="fill:#1E1E1E;stroke:#000000;stroke-linecap:round;stroke-linejoin:round;" d="M280.41,412.51c0,0,1.097,0.555,1.188,0.887c0.091,0.332,0.048,5.335-0.604,5.934c-0.651,0.6-14.431,0.939-19.306-0.691c-1.364-1.217-2.069-2.784-2.069-2.784s1.676-3.042,2.167-3.387c9.707,1.511,18.309,0.8,18.309,0.8L280.41,412.51z"></path><ellipse transform="matrix(-0.9997 0.0248 -0.0248 -0.9997 543.0242 826.479)" style="fill:#DCDCDC;stroke:#000000;stroke-linecap:round;stroke-linejoin:round;" cx="266.389" cy="416.605" rx="0.906" ry="1.063"></ellipse><ellipse transform="matrix(-0.9997 0.0242 -0.0242 -0.9997 556.0631 826.675)" style="fill:#DCDCDC;stroke:#000000;stroke-linecap:round;stroke-linejoin:round;" cx="273.021" cy="416.708" rx="0.907" ry="1.062"></ellipse><ellipse transform="matrix(-0.9997 0.0248 -0.0248 -0.9997 566.5731 826.9606)" style="fill:#DCDCDC;stroke:#000000;stroke-linecap:round;stroke-linejoin:round;" cx="278.161" cy="416.992" rx="0.906" ry="1.063"></ellipse><path style="fill:#DCDCDC;stroke:#000000;stroke-linecap:round;stroke-linejoin:round;" d="M265.064,420.306c0.426,0.406,4.106,0.899,4.762,0.466c0.656-0.433,0.646-7.601,0.221-8.008c-0.428-0.406-4.104-0.732-4.512-0.389C265.127,412.72,264.637,419.9,265.064,420.306z M266.689,414.524c0.179-0.169,1.795-0.005,1.983,0.195c0.188,0.199,0.202,3.706-0.087,3.917c-0.287,0.211-1.906-0.035-2.094-0.233C266.305,418.204,266.511,414.691,266.689,414.524z"></path></g><g><path style="fill:#1E1E1E;stroke:#000000;stroke-linecap:round;stroke-linejoin:round;" d="M278.932,424.165c0,0,1.094,0.562,1.184,0.894s0.02,5.334-0.636,5.93s-12.437,0.824-17.302-0.833c-1.357-1.224-2.055-2.794-2.055-2.794s1.691-3.034,2.185-3.377c9.698,1.563,16.305,0.938,16.305,0.938L278.932,424.165z"></path><ellipse transform="matrix(-0.9998 0.0194 -0.0194 -0.9998 542.0302 851.0387)" style="fill:#DCDCDC;stroke:#000000;stroke-linecap:round;stroke-linejoin:round;" cx="266.889" cy="428.147" rx="0.906" ry="1.063"></ellipse><ellipse transform="matrix(-0.9998 0.0194 -0.0194 -0.9998 555.2987 851.1825)" style="fill:#DCDCDC;stroke:#000000;stroke-linecap:round;stroke-linejoin:round;" cx="273.52" cy="428.285" rx="0.906" ry="1.062"></ellipse><ellipse transform="matrix(-0.9998 0.0194 -0.0194 -0.9998 565.6953 850.5855)" style="fill:#DCDCDC;stroke:#000000;stroke-linecap:round;stroke-linejoin:round;" cx="278.721" cy="428.037" rx="0.906" ry="1.062"></ellipse><path style="fill:#DCDCDC;stroke:#000000;stroke-linecap:round;stroke-linejoin:round;" d="M265.544,431.841c0.425,0.407,4.103,0.921,4.76,0.491c0.659-0.43,0.687-7.597,0.263-8.007c-0.425-0.408-4.1-0.754-4.509-0.412C265.647,424.255,265.119,431.433,265.544,431.841z M267.2,426.067c0.18-0.167,1.795,0.006,1.981,0.206c0.188,0.2,0.182,3.708-0.106,3.917c-0.29,0.21-1.907-0.045-2.093-0.245C266.795,429.745,267.02,426.233,267.2,426.067z"></path></g></g></g></g><g><g><g><path style="fill:#6E6E6E;stroke:#000000;stroke-linecap:round;stroke-linejoin:round;" d="M219.167,342.602c0,0-7.167,31.231-7.667,47.333c4.333,5.167,31.834,7.5,46.167,5.667c-3-15.667-5.5-51-5.5-51S224.834,345.102,219.167,342.602z"></path><path style="fill:#505050;" d="M236.375,345.25c0,0,3.875,41.125,7.25,50.25c2.125,0.5,6.625,0.125,6.625,0.125L236.375,345.25z"></path></g><path style="fill:#6E6E6E;stroke:#000000;stroke-linecap:round;stroke-linejoin:round;" d="M236.667,344.5c0,0.5,8.667,46.5,15,58.333C262.5,403,289.167,394,291.334,391c-1.5-12.167-8.334-43.833-11-49.833C270.5,346.167,236.667,344.5,236.667,344.5z"></path></g><g><g><path style="fill:#1E1E1E;stroke:#000000;stroke-linecap:round;stroke-linejoin:round;" d="M216.167,351.667c0,0-1.833,0.833-1.833,1.333s-1.167,5.167-0.667,6c1.167,1.167,25.979-0.833,35.646-14.5c-1.875-0.313-7.479-0.333-7.479-0.333s-8.708,6.458-25.708,8.708C216.063,352.5,216.167,351.667,216.167,351.667z"></path><g><circle style="fill:#DCDCDC;stroke:#000000;stroke-linecap:round;stroke-linejoin:round;" cx="231.782" cy="353.031" r="1.344"></circle><circle style="fill:#DCDCDC;stroke:#000000;stroke-linecap:round;stroke-linejoin:round;" cx="240.032" cy="349.281" r="1.344"></circle></g></g><g><path style="fill:#1E1E1E;stroke:#000000;stroke-linecap:round;stroke-linejoin:round;" d="M221.563,358.875c0,0-5,10.563-5.563,18.938c-2.313-0.563-5.188-2.563-5.375-3.5c0.375-4.063,4.25-18.813,9.375-22.438C220.563,353.188,221.563,358.875,221.563,358.875z"></path><circle style="fill:#DCDCDC;stroke:#000000;stroke-linecap:round;stroke-linejoin:round;" cx="216.948" cy="361.531" r="1.344"></circle><circle style="fill:#DCDCDC;stroke:#000000;stroke-linecap:round;stroke-linejoin:round;" cx="214.833" cy="369.084" r="1.344"></circle></g><path style="fill:#DCDCDC;stroke:#000000;stroke-linecap:round;stroke-linejoin:round;" d="M227.563,356.875c-0.063-0.5-1-6.25-1.813-6.563s-5.613,0.813-6.05,1.563s0.925,6.875,1.738,7.438s6-0.938,6.063-1.688S227.625,357.375,227.563,356.875z M225.721,356.357c-0.034,0.407-2.854,1.223-3.295,0.917c-0.441-0.306-1.182-3.635-0.944-4.043c0.238-0.407,2.847-1.019,3.289-0.849c0.441,0.17,0.951,3.295,0.985,3.566C225.789,356.222,225.755,355.949,225.721,356.357z"></path></g></g></g></g></svg>