<svg xmlns="http://www.w3.org/2000/svg" width="500" height="500" version="1.1"><g id="x101"><g><g><path style="fill:#FFFFFF;stroke:#000000;stroke-linecap:round;stroke-linejoin:round;" d="M222,428c0,0,0.5,5.334,1.333,6.667c1.333,1.833,14.5,2.166,17,0.666c1.167-4.5,1.167-9,1.167-9L222,428z"></path><path style="fill:#E4E0F3;" d="M222.6,426.924l0.5,2.875c0,0,3.25,1.375,9,1.375s8.375-1,8.375-1l0.375-2.5L222.6,426.924z"></path><path style="fill:#FFFFFF;stroke:#000000;stroke-linecap:round;stroke-linejoin:round;" d="M278,428c0,0-0.5,5.334-1.334,6.667c-1.333,1.833-14.5,2.166-17,0.666c-1.166-4.5-1.166-9-1.166-9L278,428z"></path><path style="fill:#E4E0F3;" d="M277.4,426.924l-0.5,2.875c0,0-3.25,1.375-9,1.375s-8.375-1-8.375-1l-0.375-2.5L277.4,426.924z"></path></g><g><path style="fill:#6E6E6E;stroke:#000000;stroke-linecap:round;stroke-linejoin:round;" d="M280.5,395.833c0-2.334,3.5-25.833,3.5-31.166s-1.334-14-1.334-14L250,352l-32.667-1.333c0,0-1.333,8.667-1.333,14s3.5,28.832,3.5,31.166c0,6.334,0.333,16.667,0.333,16.667l-3.167,9.167c0.667,2.333,5.667,7.166,8,7.333c5,0.667,17,0,17,0s3.833-3.333,6-7c-0.667-4.667-2.588-16.672-2.333-20.333c0.167-2,0.667-5.5,0.667-5.5s-0.333-3.5-0.746-6.726c1.111-7.156,3.413-14.774,3.413-14.774l1.333-0.334l1.333,0.334c0,0,2.302,7.618,3.413,14.774c-0.413,3.226-0.746,6.726-0.746,6.726s0.5,3.5,0.666,5.5c0.256,3.661-1.666,15.666-2.333,20.333c2.167,3.667,6,7,6,7s12,0.667,17,0c2.333-0.167,7.333-5,8-7.333l-3.167-9.167C280.166,412.5,280.5,402.167,280.5,395.833z"></path><g><path style="fill:#505050;" d="M247.968,374.667c0,0-2.167-0.666-3,0s0,13.666,0,13.666C245.802,384.333,247.968,374.667,247.968,374.667z"></path><path style="fill:#505050;" d="M252.033,374.667c0,0,2.168-0.666,3,0c0.834,0.666,0,13.666,0,13.666C254.2,384.333,252.033,374.667,252.033,374.667z"></path></g><path style="fill:#505050;" d="M220,412.833c0,0,0.667,6.334,0.5,6.834s-2.667,0.166-2.667,0.166L220,412.833z"></path><path style="fill:none;stroke:#000000;stroke-linecap:round;stroke-linejoin:round;" d="M219.833,411.667c0,0,0,5.167,0.167,6"></path><path style="fill:#505050;" d="M280,412.833c0,0-0.666,6.334-0.5,6.834s2.666,0.166,2.666,0.166L280,412.833z"></path><path style="fill:none;stroke:#000000;stroke-linecap:round;stroke-linejoin:round;" d="M280.166,411.667c0,0,0.001,5.167-0.166,6"></path></g><g><path style="fill:#FFFFFF;stroke:#000000;stroke-linecap:round;stroke-linejoin:round;" d="M282,347.167c0,0-15,1-32,1s-32-1-32-1s-1,4.166-1,5.833c3.333,0.333,8.5,1.333,33,1.333s29.667-1,33-1.333C283,351.333,282,347.167,282,347.167z"></path><g><path style="fill:#FFFFFF;stroke:#000000;stroke-linecap:round;stroke-linejoin:round;" d="M218,353.833c0,0-3.31,14.983-3.667,28.5c-0.268,10.127,2.215,19.43,3,21c-2.667-0.5-6.167,4.167-6.667,5.5c-1-7-3.167-25.833-1.5-32.5S218,353.833,218,353.833z"></path><path style="fill:#E4E0F3;" d="M216.125,361c0,0-2,13.875-2.375,21.125c-1.25,0.375-4.55,6.625-4.55,6.625c0.125-4.125-0.117-10.709-0.034-12.417s3.958-12.958,3.958-12.958L216.125,361z"></path><path style="fill:#FFFFFF;stroke:#000000;stroke-linecap:round;stroke-linejoin:round;" d="M216.047,354.477c0,0-5.094,22.023-6.831,24.27c-1.736,2.245-6.265,15.512-7.479,18.234c-1.941-2.418-1.407-5.444-1.763-5.929c-0.355-0.484-1.897-1.417-1.949-2.583c0.071-2.172,8.483-15.721,10.364-18.474c2.682-7.292,4.024-14.691,4.024-14.691L216.047,354.477z"></path><path style="fill:#E4E0F3;" d="M212.75,365.875c0,0-2.625,10.5-3.5,11.625c-0.875,0.125-4.375-0.75-4.75-0.25c1.5-2.625,4.375-7.25,4.375-7.25l0.75-2.875L212.75,365.875z"></path><path style="fill:#E4E0F3;stroke:#000000;stroke-linecap:round;stroke-linejoin:round;" d="M220.894,348.924c0,0-12.761,4.817-13.646,5.933c-0.854,4.277,0.118,6.691,1.081,8.053c3.612-2.513,12.325-11.611,12.325-11.611L220.894,348.924z"></path><g><path style="fill:#FFFFFF;stroke:#000000;stroke-linecap:round;stroke-linejoin:round;" d="M218.766,352.266c0,0-16.085,9.697-17.175,11.447c2.467,4.298,8.269,4.768,9.267,4.389c2.599-3.715,9.72-13.852,9.72-13.852L218.766,352.266z"></path><path style="fill:#E4E0F3;" d="M204.5,363.5c0.125-0.375,2.375-2.375,3.625-3.25s9.5-6.875,9.5-6.875s-8.625,10.5-9.125,10.5S204.5,363.5,204.5,363.5z"></path><path style="fill:none;stroke:#000000;stroke-linecap:round;stroke-linejoin:round;" d="M204.169,363.318c0,0,3.327,0.548,4.375,0.01c3.76-3.516,9.756-10.163,9.756-10.163"></path></g><g><path style="fill:#FFFFFF;stroke:#000000;stroke-linecap:round;stroke-linejoin:round;" d="M217.333,347.064c0,0-2.833,2.334-3,3.167c0.5,4,3,5.001,3.333,4.667S217.333,347.064,217.333,347.064z"></path><path style="fill:#FFFFFF;stroke:#000000;stroke-linecap:round;stroke-linejoin:round;" d="M217.167,347.166c0,0-1.167,7.5-0.5,7.667c1.167,0.667,5.333-1.667,5.333-1.667l-1.167-5.666C220.833,347.5,218,346.666,217.167,347.166z"></path><path style="fill:#E4E0F3;" d="M217,354.5l0.625-3.75l2.875-0.625c0,0.375,0.625,2.625,0.625,2.625S217.875,354.375,217,354.5z"></path></g></g></g></g></g></svg>