<svg xmlns="http://www.w3.org/2000/svg" width="500" height="500" version="1.1"><g id="x102"><path style="fill:#6E6E6E;stroke:#000000;stroke-linecap:round;stroke-linejoin:round;" d="M250,368.5c-9.333,0-31-20.333-31-20.333l28.875,24.208c0,0,0.791,0.625,2.125,0.625c1.333,0,2.125-0.625,2.125-0.625L281,348.167C281,348.167,259.334,368.5,250,368.5z"></path><g><path style="fill:#6E6E6E;stroke:#000000;stroke-linecap:round;stroke-linejoin:round;" d="M282.11,348.25h-64.22c-3.567,14.1,0.037,28.728,0.037,30.898c0,0.748,1.927,32.547,2.631,34.107c0.682,6.282,2.905,25.318,3.285,25.462c0.002,0.01,0.005,0.022,0.007,0.032h16.516c0,0,1.329-5.685,1.013-6.737c0.739-4.646,1.09-15.144,1.157-16.037c0.972-1.677,0.319-28.144,0.447-29.928c0.362-5.084,5.083-13.288,5.083-13.288h3.871c0,0,4.721,8.204,5.083,13.288c0.128,1.783-0.525,28.251,0.447,29.928c0.065,0.894,0.417,11.392,1.156,16.038c-0.316,1.053,1.014,6.736,1.014,6.736h16.516c0.002-0.011,0.005-0.022,0.007-0.033c0.382-0.144,2.604-19.18,3.285-25.464c0.704-1.561,2.631-33.356,2.631-34.104C282.074,376.978,285.678,362.35,282.11,348.25z"></path><g><path style="fill:none;stroke:#000000;stroke-linecap:round;stroke-linejoin:round;" d="M231.625,375.25c0,0,0,30.25,0.25,32.5s1,29.25,1,29.25"></path><path style="fill:none;stroke:#000000;stroke-linecap:round;stroke-linejoin:round;" d="M268.375,375.25c0,0,0,30.25-0.25,32.5s-1,29.25-1,29.25"></path></g><path style="fill:#505050;" d="M262.834,366.834c-2,0.333-12.834,1.5-12.834,1.5s-10.834-1.167-12.834-1.5c3.167,3.833,6.667,5.667,6.667,5.667l-1.5,12c0,0,1.833-5.334,2.833-7.167s2.834-5.167,2.834-5.167l2,0.167l2-0.167c0,0,1.834,3.334,2.834,5.167s2.834,7.167,2.834,7.167l-1.5-12C256.168,372.501,259.668,370.667,262.834,366.834z"></path><line style="fill:none;stroke:#000000;stroke-linecap:round;stroke-linejoin:round;" x1="217.417" y1="353.667" x2="282.583" y2="353.667"></line><g><polyline style="fill:none;stroke:#000000;stroke-linecap:round;stroke-linejoin:round;" points="246.718,354.334 246.884,369.001 248.282,372.76 "></polyline><polyline style="fill:none;stroke:#000000;stroke-linecap:round;stroke-linejoin:round;" points="253.282,354.334 253.116,369.001 251.718,372.76 "></polyline></g></g></g></svg>