<svg xmlns="http://www.w3.org/2000/svg" width="500" height="500" version="1.1"><g id="x9091"><g><g><g><path style="fill:#120519;stroke:#000000;stroke-linecap:round;stroke-linejoin:round;" d="M217.508,379.501c0,0-13.416,10.582-14.25,22.916c3.167,0.5,3.834,0.5,3.834,0.5s6.083-11.25,11.416-17.083C218.175,382.501,217.508,379.501,217.508,379.501z"></path><path style="fill:#302337;stroke:#000000;stroke-linecap:round;stroke-linejoin:round;" d="M203.258,402.417c0,0,0.667,3.666,2.667,4.5c1.833,0.834,15.25-5.666,15.75-7.833c-1.333-2.333-2.666-3.833-2.666-3.833S208.425,402.083,203.258,402.417z"></path><path style="fill:none;stroke:#000000;stroke-linecap:round;stroke-linejoin:round;" d="M206.342,402.25c0,0,0.5,2.417,1.541,4.167"></path></g><g><path style="fill:#D4D3D3;stroke:#000000;stroke-linecap:round;stroke-linejoin:round;" d="M213.425,398.625c-0.625-0.042-5.125,1.708-5.792,2.625c-0.073,0.102,1.125,4.292,2.125,5c2.084,0,5.334-1.959,5.917-2.417C215.383,402.333,214.05,398.667,213.425,398.625z M210.467,404.583c-0.334-0.125-1-2.541-1-2.541l0.083-0.084c0.167-0.209,2.917-1.375,3.333-1.208c0.417,0.167,1,2.208,0.75,2.542S210.8,404.708,210.467,404.583z"></path><path style="fill:#D4D3D3;stroke:#000000;stroke-linecap:round;stroke-linejoin:round;" d="M209.05,403.042c0,0,0.125,0.832,0.458,1.041c0.334,0.209,2.209-0.624,2.167-0.916s-0.25-0.959-0.542-0.959C210.842,402.208,209.134,402.751,209.05,403.042z"></path></g></g><g><g><path style="fill:#120519;stroke:#000000;stroke-linecap:round;stroke-linejoin:round;" d="M282.492,379.501c0,0,13.416,10.582,14.25,22.916c-3.167,0.5-3.834,0.5-3.834,0.5s-6.083-11.25-11.416-17.083C281.824,382.501,282.492,379.501,282.492,379.501z"></path><path style="fill:#302337;stroke:#000000;stroke-linecap:round;stroke-linejoin:round;" d="M296.742,402.417c0,0-0.667,3.666-2.667,4.5c-1.833,0.834-15.251-5.666-15.751-7.833c1.334-2.333,2.667-3.833,2.667-3.833S291.575,402.083,296.742,402.417z"></path><path style="fill:none;stroke:#000000;stroke-linecap:round;stroke-linejoin:round;" d="M293.658,402.25c0,0-0.5,2.417-1.541,4.167"></path></g><g><path style="fill:#D4D3D3;stroke:#000000;stroke-linecap:round;stroke-linejoin:round;" d="M284.324,403.833c0.584,0.458,3.834,2.417,5.918,2.417c1-0.708,2.198-4.898,2.125-5c-0.667-0.917-5.168-2.667-5.793-2.625S284.617,402.333,284.324,403.833z M286.367,403.292c-0.25-0.334,0.333-2.375,0.75-2.542c0.416-0.167,3.166,0.999,3.332,1.208l0.084,0.084c0,0-0.666,2.416-1,2.541S286.617,403.626,286.367,403.292z"></path><path style="fill:#D4D3D3;stroke:#000000;stroke-linecap:round;stroke-linejoin:round;" d="M290.949,403.042c0,0-0.124,0.832-0.457,1.041c-0.334,0.209-2.209-0.624-2.168-0.916c0.043-0.292,0.251-0.959,0.543-0.959C289.158,402.208,290.866,402.751,290.949,403.042z"></path></g></g></g><g><path style="fill:#6E6E6E;stroke:#000000;stroke-linecap:round;stroke-linejoin:round;" d="M283.75,365.953c0,0-17.584,1.179-33.75,1.179c-16.167,0-33.75-1.179-33.75-1.179l-1.5,1l1.25,10c0,0,16.75,2.5,19,2.5s10.25-1.5,10.25-1.5l2.564-4.25h4.371l2.564,4.25c0,0,8,1.5,10.25,1.5s19-2.5,19-2.5l1.25-10L283.75,365.953z"></path><g><path style="fill:#505050;" d="M253.168,374.25l1.75,3.5c0,0,7.834,1.334,8.834,1.25c-1.167-0.917-1.167-3-1.167-3l4.667-1.668l-11-0.999L253.168,374.25z"></path></g><path style="fill:#505050;" d="M246.917,374.25l-1.75,3.5c0,0-7.834,1.334-8.834,1.25c1.167-0.917,1.167-3,1.167-3l-4.667-1.668l11-0.999L246.917,374.25z"></path><g><line style="fill:none;stroke:#000000;stroke-linecap:round;stroke-linejoin:round;" x1="247.917" y1="367.583" x2="247.917" y2="373.583"></line><line style="fill:none;stroke:#000000;stroke-linecap:round;stroke-linejoin:round;" x1="252.083" y1="367.583" x2="252.083" y2="373.583"></line></g><g><g><path style="fill:none;stroke:#000000;stroke-linecap:round;stroke-linejoin:round;" d="M247.583,373.834c0,0-4.667-0.416-5.167-0.666"></path><path style="fill:none;stroke:#000000;stroke-linecap:round;stroke-linejoin:round;" d="M246.749,373.918c0,0-8.999,2.25-9.333,2.083"></path></g><g><path style="fill:none;stroke:#000000;stroke-linecap:round;stroke-linejoin:round;" d="M252.418,373.834c0,0,4.666-0.416,5.166-0.666"></path><path style="fill:none;stroke:#000000;stroke-linecap:round;stroke-linejoin:round;" d="M253.252,373.918c0,0,8.998,2.25,9.332,2.083"></path></g></g><g><g><path style="fill:none;stroke:#000000;stroke-linecap:round;stroke-linejoin:round;" d="M221.118,366.5c0,0-1.333,3.5-5.75,4.5"></path><path style="fill:none;stroke:#000000;stroke-linecap:round;stroke-linejoin:round;" d="M215.618,372.75c0,0,5-0.249,8.166-6.333"></path></g><g><path style="fill:none;stroke:#000000;stroke-linecap:round;stroke-linejoin:round;" d="M278.882,366.5c0,0,1.334,3.5,5.75,4.5"></path><path style="fill:none;stroke:#000000;stroke-linecap:round;stroke-linejoin:round;" d="M284.382,372.75c0,0-5-0.249-8.166-6.333"></path></g></g><g><path style="fill:#302337;stroke:#000000;stroke-linecap:round;stroke-linejoin:round;" d="M269.333,379.334c-0.321-0.383,2.333-5,5-6.5c3.167,4.833,9.501,6.167,11.834,7c1.239,3.854-0.833,8.5-1.667,8.667S272.833,383.501,269.333,379.334z"></path><g><path style="fill:#D4D3D3;stroke:#000000;stroke-linecap:round;stroke-linejoin:round;" d="M268.5,379.334c0,0,0.833,1.5,2,2c1.833-1.667,5.667-7,5.667-7l-2-2.333C274.167,372.001,269,377.167,268.5,379.334z"></path><path style="fill:#FFFFFF;" d="M269.156,379.188c0,0,0.594,1.156,1.281,1.375c1.5-1.531,5.031-6.219,5.031-6.219L269.156,379.188z"></path></g></g></g></g></svg>