<svg xmlns="http://www.w3.org/2000/svg" width="500" height="500" version="1.1"><g id="x9093"><g><path style="fill:#6E6E6E;stroke:#000000;stroke-linecap:round;stroke-linejoin:round;" d="M300,437c-4.5-4.25-9.429-5.432-13.75-8.25c-0.5-5-3.25-18.75-3.5-28.5c5-22.25-0.5-47-0.5-47s-12.5,3.25-32.5,3.25s-32.5-3.25-32.5-3.25s-5.5,24.75-0.5,47c-0.25,9.75-3,19.25-3.5,24.25c-2.072,3.972-8.523,7.343-11.75,13c-1.445,2.533,0.529,2.171-0.167,6.501c3,1.5,2.583,0.75,5.333,1.5s6.083-1.75,8.833-1s10,4.999,12.75,5.499s25.5-0.75,30-3.25c4.5,2.5,10.25,3.75,13,3.25s7.25-2.25,10-3c6.5-3.25,16.75,0.5,19.75-1C301.25,442.25,301.03,438.976,300,437z"></path><path style="fill:#505050;" d="M216.833,410.667c0,0,1,4.5,5.333,1.667c-3.5,4.5-6.417,11.916-6.417,11.916l-1.917,0.917C213.833,425.167,215.5,412.833,216.833,410.667z"></path><path style="fill:#505050;" d="M267.667,396.167l0.167,9c0,0,2.166,8.668,2.333,11.334C271.667,408.501,270.834,403.833,267.667,396.167z"></path><path style="fill:#505050;" d="M234.333,421.501c0,0,4.167-3.167,5-3s1.667,5.666,1.667,5.666s-5.166,8.501-6.333,8.834s-3.167-2.833-2.667-6.5S234.333,421.501,234.333,421.501z"></path><path style="fill:#505050;" d="M262.167,443.834c0,0.5,1.5,4.667,1.5,4.667s6.167,2,8.667,1s7.666-2.667,7.666-2.667s-6.332-0.334-8.166-2.167s-3.334-7.666-3.334-7.666L262.167,443.834z"></path><path style="fill:#505050;" d="M225.833,448.334c0,0,0.833,1.334,3.833,1.167c6.5,0.333,12.5-0.834,12.5-0.834l-7.5-6.833C234.667,441.834,228,448.167,225.833,448.334z"></path><path style="fill:#6E6E6E;stroke:#000000;stroke-linecap:round;stroke-linejoin:round;" d="M230.5,445.5c0,0-4.083,3.667-6.333,3.667S215.5,445,215.5,445s-4.5,2.25-7.25,2.5s-6.75-1.25-8-1.75c-1-2.75-1-7.25-0.25-8.5s6-9.75,15.75-13c0,0,2.5-8.5,11-15.5"></path><path style="fill:#505050;" d="M209.667,446.667l5.833-2.166c1.167,0.666,4.5,2.499,6.5,3.666c0.667-3.333-3.167-9.333-3.167-9.333l-9.167,8.167"></path><path style="fill:#505050;" d="M237.667,386.667l0.167,10c0,0-1.833,6.333-2.333,9C233.833,401.001,234.667,390.167,237.667,386.667z"></path><g><path style="fill:#6E6E6E;stroke:#000000;stroke-linecap:round;stroke-linejoin:round;" d="M235.75,431.25c0,0-3,9-0.75,13.25s8.25,7,15.5,9c3.75,3,9.5,5.75,11.25,4.5s2.5-9.75,0.75-12.25c0.75-1.5,7.25-4.25,7.75-8s1-10.75,1-10.75"></path><path style="fill:#505050;" d="M251,453.001c0,0,3.833,2.834,5,3c0.667-1-0.5-6.167-1-6.167s-9.333,0-9.333,1C247.167,452.001,251,453.001,251,453.001z"></path><linearGradient id="bottomsXMLID_17_" gradientUnits="userSpaceOnUse" x1="260.125" y1="131" x2="260.125" y2="323"><stop offset="0" style="stop-color:#FFFFF5"></stop><stop offset="0.9831" style="stop-color:#FFE8C4"></stop></linearGradient><path style="fill:url(#bottomsXMLID_17_);stroke:#000000;stroke-linecap:round;stroke-linejoin:round;" d="M257.75,440.75c0,0,3.75,3.5,4.75,5"></path></g><path style="fill:none;stroke:#000000;stroke-linecap:round;stroke-linejoin:round;" d="M237.75,426.25c0,0,5.75-7.5,16-6.5"></path><path style="fill:none;stroke:#000000;stroke-linecap:round;stroke-linejoin:round;" d="M234.5,428.25c0,0-1.25-5.5,1.25-12.75"></path><path style="fill:none;stroke:#000000;stroke-linecap:round;stroke-linejoin:round;" d="M270.25,422c0-1,0-10-2.75-16.25c0.25-8-0.25-16.75-0.25-16.75"></path><path style="fill:none;stroke:#000000;stroke-linecap:round;stroke-linejoin:round;" d="M235.25,408c0,0,0.75-7.75,2.25-10.75c0.25-7-0.75-14.5-0.75-14.5"></path><path style="fill:none;stroke:#000000;stroke-linecap:round;stroke-linejoin:round;" d="M280.25,386.5c0,0,2,7.25,2,12.25"></path><path style="fill:none;stroke:#000000;stroke-linecap:round;stroke-linejoin:round;" d="M217.25,398.75c0,0,1.25-12.5,2.75-16.5"></path></g></g></svg>