<svg xmlns="http://www.w3.org/2000/svg" width="500" height="500" version="1.1"><g id="x9095"><g><path style="fill:#333744;stroke:#000000;stroke-linecap:round;stroke-linejoin:round;" d="M282.803,414.75c-0.793-2.972-2.209-8.442-2.765-10.59c0-0.078,0.004-0.161,0.004-0.238c-0.261-0.126,2.032-23.786,2.032-24.773c0-2.179,3.632-14.889,0-29.05c-0.156-0.607-0.309-1.185-0.461-1.766h-63.226c-0.153,0.581-0.306,1.158-0.461,1.766c-3.632,14.161,0,26.871,0,29.05c0,0.987,2.293,24.647,2.032,24.773c0,0.372,0.012,0.764,0.02,1.149c-0.653,2.523-1.833,7.067-2.529,9.679c1.5,0.75,3,2.75,3,2.75s-1.75,4-1.75,4.75c1,1,2.75,1.75,2.75,1.75s0.23,0.071,0.632,0.18c0.708,4.279,1.479,8.303,2.126,11.486h15.582c0.543-3.328,1.313-8.157,1.882-12.15c0.013-0.007,0.028-0.016,0.028-0.016s3.25-3,3-4s-2-3.75-2-3.75l2.75-2.75c0,0-0.741-4.686-2.709-10.871c0.013-1.965,0.096-14.053,0.241-16.081c0.362-5.084,5.083-13.288,5.083-13.288h3.871c0,0,4.721,8.204,5.083,13.288c0.158,2.209,0.243,16.359,0.243,16.359s-0.011,0.226-0.024,0.604c-1.763,5.743-2.435,9.989-2.435,9.989l2.637,2.637c0.006,0.087,0.014,0.175,0.02,0.262c-0.361,0.579-1.69,2.739-1.906,3.602c-0.207,0.827,1.976,3.017,2.738,3.752c0.572,4.043,1.364,9.012,1.919,12.414h15.583c0.644-3.166,1.41-7.164,2.114-11.417c0.573-0.148,0.896-0.249,0.896-0.249s1.75-0.75,2.75-1.75c0-0.75-1.75-4.75-1.75-4.75S281.303,415.5,282.803,414.75z"></path><path style="fill:#151926;" d="M255.338,412.875c0,0,2.188,2.063,2.438,2.625s-0.188,0.875-0.188,0.875l-1.25,2.375c0,0,5-2.375,5.5-3.25S255.338,412.875,255.338,412.875z"></path><path style="fill:#151926;" d="M244.913,412.875c0,0-2.188,2.063-2.438,2.625s0.188,0.875,0.188,0.875l1.25,2.375c0,0-5-2.375-5.5-3.25S244.913,412.875,244.913,412.875z"></path><path style="fill:#151926;" d="M242.341,402.5c0,0,1.188,3.625,1.063,3.938s-2.188,1.5-5.5,1.313C240.091,405.188,242.341,402.5,242.341,402.5z"></path><path style="fill:#151926;" d="M221.091,417.813c0,0.188,1.813,4.313,2.438,4s4.625-1.813,4.563-2.063S221.091,417.813,221.091,417.813z"></path><path style="fill:#151926;" d="M257.813,402.5c0,0-1.188,3.625-1.063,3.938s2.188,1.5,5.5,1.313C260.063,405.188,257.813,402.5,257.813,402.5z"></path><path style="fill:#151926;" d="M279.063,417.813c0,0.188-1.813,4.313-2.438,4S272,420,272.063,419.75S279.063,417.813,279.063,417.813z"></path><g><path style="fill:none;stroke:#000000;stroke-linecap:round;stroke-linejoin:round;" d="M248.084,372.333c0,0-2.333-18.167-2.333-21.667"></path><path style="fill:none;stroke:#000000;stroke-linecap:round;stroke-linejoin:round;" d="M251.916,372.333c0,0,2.333-18.167,2.333-21.667"></path></g><g><g><path style="fill:none;stroke:#000000;stroke-linecap:round;stroke-linejoin:round;" d="M242.666,401.5c0,0-4.5,6.333-6,6.833"></path></g><path style="fill:none;stroke:#000000;stroke-linecap:round;stroke-linejoin:round;" d="M220.45,417.5c0,0,7.5,1.75,8,2.25c-2.5,1.75-5.25,1.75-5.25,1.75l-1.5-2"></path></g><g><path style="fill:none;stroke:#000000;stroke-linecap:round;stroke-linejoin:round;" d="M257.334,401.5c0,0,4.5,6.333,6,6.833"></path><path style="fill:none;stroke:#000000;stroke-linecap:round;stroke-linejoin:round;" d="M279.803,417.5c0,0-7.5,1.75-8,2.25c2.5,1.75,5.25,1.75,5.25,1.75l1.5-2"></path></g><g><path style="fill:none;stroke:#000000;stroke-linecap:round;stroke-linejoin:round;" d="M248.033,372.333c0,0-7.333,6.667-9.833,11.667"></path><path style="fill:none;stroke:#000000;stroke-linecap:round;stroke-linejoin:round;" d="M251.969,372.333c0,0,7.333,6.667,9.833,11.667"></path></g></g></g></svg>