<svg xmlns="http://www.w3.org/2000/svg" width="500" height="500" version="1.1"><g id="x9096"><g><g><path style="fill:#6E6E6E;stroke:#000000;stroke-linecap:round;stroke-linejoin:round;" d="M259.332,347.418l-4.916,1.75c0,0-0.166,3.333-0.666,4.166s-3.749,1.5-3.749,1.5s-3.25-0.667-3.75-1.5s-0.667-4.166-0.667-4.166l-4.916-1.75l-3,4.75l10,9.833h4.664l10-9.833L259.332,347.418z"></path><polygon style="fill:#505050;" points="241.125,348.25 238.5,352.375 241.5,354.75 244,349.375 "></polygon><rect x="248.375" y="355.125" style="fill:#505050;" width="3.125" height="6.25"></rect><polygon style="fill:#505050;" points="254.875,349.375 258.375,354.75 261.5,352.25 259.25,348.25 "></polygon><path style="opacity:0.5;fill:#FFFFFF;" d="M253.75,354.125l1.875,3.625l2.75-2.625l-3.5-5.375C254.875,349.75,255.375,352.875,253.75,354.125z"></path></g><g><path style="fill:#181212;stroke:#000000;stroke-linecap:round;stroke-linejoin:round;" d="M282.001,381.25l3.75,10.75l4-1.75c0,0-3.5-9.75-4.25-10S282.001,381.25,282.001,381.25z"></path><path style="fill:#181212;stroke:#000000;stroke-linecap:round;stroke-linejoin:round;" d="M217.999,381.25l-3.75,10.75l-4-1.75c0,0,3.5-9.75,4.25-10S217.999,381.25,217.999,381.25z"></path></g><g><g><path style="fill:#363030;stroke:#000000;stroke-linecap:round;stroke-linejoin:round;" d="M283.451,369.618l-2,7.416l0.75,2.392C282.201,379.426,284.451,378.469,283.451,369.618z"></path><path style="fill:#363030;stroke:#000000;stroke-linecap:round;stroke-linejoin:round;" d="M216.549,369.618l2,7.416l-0.75,2.392C217.799,379.426,215.549,378.469,216.549,369.618z"></path></g><g><path style="fill:#363030;stroke:#000000;stroke-linecap:round;stroke-linejoin:round;" d="M281.901,378.708c-11.334-8.93-18.195-18.679-16.4-22.246c3.25-6.458,14.85-14.113,14.85-14.113s-0.75-1.435-1.25-3.349c-7.75,1.436-23.85,18.34-26.1,20.014c-0.75-0.718-3.002-0.718-3.002-0.718s-2.25,0-3,0.718c-2.25-1.674-18.35-18.578-26.1-20.014c-0.5,1.914-1.25,3.349-1.25,3.349s11.6,7.655,14.85,14.113c1.795,3.567-5.066,13.316-16.4,22.246c-1.5,2.632-4.35,9.856-4.35,9.856s3.5,4.784,4.75,4.784c11.75,3.109,25.5-0.527,25.5-0.527s3.5-4.545,3.5-5.501c0-0.957-2.25-6.698-2.25-6.698l2.75-7.611h4.002l2.75,7.611c0,0-2.25,5.741-2.25,6.698c0,0.956,3.5,5.501,3.5,5.501s13.75,3.637,25.5,0.527c1.25,0,4.75-4.784,4.75-4.784S283.401,381.34,281.901,378.708z"></path><g><line style="fill:none;stroke:#000000;stroke-linecap:round;stroke-linejoin:round;" x1="246.749" y1="361" x2="246.749" y2="370.75"></line><line style="fill:none;stroke:#000000;stroke-linecap:round;stroke-linejoin:round;" x1="253.251" y1="361" x2="253.251" y2="370.75"></line></g><g><path style="fill:#181212;" d="M247.549,372.75l-2.925,8.125c0,0-0.375-3.5-2.125-3.75s-5.25-0.625-5.25-0.625s0.75-4.25,0-5.625s12.5,0.25,12.5,0.25L247.549,372.75z"></path><path style="fill:#181212;" d="M244.749,380.5c0,0,3,6.516,2.75,6.82s-3.625,4.805-3.625,4.805l-4.75-0.75c0,0,3.625-3.25,3-5.75S237.999,376,237.999,376l6.125,0.5L244.749,380.5z"></path><path style="fill:#181212;" d="M252.452,372.75l2.924,8.125c0,0,0.375-3.5,2.125-3.75s5.25-0.625,5.25-0.625s-0.75-4.25,0-5.625s-12.502,0.25-12.502,0.25L252.452,372.75z"></path><g><line style="fill:none;stroke:#000000;stroke-linecap:round;stroke-linejoin:round;" x1="245.749" y1="371.75" x2="239.249" y2="371"></line><line style="fill:none;stroke:#000000;stroke-linecap:round;stroke-linejoin:round;" x1="239.749" y1="376.077" x2="247.249" y2="372.489"></line><line style="fill:none;stroke:#000000;stroke-linecap:round;stroke-linejoin:round;" x1="254.251" y1="371.75" x2="260.751" y2="371"></line><line style="fill:none;stroke:#000000;stroke-linecap:round;stroke-linejoin:round;" x1="260.251" y1="376.077" x2="252.751" y2="372.489"></line></g><path style="fill:#181212;" d="M255.251,380.5c0,0-3,6.516-2.75,6.82s3.625,4.805,3.625,4.805l4.75-0.75c0,0-3.625-3.25-3-5.75s4.125-9.625,4.125-9.625l-6.125,0.5L255.251,380.5z"></path></g><g><path style="fill:#181212;" d="M226.499,387l-2.875-1.625c0,0-2.75,2.125-3.125,2.875s2.375,4,3,4.125l2.552,1.542h2.753L226.499,387z"></path><path style="fill:#181212;" d="M276.501,392.375c0.625-0.125,3.375-3.375,3-4.125s-3.125-2.875-3.125-2.875L273.501,387l-2.306,6.917h2.754L276.501,392.375z"></path></g><g><path style="fill:none;stroke:#000000;stroke-linecap:round;stroke-linejoin:round;" d="M221.749,384.928c0,0,3,0.239,5,2.393c0.5,2.152,2.25,6.697,2.25,6.697"></path><path style="fill:none;stroke:#000000;stroke-linecap:round;stroke-linejoin:round;" d="M278.251,384.928c0,0-3,0.239-5,2.393c-0.5,2.152-2.25,6.697-2.25,6.697"></path></g><g><polygon style="fill:#181212;stroke:#000000;stroke-linecap:round;stroke-linejoin:round;" points="232.499,367.387 230.333,369.618 230.013,394.5 232.499,394.5 "></polygon><polygon style="fill:#181212;stroke:#000000;stroke-linecap:round;stroke-linejoin:round;" points="269.667,369.618 267.501,367.387 267.501,394.5 269.986,394.5 "></polygon></g><g><path style="fill:#6E6E6E;stroke:#000000;stroke-linecap:round;stroke-linejoin:round;" d="M217.099,380.144l0.5-4.545c0,0,12.65-5.502,14.65-16.505c-0.75-6.698-13-13.635-13-13.635l0.399-3.11c0,0,12.851,5.98,15.601,14.831S221.099,378.947,217.099,380.144z"></path><path style="fill:#6E6E6E;stroke:#000000;stroke-linecap:round;stroke-linejoin:round;" d="M282.901,380.144l-0.5-4.545c0,0-12.65-5.502-14.65-16.505c0.75-6.698,13-13.635,13-13.635l-0.4-3.11c0,0-12.85,5.98-15.6,14.831S278.901,378.947,282.901,380.144z"></path></g></g></g></g></g></svg>