<svg xmlns="http://www.w3.org/2000/svg" width="500" height="500" version="1.1"><g id="x9097"><g><path style="fill:#6E6E6E;stroke:#000000;stroke-linecap:round;stroke-linejoin:round;" d="M282.001,347.667H218c0,0-2.667,10.333-2.667,16s3,20.667,3,20.667s2,29.666,2.334,32.666c0.333,3,3,15,3,15l-2,4.667l2.666,2.333v2.667c0,0,4-1.333,7-1.333s9.334,1,9.334,1l-0.334-2.667c0,0,2.667-2.333,2.334-4c-0.334-1.667-1.667-3-1.667-3s1-12.333,2.333-16.333S243.667,385,243.667,385l4.064-11.24l2.269-0.093l2.269,0.093l4.064,11.24c0,0-0.998,26.334,0.334,30.334c1.334,4,2.334,16.333,2.334,16.333s-1.334,1.333-1.668,3c-0.332,1.667,2.334,4,2.334,4l-0.334,2.667c0,0,6.334-1,9.334-1s7,1.333,7,1.333V439l2.666-2.333l-2-4.667c0,0,2.668-12,3-15c0.334-3,2.334-32.666,2.334-32.666s3-15,3-20.667S282.001,347.667,282.001,347.667z"></path><g><g><path style="fill:#505050;" d="M257.833,435.166c0,0,0.334-2,1.834-3.333c-0.334-2.167-0.334-4.5-0.334-4.5s4.668,4.834,4.334,6.167S257.833,435.166,257.833,435.166z"></path><path style="fill:#505050;" d="M275.333,432.333c0,0-9.5-1.501-10.333-3.667s12.334-11.999,14.167-13.166C278.333,420.5,275.333,432.333,275.333,432.333z"></path><path style="fill:#505050;" d="M277.667,436.666c0,0-2.5,1.667-2.5,2.5S275,441,275,441s-5.499-2.666-5.333-3.5S277.667,436.666,277.667,436.666z"></path></g><g><path style="fill:#505050;" d="M242.168,435.166c0,0-0.334-2-1.834-3.333c0.334-2.167,0.334-4.5,0.334-4.5s-4.668,4.834-4.334,6.167S242.168,435.166,242.168,435.166z"></path><path style="fill:#505050;" d="M224.668,432.333c0,0,9.5-1.501,10.333-3.667s-12.334-11.999-14.167-13.166C221.668,420.5,224.668,432.333,224.668,432.333z"></path><path style="fill:#505050;" d="M222.334,436.666c0,0,2.5,1.667,2.5,2.5s0.167,1.834,0.167,1.834s5.499-2.666,5.333-3.5S222.334,436.666,222.334,436.666z"></path></g></g><path style="fill:#505050;" d="M258,376.5c0,0,2.666-2.5,5.666-7C258.5,370.667,250,369.833,250,369.833s-8.5,0.834-13.667-0.333c3,4.5,5.666,7,5.666,7s-5.834,0.834-5.5,1.5s8.334,2,8.334,2l2-6.334L250,373l3.166,0.666l2,6.334c0,0,8-1.334,8.334-2S258,376.5,258,376.5z"></path><g><path style="fill:#FDF9F6;stroke:#000000;stroke-linecap:round;stroke-linejoin:round;" d="M242.167,370.667c0,0,4.667,2.667,6.667,3"></path><path style="fill:#FDF9F6;stroke:#000000;stroke-linecap:round;stroke-linejoin:round;" d="M257.833,370.667c0,0-4.666,2.667-6.666,3"></path></g></g></g></svg>