<svg xmlns="http://www.w3.org/2000/svg" width="500" height="500" version="1.1"><g id="x9099"><g><path style="fill:#716162;stroke:#000000;stroke-linecap:round;stroke-linejoin:round;" d="M282.666,378.501c1.334-5.667,2.334-13.833,1.334-20.5c-0.887-5.918-4.402-17.615-5.18-20.167c-0.1-0.323-0.154-0.5-0.154-0.5s-0.75,0.25-0.908,0.405c-2.02,1.978-11.924,13.928-27.758,19.095c-15.833-5.167-25.739-17.117-27.758-19.095c-0.158-0.155-0.908-0.405-0.908-0.405s-0.055,0.177-0.153,0.5c-0.778,2.552-4.293,14.249-5.181,20.167c-1,6.667,0,14.833,1.334,20.5c1.042,4.425,1.98,20.531,2.659,29.999h22.923c0.195-8.177-0.218-20.575-0.083-22.332c0.167-2.166,4.833-13,4.833-13h4.667c0,0,4.666,10.834,4.832,13c0.137,1.757-0.277,14.155-0.082,22.332h22.923C280.686,399.032,281.625,382.926,282.666,378.501z"></path><g><g><g><path style="fill:#2D2322;stroke:#000000;stroke-linecap:round;stroke-linejoin:round;" d="M260.334,326.501C249.667,349,231.5,362.167,231.5,362.167l4.833,4.666c0,0,17.667-11.833,29.834-37.499C266.334,326.667,263.667,325.169,260.334,326.501z"></path><path style="fill:#716162;stroke:#000000;stroke-linecap:round;stroke-linejoin:round;" d="M244.484,359.8c0,0-0.633,1.497-1.133,1.494s-5.101-4.403-4.846-5.277c0.255-0.873,1.129-0.743,1.129-0.743L244.484,359.8z"></path><path style="fill:#716162;stroke:#000000;stroke-linecap:round;stroke-linejoin:round;" d="M247.5,356.769c0,0-0.633,1.496-1.133,1.493s-5.101-4.403-4.846-5.276c0.255-0.874,1.129-0.744,1.129-0.744L247.5,356.769z"></path></g></g><g><g><path style="fill:#2D2322;stroke:#000000;stroke-linecap:round;stroke-linejoin:round;" d="M239.841,326.501c10.667,22.499,28.833,35.666,28.833,35.666l-4.832,4.666c0,0-17.667-11.833-29.834-37.499C233.841,326.667,236.508,325.169,239.841,326.501z"></path><path style="fill:#716162;stroke:#000000;stroke-linecap:round;stroke-linejoin:round;" d="M255.691,359.8c0,0,0.633,1.497,1.133,1.494s5.102-4.403,4.846-5.277c-0.254-0.873-1.129-0.743-1.129-0.743L255.691,359.8z"></path><path style="fill:#716162;stroke:#000000;stroke-linecap:round;stroke-linejoin:round;" d="M252.675,356.769c0,0,0.634,1.496,1.134,1.493s5.1-4.403,4.846-5.276c-0.256-0.874-1.129-0.744-1.129-0.744L252.675,356.769z"></path></g></g></g><g><g><path style="fill:#473737;stroke:#000000;stroke-linecap:round;stroke-linejoin:round;" d="M284.25,365.644c-4.5-1.841-11.125-7.019-11.125-7.019s-12,9.205-23.125,11.852c-11.125-2.646-23.125-11.852-23.125-11.852s-6.625,5.178-11.125,7.019c-1.375,6.213,3.5,28.189,3.5,32.562c0,4.373-1.5,7.364-1.5,7.364s2.125,3.222,3.5,7.019L233.125,419l9.25-6.066c0,0,1-5.063,3.5-8.17c-2-1.495-2.125-7.594-2.125-7.594s-0.125-1.15-1.625-2.876c-0.25,2.301-4.5,8.629-7.625,8.514s-6.992-1.788-8.875-15.303c-1.875-13.462,5-18.524,8.375-17.604c1.781,0.486,5.625,3.912,5.5,7.595c6.875,2.301,10.5,6.903,10.5,6.903s3.625-4.603,10.5-6.903c-0.125-3.683,3.719-7.108,5.5-7.595c3.375-0.92,10.25,4.143,8.375,17.604c-1.883,13.515-5.75,15.188-8.875,15.303s-7.375-6.213-7.625-8.514c-1.5,1.726-1.625,2.876-1.625,2.876s-0.125,6.099-2.125,7.594c2.5,3.106,3.5,10.67,3.5,10.67l9.25,3.566l11.875-6.412c1.375-3.797,3.5-7.019,3.5-7.019s-1.5-2.991-1.5-7.364C280.75,393.833,285.625,371.856,284.25,365.644z"></path><g><path style="fill:#241A1B;" d="M272.435,400.166c0,0-2.167,4.333-6.667,4.5s-6.333-6-6.333-6s2.542,4.334,6.542,4.521C269.232,403.34,272.435,400.166,272.435,400.166z"></path><path style="fill:#241A1B;" d="M274.84,380.5c0,0,0.938,13.75-4.438,20.375c1.125-0.625,4.688-5.393,5.125-11.759S274.84,380.5,274.84,380.5z"></path></g><g><path style="fill:#241A1B;" d="M227.567,400.166c0,0,2.167,4.333,6.667,4.5s6.333-6,6.333-6s-2.542,4.334-6.542,4.521C230.769,403.34,227.567,400.166,227.567,400.166z"></path><path style="fill:#241A1B;" d="M225.163,380.5c0,0-0.938,13.75,4.438,20.375c-1.125-0.625-4.688-5.393-5.125-11.759S225.163,380.5,225.163,380.5z"></path></g><g><ellipse transform="matrix(-0.9128 -0.4084 0.4084 -0.9128 358.7615 900.4237)" style="fill:#473737;" cx="275.496" cy="411.916" rx="3.334" ry="5.75"></ellipse><g><path style="fill:#505050;" d="M272.119,410.564c-0.903,2.018-0.61,4.047,0.666,4.619c0.445,0.199,0.959,0.198,1.485-0.003c0.945-0.361,1.845-1.325,2.404-2.578c0.562-1.253,0.681-2.565,0.319-3.512c-0.2-0.525-0.542-0.909-0.986-1.107c-0.445-0.199-0.958-0.198-1.485,0.003C273.577,408.348,272.679,409.312,272.119,410.564z M275.6,408.896c0.2,0.09,0.355,0.275,0.461,0.553c0.265,0.692,0.15,1.744-0.298,2.746c-0.448,1.001-1.156,1.787-1.85,2.053c-0.276,0.105-0.519,0.113-0.719,0.024c-0.646-0.29-0.871-1.716-0.163-3.299c0.448-1.001,1.156-1.787,1.849-2.052C275.157,408.814,275.399,408.807,275.6,408.896z"></path></g><ellipse transform="matrix(-0.9127 -0.4086 0.4086 -0.9127 354.7514 898.9526)" style="fill:#505050;" cx="273.397" cy="411.583" rx="1.043" ry="1.8"></ellipse><ellipse transform="matrix(-0.9128 -0.4084 0.4084 -0.9128 358.7615 900.4237)" style="fill:none;stroke:#000000;stroke-linecap:round;stroke-linejoin:round;" cx="275.496" cy="411.916" rx="3.334" ry="5.75"></ellipse></g><path style="opacity:0.3;fill:#FFFFFF;" d="M267.83,404.5l-1.5,4c0,0,10.833-2.833,12-3.833C270.662,405.333,267.83,404.5,267.83,404.5z"></path><path style="opacity:0.3;fill:#FFFFFF;" d="M232.167,404.5l1.5,4c0,0-10.833-2.833-12-3.833C229.333,405.333,232.167,404.5,232.167,404.5z"></path><g><ellipse transform="matrix(0.9128 -0.4084 0.4084 0.9128 -148.6487 127.6008)" style="fill:#473737;" cx="224.5" cy="411.916" rx="3.333" ry="5.75"></ellipse><g><path style="fill:#505050;" d="M226.964,410.973c0.709,1.583,0.482,3.009-0.164,3.299c-0.2,0.089-0.441,0.081-0.718-0.024c-0.693-0.265-1.401-1.052-1.849-2.053c-0.448-1.001-0.562-2.054-0.297-2.746c0.105-0.277,0.261-0.463,0.46-0.553c0.2-0.089,0.442-0.081,0.719,0.024C225.808,409.185,226.517,409.972,226.964,410.973z M223.988,407.983c-0.445,0.198-0.786,0.582-0.987,1.107c-0.361,0.946-0.242,2.259,0.319,3.512s1.46,2.218,2.406,2.578c0.526,0.201,1.039,0.202,1.483,0.003c1.278-0.572,1.571-2.602,0.668-4.619c-0.561-1.253-1.459-2.217-2.405-2.578C224.946,407.785,224.433,407.784,223.988,407.983z"></path></g><ellipse transform="matrix(0.9127 -0.4085 0.4085 0.9127 -148.3708 128.4832)" style="fill:#505050;" cx="226.599" cy="411.583" rx="1.043" ry="1.8"></ellipse><ellipse transform="matrix(0.9128 -0.4084 0.4084 0.9128 -148.6487 127.6008)" style="fill:none;stroke:#000000;stroke-linecap:round;stroke-linejoin:round;" cx="224.5" cy="411.916" rx="3.333" ry="5.75"></ellipse></g><path style="fill:#241A1B;" d="M244.667,404.666c0,0-7.667,4.333-11.167,3.5c0,2.667,0.833,11,0.833,11l8.333-7.666C242.667,411.5,242.334,408.832,244.667,404.666z"></path><path style="fill:#241A1B;" d="M255.335,404.666c0,0,7.667,4.333,11.167,3.5c0,2.667-0.834,11-0.834,11l-8.333-7.666C257.335,411.5,257.668,408.832,255.335,404.666z"></path><path style="fill:#241A1B;" d="M251,382.334v-11.167c0,0,9.417-0.75,23.5-11.583c-1,5.5,1.167,18.417,1.167,18.417s-3.042-8.023-8.584-8.334c-5.5,0.083-7.083,6.334-7.25,7.334C254.333,379.334,251,382.334,251,382.334z"></path><line style="fill:none;stroke:#000000;stroke-linecap:round;stroke-linejoin:round;" x1="250" y1="381" x2="250" y2="372.333"></line><path style="fill:none;stroke:#000000;stroke-linecap:round;stroke-linejoin:round;" d="M250.5,383.133c0.25-0.346,0.625-3.452,8.375-7.134c2-4.833,4.417-6.197,7.792-6.197"></path><path style="fill:none;stroke:#000000;stroke-linecap:round;stroke-linejoin:round;" d="M270.583,371.501c0,0,6.917,4.613,5.042,17.615c-1.875,13.001-6.25,13.116-8.875,13.576"></path><path style="fill:none;stroke:#000000;stroke-linecap:round;stroke-linejoin:round;" d="M249.5,383.133c-0.25-0.346-0.625-3.452-8.375-7.134c-2-4.833-4.375-6.213-7.75-6.213"></path><path style="fill:none;stroke:#000000;stroke-linecap:round;stroke-linejoin:round;" d="M229.5,371.166c0,0-7,4.948-5.125,17.95c1.875,13.001,6.25,13.116,8.875,13.576"></path></g><g><g><path style="fill:#473737;stroke:#000000;stroke-linecap:round;stroke-linejoin:round;" d="M278.125,349.875c0,0,1.125-7.75,2.25-9.375c1.625,1.25,2.625,4.375,2.875,5.875C281.375,347.25,278.125,349.875,278.125,349.875z"></path><path style="fill:#473737;stroke:#000000;stroke-linecap:round;stroke-linejoin:round;" d="M277.857,347.916c1.643-2.166,5.518-2.541,5.893-2.291s1.5,4.125,1.5,5.25c-2.875,1.25-8.375,4.125-8.375,4.125S276.646,351.109,277.857,347.916z"></path><g><path style="fill:#473737;stroke:#000000;stroke-linecap:round;stroke-linejoin:round;" d="M271.5,365.375c0,0,1.5-8.875,6.375-13.75c5-2.75,7.375-2.75,7.375-2.75s2.625,3.875,3.375,6.625c-0.625,4.375-3.125,11.25-3.125,11.25s-6.5,3.625-8.75,3.875C273.75,368.875,271.5,365.375,271.5,365.375z"></path><path style="opacity:0.3;fill:#FFFFFF;" d="M287.436,355.501c0,0-1.834-4.417-2.666-5.417c-1.417,0.333-3.667,1.25-3.667,1.25S284.52,351.751,287.436,355.501z"></path><path style="fill:#241A1B;" d="M287.686,357.167c0,0-2.166,8.5-2.833,9.417c-1.417,0.917-8.167,3.667-8.167,3.667s-3.166-2.833-4.75-4.5c2.667-1.334,4.417-2.25,4.417-2.25s1.583-4.668,2.333-5.084s4.334,1.084,4.334,1.084L287.686,357.167z"></path><path style="fill:none;stroke:#000000;stroke-linecap:round;stroke-linejoin:round;" d="M271.5,365.375c0,0,10.625-3.75,16.875-9.5"></path><path style="fill:#241A1B;stroke:#000000;stroke-linecap:round;stroke-linejoin:round;" d="M276.447,363.301c0,0,0.959-3.348,2.435-5.109c1.698-0.652,4.24,1.13,4.24,1.13s-1.65,4.036-2.375,4.352C280.021,363.988,276.447,363.301,276.447,363.301z"></path><circle style="fill:#241A1B;stroke:#000000;stroke-linecap:round;stroke-linejoin:round;" cx="279.039" cy="361.637" r="1.813"></circle><circle cx="278.535" cy="361.841" r="1.124"></circle></g></g><g><path style="fill:#473737;stroke:#000000;stroke-linecap:round;stroke-linejoin:round;" d="M221.875,349.875c0,0-1.125-7.75-2.25-9.375c-1.625,1.25-2.625,4.375-2.875,5.875C218.625,347.25,221.875,349.875,221.875,349.875z"></path><path style="fill:#473737;stroke:#000000;stroke-linecap:round;stroke-linejoin:round;" d="M222.143,347.916c-1.643-2.166-5.518-2.541-5.893-2.291s-1.5,4.125-1.5,5.25c2.875,1.25,8.375,4.125,8.375,4.125S223.354,351.109,222.143,347.916z"></path><g><path style="fill:#473737;stroke:#000000;stroke-linecap:round;stroke-linejoin:round;" d="M228.5,365.375c0,0-1.5-8.875-6.375-13.75c-5-2.75-7.375-2.75-7.375-2.75s-2.625,3.875-3.375,6.625c0.625,4.375,3.125,11.25,3.125,11.25s6.5,3.625,8.75,3.875C226.25,368.875,228.5,365.375,228.5,365.375z"></path><path style="opacity:0.3;fill:#FFFFFF;" d="M212.417,355.501c0,0,1.834-4.417,2.667-5.417c1.417,0.333,3.667,1.25,3.667,1.25S215.333,351.751,212.417,355.501z"></path><path style="fill:#241A1B;" d="M212.167,357.167c0,0,2.167,8.5,2.833,9.417c1.417,0.917,8.167,3.667,8.167,3.667s3.167-2.833,4.75-4.5c-2.667-1.334-4.417-2.25-4.417-2.25s-1.583-4.668-2.333-5.084s-4.333,1.084-4.333,1.084L212.167,357.167z"></path><path style="fill:none;stroke:#000000;stroke-linecap:round;stroke-linejoin:round;" d="M228.5,365.375c0,0-10.625-3.75-16.875-9.5"></path><path style="fill:#241A1B;stroke:#000000;stroke-linecap:round;stroke-linejoin:round;" d="M223.553,363.301c0,0-0.959-3.348-2.435-5.109c-1.698-0.652-4.24,1.13-4.24,1.13s1.65,4.036,2.375,4.352C219.979,363.988,223.553,363.301,223.553,363.301z"></path><circle style="fill:#241A1B;stroke:#000000;stroke-linecap:round;stroke-linejoin:round;" cx="220.961" cy="361.637" r="1.813"></circle><circle cx="221.465" cy="361.841" r="1.124"></circle></g></g></g></g></g></g></svg>