<svg xmlns="http://www.w3.org/2000/svg" width="500" height="500" version="1.1"><g id="x9101"><g><g><g><g><path style="fill:#6E6E6E;stroke:#000000;stroke-linecap:round;stroke-linejoin:round;" d="M280.772,344.167h-61.545c-1.493,4.04-3.569,10.271-3.728,14.083c-0.25,6,2.417,35.792,2.917,39.042s-0.458,4.374,1.792,14.374l0.75,16.168c0,0-1.292,8.833-1.084,9.832c0.161,0.774,9,2.25,12.75,2.5s11-3.416,11-3.416s-1-8.5-1.25-14.917c-0.12-3.078,1.256-21.16,1.959-29.416c0.666-0.584,0.641-4.894,0.791-5.501c1.284-5.181,4.084-13.583,4.084-13.583l0.791-0.011l0.792,0.011c0,0,2.8,8.402,4.083,13.583c0.15,0.607,0.125,4.917,0.791,5.501c0.703,8.256,2.08,26.338,1.959,29.416c-0.25,6.417-1.25,14.917-1.25,14.917s7.25,3.666,11,3.416s12.59-1.726,12.75-2.5c0.209-0.999-1.082-9.832-1.082-9.832l0.75-16.168c2.25-10,1.291-11.124,1.791-14.374s3.166-33.042,2.916-39.042C284.341,354.438,282.266,348.207,280.772,344.167z"></path></g><path style="fill:#505050;" d="M250,368.358c-1.939-0.222-5.851-0.602-8.167-0.357c1,2.5,6.667,6,6.667,6l1.5-0.251l1.5,0.251c0,0,5.667-3.5,6.667-6C255.851,367.757,251.939,368.137,250,368.358z"></path><g><path style="fill:#505050;" d="M223.808,414.001c0,0-5.833-8.166-4.833-8.5s5.667,0.832,7.5,0.666s9.667-0.332,9.667,0.834s-7.333,7.999-9,8.166S223.808,414.001,223.808,414.001z"></path></g><path style="fill:#505050;" d="M276.191,414.001c0,0,5.834-8.166,4.834-8.5s-5.666,0.832-7.5,0.666s-9.667-0.332-9.667,0.834s7.333,7.999,9,8.166S276.191,414.001,276.191,414.001z"></path><path style="fill:#6E6E6E;stroke:#000000;stroke-linecap:round;stroke-linejoin:round;" d="M281.25,399.625c0,0,1,4.875,0.5,6.125s-4.25,8.875-4.25,8.875"></path><path style="fill:#6E6E6E;stroke:#000000;stroke-linecap:round;stroke-linejoin:round;" d="M218.75,399.625c0,0-1,4.875-0.5,6.125s4.25,8.875,4.25,8.875"></path></g><g><path style="fill:none;stroke:#000000;stroke-linecap:round;stroke-linejoin:round;" d="M230.083,347.667c0,0-0.834,22.334-1.667,27.167s-0.833,18.167-0.833,18.167l-0.5,2.666c0,0,0.5,1.834,0.5,2.334s-2.167,7.666-2.167,8.333s2,8.333,2,8.333s0.333,13.5,0.5,14s-1.167,9.5-0.667,10.5"></path><path style="fill:none;stroke:#000000;stroke-linecap:round;stroke-linejoin:round;" d="M269.917,347.667c0,0,0.834,22.334,1.667,27.167s0.833,18.167,0.833,18.167l0.5,2.666c0,0-0.5,1.834-0.5,2.334s2.167,7.666,2.167,8.333s-2,8.333-2,8.333s-0.333,13.5-0.5,14s1.166,9.5,0.666,10.5"></path></g><path style="fill:none;stroke:#000000;stroke-linecap:round;stroke-linejoin:round;" d="M250,345.86l-3.458,0.265c0,0,0.5,21.957,0.5,23.041c0.36,1.441,1.321,3.634,1.831,4.75h2.254c0.511-1.116,1.471-3.309,1.831-4.75c0-1.084,0.5-23.041,0.5-23.041L250,345.86z"></path></g><polygon style="fill:#6E6E6E;stroke:#000000;stroke-linecap:round;stroke-linejoin:round;" points="282.333,347.667 217.667,347.667 218.724,341.833 281.275,341.833 "></polygon></g></g></svg>