<svg xmlns="http://www.w3.org/2000/svg" width="500" height="500" version="1.1"><g id="x9103"><g><g><path style="fill:#6E6E6E;stroke:#000000;stroke-linecap:round;stroke-linejoin:round;" d="M282.001,347.667H218c0,0-2.667,10.333-2.667,16s3,20.667,3,20.667s2,29.666,2.334,32.666c0.333,3,3,15,3,15l0.666,7c0,0,4,1.334,7,1.334s9-1.667,9-1.667l0.667-7l1.333-16.333L243.667,385l4.064-11.24l2.269-0.093l2.269,0.093l4.064,11.24l1.334,30.334l1.334,16.333l0.666,7c0,0,6,1.667,9,1.667s7-1.334,7-1.334l0.666-7c0,0,2.668-12,3-15c0.334-3,2.334-32.666,2.334-32.666s3-15,3-20.667S282.001,347.667,282.001,347.667z"></path><g><g><path style="fill:#505050;" d="M275.333,432.333c0,0-9.5-1.501-10.333-3.667s12.334-11.999,14.167-13.166C278.333,420.5,275.333,432.333,275.333,432.333z"></path></g><g><path style="fill:#505050;" d="M224.668,432.333c0,0,9.5-1.501,10.333-3.667s-12.334-11.999-14.167-13.166C221.668,420.5,224.668,432.333,224.668,432.333z"></path></g></g><path style="fill:#505050;" d="M258,376.5c0,0,2.666-2.5,5.666-7C258.5,370.667,250,369.833,250,369.833s-8.5,0.834-13.667-0.333c3,4.5,5.666,7,5.666,7s-5.834,0.834-5.5,1.5s8.334,2,8.334,2l2-6.334L250,373l3.166,0.666l2,6.334c0,0,8-1.334,8.334-2S258,376.5,258,376.5z"></path><g><path style="fill:#FDF9F6;stroke:#000000;stroke-linecap:round;stroke-linejoin:round;" d="M242.167,370.667c0,0,4.667,2.667,6.667,3"></path><path style="fill:#FDF9F6;stroke:#000000;stroke-linecap:round;stroke-linejoin:round;" d="M257.833,370.667c0,0-4.666,2.667-6.666,3"></path><g><polyline style="fill:none;stroke:#000000;stroke-linecap:round;stroke-linejoin:round;" points="246.375,352 247.125,369.75 247.625,373.25 "></polyline><polyline style="fill:none;stroke:#000000;stroke-linecap:round;stroke-linejoin:round;" points="253.625,352 252.875,369.75 252.375,373.25 "></polyline><g><path style="fill:none;stroke:#000000;stroke-linecap:round;stroke-linejoin:round;" d="M228,359.5c0,0,0.5,17.75,1.25,22.5c0.75,12.75,0.75,34.25,0.75,34.25v3.5l1.5,11.5l-1.5,6l1.5,2.75"></path><path style="fill:none;stroke:#000000;stroke-linecap:round;stroke-linejoin:round;" d="M272,359.5c0,0-0.5,17.75-1.25,22.5C270,394.75,270,416.25,270,416.25v3.5l-1.5,11.5l1.5,6l-1.5,2.75"></path></g></g></g></g><g><path style="fill:#1D212A;stroke:#000000;stroke-linecap:round;stroke-linejoin:round;" d="M281,345c0,0-11.5,2-31,2s-31-2-31-2s-1.75,9.25-1.75,10.5c0,0,11.75,2.75,32.75,2.75s32.75-2.75,32.75-2.75C282.75,354.25,281,345,281,345z"></path><g><g><path style="fill:#AFBACA;stroke:#000000;stroke-linecap:round;stroke-linejoin:round;" d="M244.25,347.25c0,0-0.313,8.438,0.063,8.688c0.938,0.188,2.5-0.25,3,0.25s0.688,2.563,0.188,3.063s-5.313,0.313-6.25-0.688c-0.438-0.938-0.75-13,0.25-14s5.25-1.063,5.813-0.563s0.375,2.875-0.063,3.063S244.25,347.25,244.25,347.25z"></path></g><path style="fill:#AFBACA;stroke:#000000;stroke-linecap:round;stroke-linejoin:round;" d="M249.201,351.906c0,0.934-0.757,1.689-1.69,1.689h-3.46c-0.933,0-1.69-0.756-1.69-1.689l0,0c0-0.934,0.757-1.689,1.69-1.689h3.46C248.444,350.217,249.201,350.973,249.201,351.906L249.201,351.906z"></path><g><path style="fill:#AFBACA;stroke:#000000;stroke-linecap:round;stroke-linejoin:round;" d="M260.254,343.964c-0.417-0.452-1.816-0.771-2.441,0.015c-0.625,0.787-0.438,14.883,0.063,15.322c0.5,0.438,2.228,0.328,2.629-0.136C260.941,358.146,261.254,345.05,260.254,343.964z"></path></g></g></g></g></g></svg>