<svg xmlns="http://www.w3.org/2000/svg" width="500" height="500" version="1.1"><g id="x9105"><g><g><g><path style="fill:#46454B;stroke:#000000;stroke-linecap:round;stroke-linejoin:round;" d="M289.5,397.166c-1.25-14.799-4.834-28.373-4.834-31.333c0-2.959-4.666-21.083-4.666-21.083s-10.334,2.206-30.5,2.206c-20.167,0-30.5-2.206-30.5-2.206s-4.667,18.124-4.667,21.083c0,2.96-3.583,16.534-4.833,31.333c-1.667,5.334-4.72,9.232-4.5,9.834c0.5,1.366,9,13.573,13.5,15.167c7.75,0.683,19.5,0.349,22-0.334c4.5-2.732,5.667-7.167,8.167-10.667c-0.167-1.904-2.167-6.166-4-10.333c0.667-15.333,4.334-28.084,4.833-30.812c0.499,2.728,4.166,15.479,4.833,30.812c-1.833,4.167-3.833,8.429-4,10.333c2.5,3.5,3.667,7.935,8.167,10.667c2.5,0.683,14.25,1.017,22,0.334c4.5-1.594,13-13.801,13.5-15.167C294.221,406.398,291.166,402.5,289.5,397.166z"></path><path style="fill:#28272D;" d="M235.8,363.899c0,0.667,13.333,6.333,14.5,6.333c2.832-0.833,12.999-6.166,12.999-6.166s-5.166,2.833-12.499,2.833C243.467,366.899,235.8,363.899,235.8,363.899z"></path><path style="fill:#28272D;" d="M250.034,369.869c0,0,2.632,11.631,2.799,12.965c1.334-3.333,2.834-5,8.334-4C257,375.334,250.034,369.869,250.034,369.869z"></path><g><polyline style="fill:none;stroke:#000000;stroke-linecap:round;stroke-linejoin:round;" points="247.5,349.001 247.5,367.001 248.5,369.668 "></polyline><polyline style="fill:none;stroke:#000000;stroke-linecap:round;stroke-linejoin:round;" points="252.5,349.001 252.5,367.001 251.5,369.668 "></polyline></g><g><path style="fill:none;stroke:#000000;stroke-linecap:round;stroke-linejoin:round;" d="M237.5,364.902c0,0,10.25,5,12,5.25"></path><path style="fill:none;stroke:#000000;stroke-linecap:round;stroke-linejoin:round;" d="M261.5,364.902c0,0-10.25,5-12,5.25"></path></g><path style="fill:#28272D;" d="M233.667,399.834c0,0,6.666-17.999,8.333-20.833c-2.333,9-2.667,18.332-2.5,19.166C237.667,399.667,233.667,399.834,233.667,399.834z"></path><path style="fill:#28272D;" d="M214.667,397.334c0,0-0.833,6.833-2.333,8c-2.667-1.333-2-2.166-2-2.166s-0.5-8.667,0.333-11.667C213,392.668,214.667,397.334,214.667,397.334z"></path><path style="fill:#28272D;" d="M232.5,415.501l9-9.833c0,0,3.333,2.166,3.833,2.666s2,3.334,2,3.334s-1.667,5.665-4.333,6.665C238.333,418.166,232.5,415.501,232.5,415.501z"></path><path style="fill:none;stroke:#000000;stroke-linecap:round;stroke-linejoin:round;" d="M209.667,396.666c0,0-0.167,4.501,0.167,6.334"></path><path style="fill:#28272D;" d="M265.333,399.834c0,0-6.666-17.999-8.333-20.833c2.333,9,2.667,18.332,2.5,19.166C261.333,399.667,265.333,399.834,265.333,399.834z"></path><path style="fill:#28272D;" d="M284.333,397.334c0,0,0.833,6.833,2.333,8c2.667-1.333,2-2.166,2-2.166s0.5-8.667-0.333-11.667C286,392.668,284.333,397.334,284.333,397.334z"></path><path style="fill:#28272D;" d="M266.5,415.501l-9-9.833c0,0-3.334,2.166-3.834,2.666s-2,3.334-2,3.334s1.668,5.665,4.334,6.665C260.666,418.166,266.5,415.501,266.5,415.501z"></path><path style="fill:none;stroke:#000000;stroke-linecap:round;stroke-linejoin:round;" d="M289.333,396.666c0,0,0.167,4.501-0.167,6.334"></path></g><g><g><path style="fill:#6E6E6E;stroke:#000000;stroke-linecap:round;stroke-linejoin:round;" d="M208.5,400.001l-2.833,5.667c3,3.666,8,9.333,9.667,10.333s19.667,5.333,21.667,5.5c2.667,0.167,4.667-0.667,4.667-0.667s2.583-2.584,3.583-4.084c-7.333-0.333-26.416-5.25-27.416-5.916S208.5,400.001,208.5,400.001z"></path><path style="fill:#505050;" d="M227.5,419.001c0,0,8.333,2,9.833,2c2.167,0.167,4.667-0.833,4.667-0.833l2.333-3.001c0,0-10.833-1.666-11.833-1.666S227.5,419.001,227.5,419.001z"></path><path style="fill:#505050;" d="M206.333,405.668c0,0,3,4.499,3.833,4.166s2.167-4.5,2.167-4.5l-3.833-4.333L206.333,405.668z"></path></g><g><path style="fill:#6E6E6E;stroke:#000000;stroke-linecap:round;stroke-linejoin:round;" d="M210,391.668c0,0,6.833,8.666,8.833,10.166s24.333,5.834,24.333,5.834c1.167,1,3.667,5.666,3.667,5.666l1.833-1.833c0,0-0.333-3.5-3.667-9.167c-0.167-1.833-0.167-2.5-0.167-2.5l-24-5.166c0,0-9.266-10.001-9.766-10.667C210.734,387.834,210,391.668,210,391.668z"></path><path style="fill:#505050;" d="M240.5,406.501l3.667-4c0,0,3.5,4.334,4,8.667c-0.333,0.666-1.25,1.332-1.25,1.332l-3.083-5.166L240.5,406.501z"></path><path style="fill:#505050;" d="M214.833,389.334c0,0,0.833,6.001,0.333,7.334c-2.333-3.167-4.5-5.167-4.5-5.167l0.9-6.167C211.567,385.334,214.333,388,214.833,389.334z"></path><path style="fill:none;stroke:#000000;stroke-linecap:round;stroke-linejoin:round;" d="M244.667,400.833c0,0-0.5,5.834-2.333,8.167"></path></g><g><path style="fill:#6E6E6E;stroke:#000000;stroke-linecap:round;stroke-linejoin:round;" d="M290.5,400.001l2.833,5.667c-3,3.666-8,9.333-9.667,10.333c-1.666,1-19.666,5.333-21.666,5.5c-2.667,0.167-4.667-0.667-4.667-0.667s-2.583-2.584-3.583-4.084c7.333-0.333,26.416-5.25,27.416-5.916S290.5,400.001,290.5,400.001z"></path><path style="fill:#505050;" d="M271.5,419.001c0,0-8.334,2-9.834,2c-2.166,0.167-4.666-0.833-4.666-0.833l-2.334-3.001c0,0,10.834-1.666,11.834-1.666S271.5,419.001,271.5,419.001z"></path><path style="fill:#505050;" d="M292.666,405.668c0,0-3,4.499-3.833,4.166s-2.167-4.5-2.167-4.5l3.834-4.333L292.666,405.668z"></path></g><g><path style="fill:#6E6E6E;stroke:#000000;stroke-linecap:round;stroke-linejoin:round;" d="M289,391.668c0,0-6.834,8.666-8.834,10.166s-24.333,5.834-24.333,5.834c-1.167,1-3.667,5.666-3.667,5.666l-1.833-1.833c0,0,0.333-3.5,3.667-9.167c0.166-1.833,0.166-2.5,0.166-2.5l24-5.166c0,0,9.269-10.001,9.769-10.667C288.268,387.834,289,391.668,289,391.668z"></path><path style="fill:#505050;" d="M258.5,406.501l-3.667-4c0,0-3.5,4.334-4,8.667c0.333,0.666,1.25,1.332,1.25,1.332l3.083-5.166L258.5,406.501z"></path><path style="fill:#505050;" d="M284.166,389.334c0,0-0.833,6.001-0.333,7.334c2.333-3.167,4.5-5.167,4.5-5.167l-0.898-6.167C287.435,385.334,284.666,388,284.166,389.334z"></path><path style="fill:none;stroke:#000000;stroke-linecap:round;stroke-linejoin:round;" d="M254.333,400.833c0,0,0.5,5.834,2.333,8.167"></path></g></g></g><path style="fill:#18170E;stroke:#000000;stroke-linecap:round;stroke-linejoin:round;" d="M279.833,338.167l-2-2.5l-0.167,1.334c0,0-6.334,1.659-27.666,1.659c-21.333,0-27.667-1.659-27.667-1.659l-0.167-1.334l-2,2.5l-0.667,7.667c8.667,2.833,30.5,2.167,30.5,2.167s21.833,0.666,30.5-2.167L279.833,338.167z"></path><polyline style="fill:#46454B;stroke:#000000;stroke-linecap:round;stroke-linejoin:round;" points="269.813,348.125 269.667,337.667 273.313,337.438 274,348 "></polyline><polyline style="fill:#46454B;stroke:#000000;stroke-linecap:round;stroke-linejoin:round;" points="229.854,348.125 230,337.667 226.354,337.438 225.667,348 "></polyline></g></g></svg>