<svg xmlns="http://www.w3.org/2000/svg" width="500" height="500" version="1.1"><g id="x9106"><g><path style="fill:#41363A;stroke:#000000;stroke-linecap:round;stroke-linejoin:round;" d="M272.75,356.999L250,355.115l-22.75,1.884l-0.75,15.778c0,0,3.25,2.119,23.5,2.119s23.5-2.119,23.5-2.119L272.75,356.999z"></path><g><path style="fill:#5F5458;stroke:#000000;stroke-linecap:round;stroke-linejoin:round;" d="M282,347.25c-0.75,0.235-30.25,0-30.25,0l-1.75,2.591l-1.75-2.591c0,0-29.5,0.235-30.25,0c0,0-5.5,15.543-7,24.021c3.75,3.062,16.5,3.768,16.5,3.768l2.25-8.478c0,0,0.5,7.771,0.25,8.948c4.5,1.885,20,1.648,20,1.648s15.5,0.236,20-1.648c-0.25-1.177,0.25-8.948,0.25-8.948l2.25,8.478c0,0,12.75-0.706,16.5-3.768C287.5,362.793,282,347.25,282,347.25z"></path><g><g><path style="fill:#6E6E6E;" d="M283.739,363.813c0,0-1.666,3.453-1.666,4.082c0,0.628,2.5,3.455,3,3.611s1.5-3.925,1.333-4.396C286.239,366.639,283.739,363.813,283.739,363.813z"></path><polygon style="fill:#6E6E6E;" points="281.908,358.004 283.741,367.423 284.908,367.423 282.908,357.848 "></polygon></g><g><path style="fill:#6E6E6E;" d="M216.261,363.813c0,0,1.666,3.453,1.666,4.082c0,0.628-2.5,3.455-3,3.611s-1.5-3.926-1.333-4.396S216.261,363.813,216.261,363.813z"></path><polygon style="fill:#6E6E6E;" points="218.092,358.004 216.259,367.423 215.092,367.423 217.092,357.848 "></polygon></g></g><g><line style="fill:none;stroke:#000000;stroke-linecap:round;stroke-linejoin:round;" x1="218.5" y1="373.39" x2="223.75" y2="352.431"></line><line style="fill:none;stroke:#000000;stroke-linecap:round;stroke-linejoin:round;" x1="281.5" y1="373.39" x2="276.25" y2="352.431"></line></g></g></g></g></svg>