<svg xmlns="http://www.w3.org/2000/svg" width="500" height="500" version="1.1"><g id="x9107"><g><g><path style="fill:#6E6E6E;stroke:#000000;stroke-linecap:round;stroke-linejoin:round;" d="M281.929,350.678c-0.898,0.139-11.247,1.655-31.929,1.655c-21.667,0-32-1.666-32-1.666s-6.465,31.889-6.667,38.333c-0.201,6.445,8.134,26.931,8.134,26.931s16.421,0.604,22.865,0.806c0.403-2.417,0-4.902,2.51-9.466c4.229-5.235,3.833-21.146,3.833-21.146s-1.611-2.215-2.417-3.424c-0.806-1.208,1.806-7.451,2.007-9.667h3.465c0.201,2.216,2.813,8.459,2.006,9.667c-0.805,1.209-2.416,3.424-2.416,3.424s-0.396,15.911,3.834,21.146c2.51,4.563,2.107,7.049,2.51,9.466c6.445-0.201,22.865-0.806,22.865-0.806s8.336-20.485,8.135-26.931c-0.188-5.939-5.688-33.476-6.549-37.754L281.929,350.678z"></path><g><path style="opacity:0.5;fill:#FFFFFF;" d="M251.868,386.668c0,0,0.416,12.584,2.083,17c1.667,3.75,2.334,4,2.334,4l1.333,5l2.833-1.25c0,0-1.417-3.75-1-5.5s-3.205-4.572-4.5-7.25C253.701,396.084,251.868,386.668,251.868,386.668z"></path></g><path style="opacity:0.5;fill:#FFFFFF;" d="M248.132,386.668c0,0-0.416,12.584-2.083,17c-1.667,3.75-2.333,4-2.333,4l-1.334,5l-2.833-1.25c0,0,1.417-3.75,1-5.5s3.205-4.572,4.5-7.25C246.299,396.084,248.132,386.668,248.132,386.668z"></path></g><g><g><path style="fill:#7B4F35;stroke:#000000;stroke-linecap:round;stroke-linejoin:round;" d="M252.138,374.75l1.488,6.2c15.238-13.3,32.762-16.7,32.762-16.7s-1-1.5-2-5.5C264.888,363.25,252.138,374.75,252.138,374.75z"></path><path style="fill:#5D3117;" d="M252.601,374.938l1.125,4.563c0,0,4.688-4.063,8.125-6c-1.188-3.188-1.938-3.938-1.938-3.938S253.288,374,252.601,374.938z"></path><path style="fill:#5D3117;" d="M267.976,365.375c0,0,9.125-3.625,11.625-4.25c0.5,1.938,1.188,3.563,1.188,3.563s-8.188,2.563-11.375,5.063C267.913,367.188,267.976,365.375,267.976,365.375z"></path><g><path style="fill:#84817D;stroke:#000000;stroke-linecap:round;stroke-linejoin:round;" d="M270.226,367.469c0-0.88-0.656-1.594-1.469-1.594c-0.104,0-0.205,0.013-0.305,0.035c-0.299-0.648-0.59-1.133-0.816-1.208c-0.807-0.27-7.533,4.035-8.609,4.573c0,0,0.252,0.837,0.621,1.881c-0.393,0.428-0.875,0.99-0.973,1.279c0.334,1.333,1,1.833,1,1.833l1.027-0.513c0.348,0.718,0.703,1.283,1.016,1.438c3.766-2.152,8.34-4.843,8.34-4.843s-0.203-0.673-0.498-1.55C269.96,368.517,270.226,368.027,270.226,367.469z"></path><path style="opacity:0.6;fill:#FFFFFF;" d="M261.226,373.25c-0.082-0.125-1.457-3.459-1.457-3.792c1.5-1,6.541-3.458,6.541-3.458L261.226,373.25z"></path><circle style="fill:#84817D;stroke:#000000;stroke-linecap:round;stroke-linejoin:round;" cx="261.497" cy="371.604" r="1.188"></circle></g><g><path style="fill:#7B4F35;stroke:#000000;stroke-linecap:round;stroke-linejoin:round;" d="M253.513,380.375c0,0,14.375-4.125,33.125-5.375c1,3,1.5,5.5,1.5,5.5s-27.125,3.5-36.875,5.75C252.763,382.625,253.513,380.375,253.513,380.375z"></path><path style="fill:#5D3117;" d="M251.976,385.583l1.834-4.416c0,0,12.75-2.834,22.416-3.75c0.334,0.833,0.5,4,0.5,4S255.976,384.417,251.976,385.583z"></path></g></g><g><path style="fill:#7B4F35;stroke:#000000;stroke-linecap:round;stroke-linejoin:round;" d="M247.863,374.75l-1.488,6.2c-15.238-13.3-32.762-16.7-32.762-16.7s1-1.5,2-5.5C235.113,363.25,247.863,374.75,247.863,374.75z"></path><path style="fill:#5D3117;" d="M247.4,374.938l-1.125,4.563c0,0-4.688-4.063-8.125-6c1.188-3.188,1.938-3.938,1.938-3.938S246.712,374,247.4,374.938z"></path><path style="fill:#5D3117;" d="M232.025,365.375c0,0-9.125-3.625-11.625-4.25c-0.5,1.938-1.188,3.563-1.188,3.563s8.188,2.563,11.375,5.063C232.087,367.188,232.025,365.375,232.025,365.375z"></path><g><path style="fill:#84817D;stroke:#000000;stroke-linecap:round;stroke-linejoin:round;" d="M229.775,367.469c0-0.88,0.656-1.594,1.469-1.594c0.104,0,0.205,0.013,0.305,0.035c0.299-0.648,0.59-1.133,0.816-1.208c0.807-0.27,7.533,4.035,8.609,4.573c0,0-0.252,0.837-0.621,1.881c0.393,0.428,0.875,0.99,0.973,1.279c-0.334,1.333-1,1.833-1,1.833l-1.027-0.513c-0.348,0.718-0.703,1.283-1.016,1.438c-3.766-2.152-8.34-4.843-8.34-4.843s0.203-0.673,0.498-1.55C230.041,368.517,229.775,368.027,229.775,367.469z"></path><path style="opacity:0.6;fill:#FFFFFF;" d="M238.775,373.25c0.082-0.125,1.457-3.459,1.457-3.792c-1.5-1-6.541-3.458-6.541-3.458L238.775,373.25z"></path><circle style="fill:#84817D;stroke:#000000;stroke-linecap:round;stroke-linejoin:round;" cx="238.503" cy="371.604" r="1.188"></circle></g><g><path style="fill:#7B4F35;stroke:#000000;stroke-linecap:round;stroke-linejoin:round;" d="M246.488,380.375c0,0-14.375-4.125-33.125-5.375c-1,3-1.5,5.5-1.5,5.5s27.125,3.5,36.875,5.75C247.238,382.625,246.488,380.375,246.488,380.375z"></path><path style="fill:#5D3117;" d="M248.025,385.583l-1.834-4.416c0,0-12.75-2.834-22.416-3.75c-0.334,0.833-0.5,4-0.5,4S244.025,384.417,248.025,385.583z"></path></g></g></g></g></g></svg>