<svg xmlns="http://www.w3.org/2000/svg" width="500" height="500" version="1.1"><g id="a9108"><g><g><g><path style="fill:#363A43;stroke:#000000;stroke-linecap:round;stroke-linejoin:round;" d="M224.955,346.522c0,0,3.206-2.939,5.206-2.939c3.127,2.939,7.665,11.229,9.78,18.005c3.096,9.92,3.955,22.045,3.955,22.045L236.577,384L224.955,346.522z"></path><g><g><path style="fill:#242529;stroke:#000000;stroke-linecap:round;stroke-linejoin:round;" d="M224.661,344.25c0,0,6.75,8,10.692,15.6c1.013,3.128,0.465,6.004,0.465,6.004l-9.748-7.034L224.661,344.25z"></path><path style="fill:#242529;stroke:#000000;stroke-linecap:round;stroke-linejoin:round;" d="M228.003,358.253c0,0,6.642,3.484,9.915,6.5c0.352,3.741,0.791,6.456,0.791,6.456c1.083,1.168,0.947,1.098,2.533,3.136c0,0-0.309,4.355-0.283,7.645C233.512,375.09,227.887,365.363,228.003,358.253z"></path></g><g><g><path style="fill:#6E6E6E;stroke:#000000;stroke-linecap:round;stroke-linejoin:round;" d="M212.998,361.678c0,0-0.441-5.134-8.909-7.205c4.624-2.173,9.905-7.366,9.905-7.366l13.723,10.65l-3.748,6.123L212.998,361.678z"></path><path style="fill:#505050;" d="M205.661,354.125c0,0,5.875,1.5,7.375,6.25c3.5-0.375,10.75-0.375,10.75-0.375v-3.125C223.786,356.875,217.286,354.25,205.661,354.125z"></path></g><g><path style="fill:#6E6E6E;stroke:#000000;stroke-linecap:round;stroke-linejoin:round;" d="M224.862,356.544c0,0-13.13-7.566-13.411-8.434c-0.282-0.866,5.423-4.758,6.997-4.961c4.856,2.311,9.485,6.454,9.485,6.454L224.862,356.544z"></path><path style="fill:#505050;" d="M212.286,348c0,0,9,5.875,10.375,6.75c0.875-1.5,1.75-4.5,1.75-4.5s-6.625-4.875-8.75-5C213.786,346.375,212.661,347.125,212.286,348z"></path></g><g><path style="fill:#6E6E6E;stroke:#000000;stroke-linecap:round;stroke-linejoin:round;" d="M220.71,380.321c0,0-5.712-2.426-6.248-2.808c0.629-4.37-1.266-12.702-4.544-15.215c2.656-1.921,8.896-5.43,14.779-1.22C224.27,368.58,220.71,380.321,220.71,380.321z"></path><path style="fill:#505050;" d="M213.411,366.5l7.625-1.625l-2.875,13l-3-0.5C215.161,377.375,216.286,372,213.411,366.5z"></path></g><g><path style="fill:#505050;stroke:#000000;stroke-linecap:round;stroke-linejoin:round;" d="M218.128,387.247l-2.515,2.355c0,0-2.661-4.396-2.581-6.665c3.313-4.938,9.165-17.2,10.146-20.485C223.122,374.873,218.128,387.247,218.128,387.247z"></path><path style="fill:#505050;stroke:#000000;stroke-linecap:round;stroke-linejoin:round;" d="M232.645,361.05c0,0,8.167,17.736,13.317,21.012c-1.416,3.722-3.088,8.869-3.088,8.869S231.928,368.514,232.645,361.05z"></path><path style="fill:#6E6E6E;stroke:#000000;stroke-linecap:round;stroke-linejoin:round;" d="M219.87,403.922c0.025,14.076,5.728,38.63,5.728,38.63s0.744,5.157,1.646,5.458c0.902,0.3,12.326,0.685,12.625-0.451c0.751-2.855-0.825-7.912-0.825-7.912s2.545-15.104,3.164-20.971c0.854-8.1,0.442-16.269,0.442-16.269s-1.544-6.854-1.675-11.342l-23.661,0.988C218.048,397.667,219.992,403.863,219.87,403.922z"></path><path style="fill:#6E6E6E;stroke:#000000;stroke-linecap:round;stroke-linejoin:round;" d="M220.372,408.877c0,0-3.083,6.558-3.711,7.873c5.167,12.064,6.189,20.771,6.189,20.771s4.629,3.154,6.561,4.979c0.213-3.034,1.779-4.483,3.738-4.956c0.092-0.022,0.183-0.029,0.274-0.045l-2.838-29.804L220.372,408.877z"></path><path style="fill:#505050;" d="M221.786,429.625c0,0,1.5,5.875,1.5,7.625c1.125,0.875,6,4.25,6,4.25l-0.5-5.625l-3.75-8.25C225.036,427.625,224.161,430.5,221.786,429.625z"></path><path style="fill:#505050;stroke:#000000;stroke-linecap:round;stroke-linejoin:round;" d="M244.411,413.5c-1.624-3.863-3.5-7-3.5-7l-10.327,1.195l2.838,29.804c3.313-0.574,6.031,2.96,6.031,2.96s1.884-3.947,2.513-5.263C240.389,426.557,244.103,415.539,244.411,413.5z"></path><path style="fill:#6E6E6E;stroke:#000000;stroke-linecap:round;stroke-linejoin:round;" d="M213.206,390.579c0,0-2.609,3.622-2.454,4.99c3.052,3.259,7.567,11.995,8.662,17.558c1.307,6.644,2.993,15.093,8.801,16.889C226.223,411.38,218.793,395.492,213.206,390.579z"></path><g><path style="fill:#505050;" d="M219.536,410.875c0,0,1.625,13.25,5.5,16.25c-1-8.5-2.625-18-2.625-18s-0.125,4.375-1.375,4.5S219.536,410.875,219.536,410.875z"></path></g><path style="fill:#505050;stroke:#000000;stroke-linecap:round;stroke-linejoin:round;" d="M242.617,389.583c1.311,2.162,1.614,2.053,3.25,6.058c-1.872,3.219-5.442,24.223-5.906,25.635c-0.76,3.894-2.391,10.099-5.127,12.035c0.003-12.689,1.668-34.02,1.668-34.02L242.617,389.583z"></path><path style="fill:#6E6E6E;stroke:#000000;stroke-linecap:round;stroke-linejoin:round;" d="M238.161,400.25c0.586-2.025,3.926-9.511,5.25-13.5c-3.66-4.999-8.009-13.536-10.25-21.25c-2.242-7.713-4.403-16.7-4.403-16.7s-3.405-6.782-4.47-6.908c-1.065-0.127-3.015,7.457-3.015,7.457s-0.128,7.265-1.909,17.792c-1.418,8.377-4.187,17.442-5.975,22.688c3.64,6.122,6.499,11.569,6.918,12.754c0.021,0.061,0.108,0.098,0.233,0.122c0.802,5.406,4.962,27.54,5.029,29.206c0.066,1.665,4.309,7.666,7.626,9.286c3.118-3.377,5.134-7.211,5.387-9.223C238.836,429.962,237.929,413.27,238.161,400.25z"></path><path style="opacity:0.4;fill:#FFFFFF;" d="M224.411,361.5c0,0-1.25-14.625,0-18.75c1,3.625,2.75,18.125,2.75,18.125L224.411,361.5z"></path><path style="fill:#505050;" d="M224.411,342.75l4.75,40.751l10.75,9.667l2.583-6.5c0,0-6.25-9.167-9.167-17.917s-5.333-20-5.333-20L224.411,342.75z"></path><path style="fill:#505050;" d="M237.411,401.625c0,0,1,28.875,0.875,29.625s-0.5,1.5-0.5,1.5s-1.875-3.875-5.375-3c-0.75-5.25-1.75-18.75-1.75-18.75L237.411,401.625z"></path><path style="fill:#E8C043;stroke:#000000;stroke-linecap:round;stroke-linejoin:round;" d="M218.744,398.501c0,0,9.167,12.75,10.5,13.916c0.167,2.5,1,12.501,1.667,12.834s1.875,0.249,2.125-0.251s-0.875-13.083-0.875-13.083l7.75-16.083l-2.833-3.5l-17.5,3.5L218.744,398.501z"></path><path style="fill:#E8C043;stroke:#000000;stroke-linecap:round;stroke-linejoin:round;" d="M233.911,392.5l-8.5-4l-6.5,10.75l-1-3.25c1-3.5,7.55-13,7.55-13s-1.704-21.861-0.729-23.131c0.976-1.27,1.48-1.029,2.005,0.211c0.524,1.24,2.675,22.324,2.675,22.324s11.25,10.346,11.5,11.596s-1.5,2.25-1.5,2.25L233.911,392.5z"></path><g><path style="fill:#6E6E6E;stroke:#000000;stroke-linecap:round;stroke-linejoin:round;" d="M220.661,396.25c0,0,6-10.25,7.25-11.25c2.5,2.25,9,9.334,9,9.334c-0.5,3-6.5,14.667-6.5,14.667C225.078,403.167,220.661,396.25,220.661,396.25z"></path><path style="opacity:0.4;fill:#FFFFFF;" d="M230.661,408.5c0,0-3-9.875-3.25-11.625s0.5-11.875,0.5-11.875L230.661,408.5z"></path><path style="fill:#505050;" d="M228.411,386.5l2.173,21.195c0,0,4.577-10.945,5.577-12.695C232.911,391.5,228.411,386.5,228.411,386.5z"></path></g><g><path style="fill:#505050;stroke:#000000;stroke-linecap:round;stroke-linejoin:round;" d="M237.733,436.904c0.422-1.756,0.427-3.154,0.427-3.154s-2.75-4.25-5.5-3.5s-4.75,4-4.75,4s0.115,1.457,0.755,3.215c-0.755,1.91-0.33,7.285,5.62,9.035c5-2.125,4.375-8.125,4.375-8.125S238.126,437.391,237.733,436.904z"></path><path style="fill:#6E6E6E;stroke:#000000;stroke-linecap:round;stroke-linejoin:round;" d="M227.911,436.25c0,0,2-3.25,4.75-4s5.5,3.5,5.5,3.5s0,6.75-4.5,9.25C228.411,443,227.911,436.25,227.911,436.25z"></path><path style="fill:#505050;" d="M232.911,433.125c0,0,1,11.625,1,11.25s3.5-2.125,3.75-8.25c-1.25-3-4.75-3.375-4.75-3.375"></path></g></g></g></g></g><g><path style="fill:#363A43;stroke:#000000;stroke-linecap:round;stroke-linejoin:round;" d="M275.046,346.522c0,0-3.206-2.939-5.206-2.939c-3.127,2.939-7.665,11.229-9.779,18.005c-3.096,9.92-3.955,22.045-3.955,22.045l7.318,0.367L275.046,346.522z"></path><g><g><path style="fill:#242529;stroke:#000000;stroke-linecap:round;stroke-linejoin:round;" d="M275.34,344.25c0,0-6.75,8-10.691,15.6c-1.014,3.128-0.465,6.004-0.465,6.004l9.748-7.034L275.34,344.25z"></path><path style="fill:#242529;stroke:#000000;stroke-linecap:round;stroke-linejoin:round;" d="M271.997,358.253c0,0-6.642,3.484-9.915,6.5c-0.352,3.741-0.791,6.456-0.791,6.456c-1.083,1.168-0.947,1.098-2.533,3.136c0,0,0.309,4.355,0.283,7.645C266.488,375.09,272.113,365.363,271.997,358.253z"></path></g><g><g><path style="fill:#6E6E6E;stroke:#000000;stroke-linecap:round;stroke-linejoin:round;" d="M287.003,361.678c0,0,0.44-5.134,8.909-7.205c-4.624-2.173-9.906-7.366-9.906-7.366l-13.723,10.65l3.748,6.123L287.003,361.678z"></path><path style="fill:#505050;" d="M294.34,354.125c0,0-5.875,1.5-7.375,6.25c-3.5-0.375-10.75-0.375-10.75-0.375v-3.125C276.215,356.875,282.715,354.25,294.34,354.125z"></path></g><g><path style="fill:#6E6E6E;stroke:#000000;stroke-linecap:round;stroke-linejoin:round;" d="M275.139,356.544c0,0,13.13-7.566,13.411-8.434c0.282-0.866-5.423-4.758-6.997-4.961c-4.855,2.311-9.485,6.454-9.485,6.454L275.139,356.544z"></path><path style="fill:#505050;" d="M287.715,348c0,0-9,5.875-10.375,6.75c-0.875-1.5-1.75-4.5-1.75-4.5s6.625-4.875,8.75-5C286.215,346.375,287.34,347.125,287.715,348z"></path></g><g><path style="fill:#6E6E6E;stroke:#000000;stroke-linecap:round;stroke-linejoin:round;" d="M279.29,380.321c0,0,5.712-2.426,6.247-2.808c-0.629-4.37,1.266-12.702,4.545-15.215c-2.656-1.921-8.896-5.43-14.779-1.22C275.73,368.58,279.29,380.321,279.29,380.321z"></path><path style="fill:#505050;" d="M286.59,366.5l-7.625-1.625l2.875,13l3-0.5C284.84,377.375,283.715,372,286.59,366.5z"></path></g><g><path style="fill:#505050;stroke:#000000;stroke-linecap:round;stroke-linejoin:round;" d="M281.872,387.247l2.515,2.355c0,0,2.661-4.396,2.58-6.665c-3.313-4.938-9.164-17.2-10.145-20.485C276.879,374.873,281.872,387.247,281.872,387.247z"></path><path style="fill:#505050;stroke:#000000;stroke-linecap:round;stroke-linejoin:round;" d="M267.355,361.05c0,0-8.166,17.736-13.316,21.012c1.416,3.722,3.088,8.869,3.088,8.869S268.072,368.514,267.355,361.05z"></path><path style="fill:#6E6E6E;stroke:#000000;stroke-linecap:round;stroke-linejoin:round;" d="M280.131,403.922c-0.025,14.076-5.728,38.63-5.728,38.63s-0.744,5.157-1.646,5.458c-0.902,0.3-12.326,0.685-12.625-0.451c-0.751-2.855,0.825-7.912,0.825-7.912s-2.545-15.104-3.164-20.971c-0.854-8.1-0.442-16.269-0.442-16.269s1.545-6.854,1.676-11.342l23.66,0.988C281.953,397.667,280.009,403.863,280.131,403.922z"></path><path style="fill:#6E6E6E;stroke:#000000;stroke-linecap:round;stroke-linejoin:round;" d="M279.629,408.877c0,0,3.083,6.558,3.711,7.873c-5.168,12.064-6.189,20.771-6.189,20.771s-4.629,3.154-6.561,4.979c-0.213-3.034-1.779-4.483-3.738-4.956c-0.092-0.022-0.182-0.029-0.273-0.045l2.838-29.804L279.629,408.877z"></path><path style="fill:#505050;" d="M278.215,429.625c0,0-1.5,5.875-1.5,7.625c-1.125,0.875-6,4.25-6,4.25l0.5-5.625l3.75-8.25C274.965,427.625,275.84,430.5,278.215,429.625z"></path><path style="fill:#505050;stroke:#000000;stroke-linecap:round;stroke-linejoin:round;" d="M255.59,413.5c1.623-3.863,3.5-7,3.5-7l10.326,1.195l-2.838,29.804c-3.313-0.574-6.031,2.96-6.031,2.96s-1.884-3.947-2.512-5.263C259.611,426.557,255.898,415.539,255.59,413.5z"></path><path style="fill:#6E6E6E;stroke:#000000;stroke-linecap:round;stroke-linejoin:round;" d="M286.795,390.579c0,0,2.609,3.622,2.454,4.99c-3.052,3.259-7.567,11.995-8.661,17.558c-1.307,6.644-2.993,15.093-8.802,16.889C273.777,411.38,281.207,395.492,286.795,390.579z"></path><g><path style="fill:#505050;" d="M280.465,410.875c0,0-1.625,13.25-5.5,16.25c1-8.5,2.625-18,2.625-18s0.125,4.375,1.375,4.5S280.465,410.875,280.465,410.875z"></path></g><path style="fill:#505050;stroke:#000000;stroke-linecap:round;stroke-linejoin:round;" d="M257.384,389.583c-1.311,2.162-1.614,2.053-3.251,6.058c1.873,3.219,5.442,24.223,5.906,25.635c0.76,3.894,2.391,10.099,5.127,12.035c-0.003-12.689-1.668-34.02-1.668-34.02L257.384,389.583z"></path><path style="fill:#6E6E6E;stroke:#000000;stroke-linecap:round;stroke-linejoin:round;" d="M261.84,400.25c-0.586-2.025-3.926-9.511-5.25-13.5c3.66-4.999,8.009-13.536,10.25-21.25c2.242-7.713,4.402-16.7,4.402-16.7s3.406-6.782,4.471-6.908c1.064-0.127,3.014,7.457,3.014,7.457s0.129,7.265,1.91,17.792c1.418,8.377,4.186,17.442,5.975,22.688c-3.641,6.122-6.499,11.569-6.918,12.754c-0.021,0.061-0.109,0.098-0.233,0.122c-0.802,5.406-4.962,27.54-5.028,29.206c-0.066,1.665-4.31,7.666-7.627,9.286c-3.117-3.377-5.133-7.211-5.387-9.223S262.071,413.27,261.84,400.25z"></path><path style="opacity:0.4;fill:#FFFFFF;" d="M275.59,361.5c0,0,1.25-14.625,0-18.75c-1,3.625-2.75,18.125-2.75,18.125L275.59,361.5z"></path><path style="fill:#505050;" d="M275.59,342.75l-4.75,40.751l-10.75,9.667l-2.584-6.5c0,0,6.25-9.167,9.167-17.917s5.333-20,5.333-20L275.59,342.75z"></path><path style="fill:#505050;" d="M262.59,401.625c0,0-1,28.875-0.875,29.625s0.5,1.5,0.5,1.5s1.875-3.875,5.375-3c0.75-5.25,1.75-18.75,1.75-18.75L262.59,401.625z"></path><path style="fill:#E8C043;stroke:#000000;stroke-linecap:round;stroke-linejoin:round;" d="M281.256,398.501c0,0-9.166,12.75-10.5,13.916c-0.166,2.5-1,12.501-1.666,12.834c-0.667,0.333-1.875,0.249-2.125-0.251s0.875-13.083,0.875-13.083l-7.75-16.083l2.833-3.5l17.5,3.5L281.256,398.501z"></path><path style="fill:#E8C043;stroke:#000000;stroke-linecap:round;stroke-linejoin:round;" d="M266.09,392.5l8.5-4l6.5,10.75l1-3.25c-1-3.5-7.55-13-7.55-13s1.704-21.861,0.729-23.131c-0.977-1.27-1.48-1.029-2.006,0.211c-0.523,1.24-2.674,22.324-2.674,22.324S259.34,392.75,259.09,394s1.5,2.25,1.5,2.25L266.09,392.5z"></path><g><path style="fill:#6E6E6E;stroke:#000000;stroke-linecap:round;stroke-linejoin:round;" d="M279.34,396.25c0,0-6-10.25-7.25-11.25c-2.5,2.25-9,9.334-9,9.334c0.5,3,6.5,14.667,6.5,14.667C274.923,403.167,279.34,396.25,279.34,396.25z"></path><path style="opacity:0.4;fill:#FFFFFF;" d="M269.34,408.5c0,0,3-9.875,3.25-11.625S272.09,385,272.09,385L269.34,408.5z"></path><path style="fill:#505050;" d="M271.59,386.5l-2.174,21.195c0,0-4.576-10.945-5.576-12.695C267.09,391.5,271.59,386.5,271.59,386.5z"></path></g><g><path style="fill:#505050;stroke:#000000;stroke-linecap:round;stroke-linejoin:round;" d="M262.268,436.904c-0.423-1.756-0.428-3.154-0.428-3.154s2.75-4.25,5.5-3.5s4.75,4,4.75,4s-0.115,1.457-0.755,3.215c0.755,1.91,0.33,7.285-5.62,9.035c-5-2.125-4.375-8.125-4.375-8.125S261.875,437.391,262.268,436.904z"></path><path style="fill:#6E6E6E;stroke:#000000;stroke-linecap:round;stroke-linejoin:round;" d="M272.09,436.25c0,0-2-3.25-4.75-4s-5.5,3.5-5.5,3.5s0,6.75,4.5,9.25C271.59,443,272.09,436.25,272.09,436.25z"></path><path style="fill:#505050;" d="M267.09,433.125c0,0-1,11.625-1,11.25s-3.5-2.125-3.75-8.25c1.25-3,4.75-3.375,4.75-3.375"></path></g></g></g></g></g></g><g><path style="fill:#E8C043;stroke:#000000;stroke-linecap:round;stroke-linejoin:round;" d="M257.75,350.625c0,0-4.25,0.375-7.75,0.375s-7.75-0.375-7.75-0.375c-1,8.5,7.75,11,7.75,11S258.75,359.125,257.75,350.625z"></path><g><g><g><path style="fill:#6E6E6E;stroke:#000000;stroke-linecap:round;stroke-linejoin:round;" d="M260.836,356c0,0-1.002-3.667-3.975-6c-1.777,3.916-4.277,6.301-6.861,6.301c-2.583,0-5.083-2.385-6.86-6.301c-2.973,2.333-3.974,6-3.974,6c0.418,3.833-1.999,6.833-2.666,7.75c5.75,7,10.334,33.5,10.334,33.5l3.166,5.202l3.168-5.202c0,0,4.582-26.5,10.332-33.5C262.834,362.833,260.418,359.833,260.836,356z"></path><path style="fill:#505050;" d="M261.916,362.583C252.832,378.749,251.75,396,251.75,396l-1.75,3.25l-1.75-3.25c0,0-1.083-17.251-10.167-33.417c-0.333,0.334-0.917,1.334-0.917,1.334c0.25-0.084,5.583,7.75,10.167,33.25c1,1.666,2.667,4.333,2.667,4.333s1.666-2.667,2.666-4.333c4.584-25.5,9.916-33.334,10.166-33.25C262.832,363.917,262.25,362.917,261.916,362.583z"></path></g></g><path style="opacity:0.4;fill:#FFFFFF;" d="M257,351.125c0,0-1.25,5.75-6.625,5.75s-7.5-5.875-7.5-5.875s0.352,6.876,6.505,7.558l0.995,39.317l1.616-39.415C257.401,357.405,257,351.125,257,351.125z"></path><path style="fill:#505050;" d="M237.25,363.417c0,0,2.167-2.334,2.583-7.25c1.667,3.5,4.917,6.333,9.667,6.333c0,10.917,1,37,1,37s-2.833-1.749-2.833-2.333S244.333,379,242.5,374.083S237.25,363.417,237.25,363.417z"></path></g></g></g></g></svg>