<svg xmlns="http://www.w3.org/2000/svg" width="500" height="500" version="1.1"><g id="x9109"><g><g><path style="fill:#505050;stroke:#000000;stroke-linecap:round;stroke-linejoin:round;" d="M291.832,413l2.668,9.333l4.666-1.333l2.666,5.333c0,0,9.334-4.666,11.334-7.333c-3.334-12-21.58-59.333-31.998-73.666C287.168,377.667,291.832,413,291.832,413z"></path><path style="fill:#505050;stroke:#000000;stroke-linecap:round;stroke-linejoin:round;" d="M208.167,413l-2.667,9.333L200.833,421l-2.666,5.333c0,0-9.334-4.666-11.334-7.333c3.334-12,21.581-59.333,31.999-73.666C212.833,377.667,208.167,413,208.167,413z"></path></g><g><path style="fill:#6E6E6E;stroke:#000000;stroke-linecap:round;stroke-linejoin:round;" d="M250,348c-25.375,0-31.521-3-31.521-3c-3.773,7.92-11.468,65.73-13.411,73.056c6.204,2.675,12.81,3.692,12.81,3.692s0.3,2.483,0,2.292c5.803,2.676,16.661,2.58,16.661,2.58l0.15,1.881c0,0,7.146,1.01,15.312,0.765c8.163,0.245,15.31-0.765,15.31-0.765l0.151-1.881c0,0,10.855,0.096,16.66-2.58c-0.3,0.191,0-2.292,0-2.292s6.604-1.018,12.81-3.692c-1.944-7.325-9.639-65.136-13.411-73.056C281.521,345,275.374,348,250,348z"></path><path style="fill:#505050;" d="M224.709,346.961c-6.335,7.293-11.554,73.641-11.554,73.641l5.003,0.639c0,0,5.126-67.148,7.241-74.207L224.709,346.961z"></path><path style="fill:#505050;" d="M236.464,348.136c-4.759,11.772-5.898,78.071-5.898,78.071l3.973,0.413l3.327-78.428L236.464,348.136z"></path><path style="fill:#505050;" d="M286.605,420.602c0,0-5.164-66.084-11.452-73.527l-0.754,0.092c2.138,7.238,7.202,74.074,7.202,74.074L286.605,420.602z"></path><path style="fill:#505050;" d="M269.193,426.207c0,0-1.138-66.257-5.885-78.042l-1.409,0.083l3.32,78.372L269.193,426.207z"></path><path style="fill:none;stroke:#000000;stroke-linecap:round;stroke-linejoin:round;" d="M217.156,423.66c0,0,4.433-65.714,8.599-76.908"></path><path style="fill:none;stroke:#000000;stroke-linecap:round;stroke-linejoin:round;" d="M234.969,427.608c0,0,1.259-67.838,2.939-79.906"></path><path style="fill:none;stroke:#000000;stroke-linecap:round;stroke-linejoin:round;" d="M282.603,423.66c0,0-4.465-65.903-8.646-77.038"></path><path style="fill:none;stroke:#000000;stroke-linecap:round;stroke-linejoin:round;" d="M264.791,427.608c0,0-1.262-67.886-2.943-79.939"></path></g></g></g></svg>