<svg xmlns="http://www.w3.org/2000/svg" width="500" height="500" version="1.1"><g id="x9110"><g><g><g><path style="fill:none;stroke:#000000;stroke-linecap:round;stroke-linejoin:round;" d="M223.866,341.334c0,0,10.001,9.334,16.334,17"></path><path style="fill:none;stroke:#000000;stroke-linecap:round;stroke-linejoin:round;" d="M276.135,341.334c0,0-10,9.334-16.334,17"></path></g><g><g><path style="fill:#9ABBC4;stroke:#000000;stroke-linecap:round;stroke-linejoin:round;" d="M250,361.001c-4.667,0-8.333-1.667-9.666-2.667c1,6.333,7,14.667,7,14.667h5.332c0,0,6-8.334,7-14.667C258.333,359.334,254.667,361.001,250,361.001z"></path><path style="fill:#6D8992;" d="M250,369.125c0,0-4.875-0.5-5.375-1.375c1.5,3.25,3,4.75,3,4.75h4.75c0,0,1.5-1.5,3-4.75C254.875,368.625,250,369.125,250,369.125z"></path></g></g></g><g><g><g><g id="bottomsXMLID_13_"><g id="bottomsXMLID_25_"><g style="opacity:0.9;"><path style="fill:#6E6E6E;" d="M284.12,380.33c0,0,7,19,7.67,38c-2.33,7.67-6,12.34-11.33,19.34h-20c0,0-9.12-14.67-9.46-18.67c-0.07-0.96,5.25-31.72,4.67-33.33c-0.67-1.84-5.67-12.84-5.67-12.84s-5,11-5.67,12.84c-0.58,1.61,4.74,32.37,4.67,33.33c-0.34,4-9.46,18.67-9.46,18.67h-20c-5.33-7-9-11.67-11.33-19.34c0.67-19,7.67-38,7.67-38s-0.67-17,0.66-24.33c0,0,1.75,2.96,3.79,7.09l10.5-9.59L250,361l19.17-7.5l10.5,9.59c2.04-4.13,3.79-7.09,3.79-7.09C284.79,363.33,284.12,380.33,284.12,380.33z"></path></g><polygon style="fill:#6E6E6E;" points="268.67,353.167 250,361.622 231.33,353.167 223.667,360.333 225.167,377.833 244.667,386 248.898,376.205 251.054,376.094 255.334,386 274.834,377.833 276.334,360.333 "></polygon><g><path style="fill:#505050;" d="M247.125,376.877l-5.5,12.498c0,0,0-7.5-1.125-8.625s-11.75-10.5-12.125-12.25C234.875,372,247.125,376.877,247.125,376.877z"></path><path style="fill:#505050;" d="M252.875,376.877l5.5,12.498c0,0,0-7.5,1.125-8.625s11.75-10.5,12.125-12.25C265.125,372,252.875,376.877,252.875,376.877z"></path></g><g><path style="fill:none;stroke:#000000;stroke-linecap:round;stroke-linejoin:round;" d="M251,419c0.34,4,9.46,18.67,9.46,18.67h20c5.33-7,9-11.67,11.33-19.34c-0.67-19-7.67-38-7.67-38s0.67-17-0.66-24.33c0,0-1.75,2.96-3.79,7.09L279.5,362c-0.67-0.83-10.33-8.5-10.33-8.5L250,361l-19.17-7.5c0,0-9.66,7.67-10.33,8.5l-0.17,1.09c-2.04-4.13-3.79-7.09-3.79-7.09c-1.33,7.33-0.66,24.33-0.66,24.33s-7,19-7.67,38c2.33,7.67,6,12.34,11.33,19.34h20c0,0,9.12-14.67,9.46-18.67c0.07-0.96-5.25-31.72-4.67-33.33c0.417-1.146,2.515-5.847,4.037-9.229c1.258,0.309,2.758-0.066,3.354,0.198c1.515,3.365,3.539,7.906,3.948,9.03C256.25,387.28,250.93,418.04,251,419z"></path><g><path style="fill:none;stroke:#000000;stroke-linecap:round;stroke-linejoin:round;" d="M236.926,372.826c0,0,5.875,3,11.25,3.625"></path><path style="fill:none;stroke:#000000;stroke-linecap:round;stroke-linejoin:round;" d="M263.176,372.926c0,0-5.875,3-11.248,3.625"></path></g></g></g><path style="fill:#505050;stroke:#000000;stroke-linecap:round;stroke-linejoin:round;" d="M284.125,382.666c0,0,1,34,0.334,36s-3.666,13.667-3.666,13.667s6.666-11.666,7.332-14.333C288.793,413,284.125,382.666,284.125,382.666z"></path></g><g id="bottomsXMLID_11_"><path style="fill:#505050;stroke:#000000;stroke-linecap:round;stroke-linejoin:round;" d="M215.875,382.666c0,0-0.999,34-0.333,36s3.666,13.667,3.666,13.667s-6.666-11.666-7.333-14.333C211.208,413,215.875,382.666,215.875,382.666z"></path></g></g><g><g><path style="fill:#2A2D3E;stroke:#000000;stroke-linecap:round;stroke-linejoin:round;" d="M251.459,424.333c0,0,6.666,13.333,8.666,15.333c3,0.709,16.084,1.251,20,0.209c2.666-3.333,9.334-14.542,9.334-14.542s-5.668,0.333-9,4c-3.334-4.333-9-9-9-9s-7.334,4.667-10,9.333C255.459,425.666,251.459,424.333,251.459,424.333z"></path><path style="fill:none;stroke:#D3AE92;stroke-linecap:round;stroke-linejoin:round;" d="M254.625,428.25c0,0,5.938,2.188,9.688,6.688c-0.625,0.938-1.813,2.375-1.813,2.375l-1.75-2.188c0,0,4.125-6.625,10.625-10.375c4,2.5,9.375,7.375,10.375,10.125c-0.688,0.938-1.5,2-1.5,2l-1.688-2.188c0,0,3.813-4.438,7.813-6.188"></path></g><g><path style="fill:#2A2D3E;stroke:#000000;stroke-linecap:round;stroke-linejoin:round;" d="M248.542,424.333c0,0-6.667,13.333-8.667,15.333c-3,0.709-16.083,1.251-20,0.209c-2.666-3.333-9.333-14.542-9.333-14.542s5.667,0.333,9,4c3.333-4.333,9-9,9-9s7.334,4.667,10,9.333C244.542,425.666,248.542,424.333,248.542,424.333z"></path><path style="fill:none;stroke:#D3AE92;stroke-linecap:round;stroke-linejoin:round;" d="M245.375,428.25c0,0-5.938,2.188-9.688,6.688c0.625,0.938,1.813,2.375,1.813,2.375l1.75-2.188c0,0-4.125-6.625-10.625-10.375c-4,2.5-9.375,7.375-10.375,10.125c0.688,0.938,1.5,2,1.5,2l1.688-2.188c0,0-3.813-4.438-7.813-6.188"></path></g></g></g><g><g><g><path style="fill:#E7C474;stroke:#000000;stroke-linecap:round;stroke-linejoin:round;" d="M276,341c0,0-10.668,11.666-26,14.833C234.667,352.666,224,341,224,341s-1.5,0.167-3,1.833c3.833,12.166,29,22.5,29,22.5s25.166-10.334,29-22.5C277.5,341.167,276,341,276,341z"></path><path style="fill:#A87745;" d="M273.125,344.438c0,0,1.5,0.063,2.125,0.813s0.063,3,0.063,3s2.625-3,3.25-5.625c-0.813-1.813-2.125-1.813-2.125-1.813S275.313,342.438,273.125,344.438z"></path><path style="fill:#A87745;" d="M224.375,342c0,0,1.813,1.75,2.313,2.188c-1.125-0.125-2.563,2.375-2.188,3.75c-0.875-1.125-2.625-3.188-2.938-5.125C222.313,340.688,224.375,342,224.375,342z"></path><path style="fill:#A87745;" d="M228.833,349.167c0,0,1,2.166-0.167,3.166c3.667,3,18.667,12.666,21.667,12.5c0-3.333,0-4.5,0-4.5S236.833,356.834,228.833,349.167z"></path><path style="fill:#F3E4A0;" d="M230,347.333c0,0,0.667,0.668,0.333,1.834c1.333,2.166,13.667,10,19.333,10.5c0.167-1.834,0.167-3.167,0.167-3.167S237.167,353.666,230,347.333z"></path><g><path style="fill:none;stroke:#000000;stroke-linecap:round;stroke-linejoin:round;" d="M222.75,342.833c0,0,12.334,15.168,27.333,17.334"></path><path style="fill:none;stroke:#000000;stroke-linecap:round;stroke-linejoin:round;" d="M277.25,342.833c0,0-12.334,15.168-27.333,17.334"></path></g></g><g><g><path style="fill:#E7C474;stroke:#000000;stroke-linecap:round;stroke-linejoin:round;" d="M250,366.625c0,0-2.625,3.125-2.625,4.813c0,1.654,1.25,2.688,2.625,2.688s2.625-1.033,2.625-2.688C252.625,369.625,250,366.625,250,366.625z"></path><ellipse style="fill:#A87745;" cx="249.969" cy="372" rx="1.406" ry="1.438"></ellipse><ellipse style="fill:#F3E4A0;" cx="249.938" cy="369.594" rx="0.625" ry="1.156"></ellipse></g><g><g><path style="fill:#E7C474;stroke:#000000;stroke-linecap:round;stroke-linejoin:round;" d="M257.629,364.726c0,0-1.221,3.895-0.572,5.452c0.637,1.527,2.188,2,3.457,1.471c1.27-0.528,2.025-1.963,1.39-3.49C261.206,366.485,257.629,364.726,257.629,364.726z"></path><ellipse transform="matrix(0.9231 -0.3846 0.3846 0.9231 -122.224 128.3207)" style="fill:#A87745;" cx="259.667" cy="369.699" rx="1.407" ry="1.438"></ellipse><ellipse transform="matrix(0.9232 -0.3843 0.3843 0.9232 -121.355 127.6364)" style="fill:#F3E4A0;" cx="258.713" cy="367.49" rx="0.625" ry="1.157"></ellipse></g><g><path style="fill:#E7C474;stroke:#000000;stroke-linecap:round;stroke-linejoin:round;" d="M242.371,364.726c0,0,1.221,3.895,0.572,5.452c-0.637,1.527-2.188,2-3.457,1.471c-1.27-0.528-2.025-1.963-1.39-3.49C238.794,366.485,242.371,364.726,242.371,364.726z"></path><ellipse transform="matrix(-0.9231 -0.3846 0.3846 -0.9231 319.9744 803.3977)" style="fill:#A87745;" cx="240.333" cy="369.699" rx="1.407" ry="1.438"></ellipse><ellipse transform="matrix(-0.9232 -0.3843 0.3843 -0.9232 322.8271 799.4854)" style="fill:#F3E4A0;" cx="241.287" cy="367.49" rx="0.625" ry="1.157"></ellipse></g></g></g></g><g><path style="fill:#E7C474;stroke:#000000;stroke-linecap:round;stroke-linejoin:round;" d="M282.125,349.797c0,0-2.25,2.953-7.75,2.203c4.5-4,5.5-7.203,4.25-8.953s-7.25-1.75-7.25-1.75s1.25-6.797,6.5-9.047C279.375,336.5,282.125,349.797,282.125,349.797z"></path><path style="fill:#F3E4A0;" d="M272.125,340.167c0,0,2.168-5.001,4.168-6.334S275.959,340,275.959,340L272.125,340.167z"></path><path style="fill:#A87745;" d="M278.625,348.667l0.668,1.833c0,0,1.5-0.333,2.166-1.333c-0.5-2.167-1.166-4.5-1.166-4.5S279.959,347.334,278.625,348.667z"></path><path style="fill:#E7C474;stroke:#000000;stroke-linecap:round;stroke-linejoin:round;" d="M285.523,386.08c0,0-1,3.67-2.666,2.336c-1-1.334,1-7.333,1-7.333s-7.666-5-7.666-8.667c0-1.134,0.766-3.002,1.822-5.04c1.186,1.167,3.207,2.398,6.361,2.124c-1.781-2.546-2.525-5.672-2.826-8.131c1.457-2.273,2.643-3.953,2.643-3.953s-0.668-5-2.334-8c-0.666,4-10.666,15.667-10.334,23c0.334,7.333,8.334,11,8.334,11s-1,2.667-2.666,5c0.666,1.666,8,7.334,11.666,7.667C288.525,393.083,285.523,386.08,285.523,386.08z"></path><path style="fill:#F3E4A0;" d="M278.793,357.5l1.5,3.667c0,0-3.5,5.666-4.5,8.833c-2,0.167-3.5,1.333-3.5,1.333S271.959,366.833,278.793,357.5z"></path><path style="fill:#A87745;" d="M283.459,356.5c0-1.667-1.166-4.833-1.166-4.833c-1.5,2.166-2.43,3.515-3.5,5.833l1.5,3.667C281.729,359.383,282.293,357.5,283.459,356.5z"></path><path style="fill:#A87745;" d="M276.293,380.167c0,0,2.582-0.334,2.582-2.5c1.75,1.833,4.334,3.666,4.334,3.666s-1.797,5.427-0.801,7c1.584,2.5,3.25-0.865,3.25-0.865s2.133,5.366,2.467,7.699c-2-0.334-9.5-5.667-9.5-6.667c2-3.167,2.168-5.5,2.168-5.5L276.293,380.167z"></path><path style="fill:#F3E4A0;" d="M284.125,389.666c0,0.5-0.5,3.334-0.5,3.334l-1.666-2L284.125,389.666z"></path><path style="fill:none;stroke:#000000;stroke-linecap:round;stroke-linejoin:round;" d="M281.875,355c0,0-7.75,10.25-8.25,15.75s7.25,10.75,7.25,10.75"></path><path style="fill:none;stroke:#000000;stroke-linecap:round;stroke-linejoin:round;" d="M277.625,334.75c0,0-1.25,0.75-3,3.75"></path></g><g><path style="fill:#E7C474;stroke:#000000;stroke-linecap:round;stroke-linejoin:round;" d="M217.875,349.797c0,0,2.25,2.953,7.75,2.203c-4.5-4-5.5-7.203-4.25-8.953s7.25-1.75,7.25-1.75s-1.25-6.797-6.5-9.047C220.625,336.5,217.875,349.797,217.875,349.797z"></path><path style="fill:#F3E4A0;" d="M227.875,340.167c0,0-2.167-5.001-4.167-6.334s0.333,6.167,0.333,6.167L227.875,340.167z"></path><path style="fill:#A87745;" d="M221.375,348.667l-0.667,1.833c0,0-1.501-0.333-2.167-1.333c0.5-2.167,1.167-4.5,1.167-4.5S220.042,347.334,221.375,348.667z"></path><path style="fill:#E7C474;stroke:#000000;stroke-linecap:round;stroke-linejoin:round;" d="M214.477,386.08c0,0,1,3.67,2.666,2.336c1-1.334-1-7.333-1-7.333s7.667-5,7.667-8.667c0-1.134-0.766-3.002-1.823-5.04c-1.186,1.167-3.206,2.398-6.361,2.124c1.782-2.546,2.525-5.672,2.827-8.131c-1.457-2.273-2.643-3.953-2.643-3.953s0.667-5,2.333-8c0.666,4,10.667,15.667,10.334,23s-8.334,11-8.334,11s1,2.667,2.667,5c-0.667,1.666-8,7.334-11.667,7.667C211.476,393.083,214.477,386.08,214.477,386.08z"></path><path style="fill:#F3E4A0;" d="M221.208,357.5l-1.5,3.667c0,0,3.5,5.666,4.5,8.833c2,0.167,3.5,1.333,3.5,1.333S228.041,366.833,221.208,357.5z"></path><path style="fill:#A87745;" d="M216.541,356.5c0-1.667,1.167-4.833,1.167-4.833c1.5,2.166,2.429,3.515,3.5,5.833l-1.5,3.667C218.271,359.383,217.708,357.5,216.541,356.5z"></path><path style="fill:#A87745;" d="M223.708,380.167c0,0-2.583-0.334-2.583-2.5c-1.75,1.833-4.334,3.666-4.334,3.666s1.797,5.427,0.801,7c-1.583,2.5-3.25-0.865-3.25-0.865s-2.133,5.366-2.467,7.699c2-0.334,9.5-5.667,9.5-6.667c-2-3.167-2.167-5.5-2.167-5.5L223.708,380.167z"></path><path style="fill:#F3E4A0;" d="M215.875,389.666c0,0.5,0.5,3.334,0.5,3.334l1.667-2L215.875,389.666z"></path><path style="fill:none;stroke:#000000;stroke-linecap:round;stroke-linejoin:round;" d="M218.125,355c0,0,7.75,10.25,8.25,15.75s-7.25,10.75-7.25,10.75"></path><path style="fill:none;stroke:#000000;stroke-linecap:round;stroke-linejoin:round;" d="M222.375,334.75c0,0,1.25,0.75,3,3.75"></path></g></g></g></g></g></svg>