<svg xmlns="http://www.w3.org/2000/svg" width="500" height="500" version="1.1"><g id="x9112"><g><g><g><path style="fill:#6E6E6E;stroke:#000000;stroke-linecap:round;stroke-linejoin:round;" d="M282.11,348.25h-64.22c-3.567,14.1,0.037,28.728,0.037,30.898c0,0.748,1.316,14.517,1.841,21.195c-0.738,1.184-1.672,2.533-1.768,2.823c0.667,1.334,1.334,3,1.334,3s-0.833,1.668-1,2.334c0.717,0.956,1.52,3.194,2.224,4.755c0.682,6.282,1.836,13.045,2.878,18.493c-0.461,1.338,1.027,6.825,1.407,6.969c0.002,0.01,0.005,0.022,0.007,0.032h14.516c0,0,1.329-5.685,1.013-6.737c0.739-4.646,1.593-10.259,1.918-13.337c0.095-0.903,0.172-1.807,0.239-2.7c0.972-1.677,1.967-3.813,2.299-5.142c-0.333-0.5-1.5-3.833-1.5-3.833s0.666-1.334,1.166-3.667c-0.194-0.483-1.059-1.525-1.752-2.317c0.026-3.618,0.106-13.185,0.234-14.969c0.362-5.084,5.083-13.288,5.083-13.288h3.871c0,0,4.721,8.204,5.083,13.288c0.128,1.783,0.208,11.35,0.233,14.968c-0.693,0.792-1.559,1.835-1.752,2.318c0.5,2.333,1.166,3.667,1.166,3.667s-1.166,3.333-1.5,3.833c0.332,1.329,1.327,3.465,2.3,5.142c0.065,0.894,0.144,1.797,0.238,2.7c0.324,3.078,1.179,8.691,1.918,13.338c-0.316,1.053,1.014,6.736,1.014,6.736h14.516c0.002-0.011,0.005-0.022,0.007-0.033c0.382-0.144,1.868-5.628,1.406-6.966c1.042-5.449,2.197-12.214,2.879-18.498c0.704-1.561,1.506-3.796,2.223-4.752c-0.166-0.666-1-2.334-1-2.334s0.668-1.666,1.334-3c-0.096-0.289-1.029-1.639-1.767-2.821c0.524-6.678,1.841-20.449,1.841-21.197C282.074,376.978,285.678,362.35,282.11,348.25z"></path><g><g><path style="fill:none;stroke:#000000;stroke-linecap:round;stroke-linejoin:round;" d="M253.833,359.334c0,0,16.333-0.499,29.333,0.667"></path><path style="fill:none;stroke:#FFFFFF;stroke-linecap:round;stroke-linejoin:round;stroke-dasharray:1 2;" d="M253.833,362.667c0,0,16.333-0.499,29.333,0.667"></path></g><g><path style="fill:none;stroke:#000000;stroke-linecap:round;stroke-linejoin:round;" d="M246.167,359.334c0,0-16.333-0.499-29.333,0.667"></path><path style="fill:none;stroke:#FFFFFF;stroke-linecap:round;stroke-linejoin:round;stroke-dasharray:1 2;" d="M246.167,362.667c0,0-16.333-0.499-29.333,0.667"></path></g></g><g><line style="fill:none;stroke:#000000;stroke-linecap:round;stroke-linejoin:round;" x1="217.417" y1="353.667" x2="282.583" y2="353.667"></line></g><path style="fill:#6E6E6E;stroke:#000000;stroke-linecap:round;stroke-linejoin:round;" d="M222.083,424.001c0,0-1.667,3.5-2,4.333c0.667,2.333,3.167,6.5,3.167,6.5s-1.167,1.667-0.5,2.5s1.185,1.101,2.009,1.384s15.157-0.05,15.157-0.05l0.333-2.167c0,0,2.167-2.333,2.167-2.833c-0.833-1.834-0.833-5.501-1.5-8.334"></path><g><path style="fill:#6E6E6E;stroke:#000000;stroke-linecap:round;stroke-linejoin:round;" d="M277.917,424.001c0,0,1.667,3.5,2,4.333c-0.667,2.333-3.167,6.5-3.167,6.5s1.167,1.667,0.5,2.5c-0.666,0.833-1.185,1.101-2.009,1.384s-15.157-0.05-15.157-0.05l-0.334-2.167c0,0-2.166-2.333-2.166-2.833c0.833-1.834,0.834-5.501,1.5-8.334"></path></g></g><path style="fill:#505050;" d="M262.834,366.834c-2,0.333-12.834,1.5-12.834,1.5s-10.834-1.167-12.834-1.5c3.167,3.833,6.667,5.667,6.667,5.667l-1.5,12c0,0,1.833-5.334,2.833-7.167s2.834-5.167,2.834-5.167l2,0.167l2-0.167c0,0,1.834,3.334,2.834,5.167s2.834,7.167,2.834,7.167l-1.5-12C256.168,372.501,259.668,370.667,262.834,366.834z"></path><g><polyline style="fill:none;stroke:#000000;stroke-linecap:round;stroke-linejoin:round;" points="246.718,354.334 246.884,369.001 248.282,372.76 "></polyline><polyline style="fill:none;stroke:#000000;stroke-linecap:round;stroke-linejoin:round;" points="253.282,354.334 253.116,369.001 251.718,372.76 "></polyline></g><g><g><path style="fill:#505050;" d="M255.887,403.25c0,0,1,3.375,1.375,3.875c1.75,0.5,5.875,0.25,5.875-0.125C259.762,404.75,255.887,403.25,255.887,403.25z"></path><path style="fill:#505050;" d="M281.613,403.167c0,0-1.352,3.333-1.727,3.458s-5.5-0.125-5.5-0.125C276.387,403.875,281.613,403.167,281.613,403.167z"></path></g><g><path style="fill:#505050;" d="M244.113,403.25c0,0-1,3.375-1.375,3.875c-1.75,0.5-5.875,0.25-5.875-0.125C240.238,404.75,244.113,403.25,244.113,403.25z"></path><path style="fill:#505050;" d="M218.387,403.167c0,0,1.352,3.333,1.727,3.458s5.5-0.125,5.5-0.125C223.613,403.875,218.387,403.167,218.387,403.167z"></path></g></g></g><g><g><path style="fill:#3F3C3F;stroke:#000000;stroke-linecap:round;stroke-linejoin:round;" d="M254.667,348.001c0,0,18.832,28.501,27.332,35.501c0.667-2.667,0.667-4,0.667-4l-16-22L254.667,348.001z"></path><path style="fill:none;stroke:#FFFFFF;stroke-linecap:round;stroke-linejoin:round;stroke-dasharray:1 2;" d="M256.833,348.501c0,0,18,25.833,25,33.166"></path></g><g><g><path style="fill:#FFFFFF;stroke:#000000;stroke-linecap:round;stroke-linejoin:round;" d="M262.474,360.355c0.13,0.261,0.98,1.6,0.98,1.6l-1.078,0.718l0.947,1.503l-1.502,1.241l-1.11-1.633l-1.372,0.849l-1.046-1.566l1.503-0.979l-1.046-1.698l1.47-1.013l1.241,1.796L262.474,360.355z"></path><path style="fill:#3F3C3F;" d="M262.765,361.256c-0.062-0.089-0.183-0.11-0.272-0.049l-1.326,0.918l-1.197-1.905c-0.058-0.092-0.179-0.12-0.271-0.063s-0.119,0.179-0.062,0.271l1.207,1.921l-1.747,1.21c-0.089,0.061-0.111,0.183-0.049,0.272c0.061,0.088,0.183,0.11,0.272,0.049l1.732-1.199l1.19,1.893c0.057,0.092,0.178,0.119,0.27,0.063c0.092-0.058,0.119-0.179,0.063-0.271l-1.2-1.908l1.341-0.929C262.805,361.467,262.826,361.346,262.765,361.256z"></path></g><g><path style="fill:#FFFFFF;stroke:#000000;stroke-linecap:round;stroke-linejoin:round;" d="M266.379,365.672c0.146,0.252,1.083,1.532,1.083,1.532l-1.029,0.787l1.044,1.438l-1.418,1.337l-1.215-1.557l-1.313,0.937l-1.146-1.494l1.436-1.076l-1.155-1.626l1.4-1.106l1.356,1.71L266.379,365.672z"></path><path style="fill:#3F3C3F;" d="M266.728,366.552c-0.066-0.085-0.189-0.099-0.274-0.031l-1.264,1.003l-1.319-1.823c-0.063-0.087-0.187-0.107-0.273-0.044c-0.088,0.063-0.107,0.186-0.044,0.273l1.33,1.838l-1.664,1.322c-0.085,0.065-0.1,0.189-0.031,0.274c0.066,0.084,0.189,0.099,0.275,0.031l1.65-1.311l1.312,1.811c0.063,0.088,0.186,0.107,0.273,0.045c0.087-0.063,0.106-0.186,0.044-0.273l-1.322-1.826l1.277-1.015C266.781,366.76,266.795,366.637,266.728,366.552z"></path></g><g><path style="fill:#FFFFFF;stroke:#000000;stroke-linecap:round;stroke-linejoin:round;" d="M270.749,370.646c0.183,0.228,1.302,1.352,1.302,1.352l-0.899,0.934l1.249,1.264l-1.2,1.535l-1.436-1.355l-1.157,1.124l-1.358-1.305l1.258-1.28l-1.388-1.434l1.218-1.305l1.599,1.486L270.749,370.646z"></path><path style="fill:#3F3C3F;" d="M271.227,371.463c-0.079-0.073-0.202-0.068-0.276,0.011l-1.098,1.182l-1.579-1.604c-0.076-0.076-0.201-0.078-0.277-0.002c-0.077,0.076-0.078,0.199-0.002,0.276l1.592,1.617l-1.446,1.558c-0.074,0.077-0.069,0.202,0.011,0.276c0.078,0.072,0.202,0.068,0.277-0.011l1.434-1.544l1.569,1.592c0.075,0.077,0.2,0.078,0.277,0.003c0.076-0.075,0.077-0.199,0.002-0.276l-1.582-1.606l1.109-1.195C271.311,371.661,271.306,371.537,271.227,371.463z"></path></g></g></g></g></g></svg>