<svg xmlns="http://www.w3.org/2000/svg" width="500" height="500" version="1.1"><g id="x9113"><g><path style="fill:#6E6E6E;stroke:#000000;stroke-linecap:round;stroke-linejoin:round;" d="M283.75,356.75c0,0-11.5,1.25-33.75,1.25s-33.75-1.25-33.75-1.25s-2.25,6.25-3,15.75c4.75,2.25,33.25,3.5,33.25,3.5l2-2.75h3l2,2.75c0,0,28.5-1.25,33.25-3.5C286,363,283.75,356.75,283.75,356.75z"></path><g><line style="fill:none;stroke:#000000;stroke-linecap:round;stroke-linejoin:round;" x1="279.188" y1="367.75" x2="280.063" y2="373.75"></line><line style="fill:none;stroke:#000000;stroke-linecap:round;stroke-linejoin:round;" x1="220.813" y1="367.75" x2="219.938" y2="373.75"></line></g><path style="fill:#505050;" d="M257.833,372.501c-0.167-0.5,3-5.167,3-5.167L250,369.5l-10.833-2.166c0,0,3.167,4.667,3,5.167c-0.166,0.5-2.667,1.249-7.083,2.166c0.166,0.25,11.583,0.834,11.583,0.834l1.417-2.5l1.916-0.167l1.916,0.167l1.417,2.5c0,0,11.417-0.584,11.583-0.834C260.5,373.75,258,373.001,257.833,372.501z"></path><path style="fill:none;stroke:#000000;stroke-linecap:round;stroke-linejoin:round;" d="M228,359.201c0,0,6.5,1,22,1s22-1,22-1"></path><circle style="fill:#6E6E6E;stroke:#000000;stroke-linecap:round;stroke-linejoin:round;" cx="252" cy="363.125" r="1.563"></circle><g><path style="fill:#36363E;stroke:#000000;stroke-linecap:round;stroke-linejoin:round;" d="M216.125,356.75l0.75,3.25c1.25,0.25,4.5,0.25,4.5,0.25l-0.25,2.25l-3,0.25c0,0,1,4.25,2.75,5c0.5-1.75,1.25-3.5,1.25-3.5l4.25-3.25l-0.75-3.697L216.125,356.75z"></path><path style="fill:#36363E;stroke:#000000;stroke-linecap:round;stroke-linejoin:round;" d="M283.875,356.75l-0.75,3.25c-1.25,0.25-4.5,0.25-4.5,0.25l0.25,2.25l3,0.25c0,0-1,4.25-2.75,5c-0.5-1.75-1.25-3.5-1.25-3.5l-4.25-3.25l0.75-3.697L283.875,356.75z"></path></g><g><path style="fill:none;stroke:#000000;stroke-linecap:round;stroke-linejoin:round;" d="M277.75,358l0.75,4.102c1.75,0.5,4.75,1.25,4.75,1.25s1.5,6.648,1.5,9.148"></path><path style="fill:none;stroke:#000000;stroke-linecap:round;stroke-linejoin:round;" d="M222,358l-0.75,4.102c-1.75,0.5-4.75,1.25-4.75,1.25S215,370,215,372.5"></path></g><g><path style="fill:#6E6E6E;stroke:#000000;stroke-linecap:round;stroke-linejoin:round;" d="M237.75,366.25c0,0,9,6.75,10.5,7"></path><path style="fill:#6E6E6E;stroke:#000000;stroke-linecap:round;stroke-linejoin:round;" d="M262.25,366.25c0,0-9,6.75-10.5,7"></path></g></g></g></svg>