<svg xmlns="http://www.w3.org/2000/svg" width="500" height="500" version="1.1"><g id="x9114"><g><path style="fill:#6E6E6E;stroke:#000000;stroke-linecap:round;stroke-linejoin:round;" d="M287.666,379.334c-1.826-9.294-3.967-19.789-4.504-23.667h-66.324c-0.538,3.878-2.679,14.373-4.505,23.667c-3.667,8.334-2.534,12.766-2.667,16c-0.037,0.888,7.472,5.365,10.057,7.181c0.081,0.932,0.161,1.848,0.241,2.735c0,0,3.235,2.25,11.235,2.25s11.28-2.25,11.28-2.25c0.025-0.998,0.05-2.021,0.076-3.05L243,402c0,0,2.875-2.625,3.75-5.5c-2-5.25-2.75-10.625-3.25-13l-0.055-0.025c1.268-4.879,4.62-10.715,4.62-10.715h3.871c0,0,3.352,5.836,4.619,10.715L256.5,383.5c-0.5,2.375-1.25,7.75-3.25,13c0.875,2.875,3.75,5.5,3.75,5.5l0.443,0.2c0.026,1.028,0.052,2.052,0.076,3.05c0,0,3.28,2.25,11.28,2.25s11.235-2.25,11.235-2.25c0.08-0.888,0.16-1.804,0.24-2.735c2.586-1.815,10.094-6.293,10.058-7.181C290.2,392.1,291.333,387.668,287.666,379.334z"></path><line style="fill:#6E6E6E;stroke:#000000;stroke-linecap:round;stroke-linejoin:round;" x1="217.125" y1="359.125" x2="282.875" y2="359.125"></line><g><path style="fill:#505050;" d="M229.25,406.75c0,0-4.875-1.75-4.75-2.375s2.75-3.5,4-4s7.75,2.375,7.375,3.125S231.125,406,229.25,406.75z"></path><path style="fill:#505050;" d="M220.25,402.188l0.188,2.75c0,0,2.875,2.063,10.438,2.063s11.25-1.938,11.25-1.938l0.063-3.125c0,0,2.188-1.563,2.625-2.5c-3.75,1-2.5,3.813-12.688,3.813S220.25,402.188,220.25,402.188z"></path><path style="fill:#505050;" d="M247.5,372.75c0,0-3.5,6.5-4.5,10.625c0.375,2.875,2.75,12.5,3.25,13c-0.25,0.875-1.75,4-2,4.125s-9,4.25-9,4.25s4.875-7.375,5-9.5s-2.75-11.75-2.75-12.75s4.625-8.375,4.625-8.375s-3.625-3.25-3.5-7.5C241.125,369.25,247.5,372.75,247.5,372.75z"></path><path style="fill:none;stroke:#000000;stroke-linecap:round;stroke-linejoin:round;" d="M246.167,371.665L240,383.331c0,0,1.5,11.667,2.667,14c0.167,0.833-2.667,4.834-2.667,4.834l0.125,3.96"></path><path style="fill:none;stroke:#000000;stroke-linecap:round;stroke-linejoin:round;stroke-dasharray:1 2;" d="M244.417,370.833c0,0-6.667,11.25-6.584,12.498s1.334,10.336,2.167,13.919c0.167,1.667-2.583,5.917-2.583,5.917l0.208,3.208"></path><path style="fill:#505050;" d="M270.75,406.75c0,0,4.875-1.75,4.75-2.375s-2.75-3.5-4-4s-7.75,2.375-7.375,3.125S268.875,406,270.75,406.75z"></path><path style="fill:#505050;" d="M279.75,402.188l-0.188,2.75c0,0-2.875,2.063-10.438,2.063s-11.25-1.938-11.25-1.938l-0.063-3.125c0,0-2.188-1.563-2.625-2.5c3.75,1,2.5,3.813,12.688,3.813S279.75,402.188,279.75,402.188z"></path><path style="fill:#505050;" d="M252.5,372.75c0,0,3.5,6.5,4.5,10.625c-0.375,2.875-2.75,12.5-3.25,13c0.25,0.875,1.75,4,2,4.125s9,4.25,9,4.25s-4.875-7.375-5-9.5s2.75-11.75,2.75-12.75s-4.625-8.375-4.625-8.375s3.625-3.25,3.5-7.5C258.875,369.25,252.5,372.75,252.5,372.75z"></path><path style="fill:none;stroke:#000000;stroke-linecap:round;stroke-linejoin:round;" d="M253.833,371.665L260,383.331c0,0-1.5,11.667-2.667,14c-0.167,0.833,2.667,4.834,2.667,4.834l-0.125,3.96"></path><path style="fill:none;stroke:#000000;stroke-linecap:round;stroke-linejoin:round;stroke-dasharray:1 2;" d="M255.583,370.833c0,0,6.667,11.25,6.584,12.498s-1.334,10.336-2.167,13.919c-0.167,1.667,2.583,5.917,2.583,5.917l-0.208,3.208"></path></g><g><path style="fill:none;stroke:#000000;stroke-linecap:round;stroke-linejoin:round;" d="M240.942,368.833c0.25,0.084,5.833,3,7.167,3.667"></path><path style="fill:none;stroke:#000000;stroke-linecap:round;stroke-linejoin:round;" d="M259.058,368.833c-0.25,0.084-5.833,3-7.167,3.667"></path></g></g></g></svg>