<svg xmlns="http://www.w3.org/2000/svg" width="500" height="500" version="1.1"><g id="x9115"><g><g><g><path style="fill:#6E6E6E;stroke:#000000;stroke-linecap:round;stroke-linejoin:round;" d="M282.11,348.25h-64.22c-3.567,14.1,0.037,28.728,0.037,30.898c0,0.748,1.316,14.517,1.841,21.195c-0.738,1.184,0.086,11.352,0.79,12.912c0.449,4.135,0.266,10.327,0.196,14.119h-0.004l-0.125,3.25c0,0,3.25,2.375,10.875,2.375c7.875,0,11.25-1.5,11.25-1.5l-0.317-2.646c0.225-6.448,0.9-27.168,0.314-27.837c0.026-3.618,0.106-13.185,0.234-14.969c0.362-5.084,5.083-13.288,5.083-13.288h3.871c0,0,4.721,8.204,5.083,13.288c0.128,1.783,0.208,11.35,0.233,14.968c-0.585,0.668-0.002,27.859-0.002,27.859v2.625c0,0,3.375,1.5,11.25,1.5c7.625,0,10.875-2.375,10.875-2.375l-0.125-3.25h-0.002c-0.069-3.792-0.253-9.986,0.195-14.122c0.704-1.561,1.527-11.725,0.79-12.907c0.524-6.678,1.841-20.449,1.841-21.197C282.074,376.978,285.678,362.35,282.11,348.25z"></path><g><g><path style="fill:#BAA16E;" d="M225.773,354.06c0,0,0.746,8.718,0,11.329c-1.259,4.406-7.081,8.656-8.182,8.813c-0.158-1.889-0.158-2.676-0.158-2.676l5.35-17.308L225.773,354.06z"></path><path style="fill:#303136;stroke:#000000;stroke-linecap:round;stroke-linejoin:round;" d="M223.767,353.833c0,0,0.666,8.333-0.167,11S216.933,372,216.933,372s-2.667-11.5,0-18.5C221.766,353.5,223.767,353.833,223.767,353.833z"></path><g><path style="fill:#BAA16E;" d="M226.796,354.094c0.167,1.51,0.866,8.457-0.02,11.623c-1.475,5.267-7.496,8.759-8.924,9.522l0.119,1.054l0.004,0.009c0.325-0.157,7.974-3.922,9.764-10.315c0.925-3.303,0.26-10.114,0.064-11.893H226.796z"></path></g></g><g><path style="fill:#BAA16E;" d="M274.229,354.06c0,0-0.746,8.718,0,11.329c1.26,4.406,7.08,8.656,8.182,8.813c0.158-1.889,0.158-2.676,0.158-2.676l-5.35-17.308L274.229,354.06z"></path><path style="fill:#303136;stroke:#000000;stroke-linecap:round;stroke-linejoin:round;" d="M276.234,353.833c0,0-0.666,8.333,0.168,11c0.832,2.667,6.666,7.167,6.666,7.167s2.666-11.5,0-18.5C278.236,353.5,276.234,353.833,276.234,353.833z"></path><g><path style="fill:#BAA16E;" d="M273.205,354.094c-0.166,1.51-0.865,8.457,0.02,11.623c1.475,5.267,7.496,8.759,8.924,9.522l-0.117,1.054l-0.006,0.009c-0.324-0.157-7.973-3.922-9.764-10.315c-0.924-3.303-0.26-10.114-0.063-11.893H273.205z"></path></g></g></g><g><path style="fill:none;stroke:#000000;stroke-linecap:round;stroke-linejoin:round;" d="M228.333,354.333c0,0,2.333,42.667,2.333,45.667s-0.333,12.999,0,14.333s0.333,17,0.333,17"></path><path style="fill:none;stroke:#000000;stroke-linecap:round;stroke-linejoin:round;" d="M271.667,354.333c0,0-2.334,42.667-2.334,45.667s0.334,12.999,0,14.333s-0.334,17-0.334,17"></path></g><g><g><path style="fill:none;stroke:#000000;stroke-linecap:round;stroke-linejoin:round;" d="M253.833,359.334"></path></g><g><path style="fill:none;stroke:#000000;stroke-linecap:round;stroke-linejoin:round;" d="M246.167,359.334"></path></g></g><g><line style="fill:none;stroke:#000000;stroke-linecap:round;stroke-linejoin:round;" x1="217.417" y1="353.667" x2="282.583" y2="353.667"></line></g></g><path style="fill:#505050;" d="M262.834,366.834c-2,0.333-12.834,1.5-12.834,1.5s-10.834-1.167-12.834-1.5c3.167,3.833,6.667,5.667,6.667,5.667l-1.5,12c0,0,1.833-5.334,2.833-7.167s2.834-5.167,2.834-5.167l2,0.167l2-0.167c0,0,1.834,3.334,2.834,5.167s2.834,7.167,2.834,7.167l-1.5-12C256.168,372.501,259.668,370.667,262.834,366.834z"></path><g><polyline style="fill:none;stroke:#000000;stroke-linecap:round;stroke-linejoin:round;" points="246.718,354.334 246.884,369.001 248.282,372.76 "></polyline><polyline style="fill:none;stroke:#000000;stroke-linecap:round;stroke-linejoin:round;" points="253.282,354.334 253.116,369.001 251.718,372.76 "></polyline></g></g><g><g><polygon style="fill:#BAA16E;stroke:#000000;stroke-linecap:round;stroke-linejoin:round;" points="272.152,359.453 271.854,356.619 274.359,356.596 273.936,359.386 275.813,359.068 275.85,361.692 274.158,361.512 274.42,363.992 271.891,363.78 272.27,361.71 270.641,362.12 270.318,359.05 "></polygon><polygon style="fill:#BAA16E;stroke:#000000;stroke-linecap:round;stroke-linejoin:round;" points="261.484,359.453 261.186,356.619 263.691,356.596 263.268,359.386 265.146,359.068 265.182,361.692 263.492,361.512 263.752,363.992 261.223,363.78 261.602,361.71 259.975,362.12 259.65,359.05 "></polygon><polygon style="fill:#BAA16E;stroke:#000000;stroke-linecap:round;stroke-linejoin:round;" points="236.652,359.453 236.353,356.619 238.859,356.596 238.435,359.386 240.313,359.068 240.349,361.692 238.659,361.512 238.919,363.992 236.39,363.78 236.769,361.71 235.141,362.12 234.818,359.05 "></polygon><polygon style="fill:#BAA16E;stroke:#000000;stroke-linecap:round;stroke-linejoin:round;" points="225.985,359.453 225.686,356.619 228.192,356.596 227.768,359.386 229.646,359.068 229.682,361.692 227.992,361.512 228.252,363.992 225.723,363.78 226.102,361.71 224.474,362.12 224.151,359.05 "></polygon></g><g><rect x="217" y="349.625" style="stroke:#000000;stroke-linecap:round;stroke-linejoin:round;" width="66" height="6.125"></rect><g><g><g><g><path style="fill:#7C6A53;stroke:#000000;stroke-linecap:round;stroke-linejoin:round;" d="M248.875,359.594c0,0-3.938,0.5-5.75,1.688c1-3.25,0.938-6.375,0.938-6.375l3.688,0.313L248.875,359.594z"></path><line style="fill:none;stroke:#000000;stroke-linecap:round;stroke-linejoin:round;" x1="244.25" y1="359.906" x2="247.063" y2="356.156"></line></g><g><path style="fill:#7C6A53;stroke:#000000;stroke-linecap:round;stroke-linejoin:round;" d="M251.125,359.594c0,0,3.938,0.5,5.75,1.688c-1-3.25-0.938-6.375-0.938-6.375l-3.688,0.313L251.125,359.594z"></path><line style="fill:none;stroke:#000000;stroke-linecap:round;stroke-linejoin:round;" x1="255.75" y1="359.906" x2="252.938" y2="356.156"></line></g></g><g><g><path style="fill:#7C6A53;stroke:#000000;stroke-linecap:round;stroke-linejoin:round;" d="M251.125,346.344c0,0,3.938-0.5,5.75-1.688c-1,3.25-0.938,6.375-0.938,6.375l-3.688-0.313L251.125,346.344z"></path><line style="fill:none;stroke:#000000;stroke-linecap:round;stroke-linejoin:round;" x1="255.75" y1="346.031" x2="252.938" y2="349.781"></line></g><g><path style="fill:#7C6A53;stroke:#000000;stroke-linecap:round;stroke-linejoin:round;" d="M248.875,346.344c0,0-3.938-0.5-5.75-1.688c1,3.25,0.938,6.375,0.938,6.375l3.688-0.313L248.875,346.344z"></path><line style="fill:none;stroke:#000000;stroke-linecap:round;stroke-linejoin:round;" x1="244.25" y1="346.031" x2="247.063" y2="349.781"></line></g></g></g><g><path style="fill:#BAA16E;stroke:#000000;stroke-linecap:round;stroke-linejoin:round;" d="M257.375,350.281c-1.688,0.125-3.625,0.438-4.25-1.125s-0.063-4.938-0.063-4.938h-6.125c0,0,0.563,3.375-0.063,4.938s-2.563,1.25-4.25,1.125c-0.25,1,0,4.938,0,4.938s1.25-0.188,3.875,1.25s1.25,5.25,1.25,5.25h4.5c0,0-1.375-3.813,1.25-5.25s3.875-1.25,3.875-1.25S257.625,351.281,257.375,350.281z"></path><g><path style="fill:#F0E689;" d="M243.375,351.5c0,0-0.125,2.25,0,2.875c0.75-0.25,2.875-0.875,2.875-0.875v-2.25L243.375,351.5z"></path><path style="fill:#F0E689;" d="M256.971,351.5c0,0,0.125,2.25,0,2.875c-0.75-0.25-2.875-0.875-2.875-0.875v-2.25L256.971,351.5z"></path></g><g><path style="fill:#BAA16E;stroke:#000000;stroke-linecap:round;stroke-linejoin:round;" d="M251.688,353.656c-0.208-0.286-0.229-0.515-0.186-0.688c-0.043-0.173-0.022-0.401,0.186-0.688c0.5-0.688,1.688,0.063,1.688,0.063c0-0.188,0-2.625-2.563-2.813c0.438,0.938,0.25,2.125-0.813,2.125s-1.25-1.188-0.813-2.125c-2.563,0.188-2.563,2.625-2.563,2.813c0,0,1.188-0.75,1.688-0.063c0.208,0.286,0.229,0.515,0.186,0.688c0.043,0.173,0.022,0.401-0.186,0.688c-0.5,0.688-1.688-0.063-1.688-0.063c0,0.188,0,2.625,2.563,2.813c-0.438-0.938-0.25-2.125,0.813-2.125s1.25,1.188,0.813,2.125c2.563-0.188,2.563-2.625,2.563-2.813C253.375,353.594,252.188,354.344,251.688,353.656z"></path><circle style="fill:#BAA16E;stroke:#000000;stroke-linecap:round;stroke-linejoin:round;" cx="250" cy="352.969" r="0.844"></circle></g></g></g><g><g><path style="fill:#6E6E6E;stroke:#000000;stroke-linecap:round;stroke-linejoin:round;" d="M239.31,356.75c-0.125-3.125,0.125-7.5,0.125-7.5s-2.75-0.25-3.75,0.125c-0.75,3.75-0.125,7.375-0.125,7.375H239.31z"></path><path style="fill:#6E6E6E;stroke:#000000;stroke-linecap:round;stroke-linejoin:round;" d="M225.06,356.75c0,0-0.625-3.625,0.125-7.375c1-0.375,3.75-0.125,3.75-0.125s-0.25,4.375-0.125,7.5H225.06z"></path></g><g><path style="fill:#6E6E6E;stroke:#000000;stroke-linecap:round;stroke-linejoin:round;" d="M264.44,356.75c0,0,0.625-3.625-0.125-7.375c-1-0.375-3.75-0.125-3.75-0.125s0.25,4.375,0.125,7.5H264.44z"></path><path style="fill:#6E6E6E;stroke:#000000;stroke-linecap:round;stroke-linejoin:round;" d="M274.94,356.75c0,0,0.625-3.625-0.125-7.375c-1-0.375-3.75-0.125-3.75-0.125s0.25,4.375,0.125,7.5H274.94z"></path></g></g></g></g></g></g></svg>