<svg xmlns="http://www.w3.org/2000/svg" width="500" height="500" version="1.1"><g id="x9116"><g><g><path style="fill:#6E6E6E;stroke:#000000;stroke-linecap:round;stroke-linejoin:round;" d="M282.832,351.667c-0.854,0.077-17.777-1.445-31.333-0.917c-0.651,1.031-1.174,2.61-1.5,3.624v19.865c0.9-0.039,1.997-0.022,2.25,0.261c1.469,1.641,2.583,8.5,2.583,8.5l1.728,19.142l0.748,25.44c0,0-1.35,4.967-1.329,5.567s1.662,3.093,1.662,3.093s-0.892,1.258-0.997,1.856c0.272,0.901,2.105,3.526,2.105,3.526s6.325-2.754,7.875-2.5s10,3.125,10,3.125s1.684-1.628,2.029-2.605c-0.404-0.478-1.079-2.783-1.079-2.783s1.758-1.361,1.993-1.547c0.099-1.064-0.734-3.272-0.734-3.272c0.997-6.805,3.06-29.514,3.06-29.514s1.329-14.538,2.657-26.602C285.878,363.864,282.832,351.667,282.832,351.667z"></path><path style="fill:#505050;" d="M256.541,433.25l10.125-11.667l1.875,4.375l3.667,3.542c0,0-10.751,2.917-14.417,6.25L256.541,433.25z"></path><path style="fill:#505050;" d="M266.187,434.438l7.625-3l5.063,3.875l-2.563,0.313C276.312,435.625,268.874,433.813,266.187,434.438z"></path><polygon style="fill:#505050;" points="251.166,373.166 255.582,369.02 261.52,366.895 252.396,373.458 "></polygon><polygon style="fill:#505050;" points="253.771,372.302 268.458,369.771 253.771,375.896 252.937,374.094 251.812,373.156 "></polygon><path style="fill:#505050;" d="M280.957,407.751c0,0-7.583,13.082-7.624,13.291c-0.25,1.916,4.666,9.208,4.666,9.208l0.625,0.375L280.957,407.751z"></path><path style="fill:#505050;" d="M257.166,401.333c0,0,4.916,6.834,4.916,7.417c0,2.834-3.083,13.916-3.083,13.916l-1.167,4.584l-0.5-18.333L257.166,401.333z"></path><g><g><path style="fill:#5EBCA4;" d="M282.374,352.181c2.688,9.411,2.063,19.606,2.063,19.606l-0.438,5.282l-2.291,23.854l-10.375-5.917c-0.166-6.204-3.626-43.67-3.626-43.67l7.917,0.415L282.374,352.181z"></path><g><path style="fill:#FFFFFF;" d="M272.368,394.146l-4.452-42.81l-2.625-0.086l5.173,43.856l11.035,7.804c0.084-0.778,0.209-1.852,0.209-2.593L272.368,394.146z"></path></g><g><path style="fill:#C49953;" d="M273.465,393.583l-4.508-42.159l-1.458-0.13l4.505,42.72l0.031,0.296l9.673,6.613c0-0.61,0.083-1.451,0.125-1.642L273.465,393.583z"></path></g><g><path style="fill:#C49953;" d="M270.463,395.019l-4.797-43.725l-1.375-0.044l4.744,44.498l12.339,8.587c0-0.539,0.084-1.181,0.084-1.771L270.463,395.019z"></path></g></g><path style="fill:#C49953;" d="M280.518,403.551c0,0,0.836,2.043-0.664,1.979c-0.413,0.033-1.057,0.039-1.625-0.129c-0.677-0.196-1-0.446-1-0.446s-0.25,3.063,2.688,2.744l-0.512,1.895l1.095,2.699l0.959-8.649L280.518,403.551z"></path></g><line style="fill:none;stroke:#000000;stroke-linecap:round;stroke-linejoin:round;" x1="274.958" y1="425.833" x2="278.458" y2="431.375"></line><polyline style="fill:none;stroke:#000000;stroke-linecap:round;stroke-linejoin:round;" points="275.999,437.246 270.749,434.443 263.916,434.757 "></polyline><polyline style="fill:none;stroke:#000000;stroke-linecap:round;stroke-linejoin:round;" points="268.832,430.833 262.749,432.875 257.999,435.775 "></polyline><g><g><path style="fill:#E1E1E1;" d="M284.291,363.457c0,0-8.844,7.749-10.515,11.063l-1.226,1.949c0,0,8.025-9.243,11.823-11.93L284.291,363.457z"></path><g><g><path style="fill:#E1E1E1;" d="M281.479,376.413l-0.399-0.3c-0.095-0.071-2.323-1.776-2.505-4.373c-0.113-1.618,0.599-3.207,2.114-4.721l0.128-0.127l0.16,0.08c0.025,0.013,2.492,1.287,1.462,4.324c-0.945,2.786-0.959,4.599-0.959,4.616L281.479,376.413z M280.907,367.51c-1.315,1.363-1.933,2.773-1.834,4.192c0.121,1.751,1.313,3.098,1.936,3.687c0.064-0.745,0.274-2.243,0.957-4.252C282.723,368.903,281.382,367.814,280.907,367.51z"></path></g><g><path style="fill:#E1E1E1;" d="M280.61,375.813c-2.153-2.075-0.149-8.198-0.063-8.458l0.475,0.158c-0.021,0.061-1.992,6.082-0.063,7.94L280.61,375.813z"></path></g></g><g><path style="fill:#E1E1E1;" d="M281.461,365.416L281.461,365.416c-2.349,0-4.168-2.584-4.244-2.694l-0.188-0.271l0.313-0.107c1.085-0.374,2.073-0.563,2.938-0.563c3.053,0,3.659,2.349,3.665,2.373l0.035,0.144l-0.11,0.101C283.123,365.073,282.313,365.416,281.461,365.416z M277.834,362.706c0.521,0.643,1.961,2.21,3.627,2.21c0.68,0,1.336-0.264,1.952-0.785c-0.169-0.457-0.87-1.852-3.134-1.852C279.557,362.279,278.736,362.423,277.834,362.706z"></path></g><g><path style="fill:#E1E1E1;" d="M277.554,368.758C277.553,368.758,277.554,368.758,277.554,368.758c-2.65,0-4.875-2.657-4.968-2.771l-0.473-0.572l0.723,0.17l0,0c0,0,0.759,0.146,2.495-0.306c0.512-0.181,1.045-0.276,1.563-0.276c2.359,0,3.703,1.909,3.76,1.991l0.114,0.166l-0.139,0.147C279.72,368.27,278.685,368.758,277.554,368.758z M273.379,366.106c0.737,0.738,2.383,2.151,4.174,2.151c0.929,0,1.79-0.384,2.563-1.141c-0.366-0.438-1.51-1.614-3.222-1.614c-0.462,0-0.939,0.086-1.418,0.254C274.494,366.013,273.813,366.091,273.379,366.106z"></path></g><g><path style="fill:#E1E1E1;" d="M275.928,380.538l-0.372-0.577c-0.028-0.044-2.8-4.443,0.422-8.026l0.217-0.241l0.178,0.271c0.087,0.133,2.126,3.276,0.922,4.835c-1.057,1.365-1.278,3.04-1.28,3.057L275.928,380.538z M276.131,372.524c-2.044,2.53-1.056,5.377-0.473,6.582c0.17-0.661,0.527-1.692,1.24-2.613C277.637,375.538,276.716,373.517,276.131,372.524z"></path></g><g><path style="fill:#E1E1E1;" d="M275.028,371.931L275.028,371.931c-1.524,0-3.136-1.155-3.203-1.205l-0.957-0.693l1.156,0.247c0.066-0.003,0.511-0.034,1.807-0.643c0.308-0.145,0.625-0.217,0.945-0.217c1.271,0,2.152,1.134,2.188,1.183l0.107,0.14l-0.096,0.147C276.531,371.58,275.876,371.931,275.028,371.931z M272.645,370.652c0.569,0.327,1.512,0.778,2.384,0.778c0.61,0,1.077-0.216,1.421-0.661c-0.252-0.271-0.886-0.85-1.673-0.85c-0.246,0-0.492,0.057-0.732,0.17C273.416,370.384,272.966,370.555,272.645,370.652z"></path></g></g><g><path style="fill:#FFFFFF;" d="M280.688,360.23c0,0-1.968,1.723,0.327,2.689C281.016,362.92,282.786,361.325,280.688,360.23z"></path><path style="fill:#FFFFFF;" d="M281.735,363.578c0,0-0.063-1.158,2.229-1.609l-0.327,1.289C283.638,363.258,282.72,364.351,281.735,363.578z"></path><path style="fill:#FFFFFF;" d="M280.229,363.578c0,0-1.77-1.673-2.949,0.129C277.28,363.707,278.46,365.251,280.229,363.578z"></path><path style="fill:#FFFFFF;" d="M280.753,364.368c0,0-2.851,0.788-1.244,2.51C279.509,366.878,281.147,366.493,280.753,364.368z"></path><path style="fill:#FFFFFF;" d="M281.441,364.239c0,0,2.359,0.514,1.77,2.06C283.211,366.299,280.589,366.493,281.441,364.239z"></path><ellipse style="fill:#FFFF00;" cx="281.016" cy="363.771" rx="0.868" ry="0.853"></ellipse></g><g><path style="fill:#FFFFFF;" d="M270.312,363.869c0,0,5.774,6.942,6.528,10.537c0,0-2.544-4.257-3.354-5.251c-0.861-1.057-2.852-3.542-2.852-3.542L270.312,363.869z"></path><path style="fill:#FFFFFF;" d="M271.926,365.998c0,0,0.718-0.646,1.256-0.614c0.538,0.03,2.511,0.951,2.511,0.951S273.145,367.041,271.926,365.998z"></path><path style="fill:#FFFFFF;" d="M273.685,368.677c0,0,0.718-0.646,1.256-0.614c0.537,0.03,2.511,0.952,2.511,0.952S274.903,369.721,273.685,368.677z"></path><path style="fill:#FFFFFF;" d="M275.477,371.565c0,0,0.677-0.608,1.186-0.578c0.507,0.029,2.367,0.896,2.367,0.896S276.627,372.547,275.477,371.565z"></path><path style="fill:#FFFFFF;" d="M271.458,366.239c0,0-0.824,0.511-0.935,1.029c-0.112,0.519,0.274,2.63,0.274,2.63S272.161,367.669,271.458,366.239z"></path><path style="fill:#FFFFFF;" d="M273.229,368.47c0,0-0.823,0.51-0.934,1.028c-0.112,0.52,0.273,2.631,0.273,2.631S273.933,369.899,273.229,368.47z"></path><path style="fill:#FFFFFF;" d="M275.058,371.354c0,0-0.776,0.481-0.881,0.97c-0.104,0.489,0.258,2.479,0.258,2.479S275.719,372.7,275.058,371.354z"></path><path style="fill:#FFFFFF;" d="M276.65,373.934c0,0-0.542,0.509-0.546,0.917c-0.003,0.407,0.613,1.944,0.613,1.944S277.401,374.908,276.65,373.934z"></path></g><g><path style="fill:#E1E1E1;" d="M279.874,352.031c-2.869,2.13-6.547,4.968-7.709,6.743l-1.359,1.696c0,0,5.836-5.332,10.1-8.408C280.347,352.063,280.062,352.094,279.874,352.031z"></path><g><g><path style="fill:#E1E1E1;" d="M279.523,361.163l-0.365-0.31c-0.086-0.074-2.118-1.831-2.078-4.242c0.025-1.503,0.854-2.909,2.459-4.179l0.135-0.105l0.15,0.087c0.024,0.014,2.325,1.396,1.065,4.11c-1.156,2.491-1.322,4.162-1.323,4.179L279.523,361.163z M279.713,352.902c-1.398,1.148-2.119,2.396-2.143,3.716c-0.027,1.625,1.023,2.965,1.581,3.562c0.124-0.683,0.455-2.047,1.29-3.843C281.366,354.341,280.149,353.224,279.713,352.902z"></path></g><g><path style="fill:#E1E1E1;" d="M278.728,360.538c-1.928-2.094,0.541-7.574,0.646-7.807l0.45,0.186c-0.024,0.054-2.454,5.443-0.728,7.319L278.728,360.538z"></path></g></g><g><path style="fill:#E1E1E1;" d="M279.509,352.408c-0.02-0.033-0.115-0.066-0.489-0.449c0,0-0.4-0.1-0.5,0c0.146,0.156,0.38,0.417,0.454,0.517c-0.819,0.634-1.692,0.915-2.599,0.838c-1.096-0.094-2.251-1.027-3.001-1.646c-0.146-0.021-0.561-0.063-0.792-0.063c0.833,0.771,2.307,2.046,3.753,2.17c0.001,0,0,0,0.001,0c1.103,0.096,2.153-0.269,3.122-1.08l0.147-0.124L279.509,352.408z"></path></g><g><path style="fill:#E1E1E1;" d="M273.76,364.505l-0.314-0.564c-0.023-0.042-2.359-4.331,1.085-7.368l0.231-0.203l0.151,0.264c0.073,0.131,1.8,3.201,0.494,4.538c-1.146,1.171-1.503,2.696-1.507,2.712L273.76,364.505z M274.629,357.13c-2.205,2.163-1.479,4.872-1.011,6.031c0.221-0.595,0.655-1.517,1.429-2.307C275.848,360.036,275.118,358.095,274.629,357.13z"></path></g><g><path style="fill:#E1E1E1;" d="M273.604,356.49L273.604,356.49c-1.488-0.127-2.966-1.327-3.025-1.379l-0.876-0.72l1.107,0.325c0.064,0.002,0.501,0.011,1.817-0.442c0.313-0.107,0.628-0.148,0.94-0.122c1.241,0.107,2.006,1.226,2.038,1.274l0.092,0.138l-0.104,0.128C275.1,356.293,274.432,356.561,273.604,356.49z M271.384,355.112c0.528,0.35,1.41,0.844,2.262,0.916c0.597,0.051,1.07-0.108,1.442-0.49c-0.223-0.271-0.794-0.858-1.561-0.924c-0.241-0.021-0.485,0.011-0.73,0.096C272.16,354.929,271.706,355.049,271.384,355.112z"></path></g></g><g><path style="fill:#FFFFFF;" d="M275.163,358.926c-0.234-1.832-2.066-5.084-3.477-7.321c-0.167-0.021-0.54-0.083-0.833-0.083c0.466,0.657,1.158,1.835,1.478,2.28C273.038,354.786,275.163,358.926,275.163,358.926z"></path><path style="fill:#FFFFFF;" d="M272.564,353.376c0,0,0.755-0.535,1.277-0.461c0.522,0.073,2.371,1.088,2.371,1.088S273.667,354.442,272.564,353.376z"></path><path style="fill:#FFFFFF;" d="M274.072,356.19c0,0,0.711-0.504,1.206-0.433c0.491,0.068,2.234,1.021,2.234,1.021S275.112,357.191,274.072,356.19z"></path><path style="fill:#FFFFFF;" d="M270.603,351.48c0,0-0.833-0.094-0.984,0.375c-0.152,0.47,0.048,2.449,0.048,2.449S271.17,352.858,270.603,351.48z"></path><path style="fill:#FFFFFF;" d="M272.139,353.147c0,0-0.846,0.402-0.998,0.871c-0.153,0.47,0.047,2.449,0.047,2.449S272.705,354.524,272.139,353.147z"></path><path style="fill:#FFFFFF;" d="M273.681,355.961c0,0-0.798,0.379-0.94,0.819c-0.142,0.444,0.044,2.309,0.044,2.309S274.214,357.258,273.681,355.961z"></path><path style="fill:#FFFFFF;" d="M275.021,358.474c0,0-0.573,0.424-0.611,0.8c-0.037,0.375,0.436,1.845,0.436,1.845S275.671,359.435,275.021,358.474z"></path></g><g><g><path style="fill:#E1E1E1;" d="M283.624,380.667c0,0-7.828,6.926-9.387,10.021l-0.78,1.271c0,0,6.414-7.658,9.959-10.167L283.624,380.667z"></path><g><g><path style="fill:#E1E1E1;" d="M281.442,392.486l-0.399-0.3c-0.089-0.067-2.174-1.662-2.344-4.094c-0.106-1.516,0.56-3.003,1.979-4.42l0.128-0.127l0.161,0.08c0.023,0.012,2.338,1.209,1.372,4.058c-0.883,2.598-0.896,4.286-0.896,4.303L281.442,392.486z M280.896,384.164c-1.219,1.266-1.79,2.574-1.699,3.891c0.111,1.606,1.192,2.847,1.776,3.406c0.064-0.707,0.265-2.092,0.893-3.938C282.563,385.467,281.346,384.455,280.896,384.164z"></path></g><g><path style="fill:#E1E1E1;" d="M280.604,391.906c-2.017-1.945-0.145-7.67-0.063-7.913l0.475,0.158c-0.019,0.057-1.855,5.667-0.063,7.396L280.604,391.906z"></path></g></g><g><path style="fill:#E1E1E1;" d="M281.279,382.152L281.279,382.152c-2.157,0-3.779-2.372-3.847-2.473l-0.182-0.27l0.308-0.106c1.028-0.354,1.959-0.534,2.767-0.534c2.808,0,3.289,2.159,3.294,2.181l0.028,0.14l-0.105,0.097C282.836,381.827,282.074,382.152,281.279,382.152z M278.049,379.669c0.476,0.597,1.74,1.983,3.23,1.983c0.625,0,1.233-0.247,1.811-0.734c-0.144-0.419-0.739-1.648-2.765-1.648C279.658,379.27,278.894,379.403,278.049,379.669z"></path></g><g><path style="fill:#E1E1E1;" d="M277.762,385.324L277.762,385.324c-2.481,0-4.563-2.487-4.649-2.593l-0.473-0.572l0.723,0.17l0,0c0,0,0.709,0.135,2.321-0.285c0.479-0.169,0.978-0.259,1.464-0.259c2.211,0,3.471,1.79,3.523,1.866l0.114,0.166l-0.139,0.147C279.794,384.866,278.823,385.324,277.762,385.324z M273.904,382.848c0.698,0.694,2.212,1.977,3.857,1.977c0.858,0,1.654-0.354,2.37-1.05c-0.35-0.415-1.408-1.489-2.984-1.489c-0.43,0-0.873,0.08-1.318,0.236C274.938,382.754,274.312,382.83,273.904,382.848z"></path></g><g><path style="fill:#E1E1E1;" d="M276.267,395.543l-0.339-0.43c-0.027-0.034-2.678-3.483,0.351-6.852l0.217-0.241l0.178,0.271c0.082,0.125,1.991,3.069,0.86,4.534c-0.979,1.266-1.162,2.171-1.163,2.18L276.267,395.543z M276.432,388.852c-1.892,2.339-0.927,4.616-0.389,5.534c0.166-0.427,0.488-1.083,1.094-1.867C277.816,391.641,276.976,389.782,276.432,388.852z"></path></g><g><path style="fill:#E1E1E1;" d="M277.228,387.02c-0.035-0.046-0.861-1.111-2.057-1.111c-0.302,0-0.602,0.069-0.891,0.205c-0.825,0.387-1.145,0.508-1.24,0.546l-0.229,0.06c0,0.243,0.063,0.276,0.063,0.5c0.433,0.321,1.607,1.059,2.644,1.059c0.727,0,1.306-0.327,1.721-0.971l0.096-0.147L277.228,387.02z M275.518,387.777c-0.754,0-1.558-0.458-2.016-0.769c0.219-0.09,0.534-0.229,0.991-0.442c0.222-0.104,0.45-0.158,0.678-0.158c0.719,0,1.3,0.524,1.54,0.779C276.403,387.584,276.012,387.777,275.518,387.777z"></path></g></g><g><path style="fill:#FFFFFF;" d="M280.688,377.348c0,0-1.837,1.607,0.306,2.51C280.994,379.857,282.647,378.369,280.688,377.348z"></path><path style="fill:#FFFFFF;" d="M281.666,380.472c0,0-0.059-1.081,2.081-1.502l-0.081,0.906C283.666,379.876,282.585,381.193,281.666,380.472z"></path><path style="fill:#FFFFFF;" d="M280.261,380.472c0,0-1.652-1.562-2.754,0.121C277.507,380.593,278.608,382.034,280.261,380.472z"></path><path style="fill:#FFFFFF;" d="M280.749,381.209c0,0-2.661,0.736-1.161,2.344C279.588,383.553,281.117,383.193,280.749,381.209z"></path><path style="fill:#FFFFFF;" d="M281.392,381.09c0,0,2.202,0.479,1.652,1.923C283.044,383.013,280.596,383.193,281.392,381.09z"></path><ellipse style="fill:#FFFF00;" cx="280.995" cy="380.652" rx="0.81" ry="0.796"></ellipse></g><g><path style="fill:#FFFFFF;" d="M272.118,381.124c0,0,5.391,6.48,6.094,9.836c0,0-2.375-3.974-3.13-4.901c-0.804-0.986-2.662-3.307-2.662-3.307L272.118,381.124z"></path><path style="fill:#FFFFFF;" d="M273.625,383.111c0,0,0.67-0.604,1.172-0.574c0.503,0.029,2.345,0.889,2.345,0.889S274.763,384.085,273.625,383.111z"></path><path style="fill:#FFFFFF;" d="M275.267,385.611c0,0,0.67-0.603,1.173-0.573c0.501,0.028,2.344,0.889,2.344,0.889S276.404,386.586,275.267,385.611z"></path><path style="fill:#FFFFFF;" d="M276.94,388.309c0,0,0.631-0.568,1.105-0.54c0.474,0.027,2.21,0.836,2.21,0.836S278.014,389.225,276.94,388.309z"></path><path style="fill:#FFFFFF;" d="M273.522,383.294c0,0-0.77,0.478-0.872,0.961c-0.105,0.484,0.256,2.455,0.256,2.455S274.179,384.629,273.522,383.294z"></path><path style="fill:#FFFFFF;" d="M274.843,385.418c0,0-0.769,0.477-0.872,0.96c-0.104,0.485,0.255,2.457,0.255,2.457S275.499,386.753,274.843,385.418z"></path><path style="fill:#FFFFFF;" d="M276.549,388.11c0,0-0.726,0.449-0.823,0.905c-0.097,0.457,0.241,2.314,0.241,2.314S277.165,389.367,276.549,388.11z"></path><path style="fill:#FFFFFF;" d="M278.035,390.519c0,0-0.505,0.476-0.509,0.856c-0.003,0.38,0.572,1.814,0.572,1.814S278.736,391.429,278.035,390.519z"></path></g></g></g></g><g><path style="fill:#6E6E6E;stroke:#000000;stroke-linecap:round;stroke-linejoin:round;" d="M217.168,351.667c0.854,0.077,17.776-1.445,31.331-0.917c0.652,1.031,1.174,2.61,1.5,3.624v19.865c-0.9-0.039-1.997-0.022-2.25,0.261c-1.469,1.641-2.582,8.5-2.582,8.5l-1.728,19.142l-0.748,25.44c0,0,1.35,4.967,1.329,5.567s-1.662,3.093-1.662,3.093s0.892,1.258,0.997,1.856c-0.272,0.901-2.105,3.526-2.105,3.526s-6.325-2.754-7.875-2.5s-9.999,3.125-9.999,3.125s-1.684-1.628-2.029-2.605c0.404-0.478,1.079-2.783,1.079-2.783s-1.758-1.361-1.993-1.547c-0.099-1.064,0.734-3.272,0.734-3.272c-0.997-6.805-3.06-29.514-3.06-29.514s-1.329-14.538-2.657-26.602C214.122,363.864,217.168,351.667,217.168,351.667z"></path><path style="fill:#505050;" d="M243.458,433.25l-10.125-11.667l-1.875,4.375l-3.667,3.542c0,0,10.751,2.917,14.417,6.25L243.458,433.25z"></path><path style="fill:#505050;" d="M233.813,434.438l-7.625-3l-5.062,3.875l2.563,0.313C223.688,435.625,231.125,433.813,233.813,434.438z"></path><polygon style="fill:#505050;" points="248.832,373.166 244.417,369.02 238.479,366.895 247.603,373.458 "></polygon><polygon style="fill:#505050;" points="246.228,372.302 231.541,369.771 246.228,375.896 247.062,374.094 248.187,373.156 "></polygon><path style="fill:#505050;" d="M219.043,407.751c0,0,7.582,13.082,7.623,13.291c0.25,1.916-4.665,9.208-4.665,9.208l-0.625,0.375L219.043,407.751z"></path><path style="fill:#505050;" d="M242.833,401.333c0,0-4.916,6.834-4.916,7.417c0,2.834,3.083,13.916,3.083,13.916l1.167,4.584l0.5-18.333L242.833,401.333z"></path><g><g><path style="fill:#5EBCA4;" d="M217.626,352.181c-2.688,9.411-2.063,19.606-2.063,19.606l0.438,5.282l2.291,23.854l10.374-5.917c0.166-6.204,3.626-43.67,3.626-43.67l-7.916,0.415L217.626,352.181z"></path><g><path style="fill:#FFFFFF;" d="M227.631,394.146l4.452-42.81l2.625-0.086l-5.173,43.856l-11.034,7.804c-0.084-0.778-0.209-1.852-0.209-2.593L227.631,394.146z"></path></g><g><path style="fill:#C49953;" d="M226.534,393.583l4.508-42.159l1.458-0.13l-4.505,42.72l-0.031,0.296l-9.672,6.613c0-0.61-0.083-1.451-0.125-1.642L226.534,393.583z"></path></g><g><path style="fill:#C49953;" d="M229.536,395.019l4.797-43.725l1.375-0.044l-4.744,44.498l-12.338,8.587c0-0.539-0.084-1.181-0.084-1.771L229.536,395.019z"></path></g></g><path style="fill:#C49953;" d="M219.482,403.551c0,0-0.836,2.043,0.664,1.979c0.413,0.033,1.057,0.039,1.625-0.129c0.677-0.196,1-0.446,1-0.446s0.25,3.063-2.688,2.744l0.512,1.895l-1.095,2.699l-0.959-8.649L219.482,403.551z"></path></g><line style="fill:none;stroke:#000000;stroke-linecap:round;stroke-linejoin:round;" x1="225.042" y1="425.833" x2="221.542" y2="431.375"></line><polyline style="fill:none;stroke:#000000;stroke-linecap:round;stroke-linejoin:round;" points="224.001,437.246 229.25,434.443 236.083,434.757 "></polyline><polyline style="fill:none;stroke:#000000;stroke-linecap:round;stroke-linejoin:round;" points="231.167,430.833 237.25,432.875 242,435.775 "></polyline><g><g><path style="fill:#E1E1E1;" d="M215.709,363.457c0,0,8.844,7.749,10.514,11.063l1.226,1.949c0,0-8.024-9.243-11.822-11.93L215.709,363.457z"></path><g><g><path style="fill:#E1E1E1;" d="M218.521,375.913c0-0.018-0.014-1.83-0.959-4.616c-1.03-3.037,1.437-4.312,1.462-4.324l0.16-0.08l0.128,0.127c1.516,1.514,2.228,3.103,2.114,4.721c-0.182,2.597-2.41,4.302-2.505,4.373l-0.399,0.3L218.521,375.913z M218.034,371.137c0.683,2.009,0.893,3.507,0.957,4.252c0.622-0.589,1.814-1.936,1.936-3.687c0.099-1.419-0.519-2.829-1.834-4.192C218.618,367.814,217.277,368.903,218.034,371.137z"></path></g><g><path style="fill:#E1E1E1;" d="M219.39,375.813c2.153-2.075,0.149-8.198,0.063-8.458l-0.475,0.158c0.021,0.061,1.992,6.082,0.063,7.94L219.39,375.813z"></path></g></g><g><path style="fill:#E1E1E1;" d="M216.131,364.396l-0.11-0.101l0.035-0.144c0.006-0.024,0.612-2.373,3.665-2.373c0.865,0,1.854,0.189,2.938,0.563l0.313,0.107l-0.188,0.271c-0.076,0.11-1.896,2.694-4.244,2.694l0,0C217.688,365.416,216.877,365.073,216.131,364.396z M219.721,362.279c-2.264,0-2.965,1.395-3.134,1.852c0.616,0.521,1.272,0.785,1.952,0.785c1.666,0,3.106-1.567,3.627-2.21C221.264,362.423,220.443,362.279,219.721,362.279z"></path></g><g><path style="fill:#E1E1E1;" d="M219.37,367.308l-0.139-0.147l0.114-0.166c0.057-0.082,1.4-1.991,3.76-1.991c0.519,0,1.052,0.096,1.563,0.276c1.735,0.451,2.494,0.306,2.494,0.306l0,0l0.723-0.17l-0.473,0.572c-0.093,0.113-2.316,2.771-4.966,2.771c-0.001,0,0,0-0.001,0C221.315,368.758,220.28,368.27,219.37,367.308z M224.523,365.757c-0.479-0.168-0.956-0.254-1.418-0.254c-1.712,0-2.855,1.177-3.222,1.614c0.773,0.757,1.635,1.141,2.563,1.141c1.791,0,3.437-1.413,4.173-2.151C226.186,366.091,225.506,366.013,224.523,365.757z"></path></g><g><path style="fill:#E1E1E1;" d="M223.986,379.856c-0.002-0.017-0.224-1.691-1.28-3.057c-1.204-1.559,0.835-4.702,0.922-4.835l0.178-0.271l0.217,0.241c3.221,3.583,0.45,7.982,0.422,8.026l-0.372,0.577L223.986,379.856z M223.102,376.493c0.713,0.921,1.07,1.952,1.24,2.613c0.583-1.205,1.571-4.052-0.473-6.582C223.284,373.517,222.363,375.538,223.102,376.493z"></path></g><g><path style="fill:#E1E1E1;" d="M223.023,370.89l-0.096-0.147l0.107-0.14c0.036-0.049,0.917-1.183,2.188-1.183c0.32,0,0.638,0.072,0.944,0.217c1.296,0.608,1.74,0.64,1.807,0.643l1.156-0.247l-0.957,0.693c-0.067,0.05-1.679,1.205-3.202,1.205l0,0C224.124,371.931,223.469,371.58,223.023,370.89z M225.956,370.09c-0.24-0.113-0.486-0.17-0.732-0.17c-0.787,0-1.421,0.579-1.673,0.85c0.344,0.445,0.811,0.661,1.421,0.661c0.872,0,1.813-0.451,2.383-0.778C227.033,370.555,226.583,370.384,225.956,370.09z"></path></g></g><g><path style="fill:#FFFFFF;" d="M219.312,360.23c0,0,1.968,1.723-0.327,2.689C218.984,362.92,217.214,361.325,219.312,360.23z"></path><path style="fill:#FFFFFF;" d="M218.265,363.578c0,0,0.063-1.158-2.229-1.609l0.327,1.289C216.362,363.258,217.28,364.351,218.265,363.578z"></path><path style="fill:#FFFFFF;" d="M219.771,363.578c0,0,1.77-1.673,2.949,0.129C222.72,363.707,221.54,365.251,219.771,363.578z"></path><path style="fill:#FFFFFF;" d="M219.247,364.368c0,0,2.851,0.788,1.244,2.51C220.491,366.878,218.853,366.493,219.247,364.368z"></path><path style="fill:#FFFFFF;" d="M218.559,364.239c0,0-2.359,0.514-1.77,2.06C216.789,366.299,219.411,366.493,218.559,364.239z"></path><ellipse style="fill:#FFFF00;" cx="218.984" cy="363.771" rx="0.868" ry="0.853"></ellipse></g><g><path style="fill:#FFFFFF;" d="M229.688,363.869c0,0-5.773,6.942-6.527,10.537c0,0,2.544-4.257,3.353-5.251c0.861-1.057,2.852-3.542,2.852-3.542L229.688,363.869z"></path><path style="fill:#FFFFFF;" d="M228.073,365.998c0,0-0.718-0.646-1.256-0.614c-0.538,0.03-2.51,0.951-2.51,0.951S226.854,367.041,228.073,365.998z"></path><path style="fill:#FFFFFF;" d="M226.314,368.677c0,0-0.717-0.646-1.255-0.614c-0.537,0.03-2.511,0.952-2.511,0.952S225.097,369.721,226.314,368.677z"></path><path style="fill:#FFFFFF;" d="M224.523,371.565c0,0-0.677-0.608-1.186-0.578c-0.507,0.029-2.367,0.896-2.367,0.896S223.373,372.547,224.523,371.565z"></path><path style="fill:#FFFFFF;" d="M228.541,366.239c0,0,0.824,0.511,0.935,1.029c0.112,0.519-0.274,2.63-0.274,2.63S227.838,367.669,228.541,366.239z"></path><path style="fill:#FFFFFF;" d="M226.77,368.47c0,0,0.823,0.51,0.934,1.028c0.112,0.52-0.273,2.631-0.273,2.631S226.067,369.899,226.77,368.47z"></path><path style="fill:#FFFFFF;" d="M224.942,371.354c0,0,0.776,0.481,0.881,0.97c0.104,0.489-0.258,2.479-0.258,2.479S224.281,372.7,224.942,371.354z"></path><path style="fill:#FFFFFF;" d="M223.35,373.934c0,0,0.542,0.509,0.546,0.917c0.003,0.407-0.613,1.944-0.613,1.944S222.599,374.908,223.35,373.934z"></path></g><g><path style="fill:#E1E1E1;" d="M220.126,352.031c2.869,2.13,6.546,4.968,7.708,6.743l1.359,1.696c0,0-5.835-5.332-10.099-8.408C219.653,352.063,219.938,352.094,220.126,352.031z"></path><g><g><path style="fill:#E1E1E1;" d="M220.434,360.703c-0.001-0.017-0.167-1.688-1.323-4.179c-1.26-2.715,1.041-4.097,1.065-4.11l0.15-0.087l0.135,0.105c1.604,1.27,2.434,2.676,2.459,4.179c0.04,2.411-1.992,4.168-2.078,4.242l-0.365,0.31L220.434,360.703z M219.559,356.337c0.835,1.796,1.166,3.16,1.29,3.843c0.558-0.597,1.608-1.937,1.581-3.562c-0.023-1.319-0.744-2.567-2.143-3.716C219.851,353.224,218.634,354.341,219.559,356.337z"></path></g><g><path style="fill:#E1E1E1;" d="M221.272,360.538c1.928-2.094-0.541-7.574-0.646-7.807l-0.45,0.186c0.024,0.054,2.454,5.443,0.728,7.319L221.272,360.538z"></path></g></g><g><path style="fill:#E1E1E1;" d="M220.491,352.408c0.02-0.033,0.115-0.066,0.489-0.449c0,0,0.4-0.1,0.5,0c-0.146,0.156-0.38,0.417-0.454,0.517c0.819,0.634,1.692,0.915,2.599,0.838c1.096-0.094,2.251-1.027,3-1.646c0.146-0.021,0.561-0.063,0.792-0.063c-0.833,0.771-2.306,2.046-3.752,2.17c-0.001,0,0,0-0.001,0c-1.103,0.096-2.153-0.269-3.122-1.08l-0.147-0.124L220.491,352.408z"></path></g><g><path style="fill:#E1E1E1;" d="M226.1,363.883c-0.004-0.016-0.36-1.541-1.507-2.712c-1.306-1.337,0.421-4.407,0.494-4.538l0.151-0.264l0.231,0.203c3.443,3.037,1.107,7.326,1.084,7.368l-0.314,0.564L226.1,363.883z M224.953,360.854c0.773,0.79,1.207,1.712,1.428,2.307c0.469-1.159,1.194-3.868-1.01-6.031C224.882,358.095,224.152,360.036,224.953,360.854z"></path></g><g><path style="fill:#E1E1E1;" d="M224.406,355.692l-0.104-0.128l0.092-0.138c0.032-0.049,0.797-1.167,2.037-1.274c0.313-0.026,0.628,0.015,0.94,0.122c1.316,0.453,1.753,0.444,1.817,0.442l1.107-0.325l-0.876,0.72c-0.06,0.052-1.537,1.252-3.025,1.379l0,0C225.568,356.561,224.9,356.293,224.406,355.692z M227.202,354.71c-0.245-0.085-0.489-0.116-0.73-0.096c-0.766,0.065-1.337,0.653-1.56,0.924c0.372,0.382,0.846,0.541,1.441,0.49c0.852-0.072,1.733-0.566,2.262-0.916C228.293,355.049,227.839,354.929,227.202,354.71z"></path></g></g><g><path style="fill:#FFFFFF;" d="M224.837,358.926c0.234-1.832,2.065-5.084,3.476-7.321c0.167-0.021,0.54-0.083,0.833-0.083c-0.466,0.657-1.158,1.835-1.478,2.28C226.961,354.786,224.837,358.926,224.837,358.926z"></path><path style="fill:#FFFFFF;" d="M227.435,353.376c0,0-0.755-0.535-1.277-0.461c-0.521,0.073-2.37,1.088-2.37,1.088S226.332,354.442,227.435,353.376z"></path><path style="fill:#FFFFFF;" d="M225.928,356.19c0,0-0.711-0.504-1.206-0.433c-0.491,0.068-2.234,1.021-2.234,1.021S224.888,357.191,225.928,356.19z"></path><path style="fill:#FFFFFF;" d="M229.396,351.48c0,0,0.833-0.094,0.984,0.375c0.152,0.47-0.048,2.449-0.048,2.449S228.829,352.858,229.396,351.48z"></path><path style="fill:#FFFFFF;" d="M227.86,353.147c0,0,0.846,0.402,0.998,0.871c0.153,0.47-0.047,2.449-0.047,2.449S227.294,354.524,227.86,353.147z"></path><path style="fill:#FFFFFF;" d="M226.318,355.961c0,0,0.798,0.379,0.94,0.819c0.142,0.444-0.044,2.309-0.044,2.309S225.786,357.258,226.318,355.961z"></path><path style="fill:#FFFFFF;" d="M224.979,358.474c0,0,0.573,0.424,0.611,0.8c0.037,0.375-0.436,1.845-0.436,1.845S224.329,359.435,224.979,358.474z"></path></g><g><g><path style="fill:#E1E1E1;" d="M216.376,380.667c0,0,7.828,6.926,9.387,10.021l0.779,1.271c0,0-6.413-7.658-9.958-10.167L216.376,380.667z"></path><g><g><path style="fill:#E1E1E1;" d="M218.557,391.986c0-0.017-0.013-1.705-0.896-4.303c-0.966-2.849,1.349-4.046,1.372-4.058l0.161-0.08l0.128,0.127c1.419,1.417,2.085,2.904,1.979,4.42c-0.17,2.432-2.255,4.026-2.344,4.094l-0.399,0.3L218.557,391.986z M218.134,387.523c0.628,1.846,0.828,3.23,0.893,3.938c0.584-0.56,1.665-1.8,1.776-3.406c0.091-1.316-0.48-2.625-1.699-3.891C218.654,384.455,217.438,385.467,218.134,387.523z"></path></g><g><path style="fill:#E1E1E1;" d="M219.396,391.906c2.017-1.945,0.145-7.67,0.063-7.913l-0.475,0.158c0.019,0.057,1.855,5.667,0.063,7.396L219.396,391.906z"></path></g></g><g><path style="fill:#E1E1E1;" d="M216.458,381.187l-0.105-0.097l0.028-0.14c0.005-0.021,0.486-2.181,3.294-2.181c0.808,0,1.738,0.18,2.767,0.534l0.308,0.106l-0.182,0.27c-0.067,0.101-1.689,2.473-3.847,2.473l0,0C217.926,382.152,217.164,381.827,216.458,381.187z M219.675,379.27c-2.025,0-2.621,1.229-2.765,1.648c0.577,0.487,1.186,0.734,1.811,0.734c1.49,0,2.755-1.387,3.23-1.983C221.106,379.403,220.342,379.27,219.675,379.27z"></path></g><g><path style="fill:#E1E1E1;" d="M219.354,383.965l-0.139-0.147l0.114-0.166c0.053-0.076,1.313-1.866,3.523-1.866c0.486,0,0.985,0.09,1.464,0.259c1.612,0.42,2.32,0.285,2.32,0.285l0,0l0.723-0.17l-0.473,0.572c-0.087,0.105-2.167,2.593-4.648,2.593l0,0C221.177,385.324,220.206,384.866,219.354,383.965z M224.171,382.521c-0.445-0.156-0.889-0.236-1.318-0.236c-1.576,0-2.635,1.074-2.984,1.489c0.716,0.696,1.512,1.05,2.37,1.05c1.646,0,3.159-1.282,3.857-1.977C225.688,382.83,225.063,382.754,224.171,382.521z"></path></g><g><path style="fill:#E1E1E1;" d="M223.63,395.005c-0.001-0.009-0.184-0.914-1.163-2.18c-1.131-1.465,0.778-4.409,0.86-4.534l0.178-0.271l0.217,0.241c3.027,3.368,0.378,6.817,0.351,6.852l-0.339,0.43L223.63,395.005z M222.863,392.519c0.605,0.784,0.928,1.44,1.094,1.867c0.538-0.918,1.503-3.195-0.389-5.534C223.024,389.782,222.184,391.641,222.863,392.519z"></path></g><g><path style="fill:#E1E1E1;" d="M222.666,387.159l0.096,0.147c0.415,0.644,0.994,0.971,1.721,0.971c1.036,0,2.21-0.737,2.643-1.059c0-0.224,0.063-0.257,0.063-0.5l-0.229-0.06c-0.096-0.038-0.415-0.159-1.239-0.546c-0.289-0.136-0.589-0.205-0.891-0.205c-1.195,0-2.021,1.065-2.057,1.111L222.666,387.159z M223.289,387.188c0.24-0.255,0.821-0.779,1.54-0.779c0.228,0,0.456,0.054,0.678,0.158c0.457,0.214,0.771,0.353,0.99,0.442c-0.457,0.311-1.261,0.769-2.015,0.769C223.988,387.777,223.597,387.584,223.289,387.188z"></path></g></g><g><path style="fill:#FFFFFF;" d="M219.312,377.348c0,0,1.837,1.607-0.306,2.51C219.006,379.857,217.353,378.369,219.312,377.348z"></path><path style="fill:#FFFFFF;" d="M218.334,380.472c0,0,0.059-1.081-2.081-1.502l0.081,0.906C216.334,379.876,217.415,381.193,218.334,380.472z"></path><path style="fill:#FFFFFF;" d="M219.739,380.472c0,0,1.652-1.562,2.754,0.121C222.493,380.593,221.392,382.034,219.739,380.472z"></path><path style="fill:#FFFFFF;" d="M219.251,381.209c0,0,2.661,0.736,1.161,2.344C220.412,383.553,218.883,383.193,219.251,381.209z"></path><path style="fill:#FFFFFF;" d="M218.608,381.09c0,0-2.202,0.479-1.652,1.923C216.956,383.013,219.404,383.193,218.608,381.09z"></path><ellipse style="fill:#FFFF00;" cx="219.005" cy="380.652" rx="0.81" ry="0.796"></ellipse></g><g><path style="fill:#FFFFFF;" d="M227.881,381.124c0,0-5.39,6.48-6.093,9.836c0,0,2.375-3.974,3.13-4.901c0.804-0.986,2.661-3.307,2.661-3.307L227.881,381.124z"></path><path style="fill:#FFFFFF;" d="M226.374,383.111c0,0-0.669-0.604-1.171-0.574c-0.503,0.029-2.345,0.889-2.345,0.889S225.237,384.085,226.374,383.111z"></path><path style="fill:#FFFFFF;" d="M224.733,385.611c0,0-0.67-0.603-1.173-0.573c-0.501,0.028-2.344,0.889-2.344,0.889S223.596,386.586,224.733,385.611z"></path><path style="fill:#FFFFFF;" d="M223.06,388.309c0,0-0.631-0.568-1.105-0.54c-0.474,0.027-2.21,0.836-2.21,0.836S221.986,389.225,223.06,388.309z"></path><path style="fill:#FFFFFF;" d="M226.477,383.294c0,0,0.77,0.478,0.872,0.961c0.105,0.484-0.256,2.455-0.256,2.455S225.821,384.629,226.477,383.294z"></path><path style="fill:#FFFFFF;" d="M225.157,385.418c0,0,0.769,0.477,0.872,0.96c0.104,0.485-0.255,2.457-0.255,2.457S224.501,386.753,225.157,385.418z"></path><path style="fill:#FFFFFF;" d="M223.451,388.11c0,0,0.726,0.449,0.823,0.905c0.097,0.457-0.241,2.314-0.241,2.314S222.835,389.367,223.451,388.11z"></path><path style="fill:#FFFFFF;" d="M221.965,390.519c0,0,0.505,0.476,0.509,0.856c0.003,0.38-0.572,1.814-0.572,1.814S221.264,391.429,221.965,390.519z"></path></g></g></g></g><path style="fill:#6E6E6E;stroke:#000000;stroke-linecap:round;stroke-linejoin:round;" d="M251.499,350.75l-1.333,2.966l-1.334-2.966h-1.917c0,0,0.19,7.667,0.19,9.25s0.977,14.5,0.977,14.5l2.084,0.035l0,0l0,0l0,0l0,0l2.083-0.035c0,0,0.977-12.917,0.977-14.5s0.19-9.25,0.19-9.25H251.499z"></path></g></g></svg>