<svg xmlns="http://www.w3.org/2000/svg" width="500" height="500" version="1.1"><g id="x9117"><g><g><g><path style="fill:#302C36;stroke:#000000;stroke-linecap:round;stroke-linejoin:round;" d="M283.334,347L280,343.667c0,0-12,0.666-30,0.666s-30-0.666-30-0.666L216.666,347L209,399.333c0,0,11.666,2.667,17.666,3C235.666,401,250,401,250,401s14.334,0,23.334,1.333c6-0.333,17.666-3,17.666-3L283.334,347z"></path><path style="fill:#120E18;" d="M224.667,401.667L230,363.333l-4-11c0,0-2.333-3.334-4.333-3S217,353,217,353s2,33.333,3.333,36c-2.667-1.667-5.333-4.333-5.333-4.333L217.333,401L224.667,401.667z"></path><path style="opacity:0.2;fill:#FFFFFF;" d="M230,363l-4.333,38.333c0,0,15.333-2,23.667-1.333c1.333-8.333-0.333-25.333-0.333-25.333L230,363z"></path><path style="opacity:0.2;fill:#FFFFFF;" d="M256.667,373.333c2,0,14.667-2,14.667-2l4.333,30.334c0,0,12.999-2.001,15.333-2.334c-2.333-12-8.333-51.333-8.333-51.333l-2.333-3c0,0-10.334,19.001-11.667,19.667S256.667,373.333,256.667,373.333z"></path><path style="opacity:0.2;fill:#FFFFFF;" d="M250.833,345.334c0,1,8.501,8.166,10.167,7.166s12.166-7.833,12.166-7.833L250.833,345.334z"></path><path style="fill:#120E18;" d="M250.299,366.667L261.637,367c-4,2.667-7.667,12.333-7.667,12.333l-3.67,21.334V366.667z"></path><path style="fill:#120E18;" d="M250.5,367.25l-17.5-3.5c0,0,13.25,10.5,17,11.75C252,372.75,250.5,367.25,250.5,367.25z"></path><g><line style="fill:none;stroke:#000000;stroke-linecap:round;stroke-linejoin:round;" x1="250" y1="344.667" x2="250" y2="374"></line><g><path style="fill:none;stroke:#000000;stroke-linecap:round;stroke-linejoin:round;" d="M234.833,365.334c0,0,6.667,5,11,7"></path><path style="fill:none;stroke:#000000;stroke-linecap:round;stroke-linejoin:round;" d="M265.166,365.334c0,0-6.666,5-11,7"></path></g></g><g><path style="fill:none;stroke:#000000;stroke-linecap:round;stroke-linejoin:round;" d="M271.25,373c0,0.75,2.25,16.25,3.25,26.5"></path><path style="fill:none;stroke:#000000;stroke-linecap:round;stroke-linejoin:round;" d="M228.75,373c0,0.75-2.25,16.25-3.25,26.5"></path></g><g><g><path style="fill:#505050;stroke:#000000;stroke-linecap:round;stroke-linejoin:round;" d="M215.875,352l-2.75,8.5c0,0,2.75,3,3.75,3.5c3-0.5,10.25-3.75,10.25-3.75l0.25-5L215.875,352z"></path><path style="fill:#6E6E6E;" d="M226.75,355.5c0,0-6,6.5-9.75,7.5c0.5-3.75,1.5-9,1.5-9L226.75,355.5z"></path></g><g><path style="fill:#FEFAF3;stroke:#000000;stroke-linecap:round;stroke-linejoin:round;" d="M284.125,352l2.75,8.5c0,0-2.75,3-3.75,3.5c-3-0.5-10.25-3.75-10.25-3.75l-0.25-5L284.125,352z"></path><path style="fill:#E0DCD5;" d="M273.5,355.5c0,0,6,6.5,9.75,7.5c-0.5-3.75-1.5-9-1.5-9L273.5,355.5z"></path></g></g></g></g><g><path style="fill:#1B1720;stroke:#000000;stroke-linecap:round;stroke-linejoin:round;" d="M278.334,334.334c0,0-11.835,4.167-28.334,4.167s-28.333-4.167-28.333-4.167l-2,10.666c0,0,13.334,3,30.333,3c17,0,30.334-3,30.334-3L278.334,334.334z"></path><g><rect x="239.417" y="338.334" style="fill:#505050;stroke:#000000;stroke-linecap:round;stroke-linejoin:round;" width="21.167" height="5.667"></rect><g><g><polygon style="fill:#FEFAF3;stroke:#000000;stroke-linecap:round;stroke-linejoin:round;" points="242.708,344.667 242.708,340.584 239.958,337.834 234.792,337.167 238.458,341.001 238.458,343.001 235.958,345.834 "></polygon><polygon style="fill:#FEFAF3;stroke:#000000;stroke-linecap:round;stroke-linejoin:round;" points="257.292,344.667 257.292,340.584 260.042,337.834 265.208,337.167 261.542,341.001 261.542,343.001 264.042,345.834 "></polygon></g><g><polygon style="fill:#1B1720;stroke:#000000;stroke-linecap:round;stroke-linejoin:round;" points="262.25,343.75 237.75,343.75 235.5,346.333 237.75,349 262.25,349 264.5,346.333 "></polygon><g><circle style="fill:#C69B65;" cx="239.875" cy="346.424" r="1.625"></circle><circle style="fill:#C69B65;" cx="260.125" cy="346.424" r="1.625"></circle></g></g></g></g></g></g></g></svg>