<svg xmlns="http://www.w3.org/2000/svg" width="500" height="500" version="1.1"><g id="x013"><g><g><path style="fill:#505050;stroke:#000000;stroke-linecap:round;stroke-linejoin:round;" d="M285.854,366.201c2.687,12.053,2.909,30.325,2.909,30.325c-1.566,0.389-7.835,1.166-7.835,1.166S284.511,366.201,285.854,366.201z"></path><path style="fill:#6E6E6E;stroke:#000000;stroke-linecap:round;stroke-linejoin:round;" d="M285.63,363.479c-0.671-5.248-4.402-18.402-4.402-18.402s-7.218,2.486-31.191,2.486s-31.193-2.486-31.193-2.486s-3.732,13.154-4.403,18.402c-0.672,5.248,0.448,32.854,1.343,34.214c4.379,2.434,19.701,4.786,34.253,4.786c14.549,0,29.871-2.353,34.251-4.786C285.183,396.333,286.302,368.727,285.63,363.479z"></path></g><path d="M227.424,346.594c0,0-1.343,45.267,0.224,53.82c-4.254-0.583-5.821-1.166-5.821-1.166s-2.463-39.539,0.448-53.147C224.738,345.906,227.424,346.594,227.424,346.594z"></path><path d="M217.574,351.62c0,0-0.672,41.991,0.447,47.433c-1.567-0.777-2.238-1.36-2.238-1.36s-1.12-32.852-1.343-34.214C214.215,362.118,217.574,351.62,217.574,351.62z"></path><path d="M237.935,346.813h-5.713c-0.973,9.577-0.767,53.797-0.767,53.797s2.463,0.582,6.269,0.777C237.311,392.617,237.847,353.043,237.935,346.813z"></path><path d="M248.013,347.813h-5.037c-0.967,7.019-0.553,53.574-0.553,53.574s2.687,1.165,4.479,0.972C246.257,400.116,247.885,351.662,248.013,347.813z"></path><path d="M272.857,346.594c0,0,1.345,45.267-0.223,53.82c4.254-0.583,5.821-1.166,5.821-1.166s2.462-39.539-0.448-53.147C275.545,345.906,272.857,346.594,272.857,346.594z"></path><path d="M282.709,351.62c0,0,0.672,41.991-0.447,47.433c1.567-0.777,2.238-1.36,2.238-1.36s1.12-32.852,1.343-34.214C286.067,362.118,282.709,351.62,282.709,351.62z"></path><path d="M262.349,346.813c0.088,6.23,0.624,45.805,0.211,54.574c3.807-0.195,6.269-0.777,6.269-0.777s0.207-44.22-0.767-53.797H262.349z"></path><path d="M252.269,347.813c0.128,3.85,1.757,52.304,1.112,54.546c1.791,0.193,4.479-0.972,4.479-0.972s0.414-46.556-0.555-53.574H252.269z"></path></g></g></svg>