<svg xmlns="http://www.w3.org/2000/svg" width="500" height="500" version="1.1"><g id="x9119"><g><g id="bottomsXMLID_14_"><g><path style="fill:#6E6E6E;" d="M282.25,349.5c0,0,3,9.25,2.75,15.5s-3.5,25.25-3.5,25.25s0,2.75,0,4.5s-1.25,3.25-1.25,3.25s1.37,11.12,1.63,21.38c-1-0.5-11.13-12.88-13.38-16.13c-0.75,0.5-9.75,12.25-12.25,15c-0.25-1.25-0.75-10.5,0-18.25c-0.5-2-4.25-24.5-4.25-24.5l-2-2l-2,2c0,0-3.75,22.5-4.25,24.5c0.75,7.75,0.25,17,0,18.25c-2.5-2.75-11.5-14.5-12.25-15c-2.25,3.25-12.38,15.63-13.38,16.13c0.26-10.26,1.63-21.38,1.63-21.38s-1.25-1.5-1.25-3.25s0-4.5,0-4.5s-3.25-19-3.5-25.25s2.75-15.5,2.75-15.5l32.25,1L282.25,349.5z"></path></g><g><path style="fill:#505050;" d="M249.292,374.083l-1.583,1.75L246.625,381c0,0-7.833-5.251-8.333-8.584C241.208,372.75,249.292,374.083,249.292,374.083z"></path><path style="fill:#505050;" d="M250.708,374.083l1.583,1.75l1.083,5.167c0,0,7.834-5.251,8.334-8.584C258.791,372.75,250.708,374.083,250.708,374.083z"></path></g><g style="opacity:0.5;"><path style="fill:none;stroke:#FAF9F9;stroke-linecap:round;stroke-linejoin:round;" d="M255.75,350.834v17.667l1.333,4.5c0,0,0.334,26.333,0.334,29.166c-0.834,3.5-1.334,8.167-1.334,8.167"></path><path style="fill:none;stroke:#FAF9F9;stroke-linecap:round;stroke-linejoin:round;" d="M261.25,350.834v17.167l1,4.833l0.167,26.833c0,0,0.396,9.021-0.167,11.334"></path><path style="fill:none;stroke:#FAF9F9;stroke-linecap:round;stroke-linejoin:round;" d="M267.083,351.167l1.167,17.001l-0.167,4.999c0,0,0.001,23.5,0.334,30.167"></path><path style="fill:none;stroke:#FAF9F9;stroke-linecap:round;stroke-linejoin:round;" d="M272.048,351.167l1.167,17.001l-0.167,4.999c0,0,0.035,26.166,0.035,35"></path><polyline style="fill:none;stroke:#FAF9F9;stroke-linecap:round;stroke-linejoin:round;" points="277.416,351.501 278.75,373.334 278.75,415.834 "></polyline><path style="fill:none;stroke:#FAF9F9;stroke-linecap:round;stroke-linejoin:round;" d="M282.083,351.001c0,0,1.5,19.5,1.5,24"></path><path style="fill:none;stroke:#FAF9F9;stroke-linecap:round;stroke-linejoin:round;" d="M244.25,350.834v17.667l-1.333,4.5c0,0-0.334,26.333-0.334,29.166c0.834,3.5,1.334,8.167,1.334,8.167"></path><path style="fill:none;stroke:#FAF9F9;stroke-linecap:round;stroke-linejoin:round;" d="M238.75,350.834v17.167l-1,4.833l-0.167,26.833c0,0-0.396,9.021,0.167,11.334"></path><path style="fill:none;stroke:#FAF9F9;stroke-linecap:round;stroke-linejoin:round;" d="M232.917,351.167l-1.167,17.001l0.167,4.999c0,0-0.001,23.5-0.334,30.167"></path><path style="fill:none;stroke:#FAF9F9;stroke-linecap:round;stroke-linejoin:round;" d="M227.952,351.167l-1.167,17.001l0.167,4.999c0,0-0.035,26.166-0.035,35"></path><polyline style="fill:none;stroke:#FAF9F9;stroke-linecap:round;stroke-linejoin:round;" points="222.584,351.501 221.25,373.334 221.25,415.834 "></polyline><path style="fill:none;stroke:#FAF9F9;stroke-linecap:round;stroke-linejoin:round;" d="M217.917,351.001c0,0-1.5,19.5-1.5,24"></path><line style="fill:none;stroke:#FAF9F9;stroke-linecap:round;stroke-linejoin:round;" x1="250" y1="372.667" x2="250" y2="351.667"></line></g><g><polygon style="fill:#FAF9F9;" points="218.75,410.75 219.958,412.833 223.833,408 220.75,409.75 219.25,407 "></polygon><circle style="fill:#FAF9F9;" cx="224.896" cy="407.146" r="0.604"></circle><circle style="fill:#FAF9F9;" cx="226.646" cy="405.479" r="0.604"></circle><polygon style="fill:#FAF9F9;" points="281.25,410.75 280.041,412.833 276.166,408 279.25,409.75 280.75,407 "></polygon><circle style="fill:#FAF9F9;" cx="275.104" cy="407.146" r="0.604"></circle><circle style="fill:#FAF9F9;" cx="273.354" cy="405.479" r="0.604"></circle></g><g><path style="fill:none;stroke:#000000;stroke-linecap:round;stroke-linejoin:round;" d="M281.5,390.25c0,0,3.25-19,3.5-25.25s-2.75-15.5-2.75-15.5l-32.25,1l-32.25-1c0,0-3,9.25-2.75,15.5s3.5,25.25,3.5,25.25s0,2.75,0,4.5s1.25,3.25,1.25,3.25s-1.37,11.12-1.63,21.38c1-0.5,11.13-12.88,13.38-16.13c0.75,0.5,9.75,12.25,12.25,15c0.25-1.25,0.75-10.5,0-18.25c0.5-2,4.25-24.5,4.25-24.5l2-2l2,2c0,0,3.75,22.5,4.25,24.5c-0.75,7.75-0.25,17,0,18.25c2.5-2.75,11.5-14.5,12.25-15c2.25,3.25,12.38,15.63,13.38,16.13c-0.26-10.26-1.63-21.38-1.63-21.38s1.25-1.5,1.25-3.25S281.5,390.25,281.5,390.25z"></path></g></g><g><polygon style="fill:#6E6E6E;stroke:#000000;stroke-linecap:round;stroke-linejoin:round;" points="282.5,351.25 217.25,351.25 218.25,344.25 281.5,344.25 "></polygon><g><path style="fill:#6E6E6E;stroke:#000000;stroke-linecap:round;stroke-linejoin:round;" d="M230.856,343.625c0,0-0.125,6.75-0.063,7.875c-0.875,0.063-2.5,0.125-2.5,0.125s-0.75-3.688,0.063-8C228.919,343.313,230.856,343.625,230.856,343.625z"></path><path style="fill:#6E6E6E;stroke:#000000;stroke-linecap:round;stroke-linejoin:round;" d="M269.144,343.625c0,0,0.125,6.75,0.063,7.875c0.875,0.063,2.5,0.125,2.5,0.125s0.75-3.688-0.063-8C271.081,343.313,269.144,343.625,269.144,343.625z"></path></g></g><g><path style="fill:none;stroke:#000000;stroke-linecap:round;stroke-linejoin:round;" d="M241.917,373.167c0,0,6.667,0.332,7.667,0.333"></path><path style="fill:none;stroke:#000000;stroke-linecap:round;stroke-linejoin:round;" d="M258.083,373.167c0,0-6.667,0.332-7.667,0.333"></path></g><g><g><circle style="fill:#BEB7BB;stroke:#000000;stroke-linecap:round;stroke-linejoin:round;" cx="265.333" cy="357.084" r="1.25"></circle><circle style="fill:#BEB7BB;stroke:#000000;stroke-linecap:round;stroke-linejoin:round;" cx="265.333" cy="362.751" r="1.25"></circle><circle style="fill:#BEB7BB;stroke:#000000;stroke-linecap:round;stroke-linejoin:round;" cx="265.333" cy="368.418" r="1.25"></circle></g><g><circle style="fill:#BEB7BB;stroke:#000000;stroke-linecap:round;stroke-linejoin:round;" cx="234.667" cy="357.084" r="1.25"></circle><circle style="fill:#BEB7BB;stroke:#000000;stroke-linecap:round;stroke-linejoin:round;" cx="234.667" cy="362.751" r="1.25"></circle><circle style="fill:#BEB7BB;stroke:#000000;stroke-linecap:round;stroke-linejoin:round;" cx="234.667" cy="368.418" r="1.25"></circle></g></g><g><path style="fill:#BEB7BB;stroke:#000000;stroke-linecap:round;stroke-linejoin:round;" d="M283.417,368.834l-13.833-6c0.167-2.5,1.167-2.333,1.167-2.333l13.166,6.166L283.417,368.834z"></path><path style="fill:#BEB7BB;stroke:#000000;stroke-linecap:round;stroke-linejoin:round;" d="M216.583,368.834l13.833-6c-0.167-2.5-1.167-2.333-1.167-2.333l-13.166,6.166L216.583,368.834z"></path></g></g></g></svg>