<svg xmlns="http://www.w3.org/2000/svg" width="500" height="500" version="1.1"><g id="x9120"><g><path style="fill:#6E6E6E;stroke:#000000;stroke-linecap:round;stroke-linejoin:round;" d="M280.801,402.75c0.375-3,3.949-39.75,3.324-44.625s-3.426-11.75-3.426-11.75s-10.949,1.5-30.449,1.5s-30.95-1.5-30.95-1.5s-2.8,6.875-3.425,11.75s2.95,41.625,3.325,44.625c0.29,2.32,1.432,13.183,1.935,17.989c-0.681,1.721-2.054,5.377-1.801,6.261c0.333,1.166,4.833,6.5,4.833,6.5s-0.833-2.668-0.667-3.334c0.14-0.561,4.766-2.183,8.315-2.781c2.763,0.558,5.271,1.293,6.06,1.906c1.125,0.875,2.625,3,2.625,3s0.625-0.75,2.375-1.625c0.625-1-1.25-5.375-1.25-5.375s2.75-26.541,3-35.291c1-3.875,4-16.5,4-16.5h2.75c0,0,3,12.625,4,16.5c0.25,8.75,2,35.291,2,35.291s-0.875,4.375-0.25,5.375c1.75,0.875,2.375,1.625,2.375,1.625s0.5-2.125,1.625-3c0.812-0.631,3.963-1.391,7.11-1.954c3.58,0.558,8.456,2.253,8.601,2.829c0.166,0.666-0.667,3.334-0.667,3.334s4.5-5.334,4.833-6.5c0.293-1.027-1.609-5.803-2.066-6.926C279.467,414.998,280.523,404.969,280.801,402.75z"></path><g><line style="fill:none;stroke:#000000;stroke-linecap:round;stroke-linejoin:round;" x1="246.688" y1="348.25" x2="247.167" y2="372.833"></line><path style="fill:none;stroke:#000000;stroke-linecap:round;stroke-linejoin:round;" d="M248.167,368.083c0,0,4.146-1.146,4.333-1.208s0.813-18.625,0.813-18.625"></path></g><path style="fill:none;stroke:#000000;stroke-linecap:round;stroke-linejoin:round;" d="M250.813,373.438c0,0,7-2,8.313-2.688"></path><g><path style="fill:none;stroke:#000000;stroke-linecap:round;stroke-linejoin:round;" d="M252.938,374.625c0,0,7.625,10.25,7.938,11.25"></path><path style="fill:none;stroke:#000000;stroke-linecap:round;stroke-linejoin:round;" d="M247.063,374.625c0,0-7.625,10.25-7.938,11.25"></path></g><g><path style="fill:#3F3F3F;stroke:#000000;stroke-linecap:round;stroke-linejoin:round;" d="M281.25,353.032c0,0-6.876,1.593-31.125,1.593s-31.375-1.593-31.375-1.593v-6c0,0,11.374,0.843,31.375,0.843s31.125-0.843,31.125-0.843V353.032z"></path><g><path style="fill:#B2B2B2;stroke:#000000;stroke-linecap:round;stroke-linejoin:round;" d="M255.184,346.285h-10.367c-1.117,0-2.023,0.789-2.023,1.761v5.027c0,0.973,0.906,1.761,2.023,1.761h10.367c1.117,0,2.023-0.788,2.023-1.761v-5.027C257.207,347.074,256.301,346.285,255.184,346.285z M255.25,352.134c0,0.609-0.66,1.103-1.475,1.103h-7.551c-0.813,0-1.474-0.493-1.474-1.103v-3.148c0-0.608,0.661-1.103,1.475-1.103h7.551c0.814,0,1.475,0.494,1.475,1.103V352.134z"></path><path style="fill:#B2B2B2;stroke:#000000;stroke-linecap:round;stroke-linejoin:round;" d="M251.851,350.75c0,0.502-0.406,0.908-0.907,0.908h-6.22c-0.501,0-0.908-0.406-0.908-0.908l0,0c0-0.501,0.406-0.907,0.908-0.907h6.22C251.444,349.843,251.851,350.249,251.851,350.75L251.851,350.75z"></path></g></g><g><path style="fill:#181717;stroke:#000000;stroke-linecap:round;stroke-linejoin:round;" d="M232.675,354.25l0.083-8.334c0,0-2-0.249-2.666,0.084c-0.5,1.416-0.583,7.084-0.167,8.25"></path><path style="fill:#181717;stroke:#000000;stroke-linecap:round;stroke-linejoin:round;" d="M267.325,354.25l-0.083-8.334c0,0,2-0.249,2.666,0.084c0.5,1.416,0.584,7.084,0.167,8.25"></path></g></g></g></svg>