<svg xmlns="http://www.w3.org/2000/svg" width="500" height="500" version="1.1"><g id="x9121"><g><g><g><path style="fill:#6E6E6E;stroke:#000000;stroke-linecap:round;stroke-linejoin:round;" d="M279.443,413.253c0.704-1.561,1.506-3.796,2.223-4.752c-0.166-0.666-1-2.334-1-2.334s0.668-1.666,1.334-3c-0.096-0.289-1.029-1.639-1.767-2.821c0.524-6.678,1.841-20.449,1.841-21.197c0-2.171,3.604-16.799,0.036-30.898h-64.22c-3.567,14.1,0.037,28.728,0.037,30.898c0,0.748,1.316,14.517,1.841,21.195c-0.738,1.184-1.672,2.533-1.768,2.823c0.667,1.334,1.334,3,1.334,3s-0.833,1.668-1,2.334c0.717,0.956,1.52,3.194,2.224,4.755c0.584,5.385,1.516,11.117,2.427,16.077H240.8c0.618-3.973,1.232-8.153,1.496-10.657c0.072-0.688,1.145-16.867,0.452-17.659c0.026-3.618,0.106-13.185,0.234-14.969c0.362-5.084,5.083-13.288,5.083-13.288h3.871c0,0,4.721,8.204,5.083,13.288c0.128,1.783,0.208,11.35,0.233,14.968c-0.693,0.792,0.357,16.757,0.452,17.66c0.264,2.504,0.878,6.684,1.496,10.657h17.816C277.927,424.372,278.859,418.639,279.443,413.253z"></path><g><path style="fill:none;stroke:#000000;stroke-linecap:round;stroke-linejoin:round;" d="M227.25,357.75c0,0,0.5,8.75,0.75,9.5c-0.25,1.5-0.75,3-0.75,3l1.25,3.25c0,0,1.75,29.25,2,30s-0.25,3.75-0.25,3.75l1.25,11.25"></path><path style="fill:none;stroke:#000000;stroke-linecap:round;stroke-linejoin:round;" d="M272.75,357.75c0,0-0.5,8.75-0.75,9.5c0.25,1.5,0.75,3,0.75,3l-1.25,3.25c0,0-1.75,29.25-2,30s0.25,3.75,0.25,3.75l-1.25,11.25"></path></g><g><polygon style="fill:#FFFEFE;stroke:#000000;stroke-linecap:round;stroke-linejoin:round;" points="216.417,363.5 225.083,353.5 227.417,353.667 216.25,367.667 "></polygon><polygon style="fill:#FFFEFE;stroke:#000000;stroke-linecap:round;stroke-linejoin:round;" points="283.584,363.5 274.917,353.5 272.584,353.667 283.75,367.667 "></polygon></g><path style="fill:#505050;" d="M262.834,366.834c-2,0.333-12.834,1.5-12.834,1.5s-10.834-1.167-12.834-1.5c3.167,3.833,6.667,5.667,6.667,5.667l-1.5,12c0,0,1.833-5.334,2.833-7.167s2.834-5.167,2.834-5.167l2,0.167l2-0.167c0,0,1.834,3.334,2.834,5.167s2.834,7.167,2.834,7.167l-1.5-12C256.168,372.501,259.668,370.667,262.834,366.834z"></path><g><g><path style="fill:#505050;" d="M281.613,403.167c0,0-1.352,3.333-1.727,3.458s-5.5-0.125-5.5-0.125C276.387,403.875,281.613,403.167,281.613,403.167z"></path></g><g><path style="fill:#505050;" d="M218.387,403.167c0,0,1.352,3.333,1.727,3.458s5.5-0.125,5.5-0.125C223.613,403.875,218.387,403.167,218.387,403.167z"></path></g></g><line style="fill:none;stroke:#000000;stroke-linecap:round;stroke-linejoin:round;" x1="217.417" y1="353.667" x2="282.583" y2="353.667"></line><g><polyline style="fill:none;stroke:#000000;stroke-linecap:round;stroke-linejoin:round;" points="246.718,354.334 246.884,369.001 248.282,372.76 "></polyline><polyline style="fill:none;stroke:#000000;stroke-linecap:round;stroke-linejoin:round;" points="253.282,354.334 253.116,369.001 251.718,372.76 "></polyline></g></g><g><path style="fill:#5F2F21;stroke:#000000;stroke-linecap:round;stroke-linejoin:round;" d="M283,350.5l-33-0.25l-33,0.25c0,0-1,5.25-1,7.25c9.5,0,34,0,34,0s24.5,0,34,0C284,355.75,283,350.5,283,350.5z"></path><g><path style="fill:#BEA776;stroke:#000000;stroke-linecap:round;stroke-linejoin:round;" d="M256.416,349.25c-0.695-0.464-5.112-0.568-6.416-0.515c-1.304-0.054-5.721,0.051-6.416,0.515c-0.365,0.243-0.649,5-0.649,5c0.097,2.377,0.283,4.757,0.648,5c0.695,0.464,5.115,0.568,6.417,0.515c1.303,0.054,5.722-0.051,6.418-0.515c0.365-0.243,0.551-2.623,0.647-5C257.065,354.25,256.781,349.493,256.416,349.25z M254.918,356.985c-0.072,0.723-3.9,0.756-4.918,0.752c-1.017,0.004-4.846-0.029-4.917-0.752c-0.04-0.399-0.039-5.071,0.001-5.471c0.071-0.722,3.897-0.756,4.916-0.752c1.019-0.004,4.845,0.03,4.916,0.752C254.957,351.914,254.957,356.586,254.918,356.985z"></path><path style="fill:#BEA776;stroke:#000000;stroke-linecap:round;stroke-linejoin:round;" d="M256.376,354.166c0,0.599-0.485,1.084-1.083,1.084h-2.834c-0.598,0-1.083-0.485-1.083-1.084l0,0c0-0.598,0.485-1.083,1.083-1.083h2.834C255.891,353.083,256.376,353.568,256.376,354.166L256.376,354.166z"></path></g></g></g><g><path style="fill:#504F54;stroke:#000000;stroke-linecap:round;stroke-linejoin:round;" d="M220.418,419.591c-0.627,1.818,1.397,9.28,1.913,9.476c0.003,0.014,0.006,0.03,0.009,0.043c0,0,2.685,1.557,9.852,1.557s9.888-1.557,9.888-1.557s1.807-7.729,1.377-9.16c0.188-1.18,0.38-2.403,0.573-3.644c0,0-5.838,1.194-12.338,1.194s-11.888-1.194-11.888-1.194C220.011,417.43,220.216,418.531,220.418,419.591z"></path><path style="fill:#504F54;stroke:#000000;stroke-linecap:round;stroke-linejoin:round;" d="M279.581,419.591c0.627,1.818-1.396,9.28-1.913,9.476c-0.003,0.014-0.007,0.03-0.009,0.043c0,0-2.686,1.557-9.852,1.557c-7.167,0-9.889-1.557-9.889-1.557s-1.807-7.729-1.377-9.16c-0.188-1.18-0.379-2.403-0.572-3.644c0,0,5.838,1.194,12.338,1.194s11.888-1.194,11.888-1.194C279.989,417.43,279.783,418.531,279.581,419.591z"></path></g></g></g></svg>