<svg xmlns="http://www.w3.org/2000/svg" width="500" height="500" version="1.1"><g id="x9124"><g><path style="fill:#918D8C;stroke:#000000;stroke-linecap:round;stroke-linejoin:round;" d="M209.633,390.034c-0.167-0.5,3.666-20.667,5.833-24.167c1.667,1.667,2.167,3,2.167,3l-4.667,19.167L209.633,390.034z"></path><g><g><g><g><g id="bottomsXMLID_46_"><g><path style="fill:#1C1B22;" d="M284.5,358.25c0.25,6-2.42,35.79-2.92,39.04s0.46,4.38-1.79,14.38l-0.75,16.16c0,0,1.29,8.84,1.08,9.84c-0.16,0.771-9,2.25-12.74,2.5c-3.76,0.25-11-3.42-11-3.42s1-8.5,1.24-14.92c0.13-3.08-1.25-21.16-1.95-29.41c-0.67-0.59-0.64-4.9-0.79-5.5c-1.29-5.18-4.09-13.59-4.09-13.59l-0.79-0.01l-0.79,0.01c0,0-2.8,8.41-4.09,13.59c-0.15,0.6-0.12,4.91-0.79,5.5c-0.7,8.25-2.08,26.33-1.95,29.41c0.24,6.42,1.24,14.92,1.24,14.92s-7.24,3.67-11,3.42c-3.74-0.25-12.58-1.729-12.74-2.5c-0.21-1,1.08-9.84,1.08-9.84l-0.75-16.16c-2.25-10-1.29-11.13-1.79-14.38s-3.17-33.04-2.92-39.04c0.16-3.81,2.23-10.04,3.73-14.08h61.54C282.27,348.21,284.34,354.44,284.5,358.25z"></path></g><g><circle style="fill:#F7F2EC;stroke:#000000;stroke-linecap:round;stroke-linejoin:round;" cx="277.375" cy="432.375" r="1.625"></circle></g><circle style="fill:#F7F2EC;stroke:#000000;stroke-linecap:round;stroke-linejoin:round;" cx="222.625" cy="432.375" r="1.625"></circle><g><g><path style="fill:none;stroke:#FFFFFF;stroke-linecap:round;stroke-linejoin:round;" d="M220.433,434.5c0,0,4.667,1.5,9.833,2s13-2.334,13-2.334"></path><path style="fill:none;stroke:#FFFFFF;stroke-linecap:round;stroke-linejoin:round;" d="M221.291,428.897c0,0,4.316,1.388,9.095,1.851c4.779,0.462,12.024-2.159,12.024-2.159"></path></g><g><path style="fill:none;stroke:#FFFFFF;stroke-linecap:round;stroke-linejoin:round;" d="M279.565,434.5c0,0-4.668,1.5-9.834,2s-13-2.334-13-2.334"></path><path style="fill:none;stroke:#FFFFFF;stroke-linecap:round;stroke-linejoin:round;" d="M278.708,428.897c0,0-4.316,1.388-9.096,1.851c-4.778,0.462-12.023-2.159-12.023-2.159"></path></g></g><g><path style="fill:none;stroke:#000000;stroke-linecap:round;stroke-linejoin:round;" d="M280.77,344.17h-61.54c-1.5,4.04-3.57,10.271-3.73,14.08c-0.25,6,2.42,35.79,2.92,39.04s-0.46,4.38,1.79,14.38l0.75,16.16c0,0-1.29,8.84-1.08,9.84c0.16,0.771,9,2.25,12.74,2.5c3.76,0.25,11-3.42,11-3.42s-1-8.5-1.24-14.92c-0.13-3.08,1.25-21.16,1.95-29.41c0.67-0.59,0.64-4.9,0.79-5.5c1.29-5.18,4.09-13.59,4.09-13.59l0.79-0.01l0.79,0.01c0,0,2.8,8.41,4.09,13.59c0.15,0.6,0.12,4.91,0.79,5.5c0.7,8.25,2.08,26.33,1.95,29.41c-0.24,6.42-1.24,14.92-1.24,14.92s7.24,3.67,11,3.42c3.74-0.25,12.58-1.729,12.74-2.5c0.21-1-1.08-9.84-1.08-9.84l0.75-16.16c2.25-10,1.29-11.13,1.79-14.38s3.17-33.04,2.92-39.04C284.34,354.44,282.27,348.21,280.77,344.17z"></path></g></g></g><path d="M250,368.358c-1.939-0.222-5.851-0.602-8.167-0.357c1,2.5,6.667,6,6.667,6l1.5-0.251l1.5,0.251c0,0,5.667-3.5,6.667-6C255.851,367.757,251.939,368.137,250,368.358z"></path><g><path d="M223.808,414.001c0,0-5.833-8.166-4.833-8.5s5.667,0.832,7.5,0.666s9.667-0.332,9.667,0.834s-7.333,7.999-9,8.166S223.808,414.001,223.808,414.001z"></path></g><path d="M276.191,414.001c0,0,5.834-8.166,4.834-8.5s-5.666,0.832-7.5,0.666s-9.667-0.332-9.667,0.834s7.333,7.999,9,8.166S276.191,414.001,276.191,414.001z"></path><path style="fill:#1C1B22;stroke:#000000;stroke-linecap:round;stroke-linejoin:round;" d="M281.25,399.625c0,0,1,4.875,0.5,6.125s-4.25,8.875-4.25,8.875"></path><path style="fill:#1C1B22;stroke:#000000;stroke-linecap:round;stroke-linejoin:round;" d="M218.75,399.625c0,0-1,4.875-0.5,6.125s4.25,8.875,4.25,8.875"></path></g><path style="fill:none;stroke:#000000;stroke-linecap:round;stroke-linejoin:round;" d="M250,345.86l-3.458,0.265c0,0,0.5,21.957,0.5,23.041c0.36,1.441,1.321,3.634,1.831,4.75h2.254c0.511-1.116,1.471-3.309,1.831-4.75c0-1.084,0.5-23.041,0.5-23.041L250,345.86z"></path></g><polygon style="fill:#1C1B22;stroke:#000000;stroke-linecap:round;stroke-linejoin:round;" points="282.333,347.667 217.667,347.667 218.724,341.833 281.275,341.833 "></polygon></g><path style="fill:#6E6E6E;stroke:#000000;stroke-linecap:round;stroke-linejoin:round;" d="M222.333,347.666c0,0-5.833,31.167-6.5,34.167s-6.333,8.166-6.333,8.166l1.833,4.334c0,0,5.667-5.667,7.167-7.834S226,347.5,226,347.5L222.333,347.666z"></path></g></g></svg>