<svg xmlns="http://www.w3.org/2000/svg" width="500" height="500" version="1.1"><g id="x9125"><g><path style="fill:#6E6E6E;stroke:#000000;stroke-linecap:round;stroke-linejoin:round;" d="M278.757,347h-57.513c-1.682,1.896-2.681,5.678-2.681,5.678L250,353.333l31.437-0.655C281.437,352.678,280.438,348.896,278.757,347z"></path><g><path style="fill:#6E6E6E;stroke:#000000;stroke-linecap:round;stroke-linejoin:round;" d="M281.104,351.666h-62.208C211.666,370,216.333,382,216.333,382h29l2.731-8.334h3.871l2.731,8.334h29C283.667,382,288.333,370,281.104,351.666z"></path></g><path style="fill:#505050;" d="M245.063,381.438l2.5-8.104h4.738l2.762,8.104l4.938,0.188c0,0-3.001-8.292-2.667-9.625s6.917-0.125,11.792-5.375c-3.667,0.333-8.751,2-18.75,2c-10,0-20.709-3.625-20.709-3.625s4.668,4.166,13.668,6.5c3,3-0.646,10-0.646,10L245.063,381.438z"></path><line style="fill:none;stroke:#000000;stroke-linecap:round;stroke-linejoin:round;" x1="250" y1="373" x2="250" y2="352.167"></line></g></g></svg>