<svg xmlns="http://www.w3.org/2000/svg" width="500" height="500" version="1.1"><g id="x9126"><g><g><g><path style="fill:#454547;stroke:#000000;stroke-linecap:round;stroke-linejoin:round;" d="M282.073,350.099c-0.883-3.443-1.722-6.451-2.493-9.099h-59.16c-0.771,2.647-1.61,5.655-2.493,9.099c-2.33,9.084-1.67,17.565-0.898,23.059l4.138,2.926c0,0-2.25,5.5-2.728,9.095l4.228,2.989c0,0-3.272,7.707-3.219,8.316l4.386,3.101c0,0-1.5,3.666-3.746,8.166c0.834,14.276,5.6,34.802,5.6,34.802s0.1,0.688,0.269,1.573c0,0,2.044,0.625,8.044,0.625s6.062-0.625,6.062-0.625c-0.254-2.303-0.93-4.479-0.93-4.479s2.545-15.104,3.164-20.971c0.854-8.1,0.442-16.269,0.442-16.269s0.085-14.15,0.243-16.359c0.362-5.084,5.083-13.288,5.083-13.288h3.871c0,0,4.721,8.204,5.083,13.288c0.158,2.209,0.243,16.359,0.243,16.359s-0.411,8.169,0.442,16.269c0.619,5.866,3.164,20.971,3.164,20.971s-0.675,2.176-0.93,4.479c0,0,0.062,0.625,6.062,0.625s8.045-0.625,8.045-0.625c0.169-0.886,0.269-1.573,0.269-1.573s4.765-20.525,5.6-34.802c-2.247-4.5-3.746-8.166-3.746-8.166l4.386-3.101c0.053-0.609-3.219-8.316-3.219-8.316l4.227-2.989c-0.477-3.595-2.727-9.095-2.727-9.095l4.138-2.926C283.744,367.664,284.402,359.183,282.073,350.099z"></path><path style="fill:#2D2D2F;" d="M253.416,369.001c-1.674,0.131-2.944-0.021-3.416-0.091c-0.471,0.07-1.744,0.222-3.417,0.091c-2.125-0.166-10.167-2.084-11.583-3.042c-0.208,0.875,3.108,3.379,3.75,4.125c1.542,1.792,8.583,2.875,8.583,2.875l0.417-0.667h4.5l0.416,0.667c0,0,7.041-1.083,8.584-2.875c0.641-0.746,3.957-3.25,3.75-4.125C263.582,366.917,255.541,368.835,253.416,369.001z"></path><g><g><path style="fill:#373739;stroke:#000000;stroke-linecap:round;stroke-linejoin:round;" d="M225.956,444.125c0.295,1.544,0.804,3.693,1.376,3.885c0.902,0.3,12.326,0.685,12.625-0.451c0.258-0.982,0.238-2.226,0.104-3.434H225.956z"></path><path style="fill:#6E6E6E;" d="M239.566,446.701c0,0-1.565,0.498-6.066,0.498s-6.334-0.498-6.334-0.498l-0.25-1.125c0,0,1.834,0.498,6.459,0.498s6.291-0.498,6.291-0.498L239.566,446.701z"></path></g><g><path style="fill:none;stroke:#000000;stroke-linecap:round;stroke-linejoin:round;" d="M232.333,341.667c0,0-3,18.667-3,24s2,14.333,2,14.333l-0.667,10.667l1,12l1.608,29.733"></path><g><path style="fill:none;stroke:#000000;stroke-linecap:round;stroke-linejoin:round;" d="M226.563,444.625c0,0,2.938-3.438,7.563-5.063"></path><path style="fill:none;stroke:#000000;stroke-linecap:round;stroke-linejoin:round;" d="M230.375,437.875c0,0,5.5,2.125,9.375,4.375"></path><path style="fill:none;stroke:#000000;stroke-linecap:round;stroke-linejoin:round;" d="M224.875,437.688c0,0,4.813-4.125,8.438-5.25c0,0,4,1.188,6.375,3.125"></path><path style="fill:none;stroke:#000000;stroke-linecap:round;stroke-linejoin:round;" d="M225.75,441.438c0,0,3.188-3.375,8.563-5.438"></path><path style="fill:none;stroke:#000000;stroke-linecap:round;stroke-linejoin:round;" d="M229.5,434.5c0,0,7.188,2.063,9.625,3.813"></path></g></g><path style="fill:#2D2D2F;" d="M247,373.334c0,0-9.167,4.166-10,3.333s-0.5-3,0.167-3.667S247,373.334,247,373.334z"></path><g><g><path style="fill:#6E6E6E;" d="M216.667,372.917c0,0,6.667,6.167,16.333,9.5c-8.833-1.167-16-6.417-16-6.417L216.667,372.917z"></path><path style="fill:none;stroke:#000000;stroke-linecap:round;stroke-linejoin:round;" d="M216.967,373.132c0,0,9.966,8.868,25.299,11.201"></path></g><g><path style="fill:#6E6E6E;" d="M218.083,384.917c0,0,6.917,5.666,16.584,8.999c-9.833-1.166-16.25-5.916-16.25-5.916L218.083,384.917z"></path><path style="fill:none;stroke:#000000;stroke-linecap:round;stroke-linejoin:round;" d="M218.25,385.083c0,0,9.266,8,24.599,10.333"></path></g><g><path style="fill:#6E6E6E;" d="M219.166,396.333c0,0,7.001,5.667,16.668,9c-9.833-1.167-16.334-5.917-16.334-5.917L219.166,396.333z"></path><path style="fill:none;stroke:#000000;stroke-linecap:round;stroke-linejoin:round;" d="M219.333,396.5c0,0,8.083,7.584,23.417,9.917"></path></g></g><path style="fill:none;stroke:#000000;stroke-linecap:round;stroke-linejoin:round;" d="M239.167,368.167c1,0.833,8.897,4.593,8.897,4.593"></path><path style="fill:none;stroke:#000000;stroke-linecap:round;stroke-linejoin:round;" d="M246,370c0-1.333,0-8.166,0-8.166"></path><g><polyline style="fill:none;stroke:#000000;stroke-linecap:round;stroke-linejoin:round;" points="243.167,341.667 243.167,359 245.453,361 "></polyline><polyline style="fill:none;stroke:#000000;stroke-linecap:round;stroke-linejoin:round;" points="248.5,341.667 248.5,359 246.214,361 "></polyline></g><g><g><path style="fill:#373739;stroke:#000000;stroke-linecap:round;stroke-linejoin:round;" d="M274.045,444.125c-0.296,1.544-0.805,3.693-1.377,3.885c-0.902,0.3-12.326,0.685-12.625-0.451c-0.258-0.982-0.238-2.226-0.104-3.434H274.045z"></path><path style="fill:#6E6E6E;" d="M260.434,446.701c0,0,1.565,0.498,6.066,0.498c4.5,0,6.334-0.498,6.334-0.498l0.25-1.125c0,0-1.835,0.498-6.459,0.498c-4.625,0-6.291-0.498-6.291-0.498L260.434,446.701z"></path></g><g><path style="fill:none;stroke:#000000;stroke-linecap:round;stroke-linejoin:round;" d="M267.666,341.667c0,0,3,18.667,3,24s-2,14.333-2,14.333l0.668,10.667l-1,12l-1.609,29.733"></path><g><path style="fill:none;stroke:#000000;stroke-linecap:round;stroke-linejoin:round;" d="M273.438,444.625c0,0-2.938-3.438-7.563-5.063"></path><path style="fill:none;stroke:#000000;stroke-linecap:round;stroke-linejoin:round;" d="M269.625,437.875c0,0-5.5,2.125-9.375,4.375"></path><path style="fill:none;stroke:#000000;stroke-linecap:round;stroke-linejoin:round;" d="M275.125,437.688c0,0-4.813-4.125-8.438-5.25c0,0-4,1.188-6.375,3.125"></path><path style="fill:none;stroke:#000000;stroke-linecap:round;stroke-linejoin:round;" d="M274.25,441.438c0,0-3.188-3.375-8.563-5.438"></path><path style="fill:none;stroke:#000000;stroke-linecap:round;stroke-linejoin:round;" d="M270.5,434.5c0,0-7.188,2.063-9.625,3.813"></path></g></g><path style="fill:#2D2D2F;" d="M252.916,373.334c0,0,9.167,4.166,10,3.333s0.501-3-0.167-3.667C262.083,372.333,252.916,373.334,252.916,373.334z"></path><g><g><path style="fill:#6E6E6E;" d="M283.334,372.917c0,0-6.668,6.167-16.334,9.5c8.834-1.167,16-6.417,16-6.417L283.334,372.917z"></path><path style="fill:none;stroke:#000000;stroke-linecap:round;stroke-linejoin:round;" d="M283.033,373.132c0,0-9.967,8.868-25.299,11.201"></path></g><g><path style="fill:#6E6E6E;" d="M281.918,384.917c0,0-6.918,5.666-16.584,8.999c9.832-1.166,16.25-5.916,16.25-5.916L281.918,384.917z"></path><path style="fill:none;stroke:#000000;stroke-linecap:round;stroke-linejoin:round;" d="M281.75,385.083c0,0-9.266,8-24.6,10.333"></path></g><g><path style="fill:#6E6E6E;" d="M280.834,396.333c0,0-7.001,5.667-16.668,9c9.834-1.167,16.335-5.917,16.335-5.917L280.834,396.333z"></path><path style="fill:none;stroke:#000000;stroke-linecap:round;stroke-linejoin:round;" d="M280.666,396.5c0,0-8.083,7.584-23.416,9.917"></path></g></g><path style="fill:none;stroke:#000000;stroke-linecap:round;stroke-linejoin:round;" d="M260.833,368.167c-1,0.833-8.897,4.593-8.897,4.593"></path><path style="fill:none;stroke:#000000;stroke-linecap:round;stroke-linejoin:round;" d="M254,370c0-1.333,0-8.166,0-8.166"></path><g><polyline style="fill:none;stroke:#000000;stroke-linecap:round;stroke-linejoin:round;" points="256.833,341.667 256.833,359 254.547,361 "></polyline><polyline style="fill:none;stroke:#000000;stroke-linecap:round;stroke-linejoin:round;" points="251.5,341.667 251.5,359 253.785,361 "></polyline></g></g></g></g><g><g><g><ellipse style="fill:#B4A67D;stroke:#000000;stroke-linecap:round;stroke-linejoin:round;" cx="245.495" cy="346.688" rx="1.244" ry="1.667"></ellipse><ellipse style="fill:#B4A67D;stroke:#000000;stroke-linecap:round;stroke-linejoin:round;" cx="245.495" cy="350.604" rx="1.244" ry="1.667"></ellipse><ellipse style="fill:#B4A67D;stroke:#000000;stroke-linecap:round;stroke-linejoin:round;" cx="254.506" cy="346.688" rx="1.244" ry="1.667"></ellipse><ellipse style="fill:#B4A67D;stroke:#000000;stroke-linecap:round;stroke-linejoin:round;" cx="254.506" cy="350.604" rx="1.244" ry="1.667"></ellipse></g><g><g><path style="fill:#FFFFFF;stroke:#000000;stroke-linecap:round;stroke-linejoin:round;" d="M246.46,351.19l7.586-3.667l0,0c0.387-0.188,0.588-0.76,0.448-1.279s-0.566-0.789-0.954-0.602l0,0l-7.587,3.667l0,0c-0.388,0.188-0.588,0.76-0.449,1.279C245.645,351.108,246.073,351.378,246.46,351.19L246.46,351.19z"></path></g><g><path style="fill:#FFFFFF;stroke:#000000;stroke-linecap:round;stroke-linejoin:round;" d="M254.047,349.31l-7.586-3.667l0,0c-0.388-0.188-0.815,0.082-0.956,0.602c-0.139,0.52,0.062,1.092,0.449,1.279l0,0l7.587,3.667l0,0c0.388,0.188,0.814-0.082,0.954-0.602S254.434,349.497,254.047,349.31L254.047,349.31z"></path></g></g></g><g><g><ellipse style="fill:#B4A67D;stroke:#000000;stroke-linecap:round;stroke-linejoin:round;" cx="245.495" cy="354.813" rx="1.244" ry="1.667"></ellipse><ellipse style="fill:#B4A67D;stroke:#000000;stroke-linecap:round;stroke-linejoin:round;" cx="254.506" cy="354.813" rx="1.244" ry="1.667"></ellipse></g><g><g><path style="fill:#FFFFFF;stroke:#000000;stroke-linecap:round;stroke-linejoin:round;" d="M246.46,355.399l7.586-3.667l0,0c0.387-0.188,0.588-0.76,0.448-1.279s-0.566-0.789-0.954-0.602l0,0l-7.587,3.667l0,0c-0.388,0.188-0.588,0.76-0.449,1.279C245.645,355.317,246.073,355.587,246.46,355.399L246.46,355.399z"></path></g><g><path style="fill:#FFFFFF;stroke:#000000;stroke-linecap:round;stroke-linejoin:round;" d="M254.047,353.519l-7.586-3.667l0,0c-0.388-0.188-0.815,0.082-0.956,0.602c-0.139,0.52,0.062,1.092,0.449,1.279l0,0l7.587,3.667l0,0c0.388,0.188,0.814-0.082,0.954-0.602S254.434,353.706,254.047,353.519L254.047,353.519z"></path></g></g></g><g><g><ellipse style="fill:#B4A67D;stroke:#000000;stroke-linecap:round;stroke-linejoin:round;" cx="245.495" cy="359.022" rx="1.244" ry="1.667"></ellipse><ellipse style="fill:#B4A67D;stroke:#000000;stroke-linecap:round;stroke-linejoin:round;" cx="254.506" cy="359.022" rx="1.244" ry="1.667"></ellipse></g><g><g><path style="fill:#FFFFFF;stroke:#000000;stroke-linecap:round;stroke-linejoin:round;" d="M246.46,359.608l7.586-3.667l0,0c0.387-0.188,0.588-0.76,0.448-1.279s-0.566-0.789-0.954-0.602l0,0l-7.587,3.667l0,0c-0.388,0.188-0.588,0.76-0.449,1.279C245.645,359.526,246.073,359.796,246.46,359.608L246.46,359.608z"></path></g><g><path style="fill:#FFFFFF;stroke:#000000;stroke-linecap:round;stroke-linejoin:round;" d="M254.047,357.728l-7.586-3.667l0,0c-0.388-0.188-0.815,0.082-0.956,0.602c-0.139,0.52,0.062,1.092,0.449,1.279l0,0l7.587,3.667l0,0c0.388,0.188,0.814-0.082,0.954-0.602S254.434,357.915,254.047,357.728L254.047,357.728z"></path></g></g></g></g></g><g><path style="fill:#39393C;stroke:#000000;stroke-linecap:round;stroke-linejoin:round;" d="M279.75,340.75l-29.75-0.5l-29.75,0.5l-2,7.25c16.5,0,31.75,0,31.75,0s15.25,0,31.75,0L279.75,340.75z"></path><g><g><polygon style="fill:#FFFFFF;stroke:#000000;stroke-linecap:round;stroke-linejoin:round;" points="235.25,340.25 235.25,342.5 232.5,342.5 232.5,344.5 235.25,344.5 235.25,348.25 237,348.25 237,340.25 "></polygon><g><line style="fill:#FFFFFF;stroke:#000000;stroke-linecap:round;stroke-linejoin:round;" x1="239.75" y1="340.75" x2="239.75" y2="347.75"></line><line style="fill:#FFFFFF;stroke:#000000;stroke-linecap:round;stroke-linejoin:round;" x1="242" y1="340.75" x2="242" y2="347.75"></line></g></g><g><polygon style="fill:#FFFFFF;stroke:#000000;stroke-linecap:round;stroke-linejoin:round;" points="264.75,340.25 264.75,342.5 267.5,342.5 267.5,344.5 264.75,344.5 264.75,348.25 263,348.25 263,340.25 "></polygon><g><line style="fill:#FFFFFF;stroke:#000000;stroke-linecap:round;stroke-linejoin:round;" x1="260.25" y1="340.75" x2="260.25" y2="347.75"></line><line style="fill:#FFFFFF;stroke:#000000;stroke-linecap:round;stroke-linejoin:round;" x1="258" y1="340.75" x2="258" y2="347.75"></line></g></g></g></g></g></g></svg>