<svg xmlns="http://www.w3.org/2000/svg" width="500" height="500" version="1.1"><g id="x9128"><g><g><g><path style="fill:#6E6E6E;stroke:#000000;stroke-linecap:round;stroke-linejoin:round;" d="M284.438,358.25c-0.16-3.81-2.23-10.04-3.73-14.08h-61.415c-1.5,4.04-3.57,10.271-3.73,14.08c-0.25,6,2.42,35.79,2.92,39.04s-0.46,4.38,1.79,14.38l2.99,21.455c0,0,3.05,0.813,9.425,0.813s8.575-1.125,8.575-1.125s3.77-45.293,3.92-45.893c1.29-5.18,4.09-13.59,4.09-13.59l0.728-0.009l0.728,0.009c0,0,2.8,8.41,4.09,13.59c0.149,0.6,3.92,45.893,3.92,45.893s2.2,1.125,8.575,1.125s9.425-0.813,9.425-0.813l2.99-21.455c2.25-10,1.29-11.13,1.79-14.38S284.688,364.25,284.438,358.25z"></path><g><path style="fill:#505050;" d="M250,368.358c-1.939-0.222-5.851-0.602-8.167-0.357c1,2.5,6.667,6,6.667,6l1.5-0.251l1.5,0.251c0,0,5.667-3.5,6.667-6C255.851,367.757,251.939,368.137,250,368.358z"></path></g><path style="fill:none;stroke:#000000;stroke-linecap:round;stroke-linejoin:round;" d="M250,345.86l-3.458,0.265c0,0,0.5,21.957,0.5,23.041c0.36,1.441,1.321,3.634,1.831,4.75h2.254c0.511-1.116,1.471-3.309,1.831-4.75c0-1.084,0.5-23.041,0.5-23.041L250,345.86z"></path></g><polygon style="fill:#6E6E6E;stroke:#000000;stroke-linecap:round;stroke-linejoin:round;" points="282.333,347.667 217.667,347.667 218.724,341.833 281.275,341.833 "></polygon></g><g><polygon style="fill:#FAFAFA;" points="245,358.5 216.786,373.644 217.509,382.435 252.768,362.5 "></polygon><g style="opacity:0.8;"><path style="fill:#FAFAFA;" d="M253.375,379.918l1.913,6.643c0,0,13.54,3.64,26.082,7.816l0.579-6.593L253.375,379.918z"></path><path style="fill:#FAFAFA;" d="M255.631,390.992l0.551,5.264c0,0,20.216-9.495,26.173-12.541l0.461-5.6C277.089,380.75,255.783,390.578,255.631,390.992z"></path></g><g><path style="fill:#FAFAFA;stroke:#000000;stroke-linecap:round;stroke-linejoin:round;" d="M280.667,342.166C265.112,338.415,234,341.5,234,341.5s13.334,32.667,21.667,42.667c8.834-3.667,27.499-25.667,28.833-28.667C284.834,351.5,283,347,280.667,342.166z"></path><g><path style="fill:#E4E0F3;" d="M244.875,360.5c-0.302-0.255,10,14.875,12.625,15.875S279.125,361,279.75,359.5c-9.5,5.25-19.875,8.5-22.375,8S247.25,362.5,244.875,360.5z"></path><path style="fill:#E4E0F3;" d="M249.625,360.375c-0.347,0.521,6.375,3.375,10.25,3.25s13.75-5.625,12.5-6.25s-11.25-1.875-12.75-1.25S250.625,358.875,249.625,360.375z"></path></g></g></g></g></g></svg>