<svg xmlns="http://www.w3.org/2000/svg" width="500" height="500" version="1.1"><g id="x9129"><g><g><g id="bottomsXMLID_23_"><g><path style="fill:#6E6E6E;" d="M290.08,440.67h-7.16c0,0-0.17-1.53-0.46-4.12l3.7-0.04l2.77,2.58c0,0-0.04-0.81-0.1-2.18C289.3,438.81,289.72,440.11,290.08,440.67z"></path><path style="fill:#6E6E6E;" d="M275.04,344.14h-0.07c0.021-0.199,0.03-0.31,0.03-0.31S275.01,343.93,275.04,344.14z"></path><path style="fill:#6E6E6E;" d="M270.53,436.68l1.05-0.01c-0.17,1.41-0.33,2.59-0.5,3.5l-2.44,0.05L270.53,436.68z"></path><polygon style="fill:#6E6E6E;" points="268.64,440.22 268.41,440.64 265.08,440.29 "></polygon><path style="fill:#6E6E6E;" d="M265.08,440.29l-2.33,0.04c0,0,0.02-0.09,0.07-0.28L265.08,440.29z"></path><path style="fill:#6E6E6E;" d="M237.08,440.33l-2.33-0.04l2.26-0.24C237.06,440.24,237.08,440.33,237.08,440.33z"></path><polygon style="fill:#6E6E6E;" points="234.75,440.29 231.42,440.64 231.19,440.22 "></polygon><path style="fill:#6E6E6E;" d="M229.3,436.68l1.89,3.54l-2.44-0.05c-0.17-0.91-0.33-2.09-0.5-3.5L229.3,436.68z"></path><path style="fill:#6E6E6E;" d="M213.67,436.51l3.7,0.04c-0.29,2.59-0.46,4.12-0.46,4.12h-7.16c0.35-0.55,0.77-1.8,1.25-3.62c-0.07,1.28-0.1,2.04-0.1,2.04L213.67,436.51z"></path><path style="fill:#6E6E6E;" d="M288.83,436.91c-0.01-0.01-0.01-0.01-0.01-0.021c-0.301-6.47-1.24-25.229-1.84-29.699c-0.74-5.41-1.311-34.9-2.28-42.381c-0.98-7.479-3.83-20.81-3.83-20.81l-5.83,0.14h-0.07l-25.05,0.591l-23.9-0.561l-7.06-0.17c0,0-2.85,13.33-3.83,20.81c-0.97,7.48-1.54,36.971-2.28,42.381c-0.61,4.5-1.55,23.55-1.85,29.859c-0.07,1.28-0.1,2.04-0.1,2.04l2.77-2.58l3.7,0.04l10.88,0.12l1.05,0.01l1.89,3.54l3.56,0.07l2.26-0.24l11.52-1.229c0,0,0.24-27.681,0.48-40.32c0.26-1.83,0.57-3.76,0.91-5.69c0.33,1.931,0.64,3.86,0.9,5.69c0.24,12.64,0.48,40.32,0.48,40.32l11.521,1.229l2.26,0.24l3.56-0.07l1.891-3.54l1.05-0.01l10.88-0.12l3.7-0.04l2.77,2.58C288.93,439.09,288.89,438.28,288.83,436.91z"></path><g><path style="fill:#505050;" d="M275.522,380.625c0,0-3.563,47.25-3.438,46.875s6-5.167,9,0.167C280.46,420.667,275.522,380.625,275.522,380.625z"></path><path style="fill:#505050;" d="M224.478,380.625c0,0,3.563,47.25,3.438,46.875s-6-5.167-9,0.167C219.54,420.667,224.478,380.625,224.478,380.625z"></path></g><g><path style="fill:#505050;" d="M249.938,393.25c-0.375,0-1.375,4.75-1.375,4.75s-6.875-6.5-7.25-8.625C245.438,391.375,249.938,393.25,249.938,393.25z"></path><path style="fill:#505050;" d="M250.063,393.25c0.375,0,1.375,4.75,1.375,4.75s6.875-6.5,7.25-8.625C254.563,391.375,250.063,393.25,250.063,393.25z"></path></g><path style="fill:#505050;" d="M280.327,421.67c0.002,0.009,0.006,0.034,0.007,0.038C280.343,421.734,280.339,421.716,280.327,421.67z"></path><path style="fill:#505050;" d="M219.496,421.708c0.001-0.004,0.005-0.029,0.007-0.038C219.491,421.716,219.487,421.734,219.496,421.708z"></path></g><g><line style="fill:none;stroke:#000000;stroke-linecap:round;stroke-linejoin:round;" x1="271.58" y1="436.67" x2="282.46" y2="436.55"></line><polyline style="fill:none;stroke:#000000;stroke-linecap:round;stroke-linejoin:round;" points="265.08,440.29 268.41,440.64 268.64,440.22 "></polyline><path style="fill:none;stroke:#000000;stroke-linecap:round;stroke-linejoin:round;" d="M237.01,440.05l11.52-1.229c0,0,0.24-27.681,0.48-40.32c0.26-1.83,0.57-3.76,0.91-5.69c0.33,1.931,0.64,3.86,0.9,5.69c0.24,12.64,0.48,40.32,0.48,40.32l11.521,1.229"></path><polyline style="fill:none;stroke:#000000;stroke-linecap:round;stroke-linejoin:round;" points="231.19,440.22 231.42,440.64 234.75,440.29 "></polyline><line style="fill:none;stroke:#000000;stroke-linecap:round;stroke-linejoin:round;" x1="217.37" y1="436.55" x2="228.25" y2="436.67"></line><path style="fill:none;stroke:#000000;stroke-linecap:round;stroke-linejoin:round;" d="M274.97,344.14l-25.05,0.591l-23.9-0.561l-7.06-0.17c0,0-2.85,13.33-3.83,20.81c-0.97,7.48-1.54,36.971-2.28,42.381c-0.61,4.5-1.55,23.55-1.85,29.859"></path><path style="fill:none;stroke:#000000;stroke-linecap:round;stroke-linejoin:round;" d="M288.82,436.89c-0.301-6.47-1.24-25.229-1.84-29.699c-0.74-5.41-1.311-34.9-2.28-42.381c-0.98-7.479-3.83-20.81-3.83-20.81l-5.83,0.14"></path><path style="fill:none;stroke:#000000;stroke-linecap:round;stroke-linejoin:round;" d="M282.46,436.55c-1.37-12.28-5.46-48.45-7.21-58.68c0,0-1.82,43.21-3.67,58.8c-0.17,1.41-0.33,2.59-0.5,3.5l-2.44,0.05l-3.56,0.07l-2.33,0.04c0,0,0.02-0.09,0.07-0.28c0.26-1.12,1.3-5.72,3.01-15.22c1.92-10.65,8.62-75.63,9.14-80.69c0.021-0.199,0.03-0.31,0.03-0.31s0.01,0.1,0.04,0.31c0.64,5.19,9.37,74.99,13.78,92.75c0,0.011,0,0.011,0.01,0.021c0.47,1.899,0.89,3.2,1.25,3.76h-7.16C282.92,440.67,282.75,439.14,282.46,436.55z"></path><path style="fill:none;stroke:#000000;stroke-linecap:round;stroke-linejoin:round;" d="M217.37,436.55c1.37-12.28,5.46-48.45,7.21-58.68c0,0,1.82,43.21,3.67,58.8c0.17,1.41,0.33,2.59,0.5,3.5l2.44,0.05l3.56,0.07l2.33,0.04c0,0-0.02-0.09-0.07-0.28c-0.26-1.12-1.3-5.72-3.01-15.22c-2-11.08-8-79.83-8-79.83s-10.25,74-15,92.05c-0.48,1.82-0.9,3.07-1.25,3.62h7.16C216.91,440.67,217.08,439.14,217.37,436.55z"></path><path style="fill:none;stroke:#000000;stroke-linecap:round;stroke-linejoin:round;" d="M240.75,388.5c0,0,6.77,4.22,9.17,4.31c0.03,0,0.05,0,0.08,0c2.33,0,9.25-4.31,9.25-4.31"></path></g></g></g><path style="fill:#505050;stroke:#000000;stroke-linecap:round;stroke-linejoin:round;" d="M283.667,355.667c0,0-9.502,1.333-33.834,1.333s-33.499-1.333-33.499-1.333l2-12.167c0,0,3.498,0.833,31.499,0.833s31.834-0.833,31.834-0.833L283.667,355.667z"></path></g></g></svg>