<svg xmlns="http://www.w3.org/2000/svg" width="500" height="500" version="1.1"><g id="x023"><g><path style="fill:#6E6E6E;stroke:#000000;stroke-linecap:round;stroke-linejoin:round;" d="M280.801,402.75c0.375-3,3.949-39.75,3.324-44.625s-3.426-11.75-3.426-11.75s-10.949,1.5-30.449,1.5s-30.95-1.5-30.95-1.5s-2.8,6.875-3.425,11.75s2.95,41.625,3.325,44.625s2.425,21.5,2.425,21.5s-0.875,4-1.625,6.25c0.625,1,3.375,3.375,3.375,3.375l1,4.875c0,0,2-1.625,5.875-1.125s7.5,1.625,8.625,2.5s1.625,3,1.625,3s0.625-0.75,2.375-1.625c0.625-1-0.25-5.375-0.25-5.375l2-2.875c0,0-0.625-1.5-1.875-4.125c0.75-3.75,1.625-30.375,1.875-39.125c1-3.875,4-16.5,4-16.5h2.75c0,0,3,12.625,4,16.5c0.25,8.75,1.125,35.375,1.875,39.125c-1.25,2.625-1.875,4.125-1.875,4.125l2,2.875c0,0-0.875,4.375-0.25,5.375c1.75,0.875,2.375,1.625,2.375,1.625s0.5-2.125,1.625-3s4.75-2,8.625-2.5s5.875,1.125,5.875,1.125l1-4.875c0,0,2.75-2.375,3.375-3.375c-0.75-2.25-1.625-6.25-1.625-6.25S280.426,405.75,280.801,402.75z"></path><g><line style="fill:none;stroke:#000000;stroke-linecap:round;stroke-linejoin:round;" x1="246.688" y1="348.25" x2="247.167" y2="372.833"></line><path style="fill:none;stroke:#000000;stroke-linecap:round;stroke-linejoin:round;" d="M248.167,368.083c0,0,4.146-1.146,4.333-1.208s0.813-18.625,0.813-18.625"></path></g><g><path style="fill:none;stroke:#000000;stroke-linecap:round;stroke-linejoin:round;" d="M217.038,369.875c0,0,8.438-7.875,8.813-10.188s1.063-7.188,1.063-7.188"></path><path style="fill:none;stroke:#000000;stroke-linecap:round;stroke-linejoin:round;" d="M282.963,369.875c0,0-8.438-7.875-8.813-10.188s-1.063-7.188-1.063-7.188"></path></g><path style="fill:none;stroke:#000000;stroke-linecap:round;stroke-linejoin:round;" d="M250.813,373.438c0,0,7-2,8.313-2.688"></path><g><path style="fill:none;stroke:#000000;stroke-linecap:round;stroke-linejoin:round;" d="M252.938,374.625c0,0,7.625,10.25,7.938,11.25"></path><path style="fill:none;stroke:#000000;stroke-linecap:round;stroke-linejoin:round;" d="M247.063,374.625c0,0-7.625,10.25-7.938,11.25"></path></g><g><path style="fill:#3F3F3F;stroke:#000000;stroke-linecap:round;stroke-linejoin:round;" d="M281.25,353.032c0,0-6.876,1.593-31.125,1.593s-31.375-1.593-31.375-1.593v-6c0,0,11.374,0.843,31.375,0.843s31.125-0.843,31.125-0.843V353.032z"></path><g><path style="fill:#B2B2B2;stroke:#000000;stroke-linecap:round;stroke-linejoin:round;" d="M255.184,346.285h-10.367c-1.117,0-2.023,0.789-2.023,1.761v5.027c0,0.973,0.906,1.761,2.023,1.761h10.367c1.117,0,2.023-0.788,2.023-1.761v-5.027C257.207,347.074,256.301,346.285,255.184,346.285z M255.25,352.134c0,0.609-0.66,1.103-1.475,1.103h-7.551c-0.813,0-1.474-0.493-1.474-1.103v-3.148c0-0.608,0.661-1.103,1.475-1.103h7.551c0.814,0,1.475,0.494,1.475,1.103V352.134z"></path><path style="fill:#B2B2B2;stroke:#000000;stroke-linecap:round;stroke-linejoin:round;" d="M251.851,350.75c0,0.502-0.406,0.908-0.907,0.908h-6.22c-0.501,0-0.908-0.406-0.908-0.908l0,0c0-0.501,0.406-0.907,0.908-0.907h6.22C251.444,349.843,251.851,350.249,251.851,350.75L251.851,350.75z"></path></g></g><g><path style="fill:#6E6E6E;stroke:#000000;stroke-linecap:round;stroke-linejoin:round;" d="M232.675,354.25l0.083-8.334c0,0-2-0.249-2.666,0.084c-0.5,1.416-0.583,7.084-0.167,8.25"></path><path style="fill:#6E6E6E;stroke:#000000;stroke-linecap:round;stroke-linejoin:round;" d="M267.325,354.25l-0.083-8.334c0,0,2-0.249,2.666,0.084c0.5,1.416,0.584,7.084,0.167,8.25"></path></g><g><path style="fill:#3F3F3F;stroke:#000000;stroke-linecap:round;stroke-linejoin:round;" d="M229.083,373.5c0,0,0.333,40.334,0.833,50.167c-1.167,2.666-1.667,5.5-1.667,5.5l1.167,3.833"></path><path style="fill:#3F3F3F;stroke:#000000;stroke-linecap:round;stroke-linejoin:round;" d="M270.917,373.5c0,0-0.333,40.334-0.833,50.167c1.167,2.666,1.667,5.5,1.667,5.5L270.584,433"></path></g></g></g></svg>