<svg xmlns="http://www.w3.org/2000/svg" width="500" height="500" version="1.1"><g id="x024"><g><path style="fill:#6E6E6E;stroke:#000000;stroke-linecap:round;stroke-linejoin:round;" d="M287.25,394.167c1.168-6.166-0.166-19.5-0.166-19.5c-0.834-6-0.834-10.5-3.168-16.167c-0.332-2.833-2.666-12-2.666-12s-6.751,2-31.125,2s-31.375-2-31.375-2s-2.333,9.167-2.667,12c-2.333,5.667-2.333,10.167-3.167,16.167c0,0-1.334,13.334-0.167,19.5c-0.667,2.5-0.5,6.666-0.5,6.666s10.167,3,18.333,3s16.833-2.5,16.833-2.5s-0.5-10.5-0.667-13.333c1.333-8.333,2.667-14,2.667-14l0.583-0.146l0.583,0.146c0,0,1.333,5.667,2.667,14c-0.166,2.833-0.666,13.333-0.666,13.333s8.666,2.5,16.832,2.5c8.168,0,18.334-3,18.334-3S287.916,396.667,287.25,394.167z"></path><path style="fill:none;stroke:#000000;stroke-linecap:round;stroke-linejoin:round;" d="M218.5,352c0,0,7.625,2.5,31.5,2.5s31.5-2.5,31.5-2.5"></path><g><path style="fill:none;stroke:#000000;stroke-linecap:round;stroke-linejoin:round;" d="M213.75,397.166c0,0,11.166,3,18,3c6.833,0,14.333-2.166,14.333-2.166"></path><path style="fill:none;stroke:#000000;stroke-linecap:round;stroke-linejoin:round;" d="M286.25,397.166c0,0-10.167,3-17,3S254.917,398,254.917,398"></path></g><g><path style="fill:none;stroke:#000000;stroke-linecap:round;stroke-linejoin:round;" d="M279.916,359.833c1.167,2.5,3,7.667,3.667,15.167s0.333,18.666,0.333,18.666"></path><path style="fill:none;stroke:#000000;stroke-linecap:round;stroke-linejoin:round;" d="M220.084,359.833c-1.167,2.5-3,7.667-3.667,15.167s-0.333,18.666-0.333,18.666"></path></g><g><line style="fill:none;stroke:#000000;stroke-linecap:round;stroke-linejoin:round;" x1="246.813" y1="354.833" x2="247.202" y2="372.833"></line><path style="fill:none;stroke:#000000;stroke-linecap:round;stroke-linejoin:round;" d="M248.202,368.083c0,0,4.146-1.146,4.334-1.208c0.127-0.042,0.453-6.533,0.651-12.034"></path></g><g><path style="fill:none;stroke:#000000;stroke-linecap:round;stroke-linejoin:round;" d="M252.938,374.625c0,0,7.625,10.25,7.938,11.25"></path><path style="fill:none;stroke:#000000;stroke-linecap:round;stroke-linejoin:round;" d="M250.813,373.438c0,0,7-2,8.313-2.688"></path><path style="fill:none;stroke:#000000;stroke-linecap:round;stroke-linejoin:round;" d="M247.063,374.625c0,0-7.625,10.25-7.938,11.25"></path></g><g><path style="fill:none;stroke:#000000;stroke-linecap:round;stroke-linejoin:round;" d="M272.626,354c0,0,1.5,7.166,2.833,9.166s6.416,3.167,6.416,3.167"></path><path style="fill:none;stroke:#000000;stroke-linecap:round;stroke-linejoin:round;" d="M228.374,354c0,0-1.5,7.166-2.833,9.166s-7.416,3.167-7.416,3.167"></path></g></g></g></svg>