<svg xmlns="http://www.w3.org/2000/svg" width="500" height="500" version="1.1"><g id="x025"><g><path style="fill:#6E6E6E;stroke:#000000;stroke-linecap:round;stroke-linejoin:round;" d="M284.19,371.045c0.453-4.527,1.219-12.557,0.226-16.528c-0.904-3.622-3.849-9.963-3.849-9.963s-1.567,4.113-30.901,4.113c-29.333,0-30.234-4.113-30.234-4.113s-2.943,6.341-3.849,9.963c-0.993,3.972-0.226,12.001,0.227,16.528l-1.585,4.529c0,0,0.478,4.077,16.982,4.98c16.529,0.906,18.34-2.49,18.34-2.49l-0.679-3.342h2.265l-0.68,3.342c0,0,1.811,3.396,18.341,2.49c16.504-0.903,16.981-4.98,16.981-4.98L284.19,371.045z"></path><path style="fill:none;stroke:#000000;stroke-linecap:round;stroke-linejoin:round;" d="M240.438,370.486c0,0,4.188,3.188,8.313,4.125"></path><path style="fill:none;stroke:#000000;stroke-linecap:round;stroke-linejoin:round;" d="M259.563,370.486c0,0-4.188,3.188-8.313,4.125"></path></g></g></svg>