<svg xmlns="http://www.w3.org/2000/svg" width="500" height="500" version="1.1"><g id="x029"><g><g><g><g><path style="fill:#6E6E6E;" d="M287.416,377.583c1.291,15.104,6,57.255,6,57.255s-14.941,5.921-24.135,6.81c-9.191,0.889-12.258-1.182-13.025-2.367c-0.766-1.188-0.766-2.964-0.766-2.964l-3.064-0.889L250,377.579l-2.425,57.849l-3.065,0.889c0,0,0,1.776-0.767,2.964c-0.766,1.186-3.831,3.256-13.024,2.367c-9.192-0.889-24.135-6.81-24.135-6.81s4.708-42.15,5.999-57.255c0.323-11.253,5.296-30.487,5.296-30.487l32.121,2.91l31.22-2.91C281.221,347.096,287.096,366.33,287.416,377.583z"></path></g><line style="fill:none;stroke:#000000;stroke-linecap:round;stroke-linejoin:round;" x1="250" y1="357.408" x2="250" y2="377.579"></line><path style="fill:#505050;" d="M250.758,376.988l1.669,58.441l3.064,0.888l0.764,2.963c0,0,2.74,2.665,6.816,2.368c-1.439-35.244-7.467-66.143-7.467-66.143L250.758,376.988z"></path><path style="fill:#505050;" d="M249.092,376.988l-1.637,58.441l-3.064,0.888l-0.767,2.963c0,0-2.738,2.665-6.816,2.368c1.441-35.244,7.438-66.143,7.438-66.143L249.092,376.988z"></path><path style="fill:none;stroke:#666666;stroke-linecap:round;stroke-linejoin:round;" d="M246.819,376.988l-2.12,26.658c0.302,2.369-3.213,37.113-3.213,37.113"></path><path style="fill:#505050;" d="M248.941,377.875c-1.515-0.592-13.33-1.184-14.542-4.146c-1.212-2.961-0.606-6.219-0.606-6.219l15.753,7.701l14.845-7.701c2.424,2.073,1.213,7.108-0.908,7.701C261.361,375.802,248.941,377.875,248.941,377.875z"></path><g><path style="fill:none;stroke:#000000;stroke-linecap:round;stroke-linejoin:round;" d="M237.655,372.841c0,0,6.968,4.146,9.694,4.442"></path><path style="fill:none;stroke:#000000;stroke-linecap:round;stroke-linejoin:round;" d="M262.345,372.841c0,0-6.967,4.146-9.695,4.442"></path></g><path style="fill:none;stroke:#8C8C8C;stroke-linecap:round;stroke-linejoin:round;" d="M276.434,350.597c0,0,6.059,24.024,6.664,26.394c0.607,2.369,6.301,59.031,6.301,59.031"></path><path style="fill:none;stroke:#8C8C8C;stroke-linecap:round;stroke-linejoin:round;" d="M269.77,352.077c0,0,5.756,27.282,6.059,29.06c0.303,1.778,8.053,57.032,8.053,57.032"></path><polyline style="fill:none;stroke:#8C8C8C;stroke-linecap:round;stroke-linejoin:round;" points="261.893,352.077 267.043,372.545 276.205,439.28 "></polyline><path style="fill:none;stroke:#8C8C8C;stroke-linecap:round;stroke-linejoin:round;" d="M254.621,352.077c0.605,1.777,4.545,22.54,4.545,22.54c1.816,0.594,9.605,67.031,9.605,67.031"></path><path style="fill:none;stroke:#8C8C8C;stroke-linecap:round;stroke-linejoin:round;" d="M225.008,350.597c0,0-6.059,24.024-6.666,26.394c-0.606,2.369-6.599,59.031-6.599,59.031"></path><path style="fill:none;stroke:#8C8C8C;stroke-linecap:round;stroke-linejoin:round;" d="M231.672,352.077c0,0-5.756,27.282-6.059,29.06c-0.303,1.778-8.354,57.032-8.354,57.032"></path><polyline style="fill:none;stroke:#8C8C8C;stroke-linecap:round;stroke-linejoin:round;" points="239.549,352.077 234.399,372.545 224.936,439.28 "></polyline><path style="fill:none;stroke:#8C8C8C;stroke-linecap:round;stroke-linejoin:round;" d="M246.819,352.077c-0.605,1.777-4.543,22.54-4.543,22.54c-1.817,0.594-9.905,67.031-9.905,67.031"></path><g><path style="fill:none;stroke:#666666;stroke-linecap:round;stroke-linejoin:round;" d="M254.621,376.988l2.121,26.658c-0.303,2.369,2.914,37.113,2.914,37.113"></path></g></g><g id="bottomsXMLID_4_"><g><path style="fill:none;stroke:#000000;stroke-linecap:round;stroke-linejoin:round;" d="M287.416,377.583c-0.32-11.253-6.195-30.487-6.195-30.487l-31.22,2.91l-32.121-2.91c0,0-4.974,19.234-5.296,30.487c-1.291,15.104-5.999,57.255-5.999,57.255s14.943,5.921,24.135,6.81c9.193,0.889,12.258-1.182,13.024-2.367c0.767-1.188,0.767-2.964,0.767-2.964l3.065-0.889L250,377.579l2.425,57.849l3.064,0.889c0,0,0,1.776,0.766,2.964c0.768,1.186,3.834,3.256,13.025,2.367c9.193-0.889,24.135-6.81,24.135-6.81S288.707,392.688,287.416,377.583z"></path><g><path style="fill:none;stroke:#000000;stroke-linecap:round;stroke-linejoin:round;" d="M251.078,377.875c0,0,5.453,29.918,6.969,32.88"></path><path style="fill:none;stroke:#000000;stroke-linecap:round;stroke-linejoin:round;" d="M248.922,377.875c0,0-5.453,29.918-6.969,32.88"></path></g></g></g></g><g id="bottomsXMLID_3_"><g><path style="fill:#6E6E6E;stroke:#000000;stroke-linecap:round;stroke-linejoin:round;" d="M282.145,347.566c-0.611-2.582-1.223-4.018-1.223-4.018s-15.773,3.155-30.467,3.155c-14.692,0-31.366-3.155-31.366-3.155s-1.187,3.855-1.224,4.018c1.819,1.539,8.574,4.587,32.59,4.587C274.473,352.153,281.898,347.778,282.145,347.566z"></path></g></g></g></g></svg>