<svg xmlns="http://www.w3.org/2000/svg" width="500" height="500" version="1.1"><g id="x030"><g><g><path style="fill:#6E6E6E;stroke:#000000;stroke-linecap:round;stroke-linejoin:round;" d="M281.131,347.967l-31.238,2.564l-31.239-2.564c0,0-2.524,10.668-2.071,18.747c0.281,5.028,1.976,20.271,1.976,22.1c-1.333,2.687-1.499,4.229-1.499,4.687c0,0.458,1,3,2.403,6.135c-0.924,3.24-0.799,4.865-0.799,4.865s0.875,2.25,1.563,4.625c-0.226,2.133,1.333,10.019,1.785,13.066c-0.535,4.371-0.845,5.811-0.619,6.421c0.227,0.61,1.583,1.98,1.583,1.98l0.905,6.402c0,0,1.969,1.942,8.721,1.817c4.75,0.375,7.563-1.938,7.563-1.938s0.821-4.413,1.5-5.938c1.357-1.829,1.813-2.125,2.5-4.313c-0.063-1.188-0.809-3.977-1.261-5.653c-0.453-1.676,0.321-10.516,0.321-11.583s1.439-5.975,1.439-6.889s-1.188-3.438-1.188-3.438s0.5-2.875,1.188-4.875c-0.125-1.625-1.063-5-1.063-5s0.75-7.75,4.589-15.91h3.403c3.84,8.16,4.59,15.91,4.59,15.91s-0.938,3.375-1.063,5c0.688,2,1.188,4.875,1.188,4.875s-1.188,2.523-1.188,3.438s1.439,5.821,1.439,6.889s0.773,9.907,0.322,11.583c-0.453,1.677-1.199,4.466-1.262,5.653c0.688,2.188,1.143,2.483,2.5,4.313c0.68,1.524,1.5,5.938,1.5,5.938s2.813,2.313,7.563,1.938c6.752,0.125,8.721-1.817,8.721-1.817l0.906-6.402c0,0,1.355-1.37,1.582-1.98s-0.084-2.05-0.619-6.421c0.453-3.048,2.012-10.934,1.785-13.066c0.688-2.375,1.563-4.625,1.563-4.625s0.125-1.625-0.799-4.865c1.402-3.135,2.402-5.677,2.402-6.135c0-0.457-0.166-2-1.498-4.687c0-1.829,1.695-17.071,1.977-22.1C283.654,358.635,281.131,347.967,281.131,347.967z"></path><path style="fill:#505050;" d="M256.449,369.182L250,367.934l-6.449,1.248c0,0-3.846-1.357-9.953-4.523c0,0,8.821,8.143,10.18,8.821c1.356,0.679,1.762,5.146,1.762,5.146l2.715-5.874h3.489l2.516,5.874c0,0,0.605-4.467,1.963-5.146s10.18-8.821,10.18-8.821C260.295,367.824,256.449,369.182,256.449,369.182z"></path><path style="fill:none;stroke:#000000;stroke-linecap:round;stroke-linejoin:round;" d="M252.045,373.333c0,0,0.529-2.022,0.982-2.781c0.451-0.758,1.055-15.572,1.055-15.572"></path><path style="fill:#505050;" d="M279.045,400.298l-9.393,4.183c2.939,1.203,10.627,0.972,10.824,0.061C280.676,403.631,280.668,401.102,279.045,400.298z"></path><path style="fill:#505050;" d="M269.654,428.594c0,0-11.496-0.737-13.533-2.094c0.688,1.938,1.545,3.451,2.902,4.13S268.07,429.951,269.654,428.594z"></path><path style="fill:#505050;" d="M277.496,420.563l-0.25,1.75l0.313,2.063c0,0-1.875,0.625-4.875-0.375C275.621,422,277.496,420.563,277.496,420.563z"></path><path style="fill:none;stroke:#000000;stroke-linecap:round;stroke-linejoin:round;" d="M247.74,373.333c0,0-0.528-2.022-0.981-2.781c-0.452-0.758-1.056-15.572-1.056-15.572"></path><path style="fill:#505050;" d="M220.74,400.298l9.392,4.183c-2.938,1.203-10.626,0.972-10.824,0.061C219.109,403.631,219.118,401.102,220.74,400.298z"></path><path style="fill:#505050;" d="M230.131,428.594c0,0,11.497-0.737,13.533-2.094c-0.688,1.938-1.544,3.451-2.902,4.13C239.404,431.309,231.714,429.951,230.131,428.594z"></path><path style="fill:#505050;" d="M222.289,420.563l0.25,1.75l-0.313,2.063c0,0,1.875,0.625,4.875-0.375C224.164,422,222.289,420.563,222.289,420.563z"></path><g><path style="fill:#505050;stroke:#000000;stroke-linecap:round;stroke-linejoin:round;" d="M275.023,352.716c0,0,0.68,4.751,2.035,6.561c1.357,1.81,6.063,4.786,6.063,4.786s0.875-6.25-1.438-13.25C278.404,351.604,275.023,352.716,275.023,352.716z"></path><path style="fill:#505050;stroke:#000000;stroke-linecap:round;stroke-linejoin:round;" d="M224.762,352.716c0,0-0.679,4.751-2.036,6.561c-1.357,1.81-6.062,4.786-6.062,4.786s-0.875-6.25,1.438-13.25C221.381,351.604,224.762,352.716,224.762,352.716z"></path></g></g><g><path style="fill:#6E6E6E;stroke:#000000;stroke-linecap:round;stroke-linejoin:round;" d="M280.765,344.599c0,0-0.688-1.213-1.472-0.958c-2.345,0.762-9.506,2.282-29.293,2.29c-19.787-0.008-26.948-1.528-29.293-2.29c-0.783-0.255-1.472,0.958-1.472,0.958l-1.805,5.63c0,0,5.953,3.932,32.569,3.935c26.616-0.003,32.569-3.935,32.569-3.935L280.765,344.599z"></path><g><path style="fill:#323232;stroke:#000000;stroke-linecap:round;stroke-linejoin:round;" d="M281.668,345.409c-16.174,3.167-31.782,2.468-31.782,2.468s-15.606,0.699-31.78-2.467c0,0-1.131,2.939-1.018,3.393c0.113,0.452,15.381,3.913,32.798,3.371c17.417,0.542,32.686-2.919,32.799-3.371C282.799,348.35,281.668,345.409,281.668,345.409z"></path><g><path style="fill:#6E6E6E;stroke:#000000;stroke-linecap:round;stroke-linejoin:round;" d="M227.833,354.865c-0.226-0.339,1.018-9.952,1.357-10.178c0.339-0.227,3.732,0.112,3.845,0.564c0.114,0.452-0.226,9.274-0.905,9.84"></path><path style="fill:#6E6E6E;stroke:#000000;stroke-linecap:round;stroke-linejoin:round;" d="M272.09,354.865c0.227-0.339-1.018-9.952-1.356-10.178c-0.339-0.227-3.733,0.112-3.846,0.564c-0.113,0.452,0.227,9.274,0.905,9.84"></path></g><path style="fill:#6E6E6E;stroke:#000000;stroke-linecap:round;stroke-linejoin:round;" d="M247.476,348.955c0,0,6.325-0.396,6.588,0.132s0.264,2.239-0.264,2.635s-6.061-0.263-6.193,0.132c-0.132,0.396-0.132,2.636,0.395,2.636c0.527,0,6.95,0.621,7.872-0.302c0.923-0.922,0.825-6.155,0.166-7.209c-0.658-1.055-7.774-1.055-8.301-0.659C247.212,346.715,247.476,348.955,247.476,348.955z"></path></g></g></g></g></svg>