<svg xmlns="http://www.w3.org/2000/svg" width="500" height="500" version="1.1"><g id="x031"><g><path style="fill:#6E6E6E;stroke:#000000;stroke-linecap:round;stroke-linejoin:round;" d="M280.971,347.967L250,350.509l-30.971-2.542c0,0-3.524,10.668-3.071,18.747c0.159,2.84,2.439,26.507,4.417,45.161c0.809,7.629,1.851,14.229,2.652,18.749L223,430.625c0,0-0.375,4.125-1,5.25c1.953,0.732,4.024,0.499,5.983-1.374h0.192c0.553,1.688,2.387,2.999,4.825,2.999c2.496,0,4.492-2.988,4.5-2.999h0.001c0.004,0.011,1.506,3.622,6.125,1.999c-1.125-2.125-1.75-4.625-1.5-6.875l-0.019,0.001c0.694-9.445,1.728-26.536,1.644-43.751c0.879-5.781,3.917-10.686,4.816-12.598h2.868c0.9,1.912,3.938,6.816,4.816,12.598c-0.084,17.215,0.949,34.306,1.645,43.751l-0.02-0.001c0.25,2.25-0.375,4.75-1.5,6.875c4.618,1.623,6.12-1.988,6.125-1.999c0.008,0.011,2.004,2.999,4.5,2.999c2.438,0,4.271-1.311,4.825-2.999h0.192c1.958,1.873,4.029,2.106,5.982,1.374c-0.625-1.125-1-5.25-1-5.25l-0.027-0.001c0.801-4.52,1.844-11.12,2.652-18.749c1.979-18.654,4.258-42.321,4.417-45.161C284.494,358.635,280.971,347.967,280.971,347.967z"></path><g><g><path style="fill:#505050;" d="M256.449,369.182L250,367.934l-6.449,1.248c0,0-3.846-1.357-9.953-4.523c0,0,8.821,8.143,10.18,8.821c1.356,0.679,1.762,5.146,1.762,5.146l2.715-5.874h3.489l2.516,5.874c0,0,0.605-4.467,1.963-5.146s10.18-8.821,10.18-8.821C260.295,367.824,256.449,369.182,256.449,369.182z"></path><path style="fill:none;stroke:#000000;stroke-linecap:round;stroke-linejoin:round;" d="M252.045,373.333c0,0,0.529-2.022,0.982-2.781c0.451-0.758,1.055-15.572,1.055-15.572"></path><path style="fill:none;stroke:#000000;stroke-linecap:round;stroke-linejoin:round;" d="M247.74,373.333c0,0-0.528-2.022-0.981-2.781c-0.452-0.758-1.056-15.572-1.056-15.572"></path><g><path style="fill:#505050;stroke:#000000;stroke-linecap:round;stroke-linejoin:round;" d="M275.023,352.716c0,0,0.68,4.751,2.035,6.561c1.357,1.81,6.063,4.786,6.063,4.786s0.875-6.25-1.438-13.25C278.404,351.604,275.023,352.716,275.023,352.716z"></path><path style="fill:#505050;stroke:#000000;stroke-linecap:round;stroke-linejoin:round;" d="M224.762,352.716c0,0-0.679,4.751-2.036,6.561c-1.357,1.81-6.062,4.786-6.062,4.786s-0.875-6.25,1.438-13.25C221.381,351.604,224.762,352.716,224.762,352.716z"></path></g></g><g><path style="fill:#6E6E6E;stroke:#000000;stroke-linecap:round;stroke-linejoin:round;" d="M280.765,344.599c0,0-0.688-1.213-1.472-0.958c-2.345,0.762-9.506,2.282-29.293,2.29c-19.787-0.008-26.948-1.528-29.293-2.29c-0.783-0.255-1.472,0.958-1.472,0.958l-1.805,5.63c0,0,5.953,3.932,32.569,3.935c26.616-0.003,32.569-3.935,32.569-3.935L280.765,344.599z"></path><g><g><path style="fill:#6E6E6E;stroke:#000000;stroke-linecap:round;stroke-linejoin:round;" d="M227.833,354.865c-0.226-0.339,1.018-9.952,1.357-10.178c0.339-0.227,3.732,0.112,3.845,0.564c0.114,0.452-0.226,9.274-0.905,9.84"></path><path style="fill:#6E6E6E;stroke:#000000;stroke-linecap:round;stroke-linejoin:round;" d="M272.09,354.865c0.227-0.339-1.018-9.952-1.356-10.178c-0.339-0.227-3.733,0.112-3.846,0.564c-0.113,0.452,0.227,9.274,0.905,9.84"></path></g></g><g><g><path style="fill:#323232;stroke:#000000;stroke-linecap:round;stroke-linejoin:round;" d="M252.604,348.137c0,0,4.781-3.266,6.816-3.607c2.039-0.343,3.756,8.994,0.256,10.959c-1.473,0.819-7.387-3.167-7.387-3.167L252.604,348.137z"></path><path style="fill:none;stroke:#000000;stroke-linecap:round;stroke-linejoin:round;" d="M252.925,350.738c0,0,2.252-0.724,3.699-0.241"></path></g><g><path style="fill:#323232;stroke:#000000;stroke-linecap:round;stroke-linejoin:round;" d="M247.308,348.19c0,0-4.866-3.168-6.913-3.469c-2.044-0.3-3.464,8.691,0.088,10.586c1.495,0.788,7.252-2.94,7.252-2.94L247.308,348.19z"></path><path style="fill:none;stroke:#000000;stroke-linecap:round;stroke-linejoin:round;" d="M247.295,350.738c0,0-2.251-0.724-3.698-0.241"></path></g><path style="fill:#323232;stroke:#000000;stroke-linecap:round;stroke-linejoin:round;" d="M247.358,347.952c0.151-0.269,1.302-0.382,2.593-0.421c1.292,0.013,2.444,0.102,2.603,0.368c0.396,1.766,0.611,4.015,0.061,4.502c-0.461,0.411-1.611,1.163-2.582,1.14c-0.97-0.024-2.139-0.687-2.611-1.087C246.856,351.979,247.013,349.725,247.358,347.952z"></path></g></g></g></g></g></svg>