<svg xmlns="http://www.w3.org/2000/svg" width="500" height="500" version="1.1"><g id="x032"><g><g><path style="fill:#6E6E6E;stroke:#000000;stroke-linecap:round;stroke-linejoin:round;" d="M282.379,350.122c0,0-5.775,4.188-32.379,4.211c-26.604-0.022-32.379-4.211-32.379-4.211c-4.204,18.003,0.446,30.68,0.891,34.246c0.446,3.566,1.389,32.512,2.28,35.632c0.687,2.401,1.791,12.136,2.264,16.5h18.03l2.177-14.236c0,0,1.337-4.903,1.337-6.24c0-1.338-0.892-2.676-1.337-5.796c0-1.399,1.404-12.728,2.029-25.228c0.75-1.75,4.457-7.502,4.708-9.221c0.252,1.719,3.959,7.471,4.709,9.221c0.625,12.5,2.029,23.828,2.029,25.228c-0.445,3.12-1.338,4.458-1.338,5.796c0,1.337,1.338,6.24,1.338,6.24l2.176,14.236h18.031c0.473-4.364,1.576-14.099,2.264-16.5c0.891-3.12,1.834-32.065,2.279-35.632S286.584,368.125,282.379,350.122z"></path><g><path style="fill:#505050;" d="M251.172,378.21c0,0,14.266,2.229,15.604,2.229c-4.904-4.014-15.942-9.363-15.942-9.363L251.172,378.21z"></path><g><path style="fill:#505050;" d="M257.629,412.456l10.256,0.446c0,0-7.58-9.809-10.701-10.255C257.629,407.998,257.629,412.456,257.629,412.456z"></path><path style="fill:#505050;" d="M270.084,415.577c0,0-10.271-1.784-12.195-0.892c-1.926,0.892,3.85,4.903,7.061,4.457C268.158,418.697,270.084,415.577,270.084,415.577z"></path><path style="fill:#505050;" d="M266.545,422.71c0,0-9.361-6.687-9.361-4.904c0,1.783,0.662,9.363,2.891,9.363C262.305,427.169,265.209,423.602,266.545,422.71z"></path></g><path style="fill:#505050;" d="M248.829,378.21c0,0-14.266,2.229-15.604,2.229c4.905-4.014,15.942-9.363,15.942-9.363L248.829,378.21z"></path><g><path style="fill:#505050;" d="M242.37,412.456l-10.254,0.446c0,0,7.58-9.809,10.701-10.255C242.37,407.998,242.37,412.456,242.37,412.456z"></path><path style="fill:#505050;" d="M229.916,415.577c0,0,10.271-1.784,12.196-0.892c1.925,0.892-3.851,4.903-7.061,4.457C231.841,418.697,229.916,415.577,229.916,415.577z"></path><path style="fill:#505050;" d="M233.454,422.71c0,0,9.362-6.687,9.362-4.904c0,1.783-0.663,9.363-2.892,9.363C237.695,427.169,234.792,423.602,233.454,422.71z"></path></g></g><g><g><path style="fill:#C9CFC2;stroke:#000000;stroke-linecap:round;stroke-linejoin:round;" d="M222.309,429.791c0,0-1.18,2.654-1.18,3.244c0,0.589,1.769,9.436,1.769,9.436s2.654,1.771,10.321,1.475c7.667-0.295,8.847-1.475,8.847-1.475l1.295-9.731l-1.179-2.653l-0.59,2.359c0,0-3.653,1.179-9.256,1.179c-5.603,0-9.142-1.769-9.142-1.769L222.309,429.791z"></path></g><g><path style="fill:#C9CFC2;stroke:#000000;stroke-linecap:round;stroke-linejoin:round;" d="M277.691,429.791c0,0,1.18,2.654,1.18,3.244c0,0.589-1.77,9.436-1.77,9.436s-2.654,1.771-10.32,1.475c-7.668-0.295-8.848-1.475-8.848-1.475l-1.295-9.731l1.18-2.653l0.59,2.359c0,0,3.654,1.179,9.256,1.179c5.604,0,9.143-1.769,9.143-1.769L277.691,429.791z"></path></g></g></g></g></g></svg>