<svg xmlns="http://www.w3.org/2000/svg" width="500" height="500" version="1.1"><g id="x043"><g><path style="fill:#6E6E6E;stroke:#000000;stroke-linecap:round;stroke-linejoin:round;" d="M287.335,368.186c-0.435-4.354-5.176-19.406-5.176-19.406l-32.16,3.875l-32.16-3.875c0,0-4.741,15.053-5.176,19.406c-0.875,8.751-1.458,32.087-0.583,34.128c5.25,2.042,18.668,3.5,21.585,3.5c2.917,0,14-1.458,14-1.458c0.583-4.668,2.333-15.752,2.333-15.752s1.751,11.084,2.333,15.752c0,0,11.085,1.458,14.002,1.458c2.916,0,16.335-1.458,21.584-3.5C288.794,400.272,288.21,376.937,287.335,368.186z"></path><g><path style="fill:#505050;" d="M241.438,354.076c0,0-2.296,7.984-2.625,7.001c-0.328-0.984-0.438-7.439-0.438-7.439L241.438,354.076z"></path><path style="fill:#505050;" d="M258.502,354.076c0,0,2.298,7.984,2.625,7.001c0.329-0.984,0.438-7.439,0.438-7.439L258.502,354.076z"></path></g><path style="fill:#505050;stroke:#000000;stroke-linecap:round;stroke-linejoin:round;" d="M223.893,351.451c0,0-4.485,12.142-5.907,13.453c-1.421,1.313-5.141,2.298-5.141,2.298s2.391-12.908,5.016-17.611C220.815,350.357,223.893,351.451,223.893,351.451z"></path><path style="fill:#505050;stroke:#000000;stroke-linecap:round;stroke-linejoin:round;" d="M276.177,351.451c0,0,4.485,12.142,5.907,13.453c1.422,1.313,5.141,2.298,5.141,2.298s-2.391-12.908-5.016-17.611C279.256,350.357,276.177,351.451,276.177,351.451z"></path><line style="fill:none;stroke:#000000;stroke-linecap:round;stroke-linejoin:round;" x1="250.035" y1="388.202" x2="250.035" y2="353.53"></line><path style="fill:none;stroke:#505050;stroke-linecap:round;stroke-linejoin:round;" d="M231.915,352.144c0,0-3.792,14.584-4.084,18.084s-0.292,30.919-0.292,30.919"></path><path style="fill:none;stroke:#505050;stroke-linecap:round;stroke-linejoin:round;" d="M268.085,352.144c0,0,3.792,14.584,4.085,18.084c0.291,3.5,0.291,30.919,0.291,30.919"></path><path style="fill:#505050;stroke:#000000;stroke-linecap:round;stroke-linejoin:round;" d="M211.497,393.854l-1.167,1.751l1.458,8.459c0,0,10.792,3.791,18.96,3.791c8.166,0,18.376-2.333,18.376-2.333l0.292-7.876c-0.583-2.041-1.167,0.583-1.167,0.583s-6.708,1.75-17.209,1.458c-10.789-0.299-18.668-3.791-18.668-3.791L211.497,393.854z"></path><path style="fill:#505050;stroke:#000000;stroke-linecap:round;stroke-linejoin:round;" d="M288.504,393.854l1.166,1.751l-1.459,8.459c0,0-10.791,3.791-18.959,3.791c-8.167,0-18.377-2.333-18.377-2.333l-0.291-7.876c0.584-2.041,1.167,0.583,1.167,0.583s6.708,1.75,17.209,1.458c10.788-0.299,18.668-3.791,18.668-3.791L288.504,393.854z"></path></g></g></svg>