<svg xmlns="http://www.w3.org/2000/svg" width="500" height="500" version="1.1"><g id="x045"><g><g><path style="fill:#6E6E6E;stroke:#000000;stroke-linecap:round;stroke-linejoin:round;" d="M286.379,365.512c-0.909-6.215-3.941-15.31-3.941-15.31L250,354.598l-32.438-4.396c0,0-3.032,9.095-3.941,15.31c-0.909,6.214,1.062,17.494,1.212,21.891c-0.303,5.153-0.303,18.189,0.91,18.644c2.729,2.729,34.256,4.245,34.256,4.245s31.528-1.517,34.256-4.245c1.214-0.454,1.214-13.49,0.91-18.644C285.317,383.006,287.288,371.726,286.379,365.512z"></path><path style="fill:#505050;" d="M217.411,387.856c0,0,4.547,5.457,5.002,9.854C218.775,394.829,216.956,389.523,217.411,387.856z"></path><path style="fill:#505050;" d="M248.938,382.854c0,0-6.063-4.851-11.671-7.124c-4.549-1.845-9.55-8.488-9.55-8.488s17.583,4.093,19.857,7.579C249.848,378.307,248.938,382.854,248.938,382.854z"></path><path style="fill:none;stroke:#000000;stroke-linecap:round;stroke-linejoin:round;" d="M250.455,355.812c0,0-0.606,6.58-1.061,9.157c-0.455,2.577,0.152,33.044,0.303,35.771"></path><path style="fill:none;stroke:#000000;stroke-linecap:round;stroke-linejoin:round;" d="M214.228,363.238c0,0,5.394-2.056,7.428-4.851c2.425-3.335,3.334-5.608,3.334-5.608"></path><path style="fill:none;stroke:#000000;stroke-linecap:round;stroke-linejoin:round;" d="M285.889,363.238c0,0-5.395-2.056-7.428-4.851c-2.426-3.335-3.335-5.608-3.335-5.608"></path></g><g><path style="fill:#6E6E6E;stroke:#000000;stroke-linecap:round;stroke-linejoin:round;" d="M283.461,351.339c0,0-6.129,3.639-33.537,3.639c-27.407,0-33.537-3.639-33.537-3.639l1.857-5.659c0,0,0.709-1.219,1.514-0.963c2.418,0.768,9.813,2.302,30.281,2.302c27.292,0,31.108-2.729,31.108-2.729L283.461,351.339z"></path><path style="fill:none;stroke:#000000;stroke-linecap:round;stroke-linejoin:round;" d="M249.091,347.777c0,0-0.152,6.214,0,7.124"></path><circle style="fill:#6E6E6E;stroke:#000000;stroke-linecap:round;stroke-linejoin:round;" cx="251.819" cy="351.111" r="1.819"></circle></g></g></g></svg>