<svg xmlns="http://www.w3.org/2000/svg" width="500" height="500" version="1.1"><g id="x046"><g><path style="fill:#6E6E6E;stroke:#000000;stroke-linecap:round;stroke-linejoin:round;" d="M285.05,366.275c0-1.492-0.459-5.508-0.757-6.485c-0.079-2.716-1.26-5.305-1.574-7.666c0,0-2.242,3.825-32.531,3.825s-32.669-3.825-32.669-3.825c-0.278,2.099-1.65,5.66-1.65,5.66s-0.918,6.426-0.918,7.917c0,1.481,1.033,11.129,1.799,14.518c0.964,10.692,2.43,19.571,2.675,20.552c0.459,1.836,0.459,5.813,0.459,5.813s6.883,1.453,13.653,1.453c5.042,0,6.981-0.573,9.046-1.453c0.917-5.966,4.683-32.303,4.683-32.303h5.706c0,0,3.764,26.337,4.683,32.303c2.745,0.993,5.01,1.224,10.53,1.224c6.256,0,12.168-1.224,12.168-1.224s0-3.978,0.459-5.813c0.253-1.005,2.747-20.791,2.747-20.498C283.902,377.288,285.05,367.767,285.05,366.275z"></path><line style="fill:none;stroke:#000000;stroke-linecap:round;stroke-linejoin:round;" x1="250.172" y1="373.899" x2="250.172" y2="365.065"></line><line style="fill:none;stroke:#000000;stroke-linecap:round;stroke-linejoin:round;" x1="250.172" y1="360.424" x2="250.172" y2="355.949"></line><path style="fill:none;stroke:#000000;stroke-linecap:round;stroke-linejoin:round;" d="M253.041,374.129c0,0,3.899-2.295,6.08-4.476"></path><path style="fill:none;stroke:#000000;stroke-linecap:round;stroke-linejoin:round;" d="M238.011,368.163c0.344,0.229,5.048,4.818,8.949,6.195"></path></g></g></svg>