<svg xmlns="http://www.w3.org/2000/svg" width="500" height="500" version="1.1"><g id="x047"><g><path style="fill:#6E6E6E;stroke:#000000;stroke-linecap:round;stroke-linejoin:round;" d="M282.111,346.331L250,350.164l-32.112-3.833c0,0-10.04,20.233-4.521,42.766c8.277,0,9.196,0.46,14.254,0.92c5.059,0.46,22.379,0.861,22.379,0.861s12.263-0.861,17.32-1.321c5.059-0.46,13.336,0.92,19.313-0.46C292.152,366.564,282.111,346.331,282.111,346.331z"></path><g><g><path style="fill:#666666;stroke:#000000;stroke-linecap:round;stroke-linejoin:round;" d="M281.346,344.263c0,0-15.864,2.701-31.346,2.701c-15.481,0-31.346-2.701-31.346-2.701s-1.379,3.678-0.92,5.287c7.357,2.299,23.835,3.161,32.266,3.161c8.43,0,24.908-0.862,32.266-3.161C282.725,347.94,281.346,344.263,281.346,344.263z"></path><g><path style="fill:#B2B2B2;stroke:#000000;stroke-linecap:round;stroke-linejoin:round;" d="M257.786,354.433c-0.417,0.417-14.955,0.54-15.496,0c-0.541-0.541-0.417-8.504,0-8.922c0.417-0.417,15.07-0.426,15.496,0.001C258.211,345.937,258.204,354.015,257.786,354.433z"></path><polygon style="fill:#666666;stroke:#000000;stroke-linecap:round;stroke-linejoin:round;" points="255.594,352.309 244.482,352.309 244.482,347.635 251.1,347.635 255.594,347.635 "></polygon><path style="fill:#B2B2B2;stroke:#000000;stroke-linecap:round;stroke-linejoin:round;" d="M246.934,350.087c0,0.72-0.583,1.303-1.302,1.303h-3.142c-0.72,0-1.303-0.583-1.303-1.303l0,0c0-0.72,0.583-1.303,1.303-1.303h3.142C246.352,348.784,246.934,349.367,246.934,350.087L246.934,350.087z"></path></g></g><g><path style="fill:#6E6E6E;stroke:#000000;stroke-linecap:round;stroke-linejoin:round;" d="M223.942,352.463c0,0,0.153-5.135,1.763-8.124c1.839-0.153,2.989,0.307,2.989,0.307s-1.15,7.511-0.997,8.2"></path><path style="fill:#6E6E6E;stroke:#000000;stroke-linecap:round;stroke-linejoin:round;" d="M276.058,352.463c0,0-0.153-5.135-1.763-8.123c-1.839-0.154-2.989,0.306-2.989,0.306s1.15,7.511,0.997,8.2"></path></g></g></g></g></svg>