<svg xmlns="http://www.w3.org/2000/svg" width="500" height="500" version="1.1"><g id="x048"><g><g><path style="fill:#505050;stroke:#000000;stroke-width:0.933;stroke-linecap:round;stroke-linejoin:round;" d="M218.076,390.887l-0.243,6.002c0,0,3.534,4.352,13.648,4.352c10.113,0,11.698-0.899,11.698-0.899l0.486-7.953L218.076,390.887z"></path><path style="fill:#505050;stroke:#000000;stroke-width:0.933;stroke-linecap:round;stroke-linejoin:round;" d="M281.924,390.887l0.243,6.002c0,0-3.534,4.352-13.647,4.352c-10.114,0-11.699-0.899-11.699-0.899l-0.486-7.953L281.924,390.887z"></path></g><g><g><path style="fill:#6E6E6E;stroke:#000000;stroke-width:0.933;stroke-linecap:round;stroke-linejoin:round;" d="M282.56,349.326l-32.561,2.399l-32.559-2.399c0,0-8.853,21.456-8.553,29.258c0.3,7.803,7.502,12.904,7.502,12.904s1.209,0.518,3.267,1.154c2.885,2.446,8.886,2.896,13.388,2.297c8.853,2.251,13.954-0.601,13.954-0.601l3-3.302l3.002,3.302c0,0,5.103,2.852,13.954,0.601c4.502,0.599,10.504,0.149,13.389-2.297c2.059-0.637,3.267-1.154,3.267-1.154s7.202-5.102,7.502-12.904C291.413,370.782,282.56,349.326,282.56,349.326z"></path><path style="fill:#505050;" d="M210.088,380.085c0,0,0.6,5.402,5.852,10.203c2.251,1.351,3.001,1.2,3.001,1.2s4.802,3.001,8.553,3.001s6.001-0.301,6.001-0.301s4.651,1.351,8.103,1.051c3.451-0.3,5.102-1.501,5.102-1.501l2.55-3.15v-8.554c0,0-4.501,7.353-7.202,7.652c-2.7,0.301-5.551-2.25-5.852-2.699c-0.299-0.451-0.601-5.253-1.2-4.652c-0.602,0.601-1.952,3.751-2.852,3.452c-0.9-0.301-4.951,1.351-5.852,0.899c-0.9-0.45-0.3-6.752-1.05-7.052c-0.75-0.302-4.051,6.302-4.951,5.852c-0.901-0.451-3.301-7.353-3.151-10.053c-1.8,3.45-3.15,7.651-4.051,7.502C212.188,382.785,210.088,380.085,210.088,380.085z"></path><path style="fill:#505050;" d="M289.562,380.085c0,0-0.599,5.402-5.852,10.203c-2.25,1.351-3.001,1.2-3.001,1.2s-4.802,3.001-8.553,3.001c-3.75,0-6.002-0.301-6.002-0.301s-4.65,1.351-8.102,1.051s-5.102-1.501-5.102-1.501l-2.551-3.15v-8.554c0,0,4.501,7.353,7.202,7.652c2.7,0.301,5.551-2.25,5.853-2.699c0.3-0.451,0.599-5.253,1.199-4.652s1.951,3.751,2.851,3.452c0.901-0.301,4.952,1.351,5.852,0.899c0.9-0.45,0.301-6.752,1.051-7.052c0.751-0.302,4.052,6.302,4.951,5.852c0.9-0.451,3.302-7.353,3.151-10.053c1.801,3.45,3.15,7.651,4.051,7.502C287.462,382.785,289.562,380.085,289.562,380.085z"></path><g><g><path style="fill:#505050;" d="M275.157,351.201l3.109-0.034c0,0,1.917,6.832,0.75,7.416S275.157,351.201,275.157,351.201z"></path><path style="fill:#505050;" d="M263.679,356.377c0,0,5.026,19.057,4.727,26.109c-0.301,7.051-2.251,12.003-2.251,12.003S265.101,385,265.017,382S261.925,358.671,263.679,356.377z"></path><path style="fill:#505050;" d="M261.871,364.18c-1.604,0.153-2.263-10.062-1.351-10.204S263.476,364.026,261.871,364.18z"></path><path style="fill:#505050;" d="M276.958,365.53c-0.282-4.851-2.977-12.744-3.751-12.304c-0.403,0.229,0.498,4.257,0.893,8.106c0.364,3.549,0.188,6.935,0.667,7.334C275.767,369.5,277.066,367.394,276.958,365.53z"></path></g><g><path style="fill:#505050;" d="M224.843,351.201l-3.109-0.034c0,0-1.917,6.832-0.75,7.416S224.843,351.201,224.843,351.201z"></path><path style="fill:#505050;" d="M236.321,356.377c0,0-5.026,19.057-4.727,26.109c0.301,7.051,2.251,12.003,2.251,12.003S234.899,385,234.983,382S238.075,358.671,236.321,356.377z"></path><path style="fill:#505050;" d="M238.129,364.18c1.604,0.153,2.263-10.062,1.351-10.204S236.524,364.026,238.129,364.18z"></path><path style="fill:#505050;" d="M223.042,365.53c0.282-4.851,2.977-12.744,3.751-12.304c0.403,0.229-0.498,4.257-0.893,8.106c-0.364,3.549-0.188,6.935-0.667,7.334C224.233,369.5,222.934,367.394,223.042,365.53z"></path></g></g></g><path style="fill:#6E6E6E;stroke:#000000;stroke-width:0.933;stroke-linecap:round;stroke-linejoin:round;" d="M281.24,344.524c-1.801,1.049-12.38,2.934-31.3,2.934c-18.921,0-29.499-1.885-31.3-2.934c-0.9,1.499-1.11,5.551-1.11,5.551s3.1,2.783,32.41,2.783s32.411-2.783,32.411-2.783S282.141,346.023,281.24,344.524z"></path></g></g></g></svg>