<svg xmlns="http://www.w3.org/2000/svg" width="500" height="500" version="1.1"><g id="x056"><g><g><path style="fill:#6E6E6E;stroke:#000000;stroke-linecap:round;stroke-linejoin:round;" d="M284.2,349.79c-2.124-0.566-7.006,2.549-33.853,2.549s-31.729-3.115-33.853-2.549c0,0-6.09,30.736-5.099,38.953c7.79,5.666,28.329,6.373,38.244,3.824l0.708-11.899l1.701,13.599c9.208,1.982,28.754-0.142,36.544-5.809C289.584,380.243,284.2,349.79,284.2,349.79z"></path><path style="fill:#505050;" d="M244.681,364.946l5.949,13.739l5.243-12.465c0,0-1.842,1.842-5.526,1.842C246.665,368.063,244.681,364.946,244.681,364.946z"></path><path style="fill:none;stroke:#000000;stroke-linecap:round;stroke-linejoin:round;" d="M241.141,359.14c0,0,7.082,10.622,9.49,22.237"></path><path style="fill:none;stroke:#000000;stroke-linecap:round;stroke-linejoin:round;" d="M252.331,376.137c0.142-0.851,4.532-14.023,7.365-17.565"></path></g><g><path style="fill:#6E6E6E;stroke:#000000;stroke-linecap:round;stroke-linejoin:round;" d="M284.915,353.331l-8.073,2.832c0,0,0.851,15.439,2.267,17.14c1.416,1.699,6.516,3.399,7.224,3.259c0.709-0.143,1.842-2.267,1.842-2.267S287.748,362.68,284.915,353.331z"></path><path style="fill:#6E6E6E;stroke:#000000;stroke-linecap:round;stroke-linejoin:round;" d="M215.084,353.331l8.074,2.832c0,0-0.851,15.439-2.267,17.14c-1.417,1.699-6.516,3.399-7.224,3.259c-0.708-0.143-1.841-2.267-1.841-2.267S212.251,362.68,215.084,353.331z"></path></g></g></g></svg>