<svg xmlns="http://www.w3.org/2000/svg" width="500" height="500" version="1.1"><g id="x070"><g><path style="fill:#6E6E6E;stroke:#000000;stroke-linecap:round;stroke-linejoin:round;" d="M282,349c0,0-11,4-32,4s-32-4-32-4s-3.5,7-3.25,17s4.25,36.25,4,38.5s-2,6.25-1.75,7.75s3.5,4.75,3.5,6.25c-1,2.25-0.5,5.5-0.5,5.5l2,4.25c0,0,3.75,1.75,10,1.75s9.5-1.5,9.5-1.5s1.75-3.25,1.75-5s-0.5-4.75-0.5-4.75s2.25-6,2-8.75s-1.25-21.75-0.75-23.75s3.875-11.125,6-13.25c2.125,2.125,5.5,11.25,6,13.25s-0.5,21-0.75,23.75s2,8.75,2,8.75s-0.5,3-0.5,4.75s1.75,5,1.75,5s3.25,1.5,9.5,1.5s10-1.75,10-1.75l2-4.25c0,0,0.5-3.25-0.5-5.5c0-1.5,3.25-4.75,3.5-6.25s-1.5-5.5-1.75-7.75s3.75-28.5,4-38.5S282,349,282,349z"></path><g><path style="fill:#505050;" d="M249.125,373.125l-4.25,9.375c0,0-2.875-8.625-2.625-10.5C245,372.875,249.125,373.125,249.125,373.125z"></path><path style="fill:#505050;" d="M251.01,373.125l4.25,9.375c0,0,2.875-8.625,2.625-10.5C255.135,372.875,251.01,373.125,251.01,373.125z"></path></g><path style="fill:none;stroke:#000000;stroke-linecap:round;stroke-linejoin:round;" d="M239.859,371.042c0,0,6.531,2.87,20.283,1.583"></path><g><g><path style="fill:#505050;" d="M224.667,417.333c0,0,2.667,1.667,8,2.667s8.333-3,8.333-3S230.333,414.999,224.667,417.333z"></path><path style="fill:#505050;stroke:#000000;stroke-linecap:round;stroke-linejoin:round;" d="M224.667,351.333c0,0-4,13.668-3.667,18.334c-2.667,3-5.333,6-5.333,6s-1.333-13.001,0-18.334s2.667-9.666,2.667-9.666L224.667,351.333z"></path></g><g><path style="fill:#505050;" d="M275.333,417.333c0,0-2.667,1.667-8,2.667S259,417,259,417S269.666,414.999,275.333,417.333z"></path><path style="fill:#505050;stroke:#000000;stroke-linecap:round;stroke-linejoin:round;" d="M275.332,351.333c0,0,4.001,13.668,3.668,18.334c2.666,3,5.332,6,5.332,6s1.334-13.001,0-18.334c-1.332-5.333-2.666-9.666-2.666-9.666L275.332,351.333z"></path></g></g></g></g></svg>