<svg xmlns="http://www.w3.org/2000/svg" width="500" height="500" version="1.1"><g id="x071"><g><g><path style="fill:#FFFFFF;stroke:#000000;stroke-linecap:round;stroke-linejoin:round;" d="M285,361.667c-0.666-5.334-2.666-12.833-2.666-12.833c-0.036,0.027-0.092,0.054-0.133,0.081l-1.557-4.929c-0.062-0.856-0.289-2.541-1.145-3.152c-1.333,0.333-2.333,1.166-4.167,1.333c-1.833,0.167-3.166-1.333-5.333-0.833s-4.999,1.667-6.333,1.667s-2.667-0.5-4.167-0.5s-5.666,1.499-6.333,1.666S250,343.501,250,343.501s-2.5,0.833-3.167,0.666s-4.833-1.666-6.333-1.666s-2.833,0.5-4.167,0.5s-4.167-1.167-6.333-1.667s-3.5,1-5.333,0.833s-2.833-1-4.167-1.333c-0.856,0.611-1.083,2.297-1.144,3.152l-1.689,5.348c0,0,0.062,0.03,0.182,0.082c-0.475,1.844-1.958,7.795-2.515,12.251c-0.667,5.334-6.333,72.334-7.167,77c5.5,2.333,16.167,3.5,22.333,3.667s17.167-0.833,17.167-0.833l2.5-68.334l2.5,68.334c0,0,11,1,17.167,0.833s16.833-1.334,22.333-3.667C291.334,434.001,285.667,367.001,285,361.667z"></path><line style="fill:none;stroke:#000000;stroke-linecap:round;stroke-linejoin:round;" x1="250.167" y1="371.501" x2="250.167" y2="354.334"></line><polygon style="fill:#6E6E6E;" points="249.333,344.167 250,344 250.917,344.333 250.667,351.833 249.167,351.667 "></polygon><g><g><path style="fill:#6E6E6E;" d="M223.037,350.542l1.458,0.167l1.325-8.042c0,0-1.167,0.125-1.5-0.125C224.112,343.417,223.037,350.542,223.037,350.542z"></path><polygon style="fill:#6E6E6E;" points="220.329,350.167 221.746,341.792 220.829,341.334 218.996,349.792 "></polygon><path style="fill:#6E6E6E;" d="M227.329,351.084l1.417,0.167l1.667-9.292c0,0-0.917-0.458-1.5-0.208C228.621,342.834,227.329,351.084,227.329,351.084z"></path><polygon style="fill:#6E6E6E;" points="231.704,351.417 233.079,351.501 234.162,343.042 232.871,342.626 "></polygon><polygon style="fill:#6E6E6E;" points="236.037,351.667 237.079,343.501 238.662,343.167 237.454,351.667 "></polygon><polygon style="fill:#6E6E6E;" points="240.204,351.75 241.287,343.001 242.787,343.334 241.621,351.75 "></polygon><polygon style="fill:#6E6E6E;" points="244.579,352.541 245.704,344.251 246.954,344.709 245.996,352.541 "></polygon></g><g><path style="fill:#6E6E6E;" d="M276.964,350.542l-1.459,0.167l-1.325-8.042c0,0,1.167,0.125,1.5-0.125C275.888,343.417,276.964,350.542,276.964,350.542z"></path><polygon style="fill:#6E6E6E;" points="279.671,350.167 278.255,341.792 279.171,341.334 281.005,349.792 "></polygon><path style="fill:#6E6E6E;" d="M272.671,351.084l-1.416,0.167l-1.666-9.292c0,0,0.916-0.458,1.5-0.208C271.38,342.834,272.671,351.084,272.671,351.084z"></path><polygon style="fill:#6E6E6E;" points="268.296,351.417 266.921,351.501 265.839,343.042 267.13,342.626 "></polygon><polygon style="fill:#6E6E6E;" points="263.964,351.667 262.921,343.501 261.339,343.167 262.546,351.667 "></polygon><polygon style="fill:#6E6E6E;" points="259.796,351.75 258.714,343.001 257.214,343.334 258.38,351.75 "></polygon><polygon style="fill:#6E6E6E;" points="255.421,352.541 254.296,344.251 253.046,344.709 254.005,352.541 "></polygon></g></g><g><path style="fill:#6E6E6E;" d="M220.044,350.917l-1.375-0.167c0,0-2.25,10.75-2.75,14.75c-0.476,3.803-5.357,67.262-5.837,73.501l1.125,0.292l6.211-73.543L220.044,350.917z"></path><path style="fill:#6E6E6E;" d="M223.026,350.75c0,0-2.25,10.75-2.75,14.75s-5.482,74.705-5.482,74.705l1.125,0.229l5.857-74.684l2.5-14.5L223.026,350.75z"></path><path style="fill:#6E6E6E;" d="M227.169,351.667c0,0-2.036,9.833-2.536,13.833s-5.131,75.418-5.131,75.418l1.154,0.141l5.477-75.309l2.452-14.125L227.169,351.667z"></path><path style="fill:#6E6E6E;" d="M231.419,352.292c0,0-1.929,9.208-2.429,13.208s-4.696,75.959-4.696,75.959l1.148,0.14l5.048-75.849l2.345-13.708L231.419,352.292z"></path><path style="fill:#6E6E6E;" d="M235.752,352.5c0,0-1.905,9-2.405,13s-4.262,76.293-4.262,76.293l1.143,0.074l4.619-76.117l2.196-13.25H235.752z"></path><path style="fill:#6E6E6E;" d="M240.455,350.75c0,0-2.25,10.75-2.75,14.75c-0.92,7.36-0.707,7.648-3.827,76.334l1.178-0.011l4.149-76.073l2.5-14.5L240.455,350.75z"></path><path style="fill:#6E6E6E;" d="M244.812,350.75c0,0-2.25,10.75-2.75,14.75s-3.331,76.126-3.331,76.126l1.131-0.055l3.7-75.821l2.5-14.5L244.812,350.75z"></path><path style="fill:#6E6E6E;" d="M249.169,350.75c0,0-2.25,10.75-2.75,14.75s-2.896,75.792-2.896,75.792l1.146-0.035l3.25-75.507l2.5-14.5L249.169,350.75z"></path><path style="fill:#6E6E6E;" d="M279.958,350.917l1.375-0.167c0,0,2.25,10.75,2.75,14.75c0.477,3.803,5.357,67.262,5.837,73.501l-1.125,0.292l-6.212-73.543L279.958,350.917z"></path><path style="fill:#6E6E6E;" d="M276.977,350.75c0,0,2.25,10.75,2.75,14.75s5.481,74.705,5.481,74.705l-1.125,0.229l-5.856-74.684l-2.5-14.5L276.977,350.75z"></path><path style="fill:#6E6E6E;" d="M272.833,351.667c0,0,2.036,9.833,2.536,13.833s5.131,75.418,5.131,75.418l-1.154,0.141l-5.477-75.309l-2.452-14.125L272.833,351.667z"></path><path style="fill:#6E6E6E;" d="M268.583,352.292c0,0,1.93,9.208,2.43,13.208s4.695,75.959,4.695,75.959l-1.148,0.14l-5.047-75.849l-2.346-13.708L268.583,352.292z"></path><path style="fill:#6E6E6E;" d="M264.25,352.5c0,0,1.905,9,2.405,13s4.262,76.293,4.262,76.293l-1.144,0.074l-4.618-76.117l-2.197-13.25H264.25z"></path><path style="fill:#6E6E6E;" d="M259.548,350.75c0,0,2.25,10.75,2.75,14.75c0.92,7.36,0.707,7.648,3.827,76.334l-1.179-0.011l-4.148-76.073l-2.5-14.5L259.548,350.75z"></path><path style="fill:#6E6E6E;" d="M255.19,350.75c0,0,2.25,10.75,2.75,14.75s3.33,76.126,3.33,76.126l-1.131-0.055l-3.699-75.821l-2.5-14.5L255.19,350.75z"></path><path style="fill:#6E6E6E;" d="M250.833,350.75c0,0,2.25,10.75,2.75,14.75s2.896,75.792,2.896,75.792l-1.146-0.035l-3.25-75.507l-2.502-14.5L250.833,350.75z"></path></g><g><path style="fill:none;stroke:#000000;stroke-linecap:round;stroke-linejoin:round;" d="M210.5,433.334c0,0,18,4.833,34.167,2"></path><path style="fill:none;stroke:#000000;stroke-linecap:round;stroke-linejoin:round;" d="M289.5,433.334c0,0-18,4.833-34.166,2"></path></g><path style="fill:none;stroke:#000000;stroke-linecap:round;stroke-linejoin:round;" d="M218.5,350.167c0,0,6.001,2.167,32,2.167s31-2.167,31-2.167"></path></g><g><g><path style="fill:#FFFFFF;stroke:#000000;stroke-linecap:round;stroke-linejoin:round;" d="M249.968,352.5c0,0-2.623,17.188-2.623,18c-2.063-0.125-3.063-0.5-3.063-0.5s3.555-16.313,4.215-17.438C249.532,351.875,249.968,352.5,249.968,352.5z"></path><path style="fill:#FFFFFF;stroke:#000000;stroke-linecap:round;stroke-linejoin:round;" d="M250.032,352.5c0,0,2.623,17.188,2.623,18c2.063-0.125,3.063-0.5,3.063-0.5s-3.555-16.313-4.215-17.438C250.468,351.875,250.032,352.5,250.032,352.5z"></path></g><g><path style="fill:#FFFFFF;stroke:#000000;stroke-linecap:round;stroke-linejoin:round;" d="M250.795,351.001c0,0-11.334,9.832-12.167,9.166s-2.5-7.166-2-8.333s13.333-2.833,13.333-2.833l0.167,1c0,0-10.333,3-10.5,3.5s0.833,3,0.833,3l9-6L250.795,351.001z"></path><path style="fill:#FFFFFF;stroke:#000000;stroke-linecap:round;stroke-linejoin:round;" d="M249.205,351.001c0,0,11.334,9.832,12.167,9.166c0.834-0.666,2.5-7.166,2-8.333s-13.333-2.833-13.333-2.833l-0.166,1c0,0,10.333,3,10.5,3.5s-0.834,3-0.834,3l-9-6L249.205,351.001z"></path></g><g><path style="fill:#FFFFFF;stroke:#000000;stroke-linecap:round;stroke-linejoin:round;" d="M250.002,349.001v3.499c0,0-1.225,0.375-1.475,0.063s-0.938-2.688-0.688-3.313s2.188-0.375,2.188-0.375"></path><path style="fill:#FFFFFF;stroke:#000000;stroke-linecap:round;stroke-linejoin:round;" d="M249.998,349.001v3.499c0,0,1.225,0.375,1.475,0.063s0.938-2.688,0.688-3.313s-2.188-0.375-2.188-0.375"></path></g></g></g></g></svg>