<svg xmlns="http://www.w3.org/2000/svg" width="500" height="500" version="1.1"><g id="x072"><g><g><path style="fill:#6E6E6E;stroke:#000000;stroke-linecap:round;stroke-linejoin:round;" d="M284.5,352.5c-0.5-2.25-4-12-4-12s-16.5,0.25-30.5,0.25s-30.5-0.25-30.5-0.25s-3.5,9.75-4,12s-8.25,36.25-8.25,38.25c11.75,7,39.25,6.5,40.75,6c0.5-7.5,2-22.75,2-22.75s1.5,15.25,2,22.75c1.5,0.5,29,1,40.75-6C292.75,388.75,285,354.75,284.5,352.5z"></path><path style="fill:#6E6E6E;stroke:#000000;stroke-linecap:round;stroke-linejoin:round;" d="M249.944,374c0.25-0.25-3.694-21.75-3.694-21.75"></path><path style="fill:#6E6E6E;stroke:#000000;stroke-linecap:round;stroke-linejoin:round;" d="M252,372.5c0,0,2.75-1.5,3.25-2.25S256.5,353,256.5,353"></path></g><path style="fill:#6E6E6E;stroke:#000000;stroke-linecap:round;stroke-linejoin:round;" d="M219.5,345.5c0,0,5.35,0.549,30.35,0.549c25.002,0,30.65-0.549,30.65-0.549"></path><g><path style="fill:#6E6E6E;stroke:#000000;stroke-linecap:round;stroke-linejoin:round;" d="M229.068,349.5c-0.25-0.75-0.75-9.199-0.75-9.199s-2.25-0.75-3-0.5c-1,0.75-1.25,8-0.25,9.25"></path><path style="fill:#6E6E6E;stroke:#000000;stroke-linecap:round;stroke-linejoin:round;" d="M270.932,349.5c0.25-0.75,0.75-9.199,0.75-9.199s2.25-0.75,3-0.5c1,0.75,1.25,8,0.25,9.25"></path></g><g><g><path style="fill:#6E6E6E;stroke:#000000;stroke-linecap:round;stroke-linejoin:round;" d="M208.25,383.25c0,0-0.75,0.75-1,1.5s-1,5.75-1,5.75s14,8.5,41.75,6.25c0.5-3.25,0.5-6,0.5-6"></path><path style="fill:none;stroke:#000000;stroke-linecap:round;stroke-linejoin:round;" d="M210,384c0,0,11.25,5.75,35.5,6"></path></g><g><path style="fill:#6E6E6E;stroke:#000000;stroke-linecap:round;stroke-linejoin:round;" d="M291.75,383.25c0,0,0.75,0.75,1,1.5s1,5.75,1,5.75s-14,8.5-41.75,6.25c-0.5-3.25-0.5-6-0.5-6"></path><path style="fill:none;stroke:#000000;stroke-linecap:round;stroke-linejoin:round;" d="M290,384c0,0-11.25,5.75-35.5,6"></path></g></g></g></g></svg>