<svg xmlns="http://www.w3.org/2000/svg" width="500" height="500" version="1.1"><g id="x074"><g><g><g><path style="fill:#6E6E6E;stroke:#000000;stroke-linecap:round;stroke-linejoin:round;" d="M214.75,375.5c0,0-2.25,19.75-0.5,28c3,0.25,4.25,0.25,4.25,0.25s2.5,2.5,3.25,2.75s11,3,28.5,3s35.5-2.75,35.5-2.75s3-29.25-2-41.5C266,365.25,214.75,375.5,214.75,375.5z"></path><path style="fill:#505050;" d="M260.5,372.75c0,0,7.25,8,12,9.25s12.75-2.5,12.75-2.5S267,373.25,260.5,372.75z"></path><path style="fill:#505050;" d="M217.75,377c0,0-1.5,10,7,18c1-6,0-7.5,0-7.5S218.75,381.25,217.75,377z"></path><path style="fill:none;stroke:#000000;stroke-linecap:round;stroke-linejoin:round;" d="M217.25,376.25c0,0.75,0,10.25,5.75,17.5"></path></g><path style="fill:#6E6E6E;stroke:#000000;stroke-linecap:round;stroke-linejoin:round;" d="M261.25,370c-2.574,0.966-2.75,3-2.75,3s25,4.25,27.75,7.75c0,1.75,0.352,2.75,0.352,2.75l0.898-2.75c0,0-0.75-8.75-3.25-14.75C278.405,365.828,266.916,367.875,261.25,370z"></path><g><path style="fill:#6E6E6E;stroke:#000000;stroke-linecap:round;stroke-linejoin:round;" d="M216.5,366c0,0-1.25,3.5-1.25,5.75c-0.75,1.25-1.5,3.75-1.5,3.75s3.25,0.75,5.25,1.25c3-0.25,8.75-1.5,10.25-1.5s9.5,1.75,10.25,1.5c2.5-1,5.25-2.75,5.25-2.75s12.75-0.5,14.75-0.5c2.25-1.75,4.5-3,4.5-3s6.5,0.5,9,1.25c4-1.25,10.75-4.5,12.25-6.75c-1-3.5,0.5-9-2.75-9S216.5,366,216.5,366z"></path><path style="fill:#505050;" d="M225.25,366.5c0,0-2.5,7.75-3.25,8.25s-1.5-6.5-1.5-6.5L225.25,366.5z"></path><path style="fill:#505050;" d="M267,365c0,0,5.25,3,7.5,2.25s5.25-7.25,5.25-7.25S268.25,363.25,267,365z"></path><g><path style="fill:none;stroke:#000000;stroke-linecap:round;stroke-linejoin:round;" d="M224.75,368.5c0,0-2,3.25-2,5"></path></g></g><g><path style="fill:#6E6E6E;stroke:#000000;stroke-linecap:round;stroke-linejoin:round;" d="M250.25,345.25c-24.5,0-30.882-1.75-30.882-1.75c-1.415,4.111-4.617,13.75-5.367,24c3.25,2.25,8.75,2,9.5,1.75s1-1.75,2.5-1.5s9.25,1.5,11.75,1s6.5-2,7.75-2.5s20.25,0,24-1c4.5-2.5,8-4,8-4s7.5-1,7.5-1.75c0-0.679-2.456-11.999-4.22-16C280.78,343.5,274.749,345.25,250.25,345.25z"></path></g><path style="fill:#505050;" d="M272.5,344.799c0.25,0.75,6,10,6.75,12.5c1.25-5-1-13-1-13L272.5,344.799z"></path><path style="fill:#505050;" d="M265,345.75c0,0,2.75,10.75,3,12c1.25-2.25,1.75-11,0.75-12S265,345.75,265,345.75z"></path><path style="fill:#505050;" d="M229.5,345.5c0,0-3.5,11-4.25,11.5c-1.25-2.75,0-11.5,0.5-12.25S229.5,345.5,229.5,345.5z"></path></g><path style="fill:#6E6E6E;stroke:#000000;stroke-linecap:round;stroke-linejoin:round;" d="M279.888,338.333c0,0-9.036,1.667-29.888,1.667s-29.887-1.667-29.887-1.667L217.333,349c0,0-0.348,3,32.667,3c33.015,0,32.667-3,32.667-3L279.888,338.333z"></path></g></g></svg>