<svg xmlns="http://www.w3.org/2000/svg" width="500" height="500" version="1.1"><g id="x075"><g><path style="fill:#6E6E6E;stroke:#000000;stroke-linecap:round;stroke-linejoin:round;" d="M286.668,367.333c-1.045-7.828-4.029-19.127-5.275-23.666h-62.784c-1.247,4.539-4.23,15.838-5.274,23.666c-2.5,10.334-6.834,35-6.834,36.5c1.5,1,4.501,1.5,4.667,2.167c0.667,0.833,1.333,1.167,1.333,1.167s7.667,2.166,14.167,2.833c0.667-0.333,1.5-0.833,1.5-0.833l2.667,1.166c2.333,1,6.666,1.334,6.666,1.334s6.667-0.167,8.167-0.167c2.167,0.5,4.333,0.333,4.333,0.333s2.168,0.167,4.334-0.333c1.5,0,8.166,0.167,8.166,0.167s4.334-0.334,6.668-1.334l2.666-1.166c0,0,0.834,0.5,1.5,0.833c6.5-0.667,14.166-2.833,14.166-2.833s0.668-0.334,1.334-1.167c0.166-0.667,3.166-1.167,4.666-2.167C293.5,402.333,289.168,377.667,286.668,367.333z"></path><path style="fill:none;stroke:#000000;stroke-linecap:round;stroke-linejoin:round;" d="M247.75,345.25c0,0-2.25,19.75-2.5,29.25"></path><path style="fill:none;stroke:#000000;stroke-linecap:round;stroke-linejoin:round;" d="M241.75,370c0,0,0.75,32.25,3,41"></path><path style="fill:none;stroke:#000000;stroke-linecap:round;stroke-linejoin:round;" d="M269.75,388.75c0,1-0.5,16-2.5,21.75"></path><path style="fill:none;stroke:#000000;stroke-linecap:round;stroke-linejoin:round;" d="M224.25,394c0,0,0.25,11,0.75,15.5"></path><path style="fill:#505050;" d="M271.75,359.25c0,0,2,2.5,4.75-0.25c0,0-0.25,22-2.75,31.5C273.75,381,271.75,359.25,271.75,359.25z"></path><path style="fill:#505050;" d="M225.75,359c0,0,2.75,2,4.25,1.25c-1.25,5-2,24.75-2,24.75S225,363.25,225.75,359z"></path><path style="fill:none;stroke:#000000;stroke-linecap:round;stroke-linejoin:round;" d="M230.75,351.75c0,0-4.916,37.834-2.583,57.417"></path><path style="fill:none;stroke:#000000;stroke-linecap:round;stroke-linejoin:round;" d="M270.5,348.25c0,0,6.418,42.584,1.334,60.917"></path><path style="fill:none;stroke:#000000;stroke-linecap:round;stroke-linejoin:round;" d="M273.998,387.75c3.75-13.25,1.5-37.5,1.5-38.25"></path><path style="fill:#6E6E6E;stroke:#000000;stroke-linecap:round;stroke-linejoin:round;" d="M278.169,333.75c-7.639,0-28.169,0-28.169,0s-20.53,0-28.169,0L218.25,345c0,0,6.5,0.6,31.75,0.6s31.75-0.6,31.75-0.6L278.169,333.75z"></path><path style="fill:none;stroke:#000000;stroke-linecap:round;stroke-linejoin:round;" d="M225.351,354.25c0,0,0.5,20,2.5,30"></path><path style="fill:none;stroke:#000000;stroke-linecap:round;stroke-linejoin:round;" d="M214,363.75c-0.25,0.75-2.75,26-2.25,36.5"></path><path style="fill:none;stroke:#000000;stroke-linecap:round;stroke-linejoin:round;" d="M286.598,366.25c0,0,1.75,15.75,0.75,25"></path></g></g></svg>