<svg xmlns="http://www.w3.org/2000/svg" width="500" height="500" version="1.1"><g id="x078"><g><g><g><g><path style="fill:#6E6E6E;stroke:#000000;stroke-linecap:round;stroke-linejoin:round;" d="M221.472,343.001l-1.5,5.166c0,0,0.189,0.053,0.637,0.14l-5.537,10.026c0,0-5.434,29.667-4.434,38c3.333,10,8.74,23.943,11.333,30.667c1.305,3.383-0.667,5-0.667,5s3.267,3.333,3.433,4s-0.167,2.667,1.167,5.333c1.333,0.334,2-1.833,9.333-1.833c6.333,0,6.167,1.833,6,1.167s-0.5-4.5-0.5-4.5s2.167-2,2-2.667s-1.167-3.5-1.167-3.5s2.9-8.333,3.4-11.667c0.667-7.833,3-16.5,2.5-35.5c0.499-0.498,1.476-0.581,2.5-0.765v-39.4C232.021,342.69,221.472,343.001,221.472,343.001z"></path><path style="fill:#6E6E6E;stroke:#000000;stroke-linecap:round;stroke-linejoin:round;" d="M212.578,401c0,0-3,10.25-3,22c1,2.5,8.25,7.5,8.25,7.5l3.5,4.5l-1.25,4.5l5.25,1.75c0,0,7.572-1.916,15.911-0.583c1.589-2.417,1.839-3.667,1.839-3.667s2-2.5,1.75-3.25s-0.75-6-0.75-6s2.25-3.5,2.75-5.5s0.75-16.75-1-21.25"></path><path style="fill:#505050;" d="M218.089,430.292c0,0,4.375,3.875,4,5c4-0.25,4.75-1,4.75-1L218.089,430.292z"></path><g><path style="fill:none;stroke:#000000;stroke-linecap:round;stroke-linejoin:round;" d="M224.722,364c0,0-6.083,37-6.083,39s-2.811,20-2.811,20s2.75,3.25,6.25,6.75c2.25,3.25,3,5.25,3,5.25l-1.25,3.75"></path></g><path style="fill:#505050;" d="M236.203,378.375c0,0,7.5-1.5,8.5-1.375s5.125,0,5.125,0v4.75c0,0-2.125,0.25-2.625,0.75c0,1.125-0.125,21.25-1.625,27.625c-1.5-12.375-4.25-25.375-5.25-25.625S236.203,378.375,236.203,378.375z"></path><path style="fill:#6E6E6E;stroke:#000000;stroke-linecap:round;stroke-linejoin:round;" d="M225.572,359.334c0,0-5.5,6.167-12.167,9.167c0.167-1.334,0-2,0-2l-1.667,2.166l0.667,5.5"></path></g></g><g><g><path style="fill:#6E6E6E;stroke:#000000;stroke-linecap:round;stroke-linejoin:round;" d="M278.43,343.001l1.5,5.166c0,0-0.189,0.053-0.637,0.14l5.537,10.026c0,0,5.434,29.667,4.434,38c-3.334,10-8.74,23.943-11.334,30.667c-1.305,3.383,0.666,5,0.666,5s-3.266,3.333-3.433,4s0.167,2.667-1.167,5.333c-1.333,0.334-2-1.833-9.333-1.833c-6.333,0-6.167,1.833-6,1.167s0.5-4.5,0.5-4.5s-2.167-2-2-2.667s1.167-3.5,1.167-3.5s-2.9-8.333-3.4-11.667c-0.667-7.833-3-16.5-2.5-35.5c-0.498-0.498-1.477-0.581-2.502-0.765v-39.4C267.881,342.69,278.43,343.001,278.43,343.001z"></path><path style="fill:#6E6E6E;stroke:#000000;stroke-linecap:round;stroke-linejoin:round;" d="M287.324,401c0,0,3,10.25,3,22c-1,2.5-8.25,7.5-8.25,7.5l-3.5,4.5l1.25,4.5l-5.25,1.75c0,0-7.572-1.916-15.911-0.583c-1.589-2.417-1.839-3.667-1.839-3.667s-2-2.5-1.75-3.25s0.75-6,0.75-6s-2.25-3.5-2.75-5.5s-0.75-16.75,1-21.25"></path><path style="fill:#505050;" d="M281.813,430.292c0,0-4.375,3.875-4,5c-4-0.25-4.75-1-4.75-1L281.813,430.292z"></path><g><path style="fill:none;stroke:#000000;stroke-linecap:round;stroke-linejoin:round;" d="M275.18,364c0,0,6.084,37,6.084,39s2.811,20,2.811,20s-2.75,3.25-6.25,6.75c-2.25,3.25-3,5.25-3,5.25l1.25,3.75"></path></g><path style="fill:#505050;" d="M263.799,378.375c0,0-7.5-1.5-8.5-1.375s-5.127,0-5.127,0v4.75c0,0,2.127,0.25,2.627,0.75c0,1.125,0.125,21.25,1.625,27.625c1.5-12.375,4.25-25.375,5.25-25.625S263.799,378.375,263.799,378.375z"></path><path style="fill:#6E6E6E;stroke:#000000;stroke-linecap:round;stroke-linejoin:round;" d="M274.33,359.334c0,0,5.5,6.167,12.166,9.167c-0.166-1.334,0-2,0-2l1.668,2.166l-0.668,5.5"></path></g></g></g><g><g><g><circle style="fill:#FFBF00;stroke:#000000;stroke-linecap:round;stroke-linejoin:round;" cx="250" cy="346.342" r="2.5"></circle><g><path style="fill:none;stroke:#000000;stroke-linecap:round;stroke-linejoin:round;" d="M233.833,378.167c0,0,9,4.333,12,4.333"></path><path style="fill:none;stroke:#000000;stroke-linecap:round;stroke-linejoin:round;" d="M243.125,362.833c0,0,1.875,14.75,2.375,15.917s3.958,2.417,3.958,2.417"></path><path style="fill:none;stroke:#000000;stroke-linecap:round;stroke-linejoin:round;" d="M252.167,382.333c0,0,10.166-0.5,13.333-3.5"></path></g></g></g><g><path style="fill:#FFFFFF;stroke:#000000;stroke-linecap:round;stroke-linejoin:round;" d="M283.667,354.584c0,0-0.675-4.167-1.161-4.667H217.33c-0.486,0.5-1.162,4.667-1.162,4.667H283.667z"></path><path style="fill:#FFFFFF;stroke:#000000;stroke-linecap:round;stroke-linejoin:round;" d="M255.715,348.236h-11.43c-0.741,0-1.343,0.601-1.343,1.343v5.818c0,0.742,0.602,1.343,1.343,1.343h11.43c0.742,0,1.343-0.601,1.343-1.343v-5.818C257.058,348.837,256.457,348.236,255.715,348.236z M254.216,354.226c0,0.443-0.358,0.803-0.802,0.803h-6.828c-0.442,0-0.802-0.359-0.802-0.803v-3.476c0-0.443,0.359-0.802,0.802-0.802h6.828c0.443,0,0.802,0.358,0.802,0.802V354.226z"></path><g><rect x="272.333" y="347.334" style="fill:#6E6E6E;stroke:#000000;stroke-linecap:round;stroke-linejoin:round;" width="4" height="9.333"></rect><rect x="223.667" y="347.334" style="fill:#6E6E6E;stroke:#000000;stroke-linecap:round;stroke-linejoin:round;" width="4" height="9.333"></rect></g></g></g></g></g></svg>