<svg xmlns="http://www.w3.org/2000/svg" width="500" height="500" version="1.1"><g id="x008"><g><g><path style="fill:#6E6E6E;stroke:#000000;stroke-linecap:round;stroke-linejoin:round;" d="M286.441,372.933c-0.023-0.412-0.656-1.153-0.684-1.613c-0.332-5.386-0.687-10.807-1.319-13.343c-0.256-1.021-1.467-3.812-1.906-5.57c-0.438-2.052-1.612-6.157-1.612-6.157L250,347.934l-30.92-1.685c0,0-1.172,4.105-1.612,6.157c-0.44,1.759-1.651,4.55-1.906,5.57c-0.634,2.536-0.988,7.957-1.319,13.343c-0.028,0.46-0.66,1.201-0.685,1.613c-0.125,2.104-0.195,3.517-0.195,3.517s2.418,4.105,18.473,4.105c16.053,0,17.299-1.467,17.299-1.467l-0.073-3.224h1.878l-0.074,3.224c0,0,1.247,1.467,17.3,1.467c16.053,0,18.472-4.105,18.472-4.105S286.566,375.037,286.441,372.933z"></path><path style="fill:none;stroke:#000000;stroke-linecap:round;stroke-linejoin:round;" d="M250.16,367.067c0,0,3.812,0.439,4.837-1.174c1.027-1.612,0.587-10.262,0.587-10.262"></path><path style="fill:#6E6E6E;stroke:#000000;stroke-linecap:round;stroke-linejoin:round;" d="M248.401,347.568c0,0,0,6.743,0.439,7.184c0.44,0.439,23.896-0.587,33.132-3.519c-0.146-2.785-0.732-6.304-1.172-6.304s-7.331,1.905-16.272,2.199C259.234,347.302,248.401,347.568,248.401,347.568z"></path><path style="fill:none;stroke:#000000;stroke-linecap:round;stroke-linejoin:round;" d="M215.562,359.884c0,0,8.21,0.879,9.676-0.294c1.466-1.173,2.052-6.743,2.052-6.743"></path><path style="fill:none;stroke:#000000;stroke-linecap:round;stroke-linejoin:round;" d="M218.933,351.82c0,0,14.955,1.612,28.295,1.905"></path><path style="fill:#6E6E6E;stroke:#000000;stroke-linecap:round;stroke-linejoin:round;" d="M235.646,346.396c0,0-1.612,6.743-1.026,7.916c0.586,0.734,2.786,0.588,2.786,0.588l1.319-8.356C237.992,346.249,235.939,345.955,235.646,346.396z"></path><path style="fill:none;stroke:#000000;stroke-linecap:round;stroke-linejoin:round;" d="M215.415,372.491c0,0,4.838,2.053,11.289,2.053"></path><path style="fill:none;stroke:#000000;stroke-linecap:round;stroke-linejoin:round;" d="M239.898,375.424c0,0,6.156,0.586,8.503,0.44"></path><path style="fill:none;stroke:#000000;stroke-linecap:round;stroke-linejoin:round;" d="M284.568,359.884c0,0-8.209,0.879-9.674-0.294c-1.466-1.173-2.053-6.743-2.053-6.743"></path><path style="fill:#6E6E6E;stroke:#000000;stroke-linecap:round;stroke-linejoin:round;" d="M264.485,346.396c0,0,1.612,6.743,1.025,7.916c-0.586,0.734-2.784,0.588-2.784,0.588l-1.32-8.356C262.139,346.249,264.191,345.955,264.485,346.396z"></path><path style="fill:none;stroke:#000000;stroke-linecap:round;stroke-linejoin:round;" d="M284.716,372.491c0,0-4.838,2.053-11.287,2.053"></path><path style="fill:none;stroke:#000000;stroke-linecap:round;stroke-linejoin:round;" d="M260.234,375.424c0,0-6.158,0.586-8.504,0.44"></path></g><circle style="fill:#EBE8E6;stroke:#000000;stroke-linecap:round;stroke-linejoin:round;" cx="251.626" cy="351.088" r="2.345"></circle><path style="fill:none;stroke:#000000;stroke-linecap:round;stroke-linejoin:round;" d="M249.134,355.191c-0.146,0.44,0,19.205,0,19.205"></path></g></g></svg>