<svg xmlns="http://www.w3.org/2000/svg" width="500" height="500" version="1.1"><g id="x083"><g><g><g><g><path style="fill:#E4E0F3;stroke:#000000;stroke-linecap:round;stroke-linejoin:round;" d="M220.167,342.5c0,0-2,2.499-2.833,3.333c-0.167,1.667,0.167,4.834,0.167,4.334s-1.861,4.179-2,5c-2,11.833-6.667,50.999-2.833,79.166c0,0,11.5,1.833,16,2.5c-0.333-17.166-0.167-93.5-0.167-93.5L220.167,342.5z"></path></g><path style="fill:#FFFFFF;stroke:#000000;stroke-linecap:round;stroke-linejoin:round;" d="M283.834,396.333c1.166-1.666,1.832-3.166,1.666-3.666s-2-3.167-2-3.167c0.167-3.833,2.333-25.167,0.5-33.5c-0.527-2.399-1.068-4.597-1.572-6.521c0.353-1.08,0.671-2.292,0.739-3.313c-0.333-1.334-2.334-3.833-2.834-4.166l0.025,0.258c-0.122-0.384-0.191-0.591-0.191-0.591l-57.667,1c0,0-3.5,18.833-3.5,27.833s-0.167,60.833,1,65.833c4.333,2.166,14.167,2.667,20.333,1.167c6.667,1.333,13,3.167,24,2.667s16.165-4.333,28.999-9.5C293.167,424.5,285.501,401.166,283.834,396.333z"></path><path style="fill:#E4E0F3;" d="M220.333,427.667c0,0,7,3,14.333,2.667c1.333-7,0.667-13.668,0.333-12.334s3.667,12.667,3.667,12.667S255,437,268,432c-17.667-14.666-35.333-36.666-35.333-36.666L220.333,427.667z"></path></g><g><g><path style="fill:#FFFFFF;stroke:#000000;stroke-linecap:round;stroke-linejoin:round;" d="M234,390c-0.667,1-2,21-3,38.334c-7.333-1.334-21.333-5.667-22.667-7.667c0-8.333,5-61,6.333-65s2.833-5.5,2.833-5.5l-1.167-4.833l4-3.667L232,341L234,390z"></path><path style="fill:#E4E0F3;" d="M220,343.167c0,0.5,6,5.834,10,7c1.333-3.667,1.167-8,1.167-8L220,343.167z"></path><path style="fill:#6E6E6E;" d="M209.75,407.75c0,0,6,5.25,16.75,4.25c0.5-2,0.5-3.5,0.5-3.5s-12.5,0-17.75-5C209.25,406,209.75,407.75,209.75,407.75z"></path><path style="fill:#6E6E6E;" d="M210,397c0,0,12.25,4.5,16,13c1-0.25,1-0.25,1-0.25l0.25-3.75c0,0-5-9.25-16.5-12.25C210.5,395.5,210,397,210,397z"></path><path style="fill:#6E6E6E;" d="M228.75,391c0,0-4.25,8.75-10.5,6s-3.5-11.25,3.5-8.25c-3.75,1.5-3,4.25-0.75,4.75s8-4.75,8-9.75C229.5,388.5,228.75,391,228.75,391z"></path><path style="fill:#6E6E6E;" d="M211.453,395.902c0,0,1.769-21.937,2.785-22.22c1.015-0.284,3.013-0.183,2.946,1.148c-0.067,1.332-2.435,21.906-2.435,21.906L211.453,395.902z"></path><path style="fill:#6E6E6E;stroke:#000000;stroke-linecap:round;stroke-linejoin:round;" d="M234.667,393c0,1.334-3.667,35.334-3.667,35.334s-19.333-2.334-23.333-7.667c0.333-3.667,1-8.667,1-8.667s9,5.334,18,5c2-18.666,3.667-48.666,3.667-48.666L234.667,393z"></path><path style="fill:#FFFFFF;" d="M232,381.5l-3.5,40c0,0-16.75-2.75-19.5-6.5c0,2.25,0,3.5,0,3.5s11.25,5.25,21.25,5.25c0.75-7.5,3-36.75,3-36.75L232,381.5z"></path></g><g id="bottomsXMLID_43_"><g><path style="fill:#FFFFFF;" d="M285.67,397.67c0,0,7,19.33,7.66,25.33c-5.33,0.67-16.66,6.67-22.66,8.33c-6,1.67-15,0-28.34-2C232,413,229,342,229,342l50.67-0.67c0,0,3.33,3.34,3.5,4.84c0.16,1.5,0.5,3.5,0.5,3.5s0,0,1.33,6.33s-0.33,31.67-0.33,31.67s2.33,3.75,2.33,5.08S285.67,397.67,285.67,397.67z"></path></g></g><path style="fill:#E4E0F3;" d="M246.833,351.833c1.333-0.333,21,0.167,33.167-8.833c-17.166-0.833-34.167,0.833-34.167,0.833L246.833,351.833z"></path><g><path style="fill:none;" d="M260.25,386.75c-1.67-1.762-3.476-2.627-5.088-3.021c2.393,3.98,4.86,8.065,7.236,11.953C263.188,392.641,262.844,389.488,260.25,386.75z"></path><path style="fill:#E4E0F3;" d="M251.82,378.16c-6.631-11.071-11.951-20.043-11.82-19.493c0.746,3.148,4.777,13.346,10.139,24.767l-1.639-4.684C248.5,378.75,249.824,378.262,251.82,378.16z"></path><path style="fill:#E4E0F3;" d="M273,412.5c-2.139-3.178-5.015-7.736-8.18-12.87c-1.355,3.337-3.07,5.62-3.07,5.62s-0.355-0.445-0.951-1.216c2.242,3.867,4.506,7.447,6.701,10.466C271,414.75,272.275,412.709,273,412.5z"></path><path style="fill:#E4E0F3;" d="M255.162,383.729c-2.59-0.633-4.664-0.053-4.878,0.012c2.796,5.941,5.945,12.195,9.178,17.954c1.285-1.833,2.386-3.894,2.937-6.013C260.022,391.794,257.555,387.709,255.162,383.729z"></path><path style="fill:#6E6E6E;" d="M259.25,402c0.613,0.818,1.137,1.502,1.549,2.034c-0.446-0.77-0.893-1.549-1.337-2.34C259.391,401.796,259.322,401.9,259.25,402z"></path><path style="fill:#6E6E6E;" d="M250.25,383.75c0,0,0.021-0.006,0.034-0.01c-0.048-0.103-0.097-0.205-0.145-0.307L250.25,383.75z"></path><path style="fill:#6E6E6E;" d="M260.25,386.75c2.594,2.738,2.938,5.891,2.148,8.932c0.82,1.345,1.63,2.663,2.422,3.948c1.757-4.327,2.908-10.428-1.07-15.63c-3.975-5.197-8.787-6-11.93-5.84c1.085,1.811,2.204,3.678,3.342,5.568C256.774,384.123,258.58,384.988,260.25,386.75z"></path><path style="fill:#6E6E6E;" d="M278.5,384.833c0,0,2.499,3.333,6.333,3.5c0-2.333,0-3.833,0-3.833s-3.834-0.501-5.5-2.667C278.667,383.667,278.5,384.833,278.5,384.833z"></path><path style="fill:#6E6E6E;" d="M264.75,398.75c0,0,4.25-1.25,9,2.5s5.75,8.25,5.75,8.25l2.75-1.75c0,0-1.691-7.85-7.25-10.75c-5.75-3-10.25-2.5-10.25-2.5V398.75z"></path><path style="fill:#6E6E6E;" d="M281.75,409c0-0.75-2.5-11.5,5-17.25c0.25,1-0.75,4.75-0.75,4.75l0.75,3.25c0,0-3,4.75-1.75,8.5C283.25,409.25,281.75,409,281.75,409z"></path><path style="fill:#505050;" d="M255.162,383.729c-1.138-1.891-2.257-3.758-3.342-5.568c-1.996,0.102-3.32,0.59-3.32,0.59l1.639,4.684c0.048,0.102,0.096,0.204,0.145,0.307C250.498,383.676,252.572,383.096,255.162,383.729z"></path><path style="fill:#505050;" d="M264.82,399.63c-0.792-1.285-1.602-2.604-2.422-3.948c-0.551,2.119-1.651,4.18-2.937,6.013c0.444,0.791,0.891,1.57,1.337,2.34c0.596,0.771,0.951,1.216,0.951,1.216S263.465,402.967,264.82,399.63z"></path></g><path style="fill:#6E6E6E;" d="M247,413.75c0,0,12.403,4.233,21.75,2.75c15.75-2.5,20.25-8,20.25-8l-1-3.25c0,0-8,4.5-20,7.5c-7.28,1.82-22.75-3.5-22.75-3.5L247,413.75z"></path><path style="fill:#6E6E6E;" d="M245.25,409.75c0,0,4.5-6,13.25-9.75c1.75,3,2.25,4,2.25,4s-7.5,2.5-11.75,8C246.75,411.75,245.25,409.75,245.25,409.75z"></path><path style="fill:#6E6E6E;" d="M239.684,393.5c0,0,4.25,8.75,10.5,6s3.5-11.25-3.5-8.25c3.75,1.5,3,4.25,0.75,4.75s-8-4.75-8-9.75C238.934,391,239.684,393.5,239.684,393.5z"></path><path style="fill:#6E6E6E;" d="M241,386.75c0,0,1.5-5,8-4.25c-1.25-3.25-1.75-4.75-1.75-4.75s-6,0.75-7.5,6C239.75,386,241,386.75,241,386.75z"></path><path style="fill:none;stroke:#000000;stroke-linecap:round;stroke-linejoin:round;" d="M236.587,352.19c0,0,19.021,49.111,31.161,62.453"></path></g><g><g><path style="fill:none;stroke:#000000;stroke-linecap:round;stroke-linejoin:round;" d="M229,342c0,0,3,71,13.33,87.33c13.34,2,22.34,3.67,28.34,2c6-1.66,17.33-7.66,22.66-8.33c-0.66-6-7.66-25.33-7.66-25.33s1.33-3.59,1.33-4.92s-2.33-5.08-2.33-5.08s1.66-25.34,0.33-31.67s-1.33-6.33-1.33-6.33s-0.34-2-0.5-3.5c-0.17-1.5-3.5-4.84-3.5-4.84L229,342z"></path></g><path style="fill:#6E6E6E;stroke:#000000;stroke-linecap:round;stroke-linejoin:round;" d="M229,343c0,0-0.333,60.001,13.333,86.334c8.333,2,19.667,4.334,28.333,2s19.666-8.001,22.666-8.334c0-4.666-2-10-2-10s-17.334,8-24,8.667s-19-1.333-19-1.333s-12-41.334-12-76.334C232,343,229,343,229,343z"></path><path style="fill:#FFFFFF;" d="M232,343.75c0,0,1.5,66,13.75,82.75c8,2.75,16.983,2.582,25,0.75c8.75-2,22.25-7.25,22.25-7.25l-0.5-2.75c0,0-14,5-22.5,7.75c-3.923,1.27-19.75,0.5-22.25-0.75c-4.5-6.75-11.75-29.75-13-80L232,343.75z"></path></g></g><g><g id="bottomsXMLID_42_"><g><path style="fill:#505050;" d="M270.754,356.92c-1.17,0-7.67-0.84-7.67-0.84s-3.5,1.84-5.5,3.84c-5.67-6.67-7.83-19.666-7.83-19.666l12.5-0.17C262.254,340.084,267.754,350.75,270.754,356.92z"></path></g><path style="fill:#E4E0F3;" d="M253.751,343.584c0,1.167,5.666,14.999,5.666,14.999s1.667-1,1.667-1.5s-4.333-13.499-4.333-13.499H253.751z"></path><polygon style="fill:#E4E0F3;" points="260.417,343.084 265.251,356.25 268.251,356.75 263.084,342.751 "></polygon><g><path style="fill:none;stroke:#000000;stroke-linecap:round;stroke-linejoin:round;" d="M249.754,340.254c0,0,2.16,12.996,7.83,19.666c2-2,5.5-3.84,5.5-3.84s6.5,0.84,7.67,0.84c-3-6.17-8.5-16.836-8.5-16.836L249.754,340.254z"></path></g></g><g><path style="fill:#6E6E6E;stroke:#000000;stroke-linecap:round;stroke-linejoin:round;" d="M276.5,326.5c0,0-4.667,0.736-26.333,0.736S223.5,326.5,223.5,326.5s-2.75,13.5-4,16c1.5,1,12.5,2.5,30.5,2.5s29-1.5,30.5-2.5C279.25,340,276.5,326.5,276.5,326.5z"></path><path style="fill:#FFFFFF;" d="M223.083,330.667c0,0,7.583,0.25,8.583,0.417s11.583,1.501,16.25,1.917s14.583-2.25,15.917-2.25s12.665-0.75,12.665-0.75l0.75,2.5c0,0-11.331,0.75-13.998,1.583s-11.334,1.833-16,1.75c-4.667-0.083-15.167-1.833-15.917-1.833s-9.083-0.25-9.083-0.25L223.083,330.667z"></path><g><path style="fill:#505050;" d="M250.333,343.001c3.446,0.234,7.746-1.088,10.788-2.474c-3.308,0.357-7.957,0.922-11.411,1.149C249.805,342.08,249.998,342.521,250.333,343.001z"></path><path style="fill:#FFFFFF;" d="M279.164,339.751l-1.166-3.834c0,0-11.748,0.834-13.414,0.917s-13.418,1.417-17.584,1.25c-4.167-0.167-13-0.833-16.083-1s-9.333-0.167-9.333-0.167l-1.083,3.167c0,0,8.75,0.25,9.917,0.25s12.25,1.167,15.833,1.417c0.832,0.058,2.049,0.02,3.46-0.074c-0.402-1.695,0.957-2.676,0.957-2.676c0.333-0.084,10.584-1.167,13.5-0.167c-0.673,0.499-1.747,1.102-3.046,1.693c1.162-0.126,2.163-0.227,2.879-0.276C267.582,340.001,279.164,339.751,279.164,339.751z"></path><path style="fill:#E4E0F3;" d="M250.667,339.001c0,0-1.359,0.98-0.957,2.676c3.454-0.228,8.104-0.792,11.411-1.149c1.299-0.592,2.373-1.194,3.046-1.693C261.251,337.834,251,338.917,250.667,339.001z"></path></g><path style="fill:none;stroke:#000000;stroke-linecap:round;stroke-linejoin:round;" d="M251.667,343.333c0,0,6.167-0.666,12.833-4.5"></path></g><g id="bottomsXMLID_40_"><g><path style="fill:#6E6E6E;" d="M255.38,326.583c0,0-7.88,28.416-8.38,32.416c-3.33-2.5-5.33-2.5-5.33-2.5l-9,2.17c1.66-6.5,8-29.336,11.33-32.666C247.83,325.003,254.42,325.833,255.38,326.583z"></path></g><path style="fill:#FFFFFF;" d="M246.167,325.5c0,0-6.833,20.999-10.167,32.499c1.833-0.833,4.167-1.333,4.167-1.333l8.333-31L246.167,325.5z"></path><path style="fill:#FFFFFF;" d="M251.833,326c0,0-6.833,26.998-7.333,30.832c1.667,1.667,2,2.167,2,2.167l8.667-31.833C255.167,327.166,253,325.834,251.833,326z"></path><g><path style="fill:none;stroke:#000000;stroke-linecap:round;stroke-linejoin:round;" d="M255.38,326.583c0,0-7.88,28.416-8.38,32.416c-3.33-2.5-5.33-2.5-5.33-2.5l-9,2.17c1.66-6.5,8-29.336,11.33-32.666C247.83,325.003,254.42,325.833,255.38,326.583z"></path></g></g></g></g></g></svg>