<svg xmlns="http://www.w3.org/2000/svg" width="500" height="500" version="1.1"><g id="x084"><g><g><g><path style="fill:#505050;stroke:#000000;stroke-linecap:round;stroke-linejoin:round;" d="M211.395,375c0,0-10,33.667-8.667,56.334c4.667,3,12.333,1.666,12.333,1.666L211.395,375z"></path><path style="fill:#505050;stroke:#000000;stroke-linecap:round;stroke-linejoin:round;" d="M288.606,375c0,0,10,33.667,8.666,56.334c-4.666,3-12.333,1.666-12.333,1.666L288.606,375z"></path></g><g><g><path style="fill:#FFFFFF;stroke:#000000;stroke-linecap:round;stroke-linejoin:round;" d="M275,324.334c0,0-10,0.333-25,0.333s-25-0.333-25-0.333s-1.97,5.804-5.078,15.416h60.156C276.971,330.138,275,324.334,275,324.334z"></path><path style="fill:#00A33D;" d="M262.113,337c0,0,1-5.75,6-6.25s5.75,2.5,4.75,4.5c1.75-0.75,2.5-4.5,2-5.75s-10.25-5.25-13.25,4.5C261.113,337,262.113,337,262.113,337z"></path><path style="fill:#00A33D;" d="M267.947,330.25c0,0,3.291,2.541,1.75,6.958c-0.418-2.5-1.917-4.708-4.459-5.625C265.697,329.958,267.947,330.25,267.947,330.25z"></path><g><path style="fill:#FFADDE;" d="M271.334,334c0,0-1.168,3.833-2.834,3.333s-1.853-2.254-1.853-2.254S269.834,333.5,271.334,334z"></path><path style="fill:#FFADDE;" d="M271.096,334.798c0,0-2.926-2.737-1.742-4.013s2.84-0.669,2.84-0.669S272.205,333.673,271.096,334.798z"></path><path style="fill:#FFADDE;" d="M271.481,334c0,0,1.167,3.833,2.833,3.333c1.667-0.5,1.854-2.254,1.854-2.254S272.981,333.5,271.481,334z"></path></g><g><g><path style="fill:#E4E0F3;" d="M247.5,325.25c0.663,0.552,1.177,2.49,1.335,4.753c0.875,0.959,1.629,2.255,2.165,3.997c0.5,3-0.5,3-0.5,3s-0.361-2.025-1.694-3.777c-0.188,2.022-0.715,3.927-1.722,5.027c4.375,0.25,6.917-0.042,6.917-0.042V325.5L247.5,325.25z"></path><path style="fill:#00A33D;" d="M248.835,330.003c-4.026-4.405-10.674-1.529-11.085-0.503c-0.5,1.25,0.25,5,2,5.75c-1-2-0.25-5,4.75-4.5c2.031,0.203,3.394,1.274,4.306,2.473C248.905,332.148,248.907,331.043,248.835,330.003z"></path><path style="fill:#006E33;" d="M251,334c-0.536-1.742-1.29-3.038-2.165-3.997c0.072,1.04,0.07,2.146-0.029,3.22c1.333,1.752,1.694,3.777,1.694,3.777S251.5,337,251,334z"></path></g><path style="fill:#00A33D;" d="M244.667,330.25c0,0-3.292,2.541-1.75,6.958c0.417-2.5,1.917-4.708,4.458-5.625C246.917,329.958,244.667,330.25,244.667,330.25z"></path><path style="fill:#00A33D;" d="M233.766,326.761c0,0,0.108,6.431,3.689,10.545C233.284,337.429,230.065,329.715,233.766,326.761z"></path><path style="fill:#00A33D;" d="M229.647,335.246c0,0-4.617-1.058-4.732-6.615C227.897,328.343,230.337,333.472,229.647,335.246z"></path></g><g><path style="fill:#FFADDE;" d="M232.833,334c0,0-1.167,3.833-2.833,3.333s-1.853-2.254-1.853-2.254S231.333,333.5,232.833,334z"></path><path style="fill:#FFADDE;" d="M232.595,334.798c0,0-2.925-2.737-1.742-4.013s2.84-0.669,2.84-0.669S233.706,333.673,232.595,334.798z"></path><path style="fill:#FFADDE;" d="M232.981,334c0,0,1.167,3.833,2.833,3.333s1.853-2.254,1.853-2.254S234.481,333.5,232.981,334z"></path></g></g><path style="fill:#6E6E6E;stroke:#000000;stroke-linecap:round;stroke-linejoin:round;" d="M280.078,337.75c0,0-7.576,1-29.827,1s-30.329-1-30.329-1c-1.491,4.613-4.014,10.099-5.255,16.25c-7.333,36.334-5.333,70.667-4.333,80c0,0,3.667,1.001,6.667,0.334c1.333,1.666,2.333,2.666,5,3.666s12,4,28,4s25.333-3,28-4s3.667-2,5-3.666c3,0.667,6.667-0.334,6.667-0.334c1-9.333,2.999-43.666-4.334-80C284.092,347.849,281.569,342.363,280.078,337.75z"></path><path style="fill:#505050;" d="M265.334,338.863c0,0,7.166,38.5,6.666,46.167c-3.666-5.333-7.999-17.833-9.166-24.333s-1.167-21.667-1.167-21.667L265.334,338.863z"></path><g><path style="fill:none;stroke:#000000;stroke-linecap:round;stroke-linejoin:round;" d="M265.625,339.75c0,2.5,6,30.25,7,48"></path></g><g><path style="fill:none;stroke:#000000;stroke-linecap:round;stroke-linejoin:round;" d="M209.833,424l7.667-0.398c3,1.667,16,4.731,32.333,4.731"></path><path style="fill:none;stroke:#000000;stroke-linecap:round;stroke-linejoin:round;" d="M290.167,424l-7.667-0.398c-3,1.667-16,4.731-32.333,4.731"></path></g></g></g><g><path style="fill:#FFFFFF;stroke:#000000;stroke-linecap:round;stroke-linejoin:round;" d="M250,324.667c0,0,1.5-1.667,2.75-1.667s9,0,9,0l1.5,1.5c0,0,4.25,64,2.5,65c-0.75-0.75-2.5-1.75-5-2s-6.5-2.75-7.5-4c1-16.5-1-58-1-58L250,324.667z"></path><path style="fill:#00A33D;" d="M255.166,382.167c0,0,2.666,3.833,5.333,2.5s4.834-4.667,4.334-7.667C261.333,385.5,255.166,382.167,255.166,382.167z"></path><g><path style="fill:#FFADDE;" d="M260.334,379.5c0,0-1.168,3.833-2.834,3.333s-1.853-2.254-1.853-2.254S258.834,379,260.334,379.5z"></path><path style="fill:#FFADDE;" d="M260.096,380.298c0,0-2.926-2.737-1.742-4.013s2.84-0.669,2.84-0.669S261.205,379.173,260.096,380.298z"></path><path style="fill:#FFADDE;" d="M260.481,379.5c0,0,1.167,3.833,2.833,3.333c1.667-0.5,1.854-2.254,1.854-2.254S261.981,379,260.481,379.5z"></path></g></g><g><path style="fill:#00A33D;stroke:#000000;stroke-linecap:round;stroke-linejoin:round;" d="M256,322.5c0,0,1.75,18,1.75,20.75c1,0,2-0.25,2-0.25s-0.25-17-1.75-20.5C257.25,322.25,256,322.5,256,322.5z"></path><g><path style="fill:#00A33D;stroke:#000000;stroke-linecap:round;stroke-linejoin:round;" d="M258.467,341c0,0,1.741,32.334,0.871,37.667c-0.746-0.5-1.492-0.667-1.492-0.667s-0.622-34.833-1.119-37.333C257.596,340.5,258.467,341,258.467,341z"></path><path style="fill:#FFF200;stroke:#000000;stroke-linecap:round;stroke-linejoin:round;" d="M259.959,341c0,0,1.741,32.334,0.87,37.667c-0.746-0.5-1.491-0.667-1.491-0.667s-0.622-34.833-1.119-37.333C259.088,340.5,259.959,341,259.959,341z"></path><path style="fill:#FC0101;stroke:#000000;stroke-linecap:round;stroke-linejoin:round;" d="M261.451,341c0,0,1.741,32.334,0.87,37.667c-0.746-0.5-1.492-0.667-1.492-0.667s-0.621-34.833-1.118-37.333C260.58,340.5,261.451,341,261.451,341z"></path></g><path style="fill:#00A33D;stroke:#000000;stroke-linecap:round;stroke-linejoin:round;" d="M260.234,344c0,0-1.834,0.501-2.334-0.333c-1.5-1.334-3-2.168-2.5-3.334s2.5-2,2.5-2s4.334-1,4.834,2c-0.834,2-1.667,2.167-1.667,2.167L260.234,344z"></path></g></g></g></svg>