<svg xmlns="http://www.w3.org/2000/svg" width="500" height="500" version="1.1"><g id="x085"><g><g><g><path style="fill:#505050;stroke:#000000;stroke-width:0.9025;stroke-linecap:round;stroke-linejoin:round;" d="M214.083,404.734c0,0-14.5-0.407-18-3.665c6-19.956,20.5-50.771,20.5-50.771L214.083,404.734z"></path><path style="fill:#505050;stroke:#000000;stroke-width:0.9025;stroke-linecap:round;stroke-linejoin:round;" d="M285.917,404.734c0,0,14.5-0.407,18-3.665c-6-19.956-20.5-50.771-20.5-50.771L285.917,404.734z"></path></g><path style="fill:#6E6E6E;stroke:#000000;stroke-width:0.9025;stroke-linecap:round;stroke-linejoin:round;" d="M284,349.754c-2-6.516-5.5-14.253-5.5-14.253l-28.5,2.85l-28.5-2.85c0,0-3.5,7.737-5.5,14.253c-2,6.517-11,56.61-11,56.61c6.5,3.258,10.5,2.036,12.5,2.036c0,0.543,0.333,2.443,0.667,2.851s12.833,0,17.833,1.629s9.5,1.222,14,0.407c4.5,0.814,9,1.222,14-0.407s17.5-1.222,17.834-1.629s0.666-2.308,0.666-2.851c2,0,6,1.222,12.5-2.036C295,406.364,286,356.271,284,349.754z"></path><path style="fill:#505050;" d="M284,380c0,0,3.333,20.333,2,28c-1.667,0.334-3.333-0.666-3.333-0.666L284,380z"></path><path style="fill:#505050;" d="M215.715,380c0,0-3.333,20.333-2,28c1.667,0.334,3.333-0.666,3.333-0.666L215.715,380z"></path><g><path style="fill:none;stroke:#000000;stroke-width:0.9025;stroke-linecap:round;stroke-linejoin:round;" d="M282.51,408.4c0,0,1.834-20.732,1.167-32.066"></path><path style="fill:none;stroke:#000000;stroke-width:0.9025;stroke-linecap:round;stroke-linejoin:round;" d="M217.49,408.4c0,0-1.834-20.732-1.167-32.066"></path></g><path style="fill:#505050;" d="M222,335.501c0,0,3,9.166,8,12.166c-2-5.667-2.333-9.999,0.333-11.333C227,333.334,222,335.501,222,335.501z"></path><path style="fill:#505050;" d="M277.666,335.501c0,0-3,9.166-8,12.166c2-5.667,2.334-9.999-0.333-11.333C272.666,333.334,277.666,335.501,277.666,335.501z"></path><path style="fill:#505050;" d="M230.667,352c0,0,10.667,18.333,18.667,21s19.333-24.333,19.333-24.333c-4.667,8.333-14,18.001-19.333,17.667S230.667,352,230.667,352z"></path></g><g><path style="fill:#6E6E6E;stroke:#000000;stroke-width:0.9025;stroke-linecap:round;stroke-linejoin:round;" d="M275.667,324.334h-51.334c0,0-3,7.666-3,11.333c7.334,2.667,25.792,5,28.667,5s21.335-2.333,28.667-5C278.667,332,275.667,324.334,275.667,324.334z"></path><path style="fill:#505050;" d="M224.5,325.001c0,0,19.5,3.166,26.167,3.333S274.357,325,274.357,325s2.144,3.667,2.31,4.667c-1.834,1.5-4.167,3.834-4.167,3.834c3-0.334,5.5-0.167,5.5-0.167l0.167,1.833c0,0-22.501,4.898-28.167,4.898c-5.667,0-28-4.564-28-4.564s0.5-2.667,0.667-3.167s5-1.001,6-1.167c-2.833-2.333-4.5-3.833-4.5-3.833L224.5,325.001z"></path><path style="fill:#6E6E6E;" d="M248.25,332.75c0,0,14.25-1.5,16.5-2S276,327.5,276,327.5c-2.75,2.5-10.5,6.5-12.75,7.25S248.25,332.75,248.25,332.75z"></path></g></g></g></svg>