<svg xmlns="http://www.w3.org/2000/svg" width="500" height="500" version="1.1"><g id="x091"><g><path style="fill:#6E6E6E;stroke:#000000;stroke-linecap:round;stroke-linejoin:round;" d="M282.11,348.25h-64.22c-3.567,14.1,0.037,28.728,0.037,30.898c0,0.748,1.316,14.517,1.841,21.195c-0.738,1.184-1.672,2.533-1.768,2.823c0.667,1.334,1.334,3,1.334,3s-0.833,1.668-1,2.334c0.717,0.956,1.52,3.194,2.224,4.755c0.682,6.282,1.836,13.045,2.878,18.493c-0.461,1.338,1.027,6.825,1.407,6.969c0.002,0.01,0.005,0.022,0.007,0.032h14.516c0,0,1.329-5.685,1.013-6.737c0.739-4.646,1.593-10.259,1.918-13.337c0.095-0.903,0.172-1.807,0.239-2.7c0.972-1.677,1.967-3.813,2.299-5.142c-0.333-0.5-1.5-3.833-1.5-3.833s0.666-1.334,1.166-3.667c-0.194-0.483-1.059-1.525-1.752-2.317c0.026-3.618,0.106-13.185,0.234-14.969c0.362-5.084,5.083-13.288,5.083-13.288h3.871c0,0,4.721,8.204,5.083,13.288c0.128,1.783,0.208,11.35,0.233,14.968c-0.693,0.792-1.559,1.835-1.752,2.318c0.5,2.333,1.166,3.667,1.166,3.667s-1.166,3.333-1.5,3.833c0.332,1.329,1.327,3.465,2.3,5.142c0.065,0.894,0.144,1.797,0.238,2.7c0.324,3.078,1.179,8.691,1.918,13.338c-0.316,1.053,1.014,6.736,1.014,6.736h14.516c0.002-0.011,0.005-0.022,0.007-0.033c0.382-0.144,1.868-5.628,1.406-6.966c1.042-5.449,2.197-12.214,2.879-18.498c0.704-1.561,1.506-3.796,2.223-4.752c-0.166-0.666-1-2.334-1-2.334s0.668-1.666,1.334-3c-0.096-0.289-1.029-1.639-1.767-2.821c0.524-6.678,1.841-20.449,1.841-21.197C282.074,376.978,285.678,362.35,282.11,348.25z M228,408.625c1,1.125,1.875,3.375,1.875,3.375s5.375-1.625,6.75-2c2.875,1,3.125,1.5,2.75,1.5s-3.25,2.5-3.625,2.5c-1.375-0.625-2.5,0.125-2.5,0.125l-5.875,1.375c-1.25-1-5.5-5.125-5.5-5.125S225.75,409.5,228,408.625z"></path><path style="fill:#505050;" d="M262.834,366.834c-2,0.333-12.834,1.5-12.834,1.5s-10.834-1.167-12.834-1.5c3.167,3.833,6.667,5.667,6.667,5.667l-1.5,12c0,0,1.833-5.334,2.833-7.167s2.834-5.167,2.834-5.167l2,0.167l2-0.167c0,0,1.834,3.334,2.834,5.167s2.834,7.167,2.834,7.167l-1.5-12C256.168,372.501,259.668,370.667,262.834,366.834z"></path><g><g><path style="fill:#505050;" d="M255.887,403.25c0,0,1,3.375,1.375,3.875c1.75,0.5,5.875,0.25,5.875-0.125C259.762,404.75,255.887,403.25,255.887,403.25z"></path><path style="fill:#505050;" d="M281.613,403.167c0,0-1.352,3.333-1.727,3.458s-5.5-0.125-5.5-0.125C276.387,403.875,281.613,403.167,281.613,403.167z"></path><path style="fill:#505050;" d="M255.637,411.125c0,0,1.625,4,2.625,4.875c1.25,0.75,5.875-1.5,5.875-1.5L255.637,411.125z"></path></g><g><path style="fill:#505050;" d="M244.113,403.25c0,0-1,3.375-1.375,3.875c-1.75,0.5-5.875,0.25-5.875-0.125C240.238,404.75,244.113,403.25,244.113,403.25z"></path><path style="fill:#505050;" d="M218.387,403.167c0,0,1.352,3.333,1.727,3.458s5.5-0.125,5.5-0.125C223.613,403.875,218.387,403.167,218.387,403.167z"></path><path style="fill:#505050;" d="M244.363,411.125c0,0-1.625,4-2.625,4.875c-1.25,0.75-5.875-1.5-5.875-1.5L244.363,411.125z"></path></g></g><line style="fill:none;stroke:#000000;stroke-linecap:round;stroke-linejoin:round;" x1="217.417" y1="353.667" x2="282.583" y2="353.667"></line><g><polyline style="fill:none;stroke:#000000;stroke-linecap:round;stroke-linejoin:round;" points="246.718,354.334 246.884,369.001 248.282,372.76 "></polyline><polyline style="fill:none;stroke:#000000;stroke-linecap:round;stroke-linejoin:round;" points="253.282,354.334 253.116,369.001 251.718,372.76 "></polyline></g></g></g></svg>