<svg xmlns="http://www.w3.org/2000/svg" width="500" height="500" version="1.1"><g id="x092"><g><path style="fill:#6E6E6E;stroke:#000000;stroke-linecap:round;stroke-linejoin:round;" d="M292.833,423.736l-0.319-2.67c0.055-23.71-10.534-68.279-12.253-78.066h-60.521c-1.719,9.787-12.307,54.355-12.253,78.066l-0.319,2.67c0,0,19.666,5.567,23.333,6.264c5.021-0.237,11.446-1.781,15-2.73c2.989,0.044,6.009,0.044,8.999,0c3.554,0.949,9.979,2.493,15,2.73C273.167,429.304,292.833,423.736,292.833,423.736z"></path><path style="fill:#505050;" d="M245.5,427.27l9-0.4c0,0-1-15.139-4.5-23.49C245.667,412.078,245.5,427.27,245.5,427.27z"></path><line style="fill:none;stroke:#000000;stroke-linecap:round;stroke-linejoin:round;" x1="250" y1="427.042" x2="250" y2="385.543"></line></g></g></svg>