<svg xmlns="http://www.w3.org/2000/svg" width="500" height="500" version="1.1"><g id="x094"><g><g><g><path style="fill:#6E6E6E;stroke:#000000;stroke-linecap:round;stroke-linejoin:round;" d="M289.5,397.166c-1.25-14.799-4.834-28.373-4.834-31.333c0-2.959-4.666-21.083-4.666-21.083s-10.334,2.206-30.5,2.206c-20.167,0-30.5-2.206-30.5-2.206s-4.667,18.124-4.667,21.083c0,2.96-3.583,16.534-4.833,31.333c-1.667,5.334-4.72,9.232-4.5,9.834c0.5,1.366,9,13.573,13.5,15.167c7.75,0.683,19.5,0.349,22-0.334c4.5-2.732,5.667-7.167,8.167-10.667c-0.167-1.904-2.167-6.166-4-10.333c0.667-15.333,4.334-28.084,4.833-30.812c0.499,2.728,4.166,15.479,4.833,30.812c-1.833,4.167-3.833,8.429-4,10.333c2.5,3.5,3.667,7.935,8.167,10.667c2.5,0.683,14.25,1.017,22,0.334c4.5-1.594,13-13.801,13.5-15.167C294.221,406.398,291.166,402.5,289.5,397.166z"></path><path style="fill:#505050;" d="M235.8,363.899c0,0.667,13.333,6.333,14.5,6.333c2.832-0.833,12.999-6.166,12.999-6.166s-5.166,2.833-12.499,2.833C243.467,366.899,235.8,363.899,235.8,363.899z"></path><g><polyline style="fill:none;stroke:#000000;stroke-linecap:round;stroke-linejoin:round;" points="247.5,349.001 247.5,367.001 248.5,369.668 "></polyline><polyline style="fill:none;stroke:#000000;stroke-linecap:round;stroke-linejoin:round;" points="252.5,349.001 252.5,367.001 251.5,369.668 "></polyline></g><g><path style="fill:none;stroke:#000000;stroke-linecap:round;stroke-linejoin:round;" d="M237.5,364.902c0,0,10.25,5,12,5.25"></path><path style="fill:none;stroke:#000000;stroke-linecap:round;stroke-linejoin:round;" d="M261.5,364.902c0,0-10.25,5-12,5.25"></path></g><path style="fill:#505050;" d="M214.667,397.334c0,0-0.833,6.833-2.333,8c-2.667-1.333-2-2.166-2-2.166s-0.5-8.667,0.333-11.667C213,392.668,214.667,397.334,214.667,397.334z"></path><path style="fill:none;stroke:#000000;stroke-linecap:round;stroke-linejoin:round;" d="M209.667,396.666c0,0-0.167,4.501,0.167,6.334"></path><path style="fill:#505050;" d="M284.333,397.334c0,0,0.833,6.833,2.333,8c2.667-1.333,2-2.166,2-2.166s0.5-8.667-0.333-11.667C286,392.668,284.333,397.334,284.333,397.334z"></path><path style="fill:none;stroke:#000000;stroke-linecap:round;stroke-linejoin:round;" d="M289.333,396.666c0,0,0.167,4.501-0.167,6.334"></path></g><g><g><path style="fill:none;stroke:#000000;stroke-linecap:round;stroke-linejoin:round;" d="M244.667,400.833c0,0-0.5,5.834-2.333,8.167"></path></g><g><path style="fill:none;stroke:#000000;stroke-linecap:round;stroke-linejoin:round;" d="M254.333,400.833c0,0,0.5,5.834,2.333,8.167"></path></g></g></g><path style="fill:#18170E;stroke:#000000;stroke-linecap:round;stroke-linejoin:round;" d="M279.833,338.167l-2-2.5l-0.167,1.334c0,0-6.334,1.659-27.666,1.659c-21.333,0-27.667-1.659-27.667-1.659l-0.167-1.334l-2,2.5l-0.667,7.667c8.667,2.833,30.5,2.167,30.5,2.167s21.833,0.666,30.5-2.167L279.833,338.167z"></path><polyline style="fill:#6E6E6E;stroke:#000000;stroke-linecap:round;stroke-linejoin:round;" points="269.813,348.125 269.667,337.667 273.313,337.438 274,348 "></polyline><polyline style="fill:#6E6E6E;stroke:#000000;stroke-linecap:round;stroke-linejoin:round;" points="229.854,348.125 230,337.667 226.354,337.438 225.667,348 "></polyline></g></g></svg>