<svg xmlns="http://www.w3.org/2000/svg" width="500" height="500" version="1.1"><g id="x099"><g><g><path style="fill:#6E6E6E;stroke:#000000;stroke-linecap:round;stroke-linejoin:round;" d="M281.341,347.967L250,350.499l-31.34-2.532c0,0-2.564,10.668-2.104,18.747c0.151,2.651,0.718,23.709,2.625,41.453c1.71,15.909,4.789,28.828,4.789,28.828s2,1.942,8.861,1.817c4.826,0.375,7.684-1.938,7.684-1.938s2.882-16.542,3.051-22.042s0.441-25.646,0.441-25.646s0.762-7.75,4.663-15.91h2.659c3.902,8.16,4.664,15.91,4.664,15.91s0.271,20.146,0.441,25.646s3.051,22.042,3.051,22.042s2.858,2.313,7.685,1.938c6.859,0.125,8.86-1.817,8.86-1.817s3.079-12.919,4.789-28.828c1.908-17.744,2.475-38.802,2.626-41.453C283.904,358.635,281.341,347.967,281.341,347.967z"></path><g><g><path style="fill:#505050;" d="M256.449,369.182L250,367.934l-6.449,1.248c0,0-3.846-1.357-9.953-4.523c0,0,8.821,8.143,10.18,8.821c1.356,0.679,1.762,5.146,1.762,5.146l2.715-5.874h3.489l2.516,5.874c0,0,0.605-4.467,1.963-5.146s10.18-8.821,10.18-8.821C260.295,367.824,256.449,369.182,256.449,369.182z"></path><path style="fill:none;stroke:#000000;stroke-linecap:round;stroke-linejoin:round;" d="M252.045,373.333c0,0,0.529-2.022,0.982-2.781c0.451-0.758,1.055-15.572,1.055-15.572"></path><path style="fill:none;stroke:#000000;stroke-linecap:round;stroke-linejoin:round;" d="M247.74,373.333c0,0-0.528-2.022-0.981-2.781c-0.452-0.758-1.056-15.572-1.056-15.572"></path><g><path style="fill:#505050;stroke:#000000;stroke-linecap:round;stroke-linejoin:round;" d="M275.023,352.716c0,0,0.68,4.751,2.035,6.561c1.357,1.81,6.063,4.786,6.063,4.786s0.875-6.25-1.438-13.25C278.404,351.604,275.023,352.716,275.023,352.716z"></path><path style="fill:#505050;stroke:#000000;stroke-linecap:round;stroke-linejoin:round;" d="M224.762,352.716c0,0-0.679,4.751-2.036,6.561c-1.357,1.81-6.062,4.786-6.062,4.786s-0.875-6.25,1.438-13.25C221.381,351.604,224.762,352.716,224.762,352.716z"></path></g></g><g><path style="fill:#6E6E6E;stroke:#000000;stroke-linecap:round;stroke-linejoin:round;" d="M280.765,344.599c0,0-0.688-1.213-1.472-0.958c-2.345,0.762-9.506,2.282-29.293,2.29c-19.787-0.008-26.948-1.528-29.293-2.29c-0.783-0.255-1.472,0.958-1.472,0.958l-1.805,5.63c0,0,5.953,3.932,32.569,3.935c26.616-0.003,32.569-3.935,32.569-3.935L280.765,344.599z"></path><g><path style="fill:#323232;stroke:#000000;stroke-linecap:round;stroke-linejoin:round;" d="M281.668,345.409c-16.174,3.167-31.782,2.468-31.782,2.468s-15.606,0.699-31.78-2.467c0,0-1.131,2.939-1.018,3.393c0.113,0.452,15.381,3.913,32.798,3.371c17.417,0.542,32.686-2.919,32.799-3.371C282.799,348.35,281.668,345.409,281.668,345.409z"></path><g><path style="fill:#6E6E6E;stroke:#000000;stroke-linecap:round;stroke-linejoin:round;" d="M227.833,354.865c-0.226-0.339,1.018-9.952,1.357-10.178c0.339-0.227,3.732,0.112,3.845,0.564c0.114,0.452-0.226,9.274-0.905,9.84"></path><path style="fill:#6E6E6E;stroke:#000000;stroke-linecap:round;stroke-linejoin:round;" d="M272.09,354.865c0.227-0.339-1.018-9.952-1.356-10.178c-0.339-0.227-3.733,0.112-3.846,0.564c-0.113,0.452,0.227,9.274,0.905,9.84"></path></g><path style="fill:#6E6E6E;stroke:#000000;stroke-linecap:round;stroke-linejoin:round;" d="M247.476,348.955c0,0,6.325-0.396,6.588,0.132s0.264,2.239-0.264,2.635s-6.061-0.263-6.193,0.132c-0.132,0.396-0.132,2.636,0.395,2.636c0.527,0,6.95,0.621,7.872-0.302c0.923-0.922,0.825-6.155,0.166-7.209c-0.658-1.055-7.774-1.055-8.301-0.659C247.212,346.715,247.476,348.955,247.476,348.955z"></path></g></g></g></g><g><g><g><path style="fill:#6E6E6E;stroke:#000000;stroke-linecap:round;stroke-linejoin:round;" d="M219.167,342.602c0,0-7.167,31.231-7.667,47.333c4.333,5.167,31.834,7.5,46.167,5.667c-3-15.667-5.5-51-5.5-51S224.834,345.102,219.167,342.602z"></path><path style="fill:#505050;" d="M236.375,345.25c0,0,3.875,41.125,7.25,50.25c2.125,0.5,6.625,0.125,6.625,0.125L236.375,345.25z"></path></g><path style="fill:#6E6E6E;stroke:#000000;stroke-linecap:round;stroke-linejoin:round;" d="M236.667,344.5c0,0.5,8.667,46.5,15,58.333C262.5,403,289.167,394,291.334,391c-1.5-12.167-8.334-43.833-11-49.833C270.5,346.167,236.667,344.5,236.667,344.5z"></path></g></g></g></g></svg>