<svg xmlns="http://www.w3.org/2000/svg" width="500" height="500" version="1.1"><g id="x010"><g><g><g><path style="fill:#6E6E6E;stroke:#000000;stroke-linecap:round;stroke-linejoin:round;" d="M239.5,281c0,0-3.666,5.833-6.833,19.333c-2.333,0.333-2.667,0.334-2.667,0.334s4-17,6.667-19.5C238.5,280,239.5,281,239.5,281z"></path><path style="fill:#6E6E6E;stroke:#000000;stroke-linecap:round;stroke-linejoin:round;" d="M230.334,284.167c0,0,1.166-1.666,2.333-1.5c-1.5,10.833-1.333,18.583-1.333,18.583l-2.834,0.25C228.5,301.5,229,287.501,230.334,284.167z"></path><path style="fill:#6E6E6E;stroke:#000000;stroke-linecap:round;stroke-linejoin:round;" d="M226.167,304.5c0,0-1.667-2.334-1-3.667c0.833-1,2.833-2.333,3.5-2.333s2.167,1,2.167,1l0.333-1.667c0,0,3.833-0.999,5.333,0.334c0.667,1.166,1.334,2,1.334,2l1.666-1.334c0,0,2.667,0.167,4.167,2.167c0.167,1.5,0.167,1.5,0.167,1.5s-1.333-0.5,0,0s2.833-0.167,3.666,1s0.833,1.833,1.167,2.833C249,307.333,250,308,250,308l-0.166,1.667L226.167,304.5z"></path><path style="fill:#505050;stroke:#000000;stroke-linecap:round;stroke-linejoin:round;" d="M225.667,305.833c-0.833,2.834-0.833,6.667,0,8.5c2.167,2.334,5.497,4.329,11.328,4.329c8.339,0,12.839-3.329,12.839-3.329v-5.666c0,0-7.5-6.834-13.5-8.5S226.757,302.124,225.667,305.833z"></path><path style="fill:#6E6E6E;stroke:#000000;stroke-linecap:round;stroke-linejoin:round;" d="M226.5,303.666c0,0-0.917,2.917-0.833,3.667c0.583-0.667,2.5-2,2.5-2s-0.083,1.583,2.667,2.333s3.916-1.5,3.916-1.5s0.917,2.916,3.75,3.25c2.834,0.334,3.667-1.083,3.667-1.083s0.583,2.167,3.083,2.917s3.834,0.333,3.834,0.333v-2.667c0,0-7.084-6.834-13.667-8.5S226.5,303.666,226.5,303.666z"></path></g><g><path style="fill:#6E6E6E;stroke:#000000;stroke-linecap:round;stroke-linejoin:round;" d="M260.5,281c0,0,3.666,5.833,6.833,19.333c2.333,0.333,2.667,0.334,2.667,0.334s-4-17-6.667-19.5C261.5,280,260.5,281,260.5,281z"></path><path style="fill:#6E6E6E;stroke:#000000;stroke-linecap:round;stroke-linejoin:round;" d="M269.666,284.167c0,0-1.166-1.666-2.333-1.5c1.5,10.833,1.333,18.583,1.333,18.583l2.834,0.25C271.5,301.5,271,287.501,269.666,284.167z"></path><path style="fill:#6E6E6E;stroke:#000000;stroke-linecap:round;stroke-linejoin:round;" d="M273.833,304.5c0,0,1.667-2.334,1-3.667c-0.833-1-2.833-2.333-3.5-2.333s-2.167,1-2.167,1l-0.333-1.667c0,0-3.833-0.999-5.333,0.334c-0.667,1.166-1.334,2-1.334,2l-1.666-1.334c0,0-2.667,0.167-4.167,2.167c-0.167,1.5-0.167,1.5-0.167,1.5s1.333-0.5,0,0s-2.834-0.167-3.666,1c-0.834,1.167-0.834,1.833-1.167,2.833S250,308,250,308l0.166,1.667L273.833,304.5z"></path><path style="fill:#505050;stroke:#000000;stroke-linecap:round;stroke-linejoin:round;" d="M274.333,305.833c0.833,2.834,0.833,6.667,0,8.5c-2.167,2.334-5.497,4.329-11.329,4.329c-8.338,0-12.838-3.329-12.838-3.329v-5.666c0,0,7.5-6.834,13.5-8.5S273.242,302.124,274.333,305.833z"></path><path style="fill:#6E6E6E;stroke:#000000;stroke-linecap:round;stroke-linejoin:round;" d="M273.5,303.666c0,0,0.916,2.917,0.833,3.667c-0.583-0.667-2.5-2-2.5-2s0.083,1.583-2.667,2.333s-3.916-1.5-3.916-1.5s-0.917,2.916-3.75,3.25c-2.834,0.334-3.667-1.083-3.667-1.083s-0.583,2.167-3.083,2.917s-3.834,0.333-3.834,0.333v-2.667c0,0,7.084-6.834,13.667-8.5S273.5,303.666,273.5,303.666z"></path></g></g><g><path style="fill:#6E6E6E;stroke:#000000;stroke-linecap:round;stroke-linejoin:round;" d="M249.984,312.169c-0.15,0.45-2.249,10.5-1.499,12c-2.1-1.35-4.05-0.75-4.8-0.899c-0.75-0.15,0.149-7.2,1.649-9.3C246.835,311.869,249.984,312.169,249.984,312.169z"></path><path style="fill:#6E6E6E;stroke:#000000;stroke-linecap:round;stroke-linejoin:round;" d="M250.105,311.327c0,0-3.309,7.286-4.469,7.617c-1.986-1.49-2.483-3.478-2.483-3.478l-2.318-2.483c0,0,1.821-5.299,7.286-5.464C251.265,308.679,250.105,311.327,250.105,311.327z"></path><path style="fill:#6E6E6E;stroke:#000000;stroke-linecap:round;stroke-linejoin:round;" d="M249.715,312.169c0.148,0.45,2.249,10.5,1.499,12c2.1-1.35,4.051-0.75,4.801-0.899c0.75-0.15-0.15-7.2-1.65-9.3C252.864,311.869,249.715,312.169,249.715,312.169z"></path><path style="fill:#6E6E6E;stroke:#000000;stroke-linecap:round;stroke-linejoin:round;" d="M249.893,311.327c0,0,3.31,7.286,4.47,7.617c1.986-1.49,2.484-3.478,2.484-3.478l2.318-2.483c0,0-1.822-5.299-7.287-5.464C248.734,308.679,249.893,311.327,249.893,311.327z"></path></g></g></g></svg>