<svg xmlns="http://www.w3.org/2000/svg" width="500" height="500" version="1.1"><g id="x100"><g><g><g><path style="fill:#6E6E6E;stroke:#000000;stroke-linecap:round;stroke-linejoin:round;" d="M222.167,292c0,0-3.5,4.167-5,7s-7,22-7.667,22.333s-3.667,4.999-4.5,6.833s-7,17.5-7,17.5c2.667,1.833,14.333,6.833,15.167,7c3.167-4,12-25.5,12.333-26.833c1.167-4.333,6.333-30.333,6.333-30.333L222.167,292z"></path><path style="fill:#505050;" d="M227.167,300c0,0-3.666,1.499-4.333,3.166s-0.167,7,1,8.667C225.333,307.5,227.167,300,227.167,300z"></path><path style="fill:none;stroke:#000000;stroke-linecap:round;stroke-linejoin:round;" d="M222.333,301.333c0,0,0.5,3.334,3.667,7.167"></path></g><g><path style="fill:#6E6E6E;stroke:#000000;stroke-linecap:round;stroke-linejoin:round;" d="M277.869,292c0,0,3.5,4.167,5,7s6.999,22,7.666,22.333c0.666,0.333,3.666,4.999,4.5,6.833c0.833,1.834,7,17.5,7,17.5c-2.667,1.833-14.333,6.833-15.167,7c-3.167-4-11.999-25.5-12.333-26.833c-1.166-4.333-6.334-30.333-6.334-30.333L277.869,292z"></path><path style="fill:#505050;" d="M272.869,300c0,0,3.666,1.499,4.332,3.166c0.668,1.667,0.167,7-1,8.667C274.701,307.5,272.869,300,272.869,300z"></path><path style="fill:none;stroke:#000000;stroke-linecap:round;stroke-linejoin:round;" d="M277.701,301.333c0,0-0.5,3.334-3.666,7.167"></path></g></g><g><g><path style="fill:#6E6E6E;stroke:#000000;stroke-linecap:round;stroke-linejoin:round;" d="M284.667,357.5c-1.166-9.833-8.5-28.833-8.5-28.833s1.834-1.667,1.834-2.5s-1.834-14.834-3.334-19.834S271.001,296,271.001,296l-16.502,3.666l-5.333,4.5l-2.132-4.301L228.999,296c0,0-2.167,5.333-3.667,10.333s-3.333,19.001-3.333,19.834s1.833,2.5,1.833,2.5s-7.333,19-8.5,28.833s-3.333,19.667-3.333,19.667c4.667,2.5,30,4.5,35.167,4.5c1.333-8.667,2.833-15.5,2.833-15.5s1.502,6.833,2.836,15.5c5.166,0,30.5-2,35.166-4.5C288.001,377.167,285.833,367.333,284.667,357.5z"></path><g><path style="fill:none;stroke:#000000;stroke-linecap:round;stroke-linejoin:round;" d="M231.5,322.75c0,0,2,3.625,4.125,5"></path><path style="fill:none;stroke:#000000;stroke-linecap:round;stroke-linejoin:round;" d="M268.5,322.75c0,0-2,3.625-4.125,5"></path></g><g><g><path style="fill:#505050;" d="M263.501,328.166c0,0,1.666,13,2.832,13.667c1.168,0.667,0.668-14,0.668-14L263.501,328.166z"></path><path style="fill:none;stroke:#000000;stroke-linecap:round;stroke-linejoin:round;" d="M276.167,328.667c0,0-1.832-1.167-22.332-0.667"></path></g><g><path style="fill:#505050;" d="M236.499,328.166c0,0-1.666,13-2.833,13.667s-0.667-14-0.667-14L236.499,328.166z"></path><g><path style="fill:none;stroke:#000000;stroke-linecap:round;stroke-linejoin:round;" d="M233.015,328.125c0,0-0.75,9,0.625,13.375"></path><path style="fill:none;stroke:#000000;stroke-linecap:round;stroke-linejoin:round;" d="M266.985,328.125c0,0,0.75,9-0.625,13.375"></path></g><path style="fill:none;stroke:#000000;stroke-linecap:round;stroke-linejoin:round;" d="M223.833,328.667c0,0,1.833-1.167,22.333-0.667"></path></g></g></g><path style="fill:none;stroke:#000000;stroke-linecap:round;stroke-linejoin:round;" d="M250,366.167v-38.333c0,0-3.167-2.835-3.167-4.668s-0.167-17.833-0.167-17.833l2.5-1.167"></path><g><circle style="fill:#8F631C;stroke:#000000;stroke-linecap:round;stroke-linejoin:round;" cx="250.876" cy="310.457" r="3.375"></circle><circle style="fill:#8F631C;stroke:#000000;stroke-linecap:round;stroke-linejoin:round;" cx="250.876" cy="324.624" r="3.375"></circle><circle style="fill:#8F631C;stroke:#000000;stroke-linecap:round;stroke-linejoin:round;" cx="253.876" cy="340.624" r="3.375"></circle><circle style="fill:#8F631C;stroke:#000000;stroke-linecap:round;stroke-linejoin:round;" cx="253.876" cy="355.791" r="3.375"></circle></g></g></g></g></svg>