<svg xmlns="http://www.w3.org/2000/svg" width="500" height="500" version="1.1"><g id="x101"><g><g><g><path style="fill:#6E6E6E;stroke:#000000;stroke-linecap:round;stroke-linejoin:round;" d="M225.75,311.125c0,0-11.499-3.75-11.833-4.25c-0.333-0.5-0.667-1.167-0.833-2.333c0.5-0.834,2.083-2.417,2.083-2.417s-1.458-7.5-0.792-8.5c0.667-1,6.375-5.125,7.709-5.458c1.083-1.25,2.841-2.604,3.916-3.167c3.5-1.833,8.167-2.5,8.167-2.5C231.834,285.667,227.584,305.459,225.75,311.125z"></path><path style="fill:#505050;" d="M216,302.167c0,0-1.666-5.666-1.166-8c3.166,2.833,13.167,5,14,5c-1,4.166-2.334,7.333-2.334,7.333S218.667,305.834,216,302.167z"></path></g><g><path style="fill:#6E6E6E;stroke:#000000;stroke-linecap:round;stroke-linejoin:round;" d="M274.25,311.125c0,0,11.5-3.75,11.833-4.25s0.667-1.167,0.833-2.333c-0.5-0.834-2.083-2.417-2.083-2.417s1.458-7.5,0.792-8.5s-6.375-5.125-7.709-5.458c-1.083-1.25-2.841-2.604-3.916-3.167c-3.5-1.833-8.167-2.5-8.167-2.5C268.166,285.667,272.416,305.459,274.25,311.125z"></path><path style="fill:#505050;" d="M284,302.167c0,0,1.666-5.666,1.166-8c-3.166,2.833-13.166,5-14,5c1,4.166,2.334,7.333,2.334,7.333S281.334,305.834,284,302.167z"></path></g></g><g><g><g><path style="fill:#FFFFFF;stroke:#000000;stroke-width:1.0692;stroke-linecap:round;stroke-linejoin:round;" d="M229.729,294.74c0,0-2.305-2.151-1.229-4.456c2.151,0.154,5.071,3.072,5.071,3.072s-0.307-2.61,0.461-3.379c0.767-0.77,4.302,2.151,4.917,3.842c0,0-0.769-3.074,0.46-3.688c1.229-0.615,4.302,2.611,4.764,3.688c0-1.845,1.367-3.535,2.151-3.535c0.461,0,3.688,2.612,3.227,4.609L229.729,294.74z"></path><path style="fill:#FFFFFF;stroke:#000000;stroke-width:1.0692;stroke-linecap:round;stroke-linejoin:round;" d="M270.271,294.74c0,0,2.305-2.151,1.23-4.456c-2.152,0.154-5.072,3.072-5.072,3.072s0.309-2.61-0.461-3.379c-0.766-0.77-4.301,2.151-4.916,3.842c0,0,0.768-3.074-0.461-3.688c-1.229-0.615-4.301,2.611-4.764,3.688c0-1.845-1.365-3.535-2.15-3.535c-0.461,0-3.687,2.612-3.226,4.609L270.271,294.74z"></path></g></g><path style="fill:#6E6E6E;stroke:#000000;stroke-linecap:round;stroke-linejoin:round;" d="M275.75,327.25c0,0-0.75-16.5-1-21S270.5,294,270.5,294l-20.5,0.894L229.5,294c0,0-4,7.75-4.25,12.25s-1,21-1,21s-5.75,12.5-6.25,19.5c1.75,4,15.5,5.75,32,5.75s30.25-1.75,32-5.75C281.5,339.75,275.75,327.25,275.75,327.25z"></path><g><g><g><line style="fill:none;stroke:#000000;stroke-linecap:round;stroke-linejoin:round;" x1="242.875" y1="313.75" x2="257.125" y2="323.25"></line><line style="fill:none;stroke:#000000;stroke-linecap:round;stroke-linejoin:round;" x1="257.125" y1="313.75" x2="242.875" y2="323.25"></line></g><g><line style="fill:none;stroke:#000000;stroke-linecap:round;stroke-linejoin:round;" x1="242.875" y1="323.5" x2="257.125" y2="333"></line><line style="fill:none;stroke:#000000;stroke-linecap:round;stroke-linejoin:round;" x1="257.125" y1="323.5" x2="242.875" y2="333"></line></g><g><line style="fill:none;stroke:#000000;stroke-linecap:round;stroke-linejoin:round;" x1="242.875" y1="333.25" x2="257.125" y2="342.75"></line><line style="fill:none;stroke:#000000;stroke-linecap:round;stroke-linejoin:round;" x1="257.125" y1="333.25" x2="242.875" y2="342.75"></line></g><g><line style="fill:none;stroke:#000000;stroke-linecap:round;stroke-linejoin:round;" x1="242.875" y1="343" x2="257.125" y2="352.5"></line><line style="fill:none;stroke:#000000;stroke-linecap:round;stroke-linejoin:round;" x1="257.125" y1="343" x2="242.875" y2="352.5"></line></g></g><g><path style="fill:#505050;stroke:#000000;stroke-linecap:round;stroke-linejoin:round;" d="M239.515,314c0,0-1,27.25-0.25,38.25c2,0.5,3.5,0.25,3.5,0.25l0.5-38.75C241.765,314.25,239.515,314,239.515,314z"></path><path style="fill:#505050;stroke:#000000;stroke-linecap:round;stroke-linejoin:round;" d="M260.485,314c0,0,1,27.25,0.25,38.25c-2,0.5-3.5,0.25-3.5,0.25l-0.5-38.75C258.235,314.25,260.485,314,260.485,314z"></path></g></g><path style="fill:#FFFFFF;stroke:#000000;stroke-linecap:round;stroke-linejoin:round;" d="M267.75,294.25c-6.5,0-17.75,0.644-17.75,0.644s-11.25-0.644-17.75-0.644c-1.75,3.25-3,16.5-2,20c1,0,19.75,0.5,19.75,0.5s18.75-0.5,19.75-0.5C270.75,310.75,269.5,297.5,267.75,294.25z"></path><g><path style="fill:#505050;stroke:#000000;stroke-linecap:round;stroke-linejoin:round;" d="M249.505,299.777c0,0-0.919,8.903-1.909,10.246c-0.988-0.282-4.945-2.402-5.087-2.896c-0.141-0.495,0.99-4.028,2.544-6.643C246.677,299.354,249.505,299.777,249.505,299.777z"></path><path style="fill:#505050;stroke:#000000;stroke-linecap:round;stroke-linejoin:round;" d="M247.964,294.69c0,0,0.494-1.062,1.625-1.062s3.18,1.062,3.18,1.062s-0.564,4.945-1.766,5.794c-1.203,0.848-2.475-0.494-2.475-0.494S246.904,296.88,247.964,294.69z"></path><path style="fill:#505050;stroke:#000000;stroke-linecap:round;stroke-linejoin:round;" d="M249.152,298.364c-0.142,1.413-2.191,5.441-3.746,5.512c-1.555,0.07-3.674-4.028-3.674-5.512c0.706-2.12,4.875-4.452,4.875-4.452s1.061-0.423,1.767,0.636"></path><path style="fill:#505050;stroke:#000000;stroke-linecap:round;stroke-linejoin:round;" d="M248.458,295.396c0,0,0.142,1.837,1.202,2.544c1.06,0.706,1.484,0.141,1.484,0.141"></path><path style="fill:#505050;stroke:#000000;stroke-linecap:round;stroke-linejoin:round;" d="M250.791,296.032c0,0-0.07,2.119,0.778,2.897"></path><path style="fill:#505050;stroke:#000000;stroke-linecap:round;stroke-linejoin:round;" d="M250.494,299.777c0,0,0.918,8.903,1.909,10.246c0.99-0.282,4.947-2.402,5.09-2.896c0.141-0.495-0.99-4.028-2.545-6.643C253.32,299.354,250.494,299.777,250.494,299.777z"></path><path style="fill:#505050;stroke:#000000;stroke-linecap:round;stroke-linejoin:round;" d="M250.848,298.364c0.141,1.413,2.191,5.441,3.746,5.512s3.674-4.028,3.674-5.512c-0.707-2.12-4.875-4.452-4.875-4.452s-1.061-0.423-1.768,0.636"></path></g></g></g></g></svg>