<svg xmlns="http://www.w3.org/2000/svg" width="500" height="500" version="1.1"><g id="x102"><g><g><g><path style="fill:#505050;stroke:#000000;stroke-linecap:round;stroke-linejoin:round;" d="M222.75,289.75c-1.5,1.25-9.5,15.75-9.75,17.75c0,1.75,0,5,0,5s-2.25,3.75-2.75,7.5c-1.5,2.25-15.75,25.25-17.5,31.75c2.25,3.5,17,10,20,10c4.25-8.25,13-37,13-37l4.5-30.75c0,0,0.5-6.5,2-10.75C227.5,285.5,224.25,288.5,222.75,289.75z"></path><path style="fill:#323232;" d="M229.75,299.75c0,0-6.25,2.25-6.75,5s0,18.75,3,23C230.25,317,229.75,299.75,229.75,299.75z"></path><path style="fill:none;stroke:#000000;stroke-linecap:round;stroke-linejoin:round;" d="M223,303.25c0,0,0.75,8.5,3.5,12.25"></path></g><g><path style="fill:#505050;stroke:#000000;stroke-linecap:round;stroke-linejoin:round;" d="M277.25,289.75c1.5,1.25,9.5,15.75,9.75,17.75c0,1.75,0,5,0,5s2.25,3.75,2.75,7.5c1.5,2.25,15.75,25.25,17.5,31.75c-2.25,3.5-17,10-20,10c-4.25-8.25-13-37-13-37l-4.5-30.75c0,0-0.5-6.5-2-10.75C272.5,285.5,275.75,288.5,277.25,289.75z"></path><path style="fill:#323232;" d="M270.25,299.75c0,0,6.25,2.25,6.75,5s0,18.75-3,23C269.75,317,270.25,299.75,270.25,299.75z"></path><path style="fill:none;stroke:#000000;stroke-linecap:round;stroke-linejoin:round;" d="M277,303.25c0,0-0.75,8.5-3.5,12.25"></path></g></g><g><g><path style="fill:#505050;stroke:#000000;stroke-linecap:round;stroke-linejoin:round;" d="M275.666,328.667c0,0-1-15-1.334-20c-0.332-5-3.398-11.667-3.398-11.667h-41.867c0,0-3.066,6.667-3.399,11.667s-1.333,20-1.333,20s-8.333,17.333-7.667,26c11,6,33.333,6.667,33.333,6.667s22.331-0.667,33.331-6.667C284,346,275.666,328.667,275.666,328.667z"></path><g><path style="fill:none;stroke:#000000;stroke-linecap:round;stroke-linejoin:round;" d="M235.379,296.75c0,0-2,7.75-2.75,12.75s-1,21-1,21s-5.5,22.25-5.25,27"></path><path style="fill:none;stroke:#000000;stroke-linecap:round;stroke-linejoin:round;" d="M264.621,296.75c0,0,2,7.75,2.75,12.75s1,21,1,21s5.5,22.25,5.25,27"></path></g><g><g><path style="fill:#6E6E6E;stroke:#000000;stroke-width:1.0692;stroke-linecap:round;stroke-linejoin:round;" d="M229.729,294.74c0,0-2.305-2.151-1.229-4.456c2.151,0.154,5.071,3.072,5.071,3.072s-0.307-2.61,0.461-3.379c0.767-0.77,4.302,2.151,4.917,3.842c0,0-0.769-3.074,0.46-3.688c1.229-0.615,4.302,2.611,4.764,3.688c0-1.845,1.367-3.535,2.151-3.535c0.461,0,3.688,2.612,3.227,4.609L229.729,294.74z"></path><path style="fill:#6E6E6E;stroke:#000000;stroke-width:1.0692;stroke-linecap:round;stroke-linejoin:round;" d="M270.271,294.74c0,0,2.305-2.151,1.23-4.456c-2.152,0.154-5.072,3.072-5.072,3.072s0.309-2.61-0.461-3.379c-0.766-0.77-4.301,2.151-4.916,3.842c0,0,0.768-3.074-0.461-3.688c-1.229-0.615-4.301,2.611-4.764,3.688c0-1.845-1.365-3.535-2.15-3.535c-0.461,0-3.687,2.612-3.226,4.609L270.271,294.74z"></path></g><polygon style="fill:#6E6E6E;stroke:#000000;stroke-linecap:round;stroke-linejoin:round;" points="270.834,294.25 250,294 229.167,294.25 228.5,296.833 271.5,296.833 "></polygon></g></g><g><g><path style="fill:#6E6E6E;stroke:#000000;stroke-width:0.7944;stroke-linecap:round;stroke-linejoin:round;" d="M249.606,304.699c0,0-0.729,7.073-1.516,8.14c-0.786-0.224-3.929-1.908-4.042-2.301c-0.112-0.394,0.787-3.2,2.021-5.277C247.361,304.363,249.606,304.699,249.606,304.699z"></path><path style="fill:#6E6E6E;stroke:#000000;stroke-width:0.7944;stroke-linecap:round;stroke-linejoin:round;" d="M248.383,300.658c0,0,0.393-0.843,1.291-0.843c0.899,0,2.527,0.843,2.527,0.843s-0.448,3.929-1.404,4.603c-0.954,0.674-1.965-0.393-1.965-0.393S247.542,302.397,248.383,300.658z"></path><path style="fill:#6E6E6E;stroke:#000000;stroke-width:0.7944;stroke-linecap:round;stroke-linejoin:round;" d="M249.326,303.577c-0.112,1.122-1.74,4.322-2.975,4.379c-1.234,0.056-2.919-3.2-2.919-4.379c0.562-1.685,3.874-3.537,3.874-3.537s0.842-0.336,1.403,0.505"></path><path style="fill:#505050;stroke:#000000;stroke-width:0.7944;stroke-linecap:round;stroke-linejoin:round;" d="M248.776,301.219c0,0,0.112,1.46,0.955,2.021c0.842,0.561,1.178,0.111,1.178,0.111"></path><path style="fill:#505050;stroke:#000000;stroke-width:0.7944;stroke-linecap:round;stroke-linejoin:round;" d="M250.629,301.725c0,0-0.056,1.684,0.618,2.302"></path><path style="fill:#6E6E6E;stroke:#000000;stroke-width:0.7944;stroke-linecap:round;stroke-linejoin:round;" d="M250.394,304.699c0,0,0.729,7.073,1.516,8.14c0.785-0.224,3.931-1.908,4.042-2.301c0.112-0.394-0.786-3.2-2.021-5.277C252.639,304.363,250.394,304.699,250.394,304.699z"></path><path style="fill:#6E6E6E;stroke:#000000;stroke-width:0.7944;stroke-linecap:round;stroke-linejoin:round;" d="M250.674,303.577c0.111,1.122,1.74,4.322,2.976,4.379c1.234,0.056,2.918-3.2,2.918-4.379c-0.562-1.685-3.874-3.537-3.874-3.537s-0.842-0.336-1.403,0.505"></path></g><g><path style="fill:#6E6E6E;stroke:#000000;stroke-width:0.7944;stroke-linecap:round;stroke-linejoin:round;" d="M249.606,323.199c0,0-0.729,7.073-1.516,8.14c-0.786-0.224-3.929-1.908-4.042-2.301c-0.112-0.394,0.787-3.2,2.021-5.277C247.361,322.863,249.606,323.199,249.606,323.199z"></path><path style="fill:#6E6E6E;stroke:#000000;stroke-width:0.7944;stroke-linecap:round;stroke-linejoin:round;" d="M248.383,319.158c0,0,0.393-0.843,1.291-0.843c0.899,0,2.527,0.843,2.527,0.843s-0.448,3.929-1.404,4.603c-0.954,0.674-1.965-0.393-1.965-0.393S247.542,320.897,248.383,319.158z"></path><path style="fill:#6E6E6E;stroke:#000000;stroke-width:0.7944;stroke-linecap:round;stroke-linejoin:round;" d="M249.326,322.077c-0.112,1.122-1.74,4.322-2.975,4.379c-1.234,0.056-2.919-3.2-2.919-4.379c0.562-1.685,3.874-3.537,3.874-3.537s0.842-0.336,1.403,0.505"></path><path style="fill:#505050;stroke:#000000;stroke-width:0.7944;stroke-linecap:round;stroke-linejoin:round;" d="M248.776,319.719c0,0,0.112,1.46,0.955,2.021c0.842,0.561,1.178,0.111,1.178,0.111"></path><path style="fill:#505050;stroke:#000000;stroke-width:0.7944;stroke-linecap:round;stroke-linejoin:round;" d="M250.629,320.225c0,0-0.056,1.684,0.618,2.302"></path><path style="fill:#6E6E6E;stroke:#000000;stroke-width:0.7944;stroke-linecap:round;stroke-linejoin:round;" d="M250.394,323.199c0,0,0.729,7.073,1.516,8.14c0.785-0.224,3.931-1.908,4.042-2.301c0.112-0.394-0.786-3.2-2.021-5.277C252.639,322.863,250.394,323.199,250.394,323.199z"></path><path style="fill:#6E6E6E;stroke:#000000;stroke-width:0.7944;stroke-linecap:round;stroke-linejoin:round;" d="M250.674,322.077c0.111,1.122,1.74,4.322,2.976,4.379c1.234,0.056,2.918-3.2,2.918-4.379c-0.562-1.685-3.874-3.537-3.874-3.537s-0.842-0.336-1.403,0.505"></path></g><g><path style="fill:#6E6E6E;stroke:#000000;stroke-width:0.7944;stroke-linecap:round;stroke-linejoin:round;" d="M249.606,341.699c0,0-0.729,7.073-1.516,8.14c-0.786-0.224-3.929-1.908-4.042-2.301c-0.112-0.394,0.787-3.2,2.021-5.277C247.361,341.363,249.606,341.699,249.606,341.699z"></path><path style="fill:#6E6E6E;stroke:#000000;stroke-width:0.7944;stroke-linecap:round;stroke-linejoin:round;" d="M248.383,337.658c0,0,0.393-0.843,1.291-0.843c0.899,0,2.527,0.843,2.527,0.843s-0.448,3.929-1.404,4.603c-0.954,0.674-1.965-0.393-1.965-0.393S247.542,339.397,248.383,337.658z"></path><path style="fill:#6E6E6E;stroke:#000000;stroke-width:0.7944;stroke-linecap:round;stroke-linejoin:round;" d="M249.326,340.577c-0.112,1.122-1.74,4.322-2.975,4.379c-1.234,0.056-2.919-3.2-2.919-4.379c0.562-1.685,3.874-3.537,3.874-3.537s0.842-0.336,1.403,0.505"></path><path style="fill:#505050;stroke:#000000;stroke-width:0.7944;stroke-linecap:round;stroke-linejoin:round;" d="M248.776,338.219c0,0,0.112,1.46,0.955,2.021c0.842,0.561,1.178,0.111,1.178,0.111"></path><path style="fill:#505050;stroke:#000000;stroke-width:0.7944;stroke-linecap:round;stroke-linejoin:round;" d="M250.629,338.725c0,0-0.056,1.684,0.618,2.302"></path><path style="fill:#6E6E6E;stroke:#000000;stroke-width:0.7944;stroke-linecap:round;stroke-linejoin:round;" d="M250.394,341.699c0,0,0.729,7.073,1.516,8.14c0.785-0.224,3.931-1.908,4.042-2.301c0.112-0.394-0.786-3.2-2.021-5.277C252.639,341.363,250.394,341.699,250.394,341.699z"></path><path style="fill:#6E6E6E;stroke:#000000;stroke-width:0.7944;stroke-linecap:round;stroke-linejoin:round;" d="M250.674,340.577c0.111,1.122,1.74,4.322,2.976,4.379c1.234,0.056,2.918-3.2,2.918-4.379c-0.562-1.685-3.874-3.537-3.874-3.537s-0.842-0.336-1.403,0.505"></path></g></g></g></g></g></svg>