<svg xmlns="http://www.w3.org/2000/svg" width="500" height="500" version="1.1"><g id="x103"><g><g><g><g><path style="fill:#6E6E6E;stroke:#000000;stroke-linecap:round;stroke-linejoin:round;" d="M213.125,310.625c0,0-16.25,22.875-20.625,38.25c5,5.25,14.75,9.375,20.625,10.5c5.125-13.875,16.625-47,16.625-47L213.125,310.625z"></path><path style="fill:#BABFC7;stroke:#000000;stroke-linecap:round;stroke-linejoin:round;" d="M202.75,354.375c-6.625-2.625-10-8-10-8s-2.25,3.125-1.875,4.375s9.125,10.375,22.125,11c1.125-2.25,1-4.625,1-4.625S209.375,357,202.75,354.375z"></path></g><path style="fill:#BABFC7;stroke:#000000;stroke-linecap:round;stroke-linejoin:round;" d="M214.375,306.875c0,0-1.625,3-1.5,4.375c3.875,1.75,12.875,5,12.875,5l2.125-6.375L214.375,306.875z"></path><g><path style="fill:#6E6E6E;stroke:#000000;stroke-linecap:round;stroke-linejoin:round;" d="M226.25,311.125c0,0-11.5-3.75-11.833-4.25s-0.667-1.167-0.833-2.333c0.5-0.834,2.083-2.417,2.083-2.417s-1.458-7.5-0.792-8.5s6.375-5.125,7.708-5.458c1.083-1.25,2.841-2.604,3.917-3.167c3.5-1.833,8.167-2.5,8.167-2.5C232.333,285.667,228.083,305.459,226.25,311.125z"></path><path style="fill:#505050;" d="M216.5,302.167c0,0-1.667-5.666-1.167-8c3.167,2.833,13.167,5,14,5c-1,4.166-2.333,7.333-2.333,7.333S219.167,305.834,216.5,302.167z"></path></g></g><g><g><path style="fill:#6E6E6E;stroke:#000000;stroke-linecap:round;stroke-linejoin:round;" d="M286.875,310.625c0,0,16.25,22.875,20.625,38.25c-5,5.25-14.75,9.375-20.625,10.5c-5.125-13.875-16.625-47-16.625-47L286.875,310.625z"></path><path style="fill:#BABFC7;stroke:#000000;stroke-linecap:round;stroke-linejoin:round;" d="M297.25,354.375c6.625-2.625,10-8,10-8s2.25,3.125,1.875,4.375S300,361.125,287,361.75c-1.125-2.25-1-4.625-1-4.625S290.625,357,297.25,354.375z"></path></g><path style="fill:#BABFC7;stroke:#000000;stroke-linecap:round;stroke-linejoin:round;" d="M285.625,306.875c0,0,1.625,3,1.5,4.375c-3.875,1.75-12.875,5-12.875,5l-2.125-6.375L285.625,306.875z"></path><g><path style="fill:#6E6E6E;stroke:#000000;stroke-linecap:round;stroke-linejoin:round;" d="M273.75,311.125c0,0,11.5-3.75,11.834-4.25c0.332-0.5,0.666-1.167,0.832-2.333c-0.5-0.834-2.082-2.417-2.082-2.417s1.457-7.5,0.791-8.5s-6.375-5.125-7.709-5.458c-1.082-1.25-2.84-2.604-3.916-3.167c-3.5-1.833-8.166-2.5-8.166-2.5C267.666,285.667,271.916,305.459,273.75,311.125z"></path><path style="fill:#505050;" d="M283.5,302.167c0,0,1.666-5.666,1.166-8c-3.166,2.833-13.166,5-14,5c1,4.166,2.334,7.333,2.334,7.333S280.834,305.834,283.5,302.167z"></path></g></g></g><g><path style="fill:#6E6E6E;stroke:#000000;stroke-linecap:round;stroke-linejoin:round;" d="M275.666,328.667c0,0-1-15-1.334-20c-0.332-5-3.398-11.667-3.398-11.667h-41.867c0,0-3.066,6.667-3.399,11.667s-1.333,20-1.333,20s-8.333,17.333-7.667,26c11,6,33.333,6.667,33.333,6.667s22.331-0.667,33.331-6.667C284,346,275.666,328.667,275.666,328.667z"></path><g><g><path style="fill:#BABFC7;stroke:#000000;stroke-width:1.0692;stroke-linecap:round;stroke-linejoin:round;" d="M229.729,294.74c0,0-2.305-2.151-1.229-4.456c2.151,0.154,5.071,3.072,5.071,3.072s-0.307-2.61,0.461-3.379c0.767-0.77,4.302,2.151,4.917,3.842c0,0-0.769-3.074,0.46-3.688c1.229-0.615,4.302,2.611,4.764,3.688c0-1.845,1.367-3.535,2.151-3.535c0.461,0,3.688,2.612,3.227,4.609L229.729,294.74z"></path><path style="fill:#BABFC7;stroke:#000000;stroke-width:1.0692;stroke-linecap:round;stroke-linejoin:round;" d="M270.271,294.74c0,0,2.305-2.151,1.23-4.456c-2.152,0.154-5.072,3.072-5.072,3.072s0.309-2.61-0.461-3.379c-0.766-0.77-4.301,2.151-4.916,3.842c0,0,0.768-3.074-0.461-3.688c-1.229-0.615-4.301,2.611-4.764,3.688c0-1.845-1.365-3.535-2.15-3.535c-0.461,0-3.687,2.612-3.226,4.609L270.271,294.74z"></path></g><polygon style="fill:#BABFC7;stroke:#000000;stroke-linecap:round;stroke-linejoin:round;" points="270.834,294.25 250,294 229.167,294.25 228.5,296.833 271.5,296.833 "></polygon></g></g><g><path style="fill:#6E6E6E;stroke:#000000;stroke-linecap:round;stroke-linejoin:round;" d="M249.505,298.778c0,0-0.918,8.903-1.908,10.246c-0.989-0.282-4.945-2.402-5.088-2.896c-0.141-0.495,0.99-4.028,2.545-6.643C246.679,298.354,249.505,298.778,249.505,298.778z"></path><path style="fill:#6E6E6E;stroke:#000000;stroke-linecap:round;stroke-linejoin:round;" d="M247.965,293.691c0,0,0.495-1.062,1.625-1.062c1.132,0,3.181,1.062,3.181,1.062s-0.564,4.945-1.767,5.794c-1.201,0.848-2.474-0.494-2.474-0.494S246.905,295.881,247.965,293.691z"></path><path style="fill:#6E6E6E;stroke:#000000;stroke-linecap:round;stroke-linejoin:round;" d="M249.151,297.365c-0.141,1.413-2.19,5.441-3.745,5.512c-1.554,0.07-3.675-4.028-3.675-5.512c0.707-2.12,4.876-4.452,4.876-4.452s1.06-0.423,1.767,0.636"></path><path style="fill:#505050;stroke:#000000;stroke-linecap:round;stroke-linejoin:round;" d="M248.46,294.397c0,0,0.141,1.837,1.201,2.544c1.061,0.706,1.483,0.141,1.483,0.141"></path><path style="fill:#505050;stroke:#000000;stroke-linecap:round;stroke-linejoin:round;" d="M250.792,295.033c0,0-0.07,2.119,0.777,2.897"></path><path style="fill:#6E6E6E;stroke:#000000;stroke-linecap:round;stroke-linejoin:round;" d="M250.495,298.778c0,0,0.919,8.903,1.908,10.246c0.988-0.282,4.947-2.402,5.088-2.896c0.142-0.495-0.989-4.028-2.544-6.643C253.321,298.354,250.495,298.778,250.495,298.778z"></path><path style="fill:#6E6E6E;stroke:#000000;stroke-linecap:round;stroke-linejoin:round;" d="M250.849,297.365c0.141,1.413,2.19,5.441,3.746,5.512c1.554,0.07,3.674-4.028,3.674-5.512c-0.707-2.12-4.877-4.452-4.877-4.452s-1.06-0.423-1.767,0.636"></path></g></g></g></svg>