<svg xmlns="http://www.w3.org/2000/svg" width="500" height="500" version="1.1"><g id="x106"><g><g><g><path style="fill:#6E6E6E;stroke:#000000;stroke-linecap:round;stroke-linejoin:round;" d="M197.917,348c0,0-2.334,3.667-2.5,4.667c3.666,5.166,13.666,7,13.666,7s2.501-2.667,3.167-6.167C209.083,350.333,197.917,348,197.917,348z"></path><g><path style="fill:#6E6E6E;stroke:#000000;stroke-linecap:round;stroke-linejoin:round;" d="M218.75,297.167c0,0-4.167,8.167-6,16.333c-7.167,8.5-15.931,19.758-16.333,21.667c-0.334,2.834,0.833,5.166,1.166,6.666c0,0-1.333,3.667,0.167,7c3.334,1.833,13,6.501,14.5,5.834s8.834-12.333,11-17c2.167-4.667,6.167-39.834,6.167-39.834L218.75,297.167z"></path><path style="fill:#505050;" d="M226.75,303.5c0,0-4.334,0.333-4.667,2.5s2.334,8.667,5.334,11C229.084,310.666,226.75,303.5,226.75,303.5z"></path><path style="fill:none;stroke:#000000;stroke-linecap:round;stroke-linejoin:round;" d="M222.083,304.167c0,0,0.167,4.5,4.334,9"></path><path style="fill:none;stroke:#000000;stroke-linecap:round;stroke-linejoin:round;" d="M197.583,340.833c0,0,0.667,2.166,2.667,4.333"></path><path style="fill:none;stroke:#000000;stroke-linecap:round;stroke-linejoin:round;" d="M212.083,348.167c0,0,2.667,0.666,5.334-0.834"></path><path style="fill:none;stroke:#000000;stroke-linecap:round;stroke-linejoin:round;" d="M212.811,313.506c0,0-3.32,7.015-4.611,12.201"></path></g></g><g><path style="fill:#6E6E6E;stroke:#000000;stroke-linecap:round;stroke-linejoin:round;" d="M302.083,348c0,0,2.333,3.667,2.5,4.667c-3.667,5.166-13.667,7-13.667,7s-2.501-2.667-3.167-6.167C290.916,350.333,302.083,348,302.083,348z"></path><g><path style="fill:#6E6E6E;stroke:#000000;stroke-linecap:round;stroke-linejoin:round;" d="M281.249,297.167c0,0,4.167,8.167,6,16.333c7.167,8.5,15.932,19.758,16.334,21.667c0.333,2.834-0.834,5.166-1.167,6.666c0,0,1.333,3.667-0.167,7c-3.334,1.833-13,6.501-14.5,5.834s-8.834-12.333-11-17s-6.166-39.834-6.166-39.834L281.249,297.167z"></path><path style="fill:#505050;" d="M273.249,303.5c0,0,4.334,0.333,4.667,2.5s-2.333,8.667-5.333,11C270.915,310.666,273.249,303.5,273.249,303.5z"></path><path style="fill:none;stroke:#000000;stroke-linecap:round;stroke-linejoin:round;" d="M277.916,304.167c0,0-0.167,4.5-4.333,9"></path><path style="fill:none;stroke:#000000;stroke-linecap:round;stroke-linejoin:round;" d="M302.416,340.833c0,0-0.667,2.166-2.667,4.333"></path><path style="fill:none;stroke:#000000;stroke-linecap:round;stroke-linejoin:round;" d="M287.916,348.167c0,0-2.667,0.666-5.333-0.834"></path><path style="fill:none;stroke:#000000;stroke-linecap:round;stroke-linejoin:round;" d="M287.188,313.506c0,0,3.32,7.015,4.611,12.201"></path></g></g></g><g><g><g><path style="fill:#6E6E6E;stroke:#000000;stroke-linecap:round;stroke-linejoin:round;" d="M284.166,363L250,364.5l-34.167-1.5c0,0-0.667,4.333,0.167,6.333c3.833,3.334,17.166,4.667,34,4.667s30.166-1.333,34-4.667C284.833,367.333,284.166,363,284.166,363z"></path></g><g><path style="fill:none;stroke:#000000;stroke-linecap:round;stroke-linejoin:round;" d="M220.261,363.134c0,0-0.667,6.168,0.5,8.334"></path><path style="fill:none;stroke:#000000;stroke-linecap:round;stroke-linejoin:round;" d="M227.594,366.5c0,0-0.166,5.666,0.167,6.333"></path><path style="fill:none;stroke:#000000;stroke-linecap:round;stroke-linejoin:round;" d="M236.594,368c0,0,0.167,4.834,0.5,5.667"></path><path style="fill:none;stroke:#000000;stroke-linecap:round;stroke-linejoin:round;" d="M245.261,368.167c0,0,0.167,4.834,0.5,5.667"></path><path style="fill:none;stroke:#000000;stroke-linecap:round;stroke-linejoin:round;" d="M279.739,363.134c0,0,0.666,6.168-0.5,8.334"></path><path style="fill:none;stroke:#000000;stroke-linecap:round;stroke-linejoin:round;" d="M272.405,366.5c0,0,0.166,5.666-0.166,6.333"></path><path style="fill:none;stroke:#000000;stroke-linecap:round;stroke-linejoin:round;" d="M263.405,368c0,0-0.167,4.834-0.5,5.667"></path><path style="fill:none;stroke:#000000;stroke-linecap:round;stroke-linejoin:round;" d="M254.739,368.167c0,0-0.168,4.834-0.5,5.667"></path></g></g><path style="fill:#6E6E6E;stroke:#000000;stroke-linecap:round;stroke-linejoin:round;" d="M285.333,355.333c-0.5-1.5-2.5-4.166-5.5-8.5c-0.332-2.167-4.166-18.666-4.166-18.666s-0.834-17.667-1.668-21.667c-0.832-4-2.332-7.667-2.332-7.667l-14.666-2.333l-7,2.833l-7-2.833l-14.667,2.333c0,0-1.5,3.667-2.333,7.667s-1.667,21.667-1.667,21.667s-3.834,10.499-4.167,12.666c-3,4.334-5,13-5.5,14.5S216,363.5,216,363.5s9.667,4.333,34,4.333c24.333,0,33.999-4.333,33.999-4.333S285.833,356.833,285.333,355.333z"></path><g><g><path style="fill:#6E6E6E;stroke:#000000;stroke-linecap:round;stroke-linejoin:round;" d="M263.826,327.349l-13.828-0.185l-13.826,0.186c0,0-0.533,1.881-1.242,4.449h30.137C264.359,329.23,263.826,327.349,263.826,327.349z"></path><path style="fill:#505050;" d="M253.41,328.728c0,0,1.367,0.847-0.25,2.06c5.258,1.012,10.184,0.442,10.184,0.442l-0.683-2.578L253.41,328.728z"></path></g><g><path style="fill:#6E6E6E;stroke:#000000;stroke-linecap:round;stroke-linejoin:round;" d="M234.93,331.799c-1.354,4.916-3.347,12.356-3.457,13.952c-0.155,2.247,11.943,4.801,18.525,4.245c6.583,0.556,18.682-1.998,18.529-4.245c-0.111-1.596-2.104-9.036-3.46-13.952H234.93z"></path><path style="fill:#505050;" d="M234.301,345.711c0.096-1.679,7.632-1.952,15.674-2.035c8.668-0.086,18.201,0.609,15.924,2.125C257.049,351.324,234.205,347.394,234.301,345.711z"></path></g></g></g><g><g><g><g><g><path style="fill:#666666;stroke:#000000;stroke-linecap:round;stroke-linejoin:round;" d="M246.445,297.854c0,0-4.312,14.228-3.448,21.987c-1.51,1.724-2.803-0.646-2.803-0.646s1.077-16.383,4.958-21.341C245.367,296.128,246.445,297.854,246.445,297.854z"></path><path style="fill:#666666;stroke:#000000;stroke-linecap:round;stroke-linejoin:round;" d="M242.925,317.612c0,0-0.935-1.076-2.084-0.574c-1.15,0.071-1.366-0.721-1.438-1.438c-0.07-0.718,1.15-2.66,2.588-2.372C243.427,313.517,244.506,315.672,242.925,317.612z"></path></g><g><path style="fill:#666666;stroke:#000000;stroke-linecap:round;stroke-linejoin:round;" d="M253.555,297.854c0,0,4.311,14.228,3.449,21.987c1.509,1.724,2.801-0.646,2.801-0.646s-1.076-16.383-4.956-21.341C254.632,296.128,253.555,297.854,253.555,297.854z"></path><path style="fill:#666666;stroke:#000000;stroke-linecap:round;stroke-linejoin:round;" d="M257.076,317.612c0,0,0.935-1.076,2.083-0.574c1.15,0.071,1.366-0.721,1.438-1.438c0.07-0.718-1.15-2.66-2.587-2.372C256.572,313.517,255.494,315.672,257.076,317.612z"></path></g></g></g></g></g></g></g></svg>