<svg xmlns="http://www.w3.org/2000/svg" width="500" height="500" version="1.1"><g id="x107"><g><g><path style="fill:#6E6E6E;stroke:#000000;stroke-linecap:round;stroke-linejoin:round;" d="M293.233,373.833c-2-15.167-12-32.5-14.667-36.667c-0.833-2-3-10.5-3-10.5s0.5-1.5,0.667-2.333c0.166-0.833-1.334-2.167-1.334-2.167s-0.5-9.833-0.666-12.833c-0.168-3-0.667-6.499-1-7.333c-0.334-0.834-3.167-6.334-3.167-6.334s0.167-4.5-0.333-11.5c-1.334-0.667-3.334-1.666-3.334-1.666s0.5,10-2.333,16.333c-3.333,4.334-9.333,8.5-14.066,10c-4.733-1.5-10.733-5.666-14.067-10C233.1,292.5,233.6,282.5,233.6,282.5s-2,0.999-3.333,1.666c-0.5,7-0.334,11.5-0.334,11.5s-2.833,5.5-3.166,6.334c-0.334,0.834-0.833,4.333-1,7.333s-0.667,12.833-0.667,12.833s-1.5,1.334-1.333,2.167c0.166,0.833,0.666,2.333,0.666,2.333s-2.166,8.5-3,10.5c-2.666,4.167-12.666,21.5-14.666,36.667c2.666,1.833,4.666,2.333,4.666,2.333s-1,3.167-0.833,3c0.333,1.167,2.667,3.667,11.667,4.334c1.333-0.833,2.666-3.5,2.666-3.5s3.334,0.166,5,1.666c1.667,1.5,3,3.834,4,4.167s6.667,3.334,12,1.667c0.367-0.367,3.516-0.591,4.067-0.951c0.551,0.36,3.699,0.584,4.066,0.951c5.333,1.667,11-1.334,12-1.667s2.333-2.667,4-4.167s5-1.666,5-1.666s1.333,2.667,2.667,3.5c9-0.667,11.333-3.167,11.666-4.334c0.167,0.167-0.833-3-0.833-3S290.566,375.666,293.233,373.833z"></path><path style="fill:#6E6E6E;stroke:#000000;stroke-linecap:round;stroke-linejoin:round;" d="M277.733,383.333l-3.334-3.167c0,0,5.5-0.833,6.167,0.667S277.733,383.333,277.733,383.333z"></path><path style="fill:none;stroke:#000000;stroke-linecap:round;stroke-linejoin:round;" d="M280.566,380.833c0,0-1.5-12.167-8-27.5"></path><g><path style="fill:#6E6E6E;stroke:#000000;stroke-linecap:round;stroke-linejoin:round;" d="M222.267,383.333l3.333-3.167c0,0-5.5-0.833-6.167,0.667S222.267,383.333,222.267,383.333z"></path><path style="fill:none;stroke:#000000;stroke-linecap:round;stroke-linejoin:round;" d="M219.433,380.833c0,0,1.5-12.167,8-27.5"></path></g></g></g></g></svg>