<svg xmlns="http://www.w3.org/2000/svg" width="500" height="500" version="1.1"><g id="x108"><g><g><path style="opacity:0.6;fill:#6E6E6E;" d="M291.976,374.627c0.4-0.234-10.742-33.294-13.409-37.461c-0.833-2-3-10.5-3-10.5s0.5-1.5,0.667-2.333c0.166-0.833-1.334-2.167-1.334-2.167s-0.5-9.833-0.666-12.833c-0.168-3-0.667-6.499-1-7.333c-0.127-0.317-0.616-1.31-1.172-2.417h0.022c0,0-1.168-4.25-4.168-4.25c-0.654,0-1.212,0.205-1.691,0.515c-0.577-0.54-2.707-2.295-4.838-1.003c-2.039,1.235-1.906,3.574-1.906,3.574s-1.43-0.476-3.098,0.715c-1.668,1.193-1.191,3.338-1.191,3.338s-2.498-0.839-4.051,0.715c-1.667,1.667-0.614,1.667-2.281,0c-1.553-1.554-4.052-0.715-4.052-0.715s0.477-2.145-1.191-3.338c-1.667-1.19-3.097-0.715-3.097-0.715s0.132-2.339-1.907-3.574c-2.132-1.292-4.262,0.464-4.838,1.003c-0.48-0.31-1.039-0.515-1.692-0.515c-3,0-4.167,4.25-4.167,4.25h0.022c-0.556,1.107-1.045,2.1-1.172,2.417c-0.334,0.834-0.833,4.333-1,7.333s-0.667,12.833-0.667,12.833s-1.5,1.334-1.333,2.167c0.166,0.833,0.666,2.333,0.666,2.333s-2.166,8.5-3,10.5c-2.666,4.167-13.809,37.227-13.409,37.461c-0.653,1.873-1.709,5.324-1.356,7.206c1.5,1.667,4.5,2.5,6,2.5c-0.334,0.833,1,2.333,1,2.333S215,389,222,389.333c-0.333-0.667,0.5-3.167,0.5-3.167s4.833,0.167,6.833,2.167c0.334,1.667,1.834,3.667,2.334,3.667s5.167,2.666,8.5,2.166c1.333-0.666,2.833-1.5,2.833-1.5s2-0.333,3,0.667c0.333,1.333,0.499,2.667,4,2.667c3.5,0,3.666-1.334,3.999-2.667c1-1,3-0.667,3-0.667s1.5,0.834,2.834,1.5c3.332,0.5,8-2.166,8.5-2.166s2-2,2.333-3.667c2-2,6.833-2.167,6.833-2.167s0.834,2.5,0.5,3.167c7-0.333,8.334-2.667,8.334-2.667s1.333-1.5,1-2.333c1.5,0,4.5-0.833,6-2.5C293.686,379.951,292.63,376.5,291.976,374.627z"></path><g><path style="fill:none;stroke:#000000;stroke-linecap:round;stroke-linejoin:round;" d="M291.976,374.627c0.4-0.234-10.742-33.294-13.409-37.461c-0.833-2-3-10.5-3-10.5s0.5-1.5,0.667-2.333c0.166-0.833-1.334-2.167-1.334-2.167s-0.5-9.833-0.666-12.833c-0.168-3-0.667-6.499-1-7.333c-0.127-0.317-0.616-1.31-1.172-2.417h0.022c0,0-1.168-4.25-4.168-4.25c-0.654,0-1.212,0.205-1.691,0.515c-0.577-0.54-2.707-2.295-4.838-1.003c-2.039,1.235-1.906,3.574-1.906,3.574s-1.43-0.476-3.098,0.715c-1.668,1.193-1.191,3.338-1.191,3.338s-2.498-0.839-4.051,0.715c-1.667,1.667-0.614,1.667-2.281,0c-1.553-1.554-4.052-0.715-4.052-0.715s0.477-2.145-1.191-3.338c-1.667-1.19-3.097-0.715-3.097-0.715s0.132-2.339-1.907-3.574c-2.132-1.292-4.262,0.464-4.838,1.003c-0.48-0.31-1.039-0.515-1.692-0.515c-3,0-4.167,4.25-4.167,4.25h0.022c-0.556,1.107-1.045,2.1-1.172,2.417c-0.334,0.834-0.833,4.333-1,7.333s-0.667,12.833-0.667,12.833s-1.5,1.334-1.333,2.167c0.166,0.833,0.666,2.333,0.666,2.333s-2.166,8.5-3,10.5c-2.666,4.167-13.809,37.227-13.409,37.461c-0.653,1.873-1.709,5.324-1.356,7.206c1.5,1.667,4.5,2.5,6,2.5c-0.334,0.833,1,2.333,1,2.333S215,389,222,389.333c-0.333-0.667,0.5-3.167,0.5-3.167s4.833,0.167,6.833,2.167c0.334,1.667,1.834,3.667,2.334,3.667s5.167,2.666,8.5,2.166c1.333-0.666,2.833-1.5,2.833-1.5s2-0.333,3,0.667c0.333,1.333,0.499,2.667,4,2.667c3.5,0,3.666-1.334,3.999-2.667c1-1,3-0.667,3-0.667s1.5,0.834,2.834,1.5c3.332,0.5,8-2.166,8.5-2.166s2-2,2.333-3.667c2-2,6.833-2.167,6.833-2.167s0.834,2.5,0.5,3.167c7-0.333,8.334-2.667,8.334-2.667s1.333-1.5,1-2.333c1.5,0,4.5-0.833,6-2.5C293.686,379.951,292.63,376.5,291.976,374.627z"></path><path style="fill:none;stroke:#000000;stroke-linecap:round;stroke-linejoin:round;" d="M277.999,389.333c0,0,4.167-2,2.834-2.5c-1.334-0.5-3.334-0.667-3.334-0.667"></path><path style="fill:none;stroke:#000000;stroke-linecap:round;stroke-linejoin:round;" d="M253.833,393.833c0,0,0.166-3.666,0.333-4.833"></path><path style="fill:none;stroke:#000000;stroke-linecap:round;stroke-linejoin:round;" d="M222,389.333c0,0-4.167-2-2.833-2.5c1.333-0.5,3.333-0.667,3.333-0.667"></path><path style="fill:none;stroke:#000000;stroke-linecap:round;stroke-linejoin:round;" d="M246.167,393.833c0,0-0.167-3.666-0.334-4.833"></path></g></g><g><path style="fill:#6E6E6E;stroke:#000000;stroke-linecap:round;stroke-linejoin:round;" d="M237.313,281.31c0,0-2.745,4.893-3.07,14.181c1.19-0.781,1.815-1.156,3.255-1.219c0.545-4.373,1.556-11.329,2.675-13.247C238.98,279.356,237.313,281.31,237.313,281.31z"></path><path style="fill:#6E6E6E;stroke:#000000;stroke-linecap:round;stroke-linejoin:round;" d="M262.688,281.31c0,0,2.745,4.893,3.069,14.181c-1.189-0.781-1.814-1.156-3.254-1.219c-0.545-4.373-1.557-11.329-2.676-13.247C261.021,279.356,262.688,281.31,262.688,281.31z"></path></g></g></g></svg>