<svg xmlns="http://www.w3.org/2000/svg" width="500" height="500" version="1.1"><g id="x109"><path style="fill:#6E6E6E;stroke:#000000;stroke-linecap:round;stroke-linejoin:round;" d="M291.979,371.968c-0.697-2.031-16.313-44.909-16.313-46.134c0-1.5-1.166-16.167-1.666-19.334s-2.5-9.333-4-11.666c-4.5,2.167-20,5.666-20,5.666s-15.5-3.499-20-5.666c-1.5,2.333-3.5,8.499-4,11.666s-1.667,17.834-1.667,19.334c0,1.225-15.612,44.103-16.312,46.134c0.208,0.429,1.646,1.832,2.854,2.968c-0.174,0.732-0.338,1.462-0.479,2.185c2.19,4.849,11.315,3.183,11.315,3.183s4.224,2.526,10.769,3.03c7.848,0.606,12.228,1.214,19.348,0.758c7.117-0.453,13.775-2.754,15.696-3.031c5.837-0.837,12.044,0.304,12.044,0.304s7.849,0.605,10.039-4.243c-0.142-0.723-0.307-1.452-0.479-2.185C290.334,373.8,291.771,372.396,291.979,371.968z"></path><g><path style="fill:#505050;" d="M210.741,377.468c0,0,3.833-13.135,6.333-16.635s-3,18.5-3,18.5S212.575,379.135,210.741,377.468z"></path><path style="fill:#505050;" d="M289.258,377.468c0,0-3.833-13.135-6.333-16.635s3,18.5,3,18.5S287.425,379.135,289.258,377.468z"></path></g><path style="fill:#CC4045;" d="M287.226,373.938c-4.378,3.03-10.22,1.211-16.06,0.604c-5.841-0.604-9.855,2.426-20.807,4.851c-10.952,2.427-23.729-1.818-28.838-3.939c-7.301,1.515-7.666-1.214-7.666-1.214s0.365-1.211,0.365-3.029c-4.016-0.304-4.185-2.577-4.185-2.577l1.264-3.939c0,0,0.184,3.183,4.017,3.333c-0.366,1.213-0.184,2.121-0.184,2.121s-1.275,2.123,0.548,2.577c1.824,0.455,5.11-0.303,6.206-1.211c2.372,1.363,14.235,7.425,27.377,5.151c13.143-2.273,17.521-4.85,22.813-4.547c5.294,0.304,10.039,2.121,13.69-0.604c-0.366-1.214-0.913-2.427-0.913-2.427s1.826-2.423,4.015-2.575c0.73,0.757,1.095,1.97,1.095,1.97s-3.283,1.517-3.283,2.576C286.861,372.118,287.226,373.938,287.226,373.938z"></path><g><path style="fill:#666666;stroke:#000000;stroke-linecap:round;stroke-linejoin:round;" d="M218.927,357.169c0,0,0.183-3.789,1.646-5.069c2.56-0.365,8.226,1.049,9.321,2.146c-0.731,2.742-1.828,4.569-1.828,4.569L218.927,357.169z"></path><path style="fill:#666666;stroke:#000000;stroke-linecap:round;stroke-linejoin:round;" d="M281.073,357.534c0,0-0.181-3.788-1.645-5.067c-2.559-0.367-8.225,1.047-9.32,2.144c0.73,2.742,1.828,4.569,1.828,4.569L281.073,357.534z"></path></g></g></svg>