<svg xmlns="http://www.w3.org/2000/svg" width="500" height="500" version="1.1"><g id="x011"><g><g><path style="fill:#6E6E6E;stroke:#000000;stroke-linecap:round;stroke-linejoin:round;" d="M236.867,281.667c0,0-3.167,16.5-3,19.5c-2.167,0.834-3.134,0.166-3.134,0.166s0.634-12,3.967-19.5C235.534,281.5,236.867,281.667,236.867,281.667z"></path><path style="fill:#6E6E6E;stroke:#000000;stroke-linecap:round;stroke-linejoin:round;" d="M263.035,281.667c0,0,3.166,16.5,3,19.5c2.166,0.834,3.231,0.166,3.231,0.166s-0.731-12-4.065-19.5C264.368,281.5,263.035,281.667,263.035,281.667z"></path></g><path style="fill:#6E6E6E;stroke:#000000;stroke-linecap:round;stroke-linejoin:round;" d="M274.167,305.833c-1.091-3.709-4.667-6.332-10.667-4.666s-13.5,8.5-13.5,8.5s-7.5-6.834-13.5-8.5s-9.577,0.957-10.667,4.666c-0.833,2.834-0.833,6.667,0,8.5c2.167,2.334,5.497,4.329,11.328,4.329c8.339,0,12.839-3.329,12.839-3.329s4.5,3.329,12.838,3.329c5.832,0,9.162-1.995,11.329-4.329C275,312.5,275,308.667,274.167,305.833z"></path><g><g><circle style="fill:#FFFFFF;" cx="229.048" cy="304.57" r="1.501"></circle><circle style="fill:#FFFFFF;" cx="244.953" cy="311.167" r="1.501"></circle><circle style="fill:#FFFFFF;" cx="239.287" cy="305.167" r="1.501"></circle><circle style="fill:#FFFFFF;" cx="233.753" cy="309.332" r="1.501"></circle><circle style="fill:#FFFFFF;" cx="229.42" cy="314.831" r="1.501"></circle><circle style="fill:#FFFFFF;" cx="238.787" cy="314.167" r="1.501"></circle></g><g><circle style="fill:#FFFFFF;" cx="270.952" cy="304.57" r="1.501"></circle><circle style="fill:#FFFFFF;" cx="255.047" cy="311.167" r="1.501"></circle><circle style="fill:#FFFFFF;" cx="260.714" cy="305.167" r="1.501"></circle><circle style="fill:#FFFFFF;" cx="266.247" cy="309.332" r="1.501"></circle><circle style="fill:#FFFFFF;" cx="270.581" cy="314.831" r="1.501"></circle><circle style="fill:#FFFFFF;" cx="261.214" cy="314.167" r="1.501"></circle></g></g></g></g></svg>