<svg xmlns="http://www.w3.org/2000/svg" width="500" height="500" version="1.1"><g id="x110"><g><g><g><path style="fill:#FFFFFF;stroke:#000000;stroke-linecap:round;stroke-linejoin:round;" d="M198.019,348c0,0-2.334,3.667-2.5,4.667c3.666,5.166,13.666,7,13.666,7s2.501-2.667,3.167-6.167C209.185,350.333,198.019,348,198.019,348z"></path><g><path style="fill:#FFFFFF;stroke:#000000;stroke-linecap:round;stroke-linejoin:round;" d="M233.481,288.309c-0.733-1.469-1.233-3.214-1.38-5.309c-5.5,3-13,11.25-13.75,12.5s-0.5,3.75-0.5,3.75l0.003,0.005c-1.349,2.944-3.734,8.593-5.003,14.245c-7.167,8.5-15.931,19.758-16.333,21.667c-0.334,2.834,0.833,5.166,1.166,6.666c0,0-1.333,3.667,0.167,7c3.334,1.833,13,6.501,14.5,5.834s8.834-12.333,11-17C225.519,333,231.436,291.199,233.481,288.309z"></path><path style="fill:#DCDCDC;" d="M226.852,303.5c0,0-4.334,0.333-4.667,2.5s2.334,8.667,5.334,11C229.186,310.666,226.852,303.5,226.852,303.5z"></path><path style="fill:none;stroke:#000000;stroke-linecap:round;stroke-linejoin:round;" d="M222.185,304.167c0,0,0.167,4.5,4.334,9"></path><path style="fill:none;stroke:#000000;stroke-linecap:round;stroke-linejoin:round;" d="M197.685,340.833c0,0,0.667,2.166,2.667,4.333"></path><path style="fill:none;stroke:#000000;stroke-linecap:round;stroke-linejoin:round;" d="M212.185,348.167c0,0,2.667,0.666,5.334-0.834"></path><path style="fill:none;stroke:#000000;stroke-linecap:round;stroke-linejoin:round;" d="M212.912,313.506c0,0-3.32,7.015-4.611,12.201"></path></g></g><g><path style="fill:#FFFFFF;stroke:#000000;stroke-linecap:round;stroke-linejoin:round;" d="M301.981,348c0,0,2.334,3.667,2.5,4.667c-3.666,5.166-13.666,7-13.666,7s-2.501-2.667-3.167-6.167C290.815,350.333,301.981,348,301.981,348z"></path><g><path style="fill:#FFFFFF;stroke:#000000;stroke-linecap:round;stroke-linejoin:round;" d="M266.519,288.309c0.733-1.469,1.233-3.214,1.38-5.309c5.5,3,13,11.25,13.75,12.5s0.5,3.75,0.5,3.75l-0.004,0.005c1.35,2.944,3.734,8.593,5.004,14.245c7.167,8.5,15.931,19.758,16.333,21.667c0.334,2.834-0.833,5.166-1.166,6.666c0,0,1.333,3.667-0.167,7c-3.334,1.833-13,6.501-14.5,5.834s-8.834-12.333-11-17C274.481,333,268.564,291.199,266.519,288.309z"></path><path style="fill:#DCDCDC;" d="M273.148,303.5c0,0,4.334,0.333,4.667,2.5s-2.334,8.667-5.334,11C270.814,310.666,273.148,303.5,273.148,303.5z"></path><path style="fill:none;stroke:#000000;stroke-linecap:round;stroke-linejoin:round;" d="M277.815,304.167c0,0-0.167,4.5-4.334,9"></path><path style="fill:none;stroke:#000000;stroke-linecap:round;stroke-linejoin:round;" d="M302.315,340.833c0,0-0.667,2.166-2.667,4.333"></path><path style="fill:none;stroke:#000000;stroke-linecap:round;stroke-linejoin:round;" d="M287.815,348.167c0,0-2.667,0.666-5.334-0.834"></path><path style="fill:none;stroke:#000000;stroke-linecap:round;stroke-linejoin:round;" d="M287.088,313.506c0,0,3.32,7.015,4.611,12.201"></path></g></g></g><g><g><path style="fill:#FFFFFF;stroke:#000000;stroke-linecap:round;stroke-linejoin:round;" d="M266.12,282.309c0,0,1.63,11.941-16.12,11.941s-16.12-11.941-16.12-11.941s-6.69,19.281-8.171,26.887L228,312.25l22,1.711l22-1.711l2.291-3.055C272.81,301.59,266.12,282.309,266.12,282.309z"></path><path style="fill:#DCDCDC;" d="M250,301.5c0,0-13.5-1.501-18.166-4.167c3.5,8.5,9.499,13.166,18.166,15c8.667-1.834,14.666-6.5,18.166-15C263.5,299.999,250,301.5,250,301.5z"></path></g><g><g><path style="fill:#6E6E6E;stroke:#000000;stroke-linecap:round;stroke-linejoin:round;" d="M232.676,284.375c0,0-7,14.875-7.625,15.875c-1.625-0.625-3.125-2.875-3.125-2.875s6.375-10.125,8.375-12C231.926,284.375,232.676,284.375,232.676,284.375z"></path><path style="fill:#6E6E6E;stroke:#000000;stroke-linecap:round;stroke-linejoin:round;" d="M234.176,284.54c0,0-13.494,6.146-14.436,5.077c-0.941-1.069-2.667-3.475-2.667-3.475s1.413-5.478,3.138-6.813c5.178,0.4,13.808,2.138,13.808,2.138l0.157,1.87c0,0-11.925-1.47-12.552-1.336c-0.941,1.47-0.627,2.939-0.627,2.939l11.14-1.47L234.176,284.54z"></path><path style="fill:#6E6E6E;stroke:#000000;stroke-linecap:round;stroke-linejoin:round;" d="M267.324,284.375c0,0,7,14.875,7.625,15.875c1.625-0.625,3.125-2.875,3.125-2.875s-6.375-10.125-8.375-12C268.074,284.375,267.324,284.375,267.324,284.375z"></path><path style="fill:#6E6E6E;stroke:#000000;stroke-linecap:round;stroke-linejoin:round;" d="M265.824,284.54c0,0,13.494,6.146,14.436,5.077c0.941-1.069,2.667-3.475,2.667-3.475s-1.413-5.478-3.138-6.813c-5.178,0.4-13.808,2.138-13.808,2.138l-0.157,1.87c0,0,11.925-1.47,12.553-1.336c0.941,1.47,0.627,2.939,0.627,2.939l-11.141-1.47L265.824,284.54z"></path></g><g><path style="fill:#6E6E6E;stroke:#000000;stroke-linecap:round;stroke-linejoin:round;" d="M235.375,281.25c0,0-2.5,17-2.25,19.5c-1.75,0-3.25,0-3.25,0l2-17.75C232.375,282,235.375,281.25,235.375,281.25z"></path><path style="fill:#6E6E6E;stroke:#000000;stroke-linecap:round;stroke-linejoin:round;" d="M264.623,281.25c0,0,2.5,17,2.25,19.5c1.75,0,3.25,0,3.25,0l-2-17.75C267.623,282,264.623,281.25,264.623,281.25z"></path></g><g><g><path style="fill:#6E6E6E;stroke:#000000;stroke-linecap:round;stroke-linejoin:round;" d="M229.276,296.43c0,0,2.768-2.186,5.245,0c2.478,2.186,1.603,5.101,1.603,5.101L229.276,296.43z"></path><path style="fill:#6E6E6E;stroke:#000000;stroke-linecap:round;stroke-linejoin:round;" d="M236.125,301.385c0,0,2.768-2.187,5.246,0c2.478,2.186,1.603,5.1,1.603,5.1L236.125,301.385z"></path><path style="fill:#6E6E6E;stroke:#000000;stroke-linecap:round;stroke-linejoin:round;" d="M242.975,306.34c0,0,2.768-2.187,5.246,0c2.478,2.186,1.603,5.101,1.603,5.101L242.975,306.34z"></path></g><g><path style="fill:#6E6E6E;stroke:#000000;stroke-linecap:round;stroke-linejoin:round;" d="M270.722,296.43c0,0-2.769-2.186-5.245,0c-2.478,2.186-1.604,5.101-1.604,5.101L270.722,296.43z"></path><path style="fill:#6E6E6E;stroke:#000000;stroke-linecap:round;stroke-linejoin:round;" d="M263.873,301.385c0,0-2.769-2.187-5.246,0c-2.478,2.186-1.604,5.1-1.604,5.1L263.873,301.385z"></path><path style="fill:#6E6E6E;stroke:#000000;stroke-linecap:round;stroke-linejoin:round;" d="M257.023,306.34c0,0-2.769-2.187-5.246,0c-2.475,2.186-1.6,5.101-1.6,5.101L257.023,306.34z"></path></g></g><g><path style="fill:#6E6E6E;stroke:#000000;stroke-linecap:round;stroke-linejoin:round;" d="M287.499,355.5c-1.75-8.25-11-25.5-11.25-26.5s-1-18-1.25-20.5s-4.75-11.75-4.75-11.75l-20.248,14.5l-20.25-14.5c0,0-4.5,9.25-4.75,11.75s-1,19.5-1.25,20.5s-9.5,18.25-11.25,26.5s-4.75,24-4.75,24l11.25-2.5c0,0,12,3.75,16.75,4.5c2.5-1.75,5.25-2.25,5.25-2.25s4.5,2,5.25,2c1.25-0.25,3.75-1,3.75-1s2.498,0.75,3.748,1c0.75,0,5.25-2,5.25-2s2.75,0.5,5.25,2.25c4.75-0.75,16.75-4.5,16.75-4.5l10.25,2.5C291.249,379.5,289.249,363.75,287.499,355.5z"></path><g><path style="fill:#505050;" d="M235.733,381l-5.479-1.35c0,0,1.146-23.316,7.646-33.483C236.9,364.667,235.733,381,235.733,381z"></path><path style="fill:#505050;" d="M217.4,376.935l1.667-0.333l3.166,0.898l1-22.333C219.566,360.333,217.566,372.435,217.4,376.935z"></path><path style="fill:#505050;" d="M264.267,381l5.479-1.35c0,0-1.146-23.316-7.646-33.483C263.1,364.667,264.267,381,264.267,381z"></path><path style="fill:#505050;" d="M282.6,376.935l-1.667-0.333l-3.166,0.898l-1-22.333C280.434,360.333,282.434,372.435,282.6,376.935z"></path></g></g></g></g></g></g></svg>