<svg xmlns="http://www.w3.org/2000/svg" width="500" height="500" version="1.1"><g id="x111"><g><g><g><g><g><path style="fill:#323232;stroke:#000000;stroke-width:1.0371;stroke-linecap:round;stroke-linejoin:round;" d="M230.572,295.211c-1.354,2.015-0.727,5.008-2.239,5.132c0,0-12.255-0.888-22.615-11.068c2.37-12.759,13.84-16.752,13.84-16.752S227.986,286.744,230.572,295.211z"></path><g><path style="fill:#FFFFFF;stroke:#000000;stroke-width:1.0371;stroke-linecap:round;stroke-linejoin:round;" d="M210.034,290.819c0,0-3.778-4.255-2.329-5.135c1.45-0.882,18.679,9.493,21.731,14.188C223.324,299.616,210.034,290.819,210.034,290.819z"></path><path style="fill:#C7D1D6;" d="M213.83,289.349c0,0,0.76,1.412-0.792,2.187c1.483,1.319,8.425,2.463,8.425,2.463L213.83,289.349z"></path></g></g></g></g><path style="fill:#323232;stroke:#000000;stroke-width:1.0371;stroke-linecap:round;stroke-linejoin:round;" d="M228.868,301.41c0,0-15.693,8.153-18.464,6.86c-4.03-7.281-2.041-15.439-2.041-15.439s12.979,0.449,20.192,4.8C228.649,298.765,228.868,301.41,228.868,301.41z"></path></g><g><g><g><g><g><path style="fill:#323232;stroke:#000000;stroke-width:1.0371;stroke-linecap:round;stroke-linejoin:round;" d="M232.923,303.341c0,0-0.331-15.493,7.251-22.744c-2.967-0.658-5.933,0.66-5.933,0.66s-6.263,7.581-6.263,22.743C230.287,304,232.923,303.341,232.923,303.341z"></path></g><g><path style="fill:#323232;stroke:#000000;stroke-width:1.0371;stroke-linecap:round;stroke-linejoin:round;" d="M267.105,303.341c0,0,0.329-15.493-7.252-22.744c2.967-0.658,5.934,0.66,5.934,0.66s6.263,7.581,6.263,22.743C269.743,304,267.105,303.341,267.105,303.341z"></path></g></g></g><g><g><path style="fill:#6E6E6E;stroke:#000000;stroke-width:1.0371;stroke-linecap:round;stroke-linejoin:round;" d="M272.71,305.318c-0.66-0.987-5.604-3.297-11.536-1.647c-7.252,2.965-11.537,9.887-11.537,9.887l8.899,59.659l4.943-0.658c0,0,2.638,3.956,7.911,3.956c5.274,0,7.582-4.614,10.218-4.945c1.891-0.236,4.943,2.801,11.866,0.164c-2.308-16.809-9.229-24.556-14.833-31.806c-2.636-8.57-3.955-16.151-3.955-16.151s0.989-5.934,1.319-9.559C275.676,309.604,272.71,305.318,272.71,305.318z"></path><path style="fill:#505050;" d="M281.031,344.582c0,0,4.819,15.326,2.843,20.272c-1.977,4.943-2.374,5.3-2.374,5.3s1.067-0.098,3.862,0.957c2.58,0.973,5.794-0.139,5.794-0.139S288.942,353.482,281.031,344.582z"></path><path style="fill:none;stroke:#000000;stroke-width:1.0371;stroke-linecap:round;stroke-linejoin:round;" d="M276.489,334.325c0,0,4.886,13.513,3.897,20.6"></path><path style="fill:none;stroke:#000000;stroke-width:1.0371;stroke-linecap:round;stroke-linejoin:round;" d="M281.704,344.212c0,0,5.109,9.888,5.769,16.48"></path><g><path style="fill:#FFFFFF;stroke:#000000;stroke-width:1.0371;stroke-linecap:round;stroke-linejoin:round;" d="M267.766,374.206c0,0,6.921,1.318,8.24,0.659c1.316-0.659,4.284-2.636,2.636-4.615c-1.648-1.977-0.988-3.624-0.988-3.624c0.329-3.955-0.66-5.274-0.66-5.274s0.989-1.317,0.989-3.624c0-2.31-2.307-6.594-2.307-6.594s0.659-1.649,0-2.967c-0.658-1.318-1.318-2.636-1.318-2.636s1.648-1.649,1.648-3.956c0-2.308-1.648-6.593-1.648-6.593l-0.659-5.273c-0.659-1.319-2.308-5.603-2.308-5.603s0.329-0.33,0.659-1.319c0.329-0.987-0.659-2.966-0.659-2.966c1.319-5.274,0.659-7.91,0.659-7.91s1.318-1.32,0.66-2.968c-0.66-1.647-3.298-4.284-3.298-4.284L259.194,304l7.581,68.888"></path><path style="fill:#C7D1D6;" d="M276.587,363.308c0,0-4.043-0.474-3.384-1.874c0.659-1.399,3.724-2.605,3.724-2.605l-0.648,2.75L276.587,363.308z"></path><path style="fill:#C7D1D6;" d="M275.706,353.437c0,0-4.479-0.573-3.821-1.974c0.659-1.399,3.08-2.4,3.08-2.4s0.17,0.666-0.247,2.148C274.718,351.473,275.706,353.437,275.706,353.437z"></path><path style="fill:#C7D1D6;" d="M274.44,338.442c0,0-4.697-0.576-4.037-1.977c0.659-1.4,2.847-2.328,2.847-2.328s0.092,0.758,0.153,1.129C273.898,336.472,274.44,338.442,274.44,338.442z"></path><path style="fill:#C7D1D6;" d="M270.917,321.299c0,0-4.408-1.142-3.589-2.458c0.819-1.313,3.666-2.162,3.666-2.162s-0.248,1.946-0.588,3.015C270.622,320.511,270.917,321.299,270.917,321.299z"></path><path style="fill:none;stroke:#000000;stroke-width:1.0371;stroke-linecap:round;stroke-linejoin:round;" d="M276.912,361.517c0,0-2.224-0.495-2.307-0.495"></path><path style="fill:none;stroke:#000000;stroke-width:1.0371;stroke-linecap:round;stroke-linejoin:round;" d="M274.273,345.695c0,0-1.563-0.741-2.389-0.247"></path><path style="fill:none;stroke:#000000;stroke-width:1.0371;stroke-linecap:round;stroke-linejoin:round;" d="M273.614,329.461c0,0-0.823,0.659-2.636,1.155"></path></g><g><path style="fill:#FFFFFF;stroke:#000000;stroke-width:1.0371;stroke-linecap:round;stroke-linejoin:round;" d="M262.161,305.647c0.989,0,3.626-0.329,4.285,2.308c0.659,2.636,0.659,3.956-0.988,4.944c1.317,2.307,2.813,2.268,1.647,2.966c-1.647,0.989-0.33,0.989,0,3.296c0.329,2.309,0.979,3.759,0.329,5.274c-0.988,2.308,0.331,0.987,0.331,2.637c0,1.647,0,1.647,0,1.647l-1.648,2.638c0,0,1.977,0.987,2.307,2.637c0.329,1.647,0.659,2.967,0.329,4.285c-0.329,1.319-1.318,1.319-1.318,1.319s0.659,0.329,1.318,2.636c0.659,2.308-0.329,3.297-0.329,3.297s2.309,0.329,2.639,2.636c0.328,2.308-1.65,3.954-1.65,3.954s0.66-0.987,1.32,0.989c0.658,1.979-0.329,2.638-0.329,2.638s1.646,0.329,2.307,2.967c0.658,2.637-1.647,5.275-1.647,5.275s1.316,0.657,1.316,1.976c0,1.319-0.329,2.308-0.329,2.308s1.648,0.33,0.989,2.966c-0.66,2.638-1.319,3.626-4.286,3.626c-2.966,0-5.273-1.648-5.273-1.648l-9.229-52.077c0,0-1.554-4.946-1.883-7.582c-0.329-2.637,1.554-4.943,1.554-4.943s-0.33-3.626,1.646-3.297C257.547,305.647,262.161,305.647,262.161,305.647z"></path><path style="fill:#C7D1D6;" d="M257.876,328.144c0,0,5.355,0.906,5.274-1.236c-0.082-2.142-5.851-2.801-5.851-2.801L257.876,328.144z"></path><path style="fill:#C7D1D6;" d="M263.81,365.226c0,0,5.355,0.905,5.273-1.235c-0.083-2.144-5.852-2.804-5.852-2.804L263.81,365.226z"></path><path style="fill:#C7D1D6;" d="M260.433,345.448c0,0,3.706-4.202,3.623-6.347c-0.082-2.141-4.366,1.567-4.366,1.567L260.433,345.448z"></path><path style="fill:#C7D1D6;" d="M261.997,355.502c0,0,4.532-1.482,4.449-3.627c-0.082-2.141-5.192-1.153-5.192-1.153L261.997,355.502z"></path><path style="fill:#C7D1D6;" d="M255.899,315.289c0,0,5.354,0.904,5.273-1.235c-0.083-2.143-5.852-2.804-5.852-2.804L255.899,315.289z"></path><g><path style="fill:none;stroke:#000000;stroke-width:1.0371;stroke-linecap:round;stroke-linejoin:round;" d="M254.58,314.547c0,0,1.649-2.307,4.284-2.307"></path><path style="fill:none;stroke:#000000;stroke-width:1.0371;stroke-linecap:round;stroke-linejoin:round;" d="M256.157,315.021c0,0,2.38-0.98,3.343,0.356"></path></g><g><path style="fill:none;stroke:#000000;stroke-width:1.0371;stroke-linecap:round;stroke-linejoin:round;" d="M263.225,364.528c0,0,1.442-2.44,4.067-2.669"></path><path style="fill:none;stroke:#000000;stroke-width:1.0371;stroke-linecap:round;stroke-linejoin:round;" d="M264.837,364.865c0,0,2.285-1.186,3.359,0.063"></path></g><path style="fill:none;stroke:#000000;stroke-width:1.0371;stroke-linecap:round;stroke-linejoin:round;" d="M265.787,350.805c0,0-3.626-1.978-5.273-0.33"></path><path style="fill:none;stroke:#000000;stroke-width:1.0371;stroke-linecap:round;stroke-linejoin:round;" d="M263.15,338.938c0,0-1.647,0.989-2.968,2.308"></path><path style="fill:none;stroke:#000000;stroke-width:1.0371;stroke-linecap:round;stroke-linejoin:round;" d="M260.514,326.413c0,0-2.637-0.659-3.955,0.33"></path></g><g><path style="fill:#6E6E6E;stroke:#000000;stroke-width:1.0371;stroke-linecap:round;stroke-linejoin:round;" d="M275.347,309.604c0,0,1.229-3.405,0.329-5.604c-0.479-1.176-2.246-1.174-3.626-1.979c-1.026-0.598-4.284-3.626-6.923-1.977c-2.637,1.646-7.58-1.978-11.205,1.646c-2.967,5.934-4.613,8.241-4.613,8.241l1.977,4.943c0,0-1.319,3.627-1.319,5.604c0.329,2.638,8.241,54.057,8.241,54.057s4.037,0.824,6.921-0.989c0.091-0.09-0.564-4.108-1.563-9.888c-0.168-6.181-1.531-8.761-2.408-13.688c-0.149-4.027-0.644-6.089-1.486-8.311c-1.054-12.114-3.771-20.85-3.771-20.85l-1.883-4.945l1.552-5.933c0,0,0.99-2.965,2.639-2.965c1.646,0,5.272,0.328,6.59-0.332C266.117,305.978,272.71,306.636,275.347,309.604z"></path><path style="fill:#505050;" d="M262.219,359.508c0,0-1.087,2.38-0.716,4.482c0.37,2.1,1.843,4.246,1.843,4.246L262.219,359.508z"></path><path style="fill:#505050;" d="M258.402,338.402c-0.125,0.37-1.597,2.719-1.103,3.956c0.495,1.235,2.595,3.954,2.595,3.954l-0.741-4.325L258.402,338.402z"></path><path style="fill:#505050;" d="M270.499,302.141c0.495,0.386,1.064,0.741,1.064,0.741s-1.78,2.643-2.398,2.148c-0.616-0.496,0.247-3.585,0.247-3.585S270.005,301.754,270.499,302.141z"></path><path style="fill:#505050;" d="M262.989,301.458c0.511,0.016,1.19-0.059,1.19-0.059s-0.638,3.178-1.399,2.965c-0.762-0.215-1.118-2.965-1.118-2.965S262.479,301.441,262.989,301.458z"></path></g></g><g><path style="fill:#6E6E6E;stroke:#000000;stroke-width:1.0371;stroke-linecap:round;stroke-linejoin:round;" d="M227.319,305.318c0.659-0.987,5.604-3.297,11.537-1.647c7.251,2.965,11.536,9.887,11.536,9.887l-8.899,59.659l-4.943-0.658c0,0-2.637,3.956-7.911,3.956c-5.274,0-7.582-4.614-10.218-4.945c-1.892-0.236-4.944,2.801-11.865,0.165c2.306-16.81,9.229-24.557,14.831-31.807c2.637-8.57,3.956-16.151,3.956-16.151s-0.988-5.934-1.319-9.559C224.354,309.604,227.319,305.318,227.319,305.318z"></path><path style="fill:#505050;" d="M218.997,344.582c0,0-4.821,15.326-2.843,20.272c1.977,4.943,2.601,5.344,2.601,5.344s-1.224-0.309-3.97,0.867c-2.457,1.05-5.996-0.124-5.996-0.124S211.086,353.482,218.997,344.582z"></path><path style="fill:none;stroke:#000000;stroke-width:1.0371;stroke-linecap:round;stroke-linejoin:round;" d="M214.583,371.501c-2.427-13.773,3.836-27.948,3.836-27.948"></path><g><path style="fill:#FFFFFF;stroke:#000000;stroke-width:1.0371;stroke-linecap:round;stroke-linejoin:round;" d="M232.263,374.206c0,0-6.92,1.318-8.239,0.659c-1.319-0.659-4.285-2.636-2.637-4.615c1.649-1.977,0.989-3.624,0.989-3.624c-0.329-3.955,0.66-5.274,0.66-5.274s-0.989-1.317-0.989-3.624c0-2.31,2.308-6.594,2.308-6.594s-0.661-1.649,0-2.967c0.658-1.318,1.317-2.636,1.317-2.636s-1.648-1.649-1.648-3.956c0-2.308,1.648-6.593,1.648-6.593l0.659-5.273c0.66-1.319,2.307-5.603,2.307-5.603s-0.33-0.33-0.659-1.319c-0.33-0.987,0.659-2.966,0.659-2.966c-1.318-5.274-0.659-7.91-0.659-7.91s-1.318-1.32-0.659-2.968s3.295-4.284,3.295-4.284L240.834,304l-7.581,68.888"></path><path style="fill:#C7D1D6;" d="M223.375,363.464c0,0,4.11-0.63,3.451-2.03c-0.661-1.399-3.713-2.761-3.713-2.761s0.171,1.269,0.525,2.644C223.575,361.84,223.375,363.464,223.375,363.464z"></path><path style="fill:#C7D1D6;" d="M224.338,353.431c0,0,4.464-0.565,3.805-1.968c-0.659-1.399-3.022-2.554-3.022-2.554s-0.279,0.978,0.237,2.225C225.399,351.299,224.338,353.431,224.338,353.431z"></path><path style="fill:#C7D1D6;" d="M225.588,338.442c0,0,4.697-0.576,4.038-1.977c-0.658-1.4-2.807-2.709-2.807-2.709s-0.113,1.124-0.174,1.359C226.171,336.302,225.588,338.442,225.588,338.442z"></path><path style="fill:#C7D1D6;" d="M229.108,321.222c0,0,4.413-1.064,3.592-2.381c-0.819-1.313-3.697-2.192-3.697-2.192s0.3,2.07,0.639,3.214C229.632,320.026,229.108,321.222,229.108,321.222z"></path><path style="fill:none;stroke:#000000;stroke-width:1.0371;stroke-linecap:round;stroke-linejoin:round;" d="M223.117,361.517c0,0,2.224-0.494,2.307-0.494"></path><path style="fill:none;stroke:#000000;stroke-width:1.0371;stroke-linecap:round;stroke-linejoin:round;" d="M225.753,345.695c0,0,1.566-0.741,2.39-0.247"></path><path style="fill:none;stroke:#000000;stroke-width:1.0371;stroke-linecap:round;stroke-linejoin:round;" d="M226.413,329.461c0,0,0.825,0.659,2.638,1.155"></path></g><g><path style="fill:#FFFFFF;stroke:#000000;stroke-width:1.0371;stroke-linecap:round;stroke-linejoin:round;" d="M237.867,305.647c-0.989,0-3.625-0.329-4.285,2.308c-0.659,2.636-0.659,3.956,0.989,4.944c-1.319,2.307-2.813,2.268-1.648,2.966c1.648,0.989,0.329,0.989,0,3.296c-0.331,2.309-0.979,3.759-0.331,5.274c0.99,2.308-0.329,0.987-0.329,2.637c0,1.647,0,1.647,0,1.647l1.649,2.638c0,0-1.977,0.987-2.307,2.637c-0.331,1.647-0.661,2.967-0.331,4.285c0.331,1.319,1.318,1.319,1.318,1.319s-0.658,0.329-1.318,2.636c-0.659,2.308,0.331,3.297,0.331,3.297s-2.306,0.329-2.636,2.636c-0.331,2.308,1.646,3.954,1.646,3.954s-0.659-0.987-1.316,0.989c-0.661,1.979,0.328,2.638,0.328,2.638s-1.649,0.329-2.307,2.967c-0.659,2.637,1.649,5.275,1.649,5.275s-1.32,0.657-1.32,1.976c0,1.319,0.33,2.308,0.33,2.308s-1.648,0.33-0.988,2.966c0.658,2.638,1.317,3.626,4.284,3.626c2.968,0,5.275-1.648,5.275-1.648l9.229-52.077c0,0-1.648-5.275-1.319-7.912s1.648-4.613,1.648-4.613s0.329-3.626-1.648-3.297C242.48,305.647,237.867,305.647,237.867,305.647z"></path><path style="fill:#C7D1D6;" d="M243.476,328.421c0,0-6.68,0.629-6.598-1.514c0.083-2.142,7.308-2.689,7.308-2.689L243.476,328.421z"></path><path style="fill:#C7D1D6;" d="M236.838,366.182c0,0-5.976-0.051-5.894-2.191c0.083-2.144,6.752-2.844,6.752-2.844L236.838,366.182z"></path><path style="fill:#C7D1D6;" d="M240.448,345.694c0,0-4.558-4.448-4.476-6.593c0.083-2.141,5.31,1.618,5.31,1.618L240.448,345.694z"></path><path style="fill:#C7D1D6;" d="M238.655,355.645c0,0-5.155-1.625-5.073-3.77c0.081-2.141,5.938-1.175,5.938-1.175L238.655,355.645z"></path><path style="fill:#C7D1D6;" d="M242.982,315.289c0,0-5.857,0.904-5.775-1.235c0.083-2.143,6.64-2.782,6.64-2.782L242.982,315.289z"></path><g><path style="fill:none;stroke:#000000;stroke-width:1.0371;stroke-linecap:round;stroke-linejoin:round;" d="M243.8,314.547c0,0-1.649-2.307-4.285-2.307"></path><path style="fill:none;stroke:#000000;stroke-width:1.0371;stroke-linecap:round;stroke-linejoin:round;" d="M242.222,315.021c0,0-2.379-0.98-3.343,0.356"></path></g><g><path style="fill:none;stroke:#000000;stroke-width:1.0371;stroke-linecap:round;stroke-linejoin:round;" d="M236.804,364.528c0,0-1.441-2.44-4.067-2.669"></path><path style="fill:none;stroke:#000000;stroke-width:1.0371;stroke-linecap:round;stroke-linejoin:round;" d="M235.192,364.865c0,0-2.286-1.186-3.361,0.063"></path></g><path style="fill:none;stroke:#000000;stroke-width:1.0371;stroke-linecap:round;stroke-linejoin:round;" d="M234.242,350.805c0,0,3.625-1.978,5.273-0.33"></path><path style="fill:none;stroke:#000000;stroke-width:1.0371;stroke-linecap:round;stroke-linejoin:round;" d="M236.878,338.938c0,0,1.649,0.989,2.966,2.308"></path><path style="fill:none;stroke:#000000;stroke-width:1.0371;stroke-linecap:round;stroke-linejoin:round;" d="M239.515,326.413c0,0,2.636-0.659,3.956,0.33"></path></g><g><path style="fill:#6E6E6E;stroke:#000000;stroke-width:1.0371;stroke-linecap:round;stroke-linejoin:round;" d="M224.683,309.604c0,0-1.229-3.405-0.329-5.604c0.479-1.176,2.246-1.174,3.625-1.979c1.026-0.598,4.284-3.626,6.922-1.977c2.636,1.646,10.547-1.978,14.173,1.646c2.965,5.934,4.614,8.241,4.614,8.241l-1.978,4.943c0,0,1.317,3.627,1.317,5.604c-0.329,2.638-8.238,54.057-8.238,54.057s-4.039,0.824-6.922-0.989c-0.09-0.09,0.564-4.108,1.562-9.888c0.168-6.181,1.53-8.761,2.408-13.688c0.149-4.027,0.644-6.089,1.487-8.311c1.052-12.114,3.771-20.85,3.771-20.85s-1.317-4.617-1.317-6.264c0-1.647,1.647-4.614,1.647-4.614s-0.989-2.965-2.637-2.965c-1.647,0-8.24,0.328-9.559-0.332C233.912,305.978,227.319,306.636,224.683,309.604z"></path><path style="fill:#505050;" d="M240.757,359.57c0,0,1.106,2.317,0.735,4.42c-0.371,2.1-1.941,4.881-1.941,4.881L240.757,359.57z"></path><path style="fill:#505050;" d="M244.682,338.248c0.122,0.371,1.508,2.873,1.013,4.11c-0.493,1.235-2.528,3.954-2.528,3.954s0.032-2.132,1.113-4.295C244.311,340.813,244.682,338.248,244.682,338.248z"></path><path style="fill:#505050;" d="M228.381,302.929c0.077,0.309,1.214,3.115,2.482,2.102c0.618-0.496-0.248-3.585-0.248-3.585S228.488,302.773,228.381,302.929z"></path><path style="fill:#505050;" d="M237.048,301.49c-0.494,0.018-1.25-0.076-1.25-0.076s0.688,3.163,1.45,2.95c0.763-0.215,1.068-2.95,1.068-2.95S237.543,301.476,237.048,301.49z"></path><path style="fill:#505050;" d="M246.751,314.517c0,0,1.829,1.169,3.972,0.264c0.277,1.743,2.058,5.287,2.058,5.287s-4.583,1.746-4.995,1.17C247.375,319.507,246.751,314.517,246.751,314.517z"></path><path style="fill:#505050;" d="M247.741,321.006c0.015,0.493-0.047,1.22-0.047,1.22s0.843,0.974,2.574,0.355c1.73-0.618,2.225-2.224,2.225-2.224l-0.618-1.854l-4.459,0.741C247.416,319.244,247.726,320.511,247.741,321.006z"></path></g><g><circle style="fill:#323232;stroke:#000000;stroke-width:1.0371;stroke-linecap:round;stroke-linejoin:round;" cx="251.051" cy="309.272" r="1.977"></circle><circle style="fill:#323232;stroke:#000000;stroke-width:1.0371;stroke-linecap:round;stroke-linejoin:round;" cx="250.392" cy="318.833" r="1.977"></circle></g></g></g></g></g></g></g></svg>