<svg xmlns="http://www.w3.org/2000/svg" width="500" height="500" version="1.1"><g id="x112"><g><g><g><path style="fill:#6E6E6E;stroke:#000000;stroke-linecap:round;stroke-linejoin:round;" d="M223.246,291.5c0,0-5.875,6.188-8.313,14.875c-1.364,0.378-3.188,1.813-3.188,1.813s2.688,6.438,14.25,7c1.737-4.825,4.878-15.479,4.878-15.479L223.246,291.5z"></path><path style="fill:#505050;" d="M215.268,306.751l0.833-2.292c0,0,0.388,2.559,1.44,3.298c-1.997,0.718-4.023-0.215-4.023-0.215L215.268,306.751z"></path><path style="fill:#3F3F3F;" d="M215.351,306.626c0,0,2.958,2.958,9.875,3.75l-0.167,1.75c0,0-8.375-0.75-11.041-4.834C214.357,307.016,215.351,306.626,215.351,306.626z"></path></g><g><path style="fill:#6E6E6E;stroke:#000000;stroke-linecap:round;stroke-linejoin:round;" d="M276.754,291.5c0,0,5.875,6.188,8.313,14.875c1.365,0.378,3.188,1.813,3.188,1.813s-2.688,6.438-14.25,7c-1.737-4.825-4.878-15.479-4.878-15.479L276.754,291.5z"></path><path style="fill:#505050;" d="M284.732,306.751l-0.833-2.292c0,0-0.388,2.559-1.44,3.298c1.997,0.718,4.023-0.215,4.023-0.215L284.732,306.751z"></path><path style="fill:#3F3F3F;" d="M284.649,306.626c0,0-2.958,2.958-9.875,3.75l0.167,1.75c0,0,8.375-0.75,11.041-4.834C285.643,307.016,284.649,306.626,284.649,306.626z"></path></g></g><g><g><path style="fill:#3F3F3F;stroke:#000000;stroke-linecap:round;stroke-linejoin:round;" d="M237.943,281.175c0,0-0.431,16.814,0.719,19.688c-2.299-0.863-3.019-0.146-3.019-0.146s-1.868-14.658-0.574-18.824C236.363,281.031,237.943,281.175,237.943,281.175z"></path><path style="fill:#3F3F3F;stroke:#000000;stroke-linecap:round;stroke-linejoin:round;" d="M262.058,281.175c0,0,0.43,16.814-0.719,19.688c2.299-0.863,3.018-0.146,3.018-0.146s1.869-14.658,0.575-18.824C263.638,281.031,262.058,281.175,262.058,281.175z"></path></g><g><g><path style="fill:#6E6E6E;stroke:#000000;stroke-linecap:round;stroke-linejoin:round;" d="M275.23,326.438c-0.625-9.438-1.125-16.438-1.688-19.5c-0.93-5.053-3-10.25-3-10.25l-20.544,7.348l-20.542-7.348c0,0-2.071,5.197-3,10.25c-0.563,3.063-1.063,10.063-1.688,19.5c-2.337,6.474-16.875,45.563-16.918,47.926c1.98,2.574,13.754,3.305,15.909,3.592c5.509,2.982,12.012,4.871,12.259,4.857c2.563-0.438,4.329-1.68,4.329-1.68s9.383,1.942,9.65,1.889c0.268,0.054,9.651-1.889,9.651-1.889s1.768,1.242,4.33,1.68c0.246,0.014,6.75-1.875,12.258-4.857c2.156-0.287,13.93-1.018,15.91-3.592C292.105,372,277.566,332.911,275.23,326.438z"></path><g><g><circle style="fill:#666666;stroke:#000000;stroke-linecap:round;stroke-linejoin:round;" cx="248.973" cy="317.886" r="1.652"></circle><circle style="fill:#666666;stroke:#000000;stroke-linecap:round;stroke-linejoin:round;" cx="248.973" cy="327.802" r="1.652"></circle><circle style="fill:#666666;stroke:#000000;stroke-linecap:round;stroke-linejoin:round;" cx="248.973" cy="337.719" r="1.652"></circle><circle style="fill:#666666;stroke:#000000;stroke-linecap:round;stroke-linejoin:round;" cx="248.973" cy="347.634" r="1.652"></circle><circle style="fill:#666666;stroke:#000000;stroke-linecap:round;stroke-linejoin:round;" cx="248.973" cy="357.55" r="1.652"></circle></g><path style="fill:none;stroke:#000000;stroke-linecap:round;stroke-linejoin:round;" d="M252.343,370.869c0,0,0.056-14.543,0.295-31.644c0.288-20.55-1.006-34.489-1.006-34.489"></path></g></g><g><g><g><path style="fill:#3F3F3F;stroke:#000000;stroke-linecap:round;stroke-linejoin:round;" d="M231.763,303.874c0,0,1.437,4.455,4.598,5.029c6.369,1.159,13.508-5.029,13.508-5.029H231.763z"></path></g><g><path style="fill:#3F3F3F;stroke:#000000;stroke-linecap:round;stroke-linejoin:round;" d="M268.236,303.874c0,0-1.438,4.455-4.6,5.029c-6.369,1.159-13.509-5.029-13.509-5.029H268.236z"></path><g><g><path style="fill:#666666;stroke:#000000;stroke-linecap:round;stroke-linejoin:round;" d="M251.67,305.312c0.172,0.687-0.342,13.209,1.201,15.782c1.545,2.573,8.578,9.607,11.494,15.784c1.373-9.264,2.23-16.813-1.201-20.587c-3.43-3.774-9.262-10.808-9.262-10.808L251.67,305.312z"></path><path style="fill:#3F3F3F;" d="M252.701,305.654c0,0,1.494,4.851,3.979,7.893c1.361,1.666,4.844,2.648,5.146,2.83c0.379,0.227,2.746,1.009,3.133,7.186c0.645,5.918-0.814,10.347-1.006,11.209c-0.996-1.659-7.943-10.014-8.945-12.09c1.285,0.515,3.01,0.747,2.65-0.041c-2.678-5.86-4.898-11.835-5.129-13.212C252.529,307.541,252.701,305.654,252.701,305.654z"></path></g><g><path style="fill:#666666;stroke:#000000;stroke-linecap:round;stroke-linejoin:round;" d="M248.103,306.684c-0.173,0.687,0.343,13.209-1.202,15.782c-1.544,2.574-8.578,9.607-11.495,15.784c-1.373-9.264-2.229-16.813,1.202-20.587c3.43-3.773,9.264-10.808,9.264-10.808L248.103,306.684z"></path><path style="fill:#3F3F3F;" d="M247.073,307.026c0,0-5.833,8.75-6.69,9.265c-0.858,0.515-4.417,10.851-4.161,18.441c1.593-2.654,6.69-8.105,9.264-11.966c-1.287,0.129-2.238-1.297-2.007-1.834c2.036-4.741,3.577-8.997,3.766-10.132C247.244,308.913,247.073,307.026,247.073,307.026z"></path></g></g></g></g><g><path style="fill:#666666;stroke:#000000;stroke-linecap:round;stroke-linejoin:round;" d="M244.697,304.233c0,0,2.372,0.646,2.695,1.94c0.323,1.293,0.323,2.479,0.323,2.479s1.185,1.724,2.37,1.616c1.187-0.108,2.263-1.51,2.263-1.51s3.773-1.724,3.018-4.526C252.135,303.155,246.96,302.401,244.697,304.233z"></path></g></g></g></g></g></g></svg>