<svg xmlns="http://www.w3.org/2000/svg" width="500" height="500" version="1.1"><g id="x113"><g><g><g><path style="fill:#FFFFFF;stroke:#000000;stroke-linecap:round;stroke-linejoin:round;" d="M195.47,352c0,0-0.25-3.75,0.5-6s6.5-8.75,6.5-8.75s2.881-9.438,4.5-13c2.5-5.5,5.75-10.75,5.75-10.75s3-13.25,9-20.75s10-9.5,10-9.5l2,13l-9,29.75c0,0-1.103,14.707-2.5,16.75c-3.25,4.75-6,8.5-6,8.5s-2.5,5.75-4,6.5s-3.5,1.75-3.5,1.75S196.47,354.75,195.47,352z"></path><path style="fill:#DCDCDC;" d="M204.22,356.25c0,0-1.75-4.25-1.5-6s3.25-4.75,4.25-4.5c1,2.25,2,4.75,1,6S205.72,356.25,204.22,356.25z"></path><path style="fill:#DCDCDC;" d="M197.22,353c0,0-1-5.5-0.5-6.5c1.75,2,4.75,8,4,8.5S197.22,353,197.22,353z"></path><path style="fill:#DCDCDC;" d="M227.47,295.25c0,0-4.75,3.5-5,7.75s3.5,8.75,3.5,8.75S228.97,300,227.47,295.25z"></path><path style="fill:none;stroke:#000000;stroke-linecap:round;stroke-linejoin:round;" d="M222.47,300c0,0,0.75,6.75,4.75,10"></path></g><g><path style="fill:#FFFFFF;stroke:#000000;stroke-linecap:round;stroke-linejoin:round;" d="M304.53,352c0,0,0.25-3.75-0.5-6s-6.5-8.75-6.5-8.75s-2.881-9.438-4.5-13c-2.5-5.5-5.75-10.75-5.75-10.75s-3-13.25-9-20.75s-10-9.5-10-9.5l-2,13l9,29.75c0,0,1.103,14.707,2.5,16.75c3.25,4.75,6,8.5,6,8.5s2.5,5.75,4,6.5s3.5,1.75,3.5,1.75S303.53,354.75,304.53,352z"></path><path style="fill:#DCDCDC;" d="M295.78,356.25c0,0,1.75-4.25,1.5-6s-3.25-4.75-4.25-4.5c-1,2.25-2,4.75-1,6S294.28,356.25,295.78,356.25z"></path><path style="fill:#DCDCDC;" d="M302.78,353c0,0,1-5.5,0.5-6.5c-1.75,2-4.75,8-4,8.5S302.78,353,302.78,353z"></path><path style="fill:#DCDCDC;" d="M272.53,295.25c0,0,4.75,3.5,5,7.75s-3.5,8.75-3.5,8.75S271.03,300,272.53,295.25z"></path><path style="fill:none;stroke:#000000;stroke-linecap:round;stroke-linejoin:round;" d="M277.53,300c0,0-0.75,6.75-4.75,10"></path></g></g><g><g><g><path style="fill:#FFFFFF;stroke:#000000;stroke-linecap:round;stroke-linejoin:round;" d="M275.25,324.75c0-0.75-1-14.75-1.5-18.75s-5.25-15.25-5.25-15.25l-0.25-7.5c0,0-5-1.898-6-2.148l-4.5,9.148l-7.75,3.5l-7.75-3.5l-4.5-9.148c-1,0.25-6,2.148-6,2.148l-0.25,7.5c0,0-4.75,11.25-5.25,15.25s-1.5,18-1.5,18.75S223.5,331,223.5,331l26.5,2l26.5-2C276.5,331,275.25,325.5,275.25,324.75z"></path><path style="fill:#DCDCDC;" d="M269.5,304c-5.75,8-19.5,6.5-19.5,6.5s-13.75,1.5-19.5-6.5c-2,12.25-3.25,22,2.25,25.75S250,331.5,250,331.5s11.75,2,17.25-1.75S271.5,316.25,269.5,304z"></path></g><g><line style="fill:none;stroke:#000000;stroke-linecap:round;stroke-linejoin:round;" x1="248" y1="295.5" x2="248" y2="330.5"></line><line style="fill:none;stroke:#000000;stroke-linecap:round;stroke-linejoin:round;" x1="252" y1="295.5" x2="252" y2="330.5"></line></g></g><g><g><g><path style="fill:#6E6E6E;stroke:#000000;stroke-linecap:round;stroke-linejoin:round;" d="M216.97,372.75c0,0,0,4.25,0.75,6c2.5,2.25,19.25,3.75,27.25,1.25c1.5-2.5,2.5-5.25,2.5-5.25L216.97,372.75z"></path><path style="fill:#6E6E6E;stroke:#000000;stroke-linecap:round;stroke-linejoin:round;" d="M283.03,372.75c0,0,0,4.25-0.75,6c-2.5,2.25-19.25,3.75-27.25,1.25c-1.5-2.5-2.5-5.25-2.5-5.25L283.03,372.75z"></path></g><g><path style="fill:#6E6E6E;stroke:#000000;stroke-linecap:round;stroke-linejoin:round;" d="M285.75,354.75c-1-7.5-9-21.75-9.75-28.25c-0.5-15.25-5.5-41.5-5.5-41.5c-1.25-1-6-3.5-6-3.5s5.5,38.549,2.5,44.049s-17,4.75-17,4.75s-14,0.75-17-4.75s2.5-44.049,2.5-44.049s-4.75,2.5-6,3.5c0,0-5,26.25-5.5,41.5c-0.75,6.5-8.75,20.75-9.75,28.25s0.25,18.75,0.25,18.75s11.75,4,32.75,1.25c2-0.75,2.75-1.75,2.75-1.75s0.75,1,2.75,1.75c21,2.75,32.75-1.25,32.75-1.25S286.75,362.25,285.75,354.75z"></path><path style="fill:#505050;" d="M250,330.871c-12.75,0.254-15.5-3.121-16.5-3.996c-0.125,14,10,19.75,16.5,20.193c6.5-0.443,16.625-6.193,16.5-20.193C265.5,327.75,262.75,331.125,250,330.871z"></path></g></g><g><g><path style="fill:#B2B2B2;stroke:#000000;stroke-linecap:round;stroke-linejoin:round;" d="M225.464,308.76c0,0,6.035,0.863,8.191-0.862c1.079-0.431,1.079-3.88,0-4.526c-1.077-0.646-8.191,0.216-8.191,0.216S224.17,306.82,225.464,308.76z"></path><path style="fill:#FFFFFF;" d="M227.619,307.683l5.39-3.233c0,0,0.302,1.347-0.291,2.425C231.64,307.521,227.619,307.683,227.619,307.683z"></path></g><g><path style="fill:#B2B2B2;stroke:#000000;stroke-linecap:round;stroke-linejoin:round;" d="M274.536,308.76c0,0-6.035,0.863-8.191-0.862c-1.078-0.431-1.078-3.88,0-4.526s8.191,0.216,8.191,0.216S275.829,306.82,274.536,308.76z"></path><path style="fill:#FFFFFF;" d="M272.381,307.683l-5.39-3.233c0,0-0.303,1.347,0.291,2.425C268.36,307.521,272.381,307.683,272.381,307.683z"></path></g></g><g><g><circle style="fill:#FFFFFF;stroke:#000000;stroke-linecap:round;stroke-linejoin:round;" cx="250" cy="343.534" r="3.719"></circle><path style="fill:#C7D1D6;" d="M247.935,344.832c0,0,1.89,2.243,3.541,0.709c1.653-1.534,0.236-3.541,0.236-3.541s0.351,1.124-1.298,2.361C248.997,345.422,247.935,344.832,247.935,344.832z"></path></g><g><circle style="fill:#FFFFFF;stroke:#000000;stroke-linecap:round;stroke-linejoin:round;" cx="250" cy="356.034" r="3.719"></circle><path style="fill:#C7D1D6;" d="M247.935,357.332c0,0,1.89,2.243,3.541,0.709c1.653-1.534,0.236-3.541,0.236-3.541s0.351,1.124-1.298,2.361C248.997,357.922,247.935,357.332,247.935,357.332z"></path></g></g></g></g></g></g></svg>