<svg xmlns="http://www.w3.org/2000/svg" width="500" height="500" version="1.1"><g id="x114"><g><g><g><path style="fill:#FFFFFF;stroke:#000000;stroke-linecap:round;stroke-linejoin:round;" d="M225.325,286.835c0,0-4.167,6.499-6.667,9.832c-2.666,4.666-4.666,10.833-4.666,10.833s-3.167,3.333-3.334,4.333c-0.166,1,0.5,4,0.5,4s-3.666,5.5-4.666,8.167s-1.167,7.167-1.167,7.167l14.083,5.333c0,0,5.417-11,6.584-14c1.166-3,6.833-39.5,6.833-39.5S226.992,285.501,225.325,286.835z"></path><path style="fill:#DCDCDC;" d="M211.992,316c0,0-1.334-3.667-0.834-4s6.5,1.999,6.5,3.833C217.492,316,211.992,316,211.992,316z"></path><path style="fill:#DCDCDC;" d="M227.158,299.667c0,0-3.5,1-4,2.333s-0.666,8,1.834,10.5C227.825,306.833,227.158,299.667,227.158,299.667z"></path><path style="fill:none;stroke:#000000;stroke-linecap:round;stroke-linejoin:round;" d="M222.825,300.167c0,0,0,4.332,3.167,7.166"></path><g><path style="fill:#FFFFFF;stroke:#000000;stroke-linecap:round;stroke-linejoin:round;" d="M207.492,323.001c0,0-2.834,1-3,2c-0.167,1,0,2.833,0,2.833l-2.5,4l1,2.5c0,0,3.041-1.959,9.416,0.916c5.688,2.565,5.5,5.75,5.5,5.75l3.917-3.333l0.334-2l3-4.833c0,0-0.167-2.333-7.167-5.833C211.624,321.816,207.492,323.001,207.492,323.001z"></path><path style="fill:#DCDCDC;" d="M219.408,335.5c0,0-3.25-4-4.5-4.75c1.5-1.5,5.5-0.75,6.5,1S219.408,335.5,219.408,335.5z"></path></g></g><g><path style="fill:#FFFFFF;stroke:#000000;stroke-linecap:round;stroke-linejoin:round;" d="M274.675,286.835c0,0,4.167,6.499,6.667,9.832c2.666,4.666,4.666,10.833,4.666,10.833s3.168,3.333,3.334,4.333s-0.5,4-0.5,4s3.666,5.5,4.666,8.167s1.167,7.167,1.167,7.167l-14.083,5.333c0,0-5.417-11-6.584-14c-1.166-3-6.833-39.5-6.833-39.5S273.008,285.501,274.675,286.835z"></path><path style="fill:#DCDCDC;" d="M288.008,316c0,0,1.334-3.667,0.834-4s-6.5,1.999-6.5,3.833C282.508,316,288.008,316,288.008,316z"></path><path style="fill:#DCDCDC;" d="M272.842,299.667c0,0,3.5,1,4,2.333s0.666,8-1.834,10.5C272.175,306.833,272.842,299.667,272.842,299.667z"></path><path style="fill:none;stroke:#000000;stroke-linecap:round;stroke-linejoin:round;" d="M277.175,300.167c0,0,0,4.332-3.167,7.166"></path><g><path style="fill:#FFFFFF;stroke:#000000;stroke-linecap:round;stroke-linejoin:round;" d="M292.508,323.001c0,0,2.834,1,3,2c0.167,1,0,2.833,0,2.833l2.5,4l-1,2.5c0,0-3.041-1.959-9.416,0.916c-5.688,2.565-5.5,5.75-5.5,5.75l-3.917-3.333l-0.333-2l-3-4.833c0,0,0.166-2.333,7.166-5.833C288.377,321.816,292.508,323.001,292.508,323.001z"></path><path style="fill:#DCDCDC;" d="M280.592,335.5c0,0,3.25-4,4.5-4.75c-1.5-1.5-5.5-0.75-6.5,1S280.592,335.5,280.592,335.5z"></path></g></g></g><path style="fill:#FFFFFF;stroke:#000000;stroke-linecap:round;stroke-linejoin:round;" d="M275.25,326.5c0,0-0.75-15.25-1-19.5s-4-12.5-4-12.5L267,283.25l-3.25-1.75L250,298.25l-13.75-16.75l-3.25,1.75l-3.25,11.25c0,0-3.75,8.25-4,12.5s-1,19.5-1,19.5s-2.25,7.75-2.25,8.5c6,3.25,20.5,6.5,27.5,6.5s21.5-3.25,27.5-6.5C277.5,334.25,275.25,326.5,275.25,326.5z"></path><g><polygon style="fill:#DCDCDC;" points="231.408,287.5 232.408,292.75 248.908,298.5 238.158,286.25 "></polygon><polygon style="fill:#DCDCDC;" points="268.592,287.5 267.592,292.75 251.092,298.5 261.842,286.25 "></polygon></g><line style="fill:none;stroke:#000000;stroke-linecap:round;stroke-linejoin:round;" x1="250" y1="298.75" x2="250" y2="313.5"></line><path style="fill:#6E6E6E;stroke:#000000;stroke-linecap:round;stroke-linejoin:round;" d="M287.5,361.25c-1.25-4.5-7.25-18.25-7.25-18.25s0.75-3.75,0.25-5c-0.75-2-4.75-11.25-4.75-11.25s0.25-4.25-0.5-7.75c-0.75-1.5-6.75-5.25-6.75-5.25h-37c0,0-6,3.75-6.75,5.25c-0.75,3.5-0.5,7.75-0.5,7.75s-4,9.25-4.75,11.25c-0.5,1.25,0.25,5,0.25,5s-6,13.75-7.25,18.25c-1.221,4.396-2.75,10.25-1.75,14c0.875,3.28,5.958,10.004,7.217,11.637c-0.092,1.204-0.302,4.986,0.533,6.863c3.25,1.5,21,1.25,24.25,0.25c0.4-2.002,0.32-5.439,0.272-6.733c0.353-1.622,0.826-3.677,1.228-5.017c2.75-4.5,5.75-7.5,5.75-7.5s3,3,5.75,7.5c0.402,1.34,0.875,3.395,1.229,5.017c-0.049,1.294-0.129,4.731,0.271,6.733c3.25,1,21,1.25,24.25-0.25c0.834-1.877,0.625-5.659,0.533-6.863c1.259-1.633,6.342-8.356,7.217-11.637C290.25,371.5,288.721,365.646,287.5,361.25z"></path><g><path style="fill:#505050;" d="M214.658,379c0,0,3.25,6,4,8c2,1.25,7,1.75,10.75,1.5C222.158,385.5,214.658,379,214.658,379z"></path><path style="fill:#505050;" d="M285.342,379c0,0-3.25,6-4,8c-2,1.25-7,1.75-10.75,1.5C277.842,385.5,285.342,379,285.342,379z"></path></g><g><path style="fill:none;stroke:#B2B2B2;stroke-linecap:round;stroke-linejoin:round;stroke-dasharray:1 3;" d="M219.509,390c0,0,4,0.875,12.375,0.875s10.875-1,10.875-1"></path><path style="fill:none;stroke:#B2B2B2;stroke-linecap:round;stroke-linejoin:round;stroke-dasharray:1 3;" d="M280.491,390c0,0-4,0.875-12.375,0.875s-10.875-1-10.875-1"></path></g><path style="fill:#505050;" d="M250.25,370.75c-5.25,0-11.5-1.5-11.5-1.5s5.402,5,6.5,10.5l4.75-6l4.75,6c1.098-5.5,6.5-10.5,6.5-10.5S255.5,370.75,250.25,370.75z"></path><g><g><path style="fill:#6E6E6E;stroke:#000000;stroke-linecap:round;stroke-linejoin:round;" d="M212.764,356.576c-1.315,3.455-2.577,7.829-1.606,10.049c2.25,5.25,4.375,6.5,6.75,7.25c3.375-0.5,7.75-1.25,9-2c0.786-0.472,2.64-6.815,3.75-11.5C223.766,361.203,217.151,361.612,212.764,356.576z"></path><path style="fill:#505050;" d="M214.408,358c0,0-0.5,4.75,4.5,7.25c6.75,0.25,9.25-4,9.25-4L214.408,358z"></path><path style="fill:#6E6E6E;stroke:#000000;stroke-linecap:round;stroke-linejoin:round;" d="M230.53,361.62c0.655-2.765,1.096-5.515,1.003-7.37c-5.125-0.125-11.625-1-14.625-3.75l-2.5,0.75c0,0-1.089,2.181-2.144,4.951C216.652,361.237,223.638,362.448,230.53,361.62z"></path><path style="fill:none;stroke:#B2B2B2;stroke-linecap:round;stroke-linejoin:round;stroke-dasharray:1 3;" d="M213.783,355.375c0,0.375,3.25,3.625,9,4.5s6.75,0.125,6.75,0.125"></path><circle style="fill:#FFBF00;stroke:#000000;stroke-linecap:round;stroke-linejoin:round;" cx="228.091" cy="358.274" r="2.047"></circle></g><g><path style="fill:#6E6E6E;stroke:#000000;stroke-linecap:round;stroke-linejoin:round;" d="M287.236,356.576c1.315,3.455,2.577,7.829,1.605,10.049c-2.25,5.25-4.375,6.5-6.75,7.25c-3.375-0.5-7.75-1.25-9-2c-0.786-0.472-2.64-6.815-3.75-11.5C276.234,361.203,282.849,361.612,287.236,356.576z"></path><path style="fill:#505050;" d="M285.592,358c0,0,0.5,4.75-4.5,7.25c-6.75,0.25-9.25-4-9.25-4L285.592,358z"></path><path style="fill:#6E6E6E;stroke:#000000;stroke-linecap:round;stroke-linejoin:round;" d="M269.471,361.62c-0.655-2.765-1.097-5.515-1.004-7.37c5.125-0.125,11.625-1,14.625-3.75l2.5,0.75c0,0,1.09,2.181,2.145,4.951C283.348,361.237,276.362,362.448,269.471,361.62z"></path><path style="fill:none;stroke:#B2B2B2;stroke-linecap:round;stroke-linejoin:round;stroke-dasharray:1 3;" d="M286.217,355.375c0,0.375-3.25,3.625-9,4.5s-6.75,0.125-6.75,0.125"></path><circle style="fill:#FFBF00;stroke:#000000;stroke-linecap:round;stroke-linejoin:round;" cx="271.909" cy="358.274" r="2.047"></circle></g></g><g><polyline style="fill:none;stroke:#B2B2B2;stroke-linecap:round;stroke-linejoin:round;stroke-dasharray:1 3;" points="248.783,316.773 230.908,316.773 225.408,320.273 "></polyline><polyline style="fill:none;stroke:#B2B2B2;stroke-linecap:round;stroke-linejoin:round;stroke-dasharray:1 3;" points="251.217,316.773 269.092,316.773 274.592,320.273 "></polyline></g><g><g><path style="fill:#6E6E6E;stroke:#000000;stroke-linecap:round;stroke-linejoin:round;" d="M236.908,318.25c0,0,0.5-35.199,1.5-37.199c-1.75-0.5-5.5,1.25-5.5,1.25s-2.75,30.199-2.5,35.949"></path><path style="fill:#B2B2B2;stroke:#000000;stroke-linecap:round;stroke-linejoin:round;" d="M238.378,303.77c0,0.589-0.479,1.066-1.067,1.066h-6.536c-0.589,0-1.066-0.478-1.066-1.066v-0.702c0-0.59,0.478-1.067,1.066-1.067h6.536c0.589,0,1.067,0.478,1.067,1.067V303.77z"></path><path style="fill:#B2B2B2;stroke:#000000;stroke-linecap:round;stroke-linejoin:round;" d="M238.277,309.193c0,0.589-0.478,1.066-1.066,1.066h-6.536c-0.59,0-1.067-0.478-1.067-1.066v-3.001c0-0.59,0.478-1.067,1.067-1.067h6.536c0.589,0,1.066,0.478,1.066,1.067V309.193z"></path></g><g><path style="fill:#6E6E6E;stroke:#000000;stroke-linecap:round;stroke-linejoin:round;" d="M263.092,318.25c0,0-0.5-35.199-1.5-37.199c1.75-0.5,5.5,1.25,5.5,1.25s2.75,30.199,2.5,35.949"></path><path style="fill:#B2B2B2;stroke:#000000;stroke-linecap:round;stroke-linejoin:round;" d="M261.623,303.77c0,0.589,0.478,1.066,1.066,1.066h6.536c0.589,0,1.067-0.478,1.067-1.066v-0.702c0-0.59-0.479-1.067-1.067-1.067h-6.536c-0.589,0-1.066,0.478-1.066,1.067V303.77z"></path><path style="fill:#B2B2B2;stroke:#000000;stroke-linecap:round;stroke-linejoin:round;" d="M261.723,309.193c0,0.589,0.479,1.066,1.066,1.066h6.537c0.589,0,1.066-0.478,1.066-1.066v-3.001c0-0.59-0.478-1.067-1.066-1.067h-6.537c-0.588,0-1.066,0.478-1.066,1.067V309.193z"></path></g></g><g><path style="fill:none;stroke:#000000;stroke-linecap:round;stroke-linejoin:round;" d="M218.408,386.625c0,0,1.25,0.625,3.625,1.625"></path><path style="fill:none;stroke:#000000;stroke-linecap:round;stroke-linejoin:round;" d="M281.592,386.625c0,0-1.25,0.625-3.625,1.625"></path></g><g><path style="fill:none;stroke:#000000;stroke-linecap:round;stroke-linejoin:round;" d="M240.908,370.85c0,0,2.625,3.5,9,3.5"></path><path style="fill:none;stroke:#000000;stroke-linecap:round;stroke-linejoin:round;" d="M259.092,370.85c0,0-2.625,3.5-9,3.5"></path></g><g><path style="fill:#6E6E6E;stroke:#000000;stroke-linecap:round;stroke-linejoin:round;" d="M266.5,328.25h-33c0,0-1.25,15.412,0.25,18.186c1.5,2.774,31,2.774,32.5,0C267.75,343.662,266.5,328.25,266.5,328.25z"></path><rect x="242.101" y="333.478" style="fill:#6E6E6E;stroke:#000000;stroke-linecap:round;stroke-linejoin:round;" width="15.799" height="3.045"></rect><path style="fill:none;stroke:#B2B2B2;stroke-linecap:round;stroke-linejoin:round;stroke-dasharray:1 3;" d="M263.598,330.509h-27.195c0,0-1.03,11.977,0.206,14.132c1.237,2.156,25.547,2.156,26.783,0C264.628,342.485,263.598,330.509,263.598,330.509z"></path><g><circle style="fill:#FFBF00;stroke:#000000;stroke-linecap:round;stroke-linejoin:round;" cx="236.341" cy="331.274" r="2.047"></circle><circle style="fill:#FFBF00;stroke:#000000;stroke-linecap:round;stroke-linejoin:round;" cx="236.341" cy="344.774" r="2.047"></circle><circle style="fill:#FFBF00;stroke:#000000;stroke-linecap:round;stroke-linejoin:round;" cx="263.659" cy="331.274" r="2.047"></circle><circle style="fill:#FFBF00;stroke:#000000;stroke-linecap:round;stroke-linejoin:round;" cx="263.659" cy="344.774" r="2.047"></circle></g></g></g></g></svg>