<svg xmlns="http://www.w3.org/2000/svg" width="500" height="500" version="1.1"><g id="x115"><g><path style="fill:#6E6E6E;stroke:#000000;stroke-linecap:round;stroke-linejoin:round;" d="M271.375,298C265,295.375,250,295.625,250,295.625s-15-0.25-21.375,2.375c-1.75,2.25-1.875,5.25-1.875,5.25h46.5C273.25,303.25,273.125,300.25,271.375,298z"></path><g><path style="fill:#6E6E6E;stroke:#000000;stroke-linecap:round;stroke-linejoin:round;" d="M277.334,332.333c-0.334-1.334-3.334-28-4.334-30c-3.668-2-23-1.666-23-1.666s-19.333-0.334-23,1.666c-1,2-4,28.666-4.333,30s-13,43.667-13,43.667s8.333,9,40.333,9s40.334-9,40.334-9S277.666,333.667,277.334,332.333z"></path><g><path style="fill:#505050;" d="M259.813,344.801l1.25,39.25c0,0,4.25,0.125,5-0.625C263.438,374.426,259.813,344.801,259.813,344.801z"></path><path style="fill:#505050;" d="M273.938,343.375l5.5,37.375c0,0,3.75-0.875,4.625-1.625C281.563,372.875,273.938,343.375,273.938,343.375z"></path><path style="fill:#505050;" d="M240.188,344.801l-1.25,39.25c0,0-4.25,0.125-5-0.625C236.563,374.426,240.188,344.801,240.188,344.801z"></path><path style="fill:#505050;" d="M226.063,343.375l-5.5,37.375c0,0-3.75-0.875-4.625-1.625C218.438,372.875,226.063,343.375,226.063,343.375z"></path></g><g><line style="fill:none;stroke:#000000;stroke-linecap:round;stroke-linejoin:round;" x1="217.75" y1="380" x2="226.5" y2="343"></line><path style="fill:none;stroke:#000000;stroke-linecap:round;stroke-linejoin:round;" d="M235.25,384.25c0-0.75,5-40.5,5-40.5"></path><line style="fill:none;stroke:#000000;stroke-linecap:round;stroke-linejoin:round;" x1="273.5" y1="343" x2="282.25" y2="380"></line><path style="fill:none;stroke:#000000;stroke-linecap:round;stroke-linejoin:round;" d="M264.75,384.25c0-0.75-5-40.5-5-40.5"></path></g></g></g></g></svg>