<svg xmlns="http://www.w3.org/2000/svg" width="500" height="500" version="1.1"><g id="x116"><g><g><path style="fill:#FFFFFF;stroke:#000000;stroke-linecap:round;stroke-linejoin:round;" d="M225.142,303.333c0,0-0.667-3.334,0-5.167c-0.167-1.5-1-2.999-0.833-3.666s2-3.334,2-3.334s-0.667-3.834-0.333-5.5s1-2.833,1-2.833l2.5,1.833l-0.5,17.667L225.142,303.333z"></path><path style="fill:#FFFFFF;stroke:#000000;stroke-linecap:round;stroke-linejoin:round;" d="M235.375,282c0,0,0.6-1,3.1-2c1,1.667-0.167,5.166-0.1,5.5c-0.833,1.5-1.9,3.666-1.9,4c-0.333,1.5,0.833,4.5,0.5,5.5s-2.267,6.166-2.267,6.166l-3.833,1L235.375,282z"></path><path style="fill:#6E6E6E;stroke:#000000;stroke-linecap:round;stroke-linejoin:round;" d="M235.642,281.666c0,0-2.834,16.5-2.167,19.5c-3.333,0.334-7,1.667-7,1.667s1-13.001,3-18.167C231.142,282.833,235.642,281.666,235.642,281.666z"></path></g><g><path style="fill:#FFFFFF;stroke:#000000;stroke-linecap:round;stroke-linejoin:round;" d="M274.857,303.333c0,0,0.666-3.334,0-5.167c0.166-1.5,1-2.999,0.834-3.666s-2-3.334-2-3.334s0.666-3.834,0.334-5.5c-0.334-1.666-1-2.833-1-2.833l-2.5,1.833l0.5,17.667L274.857,303.333z"></path><path style="fill:#FFFFFF;stroke:#000000;stroke-linecap:round;stroke-linejoin:round;" d="M264.625,282c0,0-0.6-1-3.1-2c-1,1.667,0.166,5.166,0.1,5.5c0.832,1.5,1.9,3.666,1.9,4c0.332,1.5-0.834,4.5-0.5,5.5c0.332,1,2.266,6.166,2.266,6.166l3.834,1L264.625,282z"></path><path style="fill:#6E6E6E;stroke:#000000;stroke-linecap:round;stroke-linejoin:round;" d="M264.357,281.666c0,0,2.834,16.5,2.168,19.5c3.332,0.334,7,1.667,7,1.667s-1-13.001-3-18.167C268.857,282.833,264.357,281.666,264.357,281.666z"></path></g></g><g><path style="fill:#FFFFFF;stroke:#000000;stroke-linecap:round;stroke-linejoin:round;" d="M289.095,364.044L250,372.805l-39.095-8.761c0,0-4.213,3.679-6.572,11.389c4.213,3.855,9.437,2.453,11.628,4.205c2.19,1.753,7.077,3.154,10.278,2.628c0.675-0.7,3.876,1.403,3.876,1.403s3.707,4.38,13.818,3.153c1.685-0.701,6.066-0.701,6.066-0.701s4.38,0,6.065,0.701c10.111,1.227,13.819-3.153,13.819-3.153s3.2-2.104,3.875-1.403c3.202,0.526,8.088-0.875,10.278-2.628c2.192-1.752,7.416-0.35,11.629-4.205C293.308,367.723,289.095,364.044,289.095,364.044z"></path><g><path style="fill:#6E6E6E;stroke:#000000;stroke-linecap:round;stroke-linejoin:round;" d="M289.095,360.189L250,368.95l-39.095-8.761c0,0-4.213,3.679-6.572,11.389c4.213,3.855,9.437,2.453,11.627,4.206c2.191,1.752,7.078,3.153,10.279,2.628c0.675-0.7,3.876,1.402,3.876,1.402s3.707,4.381,13.818,3.154c1.685-0.701,6.066-0.701,6.066-0.701s4.38,0,6.065,0.701c10.111,1.227,13.819-3.154,13.819-3.154s3.2-2.103,3.875-1.402c3.202,0.525,8.088-0.876,10.28-2.628c2.19-1.753,7.414-0.351,11.627-4.206C293.308,363.868,289.095,360.189,289.095,360.189z"></path><g><path style="fill:#505050;" d="M215.664,375c0,0,1.603,1.333,4.969,2.333c0.16-3.5,1.122-10.833,0.16-10.333C219.832,367.5,215.664,375,215.664,375z"></path><path style="fill:#505050;" d="M284.335,375c0,0-1.604,1.333-4.97,2.333c-0.159-3.5-1.121-10.833-0.159-10.333S284.335,375,284.335,375z"></path></g><g style="opacity:0.4;"><path style="fill:#FFFFFF;" d="M278.824,375.472c0.524,0.524,0.804,1.201,0.838,1.888c-1.74,0.656-5.053,0.734-5.716,0.563c-0.127-0.867,0.144-1.782,0.812-2.45C275.881,374.349,277.701,374.349,278.824,375.472z"></path><circle style="fill:#FFFFFF;" cx="283.685" cy="370.61" r="2.875"></circle><path style="fill:#FFFFFF;" d="M288.547,361.683c-1.123,1.123-1.123,2.943,0,4.066c1.122,1.123,2.942,1.123,4.065,0c0.014-0.014,0.022-0.029,0.035-0.043l-3.114-4.665C289.174,361.181,288.837,361.393,288.547,361.683z"></path><circle style="fill:#FFFFFF;" cx="263.179" cy="377.681" r="2.875"></circle><circle style="fill:#FFFFFF;" cx="270.073" cy="370.787" r="2.875"></circle><circle style="fill:#FFFFFF;" cx="249.566" cy="377.858" r="2.876"></circle><circle style="fill:#FFFFFF;" cx="256.461" cy="370.964" r="2.875"></circle><circle style="fill:#FFFFFF;" cx="235.952" cy="378.035" r="2.875"></circle><circle style="fill:#FFFFFF;" cx="242.847" cy="371.141" r="2.875"></circle><path style="fill:#FFFFFF;" d="M224.374,376.179c0.511,0.512,0.79,1.168,0.835,1.836c-1.506,0.079-4.178-0.358-5.537-0.874c0.14-0.351,0.352-0.679,0.636-0.962C221.431,375.056,223.251,375.056,224.374,376.179z"></path><circle style="fill:#FFFFFF;" cx="229.235" cy="371.317" r="2.875"></circle><circle style="fill:#FFFFFF;" cx="215.623" cy="371.494" r="2.875"></circle><path style="fill:#FFFFFF;" d="M209.815,362.049c0.411,0.137,0.796,0.368,1.123,0.695c1.123,1.122,1.123,2.942,0,4.065c-1.123,1.123-2.943,1.123-4.066,0c-0.023-0.023-0.045-0.047-0.067-0.07C207.578,365.313,208.5,363.797,209.815,362.049z"></path></g></g></g><path style="fill:#6E6E6E;stroke:#000000;stroke-linecap:round;stroke-linejoin:round;" d="M275.667,328c-1-3.333-1.668-19.5-2.168-22.667c-0.164-1.048-0.531-2.368-0.947-3.667h-45.104c-0.416,1.299-0.782,2.619-0.948,3.667c-0.5,3.167-1.167,19.334-2.167,22.667s-11,17.5-12.666,34.333c7.5,4.833,28.5,9,38.333,9s30.833-4.167,38.333-9C286.667,345.5,276.667,331.333,275.667,328z"></path><g style="opacity:0.3;"><circle style="fill:#FFFFFF;" cx="270.25" cy="357.175" r="2.875"></circle><circle style="fill:#FFFFFF;" cx="277.145" cy="350.281" r="2.875"></circle><path style="fill:#FFFFFF;" d="M283.855,346.256c-0.674-0.043-1.335-0.321-1.85-0.836c-1.072-1.072-1.121-2.782-0.145-3.911C281.907,341.456,283,344.188,283.855,346.256z"></path><circle style="fill:#FFFFFF;" cx="263.533" cy="350.458" r="2.875"></circle><circle style="fill:#FFFFFF;" cx="270.427" cy="343.563" r="2.875"></circle><path style="fill:#FFFFFF;" d="M278.064,333.892c0.436,0.608,1.539,2.921,1.945,3.799c-0.14,0.369-0.358,0.715-0.655,1.012c-1.123,1.123-2.943,1.123-4.066,0s-1.123-2.943,0-4.066C276.04,333.884,277.105,333.636,278.064,333.892z"></path><circle style="fill:#FFFFFF;" cx="263.709" cy="336.846" r="2.875"></circle><circle style="fill:#FFFFFF;" cx="270.604" cy="329.952" r="2.875"></circle><circle style="fill:#FFFFFF;" cx="229.412" cy="357.706" r="2.875"></circle><circle style="fill:#FFFFFF;" cx="236.306" cy="350.811" r="2.875"></circle><circle style="fill:#FFFFFF;" cx="270.78" cy="316.34" r="2.875"></circle><circle style="fill:#FFFFFF;" cx="222.694" cy="350.988" r="2.875"></circle><circle style="fill:#FFFFFF;" cx="229.589" cy="344.094" r="2.875"></circle><circle style="fill:#FFFFFF;" cx="236.483" cy="337.2" r="2.875"></circle><path style="fill:#FFFFFF;" d="M217.872,342.108c0.047,0.041,0.093,0.084,0.138,0.129c1.123,1.123,1.123,2.943,0,4.066c-0.599,0.599-1.395,0.878-2.179,0.838C216.208,346,217.417,343.208,217.872,342.108z"></path><path style="fill:#FFFFFF;" d="M221.386,334.913c1.106-0.667,2.564-0.523,3.518,0.431c1.123,1.122,1.123,2.942,0,4.065c-1.123,1.123-2.943,1.123-4.066,0c-0.492-0.492-0.769-1.118-0.829-1.762C220.188,337.313,221.146,335.188,221.386,334.913z"></path><circle style="fill:#FFFFFF;" cx="229.765" cy="330.482" r="2.875"></circle><circle style="fill:#FFFFFF;" cx="229.942" cy="316.87" r="2.875"></circle></g><g><g><path style="fill:#FFFFFF;stroke:#000000;stroke-linecap:round;stroke-linejoin:round;" d="M245.021,308.833h-6.066c-0.374,1.736-1.124,5.71-0.479,7c0.833,0.833,0.833,0.833,0.833,0.833v2.167c0,0-1,1-1.167,2.5s-0.333,5.501,0.167,6.167c0.833,0.5,1.167,1,1.167,1c-0.333,1.333-0.521,1.5-0.521,1.5c-0.374,1.736-1.124,5.71-0.479,7c0.833,0.833,0.833,0.833,0.833,0.833V340c0,0-1,1-1.167,2.5s-0.333,5.501,0.167,6.167c0.833,0.5,1.167,1,1.167,1c-0.333,1.333-0.521,1.5-0.521,1.5c-0.374,1.736-1.124,5.71-0.479,7c0.833,0.833,0.833,0.833,0.833,0.833v2.167c0,0-0.571,0.573-0.922,1.501h7.241L245.021,308.833z"></path><g><path style="fill:#C7D1D6;" d="M239.745,340.417c0.083-0.25,0-2.916,0-2.916s4.167,0.666,4.583,1.5S239.745,340.417,239.745,340.417z"></path><path style="fill:#C7D1D6;" d="M238.495,348.251c0,0,1.334,0.832,1.417,1.416s-0.583,1.917-0.583,1.917s4.083-0.333,4.333-1.833C243.495,348.917,238.495,348.251,238.495,348.251z"></path></g><path style="fill:#FFFFFF;stroke:#000000;stroke-linecap:round;stroke-linejoin:round;" d="M254.979,308.833h6.066c0.373,1.736,1.125,5.71,0.479,7c-0.832,0.833-0.832,0.833-0.832,0.833v2.167c0,0,1,1,1.166,2.5s0.334,5.501-0.166,6.167c-0.834,0.5-1.168,1-1.168,1c0.334,1.333,0.521,1.5,0.521,1.5c0.373,1.736,1.125,5.71,0.479,7c-0.832,0.833-0.832,0.833-0.832,0.833V340c0,0,1,1,1.166,2.5s0.334,5.501-0.166,6.167c-0.834,0.5-1.168,1-1.168,1c0.334,1.333,0.521,1.5,0.521,1.5c0.373,1.736,1.125,5.71,0.479,7C260.691,359,260.691,359,260.691,359v2.167c0,0,0.57,0.573,0.922,1.501h-7.242L254.979,308.833z"></path><g><path style="fill:#C7D1D6;" d="M260.253,340.417c-0.084-0.25,0-2.916,0-2.916s-4.168,0.666-4.584,1.5S260.253,340.417,260.253,340.417z"></path><path style="fill:#C7D1D6;" d="M261.503,348.251c0,0-1.334,0.832-1.418,1.416c-0.082,0.584,0.584,1.917,0.584,1.917s-4.084-0.333-4.334-1.833C256.503,348.917,261.503,348.251,261.503,348.251z"></path></g></g><path style="fill:#FFFFFF;stroke:#000000;stroke-linecap:round;stroke-linejoin:round;" d="M256.201,302.333h-12.402c0,0,1.012,30.945,1.251,34.972c-0.239,3.75-1.251,33.528-1.251,33.528h12.402c0,0-1.012-29.778-1.252-33.528C255.189,333.278,256.201,302.333,256.201,302.333z"></path><g><circle style="fill:#6E6E6E;stroke:#000000;stroke-linecap:round;stroke-linejoin:round;" cx="250" cy="314.667" r="2"></circle><circle style="fill:#6E6E6E;stroke:#000000;stroke-linecap:round;stroke-linejoin:round;" cx="250" cy="327.167" r="2"></circle><circle style="fill:#6E6E6E;stroke:#000000;stroke-linecap:round;stroke-linejoin:round;" cx="250" cy="339.667" r="2"></circle><circle style="fill:#6E6E6E;stroke:#000000;stroke-linecap:round;stroke-linejoin:round;" cx="250" cy="352.167" r="2"></circle></g></g><path style="fill:#FFFFFF;stroke:#000000;stroke-linecap:round;stroke-linejoin:round;" d="M275.166,302.042c-0.834-0.968-3.166-0.001-4.166-0.388c-1-0.386-5.002-2.514-7.668-2.319c-2.666,0.193-6.166,1.354-7.832,1.354c-1.668,0-5.5-0.967-5.5-0.967s-3.833,0.967-5.5,0.967s-5.167-1.16-7.833-1.354c-2.667-0.194-6.667,1.934-7.667,2.319c-1,0.387-3.333-0.58-4.167,0.388c-0.333,1.547,0.5,4.832,0.5,4.832c-1,3.287-0.5,6.959,0,6.959s1.833-1.546,4-3.286c1.167,0,6-0.854,7.333-1.047s4.5-0.112,6.667,0.273c2.167,0.387,6.667-1.74,6.667-1.74s4.5,2.127,6.666,1.74c2.166-0.386,5.332-0.466,6.666-0.273s6.166,1.047,7.334,1.047c2.166,1.74,3.5,3.286,4,3.286s1-3.672,0-6.959C274.666,306.874,275.5,303.589,275.166,302.042z"></path><path style="fill:#6E6E6E;stroke:#000000;stroke-linecap:round;stroke-linejoin:round;" d="M275.877,307.143c-0.148-0.521-0.354-1.236-7.99-2.381c-5.359-0.804-11.701-1.306-17.886-1.422l0,0h0l0,0c-6.186,0.116-12.528,0.618-17.887,1.422c-7.637,1.145-7.841,1.859-7.99,2.381c-0.152,0.531,0.156,1.084,0.687,1.236c0.527,0.15,10-2.839,25.19-3.039c15.189,0.2,24.662,3.189,25.189,3.039C275.721,308.227,276.029,307.674,275.877,307.143z"></path><g><path style="fill:#FFFFFF;stroke:#000000;stroke-linecap:round;stroke-linejoin:round;" d="M287.123,353.167l-0.163,0.334c-2.421,0.167-5.583,1.991-10.329,4c-9.845,4.166-26.631,3.833-26.631,3.833s-16.786,0.333-26.631-3.833c-4.747-2.009-7.908-3.833-10.329-4l-0.162-0.334c0,0-3.712,6.001-3.712,8.834c1.453,0.166,9.199,3,10.491,3.833c1.291,0.833,10.33,4.667,18.562,5c2.902,0.117,9.199,0.501,11.782-0.333c2.582,0.834,8.878,0.45,11.781,0.333c8.232-0.333,17.271-4.167,18.563-5c1.29-0.833,9.037-3.667,10.49-3.833C290.834,359.168,287.123,353.167,287.123,353.167z"></path><path style="fill:#6E6E6E;stroke:#000000;stroke-linecap:round;stroke-linejoin:round;" d="M289.356,357.276c-0.121-0.538-0.639-0.874-1.161-0.75c-0.176,0.042-4.375,1.062-10.221,4.08c-5.614,2.898-15.811,4.561-27.975,4.561s-22.36-1.662-27.974-4.561c-5.847-3.019-10.046-4.038-10.222-4.08c-0.521-0.124-1.042,0.212-1.162,0.75c-0.12,0.538,0.205,1.075,0.726,1.199c0,0,0,0,0,0c0.041,0.01,4.168,1.017,9.792,3.92c5.873,3.032,16.385,4.771,28.84,4.771s22.966-1.739,28.841-4.771c5.623-2.903,9.75-3.91,9.792-3.92c-0.002,0-0.002,0-0.002,0C289.152,358.352,289.478,357.814,289.356,357.276z"></path></g><g><g><g><path style="fill:#FFFFFF;stroke:#000000;stroke-linecap:round;stroke-linejoin:round;" d="M236.95,310.412c0,0-2.56,2.703-3.129,3.982c-0.569,1.28-0.711,2.845-1.209,3.485c-0.498,0.64-1.707,2.063-2.134,3.556s-0.64,2.916-0.64,2.916s1.778-0.641,2.987-0.214s9.601,5.121,10.027,5.832c1.351-0.711,3.485-1.92,3.769-3.343c0.071-0.711,0.711-3.556,1.352-5.049c0.64-1.494,0.142-3.627,0.355-4.836s1.494-5.975,1.494-5.975l-0.925-2.347L236.95,310.412z"></path><path style="fill:#6E6E6E;stroke:#000000;stroke-linecap:round;stroke-linejoin:round;" d="M246.427,309.509c-0.246,0.735,0.246,14.717-4.906,18.887c-3.188-2.698-9.565-4.415-9.565-4.415l6.867-14.226L246.427,309.509z"></path></g><g><path style="fill:#FFFFFF;stroke:#000000;stroke-linecap:round;stroke-linejoin:round;" d="M263.05,310.412c0,0,2.561,2.703,3.129,3.982c0.569,1.28,0.712,2.845,1.209,3.485c0.498,0.64,1.707,2.063,2.134,3.556s0.641,2.916,0.641,2.916s-1.778-0.641-2.987-0.214s-9.601,5.121-10.027,5.832c-1.352-0.711-3.485-1.92-3.77-3.343c-0.071-0.711-0.711-3.556-1.352-5.049c-0.64-1.494-0.142-3.627-0.355-4.836c-0.213-1.209-1.493-5.975-1.493-5.975l0.925-2.347L263.05,310.412z"></path><path style="fill:#6E6E6E;stroke:#000000;stroke-linecap:round;stroke-linejoin:round;" d="M253.572,309.509c0.246,0.735-0.245,14.717,4.906,18.887c3.188-2.698,9.565-4.415,9.565-4.415l-6.867-14.226L253.572,309.509z"></path></g></g><g><g><g><path style="fill:#FFFFFF;stroke:#000000;stroke-linecap:round;stroke-linejoin:round;" d="M248.35,300.93c0,0-0.854-3.82-1.612-4.199c-0.758-0.379-3.318-0.542-3.792-1.016c-1.327-0.568-3.507-2.372-4.836-1.991c-1.328,0.379-3.983,0.947-3.983,0.947s-3.982-1.327-4.362,0.569c1.138,1.706,2.75,3.225,2.75,3.225L248.35,300.93z"></path><path style="fill:#FFFFFF;stroke:#000000;stroke-linecap:round;stroke-linejoin:round;" d="M248.16,309.559c0,0-0.664,4.077-1.422,4.456s-1.423,0.569-2.75,1.139c-1.328,0.568-3.224,1.991-4.552,1.612c-1.328-0.379-4.457-1.612-4.457-1.612s-3.887,0.874-5.689-1.518c1.138-1.707,3.982-3.529,3.982-3.529L248.16,309.559z"></path></g><g><path style="fill:#FFFFFF;stroke:#000000;stroke-linecap:round;stroke-linejoin:round;" d="M251.652,300.93c0,0,0.855-3.82,1.613-4.199s3.318-0.542,3.791-1.016c1.327-0.568,3.509-2.372,4.837-1.991c1.328,0.379,3.982,0.947,3.982,0.947s3.982-1.327,4.362,0.569c-1.138,1.706-2.749,3.225-2.749,3.225L251.652,300.93z"></path><path style="fill:#FFFFFF;stroke:#000000;stroke-linecap:round;stroke-linejoin:round;" d="M251.842,309.559c0,0,0.664,4.077,1.423,4.456s1.424,0.569,2.75,1.139c1.327,0.568,3.224,1.991,4.552,1.612s4.456-1.612,4.456-1.612s3.887,0.874,5.689-1.518c-1.138-1.707-3.981-3.529-3.981-3.529L251.842,309.559z"></path></g></g><g><path style="fill:#6E6E6E;stroke:#000000;stroke-linecap:round;stroke-linejoin:round;" d="M250.981,301.415c0,0,9.321-6.868,16.923-2.698c-0.735,5.642,0,12.264,0,12.264s-2.697,2.208-6.377,1.962c-3.679-0.244-11.282-3.434-11.282-3.434L250.981,301.415z"></path><path style="fill:#505050;" d="M253.216,307.313c0,0,0.313-2.875,0.063-3.813c1.563-0.125,4.063,1.125,4.188,1.625S255.716,306.813,253.216,307.313z"></path><path style="fill:#6E6E6E;stroke:#000000;stroke-linecap:round;stroke-linejoin:round;" d="M249.019,301.415c0,0-9.321-6.868-16.925-2.698c0.736,5.642,0,12.264,0,12.264s2.699,2.208,6.377,1.962c3.68-0.244,11.283-3.434,11.283-3.434L249.019,301.415z"></path><g><path style="fill:#505050;" d="M246.784,307.313c0,0-0.313-2.875-0.063-3.813c-1.563-0.125-4.063,1.125-4.188,1.625S244.284,306.813,246.784,307.313z"></path></g><path style="fill:#6E6E6E;stroke:#000000;stroke-linecap:round;stroke-linejoin:round;" d="M247.914,300.802c0,0-0.858,1.596-0.858,4.415c0,2.479,1.104,4.414,1.104,4.414l3.679,0.124c0,0,1.473-2.406,1.473-5.028c0-2.576-0.736-3.802-0.736-3.802L247.914,300.802z"></path></g></g></g></g></svg>