<svg xmlns="http://www.w3.org/2000/svg" width="500" height="500" version="1.1"><g id="x117"><g><path style="fill:#6E6E6E;stroke:#000000;stroke-linecap:round;stroke-linejoin:round;" d="M285.019,353.1c-2.794-14.975-9.092-23.063-9.352-24.1c-0.334-1.334-1-12-1.666-17.333c-0.667-5.333-1.667-10-3.334-14c1-2,3-10,3-10s-2.666-4-7.666-5c-1.667,9.667-16.334,10.667-16.334,10.667s-14.667-1-16.333-10.667c-5,1-7.667,5-7.667,5s2,8,3,10c-1.667,4-2.667,8.667-3.333,14S224,327.666,223.667,329c-0.188,0.755-14.333,29.334-12.333,46.667C224,381.667,242.666,384,250,383s25-9,36.667-5.333C288.333,370.667,286.743,357.461,285.019,353.1z"></path><g><path style="fill:none;stroke:#000000;stroke-linecap:round;stroke-linejoin:round;" d="M230,284.333c0,0,1.833,12.5,20.167,12.5"></path><path style="fill:none;stroke:#000000;stroke-linecap:round;stroke-linejoin:round;" d="M270,284.333c0,0-1.834,12.5-20.167,12.5"></path></g><path style="fill:#505050;" d="M231,363c0,0,6.334,13.667,20.667,18.667c5.667-1.333,10.667-3.667,10.667-3.667S239,371.666,231,363z"></path><path style="fill:#505050;" d="M235.667,341.333c3-0.333,7,3.001,14,3.667s14-5,14-5s-0.993,12.518-13.666,12C233.667,351.333,232.667,341.666,235.667,341.333z"></path><g><g><circle style="fill:#FFFFFF;stroke:#000000;stroke-linecap:round;stroke-linejoin:round;" cx="239.229" cy="313.647" r="3.875"></circle><circle style="fill:#FFFFFF;stroke:#000000;stroke-linecap:round;stroke-linejoin:round;" cx="260.771" cy="313.647" r="3.875"></circle></g><g><circle style="fill:#C7D1D6;stroke:#000000;stroke-linecap:round;stroke-linejoin:round;" cx="239.229" cy="330.485" r="3.875"></circle><circle style="fill:#C7D1D6;stroke:#000000;stroke-linecap:round;stroke-linejoin:round;" cx="260.771" cy="330.485" r="3.875"></circle></g></g><path style="fill:none;stroke:#000000;stroke-linecap:round;stroke-linejoin:round;" d="M228.667,359c0,0,7,16.334,20,21.334"></path><g><g><path style="fill:#FFFFFF;stroke:#000000;stroke-linecap:round;stroke-linejoin:round;" d="M275.779,341.307c0,0-5.287-6.938-6.939-4.295c-1.652,2.644-3.303,11.563-0.66,10.903c3.965-0.992,6.938-3.636,6.938-3.636L275.779,341.307z"></path><path style="fill:#FFFFFF;stroke:#000000;stroke-linecap:round;stroke-linejoin:round;" d="M278.4,341.924c0,0,7.586-4.302,8.068-1.222c0.48,3.079-1.508,11.931-3.68,10.283c-3.254-2.47-4.949-6.068-4.949-6.068L278.4,341.924z"></path><path style="fill:#FFFFFF;stroke:#000000;stroke-linecap:round;stroke-linejoin:round;" d="M278.752,341.307c0,0-1.322-0.99-3.635-0.99c-0.33,2.313,0,3.963,0,3.963s0.662,0.993,2.643,0.663C279.742,344.611,278.752,341.307,278.752,341.307z"></path></g><g><path style="fill:#FFFFFF;stroke:#000000;stroke-linecap:round;stroke-linejoin:round;" d="M224.22,341.307c0,0,5.287-6.938,6.939-4.295c1.652,2.644,3.303,11.563,0.66,10.903c-3.965-0.992-6.938-3.636-6.938-3.636L224.22,341.307z"></path><path style="fill:#FFFFFF;stroke:#000000;stroke-linecap:round;stroke-linejoin:round;" d="M221.599,341.924c0,0-7.586-4.302-8.068-1.222c-0.479,3.079,1.509,11.931,3.68,10.283c3.255-2.47,4.95-6.068,4.95-6.068L221.599,341.924z"></path><path style="fill:#FFFFFF;stroke:#000000;stroke-linecap:round;stroke-linejoin:round;" d="M221.248,341.307c0,0,1.322-0.99,3.635-0.99c0.33,2.313,0,3.963,0,3.963s-0.662,0.993-2.643,0.663C220.257,344.611,221.248,341.307,221.248,341.307z"></path></g></g></g></g></svg>