<svg xmlns="http://www.w3.org/2000/svg" width="500" height="500" version="1.1"><g id="x118"><g><g><g><path style="fill:#6E6E6E;stroke:#000000;stroke-linecap:round;stroke-linejoin:round;" d="M226.625,311.25c0,0-9.75-3-11.25-5.75c0-1.25,1.75-3.75,1.75-3.75s-1-3.75-0.25-4.25s2.25-1,2.25-1s2.75-8,4.5-9s7-3.199,7-3.199l4,8.199L226.625,311.25z"></path><path style="fill:#505050;" d="M228.292,298c0,0-3.666,1.499-4.333,3.166s-0.167,7,1,8.667C226.458,305.5,228.292,298,228.292,298z"></path><path style="fill:none;stroke:#000000;stroke-linecap:round;stroke-linejoin:round;" d="M223.458,299.333c0,0,0.5,3.334,3.667,7.167"></path></g><g><path style="fill:#6E6E6E;stroke:#000000;stroke-linecap:round;stroke-linejoin:round;" d="M273.375,311.25c0,0,9.75-3,11.25-5.75c0-1.25-1.75-3.75-1.75-3.75s1-3.75,0.25-4.25s-2.25-1-2.25-1s-2.75-8-4.5-9s-7-3.199-7-3.199l-4,8.199L273.375,311.25z"></path><path style="fill:#505050;" d="M271.709,298c0,0,3.666,1.499,4.332,3.166c0.668,1.667,0.167,7-1,8.667C273.541,305.5,271.709,298,271.709,298z"></path><path style="fill:none;stroke:#000000;stroke-linecap:round;stroke-linejoin:round;" d="M276.541,299.333c0,0-0.5,3.334-3.666,7.167"></path></g></g><g><g><path style="fill:#6E6E6E;stroke:#000000;stroke-linecap:round;stroke-linejoin:round;" d="M275.75,328c0-1.75,0.5-3.75,0.5-3.75l-3.5-1.75c0,0-18.75,8-22.75,7.5c-4,0.5-22.75-7.5-22.75-7.5l-3.5,1.75c0,0,0.5,2,0.5,3.75c-4.75,3.25-13.5,28.5-13.5,28.5s1,2,3.5,3.5s10,2,10.75,2s1.5,0.25,4.5,2.25c5.25,3.5,20.5,2.5,20.5,2.5s15.25,1,20.5-2.5c3-2,3.75-2.25,4.5-2.25s8.25-0.5,10.75-2s3.5-3.5,3.5-3.5S280.5,331.25,275.75,328z"></path><path style="fill:#6E6E6E;stroke:#000000;stroke-linecap:round;stroke-linejoin:round;" d="M273.75,305c-1.25-5-6.25-16.75-6.25-16.75l-13.5,5l-4.25,4.75l-4.25-4.75l-13.5-5c0,0-5,11.75-6.25,16.75s-0.5,13.25-0.5,19.25c4.25,7.25,24.5,6.5,24.5,6.5s20.25,0.75,24.5-6.5C274.25,318.25,275,310,273.75,305z"></path></g></g></g></g></svg>