<svg xmlns="http://www.w3.org/2000/svg" width="500" height="500" version="1.1"><g id="x119"><g><g><path style="fill:#6E6E6E;stroke:#000000;stroke-linecap:round;stroke-linejoin:round;" d="M229,285.417c0,0-3,21.167-3.333,23.5s-0.917,10.416-1.167,16.583c-0.667,1.167-6.833,11.167-7.667,13.834c4.833,8.833,20.5,13.5,20.5,13.5L250,326.667c0,0-15-4.166-18.167-8.166c-1.417-11.834-1.75-23.418,0.583-35.251C230.917,283.75,229.333,285.083,229,285.417z"></path><path style="fill:#6E6E6E;stroke:#000000;stroke-linecap:round;stroke-linejoin:round;" d="M271,285.417c0,0,3,21.167,3.334,23.5s0.916,10.416,1.166,16.583c0.666,1.167,6.834,11.167,7.666,13.834c-4.832,8.833-20.5,13.5-20.5,13.5L250,326.667c0,0,15-4.166,18.166-8.166c1.418-11.834,1.752-23.418-0.582-35.251C269.084,283.75,270.666,285.083,271,285.417z"></path></g><g><rect x="244.833" y="327.698" style="fill:#FFBF00;stroke:#000000;stroke-linecap:round;stroke-linejoin:round;" width="10.334" height="1.833"></rect><g><circle style="fill:#FFBF00;stroke:#000000;stroke-linecap:round;stroke-linejoin:round;" cx="244.833" cy="328.75" r="2.417"></circle><circle style="fill:#FFBF00;stroke:#000000;stroke-linecap:round;stroke-linejoin:round;" cx="255.167" cy="328.75" r="2.416"></circle></g></g></g></g></svg>