<svg xmlns="http://www.w3.org/2000/svg" width="500" height="500" version="1.1"><g id="x012"><g><path style="fill:#FFFFFF;stroke:#000000;stroke-linecap:round;stroke-linejoin:round;" d="M236.867,281.667c0,0-3.167,16.5-3,19.5c-2.167,0.834-3.134,0.166-3.134,0.166s0.634-12,3.967-19.5C235.534,281.5,236.867,281.667,236.867,281.667z"></path><path style="fill:#FFFFFF;stroke:#000000;stroke-linecap:round;stroke-linejoin:round;" d="M263.035,281.667c0,0,3.166,16.5,3,19.5c2.166,0.834,3.231,0.166,3.231,0.166s-0.731-12-4.065-19.5C264.368,281.5,263.035,281.667,263.035,281.667z"></path></g><g><path style="fill:#FFFFFF;stroke:#000000;stroke-linecap:round;stroke-linejoin:round;" d="M267.578,304.5c3.622,0,5.936,2.381,7.098,4.01c-0.101-0.928-0.265-1.846-0.509-2.677c-1.091-3.709-4.667-6.332-10.667-4.666S250,313.75,250,313.75s-7.5-10.917-13.5-12.583s-9.577,0.957-10.667,4.666c-0.244,0.831-0.408,1.749-0.509,2.677c1.163-1.629,3.476-4.01,7.098-4.01c9,0,17.25,10.833,17.25,10.833s-0.015,0.092-0.053,0.251c0.246-0.153,0.381-0.251,0.381-0.251s0.136,0.098,0.381,0.251c-0.038-0.159-0.053-0.251-0.053-0.251S258.578,304.5,267.578,304.5z"></path><path style="fill:#6E6E6E;stroke:#000000;stroke-linecap:round;stroke-linejoin:round;" d="M232.422,304.5c-3.622,0-5.935,2.381-7.098,4.01c-0.243,2.234-0.08,4.527,0.509,5.823c2.167,2.334,5.497,4.329,11.328,4.329c6.953,0,11.226-2.309,12.458-3.078c0.038-0.159,0.053-0.251,0.053-0.251S241.422,304.5,232.422,304.5z"></path><path style="fill:#6E6E6E;stroke:#000000;stroke-linecap:round;stroke-linejoin:round;" d="M274.167,314.333c0.589-1.296,0.753-3.589,0.509-5.823c-1.162-1.629-3.476-4.01-7.098-4.01c-9,0-17.25,10.833-17.25,10.833s0.015,0.092,0.053,0.251c1.232,0.77,5.504,3.078,12.457,3.078C268.67,318.662,272,316.667,274.167,314.333z"></path></g></g></svg>