<svg xmlns="http://www.w3.org/2000/svg" width="500" height="500" version="1.1"><g id="x120"><g><path style="fill:#6E6E6E;stroke:#000000;stroke-linecap:round;stroke-linejoin:round;" d="M283.666,350.501c0,0-3.832-15.5-6.666-23.834c0.666-19-2.668-39.667-2.668-39.667s-4.666-3.499-5.332-3.333c-0.166,4.666-3,21.166-18.999,28.833c-16-7.667-18.833-24.167-19-28.833c-0.666-0.166-5.333,3.333-5.333,3.333s-3.334,20.667-2.667,39.667c-2.834,8.334-6.667,23.834-6.667,23.834s-3.666,4.5-3.666,5.833s2.666,5.167,3.833,6.167c4.29,3.717,33.5,5.832,33.5,5.832s29.208-2.115,33.499-5.832c1.166-1,3.832-4.834,3.832-6.167S283.666,350.501,283.666,350.501z"></path><g><g><path style="fill:none;stroke:#000000;stroke-linecap:round;stroke-linejoin:round;" d="M230.25,301.501c0,0,2.834,8.833,15.167,15"></path><line style="fill:none;stroke:#000000;stroke-linecap:round;stroke-linejoin:round;" x1="233.417" y1="304.501" x2="235.584" y2="302.001"></line><line style="fill:none;stroke:#000000;stroke-linecap:round;stroke-linejoin:round;" x1="236.684" y1="308.667" x2="238.851" y2="306.167"></line><line style="fill:none;stroke:#000000;stroke-linecap:round;stroke-linejoin:round;" x1="240.351" y1="312.001" x2="242.518" y2="309.501"></line></g><g><path style="fill:none;stroke:#000000;stroke-linecap:round;stroke-linejoin:round;" d="M269.75,301.501c0,0-2.833,8.833-15.166,15"></path><line style="fill:none;stroke:#000000;stroke-linecap:round;stroke-linejoin:round;" x1="266.584" y1="304.501" x2="264.417" y2="302.001"></line><line style="fill:none;stroke:#000000;stroke-linecap:round;stroke-linejoin:round;" x1="263.316" y1="308.667" x2="261.15" y2="306.167"></line><line style="fill:none;stroke:#000000;stroke-linecap:round;stroke-linejoin:round;" x1="259.65" y1="312.001" x2="257.483" y2="309.501"></line></g></g><path style="fill:#505050;" d="M266.832,352.668c-2.332-0.166-16.831,2.166-16.831,2.166s-14.5-2.332-16.833-2.166s3,8,16.833,8C263.832,360.668,269.166,352.834,266.832,352.668z"></path></g></g></svg>