<svg xmlns="http://www.w3.org/2000/svg" width="500" height="500" version="1.1"><g id="x121"><g><g><g><path style="fill:#6E6E6E;stroke:#000000;stroke-linecap:round;stroke-linejoin:round;" d="M227.47,286.167c0,0-6.833,4.333-9.333,7.5s-8.167,18.167-8.833,20c-2.5,3.333-4.833,7.333-5,8.167s-0.5,4.667-0.5,4.667s-9.834,14.499-10.667,16.666s3.5,9,3.5,9s11.667,4.501,12.833,4.334s6.5-2.833,7.833-5.5s8.333-24.667,8.333-24.667L227.47,286.167z"></path><path style="fill:#505050;" d="M203.669,327.833c0,0,1.167,6.834,0.5,6.834s-4,1-4,0S202.503,328.666,203.669,327.833z"></path><g><path style="fill:none;stroke:#000000;stroke-linecap:round;stroke-linejoin:round;" d="M196.303,344.665c0,0,0,2.5,1,6.5"></path><path style="fill:none;stroke:#000000;stroke-linecap:round;stroke-linejoin:round;" d="M201.137,346.499c0,0,0,2.5,1,6.5"></path><path style="fill:none;stroke:#000000;stroke-linecap:round;stroke-linejoin:round;" d="M205.97,348.333c0,0,0,2.5,1,6.5"></path></g><path style="fill:none;stroke:#000000;stroke-linecap:round;stroke-linejoin:round;" d="M203.803,326.533c0,0,0.167,2.667,0.5,5.667"></path><path style="fill:#505050;" d="M228.63,298.875c0,0-6.001,2.843-6.893,5.297c-0.892,2.454,0.445,7.361,2.676,9.814C227.313,307.295,228.63,298.875,228.63,298.875z"></path><path style="fill:none;stroke:#000000;stroke-linecap:round;stroke-linejoin:round;" d="M223.188,302.875c0,0,0.375,3.75,3.125,7.5"></path></g><g><path style="fill:#6E6E6E;stroke:#000000;stroke-linecap:round;stroke-linejoin:round;" d="M272.531,286.167c0,0,6.834,4.333,9.334,7.5s8.166,18.167,8.832,20c2.5,3.333,4.834,7.333,5,8.167c0.168,0.834,0.5,4.667,0.5,4.667s9.834,14.499,10.666,16.666c0.834,2.167-3.5,9-3.5,9s-11.666,4.501-12.832,4.334s-6.5-2.833-7.834-5.5c-1.332-2.667-8.332-24.667-8.332-24.667L272.531,286.167z"></path><path style="fill:#505050;" d="M296.332,327.833c0,0-1.168,6.834-0.5,6.834c0.666,0,3.998,1,3.998,0S297.498,328.666,296.332,327.833z"></path><g><path style="fill:none;stroke:#000000;stroke-linecap:round;stroke-linejoin:round;" d="M303.697,344.665c0,0,0,2.5-1,6.5"></path><path style="fill:none;stroke:#000000;stroke-linecap:round;stroke-linejoin:round;" d="M298.863,346.499c0,0,0,2.5-1,6.5"></path><path style="fill:none;stroke:#000000;stroke-linecap:round;stroke-linejoin:round;" d="M294.031,348.333c0,0,0,2.5-1,6.5"></path></g><path style="fill:none;stroke:#000000;stroke-linecap:round;stroke-linejoin:round;" d="M296.197,326.533c0,0-0.166,2.667-0.5,5.667"></path><path style="fill:#505050;" d="M271.371,298.875c0,0,6,2.843,6.893,5.297s-0.445,7.361-2.676,9.814C272.688,307.295,271.371,298.875,271.371,298.875z"></path><path style="fill:none;stroke:#000000;stroke-linecap:round;stroke-linejoin:round;" d="M276.813,302.875c0,0-0.375,3.75-3.125,7.5"></path></g></g><g><path style="fill:#6E6E6E;stroke:#000000;stroke-linecap:round;stroke-linejoin:round;" d="M232,283.001c0,0-3,24,18,42.5c0,13,0,22.833,0,22.833s-3.833,20.501-17.167,28.167c-6.333-1.334-18.667-11.668-19-13.834c0-3,7.833-29.333,8.167-30.333c0.333-2.166,5-43.834,5.5-46.167C229.333,284.167,232,283.001,232,283.001z"></path><path style="fill:#505050;" d="M249.334,336.334c0,0-3.5,1.833-5.333,1.333s-4.667-5.5-3.333-6S248.001,335.001,249.334,336.334z"></path><path style="fill:#6E6E6E;stroke:#000000;stroke-linecap:round;stroke-linejoin:round;" d="M268,283.001c0,0,3,24-18,42.5c0,13,0,22.833,0,22.833s3.832,20.501,17.166,28.167c6.334-1.334,18.666-11.668,19-13.834c0-3-7.832-29.333-8.166-30.333c-0.334-2.166-5-43.834-5.5-46.167C270.666,284.167,268,283.001,268,283.001z"></path><path style="fill:#505050;" d="M251.667,341.834c0,0,2.999,2.667,5.333,2.167s5.666-4,5-4.5S254.667,340.5,251.667,341.834z"></path></g><g><path style="fill:none;stroke:#000000;stroke-linecap:round;stroke-linejoin:round;" d="M242.167,330.834c0,0,5.833,3.5,7.833,5"></path><path style="fill:none;stroke:#000000;stroke-linecap:round;stroke-linejoin:round;" d="M249,342.834c0,0,2.168-2.5,8.834-3.333"></path></g><circle style="fill:#6E6E6E;stroke:#000000;stroke-linecap:round;stroke-linejoin:round;" cx="250" cy="338.751" r="3.583"></circle></g></g></svg>