<svg xmlns="http://www.w3.org/2000/svg" width="500" height="500" version="1.1"><g id="x122"><g><g><g><path style="fill:#6E6E6E;stroke:#000000;stroke-linecap:round;stroke-linejoin:round;" d="M228.185,285.304c0,0-5.333,2.696-9.667,8.363c-4.167,6-6.833,16.167-6.833,16.167s-1.167,1.501-3,4.167c-0.5,1.834-0.833,6.166-1,6.833c-1,2.334-3.5,8.667-6.167,14.833s-5.833,15.334-6,17.667c0.5,3,9.333,7.167,16,6.833c2.519-0.126,11.833-28.5,13-33S228.185,285.304,228.185,285.304z"></path><path style="fill:#505050;" d="M208.185,320.667c0,0,0-5.167,0.667-5.5s5.667,3.168,5.167,4.834S208.352,321.5,208.185,320.667z"></path><path style="fill:#505050;" d="M228.648,298.875c0,0-6.001,2.843-6.893,5.297c-0.892,2.454,0.445,7.361,2.676,9.814C227.332,307.295,228.648,298.875,228.648,298.875z"></path><path style="fill:none;stroke:#000000;stroke-linecap:round;stroke-linejoin:round;" d="M223.206,302.875c0,0,0.375,3.75,3.125,7.5"></path></g><g><path style="fill:#6E6E6E;stroke:#000000;stroke-linecap:round;stroke-linejoin:round;" d="M271.814,285.304c0,0,5.334,2.696,9.668,8.363c4.166,6,6.832,16.167,6.832,16.167s1.168,1.501,3,4.167c0.5,1.834,0.834,6.166,1,6.833c1,2.334,3.5,8.667,6.168,14.833c2.666,6.166,5.832,15.334,6,17.667c-0.5,3-9.334,7.167-16,6.833c-2.52-0.126-11.834-28.5-13-33C274.314,322.667,271.814,285.304,271.814,285.304z"></path><path style="fill:#505050;" d="M291.814,320.667c0,0,0-5.167-0.666-5.5s-5.666,3.168-5.166,4.834S291.648,321.5,291.814,320.667z"></path><path style="fill:#505050;" d="M271.352,298.875c0,0,6.002,2.843,6.893,5.297c0.893,2.454-0.445,7.361-2.676,9.814C272.668,307.295,271.352,298.875,271.352,298.875z"></path><path style="fill:none;stroke:#000000;stroke-linecap:round;stroke-linejoin:round;" d="M276.793,302.875c0,0-0.375,3.75-3.125,7.5"></path></g></g><path style="fill:#6E6E6E;stroke:#000000;stroke-linecap:round;stroke-linejoin:round;" d="M278,332.334c-0.334-2.166-5-43.834-5.5-46.167c-1.834-2-4.5-3.166-4.5-3.166s3,16.5-18,35c-21-18.5-18-35-18-35s-2.667,1.166-4.5,3.166c-0.5,2.333-5.167,44.001-5.5,46.167c-0.333,1-8.167,27.333-8.167,30.333c0.333,2.166,13.333,9,36.167,9s35.832-6.834,36.166-9C286.166,359.667,278.334,333.334,278,332.334z"></path></g></g></svg>