<svg xmlns="http://www.w3.org/2000/svg" width="500" height="500" version="1.1"><g id="x123"><g><path style="fill:#6E6E6E;stroke:#000000;stroke-linecap:round;stroke-linejoin:round;" d="M284.85,370.25l-0.267,0.026c0.208-3.206,0.212-6.055,0.101-8.609c-0.195-4.488-11.334-44.167-14.5-54.167c0,0-7.479-1.898-20.334-2.017c-12.855,0.118-20.333,2.017-20.333,2.017c-3.167,10-14.306,49.679-14.5,54.167c-0.113,2.611-0.104,5.534,0.117,8.829c-0.085,1.254-0.483,7.27-0.483,9.504c1.5,0.75,18.5,2.5,18.5,2.5l14.75-3.75l0.119-2.5h3.961l0.119,2.5l14.75,3.75c0,0,17-1.75,18.5-2.5C285.35,377.5,284.85,370.25,284.85,370.25z"></path><path style="fill:#505050;" d="M248.02,376.25l-0.27-4.5c-4.75-0.5-12-2.5-12-2.5c1.25,2,6.75,4,6.75,5.25s-3.25,5.5-3.25,5.5l7.75,0.5L248.02,376.25z"></path><path style="fill:none;stroke:#000000;stroke-linecap:round;stroke-linejoin:round;" d="M236.5,369.5c0,0,6.75,2.25,11.25,2.25c1,2.75,0.5,3.75,0.5,3.75"></path><g><path style="fill:#7D7D7D;stroke:#000000;stroke-linecap:round;stroke-linejoin:round;" d="M214.639,377.25c0,0-0.5,2.25-0.5,5.25c0.75,1.75,15,2.75,18.25,2.5s14.75-1.75,15.25-3.25s0-3.75,0-3.75s-12.75,1.25-18.25,1.25S214.639,377.25,214.639,377.25z"></path><path style="fill:#7D7D7D;stroke:#000000;stroke-linecap:round;stroke-linejoin:round;" d="M285.361,377.25c0,0,0.5,2.25,0.5,5.25c-0.75,1.75-15,2.75-18.25,2.5s-14.75-1.75-15.25-3.25s0-3.75,0-3.75s12.75,1.25,18.25,1.25S285.361,377.25,285.361,377.25z"></path></g><path style="fill:#6E6E6E;stroke:#000000;stroke-linecap:round;stroke-linejoin:round;" d="M266.475,317.625c-3.25-0.5-16.624-0.75-16.624-0.75s-13.375,0.25-16.625,0.75c-0.875,5-2.875,17.125-0.875,21.375c1.737,3.692,17.5,4.625,17.5,4.625s15.761-0.933,17.499-4.625C269.35,334.75,267.35,322.625,266.475,317.625z"></path><g><ellipse transform="matrix(0.9839 0.1787 -0.1787 0.9839 65.8567 -33.6706)" style="fill:#FFFFFF;stroke:#000000;stroke-linecap:round;stroke-linejoin:round;" cx="219.786" cy="348.642" rx="1.808" ry="2.337"></ellipse><ellipse transform="matrix(-0.9839 0.1787 -0.1787 -0.9839 617.6376 641.636)" style="fill:#FFFFFF;stroke:#000000;stroke-linecap:round;stroke-linejoin:round;" cx="279.914" cy="348.642" rx="1.808" ry="2.337"></ellipse></g><g><path style="opacity:0.5;fill:none;stroke:#FFFFFF;stroke-width:0.9801;stroke-linecap:round;stroke-linejoin:round;stroke-dasharray:1 2;" d="M221.47,353.125c0,0-2.125,8.875-3.125,10.125s-3.625,3.125-3.625,3.125"></path><path style="opacity:0.5;fill:none;stroke:#FFFFFF;stroke-width:0.9801;stroke-linecap:round;stroke-linejoin:round;stroke-dasharray:1 2;" d="M278.23,353.125c0,0,2.125,8.875,3.125,10.125s3.625,3.125,3.625,3.125"></path></g><g><path style="opacity:0.5;fill:none;stroke:#FFFFFF;stroke-width:0.9801;stroke-linecap:round;stroke-linejoin:round;stroke-dasharray:1 2;" d="M229.47,312.5c0,0,8.25-1.125,18.875-1.125"></path><path style="opacity:0.5;fill:none;stroke:#FFFFFF;stroke-width:0.9801;stroke-linecap:round;stroke-linejoin:round;stroke-dasharray:1 2;" d="M270.23,312.5c0,0-8.25-1.125-18.875-1.125"></path></g><g><circle style="fill:#B2B2B2;stroke:#000000;stroke-linecap:round;stroke-linejoin:round;" cx="233.552" cy="310.153" r="2.7"></circle><circle style="fill:#B2B2B2;stroke:#000000;stroke-linecap:round;stroke-linejoin:round;" cx="266.147" cy="310.153" r="2.7"></circle></g><g><path style="opacity:0.5;fill:none;stroke:#FFFFFF;stroke-width:0.9801;stroke-linecap:round;stroke-linejoin:round;stroke-dasharray:1 2;" d="M217.72,351.625c0,0,10.178,3.75,31.417,3.75"></path><path style="opacity:0.5;fill:none;stroke:#FFFFFF;stroke-width:0.9801;stroke-linecap:round;stroke-linejoin:round;stroke-dasharray:1 2;" d="M281.98,351.625c0,0-10.178,3.75-31.416,3.75"></path></g><g><path style="opacity:0.5;fill:none;stroke:#FFFFFF;stroke-width:0.9801;stroke-linecap:round;stroke-linejoin:round;stroke-dasharray:1 2;" d="M219.999,344.375c0,0,11.761,3.333,28.085,3.333"></path><path style="opacity:0.5;fill:none;stroke:#FFFFFF;stroke-width:0.9801;stroke-linecap:round;stroke-linejoin:round;stroke-dasharray:1 2;" d="M279.701,344.375c0,0-11.76,3.333-28.084,3.333"></path></g><g><path style="fill:#6E6E6E;stroke:#000000;stroke-linecap:round;stroke-linejoin:round;" d="M227.97,344.375c0,0,2.5,0.125,3,0.5c0,1.75-2,10.125-2,10.125c-1.375,0.125-3.25-0.5-3.25-0.5C225.595,354.125,227.97,344.375,227.97,344.375z"></path><path style="fill:#6E6E6E;stroke:#000000;stroke-linecap:round;stroke-linejoin:round;" d="M271.73,344.375c0,0-2.5,0.125-3,0.5c0,1.75,2,10.125,2,10.125c1.375,0.125,3.25-0.5,3.25-0.5C274.105,354.125,271.73,344.375,271.73,344.375z"></path></g><g><g><g><g><path style="fill:#6E6E6E;stroke:#000000;stroke-linecap:round;stroke-linejoin:round;" d="M236.22,303.167l-5.667,0.666l-1.149-20.749c0,0,2.149-0.584,3.899-1.251s4.501-1.897,4.501-1.897L236.22,303.167z"></path><path style="opacity:0.5;fill:none;stroke:#FFFFFF;stroke-width:0.9801;stroke-linecap:round;stroke-linejoin:round;stroke-dasharray:1 2;" d="M236.095,282.375c0,0-1.125,13.708-0.875,19.375"></path></g><path style="fill:#B2B2B2;stroke:#000000;stroke-linecap:round;stroke-linejoin:round;" d="M237.596,288.12c-0.691-0.466-8.466,0.923-8.69,1.434s0.333,3.42,0.433,3.649c0.283,0.654,7.732-0.55,8.223-0.741C237.615,291.874,238.073,289.349,237.596,288.12z M236.155,291.116c-0.236,0.275-5.182,0.854-5.388,0.729c-0.602-0.365-0.318-1.434-0.318-1.434c0.074-0.2,5.381-0.858,5.718-0.81C236.194,290.192,236.127,290.525,236.155,291.116z"></path><path style="fill:#B2B2B2;stroke:#000000;stroke-linecap:round;stroke-linejoin:round;" d="M237.346,298.954c-0.691-0.466-8.466,0.923-8.69,1.434s0.333,3.42,0.433,3.649c0.283,0.654,7.732-0.55,8.223-0.741C237.365,302.708,237.823,300.183,237.346,298.954z M235.934,302.151c-0.243,0.279-5.197,0.865-5.4,0.738c-0.591-0.373-0.28-1.46-0.28-1.46c0.079-0.205,5.397-0.87,5.731-0.819C235.997,301.211,235.921,301.55,235.934,302.151z"></path></g><path style="fill:#B2B2B2;stroke:#000000;stroke-linecap:round;stroke-linejoin:round;" d="M232.053,303c0,0,0.251,6.488,0.667,6.869c0.417,0.381,1.583,0.131,1.583,0.131s0.167-7-0.25-7.25S232.387,302.666,232.053,303z"></path></g><g><g><g><path style="fill:#6E6E6E;stroke:#000000;stroke-linecap:round;stroke-linejoin:round;" d="M263.48,303.167l5.666,0.666l1.15-20.749c0,0-2.15-0.584-3.9-1.251s-4.5-1.897-4.5-1.897L263.48,303.167z"></path><path style="opacity:0.5;fill:none;stroke:#FFFFFF;stroke-width:0.9801;stroke-linecap:round;stroke-linejoin:round;stroke-dasharray:1 2;" d="M263.605,282.375c0,0,1.125,13.708,0.875,19.375"></path></g><path style="fill:#B2B2B2;stroke:#000000;stroke-linecap:round;stroke-linejoin:round;" d="M262.139,292.462c0.491,0.191,7.94,1.396,8.224,0.741c0.1-0.229,0.657-3.139,0.433-3.649s-8-1.899-8.69-1.434C261.627,289.349,262.085,291.874,262.139,292.462z M263.533,289.603c0.336-0.049,5.643,0.609,5.717,0.81c0,0,0.284,1.068-0.317,1.434c-0.206,0.125-5.151-0.454-5.388-0.729C263.572,290.525,263.506,290.192,263.533,289.603z"></path><path style="fill:#B2B2B2;stroke:#000000;stroke-linecap:round;stroke-linejoin:round;" d="M262.389,303.296c0.491,0.191,7.94,1.396,8.224,0.741c0.1-0.229,0.657-3.139,0.433-3.649s-8-1.899-8.69-1.434C261.877,300.183,262.335,302.708,262.389,303.296z M263.715,300.61c0.335-0.051,5.652,0.614,5.732,0.819c0,0,0.311,1.087-0.28,1.46c-0.203,0.127-5.157-0.459-5.401-0.738C263.779,301.55,263.703,301.211,263.715,300.61z"></path></g><path style="fill:#B2B2B2;stroke:#000000;stroke-linecap:round;stroke-linejoin:round;" d="M267.646,303c0,0-0.25,6.488-0.666,6.869c-0.417,0.381-1.584,0.131-1.584,0.131s-0.166-7,0.25-7.25C266.064,302.5,267.313,302.666,267.646,303z"></path></g></g><g><path style="opacity:0.5;fill:none;stroke:#FFFFFF;stroke-width:0.9801;stroke-linecap:round;stroke-linejoin:round;stroke-dasharray:1 2;" d="M248.22,319l-13.5,0.5c-0.75,2.5-1.75,15.5,0.25,18s13.25,3.75,13.25,3.75"></path><path style="opacity:0.5;fill:none;stroke:#FFFFFF;stroke-width:0.9801;stroke-linecap:round;stroke-linejoin:round;stroke-dasharray:1 2;" d="M251.48,319l13.5,0.5c0.75,2.5,1.75,15.5-0.25,18s-13.25,3.75-13.25,3.75"></path></g></g></g></svg>