<svg xmlns="http://www.w3.org/2000/svg" width="500" height="500" version="1.1"><g id="x124"><g><path style="fill:#6E6E6E;stroke:#000000;stroke-linecap:round;stroke-linejoin:round;" d="M284.834,361.667c-0.195-4.488-11.334-44.167-14.5-54.167c0,0-7.479-1.898-20.334-2.017c-12.855,0.118-20.333,2.017-20.333,2.017c-3.167,10-14.306,49.679-14.5,54.167c-0.113,2.611,2.746,38.459,3.383,40.583c-0.25,3.75-0.5,15.25-0.5,15.25c2.25,1.75,9.5,3.75,13.5,3.75s13.25-2.75,13.25-2.75s-0.75-11.75-0.75-13.5s3.75-18,4.25-28l-0.164-0.041l0.034-0.709h3.961l0.033,0.709L252.002,377c0.5,10,4.25,26.25,4.25,28s-0.75,13.5-0.75,13.5s9.25,2.75,13.25,2.75s11.25-2,13.5-3.75c0,0-0.25-11.5-0.5-15.25C282.406,400.07,284.928,363.818,284.834,361.667z"></path><path style="fill:#505050;" d="M255.4,395.75c0,0,1.75,8.5,1.75,9.25s-0.5,5.25-0.5,5.25s5.25-6.25,5-7.25S255.4,395.75,255.4,395.75z"></path><path style="fill:#505050;" d="M248.169,376.25l-0.27-4.5c-4.75-0.5-12-2.5-12-2.5c1.25,2,6.476,4.03,6.75,5.25c2.25,10,2,23.25,2,23.25L248.169,376.25z"></path><path style="fill:none;stroke:#000000;stroke-linecap:round;stroke-linejoin:round;" d="M236.65,369.5c0,0,6.75,2.25,11.25,2.25c1,2.75,0.5,3.75,0.5,3.75"></path><path style="fill:#6E6E6E;stroke:#000000;stroke-linecap:round;stroke-linejoin:round;" d="M266.625,317.625c-3.25-0.5-16.625-0.75-16.625-0.75s-13.375,0.25-16.625,0.75c-0.875,5-2.875,17.125-0.875,21.375c1.737,3.692,17.5,4.625,17.5,4.625s15.761-0.933,17.5-4.625C269.5,334.75,267.5,322.625,266.625,317.625z"></path><g><ellipse transform="matrix(0.9839 0.1787 -0.1787 0.9839 65.8591 -33.6974)" style="fill:#FFFFFF;stroke:#000000;stroke-linecap:round;stroke-linejoin:round;" cx="219.936" cy="348.642" rx="1.808" ry="2.337"></ellipse><ellipse transform="matrix(-0.9839 0.1787 -0.1787 -0.9839 617.9359 641.6091)" style="fill:#FFFFFF;stroke:#000000;stroke-linecap:round;stroke-linejoin:round;" cx="280.064" cy="348.642" rx="1.808" ry="2.337"></ellipse></g><g><path style="opacity:0.5;fill:none;stroke:#FFFFFF;stroke-width:0.9801;stroke-linecap:round;stroke-linejoin:round;stroke-dasharray:1 2;" d="M221.62,353.125c0,0-2.125,8.875-3.125,10.125s-3.625,3.125-3.625,3.125"></path><path style="opacity:0.5;fill:none;stroke:#FFFFFF;stroke-width:0.9801;stroke-linecap:round;stroke-linejoin:round;stroke-dasharray:1 2;" d="M278.381,353.125c0,0,2.125,8.875,3.125,10.125s3.625,3.125,3.625,3.125"></path></g><g><path style="opacity:0.5;fill:none;stroke:#FFFFFF;stroke-width:0.9801;stroke-linecap:round;stroke-linejoin:round;stroke-dasharray:1 2;" d="M229.62,312.5c0,0,8.25-1.125,18.875-1.125"></path><path style="opacity:0.5;fill:none;stroke:#FFFFFF;stroke-width:0.9801;stroke-linecap:round;stroke-linejoin:round;stroke-dasharray:1 2;" d="M270.381,312.5c0,0-8.25-1.125-18.875-1.125"></path></g><g><circle style="fill:#B2B2B2;stroke:#000000;stroke-linecap:round;stroke-linejoin:round;" cx="233.702" cy="310.153" r="2.7"></circle><circle style="fill:#B2B2B2;stroke:#000000;stroke-linecap:round;stroke-linejoin:round;" cx="266.298" cy="310.153" r="2.7"></circle></g><g><path style="opacity:0.5;fill:none;stroke:#FFFFFF;stroke-width:0.9801;stroke-linecap:round;stroke-linejoin:round;stroke-dasharray:1 2;" d="M217.87,351.625c0,0,10.178,3.75,31.417,3.75"></path><path style="opacity:0.5;fill:none;stroke:#FFFFFF;stroke-width:0.9801;stroke-linecap:round;stroke-linejoin:round;stroke-dasharray:1 2;" d="M282.131,351.625c0,0-10.178,3.75-31.417,3.75"></path></g><g><path style="opacity:0.5;fill:none;stroke:#FFFFFF;stroke-width:0.9801;stroke-linecap:round;stroke-linejoin:round;stroke-dasharray:1 2;" d="M220.149,344.375c0,0,11.761,3.333,28.085,3.333"></path><path style="opacity:0.5;fill:none;stroke:#FFFFFF;stroke-width:0.9801;stroke-linecap:round;stroke-linejoin:round;stroke-dasharray:1 2;" d="M279.852,344.375c0,0-11.76,3.333-28.084,3.333"></path></g><g><path style="fill:#6E6E6E;stroke:#000000;stroke-linecap:round;stroke-linejoin:round;" d="M228.12,344.375c0,0,2.5,0.125,3,0.5c0,1.75-2,10.125-2,10.125c-1.375,0.125-3.25-0.5-3.25-0.5C225.745,354.125,228.12,344.375,228.12,344.375z"></path><path style="fill:#6E6E6E;stroke:#000000;stroke-linecap:round;stroke-linejoin:round;" d="M271.881,344.375c0,0-2.5,0.125-3,0.5c0,1.75,2,10.125,2,10.125c1.375,0.125,3.25-0.5,3.25-0.5C274.256,354.125,271.881,344.375,271.881,344.375z"></path></g><g><g><g><g><path style="fill:#6E6E6E;stroke:#000000;stroke-linecap:round;stroke-linejoin:round;" d="M236.37,303.167l-5.667,0.666l-1.149-20.749c0,0,2.149-0.584,3.899-1.251s4.501-1.897,4.501-1.897L236.37,303.167z"></path><path style="opacity:0.5;fill:none;stroke:#FFFFFF;stroke-width:0.9801;stroke-linecap:round;stroke-linejoin:round;stroke-dasharray:1 2;" d="M236.245,282.375c0,0-1.125,13.708-0.875,19.375"></path></g><path style="fill:#B2B2B2;stroke:#000000;stroke-linecap:round;stroke-linejoin:round;" d="M237.746,288.12c-0.691-0.466-8.466,0.923-8.69,1.434s0.333,3.42,0.433,3.649c0.283,0.654,7.732-0.55,8.223-0.741C237.765,291.874,238.223,289.349,237.746,288.12z M236.305,291.116c-0.236,0.275-5.182,0.854-5.388,0.729c-0.602-0.365-0.318-1.434-0.318-1.434c0.074-0.2,5.381-0.858,5.718-0.81C236.344,290.192,236.277,290.525,236.305,291.116z"></path><path style="fill:#B2B2B2;stroke:#000000;stroke-linecap:round;stroke-linejoin:round;" d="M237.496,298.954c-0.691-0.466-8.466,0.923-8.69,1.434s0.333,3.42,0.433,3.649c0.283,0.654,7.732-0.55,8.223-0.741C237.515,302.708,237.973,300.183,237.496,298.954z M236.083,302.151c-0.243,0.279-5.197,0.865-5.4,0.738c-0.591-0.373-0.28-1.46-0.28-1.46c0.079-0.205,5.397-0.87,5.731-0.819C236.147,301.211,236.071,301.55,236.083,302.151z"></path></g><path style="fill:#B2B2B2;stroke:#000000;stroke-linecap:round;stroke-linejoin:round;" d="M232.203,303c0,0,0.251,6.488,0.667,6.869c0.417,0.381,1.583,0.131,1.583,0.131s0.167-7-0.25-7.25S232.537,302.666,232.203,303z"></path></g><g><g><g><path style="fill:#6E6E6E;stroke:#000000;stroke-linecap:round;stroke-linejoin:round;" d="M263.631,303.167l5.666,0.666l1.15-20.749c0,0-2.15-0.584-3.9-1.251s-4.5-1.897-4.5-1.897L263.631,303.167z"></path><path style="opacity:0.5;fill:none;stroke:#FFFFFF;stroke-width:0.9801;stroke-linecap:round;stroke-linejoin:round;stroke-dasharray:1 2;" d="M263.756,282.375c0,0,1.125,13.708,0.875,19.375"></path></g><path style="fill:#B2B2B2;stroke:#000000;stroke-linecap:round;stroke-linejoin:round;" d="M262.289,292.462c0.49,0.191,7.939,1.396,8.223,0.741c0.1-0.229,0.658-3.139,0.434-3.649s-8-1.899-8.691-1.434C261.777,289.349,262.234,291.874,262.289,292.462z M263.684,289.603c0.336-0.049,5.643,0.609,5.717,0.81c0,0,0.283,1.068-0.318,1.434c-0.205,0.125-5.15-0.454-5.387-0.729C263.723,290.525,263.656,290.192,263.684,289.603z"></path><path style="fill:#B2B2B2;stroke:#000000;stroke-linecap:round;stroke-linejoin:round;" d="M262.539,303.296c0.49,0.191,7.939,1.396,8.223,0.741c0.1-0.229,0.658-3.139,0.434-3.649s-8-1.899-8.691-1.434C262.027,300.183,262.484,302.708,262.539,303.296z M263.865,300.61c0.334-0.051,5.652,0.614,5.732,0.819c0,0,0.311,1.087-0.281,1.46c-0.203,0.127-5.156-0.459-5.4-0.738C263.93,301.55,263.854,301.211,263.865,300.61z"></path></g><path style="fill:#B2B2B2;stroke:#000000;stroke-linecap:round;stroke-linejoin:round;" d="M267.797,303c0,0-0.25,6.488-0.666,6.869c-0.418,0.381-1.584,0.131-1.584,0.131s-0.166-7,0.25-7.25C266.215,302.5,267.463,302.666,267.797,303z"></path></g></g><g><path style="opacity:0.5;fill:none;stroke:#FFFFFF;stroke-width:0.9801;stroke-linecap:round;stroke-linejoin:round;stroke-dasharray:1 2;" d="M248.37,319l-13.5,0.5c-0.75,2.5-1.75,15.5,0.25,18s13.25,3.75,13.25,3.75"></path><path style="opacity:0.5;fill:none;stroke:#FFFFFF;stroke-width:0.9801;stroke-linecap:round;stroke-linejoin:round;stroke-dasharray:1 2;" d="M251.631,319l13.5,0.5c0.75,2.5,1.75,15.5-0.25,18s-13.25,3.75-13.25,3.75"></path></g></g></g></svg>