<svg xmlns="http://www.w3.org/2000/svg" width="500" height="500" version="1.1"><g id="x125"><g><path style="fill:#6E6E6E;stroke:#000000;stroke-linecap:round;stroke-linejoin:round;" d="M280.5,411.668c0,0,6.832-16,7.666-22.667c-0.5-8.5-1.5-9.167-1.5-9.167s1-4.166,1.168-6.166c-0.5-3-2.987-11.707-3-12.001c-0.195-4.488-11.334-44.167-14.5-54.167c0,0-7.479-1.898-20.334-2.017c-12.855,0.118-20.334,2.017-20.334,2.017c-3.166,10-14.305,49.679-14.5,54.167c-0.013,0.294-2.5,9.001-3,12.001c0.168,2,1.168,6.166,1.168,6.166s-1,0.667-1.5,9.167c0.834,6.667,7.666,22.667,7.666,22.667s-0.667,1.833-1.167,3.166s-0.333,13.667,0.167,15.5s3.833,5.334,5.166,6.5c1,0.333,15,0,17.5-1.5c0.5-0.834,1.334-6,1.334-6s1.666-3.666,3.333-6.833s-0.167-22.167,0-30.167c2.333-6,4.167-19.484,4.167-19.484s1.834,13.484,4.166,19.484c0.168,8-1.666,27,0,30.167c1.668,3.167,3.334,6.833,3.334,6.833s0.834,5.166,1.334,6c2.5,1.5,16.5,1.833,17.5,1.5c1.332-1.166,4.666-4.667,5.166-6.5s0.666-14.167,0.166-15.5S280.5,411.668,280.5,411.668z"></path><path style="fill:#505050;" d="M249.101,371.866c0,0-2.768-8.865-2.934-9.532c0,7.833-0.433,28.167-0.433,28.167S249.601,377.532,249.101,371.866z"></path><path style="fill:none;stroke:#000000;stroke-linecap:round;stroke-linejoin:round;" d="M246.5,361.167c0,0,0.333,6.698,3.5,11.683"></path><path style="fill:#505050;" d="M213.833,394.334c0,0,4,13.333,5.667,16c1.333-5.333,1.333-14.333,1.333-14.333s-0.667,4.499-3,4.333S213.833,394.334,213.833,394.334z"></path><path style="fill:#505050;" d="M280.333,410.834c0,0-5.667-11-6-18.833c2.667,4.333,5.001,8.499,6.334,8.333s5.333-4.5,5.333-4.5S281.999,409.334,280.333,410.834z"></path><path style="fill:#505050;" d="M254,408.168l0.5-16c0,0-3.667-12.834-3.5-16.667c4.167,7.333,9.237,14.606,8.333,16.833C257.167,397.668,254,408.168,254,408.168z"></path><path style="fill:#505050;" d="M256.5,423.501c0,0,1.499,2.666,1.833,4.333s0.834,4.167,0.834,4.167s4.5-2.333,5.833-1.833s3.5,1,3.5,1s-3.166-6.668-6.333-7.334S256.5,423.501,256.5,423.501z"></path><path style="fill:#505050;" d="M231.833,429.001c-3.407,0.128-7.328,1.601-7.833,1.167c-1.167-1,5.333-4.834,7.667-4.834s9.834,3.5,9.167,4.167C240.456,429.879,236.292,428.834,231.833,429.001z"></path><path style="fill:none;stroke:#000000;stroke-linecap:round;stroke-linejoin:round;" d="M280.5,411.668c0,0-5.833-10.833-7.333-23.167"></path><path style="fill:none;stroke:#000000;stroke-linecap:round;stroke-linejoin:round;" d="M219.5,411.668c0.167-0.334,2.333-13.835,1.167-22.001"></path><g><path style="fill:#7D7D7D;stroke:#000000;stroke-linecap:round;stroke-linejoin:round;" d="M223.334,435.501c0,0.5,0.167,3.334,1,4.667s4.667,0.499,9.167,0.666s7.333-0.333,7.333-0.333s0.165-3.667,0.166-5.167c-0.833-1.333-5.179-3.414-8.499-2.833C225.834,433.668,223.334,435.501,223.334,435.501z"></path><path style="fill:#7D7D7D;stroke:#000000;stroke-linecap:round;stroke-linejoin:round;" d="M276.666,435.501c0,0.5-0.167,3.334-1,4.667c-0.834,1.333-4.668,0.499-9.168,0.666s-7.332-0.333-7.332-0.333S259,436.834,259,435.334c0.832-1.333,5.178-3.414,8.498-2.833C274.166,433.668,276.666,435.501,276.666,435.501z"></path></g><path style="fill:#6E6E6E;stroke:#000000;stroke-linecap:round;stroke-linejoin:round;" d="M266.625,317.625c-3.25-0.5-16.625-0.75-16.625-0.75s-13.375,0.25-16.625,0.75c-0.875,5-2.875,17.125-0.875,21.375c1.738,3.692,17.5,4.625,17.5,4.625s15.762-0.933,17.5-4.625C269.5,334.75,267.5,322.625,266.625,317.625z"></path><g><ellipse transform="matrix(0.9839 0.1787 -0.1787 0.9839 65.8591 -33.6973)" style="fill:#FFFFFF;stroke:#000000;stroke-linecap:round;stroke-linejoin:round;" cx="219.936" cy="348.642" rx="1.808" ry="2.337"></ellipse><ellipse transform="matrix(-0.9839 0.1787 -0.1787 -0.9839 617.9359 641.6091)" style="fill:#FFFFFF;stroke:#000000;stroke-linecap:round;stroke-linejoin:round;" cx="280.064" cy="348.642" rx="1.808" ry="2.337"></ellipse></g><g><path style="opacity:0.5;fill:none;stroke:#FFFFFF;stroke-width:0.9801;stroke-linecap:round;stroke-linejoin:round;stroke-dasharray:1 2;" d="M221.619,353.125c0,0-2.125,8.875-3.125,10.125s-3.625,3.125-3.625,3.125"></path><path style="opacity:0.5;fill:none;stroke:#FFFFFF;stroke-width:0.9801;stroke-linecap:round;stroke-linejoin:round;stroke-dasharray:1 2;" d="M278.381,353.125c0,0,2.125,8.875,3.125,10.125s3.625,3.125,3.625,3.125"></path></g><g><path style="opacity:0.5;fill:none;stroke:#FFFFFF;stroke-width:0.9801;stroke-linecap:round;stroke-linejoin:round;stroke-dasharray:1 2;" d="M229.619,312.5c0,0,8.25-1.125,18.875-1.125"></path><path style="opacity:0.5;fill:none;stroke:#FFFFFF;stroke-width:0.9801;stroke-linecap:round;stroke-linejoin:round;stroke-dasharray:1 2;" d="M270.381,312.5c0,0-8.25-1.125-18.875-1.125"></path></g><g><circle style="fill:#B2B2B2;stroke:#000000;stroke-linecap:round;stroke-linejoin:round;" cx="233.702" cy="310.153" r="2.7"></circle><circle style="fill:#B2B2B2;stroke:#000000;stroke-linecap:round;stroke-linejoin:round;" cx="266.298" cy="310.153" r="2.7"></circle></g><g><path style="opacity:0.5;fill:none;stroke:#FFFFFF;stroke-width:0.9801;stroke-linecap:round;stroke-linejoin:round;stroke-dasharray:1 2;" d="M217.869,351.625c0,0,10.178,3.75,31.417,3.75"></path><path style="opacity:0.5;fill:none;stroke:#FFFFFF;stroke-width:0.9801;stroke-linecap:round;stroke-linejoin:round;stroke-dasharray:1 2;" d="M282.131,351.625c0,0-10.178,3.75-31.417,3.75"></path></g><g><path style="opacity:0.5;fill:none;stroke:#FFFFFF;stroke-width:0.9801;stroke-linecap:round;stroke-linejoin:round;stroke-dasharray:1 2;" d="M220.148,344.375c0,0,11.761,3.333,28.085,3.333"></path><path style="opacity:0.5;fill:none;stroke:#FFFFFF;stroke-width:0.9801;stroke-linecap:round;stroke-linejoin:round;stroke-dasharray:1 2;" d="M279.852,344.375c0,0-11.76,3.333-28.084,3.333"></path></g><g><path style="fill:#6E6E6E;stroke:#000000;stroke-linecap:round;stroke-linejoin:round;" d="M228.119,344.375c0,0,2.5,0.125,3,0.5c0,1.75-2,10.125-2,10.125c-1.375,0.125-3.25-0.5-3.25-0.5C225.744,354.125,228.119,344.375,228.119,344.375z"></path><path style="fill:#6E6E6E;stroke:#000000;stroke-linecap:round;stroke-linejoin:round;" d="M271.881,344.375c0,0-2.5,0.125-3,0.5c0,1.75,2,10.125,2,10.125c1.375,0.125,3.25-0.5,3.25-0.5C274.256,354.125,271.881,344.375,271.881,344.375z"></path></g><g><g><g><g><path style="fill:#6E6E6E;stroke:#000000;stroke-linecap:round;stroke-linejoin:round;" d="M236.369,303.167l-5.667,0.666l-1.149-20.749c0,0,2.149-0.584,3.899-1.251s4.501-1.897,4.501-1.897L236.369,303.167z"></path><path style="opacity:0.5;fill:none;stroke:#FFFFFF;stroke-width:0.9801;stroke-linecap:round;stroke-linejoin:round;stroke-dasharray:1 2;" d="M236.244,282.375c0,0-1.125,13.708-0.875,19.375"></path></g><path style="fill:#B2B2B2;stroke:#000000;stroke-linecap:round;stroke-linejoin:round;" d="M237.745,288.12c-0.691-0.466-8.466,0.923-8.69,1.434s0.333,3.42,0.433,3.649c0.283,0.654,7.732-0.55,8.223-0.741C237.765,291.874,238.223,289.349,237.745,288.12z M236.305,291.116c-0.236,0.275-5.182,0.854-5.388,0.729c-0.602-0.365-0.318-1.434-0.318-1.434c0.074-0.2,5.381-0.858,5.718-0.81C236.344,290.192,236.276,290.525,236.305,291.116z"></path><path style="fill:#B2B2B2;stroke:#000000;stroke-linecap:round;stroke-linejoin:round;" d="M237.495,298.954c-0.691-0.466-8.466,0.923-8.69,1.434s0.333,3.42,0.433,3.649c0.283,0.654,7.732-0.55,8.223-0.741C237.515,302.708,237.973,300.183,237.495,298.954z M236.083,302.151c-0.243,0.279-5.197,0.865-5.4,0.738c-0.591-0.373-0.28-1.46-0.28-1.46c0.079-0.205,5.397-0.87,5.731-0.819C236.146,301.211,236.07,301.55,236.083,302.151z"></path></g><path style="fill:#B2B2B2;stroke:#000000;stroke-linecap:round;stroke-linejoin:round;" d="M232.202,303c0,0,0.251,6.488,0.667,6.869c0.417,0.381,1.583,0.131,1.583,0.131s0.167-7-0.25-7.25S232.536,302.666,232.202,303z"></path></g><g><g><g><path style="fill:#6E6E6E;stroke:#000000;stroke-linecap:round;stroke-linejoin:round;" d="M263.631,303.167l5.666,0.666l1.15-20.749c0,0-2.15-0.584-3.9-1.251s-4.5-1.897-4.5-1.897L263.631,303.167z"></path><path style="opacity:0.5;fill:none;stroke:#FFFFFF;stroke-width:0.9801;stroke-linecap:round;stroke-linejoin:round;stroke-dasharray:1 2;" d="M263.756,282.375c0,0,1.125,13.708,0.875,19.375"></path></g><path style="fill:#B2B2B2;stroke:#000000;stroke-linecap:round;stroke-linejoin:round;" d="M262.289,292.462c0.491,0.191,7.94,1.396,8.224,0.741c0.1-0.229,0.657-3.139,0.433-3.649s-8-1.899-8.69-1.434C261.777,289.349,262.235,291.874,262.289,292.462z M263.684,289.603c0.336-0.049,5.643,0.609,5.717,0.81c0,0,0.284,1.068-0.317,1.434c-0.206,0.125-5.151-0.454-5.388-0.729C263.723,290.525,263.656,290.192,263.684,289.603z"></path><path style="fill:#B2B2B2;stroke:#000000;stroke-linecap:round;stroke-linejoin:round;" d="M262.539,303.296c0.491,0.191,7.94,1.396,8.224,0.741c0.1-0.229,0.657-3.139,0.433-3.649s-8-1.899-8.69-1.434C262.027,300.183,262.485,302.708,262.539,303.296z M263.865,300.61c0.335-0.051,5.652,0.614,5.732,0.819c0,0,0.311,1.087-0.28,1.46c-0.203,0.127-5.157-0.459-5.401-0.738C263.93,301.55,263.854,301.211,263.865,300.61z"></path></g><path style="fill:#B2B2B2;stroke:#000000;stroke-linecap:round;stroke-linejoin:round;" d="M267.797,303c0,0-0.25,6.488-0.666,6.869c-0.417,0.381-1.584,0.131-1.584,0.131s-0.166-7,0.25-7.25C266.215,302.5,267.464,302.666,267.797,303z"></path></g></g><g><path style="opacity:0.5;fill:none;stroke:#FFFFFF;stroke-width:0.9801;stroke-linecap:round;stroke-linejoin:round;stroke-dasharray:1 2;" d="M248.369,319l-13.5,0.5c-0.75,2.5-1.75,15.5,0.25,18s13.25,3.75,13.25,3.75"></path><path style="opacity:0.5;fill:none;stroke:#FFFFFF;stroke-width:0.9801;stroke-linecap:round;stroke-linejoin:round;stroke-dasharray:1 2;" d="M251.631,319l13.5,0.5c0.75,2.5,1.75,15.5-0.25,18s-13.25,3.75-13.25,3.75"></path></g></g></g></svg>