<svg xmlns="http://www.w3.org/2000/svg" width="500" height="500" version="1.1"><g id="x126"><g><g><g><g><path style="fill:#5A5A5A;stroke:#000000;stroke-linecap:round;stroke-linejoin:round;" d="M227.209,285.833c0,0-5.166,4.501-7.833,8.334C216.042,300.5,208.042,322,208.042,322s-6.499,15.166-7.166,16.333c5,3,16,8.167,16,8.167l9.333-22.5l6.667-29.833L227.209,285.833z"></path><path style="fill:#464646;" d="M227.689,301.587c0,0-4.449,2.687-5.509,5.897c-1.06,3.212,1.81,8.907,3.488,9.936C227.181,310.322,227.689,301.587,227.689,301.587z"></path><path style="fill:#3F3F3F;stroke:#000000;stroke-linecap:round;stroke-linejoin:round;" d="M224.376,302.166c0,0,1.167,3.833,2.333,5.5"></path></g><g><path style="fill:#3F3F3F;stroke:#000000;stroke-linecap:round;stroke-linejoin:round;" d="M199.709,336c0,0-5,15-4.667,17c1.667,2,10.833,5.667,17,7.5c2.667-3,8.833-16.5,8.833-16.5L199.709,336z"></path><path style="fill:#6E6E6E;stroke:#000000;stroke-linecap:round;stroke-linejoin:round;" d="M214.157,340.664c-0.782,0.003-3.532,1.503-4.282,1.753c-0.75-1.084-1-2.584-2.034-4.131c-4.544-1.676-8.517-3.059-8.799-2.953c-0.667,0.25-1.333,3.083-1,3.5s7.667,3,7.667,3s2.166,4.251,2.5,4.584c0.333,0.333,5.083-2,5.083-2l6.917,2.5c0,0,1.583-2.667,1.5-3.167C221.453,343.526,218.159,342.2,214.157,340.664z"></path><path style="fill:#6E6E6E;stroke:#000000;stroke-linecap:round;stroke-linejoin:round;" d="M196.126,345.5c0,0-1.334,3.833-1.334,4.333s2.834,5.999,3.25,6.083c0.417,0.084,6.333-2.833,6.333-2.833s2.167,5.918,2.5,6.334c0.334,0.416,6.5-3.75,6.5-3.75l1.334,2.666c0,0,2.083-3.667,2.083-3.917c-0.416-0.583-1.416-3.166-1.666-3.166s-6.667,3.5-6.667,3.5s-1.667-5.75-2.167-6c-0.224-0.111-6.833,3-6.833,3L196.126,345.5z"></path></g></g><g><g><path style="fill:#5A5A5A;stroke:#000000;stroke-linecap:round;stroke-linejoin:round;" d="M272.792,285.833c0,0,5.166,4.501,7.833,8.334C283.959,300.5,291.959,322,291.959,322s6.499,15.166,7.166,16.333c-5,3-16,8.167-16,8.167l-9.333-22.5l-6.667-29.833L272.792,285.833z"></path><path style="fill:#464646;" d="M272.312,301.587c0,0,4.448,2.687,5.509,5.897c1.059,3.212-1.811,8.907-3.488,9.936C272.82,310.322,272.312,301.587,272.312,301.587z"></path><path style="fill:#3F3F3F;stroke:#000000;stroke-linecap:round;stroke-linejoin:round;" d="M275.625,302.166c0,0-1.167,3.833-2.334,5.5"></path></g><g><path style="fill:#3F3F3F;stroke:#000000;stroke-linecap:round;stroke-linejoin:round;" d="M300.292,336c0,0,5,15,4.666,17c-1.666,2-10.833,5.667-16.999,7.5c-2.668-3-8.834-16.5-8.834-16.5L300.292,336z"></path><path style="fill:#6E6E6E;stroke:#000000;stroke-linecap:round;stroke-linejoin:round;" d="M285.844,340.664c0.781,0.003,3.531,1.503,4.281,1.753c0.75-1.084,1-2.584,2.035-4.131c4.544-1.676,8.517-3.059,8.799-2.953c0.666,0.25,1.332,3.083,0.999,3.5s-7.666,3-7.666,3s-2.167,4.251-2.5,4.584s-5.083-2-5.083-2l-6.917,2.5c0,0-1.583-2.667-1.5-3.167C278.547,343.526,281.842,342.2,285.844,340.664z"></path><path style="fill:#6E6E6E;stroke:#000000;stroke-linecap:round;stroke-linejoin:round;" d="M303.875,345.5c0,0,1.333,3.833,1.333,4.333s-2.833,5.999-3.25,6.083c-0.416,0.084-6.333-2.833-6.333-2.833s-2.166,5.918-2.5,6.334c-0.333,0.416-6.5-3.75-6.5-3.75l-1.333,2.666c0,0-2.083-3.667-2.083-3.917c0.416-0.583,1.416-3.166,1.666-3.166s6.667,3.5,6.667,3.5s1.667-5.75,2.167-6c0.223-0.111,6.833,3,6.833,3L303.875,345.5z"></path></g></g></g><g><g><g><path style="fill:#5A5A5A;stroke:#000000;stroke-linecap:round;stroke-linejoin:round;" d="M250,316.667v23.666c0,0-12.501,17-16.001,18.5c-9.166-7.167-18.333-14.166-18.333-14.166s8.167-19.334,8.834-21.334c0.166-4.166,1.166-13,1.666-17.5s2.667-11.666,2.667-11.666L250,316.667z"></path><path style="fill:#5A5A5A;stroke:#000000;stroke-linecap:round;stroke-linejoin:round;" d="M232.166,283c0.167,0.833-1.5,15.167,17.834,33.667c-16.334-1.334-24.334-10.5-24.667-11c1.166-1.5,5.833-7.167,5.833-7.167l-10.833-2.5c0,0,5-7.334,7-10.167C228.833,284.333,232.166,283,232.166,283z"></path></g><g><path style="fill:#5A5A5A;stroke:#000000;stroke-linecap:round;stroke-linejoin:round;" d="M250,316.667v23.666c0,0,12.5,17,16,18.5c9.167-7.167,18.334-14.166,18.334-14.166s-8.168-19.334-8.834-21.334c-0.166-4.166-1.166-13-1.666-17.5s-2.667-11.666-2.667-11.666L250,316.667z"></path><path style="fill:#464646;" d="M250,323.063c0,0-5.313-0.063-6.813,2.75c0.313,0.75,6.563,1.188,6.813,1.125c0.25,0.063,6.5-0.375,6.813-1.125C255.313,323,250,323.063,250,323.063z"></path><path style="fill:#464646;" d="M250,333.938c0,0-5.313-0.063-6.813,2.75c0.313,0.75,6.563,1.188,6.813,1.125c0.25,0.063,6.5-0.375,6.813-1.125C255.313,333.875,250,333.938,250,333.938z"></path><path style="fill:#5A5A5A;stroke:#000000;stroke-linecap:round;stroke-linejoin:round;" d="M267.834,283c-0.167,0.833,1.5,15.167-17.834,33.667c16.334-1.334,24.334-10.5,24.667-11c-1.167-1.5-5.833-7.167-5.833-7.167l10.833-2.5c0,0-5-7.334-7-10.167C271.167,284.333,267.834,283,267.834,283z"></path></g></g><g><circle style="fill:#6E6E6E;stroke:#000000;stroke-linecap:round;stroke-linejoin:round;" cx="250" cy="324.5" r="3"></circle><circle style="fill:#6E6E6E;stroke:#000000;stroke-linecap:round;stroke-linejoin:round;" cx="250" cy="336" r="3"></circle></g></g></g></g></svg>