<svg xmlns="http://www.w3.org/2000/svg" width="500" height="500" version="1.1"><g id="x127"><g><path style="fill:#6E6E6E;stroke:#000000;stroke-linecap:round;stroke-linejoin:round;" d="M279.416,342.334c-9.832,2.608-48.999,2.608-58.832,0c-6,9.832-14.5,32.905-15.667,41.532c15.5,18.259,45.083,16.051,45.083,16.051s29.583,2.208,45.083-16.051C293.916,375.239,285.416,352.166,279.416,342.334z"></path><g><line style="fill:none;stroke:#000000;stroke-linecap:round;stroke-linejoin:round;" x1="211.875" y1="390.25" x2="226.625" y2="344.75"></line><line style="fill:none;stroke:#000000;stroke-linecap:round;stroke-linejoin:round;" x1="240.125" y1="349" x2="231.125" y2="398.25"></line><line style="fill:none;stroke:#000000;stroke-linecap:round;stroke-linejoin:round;" x1="288.125" y1="390.25" x2="273.375" y2="344.75"></line><line style="fill:none;stroke:#000000;stroke-linecap:round;stroke-linejoin:round;" x1="259.875" y1="349" x2="268.875" y2="398.25"></line></g><g><path style="fill:none;stroke:#FFFFFF;stroke-width:0.9801;stroke-linecap:round;stroke-linejoin:round;stroke-dasharray:1 2;" d="M206,381.75c0,0,14.25,14.5,44,14.5"></path><path style="fill:none;stroke:#FFFFFF;stroke-width:0.9801;stroke-linecap:round;stroke-linejoin:round;stroke-dasharray:1 2;" d="M294,381.75c0,0-14.25,14.5-44,14.5"></path></g><g><path style="fill:#6E6E6E;stroke:#000000;stroke-linecap:round;stroke-linejoin:round;" d="M230.417,283.148c0.333-0.814,4.75-2.5,6.75-2.5c-2.083,10.186-3.583,31.353-3.583,31.353l-7.5-0.667C226.084,311.334,227.084,294.667,230.417,283.148z"></path><path style="fill:#6E6E6E;stroke:#000000;stroke-linecap:round;stroke-linejoin:round;" d="M269.583,283.148c-0.334-0.814-4.75-2.5-6.75-2.5c2.083,10.186,3.583,31.353,3.583,31.353l7.5-0.667C273.916,311.334,272.916,294.667,269.583,283.148z"></path></g><g><path style="fill:#6E6E6E;stroke:#000000;stroke-linecap:round;stroke-linejoin:round;" d="M275.25,326c-0.5-1.25-0.834-17-0.834-17L250,311.583L225.583,309c0,0-0.333,15.75-0.833,17s-4.5,14.5-4.5,15.5c2.333,2.501,17.333,6.75,29.75,6.75c12.416,0,27.416-4.249,29.75-6.75C279.75,340.5,275.75,327.25,275.25,326z"></path><g><path style="fill:none;stroke:#FFFFFF;stroke-width:0.9801;stroke-linecap:round;stroke-linejoin:round;stroke-dasharray:1 2;" d="M222,339.75c0,0,13.25,6.25,28.25,6.25"></path><path style="fill:none;stroke:#FFFFFF;stroke-width:0.9801;stroke-linecap:round;stroke-linejoin:round;stroke-dasharray:1 2;" d="M278,339.75c0,0-13.25,6.25-28.25,6.25"></path></g><g><path style="fill:#6E6E6E;stroke:#000000;stroke-linecap:round;stroke-linejoin:round;" d="M223.34,325.403c0,0-0.872,3.546-0.736,4.034c0.137,0.488,3.331,2.57,4.561,2.962c1.229,0.392,5.735-1.006,6.009-1.696c0.41-1.869,0.41-4.001,0.41-4.001S227.104,325.063,223.34,325.403z"></path><path style="fill:#6E6E6E;stroke:#000000;stroke-linecap:round;stroke-linejoin:round;" d="M276.659,325.403c0,0,0.873,3.546,0.736,4.034s-3.331,2.57-4.561,2.962c-1.229,0.392-5.735-1.006-6.009-1.696c-0.409-1.869-0.409-4.001-0.409-4.001S272.896,325.063,276.659,325.403z"></path></g><g><path style="fill:#6E6E6E;stroke:#000000;stroke-linecap:round;stroke-linejoin:round;" d="M259.916,309.167h-19.832c0,0.5-1,39.334-1,39.334s4.499,1.249,10.916,1.249s10.916-1.249,10.916-1.249S259.916,309.667,259.916,309.167z"></path><g><circle style="fill:#B2B2B2;stroke:#000000;stroke-linecap:round;stroke-linejoin:round;" cx="250" cy="317.535" r="3.6"></circle><circle style="fill:#B2B2B2;stroke:#000000;stroke-linecap:round;stroke-linejoin:round;" cx="250" cy="329.785" r="3.6"></circle><circle style="fill:#B2B2B2;stroke:#000000;stroke-linecap:round;stroke-linejoin:round;" cx="250" cy="342.035" r="3.6"></circle></g></g></g></g></g></svg>