<svg xmlns="http://www.w3.org/2000/svg" width="500" height="500" version="1.1"><g id="x128"><g><g><g><path style="fill:#6E6E6E;" d="M230.725,283.75c0,0-6.416,3.083-9.666,6.583c-3.147,6.42-6.849,15.83-7.269,16.911c-0.857,0.483-2.34,1.391-2.398,1.923c-0.065,0.588,0.429,2.085,0.646,2.71c-0.507,1.374-1.042,2.862-1.56,4.362c-0.92,0.803-2.004,2.094-2.087,2.386c-0.447,1.191-0.006,2.576-0.27,3.202c-1.917,4.549-2.847,9.673-2.847,9.673l-6.417,6.667c0,0-0.417,4.083,1.083,7.333c1.75,1,13.334,3,13.334,3s1.166-0.5,3.416-2.75c1-1.5,2.417-7.25,2.417-7.25s4.866-10,5.366-12c0.329-3.512,0.61-7.552,0.822-10.981C225.82,314.404,233.38,297.992,230.725,283.75z"></path><path style="fill:none;stroke:#505050;stroke-linecap:round;" d="M212.475,347.75c0,0,1.5-3.125,1.625-3.75c1.25-2.75,1.725-6.5,1.725-6.5s4.275-10.375,4.65-11.625c0.625-1.875,1.875-5.25,1.875-6.75"></path><path style="fill:none;stroke:#505050;stroke-linecap:round;" d="M229.725,287c0,0-3.25,4.625-3.5,5.25s-2.25,9.5-2.25,9.5l-3.25,6.5l-0.75,1.875c0,0-0.375,0.75,0,2.125c-0.875,2.126-2.625,5.125-2.625,5.125s-2.125,6.126-1.885,7.275c-1.266,3.93-3.365,9.85-3.365,9.85s-3.649,5.85-4.274,7.1c-0.375,2.875-0.976,4.525-0.976,4.525"></path><path style="fill:none;stroke:#505050;stroke-linecap:round;" d="M201.975,344.625c0,0,0.476-3.525,0.601-4.525s4.024-6.35,4.649-6.85s3.959-9.458,3.959-9.458s0.417-2.045,0.916-3.542c0.375-1.125,2-3.25,2-3.25l1.375-4.25c0,0,0-2.375,0-2.875s0.375-1.5,1-2.125c0.5-1.5,6.625-16.875,6.625-16.875s2.625-3.375,3-3.875"></path><path style="fill:#505050;" d="M228.017,298c0,0-3.666,1.499-4.333,3.166s-0.167,7,1,8.667C226.184,305.5,228.017,298,228.017,298z"></path><path style="fill:none;stroke:#000000;stroke-linecap:round;stroke-linejoin:round;" d="M223.184,299.333c0,0,0.5,3.334,3.666,7.167"></path><path style="fill:#505050;stroke:#000000;stroke-linecap:round;stroke-linejoin:round;" d="M210.559,316.166c0.291-1.166,1.25-4.208,1.833-4.833c2.167-0.167,13.5,3,13.5,3l-0.833,5.5L210.559,316.166z"></path><path style="fill:none;stroke:#000000;stroke-linecap:round;stroke-linejoin:round;" d="M230.725,283.75c0,0-6.416,3.083-9.666,6.583c-3.147,6.42-6.849,15.83-7.269,16.911c-0.857,0.483-2.34,1.391-2.398,1.923c-0.065,0.588,0.429,2.085,0.646,2.71c-0.507,1.374-1.042,2.862-1.56,4.362c-0.92,0.803-2.004,2.094-2.087,2.386c-0.447,1.191-0.006,2.576-0.27,3.202c-1.917,4.549-2.847,9.673-2.847,9.673l-6.417,6.667c0,0-0.417,4.083,1.083,7.333c1.75,1,13.334,3,13.334,3s1.166-0.5,3.416-2.75c1-1.5,2.417-7.25,2.417-7.25s4.866-10,5.366-12c0.329-3.512,0.61-7.552,0.822-10.981C225.82,314.404,233.38,297.992,230.725,283.75z"></path><path style="fill:#6E6E6E;stroke:#000000;stroke-linecap:round;stroke-linejoin:round;" d="M197.525,350.25c0,0,1.416-5.583,2.416-6.333c5.25,2,13.334,4.583,13.334,4.583s-1.5,5.75-3.5,6.25C205.275,353,197.525,350.25,197.525,350.25z"></path></g><g><path style="fill:#6E6E6E;" d="M269.275,283.75c0,0,6.416,3.083,9.666,6.583c3.147,6.42,6.849,15.83,7.269,16.911c0.858,0.483,2.34,1.391,2.399,1.923c0.064,0.588-0.43,2.085-0.647,2.71c0.507,1.374,1.042,2.862,1.56,4.362c0.92,0.803,2.004,2.094,2.088,2.386c0.446,1.191,0.005,2.576,0.27,3.202c1.916,4.549,2.846,9.673,2.846,9.673l6.417,6.667c0,0,0.417,4.083-1.083,7.333c-1.75,1-13.334,3-13.334,3s-1.166-0.5-3.416-2.75c-1-1.5-2.417-7.25-2.417-7.25s-4.866-10-5.366-12c-0.329-3.512-0.61-7.552-0.822-10.981C274.18,314.404,266.62,297.992,269.275,283.75z"></path><path style="fill:none;stroke:#505050;stroke-linecap:round;" d="M287.525,347.75c0,0-1.5-3.125-1.625-3.75c-1.25-2.75-1.725-6.5-1.725-6.5s-4.275-10.375-4.65-11.625c-0.625-1.875-1.875-5.25-1.875-6.75"></path><path style="fill:none;stroke:#505050;stroke-linecap:round;" d="M270.275,287c0,0,3.25,4.625,3.5,5.25s2.25,9.5,2.25,9.5l3.25,6.5l0.75,1.875c0,0,0.375,0.75,0,2.125c0.875,2.126,2.625,5.125,2.625,5.125s2.125,6.126,1.885,7.275c1.266,3.93,3.365,9.85,3.365,9.85s3.65,5.85,4.275,7.1c0.375,2.875,0.975,4.525,0.975,4.525"></path><path style="fill:none;stroke:#505050;stroke-linecap:round;" d="M298.025,344.625c0,0-0.475-3.525-0.6-4.525s-4.025-6.35-4.65-6.85s-3.959-9.458-3.959-9.458s-0.417-2.045-0.916-3.542c-0.375-1.125-2-3.25-2-3.25l-1.375-4.25c0,0,0-2.375,0-2.875s-0.375-1.5-1-2.125c-0.5-1.5-6.625-16.875-6.625-16.875s-2.625-3.375-3-3.875"></path><path style="fill:#505050;" d="M271.984,298c0,0,3.666,1.499,4.332,3.166c0.668,1.667,0.167,7-1,8.667C273.816,305.5,271.984,298,271.984,298z"></path><path style="fill:none;stroke:#000000;stroke-linecap:round;stroke-linejoin:round;" d="M276.816,299.333c0,0-0.5,3.334-3.666,7.167"></path><path style="fill:#505050;stroke:#000000;stroke-linecap:round;stroke-linejoin:round;" d="M289.441,316.166c-0.291-1.166-1.25-4.208-1.833-4.833c-2.167-0.167-13.5,3-13.5,3l0.833,5.5L289.441,316.166z"></path><path style="fill:none;stroke:#000000;stroke-linecap:round;stroke-linejoin:round;" d="M269.275,283.75c0,0,6.416,3.083,9.666,6.583c3.147,6.42,6.849,15.83,7.269,16.911c0.858,0.483,2.34,1.391,2.399,1.923c0.064,0.588-0.43,2.085-0.647,2.71c0.507,1.374,1.042,2.862,1.56,4.362c0.92,0.803,2.004,2.094,2.088,2.386c0.446,1.191,0.005,2.576,0.27,3.202c1.916,4.549,2.846,9.673,2.846,9.673l6.417,6.667c0,0,0.417,4.083-1.083,7.333c-1.75,1-13.334,3-13.334,3s-1.166-0.5-3.416-2.75c-1-1.5-2.417-7.25-2.417-7.25s-4.866-10-5.366-12c-0.329-3.512-0.61-7.552-0.822-10.981C274.18,314.404,266.62,297.992,269.275,283.75z"></path><path style="fill:#6E6E6E;stroke:#000000;stroke-linecap:round;stroke-linejoin:round;" d="M302.475,350.25c0,0-1.416-5.583-2.416-6.333c-5.25,2-13.334,4.583-13.334,4.583s1.5,5.75,3.5,6.25C294.725,353,302.475,350.25,302.475,350.25z"></path></g></g><g><g><g><path style="fill:#6E6E6E;" d="M278,333.25c0,0-2.5-23.25-3.25-27s-4.25-13.5-4.25-13.5s0.25-6-1-9c-1.5-1-6-2.25-6-2.25L250,301l-13.5-19.5c0,0-4.5,1.25-6,2.25c-1.25,3-1,9-1,9s-3.5,9.75-4.25,13.5s-3.25,27-3.25,27s-3.75,8-3.75,9s1.75,3.5,1.75,3.5s10,5,30,5s30-5,30-5s1.75-2.5,1.75-3.5S278,333.25,278,333.25z"></path><path style="fill:none;stroke:#505050;stroke-linecap:round;" d="M266.75,287l0.25,7c0,0,2.5,9.5,3,12.75s2.25,26.25,2.25,26.25s3.5,10,3.5,11.25s-0.5,2.75-0.5,2.75"></path><path style="fill:none;stroke:#505050;stroke-linecap:round;" d="M263.101,291.25V295c0,0,1.5,10.5,1.75,13s2.25,25.75,2.25,25.75s2.5,10.25,2.5,11.5s-0.5,3.75-0.5,3.75"></path><path style="fill:none;stroke:#505050;stroke-linecap:round;" d="M257.601,293l-0.25,4.75c0,0,1.75,9,1.75,11.25s1.5,25.25,1.5,25.25s2.25,10.5,2.25,12s-0.5,3.5-0.5,3.5"></path><line style="fill:none;stroke:#505050;stroke-linecap:round;" x1="253.351" y1="296.25" x2="253.351" y2="350.25"></line><path style="fill:none;stroke:#505050;stroke-linecap:round;" d="M233.25,287l-0.25,7c0,0-2.5,9.5-3,12.75S227.75,333,227.75,333s-3.5,10-3.5,11.25s0.5,2.75,0.5,2.75"></path><path style="fill:none;stroke:#505050;stroke-linecap:round;" d="M236.899,291.25V295c0,0-1.5,10.5-1.75,13s-2.25,25.75-2.25,25.75s-2.5,10.25-2.5,11.5s0.5,3.75,0.5,3.75"></path><path style="fill:none;stroke:#505050;stroke-linecap:round;" d="M242.399,293l0.25,4.75c0,0-1.75,9-1.75,11.25s-1.5,25.25-1.5,25.25s-2.25,10.5-2.25,12s0.5,3.5,0.5,3.5"></path><line style="fill:none;stroke:#505050;stroke-linecap:round;" x1="246.649" y1="296.25" x2="246.649" y2="350.25"></line><path style="fill:none;stroke:#000000;stroke-linecap:round;stroke-linejoin:round;" d="M278,333.25c0,0-2.5-23.25-3.25-27s-4.25-13.5-4.25-13.5s0.25-6-1-9c-1.5-1-6-2.25-6-2.25L250,301l-13.5-19.5c0,0-4.5,1.25-6,2.25c-1.25,3-1,9-1,9s-3.5,9.75-4.25,13.5s-3.25,27-3.25,27s-3.75,8-3.75,9s1.75,3.5,1.75,3.5s10,5,30,5s30-5,30-5s1.75-2.5,1.75-3.5S278,333.25,278,333.25z"></path></g><g><circle style="fill:#505050;stroke:#000000;stroke-linecap:round;stroke-linejoin:round;" cx="250" cy="306.119" r="2.852"></circle><circle style="fill:#505050;stroke:#000000;stroke-linecap:round;stroke-linejoin:round;" cx="250" cy="322.869" r="2.852"></circle><circle style="fill:#505050;stroke:#000000;stroke-linecap:round;stroke-linejoin:round;" cx="250" cy="339.619" r="2.852"></circle></g></g><g><g><g><path style="fill:#505050;stroke:#000000;stroke-linecap:round;stroke-linejoin:round;" d="M265.775,286.501c-1.826,1.327-11.254,4.802-15.775,3.678c-4.522,1.124-13.949-2.351-15.775-3.678c-0.259-0.302-0.528-0.767-0.783-1.354c-0.065,1.357-0.043,4.042,1.059,5.021c1.5,1.333,8.167,3.5,15.5,3.333c7.333,0.167,14-2,15.5-3.333c1.103-0.979,1.124-3.664,1.059-5.021C266.304,285.734,266.034,286.199,265.775,286.501z"></path></g></g><g><path style="fill:#505050;stroke:#000000;stroke-linecap:round;stroke-linejoin:round;" d="M250,291.751c0,0-5.104,8.749-6.167,10.499c-2.333-1.167-3.875-3.125-3.875-3.125s4.75-4.438,8.375-7.707C249.333,291.584,250,291.751,250,291.751z"></path><path style="fill:#505050;stroke:#000000;stroke-linecap:round;stroke-linejoin:round;" d="M250,291.751c0,0,5.104,8.749,6.167,10.499c2.334-1.167,3.875-3.125,3.875-3.125s-4.75-4.438-8.375-7.707C250.667,291.584,250,291.751,250,291.751z"></path><path style="fill:#505050;stroke:#000000;stroke-linecap:round;stroke-linejoin:round;" d="M251.959,290.583c-0.666-0.833-3.251-0.833-3.917,0c0,0-0.333,2.209,0.333,2.917c0.958,0.75,1.625,0.583,1.625,0.583s0.667,0.167,1.625-0.583C252.292,292.792,251.959,290.583,251.959,290.583z"></path></g></g></g></g></g></svg>