<svg xmlns="http://www.w3.org/2000/svg" width="500" height="500" version="1.1"><g id="x129"><g><g><path style="fill:#6E6E6E;stroke:#000000;stroke-linecap:round;stroke-linejoin:round;" d="M222.5,292c0,0,1.333,6.334,2.833,8.667s33.834,8.667,41.5,6.667S280.5,296,280.5,296s6.834,7,7.834,10s0.833,9,0.833,9s0.833,1.834,1.333,3.667c1.334,2.333,2.334,3.333,2.334,4.5s-0.167,3.333-0.167,3.333s-1.499-2-3.833-1.833S278.166,329,277.5,332c1.334,4.667,5.333,13.333,7.5,16.833c0.5,4.667,0,6.167,0,6.167s4,5.166,4,6.833s-5.334,7-6,7.167s-5.666-3.167-11.833-5c-7.333,2.5-26.167,10.166-55.167,6.333c-3-0.833-5.833-4.5-6-5.333s3.167-5.333,3.167-5.333s-0.667-4.334-0.667-6.334s4.333-7,4.333-7s6-13,6.333-14.5c0,0-2.667-3.167-6.667-4s-10,0.167-10,0.167s-1.5-2.334-1.167-3.667s4.417-6.167,5.75-7.833c0.25-2.084,1.167-6.084,3.25-10c0-2.584,0.667-5.833,0.667-5.833L222.5,292z"></path><path style="fill:none;stroke:#000000;stroke-linecap:round;stroke-linejoin:round;" d="M280.417,348.667C280.5,348.917,283.5,353,285,355"></path><path style="fill:#505050;" d="M288.667,313.126c0,0-0.002,1.708,0.166,2.042c0.092,0.185,0.834,2,1.209,3.583c0.486,0.949,0.666,1.167,0.666,1.167s-6.907,0.498-8.74,1.665s-5.75,3.333-5.75,3.333s4.083-8.332,5.417-9.166C282.968,314.916,288.667,313.126,288.667,313.126z"></path><path style="fill:#505050;" d="M274.218,310c0,0,6.583-6.334,7.167-6.584c-0.084,3.75-5.418,12.084-6.5,13.334C274.635,314.666,274.218,310,274.218,310z"></path><path style="fill:#505050;" d="M215.667,369.334c0,0-4.5-2.834-4.667-4.167c1.333-2.667,3.167-4.167,3.167-4.167s27-2.167,30-1.667s25.667,4.167,25.667,4.167S245.833,373.5,215.667,369.334z"></path><path style="fill:#505050;" d="M212.25,313.333c0,0-1,3.499-1.167,3.833s-2,2.5-2,2.5s7.333,0.75,9.167,1.917s5.75,3.333,5.75,3.333s-4.083-8.332-5.417-9.166S212.25,313.333,212.25,313.333z"></path><path style="fill:#505050;" d="M226,310c0,0-6.583-6.334-7.167-6.584c0.083,3.75,5.417,12.084,6.5,13.334C225.583,314.666,226,310,226,310z"></path><g><path style="fill:none;stroke:#000000;stroke-linecap:round;stroke-linejoin:round;" d="M222.649,332c0,0,1.833-5.333,2.166-7.333c0.334-2,0.834-16.501,2-19.834"></path><path style="fill:none;stroke:#000000;stroke-linecap:round;stroke-linejoin:round;" d="M277.351,332c0,0-1.833-5.333-2.167-7.333c-0.333-2-0.833-16.501-2-19.834"></path></g></g><path style="fill:none;stroke:#000000;stroke-linecap:round;stroke-linejoin:round;" d="M271.167,364c0,0-21.333-3.501-24.833-4.334s-23.5,0.167-23.5,0.167"></path></g></g></svg>