<svg xmlns="http://www.w3.org/2000/svg" width="500" height="500" version="1.1"><g id="x013"><g><path style="fill:#6E6E6E;stroke:#000000;stroke-linecap:round;stroke-linejoin:round;" d="M272.949,301.667c0,0-6.319-1.667-22.949-1.667c-16.63,0-22.949,1.667-22.949,1.667c-1.209,3.534-1.5,7.732-1.544,10.5h48.988C274.45,309.399,274.158,305.201,272.949,301.667z"></path><path style="fill:#505050;" d="M245.68,302.614c0,0,2.519,2.351,4.197,2.183c1.68-0.168,4.443-2.127,4.443-2.127S248.03,302.614,245.68,302.614z"></path><g id="topsXMLID_27_"><g><path style="fill:#6E6E6E;" d="M274.49,312.17c0.029,1.8-0.04,3-0.04,3L250,314.83l-24.45,0.34c0,0-0.07-1.2-0.04-3c0,0,2.71-0.97,24.49-0.97C271.79,311.2,274.49,312.17,274.49,312.17z"></path></g><g style="opacity:0.5;"><path style="fill:#FFFFFF;" d="M274.49,312.17c0.029,1.8-0.04,3-0.04,3L250,314.83l-24.45,0.34c0,0-0.07-1.2-0.04-3c0,0,2.71-0.97,24.49-0.97C271.79,311.2,274.49,312.17,274.49,312.17z"></path></g><g><path style="fill:none;stroke:#000000;stroke-linecap:round;stroke-linejoin:round;" d="M250,311.2c-21.78,0-24.49,0.97-24.49,0.97c-0.03,1.8,0.04,3,0.04,3l24.45-0.34l24.45,0.34c0,0,0.069-1.2,0.04-3C274.49,312.17,271.79,311.2,250,311.2z"></path></g></g></g></g></svg>