<svg xmlns="http://www.w3.org/2000/svg" width="500" height="500" version="1.1"><g id="x130"><g><g><g><g><path style="fill:#6E6E6E;stroke:#000000;stroke-linecap:round;stroke-linejoin:round;" d="M211.555,316.122c0,0-2.896,5.711-4.563,10.045c-2.045,1.404-5.667,3.083-5.75,3.25c-0.167,0.666-0.083,5.583-0.083,5.583s-2.75,3.666-2.667,4.083c1,4.167,2.229,7.396,2.164,8.686c5.977,1.758,15.119,6.33,15.119,6.33s9.634-28.653,9.634-27.599"></path><path style="fill:#505050;" d="M208.359,328.428c0,0,1.583,2.638,3.692,2.902c2.11,0.263,9.274-3.497,9.274-3.497L208.359,328.428z"></path><path style="fill:#505050;" d="M201.742,329.583c0,0-0.5,2.5-0.417,2.917s-0.333,3.499,1.75,5.583c3.333,0.834,12.417-0.417,13-0.5c-3.583-0.666-10.333-2.916-11.5-4.416S201.742,329.583,201.742,329.583z"></path><path style="fill:none;stroke:#000000;stroke-linecap:round;stroke-linejoin:round;" d="M207.481,328.252c0,0,3.69,3.164,4.57,3.691s9.67-4.043,9.67-4.043"></path><g><path style="fill:#6E6E6E;stroke:#000000;stroke-linecap:round;stroke-linejoin:round;" d="M199.042,341.965c-3.966,6.702-4.466,10.201-4.466,10.201s1.167,2.334,8.417,4.584s11.583,2.083,11.583,2.083l4.188-13.879"></path></g><path style="fill:#6E6E6E;stroke:#000000;stroke-linecap:round;stroke-linejoin:round;" d="M226.576,329.5l-0.505-25.159h-11.884c-1.457,6.113-2.667,11.706-2.667,11.706"></path><path style="fill:#6E6E6E;stroke:#000000;stroke-linecap:round;stroke-linejoin:round;" d="M213.459,311.372c-1.467-2.247-2.614-3.742-2.967-4.622c-0.352-0.88,2.147-3.847,2.5-4.375c0.353-0.527,3.279,1.086,3.279,1.086s1.408-5.625,10.902-4.57c-1.055,6.681-4.572,13.361-4.572,13.361"></path></g><path style="fill:none;stroke:#000000;stroke-linecap:round;stroke-linejoin:round;" d="M216.536,302.056l-1.847,5.01l2.374,4.748l-6.857,17.406c0,0-5.46,2.534-5.547,3.363c-0.333,3.167,0.272,6.131,0.272,6.131s-3.022,8.119-5.189,14.786"></path><polyline style="fill:none;stroke:#000000;stroke-linecap:round;stroke-linejoin:round;" points="220.755,316.033 216.271,330.274 211.409,334.917 211.576,338.667 206.909,356.167 "></polyline></g><g><g><path style="fill:#6E6E6E;stroke:#000000;stroke-linecap:round;stroke-linejoin:round;" d="M288.445,316.122c0,0,2.896,5.711,4.563,10.045c2.045,1.404,5.666,3.083,5.75,3.25c0.166,0.666,0.083,5.583,0.083,5.583s2.751,3.666,2.667,4.083c-1,4.167-2.229,7.396-2.164,8.686c-5.977,1.758-15.119,6.33-15.119,6.33s-9.633-28.653-9.633-27.599"></path><path style="fill:#505050;" d="M291.641,328.428c0,0-1.583,2.638-3.692,2.902c-2.11,0.263-9.274-3.497-9.274-3.497L291.641,328.428z"></path><path style="fill:#505050;" d="M298.258,329.583c0,0,0.5,2.5,0.416,2.917c-0.082,0.417,0.334,3.499-1.75,5.583c-3.332,0.834-12.416-0.417-13-0.5c3.584-0.666,10.334-2.916,11.5-4.416C296.592,331.667,298.258,329.583,298.258,329.583z"></path><path style="fill:none;stroke:#000000;stroke-linecap:round;stroke-linejoin:round;" d="M292.519,328.252c0,0-3.69,3.164-4.57,3.691s-9.671-4.043-9.671-4.043"></path><g><path style="fill:#6E6E6E;stroke:#000000;stroke-linecap:round;stroke-linejoin:round;" d="M300.959,341.965c3.965,6.702,4.466,10.201,4.466,10.201s-1.167,2.334-8.417,4.584s-11.584,2.083-11.584,2.083l-4.188-13.879"></path></g><path style="fill:#6E6E6E;stroke:#000000;stroke-linecap:round;stroke-linejoin:round;" d="M273.424,329.5l0.506-25.159h11.884c1.457,6.113,2.667,11.706,2.667,11.706"></path><path style="fill:#6E6E6E;stroke:#000000;stroke-linecap:round;stroke-linejoin:round;" d="M286.541,311.372c1.467-2.247,2.613-3.742,2.967-4.622c0.352-0.88-2.146-3.847-2.5-4.375c-0.353-0.527-3.279,1.086-3.279,1.086s-1.408-5.625-10.902-4.57c1.056,6.681,4.572,13.361,4.572,13.361"></path></g><path style="fill:none;stroke:#000000;stroke-linecap:round;stroke-linejoin:round;" d="M283.465,302.056l1.846,5.01l-2.373,4.748l6.856,17.406c0,0,5.46,2.534,5.548,3.363c0.332,3.167-0.273,6.131-0.273,6.131s3.023,8.119,5.189,14.786"></path><polyline style="fill:none;stroke:#000000;stroke-linecap:round;stroke-linejoin:round;" points="279.244,316.033 283.729,330.274 288.592,334.917 288.424,338.667 293.092,356.167 "></polyline></g></g><g><g><path style="fill:#3F3F3F;stroke:#000000;stroke-linecap:round;stroke-linejoin:round;" d="M239.886,281.133c0,0-3.747,14.769-3.297,24.79c-3.446,0-9.14,0.175-9.14,0.175s1.799-16.878,4.345-21.8C233.743,281.308,239.886,281.133,239.886,281.133z"></path><path style="fill:#3F3F3F;stroke:#000000;stroke-linecap:round;stroke-linejoin:round;" d="M260.113,281.133c0,0,3.748,14.769,3.299,24.79c3.444,0,9.139,0.175,9.139,0.175s-1.798-16.878-4.346-21.8C266.258,281.308,260.113,281.133,260.113,281.133z"></path></g><g><g><g><g><path style="fill:#6E6E6E;stroke:#000000;stroke-linecap:round;stroke-linejoin:round;" d="M283.5,338.667c-0.15-0.451-6.128-5.854-7.667-14.334c-0.333-8.666-1.479-18.595-2.531-22.336l-0.486-3.634c0,0-20.28,1.232-22.77,3.128c-6.448-2.109-22.859-3.128-22.859-3.128l-0.486,3.634c-0.878,3.117-1.367,11.67-1.7,18.336c-4.333,11.167-3.833,15-5,19.167c-0.294,0.88,3.087,8.269,3.087,8.269s9.377,8.616,26.576,16.343v0.009c0.116,0,0.223-0.005,0.339-0.005c0.114,0,0.221,0.005,0.336,0.005v-0.009c27.879-0.155,35.162-7.444,35.162-7.444l-3.5-7c0,0-0.958-4.954-0.667-5.834C281.627,342.953,283.794,339.547,283.5,338.667z"></path><path style="fill:#505050;" d="M280.563,345.16c0,0-0.953,2.9-4.703,3.784c-7.064,1.666-18.348,1.723-19.27,0c-1.41-2.638,26.4-10.025,26.4-10.025L280.563,345.16z"></path><path style="fill:#6E6E6E;stroke:#000000;stroke-linecap:round;stroke-linejoin:round;" d="M227.075,302.013c0,0-0.752-2.904-0.502-4.319s2.479-4.322,3.497-4.011c1.02,0.311,2.527,2.713,2.527,2.713s2.108-2.019,3.569-1.376c1.461,0.646,4.884,4.554,4.884,4.554s1.548-1.472,3.146-1.008c1.599,0.464,5.316,4.535,5.316,4.535s1.94-2.896,4.224-3.865c2.281-0.971,4.208,0.886,4.208,0.886s1.358-3.044,3.941-3.501c2.587-0.457,2.587-0.457,2.587-0.457l1.065,2.068c0,0,4.53-3.175,5.966-3.407c1.437-0.233,3.611,0.206,3.667,2.314c0.058,2.108-1.444,5.16-1.876,5.179"></path></g><g><path style="fill:none;stroke:#000000;stroke-linecap:round;stroke-linejoin:round;" d="M230.621,298.891c-0.235-1.055-0.705,3.956-0.705,3.956s-0.705,3.956-0.705,7.912c0,3.955-0.586,9.741-0.586,9.741s-3.878,17.95-5.289,21.643"></path><path style="fill:none;stroke:#000000;stroke-linecap:round;stroke-linejoin:round;" d="M240.202,299.573c0,0-2.296,11.186-2.06,13.822c0.235,2.638,0,6.856,0,6.856l-0.471,8.44c0,0-3.289,16.878-3.054,20.57"></path><path style="fill:none;stroke:#000000;stroke-linecap:round;stroke-linejoin:round;" d="M268.869,298.891c0.234-1.055,0.705,3.956,0.705,3.956s0.705,3.956,0.705,7.912c0,3.955-1.176,9.23-1.176,9.23l1.176,9.494c0,0,3.58,6.329,4.99,10.021l-0.939,5.538c0,0,0.705,7.912,0.469,10.285"></path><path style="fill:none;stroke:#000000;stroke-linecap:round;stroke-linejoin:round;" d="M259.289,299.573c0,0,2.297,11.186,2.061,13.822c-0.234,2.638,0,6.856,0,6.856l0.471,8.44c0,0,3.344,9.494,3.814,11.076c0.471,3.428-0.643,7.647-0.76,9.494l1.936,6.594"></path><polyline style="fill:none;stroke:#000000;stroke-linecap:round;stroke-linejoin:round;" points="250.049,301.491 249.421,322.362 249.421,330.274 249.892,351.637 "></polyline></g></g><path style="fill:#6E6E6E;stroke:#000000;stroke-linecap:round;stroke-linejoin:round;" d="M247,363.875c0,0-24.672,0.047-30.939-6.459c0.158-4.572,2.038-10.375,2.038-10.375L247,363.875z"></path><g><path style="fill:#6E6E6E;stroke:#000000;stroke-linecap:round;stroke-linejoin:round;" d="M216.5,348.25c0,0,14.229,13.939,36.345,16.927c22.113,2.988,31.328,2.462,32.667,1.582c1.341-0.88,0.17-4.044,0.17-4.044s1.843-7.032,1.171-7.56c-0.669-0.527-4.021-3.343-4.021-3.343l-0.501,4.572c0,0-47.747-3.164-61.318-15.295c-0.337,0.175-1.174-2.11-1.174-2.11s-1.339,1.407-1.339,1.935s-0.375,2.206-0.375,3.086C218.125,344.879,216.5,348.25,216.5,348.25z"></path><path style="fill:none;stroke:#000000;stroke-linecap:round;stroke-linejoin:round;" d="M225.369,344.254c0,0,0.335,6.854,1.172,9.669"></path><path style="fill:none;stroke:#000000;stroke-linecap:round;stroke-linejoin:round;" d="M233.411,347.771c0,0-0.168,8.612,0.837,10.9"></path><path style="fill:none;stroke:#000000;stroke-linecap:round;stroke-linejoin:round;" d="M243.965,350.759c0,0-0.167,10.198,1.173,12.836"></path><path style="fill:none;stroke:#000000;stroke-linecap:round;stroke-linejoin:round;" d="M257.031,354.45c0,0-0.335,9.319,0.335,10.902"></path><path style="fill:none;stroke:#000000;stroke-linecap:round;stroke-linejoin:round;" d="M269.766,356.033c0,0,0,9.846,0.166,10.901"></path><line style="fill:none;stroke:#000000;stroke-linecap:round;stroke-linejoin:round;" x1="281.494" y1="357.44" x2="281.997" y2="367.238"></line></g></g><g><path style="fill:#3F3F3F;stroke:#000000;stroke-linecap:round;stroke-linejoin:round;" d="M249.265,306.416c0,0-8.46,20.393-10.653,19.865s-3.133-4.043-3.133-4.043s5.326-12.309,12.063-18.285C249.578,304.48,249.265,306.416,249.265,306.416z"></path><path style="fill:#3F3F3F;stroke:#000000;stroke-linecap:round;stroke-linejoin:round;" d="M250.128,306.416c0,0,8.462,20.393,10.653,19.865c2.193-0.527,3.133-4.043,3.133-4.043s-5.324-12.309-12.064-18.285C249.815,304.48,250.128,306.416,250.128,306.416z"></path><path style="fill:#3F3F3F;stroke:#000000;stroke-linecap:round;stroke-linejoin:round;" d="M247.698,300.613c0.294-0.412,2.978-1.058,3.916-0.178c0.939,0.88,0.471,7.385-0.469,7.736c-0.938,0.354-2.976,0.176-2.976,0.176S246.445,302.373,247.698,300.613z"></path></g></g></g></g></g></svg>