<svg xmlns="http://www.w3.org/2000/svg" width="500" height="500" version="1.1"><g id="x131"><g><g><path style="fill:#6E6E6E;stroke:#000000;stroke-linecap:round;stroke-linejoin:round;" d="M222.745,312.677c0,0,18.422,2.913,53.009-4.916c0.746,7.546-0.67,15.073-0.67,15.073l4.5,23.667c0,0-5.224,4.165-29.483,4.165c-24.263,0-31.767-3.726-31.767-3.726s0.833-8.94,5.333-18.94C223.167,323,221.954,318.04,222.745,312.677z"></path><path style="fill:#505050;" d="M226.25,329.334c0,0,3.792,8.149,6.253,9.907c2.461,1.758,21.625-0.703,25.669-2.638c5.274-0.176,7.735-0.352,7.735-0.352L268,349.166c0,0-35.145,2.909-44.287-2.014C225.119,338.714,226.25,329.334,226.25,329.334z"></path><line style="opacity:0.5;fill:none;stroke:#FFFFFF;stroke-linecap:round;stroke-linejoin:round;stroke-dasharray:1.0047 3.014;" x1="230.921" y1="316.815" x2="268.105" y2="314.091"></line><path style="fill:#505050;" d="M230.921,316.815c0.527,0.264,8.087,5.133,15.472,5.659c7.383,0.527,26.857-7.475,26.857-7.475s0.593,3.84-0.25,8.5c3.25,8.75,3.949,18.951,3.75,19.25c-0.352,0.525-23.5-4.217-28.248-4.086c-4.747,0.133-21.977-8.16-21.977-8.16c-0.352-0.131-2.286-9.871-2.286-9.871L230.921,316.815z"></path><line style="fill:none;stroke:#B2B2B2;stroke-linecap:round;stroke-linejoin:round;stroke-dasharray:1.0047 3.014;" x1="227.492" y1="324.639" x2="228.02" y2="335.452"></line><line style="fill:none;stroke:#B2B2B2;stroke-linecap:round;stroke-linejoin:round;stroke-dasharray:1.0047 3.014;" x1="249.909" y1="322.002" x2="249.909" y2="347.417"></line><g><circle style="fill:#B2B2B2;stroke:#000000;stroke-linecap:round;stroke-linejoin:round;" cx="249.821" cy="322.911" r="3.252"></circle><circle style="fill:#B2B2B2;stroke:#000000;stroke-linecap:round;stroke-linejoin:round;" cx="249.821" cy="336.067" r="3.252"></circle></g></g><g><g><path style="fill:#6E6E6E;stroke:#000000;stroke-linecap:round;stroke-linejoin:round;" d="M272.167,285.834c0,0-1.25-1.75-6.962-3.918c1.127,6.951,0.247,20.989-0.353,28.493l7.051,0.917C273.119,300.845,272.167,285.834,272.167,285.834z"></path><path style="opacity:0.5;fill:none;stroke:#FFFFFF;stroke-linecap:round;stroke-linejoin:round;stroke-dasharray:1.0047 3.014;" d="M268.369,283.762c0,0,1.318,15.824-0.264,21.362s-1.582,5.538-1.582,5.538"></path></g><path style="fill:#6E6E6E;stroke:#000000;stroke-linecap:round;stroke-linejoin:round;" d="M232.824,312.587c0,0-7.833-18.14-6.203-25.961c-3.704,1.541-5.371,5.208-5.371,5.208s-1.451,9.667,5.659,23.264C229.182,314.983,232.824,312.587,232.824,312.587z"></path><path style="opacity:0.5;fill:none;stroke:#FFFFFF;stroke-linecap:round;stroke-linejoin:round;stroke-dasharray:1.0047 3.014;" d="M223.167,290.667c0,0,0.667,8.138,2.076,11.787"></path><g><path style="fill:#B2B2B2;stroke:#000000;stroke-linecap:round;stroke-linejoin:round;" d="M227.75,315.085c0.003,0.661,0.75,3,1.5,3.933c1.292,0.108,3.227-0.747,3.917-1.558c-0.134-0.395-1.542-4.375-1.542-4.375L227.75,315.085z"></path></g><path style="fill:#B2B2B2;stroke:#000000;stroke-linecap:round;stroke-linejoin:round;" d="M222.412,307.877c0,0-0.797-1.05-0.941-2.762c1.029-0.989,6.113-3.322,8.321-3.447c0.75,0.875,1.208,2.625,1.208,2.625L222.412,307.877z"></path><path style="fill:#B2B2B2;stroke:#000000;stroke-linecap:round;stroke-linejoin:round;" d="M264.413,303.898c0,0-0.227-1.299,0.433-2.886c1.369-0.405,6.956-0.143,8.974,0.761c0.265,1.122-0.132,2.887-0.132,2.887L264.413,303.898z"></path><path style="fill:#B2B2B2;stroke:#000000;stroke-linecap:round;stroke-linejoin:round;" d="M224.661,314.211c0,0-0.797-1.05-0.941-2.762c1.029-0.989,6.113-3.322,8.321-3.447c0.75,0.875,1.208,2.625,1.208,2.625L224.661,314.211z"></path><path style="fill:#B2B2B2;stroke:#000000;stroke-linecap:round;stroke-linejoin:round;" d="M225.37,316.502c0,0-0.797-1.05-0.941-2.762c1.029-0.989,6.113-3.322,8.321-3.447c0.75,0.875,1.208,2.625,1.208,2.625L225.37,316.502z"></path><g><path style="fill:#B2B2B2;stroke:#000000;stroke-linecap:round;stroke-linejoin:round;" d="M266.426,312.58c-0.285,0.597-0.629,3.027-0.358,4.193c1.115,0.659,3.23,0.73,4.203,0.3c0.052-0.413,0.515-4.609,0.515-4.609L266.426,312.58z"></path></g><path style="fill:#B2B2B2;stroke:#000000;stroke-linecap:round;stroke-linejoin:round;" d="M264.024,310.45c0,0-0.263-1.293,0.354-2.896c1.357-0.443,6.949-0.334,8.991,0.514c0.296,1.113-0.052,2.889-0.052,2.889L264.024,310.45z"></path><path style="fill:#B2B2B2;stroke:#000000;stroke-linecap:round;stroke-linejoin:round;" d="M263.666,312.82c0,0-0.262-1.291,0.354-2.896c1.357-0.443,6.949-0.334,8.992,0.514c0.295,1.114-0.053,2.889-0.053,2.889L263.666,312.82z"></path></g></g></g></svg>