<svg xmlns="http://www.w3.org/2000/svg" width="500" height="500" version="1.1"><g id="x132"><g><g><g><path style="fill:#6E6E6E;stroke:#000000;stroke-linecap:round;stroke-linejoin:round;" d="M271.622,302.888h13.011c0,0,4.571,13.011,5.449,14.418c0.879,1.405,3.165,7.735,2.638,8.966c-0.527,1.231-4.747,5.451-4.747,5.451l-12.834,1.23c0,0-3.517-5.803-3.692-8.968c-0.177-3.164-0.177-8.79-0.177-8.79"></path><path style="fill:#505050;" d="M278.055,314.579c0,0,2.77,2.242,4.482,0.791c2.507-0.659-1.449,9.758-1.449,9.758s1.318,5.935,3.56,6.33c-2.373,0.396-7.516,0.264-7.516,0.264l-2.241-5.275L278.055,314.579z"></path><path style="fill:#F6B800;" d="M287.805,326.357c-1.225,2.661-3.955,3.872-6.095,2.708c-2.141-1.165-2.882-4.265-1.656-6.924c1.227-2.661,3.955-3.872,6.097-2.709C288.29,320.598,289.032,323.697,287.805,326.357z"></path><path style="fill:none;stroke:#000000;stroke-linecap:round;stroke-linejoin:round;" d="M281.381,317.656c0,0-5.978,4.923-6.682,8.439"></path></g><g><path style="fill:#6E6E6E;stroke:#000000;stroke-linecap:round;stroke-linejoin:round;" d="M228.379,302.888h-13.01c0,0-4.572,13.011-5.451,14.418c-0.878,1.405-3.164,7.735-2.637,8.966c0.528,1.231,4.748,5.451,4.748,5.451l12.835,1.23c0,0,3.516-5.803,3.692-8.968c0.175-3.164,0.175-8.79,0.175-8.79"></path><path style="fill:#F6B800;" d="M214.511,313.456c-0.52-0.283-1.073-0.424-1.632-0.438l-3.361,9.693c0.173,0.14,0.356,0.269,0.554,0.377c2.14,1.164,4.869-0.048,6.095-2.707C217.394,317.72,216.651,314.621,214.511,313.456z"></path><path style="fill:#505050;" d="M224.423,314.579c0,0-2.77,2.242-4.483,0.791c-2.506-0.659,1.45,9.758,1.45,9.758s-1.318,5.935-3.56,6.33c2.374,0.396,7.516,0.264,7.516,0.264l2.241-5.275L224.423,314.579z"></path><path style="fill:none;stroke:#000000;stroke-linecap:round;stroke-linejoin:round;" d="M219.588,317.656c0,0,5.977,4.923,6.681,8.439"></path></g></g><g><g><path style="fill:#6E6E6E;stroke:#000000;stroke-linecap:round;stroke-linejoin:round;" d="M277.124,338.402c0,0-12.482-1.529-27.122-1.529H250c-0.001,0-0.001,0-0.002,0c-14.64,0-27.122,1.529-27.122,1.529s-0.176,2.463,1.231,4.045h51.786C277.3,340.865,277.124,338.402,277.124,338.402z"></path><path style="fill:#6E6E6E;stroke:#000000;stroke-linecap:round;stroke-linejoin:round;" d="M275.041,327.503c0,0,1.582-5.626,1.23-10.726c-0.352-5.099-3.164-14.065-3.164-14.065c-7.143-1.299-21.02,3.545-23.107,4.296c-2.088-0.751-15.966-5.595-23.108-4.296c0,0-2.813,8.967-3.164,14.065c-0.352,5.1,1.23,10.726,1.23,10.726s-3.517,4.043-3.692,7.032c0.527,3.516,2.637,4.571,2.637,4.571s13.146-0.851,26.098-0.542c12.951-0.309,26.098,0.542,26.098,0.542s2.109-1.056,2.637-4.571C278.559,331.546,275.041,327.503,275.041,327.503z"></path><path style="fill:#505050;" d="M241.952,308.777c0,0,4.088,3.823,8.702,4.352c4.615,0.527,8.308-4.879,8.308-4.879L241.952,308.777z"></path></g><g><path style="fill:#F6B800;" d="M236.429,329.173c0.195,2.923-1.623,5.291-4.061,5.291c-2.437,0-4.569-2.368-4.763-5.291c-0.195-2.923,1.623-5.292,4.061-5.292C234.102,323.881,236.235,326.25,236.429,329.173z"></path><path style="fill:#F6B800;" d="M271.553,326.35c-1.464,2.537-4.29,3.497-6.316,2.144c-2.026-1.354-2.482-4.509-1.021-7.046c1.463-2.538,4.29-3.498,6.316-2.144C272.559,320.657,273.016,323.812,271.553,326.35z"></path><ellipse style="fill:#F6B800;" cx="255.576" cy="329.348" rx="4.412" ry="4.061"></ellipse><ellipse style="fill:#F6B800;" cx="261.744" cy="311.057" rx="6.711" ry="6.176"></ellipse><path style="fill:#F6B800;" d="M243.11,313.014c0,2.248-2.209,3.061-4.434,2.245c-1.813-0.664-3.318-2.314-3.668-3.911c-0.384-1.747,0.642-3.29,2.702-3.289C240.351,308.059,243.11,310.439,243.11,313.014z"></path></g><g><path style="fill:none;stroke:#000000;stroke-linecap:round;stroke-linejoin:round;" d="M255.449,311.679c0,0,3.693-3.341,8.088-4.396"></path><path style="fill:none;stroke:#000000;stroke-linecap:round;stroke-linejoin:round;" d="M236.462,306.932c0,0,6.33,3.341,8.439,5.1"></path></g><path style="fill:#6E6E6E;stroke:#000000;stroke-linecap:round;stroke-linejoin:round;" d="M273.699,301.657c-11.803,0.675-19.418,2.162-23.699,2.18c-4.281-0.018-11.897-1.505-23.7-2.18c-9.362-0.534-13.526,1.935-13.526,1.935l1.055,4.043c0,0,2.801-0.745,11.417-0.879c9.771-0.15,19.484,1.98,24.755,2.081c5.27-0.101,14.982-2.231,24.754-2.081c8.617,0.134,11.418,0.879,11.418,0.879l1.055-4.043C287.227,303.592,283.063,301.123,273.699,301.657z"></path></g></g></g></svg>