<svg xmlns="http://www.w3.org/2000/svg" width="500" height="500" version="1.1"><g id="x133"><g><g><g><path style="fill:#6E6E6E;stroke:#000000;stroke-linecap:round;stroke-linejoin:round;" d="M235.792,281.75c0,0-3.5,12.5-5,20.25c-2.5,0.5-3.25,0.75-3.25,0.75s3-15.75,5-19.25C233.542,281.25,235.792,281.75,235.792,281.75z"></path><path style="fill:#6E6E6E;stroke:#000000;stroke-linecap:round;stroke-linejoin:round;" d="M264.209,281.75c0,0,3.5,12.5,5,20.25c2.5,0.5,3.25,0.75,3.25,0.75s-3-15.75-5-19.25C266.459,281.25,264.209,281.75,264.209,281.75z"></path></g><g><path style="opacity:0.5;fill:#6E6E6E;" d="M230.75,302l-3.495,1.026c-0.704,1.049-1.413,2.249-2.005,3.557c-0.951,2.1-0.916,8.25-0.583,11.417c-1.167,4.75-2.583,11.083-2.5,14.583c-1.25,2.25-3.75,9.75-3.5,13.5c-2,5.5-6.417,25.334-6.167,35.334s6,17.25,6,17.25s-1.917-6.334,0.5-15c2.667-5,19-25.667,22.75-31.167s8.25-29,8.25-42C240.271,310.5,233.75,306.666,230.75,302z"></path><path style="opacity:0.5;fill:#6E6E6E;" d="M269.25,302l3.494,1.026c0.705,1.049,1.414,2.249,2.006,3.557c0.951,2.1,0.916,8.25,0.582,11.417c1.168,4.75,2.584,11.083,2.5,14.583c1.25,2.25,3.75,9.75,3.5,13.5c2,5.5,6.418,25.334,6.168,35.334s-6,17.25-6,17.25s1.916-6.334-0.5-15c-2.666-5-19-25.667-22.75-31.167s-8.251-29-8.251-42C259.729,310.5,266.25,306.666,269.25,302z"></path><path style="fill:none;stroke:#000000;stroke-linecap:round;stroke-linejoin:round;" d="M230.75,302l-3.495,1.026c-0.704,1.049-1.413,2.249-2.005,3.557c-0.951,2.1-0.916,8.25-0.583,11.417c-1.167,4.75-2.583,11.083-2.5,14.583c-1.25,2.25-3.75,9.75-3.5,13.5c-2,5.5-6.417,25.334-6.167,35.334s6,17.25,6,17.25s-1.917-6.334,0.5-15c2.667-5,19-25.667,22.75-31.167s8.25-29,8.25-42C240.271,310.5,233.75,306.666,230.75,302z"></path><path style="fill:#6E6E6E;stroke:#000000;stroke-linecap:round;stroke-linejoin:round;" d="M222,333.031c0,0,5-7.334,6.333-11.334"></path><path style="fill:none;stroke:#000000;stroke-linecap:round;stroke-linejoin:round;" d="M269.25,302l3.494,1.026c0.705,1.049,1.414,2.249,2.006,3.557c0.951,2.1,0.916,8.25,0.582,11.417c1.168,4.75,2.584,11.083,2.5,14.583c1.25,2.25,3.75,9.75,3.5,13.5c2,5.5,6.418,25.334,6.168,35.334s-6,17.25-6,17.25s1.916-6.334-0.5-15c-2.666-5-19-25.667-22.75-31.167s-8.251-29-8.251-42C259.729,310.5,266.25,306.666,269.25,302z"></path><path style="fill:#6E6E6E;stroke:#000000;stroke-linecap:round;stroke-linejoin:round;" d="M278,333.031c0,0-5-7.334-6.334-11.334"></path></g></g><g><path style="fill:#6E6E6E;stroke:#000000;stroke-linecap:round;stroke-linejoin:round;" d="M249.842,313.439c0.048,0.498-1.184,24.226-1.452,24.921c-1.065,1.107-2.457,0.571-2.457,0.571s1.63-19.581,2.961-24.898C248.61,314.563,249.842,313.439,249.842,313.439z"></path><path style="fill:#6E6E6E;stroke:#000000;stroke-linecap:round;stroke-linejoin:round;" d="M250.417,311.5c-0.167-0.834-1.834-0.333-1.834-0.333s-6.333,7.167-8.166,10c0,1.333,2.833,4.667,6.333,4.667c1.667-1.666,3.833-14,3.833-14L250.417,311.5z M245.75,322.667c-0.833-0.333-1.5-1.333-1.5-1.333s3.833-6.501,4.667-7.334C248.917,314,246.417,322.667,245.75,322.667z"></path><path style="fill:#6E6E6E;stroke:#000000;stroke-linecap:round;stroke-linejoin:round;" d="M250.147,313.474c-0.05,0.498,1.081,24.23,1.345,24.927c1.061,1.112,2.454,0.582,2.454,0.582s-1.547-19.587-2.854-24.911C251.374,314.603,250.147,313.474,250.147,313.474z"></path><path style="fill:#6E6E6E;stroke:#000000;stroke-linecap:round;stroke-linejoin:round;" d="M249.417,311.834c0,0,2.166,12.334,3.833,14c3.5,0,6.333-3.334,6.333-4.667c-1.833-2.833-8.166-10-8.166-10s-1.667-0.501-1.834,0.333L249.417,311.834z M251.083,314c0.834,0.833,4.667,7.334,4.667,7.334s-0.667,1-1.5,1.333C253.583,322.667,251.083,314,251.083,314z"></path><path style="fill:#6E6E6E;stroke:#000000;stroke-linecap:round;stroke-linejoin:round;" d="M249,311.126c-0.205,0.149-0.125,3.041,0.375,3.416s1.375,0.25,1.375,0.25s0.834-3.5,0.542-3.875S249.625,310.668,249,311.126z"></path></g></g></g></svg>