<svg xmlns="http://www.w3.org/2000/svg" width="500" height="500" version="1.1"><g id="x134"><g><g><path style="fill:#6E6E6E;stroke:#000000;stroke-linecap:round;stroke-linejoin:round;" d="M212.125,383.75c0,0-4.75-1-6.75-3.75c2-8.75,8-18,8-18L212.125,383.75z"></path><path style="fill:#6E6E6E;stroke:#000000;stroke-linecap:round;stroke-linejoin:round;" d="M287.875,383.75c0,0,4.75-1,6.75-3.75c-2-8.75-8-18-8-18L287.875,383.75z"></path></g><g><path style="fill:#6E6E6E;stroke:#000000;stroke-linecap:round;stroke-linejoin:round;" d="M285,351.75c-1.75-7.25-10.5-40.25-10.75-43.5s-6.25-23-8-25.25c-2.5-2.25-4.25-1.5-4.25-1.5s5.5,15,5,20c-2,2.75-8,4.5-17,4.5s-15-1.75-17-4.5c-0.5-5,5-20,5-20s-1.75-0.75-4.25,1.5c-1.75,2.25-7.75,22-8,25.25s-9,36.25-10.75,43.5s-4,31.5-4,31.5s5.25,4.5,11.75,3.25s27.25-5.25,27.25-5.25s20.75,4,27.25,5.25s11.75-3.25,11.75-3.25S286.75,359,285,351.75z"></path><path style="fill:#505050;" d="M244.75,368.25c0,0,3.25-32.25,5.75-33.75s5,35.5,2.25,36.25S244.25,370,244.75,368.25z"></path></g></g></g></svg>