<svg xmlns="http://www.w3.org/2000/svg" width="500" height="500" version="1.1"><g id="x135"><g><g><path style="opacity:0.59;fill:#6E6E6E;" d="M224,290.001c0,0-4.334,3.166-5.167,4.333s-1.333,3.333-1.333,4c-0.667,1.167-2.833,2.333-3,3.333s-0.834,4.001-0.167,5.334c-0.833,0.833-1.5,3-1.5,3s2.667,6.666,15.667,6.666c4.833-17,5.333-22.5,5.333-22.5L224,290.001z"></path><circle style="opacity:0.5;fill:#FFFFFF;" cx="216.86" cy="303.913" r="1.667"></circle><circle style="opacity:0.5;fill:#FFFFFF;" cx="220.867" cy="299.906" r="1.667"></circle><circle style="opacity:0.5;fill:#FFFFFF;" cx="224.874" cy="295.9" r="1.666"></circle><circle style="opacity:0.5;fill:#FFFFFF;" cx="217.096" cy="312.163" r="1.666"></circle><circle style="opacity:0.5;fill:#FFFFFF;" cx="221.103" cy="308.156" r="1.666"></circle><circle style="opacity:0.5;fill:#FFFFFF;" cx="225.11" cy="304.149" r="1.666"></circle><circle style="opacity:0.5;fill:#FFFFFF;" cx="225.345" cy="312.398" r="1.667"></circle><path style="fill:none;stroke:#000000;stroke-width:1.0795;stroke-linecap:round;stroke-linejoin:round;" d="M224,290.001c0,0-4.334,3.166-5.167,4.333s-1.333,3.333-1.333,4c-0.667,1.167-2.833,2.333-3,3.333s-0.834,4.001-0.167,5.334c-0.833,0.833-1.5,3-1.5,3s2.667,6.666,15.667,6.666c4.833-17,5.333-22.5,5.333-22.5L224,290.001z"></path><path style="fill:none;stroke:#000000;stroke-width:1.0795;stroke-linecap:round;stroke-linejoin:round;" d="M217.5,298.334c0,0,1,4.166,3,5.833"></path></g><g><path style="opacity:0.59;fill:#6E6E6E;" d="M276.001,290.001c0,0,4.334,3.166,5.166,4.333c0.834,1.167,1.334,3.333,1.334,4c0.666,1.167,2.832,2.333,3,3.333c0.166,1,0.834,4.001,0.166,5.334c0.834,0.833,1.5,3,1.5,3s-2.666,6.666-15.666,6.666c-4.834-17-5.334-22.5-5.334-22.5L276.001,290.001z"></path><circle style="opacity:0.5;fill:#FFFFFF;" cx="274.368" cy="297.316" r="1.666"></circle><circle style="opacity:0.5;fill:#FFFFFF;" cx="278.375" cy="293.31" r="1.666"></circle><circle style="opacity:0.5;fill:#FFFFFF;" cx="274.604" cy="305.565" r="1.666"></circle><circle style="opacity:0.5;fill:#FFFFFF;" cx="278.611" cy="301.559" r="1.666"></circle><path style="opacity:0.5;fill:#FFFFFF;" d="M281.76,296.129c-0.114,0.068-0.224,0.147-0.321,0.245c-0.65,0.65-0.65,1.705,0.001,2.356c0.443,0.443,1.071,0.576,1.634,0.416C282.154,298.474,281.643,297.433,281.76,296.129z"></path><circle style="opacity:0.5;fill:#FFFFFF;" cx="274.84" cy="313.815" r="1.666"></circle><circle style="opacity:0.5;fill:#FFFFFF;" cx="278.847" cy="309.808" r="1.666"></circle><circle style="opacity:0.5;fill:#FFFFFF;" cx="282.854" cy="305.802" r="1.666"></circle><path style="opacity:0.5;fill:#FFFFFF;" d="M284.268,312.873c-0.651-0.651-1.706-0.651-2.356-0.001c-0.574,0.574-0.64,1.464-0.199,2.112l2.81-1.773C284.451,313.091,284.37,312.976,284.268,312.873z"></path><path style="fill:none;stroke:#000000;stroke-width:1.0795;stroke-linecap:round;stroke-linejoin:round;" d="M276.001,290.001c0,0,4.334,3.166,5.166,4.333c0.834,1.167,1.334,3.333,1.334,4c0.666,1.167,2.832,2.333,3,3.333c0.166,1,0.834,4.001,0.166,5.334c0.834,0.833,1.5,3,1.5,3s-2.666,6.666-15.666,6.666c-4.834-17-5.334-22.5-5.334-22.5L276.001,290.001z"></path><path style="fill:none;stroke:#000000;stroke-width:1.0795;stroke-linecap:round;stroke-linejoin:round;" d="M282.501,298.334c0,0-1,4.166-3,5.833"></path></g></g><g><path style="fill:#6E6E6E;stroke:#000000;stroke-linecap:round;stroke-linejoin:round;" d="M281.333,338.501l-4-4.5c0,0-2.994-22.335-3.166-24.167c-0.5-5.333-3-14-3-14l4.666-5.833c0,0-7.166-8.5-16.666-9.167c0,0-0.334,15.333-9.167,22.333c-8.833-7-9.167-22.333-9.167-22.333c-9.5,0.667-16.667,9.167-16.667,9.167l4.667,5.833c0,0-2.5,8.667-3,14c-0.172,1.832-3.167,24.167-3.167,24.167l-4,4.5c0,0-0.667,2.166,1.333,4.833c1.833,0.667,30,1.833,30,1.833s28.167-1.166,29.999-1.833C281.999,340.667,281.333,338.501,281.333,338.501z"></path><circle style="opacity:0.5;fill:#FFFFFF;" cx="265.883" cy="288.831" r="1.666"></circle><g><g><circle style="opacity:0.5;fill:#FFFFFF;" cx="228.88" cy="291.893" r="1.666"></circle><circle style="opacity:0.5;fill:#FFFFFF;" cx="232.887" cy="287.886" r="1.666"></circle></g><g><path style="opacity:0.5;fill:#FFFFFF;" d="M230.294,298.964c-0.451-0.451-1.093-0.582-1.663-0.409l-0.687,2.771c0.651,0.645,1.701,0.644,2.35-0.005C230.945,300.67,230.945,299.614,230.294,298.964z"></path><circle style="opacity:0.5;fill:#FFFFFF;" cx="233.123" cy="296.136" r="1.666"></circle></g><g><circle style="opacity:0.5;fill:#FFFFFF;" cx="229.352" cy="308.392" r="1.667"></circle><circle style="opacity:0.5;fill:#FFFFFF;" cx="233.359" cy="304.385" r="1.666"></circle><circle style="opacity:0.5;fill:#FFFFFF;" cx="237.365" cy="300.378" r="1.666"></circle></g><g><path style="opacity:0.5;fill:#FFFFFF;" d="M226.76,319.47c-0.429-0.43-1.033-0.569-1.582-0.434l-0.378,3.075c0.63,0.336,1.428,0.246,1.959-0.285C227.41,321.175,227.41,320.12,226.76,319.47z"></path><circle style="opacity:0.5;fill:#FFFFFF;" cx="229.588" cy="316.641" r="1.666"></circle><circle style="opacity:0.5;fill:#FFFFFF;" cx="233.595" cy="312.634" r="1.666"></circle><circle style="opacity:0.5;fill:#FFFFFF;" cx="237.602" cy="308.627" r="1.666"></circle><circle style="opacity:0.5;fill:#FFFFFF;" cx="241.608" cy="304.621" r="1.666"></circle></g><g><circle style="opacity:0.5;fill:#FFFFFF;" cx="225.817" cy="328.897" r="1.666"></circle><circle style="opacity:0.5;fill:#FFFFFF;" cx="229.824" cy="324.89" r="1.666"></circle><circle style="opacity:0.5;fill:#FFFFFF;" cx="233.831" cy="320.884" r="1.667"></circle><circle style="opacity:0.5;fill:#FFFFFF;" cx="237.838" cy="316.877" r="1.667"></circle><circle style="opacity:0.5;fill:#FFFFFF;" cx="241.844" cy="312.871" r="1.666"></circle><circle style="opacity:0.5;fill:#FFFFFF;" cx="245.851" cy="308.864" r="1.666"></circle><circle style="opacity:0.5;fill:#FFFFFF;" cx="249.857" cy="304.857" r="1.666"></circle><path style="opacity:0.5;fill:#FFFFFF;" d="M268.711,286.003c0.602,0.602,1.546,0.64,2.199,0.128l-2.643-1.673C268.146,284.997,268.292,285.583,268.711,286.003z"></path></g><g><circle style="opacity:0.5;fill:#FFFFFF;" cx="222.046" cy="341.154" r="1.666"></circle><circle style="opacity:0.5;fill:#FFFFFF;" cx="226.053" cy="337.147" r="1.666"></circle><circle style="opacity:0.5;fill:#FFFFFF;" cx="230.06" cy="333.14" r="1.666"></circle><circle style="opacity:0.5;fill:#FFFFFF;" cx="234.067" cy="329.133" r="1.666"></circle><circle style="opacity:0.5;fill:#FFFFFF;" cx="238.073" cy="325.126" r="1.666"></circle><circle style="opacity:0.5;fill:#FFFFFF;" cx="242.08" cy="321.12" r="1.666"></circle><circle style="opacity:0.5;fill:#FFFFFF;" cx="246.087" cy="317.113" r="1.666"></circle><circle style="opacity:0.5;fill:#FFFFFF;" cx="250.094" cy="313.106" r="1.666"></circle><circle style="opacity:0.5;fill:#FFFFFF;" cx="254.1" cy="309.1" r="1.666"></circle><circle style="opacity:0.5;fill:#FFFFFF;" cx="258.106" cy="305.093" r="1.666"></circle><circle style="opacity:0.5;fill:#FFFFFF;" cx="262.113" cy="301.086" r="1.666"></circle><circle style="opacity:0.5;fill:#FFFFFF;" cx="266.119" cy="297.08" r="1.666"></circle><circle style="opacity:0.5;fill:#FFFFFF;" cx="270.125" cy="293.074" r="1.666"></circle><path style="opacity:0.5;fill:#FFFFFF;" d="M272.955,287.887c-0.001,0.001-0.001,0.001-0.002,0.002c-0.65,0.65-0.65,1.705,0.001,2.356c0.454,0.454,1.104,0.584,1.677,0.403l0.499-0.633L272.955,287.887z"></path></g><g><circle style="opacity:0.5;fill:#FFFFFF;" cx="230.296" cy="341.389" r="1.666"></circle><circle style="opacity:0.5;fill:#FFFFFF;" cx="234.302" cy="337.382" r="1.666"></circle><circle style="opacity:0.5;fill:#FFFFFF;" cx="238.309" cy="333.375" r="1.666"></circle><circle style="opacity:0.5;fill:#FFFFFF;" cx="242.316" cy="329.369" r="1.666"></circle><circle style="opacity:0.5;fill:#FFFFFF;" cx="246.323" cy="325.362" r="1.666"></circle><circle style="opacity:0.5;fill:#FFFFFF;" cx="250.33" cy="321.355" r="1.666"></circle><circle style="opacity:0.5;fill:#FFFFFF;" cx="254.336" cy="317.349" r="1.666"></circle><circle style="opacity:0.5;fill:#FFFFFF;" cx="258.342" cy="313.342" r="1.666"></circle><circle style="opacity:0.5;fill:#FFFFFF;" cx="262.349" cy="309.336" r="1.666"></circle><circle style="opacity:0.5;fill:#FFFFFF;" cx="266.355" cy="305.33" r="1.666"></circle><circle style="opacity:0.5;fill:#FFFFFF;" cx="270.362" cy="301.323" r="1.666"></circle></g><g><circle style="opacity:0.5;fill:#FFFFFF;" cx="238.545" cy="341.625" r="1.666"></circle><circle style="opacity:0.5;fill:#FFFFFF;" cx="242.552" cy="337.619" r="1.666"></circle><circle style="opacity:0.5;fill:#FFFFFF;" cx="246.559" cy="333.612" r="1.666"></circle><circle style="opacity:0.5;fill:#FFFFFF;" cx="250.566" cy="329.605" r="1.666"></circle><circle style="opacity:0.5;fill:#FFFFFF;" cx="254.572" cy="325.598" r="1.666"></circle><circle style="opacity:0.5;fill:#FFFFFF;" cx="258.579" cy="321.591" r="1.666"></circle><circle style="opacity:0.5;fill:#FFFFFF;" cx="262.585" cy="317.585" r="1.666"></circle><circle style="opacity:0.5;fill:#FFFFFF;" cx="266.591" cy="313.579" r="1.666"></circle><circle style="opacity:0.5;fill:#FFFFFF;" cx="270.598" cy="309.572" r="1.666"></circle></g><g><circle style="opacity:0.5;fill:#FFFFFF;" cx="246.795" cy="341.861" r="1.666"></circle><circle style="opacity:0.5;fill:#FFFFFF;" cx="250.801" cy="337.854" r="1.666"></circle><circle style="opacity:0.5;fill:#FFFFFF;" cx="254.808" cy="333.847" r="1.667"></circle><circle style="opacity:0.5;fill:#FFFFFF;" cx="258.814" cy="329.84" r="1.666"></circle><circle style="opacity:0.5;fill:#FFFFFF;" cx="262.821" cy="325.834" r="1.666"></circle><circle style="opacity:0.5;fill:#FFFFFF;" cx="266.828" cy="321.828" r="1.666"></circle><circle style="opacity:0.5;fill:#FFFFFF;" cx="270.834" cy="317.821" r="1.666"></circle></g><g><circle style="opacity:0.5;fill:#FFFFFF;" cx="255.043" cy="342.097" r="1.667"></circle><circle style="opacity:0.5;fill:#FFFFFF;" cx="259.05" cy="338.09" r="1.667"></circle><circle style="opacity:0.5;fill:#FFFFFF;" cx="263.057" cy="334.083" r="1.666"></circle><circle style="opacity:0.5;fill:#FFFFFF;" cx="267.063" cy="330.077" r="1.666"></circle><circle style="opacity:0.5;fill:#FFFFFF;" cx="271.07" cy="326.07" r="1.666"></circle><path style="opacity:0.5;fill:#FFFFFF;" d="M273.897,320.885c-0.65,0.65-0.65,1.706,0.001,2.357c0.423,0.423,1.016,0.565,1.559,0.439l-0.461-3.277C274.597,320.424,274.202,320.58,273.897,320.885z"></path></g><g><circle style="opacity:0.5;fill:#FFFFFF;" cx="263.293" cy="342.333" r="1.667"></circle><circle style="opacity:0.5;fill:#FFFFFF;" cx="267.299" cy="338.326" r="1.666"></circle><circle style="opacity:0.5;fill:#FFFFFF;" cx="271.306" cy="334.319" r="1.666"></circle><path style="opacity:0.5;fill:#FFFFFF;" d="M274.134,329.134c-0.65,0.65-0.65,1.706,0.001,2.357c0.65,0.65,1.705,0.65,2.356,0c0.021-0.021,0.035-0.045,0.054-0.066l-0.354-2.524C275.547,328.5,274.691,328.576,274.134,329.134z"></path></g><g><path style="opacity:0.5;fill:#FFFFFF;" d="M272.721,341.391c-0.651-0.651-1.706-0.651-2.357-0.001c-0.604,0.605-0.64,1.557-0.119,2.211l2.709-0.152C273.354,342.805,273.279,341.949,272.721,341.391z"></path><circle style="opacity:0.5;fill:#FFFFFF;" cx="275.549" cy="338.562" r="1.666"></circle></g><g><path style="opacity:0.5;fill:#FFFFFF;" d="M278.613,341.626c-0.397,0.396-0.549,0.943-0.462,1.458l1.722-0.244l0.621-1.539C279.877,341.012,279.122,341.117,278.613,341.626z"></path></g></g><path style="fill:none;stroke:#000000;stroke-linecap:round;stroke-linejoin:round;" d="M245.167,309.666c0,0,1.833,3.333,4.833,4.333"></path><path style="fill:none;stroke:#000000;stroke-linecap:round;stroke-linejoin:round;" d="M245.833,325.833c0,0,3-0.333,5.667-2"></path><path style="fill:none;stroke:#000000;stroke-linecap:round;stroke-linejoin:round;" d="M248.667,333.999c0,0,1.833,2.5,5.167,2.167"></path></g><g><circle style="fill:#6E6E6E;stroke:#000000;stroke-linecap:round;stroke-linejoin:round;" cx="250" cy="311.916" r="2.083"></circle><circle style="fill:#6E6E6E;stroke:#000000;stroke-linecap:round;stroke-linejoin:round;" cx="250" cy="322.416" r="2.083"></circle><circle style="fill:#6E6E6E;stroke:#000000;stroke-linecap:round;stroke-linejoin:round;" cx="250" cy="332.916" r="2.083"></circle></g></g></svg>