<svg xmlns="http://www.w3.org/2000/svg" width="500" height="500" version="1.1"><g id="x137"><g><g><g><g><path style="fill:#6E6E6E;stroke:#000000;stroke-width:1.0612;stroke-linecap:round;stroke-linejoin:round;" d="M212.575,309.75c0.285-0.569-1.561,4.648-1.561,4.648s1.686,1.977,6.811,3.977c5.009,1.954,7.71,1.668,7.71,1.668l2.117-3.655L212.575,309.75z"></path><g><g><path style="fill:#FFFFFF;stroke:#000000;stroke-width:1.0612;stroke-linecap:round;stroke-linejoin:round;" d="M221.589,292.491l-5.639,7.134c-3.25,1.875-4.297,2.822-4.25,3.75c0.125,2.5,0.125,5.375,0.625,7.25c5,4,14.625,5.75,14.625,5.75s2.556-1.129,3.625-4c1.07-2.872,0.519-10.448,0.519-10.448L221.589,292.491z"></path></g></g></g><g><path style="fill:#6E6E6E;stroke:#000000;stroke-width:1.0612;stroke-linecap:round;stroke-linejoin:round;" d="M287.425,309.75c-0.285-0.569,1.561,4.648,1.561,4.648s-1.686,1.977-6.811,3.977c-5.009,1.954-7.711,1.668-7.711,1.668l-2.116-3.655L287.425,309.75z"></path><g><g><path style="fill:#FFFFFF;stroke:#000000;stroke-width:1.0612;stroke-linecap:round;stroke-linejoin:round;" d="M278.411,292.491l5.639,7.134c3.25,1.875,4.297,2.822,4.25,3.75c-0.125,2.5-0.125,5.375-0.625,7.25c-5,4-14.625,5.75-14.625,5.75s-2.556-1.129-3.625-4c-1.07-2.872-0.519-10.448-0.519-10.448L278.411,292.491z"></path></g></g></g></g><path style="fill:#FFFFFF;stroke:#000000;stroke-width:1.0612;stroke-linecap:round;stroke-linejoin:round;" d="M270.83,317.908l-0.42-14.184c0,0-16.461,2.453-20.41,2.959c-3.951-0.506-20.412-2.959-20.412-2.959l-0.418,14.184c0,0-0.458,8.692,0.457,10.522h19.548c1.028,0,1.649,0,1.649,0h19.546C271.286,326.601,270.83,317.908,270.83,317.908z"></path></g><g><path style="fill:#FFFFFF;stroke:#FF0000;stroke-width:1.0612;stroke-linecap:round;stroke-linejoin:round;" d="M284.706,297.168c-0.15-1.068-3.507-2.287-3.813-3.508c-0.305-1.22-2.591-6.252-2.896-6.862c-0.306-0.609-6.253-2.135-6.253-2.135l2.135,2.593c0,0-6.366,9.011-23.88,9.288c-17.516-0.277-23.88-9.288-23.88-9.288l2.136-2.593c0,0-5.949,1.525-6.253,2.135c-0.305,0.61-2.593,5.643-2.897,6.862c-0.305,1.221-3.66,2.439-3.812,3.508c-0.153,1.068,1.219,4.27,1.828,4.727c7.595,7.079,26.378,7.858,32.054,7.929v0.001c0,0,0.292,0.007,0.825,0.005c0.532,0.002,0.825-0.005,0.825-0.005v-0.001c5.673-0.07,24.458-0.85,32.052-7.929C283.488,301.438,284.859,298.236,284.706,297.168z"></path><path style="fill:#6E6E6E;" d="M278.436,286.798L272.75,285l1.25,2.313c0,0-8.375,9.313-24,9.438c-15.625-0.125-24-9.438-24-9.438l1.25-2.313l-5.685,1.798c0,0-0.19-0.884-0.69,1.304c2.313,9.688,22.438,12.313,29.125,12.313s26.813-2.625,29.125-12.313C278.625,285.914,278.436,286.798,278.436,286.798z"></path><path style="fill:#6E6E6E;" d="M280.75,292.648c0,0-6,10.625-30.75,10.625s-30.75-10.625-30.75-10.625s-0.563,1.688-2.313,2.313c7.375,11.688,26.688,11.736,33.063,11.736s25.688-0.049,33.063-11.736C281.313,294.336,280.75,292.648,280.75,292.648z"></path><path style="fill:none;stroke:#000000;stroke-width:1.0612;stroke-linecap:round;stroke-linejoin:round;" d="M284.706,297.168c-0.15-1.068-3.507-2.287-3.813-3.508c-0.305-1.22-2.591-6.252-2.896-6.862c-0.306-0.609-6.253-2.135-6.253-2.135l2.135,2.593c0,0-6.366,9.011-23.88,9.288c-17.516-0.277-23.88-9.288-23.88-9.288l2.136-2.593c0,0-5.949,1.525-6.253,2.135c-0.305,0.61-2.593,5.643-2.897,6.862c-0.305,1.221-3.66,2.439-3.812,3.508c-0.153,1.068,1.219,4.27,1.828,4.727c7.595,7.079,26.378,7.858,32.054,7.929v0.001c0,0,0.292,0.007,0.825,0.005c0.532,0.002,0.825-0.005,0.825-0.005v-0.001c5.673-0.07,24.458-0.85,32.052-7.929C283.488,301.438,284.859,298.236,284.706,297.168z"></path></g><g><path style="fill:#6E6E6E;stroke:#000000;stroke-width:1.0612;stroke-linecap:round;stroke-linejoin:round;" d="M215.528,368.676v6.383c0,0,3.405,5.106,35.321,5.106c31.92,0,33.196-2.341,33.196-2.341V369.1C284.046,369.1,244.894,357.397,215.528,368.676z"></path><path style="fill:#505050;" d="M237.874,369.739c0,0,15.958,8.935,22.023,9.257c6.063,0.317,24.149-1.172,24.149-1.172l0.426-3.297C284.472,374.527,255.107,368.781,237.874,369.739z"></path></g><g><g><path style="fill:#6E6E6E;stroke:#000000;stroke-width:1.0612;stroke-linecap:round;stroke-linejoin:round;" d="M285.424,352.21c-1.352-8.206-7.449-21.96-7.449-21.96s-0.016-0.473-0.097-1.25h0.034c-0.226-1.267-0.63-4.898-1.362-6.508c0,0-5.739-35.221-6.507-37.523c-1.83-2.441-6.559-3.661-6.559-3.661l1.069,1.526l3.202,35.913c-2.621,2.135-2.746,3.735-17.783,3.735c-12.519,0-16.179-0.457-17.78-2.287l3.202-37.361l1.068-1.525c0,0-4.729,1.22-6.558,3.66c-0.769,2.303-6.509,37.523-6.509,37.523c-0.731,1.609-1.136,5.241-1.36,6.508h0.138c-0.081,0.777-0.097,1.25-0.097,1.25s-7.513,18.537-8.496,22.519s-0.608,11.981,3.102,19.206l23.438-2.424c11.497-0.187,42.303,5.11,42.303,5.11C285.476,368.25,286.607,357.617,285.424,352.21z"></path><path style="fill:#505050;" d="M224.985,326.475c-0.252-0.558,8.621,6.995,15.975,9.23c7.354,2.238,15.973,1.679,15.973,1.679s-16.479,8.67-21.804,7.552c-5.326-1.118-14.706-6.153-14.706-6.153l3.803-8.67L224.985,326.475z"></path><path style="fill:#505050;" d="M258.961,345.216c3.297-5.034,2.283-8.949,2.283-8.949c0-0.841,8.62-8.674,9.888-16.784c4.313,5.036,9.384,23.496,8.113,27.692c-1.267,4.195-5.576,6.152-8.62,6.432c-3.043,0.282-7.86-3.355-7.86-3.355C262.55,349.539,259.244,348,258.961,345.216z"></path><path style="fill:#505050;" d="M214.349,359.75c0,0,0.193,9.447,4.25,11.125c4.311,0.28,27.25-2.5,27.25-2.5l33.144,4.813c0,0,6.34-6.714,6.34-14.266c-1.775,4.196-6.845,8.39-14.707,6.433c-7.86-1.958-7.86-1.958-7.86-1.958s-12.931-8.112-21.297-8.952c-6.358-0.636-20.284,10.07-21.045,10.07C219.663,364.516,214.349,359.75,214.349,359.75z"></path><path style="fill:none;stroke:#000000;stroke-width:1.0612;stroke-linecap:round;stroke-linejoin:round;" d="M227.521,367.914c0,0,18.764-0.277,26.623,2.519"></path></g><g><circle style="fill:#C7D1D6;stroke:#000000;stroke-width:1.0612;stroke-linecap:round;stroke-linejoin:round;" cx="262.238" cy="331.176" r="4.232"></circle><circle style="fill:#C7D1D6;stroke:#000000;stroke-width:1.0612;stroke-linecap:round;stroke-linejoin:round;" cx="262.238" cy="346.044" r="4.232"></circle><circle style="fill:#C7D1D6;stroke:#000000;stroke-width:1.0612;stroke-linecap:round;stroke-linejoin:round;" cx="237.761" cy="331.176" r="4.232"></circle><circle style="fill:#C7D1D6;stroke:#000000;stroke-width:1.0612;stroke-linecap:round;stroke-linejoin:round;" cx="237.761" cy="346.044" r="4.232"></circle></g><g><path style="fill:none;stroke:#FFFFFF;stroke-linecap:round;stroke-linejoin:round;stroke-dasharray:1 3;" d="M271.503,323.627c0,0,1.132,9.51,1.602,13.267c0.228,1.831,7.091,5.948,7.091,5.948"></path><path style="fill:none;stroke:#FFFFFF;stroke-linecap:round;stroke-linejoin:round;stroke-dasharray:1 3;" d="M228.498,323.627c0,0-1.132,9.51-1.601,13.267c-0.229,1.831-7.093,5.948-7.093,5.948"></path><path style="fill:none;stroke:#FFFFFF;stroke-linecap:round;stroke-linejoin:round;stroke-dasharray:1 3;" d="M267.69,284.815c0,0,3.202,34.619,3.05,37.059c-1.438,0.286-10.8,2.867-19.979,2.876c-10.294,0.011-20.434-2.571-20.434-2.571s3.812-36.295,3.66-38.888"></path></g></g></g></g></svg>