<svg xmlns="http://www.w3.org/2000/svg" width="500" height="500" version="1.1"><g id="x138"><g><g><g><path style="fill:#6E6E6E;stroke:#000000;stroke-linecap:round;stroke-linejoin:round;" d="M228.75,299c0,0-3-9.25-4-9.75s-8,4.75-9.5,8.5s-0.5,9.25-0.5,9.25l-2.25,1.5c1,1,2.25,1,3.25,1.75s2.5-0.25,3.5,0.25s1.25,1.75,3.25,2.5s5.75-1.25,5.75-1.25L228.75,299z"></path><path style="fill:#505050;" d="M220.75,311.25c0,0-1.5-4-1.5-5.25s2.5-4,4-4s3,4,2.25,5.75S222,311.25,220.75,311.25z"></path></g><g><path style="fill:#6E6E6E;stroke:#000000;stroke-linecap:round;stroke-linejoin:round;" d="M272.25,299c0,0,3-9.25,4-9.75s8,4.75,9.5,8.5s0.5,9.25,0.5,9.25l2.25,1.5c-1,1-2.25,1-3.25,1.75s-2.5-0.25-3.5,0.25s-1.25,1.75-3.25,2.5s-5.75-1.25-5.75-1.25L272.25,299z"></path><path style="fill:#505050;" d="M280.25,311.25c0,0,1.5-4,1.5-5.25s-2.5-4-4-4s-3,4-2.25,5.75S279,311.25,280.25,311.25z"></path></g></g><path style="fill:#6E6E6E;stroke:#000000;stroke-linecap:round;stroke-linejoin:round;" d="M281.836,344.75c-0.25-1-2-4-2-4s-4.5-19.75-5-21.75c-4.75-2.25-24.836-2.9-24.836-2.9s-20.085,0.65-24.835,2.9c-0.5,2-5,21.75-5,21.75s-1.75,3-2,4s-0.25,2.5,0.25,3.25s8.252,5,31.585,5s31.086-4.25,31.586-5S282.086,345.75,281.836,344.75z"></path><g><path style="fill:#FFFFFF;stroke:#000000;stroke-linecap:round;stroke-linejoin:round;" d="M273.336,300.534l-23.496-2.252c-11.91,0-23.178,2.252-23.178,2.252s-2.541,7.084-2.541,11.591s0.862,9.98,0.862,9.98s7.152,0,14.555-1.29c7.405-1.288,13.518-1.288,20.923,0c7.404,1.29,14.554,1.29,14.554,1.29s0.864-5.474,0.864-9.98S273.336,300.534,273.336,300.534z"></path><path style="fill:#C7D1D6;" d="M240.167,320.209c0,0-2.917-3.333-2.667-4.25s5.708,2.584,5.833,3.792C242.417,319.834,240.167,320.209,240.167,320.209z"></path><path style="fill:#C7D1D6;" d="M259.988,320.209c0,0,2.916-3.333,2.666-4.25s-5.708,2.584-5.833,3.792C257.738,319.834,259.988,320.209,259.988,320.209z"></path><path style="fill:none;stroke:#000000;stroke-linecap:round;stroke-linejoin:round;" d="M239.217,319.528c0,0-1.932-2.252-1.932-3.863"></path><path style="fill:none;stroke:#000000;stroke-linecap:round;stroke-linejoin:round;" d="M260.784,319.528c0,0,1.931-2.252,1.931-3.863"></path></g><g><path style="fill:#FFFFFF;stroke:#000000;stroke-linecap:round;stroke-linejoin:round;" d="M273.982,299.248c-0.323-1.933-2.255-3.863-3.22-3.863c-0.967,0-2.898,2.574-2.898,2.574s0.109-3.402-0.965-4.183c-3.54-2.575-5.472-0.645-5.472-0.645c-1.288,0.966-2.898,3.22-5.152,2.896c-2.253-0.321-1.287-2.574-2.897-2.896c-1.607-0.323-3.537,0-5.147,0c-1.609,0-2.896,2.575-5.15,2.896c-2.253,0.323-3.863-1.931-5.152-2.896c0,0-1.929-1.931-5.471,0.645c-1.074,0.78-0.966,4.183-0.966,4.183s-1.931-2.574-2.898-2.574c-0.964,0-2.896,1.931-3.217,3.863c-0.324,1.931,1.609,2.574,1.609,2.574h0.645c12.232-4.506,22.208-1.609,22.208-1.609s9.659-2.896,21.889,1.609h0.646C272.373,301.822,274.305,301.179,273.982,299.248z"></path><path style="fill:#C7D1D6;" d="M261.719,293.5c0,0-0.743,5.281-2.031,5.281c-1.289,0-5.875,0.188-5.875,0.188l1-3c0,0,1.483,0.989,3.094,0.344C259.516,295.668,261.719,293.5,261.719,293.5z"></path><path style="fill:#C7D1D6;" d="M238,293.813c-0.578-0.492-1-0.688-1-0.688s1.557,5.656,2.844,5.656c2.094-0.125,6.031,0.281,6.031,0.281l-0.938-3.219c0,0-1.954,1.144-3.563,0.5C240.373,295.943,238.952,294.623,238,293.813z"></path></g></g></g></svg>