<svg xmlns="http://www.w3.org/2000/svg" width="500" height="500" version="1.1"><g id="x014"><g><g><path style="fill:#505050;stroke:#000000;stroke-linecap:round;stroke-linejoin:round;" d="M226.859,285.983c0,0,0.425-1.272,1.697-1.909s1.909-1.484,2.97-1.484s2.758-1.273,3.395-0.425s2.333,21.002,2.333,21.002l-4.879,1.272C232.375,304.439,226.436,288.953,226.859,285.983z"></path><path style="fill:none;stroke:#000000;stroke-linecap:round;stroke-linejoin:round;" d="M231.526,282.59c0,0,2.334,11.455,2.546,12.94"></path><path style="fill:#505050;stroke:#000000;stroke-linecap:round;stroke-linejoin:round;" d="M272.894,285.983c0,0-0.424-1.272-1.697-1.909c-1.272-0.637-1.909-1.484-2.97-1.484s-2.758-1.273-3.395-0.425c-0.636,0.849-2.333,21.002-2.333,21.002l4.879,1.272C267.378,304.439,273.318,288.953,272.894,285.983z"></path><path style="fill:none;stroke:#000000;stroke-linecap:round;stroke-linejoin:round;" d="M268.227,282.59c0,0-2.334,11.455-2.546,12.94"></path></g></g><g><g><path style="fill:#505050;stroke:#000000;stroke-linecap:round;stroke-linejoin:round;" d="M277.044,325.732c-0.475-1.186-2.373-8.305-2.373-8.305c-3.179-2.044-23.094-1.044-24.794-0.955c-1.701-0.089-21.616-1.089-24.795,0.955c0,0-1.898,7.119-2.373,8.305c-1.424,2.61-2.61,5.932-2.61,5.932s2.61,3.322,7.355,2.611c0.238-1.187,0.475-1.898,0.475-1.898s3.322-0.713,4.508,0.474c1.186,1.188,2.847,3.798,6.169,3.561s1.424-2.849,3.084-2.849c1.476,0,6.876,0.749,8.067,0.916v0.034c0,0,0.044-0.007,0.119-0.018c0.074,0.011,0.118,0.018,0.118,0.018v-0.034c1.192-0.167,6.593-0.916,8.067-0.916c1.661,0-0.237,2.611,3.084,2.849c3.322,0.237,4.984-2.373,6.17-3.561c1.187-1.187,4.508-0.474,4.508-0.474s0.238,0.712,0.475,1.898c4.745,0.711,7.356-2.611,7.356-2.611S278.468,328.343,277.044,325.732z"></path><path style="fill:#505050;" d="M241.928,327.157l-0.949,5.932c0,0,2.61-0.476,9.017-0.476s8.067-0.236,8.067-0.236l-1.187-6.406L241.928,327.157z"></path><path style="fill:none;stroke:#000000;stroke-linecap:round;stroke-linejoin:round;" d="M227.454,333.089c0,0,0.238-5.695,3.322-10.202"></path><path style="fill:none;stroke:#000000;stroke-linecap:round;stroke-linejoin:round;" d="M239.792,334.038c0,0,2.61-6.881,2.135-10.915"></path><path style="fill:none;stroke:#000000;stroke-linecap:round;stroke-linejoin:round;" d="M272.299,333.089c0,0-0.236-5.695-3.321-10.202"></path><path style="fill:none;stroke:#000000;stroke-linecap:round;stroke-linejoin:round;" d="M259.961,334.038c0,0-2.61-6.881-2.136-10.915"></path></g><path style="fill:#505050;stroke:#000000;stroke-linecap:round;stroke-linejoin:round;" d="M226.031,301.294c0,0,3.084-4.745,7.355-4.982c1.977-1.028,2.769-0.237,3.859,0.148c4.371,0.489,9.843,2.046,12.513,5.071c0,4.508,0,14.947,0,14.947s-4.271,2.849-13.288,2.849c-2.135,0.395-2.689,1.186-6.327-0.237c-4.271-0.543-5.062-1.662-5.062-1.662S223.42,311.022,226.031,301.294z"></path><path style="fill:#505050;" d="M231.488,318.14c0,0-2.848-2.609-2.373-4.507C231.488,313.869,231.488,316.241,231.488,318.14z"></path><path style="fill:none;stroke:#000000;stroke-linecap:round;stroke-linejoin:round;" d="M230.301,319.09c0,0-3.084-3.085-2.847-4.509"></path><path style="fill:#505050;stroke:#000000;stroke-linecap:round;stroke-linejoin:round;" d="M273.723,301.294c0,0-2.555-3.931-6.235-4.816c-0.362-0.088-0.736-0.145-1.12-0.166c-1.424-0.791-2.179-0.022-3.493,0.109c-4.427,0.44-10.134,2-12.879,5.11c0,4.508,0,14.947,0,14.947s4.271,2.849,13.287,2.849c2.825,0,4.113,1.186,6.649-0.442c3.622-0.561,4.739-1.457,4.739-1.457S276.333,311.022,273.723,301.294z"></path><path style="fill:#505050;" d="M268.449,318.14c0,0,2.847-2.609,2.372-4.507C268.449,313.869,268.449,316.241,268.449,318.14z"></path><path style="fill:none;stroke:#000000;stroke-linecap:round;stroke-linejoin:round;" d="M267.554,297.023c0,0,2.135,3.321,2.135,4.981"></path><path style="fill:none;stroke:#000000;stroke-linecap:round;stroke-linejoin:round;" d="M269.452,319.09c0,0,3.084-3.085,2.847-4.509"></path><g><path style="fill:#505050;stroke:#000000;stroke-linecap:round;stroke-linejoin:round;" d="M243.115,327.157c0,0,1.897,4.033,3.322,4.033c-3.085,0.474-7.593-0.237-8.543-0.949c1.425-8.304,2.848-16.608,4.272-19.219c1.423-2.609,5.457-4.271,5.457-4.271L243.115,327.157z"></path><path style="fill:#505050;stroke:#000000;stroke-linecap:round;stroke-linejoin:round;" d="M257.113,327.157c0,0-1.898,4.033-3.321,4.033c3.084,0.474,7.592-0.237,8.541-0.949c-1.423-8.304-2.848-16.608-4.271-19.219c-1.423-2.609-5.457-4.271-5.457-4.271L257.113,327.157z"></path><path style="fill:#505050;stroke:#000000;stroke-linecap:round;stroke-linejoin:round;" d="M254.741,307.464c0,0-0.712-2.848-4.509-4.271c-3.795,1.424-4.507,4.271-4.507,4.271s-3.322,17.083-2.61,19.693c1.423,1.186,7.117,2.609,7.117,2.609s5.695-1.424,7.119-2.609C258.063,324.547,254.741,307.464,254.741,307.464z"></path><path style="fill:#505050;" d="M249.046,308.887c0,0-0.949,17.084,0.712,17.321c1.662,0.236,2.373-16.372,2.373-16.372L249.046,308.887z"></path></g><g><path style="fill:#6E6E6E;stroke:#000000;stroke-linecap:round;stroke-linejoin:round;" d="M248.809,307.464c0,0-10.677,6.405-11.863,5.456c-1.188-0.949-0.238-7.354-0.238-7.354s-1.898-3.085,0.238-5.458c2.135-2.373,12.1,2.136,12.1,2.136L248.809,307.464z"></path><path style="fill:none;stroke:#000000;stroke-linecap:round;stroke-linejoin:round;" d="M240.504,306.039c0,0,3.796-1.897,5.932-1.423"></path><path style="fill:#6E6E6E;stroke:#000000;stroke-linecap:round;stroke-linejoin:round;" d="M251.591,307.464c0,0,10.677,6.405,11.863,5.456s0.237-7.354,0.237-7.354s1.898-3.085-0.237-5.458c-2.135-2.373-12.102,2.136-12.102,2.136L251.591,307.464z"></path><path style="fill:none;stroke:#000000;stroke-linecap:round;stroke-linejoin:round;" d="M252.605,305.803c0,0,4.034-1.898,6.644-0.713"></path><path style="fill:#6E6E6E;stroke:#000000;stroke-linecap:round;stroke-linejoin:round;" d="M253.555,303.43c-0.238-1.425-3.797-1.662-3.797-1.662s-3.559,0.237-3.797,1.662c-0.236,1.424,0.713,5.933,1.425,6.406c0.711,0.474,1.898,0.474,1.898,0.474l0.474,0.238l0.474-0.238c0,0,1.188,0,1.899-0.474C252.843,309.362,253.792,304.854,253.555,303.43z"></path></g><path style="fill:none;stroke:#000000;stroke-linecap:round;stroke-linejoin:round;" d="M233.386,296.312c0,0-2.373,2.848-2.373,6.405"></path></g></g></svg>