<svg xmlns="http://www.w3.org/2000/svg" width="500" height="500" version="1.1"><g id="x140"><g><g><g><path style="fill:#6E6E6E;stroke:#000000;stroke-linecap:round;stroke-linejoin:round;" d="M230.333,284.368c0,0-6.666,4.666-9.666,8.333s-11.713,29.105-13,31.667c-3.667,7.299-4.667,9.299-10.334,16.299c-1.333,5.333,1.334,9.034,1.334,9.034l13,3.667l20.666-51L230.333,284.368z"></path><path style="fill:#6E6E6E;stroke:#000000;stroke-linecap:round;stroke-linejoin:round;" d="M196.667,353.667c0,0,1.333-4.334,2.333-5.334c3.667,0,11,3,11.667,4.667c0,2.333-2,6.333-2,6.333L196.667,353.667z"></path></g><g><path style="fill:#6E6E6E;stroke:#000000;stroke-linecap:round;stroke-linejoin:round;" d="M269.666,284.368c0,0,6.667,4.666,9.667,8.333s11.713,29.105,13,31.667c3.666,7.299,4.666,9.299,10.333,16.299c1.333,5.333-1.333,9.034-1.333,9.034l-13,3.667l-20.667-51L269.666,284.368z"></path><path style="fill:#6E6E6E;stroke:#000000;stroke-linecap:round;stroke-linejoin:round;" d="M303.333,353.667c0,0-1.334-4.334-2.334-5.334c-3.666,0-11,3-11.666,4.667c0,2.333,2,6.333,2,6.333L303.333,353.667z"></path></g></g><g><path style="fill:#6E6E6E;stroke:#000000;stroke-linecap:round;stroke-linejoin:round;" d="M271,285.333c-2-2.666-6-3.666-6-3.666S262.333,294,250,294s-15-12.333-15-12.333s-4,1-6,3.666c-11,26-24,92-23,96.667c1,1.333,7.333,1.667,11,2.667s9.667-3,16.333-3c4,4,16.667,3,16.667,3s12.667,1,16.667-3c6.667,0,12.666,4,16.333,3s10-1.334,11-2.667C295,377.333,282,311.333,271,285.333z"></path><path style="fill:#505050;" d="M230.333,341.667c0,0,5,15.667,18.333,18c6-1,17-9.001,18-22.334c-8.333,9.334-10.336,14.893-18,14.667C237.333,351.667,230.333,341.667,230.333,341.667z"></path><path style="fill:none;stroke:#000000;stroke-linecap:round;stroke-linejoin:round;" d="M227.667,331.667c0,0,1.666,22.333,19.667,28.333"></path><path style="fill:none;stroke:#000000;stroke-linecap:round;stroke-linejoin:round;" d="M251,354.667c0,0,13.001-0.666,16.334-22"></path></g></g></g></svg>