<svg xmlns="http://www.w3.org/2000/svg" width="500" height="500" version="1.1"><g id="x141"><g><g><path style="fill:#6E6E6E;stroke:#000000;stroke-linecap:round;stroke-linejoin:round;" d="M250,361.834l-17.5,2c0,0,9.667,8.499,14.167,9.333c1.667,0,3.333,0,3.333,0s1.667,0,3.333,0c4.5-0.834,14.167-9.333,14.167-9.333L250,361.834z"></path><line style="fill:none;stroke:#000000;stroke-linecap:round;stroke-linejoin:round;" x1="244" y1="371.836" x2="256" y2="371.836"></line></g><g><path style="fill:#6E6E6E;stroke:#000000;stroke-linecap:round;stroke-linejoin:round;" d="M283.667,355.501c-1.668-9.833-8.5-27.834-8.5-27.834l-0.098,0.049c-0.308-4.068-1.235-16.598-1.235-19.38c0-3.333-1.334-3.667-3-11.334c-1.334-4.667-4-14-4-14l-4.334-1.333c0,0,1.667,9,1,12.667c-0.666,3.667-14,4.333-14,4.333s-13.334-0.666-14-4.333c-0.667-3.667,1-12.667,1-12.667l-4.333,1.333c0,0-2.667,9.333-4,14c-1.667,7.667-3,8.001-3,11.334s-1.334,20.666-1.334,20.666s-2.38,7.25-4.552,14.907c-1.26,4.125-2.392,8.313-2.947,11.592c-0.833,2-1.167,3.166-1.167,3.166l1.333,2c0,0,6.833,4.5,33.5,4.5s33.499-4.5,33.499-4.5l1.334-2C284.833,358.667,284.499,357.501,283.667,355.501z"></path><path style="fill:none;stroke:#000000;stroke-linecap:round;stroke-linejoin:round;" d="M217.333,357.667c0,0,6.167,4.834,32.5,4.834s32.833-4.834,32.833-4.834"></path><g><path style="fill:none;stroke:#000000;stroke-linecap:round;stroke-linejoin:round;" d="M226.833,303.834c0,0,2.833,2.667,4.333,3.667c-0.167,6-0.833,19.666-0.667,20.333c-0.612,3.517-2.626,21.483-3.212,32.664"></path><path style="fill:none;stroke:#000000;stroke-linecap:round;stroke-linejoin:round;" d="M273.167,303.834c0,0-2.834,2.667-4.334,3.667c0.167,6,0.834,19.666,0.667,20.333c0.612,3.517,2.627,21.487,3.212,32.667"></path></g><path style="fill:#FFFFFF;stroke:#000000;stroke-linecap:round;stroke-linejoin:round;" d="M282.5,349.834c0,0-4.832,2.667-6.166,2.667c0.333,2.166,0.666,4.5,0.666,4.5s5.167-1.166,6.667-2.5C283.5,352.167,282.5,349.834,282.5,349.834z"></path></g></g><g><g><path style="fill:#6E6E6E;stroke:#000000;stroke-linecap:round;stroke-linejoin:round;" d="M250.5,361.834l-17.5,2c0,0,9.667,8.499,14.167,9.333c1.667,0,3.333,0,3.333,0s1.667,0,3.333,0c4.5-0.834,14.167-9.333,14.167-9.333L250.5,361.834z"></path><line style="fill:none;stroke:#000000;stroke-linecap:round;stroke-linejoin:round;" x1="240.892" y1="369.836" x2="260.108" y2="369.836"></line></g><g><path style="fill:#6E6E6E;stroke:#000000;stroke-linecap:round;stroke-linejoin:round;" d="M284.167,355.501c-1.668-9.833-8.5-27.834-8.5-27.834l-0.098,0.049c-0.308-4.068-1.235-16.598-1.235-19.38c0-3.333-1.334-3.667-3-11.334c-1.334-4.667-4-14-4-14L263,281.669c0,0,1.667,9,1,12.667c-0.666,3.667-14,4.333-14,4.333s-13.334-0.666-14-4.333c-0.667-3.667,1-12.667,1-12.667l-4.333,1.333c0,0-2.667,9.333-4,14c-1.667,7.667-3,8.001-3,11.334s-1.334,20.666-1.334,20.666s-2.38,7.25-4.552,14.907c-1.26,4.125-2.392,8.313-2.947,11.592c-0.833,2-1.167,3.166-1.167,3.166l1.333,2c0,0,6.833,4.5,33.5,4.5s33.499-4.5,33.499-4.5l1.334-2C285.333,358.667,284.999,357.501,284.167,355.501z"></path><ellipse style="fill:#505050;" cx="250" cy="340.834" rx="1.167" ry="2.667"></ellipse><path style="fill:none;stroke:#000000;stroke-linecap:round;stroke-linejoin:round;" d="M217.833,357.667c0,0,6.167,4.834,32.5,4.834s32.833-4.834,32.833-4.834"></path><g><path style="fill:none;stroke:#000000;stroke-linecap:round;stroke-linejoin:round;" d="M227.333,303.834c0,0,2.833,2.667,4.333,3.667c-0.167,6-0.833,19.666-0.667,20.333c-0.612,3.517-2.626,21.483-3.212,32.664"></path><path style="fill:none;stroke:#000000;stroke-linecap:round;stroke-linejoin:round;" d="M273.667,303.834c0,0-2.834,2.667-4.334,3.667c0.167,6,0.834,19.666,0.667,20.333c0.612,3.517,2.627,21.487,3.212,32.667"></path></g><path style="fill:#FFFFFF;stroke:#000000;stroke-linecap:round;stroke-linejoin:round;" d="M283,349.834c0,0-4.832,2.667-6.166,2.667c0.333,2.166,0.666,4.5,0.666,4.5s5.167-1.166,6.667-2.5C284,352.167,283,349.834,283,349.834z"></path></g></g></g></svg>