<svg xmlns="http://www.w3.org/2000/svg" width="500" height="500" version="1.1"><g id="x142"><g><path style="fill:#6E6E6E;stroke:#000000;stroke-linecap:round;stroke-linejoin:round;" d="M250,363.75c0,0-20.125-1.875-34.125-1.875c2.875,3.5,32.25,11,32.25,11h3.75c0,0,29.375-7.5,32.25-11C270.125,361.875,250,363.75,250,363.75z"></path><path style="fill:#6E6E6E;stroke:#000000;stroke-linecap:round;stroke-linejoin:round;" d="M276,328.25c-0.375-1.25-1-9.25-1.375-13.875s-1-10.125-1-10.125s-3.5-6.25-7.125-9.25c-2,1.375-16.5,4-16.5,4s-14.5-2.625-16.5-4c-3.625,3-7.125,9.25-7.125,9.25s-0.625,5.5-1,10.125s-1,12.625-1.375,13.875s-7.125,18.625-8.125,33.625L250,363.75l34.125-1.875C283.125,346.875,276.375,329.5,276,328.25z"></path><path style="fill:#FFFFFF;stroke:#000000;stroke-linecap:round;stroke-linejoin:round;" d="M272.875,301.125c-0.25-0.875-4.375-7-4.375-7s-1.875-9.875-2.375-11.75c-1.125-1.75-2.625-0.875-2.625-0.875s2.125,9.25,1.875,12.625c-3.5,2.375-10.625,2.625-15.375,2.625s-11.875-0.25-15.375-2.625c-0.25-3.375,1.875-12.625,1.875-12.625s-1.5-0.875-2.625,0.875c-0.5,1.875-2.375,11.75-2.375,11.75s-4.125,6.125-4.375,7s-0.75,3.875-0.75,3.875s6.125-7.25,7.375-8.625C238.375,299.125,250,299,250,299s11.625,0.125,16.25-2.625c1.25,1.375,7.375,8.625,7.375,8.625S273.125,302,272.875,301.125z"></path></g></g></svg>