<svg xmlns="http://www.w3.org/2000/svg" width="500" height="500" version="1.1"><g id="x143"><g><g><path style="fill:#6E6E6E;stroke:#000000;stroke-linecap:round;stroke-linejoin:round;" d="M228,314c0,0-14-5.333-14.667-7s0.333-3,0.333-3c2-1.667,0.333-5.667,3.667-9s5.667-3.333,5.667-3.333l8.667,4L228,314z"></path><path style="fill:#6E6E6E;stroke:#000000;stroke-linecap:round;stroke-linejoin:round;" d="M272,314c0,0,14-5.333,14.666-7c0.667-1.667-0.333-3-0.333-3c-2-1.667-0.333-5.667-3.667-9c-3.333-3.333-5.666-3.333-5.666-3.333l-8.667,4L272,314z"></path></g><g><g><path style="fill:#505050;stroke:#000000;stroke-linecap:round;stroke-linejoin:round;" d="M290.999,379L250,375.333L209,379c0,0-1.333,4.999-0.333,6.333c3-0.333,13.666-0.999,18.333,0.334s17.667,2,23,2c5.333,0,18.333-0.667,22.999-2c4.668-1.333,15.334-0.667,18.334-0.334C292.333,383.999,290.999,379,290.999,379z"></path><g><path style="fill:#6E6E6E;" d="M276.667,331c-1-4-1.6-16-2.6-25.333c-0.463-4.322-3.4-10.667-3.4-10.667L250,300.667L229.333,295c0,0-2.938,6.345-3.4,10.667c-1,9.333-1.6,21.333-2.6,25.333c-9.666,17-17,50-17,50s1.333,0.333,3-0.333s15.333-0.667,21,0.666S250,381,250,381s14,1.666,19.667,0.333s19.333-1.332,21-0.666s3,0.333,3,0.333S286.334,348,276.667,331z"></path><g><g><g><path style="fill:#8C8C8C;" d="M228.305,298.667c0,0-2.135,1.667-2.401,7s-0.266,18.666-1.933,22.333s-16.334,41-17.667,53c4-0.667,8.333-1,8.333-1s5.333-28.333,14.333-50.333c3.667-8.334,2-24,2-24l2-7.334L228.305,298.667z"></path><path style="fill:#8C8C8C;" d="M271.692,298.667c0,0,2.135,1.667,2.401,7s0.267,18.666,1.933,22.333s16.334,41,17.667,53c-4.001-0.667-8.333-1-8.333-1s-5.334-28.333-14.334-50.333c-3.666-8.334-2-24-2-24l-2-7.334L271.692,298.667z"></path></g><path style="fill:#8C8C8C;" d="M290,375.333c0,0-5.667-2.333-10-1.666s-9.139,1.528-14.334,2C259.25,376.25,250,375.333,250,375.333s-9.25,0.917-15.667,0.334c-5.194-0.472-10-1.333-14.333-2s-10,1.666-10,1.666l-2,5.334c0,0,5.042-1,11.375-0.667s12.958,2,14.958,2S250,381,250,381s13.666,1,15.666,1s8.626-1.667,14.959-2S292,380.667,292,380.667L290,375.333z"></path><path style="fill:#666666;" d="M215.938,373.688c0,0-1.313,6.125-1.438,6.25S206.125,381,206.125,381s1.125-6,1.375-6.313C209.25,374.063,215.688,373.375,215.938,373.688z"></path><path style="fill:#8C8C8C;" d="M283.855,353.763c-1.281-0.149-2.615-0.201-3.855-0.096c-5.375,0.458-8.5,0.958-14.334,2c-5.833,1.042-15.666-0.334-15.666-0.334s-9.833,1.376-15.667,0.334c-5.833-1.042-8.958-1.542-14.333-2c-1.24-0.105-2.575-0.054-3.855,0.096l-1.889,5.965c1.522-0.111,3.238-0.157,5.077-0.061c6.333,0.333,7.959,1.708,15,2.333c7.042,0.625,15.667-1,15.667-1s8.625,1.625,15.666,1c7.042-0.625,8.668-2,15-2.333c1.84-0.097,3.556-0.051,5.078,0.061L283.855,353.763z"></path><path style="fill:#666666;" d="M220.906,353.656c0,0-1.428,5.803-1.573,6.011c-0.958-0.167-6.489-0.698-6.833-1.073c0.656-2.031,1.906-5.438,1.906-5.438S218.156,353.313,220.906,353.656z"></path><path style="fill:#666666;" d="M284.092,373.688c0,0,1.313,6.125,1.438,6.25s8.375,1.063,8.375,1.063s-1.125-6-1.375-6.313C290.779,374.063,284.342,373.375,284.092,373.688z"></path><path style="fill:#666666;" d="M279.123,353.656c0,0,1.428,5.803,1.573,6.011c0.958-0.167,6.489-0.698,6.833-1.073c-0.656-2.031-1.906-5.438-1.906-5.438S281.873,353.313,279.123,353.656z"></path></g><g><polygon style="fill:#E03D40;" points="274.333,307.667 225.667,307.667 225.333,313.167 274.667,313.167 "></polygon><path style="fill:#E03D40;" d="M260.334,301.167c0,0,1.167,6.832,1,9.166S260.5,325,260.667,328s6.167,26.834,7.167,33.667s1.666,20.166,1.666,20.166l4.834-1.166c0,0-0.5-12.667-1.667-19.667s-7.501-30.167-7.667-32.667s1.001-17.5,0.834-19s-1.167-10-1.167-10L260.334,301.167z"></path></g></g><path style="fill:none;stroke:#000000;stroke-linecap:round;stroke-linejoin:round;" d="M276.667,331c-1-4-1.6-16-2.6-25.333c-0.463-4.322-3.4-10.667-3.4-10.667L250,300.667L229.333,295c0,0-2.938,6.345-3.4,10.667c-1,9.333-1.6,21.333-2.6,25.333c-9.666,17-17,50-17,50s1.333,0.333,3-0.333s15.333-0.667,21,0.666S250,381,250,381s14,1.666,19.667,0.333s19.333-1.332,21-0.666s3,0.333,3,0.333S286.334,348,276.667,331z"></path></g><path style="fill:#FFFFFF;stroke:#000000;stroke-linecap:round;stroke-linejoin:round;" d="M266,283c-2.666,7.667-16,7.667-16,7.667s-13.333,0-16-7.667c-6,2.333-10.667,6.001-12,8.667c0,1.333,8,11,28,11s28-9.667,28-11C276.667,289.001,272,285.333,266,283z"></path></g><g><g><path style="fill:#E4BC96;stroke:#000000;stroke-linecap:round;stroke-linejoin:round;" d="M234.248,296.579c0,0,6.279-0.947,7.292,1.357c1.012,2.304-4.487,10.97-7.193,8.656c-3.625-3.096-2.071-6.333-2.071-6.333L234.248,296.579z"></path><path style="fill:none;stroke:#000000;stroke-linecap:round;stroke-linejoin:round;" d="M234.237,299.596c0,0,2.619,0,3.333,1.429"></path></g><path style="fill:#E4BC96;stroke:#000000;stroke-linecap:round;stroke-linejoin:round;" d="M232.98,295.711c0,0-2.64-5.775-5.123-5.361c-2.483,0.411-7.331,9.171-3.803,9.635c3.529,0.466,6.922-0.61,6.922-0.61L232.98,295.711z"></path><path style="fill:none;stroke:#000000;stroke-linecap:round;stroke-linejoin:round;" d="M227,295c0,0,2.667,0.999,3.333,2.333"></path><path style="fill:#E4BC96;stroke:#000000;stroke-linecap:round;stroke-linejoin:round;" d="M234.817,296.875c0,1.092-1.091,4.369-2.729,4.641c-1.639,0.273-2.457-1.364-2.457-1.364s-0.272-4.096,2.186-5.461C233.267,293.885,234.817,296.875,234.817,296.875z"></path></g></g></g></g></svg>