<svg xmlns="http://www.w3.org/2000/svg" width="500" height="500" version="1.1"><g id="x144"><g><g><g><g><path style="fill:#FFFFFF;stroke:#000000;stroke-linecap:round;stroke-linejoin:round;" d="M229.5,295.333c0,0-3.667,7.667-3.667,11s0.333,5.333,0.333,5.333s16.167,2,23.833,0.667c0-6.333-3.5-7.833-3.5-7.833s0.333-4.167-4-6c-3.649-1.544-4.833-0.334-4.833-0.334S236.167,294.5,229.5,295.333z"></path><path style="fill:#6E6E6E;" d="M226.6,311.833c0.333-0.5-1.767-8.333,1.9-12.833c4.333-0.167,8.333,2.499,8.5,3.166c2,0,6.167,0.834,6.833,4.334c2,1.333,2.833,2.5,3,5C244,310.833,226.6,311.833,226.6,311.833z"></path></g><g><g><path style="fill:#6E6E6E;stroke:#000000;stroke-linecap:round;stroke-linejoin:round;" d="M226.167,311.666c0,0-1.667,14.501-2,15.834s-12.833,22.334-14.5,23.5c0.333,3,4.333,3.666,4.333,3.666c-1.5,1.834-1.667,3-1.667,3s6.166,1.168,7.333,2.334s5.167,5.666,14.167,4.666c0-4.5,0.833-6,0.833-6S240.5,356.5,242.5,358c4.167-5.167,7.5-40.834,7.5-45.667C240.833,310.833,226.167,311.666,226.167,311.666z"></path><path style="fill:#505050;" d="M232.5,313.666c0,0-1,6.5-2.5,8.5c-1.5-4-1.851-9.891-1.851-9.891L232.5,313.666z"></path><path style="fill:#FFFFFF;stroke:#000000;stroke-linecap:round;stroke-linejoin:round;" d="M232.667,314.833c0,0-0.5,4.833-2.667,8.167"></path><path style="fill:#505050;" d="M220,359.333c0,0,2.5,2.667,3.833,3.167c1.833-3.167,4.833-11.834,3.833-12.5S220,359.333,220,359.333z"></path><g><path style="fill:#505050;stroke:#000000;stroke-linecap:round;stroke-linejoin:round;" d="M234.167,359c0,0-1.166-5.834,0.167-6.667s7.333,3.167,8.167,5C240.667,357.5,234.167,359,234.167,359z"></path><path style="fill:#FFFFFF;stroke:#000000;stroke-linecap:round;stroke-linejoin:round;" d="M233.833,353.132c0,0,2.5-4,4.833-8.5"></path></g></g><path style="fill:none;stroke:#000000;stroke-linecap:round;stroke-linejoin:round;" d="M221,343.666c-2.833,5.166-7,11-7,11"></path></g></g><g><g><path style="fill:#FFFFFF;stroke:#000000;stroke-linecap:round;stroke-linejoin:round;" d="M270.5,295.333c0,0,3.666,7.667,3.666,11s-0.332,5.333-0.332,5.333s-16.168,2-23.833,0.667c0-6.333,3.5-7.833,3.5-7.833s-0.334-4.167,4-6c3.648-1.544,4.834-0.334,4.834-0.334S263.832,294.5,270.5,295.333z"></path><path style="fill:#6E6E6E;" d="M273.4,311.833c-0.334-0.5,1.766-8.333-1.9-12.833c-4.334-0.167-8.334,2.499-8.5,3.166c-2,0-6.168,0.834-6.834,4.334c-2,1.333-2.834,2.5-3,5C256,310.833,273.4,311.833,273.4,311.833z"></path></g><g><g><path style="fill:#6E6E6E;stroke:#000000;stroke-linecap:round;stroke-linejoin:round;" d="M273.834,311.666c0,0,1.666,14.501,2,15.834c0.332,1.333,12.832,22.334,14.5,23.5C290,354,286,354.666,286,354.666c1.5,1.834,1.666,3,1.666,3s-6.166,1.168-7.332,2.334c-1.168,1.166-5.168,5.666-14.168,4.666c0-4.5-0.832-6-0.832-6S259.5,356.5,257.5,358c-4.166-5.167-7.5-40.834-7.5-45.667C259.166,310.833,273.834,311.666,273.834,311.666z"></path><path style="fill:#505050;" d="M267.5,313.666c0,0,1,6.5,2.5,8.5c1.5-4,1.852-9.891,1.852-9.891L267.5,313.666z"></path><path style="fill:#FFFFFF;stroke:#000000;stroke-linecap:round;stroke-linejoin:round;" d="M267.334,314.833c0,0,0.5,4.833,2.666,8.167"></path><path style="fill:#505050;" d="M280,359.333c0,0-2.5,2.667-3.834,3.167c-1.832-3.167-4.832-11.834-3.832-12.5S280,359.333,280,359.333z"></path><g><path style="fill:#505050;stroke:#000000;stroke-linecap:round;stroke-linejoin:round;" d="M265.834,359c0,0,1.166-5.834-0.168-6.667c-1.332-0.833-7.332,3.167-8.166,5C259.334,357.5,265.834,359,265.834,359z"></path><path style="fill:#FFFFFF;stroke:#000000;stroke-linecap:round;stroke-linejoin:round;" d="M266.166,353.132c0,0-2.5-4-4.832-8.5"></path></g></g><path style="fill:none;stroke:#000000;stroke-linecap:round;stroke-linejoin:round;" d="M279,343.666c2.834,5.166,7,11,7,11"></path></g></g></g><g><g><g><circle style="fill:#FFBF00;stroke:#000000;stroke-linecap:round;stroke-linejoin:round;" cx="228.466" cy="312.772" r="3.208"></circle><circle style="fill:#FFFFFF;" cx="227.298" cy="312.275" r="0.851"></circle></g><g><circle style="fill:#FFBF00;stroke:#000000;stroke-linecap:round;stroke-linejoin:round;" cx="234.466" cy="312.772" r="3.208"></circle><circle style="fill:#FFFFFF;" cx="233.298" cy="312.275" r="0.851"></circle></g><g><circle style="fill:#FFBF00;stroke:#000000;stroke-linecap:round;stroke-linejoin:round;" cx="240.466" cy="312.772" r="3.208"></circle><circle style="fill:#FFFFFF;" cx="239.298" cy="312.275" r="0.851"></circle></g><g><circle style="fill:#FFBF00;stroke:#000000;stroke-linecap:round;stroke-linejoin:round;" cx="246.466" cy="312.772" r="3.208"></circle><circle style="fill:#FFFFFF;" cx="245.298" cy="312.275" r="0.851"></circle></g></g><g><g><circle style="fill:#FFBF00;stroke:#000000;stroke-linecap:round;stroke-linejoin:round;" cx="271.534" cy="312.772" r="3.208"></circle><circle style="fill:#FFFFFF;" cx="272.702" cy="312.275" r="0.851"></circle></g><g><circle style="fill:#FFBF00;stroke:#000000;stroke-linecap:round;stroke-linejoin:round;" cx="265.534" cy="312.772" r="3.208"></circle><circle style="fill:#FFFFFF;" cx="266.702" cy="312.275" r="0.851"></circle></g><g><circle style="fill:#FFBF00;stroke:#000000;stroke-linecap:round;stroke-linejoin:round;" cx="259.534" cy="312.772" r="3.208"></circle><circle style="fill:#FFFFFF;" cx="260.702" cy="312.275" r="0.851"></circle></g><g><circle style="fill:#FFBF00;stroke:#000000;stroke-linecap:round;stroke-linejoin:round;" cx="253.534" cy="312.772" r="3.208"></circle><circle style="fill:#FFFFFF;" cx="254.702" cy="312.275" r="0.851"></circle></g></g></g></g></g></svg>