<svg xmlns="http://www.w3.org/2000/svg" width="500" height="500" version="1.1"><g id="x145"><g><path style="fill:#FFFFFF;stroke:#000000;stroke-linecap:round;stroke-linejoin:round;" d="M283.033,346.166c-0.334-1.834-6.666-18-6.832-19.333c-0.168-1.333-0.668-17.167-1.668-21s-2.832-10.333-2.832-10.333l-21.668,7.5l-21.667-7.5c0,0-1.833,6.5-2.833,10.333s-1.5,19.667-1.667,21s-6.5,17.499-6.833,19.333c-1.833,4.5-8.833,29.168-9,38.334c1.667,2,4.667,4.666,11.167,4.833c0.167-0.833-0.333-2-0.333-2s4.333,0.635,5.333,0.968c0.167,0.666,0.833,1.5,0.833,1.5s0.5,2.365,11.167,2.532c-0.417-0.874-0.441-2.016-0.441-2.016s5.275,0.516,5.941,1.016c0.667,1,0.833,1.667,0.833,1.667s4.833,1.166,7.5,1.166c2.666,0,7.5-1.166,7.5-1.166s0.168-0.667,0.834-1.667c0.666-0.5,5.941-1.016,5.941-1.016s-0.025,1.142-0.441,2.016c10.666-0.167,11.166-2.532,11.166-2.532s0.668-0.834,0.834-1.5c1-0.333,5.334-0.968,5.334-0.968s-0.502,1.167-0.334,2c6.5-0.167,9.5-2.833,11.166-4.833C291.865,375.334,284.867,350.666,283.033,346.166z"></path><g><g><path style="fill:#6E6E6E;stroke:#000000;stroke-linecap:round;stroke-linejoin:round;" d="M235.7,390.5c0,0,4.748-18.548,5.333-22.667c0.5-3.5,2.35-18.164,2.35-18.164s1.738,17.197,1.15,23.664c-0.5,4.333-1.738,17.094-2.032,18.566L235.7,390.5z"></path><path style="fill:#505050;" d="M241.387,368.75l1.813-14.375c0,0,1.375,11.563,1,15C243.012,368.063,241.387,368.75,241.387,368.75z"></path></g><g><path style="fill:#6E6E6E;stroke:#000000;stroke-linecap:round;stroke-linejoin:round;" d="M226.945,367.146c0.588-2.354,4.118-17.645,4.118-17.645s-1.178,19.114-2.354,22.351c-1.175,3.232-3.234,17.82-3.234,17.82l-1.275-1.372l-5.375-1.134C218.825,387.167,226.356,369.498,226.945,367.146z"></path><path style="fill:#505050;" d="M227.137,367.813l3-11.938L228.95,369C228.95,369,228.7,367.688,227.137,367.813z"></path></g><g><path style="fill:#6E6E6E;stroke:#000000;stroke-linecap:round;stroke-linejoin:round;" d="M264.367,390.5c0,0-4.748-18.548-5.334-22.667c-0.5-3.5-2.35-18.164-2.35-18.164s-1.737,17.197-1.15,23.664c0.5,4.333,1.738,17.094,2.033,18.566L264.367,390.5z"></path><path style="fill:#505050;" d="M258.68,368.75l-1.813-14.375c0,0-1.375,11.563-1,15C257.055,368.063,258.68,368.75,258.68,368.75z"></path></g><g><path style="fill:#6E6E6E;stroke:#000000;stroke-linecap:round;stroke-linejoin:round;" d="M273.121,367.146c-0.588-2.354-4.117-17.645-4.117-17.645s1.178,19.114,2.354,22.351c1.176,3.232,3.234,17.82,3.234,17.82l1.275-1.372l5.375-1.134C281.242,387.167,273.711,369.498,273.121,367.146z"></path><path style="fill:#505050;" d="M272.93,367.813l-3-11.938L271.117,369C271.117,369,271.367,367.688,272.93,367.813z"></path></g></g><g><path style="fill:none;stroke:#000000;stroke-linecap:round;stroke-linejoin:round;" d="M231.033,341.666c0,0,0.333-14.834,0.333-16s-0.115-8.998,0-14.166c0.167-7.5,2.833-15,2.833-15"></path><path style="fill:none;stroke:#000000;stroke-linecap:round;stroke-linejoin:round;" d="M269.033,341.666c0,0-0.333-14.834-0.333-16s0.114-8.998,0-14.166c-0.167-7.5-2.833-15-2.833-15"></path></g></g><g><g><path style="fill:#4F54A3;stroke:#000000;stroke-linecap:round;stroke-linejoin:round;" d="M228.389,295.958c0,0.512,1.534,10.731,7.665,12.096c6.133,1.361,16.354-4.259,15.673-4.429C251.045,303.453,228.389,295.958,228.389,295.958z"></path><path style="fill:#4F54A3;stroke:#000000;stroke-linecap:round;stroke-linejoin:round;" d="M271.61,295.958c0,0.512-1.532,10.731-7.664,12.096c-6.133,1.361-16.354-4.259-15.673-4.429C248.955,303.453,271.61,295.958,271.61,295.958z"></path></g><g><g><path style="fill:#4F54A3;stroke:#000000;stroke-linecap:round;stroke-linejoin:round;" d="M247.701,307.796c0,0-9.284,14.907-9.2,23.85c1.362,0.51,7.579,3.406,9.966,3.406c0.34-1.618,0.425-3.662,0.425-3.662s6.558-1.875,8.432-1.108c0.085,0.342-0.767,3.068-0.767,3.068s4.259,0.764,4.941-2.98c-0.087-4.004-5.537-18.142-10.137-21.552C248.091,306.396,247.701,307.796,247.701,307.796z"></path><path style="fill:none;stroke:#000000;stroke-linecap:round;stroke-linejoin:round;" d="M251.136,317.592c0.085,0.254,5.196,6.984,6.132,12.18"></path><path style="fill:none;stroke:#000000;stroke-linecap:round;stroke-linejoin:round;" d="M248.692,331.372c0,0,0.512-7.835,1.277-10.986"></path></g><path style="fill:#4F54A3;stroke:#000000;stroke-linecap:round;stroke-linejoin:round;" d="M246.679,305.498c0,0,0.51-1.107,0.851-1.449c0.34-0.341,3.067-0.85,3.917-0.084c0.854,0.767,1.619,2.556,1.619,2.556s1.535,1.107,1.618,1.703c0.085,0.594-1.788,2.981-3.066,3.149c-1.277,0.173-3.662,0.001-4.259-0.595c-0.595-0.597-2.64-1.872-2.554-2.386C244.89,307.882,246.679,305.498,246.679,305.498z"></path></g></g></g></svg>