<svg xmlns="http://www.w3.org/2000/svg" width="500" height="500" version="1.1"><g id="x146"><g><g><path style="fill:#6E6E6E;stroke:#000000;stroke-linecap:round;stroke-linejoin:round;" d="M274.794,322.625c0-2.25,0.625-15.25-4-25.25c-2.75-13-5.572-16.166-5.572-16.166s-1.803-1.209-5.928-0.834c3,5.25,5.047,13.614,4.875,17.625c-4.143,0-11.592,2.967-14.169,5.778c-2.576-2.812-10.026-5.778-14.167-5.778c-0.173-4.011,1.875-12.375,4.875-17.625c-4.125-0.375-5.929,0.834-5.929,0.834s-2.821,3.166-5.571,16.166c-4.625,10-4,23-4,25.25c-11.125,26-16.25,41.375-17.959,60.209c14.334-15.667,22.852-22.828,25.315-25.536c1.969-9.848,7.387-12.559,10.096-12.312c0.415-7.684,5.382-19.917,6.93-23.564c0.072-0.006,0.225-0.01,0.41-0.012c0.187,0.002,0.338,0.006,0.41,0.012c1.549,3.647,6.517,15.881,6.931,23.564c2.709-0.247,8.127,2.464,10.096,12.312c2.463,2.708,10.982,9.869,25.314,25.536C291.044,364,285.919,348.625,274.794,322.625z"></path><g><g><path style="fill:#505050;" d="M229.422,339.822c0,0,3.941-12.313,8.62-16.745c2.216,0,4.432-0.492,4.432-0.492S231.64,335.883,229.422,339.822z"></path><path style="fill:#505050;" d="M217.358,342.285c0,0,7.14-15.761,11.573-18.961c3.202-0.985,8.125-0.985,10.096,0.246C236.318,324.556,227.946,322.832,217.358,342.285z"></path><path style="fill:#505050;" d="M229.422,324.063c-1.208-0.229-2.708-4.68-1.968-9.112c1.231,1.23,2.461,5.664,4.924,5.91c2.463,0.247,2.955-1.23,2.955-1.23s-1.477-2.711-0.739-5.418c1.725,2.217,3.941,7.141,9.112,7.388C242.229,323.077,237.302,325.54,229.422,324.063z"></path></g><path style="fill:none;stroke:#000000;stroke-linecap:round;stroke-linejoin:round;" d="M238.78,322.585c-2.217-1.477-2.708-3.692-2.955-4.432"></path><g><path style="fill:#505050;" d="M270.58,339.822c0,0-3.941-12.313-8.62-16.745c-2.217,0-4.432-0.492-4.432-0.492S268.362,335.883,270.58,339.822z"></path><path style="fill:#505050;" d="M282.644,342.285c0,0-7.139-15.761-11.572-18.961c-3.202-0.985-8.126-0.985-10.096,0.246C263.684,324.556,272.056,322.832,282.644,342.285z"></path><path style="fill:#505050;" d="M270.58,324.063c1.208-0.229,2.708-4.68,1.968-9.112c-1.231,1.23-2.461,5.664-4.924,5.91c-2.463,0.247-2.955-1.23-2.955-1.23s1.477-2.711,0.739-5.418c-1.725,2.217-3.941,7.141-9.112,7.388C257.773,323.077,262.7,325.54,270.58,324.063z"></path></g><path style="fill:none;stroke:#000000;stroke-linecap:round;stroke-linejoin:round;" d="M261.222,322.585c2.217-1.477,2.709-3.692,2.955-4.432"></path></g><g><g><g><path style="fill:#505050;stroke:#000000;stroke-linecap:round;stroke-linejoin:round;" d="M242.605,344.875c0,0-8.5,8.625-10.188,12.75c-2-1.125-7.629-3.767-6.646-6.968C226.757,347.456,242.605,344.875,242.605,344.875z"></path></g><path style="fill:none;stroke:#000000;stroke-linecap:round;stroke-linejoin:round;" d="M225.651,351c0,0,2.048-12.408,14.359-24.721"></path></g><g><path style="fill:#505050;stroke:#000000;stroke-linecap:round;stroke-linejoin:round;" d="M257.394,344.875c0,0,8.5,8.625,10.188,12.75c2-1.125,7.629-3.767,6.646-6.968C273.241,347.456,257.394,344.875,257.394,344.875z"></path><path style="fill:none;stroke:#000000;stroke-linecap:round;stroke-linejoin:round;" d="M274.351,351c0,0-2.048-12.408-14.359-24.721"></path></g></g></g><g><path style="fill:#FF0000;stroke:#000000;stroke-linecap:round;stroke-linejoin:round;" d="M249.71,322.092c0,0-5.542,4.676-6.402,2.955c-1.23-2.462-0.492-4.677-0.492-4.677s0-2.464,0.984-3.45C244.786,315.937,248.479,318.893,249.71,322.092z"></path><path style="fill:#FF0000;stroke:#000000;stroke-linecap:round;stroke-linejoin:round;" d="M250.29,322.092c0,0,5.542,4.676,6.401,2.955c1.232-2.462,0.494-4.677,0.494-4.677s0-2.464-0.985-3.45C255.214,315.937,251.521,318.893,250.29,322.092z"></path><ellipse style="fill:#FF0000;stroke:#000000;stroke-linecap:round;stroke-linejoin:round;" cx="250.079" cy="321.847" rx="1.846" ry="1.97"></ellipse></g></g></g></svg>