<svg xmlns="http://www.w3.org/2000/svg" width="500" height="500" version="1.1"><g id="x147"><g><g><path style="fill:#6E6E6E;stroke:#000000;stroke-linecap:round;stroke-linejoin:round;" d="M281,345c0,0,1.75-2,1.5-3.75s-4.5-10-6.5-13c-0.25-0.75-1.5-18.25-2-22.25s-3.5-10.25-3.5-10.25s-2.5-10-4-13.75c-1.5-0.75-4.25-1.25-4.25-1.25s3.223,11.405,3.496,14.955C259.594,295.633,250,295.5,250,295.5s-9.594,0.133-15.746,0.205c0.273-3.55,3.496-14.955,3.496-14.955s-2.75,0.5-4.25,1.25c-1.5,3.75-4,13.75-4,13.75s-3,6.25-3.5,10.25s-1.75,21.5-2,22.25c-2,3-6.25,11.25-6.5,13S219,345,219,345s-10,17-10.75,36.25c2.75,2,6.25,3.25,7,3.25s3-0.25,3-0.25l3.5,1.75c0,0,8,0.25,12-1.5c1,1.25,3,3,3,3s3.25-0.25,6-1.25c3.25,0.25,7.25,1,7.25,1s4-0.75,7.25-1c2.75,1,6,1.25,6,1.25s2-1.75,3-3c4,1.75,12,1.5,12,1.5l3.5-1.75c0,0,2.25,0.25,3,0.25s4.25-1.25,7-3.25C291,362,281,345,281,345z"></path><g><path style="fill:#505050;" d="M231.205,347.5c0,0,2.75-2,4.25-1.5s7,1.75,5.25,2.25s-5.5,2-7,1.5S231.205,347.5,231.205,347.5z"></path><path style="fill:#505050;" d="M268.795,347.5c0,0-2.75-2-4.25-1.5s-7,1.75-5.25,2.25s5.5,2,7,1.5S268.795,347.5,268.795,347.5z"></path></g><path style="fill:#505050;" d="M249.25,337c0,0-6-13.75-6-16.5s6.25-5.75,7.5-5.25s5.25,3.5,4.5,5.25S252.75,330.75,249.25,337z"></path><g><g><path style="fill:none;stroke:#000000;stroke-linecap:round;stroke-linejoin:round;" d="M219,345c0,0,1.5,1.75,2.25,1.75s4.5-2.25,4.5-2.25"></path><path style="fill:none;stroke:#000000;stroke-linecap:round;stroke-linejoin:round;" d="M223.25,343c0,0,3.75,2,5,3.5"></path><path style="fill:none;stroke:#000000;stroke-linecap:round;stroke-linejoin:round;" d="M236.25,346c0,0,4.5,2,5.75,2s3.5-2.75,3.5-2.75"></path></g><g><path style="fill:none;stroke:#000000;stroke-linecap:round;stroke-linejoin:round;" d="M281,345c0,0-1.5,1.75-2.25,1.75s-4.5-2.25-4.5-2.25"></path><path style="fill:none;stroke:#000000;stroke-linecap:round;stroke-linejoin:round;" d="M276.75,343c0,0-3.75,2-5,3.5"></path><path style="fill:none;stroke:#000000;stroke-linecap:round;stroke-linejoin:round;" d="M263.75,346c0,0-4.5,2-5.75,2s-3.5-2.75-3.5-2.75"></path></g></g></g><path style="fill:none;stroke:#000000;stroke-linecap:round;stroke-linejoin:round;" d="M226,305.25c0,0,7.75-1,24.25-1s23.75,1,23.75,1"></path><path style="fill:none;stroke:#000000;stroke-linecap:round;stroke-linejoin:round;" d="M241.75,315c0,0,2.75,12.75,5.75,20"></path><path style="fill:none;stroke:#000000;stroke-linecap:round;stroke-linejoin:round;" d="M251,340.75c0,0,3.75-5.25,5.5-18.25"></path></g></g></svg>