<svg xmlns="http://www.w3.org/2000/svg" width="500" height="500" version="1.1"><g id="x148"><g><g><path style="fill:#FFFFFF;stroke:#000000;stroke-linecap:round;stroke-linejoin:round;" d="M275.25,319c0,0,0.75-0.5,0.75-1.5s-1.25-2.5-1.25-2.5s-0.25-6.75-1-10.25s-9.25-7.75-12.5-7.5s-11.25,4-11.25,4s-8-3.75-11.25-4s-11.75,4-12.5,7.5s-1,10.25-1,10.25s-1.25,1.5-1.25,2.5s0.75,1.5,0.75,1.5s-2,10-4,14.25c2.25,2.5,20.5,2.75,29.25,3c8.75-0.25,27-0.5,29.25-3C277.25,329,275.25,319,275.25,319z"></path></g><path style="fill:#E4E0F3;" d="M243,325.667c0,0,5.333-9.166,6.833-9.333S257,324.833,257,326.5s-3.667,2.167-7.5,2.167S243,325.667,243,325.667z"></path><g><g><path style="fill:#FFFFFF;stroke:#000000;stroke-linecap:round;stroke-linejoin:round;" d="M223.25,327.6c0,0-3.75,5.75-4.75,7.25c1.5,1.25,3.75,2,3.75,2s1.25-1.25,2.25-1.5s5.75,2.75,7,2.5s3.5-2,7.25-2"></path></g><path style="fill:#FFFFFF;stroke:#000000;stroke-linecap:round;stroke-linejoin:round;" d="M276.75,327.6c0,0,3.75,5.75,4.75,7.25c-1.5,1.25-3.75,2-3.75,2s-1.25-1.25-2.25-1.5s-5.75,2.75-7,2.5s-3.5-2-7.25-2"></path></g><path style="fill:#6E6E6E;stroke:#000000;stroke-linecap:round;stroke-linejoin:round;" d="M254.495,304.233c-1.262-0.179-3.719,1.292-4.495,1.781c-0.776-0.489-3.234-1.96-4.496-1.781c-1.508,0.216-0.861,5.604-0.215,6.251c0.646,0.647,4.742-2.01,4.742-2.01s4.032,2.657,4.678,2.01C255.356,309.838,256.004,304.449,254.495,304.233z"></path><path style="fill:#6E6E6E;stroke:#000000;stroke-linecap:round;stroke-linejoin:round;" d="M274,301.5c0,0-3.75-3.898-9.25-4.898c-5,0-14.75,3.898-14.75,3.898s-9.75-3.898-14.75-3.898c-5.5,1-9.25,4.898-9.25,4.898s-0.5,3.25-0.25,4s6.5-5.25,9.75-5s14.5,4.25,14.5,4.25s11.25-4,14.5-4.25s9.5,5.75,9.75,5S274,301.5,274,301.5z"></path><g><path style="fill:none;stroke:#000000;stroke-linecap:round;stroke-linejoin:round;" d="M242.25,325.75c0,0,3.75-6,5.75-8.75"></path><path style="fill:none;stroke:#000000;stroke-linecap:round;stroke-linejoin:round;" d="M257.75,325.75c0,0-3.75-6-5.75-8.75"></path></g><g><g><path style="fill:#FFFFFF;stroke:#000000;stroke-linecap:round;stroke-linejoin:round;" d="M223.25,327.6c0,0-3.75,5.75-4.75,7.25c1.5,1.25,3.75,2,3.75,2s1.25-1.25,2.25-1.5s5.75,2.75,7,2.5s3.5-2,7.25-2"></path></g><path style="fill:#FFFFFF;stroke:#000000;stroke-linecap:round;stroke-linejoin:round;" d="M276.75,327.6c0,0,3.75,5.75,4.75,7.25c-1.5,1.25-3.75,2-3.75,2s-1.25-1.25-2.25-1.5s-5.75,2.75-7,2.5s-3.5-2-7.25-2"></path></g></g></g></svg>