<svg xmlns="http://www.w3.org/2000/svg" width="500" height="500" version="1.1"><g id="x149"><g><g><g><path style="fill:#6E6E6E;stroke:#000000;stroke-linecap:round;stroke-linejoin:round;" d="M228.079,309.13c0,0-2.294,7.806-2.598,7.62c-2.5-2.5-5.058-8.288-4.396-11.388c0.779-0.331,1.953-0.677,1.953-0.677s-0.281-1.969-0.216-2.765c-0.618-0.568-2.485-0.19-2.485-0.19s-1.908-5.368,0.558-7.95c1.354-0.75,2.431-1.091,2.431-1.091l-0.553-1.364l-2.288-0.201c0,0,0.892-4.694,4.807-5.848c2.095,0.406,3.572,2.522,3.572,2.522L228.079,309.13z"></path><path style="fill:#505050;" d="M223.501,304.938c0,0-0.313-3-0.313-3.313c1.938,0,4.5-0.188,4.75,0.375S223.501,304.938,223.501,304.938z"></path><path style="fill:#505050;" d="M223.876,292.875l-0.75-1.938c0,0,3.188-0.875,4.625-0.063C227.501,292.375,223.876,292.875,223.876,292.875z"></path></g><g><path style="fill:#6E6E6E;stroke:#000000;stroke-linecap:round;stroke-linejoin:round;" d="M271.921,309.13c0,0,2.295,7.806,2.598,7.62c2.5-2.5,5.059-8.288,4.396-11.388c-0.779-0.331-1.953-0.677-1.953-0.677s0.28-1.969,0.215-2.765c0.618-0.568,2.485-0.19,2.485-0.19s1.907-5.368-0.558-7.95c-1.355-0.75-2.432-1.091-2.432-1.091l0.553-1.364l2.288-0.201c0,0-0.892-4.694-4.808-5.848c-2.095,0.406-3.572,2.522-3.572,2.522L271.921,309.13z"></path><path style="fill:#505050;" d="M276.499,304.938c0,0,0.313-3,0.313-3.313c-1.938,0-4.5-0.188-4.75,0.375S276.499,304.938,276.499,304.938z"></path><path style="fill:#505050;" d="M276.124,292.875l0.75-1.938c0,0-3.188-0.875-4.625-0.063C272.499,292.375,276.124,292.875,276.124,292.875z"></path></g></g><g><g><path style="fill:#6E6E6E;stroke:#000000;stroke-linecap:round;stroke-linejoin:round;" d="M233.167,283.25c0,0-4,2-5.25,3c-1.5,4-0.5,10.25-0.25,12c-0.75,4.25-1.25,5-1.75,8.5s-1.25,19-1.75,21s-7.75,14.25-9.25,23.75c4,5,10.75,9.75,15.5,11.75c6.75-2.75,19.75-16.5,19.75-16.5V290l-7-1L233.167,283.25z"></path><path style="fill:#505050;" d="M224.373,329.5l0.75-4c0,0,9.75,2,10,3.75S224.373,329.5,224.373,329.5z"></path><path style="fill:none;stroke:#000000;stroke-linecap:round;stroke-linejoin:round;" d="M234.751,294.834c0,0-1.667,6.666-2.334,14c-0.462,5.078-1.166,19.5-1.166,19.5l-9,25.5"></path><path style="fill:#6E6E6E;stroke:#000000;stroke-linecap:round;stroke-linejoin:round;" d="M246.062,290.75c-0.231,0.444-0.395,1.078-0.395,2.001c0,3.25,2,4.083,2,4.083s-1.75,0.833-1.75,3.583s1.75,3.75,1.75,3.75s-1.916,1.25-1.916,4.084s1.916,3,1.916,3s-1.833,0.583-1.833,3s1.833,3.333,1.833,3.333s-1.666,0.667-1.666,3.833c0,4.25,1.416,3.833,1.416,3.833s-1.25,0.25-1.25,2.75s1.5,3.5,1.5,3.5s-1.416,0.501-1.416,2.751s1.166,2.999,1.166,2.999s-1.25,1.25-1.5,3.5s1.25,3.5,1.25,3.5s-1.75-0.416-2.75,0.834c-1.22,1.524-0.25,3.916-0.25,3.916s-2.5,0-3.75,1s-1,2.75-1,2.75s-1.916-0.916-3.416,0.084S234.667,356,234.667,356s-1.25-0.833-3,0.167s-1.833,3.167-1.833,3.167s-0.5-2.583-2.167-3.25c-1.313-0.525-2.75,0.416-2.75,0.416s-0.25-2-1.25-2.75s-2.25-0.25-2.25-0.25s0.25-1.5-0.75-2.25s-2-1-3.25-0.75c-0.25-1-0.5-2.5-1.5-2.5c-1,1-1.5,4.75-1.5,4.75s10.334,10.25,16,10.5c7.667-3.583,19.834-16.917,19.834-16.917V290.75H246.062z"></path></g><g><path style="fill:#6E6E6E;stroke:#000000;stroke-linecap:round;stroke-linejoin:round;" d="M266.833,283.25c0,0,4,2,5.25,3c1.5,4,0.5,10.25,0.25,12c0.75,4.25,1.25,5,1.75,8.5s1.25,19,1.75,21s7.75,14.25,9.25,23.75c-4,5-10.75,9.75-15.5,11.75c-6.75-2.75-19.748-16.5-19.748-16.5V290l6.998-1L266.833,283.25z"></path><g><path style="fill:#505050;" d="M275.627,329.5l-0.75-4c0,0-9.75,2-10,3.75S275.627,329.5,275.627,329.5z"></path></g><path style="fill:none;stroke:#000000;stroke-linecap:round;stroke-linejoin:round;" d="M265.249,294.834c0,0,1.666,6.666,2.334,14c0.461,5.078,1.166,19.5,1.166,19.5l9,25.5"></path><path style="fill:#6E6E6E;stroke:#000000;stroke-linecap:round;stroke-linejoin:round;" d="M252.333,289.751L249.752,290v0.75h4.187C253.355,289.63,252.333,289.751,252.333,289.751z"></path><path style="fill:#6E6E6E;stroke:#000000;stroke-linecap:round;stroke-linejoin:round;" d="M284.083,348c-1,0-1.25,1.5-1.5,2.5c-1.25-0.25-2.25,0-3.25,0.75s-0.75,2.25-0.75,2.25s-1.25-0.5-2.25,0.25s-1.25,2.75-1.25,2.75s-1.438-0.941-2.75-0.416c-1.668,0.667-2.168,3.25-2.168,3.25s-0.082-2.167-1.832-3.167s-3-0.167-3-0.167s0.166-2.166-1.334-3.166s-3.416-0.084-3.416-0.084s0.25-1.75-1-2.75s-3.75-1-3.75-1s0.969-2.392-0.25-3.916c-1-1.25-2.75-0.834-2.75-0.834s1.5-1.25,1.25-3.5s-1.5-3.5-1.5-3.5s1.166-0.749,1.166-2.999s-1.416-2.751-1.416-2.751s1.5-1,1.5-3.5s-1.25-2.75-1.25-2.75s1.416,0.417,1.416-3.833c0-3.166-1.666-3.833-1.666-3.833s1.832-0.916,1.832-3.333s-1.832-3-1.832-3s1.916-0.166,1.916-3s-1.916-4.084-1.916-4.084s1.75-1,1.75-3.75s-1.75-3.583-1.75-3.583s2-0.833,2-4.083c0-0.923-0.164-1.557-0.395-2.001h-4.187v55.583c0,0,12.163,13.334,19.831,16.917c5.666-0.25,16-10.5,16-10.5S285.083,349,284.083,348z"></path></g></g></g></g></svg>