<svg xmlns="http://www.w3.org/2000/svg" width="500" height="500" version="1.1"><g id="x015"><g><g><path style="fill:#6E6E6E;stroke:#000000;stroke-linecap:round;stroke-linejoin:round;" d="M236.561,280.714c0,0-3.065,12.249-2.594,18.106c-1.65,0.888-4.48,1.421-4.48,1.421s1.415-14.734,3.537-18.639C234.674,280.358,236.561,280.714,236.561,280.714z"></path><path style="fill:#6E6E6E;stroke:#000000;stroke-linecap:round;stroke-linejoin:round;" d="M263.439,280.714c0,0,3.065,12.249,2.594,18.106c1.649,0.888,4.479,1.421,4.479,1.421s-1.415-14.734-3.536-18.639C265.326,280.358,263.439,280.714,263.439,280.714z"></path></g><g><path style="fill:#6E6E6E;" d="M272.521,300.241c0,0-3.424-2.595-9.79-2.595S250,301.185,250,301.185s-6.366-3.538-12.732-3.538c-6.366,0-9.789,2.595-9.789,2.595s-2.179,5.658-2.179,8.959s-0.264,7.074,0.208,8.017c1.65,1.65,8.223,2.122,11.052,1.887c4.952,0.472,9.196,1.179,13.44,1.179s8.487-0.707,13.439-1.179c2.829,0.235,9.404-0.236,11.055-1.887c0.472-0.942,0.206-4.716,0.206-8.017S272.521,300.241,272.521,300.241z"></path><path style="fill:none;stroke:#000000;stroke-linecap:round;stroke-linejoin:round;" d="M234.91,317.217c0,0,2.357,2.122,5.423,2.358"></path><path style="fill:none;stroke:#000000;stroke-linecap:round;stroke-linejoin:round;" d="M265.09,317.217c0,0-2.358,2.122-5.423,2.358"></path></g><path style="opacity:0.3;fill:#FFFFFF;" d="M273.992,304.721c0,0-3.951-2.829-10.789-2.122S250,304.956,250,304.956s-6.366-1.65-13.204-2.357c-6.837-0.707-10.789,2.122-10.789,2.122l-0.236,2.593c0,0,7.492-2.168,11.024-1.886c5.895,0.472,13.204,1.886,13.204,1.886s7.309-1.414,13.203-1.886c3.533-0.282,11.025,1.886,11.025,1.886L273.992,304.721z"></path><path style="opacity:0.3;fill:#FFFFFF;" d="M263.675,312.737c-5.659,0-13.675-0.472-13.675-0.472s-8.017,0.472-13.676,0.472c-5.658,0-10.789-0.943-10.789-0.943l0.708,2.829c0,0,2.536,0.472,10.553,0.708c8.017,0.235,13.204-0.472,13.204-0.472s5.188,0.707,13.203,0.472c8.018-0.236,10.554-0.708,10.554-0.708l0.707-2.828C274.464,311.795,269.334,312.737,263.675,312.737z"></path><path style="fill:none;stroke:#000000;stroke-linecap:round;stroke-linejoin:round;" d="M272.521,300.241c0,0-3.424-2.595-9.79-2.595S250,301.185,250,301.185s-6.366-3.538-12.732-3.538c-6.366,0-9.789,2.595-9.789,2.595s-2.179,5.658-2.179,8.959s-0.264,7.074,0.208,8.017c1.65,1.65,8.223,2.122,11.052,1.887c4.952,0.472,9.196,1.179,13.44,1.179s8.487-0.707,13.439-1.179c2.829,0.235,9.404-0.236,11.055-1.887c0.472-0.942,0.206-4.716,0.206-8.017S272.521,300.241,272.521,300.241z"></path></g></g></svg>