<svg xmlns="http://www.w3.org/2000/svg" width="500" height="500" version="1.1"><g id="x150"><g><g><path style="fill:#6E6E6E;stroke:#000000;stroke-linecap:round;stroke-linejoin:round;" d="M274.499,314l-24.498-1l-24.5,1c0,0-0.5,2.75-0.25,3.75c2,1.5,18.001,1.502,24.75,1.502s22.748-0.002,24.748-1.502C274.999,316.75,274.499,314,274.499,314z"></path><path style="fill:#B2B2B2;stroke:#000000;stroke-linecap:round;stroke-linejoin:round;" d="M260.667,313v6.333c0,0,1.834,0.334,3-0.166c0-2.5,0-5.834,0-5.834L260.667,313z"></path></g><path style="fill:#FFFFFF;stroke:#000000;stroke-linecap:round;stroke-linejoin:round;" d="M274.499,304.75c-0.287-2.005-1.475-4.912-2.438-7.029c-0.719-1.58-4.563-3.221-9.063-2.971s-12.998,3-12.998,3s-8.5-2.75-13-3s-8.343,1.391-9.062,2.971c-0.963,2.117-2.152,5.024-2.438,7.029c-0.5,3.5,0,9.25,0,9.25h48.998C274.499,314,274.999,308.25,274.499,304.75z"></path><rect x="245.375" y="296.5" style="fill:#6E6E6E;stroke:#000000;stroke-linecap:round;stroke-linejoin:round;" width="9.25" height="17.5"></rect><g><path style="fill:none;stroke:#000000;stroke-linecap:round;stroke-linejoin:round;" d="M234.035,295c0,0-2,9-2,13s0.25,5.5,0.25,5.5"></path><path style="fill:none;stroke:#000000;stroke-linecap:round;stroke-linejoin:round;" d="M265.963,295c0,0,2,9,2,13s-0.25,5.5-0.25,5.5"></path></g></g></g></svg>