<svg xmlns="http://www.w3.org/2000/svg" width="500" height="500" version="1.1"><g id="x151"><g><g><path style="fill:#57383D;stroke:#000000;stroke-linecap:round;stroke-linejoin:round;" d="M232.333,283c0,0-8,4.334-10.667,7.667s-7,15.666-7,15.666s-2.333,1.334-2.333,1.667s0.333,2.333,0.333,2.333s-9,22.334-8.667,23.334c3.667,2.333,14,9,14,9L227.667,323C227.667,323,234.333,290.667,232.333,283z"></path><path style="fill:#57383D;stroke:#000000;stroke-linecap:round;stroke-linejoin:round;" d="M267.924,283c0,0,8,4.334,10.667,7.667s7,15.666,7,15.666s2.333,1.334,2.333,1.667s-0.333,2.333-0.333,2.333s9,22.334,8.667,23.334c-3.667,2.333-14,9-14,9L272.591,323C272.591,323,265.924,290.667,267.924,283z"></path></g><g><g><path style="fill:#FFFFFF;stroke:#000000;stroke-linecap:round;stroke-linejoin:round;" d="M290.335,381.667l-40.669,5l-40.666-5c0,0-3.333,4.332-3.333,5.666s2.334,3.334,5.667,3.667s4.333-0.667,6,0s4,3.334,7.333,3.667s4-0.668,5.667-0.334s2.333,1.334,5.667,1.667s4.667-0.333,6-0.333s4.333,2.333,7.666,2.333l0,0h0l0,0c3.334,0,6.334-2.333,7.668-2.333c1.333,0,2.666,0.666,6,0.333c3.333-0.333,4-1.333,5.666-1.667s2.334,0.667,5.667,0.334s5.667-3,7.333-3.667s2.667,0.333,6,0s5.667-2.333,5.667-3.667S290.335,381.667,290.335,381.667z"></path></g><g><path style="fill:#FFFFFF;stroke:#000000;stroke-linecap:round;stroke-linejoin:round;" d="M275.002,326.667c0,0,0-16.333-1-20.333s-1.668-7.334-4-11.667c-0.667-1.333-2.334-11.667-2.334-11.667s-0.002,12-17.668,12c-17.667,0-17.667-12-17.667-12s-1.667,10.334-2.333,11.667c-2.333,4.333-3,7.667-4,11.667s-1,20.333-1,20.333c-9,15.334-16,43.666-16,55c6.999,7.333,40.989,8,41,8h0c0.011,0,34.003-0.667,41.002-8C291.002,370.333,284.002,342.001,275.002,326.667z"></path><g><polygon points="248,295 248.1,389.567 252.1,389.567 252,295 "></polygon><path d="M240.394,293.5c-0.055,0.547-1.832,13.433-2.164,20.405l-0.999,17.3c0.002-0.033-4.664,57.634-4.664,57.634l3.987,0.322l4.667-57.667c0.002-0.033,1.004-17.399,1.004-17.399c0.327-6.867,1.322-19.795,1.336-19.928L240.394,293.5z"></path><path d="M233.061,287c-0.914,4.178-3.82,18.764-4.49,25.124c-0.661,6.287-1.661,18.925-1.671,19.052c0.007-0.089,0.02-0.176,0.038-0.263l-9.667,54.334l3.911,0.84l9.667-54.334c0.019-0.087,0.031-0.174,0.038-0.263c0.01-0.126,1.006-12.713,1.662-18.948c0.648-6.16,2.617-15.708,2.637-15.804c0.002-0.013,1.208-5.738,1.208-5.738L233.061,287z"></path><path d="M259.607,293.5c0.055,0.547,1.832,13.433,2.164,20.405l0.998,17.3c-0.002-0.033,4.664,57.634,4.664,57.634l-3.988,0.322l-4.666-57.667c-0.002-0.033-1.004-17.399-1.004-17.399c-0.326-6.867-1.322-19.795-1.336-19.928L259.607,293.5z"></path><path d="M266.939,287c0.914,4.178,3.82,18.764,4.49,25.124c0.66,6.287,1.66,18.925,1.67,19.052c-0.006-0.089-0.02-0.176-0.037-0.263l9.666,54.334l-3.91,0.84l-9.668-54.334c-0.018-0.087-0.031-0.174-0.037-0.263c-0.01-0.126-1.006-12.713-1.662-18.948c-0.648-6.16-2.617-15.708-2.637-15.804c-0.002-0.013-1.207-5.738-1.207-5.738L266.939,287z"></path></g></g></g></g></g></svg>