<svg xmlns="http://www.w3.org/2000/svg" width="500" height="500" version="1.1"><g id="x152"><g><g><g><path style="fill:#6E6E6E;stroke:#000000;stroke-linecap:round;stroke-linejoin:round;" d="M198.5,349.5c0,0-5.5,4-8.25,10.25c3.25-0.5,7.25,3.5,7.25,3.5s3.5,3,5,2.5s2-1.25,2-1.25l1.25,0.75c0,0,1.25,3.5,4.75,4c1.25-6.25,1.75-13.75,0.75-16C207.25,351,198.5,349.5,198.5,349.5z"></path><g><path style="fill:#6E6E6E;stroke:#000000;stroke-linecap:round;stroke-linejoin:round;" d="M224,288.5c0,0-5.25,7.5-8.75,15s-4.75,14.25-4.75,14.25s-3,3.5-3.5,5s-1,6-1,6s-2.25,4.917-3.5,5.917s-6.5,7.083-6.75,8.333s1,7.5,1,7.5l12.5,5.25c0,0,5-0.5,6.25-2s14.75-38,14.75-38L224,288.5z"></path><path style="fill:#505050;" d="M222.667,309.334c0,0-3.833,7-4.833,10.5s0.667,10.499,2.5,12.666c3.667-3,5.167-10.666,5.167-10.666L222.667,309.334z"></path></g><g><path style="fill:#FFFFFF;stroke:#000000;stroke-linecap:round;stroke-linejoin:round;" d="M196.333,350.834c0,0-3.5,0.666-4,1.166s0.833,3.334,1.667,4.167c0.333-0.5,1-1,1-1s3.333,1.166,4,1.833c-0.333,0.5-0.167,1.667-0.167,1.667s3.333,2.167,6,2.167c0.333-0.667,0.702-1.895,1.333-1.5c1.333,0.833,2.667,1.5,2.667,1.5l1.833,2l4.5-1.667L213,357.834C213,357.834,201.5,351.668,196.333,350.834z"></path><path style="fill:#FFFFFF;stroke:#000000;stroke-linecap:round;stroke-linejoin:round;" d="M196.167,349.834c0,0-2.5-2.666-2.333-4c1.667-1,4.833-0.501,5.5-0.334c0.5,0.834,0.667,1.667,0.667,1.667l2.167,0.5l1.5-0.5c0,0,3.5-0.5,5.333,1.5C208.667,349,209.167,350,209.167,350l1.5,0.667c1-0.333,3.833,2.166,4.5,4.333c-1.5,1.834-2.333,2.5-2.333,2.5L196.167,349.834z"></path><g><path style="fill:#323232;stroke:#000000;stroke-linecap:round;stroke-linejoin:round;" d="M196.706,352.105L196.706,352.105c0.139,0.036,14.03,3.816,21.471,11.404l0,0c0.621,0.632,1.638,0.645,2.27,0.021c0.633-0.619,0.643-1.636,0.022-2.269l0,0c-8.061-8.223-22.332-12.099-22.937-12.26l0,0c-0.855-0.229-1.735,0.28-1.966,1.138C195.34,350.997,195.848,351.877,196.706,352.105L196.706,352.105z"></path></g></g></g><g><path style="fill:#6E6E6E;stroke:#000000;stroke-linecap:round;stroke-linejoin:round;" d="M301.5,349.5c0,0,5.5,4,8.25,10.25c-3.25-0.5-7.25,3.5-7.25,3.5s-3.5,3-5,2.5s-2-1.25-2-1.25l-1.25,0.75c0,0-1.25,3.5-4.75,4c-1.25-6.25-1.75-13.75-0.75-16C292.75,351,301.5,349.5,301.5,349.5z"></path><g><path style="fill:#6E6E6E;stroke:#000000;stroke-linecap:round;stroke-linejoin:round;" d="M276,288.5c0,0,5.25,7.5,8.75,15s4.75,14.25,4.75,14.25s3,3.5,3.5,5s1,6,1,6s2.25,4.917,3.5,5.917s6.5,7.083,6.75,8.333s-1,7.5-1,7.5l-12.5,5.25c0,0-5-0.5-6.25-2s-14.75-38-14.75-38L276,288.5z"></path><path style="fill:#505050;" d="M277.334,309.334c0,0,3.832,7,4.832,10.5s-0.666,10.499-2.5,12.666c-3.666-3-5.166-10.666-5.166-10.666L277.334,309.334z"></path></g><g><path style="fill:#FFFFFF;stroke:#000000;stroke-linecap:round;stroke-linejoin:round;" d="M303.666,350.834c0,0,3.5,0.666,4,1.166s-0.832,3.334-1.666,4.167c-0.334-0.5-1-1-1-1s-3.333,1.166-4,1.833c0.333,0.5,0.166,1.667,0.166,1.667s-3.333,2.167-6,2.167c-0.333-0.667-0.701-1.895-1.333-1.5c-1.333,0.833-2.667,1.5-2.667,1.5l-1.833,2l-4.5-1.667l2.167-3.333C287,357.834,298.5,351.668,303.666,350.834z"></path><path style="fill:#FFFFFF;stroke:#000000;stroke-linecap:round;stroke-linejoin:round;" d="M303.833,349.834c0,0,2.5-2.666,2.333-4c-1.666-1-4.833-0.501-5.5-0.334c-0.5,0.834-0.666,1.667-0.666,1.667l-2.167,0.5l-1.5-0.5c0,0-3.499-0.5-5.333,1.5c0.333,0.333-0.167,1.333-0.167,1.333l-1.5,0.667c-1-0.333-3.833,2.166-4.5,4.333c1.5,1.834,2.333,2.5,2.333,2.5L303.833,349.834z"></path><g><path style="fill:#323232;stroke:#000000;stroke-linecap:round;stroke-linejoin:round;" d="M303.295,352.105L303.295,352.105c-0.14,0.036-14.03,3.816-21.472,11.404l0,0c-0.62,0.632-1.638,0.645-2.27,0.021c-0.634-0.619-0.644-1.636-0.022-2.269l0,0c8.061-8.223,22.332-12.099,22.938-12.26l0,0c0.855-0.229,1.734,0.28,1.965,1.138C304.66,350.997,304.152,351.877,303.295,352.105L303.295,352.105z"></path></g></g></g></g><g><g><g><path style="fill:#6E6E6E;stroke:#000000;stroke-linecap:round;stroke-linejoin:round;" d="M287.227,359.099l-35.624-2.571v-0.229L250,356.412l-1.603-0.114v0.229l-35.623,2.571c0,0-7.005,7.604-6.806,17.412c0.402,2,6.206,6.403,15.011,7.004c-0.601-0.799,2.688-7.015,2.688-7.015s3-2.334,8.519,5.015c5.032,6.701,9.208,0.198,17.814,0.198c8.607,0,12.212,6.034,17.813-0.198c5.854-6.515,8.354-5.182,8.354-5.182s3.453,6.383,2.854,7.182c8.806-0.601,14.608-5.004,15.01-7.004C294.229,366.702,287.227,359.099,287.227,359.099z"></path><g><path style="fill:#505050;stroke:#000000;stroke-linecap:round;stroke-linejoin:round;" d="M279.58,383.666c0,0,4.291-4.354,4.291-5.955c0-1.6-6.803-2.2-10.408-1.2L279.58,383.666z"></path><path style="fill:#505050;stroke:#000000;stroke-linecap:round;stroke-linejoin:round;" d="M220.419,383.666c0,0-4.29-4.354-4.29-5.955c0-1.6,6.803-2.2,10.407-1.2L220.419,383.666z"></path></g><path style="fill:#505050;" d="M249.601,380.313c0,0-5.702-0.163-8.067,1.789c-1.802-6.407,0.861-16.601,0.861-16.601s2.601-5.403,7.806-5.603c5.203-0.201,6.203,1.8,6.203,1.8l3.003,21.815C259.407,383.515,256.006,380.713,249.601,380.313z"></path><g><path style="fill:none;stroke:#000000;stroke-linecap:round;stroke-linejoin:round;" d="M240.993,382.515c0,0,0.401-6.806,0.601-8.606"></path><path style="fill:none;stroke:#000000;stroke-linecap:round;stroke-linejoin:round;" d="M216.178,377.11c0,0,0-5.204,5.002-9.405"></path><path style="fill:none;stroke:#000000;stroke-linecap:round;stroke-linejoin:round;" d="M259.007,382.515c0,0-0.399-6.806-0.601-8.606"></path><path style="fill:none;stroke:#000000;stroke-linecap:round;stroke-linejoin:round;" d="M283.822,377.11c0,0,0.002-5.204-5.002-9.405"></path></g></g><g><g><path style="fill:#6E6E6E;stroke:#000000;stroke-linecap:round;stroke-linejoin:round;" d="M276.881,322.63c0,0,1.296-5.19,1.296-10.565c0-5.376-4.449-10.567-4.449-10.567L272.901,288h-6.535c0.355,4.629,0.402,9.914,0.504,12.755c-1.483,2.142-14.075,2.381-16.87,2.407c-2.794-0.026-15.388-0.266-16.87-2.407c0.102-2.841,0.149-8.126,0.505-12.755h-6.536l-0.826,13.497c0,0-4.449,5.191-4.449,10.567c0,5.375,1.297,10.565,1.297,10.565s-2.595,10.566-5.005,15.942c-1.409,3.146-4.977,6.298-5.098,8.342c-0.186,3.15,4.449,8.342,4.449,8.342l31.235,3.081c0,0.087,0,0.177,0,0.255l1.298-0.127l1.299,0.127c0-0.078,0-0.168,0-0.255l31.234-3.081c0,0,4.634-5.191,4.449-8.342c-0.12-2.044-3.688-5.196-5.099-8.342C279.476,333.196,276.881,322.63,276.881,322.63z"></path><path style="fill:#505050;" d="M244.81,354.699c-0.557,0.186-3.894-4.449-4.08-7.23c-0.183-2.779,3.153-7.6,3.153-7.6s6.86,2.226,7.046,5.932c0.185,3.708-1.669,7.601-1.669,7.601L244.81,354.699z"></path><path style="fill:#505050;" d="M215.721,352.289c0.205,0.311,4.775,3.85,7.971,3.708c2.552-0.114,3.894-3.893,3.894-3.893s-2.597-2.967-2.227-6.673c0.373-3.523,1.856-7.973,1.856-7.973s-3.476,7.812-5.562,10.196C219.058,350.62,215.721,352.289,215.721,352.289z"></path><path style="fill:#505050;" d="M284.109,352.289c-0.207,0.311-4.774,3.85-7.971,3.708c-2.551-0.114-3.893-3.893-3.893-3.893s2.594-2.967,2.224-6.673c-0.37-3.523-1.854-7.973-1.854-7.973s3.477,7.812,5.562,10.196C280.771,350.62,284.109,352.289,284.109,352.289z"></path><path style="fill:#505050;" d="M275.921,315.771c-0.372-3.521-6.487-5.005-11.493-4.448c-5.005,0.556-15.018,4.634-14.461,5.189c0,0.818-0.15,0.818-0.15,0c0.555-0.556-9.456-4.634-14.461-5.189c-5.006-0.557-11.121,0.928-11.493,4.448c-0.371,3.522,2.595,10.381,2.595,10.381c1.67,0.372,4.818-2.039,11.864-2.595c6.451-0.51,10.87-0.552,11.57-0.556c0.7,0.004,5.118,0.046,11.57,0.556c7.043,0.556,10.194,2.967,11.862,2.595C273.324,326.151,276.291,319.293,275.921,315.771z"></path><g><path style="fill:none;stroke:#000000;stroke-linecap:round;stroke-linejoin:round;" d="M225.9,324.482c1.299,0.929,3.522,0.187,3.522,0.187s8.898-2.225,17.982-2.039"></path><path style="fill:none;stroke:#000000;stroke-linecap:round;stroke-linejoin:round;" d="M231.833,323.927c0,0-2.966-1.854-2.779-4.449"></path><path style="fill:none;stroke:#000000;stroke-linecap:round;stroke-linejoin:round;" d="M240.729,323c0,0,1.484-2.225,1.669-2.594"></path><path style="fill:none;stroke:#000000;stroke-linecap:round;stroke-linejoin:round;" d="M229.054,351.826c-0.187-0.742-3.896-3.337-3.522-7.415c0.769-8.472,3.892-16.684,3.892-16.684"></path><path style="fill:none;stroke:#000000;stroke-linecap:round;stroke-linejoin:round;" d="M252.595,322.63c9.084-0.186,17.981,2.039,17.981,2.039s2.226,0.741,3.523-0.187"></path><path style="fill:none;stroke:#000000;stroke-linecap:round;stroke-linejoin:round;" d="M268.167,323.927c0,0,2.967-1.854,2.779-4.449"></path><path style="fill:none;stroke:#000000;stroke-linecap:round;stroke-linejoin:round;" d="M259.268,323c0,0-1.481-2.225-1.668-2.594"></path><path style="fill:none;stroke:#000000;stroke-linecap:round;stroke-linejoin:round;" d="M270.946,351.826c0.188-0.742,3.894-3.337,3.523-7.415c-0.77-8.472-3.894-16.684-3.894-16.684"></path></g></g><g><path style="fill:#FFFFFF;stroke:#000000;stroke-linecap:round;stroke-linejoin:round;" d="M250.557,303.71l19.464-1.842l-2.502-19.187c0,0-2.225-1.112-5.284-1.667c-1.111,1.667,0.557,6.116,0.557,6.116l2.225,2.225c0,0-0.834,0.279-2.503,1.39c-0.278,0.834,0,2.227,0.278,4.171c0.557,1.669-1.668,2.781-1.668,2.781s-2.502-0.835-3.615-0.835c-1.112,0-1.946,1.947-3.893,1.112c-1.184-0.591-2.781-0.343-3.615-0.149c-0.834-0.193-2.432-0.441-3.615,0.149c-1.946,0.835-2.78-1.112-3.893-1.112s-3.615,0.835-3.615,0.835s-2.225-1.112-1.668-2.781c0.277-1.944,0.556-3.337,0.277-4.171c-1.668-1.11-2.502-1.39-2.502-1.39l2.225-2.225c0,0,1.668-4.449,0.556-6.116c-3.058,0.555-5.283,1.667-5.283,1.667l-2.502,19.187l19.463,1.842v0.104l0.558-0.053l0.557,0.053V303.71z"></path><path style="fill:#E4E0F3;" d="M233.038,287.27c0-0.417,3.235-0.787,3.235-0.787l-1.984,2.316l2.076,2.503l-3.605,1.528L233.038,287.27z"></path><path style="fill:#E4E0F3;" d="M267.239,287.27c0-0.417-3.531-0.74-3.531-0.74l2.28,2.27l-2.511,2.642l4.041,1.39L267.239,287.27z"></path><path style="fill:#FFFFFF;stroke:#000000;stroke-linecap:round;stroke-linejoin:round;" d="M278.918,298.716c-0.369-0.555-2.779-2.224-2.779-2.224l0.556-2.779c0,0,1.112-0.188,2.039,0.369c0.742-3.893-2.039-7.6-2.039-7.6l1.668-0.742c0,0,0-4.818-1.298-5.931c-1.853,0.371-4.818,1.483-5.376,1.668c0,0-2.595,0.556-4.818,0.556c1.669,5.932,1.669,18.722,1.669,18.722L250,303.608l-18.538-2.854c0,0,0-12.79,1.668-18.722c-2.225,0-4.819-0.556-4.819-0.556c-0.557-0.185-3.522-1.297-5.375-1.668c-1.298,1.112-1.298,5.931-1.298,5.931l1.668,0.742c0,0-2.781,3.707-2.039,7.6c0.927-0.557,2.039-0.369,2.039-0.369l0.557,2.779c0,0-2.409,1.669-2.781,2.224c-0.372,0.558,0.742,4.636,1.482,5.192c0.742,0.556,3.709-1.854,3.709-1.854s1.481,0.926,1.668,1.481s-0.556,4.635,0.557,5.19c2.778,0.927,5.561,0.557,5.561,0.557s0.557-3.707,1.854-3.337c1.298,0.37,2.966,1.113,2.966,1.113s0.927,2.779,2.78,3.15c1.854,0.371,1.854,0.371,1.854,0.371l3.151,0.185l3.246-2.935l2.315,2.935l4.264-0.185c0,0,0,0,1.854-0.371s2.78-3.15,2.78-3.15s1.668-0.743,2.967-1.113c1.296-0.37,1.853,3.337,1.853,3.337s2.78,0.37,5.562-0.557c1.111-0.556,0.371-4.635,0.556-5.19c0.187-0.556,1.668-1.481,1.668-1.481s2.967,2.409,3.707,1.854C278.177,303.352,279.288,299.273,278.918,298.716z"></path><path style="fill:#E4E0F3;" d="M224.362,286.621c-0.879,1.205-1.297,2.688-1.297,2.688s4.829-2.179,4.134-2.595c-0.696-0.417-3.252-1.161-3.252-1.161S224.409,286.157,224.362,286.621z"></path><path style="fill:#E4E0F3;" d="M276.871,289.123c0,0-5.535-1.992-4.84-2.408c0.693-0.417,3.911-1.113,3.911-1.113L276.871,289.123z"></path><path style="fill:#E4E0F3;" d="M231.128,308.171l3.579-5.33l-0.612,5.469C234.095,308.31,231.964,308.357,231.128,308.171z"></path><path style="fill:#E4E0F3;" d="M268.944,308.171l-3.79-5.33l1.705,5.377C266.859,308.218,266.998,308.588,268.944,308.171z"></path><path style="fill:#E4E0F3;" d="M224.179,293.247l5.244-0.138l-4.55,3.476C224.873,296.585,224.781,295.52,224.179,293.247z"></path><path style="fill:#E4E0F3;" d="M275.804,293.155l-5.922-0.046l5.41,4.171C275.292,297.28,275.247,295.103,275.804,293.155z"></path><path style="fill:#323232;stroke:#000000;stroke-linecap:round;stroke-linejoin:round;" d="M270.014,282.536c-0.081-0.764-0.767-1.316-1.53-1.237c-0.762,0.079-1.315,0.765-1.235,1.529c0.013,0.112,0.826,16.537,0.826,16.537s-17.016,2.774-17.154,2.794c-0.381,0.054-1.459,0.054-1.84,0c-0.139-0.02-17.154-2.794-17.154-2.794s0.813-16.425,0.826-16.537c0.081-0.765-0.473-1.45-1.236-1.529c-0.763-0.079-1.448,0.474-1.528,1.237c-0.05,0.47-1.212,11.569-1.026,18.258c0.018,0.659,0.496,1.213,1.144,1.33c4.606,0.83,18.021,2.71,18.591,2.789c0.521,0.073,2.088,0.073,2.609,0c0.569-0.079,13.983-1.959,18.591-2.789c0.649-0.117,1.125-0.671,1.146-1.33C271.225,294.105,270.062,283.006,270.014,282.536z"></path></g></g><g><g><path style="fill:#FFFFFF;stroke:#000000;stroke-linecap:round;stroke-linejoin:round;" d="M282.571,351.426c-0.402,1.207-1.608,2.614-2.211,2.614c-0.604,0-2.814-0.805-2.814-0.805s1.006-2.814-1.006-3.619c-2.011-0.804-7.439-1.407-7.842-0.804c-0.4,1.406-0.4,3.217-0.4,3.217s-3.016,0.201-3.821-0.804c0.202-1.207-1.207-3.216-1.207-3.216s-5.027-2.614-8.242-1.008c-0.604,1.408-0.604,2.012-0.604,2.012s-1.004,1.105-4.424,1.105c-3.418,0-4.424-1.105-4.424-1.105s0-0.604-0.603-2.012c-3.216-1.606-8.244,1.008-8.244,1.008s-1.406,2.009-1.207,3.216c-0.804,1.005-3.821,0.804-3.821,0.804s0-1.811-0.401-3.217c-0.401-0.604-5.83,0-7.84,0.804c-2.011,0.805-1.005,3.619-1.005,3.619s-2.214,0.805-2.816,0.805c-0.602,0-1.81-1.407-2.211-2.614c-2.011-0.2-4.02-0.2-6.434,2.814c-0.201,3.016,3.015,4.623,3.015,4.623L250,358.666l35.989,0.197c0,0,3.218-1.607,3.016-4.623C286.593,351.226,284.584,351.226,282.571,351.426z"></path><path style="fill:#E4E0F3;" d="M244.322,348.675l0.768,6.823l5.435,0.604l0.395-4.864c0,0-1.168,0.15-3.431-0.189C245.261,350.715,244.322,348.675,244.322,348.675z"></path><path style="fill:#E4E0F3;" d="M230.336,349.806l0.377,5.654l-1.825,0.188l-2.058-5.542C226.83,350.105,228.279,349.616,230.336,349.806z"></path><line style="fill:none;stroke:#000000;stroke-linecap:round;stroke-linejoin:round;" x1="261.863" y1="348.209" x2="261.259" y2="353.235"></line><line style="fill:none;stroke:#000000;stroke-linecap:round;stroke-linejoin:round;" x1="237.132" y1="348.41" x2="238.138" y2="352.834"></line></g><g><path style="fill:#FFFFFF;stroke:#000000;stroke-linecap:round;stroke-linejoin:round;" d="M285.989,358.263l-35.584-0.984c0-0.015,0-0.022,0-0.022L250,357.269l-0.401-0.013c0,0,0,0.008,0,0.022l-35.589,0.984l-5.831,3.193c0,0,1.811,3.239,4.625,3.844c1.205-0.604,2.412-1.61,2.412-1.61s1.608,0.806,2.212,1.408c0.603,0.605,1.206,1.607,1.206,1.607s2.012,2.615,7.642-0.2c1.607,0.804,2.411,2.012,6.834,1.208c1.208-1.608,1.307-3.721,1.307-3.721h2.715l2.21,4.322c0,0,3.721,1.608,8.344-0.101c0.404-1.709,0.404-2.212,1.709-3.619c2.012,0,4.625,0.904,4.625,0.904s0.203,1.006,0.604,2.815c5.229,1.006,6.032,0,6.032,0s0.807-1.262,1.51-1.508c1.563-0.546,3.891-0.206,4.723,0.906c4.425,0.804,5.228-0.404,6.837-1.208c5.629,2.815,7.64,0.2,7.64,0.2s0.604-1.002,1.206-1.607c0.604-0.603,2.212-1.408,2.212-1.408s1.206,1.006,2.412,1.61c2.816-0.604,4.627-3.844,4.627-3.844L285.989,358.263z"></path><path style="fill:#E4E0F3;" d="M255.443,367.146c0,0-0.014-6.974,0.287-7.125c0.303-0.149,1.976,7.541,1.976,7.541S256.386,367.562,255.443,367.146z"></path><path style="fill:#E4E0F3;" d="M232.672,366.543c0,0-1.243,0.83-3.241,0.189c0.904-2.867,2.875-6.359,3.981-6.46C234.519,360.171,232.672,366.543,232.672,366.543z"></path><path style="fill:#E4E0F3;" d="M274.481,350.295l-1.108,5.203l2.729,0.112l0.603-4.486C276.705,351.124,275.876,350.258,274.481,350.295z"></path><path style="fill:#E4E0F3;" d="M269.904,358.966l1.599,7.501c0,0,1.018-1.167,3.355-0.754c-0.904-2.864-1.937-6.446-1.937-6.446L269.904,358.966z"></path><line style="fill:none;stroke:#000000;stroke-linecap:round;stroke-linejoin:round;" x1="264.881" y1="362.686" x2="266.889" y2="367.713"></line><line style="fill:none;stroke:#000000;stroke-linecap:round;stroke-linejoin:round;" x1="259.854" y1="367.914" x2="259.45" y2="363.287"></line><line style="fill:none;stroke:#000000;stroke-linecap:round;stroke-linejoin:round;" x1="225.671" y1="366.707" x2="227.079" y2="362.485"></line></g><path style="fill:#323232;stroke:#000000;stroke-linecap:round;stroke-linejoin:round;" d="M213.23,359.46L213.23,359.46c0.106-0.009,10.827-1.098,36.771-1.098c25.973,0,36.159,1.089,36.261,1.098l0,0c0.661,0.074,1.257-0.404,1.33-1.067c0.071-0.662-0.405-1.258-1.068-1.33l0,0c-0.102-0.013-10.421-1.112-36.522-1.112s-36.914,1.1-37.022,1.112l0,0c-0.661,0.067-1.142,0.663-1.073,1.325C211.976,359.05,212.569,359.531,213.23,359.46L213.23,359.46z"></path></g></g><g><g><path style="fill:#323232;stroke:#000000;stroke-linecap:round;stroke-linejoin:round;" d="M248.387,309.931c0,0-5.283,18.631-5.005,27.251c-1.391,0.277-3.059-0.557-3.059-0.557s1.391-18.63,6.394-26.694C246.162,309.376,248.387,309.931,248.387,309.931z"></path><path style="fill:#323232;stroke:#000000;stroke-linecap:round;stroke-linejoin:round;" d="M250.149,307.316l0.556,2.225c0,0-9.133,10.927-10.567,10.565c-2.224-0.555-4.728-5.281-5.283-7.229s12.79-8.342,12.79-8.342l1.67,1.948c0,0-10.012,5.004-10.289,6.672c-0.279,1.669,1.947,1.946,1.947,1.946L250.149,307.316z"></path><g><path style="fill:#323232;" d="M245.565,337.042c1.192,2.864-1.128,5.185-3.99,3.992c-2.864,1.192-5.185-1.128-3.993-3.992c-1.191-2.862,1.129-5.184,3.993-3.992C244.438,331.858,246.758,334.18,245.565,337.042z"></path><path style="fill:none;stroke:#000000;stroke-linecap:round;stroke-linejoin:round;" d="M245.565,337.042c1.192,2.864-1.128,5.185-3.99,3.992c-2.864,1.192-5.185-1.128-3.993-3.992c-1.191-2.862,1.129-5.184,3.993-3.992C244.438,331.858,246.758,334.18,245.565,337.042z"></path></g></g><g><path style="fill:#323232;stroke:#000000;stroke-linecap:round;stroke-linejoin:round;" d="M251.169,309.931c0,0,5.283,18.631,5.006,27.251c1.391,0.277,3.058-0.557,3.058-0.557s-1.39-18.63-6.395-26.694C253.394,309.376,251.169,309.931,251.169,309.931z"></path><path style="fill:#323232;stroke:#000000;stroke-linecap:round;stroke-linejoin:round;" d="M249.871,307.316l-0.558,2.225c0,0,9.132,10.927,10.567,10.565c2.225-0.555,4.728-5.281,5.283-7.229s-12.791-8.342-12.791-8.342l-1.668,1.948c0,0,10.01,5.004,10.288,6.672c0.278,1.669-1.946,1.946-1.946,1.946L249.871,307.316z"></path><g><path style="fill:#323232;" d="M253.989,337.042c-1.191,2.864,1.129,5.185,3.993,3.992c2.863,1.192,5.184-1.128,3.991-3.992c1.192-2.862-1.128-5.184-3.991-3.992C255.118,331.858,252.798,334.18,253.989,337.042z"></path><path style="fill:none;stroke:#000000;stroke-linecap:round;stroke-linejoin:round;" d="M253.989,337.042c-1.191,2.864,1.129,5.185,3.993,3.992c2.863,1.192,5.184-1.128,3.991-3.992c1.192-2.862-1.128-5.184-3.991-3.992C255.118,331.858,252.798,334.18,253.989,337.042z"></path></g></g><path style="fill:#323232;stroke:#000000;stroke-linecap:round;stroke-linejoin:round;" d="M251.355,309.376c-0.464,0.741-1.761,0.463-2.599,0.277c-0.834-0.185-1.297-4.911-0.834-5.468c0.464-0.556,3.153-0.928,4.081,0C252.932,305.112,251.819,308.635,251.355,309.376z"></path></g></g></g></g></svg>