<svg xmlns="http://www.w3.org/2000/svg" width="500" height="500" version="1.1"><g id="x153"><g><path style="fill:#FFFFFF;stroke:#000000;stroke-linecap:round;stroke-linejoin:round;" d="M236.084,283.347c-1.489,4.562-3.182,13.094-2.952,17.695c-1.424-1.106-4.907-3.641-4.749-4.433c0.95-2.532,2.374-3.64,2.374-3.64s-2.691-2.374-2.532-4.748c1.265-1.427,3.483-3.009,3.483-3.009s-0.951-1.582-1.743-3.006c2.533-2.532,5.541-2.375,7.598-1.899C237.175,280.479,236.644,281.634,236.084,283.347z"></path><path style="fill:#FFFFFF;stroke:#000000;stroke-linecap:round;stroke-linejoin:round;" d="M233.5,297"></path><path style="fill:#FFFFFF;stroke:#000000;stroke-linecap:round;stroke-linejoin:round;" d="M264.406,283.347c1.488,4.562,3.182,13.094,2.951,17.695c1.424-1.106,4.907-3.641,4.749-4.433c-0.95-2.532-2.374-3.64-2.374-3.64s2.691-2.374,2.532-4.748c-1.265-1.427-3.483-3.009-3.483-3.009s0.951-1.582,1.742-3.006c-2.533-2.532-5.54-2.375-7.598-1.899C263.314,280.479,263.847,281.634,264.406,283.347z"></path><path style="fill:#FFFFFF;stroke:#000000;stroke-linecap:round;stroke-linejoin:round;" d="M266.99,297"></path><path style="fill:#FFFFFF;stroke:#000000;stroke-linecap:round;stroke-linejoin:round;" d="M279.31,342.437L250,347.32l-29.307-4.884c0,0-2.354,3.799-2.173,6.876c3.075,0.361,5.067-1.267,5.067-1.267s0.18,3.256,2.351,4.161c2.897-1.446,3.801-3.075,3.801-3.075s1.265,2.713,4.161,3.979c3.257-1.267,3.257-2.896,3.257-2.896s1.81,3.078,4.887,3.619c2.895-2.171,3.075-3.799,3.075-3.799s4.667,4.986,4.88,4.342c0.215,0.645,4.88-4.342,4.88-4.342s0.182,1.628,3.077,3.799c3.076-0.541,4.885-3.619,4.885-3.619s0,1.629,3.258,2.896c2.895-1.267,4.162-3.979,4.162-3.979s0.905,1.629,3.8,3.075c2.17-0.905,2.352-4.161,2.352-4.161s1.991,1.628,5.066,1.267C281.661,346.235,279.31,342.437,279.31,342.437z"></path><g><g><path style="fill:#FFFFFF;stroke:#000000;stroke-linecap:round;stroke-linejoin:round;" d="M267.05,292.814c-0.5,1-0.966,2.436-0.966,2.436l-1.168-2.084c0,0-3.832,0.334-5.5,1.667c0.25,0.75-0.5,2.083-0.5,2.083l-1.416-1.518c0,0-3.75,0.5-4.75,1.5c0.25,1-0.25,2.25-0.25,2.25s-1.25,0.102-2.5,0.602c-1.25-0.5-2.5-0.602-2.5-0.602s-0.5-1.25-0.25-2.25c-1-1-4.75-1.5-4.75-1.5l-1.416,1.518c0,0-0.75-1.333-0.5-2.083c-1.667-1.333-5.5-1.667-5.5-1.667l-1.167,2.084c0,0-0.466-1.436-0.966-2.436c-1.75-0.25-4.7-0.314-6.2,1.686c0.833,2.833,2.25,3.75,2.25,3.75l21,8l21-8c0,0,1.416-0.917,2.25-3.75C271.75,292.5,268.8,292.564,267.05,292.814z"></path><g><path style="fill:#E4E0F3;" d="M232.65,293.291c0,0,0.875,2.168,1.042,2.334s0.458,0.207,0.583,0.041s1.125-2,1.125-2l-0.75,5l-2.667-0.791C231.984,297.875,232.4,293.749,232.65,293.291z"></path><path style="fill:#E4E0F3;" d="M240.067,294.958c0,0,0.458,2.333,0.875,2.458c0.583-0.25,1.75-1.458,1.75-1.458s-0.917,3.792-1.5,4.292c-1.542-0.125-1.875-0.667-1.875-0.667S239.775,295.791,240.067,294.958z"></path><path style="fill:#E4E0F3;" d="M267.348,293.291c0,0-0.875,2.168-1.042,2.334s-0.458,0.207-0.583,0.041s-1.125-2-1.125-2l0.75,5l2.666-0.791C268.014,297.875,267.598,293.749,267.348,293.291z"></path><path style="fill:#E4E0F3;" d="M259.931,294.958c0,0-0.458,2.333-0.875,2.458c-0.583-0.25-1.75-1.458-1.75-1.458s0.917,3.792,1.5,4.292c1.542-0.125,1.875-0.667,1.875-0.667S260.223,295.791,259.931,294.958z"></path></g></g><g><g><g><path style="fill:#525E66;stroke:#000000;stroke-linecap:round;stroke-linejoin:round;" d="M229.5,297.5c0,0-2,4.75-3.5,10.25s-1,18.25-1.5,20c-2,3.5-6.25,15.25-6,16.25s4.5,3.25,31.75,3.25c0-27,0-42.75,0-42.75S240.5,299.5,229.5,297.5z"></path><path style="opacity:0.5;fill:#FFFFFF;" d="M224.604,328.25c0,0-5.875,14.125-5.625,15.875c2,0.875,6,1,6,1S222.979,342,224.604,328.25z"></path><path style="fill:none;stroke:#000000;stroke-linecap:round;stroke-linejoin:round;" d="M234.5,327.25c0,0-2.5,17.5-2.5,19.25"></path><path style="fill:#525E66;stroke:#000000;stroke-linecap:round;stroke-linejoin:round;" d="M270.99,297.5c0,0,2,4.75,3.5,10.25s1,18.25,1.5,20c2,3.5,6.25,15.25,6,16.25s-4.5,3.25-31.75,3.25c0-27,0-42.75,0-42.75S259.99,299.5,270.99,297.5z"></path><g><path style="opacity:0.5;fill:#FFFFFF;" d="M275.395,328.25c0,0,5.875,14.125,5.625,15.875c-2,0.875-6,1-6,1S277.02,342,275.395,328.25z"></path></g><path style="fill:none;stroke:#000000;stroke-linecap:round;stroke-linejoin:round;" d="M265.99,327.25c0,0,2.5,17.5,2.5,19.25"></path></g><g><g><path style="fill:#6E6E6E;stroke:#000000;stroke-linecap:round;stroke-linejoin:round;" d="M237.5,299.398c0,0-2,5.352-2.25,10.352s-1,18.398-1,18.398s11.75,8.25,16,8.25c0-9.75,0-31.5,0-31.5S244,301.398,237.5,299.398z"></path><path style="fill:none;stroke:#000000;stroke-linecap:round;stroke-linejoin:round;" d="M240.188,300.576c-0.219,0.906-1.313,5.25-1.938,9.625c0,1.5-1.125,19.449-1.125,19.449"></path><path style="fill:none;stroke:#000000;stroke-linecap:round;stroke-linejoin:round;" d="M243.85,302.574c-0.156,0.783-0.85,5.25-1.475,9.625c0,1.5-1.125,20.25-1.125,20.25"></path><path style="fill:none;stroke:#000000;stroke-linecap:round;stroke-linejoin:round;" d="M247.375,303.771c-0.125,0.68-0.875,10.625-0.875,10.625l-1.125,20.25"></path></g><g><path style="fill:#6E6E6E;stroke:#000000;stroke-linecap:round;stroke-linejoin:round;" d="M262.99,299.398c0,0,2,5.352,2.25,10.352s1,18.398,1,18.398s-11.75,8.25-16,8.25c0-9.75,0-31.5,0-31.5S256.49,301.398,262.99,299.398z"></path><path style="fill:none;stroke:#000000;stroke-linecap:round;stroke-linejoin:round;" d="M260.303,300.576c0.219,0.906,1.313,5.25,1.938,9.625c0,1.5,1.125,19.549,1.125,19.549"></path><path style="fill:none;stroke:#000000;stroke-linecap:round;stroke-linejoin:round;" d="M256.639,302.574c0.156,0.783,0.852,5.25,1.477,9.625c0,1.5,1.125,20.25,1.125,20.25"></path><path style="fill:none;stroke:#000000;stroke-linecap:round;stroke-linejoin:round;" d="M253.115,303.771c0.125,0.68,0.875,10.625,0.875,10.625l1.125,20.25"></path></g></g></g><g><rect x="248.531" y="303.875" style="fill:#FFFFFF;stroke:#000000;stroke-linecap:round;stroke-linejoin:round;" width="2.938" height="43.375"></rect><g><circle style="fill:#505050;stroke:#000000;stroke-linecap:round;stroke-linejoin:round;" cx="250" cy="314.158" r="1.15"></circle><circle style="fill:#505050;stroke:#000000;stroke-linecap:round;stroke-linejoin:round;" cx="250" cy="322.493" r="1.15"></circle><circle style="fill:#505050;stroke:#000000;stroke-linecap:round;stroke-linejoin:round;" cx="250" cy="330.828" r="1.15"></circle></g></g><g><path style="fill:#505050;stroke:#000000;stroke-linecap:round;stroke-linejoin:round;" d="M248.929,306.117c0,0-1.581-2.73-3.161-2.875c-1.006,2.588,0,5.316,0,5.316L248.929,306.117z"></path><path style="fill:#505050;stroke:#000000;stroke-linecap:round;stroke-linejoin:round;" d="M250.071,306.117c0,0,1.58-2.73,3.161-2.875c1.006,2.588,0,5.316,0,5.316L250.071,306.117z"></path><path style="fill:#505050;stroke:#000000;stroke-linecap:round;stroke-linejoin:round;" d="M250.796,306.979h-2.298l-0.145-2.012c0,0,2.301-0.431,2.588,0S250.796,306.979,250.796,306.979z"></path></g></g></g></g></g></svg>