<svg xmlns="http://www.w3.org/2000/svg" width="500" height="500" version="1.1"><g id="x154"><g><path style="fill:#6E6E6E;stroke:#000000;stroke-linecap:round;stroke-linejoin:round;" d="M287.586,301.906c0,0-1.791-2.081-3.07-3.028s-3.583-0.71-6.141,0.711c-1.023-0.948-1.6-2.925-3.838-3.554c-1.359-0.384-3.838,0.236-6.142,1.423c-1.023-1.423-2.196-2.663-4.093-3.081c-1.822-0.401-3.07-0.236-6.141,1.421c-3.061-2.361-5.585-2.133-8.163-2.133c-2.576,0-5.102-0.229-8.163,2.133c-3.069-1.657-4.319-1.822-6.14-1.421c-1.896,0.418-3.071,1.658-4.093,3.081c-2.302-1.187-4.78-1.807-6.141-1.423c-2.24,0.629-2.814,2.605-3.839,3.554c-2.558-1.421-4.859-1.658-6.139-0.711s-3.071,4.028-3.071,4.028s-3.326-1.238-3.07,0.657c0.255,1.896,5.373,5.687,5.373,5.687h35.258h0.048h35.26c0,0,5.118-3.791,5.374-5.686C290.913,301.668,287.586,301.906,287.586,301.906z"></path><g><path style="fill:#505050;" d="M218.956,298.875c0,0,2,1.25,2.625,1.125s1.875-2.125,1.875-2.125c0.25,1.25-1,4.25-1.875,4.25S218.956,298.875,218.956,298.875z"></path><path style="fill:#505050;" d="M229.394,297.125c0,0,2,0.875,2.25,0.875s0.875-1.438,1.563-1.625c0.125,1.125-0.188,3.688-1.375,3.875S229.394,297.125,229.394,297.125z"></path><path style="fill:#505050;" d="M281.042,298.875c0,0-2,1.25-2.625,1.125s-1.875-2.125-1.875-2.125c-0.25,1.25,1,4.25,1.875,4.25S281.042,298.875,281.042,298.875z"></path><path style="fill:#505050;" d="M270.604,297.125c0,0-2,0.875-2.25,0.875s-0.875-1.438-1.563-1.625c-0.125,1.125,0.188,3.688,1.375,3.875S270.604,297.125,270.604,297.125z"></path></g></g><g><g><path style="fill:#6E6E6E;stroke:#000000;stroke-linecap:round;stroke-linejoin:round;" d="M214.313,306.25c0,0-3,1.25-4.5,8c-1.5,1.25-3.25,3-3.25,3.75s1.5,1.5,3,1.75c1.5,0.75,3.75,3.75,6.5,3.25s5.25-1.75,5.25-1.75s1.25,2.5,4.75,2c1.5-9.75,3-16.75,3-16.75"></path><g><path style="fill:#505050;" d="M211.438,316.125c0,0,1.25,1.5,2.875,1.25c0.625-1.5,1.125-3,0.375-3.375S211.438,315.5,211.438,316.125z"></path><path style="fill:#505050;" d="M217.189,317.979c0,0,1.525,1.219,3.067,0.648c0.312-1.595,0.501-3.165-0.309-3.382S217.064,317.367,217.189,317.979z"></path></g></g><g><path style="fill:#6E6E6E;stroke:#000000;stroke-linecap:round;stroke-linejoin:round;" d="M285.688,306.25c0,0,3,1.25,4.5,8c1.5,1.25,3.25,3,3.25,3.75s-1.5,1.5-3,1.75c-1.5,0.75-3.75,3.75-6.5,3.25s-5.25-1.75-5.25-1.75s-1.25,2.5-4.75,2c-1.5-9.75-3-16.75-3-16.75"></path><g><path style="fill:#505050;" d="M288.563,316.125c0,0-1.25,1.5-2.875,1.25c-0.625-1.5-1.125-3-0.375-3.375S288.563,315.5,288.563,316.125z"></path><path style="fill:#505050;" d="M282.811,317.979c0,0-1.525,1.219-3.066,0.648c-0.313-1.595-0.502-3.165,0.309-3.382S282.936,317.367,282.811,317.979z"></path></g></g></g><g><path style="fill:#6E6E6E;stroke:#000000;stroke-linecap:round;stroke-linejoin:round;" d="M227.666,301.461c-0.521,1.303-2.077,6.479-2.166,7.539c-0.5,6-0.5,14-0.75,17.25c-1.5,3.5-9.75,18.5-13,29.75c-1,1-2.25,1.5-2.25,2.5s0.75,2.25,0.75,2.25s-4.5,3.5-4.75,4.5c1.25,3.75,6.25,6.25,9,6.75c1.5,1.5,4,2.75,5,3s3-1.25,3-1.25s2,3.75,7,4s7-3.25,7-3.25s1.5,3.5,2.75,3s0.75-4.25,0.75-4.25s3-4.25,3.5-10S242.75,353,242.75,353s4.25-6.5,4.25-12s-0.25-13-0.25-13s2-3.75,2-5.5s1.25-6.75,1.25-6.75s1.255,5,1.255,6.75s2,5.5,2,5.5s-0.25,7.5-0.25,13s4.25,12,4.25,12s-1.25,4.5-0.75,10.25s3.5,10,3.5,10s-0.5,3.75,0.75,4.25s2.75-3,2.75-3s2,3.5,7,3.25s7-4,7-4s2,1.5,3,1.25s3.5-1.5,5-3c2.75-0.5,7.75-3,9-6.75c-0.25-1-4.75-4.5-4.75-4.5s0.75-1.25,0.75-2.25s-1.25-1.5-2.25-2.5c-3.25-11.25-11.5-26.25-13-29.75c-0.25-3.25-0.25-11.25-0.75-17.25c-0.088-1.061-1.645-6.236-2.166-7.539"></path><g><path style="fill:#505050;" d="M226.375,309.25c0,0,3.25-6,6.5-8.25c2.035-1.409,10,1.25,11.5,2.75C230.875,304.5,226.375,309.25,226.375,309.25z"></path><path style="fill:#505050;" d="M273.625,309.25c0,0-3.25-6-6.5-8.25c-2.035-1.409-10,1.25-11.5,2.75C269.125,304.5,273.625,309.25,273.625,309.25z"></path></g><g><path style="fill:#505050;" d="M212.375,370.625c0,0,1.875,1,2.625,1c0.375,0.875,1.125,0.875,1.875,1.125s1.125-3,0.875-3.625S212.375,370.625,212.375,370.625z"></path><path style="fill:#505050;" d="M287.629,370.625c0,0-1.875,1-2.625,1c-0.375,0.875-1.125,0.875-1.875,1.125s-1.125-3-0.875-3.625S287.629,370.625,287.629,370.625z"></path></g></g></g></svg>