<svg xmlns="http://www.w3.org/2000/svg" width="500" height="500" version="1.1"><g id="x155"><g><g><g><path style="fill:#FFFFFF;stroke:#C7D1D6;stroke-linecap:round;stroke-linejoin:round;" d="M189.121,337.297l-4.026,1.495c0,0-4.092,2.518-2.975,5.854c1.377,4.12,4.43,3.488,4.43,3.488s-2.044,2.649-0.638,6.186c1.405,3.536,5.52,2.53,5.52,2.53s-2.6,3.301,0.518,6.525c3.119,3.223,5.897,0.901,5.897,0.901s-1.147,3.474,3.103,5.849c3.913,2.187,7.112-1.144,7.112-1.144s-0.996,4.228,3.187,4.979c4.185,0.754,4.426-2.072,4.426-2.072l2.123-2.22"></path><path style="fill:#FFFFFF;stroke:#000000;stroke-linecap:round;stroke-linejoin:round;" d="M226.074,288c0,0-4.75,4-8,11.25s-8.5,18.75-8.5,18.75s-24,18.25-25.5,21.25c1.25,7,5.583,30,32.333,32.75c11.25-30.25,15.917-52.75,15.917-52.75L226.074,288z"></path><circle style="fill:#6E6E6E;" cx="213.199" cy="337.875" r="2.375"></circle><path style="fill:#E4E0F3;" d="M184.908,340.334c0,0,2.333,23.499,24.167,29.666c7.333-9,10.667-24.666,10.667-24.666s-7,8.499-16.333,8.166S184.908,340.334,184.908,340.334z"></path><path style="fill:#E4E0F3;" d="M186.574,339.834c0,0,10,6,16.167,5.333s4.667-4,4.667-4S189.741,338.834,186.574,339.834z"></path><path style="fill:#E4E0F3;" d="M187.241,337c0,0,11.5-10.334,14.667-12c-2.667,5.167-5.333,9.501-7.333,10.334S187.241,337,187.241,337z"></path><g><g><g><g><g><g><path style="fill:#505050;" d="M202.411,358.11c0,0.444-0.361,0.806-0.804,0.806c-0.443,0-0.805-0.361-0.805-0.806c0-0.441,0.361-0.803,0.805-0.803C202.05,357.308,202.411,357.669,202.411,358.11z"></path><circle style="fill:#505050;" cx="203.471" cy="359.043" r="0.803"></circle><circle style="fill:#505050;" cx="204.301" cy="361.117" r="0.803"></circle><circle style="fill:#505050;" cx="202.954" cy="362.671" r="0.803"></circle><circle style="fill:#505050;" cx="200.467" cy="362.671" r="0.803"></circle><circle style="fill:#505050;" cx="199.12" cy="360.806" r="0.803"></circle><circle style="fill:#505050;" cx="199.638" cy="358.94" r="0.803"></circle></g></g></g></g><g><g><g><g><circle style="fill:#6E6E6E;" cx="197.694" cy="337.677" r="2.944"></circle><path style="fill:#6E6E6E;" d="M194.918,340.631c-0.487,1.55-2.139,2.414-3.692,1.928c-1.551-0.484-2.416-2.137-1.927-3.688c0.485-1.552,2.136-2.414,3.69-1.93C194.539,337.429,195.405,339.079,194.918,340.631z"></path><circle style="fill:#6E6E6E;" cx="201.091" cy="342.194" r="2.943"></circle><circle style="fill:#6E6E6E;" cx="198.051" cy="347.164" r="2.943"></circle><circle style="fill:#6E6E6E;" cx="192.545" cy="345.439" r="2.944"></circle><path style="fill:#6E6E6E;" d="M194.243,346.711c-0.302-0.218-1.918-5.289-1.918-5.289l2.744-2.841l3.77,0.564l1.354,2.768l-0.236,3.504L194.243,346.711z"></path></g><path style="fill:#505050;" d="M203.605,340.688c-2.219-0.375-13.813-1-14.469-1.125c-0.063,0.688,0.125,1.125,0.625,2.031c0.406,0.469,5,2.031,5,2.031l2.968,0.156c-0.199,0.209-0.479,0.427-0.906,0.656c0.875,0.156,3.188,0.5,3.188,0.5s3,1,3.906-1.969C204.387,341.406,203.605,340.688,203.605,340.688z"></path><circle style="fill:#E4E0F3;" cx="196.366" cy="342.502" r="1.942"></circle></g><g><g><path style="fill:#6E6E6E;" d="M220.221,297.136c-0.158-0.05-0.317-0.076-0.477-0.098c0,0-0.686,1.196-1.124,2.181s-1.281,2.891-1.281,2.891c0.305,0.275,0.703,0.512,1.121,0.642c1.55,0.488,3.204-0.378,3.689-1.928C222.637,299.273,221.772,297.623,220.221,297.136z"></path><path style="fill:#6E6E6E;" d="M217.34,302.109l-2.503,5.354c0.182,0.104,0.375,0.193,0.584,0.259c1.55,0.486,3.203-0.375,3.689-1.927C219.579,304.303,218.779,302.66,217.34,302.109z"></path></g></g></g></g></g></g></g><g><path style="fill:#FFFFFF;stroke:#C7D1D6;stroke-linecap:round;stroke-linejoin:round;" d="M310.879,337.297l4.026,1.495c0,0,4.092,2.518,2.976,5.854c-1.378,4.12-4.431,3.488-4.431,3.488s2.044,2.649,0.638,6.186c-1.404,3.536-5.52,2.53-5.52,2.53s2.6,3.301-0.518,6.525c-3.119,3.223-5.896,0.901-5.896,0.901s1.146,3.474-3.104,5.849c-3.913,2.187-7.112-1.144-7.112-1.144s0.996,4.228-3.187,4.979c-4.186,0.754-4.426-2.072-4.426-2.072l-2.123-2.22"></path><path style="fill:#FFFFFF;stroke:#000000;stroke-linecap:round;stroke-linejoin:round;" d="M273.926,288c0,0,4.75,4,8,11.25s8.5,18.75,8.5,18.75s24,18.25,25.5,21.25c-1.25,7-5.584,30-32.334,32.75c-11.25-30.25-15.916-52.75-15.916-52.75L273.926,288z"></path><circle style="fill:#6E6E6E;" cx="286.801" cy="337.875" r="2.375"></circle><path style="fill:#E4E0F3;" d="M315.092,340.334c0,0-2.332,23.499-24.166,29.666c-7.334-9-10.666-24.666-10.666-24.666s6.999,8.499,16.332,8.166C305.926,353.167,315.092,340.334,315.092,340.334z"></path><path style="fill:#E4E0F3;" d="M313.426,339.834c0,0-10,6-16.166,5.333c-6.168-0.667-4.668-4-4.668-4S310.26,338.834,313.426,339.834z"></path><path style="fill:#E4E0F3;" d="M312.76,337c0,0-11.501-10.334-14.668-12c2.668,5.167,5.334,9.501,7.334,10.334S312.76,337,312.76,337z"></path><g><g><g><g><g><g><path style="fill:#505050;" d="M297.589,358.11c0,0.444,0.361,0.806,0.804,0.806c0.443,0,0.805-0.361,0.805-0.806c0-0.441-0.361-0.803-0.805-0.803C297.95,357.308,297.589,357.669,297.589,358.11z"></path><circle style="fill:#505050;" cx="296.529" cy="359.043" r="0.803"></circle><circle style="fill:#505050;" cx="295.699" cy="361.117" r="0.803"></circle><circle style="fill:#505050;" cx="297.045" cy="362.671" r="0.803"></circle><circle style="fill:#505050;" cx="299.533" cy="362.671" r="0.803"></circle><circle style="fill:#505050;" cx="300.879" cy="360.806" r="0.803"></circle><circle style="fill:#505050;" cx="300.361" cy="358.94" r="0.803"></circle></g></g></g></g><g><g><g><g><circle style="fill:#6E6E6E;" cx="302.306" cy="337.677" r="2.944"></circle><path style="fill:#6E6E6E;" d="M305.082,340.631c0.486,1.55,2.139,2.414,3.691,1.928c1.551-0.484,2.416-2.137,1.927-3.688c-0.485-1.552-2.136-2.414-3.69-1.93C305.461,337.429,304.596,339.079,305.082,340.631z"></path><circle style="fill:#6E6E6E;" cx="298.909" cy="342.194" r="2.943"></circle><circle style="fill:#6E6E6E;" cx="301.949" cy="347.164" r="2.943"></circle><circle style="fill:#6E6E6E;" cx="307.455" cy="345.439" r="2.944"></circle><path style="fill:#6E6E6E;" d="M305.757,346.711c0.302-0.218,1.919-5.289,1.919-5.289l-2.744-2.841l-3.77,0.564l-1.355,2.768l0.236,3.504L305.757,346.711z"></path></g><path style="fill:#505050;" d="M296.395,340.688c2.219-0.375,13.813-1,14.469-1.125c0.063,0.688-0.125,1.125-0.625,2.031c-0.406,0.469-5,2.031-5,2.031l-2.969,0.156c0.199,0.209,0.479,0.427,0.906,0.656c-0.875,0.156-3.188,0.5-3.188,0.5s-3,1-3.906-1.969C295.613,341.406,296.395,340.688,296.395,340.688z"></path><circle style="fill:#E4E0F3;" cx="303.633" cy="342.502" r="1.942"></circle></g><g><g><path style="fill:#6E6E6E;" d="M279.779,297.136c0.158-0.05,0.316-0.076,0.477-0.098c0,0,0.686,1.196,1.123,2.181s1.281,2.891,1.281,2.891c-0.305,0.275-0.703,0.512-1.121,0.642c-1.549,0.488-3.203-0.378-3.688-1.928C277.363,299.273,278.228,297.623,279.779,297.136z"></path><path style="fill:#6E6E6E;" d="M282.66,302.109l2.503,5.354c-0.183,0.104-0.376,0.193-0.584,0.259c-1.55,0.486-3.202-0.375-3.688-1.927C280.422,304.303,281.221,302.66,282.66,302.109z"></path></g></g></g></g></g></g></g></g><g><g><path style="fill:#FFFFFF;stroke:#C7D1D6;stroke-linecap:round;stroke-linejoin:round;" d="M210.342,365.091c0,0-2.992,7.312,3.797,10.034c6.79,2.72,8.968-3.234,8.968-3.234s-2.72,6.521,5.157,7.882c7.877,1.363,6.792-3.799,6.792-3.799s-0.545,5.433,7.333,5.711c7.879,0.273,7.611-4.614,7.611-4.614v-5.82L210.342,365.091z"></path><path style="fill:#FFFFFF;stroke:#C7D1D6;stroke-linecap:round;stroke-linejoin:round;" d="M289.658,365.091c0,0,2.991,7.312-3.797,10.034c-6.79,2.72-8.968-3.234-8.968-3.234s2.72,6.521-5.157,7.882c-7.877,1.363-6.791-3.799-6.791-3.799s0.545,5.433-7.333,5.711c-7.88,0.273-7.611-4.614-7.611-4.614v-5.82L289.658,365.091z"></path></g><g><path style="fill:#FFFFFF;stroke:#000000;stroke-linecap:round;stroke-linejoin:round;" d="M274.5,308.75c-0.25-3.25-1.5-7.5-1.5-7.5s2.25-6.5,1.25-13.25c-1.5-2-6-4.102-6-4.102L250,311l-18.25-27.102c0,0-4.5,2.102-6,4.102c-1,6.75,1.25,13.25,1.25,13.25s-1.25,4.25-1.5,7.5S224.25,328,224.25,328c4.25,2,14.75,6.5,25.75,6.5s21.5-4.5,25.75-6.5C275.75,328,274.75,312,274.5,308.75z"></path><path style="fill:#E4E0F3;" d="M274,312.5c-6.25,4.25-21.75,8.5-24,8c-2.25,0.5-17.75-3.75-24-8c-0.5,2.25,0,9.5,0,9.5l24,4.5l24-4.5C274,322,274.5,314.75,274,312.5z"></path><path style="fill:#FFFFFF;stroke:#000000;stroke-linecap:round;stroke-linejoin:round;" d="M281.5,342.75h-63L209,368c0,0,5.5,8.75,41,8.75s41-8.75,41-8.75L281.5,342.75z"></path><path style="fill:#E4E0F3;" d="M219.833,346.501c0,0,10.333,19.833,47,14.5c-9.5-0.333-13.333-1.499-13.833-3.333s1.334-3.168,2.667-3.334s20.832-4.332,24.166-9.166C257.5,345.168,219.833,346.501,219.833,346.501z"></path><g><g><circle style="fill:#6E6E6E;" cx="277.12" cy="357.677" r="2.944"></circle><path style="fill:#6E6E6E;" d="M274.344,360.631c-0.486,1.55-2.139,2.414-3.691,1.928c-1.551-0.484-2.416-2.137-1.927-3.688c0.485-1.552,2.136-2.414,3.69-1.93C273.965,357.429,274.83,359.079,274.344,360.631z"></path><circle style="fill:#6E6E6E;" cx="280.517" cy="362.194" r="2.943"></circle><circle style="fill:#6E6E6E;" cx="277.477" cy="367.164" r="2.943"></circle><circle style="fill:#6E6E6E;" cx="271.971" cy="365.439" r="2.944"></circle><path style="fill:#6E6E6E;" d="M273.669,366.711c-0.302-0.218-1.919-5.289-1.919-5.289l2.744-2.841l3.77,0.564l1.355,2.768l-0.236,3.504L273.669,366.711z"></path></g><circle style="fill:#FFFFFF;" cx="275.792" cy="362.502" r="1.942"></circle></g><path style="fill:#FFFFFF;stroke:#000000;stroke-linecap:round;stroke-linejoin:round;" d="M279,336c-13.75,0-44.25,0-58,0c-2.75,3.25-5,9-5,9s6.75,5,33.25,5s34.75-5,34.75-5S281.75,339.25,279,336z"></path><g><g><circle style="fill:#6E6E6E;" cx="259.944" cy="337.544" r="2.29"></circle><path style="fill:#6E6E6E;" d="M257.784,339.842c-0.378,1.205-1.663,1.878-2.871,1.499c-1.206-0.376-1.879-1.661-1.499-2.868c0.378-1.207,1.661-1.877,2.871-1.5C257.489,337.352,258.163,338.635,257.784,339.842z"></path><circle style="fill:#6E6E6E;" cx="262.586" cy="341.058" r="2.289"></circle><circle style="fill:#6E6E6E;" cx="260.222" cy="344.923" r="2.289"></circle><circle style="fill:#6E6E6E;" cx="255.939" cy="343.582" r="2.29"></circle><path style="fill:#6E6E6E;" d="M257.26,344.571c-0.234-0.17-1.493-4.114-1.493-4.114l2.135-2.21l2.932,0.439l1.055,2.152l-0.184,2.726L257.26,344.571z"></path></g><circle style="fill:#FFFFFF;" cx="258.911" cy="341.297" r="1.511"></circle></g><g><path style="fill:#FFFFFF;stroke:#000000;stroke-linecap:round;stroke-linejoin:round;" d="M262,280.648c0,0-0.5,18.102-12,28.602c-11.5-10.5-12-28.602-12-28.602s-5.25,1.75-6.5,3.25C231.25,307.25,250,320.5,250,320.5s18.75-13.25,18.5-36.602C267.25,282.398,262,280.648,262,280.648z"></path><g><circle style="fill:#6E6E6E;" cx="233.972" cy="289.614" r="1"></circle><circle style="fill:#6E6E6E;" cx="235.433" cy="287.466" r="1"></circle><circle style="fill:#6E6E6E;" cx="236.885" cy="293.134" r="1.001"></circle><circle style="fill:#6E6E6E;" cx="234.668" cy="292.184" r="1.001"></circle></g><path style="fill:#E4E0F3;" d="M260.5,295.167c-2,7-10.5,15.333-10.5,15.333s-8.5-8.333-10.5-15.333C238.333,295,235,296.5,235,297.5c3,10.667,15,21.667,15,21.667s12-11,15-21.667C265,296.5,261.667,295,260.5,295.167z"></path></g><path style="fill:#6E6E6E;stroke:#000000;stroke-linecap:round;stroke-linejoin:round;" d="M277.25,329.75C276.5,327,275.5,321,275.5,321s-6.75,2-25.5,2s-25.5-2-25.5-2s-1,6-1.75,8.75S221,336.5,221,336.5s4.5,3.5,29,3.5s29-3.5,29-3.5S278,332.5,277.25,329.75z"></path><path style="fill:#FFFFFF;stroke:#000000;stroke-linecap:round;stroke-linejoin:round;" d="M237.258,329.922c0,0,25.651,3.448,37.077,8.623c0,0,1.165,0.706,1.998-0.294s-0.49-1.216-0.49-1.216s-10.993-6.682-39.231-8.838C234.67,328.844,237.258,329.922,237.258,329.922z"></path></g></g><g><g><g><path style="fill:#6E6E6E;stroke:#000000;stroke-linecap:round;stroke-linejoin:round;" d="M232.201,335.906c0,0-1.115,16.93-3.773,20.178c-1.942,2.375-3.254,6.344-3.254,6.344s1.683,4.761,2.738,7.057c-0.232,2.796-2.359,15.947-2.359,15.947c-1.221-2.538-3.082-8.734-3.07-18.348c-1.443-3.436-4.363-4.989-4.154-5.688c0.438-1.468,2.833-14.193,4.554-17.91c1.722-3.717,9.56-11.46,9.56-11.46L232.201,335.906z"></path><path style="fill:#FFFFFF;" d="M218.833,361.458c0,0,4,4.124,4.125,5.583c0,1.792,0.292,11.335,2.333,16.501c0.417-2.209,0.875-5.209,0.875-5.209s-1.667-8.041-1.292-12.208c-1.292-4-5.5-7.084-5.5-7.084L218.833,361.458z"></path><path style="fill:#505050;" d="M221.125,351.25c0,0,1.95-3.97,4.537-2.893c2.588,1.077,4.088,2.83,4.088,2.83s0.779-2.877,0.938-5.188c0.125-1.833-0.308-8.166-0.813-10.5c-1.94,0-5.625,5.75-5.625,5.75S221.125,348.879,221.125,351.25z"></path></g><g><path style="fill:#6E6E6E;stroke:#000000;stroke-linecap:round;stroke-linejoin:round;" d="M230.131,333.49c-0.119,0.671,1.585,24.169,2.487,28.829c0.771,2.283,2.729,3.739,2.729,3.739s-1.402,8.268-1.059,10.612c0.344,2.346,4.414,6.325,4.607,9.128c1.575-4.352,0.949-8.611,2.221-12.759c0.713-2.324,3.404-3.844,3.234-5.39c-2.803-25.437-10.235-36.706-10.235-36.706L230.131,333.49z"></path><path style="fill:#FFFFFF;" d="M238.917,384.041c0,0,0.584-3.499,0.917-6.916s1-4.875,1.792-6.042s2.25-2.417,2.292-3.125c-0.167-1.625-0.25-2.583-0.25-2.583s-2.833,1.416-4.042,3.416S237,376.958,237,380.583C237.583,381.791,238.917,384.041,238.917,384.041z"></path><path style="fill:#505050;" d="M230.563,336.75l1.5,16.438c0,0,0.712-5.8,3.73-5.584c3.02,0.215,5.333,3.959,5.333,3.959l-3-11.625L230.563,336.75z"></path></g></g><g><g><path style="fill:#6E6E6E;stroke:#000000;stroke-linecap:round;stroke-linejoin:round;" d="M224.724,316.885c-2.168-0.8-8.438-2.828-10.961,0.255c-1.4,3.083-0.262,6.078-0.262,6.078l-2.381,2.598c0,0-1.682,5.605,3.644,9.529c1.121,1.682-1.511,7.286,0.528,8.562c2.872,1.794,10.145,2.752,12.236-0.766c1.154-1.941,1.53-13.681,1.53-13.681S229.569,318.668,224.724,316.885z"></path><path style="fill:#505050;" d="M219.117,332.18l8.158-2.55c0,0-2.041-3.058-4.334-3.058c-2.295,0-4.538,2.802-4.844,3.823S219.117,332.18,219.117,332.18z"></path><path style="fill:#505050;" d="M211.5,326.083c0,0,1.542-1.791,2.458-2.708c-0.708-1.417-0.356-3.514-0.356-3.514s3.823-0.767,6.883,1.783C215.896,323.685,211.5,326.083,211.5,326.083z"></path><path style="fill:#505050;" d="M228.293,333.453c0,0,0.386,9.782-2.418,10.547c-2.804,0.766-5.739,0.161-5.739,0.161S218.606,337.277,228.293,333.453z"></path><path style="fill:none;stroke:#000000;stroke-linecap:round;stroke-linejoin:round;" d="M226,332.689c0,0-2.295,0-4.334,1.784"></path></g><path style="fill:#6E6E6E;stroke:#000000;stroke-linecap:round;stroke-linejoin:round;" d="M226.253,327.081c0,0,1.602-1.866,3.57-1.275c2.548,0.767,2.804,1.02,3.313,2.551c0.509,1.528-0.087,6.956-2.637,6.956c-2.548,0-3.225-0.839-4.5-2.623C224.725,330.905,226.253,327.081,226.253,327.081z"></path><g><path style="fill:#6E6E6E;stroke:#000000;stroke-linecap:round;stroke-linejoin:round;" d="M230.078,326.062c0-0.766,1.784-6.884,4.334-8.668c2.549-1.784,11.219-2.039,15.552,1.53c0.764,1.784-0.255,4.844-0.255,4.844s2.039,2.548,1.528,5.353c-0.509,2.805-2.039,6.373-2.039,6.373s2.039,5.863-1.021,6.628c-3.059,0.765-6.627-0.255-6.627-0.255s-3.471,3.167-5.1,3.059c-3.823-0.254-4.843-3.823-5.862-7.392S230.078,326.062,230.078,326.062z"></path><path style="fill:#505050;" d="M233.137,328.356c0.405-0.398,2.804-1.784,5.353-1.021c2.549,0.765,5.155,2.279,5.354,2.805s-1.02,2.039-3.313,1.784c-2.294-0.256-7.138-1.784-7.138-1.784S232.732,328.755,233.137,328.356z"></path><path style="fill:none;stroke:#000000;stroke-linecap:round;stroke-linejoin:round;" d="M233.392,331.925c0,0,2.295,0.765,4.078,4.843"></path></g></g></g></g></g></svg>