<svg xmlns="http://www.w3.org/2000/svg" width="500" height="500" version="1.1"><g id="x156"><g><g><path style="fill:#646464;stroke:#000000;stroke-linecap:round;stroke-linejoin:round;" d="M230,284c0,0-7,4.75-10.667,10.667C217.677,297.34,215,304,215,304s11,8.333,17,10C232.667,297.667,230,284,230,284z"></path><path style="fill:#505050;" d="M221.5,306.25l7-7.75c-0.5,3.75-2,10.25-2,10.25S222.25,307.5,221.5,306.25z"></path><path style="fill:#FFD13F;stroke:#000000;stroke-linecap:round;stroke-linejoin:round;" d="M216.014,302.702c0,0,4.742,5.82,11.641,6.682c1.077,2.479-0.647,4.097-0.647,4.097s-10.669-2.264-13.257-8.515C213.967,303.35,214.828,302.594,216.014,302.702z"></path></g><g><path style="fill:#646464;stroke:#000000;stroke-linecap:round;stroke-linejoin:round;" d="M269.967,284c0,0,7,4.75,10.666,10.667c1.656,2.673,4.334,9.333,4.334,9.333s-11,8.333-17,10C267.301,297.667,269.967,284,269.967,284z"></path><path style="fill:#505050;" d="M278.5,306.25l-7-7.75c0.5,3.75,2,10.25,2,10.25S277.75,307.5,278.5,306.25z"></path><path style="fill:#FFD13F;stroke:#000000;stroke-linecap:round;stroke-linejoin:round;" d="M283.953,302.702c0,0-4.742,5.82-11.641,6.682c-1.077,2.479,0.647,4.097,0.647,4.097s10.669-2.264,13.257-8.515C286,303.35,285.139,302.594,283.953,302.702z"></path></g></g><path style="fill:#6E6E6E;stroke:#000000;stroke-linecap:round;stroke-linejoin:round;" d="M283,341.333c0,0-6.001-12.666-7.668-15.333c0.668-2.667,0-15.667-1-19.667s-5-13.666-5-13.666s0.334-6,0.334-8.667c-2.334-2.333-7.5-2.25-7.5-2.25s-4,10.25-12.166,10.583c-8.167-0.333-12.167-10.583-12.167-10.583s-5.167-0.083-7.5,2.25c0,2.667,0.333,8.667,0.333,8.667s-4,9.666-5,13.666s-1.667,17-1,19.667C223,328.667,217,341.333,217,341.333s1.667,1.667,2.667,5.667c0.432,0.624,1.369,1.131,2.657,1.541c10.926,5.209,31.176,4.709,38.431,1.645c6.495,2.314,15.245,0.314,17.527-1.855c0.976-0.369,1.688-0.809,2.05-1.33C281.332,343,283,341.333,283,341.333z"></path><path style="fill:#FFD13F;stroke:#000000;stroke-linecap:round;stroke-linejoin:round;" d="M238.75,296.75c0,0-3,7-3.75,12.5c-0.746,5.472,0,9.25,0,9.25s14.75,5.5,17.5,9.5s5.75,21.5,5.75,21.5s0,1.75,3,1c0.75-6.25-3-20.25-5.25-24.5s-17.75-10.5-17.75-10.5s-0.5-3.75,0.25-7s3.5-12,3.5-12L238.75,296.75z"></path><path style="fill:#CC9430;" d="M235.625,309c0,0,1.625-0.125,2.125,0c-0.25,2.875,0,6,0.125,6.625c1.125,0.75,4.25,2.625,4.25,2.625l-4.5,0.75l-1.875-1C235.75,318,234.625,313.5,235.625,309z"></path><g><g><g><g><path style="fill:#FFD13F;stroke:#000000;stroke-linecap:round;stroke-linejoin:round;" d="M250.154,328.852c0,0-1.338-1.182-1.021-2.396s1.412-0.839,1.589-0.321C251.193,327.512,250.154,328.852,250.154,328.852z"></path><path style="fill:#FFD13F;stroke:#000000;stroke-linecap:round;stroke-linejoin:round;" d="M250.258,328.744c0,0,1.338,1.181,1.021,2.396c-0.316,1.214-1.411,0.839-1.589,0.32C249.22,330.083,250.258,328.744,250.258,328.744z"></path></g><g><path style="fill:#FFD13F;stroke:#000000;stroke-linecap:round;stroke-linejoin:round;" d="M250.261,328.849c0,0-1.183,1.338-2.397,1.021c-1.213-0.316-0.838-1.413-0.32-1.589C248.92,327.811,250.261,328.849,250.261,328.849z"></path><path style="fill:#FFD13F;stroke:#000000;stroke-linecap:round;stroke-linejoin:round;" d="M250.151,328.745c0,0,1.183-1.337,2.397-1.02c1.215,0.316,0.839,1.412,0.32,1.588C251.492,329.784,250.151,328.745,250.151,328.745z"></path></g></g><g><g><path style="fill:#FFD13F;stroke:#000000;stroke-linecap:round;stroke-linejoin:round;" d="M260.471,329.301c0,0-1.336-1.182-1.02-2.396c0.317-1.215,1.412-0.839,1.59-0.32C261.51,327.961,260.471,329.301,260.471,329.301z"></path><path style="fill:#FFD13F;stroke:#000000;stroke-linecap:round;stroke-linejoin:round;" d="M260.576,329.193c0,0,1.336,1.181,1.02,2.396c-0.316,1.214-1.412,0.839-1.589,0.32C259.537,330.533,260.576,329.193,260.576,329.193z"></path></g><g><path style="fill:#FFD13F;stroke:#000000;stroke-linecap:round;stroke-linejoin:round;" d="M260.578,329.298c0,0-1.182,1.338-2.396,1.021c-1.214-0.315-0.839-1.411-0.321-1.588C259.238,328.26,260.578,329.298,260.578,329.298z"></path><path style="fill:#FFD13F;stroke:#000000;stroke-linecap:round;stroke-linejoin:round;" d="M260.469,329.194c0,0,1.184-1.337,2.396-1.02c1.215,0.316,0.84,1.412,0.321,1.588C261.809,330.233,260.469,329.194,260.469,329.194z"></path></g></g><path style="fill:#FFD13F;stroke:#000000;stroke-linecap:round;stroke-linejoin:round;" d="M250.423,329.401c0,0,6.157-0.436,8.211,0.227c1.251-0.563,0.851-1.637,0.851-1.637s-5.557-1.76-9.371-0.206C249.706,328.553,250.423,329.401,250.423,329.401z"></path></g><g><g><g><path style="fill:#FFD13F;stroke:#000000;stroke-linecap:round;stroke-linejoin:round;" d="M254.154,339.102c0,0-1.338-1.182-1.021-2.396s1.412-0.839,1.589-0.321C255.193,337.762,254.154,339.102,254.154,339.102z"></path><path style="fill:#FFD13F;stroke:#000000;stroke-linecap:round;stroke-linejoin:round;" d="M254.258,338.994c0,0,1.338,1.181,1.021,2.396c-0.316,1.214-1.411,0.839-1.589,0.32C253.22,340.333,254.258,338.994,254.258,338.994z"></path></g><g><path style="fill:#FFD13F;stroke:#000000;stroke-linecap:round;stroke-linejoin:round;" d="M254.261,339.099c0,0-1.183,1.338-2.397,1.021c-1.213-0.316-0.838-1.413-0.32-1.589C252.92,338.061,254.261,339.099,254.261,339.099z"></path><path style="fill:#FFD13F;stroke:#000000;stroke-linecap:round;stroke-linejoin:round;" d="M254.151,338.995c0,0,1.183-1.337,2.397-1.02c1.215,0.316,0.839,1.412,0.32,1.588C255.492,340.034,254.151,338.995,254.151,338.995z"></path></g></g><g><g><path style="fill:#FFD13F;stroke:#000000;stroke-linecap:round;stroke-linejoin:round;" d="M264.471,339.551c0,0-1.336-1.182-1.02-2.396c0.317-1.215,1.412-0.839,1.59-0.32C265.51,338.211,264.471,339.551,264.471,339.551z"></path><path style="fill:#FFD13F;stroke:#000000;stroke-linecap:round;stroke-linejoin:round;" d="M264.576,339.443c0,0,1.336,1.181,1.02,2.396c-0.316,1.214-1.412,0.839-1.589,0.32C263.537,340.783,264.576,339.443,264.576,339.443z"></path></g><g><path style="fill:#FFD13F;stroke:#000000;stroke-linecap:round;stroke-linejoin:round;" d="M264.578,339.548c0,0-1.182,1.338-2.396,1.021c-1.214-0.315-0.839-1.411-0.321-1.588C263.238,338.51,264.578,339.548,264.578,339.548z"></path><path style="fill:#FFD13F;stroke:#000000;stroke-linecap:round;stroke-linejoin:round;" d="M264.469,339.444c0,0,1.184-1.337,2.396-1.02c1.215,0.316,0.84,1.412,0.321,1.588C265.809,340.483,264.469,339.444,264.469,339.444z"></path></g></g><path style="fill:#FFD13F;stroke:#000000;stroke-linecap:round;stroke-linejoin:round;" d="M254.423,339.651c0,0,6.157-0.436,8.211,0.227c1.251-0.563,0.851-1.637,0.851-1.637s-5.557-1.76-9.371-0.206C253.706,338.803,254.423,339.651,254.423,339.651z"></path></g></g><g><path style="fill:#FFD13F;stroke:#000000;stroke-linecap:round;stroke-linejoin:round;" d="M243.175,292.5c0,0-2.356,1.12-5.01,2.7l0.51-0.7c0,0-4.25-2.75-4.75-5s1.75-4.5,1.75-4.5s-0.25-1.5-2.233-2.333c-1.483,1.417-3.767,5.833-2.767,8.583c0.784,2.155,3.557,4.457,5.084,5.476c-2.015,1.368-3.845,2.89-4.584,4.274c-1.75,5-3.75,14.25-3.75,21.25c-3.5,7-7,25.5-7,25.5c0.25,1,1.25,2,3,0.75c1-7,4-17.5,7.25-26c-0.5-2.75,0.5-12.25,3.75-19.75c2.75-3.5,13-9.5,13-9.5L243.175,292.5z"></path><path style="fill:#CC9430;" d="M229.7,308.5c0,0,0.875,0.625,2,0.125c-0.375,2.125-2,7.625-1.75,13.875c-0.875,0.375-1.875-0.125-1.875-0.125S228.325,313,229.7,308.5z"></path><path style="fill:#FFD13F;stroke:#000000;stroke-linecap:round;stroke-linejoin:round;" d="M272.575,322.25c0-7-2-16.25-3.75-21.25c-0.738-1.385-2.569-2.906-4.584-4.274c1.527-1.019,4.301-3.32,5.084-5.476c1-2.75-1.284-7.166-2.768-8.583c-1.982,0.833-2.232,2.333-2.232,2.333s2.25,2.25,1.75,4.5s-4.75,5-4.75,5l0.51,0.7c-2.653-1.58-5.01-2.7-5.01-2.7l-4.25,0.75c0,0,10.25,6,13,9.5c3.25,7.5,4.25,17,3.75,19.75c3.25,8.5,6.25,19,7.25,26c1.75,1.25,2.75,0.25,3-0.75C279.575,347.75,276.075,329.25,272.575,322.25z"></path><path style="fill:#CC9430;" d="M270.298,308.5c0,0-0.875,0.625-2,0.125c0.375,2.125,2,7.625,1.75,13.875c0.875,0.375,1.875-0.125,1.875-0.125S271.673,313,270.298,308.5z"></path></g><g><path style="fill:#646464;stroke:#000000;stroke-linecap:round;stroke-linejoin:round;" d="M239.351,281c0,0,0.667,8.667,10.333,11.333c-4.333,3-9.333,7.334-9.333,7.334s-6.333-7-6.333-17C237.017,280.667,239.351,281,239.351,281z"></path><path style="fill:#646464;stroke:#000000;stroke-linecap:round;stroke-linejoin:round;" d="M260.649,281c0,0-0.666,8.667-10.333,11.333c4.333,3,9.333,7.334,9.333,7.334s6.334-7,6.334-17C262.983,280.667,260.649,281,260.649,281z"></path></g><g><g><g><path style="fill:#FFD13F;stroke:#000000;stroke-linecap:round;stroke-linejoin:round;" d="M232.904,297.102c0,0-1.338-1.182-1.021-2.396s1.412-0.839,1.589-0.321C233.943,295.762,232.904,297.102,232.904,297.102z"></path><path style="fill:#FFD13F;stroke:#000000;stroke-linecap:round;stroke-linejoin:round;" d="M233.008,296.994c0,0,1.338,1.181,1.021,2.396c-0.316,1.214-1.411,0.839-1.589,0.32C231.97,298.333,233.008,296.994,233.008,296.994z"></path></g><g><path style="fill:#FFD13F;stroke:#000000;stroke-linecap:round;stroke-linejoin:round;" d="M233.011,297.099c0,0-1.183,1.338-2.397,1.021c-1.213-0.316-0.838-1.413-0.32-1.589C231.67,296.061,233.011,297.099,233.011,297.099z"></path><path style="fill:#FFD13F;stroke:#000000;stroke-linecap:round;stroke-linejoin:round;" d="M232.901,296.995c0,0,1.183-1.337,2.397-1.02c1.215,0.316,0.839,1.412,0.32,1.588C234.242,298.034,232.901,296.995,232.901,296.995z"></path></g></g><g><g><path style="fill:#FFD13F;stroke:#000000;stroke-linecap:round;stroke-linejoin:round;" d="M243.221,297.551c0,0-1.336-1.182-1.02-2.396c0.317-1.215,1.412-0.839,1.59-0.32C244.26,296.211,243.221,297.551,243.221,297.551z"></path><path style="fill:#FFD13F;stroke:#000000;stroke-linecap:round;stroke-linejoin:round;" d="M243.326,297.443c0,0,1.336,1.181,1.02,2.396c-0.316,1.214-1.412,0.839-1.589,0.32C242.287,298.783,243.326,297.443,243.326,297.443z"></path></g><g><path style="fill:#FFD13F;stroke:#000000;stroke-linecap:round;stroke-linejoin:round;" d="M243.328,297.548c0,0-1.182,1.338-2.396,1.021c-1.214-0.315-0.839-1.411-0.321-1.588C241.988,296.51,243.328,297.548,243.328,297.548z"></path><path style="fill:#FFD13F;stroke:#000000;stroke-linecap:round;stroke-linejoin:round;" d="M243.219,297.444c0,0,1.184-1.337,2.396-1.02c1.215,0.316,0.84,1.412,0.321,1.588C244.559,298.483,243.219,297.444,243.219,297.444z"></path></g></g><path style="fill:#FFD13F;stroke:#000000;stroke-linecap:round;stroke-linejoin:round;" d="M233.173,297.651c0,0,6.157-0.436,8.211,0.227c1.251-0.563,0.851-1.637,0.851-1.637s-5.557-1.76-9.371-0.206C232.456,296.803,233.173,297.651,233.173,297.651z"></path></g></g></svg>