<svg xmlns="http://www.w3.org/2000/svg" width="500" height="500" version="1.1"><g id="x159"><g><path style="fill:#6E6E6E;stroke:#000000;stroke-linecap:round;stroke-linejoin:round;" d="M275.655,326.252c-0.25-2-1.25-11.5-1.25-15s-1-8.75-2.5-12.75c1.75-3.75,0.75-12,0.75-12c-0.5-1.75-7-5.5-12.25-5.75c-2,2-10.5,4.75-10.5,4.75s-8.5-2.75-10.5-4.75c-5.25,0.25-11.75,4-12.25,5.75c0,0-1,8.25,0.75,12c-1.5,4-2.5,9.25-2.5,12.75s-1,13-1.25,15c-0.232,1.861-6.092,18.006-7.71,26.082h66.92C281.747,344.258,275.888,328.113,275.655,326.252z M250,305.149c0,0-5.167-4.078-5.167-6.071c0-1.994,5.167-5.578,5.167-5.578s5.167,3.584,5.167,5.578C255.167,301.071,250,305.149,250,305.149z"></path><path style="fill:#FFFFFF;stroke:#000000;stroke-linecap:round;stroke-linejoin:round;" d="M250,289.271c0,0-8.708,6.192-8.708,9.636c0,3.444,8.708,10.49,8.708,10.49s8.709-7.046,8.708-10.49C258.708,295.463,250,289.271,250,289.271z M250,305.149c0,0-5.167-4.078-5.167-6.071c0-1.994,5.167-5.578,5.167-5.578s5.167,3.584,5.167,5.578C255.167,301.071,250,305.149,250,305.149z"></path><g><path style="fill:none;stroke:#000000;stroke-linecap:round;stroke-linejoin:round;" d="M269.675,293.567c0,0,2.292,4.667,2.667,6"></path><path style="fill:none;stroke:#000000;stroke-linecap:round;stroke-linejoin:round;" d="M230.326,293.567c0,0-2.292,4.667-2.667,6"></path></g></g><g><g><path style="fill:#FFFFFF;stroke:#000000;stroke-linecap:round;stroke-linejoin:round;" d="M246.79,287.5l-9.75-6c0,0,0-2,2.5-1.75c0,0,8.75,4.254,9.75,5.752c0.242,0.484,0.484,1.674,0.67,2.771l-3.063,0.409L246.79,287.5z"></path></g><g><path style="fill:#FFFFFF;stroke:#000000;stroke-linecap:round;stroke-linejoin:round;" d="M253.21,287.5l9.75-6c0,0,0-2-2.5-1.75c0,0-8.75,4.254-9.75,5.752c-0.242,0.484-0.484,1.674-0.67,2.771l3.063,0.409L253.21,287.5z"></path></g></g><g><g><g><path style="fill:#FFFFFF;stroke:#000000;stroke-linecap:round;stroke-linejoin:round;" d="M243.393,290.722c0,0-1.794-1.378-1.498-2.943c0.296-1.563,1.712-1.181,1.982-0.544C244.592,288.935,243.393,290.722,243.393,290.722z"></path><path style="fill:#FFFFFF;stroke:#000000;stroke-linecap:round;stroke-linejoin:round;" d="M243.514,290.575c0,0,1.794,1.38,1.5,2.942c-0.297,1.563-1.716,1.184-1.983,0.543C242.317,292.358,243.514,290.575,243.514,290.575z"></path></g><g><path style="fill:#FFFFFF;stroke:#000000;stroke-linecap:round;stroke-linejoin:round;" d="M243.528,290.709c0,0-1.379,1.794-2.944,1.498c-1.563-0.294-1.181-1.713-0.542-1.981C241.743,289.512,243.528,290.709,243.528,290.709z"></path><path style="fill:#FFFFFF;stroke:#000000;stroke-linecap:round;stroke-linejoin:round;" d="M243.379,290.588c0,0,1.382-1.794,2.944-1.498c1.563,0.295,1.183,1.715,0.542,1.982C245.165,291.785,243.379,290.588,243.379,290.588z"></path></g></g><g><g><path style="fill:#FFFFFF;stroke:#000000;stroke-linecap:round;stroke-linejoin:round;" d="M256.483,290.398c0,0-1.792-1.379-1.497-2.943c0.295-1.563,1.714-1.184,1.981-0.543C257.682,288.613,256.483,290.398,256.483,290.398z"></path><path style="fill:#FFFFFF;stroke:#000000;stroke-linecap:round;stroke-linejoin:round;" d="M256.605,290.252c0,0,1.795,1.379,1.499,2.942c-0.298,1.565-1.714,1.184-1.984,0.542C255.408,292.036,256.605,290.252,256.605,290.252z"></path></g><g><path style="fill:#FFFFFF;stroke:#000000;stroke-linecap:round;stroke-linejoin:round;" d="M256.617,290.385c0,0-1.378,1.794-2.943,1.5c-1.562-0.295-1.182-1.716-0.542-1.984C254.831,289.188,256.617,290.385,256.617,290.385z"></path><path style="fill:#FFFFFF;stroke:#000000;stroke-linecap:round;stroke-linejoin:round;" d="M256.471,290.264c0,0,1.38-1.796,2.943-1.497c1.565,0.295,1.184,1.714,0.544,1.982C258.257,291.462,256.471,290.264,256.471,290.264z"></path></g></g><path style="fill:#FFFFFF;stroke:#000000;stroke-linecap:round;stroke-linejoin:round;" d="M243.779,291.393c0,0,7.752-1.083,10.407-0.422c1.534-0.821,0.935-2.145,0.935-2.145s-7.183-1.743-11.873,0.548C242.8,290.384,243.779,291.393,243.779,291.393z"></path></g><g><g><g><path style="fill:#FFFFFF;stroke:#000000;stroke-linecap:round;stroke-linejoin:round;" d="M243.393,309.722c0,0-1.794-1.378-1.498-2.943c0.296-1.563,1.712-1.181,1.982-0.544C244.592,307.935,243.393,309.722,243.393,309.722z"></path><path style="fill:#FFFFFF;stroke:#000000;stroke-linecap:round;stroke-linejoin:round;" d="M243.514,309.575c0,0,1.794,1.38,1.5,2.942c-0.297,1.563-1.716,1.184-1.983,0.543C242.317,311.358,243.514,309.575,243.514,309.575z"></path></g><g><path style="fill:#FFFFFF;stroke:#000000;stroke-linecap:round;stroke-linejoin:round;" d="M243.528,309.709c0,0-1.379,1.794-2.944,1.498c-1.563-0.294-1.181-1.713-0.542-1.981C241.743,308.512,243.528,309.709,243.528,309.709z"></path><path style="fill:#FFFFFF;stroke:#000000;stroke-linecap:round;stroke-linejoin:round;" d="M243.379,309.588c0,0,1.382-1.794,2.944-1.498c1.563,0.295,1.183,1.715,0.542,1.982C245.165,310.785,243.379,309.588,243.379,309.588z"></path></g></g><g><g><path style="fill:#FFFFFF;stroke:#000000;stroke-linecap:round;stroke-linejoin:round;" d="M256.483,309.398c0,0-1.792-1.379-1.497-2.943c0.295-1.563,1.714-1.184,1.981-0.543C257.682,307.613,256.483,309.398,256.483,309.398z"></path><path style="fill:#FFFFFF;stroke:#000000;stroke-linecap:round;stroke-linejoin:round;" d="M256.605,309.252c0,0,1.795,1.379,1.499,2.942c-0.298,1.565-1.714,1.184-1.984,0.542C255.408,311.036,256.605,309.252,256.605,309.252z"></path></g><g><path style="fill:#FFFFFF;stroke:#000000;stroke-linecap:round;stroke-linejoin:round;" d="M256.617,309.385c0,0-1.378,1.794-2.943,1.5c-1.562-0.295-1.182-1.716-0.542-1.984C254.831,308.188,256.617,309.385,256.617,309.385z"></path><path style="fill:#FFFFFF;stroke:#000000;stroke-linecap:round;stroke-linejoin:round;" d="M256.471,309.264c0,0,1.38-1.796,2.943-1.497c1.565,0.295,1.184,1.714,0.544,1.982C258.257,310.462,256.471,309.264,256.471,309.264z"></path></g></g><path style="fill:#FFFFFF;stroke:#000000;stroke-linecap:round;stroke-linejoin:round;" d="M243.779,310.393c0,0,7.752-1.083,10.407-0.422c1.534-0.821,0.935-2.145,0.935-2.145s-7.183-1.743-11.873,0.548C242.8,309.384,243.779,310.393,243.779,310.393z"></path></g><path style="fill:#505050;stroke:#000000;stroke-linecap:round;stroke-linejoin:round;" d="M277.334,428.667c0,0,6.334-1.001,11-7.334c-3.667-7-5.333-20.666-5.5-22.666C280,407,277.334,428.667,277.334,428.667z"></path><path style="fill:#6E6E6E;stroke:#000000;stroke-linecap:round;stroke-linejoin:round;" d="M222,350.5c0,0,0,58.499,13.5,77.833c5.5,3.667,13.666,1.834,17.5,1.167s12.667,0.667,15.167,1.667S279,428.166,279.5,427.5c1.667-6,11.265-50.666,3.265-77.333"></path><path style="fill:#6E6E6E;stroke:#000000;stroke-linecap:round;stroke-linejoin:round;" d="M218.833,343.333c0,0-7.667,17.5-0.833,40.667c0.667-19,3.5-33.333,3.5-33.333"></path><path style="fill:#6E6E6E;stroke:#000000;stroke-linecap:round;stroke-linejoin:round;" d="M224.833,390.733c0,0,3.767,30.167,10.267,37.5c0.667-6.833,6-11.333,9.333-12C232.767,411.066,224.833,390.733,224.833,390.733z"></path><g><g><path style="fill:#FFFFFF;stroke:#000000;stroke-linecap:round;stroke-linejoin:round;" d="M221.629,351.412c0,0-3.479-0.819-4.067-3.262c-0.59-2.443,1.696-2.817,2.5-2.072C222.193,348.063,221.629,351.412,221.629,351.412z"></path><path style="fill:#FFFFFF;stroke:#000000;stroke-linecap:round;stroke-linejoin:round;" d="M221.708,351.122c0,0,3.479,0.819,4.07,3.264c0.59,2.441-1.7,2.816-2.502,2.069C221.145,354.467,221.708,351.122,221.708,351.122z"></path></g><g><path style="fill:#FFFFFF;stroke:#000000;stroke-linecap:round;stroke-linejoin:round;" d="M221.814,351.305c0,0-0.821,3.48-3.264,4.07c-2.442,0.59-2.817-1.699-2.069-2.499C218.465,350.741,221.814,351.305,221.814,351.305z"></path><path style="fill:#FFFFFF;stroke:#000000;stroke-linecap:round;stroke-linejoin:round;" d="M221.523,351.227c0,0,0.821-3.479,3.265-4.068c2.441-0.591,2.816,1.697,2.069,2.5C224.872,351.789,221.523,351.227,221.523,351.227z"></path></g></g></g></svg>