<svg xmlns="http://www.w3.org/2000/svg" width="500" height="500" version="1.1"><g id="x016"><g><g><g><path style="fill:#6E6E6E;stroke:#000000;stroke-linecap:round;stroke-linejoin:round;" d="M224.375,289.5c0-0.375-5,6-5.875,6.875s-3,5.75-3.375,6.625c-1.75,1.5-3.5,2.5-3.5,2.5s4.375,9,15.25,11c1.875-15.75,3.5-19.875,3.5-19.875L224.375,289.5z"></path><path style="fill:none;stroke:#000000;stroke-linecap:round;stroke-linejoin:round;" d="M222.375,299.875c0,0,1,4.875,4,7.625"></path></g><g><path style="fill:#6E6E6E;stroke:#000000;stroke-linecap:round;stroke-linejoin:round;" d="M275.625,289.5c0-0.375,5,6,5.875,6.875s3,5.75,3.375,6.625c1.75,1.5,3.5,2.5,3.5,2.5s-4.375,9-15.25,11c-1.875-15.75-3.5-19.875-3.5-19.875L275.625,289.5z"></path><path style="fill:none;stroke:#000000;stroke-linecap:round;stroke-linejoin:round;" d="M277.625,299.875c0,0-1,4.875-4,7.625"></path></g></g><g><g><g><path style="fill:#FFFFFF;stroke:#000000;stroke-linecap:round;stroke-linejoin:round;" d="M276.263,327.75c0.724,0.338,0.672,5.682-0.25,6.375c-1.75-0.25-3.028-1.07-4.104-1.417c-1.076-0.348-3.074,2.254-4.148,1.733c-1.076-0.52-1.691-2.081-2.766-2.081c-1.076,0-2.381,1.734-3.303,1.562c-0.922-0.174-1.383-1.388-1.997-1.388c-0.615,0-1.229,0.521-1.998,0.521c0-2.948,0.308-5.202,0.308-5.202S271.807,325.668,276.263,327.75z"></path><path style="fill:#6E6E6E;stroke:#000000;stroke-linecap:round;stroke-linejoin:round;" d="M271.513,294.25c1.061,6.352,2.668,6.709,3.375,17c0.712,2.38,1.287,14.456,1.5,16.875c-9.125,2-18.474,0.204-18.474,0.204c0.016-8.413-0.09-16.126-1.695-24.71C256.219,303.619,265.325,299.703,271.513,294.25z"></path></g><g><path style="fill:#FFFFFF;stroke:#000000;stroke-linecap:round;stroke-linejoin:round;" d="M223.737,327.75c-0.724,0.338-0.672,5.682,0.25,6.375c1.75-0.25,3.028-1.07,4.104-1.417c1.076-0.348,3.074,2.254,4.148,1.733c1.076-0.52,1.691-2.081,2.766-2.081c1.076,0,2.381,1.734,3.303,1.562c0.922-0.174,1.383-1.388,1.997-1.388c0.615,0,1.229,0.521,1.998,0.521c0-2.948-0.308-5.202-0.308-5.202S228.193,325.668,223.737,327.75z"></path><path style="fill:#6E6E6E;stroke:#000000;stroke-linecap:round;stroke-linejoin:round;" d="M228.487,294.25c-1.061,6.352-2.668,6.709-3.375,17c-0.712,2.38-1.287,14.456-1.5,16.875c9.125,2,18.474,0.204,18.474,0.204c-0.016-8.413,0.09-16.126,1.695-24.71C243.781,303.619,234.675,299.703,228.487,294.25z"></path></g></g><g><g><path style="fill:#FFFFFF;stroke:#000000;stroke-linecap:round;stroke-linejoin:round;" d="M249.98,303.771c0.566-0.743-2.427,15.779-2.427,15.779c-1.388-0.174-3.295-1.214-3.295-1.214S247.206,307.413,249.98,303.771z"></path><path style="fill:#FFFFFF;stroke:#000000;stroke-linecap:round;stroke-linejoin:round;" d="M248.94,302.73c0,0-7.63,4.509-7.63,5.202s0.521,4.161,1.907,4.509c1.387,0.347,6.589-8.15,6.763-8.67C250.154,303.251,248.94,302.73,248.94,302.73z"></path></g><g><path style="fill:#FFFFFF;stroke:#000000;stroke-linecap:round;stroke-linejoin:round;" d="M250.02,303.771c-0.566-0.743,2.427,15.779,2.427,15.779c1.388-0.174,3.295-1.214,3.295-1.214S252.794,307.413,250.02,303.771z"></path><path style="fill:#FFFFFF;stroke:#000000;stroke-linecap:round;stroke-linejoin:round;" d="M251.06,302.73c0,0,7.63,4.509,7.63,5.202s-0.521,4.161-1.907,4.509c-1.388,0.347-6.59-8.15-6.763-8.67C249.846,303.251,251.06,302.73,251.06,302.73z"></path><path style="fill:#FFFFFF;stroke:#000000;stroke-linecap:round;stroke-linejoin:round;" d="M248.681,302.904c0.325-0.325,2.08-0.586,2.601,0c0.521,0.585-0.13,3.901-0.521,4.291c-0.39,0.391-1.3,0.195-1.755,0C248.55,307.001,248.355,303.229,248.681,302.904z"></path></g></g></g></g></g></svg>