<svg xmlns="http://www.w3.org/2000/svg" width="500" height="500" version="1.1"><g id="x160"><g><g><path style="fill:#6E6E6E;stroke:#000000;stroke-linecap:round;stroke-linejoin:round;" d="M283.655,354.002c-1-7.25-7.75-25.75-8-27.75s-1.25-11.5-1.25-15s-1-8.75-2.5-12.75c1.75-3.75,0.75-12,0.75-12c-0.5-1.75-7-5.5-12.25-5.75c-2,2-10.5,4.75-10.5,4.75s-8.5-2.75-10.5-4.75c-5.25,0.25-11.75,4-12.25,5.75c0,0-1,8.25,0.75,12c-1.5,4-2.5,9.25-2.5,12.75s-1,13-1.25,15s-7,20.5-8,27.75s0.75,24,1.25,25c0.603,0.603,1.696,1.152,3.125,1.651c0.836-3.597,3.334-13.996,4.469-15.028c1.345,3.842,2.614,12.843,3.131,16.81c7.263,1.211,16.334,1.817,21.774,1.817c4.992,0,13.333-0.511,20.505-1.53c0.533-5.543,2.215-22.097,2.215-22.097h2l4.719,20.3c1.906-0.568,3.348-1.209,4.062-1.923C283.905,378.002,284.655,361.252,283.655,354.002z"></path><g><path style="fill:none;stroke:#000000;stroke-linecap:round;stroke-linejoin:round;" d="M269.675,293.567c0,0,2.292,4.667,2.667,6"></path><path style="fill:none;stroke:#000000;stroke-linecap:round;stroke-linejoin:round;" d="M230.326,293.567c0,0-2.292,4.667-2.667,6"></path></g></g><g><g><path style="fill:#FFD13F;stroke:#000000;stroke-linecap:round;stroke-linejoin:round;" d="M216.697,374.875c0,0-1.813,1.623,0.125,4.125c1.438,1.313,3.74,2.875,5.428,2.625c1-7.5,3.572-23.625,3.572-23.625s-4.572,12.875-5.322,18.625C218.75,376.625,216.697,374.875,216.697,374.875z"></path><path style="fill:#FFD13F;stroke:#000000;stroke-linecap:round;stroke-linejoin:round;" d="M247.08,287.5l-9.75-6c0,0,0-2,2.5-1.75c0,0,8.75,4.254,9.75,5.752c0.242,0.484,0.484,1.674,0.67,2.771l-3.063,0.409L247.08,287.5z"></path><path style="fill:#FFD13F;stroke:#000000;stroke-linecap:round;stroke-linejoin:round;" d="M283.303,374.875c0,0-2.375,1.875-4.125,1.875c-0.553-7.875-4.178-18.875-4.178-18.875l-3.625,0.5l-2.76,21.173c-10.909,1.685-26.298,2.946-39.865-0.298c-1.25-6.75-1-20-1-20l7.75-8.75c-0.5-6.75,2.5-24.75,2.5-24.75c-0.75-8.5,1.25-25,2-27.25c4.25-3,12-5.5,12-5.5l0.5-5.5l9.75-6c0,0,0-2-2.5-1.75c0,0-8.75,4.254-9.75,5.752c-0.5,0.998-1,4.998-1,4.998s-10.75,4.25-12,5.5c-1.25,3.5-3.25,19-2.75,29c-0.5,2.25-2.75,15.25-2.75,24.25c-4.25,4-6.75,7.5-6.75,7.5s-1.951,15.5,1.049,25.75c0,0,21.947,4.898,44.529,0.925l1.172-1.05l1.75-19.125l0.644-0.198c0.547,5.426,2.183,14.19,2.784,18.698c1.688,0.25,5.063-1.438,6.5-2.75C285.115,376.498,283.303,374.875,283.303,374.875z"></path></g><g><g><g><g><path style="fill:#FFD13F;stroke:#000000;stroke-linecap:round;stroke-linejoin:round;" d="M243.393,290.722c0,0-1.794-1.378-1.498-2.943c0.296-1.563,1.712-1.181,1.982-0.544C244.592,288.935,243.393,290.722,243.393,290.722z"></path><path style="fill:#FFD13F;stroke:#000000;stroke-linecap:round;stroke-linejoin:round;" d="M243.514,290.575c0,0,1.794,1.38,1.5,2.942c-0.297,1.563-1.716,1.184-1.983,0.543C242.317,292.358,243.514,290.575,243.514,290.575z"></path></g><g><path style="fill:#FFD13F;stroke:#000000;stroke-linecap:round;stroke-linejoin:round;" d="M243.528,290.709c0,0-1.379,1.794-2.944,1.498c-1.563-0.294-1.181-1.713-0.542-1.981C241.743,289.512,243.528,290.709,243.528,290.709z"></path><path style="fill:#FFD13F;stroke:#000000;stroke-linecap:round;stroke-linejoin:round;" d="M243.379,290.588c0,0,1.382-1.794,2.944-1.498c1.563,0.295,1.183,1.715,0.542,1.982C245.165,291.785,243.379,290.588,243.379,290.588z"></path></g></g><g><g><path style="fill:#FFD13F;stroke:#000000;stroke-linecap:round;stroke-linejoin:round;" d="M256.483,290.398c0,0-1.792-1.379-1.497-2.943c0.295-1.563,1.714-1.184,1.981-0.543C257.682,288.613,256.483,290.398,256.483,290.398z"></path><path style="fill:#FFD13F;stroke:#000000;stroke-linecap:round;stroke-linejoin:round;" d="M256.605,290.252c0,0,1.795,1.379,1.499,2.942c-0.298,1.565-1.714,1.184-1.984,0.542C255.408,292.036,256.605,290.252,256.605,290.252z"></path></g><g><path style="fill:#FFD13F;stroke:#000000;stroke-linecap:round;stroke-linejoin:round;" d="M256.617,290.385c0,0-1.378,1.794-2.943,1.5c-1.562-0.295-1.182-1.716-0.542-1.984C254.831,289.188,256.617,290.385,256.617,290.385z"></path><path style="fill:#FFD13F;stroke:#000000;stroke-linecap:round;stroke-linejoin:round;" d="M256.471,290.264c0,0,1.38-1.796,2.943-1.497c1.565,0.295,1.184,1.714,0.544,1.982C258.257,291.462,256.471,290.264,256.471,290.264z"></path></g></g><path style="fill:#FFD13F;stroke:#000000;stroke-linecap:round;stroke-linejoin:round;" d="M243.779,291.393c0,0,7.752-1.083,10.407-0.422c1.534-0.821,0.935-2.145,0.935-2.145s-7.183-1.743-11.873,0.548C242.8,290.384,243.779,291.393,243.779,291.393z"></path></g><g><g><g><path style="fill:#FFD13F;stroke:#000000;stroke-linecap:round;stroke-linejoin:round;" d="M230.143,305.805c0,0-1.794-1.378-1.498-2.943c0.296-1.563,1.712-1.181,1.982-0.544C231.342,304.018,230.143,305.805,230.143,305.805z"></path><path style="fill:#FFD13F;stroke:#000000;stroke-linecap:round;stroke-linejoin:round;" d="M230.264,305.658c0,0,1.794,1.38,1.5,2.942c-0.297,1.563-1.716,1.184-1.983,0.543C229.067,307.441,230.264,305.658,230.264,305.658z"></path></g><g><path style="fill:#FFD13F;stroke:#000000;stroke-linecap:round;stroke-linejoin:round;" d="M230.278,305.792c0,0-1.379,1.794-2.944,1.498c-1.563-0.294-1.181-1.713-0.542-1.981C228.493,304.595,230.278,305.792,230.278,305.792z"></path><path style="fill:#FFD13F;stroke:#000000;stroke-linecap:round;stroke-linejoin:round;" d="M230.129,305.671c0,0,1.382-1.794,2.944-1.498c1.563,0.295,1.183,1.715,0.542,1.982C231.915,306.868,230.129,305.671,230.129,305.671z"></path></g></g><g><g><path style="fill:#FFD13F;stroke:#000000;stroke-linecap:round;stroke-linejoin:round;" d="M243.233,305.481c0,0-1.792-1.379-1.497-2.943c0.295-1.563,1.714-1.184,1.981-0.543C244.432,303.696,243.233,305.481,243.233,305.481z"></path><path style="fill:#FFD13F;stroke:#000000;stroke-linecap:round;stroke-linejoin:round;" d="M243.355,305.335c0,0,1.795,1.379,1.499,2.942c-0.298,1.565-1.714,1.184-1.984,0.542C242.158,307.119,243.355,305.335,243.355,305.335z"></path></g><g><path style="fill:#FFD13F;stroke:#000000;stroke-linecap:round;stroke-linejoin:round;" d="M243.367,305.468c0,0-1.378,1.794-2.943,1.5c-1.562-0.295-1.182-1.716-0.542-1.984C241.581,304.271,243.367,305.468,243.367,305.468z"></path><path style="fill:#FFD13F;stroke:#000000;stroke-linecap:round;stroke-linejoin:round;" d="M243.221,305.347c0,0,1.38-1.796,2.943-1.497c1.565,0.295,1.184,1.714,0.544,1.982C245.007,306.545,243.221,305.347,243.221,305.347z"></path></g></g><path style="fill:#FFD13F;stroke:#000000;stroke-linecap:round;stroke-linejoin:round;" d="M230.529,306.476c0,0,7.752-1.083,10.407-0.422c1.534-0.821,0.935-2.145,0.935-2.145s-7.183-1.743-11.873,0.548C229.55,305.467,230.529,306.476,230.529,306.476z"></path></g><g><g><g><path style="fill:#FFD13F;stroke:#000000;stroke-linecap:round;stroke-linejoin:round;" d="M228.976,320.472c0,0-1.794-1.378-1.498-2.943c0.296-1.563,1.712-1.181,1.982-0.544C230.175,318.685,228.976,320.472,228.976,320.472z"></path><path style="fill:#FFD13F;stroke:#000000;stroke-linecap:round;stroke-linejoin:round;" d="M229.097,320.325c0,0,1.794,1.38,1.5,2.942c-0.297,1.563-1.716,1.184-1.983,0.543C227.9,322.108,229.097,320.325,229.097,320.325z"></path></g><g><path style="fill:#FFD13F;stroke:#000000;stroke-linecap:round;stroke-linejoin:round;" d="M229.111,320.459c0,0-1.379,1.794-2.944,1.498c-1.563-0.294-1.181-1.713-0.542-1.981C227.326,319.262,229.111,320.459,229.111,320.459z"></path><path style="fill:#FFD13F;stroke:#000000;stroke-linecap:round;stroke-linejoin:round;" d="M228.962,320.338c0,0,1.382-1.794,2.944-1.498c1.563,0.295,1.183,1.715,0.542,1.982C230.748,321.535,228.962,320.338,228.962,320.338z"></path></g></g><g><g><path style="fill:#FFD13F;stroke:#000000;stroke-linecap:round;stroke-linejoin:round;" d="M242.066,320.148c0,0-1.792-1.379-1.497-2.943c0.295-1.563,1.714-1.184,1.981-0.543C243.265,318.363,242.066,320.148,242.066,320.148z"></path><path style="fill:#FFD13F;stroke:#000000;stroke-linecap:round;stroke-linejoin:round;" d="M242.188,320.002c0,0,1.795,1.379,1.499,2.942c-0.298,1.565-1.714,1.184-1.984,0.542C240.991,321.786,242.188,320.002,242.188,320.002z"></path></g><g><path style="fill:#FFD13F;stroke:#000000;stroke-linecap:round;stroke-linejoin:round;" d="M242.2,320.135c0,0-1.378,1.794-2.943,1.5c-1.562-0.295-1.182-1.716-0.542-1.984C240.414,318.938,242.2,320.135,242.2,320.135z"></path><path style="fill:#FFD13F;stroke:#000000;stroke-linecap:round;stroke-linejoin:round;" d="M242.054,320.014c0,0,1.38-1.796,2.943-1.497c1.565,0.295,1.184,1.714,0.544,1.982C243.84,321.212,242.054,320.014,242.054,320.014z"></path></g></g><path style="fill:#FFD13F;stroke:#000000;stroke-linecap:round;stroke-linejoin:round;" d="M229.362,321.143c0,0,7.752-1.083,10.407-0.422c1.534-0.821,0.935-2.145,0.935-2.145s-7.183-1.743-11.873,0.548C228.383,320.134,229.362,321.143,229.362,321.143z"></path></g></g></g></g></g></svg>