<svg xmlns="http://www.w3.org/2000/svg" width="500" height="500" version="1.1"><g id="x161"><g><g><g><path style="fill:#E4E0F3;stroke:#000000;stroke-linecap:round;stroke-linejoin:round;" d="M215.919,297.5c0,0-2.57-6.104-1.928-8.675c1.928,0.321,5.141,2.249,6.104,4.819C218.168,295.894,215.919,297.5,215.919,297.5z"></path><path style="fill:#FFFFFF;stroke:#000000;stroke-linecap:round;stroke-linejoin:round;" d="M219.25,293.372c0,0-1.196-1.794-0.897-8.372c2.691,1.196,4.186,5.681,4.186,5.681s2.093-2.69,2.99-1.794c0.897,0.897,3.588,8.073,2.99,10.465C224.633,299.352,219.25,293.372,219.25,293.372z"></path><path style="fill:#6E6E6E;stroke:#000000;stroke-linecap:round;stroke-linejoin:round;" d="M228.596,297c0,0-7.75-3.5-9.25-5c-4,2.5-7.5,8-8.25,9.75s0.75,7.75,2,9.5c2.75,1,13.5,4.25,13.5,4.25L228.596,297z"></path><path style="fill:#505050;" d="M228.156,297.417c0,0-6,4.5-6.5,7.25s2.084,8.5,3.584,9.5C227.49,307.167,228.156,297.417,228.156,297.417z"></path><path style="fill:#FFFFFF;stroke:#000000;stroke-linecap:round;stroke-linejoin:round;" d="M212.846,310.25c0,0-1.75,2.5-1.75,5.25c2.75,1.75,14.25,4.75,14.25,4.75l1.5-5.25L212.846,310.25z"></path></g><g><path style="fill:#E4E0F3;stroke:#000000;stroke-linecap:round;stroke-linejoin:round;" d="M284.081,297.5c0,0,2.57-6.104,1.928-8.675c-1.928,0.321-5.141,2.249-6.104,4.819C281.832,295.894,284.081,297.5,284.081,297.5z"></path><path style="fill:#FFFFFF;stroke:#000000;stroke-linecap:round;stroke-linejoin:round;" d="M280.75,293.372c0,0,1.195-1.794,0.896-8.372c-2.691,1.196-4.186,5.681-4.186,5.681s-2.094-2.69-2.99-1.794c-0.897,0.897-3.588,8.073-2.99,10.465C275.367,299.352,280.75,293.372,280.75,293.372z"></path><path style="fill:#6E6E6E;stroke:#000000;stroke-linecap:round;stroke-linejoin:round;" d="M271.404,297c0,0,7.75-3.5,9.25-5c4,2.5,7.5,8,8.25,9.75s-0.75,7.75-2,9.5c-2.75,1-13.5,4.25-13.5,4.25L271.404,297z"></path><path style="fill:#505050;" d="M271.844,297.417c0,0,6,4.5,6.5,7.25s-2.084,8.5-3.584,9.5C272.51,307.167,271.844,297.417,271.844,297.417z"></path><path style="fill:#FFFFFF;stroke:#000000;stroke-linecap:round;stroke-linejoin:round;" d="M287.154,310.25c0,0,1.75,2.5,1.75,5.25c-2.75,1.75-14.25,4.75-14.25,4.75l-1.5-5.25L287.154,310.25z"></path></g></g><path style="fill:#6E6E6E;stroke:#000000;stroke-linecap:round;stroke-linejoin:round;" d="M299.656,369.7c-0.768-11.537-12.12-21.82-19.879-26.399c-6.505,0.24-53.05,0.24-59.555,0c-7.759,4.579-19.112,14.862-19.88,26.399c6.659-1.948,22.857-11.854,27.874-16.203c-1.801,7.809-1.777,18.343,1.757,22.13c9.658-3.963,20.305-18.049,20.305-18.049c1.349,1.937,10.09,14.086,19.748,18.049c3.534-3.787,3.559-14.321,1.757-22.13C276.797,357.847,292.999,367.752,299.656,369.7z"></path><g><path style="fill:#6E6E6E;stroke:#000000;stroke-linecap:round;stroke-linejoin:round;" d="M276,326.667c0,0-0.668-15.667-1.668-20.334S271,295.667,271,295.667c-12.334,3-21,10.333-21,10.333s-8.667-7.333-21-10.333c0,0-2.334,5.999-3.334,10.666S224,326.667,224,326.667c-2.667,6.333-4,14.334-5,17c4.666,3,21.333,4,31,4c9.666,0,26.332-1,31-4C280,341.001,278.666,333,276,326.667z M250,320.5c0,0-5.25-5.188-5.375-6.25c0-0.438,5.375-5.813,5.375-5.813s5.375,5.375,5.375,5.813C255.25,315.313,250,320.5,250,320.5z"></path><path style="fill:#FFFFFF;stroke:#000000;stroke-linecap:round;stroke-linejoin:round;" d="M266.5,325.398c0,0-0.5-10-1-15.25s-2.25-12-2.25-12c-3,0.75-13.25,7.25-13.25,7.25s-10.25-6.5-13.25-7.25c0,0-1.75,6.75-2.25,12s-1,15.25-1,15.25s-1.75,16-1.5,21c4.25,1,12.5,1.25,18,1.25s13.75-0.25,18-1.25C268.25,341.398,266.5,325.398,266.5,325.398z M250,320.5c0,0-5.25-5.188-5.375-6.25c0-0.438,5.375-5.813,5.375-5.813s5.375,5.375,5.375,5.813C255.25,315.313,250,320.5,250,320.5z"></path></g><g><g><g><path style="fill:#323232;stroke:#000000;stroke-linecap:round;stroke-linejoin:round;" d="M219.066,339.082c0,0-0.396-7.121-2.968-7.517c-2.572-0.396-8.904,17.212-4.945,20.773c4.549-1.188,6.331-4.153,6.331-4.153L219.066,339.082z"></path><path style="fill:#FFFFFF;" d="M215.956,340.914c0,0-1.875-2.57-2.375-2.758s-1.188,0.125-1.188,0.125l-0.844,2.594c0,0,0.408-0.539,0.892-0.238s3.202,3.027,3.202,3.027L215.956,340.914z"></path></g><path style="fill:#323232;stroke:#000000;stroke-linecap:round;stroke-linejoin:round;" d="M223.616,338.688c0,0-1.782-1.384-3.363-1.188c-1.583,0.199-3.563,1.188-4.155,4.947c-0.401,2.54-0.396,4.351,1.386,5.738c2.955,2.298,5.071-0.015,4.945,0L223.616,338.688z"></path><g><path style="fill:#323232;stroke:#000000;stroke-linecap:round;stroke-linejoin:round;" d="M220.253,344.03c0.396-1.978,1.582-3.957,1.582-3.957s6.246-5.073,11.873-3.958c1.779,0.396-2.572,19.586-6.726,20.774c-6.927-3.762-6.728-8.903-6.728-8.903S219.858,346.009,220.253,344.03z"></path><path style="fill:#FFFFFF;" d="M220.581,344.875c0,0,6.134-0.1,8.656-0.25c2.522-0.148,2.875,1.313,2.875,1.313l0.656-2.656c0,0-0.5-1.188-2.594-1.563c-1.487-0.267-9.375,1.313-9.375,1.313S220.519,343.75,220.581,344.875z"></path></g></g><g><g><path style="fill:#323232;stroke:#000000;stroke-linecap:round;stroke-linejoin:round;" d="M280.934,339.082c0,0,0.396-7.121,2.968-7.517c2.572-0.396,8.904,17.212,4.945,20.773c-4.549-1.188-6.33-4.153-6.33-4.153L280.934,339.082z"></path><path style="fill:#FFFFFF;" d="M284.044,340.914c0,0,1.875-2.57,2.375-2.758s1.188,0.125,1.188,0.125l0.844,2.594c0,0-0.408-0.539-0.892-0.238s-3.202,3.027-3.202,3.027L284.044,340.914z"></path></g><path style="fill:#323232;stroke:#000000;stroke-linecap:round;stroke-linejoin:round;" d="M276.384,338.688c0,0,1.781-1.384,3.363-1.188c1.583,0.199,3.563,1.188,4.154,4.947c0.401,2.54,0.396,4.351-1.385,5.738c-2.955,2.298-5.072-0.015-4.945,0L276.384,338.688z"></path><g><path style="fill:#323232;stroke:#000000;stroke-linecap:round;stroke-linejoin:round;" d="M279.747,344.03c-0.396-1.978-1.582-3.957-1.582-3.957s-6.246-5.073-11.873-3.958c-1.778,0.396,2.572,19.586,6.727,20.774c6.927-3.762,6.728-8.903,6.728-8.903S280.142,346.009,279.747,344.03z"></path><path style="fill:#FFFFFF;" d="M279.419,344.875c0,0-6.134-0.1-8.656-0.25c-2.521-0.148-2.875,1.313-2.875,1.313l-0.656-2.656c0,0,0.5-1.188,2.594-1.563c1.487-0.267,9.375,1.313,9.375,1.313S279.481,343.75,279.419,344.875z"></path></g></g></g><g><circle style="fill:#323232;stroke:#000000;stroke-linecap:round;stroke-linejoin:round;" cx="250" cy="326.625" r="2.125"></circle><circle style="fill:#323232;stroke:#000000;stroke-linecap:round;stroke-linejoin:round;" cx="250" cy="334.375" r="2.125"></circle><circle style="fill:#323232;stroke:#000000;stroke-linecap:round;stroke-linejoin:round;" cx="250" cy="342.125" r="2.125"></circle></g><g><g><g><path style="fill:#323232;stroke:#000000;stroke-linecap:round;stroke-linejoin:round;" d="M248.752,306.622l-3.04,9.622l-2.279,7.596l-9.876-3.038c0,0,3.292-8.355,7.597-13.167C244.446,305.103,248.752,306.622,248.752,306.622z"></path><path style="fill:#FFFFFF;" d="M243.651,310.563c0,0-2.625,7.813-3.833,11.625c-1-0.25-2.229-0.667-2.229-0.667s2.904-8.27,3.917-9.916C242.088,311.146,243.651,310.563,243.651,310.563z"></path></g><g><path style="fill:#323232;stroke:#000000;stroke-linecap:round;stroke-linejoin:round;" d="M248.697,307.281c0,0-10.744,6.952-11.758,6.446c-1.013-0.507-5.569-5.318-4.305-14.687c5.319-3.293,13.98,0.168,15.751,0.928C248.132,301.994,248.697,307.281,248.697,307.281z"></path><path style="fill:#FFFFFF;" d="M233.025,304.375c0,0,0.09,2.212,0.922,3.984c2-1.125,9.453-2.953,12.344-3.516c0-1.182,0.25-2.156,0.25-2.156S238.11,302.097,233.025,304.375z"></path></g><g><path style="fill:#323232;stroke:#000000;stroke-linecap:round;stroke-linejoin:round;" d="M251.248,306.622l3.04,9.622l2.279,7.596l9.876-3.038c0,0-3.293-8.355-7.597-13.167C255.555,305.103,251.248,306.622,251.248,306.622z"></path><path style="fill:#FFFFFF;" d="M256.35,310.563c0,0,2.625,7.813,3.833,11.625c1-0.25,2.229-0.667,2.229-0.667s-2.904-8.27-3.917-9.916C257.912,311.146,256.35,310.563,256.35,310.563z"></path></g><g><path style="fill:#323232;stroke:#000000;stroke-linecap:round;stroke-linejoin:round;" d="M251.303,307.281c0,0,10.744,6.952,11.759,6.446c1.013-0.507,5.569-5.318,4.306-14.687c-5.32-3.293-13.98,0.168-15.752,0.928C251.868,301.994,251.303,307.281,251.303,307.281z"></path><path style="fill:#FFFFFF;" d="M266.975,304.375c0,0-0.09,2.212-0.922,3.984c-2-1.125-9.453-2.953-12.344-3.516c0-1.182-0.25-2.156-0.25-2.156S261.89,302.097,266.975,304.375z"></path></g></g><circle style="fill:#FFD438;stroke:#000000;stroke-linecap:round;stroke-linejoin:round;" cx="250" cy="303.655" r="4.051"></circle></g></g></g></svg>