<svg xmlns="http://www.w3.org/2000/svg" width="500" height="500" version="1.1"><g id="x162"><g><g><g><g><path style="fill:#6E6E6E;stroke:#000000;stroke-linecap:round;stroke-linejoin:round;" d="M219.084,293.333c0,0-1.667,1.167-2,2c0.833,3.5,7.833,9.47,10.833,9.97c1.167-3.834,1.833-4.97,1.833-4.97L219.084,293.333z"></path><g><path style="fill:#FFFFFF;stroke:#000000;stroke-linecap:round;stroke-linejoin:round;" d="M231.5,283c0,0-9.25,6.75-12.5,10.75c2,4.75,8.5,8.5,8.5,8.5s-1,3.25-1.75,8.25s0.334,8.833,0.334,8.833L250.5,319.5v-17.75L231.5,283z"></path><g><polygon style="fill:#969696;" points="228.75,290.25 237,309.25 239.25,307.5 230.5,288.25 "></polygon><polygon style="fill:#6E6E6E;stroke:#000000;stroke-linecap:round;stroke-linejoin:round;" points="226.913,291.834 225.501,289.446 231.473,285.972 232.667,288.251 "></polygon></g><path style="fill:none;stroke:#000000;stroke-linecap:round;stroke-linejoin:round;" d="M227.417,302.666c0,0,1.208-4.729,2.333-7.166"></path></g></g><g><path style="fill:#6E6E6E;stroke:#000000;stroke-linecap:round;stroke-linejoin:round;" d="M280.916,293.333c0,0,1.666,1.167,2,2c-0.833,3.5-7.833,9.47-10.833,9.97c-1.167-3.834-1.833-4.97-1.833-4.97L280.916,293.333z"></path><g><path style="fill:#FFFFFF;stroke:#000000;stroke-linecap:round;stroke-linejoin:round;" d="M268.5,283c0,0,9.25,6.75,12.5,10.75c-2,4.75-8.5,8.5-8.5,8.5s1,3.25,1.75,8.25s-0.334,8.833-0.334,8.833L249.5,319.5v-17.75L268.5,283z"></path><g><polygon style="fill:#969696;" points="271.25,290.25 263,309.25 260.75,307.5 269.5,288.25 "></polygon><polygon style="fill:#6E6E6E;stroke:#000000;stroke-linecap:round;stroke-linejoin:round;" points="273.087,291.834 274.498,289.446 268.527,285.972 267.333,288.251 "></polygon></g><path style="fill:none;stroke:#000000;stroke-linecap:round;stroke-linejoin:round;" d="M272.583,302.666c0,0-1.208-4.729-2.333-7.166"></path></g></g></g><g><g><path style="fill:#6E6E6E;stroke:#000000;stroke-linecap:round;stroke-linejoin:round;" d="M238.421,280.467c-2.91-0.539-6.144,1.832-7.438,3.126c1.426,1.583,9.601,21.877,13.836,30.938l8.01-10.319C246.431,293.623,238.923,280.56,238.421,280.467z"></path></g><g><path style="fill:#6E6E6E;stroke:#000000;stroke-linecap:round;stroke-linejoin:round;" d="M261.579,280.467c-0.75,0.139-17.139,25.525-22.096,38.675c6.467,0.862,13.15,0.862,13.15,0.862s14.442-34.257,16.383-36.411C267.723,282.299,264.489,279.928,261.579,280.467z"></path></g></g></g><g><g><path style="fill:#FFFFFF;stroke:#000000;stroke-linecap:round;stroke-linejoin:round;" d="M239.171,366.425c-0.766,0-16.854,1.277-30.896-6.892c1.021-5.618,11.745-25.535,14.299-26.812c7.915,0,25.277,0,25.277,0L239.171,366.425z"></path><polygon style="fill:#6E6E6E;stroke:#000000;stroke-linecap:round;stroke-linejoin:round;" points="215.425,348.554 220.531,350.34 224.437,344.75 229.489,345.743 232.341,339.281 221.749,337.375 "></polygon><path style="fill:#969696;" d="M222.187,351.188c0,0,10.125,2.375,10.813,2.125c0.875-1.688,5.947-13.217,5.947-13.217l-4.634-0.783l-3.75,9l-5.688-1.188L222.187,351.188z"></path><path style="fill:#6E6E6E;stroke:#000000;stroke-linecap:round;stroke-linejoin:round;" d="M208.275,359.533c0.254-2.043,1.788-7.15,3.575-9.449c7.629,4.725,17.839,6.732,23.098,7.498c1.864-3.832,7.614-17.082,12.818-25.113c5.619,0,9.958,0.509,9.958,0.509s-11.892,21.081-14.412,34.522C227.813,369.25,209.622,360.206,208.275,359.533z"></path></g><g><path style="fill:#FFFFFF;stroke:#000000;stroke-linecap:round;stroke-linejoin:round;" d="M260.829,366.425c0.767,0,16.854,1.277,30.896-6.892c-1.021-5.618-11.744-25.535-14.299-26.812c-7.914,0-25.277,0-25.277,0L260.829,366.425z"></path><polygon style="fill:#6E6E6E;stroke:#000000;stroke-linecap:round;stroke-linejoin:round;" points="284.574,348.554 279.469,350.34 275.563,344.75 270.512,345.743 267.658,339.281 278.251,337.375 "></polygon><path style="fill:#969696;" d="M277.813,351.188c0,0-10.125,2.375-10.813,2.125c-0.875-1.688-5.946-13.217-5.946-13.217l4.634-0.783l3.75,9l5.688-1.188L277.813,351.188z"></path><path style="fill:#6E6E6E;stroke:#000000;stroke-linecap:round;stroke-linejoin:round;" d="M291.725,359.533c-0.254-2.043-1.788-7.15-3.574-9.449c-7.63,4.725-17.84,6.732-23.099,7.498c-1.864-3.832-7.614-17.082-12.817-25.113c-5.619,0-9.959,0.509-9.959,0.509s11.893,21.081,14.412,34.522C272.188,369.25,290.379,360.206,291.725,359.533z"></path></g></g><path style="fill:#787878;stroke:#000000;stroke-linecap:round;stroke-linejoin:round;" d="M274.875,319.125c0,0-9-0.5-24.875-0.5s-24.875,0.5-24.875,0.5l-3,13.875h55.75L274.875,319.125z"></path></g></g></svg>