<svg xmlns="http://www.w3.org/2000/svg" width="500" height="500" version="1.1"><g id="x163"><g><path style="fill:#FFFFFF;stroke:#000000;stroke-linecap:round;stroke-linejoin:round;" d="M272.81,302.004h-45.62c-0.624,0.535-2.688,11.815-1.681,13.496h48.98C275.495,313.819,273.433,302.539,272.81,302.004z"></path><path style="fill:#E4E0F3;" d="M238.056,312.735c0,0,8.586-2.206,11.529-1.962c2.944,0.245,12.755,0.245,12.755,0.245s-8.585-3.68-13.245-3.189C244.433,308.321,238.056,312.735,238.056,312.735z"></path><path style="fill:none;stroke:#000000;stroke-linecap:round;stroke-linejoin:round;" d="M274.372,306.849c0.327-1.963-0.491-3.435-1.635-4.906c-1.146-0.98-3.271-0.98-3.271-0.98s-0.653-1.801-1.799-3.108c-0.654,0-2.942,2.616-2.942,2.616s-1.145-1.961-2.454-3.106c-0.816-0.164-3.435,3.106-3.435,3.106s-2.127-2.451-3.435-2.616c-1.145,0.655-2.618,2.454-2.618,2.454c-0.161-0.491-2.154-2.289-2.769-2.289c-0.613,0-2.636,1.798-2.798,2.289c0,0-1.474-1.799-2.618-2.454c-1.308,0.165-3.434,2.616-3.434,2.616s-2.616-3.271-3.434-3.106c-1.309,1.146-2.454,3.106-2.454,3.106s-2.289-2.616-2.944-2.616c-1.143,1.308-1.798,3.108-1.798,3.108s-2.126,0-3.271,0.98c-1.145,1.472-1.963,2.943-1.636,4.906"></path><path style="fill:#6E6E6E;stroke:#000000;stroke-linecap:round;stroke-linejoin:round;" d="M272.737,301.942c-1.146-0.98-3.271-0.98-3.271-0.98s-0.653-1.801-1.799-3.108c-0.654,0-2.942,2.616-2.942,2.616s-1.145-1.961-2.454-3.106c-0.816-0.164-3.435,3.106-3.435,3.106s-2.127-2.451-3.435-2.616c-1.145,0.655-2.618,2.454-2.618,2.454c-0.161-0.491-2.154-2.289-2.769-2.289c-0.613,0-2.636,1.798-2.798,2.289c0,0-1.474-1.799-2.618-2.454c-1.308,0.165-3.434,2.616-3.434,2.616s-2.616-3.271-3.434-3.106c-1.309,1.146-2.454,3.106-2.454,3.106s-2.289-2.616-2.944-2.616c-1.143,1.308-1.798,3.108-1.798,3.108s-2.126,0-3.271,0.98c-1.145,1.472-1.963,2.943-1.636,4.906c0,0,1.636-2.29,3.925-2.943c0.818,0.653,2.942,1.962,2.942,1.962s1.801-2.127,2.781-2.943c0.327,0.162,2.127,2.453,2.945,2.289c0.815-0.163,1.798-2.127,2.943-2.781c0.983,1.636,2.781,2.454,2.781,2.454l2.289-2.125c0,0,2.739,3.412,3.781,3.412c1.043,0,3.752-3.412,3.752-3.412l2.289,2.125c0,0,1.799-0.818,2.78-2.454c1.145,0.654,2.125,2.618,2.944,2.781c0.817,0.164,2.616-2.127,2.944-2.289c0.98,0.816,2.779,2.943,2.779,2.943s2.126-1.309,2.942-1.962c2.29,0.653,3.926,2.943,3.926,2.943C274.699,304.886,273.881,303.414,272.737,301.942z"></path><path style="fill:#6E6E6E;stroke:#000000;stroke-linecap:round;stroke-linejoin:round;" d="M225.386,315.067c0,0-0.794,2.854,0.582,3.358c0.443,0.162,47.655,0.148,48.063,0c1.378-0.504,0.581-3.358,0.581-3.358H225.386z"></path><path style="fill:#6E6E6E;stroke:#000000;stroke-linecap:round;stroke-linejoin:round;" d="M224.482,311.1c0,0,0.982,0.818,2.454,0c1.472-0.816,1.798-2.289,1.798-2.289s1.472,3.435-0.327,4.743c-1.256,0.912-2.944,0.326-2.944,0.326S223.829,312.245,224.482,311.1z"></path><path style="fill:#6E6E6E;stroke:#000000;stroke-linecap:round;stroke-linejoin:round;" d="M275.518,311.1c0,0-0.98,0.818-2.454,0c-1.472-0.816-1.8-2.289-1.8-2.289s-1.471,3.435,0.328,4.743c1.255,0.912,2.945,0.326,2.945,0.326S276.173,312.245,275.518,311.1z"></path></g></g></svg>