<svg xmlns="http://www.w3.org/2000/svg" width="500" height="500" version="1.1"><g id="x164"><g><g><g><path style="fill:#FFFFFF;stroke:#000000;stroke-linecap:round;stroke-linejoin:round;" d="M224.375,288.75c0,0-3.5,3.25-4,4.25s-5.5,9.75-6.5,10.75c-1.733,1.334-2.65,2.334-2.65,2.334l1.417,3.334l-0.667,2.916c1-0.25,2.833-0.333,2.833-0.333s5.316,1.749,7.566,2.999s7.25-1.75,7.25-1.75l4-18.75L224.375,288.75z"></path><path style="fill:#E4E0F3;" d="M213.726,304.5c0,0,2.083-2.332,2.583-3.082c0.75,1.25,1.667,2.582,1.167,2.832C215.976,304.5,213.726,304.5,213.726,304.5z"></path><path style="fill:#E4E0F3;" d="M229.976,295c0,0-6,2.5-6.5,4.5s0,8.75,2.75,10.75C228.976,302.25,229.976,295,229.976,295z"></path><path style="fill:none;stroke:#000000;stroke-linecap:round;stroke-linejoin:round;" d="M222.976,298.25c0,0,2.25,5,4.5,6.75"></path></g><g><path style="fill:#FFFFFF;stroke:#000000;stroke-linecap:round;stroke-linejoin:round;" d="M275.623,288.75c0,0,3.5,3.25,4,4.25s5.5,9.75,6.5,10.75c1.732,1.334,2.65,2.334,2.65,2.334l-1.418,3.334l0.668,2.916c-1-0.25-2.834-0.333-2.834-0.333s-5.316,1.749-7.566,2.999s-7.25-1.75-7.25-1.75l-4-18.75L275.623,288.75z"></path><path style="fill:#E4E0F3;" d="M286.273,304.5c0,0-2.084-2.332-2.584-3.082c-0.75,1.25-1.666,2.582-1.166,2.832C284.023,304.5,286.273,304.5,286.273,304.5z"></path><path style="fill:#E4E0F3;" d="M270.023,295c0,0,6,2.5,6.5,4.5s0,8.75-2.75,10.75C271.023,302.25,270.023,295,270.023,295z"></path><path style="fill:none;stroke:#000000;stroke-linecap:round;stroke-linejoin:round;" d="M277.023,298.25c0,0-2.25,5-4.5,6.75"></path></g></g><g><path style="fill:#E4E0F3;stroke:#000000;stroke-linecap:round;stroke-linejoin:round;" d="M260.999,297.042c0,0-0.497-4.292-10.998-4.292s-11,4.292-11,4.292c-0.5,12.75,11,21,11,21S261.499,309.792,260.999,297.042z"></path><g><path style="fill:#FFFFFF;stroke:#000000;stroke-linecap:round;stroke-linejoin:round;" d="M280.441,347.333H219.56c0,0-11.307,31.658-10.959,32.702c1.391,0.696,3.479,1.043,4.697,1.913c1.217,0.87,4,1.739,6.436,2.087c2.436,0.349,4.349-0.173,5.567,0.349c1.217,0.522,6.087,2.436,8.523,2.436s6.436-1.043,8.001-0.869c1.565,0.173,5.74,1.217,8.176,1.217c2.435,0,6.609-1.044,8.175-1.217c1.565-0.174,5.567,0.869,8.003,0.869c2.435,0,7.307-1.913,8.523-2.436c1.217-0.521,3.131,0,5.566-0.349c2.435-0.348,5.219-1.217,6.436-2.087s3.305-1.217,4.696-1.913C291.746,378.991,280.441,347.333,280.441,347.333z"></path><g><path style="fill:#E4E0F3;" d="M217.873,373.166c0,0,1.333-0.833,2.667-0.333c1.333,0.5,2.333,2.667,2.333,2.667s1.833-27.833,1.333-27S217.873,373.166,217.873,373.166z"></path><path style="fill:#E4E0F3;" d="M282.125,373.166c0,0-1.333-0.833-2.667-0.333c-1.333,0.5-2.333,2.667-2.333,2.667s-1.833-27.833-1.333-27S282.125,373.166,282.125,373.166z"></path></g></g><g><g><path style="fill:#6E6E6E;stroke:#000000;stroke-linecap:round;stroke-linejoin:round;" d="M290.499,375c-2.168-16.333-13-42.5-13-42.5s0.049-0.701,0.049-1.701s-1.799-2.799-1.799-3.549s-1.25-18-1.75-22.5s-3.75-10.5-3.75-10.5l-20.248,7.083l-20.25-7.083c0,0-3.25,6-3.75,10.5s-1.75,21.75-1.75,22.5s-1.8,2.549-1.8,3.549s0.05,1.701,0.05,1.701s-10.833,26.167-13,42.5c1.667,2,8.75,3,8.75,3s3-20.5,5.75-26c-1.25,8.25-3.25,26.602-3.25,26.602s8.5,2.898,29.25,2.898c20.748,0,29.248-2.898,29.248-2.898s-2-18.352-3.25-26.602c2.75,5.5,5.75,26,5.75,26S288.831,377,290.499,375z"></path><g><path style="fill:none;stroke:#000000;stroke-linecap:round;stroke-linejoin:round;" d="M235.226,295c0,0-3.25,6.25-3.75,10.5s-1.5,22.5-1.5,22.5l-4.75,19.75"></path><path style="fill:none;stroke:#000000;stroke-linecap:round;stroke-linejoin:round;" d="M264.773,295c0,0,3.25,6.25,3.75,10.5s1.5,22.5,1.5,22.5l4.75,19.75"></path></g><g><path d="M210.559,368.75c0,0,3.583,1.583,8.583,2.583c0.083-0.916,0.75-3.916,0.75-3.916s-7.75-2-8.25-3C211.392,365.833,210.559,368.75,210.559,368.75z"></path><path d="M289.439,368.75c0,0-3.583,1.583-8.583,2.583c-0.083-0.916-0.75-3.916-0.75-3.916s7.75-2,8.25-3C288.606,365.833,289.439,368.75,289.439,368.75z"></path><path d="M277.916,368.083c0,0-7.832,2.584-27.915,2.584c-20.084,0-27.917-2.584-27.917-2.584l-0.25,3.75c0,0,5.75,2.5,28.167,2.5c22.416,0,28.165-2.5,28.165-2.5L277.916,368.083z"></path></g></g><g><circle style="fill:#874D47;stroke:#000000;stroke-linecap:round;stroke-linejoin:round;" cx="242.651" cy="321" r="2.912"></circle><circle style="fill:#874D47;stroke:#000000;stroke-linecap:round;stroke-linejoin:round;" cx="242.651" cy="334.31" r="2.912"></circle><circle style="fill:#874D47;stroke:#000000;stroke-linecap:round;stroke-linejoin:round;" cx="257.349" cy="321" r="2.912"></circle><circle style="fill:#874D47;stroke:#000000;stroke-linecap:round;stroke-linejoin:round;" cx="257.349" cy="334.31" r="2.912"></circle></g></g></g></g></g></svg>