<svg xmlns="http://www.w3.org/2000/svg" width="500" height="500" version="1.1"><g id="x165"><g><path style="fill:#6E6E6E;stroke:#000000;stroke-linecap:round;stroke-linejoin:round;" d="M301.198,377.444c-4.979-3.2-10.667-13.154-10.667-13.154l-15.999-23.466L250,327.313l-24.532,13.511l-16,23.466c0,0-5.688,9.954-10.666,13.154c13.51,0,20.621-7.111,22.043-10.311c-2.489,7.822-2.844,13.643-1.067,17.199c8.177-3.2,14.221-11.021,15.644-13.155c1.422,7.111,12.799,16.844,14.578,16.844s13.155-9.732,14.578-16.844c1.422,2.134,7.467,9.955,15.644,13.155c1.777-3.557,1.423-9.377-1.066-17.199C280.578,370.333,287.688,377.444,301.198,377.444z"></path><path style="fill:#6E6E6E;stroke:#000000;stroke-linecap:round;stroke-linejoin:round;" d="M291,364.334c-2.334-2-15.334-36.334-15.334-36.334s-1-16-1.666-21c-0.668-2-5-7.333-12.334-9.333c-5.666,2-11.666,8.667-11.666,8.667s-6-6.667-11.667-8.667C231,299.667,226.667,305,226,307c-0.667,5-1.667,21-1.667,21s-13,34.334-15.333,36.334c8.333-4.334,15.333-12.666,16.333-15C224,355.334,245.667,370,250,370s26-14.666,24.666-20.666C275.666,351.668,282.666,360,291,364.334z"></path></g></g></svg>