<svg xmlns="http://www.w3.org/2000/svg" width="500" height="500" version="1.1"><g id="x166"><g><g><g><path style="fill:#6E6E6E;stroke:#000000;stroke-linecap:round;stroke-linejoin:round;" d="M212.667,312.166c0,0-2.333,5.667-2.333,7.167c3,1.667,15.667,4.833,15.667,4.833l1.833-7.166L212.667,312.166z"></path><path style="fill:#6E6E6E;stroke:#000000;stroke-linecap:round;stroke-linejoin:round;" d="M228.084,286.334c0,0-4.751,2.666-5.584,3.499s-7.5,12.834-8.167,13.667s-3.667,2.834-3.667,3.5s0.667,5,2.167,6.333c4.333,1.833,15.333,4.833,15.333,4.833l6.5-23.333L228.084,286.334z"></path></g><g><path style="fill:#6E6E6E;stroke:#000000;stroke-linecap:round;stroke-linejoin:round;" d="M287.334,312.166c0,0,2.332,5.667,2.332,7.167c-3,1.667-15.666,4.833-15.666,4.833L272.166,317L287.334,312.166z"></path><path style="fill:#6E6E6E;stroke:#000000;stroke-linecap:round;stroke-linejoin:round;" d="M271.916,286.334c0,0,4.75,2.666,5.584,3.499s7.5,12.834,8.166,13.667c0.668,0.833,3.668,2.834,3.668,3.5s-0.668,5-2.168,6.333c-4.332,1.833-15.332,4.833-15.332,4.833l-6.5-23.333L271.916,286.334z"></path></g></g><g><path style="fill:#FFFFFF;stroke:#000000;stroke-linecap:round;stroke-linejoin:round;" d="M250,293.166c-4.5,0-7.5,1.333-9.333,3.5c3.167,6.167,9.333,7.834,9.333,7.834s6.167-1.667,9.333-7.834C257.501,294.499,254.501,293.166,250,293.166z"></path><path style="fill:#6E6E6E;stroke:#000000;stroke-linecap:round;stroke-linejoin:round;" d="M275.5,327.333c0-0.5-0.666-16.5-1.5-21.833s-4-11.167-4-11.167l-20,6.333l-20-6.333c0,0-3.167,5.834-4,11.167s-1.5,21.333-1.5,21.833s-6.167,12.333-6.167,14.333s1.667,3.167,1.667,3.167s13.5,2.333,30,2.333c16.5,0,30-2.333,30-2.333s1.666-1.167,1.666-3.167S275.5,327.833,275.5,327.333z"></path></g></g></g></svg>