<svg xmlns="http://www.w3.org/2000/svg" width="500" height="500" version="1.1"><g id="x167"><g><g><g><g><path style="fill:#6E6E6E;stroke:#000000;stroke-linecap:round;stroke-linejoin:round;" d="M221.863,292.167c-2.805,3.039-10.656,22.515-11.181,22.645c-0.524,0.132-1.625,1.073-1.521,1.938c0.105,0.864,0.091,3.264,0.091,3.264l-1.376,2.292l-2.906,7.058c0,0,5.329,4.591,17.267,8.021c1.314-8.125,8.572-33.309,8.572-33.309S224.327,295.786,221.863,292.167z"></path><path style="fill:#505050;" d="M223.62,318.178c0,0-3.26-8.161-2.656-11.542c0.604-3.381,6.057-8.073,6.057-8.073L223.62,318.178z"></path></g></g><g><g><path style="fill:#6E6E6E;stroke:#000000;stroke-linecap:round;stroke-linejoin:round;" d="M278.137,292.167c2.806,3.039,10.656,22.515,11.181,22.645c0.524,0.132,1.625,1.073,1.521,1.938c-0.105,0.864-0.091,3.264-0.091,3.264l1.376,2.292l2.906,7.058c0,0-5.329,4.591-17.267,8.021c-1.313-8.125-8.572-33.309-8.572-33.309S275.673,295.786,278.137,292.167z"></path><path style="fill:#505050;" d="M276.38,318.178c0,0,3.26-8.161,2.656-11.542c-0.605-3.381-6.058-8.073-6.058-8.073L276.38,318.178z"></path></g></g></g><g><g><path style="fill:#6E6E6E;stroke:#000000;stroke-linecap:round;stroke-linejoin:round;" d="M276.333,312.667c-0.603-5.299-2.925-13.232-2.925-13.232s0.657-1.299,4.758-6.768C274,286,266.5,282.5,266.5,282.5c-0.854,9.228-16.5,9.757-16.5,9.757s-15.646-0.529-16.5-9.757c0,0-7.5,3.5-11.666,10.167c4.101,5.469,4.758,6.768,4.758,6.768s-2.322,7.934-2.925,13.232c-0.443,3.903-2.866,18.056-5.088,27.999c0,0,7.921,2.667,31.421,2.667c0.737,0-0.374-13.824,0.333-13.833c0.333,2,3,10,4,13.777c20.15-0.524,27.087-2.611,27.087-2.611C279.199,330.723,276.776,316.57,276.333,312.667z"></path><line style="fill:none;stroke:#000000;stroke-linecap:round;stroke-linejoin:round;" x1="250" y1="295.5" x2="250" y2="343"></line></g></g></g></g></svg>