<svg xmlns="http://www.w3.org/2000/svg" width="500" height="500" version="1.1"><g id="x168"><g><g><g><g><path style="fill:#6E6E6E;stroke:#000000;stroke-linecap:round;stroke-linejoin:round;" d="M220.5,293.833c0,0-15.806,32.267-23.088,53.463c6.635,2.104,25.081,9.385,25.081,9.385l8.091-53.721C230.583,302.96,224.833,296,220.5,293.833z"></path><path style="fill:#505050;" d="M222.979,321.407c0,0-2.427-10.842-1.78-13.755c0.647-2.911,6.957-9.709,6.957-9.709S224.92,318.817,222.979,321.407z"></path></g></g><g><g><path style="fill:#6E6E6E;stroke:#000000;stroke-linecap:round;stroke-linejoin:round;" d="M279.813,293.833c0,0,15.806,32.267,23.087,53.463c-6.634,2.104-25.08,9.385-25.08,9.385l-8.091-53.721C269.729,302.96,275.479,296,279.813,293.833z"></path><path style="fill:#505050;" d="M277.334,321.407c0,0,2.426-10.842,1.779-13.755c-0.646-2.911-6.957-9.709-6.957-9.709S275.392,318.817,277.334,321.407z"></path></g></g></g><g><g><path style="fill:#6E6E6E;stroke:#000000;stroke-linecap:round;stroke-linejoin:round;" d="M239,291.5l-5.019-9.413c0-0.323-9.481,3.08-13.648,12.08c3.167,4.166,6,9.666,6,9.666s-1.515,5.48-2,7.584c-0.183,0.793-1.583,10.333-2.083,17.333c-4.75,11.25-12.858,36.399-11.346,41.038c2.751-2.104,3.096-2.122,4.692-2.267c0.58-0.053,29.226,3.237,31.329,1.941c2.104-1.294,3.075-2.588,3.075-2.588v-70.71L239,291.5z"></path></g><g><path style="fill:#6E6E6E;stroke:#000000;stroke-linecap:round;stroke-linejoin:round;" d="M261.167,292.5l4.851-10.413c0-0.323,9.482,3.08,13.648,12.08c-3.166,4.166-6,9.666-6,9.666s1.516,5.48,2,7.584c0.184,0.793,1.584,10.333,2.084,17.333c4.75,11.25,12.857,36.399,11.346,41.038c-2.752-2.104-3.096-2.122-4.692-2.267c-0.58-0.053-29.226,3.237-31.329,1.941c-2.104-1.294-3.073-2.588-3.073-2.588v-70.71L261.167,292.5z"></path></g></g><g><path style="fill:#505050;" d="M251,365.581c0,0,0-32.524,3.399-33.495c3.397-0.97,12.62,33.979,12.62,33.979l-11.165,2.912L251,365.581z"></path></g><g><line style="fill:#6E6E6E;stroke:#000000;stroke-linecap:round;stroke-linejoin:round;" x1="254.399" y1="298.754" x2="254.399" y2="366.552"></line><g><circle style="fill:#57383D;stroke:#000000;stroke-linecap:round;stroke-linejoin:round;" cx="252.133" cy="304.094" r="1.293"></circle><circle style="fill:#57383D;stroke:#000000;stroke-linecap:round;stroke-linejoin:round;" cx="252.133" cy="315.743" r="1.293"></circle><circle style="fill:#57383D;stroke:#000000;stroke-linecap:round;stroke-linejoin:round;" cx="252.133" cy="327.394" r="1.293"></circle><circle style="fill:#57383D;stroke:#000000;stroke-linecap:round;stroke-linejoin:round;" cx="252.133" cy="339.044" r="1.293"></circle><circle style="fill:#57383D;stroke:#000000;stroke-linecap:round;stroke-linejoin:round;" cx="252.133" cy="350.693" r="1.293"></circle></g></g></g></g></svg>