<svg xmlns="http://www.w3.org/2000/svg" width="500" height="500" version="1.1"><g id="x169"><g><g><g><g><path style="fill:#6E6E6E;stroke:#000000;stroke-linecap:round;stroke-linejoin:round;" d="M221.863,292.167c-2.805,3.039-10.656,22.515-11.181,22.645c-0.524,0.132-1.625,1.073-1.521,1.938c0.105,0.864,0.091,3.264,0.091,3.264l-1.376,2.292l-2.906,7.058c0,0,5.329,4.591,17.267,8.021c1.314-8.125,8.572-33.309,8.572-33.309S224.327,295.786,221.863,292.167z"></path><path style="fill:#505050;" d="M223.62,318.178c0,0-3.26-8.161-2.656-11.542c0.604-3.381,6.057-8.073,6.057-8.073L223.62,318.178z"></path></g></g><g><g><path style="fill:#6E6E6E;stroke:#000000;stroke-linecap:round;stroke-linejoin:round;" d="M278.137,292.167c2.806,3.039,10.656,22.515,11.181,22.645c0.524,0.132,1.625,1.073,1.521,1.938c-0.105,0.864-0.091,3.264-0.091,3.264l1.376,2.292l2.906,7.058c0,0-5.329,4.591-17.267,8.021c-1.313-8.125-8.572-33.309-8.572-33.309S275.673,295.786,278.137,292.167z"></path><path style="fill:#505050;" d="M276.38,318.178c0,0,3.26-8.161,2.656-11.542c-0.605-3.381-6.058-8.073-6.058-8.073L276.38,318.178z"></path></g></g></g><g><g><g><path style="fill:#6E6E6E;stroke:#000000;stroke-linecap:round;stroke-linejoin:round;" d="M233.196,282.5c0,0-7.5,3.5-11.667,10.167c4.101,5.469,4.758,6.768,4.758,6.768s-2.323,7.934-2.925,13.232c-0.833,7.333-8.658,40.274-9,42.667c1.538,4.272,17.393,9.025,35.333,9.025c0-34.854,0-72.103,0-72.103S234.05,291.728,233.196,282.5z"></path></g></g><g><g><path style="fill:#6E6E6E;stroke:#000000;stroke-linecap:round;stroke-linejoin:round;" d="M266.804,282.5c0,0,7.5,3.5,11.666,10.167c-4.101,5.469-4.758,6.768-4.758,6.768s2.322,7.934,2.925,13.232c0.833,7.333,8.657,40.274,9,42.667c-1.383,3.841-14.334,8.069-29.969,8.885c-1.668-3.885-3.501-8.219-5.364-14.885c0-29.746,0-57.077,0-57.077S265.95,291.728,266.804,282.5z"></path></g></g></g></g></g></svg>