<svg xmlns="http://www.w3.org/2000/svg" width="500" height="500" version="1.1"><g id="x017"><g><g><g><path style="fill:#6E6E6E;stroke:#000000;stroke-linecap:round;stroke-linejoin:round;" d="M227.807,316.75c-3.417-7.667-13.583-8.333-14-14.333c1.979-4.541,8.479-12.028,13.729-16.466c2.084,4.382,4.521,10.549,4.521,10.549S229.807,316.5,227.807,316.75z"></path><path style="fill:none;stroke:#000000;stroke-linecap:round;stroke-linejoin:round;" d="M224.223,296.75c0,0,1.5,4.5,4,6.5"></path></g><g><path style="fill:#6E6E6E;stroke:#000000;stroke-linecap:round;stroke-linejoin:round;" d="M272.193,316.75c3.417-7.667,13.583-8.333,14-14.333c-1.979-4.541-8.479-12.028-13.729-16.466c-2.084,4.382-4.521,10.549-4.521,10.549S270.193,316.5,272.193,316.75z"></path><path style="fill:none;stroke:#000000;stroke-linecap:round;stroke-linejoin:round;" d="M275.777,296.75c0,0-1.5,4.5-4,6.5"></path></g></g><path style="fill:#6E6E6E;stroke:#000000;stroke-linecap:round;stroke-linejoin:round;" d="M275.75,327c0,0-1.25-18.5-1.75-21.75s-1.5-5-3-9.25c0-2,1.5-9.813,1.5-9.813s-3-2.486-5-2.986C265.5,294.701,250,294,250,294s-15.5,0.701-17.5-10.799c-2,0.5-5,2.986-5,2.986S229,294,229,296c-1.5,4.25-2.5,6-3,9.25S224.25,327,224.25,327s-7.666,22.333-7.916,24.583c2.833,2.25,6.833,3.834,8.333,4.084c0.859,0.144,6.923-0.645,13.166-1.343c3.665,0.016,11.021,1.343,12.167,1.343s8.502-1.327,12.168-1.343c6.242,0.698,12.306,1.486,13.165,1.343c1.5-0.25,5.5-1.834,8.333-4.084C283.416,349.333,275.75,327,275.75,327z"></path><g><g><path style="fill:#323232;stroke:#000000;stroke-linecap:round;stroke-linejoin:round;" d="M229.639,284.334c0,0,3.031-2.542,7.615-3.209c-0.593,2.552,3.666,10.029,12.746,11.872c-0.987,3.119-2.777,8.378-2.777,8.378S232.205,298.509,229.639,284.334z"></path><path style="fill:none;stroke:#666666;stroke-linecap:round;stroke-linejoin:round;" d="M235.004,282.5c0,0,0.506,9.604,13.5,12.344"></path></g><g><path style="fill:#323232;stroke:#000000;stroke-linecap:round;stroke-linejoin:round;" d="M270.361,284.334c0,0-3.031-2.542-7.615-3.209c0.592,2.552-3.666,10.029-12.746,11.872c0.986,3.119,2.777,8.378,2.777,8.378S267.795,298.509,270.361,284.334z"></path><path style="fill:none;stroke:#666666;stroke-linecap:round;stroke-linejoin:round;" d="M264.996,282.5c0,0-0.506,9.604-13.5,12.344"></path></g></g></g></g></svg>