<svg xmlns="http://www.w3.org/2000/svg" width="500" height="500" version="1.1"><g id="x170"><g><g><g><path style="fill:#6E6E6E;stroke:#000000;stroke-linecap:round;stroke-linejoin:round;" d="M224.563,287.875c-6.125,4.125-7.75,12.75-7.75,12.75s-4.511,7.246-5,8.5c-2,5.125-1.875,9.875-2.375,10.5c-2,3.375-2.25,6.375-2.25,6.375s-2,1-2.125,1.75s-0.125,3.875-0.125,3.875s13.5,4.75,15,6.375c2.125-0.5,2.75-2.25,2.75-2.25l0.375-4l3.25-4.875l0.125-5c0,0-1.5-12.125-0.25-17s3-9.75,3-9.75S225.938,291.5,224.563,287.875z"></path><path style="fill:#505050;" d="M224.313,325.125c0,0-6.375-5.5-6.25-6c0.136-0.542,8.375,2.125,8.375,2.125L224.313,325.125z"></path><path style="fill:#505050;" d="M208.688,321.875c0,0,1.25-2,1.5-2.375c0.125-1.625,0.5-3.25,0.5-3.25s3.375,3.625,8.625,8.5C218.188,325.75,208.688,321.875,208.688,321.875z"></path><path style="fill:#505050;" d="M208.313,325.375c0,0,11.25,1.25,13.25,2.75c0.625,0.875-4.875,1.25-7.625,0.75S208.938,325.875,208.313,325.375z"></path><path style="fill:#505050;" d="M226.313,300.25c0,0-3.75,5.75-3.625,7.75s3.125,8.25,4.125,9c0.5-4.625,1.75-11.5,1.75-11.5L226.313,300.25z"></path></g><g><path style="fill:#6E6E6E;stroke:#000000;stroke-linecap:round;stroke-linejoin:round;" d="M275.438,287.875c6.125,4.125,7.75,12.75,7.75,12.75s4.511,7.246,5,8.5c2,5.125,1.875,9.875,2.375,10.5c2,3.375,2.25,6.375,2.25,6.375s2,1,2.125,1.75s0.125,3.875,0.125,3.875s-13.5,4.75-15,6.375c-2.125-0.5-2.75-2.25-2.75-2.25l-0.375-4l-3.25-4.875l-0.125-5c0,0,1.5-12.125,0.25-17s-3-9.75-3-9.75S274.063,291.5,275.438,287.875z"></path><path style="fill:#505050;" d="M275.688,325.125c0,0,6.375-5.5,6.25-6c-0.136-0.542-8.375,2.125-8.375,2.125L275.688,325.125z"></path><path style="fill:#505050;" d="M291.313,321.875c0,0-1.25-2-1.5-2.375c-0.125-1.625-0.5-3.25-0.5-3.25s-3.375,3.625-8.625,8.5C281.813,325.75,291.313,321.875,291.313,321.875z"></path><path style="fill:#505050;" d="M291.688,325.375c0,0-11.25,1.25-13.25,2.75c-0.625,0.875,4.875,1.25,7.625,0.75S291.063,325.875,291.688,325.375z"></path><path style="fill:#505050;" d="M273.688,300.25c0,0,3.75,5.75,3.625,7.75s-3.125,8.25-4.125,9c-0.5-4.625-1.75-11.5-1.75-11.5L273.688,300.25z"></path></g></g><g><path style="fill:#6E6E6E;stroke:#000000;stroke-linecap:round;stroke-linejoin:round;" d="M287.25,355.25c0.75-1.5-0.125-6.75-0.625-8.625s-5.5-9.5-5.625-9.875s-1.375-7.625-1.875-9.625s-2.625-6.25-3.375-7.25c0.625-0.875,1.5-2.75,1.875-3.625c0.25-1.125-0.875-6.125-1.375-8.75c0.875-3.375,1.125-9.875-0.625-19.875c-4.875-5-14.375-7.125-14.375-7.125L250,289.875l-11.25-9.375c0,0-9.5,2.125-14.375,7.125c-1.75,10-1.5,16.5-0.625,19.875c-0.5,2.625-1.625,7.625-1.375,8.75c0.375,0.875,1.25,2.75,1.875,3.625c-0.75,1-2.875,5.25-3.375,7.25s-1.75,9.25-1.875,9.625s-5.125,8-5.625,9.875s-1.375,7.125-0.625,8.625c-0.625,2.125-2.625,8.75-2.625,8.75s2.375,6.75,39.875,6.75s39.875-6.75,39.875-6.75S287.875,357.375,287.25,355.25z"></path><g><path style="fill:#FFFFFF;stroke:#000000;stroke-linecap:round;stroke-linejoin:round;" d="M223.375,304.625c0,0,6.5-9.875,9.625-12.375c2.125,0.875,2.75,0.875,2.75,0.875L223.125,311L223.375,304.625z"></path><path style="fill:#FFFFFF;stroke:#000000;stroke-linecap:round;stroke-linejoin:round;" d="M276.625,304.625c0,0-6.5-9.875-9.625-12.375c-2.125,0.875-2.75,0.875-2.75,0.875L276.875,311L276.625,304.625z"></path></g><g><path style="fill:#505050;" d="M224.375,320.25c0,0,2.25,10.375,5.5,12.5c1.5,0,2.375-2,2.375-2S225.75,321.375,224.375,320.25z"></path><path style="fill:none;stroke:#000000;stroke-linecap:round;stroke-linejoin:round;" d="M224.125,319.648c0,0,4.375,4.875,6.75,9.75"></path><path style="fill:#FFFFFF;stroke:#000000;stroke-linecap:round;stroke-linejoin:round;" d="M215.5,341.75c0,0,7.125-3.5,12.25-7.75c0.875,2.25,1.25,4.375,1.25,4.375s-9.75,7.125-15.625,8.25C214,344.5,215.5,341.75,215.5,341.75z"></path><path style="fill:#505050;" d="M275.625,320.25c0,0-2.25,10.375-5.5,12.5c-1.5,0-2.375-2-2.375-2S274.25,321.375,275.625,320.25z"></path><path style="fill:none;stroke:#000000;stroke-linecap:round;stroke-linejoin:round;" d="M275.875,319.648c0,0-4.375,4.875-6.75,9.75"></path><path style="fill:#FFFFFF;stroke:#000000;stroke-linecap:round;stroke-linejoin:round;" d="M284.5,341.75c0,0-7.125-3.5-12.25-7.75c-0.875,2.25-1.25,4.375-1.25,4.375s9.75,7.125,15.625,8.25C286,344.5,284.5,341.75,284.5,341.75z"></path></g></g><g><rect x="248.375" y="294.75" style="fill:#B2B2B2;stroke:#000000;stroke-linecap:round;stroke-linejoin:round;" width="3.25" height="67.375"></rect><g><g><polygon style="fill:#B2B2B2;stroke:#000000;stroke-linecap:round;stroke-linejoin:round;" points="253.75,299.125 246.25,299.125 243.125,317.375 256.875,317.375 "></polygon><polygon style="fill:#666666;stroke:#000000;stroke-linecap:round;stroke-linejoin:round;" points="256.875,317.375 243.125,317.375 244.152,320.125 255.848,320.125 "></polygon></g><circle style="fill:#3F3F3F;stroke:#000000;stroke-linecap:round;stroke-linejoin:round;" cx="250" cy="308.125" r="2.875"></circle></g></g><path style="fill:none;stroke:#000000;stroke-linecap:round;stroke-linejoin:round;" d="M222.563,360.002c0,0,7.563,2.375,27.688,2.375s27.188-2.375,27.188-2.375"></path></g></g></svg>