<svg xmlns="http://www.w3.org/2000/svg" width="500" height="500" version="1.1"><g id="x171"><g><g><g><path style="fill:#6E6E6E;stroke:#000000;stroke-linecap:round;stroke-linejoin:round;" d="M225.569,288.398c0,0-5.5,4.352-9.25,13.102s-10.5,26.25-10.5,26.25s-2.25,2.25-3.25,4.25s-5.5,13.25-7.5,16s-1.25,8.75-1.25,8.75s13,4,14.25,6.5c3.5-0.25,5.75-2.75,6.25-5s0.75-8.25,0.75-8.25l12.25-26.75C227.319,323.25,230.569,295.748,225.569,288.398z"></path><path style="fill:#505050;" d="M215.819,347c0,0-1.75,3.25-1.5,6c-1,0.5-9.75-2-9-3.25S215.819,347,215.819,347z"></path><path style="fill:#505050;" d="M221.569,332c0,0-4.5-6.75-5.75-6.5s1.5,10.75,3.75,11.25S221.569,332,221.569,332z"></path><path style="fill:#505050;" d="M222.819,328.75c0,0-4-8.75-3.75-13s7.25-19,8-17.75s0.75,11,0.75,11S225.569,327,222.819,328.75z"></path><path style="fill:none;stroke:#000000;stroke-linecap:round;stroke-linejoin:round;" d="M220.069,322.5c0,1,2.25,5.25,2,7.5"></path></g><g><path style="fill:#6E6E6E;stroke:#000000;stroke-linecap:round;stroke-linejoin:round;" d="M274.433,288.398c0,0,5.5,4.352,9.25,13.102s10.5,26.25,10.5,26.25s2.25,2.25,3.25,4.25s5.5,13.25,7.5,16s1.25,8.75,1.25,8.75s-13,4-14.25,6.5c-3.5-0.25-5.75-2.75-6.25-5s-0.75-8.25-0.75-8.25l-12.25-26.75C272.683,323.25,269.433,295.748,274.433,288.398z"></path><path style="fill:#505050;" d="M284.183,347c0,0,1.75,3.25,1.5,6c1,0.5,9.75-2,9-3.25S284.183,347,284.183,347z"></path><path style="fill:#505050;" d="M278.433,332c0,0,4.5-6.75,5.75-6.5s-1.5,10.75-3.75,11.25S278.433,332,278.433,332z"></path><path style="fill:#505050;" d="M277.183,328.75c0,0,4-8.75,3.75-13s-7.25-19-8-17.75s-0.75,11-0.75,11S274.433,327,277.183,328.75z"></path><path style="fill:none;stroke:#000000;stroke-linecap:round;stroke-linejoin:round;" d="M279.933,322.5c0,1-2.25,5.25-2,7.5"></path></g></g><g><g><path style="fill:#6E6E6E;stroke:#000000;stroke-linecap:round;stroke-linejoin:round;" d="M223.261,288.229c0,0,0.547,8.35,1.094,15.521c-1.094,5.635-4.104,16.393-3.83,23.309c-1.642,4.354-6.841,16.136-7.114,18.953c-0.274,2.817,1.094,5.123,1.094,5.123s-1.094,7.428-0.821,8.965c4.104,4.098,8.756,5.379,31.466,6.659c1.916-9.221,2.736-16.648,4.651-26.126c0-22.737,0-42.005,0-42.005l-19.153-16.137C230.649,282.491,224.082,285.309,223.261,288.229z"></path><path style="fill:#505050;" d="M224.629,293.249c0,0,2.463,6.915,7.662,8.196c5.198,1.28,15.322,2.305,15.322,2.305l0.547-6.147L224.629,293.249z"></path><polyline style="fill:none;stroke:#000000;stroke-linecap:round;stroke-linejoin:round;" points="241.867,363.429 246.245,341.146 247.34,300.164 239.678,293.505 "></polyline><path style="fill:#6E6E6E;stroke:#000000;stroke-linecap:round;stroke-linejoin:round;" d="M216.421,338.328c0,0,0.274-2.562,1.368-3.586c2.737-1.024,16.964-3.073,16.964-3.073l-0.547,3.073L216.421,338.328z"></path><path style="fill:none;stroke:#000000;stroke-linecap:round;stroke-linejoin:round;" d="M214.779,350.366c0,0,5.746,3.33,15.87,5.379"></path></g><g><path style="fill:#6E6E6E;stroke:#000000;stroke-linecap:round;stroke-linejoin:round;" d="M276.741,288.229c0,0-0.548,8.35-1.095,15.521c1.095,5.635,4.104,16.393,3.83,23.309c1.642,4.354,6.84,16.136,7.114,18.953c0.273,2.817-1.095,5.123-1.095,5.123s1.095,7.428,0.82,8.965c-4.104,4.098-8.755,5.379-31.465,6.659c-1.916-9.221-2.736-16.648-4.654-26.126c0-22.737,0-42.005,0-42.005l19.156-16.137C269.354,282.491,275.92,285.309,276.741,288.229z"></path><path style="fill:#505050;" d="M275.372,293.249c0,0-2.462,6.915-7.661,8.196c-5.198,1.28-15.322,2.305-15.322,2.305l-0.548-6.147L275.372,293.249z"></path><polyline style="fill:none;stroke:#000000;stroke-linecap:round;stroke-linejoin:round;" points="258.134,363.429 253.757,341.146 252.662,300.164 260.323,293.505 "></polyline><path style="fill:#6E6E6E;stroke:#000000;stroke-linecap:round;stroke-linejoin:round;" d="M283.581,338.328c0,0-0.273-2.562-1.368-3.586c-2.736-1.024-16.964-3.073-16.964-3.073l0.547,3.073L283.581,338.328z"></path><path style="fill:none;stroke:#000000;stroke-linecap:round;stroke-linejoin:round;" d="M285.223,350.366c0,0-5.746,3.33-15.869,5.379"></path></g></g></g></g></svg>