<svg xmlns="http://www.w3.org/2000/svg" width="500" height="500" version="1.1"><g id="x172"><g><g><g><path style="fill:#6E6E6E;stroke:#000000;stroke-linecap:round;stroke-linejoin:round;" d="M199,348c0,0-2.75,5-2.75,6c5,3,12.5,5.25,12.5,5.25l2.5-5.75L199,348z"></path><g><path style="fill:#6E6E6E;stroke:#000000;stroke-linecap:round;stroke-linejoin:round;" d="M217,299c0,0-1.5,2-2.75,4.5S207,322,206.5,323.75s-0.5,4-1,4.75s-2.75,4.25-3.75,6.75s-2.052,5.726-2.5,6.75c-1.75,4-0.5,7.25-0.5,7.25s11.25,4.75,11.5,6c1.75-1.5,3-1.75,3.25-2.75s13.5-27.75,13.5-27.75v-20.5L217,299z"></path><path style="fill:#505050;" d="M225.5,308.75c0,0-3.25,4-4.5,6.5s-2.5,11.25-3.25,12.25s-7.5-0.25-8.25,1s9.25,8,9.25,9.5c3.25-3.75,7.25-12.5,7.25-12.5L225.5,308.75z"></path><path style="fill:#505050;" d="M218.25,339c0,0-2.75-2.25-3.5-3c-2.75,0.5-6.25-0.5-6.75,0.75s9.5,7,9.5,7L218.25,339z"></path></g></g><g><path style="fill:#6E6E6E;stroke:#000000;stroke-linecap:round;stroke-linejoin:round;" d="M301,348c0,0,2.75,5,2.75,6c-5,3-12.5,5.25-12.5,5.25l-2.5-5.75L301,348z"></path><g><path style="fill:#FFFFFF;stroke:#000000;stroke-linecap:round;stroke-linejoin:round;" d="M283,299c0,0,1.5,2,2.75,4.5s7.25,18.5,7.75,20.25s0.5,4,1,4.75s2.75,4.25,3.75,6.75s2.052,5.726,2.5,6.75c1.75,4,0.5,7.25,0.5,7.25s-11.25,4.75-11.5,6c-1.75-1.5-3-1.75-3.25-2.75S273,324.75,273,324.75v-20.5L283,299z"></path><path style="fill:#E4E0F3;" d="M274.5,308.75c0,0,3.25,4,4.5,6.5s2.5,11.25,3.25,12.25s7.5-0.25,8.25,1s-9.25,8-9.25,9.5c-3.25-3.75-7.25-12.5-7.25-12.5L274.5,308.75z"></path><path style="fill:#E4E0F3;" d="M281.75,339c0,0,2.75-2.25,3.5-3c2.75,0.5,6.25-0.5,6.75,0.75s-9.5,7-9.5,7L281.75,339z"></path></g></g></g><path style="fill:#6E6E6E;stroke:#000000;stroke-linecap:round;stroke-linejoin:round;" d="M286.176,355.5L250,358.25l-36.176-2.75c0,0-1.292,9,0,10.5c8.786,3.5,36.176,4,36.176,4s27.391-0.5,36.176-4C287.468,364.5,286.176,355.5,286.176,355.5z"></path><g id="topsXMLID_1_"><g><path style="fill:#6E6E6E;" d="M273,285.25c-2.33-2-12.15,0-12.92,0L250,287l-10.08-1.75c-0.77,0-10.59-2-12.92,0c-2.32,2-10.33,12.75-10.33,13.75c1.29,1.25,6.27,6.5,6.27,8s-0.26,16.25-0.52,18.5c-0.081,0.697-0.837,2.979-1.866,5.908c17.005-16.42,37.191-28.835,58.83-38.439C277.01,289.77,274.22,286.301,273,285.25z"></path><path style="fill:#FFFFFF;" d="M214.08,350.25c-0.77,3.75-0.51,7-0.51,7s7.129,2.146,22.138,3.077c-6.047-8.305-11.839-16.738-16.135-26.158C217.343,340.403,214.546,348.008,214.08,350.25z"></path><path style="fill:#FFFFFF;" d="M283.33,299c0-0.475-1.804-3.144-3.946-6.031c-2.075,0.921-4.132,1.876-6.178,2.851c1.805,2.79,3.694,5.494,5.632,8.151C280.402,301.996,282.546,299.76,283.33,299z"></path><path style="fill:#6E6E6E;" d="M277.06,307c0-0.588,0.77-1.755,1.778-3.029c-1.938-2.657-3.827-5.361-5.632-8.151C265,298,261.75,299.75,257.769,303.87c6.941,10.093,14.782,19.765,22.427,29.651c-1.394-3.907-2.517-7.164-2.615-8.021C277.32,323.25,277.06,308.5,277.06,307z"></path><path style="fill:#FFFFFF;" d="M280.195,333.521c-7.645-9.887-15.485-19.559-22.427-29.651c-7.43,4.243-14.595,8.904-21.403,14.054c10.23,14.068,19.784,28.476,30.679,42.212c13.124-1.004,19.386-2.886,19.386-2.886s0.261-3.25-0.51-7C285.438,347.93,282.458,339.866,280.195,333.521z"></path><path style="fill:#6E6E6E;" d="M220.554,331.408c-0.306,0.871-0.637,1.801-0.98,2.761c4.296,9.42,10.087,17.854,16.135,26.158c4.155,0.258,8.913,0.423,14.292,0.423c6.611,0,12.276-0.25,17.044-0.614c-10.895-13.736-20.449-28.144-30.679-42.212C228.25,321.5,225.561,326.573,220.554,331.408z"></path></g><g><path style="fill:none;stroke:#000000;stroke-linecap:round;stroke-linejoin:round;" d="M285.92,350.25c-0.78-3.75-8.08-22.5-8.34-24.75s-0.521-17-0.521-18.5s4.98-6.75,6.271-8c0-1-8.01-11.75-10.33-13.75c-2.33-2-12.15,0-12.92,0L250,287l-10.08-1.75c-0.77,0-10.59-2-12.92,0c-2.32,2-10.33,12.75-10.33,13.75c1.29,1.25,6.27,6.5,6.27,8s-0.26,16.25-0.52,18.5c-0.26,2.25-7.56,21-8.34,24.75c-0.77,3.75-0.51,7-0.51,7s11.62,3.5,36.43,3.5c24.81,0,36.43-3.5,36.43-3.5S286.69,354,285.92,350.25z"></path></g></g><g><polygon style="fill:#6E6E6E;stroke:#000000;stroke-linecap:round;stroke-linejoin:round;" points="217.167,341.333 219,336.833 231.334,332.667 231.334,336.667 "></polygon><polygon style="fill:#6E6E6E;stroke:#000000;stroke-linecap:round;stroke-linejoin:round;" points="282.833,341.333 281,336.833 268.666,332.667 268.666,336.667 "></polygon></g></g></g></svg>