<svg xmlns="http://www.w3.org/2000/svg" width="500" height="500" version="1.1"><g id="x173"><g><path style="fill:#6E6E6E;stroke:#000000;stroke-linecap:round;stroke-linejoin:round;" d="M268.75,297.75c0,0-1.75-13.25-2-14.5c1.75-0.5,5.25,2.25,5.25,2.25s4.75,12,4.75,14.25C272.75,300,268.75,297.75,268.75,297.75z"></path><path style="fill:#6E6E6E;stroke:#000000;stroke-linecap:round;stroke-linejoin:round;" d="M304,343c0,0-7.75-12.75-9.5-15.75s-8.75-22-8.75-22L285,302c0,0-1.5-1.25-3.75-3.25c-40-4.25-48.167-15.25-48.167-15.25l1.75-1.5l-6,0.167c0,0-2.417,3.5-2.75,4c-8.5,7-19.099,38.537-20.583,41.083c-1.75,3-9.5,15.75-9.5,15.75l2.5,1.5c0,0-1.5,3.5-0.75,4.5s8,6,16,3.5c2.5-4.5,10.5-25,10.5-24.25S220.75,339.5,220,341s-2.75,5-2.75,6s0.25,3.75,0.25,3.75s10.177,1.24,32.5,1.25c22.323-0.01,32.5-1.25,32.5-1.25s0.25-2.75,0.25-3.75s-2-4.5-2.75-6s-4.25-12-4.25-12.75s8,19.75,10.5,24.25c8,2.5,15.25-2.5,16-3.5s-0.75-4.5-0.75-4.5L304,343z"></path><g><path style="fill:none;stroke:#000000;stroke-linecap:round;stroke-linejoin:round;" d="M276.45,329.75c0,0-1-1.25-2.25-8"></path><path style="fill:none;stroke:#000000;stroke-linecap:round;stroke-linejoin:round;" d="M223.55,329.75c0,0,1-1.25,2.25-8"></path></g><polygon style="fill:#505050;" points="301,344.75 294.5,327.25 303.25,343 "></polygon><polygon style="fill:#505050;" points="199.3,344.75 205.8,327.25 197.05,343 "></polygon><path style="fill:#505050;" d="M222.25,303c0,0-0.75,15.25,1.5,18.25c1-2.25,1.75-8.5,1.75-8.5L222.25,303z"></path><path style="fill:#505050;" d="M277.881,303c0,0,0.75,15.25-1.5,18.25c-1-2.25-1.75-8.5-1.75-8.5L277.881,303z"></path><g><path style="fill:none;stroke:#000000;stroke-linecap:round;stroke-linejoin:round;" d="M277.705,333c0,0,1.75-5,1.25-6.5s-3.25-5-4-9.75s-1.25-15.75-1.25-15.75"></path><path style="fill:none;stroke:#000000;stroke-linecap:round;stroke-linejoin:round;" d="M222.295,333c0,0-1.75-5-1.25-6.5s3.25-5,4-9.75s1.25-15.75,1.25-15.75"></path></g><g><path style="fill:none;stroke:#000000;stroke-linecap:round;stroke-linejoin:round;" d="M221.35,297.75c0.25,1,0.75,8.75,4,15.25"></path><path style="fill:none;stroke:#000000;stroke-linecap:round;stroke-linejoin:round;" d="M278.15,301.192c-0.488,3.087-1.444,7.697-3.499,11.808"></path></g></g></g></svg>