<svg xmlns="http://www.w3.org/2000/svg" width="500" height="500" version="1.1"><g id="x174"><g><g><path style="fill:#6E6E6E;stroke:#000000;stroke-linecap:round;stroke-linejoin:round;" d="M227,286.75c0,0-5,3-11,11.75c-2.75,6.75-7.75,24.25-10.25,29.25S195.75,343,195,344.5s-0.25,7.75-0.25,7.75s-2.75,3.75-2.75,5s8,7,16,5.25c2-4.75,2-6.25,2-6.25s6.25-2.5,7-4.25s0-7.75,2-12.25s8.25-19.5,8.25-19.5S232.5,296.25,227,286.75z"></path><path style="fill:#505050;" d="M226,299.5c0,0-3,3.5-3.75,6.75S226,320,226,320S225.5,299,226,299.5z"></path><path style="fill:#505050;" d="M195.75,355c0,0,8.75,4.75,12.25,3.75c3-2.25,6.25-3.75,6.25-3.75s-17.75-6.25-18.5-8.25C195,348.75,194.25,353.75,195.75,355z"></path><g><line style="fill:none;stroke:#000000;stroke-linecap:round;stroke-linejoin:round;" x1="194.75" y1="359" x2="196.5" y2="355.75"></line><line style="fill:none;stroke:#000000;stroke-linecap:round;stroke-linejoin:round;" x1="199" y1="361" x2="200.75" y2="357.75"></line><line style="fill:none;stroke:#000000;stroke-linecap:round;stroke-linejoin:round;" x1="203.25" y1="363" x2="205" y2="359.75"></line></g><path style="fill:none;stroke:#000000;stroke-linecap:round;stroke-linejoin:round;" d="M195.25,350.75c0,0,0.75,3.25,8.25,5.75"></path><path style="fill:none;stroke:#000000;stroke-linecap:round;stroke-linejoin:round;" d="M221.25,302c0,0,0.5,8,4.5,14.25"></path></g><path style="fill:#6E6E6E;stroke:#000000;stroke-linecap:round;stroke-linejoin:round;" d="M228.258,285.614c1.386-0.912,3.992,16.386,45.242,19.636c3.75,7,1.25,17.5,1.25,17.5s2,3,3,3.5c0.75,2.5-0.75,6.5-0.75,6.5s6.25,9.75,6,12s-1.5,3-1.5,3s-27.25,1.75-38.75-1.75c-7.25,0.75-21.5,1.75-23.75,1.5s-2-2.75-2-2.75l3-4c0,0,4.25-13,5.25-16c0.5-3.75,0.5-8.5,0.5-8.5s-1-6.5,0-11.25s-2.25-15.398-2.25-15.398S225.168,287.646,228.258,285.614z"></path><path style="fill:none;stroke:#000000;stroke-linecap:round;stroke-linejoin:round;" d="M272.5,326.75c0,0,2.5,3.5,4.5,6"></path><path style="fill:none;stroke:#000000;stroke-linecap:round;stroke-linejoin:round;" d="M268.5,313.25c0,0,4,7.5,7,10.5"></path><path style="fill:#505050;" d="M242,346l-14.25-6c0,0,2,5.25-0.25,6.5C231.75,346.5,242,346,242,346z"></path><path style="fill:none;stroke:#000000;stroke-linecap:round;stroke-linejoin:round;" d="M232.5,341.5c0,0,9.5,4.25,14.5,5.5"></path></g></g></svg>