<svg xmlns="http://www.w3.org/2000/svg" width="500" height="500" version="1.1"><g id="x176"><g><g><path style="fill:#FFFFFF;stroke:#000000;stroke-linecap:round;stroke-linejoin:round;" d="M250,295.834c-16.833,3-24.1,9.333-24.1,9.333l24.1,2.667l24.1-2.667C274.1,305.167,266.834,298.834,250,295.834z"></path><path style="fill:#E4E0F3;" d="M235.5,305c0,0,11.125-6.25,12.875-6.5c-0.125,1.625-4,7-4,7L235.5,305z"></path><path style="fill:#E4E0F3;" d="M252,298.625c0,0,0.625,6.625,1.25,6.625s6.25-0.125,6.25-0.125S254.5,300.375,252,298.625z"></path><path style="fill:#6E6E6E;stroke:#000000;stroke-linecap:round;stroke-linejoin:round;" d="M233.833,305c0,0,9.5-5,15.333-7"></path><path style="fill:#6E6E6E;stroke:#000000;stroke-linecap:round;stroke-linejoin:round;" d="M251.667,298.5c0,0,6.332,3.166,8.666,7"></path></g><g><path style="fill:#6E6E6E;stroke:#000000;stroke-linecap:round;stroke-linejoin:round;" d="M249.916,295.834c0,0-9.5-4.334-12.833-14.834c1.167-1.166,3.333-0.666,3.333-0.666S240.75,285.5,249.916,295.834z"></path><path style="fill:#6E6E6E;stroke:#000000;stroke-linecap:round;stroke-linejoin:round;" d="M250.083,295.834c0,0,9.5-4.334,12.834-14.834c-1.167-1.166-3.334-0.666-3.334-0.666S259.25,285.5,250.083,295.834z"></path></g><g><g><path style="fill:#6E6E6E;stroke:#000000;stroke-linecap:round;stroke-linejoin:round;" d="M275.331,326.833c0,0-0.173-10.333-0.173-13.333s-0.54-6.999-1.224-8.333c0,0-5.621-1.169-23.935-1.169c-18.312,0-23.933,1.169-23.933,1.169c-0.684,1.334-1.225,5.333-1.225,8.333s-0.17,13.333-0.17,13.333L218.167,344c0,0,3.766,18.333,6.846,26.167C227.41,368.501,250,342.333,250,342.333s22.591,26.168,24.988,27.834c3.08-7.834,6.845-26.167,6.845-26.167L275.331,326.833z"></path><g><path style="fill:#505050;" d="M222.485,333.875l2.688-7v-7.563c0,0,2.563,6.438,2.438,7.375S222.485,333.875,222.485,333.875z"></path><path style="fill:#505050;" d="M277.513,333.875l-2.688-7v-7.563c0,0-2.563,6.438-2.438,7.375S277.513,333.875,277.513,333.875z"></path></g><line style="fill:none;stroke:#000000;stroke-linecap:round;stroke-linejoin:round;" x1="250" y1="338.834" x2="250" y2="303.998"></line><g><path style="fill:none;stroke:#000000;stroke-linecap:round;stroke-linejoin:round;" d="M219.666,341.167c0,0.5,4.834,21.667,6,22.667c5.167-6.167,21.833-24,21.833-24"></path><path style="fill:none;stroke:#000000;stroke-linecap:round;stroke-linejoin:round;" d="M280.334,341.167c0,0.5-4.833,21.667-6,22.667c-5.167-6.167-21.833-24-21.833-24"></path></g></g><g><g><circle style="fill:#FDD01C;stroke:#000000;stroke-linecap:round;stroke-linejoin:round;" cx="246.083" cy="312.751" r="2.583"></circle><circle style="fill:#FDD01C;stroke:#000000;stroke-linecap:round;stroke-linejoin:round;" cx="246.083" cy="323.584" r="2.583"></circle><circle style="fill:#FDD01C;stroke:#000000;stroke-linecap:round;stroke-linejoin:round;" cx="246.083" cy="334.417" r="2.583"></circle></g><g><circle style="fill:#FDD01C;stroke:#000000;stroke-linecap:round;stroke-linejoin:round;" cx="253.917" cy="312.751" r="2.583"></circle><circle style="fill:#FDD01C;stroke:#000000;stroke-linecap:round;stroke-linejoin:round;" cx="253.917" cy="323.584" r="2.583"></circle><circle style="fill:#FDD01C;stroke:#000000;stroke-linecap:round;stroke-linejoin:round;" cx="253.917" cy="334.417" r="2.583"></circle></g></g></g></g></g></svg>