<svg xmlns="http://www.w3.org/2000/svg" width="500" height="500" version="1.1"><g id="x177"><g><g><g><path style="fill:#505050;stroke:#000000;stroke-linecap:round;stroke-linejoin:round;" d="M243.375,324c0.625-0.875,13.125-9.875,13.125-9.875l0.5,2.375l-14,10.875L243.375,324z"></path><path style="fill:#505050;stroke:#000000;stroke-linecap:round;stroke-linejoin:round;" d="M256.625,324c-0.625-0.875-13.125-9.875-13.125-9.875L243,316.5l14,10.875L256.625,324z"></path></g><g><path style="fill:#505050;stroke:#000000;stroke-linecap:round;stroke-linejoin:round;" d="M243.375,337.5c0.625-0.875,13.125-9.875,13.125-9.875L257,330l-14,10.875L243.375,337.5z"></path><path style="fill:#505050;stroke:#000000;stroke-linecap:round;stroke-linejoin:round;" d="M256.625,337.5c-0.625-0.875-13.125-9.875-13.125-9.875L243,330l14,10.875L256.625,337.5z"></path></g><g><path style="fill:#505050;stroke:#000000;stroke-linecap:round;stroke-linejoin:round;" d="M243.375,351c0.625-0.875,13.125-9.875,13.125-9.875l0.5,2.375l-14,10.875L243.375,351z"></path><path style="fill:#505050;stroke:#000000;stroke-linecap:round;stroke-linejoin:round;" d="M256.625,351c-0.625-0.875-13.125-9.875-13.125-9.875L243,343.5l14,10.875L256.625,351z"></path></g></g><g><path style="fill:#6E6E6E;stroke:#000000;stroke-linecap:round;stroke-linejoin:round;" d="M226.313,306.75c0,0,2.875-4.75,8.875-7.625c5.375,2.125,9.25,10,9.25,10s0.25,35.375,0.625,36.875s4.875,8,4.875,8v1.875c0,0-30.5,48.625-32.5,48.625c-1.125-9.375,2-35.75,2.125-36.25c-4.5,3.875-13.25,17.25-13.25,16.625c0-3.875,6.25-28.375,14.375-43.75c1.5-5,3.875-13.625,3.875-13.625S225.813,310.5,226.313,306.75z"></path><g><path style="fill:#505050;stroke:#000000;stroke-linecap:round;stroke-linejoin:round;" d="M205.903,385.667c3.333-4.5,10.167-12.834,13-15.667c-0.833,7.667-3.083,28.167-1.375,34.5c3.208-2.333,32.542-46.667,32.542-46.667l-0.167-3.664L219.403,399c0,0,2.667-34.166,2.5-34.833c-1.333-0.5-12.5,13.166-12.5,13.166s0.5-5.499,1-8.666C208.57,371.5,205.737,381.501,205.903,385.667z"></path></g><path style="fill:#505050;" d="M223.369,333.25l-2.375,8.375l-3.625,7.5c0,0,6.125-4.75,6.75-6.5S223.369,333.25,223.369,333.25z"></path><path style="fill:#6E6E6E;stroke:#000000;stroke-linecap:round;stroke-linejoin:round;" d="M273.688,306.75c0,0-2.875-4.75-8.875-7.625c-5.375,2.125-9.25,10-9.25,10s-0.25,35.375-0.625,36.875s-4.875,8-4.875,8v1.875c0,0,30.5,48.625,32.5,48.625c1.125-9.375-2-35.75-2.125-36.25c4.5,3.875,13.25,17.25,13.25,16.625c0-3.875-6.25-28.375-14.375-43.75c-1.5-5-3.875-13.625-3.875-13.625S274.188,310.5,273.688,306.75z"></path><path style="fill:#505050;" d="M276.633,333.25l2.375,8.375l3.625,7.5c0,0-6.125-4.75-6.75-6.5S276.633,333.25,276.633,333.25z"></path></g><path style="fill:#505050;stroke:#000000;stroke-linecap:round;stroke-linejoin:round;" d="M294.098,385.667c-3.333-4.5-10.167-12.834-13-15.667c0.833,7.667,3.083,28.167,1.375,34.5c-3.208-2.333-32.543-46.667-32.543-46.667l0.167-3.664L280.598,399c0,0-2.667-34.166-2.5-34.833c1.333-0.5,12.5,13.166,12.5,13.166s-0.5-5.499-1-8.666C291.431,371.5,294.265,381.501,294.098,385.667z"></path><g><path style="fill:#505050;stroke:#000000;stroke-linecap:round;stroke-linejoin:round;" d="M226.22,306.252c0,0,3.25-5,8.875-7.625c2.958,1.375,8.875,7.958,9.25,10c0.041,9.375,0.208,37.375,0.208,37.375l5.763,7.669v2.998l-8.263-8.834l0.167-38.5c0,0-4.834-7.166-7.334-8.166c-5.666,2.666-9,8.666-9,8.666L226.22,306.252z"></path><path style="fill:#505050;stroke:#000000;stroke-linecap:round;stroke-linejoin:round;" d="M273.78,306.252c0,0-3.25-5-8.875-7.625c-2.959,1.375-8.875,7.958-9.25,10c-0.041,9.375-0.209,37.375-0.209,37.375l-5.761,7.669v2.998l8.261-8.834l-0.166-38.5c0,0,4.834-7.166,7.334-8.166c5.666,2.666,9,8.666,9,8.666L273.78,306.252z"></path></g></g></g></svg>