<svg xmlns="http://www.w3.org/2000/svg" width="500" height="500" version="1.1"><g id="x178"><path style="fill:#6E6E6E;stroke:#000000;stroke-linecap:round;stroke-linejoin:round;" d="M273.25,306c0,0-1.5-6-5.25-8.25s-8-2.5-8-2.5s5.25,2.25,4.75,4.25c-0.356,1.426-1.164,3.761-9.032,4.366c1.019-0.87,1.992-2.239,1.456-4.116c-1.971,1.806-4.673,3.383-6.31,4.26c-0.284-0.002-0.568-0.004-0.864-0.01c-0.296,0.006-0.58,0.008-0.864,0.01c-1.637-0.877-4.339-2.454-6.31-4.26c-0.536,1.877,0.438,3.246,1.456,4.116c-7.869-0.605-8.676-2.94-9.032-4.366c-0.5-2,4.75-4.25,4.75-4.25s-4.25,0.25-8,2.5s-5.25,8.25-5.25,8.25s9.25-2-1.5,10.5c5.25-4.5,7.5-6.75,13.75-7.5c3.979-0.478,18.021-0.478,22,0c6.25,0.75,8.5,3,13.75,7.5C264,304,273.25,306,273.25,306z"></path></g></svg>