<svg xmlns="http://www.w3.org/2000/svg" width="500" height="500" version="1.1"><g id="x179"><g><g><path style="fill:#6E6E6E;stroke:#000000;stroke-linecap:round;stroke-linejoin:round;" d="M275.5,327.75c0,0,0-14.5-1-19.5c-0.133-0.663-0.279-1.334-0.432-2h-48.137c-0.153,0.666-0.299,1.337-0.432,2c-1,5-1,19.5-1,19.5s-6,14-6,18.25c5,5.5,13.75,14.25,13.75,14.25l17-13l18.5,13c0,0,8.75-8.75,13.75-14.25C281.5,341.75,275.5,327.75,275.5,327.75z"></path><rect x="225.625" y="310.75" style="fill:#505050;" width="48.75" height="4.5"></rect><g><path style="fill:#505050;" d="M225.031,323.5l-0.017,4.333c0,0-1.816,3.749-1.9,4.333c2.333-1.083,3.583-2.916,4-4.166S225.031,323.5,225.031,323.5z"></path><path style="fill:#505050;" d="M274.969,323.5l0.018,4.333c0,0,1.816,3.749,1.899,4.333c-2.333-1.083-3.583-2.916-4-4.166S274.969,323.5,274.969,323.5z"></path></g></g><g><g><path style="fill:#FFFFFF;stroke:#000000;stroke-linecap:round;stroke-linejoin:round;" d="M274.666,302L250,301.5l-24.667,0.5c0,0-2,7.5-1.833,9.5c0.5,0.667,1,1.834,1,1.834L225,312c0,0,21.5,0,25,0c3.5,0,25,0,25,0l0.5,1.334c0,0,0.5-1.167,1-1.834C276.666,309.5,274.666,302,274.666,302z"></path><path style="fill:#E4E0F3;" d="M228.375,302.88l-0.75,8.363c-1.167-0.306-2.75,0.076-2.75,0.076l-0.417,0.765l-0.583-0.993c0,0,1.25-7.416,1.75-8.258C226.958,302.833,228.375,302.88,228.375,302.88z"></path><path style="fill:#E4E0F3;" d="M271.624,302.88l0.75,8.363c1.168-0.306,2.75,0.076,2.75,0.076l0.418,0.765l0.582-0.993c0,0-1.25-7.416-1.75-8.258C273.042,302.833,271.624,302.88,271.624,302.88z"></path><g><circle cx="230.458" cy="306.936" r="1"></circle><circle cx="238.625" cy="306.936" r="1"></circle><circle cx="246.792" cy="306.936" r="1"></circle><circle cx="254.958" cy="306.936" r="1"></circle><circle cx="263.124" cy="306.936" r="1"></circle><circle cx="271.29" cy="306.936" r="1"></circle></g></g><g><g><path style="fill:#FFFFFF;stroke:#000000;stroke-linecap:round;stroke-linejoin:round;" d="M239.958,312.375h22.125c0,0,2.375-4.125,1.875-6.5s-3.25-4.5-3.25-4.5h-20.5L239.958,312.375z"></path><rect x="250.958" y="302.083" style="fill:#E4E0F3;" width="2.333" height="9.584"></rect><rect x="240.125" y="302.083" style="fill:#E4E0F3;" width="2.334" height="9.584"></rect><circle cx="257.499" cy="306.936" r="1"></circle></g><g><path style="fill:#FACC17;stroke:#000000;stroke-linecap:round;stroke-linejoin:round;" d="M240.77,310.704v-7.846c0,0,4.688,0.188,5.021-0.125c0.333-0.312,0.375-2.042,0.042-2.542c-0.75-0.313-4.844-0.332-6.906,0.168c-0.646,0.563-0.646,12.28,0,12.844c2.063,0.5,6.156,0.48,6.906,0.168c0.333-0.5,0.292-2.23-0.042-2.542C245.458,310.516,240.77,310.704,240.77,310.704z"></path><path style="fill:#FACC17;stroke:#000000;stroke-linecap:round;stroke-linejoin:round;" d="M252.484,310.704v-7.846c0,0-0.411,0.003-0.722-0.324s0.014-2.495,0.058-2.343s0.445-0.332,2.508,0.168c0.646,0.563,0.646,12.28,0,12.844c-2.063,0.5-2.464,0.215-2.607-0.031s-0.017-2.232,0.142-2.343S252.484,310.704,252.484,310.704z"></path><path style="fill:#FACC17;stroke:#000000;stroke-linecap:round;stroke-linejoin:round;" d="M244.021,307c0,0.621-0.504,1.125-1.125,1.125h-2.031c-0.621,0-1.125-0.504-1.125-1.125l0,0c0-0.621,0.504-1.125,1.125-1.125h2.031C243.517,305.875,244.021,306.379,244.021,307L244.021,307z"></path></g></g></g></g></g></svg>