<svg xmlns="http://www.w3.org/2000/svg" width="500" height="500" version="1.1"><g id="x018"><g><g><g><path style="fill:#FEFEFE;stroke:#000000;stroke-linecap:round;stroke-linejoin:round;" d="M238.75,281.084c0,0-1.221,14-1.333,15.667c-1.352,0.25-2.833-0.834-2.833-0.834s1.408-12.082,2.365-13.916C237.68,281.334,238.75,281.084,238.75,281.084z"></path><path style="fill:#6E6E6E;stroke:#000000;stroke-linecap:round;stroke-linejoin:round;" d="M227.5,300.251c-1.333,1.667-2.417,5.583-2.083,8.75c-1.285,6.852-0.709,10.249-1.209,13.749l-1.875,12.251c0,0,6.583,2.5,27.667,2.5c0-22.25,0-29.333,0-29.333s-5.065-7.085-13.741-12.501C234.667,295.418,228.583,299.085,227.5,300.251z"></path><path style="fill:none;stroke:#000000;stroke-linecap:round;stroke-linejoin:round;" d="M225.583,308.418c0,0,4.75,5.832,8.667,7.416c6.833-1.083,14.667-5.916,14.667-5.916"></path><path style="fill:none;stroke:#000000;stroke-linecap:round;stroke-linejoin:round;" d="M234.083,316.084c0,0-0.333,9.083-0.75,11.5c-0.167,2.334-1.333,6.167-1.333,6.167"></path></g><g><path style="fill:#FEFEFE;stroke:#000000;stroke-linecap:round;stroke-linejoin:round;" d="M261.25,281.084c0,0,1.222,14,1.333,15.667c1.352,0.25,2.834-0.834,2.834-0.834s-1.408-12.082-2.365-13.916C262.319,281.334,261.25,281.084,261.25,281.084z"></path><path style="fill:#6E6E6E;stroke:#000000;stroke-linecap:round;stroke-linejoin:round;" d="M272.501,300.251c1.332,1.667,2.416,5.583,2.082,8.75c1.285,6.852,0.709,10.249,1.209,13.749l1.875,12.251c0,0-6.583,2.5-27.668,2.5c0-22.25,0-29.333,0-29.333s5.066-7.085,13.742-12.501C265.333,295.418,271.417,299.085,272.501,300.251z"></path><path style="fill:none;stroke:#000000;stroke-linecap:round;stroke-linejoin:round;" d="M274.417,308.418c0,0-4.75,5.832-8.666,7.416c-6.834-1.083-14.668-5.916-14.668-5.916"></path><path style="fill:none;stroke:#000000;stroke-linecap:round;stroke-linejoin:round;" d="M265.917,316.084c0,0,0.334,9.083,0.75,11.5c0.166,2.334,1.334,6.167,1.334,6.167"></path></g></g><g><g><circle style="fill:#FFFFFF;stroke:#000000;stroke-linecap:round;stroke-linejoin:round;" cx="247.063" cy="320.063" r="1.938"></circle><circle style="fill:#FFFFFF;stroke:#000000;stroke-linecap:round;stroke-linejoin:round;" cx="247.063" cy="326.375" r="1.938"></circle><circle style="fill:#FFFFFF;stroke:#000000;stroke-linecap:round;stroke-linejoin:round;" cx="247.063" cy="332.688" r="1.938"></circle></g><g><circle style="fill:#FFFFFF;stroke:#000000;stroke-linecap:round;stroke-linejoin:round;" cx="252.938" cy="320.063" r="1.938"></circle><circle style="fill:#FFFFFF;stroke:#000000;stroke-linecap:round;stroke-linejoin:round;" cx="252.938" cy="326.375" r="1.938"></circle><circle style="fill:#FFFFFF;stroke:#000000;stroke-linecap:round;stroke-linejoin:round;" cx="252.938" cy="332.688" r="1.938"></circle></g></g></g></g></svg>