<svg xmlns="http://www.w3.org/2000/svg" width="500" height="500" version="1.1"><g id="x180"><g><g><path style="fill:#FFFFFF;stroke:#000000;stroke-linecap:round;stroke-linejoin:round;" d="M285,354.834L270,339.5l-20,20.167L230,339.5l-15,15.334c0,0-4.833,8.999-4.667,11.166c2.333,1.167,3.5,1.667,3.5,1.667s0.167-1.666,1-1.333s6.833,3.334,9.167,3.5s5.833,0.333,5.833,0.333s1.667,1.166,3.167,1.333c0.5,0,3-0.666,3-0.666s3.667,1,5.167,1c-0.5-0.667,0-1,0-1S245.5,371,246.833,372c1.333,1.667,3.167,1.5,3.167,1.5s1.834,0.167,3.166-1.5c1.334-1,5.668-1.166,5.668-1.166s0.5,0.333,0,1c1.5,0,5.166-1,5.166-1s2.5,0.666,3,0.666c1.5-0.167,3.166-1.333,3.166-1.333s3.5-0.167,5.834-0.333s8.334-3.167,9.166-3.5c0.834-0.333,1,1.333,1,1.333s1.168-0.5,3.5-1.667C289.832,363.833,285,354.834,285,354.834z"></path><g><path style="fill:#E4E0F3;" d="M240.333,359.334c0,0,1.5,7.667,3.167,9.5c2.167,0.666,3.833-8,3.833-8L240.333,359.334z"></path><path style="fill:#E4E0F3;" d="M236.167,356.334c0,0-3.167,8.666-2.667,10.833c2,1.333,5,0,5,0C237,363.5,236.167,356.334,236.167,356.334z"></path><path style="fill:#E4E0F3;" d="M234.5,355.667L230.333,367c-0.333-5.666-0.833-14.332-0.5-16.666C232.333,352,234.5,355.667,234.5,355.667z"></path><path style="fill:#E4E0F3;" d="M219.333,354c0,0-2,9.334-2.5,10.834c1.5-1.834,3-5.501,4.167-4.834s2,2.667,2,2.667l1.833-13.833L219.333,354z"></path><path style="fill:none;stroke:#000000;stroke-linecap:round;stroke-linejoin:round;" d="M230.167,368.334c0,0,2.5-9,5.833-14"></path><path style="fill:none;stroke:#000000;stroke-linecap:round;stroke-linejoin:round;" d="M237,355.667c0,0,1,9.167,3.5,12.667"></path><path style="fill:none;stroke:#000000;stroke-linecap:round;stroke-linejoin:round;" d="M225,347c-0.333,0.333-1.833,16.5-1.5,21.667"></path><path style="fill:none;stroke:#000000;stroke-linecap:round;stroke-linejoin:round;" d="M214,366c0,0,2.833-10.666,8.833-16.833"></path></g><g><path style="fill:#E4E0F3;" d="M259.666,359.334c0,0-1.5,7.667-3.166,9.5c-2.166,0.666-3.834-8-3.834-8L259.666,359.334z"></path><path style="fill:#E4E0F3;" d="M263.834,356.334c0,0,3.166,8.666,2.666,10.833c-2,1.333-5,0-5,0C263,363.5,263.834,356.334,263.834,356.334z"></path><path style="fill:#E4E0F3;" d="M265.5,355.667L269.666,367c0.334-5.666,0.834-14.332,0.5-16.666C267.666,352,265.5,355.667,265.5,355.667z"></path><path style="fill:#E4E0F3;" d="M280.666,354c0,0,2,9.334,2.5,10.834c-1.5-1.834-3-5.501-4.166-4.834s-2,2.667-2,2.667l-1.834-13.833L280.666,354z"></path><path style="fill:none;stroke:#000000;stroke-linecap:round;stroke-linejoin:round;" d="M269.834,368.334c0,0-2.5-9-5.834-14"></path><path style="fill:none;stroke:#000000;stroke-linecap:round;stroke-linejoin:round;" d="M263,355.667c0,0-1,9.167-3.5,12.667"></path><path style="fill:none;stroke:#000000;stroke-linecap:round;stroke-linejoin:round;" d="M275,347c0.334,0.333,1.834,16.5,1.5,21.667"></path><path style="fill:none;stroke:#000000;stroke-linecap:round;stroke-linejoin:round;" d="M286,366c0,0-2.834-10.666-8.834-16.833"></path></g></g><g><g><path style="fill:#2B2B2B;stroke:#000000;stroke-linecap:round;stroke-linejoin:round;" d="M242.083,300.667l-12.667-5c0,0-2.833,5.666-3.5,9.833s-1.5,21.834-1.5,21.834S213.583,351,211.917,360c5.333-5.5,16-11,16-11s5.5,12.834,21.833,12.834c0-29.5,0-54.334,0-54.334L242.083,300.667z"></path><path style="fill:#6E6E6E;stroke:#000000;stroke-linecap:round;stroke-linejoin:round;" d="M233.083,297.834c0,0-2,6.666-2.333,8.166s-0.5,22.834-0.5,22.834l-3.333,20.5c0,0,1.5,1.666,2,1.666c0.5-6.333,3.167-21.666,3.167-21.666s0.167-20.834,0.5-22.667s2.667-8.333,2.667-8.333L233.083,297.834z"></path><g><circle style="fill:#FACC17;stroke:#000000;stroke-linecap:round;stroke-linejoin:round;" cx="239.009" cy="312.633" r="2.25"></circle><circle style="fill:#FACC17;stroke:#000000;stroke-linecap:round;stroke-linejoin:round;" cx="237.833" cy="326.416" r="2.25"></circle><circle style="fill:#FACC17;stroke:#000000;stroke-linecap:round;stroke-linejoin:round;" cx="236.658" cy="340.199" r="2.25"></circle></g></g><g><path style="fill:#2B2B2B;stroke:#000000;stroke-linecap:round;stroke-linejoin:round;" d="M257.917,300.667l12.666-5c0,0,2.834,5.666,3.5,9.833c0.668,4.167,1.5,21.834,1.5,21.834S286.417,351,288.083,360c-5.333-5.5-16-11-16-11s-5.5,12.834-21.832,12.834c0-29.5,0-54.334,0-54.334L257.917,300.667z"></path><path style="fill:#6E6E6E;stroke:#000000;stroke-linecap:round;stroke-linejoin:round;" d="M266.917,297.834c0,0,2,6.666,2.334,8.166c0.332,1.5,0.5,22.834,0.5,22.834l3.332,20.5c0,0-1.5,1.666-2,1.666c-0.5-6.333-3.166-21.666-3.166-21.666s-0.166-20.834-0.5-22.667s-2.666-8.333-2.666-8.333L266.917,297.834z"></path><g><circle style="fill:#FACC17;stroke:#000000;stroke-linecap:round;stroke-linejoin:round;" cx="260.992" cy="312.633" r="2.25"></circle><circle style="fill:#FACC17;stroke:#000000;stroke-linecap:round;stroke-linejoin:round;" cx="262.167" cy="326.416" r="2.25"></circle><circle style="fill:#FACC17;stroke:#000000;stroke-linecap:round;stroke-linejoin:round;" cx="263.342" cy="340.199" r="2.25"></circle></g></g></g></g></g></svg>