<svg xmlns="http://www.w3.org/2000/svg" width="500" height="500" version="1.1"><g id="x182"><g><path style="fill:#6E6E6E;stroke:#000000;stroke-linecap:round;stroke-linejoin:round;" d="M283.5,347.25L250,346l-33.5,1.25c0,0-0.75,5.75-0.5,7.25c7,2.75,25.75,4,34,4s27-1.25,34-4C284.25,353,283.5,347.25,283.5,347.25z"></path><g><g><path style="fill:#FFFFFF;stroke:#000000;stroke-linecap:round;stroke-linejoin:round;" d="M213.775,310c0,0-2.5,5.5-2.5,7.25c6,2.5,15.25,5,15.25,5l1.5-8.75L213.775,310z"></path><path style="fill:#6E6E6E;stroke:#000000;stroke-linecap:round;stroke-linejoin:round;" d="M231.275,283.752c0,0-7.5,4.25-10,8s-6.25,12.75-6.25,12.75l-3,3.5c0,0,1,3,1.75,3.5s14,4.75,14,4.75L231.275,283.752z"></path><path style="fill:#505050;" d="M229.525,294.5c0,0-6.25,4-7,6.5s1.75,11,3.25,11.75C229.775,306.75,229.525,294.5,229.525,294.5z"></path><path style="fill:none;stroke:#000000;stroke-linecap:round;stroke-linejoin:round;" d="M222.275,298c0,0,1.75,4.25,3.75,6.25"></path></g><g><path style="fill:#FFFFFF;stroke:#000000;stroke-linecap:round;stroke-linejoin:round;" d="M286.225,310c0,0,2.5,5.5,2.5,7.25c-6,2.5-15.25,5-15.25,5l-1.5-8.75L286.225,310z"></path><path style="fill:#6E6E6E;stroke:#000000;stroke-linecap:round;stroke-linejoin:round;" d="M268.725,283.752c0,0,7.5,4.25,10,8s6.25,12.75,6.25,12.75l3,3.5c0,0-1,3-1.75,3.5s-14,4.75-14,4.75L268.725,283.752z"></path><path style="fill:#505050;" d="M270.475,294.5c0,0,6.25,4,7,6.5s-1.75,11-3.25,11.75C270.225,306.75,270.475,294.5,270.475,294.5z"></path><path style="fill:none;stroke:#000000;stroke-linecap:round;stroke-linejoin:round;" d="M277.725,298c0,0-1.75,4.25-3.75,6.25"></path></g></g><path style="fill:#6E6E6E;stroke:#000000;stroke-linecap:round;stroke-linejoin:round;" d="M279.75,338c0,0,0.5-2.5,0.5-4.25s-3.25-5.5-3.25-5.5s-2.25-19.75-2.25-21.25s-1.5-6.75-3.75-10.75c0-1.75,0-11,0-11c-2.5-2-8-4-8-4l-13,33.5l-13-33.5c0,0-5.5,2-8,4c0,0,0,9.25,0,11c-2.25,4-3.75,9.25-3.75,10.75S223,328.25,223,328.25s-3.25,3.75-3.25,5.5s0.5,4.25,0.5,4.25s-4.5,7.75-4.5,10.25S237.25,352,250,352s34.25-1.25,34.25-3.75S279.75,338,279.75,338z"></path><g><g><path style="fill:#6E6E6E;stroke:#000000;stroke-linecap:round;stroke-linejoin:round;" d="M225.464,304.308c0,0,11.903-0.246,14.598,1.081c-0.327,7.709-1.021,16.411-1.616,17.121c-0.594,0.709-12.413,0.19-13.377-0.432C223.817,319.36,223.854,307.229,225.464,304.308z"></path></g><g><path style="fill:#6E6E6E;stroke:#000000;stroke-linecap:round;stroke-linejoin:round;" d="M274.535,304.308c0,0-11.902-0.246-14.598,1.081c0.328,7.709,1.021,16.411,1.616,17.121c0.594,0.709,12.413,0.19,13.377-0.432C276.183,319.36,276.146,307.229,274.535,304.308z"></path></g></g><g><polyline style="fill:none;stroke:#000000;stroke-linecap:round;stroke-linejoin:round;" points="250.5,313.5 244.75,321.5 245,350.5 "></polyline><path style="fill:none;stroke:#000000;stroke-linecap:round;stroke-linejoin:round;" d="M257,308c-1,1.75-5.75,15-5.75,15l-0.75,27.5"></path></g><g><g><path style="fill:#6E6E6E;stroke:#000000;stroke-linecap:round;stroke-linejoin:round;" d="M237.837,294.75c0,0-14.425-9.75-14.925-10.75c6.25-4.25,16.5-6.75,18-6c0,1-0.075,2.5-0.075,2.5l-3.5,0.75l3.75,9.5L237.837,294.75z"></path><path style="fill:#6E6E6E;stroke:#000000;stroke-linecap:round;stroke-linejoin:round;" d="M250.337,314.75c0,0-17.175-14.75-19.175-18.5c1.75-4.25,8.5-9.5,8.5-9.5L250.337,314.75z"></path></g><g><path style="fill:#6E6E6E;stroke:#000000;stroke-linecap:round;stroke-linejoin:round;" d="M262.163,294.75c0,0,14.425-9.75,14.925-10.75c-6.25-4.25-16.5-6.75-18-6c0,1,0.075,2.5,0.075,2.5l3.5,0.75l-3.75,9.5L262.163,294.75z"></path><path style="fill:#6E6E6E;stroke:#000000;stroke-linecap:round;stroke-linejoin:round;" d="M249.663,314.75c0,0,17.175-14.75,19.175-18.5c-1.75-4.25-8.5-9.5-8.5-9.5L249.663,314.75z"></path></g></g></g></g></svg>