<svg xmlns="http://www.w3.org/2000/svg" width="500" height="500" version="1.1"><g id="x183"><g><g><path style="fill:#505050;stroke:#000000;stroke-linecap:round;stroke-linejoin:round;" d="M236.549,281.834l4-1.167V278c0,0-9.63-2-10.398-1.333C230.383,279,236.549,281.834,236.549,281.834z"></path><path style="fill:#505050;stroke:#000000;stroke-linecap:round;stroke-linejoin:round;" d="M263.451,281.834l-4-1.167V278c0,0,9.631-2,10.398-1.333C269.617,279,263.451,281.834,263.451,281.834z"></path></g><g><g><path style="fill:#6E6E6E;stroke:#000000;stroke-linecap:round;stroke-linejoin:round;" d="M225.102,288.334c0,0-7,7.166-10.5,17.416c3.25,3.75,13,8,13,8l3.75-18.75L225.102,288.334z"></path><path style="fill:#6E6E6E;stroke:#000000;stroke-linecap:round;stroke-linejoin:round;" d="M215.602,303l-2.25,2c0,0,0.5,2.75,0,3.75s-2.75,6-2.5,7.25c3,2.25,14,6.75,14,6.75l2.75-14L215.602,303z"></path></g><g><path style="fill:#6E6E6E;stroke:#000000;stroke-linecap:round;stroke-linejoin:round;" d="M274.896,288.334c0,0,7,7.166,10.5,17.416c-3.25,3.75-13,8-13,8l-3.75-18.75L274.896,288.334z"></path><path style="fill:#6E6E6E;stroke:#000000;stroke-linecap:round;stroke-linejoin:round;" d="M284.396,303l2.25,2c0,0-0.5,2.75,0,3.75s2.75,6,2.5,7.25c-3,2.25-14,6.75-14,6.75l-2.75-14L284.396,303z"></path></g></g><g><g><g><path style="fill:#6E6E6E;stroke:#000000;stroke-linecap:round;stroke-linejoin:round;" d="M236.435,281.398c-0.833,4.25,0.667,7.601,1,9.935s2.333,11.334,2.333,17.334s-1.667,17.666-1.333,21.666s-0.667,15.333,12,24.667c-9.333-0.333-30.333-3-32.333-6c0-3.666,3.667-12.666,3.667-12.666s-1.417-3.084-0.417-5.084s2.25-3.75,3.75-8.25c0.333-4.333-0.667-12,0.667-17s3-10,3-10l-3.667-7.666C225.102,288.334,229.102,282.731,236.435,281.398z"></path><path style="fill:#505050;" d="M222.768,336.333c0,0-1-2.667-0.667-4s7.667,2.666,8,4S222.768,336.333,222.768,336.333z"></path></g><path style="fill:#6E6E6E;stroke:#000000;stroke-linecap:round;stroke-linejoin:round;" d="M238.102,293.333c0,0-9.333-5.999-9.667-8.666c0.333-4.667,1.667-8,1.667-8s6,3.667,7.667,5C238.102,287,238.102,293.333,238.102,293.333z"></path></g><g><g><path style="fill:#6E6E6E;stroke:#000000;stroke-linecap:round;stroke-linejoin:round;" d="M263.563,281.398c0.833,4.25-0.667,7.601-1,9.935s-2.333,11.334-2.333,17.334s1.666,17.666,1.333,21.666s0.667,15.333-11.998,24.667c9.331-0.333,30.331-3,32.331-6c0-3.666-3.666-12.666-3.666-12.666s1.416-3.084,0.416-5.084s-2.25-3.75-3.75-8.25c-0.333-4.333,0.668-12-0.666-17s-3-10-3-10l3.666-7.666C274.896,288.334,270.896,282.731,263.563,281.398z"></path><path style="fill:#505050;" d="M277.23,336.333c0,0,1-2.667,0.666-4c-0.333-1.333-7.666,2.666-8,4C269.563,337.667,277.23,336.333,277.23,336.333z"></path></g><path style="fill:#6E6E6E;stroke:#000000;stroke-linecap:round;stroke-linejoin:round;" d="M261.896,293.333c0,0,9.334-5.999,9.667-8.666c-0.333-4.667-1.667-8-1.667-8s-6,3.667-7.666,5C261.896,287,261.896,293.333,261.896,293.333z"></path></g></g></g></g></svg>