<svg xmlns="http://www.w3.org/2000/svg" width="500" height="500" version="1.1"><g id="x184"><g><g><path style="fill:#FFFFFF;" d="M216.967,346.079c-1.174,5.447-6.695,21.39-5.219,28.059c6.878,3.116,23.575,4.363,28.06,4.986c3.29-0.311,6.579-3.117,8.073-1.558c1.495,1.558,9.271,2.806,14.652,2.494c5.383-0.312,12.26-3.118,14.952-2.807c2.689,0.313,11.015-1.558,11.015-1.558s-1.103-18.96-5.66-29.617H216.967z"></path><path style="fill:#D4D4F0;" d="M222.041,343.799c-3.59,0.676-5.844,9.908-5.861,10.771c-0.012,0.63,20.726,0.944,20.727,1.672c0.012,5.962,0.594,14.717,3.692,18.016c3.517,1.672,4.884,1.301,4.884,1.301s3.32-2.229,6.641-1.857c3.517-4.272,4.104-15.044,7.424-17.645c3.321-2.601,20.511-1.114,23.246-2.601c-1.172-5.757-1.172-7.058-1.172-7.058S228.181,342.643,222.041,343.799z"></path><g><path style="fill:#6E6E6E;" d="M212.521,363.383c-0.239,1.159-0.449,2.302-0.615,3.4C212.856,365.854,213.057,364.5,212.521,363.383z"></path><path style="fill:#6E6E6E;" d="M219.336,359.727c1.259-1.197,1.258-3.138,0-4.333c-1.259-1.197-3.299-1.198-4.558-0.001c-0.187,0.178-0.338,0.376-0.469,0.582c-0.154,0.574-0.307,1.155-0.459,1.744c0.04,0.729,0.342,1.45,0.928,2.008C216.037,360.923,218.077,360.923,219.336,359.727z"></path><path style="fill:#6E6E6E;" d="M226.795,352.635c1.259-1.197,1.258-3.138,0-4.334c-1.259-1.196-3.299-1.197-4.558,0c-1.258,1.196-1.258,3.137,0,4.334C223.496,353.831,225.537,353.831,226.795,352.635z"></path><path style="fill:#6E6E6E;" d="M233.461,346.079h-2.97C231.422,346.542,232.529,346.542,233.461,346.079z"></path><path style="fill:#6E6E6E;" d="M215.192,369.971c-1.259,1.197-1.258,3.137,0,4.334c1.258,1.196,3.299,1.196,4.559,0c1.259-1.197,1.258-3.137,0-4.334C218.492,368.773,216.451,368.772,215.192,369.971z"></path><path style="fill:#6E6E6E;" d="M222.651,362.878c-1.257,1.197-1.257,3.138,0,4.334c1.259,1.197,3.3,1.197,4.559,0s1.258-3.137,0-4.333C225.951,361.682,223.91,361.681,222.651,362.878z"></path><path style="fill:#6E6E6E;" d="M234.669,360.12c1.259-1.197,1.258-3.137,0-4.333c-1.259-1.197-3.299-1.198-4.558-0.001c-1.259,1.197-1.259,3.138,0,4.334C231.369,361.317,233.41,361.317,234.669,360.12z"></path><path style="fill:#6E6E6E;" d="M242.128,353.028c1.259-1.197,1.258-3.137,0-4.334c-1.259-1.196-3.299-1.197-4.558,0c-1.259,1.197-1.259,3.137,0,4.334S240.869,354.226,242.128,353.028z"></path><path style="fill:#6E6E6E;" d="M249.403,346.079h-4.19C246.419,347.068,248.197,347.068,249.403,346.079z"></path><path style="fill:#6E6E6E;" d="M223.53,377.096c1.443,0.231,2.901,0.441,4.325,0.63c-0.075-0.09-0.143-0.186-0.231-0.27C226.51,376.397,224.785,376.279,223.53,377.096z"></path><path style="fill:#6E6E6E;" d="M230.525,370.364c-1.259,1.197-1.259,3.138,0,4.334c1.258,1.196,3.299,1.197,4.559,0c1.259-1.196,1.258-3.137,0-4.334C233.825,369.168,231.784,369.167,230.525,370.364z"></path><path style="fill:#6E6E6E;" d="M237.984,363.272c-1.259,1.196-1.259,3.138,0,4.333c1.258,1.197,3.299,1.197,4.559,0c1.259-1.195,1.258-3.137,0-4.333S239.243,362.075,237.984,363.272z"></path><path style="fill:#6E6E6E;" d="M250.002,360.514c1.259-1.196,1.258-3.137,0-4.333s-3.299-1.197-4.558-0.001c-1.26,1.197-1.259,3.139,0,4.334C246.703,361.711,248.743,361.711,250.002,360.514z"></path><path style="fill:#6E6E6E;" d="M257.461,353.422c1.26-1.196,1.259-3.137,0-4.334c-1.259-1.195-3.299-1.196-4.559,0c-1.259,1.197-1.258,3.138,0,4.334C254.162,354.619,256.202,354.619,257.461,353.422z"></path><path style="fill:#6E6E6E;" d="M264.92,346.33c0.081-0.077,0.146-0.167,0.217-0.251h-4.99c0.071,0.084,0.133,0.174,0.215,0.251C261.621,347.526,263.662,347.527,264.92,346.33z"></path><path style="fill:#6E6E6E;" d="M238.398,377.85c-0.316,0.301-0.552,0.649-0.709,1.02c0.857,0.096,1.578,0.18,2.119,0.255c1.166-0.11,2.329-0.533,3.414-0.965c-0.084-0.105-0.164-0.213-0.265-0.309C241.698,376.653,239.658,376.653,238.398,377.85z"></path><path style="fill:#6E6E6E;" d="M245.858,370.758c-1.259,1.198-1.258,3.138,0,4.335c1.259,1.196,3.3,1.196,4.559,0c1.258-1.197,1.257-3.137,0-4.334C249.158,369.563,247.117,369.561,245.858,370.758z"></path><path style="fill:#6E6E6E;" d="M253.316,363.667c-1.258,1.196-1.257,3.137,0,4.333c1.26,1.197,3.301,1.197,4.559,0c1.261-1.196,1.258-3.137,0-4.333C256.617,362.47,254.576,362.469,253.316,363.667z"></path><path style="fill:#6E6E6E;" d="M265.334,360.908c1.26-1.197,1.26-3.137,0-4.333c-1.258-1.197-3.299-1.198-4.558-0.001c-1.258,1.197-1.258,3.138,0,4.334C262.035,362.105,264.076,362.105,265.334,360.908z"></path><path style="fill:#6E6E6E;" d="M272.794,353.816c1.26-1.197,1.259-3.137-0.001-4.333c-1.258-1.197-3.298-1.198-4.558-0.001c-1.258,1.197-1.258,3.138,0,4.334C269.494,355.014,271.535,355.014,272.794,353.816z"></path><path style="fill:#6E6E6E;" d="M280.253,346.725c0.207-0.196,0.366-0.416,0.505-0.646h-5.566c0.139,0.229,0.298,0.45,0.503,0.646C276.953,347.921,278.995,347.922,280.253,346.725z"></path><path style="fill:#6E6E6E;" d="M253.731,378.243c-0.347,0.332-0.591,0.722-0.745,1.135c1.907,0.359,4.104,0.61,6.214,0.697c-0.077-0.668-0.372-1.318-0.91-1.831C257.03,377.048,254.991,377.048,253.731,378.243z"></path><path style="fill:#6E6E6E;" d="M261.191,371.151c-1.259,1.198-1.259,3.138,0,4.335c1.259,1.196,3.3,1.197,4.559,0c1.257-1.197,1.257-3.137-0.001-4.334C264.491,369.957,262.45,369.955,261.191,371.151z"></path><path style="fill:#6E6E6E;" d="M268.65,364.06c-1.259,1.197-1.259,3.138,0,4.335c1.259,1.196,3.3,1.196,4.559,0c1.259-1.197,1.258-3.138-0.001-4.335C271.95,362.864,269.91,362.863,268.65,364.06z"></path><path style="fill:#6E6E6E;" d="M280.668,361.302c1.259-1.196,1.258-3.137,0-4.333c-1.259-1.196-3.299-1.197-4.559-0.001c-1.259,1.197-1.259,3.138,0,4.334C277.369,362.499,279.409,362.499,280.668,361.302z"></path><path style="fill:#6E6E6E;" d="M283.568,354.21c0.571,0.544,1.305,0.827,2.052,0.878c-0.441-1.936-0.949-3.836-1.524-5.614c-0.186,0.114-0.363,0.247-0.527,0.402C282.31,351.073,282.311,353.014,283.568,354.21z"></path><path style="fill:#6E6E6E;" d="M269.064,378.639c-0.116,0.109-0.208,0.231-0.304,0.353c1.354-0.328,2.672-0.678,3.885-0.981C271.463,377.512,270.034,377.716,269.064,378.639z"></path><path style="fill:#6E6E6E;" d="M276.523,371.546c-1.258,1.197-1.258,3.138,0,4.335c1.26,1.195,3.3,1.196,4.559,0c1.26-1.198,1.258-3.138,0-4.334C279.823,370.35,277.783,370.349,276.523,371.546z"></path><path style="fill:#6E6E6E;" d="M283.982,364.454c-1.258,1.197-1.258,3.138,0,4.335c1.069,1.017,2.7,1.16,3.94,0.448c-0.184-1.654-0.417-3.534-0.712-5.53C286.105,363.383,284.856,363.623,283.982,364.454z"></path></g><path style="fill:none;stroke:#000000;stroke-linecap:round;stroke-linejoin:round;" d="M216.967,346.079c-1.174,5.447-6.695,21.39-5.219,28.059c6.878,3.116,23.575,4.363,28.06,4.986c3.29-0.311,6.579-3.117,8.073-1.558c1.495,1.558,9.271,2.806,14.652,2.494c5.383-0.312,12.26-3.118,14.952-2.807c2.689,0.313,11.015-1.558,11.015-1.558s-1.103-18.96-5.66-29.617H216.967z"></path><line style="fill:#FFFFFF;stroke:#000000;stroke-linecap:round;stroke-linejoin:round;" x1="246.85" y1="376.115" x2="248.022" y2="366.087"></line></g><g><path style="fill:#FFFFFF;" d="M277.303,311.875c-1.115-5.339-10.217-22.694-10.217-22.694l-2.229-6.674c0,1.001-0.092,9.564-14.857,9.564s-14.858-8.563-14.858-9.564l-2.229,6.674c0,0-9.102,17.355-10.216,22.694s-3.157,24.465-6.5,33.81c3.343,2.337,17.087,2.002,17.087,2.002s0,1.002,0.743,2.003L250,351.691l15.973-2.002c0.742-1.001,0.742-2.003,0.742-2.003s13.745,0.335,17.088-2.002C280.46,336.34,278.416,317.214,277.303,311.875z"></path><g><path style="fill:#D4D4F0;" d="M224.793,314.587c0,0,5.293-4.964,8.358-4.964c3.064,0,8.079,4.964,8.079,4.964s-2.786,29.785-5.572,32.659s-15.322,1.306-15.602,0.522C219.778,346.985,223.957,316.416,224.793,314.587z"></path><path style="fill:#D4D4F0;" d="M275.206,314.587c0,0-5.293-4.964-8.357-4.964s-8.079,4.964-8.079,4.964s2.786,29.785,5.571,32.659c2.786,2.874,15.323,1.306,15.602,0.522S276.042,316.416,275.206,314.587z"></path></g><g><path style="fill:#6E6E6E;" d="M234.034,291.688c1.197-1.197,1.196-3.137,0-4.335c-0.125-0.124-0.263-0.229-0.402-0.327l-0.719,2.154c0,0-0.689,1.314-1.709,3.326C232.191,292.725,233.266,292.456,234.034,291.688z"></path><path style="fill:#6E6E6E;" d="M227.336,313.358c1.198-1.197,1.196-3.137,0-4.334c-0.96-0.96-2.395-1.136-3.543-0.556c-0.525,1.364-0.916,2.544-1.096,3.406c-0.052,0.245-0.104,0.543-0.159,0.865c0.129,0.22,0.276,0.43,0.464,0.618C224.199,314.555,226.14,314.555,227.336,313.358z"></path><circle style="fill:#6E6E6E;" cx="232.261" cy="304.099" r="3.064"></circle><circle style="fill:#6E6E6E;" cx="239.354" cy="297.007" r="3.065"></circle><path style="fill:#6E6E6E;" d="M248.612,292.083c0.012-0.012,0.019-0.026,0.029-0.037c-1.862-0.071-3.461-0.291-4.846-0.613c0.133,0.23,0.285,0.453,0.482,0.65C245.475,293.279,247.415,293.279,248.612,292.083z"></path><path style="fill:#6E6E6E;" d="M220.638,330.694c-0.123-0.123-0.259-0.226-0.396-0.324c-0.239,1.785-0.492,3.592-0.76,5.373c0.422-0.146,0.82-0.378,1.157-0.716C221.835,333.83,221.835,331.891,220.638,330.694z"></path><circle style="fill:#6E6E6E;" cx="225.563" cy="325.769" r="3.065"></circle><circle style="fill:#6E6E6E;" cx="232.655" cy="318.677" r="3.065"></circle><circle style="fill:#6E6E6E;" cx="239.747" cy="311.585" r="3.065"></circle><circle style="fill:#6E6E6E;" cx="246.839" cy="304.493" r="3.065"></circle><circle style="fill:#6E6E6E;" cx="253.931" cy="297.4" r="3.065"></circle><path style="fill:#6E6E6E;" d="M263.189,292.477c1.198-1.197,1.196-3.138,0-4.334c-0.116-0.116-0.245-0.212-0.375-0.307c-1.012,1.165-2.528,2.278-4.796,3.073c0.114,0.573,0.392,1.122,0.837,1.567C260.053,293.673,261.992,293.674,263.189,292.477z"></path><path style="fill:#6E6E6E;" d="M265.729,285.115l-0.669-2.002C265.036,283.822,265.263,284.53,265.729,285.115z"></path><circle style="fill:#6E6E6E;" cx="225.957" cy="340.348" r="3.065"></circle><circle style="fill:#6E6E6E;" cx="233.05" cy="333.255" r="3.065"></circle><circle style="fill:#6E6E6E;" cx="240.142" cy="326.163" r="3.065"></circle><circle style="fill:#6E6E6E;" cx="247.233" cy="319.071" r="3.065"></circle><circle style="fill:#6E6E6E;" cx="254.325" cy="311.979" r="3.065"></circle><circle style="fill:#6E6E6E;" cx="261.417" cy="304.888" r="3.065"></circle><path style="fill:#6E6E6E;" d="M266.343,295.628c-1.197,1.197-1.197,3.138,0,4.334c1.195,1.196,3.137,1.197,4.333,0c0.532-0.532,0.814-1.211,0.872-1.906c-0.479-0.989-0.947-1.944-1.394-2.842C268.969,294.457,267.378,294.593,266.343,295.628z"></path><circle style="fill:#6E6E6E;" cx="240.535" cy="340.741" r="3.065"></circle><circle style="fill:#6E6E6E;" cx="247.627" cy="333.648" r="3.064"></circle><circle style="fill:#6E6E6E;" cx="254.719" cy="326.557" r="3.065"></circle><circle style="fill:#6E6E6E;" cx="261.811" cy="319.465" r="3.065"></circle><circle style="fill:#6E6E6E;" cx="268.903" cy="312.373" r="3.065"></circle><path style="fill:#6E6E6E;" d="M273.828,307.448c0.639,0.639,1.488,0.926,2.325,0.882c-0.611-1.578-1.396-3.396-2.251-5.276c-0.023,0.021-0.051,0.038-0.074,0.061C272.631,304.312,272.631,306.251,273.828,307.448z"></path><circle style="fill:#6E6E6E;" cx="248.021" cy="348.227" r="3.064"></circle><circle style="fill:#6E6E6E;" cx="255.112" cy="341.135" r="3.064"></circle><circle style="fill:#6E6E6E;" cx="262.204" cy="334.043" r="3.065"></circle><circle style="fill:#6E6E6E;" cx="269.297" cy="326.951" r="3.065"></circle><path style="fill:#6E6E6E;" d="M274.222,317.692c-1.196,1.196-1.196,3.137,0,4.334c1.196,1.196,3.138,1.196,4.334,0c0.046-0.047,0.079-0.102,0.122-0.148c-0.203-1.646-0.392-3.177-0.566-4.549C276.918,316.516,275.28,316.634,274.222,317.692z"></path><circle style="fill:#6E6E6E;" cx="262.599" cy="348.621" r="3.065"></circle><circle style="fill:#6E6E6E;" cx="269.691" cy="341.529" r="3.065"></circle><circle style="fill:#6E6E6E;" cx="276.783" cy="334.437" r="3.064"></circle><path style="fill:#6E6E6E;" d="M281.905,343.848c-0.185-0.926-0.364-1.884-0.538-2.87C281.054,341.944,281.233,343.024,281.905,343.848z"></path></g><path style="fill:none;stroke:#000000;stroke-linecap:round;stroke-linejoin:round;" d="M277.303,311.875c-1.115-5.339-10.217-22.694-10.217-22.694l-2.229-6.674c0,1.001-0.092,9.564-14.857,9.564s-14.858-8.563-14.858-9.564l-2.229,6.674c0,0-9.102,17.355-10.216,22.694s-3.157,24.465-6.5,33.81c3.343,2.337,17.087,2.002,17.087,2.002s0,1.002,0.743,2.003L250,351.691l15.973-2.002c0.742-1.001,0.742-2.003,0.742-2.003s13.745,0.335,17.088-2.002C280.46,336.34,278.416,317.214,277.303,311.875z"></path></g></g></g></svg>