<svg xmlns="http://www.w3.org/2000/svg" width="500" height="500" version="1.1"><g id="x186"><g><g><g id="topsXMLID_4_"><g><g><path style="fill:#FFFFFF;" d="M228.83,285c0,0-6,69.33-11.66,92.67c-4.67,2.33-18-0.67-20.67-7c-3.33-1-10.67-8-10.67-8s25.34-52.67,31-67.67C219.5,291.67,228.83,285,228.83,285z"></path></g><path style="fill:#6E6E6E;" d="M185.5,362.334l23-47.834c0,0,8.167-18.667,9.167-20.667s11.167-8.166,11.167-8.166l-0.5,4.5c0,0-7.333,4.333-8.333,5.666S210.833,317,210.833,317L188.5,365.334L185.5,362.334z"></path><path style="fill:#6E6E6E;" d="M227.333,294.833c0,0-5.667,5.167-6.333,6s-28.833,66.5-28.833,66.5l4.333,3.337l28.167-68.504L227.333,294.833z"></path><path style="fill:#6E6E6E;" d="M199.667,373.833c-0.308-0.615,20.5-50.167,20.5-50.167l2.333,4.167L203.667,376C203.667,376,200.667,375.833,199.667,373.833z"></path><polygon style="fill:#6E6E6E;" points="207.667,377.666 212,365 212.833,379.166 "></polygon></g><g><path style="fill:none;stroke:#000000;stroke-linecap:round;stroke-linejoin:round;" d="M228.83,285c0,0-9.33,6.67-12,10c-5.66,15-31,67.67-31,67.67s7.34,7,10.67,8c2.67,6.33,16,9.33,20.67,7C222.83,354.33,228.83,285,228.83,285z"></path></g></g><g id="topsXMLID_5_"><g><g><path style="fill:#FFFFFF;" d="M271.17,285c0,0,6,69.33,11.66,92.67c4.67,2.33,18-0.67,20.67-7c3.33-1,10.67-8,10.67-8s-25.34-52.67-31-67.67C280.5,291.67,271.17,285,271.17,285z"></path></g><path style="fill:#6E6E6E;" d="M314.5,362.334l-23-47.834c0,0-8.166-18.667-9.166-20.667s-11.166-8.166-11.166-8.166l0.5,4.5c0,0,7.332,4.333,8.332,5.666S289.168,317,289.168,317l22.332,48.334L314.5,362.334z"></path><path style="fill:#6E6E6E;" d="M272.668,294.833c0,0,5.666,5.167,6.332,6c0.668,0.833,28.834,66.5,28.834,66.5l-4.334,3.337l-28.166-68.504L272.668,294.833z"></path><path style="fill:#6E6E6E;" d="M300.334,373.833c0.307-0.615-20.5-50.167-20.5-50.167l-2.334,4.167L296.334,376C296.334,376,299.334,375.833,300.334,373.833z"></path><polygon style="fill:#6E6E6E;" points="292.334,377.666 288,365 287.168,379.166 "></polygon></g><g><path style="fill:none;stroke:#000000;stroke-linecap:round;stroke-linejoin:round;" d="M271.17,285c0,0,9.33,6.67,12,10c5.66,15,31,67.67,31,67.67s-7.34,7-10.67,8c-2.67,6.33-16,9.33-20.67,7C277.17,354.33,271.17,285,271.17,285z"></path></g></g></g><path style="fill:#FFFFFF;" d="M285.333,349c-1.666-6-5.666-25.666-8.666-37.333c0,0-3.668-24.333-5.334-27c-6-3.333-11.333-5-11.333-5l-10,13.667l-10.667-13c0,0-10.334,3.333-11.667,5.333c-0.719,2.589-4.156,14.919-7,29c-3.746,18.549-10,35.179-10,42c1,19,1.667,28.999,1.667,28.999l13.124,0.32c0.288,1.688,0.582,3.082,0.876,4.014c4,2.666,15.333-0.667,15.333-0.667l7.228-5.492c2.661-1.311,4.106-2.175,4.106-2.175s8.999,6,13.333,6c1.667-0.333,7.333-1.999,7.333-1.999l1.667-2.667c0,0,9.667,3.334,11.667,3C287.301,383.748,286.666,356.333,285.333,349z"></path><g><path style="fill:#6E6E6E;" d="M266.75,387.25c-0.131-10.477-2-31.75-3-46.25c-1.05-15.221-3.701-49.334-3.701-49.334l-3.174-3.041c0,0,0.792,49.042,3.125,96.042C261.475,385.835,265.275,387.913,266.75,387.25z"></path><path style="fill:#6E6E6E;" d="M273.75,385c0,0,1.141-26.009-0.25-40.75c-1.25-13.25-7.284-53.917-7.284-53.917l-3.341,2.417l3.792,42.667l2.549,51.333L273.75,385z"></path><path style="fill:#6E6E6E;" d="M256,383.5c-2.25-57.25-1-96.5-1-96.5l-4.667,5.667c0,0-0.917,36.166-1.667,90.666C251.167,382.083,254.419,382.603,256,383.5z"></path><path style="fill:#6E6E6E;" d="M271.5,284.625c0,0,12.049,49.375,15.549,78.875c-0.166,10.833-0.5,22.166-0.5,22.166l-4.333,0.167c0,0,1-16.334-0.167-29.667c-1.166-13.333-14.924-73.666-14.924-73.666L271.5,284.625z"></path><path style="fill:#6E6E6E;" d="M238.833,291.666c0,0-5.167,28.834-6.833,44s-2,55.667-2,55.667s4.667,0.167,6-0.333c-2.333-42,6.833-102.167,6.833-102.167L238.833,291.666z"></path><path style="fill:#6E6E6E;" d="M227.5,285.5c0,0-12.167,48.5-15.667,78c0.167,10.833,0.5,22.166,0.5,22.166l4.333,0.167c0,0-1-16.334,0.167-29.667s14.5-72.5,14.5-72.5L227.5,285.5z"></path><path style="fill:#6E6E6E;" d="M220.5,386c0,0-0.75-29.25,2.25-43.75c1.667-8.057,9.917-51.917,9.917-51.917l2.667,3.167L227,344.833l-1.667,41L220.5,386z"></path><path style="fill:#6E6E6E;" d="M245.833,288.5c0,0-7.167,34.833-6.167,101.167c0,0,5.666-2.667,6-3.334C243.833,341,249,292.5,249,292.5L245.833,288.5z"></path><polygon style="fill:#6E6E6E;" points="277.375,372.375 277,383.875 274.5,382.625 "></polygon><path style="fill:#6E6E6E;" d="M275,315c0,0,4.25,45.5,3.5,50.25c1.75-7.75,3.5-13.75,3.5-13.75L275,315z"></path></g><path style="fill:none;stroke:#000000;stroke-linecap:round;stroke-linejoin:round;" d="M285.333,349c-1.666-6-5.666-25.666-8.666-37.333c0,0-3.668-24.333-5.334-27c-6-3.333-11.333-5-11.333-5l-10,13.667l-10.667-13c0,0-10.334,3.333-11.667,5.333c-0.719,2.589-4.156,14.919-7,29c-3.746,18.549-10,35.179-10,42c1,19,1.667,28.999,1.667,28.999l13.124,0.32c0.288,1.688,0.582,3.082,0.876,4.014c4,2.666,15.333-0.667,15.333-0.667l7.228-5.492c2.661-1.311,4.106-2.175,4.106-2.175s8.999,6,13.333,6c1.667-0.333,7.333-1.999,7.333-1.999l1.667-2.667c0,0,9.667,3.334,11.667,3C287.301,383.748,286.666,356.333,285.333,349z"></path><path style="fill:none;stroke:#000000;stroke-linecap:round;stroke-linejoin:round;" d="M274.333,384.666c0,0,4.334-17.999,6.667-28.332"></path><path style="fill:none;stroke:#000000;stroke-linecap:round;stroke-linejoin:round;" d="M222.667,350.334c0,0,2.667,33.332,3,36.332"></path></g></g></svg>