<svg xmlns="http://www.w3.org/2000/svg" width="500" height="500" version="1.1"><g id="x188"><g><g id="topsXMLID_6_"><g><path style="fill:#505050;" d="M275.75,327c2.25,4.75,6.75,17.75,8.75,27.5c-3.75,2.25-13.75,5.75-34.5,5.75s-30.75-3.5-34.5-5.75c2-9.75,6.5-22.75,8.75-27.5c-0.25-4,1.25-22.25,1.5-23.25l24.25,2.5l24.25-2.5C274.5,304.75,276,323,275.75,327z"></path></g><g><polygon style="fill:none;" points="229.268,334.729 237.095,334.729 244.917,334.729 252.744,334.729 260.565,334.729 268.394,334.729 276.215,334.729 278.806,334.729 278.806,334.729 276.215,334.729 268.394,334.729 260.565,334.729 252.744,334.729 244.917,334.729 237.095,334.729 229.268,334.729 221.446,334.729 221.195,334.729 221.194,334.729 221.446,334.729 "></polygon><path style="fill:#6E6E6E;" d="M284.5,354.5c-0.14-0.682-0.295-1.382-0.457-2.091v2.353C284.203,354.673,284.357,354.585,284.5,354.5z"></path><path style="fill:#6E6E6E;" d="M274.962,311.271c-0.31-3.929-0.611-7.118-0.712-7.521l-5.856,0.604v6.917H274.962z"></path><path style="opacity:0.3;fill:#FFFFFF;" d="M268.394,319.086h7.114c-0.151-2.559-0.35-5.334-0.546-7.815h-6.568V319.086z"></path><path style="fill:#6E6E6E;" d="M268.394,326.913h7.36c0.077-1.413-0.043-4.423-0.246-7.827h-7.114V326.913z"></path><path style="opacity:0.3;fill:#FFFFFF;" d="M268.394,334.729h7.821v-6.702c-0.163-0.374-0.319-0.719-0.465-1.026c0.002-0.026,0.002-0.06,0.004-0.087h-7.36V334.729z"></path><path style="fill:#505050;" d="M278.806,334.729c-0.95-2.682-1.854-5.016-2.591-6.702v6.702H278.806z"></path><rect x="268.394" y="334.729" style="fill:#6E6E6E;" width="7.821" height="7.827"></rect><rect x="268.394" y="342.557" style="opacity:0.3;fill:#FFFFFF;" width="7.821" height="7.815"></rect><path style="opacity:0.3;fill:#FFFFFF;" d="M276.215,342.557h5.166c-0.841-2.758-1.726-5.43-2.575-7.827h-2.591V342.557z"></path><path style="fill:#505050;" d="M276.215,350.372h7.341c-0.638-2.562-1.384-5.221-2.175-7.815h-5.166V350.372z"></path><path style="fill:#6E6E6E;" d="M268.394,350.372v7.827h5.322c0.888-0.186,1.718-0.379,2.499-0.577v-7.25H268.394z"></path><path style="opacity:0.3;fill:#FFFFFF;" d="M268.394,359.115c1.957-0.273,3.729-0.583,5.322-0.916h-5.322V359.115z"></path><path style="opacity:0.3;fill:#FFFFFF;" d="M276.215,357.622c3.695-0.935,6.225-1.974,7.828-2.86v-2.353c-0.153-0.67-0.316-1.35-0.487-2.037h-7.341V357.622z"></path><polygon style="fill:#6E6E6E;" points="260.565,311.271 260.565,305.161 252.744,305.967 252.744,311.271 "></polygon><rect x="252.744" y="311.271" style="opacity:0.3;fill:#FFFFFF;" width="7.821" height="7.815"></rect><polygon style="opacity:0.3;fill:#FFFFFF;" points="268.394,311.271 268.394,304.354 260.565,305.161 260.565,311.271 "></polygon><rect x="260.565" y="311.271" style="fill:#505050;" width="7.828" height="7.815"></rect><rect x="252.744" y="319.086" style="fill:#6E6E6E;" width="7.821" height="7.827"></rect><rect x="252.744" y="326.913" style="opacity:0.3;fill:#FFFFFF;" width="7.821" height="7.815"></rect><rect x="260.565" y="319.086" style="opacity:0.3;fill:#FFFFFF;" width="7.828" height="7.827"></rect><rect x="260.565" y="326.913" style="fill:#505050;" width="7.828" height="7.815"></rect><rect x="252.744" y="334.729" style="fill:#6E6E6E;" width="7.821" height="7.827"></rect><rect x="252.744" y="342.557" style="opacity:0.3;fill:#FFFFFF;" width="7.821" height="7.815"></rect><rect x="260.565" y="334.729" style="opacity:0.3;fill:#FFFFFF;" width="7.828" height="7.827"></rect><rect x="260.565" y="342.557" style="fill:#505050;" width="7.828" height="7.815"></rect><rect x="252.744" y="350.372" style="fill:#6E6E6E;" width="7.821" height="7.827"></rect><path style="opacity:0.3;fill:#FFFFFF;" d="M252.744,358.199v2.027c2.813-0.044,5.422-0.151,7.821-0.314v-1.713H252.744z"></path><rect x="260.565" y="350.372" style="opacity:0.3;fill:#FFFFFF;" width="7.828" height="7.827"></rect><path style="fill:#505050;" d="M260.565,358.199v1.713c2.896-0.196,5.493-0.471,7.828-0.797v-0.916H260.565z"></path><polygon style="fill:#6E6E6E;" points="244.917,311.271 244.917,305.726 237.095,304.92 237.095,311.271 "></polygon><rect x="237.095" y="311.271" style="opacity:0.3;fill:#FFFFFF;" width="7.821" height="7.815"></rect><polygon style="opacity:0.3;fill:#FFFFFF;" points="252.744,311.271 252.744,305.967 250,306.25 244.917,305.726 244.917,311.271 "></polygon><rect x="244.917" y="311.271" style="fill:#505050;" width="7.828" height="7.815"></rect><rect x="237.095" y="319.086" style="fill:#6E6E6E;" width="7.821" height="7.827"></rect><rect x="237.095" y="326.913" style="opacity:0.3;fill:#FFFFFF;" width="7.821" height="7.815"></rect><rect x="244.917" y="319.086" style="opacity:0.3;fill:#FFFFFF;" width="7.828" height="7.827"></rect><rect x="244.917" y="326.913" style="fill:#505050;" width="7.828" height="7.815"></rect><rect x="237.095" y="334.729" style="fill:#6E6E6E;" width="7.821" height="7.827"></rect><rect x="237.095" y="342.557" style="opacity:0.3;fill:#FFFFFF;" width="7.821" height="7.815"></rect><rect x="244.917" y="334.729" style="opacity:0.3;fill:#FFFFFF;" width="7.828" height="7.827"></rect><rect x="244.917" y="342.557" style="fill:#505050;" width="7.828" height="7.815"></rect><rect x="237.095" y="350.372" style="fill:#6E6E6E;" width="7.821" height="7.827"></rect><path style="opacity:0.3;fill:#FFFFFF;" d="M237.095,358.199v1.53c2.385,0.207,4.987,0.36,7.821,0.445v-1.976H237.095z"></path><rect x="244.917" y="350.372" style="opacity:0.3;fill:#FFFFFF;" width="7.828" height="7.827"></rect><path style="fill:#505050;" d="M244.917,358.199v1.976c1.62,0.048,3.31,0.075,5.083,0.075c0.939,0,1.849-0.01,2.744-0.023v-2.027H244.917z"></path><path style="fill:#6E6E6E;" d="M229.268,304.112l-3.518-0.362c-0.101,0.402-0.403,3.592-0.712,7.521h4.23V304.112z"></path><path style="opacity:0.3;fill:#FFFFFF;" d="M229.268,311.271h-4.23c-0.195,2.481-0.394,5.257-0.546,7.815h4.776V311.271z"></path><polygon style="opacity:0.3;fill:#FFFFFF;" points="237.095,311.271 237.095,304.92 229.268,304.112 229.268,311.271 "></polygon><rect x="229.268" y="311.271" style="fill:#505050;" width="7.828" height="7.815"></rect><path style="fill:#6E6E6E;" d="M229.268,319.086h-4.776c-0.203,3.404-0.322,6.414-0.246,7.827h5.021V319.086z"></path><path style="opacity:0.3;fill:#FFFFFF;" d="M229.268,334.729v-7.815h-5.021c0.001,0.027,0.002,0.061,0.004,0.087c-0.745,1.572-1.738,4.06-2.804,7.023v0.705H229.268z"></path><rect x="229.268" y="319.086" style="opacity:0.3;fill:#FFFFFF;" width="7.828" height="7.827"></rect><rect x="229.268" y="326.913" style="fill:#505050;" width="7.828" height="7.815"></rect><rect x="221.446" y="334.729" style="fill:#6E6E6E;" width="7.821" height="7.827"></rect><rect x="221.446" y="342.557" style="opacity:0.3;fill:#FFFFFF;" width="7.821" height="7.815"></rect><rect x="229.268" y="334.729" style="opacity:0.3;fill:#FFFFFF;" width="7.828" height="7.827"></rect><rect x="229.268" y="342.557" style="fill:#505050;" width="7.828" height="7.815"></rect><path style="fill:#6E6E6E;" d="M229.268,350.372h-7.821v6.601c1.393,0.425,2.997,0.841,4.838,1.227h2.983V350.372z"></path><path style="opacity:0.3;fill:#FFFFFF;" d="M229.268,358.199h-2.983c0.932,0.195,1.928,0.382,2.983,0.558V358.199z"></path><rect x="229.268" y="350.372" style="opacity:0.3;fill:#FFFFFF;" width="7.828" height="7.827"></rect><path style="fill:#505050;" d="M229.268,358.199v0.558c2.301,0.386,4.901,0.719,7.828,0.973v-1.53H229.268z"></path><path style="fill:#505050;" d="M221.446,334.023c-0.083,0.232-0.167,0.467-0.251,0.705h0.251V334.023z"></path><path style="opacity:0.3;fill:#FFFFFF;" d="M221.446,334.729h-0.252c-0.85,2.397-1.735,5.069-2.575,7.827h2.827V334.729z"></path><path style="fill:#505050;" d="M221.446,342.557h-2.827c-0.791,2.595-1.537,5.254-2.174,7.815h5.001V342.557z"></path><path style="opacity:0.3;fill:#FFFFFF;" d="M216.445,350.372c-0.352,1.416-0.673,2.804-0.945,4.128c1.241,0.745,3.172,1.626,5.946,2.473v-6.601H216.445z"></path></g><g><path style="fill:none;stroke:#000000;stroke-linecap:round;stroke-linejoin:round;" d="M275.75,327c0.25-4-1.25-22.25-1.5-23.25l-24.25,2.5l-24.25-2.5c-0.25,1-1.75,19.25-1.5,23.25c-2.25,4.75-6.75,17.75-8.75,27.5c3.75,2.25,13.75,5.75,34.5,5.75s30.75-3.5,34.5-5.75C282.5,344.75,278,331.75,275.75,327z"></path></g></g><g id="topsXMLID_2_"><g><path style="fill:#505050;" d="M221.17,293.92c0,0,4.91,5.08,25.5,5.08c16.71,0,25.54-7.5,28.271-10.32c0.81,0.32,2.56,0.32,2.56,0.32s3.25,3.5,6.25,8c-7.37,8.88-18,14.25-33.42,14c-2-0.67-3.66-0.33-3.66-0.33s-2.67,1.33-3.34,2c-14.58-0.67-26-8-26-8l-2.58,1.45l-0.63-3.5c0,0,2.63-2.62,4.88-9.95c1.62-0.79,4-1.55,4-1.55L221.17,293.92z"></path></g><g><path style="fill:#6E6E6E;" d="M276.215,295.628v-6.696c-0.46-0.046-0.944-0.121-1.274-0.252c-1.116,1.152-3.271,3.087-6.547,4.972v1.977H276.215z"></path><rect x="268.394" y="295.628" style="opacity:0.3;fill:#FFFFFF;" width="7.821" height="7.815"></rect><path style="opacity:0.3;fill:#FFFFFF;" d="M276.215,288.932v6.696h6.591C280.106,291.81,277.5,289,277.5,289S276.884,288.998,276.215,288.932z"></path><path style="fill:#505050;" d="M276.215,303.443h0.716c2.534-1.86,4.804-4.015,6.819-6.443c-0.313-0.471-0.63-0.927-0.944-1.372h-6.591V303.443z"></path><path style="fill:#6E6E6E;" d="M268.394,303.443v4.653c2.855-1.098,5.455-2.487,7.821-4.136v-0.518H268.394z"></path><path style="opacity:0.3;fill:#FFFFFF;" d="M276.215,303.961c0.242-0.169,0.479-0.344,0.716-0.518h-0.716V303.961z"></path><path style="opacity:0.3;fill:#FFFFFF;" d="M260.565,303.443v-6.425c-2.321,0.71-4.917,1.286-7.821,1.629v4.796H260.565z"></path><path style="opacity:0.3;fill:#FFFFFF;" d="M268.394,293.651c-1.18,0.679-2.495,1.35-3.977,1.977h3.977V293.651z"></path><path style="fill:#505050;" d="M268.394,303.443v-7.815h-3.977c-1.183,0.501-2.471,0.968-3.852,1.391v6.425H268.394z"></path><path style="fill:#6E6E6E;" d="M252.744,303.443v7.541c2.766-0.063,5.369-0.317,7.821-0.746v-6.795H252.744z"></path><path style="opacity:0.3;fill:#FFFFFF;" d="M260.565,303.443v6.795c2.804-0.49,5.408-1.211,7.828-2.142v-4.653H260.565z"></path><path style="opacity:0.3;fill:#FFFFFF;" d="M244.917,303.443v-4.457c-2.939-0.043-5.531-0.193-7.821-0.416v4.873H244.917z"></path><path style="fill:#505050;" d="M252.744,303.443v-4.796c-1.898,0.224-3.918,0.353-6.074,0.353c-0.599,0-1.181-0.005-1.753-0.014v4.457H252.744z"></path><rect x="237.095" y="303.443" style="fill:#6E6E6E;" width="7.821" height="7.827"></rect><path style="opacity:0.3;fill:#FFFFFF;" d="M237.095,311.271v0.707c1.992,0.346,4.078,0.593,6.235,0.692c0.286-0.286,0.936-0.691,1.586-1.063v-0.337H237.095z"></path><path style="opacity:0.3;fill:#FFFFFF;" d="M244.917,303.443v7.827h0.605c0.634-0.345,1.148-0.601,1.148-0.601s1.66-0.34,3.66,0.33c0.82,0.014,1.62,0.002,2.414-0.016v-7.541H244.917z"></path><path style="fill:#505050;" d="M244.917,311.607c0.206-0.117,0.411-0.231,0.605-0.337h-0.605V311.607z"></path><path style="fill:#6E6E6E;" d="M223,291.12c0,0-0.679,0.218-1.554,0.538v1.839L223,291.12z"></path><path style="fill:#6E6E6E;" d="M224.038,295.628c-1.409-0.624-2.213-1.173-2.591-1.471v1.471H224.038z"></path><path style="opacity:0.3;fill:#FFFFFF;" d="M221.446,303.443h7.821v-6.12c-2.294-0.545-3.996-1.148-5.23-1.695h-2.591V303.443z"></path><path style="fill:#505050;" d="M237.095,303.443v-4.873c-3.162-0.307-5.741-0.751-7.828-1.247v6.12H237.095z"></path><path style="fill:#6E6E6E;" d="M221.446,303.443v3.452c2.01,0.972,4.676,2.116,7.821,3.134v-6.586H221.446z"></path><path style="opacity:0.3;fill:#FFFFFF;" d="M237.095,303.443h-7.828v6.586c1.382,0.448,2.855,0.869,4.406,1.241h3.421V303.443z"></path><path style="fill:#505050;" d="M233.674,311.271c1.104,0.265,2.245,0.503,3.421,0.707v-0.707H233.674z"></path><path style="opacity:0.3;fill:#FFFFFF;" d="M221.446,294.157c-0.19-0.149-0.276-0.237-0.276-0.237l0.276-0.423v-1.839c-0.769,0.282-1.688,0.642-2.446,1.012c-0.335,1.093-0.679,2.068-1.021,2.958h3.467V294.157z"></path><path style="fill:#505050;" d="M221.446,295.628h-3.467c-1.954,5.083-3.859,6.992-3.859,6.992l0.148,0.823h7.178V295.628z"></path><path style="opacity:0.3;fill:#FFFFFF;" d="M214.268,303.443l0.482,2.677l2.58-1.45c0,0,1.507,0.965,4.116,2.226v-3.452H214.268z"></path></g><g><path style="fill:none;stroke:#000000;stroke-linecap:round;stroke-linejoin:round;" d="M221.17,293.92c0,0,4.91,5.08,25.5,5.08c16.71,0,25.54-7.5,28.271-10.32c0.81,0.32,2.56,0.32,2.56,0.32s3.25,3.5,6.25,8c-7.37,8.88-18,14.25-33.42,14c-2-0.67-3.66-0.33-3.66-0.33s-2.67,1.33-3.34,2c-14.58-0.67-26-8-26-8l-2.58,1.45l-0.63-3.5c0,0,2.63-2.62,4.88-9.95c1.62-0.79,4-1.55,4-1.55L221.17,293.92z"></path></g></g></g></g></svg>