<svg xmlns="http://www.w3.org/2000/svg" width="500" height="500" version="1.1"><g id="x189"><g><path style="fill:#6E6E6E;stroke:#000000;stroke-linecap:round;stroke-linejoin:round;" d="M277,321.25c-1-5-1.75-9-2.25-11.5s-2.5-10-2.5-10s-0.25-8.5,0.5-14.25c-5-4-12.5-5-12.5-5L250,287.75l-10.25-7.25c0,0-7.5,1-12.5,5c0.75,5.75,0.5,14.25,0.5,14.25s-2,7.5-2.5,10s-1.25,6.5-2.25,11.5s-5,9-5,9c1.25,3.5,3,6.25,3,6.25h58c0,0,1.75-2.75,3-6.25C282,330.25,278,326.25,277,321.25z"></path><path style="fill:#505050;" d="M239.833,291.583c0,0,0.916,6.583,1.583,6.5s0.667-5.083,0.667-5.083L239.833,291.583z"></path><path style="fill:#505050;" d="M257.667,293.083c0,0,0.667,4.584,1.25,4.667s1.083-5.5,1.083-5.5L257.667,293.083z"></path><path style="fill:#505050;" d="M264.75,296.666c0,0,1.251-5.332,1.417-4.666s-0.834,9.916-1.167,9.333S264.75,296.666,264.75,296.666z"></path><path style="fill:#505050;" d="M234.959,296.666c0,0-1.251-5.332-1.417-4.666s0.834,9.916,1.167,9.333S234.959,296.666,234.959,296.666z"></path><path style="fill:#505050;" d="M239.333,331.417c0.417,0.583,1.583,2.249,3,2.916c2.75,0.167,5.083,0,5.083,0l-1.583-2.083c0,0-2.75,0.833-3.75,0.5s-3.333-1.417-3.333-1.417"></path><path style="fill:#505050;" d="M233.583,313c0,0-3.583,6.334-4.5,6.417c0-3,1.667-6.334,1.667-6.334L233.583,313z"></path><path style="fill:#505050;" d="M244.167,313.083c0,0-2.084,7.167-3.167,6.917s-0.583-6.833-0.583-6.833L244.167,313.083z"></path><path style="fill:#505050;" d="M258.417,334.167c0,0,11.666-3.668,12.833-3.334c-0.055,0.633-1.595,1.437-1.583,2c0.024,1.145,1.667,1.834,1.667,1.834L258.417,334.167z"></path><path style="fill:#505050;" d="M265.667,313c0,0,2.499,4.167,5.083,6.25c-0.75-3.833-1.833-6.167-1.833-6.167L265.667,313z"></path><path style="fill:#505050;" d="M255.917,313c0,0,1.833,6.75,3.75,7s1-6.75,1-6.75L255.917,313z"></path><g><g><g><path style="fill:none;stroke:#000000;stroke-linecap:round;stroke-linejoin:round;" d="M257.548,292.667c0,0,0.666,5.499,1.333,5.666s1.667-7.333,1.667-7.333"></path><path style="fill:none;stroke:#000000;stroke-linecap:round;stroke-linejoin:round;" d="M262.048,298.333c0,0,1.332-5.834,1.666-9.5"></path><path style="fill:none;stroke:#000000;stroke-linecap:round;stroke-linejoin:round;" d="M264.548,297.833c0,0,1.832-9,2.166-9.333s-0.5,11.833-1.5,13.5"></path></g><line style="fill:none;stroke:#000000;stroke-linecap:round;stroke-linejoin:round;" x1="253.256" y1="312.75" x2="274.943" y2="312.75"></line><line style="fill:none;stroke:#000000;stroke-linecap:round;stroke-linejoin:round;" x1="253.256" y1="302.416" x2="272.754" y2="302.416"></line><path style="fill:none;stroke:#000000;stroke-linecap:round;stroke-linejoin:round;" d="M253.381,310.834c0,0,2.667,0.249,3.167,0.083s0.666-2.833,1.083-3.083s1.083,2.667,1.5,2.667s4.001-0.25,4.417-0.167s0.834-3.501,1.25-3.667c0.5,1.417,2.333,3.584,2.333,3.584l3.083,0.25c0,0,0.334-1.666,0.584-1.5s0.75,1.749,1,1.666s1.916-1.499,1.916-2.666"></path><path style="fill:none;stroke:#000000;stroke-linecap:round;stroke-linejoin:round;" d="M270.798,306.834c0,0,0.749-2.333,0.166-2.667s-3.167-0.333-3.5-0.083s-1.5,1.667-1.75,1.167s-0.666-1.417-0.916-1.417s-3.417-0.083-3.5,0.167s-0.834,4-0.834,4"></path><path style="fill:none;stroke:#000000;stroke-linecap:round;stroke-linejoin:round;" d="M259.464,307.501c0,0-0.582-3.666-0.916-3.75c-0.136-0.034-1.041-0.013-2.086,0.041"></path><path style="fill:none;stroke:#000000;stroke-linecap:round;stroke-linejoin:round;" d="M272.131,308.251c0,0,0.916-1.833,1.083-3.5"></path><path style="fill:none;stroke:#000000;stroke-linecap:round;stroke-linejoin:round;" d="M255.381,309.501c0,0,1.084-4.5,1.167-5"></path><path style="fill:none;stroke:#000000;stroke-linecap:round;stroke-linejoin:round;" d="M271.381,291.833c0,0-1.334,8.333-2.667,10.5"></path><path style="fill:none;stroke:#000000;stroke-linecap:round;stroke-linejoin:round;" d="M269.048,312.833c0,0,2.333,6.5,2.333,8.167"></path><path style="fill:none;stroke:#000000;stroke-linecap:round;stroke-linejoin:round;" d="M257.548,313c0,0,1.167,6.833,2,6.5s-0.5-6.833-0.5-6.833"></path></g><g><g><path style="fill:none;stroke:#000000;stroke-linecap:round;stroke-linejoin:round;" d="M242.452,292.667c0,0-0.666,5.499-1.333,5.666S239.452,291,239.452,291"></path><path style="fill:none;stroke:#000000;stroke-linecap:round;stroke-linejoin:round;" d="M237.952,298.333c0,0-1.332-5.834-1.666-9.5"></path><path style="fill:none;stroke:#000000;stroke-linecap:round;stroke-linejoin:round;" d="M235.452,297.833c0,0-1.832-9-2.166-9.333s0.5,11.833,1.5,13.5"></path></g><line style="fill:none;stroke:#000000;stroke-linecap:round;stroke-linejoin:round;" x1="246.744" y1="312.75" x2="225.056" y2="312.75"></line><line style="fill:none;stroke:#000000;stroke-linecap:round;stroke-linejoin:round;" x1="246.744" y1="302.416" x2="227.246" y2="302.416"></line><path style="fill:none;stroke:#000000;stroke-linecap:round;stroke-linejoin:round;" d="M246.619,310.834c0,0-2.667,0.249-3.167,0.083s-0.666-2.833-1.083-3.083s-1.083,2.667-1.5,2.667s-4.001-0.25-4.417-0.167s-0.834-3.501-1.25-3.667c-0.5,1.417-2.333,3.584-2.333,3.584l-3.083,0.25c0,0-0.334-1.666-0.584-1.5s-0.75,1.749-1,1.666s-1.916-1.499-1.916-2.666"></path><path style="fill:none;stroke:#000000;stroke-linecap:round;stroke-linejoin:round;" d="M229.202,306.834c0,0-0.749-2.333-0.166-2.667s3.167-0.333,3.5-0.083s1.5,1.667,1.75,1.167s0.666-1.417,0.916-1.417s3.417-0.083,3.5,0.167s0.834,4,0.834,4"></path><path style="fill:none;stroke:#000000;stroke-linecap:round;stroke-linejoin:round;" d="M240.536,307.501c0,0,0.582-3.666,0.916-3.75c0.136-0.034,1.041-0.013,2.086,0.041"></path><path style="fill:none;stroke:#000000;stroke-linecap:round;stroke-linejoin:round;" d="M227.869,308.251c0,0-0.916-1.833-1.083-3.5"></path><path style="fill:none;stroke:#000000;stroke-linecap:round;stroke-linejoin:round;" d="M244.619,309.501c0,0-1.084-4.5-1.167-5"></path><path style="fill:none;stroke:#000000;stroke-linecap:round;stroke-linejoin:round;" d="M228.619,291.833c0,0,1.334,8.333,2.667,10.5"></path><path style="fill:none;stroke:#000000;stroke-linecap:round;stroke-linejoin:round;" d="M230.952,312.833c0,0-2.333,6.5-2.333,8.167"></path><path style="fill:none;stroke:#000000;stroke-linecap:round;stroke-linejoin:round;" d="M242.452,313c0,0-1.167,6.833-2,6.5s0.5-6.833,0.5-6.833"></path></g></g><polyline style="fill:none;stroke:#000000;stroke-linecap:round;stroke-linejoin:round;" points="253,289 253,314.25 247,314.25 247,289 "></polyline><circle style="fill:#6E6E6E;stroke:#000000;stroke-linecap:round;stroke-linejoin:round;" cx="250" cy="292.25" r="1.75"></circle><circle style="fill:#6E6E6E;stroke:#000000;stroke-linecap:round;stroke-linejoin:round;" cx="250" cy="308.25" r="1.75"></circle><g><path style="fill:#6E6E6E;stroke:#000000;stroke-linecap:round;stroke-linejoin:round;" d="M280.75,337.25c0-0.736-1.421-1.539-2.172-1.912C278.529,335.124,278.5,335,278.5,335s-7.75-0.25-28.5-0.25S221.5,335,221.5,335s-0.056,0.238-0.144,0.622l-0.231-0.372c-0.125,0.375-1.625,2-1.5,3c0.033,0.263,0.408,0.578,0.945,0.916c-0.418,1.955-0.82,3.985-0.82,4.584c9.75,0,30.25,0,30.25,0s20.5,0,30.25,0c0-0.656-0.481-3.031-0.939-5.143C280.128,338.119,280.75,337.638,280.75,337.25z"></path><path style="fill:#6E6E6E;stroke:#000000;stroke-linecap:round;stroke-linejoin:round;" d="M245.167,330.5c0,0,2.667,5.166,5.667,6.333C254.5,336.333,263,332.5,263,332.5"></path><path style="fill:none;stroke:#000000;stroke-linecap:round;stroke-linejoin:round;" d="M260.833,322c0,0,1.333,3.666,1,4.833s-4.166,5.668-5.666,6.834"></path><path style="fill:none;stroke:#000000;stroke-linecap:round;stroke-linejoin:round;" d="M234.75,341.375c0.375,0,14.75-4.5,32.625-6.5"></path></g><path style="fill:none;stroke:#000000;stroke-linecap:round;stroke-linejoin:round;" d="M257.625,334.551c0,0,10.5-4.625,17-4.125"></path><path style="fill:none;stroke:#000000;stroke-linecap:round;stroke-linejoin:round;" d="M228.833,323.167c0,0-2.167,7-2.167,7.5s2.834,3.5,3.667,4"></path><path style="fill:none;stroke:#000000;stroke-linecap:round;stroke-linejoin:round;" d="M241.333,334c0,0-3.333-2.5-3.833-3.5"></path><path style="fill:none;stroke:#000000;stroke-linecap:round;stroke-linejoin:round;" d="M240.452,319.5c0,0-1.951,6.833-2.118,8"></path></g></g></svg>