<svg xmlns="http://www.w3.org/2000/svg" width="500" height="500" version="1.1"><g id="x019"><path style="fill:#6E6E6E;stroke:#000000;stroke-linecap:round;stroke-linejoin:round;" d="M279.5,335.667l-2.5-5l-27,5l-27-5l-2.5,5c0,0,4,5.208,29.5,5.208S279.5,335.667,279.5,335.667z"></path><g><g><g><path style="fill:#6E6E6E;stroke:#000000;stroke-linecap:round;stroke-linejoin:round;" d="M227.5,300.251c-1.333,1.667-2.417,5.583-2.083,8.75c-1.285,6.852-0.709,10.249-1.209,13.749l-1.875,8.251c0,0,6.583,4.5,27.667,4.5c0-22.25,0-27.333,0-27.333s-5.065-7.085-13.741-12.501C234.667,295.418,228.583,299.085,227.5,300.251z"></path><path style="fill:none;stroke:#000000;stroke-linecap:round;stroke-linejoin:round;" d="M225.583,308.418c0,0,4.75,5.832,8.667,7.416c6.833-1.083,14.667-5.916,14.667-5.916"></path><path style="fill:none;stroke:#000000;stroke-linecap:round;stroke-linejoin:round;" d="M234.083,316.084c0,0-0.333,9.083-0.75,11.5c-0.167,2.334-1.333,6.167-1.333,6.167"></path></g><g><path style="fill:#6E6E6E;stroke:#000000;stroke-linecap:round;stroke-linejoin:round;" d="M272.501,300.251c1.332,1.667,2.416,5.583,2.082,8.75c1.285,6.852,0.709,10.249,1.209,13.749l1.875,8.251c0,0-6.583,4.5-27.668,4.5c0-22.25,0-27.333,0-27.333s5.066-7.085,13.742-12.501C265.333,295.418,271.417,299.085,272.501,300.251z"></path><path style="fill:none;stroke:#000000;stroke-linecap:round;stroke-linejoin:round;" d="M274.417,308.418c0,0-4.75,5.832-8.666,7.416c-6.834-1.083-14.668-5.916-14.668-5.916"></path><path style="fill:none;stroke:#000000;stroke-linecap:round;stroke-linejoin:round;" d="M265.917,316.084c0,0,0.334,9.083,0.75,11.5c0.166,2.334,1.334,6.167,1.334,6.167"></path></g></g></g></g></svg>