<svg xmlns="http://www.w3.org/2000/svg" width="500" height="500" version="1.1"><g id="x190"><g><path style="fill:#FFFFFF;stroke:#000000;stroke-linecap:round;stroke-linejoin:round;" d="M260.125,281.25L250,289.75l-10.125-8.5c-4.663,21.155,7.436,35.994,10.125,38.967C252.689,317.244,264.788,302.405,260.125,281.25z"></path><g><circle style="fill:#6E6E6E;stroke:#000000;stroke-linecap:round;stroke-linejoin:round;" cx="250" cy="295.75" r="2.25"></circle><circle style="fill:#6E6E6E;stroke:#000000;stroke-linecap:round;stroke-linejoin:round;" cx="250" cy="302.75" r="2.25"></circle><circle style="fill:#6E6E6E;stroke:#000000;stroke-linecap:round;stroke-linejoin:round;" cx="250" cy="309.75" r="2.25"></circle></g></g><g><g><path style="fill:#6E6E6E;stroke:#000000;stroke-linecap:round;stroke-linejoin:round;" d="M234.125,283.25c1.75-1.25,5.5-2,5.5-2s-4.75,14,10.333,35.25c0,14.167,0,30.667,0,30.667s-15.167,15.834-16.5,16.667S212.875,376.5,212.875,376.5s1-4.75,1.083-23.166c1.167-4.5,4.572-11.02,4.833-11.333c0,0,2.167-9.5,3.5-10.834c-0.833-1.5,2.642-22.837,3.167-26.333C226.105,300.524,230.351,288.517,234.125,283.25z"></path><path style="fill:#505050;" d="M214.542,365.75c0,0-0.75,7.75,1.25,10.75c8.75-6.75,20.083-19.25,20.333-20.25C226.375,360.5,214.542,365.75,214.542,365.75z"></path><path style="fill:none;stroke:#000000;stroke-linecap:round;stroke-linejoin:round;" d="M227.625,300.25c0,0,3,7.833,3,9s-2.333,22.584-2.333,22.584l-2,8.667c0,0-3,9.833-3.333,11.333"></path><path style="fill:none;stroke:#000000;stroke-linecap:round;stroke-linejoin:round;" d="M215.792,355.001c0.167-0.5,9-4,16.5-6.5"></path><path style="fill:#6E6E6E;stroke:#000000;stroke-linecap:round;stroke-linejoin:round;" d="M237.542,360.5c0,0-18.25,20.417-19.417,21.25c-3.667,1.5-11.416-2.25-13.583-2.75c7.833-6.167,30.417-19.083,32.083-23.75"></path></g><g><path style="fill:#6E6E6E;stroke:#000000;stroke-linecap:round;stroke-linejoin:round;" d="M265.877,283.25c-1.75-1.25-5.5-2-5.5-2s4.75,14-10.335,35.25c0,14.167,0,30.667,0,30.667s15.168,15.834,16.502,16.667c1.333,0.833,20.583,12.666,20.583,12.666s-1-4.75-1.083-23.166c-1.167-4.5-4.572-11.02-4.834-11.333c0,0-2.166-9.5-3.5-10.834c0.834-1.5-2.643-22.837-3.166-26.333C273.897,300.524,269.651,288.517,265.877,283.25z"></path><path style="fill:#505050;" d="M223,351.5c0,0,3.25-6.5,4.75-7.5c2.75-0.75,31.25-4,40,0.25c4.25,1.75,7.75,6.5,7.75,6.5s-19-3.75-26.75-4S223,351.5,223,351.5z"></path><path style="fill:#505050;" d="M237.75,335.5c0,0,20,1.25,27-0.25C254.25,331,253.25,331,250,331s-12.25,3.75-12.25,3.75"></path><path style="fill:#505050;" d="M285.46,365.75c0,0,0.75,7.75-1.25,10.75c-8.75-6.75-20.083-19.25-20.333-20.25C273.627,360.5,285.46,365.75,285.46,365.75z"></path><path style="fill:none;stroke:#000000;stroke-linecap:round;stroke-linejoin:round;" d="M272.377,300.25c0,0-3,7.833-3,9s2.333,22.584,2.333,22.584l2,8.667c0,0,3,9.833,3.334,11.333"></path><path style="fill:none;stroke:#000000;stroke-linecap:round;stroke-linejoin:round;" d="M284.21,355.001c-0.166-0.5-9-4-16.5-6.5"></path><path style="fill:#6E6E6E;stroke:#000000;stroke-linecap:round;stroke-linejoin:round;" d="M262.46,360.5c0,0,18.25,20.417,19.417,21.25c3.667,1.5,11.416-2.25,13.583-2.75c-7.833-6.167-30.416-19.083-32.083-23.75"></path></g></g><path style="fill:none;stroke:#000000;stroke-linecap:round;stroke-linejoin:round;" d="M233.75,344c0,0,18.5-3.25,36,0"></path><g><circle style="fill:#FFFFFF;stroke:#000000;stroke-linecap:round;stroke-linejoin:round;" cx="250" cy="320.75" r="2.25"></circle><circle style="fill:#FFFFFF;stroke:#000000;stroke-linecap:round;stroke-linejoin:round;" cx="250" cy="328.75" r="2.25"></circle><circle style="fill:#FFFFFF;stroke:#000000;stroke-linecap:round;stroke-linejoin:round;" cx="250" cy="336.75" r="2.25"></circle><circle style="fill:#FFFFFF;stroke:#000000;stroke-linecap:round;stroke-linejoin:round;" cx="250" cy="344.75" r="2.25"></circle></g><g><path style="fill:#FFFFFF;stroke:#000000;stroke-linecap:round;stroke-linejoin:round;" d="M250.374,289.75l-2.5,1.25l-10.5,8.75c0,0-1.5-16-0.25-18c1.5-1.25,2.75-1.75,2.75-1.75L250.374,289.75z"></path><path style="fill:#FFFFFF;stroke:#000000;stroke-linecap:round;stroke-linejoin:round;" d="M249.626,289.75l2.5,1.25l10.5,8.75c0,0,1.5-16,0.25-18c-1.5-1.25-2.75-1.75-2.75-1.75L249.626,289.75z"></path></g></g></svg>