<svg xmlns="http://www.w3.org/2000/svg" width="500" height="500" version="1.1"><g id="x191"><g><g><g><g><path style="fill:#6E6E6E;stroke:#000000;stroke-linecap:round;stroke-linejoin:round;" d="M217.73,303.313c-3,0.5-7.665,0.888-8.125,1.271c-0.917,3.5-2.783,16.069-3,17.084s9.404,8.181,18.678,7.601c4.637-9.563,5.869-17.533,5.869-17.533S224.091,305.197,217.73,303.313z"></path><path style="fill:#FFFFFF;" d="M207.73,317.625c0,0,0.803-4.919,0.875-5.209c1.333,1.917,10.424,6.599,16.583,7.25c0.333,2.75-0.125,5.501-0.125,5.501S212.078,322.479,207.73,317.625z"></path></g><path style="fill:#FFFFFF;stroke:#000000;stroke-linecap:round;stroke-linejoin:round;" d="M228.402,286.25c0,0-3.859,2.813-5.359,5.563c-4.755,6.137-8.313,13.938-8.375,15c0,0,1.625,1.813,6.125,4.063s7.984,1.375,7.984,1.375l4.875-17.25L228.402,286.25z"></path><path style="fill:#E4E0F3;" d="M226.939,298.334c0,0-5.542,6.874-6.208,9.541c0.875,2.5,4.125,4.125,4.125,4.125l4.558-13.138L226.939,298.334z"></path></g><g><g><path style="fill:#6E6E6E;stroke:#000000;stroke-linecap:round;stroke-linejoin:round;" d="M282.27,303.313c3,0.5,7.665,0.888,8.125,1.271c0.916,3.5,2.783,16.069,3,17.084s-9.404,8.181-18.678,7.601c-4.638-9.563-5.869-17.533-5.869-17.533S275.908,305.197,282.27,303.313z"></path><path style="fill:#FFFFFF;" d="M292.27,317.625c0,0-0.803-4.919-0.875-5.209c-1.334,1.917-10.425,6.599-16.584,7.25c-0.332,2.75,0.125,5.501,0.125,5.501S287.922,322.479,292.27,317.625z"></path></g><path style="fill:#FFFFFF;stroke:#000000;stroke-linecap:round;stroke-linejoin:round;" d="M271.598,286.25c0,0,3.859,2.813,5.359,5.563c4.755,6.137,8.313,13.938,8.375,15c0,0-1.625,1.813-6.125,4.063s-7.984,1.375-7.984,1.375L266.348,295L271.598,286.25z"></path><path style="fill:#E4E0F3;" d="M273.061,298.334c0,0,5.543,6.874,6.209,9.541c-0.875,2.5-4.125,4.125-4.125,4.125l-4.558-13.138L273.061,298.334z"></path></g></g><path style="fill:#FFFFFF;stroke:#000000;stroke-linecap:round;stroke-linejoin:round;" d="M250,354.25c13,0,29.5-2.5,33.75-6C283.25,345,276,330.5,276,330.5s0.75-12.5-1.25-21c-1.234-5.253-1.75-9.5-4.25-13.75c0.75-1.5,1.75-9.5,1.75-9.5l-8-4.25L250,293l-14.25-11l-8,4.25c0,0,1,8,1.75,9.5c-2.5,4.25-3.014,8.497-4.25,13.75c-2,8.5-1.25,21-1.25,21s-7.25,14.5-7.75,17.75C220.5,351.75,236.999,354.25,250,354.25L250,354.25L250,354.25L250,354.25z"></path><path style="fill:#E4E0F3;" d="M274.875,314.75C265,317.875,250,316.5,250,316.5s-15,1.375-24.875-1.75c-0.5,5.125-0.75,13,0.625,22.125C226.125,338.75,237.5,348,250,348s23.875-9.25,24.25-11.125C275.625,327.75,275.375,319.875,274.875,314.75z"></path><g><path style="fill:#E4E0F3;" d="M233.756,284.625c0,0-1,14.75,16.125,14.75c0-11,0-10.125,0-10.125l-13.5-6.75l-2.375,0.75L233.756,284.625z"></path><path style="fill:#E4E0F3;" d="M266.24,284.625c0,0,1,14.75-16.12,14.75c0-11,0-10.125,0-10.125l13.495-6.75l2.375,0.75L266.24,284.625z"></path></g><path style="fill:#FFBF00;stroke:#000000;stroke-linecap:round;stroke-linejoin:round;" d="M230.167,324c0,0.5-0.333,24.834,2.167,29.167c1.5,0.666,1.833,0.333,2.333,0.333c-2-15.667-1.667-31.667-1.667-31.667L230.167,324z"></path><rect x="248.167" y="294.167" style="fill:#FFBF00;stroke:#000000;stroke-linecap:round;stroke-linejoin:round;" width="3.666" height="3.833"></rect><g><path style="fill:#6E6E6E;stroke:#000000;stroke-linecap:round;stroke-linejoin:round;" d="M249.833,295.834c0,0-17.333,11.666-19.333,25.833c6.167-4.833,19.166-11.834,27.5-15.167C254.334,300,249.833,295.834,249.833,295.834z"></path><path style="fill:#FFBF00;stroke:#000000;stroke-linecap:round;stroke-linejoin:round;" d="M248.833,296.834c0,0,7,8.5,6.667,9.5s-24.166,13.166-24.833,14.333c-0.833,2.167-0.5,3.333-0.5,3.333s27.833-15.167,30.5-17c-3.5-5.5-9.5-11.166-9.5-11.166S250.167,295.168,248.833,296.834z"></path></g><g><g><circle style="fill:#FFBF00;stroke:#000000;stroke-linecap:round;stroke-linejoin:round;" cx="239.834" cy="324.168" r="3"></circle><circle style="fill:#FFBF00;stroke:#000000;stroke-linecap:round;stroke-linejoin:round;" cx="239.834" cy="339.668" r="3"></circle></g><g><circle style="fill:#FFBF00;stroke:#000000;stroke-linecap:round;stroke-linejoin:round;" cx="260.166" cy="324.168" r="3"></circle><circle style="fill:#FFBF00;stroke:#000000;stroke-linecap:round;stroke-linejoin:round;" cx="260.166" cy="339.668" r="3"></circle></g></g><g><g><path style="fill:#FFFFFF;stroke:#000000;stroke-linecap:round;stroke-linejoin:round;" d="M249.849,294c0,0,0.333-7.833-0.333-8.333c-4.667-1.333-8.5-4.667-8.833-5.167c0-1.333,0.167-2.5,0.167-2.5l-4.333,1.167c0,0-0.5,7.5-0.167,8.5C237.349,289.667,241.683,294.334,249.849,294z"></path><path style="fill:#FFFFFF;stroke:#000000;stroke-linecap:round;stroke-linejoin:round;" d="M250.151,294c0,0-0.333-7.833,0.333-8.333c4.667-1.333,8.5-4.667,8.834-5.167c0-1.333-0.167-2.5-0.167-2.5l4.333,1.167c0,0,0.5,7.5,0.167,8.5C262.651,289.667,258.318,294.334,250.151,294z"></path></g><g><ellipse style="fill:#FFBF00;stroke:#000000;stroke-linecap:round;stroke-linejoin:round;" cx="237.031" cy="285.094" rx="1.438" ry="2.031"></ellipse><ellipse style="fill:#FFBF00;stroke:#000000;stroke-linecap:round;stroke-linejoin:round;" cx="262.969" cy="285.094" rx="1.438" ry="2.031"></ellipse></g></g><g><path style="fill:none;stroke:#000000;stroke-linecap:round;stroke-linejoin:round;" d="M276,329c0,0-1.166,12.667-2.333,17"></path><path style="fill:none;stroke:#000000;stroke-linecap:round;stroke-linejoin:round;" d="M224,329c0,0,1.166,12.667,2.333,17"></path></g><g><g><path style="fill:#FFBF00;stroke:#000000;stroke-linecap:round;stroke-linejoin:round;" d="M247.66,294.25c-0.24-0.078,0.203-6.414-0.08-6.513c-2.982-1.045-8.063-3.242-9.577-6.487c-0.375-1.625,0.188-2.563,0.188-2.563s2.261-0.813,2.287-0.688s0.088,2.875,0.088,2.875s2.164,1.762,4.802,3.083c1.727,0.865,4.246,1.37,4.448,1.667c0.511,0.75-0.031,8.708-0.031,8.708S248.546,294.538,247.66,294.25z"></path></g><g><path style="fill:#FFBF00;stroke:#000000;stroke-linecap:round;stroke-linejoin:round;" d="M252.344,294.25c0.24-0.078-0.203-6.414,0.08-6.513c2.982-1.045,8.063-3.242,9.576-6.487c0.375-1.625-0.188-2.563-0.188-2.563s-2.26-0.813-2.286-0.688s-0.089,2.875-0.089,2.875s-2.163,1.762-4.802,3.083c-1.727,0.865-4.248,1.37-4.452,1.667c-0.51,0.75,0.031,8.708,0.031,8.708S251.457,294.538,252.344,294.25z"></path></g></g><g><g><g><path style="fill:#FFBF00;stroke:#000000;stroke-linecap:round;stroke-linejoin:round;" d="M215.482,291.61c0,0-5.485,6.596-5.773,6.677c0.673,1.047,2.117,1.529,2.117,1.529l1.731-1.608l-0.385,1.689c0,0,2.31,1.046,3.464,0.965c0.577-2.093,3.849-7.645,3.849-7.645l-1.925,8.128c0,0,2.791,0.242,3.561,0.242c0.096-1.368,0.962-2.095,0.962-2.095l0.77,2.174l2.213-0.16l1.348-0.645l0.384,0.161l1.011-5.311l1.01,4.828l1.829-1.048l0.385-13.678L215.482,291.61z"></path><polyline style="fill:#FFBF00;stroke:#000000;stroke-linecap:round;stroke-linejoin:round;" points="223.179,292.816 218.271,300.903 221.592,301.628 224.189,295.109 "></polyline></g><path style="fill:#FFBF00;stroke:#000000;stroke-linecap:round;stroke-linejoin:round;" d="M232.32,286.379c0,0-15.106,6.034-16.454,5.955c-1.057-0.966,0.674-2.817,0.962-3.3c0.289-0.483,11.258-4.989,16.069-5.794C232.705,285.254,232.32,286.379,232.32,286.379z"></path></g><g><g><path style="fill:#FFBF00;stroke:#000000;stroke-linecap:round;stroke-linejoin:round;" d="M284.518,291.61c0,0,5.484,6.596,5.773,6.677c-0.674,1.047-2.117,1.529-2.117,1.529l-1.731-1.608l0.385,1.689c0,0-2.31,1.046-3.464,0.965c-0.578-2.093-3.849-7.645-3.849-7.645l1.925,8.128c0,0-2.791,0.242-3.561,0.242c-0.096-1.368-0.962-2.095-0.962-2.095l-0.771,2.174l-2.212-0.16l-1.348-0.645l-0.384,0.161l-1.011-5.311l-1.011,4.828l-1.828-1.048l-0.385-13.678L284.518,291.61z"></path><polyline style="fill:#FFBF00;stroke:#000000;stroke-linecap:round;stroke-linejoin:round;" points="276.82,292.816 281.729,300.903 278.408,301.628 275.811,295.109 "></polyline></g><path style="fill:#FFBF00;stroke:#000000;stroke-linecap:round;stroke-linejoin:round;" d="M267.68,286.379c0,0,15.105,6.034,16.453,5.955c1.058-0.966-0.673-2.817-0.961-3.3c-0.289-0.483-11.258-4.989-16.069-5.794C267.295,285.254,267.68,286.379,267.68,286.379z"></path></g></g></g></g></svg>