<svg xmlns="http://www.w3.org/2000/svg" width="500" height="500" version="1.1"><g id="x192"><path style="fill:#FFFFFF;stroke:#000000;stroke-linecap:round;stroke-linejoin:round;" d="M276,328.75c0,0-0.5-17.5-1.5-22.5S269.75,293,269.75,293L250,297.25L230.25,293c0,0-3.75,8.25-4.75,13.25s-1.5,22.5-1.5,22.5s-5.5,18.75-5.75,20.75c10.75,0,31.75-4,31.75-4s21,4,31.75,4C281.5,347.5,276,328.75,276,328.75z"></path><rect x="247" y="296.799" style="fill:#FFFFFF;stroke:#000000;stroke-linecap:round;stroke-linejoin:round;" width="6" height="39.5"></rect><g><g><g><path style="fill:#FFFFFF;stroke:#000000;stroke-linecap:round;stroke-linejoin:round;" d="M224.75,289.25c0,0-4.5,3.75-5.25,4.75c-3,4.25-7.25,16.75-7.25,16.75L226,317.5l6-23.5L224.75,289.25z"></path><path style="fill:#E4E0F3;" d="M228,291.75c0,0-6,9-6,12.5s3.75,8.25,3.75,8.25L228,291.75z"></path><line style="fill:none;stroke:#000000;stroke-linecap:round;stroke-linejoin:round;" x1="220.75" y1="293.25" x2="230.25" y2="299"></line></g><g><path style="fill:#FFFFFF;stroke:#000000;stroke-linecap:round;stroke-linejoin:round;" d="M275.25,289.25c0,0,4.5,3.75,5.25,4.75c3,4.25,7.25,16.75,7.25,16.75L274,317.5l-6-23.5L275.25,289.25z"></path><path style="fill:#E4E0F3;" d="M272,291.75c0,0,6,9,6,12.5s-3.75,8.25-3.75,8.25L272,291.75z"></path><line style="fill:none;stroke:#000000;stroke-linecap:round;stroke-linejoin:round;" x1="279.25" y1="293.25" x2="269.75" y2="299"></line></g></g><g><g><path style="fill:#6E6E6E;stroke:#000000;stroke-linecap:round;stroke-linejoin:round;" d="M276.218,328.75c0-0.75-1.25-19.75-1.25-19.75s-2.718-15.625-3.226-17.173c-2.416,0.917-5.687,2.089-9.107,3.108l-20.385,10.189L237.721,296c0,0-5.25,10.75-5.75,13s1.25,20.75,1.25,20.75l0.529,17.125L264.468,361c0,0,12.25-6.75,17.5-11.5C281.968,349.5,278.468,334,276.218,328.75z M250.019,297.246c-0.014,0-0.026,0-0.04,0L250,297.25L250.019,297.246z"></path><path style="fill:#6E6E6E;stroke:#000000;stroke-linecap:round;stroke-linejoin:round;" d="M250.021,297.246c-0.013,0-0.026,0-0.04,0L250,297.25L250.021,297.246z M228.257,291.829C227.125,297,225.03,309,225.03,309s-1.25,19-1.25,19.75c-2.25,5.25-5.75,20.75-5.75,20.75c5.25,4.75,17.5,11.5,17.5,11.5l31.25-11.375l-1.53-22l1.53-19.375C266.78,308.25,230.673,292.746,228.257,291.829z"></path></g><g><g><circle style="fill:#FFBF00;stroke:#000000;stroke-linecap:round;stroke-linejoin:round;" cx="238.375" cy="311" r="2.75"></circle><circle style="fill:#FFBF00;stroke:#000000;stroke-linecap:round;stroke-linejoin:round;" cx="261.625" cy="311" r="2.75"></circle></g><g><circle style="fill:#FFBF00;stroke:#000000;stroke-linecap:round;stroke-linejoin:round;" cx="238.375" cy="327.625" r="2.75"></circle><circle style="fill:#FFBF00;stroke:#000000;stroke-linecap:round;stroke-linejoin:round;" cx="261.625" cy="327.625" r="2.75"></circle></g><g><circle style="fill:#FFBF00;stroke:#000000;stroke-linecap:round;stroke-linejoin:round;" cx="238.375" cy="344.25" r="2.75"></circle><circle style="fill:#FFBF00;stroke:#000000;stroke-linecap:round;stroke-linejoin:round;" cx="261.625" cy="344.25" r="2.75"></circle></g></g></g></g></g></svg>