<svg xmlns="http://www.w3.org/2000/svg" width="500" height="500" version="1.1"><g id="x193"><g><g><g><path style="fill:#FFFFFF;stroke:#000000;stroke-linecap:round;stroke-linejoin:round;" d="M198.341,347c0,0-3,5.75-2.75,7.25c4,2,12.75,5.25,12.75,5.25s2-4.75,2.5-6.75C204.341,349.25,198.341,347,198.341,347z"></path><path style="fill:#FFFFFF;stroke:#000000;stroke-linecap:round;stroke-linejoin:round;" d="M225.591,287.75c0,0-4.5,4-7,8.25s-21.25,43.75-21.5,47s1.25,5.5,1.25,5.5l12.25,5.25c0,0,3.635-2.155,5.25-5c4.407-7.764,10.134-22.152,10.5-23.25c0.5-1.5,3.25-34.25,3.25-34.25L225.591,287.75z"></path><path style="fill:#E4E0F3;" d="M227.25,293.501c0,0-6.781,7.482-6.667,10.333c0.333,8.333,4.167,14,4.167,14S228.083,298.168,227.25,293.501z"></path><path style="fill:none;stroke:#000000;stroke-linecap:round;stroke-linejoin:round;" d="M219.591,295.5c0,0,2.5,9.75,6.25,13.75"></path></g><g><path style="fill:#FFFFFF;stroke:#000000;stroke-linecap:round;stroke-linejoin:round;" d="M301.659,347c0,0,3,5.75,2.75,7.25c-4,2-12.75,5.25-12.75,5.25s-2-4.75-2.5-6.75C295.659,349.25,301.659,347,301.659,347z"></path><path style="fill:#FFFFFF;stroke:#000000;stroke-linecap:round;stroke-linejoin:round;" d="M274.409,287.75c0,0,4.5,4,7,8.25s21.25,43.75,21.5,47s-1.25,5.5-1.25,5.5l-12.25,5.25c0,0-3.635-2.155-5.25-5c-4.407-7.764-10.135-22.152-10.5-23.25c-0.5-1.5-3.25-34.25-3.25-34.25L274.409,287.75z"></path><path style="fill:#E4E0F3;" d="M272.75,293.501c0,0,6.781,7.482,6.667,10.333c-0.334,8.333-4.167,14-4.167,14S271.917,298.168,272.75,293.501z"></path><path style="fill:none;stroke:#000000;stroke-linecap:round;stroke-linejoin:round;" d="M280.409,295.5c0,0-2.5,9.75-6.25,13.75"></path></g></g><path style="fill:#FFFFFF;stroke:#000000;stroke-linecap:round;stroke-linejoin:round;" d="M276,328.75c0,0-0.5-17.5-1.5-22.5S269.75,293,269.75,293L250,291.436L230.25,293c0,0-3.75,8.25-4.75,13.25s-1.5,22.5-1.5,22.5s-5.5,18.75-5.75,20.75c10.75,0,31.75-4,31.75-4s21,4,31.75,4C281.5,347.5,276,328.75,276,328.75z"></path><g><g><g><g><path style="fill:#6E6E6E;stroke:#000000;stroke-linecap:round;stroke-linejoin:round;" d="M233.917,332.501l20.167,24.833c0,0,19.5-3.5,28.332-7.834c0,0-4.084-14.583-6.332-19.833c0-0.75-0.668-20.667-0.668-20.667s-1.586-9.079-2.719-14.25c-0.438,0.166,1.25-6,2-7.5c-3.447-2.916-10.447-6.083-10.447-6.083L233.917,332.501z"></path></g></g></g><g><g><g><path style="fill:#6E6E6E;stroke:#000000;stroke-linecap:round;stroke-linejoin:round;" d="M235.751,281.167c0,0-7,3.167-10.447,6.083c0.75,1.5,2.438,7.666,2,7.5c-1.133,5.171-2.72,14.25-2.72,14.25s-0.667,19.917-0.667,20.667c-2.25,5.25-6.333,19.833-6.333,19.833c8.833,4.334,28.333,7.834,28.333,7.834l20.167-24.833L235.751,281.167z"></path></g></g></g></g><g><g><g><circle style="fill:#FFBF00;stroke:#000000;stroke-linecap:round;stroke-linejoin:round;" cx="260.667" cy="331.708" r="2.75"></circle></g></g><g><g><circle style="fill:#FFBF00;stroke:#000000;stroke-linecap:round;stroke-linejoin:round;" cx="239.333" cy="331.708" r="2.75"></circle></g></g></g></g></g></svg>