<svg xmlns="http://www.w3.org/2000/svg" width="500" height="500" version="1.1"><g id="x195"><g><g><g><g><path style="fill:#FFFFFF;stroke:#000000;stroke-linecap:round;stroke-linejoin:round;" d="M223.75,290.666c0,0-6.666,7-8.666,11.5c-1.308,2.941-6,14.835-6,14.835c7.166,4.334,18,7.5,18,7.5l2.5-25.835L223.75,290.666z"></path></g><path style="fill:#E4E0F3;" d="M229.417,296.334c0,0-7.834,6-8.167,10s4.834,14.5,4.834,14.5L229.417,296.334z"></path><path style="fill:none;stroke:#000000;stroke-linecap:round;stroke-linejoin:round;" d="M212.417,311.167c0,0,5,2.001,13.5,5.334"></path></g><g><g><path style="fill:#FFFFFF;stroke:#000000;stroke-linecap:round;stroke-linejoin:round;" d="M276.249,290.666c0,0,6.667,7,8.667,11.5c1.307,2.941,6,14.835,6,14.835c-7.167,4.334-18,7.5-18,7.5l-2.5-25.835L276.249,290.666z"></path></g><path style="fill:#E4E0F3;" d="M270.582,296.334c0,0,7.834,6,8.167,10s-4.833,14.5-4.833,14.5L270.582,296.334z"></path><path style="fill:none;stroke:#000000;stroke-linecap:round;stroke-linejoin:round;" d="M287.582,311.167c0,0-5,2.001-13.5,5.334"></path></g></g><path style="fill:#FFFFFF;stroke:#000000;stroke-linecap:round;stroke-linejoin:round;" d="M242.5,289.834h14.667c0,0-7.5,14.833-7.5,14.333S242.5,289.834,242.5,289.834z"></path><g><path style="fill:#FFFFFF;stroke:#000000;stroke-linecap:round;stroke-linejoin:round;" d="M269.875,292c0,0,3.5,9,4.25,12.5s2.5,19.5,2.5,19.5l9,33.25c-7.5,4.75-30,5-48.75,5c0-18.25,0-37.75,0-37.75l26.5-43.75c0,0,7.25,3.25,10.75,7.25C271.875,290.5,269.875,292,269.875,292z"></path><path style="fill:#E4E0F3;" d="M263,327c0,0,5.354,23.542,4.688,33.875c-3.25,0.188-5.688,0.563-5.688,0.563L263,327z"></path><path style="fill:#FFFFFF;stroke:#000000;stroke-linecap:round;stroke-linejoin:round;" d="M230.125,292c0,0-3.5,9-4.25,12.5s-2.5,19.5-2.5,19.5l-9,34.25c7.5,4.75,30,5,48.75,5c0-18.25,0-38.75,0-38.75l-26.5-43.75c0,0-7.25,3.25-10.75,7.25C228.125,290.5,230.125,292,230.125,292z"></path></g><g><g><g><g><circle style="fill:#3F3F3F;stroke:#000000;stroke-linecap:round;stroke-linejoin:round;" cx="258.75" cy="329.792" r="2.75"></circle></g></g><g><g><circle style="fill:#3F3F3F;stroke:#000000;stroke-linecap:round;stroke-linejoin:round;" cx="241.25" cy="329.792" r="2.75"></circle></g></g></g><g><g><g><circle style="fill:#3F3F3F;stroke:#000000;stroke-linecap:round;stroke-linejoin:round;" cx="258.75" cy="347.459" r="2.75"></circle></g></g><g><g><circle style="fill:#3F3F3F;stroke:#000000;stroke-linecap:round;stroke-linejoin:round;" cx="241.25" cy="347.459" r="2.75"></circle></g></g></g></g></g></g></svg>