<svg xmlns="http://www.w3.org/2000/svg" width="500" height="500" version="1.1"><g id="x196"><g><g><g><path style="fill:#FFFFFF;stroke:#000000;stroke-linecap:round;stroke-linejoin:round;" d="M226.375,287.666c0,0-8.333,6.834-11.083,14.5c-1.087,3.03-6,14.835-6,14.835c7.166,4.334,18,7.5,18,7.5l6.916-32.001L226.375,287.666z"></path></g><path style="fill:#E4E0F3;" d="M229.625,296.334c0,0-7.834,6-8.167,10s4.834,14.5,4.834,14.5L229.625,296.334z"></path><path style="fill:none;stroke:#000000;stroke-linecap:round;stroke-linejoin:round;" d="M212.625,311.167c0,0,5,2.001,13.5,5.334"></path></g><g><g><path style="fill:#FFFFFF;stroke:#000000;stroke-linecap:round;stroke-linejoin:round;" d="M273.625,287.666c0,0,8.333,6.834,11.083,14.5c1.087,3.03,6,14.835,6,14.835c-7.166,4.334-18,7.5-18,7.5l-6.916-32.001L273.625,287.666z"></path></g><path style="fill:#E4E0F3;" d="M270.375,296.334c0,0,7.834,6,8.167,10s-4.834,14.5-4.834,14.5L270.375,296.334z"></path><path style="fill:none;stroke:#000000;stroke-linecap:round;stroke-linejoin:round;" d="M287.375,311.167c0,0-5,2.001-13.5,5.334"></path></g></g><path style="fill:#FFFFFF;stroke:#000000;stroke-linecap:round;stroke-linejoin:round;" d="M236.414,292.547h26.839c0,0-13.725,53.368-13.725,52.453S236.414,292.547,236.414,292.547z"></path><path style="fill:#FFFFFF;stroke:#000000;stroke-linecap:round;stroke-linejoin:round;" d="M285.857,359.748l-9-35.748c0,0-1.75-16-2.5-19.5s-4.25-12.5-4.25-12.5s2-1.5,4.25-4c-3.5-4-10.75-7.25-10.75-7.25L250,337.667l-13.608-56.917c0,0-7.25,3.25-10.75,7.25c2.25,2.5,4.25,4,4.25,4s-3.5,9-4.25,12.5s-2.5,19.5-2.5,19.5l-9,35.748c1.027,0.65,2.401,1.164,4.047,1.574c-0.12,0.849-0.189,1.345-0.189,1.345s6.667,1.667,11.667,1c0,2,0,2,0,2s7.833,1.134,20.333,1.134c27.667,0,32-4.134,32-4.134s-0.07-0.496-0.189-1.345C283.456,360.912,284.831,360.398,285.857,359.748z"></path><path style="fill:#E4E0F3;" d="M218.833,361l3.5-21.5c-4,8.333-6.667,20.167-6.667,20.167S218,361.167,218.833,361z"></path><path style="fill:#E4E0F3;" d="M281.832,361l-3.5-21.5c4,8.333,6.667,20.167,6.667,20.167S282.665,361.167,281.832,361z"></path></g></svg>