<svg xmlns="http://www.w3.org/2000/svg" width="500" height="500" version="1.1"><g id="x198"><g><g><g><g><g><path style="fill:#FFFFFF;stroke:#000000;stroke-linecap:round;stroke-linejoin:round;" d="M223.75,290.666c0,0-4.666,4-6.666,8.5c-1.308,2.941-8,17.835-8,17.835c7.166,4.334,18,7.5,18,7.5l2.5-25.835L223.75,290.666z"></path></g><path style="fill:#E4E0F3;" d="M229.417,296.334c0,0-7.834,6-8.167,10s4.834,14.5,4.834,14.5L229.417,296.334z"></path><path style="fill:none;stroke:#000000;stroke-linecap:round;stroke-linejoin:round;" d="M212.417,311.167c0,0,5,2.001,13.5,5.334"></path></g><g><g><path style="fill:#FFFFFF;stroke:#000000;stroke-linecap:round;stroke-linejoin:round;" d="M276.249,290.666c0,0,4.667,4,6.667,8.5c1.307,2.941,8,17.835,8,17.835c-7.167,4.334-18,7.5-18,7.5l-2.5-25.835L276.249,290.666z"></path></g><path style="fill:#E4E0F3;" d="M270.582,296.334c0,0,7.834,6,8.167,10s-4.833,14.5-4.833,14.5L270.582,296.334z"></path><path style="fill:none;stroke:#000000;stroke-linecap:round;stroke-linejoin:round;" d="M287.582,311.167c0,0-5,2.001-13.5,5.334"></path></g></g><path style="fill:#FFFFFF;stroke:#000000;stroke-linecap:round;stroke-linejoin:round;" d="M241.496,290.852h16.675c0,0-8.527,16.864-8.527,16.296S241.496,290.852,241.496,290.852z"></path></g><g><g><path style="fill:#FFFFFF;stroke:#000000;stroke-linecap:round;stroke-linejoin:round;" d="M271.712,297.166c0,0,1.208,3.834,1.958,7.334s2.5,19.5,2.5,19.5l7.708,33.733c-1.412,0.895-3.167,1.333-6.333,1.5c-0.167,0.5-0.167,0.933-0.175,1.731c-10.354,2.142-26.729,2.285-40.949,2.285c0-18.25,0-52.417,0-52.417l8.459-0.333l11.831-10.667L262.545,282c0,0,9.166,5.333,13.833,9.333C274.128,293.833,271.712,297.166,271.712,297.166z"></path><g><path style="fill:#E4E0F3;" d="M263,327.896c0,0,5.354,23.542,4.688,33.875c-3.25,0.188-5.688,0.563-5.688,0.563L263,327.896z"></path></g><path style="fill:#FFFFFF;stroke:#000000;stroke-linecap:round;stroke-linejoin:round;" d="M228.288,297.166c0,0-1.208,3.834-1.958,7.334s-2.5,19.5-2.5,19.5l-7.708,33.733c1.413,0.895,3.167,1.333,6.333,1.5c0.167,0.5,0.167,0.933,0.174,1.731c10.355,2.142,26.731,2.285,40.95,2.285c0-18.25,0-52.417,0-52.417l-8.458-0.333l-11.833-10.667L237.455,282c0,0-9.167,5.333-13.833,9.333C225.871,293.833,228.288,297.166,228.288,297.166z"></path><g><path style="fill:#E4E0F3;" d="M222.667,358.5l1.667-34c0,0-7.833,31.666-7.5,32.833C219.667,358.833,222.667,358.5,222.667,358.5z"></path></g></g><g><g><circle style="fill:#FFBF00;stroke:#000000;stroke-linecap:round;stroke-linejoin:round;" cx="259" cy="316.5" r="2.75"></circle><circle style="fill:#FFBF00;stroke:#000000;stroke-linecap:round;stroke-linejoin:round;" cx="241" cy="316.5" r="2.75"></circle></g><g><circle style="fill:#FFBF00;stroke:#000000;stroke-linecap:round;stroke-linejoin:round;" cx="259" cy="334.5" r="2.75"></circle><circle style="fill:#FFBF00;stroke:#000000;stroke-linecap:round;stroke-linejoin:round;" cx="241" cy="334.5" r="2.75"></circle></g><g><circle style="fill:#FFBF00;stroke:#000000;stroke-linecap:round;stroke-linejoin:round;" cx="259" cy="352.5" r="2.75"></circle><circle style="fill:#FFBF00;stroke:#000000;stroke-linecap:round;stroke-linejoin:round;" cx="241" cy="352.5" r="2.75"></circle></g></g></g></g></g></svg>