<svg xmlns="http://www.w3.org/2000/svg" width="500" height="500" version="1.1"><g id="x199"><g><g><g><g><path style="fill:#FFFFFF;stroke:#000000;stroke-linecap:round;stroke-linejoin:round;" d="M226.375,287.666c0,0-8.333,6.834-11.083,14.5c-1.087,3.03-6,14.835-6,14.835c7.166,4.334,18,7.5,18,7.5l6.916-32.001L226.375,287.666z"></path></g><path style="fill:#E4E0F3;" d="M229.625,296.334c0,0-7.834,6-8.167,10s4.834,14.5,4.834,14.5L229.625,296.334z"></path><path style="fill:none;stroke:#000000;stroke-linecap:round;stroke-linejoin:round;" d="M212.625,311.167c0,0,5,2.001,13.5,5.334"></path></g><g><g><path style="fill:#FFFFFF;stroke:#000000;stroke-linecap:round;stroke-linejoin:round;" d="M273.625,287.666c0,0,8.333,6.834,11.083,14.5c1.087,3.03,6,14.835,6,14.835c-7.166,4.334-18,7.5-18,7.5l-6.916-32.001L273.625,287.666z"></path></g><path style="fill:#E4E0F3;" d="M270.375,296.334c0,0,7.834,6,8.167,10s-4.834,14.5-4.834,14.5L270.375,296.334z"></path><path style="fill:none;stroke:#000000;stroke-linecap:round;stroke-linejoin:round;" d="M287.375,311.167c0,0-5,2.001-13.5,5.334"></path></g></g><path style="fill:#6E6E6E;stroke:#000000;stroke-linecap:round;stroke-linejoin:round;" d="M236.414,292.547h26.839c0,0-13.725,53.368-13.725,52.453S236.414,292.547,236.414,292.547z"></path><path style="fill:#FFFFFF;stroke:#000000;stroke-linecap:round;stroke-linejoin:round;" d="M285.857,359.748l-9-35.748c0,0-1.75-16-2.5-19.5s-4.25-12.5-4.25-12.5s2-1.5,4.25-4c-3.5-4-10.75-7.25-10.75-7.25L250,307.667l-13.608-26.917c0,0-7.25,3.25-10.75,7.25c2.25,2.5,4.25,4,4.25,4s-3.5,9-4.25,12.5s-2.5,19.5-2.5,19.5l-9,35.748c1.027,0.65,2.401,1.164,4.047,1.574c-0.12,0.849-0.189,1.345-0.189,1.345s4.25,4.134,32,4.134s32-4.134,32-4.134s-0.07-0.496-0.189-1.345C283.456,360.912,284.831,360.398,285.857,359.748z"></path><g><g><path style="fill:none;stroke:#000000;stroke-linecap:round;stroke-linejoin:round;" d="M243.933,304.667c0,0-0.833,8.333-1,16.333s-0.366,45.667-0.366,45.667"></path><path style="fill:none;stroke:#000000;stroke-linecap:round;stroke-linejoin:round;" d="M242.1,304.667c0,0-0.833,8.333-1,16.333s-0.366,45.667-0.366,45.667"></path><path style="fill:none;stroke:#000000;stroke-linecap:round;stroke-linejoin:round;" d="M240.5,303.167c0,0-1.066,9.833-1.233,17.833s-0.366,45.667-0.366,45.667"></path></g><g><path style="fill:none;stroke:#000000;stroke-linecap:round;stroke-linejoin:round;" d="M256.066,304.667c0,0,0.834,8.333,1,16.333c0.168,8,0.367,45.667,0.367,45.667"></path><path style="fill:none;stroke:#000000;stroke-linecap:round;stroke-linejoin:round;" d="M257.9,304.667c0,0,0.834,8.333,1,16.333s0.365,45.667,0.365,45.667"></path><path style="fill:none;stroke:#000000;stroke-linecap:round;stroke-linejoin:round;" d="M259.5,303.167c0,0,1.066,9.833,1.232,17.833c0.168,8,0.367,45.667,0.367,45.667"></path></g></g><path style="fill:#E4E0F3;" d="M218.833,361l3.5-21.5c-4,8.333-6.667,20.167-6.667,20.167S218,361.167,218.833,361z"></path><path style="fill:#E4E0F3;" d="M281.832,361l-3.5-21.5c4,8.333,6.667,20.167,6.667,20.167S282.665,361.167,281.832,361z"></path><path style="fill:none;stroke:#000000;stroke-linecap:round;stroke-linejoin:round;" d="M218.5,360.375c0,0,6.5,3.5,29.125,3.5c2.125,0.125,5,0.5,5,0.5L257,364c0,0,20.75-0.625,24.125-4.375c0,0,3.375-0.875,4.125-1.75"></path><path style="fill:none;stroke:#000000;stroke-linecap:round;stroke-linejoin:round;" d="M215.125,358c0,0,1.75,0.875,3.25,1.125"></path><line style="fill:none;stroke:#000000;stroke-linecap:round;stroke-linejoin:round;" x1="218.2" y1="361.75" x2="219.325" y2="355.75"></line><g><g><line style="fill:none;stroke:#000000;stroke-linecap:round;stroke-linejoin:round;" x1="247.5" y1="306.834" x2="247.5" y2="366.5"></line><line style="fill:none;stroke:#000000;stroke-linecap:round;stroke-linejoin:round;" x1="252.5" y1="306.834" x2="252.5" y2="366.5"></line></g><g><circle style="fill:#141414;stroke:#000000;stroke-linecap:round;stroke-linejoin:round;" cx="250" cy="313.167" r="1.333"></circle><circle style="fill:#141414;stroke:#000000;stroke-linecap:round;stroke-linejoin:round;" cx="250" cy="324.833" r="1.333"></circle><circle style="fill:#141414;stroke:#000000;stroke-linecap:round;stroke-linejoin:round;" cx="250" cy="336.499" r="1.333"></circle><circle style="fill:#141414;stroke:#000000;stroke-linecap:round;stroke-linejoin:round;" cx="250" cy="348.165" r="1.333"></circle><circle style="fill:#141414;stroke:#000000;stroke-linecap:round;stroke-linejoin:round;" cx="250" cy="359.831" r="1.333"></circle></g></g></g></g></svg>