<svg xmlns="http://www.w3.org/2000/svg" width="500" height="500" version="1.1"><g id="x002"><g><g><g><path style="fill:#FFFFFF;stroke:#000000;stroke-linecap:round;stroke-linejoin:round;" d="M284.523,304.597c-0.337-1.349-2.104-4.774-2.893-6.271l-2.133-6.184c0,0-12.345,3.059-29.716,3.059c-17.371,0-29.716-3.059-29.716-3.059l-2.185,6.337c0,0,0.117,0.037,0.354,0.104c-0.841,1.603-2.439,4.738-2.757,6.014c-1.092,2.185-2.403,3.714-2.622,6.555c1.312-0.437,3.933,0.874,4.807,1.53c0.874,0.654,4.37,3.059,6.773,2.84c0.628-0.058,1.406-0.34,2.212-0.724c-1.631,8.435-7.665,25.398-7.665,35.685c1.748,1.312,4.807,0.655,4.807,0.655l1.092,1.748c0,0,6.589,3.059,16.858,3.277c2.403,0.655,3.277,0.655,4.37,0.219c0.656-0.875,1.093-2.186,1.093-2.186l2.404-0.438l2.404,0.438c0,0,0.437,1.311,1.093,2.186c1.092,0.437,1.965,0.437,4.369-0.219c10.27-0.219,16.857-3.277,16.857-3.277l1.093-1.748c0,0,3.06,0.656,4.808-0.655c0-10.472-6.181-27.862-7.75-36.131c1.101,0.601,2.23,1.092,3.084,1.17c2.403,0.219,5.899-2.186,6.773-2.84c0.874-0.656,3.495-1.967,4.807-1.53C286.928,308.311,285.616,306.781,284.523,304.597z"></path><g><g><path style="fill:#C8C8C8;" d="M222.833,299.717c2.039,2.622,3.351,3.933,3.351,13.839c0.728-7.285,2.039-12.237,2.039-12.237L222.833,299.717z"></path><path style="fill:#C8C8C8;" d="M216.606,310.642c0.146-1.021,1.42-2.841,2.149-2.549c0.437,2.185,1.602,4.843,1.602,4.843L216.606,310.642z"></path></g><path style="fill:#C8C8C8;" d="M276.258,314.247c0,0-2.223-5.5-1.13-9.432c1.092-3.934,3.496-6.265,3.496-6.265l-7.647,1.675l1.967,14.059L276.258,314.247z"></path></g><path style="fill:none;stroke:#000000;stroke-linecap:round;stroke-linejoin:round;" d="M246.614,355.398c0,0,0.983-10.707,0.983-11.472"></path><g><path style="fill:none;stroke:#000000;stroke-linecap:round;stroke-linejoin:round;" d="M228.354,300.445c0,0-1.894,13.401-1.747,15.878"></path><path style="fill:none;stroke:#000000;stroke-linecap:round;stroke-linejoin:round;" d="M271.012,300.445c0,0,1.894,13.401,1.747,15.878"></path></g><path style="fill:none;stroke:#000000;stroke-linecap:round;stroke-linejoin:round;" d="M221.085,298.551c0,0,4.37,2.331,28.551,2.331c24.181,0,28.987-2.331,28.987-2.331"></path></g></g><g><g><path style="fill:#FFFFFF;stroke:#000000;stroke-linecap:round;stroke-linejoin:round;" d="M217.672,297.333c0,0-2.65,5.831-3.888,8.481c-1.943,3.535-2.65,5.478-2.65,6.893c2.12,0,4.064-0.529,6.538,1.944s5.479,4.063,9.719,3.887c1.591-12.899,2.475-18.907,2.475-18.907L217.672,297.333z"></path><path style="fill:#C8C8C8;" d="M225.365,310.667c0,0-3.167-5.166-3-6.666c0.166-1.5,5-3.834,5-3.834L225.365,310.667z"></path><path style="fill:none;stroke:#000000;stroke-linecap:round;stroke-linejoin:round;" d="M221.698,303.667c0,0,1.5,4.834,4.833,7.5"></path></g><g><path style="fill:#FFFFFF;stroke:#000000;stroke-linecap:round;stroke-linejoin:round;" d="M282.328,297.333c0,0,2.65,5.831,3.887,8.481c1.943,3.535,2.651,5.478,2.651,6.893c-2.12,0-4.065-0.529-6.538,1.944c-2.475,2.474-5.479,4.063-9.719,3.887c-1.591-12.899-2.475-18.907-2.475-18.907L282.328,297.333z"></path><path style="fill:#C8C8C8;" d="M274.635,310.667c0,0,3.166-5.166,3-6.666s-5-3.834-5-3.834L274.635,310.667z"></path><path style="fill:none;stroke:#000000;stroke-linecap:round;stroke-linejoin:round;" d="M278.301,303.667c0,0-1.5,4.834-4.832,7.5"></path></g></g><g><path style="fill:#7D7D7D;stroke:#000000;stroke-linecap:round;stroke-linejoin:round;" d="M285.144,358.056h-70.288c0,0-2.247,10.393-1.965,12.079c3.651,0.562,6.179,1.404,7.022,1.967c0.841,0.562,6.774,3.651,12.111,3.931c6.46,1.123,8.427-1.685,10.112-1.966c1.966-0.279,7.865,0,7.865,0s5.897-0.279,7.864,0c1.687,0.281,3.652,3.089,10.112,1.966c5.336-0.279,11.27-3.369,12.111-3.931c0.844-0.563,3.371-1.405,7.021-1.967C287.392,368.448,285.144,358.056,285.144,358.056z"></path><path style="fill:#61666A;" d="M242,373.584c0,0,15.251-0.084,15.834,0.083c0.75,0.5,1.666,0.834,1.666,0.834l-1-11.667l-14.917,0.667L242,373.584z"></path><path style="fill:#61666A;" d="M221.813,372.875c-2.969-1.938-3.563-1.969-3.563-1.969s2.688-8.563,3.438-9.125c0.937,0.751,0.128,9.848,2.375,12.281C223.214,373.495,222.424,373.274,221.813,372.875z"></path><line style="fill:none;stroke:#000000;stroke-linecap:round;stroke-linejoin:round;" x1="259.689" y1="374.207" x2="259.409" y2="370.274"></line></g><g><path style="fill:#FFFFFF;stroke:#000000;stroke-linecap:round;stroke-linejoin:round;" d="M275.166,315.833c0.166-3.667-2.666-17.666-2.666-17.666l-22.5,1.166l-22.5-1.166c0,0-2.833,13.999-2.666,17.666c-1.167,6.667-11.167,33.834-11.334,42.334c2.667,1.666,3.667,0.334,4.667,0.5l0.833,2c0,0,14.833,5.499,20.667,5.166c2.333,0.834,4.5,1.333,6.833,1c0.167-1.333,0.167-2.666,0.167-2.666l3.333,0.167l3.334-0.167c0,0,0,1.333,0.166,2.666c2.334,0.333,4.5-0.166,6.834-1c5.832,0.333,20.666-5.166,20.666-5.166l0.834-2c1-0.166,2,1.166,4.666-0.5C286.334,349.667,276.334,322.5,275.166,315.833z"></path><g><path style="fill:#C8C8C8;" d="M218.625,358.438c0,0,0.5,1.188,0.813,1.844c0.75,0.5,1.875,0.781,2.438,0.969c0.79,0.264,1.958-19.083,1.125-18.916S218.625,358.438,218.625,358.438z"></path><path style="fill:#C8C8C8;" d="M281.232,358.167c0,0-0.307,1.752-0.834,2.334c-0.727,0.805-1.779,0.543-2.166,0.833c-0.666,0.5-2-19.167-1.166-19C277.898,342.501,281.232,358.167,281.232,358.167z"></path></g><g><path style="fill:#C8C8C8;" d="M232.167,301.667c0,0-2.334,8.834-3.167,9.167s0.333-9.667,0.333-9.667L232.167,301.667z"></path><path style="fill:#C8C8C8;" d="M268.533,301.667c0,0,2.334,8.834,3.166,9.167c0.834,0.333-0.333-9.667-0.333-9.667L268.533,301.667z"></path></g><path style="fill:#C8C8C8;" d="M247,363.667c0,0,1-16.333,2.667-20.333c1.833,7.667,4.001,20.167,4.001,20.167L247,363.667z"></path><line style="fill:none;stroke:#000000;stroke-linecap:round;stroke-linejoin:round;" x1="246.667" y1="364.167" x2="247.5" y2="350.667"></line></g><path style="fill:#FFFFFF;stroke:#000000;stroke-linecap:round;stroke-linejoin:round;" d="M281.051,292.142c-0.629-0.141-13.69,3.059-31.051,3.059c-17.361,0-30.423-3.199-31.051-3.059s-2.283,6.337-2.283,6.337c8.311,3.022,20.566,3.688,33.334,3.688c12.767,0,25.023-0.666,33.334-3.688C283.334,298.479,281.679,292.282,281.051,292.142z"></path></g></g></svg>