<svg xmlns="http://www.w3.org/2000/svg" width="500" height="500" version="1.1"><g id="x020"><g><path style="fill:#FFFFFF;stroke:#000000;stroke-linecap:round;stroke-linejoin:round;" d="M209.581,372.211l-1.477,5.165c0,0,7.768,0.185,8.504,1.292c0.739,1.106,2.03,2.951,2.584,3.32s4.242,1.477,4.242,1.477s0.924,1.66,2.215,2.214c1.291,0.553,2.951-0.186,2.951-0.186s1.292,0.923,2.952,1.661c1.66,0.738,4.98-0.185,4.98-0.185s1.661,1.291,3.875,1.476c2.213,0.185,3.505-0.922,3.505-0.922l4.427,0.369c0,0,2.398,0.553,3.875,0.921c1.475,0.37,3.135-1.106,3.135-1.106l3.874,0.186c0,0,2.953-0.923,4.059-1.107c1.107-0.185,2.399,1.107,3.875,0.554c1.475-0.554,2.029-2.214,2.767-2.398s4.243,0,4.981-0.554c0.735-0.554,1.475-2.398,1.475-2.398s1.845,1.845,2.952,0.737c1.107-1.106,2.213-2.767,2.213-2.767s8.322,0.184,8.876-0.554c0.553-0.737,1.475-2.029,1.475-2.029l-2.951-6.456L209.581,372.211z"></path><g><path style="fill:#6E6E6E;stroke:#000000;stroke-linecap:round;stroke-linejoin:round;" d="M275.145,325.25c0,0-0.014-11.829-1.313-19.25c-0.758-4.336-2.988-9.333-3-9.334c-0.188-2.729-2.688-11.229-4.375-14.166c-0.438-0.188-3.148-1.5-5.75-1.5c0,0,3.125,9.501,4.438,16.188c-3.477,0.686-13.578,2.126-15.145,3.646c-1.568-1.521-11.669-2.961-15.146-3.646c1.313-6.687,4.438-16.188,4.438-16.188c-2.602,0-5.313,1.313-5.75,1.5c-1.688,2.938-4.188,11.438-4.375,14.166c-0.012,0.001-2.241,4.998-3,9.334c-1.298,7.421-1.313,19.25-1.313,19.25c-6.688,20.584-13.187,28.083-16.854,47.917c2.008,1.148,9.305,1.055,11.026,2.202c1.723,1.148,2.297,3.444,5.453,4.018c3.059,0.558,10.7,4.879,25.521,3.583c14.82,1.296,22.461-3.025,25.52-3.583c3.156-0.573,3.73-2.869,5.453-4.018c1.721-1.147,9.02-1.054,11.027-2.202C290.667,359.167,281.832,345.834,275.145,325.25z"></path><g><path style="fill:#505050;" d="M236.96,318.477c0,0-2.862,11.709,0.78,18.473c1.041-4.943,1.041-7.806,1.041-7.806l1.561-9.627L236.96,318.477z"></path><path style="fill:#505050;" d="M230.126,319.921c0,0,2.049,10.249-2.523,16.242c0.158-5.52-0.316-6.78,0-8.988C227.918,324.967,230.126,319.921,230.126,319.921z"></path><path style="fill:#505050;" d="M263.039,318.477c0,0,2.863,11.709-0.779,18.473c-1.041-4.943-1.041-7.806-1.041-7.806l-1.561-9.627L263.039,318.477z"></path><path style="fill:#505050;" d="M269.874,319.921c0,0-2.049,10.249,2.523,16.242c-0.157-5.52,0.315-6.78,0-8.988S269.874,319.921,269.874,319.921z"></path></g></g><g><g><circle cx="250" cy="305.807" r="1.171"></circle><circle cx="250" cy="311.531" r="1.171"></circle><circle cx="250" cy="317.256" r="1.171"></circle></g><g><path style="fill:none;stroke:#000000;stroke-linecap:round;stroke-linejoin:round;" d="M245.756,299.433c0,0-1.562,8.587-0.521,18.733"></path><path style="fill:none;stroke:#000000;stroke-linecap:round;stroke-linejoin:round;" d="M254.244,299.433c0,0,1.562,8.587,0.521,18.733"></path></g></g><g><path style="fill:#FFFFFF;stroke:#000000;stroke-linecap:round;stroke-linejoin:round;" d="M224.637,315.982c0.214,0.168,5.45,4.127,24.843,4.127c19.341,0,25.552-3.904,25.807-4.072l0,0c0.481-0.313,0.617-0.958,0.303-1.439c-0.313-0.481-0.959-0.617-1.439-0.303l0,0c0.003-0.003,0.002-0.002,0.006-0.005c-0.06,0.038-6.111,3.738-24.676,3.738c-18.677,0-23.506-3.643-23.552-3.68l0,0c-0.45-0.355-1.105-0.278-1.462,0.172C224.11,314.973,224.187,315.626,224.637,315.982L224.637,315.982z"></path></g><g><g><g><path style="fill:#FFFFFF;stroke:#000000;stroke-linecap:round;stroke-linejoin:round;" d="M248.136,318.876c-0.151,0.468-3.7,11.542-2.12,21.815l0,0c0.087,0.568,0.619,0.959,1.187,0.871c0.568-0.088,0.958-0.619,0.871-1.187l0,0c-1.504-9.774,2.007-20.746,2.042-20.855v0.001c0.178-0.547-0.121-1.135-0.668-1.312C248.902,318.031,248.314,318.329,248.136,318.876L248.136,318.876z"></path></g><g><path style="fill:#FFFFFF;stroke:#000000;stroke-linecap:round;stroke-linejoin:round;" d="M250.473,319.763L250.473,319.763c0.038,0.126,3.856,12.706,3.856,21.292l0,0c0,0.574,0.467,1.04,1.042,1.04s1.04-0.466,1.04-1.04l0,0c0-8.901-3.787-21.374-3.949-21.9l0,0c-0.167-0.549-0.75-0.858-1.299-0.69C250.613,318.633,250.305,319.214,250.473,319.763L250.473,319.763z"></path></g></g><path style="fill:#FFFFFF;stroke:#000000;stroke-linecap:round;stroke-linejoin:round;" d="M249.517,319.654c-0.196,0.39-3.643,8.846-4.814,8.846s-2.927-2.667-2.472-3.577c0.456-0.911,6.439-5.984,6.439-5.984L249.517,319.654z"></path><path style="fill:#FFFFFF;stroke:#000000;stroke-linecap:round;stroke-linejoin:round;" d="M250.483,319.654c0.194,0.39,3.643,8.846,4.813,8.846c1.171,0,2.927-2.667,2.473-3.577c-0.456-0.911-6.44-5.984-6.44-5.984L250.483,319.654z"></path><path style="fill:#FFFFFF;stroke:#000000;stroke-linecap:round;stroke-linejoin:round;" d="M248.477,317.768c0,0-0.065,2.276,0.455,2.603c0.521,0.13,0.715,0.194,0.715,0.194s0.846,0.521,1.431,0.26c0.586-0.26,0.65-2.796,0.325-2.926C251.077,317.768,249.582,317.638,248.477,317.768z"></path></g></g></g></svg>