<svg xmlns="http://www.w3.org/2000/svg" width="500" height="500" version="1.1"><g id="x201"><g><g><g><g><g><path style="fill:#FFFFFF;stroke:#000000;stroke-linecap:round;stroke-linejoin:round;" d="M226.486,287.666c0,0-8.333,6.834-11.083,14.5c-1.087,3.03-6,14.835-6,14.835c7.166,4.334,18,7.5,18,7.5l6.916-32.001L226.486,287.666z"></path></g><path style="fill:#E4E0F3;" d="M229.736,296.334c0,0-7.834,6-8.167,10s4.834,14.5,4.834,14.5L229.736,296.334z"></path></g><g id="topsXMLID_24_"><g><path style="fill:#6E6E6E;" d="M209.231,317.75c3.5,2.62,13.5,6.37,14.76,6.25c-0.38-4.12,1.37-8.38,1.37-8.38l-13.25-5.24L209.231,317.75z"></path></g><path style="fill:#FFFFFF;" d="M223.986,318.625c0,0-12-4.75-13.125-5.375c-0.625,1.625-0.875,2.375-0.875,2.375s12,5.125,13.5,5.125C223.736,319.75,223.986,318.625,223.986,318.625z"></path><g><path style="fill:none;stroke:#000000;stroke-linecap:round;stroke-linejoin:round;" d="M225.361,315.62l-13.25-5.24l-2.88,7.37c3.5,2.62,13.5,6.37,14.76,6.25C223.611,319.88,225.361,315.62,225.361,315.62z"></path></g></g></g><g><g><g><path style="fill:#FFFFFF;stroke:#000000;stroke-linecap:round;stroke-linejoin:round;" d="M273.514,287.666c0,0,8.333,6.834,11.083,14.5c1.087,3.03,6,14.835,6,14.835c-7.166,4.334-18,7.5-18,7.5l-6.916-32.001L273.514,287.666z"></path></g><path style="fill:#E4E0F3;" d="M270.264,296.334c0,0,7.834,6,8.167,10s-4.834,14.5-4.834,14.5L270.264,296.334z"></path></g><g id="topsXMLID_13_"><g><path style="fill:#6E6E6E;" d="M290.769,317.75c-3.5,2.62-13.5,6.37-14.76,6.25c0.38-4.12-1.37-8.38-1.37-8.38l13.25-5.24L290.769,317.75z"></path></g><path style="fill:#FFFFFF;" d="M276.014,318.625c0,0,12-4.75,13.125-5.375c0.625,1.625,0.875,2.375,0.875,2.375s-12,5.125-13.5,5.125C276.264,319.75,276.014,318.625,276.014,318.625z"></path><g><path style="fill:none;stroke:#000000;stroke-linecap:round;stroke-linejoin:round;" d="M274.639,315.62l13.25-5.24l2.88,7.37c-3.5,2.62-13.5,6.37-14.76,6.25C276.389,319.88,274.639,315.62,274.639,315.62z"></path></g></g></g></g><path style="fill:#6E6E6E;stroke:#000000;stroke-linecap:round;stroke-linejoin:round;" d="M236.581,292.547h26.839c0,0-13.725,53.368-13.725,52.453S236.581,292.547,236.581,292.547z"></path><g><path style="fill:#FFFFFF;stroke:#000000;stroke-linecap:round;stroke-linejoin:round;" d="M285.857,359.748l-9-35.748c0,0-1.75-16-2.5-19.5s-4.25-12.5-4.25-12.5s2-1.5,4.25-4c-3.5-4-10.75-7.25-10.75-7.25l-13.606,26.917l-13.608-26.917c0,0-7.25,3.25-10.75,7.25c2.25,2.5,4.25,4,4.25,4s-3.5,9-4.25,12.5s-2.5,19.5-2.5,19.5l-9,35.748c1.027,0.65,2.401,1.164,4.047,1.574c-0.12,0.849-0.189,1.345-0.189,1.345s5.113,5.703,31.667,5.834c0.438,0.002,0.167-1.334,0.333-1.7c27.75,0,32-4.134,32-4.134s-0.07-0.496-0.189-1.345C283.456,360.912,284.831,360.398,285.857,359.748z"></path><path style="fill:#E4E0F3;" d="M218.834,361l3.5-21.5c-4,8.333-6.667,20.167-6.667,20.167S218.001,361.167,218.834,361z"></path><path style="fill:#E4E0F3;" d="M281.832,361l-3.5-21.5c4,8.333,6.667,20.167,6.667,20.167S282.665,361.167,281.832,361z"></path><path style="fill:none;stroke:#000000;stroke-linecap:round;stroke-linejoin:round;" d="M219.167,358c0,0,14.833,6.5,30,5.5c0.167-0.833,0.167-1.5,0.167-1.5s27.333-0.667,31.333-3c0.166-1.167,0.333-1.667,0.333-1.667s2.667-0.833,3.667-1.333"></path><path style="fill:none;stroke:#000000;stroke-linecap:round;stroke-linejoin:round;" d="M216,355.5c0,0,1.833,1.333,2.833,1.333"></path><line style="fill:none;stroke:#000000;stroke-linecap:round;stroke-linejoin:round;" x1="218.2" y1="361.75" x2="219.325" y2="355.75"></line></g></g></g></svg>