<svg xmlns="http://www.w3.org/2000/svg" width="500" height="500" version="1.1"><g id="x202"><g><g><g><path style="fill:#FFFFFF;stroke:#000000;stroke-linecap:round;stroke-linejoin:round;" d="M236.333,300.792l13.417,7.083c0,0,13.416-6.167,13.333-6.417s-6.583-12.833-6.583-12.833l-14-0.083L236.333,300.792z"></path><path style="fill:#E4E0F3;" d="M239.875,298.454c0,0,8.063-4.105,9.375-4.35c1.313-0.245,4.313,0.488,4.5,0.537s-5.688,3.274-4.938,3.666c0.75,0.391,6.313-0.88,7.563-0.587s4.625,1.075,4.688,0.685c0.063-0.392-5.375-8.895-6.063-8.846s-10.375-0.685-10.375-0.685S239.75,296.059,239.875,298.454z"></path></g><g><g><path style="fill:#6E6E6E;stroke:#000000;stroke-linecap:round;stroke-linejoin:round;" d="M241.288,292.5c0,0,4.25,1.875,4.625,2c0.75-1.625,1.5-2,1.25-2.5s-2.5-2.875-2.5-2.875L241.288,292.5z"></path><path style="fill:#6E6E6E;stroke:#000000;stroke-linecap:round;stroke-linejoin:round;" d="M258.712,292.5c0,0-4.25,1.875-4.625,2c-0.75-1.625-1.5-2-1.25-2.5s2.5-2.875,2.5-2.875L258.712,292.5z"></path></g><path style="fill:#6E6E6E;stroke:#000000;stroke-linecap:round;stroke-linejoin:round;" d="M253.375,297.875L250,298l-3.375-0.125l-1.75,10.5c0,0,5.125,1,5.125,0.625c0,0.375,5.125-0.625,5.125-0.625L253.375,297.875z"></path><path style="fill:#6E6E6E;stroke:#000000;stroke-linecap:round;stroke-linejoin:round;" d="M255.109,294c0,0-1.135-2.625-1.816-2.875c-1.362,0.25-3.293,0-3.293,0s-1.93,0.25-3.293,0c-0.681,0.25-1.817,2.875-1.817,2.875c-0.227,1,2.158,4.375,2.158,4.375h5.904C252.952,298.375,255.337,295,255.109,294z"></path></g><g><path style="fill:#FFFFFF;stroke:#000000;stroke-linecap:round;stroke-linejoin:round;" d="M235.874,289.25c0,0,2.703,9.5,2.703,10.25s6.036-9.083,7.027-9.5c0.991-0.417,4.324,1.583,4.324,1.583s0-1.5-0.541-3.333c-8.649-3.25-9.459-8.25-9.459-8.25S236.144,286.5,235.874,289.25z"></path><path style="fill:#FFFFFF;stroke:#000000;stroke-linecap:round;stroke-linejoin:round;" d="M264.125,289.25c0,0-2.703,9.5-2.703,10.25s-6.035-9.083-7.026-9.5c-0.99-0.417-4.323,1.583-4.323,1.583s0-1.5,0.541-3.333c8.646-3.25,9.458-8.25,9.458-8.25S263.854,286.5,264.125,289.25z"></path></g></g><g><g id="topsXMLID_26_"><g><path style="fill:#F0E8CF;" d="M263.5,316.125l-1.85-14.45l-11.65,5.2l-11.65-5.2l-1.85,14.45c0.451,1.264,2.337,3.569,4.561,6h17.878C261.163,319.694,263.049,317.389,263.5,316.125z"></path></g></g><g><g><line style="fill:none;stroke:#DEBDAD;stroke-linecap:round;stroke-linejoin:round;" x1="241.844" y1="303.563" x2="241.844" y2="308.375"></line><line style="fill:none;stroke:#DEBDAD;stroke-linecap:round;stroke-linejoin:round;" x1="244.531" y1="304.813" x2="244.531" y2="309.625"></line><line style="fill:none;stroke:#DEBDAD;stroke-linecap:round;stroke-linejoin:round;" x1="247.219" y1="306.063" x2="247.219" y2="310.875"></line></g><g><line style="fill:none;stroke:#DEBDAD;stroke-linecap:round;stroke-linejoin:round;" x1="258.156" y1="303.563" x2="258.156" y2="308.375"></line><line style="fill:none;stroke:#DEBDAD;stroke-linecap:round;stroke-linejoin:round;" x1="255.469" y1="304.813" x2="255.469" y2="309.625"></line><line style="fill:none;stroke:#DEBDAD;stroke-linecap:round;stroke-linejoin:round;" x1="252.781" y1="306.063" x2="252.781" y2="310.875"></line></g></g><path style="fill:#DEBDAD;" d="M258,314.625c0,0-2.5,1.875-8,1.875s-8-1.875-8-1.875c0.304,2.185,2.198,5.087,4.067,7.5h7.865C255.802,319.712,257.696,316.81,258,314.625z"></path><path style="fill:#DEBDAD;" d="M253.933,322.125h-7.865c1.98,2.557,3.933,4.563,3.933,4.563S251.952,324.682,253.933,322.125z"></path><line style="fill:none;stroke:#000000;stroke-linecap:round;stroke-linejoin:round;" x1="250" y1="306.875" x2="250" y2="311.625"></line><g><path style="fill:none;stroke:#000000;stroke-linecap:round;stroke-linejoin:round;" d="M263.5,316.125l-1.85-14.45l-11.65,5.2l-11.65-5.2l-1.85,14.45c0.451,1.264,2.337,3.569,4.561,6h17.878C261.163,319.694,263.049,317.389,263.5,316.125z"></path></g></g><g><g><path style="fill:#6E6E6E;stroke:#000000;stroke-linecap:round;stroke-linejoin:round;" d="M195.563,351c0,0,8.25,5.75,17,8c3.75-5.75,14-35.25,14-35.25l7.5-32.25l4.375-10.5c0,0-9.5,1.833-16,8c-7,12.333-13.625,33.25-13.625,33.25L195.563,351z"></path><line style="fill:none;stroke:#000000;stroke-linecap:round;stroke-linejoin:round;" x1="223.438" y1="289.167" x2="228.938" y2="299.167"></line><path style="fill:#505050;" d="M228.813,297c-0.75,0.5-6.5,8.5-7,15.5s3.25,18.5,3.25,18.5L228.813,297z"></path></g><g><path style="fill:#6E6E6E;stroke:#000000;stroke-linecap:round;stroke-linejoin:round;" d="M304.438,351c0,0-8.25,5.75-17,8c-3.75-5.75-14-35.25-14-35.25l-7.5-32.25l-4.375-10.5c0,0,9.5,1.833,16,8c7,12.333,13.625,33.25,13.625,33.25L304.438,351z"></path><line style="fill:none;stroke:#000000;stroke-linecap:round;stroke-linejoin:round;" x1="276.563" y1="289.167" x2="271.063" y2="299.167"></line><path style="fill:#505050;" d="M271.188,297c0.75,0.5,6.5,8.5,7,15.5s-3.25,18.5-3.25,18.5L271.188,297z"></path></g></g><g><g><path style="fill:#6E6E6E;stroke:#000000;stroke-linecap:round;stroke-linejoin:round;" d="M271.783,299.167c0,0,3.875,5.583,3.875,9.583s2.5,17.5,3,19s6.5,28.75,6.75,33.5c-7,3.75-30.621,4.629-47.12,4.629c0-20.75,1.121-33.379,1.121-33.379l23.749-23.75L271.783,299.167z"></path><path style="fill:#505050;" d="M251.833,324.833c0,0,3.167,15,8.334,32.167c4.5-5.667,2.5-20,2.5-20.667s-2.5-9.166-2.5-9.833s7.166-13.333,7.166-13.333L251.833,324.833z"></path><path style="fill:#6E6E6E;stroke:#000000;stroke-linecap:round;stroke-linejoin:round;" d="M228,299.167c0,0-3.875,5.583-3.875,9.583s-2.5,17.5-3,19s-6.5,28.75-6.75,33.5c7,3.75,29.5,5.75,46,5.75c0-20.75,0-34.5,0-34.5l-23.75-23.75L228,299.167z"></path><g><circle style="fill:#FFBF00;stroke:#000000;stroke-linecap:round;stroke-linejoin:round;" cx="257.563" cy="336.388" r="2.353"></circle><circle style="fill:#FFBF00;stroke:#000000;stroke-linecap:round;stroke-linejoin:round;" cx="257.563" cy="352.696" r="2.353"></circle><circle style="fill:#FFBF00;stroke:#000000;stroke-linecap:round;stroke-linejoin:round;" cx="242.687" cy="336.388" r="2.352"></circle><circle style="fill:#FFBF00;stroke:#000000;stroke-linecap:round;stroke-linejoin:round;" cx="242.687" cy="352.696" r="2.352"></circle></g></g></g></g></g></svg>