<svg xmlns="http://www.w3.org/2000/svg" width="500" height="500" version="1.1"><g id="x203"><g><g><path style="fill:#6E6E6E;stroke:#000000;stroke-linecap:round;stroke-linejoin:round;" d="M276.168,327.167c0,0-1.668-8.667-1.668-12.167s-0.166-7.834-0.832-11.667c2.332-5.166,3-16.333,3-16.333s-2.834-0.667-5.334-1.333C267,281.833,259.5,280.5,259.5,280.5l-2.332,5.167l-4.001-1.334l-1.833,6.167l-4.25-6.25l-4.25,1.417L240.5,280.5c0,0-7.5,1.333-11.834,5.167c-2.5,0.666-5.333,1.333-5.333,1.333s0.667,11.167,3,16.333c-0.667,3.833-0.833,8.167-0.833,11.667s-1.667,12.167-1.667,12.167s-6.5,15-7.5,24C221.166,354,250,354.333,250,354.333s28.834-0.333,33.667-3.166C282.667,342.167,276.168,327.167,276.168,327.167z"></path><g><path style="fill:#505050;" d="M224.35,293c0,0,1.625,1.5,3.125,0.25c-0.375,2.875-1,8.625-1,8.625S224.6,295.125,224.35,293z"></path><path style="fill:none;stroke:#000000;stroke-linecap:round;stroke-linejoin:round;" d="M226.091,303.833c0.167-0.5,1.5-10.334,2-13.5"></path><path style="fill:#505050;" d="M275.651,293c0,0-1.625,1.5-3.125,0.25c0.375,2.875,1,8.625,1,8.625S275.401,295.125,275.651,293z"></path><path style="fill:none;stroke:#000000;stroke-linecap:round;stroke-linejoin:round;" d="M273.909,303.833c-0.168-0.5-1.5-10.334-2-13.5"></path></g></g><g><g id="topsXMLID_28_"><g><path style="fill:#FFFFFF;" d="M236.425,279.67l3.5,0.33c0,0-2.17,7.67-2.83,11.67c0,0-3.17-1.17-5-7.17L236.425,279.67z"></path></g><path style="fill:#6E6E6E;" d="M233.4,283.313c0,0,1.563,4.188,4,6c0.25-1.563,0.313-2.063,0.313-2.063s-3.125-4.25-3.313-5.375C233.837,282.625,233.4,283.313,233.4,283.313z"></path><g><path style="fill:none;stroke:#000000;stroke-linecap:round;stroke-linejoin:round;" d="M239.925,280l-3.5-0.33l-4.33,4.83c1.83,6,5,7.17,5,7.17C237.755,287.67,239.925,280,239.925,280z"></path></g></g><g id="topsXMLID_32_"><g><path style="fill:#FFFFFF;" d="M263.575,279.67l-3.5,0.33c0,0,2.17,7.67,2.83,11.67c0,0,3.17-1.17,5-7.17L263.575,279.67z"></path></g><path style="fill:#6E6E6E;" d="M266.601,283.313c0,0-1.563,4.188-4,6c-0.25-1.563-0.313-2.063-0.313-2.063s3.125-4.25,3.313-5.375C266.163,282.625,266.601,283.313,266.601,283.313z"></path><g><path style="fill:none;stroke:#000000;stroke-linecap:round;stroke-linejoin:round;" d="M260.075,280l3.5-0.33l4.33,4.83c-1.83,6-5,7.17-5,7.17C262.245,287.67,260.075,280,260.075,280z"></path></g></g></g><ellipse transform="matrix(0.9571 0.2897 -0.2897 0.9571 94.8596 -60.9134)" style="fill:#FFFFFF;stroke:#000000;stroke-linecap:round;stroke-linejoin:round;" cx="253.208" cy="289.999" rx="1.042" ry="2.333"></ellipse><g><polyline style="fill:none;stroke:#000000;stroke-linecap:round;stroke-linejoin:round;" points="251.669,291.458 251.669,310.209 246.766,310.209 246.766,298.276 "></polyline><g><circle style="fill:#FFFFFF;stroke:#000000;stroke-linecap:round;stroke-linejoin:round;" cx="249.271" cy="295.134" r="1.652"></circle><circle style="fill:#FFFFFF;stroke:#000000;stroke-linecap:round;stroke-linejoin:round;" cx="249.271" cy="301.632" r="1.652"></circle><circle style="fill:#FFFFFF;stroke:#000000;stroke-linecap:round;stroke-linejoin:round;" cx="249.271" cy="308.13" r="1.652"></circle></g></g></g></g></svg>