<svg xmlns="http://www.w3.org/2000/svg" width="500" height="500" version="1.1"><g id="x204"><g><g><path style="fill:#FFFFFF;stroke:#000000;stroke-linecap:round;stroke-linejoin:round;" d="M244.75,294.25c0,0,12.5,0,11.75,0S249.917,305,249.917,305L244.75,294.25z"></path></g><g><g><g><path style="fill:#6E6E6E;stroke:#000000;stroke-linecap:round;stroke-linejoin:round;" d="M212.417,305.5c0,0,6.5,6.833,15.5,10c2.667-12.667,3.833-20.667,3.833-20.667l-3.167-9.333c0,0-3.499,2.166-5.833,3.833c-0.978,0.698-3.333,5.666-3.333,5.666L212.417,305.5z"></path><path style="fill:#505050;" d="M225.333,313.5c0-1-2.25-9.75-1.75-13.75s6-3.75,6-3.75L225.333,313.5z"></path><path style="fill:none;stroke:#000000;stroke-linecap:round;stroke-linejoin:round;" d="M214.849,302.52c0,0,10.491,7.262,11.803,8.128"></path></g><g><path style="fill:#6E6E6E;stroke:#000000;stroke-linecap:round;stroke-linejoin:round;" d="M287.583,305.5c0,0-6.5,6.833-15.5,10c-2.666-12.667-3.833-20.667-3.833-20.667l3.167-9.333c0,0,3.5,2.166,5.833,3.833c0.978,0.698,3.333,5.666,3.333,5.666L287.583,305.5z"></path><path style="fill:#505050;" d="M274.667,313.5c0-1,2.25-9.75,1.75-13.75s-6-3.75-6-3.75L274.667,313.5z"></path><path style="fill:none;stroke:#000000;stroke-linecap:round;stroke-linejoin:round;" d="M285.151,302.52c0,0-10.49,7.262-11.803,8.128"></path></g></g><g><path style="fill:#6E6E6E;stroke:#000000;stroke-linecap:round;stroke-linejoin:round;" d="M275.5,326.167c0.166-3-0.834-18.834-1.334-21.334L270.5,294l1-8.5c0,0-2.834-1.667-10.5-3.667c0,0-8.5,16.667-11,23.167c-2.5-6.5-11-23.167-11-23.167c-7.667,2-10.5,3.667-10.5,3.667l1,8.5l-3.667,10.833c-0.5,2.5-1.5,18.334-1.333,21.334c0.5,0.667-8.667,25-8.833,28.5C216.334,355.501,250,356,250,356s33.666-0.499,34.333-1.333C284.166,351.167,275,326.834,275.5,326.167z"></path><g><path style="fill:none;stroke:#000000;stroke-linecap:round;stroke-linejoin:round;" d="M236.5,290c0,0-6.333,16.333-6.333,19.333s0.333,16.334,0.333,16.334s-5.667,20.666-6.333,29.666"></path><path style="fill:none;stroke:#000000;stroke-linecap:round;stroke-linejoin:round;" d="M263.5,290c0,0,6.333,16.333,6.333,19.333s-0.333,16.334-0.333,16.334s5.667,20.666,6.333,29.666"></path></g></g></g></g></g></svg>