<svg xmlns="http://www.w3.org/2000/svg" width="500" height="500" version="1.1"><g id="x210"><g><path style="fill:#6E6E6E;stroke:#000000;stroke-linecap:round;stroke-linejoin:round;" d="M278.25,334l-1.5-8.25l-26.75-1l-26.75,1l-1.5,8.25c-2.75,7.75-4,14.25-4,14.25C225,352,250,352,250,352s25,0,32.25-3.75C282.25,348.25,281,341.75,278.25,334z"></path><path style="fill:#505050;" d="M226.75,329.5c1,0,14.25,0,17.75-1.25s18.5-1.25,21.75,1.25s6,2.5,6,2.5s-6.25,9-10.75,11.25c-1.628,0.813-27.75-1-29.75-3.75c3.5-3,20.25-3.25,17.5-3.5S226.75,329.5,226.75,329.5z"></path><g><g><g><path style="fill:#302E33;stroke:#000000;stroke-linecap:round;stroke-linejoin:round;" d="M223.125,333.333l7.167-35.5l-7.5-11.166c0,0-2.834,0-3.5,0.833c-0.667,2.667-1.5,5-1.5,5l-2.667,3.167c0,0-0.5,2.667-0.5,4.5c-1.333,3.5-4.5,17.666-6,21.833c-0.449,0.979-1.388,2.96-2.564,5.431l15.473,9.194L223.125,333.333z"></path><path style="fill:#FFFFFF;stroke:#000000;stroke-linecap:round;stroke-linejoin:round;" d="M202.442,334.015c0,0,2.394-9.894,3.577-11.654c5.292,1.002,16.936,7.129,16.936,7.129l-4.02,11.996L202.442,334.015z"></path><path style="fill:#5C575C;" d="M215.292,300c0,0-0.167-3.499,0.333-4.333c2.333,1.833,6.833,7.833,6.833,7.833S215.625,301.167,215.292,300z"></path></g></g><g><g><path style="fill:#302E33;stroke:#000000;stroke-linecap:round;stroke-linejoin:round;" d="M291.378,322c-1.5-4.167-4.668-18.333-6-21.833c0-1.833-0.5-4.5-0.5-4.5l-2.668-3.167c0,0-0.832-2.333-1.5-5c-0.666-0.833-3.5-0.833-3.5-0.833l-7.5,11.166l7.168,35.5l1.075,2.225l17.307-5.358C293.486,326.476,291.984,323.323,291.378,322z"></path><path style="fill:#FFFFFF;stroke:#000000;stroke-linecap:round;stroke-linejoin:round;" d="M297.558,334.015c0,0-2.394-9.894-3.577-11.654c-5.291,1.002-16.936,7.129-16.936,7.129l4.02,11.996L297.558,334.015z"></path><path style="fill:#5C575C;" d="M284.71,300c0,0,0.168-3.499-0.332-4.333c-2.334,1.833-6.834,7.833-6.834,7.833S284.378,301.167,284.71,300z"></path></g></g></g><g><path style="fill:#302E33;stroke:#000000;stroke-linecap:round;stroke-linejoin:round;" d="M260.25,280.5c0,0,14.25,3.25,18.499,6.5c0,6.25-2.499,14.25-2.499,14.25l3.166,25.917c-2.75,2.25-14.416,6.083-16.166,6.333s-15.75-7.25-15.75-7.25v-36.083L260.25,280.5z"></path><path style="fill:none;stroke:#000000;stroke-linecap:round;stroke-linejoin:round;" d="M259.167,304c0,0,10.333,0,12.333,0c0,1.833,0,3.167,0,3.167"></path></g><g><path style="fill:#302E33;stroke:#000000;stroke-linecap:round;stroke-linejoin:round;" d="M240,280.5c0,0-14.25,3.25-18.5,6.5c0,6.25,2.5,14.25,2.5,14.25l-3.167,25.917c2.75,2.25,14.417,6.083,16.167,6.333s15.75-7.25,15.75-7.25v-35.583L240,280.5z"></path></g><g><g><g><circle style="fill:#FFBF00;stroke:#000000;stroke-linecap:round;stroke-linejoin:round;" cx="248.834" cy="293.333" r="2.75"></circle></g></g><g><g><circle style="fill:#FFBF00;stroke:#000000;stroke-linecap:round;stroke-linejoin:round;" cx="248.834" cy="303.958" r="2.75"></circle></g></g><g><g><circle style="fill:#FFBF00;stroke:#000000;stroke-linecap:round;stroke-linejoin:round;" cx="248.834" cy="314.583" r="2.75"></circle></g></g></g></g></g></svg>