<svg xmlns="http://www.w3.org/2000/svg" width="500" height="500" version="1.1"><g id="x211"><g><g><g><g><path style="fill:#6E6E6E;stroke:#000000;stroke-linecap:round;stroke-linejoin:round;" d="M222.792,286.667c0,0-2.834,0-3.5,0.833c-0.667,2.667-1.5,5-1.5,5l-2.667,3.167c0,0-0.5,2.667-0.5,4.5c-1.333,3.5-4.5,17.666-6,21.833c-1.833,4-11.833,24.667-12.833,27.5c3.833,2.5,15.733,7.833,15.733,7.833l11.6-24l7.167-35.5L222.792,286.667z"></path><path style="fill:#505050;" d="M215.292,300c0,0-0.167-3.499,0.333-4.333c2.333,1.833,6.833,7.833,6.833,7.833S215.625,301.167,215.292,300z"></path></g></g><g><g><path style="fill:#6E6E6E;stroke:#000000;stroke-linecap:round;stroke-linejoin:round;" d="M277.21,286.667c0,0,2.834,0,3.5,0.833c0.668,2.667,1.5,5,1.5,5l2.668,3.167c0,0,0.5,2.667,0.5,4.5c1.332,3.5,4.5,17.666,6,21.833c1.832,4,11.832,24.667,12.832,27.5c-3.832,2.5-15.732,7.833-15.732,7.833l-11.6-24l-7.168-35.5L277.21,286.667z"></path><path style="fill:#505050;" d="M284.71,300c0,0,0.168-3.499-0.332-4.333c-2.334,1.833-6.834,7.833-6.834,7.833S284.378,301.167,284.71,300z"></path></g></g></g><path style="fill:#FFFFFF;stroke:#000000;stroke-linecap:round;stroke-linejoin:round;" d="M281.25,342c0,0,0.25-3.25,0.5-4.25s-2-3.25-3.75-5l-1.25-8c0,0-4.25-29-13-37.5c-2.25,8.25-25.25,8.25-27.5,0c-8.75,8.5-13,37.5-13,37.5l-1.25,8c-1.75,1.75-4,4-3.75,5s0.5,4.25,0.5,4.25l-1.75,5.75c4.75,4.75,33,3.75,33,3.75s28.25,1,33-3.75L281.25,342z"></path><path style="fill:#E4E0F3;" d="M281.167,337.5c0,0-1.333,3.333-1,4.333c0.333,1.5,1.166,4,1.166,4s-19.5-1.167-19.5-3S281.167,337.5,281.167,337.5z"></path><path style="fill:#E4E0F3;" d="M275.667,326.167c-0.667,0-10.334,5.666-14.167,6.166S231.333,326,230.333,323c10.833-3,39.833-1.5,39.833-1.5L275.667,326.167z"></path><g><path style="fill:#E4E0F3;" d="M218.895,337.375c0,0-0.25,3.625,0.5,4.5c2.5,1.125,8.772,2.625,11.939,1.625C226.167,341.333,218.895,337.375,218.895,337.375z"></path></g><g><g><g><g><polygon style="fill:#E4E0F3;stroke:#000000;stroke-linecap:round;stroke-linejoin:round;" points="233.132,277.333 240.299,279 240.132,280.898 233.799,284.398 "></polygon><polygon style="fill:#505050;stroke:#000000;stroke-linecap:round;stroke-linejoin:round;" points="235.132,277.833 235.966,283.667 233.299,283.333 232.632,277 "></polygon></g><path style="fill:#6E6E6E;stroke:#000000;stroke-linecap:round;stroke-linejoin:round;" d="M245.466,327.167l-3.833-38.667l-1.586-1.11l-0.414-5.89c-2.667,0-7.5,0.833-8.333,1.5l0.01,0.044c-3.621,1.144-7.336,2.548-9.177,3.956c0.333,15,1.333,20.833,1.333,20.833l-2.167,18.334C224.466,327.833,245.466,327.167,245.466,327.167z"></path><g><path style="fill:#6E6E6E;stroke:#000000;stroke-linecap:round;stroke-linejoin:round;" d="M229.632,285c0,0,0.5-8,1-9c2.167,0.333,3,0.667,3,0.667s0.5,6.833,0.833,7.666"></path></g></g><g><g><polygon style="fill:#E4E0F3;stroke:#000000;stroke-linecap:round;stroke-linejoin:round;" points="266.868,277.333 259.702,279 259.868,280.898 266.202,284.398 "></polygon><polygon style="fill:#505050;stroke:#000000;stroke-linecap:round;stroke-linejoin:round;" points="264.868,277.833 264.035,283.667 266.702,283.333 267.368,277 "></polygon></g><path style="fill:#6E6E6E;stroke:#000000;stroke-linecap:round;stroke-linejoin:round;" d="M254.535,327.167l3.833-38.667l1.586-1.11l0.414-5.89c2.667,0,7.5,0.833,8.334,1.5l-0.011,0.044c3.621,1.144,7.336,2.548,9.177,3.956c-0.333,15-1.333,20.833-1.333,20.833l2.167,18.334C275.535,327.833,254.535,327.167,254.535,327.167z"></path><g><path style="fill:#6E6E6E;stroke:#000000;stroke-linecap:round;stroke-linejoin:round;" d="M270.368,285c0,0-0.5-8-1-9c-2.166,0.333-3,0.667-3,0.667s-0.5,6.833-0.833,7.666"></path></g></g></g><g><g><g><circle style="fill:#FFBF00;stroke:#000000;stroke-linecap:round;stroke-linejoin:round;" cx="237.334" cy="292.333" r="2.75"></circle></g></g><g><g><circle style="fill:#FFBF00;stroke:#000000;stroke-linecap:round;stroke-linejoin:round;" cx="238.167" cy="303.833" r="2.75"></circle></g></g><g><g><circle style="fill:#FFBF00;stroke:#000000;stroke-linecap:round;stroke-linejoin:round;" cx="239.001" cy="315.333" r="2.75"></circle></g></g></g></g></g></g></svg>