<svg xmlns="http://www.w3.org/2000/svg" width="500" height="500" version="1.1"><g id="x213"><g><g><polygon style="fill:#FFFFFF;stroke:#000000;stroke-linecap:round;stroke-linejoin:round;" points="240,278.366 250,280.366 250,284.033 239.334,281.199 "></polygon><polygon style="fill:#FFFFFF;stroke:#000000;stroke-linecap:round;stroke-linejoin:round;" points="260,278.366 250,280.366 250,284.033 260.666,281.199 "></polygon></g><g><g><polygon style="fill:#FFFFFF;stroke:#000000;stroke-linecap:round;stroke-linejoin:round;" points="197,349.333 195.333,353.333 209.5,360 211.333,355.667 "></polygon><g><path style="fill:#6E6E6E;stroke:#000000;stroke-linecap:round;stroke-linejoin:round;" d="M223.833,286.667c0,0-2.833,0-3.5,0.833c-0.667,2.667-1.5,5-1.5,5l-2.667,3.167c0,0-0.5,2.667-0.5,4.5c-1.333,3.5-5.5,17.666-7,21.833c-1.833,4-11.833,24.667-12.833,27.5c3.833,2.5,15.733,7.833,15.733,7.833l11.6-24l7.167-35.5L223.833,286.667z"></path><path style="fill:#505050;" d="M216.333,300c0,0-0.167-3.499,0.333-4.333C219,297.5,223.5,303.5,223.5,303.5S216.667,301.167,216.333,300z"></path></g></g><g><polygon style="fill:#FFFFFF;stroke:#000000;stroke-linecap:round;stroke-linejoin:round;" points="303.086,349.333 304.752,353.333 290.586,360 288.752,355.667 "></polygon><g><path style="fill:#6E6E6E;stroke:#000000;stroke-linecap:round;stroke-linejoin:round;" d="M276.252,286.667c0,0,2.834,0,3.5,0.833c0.667,2.667,1.5,5,1.5,5l2.667,3.167c0,0,0.5,2.667,0.5,4.5c1.333,3.5,5.5,17.666,7,21.833c1.833,4,11.833,24.667,12.833,27.5c-3.833,2.5-15.732,7.833-15.732,7.833l-11.601-24l-7.167-35.5L276.252,286.667z"></path><path style="fill:#505050;" d="M283.752,300c0,0,0.167-3.499-0.333-4.333c-2.333,1.833-6.833,7.833-6.833,7.833S283.419,301.167,283.752,300z"></path></g></g></g><g><g><path style="fill:#6E6E6E;stroke:#000000;stroke-linecap:round;stroke-linejoin:round;" d="M293.001,408.166L277.834,304c0,0-0.333-6.833-1.333-17.667c-5.834-4.5-16.834-5.833-16.834-5.833l-9.668,5l-9.667-5c0,0-11,1.333-16.833,5.833c-1,10.834-1.333,17.667-1.333,17.667l-15.167,104.166c0,0,15.749,3.334,43,3.334S293.001,408.166,293.001,408.166z"></path><path style="fill:none;stroke:#000000;stroke-linecap:round;stroke-linejoin:round;" d="M252.75,288.75c0,0-4.5,1.75-5,1.75c0,9,0,21.666,0,119.166"></path><g><path style="fill:#505050;" d="M237.153,285c-0.499,0.334,6.001,3.334,6.001,3.334s-5.667,0.666-6.5,0.666C236.154,287.167,237.153,285,237.153,285z"></path><path style="fill:#505050;" d="M262.848,285c0.498,0.334-6.002,3.334-6.002,3.334s5.668,0.666,6.5,0.666C263.846,287.167,262.848,285,262.848,285z"></path></g><g><path style="fill:none;stroke:#000000;stroke-linecap:round;stroke-linejoin:round;" d="M236.582,282.334c0,0-0.667,4.999,0,7.166"></path><path style="fill:none;stroke:#000000;stroke-linecap:round;stroke-linejoin:round;" d="M263.419,282.334c0,0,0.667,4.999,0,7.166"></path></g><g><g><path style="fill:#6E6E6E;stroke:#000000;stroke-linecap:round;stroke-linejoin:round;" d="M218.656,331.833c0,0,11.073,0.369,11.442,1.107c-0.369,0.924-0.738,2.215-0.738,2.215s-5.352,2.953-7.382,2.953s-4.245-1.477-4.245-1.477S218.103,332.94,218.656,331.833z"></path></g><g><path style="fill:#6E6E6E;stroke:#000000;stroke-linecap:round;stroke-linejoin:round;" d="M281.344,331.833c0,0-11.073,0.369-11.442,1.107c0.369,0.924,0.738,2.215,0.738,2.215s5.352,2.953,7.382,2.953s4.245-1.477,4.245-1.477S281.897,332.94,281.344,331.833z"></path></g></g></g><polygon style="fill:#6E6E6E;stroke:#000000;stroke-linecap:round;stroke-linejoin:round;" points="258.75,300.5 259.248,304.748 273.75,304.5 274.25,300.25 "></polygon><g><g><g><line style="fill:none;stroke:#000000;stroke-linecap:round;stroke-linejoin:round;" x1="251.833" y1="297.25" x2="255.833" y2="297.25"></line><circle style="fill:#FFBF00;stroke:#000000;stroke-linecap:round;stroke-linejoin:round;" cx="251" cy="297" r="2.75"></circle></g></g><g><g><line style="fill:none;stroke:#000000;stroke-linecap:round;stroke-linejoin:round;" x1="251.833" y1="307.875" x2="255.833" y2="307.875"></line><circle style="fill:#FFBF00;stroke:#000000;stroke-linecap:round;stroke-linejoin:round;" cx="251" cy="307.625" r="2.75"></circle></g></g><g><g><line style="fill:none;stroke:#000000;stroke-linecap:round;stroke-linejoin:round;" x1="251.833" y1="318.5" x2="255.833" y2="318.5"></line><circle style="fill:#FFBF00;stroke:#000000;stroke-linecap:round;stroke-linejoin:round;" cx="251" cy="318.25" r="2.75"></circle></g></g><g><g><line style="fill:none;stroke:#000000;stroke-linecap:round;stroke-linejoin:round;" x1="251.833" y1="329.125" x2="255.833" y2="329.125"></line><circle style="fill:#FFBF00;stroke:#000000;stroke-linecap:round;stroke-linejoin:round;" cx="251" cy="328.875" r="2.75"></circle></g></g><g><g><line style="fill:none;stroke:#000000;stroke-linecap:round;stroke-linejoin:round;" x1="251.833" y1="339.75" x2="255.833" y2="339.75"></line><circle style="fill:#FFBF00;stroke:#000000;stroke-linecap:round;stroke-linejoin:round;" cx="251" cy="339.5" r="2.75"></circle></g></g></g></g></g></g></svg>