<svg xmlns="http://www.w3.org/2000/svg" width="500" height="500" version="1.1"><g id="x215"><g><g><path style="fill:#505050;stroke:#000000;stroke-linecap:round;stroke-linejoin:round;" d="M202.271,339.833c0,0-3.834,8.001-4.5,11.334c0.666-9.334,3-30,11.333-42.167C205.604,322.333,202.271,339.833,202.271,339.833z"></path><path style="fill:#505050;stroke:#000000;stroke-linecap:round;stroke-linejoin:round;" d="M222.063,295c0,0-15.125,30.667-19.625,69.667c-1,0-1.5-0.167-2.5-0.834c0,0,0.334-29.666,8.291-53c2.947-8.643,5.5-16.168,8.75-19.833c4.93-5.558,12.5-5.75,12.5-5.75L222.063,295z"></path><path style="fill:#505050;stroke:#000000;stroke-linecap:round;stroke-linejoin:round;" d="M297.729,339.833c0,0,3.834,8.001,4.5,11.334c-0.666-9.334-3-30-11.333-42.167C294.396,322.333,297.729,339.833,297.729,339.833z"></path><path style="fill:#505050;stroke:#000000;stroke-linecap:round;stroke-linejoin:round;" d="M277.938,295c0,0,15.125,30.667,19.625,69.667c1,0,1.5-0.167,2.5-0.834c0,0-0.334-29.666-8.291-53c-2.947-8.643-5.5-16.168-8.75-19.833c-4.93-5.558-12.5-5.75-12.5-5.75L277.938,295z"></path></g><g><g><path style="fill:#6E6E6E;stroke:#000000;stroke-linecap:round;stroke-linejoin:round;" d="M222.041,287.018c0,0,6.75-4.337,18.25-6.351c3.667,0,9.667,0.31,9.667,0.31V364c-2,0-10.5-0.465-10.5-0.465l-0.5-8.364c0,0-1,6.661-1.167,8.52c-1.5,0.155-4.667,0-4.667,0l-0.667-4.646c0,0-0.5,2.479-0.667,4.646c-2.667,0-7.667,0-11-1.085c-0.5-1.084-0.833-4.646-0.5-10.997c-0.667,2.014-1.833,8.055-1.667,11.152c-3.833,0.155-6.167-0.464-6.167-0.464s-1-2.169-1.167-4.338l-0.5,3.718c0,0-2-0.154-3.167-0.93c0-0.311-0.5-8.983,0.5-13.476c-2,5.886-3.333,12.082-3.333,12.082s-1-35.006,11.106-57.802"></path><path style="fill:#505050;" d="M223.791,309.322c0,0-1.5,9.139-0.5,13.94c2.333-8.364,5.667-14.25,5.667-14.25L223.791,309.322z"></path><path style="fill:#505050;" d="M237.625,295.382c0-1.239-7.333-11.308-7.333-11.308s5.333-2.323,6.333-2.323c1.667,2.323,4,2.323,4,2.323L237.625,295.382z"></path><path style="fill:#505050;" d="M226.458,294.762c0,0,2.667-2.479,4.833-2.788s7.5,3.873,7.5,3.873L226.458,294.762z"></path><path style="fill:#505050;" d="M233.125,310.871c0,0-3.5,39.034,3.833,50.496c-0.333-27.726,1.333-52.819,1.333-52.819L233.125,310.871z"></path><path style="fill:#505050;" d="M229.958,306.689c0,0-1.333,8.364-0.833,19.206c0.833-4.646,4.333-15.334,4.333-15.334L229.958,306.689z"></path><path style="fill:#505050;" d="M220.958,308.237c0,0-4.333,6.972-6.167,17.039c-0.167-8.364,1.667-15.645,2.5-17.968C218.791,306.534,220.958,308.237,220.958,308.237z"></path><path style="fill:#505050;" d="M212.625,361.677c0,0-2-33.922,1.667-42.596c-0.5,11.926,3.667,43.061,3.667,43.061s-4.499,0.31-5.5,0.155"></path><path style="fill:none;stroke:#000000;stroke-linecap:round;stroke-linejoin:round;" d="M230.562,307.611c-1.197,10.214-2.5,40.449-0.938,54.686"></path><g><path style="fill:none;stroke:#000000;stroke-linecap:round;stroke-linejoin:round;" d="M217.353,306.274c0,0-6.265,36.106-4.124,55.68"></path><path style="fill:none;stroke:#000000;stroke-linecap:round;stroke-linejoin:round;" d="M215.224,315.986c-0.35,0.611-1.375,40.248,0.654,45.409"></path></g><path style="fill:none;stroke:#000000;stroke-linecap:round;stroke-linejoin:round;" d="M230.182,308.571c0,0-4.29,37.197-2.582,51.215"></path></g><g><path style="fill:#6E6E6E;stroke:#000000;stroke-linecap:round;stroke-linejoin:round;" d="M277.959,287.018c0,0-6.75-4.337-18.25-6.351c-3.667,0-9.667,0.31-9.667,0.31V364c2,0,10.5-0.465,10.5-0.465l0.5-8.364c0,0,1,6.661,1.167,8.52c1.5,0.155,4.666,0,4.666,0l0.667-4.646c0,0,0.5,2.479,0.667,4.646c2.667,0,7.666,0,11-1.085c0.5-1.084,0.834-4.646,0.5-10.997c0.666,2.014,1.833,8.055,1.666,11.152c3.834,0.155,6.167-0.464,6.167-0.464s1-2.169,1.167-4.338l0.5,3.718c0,0,2-0.154,3.166-0.93c0-0.311,0.5-8.983-0.5-13.476c2,5.886,3.334,12.082,3.334,12.082s1-35.006-11.105-57.802"></path><path style="fill:#505050;" d="M276.209,309.322c0,0,1.5,9.139,0.5,13.94c-2.334-8.364-5.666-14.25-5.666-14.25L276.209,309.322z"></path><path style="fill:#505050;" d="M262.375,295.382c0-1.239,7.334-11.308,7.334-11.308s-5.334-2.323-6.334-2.323c-1.666,2.323-4,2.323-4,2.323L262.375,295.382z"></path><path style="fill:#505050;" d="M273.543,294.762c0,0-2.668-2.479-4.834-2.788s-7.5,3.873-7.5,3.873L273.543,294.762z"></path><path style="fill:#505050;" d="M266.875,310.871c0,0,3.501,39.034-3.832,50.496c0.332-27.726-1.334-52.819-1.334-52.819L266.875,310.871z"></path><path style="fill:#505050;" d="M270.043,306.689c0,0,1.332,8.364,0.832,19.206c-0.833-4.646-4.332-15.334-4.332-15.334L270.043,306.689z"></path><path style="fill:#505050;" d="M279.043,308.237c0,0,4.332,6.972,6.166,17.039c0.166-8.364-1.666-15.645-2.5-17.968C281.209,306.534,279.043,308.237,279.043,308.237z"></path><path style="fill:#505050;" d="M287.375,361.677c0,0,2-33.922-1.666-42.596c0.5,11.926-3.666,43.061-3.666,43.061s4.498,0.31,5.499,0.155"></path><path style="fill:none;stroke:#000000;stroke-linecap:round;stroke-linejoin:round;" d="M269.438,307.611c1.197,10.214,2.501,40.449,0.938,54.686"></path><g><path style="fill:none;stroke:#000000;stroke-linecap:round;stroke-linejoin:round;" d="M282.646,306.274c0,0,6.266,36.106,4.125,55.68"></path><path style="fill:none;stroke:#000000;stroke-linecap:round;stroke-linejoin:round;" d="M284.775,315.986c0.35,0.611,1.375,40.248-0.653,45.409"></path></g><path style="fill:none;stroke:#000000;stroke-linecap:round;stroke-linejoin:round;" d="M269.818,308.571c0,0,4.289,37.197,2.581,51.215"></path></g></g><g><g><g><path style="fill:#FFFFFF;" d="M241.456,299.181c-0.836,5.86-2.29,14.66-2.29,14.66s-2.564,2.308-5.346,2.146c-3.24-0.172-3.87-2.812-3.87-2.812s-2.507,2.543-5.427,1.363c-2.918-1.171-3.754-3.521-3.754-3.521s-1.259,3.134-5.015,2.157C212,312.198,212,309.849,212,309.849s-2.713,0.59-3.537-0.591c-0.836-1.556-0.012-10.978,8.379-13.833C220.471,295.242,232.297,295.061,241.456,299.181z"></path></g><path style="fill:#BF0000;" d="M219.848,295.377c0,0,3.863,0.536,4.722,4.695c-2.147-0.135-10.876-0.671-10.876-0.671S216.842,295.511,219.848,295.377z"></path><path style="fill:#BF0000;" d="M232.44,296.584l1.431,4.695l4.865,1.342l0.286-4.293C239.022,298.328,233.871,296.45,232.44,296.584z"></path><path style="fill:#3F3F3F;" d="M226.001,296.048c0,0,3.577,1.609,4.149,4.561c2.003,0.269,4.58,0.402,4.58,0.402s-0.143-3.487-2.003-4.427C228.433,295.913,226.001,296.048,226.001,296.048z"></path><path style="fill:#3F3F3F;" d="M214.267,299.401c0,0,3.148-2.951,6.296-3.488c-2.432-0.671-4.579-0.536-4.579-0.536s-4.865,3.085-5.295,4.561C211.834,299.804,214.267,299.401,214.267,299.401z"></path><path style="fill:#BF0000;" d="M231.725,314.828c0,0,1.86,1.342,3.435,0.805c1.431-6.976,0.715-14.354,0.715-14.354l-3.577-0.134L231.725,314.828z"></path><path style="fill:#3F3F3F;" d="M229.578,313.353c0,0-0.286-11.134-0.143-11.939c-0.143-0.134,2.946-1.534,3.292,0c1.096,4.881-0.43,14.22-0.43,14.22L229.578,313.353z"></path><path style="fill:#BF0000;" d="M212.835,310.267c0,0,0.4,2.598,2.919,2.909c1.231-4.519,1.66-13.506,1.66-13.506l-2.719,0.134C214.696,299.804,211.691,307.853,212.835,310.267z"></path><path style="fill:#BF0000;" d="M225.142,300.34c0,0,2.146,11.806,1.574,14.086c-1.86,0.134-3.864-1.342-3.864-1.342l-1.288-13.012L225.142,300.34z"></path><path style="fill:#3F3F3F;" d="M219.275,312.279c0,0,1.001-11.402,1.001-12.476c0.572,0,1.86,0,2.29,0.536c0.685,4.344,1.145,13.817,1.145,13.817l-2.942-3.139L219.275,312.279z"></path><path style="fill:#3F3F3F;" d="M209.974,309.999c0,0,0.715-7.915,5.151-10.329c-1.431,5.231-2.146,12.207-2.146,12.207L212,309.849L209.974,309.999z"></path></g><g id="topsXMLID_34_"><g><path style="fill:none;stroke:#000000;stroke-linecap:round;stroke-linejoin:round;" d="M239.166,313.841c0,0-2.564,2.308-5.346,2.146c-3.24-0.172-3.87-2.812-3.87-2.812s-2.507,2.543-5.427,1.363c-2.918-1.171-3.754-3.521-3.754-3.521s-1.259,3.134-5.015,2.157C212,312.198,212,309.849,212,309.849s-2.713,0.59-3.537-0.591c-0.836-1.556-0.012-10.978,8.379-13.833c3.629-0.183,15.455-0.364,24.613,3.756C240.62,305.041,239.166,313.841,239.166,313.841z"></path></g></g><path style="fill:none;stroke:#000000;stroke-linecap:round;stroke-linejoin:round;" d="M211.309,300.072c0,0,2.862-1.073,12.211-0.18c8.361,0.8,20.416,3.398,20.416,3.398"></path></g><g><g><g><path style="fill:#FFFFFF;" d="M258.963,299.181c0.836,5.86,2.289,14.66,2.289,14.66s2.564,2.308,5.346,2.146c3.24-0.172,3.87-2.812,3.87-2.812s2.507,2.543,5.427,1.363c2.918-1.171,3.754-3.521,3.754-3.521s1.26,3.134,5.016,2.157c3.754-0.978,3.754-3.327,3.754-3.327s2.713,0.59,3.537-0.591c0.836-1.556,0.012-10.978-8.379-13.833C279.947,295.242,268.121,295.061,258.963,299.181z"></path></g><path style="fill:#BF0000;" d="M280.57,295.377c0,0-3.863,0.536-4.723,4.695c2.147-0.135,10.877-0.671,10.877-0.671S283.576,295.511,280.57,295.377z"></path><path style="fill:#BF0000;" d="M267.979,296.584l-1.432,4.695l-4.865,1.342l-0.286-4.293C261.396,298.328,266.547,296.45,267.979,296.584z"></path><path style="fill:#3F3F3F;" d="M274.417,296.048c0,0-3.577,1.609-4.149,4.561c-2.004,0.269-4.58,0.402-4.58,0.402s0.144-3.487,2.004-4.427C271.984,295.913,274.417,296.048,274.417,296.048z"></path><path style="fill:#3F3F3F;" d="M286.151,299.401c0,0-3.147-2.951-6.296-3.488c2.432-0.671,4.578-0.536,4.578-0.536s4.865,3.085,5.295,4.561C288.584,299.804,286.151,299.401,286.151,299.401z"></path><path style="fill:#BF0000;" d="M268.693,314.828c0,0-1.86,1.342-3.435,0.805c-1.431-6.976-0.715-14.354-0.715-14.354l3.577-0.134L268.693,314.828z"></path><path style="fill:#3F3F3F;" d="M270.84,313.353c0,0,0.286-11.134,0.143-11.939c0.144-0.134-2.945-1.534-3.291,0c-1.096,4.881,0.43,14.22,0.43,14.22L270.84,313.353z"></path><path style="fill:#BF0000;" d="M287.582,310.267c0,0-0.399,2.598-2.918,2.909c-1.231-4.519-1.66-13.506-1.66-13.506l2.719,0.134C285.723,299.804,288.727,307.853,287.582,310.267z"></path><path style="fill:#BF0000;" d="M275.275,300.34c0,0-2.146,11.806-1.574,14.086c1.861,0.134,3.864-1.342,3.864-1.342l1.288-13.012L275.275,300.34z"></path><path style="fill:#3F3F3F;" d="M281.143,312.279c0,0-1.001-11.402-1.001-12.476c-0.572,0-1.86,0-2.29,0.536c-0.685,4.344-1.145,13.817-1.145,13.817l2.941-3.139L281.143,312.279z"></path><path style="fill:#3F3F3F;" d="M290.444,309.999c0,0-0.716-7.915-5.151-10.329c1.432,5.231,2.146,12.207,2.146,12.207l0.979-2.028L290.444,309.999z"></path></g><g id="topsXMLID_37_"><g><path style="fill:none;stroke:#000000;stroke-linecap:round;stroke-linejoin:round;" d="M261.252,313.841c0,0,2.564,2.308,5.346,2.146c3.24-0.172,3.87-2.812,3.87-2.812s2.507,2.543,5.427,1.363c2.918-1.171,3.754-3.521,3.754-3.521s1.26,3.134,5.016,2.157c3.754-0.978,3.754-3.327,3.754-3.327s2.713,0.59,3.537-0.591c0.836-1.556,0.012-10.978-8.379-13.833c-3.629-0.183-15.455-0.364-24.613,3.756C259.799,305.041,261.252,313.841,261.252,313.841z"></path></g></g><path style="fill:none;stroke:#000000;stroke-linecap:round;stroke-linejoin:round;" d="M289.109,300.072c0,0-2.863-1.073-12.211-0.18c-8.361,0.8-20.416,3.398-20.416,3.398"></path></g><g><g><path style="fill:#FFFFFF;" d="M264.242,345.75l-14.381-0.5l-14.382,0.5c0,0-0.99,15.67,1.125,20.83c1.556-0.33,2.538,0.17,2.538,0.17l0.567-2l0.279,1.67c0,0,1.269,0.33,3.384,0.5c0.71,0.16,3.951,0.5,6.489,0.5s5.777-0.34,6.489-0.5c2.113-0.17,3.384-0.5,3.384-0.5l0.279-1.67l0.566,2c0,0,0.982-0.5,2.537-0.17C265.232,361.42,264.242,345.75,264.242,345.75z"></path><path style="fill:#3F3F3F;" d="M264.418,350.917l-14.416,0.667l-14.415-0.667c0,0-0.455,7.333-0.303,8.5c1.213,0.167,1.366,0.834,1.972,0.667c0.607-0.167,1.972-0.167,1.972-0.167c0.911,0.667,1.518,0.667,2.428,0.667c0.911,0,1.973-0.167,1.973-0.167s1.821,0.666,2.276,0.5c0.759-0.5,1.973,0,2.58,0s1.517,0,1.517,0s0.91,0,1.516,0c0.608,0,1.821-0.5,2.581,0c0.454,0.166,2.275-0.5,2.275-0.5s1.063,0.167,1.973,0.167s1.517,0,2.429-0.667c0,0,1.366,0,1.973,0.167s0.757-0.5,1.973-0.667C264.872,358.25,264.418,350.917,264.418,350.917z"></path><path style="fill:#6E6E6E;" d="M264.418,345.75l-14.416,0.667l-14.415-0.667c0,0-0.455,7.333-0.303,8.5c1.213,0.167,1.366,0.834,1.972,0.667c0.607-0.167,1.972-0.167,1.972-0.167c0.911,0.667,1.518,0.667,2.428,0.667c0.911,0,1.973-0.167,1.973-0.167s1.821,0.666,2.276,0.5c0.759-0.5,1.973,0,2.58,0s1.517,0,1.517,0s0.91,0,1.516,0c0.608,0,1.821-0.5,2.581,0c0.454,0.166,2.275-0.5,2.275-0.5s1.063,0.167,1.973,0.167s1.517,0,2.429-0.667c0,0,1.366,0,1.973,0.167s0.757-0.5,1.973-0.667C264.872,353.083,264.418,345.75,264.418,345.75z"></path></g><path style="fill:none;stroke:#000000;stroke-linecap:round;stroke-linejoin:round;" d="M237.934,350.245c-0.158,0.662-0.559,10.651,0.166,15.347"></path><path style="fill:none;stroke:#000000;stroke-linecap:round;stroke-linejoin:round;" d="M239.568,353.417c0,0-0.141,9.5,0.141,11.333"></path><path style="fill:none;stroke:#000000;stroke-linecap:round;stroke-linejoin:round;" d="M243.375,350.917c0,0-0.282,10,0.283,15.166"></path><path style="fill:none;stroke:#000000;stroke-linecap:round;stroke-linejoin:round;" d="M245.702,354.743c0,0-0.36,9.692-0.001,11.844"></path><path style="fill:none;stroke:#000000;stroke-linecap:round;stroke-linejoin:round;" d="M247.972,353.25c0,0-0.366,11.167,0.057,13.667"></path><path style="fill:none;stroke:#000000;stroke-linecap:round;stroke-linejoin:round;" d="M264.242,345.75l-14.381-0.5l-14.382,0.5c0,0-0.99,15.67,1.125,20.83c1.556-0.33,2.538,0.17,2.538,0.17l0.567-2l0.279,1.67c0,0,1.269,0.33,3.384,0.5c0.71,0.16,3.951,0.5,6.489,0.5s5.777-0.34,6.489-0.5c2.113-0.17,3.384-0.5,3.384-0.5l0.279-1.67l0.566,2c0,0,0.982-0.5,2.537-0.17C265.232,361.42,264.242,345.75,264.242,345.75z"></path><path style="fill:none;stroke:#000000;stroke-linecap:round;stroke-linejoin:round;" d="M262.069,350.245c0.159,0.662,0.56,10.651-0.166,15.347"></path><path style="fill:none;stroke:#000000;stroke-linecap:round;stroke-linejoin:round;" d="M260.437,353.417c0,0,0.142,9.5-0.141,11.333"></path><path style="fill:none;stroke:#000000;stroke-linecap:round;stroke-linejoin:round;" d="M256.629,350.917c0,0,0.282,10-0.282,15.166"></path><path style="fill:none;stroke:#000000;stroke-linecap:round;stroke-linejoin:round;" d="M254.302,354.743c0,0,0.36,9.692,0.002,11.844"></path><path style="fill:none;stroke:#000000;stroke-linecap:round;stroke-linejoin:round;" d="M252.033,353.25c0,0,0.366,11.167-0.057,13.667"></path></g><g><path style="fill:#FFFFFF;stroke:#000000;stroke-linecap:round;stroke-linejoin:round;" d="M264.707,347.278c0,0-1.117-63.902-2.421-65.778h-24.573c-1.303,1.876-2.42,65.778-2.42,65.778S240.25,348,250,348S264.707,347.278,264.707,347.278z"></path><g><polygon style="fill:#6E6E6E;stroke:#000000;stroke-linecap:round;stroke-linejoin:round;" points="238.958,321.024 242.542,326.002 238.875,331.555 "></polygon><polygon style="fill:#6E6E6E;stroke:#000000;stroke-linecap:round;stroke-linejoin:round;" points="261.041,321.024 257.459,326.002 261.125,331.555 "></polygon></g><g><g><path style="fill:#6E6E6E;stroke:#000000;stroke-linecap:round;stroke-linejoin:round;" d="M261.404,316.553l-8.518-11.973c0,0,5.053-5.914,7.94-9.232c0-1.01-0.288-7.067-0.288-7.067L250,301.118l-10.539-12.838c0,0-0.289,6.058-0.289,7.067c2.887,3.318,7.94,9.232,7.94,9.232l-8.518,11.973l8.402,9.308c-0.734,0.859-5.181,6.06-7.825,9.097c0,1.011-0.112,7.068-0.112,7.068L250,329.188l10.937,12.838c0,0-0.109-6.058-0.109-7.068c-2.644-3.037-7.09-8.236-7.824-9.097L261.404,316.553z"></path><polygon style="fill:#3F3F3F;stroke:#000000;stroke-linecap:round;stroke-linejoin:round;" points="256,315.5 250,321.375 244,315.5 242.75,317.25 250,324.625 257.25,317.25 "></polygon><ellipse style="fill:#FFFFFF;stroke:#000000;stroke-linecap:round;stroke-linejoin:round;" cx="250" cy="315.903" rx="2.292" ry="1.984"></ellipse><g><polygon style="fill:#6E6E6E;stroke:#000000;stroke-linecap:round;stroke-linejoin:round;" points="239.173,299.472 243.504,304.953 238.596,312.021 "></polygon><polygon style="fill:#6E6E6E;stroke:#000000;stroke-linecap:round;stroke-linejoin:round;" points="260.827,299.472 256.496,304.953 261.404,312.021 "></polygon></g></g></g><path style="fill:#6E6E6E;stroke:#000000;stroke-linecap:round;stroke-linejoin:round;" d="M249.999,288.136c0,0-5.485-0.288-7.073-0.865l7.073,8.511l7.075-8.511C255.486,287.848,249.999,288.136,249.999,288.136z"></path><path style="fill:#6E6E6E;stroke:#000000;stroke-linecap:round;stroke-linejoin:round;" d="M250.001,343.455c4.333,0,7.073-0.216,7.073-0.216l-7.073-8.511l-7.075,8.511C242.926,343.239,245.668,343.455,250.001,343.455z"></path></g><path style="fill:#FFFFFF;stroke:#000000;stroke-linecap:round;stroke-linejoin:round;" d="M259.666,277.833c0,1,0,1.834,0,1.834S254.75,280.5,250,280.5s-9.667-0.833-9.667-0.833s0-0.834,0-1.834c-4,1-4.333,2-5,3.834c1.833,4,14.667,3.833,14.667,3.833s12.832,0.167,14.666-3.833C264,279.833,263.666,278.833,259.666,277.833z"></path></g></g></svg>