<svg xmlns="http://www.w3.org/2000/svg" width="500" height="500" version="1.1"><g id="x216"><g><g><path style="fill:#6E6E6E;stroke:#000000;stroke-linecap:round;stroke-linejoin:round;" d="M215.102,299.003c0,0.5,5.334,8.501,12.667,10.667c3.167-9.5,5.333-13.334,5.333-13.334l-4.666-10.666c0,0-4.667,2.666-9.167,10.166C217.269,297.336,215.102,299.003,215.102,299.003z"></path><path style="fill:#6E6E6E;stroke:#000000;stroke-linecap:round;stroke-linejoin:round;" d="M284.899,299.003c0,0.5-5.334,8.501-12.666,10.667c-3.167-9.5-5.334-13.334-5.334-13.334l4.667-10.666c0,0,4.667,2.666,9.167,10.166C282.733,297.336,284.899,299.003,284.899,299.003z"></path></g><path style="fill:#6E6E6E;stroke:#000000;stroke-linecap:round;stroke-linejoin:round;" d="M276.037,320.232c0,0-1.37-13.333-1.714-13.833c-0.341-0.5-2.397-6.167-3.939-10.167c0.856-6.334,1.027-10.666,1.027-10.666s-2.397-2.5-6.681-4c0.152,10.104-12.075,12.787-14.728,13.251c-2.657-0.464-14.885-3.147-14.733-13.251c-4.282,1.5-6.681,4-6.681,4s0.171,4.332,1.028,10.666c-1.542,4-3.598,9.667-3.94,10.167s-1.713,13.833-1.713,13.833s-4.455,10.667-4.112,11.167c2.958,2.878,22.934,2.688,30.151,2.669c7.212,0.02,27.188,0.209,30.146-2.669C280.49,330.899,276.037,320.232,276.037,320.232z"></path></g></g></svg>