<svg xmlns="http://www.w3.org/2000/svg" width="500" height="500" version="1.1"><g id="x217"><g><g><path style="fill:#FFFFFF;stroke:#000000;stroke-linecap:round;stroke-linejoin:round;" d="M278.666,333.166c-0.332-1.834-3.332-6-3.332-6S274.666,312,274,306.833s-2.834-9.333-2.834-9.333S262.168,300,250,300c-12.167,0-21.167-2.5-21.167-2.5s-2.167,4.166-2.833,9.333s-1.333,20.333-1.333,20.333s-3,4.166-3.333,6S222,337,222,337s12.667,0.666,28,0.666S278,337,278,337S279,335,278.666,333.166z"></path><path style="fill:#E4E0F3;" d="M250,331.581c-0.512,0.842-1.817,3.178-2.084,5.545c1.159,0.028,1.791,0.056,2.084,0.071c0.293-0.016,0.925-0.043,2.084-0.071C251.816,334.759,250.512,332.423,250,331.581z"></path><g><path style="fill:#E4E0F3;" d="M230.875,336.834c0,0-1.358-3.232-1.108-5.232c2.5,0.75,5.567,5.274,5.567,5.274L230.875,336.834z"></path><path style="fill:#E4E0F3;" d="M269.084,336.834c0,0,1.399-3.232,1.149-5.232c-2.5,0.75-5.649,5.399-5.649,5.399L269.084,336.834z"></path></g><path style="fill:#E4E0F3;" d="M250,322.5c0,0-20.75,6.5-24.5,14c0,0,18-5.75,24.5-7c6.5,1.25,24.5,7,24.5,7C270.75,329,250,322.5,250,322.5z"></path></g><g><g><g><g id="topsXMLID_38_"><g><path style="fill:#6E6E6E;" d="M222.61,291l6,13.17L224.27,329l-12.83,26.33c0,0-9.67-3.16-14.67-7.5c0.84-2.66,8.17-20.16,11.17-25.16c0.83-2.17,9.83-23.34,9.83-23.34s0.84-2,2.17-5C221.27,292.17,222.61,291,222.61,291z"></path></g><g><g><path style="fill:#F0E670;" d="M204.314,331.125c0,0,3,1.625,7.125-0.5c-1-4.5-1.25-6.5-1.25-6.5s0.375-2.5,1.75-2.125s2.25,2.625,0.75,3.125c1.875,0.125,3.25-4.25,1.25-5.125s-5,1.125-5,1.125S205.314,326.125,204.314,331.125z"></path><path style="fill:#C9A670;" d="M205.939,331c0,0,3.5,0.625,4.875-0.75c-0.75-3-1.25-4.75-1.25-4.75S207.439,330.75,205.939,331z"></path></g><path style="fill:#F0E670;" d="M210.272,318.667c0,0,2.167-2.5,3.833-2.5c-1.167-2.5-1.667-2.834-1.667-2.834S210.939,315.334,210.272,318.667z"></path><path style="fill:#F0E670;" d="M203.939,332.875c0,0,1.875,0.625,4,0.25c-1.125,2-2.75,3.375-5,3.5C202.814,334.25,203.939,332.875,203.939,332.875z"></path></g><g><path style="fill:none;stroke:#000000;stroke-linecap:round;stroke-linejoin:round;" d="M222.61,291c0,0-1.34,1.17-2.67,3.33c-1.33,3-2.17,5-2.17,5s-9,21.17-9.83,23.34c-3,5-10.33,22.5-11.17,25.16c5,4.34,14.67,7.5,14.67,7.5L224.27,329l4.34-24.83L222.61,291z"></path></g></g><path style="fill:#505050;" d="M222.564,292.25c0,0-2,8.875-2.25,13.125s4.5,12.5,4.5,12.5s3.25-13.125,2.75-13.625S222.564,292.25,222.564,292.25z"></path><g><path style="fill:#F0E670;stroke:#000000;stroke-linecap:round;stroke-linejoin:round;" d="M197.605,342.833c0,0-1.667,3.5-1.167,5.5c4,3.333,14.833,8.833,15.5,7.833s2.333-4.666,2.333-4.666L197.605,342.833z"></path><path style="fill:#C9A670;" d="M206.189,353l3-1.25l3.5,1.25l-1.25,2.333C208.939,354.75,206.189,353,206.189,353z"></path><path style="fill:#F0E670;stroke:#000000;stroke-linecap:round;stroke-linejoin:round;" d="M197.605,342.833c0,0,0.667-2.333,1.833-2.833c0.5,1.5,0.333,4,0.333,4s1.333-1.834,2.5-2.167c0.667,1.333,0.5,4,0.5,4s2-2,3.333-2c0.167,1.667,0.167,3.667,0.167,3.667s2.333-2.334,3.333-2.167c0.167,1.667,0,3.667,0,3.667s1.167-1.834,2.333-1.667c0.5,1.667,0.333,3.667,0.333,3.667s1.667-2.001,2.667-1.834c-0.167,1.834-1,3.167-1,3.167S200.272,348.333,197.605,342.833z"></path></g></g><g><g id="topsXMLID_39_"><g><path style="fill:#6E6E6E;" d="M292.06,322.67c3,5,10.33,22.5,11.171,25.16c-5,4.34-14.671,7.5-14.671,7.5L275.73,329l-4.341-24.83l6-13.17c0,0,1.341,1.17,2.67,3.33c1.33,3,2.171,5,2.171,5S291.23,320.5,292.06,322.67z"></path></g><g><g><path style="fill:#F0E670;" d="M295.685,331.125c0,0-3,1.625-7.125-0.5c1-4.5,1.25-6.5,1.25-6.5s-0.375-2.5-1.75-2.125s-2.25,2.625-0.75,3.125c-1.875,0.125-3.25-4.25-1.25-5.125s5,1.125,5,1.125S294.685,326.125,295.685,331.125z"></path><path style="fill:#C9A670;" d="M294.06,331c0,0-3.5,0.625-4.875-0.75c0.75-3,1.25-4.75,1.25-4.75S292.56,330.75,294.06,331z"></path></g><path style="fill:#F0E670;" d="M289.726,318.667c0,0-2.166-2.5-3.833-2.5c1.167-2.5,1.667-2.834,1.667-2.834S289.06,315.334,289.726,318.667z"></path><path style="fill:#F0E670;" d="M296.06,332.875c0,0-1.875,0.625-4,0.25c1.125,2,2.75,3.375,5,3.5C297.185,334.25,296.06,332.875,296.06,332.875z"></path></g><g><path style="fill:none;stroke:#000000;stroke-linecap:round;stroke-linejoin:round;" d="M277.39,291c0,0,1.341,1.17,2.67,3.33c1.33,3,2.171,5,2.171,5s9,21.17,9.829,23.34c3,5,10.33,22.5,11.171,25.16c-5,4.34-14.671,7.5-14.671,7.5L275.73,329l-4.341-24.83L277.39,291z"></path></g></g><path style="fill:#505050;" d="M277.435,292.25c0,0,2,8.875,2.25,13.125s-4.5,12.5-4.5,12.5s-3.25-13.125-2.75-13.625S277.435,292.25,277.435,292.25z"></path><g><path style="fill:#F0E670;stroke:#000000;stroke-linecap:round;stroke-linejoin:round;" d="M302.393,342.833c0,0,1.667,3.5,1.167,5.5c-4,3.333-14.834,8.833-15.5,7.833s-2.334-4.666-2.334-4.666L302.393,342.833z"></path><path style="fill:#C9A670;" d="M293.81,353l-3-1.25l-3.5,1.25l1.25,2.333C291.06,354.75,293.81,353,293.81,353z"></path><path style="fill:#F0E670;stroke:#000000;stroke-linecap:round;stroke-linejoin:round;" d="M302.393,342.833c0,0-0.667-2.333-1.833-2.833c-0.5,1.5-0.334,4-0.334,4s-1.333-1.834-2.5-2.167c-0.666,1.333-0.5,4-0.5,4s-1.999-2-3.332-2c-0.168,1.667-0.168,3.667-0.168,3.667s-2.332-2.334-3.332-2.167c-0.168,1.667,0,3.667,0,3.667s-1.168-1.834-2.334-1.667c-0.5,1.667-0.334,3.667-0.334,3.667s-1.666-2.001-2.666-1.834c0.166,1.834,1,3.167,1,3.167S299.726,348.333,302.393,342.833z"></path></g></g></g><g><g><g><g id="topsXMLID_33_"><g><path style="fill:#F0E670;" d="M245.426,321.64l0.15,0.69l-9.134,3.34c0,0-0.183-0.02-0.494-0.06C239.795,324,243.266,322.54,245.426,321.64z"></path><path style="fill:#F0E670;" d="M231.735,283.39c1.644,2.761,2.59,7.24,3.095,10.63C232.854,289.21,231.51,285.16,231.735,283.39z"></path><path style="fill:#F0E670;" d="M231.735,283.39c-0.226,1.771,1.118,5.82,3.095,10.63c0.397,2.65,0.537,4.65,0.537,4.65l-4.835-1.67c0,0,1.783-3.5,1.429-4.33c-0.72-0.34-2.149-0.5-3.224-0.67s-2.869-2.5-3.041-3.67c1.429-2.16,3.578-4.83,5.91-5.16C231.649,283.24,231.692,283.31,231.735,283.39z"></path><path style="fill:#F0E670;" d="M228.737,314.33c0,0-0.537,1.67-0.183,3.67c-0.709-0.5-2.149,0-3.578,2.33c-0.721-1-0.538-5-0.538-5c0.355-6.5,7.34-7,8.06-7s1.612,2.84,1.075,5C232.498,312.67,228.737,314.33,228.737,314.33z"></path><path style="fill:#F0E670;" d="M227.179,329.27c-0.29,0.86-0.591,1.4-0.591,1.4s-0.892,0-2.117-0.27C225.353,330.04,226.255,329.66,227.179,329.27z"></path><path style="fill:#6E6E6E;" d="M233.573,313.33c0.537-2.16-0.355-5-1.075-5s-7.704,0.5-8.06,7c0,0-0.183,4,0.538,5c1.429-2.33,2.869-2.83,3.578-2.33c-0.354-2,0.183-3.67,0.183-3.67S232.498,312.67,233.573,313.33z M234.83,294.02c4.664,11.261,12.896,26.65,12.896,26.65s-0.859,0.36-2.3,0.97l-0.924-4.31c0,0-3.762-2.83-7.351-5.33c-1.784,1.5-1.611,4.67-1.611,4.67s-3.225-1.5-4.836-0.5c-0.354,3,1.794,5,1.794,5s-1.966,0.83-3.406,2.33c0.602,1.25,5.309,1.92,6.856,2.11c-2.838,1.189-5.89,2.46-8.77,3.659c0.537-1.63,1.054-4.43-0.591-6.939c0,0-0.892,4.84-2.687,4.84c-0.72-1.5-0.892-5.84-0.892-5.84s-0.881,1.55-1.548,3.32c1-10.94,3.332-18.82,3.332-18.82s-2.321-6.83-2.321-14.83c3.933-5.5,9.596-9.07,9.306-7.83c-0.011,0.07-0.032,0.14-0.043,0.22c-0.043-0.08-0.086-0.149-0.129-0.22c-2.332,0.33-4.481,3-5.91,5.16c0.172,1.17,1.967,3.5,3.041,3.67s2.504,0.33,3.224,0.67c0.354,0.83-1.429,4.33-1.429,4.33l4.835,1.67C235.367,298.67,235.228,296.67,234.83,294.02z"></path><path style="fill:#F0E670;" d="M234.293,300.83c2.321,1.67,3.224,5,3.041,6.17c0,0-1.612-2.5-2.504-2.33c-1.794,0.66-5.373,0-5.91-0.5s-1.257-4.17-1.257-4.17S232.144,301.17,234.293,300.83z"></path><g><path style="fill:#F0E670;" d="M237.151,312c-0.555,0.467-0.921,1.096-1.161,1.74c2.227,0.529,4.741,1.271,5.817,1.595C240.469,314.355,238.794,313.145,237.151,312z"></path><path style="fill:#F0E670;" d="M244.502,317.33c0,0-0.674-0.507-1.716-1.275c0.544,0.703,1.473,1.956,2.1,3.066L244.502,317.33z"></path><g><path style="fill:#F0E670;" d="M225.632,325.438c-0.431,0.94-1.006,1.732-1.73,1.732c-0.72-1.5-0.892-5.84-0.892-5.84s-0.881,1.55-1.548,3.32c0,0.01,0,0.01,0,0.01c-0.14,1.42-0.247,2.89-0.322,4.41c1.129,0.729,2.343,1.12,3.331,1.33c0.882-0.36,1.784-0.74,2.708-1.131c0.117-0.355,0.229-0.774,0.322-1.226C226.923,327.615,226.038,326.69,225.632,325.438z"></path><path style="fill:#F0E670;" d="M226.588,322.33c0,0-0.04,0.214-0.116,0.541c0.151,0.055,0.317,0.106,0.497,0.156C226.853,322.794,226.738,322.561,226.588,322.33z"></path><path style="fill:#505050;" d="M225.715,322.5c-0.414,1.096-0.357,2.091-0.083,2.938c0.416-0.908,0.696-1.947,0.84-2.566C226.148,322.756,225.88,322.634,225.715,322.5z"></path><path style="fill:#505050;" d="M229.092,323.5c0.01-0.01,0.02-0.018,0.028-0.027c-0.813-0.128-1.55-0.276-2.151-0.445c0.874,1.762,0.826,3.587,0.532,5.017c0.234,0.174,0.419,0.269,0.497,0.269c0.259,0,3.887-1.696,6.456-2.913C232.44,325.078,229.555,324.461,229.092,323.5z"></path><path style="fill:#F0E670;" d="M239.932,323.94c-0.703-0.476-5.397-3.79-6.733-8.007c-0.879-0.161-1.825-0.179-2.494,0.236c-0.354,3,1.794,5,1.794,5s-1.94,0.821-3.378,2.303c3.27,0.515,7.606,0.715,7.878,0.715c0,0-1.109,0.532-2.544,1.212c0.605,0.096,1.136,0.167,1.494,0.211C237.341,325.027,238.682,324.465,239.932,323.94z"></path></g><path style="fill:#F0E670;" d="M245.335,321.215c-0.538,0.461-2.021,1.227-3.291,1.84c1.312-0.55,2.469-1.034,3.382-1.415L245.335,321.215z"></path><path style="fill:#505050;" d="M235.99,313.74c-1.239-0.295-2.387-0.523-3.134-0.573c-0.087,0.952,0.061,1.877,0.342,2.767c1.238,0.226,2.342,0.736,2.342,0.736S235.458,315.166,235.99,313.74z"></path><path style="fill:#505050;" d="M242.35,315.5c0,0-0.208-0.064-0.542-0.165c0.353,0.258,0.68,0.499,0.979,0.72C242.524,315.716,242.35,315.5,242.35,315.5z"></path><path style="fill:#505050;" d="M240.021,324c0,0,0.929-0.415,2.023-0.945c-0.667,0.28-1.369,0.574-2.112,0.886C239.989,323.979,240.021,324,240.021,324z"></path><path style="fill:#505050;" d="M245.394,321.167c0.322-0.3,0.014-1.121-0.508-2.046l0.449,2.094C245.353,321.199,245.378,321.182,245.394,321.167z"></path><path style="fill:#C9A670;" d="M244.886,319.121c-0.627-1.11-1.556-2.363-2.1-3.066c-0.299-0.221-0.626-0.462-0.979-0.72c-1.076-0.324-3.591-1.065-5.817-1.595c-0.532,1.426-0.45,2.93-0.45,2.93s-1.104-0.511-2.342-0.736c1.336,4.217,6.03,7.531,6.733,8.007c0.743-0.312,1.445-0.605,2.112-0.886c1.27-0.613,2.753-1.379,3.291-1.84L244.886,319.121z"></path><path style="fill:#C9A670;" d="M226.969,323.027c-0.18-0.05-0.346-0.102-0.497-0.156c-0.144,0.619-0.424,1.658-0.84,2.566c0.406,1.253,1.291,2.178,1.869,2.606C227.795,326.614,227.843,324.789,226.969,323.027z"></path><path style="fill:#C9A670;" d="M229.12,323.473c-0.009,0.01-0.019,0.018-0.028,0.027c0.463,0.961,3.349,1.578,5.362,1.899c1.435-0.68,2.544-1.212,2.544-1.212C236.727,324.188,232.39,323.987,229.12,323.473z"></path></g><path style="fill:#6E6E6E;" d="M224.471,330.4c-1.214,0.51-2.375,0.989-3.438,1.43c0.021-0.93,0.064-1.86,0.107-2.76C222.269,329.8,223.482,330.19,224.471,330.4z"></path><path style="fill:#F0E670;" d="M221.462,324.66c-0.14,1.42-0.247,2.89-0.322,4.41c-0.032-0.021-0.075-0.051-0.107-0.07C220.441,328.05,220.86,326.27,221.462,324.66z"></path></g></g></g><g><path style="fill:none;stroke:#000000;stroke-width:1.0366;stroke-linecap:round;stroke-linejoin:round;" d="M245.426,321.64c1.44-0.609,2.3-0.97,2.3-0.97s-8.231-15.39-12.896-26.65"></path><path style="fill:none;stroke:#000000;stroke-width:1.0366;stroke-linecap:round;stroke-linejoin:round;" d="M227.179,329.27c2.88-1.199,5.932-2.47,8.77-3.659"></path><path style="fill:none;stroke:#000000;stroke-width:1.0366;stroke-linecap:round;stroke-linejoin:round;" d="M221.14,329.07c-0.043,0.899-0.086,1.83-0.107,2.76c1.063-0.44,2.225-0.92,3.438-1.43"></path><path style="fill:none;stroke:#000000;stroke-width:1.0366;stroke-linecap:round;stroke-linejoin:round;" d="M231.735,283.39c0.011-0.08,0.032-0.149,0.043-0.22c0.29-1.24-5.373,2.33-9.306,7.83c0,8,2.321,14.83,2.321,14.83s-2.332,7.88-3.332,18.82"></path></g><g><path style="fill:#F0E670;stroke:#000000;stroke-width:1.0366;stroke-linecap:round;stroke-linejoin:round;" d="M236.26,281.5c0,0,4.119,26.333,14.686,37.833c-0.357,4.333-0.895,5.833-1.791,6.5c-0.896,0.667-23.462,8.333-27.939,12.833c-1.611-0.833-1.074-7.333-1.074-7.333c0.716-1.667,23.999-10.5,23.999-10.5s-8.597-10.5-13.074-36.667C232.498,280.499,236.26,281.5,236.26,281.5z"></path><path style="fill:#C9A670;" d="M231.692,284.125c0,0,2.069,10.75,3.278,13c1.208,0.375,4.109,0.875,4.109,0.875s-2.82-10.875-3.492-15.75C234.11,281.75,231.692,284.125,231.692,284.125z"></path><path style="fill:#C9A670;" d="M221.032,331.83c0,0,0.049,3.17,0.451,5.045c2.821-2,11.821-6.625,13.97-6.875c-1.209-1.25-3.357-2.875-3.896-2.875C231.021,327.125,221.032,331.83,221.032,331.83z"></path></g></g><g><g><g id="topsXMLID_47_"><g><path style="fill:#F0E670;" d="M254.574,321.64l-0.15,0.69l9.135,3.34c0,0,0.182-0.02,0.494-0.06C260.205,324,256.734,322.54,254.574,321.64z"></path><path style="fill:#F0E670;" d="M268.265,283.39c-1.644,2.761-2.59,7.24-3.095,10.63C267.146,289.21,268.49,285.16,268.265,283.39z"></path><path style="fill:#F0E670;" d="M268.265,283.39c0.226,1.771-1.118,5.82-3.095,10.63c-0.397,2.65-0.537,4.65-0.537,4.65l4.836-1.67c0,0-1.784-3.5-1.43-4.33c0.721-0.34,2.149-0.5,3.225-0.67c1.074-0.17,2.868-2.5,3.041-3.67c-1.43-2.16-3.579-4.83-5.91-5.16C268.351,283.24,268.308,283.31,268.265,283.39z"></path><path style="fill:#F0E670;" d="M271.264,314.33c0,0,0.537,1.67,0.182,3.67c0.709-0.5,2.149,0,3.578,2.33c0.721-1,0.538-5,0.538-5c-0.354-6.5-7.34-7-8.06-7s-1.611,2.84-1.074,5C267.502,312.67,271.264,314.33,271.264,314.33z"></path><path style="fill:#F0E670;" d="M272.821,329.27c0.29,0.86,0.591,1.4,0.591,1.4s0.893,0,2.117-0.27C274.648,330.04,273.746,329.66,272.821,329.27z"></path><path style="fill:#6E6E6E;" d="M271.264,314.33c0,0,0.537,1.67,0.182,3.67c0.709-0.5,2.149,0,3.578,2.33c0.721-1,0.538-5,0.538-5c-0.354-6.5-7.34-7-8.06-7s-1.611,2.84-1.074,5C267.502,312.67,271.264,314.33,271.264,314.33z M264.633,298.67l4.836-1.67c0,0-1.784-3.5-1.43-4.33c0.721-0.34,2.149-0.5,3.225-0.67c1.074-0.17,2.868-2.5,3.041-3.67c-1.43-2.16-3.579-4.83-5.91-5.16c-0.044,0.07-0.087,0.14-0.13,0.22c-0.011-0.08-0.032-0.149-0.043-0.22c-0.29-1.24,5.373,2.33,9.306,7.83c0,8-2.32,14.83-2.32,14.83s2.332,7.88,3.331,18.82c-0.667-1.771-1.548-3.32-1.548-3.32s-0.172,4.34-0.892,5.84c-1.794,0-2.687-4.84-2.687-4.84c-1.645,2.51-1.128,5.31-0.591,6.939c-2.88-1.199-5.932-2.47-8.769-3.659c1.547-0.19,6.254-0.86,6.855-2.11c-1.439-1.5-3.406-2.33-3.406-2.33s2.148-2,1.795-5c-1.612-1-4.836,0.5-4.836,0.5s0.172-3.17-1.612-4.67c-3.589,2.5-7.351,5.33-7.351,5.33l-0.924,4.31c-1.439-0.609-2.299-0.97-2.299-0.97s8.23-15.39,12.895-26.65C264.772,296.67,264.633,298.67,264.633,298.67z"></path><path style="fill:#F0E670;" d="M262.666,307c0,0,1.612-2.5,2.504-2.33c1.795,0.66,5.373,0,5.91-0.5s1.258-4.17,1.258-4.17s-4.481,1.17-6.631,0.83C263.387,302.5,262.483,305.83,262.666,307z"></path><g><path style="fill:#F0E670;" d="M262.849,312c0.556,0.467,0.921,1.096,1.161,1.74c-2.227,0.529-4.741,1.271-5.816,1.595C259.531,314.355,261.206,313.145,262.849,312z"></path><path style="fill:#F0E670;" d="M255.498,317.33c0,0,0.674-0.507,1.717-1.275c-0.545,0.703-1.474,1.956-2.1,3.066L255.498,317.33z"></path><g><path style="fill:#F0E670;" d="M274.368,325.438c0.431,0.94,1.006,1.732,1.73,1.732c0.72-1.5,0.892-5.84,0.892-5.84s0.881,1.55,1.548,3.32c0,0.01,0,0.01,0,0.01c0.14,1.42,0.247,2.89,0.322,4.41c-1.128,0.729-2.343,1.12-3.331,1.33c-0.881-0.36-1.783-0.74-2.708-1.131c-0.116-0.355-0.229-0.774-0.322-1.226C273.077,327.615,273.963,326.69,274.368,325.438z"></path><path style="fill:#F0E670;" d="M273.412,322.33c0,0,0.041,0.214,0.117,0.541c-0.152,0.055-0.318,0.106-0.498,0.156C273.148,322.794,273.262,322.561,273.412,322.33z"></path><path style="fill:#505050;" d="M274.285,322.5c0.414,1.096,0.357,2.091,0.083,2.938c-0.415-0.908-0.696-1.947-0.839-2.566C273.852,322.756,274.12,322.634,274.285,322.5z"></path><path style="fill:#505050;" d="M270.908,323.5c-0.01-0.01-0.02-0.018-0.028-0.027c0.813-0.128,1.55-0.276,2.151-0.445c-0.873,1.762-0.826,3.587-0.532,5.017c-0.234,0.174-0.419,0.269-0.497,0.269c-0.259,0-3.887-1.696-6.456-2.913C267.561,325.078,270.445,324.461,270.908,323.5z"></path><path style="fill:#F0E670;" d="M260.068,323.94c0.703-0.476,5.397-3.79,6.733-8.007c0.879-0.161,1.825-0.179,2.495,0.236c0.354,3-1.795,5-1.795,5s1.94,0.821,3.378,2.303c-3.269,0.515-7.606,0.715-7.878,0.715c0,0,1.109,0.532,2.544,1.212c-0.605,0.096-1.136,0.167-1.493,0.211C262.659,325.027,261.318,324.465,260.068,323.94z"></path></g><path style="fill:#F0E670;" d="M254.666,321.215c0.537,0.461,2.021,1.227,3.29,1.84c-1.312-0.55-2.468-1.034-3.382-1.415L254.666,321.215z"></path><path style="fill:#505050;" d="M264.01,313.74c1.239-0.295,2.387-0.523,3.134-0.573c0.087,0.952-0.06,1.877-0.342,2.767c-1.237,0.226-2.341,0.736-2.341,0.736S264.542,315.166,264.01,313.74z"></path><path style="fill:#505050;" d="M257.65,315.5c0,0,0.208-0.064,0.543-0.165c-0.354,0.258-0.681,0.499-0.979,0.72C257.476,315.716,257.65,315.5,257.65,315.5z"></path><path style="fill:#505050;" d="M259.979,324c0,0-0.929-0.415-2.023-0.945c0.667,0.28,1.37,0.574,2.112,0.886C260.012,323.979,259.979,324,259.979,324z"></path><path style="fill:#505050;" d="M254.606,321.167c-0.321-0.3-0.013-1.121,0.509-2.046l-0.449,2.094C254.647,321.199,254.623,321.182,254.606,321.167z"></path><path style="fill:#C9A670;" d="M255.115,319.121c0.626-1.11,1.555-2.363,2.1-3.066c0.298-0.221,0.625-0.462,0.979-0.72c1.075-0.324,3.59-1.065,5.816-1.595c0.532,1.426,0.451,2.93,0.451,2.93s1.104-0.511,2.341-0.736c-1.336,4.217-6.03,7.531-6.733,8.007c-0.742-0.312-1.445-0.605-2.112-0.886c-1.269-0.613-2.753-1.379-3.29-1.84L255.115,319.121z"></path><path style="fill:#C9A670;" d="M273.031,323.027c0.18-0.05,0.346-0.102,0.498-0.156c0.143,0.619,0.424,1.658,0.839,2.566c-0.405,1.253-1.291,2.178-1.869,2.606C272.205,326.614,272.158,324.789,273.031,323.027z"></path><path style="fill:#C9A670;" d="M270.88,323.473c0.009,0.01,0.019,0.018,0.028,0.027c-0.463,0.961-3.348,1.578-5.362,1.899c-1.435-0.68-2.544-1.212-2.544-1.212C263.273,324.188,267.611,323.987,270.88,323.473z"></path></g><path style="fill:#6E6E6E;" d="M275.529,330.4c1.215,0.51,2.375,0.989,3.438,1.43c-0.021-0.93-0.064-1.86-0.107-2.76C277.732,329.8,276.518,330.19,275.529,330.4z"></path><path style="fill:#F0E670;" d="M278.538,324.66c0.14,1.42,0.247,2.89,0.322,4.41c0.032-0.021,0.075-0.051,0.107-0.07C279.559,328.05,279.14,326.27,278.538,324.66z"></path></g></g></g><g><path style="fill:none;stroke:#000000;stroke-width:1.0366;stroke-linecap:round;stroke-linejoin:round;" d="M254.574,321.64c-1.439-0.609-2.299-0.97-2.299-0.97s8.23-15.39,12.895-26.65"></path><path style="fill:none;stroke:#000000;stroke-width:1.0366;stroke-linecap:round;stroke-linejoin:round;" d="M272.821,329.27c-2.88-1.199-5.932-2.47-8.769-3.659"></path><path style="fill:none;stroke:#000000;stroke-width:1.0366;stroke-linecap:round;stroke-linejoin:round;" d="M278.86,329.07c0.043,0.899,0.086,1.83,0.107,2.76c-1.063-0.44-2.224-0.92-3.438-1.43"></path><path style="fill:none;stroke:#000000;stroke-width:1.0366;stroke-linecap:round;stroke-linejoin:round;" d="M268.265,283.39c-0.011-0.08-0.032-0.149-0.043-0.22c-0.29-1.24,5.373,2.33,9.306,7.83c0,8-2.32,14.83-2.32,14.83s2.332,7.88,3.331,18.82"></path></g><g><path style="fill:#F0E670;stroke:#000000;stroke-width:1.0366;stroke-linecap:round;stroke-linejoin:round;" d="M263.74,281.5c0,0-4.119,26.333-14.686,37.833c0.357,4.333,0.895,5.833,1.791,6.5c0.896,0.667,23.462,8.333,27.939,12.833c1.611-0.833,1.074-7.333,1.074-7.333c-0.716-1.667-23.999-10.5-23.999-10.5s8.597-10.5,13.074-36.667C267.502,280.499,263.74,281.5,263.74,281.5z"></path><path style="fill:#C9A670;" d="M268.308,284.125c0,0-2.069,10.75-3.278,13C263.821,297.5,260.92,298,260.92,298s2.82-10.875,3.492-15.75C265.891,281.75,268.308,284.125,268.308,284.125z"></path><path style="fill:#C9A670;" d="M278.968,331.83c0,0-0.048,3.17-0.451,5.045c-2.821-2-11.821-6.625-13.97-6.875c1.209-1.25,3.357-2.875,3.896-2.875C268.979,327.125,278.968,331.83,278.968,331.83z"></path></g></g></g></g></g></g></svg>