<svg xmlns="http://www.w3.org/2000/svg" width="500" height="500" version="1.1"><g id="x218"><g><g><g><g id="topsXMLID_41_"><g><path style="fill:#FFFFFF;" d="M230.411,294.351l-2.889-8.681c0,0-4.84,3.83-6.84,8c-1.5,0.83-2.33,2.33-2.33,2.33l0.5,2c0,0-3.83,8-5.17,12.33c-3.16,4-16.33,26.34-18.66,31.5c1.5,0.34,5.83,4.17,6.5,5c0.523,0.666,8.291,4.891,16.472,5.441c3.818-15.762,8.181-31.587,9.108-48.271C227.102,300.464,228.666,297.706,230.411,294.351z"></path></g><path style="fill:#E4E0F3;" d="M222.477,300.375c0.375-1.5-3.75-4.5-3.75-4.5l0.5,2.25c0,0-0.75,1.5-0.875,2C219.352,300.25,222.102,301,222.477,300.375z"></path><path style="fill:#6E6E6E;" d="M204.768,330.333c0,0-2.166,0.417-2,2.334c0.126,1.449,1.416,2,2.25,1.833s2.833-2.417,1.5-5.167s-3.916-1.083-3.916-1.083l1.666-2.75c0,0,3.668-0.167,4.584,3.5s-0.584,8.667-5.417,8.5s-3.199-6.028-2.75-6.5C202.352,329.25,204.768,330.333,204.768,330.333z"></path><path style="fill:#6E6E6E;" d="M207.602,327.625c0,0,0-3.375,3.625-3.375c-3-2.125-5.75,0.5-6.125,2C206.352,327.125,207.602,327.625,207.602,327.625z"></path><path style="fill:#6E6E6E;" d="M214.935,344.166c0,0-2.083-9.916-0.833-13.916c-4.917,4.75-9.25,10-9.25,10l1.833,1.5c0,0,4.959-5.125,5.292-5.875c-0.167,1.666,0.292,8.375,0.292,8.375L214.935,344.166z"></path><g><path style="fill:#6E6E6E;" d="M218.235,352.125c-0.066-0.005-0.134-0.014-0.2-0.02c-0.001,0.005-0.002,0.01-0.004,0.016C218.098,352.122,218.172,352.124,218.235,352.125z"></path><path style="fill:#6E6E6E;" d="M213.852,349c0.235-0.059,0.827-2.354,1.58-5.644c-4.1-0.502-8.547-1.491-9.913-3.021c-2.083-2.333-6.417-5.834-6.417-5.834s-2.583,4-3.917,7.084c1.5,0.834,4.417,3.25,6.75,5.583c6.964,4.253,13.274,4.902,16.096,4.953c0.001-0.006,0.003-0.011,0.004-0.016c-3.584-0.322-7.879-1.769-9.516-2.271C208.519,349.834,213.186,349.167,213.852,349z"></path><g><path style="fill:#6E6E6E;" d="M217.616,332.604c-2.093,2.126-3.299,5.728-1.63,8.289c0.581-2.62,1.222-5.595,1.854-8.49C217.764,332.472,217.69,332.529,217.616,332.604z"></path><g><path style="fill:#6E6E6E;" d="M221.614,331.282c-0.762-0.135-1.7-0.111-2.66,0.36c0.171,0.563,0.174,1.006,0.174,1.006S220.369,332.151,221.614,331.282z"></path><path style="fill:#6E6E6E;" d="M218.68,328.583c-0.947-0.236-2.045-0.112-3.178,0.69c1.396,0,2.25,0.501,2.777,1.116C218.415,329.777,218.548,329.173,218.68,328.583z"></path><path style="fill:#6E6E6E;" d="M218.28,330.39c-0.146,0.664-0.293,1.335-0.44,2.014c0.368-0.336,0.743-0.579,1.114-0.761C218.833,331.247,218.628,330.795,218.28,330.39z"></path><path style="fill:#E4E0F3;" d="M219.458,334.076c-2.545,1.692-1.967,4.646-1.333,5.213c0.634,0.568,2.025,0.749,2.87-0.437c1.116-1.567-0.537-3.025-0.537-3.025s0.684,0.078,1.426,0.464c0.179-0.762,0.356-1.523,0.531-2.287C221.752,333.508,220.758,333.212,219.458,334.076z"></path><path style="fill:#E4E0F3;" d="M217.965,342.678c-0.896-0.486-1.533-1.101-1.979-1.784c-0.191,0.865-0.377,1.692-0.554,2.463c1.697,0.207,3.323,0.33,4.657,0.374c0.046-0.187,0.092-0.372,0.137-0.558C219.576,343.267,218.829,343.147,217.965,342.678z"></path><path style="fill:#E4E0F3;" d="M220.019,322.834c-0.398,1.593-0.856,3.584-1.339,5.749c1.561,0.39,2.714,1.757,2.947,2.69c-0.005,0.003-0.009,0.006-0.014,0.009c0.556,0.099,1.012,0.276,1.318,0.419c0.366-1.648,0.721-3.301,1.057-4.959C222.56,325.091,220.962,323.384,220.019,322.834z"></path><path style="fill:#505050;" d="M221.614,331.282c0.005-0.003,0.009-0.006,0.014-0.009c-0.233-0.934-1.387-2.301-2.947-2.69c-0.132,0.59-0.266,1.194-0.4,1.807c0.349,0.405,0.554,0.857,0.674,1.253C219.914,331.171,220.852,331.147,221.614,331.282z"></path></g><path style="fill:#505050;" d="M217.839,332.403c-0.632,2.896-1.272,5.87-1.854,8.49c0.446,0.684,1.084,1.298,1.979,1.784c0.864,0.47,1.611,0.589,2.261,0.495c0.562-2.288,1.117-4.582,1.657-6.882c-0.742-0.386-1.426-0.464-1.426-0.464s1.653,1.458,0.537,3.025c-0.845,1.186-2.236,1.005-2.87,0.437c-0.634-0.566-1.212-3.521,1.333-5.213c1.3-0.864,2.294-0.568,2.957-0.072c0.176-0.767,0.347-1.535,0.517-2.304C222.044,331.284,219.853,330.567,217.839,332.403z"></path></g><path style="fill:#505050;" d="M213.852,349c-0.666,0.167-5.333,0.834-5.333,0.834c1.637,0.503,5.931,1.949,9.516,2.271c0.676-2.788,1.368-5.578,2.055-8.375c-1.334-0.044-2.96-0.167-4.657-0.374C214.679,346.646,214.087,348.941,213.852,349z"></path></g><g><path style="fill:none;stroke:#000000;stroke-linecap:round;stroke-linejoin:round;" d="M230.411,294.351l-2.889-8.681c0,0-4.84,3.83-6.84,8c-1.5,0.83-2.33,2.33-2.33,2.33l0.5,2c0,0-3.83,8-5.17,12.33c-3.16,4-16.33,26.34-18.66,31.5c1.5,0.34,5.83,4.17,6.5,5c0.523,0.666,8.291,4.891,16.472,5.441c3.818-15.762,8.181-31.587,9.108-48.271C227.102,300.464,228.666,297.706,230.411,294.351z"></path></g></g><path style="fill:#E4E0F3;" d="M213.186,312.167l-1.5,9.833c-0.334-2.833-2.333-3.166-3-2.833C210.686,315.5,213.186,312.167,213.186,312.167z"></path><path style="fill:none;stroke:#000000;stroke-linecap:round;stroke-linejoin:round;" d="M213.985,309.5c0,0-3.299,14.167-3,27.5"></path></g></g><g><g><g id="topsXMLID_44_"><g><path style="fill:#FFFFFF;" d="M269.59,294.351l2.889-8.681c0,0,4.84,3.83,6.84,8c1.5,0.83,2.33,2.33,2.33,2.33l-0.5,2c0,0,3.83,8,5.17,12.33c3.16,4,16.33,26.34,18.66,31.5c-1.5,0.34-5.83,4.17-6.5,5c-0.523,0.666-8.291,4.891-16.472,5.441c-3.818-15.762-8.182-31.587-9.108-48.271C272.898,300.464,271.335,297.706,269.59,294.351z"></path></g><path style="fill:#E4E0F3;" d="M277.523,300.375c-0.375-1.5,3.75-4.5,3.75-4.5l-0.5,2.25c0,0,0.75,1.5,0.875,2C280.648,300.25,277.898,301,277.523,300.375z"></path><path style="fill:#6E6E6E;" d="M295.232,330.333c0,0,2.166,0.417,2,2.334c-0.126,1.449-1.416,2-2.25,1.833s-2.833-2.417-1.5-5.167s3.916-1.083,3.916-1.083l-1.666-2.75c0,0-3.668-0.167-4.584,3.5s0.584,8.667,5.417,8.5s3.199-6.028,2.75-6.5C297.648,329.25,295.232,330.333,295.232,330.333z"></path><path style="fill:#6E6E6E;" d="M292.398,327.625c0,0,0-3.375-3.625-3.375c3-2.125,5.75,0.5,6.125,2C293.648,327.125,292.398,327.625,292.398,327.625z"></path><path style="fill:#6E6E6E;" d="M285.065,344.166c0,0,2.083-9.916,0.833-13.916c4.917,4.75,9.25,10,9.25,10l-1.833,1.5c0,0-4.959-5.125-5.292-5.875c0.167,1.666-0.292,8.375-0.292,8.375L285.065,344.166z"></path><g><path style="fill:#6E6E6E;" d="M281.766,352.125c0.065-0.005,0.134-0.014,0.2-0.02c0.001,0.005,0.002,0.01,0.004,0.016C281.903,352.122,281.828,352.124,281.766,352.125z"></path><path style="fill:#6E6E6E;" d="M286.148,349c-0.235-0.059-0.827-2.354-1.58-5.644c4.1-0.502,8.547-1.491,9.913-3.021c2.083-2.333,6.417-5.834,6.417-5.834s2.583,4,3.917,7.084c-1.5,0.834-4.417,3.25-6.75,5.583c-6.965,4.253-13.273,4.902-16.096,4.953c-0.002-0.006-0.003-0.011-0.004-0.016c3.584-0.322,7.879-1.769,9.516-2.271C291.481,349.834,286.814,349.167,286.148,349z"></path><g><path style="fill:#6E6E6E;" d="M282.385,332.604c2.093,2.126,3.299,5.728,1.63,8.289c-0.581-2.62-1.222-5.595-1.854-8.49C282.236,332.472,282.311,332.529,282.385,332.604z"></path><g><path style="fill:#6E6E6E;" d="M278.387,331.282c0.762-0.135,1.7-0.111,2.66,0.36c-0.171,0.563-0.174,1.006-0.174,1.006S279.632,332.151,278.387,331.282z"></path><path style="fill:#6E6E6E;" d="M281.32,328.583c0.947-0.236,2.045-0.112,3.178,0.69c-1.396,0-2.25,0.501-2.777,1.116C281.586,329.777,281.452,329.173,281.32,328.583z"></path><path style="fill:#6E6E6E;" d="M281.721,330.39c0.146,0.664,0.293,1.335,0.44,2.014c-0.368-0.336-0.743-0.579-1.114-0.761C281.167,331.247,281.372,330.795,281.721,330.39z"></path><path style="fill:#E4E0F3;" d="M280.543,334.076c2.545,1.692,1.967,4.646,1.333,5.213c-0.634,0.568-2.025,0.749-2.87-0.437c-1.116-1.567,0.537-3.025,0.537-3.025s-0.684,0.078-1.426,0.464c-0.179-0.762-0.356-1.523-0.531-2.287C278.249,333.508,279.243,333.212,280.543,334.076z"></path><path style="fill:#E4E0F3;" d="M282.035,342.678c0.896-0.486,1.533-1.101,1.979-1.784c0.191,0.865,0.377,1.692,0.554,2.463c-1.696,0.207-3.323,0.33-4.657,0.374c-0.046-0.187-0.092-0.372-0.137-0.558C280.425,343.267,281.171,343.147,282.035,342.678z"></path><path style="fill:#E4E0F3;" d="M279.981,322.834c0.398,1.593,0.856,3.584,1.339,5.749c-1.561,0.39-2.714,1.757-2.947,2.69c0.005,0.003,0.009,0.006,0.014,0.009c-0.556,0.099-1.012,0.276-1.317,0.419c-0.366-1.648-0.721-3.301-1.058-4.959C277.44,325.091,279.038,323.384,279.981,322.834z"></path><path style="fill:#505050;" d="M278.387,331.282c-0.005-0.003-0.009-0.006-0.014-0.009c0.233-0.934,1.387-2.301,2.947-2.69c0.132,0.59,0.266,1.194,0.4,1.807c-0.349,0.405-0.554,0.857-0.674,1.253C280.087,331.171,279.148,331.147,278.387,331.282z"></path></g><path style="fill:#505050;" d="M282.161,332.403c0.632,2.896,1.272,5.87,1.854,8.49c-0.446,0.684-1.084,1.298-1.979,1.784c-0.864,0.47-1.61,0.589-2.261,0.495c-0.563-2.288-1.117-4.582-1.657-6.882c0.742-0.386,1.426-0.464,1.426-0.464s-1.653,1.458-0.537,3.025c0.845,1.186,2.236,1.005,2.87,0.437c0.634-0.566,1.212-3.521-1.333-5.213c-1.3-0.864-2.294-0.568-2.957-0.072c-0.176-0.767-0.347-1.535-0.517-2.304C277.956,331.284,280.147,330.567,282.161,332.403z"></path></g><path style="fill:#505050;" d="M286.148,349c0.666,0.167,5.333,0.834,5.333,0.834c-1.637,0.503-5.932,1.949-9.516,2.271c-0.676-2.788-1.367-5.578-2.055-8.375c1.334-0.044,2.961-0.167,4.657-0.374C285.321,346.646,285.913,348.941,286.148,349z"></path></g><g><path style="fill:none;stroke:#000000;stroke-linecap:round;stroke-linejoin:round;" d="M269.59,294.351l2.889-8.681c0,0,4.84,3.83,6.84,8c1.5,0.83,2.33,2.33,2.33,2.33l-0.5,2c0,0,3.83,8,5.17,12.33c3.16,4,16.33,26.34,18.66,31.5c-1.5,0.34-5.83,4.17-6.5,5c-0.523,0.666-8.291,4.891-16.472,5.441c-3.818-15.762-8.182-31.587-9.108-48.271C272.898,300.464,271.335,297.706,269.59,294.351z"></path></g></g><path style="fill:#E4E0F3;" d="M286.814,312.167l1.5,9.833c0.334-2.833,2.333-3.166,3-2.833C289.314,315.5,286.814,312.167,286.814,312.167z"></path><path style="fill:none;stroke:#000000;stroke-linecap:round;stroke-linejoin:round;" d="M286.016,309.5c0,0,3.299,14.167,3,27.5"></path></g></g></g><g><g><path style="fill:#6E6E6E;stroke:#000000;stroke-linecap:round;stroke-linejoin:round;" d="M258.125,326.75l-23.5,0.5c0,0-8.75-0.5-10.5,0c-2.5-3.5,1.25-9.75,1.25-9.75s-0.75-10.5,0.75-13.5s2.75-8,2.75-8l-1.75-10c0,0,3.75-4.5,7.25-4.25C238.125,291.75,258.125,326.75,258.125,326.75z"></path><path style="fill:#FFFFFF;stroke:#000000;stroke-linecap:round;stroke-linejoin:round;" d="M258.125,326.75c0,0-9.625,2.75-12.125,1.75s-11.375-1.25-11.375-1.25s-8.75-0.5-10.5,0c-1.958-1.917-1.458-5.084-1.458-5.084l2.708-4.666c0,0-0.75-10.5,0.75-13.5s2.75-8,2.75-8l-1.75-10c0,0,3.75-4.5,7.25-4.25C238.125,291.75,258.125,326.75,258.125,326.75z"></path><path style="fill:#505050;" d="M230.4,283.775c0.375,0,12.125,29.25,12.125,29.25l-2,1.25l-11.625-29.5C228.9,284.775,230.025,283.775,230.4,283.775z"></path><path style="fill:#6E6E6E;" d="M235,296.125c0,0-1.25,4.375-1.25,5.875s5.25,15.625,6,16.25c-0.375,1.75-1.375,2.875-1.375,2.875s-6.375-16.75-6.5-18.625s2-8.875,2-8.875L235,296.125z"></path></g><g><g><path style="fill:#6E6E6E;stroke:#000000;stroke-linecap:round;stroke-linejoin:round;" d="M240.125,280.5c0,0,28.25,45.25,28.75,46.25c-7.25,0-12,0-12,0s-22-38-24.25-44.25C234.125,281.5,240.125,280.5,240.125,280.5z"></path><path style="fill:#FFFFFF;" d="M264.868,327.667c0-0.5-27.501-46.166-27.501-46.166l-2,0.5l27.167,45.833L264.868,327.667z"></path></g><path style="fill:#FFFFFF;stroke:#000000;stroke-linecap:round;stroke-linejoin:round;" d="M239.417,327.75c0,0,6.083,2.25,15.958,2c2.5-1,10-2.5,10-2.5s8.75-0.5,10.5,0c2.5-3.5,3.5-5.25,3.5-5.25l-4.75-4.5c0,0,0.75-10.5-0.75-13.5s-2.75-8-2.75-8l1.75-10c0,0-3.75-4.5-7.25-4.25C261.875,291.75,239.417,327.75,239.417,327.75z"></path><path style="fill:#E4E0F3;" d="M258.5,298.5c0,0-6,19-8.75,24c-6.25,1.75-8.25,1.5-8.25,1.5L258.5,298.5z"></path><path style="fill:#E4E0F3;" d="M226.333,318c0,0-2,3-3,5l0.513,2.564l12.523,2.004c1.699-2.255,4.403-6.083,4.63-7.901C239,320,226.333,318,226.333,318z"></path><g><path style="fill:#6E6E6E;" d="M271.375,285l-1.25-0.875c0,0-13.14,24.712-19.167,36.111c0.804,0.021,1.662,0.036,2.561,0.047L271.375,285z"></path><g><path style="fill:#E4E0F3;" d="M273.333,318.334c-2.756,1.24-8.072,1.737-13.363,1.896c-0.304,0.523-0.553,0.886-0.72,1.02c-1.137,0.909-6.081,1.403-6.973,1.486L250.625,326L248,325.875c0.028-0.085,1.187-2.289,2.958-5.639C247.454,320.15,245,320,245,320l-4.5,7.666c0,0,6.667,1.75,14.167,1.584c2-0.5,7.018-2.114,11.083-2.5c2.727-0.259,8.927,0.042,9.834-0.167l3.083-4.916C278.667,321.667,275.667,319,273.333,318.334z"></path><path style="fill:#E4E0F3;" d="M255.213,320.294c-0.575-0.001-1.144-0.005-1.694-0.011l-0.06,0.117C253.896,320.408,254.532,320.393,255.213,320.294z"></path><path style="fill:#6E6E6E;" d="M259.97,320.23c1.967-3.388,6.28-13.731,6.28-15.355c0-1.875-2.5-8.125-2.5-8.125l-1.125,2.75c0,0,1.5,3.5,1.75,5.125s-4.875,12.125-6.125,14.125c-0.604,0.967-1.88,1.376-3.037,1.544C256.749,320.297,258.356,320.279,259.97,320.23z"></path><path style="fill:#505050;" d="M252.875,320.375l-0.75,2.375c0,0,0.063-0.006,0.152-0.014l1.182-2.336C253.103,320.395,252.875,320.375,252.875,320.375z"></path><path style="fill:#505050;" d="M259.97,320.23c-1.613,0.049-3.221,0.066-4.757,0.063c-0.681,0.099-1.316,0.114-1.754,0.106l-1.182,2.336c0.892-0.083,5.836-0.577,6.973-1.486C259.417,321.116,259.666,320.754,259.97,320.23z"></path></g><path style="fill:#505050;" d="M249.5,329.083l4.019-8.8c-0.898-0.011-1.757-0.026-2.561-0.047c-1.771,3.35-4.43,8.596-4.458,8.681L249.5,329.083z"></path></g><g><path style="fill:#6E6E6E;stroke:#000000;stroke-linecap:round;stroke-linejoin:round;" d="M259.875,280.5c0,0-28.542,45.75-29.042,46.75c7.083,1.583,11.167,1.167,11.167,1.167s23.125-39.667,25.375-45.917C265.875,281.5,259.875,280.5,259.875,280.5z"></path><path style="fill:#FFFFFF;" d="M235.167,327.333c0-0.5,27.333-45.832,27.333-45.832l2,0.5l-26.583,45.249L235.167,327.333z"></path></g></g></g><path style="fill:#FFFFFF;" d="M279.875,331.5"></path></g></svg>