<svg xmlns="http://www.w3.org/2000/svg" width="500" height="500" version="1.1"><g id="x219"><path style="fill:#FFFFFF;stroke:#000000;" d="M153.5,305.875"></path><g><g><polygon style="fill:#FFFFFF;stroke:#000000;stroke-linecap:round;stroke-linejoin:round;" points="238.438,278.898 240.188,278.273 252.188,294.5 249.563,298.375 "></polygon><polygon style="fill:#FFFFFF;stroke:#000000;stroke-linecap:round;stroke-linejoin:round;" points="261.563,278.898 259.813,278.273 247.813,294.5 250.438,298.375 "></polygon></g><g><g id="topsXMLID_42_"><g><path style="fill:#FFFFFF;" d="M299.715,338.846c1.8,4.33,3.226,7.799,3.455,8.484c-1.84,5.34-10,11.5-18.67,14.17c-0.465-3.561-1.098-6.791-1.806-9.729C289.242,348.657,295.167,344.567,299.715,338.846z"></path><path style="fill:#6E6E6E;" d="M291,318c-0.67-1.67-8.67-21.83-14.33-27.83c-5.67-6-11.34-9.17-11.34-9.17L250,297.17L234.67,281c0,0-5.67,3.17-11.34,9.17c-5.66,6-13.66,26.16-14.33,27.83c-0.44,1.098-5.267,12.552-8.715,20.846c4.548,5.722,10.473,9.812,17.021,12.926c2.339-9.708,5.52-16.079,6.364-19.441c0.5-2,1.6-7.38,1.67-8.12c6.92,1.44,24.66,1.29,24.66,1.29s17.74,0.15,24.66-1.29c0.07,0.74,1.17,6.12,1.67,8.12c0.845,3.362,4.025,9.733,6.364,19.441c6.548-3.114,12.473-7.204,17.021-12.926C296.267,330.552,291.44,319.098,291,318z"></path><g><path style="fill:#505050;" d="M223.82,310.5c0,0-2.5-6.5-1.75-9.625s6.125-6.5,6.125-6.5L223.82,310.5z"></path><path style="fill:#505050;" d="M276.18,310.5c0,0,2.5-6.5,1.75-9.625s-6.125-6.5-6.125-6.5L276.18,310.5z"></path></g><path style="fill:#505050;" d="M225,324.25c-1.375,2.749-4.872,8.371-8.184,14.867c2.011,0.928,3.434,1.383,3.434,1.383S225.208,329.66,225,324.25z"></path><path style="fill:#505050;" d="M275,324.25c1.375,2.749,4.872,8.371,8.184,14.867c-2.012,0.928-3.434,1.383-3.434,1.383S274.792,329.66,275,324.25z"></path><path style="opacity:0.4;fill:#FFFFFF;" d="M291,318c-0.67-1.67-8.67-21.83-14.33-27.83c-5.67-6-11.34-9.17-11.34-9.17L250,297.17L234.67,281c0,0-5.67,3.17-11.34,9.17c-5.66,6-13.66,26.16-14.33,27.83c-0.44,1.098-5.267,12.552-8.715,20.846c4.548,5.722,10.473,9.812,17.021,12.926c2.339-9.708,5.52-16.079,6.364-19.441c0.5-2,1.6-7.38,1.67-8.12c6.92,1.44,24.66,1.29,24.66,1.29s17.74,0.15,24.66-1.29c0.07,0.74,1.17,6.12,1.67,8.12c0.845,3.362,4.025,9.733,6.364,19.441c6.548-3.114,12.473-7.204,17.021-12.926C296.267,330.552,291.44,319.098,291,318z"></path><path style="fill:#6E6E6E;" d="M204.75,328.75c-0.5,1.167-4.25,10.5-4.25,10.5s4.153,6.408,11.598,10.522c1.301-3.601,2.982-7.248,4.719-10.655C213.044,337.377,207.196,333.968,204.75,328.75z"></path><g><path style="fill:#505050;" d="M216.816,339.117c-0.584,1.146-1.154,2.324-1.713,3.514c1.692,2.354,1.8,5.239,1.147,7.744c0.097-1.446-1.143-3.853-2.118-5.626c-0.737,1.666-1.43,3.349-2.035,5.023c1.575,0.871,3.289,1.646,5.152,2.228c0.167-1,3-11.5,3-11.5S218.828,340.045,216.816,339.117z"></path><g><path style="fill:#F0E670;" d="M214.25,341.625c-2,0.75-1.875,3.375-2.625,3.125s-1.875-1.5-1.5-2.375s2-1.625,2-1.625s-3-4-4.25-4s-3.375,1.75-3.375,1.75l-1.125-3.375c0,0-1.25,4.25-1,4.875s1.375,2,2.875,1.875c-0.5-1.125-0.875-1.375,0.125-2s3.125,0,3.5,0.5c-0.75,0-0.875,2.875-0.125,4.25s3.125,3,3.875,2.125s1-2.75,0.75-3.375c0.2,0.371,0.469,0.849,0.757,1.374c0.315-0.712,0.64-1.416,0.971-2.118C214.853,342.283,214.571,341.946,214.25,341.625z"></path><path style="fill:#C9A670;" d="M215.103,342.631c-0.331,0.702-0.656,1.406-0.971,2.118c0.975,1.773,2.214,4.18,2.118,5.626C216.903,347.87,216.795,344.985,215.103,342.631z"></path></g></g><g><path style="fill:#E4E0F3;" d="M282.75,352c1.863-0.582,3.577-1.356,5.152-2.228c1.182,3.271,2.05,6.502,2.348,9.478c-2.25,2.5-5.75,2.25-5.75,2.25S282.727,351.857,282.75,352z"></path><g><g id="topsXMLID_35_"><g><path style="fill:#FFFFFF;" d="M200.285,338.846c-1.8,4.33-3.225,7.799-3.455,8.484c1.84,5.34,10,11.5,18.67,14.17c0.464-3.561,1.098-6.791,1.806-9.729C210.758,348.657,204.833,344.567,200.285,338.846z"></path><g><path style="fill:#E4E0F3;" d="M217.25,352c-1.863-0.582-3.577-1.356-5.152-2.228c-1.182,3.271-2.05,6.502-2.348,9.478c2.25,2.5,5.75,2.25,5.75,2.25S217.274,351.857,217.25,352z"></path></g></g></g></g><path style="fill:#6E6E6E;" d="M295.25,328.75c0.5,1.167,4.25,10.5,4.25,10.5s-4.153,6.408-11.598,10.522c-1.301-3.601-2.982-7.248-4.719-10.655C286.956,337.377,292.804,333.968,295.25,328.75z"></path><path style="fill:#505050;" d="M279.75,340.5c0,0,1.422-0.455,3.434-1.383c1.736,3.407,3.418,7.055,4.719,10.655c-1.575,0.871-3.289,1.646-5.152,2.228C282.583,351,279.75,340.5,279.75,340.5z"></path><g><path style="fill:#F0E670;" d="M285.776,341.625c2,0.75,1.875,3.375,2.625,3.125s1.875-1.5,1.5-2.375s-2-1.625-2-1.625s3-4,4.25-4s3.375,1.75,3.375,1.75l1.125-3.375c0,0,1.25,4.25,1,4.875s-1.375,2-2.875,1.875c0.5-1.125,0.875-1.375-0.125-2s-3.125,0-3.5,0.5c0.75,0,0.875,2.875,0.125,4.25s-3.125,3-3.875,2.125s-1-2.75-0.75-3.375c-0.2,0.371-0.469,0.849-0.757,1.374c-0.315-0.712-0.641-1.416-0.971-2.118C285.174,342.283,285.455,341.946,285.776,341.625z"></path><path style="fill:#C9A670;" d="M284.924,342.631c0.33,0.702,0.655,1.406,0.971,2.118c-0.976,1.773-2.215,4.18-2.118,5.626C283.123,347.87,283.231,344.985,284.924,342.631z"></path></g></g></g><path style="fill:none;stroke:#000000;stroke-linecap:round;stroke-linejoin:round;" d="M291,318c-0.67-1.67-8.67-21.83-14.33-27.83c-5.67-6-11.34-9.17-11.34-9.17L250,297.17L234.67,281c0,0-5.67,3.17-11.34,9.17c-5.66,6-13.66,26.16-14.33,27.83s-11.5,27.33-12.17,29.33c1.84,5.34,10,11.5,18.67,14.17c2-15.33,7.07-24.79,8.17-29.17c0.5-2,1.6-7.38,1.67-8.12c6.92,1.44,17.785,1.29,24.66,1.29s17.74,0.15,24.66-1.29c0.07,0.74,1.17,6.12,1.67,8.12c1.1,4.38,6.17,13.84,8.17,29.17c8.67-2.67,16.83-8.83,18.67-14.17C302.5,345.33,291.67,319.67,291,318z"></path><g><path style="fill:none;stroke:#000000;stroke-linecap:round;stroke-linejoin:round;" d="M276.949,290.549c0,0-3.449,4.701-3.949,7.701"></path><path style="fill:none;stroke:#000000;stroke-linecap:round;stroke-linejoin:round;" d="M271,292.801c0,0,7.166,15.5,6,31c-1.334,0.167-3,0.5-3,0.5"></path><path style="fill:none;stroke:#000000;stroke-linecap:round;stroke-linejoin:round;" d="M223.05,290.549c0,0,3.45,4.701,3.95,7.701"></path><path style="fill:none;stroke:#000000;stroke-linecap:round;stroke-linejoin:round;" d="M229,292.801c0,0-7.167,15.5-6,31c1.333,0.167,3,0.5,3,0.5"></path></g></g></g><g><g id="topsXMLID_40_"><g><path style="fill:#6E6E6E;" d="M268.12,283c-1.92,5.77-6.59,12.44-11.46,18.33h-0.4c-2.06-1.96-4.2-4.39-6.26-6.93c6.08-7.521,11.38-16,11.38-16S265.38,281,268.12,283z"></path><path style="fill:#6E6E6E;" d="M256.26,301.33h-12.52c2.06-1.96,4.2-4.39,6.26-6.93C252.06,296.94,254.2,299.37,256.26,301.33z"></path><g><g><path style="fill:none;stroke:#F0E670;" d="M266.975,282.248c-0.304,1.152-1.353,2.002-2.6,2.002c-1.484,0-2.688-1.203-2.688-2.688c0-0.917,0.459-1.727,1.16-2.212"></path><circle style="fill:#F0E670;" cx="264.375" cy="281.563" r="1"></circle></g><g><circle style="fill:none;stroke:#F0E670;" cx="260.5" cy="287.688" r="2.688"></circle><circle style="fill:#F0E670;" cx="260.5" cy="287.688" r="1"></circle></g><g><circle style="fill:none;stroke:#F0E670;" cx="256.625" cy="293.813" r="2.688"></circle><circle style="fill:#F0E670;" cx="256.625" cy="293.813" r="1"></circle></g><g><path style="fill:none;stroke:#F0E670;" d="M250.503,301.413c-0.279-0.424-0.441-0.931-0.441-1.476c0-1.484,1.203-2.688,2.688-2.688s2.688,1.203,2.688,2.688c0,0.512-0.143,0.99-0.391,1.397"></path><circle style="fill:#F0E670;" cx="252.75" cy="299.938" r="1"></circle></g></g><path style="fill:#6E6E6E;" d="M238.62,278.4c0,0,5.3,8.479,11.38,16c-2.06,2.54-4.2,4.97-6.26,6.93h-0.4c-4.87-5.89-9.54-12.561-11.46-18.33C234.62,281,238.62,278.4,238.62,278.4z"></path><g><g><g><path style="fill:none;stroke:#F0E670;" d="M233.023,282.238c0.3,1.157,1.351,2.012,2.602,2.012c1.484,0,2.688-1.203,2.688-2.688c0-0.901-0.444-1.699-1.125-2.187"></path><circle style="fill:#F0E670;" cx="235.625" cy="281.563" r="1"></circle></g><g><circle style="fill:none;stroke:#F0E670;" cx="239.5" cy="287.688" r="2.688"></circle><circle style="fill:#F0E670;" cx="239.5" cy="287.688" r="1"></circle></g><g><circle style="fill:none;stroke:#F0E670;" cx="243.375" cy="293.813" r="2.688"></circle><circle style="fill:#F0E670;" cx="243.375" cy="293.813" r="1"></circle></g></g></g></g><g><path style="fill:none;stroke:#000000;stroke-linecap:round;stroke-linejoin:round;" d="M250,294.4c-6.08-7.521-11.38-16-11.38-16s-4,2.6-6.74,4.6c1.92,5.77,6.59,12.44,11.46,18.33h0.4"></path><path style="fill:none;stroke:#000000;stroke-linecap:round;stroke-linejoin:round;" d="M256.26,301.33h0.4c4.87-5.89,9.54-12.561,11.46-18.33c-2.74-2-6.74-4.6-6.74-4.6s-5.3,8.479-11.38,16c-2.06,2.54-4.2,4.97-6.26,6.93H256.26z"></path></g></g></g><g><g><path style="fill:#6E6E6E;stroke:#000000;stroke-linecap:round;stroke-linejoin:round;" d="M230.5,352.75c0,0-5,29.75-3.75,38.75c-4.75,3.75-9.25,9.5-9.25,9.5s2.5-25,7-34.75C227.5,358,230.5,352.75,230.5,352.75z"></path></g><path style="fill:#6E6E6E;stroke:#000000;stroke-linecap:round;stroke-linejoin:round;" d="M235.5,314.75c0,0-7.75,43.5-12,54c7.25-9.25,11.5-33.5,12-39.25C235.25,321,235.5,314.75,235.5,314.75z"></path><g><g><path style="fill:#6E6E6E;stroke:#000000;stroke-linecap:round;stroke-linejoin:round;" d="M238.583,405.584c0,0-3,2-5.333,5.5c-1.667-6.833-2-69.584,0.083-93.25c0.207-2.349,3.833-6.667,3.833-6.667S237.583,395.084,238.583,405.584z"></path><path style="fill:#505050;" d="M236.875,313c0,0,0,23-0.125,29.5c-0.875-2.125-3.125-4.75-4.125-1c0.375-13.563,1.188-24.063,1.313-24.688C234.438,314.563,236.875,313,236.875,313z"></path><g><ellipse style="fill:none;stroke:#C9A670;" cx="235.256" cy="322.063" rx="1.319" ry="2.688"></ellipse><ellipse style="fill:#C9A670;" cx="235.256" cy="322.063" rx="0.491" ry="1"></ellipse></g><g><ellipse style="fill:none;stroke:#C9A670;" cx="235.05" cy="334.938" rx="1.6" ry="2.688"></ellipse><ellipse style="fill:#C9A670;" cx="235.05" cy="334.938" rx="0.595" ry="1"></ellipse></g><g><ellipse style="fill:none;stroke:#F0E670;" cx="234.788" cy="347.813" rx="1.538" ry="2.688"></ellipse><ellipse style="fill:#F0E670;" cx="234.788" cy="347.813" rx="0.572" ry="1"></ellipse></g><g><ellipse style="fill:none;stroke:#F0E670;" cx="234.881" cy="360.688" rx="1.869" ry="2.688"></ellipse><ellipse style="fill:#F0E670;" cx="234.881" cy="360.688" rx="0.695" ry="1"></ellipse></g><g><ellipse style="fill:none;stroke:#F0E670;" cx="234.894" cy="373.563" rx="1.656" ry="2.688"></ellipse><ellipse style="fill:#F0E670;" cx="234.894" cy="373.563" rx="0.616" ry="1"></ellipse></g><g><ellipse style="fill:none;stroke:#F0E670;" cx="235.031" cy="386.438" rx="1.719" ry="2.688"></ellipse><ellipse style="fill:#F0E670;" cx="235.031" cy="386.438" rx="0.64" ry="1"></ellipse></g><g><ellipse style="fill:none;stroke:#F0E670;" cx="235.394" cy="399.313" rx="1.906" ry="2.688"></ellipse><ellipse style="fill:#F0E670;" cx="235.394" cy="399.313" rx="0.709" ry="1"></ellipse></g></g><path style="fill:#6E6E6E;stroke:#000000;stroke-linecap:round;stroke-linejoin:round;" d="M242.167,307c0,0-5.333,3.168-8.833,10.834c0.5-8.667,4.667-13.834,8.333-15.667C242.667,304.5,242.167,307,242.167,307z"></path></g><path style="fill:#6E6E6E;stroke:#000000;stroke-linecap:round;stroke-linejoin:round;" d="M247.667,300.334c0,0-5-0.5-6.167-0.167c-1.833,2-0.833,7.334,0.833,8.167c2.167,0.333,5.667,0,5.667,0S249,303.834,247.667,300.334z"></path><g><path style="fill:#6E6E6E;stroke:#000000;stroke-linecap:round;stroke-linejoin:round;" d="M247.333,301c0,0-0.833,0.834-0.833,3.334c-0.167,1.5,0.333,3.666,1,4.333s9.834,12.5,13.334,13.5c0.833-2.667,2-4.5,2-4.5s2.5-2.833,2.5-5C262.667,309.5,252.834,302,247.333,301z"></path><path style="fill:#505050;" d="M255.625,307c0.56,1.23,1.5,5.875-0.625,5.25s-8.125-8.625-8.125-9C246.875,303.25,255,305.625,255.625,307z"></path><path style="fill:none;stroke:#000000;stroke-linecap:round;stroke-linejoin:round;" d="M246.833,303.667c0,0,6,7.667,9,8c-0.167-1.167-2-3.334-2.5-3.667"></path></g></g></g></g></svg>