<svg xmlns="http://www.w3.org/2000/svg" width="500" height="500" version="1.1"><g id="x221"><g><g><path style="fill:#505050;stroke:#000000;stroke-linecap:round;stroke-linejoin:round;" d="M266.736,283.297c0,0,2.409-4.517,5.438-4.518c3.917,1.337,9.719,1.76,10.681,1.717c-1.648,3.104-6.551,7.319-9.18,7.026S266.736,283.297,266.736,283.297z"></path><g><path style="fill:#6E6E6E;stroke:#000000;stroke-linecap:round;stroke-linejoin:round;" d="M266.255,280.981c0,0-1.64,2.452-1.958,3.718c0.245,2.617,1.442,4.189,2.589,4.637c2.004,0.034,3.236-0.397,3.236-0.397s0.844-6.17,0.93-7.05C269.87,280.692,266.986,280.573,266.255,280.981z"></path><path style="fill:#505050;" d="M265,284.875c0,0-0.25,2.125,1.75,4c1-0.125,2.125-0.125,2.125-0.125l0.625-4c0,0-1.375,1.125-2.5,1S265,284.875,265,284.875z"></path></g><g><path style="fill:#6E6E6E;stroke:#000000;stroke-linecap:round;stroke-linejoin:round;" d="M268.92,289.68c-0.18-0.837-0.441-3.498-0.059-4.359s1.883-1.916,1.883-1.916s7.514,1.207,9.085,4.794c1.57,3.588,3.409,6.881,4.004,7.557c-4.941-0.338-10.291-0.374-11.466-1.447C271.192,293.235,268.92,289.68,268.92,289.68z"></path><path style="fill:#505050;" d="M269.375,286.5c0,0,2.25,4.5,4.125,4.625s3.375-1,3.25-1.625S272.625,285.25,269.375,286.5z"></path><path style="fill:none;stroke:#000000;stroke-linecap:round;stroke-linejoin:round;" d="M270.24,286.056c0,0,4.529,0.544,5.25,2.639c-1.992,0.215-2.878,0.006-3.145-0.357"></path></g></g><g><g><path style="fill:#505050;stroke:#000000;stroke-linecap:round;stroke-linejoin:round;" d="M276,391.5c0,0,4.25,0.25,6.75,0s11.5-5,10.75-9s-5.75-3.5-6-8.75c3.25-1.75,6.75-1.5,6.75-1.5s-21-59.75-21.75-78.75c-4-7-5.5-8.25-5.5-8.25l-6,7L276,391.5z"></path><path style="fill:none;stroke:#000000;stroke-linecap:round;stroke-linejoin:round;" d="M287.5,373.75c0,0-4-12.5-5.25-22.25"></path></g><g><path style="fill:#6E6E6E;" d="M284.167,364.333c0,8.27-1.5,33-1.5,33s0.5,4.5,0.5,7c-1.75,0.5-7.5-0.25-7.5-0.25s-11,1.5-25.75,1.5s-29-3.75-30.25-5.25c-3-0.5-4-1.25-4-1.25s0.5-3,1.75-6.75c0.25-2.25-3-31.25-1.5-37.75s4.5-13.75,4.5-13.75s-0.5-3-0.5-3.75c0.5-0.75,1.63-1.87,2.69-3.87c-0.25-1.26-0.69-4.38-0.69-4.38s1.13-1.31,3-5c0.5-1.75-0.65-12.95,0.1-17.45s4-11.75,4-11.75s9.9,1.95,21.65-0.8s15-11.25,15-11.25s3.75,1.25,4.75,2.75c-1.25,3.25,0.25,10,0.25,10s3.1,7.08,3.56,12.81c0.631,7.75,1.381,17.57,2.29,20.44c1,1.75,2.75,2.75,2.75,2.75c-0.35,2.56-1,3.75-1,3.75s1.521,2.5,3.5,4.25c0.21,2.75-0.479,5.44-0.479,5.44S284.167,353.333,284.167,364.333z"></path></g><g><path style="fill:#505050;" d="M277.911,348.008c2.085,2.702,3.894,5.602,4.964,7.742C283,349,280.5,344.875,280.5,344.875s0.375-3.375,0.5-4.875c-0.055-0.19-0.272-0.478-0.57-0.812C280.552,340.752,280.625,345.281,277.911,348.008z"></path><path style="fill:#505050;" d="M279.26,337.978c-0.979-0.976-1.964-1.955-1.76-2.228c0.375-0.5,1-4.125,1-4.125s-3.125-0.625-3.75-1.25s-11.75,7.875-24.5,8.125c-7.584,0.148-15.228-1.032-19.117-1.564c0.912,0.871,1.918,1.821,2.987,2.817c4.154,1.685,10.128,3.433,16.255,3.372c0.906-0.009,1.742-0.03,2.528-0.06c-0.022-0.845,0.458-1.862,1.163-2.03c0.517-0.123,1.42,0.577,2.174,1.277c-0.185-1.013-0.286-2.149,0.096-2.52c0.737-0.714,2.688-0.143,2.926,0.857c0.112,0.479-0.483,1.293-1.133,2.011c5.442-0.693,6.871-1.911,11.746-1.911c2.147,0.813,4.589,3.086,6.829,5.759C279.243,342.939,279.383,339.578,279.26,337.978z"></path><path style="fill:#FFFFFF;" d="M280.43,339.188c-0.026-0.346-0.055-0.563-0.055-0.563l-1.25-1.625c0,0,0.035,0.143,0.072,0.405c0.021,0.151,0.045,0.345,0.063,0.572C279.686,338.402,280.105,338.823,280.43,339.188z"></path><path style="fill:#FFFFFF;" d="M276.704,346.509c-0.027,0.039-0.051,0.077-0.079,0.116c-3.012,4.154-10.25,0.75-10.375-1s1.125-3.125,2.625-2.875c-0.75-1.25-4.75-1-4.875,2.75s5.125,6.375,11.375,4.125c1.048-0.377,1.869-0.947,2.536-1.617C277.518,347.497,277.114,346.998,276.704,346.509z"></path><path style="fill:#E4E0F3;" d="M280.43,339.188c-0.324-0.365-0.744-0.786-1.17-1.211c0.123,1.601-0.017,4.962-2.556,8.531c0.41,0.489,0.813,0.988,1.207,1.499C280.625,345.281,280.552,340.752,280.43,339.188z"></path></g><circle style="fill:#FFFFFF;" cx="268.063" cy="343.938" r="1.563"></circle><path style="fill:#505050;" d="M264.836,388.068l0.016,0.432c-0.086,0.003-8.03,0.269-19.298-0.869c0.51,1.979,0.717,4.569,0.598,7.288c1.857-0.148,4.833-1.496,10.683-3.335c8.75-2.75,14.333,2.167,15.5,3.667c0.713-0.907,2.377-1.46,3.085-1.661C272.546,391.925,268.85,390.054,264.836,388.068z"></path><path style="fill:#505050;" d="M263.729,387.521c-2.231-1.1-4.539-2.229-6.856-3.377l-0.004,0.631c-4.548-0.029-9.197-0.407-13.652-0.965c0.303,0.261,0.569,0.494,0.784,0.689c0.497,0.452,0.911,1.176,1.241,2.095C254.252,387.527,261.168,387.554,263.729,387.521z"></path><path style="fill:#FFFFFF;" d="M216.917,394.001c0,0,0.583,2.833,3.083,2.833s5-2.999,5.25-4.416c-1.5,1.083-3.416,2.832-5.083,2.416s-2.75-3.166-2.75-3.166L216.917,394.001z"></path><path style="fill:#FFFFFF;" d="M217.333,389.584c0,0,1.417-2.5,4.5-1.583s2.018,8.322,5.667,10.5c5.583,3.333,10.417,0.083,10.333-3.75s-4.333-4.917-6.5-3.917c-1.222,0.564-2.75,4,0.5,5.167c-0.75-1.5,0-3.455,0.917-3.417c2,0.084,3.833,1.833,2.5,3.75s-5.917,2.417-7.5-0.333s-0.833-9.167-5.5-9.917s-5.167,1.834-5.167,1.834L217.333,389.584z"></path><path style="fill:#FFFFFF;" d="M218.146,367.167c0,0-0.903,3.554,1.73,5.255c-1.53,1.546-2.063,3.246-2.084,4.328c3.271-0.063,4.566-2.443,4.896-4.375C221.375,368,218.146,367.167,218.146,367.167z"></path><path style="fill:#FFFFFF;" d="M224.271,368.792c0,0-0.903,3.554,1.73,5.255c-1.53,1.546-2.063,3.246-2.084,4.328c3.271-0.063,4.566-2.443,4.896-4.375C227.5,369.625,224.271,368.792,224.271,368.792z"></path><g><path style="fill:#505050;" d="M236.876,372.74c-1.23-0.992-2.371-2.08-3.424-3.236l0.75,1.181c-1.639-0.229-3.721-0.62-5.895-1.071c0.549,0.715,1.157,1.442,1.817,2.178c-0.013-0.861,0.147-1.499,0.147-1.499s3.229,0.833,4.542,5.208c-0.045,0.268-0.115,0.543-0.2,0.82c0.909,0.846,1.821,1.666,2.71,2.449c0.327-0.647,0.785-1.322,1.429-1.973C237.096,375.728,236.84,373.931,236.876,372.74z"></path><g><path style="fill:none;" d="M221.75,350.379c-0.448,0.197-0.652,0.719-0.456,1.167c0.191,0.435,0.69,0.634,1.13,0.464c-0.07-0.593-0.129-1.157-0.179-1.678C222.083,350.305,221.913,350.308,221.75,350.379z"></path><path style="fill:#505050;" d="M223.567,351.882c-0.025-0.072-0.051-0.147-0.076-0.218c-0.063-0.003-0.127-0.005-0.189-0.008C223.391,351.729,223.479,351.806,223.567,351.882z"></path><path style="fill:#505050;" d="M222.462,352.001c0.448-0.196,0.652-0.72,0.456-1.168c-0.125-0.285-0.386-0.454-0.672-0.501c0.049,0.521,0.109,1.085,0.179,1.678C222.437,352.005,222.45,352.007,222.462,352.001z"></path><path style="fill:#505050;" d="M222.572,349.994c0.09-0.109,0.184-0.218,0.279-0.325c-0.107-0.355-0.204-0.685-0.29-0.988C222.598,349.091,222.595,349.551,222.572,349.994z"></path><path style="fill:#505050;" d="M222.279,347.642C222.089,346.915,222,346.5,222,346.5s0.007,0.346,0.037,0.951c0.038,0.021,0.084,0.03,0.119,0.056C222.201,347.541,222.241,347.59,222.279,347.642z"></path><path style="fill:#FFFFFF;" d="M222.279,347.642c0.077,0.297,0.171,0.644,0.283,1.039C222.523,348.242,222.438,347.865,222.279,347.642z"></path><path style="fill:#FFFFFF;" d="M225.789,351.238c0.612-0.822-0.204-2.684-1.225-2.79c-0.456-0.048-1.118,0.548-1.713,1.221c0.182,0.601,0.394,1.269,0.64,1.995C224.468,351.702,225.491,351.639,225.789,351.238z"></path><path style="fill:#FFFFFF;" d="M224.849,353.647c0.048-0.47-0.584-1.157-1.282-1.766c0.265,0.772,0.568,1.604,0.909,2.48C224.682,354.15,224.822,353.905,224.849,353.647z"></path><path style="fill:#FFFFFF;" d="M221.294,351.546c-0.196-0.448,0.008-0.97,0.456-1.167c0.163-0.071,0.332-0.074,0.495-0.047c-0.114-1.217-0.176-2.209-0.209-2.881c-0.869-0.475-2.572,0.303-2.674,1.28c-0.055,0.529,0.754,1.334,1.548,1.991c-1.029-0.052-2.17-0.007-2.487,0.419c-0.612,0.824,0.205,2.685,1.225,2.791c0.528,0.057,1.334-0.752,1.991-1.547c-0.053,1.029-0.007,2.171,0.418,2.486c0.213,0.159,0.497,0.219,0.8,0.207c-0.179-1.083-0.321-2.117-0.434-3.069C221.985,352.18,221.486,351.98,221.294,351.546z"></path><path style="fill:#E4E0F3;" d="M223.567,351.882c-0.088-0.076-0.176-0.152-0.265-0.226c0.063,0.003,0.126,0.005,0.189,0.008c-0.246-0.727-0.458-1.395-0.64-1.995c-0.095,0.107-0.188,0.216-0.279,0.325c0.023-0.443,0.025-0.903-0.011-1.313c-0.112-0.396-0.206-0.742-0.283-1.039c-0.038-0.052-0.078-0.101-0.124-0.135c-0.035-0.025-0.081-0.035-0.119-0.056c0.033,0.672,0.095,1.664,0.209,2.881c0.286,0.047,0.547,0.216,0.672,0.501c0.196,0.448-0.007,0.972-0.456,1.168c-0.012,0.006-0.025,0.004-0.038,0.009c0.112,0.952,0.254,1.986,0.434,3.069c0.573-0.022,1.22-0.308,1.618-0.717C224.135,353.486,223.832,352.654,223.567,351.882z"></path></g><path style="fill:#FFFFFF;" d="M230.124,371.791c0.017,1.177,0.357,2.773,1.877,3.756c-1.53,1.546-2.063,3.246-2.084,4.328c2.818-0.054,4.165-1.829,4.696-3.555C233.034,374.85,231.486,373.31,230.124,371.791z"></path><path style="fill:#E4E0F3;" d="M230.271,370.292c0,0-0.16,0.638-0.147,1.499c1.362,1.519,2.91,3.059,4.488,4.529c0.085-0.277,0.155-0.553,0.2-0.82C233.5,371.125,230.271,370.292,230.271,370.292z"></path><path style="fill:#FFFFFF;" d="M236.667,381.125c1.052-0.021,1.881-0.297,2.558-0.704c-0.612-0.525-1.248-1.075-1.902-1.651C236.872,379.661,236.679,380.498,236.667,381.125z"></path><path style="fill:#FFFFFF;" d="M239.214,374.443l-2.338-1.733c0,0.01,0,0.021,0,0.03c0.487,0.393,0.983,0.775,1.499,1.135C238.645,374.063,238.931,374.254,239.214,374.443z"></path><path style="fill:#E4E0F3;" d="M241.563,376.75c-0.08-0.266-0.167-0.518-0.26-0.759l-2.088-1.548c-0.284-0.189-0.569-0.38-0.839-0.568c-0.516-0.359-1.012-0.742-1.499-1.135c-0.037,1.19,0.22,2.987,1.875,4.057c-0.644,0.65-1.102,1.325-1.429,1.973c0.654,0.576,1.29,1.126,1.902,1.651C240.652,379.561,241.339,378.061,241.563,376.75z"></path><path style="fill:#E4E0F3;" d="M242.542,381.875c2.226-0.043,3.522-1.164,4.237-2.481l-2.384-1.589C243.05,379.279,242.562,380.853,242.542,381.875z"></path><path style="fill:#FFFFFF;" d="M232.774,368.436c-0.099-0.018-0.202-0.035-0.303-0.054c0.318,0.381,0.646,0.754,0.981,1.122L232.774,368.436z"></path><path style="fill:#FFFFFF;" d="M226.692,367.222c-5.271-1.151-10.489-2.473-10.571-2.493l-0.492,1.938c0.379,0.097,6.857,1.738,12.678,2.947c-0.487-0.635-0.938-1.261-1.307-1.863C226.895,367.578,226.793,367.399,226.692,367.222z"></path><g><path style="fill:#505050;" d="M224.476,354.362c-0.398,0.409-1.045,0.694-1.618,0.717c0.436,2.638,1.098,5.555,2.083,8.264c1.482,0.34,3.032,0.684,4.581,1.008C227.31,360.932,225.654,357.387,224.476,354.362z"></path><path style="fill:#505050;" d="M232.471,368.382c-0.771-0.92-1.479-1.877-2.151-2.847c-1.657-0.337-3.339-0.702-4.951-1.068c0.394,0.963,0.833,1.891,1.324,2.755C228.706,367.661,230.725,368.075,232.471,368.382z"></path><path style="fill:#FFFFFF;" d="M215.461,361.017l-0.256,0.967c0.062,0.017,4.705,1.243,10.163,2.483c-0.151-0.369-0.289-0.746-0.427-1.124C219.791,362.16,215.521,361.032,215.461,361.017z"></path><path style="fill:#E4E0F3;" d="M229.522,364.351c-1.549-0.324-3.099-0.668-4.581-1.008c0.138,0.378,0.276,0.755,0.427,1.124c1.612,0.366,3.294,0.731,4.951,1.068C230.046,365.143,229.78,364.748,229.522,364.351z"></path></g><path style="fill:#E4E0F3;" d="M233.452,369.504c-0.335-0.368-0.663-0.741-0.981-1.122c-1.746-0.307-3.765-0.721-5.778-1.16c0.101,0.178,0.202,0.356,0.308,0.528c0.369,0.603,0.82,1.229,1.307,1.863c2.174,0.451,4.256,0.843,5.895,1.071L233.452,369.504z"></path></g><g><path style="fill:none;" d="M246.778,379.394l-2.384-1.589c-1.277,1.401-1.776,2.886-1.84,3.908c0.257,0.034,0.516,0.065,0.774,0.098C245.08,381.55,246.152,380.547,246.778,379.394z"></path><path style="fill:#505050;" d="M244.394,377.805l2.384,1.589c-0.626,1.153-1.698,2.156-3.45,2.417c3.484,0.439,7.088,0.764,10.668,0.897c-5.48-2.761-10.775-5.583-14.782-8.265l2.088,1.548c0.093,0.241,0.18,0.493,0.26,0.759c-0.224,1.311-0.911,2.811-2.338,3.671c0.402,0.345,0.787,0.672,1.162,0.99c0.716,0.104,1.438,0.206,2.167,0.302C242.618,380.69,243.117,379.206,244.394,377.805z"></path><g><path style="fill:#FFFFFF;" d="M244,394.168c-1.75-1.834-5.25-7.416-10.333-7.75s-8.75,3.666-8.75,3.666l1.25,1.667c0,0,2.333-4.416,7.667-3.333s6.333,8.5,11.167,9.75c0.288,0.074,0.564,0.127,0.833,0.165c0.163-1.138,0.269-2.285,0.318-3.414C245.23,394.992,244.58,394.775,244,394.168z"></path><path style="fill:#E4E0F3;" d="M257.75,394.084c5.917-1.166,11.5,0.083,14.333,5.333c1.831-3.168,4.843-4.132,5.736-4.355c-0.713-0.47-1.519-0.962-2.4-1.472c-0.708,0.201-2.372,0.754-3.085,1.661c-1.167-1.5-6.75-6.417-15.5-3.667c-5.85,1.839-8.826,3.187-10.683,3.335c-0.049,1.129-0.155,2.276-0.318,3.414C250.084,398.93,252.186,395.181,257.75,394.084z"></path><path style="fill:#E4E0F3;" d="M264.852,388.5l-0.016-0.432c-0.366-0.181-0.737-0.364-1.107-0.547c-2.561,0.032-9.477,0.006-18.487-0.927c0.115,0.321,0.218,0.67,0.313,1.036C256.821,388.769,264.766,388.503,264.852,388.5z"></path><path style="fill:#FFFFFF;" d="M278.084,395.001l-2.334-1.5c0,0-0.129,0.03-0.331,0.089c0.882,0.51,1.688,1.002,2.4,1.472C277.983,395.021,278.084,395.001,278.084,395.001z"></path><g><path style="fill:#FFFFFF;" d="M243.583,400.333c-4.5-0.75-6.417-3.666-6.417-3.666l-0.5,0.416c0,0,1.917,3.916,7.083,4.25c0.529,0.034,1.034-0.011,1.523-0.095c0.073-0.304,0.142-0.611,0.206-0.921C244.897,400.423,244.27,400.447,243.583,400.333z"></path><path style="fill:#505050;" d="M281,397.75c-0.544-0.777-1.654-1.683-3.181-2.688c-0.894,0.224-3.905,1.188-5.736,4.355c-2.833-5.25-8.416-6.499-14.333-5.333c-2.584,0.509-4.418,1.589-6.07,2.541c-1.002,1.411-3.279,4.076-6.406,4.613c-0.276,1.147-0.612,2.252-1.023,3.262c6.25,2,29.25-0.5,30.5-0.75s6.5-0.25,6.5-0.25S282.25,400.75,281,397.75z"></path><path style="fill:#505050;" d="M249.351,397.836c-1.077,0.446-2.193,0.683-3.518,0.497c-0.096,0.67-0.219,1.331-0.354,1.984C247.257,399.996,248.551,398.83,249.351,397.836z"></path><path style="fill:#E4E0F3;" d="M251.68,396.625c-0.798,0.459-1.555,0.891-2.329,1.211c-0.8,0.994-2.093,2.16-3.872,2.481c-0.064,0.31-0.132,0.617-0.206,0.921C248.401,400.701,250.678,398.036,251.68,396.625z"></path></g></g><path style="fill:#FFFFFF;" d="M242.542,381.875c0.276-0.005,0.538-0.027,0.787-0.064c-0.258-0.032-0.518-0.063-0.774-0.098C242.55,381.767,242.542,381.824,242.542,381.875z"></path><path style="fill:#FFFFFF;" d="M216.791,376.318l-0.581,1.914c0.162,0.049,12.558,3.77,27.006,5.578c-0.737-0.635-1.715-1.454-2.829-2.399C227.487,379.529,216.938,376.363,216.791,376.318z"></path><path style="fill:#E4E0F3;" d="M256.872,384.145c-0.96-0.477-1.921-0.956-2.876-1.437c-3.58-0.134-7.184-0.458-10.668-0.897c-0.249,0.037-0.51,0.06-0.787,0.064c0.001-0.051,0.009-0.108,0.012-0.162c-0.729-0.096-1.451-0.197-2.167-0.302c1.114,0.945,2.092,1.765,2.829,2.399c4.456,0.558,9.104,0.936,13.652,0.965L256.872,384.145z"></path></g><g><path style="fill:none;" d="M233.472,332.036c-0.129,0.009-0.258,0.017-0.385,0.023c-0.003,0.146-0.008,0.291-0.015,0.435C233.201,332.34,233.335,332.186,233.472,332.036z"></path><circle style="fill:none;" cx="232.606" cy="333.69" r="0.886"></circle><path style="fill:#505050;" d="M243,322.25c-9,3-16.75,10-16.75,10s1.62,0.023,4.077-0.061c-0.299-0.354-0.492-0.691-0.464-0.958c0.106-1.021,1.967-1.838,2.792-1.225c0.366,0.273,0.45,1.156,0.432,2.053c0.127-0.007,0.256-0.015,0.385-0.023c0.563-0.616,1.167-1.133,1.592-1.088c0.436,0.046,0.826,0.417,1.092,0.885c5.084-0.454,10.956-1.393,14.594-3.333c7.5-4,10.75-8.5,10.75-8.5S252,319.25,243,322.25z"></path><path style="fill:#FFFFFF;" d="M233.072,332.494c0.007-0.144,0.012-0.289,0.015-0.435c-0.997,0.06-1.926,0.101-2.76,0.13c0.294,0.346,0.69,0.708,1.083,1.033c-1.029-0.052-2.17-0.007-2.487,0.419c-0.612,0.824,0.205,2.685,1.225,2.791c0.528,0.057,1.334-0.752,1.991-1.547c-0.053,1.029-0.007,2.171,0.418,2.486c0.823,0.613,2.685-0.204,2.792-1.225c0.055-0.528-0.754-1.334-1.547-1.991c1.03,0.055,2.17,0.009,2.487-0.418c0.351-0.471,0.224-1.277-0.133-1.905c-0.928,0.083-1.828,0.149-2.684,0.203C233.335,332.186,233.201,332.34,233.072,332.494z M232.962,334.501c-0.448,0.197-0.971-0.008-1.168-0.455c-0.196-0.448,0.008-0.97,0.456-1.167c0.448-0.196,0.971,0.007,1.167,0.454C233.614,333.781,233.411,334.305,232.962,334.501z"></path><path style="fill:#E4E0F3;" d="M232.655,330.007c-0.825-0.613-2.686,0.204-2.792,1.225c-0.028,0.267,0.166,0.604,0.464,0.958c0.834-0.029,1.764-0.07,2.76-0.13C233.105,331.163,233.021,330.28,232.655,330.007z"></path><path style="fill:#E4E0F3;" d="M235.064,330.948c-0.425-0.045-1.029,0.472-1.592,1.088c0.856-0.054,1.756-0.12,2.684-0.203C235.89,331.365,235.5,330.994,235.064,330.948z"></path></g><g><path style="fill:none;" d="M256.006,343.19c-0.138,0.469,0.131,0.962,0.602,1.1c0.469,0.138,0.962-0.133,1.1-0.602c0.104-0.356-0.028-0.724-0.303-0.941c-0.389,0.044-0.793,0.084-1.223,0.121C256.104,342.96,256.042,343.067,256.006,343.19z"></path><path style="fill:#505050;" d="M257.104,342.59c-0.347-0.101-0.703,0.021-0.923,0.278c0.43-0.037,0.834-0.077,1.223-0.121C257.317,342.679,257.218,342.623,257.104,342.59z"></path><g><path style="fill:#FFFFFF;" d="M277.442,381.339c0.384,0.72,0.737,1.445,1.071,2.174c1.718,0.213,3.374,0.231,4.89,0.055l0.096-2.022C281.695,381.806,279.602,381.733,277.442,381.339z"></path><path style="fill:#FFFFFF;" d="M271.423,379.427c-0.355-0.179-1.169-0.493-2.4-0.969c-5.554-2.147-20.306-7.851-29.872-16.05c-11.297-9.684-16.135-27.976-16.183-28.159l-1.937,0.502c0.201,0.774,5.048,19.087,16.817,29.175c9.826,8.423,24.811,14.217,30.452,16.397c1.093,0.423,1.957,0.757,2.252,0.904c2.491,1.163,5.149,1.905,7.699,2.249c-0.849-0.745-2.569-1.868-4.842-3.229C272.737,380.002,272.072,379.729,271.423,379.427z"></path><path style="fill:#FFFFFF;" d="M278.228,364.169c-2.45-0.148-14.526-2.715-25.381-9.194c-5.42-3.236-13.007-9.896-18.727-15.222c-3.474-1.409-5.677-2.775-5.62-3.003c0.037-0.147,1.01-0.037,2.633,0.186c-1.715-1.639-3.089-2.986-3.981-3.868l-2.521,0.294l-0.009,0.009c0.492,0.497,8.829,8.905,17.209,15.919c3.451,2.144,6.775,4.148,9.169,5.461c2.363,1.296,5.332,3.319,8.479,5.864c8.681,3.815,16.649,5.431,18.628,5.551c2.539,0.154,4.495,0.064,5.894-0.082v-2.015C282.701,364.217,280.781,364.323,278.228,364.169z"></path><path style="fill:#505050;" d="M278.75,384c-0.072-0.163-0.161-0.324-0.236-0.487c-0.087-0.011-0.174-0.024-0.262-0.036C278.484,383.68,278.653,383.855,278.75,384z"></path><g><path style="fill:#505050;" d="M269.611,371.859c-0.899-0.964-1.283-2.051-1.389-3.089c-1.766-1.898-3.597-3.68-5.42-5.316c0.91,1.318,1.797,3.343,1.798,6.257c-0.687,1.382-1.873,2.83-3.603,3.524c1.652,0.907,3.278,1.804,4.833,2.67C266.42,374.619,267.608,373.072,269.611,371.859z"></path><path style="fill:#505050;" d="M225.75,339c0,0,0.2,0.445,0.575,1.214c0.371-0.056,0.767-0.081,1.205-0.05C226.42,339.44,225.75,339,225.75,339z"></path><path style="fill:#505050;" d="M230.491,345.102c-0.129-1.06,0.273-1.896,0.779-2.514c-0.766-0.494-1.472-0.951-2.111-1.365c-0.08,0.141-0.164,0.282-0.26,0.427c-0.447,0.259-0.99,0.472-1.573,0.544c0.45,0.861,0.993,1.866,1.615,2.962C229.411,345.083,229.927,345.053,230.491,345.102z"></path><path style="fill:#505050;" d="M275.143,380.144c0.085-0.514,0.277-1.118,0.578-1.76c-0.954-1.516-2.001-3.002-3.112-4.447c-0.987,1.518-2.569,2.872-4.857,3.044c2.096,1.179,4.023,2.286,5.659,3.267c1.33,0.481,2.691,0.847,4.032,1.092c-0.205-0.384-0.422-0.765-0.64-1.145C276.286,380.231,275.734,380.219,275.143,380.144z"></path><path style="fill:#505050;" d="M261.05,368.711c-2.324-2.721-0.755-6.195-0.308-7.053c-0.424-0.357-0.846-0.705-1.264-1.044c-2.535-1.114-5.132-2.415-7.657-3.923c-2.954-1.764-6.476-4.461-9.99-7.402c-1.411-0.876-2.841-1.775-4.24-2.66c0.195,1.158,0.182,3.155-1.345,5.46c-0.676,0.392-1.512,0.703-2.405,0.768c0.798,1.113,1.645,2.229,2.536,3.322c0.846-0.425,1.901-0.763,3.147-0.883c-1.08-3.455,2.348-5.941,2.348-5.941s2.252,3.124,0.184,7.977c-0.855,0.731-2.005,1.384-3.307,1.565c1.08,1.158,2.208,2.26,3.383,3.261c0.858-0.688,1.997-1.328,3.446-1.727c-1.799-3.495,1.41-6.793,1.41-6.793s2.991,2.924,1.676,8.504c-0.813,0.982-1.987,1.928-3.427,2.34c0.417,0.271,0.837,0.529,1.262,0.769c1.086,0.61,2.229,1.247,3.407,1.898c0.753-0.821,1.796-1.64,3.188-2.264c-2.344-3.227,0.361-7.028,0.361-7.028s3.449,2.47,2.997,8.265c-0.675,1.128-1.728,2.274-3.14,2.904c1.479,0.812,2.987,1.637,4.495,2.462C258.521,370.521,259.572,369.519,261.05,368.711z"></path><path style="fill:#505050;" d="M234.491,350.051c-0.25-2.06,1.189-3.416,2.099-4.057c-1.197-0.76-2.357-1.501-3.447-2.201c-0.104,0.866-0.421,1.905-1.167,3.031c-0.486,0.281-1.07,0.514-1.698,0.611c0.546,0.902,1.139,1.843,1.77,2.802C232.75,350.062,233.567,349.972,234.491,350.051z"></path><path style="fill:#FFFFFF;" d="M229.664,336.89c0,0-2.309,1.103-2.046,3.273c-0.031-0.003-0.057,0.003-0.088,0.001c0.468,0.305,1.013,0.659,1.628,1.059C230.551,338.771,229.664,336.89,229.664,336.89z"></path><path style="fill:#FFFFFF;" d="M224.366,340.979c0.93,1.073,2,1.335,2.96,1.215c-0.413-0.791-0.747-1.459-1.001-1.979C225.456,340.343,224.771,340.654,224.366,340.979z"></path><path style="fill:#E4E0F3;" d="M229.159,341.223c-0.616-0.399-1.161-0.754-1.628-1.059c-0.438-0.031-0.834-0.006-1.205,0.05c0.254,0.521,0.588,1.188,1.001,1.979c0.583-0.072,1.126-0.285,1.573-0.544C228.995,341.505,229.079,341.363,229.159,341.223z"></path><path style="fill:#FFFFFF;" d="M226.722,346.047c1.118,1.29,2.41,1.567,3.555,1.389c-0.481-0.795-0.925-1.556-1.336-2.28C227.953,345.31,227.186,345.676,226.722,346.047z"></path><path style="fill:#FFFFFF;" d="M232.861,341.309c0,0-0.896,0.431-1.591,1.279c0.595,0.384,1.219,0.785,1.873,1.205C233.323,342.29,232.861,341.309,232.861,341.309z"></path><path style="fill:#E4E0F3;" d="M233.143,343.793c-0.654-0.42-1.277-0.821-1.873-1.205c-0.506,0.617-0.908,1.454-0.779,2.514c-0.564-0.049-1.08-0.019-1.55,0.054c0.411,0.725,0.855,1.485,1.336,2.28c0.628-0.098,1.212-0.33,1.698-0.611C232.722,345.698,233.038,344.659,233.143,343.793z"></path><path style="fill:#FFFFFF;" d="M237.294,345.565c0,0-0.3,0.145-0.705,0.429c0.333,0.211,0.665,0.422,1.001,0.635C237.478,345.957,237.294,345.565,237.294,345.565z"></path><path style="fill:#FFFFFF;" d="M230.034,351.169c1.194,1.379,2.557,1.778,3.807,1.688c-0.631-0.88-1.227-1.756-1.794-2.619C231.173,350.456,230.482,350.81,230.034,351.169z"></path><path style="fill:#E4E0F3;" d="M237.591,346.629c-0.337-0.213-0.669-0.424-1.001-0.635c-0.91,0.641-2.349,1.997-2.099,4.057c-0.924-0.079-1.742,0.011-2.444,0.187c0.567,0.863,1.164,1.739,1.794,2.619c0.893-0.064,1.729-0.376,2.405-0.768C237.773,349.784,237.787,347.787,237.591,346.629z"></path><path style="fill:#FFFFFF;" d="M234.476,357.598c1.483,1.187,2.956,1.483,4.273,1.299c-0.82-0.878-1.613-1.787-2.372-2.718C235.526,356.607,234.886,357.124,234.476,357.598z"></path><path style="fill:#E4E0F3;" d="M241.872,349.354c0,0-3.428,2.486-2.348,5.941c-1.247,0.12-2.301,0.458-3.147,0.883c0.759,0.931,1.552,1.84,2.372,2.718c1.301-0.182,2.451-0.834,3.307-1.565C244.124,352.479,241.872,349.354,241.872,349.354z"></path><path style="fill:#FFFFFF;" d="M240.601,363.834c1.731,0.953,3.299,1.03,4.637,0.647c-1.064-0.688-2.102-1.47-3.105-2.324C241.432,362.719,240.916,363.311,240.601,363.834z"></path><path style="fill:#E4E0F3;" d="M248.665,362.142c1.314-5.58-1.676-8.504-1.676-8.504s-3.208,3.298-1.41,6.793c-1.449,0.398-2.588,1.039-3.446,1.727c1.004,0.854,2.041,1.636,3.105,2.324C246.678,364.069,247.851,363.124,248.665,362.142z"></path><path style="fill:#FFFFFF;" d="M248.632,369.065c1.851,0.676,3.411,0.526,4.682-0.04c-1.159-0.637-2.299-1.264-3.407-1.877C249.292,367.819,248.866,368.492,248.632,369.065z"></path><path style="fill:#E4E0F3;" d="M256.453,366.121c0.452-5.795-2.997-8.265-2.997-8.265s-2.706,3.802-0.361,7.028c-1.392,0.624-2.435,1.442-3.188,2.264c1.108,0.613,2.248,1.24,3.407,1.877C254.726,368.396,255.778,367.249,256.453,366.121z"></path><path style="fill:#FFFFFF;" d="M260.852,361.457c0,0-0.043,0.072-0.109,0.201c0.683,0.574,1.371,1.177,2.061,1.796C261.841,362.061,260.852,361.457,260.852,361.457z"></path><path style="fill:#FFFFFF;" d="M256.801,373.369c1.653,0.46,3.045,0.329,4.197-0.134c-1.057-0.58-2.121-1.163-3.189-1.748C257.313,372.16,256.979,372.814,256.801,373.369z"></path><path style="fill:#E4E0F3;" d="M264.601,369.711c-0.001-2.914-0.888-4.938-1.798-6.257c-0.689-0.619-1.378-1.222-2.061-1.796c-0.447,0.857-2.017,4.332,0.308,7.053c-1.478,0.808-2.529,1.811-3.241,2.776c1.068,0.585,2.133,1.168,3.189,1.748C262.728,372.541,263.914,371.093,264.601,369.711z"></path><path style="fill:#FFFFFF;" d="M273.271,372.718c-0.271-6.101-4.186-8.231-4.186-8.231s-1.094,2.024-0.863,4.284c1.528,1.645,3.007,3.374,4.386,5.166C272.869,373.535,273.092,373.123,273.271,372.718z"></path><path style="fill:#FFFFFF;" d="M265.497,376.79c0.817,0.189,1.566,0.242,2.254,0.19c-0.627-0.353-1.265-0.71-1.92-1.075C265.688,376.217,265.571,376.518,265.497,376.79z"></path><path style="fill:#E4E0F3;" d="M272.608,373.937c-1.379-1.792-2.857-3.521-4.386-5.166c0.105,1.038,0.489,2.125,1.389,3.089c-2.003,1.213-3.191,2.76-3.78,4.046c0.655,0.365,1.293,0.723,1.92,1.075C270.039,376.809,271.621,375.454,272.608,373.937z"></path><path style="fill:#FFFFFF;" d="M282.889,375.026c-0.938-6.39-5.284-8.216-5.284-8.216s-1.993,4.785,1.342,7.704c-1.622,1.222-2.642,2.621-3.226,3.869c0.378,0.599,0.735,1.203,1.082,1.811C280.297,379.941,282.141,377.321,282.889,375.026z"></path><path style="fill:#FFFFFF;" d="M275.143,380.144c0.592,0.075,1.144,0.088,1.66,0.051c-0.347-0.607-0.704-1.212-1.082-1.811C275.42,379.025,275.228,379.63,275.143,380.144z"></path></g><path style="fill:#E4E0F3;" d="M273.41,380.247c2.272,1.361,3.993,2.484,4.842,3.229c0.088,0.012,0.175,0.025,0.262,0.036c-0.334-0.729-0.688-1.454-1.071-2.174C276.102,381.094,274.74,380.729,273.41,380.247z"></path><path style="fill:#E4E0F3;" d="M259.479,360.614c-3.146-2.545-6.115-4.568-8.479-5.864c-2.394-1.313-5.718-3.317-9.169-5.461c3.514,2.941,7.036,5.639,9.99,7.402C254.347,358.199,256.943,359.5,259.479,360.614z"></path><path style="fill:#E4E0F3;" d="M228.5,336.75c-0.057,0.228,2.146,1.594,5.62,3.003c-1.069-0.996-2.075-1.946-2.987-2.817C229.51,336.713,228.537,336.603,228.5,336.75z"></path></g><path style="fill:#FFFFFF;" d="M257.707,343.688c-0.138,0.469-0.631,0.739-1.1,0.602c-0.471-0.138-0.739-0.631-0.602-1.1c0.036-0.123,0.098-0.23,0.176-0.322c-0.972,0.085-2.059,0.152-3.278,0.197c0.009,0.353,0.097,0.678,0.307,0.895c0.367,0.383,1.505,0.281,2.519,0.095c-0.702,0.755-1.399,1.659-1.277,2.174c0.236,0.999,2.188,1.569,2.926,0.857c0.382-0.37,0.28-1.507,0.095-2.521c0.754,0.704,1.656,1.402,2.174,1.279c0.998-0.236,1.569-2.187,0.856-2.925c-0.369-0.382-1.506-0.28-2.521-0.097c0.05-0.053,0.098-0.107,0.147-0.162c-0.234,0.03-0.476,0.059-0.725,0.086C257.679,342.965,257.811,343.332,257.707,343.688z"></path><path style="fill:#E4E0F3;" d="M259.262,340.65c-0.237-1-2.188-1.571-2.926-0.857c-0.382,0.37-0.28,1.507-0.096,2.52c-0.754-0.7-1.657-1.4-2.174-1.277c-0.705,0.168-1.186,1.186-1.163,2.03c1.22-0.045,2.307-0.112,3.278-0.197c0.22-0.258,0.576-0.379,0.923-0.278c0.113,0.033,0.213,0.089,0.3,0.157c0.249-0.027,0.49-0.056,0.725-0.086C258.778,341.943,259.374,341.13,259.262,340.65z"></path></g><path style="fill:none;stroke:#000000;stroke-linecap:round;stroke-linejoin:round;" d="M220.375,340.625c0,0,4.75,23.5,18,33.25s42,19.75,43.75,25"></path><path style="fill:none;stroke:#000000;stroke-linecap:round;stroke-linejoin:round;" d="M224.5,333c0,0,26.25,0,37-11.25"></path><path style="fill:#FFFFFF;" d="M227.521,306.917c0,0-0.903,3.554,1.73,5.255c-1.53,1.546-2.063,3.246-2.084,4.328c3.271-0.063,4.566-2.443,4.896-4.375C230.75,307.75,227.521,306.917,227.521,306.917z"></path><path style="fill:#FFFFFF;" d="M234.521,307.093c0,0-0.903,3.554,1.73,5.255c-1.53,1.546-2.063,3.246-2.084,4.328c3.271-0.063,4.566-2.443,4.896-4.375C237.75,307.926,234.521,307.093,234.521,307.093z"></path><path style="fill:#FFFFFF;" d="M241.468,306.881c0,0-0.722,3.595,1.994,5.16c-1.45,1.622-1.896,3.347-1.862,4.429c3.264-0.229,4.437-2.672,4.668-4.618C244.735,307.549,241.468,306.881,241.468,306.881z"></path><path style="fill:#FFFFFF;" d="M247.809,306.319c0,0-0.397,3.646,2.448,4.961c-1.299,1.745-1.589,3.503-1.458,4.577c3.229-0.52,4.179-3.058,4.235-5.017C251.122,306.692,247.809,306.319,247.809,306.319z"></path><path style="fill:#FFFFFF;" d="M254.056,305.014c0,0-0.078,3.666,2.872,4.729c-1.142,1.852-1.277,3.628-1.054,4.688c3.173-0.801,3.896-3.412,3.781-5.368C257.389,305.096,254.056,305.014,254.056,305.014z"></path><path style="fill:#FFFFFF;" d="M260.028,303.227c0,0,0.229,3.66,3.257,4.472c-0.982,1.94-0.969,3.723-0.658,4.759c3.096-1.062,3.598-3.725,3.32-5.665C263.356,303.03,260.028,303.227,260.028,303.227z"></path><path style="fill:#FFFFFF;" d="M266.819,300.313c0,0,0.036,3.667,3.018,4.637c-1.084,1.887-1.163,3.666-0.907,4.718c3.146-0.898,3.789-3.531,3.613-5.483C270.154,300.291,266.819,300.313,266.819,300.313z"></path><g><path style="fill:#FFFFFF;" d="M242.892,386.336c-12.641-1.478-26.609-5.607-26.749-5.649l-0.285,0.959c0.14,0.042,14.189,4.196,26.918,5.685c0.949,0.11,1.871,0.209,2.778,0.301c-0.094-0.366-0.197-0.715-0.313-1.036C244.473,386.516,243.689,386.43,242.892,386.336z"></path></g><path style="fill:none;stroke:#FFFFFF;stroke-width:2;" d="M225.333,305.833c0,0,12.51,0.907,24.167-0.958c12.5-2,21.25-8,21.25-8"></path><path style="fill:none;stroke:#FFFFFF;stroke-width:2;" d="M224.667,317.167c0,0,13.333,2,26-0.5s23.458-7.979,23.458-7.979"></path><path style="fill:none;stroke:#FFFFFF;" d="M224.833,321c0,0,12,2.167,26.167-0.5s23.167-6.334,23.167-6.334"></path><g><path style="fill:#505050;" d="M268.25,289.375L266,288.25c0,0-3.109,5.375-6.435,8.896c2.325-0.815,4.358-1.612,5.955-2.274C267.681,292.237,268.25,289.375,268.25,289.375z"></path><path style="fill:#505050;" d="M263.598,296.73c-1.694,0.662-3.67,1.383-5.84,2.093c-0.128,0.101-0.256,0.211-0.383,0.302C260.034,298.87,262.053,297.927,263.598,296.73z"></path><path style="fill:#FFFFFF;" d="M263.598,296.73c3.787-1.478,6.179-2.646,6.202-2.664l-0.519-0.851c-0.035,0.018-1.443,0.694-3.761,1.656C264.986,295.523,264.344,296.154,263.598,296.73z"></path><path style="fill:#FFFFFF;" d="M259.565,297.146c-3.021,1.061-6.522,2.146-10.211,2.998c-9.625,2.221-23.015,1.2-23.149,1.19l-0.079,0.996c0.136,0.011,13.675,1.044,23.452-1.212c2.901-0.67,5.667-1.474,8.179-2.296C258.356,298.351,258.964,297.784,259.565,297.146z"></path><path style="fill:#E4E0F3;" d="M265.521,294.872c-1.597,0.662-3.63,1.459-5.955,2.274c-0.602,0.638-1.209,1.204-1.808,1.677c2.17-0.71,4.146-1.431,5.84-2.093C264.344,296.154,264.986,295.523,265.521,294.872z"></path></g><g id="topsXMLID_46_"><g><path style="fill:none;stroke:#000000;stroke-linecap:round;stroke-linejoin:round;" d="M282.5,397.5c0,0,0.5,4.5,0.5,7c-1.75,0.5-7.5-0.25-7.5-0.25s-11,1.5-25.75,1.5s-29-3.75-30.25-5.25c-3-0.5-4-1.25-4-1.25s0.5-3,1.75-6.75c0.25-2.25-3-31.25-1.5-37.75s4.5-13.75,4.5-13.75s-0.5-3-0.5-3.75c0.5-0.75,1.63-1.87,2.69-3.87c-0.25-1.26-0.69-4.38-0.69-4.38s1.13-1.31,3-5c0.5-1.75-0.65-12.95,0.1-17.45s4-11.75,4-11.75s9.9,1.95,21.65-0.8s15-11.25,15-11.25s3.75,1.25,4.75,2.75c-1.25,3.25,0.25,10,0.25,10s3.1,7.08,3.56,12.81c0.631,7.75,1.381,17.57,2.29,20.44c1,1.75,2.75,2.75,2.75,2.75c-0.35,2.56-1,3.75-1,3.75s1.521,2.5,3.5,4.25c0.21,2.75-0.479,5.44-0.479,5.44S284,353.5,284,364.5C284,372.77,282.5,397.5,282.5,397.5z"></path><path style="fill:none;stroke:#000000;stroke-linecap:round;stroke-linejoin:round;" d="M267,286.25c0,0-3.25,9.25-10.25,13"></path></g></g></g></g></g></svg>