<svg xmlns="http://www.w3.org/2000/svg" width="500" height="500" version="1.1"><g id="x222"><g><g><g><g><g><path style="fill:#FFFFFF;stroke:#000000;stroke-linecap:round;stroke-linejoin:round;" d="M291.088,315.79c0,0,3.902,0.302,4.241,1.976c0.339,1.672,0.678,1.823-0.68,2.735c-1.356,0.913-1.695-0.304-2.713-0.15c-1.018,0.151,0.848,1.823,0.339,2.887c-0.509,1.065-3.053,1.675-4.58,0.762c-1.578-0.943-2.035-0.306-2.205,1.52s-3.393,2.281-4.919,1.673s-0.679-1.673-2.035-1.064c0,0-8.473,3.688-3.563-4.865"></path><path style="fill:#E4E0F3;" d="M276.427,324.921c1.328,1.19,9.122-4.372,9.918-5.324c0,0-5.702,2.632-10.354,2.771L276.427,324.921z"></path></g></g><g><path style="fill:#FFFFFF;stroke:#000000;stroke-linecap:round;stroke-linejoin:round;" d="M267.485,283.494c0,0,8.203-1.942,13.663,6.527c2.318,3.465,2.424,5.533,4.43,7.331c1.92,1.721,6.393,4.248,7.182,6.788c0.787,2.539,0.484,9.731-2.695,12.418c-9.663,6.069-16.278,5.919-16.278,5.919S264.69,294.402,267.485,283.494z"></path></g><path style="fill:#E4E0F3;" d="M273.029,300.558c2.655,3.81,6.906,8.569,5.844,11.428c-1.063,2.857-3.454,4.524-3.454,4.524L273.029,300.558z"></path><path style="fill:none;stroke:#000000;stroke-linecap:round;stroke-linejoin:round;" d="M286.582,300.853c0,0-1.112-1.694-3.014-6.029"></path></g><g><g><g><path style="fill:#FFFFFF;stroke:#000000;stroke-linecap:round;stroke-linejoin:round;" d="M208.492,315.79c0,0-3.902,0.302-4.241,1.976c-0.339,1.672-0.678,1.823,0.68,2.735c1.356,0.913,1.695-0.304,2.713-0.15c1.017,0.151-0.848,1.823-0.339,2.887c0.509,1.065,3.052,1.675,4.58,0.762c1.578-0.943,2.035-0.306,2.205,1.52s3.393,2.281,4.918,1.673c1.526-0.608,0.679-1.673,2.035-1.064c0,0,8.472,3.688,3.563-4.865"></path><path style="fill:#E4E0F3;" d="M223.153,324.921c-1.328,1.19-9.122-4.372-9.917-5.324c0,0,5.702,2.632,10.353,2.771L223.153,324.921z"></path></g></g><g><path style="fill:#FFFFFF;stroke:#000000;stroke-linecap:round;stroke-linejoin:round;" d="M232.094,283.494c0,0-8.203-1.942-13.663,6.527c-2.318,3.465-2.423,5.533-4.429,7.331c-1.92,1.721-6.392,4.248-7.181,6.788c-0.787,2.539-0.484,9.731,2.695,12.418c9.663,6.069,16.278,5.919,16.278,5.919S234.889,294.402,232.094,283.494z"></path></g><path style="fill:#E4E0F3;" d="M226.55,300.558c-2.655,3.81-6.906,8.569-5.844,11.428c1.063,2.857,3.454,4.524,3.454,4.524L226.55,300.558z"></path><path style="fill:none;stroke:#000000;stroke-linecap:round;stroke-linejoin:round;" d="M212.998,300.853c0,0,1.112-1.694,3.014-6.029"></path></g><path style="fill:#FFFFFF;stroke:#000000;stroke-linecap:round;stroke-linejoin:round;" d="M249.833,334.5c2.997-0.048,24.268,0.38,24.5-2c-0.208-1.455,0.579-3.378-0.166-6.667s-1.287-12.64-1.417-14.583s-5.5-27.5-5.5-27.5c-2.693-2.149-5.25-3-5.25-3c-2.026,3.087-11.94,9.724-11.94,9.724"></path><path style="fill:#FFFFFF;stroke:#000000;stroke-linecap:round;stroke-linejoin:round;" d="M249.833,334.5c-2.996-0.048-24.267,0.38-24.498-2c0.208-1.455-0.579-3.378,0.166-6.667s1.287-12.64,1.417-14.583s5.5-27.5,5.5-27.5c2.693-2.149,5.25-3,5.25-3c2.026,3.087,11.94,9.724,11.94,9.724"></path><path style="fill:#FFFFFF;stroke:#000000;stroke-linecap:round;stroke-linejoin:round;" d="M252.922,287.54l0.57,47.271h-6.842l-0.143-47.271C246.508,287.54,250.5,288.722,252.922,287.54z"></path><g><g><path style="fill:#6E6E6E;stroke:#000000;stroke-linecap:round;stroke-linejoin:round;" d="M264.458,298.834c-2.862,0.268-8.327,0.829-14.458,0.904c-6.131-0.075-11.596-0.637-14.458-0.904l2.792,36.291l11.665,0.284l0,0H250l0,0l0,0l11.666-0.284L264.458,298.834z"></path><g><polygon style="fill:#505050;" points="237.75,327.75 262.696,327.939 262.461,325.19 237.375,325.375 "></polygon><g><polygon style="fill:#505050;" points="237.75,305.75 262.696,305.939 262.461,303.19 237.375,303.375 "></polygon><polygon style="fill:#505050;" points="238.875,316.418 262.375,307.418 262.75,304.625 237.146,314.032 "></polygon><polygon style="fill:#505050;" points="238.375,327.208 262.5,317.583 262.125,315.083 238,324.708 "></polygon><polygon style="fill:#505050;" points="236.75,306.793 259,316.168 261.875,314.043 236.25,304.793 "></polygon><polygon style="fill:#505050;" points="237.375,317.583 261.125,327.208 261.5,324.875 237.102,314.941 "></polygon></g></g><path style="fill:#6E6E6E;stroke:#000000;stroke-linecap:round;stroke-linejoin:round;" d="M259.167,335.833c0.192-0.577,2.046-6.005,2.795-13.869C263.647,303.307,263,293.833,263.5,281c0,0,2.795,0.709,3.834,1.333c0.167,1,4.213,12.712,5.589,19.039c1.667,7.667,1.431,17.047,2.244,22.795c0.292,2.058,1.726,6.847,2,7.833C277.167,332,269.667,335,259.167,335.833z"></path><path style="fill:#6E6E6E;stroke:#000000;stroke-linecap:round;stroke-linejoin:round;" d="M240.165,335.833c-0.192-0.577-2.046-6.005-2.795-13.869c-1.686-18.657-1.038-28.131-1.538-40.964c0,0-2.794,0.709-3.833,1.333c-0.167,1-4.213,12.712-5.589,19.039c-1.667,7.667-1.431,17.047-2.244,22.795c-0.292,2.058-1.725,6.847-2,7.833C222.166,332,229.665,335,240.165,335.833z"></path><g><g><path style="fill:#BF0000;stroke:#000000;stroke-linecap:round;stroke-linejoin:round;" d="M263.433,326.551h-26.359c-0.553,0-1-0.43-1-0.96c0-0.531,0.447-0.961,1-0.961h26.359c0.553,0,1,0.43,1,0.961C264.433,326.121,263.985,326.551,263.433,326.551z"></path></g><g><g><g><path style="fill:#BF0000;stroke:#000000;stroke-linecap:round;stroke-linejoin:round;" d="M263.433,304.551h-26.359c-0.553,0-1-0.43-1-0.96c0-0.531,0.447-0.961,1-0.961h26.359c0.553,0,1,0.43,1,0.961C264.433,304.121,263.985,304.551,263.433,304.551z"></path></g><g><path style="fill:#BF0000;stroke:#000000;stroke-linecap:round;stroke-linejoin:round;" d="M262.36,316.172c-0.133,0-0.269-0.025-0.398-0.08l-25.987-10.868c-0.506-0.212-0.737-0.777-0.518-1.265c0.221-0.487,0.809-0.709,1.316-0.497l25.987,10.868c0.506,0.212,0.737,0.777,0.518,1.266C263.114,315.956,262.746,316.172,262.36,316.172z"></path></g><g><path style="fill:#BF0000;stroke:#000000;stroke-linecap:round;stroke-linejoin:round;" d="M237.57,315.544c-0.396,0-0.771-0.228-0.929-0.604c-0.205-0.492,0.044-1.052,0.557-1.249l25.66-9.882c0.516-0.201,1.096,0.042,1.301,0.534c0.205,0.493-0.043,1.051-0.557,1.248l-25.66,9.883C237.82,315.522,237.694,315.544,237.57,315.544z"></path></g><g><path style="fill:#BF0000;stroke:#000000;stroke-linecap:round;stroke-linejoin:round;" d="M262.236,326.683c-0.135,0-0.272-0.026-0.403-0.082l-24.495-10.391c-0.505-0.214-0.733-0.781-0.511-1.267c0.224-0.485,0.813-0.704,1.318-0.491l24.495,10.391c0.505,0.216,0.733,0.782,0.511,1.268C262.986,326.47,262.62,326.683,262.236,326.683z"></path></g><g><path style="fill:#BF0000;stroke:#000000;stroke-linecap:round;stroke-linejoin:round;" d="M237.446,326.294c-0.39,0-0.76-0.219-0.922-0.586c-0.215-0.487,0.022-1.051,0.531-1.259l24.294-9.884c0.509-0.206,1.095,0.021,1.312,0.511c0.215,0.487-0.023,1.051-0.531,1.259l-24.294,9.884C237.708,326.271,237.576,326.294,237.446,326.294z"></path></g></g></g><path style="fill:#DCDCDC;stroke:#000000;stroke-linecap:round;stroke-linejoin:round;" d="M264.455,302.251c0.731,0.107,2.082,1.976,0.866,3.594c-1.129,1.873-1.92,0.076-1.92,0.076l-0.705,0.15l-0.235-2.847h0.705C263.166,303.225,263.438,302.103,264.455,302.251z"></path><path style="fill:#DCDCDC;stroke:#000000;stroke-linecap:round;stroke-linejoin:round;" d="M264.354,312.608c0.731,0.107,2.082,1.976,0.868,3.592c-1.131,1.875-1.922,0.078-1.922,0.078l-0.705,0.15l-0.235-2.847h0.707C263.066,313.582,263.336,312.46,264.354,312.608z"></path><path style="fill:#DCDCDC;stroke:#000000;stroke-linecap:round;stroke-linejoin:round;" d="M263.754,323.258c0.721,0.171,1.914,2.15,0.571,3.654c-1.28,1.768-1.922-0.092-1.922-0.092l-0.714,0.088l-0.001-2.856l0.703,0.062C262.392,324.113,262.752,323.021,263.754,323.258z"></path><path style="fill:#DCDCDC;stroke:#000000;stroke-linecap:round;stroke-linejoin:round;" d="M234.876,302.251c-0.731,0.107-2.082,1.976-0.866,3.594c1.129,1.873,1.92,0.076,1.92,0.076l0.705,0.15l0.235-2.847h-0.705C236.166,303.225,235.894,302.103,234.876,302.251z"></path><path style="fill:#DCDCDC;stroke:#000000;stroke-linecap:round;stroke-linejoin:round;" d="M234.978,312.608c-0.731,0.107-2.082,1.976-0.868,3.592c1.131,1.875,1.922,0.078,1.922,0.078l0.705,0.15l0.235-2.847h-0.707C236.265,313.582,235.996,312.46,234.978,312.608z"></path><path style="fill:#DCDCDC;stroke:#000000;stroke-linecap:round;stroke-linejoin:round;" d="M235.578,323.258c-0.721,0.171-1.914,2.15-0.571,3.654c1.28,1.768,1.922-0.092,1.922-0.092l0.714,0.088l0.001-2.856l-0.703,0.062C236.94,324.113,236.58,323.021,235.578,323.258z"></path></g></g><path style="fill:#6E6E6E;stroke:#000000;stroke-linecap:round;stroke-linejoin:round;" d="M277,328.75c0,0-4.125,2.25-10.5,3.375c-5.331,0.941-13.977,0.832-16.667,0.772c-2.689,0.06-11.334,0.169-16.666-0.772c-6.375-1.125-10.5-3.375-10.5-3.375l-0.875,3.125c0,0,1.75,2.834,17.625,4.209c3.379,0.193,8.329,0.138,10.416,0.102c2.087,0.036,7.038,0.092,10.417-0.102c15.875-1.375,17.625-4.209,17.625-4.209L277,328.75z"></path></g></g></g></g></svg>