<svg xmlns="http://www.w3.org/2000/svg" width="500" height="500" version="1.1"><g id="x223"><g><g><g><g><path style="fill:#6E6E6E;stroke:#000000;stroke-linecap:round;stroke-linejoin:round;" d="M222.018,292.25c0,0-5.625,8.25-7,10.75s-6.5,19.375-6.5,19.375s-11.5,23-12.375,24.875s-1,5.75-1,5.75l13.625,5.75c0,0,16-31,16.625-32.375s2.75-24.875,2.75-24.875L222.018,292.25z"></path><path style="fill:#505050;" d="M226.935,310.667c0,0-4.333,6.5-4.833,9.167s2,8.833,2,8.833s2.833-5.333,3.5-6.833S226.935,310.667,226.935,310.667z"></path></g><g><path style="fill:#6E6E6E;stroke:#000000;stroke-linecap:round;stroke-linejoin:round;" d="M197.893,338.375c-2.125,5.25-3.625,12.125-3.875,15.125c3.75,2,14.75,6.375,14.75,6.375s6.5-8.75,7.75-13.125C210.393,342.875,197.893,338.375,197.893,338.375z"></path><polygon style="fill:#505050;stroke:#000000;" points="196.143,345.125 213.143,352.313 214.986,349.313 197.143,341.625 "></polygon></g></g><g><g><path style="fill:#6E6E6E;stroke:#000000;stroke-linecap:round;stroke-linejoin:round;" d="M277.984,292.25c0,0,5.625,8.25,7,10.75s6.5,19.375,6.5,19.375s11.499,23,12.374,24.875s1,5.75,1,5.75l-13.624,5.75c0,0-16-31-16.625-32.375s-2.75-24.875-2.75-24.875L277.984,292.25z"></path><path style="fill:#505050;" d="M273.066,310.667c0,0,4.334,6.5,4.834,9.167s-2,8.833-2,8.833s-2.834-5.333-3.5-6.833S273.066,310.667,273.066,310.667z"></path></g><g><path style="fill:#6E6E6E;stroke:#000000;stroke-linecap:round;stroke-linejoin:round;" d="M302.108,338.375c2.125,5.25,3.625,12.125,3.875,15.125c-3.75,2-14.749,6.375-14.749,6.375s-6.5-8.75-7.75-13.125C289.609,342.875,302.108,338.375,302.108,338.375z"></path><polygon style="fill:#505050;stroke:#000000;" points="303.858,345.125 286.859,352.313 285.016,349.313 302.858,341.625 "></polygon></g></g></g><g><g><g><path style="fill:#6E6E6E;stroke:#000000;stroke-linecap:round;stroke-linejoin:round;" d="M246.625,336.389c-0.25,0.648-1.5,12.54-1.625,13.297c-3.25,1.297-10,1.729-14,0.864c0.625-5.188,1.875-13.62,1.875-13.62L246.625,336.389z"></path><path style="fill:#505050;stroke:#000000;" d="M236.25,341.403l-0.75,9.405c0,0,3.125,0,3.75-0.108c0.25-3.567,1-10.702,1-10.702L236.25,341.403z"></path></g><g><path style="fill:#6E6E6E;stroke:#000000;stroke-linecap:round;stroke-linejoin:round;" d="M237.75,342.442c-1.5,0.216-12.25-1.514-19.25-6.054c0-1.297,4.75-13.621,4.75-13.621l2.75-22.053c0,0-3-5.188-4-9.513c0.5-0.648,5.25-5.405,8-6.702c0.25,1.514,4.25,6.486,6,6.486s12.75,2.378,14,2.378v42.16C250,335.524,239.75,341.361,237.75,342.442z"></path><path style="fill:#505050;stroke:#000000;" d="M220.25,332.605c0,0,12.5,5.08,16.75,5.297c4.375-0.757,9.625-3.892,9.625-3.892l1.25-40.538l-3.5-0.757l-1.875,39.565c0,0-4.875,2.162-5.375,2.162c-5-0.217-16-4.433-16-4.433L220.25,332.605z"></path></g></g><g><g><path style="fill:#6E6E6E;stroke:#000000;stroke-linecap:round;stroke-linejoin:round;" d="M253.375,336.389c0.25,0.648,1.5,12.54,1.625,13.297c3.25,1.297,10,1.729,14,0.864c-0.625-5.188-1.875-13.62-1.875-13.62L253.375,336.389z"></path><path style="fill:#505050;stroke:#000000;" d="M263.75,341.403l0.75,9.405c0,0-3.125,0-3.75-0.108c-0.25-3.567-1-10.702-1-10.702L263.75,341.403z"></path></g><g><path style="fill:#6E6E6E;stroke:#000000;stroke-linecap:round;stroke-linejoin:round;" d="M262.25,342.442c1.5,0.216,12.25-1.514,19.25-6.054c0-1.297-4.75-13.621-4.75-13.621L274,300.715c0,0,3-5.188,4-9.513c-0.5-0.648-5.25-5.405-8-6.702c-0.25,1.514-4.25,6.486-6,6.486s-12.75,2.378-14,2.378v42.16C250,335.524,260.25,341.361,262.25,342.442z"></path><path style="fill:#505050;stroke:#000000;" d="M279.75,332.605c0,0-12.5,5.08-16.75,5.297c-4.375-0.757-9.625-3.892-9.625-3.892l-1.25-40.538l3.5-0.757l1.875,39.565c0,0,4.875,2.162,5.375,2.162c5-0.217,16-4.433,16-4.433L279.75,332.605z"></path></g></g></g></g></g></svg>