<svg xmlns="http://www.w3.org/2000/svg" width="500" height="500" version="1.1"><g id="x224"><g><g><g><g id="topsXMLID_48_"><g><path style="fill:#6E6E6E;stroke:#000000;stroke-linecap:round;stroke-linejoin:round;" d="M226.291,287l5.38,5.25c0,0-5.3,23.78-10.33,47.7c0,0-10.503,39.713-11.173,63.053c-0.67,1.33-9.667,20.997-13.336,15.327c0.59-14,1.17-39.48,1.31-45.63c-2.35-5.51-11.7-13.05-11.47-15.7c0.25-3,26.75-52.25,30.75-58.75S226.291,287,226.291,287z"></path></g><linearGradient id="topsXMLID_82_" gradientUnits="userSpaceOnUse" x1="209.165" y1="413.3145" x2="209.165" y2="278.6772"><stop offset="0" style="stop-color:#FEABDB"></stop><stop offset="1" style="stop-color:#FEFBF6"></stop></linearGradient><path style="opacity:0.8;fill:url(#topsXMLID_82_);" d="M221.34,339.953c5.035-23.921,10.327-47.703,10.327-47.703l-5.375-5.25c0,0-4.875,4.75-8.875,11.25s-30.5,55.75-30.75,58.75c-0.221,2.651,9.124,10.186,11.47,15.697c-0.137,6.153-0.72,31.637-1.304,45.636c3.667,5.667,12.667-14.001,13.333-15.334C210.833,379.666,221.34,339.953,221.34,339.953z"></path><g><path style="fill:none;stroke:#000000;stroke-linecap:round;stroke-linejoin:round;" d="M221.341,339.95c5.03-23.92,10.33-47.7,10.33-47.7l-5.38-5.25c0,0-4.87,4.75-8.87,11.25s-30.5,55.75-30.75,58.75c-0.23,2.65,9.12,10.19,11.47,15.7c-0.14,6.149-0.72,31.63-1.31,45.63c3.67,5.67,12.667-13.997,13.336-15.327C210.837,379.663,221.341,339.95,221.341,339.95z"></path></g></g><circle style="fill:#FFFFFF;" cx="202.667" cy="367.668" r="1.333"></circle><circle style="fill:#FFFFFF;" cx="213.501" cy="357.501" r="1.333"></circle><circle style="fill:#FFFFFF;" cx="202.709" cy="355.543" r="0.708"></circle><g><path style="fill:#FFFFFF;" d="M211.606,379.168c-1.88,0.585-2.354,1.06-2.939,2.938c-0.585-1.879-1.06-2.354-2.94-2.938c1.88-0.586,2.354-1.061,2.94-2.939C209.252,378.107,209.727,378.582,211.606,379.168z"></path></g><g><path style="fill:#FFFFFF;" d="M204.439,409.834c-1.88,0.585-2.354,1.06-2.939,2.938c-0.585-1.879-1.06-2.354-2.94-2.938c1.88-0.586,2.354-1.061,2.94-2.939C202.085,408.773,202.56,409.248,204.439,409.834z"></path></g><g><path style="fill:#FFFFFF;" d="M200.107,357.335c-1.88,0.585-2.354,1.06-2.939,2.938c-0.585-1.879-1.06-2.354-2.94-2.938c1.88-0.586,2.354-1.061,2.94-2.939C197.753,356.274,198.227,356.749,200.107,357.335z"></path></g><circle style="fill:#FFFFFF;" cx="200.417" cy="387.417" r="0.916"></circle><circle style="fill:#FFFFFF;" cx="207.334" cy="397.501" r="1.333"></circle></g><g><g id="topsXMLID_51_"><g><path style="fill:#6E6E6E;stroke:#000000;stroke-linecap:round;stroke-linejoin:round;" d="M273.708,287l-5.379,5.25c0,0,5.299,23.78,10.33,47.7c0,0,10.503,39.713,11.173,63.053c0.67,1.33,9.667,20.997,13.337,15.327c-0.59-14-1.17-39.48-1.311-45.63c2.35-5.51,11.7-13.05,11.471-15.7c-0.25-3-26.75-52.25-30.75-58.75S273.708,287,273.708,287z"></path></g><linearGradient id="topsXMLID_83_" gradientUnits="userSpaceOnUse" x1="306.2471" y1="413.3145" x2="306.2471" y2="278.6772" gradientTransform="matrix(-1 0 0 1 597.082 0)"><stop offset="0" style="stop-color:#FEABDB"></stop><stop offset="1" style="stop-color:#FEFBF6"></stop></linearGradient><path style="opacity:0.8;fill:url(#topsXMLID_83_);" d="M278.659,339.953c-5.034-23.921-10.326-47.703-10.326-47.703l5.375-5.25c0,0,4.875,4.75,8.875,11.25s30.5,55.75,30.75,58.75c0.221,2.651-9.124,10.186-11.471,15.697c0.137,6.153,0.721,31.637,1.304,45.636c-3.667,5.667-12.667-14.001-13.333-15.334C289.166,379.666,278.659,339.953,278.659,339.953z"></path><g><path style="fill:none;stroke:#000000;stroke-linecap:round;stroke-linejoin:round;" d="M278.659,339.95c-5.031-23.92-10.33-47.7-10.33-47.7l5.379-5.25c0,0,4.871,4.75,8.871,11.25s30.5,55.75,30.75,58.75c0.229,2.65-9.121,10.19-11.471,15.7c0.141,6.149,0.721,31.63,1.311,45.63c-3.67,5.67-12.667-13.997-13.337-15.327C289.162,379.663,278.659,339.95,278.659,339.95z"></path></g></g><circle style="fill:#FFFFFF;" cx="297.332" cy="367.668" r="1.333"></circle><circle style="fill:#FFFFFF;" cx="286.499" cy="357.501" r="1.333"></circle><circle style="fill:#FFFFFF;" cx="297.291" cy="355.543" r="0.708"></circle><g><path style="fill:#FFFFFF;" d="M288.394,379.168c1.879,0.585,2.354,1.06,2.939,2.938c0.585-1.879,1.06-2.354,2.939-2.938c-1.88-0.586-2.354-1.061-2.939-2.939C290.747,378.107,290.272,378.582,288.394,379.168z"></path></g><g><path style="fill:#FFFFFF;" d="M295.56,409.834c1.881,0.585,2.354,1.06,2.939,2.938c0.586-1.879,1.061-2.354,2.94-2.938c-1.88-0.586-2.354-1.061-2.94-2.939C297.914,408.773,297.44,409.248,295.56,409.834z"></path></g><g><path style="fill:#FFFFFF;" d="M299.893,357.335c1.88,0.585,2.354,1.06,2.939,2.938c0.585-1.879,1.06-2.354,2.94-2.938c-1.881-0.586-2.355-1.061-2.94-2.939C302.247,356.274,301.772,356.749,299.893,357.335z"></path></g><circle style="fill:#FFFFFF;" cx="299.583" cy="387.417" r="0.916"></circle><circle style="fill:#FFFFFF;" cx="292.665" cy="397.501" r="1.334"></circle></g></g><g><g id="topsXMLID_53_"><g><path style="fill:#6E6E6E;" d="M277.25,340.75c0,0,6,58,3.75,76.25c-9.25,5-31,4.25-31,4.25S228.25,422,219,417c-2.25-18.25,3.75-76.25,3.75-76.25L250,339.5L277.25,340.75z"></path></g><g style="opacity:0.2;"><path style="fill:#FFFFFF;" d="M277.25,340.75c0,0,6,58,3.75,76.25c-9.25,5-31,4.25-31,4.25S228.25,422,219,417c-2.25-18.25,3.75-76.25,3.75-76.25L250,339.5L277.25,340.75z"></path></g><g><path style="fill:none;stroke:#000000;stroke-linecap:round;stroke-linejoin:round;" d="M277.25,340.75L250,339.5l-27.25,1.25c0,0-6,58-3.75,76.25c9.25,5,31,4.25,31,4.25s21.75,0.75,31-4.25C283.25,398.75,277.25,340.75,277.25,340.75z"></path></g></g><g><path style="fill:#505050;stroke:#000000;stroke-linecap:round;stroke-linejoin:round;" d="M276.75,323.75L250,325.6l-26.75-1.85c0,0-1.5,14.75-0.25,18c8,2.5,27,3.25,27,3.25s19-0.75,27-3.25C278.25,338.5,276.75,323.75,276.75,323.75z"></path><path style="fill:#FFFAF2;stroke:#000000;stroke-linecap:round;stroke-linejoin:round;" d="M277.75,332c-7.875,0.75-16.75,1.75-27.75,1.75s-19.875-1-27.75-1.75c-0.625,1.25-0.875,2.875,0.25,3.5c1.75,1,21.25,2,27.5,2s25.75-1,27.5-2C278.625,334.875,278.375,333.25,277.75,332z"></path><g><g><path style="fill:#FFFAF2;stroke:#000000;stroke-linecap:round;stroke-linejoin:round;" d="M250.001,337.333c-0.5,1.166-5.167,15.501-5.167,22.167c-1.334,1-3.667-0.833-3.667-0.833s2.167-16.166,6.5-22.5C248.167,335,250.001,337.333,250.001,337.333z"></path><path style="fill:#FFFAF2;stroke:#000000;stroke-linecap:round;stroke-linejoin:round;" d="M250,337.333c0.5,1.166,5.167,15.501,5.167,22.167c1.333,1,3.666-0.833,3.666-0.833s-2.166-16.166-6.499-22.5C251.834,335,250,337.333,250,337.333z"></path></g><g><g><path style="fill:#FFFAF2;stroke:#000000;stroke-linecap:round;stroke-linejoin:round;" d="M249.251,337.375c0,0-15.125,11-17.375,10.125s-4.625-12.375-1.5-13.75s18.25,0.5,18.25,0.5l-1.375,1.875c0,0-10.875-0.5-12.5,1.375s0.375,4.875,0.875,4.625s10.625-5.25,10.625-5.25L249.251,337.375z"></path><path style="fill:#FFFAF2;stroke:#000000;stroke-linecap:round;stroke-linejoin:round;" d="M250.749,337.375c0,0,15.125,11,17.375,10.125s4.625-12.375,1.5-13.75s-18.25,0.5-18.25,0.5l1.375,1.875c0,0,10.875-0.5,12.5,1.375s-0.375,4.875-0.875,4.625s-10.625-5.25-10.625-5.25L250.749,337.375z"></path></g><g><path style="fill:#FFFAF2;stroke:#000000;stroke-linecap:round;stroke-linejoin:round;" d="M249.375,332.375c-0.375,0.25-2.25,0.375-2.625,2.5s1.25,3.375,2.25,3.25s2.875-4.75,2.5-5.125S249.375,332.375,249.375,332.375z"></path><path style="fill:#FFFAF2;stroke:#000000;stroke-linecap:round;stroke-linejoin:round;" d="M251.75,333.125c-0.375,0.25-2.25,0.375-2.625,2.5s1.25,3.375,2.25,3.25s2.875-4.75,2.5-5.125S251.75,333.125,251.75,333.125z"></path></g></g></g></g><g><g><polygon style="fill:#FFFFFF;stroke:#000000;stroke-linecap:round;stroke-linejoin:round;" points="238.663,279.937 254.513,297.879 253.412,300.521 236.461,281.367 "></polygon><polygon style="fill:#FFFFFF;stroke:#000000;stroke-linecap:round;stroke-linejoin:round;" points="261.338,279.937 245.487,297.879 246.588,300.521 263.539,281.367 "></polygon></g><g id="topsXMLID_52_"><g><path style="fill:#6E6E6E;" d="M278.89,319.85c0.24,3,0,5.75,0,5.75s-12.279,2-28.89,2c-16.61,0-28.89-2-28.89-2s-0.24-2.75,0-5.75c0.24-3,5.66-32.85,5.66-32.85L250,299.25L273.24,287C273.24,287,278.65,316.85,278.89,319.85z"></path></g><g style="opacity:0.2;"><path style="fill:#FFFFFF;" d="M278.89,319.85c0.24,3,0,5.75,0,5.75s-12.279,2-28.89,2c-16.61,0-28.89-2-28.89-2s-0.24-2.75,0-5.75c0.24-3,5.66-32.85,5.66-32.85L250,299.25L273.24,287C273.24,287,278.65,316.85,278.89,319.85z"></path></g><g><path style="fill:none;stroke:#000000;stroke-linecap:round;stroke-linejoin:round;" d="M278.89,319.85c-0.239-3-5.649-32.85-5.649-32.85L250,299.25L226.77,287c0,0-5.42,29.85-5.66,32.85c-0.24,3,0,5.75,0,5.75s12.28,2,28.89,2c16.61,0,28.89-2,28.89-2S279.13,322.85,278.89,319.85z"></path></g></g><g><path style="fill:#FFFAF2;stroke:#000000;stroke-linecap:round;stroke-linejoin:round;" d="M235.875,280.375c-4.875,2.25-9.75,6.625-9.75,6.625l20.276,26.028l9.951-9.366C247.897,295.302,238.657,283.157,235.875,280.375z"></path><path style="fill:#FFFAF2;stroke:#000000;stroke-linecap:round;stroke-linejoin:round;" d="M273.875,287c0,0-5.377-3.678-10.252-5.928c-5.5,5.5-37.498,45.803-37.498,45.803L242.75,328L273.875,287z"></path></g></g></g></g></g></svg>