<svg xmlns="http://www.w3.org/2000/svg" width="500" height="500" version="1.1"><g id="x228"><g><g><g><path style="fill:#F4F3F1;stroke:#000000;stroke-linecap:round;stroke-linejoin:round;" d="M275.668,328.334L275,322.501l14-11c0,0-8.332-18.167-13.166-24.333c-3.834-3.333-14.666-6.5-14.666-6.5l-4.334,2.833h-13.667l-4.333-2.833c0,0-10.833,3.167-14.667,6.5C219.333,293.334,211,311.501,211,311.501l14,11l-0.667,5.833l-4.896,16.167h61.125L275.668,328.334z"></path><path style="fill:#E4E0F3;" d="M245.125,284h10.25l2.25,8.5l-1.875,2.25l-3.25-7.375c0,0-4.375,0.75-4.875,1.75s-1,9.75-1,9.75l-4.25-7.5L245.125,284z"></path><g><path style="fill:#E4E0F3;" d="M273.463,295c0,0-1.5,7.666,0.667,9.666s5,5.501,5,6.834s-6,11-6,11c-3.5-9-6.833-14.667-6.833-14.667S269.963,297.334,273.463,295z"></path></g><g><path style="fill:#E4E0F3;" d="M226.5,295c0,0,1.5,7.666-0.667,9.666s-5,5.501-5,6.834s6,11,6,11c3.5-9,6.833-14.667,6.833-14.667S230,297.334,226.5,295z"></path></g><g><g><path style="fill:none;stroke:#BFC1D3;stroke-linecap:round;stroke-linejoin:round;" d="M214.829,310.729c0,0,7.5-15.358,10.885-20.385"></path><path style="fill:none;stroke:#BFC1D3;stroke-linecap:round;stroke-linejoin:round;" d="M218.234,316.88c0,0,7.362-16.031,9.604-21.607"></path></g><g><path style="fill:none;stroke:#BFC1D3;stroke-linecap:round;stroke-linejoin:round;" d="M285.171,310.729c0,0-7.499-15.358-10.885-20.385"></path><path style="fill:none;stroke:#BFC1D3;stroke-linecap:round;stroke-linejoin:round;" d="M281.767,316.88c0,0-7.363-16.031-9.604-21.607"></path></g></g><g><line style="fill:none;stroke:#BFC1D3;stroke-linecap:round;stroke-linejoin:round;" x1="245.813" y1="284.25" x2="244.188" y2="298.625"></line><line style="fill:none;stroke:#BFC1D3;stroke-linecap:round;stroke-linejoin:round;" x1="254.188" y1="284.25" x2="255.813" y2="298.625"></line></g><g><circle style="fill:#303136;stroke:#000000;stroke-linecap:round;stroke-linejoin:round;" cx="250" cy="286.063" r="1.438"></circle><circle style="fill:#303136;stroke:#000000;stroke-linecap:round;stroke-linejoin:round;" cx="250" cy="293.438" r="1.438"></circle><circle style="fill:#303136;stroke:#000000;stroke-linecap:round;stroke-linejoin:round;" cx="250" cy="300.813" r="1.438"></circle></g><g><line style="fill:none;stroke:#000000;stroke-linecap:round;stroke-linejoin:round;" x1="248" y1="284.167" x2="248" y2="306.501"></line><line style="fill:none;stroke:#000000;stroke-linecap:round;stroke-linejoin:round;" x1="252" y1="284.167" x2="252" y2="306.501"></line></g></g><g><g><g><path style="fill:#F4F3F1;stroke:#000000;stroke-linecap:round;stroke-linejoin:round;" d="M226.417,323c0,0-1.75,6.125-3.875,8.75c-2.683-0.644-15-10.375-17.209-13.916c1.5-6.5,5.333-13,5.333-13L226.417,323z"></path><path style="fill:#E4E0F3;" d="M222.417,331.375c-0.375-0.25-7.625-5.625-7.625-5.625s2.25-1.375,3.75-4.125s0.257-6.329,0.257-6.329l6.483,7.439C225.282,322.735,222.792,331.625,222.417,331.375z"></path><g><polygon style="fill:#0F1015;stroke:#000000;stroke-linecap:round;stroke-linejoin:round;" points="209.927,307.213 225.292,324.25 226.292,322.625 210.708,305.65 "></polygon></g></g></g></g><g><g><g><path style="fill:#F4F3F1;stroke:#000000;stroke-linecap:round;stroke-linejoin:round;" d="M273.583,323c0,0,1.75,6.125,3.875,8.75c2.682-0.644,15-10.375,17.209-13.916c-1.5-6.5-5.334-13-5.334-13L273.583,323z"></path><path style="fill:#E4E0F3;" d="M277.583,331.375c0.375-0.25,7.625-5.625,7.625-5.625s-2.25-1.375-3.75-4.125s-0.258-6.329-0.258-6.329l-6.482,7.439C274.718,322.735,277.208,331.625,277.583,331.375z"></path><g><polygon style="fill:#0F1015;stroke:#000000;stroke-linecap:round;stroke-linejoin:round;" points="290.073,307.213 274.708,324.25 273.708,322.625 289.292,305.65 "></polygon></g></g></g></g></g><g><path style="fill:#303136;stroke:#000000;stroke-linecap:round;stroke-linejoin:round;" d="M264,281.668l-14,24.833l-14-24.833c0,0-8.667,2.667-11,5l5,19.833l20,20.999l20-20.999l5-19.833C272.666,284.335,264,281.668,264,281.668z"></path><rect x="244.083" y="330.001" style="fill:#303136;stroke:#000000;stroke-linecap:round;stroke-linejoin:round;" width="11.834" height="14"></rect><g><path style="fill:#0F1015;stroke:#000000;stroke-linecap:round;stroke-linejoin:round;" d="M239.75,300.5l5.875,0.125l-1.25,4c0,0,2.75,1.252,5.625,1.876c-3.125-5.626-12.75-24.751-12.75-24.751l-2.5,1L239.75,300.5z"></path><path style="fill:#0F1015;stroke:#000000;stroke-linecap:round;stroke-linejoin:round;" d="M260.252,300.5l-5.875,0.125l1.25,4c0,0-2.75,1.252-5.627,1.876c3.127-5.626,12.752-24.751,12.752-24.751l2.5,1L260.252,300.5z"></path></g></g><g><g id="topsXMLID_63_"><g><path style="fill:#6E6E6E;" d="M276,329c0,0,6.33,13.17,7.5,18.17c-2.5,4-23.17,9.66-23.17,9.66L250,341l-10.33,15.83c0,0-20.67-5.66-23.17-9.66c1.17-5,7.5-18.17,7.5-18.17l0.5-12.5c0,0,4-7.67,5.67-13.33c0.33-6.84-1.34-19.33-1.34-19.33l6.34-2.34L250,321.88l14.83-40.38l6.34,2.34c0,0-1.67,12.49-1.34,19.33c1.67,5.66,5.67,13.33,5.67,13.33L276,329z"></path></g><g><path style="fill:#505050;" d="M228.063,309.666c0,0,3,6.834,2.833,7.334s-4.667,5.5-4.667,5.5s0.833,2.5,1,3.833s-2.667,3.167-2.667,3.167l0.5-12.834C225.063,316.666,226.396,313.5,228.063,309.666z"></path><path style="fill:#505050;" d="M271.934,309.666c0,0-3,6.834-2.834,7.334c0.167,0.5,4.667,5.5,4.667,5.5s-0.833,2.5-1,3.833s2.667,3.167,2.667,3.167l-0.5-12.834C274.934,316.666,273.6,313.5,271.934,309.666z"></path></g><g><path style="fill:none;stroke:#000000;stroke-linecap:round;stroke-linejoin:round;" d="M224.851,321.375c0,0,7.875-14.75,8.25-18.125s-1.5-19.625-1.5-19.625"></path><path style="fill:none;stroke:#000000;stroke-linecap:round;stroke-linejoin:round;" d="M268.399,283.625c0,0-1.875,16.25-1.5,19.625s8.25,18.125,8.25,18.125"></path></g><g><path style="fill:none;stroke:#000000;stroke-linecap:round;stroke-linejoin:round;" d="M276,329l-0.5-12.5c0,0-4-7.67-5.67-13.33c-0.33-6.84,1.34-19.33,1.34-19.33l-6.34-2.34L250,321.88l-14.83-40.38l-6.34,2.34c0,0,1.67,12.49,1.34,19.33c-1.67,5.66-5.67,13.33-5.67,13.33L224,329c0,0-6.33,13.17-7.5,18.17c2.5,4,23.17,9.66,23.17,9.66L250,341l10.33,15.83c0,0,20.67-5.66,23.17-9.66C282.33,342.17,276,329,276,329z"></path></g></g><line style="fill:none;stroke:#000000;stroke-linecap:round;stroke-linejoin:round;" x1="250" y1="321.625" x2="250" y2="341.125"></line><g><circle style="fill:#0F1015;stroke:#000000;stroke-linecap:round;stroke-linejoin:round;" cx="250" cy="324.313" r="1.688"></circle><circle style="fill:#0F1015;stroke:#000000;stroke-linecap:round;stroke-linejoin:round;" cx="250" cy="332.063" r="1.688"></circle><circle style="fill:#0F1015;stroke:#000000;stroke-linecap:round;stroke-linejoin:round;" cx="250" cy="339.813" r="1.688"></circle></g></g><g><polygon style="fill:#E4E0F3;stroke:#000000;stroke-linecap:round;stroke-linejoin:round;" points="246.275,280.668 250.087,286.063 243.837,287.5 "></polygon><polygon style="fill:#E4E0F3;stroke:#000000;stroke-linecap:round;stroke-linejoin:round;" points="253.727,280.668 249.912,286.063 256.164,287.5 "></polygon></g><g><g><path style="fill:#F4F3F1;stroke:#000000;stroke-linecap:round;stroke-linejoin:round;" d="M239.354,278.334c0.254-0.545,5.334,1.834,6.834,2.334c-0.167,2.5-3.834,14.166-3.834,14.166c-3.333-2.5-7.666-8-7.666-8S238.188,280.834,239.354,278.334z"></path><path style="fill:#E4E0F3;" d="M235.229,286.75c0,0,3.625,3.125,5.5,2.625s3.75-3,3.75-3l1.25-5.375l-6-2.5C239.729,278.5,238.104,282.375,235.229,286.75z"></path></g><g><path style="fill:#F4F3F1;stroke:#000000;stroke-linecap:round;stroke-linejoin:round;" d="M260.646,278.334c-0.254-0.545-5.334,1.834-6.834,2.334c0.168,2.5,3.834,14.166,3.834,14.166c3.334-2.5,7.666-8,7.666-8S261.813,280.834,260.646,278.334z"></path><path style="fill:#E4E0F3;" d="M264.771,286.75c0,0-3.625,3.125-5.5,2.625s-3.75-3-3.75-3l-1.25-5.375l6-2.5C260.271,278.5,261.896,282.375,264.771,286.75z"></path></g></g></g></g></svg>