<svg xmlns="http://www.w3.org/2000/svg" width="500" height="500" version="1.1"><g id="x229"><g><g><g><g><path style="fill:#6E6E6E;stroke:#000000;stroke-linecap:round;stroke-linejoin:round;" d="M298.625,333.301l-2.25-1.5c0,0-7.5-22.625-10-29.125S274.5,288.301,274.5,288.301l-4.625,5.25l4.625,38.25c0,0,11.625,19,12.375,19s1.75-2.75,7.75-5.25c2.178-0.907,7-1,7-1L298.625,333.301z"></path><path style="fill:#505050;" d="M274.822,302.5c0,0,7.833,9.667,7.333,12.167s-6,8.333-6,8.333L274.822,302.5z"></path><path style="fill:none;stroke:#000000;stroke-linecap:round;stroke-linejoin:round;" d="M283.125,339.468c0,0,5-5.834,13.25-7.667"></path></g><g><path style="fill:#6E6E6E;stroke:#000000;stroke-linecap:round;stroke-linejoin:round;" d="M201.375,333.301l2.25-1.5c0,0,7.501-22.625,10.001-29.125s11.875-14.375,11.875-14.375l4.625,5.25l-4.625,38.25c0,0-11.625,19-12.375,19s-1.75-2.75-7.751-5.25c-2.178-0.907-7-1-7-1L201.375,333.301z"></path><g><path style="fill:#505050;" d="M225.178,302.5c0,0-7.833,9.667-7.333,12.167s6,8.333,6,8.333L225.178,302.5z"></path></g><path style="fill:none;stroke:#000000;stroke-linecap:round;stroke-linejoin:round;" d="M216.876,339.468c0,0-5-5.834-13.251-7.667"></path></g></g><g><g><path style="fill:#6E6E6E;stroke:#000000;stroke-linecap:round;stroke-linejoin:round;" d="M278.125,332.801l1-4l-2.75-4.25c0,0-1-18.25-2-21.25c1.375-5.5,5.25-9.75,5.25-9.75s-4.25-7.5-16.5-12.75l5.75,7c0,0-7.5,9.25-8,10c1.5,2.75,2.5,5.25,2.5,5.25l-4.5,0.75c0,0-1.75,17-2.25,17.75c-1.389,2.38-5.136,10.106-6.625,13.199c-0.615-1.277-4.166-5.417-4.166-5.417s-1.644-6.386-2.458-7.782c-0.5-0.75-2.25-17.75-2.25-17.75l-4.5-0.75c0,0,1-2.5,2.5-5.25c-0.5-0.75-8-10-8-10l5.75-7c-12.25,5.25-16.5,12.75-16.5,12.75s3.875,4.25,5.25,9.75c-1,3-2,21.25-2,21.25l-2.75,4.25l1,4l-4.375,15.25c0,0,2.167,3.116,31.667,3.116s33.333-3.116,33.333-3.116L278.125,332.801z"></path><path style="fill:#505050;" d="M279.166,337.833c0,0.834-2.666,7.166-4.5,8.5c-1.833,1.334-25.333,4.5-25.333,4.5s28.667-0.332,32.333-2.666C281.333,345.333,279.166,337.833,279.166,337.833z"></path><path style="fill:#505050;" d="M220.833,337.833c0,0.834,2.667,7.166,4.5,8.5s25.333,4.5,25.333,4.5s-28.667-0.332-32.333-2.666C218.667,345.333,220.833,337.833,220.833,337.833z"></path><path style="fill:#505050;" d="M273.625,291.968l-10,11.5c0,0-3.875,10.698-2.875,11.532c2.5-3.75,7.873-10.866,9.207-11.699s4.23,2.125,4.23,2.125l-0.25-2.625c0,0,2.5-6.625,5.25-9.438c-2.5-3.188-9.23-9.562-14.23-11.229c2,2.666,5.395,6.791,5.395,6.791L273.625,291.968z"></path><path style="fill:#505050;stroke:#000000;stroke-linecap:round;stroke-linejoin:round;" d="M268.459,288.75c0,0,7,1,8.25,0.75c-2.25-3.75-9.25-9.75-10.25-10.25s-6.668,0.218-6.668,0.218C260.459,281.25,265.459,284.5,268.459,288.75z"></path><path style="fill:#6E6E6E;stroke:#000000;stroke-linecap:round;stroke-linejoin:round;" d="M256.791,321.968c-0.5-4.833,2.084-18.167,2.084-18.167l3.416-1.333c0,0-0.5-2.167-1.834-5.167c0.334-1.167,8.418-9.5,8.418-9.5S279.25,294,279.25,295c-11.75,4.25-15.625,8.468-15.625,8.468s-5.002,16.666-5.168,18.333"></path></g><g><g><path style="fill:none;stroke:#000000;stroke-linecap:round;stroke-linejoin:round;" d="M250.167,334.833c-0.125,0.375-3.167,2.667-4.042,3.542c0.375,2.25,1.875,4.375,1.875,4.375s-3,4.125-2.375,4.5c1.25,0.875,5.459,3.708,6.709,3.583"></path><path style="fill:#505050;" d="M246.875,339c-0.552,0.508,2.75,5.25,5.5,5.875c5.75-1.75,18.5-7.375,18.375-8.125S250,336.125,246.875,339z"></path><path style="fill:#505050;" d="M278.5,328.833c0,0-1,3.5-1.5,4c-2,0.5-11.166-1.166-10.333-1.833S278.5,328.833,278.5,328.833z"></path><path style="fill:#505050;" d="M221.413,328.833c0,0,1,3.5,1.5,4c2,0.5,11.166-1.166,10.333-1.833S221.413,328.833,221.413,328.833z"></path></g><path style="fill:#505050;" d="M226.375,291.968l10,11.5c0,0,5.125,12.198,4.125,13.032c-0.563-3.813-9.124-12.366-10.458-13.199s-4.229,2.125-4.229,2.125l0.25-2.625c0,0-2.5-6.625-5.25-9.438c2.5-3.188,9.229-9.562,14.229-11.229c-2,2.666-5.394,6.791-5.394,6.791L226.375,291.968z"></path><g><path style="fill:#505050;stroke:#000000;stroke-linecap:round;stroke-linejoin:round;" d="M231.542,288.75c0,0-7,1-8.25,0.75c2.25-3.75,9.25-9.75,10.25-10.25s6.667,0.218,6.667,0.218C239.542,281.25,234.542,284.5,231.542,288.75z"></path></g><path style="fill:#6E6E6E;stroke:#000000;stroke-linecap:round;stroke-linejoin:round;" d="M243.208,321.968c0.5-4.833-2.083-18.167-2.083-18.167l-3.417-1.333c0,0,0.5-2.167,1.834-5.167c-0.333-1.167-8.417-9.5-8.417-9.5s-9.375,6.449-9.375,7.449c5,3,14.625,8.218,14.625,8.218s5,16.666,5.167,18.333"></path></g></g></g></g></g></svg>