<svg xmlns="http://www.w3.org/2000/svg" width="500" height="500" version="1.1"><g id="x023"><g><g><g><g><path style="fill:#6E6E6E;stroke:#000000;stroke-linecap:round;stroke-linejoin:round;" d="M209.181,319.333c0,0,5.332-15.167,10.332-25.333c4.5-6.834,10.77-9.003,10.77-9.003l1.279,19.695c0,0-6.344,18.287-7.805,24.756C223.615,329.99,209.181,319.333,209.181,319.333z"></path><path style="fill:#505050;" d="M226.482,295.75c0,0-3.946,5.933-4.583,9.5c-0.636,3.569,2.858,7.082,3.743,7.305c3.272-3.938,4.625-9.38,4.625-9.38L226.482,295.75z"></path><path style="fill:none;stroke:#000000;stroke-linecap:round;stroke-linejoin:round;" d="M224.728,311.997c-4.088-4.327-3.43-11.788-3.43-11.788"></path></g><g><path style="fill:#6E6E6E;stroke:#000000;stroke-linecap:round;stroke-linejoin:round;" d="M224.513,327.25c0,0-1.949-4.228-3.25-5.125c-3.625-2.5-11.25-4-11.25-4s-2.375,0.875-3,1.375s-0.875,3.5-1.125,4.25s0.125,2.5,0.125,2.5s-2.625,3-3.125,3.75c0.375,1.5,1.875,3.375,1.875,3.375l1.75-3.5c0,0,6.625,2.25,7.75,2.75c2.125,1.125,5.375,5.125,5.875,5.125S224.513,327.25,224.513,327.25z"></path><line style="fill:none;stroke:#000000;stroke-linecap:round;stroke-linejoin:round;" x1="214.462" y1="332.625" x2="210.837" y2="329"></line></g></g><g><g><path style="fill:#6E6E6E;stroke:#000000;stroke-linecap:round;stroke-linejoin:round;" d="M290.819,319.333c0,0-5.332-15.167-10.332-25.333c-4.5-6.834-10.77-9.003-10.77-9.003l-1.279,19.695c0,0,6.344,18.287,7.805,24.756C276.386,329.99,290.819,319.333,290.819,319.333z"></path><path style="fill:#505050;" d="M273.186,295.75c0,0,3.946,5.933,4.583,9.5c0.637,3.569-2.857,7.082-3.742,7.305c-3.272-3.938-4.626-9.38-4.626-9.38L273.186,295.75z"></path><path style="fill:none;stroke:#000000;stroke-linecap:round;stroke-linejoin:round;" d="M275.272,311.997c4.088-4.327,3.43-11.788,3.43-11.788"></path></g><g><path style="fill:#6E6E6E;stroke:#000000;stroke-linecap:round;stroke-linejoin:round;" d="M275.487,327.25c0,0,1.949-4.228,3.25-5.125c3.625-2.5,11.25-4,11.25-4s2.375,0.875,3,1.375s0.875,3.5,1.125,4.25s-0.125,2.5-0.125,2.5s2.625,3,3.125,3.75c-0.375,1.5-1.875,3.375-1.875,3.375l-1.75-3.5c0,0-6.625,2.25-7.75,2.75c-2.125,1.125-5.375,5.125-5.875,5.125S275.487,327.25,275.487,327.25z"></path><line style="fill:none;stroke:#000000;stroke-linecap:round;stroke-linejoin:round;" x1="285.538" y1="332.625" x2="289.163" y2="329"></line></g></g></g><path style="fill:#6E6E6E;stroke:#000000;stroke-linecap:round;stroke-linejoin:round;" d="M275.832,323.666c-0.5-7-1-14.333-2.166-20c0,0-2.334-13.166-3.334-18.166c-2.832-3-8-5.5-8-5.5s-5,5.833-12.332,10.5c-7.333-4.667-12.333-10.5-12.333-10.5s-5.167,2.5-8,5.5c-1,5-3.333,18.166-3.333,18.166c-1.167,5.667-1.667,13-2.167,20c-2.026,6.971-3.709,16.512-5.091,22.334c0,0,4.8,3,30.924,3s30.923-3,30.923-3C279.542,340.178,277.858,330.637,275.832,323.666z"></path><line style="fill:none;stroke:#000000;stroke-linecap:round;stroke-linejoin:round;" x1="250" y1="290.5" x2="250" y2="349"></line><g><g><line style="fill:none;stroke:#000000;stroke-linecap:round;stroke-linejoin:round;" x1="245.251" y1="294.423" x2="248.251" y2="297.724"></line></g><g><line style="fill:none;stroke:#000000;stroke-linecap:round;stroke-linejoin:round;" x1="254.748" y1="294.423" x2="251.748" y2="297.724"></line></g></g></g></g></svg>