<svg xmlns="http://www.w3.org/2000/svg" width="500" height="500" version="1.1"><g id="x231"><g><path style="fill:#FFDE00;stroke:#000000;stroke-linecap:round;stroke-linejoin:round;" d="M250,288.167c-2.808,0-5.083,2.276-5.083,5.083c0,2.808,2.276,5.084,5.083,5.084c2.807,0,5.084-2.276,5.084-5.084C255.084,290.443,252.807,288.167,250,288.167z M250,295.584c-1.289,0-2.333-1.045-2.333-2.334c0-1.288,1.045-2.333,2.333-2.333c1.289,0,2.334,1.045,2.334,2.333C252.334,294.539,251.289,295.584,250,295.584z"></path><g><g><path style="fill:#3F3F3F;stroke:#000000;stroke-linecap:round;stroke-linejoin:round;" d="M227.708,298.667c0,0-3.334,10.001-2.667,15.667c-0.667,1.166-1,3.666-1,3.666s1.333,3.667,1.333,3.167c0-0.404,16.36-19.55,22.584-27.166l-0.417-2.083C241.208,293.168,231.232,295.521,227.708,298.667z"></path><g><path style="fill:none;stroke:#000000;stroke-linecap:round;stroke-linejoin:round;" d="M225.041,314.334c0,0,3-3.333,6.167-6.5"></path><path style="fill:none;stroke:#000000;stroke-linecap:round;stroke-linejoin:round;" d="M230.875,302.584c0,0,9.333-6.667,16.666-9.5"></path></g></g><g><path style="fill:#3F3F3F;stroke:#000000;stroke-linecap:round;stroke-linejoin:round;" d="M272.291,298.667c0,0,3.334,10.001,2.668,15.667c0.666,1.166,1,3.666,1,3.666s-1.334,3.667-1.334,3.167c0-0.404-16.359-19.55-22.584-27.166l0.418-2.083C258.791,293.168,268.768,295.521,272.291,298.667z"></path><g><path style="fill:none;stroke:#000000;stroke-linecap:round;stroke-linejoin:round;" d="M274.959,314.334c0,0-3-3.333-6.168-6.5"></path><path style="fill:none;stroke:#000000;stroke-linecap:round;stroke-linejoin:round;" d="M269.125,302.584c0,0-9.334-6.667-16.666-9.5"></path></g></g></g></g></g></svg>