<svg xmlns="http://www.w3.org/2000/svg" width="500" height="500" version="1.1"><g id="x232"><g><g><g><g><path style="fill:#FFFFFF;stroke:#000000;stroke-linecap:round;stroke-linejoin:round;" d="M276.973,291c0,0,5.5,5.75,7,10c0.857,2.429,3.994,10.202,9.084,20.083c1.568,3.046,6.537,10.231,7.584,12.5c0.584,2.917,0.334,5.083,0.334,5.083L285.973,350c0,0-2.047-2.188-3.248-4.917c-2.584-5.86-5.568-15.194-6.252-17.583c-3.75-13-5.25-29-5.25-29L276.973,291z"></path><path style="fill:#E4E0F3;" d="M275.391,297.167c0,0,5.832,9.832,6,12.666c0.166,2.834-5.334,13.5-5.334,13.5L271.723,300L275.391,297.167z"></path></g><g><path style="fill:#6E6E6E;stroke:#000000;stroke-linecap:round;stroke-linejoin:round;" d="M283.723,347c0,0,3.209,8.292,4.752,8.958c0.744,0.321,15.664-8.291,16.248-8.958s-3.75-8.75-3.75-8.75L283.723,347z"></path><polygon style="fill:#FFFFFF;" points="286.016,350.584 286.932,352.376 303.182,343.792 302.348,342.042 "></polygon></g></g><g><g><path style="fill:#FFFFFF;stroke:#000000;stroke-linecap:round;stroke-linejoin:round;" d="M223.027,291c0,0-5.5,5.75-7,10c-0.857,2.429-3.994,10.202-9.084,20.083c-1.568,3.046-6.537,10.231-7.584,12.5c-0.583,2.917-0.333,5.083-0.333,5.083L214.027,350c0,0,2.047-2.188,3.249-4.917c2.583-5.86,5.568-15.194,6.251-17.583c3.75-13,5.25-29,5.25-29L223.027,291z"></path><path style="fill:#E4E0F3;" d="M224.61,297.167c0,0-5.833,9.832-6,12.666s5.333,13.5,5.333,13.5L228.277,300L224.61,297.167z"></path></g><g><path style="fill:#6E6E6E;stroke:#000000;stroke-linecap:round;stroke-linejoin:round;" d="M216.277,347c0,0-3.209,8.292-4.751,8.958c-0.744,0.321-15.665-8.291-16.249-8.958s3.75-8.75,3.75-8.75L216.277,347z"></path><polygon style="fill:#FFFFFF;" points="213.985,350.584 213.068,352.376 196.818,343.792 197.652,342.042 "></polygon></g></g></g><g><g><path style="fill:#FFFFFF;stroke:#000000;stroke-linecap:round;stroke-linejoin:round;" d="M250,289.25c-5,0-7.667,2.166-8,2.666c0,0,8,8,8,8.5c0-0.5,8-8.5,8-8.5C257.666,291.416,255,289.25,250,289.25z"></path><g><path style="fill:#FFFFFF;stroke:#000000;stroke-linecap:round;stroke-linejoin:round;" d="M270.25,292.875L250,297.698l-20.25-4.823l-9.75,33.98c0,0,6.75,1.645,30,1.645s30-1.645,30-1.645L270.25,292.875z"></path></g><g><g><g><g><path style="fill:#6E6E6E;stroke:#000000;stroke-linecap:round;stroke-linejoin:round;" d="M237.797,279.688c0,0,1.716,0.283,2.125,1c0.136,0.238-0.875,0.25-1.172,0.507c2.238,3.922,8.28,12.765,10.64,16.973c-6.518,5.333-18.226,11.083-18.226,11.083s-5.888-11.166-8.555-20.5C227.109,284.25,237.797,279.688,237.797,279.688z"></path></g><g><polygon style="fill:#FFFFFF;" points="246.664,294.313 229.373,304.062 230.088,305.744 247.508,295.781 "></polygon><polygon style="fill:#FFFFFF;" points="244.789,291.031 227.872,300.53 228.537,302.096 245.633,292.5 "></polygon></g></g><g><g><path style="fill:#6E6E6E;stroke:#000000;stroke-linecap:round;stroke-linejoin:round;" d="M262.203,279.688c0,0-1.717,0.283-2.125,1c-0.137,0.238,0.875,0.25,1.172,0.507c-2.238,3.922-8.279,12.765-10.64,16.973c6.518,5.333,18.226,11.083,18.226,11.083s5.888-11.166,8.555-20.5C272.891,284.25,262.203,279.688,262.203,279.688z"></path></g><g><polygon style="fill:#FFFFFF;" points="253.336,294.313 270.627,304.062 269.912,305.744 252.492,295.781 "></polygon><polygon style="fill:#FFFFFF;" points="255.211,291.031 272.129,300.53 271.463,302.096 254.367,292.5 "></polygon></g></g></g></g></g></g></g></g></svg>