<svg xmlns="http://www.w3.org/2000/svg" width="500" height="500" version="1.1"><g id="x234"><g><path style="fill:#6E6E6E;stroke:#000000;stroke-linecap:round;stroke-linejoin:round;" d="M295.5,318.25c0,0-12.449-22.334-14.5-25c-2.5-3.25-12-10-12-10l0.078,0.796c-0.026-0.017-0.054-0.041-0.078-0.046c-5,14-19,12.75-19,12.75S236,298,231,284c-0.025,0.005-0.052,0.024-0.077,0.035L231,283.25c0,0-7.75,4.75-12,10s-14.5,25-14.5,25c3.072,2.194,10.081,5.501,15.368,7.867c-3.581,18.211-6.47,36.086-6.118,39.133c11,3.25,29,4.5,36.25,4.5c1.244,0,2.812-0.038,4.6-0.115l2.301,3.615c0,0,25.25-2,31-4.5c-0.365-1.828-4.235-22.091-8.419-42.343C284.829,324.027,292.3,320.536,295.5,318.25z"></path><path style="fill:none;stroke:#000000;stroke-linecap:round;stroke-linejoin:round;" d="M281,295.5c0,0-1.25,9.25-4,18.25"></path><path style="fill:none;stroke:#000000;stroke-linecap:round;stroke-linejoin:round;" d="M218.5,295.5c0,0,1.25,9.25,4,18.25"></path><path style="fill:#505050;" d="M241.5,320.5c0,0,4,23.25,8.5,40.75c-0.75,1.5-6,5.25-7.25,3S241.5,320.5,241.5,320.5z"></path><g><path style="fill:none;stroke:#000000;stroke-linecap:round;stroke-linejoin:round;" d="M220.06,326.117c0,0,3.632-18.617,6.632-26.867"></path><path style="fill:none;stroke:#000000;stroke-linecap:round;stroke-linejoin:round;" d="M279.441,326.117c0,0-3.632-18.617-6.632-26.867"></path></g><path style="fill:none;stroke:#000000;stroke-linecap:round;stroke-linejoin:round;" d="M240.25,313.25c0,0,5,35.75,11.5,50.5"></path></g></g></svg>