<svg xmlns="http://www.w3.org/2000/svg" width="500" height="500" version="1.1"><g id="x235"><g><line style="fill:none;stroke:#A84A56;stroke-linecap:round;stroke-linejoin:round;" x1="250" y1="307.25" x2="250" y2="303.168"></line><path style="fill:#6E6E6E;stroke:#000000;stroke-linecap:round;stroke-linejoin:round;" d="M275.625,328.5c0,0-0.625-21-2.625-26.25c0,0-5-3.75-10-4.75c-6,2.25-13,9.418-13,9.418s-7-7.168-13-9.418c-5,1-10,4.75-10,4.75c-2,5.25-2.625,26.25-2.625,26.25s-4.125,11.625-5.875,20.25c13.5,9.375,29,24,29,24L250,373l2.5-0.25c0,0,15.5-14.625,29-24C279.75,340.125,275.625,328.5,275.625,328.5z"></path><path style="fill:#505050;" d="M250,365.5c-10,0-12.25-2.125-12.25-2.125l10.125,9L250,372.5l2.125-0.125l10.125-9C262.25,363.375,260,365.5,250,365.5z"></path><g><path style="fill:none;stroke:#000000;stroke-linecap:round;stroke-linejoin:round;" d="M236.337,298.25c0,0-1,14.125-0.875,30.375c-3.125,14-5.75,28.125-5.75,28.125"></path><path style="fill:none;stroke:#000000;stroke-linecap:round;stroke-linejoin:round;" d="M263.662,298.25c0,0,1,14.125,0.875,30.375c3.125,14,5.75,28.125,5.75,28.125"></path></g></g></g></svg>