<svg xmlns="http://www.w3.org/2000/svg" width="500" height="500" version="1.1"><g id="x237"><g><g><g><g><g id="topsXMLID_50_"><g><g><path style="fill:#6E6E6E;" d="M307.496,350.2c-3.85,4.3-12.6,8.05-19.85,8.3c-4.25-17.25-17.15-56.55-17.15-56.55l5.9-14.07c0,0,5.87,7.12,8.62,14.12S299.396,337.75,307.496,350.2z"></path></g><path style="fill:#505050;" d="M274.893,298.125c0,0,4.875,5.75,5.875,9.5s-3.25,14.125-3.25,14.125l-5.875-16.5L274.893,298.125z"></path><g style="opacity:0.5;"><path style="fill:#FFFFFF;" d="M307.496,350.2c-3.85,4.3-12.6,8.05-19.85,8.3c-4.25-17.25-17.15-56.55-17.15-56.55l5.9-14.07c0,0,5.87,7.12,8.62,14.12S299.396,337.75,307.496,350.2z"></path></g><path style="fill:none;stroke:#000000;stroke-linecap:round;stroke-linejoin:round;" d="M276.396,287.88c0,0,5.87,7.12,8.62,14.12s14.38,35.75,22.479,48.2c-3.85,4.3-12.6,8.05-19.85,8.3c-4.25-17.25-17.15-56.55-17.15-56.55L276.396,287.88z"></path></g></g></g><g><path style="fill:#F0E670;stroke:#000000;stroke-linecap:round;stroke-linejoin:round;" d="M306.893,348c0,0,1.5,1,1.25,3.5c-1.25,2.5-9.75,9-20.75,8.5c-1-2.5-0.75-4.75-0.75-4.75s4.5,2,11.75-1.25C305.133,350.979,306.893,348,306.893,348z"></path><path style="fill:#C9A670;" d="M298.268,357.625l-0.875-2c0,0-6.375,1.75-9.625,1c-0.25,0.75-0.25,2,0.125,2.625C288.893,359.5,294.018,360.125,298.268,357.625z"></path></g></g><g><g><g id="topsXMLID_60_"><g><g><path style="fill:#6E6E6E;" d="M192.504,350.2c3.85,4.3,12.6,8.05,19.85,8.3c4.25-17.25,17.15-56.55,17.15-56.55l-5.9-14.07c0,0-5.87,7.12-8.62,14.12S200.604,337.75,192.504,350.2z"></path></g><path style="fill:#505050;" d="M225.107,298.125c0,0-4.875,5.75-5.875,9.5s3.25,14.125,3.25,14.125l5.875-16.5L225.107,298.125z"></path><g style="opacity:0.5;"><path style="fill:#FFFFFF;" d="M192.504,350.2c3.85,4.3,12.6,8.05,19.85,8.3c4.25-17.25,17.15-56.55,17.15-56.55l-5.9-14.07c0,0-5.87,7.12-8.62,14.12S200.604,337.75,192.504,350.2z"></path></g><path style="fill:none;stroke:#000000;stroke-linecap:round;stroke-linejoin:round;" d="M223.604,287.88c0,0-5.87,7.12-8.62,14.12s-14.38,35.75-22.479,48.2c3.85,4.3,12.6,8.05,19.85,8.3c4.25-17.25,17.15-56.55,17.15-56.55L223.604,287.88z"></path></g></g></g><g><path style="fill:#F0E670;stroke:#000000;stroke-linecap:round;stroke-linejoin:round;" d="M193.107,348c0,0-1.5,1-1.25,3.5c1.25,2.5,9.75,9,20.75,8.5c1-2.5,0.75-4.75,0.75-4.75s-4.5,2-11.75-1.25C194.867,350.979,193.107,348,193.107,348z"></path><path style="fill:#C9A670;" d="M201.732,357.625l0.875-2c0,0,6.375,1.75,9.625,1c0.25,0.75,0.25,2-0.125,2.625C211.107,359.5,205.982,360.125,201.732,357.625z"></path></g></g></g><g><g><g><g><path style="fill:#6E6E6E;" d="M282.55,348.75c-3.35-12.87-3.64-14.63-6.479-22.75c-1.03-13.25-2.07-22.75-2.07-22.75s2.84-10.87,2.84-14.87c-3.16-3.14-7.76-5.14-11.359-6.33L264.97,281c0,0-1.92-0.11-3.22-0.01c-0.01-0.01-0.02,0-0.02,0c-0.29-0.07-0.54-0.13-0.761-0.17v-3.07l-10.97,5.5l-10.97-5.5v3.07c-0.22,0.04-0.47,0.1-0.76,0.17c0,0-0.01-0.01-0.02,0c-1.3-0.101-3.22,0.01-3.22,0.01l-0.51,1.05c-3.6,1.19-8.2,3.19-11.36,6.33c0,4,2.84,14.87,2.84,14.87s-1.04,9.5-2.07,22.75c-2.84,8.12-3.13,9.88-6.48,22.75c-1.04,2.25-3.62,10-3.62,10s3,6.08,36.17,6.08s36.17-6.08,36.17-6.08S283.59,351,282.55,348.75z"></path><path style="opacity:0.5;fill:#FFFFFF;" d="M276.844,288.375c-3.676-3.542-11.176-6.208-11.176-6.208C264.834,281,261.486,281,261.486,281l-0.652-1.833L250,282.902l-10.833-3.735L238.514,281c0,0-3.347,0-4.181,1.167c0,0-7.5,2.666-11.176,6.208c-0.343,2.542,3.176,15.625,3.176,15.625C232,297.5,250,293.167,250,293.167S268.002,297.5,273.668,304C273.668,304,277.186,290.917,276.844,288.375z"></path><g><g id="topsXMLID_56_"><g><path style="fill:none;stroke:#000000;" d="M260.97,280.82c0.221,0.04,0.471,0.1,0.761,0.17"></path><path style="fill:none;stroke:#000000;" d="M238.27,280.99c0.29-0.07,0.54-0.13,0.76-0.17"></path><path style="fill:none;stroke:#000000;" d="M265.48,282.05c3.6,1.19,8.199,3.19,11.359,6.33c0,4-2.84,14.87-2.84,14.87s1.04,9.5,2.07,22.75c2.84,8.12,3.13,9.88,6.479,22.75c1.04,2.25,3.62,10,3.62,10s-3,6.08-36.17,6.08s-36.17-6.08-36.17-6.08s2.58-7.75,3.62-10c3.35-12.87,3.64-14.63,6.48-22.75c1.03-13.25,2.07-22.75,2.07-22.75s-2.84-10.87-2.84-14.87c3.16-3.14,7.76-5.14,11.36-6.33"></path><path style="fill:none;stroke:#000000;stroke-linecap:round;stroke-linejoin:round;" d="M250,283.25l-10.97-5.5c0,0,0,2.25,0,3.07c0,0.56,0,0.93,0,0.93"></path><path style="fill:none;stroke:#000000;stroke-linecap:round;stroke-linejoin:round;" d="M243.63,285.01c-2.07-0.64-4.53-2.05-5.12-4.01c-0.08-0.01-0.15-0.01-0.24-0.01c0,0-0.01-0.01-0.02,0c-1.3-0.101-3.22,0.01-3.22,0.01l-0.51,1.05l-0.52,1.07"></path><path style="fill:none;stroke:#000000;stroke-linecap:round;stroke-linejoin:round;" d="M245.48,285.38c-0.25-0.01-0.53-0.05-0.84-0.12c-0.3-0.05-0.62-0.13-0.95-0.229"></path><line style="fill:none;stroke:#000000;stroke-linecap:round;stroke-linejoin:round;" x1="243.63" y1="285.01" x2="243.69" y2="285.03"></line><path style="fill:none;stroke:#000000;stroke-linecap:round;stroke-linejoin:round;" d="M250,288.62v-1.37v-4l10.97-5.5c0,0,0,2.25,0,3.07c0,0.56,0,0.93,0,0.93"></path><path style="fill:none;stroke:#000000;stroke-linecap:round;stroke-linejoin:round;" d="M256.37,285.01c2.07-0.64,4.53-2.05,5.12-4.01c0.08-0.01,0.149-0.01,0.24-0.01c0,0,0.01-0.01,0.02,0c1.3-0.101,3.22,0.01,3.22,0.01l0.511,1.05l0.52,1.07"></path><path style="fill:none;stroke:#000000;stroke-linecap:round;stroke-linejoin:round;" d="M254.52,285.38c0.25-0.01,0.53-0.05,0.841-0.12c0.3-0.05,0.62-0.13,0.949-0.229"></path><line style="fill:none;stroke:#000000;stroke-linecap:round;stroke-linejoin:round;" x1="256.37" y1="285.01" x2="256.31" y2="285.03"></line></g></g></g><path style="fill:#505050;" d="M223.286,332.125c0,0-0.387,11.125-0.645,11.875c-0.258,0.75-2.323,2.75-2.323,2.75C219.931,346.125,221.608,335.125,223.286,332.125z"></path><path style="fill:none;stroke:#000000;stroke-linecap:round;stroke-linejoin:round;" d="M224.061,325.125c0,0-1.032,12.125-1.162,17"></path></g></g><g><g><path style="fill:#505050;" d="M276.714,332.125c0,0,0.387,11.125,0.646,11.875c0.258,0.75,2.322,2.75,2.322,2.75C280.069,346.125,278.392,335.125,276.714,332.125z"></path><path style="fill:none;stroke:#000000;stroke-linecap:round;stroke-linejoin:round;" d="M275.939,325.125c0,0,1.032,12.125,1.161,17"></path></g></g></g><g><path style="fill:#F0E670;stroke:#000000;stroke-linecap:round;stroke-linejoin:round;" d="M250,282.902c0-1.375-9.25-5.277-13.25-6.152c0,0-0.375,1.375,0.25,2s5.125,2,10.9,4.875v8.317c-13.654,4.236-22.15,11.308-22.15,11.308s-0.583,2.083,0.25,2.917c6.14-6.14,18.757-10.663,22.247-11.834H250V282.902z"></path><path style="fill:#F0E670;stroke:#000000;stroke-linecap:round;stroke-linejoin:round;" d="M250,282.902c0-1.375,9.25-5.277,13.25-6.152c0,0,0.375,1.375-0.25,2s-5.125,2-10.9,4.875v8.317c13.654,4.236,22.15,11.308,22.15,11.308s0.582,2.083-0.25,2.917c-6.141-6.14-18.758-10.663-22.246-11.834H250V282.902z"></path></g></g></g></g></svg>