<svg xmlns="http://www.w3.org/2000/svg" width="500" height="500" version="1.1"><g id="x238"><g><g><g><g><path style="fill:#6E6E6E;stroke:#000000;stroke-linecap:round;stroke-linejoin:round;" d="M289.542,306.667c-1.599-3.864-2.666-4.5-4.666-6.834c-2.75-7-8.598-11.958-8.598-11.958l-5.9,14.078c0,0,1.235,6.146,5.164,18.714C280.06,316.735,287.049,312.208,289.542,306.667z"></path><path style="fill:#505050;" d="M274.778,298.125c0,0,4.875,5.75,5.875,9.5s-3.25,14.125-3.25,14.125l-5.875-16.5L274.778,298.125z"></path></g><g><path style="fill:#F0E670;stroke:#000000;stroke-linecap:round;stroke-linejoin:round;" d="M288.008,303.378c0,0,1.783,0.271,2.614,2.643c-0.075,2.794-5.026,12.28-15.204,16.481c-1.964-1.842-2.689-3.986-2.689-3.986s4.923-0.092,10.117-6.104C287.674,306.821,288.008,303.378,288.008,303.378z"></path><path style="fill:#C9A670;" d="M284.266,315.749l-1.639-1.442c0,0-5.035,4.283-8.298,4.979c0.091,0.786,0.62,1.918,1.225,2.326C276.565,321.414,281.473,319.813,284.266,315.749z"></path></g></g><g><g><path style="fill:#6E6E6E;stroke:#000000;stroke-linecap:round;stroke-linejoin:round;" d="M210.458,306.667c1.599-3.864,2.666-4.5,4.666-6.834c2.75-7,8.598-11.958,8.598-11.958l5.9,14.078c0,0-1.235,6.146-5.164,18.714C219.94,316.735,212.951,312.208,210.458,306.667z"></path><path style="fill:#505050;" d="M225.222,298.125c0,0-4.875,5.75-5.875,9.5s3.25,14.125,3.25,14.125l5.875-16.5L225.222,298.125z"></path></g><g><path style="fill:#F0E670;stroke:#000000;stroke-linecap:round;stroke-linejoin:round;" d="M211.992,303.378c0,0-1.783,0.271-2.614,2.643c0.075,2.794,5.026,12.28,15.204,16.481c1.964-1.842,2.689-3.986,2.689-3.986s-4.923-0.092-10.117-6.104C212.326,306.821,211.992,303.378,211.992,303.378z"></path><path style="fill:#C9A670;" d="M215.734,315.749l1.639-1.442c0,0,5.035,4.283,8.298,4.979c-0.091,0.786-0.62,1.918-1.225,2.326C223.435,321.414,218.527,319.813,215.734,315.749z"></path></g></g></g><g><g><g><g><path style="fill:#6E6E6E;stroke:#000000;stroke-linecap:round;stroke-linejoin:round;" d="M239.375,280.602c0,0-10.625,1.898-16.375,7.773c0,4,2.75,14.875,2.75,14.875s-1,9.5-2,22.75c-2.75,8.125-4,9.875-7.25,22.75c-1,2.25-3.5,10-3.5,10s16,4.25,34.25,4.75c0.5-5.5,1.75-14.75,1.75-14.75v-61.5L239.375,280.602z"></path><path style="fill:#505050;" d="M223.125,332.125c0,0-0.375,11.125-0.625,11.875s-2.25,2.75-2.25,2.75C219.875,346.125,221.5,335.125,223.125,332.125z"></path><path style="fill:#6E6E6E;stroke:#000000;stroke-linecap:round;stroke-linejoin:round;" d="M249,288.625v-5.375c0,0-4.75-5.375-10.625-5.5c0,1.75,0,4,0,4"></path><path style="fill:#6E6E6E;stroke:#000000;stroke-linecap:round;stroke-linejoin:round;" d="M244.625,285.375c-2-0.125-6-1.75-6.75-4.375c-1.25-0.125-3.375,0-3.375,0l-1,2.125"></path><path style="fill:none;stroke:#000000;stroke-linecap:round;stroke-linejoin:round;" d="M223.875,325.125c0,0-1,12.125-1.125,17"></path></g><g><path style="fill:#F0E670;stroke:#000000;stroke-linecap:round;stroke-linejoin:round;" d="M236.75,276.75c0,0-0.375,1.375,0.25,2s5.125,2,10.9,4.875c0,3.75,0,63.875,0,63.875l-1.9,14.477c0,0-20.875-0.227-32.75-4.977c-0.75,1-1,1.75-0.125,2.625s18.125,5.75,35.226,4.875c0.625-5.875,1.649-17.375,1.649-17.375s0-62.848,0-64.223S240.75,277.625,236.75,276.75z"></path><g><rect x="248.438" y="300.25" style="fill:#C9A670;" width="1" height="36.875"></rect></g><path style="fill:#C9A670;" d="M228,361.25c0,0-0.375,0.75,0,1.375s14.75,1.875,17.125,1.375c0.375-0.75,0.5-1.375,0.5-1.375S230.125,361.625,228,361.25z"></path></g></g><g><g><path style="fill:#6E6E6E;stroke:#000000;stroke-linecap:round;stroke-linejoin:round;" d="M260.625,280.602c0,0,10.625,1.898,16.375,7.773c0,4-2.75,14.875-2.75,14.875s1,9.5,2,22.75c2.75,8.125,4,9.875,7.25,22.75c1,2.25,3.5,10,3.5,10s-16,4.25-34.25,4.75c-0.5-5.5-1.75-14.75-1.75-14.75v-61.5L260.625,280.602z"></path><path style="fill:#505050;" d="M276.875,332.125c0,0,0.375,11.125,0.625,11.875s2.25,2.75,2.25,2.75C280.125,346.125,278.5,335.125,276.875,332.125z"></path><path style="fill:#6E6E6E;stroke:#000000;stroke-linecap:round;stroke-linejoin:round;" d="M251,288.625v-5.375c0,0,4.75-5.375,10.625-5.5c0,1.75,0,4,0,4"></path><path style="fill:#6E6E6E;stroke:#000000;stroke-linecap:round;stroke-linejoin:round;" d="M255.375,285.375c2-0.125,6-1.75,6.75-4.375c1.25-0.125,3.375,0,3.375,0l1,2.125"></path><path style="fill:none;stroke:#000000;stroke-linecap:round;stroke-linejoin:round;" d="M276.125,325.125c0,0,1,12.125,1.125,17"></path></g><g><path style="fill:#F0E670;stroke:#000000;stroke-linecap:round;stroke-linejoin:round;" d="M263.25,276.75c0,0,0.375,1.375-0.25,2s-5.125,2-10.9,4.875c0,3.75,0,63.875,0,63.875l1.9,14.477c0,0,20.875-0.227,32.75-4.977c0.75,1,1,1.75,0.125,2.625s-18.125,5.75-35.226,4.875c-0.625-5.875-1.649-17.375-1.649-17.375s0-62.848,0-64.223S259.25,277.625,263.25,276.75z"></path><rect x="250.563" y="300.25" style="fill:#C9A670;" width="1" height="36.875"></rect><path style="fill:#C9A670;" d="M272,361.25c0,0,0.375,0.75,0,1.375S257.25,364.5,254.875,364c-0.375-0.75-0.5-1.375-0.5-1.375S269.875,361.625,272,361.25z"></path></g></g></g><g><g><g><path style="fill:#F0E670;stroke:#000000;stroke-linecap:round;stroke-linejoin:round;" d="M242.778,285.75c0,0-0.405,1.362,0.102,1.654s4.156,1.07,7.096,0.973c0-0.875,0-1.557,0-1.557S243.691,286.432,242.778,285.75z"></path><path style="fill:#F0E670;stroke:#000000;stroke-linecap:round;stroke-linejoin:round;" d="M257.222,285.75c0,0,0.405,1.362-0.102,1.654s-4.156,1.07-7.096,0.973c0-0.875,0-1.557,0-1.557S256.31,286.432,257.222,285.75z"></path></g><ellipse style="fill:#F0E670;stroke:#000000;stroke-linecap:round;stroke-linejoin:round;" cx="250" cy="287.654" rx="1.064" ry="1.021"></ellipse></g><g><g><path style="fill:#F0E670;stroke:#000000;stroke-linecap:round;stroke-linejoin:round;" d="M242.778,300.125c0,0-0.405,1.362,0.102,1.654s4.156,1.07,7.096,0.973c0-0.875,0-1.557,0-1.557S243.691,300.807,242.778,300.125z"></path><path style="fill:#F0E670;stroke:#000000;stroke-linecap:round;stroke-linejoin:round;" d="M257.222,300.125c0,0,0.405,1.362-0.102,1.654s-4.156,1.07-7.096,0.973c0-0.875,0-1.557,0-1.557S256.31,300.807,257.222,300.125z"></path></g><ellipse style="fill:#F0E670;stroke:#000000;stroke-linecap:round;stroke-linejoin:round;" cx="250" cy="302.029" rx="1.064" ry="1.021"></ellipse></g><g><g><path style="fill:#F0E670;stroke:#000000;stroke-linecap:round;stroke-linejoin:round;" d="M242.778,314.5c0,0-0.405,1.362,0.102,1.654s4.156,1.07,7.096,0.973c0-0.875,0-1.557,0-1.557S243.691,315.182,242.778,314.5z"></path><path style="fill:#F0E670;stroke:#000000;stroke-linecap:round;stroke-linejoin:round;" d="M257.222,314.5c0,0,0.405,1.362-0.102,1.654s-4.156,1.07-7.096,0.973c0-0.875,0-1.557,0-1.557S256.31,315.182,257.222,314.5z"></path></g><ellipse style="fill:#F0E670;stroke:#000000;stroke-linecap:round;stroke-linejoin:round;" cx="250" cy="316.404" rx="1.064" ry="1.021"></ellipse></g><g><g><path style="fill:#F0E670;stroke:#000000;stroke-linecap:round;stroke-linejoin:round;" d="M242.778,328.875c0,0-0.405,1.362,0.102,1.654s4.156,1.07,7.096,0.973c0-0.875,0-1.557,0-1.557S243.691,329.557,242.778,328.875z"></path><path style="fill:#F0E670;stroke:#000000;stroke-linecap:round;stroke-linejoin:round;" d="M257.222,328.875c0,0,0.405,1.362-0.102,1.654s-4.156,1.07-7.096,0.973c0-0.875,0-1.557,0-1.557S256.31,329.557,257.222,328.875z"></path></g><ellipse style="fill:#F0E670;stroke:#000000;stroke-linecap:round;stroke-linejoin:round;" cx="250" cy="330.779" rx="1.064" ry="1.021"></ellipse></g><g><g><path style="fill:#F0E670;stroke:#000000;stroke-linecap:round;stroke-linejoin:round;" d="M242.778,343.25c0,0-0.405,1.362,0.102,1.654s4.156,1.07,7.096,0.973c0-0.875,0-1.557,0-1.557S243.691,343.932,242.778,343.25z"></path><path style="fill:#F0E670;stroke:#000000;stroke-linecap:round;stroke-linejoin:round;" d="M257.222,343.25c0,0,0.405,1.362-0.102,1.654s-4.156,1.07-7.096,0.973c0-0.875,0-1.557,0-1.557S256.31,343.932,257.222,343.25z"></path></g><ellipse style="fill:#F0E670;stroke:#000000;stroke-linecap:round;stroke-linejoin:round;" cx="250" cy="345.154" rx="1.064" ry="1.021"></ellipse></g></g></g></g></g></svg>