<svg xmlns="http://www.w3.org/2000/svg" width="500" height="500" version="1.1"><g id="x239"><g><g><g><g><g id="topsXMLID_58_"><g><path style="fill:#6E6E6E;" d="M284.88,299.83c2,2.34,3.061,2.97,4.66,6.84c-2.49,5.54-9.48,10.07-14,14c-3.93-12.57-5.16-18.72-5.16-18.72l5.9-14.07C276.28,287.88,282.13,292.83,284.88,299.83z"></path></g><path style="fill:#505050;" d="M274.778,298.125c0,0,4.875,5.75,5.875,9.5s-3.25,14.125-3.25,14.125l-5.875-16.5L274.778,298.125z"></path><g style="opacity:0.5;"><path style="fill:#FFFFFF;" d="M284.88,299.83c2,2.34,3.061,2.97,4.66,6.84c-2.49,5.54-9.48,10.07-14,14c-3.93-12.57-5.16-18.72-5.16-18.72l5.9-14.07C276.28,287.88,282.13,292.83,284.88,299.83z"></path></g><g><path style="fill:none;stroke:#000000;stroke-linecap:round;stroke-linejoin:round;" d="M289.54,306.67c-1.6-3.87-2.66-4.5-4.66-6.84c-2.75-7-8.6-11.95-8.6-11.95l-5.9,14.07c0,0,1.23,6.149,5.16,18.72C280.06,316.74,287.05,312.21,289.54,306.67z"></path></g></g></g><g><path style="fill:#F0E670;stroke:#000000;stroke-linecap:round;stroke-linejoin:round;" d="M288.008,303.378c0,0,1.783,0.271,2.614,2.643c-0.075,2.794-5.026,12.28-15.204,16.481c-1.964-1.842-2.689-3.986-2.689-3.986s4.923-0.092,10.117-6.104C287.674,306.821,288.008,303.378,288.008,303.378z"></path><path style="fill:#C9A670;" d="M284.266,315.749l-1.639-1.442c0,0-5.035,4.283-8.298,4.979c0.091,0.786,0.62,1.918,1.225,2.326C276.565,321.414,281.473,319.813,284.266,315.749z"></path></g></g><g><g><g id="topsXMLID_59_"><g><path style="fill:#6E6E6E;" d="M223.72,287.88l5.9,14.07c0,0-1.23,6.149-5.16,18.72c-4.52-3.93-11.51-8.46-14-14c1.6-3.87,2.66-4.5,4.66-6.84C217.87,292.83,223.72,287.88,223.72,287.88z"></path></g><path style="fill:#505050;" d="M225.222,298.125c0,0-4.875,5.75-5.875,9.5s3.25,14.125,3.25,14.125l5.875-16.5L225.222,298.125z"></path><g style="opacity:0.5;"><path style="fill:#FFFFFF;" d="M223.72,287.88l5.9,14.07c0,0-1.23,6.149-5.16,18.72c-4.52-3.93-11.51-8.46-14-14c1.6-3.87,2.66-4.5,4.66-6.84C217.87,292.83,223.72,287.88,223.72,287.88z"></path></g><g><path style="fill:none;stroke:#000000;stroke-linecap:round;stroke-linejoin:round;" d="M210.46,306.67c1.6-3.87,2.66-4.5,4.66-6.84c2.75-7,8.6-11.95,8.6-11.95l5.9,14.07c0,0-1.23,6.149-5.16,18.72C219.94,316.74,212.95,312.21,210.46,306.67z"></path></g></g></g><g><path style="fill:#F0E670;stroke:#000000;stroke-linecap:round;stroke-linejoin:round;" d="M211.992,303.378c0,0-1.783,0.271-2.614,2.643c0.075,2.794,5.026,12.28,15.204,16.481c1.964-1.842,2.689-3.986,2.689-3.986s-4.923-0.092-10.117-6.104C212.326,306.821,211.992,303.378,211.992,303.378z"></path><path style="fill:#C9A670;" d="M215.734,315.749l1.639-1.442c0,0,5.035,4.283,8.298,4.979c-0.091,0.786-0.62,1.918-1.225,2.326C223.435,321.414,218.527,319.813,215.734,315.749z"></path></g></g></g><g><g><g><g><path style="fill:#6E6E6E;" d="M282.55,348.75c-3.35-12.87-3.64-14.63-6.479-22.75c-1.03-13.25-2.07-22.75-2.07-22.75s2.84-10.87,2.84-14.87c-3.16-3.14-7.76-5.14-11.359-6.33L264.97,281c0,0-1.92-0.11-3.22-0.01c-0.01-0.01-0.02,0-0.02,0c-0.29-0.07-0.54-0.13-0.761-0.17v-3.07l-10.97,5.5l-10.97-5.5v3.07c-0.22,0.04-0.47,0.1-0.76,0.17c0,0-0.01-0.01-0.02,0c-1.3-0.101-3.22,0.01-3.22,0.01l-0.51,1.05c-3.6,1.19-8.2,3.19-11.36,6.33c0,4,2.84,14.87,2.84,14.87s-1.04,9.5-2.07,22.75c-2.84,8.12-3.13,9.88-6.48,22.75c-1.04,2.25-3.62,10-3.62,10s3,6.08,36.17,6.08s36.17-6.08,36.17-6.08S283.59,351,282.55,348.75z"></path><path style="opacity:0.5;fill:#FFFFFF;" d="M276.844,288.375c-3.676-3.542-11.176-6.208-11.176-6.208C264.834,281,261.486,281,261.486,281l-0.652-1.833L250,282.902l-10.833-3.735L238.514,281c0,0-3.347,0-4.181,1.167c0,0-7.5,2.666-11.176,6.208c-0.343,2.542,3.176,15.625,3.176,15.625C232,297.5,250,293.167,250,293.167S268.002,297.5,273.668,304C273.668,304,277.186,290.917,276.844,288.375z"></path><g><g id="topsXMLID_55_"><g><path style="fill:none;stroke:#000000;" d="M260.97,280.82c0.221,0.04,0.471,0.1,0.761,0.17"></path><path style="fill:none;stroke:#000000;" d="M238.27,280.99c0.29-0.07,0.54-0.13,0.76-0.17"></path><path style="fill:none;stroke:#000000;" d="M265.48,282.05c3.6,1.19,8.199,3.19,11.359,6.33c0,4-2.84,14.87-2.84,14.87s1.04,9.5,2.07,22.75c2.84,8.12,3.13,9.88,6.479,22.75c1.04,2.25,3.62,10,3.62,10s-3,6.08-36.17,6.08s-36.17-6.08-36.17-6.08s2.58-7.75,3.62-10c3.35-12.87,3.64-14.63,6.48-22.75c1.03-13.25,2.07-22.75,2.07-22.75s-2.84-10.87-2.84-14.87c3.16-3.14,7.76-5.14,11.36-6.33"></path><path style="fill:none;stroke:#000000;stroke-linecap:round;stroke-linejoin:round;" d="M250,283.25l-10.97-5.5c0,0,0,2.25,0,3.07c0,0.56,0,0.93,0,0.93"></path><path style="fill:none;stroke:#000000;stroke-linecap:round;stroke-linejoin:round;" d="M243.63,285.01c-2.07-0.64-4.53-2.05-5.12-4.01c-0.08-0.01-0.15-0.01-0.24-0.01c0,0-0.01-0.01-0.02,0c-1.3-0.101-3.22,0.01-3.22,0.01l-0.51,1.05l-0.52,1.07"></path><path style="fill:none;stroke:#000000;stroke-linecap:round;stroke-linejoin:round;" d="M245.48,285.38c-0.25-0.01-0.53-0.05-0.84-0.12c-0.3-0.05-0.62-0.13-0.95-0.229"></path><line style="fill:none;stroke:#000000;stroke-linecap:round;stroke-linejoin:round;" x1="243.63" y1="285.01" x2="243.69" y2="285.03"></line><path style="fill:none;stroke:#000000;stroke-linecap:round;stroke-linejoin:round;" d="M250,288.62v-1.37v-4l10.97-5.5c0,0,0,2.25,0,3.07c0,0.56,0,0.93,0,0.93"></path><path style="fill:none;stroke:#000000;stroke-linecap:round;stroke-linejoin:round;" d="M256.37,285.01c2.07-0.64,4.53-2.05,5.12-4.01c0.08-0.01,0.149-0.01,0.24-0.01c0,0,0.01-0.01,0.02,0c1.3-0.101,3.22,0.01,3.22,0.01l0.511,1.05l0.52,1.07"></path><path style="fill:none;stroke:#000000;stroke-linecap:round;stroke-linejoin:round;" d="M254.52,285.38c0.25-0.01,0.53-0.05,0.841-0.12c0.3-0.05,0.62-0.13,0.949-0.229"></path><line style="fill:none;stroke:#000000;stroke-linecap:round;stroke-linejoin:round;" x1="256.37" y1="285.01" x2="256.31" y2="285.03"></line></g></g></g><path style="fill:#505050;" d="M223.286,332.125c0,0-0.387,11.125-0.645,11.875c-0.258,0.75-2.323,2.75-2.323,2.75C219.931,346.125,221.608,335.125,223.286,332.125z"></path><path style="fill:none;stroke:#000000;stroke-linecap:round;stroke-linejoin:round;" d="M224.061,325.125c0,0-1.032,12.125-1.162,17"></path></g></g><g><g><path style="fill:#505050;" d="M276.714,332.125c0,0,0.387,11.125,0.646,11.875c0.258,0.75,2.322,2.75,2.322,2.75C280.069,346.125,278.392,335.125,276.714,332.125z"></path><path style="fill:none;stroke:#000000;stroke-linecap:round;stroke-linejoin:round;" d="M275.939,325.125c0,0,1.032,12.125,1.161,17"></path></g></g></g><g><path style="fill:#F0E670;stroke:#000000;stroke-linecap:round;stroke-linejoin:round;" d="M250,282.902c0-1.375-9.25-5.277-13.25-6.152c0,0-0.375,1.375,0.25,2s5.125,2,10.9,4.875v8.317c-13.654,4.236-22.15,11.308-22.15,11.308s-0.583,2.083,0.25,2.917c6.14-6.14,18.757-10.663,22.247-11.834H250V282.902z"></path><path style="fill:#F0E670;stroke:#000000;stroke-linecap:round;stroke-linejoin:round;" d="M250,282.902c0-1.375,9.25-5.277,13.25-6.152c0,0,0.375,1.375-0.25,2s-5.125,2-10.9,4.875v8.317c13.654,4.236,22.15,11.308,22.15,11.308s0.582,2.083-0.25,2.917c-6.141-6.14-18.758-10.663-22.246-11.834H250V282.902z"></path></g></g></g></g></svg>