<svg xmlns="http://www.w3.org/2000/svg" width="500" height="500" version="1.1"><g id="x024"><g><g><g><g><path style="fill:#FAFAFA;stroke:#000000;stroke-linecap:round;stroke-linejoin:round;" d="M214.561,305.5c0,0-4.232,4.5-5.899,10.583c1.75,2.583,11.816,7.584,16.899,7.584c2.583-11.166,4.167-38.667,4.167-38.667s-8.417,4.334-11.167,9.417C216.394,299,214.561,305.5,214.561,305.5z"></path><path style="fill:#6E6E6E;stroke:#000000;stroke-linecap:round;stroke-linejoin:round;" d="M208.829,315.167l-1.083,0.75c0,0-2.417,4.501-2.25,5.917s5.083,6,16.833,8.25c1.333-4.334,1.75-7.334,1.75-7.334l-0.833,0.167c0,0-11.25-2.833-13.833-6.75C209.329,315.417,208.829,315.167,208.829,315.167z"></path><path style="fill:none;stroke:#000000;stroke-linecap:round;stroke-linejoin:round;" d="M214.728,304.917c0,0-0.334,2.582-0.417,3.416"></path></g><path style="fill:#DCDCDC;" d="M226.478,295.75c0,0-3.946,5.933-4.583,9.5c-0.636,3.569,2.858,7.082,3.743,7.305c3.272-3.938,4.625-9.38,4.625-9.38L226.478,295.75z"></path><path style="fill:none;stroke:#000000;stroke-linecap:round;stroke-linejoin:round;" d="M224.441,311.997c-4.088-4.327-3.43-11.788-3.43-11.788"></path></g><g><g><path style="fill:#FAFAFA;stroke:#000000;stroke-linecap:round;stroke-linejoin:round;" d="M285.439,305.5c0,0,4.231,4.5,5.899,10.583c-1.75,2.583-11.816,7.584-16.899,7.584c-2.583-11.166-4.167-38.667-4.167-38.667s8.418,4.334,11.167,9.417C283.606,299,285.439,305.5,285.439,305.5z"></path><path style="fill:#6E6E6E;stroke:#000000;stroke-linecap:round;stroke-linejoin:round;" d="M291.171,315.167l1.084,0.75c0,0,2.417,4.501,2.25,5.917s-5.084,6-16.834,8.25c-1.333-4.334-1.75-7.334-1.75-7.334l0.834,0.167c0,0,11.25-2.833,13.833-6.75C290.671,315.417,291.171,315.167,291.171,315.167z"></path><path style="fill:none;stroke:#000000;stroke-linecap:round;stroke-linejoin:round;" d="M285.272,304.917c0,0,0.334,2.582,0.417,3.416"></path></g><path style="fill:#DCDCDC;" d="M273.522,295.75c0,0,3.946,5.933,4.584,9.5c0.635,3.569-2.858,7.082-3.744,7.305c-3.271-3.938-4.625-9.38-4.625-9.38L273.522,295.75z"></path><path style="fill:none;stroke:#000000;stroke-linecap:round;stroke-linejoin:round;" d="M275.559,311.997c4.088-4.327,3.43-11.788,3.43-11.788"></path></g></g><g><g><path style="fill:#FAFAFA;stroke:#000000;stroke-linecap:round;stroke-linejoin:round;" d="M275.832,323.666c-0.5-7-1-14.333-2.166-20c0,0-2.334-13.166-3.334-18.166c-2.832-3-8-5.5-8-5.5s-5,5.833-12.332,10.5c-7.333-4.667-12.333-10.5-12.333-10.5s-5.167,2.5-8,5.5c-1,5-3.333,18.166-3.333,18.166c-1.167,5.667-1.667,13-2.167,20c-2.026,6.971-3.709,16.512-5.091,22.334c0,0,4.8,3,30.924,3s30.923-3,30.923-3C279.542,340.178,277.858,330.637,275.832,323.666z"></path><line style="fill:none;stroke:#000000;stroke-linecap:round;stroke-linejoin:round;" x1="250" y1="290.5" x2="250" y2="349"></line><line style="fill:none;stroke:#000000;stroke-linecap:round;stroke-linejoin:round;" x1="254.748" y1="294.423" x2="251.748" y2="297.724"></line><g><line style="fill:none;stroke:#000000;stroke-linecap:round;stroke-linejoin:round;" x1="245.251" y1="294.423" x2="248.251" y2="297.724"></line></g></g></g></g></g></svg>