<svg xmlns="http://www.w3.org/2000/svg" width="500" height="500" version="1.1"><g id="x240"><g><g><g><g><g><path style="fill:#FFFFFF;stroke:#000000;stroke-linecap:round;stroke-linejoin:round;" d="M229.27,284.997c0,0-5.269,2.169-9.769,9.003c-5,10.166-10.333,25.333-10.333,25.333s-12.155,29.626-12.5,31.667c4.166,5.75,13.416,8.25,13.416,8.25s11.793-26.518,12.66-29.802c1.461-6.469,7.806-24.756,7.806-24.756L229.27,284.997z"></path><path style="fill:#E4E0F3;" d="M226.482,295.75c0,0-3.946,5.933-4.583,9.5c-0.636,3.569,2.858,7.082,3.743,7.305c3.272-3.938,4.625-9.38,4.625-9.38L226.482,295.75z"></path><path style="fill:none;stroke:#000000;stroke-linecap:round;stroke-linejoin:round;" d="M224.715,311.997c-4.088-4.327-3.43-11.788-3.43-11.788"></path></g><g><path style="fill:#FFFFFF;stroke:#000000;stroke-linecap:round;stroke-linejoin:round;" d="M270.73,284.997c0,0,5.27,2.169,9.77,9.003c5,10.166,10.332,25.333,10.332,25.333s12.156,29.626,12.5,31.667c-4.166,5.75-13.416,8.25-13.416,8.25s-11.793-26.518-12.66-29.802c-1.461-6.469-7.805-24.756-7.805-24.756L270.73,284.997z"></path><path style="fill:#E4E0F3;" d="M273.186,295.75c0,0,3.946,5.933,4.583,9.5c0.637,3.569-2.857,7.082-3.742,7.305c-3.272-3.938-4.626-9.38-4.626-9.38L273.186,295.75z"></path><path style="fill:none;stroke:#000000;stroke-linecap:round;stroke-linejoin:round;" d="M275.285,311.997c4.088-4.327,3.43-11.788,3.43-11.788"></path></g></g><g><g><path style="fill:#FFFFFF;stroke:#000000;stroke-linecap:round;stroke-linejoin:round;" d="M250,290.5c-7.333-4.667-12.333-10.5-12.333-10.5s-5.167,2.5-8,5.5c-1,5-3.333,18.166-3.333,18.166c-1.167,5.667-1.667,13-2.167,20c-2.598,8.938-4.633,17.172-6.19,24.084H250V290.5z"></path><line style="fill:none;stroke:#000000;stroke-linecap:round;stroke-linejoin:round;" x1="245.251" y1="294.423" x2="248.251" y2="297.724"></line></g><g><path style="fill:#FFFFFF;stroke:#000000;stroke-linecap:round;stroke-linejoin:round;" d="M275.832,323.666c-0.5-7-1-14.333-2.166-20c0,0-2.334-13.166-3.334-18.166c-2.832-3-8-5.5-8-5.5s-5,5.833-12.332,10.5v57.25h32.023C280.466,340.838,278.43,332.604,275.832,323.666z"></path><line style="fill:none;stroke:#000000;stroke-linecap:round;stroke-linejoin:round;" x1="254.748" y1="294.423" x2="251.748" y2="297.724"></line></g></g></g><rect x="247.833" y="289.332" style="fill:#FFFFFF;stroke:#000000;stroke-linecap:round;stroke-linejoin:round;" width="4" height="58.418"></rect></g><g><g><g><g><path style="fill:none;stroke:#000000;stroke-linecap:round;stroke-linejoin:round;" d="M222.486,360.852c0.5-2.25,6.5-19.75,6.5-19.75l0.75-7.602"></path><path style="fill:#8C8C8C;stroke:#000000;stroke-linecap:round;stroke-linejoin:round;" d="M221.486,341.25c0,0,10.25,3.75,11.25,4c1-2.75,0.75-5,0.75-5l-11-3.75L221.486,341.25z"></path></g><g id="topsXMLID_61_"><g><path style="fill:#6E6E6E;" d="M254.01,326.33v25.92c0,0-17.43,11.42-22.56,15.92c-1.71-0.5-12.13-9.34-15.21-13c0.17-2.5,5.13-15.84,5.13-15.84s3.29-29.58,3.79-32.58c0.03-0.22,0.09-0.47,0.16-0.76c0.03-3.41,0.21-17.24,1.09-18.99c0.5-1.5,11.03-6.75,11.03-6.75s-1.21,13.49-0.19,23.48L254.01,326.33z"></path></g><g style="opacity:0.3;"><path style="fill:#FFFFFF;" d="M254.01,326.33v25.92c0,0-17.43,11.42-22.56,15.92c-1.71-0.5-12.13-9.34-15.21-13c0.17-2.5,5.13-15.84,5.13-15.84s3.29-29.58,3.79-32.58c0.03-0.22,0.09-0.47,0.16-0.76c0.03-3.41,0.21-17.24,1.09-18.99c0.5-1.5,11.03-6.75,11.03-6.75s-1.21,13.49-0.19,23.48L254.01,326.33z"></path></g><g><path style="fill:none;stroke:#000000;stroke-linecap:round;stroke-linejoin:round;" d="M237.25,303.73c-1.02-9.99,0.19-23.48,0.19-23.48s-10.53,5.25-11.03,6.75c-0.88,1.75-1.06,15.58-1.09,18.99c-0.07,0.29-0.13,0.54-0.16,0.76c-0.5,3-3.79,32.58-3.79,32.58s-4.96,13.34-5.13,15.84c3.08,3.66,13.5,12.5,15.21,13c5.13-4.5,22.56-15.92,22.56-15.92v-25.92L237.25,303.73z"></path></g></g><path style="fill:#6E6E6E;stroke:#000000;stroke-linecap:round;stroke-linejoin:round;" d="M236.5,280.5c0,0-0.5,11.5,4.5,24.75c3.999,10.598,12.255,18.75,12.255,18.75s-14.984-3.268-20.255-14.75C226,294,236.5,280.5,236.5,280.5z"></path><g><path style="fill:none;stroke:#000000;stroke-linecap:round;stroke-linejoin:round;" d="M277.514,360.852c-0.5-2.25-6.5-19.75-6.5-19.75l-0.75-7.602"></path><path style="fill:#8C8C8C;stroke:#000000;stroke-linecap:round;stroke-linejoin:round;" d="M278.514,341.25c0,0-10.25,3.75-11.25,4c-1-2.75-0.75-5-0.75-5l11-3.75L278.514,341.25z"></path></g><g id="topsXMLID_57_"><g><path style="fill:#6E6E6E;" d="M278.63,339.33c0,0,4.96,13.34,5.13,15.84c-3.08,3.66-13.5,12.5-15.21,13c-5.13-4.5-22.56-15.92-22.56-15.92v-25.92l16.76-22.6c1.02-9.99-0.19-23.48-0.19-23.48s10.53,5.25,11.03,6.75c0.88,1.75,1.061,15.58,1.09,18.99c0.07,0.29,0.13,0.54,0.16,0.76C275.34,309.75,278.63,339.33,278.63,339.33z"></path></g><g style="opacity:0.3;"><path style="fill:#FFFFFF;" d="M278.63,339.33c0,0,4.96,13.34,5.13,15.84c-3.08,3.66-13.5,12.5-15.21,13c-5.13-4.5-22.56-15.92-22.56-15.92v-25.92l16.76-22.6c1.02-9.99-0.19-23.48-0.19-23.48s10.53,5.25,11.03,6.75c0.88,1.75,1.061,15.58,1.09,18.99c0.07,0.29,0.13,0.54,0.16,0.76C275.34,309.75,278.63,339.33,278.63,339.33z"></path></g><g><path style="fill:none;stroke:#000000;stroke-linecap:round;stroke-linejoin:round;" d="M278.63,339.33c0,0-3.29-29.58-3.79-32.58c-0.03-0.22-0.09-0.47-0.16-0.76c-0.029-3.41-0.21-17.24-1.09-18.99c-0.5-1.5-11.03-6.75-11.03-6.75s1.21,13.49,0.19,23.48l-16.76,22.6v25.92c0,0,17.43,11.42,22.56,15.92c1.71-0.5,12.13-9.34,15.21-13C283.59,352.67,278.63,339.33,278.63,339.33z"></path></g></g><path style="fill:#6E6E6E;stroke:#000000;stroke-linecap:round;stroke-linejoin:round;" d="M264.098,280.5c0,0,0.5,11.5-4.5,24.75c-3.999,10.598-12.255,18.75-12.255,18.75s14.984-3.268,20.255-14.75C274.598,294,264.098,280.5,264.098,280.5z"></path></g><g><circle style="fill:#323232;stroke:#000000;stroke-linecap:round;stroke-linejoin:round;" cx="249.833" cy="328.168" r="2.167"></circle><circle style="fill:#323232;stroke:#000000;stroke-linecap:round;stroke-linejoin:round;" cx="249.833" cy="337.334" r="2.167"></circle><circle style="fill:#323232;stroke:#000000;stroke-linecap:round;stroke-linejoin:round;" cx="249.833" cy="346.5" r="2.167"></circle></g></g></g></g></g></svg>