<svg xmlns="http://www.w3.org/2000/svg" width="500" height="500" version="1.1"><g id="x9226"><g><line style="fill:#FEFBF6;stroke:#A84A56;stroke-linecap:round;stroke-linejoin:round;" x1="250" y1="300.167" x2="250" y2="311.896"></line><g><path style="fill:#FEFBF6;stroke:#A84A56;stroke-linecap:round;stroke-linejoin:round;" d="M250.004,311.646c0,0-0.125,3.208-1.396,4.146"></path><path style="fill:#FEFBF6;stroke:#A84A56;stroke-linecap:round;stroke-linejoin:round;" d="M249.996,311.646c0,0,0.125,3.208,1.397,4.146"></path></g><g><g><g><g><g><path style="fill:#6E6E6E;stroke:#000000;stroke-linecap:round;stroke-linejoin:round;" d="M273.756,300.875c0,0,2,7.875,0.375,15.25c-7.625,1.625-23.75,0.375-23.75,0.375L273.756,300.875z"></path><path style="fill:#505050;" d="M273.473,317.667c0-0.333,1.251-6.167,0.167-7.917s-11.75,0.418-14.5,2.084s-5.167,7.166-4.834,6.833C254.64,318.334,273.473,317.667,273.473,317.667z"></path><g><path style="fill:none;stroke:#000000;stroke-linecap:round;stroke-linejoin:round;" d="M271.84,306.118c0,0,0.416,5.667-0.75,8.417"></path><path style="fill:none;stroke:#000000;stroke-linecap:round;stroke-linejoin:round;" d="M268.09,308.868c0,0,0,3.833-0.834,6"></path><path style="fill:none;stroke:#000000;stroke-linecap:round;stroke-linejoin:round;" d="M263.256,312.118c0,0,0,1.833-0.416,3"></path><path style="fill:none;stroke:#000000;stroke-linecap:round;stroke-linejoin:round;" d="M259.09,313.368c0,0-0.168,1.916-0.418,2.75"></path></g></g><path style="fill:#9B8490;stroke:#000000;stroke-linecap:round;stroke-linejoin:round;" d="M265.256,282.297c0,0,1.875,4.703,3.375,9.703c5.375,7,5.875,12.084,5.875,12.084s-6.75,6.291-21.625,12.541l-3.025,0.125c0,0,15.15-12.625,14.9-21.375c-0.195-6.821-3.875-14.625-3.875-14.625L265.256,282.297z"></path></g><g><g><path style="fill:#6E6E6E;stroke:#000000;stroke-linecap:round;stroke-linejoin:round;" d="M226.244,300.875c0,0-2,7.875-0.375,15.25c7.625,1.625,23.75,0.375,23.75,0.375L226.244,300.875z"></path><g><path style="fill:#505050;" d="M226.531,317.667c0-0.333-1.25-6.167-0.167-7.917s11.75,0.418,14.5,2.084s5.167,7.166,4.833,6.833S226.531,317.667,226.531,317.667z"></path></g><g><path style="fill:none;stroke:#000000;stroke-linecap:round;stroke-linejoin:round;" d="M228.161,306.118c0,0-0.417,5.667,0.75,8.417"></path><path style="fill:none;stroke:#000000;stroke-linecap:round;stroke-linejoin:round;" d="M231.911,308.868c0,0,0,3.833,0.833,6"></path><path style="fill:none;stroke:#000000;stroke-linecap:round;stroke-linejoin:round;" d="M236.744,312.118c0,0,0,1.833,0.417,3"></path><path style="fill:none;stroke:#000000;stroke-linecap:round;stroke-linejoin:round;" d="M240.911,313.368c0,0,0.167,1.916,0.417,2.75"></path></g></g><path style="fill:#9B8490;stroke:#000000;stroke-linecap:round;stroke-linejoin:round;" d="M234.744,282.297c0,0-1.875,4.703-3.375,9.703c-5.375,7-5.875,12.084-5.875,12.084s6.75,6.291,21.625,12.541l3.025,0.125c0,0-15.15-12.625-14.9-21.375c0.195-6.821,3.875-14.625,3.875-14.625L234.744,282.297z"></path></g></g><g><g><path style="fill:#6E6E6E;stroke:#000000;stroke-linecap:round;stroke-linejoin:round;" d="M274.381,320.75l0.375,3c0,0,2.625,3.375,2.75,4.125c-1.625,2.25-14,7.25-20.375,9.625c-7.625-5-15.75-15-15.375-15S274.381,320.75,274.381,320.75z"></path><path style="fill:#505050;" d="M258.667,323.166c0,0-3.667,7.5-5.917,10.5c-2.5-2.166-3.5-3.333-3.5-3.333S258.75,323.166,258.667,323.166z"></path><path style="fill:none;stroke:#000000;stroke-linecap:round;stroke-linejoin:round;" d="M271.84,321.334l0.332,3.083c0,0,2,3.583,2.168,4.167"></path><polyline style="fill:none;stroke:#000000;stroke-linecap:round;stroke-linejoin:round;" points="267.506,321.667 267.84,325.084 270.172,330.501 "></polyline><polyline style="fill:none;stroke:#000000;stroke-linecap:round;stroke-linejoin:round;" points="263.422,322.167 263.756,325.751 266.09,332.334 "></polyline><line style="fill:none;stroke:#000000;stroke-linecap:round;stroke-linejoin:round;" x1="259.006" y1="321.917" x2="261.34" y2="334.084"></line><path style="fill:none;stroke:#000000;stroke-linecap:round;stroke-linejoin:round;" d="M254.422,322.501c0.084,0.416,2.084,11.916,2.084,11.916"></path><line style="fill:none;stroke:#000000;stroke-linecap:round;stroke-linejoin:round;" x1="250.422" y1="322.667" x2="251.672" y2="331.667"></line><line style="fill:none;stroke:#000000;stroke-linecap:round;stroke-linejoin:round;" x1="245.923" y1="322.667" x2="247.339" y2="329.001"></line></g><g><path style="fill:#6E6E6E;stroke:#000000;stroke-linecap:round;stroke-linejoin:round;" d="M225.619,320.75l-0.375,3c0,0-2.625,3.375-2.75,4.125c1.625,2.25,14,7.25,20.375,9.625c7.625-5,15.75-15,15.375-15S225.619,320.75,225.619,320.75z"></path><path style="fill:#505050;" d="M227.083,321.333c0,0,15.583,5.75,28.417,3.5c1.75-0.917,2.334-2.833,2.334-2.833L227.083,321.333z"></path><path style="fill:none;stroke:#000000;stroke-linecap:round;stroke-linejoin:round;" d="M228.161,321.334l-0.333,3.083c0,0-2,3.583-2.167,4.167"></path><polyline style="fill:none;stroke:#000000;stroke-linecap:round;stroke-linejoin:round;" points="232.494,321.667 232.161,325.084 229.828,330.501 "></polyline><polyline style="fill:none;stroke:#000000;stroke-linecap:round;stroke-linejoin:round;" points="236.578,322.167 236.244,325.751 233.911,332.334 "></polyline><line style="fill:none;stroke:#000000;stroke-linecap:round;stroke-linejoin:round;" x1="240.994" y1="321.917" x2="238.661" y2="334.084"></line><path style="fill:none;stroke:#000000;stroke-linecap:round;stroke-linejoin:round;" d="M245.578,322.501c-0.083,0.416-2.083,11.916-2.083,11.916"></path><line style="fill:none;stroke:#000000;stroke-linecap:round;stroke-linejoin:round;" x1="249.578" y1="322.667" x2="248.328" y2="331.667"></line><line style="fill:none;stroke:#000000;stroke-linecap:round;stroke-linejoin:round;" x1="254.077" y1="322.667" x2="252.661" y2="329.001"></line></g></g><g><path style="fill:#302337;stroke:#000000;stroke-linecap:round;stroke-linejoin:round;" d="M274.5,315.5c-0.125-0.375-14.584,0.977-24.5,0.977c-9.917,0-24.375-1.352-24.5-0.977c-0.163,0.489-0.875,4.125,0,5.75c3.125,0.5,12.666,1.352,24.5,1.352s21.375-0.852,24.5-1.352C275.375,319.625,274.663,315.989,274.5,315.5z"></path><g><path style="fill:#D4D3D3;stroke:#000000;stroke-linecap:round;stroke-linejoin:round;" d="M254.539,316.117h-9.078c-0.917,0-1.659,0.832-1.659,1.859v5.061c0,1.027,0.743,1.859,1.659,1.859h9.078c0.916,0,1.659-0.832,1.659-1.859v-5.061C256.198,316.949,255.455,316.117,254.539,316.117z M254.413,322.239c0,0.603-0.528,1.092-1.181,1.092h-6.465c-0.652,0-1.181-0.489-1.181-1.092v-2.972c0-0.604,0.529-1.092,1.181-1.092h6.465c0.652,0,1.181,0.488,1.181,1.092V322.239z"></path><path style="fill:#D4D3D3;stroke:#000000;stroke-linecap:round;stroke-linejoin:round;" d="M250.387,320.119c0,0-0.31,1.085,0.194,1.395c0.542,0.349,3.68,0.427,4.3,0.155c0.349-0.736,0-1.472,0-1.472L250.387,320.119z"></path></g><g><g><path style="fill:#D4D3D3;stroke:#000000;stroke-linecap:round;stroke-linejoin:round;" d="M234.167,315.804c-0.333,0.25-0.55,5.667-0.134,6.167s2.384,0,2.384,0s0.25-5.667,0-5.917S234.5,315.554,234.167,315.804z"></path></g><g><path style="fill:#D4D3D3;stroke:#000000;stroke-linecap:round;stroke-linejoin:round;" d="M265.833,315.804c0.333,0.25,0.55,5.667,0.134,6.167s-2.384,0-2.384,0s-0.25-5.667,0-5.917S265.5,315.554,265.833,315.804z"></path></g></g></g></g><g><g><path style="fill:#302337;stroke:#000000;stroke-linecap:round;stroke-linejoin:round;" d="M278.512,353.001c0-0.667-5.25-16.334-5.667-16.667s-2.333,0.333-2.333,0.333l6.25,17.5L278.512,353.001z"></path><path style="fill:#D4D3D3;stroke:#000000;stroke-linecap:round;stroke-linejoin:round;" d="M272.346,337.668c0.833-0.166,0.082-7.916-0.668-8.5s-3.916,0.25-4.582,1.333C266.428,331.584,271.512,337.834,272.346,337.668z"></path></g><g><path style="fill:#302337;stroke:#000000;stroke-linecap:round;stroke-linejoin:round;" d="M221,353.001c0-0.667,5.25-16.334,5.667-16.667s2.333,0.333,2.333,0.333l-6.25,17.5L221,353.001z"></path><path style="fill:#D4D3D3;stroke:#000000;stroke-linecap:round;stroke-linejoin:round;" d="M227.167,337.668c-0.833-0.166-0.083-7.916,0.667-8.5s3.916,0.25,4.583,1.333S228,337.834,227.167,337.668z"></path></g></g></g></g></g></svg>