<svg xmlns="http://www.w3.org/2000/svg" width="500" height="500" version="1.1"><g id="x9227"><g><polygon style="fill:#E4E0F3;stroke:#000000;stroke-linecap:round;stroke-linejoin:round;" points="241.75,299.146 255.5,299.646 247,311.646 "></polygon><polygon style="fill:#FFFFFF;stroke:#000000;stroke-linecap:round;stroke-linejoin:round;" points="250,354.604 212.75,358.678 238.539,380.332 250,367.432 261.462,380.332 287.25,358.678 "></polygon><path style="fill:#E4E0F3;" d="M250,354.755c-3.666,3.002-18.51,14.666-18.51,14.666l7.404,3.834L250,362.766l11.106,10.489l7.403-3.834C268.51,369.421,253.666,357.757,250,354.755z"></path><g><path style="fill:#6E6E6E;stroke:#000000;stroke-linecap:round;stroke-linejoin:round;" d="M275,325l-25-1.5l-25,1.5c0,0-2,5.5-2,9c12.5,0,27,0,27,0s14.5,0,27,0C277,330.5,275,325,275,325z"></path><g><path style="fill:#5F5858;stroke:#000000;stroke-linecap:round;stroke-linejoin:round;" d="M222.517,332.198c0,0-2.813,3.225-3.165,3.648C219,336.272,220,338.647,220,338.647s-9.5,16.976-8.5,20.03c7.5,6.111,24.5,12.901,24.5,12.901l19.5-19.69L248,330.5L222.517,332.198z"></path><g><path style="fill:#343030;" d="M217.333,347.834c0,0,14.334,7.666,16.167,7.166s6-4.333,6-4.333l-2.333-2.833H217.333z"></path></g><polygon style="fill:#343030;" points="225.167,333.167 244.5,362.667 250,357.333 "></polygon><path style="fill:#5F5858;stroke:#000000;stroke-linecap:round;stroke-linejoin:round;" d="M277.909,332.198c0,0,2.813,3.225,3.165,3.648c0.352,0.426-0.648,2.801-0.648,2.801s9.5,16.976,8.5,20.03c-7.5,6.111-24.5,12.901-24.5,12.901L227,331.875l25.426-1.375L277.909,332.198z"></path><path style="fill:#343030;" d="M282.667,347.834c0,0-14.334,7.666-16.168,7.166c-1.832-0.5-6-4.333-6-4.333l2.334-2.833H282.667z"></path><path style="fill:#343030;" d="M234.667,323c0,0,7.334,13.167,18.333,22c4.667-4,15.001-15.5,18.667-27.5C251.667,319.333,234.667,323,234.667,323z"></path><polygon style="fill:#6E6E6E;stroke:#000000;stroke-linecap:round;stroke-linejoin:round;" points="240.833,331.501 236.667,336.834 239.667,342.834 243.833,337.668 "></polygon><polygon style="fill:#6E6E6E;stroke:#000000;stroke-linecap:round;stroke-linejoin:round;" points="227.75,332.125 267.5,370.801 264.25,372.375 224,332.25 "></polygon></g><g><g><path style="fill:#5F5858;stroke:#000000;stroke-linecap:round;stroke-linejoin:round;" d="M280.221,338.417l1.5,0.625c0,0,2.625,5.25,2.375,6.625s-1.125,2.125-1.125,2.125s-13.5,4.25-16.375,4.375c-2.625-1-5.375-3.375-5.375-3.375l3.375-5.25c0,0,13.375-3,15.25-4.125C280.096,338.792,280.221,338.417,280.221,338.417z"></path><polygon style="fill:#6E6E6E;stroke:#000000;stroke-linecap:round;stroke-linejoin:round;" points="267.971,343.292 264.471,348.417 269.721,351.417 273.096,346.167 "></polygon></g><g><path style="fill:#5F5858;stroke:#000000;stroke-linecap:round;stroke-linejoin:round;" d="M219.78,338.417l-1.5,0.625c0,0-2.625,5.25-2.375,6.625s1.125,2.125,1.125,2.125s13.5,4.25,16.375,4.375c2.625-1,5.375-3.375,5.375-3.375l-3.375-5.25c0,0-13.375-3-15.25-4.125C219.905,338.792,219.78,338.417,219.78,338.417z"></path><polygon style="fill:#6E6E6E;stroke:#000000;stroke-linecap:round;stroke-linejoin:round;" points="232.03,343.292 235.53,348.417 230.28,351.417 226.905,346.167 "></polygon></g></g></g><g><path style="fill:#5F5858;stroke:#000000;stroke-linecap:round;stroke-linejoin:round;" d="M275.25,318.5c0,0-1-10.5-1-11.75s-1.75-7.5-1.75-7.5L250,309l-22.5-9.75c0,0-1.75,6.25-1.75,7.5s-1,11.75-1,11.75s-3,4-2.75,4.75s2.5,3.5,3.25,4.25c0,0,11.75-1,24.75-1s24.75,1,24.75,1c0.75-0.75,3-3.5,3.25-4.25S275.25,318.5,275.25,318.5z"></path><polygon style="fill:#343030;" points="227.667,326.5 234.5,321.334 238.833,327 "></polygon><polygon style="fill:#343030;" points="272.834,301.666 261.667,313.5 257.334,305.666 "></polygon><polygon style="fill:#343030;" points="227.833,301.666 241.667,316 246.833,310.333 "></polygon><g><path style="fill:#5F5858;stroke:#000000;stroke-linecap:round;stroke-linejoin:round;" d="M225.667,306.417c0,0-1,5.166-0.417,10.083c5.333,1.417,11.333-0.25,11.333-0.25l-0.083-10.333C236.5,305.917,229.5,304.667,225.667,306.417z"></path><circle style="fill:#6E6E6E;stroke:#000000;stroke-linecap:round;stroke-linejoin:round;" cx="230.216" cy="308.75" r="1.25"></circle><path style="fill:none;stroke:#000000;stroke-linecap:round;stroke-linejoin:round;" d="M225.583,309.667c0,0,2.25,1,4.5,1.75c3.083-0.917,6.417-2.167,6.417-2.167"></path></g></g><g><g><g id="topsXMLID_75_"><g><path style="fill:#5F5858;" d="M235.492,325.88c0,0-0.25,6.37-0.12,8.12c-2.25-0.12-2.88,0.38-2.88,0.38s-0.47-4.38,0.25-7.88L235.492,325.88z"></path></g><g><path style="fill:none;stroke:#000000;stroke-linecap:round;stroke-linejoin:round;" d="M232.492,334.38c0,0-0.47-4.38,0.25-7.88"></path><path style="fill:none;stroke:#000000;stroke-linecap:round;stroke-linejoin:round;" d="M235.492,325.88c0,0-0.25,6.37-0.12,8.12"></path></g></g></g><g><g id="topsXMLID_74_"><g><path style="fill:#5F5858;" d="M264.508,325.88c0,0,0.25,6.37,0.12,8.12c2.25-0.12,2.88,0.38,2.88,0.38s0.471-4.38-0.25-7.88L264.508,325.88z"></path></g><g><path style="fill:none;stroke:#000000;stroke-linecap:round;stroke-linejoin:round;" d="M267.508,334.38c0,0,0.471-4.38-0.25-7.88"></path><path style="fill:none;stroke:#000000;stroke-linecap:round;stroke-linejoin:round;" d="M264.508,325.88c0,0,0.25,6.37,0.12,8.12"></path></g></g></g></g><g><g><path style="fill:#6E6E6E;stroke:#000000;stroke-linecap:round;stroke-linejoin:round;" d="M240.375,294.75c0,0,9.25,10.5,11,15.5c-1.25,1.5-2.75,3.5-2.75,3.5s-26.5-17-36-20.25c8.25-10,14.25-14,27.75-15.5c0,1.5,0,2.25,0,2.25l-5.25,2.75L240.375,294.75z"></path><path style="fill:#505050;" d="M229.75,296.5l16.5,6.167l-7.5-12.5C238.75,290.167,230.583,293,229.75,296.5z"></path><path style="fill:none;stroke:#000000;stroke-linecap:round;stroke-linejoin:round;" d="M245.125,308.25l-25.75-16.75c0,0,4.75-6.5,15-9.75"></path></g><g><path style="fill:#6E6E6E;stroke:#000000;stroke-linecap:round;stroke-linejoin:round;" d="M259.625,294.75c0,0-9.25,10.5-11,15.5c1.25,1.5,2.75,3.5,2.75,3.5s26.5-17,36-20.25c-8.25-10-14.25-14-27.75-15.5c0,1.5,0,2.25,0,2.25l5.25,2.75L259.625,294.75z"></path><g><path style="fill:#505050;" d="M270.25,296.5l-16.5,6.167l7.5-12.5C261.25,290.167,269.416,293,270.25,296.5z"></path></g><path style="fill:none;stroke:#000000;stroke-linecap:round;stroke-linejoin:round;" d="M254.875,308.25l25.75-16.75c0,0-4.75-6.5-15-9.75"></path></g></g><g><g><path style="fill:#FFFFFF;stroke:#000000;stroke-linecap:round;stroke-linejoin:round;" d="M261.009,282.75c-0.834,8-12.249,17.451-12.249,17.451s11.832-1.201,15.915-2.284c-0.916-1.916-4-6-4-6c4.834,0.583,10.667,5,10.667,5s-3.917-13.917-4.833-14.75c-0.917-0.833-7.25-2.167-7.25-2.167S260.925,282.167,261.009,282.75z"></path></g><g><path style="fill:#FFFFFF;stroke:#000000;stroke-linecap:round;stroke-linejoin:round;" d="M238.991,282.75c0.834,8,12.25,17.75,12.25,17.75s-11.833-1.5-15.916-2.583c0.916-1.916,4-6,4-6c-4.834,0.583-10.667,5-10.667,5s3.917-13.917,4.833-14.75c0.917-0.833,7.25-2.167,7.25-2.167S239.075,282.167,238.991,282.75z"></path></g></g><g><path style="fill:#6E6E6E;stroke:#000000;stroke-linecap:round;stroke-linejoin:round;" d="M255.75,299.5L249,306c0,0-18.25,12.5-19,13s-2.25,6-3,7.5c1.5-1.75,6.25-4.5,6.25-4.5s11.25,12.5,18.25,18.75c12.75-7.5,24.75-30.25,24.75-30.25S269,303.5,255.75,299.5z"></path><polygon style="fill:#5F5858;" points="248.833,331.833 256.834,331.166 251.75,335.5 "></polygon><path style="fill:none;stroke:#000000;stroke-linecap:round;stroke-linejoin:round;" d="M234,317c0,0,14.75,15,17.75,18.5C259,331,272,310.9,273,308.4"></path><line style="fill:none;stroke:#000000;stroke-linecap:round;stroke-linejoin:round;" x1="248.649" y1="332" x2="256.5" y2="331.25"></line><path style="opacity:0.5;fill:#FFFFFF;" d="M257.084,304.417c-5.822,1.314-12.167,5.083-12.167,5.083s2.257-1.327,4.75-3.417c2.302-1.931,5.133-4.232,6.333-5.833c3.166,1,9.083,3.333,10.25,4.333C262.667,304.083,260.89,303.559,257.084,304.417z"></path></g></g></g></svg>