<svg xmlns="http://www.w3.org/2000/svg" width="500" height="500" version="1.1"><g id="x9228"><g><g><g><g><path style="fill:#6E6E6E;stroke:#000000;stroke-linecap:round;stroke-linejoin:round;" d="M220.833,339.25c0,0-5,15.75-5,23c0,8.004,2.25,20.084,2.25,20.084S221.75,379,225.75,375c-1-2.5-2.917-9.25-2.917-9.25s18.5-9,27-12.5C236.833,349.25,220.833,339.25,220.833,339.25z"></path><path style="fill:none;stroke:#000000;stroke-linecap:round;stroke-linejoin:round;" d="M222.833,365.75c-0.5-1.75-1.417-5.75-1.417-5.75l21.167-9.5"></path></g><g><path style="fill:#6E6E6E;stroke:#000000;stroke-linecap:round;stroke-linejoin:round;" d="M279.167,339.25c0,0,5,15.75,5,23c0,8.004-2.25,20.084-2.25,20.084S278.251,379,274.251,375c1-2.5,2.916-9.25,2.916-9.25s-18.5-9-27-12.5C263.167,349.25,279.167,339.25,279.167,339.25z"></path><path style="fill:none;stroke:#000000;stroke-linecap:round;stroke-linejoin:round;" d="M277.167,365.75c0.5-1.75,1.417-5.75,1.417-5.75l-21.167-9.5"></path></g></g><g><g><g><path style="fill:#6E6E6E;stroke:#000000;stroke-linecap:round;stroke-linejoin:round;" d="M239.09,333.301c0.924-3.07,1.647-9.873,1.647-9.873c-2.12-1.556-12.271-3.499-15.015-0.195c-0.925,1.925-1.817,6.765-2.559,8.941c-0.58,1.706-1.101,3.354-1.567,4.917l13.935,7.265C236.723,341.153,237.891,337.486,239.09,333.301z"></path><path style="fill:none;stroke:#000000;stroke-linecap:round;stroke-linejoin:round;" d="M231.583,324c0,0-1.25,8.5-2,10.75c-0.281,0.843-1.054,3.371-1.91,6.203"></path></g><g><path style="fill:#6E6E6E;stroke:#000000;stroke-linecap:round;stroke-linejoin:round;" d="M276.837,332.174c-0.742-2.177-1.634-7.017-2.559-8.941c-2.745-3.304-12.896-1.36-15.016,0.195c0,0,0.724,6.803,1.647,9.873c1.406,4.907,2.77,9.113,4.176,12.669l13.518-8.198C278.088,336.01,277.502,334.131,276.837,332.174z"></path><path style="fill:none;stroke:#000000;stroke-linecap:round;stroke-linejoin:round;" d="M268.417,324c0,0,1.25,8.5,2,10.75c0.277,0.832,1.033,3.306,1.876,6.093"></path></g></g><polygon style="fill:#6E6E6E;stroke:#000000;stroke-linecap:round;stroke-linejoin:round;" points="278.234,333.551 250,349.25 221.766,333.551 219.833,339.833 250,355.167 280.166,339.833 "></polygon></g></g><g><g><path style="fill:#6E6E6E;stroke:#000000;stroke-linecap:round;stroke-linejoin:round;" d="M274.343,316.5l-24.343,4l-24.343-4c0,0-0.482,3.25,0.241,7c2.41,2.75,24.102,3,24.102,3s21.691-0.25,24.102-3C274.824,319.75,274.343,316.5,274.343,316.5z"></path><path style="fill:#6E6E6E;stroke:#000000;stroke-linecap:round;stroke-linejoin:round;" d="M274,306c-0.5-2.25-11.75-18.5-11.75-18.5l-3.25-5.256v-4.494c0,0-5.5,0.951-9,0.951s-9-0.951-9-0.951v4.494l-3.25,5.256c0,0-11.25,16.25-11.75,18.5s-1,9,0,11.75c4.25,3.25,24,2.75,24,2.75s19.75,0.5,24-2.75C275,315,274.5,308.25,274,306z"></path><line style="fill:none;stroke:#000000;stroke-linecap:round;stroke-linejoin:round;" x1="250" y1="278.701" x2="250" y2="320.5"></line><g><g><polyline style="fill:none;stroke:#000000;stroke-linecap:round;stroke-linejoin:round;" points="255.5,278.833 256.5,287 257.834,304.333 257.666,320 "></polyline><path style="fill:none;stroke:#000000;stroke-linecap:round;stroke-linejoin:round;" d="M270.166,299.833c0,0,1.668,5.166,1.668,7.833S271.666,317,271,318.333"></path><path style="fill:none;stroke:#000000;stroke-linecap:round;stroke-linejoin:round;" d="M263.834,290c0,0.5,1.666,15.332,1.666,17.166s-0.166,12.167-0.166,12.167"></path></g><g><polyline style="fill:none;stroke:#000000;stroke-linecap:round;stroke-linejoin:round;" points="244.5,278.833 243.5,287 242.167,304.333 242.333,320 "></polyline><path style="fill:none;stroke:#000000;stroke-linecap:round;stroke-linejoin:round;" d="M229.833,299.833c0,0-1.667,5.166-1.667,7.833S228.334,317,229,318.333"></path><path style="fill:none;stroke:#000000;stroke-linecap:round;stroke-linejoin:round;" d="M236.167,290c0,0.5-1.666,15.332-1.666,17.166s0.166,12.167,0.166,12.167"></path></g></g></g><g><path style="fill:#E6E3EB;stroke:#000000;stroke-linecap:round;stroke-linejoin:round;" d="M237.875,320c0,0-1.75,6.75-3.75,7.75c-2.25-0.75-2.25-2-2.25-2s-3-0.75-4-0.25c-1.25,1.5-1.75,3.5-1.75,3.5l-1.5,0.25c0,0-1-6.75,1-12.75C230.625,319.25,237.875,320,237.875,320z"></path><path style="fill:#E6E3EB;stroke:#000000;stroke-linecap:round;stroke-linejoin:round;" d="M262.125,320c0,0,1.75,6.75,3.75,7.75c2.25-0.75,2.25-2,2.25-2s3-0.75,4-0.25c1.25,1.5,1.75,3.5,1.75,3.5l1.5,0.25c0,0,1-6.75-1-12.75C269.375,319.25,262.125,320,262.125,320z"></path></g></g></g></g></svg>