<svg xmlns="http://www.w3.org/2000/svg" width="500" height="500" version="1.1"><g id="x9229"><g><g><g><g><g><path style="fill:#FFFFFF;stroke:#000000;stroke-linecap:round;stroke-linejoin:round;" d="M219.677,285.424c0,0-5.841,3.702-9.829,7.933c-2.278,6.346-1.608,12.903-1.608,12.903l-3.022,2.203c0.647,7.213,12.038,10.342,16.026,10.869c2.279-13.748,5.128-29.678,5.128-29.678L219.677,285.424z"></path><path style="fill:#FFFFFF;stroke:#000000;stroke-linecap:round;stroke-linejoin:round;" d="M225.443,320.649c0,0-18.45-8.134-21.737-11.184c0,5.083-0.34,5.822-0.34,5.822s-2.191,4.066-2.738,5.592c2.19,3.051,12.087,9.221,22.077,10.446C227.087,326.75,225.443,320.649,225.443,320.649z"></path></g></g><g><g><path style="fill:#FFFFFF;stroke:#000000;stroke-linecap:round;stroke-linejoin:round;" d="M280.323,285.424c0,0,5.841,3.702,9.829,7.933c2.277,6.346,1.608,12.903,1.608,12.903l3.022,2.203c-0.648,7.213-12.038,10.342-16.026,10.869c-2.28-13.748-5.128-29.678-5.128-29.678L280.323,285.424z"></path><path style="fill:#E4E0F3;" d="M291.4,301.833c0,0-0.066,4.166-0.066,4.833c1.166,0.667,2.833,1.834,2.833,1.834s-6,0.666-6-0.167S291.4,301.833,291.4,301.833z"></path><g><path style="fill:#FFFFFF;stroke:#000000;stroke-linecap:round;stroke-linejoin:round;" d="M274.557,320.649c0,0,18.45-8.134,21.737-11.184c0,5.083,0.339,5.822,0.339,5.822s2.191,4.066,2.739,5.592c-2.19,3.051-12.087,9.221-22.077,10.446C272.913,326.75,274.557,320.649,274.557,320.649z"></path><path style="fill:#E4E0F3;" d="M289,314.5c0,0-0.499,5.834-0.166,6.5s3.166,4.833,3.166,4.833s-7.499,3.833-11.666,4.833c0.5-8.666,2-12.5,2-12.5L289,314.5z"></path></g></g></g></g><g><g><polygon style="fill:#FFFFFF;stroke:#000000;stroke-linecap:round;stroke-linejoin:round;" points="260.017,283.001 250.017,287.001 240.017,283.001 229.017,285.334 250.017,309.334 271.017,285.334 "></polygon><polygon style="fill:#E4E0F3;" points="238.684,299.001 249.35,293.668 261.017,298.668 250.017,286.668 "></polygon><line style="fill:none;stroke:#000000;stroke-linecap:round;stroke-linejoin:round;" x1="250.017" y1="289.334" x2="250.017" y2="308.668"></line></g><g><path style="fill:#FFFFFF;stroke:#000000;stroke-linecap:round;stroke-linejoin:round;" d="M250.017,286l-10.667,12.668l-8.667-13.667c3-1.667,6-5.333,6-5.333L250.017,286z"></path><path style="fill:#FFFFFF;stroke:#000000;stroke-linecap:round;stroke-linejoin:round;" d="M250.35,286l10.667,12.668l8.666-13.667c-3-1.667-6-5.333-6-5.333L250.35,286z"></path></g></g><g><path style="fill:#FFFFFF;stroke:#000000;stroke-linecap:round;stroke-linejoin:round;" d="M276.5,331h-53c0,0-7,12-7,19c7,5.5,33.5,9,33.5,9s26.5-3.5,33.5-9C283.5,343,276.5,331,276.5,331z"></path><polygon style="fill:#E4E0F3;" points="250,339.333 219.834,340.091 229.667,354.334 250,347.213 270.334,354.334 280.166,340.09 "></polygon><g><line style="fill:none;stroke:#000000;stroke-linecap:round;stroke-linejoin:round;" x1="247.5" y1="342.5" x2="247.5" y2="358"></line><line style="fill:none;stroke:#000000;stroke-linecap:round;stroke-linejoin:round;" x1="252.5" y1="342.5" x2="252.5" y2="358"></line></g></g></g><g><g><g><g><path style="fill:#6E6E6E;stroke:#000000;stroke-linecap:round;stroke-linejoin:round;" d="M263.777,310.667L250,307.001l-21.733-14.251l-14,15c0,0-0.959,11.308,6.172,22.275L217.325,337c0,0,12.825,14.5,14.5,14.5s31.61-14,31.61-14l-0.104-0.018l0.446-0.148V310.667z"></path><polygon style="fill:#505050;" points="237,337.833 243.833,345.333 250.167,343 "></polygon><line style="fill:none;stroke:#000000;stroke-linecap:round;stroke-linejoin:round;" x1="236.5" y1="339" x2="236.5" y2="349.049"></line><path style="fill:#6E6E6E;stroke:#000000;stroke-linecap:round;stroke-linejoin:round;" d="M285.733,307.75l-5.869-4.837c0.48-9.087,2.969-16.079,2.969-16.079l-10-5.167l-4.623,13.222l-18.376,13.112l-13.611,2.666v26.667l0.424,0.141L236.5,337.5c0,0,29.667,14,31.608,14s14.5-14.5,14.5-14.5l-3.086-6.912C286.697,319.1,285.733,307.75,285.733,307.75z"></path><path style="fill:#505050;" d="M279.167,302.833c0,0-14.209,13.959-17.042,15.292c-12.5,2.5-25,3.708-23.5,3.375S279.167,302.833,279.167,302.833z"></path></g></g><g><rect x="232.909" y="318.188" style="fill:#373544;stroke:#000000;stroke-linecap:round;stroke-linejoin:round;" width="6.932" height="4.125"></rect><rect x="232.909" y="324.688" style="fill:#373544;stroke:#000000;stroke-linecap:round;stroke-linejoin:round;" width="6.932" height="4.125"></rect><rect x="232.909" y="331.188" style="fill:#373544;stroke:#000000;stroke-linecap:round;stroke-linejoin:round;" width="6.932" height="4.125"></rect></g></g><g><g><g><path style="fill:#454954;stroke:#000000;stroke-linecap:round;stroke-linejoin:round;" d="M237.995,291.667c-1-1.667-1.833-13.333-1.833-14.167l-3.833,2.667c0,0-12.167,3.833-14.834,5.667c0.913,1.415,3.334,4.011,6.804,7.257c-0.382,0.553-2.622,3.896-4.639,8.909c1.806,1.959,12.46,7.758,25.18,13.217l7.253-5.911C245.197,301.264,238.561,292.609,237.995,291.667z"></path><path style="fill:none;stroke:#000000;stroke-linecap:round;stroke-linejoin:round;" d="M235.329,281.5c0,0-10.414,10-11.521,12.25"></path></g><g><path style="fill:#454954;stroke:#000000;stroke-linecap:round;stroke-linejoin:round;" d="M275.701,293.091c3.47-3.246,5.891-5.842,6.804-7.257c-2.667-1.834-14.834-5.667-14.834-5.667l-3.833-2.667c0,0.834-0.833,12.5-1.833,14.167c-0.644,1.073-21.505,28.958-21.505,28.958c20.125-7,38.045-16.678,39.84-18.625C278.323,296.986,276.083,293.644,275.701,293.091z"></path><path style="fill:none;stroke:#000000;stroke-linecap:round;stroke-linejoin:round;" d="M264.671,281.5c0,0,10.414,10,11.521,12.25"></path></g><ellipse style="fill:#60646F;stroke:#000000;stroke-linecap:round;stroke-linejoin:round;" cx="273.833" cy="299.875" rx="1.521" ry="1.375"></ellipse></g></g></g></g></g></svg>