<svg xmlns="http://www.w3.org/2000/svg" width="500" height="500" version="1.1"><g id="x9230"><g><g><path style="fill:#6E6E6E;stroke:#000000;stroke-linecap:round;stroke-linejoin:round;" d="M274.143,306.183l0.017-0.016c0,0-0.333-4.667-3.25-7.667c-1.832,0-4.416,8.164-20.91,9.999c-16.492-1.835-19.075-9.999-20.908-9.999c-2.917,3-3.25,7.667-3.25,7.667l0.016,0.016c-0.704,3.527-1.553,9.832-0.25,15.692c5.06-0.5,22.187-0.125,24.393-0.125s19.333-0.375,24.393,0.125C275.696,316.015,274.847,309.71,274.143,306.183z"></path><g><path style="fill:#FF4241;stroke:#000000;stroke-linecap:round;stroke-linejoin:round;" d="M225.013,312.375c0,0,6.375,3.625,7.75,9.75c1.125,0,2.375-0.25,2.375-0.25s-2-9.375-9.625-11.5C225.013,310.75,225.013,312.375,225.013,312.375z"></path><path style="fill:#FF4241;stroke:#000000;stroke-linecap:round;stroke-linejoin:round;" d="M274.989,312.375c0,0-6.375,3.625-7.75,9.75c-1.125,0-2.375-0.25-2.375-0.25s2-9.375,9.625-11.5C274.989,310.75,274.989,312.375,274.989,312.375z"></path></g></g><g><path style="fill:#6E6E6E;stroke:#000000;stroke-linecap:round;stroke-linejoin:round;" d="M274.145,305.75L232.5,294.5l-3.75,4c0.184-0.368,24.25,7.875,45.625,13.375C274.867,308.875,274.145,305.75,274.145,305.75z"></path><g><path style="fill:#E6B25C;stroke:#000000;stroke-linecap:round;stroke-linejoin:round;" d="M244,297.125c-0.375-0.625-5.844-1.844-6.469-1.625s-1.656,4.125-1.531,4.875c1.063,0.844,5,1.844,6.688,1.813C243.563,301.563,244.375,297.75,244,297.125z M241.485,300.662c-0.92,0.017-3.068-0.528-3.647-0.989c-0.068-0.409,0.494-2.539,0.835-2.658c0.341-0.12,3.324,0.545,3.528,0.886S241.962,300.321,241.485,300.662z"></path><path style="fill:#E6B25C;stroke:#000000;stroke-linecap:round;stroke-linejoin:round;" d="M237.156,298.75c-0.063-0.219,0.188-1.063,0.438-1.25s1.75,0.25,1.875,0.5s-0.311,1.194-0.531,1.25C238.688,299.313,237.219,298.969,237.156,298.75z"></path></g></g><g><path style="fill:#6E6E6E;stroke:#000000;stroke-linecap:round;stroke-linejoin:round;" d="M275.125,321.578c-4-1.13-25.125-0.941-25.125-0.941s-21.125-0.188-25.125,0.941c-0.5,1.601-0.125,3.201,0.25,3.672c3.75-0.188,23.125-0.377,24.875-0.377s21.125,0.188,24.875,0.377C275.25,324.779,275.625,323.179,275.125,321.578z"></path><g><path style="fill:#E6B25C;stroke:#000000;stroke-linecap:round;stroke-linejoin:round;" d="M253.75,320.417c-0.318-0.798-7.181-0.798-7.5,0c0,0-0.25,4.916,0.417,5.416c0.442,0.331,6.226,0.331,6.667,0C254,325.333,253.75,320.417,253.75,320.417z M252.333,324.417c0,0.217-4.666,0.217-4.666,0c0-0.333-0.25-2.834,0-3.084c0.142-0.142,4.523-0.142,4.666,0C252.584,321.583,252.333,324.084,252.333,324.417z"></path><path style="fill:#E6B25C;stroke:#000000;stroke-linecap:round;stroke-linejoin:round;" d="M250.125,322.937c0,0.403-0.326,0.729-0.729,0.729h-1.417c-0.403,0-0.729-0.326-0.729-0.729l0,0c0-0.402,0.326-0.729,0.729-0.729h1.417C249.799,322.208,250.125,322.534,250.125,322.937L250.125,322.937z"></path></g></g></g></g></svg>