<svg xmlns="http://www.w3.org/2000/svg" width="500" height="500" version="1.1"><g id="x9232"><g><g><g><g><g><g><path style="fill:#EAE6E7;stroke:#000000;stroke-linecap:round;stroke-linejoin:round;" d="M211.729,360.5c0,0-16.25-7.25-18-8.75c-2-7-3.5-20.25-1.5-23.25s18.5-16.25,20-18.75c0.5-4.25,0.25-5.25,1.25-6s3-3.25,4-5.25c1.5-2.25,3.75-3.25,3.75-3.25s6.75,4.75,8,7.75c-3.25,14-6,34.25-6,34.25L211.729,360.5z"></path><path style="fill:#A8A3B7;" d="M216.104,330.75c0,0,0.875,8.125-4.875,13c0.875,2,2.125,3.875,2.125,3.875l6.75-13L216.104,330.75z"></path><path style="fill:#A8A3B7;" d="M196.479,326.25c0,0,14-3.75,20.25-13.75c-0.25-4.5-1-6.75-1-6.75l-17.5,17L196.479,326.25z"></path><path style="fill:#A8A3B7;" d="M192.379,329.301c0,0-1.15,5.949-0.4,10.199c1.25,4.25,3.75,9.75,3.75,9.75l9-16.5c0,0-7.5,3.25-9.5,5.75c-0.75-3.75-1-6.5,0.25-9.75s9-10.75,9-10.75S193.629,327.051,192.379,329.301z"></path></g><path style="fill:#6E6E6E;" d="M215.229,317.75c0,0-11.5,9.5-14.5,13.75s-0.5,9.25-0.5,9.25l-2.5,2c0,0-2.5-6.5,0-11.25s18-17,18-17L215.229,317.75z"></path><g><path style="fill:#535759;stroke:#000000;stroke-linecap:round;stroke-linejoin:round;" d="M206.967,322.036c0,0,5.273-5.34,7.403-5.636c1.69,2.875,1.088,5.512,1.088,5.512s-7.183,4.049-8.12,5.97C206.499,326.267,206.967,322.036,206.967,322.036z"></path><polygon style="fill:#35393B;" points="208.375,321 213.25,317.5 213.75,319.375 210.625,321.5 213.75,320.25 214.25,322 209.125,325.375 "></polygon><g><path style="fill:#535759;stroke:#000000;stroke-linecap:round;stroke-linejoin:round;" d="M204.229,319.75c0,0-0.25,7.5,1,9.25c3.25-0.75,4.75-3,4.75-3s-2-8-1.25-10C206.979,316.5,204.229,319.75,204.229,319.75z"></path></g><path style="fill:#35393B;" d="M208.5,318.5l-1.375,0.25c0,0,0.125,3.625,0.125,6.25c-0.375-0.375-1-5.25-1-5.25s-0.875-0.875-1.75,0.5c-0.194,1.167,0.217,4.074,0.645,6.485l4.106-2.364C208.859,322.088,208.5,318.5,208.5,318.5z"></path></g></g><g><path style="fill:#EAE6E7;stroke:#000000;stroke-linecap:round;stroke-linejoin:round;" d="M218.229,304.25c0,0-4.75,8.25-5,10.25s2,21.25,8.25,26.75c5.5-12.5,7.75-33.75,7.75-33.75S222.229,307,218.229,304.25z"></path><path style="fill:#A8A3B7;" d="M218.854,337.125c0,0-2.625-12.125-3.125-15c2,2.75,5.5,2.75,6.375,4.125s1.625,3.625,1.625,3.625L218.854,337.125z"></path><path style="fill:#A8A3B7;" d="M220.729,308.75c0,0,3.375,6.625,3.125,8.75s-0.375,11.125-0.375,11.125s4.375-12.25,4.25-14.875s-3.5-7.625-3.5-7.625L220.729,308.75z"></path><path style="fill:none;stroke:#000000;stroke-linecap:round;stroke-linejoin:round;" d="M220.979,306.5c0,0-3.75,5.25-4.25,8.25"></path><path style="fill:none;stroke:#000000;stroke-linecap:round;stroke-linejoin:round;" d="M217.979,319.5c0,0,1.5,13,3.5,15.75"></path></g><g><path style="fill:#EAE6E7;stroke:#000000;stroke-linecap:round;stroke-linejoin:round;" d="M193.979,326c0,0,15.25-7.75,18.25-10.75s6-11,6-11l-3-2.25c0,0-2.5,1.5-3,2.75s-0.5,4.25-0.5,4.25S196.229,323.25,193.979,326z"></path></g><path style="fill:#EAE6E7;stroke:#000000;stroke-linecap:round;stroke-linejoin:round;" d="M218.604,298.125c0,0,0.75-5.125,1.25-6c3.75,1.625,8.625,5.875,9.25,8c-0.125,3.5-0.875,5.625-0.875,5.625l-5.5-5.25"></path></g><g><g><g><path style="fill:#6E6E6E;stroke:#000000;stroke-linecap:round;stroke-linejoin:round;" d="M212.229,304.75c0,0-1.25,3-0.5,4.25c4.75,0.25,16.5-3.25,16.5-3.25l-0.75-4.25L212.229,304.75z"></path><polygon style="fill:#535759;stroke:#000000;stroke-linecap:round;stroke-linejoin:round;" points="211.979,306.551 227.229,303.5 227.979,304.75 211.479,308 "></polygon></g><g><path style="fill:#6E6E6E;stroke:#000000;stroke-linecap:round;stroke-linejoin:round;" d="M230.021,306.007c0,0-0.529,5.513-1.791,6.243c-4.277-2.082-13.25-12.25-13.25-12.25l3.273-4.224L230.021,306.007z"></path><polygon style="fill:#535759;stroke:#000000;stroke-linecap:round;stroke-linejoin:round;" points="229.367,307.703 217.503,297.647 216.242,298.378 229.103,309.213 "></polygon></g></g><g><path style="fill:#EAE6E7;stroke:#000000;stroke-linecap:round;stroke-linejoin:round;" d="M224.229,308.875l-2,0.375c0,0-4.625-3.25-4.625-4.625s3.123-5.784,4.75-5.875c2.25-0.125,5.25,3.5,5.25,3.5l0.125,2.125c0,0-3.375-3.375-4.25-3.375s-3.125,2.875-3,3.875S224.229,308.875,224.229,308.875z"></path><path style="fill:#EAE6E7;stroke:#000000;stroke-linecap:round;stroke-linejoin:round;" d="M220.979,301.875c0,0,0.875,2.375,1.625,2.375s1.375-1.25,1.125-1.625S221.729,301.5,220.979,301.875z"></path></g></g><g><g><path style="fill:#BB939D;stroke:#000000;stroke-linecap:round;stroke-linejoin:round;" d="M193.604,346.875c0.25-3.75-2.125-11.125-4.375-11.375c1,4.25-1.25,14-1.25,16.25s5.25,5.75,5.25,5.75l3-2.75c0,0,7.25,1,14.083,7.119c3.917-1.869,8.167-9.119,8.167-9.119s-11.25-13-12.25-21.25C198.479,335.25,193.604,346.875,193.604,346.875z"></path><path style="fill:none;stroke:#000000;stroke-linecap:round;stroke-linejoin:round;" d="M193.554,346.875c0,0-2.25,3-2.25,3.75s1.125,2.25,1.125,2.25"></path><path style="fill:#9D757F;" d="M208.729,359c0,0-5-2.25-5.5-3.5s4-5,4-5s0.25-6.5,2.5-8.75c1.5,3,4.25,6.5,4.25,6.5L208.729,359z"></path><path style="fill:none;stroke:#000000;stroke-linecap:round;stroke-linejoin:round;" d="M196.729,354c0,0,2.75-9.25,8.25-13.75c1.75,4.5,7.75,11,7.75,11"></path><path style="fill:#9D757F;stroke:#000000;stroke-linecap:round;stroke-linejoin:round;" d="M194.229,356.25l-4-3.5c0,0,4,0.75,6,2C194.979,355.75,194.229,356.25,194.229,356.25z"></path></g><g><path style="fill:#EAE6E7;stroke:#000000;stroke-linecap:round;stroke-linejoin:round;" d="M203.875,342.976c0,0-4.131-0.551-5.095,0.688s-0.688,4.406,0.964,5.921s4.406,2.341,5.232,1.377s1.515-2.754,1.515-2.754s6.196-0.826,6.609-1.928s-0.688-3.029-0.688-3.029l-6.334,2.479l-0.275-1.515c0,0,5.095-3.718,5.095-4.406s-1.515-2.341-2.341-2.203S203.875,342.976,203.875,342.976z"></path></g><polyline style="fill:none;stroke:#A5A0B7;" points="199.607,344.215 199.745,346.143 201.122,346.005 201.26,348.346 203.05,348.07 203.188,349.31 205.391,349.585 "></polyline></g></g><g><g><g><g><path style="fill:#EAE6E7;stroke:#000000;stroke-linecap:round;stroke-linejoin:round;" d="M288.271,360.5c0,0,16.25-7.25,18-8.75c2-7,3.5-20.25,1.5-23.25s-18.5-16.25-20-18.75c-0.5-4.25-0.25-5.25-1.25-6s-3-3.25-4-5.25c-1.5-2.25-3.75-3.25-3.75-3.25s-6.75,4.75-8,7.75c3.25,14,6,34.25,6,34.25L288.271,360.5z"></path><path style="fill:#A8A3B7;" d="M283.896,330.75c0,0-0.875,8.125,4.875,13c-0.875,2-2.125,3.875-2.125,3.875l-6.75-13L283.896,330.75z"></path><path style="fill:#A8A3B7;" d="M303.521,326.25c0,0-14-3.75-20.25-13.75c0.25-4.5,1-6.75,1-6.75l17.5,17L303.521,326.25z"></path><path style="fill:#A8A3B7;" d="M307.62,329.301c0,0,1.15,5.949,0.4,10.199c-1.25,4.25-3.75,9.75-3.75,9.75l-9-16.5c0,0,7.5,3.25,9.5,5.75c0.75-3.75,1-6.5-0.25-9.75s-9-10.75-9-10.75S306.37,327.051,307.62,329.301z"></path></g><path style="fill:#6E6E6E;" d="M284.771,317.75c0,0,11.5,9.5,14.5,13.75s0.5,9.25,0.5,9.25l2.5,2c0,0,2.5-6.5,0-11.25s-18-17-18-17L284.771,317.75z"></path><g><path style="fill:#535759;stroke:#000000;stroke-linecap:round;stroke-linejoin:round;" d="M293.032,322.036c0,0-5.272-5.34-7.402-5.636c-1.691,2.875-1.089,5.512-1.089,5.512s7.183,4.049,8.12,5.97C293.501,326.267,293.032,322.036,293.032,322.036z"></path><g><path style="fill:#535759;stroke:#000000;stroke-linecap:round;stroke-linejoin:round;" d="M295.771,319.75c0,0,0.25,7.5-1,9.25c-3.25-0.75-4.75-3-4.75-3s2-8,1.25-10C293.021,316.5,295.771,319.75,295.771,319.75z"></path></g></g></g><g><path style="fill:#EAE6E7;stroke:#000000;stroke-linecap:round;stroke-linejoin:round;" d="M281.771,304.25c0,0,4.75,8.25,5,10.25s-2,21.25-8.25,26.75c-5.5-12.5-7.75-33.75-7.75-33.75S277.771,307,281.771,304.25z"></path><path style="fill:#A8A3B7;" d="M281.146,337.125c0,0,2.625-12.125,3.125-15c-2,2.75-5.5,2.75-6.375,4.125s-1.625,3.625-1.625,3.625L281.146,337.125z"></path><path style="fill:#A8A3B7;" d="M279.271,308.75c0,0-3.375,6.625-3.125,8.75s0.375,11.125,0.375,11.125s-4.375-12.25-4.25-14.875s3.5-7.625,3.5-7.625L279.271,308.75z"></path><path style="fill:none;stroke:#000000;stroke-linecap:round;stroke-linejoin:round;" d="M279.021,306.5c0,0,3.75,5.25,4.25,8.25"></path><path style="fill:none;stroke:#000000;stroke-linecap:round;stroke-linejoin:round;" d="M282.021,319.5c0,0-1.5,13-3.5,15.75"></path></g><g><path style="fill:#EAE6E7;stroke:#000000;stroke-linecap:round;stroke-linejoin:round;" d="M306.021,326c0,0-15.25-7.75-18.25-10.75s-6-11-6-11l3-2.25c0,0,2.5,1.5,3,2.75s0.5,4.25,0.5,4.25S303.771,323.25,306.021,326z"></path></g><path style="fill:#EAE6E7;stroke:#000000;stroke-linecap:round;stroke-linejoin:round;" d="M281.396,298.125c0,0-0.75-5.125-1.25-6c-3.75,1.625-8.625,5.875-9.25,8c0.125,3.5,0.875,5.625,0.875,5.625l5.5-5.25"></path></g><g><g><g><path style="fill:#6E6E6E;stroke:#000000;stroke-linecap:round;stroke-linejoin:round;" d="M287.771,304.75c0,0,1.25,3,0.5,4.25c-4.75,0.25-16.5-3.25-16.5-3.25l0.75-4.25L287.771,304.75z"></path><polygon style="fill:#535759;stroke:#000000;stroke-linecap:round;stroke-linejoin:round;" points="288.021,306.551 272.771,303.5 272.021,304.75 288.521,308 "></polygon></g><g><path style="fill:#6E6E6E;stroke:#000000;stroke-linecap:round;stroke-linejoin:round;" d="M269.979,306.007c0,0,0.529,5.513,1.791,6.243c4.276-2.082,13.25-12.25,13.25-12.25l-3.273-4.224L269.979,306.007z"></path><polygon style="fill:#535759;stroke:#000000;stroke-linecap:round;stroke-linejoin:round;" points="270.632,307.703 282.497,297.647 283.758,298.378 270.897,309.213 "></polygon></g></g><g><path style="fill:#EAE6E7;stroke:#000000;stroke-linecap:round;stroke-linejoin:round;" d="M275.771,308.875l2,0.375c0,0,4.625-3.25,4.625-4.625s-3.123-5.784-4.75-5.875c-2.25-0.125-5.25,3.5-5.25,3.5l-0.125,2.125c0,0,3.375-3.375,4.25-3.375s3.125,2.875,3,3.875S275.771,308.875,275.771,308.875z"></path><path style="fill:#EAE6E7;stroke:#000000;stroke-linecap:round;stroke-linejoin:round;" d="M279.021,301.875c0,0-0.875,2.375-1.625,2.375s-1.375-1.25-1.125-1.625S278.271,301.5,279.021,301.875z"></path></g></g><g><g><path style="fill:#BB939D;stroke:#000000;stroke-linecap:round;stroke-linejoin:round;" d="M306.396,346.875c-0.25-3.75,2.125-11.125,4.375-11.375c-1,4.25,1.25,14,1.25,16.25s-5.25,5.75-5.25,5.75l-3-2.75c0,0-7.25,1-14.084,7.119c-3.916-1.869-8.166-9.119-8.166-9.119s11.25-13,12.25-21.25C301.521,335.25,306.396,346.875,306.396,346.875z"></path><path style="fill:none;stroke:#000000;stroke-linecap:round;stroke-linejoin:round;" d="M306.445,346.875c0,0,2.25,3,2.25,3.75s-1.125,2.25-1.125,2.25"></path><path style="fill:#9D757F;" d="M291.271,359c0,0,5-2.25,5.5-3.5s-4-5-4-5s-0.25-6.5-2.5-8.75c-1.5,3-4.25,6.5-4.25,6.5L291.271,359z"></path><path style="fill:none;stroke:#000000;stroke-linecap:round;stroke-linejoin:round;" d="M303.271,354c0,0-2.75-9.25-8.25-13.75c-1.75,4.5-7.75,11-7.75,11"></path><path style="fill:#9D757F;stroke:#000000;stroke-linecap:round;stroke-linejoin:round;" d="M305.771,356.25l4-3.5c0,0-4,0.75-6,2C305.021,355.75,305.771,356.25,305.771,356.25z"></path></g><g><path style="fill:#EAE6E7;stroke:#000000;stroke-linecap:round;stroke-linejoin:round;" d="M296.124,342.976c0,0,4.131-0.551,5.095,0.688s0.688,4.406-0.964,5.921s-4.406,2.341-5.232,1.377s-1.515-2.754-1.515-2.754s-6.196-0.826-6.609-1.928s0.688-3.029,0.688-3.029l6.334,2.479l0.275-1.515c0,0-5.095-3.718-5.095-4.406s1.515-2.341,2.341-2.203S296.124,342.976,296.124,342.976z"></path></g><polyline style="fill:none;stroke:#A5A0B7;" points="300.393,344.215 300.255,346.143 298.878,346.005 298.74,348.346 296.95,348.07 296.813,349.31 294.609,349.585 "></polyline></g></g></g><g><g><g><path style="fill:#535759;stroke:#000000;stroke-linecap:round;stroke-linejoin:round;" d="M274,306.333c-1.25-5.958-5.333-14.333-5.333-14.333L250,293l-18.667-1c0,0-4.083,8.375-5.333,14.333c-0.866,4.126-0.333,10.334-0.333,10.334h48.666C274.333,316.667,274.866,310.459,274,306.333z"></path><rect x="249.625" y="293.479" style="fill:#EAE6E7;" width="0.75" height="23.396"></rect><g><path style="fill:#EAE6E7;" d="M252.313,293.479h-0.75v19.209c0.219-0.804,0.473-1.624,0.75-2.327V293.479z"></path><polygon style="fill:#EAE6E7;" points="251.563,316.875 252.313,316.875 252.313,316.232 251.563,316.241 "></polygon><path style="fill:#EAE6E7;" d="M248.438,293.479h-0.75v16.882c0.278,0.703,0.531,1.523,0.75,2.327V293.479z"></path><polygon style="fill:#EAE6E7;" points="247.688,316.875 248.438,316.875 248.438,316.241 247.688,316.232 "></polygon><path style="fill:#35393B;" d="M248.438,312.688v3.554l0.813,0.009C249.25,316.25,248.935,314.518,248.438,312.688z"></path><path style="fill:#B1B2C1;" d="M247.688,310.36v5.872l0.75,0.009v-3.554C248.219,311.884,247.965,311.063,247.688,310.36z"></path><g><path style="fill:#EAE6E7;" d="M255.438,293.301h-1.5v14.727c0.427-0.374,0.939-0.771,1.5-1.172V293.301z"></path><polygon style="fill:#EAE6E7;" points="253.938,316.25 255.438,316.25 255.438,316.197 253.938,316.215 "></polygon><path style="fill:#EAE6E7;" d="M246.063,293.301h-1.5v13.555c0.561,0.4,1.073,0.798,1.5,1.172V293.301z"></path><polygon style="fill:#EAE6E7;" points="244.563,316.25 246.063,316.25 246.063,316.215 244.563,316.197 "></polygon><path style="fill:#35393B;" d="M246.063,308.027v8.188l1.625,0.018v-5.872c-0.216-0.548-0.447-1.024-0.688-1.36C246.793,308.711,246.463,308.379,246.063,308.027z"></path><path style="fill:#B1B2C1;" d="M244.563,306.855v9.342l1.5,0.018v-8.188C245.636,307.653,245.123,307.256,244.563,306.855z"></path><path style="fill:#35393B;" d="M253,309c-0.24,0.336-0.471,0.813-0.688,1.36v5.872l1.625-0.018v-8.188C253.536,308.379,253.206,308.711,253,309z"></path><g><path style="fill:#EAE6E7;" d="M226.263,306.625v1.875c0,0,0.172-0.156,0.446-0.412c0.046-0.769,0.115-1.482,0.214-2.082C226.529,306.386,226.263,306.625,226.263,306.625z"></path><path style="fill:#EAE6E7;" d="M231.388,303c1.125-1.875,3-10.25,3-10.25l-1.125-0.375c-0.125,0.375-2,7.375-3.25,10.125c-0.254,0.359-0.531,0.71-0.813,1.054c0.605-0.162,1.309-0.274,2.055-0.351C231.3,303.135,231.349,303.064,231.388,303z"></path><path style="fill:#EAE6E7;" d="M269.985,302.5c-1.25-2.75-3.125-9.75-3.25-10.125l-1.125,0.375c0,0,1.875,8.375,3,10.25c0.038,0.064,0.088,0.135,0.133,0.203c0.745,0.076,1.449,0.188,2.055,0.35C270.516,303.21,270.239,302.859,269.985,302.5z"></path><path style="fill:#EAE6E7;" d="M273.735,306.625c0,0-0.266-0.238-0.658-0.617c0.1,0.6,0.169,1.313,0.215,2.082c0.272,0.255,0.443,0.41,0.443,0.41V306.625z"></path><path style="fill:#35393B;" d="M229.2,303.554c-0.977,0.262-1.705,0.646-1.95,1.196c-0.136,0.305-0.242,0.741-0.327,1.256C227.503,305.445,228.374,304.559,229.2,303.554z"></path><path style="fill:#35393B;" d="M231.254,303.203c-1.001,1.516-3.521,3.93-4.546,4.885c-0.206,3.43,0.042,7.912,0.042,7.912l17.813,0.197v-9.342c-2.102-1.502-4.824-3.026-5.813-3.355C237.845,303.198,234.215,302.901,231.254,303.203z"></path><path style="fill:#B4B5C5;" d="M231.254,303.203c-0.746,0.076-1.449,0.188-2.055,0.351c-0.826,1.005-1.696,1.892-2.277,2.452c-0.1,0.6-0.168,1.313-0.214,2.082C227.733,307.133,230.253,304.719,231.254,303.203z"></path><path style="fill:#35393B;" d="M268.743,303.203c-2.96-0.302-6.589-0.005-7.493,0.297c-0.988,0.329-3.711,1.854-5.813,3.355v9.342L273.25,316c0,0,0.247-4.48,0.042-7.91C272.269,307.136,269.745,304.719,268.743,303.203z"></path><path style="fill:#35393B;" d="M273.077,306.008c-0.085-0.515-0.191-0.952-0.327-1.258c-0.245-0.552-0.975-0.936-1.952-1.197C271.625,304.559,272.497,305.447,273.077,306.008z"></path><path style="fill:#B4B5C5;" d="M270.798,303.553c-0.605-0.162-1.31-0.273-2.055-0.35c1.002,1.516,3.525,3.933,4.549,4.887c-0.046-0.769-0.115-1.482-0.215-2.082C272.497,305.447,271.625,304.559,270.798,303.553z"></path></g><path style="fill:#B1B2C1;" d="M253.938,308.027v8.188l1.5-0.018v-9.342C254.877,307.256,254.364,307.653,253.938,308.027z"></path></g><path style="fill:#35393B;" d="M250.75,316.25l0.813-0.009v-3.554C251.065,314.518,250.75,316.25,250.75,316.25z"></path><path style="fill:#B1B2C1;" d="M251.563,312.688v3.554l0.75-0.009v-5.872C252.035,311.063,251.781,311.884,251.563,312.688z"></path></g></g><g><circle style="fill:#EAE6E7;stroke:#000000;stroke-linecap:round;stroke-linejoin:round;" cx="250" cy="310.188" r="2.688"></circle><circle style="fill:#B4B5C5;" cx="250" cy="310.486" r="1.68"></circle></g><g><circle style="fill:#EAE6E7;stroke:#000000;stroke-linecap:round;stroke-linejoin:round;" cx="250" cy="297.938" r="2.688"></circle><circle style="fill:#B4B5C5;" cx="250" cy="298.236" r="1.68"></circle></g><g><g><g><path style="fill:#A5A0B7;stroke:#000000;stroke-linecap:round;stroke-linejoin:round;" d="M203.466,368.834c0,0-1.167,4.334,3,4.667c2.667-7.167,4-11.833,4-11.833S204.132,365.834,203.466,368.834z"></path><path style="fill:#A5A0B7;stroke:#000000;stroke-linecap:round;stroke-linejoin:round;" d="M296.874,368.834c0,0,1.167,4.334-3,4.667c-2.667-7.167-4-11.833-4-11.833S296.207,365.834,296.874,368.834z"></path><g id="topsXMLID_73_"><g><path style="fill:#EAE6E7;" d="M288.31,358.07c-2.13,0.989-5.34,2.06-7.27,2.66l-7.44-28.641l-5.76-6.76l-17.67-1.16l-17.67,1.16l-5.76,6.76l-7.44,28.641c-1.93-0.601-5.14-1.671-7.27-2.66c-3.35,3.17-7.56,14-7.43,17.16c1.899-0.48,2.319-0.73,4.75-4.16c2.92,2.33,6.159-3,6.159-3s0.141,0.5,1.48,0.83c0.51-0.4,1.03-1.12,1.51-1.96c2.83-0.41,4.5-2.771,4.5-2.771s0.5,2.33,3,2.5c2.5,0.16,6-3,7-4.5c0.33,1,2.5,1,3.67-1.17c0.5,1.67,1.83,2.67,4.66,2.5c2.84-0.17,4.17-4.17,4.17-4.17s1,2.84,4.67,2.84s4.67-2.84,4.67-2.84s1.33,4,4.17,4.17c2.83,0.17,4.16-0.83,4.66-2.5c1.17,2.17,3.34,2.17,3.67,1.17c1,1.5,4.5,4.66,7,4.5c2.5-0.17,3-2.5,3-2.5s1.67,2.36,4.5,2.771c0.479,0.84,1,1.56,1.51,1.96c1.341-0.33,1.48-0.83,1.48-0.83s3.239,5.33,6.159,3c2.431,3.43,2.851,3.68,4.75,4.16C295.869,372.07,291.659,361.24,288.31,358.07z"></path><line style="fill:none;stroke:#A5A0B7;" x1="219.667" y1="362.833" x2="222" y2="365"></line><line style="fill:none;stroke:#A5A0B7;" x1="221.334" y1="361.167" x2="227.334" y2="366.167"></line><polyline style="fill:none;stroke:#A5A0B7;" points="227.167,361.167 230.5,363.667 234.667,357.5 239.834,363 244.167,356.667 249,361.833 "></polyline><polyline style="fill:none;stroke:#A5A0B7;" points="228.167,359.5 230.167,360.667 232.167,358.167 "></polyline><polyline style="fill:none;stroke:#A5A0B7;" points="237.5,357.5 239.834,359.667 241.667,356.833 "></polyline><polyline style="fill:none;stroke:#A5A0B7;" points="217.334,362.333 214,369 211,366.833 208.667,372 "></polyline><polyline style="fill:none;stroke:#A5A0B7;" points="211,364.369 213.334,365.667 215.334,362 "></polyline><line style="fill:none;stroke:#A5A0B7;" x1="280.673" y1="362.833" x2="278.34" y2="365"></line><line style="fill:none;stroke:#A5A0B7;" x1="279.007" y1="361.167" x2="273.007" y2="366.167"></line><polyline style="fill:none;stroke:#A5A0B7;" points="273.173,361.167 269.84,363.667 265.673,357.5 260.507,363 256.173,356.667 251.34,361.833 "></polyline><polyline style="fill:none;stroke:#A5A0B7;" points="272.173,359.5 270.173,360.667 268.173,358.167 "></polyline><polyline style="fill:none;stroke:#A5A0B7;" points="262.84,357.5 260.507,359.667 258.673,356.833 "></polyline><polyline style="fill:none;stroke:#A5A0B7;" points="283.007,362.333 286.34,369 289.34,366.833 291.673,372 "></polyline><polyline style="fill:none;stroke:#A5A0B7;" points="289.34,364.369 287.007,365.667 285.007,362 "></polyline><path style="fill:none;stroke:#000000;stroke-linecap:round;stroke-linejoin:round;" d="M281.04,360.73l-7.44-28.641l-5.76-6.76l-17.67-1.16l-17.67,1.16l-5.76,6.76l-7.44,28.641l-1.63,6.27c0.29,0,0.57-0.02,0.83-0.06c2.83-0.41,4.5-2.771,4.5-2.771s0.5,2.33,3,2.5c2.5,0.16,6-3,7-4.5c0.33,1,2.5,1,3.67-1.17c0.5,1.67,1.83,2.67,4.66,2.5c2.84-0.17,4.17-4.17,4.17-4.17s1,2.84,4.67,2.84s4.67-2.84,4.67-2.84s1.33,4,4.17,4.17c2.83,0.17,4.16-0.83,4.66-2.5c1.17,2.17,3.34,2.17,3.67,1.17c1,1.5,4.5,4.66,7,4.5c2.5-0.17,3-2.5,3-2.5s1.67,2.36,4.5,2.771c0.26,0.04,0.54,0.06,0.83,0.06L281.04,360.73z"></path><path style="fill:none;stroke:#000000;stroke-linecap:round;stroke-linejoin:round;" d="M218.5,366.94c-0.479,0.84-1,1.56-1.51,1.96c-1.34-0.33-1.48-0.83-1.48-0.83s-3.239,5.33-6.159,3c-2.431,3.43-2.851,3.68-4.75,4.16c-0.13-3.16,4.08-13.99,7.43-17.16c2.13,0.989,5.34,2.06,7.27,2.66"></path><path style="fill:none;stroke:#000000;stroke-linecap:round;stroke-linejoin:round;" d="M281.834,366.94c0.479,0.84,1,1.56,1.51,1.96c1.34-0.33,1.48-0.83,1.48-0.83s3.238,5.33,6.158,3c2.432,3.43,2.852,3.68,4.75,4.16c0.131-3.16-4.08-13.99-7.43-17.16c-2.129,0.989-5.34,2.06-7.27,2.66"></path></g></g><g><g><path style="fill:#EAE6E7;stroke:#000000;stroke-linecap:round;stroke-linejoin:round;" d="M279.333,333.834l-11.666-13.666L250,319.001l-17.667,1.167l-11.667,13.666c0,0-10.083,12.916-17.333,34.916c3.25-4.25,6.833-6.881,6.833-6.881s0.333,1.131,1.333,1.464s2.167-2.131,2.167-2.131s0.513,2.275,3.167,1.964C219.667,362.833,222,358,222,358s2,2.833,4.5,3s5.333-2.499,6.333-3.999c0.333,1,2,0.832,3.167-1.335c0.5,1.667,2.333,2.835,5.167,2.668s4.167-4.166,4.167-4.166s1,2.833,4.667,2.833c3.667,0,4.667-2.833,4.667-2.833s1.332,3.999,4.166,4.166c2.832,0.167,4.666-1.001,5.166-2.668c1.166,2.167,2.834,2.335,3.168,1.335c1,1.5,3.832,4.166,6.332,3.999s4.5-3,4.5-3s2.334,4.833,5.168,5.166c2.652,0.312,3.166-1.964,3.166-1.964s1.166,2.464,2.166,2.131s1.334-1.464,1.334-1.464s3.584,2.631,6.834,6.881C289.417,346.75,279.333,333.834,279.333,333.834z"></path><path style="fill:none;stroke:#000000;stroke-linecap:round;stroke-linejoin:round;" d="M277.667,357.5c0,0-0.5-7.167-9.168-20.167"></path><g><path style="fill:none;stroke:#000000;stroke-linecap:round;stroke-linejoin:round;" d="M222.333,357.5c0,0,0.5-7.167,9.167-20.167"></path></g><ellipse style="fill:#A5A0B7;" cx="258.833" cy="353.666" rx="1" ry="1.834"></ellipse><ellipse style="fill:#A5A0B7;" cx="241.167" cy="353.666" rx="1" ry="1.834"></ellipse><ellipse transform="matrix(0.9894 0.1455 -0.1455 0.9894 54.1582 -29.3706)" style="fill:#A5A0B7;" cx="227.834" cy="355.499" rx="1" ry="1.835"></ellipse><ellipse transform="matrix(0.998 0.0635 -0.0635 0.998 23.2306 -13.0739)" style="fill:#A5A0B7;" cx="217.334" cy="359" rx="1" ry="1.835"></ellipse><ellipse transform="matrix(-0.9894 0.1455 -0.1455 -0.9894 593.1678 667.6076)" style="fill:#A5A0B7;" cx="272.166" cy="355.499" rx="1" ry="1.835"></ellipse><ellipse transform="matrix(-0.998 0.0635 -0.0635 -0.998 587.5468 699.3346)" style="fill:#A5A0B7;" cx="282.665" cy="359" rx="1" ry="1.835"></ellipse></g></g></g><g><g><path style="fill:#535759;stroke:#000000;stroke-linecap:round;stroke-linejoin:round;" d="M259.499,319c0,0,2,16.333,7.334,21c3.334-6,5.334-8.667,5.334-8.667s6.5,3.168,7.5,2.835c-1.668-5-4.168-7.835-4.168-7.835l-0.666-7.666L259.499,319z"></path><path style="fill:#35393B;" d="M274.917,326.5l-0.25-5.25c0,0-7.5,2.25-7.75,3.25S274.917,326.5,274.917,326.5z"></path><g><path style="fill:none;stroke:#000000;stroke-linecap:round;stroke-linejoin:round;" d="M272.292,331.625c0,0-8.418-5.374-9.543-7.874c-0.416-1.084-0.832-4-0.832-4"></path><path style="fill:none;stroke:#000000;stroke-linecap:round;stroke-linejoin:round;" d="M268.749,320.417c0,0,1.75,1.417,1.918,1.834c0.166,0.833,0,1.75,0,1.75s0.082,4.916,1.25,7.083"></path><path style="fill:none;stroke:#000000;stroke-linecap:round;stroke-linejoin:round;" d="M270.833,320.417c0,0,1.5,0.999,1.666,1.416c0.168,0.417-0.166,2.084-0.166,2.084s0.416,5.833,1.584,8"></path></g></g><g><path style="fill:#535759;stroke:#000000;stroke-linecap:round;stroke-linejoin:round;" d="M240.5,319c0,0-2,16.333-7.333,21c-3.333-6-5.333-8.667-5.333-8.667s-6.5,3.168-7.5,2.835c1.667-5,4.167-7.835,4.167-7.835l0.667-7.666L240.5,319z"></path><path style="fill:#35393B;" d="M225.083,326.5l0.25-5.25c0,0,7.5,2.25,7.75,3.25S225.083,326.5,225.083,326.5z"></path><g><path style="fill:none;stroke:#000000;stroke-linecap:round;stroke-linejoin:round;" d="M227.708,331.625c0,0,8.417-5.374,9.542-7.874c0.417-1.084,0.833-4,0.833-4"></path><path style="fill:none;stroke:#000000;stroke-linecap:round;stroke-linejoin:round;" d="M231.25,320.417c0,0-1.75,1.417-1.917,1.834c-0.167,0.833,0,1.75,0,1.75s-0.083,4.916-1.25,7.083"></path><path style="fill:none;stroke:#000000;stroke-linecap:round;stroke-linejoin:round;" d="M229.166,320.417c0,0-1.5,0.999-1.667,1.416s0.167,2.084,0.167,2.084s-0.417,5.833-1.583,8"></path></g></g></g></g><g><path style="fill:#6E6E6E;stroke:#000000;stroke-linecap:round;stroke-linejoin:round;" d="M237.375,332c1-0.75,18.25-7.25,23.75-9.5c1,2.75,1.25,3.5,1.25,3.5l-26.75,10.75L237.375,332z"></path><path style="fill:#6E6E6E;stroke:#000000;stroke-linecap:round;stroke-linejoin:round;" d="M262.625,332c-1-0.75-18.25-7.25-23.75-9.5c-1,2.75-1.25,3.5-1.25,3.5l26.75,10.75L262.625,332z"></path></g></g></g><rect x="225.334" y="316.333" style="fill:#35393B;stroke:#000000;stroke-linecap:round;stroke-linejoin:round;" width="49.332" height="4"></rect></g></g></g></svg>