<svg xmlns="http://www.w3.org/2000/svg" width="500" height="500" version="1.1"><g id="x025"><g><g><g><path style="fill:#6E6E6E;stroke:#000000;stroke-linecap:round;stroke-linejoin:round;" d="M229.27,284.997c0,0-5.269,2.169-9.769,9.003c-5,10.166-10.333,25.333-10.333,25.333s-12.155,29.626-12.5,31.667c4.166,5.75,13.416,8.25,13.416,8.25s11.793-26.518,12.66-29.802c1.461-6.469,7.806-24.756,7.806-24.756L229.27,284.997z"></path><path style="fill:#505050;" d="M226.482,295.75c0,0-3.946,5.933-4.583,9.5c-0.636,3.569,2.858,7.082,3.743,7.305c3.272-3.938,4.625-9.38,4.625-9.38L226.482,295.75z"></path><path style="fill:none;stroke:#000000;stroke-linecap:round;stroke-linejoin:round;" d="M224.715,311.997c-4.088-4.327-3.43-11.788-3.43-11.788"></path></g><g><path style="fill:#6E6E6E;stroke:#000000;stroke-linecap:round;stroke-linejoin:round;" d="M270.73,284.997c0,0,5.27,2.169,9.77,9.003c5,10.166,10.332,25.333,10.332,25.333s12.156,29.626,12.5,31.667c-4.166,5.75-13.416,8.25-13.416,8.25s-11.793-26.518-12.66-29.802c-1.461-6.469-7.805-24.756-7.805-24.756L270.73,284.997z"></path><path style="fill:#505050;" d="M273.186,295.75c0,0,3.946,5.933,4.583,9.5c0.637,3.569-2.857,7.082-3.742,7.305c-3.272-3.938-4.626-9.38-4.626-9.38L273.186,295.75z"></path><path style="fill:none;stroke:#000000;stroke-linecap:round;stroke-linejoin:round;" d="M275.285,311.997c4.088-4.327,3.43-11.788,3.43-11.788"></path></g></g><g><g><path style="fill:#6E6E6E;stroke:#000000;stroke-linecap:round;stroke-linejoin:round;" d="M237.667,280c0,0-5.167,2.5-8,5.5c-1,5-3.333,18.166-3.333,18.166c-1.167,5.667-1.667,13-2.167,20c-5.667,19.5-8.667,35.667-9.833,42c0.383,1.016,7.64,4.621,9.579,5.453c6.834,2.935,15.416,1.589,26.088,1.572V290.5C242.667,285.833,237.667,280,237.667,280z"></path><line style="fill:none;stroke:#000000;stroke-linecap:round;stroke-linejoin:round;" x1="245.251" y1="294.423" x2="248.251" y2="297.724"></line></g><g><path style="fill:#6E6E6E;stroke:#000000;stroke-linecap:round;stroke-linejoin:round;" d="M262.332,280c0,0,5.168,2.5,8,5.5c1,5,3.334,18.166,3.334,18.166c1.166,5.667,1.666,13,2.166,20c5.668,19.5,8.668,35.667,9.834,42c-0.383,1.016-7.641,4.621-9.578,5.453c-6.834,2.935-15.416,1.589-26.087,1.572V290.5C257.332,285.833,262.332,280,262.332,280z"></path><line style="fill:none;stroke:#000000;stroke-linecap:round;stroke-linejoin:round;" x1="254.748" y1="294.423" x2="251.748" y2="297.724"></line></g></g></g></g></svg>