<svg xmlns="http://www.w3.org/2000/svg" width="500" height="500" version="1.1"><g id="x9235"><g><g><path style="fill:#6E6E6E;stroke:#000000;stroke-linecap:round;stroke-linejoin:round;" d="M264.334,280.459c0,0,8.635,4.64,9.668,5.5c2,1.667,3.875,4.458,5.041,6.291c1.168,1.833,9.918,21.667,11.752,26l8.875,22.125v3.75l-11.125,5.5c0,0-2.627-0.375-3.627-2.125c-2.725-4.575-5.191-10.488-6.082-11.875c-1.502-2.333-8.502-18.666-8.502-18.666"></path><path style="fill:#505050;" d="M273.5,295.168c0,0,8.667,13.165,8.667,15.832s-6.334,10.667-6.334,8.667S273.5,295.168,273.5,295.168z"></path><path style="fill:#6E6E6E;stroke:#000000;stroke-linecap:round;stroke-linejoin:round;" d="M300.17,342.25l2.5,7.75c0,0-5.002,6.667-12.668,5.667l-3.5-7.167C286.502,348.5,291.502,347.75,300.17,342.25z"></path><path style="fill:#6E6E6E;stroke:#000000;stroke-linecap:round;stroke-linejoin:round;" d="M235.664,280.459c0,0-8.635,4.64-9.667,5.5c-2,1.667-3.875,4.458-5.042,6.291s-9.916,21.667-11.75,26l-8.875,22.125v3.75l11.125,5.5c0,0,2.625-0.375,3.625-2.125c2.727-4.575,5.192-10.488,6.084-11.875c1.5-2.333,8.5-18.666,8.5-18.666"></path><g><path style="fill:#505050;" d="M225.167,295.667c0,0-7.333,12.666-7.333,15.333s6.333,10.667,6.333,8.667S225.167,295.667,225.167,295.667z"></path></g><path style="fill:#6E6E6E;stroke:#000000;stroke-linecap:round;stroke-linejoin:round;" d="M280.816,336.381c-0.086-0.677-2.379-1.789-2.543-2.699c-0.857-0.169-3.07-21.485-3.256-23.123c-0.207-1.826-4.045-14.274-5.563-19.144l-0.951-8.872l-7.715-3.376c-3.924,3.751-8.857,3.252-11.459,3.701c-2.602-0.449-6.898,0.05-10.823-3.701l-7.713,3.376l-0.953,8.872c-1.515,4.869-5.354,17.317-5.56,19.144c-0.186,1.638-2.399,22.954-3.257,23.123c-0.164,0.91-2.456,2.022-2.543,2.699c-0.197,1.568,1.371,6.063,1.371,6.063l29.796-0.322l29.795,0.322C279.443,342.444,281.016,337.949,280.816,336.381z"></path><path style="fill:#505050;" d="M243.167,292.501c0,0,4.999,4.833,6.833,4.333s8.667-4.5,8.667-4.5l-8.333-9l-5.667,2.167L243.167,292.501z"></path><polygon style="fill:#5B9C00;stroke:#000000;stroke-linecap:round;stroke-linejoin:round;" points="250,310.104 255.438,309.75 251.938,292 250,292.215 248.063,292 244.563,309.75 250,310.104 250,310.104 250,310.104 250,310.104 "></polygon><path style="fill:#5B9C00;stroke:#000000;stroke-linecap:round;stroke-linejoin:round;" d="M254.313,285.28c0,0-2.119-0.136-4.313-0.161l0,0l0,0l0,0l0,0c-2.194,0.025-4.313,0.161-4.313,0.161s0.149,5.07,1.946,7.605c0.989-0.017,1.438-0.03,2.367-0.039c0.93,0.009,1.378,0.022,2.368,0.039C254.165,290.351,254.313,285.28,254.313,285.28z"></path><path style="fill:#6E6E6E;stroke:#000000;stroke-linecap:round;stroke-linejoin:round;" d="M199.83,342.25l-2.5,7.75c0,0,5.001,6.667,12.667,5.667l3.5-7.167C213.497,348.5,208.497,347.75,199.83,342.25z"></path><g><path style="fill:#334357;stroke:#000000;stroke-linecap:round;stroke-linejoin:round;" d="M234.33,280.89c0,0,2.856,12.629,6,17.203c3.144,4.575,14.209,11.647,14.209,11.647l-0.209,24.041l-20.625,5.136l-13.125-4.622c0.865-19.715,1.615-19.82,1.779-22.62c0.165-2.815,2.68-17.946,2.68-17.946l0.666-8.857C225.705,284.871,230.194,282.123,234.33,280.89z"></path><polygon style="fill:#152539;" points="240.167,331.761 240.167,337.001 249.833,334.001 "></polygon><path style="fill:#152539;" d="M237.667,293.334c0,0,1.833,5.001,2.667,5.834s7.5,6.333,7.5,6.333l-6.833,5.5C241,311.001,237.5,298.667,237.667,293.334z"></path><g><path d="M234.151,337.382l-13.572-4.905l0.17-0.471l13.427,4.853l18.24-4.726l0.246-21.33c-1.232-0.872-11.355-8.072-12.941-10.494c-3.761-3.537-6.759-17.858-6.885-18.468l0.489-0.102c0.03,0.148,3.104,14.834,6.759,18.224l0.041,0.049c1.538,2.414,12.818,10.378,12.932,10.458l0.109,0.075l-0.002,0.132l-0.252,21.845L234.151,337.382z"></path></g></g><g><path style="fill:#334357;stroke:#000000;stroke-linecap:round;stroke-linejoin:round;" d="M263.748,280.12c0,0-2.855,12.628-6,17.203c-3.143,4.574-19.208,11.646-19.208,11.646l0.208,24.043l25.625,5.135l13.125-4.622c-0.865-19.716-1.613-19.82-1.779-22.621c-0.164-2.814-2.678-17.946-2.678-17.946l-0.666-8.858C272.375,284.1,267.885,281.352,263.748,280.12z"></path><g><path d="M263.934,336.608l-0.068-0.014l-23.698-4.834l-0.254-22.013l0.142-0.069c0.164-0.08,16.371-8.042,17.898-10.437l0.041-0.049c3.656-3.39,6.729-18.077,6.76-18.226l0.49,0.102c-0.127,0.609-3.125,14.935-6.887,18.47c-1.635,2.443-16.228,9.676-17.94,10.52l0.245,21.292l23.234,4.74l13.436-4.854l0.17,0.471L263.934,336.608z"></path></g></g><g><circle style="fill:#C1C1C1;stroke:#000000;stroke-linecap:round;stroke-linejoin:round;" cx="244.298" cy="313.28" r="2.765"></circle><circle style="fill:#8C8C8C;" cx="244.298" cy="313.28" r="1.621"></circle><circle cx="243.677" cy="312.684" r="0.306"></circle><circle cx="243.677" cy="313.812" r="0.306"></circle><circle cx="244.804" cy="312.684" r="0.306"></circle><circle cx="244.804" cy="313.812" r="0.306"></circle></g><g><circle style="fill:#C1C1C1;stroke:#000000;stroke-linecap:round;stroke-linejoin:round;" cx="244.298" cy="325.28" r="2.765"></circle><circle style="fill:#8C8C8C;" cx="244.298" cy="325.28" r="1.621"></circle><circle cx="243.677" cy="324.684" r="0.306"></circle><circle cx="243.677" cy="325.812" r="0.306"></circle><circle cx="244.804" cy="324.684" r="0.306"></circle><circle cx="244.804" cy="325.812" r="0.306"></circle></g><g><circle style="fill:#C1C1C1;stroke:#000000;stroke-linecap:round;stroke-linejoin:round;" cx="257.301" cy="313.28" r="2.766"></circle><circle style="fill:#8C8C8C;" cx="257.3" cy="313.28" r="1.62"></circle><circle cx="256.679" cy="312.684" r="0.306"></circle><circle cx="256.679" cy="313.812" r="0.306"></circle><circle cx="257.806" cy="312.684" r="0.306"></circle><circle cx="257.806" cy="313.812" r="0.306"></circle></g><g><circle style="fill:#C1C1C1;stroke:#000000;stroke-linecap:round;stroke-linejoin:round;" cx="257.301" cy="325.28" r="2.766"></circle><circle style="fill:#8C8C8C;" cx="257.3" cy="325.28" r="1.62"></circle><circle cx="256.679" cy="324.684" r="0.306"></circle><circle cx="256.679" cy="325.812" r="0.306"></circle><circle cx="257.806" cy="324.684" r="0.306"></circle><circle cx="257.806" cy="325.812" r="0.306"></circle></g></g><g><g><path style="fill:#6E6E6E;stroke:#000000;stroke-linecap:round;stroke-linejoin:round;" d="M240.667,279.083c0,0,4,3.155,9.666,3.822c0,0-3.25,2.011-4,3.011s-2.583,7.25-3.25,9.25c0,0-5.375-7.625-6.416-14.666c1.166-1.5,2.5-2,2.5-2l1.666-0.084L240.667,279.083z"></path><path style="fill:#6E6E6E;stroke:#000000;stroke-linecap:round;stroke-linejoin:round;" d="M259.334,279.083c0,0-4,3.155-9.667,3.822c0,0,3.25,2.011,4,3.011s2.584,7.25,3.25,9.25c0,0,5.375-7.625,6.416-14.666c-1.166-1.5-2.5-2-2.5-2l-1.666-0.084L259.334,279.083z"></path></g><g><g><g><path style="fill:#C1C1C1;stroke:#000000;stroke-width:0.5;stroke-linecap:round;stroke-linejoin:round;" d="M244.155,288.168c-0.173-0.447-0.488-0.797-0.869-1.029l0.225-0.507l-0.509-0.225l-0.226,0.507c-0.426-0.123-0.891-0.121-1.336,0.052c-0.445,0.171-0.792,0.483-1.023,0.861l-0.507-0.226l-0.227,0.51l0.507,0.225c-0.126,0.428-0.125,0.898,0.049,1.346c0.171,0.444,0.482,0.791,0.861,1.025l-0.222,0.496l0.51,0.226l0.22-0.494c0.429,0.125,0.897,0.122,1.346-0.05c0.449-0.175,0.797-0.489,1.029-0.87l0.497,0.219l0.225-0.507l-0.497-0.223C244.331,289.078,244.328,288.614,244.155,288.168z"></path></g><path style="fill:#C1C1C1;stroke:#000000;stroke-width:0.5;stroke-linecap:round;stroke-linejoin:round;" d="M243.478,288.43c-0.211-0.547-0.734-0.876-1.289-0.874l-1.554-2.588l0.63,2.952c-0.399,0.371-0.556,0.961-0.348,1.501c0.21,0.544,0.729,0.873,1.278,0.873l1.475,2.526l-0.57-2.867C243.52,289.585,243.691,288.982,243.478,288.43z"></path><g><path style="fill:#C1C1C1;stroke:#000000;stroke-width:0.5;stroke-linecap:round;stroke-linejoin:round;" d="M242.685,288.737c0.104,0.27-0.029,0.57-0.3,0.674c-0.269,0.106-0.57-0.027-0.675-0.297c-0.104-0.271,0.03-0.571,0.3-0.676C242.278,288.335,242.58,288.468,242.685,288.737z"></path></g></g><g><g><path style="fill:#C1C1C1;stroke:#000000;stroke-width:0.5;stroke-linecap:round;stroke-linejoin:round;" d="M255.846,288.168c0.172-0.447,0.488-0.797,0.869-1.029l-0.225-0.507l0.508-0.225l0.227,0.507c0.426-0.123,0.891-0.121,1.336,0.052c0.445,0.171,0.791,0.483,1.023,0.861l0.506-0.226l0.227,0.51l-0.506,0.225c0.125,0.428,0.125,0.898-0.049,1.346c-0.172,0.444-0.482,0.791-0.861,1.025l0.221,0.496l-0.51,0.226l-0.219-0.494c-0.43,0.125-0.898,0.122-1.346-0.05c-0.449-0.175-0.797-0.489-1.029-0.87l-0.498,0.219l-0.225-0.507l0.498-0.223C255.67,289.078,255.672,288.614,255.846,288.168z"></path></g><path style="fill:#C1C1C1;stroke:#000000;stroke-width:0.5;stroke-linecap:round;stroke-linejoin:round;" d="M256.523,288.43c0.211-0.547,0.734-0.876,1.289-0.874l1.553-2.588l-0.629,2.952c0.398,0.371,0.555,0.961,0.348,1.501c-0.211,0.544-0.73,0.873-1.279,0.873l-1.475,2.526l0.57-2.867C256.48,289.585,256.309,288.982,256.523,288.43z"></path><g><path style="fill:#C1C1C1;stroke:#000000;stroke-width:0.5;stroke-linecap:round;stroke-linejoin:round;" d="M257.316,288.737c-0.104,0.27,0.029,0.57,0.299,0.674c0.27,0.106,0.57-0.027,0.676-0.297c0.104-0.271-0.031-0.571-0.301-0.676C257.723,288.335,257.42,288.468,257.316,288.737z"></path></g></g></g></g></g></g></svg>