<svg xmlns="http://www.w3.org/2000/svg" width="500" height="500" version="1.1"><g id="x9236"><g><g><g><g><path style="fill:#483E3C;" d="M292.769,313.67c-2.33-1.34-5.66-5.67-5.66-5.67s-6.77-12.67-9.1-17.33c-4.29-5.29-15.75-10.17-18.42-10.17c-0.25-0.75-0.75-1.75-0.75-1.75l-4.17,3.25l-5-2.33l-5,2.33l-4.17-3.25c0,0-0.5,1-0.75,1.75c-2.67,0-14.13,4.88-18.42,10.17c-2.33,4.66-9.1,17.33-9.1,17.33s-3.33,4.33-5.66,5.67c-0.34,3.33,2.33,8,2.33,8l14,5.33l5.72-25.25l21.05,10.92l21.05-10.92l5.72,25.25l14-5.33C290.438,321.67,293.108,317,292.769,313.67z"></path><path style="opacity:0.2;fill:#FFFFFF;" d="M292.769,313.667c-2.333-1.333-5.666-5.667-5.666-5.667s-6.767-12.666-9.101-17.333c-4.291-5.292-15.749-10.167-18.416-10.167c-0.25-0.75-0.75-1.75-0.75-1.75l-4.167,3.25l-5-2.333l-5,2.333l-4.167-3.25c0,0-0.5,1-0.75,1.75c-2.667,0-14.125,4.875-18.417,10.167c-2.333,4.667-9.1,17.333-9.1,17.333s-3.333,4.334-5.667,5.667c-0.333,3.333,2.333,8,2.333,8l14,5.333l5.725-25.25l21.042,10.917l21.042-10.917l5.725,25.25l14-5.333C290.436,321.667,293.102,317,292.769,313.667z"></path><polygon style="fill:#6E6E6E;" points="258.875,280.209 254.292,283.584 250,282.57 245.708,283.584 241.125,280.209 240.542,281.376 245.333,284.959 250,284.208 254.667,284.959 259.458,281.376 "></polygon><path style="fill:none;stroke:#000000;stroke-linecap:round;stroke-linejoin:round;" d="M292.769,313.67c-2.33-1.34-5.66-5.67-5.66-5.67s-6.77-12.67-9.1-17.33c-4.29-5.29-15.75-10.17-18.42-10.17c-0.25-0.75-0.75-1.75-0.75-1.75l-4.17,3.25l-5-2.33l-5,2.33l-4.17-3.25c0,0-0.5,1-0.75,1.75c-2.67,0-14.13,4.88-18.42,10.17c-2.33,4.66-9.1,17.33-9.1,17.33s-3.33,4.33-5.66,5.67c-0.34,3.33,2.33,8,2.33,8l14,5.33l5.72-25.25l21.05,10.92l21.05-10.92l5.72,25.25l14-5.33C290.438,321.67,293.108,317,292.769,313.67z"></path></g><g><path style="fill:#2A201E;" d="M226.833,301.251c0,0-4.5,2.832-4.75,4.666s1.25,8.084,2.417,9C225.583,307.167,226.833,301.251,226.833,301.251z"></path><path style="fill:none;stroke:#000000;stroke-linecap:round;stroke-linejoin:round;" d="M220.833,301.001c0,0,1.583,7.416,4.75,11.083"></path><path style="fill:#2A201E;" d="M272.506,301.251c0,0,4.5,2.832,4.75,4.666s-1.25,8.084-2.416,9C273.756,307.167,272.506,301.251,272.506,301.251z"></path><path style="fill:none;stroke:#000000;stroke-linecap:round;stroke-linejoin:round;" d="M278.506,301.001c0,0-1.583,7.416-4.75,11.083"></path></g></g><g><g><path style="fill:#FFFFFF;stroke:#000000;stroke-linecap:round;stroke-linejoin:round;" d="M208.684,321c0,0-2.2,5.5-2.45,7c5.75,3,15.2,5.947,15.2,5.947l2-7.697L208.684,321z"></path><g><polygon style="fill:#6E6E6E;" points="208.067,324.035 222.434,329.301 221.768,330.968 207.434,325.635 "></polygon><path style="fill:#6E6E6E;" d="M207.684,325.542c0,0,1.084,1.918,1.542,1.959s0.292-2.125,0.292-2.125s1.248-1.157,1.083-1.459c-0.25-0.458-2.292,0.375-2.708,0.792C207.851,325.167,207.684,325.542,207.684,325.542z"></path><path style="fill:#6E6E6E;" d="M211.143,326.791c0,0,1.084,1.918,1.542,1.959s0.291-2.125,0.291-2.125s1.248-1.157,1.084-1.459c-0.25-0.458-2.292,0.375-2.709,0.792C211.31,326.416,211.143,326.791,211.143,326.791z"></path><path style="fill:#6E6E6E;" d="M214.976,328.125c0,0,1.084,1.918,1.542,1.959s0.292-2.125,0.292-2.125s1.248-1.157,1.083-1.459c-0.25-0.458-2.292,0.375-2.708,0.792C215.143,327.75,214.976,328.125,214.976,328.125z"></path><path style="fill:#6E6E6E;" d="M218.975,329.749c0,0,1.084,1.918,1.542,1.959s0.292-2.125,0.292-2.125s1.248-1.157,1.083-1.459c-0.25-0.458-2.292,0.375-2.708,0.792C219.142,329.374,218.975,329.749,218.975,329.749z"></path></g></g><g><path style="fill:#FFFFFF;stroke:#000000;stroke-linecap:round;stroke-linejoin:round;" d="M291.316,321c0,0,2.2,5.5,2.45,7c-5.75,3-15.2,5.947-15.2,5.947l-2-7.697L291.316,321z"></path><g><polygon style="fill:#6E6E6E;" points="291.933,324.035 277.566,329.301 278.232,330.968 292.566,325.635 "></polygon><path style="fill:#6E6E6E;" d="M292.316,325.542c0,0-1.084,1.918-1.542,1.959s-0.292-2.125-0.292-2.125s-1.248-1.157-1.083-1.459c0.25-0.458,2.292,0.375,2.708,0.792C292.149,325.167,292.316,325.542,292.316,325.542z"></path><path style="fill:#6E6E6E;" d="M288.857,326.791c0,0-1.084,1.918-1.542,1.959s-0.291-2.125-0.291-2.125s-1.248-1.157-1.084-1.459c0.25-0.458,2.292,0.375,2.709,0.792C288.69,326.416,288.857,326.791,288.857,326.791z"></path><path style="fill:#6E6E6E;" d="M285.024,328.125c0,0-1.084,1.918-1.542,1.959s-0.291-2.125-0.291-2.125s-1.248-1.157-1.084-1.459c0.25-0.458,2.292,0.375,2.709,0.792C284.857,327.75,285.024,328.125,285.024,328.125z"></path><path style="fill:#6E6E6E;" d="M281.025,329.749c0,0-1.084,1.918-1.542,1.959s-0.292-2.125-0.292-2.125s-1.248-1.157-1.083-1.459c0.25-0.458,2.292,0.375,2.708,0.792C280.858,329.374,281.025,329.749,281.025,329.749z"></path></g></g></g></g><g><path style="fill:#2A201E;stroke:#000000;stroke-linecap:round;stroke-linejoin:round;" d="M259.166,308L250,311.833L240.833,308c0,0-0.833,13.5-1.667,30.667C242.833,340,250,339.833,250,339.833s7.167,0.167,10.834-1.166C260,321.5,259.166,308,259.166,308z"></path><g><rect x="245.417" y="323.666" transform="matrix(0.8572 -0.5149 0.5149 0.8572 -131.4866 175.0794)" style="fill:#483E3C;stroke:#000000;stroke-linecap:round;stroke-linejoin:round;" width="9.166" height="2"></rect><rect x="245.417" y="323.666" transform="matrix(-0.8572 -0.5149 0.5149 -0.8572 297.1329 731.713)" style="fill:#483E3C;stroke:#000000;stroke-linecap:round;stroke-linejoin:round;" width="9.166" height="2"></rect></g><g><rect x="245.417" y="331.5" transform="matrix(0.8572 -0.5149 0.5149 0.8572 -135.5205 176.1978)" style="fill:#483E3C;stroke:#000000;stroke-linecap:round;stroke-linejoin:round;" width="9.166" height="2"></rect><rect x="245.417" y="331.5" transform="matrix(-0.8572 -0.5149 0.5149 -0.8572 293.099 746.2626)" style="fill:#483E3C;stroke:#000000;stroke-linecap:round;stroke-linejoin:round;" width="9.166" height="2"></rect></g><g><g><path style="fill:#483E3C;stroke:#000000;stroke-linecap:round;stroke-linejoin:round;" d="M253.175,338l1.815,12.25c0,0,22.097-1.5,26.334-6.25c-1.815-4.25-5.146-11.75-5.146-11.75L253.175,338z"></path><g><path style="fill:#FFFFFF;" d="M279.583,341.25l1.136,2.75c0,0-4.011,4.063-25.198,5.813c-0.227-1.125-0.454-3.188-0.454-3.188S274.665,344.938,279.583,341.25z"></path><path style="fill:#FFFFFF;" d="M279.156,340.543c0,0-3.571,2.036-11.982,3.555c-8.577,1.549-12.213,1.375-12.213,1.375l-0.197-0.875c0,0,5.227,0.003,12.157-1.367c7.063-1.396,11.906-3.438,11.906-3.438L279.156,340.543z"></path><path style="fill:#FFFFFF;" d="M266.342,341.418c6.517-1.289,11.133-3.122,11.809-3.398l0.31,0.772c-0.645,0.339-4.281,2.124-11.866,3.493c-7.365,1.33-11.079,1.39-11.983,1.38l-0.132-0.884C255.656,342.76,260.358,342.601,266.342,341.418z"></path></g></g><g><path style="fill:#483E3C;stroke:#000000;stroke-linecap:round;stroke-linejoin:round;" d="M246.825,338l-1.815,12.25c0,0-22.097-1.5-26.334-6.25c1.815-4.25,5.146-11.75,5.146-11.75L246.825,338z"></path><g><path style="fill:#FFFFFF;" d="M220.417,341.25l-1.136,2.75c0,0,4.011,4.063,25.198,5.813c0.227-1.125,0.454-3.188,0.454-3.188S225.335,344.938,220.417,341.25z"></path><path style="fill:#FFFFFF;" d="M220.844,340.543c0,0,3.571,2.036,11.982,3.555c8.577,1.549,12.213,1.375,12.213,1.375l0.197-0.875c0,0-5.227,0.003-12.157-1.367c-7.063-1.396-11.906-3.438-11.906-3.438L220.844,340.543z"></path><path style="fill:#FFFFFF;" d="M233.658,341.418c-6.517-1.289-11.133-3.122-11.809-3.398l-0.31,0.772c0.645,0.339,4.281,2.124,11.866,3.493c7.365,1.33,11.079,1.39,11.983,1.38l0.132-0.884C244.344,342.76,239.642,342.601,233.658,341.418z"></path></g></g></g><g><g><path style="fill:#483E3C;stroke:#000000;stroke-linecap:round;stroke-linejoin:round;" d="M231.934,297l-5,4.75c0,0-2,5-2,9.25s-0.75,13.25-1.25,16c0,0-2.5,2.25-2.5,3s1,5.5,1,5.5s10.5,4.898,25,3.898c0-11,0-29.148,0-29.148L231.934,297z"></path><path style="fill:#2A201E;" d="M228.309,301.25c0,0,3.25,6.5,7.125,8.5s11.5,0.75,11,0.375S228.309,301.25,228.309,301.25z"></path><g><circle style="fill:#6E6E6E;stroke:#000000;stroke-linecap:round;stroke-linejoin:round;" cx="243.559" cy="322.125" r="1.875"></circle><circle style="fill:#6E6E6E;stroke:#000000;stroke-linecap:round;stroke-linejoin:round;" cx="243.559" cy="329.958" r="1.875"></circle></g></g><g><path style="fill:#483E3C;stroke:#000000;stroke-linecap:round;stroke-linejoin:round;" d="M268.066,297l5,4.75c0,0,2,5,2,9.25s0.75,13.25,1.25,16c0,0,2.5,2.25,2.5,3s-1,5.5-1,5.5s-10.5,4.898-25,3.898c0-11,0-29.148,0-29.148L268.066,297z"></path><path style="fill:#2A201E;" d="M271.691,301.25c0,0-3.25,6.5-7.125,8.5s-11.5,0.75-11,0.375S271.691,301.25,271.691,301.25z"></path><g><circle style="fill:#6E6E6E;stroke:#000000;stroke-linecap:round;stroke-linejoin:round;" cx="256.441" cy="322.125" r="1.875"></circle><circle style="fill:#6E6E6E;stroke:#000000;stroke-linecap:round;stroke-linejoin:round;" cx="256.441" cy="329.958" r="1.875"></circle></g></g></g><g><path style="fill:#FFFFFF;stroke:#000000;stroke-linecap:round;stroke-linejoin:round;" d="M250,293.667c-3.384,0-9.096,2.235-11,6.816c5.711,7.417,11,12.434,11,12.434s5.289-5.017,11-12.434C259.096,295.902,253.384,293.667,250,293.667z"></path><g><g><path style="fill:#FFFFFF;stroke:#000000;stroke-linecap:round;stroke-linejoin:round;" d="M249.601,312.667c0,0-11.917-21.417-14.917-30.917c-2-0.25-11,4.5-14.75,9.25C221.684,297.75,238.518,309.084,249.601,312.667z"></path><path style="fill:#6E6E6E;" d="M223.996,287.688c0,0,6.188,11.688,22.438,20.188c-0.5-1-1.75-3.313-1.75-3.313s-12.625-8-18.688-18.188C224.996,286.875,223.996,287.688,223.996,287.688z"></path></g><g><path style="fill:#FFFFFF;stroke:#000000;stroke-linecap:round;stroke-linejoin:round;" d="M250.399,312.667c0,0,11.917-21.417,14.917-30.917c2-0.25,11,4.5,14.75,9.25C278.316,297.75,261.482,309.084,250.399,312.667z"></path><path style="fill:#6E6E6E;" d="M276.004,287.688c0,0-6.188,11.688-22.438,20.188c0.5-1,1.75-3.313,1.75-3.313s12.625-8,18.688-18.188C275.004,286.875,276.004,287.688,276.004,287.688z"></path></g></g></g></g></g></g></svg>