<svg xmlns="http://www.w3.org/2000/svg" width="500" height="500" version="1.1"><g id="x9237"><g><g><g><polygon style="fill:#6E6E6E;stroke:#000000;stroke-linecap:round;stroke-linejoin:round;" points="233.625,347.125 268.25,347.5 265.75,334.75 236,336.75 "></polygon><g><polygon style="fill:#FEFEFE;stroke:#000000;stroke-linecap:round;stroke-linejoin:round;" points="250,280.852 242,279.833 242,306.334 250,314 258,306.334 258,279.833 "></polygon><path style="fill:#E4E0F3;" d="M242.667,280.166l7.583,1.167l8.084-1.25l2.583,11.75c0,0-1.167,2.25-10.833,2.25s-8.833-1.917-8.833-1.917L242.667,280.166z"></path></g><g><g><path style="fill:#242833;stroke:#000000;stroke-linecap:round;stroke-linejoin:round;" d="M245.705,284.927c0.286,5.597,4.295,10.072,4.295,10.072s4.009-4.476,4.295-10.072C253.149,283.807,246.851,283.807,245.705,284.927z"></path><polygon style="fill:#242833;stroke:#000000;stroke-linecap:round;stroke-linejoin:round;" points="252.004,292.422 247.996,292.422 244.419,313.037 250,319.05 255.581,313.037 "></polygon></g></g><g><path style="fill:#FEFEFE;stroke:#000000;stroke-linecap:round;stroke-linejoin:round;" d="M248.438,282.375c0,0-0.625,4.25-0.75,5.928c-1,0.5-8.166-1.386-8.166-1.386l3.083-7.417l7.25,1.184L248.438,282.375z"></path><path style="fill:#FEFEFE;stroke:#000000;stroke-linecap:round;stroke-linejoin:round;" d="M250.146,280.684l7.249-1.184l3.083,7.417c0,0-7.166,1.886-8.166,1.386c-0.125-1.678-0.75-5.928-0.75-5.928L250.146,280.684z"></path></g></g><g><g><polygon style="fill:#242833;stroke:#000000;stroke-linecap:round;stroke-linejoin:round;" points="239.747,299.25 250.497,312.5 250.497,340.916 241.997,353.5 232.247,349.5 "></polygon><path style="fill:#15181D;stroke:#000000;stroke-linecap:round;stroke-linejoin:round;" d="M241.748,296.5c0,0,9.25,17,9,16.25c-0.25-0.75-10.25-5.5-10.25-5.5L241.748,296.5z"></path></g><g><polygon style="fill:#242833;stroke:#000000;stroke-linecap:round;stroke-linejoin:round;" points="260.253,299.25 249.503,312.5 249.503,340.916 258.003,353.5 267.753,349.5 "></polygon><g><circle style="fill:#E7AD4E;stroke:#000000;stroke-linecap:round;stroke-linejoin:round;" cx="252.375" cy="318.375" r="1.875"></circle><circle style="fill:#E7AD4E;stroke:#000000;stroke-linecap:round;stroke-linejoin:round;" cx="252.375" cy="328.375" r="1.875"></circle><circle style="fill:#E7AD4E;stroke:#000000;stroke-linecap:round;stroke-linejoin:round;" cx="252.375" cy="338.375" r="1.875"></circle></g><path style="fill:#15181D;stroke:#000000;stroke-linecap:round;stroke-linejoin:round;" d="M258.253,296.5c0,0-9.25,17-9,16.25s10.25-5.5,10.25-5.5L258.253,296.5z"></path></g></g></g><g><g><g><g><g><path style="fill:#6E6E6E;stroke:#000000;stroke-linecap:round;stroke-linejoin:round;" d="M223.642,288.334c0,0-5.167,3.666-5.667,4.916c-1.421,3.979-5.041,17.142-9.25,28c-7,14-12.5,31.5-12.5,31.5l13.75,5.5c0,0,12.25-22.75,15.5-31.25c2.5-22.25,3.5-38.75,3.5-38.75L223.642,288.334z"></path><path style="fill:#505050;" d="M224.975,298c-0.75,0.25-4.75,6.75-5.25,9.75s3.75,9.5,5.5,11C228.225,308.5,224.975,298,224.975,298z"></path><path style="fill:none;stroke:#000000;stroke-linecap:round;stroke-linejoin:round;" d="M220.225,304c0,0,3.25,8.25,5.5,11.25"></path></g><g><path style="fill:#E7AD4E;stroke:#000000;stroke-linecap:round;stroke-linejoin:round;" d="M217.975,346c0,0-7.5-5.5-18.75-8.75c-0.507,1.248-0.94,2.473-1.322,3.66c6.466,2.146,12.486,5.153,18.064,8.806C217.16,347.521,217.975,346,217.975,346z"></path><path style="fill:#242833;stroke:#000000;stroke-linecap:round;stroke-linejoin:round;" d="M197.903,340.91c-2.065,6.42-2.428,11.59-2.428,11.59s13.5,6.5,15.5,6.25c1.74-3.078,3.618-6.506,4.992-9.034C210.39,346.063,204.37,343.057,197.903,340.91z"></path></g></g></g><g><g><g><path style="fill:#6E6E6E;stroke:#000000;stroke-linecap:round;stroke-linejoin:round;" d="M276.359,288.334c0,0,5.166,3.666,5.666,4.916c1.421,3.979,5.041,17.142,9.25,28c7,14,12.5,31.5,12.5,31.5l-13.75,5.5c0,0-12.25-22.75-15.5-31.25c-2.5-22.25-3.5-38.75-3.5-38.75L276.359,288.334z"></path><path style="fill:#505050;" d="M275.025,298c0.75,0.25,4.75,6.75,5.25,9.75s-3.75,9.5-5.5,11C271.775,308.5,275.025,298,275.025,298z"></path><path style="fill:none;stroke:#000000;stroke-linecap:round;stroke-linejoin:round;" d="M279.775,304c0,0-3.25,8.25-5.5,11.25"></path></g><g><path style="fill:#E7AD4E;stroke:#000000;stroke-linecap:round;stroke-linejoin:round;" d="M282.025,346c0,0,7.5-5.5,18.75-8.75c0.507,1.248,0.94,2.473,1.322,3.66c-6.467,2.146-12.486,5.153-18.064,8.806C282.84,347.521,282.025,346,282.025,346z"></path><path style="fill:#242833;stroke:#000000;stroke-linecap:round;stroke-linejoin:round;" d="M302.098,340.91c2.064,6.42,2.428,11.59,2.428,11.59s-13.5,6.5-15.5,6.25c-1.74-3.078-3.617-6.506-4.992-9.034C289.611,346.063,295.631,343.057,302.098,340.91z"></path></g></g></g></g><g><g><g><path style="fill:#6E6E6E;stroke:#000000;stroke-linecap:round;stroke-linejoin:round;" d="M239.333,280.667l3.333,1.666c0,0-1.666,32-1.666,33.667s-6.333,44.833-7,48.5c-9-1-19.667-5-20.334-6.333c2-8,9.667-32.167,9.667-32.167s1.334-19,2-23c-0.667-9.333-1.667-14.666-1.667-14.666S231,283.25,239.333,280.667z"></path><path style="fill:#505050;" d="M241.75,287.25v5.5c0,0-9.5-3-9.375-8.25C237.75,285.75,241.75,287.25,241.75,287.25z"></path><path style="fill:#505050;" d="M224.3,322l-0.5,4.25l-1,3c0,0,5.25-1,5.5-2.25S224.3,322,224.3,322z"></path><path style="fill:none;stroke:#000000;stroke-linecap:round;stroke-linejoin:round;" d="M225.25,334.75c0.25-1.5,1.5-4.25,2.25-7.75s1.25-14,1.25-14"></path><path style="fill:#6E6E6E;stroke:#000000;stroke-linecap:round;stroke-linejoin:round;" d="M220.949,333.75c0,0-2.5,3.75-3,6.25c4.75,1.25,10.75,2,10.75,2l1-6.75L220.949,333.75z"></path></g><path style="fill:#6E6E6E;stroke:#000000;stroke-linecap:round;stroke-linejoin:round;" d="M242.75,287.375v-8.125l-9.576-2c-0.684,3.25-0.924,5.75-0.799,7.25C233.325,285.5,242.75,287.375,242.75,287.375z"></path></g><g><g><path style="fill:#6E6E6E;stroke:#000000;stroke-linecap:round;stroke-linejoin:round;" d="M260.666,280.667l-3.332,1.666c0,0,1.666,32,1.666,33.667s6.333,44.833,7,48.5c9-1,19.667-5,20.334-6.333c-2-8-9.668-32.167-9.668-32.167s-1.333-19-2-23c0.668-9.333,1.668-14.666,1.668-14.666S269,283.25,260.666,280.667z"></path><path style="fill:#505050;" d="M258.25,287.25v5.5c0,0,9.5-3,9.375-8.25C262.25,285.75,258.25,287.25,258.25,287.25z"></path><path style="fill:#505050;" d="M275.7,322l0.5,4.25l1,3c0,0-5.25-1-5.5-2.25S275.7,322,275.7,322z"></path><path style="fill:none;stroke:#000000;stroke-linecap:round;stroke-linejoin:round;" d="M274.75,334.75c-0.25-1.5-1.5-4.25-2.25-7.75s-1.25-14-1.25-14"></path><path style="fill:#6E6E6E;stroke:#000000;stroke-linecap:round;stroke-linejoin:round;" d="M279.051,333.75c0,0,2.5,3.75,3,6.25c-4.75,1.25-10.75,2-10.75,2l-1-6.75L279.051,333.75z"></path></g><path style="fill:#6E6E6E;stroke:#000000;stroke-linecap:round;stroke-linejoin:round;" d="M257.25,287.375v-8.125l9.576-2c0.684,3.25,0.924,5.75,0.799,7.25C266.674,285.5,257.25,287.375,257.25,287.375z"></path></g></g></g></g></g></svg>