<svg xmlns="http://www.w3.org/2000/svg" width="500" height="500" version="1.1"><g id="x9238"><g><path style="fill:#6E6E6E;stroke:#000000;stroke-linecap:round;stroke-linejoin:round;" d="M275.834,328.334c0,0,0.5-6.5,0.666-7.833s-0.166-10.834-0.666-14.667c0,0-11.668-13.833-13.5-15.833c0-0.5,1.332-8.299,1.332-8.299l-4.1-1.334v-1.5L250,279.5l-9.566-0.632v1.5l-4.1,1.334c0,0,1.333,7.799,1.333,8.299c-1.833,2-13.5,15.833-13.5,15.833c-0.5,3.833-0.833,13.334-0.667,14.667c0.167,1.333,0.667,7.833,0.667,7.833s-4,11.667-5.333,15.5c5.333,1.833,21.999,3.339,31.166,3.339s25.833-1.506,31.166-3.339C279.833,340.001,275.834,328.334,275.834,328.334z"></path><g><path style="fill:#505050;" d="M226.786,318.722c0,0,5.638,3.687,7.155,4.337c3.468-3.47,8.021-4.77,9.323-4.554c1.301,0.217,1.085,3.035,1.085,3.035s-3.903,8.89-6.072,8.456C236.108,329.563,227.22,321.323,226.786,318.722z"></path><path style="fill:#505050;" d="M273.076,318.722c0,0-5.639,3.687-7.154,4.337c-3.469-3.47-8.021-4.77-9.323-4.554c-1.301,0.217-1.085,3.035-1.085,3.035s3.902,8.89,6.072,8.456C263.754,329.563,272.643,321.323,273.076,318.722z"></path></g><g><g><path style="fill:#505050;" d="M233.367,311.041c-1.721,0.084-8.387-3.594-8.387-3.594s0.216,1.951,1.083,3.469c0.868,1.517,4.682,5.459,5.333,5.459c0.083,0,9.875-1.125,13.5-7.625C243.008,308.75,235.088,310.957,233.367,311.041z"></path><path style="fill:none;stroke:#000000;stroke-linecap:round;stroke-linejoin:round;" d="M225.646,308.5c0,0,4.167,4.666,7.14,5.668c0.866,0,11.274-3.035,11.274-3.035"></path></g><g><path style="fill:#505050;" d="M266.634,311.041c1.721,0.084,8.387-3.594,8.387-3.594s-0.216,1.951-1.084,3.469c-0.867,1.517-4.682,5.459-5.332,5.459c-0.082,0-9.875-1.125-13.5-7.625C256.992,308.75,264.912,310.957,266.634,311.041z"></path><path style="fill:none;stroke:#000000;stroke-linecap:round;stroke-linejoin:round;" d="M274.354,308.5c0,0-4.166,4.666-7.14,5.668c-0.866,0-11.274-3.035-11.274-3.035"></path></g></g><g><path style="fill:none;stroke:#000000;stroke-linecap:round;stroke-linejoin:round;" d="M242.188,320.75c0.5-0.25,4.25-2.25,7.625-2.25"></path><path style="fill:none;stroke:#000000;stroke-linecap:round;stroke-linejoin:round;" d="M257.813,320.75c-0.5-0.25-4.25-2.25-7.625-2.25"></path></g><path style="fill:#505050;" d="M250,280.034l-9.167-0.833l0.5,4.333c0,0,2.334,3.667,8.667,3.667s8.667-3.667,8.667-3.667l0.5-4.333L250,280.034z"></path><g><path style="fill:#6E6E6E;stroke:#000000;stroke-linecap:round;stroke-linejoin:round;" d="M240.333,289.334c0,0,5.167,0.333,6.834,1"></path><path style="fill:#6E6E6E;stroke:#000000;stroke-linecap:round;stroke-linejoin:round;" d="M259.667,289.334c0,0-5.168,0.333-6.834,1"></path></g><path style="fill:#46454B;stroke:#000000;stroke-linecap:round;stroke-linejoin:round;" d="M276.152,311.833c0,0-11.878,13.166-26.152,16.833c-14.274-3.667-26.153-16.833-26.153-16.833s-0.099,5.5,0.066,6c1.641,3.5,11.976,13.999,26.087,17.833c14.11-3.834,24.445-14.333,26.086-17.833C276.251,317.333,276.152,311.833,276.152,311.833z"></path><g><path style="fill:#46454B;stroke:#000000;stroke-linecap:round;stroke-linejoin:round;" d="M224.633,327.833c0,0,8.167,7.5,14.5,10C237.467,340,235.8,342,235.8,342s-8.667-4.667-13-9.334C224.133,329.5,224.633,327.833,224.633,327.833z"></path><path style="fill:#46454B;stroke:#000000;stroke-linecap:round;stroke-linejoin:round;" d="M275.366,327.833c0,0-8.166,7.5-14.5,10C262.532,340,264.2,342,264.2,342s8.666-4.667,13-9.334C275.866,329.5,275.366,327.833,275.366,327.833z"></path></g><g><polyline style="fill:none;stroke:#000000;stroke-linecap:round;stroke-linejoin:round;" points="261.468,281.268 259.535,290.333 276.035,309.333 "></polyline><polyline style="fill:none;stroke:#000000;stroke-linecap:round;stroke-linejoin:round;" points="238.4,281.268 240.333,290.333 223.833,309.333 "></polyline></g><g><line style="fill:#6E6E6E;stroke:#000000;stroke-linecap:round;stroke-linejoin:round;" x1="240.566" y1="279.833" x2="240.9" y2="283.167"></line><line style="fill:#6E6E6E;stroke:#000000;stroke-linecap:round;stroke-linejoin:round;" x1="259.433" y1="279.833" x2="259.1" y2="283.167"></line></g><g><path style="fill:#46454B;stroke:#000000;stroke-linecap:round;stroke-linejoin:round;" d="M253.844,299.484h-7.685l-4.402,4.471c0,0,2.865,0.839,4.052,1.607c1.188,0.769,3.074,3.074,3.074,3.074c0-0.21-0.28-3.145-0.28-3.145s-1.956-2.026-1.956-2.515c0-0.489,1.537-1.887,3.354-2.306c1.816,0.419,3.354,1.816,3.354,2.306c0,0.488-1.956,2.515-1.956,2.515s-0.279,2.935-0.279,3.145c0,0,1.886-2.306,3.074-3.074c1.188-0.769,4.052-1.607,4.052-1.607L253.844,299.484z"></path><g><polygon style="fill:#46454B;stroke:#000000;stroke-linecap:round;stroke-linejoin:round;" points="240.597,302.907 244.229,299.414 238.221,299.414 "></polygon><polygon style="fill:#46454B;stroke:#000000;stroke-linecap:round;stroke-linejoin:round;" points="259.403,302.907 255.771,299.414 261.778,299.414 "></polygon></g><g><path style="fill:#46454B;stroke:#000000;stroke-linecap:round;stroke-linejoin:round;" d="M243.539,306.96l3.004,1.886c-0.559,0.279-0.908,0.56-0.908,0.56L243.539,306.96z"></path><path style="fill:#46454B;stroke:#000000;stroke-linecap:round;stroke-linejoin:round;" d="M256.464,306.96l-3.005,1.886c0.56,0.279,0.908,0.56,0.908,0.56L256.464,306.96z"></path></g><polygon style="fill:#46454B;stroke:#000000;stroke-linecap:round;stroke-linejoin:round;" points="246.717,310.313 250.001,315.273 253.285,310.313 "></polygon></g></g></g></svg>