<svg xmlns="http://www.w3.org/2000/svg" width="500" height="500" version="1.1"><g id="x9239"><g><g><path style="fill:#5F5458;stroke:#000000;stroke-linecap:round;stroke-linejoin:round;" d="M275,305.75c-0.75-5-4.75-11.25-4.75-11.25l-8.102-12.75L250,284.25l-12.148-2.5l-8.102,12.75c0,0-4,6.25-4.75,11.25s0,12.75,0,12.75s8-1.25,25-1.25s25,1.25,25,1.25S275.75,310.75,275,305.75z"></path><path style="fill:#41363A;" d="M250,282.917l-13.375,3.708c0,0,3.5,7.375,8,9.25c2.875-3.375,5.375-7.25,5.375-7.25s2.5,3.875,5.375,7.25c4.5-1.875,8-9.25,8-9.25L250,282.917z"></path><g><g><g><path style="fill:#5F5458;stroke:#000000;stroke-linecap:round;stroke-linejoin:round;" d="M260.146,296.568c0,0,1.136,9.771,1.136,11.932c2.018,0,8.808,0.462,9.816,0.75c0.559-2-0.191-8.625-1.152-11.385C266.198,295.849,260.146,296.568,260.146,296.568z"></path><path style="fill:#41363A;" d="M262.114,307.375c0,0-0.75-4.625-0.25-5.25s3.5-0.75,5-0.625s3.25,0.5,3.375,1s0.625,5.25,0.125,5.5S262.489,308.375,262.114,307.375z"></path><g><path style="fill:none;stroke:#000000;stroke-linecap:round;stroke-linejoin:round;" d="M264.409,298.009c0.025,0.375,1.135,3.808,0.706,8.598"></path><path style="fill:none;stroke:#000000;stroke-linecap:round;stroke-linejoin:round;" d="M267.674,298.113c0.025,0.374,1.135,3.808,0.706,8.598"></path></g></g><path style="fill:#5F5458;stroke:#000000;stroke-linecap:round;stroke-linejoin:round;" d="M259.781,294.5c-0.188,0.343,0.044,2.068,0.188,2.5c0.145,0.433,3.228-0.081,3.948,0.352s2.161,1.297,2.882,1.153c0.721-0.145,1.153-0.577,1.153-0.577h2.306c0,0-0.039-1.615-0.414-2.803C269.268,294.837,259.969,294.157,259.781,294.5z"></path><circle style="fill:#6E6E6E;stroke:#000000;stroke-linecap:round;stroke-linejoin:round;" cx="266.094" cy="296.438" r="1"></circle></g><g><g><path style="fill:#5F5458;stroke:#000000;stroke-linecap:round;stroke-linejoin:round;" d="M239.854,296.568c0,0-1.136,9.771-1.136,11.932c-2.018,0-8.808,0.462-9.816,0.75c-0.559-2,0.191-8.625,1.152-11.385C233.802,295.849,239.854,296.568,239.854,296.568z"></path><g><path style="fill:#41363A;" d="M237.885,307.375c0,0,0.75-4.625,0.25-5.25s-3.5-0.75-5-0.625s-3.25,0.5-3.375,1s-0.625,5.25-0.125,5.5S237.51,308.375,237.885,307.375z"></path></g><g><path style="fill:none;stroke:#000000;stroke-linecap:round;stroke-linejoin:round;" d="M235.591,298.009c-0.025,0.375-1.135,3.808-0.706,8.598"></path><path style="fill:none;stroke:#000000;stroke-linecap:round;stroke-linejoin:round;" d="M232.326,298.113c-0.025,0.374-1.135,3.808-0.706,8.598"></path></g></g><path style="fill:#5F5458;stroke:#000000;stroke-linecap:round;stroke-linejoin:round;" d="M240.219,294.5c0.188,0.343-0.044,2.068-0.188,2.5c-0.145,0.433-3.228-0.081-3.948,0.352s-2.161,1.297-2.882,1.153c-0.721-0.145-1.153-0.577-1.153-0.577h-2.306c0,0,0.039-1.615,0.414-2.803C230.732,294.837,240.031,294.157,240.219,294.5z"></path><circle style="fill:#6E6E6E;stroke:#000000;stroke-linecap:round;stroke-linejoin:round;" cx="233.906" cy="296.438" r="1"></circle></g></g><path style="fill:none;stroke:#000000;stroke-linecap:round;stroke-linejoin:round;" d="M225.001,316.243c0,0,5.693-1.438,24.999-1.438s24.998,1.438,24.998,1.438"></path></g><g><g><path style="fill:#6E6E6E;stroke:#000000;stroke-linecap:round;stroke-linejoin:round;" d="M252.234,289.666h-4.469c0,0-3.574,14.833-4.766,21.5c1.638,3.333,7,7.333,7,7.333s5.362-4,7-7.333C255.81,304.499,252.234,289.666,252.234,289.666z"></path><path style="fill:#2B1B25;stroke:#000000;stroke-linecap:round;stroke-linejoin:round;" d="M255.541,304.019c-0.19-0.871-0.386-1.755-0.583-2.636L250,305.432l-4.957-4.048c-0.197,0.88-0.393,1.764-0.583,2.635c1.529,1.326,4.704,4.041,5.541,4.442C250.836,308.06,254.013,305.344,255.541,304.019z"></path><path style="fill:#2B1B25;stroke:#000000;stroke-linecap:round;stroke-linejoin:round;" d="M255.838,306.497L250,311.265l-5.838-4.768l-0.535,2.628c0,0,5.259,4.635,6.373,5.169c1.114-0.534,6.374-5.169,6.374-5.169L255.838,306.497z"></path></g><g><path style="fill:#F5D433;stroke:#000000;stroke-linecap:round;stroke-linejoin:round;" d="M254.125,296.75c0,0-0.126,27.584,6.208,32.584S275,318.5,275,318.5l-1.917-0.333c0,0-5.048,10.917-10.715,10.25s-6.951-32-6.951-32L254.125,296.75z"></path><g><rect x="250.75" y="294.856" style="fill:#F5D433;stroke:#000000;stroke-linecap:round;stroke-linejoin:round;" width="5.25" height="2.537"></rect><polygon style="fill:#FFFFFF;" points="251.5,296.75 251.5,295.625 255.375,295.625 "></polygon></g></g><g><path style="fill:#6E6E6E;stroke:#000000;stroke-linecap:round;stroke-linejoin:round;" d="M250,282.917c-1.999,0.5-4.167,1.584-4.167,1.584c0.417,4.083,2,5.916,2,5.916l2.167-0.166l2.167,0.166c0,0,1.584-1.833,2-5.916C254.167,284.501,251.999,283.417,250,282.917z"></path><path style="fill:#505050;" d="M253.375,284.625c0,0-2.125-0.958-3.375-1.25c-1.25,0.292-3.375,1.25-3.375,1.25s-0.125,0.625-0.125,0.875s0.375,1.75,0.375,1.75c0.75-0.583,3.125-0.542,3.125-0.542s2.375-0.041,3.125,0.542c0,0,0.375-1.5,0.375-1.75S253.375,284.625,253.375,284.625z"></path></g></g><g><g><g><g><path style="fill:#5F5458;stroke:#000000;stroke-linecap:round;stroke-linejoin:round;" d="M240.064,278c0,0,6.394,3.501,9.311,4.501c-1.083,0.334-2.917,1.291-3.083,1.833c-1.635,5.337-1.728,9.416-1.728,9.416s-8.606-7.499-8.606-9.249c1.75-2.584,3.583-4.75,3.583-4.75L240.064,278z"></path></g></g><polygon style="fill:#6E6E6E;stroke:#000000;stroke-linecap:round;stroke-linejoin:round;" points="236.533,283.232 237.542,282.001 241.253,284.722 240.319,286.18 "></polygon></g><g><g><g><path style="fill:#5F5458;stroke:#000000;stroke-linecap:round;stroke-linejoin:round;" d="M259.936,278c0,0-6.394,3.501-9.311,4.501c1.083,0.334,2.917,1.291,3.083,1.833c1.635,5.337,1.728,9.416,1.728,9.416s8.606-7.499,8.606-9.249c-1.75-2.584-3.584-4.75-3.584-4.75L259.936,278z"></path></g></g><polygon style="fill:#6E6E6E;stroke:#000000;stroke-linecap:round;stroke-linejoin:round;" points="263.467,283.232 262.458,282.001 258.747,284.722 259.681,286.18 "></polygon></g></g></g></g></svg>