<svg xmlns="http://www.w3.org/2000/svg" width="500" height="500" version="1.1"><g id="x9240"><g><g><g><path style="fill:#282828;stroke:#000000;stroke-linecap:round;stroke-linejoin:round;" d="M272,298.667c0,0,0.333-6.333,1.666-11.333c-6-6-14.104-7.334-14.104-7.334v-7.244h-19.124V280c0,0-8.104,1.334-14.104,7.334c1.333,5,1.667,11.333,1.667,11.333s-2,7.667-2.667,11L250,335.334l24.666-25.667C273.999,306.334,272,298.667,272,298.667z"></path><g><path style="fill:#0A0A0A;" d="M227.5,302.875c0,0-0.625,3-1.125,4.5c4,2,9.875,1.125,9.875,1.125l-6.875-3.75L227.5,302.875z"></path><path style="fill:#0A0A0A;" d="M272.498,302.875c0,0,0.625,3,1.125,4.5c-4,2-9.875,1.125-9.875,1.125l6.875-3.75L272.498,302.875z"></path></g><g><path style="fill:#282828;stroke:#000000;stroke-linecap:round;stroke-linejoin:round;" d="M248.834,301.334c0,0-1-4.334-4-6.334s-24.333-5.333-24.333-5.333S225.167,301,230.167,305c2.667,1.334,7.667,4,7.667,4"></path><path style="fill:#282828;stroke:#000000;stroke-linecap:round;stroke-linejoin:round;" d="M262.166,309c0,0,5-2.666,7.667-4c5-4,9.666-15.333,9.666-15.333S258.166,293,255.166,295s-4,6.334-4,6.334"></path></g><g><g><path style="fill:#9E7839;" d="M261.316,293.972c-0.113,0.395-2.789,9.747-2.539,18.059c0.107,3.471,0.498,10.456,0.502,10.525l1.996-0.111l0,0c-0.004-0.07-0.393-7.029-0.498-10.475c-0.242-7.991,2.434-17.349,2.461-17.441L261.316,293.972z"></path></g><g><path style="fill:#9E7839;" d="M238.683,293.972c0.113,0.395,2.79,9.747,2.539,18.059c-0.106,3.471-0.498,10.456-0.502,10.525l-1.996-0.111l0,0c0.004-0.07,0.394-7.029,0.498-10.475c0.242-7.991-2.434-17.349-2.461-17.441L238.683,293.972z"></path></g></g><g><g><path style="fill:#EAE9E9;stroke:#000000;stroke-linecap:round;stroke-linejoin:round;" d="M249,312.334c0,0,0-15,2.666-18.667c2.668-3.667,30.666-11.333,32-11.333C281.334,287,279,291.667,278,291.667s-18.334,3-22.334,6C251.666,303,249,312.334,249,312.334z"></path><path style="fill:#E1E1E1;" d="M254.965,297.063c0,0-1.688-2.188-3-2.688c-0.5,0.75-1.94,4.813-2.128,9.5c0.813,0.063,1.628,0.125,1.628,0.125S253.465,299.438,254.965,297.063z"></path><path style="fill:#EAE9E9;stroke:#000000;stroke-linecap:round;stroke-linejoin:round;" d="M251,312.334c0,0,0-15-2.667-18.667s-30.665-11.333-31.999-11.333c2.332,4.666,4.666,9.333,5.666,9.333s18.333,3,22.333,6C248.333,303,251,312.334,251,312.334z"></path><path style="fill:#E1E1E1;" d="M245,297.063c0,0,1.688-2.188,3-2.688c0.5,0.75,1.938,4.813,2.125,9.5C249.313,303.938,248.5,304,248.5,304S246.5,299.438,245,297.063z"></path></g></g></g><g><g><g><rect x="247.25" y="304.334" style="fill:#84817D;stroke:#000000;stroke-linecap:round;stroke-linejoin:round;" width="5.5" height="31"></rect></g><polyline style="fill:none;stroke:#000000;stroke-linecap:round;stroke-linejoin:round;" points="250.8,304.75 250.8,306.313 249.3,306.313 249.3,308 250.8,308 250.8,310.125 249.3,310.125 249.3,311.813 250.8,311.813 250.8,313.938 249.3,313.938 249.3,315.625 250.8,315.625 250.8,317.75 249.3,317.75 249.3,319.438 250.8,319.438 250.8,321.563 249.3,321.563 249.3,323.25 250.8,323.25 250.8,325.375 249.3,325.375 249.3,327.063 250.8,327.063 250.8,329.188 249.3,329.188 249.3,330.875 250.8,330.875 250.8,333 249.3,333 249.3,334.688 "></polyline></g><g><polygon style="fill:#84817D;stroke:#000000;stroke-linecap:round;stroke-linejoin:round;" points="253.396,306.667 246.603,306.667 245.158,317.917 254.842,317.917 "></polygon><path style="opacity:0.5;fill:#FFFFFF;" d="M246.375,315c0-0.188,0.938-7.688,0.938-7.688s5.625-0.063,5.375-0.063S246.375,315,246.375,315z"></path><circle style="fill:#282828;stroke:#000000;stroke-linecap:round;stroke-linejoin:round;" cx="250" cy="310.125" r="1.344"></circle><polygon style="fill:#66635F;stroke:#000000;stroke-linecap:round;stroke-linejoin:round;" points="246.604,320.104 253.396,320.104 254.842,317.917 245.158,317.917 "></polygon></g></g></g><g><g><path style="fill:#6E6E6E;stroke:#000000;stroke-linecap:round;stroke-linejoin:round;" d="M276,326.833c0.332-17.5-1.668-19.5-1.668-19.5S259,323.166,250,326.667c-9-3.501-24.334-19.334-24.334-19.334s-2,2-1.666,19.5c-1.667,5.333-8,29.5-8,29.5s15.333,5.917,34,5.917c18.666,0,34-5.917,34-5.917S277.109,330.384,276,326.833z"></path><rect x="249.333" y="329.999" style="fill:#1A1918;" width="1.667" height="32.501"></rect><g><path style="fill:none;stroke:#8E8178;stroke-width:2;stroke-linecap:round;stroke-linejoin:round;" d="M230.291,356c0,0,3.125,3.5,19.875,3.5s19.875-3.5,19.875-3.5"></path><g><polygon style="fill:#8E8178;" points="255.416,359.75 255.416,356 261.666,355.598 262.416,359 "></polygon><polygon style="fill:#8E8178;" points="244.916,359.75 244.916,356 238.666,355.598 237.916,359 "></polygon></g></g><g><path style="fill:none;stroke:#000000;stroke-linecap:round;stroke-linejoin:round;" d="M226.291,311c0,0,10.75,12.25,22.25,17.549"></path><path style="fill:none;stroke:#000000;stroke-linecap:round;stroke-linejoin:round;" d="M274.041,311c0,0-10.75,12.25-22.25,17.549"></path></g></g><g><g><polygon style="fill:#1B1A18;stroke:#000000;stroke-linecap:round;stroke-linejoin:round;" points="278.249,335.416 221.751,335.416 222.852,329.416 277.153,329.416 "></polygon><g><g><rect x="245.917" y="329.284" style="fill:#84817D;stroke:#000000;stroke-linecap:round;stroke-linejoin:round;" width="8.166" height="6.334"></rect><polygon style="opacity:0.6;fill:#FFFFFF;" points="246.75,334.083 246.917,329.999 252.833,329.999 "></polygon></g></g></g><g><polygon style="fill:#1B1A18;stroke:#000000;stroke-linecap:round;stroke-linejoin:round;" points="280.625,344.582 219.375,344.582 220.4,338.582 279.6,338.582 "></polygon><g><g><rect x="245.917" y="338.45" style="fill:#84817D;stroke:#000000;stroke-linecap:round;stroke-linejoin:round;" width="8.166" height="6.334"></rect><polygon style="opacity:0.6;fill:#FFFFFF;" points="246.75,343.249 246.917,339.165 252.833,339.165 "></polygon></g></g></g><g><polygon style="fill:#1B1A18;stroke:#000000;stroke-linecap:round;stroke-linejoin:round;" points="282.5,353.748 217.5,353.748 218.5,347.748 281.5,347.748 "></polygon><g><g><rect x="245.917" y="347.616" style="fill:#84817D;stroke:#000000;stroke-linecap:round;stroke-linejoin:round;" width="8.166" height="6.334"></rect><polygon style="opacity:0.6;fill:#FFFFFF;" points="246.75,352.415 246.917,348.331 252.833,348.331 "></polygon></g></g></g></g></g></g></g></svg>