<svg xmlns="http://www.w3.org/2000/svg" width="500" height="500" version="1.1"><g id="x9241"><g><g><g><path style="fill:#E8C043;stroke:#000000;stroke-linecap:round;stroke-linejoin:round;" d="M225.668,293.297c0,0.354,2.842,6.98,3.268,7.218c1.847,0.71,4.973,0.946,4.973,0.946l1.989-0.828L246.27,303l1.848-0.355l-0.854-2.84L225.668,293.297z"></path><path style="fill:#E8C043;stroke:#000000;stroke-linecap:round;stroke-linejoin:round;" d="M274.332,293.297c0,0.354-2.842,6.98-3.268,7.218c-1.848,0.71-4.973,0.946-4.973,0.946l-1.989-0.828L253.73,303l-1.848-0.355l0.854-2.84L274.332,293.297z"></path><path style="fill:#E8C043;stroke:#000000;stroke-linecap:round;stroke-linejoin:round;" d="M228.086,289.407l-0.845-2.6l2.303-2.058c0,0,3.758,1.76,4.487,2.136c2.009,2.184,17.602,15.937,17.602,15.937l-3.696-0.442c0,0-15.464-10.717-16.485-11.855C229.504,289.657,228.086,289.407,228.086,289.407z"></path><path style="fill:#E8C043;stroke:#000000;stroke-linecap:round;stroke-linejoin:round;" d="M271.914,289.407l0.844-2.6l-2.302-2.058c0,0-3.758,1.76-4.487,2.135c-2.01,2.185-17.602,15.938-17.602,15.938l3.695-0.442c0,0,15.465-10.717,16.486-11.855C270.496,289.657,271.914,289.407,271.914,289.407z"></path></g><g><polygon style="fill:#363A43;stroke:#000000;stroke-linecap:round;stroke-linejoin:round;" points="282.168,349.501 283,346.167 280.668,342.501 280.834,339.001 278,335.501 260.334,324.167 250,330.834 239.666,324.167 222,335.501 219.166,339.001 219.333,342.501 217,346.167 217.833,349.501 215.166,354.501 216.166,358.001 250,361.334 283.834,358.001 284.834,354.501 "></polygon><g><g><g><path style="fill:#24252A;stroke:#000000;stroke-linecap:round;stroke-linejoin:round;" d="M268.366,333.586c1.947-1.592,4.501-6.056,5.127-7.18c0.093-0.167-23.493-16.578-23.493-16.578s-23.585,16.411-23.493,16.578c0.626,1.124,3.18,5.588,5.127,7.18c-1.757,1.306-3.034,2.741-3.034,2.741s3.035,5.222,3.673,6.266c-1.597,1.567-2.076,2.089-2.076,2.089s2.235,4.309,3.354,5.353c-1.277,1.436-2.714,3.394-2.714,3.394s1.917,4.308,3.833,6.266c3.833,1.697,14.373,2.089,15.331,2.089s11.498-0.392,15.331-2.089c1.917-1.958,3.833-6.266,3.833-6.266s-1.438-1.958-2.715-3.394c1.118-1.044,3.354-5.353,3.354-5.353s-0.479-0.521-2.077-2.089c0.639-1.044,3.674-6.266,3.674-6.266S270.122,334.892,268.366,333.586z"></path></g><g><path style="fill:none;stroke:#000000;stroke-linecap:round;stroke-linejoin:round;" d="M231.921,333.781l0.719,0.686c0,0,1.677,0.587,3.473,0.979"></path><path style="fill:none;stroke:#000000;stroke-linecap:round;stroke-linejoin:round;" d="M232.208,342.396l0.838,1.077c0,0,2.995,1.37,5.869,1.958"></path><path style="fill:none;stroke:#000000;stroke-linecap:round;stroke-linejoin:round;" d="M241.096,354.047c-3.473-1.272-6.348-2.643-6.348-2.643l-1.198-1.567"></path><path style="fill:none;stroke:#000000;stroke-linecap:round;stroke-linejoin:round;" d="M268.079,333.781l-0.719,0.686c0,0-1.677,0.587-3.474,0.979"></path><path style="fill:none;stroke:#000000;stroke-linecap:round;stroke-linejoin:round;" d="M267.791,342.396l-0.838,1.077c0,0-2.994,1.37-5.869,1.958"></path><path style="fill:none;stroke:#000000;stroke-linecap:round;stroke-linejoin:round;" d="M258.903,354.047c3.474-1.272,6.349-2.643,6.349-2.643l1.197-1.567"></path></g></g><g><g><path style="fill:#363A43;stroke:#000000;stroke-linecap:round;stroke-linejoin:round;" d="M258.983,333.684c0,0,3.114-7.147,4.192-9.007c-1.078-1.469-4.791-3.133-4.791-3.133s1.077-2.154,1.796-3.818c-3.233-2.546-10.181-2.153-10.181-2.153s-6.947-0.393-10.181,2.153c0.719,1.664,1.797,3.818,1.797,3.818s-3.713,1.664-4.791,3.133c1.078,1.859,4.192,9.007,4.192,9.007s-1.916,1.175-2.515,2.35c1.317,2.252,4.192,7.44,4.192,7.44l-3.114,2.546l3.713,5.58l-2.396,1.565c0,0,3.114,6.462,5.031,8.126l4.072,0.294l4.072-0.294c1.917-1.664,5.03-8.126,5.03-8.126l-2.396-1.565l3.714-5.58l-3.114-2.546c0,0,2.874-5.188,4.191-7.44C260.899,334.858,258.983,333.684,258.983,333.684z"></path></g><g><path style="fill:none;stroke:#000000;stroke-linecap:round;stroke-linejoin:round;" d="M241.764,321.706c0.08,0.196,5.829,8.812,5.829,8.812s-2.635,2.09-3.833,3.786"></path><path style="fill:none;stroke:#000000;stroke-linecap:round;stroke-linejoin:round;" d="M241.005,333.685c0,0,1.238-0.751,1.797-0.751c0.479,1.5,4.631,7.832,4.631,7.832"></path><path style="fill:none;stroke:#000000;stroke-linecap:round;stroke-linejoin:round;" d="M244.318,343.832c0,0,1.598-2.021,3.274-3.066c0.719,0,2.315,1.108,2.315,1.108"></path><path style="fill:none;stroke:#000000;stroke-linecap:round;stroke-linejoin:round;" d="M249.988,350.294c0,0-0.719-0.065-2.076-0.718c-1.197-1.11-4.432-6.787-4.432-6.787l-0.998,0.783"></path><path style="fill:none;stroke:#000000;stroke-linecap:round;stroke-linejoin:round;" d="M245.756,352.252c0,0,1.557-2.023,2.196-2.479"></path><path style="fill:none;stroke:#000000;stroke-linecap:round;stroke-linejoin:round;" d="M243.361,351.521c0,0,1.118-0.642,1.438-0.771c0.958,1.828,5.03,7.507,5.03,7.507"></path><path style="fill:none;stroke:#000000;stroke-linecap:round;stroke-linejoin:round;" d="M245.916,360.736c0,0,1.996-2.283,3.273-3.067"></path><path style="fill:#24252A;stroke:#000000;stroke-linecap:round;stroke-linejoin:round;" d="M247.353,330.271c0,0,1.118,1.37,2.555,1.894"></path><path style="fill:none;stroke:#000000;stroke-linecap:round;stroke-linejoin:round;" d="M258.236,321.706c-0.08,0.196-5.829,8.812-5.829,8.812s2.635,2.09,3.832,3.786"></path><path style="fill:none;stroke:#000000;stroke-linecap:round;stroke-linejoin:round;" d="M258.994,333.685c0,0-1.236-0.751-1.796-0.751c-0.479,1.5-4.631,7.832-4.631,7.832"></path><path style="fill:none;stroke:#000000;stroke-linecap:round;stroke-linejoin:round;" d="M255.682,343.832c0,0-1.598-2.021-3.274-3.066c-0.719,0-2.315,1.108-2.315,1.108"></path><path style="fill:none;stroke:#000000;stroke-linecap:round;stroke-linejoin:round;" d="M250.012,350.294c0,0,0.719-0.065,2.076-0.718c1.197-1.11,4.432-6.787,4.432-6.787l0.998,0.783"></path><path style="fill:none;stroke:#000000;stroke-linecap:round;stroke-linejoin:round;" d="M254.244,352.252c0,0-1.557-2.023-2.196-2.479"></path><path style="fill:none;stroke:#000000;stroke-linecap:round;stroke-linejoin:round;" d="M256.639,351.521c0,0-1.118-0.642-1.437-0.771c-0.958,1.828-5.031,7.507-5.031,7.507"></path><path style="fill:none;stroke:#000000;stroke-linecap:round;stroke-linejoin:round;" d="M254.084,360.736c0,0-1.995-2.283-3.273-3.067"></path><path style="fill:#24252A;stroke:#000000;stroke-linecap:round;stroke-linejoin:round;" d="M252.646,330.271c0,0-1.117,1.37-2.555,1.894"></path></g></g></g></g><g><g><path style="fill:#373B44;stroke:#000000;stroke-linecap:round;stroke-linejoin:round;" d="M255.75,297.875c-1,2.5-3.5,2.25-3.5,2.25h-4.5c0,0-2.5,0.25-3.5-2.25c-5.25,1-9,2.75-9,2.75C238,308.625,250,313,250,313s12-4.375,14.75-12.375C264.75,300.625,261,298.875,255.75,297.875z"></path><g><path style="fill:none;stroke:#000000;stroke-linecap:round;stroke-linejoin:round;" d="M245,300.25c0,0,1.5,5,4,11.25"></path><path style="fill:none;stroke:#000000;stroke-linecap:round;stroke-linejoin:round;" d="M255,300.25c0,0-1.5,5-4,11.25"></path></g></g><path style="fill:#E8C043;stroke:#000000;stroke-linecap:round;stroke-linejoin:round;" d="M277.5,305.5L250,317l-27.5-11.5c0,0-1.5,7.5-1,11.5c4.5,1,16,5.333,28.5,14.667C262.5,322.333,274,318,278.5,317C279,313,277.5,305.5,277.5,305.5z"></path><g><g><path style="fill:#6E6E6E;stroke:#000000;stroke-linecap:round;stroke-linejoin:round;" d="M220.917,314c0,0-1.961,9.196-2.333,12.961c3,3.372,2.833,10.872,2.833,10.872s12.5-4.166,19.5-12.166C233.25,319.333,230.25,316.667,220.917,314z"></path><path style="fill:#505050;" d="M235.083,325.167l4.667,0.666c0,0-6.166,7.5-17.333,10.667c0-1.167-0.833-3.5-0.833-3.5L235.083,325.167z"></path><path style="fill:#505050;" d="M219.083,326.833c0.667-0.833,11.667-2.667,15-1c-3.833,4.167-12.5,7.167-12.5,7.167S221.083,329.333,219.083,326.833z"></path><g><path style="fill:none;stroke:#000000;stroke-linecap:round;stroke-linejoin:round;" d="M222.583,333c0,0,9.167-4.334,11.5-7.167"></path><path style="fill:none;stroke:#000000;stroke-linecap:round;stroke-linejoin:round;" d="M220.583,318.167c0,0,9.667,3,13.667,7.5"></path></g></g><g><path style="fill:#6E6E6E;stroke:#000000;stroke-linecap:round;stroke-linejoin:round;" d="M279.083,314c0,0,1.961,9.196,2.334,12.961c-3,3.372-2.834,10.872-2.834,10.872s-12.5-4.166-19.5-12.166C266.75,319.333,269.75,316.667,279.083,314z"></path><path style="fill:#505050;" d="M264.917,325.167l-4.667,0.666c0,0,6.166,7.5,17.333,10.667c0-1.167,0.834-3.5,0.834-3.5L264.917,325.167z"></path><path style="fill:#505050;" d="M280.917,326.833c-0.667-0.833-11.667-2.667-15-1c3.833,4.167,12.5,7.167,12.5,7.167S278.917,329.333,280.917,326.833z"></path><g><path style="fill:none;stroke:#000000;stroke-linecap:round;stroke-linejoin:round;" d="M277.417,333c0,0-9.167-4.334-11.5-7.167"></path><path style="fill:none;stroke:#000000;stroke-linecap:round;stroke-linejoin:round;" d="M279.417,318.167c0,0-9.667,3-13.667,7.5"></path></g></g></g><path style="fill:#505050;stroke:#000000;stroke-linecap:round;stroke-linejoin:round;" d="M252,314.667L250,320l-2-5.333c0,0-11.334-1.334-16.334,0.333c6.667,1.667,18.334,14,18.334,14s11.667-12.333,18.334-14C263.334,313.333,252,314.667,252,314.667z"></path><g><path style="fill:#6E6E6E;stroke:#000000;stroke-linecap:round;stroke-linejoin:round;" d="M277.891,298.825c-0.293-2.633-1.756-12.677-1.756-12.677s-2.925-1.073-5.168-1.073c-1.268,3.023-9.557,20.965-20.967,26.425c-11.41-5.46-19.699-23.401-20.967-26.425c-2.243,0-5.168,1.073-5.168,1.073s-1.463,10.044-1.756,12.677c-0.293,2.634-1.17,6.632-1.17,6.632s9.342,9.75,9.537,10.043c0.194,0.293,8.126-1.458,11-0.5c4.5,1.5,8.523,6.353,8.523,6.353s4.023-4.853,8.523-6.353c2.873-0.958,10.806,0.793,11,0.5c0.195-0.293,9.537-10.043,9.537-10.043S278.184,301.459,277.891,298.825z"></path><g><path style="fill:#505050;" d="M222.655,305.167c0,0,6.341-1.757,12.833,1.167c9.25,4.166,14.5,14.5,14.5,14.5s-4.583-6.167-10.083-6.501s-9.44,1.167-9.44,1.167L222.655,305.167z"></path><path style="fill:#505050;" d="M277.345,305.167c0,0-6.341-1.757-12.833,1.167c-9.25,4.166-14.5,14.5-14.5,14.5s4.584-6.167,10.084-6.501s9.439,1.167,9.439,1.167L277.345,305.167z"></path></g></g></g></g><g><g><path style="fill:#363A43;stroke:#000000;stroke-linecap:round;stroke-linejoin:round;" d="M298.057,313.803c0,0,2.706,11.03-0.981,14.84c-3.422-1.604-7.842-3.208-7.842-3.208s-9.493,2.555-10.44,6.565c-3.473-5.615-5.032-12.181-5.032-12.181s-0.404-7.02,2.744-10.027c2.102,3.008,6.174,6.618,6.174,6.618L298.057,313.803z"></path><path style="fill:#363A43;stroke:#000000;stroke-linecap:round;stroke-linejoin:round;" d="M302.196,300c0,0,0.5,5.25,0.25,6.5s-6.25,14-7.75,15c-1.75-7-1.647-13.039-1.647-13.039L302.196,300z"></path><path style="fill:#505050;stroke:#000000;stroke-linecap:round;stroke-linejoin:round;" d="M302.446,305.908l-5.219,8.517c0,0,1.326,11.711-0.141,14.501c1.766,1.395,2.109,2.324,2.109,2.324s2.326-7.905,3.129-14.182c1.756-3.022,2.614-8.137,2.614-8.137L302.446,305.908z"></path><g><path style="fill:#6E6E6E;stroke:#000000;stroke-linecap:round;stroke-linejoin:round;" d="M292.948,307.956l1.912,1.267c0,0,0.677,7.231,0.107,8.635c-0.569,1.404-7.271,6.893-7.271,6.893s-8.146-3.483-9.107-4.285c-0.96-0.802-2.457-9.981-2.457-9.981c1.201-0.931,10.01,1.018,10.01,1.018L292.948,307.956z"></path><path style="fill:#505050;" d="M277.251,314.375c0,0.375,0.875,4.625,1.75,5.813c1.25,0.813,8.688,4.125,8.688,4.125s5.813-5,6.938-6.625c0.313-2.5-0.125-7.125-0.125-7.125s-6.5,7.813-7.5,8.125C284.063,318.375,277.251,314.375,277.251,314.375z"></path></g><path style="fill:#E8C043;stroke:#000000;stroke-linecap:round;stroke-linejoin:round;" d="M293.696,305l0.439,5.175c0,0-6.146,4.38-7.938,4.578c-1.79,0.199-11.342-1.99-11.342-1.99l0.101-5.374L293.696,305z"></path><path style="fill:#363A43;stroke:#000000;stroke-linecap:round;stroke-linejoin:round;" d="M278.446,298.75c0,0-4.25,6.5-5,22.5c1.5-2,3.5-6.25,4.75-8.75c1-4.25,3.75-7.5,3.75-7.5C280.196,304,278.446,298.75,278.446,298.75z"></path><path d="M274.501,312.688c0,0,2.5-0.75,3.188,0.563c1.438-3.438,4.313-7.938,4.313-7.938l-3.438-2.688L274.501,312.688z"></path><g><g><path style="fill:#6E6E6E;stroke:#000000;stroke-linecap:round;stroke-linejoin:round;" d="M273.356,272.186c-0.805-0.036,0.331,14.449,2.707,22.06c1.457,0.579,13.008,6.342,18.367,4.986c10.908-2.752,20.609-14.931,20.609-14.931S296.438,273.268,273.356,272.186z"></path><path style="fill:#505050;" d="M285.626,296c0,0,0.688-17.854,13.188-18.188c-5-2.25-19.438-5.084-25.25-5.063c-0.333,2.333,1.562,18.584,3.228,21.917C281.457,296,285.626,296,285.626,296z"></path></g><g><path style="fill:#6E6E6E;stroke:#000000;stroke-linecap:round;stroke-linejoin:round;" d="M326.149,289.095c0,0-6.423-4.477-12.477-6.788c-3.113,1.367-9.752,1.661-11.937,0.919c-2.243,3.445-7.091,11.236-9.091,11.577s-16.318-0.603-16.318-0.603s0.872,6.474,1.852,7.699c0.98,1.224,6.355,5.703,6.355,5.703s11.51,1.103,13.917,0.137c2.698-3.802,5.71-8.772,5.71-8.772l4.315-1.849c0,0,5.876,4.291,7.174,4.349C319.03,298.661,326.261,288.239,326.149,289.095z"></path><path style="opacity:0.4;fill:#FFFFFF;" d="M302.376,284l0.5,7.5c0,0,6.75,1.75,10.625-0.5s5.25-5.625,5.25-5.625l-4.875-2.5C313.876,282.875,310.126,284.625,302.376,284z"></path><path style="fill:#505050;" d="M278.188,301.5l6.604,5.501c0,0,11.333,1.166,13.333,0.333c2.167-3.5,5.625-8.771,5.625-8.771l4.75-1.813c0,0,4.625,3.417,7.125,4.084c3.938-3.709,9.688-11.834,9.688-11.834l-6.25-3.563c0,0-1.438,3.563-4.938,5.563s-10.5,0.584-11.188,0.875s-5.791,9.48-7.146,9.959s-17.979-1.209-17.979-1.209L278.188,301.5z"></path></g></g></g><g><path style="fill:#363A43;stroke:#000000;stroke-linecap:round;stroke-linejoin:round;" d="M201.943,313.803c0,0-2.706,11.03,0.981,14.84c3.422-1.604,7.842-3.208,7.842-3.208s9.493,2.555,10.44,6.565c3.473-5.615,5.032-12.181,5.032-12.181s0.404-7.02-2.744-10.027c-2.102,3.008-6.174,6.618-6.174,6.618L201.943,313.803z"></path><path style="fill:#363A43;stroke:#000000;stroke-linecap:round;stroke-linejoin:round;" d="M197.804,300c0,0-0.5,5.25-0.25,6.5s6.25,14,7.75,15c1.75-7,1.647-13.039,1.647-13.039L197.804,300z"></path><path style="fill:#6E6E6E;stroke:#000000;stroke-linecap:round;stroke-linejoin:round;" d="M197.554,305.908l5.219,8.517c0,0-1.326,11.711,0.141,14.501c-1.766,1.395-2.109,2.324-2.109,2.324s-2.326-7.905-3.129-14.182c-1.756-3.022-2.614-8.137-2.614-8.137L197.554,305.908z"></path><g><path style="fill:#6E6E6E;stroke:#000000;stroke-linecap:round;stroke-linejoin:round;" d="M207.052,307.956l-1.912,1.267c0,0-0.677,7.231-0.107,8.635c0.569,1.404,7.271,6.893,7.271,6.893s8.146-3.483,9.107-4.285c0.96-0.802,2.457-9.981,2.457-9.981c-1.201-0.931-10.01,1.018-10.01,1.018L207.052,307.956z"></path><path style="fill:#505050;" d="M222.749,314.375c0,0.375-0.875,4.625-1.75,5.813c-1.25,0.813-8.688,4.125-8.688,4.125s-5.813-5-6.938-6.625c-0.313-2.5,0.125-7.125,0.125-7.125s6.5,7.813,7.5,8.125C215.937,318.375,222.749,314.375,222.749,314.375z"></path></g><path style="fill:#E8C043;stroke:#000000;stroke-linecap:round;stroke-linejoin:round;" d="M206.304,305l-0.439,5.175c0,0,6.146,4.38,7.938,4.578c1.79,0.199,11.342-1.99,11.342-1.99l-0.101-5.374L206.304,305z"></path><path style="fill:#363A43;stroke:#000000;stroke-linecap:round;stroke-linejoin:round;" d="M221.554,298.75c0,0,4.25,6.5,5,22.5c-1.5-2-3.5-6.25-4.75-8.75c-1-4.25-3.75-7.5-3.75-7.5C219.804,304,221.554,298.75,221.554,298.75z"></path><path d="M225.499,312.688c0,0-2.5-0.75-3.188,0.563c-1.438-3.438-4.313-7.938-4.313-7.938l3.438-2.688L225.499,312.688z"></path><g><g><path style="fill:#6E6E6E;stroke:#000000;stroke-linecap:round;stroke-linejoin:round;" d="M226.644,272.186c0.805-0.036-0.331,14.449-2.707,22.06c-1.457,0.579-13.008,6.342-18.367,4.986c-10.908-2.752-20.609-14.931-20.609-14.931S203.563,273.268,226.644,272.186z"></path><path style="fill:#505050;" d="M214.374,296c0,0-0.688-17.854-13.188-18.188c5-2.25,19.438-5.084,25.25-5.063c0.333,2.333-1.564,18.584-3.23,21.917C218.541,296,214.374,296,214.374,296z"></path></g><g><path style="fill:#6E6E6E;stroke:#000000;stroke-linecap:round;stroke-linejoin:round;" d="M173.851,289.095c0,0,6.423-4.477,12.477-6.788c3.113,1.367,9.752,1.661,11.937,0.919c2.243,3.445,7.091,11.236,9.091,11.577s16.318-0.603,16.318-0.603s-0.872,6.474-1.852,7.699c-0.98,1.224-6.355,5.703-6.355,5.703s-11.51,1.103-13.917,0.137c-2.698-3.802-5.71-8.772-5.71-8.772l-4.315-1.849c0,0-5.876,4.291-7.174,4.349C180.97,298.661,173.739,288.239,173.851,289.095z"></path><path style="opacity:0.4;fill:#FFFFFF;" d="M197.624,284l-0.5,7.5c0,0-6.75,1.75-10.625-0.5s-5.25-5.625-5.25-5.625l4.875-2.5C186.124,282.875,189.874,284.625,197.624,284z"></path><path style="fill:#505050;" d="M221.812,301.5l-6.604,5.501c0,0-11.333,1.166-13.333,0.333c-2.167-3.5-5.625-8.771-5.625-8.771l-4.75-1.813c0,0-4.625,3.417-7.125,4.084c-3.938-3.709-9.688-11.834-9.688-11.834l6.25-3.563c0,0,1.438,3.563,4.938,5.563s10.5,0.584,11.188,0.875s5.791,9.48,7.146,9.959s17.979-1.209,17.979-1.209L221.812,301.5z"></path></g></g></g></g></g></g></svg>