<svg xmlns="http://www.w3.org/2000/svg" width="500" height="500" version="1.1"><g id="x9242"><g><g><g><path style="fill:#6E6E6E;stroke:#000000;stroke-linecap:round;stroke-linejoin:round;" d="M237.549,281.027c0,0-3.63,16.762-2.593,18.659c-1.631,1.187-4.15,1.187-4.15,1.187s2.148-17.118,3.779-19.371C236.66,279.959,237.549,281.027,237.549,281.027z"></path><path style="fill:#6E6E6E;stroke:#000000;stroke-linecap:round;stroke-linejoin:round;" d="M262.451,281.027c0,0,3.631,16.762,2.592,18.659c1.631,1.187,4.152,1.187,4.152,1.187s-2.15-17.118-3.779-19.371C263.34,279.959,262.451,281.027,262.451,281.027z"></path></g><g><path style="fill:#6E6E6E;stroke:#000000;stroke-linecap:round;stroke-linejoin:round;" d="M273.865,314.326c0,0,1.334-9.708-0.148-12.524c0,0-4.883-3.302-23.717-3.302c-18.833,0-23.716,3.302-23.716,3.302c-1.482,2.816-0.147,12.524-0.147,12.524l-7.706,30.219c0,0,4.068,2.789,31.402,2.789s31.738-2.789,31.738-2.789L273.865,314.326z"></path></g></g></g></g></svg>