<svg xmlns="http://www.w3.org/2000/svg" width="500" height="500" version="1.1"><g id="x9243"><g><g id="topsXMLID_72_"><g><path style="fill:#6E6E6E;" d="M225.264,311c-0.25,5-0.25,9-0.25,9s24.489-12.5,32.489-24c-8-1.5-22.489,0-29.239,2.75C228.264,298.75,225.514,306,225.264,311z"></path></g><g><path style="fill:#E7C474;" d="M251.766,295.666c0,0-12.999,13.5-25.999,18.834c-0.167,0.5-0.167,3.333-0.167,3.333s25.5-13.501,29-21.667C252.434,295.5,251.766,295.666,251.766,295.666z"></path><path style="fill:#2A2D3E;" d="M257.899,295.667c0,0-11.633,15.666-33.633,23.833c-0.333-1.5-0.5-2-0.5-2s20.167-9.5,30.133-21.667C256.232,295.667,257.899,295.667,257.899,295.667z"></path><path style="fill:#E7C474;" d="M242.1,296c0,0-14.18,7.167-15.84,9.5c0.507-2.334,1.34-4.334,1.34-4.334l8.667-4.666L242.1,296z"></path><path style="fill:#2A2D3E;" d="M240.1,296.166c0,0-10.334,4.166-13.5,7.5c0.834-2.666,1.834-5,1.834-5L240.1,296.166z"></path></g><g><path style="fill:none;stroke:#000000;stroke-linecap:round;stroke-linejoin:round;" d="M228.264,298.75c0,0-2.75,7.25-3,12.25s-0.25,9-0.25,9s24.489-12.5,32.489-24C249.503,294.5,235.014,296,228.264,298.75z"></path></g></g><g id="topsXMLID_71_"><g><path style="fill:#6E6E6E;" d="M274.736,311c0.25,5,0.25,9,0.25,9s-24.489-12.5-32.489-24c8-1.5,22.489,0,29.239,2.75C271.736,298.75,274.486,306,274.736,311z"></path></g><g><path style="fill:#E7C474;" d="M248.233,295.666c0,0,13,13.5,26,18.834c0.167,0.5,0.167,3.333,0.167,3.333s-25.5-13.501-29-21.667C247.566,295.5,248.233,295.666,248.233,295.666z"></path><path style="fill:#2A2D3E;" d="M242.101,295.667c0,0,11.633,15.666,33.633,23.833c0.333-1.5,0.5-2,0.5-2s-20.167-9.5-30.133-21.667C243.767,295.667,242.101,295.667,242.101,295.667z"></path><path style="fill:#E7C474;" d="M257.9,296c0,0,14.18,7.167,15.84,9.5c-0.507-2.334-1.34-4.334-1.34-4.334l-8.667-4.666L257.9,296z"></path><path style="fill:#2A2D3E;" d="M259.9,296.166c0,0,10.334,4.166,13.5,7.5c-0.834-2.666-1.834-5-1.834-5L259.9,296.166z"></path></g><g><path style="fill:none;stroke:#000000;stroke-linecap:round;stroke-linejoin:round;" d="M271.736,298.75c0,0,2.75,7.25,3,12.25s0.25,9,0.25,9s-24.489-12.5-32.489-24C250.497,294.5,264.986,296,271.736,298.75z"></path></g></g></g></g></svg>