<svg xmlns="http://www.w3.org/2000/svg" width="500" height="500" version="1.1"><g id="x9244"><g><g><path style="fill:#6E6E6E;stroke:#000000;stroke-linecap:round;stroke-linejoin:round;" d="M272.5,300.5c1.5-0.5,8.25-4.25,8.25-4.25s-5-8.648-10.75-12.148s-10.438-3.357-10.438-3.357L250,282.5l-9.562-1.756c0,0-4.688-0.143-10.438,3.357s-10.75,12.148-10.75,12.148s6.75,3.75,8.25,4.25c-2.25,4.75-2.5,21-2.5,24.25s-1.5,6.5-1.5,6.5h53c0,0-1.5-3.25-1.5-6.5S274.75,305.25,272.5,300.5z"></path><g><path style="fill:none;stroke:#000000;stroke-linecap:round;stroke-linejoin:round;" d="M227.286,301c0,0,1.3-3.125,2.425-5.625"></path><path style="fill:none;stroke:#000000;stroke-linecap:round;stroke-linejoin:round;" d="M272.714,301c0,0-1.301-3.125-2.426-5.625"></path></g></g><path style="fill:#2B2B2B;" d="M250,297.656c-2.94,0-5.324,2.384-5.324,5.324c0,2.585,1.843,4.737,4.286,5.221v-1.828c-1.459-0.447-2.526-1.788-2.526-3.393c0-1.969,1.595-3.564,3.564-3.564c1.968,0,3.564,1.596,3.564,3.564c0,1.604-1.068,2.945-2.526,3.393v1.828c2.442-0.483,4.285-2.636,4.285-5.221C255.323,300.04,252.94,297.656,250,297.656z"></path></g></g></svg>