<svg xmlns="http://www.w3.org/2000/svg" width="500" height="500" version="1.1"><g id="x9245"><g><g><path style="fill:#6E6E6E;stroke:#000000;stroke-linecap:round;stroke-linejoin:round;" d="M304.5,352.75l-13.976-31.895c0,0-7.524-26.605-12.524-31.855c-4-4.25-15.5-8.5-15.5-8.5L250,286l-12.5-5.5c0,0-11.5,4.25-15.5,8.5c-5,5.25-12.524,31.855-12.524,31.855L195.5,352.75c3.75,2.75,13.25,6.75,13.25,6.75S221.5,336,224.5,326c-1.5,5.25-10.25,25.5-10.25,25.5l-1.5,4.25l4,4.25c0,0,4.5-3,6.5-3.25s14,3.75,26.75,3.75s24.75-4,26.75-3.75s6.5,3.25,6.5,3.25l4-4.25l-1.5-4.25c0,0-8.75-20.25-10.25-25.5c3,10,15.75,33.5,15.75,33.5S300.75,355.5,304.5,352.75z"></path><path style="fill:#505050;" d="M246.167,348.667c-10.819-0.376-20.333-2.333-20.333-2.333s9.333,5.666,12,5.833c2.09,0.131,9.394,0.869,14.464,0.302c2.3,0.059,4.035,0.031,4.035,0.031s12.5-3.834,16.917-4.5C269.692,347.859,257.252,349.053,246.167,348.667z"></path><g><path style="fill:none;stroke:#000000;stroke-linecap:round;stroke-linejoin:round;" d="M217,351c0,0,5.75-0.75,7-1s16.5,3.5,25.75,2.25"></path><path style="fill:none;stroke:#000000;stroke-linecap:round;stroke-linejoin:round;" d="M221,344c0,0,13,7.25,18,8.25"></path><path style="fill:none;stroke:#000000;stroke-linecap:round;stroke-linejoin:round;" d="M259.5,351.5c0,0,11.5-3.5,13.75-3.5s12.5,3.5,12.5,3.5"></path><path style="fill:none;stroke:#000000;stroke-linecap:round;stroke-linejoin:round;" d="M250,346.75c0,0,12.75-3.25,22.25-3.75"></path></g><g><g><path style="fill:#505050;" d="M273.75,306l-2-9.75c0,0,5.25,5,6,6.75S275,318,275,318L273.75,306z"></path><path style="fill:none;stroke:#000000;stroke-linecap:round;stroke-linejoin:round;" d="M277.75,300.25c0,0-1.75,6.5-3.25,8.75"></path><g><path style="fill:none;stroke:#000000;stroke-linecap:round;stroke-linejoin:round;" d="M270.058,293.815c0,0,3.812,7.444,4.356,13.617c0.544,6.174,0.907,17.066,1.634,19.791"></path></g></g><g><path style="fill:#505050;" d="M226.25,306l2-9.75c0,0-5.25,5-6,6.75s2.75,15,2.75,15L226.25,306z"></path><path style="fill:none;stroke:#000000;stroke-linecap:round;stroke-linejoin:round;" d="M222.25,300.25c0,0,1.75,6.5,3.25,8.75"></path><g><path style="fill:none;stroke:#000000;stroke-linecap:round;stroke-linejoin:round;" d="M229.942,293.815c0,0-3.812,7.444-4.356,13.617c-0.544,6.174-0.907,17.066-1.634,19.791"></path></g></g></g></g><g><path style="fill:#6E6E6E;stroke:#000000;stroke-linecap:round;stroke-linejoin:round;" d="M261,273.25l-11,1.25l-11-1.25c-0.75,0.25-3.25,4.25-2.75,4.75s1.75,2.5,1.75,2.5l-1.75,4.25c0,0,7.25,4,13.75,4s13.75-4,13.75-4L262,280.5c0,0,1.25-2,1.75-2.5S261.75,273.5,261,273.25z"></path><g><path style="fill:#505050;" d="M237.482,278.834c0,0,0.833,1.166,0.833,1.833s-1.167,2.5-1.167,2.5s5.667-1.501,6.5-2.167C240.149,279.667,237.482,278.834,237.482,278.834z"></path><path style="fill:#505050;" d="M262.518,278.834c0,0-0.834,1.166-0.834,1.833s1.167,2.5,1.167,2.5s-5.667-1.501-6.501-2.167C259.85,279.667,262.518,278.834,262.518,278.834z"></path></g></g></g></g></svg>