<svg xmlns="http://www.w3.org/2000/svg" width="500" height="500" version="1.1"><g id="x9246"><g><g><g><g><g><path style="fill:#6E6E6E;stroke:#000000;stroke-linecap:round;stroke-linejoin:round;" d="M231.575,283c0,0-7.5,1.75-11.75,6.25c-4,6.75-10.274,31.605-10.274,31.605l-15.476,30.895l16,7.25c0,0,16-32.5,17-34.75c2.25-14.25,7.75-29.75,7.75-29.75L231.575,283z"></path><path style="fill:#505050;" d="M224.825,308c0,0-6,11.25-6.75,13s5,12.5,5,12.5l4.75-8.25L224.825,308z"></path><path style="fill:none;stroke:#000000;stroke-linecap:round;stroke-linejoin:round;" d="M230.575,287.5c-0.75,0-8.5,2-9,3.25s-5.5,14.75-8.75,31c-3.25,5.75-9.5,21-9.5,21"></path><g id="topsXMLID_70_"><g><path style="fill:#C9CBD3;" d="M217.325,347.75l-5.75,12.25l-17.5-8.25c-0.25-2,4.25-12.5,4.25-12.5C204.825,341.5,217.325,347.75,217.325,347.75z"></path></g><polygon style="fill:#A19EA6;" points="196.825,342.75 214.575,350.25 215.325,346.75 198.325,339.25 "></polygon><polygon style="fill:#A19EA6;" points="193.925,351.882 211.675,359.382 212.425,355.882 195.425,348.382 "></polygon><g><path style="fill:none;stroke:#000000;stroke-linecap:round;stroke-linejoin:round;" d="M211.575,360l-17.5-8.25c-0.25-2,4.25-12.5,4.25-12.5c6.5,2.25,19,8.5,19,8.5L211.575,360z"></path></g></g></g><g><polygon style="fill:#FFFFFE;stroke:#000000;stroke-linecap:round;stroke-linejoin:round;" points="214.575,301.334 228.801,305.701 224.885,309.94 212.991,306.084 "></polygon><polygon points="214.575,303.084 227.167,306.858 225.774,308.521 213.658,304.501 "></polygon></g></g><path style="fill:#36313F;stroke:#000000;stroke-linecap:round;stroke-linejoin:round;" d="M222.833,286.334c0,0,2,28,3.333,17s1.667-20,1.667-20S224.5,285.668,222.833,286.334z"></path></g><g><g><g><path style="fill:#6E6E6E;stroke:#000000;stroke-linecap:round;stroke-linejoin:round;" d="M292.834,318.5c0.135-0.67-2.644-2.203-3.734-2.776c-2.065-7.649-6.073-21.661-8.925-26.474c-4.25-4.5-11.75-6.25-11.75-6.25l-3.25,11.5c0,0,5.5,15.5,7.75,29.75c0.292,0.658,1.871,3.909,3.953,8.171l15.818-7.081l-1.155-2.307C291.744,322.361,292.686,319.242,292.834,318.5z"></path><polygon points="286.667,315.5 287.834,313 289.5,316.5 "></polygon><path style="fill:none;stroke:#000000;stroke-linecap:round;stroke-linejoin:round;" d="M276,296.334c0,0,5.668,1.666,8.334,3.666"></path><path style="fill:#505050;" d="M275.175,308c0,0,6,11.25,6.75,13s-5,12.5-5,12.5l-4.75-8.25L275.175,308z"></path><path style="fill:none;stroke:#000000;stroke-linecap:round;stroke-linejoin:round;" d="M285.318,313.428c0.65,2.652,1.281,5.444,1.856,8.322"></path><path style="fill:none;stroke:#000000;stroke-linecap:round;stroke-linejoin:round;" d="M269.425,287.5c0.75,0,8.5,2,9,3.25c0.152,0.38,0.72,1.891,1.527,4.266"></path><path style="fill:none;stroke:#000000;stroke-width:2;stroke-linecap:round;stroke-linejoin:round;" d="M282.953,296.801c0,0-2.051-1.152-7.301-3.152c0,6.5,2.25,9.75,6,11.5c-0.75,3.5-0.75,7.5,0.5,11c3-1.5,5-6.25,5-6.25"></path><polygon points="277.667,304.667 279.834,306.334 278.667,308.167 276.75,307 "></polygon><g id="topsXMLID_69_"><g><path style="fill:#C9CBD3;" d="M273.925,328.25l5.75,12.25l17.5-8.25c0.25-2-4.25-12.5-4.25-12.5C286.425,322,273.925,328.25,273.925,328.25z"></path></g><polygon style="fill:#A19EA6;" points="294.425,323.25 276.675,330.75 275.925,327.25 292.925,319.75 "></polygon><polygon style="fill:#A19EA6;" points="297.325,332.382 279.575,339.882 278.825,336.382 295.825,328.882 "></polygon><g><path style="fill:none;stroke:#000000;stroke-linecap:round;stroke-linejoin:round;" d="M279.675,340.5l17.5-8.25c0.25-2-4.25-12.5-4.25-12.5c-6.5,2.25-19,8.5-19,8.5L279.675,340.5z"></path></g></g></g></g><g><path style="fill:#36313F;stroke:#000000;stroke-linecap:round;stroke-linejoin:round;" d="M268.167,282l2.166-0.667c0,0,5.833,2.833,7.5,3.5c0.167,0.334,1.334,2,1.334,2l-1.667,3c0,0,1.001,11.667-3.333,16.167C272,296.333,268.167,282,268.167,282z"></path><g><g><path style="fill:#DCDCDC;stroke:#000000;stroke-linecap:round;stroke-linejoin:round;" d="M270.667,289.5c0.666-0.5,6.5,0.833,7.333,1.833s1.167,3.667,0.5,4.167s-1.334,0-1.334,0s0-2.668-0.5-2.834s-5.833-1.499-5.833-1.499S270.001,290,270.667,289.5z"></path></g><linearGradient id="topsXMLID_86_" gradientUnits="userSpaceOnUse" x1="275.0918" y1="294.915" x2="275.0918" y2="297.6712"><stop offset="0" style="stop-color:#F7F7F7"></stop><stop offset="1" style="stop-color:#DFE3E9"></stop></linearGradient><path style="fill:url(#topsXMLID_86_);stroke:#000000;stroke-linecap:round;stroke-linejoin:round;" d="M272.5,295.418c0.236-0.236,4.834,0.583,5.167,0.833s0.166,1.333-0.167,1.333s-5-0.5-5.083-0.833S272.25,295.668,272.5,295.418z"></path><linearGradient id="topsXMLID_87_" gradientUnits="userSpaceOnUse" x1="274.9023" y1="290.2324" x2="274.9023" y2="294.4087"><stop offset="0" style="stop-color:#F7F7F7"></stop><stop offset="1" style="stop-color:#DFE3E9"></stop></linearGradient><path style="fill:url(#topsXMLID_87_);stroke:#000000;stroke-linecap:round;stroke-linejoin:round;" d="M275.5,291.334c0,0,0.667,2.501,0.334,2.917c-0.583,0-1.501,0.167-1.584-0.333s-0.5-2.667-0.333-2.917S275.333,291.25,275.5,291.334z"></path></g></g></g></g><g><g><g><path style="fill:#6E6E6E;stroke:#000000;stroke-linecap:round;stroke-linejoin:round;" d="M250.075,323.75v33.75c0,0-7,11-9,12.5c-7-0.5-26.5-9.25-28-12.25c3.25-14,11.5-32.75,11.5-32.75s-0.5-19.75,4.5-29.25c5,0.75,9.25,0.75,9.25,0.75S242.075,315.75,250.075,323.75z"></path><path style="fill:#6E6E6E;stroke:#000000;stroke-linecap:round;stroke-linejoin:round;" d="M227.885,299.5c0,0-6,8-6.25,13s2,9.75,4.75,12.25"></path><path style="fill:#6E6E6E;stroke:#000000;stroke-linecap:round;stroke-linejoin:round;" d="M275.425,325c0,0,0.021-0.882,0.01-2.352c1.844-2.638,3.122-6.317,2.931-10.148c-0.2-3.996-4.066-9.898-5.613-12.111c-0.509-1.697-1.109-3.275-1.827-4.639c-5,0.75-9.25,0.75-9.25,0.75s-3.75,19.25-11.75,27.25v33.75c0,0,7,11,9,12.5c7-0.5,26.5-9.25,28-12.25C283.675,343.75,275.425,325,275.425,325z"></path></g><path style="fill:#505050;" d="M229.075,298.5c0,0.75-0.75,5-0.75,5l9-1.75l-2.5,5l-7.5,5.5c0,0,7.75,6.25,21.75,12.75c-3.5-6.25-11.25-29-11.25-29L229.075,298.5z"></path><g><g><circle style="fill:#4C4762;stroke:#000000;stroke-linecap:round;stroke-linejoin:round;" cx="254.25" cy="336" r="2.375"></circle><circle style="fill:#908F93;" cx="254.25" cy="336" r="1.143"></circle></g><g><circle style="fill:#4C4762;stroke:#000000;stroke-linecap:round;stroke-linejoin:round;" cx="254.25" cy="350.5" r="2.375"></circle><circle style="fill:#908F93;" cx="254.25" cy="350.5" r="1.143"></circle></g></g><g><path style="fill:#505050;" d="M225.146,322.167c0,0-3-5.5-2.667-7.5c1.5-2.667,7.5-3.167,8.5-2.667s6.667,4.166,7.5,5.333s0.5,5,0.5,5s-4.667,2.5-8,2S225.146,322.167,225.146,322.167z"></path><path style="fill:#505050;" d="M274.167,324c0,0,3.688-7.333,3.354-9.333c-1.5-2.667-7.5-3.167-8.5-2.667s-6.666,4.166-7.5,5.333s-0.5,5-0.5,5s5.646,4,8.979,3.5S274.167,324,274.167,324z"></path></g><path style="fill:#505050;" d="M270.925,298.5c0,0.75,0.75,5,0.75,5l-9-1.75l2.5,5l7.5,5.5c0,0-7.75,6.25-21.75,12.75c3.5-6.25,11.25-29,11.25-29L270.925,298.5z"></path><g><path style="fill:none;stroke:#000000;stroke-linecap:round;stroke-linejoin:round;" d="M273,316.398c0,0-1,5.102-2.5,9"></path><path style="fill:none;stroke:#000000;stroke-linecap:round;stroke-linejoin:round;" d="M263.5,314.5c0,0-1.499,6.833-1.333,8c0,0,5,3.001,7.5,3.667l4.333-1.334"></path><path style="fill:#6E6E6E;stroke:#000000;stroke-linecap:round;stroke-linejoin:round;" d="M276.75,307c0,0-8-0.5-10.5,1.25c-1,1.5-1.75,5.5-1.75,5.5L273,315l5.365-2.5C278.365,312.5,278.75,309.25,276.75,307z"></path></g><g><g><polyline style="fill:none;stroke:#000000;stroke-linecap:round;stroke-linejoin:round;" points="214.075,354.75 217.825,352.75 215.825,349.75 219.575,347.75 217.825,344 "></polyline><polygon style="fill:none;stroke:#000000;stroke-linecap:round;stroke-linejoin:round;" points="218.575,350.5 221.075,349 222.325,351.5 219.825,353 "></polygon></g><g><polyline style="fill:none;stroke:#000000;stroke-linecap:round;stroke-linejoin:round;" points="285.925,354.75 282.175,352.75 284.175,349.75 280.425,347.75 282.175,344 "></polyline><polygon style="fill:none;stroke:#000000;stroke-linecap:round;stroke-linejoin:round;" points="281.425,350.5 278.925,349 277.675,351.5 280.175,353 "></polygon></g></g></g><g><g id="topsXMLID_68_"><g><path style="fill:#6E6E6E;" d="M232.075,281.658c0,0,3.62-1.191,6.5-2.158c1.5,0.432,2,1.079,2,1.079l-2.25,0.863c0,0,4,34.537,11.75,42.308c-15-7.339-23.5-21.585-23.5-21.585l8.25-2.375l1.63-3.558c0,0-9.1,0.631-10.13,0.536C227.325,290.293,232.075,281.658,232.075,281.658z"></path></g><path style="fill:#C0BFC4;" d="M232.075,281.658c0,0-5,11.009-5.75,15.11c5.25-0.432,10.125-0.54,10.125-0.54l1.375-2.482l-7.95,0.434c0,0,1.95-6.046,4.45-12.953C233.325,281.227,232.075,281.658,232.075,281.658z"></path><path style="fill:#C0BFC4;" d="M239.575,291.588l-4.25,7.771l-8.75,2.807c0,0,6.5,12.087,23,20.938c-1.25-1.079-1.75-2.807-1.75-2.807s-16-12.735-17.75-17.268c5.5-1.079,8.25-1.943,8.25-1.943l2-4.101L239.575,291.588z"></path><line style="fill:none;stroke:#000000;stroke-linecap:round;stroke-linejoin:round;" x1="239.575" y1="291.372" x2="234.575" y2="299.79"></line><g><path style="fill:none;stroke:#000000;stroke-linecap:round;stroke-linejoin:round;" d="M238.325,281.442c0,0,4,34.537,11.75,42.308c-15-7.339-23.5-21.585-23.5-21.585l8.25-2.375l1.63-3.558c0,0-9.1,0.631-10.13,0.536c1-6.476,5.75-15.11,5.75-15.11s3.62-1.191,6.5-2.158c1.5,0.432,2,1.079,2,1.079L238.325,281.442z"></path></g></g><g id="topsXMLID_67_"><g><path style="fill:#6E6E6E;" d="M267.925,281.658c0,0-3.62-1.191-6.5-2.158c-1.5,0.432-2,1.079-2,1.079l2.25,0.863c0,0-4,34.537-11.75,42.308c15-7.339,23.5-21.585,23.5-21.585l-8.25-2.375l-1.63-3.558c0,0,9.101,0.631,10.13,0.536C272.675,290.293,267.925,281.658,267.925,281.658z"></path></g><path style="fill:#C0BFC4;" d="M267.925,281.658c0,0,5,11.009,5.75,15.11c-5.25-0.432-10.125-0.54-10.125-0.54l-1.375-2.482l7.95,0.434c0,0-1.95-6.046-4.45-12.953C266.675,281.227,267.925,281.658,267.925,281.658z"></path><path style="fill:#C0BFC4;" d="M260.425,291.588l4.25,7.771l8.75,2.807c0,0-6.5,12.087-23,20.938c1.25-1.079,1.75-2.807,1.75-2.807s16-12.735,17.75-17.268c-5.5-1.079-8.25-1.943-8.25-1.943l-2-4.101L260.425,291.588z"></path><line style="fill:none;stroke:#000000;stroke-linecap:round;stroke-linejoin:round;" x1="260.425" y1="291.372" x2="265.425" y2="299.79"></line><g><path style="fill:none;stroke:#000000;stroke-linecap:round;stroke-linejoin:round;" d="M261.675,281.442c0,0-4,34.537-11.75,42.308c15-7.339,23.5-21.585,23.5-21.585l-8.25-2.375l-1.63-3.558c0,0,9.101,0.631,10.13,0.536c-1-6.476-5.75-15.11-5.75-15.11s-3.62-1.191-6.5-2.158c-1.5,0.432-2,1.079-2,1.079L261.675,281.442z"></path></g></g></g></g></g></g></svg>