<svg xmlns="http://www.w3.org/2000/svg" width="500" height="500" version="1.1"><g id="x9249"><g><g><path style="fill:#6E6E6E;stroke:#000000;stroke-linecap:round;stroke-linejoin:round;" d="M282.332,341C282,339.667,280,337.667,280,337.667s-4.451-28.218-7.168-39.333c-1.832-7.5-5.5-15.667-5.5-15.667l-7.771-1.923l0.105-1.577L250,279.334l-9.667-0.167l0.105,1.577l-7.771,1.923c0,0-3.667,8.167-5.5,15.667c-2.717,11.115-7.167,39.333-7.167,39.333s-2,2-2.333,3.333s0.667,3.334,0.667,3.334S222,345.25,250,345.25s31.666-0.916,31.666-0.916S282.666,342.333,282.332,341z"></path><path style="fill:#505050;" d="M229.365,336.765c0-0.6,16.991-4.736,19.451-4.927c2.459-0.189,24.594,5.875,23.476,7.012c-1.119,1.137-24.446,2.463-26.458,2.651C243.821,341.69,229.365,338.47,229.365,336.765z"></path><g><path style="fill:#505050;" d="M236.523,286c0,0,10.476,3.167,10.393,4.25s-11.666-0.833-11.666-0.833L236.523,286z"></path><path style="fill:#505050;" d="M263.477,286c0,0-10.476,3.167-10.393,4.25s11.666-0.833,11.666-0.833L263.477,286z"></path></g></g><g><g><g><rect x="232.5" y="339.5" style="fill:#C8C8CD;stroke:#000000;stroke-linecap:round;stroke-linejoin:round;" width="1.375" height="5.125"></rect><rect x="236" y="339.5" style="fill:#C8C8CD;stroke:#000000;stroke-linecap:round;stroke-linejoin:round;" width="1.375" height="5.125"></rect></g><g><polygon style="fill:#3C4041;stroke:#000000;stroke-linecap:round;stroke-linejoin:round;" points="237.438,339.75 232.438,339.75 232.438,282.882 237.438,281.5 "></polygon><polygon style="opacity:0.5;fill:#FFFFFF;" points="236.887,315.25 236.887,338.875 235.563,339.375 "></polygon><circle style="fill:#FBF2C7;stroke:#000000;stroke-linecap:round;stroke-linejoin:round;" cx="234.938" cy="337.584" r="0.833"></circle><polygon style="fill:#F8F8F8;stroke:#000000;stroke-linecap:round;stroke-linejoin:round;" points="235.771,297.167 235.771,296.001 234.104,296.001 234.104,297.167 232.104,297.167 232.104,299.167 237.771,299.167 237.771,297.167 "></polygon><polygon style="fill:#F8F8F8;stroke:#000000;stroke-linecap:round;stroke-linejoin:round;" points="234.104,302.834 234.104,304 235.771,304 235.771,302.834 237.771,302.834 237.771,300.834 232.104,300.834 232.104,302.834 "></polygon><rect x="232.188" y="333.334" style="fill:#F8F8F8;stroke:#000000;stroke-linecap:round;stroke-linejoin:round;" width="5.5" height="2.166"></rect></g><g><path style="fill:#FBF2C7;stroke:#000000;stroke-linecap:round;stroke-linejoin:round;" d="M237.354,344.084h-1.25c0,0,0.584,1.75-1.166,1.75s-1.166-1.75-1.166-1.75h-1.25c0,0,0.116,6.25,0.116,7.583c0,1.004,2.3,1,2.3,1s2.301,0.004,2.301-1C237.238,350.334,237.354,344.084,237.354,344.084z"></path><ellipse style="fill:#C3B08D;" cx="234.938" cy="348.959" rx="1.083" ry="1.874"></ellipse></g></g><g><g><rect x="266.125" y="339.5" style="fill:#C8C8CD;stroke:#000000;stroke-linecap:round;stroke-linejoin:round;" width="1.375" height="5.125"></rect><rect x="262.625" y="339.5" style="fill:#C8C8CD;stroke:#000000;stroke-linecap:round;stroke-linejoin:round;" width="1.375" height="5.125"></rect></g><g><polygon style="fill:#3C4041;stroke:#000000;stroke-linecap:round;stroke-linejoin:round;" points="262.563,339.75 267.563,339.75 267.563,282.882 262.563,281.5 "></polygon><polygon style="opacity:0.5;fill:#FFFFFF;" points="267.139,315.25 267.139,338.875 265.814,339.375 "></polygon><circle style="fill:#FBF2C7;stroke:#000000;stroke-linecap:round;stroke-linejoin:round;" cx="265.063" cy="337.584" r="0.834"></circle><polygon style="fill:#F8F8F8;stroke:#000000;stroke-linecap:round;stroke-linejoin:round;" points="264.229,297.167 264.229,296.001 265.896,296.001 265.896,297.167 267.896,297.167 267.896,299.167 262.229,299.167 262.229,297.167 "></polygon><polygon style="fill:#F8F8F8;stroke:#000000;stroke-linecap:round;stroke-linejoin:round;" points="265.896,302.834 265.896,304 264.229,304 264.229,302.834 262.229,302.834 262.229,300.834 267.896,300.834 267.896,302.834 "></polygon><rect x="262.313" y="333.334" style="fill:#F8F8F8;stroke:#000000;stroke-linecap:round;stroke-linejoin:round;" width="5.5" height="2.166"></rect></g><g><path style="fill:#FBF2C7;stroke:#000000;stroke-linecap:round;stroke-linejoin:round;" d="M262.646,344.084h1.25c0,0-0.584,1.75,1.166,1.75s1.166-1.75,1.166-1.75h1.25c0,0-0.116,6.25-0.116,7.583c0,1.004-2.3,1-2.3,1s-2.301,0.004-2.301-1C262.762,350.334,262.646,344.084,262.646,344.084z"></path><ellipse style="fill:#C3B08D;" cx="265.063" cy="348.959" rx="1.083" ry="1.874"></ellipse></g></g></g></g></g></svg>