<svg xmlns="http://www.w3.org/2000/svg" width="500" height="500" version="1.1"><g id="x9250"><g><g><g><g><path style="fill:#FFFFFF;stroke:#000000;stroke-linecap:round;stroke-linejoin:round;" d="M305,352c0,0,1.666,3.667,1.666,4.667C303,359.333,287.334,365,286.334,365c-1-3.333-2.334-5.667-2.334-5.667L305,352z"></path><polygon style="fill:#E4E0F3;" points="294.771,356.583 296.688,360.833 287.688,364.25 286.938,359.916 "></polygon></g><polygon style="fill:#E4E0F3;" points="294.771,356.583 296.688,360.833 287.688,364.25 286.938,359.916 "></polygon><path style="fill:#181717;stroke:#000000;stroke-linecap:round;stroke-linejoin:round;" d="M293.25,321c-0.129-0.387-1.106-2.586-2.482-5.631c0.159-1.068,0.354-2.572,0.482-4.244c-0.555-0.444-2.978-2.067-3.515-2.427c-3.827-8.384-8.235-17.948-8.235-17.948l-9,21l15.166,49.583c0,0,14.75-4.833,23-9.666C308.666,350.667,293.75,322.5,293.25,321z"></path><path style="opacity:0.3;fill:#FFFFFF;" d="M290.502,311.5c0,0,0.16,3.363-0.232,3.869c-2.518,0.881-8.143,1.506-8.143,1.506L290.502,311.5z"></path><path style="fill:#0D0D0D;" d="M278.916,303.667c0,0,3.668,10,3.668,14s0.666,28.666,0.666,28.666l-9.5-34.583L278.916,303.667z"></path></g><g><g><path style="fill:#FFFFFF;stroke:#000000;stroke-linecap:round;stroke-linejoin:round;" d="M195,352c0,0-1.666,3.667-1.666,4.667C197,359.333,212.666,365,213.666,365c1-3.333,2.334-5.667,2.334-5.667L195,352z"></path><polygon style="fill:#E4E0F3;" points="205.229,356.583 203.313,360.833 212.313,364.25 213.063,359.916 "></polygon></g><polygon style="fill:#E4E0F3;" points="205.229,356.583 203.313,360.833 212.313,364.25 213.063,359.916 "></polygon><path style="fill:#181717;stroke:#000000;stroke-linecap:round;stroke-linejoin:round;" d="M206.75,321c0.129-0.387,1.106-2.586,2.482-5.631c-0.159-1.068-0.354-2.572-0.482-4.244c0.555-0.444,2.978-2.067,3.515-2.427c3.827-8.384,8.235-17.948,8.235-17.948l9,21l-15.166,49.583c0,0-14.75-4.833-23-9.666C191.334,350.667,206.25,322.5,206.75,321z"></path><path style="opacity:0.3;fill:#FFFFFF;" d="M209.498,311.5c0,0-0.16,3.363,0.232,3.869c2.518,0.881,8.143,1.506,8.143,1.506L209.498,311.5z"></path><path style="fill:#0D0D0D;" d="M221.084,303.667c0,0-3.668,10-3.668,14s-0.666,28.666-0.666,28.666l9.5-34.583L221.084,303.667z"></path></g></g><g><g><path style="fill:#181717;stroke:#000000;stroke-linecap:round;stroke-linejoin:round;" d="M277.666,308.667c0,0-0.166-9.417,1.834-17.917c-6.25-7-20-10.75-20-10.75l-9.5,11.25L240.5,280c0,0-13.75,3.75-20,10.75c2,8.5,1.833,17.917,1.833,17.917S211.5,369,209,391.5c19,6.5,41,4.5,41,4.5s22,2,41-4.5C288.5,369,277.666,308.667,277.666,308.667z"></path><polyline style="fill:none;stroke:#000000;stroke-linecap:round;stroke-linejoin:round;" points="252.25,395 252.25,293.667 249.891,292.333 "></polyline><g><g><circle style="fill:#808080;stroke:#000000;stroke-linecap:round;stroke-linejoin:round;" cx="248.313" cy="299.438" r="3.188"></circle><circle style="fill:#626262;stroke:#000000;stroke-linecap:round;stroke-linejoin:round;" cx="248.313" cy="299.438" r="1.625"></circle></g><g><circle style="fill:#808080;stroke:#000000;stroke-linecap:round;stroke-linejoin:round;" cx="248.313" cy="311.438" r="3.188"></circle><circle style="fill:#626262;stroke:#000000;stroke-linecap:round;stroke-linejoin:round;" cx="248.313" cy="311.438" r="1.625"></circle></g><g><circle style="fill:#808080;stroke:#000000;stroke-linecap:round;stroke-linejoin:round;" cx="248.313" cy="323.438" r="3.188"></circle><circle style="fill:#626262;stroke:#000000;stroke-linecap:round;stroke-linejoin:round;" cx="248.313" cy="323.438" r="1.625"></circle></g><g><circle style="fill:#808080;stroke:#000000;stroke-linecap:round;stroke-linejoin:round;" cx="248.313" cy="335.438" r="3.188"></circle><circle style="fill:#626262;stroke:#000000;stroke-linecap:round;stroke-linejoin:round;" cx="248.313" cy="335.438" r="1.625"></circle></g><g><circle style="fill:#808080;stroke:#000000;stroke-linecap:round;stroke-linejoin:round;" cx="248.313" cy="347.438" r="3.188"></circle><circle style="fill:#626262;stroke:#000000;stroke-linecap:round;stroke-linejoin:round;" cx="248.313" cy="347.438" r="1.625"></circle></g><g><circle style="fill:#808080;stroke:#000000;stroke-linecap:round;stroke-linejoin:round;" cx="248.313" cy="359.438" r="3.188"></circle><circle style="fill:#626262;stroke:#000000;stroke-linecap:round;stroke-linejoin:round;" cx="248.313" cy="359.438" r="1.625"></circle></g><g><circle style="fill:#808080;stroke:#000000;stroke-linecap:round;stroke-linejoin:round;" cx="248.313" cy="371.438" r="3.188"></circle><circle style="fill:#626262;stroke:#000000;stroke-linecap:round;stroke-linejoin:round;" cx="248.313" cy="371.438" r="1.625"></circle></g><g><circle style="fill:#808080;stroke:#000000;stroke-linecap:round;stroke-linejoin:round;" cx="248.313" cy="383.438" r="3.188"></circle><circle style="fill:#626262;stroke:#000000;stroke-linecap:round;stroke-linejoin:round;" cx="248.313" cy="383.438" r="1.625"></circle></g></g></g><g><g><path style="fill:#6E6E6E;stroke:#000000;stroke-linecap:round;stroke-linejoin:round;" d="M231.693,284.75l-1-7.25c0,0,15.583,2.729,18.75,4.563c0.75,2.438,0.438,9.875,0.438,9.875"></path><path style="fill:#6E6E6E;stroke:#000000;stroke-linecap:round;stroke-linejoin:round;" d="M268.307,284.75l1-7.25c0,0-15.584,2.729-18.75,4.563c-0.75,2.438-0.438,9.875-0.438,9.875"></path></g><g><path style="fill:#181717;stroke:#000000;stroke-linecap:round;stroke-linejoin:round;" d="M230.658,286.75c0,0-1.076-6.083,0.231-7.083c8.721,0.833,17.221,4,17.221,4l2,8.666"></path><path style="fill:#181717;stroke:#000000;stroke-linecap:round;stroke-linejoin:round;" d="M269.342,286.75c0,0,1.076-6.083-0.23-7.083c-8.721,0.833-17.221,4-17.221,4l-2,8.666"></path></g></g></g></g></g></svg>