<svg xmlns="http://www.w3.org/2000/svg" width="500" height="500" version="1.1"><g id="x9252"><g><g><g><g><path style="fill:#FFFFFF;stroke:#000000;stroke-linecap:round;stroke-linejoin:round;" d="M276.973,291c0,0,5.5,5.75,7,10c0.857,2.429,3.994,10.202,9.084,20.083c1.568,3.046,6.537,10.231,7.584,12.5c0.584,2.917,0.334,5.083,0.334,5.083L285.973,350c0,0-2.047-2.188-3.248-4.917c-2.584-5.86-5.568-15.194-6.252-17.583c-3.75-13-5.25-29-5.25-29L276.973,291z"></path><path style="fill:#E4E0F3;" d="M275.391,297.167c0,0,5.832,9.832,6,12.666c0.166,2.834-5.334,13.5-5.334,13.5L271.723,300L275.391,297.167z"></path></g><g><path style="fill:#3C4564;stroke:#000000;stroke-linecap:round;stroke-linejoin:round;" d="M283.723,347c0,0,3.209,8.292,4.752,8.958c0.744,0.321,15.664-8.291,16.248-8.958s-3.75-8.75-3.75-8.75L283.723,347z"></path><polygon style="fill:#FFFFFF;" points="286.016,350.584 286.932,352.376 303.182,343.792 302.348,342.042 "></polygon></g></g><g><g><path style="fill:#FFFFFF;stroke:#000000;stroke-linecap:round;stroke-linejoin:round;" d="M223.027,291c0,0-5.5,5.75-7,10c-0.857,2.429-3.994,10.202-9.084,20.083c-1.568,3.046-6.537,10.231-7.584,12.5c-0.583,2.917-0.333,5.083-0.333,5.083L214.027,350c0,0,2.047-2.188,3.249-4.917c2.583-5.86,5.568-15.194,6.251-17.583c3.75-13,5.25-29,5.25-29L223.027,291z"></path><path style="fill:#E4E0F3;" d="M224.61,297.167c0,0-5.833,9.832-6,12.666s5.333,13.5,5.333,13.5L228.277,300L224.61,297.167z"></path></g><g><path style="fill:#3C4564;stroke:#000000;stroke-linecap:round;stroke-linejoin:round;" d="M216.277,347c0,0-3.209,8.292-4.751,8.958c-0.744,0.321-15.665-8.291-16.249-8.958s3.75-8.75,3.75-8.75L216.277,347z"></path><polygon style="fill:#FFFFFF;" points="213.985,350.584 213.068,352.376 196.818,343.792 197.652,342.042 "></polygon></g></g></g><g><g><g><path style="fill:#FFFFFF;stroke:#000000;stroke-linecap:round;stroke-linejoin:round;" d="M275,306.625c0-3.75-4.75-13.75-4.75-13.75l-20.25,5.5l-20.25-5.5c0,0-4.75,10-4.75,13.75s-3,25-3,25s23.25,0.25,28,0.25s28-0.25,28-0.25S275,310.375,275,306.625z"></path><g><path style="fill:#E4E0F3;" d="M229.946,319.866c0,0-1.166,3.499-0.833,4.666c8.667-1,13.667,1.167,17-5.833s4.167-13,4.167-13l-6,0.833L229.946,319.866z"></path><path style="fill:#E4E0F3;" d="M270.054,319.866c0,0,1.166,3.499,0.833,4.666c-8.666-1-13.667,1.167-16.999-5.833c-3.334-7-4.167-13-4.167-13l6,0.833L270.054,319.866z"></path></g><g><path style="fill:#424142;stroke:#000000;stroke-linecap:round;stroke-linejoin:round;" d="M245.986,329.625c0,0-0.5-2.375,0-3.5c1.625,0.25,3.875,1.625,3.875,1.625L245.986,329.625z"></path><path style="fill:#424142;stroke:#000000;stroke-linecap:round;stroke-linejoin:round;" d="M254.014,329.625c0,0,0.5-2.375,0-3.5c-1.625,0.25-3.875,1.625-3.875,1.625L254.014,329.625z"></path></g></g><g><path style="fill:#FFFFFF;stroke:#000000;stroke-linecap:round;stroke-linejoin:round;" d="M250,291.5c-5,0-7.667,2.166-8,2.666c0,0,8,8,8,8.5c0-0.5,8-8.5,8-8.5C257.666,293.666,255,291.5,250,291.5z"></path><g><g><g><path style="fill:#3C4564;stroke:#000000;stroke-linecap:round;stroke-linejoin:round;" d="M237.797,279.688c0,0,1.716,0.283,2.125,1c0.136,0.238-0.875,0.25-1.172,0.507c2.238,3.922,7.28,12.765,9.64,16.973c-6.518,5.333-18.226,11.083-18.226,11.083s-4.888-11.166-7.555-20.5C227.109,284.25,237.797,279.688,237.797,279.688z"></path></g><g><polygon style="fill:#FFFFFF;" points="245.664,294.313 228.373,304.062 229.088,305.744 246.508,295.781 "></polygon><polygon style="fill:#FFFFFF;" points="243.789,291.031 226.872,300.53 227.537,302.096 244.633,292.5 "></polygon></g></g><g><g><path style="fill:#3C4564;stroke:#000000;stroke-linecap:round;stroke-linejoin:round;" d="M262.203,279.688c0,0-1.717,0.283-2.125,1c-0.137,0.238,0.875,0.25,1.172,0.507c-2.238,3.922-7.279,12.765-9.64,16.973c6.518,5.333,18.226,11.083,18.226,11.083s4.888-11.166,7.555-20.5C272.891,284.25,262.203,279.688,262.203,279.688z"></path></g><g><polygon style="fill:#FFFFFF;" points="254.336,294.313 271.627,304.062 270.912,305.744 253.492,295.781 "></polygon><polygon style="fill:#FFFFFF;" points="256.211,291.031 273.129,300.53 272.463,302.096 255.367,292.5 "></polygon></g></g></g></g></g><g><g><g><path style="fill:#6E6E6E;stroke:#000000;stroke-linecap:round;stroke-linejoin:round;" d="M249.14,303.553c0,0-2.664,12.432-5.994,15.318c-3.33,2.886-12.432,0.888-15.318,2.441c0-4.884,3.552-15.984,8.658-18.647c5.106-2.665,12.432-3.553,12.432-3.553L249.14,303.553z"></path><path style="fill:#505050;" d="M247.253,303.053l-0.111-0.776c0,0-4.54,3.883-6.272,4.495c-0.992,0.351,0.133-2.266,0.528-2.498c-2.22,0.805-5.828,3.414-5.966,4.469c-0.139,1.055,1.304,0.971,1.304,0.971l6.632-0.999C243.311,308.731,246.42,306.272,247.253,303.053z"></path><path style="fill:none;stroke:#000000;stroke-linecap:round;stroke-linejoin:round;" d="M248.474,301.11c0,0-3.774,7.548-6.438,7.992c-2.665,0.444-5.772,0.667-5.772,0.667"></path></g><g><path style="fill:#6E6E6E;stroke:#000000;stroke-linecap:round;stroke-linejoin:round;" d="M250.86,303.553c0,0,2.664,12.432,5.994,15.318c3.329,2.886,12.433,0.888,15.318,2.441c0-4.884-3.553-15.984-8.658-18.647c-5.105-2.665-12.433-3.553-12.433-3.553L250.86,303.553z"></path><path style="fill:#505050;" d="M252.747,303.053l0.111-0.776c0,0,4.54,3.883,6.271,4.495c0.992,0.351-0.134-2.266-0.527-2.498c2.22,0.805,5.828,3.414,5.967,4.469s-1.305,0.971-1.305,0.971l-6.632-0.999C256.688,308.731,253.58,306.272,252.747,303.053z"></path><path style="fill:none;stroke:#000000;stroke-linecap:round;stroke-linejoin:round;" d="M251.526,301.11c0,0,3.774,7.548,6.438,7.992c2.665,0.444,5.772,0.667,5.772,0.667"></path></g></g><path style="fill:#505050;stroke:#000000;stroke-linecap:round;stroke-linejoin:round;" d="M250,298.521c-2.368,0-3.108,1.576-3.108,1.576s0.444,3.765,0.888,4.923c0.362,0.944,1.723,0.927,2.22,0.887c0.496,0.04,1.857,0.058,2.22-0.887c0.444-1.158,0.889-4.923,0.889-4.923S252.368,298.521,250,298.521z"></path></g></g></g></g></svg>