<svg xmlns="http://www.w3.org/2000/svg" width="500" height="500" version="1.1"><g id="x9253"><g><g><g><g><path style="fill:#6E6E6E;stroke:#000000;stroke-linecap:round;stroke-linejoin:round;" d="M227.333,286.466c0,0-4.166,3.201-6.833,7.034s-12.167,27.333-12.333,28c-0.167,0.667-9.833,22-12.667,29.667c4.5,2.833,14.167,8.333,14.167,8.333s11-20.334,14.167-27.167c4.167-18,6.834-35.833,6.834-35.833L227.333,286.466z"></path><line style="fill:none;stroke:#000000;stroke-linecap:round;stroke-linejoin:round;" x1="200.5" y1="341.167" x2="214" y2="349.334"></line><path style="fill:#505050;" d="M228.5,295.667c-0.833,0.167-5.833,7.5-6.5,10s3.667,12.833,3.667,12.833s5.167-16.666,5.167-17.166S228.5,295.667,228.5,295.667z"></path></g><g><path style="fill:#6E6E6E;stroke:#000000;stroke-linecap:round;stroke-linejoin:round;" d="M272.668,286.466c0,0,4.166,3.201,6.832,7.034c2.668,3.833,12.168,27.333,12.334,28s9.832,22,12.666,29.667C300,354,290.334,359.5,290.334,359.5s-11-20.334-14.166-27.167c-4.168-18-6.834-35.833-6.834-35.833L272.668,286.466z"></path><line style="fill:none;stroke:#000000;stroke-linecap:round;stroke-linejoin:round;" x1="299.5" y1="341.167" x2="286" y2="349.334"></line><path style="fill:#505050;" d="M271.5,295.667c0.834,0.167,5.834,7.5,6.5,10c0.668,2.5-3.666,12.833-3.666,12.833s-5.166-16.666-5.166-17.166S271.5,295.667,271.5,295.667z"></path></g></g><g><g><path style="fill:#6E6E6E;stroke:#000000;stroke-linecap:round;stroke-linejoin:round;" d="M263.167,281.5c0,0,6,0.966,9.666,4.966c1,0.666-0.666,12.867-0.666,12.867s1.654,5.693,1.91,8.097s2.59,19.57,2.59,19.57s1.834,2.833,2,4s0.333,4.667,0.333,4.667s5.417,11.083,5.917,25.333c-4.75,6.5-17.5,17.25-17.5,17.25l-20-17v-67l2.75-1L263.167,281.5z"></path><path style="fill:#505050;" d="M278.1,331c0,0,0.666,3.668,0,4.834c-2,0.666-7.333,1.167-6.833,0.5S278.1,331,278.1,331z"></path><path style="fill:#505050;" d="M264.798,295.667c0,0-1.167,3.667-2.5,4.667S250.97,293,250.97,293l2.328-2.5L264.798,295.667z"></path><g><polyline style="fill:none;stroke:#010101;stroke-width:1.5;stroke-linecap:round;stroke-linejoin:round;" points="250.917,291.75 250.917,358.25 270.979,374.875 "></polyline><path style="fill:none;stroke:#010101;stroke-width:1.5;stroke-linecap:round;stroke-linejoin:round;" d="M284.417,356c-0.375,0.5-13.375,13.75-20.375,19"></path></g></g><g><path style="fill:#6E6E6E;stroke:#000000;stroke-linecap:round;stroke-linejoin:round;" d="M236.833,281.5c0,0-6,0.966-9.667,4.966c-1,0.666,0.667,12.867,0.667,12.867s-1.654,5.693-1.91,8.097s-2.59,19.57-2.59,19.57s-1.833,2.833-2,4S221,335.667,221,335.667s-5.417,11.083-5.917,25.333c4.75,6.5,17.5,17.25,17.5,17.25l20-17v-67l-2.75-1L236.833,281.5z"></path><path style="fill:#505050;" d="M221.833,331c0,0-0.667,3.668,0,4.834c2,0.666,7.333,1.167,6.833,0.5S221.833,331,221.833,331z"></path><g><path style="fill:#505050;" d="M235.198,295.667c0,0,1.167,3.667,2.5,4.667S249.032,293,249.032,293l-2.333-2.5L235.198,295.667z"></path></g><g><polyline style="fill:none;stroke:#010101;stroke-width:1.5;stroke-linecap:round;stroke-linejoin:round;" points="249.083,291.75 249.083,358.25 229.021,374.875 "></polyline><path style="fill:none;stroke:#010101;stroke-width:1.5;stroke-linecap:round;stroke-linejoin:round;" d="M215.583,356c0.375,0.5,13.375,13.75,20.375,19"></path></g></g></g></g><g><circle style="fill:#B3493C;stroke:#000000;stroke-linecap:round;stroke-linejoin:round;" cx="250.734" cy="297.166" r="1.668"></circle><circle style="fill:#B3493C;stroke:#000000;stroke-linecap:round;stroke-linejoin:round;" cx="250.734" cy="312.999" r="1.668"></circle><circle style="fill:#B3493C;stroke:#000000;stroke-linecap:round;stroke-linejoin:round;" cx="250.734" cy="328.832" r="1.668"></circle><circle style="fill:#B3493C;stroke:#000000;stroke-linecap:round;stroke-linejoin:round;" cx="250.734" cy="344.665" r="1.668"></circle><circle style="fill:#B3493C;stroke:#000000;stroke-linecap:round;stroke-linejoin:round;" cx="250.734" cy="360.498" r="1.668"></circle></g></g></g></svg>