<svg xmlns="http://www.w3.org/2000/svg" width="500" height="500" version="1.1"><g id="x9254"><g><g><g><path style="fill:#6E6E6E;stroke:#000000;stroke-linecap:round;stroke-linejoin:round;" d="M225.632,287.666c0,0-6.5,6.167-8.167,8.167s-8.333,25.833-8.333,25.833s-14.167,31.5-14.333,32.167c4.833,2.667,15,7.333,15,7.333l11.833-24.833l7.5-35.667L225.632,287.666z"></path><line style="fill:#6E6E6E;stroke:#000000;stroke-linecap:round;stroke-linejoin:round;" x1="217.966" y1="296" x2="225.299" y2="308.666"></line></g><g><path style="fill:#6E6E6E;stroke:#000000;stroke-linecap:round;stroke-linejoin:round;" d="M274.366,287.666c0,0,6.5,6.167,8.168,8.167c1.666,2,8.332,25.833,8.332,25.833s13,29.167,13.168,29.834c-4.834,2.667-15,7.333-15,7.333l-10.668-22.5l-7.5-35.667L274.366,287.666z"></path><line style="fill:#6E6E6E;stroke:#000000;stroke-linecap:round;stroke-linejoin:round;" x1="282.034" y1="296" x2="274.7" y2="308.666"></line></g></g><g><g><path style="fill:#6E6E6E;stroke:#000000;stroke-linecap:round;stroke-linejoin:round;" d="M247.364,291.709l1,4.666l1.667,2.334v58l-5.534,14.167l-30-7.335c0.333-4.666,2.833-16.667,3-17.333s8.5-41.833,8.833-44.166s-1-14.166-1-14.166s6.833-5.833,9.667-7C239.164,282.876,247.364,291.709,247.364,291.709z"></path><path style="fill:#505050;" d="M250.833,353.5c0,0-4.5,5.167-4.5,4s2.333-5.834,2.333-5.834L250.833,353.5z"></path><path style="fill:#505050;" d="M249.667,336.666c0,0-3,2.5-3,1.167s0.167-5.333,0.167-5.333L249.667,336.666z"></path><path style="fill:#505050;" d="M244.958,311.834c0,0,2.375,1,3.125,2s0.75,2.75,0.75,2.75S245.583,316.584,244.958,311.834z"></path><path style="fill:#505050;" d="M245.125,329.667c0,0,2.375,1,3.125,2s0.75,2.75,0.75,2.75S245.75,334.417,245.125,329.667z"></path><path style="fill:#505050;" d="M246.625,348.084c0,0,2.375,1,3.125,2s0.75,2.75,0.75,2.75S247.25,352.834,246.625,348.084z"></path><polygon style="fill:#505050;" points="246.75,291.25 247.75,296.5 240.25,291.25 236.75,296.5 239,282.5 "></polygon><path style="fill:#6E6E6E;stroke:#000000;stroke-linecap:round;stroke-linejoin:round;" d="M252.667,291.834l-1,4.666L250,298.834v58l5.535,14.167l30-7.335c-0.334-4.666-2.834-16.667-3-17.333c-0.168-0.666-8.502-41.833-8.834-44.166c-0.334-2.333,1-14.166,1-14.166s-6.834-5.833-9.666-7C260.866,283.001,252.667,291.834,252.667,291.834z"></path><path style="fill:#505050;" d="M248.542,315.917c0,0,2.375,1,3.125,2s0.75,2.75,0.75,2.75S249.167,320.667,248.542,315.917z"></path><path style="fill:#505050;" d="M249.75,335.125c0,0,2.375,1,3.125,2s0.75,2.75,0.75,2.75S250.375,339.875,249.75,335.125z"></path><path style="fill:#505050;" d="M250.375,350.959c0,0,2.375,1,3.125,2s0.75,2.75,0.75,2.75S251,355.709,250.375,350.959z"></path><polygon style="fill:#505050;" points="253.25,291.25 252.25,296.5 259.75,291.25 263.25,296.5 261,282.5 "></polygon></g><g><g><g><circle style="fill:#6E6E6E;stroke:#000000;stroke-linecap:round;stroke-linejoin:round;" cx="250" cy="317.304" r="2.333"></circle><circle style="fill:#A09EA0;" cx="250" cy="317.304" r="1.209"></circle></g><g><line style="fill:none;stroke:#FFFFFF;stroke-linecap:round;stroke-linejoin:round;" x1="249.232" y1="317.986" x2="250.768" y2="316.451"></line><line style="fill:none;stroke:#FFFFFF;stroke-linecap:round;stroke-linejoin:round;" x1="250.768" y1="317.986" x2="249.232" y2="316.451"></line></g></g><g><g><circle style="fill:#6E6E6E;stroke:#000000;stroke-linecap:round;stroke-linejoin:round;" cx="250" cy="334.679" r="2.333"></circle><circle style="fill:#A09EA0;" cx="250" cy="334.679" r="1.209"></circle></g><g><line style="fill:none;stroke:#FFFFFF;stroke-linecap:round;stroke-linejoin:round;" x1="249.232" y1="335.361" x2="250.768" y2="333.826"></line><line style="fill:none;stroke:#FFFFFF;stroke-linecap:round;stroke-linejoin:round;" x1="250.768" y1="335.361" x2="249.232" y2="333.826"></line></g></g><g><g><circle style="fill:#6E6E6E;stroke:#000000;stroke-linecap:round;stroke-linejoin:round;" cx="250" cy="352.054" r="2.333"></circle><circle style="fill:#A09EA0;" cx="250" cy="352.054" r="1.209"></circle></g><g><line style="fill:none;stroke:#FFFFFF;stroke-linecap:round;stroke-linejoin:round;" x1="249.232" y1="352.736" x2="250.768" y2="351.201"></line><line style="fill:none;stroke:#FFFFFF;stroke-linecap:round;stroke-linejoin:round;" x1="250.768" y1="352.736" x2="249.232" y2="351.201"></line></g></g></g></g></g></g></svg>