<svg xmlns="http://www.w3.org/2000/svg" width="500" height="500" version="1.1"><g id="x9255"><g><g><g><g><g><g><path style="fill:#6E6E6E;stroke:#000000;stroke-linecap:round;stroke-linejoin:round;" d="M280.958,292.5c-1.25-1.75-7-5.25-7-5.25l1.25,45c0,0,6.238,17.083,9.119,25.35c6.692-3.795,10.599-6.353,17.256-9.933C293.749,330.707,281.869,293.776,280.958,292.5z"></path><path style="fill:#505050;" d="M276.083,295c0,0,3.5,8.667,3.5,12s-2.166,16.833-2.166,16.833L276.083,295z"></path><path style="fill:none;stroke:#000000;stroke-linecap:round;stroke-linejoin:round;" d="M280.958,292.5c0,0-4.374,12.834-4.541,14.667"></path></g><path style="fill:#6E6E6E;stroke:#000000;stroke-linecap:round;stroke-linejoin:round;" d="M283.327,355.6c2.244,6.439,4.271,12.384,4.381,13.15c5.75-1.5,18-7.75,22-11.75c-1.15-1.422-3.55-6.238-6.459-12.536C296.592,348.044,290.02,351.805,283.327,355.6z"></path></g><g><g><path style="fill:#6E6E6E;stroke:#000000;stroke-linecap:round;stroke-linejoin:round;" d="M219.042,292.5c1.25-1.75,7-5.25,7-5.25l-1.25,45c0,0-6.238,17.083-9.119,25.35c-6.692-3.795-10.599-6.353-17.256-9.933C206.251,330.707,218.131,293.776,219.042,292.5z"></path><path style="fill:#505050;" d="M223.917,295c0,0-3.5,8.667-3.5,12s2.166,16.833,2.166,16.833L223.917,295z"></path><path style="fill:none;stroke:#000000;stroke-linecap:round;stroke-linejoin:round;" d="M219.042,292.5c0,0,4.374,12.834,4.541,14.667"></path></g><path style="fill:#6E6E6E;stroke:#000000;stroke-linecap:round;stroke-linejoin:round;" d="M216.673,355.6c-2.244,6.439-4.271,12.384-4.381,13.15c-5.75-1.5-18-7.75-22-11.75c1.15-1.422,3.55-6.238,6.459-12.536C203.408,348.044,209.98,351.805,216.673,355.6z"></path></g></g><g><g><path style="fill:#6E6E6E;stroke:#000000;stroke-linecap:round;stroke-linejoin:round;" d="M282,340.333c-0.334-1.334-1.666-4.333-4-9c0-7-2-35.333-3.666-43.667C270.667,283,264,281.5,263,281.166L250,289l-13-7.834c-1,0.334-7.667,1.834-11.333,6.5C224,296,222,324.333,222,331.333c-2.333,4.667-3.667,7.666-4,9s1.875,6.792,1.875,6.792h60.25C280.125,347.125,282.334,341.667,282,340.333z"></path><path style="fill:#505050;" d="M241.334,339.833c0-1.666,9.832,0.334,11.499,0.334s12.668-3.834,15.834-3.334c-0.667,3.834-12.5,7.833-15,8S241.334,341.499,241.334,339.833z"></path><g><path style="fill:#505050;" d="M223.067,324.833l-0.5,7c0,0-4.167,8.001-4.167,9.334c0.333,3,1.833,5.166,1.833,5.166l10.333,0.334c0,0-10.333-4.5-10.333-6s3.167-3.834,4.667-7.5C225.067,331.667,223.067,324.833,223.067,324.833z"></path><path style="fill:#505050;" d="M276.928,324.333l0.5,7c0,0,4.167,8.001,4.167,9.334c-0.333,3-1.833,5.166-1.833,5.166l-10.334,0.334c0,0,10.334-4.5,10.334-6s-3.167-3.834-4.667-7.5C274.928,331.167,276.928,324.333,276.928,324.333z"></path></g><g><path style="fill:none;stroke:#000000;stroke-linecap:round;stroke-linejoin:round;" d="M229.228,307.25c0,0-0.375,22-0.125,25.25c-1.625,4-2.5,7.75-2.75,8.875c0.5,3,1.625,5.125,1.625,5.125"></path><g><path style="fill:#6E6E6E;stroke:#000000;stroke-linecap:round;stroke-linejoin:round;" d="M223.978,305.25c0,0-0.75,3.125-0.375,4c4.75,0.875,12.375-0.25,12.375-0.25s0.375-3.25,0.375-4.125C230.354,304.125,223.978,305.25,223.978,305.25z"></path><circle style="fill:#D8BD9D;stroke:#000000;stroke-linecap:round;stroke-linejoin:round;" cx="228.979" cy="307" r="1.375"></circle></g><path style="fill:none;stroke:#000000;stroke-linecap:round;stroke-linejoin:round;" d="M270.772,307.25c0,0,0.375,22,0.125,25.25c1.625,4,2.5,7.75,2.75,8.875c-0.5,3-1.625,5.125-1.625,5.125"></path><g><path style="fill:#6E6E6E;stroke:#000000;stroke-linecap:round;stroke-linejoin:round;" d="M276.022,305.25c0,0,0.75,3.125,0.375,4c-4.75,0.875-12.375-0.25-12.375-0.25s-0.375-3.25-0.375-4.125C269.647,304.125,276.022,305.25,276.022,305.25z"></path><circle style="fill:#D8BD9D;stroke:#000000;stroke-linecap:round;stroke-linejoin:round;" cx="271.022" cy="307" r="1.375"></circle></g></g><line style="fill:none;stroke:#000000;stroke-linecap:round;stroke-linejoin:round;" x1="254" y1="289.25" x2="254" y2="346.25"></line><g><ellipse style="fill:#D8BD9D;stroke:#000000;stroke-linecap:round;stroke-linejoin:round;" cx="250" cy="296" rx="2.25" ry="2.5"></ellipse><ellipse style="fill:#D8BD9D;stroke:#000000;stroke-linecap:round;stroke-linejoin:round;" cx="250" cy="309.75" rx="2.25" ry="2.5"></ellipse><ellipse style="fill:#D8BD9D;stroke:#000000;stroke-linecap:round;stroke-linejoin:round;" cx="250" cy="323.5" rx="2.25" ry="2.5"></ellipse><ellipse style="fill:#D8BD9D;stroke:#000000;stroke-linecap:round;stroke-linejoin:round;" cx="250" cy="337.25" rx="2.25" ry="2.5"></ellipse></g></g></g></g><g><g><g><rect x="263.817" y="309.289" style="fill:#BC1E1B;stroke:#000000;stroke-linecap:round;stroke-linejoin:round;" width="5.567" height="9.766"></rect><rect x="265.938" y="309.374" style="fill:#D8BD9D;" width="1.458" height="8.535"></rect><rect x="263.817" y="307.963" style="fill:#D8BD9D;stroke:#000000;stroke-linecap:round;stroke-linejoin:round;" width="5.567" height="1.766"></rect><path style="fill:#D8BD9D;stroke:#000000;stroke-linecap:round;stroke-linejoin:round;" d="M269.517,317.497c0,0-0.994,1.001-1.192,1.001c-0.2,0-1.656-1.06-1.656-1.06s-1.458,1.06-1.658,1.06c-0.198,0-1.192-1.001-1.192-1.001l-0.066,2.001l1.855,2.06l1.062,0.06l1.06-0.06l1.855-2.06L269.517,317.497z"></path></g><ellipse style="fill:#D8BD9D;stroke:#000000;stroke-linecap:round;stroke-linejoin:round;" cx="266.667" cy="324.147" rx="2.386" ry="2.59"></ellipse></g><g><g><rect x="271.233" y="309.289" style="fill:#BC1E1B;stroke:#000000;stroke-linecap:round;stroke-linejoin:round;" width="5.567" height="9.766"></rect><rect x="273.354" y="309.374" style="fill:#D8BD9D;" width="1.458" height="8.535"></rect><rect x="271.233" y="307.963" style="fill:#D8BD9D;stroke:#000000;stroke-linecap:round;stroke-linejoin:round;" width="5.567" height="1.766"></rect><path style="fill:#D8BD9D;stroke:#000000;stroke-linecap:round;stroke-linejoin:round;" d="M276.933,317.497c0,0-0.994,1.001-1.192,1.001c-0.2,0-1.656-1.06-1.656-1.06s-1.458,1.06-1.658,1.06c-0.198,0-1.192-1.001-1.192-1.001l-0.066,2.001l1.855,2.06l1.062,0.06l1.06-0.06l1.855-2.06L276.933,317.497z"></path></g><ellipse style="fill:#D8BD9D;stroke:#000000;stroke-linecap:round;stroke-linejoin:round;" cx="274.083" cy="324.147" rx="2.386" ry="2.59"></ellipse></g></g></g></g></g></svg>