<svg xmlns="http://www.w3.org/2000/svg" width="500" height="500" version="1.1"><g id="x9256"><g><g><g><path style="fill:#6E6E6E;stroke:#000000;stroke-linecap:round;stroke-linejoin:round;" d="M211.875,311.25c0,0-9.843,19.898-11.75,24.5c-3.625,8.75-5.75,18.75-5.75,18.75s4.5,8.5,15.75,8c6.25-7,15.75-36.25,16.75-38.5s1-14.75,1-14.75L211.875,311.25z"></path><path style="fill:#505050;" d="M224.25,310.5c-1.5,1.5-6,10.5-6.25,14.25s4.25,17.75,4.25,17.75l7.25-18.5L224.25,310.5z"></path><g><path style="fill:none;stroke:#000000;stroke-linecap:round;stroke-linejoin:round;" d="M196.5,356.65c0,0,1.5-5.5,2.75-7.75"></path><path style="fill:none;stroke:#000000;stroke-linecap:round;stroke-linejoin:round;" d="M201.5,360c0,0,1.5-5.25,2.5-7.5"></path><path style="fill:none;stroke:#000000;stroke-linecap:round;stroke-linejoin:round;" d="M206.5,361.75c0,0,2.5-5,3.25-7.25"></path></g></g><g><path style="fill:#6E6E6E;stroke:#000000;stroke-linecap:round;stroke-linejoin:round;" d="M288.125,311.25c0,0,9.844,19.898,11.75,24.5c3.625,8.75,5.75,18.75,5.75,18.75s-4.5,8.5-15.75,8c-6.25-7-15.75-36.25-16.75-38.5s-1-14.75-1-14.75L288.125,311.25z"></path><path style="fill:#505050;" d="M275.75,310.5c1.5,1.5,6,10.5,6.25,14.25s-4.25,17.75-4.25,17.75L270.5,324L275.75,310.5z"></path><g><path style="fill:none;stroke:#000000;stroke-linecap:round;stroke-linejoin:round;" d="M303.5,356.65c0,0-1.5-5.5-2.75-7.75"></path><path style="fill:none;stroke:#000000;stroke-linecap:round;stroke-linejoin:round;" d="M298.5,360c0,0-1.5-5.25-2.5-7.5"></path><path style="fill:none;stroke:#000000;stroke-linecap:round;stroke-linejoin:round;" d="M293.5,361.75c0,0-2.5-5-3.25-7.25"></path></g></g></g><g><path style="fill:#6E6E6E;stroke:#000000;stroke-linecap:round;stroke-linejoin:round;" d="M276.25,323.5c0.75-4-0.5-13-0.5-13L250,310.25l-25.75,0.25c0,0-1.25,9-0.5,13c-1.5,3-6.75,13.5-6.5,14.75s8.25,5.25,12.25,5.5s18-2.75,20.5-3.5c2.5,0.75,16.5,3.75,20.5,3.5s12-4.25,12.25-5.5S277.75,326.5,276.25,323.5z"></path><path style="fill:#505050;" d="M224.333,317.5c0,0,1.167,8.25,8.667,8c-3,2.75-6.25,5.25-6.75,6.5s-4,7.5-4,7.5l-3.25-4.75l5-11C223.25,320.75,224.333,317.5,224.333,317.5z"></path><path style="fill:#505050;" d="M271,314.25c0,0-4.75,7-7.75,7.75s-12.584,2-11.417,3.5s23.917,12.25,23.917,12.25l4.625-2.875L275.5,323.25c0,0,0.25-5,0-7.75S271,314.25,271,314.25z"></path><path style="fill:#505050;" d="M224.833,311.166c0,0-0.833,4.834-0.5,6.334c5.5-4.667,16.333-5.834,16.333-5.834L224.833,311.166z"></path><path style="fill:#505050;" d="M275.322,311.166c0,0,0.834,4.834,0.5,6.334c-5.5-4.667-16.333-5.834-16.333-5.834L275.322,311.166z"></path><path style="fill:#505050;" d="M219.625,334c0,0-2.125,3.375-1.875,4.375s9.125,5.375,12.875,5.125s19-3.625,19-3.625S231,341.5,227.25,340.25S219.625,334,219.625,334z"></path><path style="fill:#505050;" d="M251.5,340c0,0,13.375,4,19.375,3.125c6-0.75,11.5-4.875,11.5-4.875s-1.625-2.375-2-3.375c-2.25,1.875-7.625,4.625-10.625,4.75S262.875,337,262.875,337S252.75,339.125,251.5,340z"></path><path style="fill:none;stroke:#000000;stroke-linecap:round;stroke-linejoin:round;" d="M250,340.25c0,0,11.75-3.5,16-3.75"></path></g><g><path style="fill:#6E6E6E;stroke:#000000;stroke-linecap:round;stroke-linejoin:round;" d="M283.5,300.75c0,0-13.5-0.75-33.5-0.75s-33.5,0.75-33.5,0.75s-2.75,1.5-5.75,11.5c4.5-0.75,39.25-0.75,39.25-0.75s34.75,0,39.25,0.75C286.25,302.25,283.5,300.75,283.5,300.75z"></path><g><path style="fill:none;stroke:#000000;stroke-linecap:round;stroke-linejoin:round;" d="M217.725,311.5c0,0,1.5-6.917,3.417-10.75"></path><path style="fill:none;stroke:#000000;stroke-linecap:round;stroke-linejoin:round;" d="M228.35,300.563c-1.438,2.875-2.563,10.917-2.563,10.917"></path><path style="fill:none;stroke:#000000;stroke-linecap:round;stroke-linejoin:round;" d="M235.558,300.375c-0.958,1.916-1.708,11.084-1.708,11.084"></path><path style="fill:none;stroke:#000000;stroke-linecap:round;stroke-linejoin:round;" d="M242.767,300.188c-0.479,0.958-0.854,11.25-0.854,11.25"></path><path style="fill:none;stroke:#000000;stroke-linecap:round;stroke-linejoin:round;" d="M282.275,311.5c0,0-1.5-6.917-3.416-10.75"></path><path style="fill:none;stroke:#000000;stroke-linecap:round;stroke-linejoin:round;" d="M271.65,300.563c1.438,2.875,2.563,10.917,2.563,10.917"></path><path style="fill:none;stroke:#000000;stroke-linecap:round;stroke-linejoin:round;" d="M264.442,300.375c0.958,1.916,1.708,11.084,1.708,11.084"></path><path style="fill:none;stroke:#000000;stroke-linecap:round;stroke-linejoin:round;" d="M257.234,300.188c0.479,0.958,0.854,11.25,0.854,11.25"></path><line style="fill:none;stroke:#000000;stroke-linecap:round;stroke-linejoin:round;" x1="250" y1="300" x2="250" y2="311.417"></line></g></g></g></g></svg>