<svg xmlns="http://www.w3.org/2000/svg" width="500" height="500" version="1.1"><g id="x9257"><g><g><g><path style="fill:#4A4A4A;stroke:#000000;stroke-linecap:round;stroke-linejoin:round;" d="M252.5,286.125c0,0-2.25,3.5-2.5,4.375c-0.25-0.875-2.5-4.375-2.5-4.375C243,289.5,236.75,307.5,236.75,307.5l13.25,7l13.25-7C263.25,307.5,257,289.5,252.5,286.125z"></path><circle style="fill:#C3C3C3;stroke:#000000;stroke-linecap:round;stroke-linejoin:round;" cx="249.563" cy="292.438" r="1.438"></circle></g><g><g><path style="fill:#4A4A4A;stroke:#000000;stroke-linecap:round;stroke-linejoin:round;" d="M240.5,278.875c0.212-0.31,1.125,1.75,1.625,2.375s4.5,4.125,5.25,4.875c0,0-3.25,8.375-3.625,9c-1.875-2-7-9-7-9S238.875,281.25,240.5,278.875z"></path></g><path style="fill:#4A4A4A;stroke:#000000;stroke-linecap:round;stroke-linejoin:round;" d="M259.5,278.875c-0.212-0.31-1.125,1.75-1.625,2.375s-4.5,4.125-5.25,4.875c0,0,3.25,8.375,3.625,9c1.875-2,7-9,7-9S261.125,281.25,259.5,278.875z"></path></g></g><g><g><g><path style="fill:#6E6E6E;stroke:#000000;stroke-linecap:round;stroke-linejoin:round;" d="M220.425,336.25c0,0-7.25,20.25-8.25,21.5c-3-1.25-15.75-7.25-15.75-7.25s14.167-46.832,24.333-60.999c3.667-2,11.417-6.501,11.417-6.501l-2.5,22.75L220.425,336.25z"></path><path style="fill:#505050;" d="M227.675,296.75c0,0-7.417,11.25-8.417,15.25s3.333,14.334,3.333,14.334L227.675,296.75z"></path></g><g><path style="fill:#6E6E6E;stroke:#000000;stroke-linecap:round;stroke-linejoin:round;" d="M279.575,336.25c0,0,7.25,20.25,8.25,21.5c3-1.25,15.75-7.25,15.75-7.25s-14.166-46.832-24.334-60.999c-3.666-2-11.416-6.501-11.416-6.501l2.5,22.75L279.575,336.25z"></path><path style="fill:#505050;" d="M272.325,296.75c0,0,7.416,11.25,8.416,15.25s-3.332,14.334-3.332,14.334L272.325,296.75z"></path></g></g><g><g id="topsXMLID_66_"><g><path style="fill:#6E6E6E;" d="M285.19,364.38c-1.051,0.73-4,2.13-6.08,2.84c-0.11-0.279-0.601-0.489-0.86-0.41c-0.31,0.101-0.63,0.311-0.87,0.96c-2.49,0.74-5.22,1.351-7.62,1.66c-0.18,0.021-0.31-0.59-0.5-0.56c-0.35,0.04-0.439,0.08-0.79,0.12c0,0.51-0.01,0.18-0.02,0.59c-1.62,0.75-8.101,1.07-8.101,1.07l-0.01-0.471c-0.85,0.051-0.68,0.101-1.47,0.141c0,0.439-0.01,0.06-0.021,0.43c-1.619,0.75-8.1,0.38-8.1,0.38l-0.01-0.64c-0.46,0.01-0.65,0.01-0.72,0.01H250h-0.02c-0.07,0-0.26,0-0.72-0.01l-0.01,0.64c0,0-6.48,0.37-8.1-0.38c-0.01-0.37-0.02,0.01-0.02-0.43c-0.79-0.04-0.62-0.09-1.47-0.141l-0.01,0.471c0,0-6.48-0.32-8.1-1.07c-0.01-0.41-0.02-0.08-0.02-0.59c-0.35-0.04-0.44-0.08-0.79-0.12c-0.19-0.03-0.32,0.58-0.5,0.56c-2.4-0.31-5.14-0.92-7.62-1.66c-0.24-0.649-0.56-0.859-0.87-0.96c-0.26-0.079-0.75,0.131-0.86,0.41c-2.08-0.71-5.03-2.109-6.08-2.84c4.31-30.5,11.52-61.88,11.52-61.88s-3.16-7.67-5.5-13.17C229,282,239,280.75,239,280.75s4.375,28.375,11,28.375s11-28.375,11-28.375s10,1.25,18.17,8.58c-2.34,5.5-5.5,13.17-5.5,13.17S280.88,333.88,285.19,364.38z"></path></g><g><path style="fill:#8A8A8A;" d="M248.283,310.827l-4.266-4.44l1.733-1.533l-0.967-0.947l-1.692,1.594l-5.646-5.315l-6.035,5.899l-6.333-7.793l1.791,4.335l3.459,4.625l-4.042,4.042l3.535,4.035l-6.994,5.881l-0.291,1.709l8.138-6.617l5.444,6.213l-2.925,3.055l3.551,3.682l3.522-3.563l-2.606-3.116l5.234-5.28l4.1,4.003l0.013-2.46l-3.061-3.197L248.283,310.827z M238.682,325.767l-1.851,1.892l-1.822-1.948l1.816-1.943L238.682,325.767z M236.537,320.963l-4.709-5.504l4.291-3.833l-3.916-4.5l5.111-4.673l4.409,4.754l-4.125,4.169l4.226,4.668L236.537,320.963z"></path><path style="fill:#8A8A8A;" d="M256.054,315.636l-6.22,6.614l0.292,1.583l6.979-6.543l5.234,5.28l-2.605,3.116l3.521,3.563l3.551-3.682l-2.924-3.055l5.443-6.213l8.139,6.617l-0.292-1.709l-6.994-5.881l3.536-4.035l-4.043-4.042l3.459-4.625l1.791-4.335l-6.332,7.793l-6.036-5.899l-5.646,5.315l-1.691-1.594l-0.968,0.947l1.733,1.533l-4.266,4.44L256.054,315.636z M263.174,323.767l1.816,1.943l-1.821,1.948l-1.852-1.892L263.174,323.767z M258.175,316.044l4.226-4.668l-4.124-4.169l4.408-4.754l5.111,4.673l-3.916,4.5l4.291,3.833l-4.709,5.504L258.175,316.044z"></path></g><g><g><g><path style="fill:#505050;" d="M241.587,370.5c0,0.005,0,0.005,0,0.01c0.009-0.291,0.576-9.73,0.874-14.681l0,0c0.017-0.275-0.193-0.513-0.469-0.529c-0.276-0.017-0.513,0.193-0.529,0.469l0,0c-0.206,3.408-0.876,14.544-0.876,14.731l0,0c0,0.276,0.224,0.5,0.5,0.5S241.587,370.776,241.587,370.5L241.587,370.5z"></path></g><g><path style="fill:#505050;" d="M240.083,370.404c0.037,0.063,0.052,0.097,0.058,0.17c-0.051-0.593,0.507-9.207,0.895-14.853l0,0c0.019-0.275-0.189-0.514-0.465-0.533c-0.275-0.019-0.514,0.189-0.533,0.465l0,0c-1.022,14.902-0.92,15.079-0.821,15.251l0,0c0.138,0.239,0.444,0.321,0.683,0.184C240.139,370.949,240.221,370.644,240.083,370.404L240.083,370.404z"></path></g></g><g><g><path style="fill:#505050;" d="M232.046,369.297l1.688-14.75l0,0c0.032-0.274-0.166-0.522-0.44-0.554c-0.274-0.031-0.522,0.166-0.553,0.44l0,0l-1.688,14.75l0,0c-0.032,0.274,0.166,0.522,0.44,0.554C231.767,369.769,232.015,369.571,232.046,369.297L232.046,369.297z"></path></g><g><path style="fill:#505050;" d="M230.436,368.875c0.022-0.065,0.08-0.238,1.635-14.729l0,0c0.03-0.275-0.169-0.521-0.444-0.551c-0.274-0.029-0.521,0.169-0.55,0.443l0,0l0,0c-0.605,5.639-1.532,14.172-1.604,14.575c0.004-0.024,0.007-0.031,0.015-0.055l0,0c-0.087,0.262,0.054,0.545,0.316,0.633C230.065,369.278,230.349,369.137,230.436,368.875L230.436,368.875z"></path></g></g><g><g><path style="fill:#505050;" d="M223.054,367.537l2.539-14.628l0,0c0.047-0.272-0.135-0.531-0.407-0.578c-0.272-0.048-0.531,0.135-0.578,0.406l0,0l-2.539,14.628l0,0c-0.047,0.272,0.135,0.531,0.407,0.578C222.748,367.991,223.007,367.809,223.054,367.537L223.054,367.537z"></path></g><g><path style="fill:#505050;" d="M221.471,367.022c0.025-0.064,0.093-0.234,2.485-14.611l0,0c0.045-0.272-0.139-0.53-0.411-0.575s-0.53,0.139-0.575,0.411l0,0l0,0c-0.931,5.594-2.35,14.06-2.445,14.458c0.006-0.023,0.009-0.031,0.018-0.054l0,0c-0.103,0.257,0.022,0.548,0.279,0.65C221.078,367.403,221.369,367.278,221.471,367.022L221.471,367.022z"></path></g></g><g><g><path style="fill:#505050;" d="M259.423,370.5c0-0.188-0.671-11.323-0.876-14.731l0,0c-0.017-0.275-0.254-0.485-0.529-0.469s-0.485,0.254-0.469,0.529l0,0c0.299,4.95,0.865,14.39,0.874,14.681v-0.01c0,0.276,0.224,0.5,0.5,0.5S259.423,370.776,259.423,370.5L259.423,370.5z"></path></g><g><path style="fill:#505050;" d="M260.794,370.904c0.099-0.172,0.2-0.349-0.821-15.251l0,0c-0.02-0.275-0.258-0.483-0.533-0.465c-0.275,0.02-0.483,0.258-0.465,0.533l0,0l0,0c0.388,5.646,0.945,14.26,0.895,14.853c0.006-0.073,0.021-0.106,0.058-0.17l0,0c-0.138,0.239-0.056,0.545,0.184,0.684C260.35,371.226,260.655,371.144,260.794,370.904L260.794,370.904z"></path></g></g><g><g><path style="fill:#505050;" d="M249.675,370.625l0.188-14.556l0,0c0.003-0.276-0.217-0.503-0.493-0.507c-0.276-0.004-0.503,0.217-0.507,0.493l0,0l-0.188,14.569l0,0c0,0.276,0.224,0.5,0.5,0.5S249.675,370.901,249.675,370.625L249.675,370.625z"></path></g><g><path style="fill:#505050;" d="M251.336,370.625l-0.188-14.569l0,0c-0.003-0.276-0.23-0.497-0.506-0.493c-0.276,0.004-0.497,0.23-0.493,0.507l0,0l0.188,14.556l0,0c0,0.276,0.224,0.5,0.5,0.5S251.336,370.901,251.336,370.625L251.336,370.625z"></path></g></g><g><g><path style="fill:#505050;" d="M268.959,369.184l-1.688-14.75l0,0c-0.031-0.274-0.279-0.472-0.554-0.44s-0.472,0.279-0.44,0.554l0,0l1.688,14.75l0,0c0.031,0.274,0.279,0.472,0.554,0.44S268.99,369.458,268.959,369.184L268.959,369.184z"></path></g><g><path style="fill:#505050;" d="M270.524,368.559c0.008,0.023,0.01,0.03,0.014,0.055c-0.071-0.403-0.999-8.937-1.604-14.575l0,0c-0.029-0.274-0.276-0.473-0.551-0.443s-0.473,0.276-0.443,0.551l0,0c1.557,14.491,1.614,14.664,1.636,14.729l0,0c0.088,0.262,0.371,0.403,0.633,0.316C270.47,369.104,270.611,368.82,270.524,368.559L270.524,368.559z"></path></g></g><g><g><path style="fill:#505050;" d="M277.941,367.365l-2.539-14.628l0,0c-0.047-0.271-0.306-0.454-0.578-0.406c-0.271,0.047-0.454,0.306-0.406,0.578l0,0l2.539,14.628l0,0c0.047,0.271,0.306,0.454,0.578,0.406C277.807,367.896,277.989,367.638,277.941,367.365L277.941,367.365z"></path></g><g><path style="fill:#505050;" d="M279.469,366.649c0.009,0.023,0.012,0.03,0.018,0.055c-0.096-0.4-1.515-8.865-2.445-14.457l0,0c-0.045-0.272-0.303-0.456-0.575-0.411s-0.456,0.303-0.411,0.575l0,0c2.392,14.379,2.461,14.549,2.486,14.613l0,0c0.104,0.256,0.396,0.38,0.651,0.276S279.572,366.905,279.469,366.649L279.469,366.649z"></path></g></g></g><g><path style="fill:none;stroke:#000000;stroke-linecap:round;stroke-linejoin:round;" d="M273.67,302.5c0,0,3.16-7.67,5.5-13.17C271,282,261,280.75,261,280.75s-2.75,29-11,29s-11-29-11-29s-10,1.25-18.17,8.58c2.34,5.5,5.5,13.17,5.5,13.17s-7.21,31.38-11.52,61.88c1.05,0.73,4,2.13,6.08,2.84c0.11-0.279,0.6-0.489,0.86-0.41c0.31,0.101,0.63,0.311,0.87,0.96c2.48,0.74,5.22,1.351,7.62,1.66c0.18,0.021,0.31-0.59,0.5-0.56c0.35,0.04,0.44,0.08,0.79,0.12c0,0.51,0.01,0.18,0.02,0.59c1.62,0.75,8.1,1.07,8.1,1.07l0.01-0.471c0.85,0.051,0.68,0.101,1.47,0.141c0,0.439,0.01,0.06,0.02,0.43c1.62,0.75,8.1,0.38,8.1,0.38l0.01-0.64c0.46,0.01,0.65,0.01,0.72,0.01H250h0.02c0.07,0,0.26,0,0.72-0.01l0.01,0.64c0,0,6.48,0.37,8.1-0.38c0.011-0.37,0.021,0.01,0.021-0.43c0.79-0.04,0.62-0.09,1.47-0.141l0.01,0.471c0,0,6.48-0.32,8.101-1.07c0.01-0.41,0.02-0.08,0.02-0.59c0.351-0.04,0.44-0.08,0.79-0.12c0.19-0.03,0.32,0.58,0.5,0.56c2.4-0.31,5.13-0.92,7.62-1.66c0.24-0.649,0.561-0.859,0.87-0.96c0.26-0.079,0.75,0.131,0.86,0.41c2.08-0.71,5.029-2.109,6.08-2.84C280.88,333.88,273.67,302.5,273.67,302.5z"></path></g></g><g><g><g><path style="fill:#6E6E6E;stroke:#000000;stroke-linecap:round;stroke-linejoin:round;" d="M259.755,278.5c0,0-0.199,4.875-0.199,5.5s-4.625,5.25-5.625,6.875s1.267,7.375,2.392,9.125c4.375-1.875,10.608-9.5,10.733-11.25c-1.875-2-5.801-6.75-6.051-7.5S259.755,278.5,259.755,278.5z"></path><g><g><path style="fill:#505050;" d="M256.465,288.54l-0.815,0.92c0.791,4.363,2.536,6.784,3.236,7.597l0.77-0.644c-0.623-0.728-2.445-3.186-3.137-7.727C256.511,288.633,256.488,288.586,256.465,288.54z"></path></g><g><path style="fill:#505050;" d="M261.604,294.639c-0.715-0.751-2.617-3.084-3.572-7.459c-0.021-0.099-0.077-0.178-0.144-0.243l-0.736,0.83c1.053,4.454,3.004,6.826,3.771,7.612L261.604,294.639z"></path></g><g><path style="fill:#505050;" d="M259.513,285.354c-0.016-0.06-0.045-0.111-0.079-0.158l-0.754,0.85c1.257,4.342,3.29,6.602,4.097,7.354l0.641-0.775C262.661,291.896,260.665,289.657,259.513,285.354z"></path><polygon style="fill:#505050;" points="264.004,293.585 264.003,293.585 264.003,293.584 "></polygon></g><g><polygon style="fill:#505050;" points="265.646,291.395 265.646,291.395 265.646,291.394 "></polygon><path style="fill:#505050;" d="M260.821,283.357c-0.082-0.261-0.488-0.389-0.749-0.311l-0.016,1.109c1.459,4.124,3.601,6.43,4.405,7.11l0.59-0.815C264.267,289.762,262.167,287.613,260.821,283.357z"></path></g></g></g><g><path style="fill:#6E6E6E;stroke:#000000;stroke-linecap:round;stroke-linejoin:round;" d="M240.245,278.5c0,0,0.199,4.875,0.199,5.5s4.625,5.25,5.625,6.875s-1.267,7.375-2.392,9.125c-4.375-1.875-10.608-9.5-10.733-11.25c1.875-2,5.801-6.75,6.051-7.5S240.245,278.5,240.245,278.5z"></path><g><g><path style="fill:#505050;" d="M243.535,288.54l0.815,0.92c-0.791,4.363-2.536,6.784-3.236,7.597l-0.77-0.644c0.623-0.728,2.445-3.186,3.137-7.727C243.489,288.633,243.512,288.586,243.535,288.54z"></path></g><g><path style="fill:#505050;" d="M238.396,294.639c0.715-0.751,2.617-3.084,3.572-7.459c0.021-0.099,0.077-0.178,0.144-0.243l0.736,0.83c-1.053,4.454-3.004,6.826-3.771,7.612L238.396,294.639z"></path></g><g><path style="fill:#505050;" d="M240.487,285.354c0.016-0.06,0.045-0.111,0.079-0.158l0.754,0.85c-1.257,4.342-3.29,6.602-4.097,7.354l-0.641-0.775C237.339,291.896,239.335,289.657,240.487,285.354z"></path><polygon style="fill:#505050;" points="235.996,293.585 235.997,293.585 235.997,293.584 "></polygon></g><g><polygon style="fill:#505050;" points="234.354,291.395 234.354,291.395 234.354,291.394 "></polygon><path style="fill:#505050;" d="M239.179,283.357c0.082-0.261,0.488-0.389,0.749-0.311l0.016,1.109c-1.459,4.124-3.601,6.43-4.405,7.11l-0.59-0.815C235.733,289.762,237.833,287.613,239.179,283.357z"></path></g></g></g></g><g><g><path style="fill:#505050;stroke:#000000;stroke-linecap:round;stroke-linejoin:round;" d="M253.375,303.375c0,0-2.375,4.875-4.375,5.625c-0.125,1.875,0.125,5.75,0.125,5.75s6.5-4,7.125-6.625C255.125,305,253.375,303.375,253.375,303.375z"></path><g><path style="fill:#6E6E6E;stroke:#000000;stroke-linecap:round;stroke-linejoin:round;" d="M253.75,292c0,0-2.625,7.375-2,10s3.625,5.625,3.375,6.5s-4.375,3.584-5.25,4.25c-0.25,1-0.125,1.875-0.125,1.875s7.125-4.25,7.875-7.5C258.25,304,255.25,294,253.75,292z"></path><g><path style="fill:#505050;" d="M254.563,294.813c0,0-1.344,4.781-1.281,5.188c0.125,0.563,0.469,0.875,0.563,0.875s1.313-4.469,1.313-4.469L254.563,294.813z"></path><path style="fill:#505050;" d="M255.75,298.281c0,0-1.344,3.438-1.344,3.625s0.094,1,0.25,1.125s1.563-3,1.531-3.125S255.75,298.281,255.75,298.281z"></path><path style="fill:#505050;" d="M256.688,301.969c0,0-1.438,2.063-1.469,2.188s-0.031,0.781,0.188,0.938s1.5-1.813,1.5-1.813L256.688,301.969z"></path><path style="fill:#505050;" d="M257.188,305.344l-1.438,1.094c0,0,0,0.781,0.219,0.844s1.281-0.75,1.281-0.75L257.188,305.344z"></path></g></g></g><g><g><path style="fill:#505050;stroke:#000000;stroke-linecap:round;stroke-linejoin:round;" d="M246,298c0,0,3,5.5,3.375,8.5c-1.75-1.125-6.625-4.5-6.625-4.5L246,298z"></path></g><path style="fill:#6E6E6E;stroke:#000000;stroke-linecap:round;stroke-linejoin:round;" d="M245.75,292.5c0,0,1.25,2.625,1,4.625s-2.625,3.375-2.875,4.25s5.25,4.125,5.75,5.625s0,18.125,0,18.125s-3-2.25-3.5-4.625c-0.326-1.547,0-15.125,0-15.125c-4.701-3.525-1.924,11.532-4.125-3.875c-0.125-0.875,1-4.25,1.25-5.25C243.75,294.625,245.75,292.5,245.75,292.5z"></path><path style="fill:#505050;" d="M244.906,294.229c0,0,0.625,3.125,0.5,3.5s-0.688,0.688-0.688,0.688l-0.438-3.25L244.906,294.229z"></path><path style="fill:#505050;" d="M243.75,296.281c0,0,0.313,2.531,0.281,2.625s-0.313,0.844-0.406,0.938s-0.344-1.938-0.344-1.938L243.75,296.281z"></path><g><g><path style="fill:#505050;" d="M247.454,308.238l1.125,0.25l0,0c0.27,0.06,0.537-0.11,0.597-0.38c0.06-0.27-0.11-0.536-0.38-0.597l0,0l-1.125-0.25l0,0c-0.27-0.06-0.537,0.11-0.597,0.38C247.015,307.911,247.185,308.178,247.454,308.238L247.454,308.238z"></path></g><g><path style="fill:#505050;" d="M247.636,310.869l0.844-0.125l0,0c0.273-0.04,0.462-0.294,0.421-0.567s-0.295-0.462-0.568-0.421l0,0l-0.844,0.125l0,0c-0.273,0.04-0.462,0.294-0.421,0.567S247.363,310.91,247.636,310.869L247.636,310.869z"></path></g><g><path style="fill:#505050;" d="M247.636,313.619l0.844-0.125l0,0c0.273-0.04,0.462-0.294,0.421-0.567s-0.295-0.462-0.568-0.421l0,0l-0.844,0.125l0,0c-0.273,0.04-0.462,0.294-0.421,0.567S247.363,313.66,247.636,313.619L247.636,313.619z"></path></g><g><path style="fill:#505050;" d="M247.434,315.983l0.938,0.25l0,0c0.267,0.071,0.541-0.088,0.612-0.354c0.071-0.267-0.087-0.541-0.354-0.612l0,0l-0.938-0.25l0,0c-0.267-0.071-0.541,0.088-0.612,0.354C247.008,315.638,247.167,315.912,247.434,315.983L247.434,315.983z"></path></g><g><path style="fill:#505050;" d="M247.75,318.366l0.656,0.125l0,0c0.271,0.052,0.533-0.126,0.585-0.397s-0.126-0.533-0.397-0.585l0,0l-0.656-0.125l0,0c-0.271-0.052-0.533,0.126-0.585,0.397S247.479,318.314,247.75,318.366L247.75,318.366z"></path></g></g></g></g></g></g></g></g></g></svg>