<svg xmlns="http://www.w3.org/2000/svg" width="500" height="500" version="1.1"><g id="x9258"><g><path style="fill:#0D0D0D;stroke:#000000;stroke-linecap:round;stroke-linejoin:round;" d="M258.164,310.197c0,0-8.875-19.08-19.749-30.822l-3.125,2.07l21.999,31.764L258.164,310.197z"></path><path style="fill:#0D0D0D;stroke:#000000;stroke-linecap:round;stroke-linejoin:round;" d="M241.125,310.197c0,0,8.875-19.08,19.75-30.822l3.125,2.07l-22,31.764L241.125,310.197z"></path><path style="fill:#6E6E6E;stroke:#000000;stroke-linecap:round;stroke-linejoin:round;" d="M272.267,302.753l3.983,27.997l15,38.75c10.166-1.167,20.25-8.75,20.25-8.75L297,332c0,0-9.5-22.5-14.25-33.25c-3.25-6.75-5.25-7.25-5.25-7.25"></path><path style="fill:#6E6E6E;stroke:#000000;stroke-linecap:round;stroke-linejoin:round;" d="M226.992,302.92l-3.983,27.997l-15,38.75c-10.166-1.167-20.249-8.75-20.249-8.75l14.5-28.75c0,0,9.5-22.5,14.249-33.25c3.25-6.75,5.25-7.25,5.25-7.25"></path><path style="fill:#6E6E6E;stroke:#000000;stroke-linecap:round;stroke-linejoin:round;" d="M225.791,300.567l-4.25,28.283l-7.5,36.554l-3.917,17.429c0,0,11.238,3.064,25.667,3.5c5.5,0.166,17.75-0.116,17.75-0.116l-0.25-74.176c0,0-12.917-28.906-18.167-32.375c0,0-8.333,3.559-15.333,13.697"></path><path style="fill:#6E6E6E;stroke:#000000;stroke-linecap:round;stroke-linejoin:round;" d="M254.956,309.292c0,0-3.332-5.421-21.999-13.547l-10.167-7.074c0,0,5-7.078,13.333-9.033C236.124,279.638,250.124,298.302,254.956,309.292z"></path><g><path style="fill:#505050;" d="M240.984,385.906c-0.003,0-0.215-0.031-0.219-0.031c-0.276-0.006-0.315,0.054-0.31-0.224l1.669-84.941c0.188,0.094,1.029,0.547,1.029,0.547l-1.698,84.415C241.45,385.946,241.256,385.906,240.984,385.906z"></path></g></g><g><path style="fill:#6E6E6E;stroke:#000000;stroke-linecap:round;stroke-linejoin:round;" d="M273.5,300.567l4.25,28.283l7.5,36.554l3.917,17.429c0,0-11.238,3.064-25.667,3.5c-5.5,0.166-17.75-0.116-17.75-0.116l0.25-77.682c0,0,16.667-24.035,18.167-28.869c0,0,8.333,3.559,15.333,13.697"></path><g><g><path style="fill:#0D0D0D;stroke:#000000;stroke-linecap:round;stroke-linejoin:round;" d="M248.201,316.823c0,0,1.744,0.105,1.962-1.331c0.661,0.03,1.843,1.753,0.072,2.91C250.235,318.402,250.247,316.948,248.201,316.823z"></path><path style="fill:#FFFFFF;" d="M250.455,315.87c0,0,1.607,0.805-0.04,2.151C250.415,318.021,250.836,317.089,250.455,315.87z"></path></g><g><path style="fill:#0D0D0D;stroke:#000000;stroke-linecap:round;stroke-linejoin:round;" d="M247.948,339.696c0,0,1.744,0.105,1.962-1.331c0.661,0.031,1.843,1.753,0.072,2.911C249.982,341.276,249.994,339.822,247.948,339.696z"></path><path style="fill:#FFFFFF;" d="M250.202,338.744c0,0,1.607,0.804-0.04,2.15C250.162,340.895,250.583,339.962,250.202,338.744z"></path></g><g><path style="fill:#0D0D0D;stroke:#000000;stroke-linecap:round;stroke-linejoin:round;" d="M247.948,361.206c0,0,1.744,0.106,1.962-1.33c0.661,0.03,1.843,1.752,0.072,2.91C249.982,362.786,249.994,361.332,247.948,361.206z"></path><path style="fill:#FFFFFF;" d="M250.202,360.254c0,0,1.607,0.805-0.04,2.15C250.162,362.404,250.583,361.472,250.202,360.254z"></path></g></g><path style="fill:#6E6E6E;stroke:#000000;stroke-linecap:round;stroke-linejoin:round;" d="M246.125,307.75c0,0,1.542-3.879,20.208-12.005l10.167-7.074c0,0-5-7.078-13.333-9.033C263.167,279.638,250.958,296.76,246.125,307.75z"></path><line style="fill:none;stroke:#000000;stroke-linecap:round;stroke-linejoin:round;" x1="253.125" y1="302.25" x2="254" y2="386.25"></line><g><path style="fill:#505050;" d="M258.188,385.875c-0.272,0-0.349,0.069-0.354-0.205l-1.334-84.659c0.031-0.087,0.206-0.124,0.469-0.213c0.188-0.063,0.41-0.317,0.5-0.204c0.07,0.089,0.029,0.279,0.031,0.401l1.334,84.658c0.004,0.278-0.141,0.237-0.417,0.242C258.414,385.896,258.19,385.875,258.188,385.875z"></path></g></g></g></svg>