<svg xmlns="http://www.w3.org/2000/svg" width="500" height="500" version="1.1"><g id="x9929"><g><g><g><g><g><path style="fill:#FFFFFF;stroke:#000000;stroke-linecap:round;stroke-linejoin:round;" d="M222.047,284.476c0,0-6.623,1.987-11.605,4.984c-3.907,5.495-5.032,11.989-5.032,11.989l-3.505,1.306c-1.323,7.12,8.799,13.208,12.498,14.792c5.906-12.622,12.95-27.191,12.95-27.191L222.047,284.476z"></path><path style="fill:#E4E0F3;" d="M207.167,296.917c0,0-1.187,4.05-1.292,4.708c-1.257,0.475-2.804,1.232-2.804,1.232s5.82,1.604,5.952,0.782C209.155,302.816,207.167,296.917,207.167,296.917z"></path><path style="fill:#FFFFFF;stroke:#000000;stroke-linecap:round;stroke-linejoin:round;" d="M218.09,319.95c0,0-15.569-12.813-17.911-16.638c-1.372,4.895-1.899,5.515-1.899,5.515s-3.208,3.324-4.146,4.646c1.286,3.528,9.149,12.141,18.438,16.018C218.025,326.268,218.09,319.95,218.09,319.95z"></path></g></g><g><g><path style="fill:#FFFFFF;stroke:#000000;stroke-linecap:round;stroke-linejoin:round;" d="M275.92,285.49c0,0,6.91-0.27,12.595,0.946c5.479,3.93,7.653,9.105,7.653,9.105l3.738,0.097c3.563,6.305-6.798,22.037-9.781,24.736c-5.379-1.177-8.125-3.125-11.97-7.271C271.475,309.636,268.5,306,268.5,306L275.92,285.49z"></path><path style="fill:#E4E0F3;" d="M293.356,292.103c0,0,2.312,3.467,2.69,4.016c1.339-0.113,3.374-0.1,3.374-0.1s-4.561,3.956-5.033,3.271C293.914,298.604,293.356,292.103,293.356,292.103z"></path><g><path style="fill:#FFFFFF;stroke:#000000;stroke-linecap:round;stroke-linejoin:round;" d="M290.142,320.387c0,0,9.664-20.782,10.126-25.242c2.824,1.56,4.365,3.073,4.365,3.073s4.328,1.614,5.746,2.4c0.363,3.738-2.406,16.938-9.112,24.443C294.955,324.509,290.142,320.387,290.142,320.387z"></path><path style="fill:#E4E0F3;" d="M298.373,302.656c0,0,3.47,4.716,4.159,4.998c0.689,0.281,5.566,1.548,5.566,1.548s-2.854,10.364-7.166,15.144c-5.19,0.1-10.145-4.275-10.145-4.275L298.373,302.656z"></path><path style="fill:#E4E0F3;" d="M200.337,304.582c0,0-1.273,4.303-1.795,4.834c-0.522,0.531-3.875,4.084-3.875,4.084s3.333,6.875,11.88,12.021c4.808-1.958,7.633-7.933,7.633-7.933L200.337,304.582z"></path></g></g></g></g><g><g><polygon style="fill:#FFFFFF;stroke:#000000;stroke-linecap:round;stroke-linejoin:round;" points="260.017,283.001 250.017,287.001 240.017,283.001 229.017,285.334 250.017,309.334 271.017,285.334 "></polygon><polygon style="fill:#E4E0F3;" points="238.684,299.001 249.35,293.668 261.017,298.668 250.017,286.668 "></polygon><line style="fill:none;stroke:#000000;stroke-linecap:round;stroke-linejoin:round;" x1="250.017" y1="289.334" x2="250.017" y2="308.668"></line></g><g><path style="fill:#FFFFFF;stroke:#000000;stroke-linecap:round;stroke-linejoin:round;" d="M250.017,286l-10.667,12.668l-8.667-13.667c3-1.667,6-5.333,6-5.333L250.017,286z"></path><path style="fill:#FFFFFF;stroke:#000000;stroke-linecap:round;stroke-linejoin:round;" d="M250.35,286l10.667,12.668l8.666-13.667c-3-1.667-6-5.333-6-5.333L250.35,286z"></path></g></g><g><path style="fill:#FFFFFF;stroke:#000000;stroke-linecap:round;stroke-linejoin:round;" d="M276.5,331h-53c0,0-7,12-7,19c7,5.5,33.5,9,33.5,9s26.5-3.5,33.5-9C283.5,343,276.5,331,276.5,331z"></path><polygon style="fill:#E4E0F3;" points="250,339.333 219.834,340.091 229.667,354.334 250,347.213 270.334,354.334 280.166,340.09 "></polygon><g><line style="fill:none;stroke:#000000;stroke-linecap:round;stroke-linejoin:round;" x1="247.5" y1="342.5" x2="247.5" y2="358"></line><line style="fill:none;stroke:#000000;stroke-linecap:round;stroke-linejoin:round;" x1="252.5" y1="342.5" x2="252.5" y2="358"></line></g></g></g><g><g><g><g><path style="fill:#6E6E6E;stroke:#000000;stroke-linecap:round;stroke-linejoin:round;" d="M263.777,310.667l-35.511-17.917l-14,15c0,0-0.959,11.308,6.172,22.275L217.325,337l14.5,14.5l31.61-14l-0.104-0.018l0.446-0.148V310.667z"></path><polygon style="fill:#505050;" points="237,337.833 243.833,345.333 250.167,343 "></polygon><line style="fill:none;stroke:#000000;stroke-linecap:round;stroke-linejoin:round;" x1="236.5" y1="339" x2="236.5" y2="349.049"></line><path style="fill:#6E6E6E;stroke:#000000;stroke-linecap:round;stroke-linejoin:round;" d="M285.733,307.75l-5.869-4.837c0.48-9.087,2.969-16.079,2.969-16.079l-10-5.167l-4.623,13.222l-31.987,15.778v26.667l0.424,0.141L236.5,337.5l31.608,14l14.5-14.5l-3.086-6.912C286.697,319.1,285.733,307.75,285.733,307.75z"></path><path style="fill:#505050;" d="M279.167,302.833c0,0-14.209,13.959-17.042,15.292c-12.5,2.5-25,3.708-23.5,3.375S279.167,302.833,279.167,302.833z"></path></g></g><g><rect x="232.909" y="318.188" style="fill:#373544;stroke:#000000;stroke-linecap:round;stroke-linejoin:round;" width="6.932" height="4.125"></rect><rect x="232.909" y="324.688" style="fill:#373544;stroke:#000000;stroke-linecap:round;stroke-linejoin:round;" width="6.932" height="4.125"></rect><rect x="232.909" y="331.188" style="fill:#373544;stroke:#000000;stroke-linecap:round;stroke-linejoin:round;" width="6.932" height="4.125"></rect></g></g><g><g><g><path style="fill:#454954;stroke:#000000;stroke-linecap:round;stroke-linejoin:round;" d="M237.995,291.667c-1-1.667-1.833-13.333-1.833-14.167l-3.833,2.667c0,0-12.167,3.833-14.834,5.667c0.913,1.415,3.334,4.011,6.804,7.257c-0.382,0.553-2.622,3.896-4.639,8.909c1.806,1.959,12.46,7.758,25.18,13.217l7.253-5.911C245.197,301.264,238.561,292.609,237.995,291.667z"></path><path style="fill:none;stroke:#000000;stroke-linecap:round;stroke-linejoin:round;" d="M235.329,281.5c0,0-10.414,10-11.521,12.25"></path></g><g><path style="fill:#454954;stroke:#000000;stroke-linecap:round;stroke-linejoin:round;" d="M275.701,293.091c3.47-3.246,5.891-5.842,6.804-7.257c-2.667-1.834-14.834-5.667-14.834-5.667l-3.833-2.667c0,0.834-0.833,12.5-1.833,14.167c-0.644,1.073-21.505,28.958-21.505,28.958c20.125-7,38.045-16.678,39.84-18.625C278.323,296.986,276.083,293.644,275.701,293.091z"></path><path style="fill:none;stroke:#000000;stroke-linecap:round;stroke-linejoin:round;" d="M264.671,281.5c0,0,10.414,10,11.521,12.25"></path></g><ellipse style="fill:#60646F;stroke:#000000;stroke-linecap:round;stroke-linejoin:round;" cx="273.833" cy="299.875" rx="1.521" ry="1.375"></ellipse></g></g></g></g></g></svg>