<svg xmlns="http://www.w3.org/2000/svg" width="500" height="500" version="1.1"><g id="x003"><g><path style="fill:#6E6E6E;" d="M275,318.5c0,0-0.5-11.334-1.168-14.667c-0.666-3.333-4.332-10.666-4.332-10.666s-1.168-5.834-3.834-11.167c-2-0.833-3.5-0.833-3.5-0.833s4.332,11.333,4,15.166c-1.5,4.833-7.166,6-16.166,6c-9.001,0-14.667-1.167-16.167-6c-0.333-3.833,4-15.166,4-15.166s-1.5,0-3.5,0.833c-2.667,5.333-3.833,11.167-3.833,11.167s-3.667,7.333-4.334,10.666S225,318.5,225,318.5l-2,7.333h54L275,318.5z"></path><path style="fill:#FFFFFF;" d="M223.875,321.375c0,0,5-0.25,26.25-0.25s26.125,0.25,26.125,0.25l0.75,4.458c0,0-5.5-0.333-27-0.333s-27,0.333-27,0.333L223.875,321.375z"></path><path style="fill:none;stroke:#000000;stroke-linecap:round;stroke-linejoin:round;" d="M275,318.5c0,0-0.5-11.334-1.168-14.667c-0.666-3.333-4.332-10.666-4.332-10.666s-1.168-5.834-3.834-11.167c-2-0.833-3.5-0.833-3.5-0.833s4.332,11.333,4,15.166c-1.5,4.833-7.166,6-16.166,6c-9.001,0-14.667-1.167-16.167-6c-0.333-3.833,4-15.166,4-15.166s-1.5,0-3.5,0.833c-2.667,5.333-3.833,11.167-3.833,11.167s-3.667,7.333-4.334,10.666S225,318.5,225,318.5l-2,7.333l27-0.333l27,0.333L275,318.5z"></path></g></g></svg>