<svg xmlns="http://www.w3.org/2000/svg" width="500" height="500" version="1.1"><g id="x031"><g><g><g><g><path style="fill:#FAFAFA;stroke:#000000;stroke-linecap:round;stroke-linejoin:round;" d="M214.561,305.5c0,0-4.232,4.5-5.899,10.583c1.75,2.583,11.816,7.584,16.899,7.584c2.583-11.166,4.167-38.667,4.167-38.667s-8.417,4.334-11.167,9.417C216.394,299,214.561,305.5,214.561,305.5z"></path><path style="fill:#6E6E6E;stroke:#000000;stroke-linecap:round;stroke-linejoin:round;" d="M208.829,315.167l-1.083,0.75c0,0-2.417,4.501-2.25,5.917s5.083,6,16.833,8.25c1.333-4.334,1.75-7.334,1.75-7.334l-0.833,0.167c0,0-11.25-2.833-13.833-6.75C209.329,315.417,208.829,315.167,208.829,315.167z"></path><path style="fill:none;stroke:#000000;stroke-linecap:round;stroke-linejoin:round;" d="M214.728,304.917c0,0-0.334,2.582-0.417,3.416"></path></g><path style="fill:#DCDCDC;" d="M226.478,295.75c0,0-3.946,5.933-4.583,9.5c-0.636,3.569,2.858,7.082,3.743,7.305c3.272-3.938,4.625-9.38,4.625-9.38L226.478,295.75z"></path><path style="fill:none;stroke:#000000;stroke-linecap:round;stroke-linejoin:round;" d="M224.441,311.997c-4.088-4.327-3.43-11.788-3.43-11.788"></path></g><g><g><path style="fill:#FAFAFA;stroke:#000000;stroke-linecap:round;stroke-linejoin:round;" d="M285.439,305.5c0,0,4.231,4.5,5.899,10.583c-1.75,2.583-11.816,7.584-16.899,7.584c-2.583-11.166-4.167-38.667-4.167-38.667s8.418,4.334,11.167,9.417C283.606,299,285.439,305.5,285.439,305.5z"></path><path style="fill:#6E6E6E;stroke:#000000;stroke-linecap:round;stroke-linejoin:round;" d="M291.171,315.167l1.084,0.75c0,0,2.417,4.501,2.25,5.917s-5.084,6-16.834,8.25c-1.333-4.334-1.75-7.334-1.75-7.334l0.834,0.167c0,0,11.25-2.833,13.833-6.75C290.671,315.417,291.171,315.167,291.171,315.167z"></path><path style="fill:none;stroke:#000000;stroke-linecap:round;stroke-linejoin:round;" d="M285.272,304.917c0,0,0.334,2.582,0.417,3.416"></path></g><path style="fill:#DCDCDC;" d="M273.522,295.75c0,0,3.946,5.933,4.584,9.5c0.635,3.569-2.858,7.082-3.744,7.305c-3.271-3.938-4.625-9.38-4.625-9.38L273.522,295.75z"></path><path style="fill:none;stroke:#000000;stroke-linecap:round;stroke-linejoin:round;" d="M275.559,311.997c4.088-4.327,3.43-11.788,3.43-11.788"></path></g></g><g><g><path style="fill:#FAFAFA;stroke:#000000;stroke-linecap:round;stroke-linejoin:round;" d="M224.169,323.666c0.5-7,1-14.333,2.166-20c0,0,2.334-13.166,3.334-18.166c2.832-3,8-5.5,8-5.5s2.936,7.375,8.623,8.313c1.387,1.51,2.75,5.313,3.707,7.5v64.331l-7.831,20.023c-7.82-0.556-30.45-13.485-30.833-14.501C212.501,359.333,218.501,343.166,224.169,323.666z"></path><path style="fill:none;stroke:#000000;stroke-linecap:round;stroke-linejoin:round;" d="M242.208,297.25c0,0.25,0.875,8.063,6.25,13.438"></path></g><g><path style="fill:#FAFAFA;stroke:#000000;stroke-linecap:round;stroke-linejoin:round;" d="M275.831,323.666c-0.5-7-1-14.333-2.166-20c0,0-2.334-13.166-3.334-18.166c-2.832-3-8-5.5-8-5.5s-2.936,7.375-8.623,8.313c-1.387,1.51-2.75,5.313-3.708,7.5v64.331l7.832,20.023c7.82-0.556,30.45-13.485,30.833-14.501C287.499,359.333,281.499,343.166,275.831,323.666z"></path><path style="fill:none;stroke:#000000;stroke-linecap:round;stroke-linejoin:round;" d="M256.271,296.563c-0.25,0.375-2.313,4.938-4.75,8.313"></path></g></g></g></g></svg>