<svg xmlns="http://www.w3.org/2000/svg" width="500" height="500" version="1.1"><g id="x032"><g><g><g><g><path style="fill:#6E6E6E;stroke:#000000;stroke-linecap:round;stroke-linejoin:round;" d="M230.249,284.997c0,0-6.269,2.169-10.769,9.003c-5,10.166-10.333,25.333-10.333,25.333s-12.155,29.626-12.5,31.667c4.166,5.75,14.416,8.25,14.416,8.25s11.793-26.518,12.66-29.802c1.461-6.469,7.806-24.756,7.806-24.756L230.249,284.997z"></path><path style="fill:#505050;" d="M226.478,295.75c0,0-3.946,5.933-4.583,9.5c-0.636,3.569,2.858,7.082,3.743,7.305c3.272-3.938,4.625-9.38,4.625-9.38L226.478,295.75z"></path><path style="fill:none;stroke:#000000;stroke-linecap:round;stroke-linejoin:round;" d="M224.694,311.997c-4.088-4.327-3.43-11.788-3.43-11.788"></path></g><path style="fill:#FFFFFF;stroke:#000000;stroke-linecap:round;stroke-linejoin:round;" d="M208.104,343c-6.324-3.348-7.25-4.875-7.25-4.875c-0.375,0.625-5.125,11.5-4.875,13.25s7.75,7.625,14.375,8.125c4-6.125,6.375-13.625,6.375-13.625S214.479,346.375,208.104,343z"></path></g><g><g><path style="fill:#6E6E6E;stroke:#000000;stroke-linecap:round;stroke-linejoin:round;" d="M269.751,284.997c0,0,6.269,2.169,10.769,9.003c5,10.166,10.333,25.333,10.333,25.333s12.155,29.626,12.5,31.667c-4.166,5.75-14.416,8.25-14.416,8.25s-11.793-26.518-12.66-29.802c-1.461-6.469-7.806-24.756-7.806-24.756L269.751,284.997z"></path><path style="fill:#505050;" d="M273.186,295.75c0,0,3.946,5.933,4.583,9.5c0.637,3.569-2.857,7.082-3.742,7.305c-3.272-3.938-4.626-9.38-4.626-9.38L273.186,295.75z"></path><path style="fill:none;stroke:#000000;stroke-linecap:round;stroke-linejoin:round;" d="M275.306,311.997c4.088-4.327,3.43-11.788,3.43-11.788"></path></g><path style="fill:#FFFFFF;stroke:#000000;stroke-linecap:round;stroke-linejoin:round;" d="M291.896,343c6.324-3.348,7.25-4.875,7.25-4.875c0.375,0.625,5.125,11.5,4.875,13.25s-7.75,7.625-14.375,8.125c-4-6.125-6.375-13.625-6.375-13.625S285.521,346.375,291.896,343z"></path></g></g><g><g><path style="fill:#6E6E6E;stroke:#000000;stroke-linecap:round;stroke-linejoin:round;" d="M275.832,323.666c-0.5-7-1-14.333-2.166-20c0,0-2.334-13.166-3.334-18.166c-2.832-3-8-5.5-8-5.5s-5,5.833-12.332,10.5c-7.333-4.667-12.333-10.5-12.333-10.5s-5.167,2.5-8,5.5c-1,5-3.333,18.166-3.333,18.166c-1.167,5.667-1.667,13-2.167,20c-5.667,19.5-10.667,35.667-11.833,42c0.383,1.016,9.64,4.621,11.579,5.453c6.834,2.935,45.341,2.935,52.175,0c1.938-0.832,11.195-4.438,11.578-5.453C286.5,359.333,281.5,343.166,275.832,323.666z"></path><g><line style="fill:none;stroke:#000000;stroke-linecap:round;stroke-linejoin:round;" x1="245.251" y1="294.423" x2="248.251" y2="297.724"></line></g><g><circle style="fill:#FFFFFF;stroke:#000000;stroke-linecap:round;stroke-linejoin:round;" cx="250" cy="302.375" r="2.375"></circle><circle style="fill:#FFFFFF;stroke:#000000;stroke-linecap:round;stroke-linejoin:round;" cx="250" cy="316" r="2.375"></circle><circle style="fill:#FFFFFF;stroke:#000000;stroke-linecap:round;stroke-linejoin:round;" cx="250" cy="329.625" r="2.375"></circle><circle style="fill:#FFFFFF;stroke:#000000;stroke-linecap:round;stroke-linejoin:round;" cx="250" cy="343.25" r="2.375"></circle><circle style="fill:#FFFFFF;stroke:#000000;stroke-linecap:round;stroke-linejoin:round;" cx="250" cy="356.875" r="2.375"></circle></g><line style="fill:none;stroke:#000000;stroke-linecap:round;stroke-linejoin:round;" x1="254.748" y1="294.423" x2="251.748" y2="297.724"></line></g></g></g></g></svg>