<svg xmlns="http://www.w3.org/2000/svg" width="500" height="500" version="1.1"><g id="x034"><g><g><path style="fill:#6E6E6E;stroke:#000000;stroke-linecap:round;stroke-linejoin:round;" d="M285.103,305.5c0,0-1.834-6.5-4-11.083c-2.75-5.083-10.167-9.417-10.167-9.417s2.232,5-6.101,8.5c-6.538,2.746-23.464,2.746-30.001,0c-8.333-3.5-6.101-8.5-6.101-8.5s-7.417,4.334-10.167,9.417c-2.167,4.583-4,11.083-4,11.083s-5.833,8.667-5.833,9.417c1.75,2.583,10.75,8.75,15.833,8.75c1.393-6.018,21.513-13.333,25.269-14.752c3.755,1.419,23.876,8.734,25.269,14.752c5.083,0,14.083-6.167,15.833-8.75C290.936,314.167,285.103,305.5,285.103,305.5z"></path><g><path style="fill:none;stroke:#000000;stroke-linecap:round;stroke-linejoin:round;" d="M284.936,304.917c0,0,0.334,2.582,0.417,3.416"></path><path style="fill:#505050;" d="M273.186,295.75c0,0,3.946,5.933,4.583,9.5c0.637,3.569-2.857,7.082-3.742,7.305c-3.272-3.938-4.626-9.38-4.626-9.38L273.186,295.75z"></path><path style="fill:none;stroke:#000000;stroke-linecap:round;stroke-linejoin:round;" d="M275.222,311.997c4.088-4.327,3.43-11.788,3.43-11.788"></path></g><g><g><path style="fill:none;stroke:#000000;stroke-linecap:round;stroke-linejoin:round;" d="M214.732,304.917c0,0-0.334,2.582-0.417,3.416"></path></g><path style="fill:#505050;" d="M226.482,295.75c0,0-3.946,5.933-4.583,9.5c-0.636,3.569,2.858,7.082,3.743,7.305c3.272-3.938,4.625-9.38,4.625-9.38L226.482,295.75z"></path><path style="fill:none;stroke:#000000;stroke-linecap:round;stroke-linejoin:round;" d="M224.446,311.997c-4.088-4.327-3.43-11.788-3.43-11.788"></path></g></g><path style="fill:#6E6E6E;stroke:#000000;stroke-linecap:round;stroke-linejoin:round;" d="M228.5,296.167c0,0-2.167,5.332-2.667,9.166S225,318.167,225,320.167c-0.667,1.333-1.5,2.166-1.333,2.833s0.667,3.167,0.667,3.167L219,340c0,0-3.333,6.5-3.667,8.5s0.167,4.667,0.167,4.667s-1.5,2.666-1.333,7.666c-0.167,1.167-1,8.333,0.333,11c2.333,2.667,5.667,3.667,7.167,3.667s11,0.499,16.5,0.333s17.833-0.166,23.333,0s15-0.333,16.5-0.333s4.834-1,7.168-3.667c1.334-2.667,0.5-9.833,0.332-11c0.168-5-1.332-7.666-1.332-7.666s0.5-2.667,0.166-4.667s-3.666-8.5-3.666-8.5l-5.334-13.833c0,0,0.5-2.5,0.668-3.167c0.166-0.667-0.668-1.5-1.334-2.833c0-2-0.334-11-0.834-14.834s-2.666-9.166-2.666-9.166"></path></g></g></svg>