<svg xmlns="http://www.w3.org/2000/svg" width="500" height="500" version="1.1"><g id="x035"><g><g><g><path style="fill:#6E6E6E;stroke:#000000;stroke-linecap:round;stroke-linejoin:round;" d="M230,284.402c0,0-4.833,2.599-10.166,10.932s-9.501,24.333-10.501,26.333C206.333,328,198.667,348,198.667,348s-2,0.333-2,2s10.333,8.001,14,8.667c0.666-2.333,0-4.667,0-4.667s13.666-24.666,14.666-28.666c1.667-10,8-33.334,8-33.334L230,284.402z"></path><path style="fill:none;stroke:#000000;stroke-linecap:round;stroke-linejoin:round;" d="M222,302.334c0,0,2.334,7,6,10"></path></g><g><path style="fill:#6E6E6E;stroke:#000000;stroke-linecap:round;stroke-linejoin:round;" d="M270,284.402c0,0,4.833,2.599,10.167,10.932c5.332,8.333,9.5,24.333,10.5,26.333c3,6.333,10.666,26.333,10.666,26.333s2,0.333,2,2s-10.333,8.001-14,8.667c-0.666-2.333,0-4.667,0-4.667s-13.666-24.666-14.666-28.666c-1.667-10-8-33.334-8-33.334L270,284.402z"></path><path style="fill:none;stroke:#000000;stroke-linecap:round;stroke-linejoin:round;" d="M278,302.334c0,0-2.333,7-6,10"></path></g></g><path style="fill:#6E6E6E;stroke:#000000;stroke-linecap:round;stroke-linejoin:round;" d="M285.333,354.334c0,0-6-21-9.333-27C275,319,275,312,274.333,307c-0.666-5-4.666-15-4.666-15l0.333-7.598l-5.333-2.666c0,0,1,8.264-9.667,10.264c-3.333,5.334-5,8.667-5,8.667s-1.667-3.333-5-8.667c-10.667-2-9.667-10.264-9.667-10.264L230,284.402l0.333,7.598c0,0-4,10-4.666,15C225,312,225,319,224,327.334c-3.333,6-9.333,27-9.333,27s-2,3-1,6c3,3.667,36.333,5.333,36.333,5.333s33.333-1.666,36.333-5.333C287.333,357.334,285.333,354.334,285.333,354.334z"></path><g><path style="fill:#6E6E6E;stroke:#000000;stroke-linecap:round;stroke-linejoin:round;" d="M249.333,299.667c0,0-6.333,8.667-7.333,8.667S239.667,304,239.667,304S246.666,300,249.333,299.667z"></path><path style="fill:#6E6E6E;stroke:#000000;stroke-linecap:round;stroke-linejoin:round;" d="M250.667,299.667c0,0,6.333,8.667,7.333,8.667s2.333-4.334,2.333-4.334S253.334,300,250.667,299.667z"></path></g></g></g></svg>