<svg xmlns="http://www.w3.org/2000/svg" width="500" height="500" version="1.1"><g id="x036"><g><g><g><path style="fill:#6E6E6E;stroke:#000000;stroke-linecap:round;stroke-linejoin:round;" d="M225.838,315.167l-1.333,1.166c0,0-1.5-1.666-2.667-1.833s-3.333,1.5-4.5,1.167s-1-2.167-1-2.167s-0.5-0.833-1.167-1.667c0,0-2.5,1-3.5,0.334s-0.5-3.334-0.5-3.334s-2-2.5-1.833-3.833s5.167-4.5,6.833-5.167c0,0,6.667-11.833,11-15.333c2.113-1.51,3.924-1.733,7-2.5C234.682,284.209,225.838,315.167,225.838,315.167z"></path><path style="fill:none;stroke:#000000;stroke-linecap:round;stroke-linejoin:round;" d="M216.005,306c0,0,0.167,3.334,2.667,5.167"></path><path style="fill:none;stroke:#000000;stroke-linecap:round;stroke-linejoin:round;" d="M214.838,304c0,0,0.333-2.501,1.333-4.167"></path></g><g><path style="fill:#6E6E6E;stroke:#000000;stroke-linecap:round;stroke-linejoin:round;" d="M274.163,315.167l1.332,1.166c0,0,1.5-1.666,2.666-1.833c1.168-0.167,3.334,1.5,4.5,1.167c1.168-0.333,1-2.167,1-2.167s0.5-0.833,1.168-1.667c0,0,2.5,1,3.5,0.334s0.5-3.334,0.5-3.334s2-2.5,1.832-3.833c-0.166-1.333-5.166-4.5-6.832-5.167c0,0-6.668-11.833-11-15.333c-2.113-1.51-3.924-1.733-7-2.5C265.319,284.209,274.163,315.167,274.163,315.167z"></path><path style="fill:none;stroke:#000000;stroke-linecap:round;stroke-linejoin:round;" d="M283.995,306c0,0-0.166,3.334-2.666,5.167"></path><path style="fill:none;stroke:#000000;stroke-linecap:round;stroke-linejoin:round;" d="M285.161,304c0,0-0.332-2.501-1.332-4.167"></path></g></g><g><path style="fill:#6E6E6E;stroke:#000000;stroke-linecap:round;stroke-linejoin:round;" d="M280.5,340.5c-0.166-1-3.5-12-4.832-15.333c-1.334-3.333-0.834-15.5-0.834-18.167s-2.166-8.333-2.166-8.333l-2.834-15.334c0,0-1.666-1.667-2.5-2S264.668,282,264.668,282s1.166,7.333-0.334,9.5S250,294.167,250,294.167s-12.833-0.5-14.333-2.667s-0.333-9.5-0.333-9.5s-1.833-1-2.667-0.667s-2.5,2-2.5,2l-2.833,15.334c0,0-2.167,5.666-2.167,8.333s0.5,14.834-0.833,18.167S219.667,339.5,219.5,340.5c-1.333,1.833-3.333,5.167-3.333,5.167l2.167,3.666c0,0,8.167,1.667,31.667,1.667s31.666-1.667,31.666-1.667l2.168-3.666C283.834,345.667,281.834,342.333,280.5,340.5z"></path><g><path style="fill:none;stroke:#000000;stroke-linecap:round;stroke-linejoin:round;" d="M233.333,288.167c0,0-0.5,3.666,1.167,5.333"></path><path style="fill:none;stroke:#000000;stroke-linecap:round;stroke-linejoin:round;" d="M238.167,295.167c0,0,5.499,1.332,9.833,1.166"></path></g><g><path style="fill:none;stroke:#000000;stroke-linecap:round;stroke-linejoin:round;" d="M266.668,288.167c0,0,0.5,3.666-1.168,5.333"></path><path style="fill:none;stroke:#000000;stroke-linecap:round;stroke-linejoin:round;" d="M261.834,295.167c0,0-5.5,1.332-9.834,1.166"></path></g></g></g></g></svg>