<svg xmlns="http://www.w3.org/2000/svg" width="500" height="500" version="1.1"><g id="x037"><g><path style="fill:#6E6E6E;stroke:#000000;stroke-linecap:round;stroke-linejoin:round;" d="M221.333,293.583c0.417-0.916,2.167-2.833,2.167-2.833s-5.991,2.149-6.5,3.167c-0.508,1.016-1.75,8.666-1.719,10.557c-0.254,1.271-4.804,6.318-5.084,7.881s7.387,12.063,18.803,11.313c0.254-8.39,2.375-25.542,2.375-25.542S224.667,296.751,221.333,293.583z"></path><path style="fill:#505050;" d="M223.833,296.167l-2.885,4.747l-0.508,6.102c0,0-6.107,8.819-6.107,9.836c1.526,2.797,8.917,7.065,15.75,6.148c-1.526-6.102,1.616-23.801,0.917-24.5C227.758,297.865,223.833,296.167,223.833,296.167z"></path><path style="fill:none;stroke:#000000;stroke-linecap:round;stroke-linejoin:round;" d="M222.125,299.293c0.083,0.125,0.625,3.166,3.958,5.583"></path><path style="fill:#6E6E6E;stroke:#000000;stroke-linecap:round;stroke-linejoin:round;" d="M276,290.083c0,0,5.75,1.792,7,3.292c1.75,2.25,2.792,6.208,3,6.625c0.125,2.875,0.245,5.104,0.5,6.375c2.125,2.625,4.5,5.25,5.25,7.125c-2.289,3.305-7.944,8.516-16.08,6.99c-0.254-8.39-3.813-22.627-3.813-22.627s5.085-0.763,7.627-2.542C278.167,292.583,276,290.083,276,290.083z"></path><path style="fill:#505050;" d="M281.454,295.575c0.698,0.317,2.352,5.339,2.352,5.339l0.509,6.102c0,0,3.061,8.468,3.061,9.484c-1.524,2.797-8.125,4.125-11.375,3.75c0.084-5.853-2.25-16.125-2.25-16.125S276.688,298.689,281.454,295.575z"></path><path style="fill:none;stroke:#000000;stroke-linecap:round;stroke-linejoin:round;" d="M278.218,299.293c-0.083,0.125-0.625,3.166-3.958,5.583"></path><path style="fill:#6E6E6E;stroke:#000000;stroke-linecap:round;stroke-linejoin:round;" d="M272.364,298.117c-3.956,4.584-8.697,13.216-25.698,9.716C236.93,305.1,229,300,230.667,285c0.06-0.516,1.83-1.626,1.917-2.167c-1,0-2.885,1.062-3.417,1.333c-2.583,1.5-3.25,3.667-3.25,3.667s-0.22,7.534,1.333,11.042l-1.333,2.041l0.25,3.667c0,0-2.333,6.167-1.833,22.25c-0.75,1.036-3.389,4.853-3.667,5.75c0.639,1.73,0.333,4.292,0.333,4.292s-2.375,4.875-4.875,12.5c2.5,4,7.426,5.438,11.748,9.506c4.322,4.067,27.966,10.17,34.832,8.898c2.287,0.508,6.836,3.111,11.921,2.096c5.085-1.018,7.146-10.486,8.418-10.994c1.779-1.526,3.559-5.085,3.559-5.085s-2.36-5.497-4.977-7.795l-2.75-9.376c0,0-0.625-5-2.625-8.75c-0.125-9.75-2.5-23.75-2.5-23.75L276,300.5 M232.195,357.354c-4.695-2.229-9.407-8.644-9.407-8.644s4.323-2.797,7.119-0.763S232.703,352.271,232.195,357.354z M236.517,358.626c-0.763-1.017,0-5.339,0-5.339c1.779,1.271,7.119,7.882,7.119,7.882S237.28,359.897,236.517,358.626z M272.02,351.152c2.287-1.017,5.847,1.779,5.847,1.779s-2.796,2.543-4.831,4.068c-2.033,1.525-6.609-0.254-6.609-0.254S269.731,352.17,272.02,351.152z M277.958,363.203c0,0-2.034,3.05-5.848,2.796s-8.898-3.305-8.898-3.305l2.288-2.797c0,0,3.751,1.021,7.167,0.479c4.372-0.693,7.667-2.834,7.667-2.834L277.958,363.203z M273.724,347.89c0,0,1.526-2.797,3.306-2.543s2.388,3.404,2.288,5.085C276.25,348.167,273.724,347.89,273.724,347.89z"></path><path style="fill:none;stroke:#000000;stroke-linecap:round;stroke-linejoin:round;" d="M245.125,330.625c0,0,3.441-12.42,4.055-14.416"></path></g></g></svg>