<svg xmlns="http://www.w3.org/2000/svg" width="500" height="500" version="1.1"><g id="x038"><g><path style="fill:#6E6E6E;stroke:#000000;stroke-linecap:round;stroke-linejoin:round;" d="M278.749,336.625c0-0.75-3-24-3-24c-0.375-4.625-2.875-13.375-2.875-13.375l-22.873,2.5l-22.875-2.5c0,0-2.5,8.75-2.875,13.375c0,0-3,23.25-3,24c-0.375,1-2.5,4.375-2.5,4.375s0.375,3.875,1,5.125c3.375,1.625,12.125,2.125,30.25,2.125c18.123,0,26.873-0.5,30.248-2.125c0.625-1.25,1-5.125,1-5.125S279.124,337.625,278.749,336.625z"></path><path style="fill:#6E6E6E;stroke:#000000;stroke-linecap:round;stroke-linejoin:round;" d="M250,318.625c-0.125,0.375,0.125,12.25,0.125,13.75s2.5,11.375,3.125,12.875"></path><path style="fill:#6E6E6E;stroke:#000000;stroke-linecap:round;stroke-linejoin:round;" d="M248.784,333.375c-0.125,0.5-1.125,10.125-0.75,11.875"></path></g><g><path style="fill:#505050;stroke:#000000;stroke-linecap:round;stroke-linejoin:round;" d="M281.295,294.771c0,0,0.34-0.547,0.797-1.184c-0.287-0.459-2.369-2.236-4.215-3.368c-0.568-0.272-3.074-0.91-3.074-0.91s1.682,1.956,0.91,2.275c-9.225,3.823-25.963,3.187-25.963,3.187s-16.741,0.637-25.965-3.187c-0.77-0.319,0.911-2.275,0.911-2.275s-2.506,0.638-3.075,0.91c-1.846,1.132-3.927,2.909-4.213,3.368c0.456,0.637,0.797,1.184,0.797,1.184s-1.139,1.82-1.48,2.457c0.684,1.274,2.671,2.499,4.151,2.772c1.48,0.272,2.475,0.406,2.475,0.406l-0.228,1.093c0,0,8.919,1.371,12.108,0.461c-0.285,0.683-0.285,1.092-0.285,1.092s6.377,1.365,10.477,0.819c0.114-0.364,0.569-1.184,0.569-1.184l3.758,0.273l3.756-0.273c0,0,0.457,0.819,0.57,1.184c4.1,0.546,10.477-0.819,10.477-0.819s0-0.409-0.285-1.092c3.189,0.91,12.109-0.461,12.109-0.461l-0.229-1.093c0,0,0.994-0.134,2.475-0.406c1.48-0.273,3.469-1.498,4.152-2.772C282.434,296.591,281.295,294.771,281.295,294.771z"></path><g><path style="fill:none;stroke:#000000;stroke-linecap:round;stroke-linejoin:round;" d="M217.982,295.182c0,0,1.452-1.82,2.79-2.957"></path><path style="fill:none;stroke:#000000;stroke-linecap:round;stroke-linejoin:round;" d="M223.407,300.247c0,0,0.854-3.366,1.737-4.982"></path><path style="fill:none;stroke:#000000;stroke-linecap:round;stroke-linejoin:round;" d="M235.23,302.119c0-0.159,0.74-4.005,1.167-5.233"></path><path style="fill:none;stroke:#000000;stroke-linecap:round;stroke-linejoin:round;" d="M245.764,303.165c0,0,0.797-5.096,0.797-5.164"></path><path style="fill:none;stroke:#000000;stroke-linecap:round;stroke-linejoin:round;" d="M281.516,295.182c0,0-1.451-1.82-2.789-2.957"></path><path style="fill:none;stroke:#000000;stroke-linecap:round;stroke-linejoin:round;" d="M276.092,300.247c0,0-0.854-3.366-1.736-4.982"></path><path style="fill:none;stroke:#000000;stroke-linecap:round;stroke-linejoin:round;" d="M264.268,302.119c0-0.159-0.74-4.005-1.166-5.233"></path><path style="fill:none;stroke:#000000;stroke-linecap:round;stroke-linejoin:round;" d="M253.734,303.165c0,0-0.797-5.096-0.797-5.164"></path></g></g><g><path style="fill:#6E6E6E;stroke:#000000;stroke-linecap:round;stroke-linejoin:round;" d="M236.989,281.375c0,0-4.75,15.961-5.375,21c-3.25,0.25-5.75-0.524-5.75-0.524s2-12.799,5.625-18.052C232.864,282.834,236.989,281.375,236.989,281.375z"></path><path style="fill:#6E6E6E;stroke:#000000;stroke-linecap:round;stroke-linejoin:round;" d="M263.011,281.375c0,0,4.75,15.961,5.375,21c3.25,0.25,5.75-0.524,5.75-0.524s-2-12.799-5.625-18.052C267.136,282.834,263.011,281.375,263.011,281.375z"></path></g></g></svg>