<svg xmlns="http://www.w3.org/2000/svg" width="500" height="500" version="1.1"><g id="x039"><g><g><g><path style="fill:#6E6E6E;stroke:#000000;stroke-linecap:round;stroke-linejoin:round;" d="M215.891,298.5c-0.833,3.167-0.75,5-0.75,5s-5.167,6.75-6.917,11.25c3.25,5.583,14.105,8.457,17.917,8.75c3.811,0.292,4.569-5.013,4.569-5.013l-1.759-19.347l-9.227-3.474C219.724,295.667,217.568,297.259,215.891,298.5z"></path><path style="fill:#505050;" d="M228.891,297c0,0-7.41,4.236-7.41,6.727c0,2.494,6.449,12.167,6.741,11.728C228.516,315.014,231.822,300.811,228.891,297z"></path><path style="fill:none;stroke:#000000;stroke-linecap:round;stroke-linejoin:round;" d="M221.183,302.952c0,0,1.611,6.009,4.543,8.647"></path></g><g><path style="fill:#6E6E6E;stroke:#000000;stroke-linecap:round;stroke-linejoin:round;" d="M284.11,298.5c0.834,3.167,0.75,5,0.75,5s5.166,6.75,6.916,11.25c-3.25,5.583-14.105,8.457-17.916,8.75c-3.811,0.292-4.569-5.013-4.569-5.013l1.759-19.347l9.227-3.474C280.276,295.667,282.433,297.259,284.11,298.5z"></path><path style="fill:#505050;" d="M271.11,297c0,0,7.409,4.236,7.409,6.727c0,2.494-6.449,12.167-6.741,11.728C271.485,315.014,268.179,300.811,271.11,297z"></path><path style="fill:none;stroke:#000000;stroke-linecap:round;stroke-linejoin:round;" d="M278.817,302.952c0,0-1.61,6.009-4.543,8.647"></path></g></g><path style="fill:#6E6E6E;stroke:#000000;stroke-linecap:round;stroke-linejoin:round;" d="M279,334.833c0,0-0.334-2-0.167-3.333c0.166-1.333-2.166-3.833-3.5-8c-0.167-2.667,0.167-13.167-1-17.5s-2.5-7.667-2.5-7.667h-43.666c0,0-1.333,3.334-2.5,7.667s-0.833,14.833-1,17.5c-1.333,4.167-3.667,6.667-3.5,8S221,334.833,221,334.833s-3.5,8.168-3.333,10.834c2.167,3.666,11.666,4.666,32.333,4.666s30.166-1,32.333-4.666C282.499,343.001,279,334.833,279,334.833z"></path><path style="fill:#6E6E6E;stroke:#000000;stroke-linecap:round;stroke-linejoin:round;" d="M277.015,290.2l-2.167-1.761l0.766,2.347c0,0-1.021,3.959-25.76,3.959c-24.741,0-25.76-3.959-25.76-3.959l0.766-2.347l-2.168,1.761c0,0-3.893,2.931-3.255,5.862c3.187,4.396,30.402,4.836,30.418,4.836l0,0l0,0h0l0,0c0.015,0,27.23-0.44,30.417-4.836C280.907,293.131,277.015,290.2,277.015,290.2z"></path></g></g></svg>