<svg xmlns="http://www.w3.org/2000/svg" width="500" height="500" version="1.1"><g id="x004"><g><path style="fill:#6E6E6E;" d="M273.122,301.595c0,0-6.598-3.514-23.121-3.576c-16.524,0.063-23.122,3.576-23.122,3.576s-1.79,6.414-1.79,8.95c0,2.537,0.149,5.37,0.896,9.696c2.154-1.077,20.466-2.021,24.017-2.386c3.549,0.364,21.861,1.309,24.016,2.386c0.746-4.326,0.895-7.159,0.895-9.696C274.911,308.009,273.122,301.595,273.122,301.595z"></path><g><g><path style="fill:#505050;" d="M225.839,309.679L225.839,309.679c0.147-0.047,14.911-4.717,34.702-2.664l0,0c0.274,0.028,0.521-0.171,0.549-0.445s-0.171-0.521-0.445-0.549l0,0c-20.21-2.097-35.222,2.748-35.288,2.807l0.175-0.1c-0.263,0.085-0.407,0.366-0.322,0.63C225.295,309.62,225.577,309.764,225.839,309.679L225.839,309.679z"></path></g><g><path style="fill:#505050;" d="M228.513,305.73C228.512,305.73,228.513,305.73,228.513,305.73c0.067-0.048,6.948-4.848,21.663-5.576l0,0c0.276-0.014,0.488-0.248,0.475-0.523c-0.014-0.276-0.249-0.488-0.524-0.475l0,0c-15.042,0.744-21.911,5.558-22.196,5.762l0,0c-0.224,0.161-0.276,0.474-0.115,0.697C227.976,305.84,228.288,305.892,228.513,305.73L228.513,305.73z"></path></g><g><path style="fill:#505050;" d="M252.017,302.238L252.017,302.238c0.12,0.019,12.146,1.83,22.412,5.936l0,0c0.256,0.103,0.547-0.021,0.649-0.278c0.103-0.256-0.021-0.547-0.278-0.649l0,0c-10.378-4.151-22.516-5.979-22.637-5.996l0,0c-0.273-0.041-0.527,0.147-0.567,0.421C251.555,301.944,251.743,302.198,252.017,302.238L252.017,302.238z"></path></g><g><path style="fill:#505050;" d="M238.376,301.945L238.376,301.945c0.209-0.005,21.144-0.413,35.246,2.378l0,0c0.271,0.054,0.533-0.122,0.587-0.394c0.054-0.271-0.122-0.533-0.394-0.587l0,0c-14.209-2.813-35.25-2.401-35.461-2.397l0,0c-0.276,0.006-0.495,0.234-0.489,0.511S238.1,301.951,238.376,301.945L238.376,301.945z"></path></g><g><path style="fill:#505050;" d="M226.698,320.221c-0.003,0.006,0.001-0.002-0.002,0.004c0.301-0.416,4.61-4.467,8.417-5.931h0c0.257-0.1,0.386-0.389,0.287-0.646s-0.389-0.386-0.646-0.287l0,0c-3.949,1.519-8.497,5.719-8.888,6.306l0,0c-0.153,0.229-0.091,0.54,0.139,0.693C226.234,320.513,226.545,320.45,226.698,320.221L226.698,320.221z"></path></g><g><path style="fill:#505050;" d="M227.16,315.801L227.16,315.801c0.167-0.046,17.063-4.556,41.867-1.18l0,0c0.273,0.037,0.525-0.154,0.563-0.428s-0.154-0.525-0.428-0.563l0,0c-25.021-3.406-42.097,1.159-42.267,1.205l0,0c-0.266,0.073-0.423,0.349-0.35,0.614C226.619,315.717,226.894,315.874,227.16,315.801L227.16,315.801z"></path></g><g><path style="fill:#505050;" d="M257.244,313.725L257.244,313.725c0.099,0.014,9.963,1.374,15.916,5.005l0,0c0.236,0.144,0.544,0.069,0.688-0.166c0.144-0.236,0.069-0.544-0.166-0.688l0,0c-6.135-3.741-15.893-5.087-16.305-5.142l0,0c-0.273-0.037-0.525,0.155-0.562,0.429C256.778,313.437,256.971,313.688,257.244,313.725L257.244,313.725z"></path></g><g><path style="fill:#505050;" d="M255.25,318.625c0.226,0,0.958,0.031,3.823-0.249c3.732-0.365,9.98-0.977,10.532-0.926c-0.038-0.004-0.035-0.005-0.071-0.017l0,0c0.262,0.087,0.545-0.055,0.632-0.317c0.087-0.262-0.055-0.545-0.317-0.632l0,0c-0.297-0.099-1.835,0.013-10.873,0.896c-2.204,0.216-4.287,0.42-4.5,0.422h0.001c-0.276,0-0.5,0.224-0.5,0.5S255.25,318.625,255.25,318.625z"></path></g></g><path style="fill:none;stroke:#000000;stroke-linecap:round;stroke-linejoin:round;" d="M273.122,301.595c0,0-6.598-3.514-23.121-3.576c-16.524,0.063-23.122,3.576-23.122,3.576s-1.79,6.414-1.79,8.95c0,2.537,0.149,5.37,0.896,9.696c2.154-1.077,20.466-2.021,24.017-2.386c3.549,0.364,21.861,1.309,24.016,2.386c0.746-4.326,0.895-7.159,0.895-9.696C274.911,308.009,273.122,301.595,273.122,301.595z"></path></g></g></svg>