<svg xmlns="http://www.w3.org/2000/svg" width="500" height="500" version="1.1"><g id="x040"><g><path style="fill:#6E6E6E;stroke:#000000;stroke-linecap:round;stroke-linejoin:round;" d="M229.667,285.333c0,0,4.833,8.167,20.5,11.167s28.333,0.167,28.833-0.833c0-1.167-0.5-2.667-0.5-2.667s1.407,0.573,2.375,1.813c1.563,2,5.125,8.688,5.688,11.813c-0.666,1.5-11.729,7.041-11.729,7.041s0.5,10.501,0.833,11.834s6.501,18.5,8.667,25s4,14.333,3.5,17.833s-3,6.833-3,6.833s-23.667,2-26.667,1.167s-15.334-4.166-22-4.833s-21.167,4.333-22.333,3.833s-1.833-2.833-2-3.5s1.5-4.167,1.5-4.167s-0.667-3.166,0-9.333s10-26,11-31C225.167,321,225,313.666,225.667,308c0.331-2.813,1.833-7.5,1.833-7.5s-7.333-5.667-7.333-7.667c2.5-3.833,8.167-8.167,8.667-8.5S231,284,231,284L229.667,285.333z"></path><path style="fill:#505050;" d="M232,288.834c0,0,4.667,5.833,24.167,10c-10,2.666-22.333-0.501-23.167-1.834S232,288.834,232,288.834z"></path><path style="fill:#505050;" d="M274.334,309.333c0,0,0.333,3.001-0.167,4.334c-3.333,0.833-12.833-0.334-14-1.667C268.167,311.333,274.334,309.333,274.334,309.333z"></path><path style="fill:#505050;" d="M228.5,371.25c0,0,6.75-1.5,9.75,0c-0.75-12.25-3-43.25-5-43.25S228.5,371.25,228.5,371.25z"></path><path style="fill:#505050;" d="M284.75,372.25c0,0-5.25-10.25-6.25-12.5s-13-28.25-13.75-31.25c4.5,3,9.5,6.5,10.5,8.25s11,24,11.25,26S285.75,370,284.75,372.25z"></path><path style="fill:#505050;" d="M266.75,376l11-1c0,0-6.75-29-12.5-33.25C264,354,266.75,376,266.75,376z"></path></g></g></svg>