<svg xmlns="http://www.w3.org/2000/svg" width="500" height="500" version="1.1"><g id="x041"><g><path style="fill:#6E6E6E;stroke:#000000;stroke-linecap:round;stroke-linejoin:round;" d="M281.75,339c-0.5-2-4.25-8.5-5.5-13c1-6-3-23-3-23l-5.75-19.25l-4.75-2.75L250,290l-12.75-9l-4.75,2.75L226.75,303c0,0-4,17-3,23c-1.25,4.5-5,11-5.5,13s0.75,8.25,0.75,8.25s7.5,2.75,31,2.75s31-2.75,31-2.75S282.25,341,281.75,339z"></path><g><line style="fill:none;stroke:#000000;stroke-linecap:round;stroke-linejoin:round;" x1="243.25" y1="290" x2="243.25" y2="350"></line><line style="fill:none;stroke:#000000;stroke-linecap:round;stroke-linejoin:round;" x1="245.5" y1="290" x2="245.5" y2="350"></line><line style="fill:none;stroke:#000000;stroke-linecap:round;stroke-linejoin:round;" x1="247.75" y1="290" x2="247.75" y2="350"></line><line style="fill:none;stroke:#000000;stroke-linecap:round;stroke-linejoin:round;" x1="250" y1="290" x2="250" y2="350"></line><line style="fill:none;stroke:#000000;stroke-linecap:round;stroke-linejoin:round;" x1="252.25" y1="290" x2="252.25" y2="350"></line><line style="fill:none;stroke:#000000;stroke-linecap:round;stroke-linejoin:round;" x1="254.5" y1="290" x2="254.5" y2="350"></line><line style="fill:none;stroke:#000000;stroke-linecap:round;stroke-linejoin:round;" x1="256.75" y1="290" x2="256.75" y2="350"></line></g></g><g><g><path style="fill:#6E6E6E;stroke:#000000;stroke-linecap:round;stroke-linejoin:round;" d="M239.477,279.029c0.154,0.461,0.769,6.301,8.756,7.988c0.768,0.922,1.043,4.07,1.043,4.07l-3.041-1.461l-8.427,10.248c0,0-8.875-7.813-4.63-18.463C236.184,279.875,239.477,279.029,239.477,279.029z"></path></g><g><path style="fill:#6E6E6E;stroke:#000000;stroke-linecap:round;stroke-linejoin:round;" d="M260.523,279.029c-0.154,0.461-0.77,6.301-8.756,7.988c-0.769,0.922-1.045,4.07-1.045,4.07l3.041-1.461l8.428,10.248c0,0,8.875-7.813,4.631-18.463C263.816,279.875,260.523,279.029,260.523,279.029z"></path></g></g></g></svg>