<svg xmlns="http://www.w3.org/2000/svg" width="500" height="500" version="1.1"><g id="x042"><g><g><g><path style="fill:#6E6E6E;stroke:#000000;stroke-linecap:round;stroke-linejoin:round;" d="M215.163,301c0,0-2,2-3.5,2.75c0.25,1,1.25,3.875,1.75,4.25c3.213,2.276,11.011,5.75,13.5,5.75l7.173-12.006l-7.318-16.15C220.913,289,215.163,301,215.163,301z"></path><path style="fill:#505050;" d="M225.913,306.25c0,0-4.25-5.25-3.75-7.25s5.75-4.625,5.75-4.625L225.913,306.25z"></path><path style="fill:none;stroke:#000000;stroke-linecap:round;stroke-linejoin:round;" d="M221.538,298.25c0,0,0.5,4.5,5,8.625"></path></g><g><path style="fill:#6E6E6E;stroke:#000000;stroke-linecap:round;stroke-linejoin:round;" d="M284.837,301c0,0,2,2,3.5,2.75c-0.25,1-1.25,3.875-1.75,4.25c-3.213,2.276-11.012,5.75-13.5,5.75l-7.174-12.006l7.318-16.15C279.087,289,284.837,301,284.837,301z"></path><path style="fill:#505050;" d="M274.087,306.25c0,0,4.25-5.25,3.75-7.25s-5.75-4.625-5.75-4.625L274.087,306.25z"></path><path style="fill:none;stroke:#000000;stroke-linecap:round;stroke-linejoin:round;" d="M278.462,298.25c0,0-0.5,4.5-5,8.625"></path></g></g><path style="fill:#6E6E6E;stroke:#000000;stroke-linecap:round;stroke-linejoin:round;" d="M276,326c0,0-1-18-2-22.25s-3.25-9-3.25-9L250,301.485l-20.75-6.735c0,0-2.25,4.75-3.25,9S224,326,224,326s-5,17.75-5.5,19.5c1,3.75,13.75,4.75,31.5,4.75s30.5-1,31.5-4.75C281,343.75,276,326,276,326z"></path><g><g><path style="fill:#7D7D7D;stroke:#000000;stroke-linecap:round;stroke-linejoin:round;" d="M278.893,287.458c0.711-0.473-6.098-3.002-6.158-2.368C271.196,301.313,250,301.432,250,301.432s-21.196-0.119-22.736-16.342c-0.06-0.634-6.867,1.896-6.156,2.368c0.709,0.475,2.485,1.658,3.434,1.54c-2.014,0.828-2.487,3.315-0.83,4.973c1.658,1.659,2.725,1.304,2.725,1.304s-2.369,2.96-0.119,5.092c2.25,2.131,3.907,1.421,3.907,1.421s0,2.724,2.368,3.907c2.369,1.185,4.737-1.539,4.737-1.539s0.119,2.604,3.552,3.434c3.434,0.829,4.618-2.25,4.618-2.25s-0.828,3.553,4.5,3.553c5.328,0,4.499-3.553,4.499-3.553s1.185,3.079,4.618,2.25c3.435-0.829,3.552-3.434,3.552-3.434s2.369,2.724,4.737,1.539c2.368-1.184,2.368-3.907,2.368-3.907s1.659,0.71,3.908-1.421c2.25-2.132-0.118-5.092-0.118-5.092s1.065,0.355,2.723-1.304c1.659-1.657,1.184-4.144-0.828-4.973C276.405,289.116,278.182,287.933,278.893,287.458z"></path><path style="fill:#7D7D7D;stroke:#000000;stroke-linecap:round;stroke-linejoin:round;" d="M269.065,282.366c-0.83,0.237,0.235,4.5,0.235,4.5s-3.079,0.711-2.723,4.264c-1.065,0.236-4.501,0.117-4.145,4.025c-1.185-0.236-3.908-2.96-7.104,2.25c-1.103-1.433-3.672-0.829-5.329,0.593c-2.25-2.368-5.173-2.025-6.277-0.593c-3.196-5.21-5.921-2.486-7.105-2.25c0.356-3.908-3.078-3.789-4.145-4.025c0.356-3.553-2.723-4.264-2.723-4.264s1.065-4.263,0.237-4.5c-0.83-0.236-3.198,3.079-3.198,3.079c0.875,15.12,19.897,17.061,22.736,17.267c2.836-0.206,21.859-2.146,22.735-17.267C272.262,285.445,269.893,282.13,269.065,282.366z"></path></g><g><path style="fill:#FFFFFF;stroke:#000000;stroke-linecap:round;stroke-linejoin:round;" d="M224.723,285.144c0.025,0.19,2.665,19.076,25.277,19.076c22.644,0,24.787-18.686,24.806-18.874l0,0c0.077-0.751-0.472-1.422-1.223-1.498c-0.751-0.075-1.422,0.473-1.497,1.224l0,0c0-0.002,0,0,0-0.003c-0.071,0.67-1.967,16.417-22.086,16.417c-20.229,0-22.477-16.003-22.563-16.685l0,0c-0.094-0.749-0.779-1.28-1.528-1.186C225.159,283.709,224.629,284.394,224.723,285.144L224.723,285.144z"></path></g><g><g><path style="fill:#FFFFFF;stroke:#000000;stroke-linecap:round;stroke-linejoin:round;" d="M250.069,303.042l-5.945,16.433l-3.599-3.131c0,0,4.067-11.111,7.354-13.771C248.819,302.729,250.069,303.042,250.069,303.042z"></path><path style="fill:#FFFFFF;stroke:#000000;stroke-linecap:round;stroke-linejoin:round;" d="M250.069,303.042l5.947,16.433l3.599-3.131c0,0-4.067-11.111-7.354-13.771C251.321,302.729,250.069,303.042,250.069,303.042z"></path></g><g><g><path style="fill:#FFFFFF;stroke:#000000;stroke-linecap:round;stroke-linejoin:round;" d="M250.58,302.33c0,0-7.077-4.324-9.632-4.521c-2.555-0.195-1.769,7.077-0.786,7.471C241.145,305.672,250.58,302.33,250.58,302.33z"></path><path style="fill:#FFFFFF;stroke:#000000;stroke-linecap:round;stroke-linejoin:round;" d="M249.45,302.33c0,0,7.076-4.324,9.631-4.521c2.556-0.195,1.769,7.077,0.787,7.471C258.884,305.672,249.45,302.33,249.45,302.33z"></path></g></g></g></g></g></g></svg>