<svg xmlns="http://www.w3.org/2000/svg" width="500" height="500" version="1.1"><g id="x043"><g><g><path style="fill:#3F3F3F;stroke:#000000;stroke-linecap:round;stroke-linejoin:round;" d="M236.315,282.169c0,0-3.3,18-1.8,24.301c-2.7,1.199-4.2-0.601-4.2-0.601s0.3-16.8,3.3-24C235.115,280.069,236.315,282.169,236.315,282.169z"></path><path style="fill:#3F3F3F;stroke:#000000;stroke-linecap:round;stroke-linejoin:round;" d="M263.685,282.169c0,0,3.301,18,1.801,24.301c2.699,1.199,4.199-0.601,4.199-0.601s-0.301-16.8-3.301-24C264.884,280.069,263.685,282.169,263.685,282.169z"></path></g><g><g><path style="fill:#6E6E6E;stroke:#000000;stroke-linecap:round;stroke-linejoin:round;" d="M286.75,372c0-0.75-0.75-2.625-0.75-2.625l-36,2l-36-2c0,0-0.75,1.875-0.75,2.625s-0.25,4.875,0.25,5.75s7,6.5,36.5,6.5s36-5.625,36.5-6.5S286.75,372.75,286.75,372z"></path><g><g><line style="fill:none;stroke:#505050;stroke-width:2;stroke-linecap:round;stroke-linejoin:round;" x1="246.5" y1="377.101" x2="246.5" y2="382.85"></line><line style="fill:none;stroke:#505050;stroke-width:2;stroke-linecap:round;stroke-linejoin:round;" x1="240.333" y1="376.798" x2="240.333" y2="382.547"></line><line style="fill:none;stroke:#505050;stroke-width:2;stroke-linecap:round;stroke-linejoin:round;" x1="234.167" y1="376.3" x2="234.167" y2="382.049"></line><line style="fill:none;stroke:#505050;stroke-width:2;stroke-linecap:round;stroke-linejoin:round;" x1="228" y1="375.459" x2="228" y2="381.208"></line><line style="fill:none;stroke:#505050;stroke-width:2;stroke-linecap:round;stroke-linejoin:round;" x1="221.834" y1="374.097" x2="221.834" y2="379.846"></line></g><g><line style="fill:none;stroke:#505050;stroke-width:2;stroke-linecap:round;stroke-linejoin:round;" x1="253.5" y1="377.101" x2="253.5" y2="382.85"></line><line style="fill:none;stroke:#505050;stroke-width:2;stroke-linecap:round;stroke-linejoin:round;" x1="259.668" y1="376.798" x2="259.668" y2="382.547"></line><line style="fill:none;stroke:#505050;stroke-width:2;stroke-linecap:round;stroke-linejoin:round;" x1="265.834" y1="376.3" x2="265.834" y2="382.049"></line><line style="fill:none;stroke:#505050;stroke-width:2;stroke-linecap:round;stroke-linejoin:round;" x1="272" y1="375.459" x2="272" y2="381.208"></line><line style="fill:none;stroke:#505050;stroke-width:2;stroke-linecap:round;stroke-linejoin:round;" x1="278.168" y1="374.097" x2="278.168" y2="379.846"></line></g></g></g><g><path style="fill:#6E6E6E;stroke:#000000;stroke-linecap:round;stroke-linejoin:round;" d="M286,356.25c-0.875-6.5-9.75-27-10.5-29.75c-0.25-1.5-0.375-16.125-1-19.125s-1.75-7-1.75-7L250,304.5l-22.75-4.125c0,0-1.125,4-1.75,7s-0.75,17.625-1,19.125c-0.75,2.75-9.625,23.25-10.5,29.75s-0.125,13.5-0.125,13.5s7.5,5.875,36.125,5.875s36.125-5.875,36.125-5.875S286.875,362.75,286,356.25z"></path><g><g><g><g><path style="fill:none;stroke:#505050;stroke-width:2;stroke-linecap:round;stroke-linejoin:round;" d="M241.583,311.833c0,0,3.333,4,3.667,6c0.167,1-1.542,3.291-2.583,4.5"></path><path style="fill:none;stroke:#505050;stroke-width:2;stroke-linecap:round;stroke-linejoin:round;" d="M236.935,311.833c0,0-3.333,4-3.667,6c-0.171,1.025,0.885,2.533,1.954,3.759"></path></g><g><path style="fill:none;stroke:#505050;stroke-width:2;stroke-linecap:round;stroke-linejoin:round;" d="M241.583,321.5c0,0,3.333,4,3.667,6c0.167,1-1.542,3.291-2.583,4.5"></path><path style="fill:none;stroke:#505050;stroke-width:2;stroke-linecap:round;stroke-linejoin:round;" d="M236.935,321.5c0,0-3.333,4-3.667,6c-0.171,1.025,0.885,2.533,1.954,3.759"></path></g><g><path style="fill:none;stroke:#505050;stroke-width:2;stroke-linecap:round;stroke-linejoin:round;" d="M241.583,331.167c0,0,3.333,4,3.667,6c0.167,1-1.542,3.291-2.583,4.5"></path><path style="fill:none;stroke:#505050;stroke-width:2;stroke-linecap:round;stroke-linejoin:round;" d="M236.935,331.167c0,0-3.333,4-3.667,6c-0.171,1.025,0.885,2.533,1.954,3.759"></path></g><g><path style="fill:none;stroke:#505050;stroke-width:2;stroke-linecap:round;stroke-linejoin:round;" d="M241.583,340.834c0,0,3.333,4,3.667,6c0.167,1-1.542,3.291-2.583,4.5"></path><path style="fill:none;stroke:#505050;stroke-width:2;stroke-linecap:round;stroke-linejoin:round;" d="M236.935,340.834c0,0-3.333,4-3.667,6c-0.171,1.025,0.885,2.533,1.954,3.759"></path></g><g><path style="fill:none;stroke:#505050;stroke-width:2;stroke-linecap:round;stroke-linejoin:round;" d="M241.583,350.501c0,0,3.333,4,3.667,6c0.167,1-1.542,3.291-2.583,4.5"></path><path style="fill:none;stroke:#505050;stroke-width:2;stroke-linecap:round;stroke-linejoin:round;" d="M236.935,350.501c0,0-3.333,4-3.667,6c-0.171,1.025,0.885,2.533,1.954,3.759"></path></g><g><path style="fill:none;stroke:#505050;stroke-width:2;stroke-linecap:round;stroke-linejoin:round;" d="M241.583,360.168c0,0,3.333,4,3.667,6c0.167,1-1.542,3.291-2.583,4.5"></path><path style="fill:none;stroke:#505050;stroke-width:2;stroke-linecap:round;stroke-linejoin:round;" d="M236.935,360.168c0,0-3.333,4-3.667,6c-0.171,1.025,0.885,2.533,1.954,3.759"></path></g></g><line style="fill:none;stroke:#505050;stroke-width:2;stroke-linecap:round;stroke-linejoin:round;" x1="245.75" y1="312.167" x2="245.75" y2="373.25"></line></g><g><g><g><path style="fill:none;stroke:#505050;stroke-width:2;stroke-linecap:round;stroke-linejoin:round;" d="M258.416,311.833c0,0-3.332,4-3.666,6c-0.167,1,1.541,3.291,2.584,4.5"></path><path style="fill:none;stroke:#505050;stroke-width:2;stroke-linecap:round;stroke-linejoin:round;" d="M263.064,311.833c0,0,3.333,4,3.667,6c0.171,1.025-0.885,2.533-1.954,3.759"></path></g><g><path style="fill:none;stroke:#505050;stroke-width:2;stroke-linecap:round;stroke-linejoin:round;" d="M258.416,321.5c0,0-3.332,4-3.666,6c-0.167,1,1.541,3.291,2.584,4.5"></path><path style="fill:none;stroke:#505050;stroke-width:2;stroke-linecap:round;stroke-linejoin:round;" d="M263.064,321.5c0,0,3.333,4,3.667,6c0.171,1.025-0.885,2.533-1.954,3.759"></path></g><g><path style="fill:none;stroke:#505050;stroke-width:2;stroke-linecap:round;stroke-linejoin:round;" d="M258.416,331.167c0,0-3.332,4-3.666,6c-0.167,1,1.541,3.291,2.584,4.5"></path><path style="fill:none;stroke:#505050;stroke-width:2;stroke-linecap:round;stroke-linejoin:round;" d="M263.064,331.167c0,0,3.333,4,3.667,6c0.171,1.025-0.885,2.533-1.954,3.759"></path></g><g><path style="fill:none;stroke:#505050;stroke-width:2;stroke-linecap:round;stroke-linejoin:round;" d="M258.416,340.834c0,0-3.332,4-3.666,6c-0.167,1,1.541,3.291,2.584,4.5"></path><path style="fill:none;stroke:#505050;stroke-width:2;stroke-linecap:round;stroke-linejoin:round;" d="M263.064,340.834c0,0,3.333,4,3.667,6c0.171,1.025-0.885,2.533-1.954,3.759"></path></g><g><path style="fill:none;stroke:#505050;stroke-width:2;stroke-linecap:round;stroke-linejoin:round;" d="M258.416,350.501c0,0-3.332,4-3.666,6c-0.167,1,1.541,3.291,2.584,4.5"></path><path style="fill:none;stroke:#505050;stroke-width:2;stroke-linecap:round;stroke-linejoin:round;" d="M263.064,350.501c0,0,3.333,4,3.667,6c0.171,1.025-0.885,2.533-1.954,3.759"></path></g><g><path style="fill:none;stroke:#505050;stroke-width:2;stroke-linecap:round;stroke-linejoin:round;" d="M258.416,360.168c0,0-3.332,4-3.666,6c-0.167,1,1.541,3.291,2.584,4.5"></path><path style="fill:none;stroke:#505050;stroke-width:2;stroke-linecap:round;stroke-linejoin:round;" d="M263.064,360.168c0,0,3.333,4,3.667,6c0.171,1.025-0.885,2.533-1.954,3.759"></path></g></g><line style="fill:none;stroke:#505050;stroke-width:2;stroke-linecap:round;stroke-linejoin:round;" x1="254.25" y1="312.167" x2="254.25" y2="373.25"></line></g></g></g><g><path style="fill:#6E6E6E;stroke:#000000;stroke-linecap:round;stroke-linejoin:round;" d="M279.734,292.086l-2.424-0.836c0,0,0.673,1.075,0.404,1.911c-11.04,5.97-23.945,6.448-27.715,6.448s-16.675-0.479-27.714-6.448c-0.27-0.836,0.404-1.911,0.404-1.911l-2.423,0.836c0,0-4.597,7.881-5.809,10.389c2.692,4.18,12.386,9.911,35.542,10.15c23.156-0.239,32.85-5.971,35.543-10.15C284.331,299.967,279.734,292.086,279.734,292.086z"></path><g><g><path style="fill:none;stroke:#505050;stroke-width:2;stroke-linecap:round;stroke-linejoin:round;" d="M247.063,301.417c0,0-0.25,7.858-0.25,9.411"></path><path style="fill:none;stroke:#505050;stroke-width:2;stroke-linecap:round;stroke-linejoin:round;" d="M239.75,300.688c0,0-0.938,8.063-0.938,9.688"></path><path style="fill:none;stroke:#505050;stroke-width:2;stroke-linecap:round;stroke-linejoin:round;" d="M232.7,298.961c0,0-1.438,8.539-1.438,10.164"></path><path style="fill:none;stroke:#505050;stroke-width:2;stroke-linecap:round;stroke-linejoin:round;" d="M226.313,296.688c0,0-2.813,8.313-2.813,9.938"></path><path style="fill:none;stroke:#505050;stroke-width:2;stroke-linecap:round;stroke-linejoin:round;" d="M221.438,294.5c0,0-3.75,7.938-3.75,8.938"></path></g><g><path style="fill:none;stroke:#505050;stroke-width:2;stroke-linecap:round;stroke-linejoin:round;" d="M252.938,301.417c0,0,0.25,7.858,0.25,9.411"></path><path style="fill:none;stroke:#505050;stroke-width:2;stroke-linecap:round;stroke-linejoin:round;" d="M260.25,300.688c0,0,0.938,8.063,0.938,9.688"></path><path style="fill:none;stroke:#505050;stroke-width:2;stroke-linecap:round;stroke-linejoin:round;" d="M267.3,298.961c0,0,1.438,8.539,1.438,10.164"></path><path style="fill:none;stroke:#505050;stroke-width:2;stroke-linecap:round;stroke-linejoin:round;" d="M273.688,296.688c0,0,2.813,8.313,2.813,9.938"></path><path style="fill:none;stroke:#505050;stroke-width:2;stroke-linecap:round;stroke-linejoin:round;" d="M278.563,294.5c0,0,3.75,7.938,3.75,8.938"></path></g></g></g></g></g></g></svg>