<svg xmlns="http://www.w3.org/2000/svg" width="500" height="500" version="1.1"><g id="x044"><g><g><path style="fill:#6E6E6E;stroke:#000000;stroke-linecap:round;stroke-linejoin:round;" d="M285.269,305.5c0,0-1.834-6.5-4-11.083c-2.75-5.083-10.167-9.417-10.167-9.417s2.232,5-6.101,8.5c-6.538,2.746-23.464,2.746-30.001,0c-8.333-3.5-6.101-8.5-6.101-8.5s-7.417,4.334-10.167,9.417c-2.167,4.583-4,11.083-4,11.083s-5.833,8.667-5.833,9.417c1.75,2.583,10.75,8.75,15.833,8.75c1.393-6.018,21.513-13.333,25.269-14.752c3.755,1.419,23.876,8.734,25.269,14.752c5.083,0,14.083-6.167,15.833-8.75C291.102,314.167,285.269,305.5,285.269,305.5z"></path><g><path style="fill:none;stroke:#000000;stroke-linecap:round;stroke-linejoin:round;" d="M285.102,304.917c0,0,0.334,2.582,0.417,3.416"></path><path style="fill:#505050;" d="M273.352,295.75c0,0,3.946,5.933,4.583,9.5c0.637,3.569-2.857,7.082-3.742,7.305c-3.272-3.938-4.626-9.38-4.626-9.38L273.352,295.75z"></path><path style="fill:none;stroke:#000000;stroke-linecap:round;stroke-linejoin:round;" d="M275.388,311.997c4.088-4.327,3.43-11.788,3.43-11.788"></path></g><g><g><path style="fill:none;stroke:#000000;stroke-linecap:round;stroke-linejoin:round;" d="M214.898,304.917c0,0-0.334,2.582-0.417,3.416"></path></g><path style="fill:#505050;" d="M226.648,295.75c0,0-3.946,5.933-4.583,9.5c-0.636,3.569,2.858,7.082,3.743,7.305c3.272-3.938,4.625-9.38,4.625-9.38L226.648,295.75z"></path><path style="fill:none;stroke:#000000;stroke-linecap:round;stroke-linejoin:round;" d="M224.612,311.997c-4.088-4.327-3.43-11.788-3.43-11.788"></path></g></g><path style="fill:#6E6E6E;" d="M228.666,296.167c0,0-2.167,5.332-2.667,9.166s-0.833,12.834-0.833,14.834c-0.667,1.333-1.5,2.166-1.333,2.833s0.667,3.167,0.667,3.167L219.166,340c0,0-3.333,6.5-3.667,8.5s0.167,4.667,0.167,4.667s-1.5,6.666-1.333,11.666c-0.167,1.167-1,4.333,0.333,7c2.333,2.667,35.333,2.5,35.333,2.5s33,0.167,35.334-2.5c1.334-2.667,0.5-5.833,0.332-7c0.168-5-1.332-11.666-1.332-11.666s0.5-2.667,0.166-4.667s-3.666-8.5-3.666-8.5l-5.334-13.833c0,0,0.5-2.5,0.668-3.167c0.166-0.667-0.668-1.5-1.334-2.833c0-2-0.334-11-0.834-14.834s-2.666-9.166-2.666-9.166"></path><path style="fill:#3F3F3F;" d="M285.5,361.631c0,0-9.75,1.181-35.875,1.181s-35.584-1.07-35.584-1.07l1.292-11.991c0,0,14.042,1.125,34.292,1.125s35-1.125,35-1.125L285.5,361.631z"></path><path style="fill:#00B3C6;" d="M275.167,318.333c0,0-7.002,0.625-24.876,0.625s-25.417-0.625-25.417-0.625l1-11.333c0,0,11.916,0.625,24.417,0.625S274.167,307,274.167,307L275.167,318.333z"></path><path style="fill:#FF3887;" d="M280.867,339.333c0,0-6.992,1.042-30.867,1.042s-30.833-1.042-30.833-1.042L224.3,328c0,0,9.95,0.875,25.825,0.875S275.733,328,275.733,328L280.867,339.333z"></path><path style="fill:none;stroke:#000000;stroke-linecap:round;stroke-linejoin:round;" d="M228.666,296.167c0,0-2.167,5.332-2.667,9.166s-0.833,12.834-0.833,14.834c-0.667,1.333-1.5,2.166-1.333,2.833s0.667,3.167,0.667,3.167L219.166,340c0,0-3.333,6.5-3.667,8.5s0.167,4.667,0.167,4.667s-1.5,6.666-1.333,11.666c-0.167,1.167-1,4.333,0.333,7c2.333,2.667,35.333,2.5,35.333,2.5s33,0.167,35.334-2.5c1.334-2.667,0.5-5.833,0.332-7c0.168-5-1.332-11.666-1.332-11.666s0.5-2.667,0.166-4.667s-3.666-8.5-3.666-8.5l-5.334-13.833c0,0,0.5-2.5,0.668-3.167c0.166-0.667-0.668-1.5-1.334-2.833c0-2-0.334-11-0.834-14.834s-2.666-9.166-2.666-9.166"></path></g></g></svg>