<svg xmlns="http://www.w3.org/2000/svg" width="500" height="500" version="1.1"><g id="x045"><path style="fill:#FFFFFF;stroke:#000000;stroke-linecap:round;stroke-linejoin:round;" d="M250,293.333c0,0-8.287,0.168-13.454-2.166c0.167,5.333,0.407,10.914,13.454,13.457c13.046-2.543,13.287-8.124,13.453-13.457C258.287,293.501,250,293.333,250,293.333z"></path><path style="fill:#6E6E6E;stroke:#000000;stroke-linecap:round;stroke-linejoin:round;" d="M280.422,344.5c-0.358-0.75-0.238-1.875-0.238-1.875s0.714-2.625,0.596-3.375c-0.12-0.75-4.184-9.385-4.614-13c-1.011-8.5-1.391-15.375-3.286-24.875c-0.058,0.009-4.93-5-5.183-17.75c0-0.375-3.847-1.789-5.436-2.424c2.655,13.25-1.337,21.919-12.261,22.424c-10.924-0.505-14.915-9.174-12.261-22.424c-1.589,0.635-5.436,2.049-5.436,2.424c-0.253,12.75-5.125,17.759-5.182,17.75c-1.896,9.5-2.275,16.375-3.287,24.875c-0.43,3.615-4.494,12.25-4.613,13c-0.118,0.75,0.596,3.375,0.596,3.375s0.118,1.125-0.238,1.875c-0.357,0.75-3.57,4.875-3.451,5.625s2.143,3.625,3.213,4.375c0,0,8.847,2.197,30.659,2.248c21.813-0.051,30.659-2.248,30.659-2.248c1.071-0.75,3.094-3.625,3.213-4.375S280.779,345.25,280.422,344.5z"></path><g><path style="fill:#FFFFFF;stroke:#000000;stroke-linecap:round;stroke-linejoin:round;" d="M233.66,282.667c0,0,1.083,15.416-7.083,21.25l0.75-3.5c0,0,1.833-2.334,3.417-7.084s0.75-9.833,0.75-9.833S233.244,282.417,233.66,282.667z"></path><path style="fill:#FFFFFF;stroke:#000000;stroke-linecap:round;stroke-linejoin:round;" d="M266.338,282.667c0,0-1.083,15.416,7.084,21.25l-0.75-3.5c0,0-1.834-2.334-3.417-7.084s-0.75-9.833-0.75-9.833S266.754,282.417,266.338,282.667z"></path></g><g><path style="fill:#FFFFFF;stroke:#000000;stroke-linecap:round;stroke-linejoin:round;" d="M261.28,281.397c1.505,7.511,0.806,13.394-2.021,17.012c-2.038,2.607-5.168,4.025-9.305,4.217c-4.043-0.191-7.174-1.609-9.211-4.216c-2.828-3.618-3.527-9.501-2.022-17.013l0,0c0.108-0.541-0.243-1.068-0.784-1.177s-1.068,0.242-1.177,0.784l0,0c-1.623,8.101-0.79,14.545,2.408,18.637c2.413,3.087,6.042,4.763,10.787,4.982c4.838-0.22,8.467-1.896,10.88-4.983c3.198-4.091,4.03-10.535,2.407-18.636l0,0c-0.108-0.542-0.636-0.893-1.177-0.784C261.522,280.329,261.172,280.856,261.28,281.397L261.28,281.397z"></path></g></g></svg>