<svg xmlns="http://www.w3.org/2000/svg" width="500" height="500" version="1.1"><g id="x046"><g><g><g><g><path style="fill:#FEFEFE;stroke:#000000;stroke-linecap:round;stroke-linejoin:round;" d="M214.166,307.75l-3.083,4c0,0,0,2.75,3,3.5s3.583,0,3.583,0s0.501,1.916,3.584,2.833s5.25-0.833,5.25-0.833l0.5-5L214.166,307.75z"></path><path style="fill:#E4E0F3;" d="M215.416,314.917c0,0,0.917,0.583,2.167-0.167c0.583,0.833,1.584,1.916,2.5,2.333c0.083-2.083-0.5-4.666-0.917-4.666C218.75,312.417,215.416,314.917,215.416,314.917z"></path></g><g><path style="fill:#FEFEFE;stroke:#000000;stroke-linecap:round;stroke-linejoin:round;" d="M285.833,307.75l3.084,4c0,0,0,2.75-3,3.5s-3.584,0-3.584,0s-0.5,1.916-3.583,2.833s-5.25-0.833-5.25-0.833l-0.5-5L285.833,307.75z"></path><path style="fill:#E4E0F3;" d="M284.583,314.917c0,0-0.917,0.583-2.167-0.167c-0.583,0.833-1.583,1.916-2.5,2.333c-0.083-2.083,0.501-4.666,0.917-4.666C281.25,312.417,284.583,314.917,284.583,314.917z"></path></g></g><g><g><path style="fill:#323232;stroke:#000000;stroke-linecap:round;stroke-linejoin:round;" d="M287.25,297.75c0-2-10-10-15-12C271.25,292.5,250,296,250,296s-21.25-3.5-22.25-10.25c-5,2-15,10-15,12s-0.25,8.5,1.5,10.25c-0.5,0.5,7.25,3.75,11.25,4.5c-0.5,3.25-1.75,29.25-1.75,29.25L250,346l26.25-4.25c0,0-1.25-26-1.75-29.25c4-0.75,11.75-4,11.25-4.5C287.5,306.25,287.25,299.75,287.25,297.75z"></path></g><g><g><path style="fill:none;stroke:#000000;stroke-linecap:round;stroke-linejoin:round;" d="M226.368,305.75c0,0,1.25-6.5,2.833-9"></path></g><path style="fill:none;stroke:#000000;stroke-linecap:round;stroke-linejoin:round;" d="M273.632,305.75c0,0-1.248-6.5-2.832-9"></path></g></g></g><path style="fill:#6E6E6E;stroke:#000000;stroke-linecap:round;stroke-linejoin:round;" d="M276,323.5c-0.5-4.5-1.75-17.75-1.75-17.75s-9-5.5-12.75-5.25s-11.5,6-11.5,6s-7.75-5.75-11.5-6s-12.75,5.25-12.75,5.25S224.5,319,224,323.5c-1.25,4-4,18-3.75,20c0.5,2.25,11.25,4.5,29.75,4.5s29.25-2.25,29.75-4.5C280,341.5,277.25,327.5,276,323.5z"></path></g></g></svg>