<svg xmlns="http://www.w3.org/2000/svg" width="500" height="500" version="1.1"><g id="x047"><g><g><g><path style="fill:#3F3F3F;stroke:#000000;stroke-linecap:round;stroke-linejoin:round;" d="M215.333,304.5c0,0-1.833,0.001-2.333,0.501s-3.334,7.5-3.334,8s5.001,4.499,16.167,8.166c1.667-6.167,1.667-11,1.667-11L215.333,304.5z"></path><g><path style="fill:#666666;stroke:#000000;stroke-linecap:round;stroke-linejoin:round;" d="M225.333,288c0,0-5.499,6.333-6.666,8.5s-3.834,9.333-3.834,9.333l12.5,7.5l6-21.5L225.333,288z"></path><path style="fill:none;stroke:#000000;stroke-linecap:round;stroke-linejoin:round;" d="M222.5,301.333c0,0,2,5,4.833,9"></path></g></g><g><path style="fill:#3F3F3F;stroke:#000000;stroke-linecap:round;stroke-linejoin:round;" d="M284.667,304.5c0,0,1.834,0.001,2.334,0.501s3.333,7.5,3.333,8s-5,4.499-16.167,8.166c-1.666-6.167-1.666-11-1.666-11L284.667,304.5z"></path><g><path style="fill:#666666;stroke:#000000;stroke-linecap:round;stroke-linejoin:round;" d="M274.667,288c0,0,5.5,6.333,6.667,8.5s3.833,9.333,3.833,9.333l-12.5,7.5l-6-21.5L274.667,288z"></path><path style="fill:none;stroke:#000000;stroke-linecap:round;stroke-linejoin:round;" d="M277.501,301.333c0,0-2,5-4.834,9"></path></g></g></g><g><g><path style="fill:#6E6E6E;stroke:#000000;stroke-linecap:round;stroke-linejoin:round;" d="M278.5,336.667l-28.5,2.166l-28.5-2.166c0,0-6.833,10.499-7.667,14.666c2.833,5.5,11.333,11.333,18.667,14c3.333-0.667,17.5-16,17.5-16s14.167,15.333,17.5,16c7.333-2.667,15.833-8.5,18.667-14C285.333,347.166,278.5,336.667,278.5,336.667z"></path><path style="fill:#3F3F3F;stroke:#000000;stroke-linecap:round;stroke-linejoin:round;" d="M284.5,346.833c0,0-7.333,8.833-16.167,12.667c-5.166-3-18.333-15.667-18.333-15.667S236.833,356.5,231.667,359.5c-8.833-3.834-16.167-12.667-16.167-12.667s-1.667,2.833-1.667,4.5c0,0,6.667,10.5,18.667,14c6.667-4,17.5-15.333,17.5-15.333s10.833,11.333,17.5,15.333c12-3.5,18.667-14,18.667-14C286.167,349.666,284.5,346.833,284.5,346.833z"></path></g><path style="fill:#3F3F3F;stroke:#000000;stroke-linecap:round;stroke-linejoin:round;" d="M275.167,326.833l-25.167,1l-25.167-1c0,0-3.333,8.334-3.5,10.334c0,0,7,1.666,28.667,1.666s28.667-1.666,28.667-1.666C278.5,335.167,275.167,326.833,275.167,326.833z"></path><path style="fill:#6E6E6E;stroke:#000000;stroke-linecap:round;stroke-linejoin:round;" d="M274.167,305.167C273.167,300,269,291.5,269,291.5l-19,7.5l-19-7.5c0,0-4.167,8.5-5.167,13.667s-1.333,22.166-1.333,22.166l25.5,0.5l25.5-0.5C275.5,327.333,275.167,310.334,274.167,305.167z"></path><g><circle style="fill:#FFFFFF;stroke:#000000;stroke-linecap:round;stroke-linejoin:round;" cx="250" cy="307.833" r="2.833"></circle><circle style="fill:#FFFFFF;stroke:#000000;stroke-linecap:round;stroke-linejoin:round;" cx="250" cy="319.499" r="2.833"></circle></g></g></g></g></svg>