<svg xmlns="http://www.w3.org/2000/svg" width="500" height="500" version="1.1"><g id="x048"><g><path style="opacity:0.8;fill:#8C8C8C;" d="M271.501,298.167l4.167-7.667c0,0-4.334-5.583-10-7.75c-7.166,7.082-15.667,7.251-15.669,7.251c-0.003,0-8.501-0.169-15.667-7.251c-5.666,2.167-10,7.75-10,7.75l4.167,7.667l-1.833,7.999l23.332,2.835l0,0h0.001l0,0l23.335-2.835L271.501,298.167z"></path><g><g><path style="fill:#505050;stroke:#000000;stroke-linecap:round;stroke-linejoin:round;" d="M228.25,298.834c0,0,1.166-3.021,1.729-4.771c-0.167-0.833-4.375-5.709-4.875-5.875s-5.959,3.063-6.625,4.563c-0.667,1.5-3.188,10.25-3.188,10.25s-3.75,3.375-3.875,4.938c1.438,3.313,4.001,7.063,14.001,8.396C225.583,304.5,228.25,298.834,228.25,298.834z"></path><path style="fill:none;stroke:#000000;stroke-linecap:round;stroke-linejoin:round;" d="M222.417,299.834c0,0,0.166,3,3.5,6.833"></path></g><g><path style="fill:#505050;stroke:#000000;stroke-linecap:round;stroke-linejoin:round;" d="M271.752,298.834c0,0-1.166-3.021-1.729-4.771c0.166-0.833,4.375-5.709,4.875-5.875s5.959,3.063,6.625,4.563s3.188,10.25,3.188,10.25s3.75,3.375,3.875,4.938c-1.438,3.313-4.002,7.063-14.002,8.396C274.418,304.5,271.752,298.834,271.752,298.834z"></path><path style="fill:none;stroke:#000000;stroke-linecap:round;stroke-linejoin:round;" d="M277.584,299.834c0,0-0.166,3-3.5,6.833"></path></g></g><g><path style="fill:#505050;stroke:#000000;stroke-width:0.8793;stroke-linecap:round;stroke-linejoin:round;" d="M275.167,322.834L250,322.667l-25.167,0.167c0,0-1.167,4.667-0.5,6c2,2,6,1.167,25.667,1.167s23.667,0.833,25.667-1.167C276.334,327.501,275.167,322.834,275.167,322.834z"></path><path style="fill:#6E6E6E;stroke:#000000;stroke-width:0.9518;stroke-linecap:round;stroke-linejoin:round;" d="M274.333,316.487c0,0,0.167-5.737-1.166-10.568c-0.43-1.557-7.779-4.264-11.5-4.077C258.667,301.992,250,307,250,307s-8.667-5.008-11.667-5.158c-3.721-0.187-11.07,2.52-11.5,4.077c-1.333,4.831-1.167,10.568-1.167,10.568L225,323.226c0,0,3.5,0.774,25,0.774s25-0.774,25-0.774L274.333,316.487z"></path></g></g></g></svg>