<svg xmlns="http://www.w3.org/2000/svg" width="500" height="500" version="1.1"><g id="x049"><g><path style="opacity:0.8;fill:#8C8C8C;" d="M266.452,289.667c-8.813,0.666-16.452,0.25-16.452,0.25s-7.638,0.416-16.452-0.25c-5.455,8.084-6.547,15.333-6.715,15.583L250,308l23.167-2.75C273,305,271.908,297.751,266.452,289.667z"></path><g><path style="fill:#505050;stroke:#000000;stroke-width:0.8793;stroke-linecap:round;stroke-linejoin:round;" d="M275.167,323.834L250,324.667l-25.167-0.833c0,0-1.167,4.667-0.5,6c2,2,6,2.167,25.667,2.167s23.667-0.167,25.667-2.167C276.334,328.501,275.167,323.834,275.167,323.834z"></path><path style="fill:#6E6E6E;stroke:#000000;stroke-width:0.9518;stroke-linecap:round;stroke-linejoin:round;" d="M274.333,316.487c0,0,0.167-5.737-1.166-10.568c-0.43-1.557-7.779-4.264-11.5-4.077C258.667,301.992,250,307,250,307s-8.667-5.008-11.667-5.158c-3.721-0.187-11.07,2.52-11.5,4.077c-1.333,4.831-1.167,10.568-1.167,10.568L225,324.226c0,0,3.5,1.774,25,1.774s25-1.774,25-1.774L274.333,316.487z"></path></g></g></g></svg>