<svg xmlns="http://www.w3.org/2000/svg" width="500" height="500" version="1.1"><g id="x050"><g><g><g><g><path style="fill:#6E6E6E;stroke:#000000;stroke-linecap:round;stroke-linejoin:round;" d="M226.156,287.449c0,0-5.25,4.551-7.5,8.801s-9.25,23.75-9.25,23.75s-9.063,20.563-9.313,21.563c-2,1.75-3.5,3-3.5,3.75s2,3.5,2,3.5s10.5,3.5,11.5,3.75s3.75-1.25,4.25-2.25s0.25-4,0.25-4S223.656,329.5,224.656,326s5.25-27,5.25-27L226.156,287.449z"></path><path style="fill:#505050;" d="M200.531,342c0,0,0.75-2,1.375-3.5c0.75-0.5,4.438,2.563,3.688,2.813S202.281,342,200.531,342z"></path><path style="fill:#505050;" d="M225.656,305c0,0-4,2-4.5,4.75s0,11.25,4.5,15.25C227.906,316.5,225.656,305,225.656,305z"></path><path style="fill:none;stroke:#000000;stroke-linecap:round;stroke-linejoin:round;" d="M221.156,306c0,0,0,8.5,4.25,15.25"></path></g><path style="fill:#6E6E6E;stroke:#000000;stroke-linecap:round;stroke-linejoin:round;" d="M198.094,348.313c0,0-2.25,4-2.25,5c3,1.75,10.5,5,13,4.5c1.75-3.25,2-5.25,2-5.25L198.094,348.313z"></path></g><g><g><path style="fill:#6E6E6E;stroke:#000000;stroke-linecap:round;stroke-linejoin:round;" d="M273.844,287.449c0,0,5.25,4.551,7.5,8.801s9.25,23.75,9.25,23.75s9.063,20.563,9.313,21.563c2,1.75,3.5,3,3.5,3.75s-2,3.5-2,3.5s-10.5,3.5-11.5,3.75s-3.75-1.25-4.25-2.25s-0.25-4-0.25-4S276.344,329.5,275.344,326s-5.25-27-5.25-27L273.844,287.449z"></path><path style="fill:#505050;" d="M299.469,342c0,0-0.75-2-1.375-3.5c-0.75-0.5-4.438,2.563-3.688,2.813S297.719,342,299.469,342z"></path><path style="fill:#505050;" d="M274.344,305c0,0,4,2,4.5,4.75s0,11.25-4.5,15.25C272.094,316.5,274.344,305,274.344,305z"></path><path style="fill:none;stroke:#000000;stroke-linecap:round;stroke-linejoin:round;" d="M278.844,306c0,0,0,8.5-4.25,15.25"></path></g><path style="fill:#6E6E6E;stroke:#000000;stroke-linecap:round;stroke-linejoin:round;" d="M301.906,348.313c0,0,2.25,4,2.25,5c-3,1.75-10.5,5-13,4.5c-1.75-3.25-2-5.25-2-5.25L301.906,348.313z"></path></g></g><path style="fill:#6E6E6E;stroke:#000000;stroke-linecap:round;stroke-linejoin:round;" d="M275.75,327c0,0-0.998-14.75-1.498-18s-2.002-9.25-2.002-9.25s2.75-7,2.25-11.5C272,285,262.75,281,262.75,281L250,287.813L237.25,281c0,0-9.25,4-11.75,7.25c-0.5,4.5,2.25,11.5,2.25,11.5s-1.5,6-2,9.25s-1.5,18-1.5,18s-6.5,16.5-6.5,18.5s1.75,3.5,1.75,3.5s8.5,3.25,30.5,3.25s30.5-3.25,30.5-3.25s1.75-1.5,1.75-3.5S275.75,327,275.75,327z"></path><g><g><g><path style="fill:none;stroke:#000000;stroke-linecap:round;stroke-linejoin:round;" d="M238.008,285.917c0,0-2,7.666-2.25,13.25c-0.833,2.334-3.833,27.166-4,28.5s-3.5,18.5-3.667,19.667s1.167,3.5,1.167,3.5"></path><path style="fill:none;stroke:#000000;stroke-linecap:round;stroke-linejoin:round;" d="M240.007,286.917c0,0-1.917,9.833-2.083,12.951c-0.833,2.334-3.833,26.465-4,27.799s-3.5,18.5-3.667,19.667s1.167,3.5,1.167,3.5"></path><path style="fill:none;stroke:#000000;stroke-linecap:round;stroke-linejoin:round;" d="M242.174,286.917c0,0-1.5,7.583-2.083,13.549c-0.833,2.334-3.833,25.867-4,27.201s-3.5,18.5-3.667,19.667s1.167,3.5,1.167,3.5"></path></g></g><g><g><path style="fill:none;stroke:#000000;stroke-linecap:round;stroke-linejoin:round;" d="M261.992,285.917c0,0,2,7.666,2.251,13.25c0.832,2.334,3.833,27.166,4,28.5c0.166,1.334,3.5,18.5,3.666,19.667s-1.166,3.5-1.166,3.5"></path><path style="fill:none;stroke:#000000;stroke-linecap:round;stroke-linejoin:round;" d="M259.993,286.917c0,0,1.916,9.833,2.083,12.951c0.833,2.334,3.833,26.465,4,27.799s3.5,18.5,3.667,19.667c0.166,1.167-1.167,3.5-1.167,3.5"></path><path style="fill:none;stroke:#000000;stroke-linecap:round;stroke-linejoin:round;" d="M257.826,286.917c0,0,1.499,7.583,2.083,13.549c0.834,2.334,3.834,25.867,4,27.201c0.167,1.334,3.5,18.5,3.667,19.667s-1.167,3.5-1.167,3.5"></path></g></g></g><g><rect x="247.417" y="288.25" style="fill:#6E6E6E;stroke:#000000;stroke-linecap:round;stroke-linejoin:round;" width="5.166" height="64.118"></rect><g><circle style="fill:#323232;stroke:#000000;stroke-linecap:round;stroke-linejoin:round;" cx="250" cy="298.406" r="2.083"></circle><circle style="fill:#323232;stroke:#000000;stroke-linecap:round;stroke-linejoin:round;" cx="250" cy="310.281" r="2.083"></circle><circle style="fill:#323232;stroke:#000000;stroke-linecap:round;stroke-linejoin:round;" cx="250" cy="322.156" r="2.083"></circle><circle style="fill:#323232;stroke:#000000;stroke-linecap:round;stroke-linejoin:round;" cx="250" cy="334.031" r="2.083"></circle><circle style="fill:#323232;stroke:#000000;stroke-linecap:round;stroke-linejoin:round;" cx="250" cy="345.906" r="2.083"></circle></g></g><path style="fill:#6E6E6E;stroke:#000000;stroke-linecap:round;stroke-linejoin:round;" d="M263.468,281.22c0,0-3.358-2.649-4.104-2.836c0.262,1.929,0.074,3.866,0.074,3.866s-2.326,1.585-9.438,1.616c-7.111-0.031-9.438-1.616-9.438-1.616s-0.188-1.938,0.074-3.866c-0.746,0.187-4.104,2.836-4.104,2.836s-0.56,2.015,1.492,4.439c2.026,2.396,7.06,3.405,11.976,3.431c4.916-0.025,9.949-1.035,11.976-3.431C264.027,283.234,263.468,281.22,263.468,281.22z"></path><circle style="fill:#323232;stroke:#000000;stroke-linecap:round;stroke-linejoin:round;" cx="250" cy="286.531" r="2.083"></circle></g></g></svg>