<svg xmlns="http://www.w3.org/2000/svg" width="500" height="500" version="1.1"><g id="x053"><path style="fill:#6E6E6E;stroke:#000000;stroke-linecap:round;stroke-linejoin:round;" d="M275.75,327c0,0-0.998-14.75-1.498-18s-2.002-9.25-2.002-9.25s2.75-7,2.25-11.5C272,285,262.75,281,262.75,281s0.916,10-12.75,10c-13.667,0-12.75-10-12.75-10s-9.25,4-11.75,7.25c-0.5,4.5,2.25,11.5,2.25,11.5s-1.5,6-2,9.25s-1.5,18-1.5,18s-6.5,16.5-6.5,18.5s1.75,3.5,1.75,3.5s8.5,3.25,30.5,3.25s30.5-3.25,30.5-3.25s1.75-1.5,1.75-3.5S275.75,327,275.75,327z"></path><g><g><g><path style="fill:none;stroke:#000000;stroke-linecap:round;stroke-linejoin:round;" d="M238.008,285.917c0,0-2,7.666-2.25,13.25c-0.833,2.334-3.833,27.166-4,28.5s-3.5,18.5-3.667,19.667s1.167,3.5,1.167,3.5"></path><path style="fill:none;stroke:#000000;stroke-linecap:round;stroke-linejoin:round;" d="M240.007,286.917c0,0-1.917,9.833-2.083,12.951c-0.833,2.334-3.833,26.465-4,27.799s-3.5,18.5-3.667,19.667s1.167,3.5,1.167,3.5"></path></g></g><g><g><path style="fill:none;stroke:#000000;stroke-linecap:round;stroke-linejoin:round;" d="M261.992,285.917c0,0,2,7.666,2.251,13.25c0.832,2.334,3.833,27.166,4,28.5c0.166,1.334,3.5,18.5,3.666,19.667s-1.166,3.5-1.166,3.5"></path><path style="fill:none;stroke:#000000;stroke-linecap:round;stroke-linejoin:round;" d="M259.993,286.917c0,0,1.916,9.833,2.083,12.951c0.833,2.334,3.833,26.465,4,27.799s3.5,18.5,3.667,19.667c0.166,1.167-1.167,3.5-1.167,3.5"></path></g></g></g><g><rect x="247.417" y="290.167" style="fill:#505050;stroke:#000000;stroke-linecap:round;stroke-linejoin:round;" width="5.166" height="62.201"></rect></g></g></svg>