<svg xmlns="http://www.w3.org/2000/svg" width="500" height="500" version="1.1"><g id="x054"><g><path style="fill:#6E6E6E;" d="M275.75,327c0,0-0.998-14.75-1.498-18s-2.002-9.25-2.002-9.25s2.75-7,2.25-11.5C272,285,262.75,281,262.75,281s0.916,10-12.75,10c-13.667,0-12.75-10-12.75-10s-9.25,4-11.75,7.25c-0.5,4.5,2.25,11.5,2.25,11.5s-1.5,6-2,9.25s-1.5,18-1.5,18s-6.5,16.5-6.5,18.5s1.75,3.5,1.75,3.5s8.5,4.334,30.5,4.334S280.5,349,280.5,349s1.75-1.5,1.75-3.5S275.75,327,275.75,327z"></path><g><g><path style="fill:#505050;" d="M230.143,296.262c-0.993-0.993-2.523-1.119-3.655-0.381c0.899,1.533,1.941,3.151,0.97,5.288c0.938,0.204,1.955-0.053,2.684-0.781C231.281,299.248,231.282,297.4,230.143,296.262z"></path><circle style="fill:#505050;" cx="235.151" cy="291.253" r="2.917"></circle></g><g><path style="fill:#505050;" d="M227.313,314.646c-0.55-0.55-1.267-0.828-1.987-0.847l-0.583,5.778c0.905,0.159,1.871-0.106,2.57-0.806C228.453,317.633,228.453,315.786,227.313,314.646z"></path><circle style="fill:#505050;" cx="232.322" cy="309.638" r="2.918"></circle><circle style="fill:#505050;" cx="239.394" cy="302.566" r="2.917"></circle><circle style="fill:#505050;" cx="246.465" cy="295.496" r="2.917"></circle></g><g><path style="fill:#505050;" d="M224.485,333.031c-0.586-0.586-1.359-0.865-2.126-0.848l-1.841,5.103c1.146,0.995,2.877,0.961,3.967-0.129C225.625,336.018,225.625,334.171,224.485,333.031z"></path><circle style="fill:#505050;" cx="229.493" cy="328.023" r="2.917"></circle><circle style="fill:#505050;" cx="236.564" cy="320.952" r="2.917"></circle><circle style="fill:#505050;" cx="243.636" cy="313.88" r="2.918"></circle><circle style="fill:#505050;" cx="250.708" cy="306.81" r="2.917"></circle><circle style="fill:#505050;" cx="257.779" cy="299.738" r="2.917"></circle><circle style="fill:#505050;" cx="264.85" cy="292.667" r="2.917"></circle><path style="fill:#505050;" d="M269.312,284.319c-0.532,1.088-0.358,2.435,0.547,3.34c1.14,1.139,2.985,1.14,4.125,0c0.004-0.004,0.006-0.008,0.009-0.011L269.312,284.319z"></path></g><g><circle style="fill:#505050;" cx="226.665" cy="346.408" r="2.917"></circle><circle style="fill:#505050;" cx="233.736" cy="339.337" r="2.917"></circle><circle style="fill:#505050;" cx="240.807" cy="332.266" r="2.917"></circle><circle style="fill:#505050;" cx="247.878" cy="325.195" r="2.918"></circle><circle style="fill:#505050;" cx="254.95" cy="318.123" r="2.917"></circle><circle style="fill:#505050;" cx="262.021" cy="311.052" r="2.917"></circle><circle style="fill:#505050;" cx="269.093" cy="303.981" r="2.917"></circle></g><g><path style="fill:#505050;" d="M240.042,352.713c1.139-1.139,1.139-2.985,0-4.125c-1.14-1.14-2.986-1.14-4.125,0c-1.139,1.14-1.139,2.986,0,4.125c0.004,0.004,0.009,0.007,0.013,0.011l3.715,0.314C239.782,352.941,239.917,352.837,240.042,352.713z"></path><circle style="fill:#505050;" cx="245.05" cy="343.58" r="2.917"></circle><circle style="fill:#505050;" cx="252.121" cy="336.509" r="2.917"></circle><circle style="fill:#505050;" cx="259.193" cy="329.437" r="2.918"></circle><circle style="fill:#505050;" cx="266.264" cy="322.366" r="2.918"></circle><path style="fill:#505050;" d="M271.271,313.232c-1.139,1.14-1.139,2.985,0.001,4.125c1.025,1.025,2.618,1.12,3.758,0.301l-0.383-4.954C273.553,312.15,272.187,312.318,271.271,313.232z"></path></g><g><circle style="fill:#505050;" cx="256.364" cy="347.822" r="2.917"></circle><circle style="fill:#505050;" cx="263.435" cy="340.75" r="2.918"></circle><circle style="fill:#505050;" cx="270.507" cy="333.68" r="2.917"></circle></g><g><path style="fill:#505050;" d="M269.74,350.002c-1.14-1.139-2.985-1.139-4.125,0c-0.719,0.719-0.982,1.719-0.794,2.646l5.751-0.825C270.517,351.159,270.248,350.51,269.74,350.002z"></path><circle style="fill:#505050;" cx="274.75" cy="344.994" r="2.918"></circle></g></g><path style="fill:none;stroke:#000000;stroke-linecap:round;stroke-linejoin:round;" d="M275.75,327c0,0-0.998-14.75-1.498-18s-2.002-9.25-2.002-9.25s2.75-7,2.25-11.5C272,285,262.75,281,262.75,281s0.916,10-12.75,10c-13.667,0-12.75-10-12.75-10s-9.25,4-11.75,7.25c-0.5,4.5,2.25,11.5,2.25,11.5s-1.5,6-2,9.25s-1.5,18-1.5,18s-6.5,16.5-6.5,18.5s1.75,3.5,1.75,3.5s8.5,4.334,30.5,4.334S280.5,349,280.5,349s1.75-1.5,1.75-3.5S275.75,327,275.75,327z"></path><g><rect x="247.417" y="290.167" style="fill:#6E6E6E;stroke:#000000;stroke-linecap:round;stroke-linejoin:round;" width="5.166" height="17.833"></rect></g></g></g></svg>