<svg xmlns="http://www.w3.org/2000/svg" width="500" height="500" version="1.1"><g id="x055"><g><g><g><path style="fill:#FFFFFF;stroke:#000000;stroke-linecap:round;stroke-linejoin:round;" d="M202,339.5c0,0,6.25-16.25,7.5-18.5c2.25-7,8.5-26,13.25-31c5.75-5.5,10-7,10-7l-3.5,17.75l-10,38.25l-4.5,7.25L202,339.5z"></path><path style="fill:#DCDCDC;" d="M225.798,305c0,0-4,2-4.5,4.75s0,11.25,4.5,15.25C228.048,316.5,225.798,305,225.798,305z"></path><path style="fill:none;stroke:#000000;stroke-linecap:round;stroke-linejoin:round;" d="M221.298,306c0,0,0,8.5,4.25,15.25"></path><path style="fill:#6E6E6E;stroke:#000000;stroke-linecap:round;stroke-linejoin:round;" d="M196.5,349.75c0,0,0.5-10,3.5-15.5c7,0.5,16.25,4.25,20.75,8.25c-3.5,7.5-8.25,14-8.25,14L196.5,349.75z"></path></g><g><path style="fill:#FFFFFF;stroke:#000000;stroke-linecap:round;stroke-linejoin:round;" d="M298,339.5c0,0-6.25-16.25-7.5-18.5c-2.25-7-8.5-26-13.25-31c-5.75-5.5-10-7-10-7l3.5,17.75l10,38.25l4.5,7.25L298,339.5z"></path><path style="fill:#DCDCDC;" d="M274.201,305c0,0,4,2,4.5,4.75s0,11.25-4.5,15.25C271.951,316.5,274.201,305,274.201,305z"></path><path style="fill:none;stroke:#000000;stroke-linecap:round;stroke-linejoin:round;" d="M278.701,306c0,0,0,8.5-4.25,15.25"></path><path style="fill:#6E6E6E;stroke:#000000;stroke-linecap:round;stroke-linejoin:round;" d="M303.5,349.75c0,0-0.5-10-3.5-15.5c-7,0.5-16.25,4.25-20.75,8.25c3.5,7.5,8.25,14,8.25,14L303.5,349.75z"></path></g></g><g><g><path style="fill:#6E6E6E;stroke:#000000;stroke-linecap:round;stroke-linejoin:round;" d="M220.75,343c0,0-4,7.5-6,13.75c-0.229,0.714,12.5,2.25,12.5,2.25s6.75,6,12.5,9.75c5.25-5,10.25-15,10.25-15L220.75,343z"></path><path style="fill:#6E6E6E;stroke:#000000;stroke-linecap:round;stroke-linejoin:round;" d="M279.25,343c0,0,4,7.5,6,13.75c0.229,0.714-12.5,2.25-12.5,2.25s-6.75,6-12.5,9.75c-5.25-5-10.25-15-10.25-15L279.25,343z"></path></g><g><path style="fill:#FFFFFF;stroke:#000000;stroke-linecap:round;stroke-linejoin:round;" d="M273.25,300.75c0-0.75-8.25-6-8.25-6L250,304l-15-9.25c0,0-8.25,5.25-8.25,6c0,0-7.75,36.25-10,47.25c9,8.25,33.25,7.5,33.25,7.5s24.25,0.75,33.25-7.5C281,337,273.25,300.75,273.25,300.75z"></path><g><g><path style="fill:#6E6E6E;" d="M231.629,309.61c1.143,1.146,1.581,2.557,0.979,3.16c-0.6,0.599-2.014,0.162-3.157-0.982c-1.142-1.141-1.583-2.558-0.981-3.16C229.073,308.027,230.487,308.472,231.629,309.61z"></path><ellipse transform="matrix(0.7074 -0.7068 0.7068 0.7074 -153.7739 257.7646)" style="fill:#6E6E6E;" cx="234.46" cy="314.622" rx="1.54" ry="2.925"></ellipse><ellipse transform="matrix(-0.7068 -0.7074 0.7074 -0.7068 170.9124 700.0795)" style="fill:#6E6E6E;" cx="230.54" cy="314.62" rx="1.536" ry="2.926"></ellipse><path style="fill:#6E6E6E;" d="M233.373,309.613c1.14-1.142,2.555-1.584,3.156-0.981c0.603,0.603,0.161,2.015-0.981,3.156c-1.141,1.139-2.553,1.583-3.156,0.982C231.791,312.167,232.231,310.756,233.373,309.613z"></path></g><g><path style="fill:#6E6E6E;" d="M266.63,309.61c1.143,1.146,1.581,2.557,0.979,3.16c-0.6,0.599-2.015,0.162-3.157-0.982c-1.141-1.141-1.582-2.558-0.98-3.16C264.073,308.027,265.488,308.472,266.63,309.61z"></path><ellipse transform="matrix(0.7074 -0.7068 0.7068 0.7074 -143.5335 282.5026)" style="fill:#6E6E6E;" cx="269.46" cy="314.622" rx="1.54" ry="2.925"></ellipse><ellipse transform="matrix(-0.7068 -0.7074 0.7074 -0.7068 230.6508 724.8397)" style="fill:#6E6E6E;" cx="265.54" cy="314.62" rx="1.536" ry="2.926"></ellipse><path style="fill:#6E6E6E;" d="M268.373,309.613c1.141-1.142,2.555-1.584,3.156-0.981c0.604,0.603,0.161,2.015-0.981,3.156c-1.141,1.139-2.553,1.583-3.156,0.982C266.791,312.167,267.231,310.756,268.373,309.613z"></path></g><g><g><path style="fill:#6E6E6E;" d="M249.129,325.61c1.143,1.146,1.581,2.557,0.979,3.16c-0.6,0.599-2.014,0.162-3.157-0.982c-1.142-1.141-1.583-2.558-0.981-3.16C246.573,324.027,247.987,324.472,249.129,325.61z"></path><ellipse transform="matrix(0.7075 -0.7067 0.7067 0.7075 -159.9561 274.7687)" style="fill:#6E6E6E;" cx="251.96" cy="330.622" rx="1.54" ry="2.925"></ellipse><ellipse transform="matrix(-0.7068 -0.7074 0.7074 -0.7068 189.4624 739.768)" style="fill:#6E6E6E;" cx="248.04" cy="330.62" rx="1.536" ry="2.926"></ellipse><path style="fill:#6E6E6E;" d="M250.873,325.613c1.141-1.142,2.555-1.584,3.156-0.981c0.604,0.603,0.161,2.015-0.981,3.156c-1.141,1.139-2.553,1.583-3.157,0.982C249.291,328.167,249.731,326.756,250.873,325.613z"></path></g></g><g><path style="fill:#6E6E6E;" d="M231.629,341.61c1.143,1.146,1.581,2.557,0.979,3.16c-0.6,0.599-2.014,0.162-3.157-0.982c-1.142-1.141-1.583-2.558-0.981-3.16C229.073,340.027,230.487,340.472,231.629,341.61z"></path><ellipse transform="matrix(0.7074 -0.7068 0.7068 0.7074 -176.3911 267.1271)" style="fill:#6E6E6E;" cx="234.46" cy="346.622" rx="1.54" ry="2.925"></ellipse><ellipse transform="matrix(-0.7068 -0.7074 0.7074 -0.7068 148.2748 754.6967)" style="fill:#6E6E6E;" cx="230.54" cy="346.62" rx="1.536" ry="2.926"></ellipse><path style="fill:#6E6E6E;" d="M233.373,341.613c1.14-1.142,2.555-1.584,3.156-0.981c0.603,0.603,0.161,2.015-0.981,3.156c-1.141,1.139-2.553,1.583-3.156,0.982C231.791,344.167,232.231,342.756,233.373,341.613z"></path></g><g><path style="fill:#6E6E6E;" d="M266.63,341.61c1.143,1.146,1.581,2.557,0.979,3.16c-0.6,0.599-2.015,0.162-3.157-0.982c-1.141-1.141-1.582-2.558-0.98-3.16C264.073,340.027,265.488,340.472,266.63,341.61z"></path><ellipse transform="matrix(0.7074 -0.7068 0.7068 0.7074 -166.1508 291.8651)" style="fill:#6E6E6E;" cx="269.46" cy="346.622" rx="1.54" ry="2.925"></ellipse><ellipse transform="matrix(-0.7068 -0.7074 0.7074 -0.7068 208.0132 779.4569)" style="fill:#6E6E6E;" cx="265.54" cy="346.62" rx="1.536" ry="2.926"></ellipse><path style="fill:#6E6E6E;" d="M268.373,341.613c1.141-1.142,2.555-1.584,3.156-0.981c0.604,0.603,0.161,2.015-0.981,3.156c-1.141,1.139-2.553,1.583-3.156,0.982C266.791,344.167,267.231,342.756,268.373,341.613z"></path></g></g></g><path style="fill:#6E6E6E;stroke:#000000;stroke-linecap:round;stroke-linejoin:round;" d="M253.5,293l-3.5,2.75l-3.5-2.75l-11.75,2.5C235.25,303,250,304,250,304s14.75-1,15.25-8.5L253.5,293z"></path></g></g></g></svg>