<svg xmlns="http://www.w3.org/2000/svg" width="500" height="500" version="1.1"><g id="x056"><g><g><path style="fill:#6E6E6E;stroke:#000000;stroke-linecap:round;stroke-linejoin:round;" d="M224.458,288.667c0,0-4.101,4.751-6,9.666c-2.934,4.085-6.167,9.501-6.667,11.167c1.333,5.971,12.291,10.851,19.725,9.846c5.023-14.868,2.612-20.093,2.612-20.093L224.458,288.667z"></path><path style="fill:#6E6E6E;stroke:#000000;stroke-linecap:round;stroke-linejoin:round;" d="M275.542,288.667c0,0,4.101,4.751,6,9.666c2.934,4.085,6.166,9.501,6.666,11.167c-1.334,5.971-12.291,10.851-19.725,9.846c-5.023-14.868-2.613-20.093-2.613-20.093L275.542,288.667z"></path></g><g><g><path style="fill:#6E6E6E;stroke:#000000;stroke-linecap:round;stroke-linejoin:round;" d="M275.75,327c0,0-0.998-14.75-1.498-18s-2.002-9.25-2.002-9.25s2.75-7,2.25-11.5C272,285,262.75,281,262.75,281s0.916,16.834-12.75,16.834c-13.667,0-12.75-16.834-12.75-16.834s-9.25,4-11.75,7.25c-0.5,4.5,2.25,11.5,2.25,11.5s-1.5,6-2,9.25s-1.5,18-1.5,18s-8.5,18.334-8.5,20.334s1.75,7.166,1.75,7.166s10.5,3.25,32.5,3.25s32.5-3.25,32.5-3.25s1.75-5.166,1.75-7.166S275.75,327,275.75,327z"></path><g><g><path style="fill:#6E6E6E;stroke:#000000;stroke-linecap:round;stroke-linejoin:round;" d="M244.725,301c0,0-1.167,8.333-2.5,29.167c-1.167,0.333-1.667-0.167-1.667-0.167s0.333-18,2.167-29C243.558,300.833,244.725,301,244.725,301z"></path><path style="fill:#6E6E6E;stroke:#000000;stroke-linecap:round;stroke-linejoin:round;" d="M240.767,324.938c0,0-1.125,1.188-0.813,1.875s1.25,0.938,2.625,0.875c0.938-1,0.875-2.188,0.313-2.5S240.767,324.938,240.767,324.938z"></path></g><g><path style="fill:#6E6E6E;stroke:#000000;stroke-linecap:round;stroke-linejoin:round;" d="M255.274,301c0,0,1.168,8.333,2.5,29.167c1.168,0.333,1.668-0.167,1.668-0.167s-0.334-18-2.168-29C256.442,300.833,255.274,301,255.274,301z"></path><path style="fill:#6E6E6E;stroke:#000000;stroke-linecap:round;stroke-linejoin:round;" d="M259.233,324.938c0,0,1.125,1.188,0.813,1.875s-1.25,0.938-2.625,0.875c-0.938-1-0.875-2.188-0.313-2.5S259.233,324.938,259.233,324.938z"></path></g></g><path style="fill:#6E6E6E;stroke:#000000;stroke-linecap:round;stroke-linejoin:round;" d="M250,353.501c0,0-21.167,0.333-29.167,1.833c0,0,2.5,2.166,4.5,2.833s11.166,1.667,24.667,1.667c13.5,0,22.666-1,24.666-1.667s4.5-2.833,4.5-2.833C271.166,353.834,250,353.501,250,353.501z"></path></g></g></g></g></svg>