<svg xmlns="http://www.w3.org/2000/svg" width="500" height="500" version="1.1"><g id="x057"><g><g><g><path style="fill:#FEFEFE;stroke:#000000;stroke-linecap:round;stroke-linejoin:round;" d="M225.504,325.334c1.667-10,8-33.334,8-33.334l-3.333-7.598c0,0-4.833,2.599-10.166,10.932s-9.501,24.333-10.501,26.333c-1.317,2.78-3.534,8.196-5.606,13.396c3.91,3.612,8.736,6.23,13.785,7.316C221.259,335.653,224.999,327.355,225.504,325.334z"></path><path style="fill:#C8C8C8;" d="M225.798,305c0,0-4,2-4.5,4.75s0,11.25,4.5,15.25C228.048,316.5,225.798,305,225.798,305z"></path><path style="fill:none;stroke:#000000;stroke-linecap:round;stroke-linejoin:round;" d="M221.298,306c0,0,0,8.5,4.25,15.25"></path></g><g><path style="fill:#FEFEFE;stroke:#000000;stroke-linecap:round;stroke-linejoin:round;" d="M274.496,325.334c-1.667-10-8-33.334-8-33.334l3.333-7.598c0,0,4.833,2.599,10.166,10.932s9.501,24.333,10.501,26.333c1.317,2.78,3.534,8.196,5.606,13.396c-3.91,3.612-8.736,6.23-13.785,7.316C278.741,335.653,275.001,327.355,274.496,325.334z"></path><path style="fill:#C8C8C8;" d="M274.201,305c0,0,4,2,4.5,4.75s0,11.25-4.5,15.25C271.951,316.5,274.201,305,274.201,305z"></path><path style="fill:none;stroke:#000000;stroke-linecap:round;stroke-linejoin:round;" d="M278.701,306c0,0,0,8.5-4.25,15.25"></path></g></g><path style="fill:#6E6E6E;stroke:#000000;stroke-linecap:round;stroke-linejoin:round;" d="M285.333,354.334c0,0-6-21-9.333-27C275,319,275,312,274.333,307c-0.666-5-4.666-15-4.666-15l0.333-7.598l-5.333-2.666c0,0-1.167,13.264-14.667,13.264s-14.667-13.264-14.667-13.264L230,284.402l0.333,7.598c0,0-4,10-4.666,15C225,312,225,319,224,327.334c-3.333,6-9.333,27-9.333,27s-2,3-1,6c3,3.667,18.583,7.166,36.333,7.166s33.333-3.499,36.333-7.166C287.333,357.334,285.333,354.334,285.333,354.334z"></path></g></g></svg>