<svg xmlns="http://www.w3.org/2000/svg" width="500" height="500" version="1.1"><g id="x058"><g><g><g><path style="fill:#6E6E6E;stroke:#000000;stroke-linecap:round;stroke-linejoin:round;" d="M226.952,315.5c0,0-9.667-2.333-13.833-8c2.25-6.25,9.095-16.819,12-19.5c2.75-2.5,8.667-5.449,8.667-5.449L226.952,315.5z"></path><path style="fill:#505050;" d="M227.869,299c0,0-4.75,0.25-5.5,2.25s1.5,8.5,3,10.5C226.869,306.5,227.869,299,227.869,299z"></path><path style="fill:none;stroke:#000000;stroke-linecap:round;stroke-linejoin:round;" d="M222.286,299.834c0,0,0.166,3,3.5,6.833"></path></g><g><path style="fill:#6E6E6E;stroke:#000000;stroke-linecap:round;stroke-linejoin:round;" d="M273.047,315.5c0,0,9.668-2.333,13.834-8c-2.25-6.25-9.096-16.819-12-19.5c-2.75-2.5-8.666-5.449-8.666-5.449L273.047,315.5z"></path><path style="fill:#505050;" d="M272.131,299c0,0,4.75,0.25,5.5,2.25s-1.5,8.5-3,10.5C273.131,306.5,272.131,299,272.131,299z"></path><path style="fill:none;stroke:#000000;stroke-linecap:round;stroke-linejoin:round;" d="M277.713,299.834c0,0-0.166,3-3.5,6.833"></path></g></g><g><g><path style="fill:#6E6E6E;stroke:#000000;stroke-linecap:round;stroke-linejoin:round;" d="M283.25,352.25c0-2,0.5-5.5,0.25-6.75s-4.25-6.5-4.25-6.5c-0.5-1.25-3.584-11.5-3.584-12.5S275,311.25,274,305.25c-0.75-4.667-4.916-12.833-4.916-12.833l-2.668-9.75c0,0-3.166,25.833-16.416,34.333c-13.25-8.5-16.417-34.333-16.417-34.333l-2.667,9.75c0,0-4.167,8.166-4.917,12.833c-1,6-1.667,20.25-1.667,21.25s-3.083,11.25-3.583,12.5c0,0-4,5.25-4.25,6.5s0.25,4.75,0.25,6.75c-1.5,1.5-4.75,7.75-3.75,11.25c1,0.25,6.5-0.75,8.25-0.5s11.25,3.5,15.75,4.75s21.5,1.25,26,0s14-4.5,15.75-4.75s7.25,0.75,8.25,0.5C288,360,284.75,353.75,283.25,352.25z"></path><path style="fill:#505050;" d="M217.016,353.619c0,0,8.1,5.101,9.15,5.7c1.05,0.6,9.449-1.35,11.699-2.1c-2.25-2.25-7.35-3.9-10.35-4.5C224.516,352.119,217.016,353.619,217.016,353.619z"></path><g><line style="fill:none;stroke:#000000;stroke-linecap:round;stroke-linejoin:round;" x1="248.625" y1="323.75" x2="248.625" y2="368.5"></line><line style="fill:none;stroke:#000000;stroke-linecap:round;stroke-linejoin:round;" x1="251.375" y1="323.75" x2="251.375" y2="368.5"></line></g><path style="fill:#505050;" d="M259.865,357.52c0,0,14.4,1.649,15.601,0.149s3-6,2.1-6.449C276.666,350.77,262.266,355.119,259.865,357.52z"></path><path style="fill:none;stroke:#000000;stroke-linecap:round;stroke-linejoin:round;" d="M259.25,357.75c0,0,10.25,1.5,15.75,0.75"></path><path style="fill:none;stroke:#000000;stroke-linecap:round;stroke-linejoin:round;" d="M230,359.5c0,0,6.25-1.75,7.75-1.5s7.5,0.75,7.5,0.75"></path><path style="fill:none;stroke:#000000;stroke-linecap:round;stroke-linejoin:round;" d="M216.75,352.25c0,0,3,4,5.75,4.75"></path><path style="fill:none;stroke:#000000;stroke-linecap:round;stroke-linejoin:round;" d="M283.25,352.25c0,0-3,4-5.75,4.75"></path></g><path style="fill:#6E6E6E;stroke:#000000;stroke-linecap:round;stroke-linejoin:round;" d="M266.416,282.667C265.75,287.5,263,305,250,317c-13-12-15.75-29.5-16.417-34.333c-4.417,2.417-5.083,3.083-5.083,3.083C232,314.25,250,324,250,324s18-9.75,21.5-38.25C271.5,285.75,270.832,285.084,266.416,282.667z"></path></g></g></g></svg>