<svg xmlns="http://www.w3.org/2000/svg" width="500" height="500" version="1.1"><g id="x059"><g><g><g><path style="fill:#6E6E6E;stroke:#000000;stroke-linecap:round;stroke-linejoin:round;" d="M225.517,287.5c0,0-4.5,4.25-8.25,11.5s-5.75,15.25-8,20.5c-3.25,5.75-5.75,14.5-5.75,14.5s-3.5,5-5.5,8.25c-0.954,1.55-0.5,5-1,6.25s-1.75,3.75-1.5,4.5s9.75,5,13,5c1.75-2,3.25-5.75,4.5-8.25s11-21.75,12-25c2.75-10.5,5-28.5,5-28.5L225.517,287.5z"></path><g><path style="fill:#505050;" d="M224.999,307.25c0,0-4.25,0.5-6.25,3s-0.5,15.25,3.5,18.25C225.499,320.5,225.249,309,224.999,307.25z"></path></g><path style="fill:none;stroke:#000000;stroke-linecap:round;stroke-linejoin:round;" d="M218.517,308.5c0,0-0.5,11,4,18.25"></path></g><g><path style="fill:#6E6E6E;stroke:#000000;stroke-linecap:round;stroke-linejoin:round;" d="M274.483,287.5c0,0,4.5,4.25,8.25,11.5s5.75,15.25,8,20.5c3.25,5.75,5.75,14.5,5.75,14.5s3.5,5,5.5,8.25c0.954,1.55,0.5,5,1,6.25s1.75,3.75,1.5,4.5s-9.75,5-13,5c-1.75-2-3.25-5.75-4.5-8.25s-11-21.75-12-25c-2.75-10.5-5-28.5-5-28.5L274.483,287.5z"></path><path style="fill:#505050;" d="M275.001,307.25c0,0,4.25,0.5,6.25,3s0.5,15.25-3.5,18.25C274.501,320.5,274.751,309,275.001,307.25z"></path><path style="fill:none;stroke:#000000;stroke-linecap:round;stroke-linejoin:round;" d="M281.483,308.5c0,0,0.5,11-4,18.25"></path></g></g><g><path style="fill:#6E6E6E;stroke:#000000;stroke-linecap:round;stroke-linejoin:round;" d="M250,375.5l-36.5-0.5c0,0,0,5.5,1.5,6.5c4,0.5,28.75,1.75,35,1.75s31-1.25,35-1.75c1.5-1,1.5-6.5,1.5-6.5L250,375.5z"></path><g><g><path style="fill:#6E6E6E;stroke:#000000;stroke-linecap:round;stroke-linejoin:round;" d="M282.75,344c0,0-7-32-7.25-35s-2-7.5-3-10.5c-0.25-1.5,1.25-8.75,1.75-11c-0.25-0.75-4.5-3.5-5.75-4c-1-1.75-3.5-2.75-4.5-2c-2,5-14,5.25-14,5.25s-12-0.25-14-5.25c-1-0.75-3.5,0.25-4.5,2c-1.25,0.5-5.5,3.25-5.75,4c0.5,2.25,2,9.5,1.75,11c-1,3-2.75,7.5-3,10.5s-7.25,35-7.25,35s-6.5,15.25-6.5,21.25s3,11,3,11l36.25,1.5l36.25-1.5c0,0,3-5,3-11S282.75,344,282.75,344z"></path></g><g><path style="fill:none;stroke:#000000;stroke-linecap:round;stroke-linejoin:round;" d="M233.767,286.25c0,0,3.5,5,12.75,5"></path><path style="fill:none;stroke:#000000;stroke-linecap:round;stroke-linejoin:round;" d="M266.233,286.25c0,0-3.5,5-12.75,5"></path></g><g><path style="fill:none;stroke:#000000;stroke-linecap:round;stroke-linejoin:round;" d="M282.75,344c0,0-6-10.25-7.25-14.5"></path><g><path style="fill:none;stroke:#000000;stroke-linecap:round;stroke-linejoin:round;" d="M217.375,344c0,0,6-10.25,7.25-14.5"></path></g></g></g></g></g></g></svg>