<svg xmlns="http://www.w3.org/2000/svg" width="500" height="500" version="1.1"><g id="x006"><g><path style="fill:#6E6E6E;stroke:#000000;stroke-linecap:round;stroke-linejoin:round;" d="M273.834,314.167c0,0,0.5-4.833,0-8.333s-3-9.167-3-9.167C259,295.5,250,303.334,250,303.334s-9-7.834-20.833-6.667c0,0-2.5,5.667-3,9.167s0,8.333,0,8.333s-1.333,3.001-1.333,3.667s0.833,2.166,0.833,2.166s6.667-0.333,24.333-0.333c17.666,0,24.334,0.333,24.334,0.333s0.832-1.5,0.832-2.166S273.834,314.167,273.834,314.167z"></path><path style="fill:#505050;" d="M254.5,308c-2-0.334-4.5,1.167-4.5,1.167s-2.5-1.501-4.5-1.167s-9.834,4.501-10,5.834c-0.167,1.333,14.5,0.666,14.5,0.666s14.666,0.667,14.5-0.666S256.5,308.334,254.5,308z"></path><g><path style="fill:none;stroke:#000000;stroke-linecap:round;stroke-linejoin:round;" d="M240.5,314.5c0,0,3.333,0.667,9.167-0.833"></path><path style="fill:none;stroke:#000000;stroke-linecap:round;stroke-linejoin:round;" d="M259.5,314.5c0,0-3.333,0.667-9.167-0.833"></path></g><g><path style="fill:#6E6E6E;stroke:#000000;stroke-linecap:round;stroke-linejoin:round;" d="M244.699,314.135c0,0,4.939-3.919,12.078-7.22c-0.242-1.483-0.753-2.803-1.144-2.712c-0.39,0.09-9.947,3.133-12.399,7.604C243.072,312.871,244.699,314.135,244.699,314.135z"></path><path style="fill:#6E6E6E;stroke:#000000;stroke-linecap:round;stroke-linejoin:round;" d="M255.3,314.135c0,0-4.941-3.919-12.077-7.22c0.242-1.483,0.753-2.803,1.144-2.712c0.39,0.09,9.947,3.133,12.399,7.604C256.928,312.871,255.3,314.135,255.3,314.135z"></path></g></g></g></svg>