<svg xmlns="http://www.w3.org/2000/svg" width="500" height="500" version="1.1"><g id="x060"><g><g><g><path style="fill:#6E6E6E;stroke:#000000;stroke-linecap:round;stroke-linejoin:round;" d="M230.75,283.75c0,0-4.5,2.75-9.25,8.75S209,321.75,209,321.75s-8.25,19-8.5,20.75c7,4,12,7.25,12,7.25s8.5-11.75,11.75-25C229.25,301.75,230.75,283.75,230.75,283.75z"></path><g><path style="fill:#505050;" d="M226.749,307.25c0,0-4.25,0.5-6.25,3s-0.5,15.25,3.5,18.25C227.249,320.5,226.999,309,226.749,307.25z"></path></g><path style="fill:none;stroke:#000000;stroke-linecap:round;stroke-linejoin:round;" d="M220.267,308.5c0,0-0.5,11,4,18.25"></path></g><g><path style="fill:#6E6E6E;stroke:#000000;stroke-linecap:round;stroke-linejoin:round;" d="M269.25,283.75c0,0,4.5,2.75,9.25,8.75s12.5,29.25,12.5,29.25s8.25,19,8.5,20.75c-7,4-12,7.25-12,7.25s-8.5-11.75-11.75-25C270.75,301.75,269.25,283.75,269.25,283.75z"></path><g><path style="fill:#505050;" d="M273.251,307.25c0,0,4.25,0.5,6.25,3s0.5,15.25-3.5,18.25C272.751,320.5,273.001,309,273.251,307.25z"></path></g><path style="fill:none;stroke:#000000;stroke-linecap:round;stroke-linejoin:round;" d="M279.733,308.5c0,0,0.5,11-4,18.25"></path></g></g><g><g><path style="fill:#FFFFFF;stroke:#000000;stroke-linecap:round;stroke-linejoin:round;" d="M281.947,346.75L250,348.5l-31.947-1.75c0,0-3.553,8.25-3.553,9.25c2.284,0,8.091,1,9.614,1.75c1.522,0.75,2.03,1.75,3.807,2.5s4.061,0.5,5.076,0s2.03-0.75,2.03-0.75s1.523,0.25,2.284,0.75s3.553,1.25,3.553,1.25s0.761,0,9.136,0s9.137,0,9.137,0s2.791-0.75,3.553-1.25s2.284-0.75,2.284-0.75s1.015,0.25,2.03,0.75s3.299,0.75,5.076,0c1.775-0.75,2.283-1.75,3.807-2.5c1.522-0.75,7.329-1.75,9.613-1.75C285.5,355,281.947,346.75,281.947,346.75z"></path><g><g><path style="fill:#DCDCDC;" d="M237,359.25l3.664,1.947c1.636,0,4.086,0.053,4.086,0.053S242.5,357.5,241,357S237,359.25,237,359.25z"></path><path style="fill:#DCDCDC;" d="M221,356.25c0,0,1.25,0,2.75,0.75s3.75,2.5,3.75,2.5s-0.5-5-2-6.25C224,353.5,221,356.25,221,356.25z"></path></g><g><path style="fill:#DCDCDC;" d="M263,359.25l-3.664,1.947c-1.636,0-4.086,0.053-4.086,0.053s2.25-3.75,3.75-4.25S263,359.25,263,359.25z"></path><path style="fill:#DCDCDC;" d="M279,356.25c0,0-1.25,0-2.75,0.75s-3.75,2.5-3.75,2.5s0.5-5,2-6.25C276,353.5,279,356.25,279,356.25z"></path></g></g></g><path style="fill:#6E6E6E;stroke:#000000;stroke-linecap:round;stroke-linejoin:round;" d="M275.5,324.75c0,0-1.25-13.5-1-19S270.25,293,270.25,293l-1.25-9.25c0,0-2.75-1.299-3.25-1.549c0,0,0.25,12.049-15.75,12.049s-15.75-12.049-15.75-12.049c-0.5,0.25-3.25,1.549-3.25,1.549l-1.25,9.25c0,0-4.5,7.25-4.25,12.75s-1,19-1,19s-5,15.5-6.25,22c7.5,5.75,31.75,4,31.75,4s24.25,1.75,31.75-4C280.5,340.25,275.5,324.75,275.5,324.75z"></path></g></g></g></svg>