<svg xmlns="http://www.w3.org/2000/svg" width="500" height="500" version="1.1"><g id="x061"><g><path style="fill:#6E6E6E;stroke:#000000;stroke-linecap:round;stroke-linejoin:round;" d="M285.41,361.001c0,0-2.414-11.729-3.446-13.146c-1.658-4.734-3.464-9.105-3.464-9.105h-57c0,0-1.806,4.372-3.464,9.106c-1.033,1.416-3.446,13.145-3.446,13.145s-1.834,2.999-1.667,4.166s1,5.372,1,5.372s5.174,1.06,7.612,1.122C227.331,372.311,236.632,373,250,373c13.368,0,22.67-0.689,28.466-1.339c2.438-0.063,7.612-1.122,7.612-1.122s0.832-4.205,1-5.372C287.244,364,285.41,361.001,285.41,361.001z"></path><g><g><path style="fill:#6E6E6E;stroke:#000000;stroke-linecap:round;stroke-linejoin:round;" d="M225.375,288.75c0,0-5.25,5.5-8,11.25s-7.5,21.5-7.5,21.5s-10,21.5-11.25,26.5c3.25,3.25,13.75,6.25,14.75,6.25c3.25-6,10.25-23.25,11-26.25c2.25-10.5,5.75-28.25,5.75-28.25L225.375,288.75z"></path><g><path style="fill:#505050;" d="M226.857,295.75c0,0-3.946,5.933-4.583,9.5c-0.636,3.569,2.858,7.082,3.743,7.305c3.272-3.938,4.625-9.38,4.625-9.38L226.857,295.75z"></path><path style="fill:none;stroke:#000000;stroke-linecap:round;stroke-linejoin:round;" d="M225.09,311.997c-4.088-4.327-3.43-11.788-3.43-11.788"></path></g></g><g><path style="fill:#6E6E6E;stroke:#000000;stroke-linecap:round;stroke-linejoin:round;" d="M274.625,288.75c0,0,5.25,5.5,8,11.25s7.5,21.5,7.5,21.5s10,21.5,11.25,26.5c-3.25,3.25-13.75,6.25-14.75,6.25c-3.25-6-10.25-23.25-11-26.25c-2.25-10.5-5.75-28.25-5.75-28.25L274.625,288.75z"></path><g><path style="fill:#505050;" d="M273.143,295.75c0,0,3.946,5.933,4.584,9.5c0.635,3.569-2.858,7.082-3.744,7.305c-3.271-3.938-4.625-9.38-4.625-9.38L273.143,295.75z"></path><path style="fill:none;stroke:#000000;stroke-linecap:round;stroke-linejoin:round;" d="M274.91,311.997c4.088-4.327,3.43-11.788,3.43-11.788"></path></g></g></g><path style="fill:#6E6E6E;stroke:#000000;stroke-linecap:round;stroke-linejoin:round;" d="M280.1,343.5c0,0-5.6-31.25-6.1-34.5s-2-9.25-2-9.25s2.75-7,2.25-11.5C271.75,285,262.5,281,262.5,281s0.898,16.614-12.5,16.824C236.602,297.614,237.5,281,237.5,281s-9.25,4-11.75,7.25c-0.5,4.5,2.25,11.5,2.25,11.5s-1.5,6-2,9.25s-6.1,34.5-6.1,34.5s-0.764,1.646-1.83,4c0,0,7.93,3,31.93,3s31.93-3,31.93-3C280.863,345.146,280.1,343.5,280.1,343.5z"></path><g><g><path style="fill:#FFFFFF;stroke:#000000;stroke-linecap:round;stroke-linejoin:round;" d="M244.725,301c0,0-1.167,8.333-2.5,29.167c-1.167,0.333-1.667-0.167-1.667-0.167s0.333-18,2.167-29C243.558,300.833,244.725,301,244.725,301z"></path><path style="fill:#FFFFFF;stroke:#000000;stroke-linecap:round;stroke-linejoin:round;" d="M240.767,324.938c0,0-1.125,1.188-0.813,1.875s1.25,0.938,2.625,0.875c0.938-1,0.875-2.188,0.313-2.5S240.767,324.938,240.767,324.938z"></path></g><g><path style="fill:#FFFFFF;stroke:#000000;stroke-linecap:round;stroke-linejoin:round;" d="M255.274,301c0,0,1.168,8.333,2.5,29.167c1.168,0.333,1.668-0.167,1.668-0.167s-0.334-18-2.168-29C256.442,300.833,255.274,301,255.274,301z"></path><path style="fill:#FFFFFF;stroke:#000000;stroke-linecap:round;stroke-linejoin:round;" d="M259.233,324.938c0,0,1.125,1.188,0.813,1.875s-1.25,0.938-2.625,0.875c-0.938-1-0.875-2.188-0.313-2.5S259.233,324.938,259.233,324.938z"></path></g></g></g></g></svg>