<svg xmlns="http://www.w3.org/2000/svg" width="500" height="500" version="1.1"><g id="x062"><g><g><g><path style="fill:#7D7D7D;stroke:#000000;stroke-linecap:round;stroke-linejoin:round;" d="M226.476,312.75c0,0-11-5-12-7.25c2.25-7.25,7.5-14.502,10.75-16.752c3.25,2.25,6.5,5.502,6.5,5.502L226.476,312.75z"></path><g><path style="fill:#61666A;" d="M229.476,294.5c0,0-4.339,3.433-4.976,7c-0.636,3.569,2.857,7.082,3.743,7.305c3.271-3.938,4.625-9.38,4.625-9.38L229.476,294.5z"></path><path style="fill:none;stroke:#000000;stroke-linecap:round;stroke-linejoin:round;" d="M227.565,310.247c-4.088-4.327-3.43-11.788-3.43-11.788"></path></g></g><g><path style="fill:#7D7D7D;stroke:#000000;stroke-linecap:round;stroke-linejoin:round;" d="M273.524,312.75c0,0,11-5,12-7.25c-2.25-7.25-7.5-14.502-10.75-16.752c-3.25,2.25-6.5,5.502-6.5,5.502L273.524,312.75z"></path><g><path style="fill:#61666A;" d="M270.524,294.5c0,0,4.339,3.433,4.977,7c0.635,3.569-2.858,7.082-3.744,7.305c-3.271-3.938-4.625-9.38-4.625-9.38L270.524,294.5z"></path><path style="fill:none;stroke:#000000;stroke-linecap:round;stroke-linejoin:round;" d="M272.435,310.247c4.088-4.327,3.43-11.788,3.43-11.788"></path></g></g></g><g><g><path style="fill:#6E6E6E;stroke:#000000;stroke-linecap:round;stroke-linejoin:round;" d="M284.249,351.75L250.001,353l-34.25-1.25c0,0-1.5,5.25-1.25,7.5c8.25,3.5,62.748,3.5,70.998,0C285.749,357,284.249,351.75,284.249,351.75z"></path><path style="fill:#6E6E6E;stroke:#000000;stroke-linecap:round;stroke-linejoin:round;" d="M284.499,347.5c0,0-7.75-17.25-8.5-20c0-5-1.75-17.75-2.25-21.5s-3.5-12.75-3.5-12.75L250.001,298l-20.25-4.75c0,0-3,9-3.5,12.75s-2.25,16.5-2.25,21.5c-0.75,2.75-8.5,20-8.5,20s-0.25,1.5,0.25,4.25c4.25,4.25,64.248,4.25,68.498,0C284.749,349,284.499,347.5,284.499,347.5z"></path></g></g></g></g></svg>