<svg xmlns="http://www.w3.org/2000/svg" width="500" height="500" version="1.1"><g id="x063"><g><g><g><path style="fill:#6E6E6E;stroke:#000000;stroke-linecap:round;stroke-linejoin:round;" d="M233.483,282.833c0,0-7.833,3.251-10.667,6.585s-9.5,15.248-9.5,15.248s4.417,5.085,14.917,8.085c5-10.667,7.917-20.751,7.917-20.751"></path><g><g><path style="fill:#505050;" d="M229.459,294.5c0,0-4.339,3.433-4.976,7c-0.636,3.569,2.857,7.082,3.743,7.305c3.271-3.938,4.625-9.38,4.625-9.38L229.459,294.5z"></path><path style="fill:none;stroke:#000000;stroke-linecap:round;stroke-linejoin:round;" d="M227.549,310.247c-4.088-4.327-3.43-11.788-3.43-11.788"></path></g></g></g><g><path style="fill:#6E6E6E;stroke:#000000;stroke-linecap:round;stroke-linejoin:round;" d="M266.519,282.833c0,0,7.833,3.251,10.666,6.585c2.834,3.334,9.5,15.248,9.5,15.248s-4.416,5.085-14.916,8.085c-5-10.667-7.917-20.751-7.917-20.751"></path><g><g><path style="fill:#505050;" d="M270.543,294.5c0,0,4.339,3.433,4.976,7c0.636,3.569-2.857,7.082-3.743,7.305c-3.271-3.938-4.625-9.38-4.625-9.38L270.543,294.5z"></path><path style="fill:none;stroke:#000000;stroke-linecap:round;stroke-linejoin:round;" d="M272.453,310.247c4.088-4.327,3.43-11.788,3.43-11.788"></path></g></g></g></g><g><path style="fill:#6E6E6E;stroke:#000000;stroke-linecap:round;stroke-linejoin:round;" d="M275.5,325.333c0-2.167-1-16.167-1.5-20.5S269.166,291,269.166,291l-5.332-8.667c0,0-2.501,5.886-9,10.834c-1.618,1.232-2.542,4.702-4.834,5.333c-0.276-0.076,0.35-3.166,0.083-3.25c-10.797-3.394-13.917-12.917-13.917-12.917L230.833,291c0,0-4.333,9.5-4.833,13.833s-1.5,18.333-1.5,20.5s-5.833,21.833-7.5,28.167c6.833,8.333,32.995,5.666,33,5.666c0.005,0,26.168,2.667,33-5.666C281.334,347.166,275.5,327.5,275.5,325.333z"></path><g><path style="fill:#FFFFFF;stroke:#000000;stroke-linecap:round;stroke-linejoin:round;" d="M245.333,293.166l4.667,2.167c-2.167,1.167-2.833,1.501-4.333,2.167C245.167,295.5,245.333,293.166,245.333,293.166z"></path><path style="fill:#FFFFFF;stroke:#000000;stroke-linecap:round;stroke-linejoin:round;" d="M254.701,293.166l-4.951,5.084c1.584,0.167,3.25-0.166,4.75,0.5C255,296.75,254.701,293.166,254.701,293.166z"></path><rect x="248.417" y="298.5" style="fill:#FFFFFF;stroke:#000000;stroke-linecap:round;stroke-linejoin:round;" width="3.167" height="12.417"></rect></g></g></g></g></svg>