<svg xmlns="http://www.w3.org/2000/svg" width="500" height="500" version="1.1"><g id="x064"><g><g><g><path style="fill:#6E6E6E;stroke:#000000;stroke-linecap:round;stroke-linejoin:round;" d="M227.764,286.334c0,0-6.5,4.666-10.25,14.166c-2.592,6.564-8.25,21.25-8.75,22s-6.75,6.5-6.5,7.5s0.25,6,0.5,6.75s14,6,14,6l10-19.75l5.25-28.25L227.764,286.334z"></path><path style="fill:#6E6E6E;stroke:#000000;stroke-linecap:round;stroke-linejoin:round;" d="M202.764,336.75c0,0-1.75,3.749-1.583,4.916c1.5,1.834,10.833,5.535,13.5,5.535c1.833-3,2.5-4.868,2.5-4.868L202.764,336.75z"></path><g><g><path style="fill:#505050;" d="M229.473,294.5c0,0-4.339,3.433-4.976,7c-0.636,3.569,2.857,7.082,3.743,7.305c3.271-3.938,4.625-9.38,4.625-9.38L229.473,294.5z"></path><path style="fill:none;stroke:#000000;stroke-linecap:round;stroke-linejoin:round;" d="M227.563,310.247c-4.088-4.327-3.43-11.788-3.43-11.788"></path></g></g></g><g><path style="fill:#6E6E6E;stroke:#000000;stroke-linecap:round;stroke-linejoin:round;" d="M272.237,286.334c0,0,6.5,4.666,10.25,14.166c2.591,6.564,8.25,21.25,8.75,22s6.75,6.5,6.5,7.5s-0.25,6-0.5,6.75s-14,6-14,6l-10-19.75l-5.25-28.25L272.237,286.334z"></path><path style="fill:#6E6E6E;stroke:#000000;stroke-linecap:round;stroke-linejoin:round;" d="M297.237,336.75c0,0,1.749,3.749,1.583,4.916c-1.5,1.834-10.834,5.535-13.5,5.535c-1.833-3-2.5-4.868-2.5-4.868L297.237,336.75z"></path><g><g><path style="fill:#505050;" d="M270.528,294.5c0,0,4.339,3.433,4.976,7c0.636,3.569-2.857,7.082-3.743,7.305c-3.271-3.938-4.625-9.38-4.625-9.38L270.528,294.5z"></path><path style="fill:none;stroke:#000000;stroke-linecap:round;stroke-linejoin:round;" d="M272.438,310.247c4.088-4.327,3.43-11.788,3.43-11.788"></path></g></g></g></g><g><g><path style="fill:#6E6E6E;stroke:#000000;stroke-linecap:round;stroke-linejoin:round;" d="M284.25,356.25c0,0-1-10.25-2.25-14s-4.75-12.25-5.75-14.75s-1-16-1.75-20.25s-2-7.5-3.25-9.75c1.25-2.25,2.416-10.083,2.416-10.083s-3.416-3.916-8.166-5.666c-2.5,7.25-15.5,6.999-15.5,6.999s-13,0.251-15.5-6.999c-4.75,1.75-8.167,5.666-8.167,5.666s1.167,7.833,2.417,10.083c-1.25,2.25-2.5,5.5-3.25,9.75s-0.75,17.75-1.75,20.25s-4.5,11-5.75,14.75s-2.25,14-2.25,14s-2,2.25-2,3.75s2,5.5,2,5.5s2.5,2.75,34.25,2.75s34.25-2.75,34.25-2.75s2-4,2-5.5S284.25,356.25,284.25,356.25z"></path><path style="fill:#505050;" d="M250,354.351c0,0-19.679-0.323-24.334,1.831c3.457,1.401,14.229,2.802,24.334,3.125c10.105-0.323,20.877-1.724,24.334-3.125C269.68,354.027,250,354.351,250,354.351z"></path></g><path style="fill:none;stroke:#000000;stroke-linecap:round;stroke-linejoin:round;" d="M223.75,327.5c0,0,2.833-4.5,4-10.167"></path><g><path style="fill:none;stroke:#000000;stroke-linecap:round;stroke-linejoin:round;" d="M276.25,327.5c0,0-2.833-4.5-4-10.167"></path></g></g></g></g></svg>