<svg xmlns="http://www.w3.org/2000/svg" width="500" height="500" version="1.1"><g id="x065"><g><g><path style="fill:#6E6E6E;stroke:#000000;stroke-linecap:round;stroke-linejoin:round;" d="M239.417,280.666c0,0-3.167,11-3.333,20.334c-1.667,1-5.5,1.333-5.5,1.333s1.667-11,4.833-20.167C236.917,280.5,239.417,280.666,239.417,280.666z"></path><path style="fill:#6E6E6E;stroke:#000000;stroke-linecap:round;stroke-linejoin:round;" d="M260.584,280.666c0,0,3.166,11,3.333,20.334c1.667,1,5.499,1.333,5.499,1.333s-1.666-11-4.832-20.167C263.084,280.5,260.584,280.666,260.584,280.666z"></path></g><g><path style="fill:#6E6E6E;stroke:#000000;stroke-linecap:round;stroke-linejoin:round;" d="M275.332,326.166c0,0-0.824-5.206-1.166-10.833c0.668-2.167,0.668-10.833-1.332-12.833c-1.412-2.343-4.146-3.584-6.334-4.334c-8.666,0.834-16.5,7.5-16.5,7.5s-7.833-6.666-16.5-7.5c-2.188,0.75-4.923,1.991-6.333,4.334c-2,2-2,10.666-1.333,12.833c-0.342,5.627-1.167,10.833-1.167,10.833s-7.333,20.167-10.5,24.334c2.333,4.334,6.833,3.5,6.833,3.5s-0.333-2,0.833-2c3.5,3.667,13.167,4.666,13.167,4.666s0.833-0.333,1.667-0.833c4.333,1.5,13.333,2,13.333,2s9-0.5,13.332-2c0.834,0.5,1.668,0.833,1.668,0.833s9.666-0.999,13.166-4.666c1.168,0,0.834,2,0.834,2s4.5,0.834,6.832-3.5C282.666,346.333,275.332,326.166,275.332,326.166z"></path><path style="fill:#505050;" d="M265.666,317.833c0,0,0.166,6.833,0.834,8.333c0.666,1.5,2.666,5,2.666,5l-1-4.666l1.5-8.667H265.666z"></path><path style="fill:#505050;" d="M278.834,351.666c0,0-3-8.499-2.334-8.166s6.166,9.666,6.166,9.666s-2.832,0.666-3.332,0.5C279.5,353.333,278.834,351.666,278.834,351.666z"></path><path style="fill:#6E6E6E;stroke:#000000;stroke-linecap:round;stroke-linejoin:round;" d="M253.834,315.5c2.166,0.334,9.832,2.833,15.832,2.333c2.168-0.167,4.834-2.333,4.834-2.333"></path><path style="fill:#6E6E6E;stroke:#000000;stroke-linecap:round;stroke-linejoin:round;" d="M269.332,319c0,0-1.166,7.167-1,8.167c0.168,1,1.668,6.166,1.668,6.166"></path><path style="fill:#505050;" d="M234.334,317.833c0,0-0.167,6.833-0.833,8.333s-2.667,5-2.667,5l1-4.666l-1.5-8.667H234.334z"></path><path style="fill:#505050;" d="M221.167,351.666c0,0,3-8.499,2.333-8.166s-6.167,9.666-6.167,9.666s2.833,0.666,3.333,0.5C220.5,353.333,221.167,351.666,221.167,351.666z"></path><path style="fill:#6E6E6E;stroke:#000000;stroke-linecap:round;stroke-linejoin:round;" d="M246.167,315.5c-2.167,0.334-9.833,2.833-15.833,2.333c-2.167-0.167-4.833-2.333-4.833-2.333"></path><path style="fill:#6E6E6E;stroke:#000000;stroke-linecap:round;stroke-linejoin:round;" d="M230.667,319c0,0,1.167,7.167,1,8.167S230,333.333,230,333.333"></path></g></g></g></svg>