<svg xmlns="http://www.w3.org/2000/svg" width="500" height="500" version="1.1"><g id="x066"><g><path style="fill:#6E6E6E;stroke:#000000;stroke-linecap:round;stroke-linejoin:round;" d="M275.834,326.666c-0.834-8.833-1.771-19.534-2.3-22.5c-0.534-3-4.034-10.333-4.034-10.333s-1-9.833-1.5-10.333s-5.166-1.966-5.166-1.966S266,300.833,250,300.833s-12.833-19.299-12.833-19.299S232.5,283,232,283.5s-1.5,10.333-1.5,10.333s-3.5,7.333-4.034,10.333c-0.528,2.966-1.466,13.667-2.299,22.5c-2.833,7.667-5.757,16.158-7.167,22.167c7.833,5.667,33,5.667,33,5.667s25.167,0,33-5.667C281.591,342.824,278.667,334.333,275.834,326.666z"></path><path d="M278.933,336.834c0,0-3.307,4.834-28.934,4.834c-25.625,0-28.932-4.834-28.932-4.834l-1.984,6.167c3.968,5.333,30.916,5.5,30.916,5.5s26.95-0.167,30.918-5.5L278.933,336.834z"></path><path style="fill:#FFFFFF;" d="M266.542,283.333c0,0-0.583-0.249-1-0.333C267.167,306.876,250,305.459,250,305.459s-17.167,1.417-15.542-22.459c-0.417,0.084-1,0.333-1,0.333s-3.875,23.085,16.542,23.626C270.417,306.418,266.542,283.333,266.542,283.333z"></path></g></g></svg>