<svg xmlns="http://www.w3.org/2000/svg" width="500" height="500" version="1.1"><g id="x067"><g><path style="fill:#6E6E6E;stroke:#000000;stroke-linecap:round;stroke-linejoin:round;" d="M280.75,343.5c0,0-3.167-11.167-4.667-14.917c-0.25-5.667-0.383-14.208-1.633-21.958c-0.636-3.938-3.149-10.875-3.149-10.875s2.199-7.799,1.449-9.549c-4.75-4-11.5-5.453-11.5-5.453s2,3.002,2.25,4.502s-0.25,10-13.5,17.5c-13.25-7.5-13.75-16-13.5-17.5s2.25-4.502,2.25-4.502s-6.75,1.453-11.5,5.453c-0.75,1.75,1.45,9.549,1.45,9.549s-2.515,6.938-3.15,10.875c-1.25,7.75-1.383,16.291-1.633,21.958c-1.5,3.75-4.667,14.917-4.667,14.917s-3.667,5.416-4.167,8.416c-0.167,1.333,2.667,3.584,5.917,4.834c3.242,1.247,29,3,29,3s25.758-1.753,29-3c3.25-1.25,6.083-3.501,5.916-4.834C284.416,348.916,280.75,343.5,280.75,343.5z"></path><path style="fill:#505050;" d="M276.301,330.301c0,0-3.25,13.75-2,14.75s5.75-0.75,5.75-0.75S278.301,335.551,276.301,330.301z"></path><path d="M272.375,292c0,0-1.875-1.5-9.25-3.375c0.375-1.5,0.25-4.5,0.25-4.5s7.25,2.625,9.375,4.25C272.625,290.125,272.375,292,272.375,292z"></path><path style="fill:none;stroke:#000000;stroke-linecap:round;stroke-linejoin:round;" d="M276,326.75c0,0-0.5,9.5-1.25,12.75"></path><path style="fill:#505050;" d="M223.7,330.301c0,0,3.25,13.75,2,14.75s-5.75-0.75-5.75-0.75S221.7,335.551,223.7,330.301z"></path><path d="M227.625,292c0,0,1.875-1.5,9.25-3.375c-0.375-1.5-0.25-4.5-0.25-4.5s-7.25,2.625-9.375,4.25C227.375,290.125,227.625,292,227.625,292z"></path><path style="fill:none;stroke:#000000;stroke-linecap:round;stroke-linejoin:round;" d="M224,326.75c0,0,0.5,9.5,1.25,12.75"></path></g></g></svg>