<svg xmlns="http://www.w3.org/2000/svg" width="500" height="500" version="1.1"><g id="x068"><g><g><g><path style="fill:#6E6E6E;stroke:#000000;stroke-linecap:round;stroke-linejoin:round;" d="M228.5,285.333c0,0-4.667,3-6.833,6.167c-2.167,3.167-8.167,13.833-8.167,13.833s3.167,5.168,14.5,7.334c4-15,5-18.667,5-18.667L228.5,285.333z"></path><g><g><path style="fill:#505050;" d="M229.14,294.5c0,0-4.339,3.433-4.976,7c-0.636,3.569,2.857,7.082,3.743,7.305c3.271-3.938,4.625-9.38,4.625-9.38L229.14,294.5z"></path><path style="fill:none;stroke:#000000;stroke-linecap:round;stroke-linejoin:round;" d="M227.229,310.247c-4.088-4.327-3.43-11.788-3.43-11.788"></path></g></g></g><g><path style="fill:#6E6E6E;stroke:#000000;stroke-linecap:round;stroke-linejoin:round;" d="M271.5,285.333c0,0,4.668,3,6.834,6.167s8.166,13.833,8.166,13.833s-3.166,5.168-14.5,7.334c-4-15-5-18.667-5-18.667L271.5,285.333z"></path><g><g><path style="fill:#505050;" d="M270.861,294.5c0,0,4.339,3.433,4.976,7c0.636,3.569-2.857,7.082-3.743,7.305c-3.271-3.938-4.625-9.38-4.625-9.38L270.861,294.5z"></path><path style="fill:none;stroke:#000000;stroke-linecap:round;stroke-linejoin:round;" d="M272.771,310.247c4.088-4.327,3.43-11.788,3.43-11.788"></path></g></g></g></g><g><path style="fill:#6E6E6E;stroke:#000000;stroke-linecap:round;stroke-linejoin:round;" d="M275.832,325.833c0,0-0.498-16.833-1.832-21.333s-3.668-10.833-3.668-10.833l1-8.334c0,0-3.498-2.832-6.832-3.166c0,0-1.834,11.167-14.5,15.5c-12.666-4.333-14.5-15.5-14.5-15.5c-3.333,0.334-6.833,3.166-6.833,3.166l1,8.334c0,0-2.333,6.333-3.667,10.833c-1.333,4.5-1.833,21.333-1.833,21.333S219,341.5,217.5,348.667c8.833,6.167,32.5,6.5,32.5,6.5s23.666-0.333,32.5-6.5C281,341.5,275.832,325.833,275.832,325.833z"></path><g><rect x="248.333" y="298" style="fill:#FFFFFF;stroke:#000000;stroke-linecap:round;stroke-linejoin:round;" width="3.334" height="13.834"></rect><g><path style="fill:#FFFFFF;stroke:#000000;stroke-linecap:round;stroke-linejoin:round;" d="M248.333,298c0,0,3.833-4,4.667-6.333c2.333-0.333,5.833,1,5.833,1l-7.333,7.166"></path><path style="fill:#FFFFFF;stroke:#000000;stroke-linecap:round;stroke-linejoin:round;" d="M249.333,297.667c-0.5-0.167-2.268-6.366-2.268-6.366l-4.232,2.532l6,5.5"></path></g></g></g></g></g></svg>