<svg xmlns="http://www.w3.org/2000/svg" width="500" height="500" version="1.1"><g id="x069"><g><path style="fill:#FFFFFF;stroke:#000000;stroke-width:1.021;stroke-linecap:round;stroke-linejoin:round;" d="M283.1,347.75L250,350l-33.1-2.25c0,0-2.346,6.75-1.824,10c6.255,2.25,15.377,4,34.924,4c19.547,0,28.669-1.75,34.925-4C285.445,354.5,283.1,347.75,283.1,347.75z"></path><path style="fill:#666666;stroke:#000000;stroke-linecap:round;stroke-linejoin:round;" d="M265.25,282.25c1.5,5.75,1,11.25,1,11.25s-6,3.25-16.25,3.25s-16.25-3.25-16.25-3.25s-0.5-5.5,1-11.25c-4.75,1.5-10.5,5.5-15,14.25c4.5,3.75,8.25,10.75,8.25,10.75l22,2.75l22-2.75c0,0,3.75-7,8.25-10.75C275.75,287.75,270,283.75,265.25,282.25z"></path><path style="fill:#6E6E6E;stroke:#000000;stroke-linecap:round;stroke-linejoin:round;" d="M278.75,339c-0.25-1.5-3.5-14-3.5-14s-1.25-15.25-1.5-19.5s-1.75-7-3.5-9.75c-1-1.5-3.5-12.85-3.5-12.85l-4.5-1.9c0,0,3.5,19.25-2,23c-1.852,1.254-10.25,1.25-10.25,1.25s-8.399,0.004-10.25-1.25c-5.5-3.75-2-23-2-23l-4.5,1.9c0,0-2.5,11.35-3.5,12.85c-1.75,2.75-3.25,5.5-3.5,9.75s-1.5,19.5-1.5,19.5s-3.25,12.5-3.5,14c-1.5,2.75-4.5,7.5-4.25,8.5s7,5,33,5s32.75-4,33-5S280.25,341.75,278.75,339z"></path></g></g></svg>