<svg xmlns="http://www.w3.org/2000/svg" width="500" height="500" version="1.1"><g id="x007"><g><g><path style="fill:#505050;stroke:#000000;stroke-linecap:round;stroke-linejoin:round;" d="M225.444,315.801c0,0-4.679,4.529-4.159,5.419c1.708,1.264,5.217,1.301,5.217,1.301l1.54-4.641L225.444,315.801z"></path><path style="fill:#505050;stroke:#000000;stroke-linecap:round;stroke-linejoin:round;" d="M274.557,315.801c0,0,4.678,4.529,4.158,5.419c-1.708,1.264-5.217,1.301-5.217,1.301l-1.54-4.642L274.557,315.801z"></path><path style="fill:#6E6E6E;stroke:#000000;stroke-linecap:round;stroke-linejoin:round;" d="M274.429,317.999c0.407-2.043,1.294-5.689,1.077-8.287c-0.223-2.674-2.673-9.355-2.673-9.355c-0.019-0.008-0.042-0.016-0.061-0.023c0.545-0.287,1.695-1.025,2.232-2.594c-1.504-2.116-4.009-2.618-4.733-2.618c-0.724,0-1.392,1.504-1.949,1.504c-0.557,0-0.946-0.278-0.946-0.278l0.557-1.393c0,0-0.928-1.41-2.766-1.354s-1.894,1.577-2.672,1.634c-0.78,0.056-3.139-2.395-6.313-2.172c-3.175,0.223-3.508,2.172-3.508,2.172l-1.393-0.502l-1.169,1.226l-1.17-1.226l-1.392,0.502c0,0-0.334-1.949-3.509-2.172c-3.174-0.223-5.624,3.007-6.403,2.951c-0.78-0.056-0.725-1.281-2.562-1.337c-1.838-0.056-2.785,0.278-2.785,0.278l0.557,1.393c0,0-0.39,0.278-0.946,0.278s-1.225-1.504-1.949-1.504c-0.724,0-3.229,0.502-4.733,2.618c0.538,1.568,1.688,2.307,2.232,2.594c-0.019,0.008-0.041,0.016-0.061,0.023c0,0-2.45,6.682-2.673,9.355c-0.216,2.598,0.67,6.244,1.078,8.287c-0.914,1.138-1.16,3.685-0.874,3.89c0.39,0.278,0.687,0.464,1.578,0.632c-0.056-0.446,0.501-1.114,0.501-1.114s3.118-1.504,4.399-0.39c-0.111,0.779,0,1.336,0,1.336s1.559,0.669,2.283,0.391c0.724-0.278,0.946-1.782,0.946-1.782s1.651-1.188,3.879-0.186c0.111,0.946,2.358,1.521,2.358,1.521l2.617-1.671c0,0,3.453-0.835,4.9,0.558c1.17,1.225,2.283,1.225,3.453,0c1.446-1.393,4.899-0.558,4.899-0.558l2.617,1.671c0,0,0.278-0.779,0.39-1.727c2.228-1.002,4.827-1.28,5.719-0.761c0.365,0.214,0.94,1.453,1.56,1.931c0.885,0.684,1.8,0.612,1.8,0.612s0.111-0.557,0-1.336c1.28-1.114,4.398,0.39,4.398,0.39s0.557,0.668,0.501,1.114c0.892-0.168,1.3-0.427,1.69-0.706C275.7,321.609,274.671,319.735,274.429,317.999z M258.009,309.969c-1.113,2.731-3.09,4.517-7.933,4.517s-6.82-1.785-7.934-4.516c-1.113-2.729,0.929-7.739,3.805-9.987c0.556,1.498,1.206,2.676,1.206,2.676c0.835-0.428,2.923-0.375,2.923-0.375s2.088-0.053,2.922,0.375c0,0,0.649-1.178,1.206-2.676C257.081,302.23,259.122,307.24,258.009,309.969z"></path><path style="fill:#505050;" d="M247.904,295.679l1.002-0.223c0,0,0.334,0.891,1.002,1.002c0.669,0.111,1.561-1.002,1.561-1.002c0.229,0.033,0.949-0.288,0.891,0.334c-0.141,1.488-1.6,4.69-2.229,4.454C249.24,299.91,247.904,295.679,247.904,295.679z"></path><path style="fill:#505050;" d="M239.477,320.181c0,0,1.782-3.267,3.268-3.563c1.484-0.297,0.297,3.268,0.297,3.268s-0.594,1.484-1.782,1.484C240.071,321.369,239.477,320.181,239.477,320.181z"></path><path style="fill:#505050;" d="M241.556,315.429c0,0-6.608-0.742-7.425,0.298c0-2.079-2.376-5.05-1.188-5.05c1.188,0,2.376,1.485,3.563,1.485c1.188,0,2.97-2.079,3.861-1.782C241.259,310.677,241.556,315.429,241.556,315.429z"></path><path style="fill:#505050;" d="M227.745,301.136c0,0-2.494,7.721-2.45,9.579c0.056,2.338,1.059,6.627,1.059,6.627s4.176-2.396,4.789-2.563c-0.334-0.892-0.446-3.563-0.836-3.786s-2.506,2.004-2.617,1.837s-0.779-2.171-0.779-3.563S227.745,301.136,227.745,301.136z"></path><path style="fill:#505050;" d="M272.539,301.136c0,0,2.494,7.721,2.45,9.579c-0.056,2.338-1.059,6.627-1.059,6.627s-4.176-2.396-4.789-2.563c0.335-0.892,0.446-3.563,0.836-3.786s2.506,2.004,2.617,1.837s0.779-2.171,0.779-3.563S272.539,301.136,272.539,301.136z"></path><path style="fill:none;stroke:#000000;stroke-linecap:round;stroke-linejoin:round;" d="M234.501,318.696c0,0,0.521-2.005,1.932-2.896c1.263,0,3.044,0.073,3.044,0.073"></path><path style="fill:none;stroke:#000000;stroke-linecap:round;stroke-linejoin:round;" d="M225.518,318.845c0,0,3.342-3.193,5.347-3.267c0.891,0.371,1.559,1.113,1.559,1.113"></path><path style="fill:none;stroke:#000000;stroke-linecap:round;stroke-linejoin:round;" d="M233.314,316.766c0,0,0.742,0.668,1.782,0.297"></path><path style="fill:none;stroke:#000000;stroke-linecap:round;stroke-linejoin:round;" d="M238.271,297.071c0,0,0.501,1.336,1.225,1.671"></path><path style="fill:none;stroke:#000000;stroke-linecap:round;stroke-linejoin:round;" d="M229.416,300.635c0,0,4.622-1.336,7.351-1.058c0,0-1.113,1.002-1.447,1.225"></path><path style="fill:none;stroke:#000000;stroke-linecap:round;stroke-linejoin:round;" d="M257.371,298.407c0.223,0.168,6.348,0.279,8.854,1.392"></path><path style="fill:none;stroke:#000000;stroke-linecap:round;stroke-linejoin:round;" d="M252.973,295.121c-0.057,0.168-1.17,2.34-1.17,2.34"></path><line style="fill:none;stroke:#000000;stroke-linecap:round;stroke-linejoin:round;" x1="247.459" y1="296.235" x2="248.685" y2="298.407"></line></g><path style="fill:none;stroke:#000000;stroke-linecap:round;stroke-linejoin:round;" d="M265.761,320.107c0,0-0.742-2.525-1.336-3.193c-0.595-0.668-3.489-0.297-3.935-0.297"></path><path style="fill:none;stroke:#000000;stroke-linecap:round;stroke-linejoin:round;" d="M251.208,321.295c0,0,0.892-2.524,2.006-3.341"></path><path style="fill:#505050;" d="M267.098,314.241c0,0-9.504,0.297-11.583,0.297c3.563-2.376,4.455-5.049,4.455-5.049s1.485,1.783,3.564,2.078c2.078,0.298,4.157-1.188,4.157-1.188L267.098,314.241z"></path></g></g></svg>