<svg xmlns="http://www.w3.org/2000/svg" width="500" height="500" version="1.1"><g id="x070"><g><g><path style="fill:#FFFFFF;stroke:#000000;stroke-linecap:round;stroke-linejoin:round;" d="M259,294.5c0,0-2.75,4.25-4,7c-1.25-3.5-5-7.25-5-7.25s-3.75,3.75-5,7.25c-1.25-2.75-4-7-4-7s-4.25,3.25-5.75,6.75c2.25,6.75,6,23.5,14.75,27.25c8.75-3.75,12.5-20.5,14.75-27.25C263.25,297.75,259,294.5,259,294.5z"></path><path style="fill:#C8C8C8;" d="M240,307.5c4.5,8.75,10,18.25,10,18.25s5.5-9.5,10-18.25C253.75,311.5,246.25,311.5,240,307.5z"></path></g><path style="fill:#6E6E6E;stroke:#000000;stroke-linecap:round;stroke-linejoin:round;" d="M277.75,335.75c-2-9.5-2.5-11-2.5-11s-0.15-12-1.15-17s-3.35-10-3.35-10s-2.5-13.25-3-15c-1.75-1.25-5.75-1.5-5.75-1.5l2.5,19l-14.5,25.5l-14.5-25.5l2.5-19c0,0-4,0.25-5.75,1.5c-0.5,1.75-3,15-3,15s-2.35,5-3.35,10s-1.15,17-1.15,17s-0.5,1.5-2.5,11c-5.25,9-9.5,25.25-8,39.75c2-9.75,11.25-23.5,11.25-23.5l11,24l13.5-25.5l13.5,25.5l11-24c0,0,9.25,13.75,11.25,23.5C287.25,361,283,344.75,277.75,335.75z"></path></g></g></svg>