<svg xmlns="http://www.w3.org/2000/svg" width="500" height="500" version="1.1"><g id="x071"><g><g><g><path style="fill:#6E6E6E;stroke:#000000;stroke-linecap:round;stroke-linejoin:round;" d="M232.029,283.083c0,0-7.25,4.25-10.917,10.542c-3.109,5.335-6.375,12.375-6.375,12.375s-3.25,7.375-6.375,18.125c-2.75,4.625-6.5,15.125-6.5,15.125s-3.375,2.25-3.875,4.25c0,2.875,0.25,6.25,0.25,6.25l12.375,5.75c0,0,3.5-1.5,4.75-4.25s2-6.75,3.25-9s7.75-14.75,8.5-19.25s7.5-36,7.5-36L232.029,283.083z"></path><g><g><path style="fill:#505050;" d="M229.002,294.5c0,0-4.339,3.433-4.976,7c-0.636,3.569,2.857,7.082,3.743,7.305c3.271-3.938,4.625-9.38,4.625-9.38L229.002,294.5z"></path><path style="fill:none;stroke:#000000;stroke-linecap:round;stroke-linejoin:round;" d="M227.092,310.247c-4.088-4.327-3.43-11.788-3.43-11.788"></path></g></g><path style="fill:#FFFFFF;stroke:#000000;stroke-linecap:round;stroke-linejoin:round;" d="M196.487,353.25l2.625-5.5c0,0,8.875,2.875,12.125,6.25c-1.25,3.5-2.375,5.375-2.375,5.375S199.237,354.625,196.487,353.25z"></path></g><g><path style="fill:#6E6E6E;stroke:#000000;stroke-linecap:round;stroke-linejoin:round;" d="M267.969,283.083c0,0,7.25,4.25,10.917,10.542c3.109,5.335,6.375,12.375,6.375,12.375s3.25,7.375,6.375,18.125c2.75,4.625,6.5,15.125,6.5,15.125s3.375,2.25,3.875,4.25c0,2.875-0.25,6.25-0.25,6.25l-12.375,5.75c0,0-3.5-1.5-4.75-4.25s-2-6.75-3.25-9s-7.75-14.75-8.5-19.25s-7.5-36-7.5-36L267.969,283.083z"></path><g><g><path style="fill:#505050;" d="M270.996,294.5c0,0,4.339,3.433,4.976,7c0.636,3.569-2.857,7.082-3.743,7.305c-3.271-3.938-4.625-9.38-4.625-9.38L270.996,294.5z"></path><path style="fill:none;stroke:#000000;stroke-linecap:round;stroke-linejoin:round;" d="M272.906,310.247c4.088-4.327,3.43-11.788,3.43-11.788"></path></g></g><path style="fill:#FFFFFF;stroke:#000000;stroke-linecap:round;stroke-linejoin:round;" d="M303.511,353.25l-2.625-5.5c0,0-8.875,2.875-12.125,6.25c1.25,3.5,2.375,5.375,2.375,5.375S300.761,354.625,303.511,353.25z"></path></g></g><g><g><path style="fill:#6E6E6E;stroke:#000000;stroke-linecap:round;stroke-linejoin:round;" d="M277.887,335.75c0,0-3-9.25-2.5-12.5s-0.5-13.5-1.5-18.25s-4.75-13-4.75-13l-1.167-8.917l-4.083-1.583c0,0-4.959,12.143-13.886,12.245c-8.928-0.103-13.888-12.245-13.888-12.245l-4.083,1.583L230.863,292c0,0-3.75,8.25-4.75,13s-2,15-1.5,18.25s-2.5,12.5-2.5,12.5l-6.5,11.25c0,0,0.75,5,1.5,6.5c1.905,3.334,30.096,4.398,32.775,4.492c0,0.001,0,0.008,0,0.008s0.043-0.001,0.112-0.004c0.069,0.003,0.112,0.004,0.112,0.004s0-0.007,0-0.008c2.68-0.094,30.868-1.158,32.773-4.492c0.75-1.5,1.5-6.5,1.5-6.5L277.887,335.75z"></path><path style="fill:#505050;" d="M250,319.5c0,0-5.25-0.5-7.25,1.25c1.75,2.5,7.25,2.75,7.25,2.75s5.5-0.25,7.25-2.75C255.25,319,250,319.5,250,319.5z"></path><path style="fill:#505050;" d="M250,336.25c0,0-5.25-0.5-7.25,1.25c1.75,2.5,7.25,2.75,7.25,2.75s5.5-0.25,7.25-2.75C255.25,335.75,250,336.25,250,336.25z"></path><path style="fill:#505050;" d="M250,353c0,0-5.25-0.5-7.25,1.25c1.75,2.5,7.25,2.75,7.25,2.75s5.5-0.25,7.25-2.75C255.25,352.5,250,353,250,353z"></path><path style="fill:#505050;" d="M250,302.25c0,0-5.25-0.5-7.25,1.25c1.75,2.5,7.25,2.75,7.25,2.75s5.5-0.25,7.25-2.75C255.25,301.75,250,302.25,250,302.25z"></path><g><line style="fill:none;stroke:#000000;stroke-linecap:round;stroke-linejoin:round;" x1="247.113" y1="296.5" x2="247.113" y2="357.75"></line><line style="fill:none;stroke:#000000;stroke-linecap:round;stroke-linejoin:round;" x1="252.887" y1="296.5" x2="252.887" y2="357.75"></line></g></g></g><g><circle style="fill:#8C8C8C;stroke:#000000;stroke-linecap:round;stroke-linejoin:round;" cx="250" cy="303.72" r="2.25"></circle><circle style="fill:#8C8C8C;stroke:#000000;stroke-linecap:round;stroke-linejoin:round;" cx="250" cy="320.97" r="2.25"></circle><circle style="fill:#8C8C8C;stroke:#000000;stroke-linecap:round;stroke-linejoin:round;" cx="250" cy="338.22" r="2.25"></circle><circle style="fill:#8C8C8C;stroke:#000000;stroke-linecap:round;stroke-linejoin:round;" cx="250" cy="355.47" r="2.25"></circle></g></g></g></svg>