<svg xmlns="http://www.w3.org/2000/svg" width="500" height="500" version="1.1"><g id="x072"><g><g><g><path style="fill:#6E6E6E;stroke:#000000;stroke-linecap:round;stroke-linejoin:round;" d="M228.441,315.001c0,0-9.792-2.75-15.167-9c0.625-2.375,8.333-16.167,15.792-20.876c1.625,6,5.125,10,5.125,10L228.441,315.001z"></path><g><g><path style="fill:#505050;" d="M228.943,294.5c0,0-4.339,3.433-4.976,7c-0.636,3.569,2.857,7.082,3.743,7.305c3.271-3.938,4.625-9.38,4.625-9.38L228.943,294.5z"></path><path style="fill:none;stroke:#000000;stroke-linecap:round;stroke-linejoin:round;" d="M227.033,310.247c-4.088-4.327-3.43-11.788-3.43-11.788"></path></g></g></g><g><path style="fill:#6E6E6E;stroke:#000000;stroke-linecap:round;stroke-linejoin:round;" d="M271.558,315.001c0,0,9.792-2.75,15.167-9c-0.625-2.375-8.334-16.167-15.792-20.876c-1.625,6-5.125,10-5.125,10L271.558,315.001z"></path><g><g><path style="fill:#505050;" d="M271.056,294.5c0,0,4.339,3.433,4.976,7c0.636,3.569-2.857,7.082-3.743,7.305c-3.271-3.938-4.625-9.38-4.625-9.38L271.056,294.5z"></path><path style="fill:none;stroke:#000000;stroke-linecap:round;stroke-linejoin:round;" d="M272.966,310.247c4.088-4.327,3.43-11.788,3.43-11.788"></path></g></g></g></g><g><g><path style="fill:#6E6E6E;stroke:#000000;stroke-linecap:round;stroke-linejoin:round;" d="M284.191,350c-0.75-1.75-3.25-7-3.25-7s-3.25-12.165-5.334-16.916c-0.584-6.582-0.416-16.084-1.416-20.084s-4-11.416-4-11.416s0.75-5.083,1-9.417c-2.084-1.916-6-3.417-6-3.417l-5.168,5.417l-10.082,5.167l-10.083-5.167l-5.167-5.417c0,0-3.917,1.501-6,3.417c0.25,4.334,1,9.417,1,9.417s-3,7.416-4,11.416s-0.833,13.502-1.417,20.084c-2.083,4.751-5.333,16.916-5.333,16.916s-2.5,5.25-3.25,7s1,5,1,5s6.5,5,33.25,5c26.75,0,33.25-5,33.25-5S284.941,351.75,284.191,350z"></path><polygon style="fill:#505050;" points="254.667,289.75 250,292.5 245.333,289.75 239.25,299.417 246.75,294.167 250,294.583 253.25,294.167 260.75,299.417 "></polygon><g><g><path style="fill:#505050;" d="M216.192,351.167c0,0,0.334,2.699,1.167,3.699s15.666,5.302,26.333,4.635c-8-3.834-9.833-9.167-9.833-9.167l-4.167,4.833C229.692,355.167,218.358,354,216.192,351.167z"></path></g><g><path style="fill:#505050;" d="M283.691,351.167c0,0-0.334,2.699-1.168,3.699c-0.832,1-15.666,5.302-26.332,4.635c8-3.834,9.832-9.167,9.832-9.167l4.168,4.833C270.191,355.167,281.523,354,283.691,351.167z"></path></g></g></g><g><g><line style="fill:none;stroke:#000000;stroke-linecap:round;stroke-linejoin:round;" x1="247.583" y1="294.167" x2="247.583" y2="352.667"></line><polyline style="fill:none;stroke:#000000;stroke-linecap:round;stroke-linejoin:round;" points="252.417,294.167 252.417,341.501 254,350 "></polyline></g><g><circle style="fill:#3F3F3F;stroke:#000000;stroke-linecap:round;stroke-linejoin:round;" cx="250" cy="307" r="2"></circle><circle style="fill:#3F3F3F;stroke:#000000;stroke-linecap:round;stroke-linejoin:round;" cx="250" cy="325.5" r="2"></circle><circle style="fill:#3F3F3F;stroke:#000000;stroke-linecap:round;stroke-linejoin:round;" cx="250" cy="344" r="2"></circle></g></g><g><g><path style="fill:#3F3F3F;stroke:#000000;stroke-linecap:round;stroke-linejoin:round;" d="M238.95,298.501c0,0-2.567,11.666-2.567,14.833s0.333,13.333,0.333,13.333l-0.667,33.898c0,0-3.833-0.23-5.667-0.564c0-7,0.833-34,0.833-34l-0.167-13.667l2.067-13.333L238.95,298.501z"></path><circle style="fill:#B2B2B2;stroke:#000000;stroke-linecap:round;stroke-linejoin:round;" cx="233.216" cy="358" r="1.833"></circle><path style="fill:#B2B2B2;stroke:#000000;stroke-linecap:round;stroke-linejoin:round;" d="M230.216,324.167c0,0,0-2.167,0.167-2.667s6.5-0.167,7,0s0.3,2.834,0.3,2.834S231.216,324.5,230.216,324.167z"></path></g><g><path style="fill:#3F3F3F;stroke:#000000;stroke-linecap:round;stroke-linejoin:round;" d="M260.932,298.501c0,0,2.567,11.666,2.567,14.833s-0.333,13.333-0.333,13.333l0.666,33.898c0,0,3.834-0.23,5.667-0.564c0-7-0.833-34-0.833-34l0.166-13.667l-2.066-13.333L260.932,298.501z"></path><circle style="fill:#B2B2B2;stroke:#000000;stroke-linecap:round;stroke-linejoin:round;" cx="266.666" cy="358" r="1.833"></circle><path style="fill:#B2B2B2;stroke:#000000;stroke-linecap:round;stroke-linejoin:round;" d="M269.666,324.167c0,0,0-2.167-0.167-2.667s-6.5-0.167-7,0s-0.3,2.834-0.3,2.834S268.666,324.5,269.666,324.167z"></path></g></g></g></g></g></svg>