<svg xmlns="http://www.w3.org/2000/svg" width="500" height="500" version="1.1"><g id="x073"><g><g><path style="fill:#3F3F3F;stroke:#000000;stroke-linecap:round;stroke-linejoin:round;" d="M239.828,280.887c0,0-3.275,12.392-3.133,15.667c-2.991-0.143-4.7,0.143-4.7,0.143s0.854-10.54,2.991-14.101C236.553,280.032,239.828,280.887,239.828,280.887z"></path><path style="fill:#3F3F3F;stroke:#000000;stroke-linecap:round;stroke-linejoin:round;" d="M260.172,280.887c0,0,3.275,12.392,3.133,15.667c2.991-0.143,4.7,0.143,4.7,0.143s-0.855-10.54-2.991-14.101C263.447,280.032,260.172,280.887,260.172,280.887z"></path></g><g><g><path style="fill:#6E6E6E;stroke:#000000;stroke-linecap:round;stroke-linejoin:round;" d="M305.083,349.5c-0.25-1.75-4.5-10.25-4.5-10.25s-1.25-6-2.417-7.25s-7.583-10.75-7.583-10.75s-1.5-5.25-3.75-10.75c-2.167-7.333-6-14.5-6-14.5s-1.167-3.333-2.25-4.5s-5-4.5-5-4.5l-0.5,3.75c0,0-3.5,3.5-7.25,5.5c-3.957,0-14.409,0.434-15.833,0.493c-1.424-0.06-11.876-0.493-15.833-0.493c-3.75-2-7.25-5.5-7.25-5.5l-0.5-3.75c0,0-3.917,3.333-5,4.5s-2.25,4.5-2.25,4.5s-3.833,7.167-6,14.5c-2.25,5.5-3.75,10.75-3.75,10.75s-6.416,9.5-7.583,10.75s-2.417,7.25-2.417,7.25s-4.25,8.5-4.5,10.25s1,4.75,1,4.75s1.75-1.5,4-1.25s9,4.75,9,6.5c1.25-1,2.892-1.855,3.583-3c2.074-3.434,2.354-7.688,2.917-9.75c3.75-6,9-20,9.5-21.5L250,313.412l25.083,11.838c0.5,1.5,5.75,15.5,9.5,21.5c0.563,2.063,0.843,6.316,2.917,9.75c0.691,1.145,2.333,2,3.583,3c0-1.75,6.75-6.25,9-6.5s4,1.25,4,1.25S305.333,351.25,305.083,349.5z"></path><g><path style="fill:#505050;" d="M302.17,344c0,0,2.334,4.001,2.168,4.667c-0.168,0.666-5.166,0.666-7-0.167s-3.002-2.666-2.834-3.333C294.67,344.5,302.17,344,302.17,344z"></path><path style="fill:#505050;" d="M197.83,344c0,0-2.334,4.001-2.167,4.667s5.166,0.666,7-0.167s3.001-2.666,2.834-3.333S197.83,344,197.83,344z"></path></g><g><g><path style="fill:#505050;" d="M228.943,298.5c0,0-4.339,3.433-4.976,7c-0.636,3.569,2.857,7.082,3.743,7.305c3.271-3.938,4.625-9.38,4.625-9.38L228.943,298.5z"></path><path style="fill:none;stroke:#000000;stroke-linecap:round;stroke-linejoin:round;" d="M227.033,314.247c-4.088-4.327-3.43-11.788-3.43-11.788"></path></g></g><g><g><path style="fill:#505050;" d="M271.056,298.5c0,0,4.339,3.433,4.976,7c0.636,3.569-2.857,7.082-3.743,7.305c-3.271-3.938-4.625-9.38-4.625-9.38L271.056,298.5z"></path><path style="fill:none;stroke:#000000;stroke-linecap:round;stroke-linejoin:round;" d="M272.966,314.247c4.088-4.327,3.43-11.788,3.43-11.788"></path></g></g></g><path style="fill:#6E6E6E;stroke:#000000;stroke-linecap:round;stroke-linejoin:round;" d="M228,298.75c0,0-1.5,2.5-2.25,8.75s-0.25,13-0.25,13s-4.5,7.5-5,9.5s0.5,7.75,0.5,7.75s-6.25,14.5-6.25,15c0,3.25,1.75,6.25,1.75,6.25H216.5c0,0-0.45,6,4.952,6.688c4.995,0.636,5.926-3.725,6.056-4.544c0,0,0,0,0,0c0.204,1.502,1.157,5.442,5.559,5.434c4.521-0.009,5.358-3.618,5.513-4.949c0.057,0.001,0.109,0.003,0.166,0.004c0.253,1.439,1.358,5.431,5.816,5.164c4.3-0.257,5.107-3.573,5.254-5.046h0.37c0.147,1.473,0.954,4.789,5.254,5.046c4.457,0.267,5.563-3.725,5.814-5.164c0.057-0.001,0.109-0.003,0.166-0.004c0.156,1.331,0.992,4.94,5.514,4.949c4.402,0.009,5.355-3.932,5.559-5.434c0.131,0.819,1.063,5.18,6.057,4.544C283.951,365,283.5,359,283.5,359l0,0c0,0,1.75-3,1.75-6.25c0-0.5-6.25-15-6.25-15s1-5.75,0.5-7.75s-5-9.5-5-9.5s0.5-6.75-0.25-13s-2.25-8.75-2.25-8.75 M222.074,362.413c-1.471-0.188-1.822-1.379-1.903-2.08c1.065,0.187,2.43,0.374,4.204,0.549C224.227,361.442,223.723,362.623,222.074,362.413z M233.345,363.245c-1.524,0.002-1.98-1.202-2.118-1.88c1.291,0.064,2.696,0.123,4.223,0.173C235.332,362.146,234.909,363.241,233.345,363.245z M244.683,363.452c-1.521,0.089-2.033-1.085-2.203-1.754c1.338,0.02,2.728,0.034,4.208,0.042C246.568,362.37,246.148,363.364,244.683,363.452z M255.316,363.452c-1.465-0.088-1.885-1.082-2.004-1.712c1.479-0.008,2.869-0.022,4.207-0.042C257.35,362.367,256.838,363.541,255.316,363.452z M266.656,363.245c-1.564-0.004-1.988-1.099-2.105-1.707c1.527-0.05,2.932-0.108,4.223-0.173C268.635,362.043,268.18,363.247,266.656,363.245z M277.926,362.413c-1.648,0.21-2.152-0.971-2.299-1.531c1.773-0.175,3.137-0.362,4.203-0.549C279.748,361.034,279.396,362.226,277.926,362.413z"></path><g><path style="fill:#505050;" d="M219.133,344.333c0-0.5,1.667-5.001,2.5-5.167s16,4.167,16.667,5.667C233.3,345.166,219.133,344.333,219.133,344.333z"></path><path style="fill:#505050;" d="M280.865,344.333c0-0.5-1.666-5.001-2.5-5.167s-16,4.167-16.666,5.667C266.699,345.166,280.865,344.333,280.865,344.333z"></path></g><g><g><path style="fill:none;stroke:#B2B2B2;stroke-linecap:round;stroke-linejoin:round;stroke-dasharray:1 3;" d="M222.917,291.667c0,0,4.167,5,8.833,7c4.667,2,18.334,1.833,18.334,1.833"></path><path style="fill:none;stroke:#B2B2B2;stroke-linecap:round;stroke-linejoin:round;stroke-dasharray:1 3;" d="M247.417,303.167v43c0,0-1.667,6.333-1.5,8.333s1.833,5,1.833,5"></path><path style="fill:none;stroke:#B2B2B2;stroke-linecap:round;stroke-linejoin:round;stroke-dasharray:1 3;" d="M222.917,311.667c0,0-0.833,8.832-1.167,9.666c-0.333,0.834-4,9.5-4,9.5s-2.333,7-2.666,7.667c-0.334,0.667-4.167,6.833-4.167,6.833s-0.501,6.333-1.334,7.5s-2.333,2.667-2.333,2.667"></path></g><g><path style="fill:none;stroke:#B2B2B2;stroke-linecap:round;stroke-linejoin:round;stroke-dasharray:1 3;" d="M277.084,291.667c0,0-4.167,5-8.833,7c-4.667,2-18.334,1.833-18.334,1.833"></path><path style="fill:none;stroke:#B2B2B2;stroke-linecap:round;stroke-linejoin:round;stroke-dasharray:1 3;" d="M252.584,303.167v43c0,0,1.667,6.333,1.5,8.333s-1.833,5-1.833,5"></path><path style="fill:none;stroke:#B2B2B2;stroke-linecap:round;stroke-linejoin:round;stroke-dasharray:1 3;" d="M277.084,311.667c0,0,0.833,8.832,1.167,9.666c0.333,0.834,4,9.5,4,9.5s2.332,7,2.666,7.667c0.333,0.667,4.167,6.833,4.167,6.833s0.5,6.333,1.333,7.5s2.333,2.667,2.333,2.667"></path></g></g></g></g></g></svg>