<svg xmlns="http://www.w3.org/2000/svg" width="500" height="500" version="1.1"><g id="x074"><g><g><g><path style="fill:#6E6E6E;stroke:#000000;stroke-linecap:round;stroke-linejoin:round;" d="M227,316.25c0,0-10.75-6.25-14.25-9.25c3.375-7.938,7.75-15.375,14.563-20.625c4.25,2,6.938,7.375,6.938,7.375L227,316.25z"></path><g><g><path style="fill:#505050;" d="M228.693,294.5c0,0-4.339,3.433-4.976,7c-0.636,3.569,2.857,7.082,3.743,7.305c3.271-3.938,4.625-9.38,4.625-9.38L228.693,294.5z"></path><path style="fill:none;stroke:#000000;stroke-linecap:round;stroke-linejoin:round;" d="M226.783,310.247c-4.088-4.327-3.43-11.788-3.43-11.788"></path></g></g></g><g><path style="fill:#6E6E6E;stroke:#000000;stroke-linecap:round;stroke-linejoin:round;" d="M273,316.25c0,0,10.75-6.25,14.25-9.25c-3.375-7.938-7.75-15.375-14.563-20.625c-4.25,2-6.938,7.375-6.938,7.375L273,316.25z"></path><g><g><path style="fill:#505050;" d="M271.307,294.5c0,0,4.339,3.433,4.976,7c0.636,3.569-2.857,7.082-3.743,7.305c-3.271-3.938-4.625-9.38-4.625-9.38L271.307,294.5z"></path><path style="fill:none;stroke:#000000;stroke-linecap:round;stroke-linejoin:round;" d="M273.217,310.247c4.088-4.327,3.43-11.788,3.43-11.788"></path></g></g></g></g><path style="fill:#505050;stroke:#000000;stroke-linecap:round;stroke-linejoin:round;" d="M274.75,306.25c-0.75-4-4.5-13.25-4.5-13.25s1.25-2.875,2.75-6.375c-2.125-2.25-7-4.375-7-4.375l-16,22.25l-16-22.25c0,0-4.875,2.125-7,4.375c1.5,3.5,2.75,6.375,2.75,6.375s-3.75,9.25-4.5,13.25s-11.5,55.25-11.5,58.25c8,4.75,29.5,5.75,36.25,5.75s28.25-1,36.25-5.75C286.25,361.5,275.5,310.25,274.75,306.25z"></path><path style="fill:#505050;stroke:#000000;stroke-linecap:round;stroke-linejoin:round;" d="M258.952,309.369h12.773v8.915c0,0-4.789,3.992-6.254,3.992c-1.463,0-6.254-4.258-6.254-4.258L258.952,309.369z"></path><g><rect x="247.5" y="302.5" style="fill:#6E6E6E;stroke:#000000;stroke-linecap:round;stroke-linejoin:round;" width="5" height="67.5"></rect><g><circle style="fill:#FFFFFF;stroke:#000000;stroke-linecap:round;stroke-linejoin:round;" cx="250" cy="312.75" r="2.5"></circle><circle style="fill:#FFFFFF;stroke:#000000;stroke-linecap:round;stroke-linejoin:round;" cx="250" cy="332" r="2.5"></circle><circle style="fill:#FFFFFF;stroke:#000000;stroke-linecap:round;stroke-linejoin:round;" cx="250" cy="351.25" r="2.5"></circle></g></g></g></g></svg>