<svg xmlns="http://www.w3.org/2000/svg" width="500" height="500" version="1.1"><g id="x075"><g><g><g><path style="fill:#6E6E6E;stroke:#000000;stroke-linecap:round;stroke-linejoin:round;" d="M202.294,339.25c0,0,3.25-0.75,6.5,1.25s6.25,4.75,6.25,4.75l3.25-1l0.75-4.5c0,0,3-9.25,6.25-15.75c1.75-12,6.25-29.5,6.25-29.5l-1.75-9.699c0,0-4.75,3.199-9,8.949c-2.788,3.772-6.544,13.569-8.799,19.863c-1.201,1.262-1.404,1.402-1.701,2.262c0.25,1.625-0.25,3.375-0.25,3.375s-5.5,12.25-8,13.75C201.044,335.5,202.294,339.25,202.294,339.25z"></path><path style="fill:#505050;" d="M224.262,324.639c0,0,0.778-3.286-1.474-4.411s-5.325-0.17-5.325-0.17s1.541,4.37,3.898,5.409C223.136,326.248,224.262,324.639,224.262,324.639z"></path><path style="fill:#505050;" d="M222.994,327.613c0,0-5.549-0.911-8.688,0.281c2.36,1.666,4.136,2.66,4.115,3.678s-1.816,3.854-1.816,3.854l-4.483,1.997c4.745,2.757,5.258,6.781,5.258,6.781s2.441-8.073,3.221-11.229C221.043,332.158,222.994,327.613,222.994,327.613z"></path><g><g><path style="fill:#505050;" d="M228.988,298.5c0,0-4.339,3.433-4.976,7c-0.636,3.569,2.857,7.082,3.743,7.305c3.271-3.938,4.625-9.38,4.625-9.38L228.988,298.5z"></path><path style="fill:none;stroke:#000000;stroke-linecap:round;stroke-linejoin:round;" d="M227.078,314.247c-4.088-4.327-3.43-11.788-3.43-11.788"></path></g></g></g><g><path style="fill:#6E6E6E;stroke:#000000;stroke-linecap:round;stroke-linejoin:round;" d="M297.705,339.25c0,0-3.25-0.75-6.5,1.25s-6.25,4.75-6.25,4.75l-3.25-1l-0.75-4.5c0,0-3-9.25-6.25-15.75c-1.75-12-6.25-29.5-6.25-29.5l1.75-9.699c0,0,4.75,3.199,9,8.949c2.789,3.772,6.545,13.569,8.799,19.863c1.201,1.262,1.404,1.402,1.701,2.262c-0.25,1.625,0.25,3.375,0.25,3.375s5.5,12.25,8,13.75C298.955,335.5,297.705,339.25,297.705,339.25z"></path><path style="fill:#505050;" d="M275.738,324.639c0,0-0.777-3.286,1.475-4.411s5.324-0.17,5.324-0.17s-1.541,4.37-3.898,5.409C276.863,326.248,275.738,324.639,275.738,324.639z"></path><path style="fill:#505050;" d="M277.006,327.613c0,0,5.549-0.911,8.688,0.281c-2.359,1.666-4.135,2.66-4.115,3.678c0.021,1.018,1.816,3.854,1.816,3.854l4.484,1.997c-4.746,2.757-5.258,6.781-5.258,6.781s-2.441-8.073-3.221-11.229C278.957,332.158,277.006,327.613,277.006,327.613z"></path><g><g><path style="fill:#505050;" d="M271.012,298.5c0,0,4.34,3.433,4.977,7c0.635,3.569-2.857,7.082-3.744,7.305c-3.271-3.938-4.625-9.38-4.625-9.38L271.012,298.5z"></path><path style="fill:none;stroke:#000000;stroke-linecap:round;stroke-linejoin:round;" d="M272.922,314.247c4.088-4.327,3.43-11.788,3.43-11.788"></path></g></g></g></g><g><path style="fill:#6E6E6E;stroke:#000000;stroke-linecap:round;stroke-linejoin:round;" d="M282.749,346c-0.5-1-3.25-3.75-3.25-3.75s-3.75-13-3.5-15.5s-1.5-17.5-2.25-22s-2.75-8.25-2.75-8.25l-0.75-11.5c0,0-0.5,11.25-20.248,11.25c-19.75,0-20.25-11.25-20.25-11.25l-0.75,11.5c0,0-2,3.75-2.75,8.25s-2.5,19.5-2.25,22s-3.5,15.5-3.5,15.5s-2.75,2.75-3.25,3.75s-1.5,8.25-2.75,13.5c4.75,5.5,35.5,5.5,35.5,5.5s30.748,0,35.498-5.5C284.249,354.25,283.249,347,282.749,346z"></path><path style="fill:#505050;" d="M228.867,355.011c-0.898,0.303-8.104-1.175-9.006-2.072s5.688-4.218,8.988-3.928c3.3,0.29,17.402,0.847,22.505,2.332C248.065,354.652,228.867,355.011,228.867,355.011z"></path><path style="fill:#505050;" d="M241.44,345.973c0,0,18.915,5.342,25.811,4.121s10.488-4.231,10.488-4.231s-6.609-2.98-12.309-2.362C259.733,344.116,241.44,345.973,241.44,345.973z"></path></g></g></g></svg>