<svg xmlns="http://www.w3.org/2000/svg" width="500" height="500" version="1.1"><g id="x076"><g><g><path style="fill:#6E6E6E;stroke:#000000;stroke-linecap:round;stroke-linejoin:round;" d="M285.75,354l-35.5,2l-35.5-2c0,0-0.25,5.25-0.25,6.5c5.75,3,20.75,3.75,35.75,3.75s30-0.75,35.75-3.75C286,359.25,285.75,354,285.75,354z"></path><g><path style="fill:#6E6E6E;stroke:#000000;stroke-linecap:round;stroke-linejoin:round;" d="M286,302.5c0,0-3.75-9-5-10.25s-5.5-5-9.75-8c-1.25,16-40.75,16-42,0c-4.25,3-8.5,6.75-9.75,8s-5,10.25-5,10.25l-4,2.5c0,0,0.25,3.5,1.75,5.5s12.75,7,12.75,7l-0.75,9.25c0,0-3.25,6.5-4,8.75s-0.25,4.75-0.25,4.75s-4.5,7.5-5,9.25s0.25,6.75,0.25,6.75c12,4,35,3,35,3s23,1,35-3c0,0,0.75-5,0.25-6.75s-5-9.25-5-9.25s0.5-2.5-0.25-4.75s-4-8.75-4-8.75l-0.75-9.25c0,0,11.25-5,12.75-7S290,305,290,305L286,302.5z"></path><g><path style="fill:#505050;" d="M271.513,298.5c0,0,4.339,3.433,4.976,7c0.354,1.983-0.568,3.949-1.609,5.344C274.084,301.667,271.513,298.5,271.513,298.5z"></path><path style="fill:none;stroke:#000000;stroke-linecap:round;stroke-linejoin:round;" d="M275.16,311.746c2.141-4.207,1.692-9.287,1.692-9.287"></path><path style="fill:none;stroke:#000000;stroke-linecap:round;stroke-linejoin:round;" d="M271.5,297.25c0,0,2,4.5,2.75,8s1.25,12.25,1.25,12.25"></path></g><g><path style="fill:#505050;" d="M228.988,298.5c0,0-4.339,3.433-4.976,7c-0.353,1.983,0.568,3.949,1.609,5.344C226.417,301.667,228.988,298.5,228.988,298.5z"></path><path style="fill:none;stroke:#000000;stroke-linecap:round;stroke-linejoin:round;" d="M225.34,311.746c-2.14-4.207-1.692-9.287-1.692-9.287"></path><path style="fill:none;stroke:#000000;stroke-linecap:round;stroke-linejoin:round;" d="M229,297.25c0,0-2,4.5-2.75,8S225,317.5,225,317.5"></path></g></g></g><path style="fill:none;stroke:#000000;stroke-linecap:round;stroke-linejoin:round;" d="M226.167,308c0,0,7.333-1.5,23.833-1.5s24.667,1.5,24.667,1.5"></path><g><g><path style="fill:#6E6E6E;stroke:#000000;stroke-linecap:round;stroke-linejoin:round;" d="M250.167,301l-1.222,11.5c-1.445,0-3.445-0.46-3.445-0.46S249.055,302.495,250.167,301z"></path><path style="fill:#6E6E6E;stroke:#000000;stroke-linecap:round;stroke-linejoin:round;" d="M249.833,301l1.222,11.5c1.444,0,3.444-0.46,3.444-0.46S250.945,302.495,249.833,301z"></path></g><path style="fill:#6E6E6E;stroke:#000000;stroke-linecap:round;stroke-linejoin:round;" d="M250.288,298h-0.576c0,0-6.212,5.838-6.212,6.378s0.806,1.514,3.106,2.811c1.536-2.887,2.785-6.141,3.394-7.823c0.609,1.683,1.857,4.937,3.394,7.823c2.301-1.297,3.106-2.271,3.106-2.811S250.288,298,250.288,298z"></path></g></g></g></svg>