<svg xmlns="http://www.w3.org/2000/svg" width="500" height="500" version="1.1"><g id="x077"><g><g><path style="fill:#505050;stroke:#000000;stroke-linecap:round;stroke-linejoin:round;" d="M236.333,281.666c0,0-4.334,14.833-4.334,18.667c-1.833,0.5-3.333-0.166-3.333-0.166s2.167-13.835,4.667-17.501C234.999,281.166,236.333,281.666,236.333,281.666z"></path><path style="fill:#505050;stroke:#000000;stroke-linecap:round;stroke-linejoin:round;" d="M263.665,281.666c0,0,4.334,14.833,4.334,18.667c1.833,0.5,3.333-0.166,3.333-0.166s-2.167-13.835-4.667-17.501C264.999,281.166,263.665,281.666,263.665,281.666z"></path></g><g><g><g><path style="fill:#7D7D7D;stroke:#000000;stroke-linecap:round;stroke-linejoin:round;" d="M285.665,369.5l-35.664,2.084l-35.666-2.084c0,0-1.834,6.043-3.834,8.544c1,1.458,3.667,4.794,10.667,4.585c3.166-0.094,3.5-0.625,3.5-0.625l3.167,1.042c0,0,2.666,1.251,6.333,0.417c0.333-1.043,1.333-1.459,1.333-1.459l1.667,0.416l0.833,1.876c0,0,3.667,1.252,6.834,0.418c2.333-0.418,7.998-0.418,10.33,0c3.167,0.834,6.834-0.418,6.834-0.418l0.834-1.876l1.666-0.416c0,0,1,0.416,1.334,1.459c3.666,0.834,6.332-0.418,6.332-0.418l3.168-1.041c0,0,0.334,0.531,3.5,0.625c7,0.209,9.666-3.127,10.666-4.585C287.499,375.543,285.665,369.5,285.665,369.5z"></path><g><g><path style="fill:#61666A;" d="M224.668,372.626c0,0-2.5,7.085-3.667,6.668c-1.167-0.416,0.333-6.252,1-7.918C224.001,370.959,224.668,372.626,224.668,372.626z"></path><path style="fill:none;stroke:#000000;stroke-linecap:round;stroke-linejoin:round;" d="M220.668,376.794c0,0,0.667-3.544,2-6.252"></path></g><g><path style="fill:#61666A;" d="M242.501,372.626c0,0-3.167,8.96-4.333,8.544s1.167-8.128,1.167-8.128L242.501,372.626z"></path><path style="fill:none;stroke:#000000;stroke-linecap:round;stroke-linejoin:round;" d="M238.168,379.294c0,0,0-3.126,1.333-6.877"></path></g><g><path style="fill:#61666A;" d="M275.333,372.626c0,0,2.5,7.085,3.666,6.668c1.166-0.416-0.334-6.252-1-7.918C275.999,370.959,275.333,372.626,275.333,372.626z"></path><path style="fill:none;stroke:#000000;stroke-linecap:round;stroke-linejoin:round;" d="M279.333,376.794c0,0-0.667-3.544-2-6.252"></path></g><g><path style="fill:#61666A;" d="M257.499,372.626c0,0,3.167,8.96,4.334,8.544c1.166-0.416-1.168-8.128-1.168-8.128L257.499,372.626z"></path><path style="fill:none;stroke:#000000;stroke-linecap:round;stroke-linejoin:round;" d="M261.833,379.294c0,0,0-3.126-1.334-6.877"></path></g></g></g><g><path style="fill:#6E6E6E;stroke:#000000;stroke-linecap:round;stroke-linejoin:round;" d="M285.915,358.333c-0.768-3.168-3.625-13.42-5.832-19c-0.203-0.512,0.031-2.656-0.168-3.166c-0.342-0.875-2.01-2.813-2.332-3.667c-1-2.641-1.439-3.775-2-5.834c-0.5-1.834-0.5-16.833-1.668-21.666c-1.166-4.833-2.666-5.834-2.666-5.834c-16.166,4.333-21.164,9.834-21.164,9.834s-5-5.501-21.166-9.834c0,0-1.501,1.001-2.667,5.834c-1.167,4.833-1.167,19.832-1.667,21.666c-0.562,2.059-1,3.193-2,5.834c-0.322,0.854-1.99,2.792-2.333,3.667c-0.199,0.51,0.036,2.654-0.167,3.166c-2.207,5.58-5.065,15.832-5.833,19c-0.621,2.564-1.567,11.667-1.567,11.667s1.344,3.513,5.092,3.666c2.728,0.111,4.313-0.887,5.071-1.565c0.243,0.022,0.483,0.044,0.738,0.065c0.379,0.972,1.523,2.667,4.932,2.667c3.576,0,4.568-1.401,4.842-2.106c0.081,0.004,0.167,0.006,0.248,0.009c0.379,0.851,1.67,2.765,5.652,2.765c4.411,0,5.143-1.979,5.261-2.525c0.026,0,0.053,0,0.079,0c0.261,0.614,1.533,3.025,5.401,3.025c3.864,0,5.137-2.408,5.398-3.024c0.026,0,0.054,0,0.08,0c0.119,0.548,0.853,2.524,5.261,2.524c3.972,0,5.267-1.905,5.649-2.758c0.084-0.004,0.171-0.006,0.254-0.01c0.276,0.706,1.272,2.101,4.838,2.101c3.394,0,4.543-1.679,4.927-2.653c0.261-0.021,0.512-0.043,0.759-0.065c0.765,0.679,3.347,1.662,6.056,1.552c3.749-0.153,4.093-3.666,4.093-3.666S286.536,360.895,285.915,358.333z"></path><path style="fill:#505050;" d="M234.085,343.919c-1.2,0.9,9.3,6.9,16.5,8.101c7.199,1.2,19.199-9.601,20.1-12c-4.5,2.7-14.502,1.401-17.9,3.101c-3.4,1.699-3.4,5.6-5.5,5.299C245.185,348.119,235.285,343.02,234.085,343.919z"></path><path style="fill:#505050;" d="M237.385,353.22c0.899,0,11.399,5.699,15.9,3.899c4.5-1.8,13.801-7.8,12.6-6c-1.199,1.8-7.5,10.2-14.4,10.5C244.585,361.919,237.385,353.22,237.385,353.22z"></path><path style="fill:none;stroke:#000000;stroke-linecap:round;stroke-linejoin:round;" d="M250,315.353V341.5c0,0-1.25,5.25-1.25,5.75s1.25,3.5,1.25,3.5V374"></path><g><circle style="fill:#7D7D7D;stroke:#000000;stroke-linecap:round;stroke-linejoin:round;" cx="252.035" cy="330.869" r="1.9"></circle><circle style="fill:#7D7D7D;stroke:#000000;stroke-linecap:round;stroke-linejoin:round;" cx="252.035" cy="346.27" r="1.9"></circle><circle style="fill:#7D7D7D;stroke:#000000;stroke-linecap:round;stroke-linejoin:round;" cx="252.035" cy="361.67" r="1.9"></circle></g><g><path style="fill:none;stroke:#000000;stroke-linecap:round;stroke-linejoin:round;" d="M266.583,301.333c0,0,2.166,4.5,2.166,9c0,4.549,0.5,16,0.666,17.167c0.168,1.167,1.334,8,1.334,8s2.834,15,4.5,23.5c0.613,3.125,0.5,12.833,0.5,12.833"></path><g><path style="fill:none;stroke:#000000;stroke-linecap:round;stroke-linejoin:round;" d="M233.585,301.333c0,0-2.166,4.5-2.166,9c0,4.549-0.5,16-0.667,17.167s-1.333,8-1.333,8s-2.834,15-4.5,23.5c-0.613,3.125-0.5,12.833-0.5,12.833"></path></g></g></g></g><g><g><g><g><path style="fill:#7D7D7D;stroke:#000000;stroke-linecap:round;stroke-linejoin:round;" d="M246.084,307.439c0.722,0.238,4.082,2.893,4.082,2.893s-0.141,1.969-0.144,5.021c-1.169,0.154-4.938-1.199-6.322-2.114c-1.401-0.927-5.244-1.354-8.074-1.591c-2.966-0.248-7.263-1.914-7.263-1.914s-5.67-0.627-7.197-1.733c0.41-0.852,5.5-7,5.5-7S245.355,307.198,246.084,307.439z"></path><path style="fill:none;stroke:#000000;stroke-linecap:round;stroke-linejoin:round;" d="M227.378,309.487c0,0,2.775-3.286,3.922-4.448"></path><line style="fill:none;stroke:#000000;stroke-linecap:round;stroke-linejoin:round;" x1="242.767" y1="312.638" x2="244.33" y2="309.938"></line><line style="fill:none;stroke:#000000;stroke-linecap:round;stroke-linejoin:round;" x1="244.967" y1="313.168" x2="247.068" y2="308.71"></line></g><g><path style="fill:#7D7D7D;stroke:#000000;stroke-linecap:round;stroke-linejoin:round;" d="M253.913,307.439c-0.721,0.238-4.079,2.893-4.079,2.893s0.142,1.969,0.145,5.021c1.167,0.154,4.935-1.199,6.319-2.114c1.401-0.927,5.244-1.354,8.074-1.591c2.965-0.248,7.263-1.914,7.263-1.914s5.67-0.627,7.197-1.733c-0.411-0.852-5.5-7-5.5-7S254.643,307.198,253.913,307.439z"></path><path style="fill:none;stroke:#000000;stroke-linecap:round;stroke-linejoin:round;" d="M272.62,309.487c0,0-2.775-3.286-3.922-4.448"></path><line style="fill:none;stroke:#000000;stroke-linecap:round;stroke-linejoin:round;" x1="257.231" y1="312.638" x2="255.668" y2="309.938"></line><line style="fill:none;stroke:#000000;stroke-linecap:round;stroke-linejoin:round;" x1="255.03" y1="313.168" x2="252.929" y2="308.71"></line></g></g><path style="fill:#505050;stroke:#000000;stroke-linecap:round;stroke-linejoin:round;" d="M271.5,298.832c-12.334,2.334-21.499,6.501-21.499,6.501s-9.167-4.167-21.5-6.501c-1.667,1.168-2.333,3-2.333,3s14.5,3.334,23.833,8.334c9.331-5,23.831-8.334,23.831-8.334S273.166,300,271.5,298.832z"></path></g><g><g><path style="fill:#505050;stroke:#000000;stroke-linecap:round;stroke-linejoin:round;" d="M248.135,308.869c0,0-3.6,23.2-3,28.001c-0.799-0.2-3.199,1.4-4.6,7c-1.4,0.199-1.4,0.199-1.4,0.199S238.136,318.47,248.135,308.869z"></path><path style="fill:#505050;stroke:#000000;stroke-linecap:round;stroke-linejoin:round;" d="M251.865,308.869c0,0,3.6,23.2,3,28.001c0.801-0.2,3.199,1.4,4.6,7c1.4,0.199,1.4,0.199,1.4,0.199S261.865,318.47,251.865,308.869z"></path></g><g><path style="fill:#505050;stroke:#000000;stroke-linecap:round;stroke-linejoin:round;" d="M248.735,305.069c0,0-9.601,6.201-10.8,10.001c1.199,4.399,4.601,6.199,4.601,6.199s6.799-11.601,6.999-13.6C249.736,305.67,248.735,305.069,248.735,305.069z"></path><path style="fill:#505050;stroke:#000000;stroke-linecap:round;stroke-linejoin:round;" d="M251.266,305.069c0,0,9.6,6.201,10.799,10.001c-1.199,4.399-4.6,6.199-4.6,6.199s-6.799-11.601-6.999-13.6C250.266,305.67,251.266,305.069,251.266,305.069z"></path></g><path style="fill:#505050;stroke:#000000;stroke-linecap:round;stroke-linejoin:round;" d="M251.936,311.87c-0.4,0.399-2.4,0.2-3,0c-0.801-0.6-1.399-4.6-0.6-5.4c0.8-0.8,2.799-1.199,3.799,0.2C252.135,307.87,252.334,311.471,251.936,311.87z"></path></g></g></g></g></g></svg>