<svg xmlns="http://www.w3.org/2000/svg" width="500" height="500" version="1.1"><g id="x078"><g><g><path style="fill:#6E6E6E;stroke:#000000;stroke-linecap:round;stroke-linejoin:round;" d="M287,371l-37,5l-37-5c0,0-1.5,3.75-1.25,4.5c1.75,0.75,4.5,0.75,5.75,1.75s2.75,2.75,2.75,2.75s4.25,1.5,7.5,0.75c1.5-0.5,2.5-1.5,2.5-1.5l2.25,1.75c0,0,3.25,1.5,5.75,1.5s4.25-1.5,4.25-1.5l1.5,0.75c0,0,0.25,2,6,2s6-2,6-2l1.5-0.75c0,0,1.75,1.5,4.25,1.5s5.75-1.5,5.75-1.5l2.25-1.75c0,0,1,1,2.5,1.5c3.25,0.75,7.5-0.75,7.5-0.75s1.5-1.75,2.75-2.75s4-1,5.75-1.75C288.5,374.75,287,371,287,371z"></path><g><path style="fill:#6E6E6E;stroke:#000000;stroke-linecap:round;stroke-linejoin:round;" d="M279.25,339.75c-1.093-3.277-3.128-10.01-4.125-16.875c-0.375-5.375-0.672-11.652-1.125-14.375c-1-6-3.75-13.75-3.75-13.75s-0.75-6.5-3-11.5c-2.25-2.25-5-2.25-5-2.25s2.75,10.75,2.5,15.5C262,298,250,302.834,250,302.834S238,298,235.25,296.5c-0.25-4.75,2.5-15.5,2.5-15.5s-2.75,0-5,2.25c-2.25,5-3,11.5-3,11.5S227,302.5,226,308.5c-0.454,2.723-0.75,9-1.125,14.375c-0.997,6.865-3.032,13.598-4.125,16.875c-9.75,15.5-8.25,32-8.25,32s3.25,1.25,9,3.25s28.5,3.25,28.5,3.25s22.75-1.25,28.5-3.25s9-3.25,9-3.25S289,355.25,279.25,339.75z"></path><path style="fill:#505050;" d="M215.667,352.167c0,0,2.667-7.917,4.417-10.25c0,2.917-1,11.5-1,11.5s-0.25-2.666-1.25-2.833S215.667,352.167,215.667,352.167z"></path><path style="fill:#505050;" d="M284.482,352.167c0,0-2.668-7.917-4.418-10.25c0,2.917,1,11.5,1,11.5s0.25-2.666,1.25-2.833S284.482,352.167,284.482,352.167z"></path><g><path style="fill:#505050;" d="M233.19,318.25c0,1-1.75,14.25,2.25,20.25c0.5-7,1.75-20.5,1.75-20.5L233.19,318.25z"></path><path style="fill:#505050;" d="M266.81,318.25c0,1,1.75,14.25-2.25,20.25c-0.5-7-1.75-20.5-1.75-20.5L266.81,318.25z"></path></g><g><circle cx="250" cy="305.75" r="1.583"></circle><circle cx="250" cy="311.417" r="1.583"></circle><circle cx="250" cy="317.084" r="1.583"></circle></g><g><path style="fill:none;stroke:#000000;stroke-linecap:round;stroke-linejoin:round;" d="M244.264,303.834c0,0-0.667,5.166-0.5,12.333"></path><path style="fill:none;stroke:#000000;stroke-linecap:round;stroke-linejoin:round;" d="M255.736,303.834c0,0,0.667,5.166,0.5,12.333"></path></g><g><path style="fill:none;stroke:#000000;stroke-linecap:round;stroke-linejoin:round;" d="M236.917,319.334c0,0-0.833,9.667-1,11.667s0.166,13.833-0.667,17.333"></path><path style="fill:none;stroke:#000000;stroke-linecap:round;stroke-linejoin:round;" d="M263.084,319.334c0,0,0.832,9.667,1,11.667c0.166,2-0.166,13.833,0.666,17.333"></path></g><g><g><path style="fill:none;stroke:#000000;stroke-linecap:round;stroke-linejoin:round;" d="M220.75,339.75c0,0-0.75,10.75-2.5,17.75"></path></g><g><path style="fill:none;stroke:#000000;stroke-linecap:round;stroke-linejoin:round;" d="M279.25,339.75c0,0,0.75,10.75,2.5,17.75"></path></g></g></g><path style="fill:#6E6E6E;stroke:#000000;stroke-linecap:round;stroke-linejoin:round;" d="M274.75,313.25c0,0-5.25,3.5-24.75,3.5s-24.75-3.5-24.75-3.5s-1.5,2.25,0,3.25c8.5,4.25,41,4.25,49.5,0C276.25,315.5,274.75,313.25,274.75,313.25z"></path></g><g><g><path style="fill:#FFFFFF;stroke:#000000;stroke-linecap:round;stroke-linejoin:round;" d="M249.903,318.508L249.903,318.508c0.045,0.146,4.447,14.649,4.447,24.549l0,0c0,0.663,0.539,1.2,1.201,1.2s1.199-0.537,1.199-1.2l0,0c0-10.262-4.365-24.644-4.553-25.251l0,0c-0.193-0.634-0.865-0.99-1.498-0.796C250.066,317.203,249.709,317.874,249.903,318.508L249.903,318.508z"></path></g><path style="fill:#FFFFFF;stroke:#000000;stroke-linecap:round;stroke-linejoin:round;" d="M249.915,316.944c0.226,0.45,4.201,10.2,5.55,10.2s3.375-3.075,2.85-4.125s-7.424-6.9-7.424-6.9L249.915,316.944z"></path><g><path style="fill:#FFFFFF;stroke:#000000;stroke-linecap:round;stroke-linejoin:round;" d="M250.097,318.508L250.097,318.508c-0.045,0.146-4.447,14.649-4.447,24.549l0,0c0,0.663-0.538,1.2-1.2,1.2c-0.663,0-1.2-0.537-1.2-1.2l0,0c0-10.262,4.366-24.644,4.553-25.251l0,0c0.194-0.634,0.865-0.99,1.498-0.796C249.934,317.203,250.291,317.874,250.097,318.508L250.097,318.508z"></path></g><path style="fill:#FFFFFF;stroke:#000000;stroke-linecap:round;stroke-linejoin:round;" d="M250.085,316.944c-0.226,0.45-4.2,10.2-5.551,10.2c-1.35,0-3.375-3.075-2.85-4.125s7.425-6.9,7.425-6.9L250.085,316.944z"></path><path style="fill:#FFFFFF;stroke:#000000;stroke-linecap:round;stroke-linejoin:round;" d="M251.5,316.438c-0.375-0.563-1.5-0.688-1.5-0.688s-1.125,0.125-1.5,0.688s0,2.938,0.375,3.563l1.125,0.25l1.125-0.25C251.5,319.375,251.875,317,251.5,316.438z"></path></g></g></g></svg>