<svg xmlns="http://www.w3.org/2000/svg" width="500" height="500" version="1.1"><g id="x079"><g><g><g><path style="fill:#6E6E6E;stroke:#000000;stroke-linecap:round;stroke-linejoin:round;" d="M229.449,315.5c0,0-4.719-2.388-6.833-5c-2.833-3.5-3-6.666-3-6.666s2.167-2,0.652-6.333c-1.297-0.167-1.86,0.5-1.86,0.5s-0.648-3.167,0-5s1.644-1.666,1.86-2.166c0.216-0.5-0.433-4.334-0.433-4.334s-3.053-2.667-4.886-6.5c1-1.001,11.667,0.666,16.333,4.999C231.715,291.166,235.501,309.5,229.449,315.5z"></path><path style="fill:#505050;" d="M220.783,291.667c0-0.5-0.333-5.333-0.333-5.333s4.167,0,5.5,1.333S220.783,291.667,220.783,291.667z"></path></g><g><path style="fill:#6E6E6E;stroke:#000000;stroke-linecap:round;stroke-linejoin:round;" d="M270.551,315.5c0,0,4.719-2.388,6.832-5c2.834-3.5,3-6.666,3-6.666s-2.166-2-0.651-6.333c1.298-0.167,1.86,0.5,1.86,0.5s0.648-3.167,0-5s-1.645-1.666-1.86-2.166s0.433-4.334,0.433-4.334s3.053-2.667,4.887-6.5c-1-1.001-11.668,0.666-16.334,4.999C268.284,291.166,264.498,309.5,270.551,315.5z"></path><path style="fill:#505050;" d="M279.217,291.667c0-0.5,0.334-5.333,0.334-5.333s-4.167,0-5.5,1.333C272.717,289,279.217,291.667,279.217,291.667z"></path></g></g><path style="fill:#6E6E6E;stroke:#000000;stroke-linecap:round;stroke-linejoin:round;" d="M277,327.5c-1-2.25-1.75-16.25-2.5-20.75s-1.75-6.75-3.5-10.25c-0.5-4-1.25-12-1.25-12c-1.75-2.25-6.25-3-6.25-3l-13.5,14l-13.5-14c0,0-4.5,0.75-6.25,3c0,0-0.75,8-1.25,12c-1.75,3.5-2.75,5.75-3.5,10.25s-1.5,18.5-2.5,20.75s-8.416,19.001-9.916,39.501C224.25,356.835,243,358.834,250,349.334c7,9.5,25.75,7.501,36.916,17.667C285.416,346.501,278,329.75,277,327.5z"></path><line style="fill:none;stroke:#000000;stroke-linecap:round;stroke-linejoin:round;" x1="250" y1="298.5" x2="250" y2="331.5"></line><g><path style="fill:#666666;stroke:#000000;stroke-linecap:round;stroke-linejoin:round;" d="M234.783,284.334c0,0-0.333,8.334-0.667,11.334c-1,8-2,12-2.5,17.5s-0.167,14.333-0.333,14.833s0,32,0,32l3.833-2.667v-29.666c0,0,0.333-10.167,0.333-14.167s2.333-16.167,2.333-16.667c0.5-5.333,0.334-11.5,0.334-11.5L234.783,284.334z"></path><path style="fill:#666666;stroke:#000000;stroke-linecap:round;stroke-linejoin:round;" d="M265.217,284.334c0,0,0.334,8.334,0.667,11.334c1,8,1.999,12,2.499,17.5s0.168,14.333,0.334,14.833s0,32,0,32l-3.834-2.667v-29.666c0,0-0.332-10.167-0.332-14.167s-2.334-16.167-2.334-16.667c-0.5-5.333-0.334-11.5-0.334-11.5L265.217,284.334z"></path></g></g></g></svg>