<svg xmlns="http://www.w3.org/2000/svg" width="500" height="500" version="1.1"><g id="x008"><g><g><g><path style="fill:#505050;stroke:#000000;stroke-linecap:round;stroke-linejoin:round;" d="M237.549,281.027c0,0-1.63,13.762-0.593,15.659c-1.631,1.187-4.15,1.187-4.15,1.187s0.148-14.118,1.779-16.371C236.66,279.959,237.549,281.027,237.549,281.027z"></path><path style="fill:#505050;stroke:#000000;stroke-linecap:round;stroke-linejoin:round;" d="M262.451,281.027c0,0,1.631,13.762,0.592,15.659c1.631,1.187,4.152,1.187,4.152,1.187s-0.15-14.118-1.779-16.371C263.34,279.959,262.451,281.027,262.451,281.027z"></path></g><g><path style="fill:#6E6E6E;stroke:#000000;stroke-linecap:round;stroke-linejoin:round;" d="M273.865,314.326c0,0,1.334-7.708-0.148-10.524c0,0-4.447-7.708-9.932-7.708c-4.002,1.779-13.785,7.708-13.785,7.708s-9.783-5.929-13.785-7.708c-5.484,0-9.932,7.708-9.932,7.708c-1.482,2.816-0.147,10.524-0.147,10.524l-3.706,10.969c0,0,9.635,9.19,24.161,5.336c1.63-8.301,3.409-16.305,3.409-16.305s1.779,8.004,3.41,16.305c14.525,3.854,24.16-5.336,24.16-5.336L273.865,314.326z"></path><g><path style="fill:#505050;stroke:#000000;stroke-linecap:round;stroke-linejoin:round;" d="M223.319,322.479l-1.186,3.558c0,0,11.858,10.228,24.754,5.04c1.038-5.781,3.113-16.75,3.113-16.75l-6.226,13.785C243.775,328.111,230.731,330.334,223.319,322.479z"></path><path style="fill:#505050;stroke:#000000;stroke-linecap:round;stroke-linejoin:round;" d="M276.682,322.479l1.186,3.558c0,0-11.857,10.228-24.754,5.04c-1.037-5.781-3.113-16.75-3.113-16.75l6.226,13.785C256.227,328.111,269.27,330.334,276.682,322.479z"></path></g><path style="fill:#505050;stroke:#000000;stroke-linecap:round;stroke-linejoin:round;" d="M274.457,304.691c-1.48-3.261-6.076-8.152-10.078-8.894c-8.301,2.075-14.378,8.004-14.378,8.004s-6.077-5.929-14.378-8.004c-4.002,0.741-8.598,5.633-10.08,8.894c-0.296,1.63,0,4.15,0,4.15s3.262-6.077,10.377-9.042c7.263,1.631,14.081,8.004,14.081,8.004s6.818-6.373,14.082-8.004c7.115,2.965,10.375,9.042,10.375,9.042S274.754,306.321,274.457,304.691z"></path></g></g><g><path style="fill:#505050;stroke:#000000;stroke-linecap:round;stroke-linejoin:round;" d="M249.069,312.103c-0.148-0.593-4.743-4.743-5.633-3.705c-0.89,1.037,0.148,4.446,0.148,4.446s-0.89,3.854,0.593,4.743s4.836-3.558,4.836-3.558L249.069,312.103z"></path><path style="fill:#505050;stroke:#000000;stroke-linecap:round;stroke-linejoin:round;" d="M250.932,312.103c0.148-0.593,4.744-4.743,5.632-3.705c0.889,1.037-0.148,4.446-0.148,4.446s0.889,3.854-0.592,4.743c-1.482,0.89-4.837-3.558-4.837-3.558L250.932,312.103z"></path><path style="fill:#505050;stroke:#000000;stroke-linecap:round;stroke-linejoin:round;" d="M251.588,311.658c-0.135-0.672-1.365-0.856-1.593-0.886c-0.023-0.003-0.037-0.004-0.037-0.004s-0.013,0.001-0.036,0.004c-0.229,0.029-1.459,0.214-1.594,0.886c-0.148,0.741,0.296,3.112,0.296,3.112l1.334,0.148l1.333-0.148C251.291,314.771,251.736,312.399,251.588,311.658z"></path></g></g></g></svg>