<svg xmlns="http://www.w3.org/2000/svg" width="500" height="500" version="1.1"><g id="x080"><g><path style="fill:#6E6E6E;stroke:#000000;stroke-linecap:round;stroke-linejoin:round;" d="M305.205,349.75c-0.5-1.75-8.5-14.5-8.5-14.5s-1.5-8.5-2.5-10.25s-4.5-6-4.5-6s-2-10.75-3.75-15c-1.402-3.406-5.049-8.732-6.442-10.715c-0.18-2.785-1.513-4.619-1.513-4.619s-1.833-0.333-3.5-0.5c0.5,0.5,2.021,1.755,1.5,2.334c-10.5,11.666-24.667,15.667-36.5,10.167s-9.833-15.001-9.833-15.001l3.167-2.75l-6.333,1.25c0,0-2.333,3.334-2.833,5.667c-1.394,1.982-8.219,10.761-9.622,14.167c-1.75,4.25-3.75,15-3.75,15s-3.5,4.25-4.5,6s-2.5,10.25-2.5,10.25s-8,12.75-8.5,14.5s1.25,4.5,1.25,4.5s4.5-1.5,8.25,1.25s4.25,5.5,4.25,5.5s2.5-1.75,3.5-3s2.25-7,2.25-7l0.267-0.489c0.337,1.079,0.994,2.594,2.188,3.489c9,3.5,33.25,3.75,33.25,3.75s24.25-0.25,33.25-3.75c1.193-0.896,1.851-2.41,2.188-3.489l0.267,0.489c0,0,1.25,5.75,2.25,7s3.5,3,3.5,3s0.5-2.75,4.25-5.5s8.25-1.25,8.25-1.25S305.705,351.5,305.205,349.75z"></path><g><g><path style="fill:#505050;" d="M219.442,337c0,0,3.333-3.166,3.917-4.75s2.75-21.251,2.417-23.584c-1-2-2-4.666-2-4.666s0.666,9.5-1.167,12.833s-5.667,5.334-5.5,6.167s2.167,6.499,1.833,8.666s-2.333,4.501-2.667,5.334s3.083,4.5,3.083,4.5L219.442,337z"></path><path style="fill:#505050;" d="M200.775,340c0,0,2.833-4.166,3.333-4.5c1.333-0.5,5.834-0.334,6.667,0.833C207.442,338.166,200.775,340,200.775,340z"></path><g><g><path style="fill:#505050;" d="M229.192,296.916c0,0-4.479,1.017-5.116,4.584c-0.636,3.569,0.98,6.36,1.866,6.583C225.692,304.333,229.192,296.916,229.192,296.916z"></path><path style="fill:none;stroke:#000000;stroke-linecap:round;stroke-linejoin:round;" d="M225.856,308.556c-2.652-4.333-2.144-10.097-2.144-10.097"></path></g></g></g><g><path style="fill:#505050;" d="M280.56,337c0,0-3.334-3.166-3.917-4.75s-2.751-21.251-2.417-23.584c1-2,2-4.666,2-4.666s-0.666,9.5,1.167,12.833s5.667,5.334,5.5,6.167s-2.167,6.499-1.833,8.666c0.333,2.167,2.332,4.501,2.666,5.334s-3.083,4.5-3.083,4.5L280.56,337z"></path><path style="fill:#505050;" d="M299.226,340c0,0-2.833-4.166-3.333-4.5c-1.333-0.5-5.834-0.334-6.667,0.833C292.56,338.166,299.226,340,299.226,340z"></path><g><g><path style="fill:#505050;" d="M270.81,296.916c0,0,4.479,1.017,5.115,4.584c0.636,3.569-0.98,6.36-1.865,6.583C274.31,304.333,270.81,296.916,270.81,296.916z"></path><path style="fill:none;stroke:#000000;stroke-linecap:round;stroke-linejoin:round;" d="M274.146,308.556c2.652-4.333,2.144-10.097,2.144-10.097"></path></g></g></g></g><g><path style="fill:none;stroke:#000000;stroke-linecap:round;stroke-linejoin:round;" d="M214.554,351c0,0-1.045-3.75-0.545-5s5.5-4.5,5.5-4.5s-0.25-3.25,0.25-4s3-3.5,3.75-5.25c0.5-2,1.5-9.5,1.75-11s0.5-14.5,1.25-17.5s3-6.75,3-6.75"></path><path style="fill:none;stroke:#000000;stroke-linecap:round;stroke-linejoin:round;" d="M285.447,351c0,0,1.045-3.75,0.545-5s-5.5-4.5-5.5-4.5s0.25-3.25-0.25-4s-3-3.5-3.75-5.25c-0.5-2-1.5-9.5-1.75-11s-0.5-14.5-1.25-17.5s-3-6.75-3-6.75"></path></g></g></g></svg>