<svg xmlns="http://www.w3.org/2000/svg" width="500" height="500" version="1.1"><g id="x082"><g><g><g><path style="fill:#FFFFFF;stroke:#000000;stroke-linecap:round;stroke-linejoin:round;" d="M215.3,304.5c-3.5,9-5.25,14.5-5.25,14.5s-11.25,19-11.75,20.75s1.5,6.5,1.5,6.5l11.75,5.25c0,0,5.75-1.417,7.25-4.417s4-15.833,4-15.833l14.25-38l-5.5-10C231.55,283.25,224.05,283.75,215.3,304.5z"></path><g><g><path style="fill:#C8C8C8;" d="M228.831,296.916c0,0-4.479,1.017-5.116,4.584c-0.636,3.569,0.98,6.36,1.866,6.583C225.331,304.333,228.831,296.916,228.831,296.916z"></path><path style="fill:none;stroke:#000000;stroke-linecap:round;stroke-linejoin:round;" d="M225.495,308.556c-2.652-4.333-2.144-10.097-2.144-10.097"></path></g></g><path style="fill:#6E6E6E;stroke:#000000;stroke-linecap:round;stroke-linejoin:round;" d="M197.45,350.75c0,0,2-4.5,2.25-5.25c1.75,0,11.75,4.5,12.25,5.5c-1,2.75-2.25,5.5-2.25,5.5S201.45,353.75,197.45,350.75z"></path></g><g><path style="fill:#FFFFFF;stroke:#000000;stroke-linecap:round;stroke-linejoin:round;" d="M284.7,304.5c3.5,9,5.25,14.5,5.25,14.5s11.25,19,11.75,20.75s-1.5,6.5-1.5,6.5l-11.75,5.25c0,0-5.75-1.417-7.25-4.417s-4-15.833-4-15.833l-14.25-38l5.5-10C268.45,283.25,275.95,283.75,284.7,304.5z"></path><g><g><path style="fill:#C8C8C8;" d="M271.17,296.916c0,0,4.479,1.017,5.116,4.584c0.635,3.569-0.98,6.36-1.866,6.583C274.67,304.333,271.17,296.916,271.17,296.916z"></path><path style="fill:none;stroke:#000000;stroke-linecap:round;stroke-linejoin:round;" d="M274.506,308.556c2.652-4.333,2.144-10.097,2.144-10.097"></path></g></g><path style="fill:#6E6E6E;stroke:#000000;stroke-linecap:round;stroke-linejoin:round;" d="M302.55,350.75c0,0-2-4.5-2.25-5.25c-1.75,0-11.75,4.5-12.25,5.5c1,2.75,2.25,5.5,2.25,5.5S298.55,353.75,302.55,350.75z"></path></g></g><g><g><g><path style="fill:#FFFFFF;stroke:#000000;stroke-linecap:round;stroke-linejoin:round;" d="M275.25,307c-1-4.25-4.5-12.75-5-13.5L250,298.75l-20.25-5.25c-0.5,0.75-4,9.25-5,13.5S218,331.75,218,333.25s2.5,5.25,2.5,5.25l29.5,0.75l29.5-0.75c0,0,2.5-3.75,2.5-5.25S276.25,311.25,275.25,307z"></path><g><path style="fill:none;stroke:#000000;stroke-linecap:round;stroke-linejoin:round;" d="M234.3,297.75c0,0-9.75,33-9.75,35c0.5,1.5,2.75,4.75,2.75,4.75"></path><path style="fill:none;stroke:#000000;stroke-linecap:round;stroke-linejoin:round;" d="M265.7,297.75c0,0,9.75,33,9.75,35c-0.5,1.5-2.75,4.75-2.75,4.75"></path></g></g><g><path style="fill:#6E6E6E;stroke:#000000;stroke-linecap:round;stroke-linejoin:round;" d="M278.25,337.5c-10.5-1.75-28.25-0.75-28.25-0.75s-17.75-1-28.25,0.75c0,0-4.15,12-4.15,13c1.9,2.75,12.9,4.75,32.4,4.75s30.5-2,32.4-4.75C282.4,349.5,278.25,337.5,278.25,337.5z"></path><g><circle style="fill:#FFFFFF;stroke:#000000;stroke-linecap:round;stroke-linejoin:round;" cx="245.05" cy="342" r="3"></circle><circle style="fill:#FFFFFF;stroke:#000000;stroke-linecap:round;stroke-linejoin:round;" cx="245.05" cy="350.25" r="3"></circle><circle style="fill:#FFFFFF;stroke:#000000;stroke-linecap:round;stroke-linejoin:round;" cx="254.95" cy="342" r="3"></circle><circle style="fill:#FFFFFF;stroke:#000000;stroke-linecap:round;stroke-linejoin:round;" cx="254.95" cy="350.25" r="3"></circle></g></g></g><g><g><g><path style="fill:#6E6E6E;stroke:#000000;stroke-linecap:round;stroke-linejoin:round;" d="M230.8,295.25c0,0,5.25,10,16,13.75c2-2.75,3-4.479,3-4.479s-8.5-7.021-9.75-9.521C236.05,295.5,230.8,295.25,230.8,295.25z"></path><path style="fill:#6E6E6E;stroke:#000000;stroke-linecap:round;stroke-linejoin:round;" d="M269.2,295.25c0,0-5.25,10-16,13.75c-2-2.75-3-4.479-3-4.479s8.5-7.021,9.75-9.521C263.95,295.5,269.2,295.25,269.2,295.25z"></path></g><g><path style="fill:#6E6E6E;stroke:#000000;stroke-linecap:round;stroke-linejoin:round;" d="M250.3,311.75c0,0-8.75,12.5-11.25,18.75c-3.25-0.5-7-5.25-7-5.25s6-11.75,13.75-16.25C249.3,308.75,250.3,311.75,250.3,311.75z"></path><path style="fill:#6E6E6E;stroke:#000000;stroke-linecap:round;stroke-linejoin:round;" d="M249.7,311.75c0,0,8.75,12.5,11.25,18.75c3.25-0.5,7-5.25,7-5.25s-6-11.75-13.75-16.25C250.7,308.75,249.7,311.75,249.7,311.75z"></path></g></g><g><circle style="fill:#FFBF00;stroke:#000000;stroke-linecap:round;stroke-linejoin:round;" cx="250" cy="306.869" r="5.551"></circle><circle style="fill:#323232;stroke:#000000;stroke-linecap:round;stroke-linejoin:round;" cx="250" cy="306.869" r="2.35"></circle></g></g></g></g></g></svg>