<svg xmlns="http://www.w3.org/2000/svg" width="500" height="500" version="1.1"><g id="x084"><g><g><g><path style="fill:#6E6E6E;stroke:#000000;stroke-linecap:round;stroke-linejoin:round;" d="M229.208,298.25c0,0-7-1.25-8.75-3.75c0-0.75,0-0.75,0-0.75s-7,6-7.5,7.75s-0.5,8.084-0.75,10.667c-1.083,1.083-1.75,2.25-1.75,2.25l0.25,3.083c0,0-3,5.583-5.5,12.333s-3.5,10.083-3.5,10.083s-3.416,4.25-3.666,6c0.333,2.583,0.25,4.084,0.25,4.084s7.916,2.25,10.666,6.25c3.25-2,4.5-3,5-4c0.5-3,1.667-7.417,1.667-7.417s8.083-12.333,9.833-20.833C227.458,310.25,229.208,298.25,229.208,298.25z"></path><path style="fill:#505050;" d="M210.858,314.417l1.75-2.25c0,0,5.5,2.333,4.5,3.083S210.858,314.417,210.858,314.417z"></path><g><g><path style="fill:#505050;" d="M228.889,303c0,0-4.479,1.017-5.116,4.584c-0.636,3.569,0.98,6.36,1.866,6.583C225.389,310.417,228.889,303,228.889,303z"></path><path style="fill:none;stroke:#000000;stroke-linecap:round;stroke-linejoin:round;" d="M225.553,314.64c-2.652-4.333-2.145-10.097-2.145-10.097"></path></g></g></g><g><path style="fill:#6E6E6E;stroke:#000000;stroke-linecap:round;stroke-linejoin:round;" d="M270.792,298.25c0,0,7-1.25,8.75-3.75c0-0.75,0-0.75,0-0.75s7,6,7.5,7.75s0.5,8.084,0.75,10.667c1.083,1.083,1.75,2.25,1.75,2.25l-0.25,3.083c0,0,3,5.583,5.5,12.333s3.5,10.083,3.5,10.083s3.416,4.25,3.666,6c-0.333,2.583-0.25,4.084-0.25,4.084s-7.916,2.25-10.666,6.25c-3.25-2-4.5-3-5-4c-0.5-3-1.667-7.417-1.667-7.417S276.292,332.5,274.542,324C272.542,310.25,270.792,298.25,270.792,298.25z"></path><path style="fill:#505050;" d="M289.142,314.417l-1.75-2.25c0,0-5.5,2.333-4.5,3.083S289.142,314.417,289.142,314.417z"></path><g><g><path style="fill:#505050;" d="M271.112,303c0,0,4.479,1.017,5.115,4.584c0.636,3.569-0.98,6.36-1.865,6.583C274.612,310.417,271.112,303,271.112,303z"></path><path style="fill:none;stroke:#000000;stroke-linecap:round;stroke-linejoin:round;" d="M274.448,314.64c2.652-4.333,2.144-10.097,2.144-10.097"></path></g></g></g></g><g><g><path style="fill:#FFFFFF;stroke:#000000;stroke-linecap:round;stroke-linejoin:round;" d="M239.708,281c0,0-3,13-3.25,16.5c-2.5,1.5-6.25-1.25-6.25-1.25s1.25-6.75,3.5-13C235.458,281.5,239.708,281,239.708,281z"></path><path style="fill:#FFFFFF;stroke:#000000;stroke-linecap:round;stroke-linejoin:round;" d="M260.292,281c0,0,3,13,3.25,16.5c2.5,1.5,6.25-1.25,6.25-1.25s-1.25-6.75-3.5-13C264.542,281.5,260.292,281,260.292,281z"></path></g><g><path style="fill:#6E6E6E;stroke:#000000;stroke-linecap:round;stroke-linejoin:round;" d="M284.25,353.25h-68.5c-0.461,2.923-0.75,2.729-0.75,9c5.5,5,35,5.25,35,5.25s29.5-0.25,35-5.25C285,355.979,284.711,356.173,284.25,353.25z"></path><path style="fill:#6E6E6E;stroke:#000000;stroke-linecap:round;stroke-linejoin:round;" d="M285.5,350.25c-0.5-1.75-2.5-4-3.25-5.5s-6.5-16.5-7-18.25s-0.5-17-1-20.5s-4-11.5-4-11.5c-3.75,3.5-20.25,4-20.25,4s-16.5-0.5-20.25-4c0,0-3.5,8-4,11.5s-0.5,18.75-1,20.5s-6.25,16.75-7,18.25s-2.75,3.75-3.25,5.5s1.5,5,1.5,5s9.25,3.75,34,3.75s34-3.75,34-3.75S286,352,285.5,350.25z"></path><g><g><rect x="244.5" y="298.5" style="fill:#F5F5F5;" width="11" height="60.5"></rect></g><path style="fill:#F5F5F5;" d="M225.404,322v5l-1.208,4c0,0,3.5,2.665,25.5,2.665c0,0,1.333-7.832,0-9.165C227.529,324.5,225.404,322,225.404,322z"></path><path style="fill:#F5F5F5;" d="M248.596,333.333l-17.833,19.834c0,0,0.333,3.333,1.167,4.833c-1.5,0-6.568-1-6.568-1s-3.333-1-3-5c2.167-2.667,21.167-22.667,21.167-22.667S249.263,328,248.596,333.333z"></path><path style="fill:#F5F5F5;" d="M226.029,307l18.166,20.667l3.834-6.167L229.695,301l-1-2.5C228.695,298.5,226.362,304.5,226.029,307z"></path><path style="fill:#F5F5F5;" d="M249.763,333.665c0,0,0-5.165,0-9.165c-22.167,0-24.292-2.5-24.292-2.5"></path><path style="fill:#FF2652;" d="M224.763,328.167c0,0,6.833,3,26.167,3c0-2,0-3.334,0-3.334s-18.167,0-26-3.333C224.763,326.5,224.763,328.167,224.763,328.167z"></path><polygon style="fill:#FF2652;" points="226.596,304.333 247.763,328.5 250.096,326.667 227.43,301.667 "></polygon><path style="fill:#FF2652;" d="M228.929,357.333c0,0-1-3.166-0.667-4.666c2.667-3.167,19.667-21.334,19.667-21.334l-2.167-1.5L224.929,352.5c0,0,0.167,3,1.5,4.333C227.929,357.333,228.929,357.333,228.929,357.333z"></path><path style="fill:#F5F5F5;" d="M274.594,322v5l1.209,4c0,0-3.5,2.665-25.498,2.665c0,0-1.334-7.832,0-9.165C272.469,324.5,274.594,322,274.594,322z"></path><path style="fill:#F5F5F5;" d="M251.402,333.333l17.832,19.834c0,0-0.332,3.333-1.166,4.833c1.5,0,6.568-1,6.568-1s3.332-1,3-5c-2.168-2.667-21.168-22.667-21.168-22.667S250.737,328,251.402,333.333z"></path><path style="fill:#F5F5F5;" d="M273.969,307l-18.166,20.667l-3.834-6.167l18.334-20.5l1-2.5C271.303,298.5,273.637,304.5,273.969,307z"></path><path style="fill:#F5F5F5;" d="M250.237,333.665c0,0,0-5.165,0-9.165c22.166,0,24.291-2.5,24.291-2.5"></path><path style="fill:#FF2652;" d="M275.234,328.167c0,0-6.832,3-26.164,3c0-2,0-3.334,0-3.334s18.164,0,25.998-3.333C275.234,326.5,275.234,328.167,275.234,328.167z"></path><polygon style="fill:#FF2652;" points="273.402,304.333 252.234,328.5 249.904,326.667 272.568,301.667 "></polygon><path style="fill:#FF2652;" d="M271.068,357.333c0,0,1-3.166,0.666-4.666c-2.666-3.167-19.666-21.334-19.666-21.334l2.166-1.5l20.834,22.667c0,0-0.166,3-1.5,4.333C272.068,357.333,271.068,357.333,271.068,357.333z"></path><rect x="247.167" y="298.5" style="fill:#FF2652;" width="5.333" height="60.5"></rect></g></g><path style="fill:none;stroke:#000000;stroke-linecap:round;stroke-linejoin:round;" d="M285.5,350.25c-0.5-1.75-2.5-4-3.25-5.5s-6.5-16.5-7-18.25s-0.5-17-1-20.5s-4-11.5-4-11.5c-3.75,3.5-20.25,4-20.25,4s-16.5-0.5-20.25-4c0,0-3.5,8-4,11.5s-0.5,18.75-1,20.5s-6.25,16.75-7,18.25s-2.75,3.75-3.25,5.5s1.5,5,1.5,5s9.25,3.75,34,3.75s34-3.75,34-3.75S286,352,285.5,350.25z"></path></g></g></g></svg>