<svg xmlns="http://www.w3.org/2000/svg" width="500" height="500" version="1.1"><g id="x085"><g><g><g><g><g><path style="fill:#FFFFFF;stroke:#000000;stroke-linecap:round;stroke-linejoin:round;" d="M198.175,353.583c0,0-3.834-0.583-4.417-2.75c2.5-2.75,6.5-4.25,6.5-4.25L198.175,353.583z"></path><g><path style="fill:#FFFFFF;stroke:#000000;stroke-linecap:round;stroke-linejoin:round;" d="M212.675,311.916c0,0-2.833,8.918-3.333,9.918c-6.167,9.167-8.333,19-9.5,23.834c-1.712,4.799-3.667,8.248-3.667,8.248s0.946-0.205,3.667,1.084c1.583,0.75,0.667,2.583,3.917,4c0.872,0.38,2.153-0.067,3.333,0.166c1.55,0.308,2.917,1.584,2.917,1.584s1-4.584,1-7.584c7.833-11.666,13.833-26.166,14.583-30.916c0.75-5.25,0.5-8.25,0.5-8.25L212.675,311.916z"></path><path style="fill:#DCDCDC;" d="M199.259,354.166c0,0,1.417,0.583,1.667,1s0.583,1.5,0.917,1.667c0.667-1.75,1.167-4.583,0.833-4.917S199.259,354.166,199.259,354.166z"></path><path style="fill:#DCDCDC;" d="M224.259,325.833c0,0-2.417,6.084-2.5,6.417c-0.583-1.167-2.5-6.834-1.417-8.917s4.25-3.916,4.25-3.916L224.259,325.833z"></path><path style="fill:none;stroke:#000000;stroke-linecap:round;stroke-linejoin:round;" d="M211.108,352.916c0,0-1.083,2.416-2.25,3.75"></path></g></g><path style="fill:#6E6E6E;stroke:#000000;stroke-linecap:round;stroke-linejoin:round;" d="M198.508,347.001c0,0,8.667,3.667,12.333,7.5c1.333,0.333,2-1.334,1.333-2.667s-7.667-6.333-12-7.333C199.009,344.667,197.841,346.335,198.508,347.001z"></path></g><g><path style="fill:#6E6E6E;stroke:#000000;stroke-linecap:round;stroke-linejoin:round;" d="M212.896,307.5l-4.213,1.966c0,1.405,0.281,3.652,1.123,4.214c0.843,0.562,2.809-0.281,3.652,0.562s2.247,2.528,4.494,3.09s3.933-0.843,5.337,0s0.843,1.404,3.09,2.809c2.247,1.405,4.213-3.09,4.213-3.09l-0.562-4.213L212.896,307.5z"></path><path style="fill:#505050;" d="M213.654,313.875c0,0,1.125,1.063,1.5,1.313c0.5-1.188,0.5-3.938-0.063-4.063s-3.625,1.813-3.563,2.25C212.467,313.5,213.154,313.625,213.654,313.875z"></path><path style="fill:#6E6E6E;stroke:#000000;stroke-linecap:round;stroke-linejoin:round;" d="M222.509,287.334c-1.667,1.5-3.167,6.917-4.167,8.167c-2.5,2-5,4.167-5.5,5.667s0.667,6.833,0.667,6.833s4.583,3.749,12.583,5.249c-0.25-5.75,3.5-16.25,4.75-19.75c0-2.5,2.75-10.75,2.75-10.75S224.176,285.834,222.509,287.334z"></path><path style="fill:#505050;" d="M227.342,302.25c0,0-3.25,1.25-4,3s1.25,6,2.5,7C226.342,307.75,227.342,302.25,227.342,302.25z"></path><path style="fill:none;stroke:#000000;stroke-linecap:round;stroke-linejoin:round;" d="M222.842,302.75c0,0.5,0.75,4.75,3.167,6.084"></path></g></g><g><g><g><path style="fill:#FFFFFF;stroke:#000000;stroke-linecap:round;stroke-linejoin:round;" d="M301.826,353.583c0,0,3.834-0.583,4.418-2.75c-2.5-2.75-6.5-4.25-6.5-4.25L301.826,353.583z"></path><g><path style="fill:#FFFFFF;stroke:#000000;stroke-linecap:round;stroke-linejoin:round;" d="M287.326,311.916c0,0,2.834,8.918,3.334,9.918c6.166,9.167,8.333,19,9.5,23.834c1.712,4.799,3.666,8.248,3.666,8.248s-0.945-0.205-3.666,1.084c-1.584,0.75-0.666,2.583-3.916,4c-0.872,0.38-2.154-0.067-3.334,0.166c-1.551,0.308-2.916,1.584-2.916,1.584s-1-4.584-1-7.584C281.16,341.5,275.16,327,274.41,322.25c-0.75-5.25-0.5-8.25-0.5-8.25L287.326,311.916z"></path><path style="fill:#DCDCDC;" d="M300.743,354.166c0,0-1.417,0.583-1.667,1s-0.582,1.5-0.916,1.667c-0.667-1.75-1.167-4.583-0.834-4.917C297.66,351.582,300.743,354.166,300.743,354.166z"></path><path style="fill:#DCDCDC;" d="M275.743,325.833c0,0,2.417,6.084,2.5,6.417c0.583-1.167,2.501-6.834,1.417-8.917s-4.25-3.916-4.25-3.916L275.743,325.833z"></path><path style="fill:none;stroke:#000000;stroke-linecap:round;stroke-linejoin:round;" d="M288.894,352.916c0,0,1.083,2.416,2.25,3.75"></path></g></g><path style="fill:#6E6E6E;stroke:#000000;stroke-linecap:round;stroke-linejoin:round;" d="M301.494,347.001c0,0-8.668,3.667-12.334,7.5c-1.334,0.333-2-1.334-1.334-2.667c0.668-1.333,7.667-6.333,12-7.333C300.993,344.667,302.16,346.335,301.494,347.001z"></path></g><g><path style="fill:#6E6E6E;stroke:#000000;stroke-linecap:round;stroke-linejoin:round;" d="M287.106,307.5l4.213,1.966c0.001,1.405-0.28,3.652-1.123,4.214s-2.81-0.281-3.651,0.562c-0.844,0.843-2.248,2.528-4.494,3.09c-2.248,0.562-3.934-0.843-5.338,0s-0.842,1.404-3.09,2.809c-2.246,1.405-4.213-3.09-4.213-3.09l0.563-4.213L287.106,307.5z"></path><path style="fill:#505050;" d="M286.348,313.875c0,0-1.125,1.063-1.5,1.313c-0.5-1.188-0.5-3.938,0.063-4.063s3.625,1.813,3.563,2.25C287.535,313.5,286.848,313.625,286.348,313.875z"></path><path style="fill:#6E6E6E;stroke:#000000;stroke-linecap:round;stroke-linejoin:round;" d="M277.493,287.334c1.667,1.5,3.167,6.917,4.167,8.167c2.5,2,5,4.167,5.5,5.667s-0.667,6.833-0.667,6.833s-4.583,3.749-12.583,5.249c0.25-5.75-3.5-16.25-4.75-19.75c0-2.5-2.75-10.75-2.75-10.75S275.826,285.834,277.493,287.334z"></path><path style="fill:#505050;" d="M272.66,302.25c0,0,3.25,1.25,4,3s-1.25,6-2.5,7C273.66,307.75,272.66,302.25,272.66,302.25z"></path><path style="fill:none;stroke:#000000;stroke-linecap:round;stroke-linejoin:round;" d="M277.16,302.75c0,0.5-0.75,4.75-3.166,6.084"></path></g></g></g><g><g><g><path style="fill:#6E6E6E;stroke:#000000;stroke-linecap:round;stroke-linejoin:round;" d="M275.5,326c0,0-1.25-14.25-2-19.25s-4.25-12.5-4.25-12.5l-19.25,1l-19.25-1c0,0-3.5,7.5-4.25,12.5s-2,19.25-2,19.25s-6.2,17-7.45,25c0.5,3.75,8.7,5.5,32.95,5.5s32.45-1.75,32.95-5.5C281.7,343,275.5,326,275.5,326z"></path><g><path style="fill:none;stroke:#000000;stroke-linecap:round;stroke-linejoin:round;" d="M231.359,305.125c0,0-1.19,3.924-1.47,7.712s-0.405,12.788-0.905,14.913s-6.5,20.922-6.875,23.297s0.5,3.375,0.5,3.375"></path><path style="fill:none;stroke:#000000;stroke-linecap:round;stroke-linejoin:round;" d="M268.641,305.125c0,0,1.19,3.924,1.471,7.712c0.279,3.788,0.404,12.788,0.904,14.913s6.5,20.922,6.875,23.297s-0.5,3.375-0.5,3.375"></path></g></g><g><g><circle style="fill:#E4BC96;stroke:#000000;stroke-linecap:round;stroke-linejoin:round;" cx="242.51" cy="321.703" r="3.428"></circle><circle style="fill:#D59758;" cx="242.51" cy="321.703" r="1.697"></circle></g><g><circle style="fill:#E4BC96;stroke:#000000;stroke-linecap:round;stroke-linejoin:round;" cx="242.51" cy="333.777" r="3.428"></circle><circle style="fill:#D59758;" cx="242.51" cy="333.777" r="1.697"></circle></g><g><circle style="fill:#E4BC96;stroke:#000000;stroke-linecap:round;stroke-linejoin:round;" cx="257.49" cy="321.703" r="3.429"></circle><circle style="fill:#D59758;" cx="257.49" cy="321.703" r="1.698"></circle></g><g><circle style="fill:#E4BC96;stroke:#000000;stroke-linecap:round;stroke-linejoin:round;" cx="257.49" cy="333.777" r="3.429"></circle><circle style="fill:#D59758;" cx="257.49" cy="333.777" r="1.698"></circle></g><g><circle style="fill:#E4BC96;stroke:#000000;stroke-linecap:round;stroke-linejoin:round;" cx="242.51" cy="345.403" r="3.428"></circle><circle style="fill:#D59758;" cx="242.51" cy="345.403" r="1.697"></circle></g><g><circle style="fill:#E4BC96;stroke:#000000;stroke-linecap:round;stroke-linejoin:round;" cx="257.49" cy="345.403" r="3.429"></circle><circle style="fill:#D59758;" cx="257.49" cy="345.403" r="1.698"></circle></g></g></g><g><g><path style="fill:#FFFFFF;stroke:#000000;stroke-linecap:round;stroke-linejoin:round;" d="M275.166,285.368c-2.5-1.167-9-3.499-9-3.499s1.5-3,1.5-3.667c-0.834-0.667-5.332-0.833-6.666-0.333c-1,1.833-3,2.833-3,2.833s-4.166,0.167-5.5,1.167c-1.833,2.833-2.5,5-2.5,5s-0.667-2.167-2.5-5c-1.333-1-5.5-1.167-5.5-1.167s-2-1-3-2.833c-1.333-0.5-5.833-0.334-6.667,0.333c0,0.667,1.5,3.667,1.5,3.667s-6.5,2.332-9,3.499C219.751,310.118,250,309.869,250,309.869S280.25,310.118,275.166,285.368z"></path><g><path style="fill:none;stroke:#000000;stroke-linecap:round;stroke-linejoin:round;" d="M227.18,285.167c0,0-2.833,21.666,22.833,21.666"></path><path style="fill:none;stroke:#000000;stroke-linecap:round;stroke-linejoin:round;" d="M272.822,285.167c0,0,2.834,21.666-22.835,21.666"></path></g><g><path style="fill:#DCDCDC;" d="M238.933,278.535c0,0,2.167,2.25,2.75,2.583c-0.333,2-1,5.083-1.583,4.833S238.433,280.119,238.933,278.535z"></path><path style="fill:#DCDCDC;" d="M261.066,278.535c0,0-2.166,2.25-2.75,2.583c0.334,2,1,5.083,1.584,4.833S261.566,280.119,261.066,278.535z"></path></g></g><g><g><path style="fill:#6E6E6E;stroke:#000000;stroke-linecap:round;stroke-linejoin:round;" d="M266.166,282.168c-0.666,1.833-3.666,8.5-16.166,8.5c-12.5,0-15.5-6.667-16.167-8.5c-1-0.333-2,0.833-2,0.833C235.5,293.834,250,293.334,250,293.334s14.5,0.5,18.166-10.333C268.166,283.001,267.166,281.835,266.166,282.168z"></path><g><g><path style="fill:#6E6E6E;stroke:#000000;stroke-linecap:round;stroke-linejoin:round;" d="M250.016,294.168c0,0-4.5,14-4.667,18.333c-1.167-0.333-2-0.167-2-0.167s-3,0-3-1c0.5-3.5,3-13.334,6.333-17C248.183,293.001,250.016,294.168,250.016,294.168z"></path><path style="fill:#6E6E6E;stroke:#000000;stroke-linecap:round;stroke-linejoin:round;" d="M249.984,294.168c0,0,4.499,14,4.666,18.333c1.167-0.333,2-0.167,2-0.167s3,0,3-1c-0.5-3.5-3-13.334-6.333-17C251.817,293.001,249.984,294.168,249.984,294.168z"></path></g><g><g><path style="fill:#6E6E6E;stroke:#000000;stroke-linecap:round;stroke-linejoin:round;" d="M249.683,293.668c0,0-8,8.5-9.5,7.333s-1.833-3.833-1.833-3.833s-1.667-2.667-1.5-4.167s2.833-2,2.833-2S246.35,291.168,249.683,293.668z"></path><path style="fill:none;stroke:#000000;stroke-linecap:round;stroke-linejoin:round;" d="M246.516,294.834c0,0-2.166-0.5-4.333,0.667"></path></g><g><path style="fill:#6E6E6E;stroke:#000000;stroke-linecap:round;stroke-linejoin:round;" d="M250.316,293.668c0,0,8,8.5,9.5,7.333s1.834-3.833,1.834-3.833s1.666-2.667,1.5-4.167s-2.834-2-2.834-2S253.65,291.168,250.316,293.668z"></path><path style="fill:none;stroke:#000000;stroke-linecap:round;stroke-linejoin:round;" d="M253.484,294.834c0,0,2.166-0.5,4.332,0.667"></path></g></g></g></g><g><ellipse style="fill:#FFBF00;stroke:#000000;stroke-linecap:round;stroke-linejoin:round;" cx="250" cy="295.87" rx="5.089" ry="6.563"></ellipse><g><ellipse style="fill:#323232;stroke:#000000;stroke-linecap:round;stroke-linejoin:round;" cx="250.001" cy="295.87" rx="3.047" ry="3.929"></ellipse><circle style="fill:#FFFFFF;" cx="249.594" cy="295.169" r="1.107"></circle></g></g></g></g></g></g></g></svg>