<svg xmlns="http://www.w3.org/2000/svg" width="500" height="500" version="1.1"><g id="x086"><g><g><path style="fill:#FFFFFF;stroke:#000000;stroke-linecap:round;stroke-linejoin:round;" d="M287.75,305.25c-0.5-1.75-4.75-5.375-4.75-5.375s-0.125-4.375-0.5-5.125s-6-4.25-6-4.25s-0.25,4.25-4.75,6.75S250,299.5,250,299.5s-17.25,0.25-21.75-2.25s-4.75-6.75-4.75-6.75s-5.625,3.5-6,4.25s-0.5,5.125-0.5,5.125s-4.25,3.625-4.75,5.375c1,4.25,6.25,7.5,13.25,9.75c-0.279,3.907-2.59,27.786-0.5,38.5c5.75,4.5,25,7.75,25,7.75s19.25-3.25,25-7.75c2.09-10.714-0.221-34.593-0.5-38.5C281.5,312.75,286.75,309.5,287.75,305.25z"></path><path style="fill:#DCDCDC;" d="M274.25,308.375c0.25-0.375,3.75-3.5,4.25-3.25s-1.625,6.25-3.625,7.75C274.75,310.5,274.25,308.375,274.25,308.375z"></path><path style="fill:#DCDCDC;" d="M284.25,301.75l-1.625-1.5l-0.375-2.375c0,0-2.25,2.5-2,3.625S284.25,301.75,284.25,301.75z"></path><path style="fill:none;stroke:#000000;stroke-linecap:round;stroke-linejoin:round;" d="M279,304.125c0,0-1.25,4.125-4.75,7"></path><path style="fill:none;stroke:#000000;stroke-linecap:round;stroke-linejoin:round;" d="M274,306.875c0,0,0.625,5.875,0.5,8.125"></path><path style="fill:#DCDCDC;" d="M225.75,308.375c-0.25-0.375-3.75-3.5-4.25-3.25s1.625,6.25,3.625,7.75C225.25,310.5,225.75,308.375,225.75,308.375z"></path><path style="fill:#DCDCDC;" d="M215.75,301.75l1.625-1.5l0.375-2.375c0,0,2.25,2.5,2,3.625S215.75,301.75,215.75,301.75z"></path><path style="fill:none;stroke:#000000;stroke-linecap:round;stroke-linejoin:round;" d="M221,304.125c0,0,1.25,4.125,4.75,7"></path><path style="fill:none;stroke:#000000;stroke-linecap:round;stroke-linejoin:round;" d="M226,306.875c0,0-0.625,5.875-0.5,8.125"></path></g><g><g><path style="fill:#6E6E6E;stroke:#000000;stroke-linecap:round;stroke-linejoin:round;" d="M283.449,348.25c0,0-1.75-3-4.25-7.25c-0.375-0.75-7.375-26.5-8.625-31.25c-4.625-1.875-20.6-1.625-20.6-1.625s-15.975-0.25-20.6,1.625c-1.25,4.75-8.25,30.5-8.625,31.25c-2.5,4.25-4.25,7.25-4.25,7.25s-0.5,5-0.5,8.75c9.375,5,33.975,4.625,33.975,4.625s24.6,0.375,33.975-4.625C283.949,353.25,283.449,348.25,283.449,348.25z"></path><path style="fill:#505050;" d="M260.5,360.75c0,0,14,0,22.5-4c0.75-3.25,0.199-7.583-0.083-8.417s-2.917-5.25-4.333-7.083c-0.25-1-1.084-3-1.084-3S276.25,356,260.5,360.75z"></path><path style="fill:#505050;" d="M235.5,360.718c0,0-9-2.449-10.5-9.199c9.25,0.25,26.502,9.551,26.502,9.551L235.5,360.718z"></path><path style="fill:#505050;" d="M223.75,334.75l4.5-18c0,0,2,5.25,10.75,5.25s33.5,0,33.5,0l1.25,1.75h-36C237.75,323.75,228.5,328.25,223.75,334.75z"></path><g><path style="fill:none;stroke:#FFFFFF;stroke-linecap:round;stroke-dasharray:1 3;" d="M231.25,312.25c0,0,12.25-1.25,18.5-1.25"></path><path style="fill:none;stroke:#FFFFFF;stroke-linecap:round;stroke-dasharray:1 3;" d="M217.5,353l4.75,3c0,0,10.5,3,28,3"></path><path style="fill:none;stroke:#000000;stroke-linecap:round;stroke-linejoin:round;" d="M226.375,354.75c0,0,2.25,4.625,8.5,6.125"></path><path style="fill:none;stroke:#FFFFFF;stroke-linecap:round;stroke-dasharray:1 3;" d="M269.25,312.25c0,0-12.25-1.25-18.5-1.25"></path><path style="fill:none;stroke:#FFFFFF;stroke-linecap:round;stroke-dasharray:1 3;" d="M283,353l-2.75,3c0,0-12.5,3-30,3"></path><path style="fill:none;stroke:#000000;stroke-linecap:round;stroke-linejoin:round;" d="M274.125,354.75c0,0-2.25,4.625-8.5,6.125"></path></g></g><g><g><g><path style="fill:#6E6E6E;stroke:#000000;stroke-linecap:round;stroke-linejoin:round;" d="M235.825,282.14c0,0,1.099-0.157,1.883-0.784c-0.314-0.627-2.98-1.412-2.98-1.412l-3.137,2.196c0,0-3.451,0.628-3.294,1.412c-1.582,5.841,1.724,20.967,1.94,29.43l8.315-0.144C236.675,296,235.825,282.14,235.825,282.14z"></path><path style="fill:none;stroke:#FFFFFF;stroke-linecap:round;stroke-dasharray:1 3;" d="M233.675,282.5c0,0,0.25,17.75,3.5,27"></path><path style="fill:#6E6E6E;stroke:#000000;stroke-linecap:round;stroke-linejoin:round;" d="M228.378,303.065c0,0-0.802-3.068-0.606-4.193c2.116-0.858,8.122-2.226,9.264-1.875c0.479,1.526,0.601,4.132,0.601,4.132L228.378,303.065z"></path></g><g><path style="fill:#FFBF00;stroke:#000000;stroke-linecap:round;stroke-linejoin:round;" d="M228.828,306.538c0.252-0.217,0.819-0.608,1.714-0.477c0.655,0.753,1.314,5.102,1.53,5.989c0.507-0.091,5.964-0.715,6.21-1.281c-0.204-1.472-1.018-5.387-0.853-5.765c0.165-0.374,1.458-0.606,1.886-0.162c0.427,0.447,2.218,7.764,1.897,8.573c-0.319,0.813-9.594,2.601-10.623,2.032C229.56,314.877,228.434,308.234,228.828,306.538z"></path><path style="fill:#FFBF00;stroke:#000000;stroke-linecap:round;stroke-linejoin:round;" d="M236.36,311.375c0.118,0.666-0.327,1.306-0.994,1.425l0,0c-0.667,0.118-1.305-0.327-1.424-0.995l-0.882-4.947c-0.118-0.667,0.326-1.305,0.993-1.426l0,0c0.668-0.117,1.306,0.327,1.425,0.995L236.36,311.375z"></path></g></g><g><g><path style="fill:#6E6E6E;stroke:#000000;stroke-linecap:round;stroke-linejoin:round;" d="M264.175,282.14c0,0-1.098-0.157-1.883-0.784c0.314-0.627,2.98-1.412,2.98-1.412l3.137,2.196c0,0,3.451,0.628,3.295,1.412c1.582,5.841-1.725,20.967-1.941,29.43l-8.314-0.144C263.325,296,264.175,282.14,264.175,282.14z"></path><path style="fill:none;stroke:#FFFFFF;stroke-linecap:round;stroke-dasharray:1 3;" d="M266.325,282.5c0,0-0.25,17.75-3.5,27"></path><path style="fill:#6E6E6E;stroke:#000000;stroke-linecap:round;stroke-linejoin:round;" d="M271.622,303.065c0,0,0.802-3.068,0.607-4.193c-2.117-0.858-8.123-2.226-9.265-1.875c-0.479,1.526-0.601,4.132-0.601,4.132L271.622,303.065z"></path></g><g><path style="fill:#FFBF00;stroke:#000000;stroke-linecap:round;stroke-linejoin:round;" d="M271.172,306.538c-0.251-0.217-0.819-0.608-1.714-0.477c-0.655,0.753-1.314,5.102-1.53,5.989c-0.507-0.091-5.964-0.715-6.21-1.281c0.204-1.472,1.018-5.387,0.853-5.765c-0.165-0.374-1.458-0.606-1.886-0.162c-0.427,0.447-2.218,7.764-1.897,8.573c0.319,0.813,9.595,2.601,10.624,2.032C270.44,314.877,271.566,308.234,271.172,306.538z"></path><path style="fill:#FFBF00;stroke:#000000;stroke-linecap:round;stroke-linejoin:round;" d="M263.64,311.375c-0.118,0.666,0.328,1.306,0.994,1.425l0,0c0.668,0.118,1.305-0.327,1.424-0.995l0.883-4.947c0.117-0.667-0.327-1.305-0.994-1.426l0,0c-0.668-0.117-1.306,0.327-1.424,0.995L263.64,311.375z"></path></g></g></g></g></g></g></svg>