<svg xmlns="http://www.w3.org/2000/svg" width="500" height="500" version="1.1"><g id="x087"><g><g><path style="fill:#6E6E6E;stroke:#000000;stroke-linecap:round;stroke-linejoin:round;" d="M255.625,296c-1.498-3.124-5.623-2.75-5.625-2.75c-0.003,0-4.125-0.374-5.625,2.75c-1.5-1.75-4.875-2.875-6.75,0c2,5,9.25,7.625,12.375,6.875c3.125,0.75,10.375-1.875,12.375-6.875C260.5,293.125,257.125,294.25,255.625,296z"></path><g><path style="fill:#6E6E6E;stroke:#000000;stroke-linecap:round;stroke-linejoin:round;" d="M281.749,296.5c-1.75-4.25-5-8.75-11-12.5c-3.059-1.911-7.25-2.5-7.25-2.5l2.25,0.75c0,0,2.375,18.75-15.748,18.75c-18.125,0-15.75-18.75-15.75-18.75l2.25-0.75c0,0-4.192,0.589-7.25,2.5c-6,3.75-9.25,8.25-11,12.5c0.5,1.75,4.75,5,8.25,6.75c-1,4-2.25,20.25-2,22s-6.25,20.75-6.25,20.75s3.75,2.75,30.5,2.75s32.999-2.75,32.999-2.75s-6.5-19-6.25-20.75s-1-18-2-22C276.999,301.5,281.249,298.25,281.749,296.5z"></path><path style="fill:#505050;" d="M228.917,296.001l-2.333,6.666c0,0-1.833-3.166-1.333-4.833S228.917,296.001,228.917,296.001z"></path><path style="fill:none;stroke:#000000;stroke-linecap:round;stroke-linejoin:round;" d="M225.751,294.125c0,0,1.625,3.625,1.5,6.5"></path><path style="fill:none;stroke:#000000;stroke-linecap:round;stroke-linejoin:round;" d="M226.501,303.25c0,0,1.625-5.625,3-7.625"></path><path style="fill:#505050;" d="M271.083,296.001l2.332,6.666c0,0,1.834-3.166,1.334-4.833S271.083,296.001,271.083,296.001z"></path><path style="fill:none;stroke:#000000;stroke-linecap:round;stroke-linejoin:round;" d="M274.249,294.125c0,0-1.625,3.625-1.5,6.5"></path><path style="fill:none;stroke:#000000;stroke-linecap:round;stroke-linejoin:round;" d="M273.499,303.25c0,0-1.625-5.625-3-7.625"></path></g></g></g></g></svg>