<svg xmlns="http://www.w3.org/2000/svg" width="500" height="500" version="1.1"><g id="x088"><g><g><g><path style="fill:#6E6E6E;stroke:#000000;stroke-linecap:round;stroke-linejoin:round;" d="M231.433,283.75c0,0-5.125,2.875-8.625,7.25s-14.25,30.375-14.25,30.375L206.433,324c-0.25,1.875-0.125,4.375-0.125,5c-0.625,1.625-5.125,7.5-7.25,11.5c-0.75,3.5-0.5,7.375-0.5,7.375s-2.375,1.875-2.5,2.375s0.5,3,0.5,3s3.875-0.875,7.25,1.625s5.375,5.125,5.75,5.125s2.5-2,3-2.625s0.25-3.875,0.25-3.875s4.125-5.875,5.75-8.75s8.625-19.25,8.625-19.25S234.183,291.25,231.433,283.75z"></path><path style="fill:#505050;" d="M226.891,299.5c0,0-3,1.499-3.667,3.333s0.333,5.501,2,7.334C227.391,305.167,226.891,299.5,226.891,299.5z"></path><path style="fill:#505050;" d="M206.891,329.667V324.5c0,0,4.5,2.666,5,4.333C209.891,329.167,207.558,329.834,206.891,329.667z"></path><path style="fill:none;stroke:#000000;stroke-linecap:round;stroke-linejoin:round;" d="M222.933,300.875c0,0,0.375,3.75,3.125,7.5"></path></g><g><path style="fill:#6E6E6E;stroke:#000000;stroke-linecap:round;stroke-linejoin:round;" d="M268.567,283.75c0,0,5.125,2.875,8.625,7.25s14.25,30.375,14.25,30.375l2.125,2.625c0.25,1.875,0.125,4.375,0.125,5c0.625,1.625,5.125,7.5,7.25,11.5c0.75,3.5,0.5,7.375,0.5,7.375s2.375,1.875,2.5,2.375s-0.5,3-0.5,3s-3.875-0.875-7.25,1.625s-5.375,5.125-5.75,5.125s-2.5-2-3-2.625s-0.25-3.875-0.25-3.875s-4.125-5.875-5.75-8.75s-8.625-19.25-8.625-19.25S265.817,291.25,268.567,283.75z"></path><path style="fill:#505050;" d="M273.108,299.5c0,0,3.001,1.499,3.668,3.333c0.666,1.834-0.334,5.501-2,7.334C272.608,305.167,273.108,299.5,273.108,299.5z"></path><path style="fill:#505050;" d="M293.108,329.667V324.5c0,0-4.5,2.666-5,4.333C290.108,329.167,292.442,329.834,293.108,329.667z"></path><path style="fill:none;stroke:#000000;stroke-linecap:round;stroke-linejoin:round;" d="M277.067,300.875c0,0-0.375,3.75-3.125,7.5"></path></g></g><g><g><g><g><path style="fill:#6E6E6E;stroke:#000000;stroke-linecap:round;stroke-linejoin:round;" d="M235,281.75l15,10.5V355c0,0-19.25,18-20.25,18.5c-4.25-3.25-16.875-17.75-16.875-18.75S218.25,346,220,342.5c-0.5-3.75-0.25-5-0.25-5l2-2.75c0,0,3.5-27,4.25-31s4.25-11,4.25-11l0.75-8.5L235,281.75z"></path><path style="fill:#505050;" d="M220.833,342l-0.667-4c1.167,0.167,7.333,3.334,7,4.167S222.167,342.333,220.833,342z"></path></g><g><path style="fill:#6E6E6E;stroke:#000000;stroke-linecap:round;stroke-linejoin:round;" d="M265,281.75l-15,10.5V355c0,0,19.25,18,20.25,18.5c4.25-3.25,16.875-17.75,16.875-18.75S281.75,346,280,342.5c0.5-3.75,0.25-5,0.25-5l-2-2.75c0,0-3.5-27-4.25-31s-4.25-11-4.25-11l-0.75-8.5L265,281.75z"></path><path style="fill:#505050;" d="M279.166,342l0.667-4c-1.167,0.167-7.333,3.334-7,4.167S277.833,342.333,279.166,342z"></path></g></g><g><g><g><path style="fill:#7D7D7D;stroke:#000000;stroke-linecap:round;stroke-linejoin:round;" d="M233.892,292.5c0,0-2.167,8.999-2.833,13.333s-1.667,30.5-1.667,30.5s-0.167,7,0,7.5c3,1,5.5,0.5,5.5,0.5v-7.666c0,0,1-29.666,1.333-30.5c0.833-5,3-16.5,3-16.5S236.892,287.333,233.892,292.5z"></path></g><path style="fill:#B2B2B2;stroke:#000000;stroke-linecap:round;stroke-linejoin:round;" d="M228.602,343.125l7.094,0.188c0,0,0,5.875-0.094,6.219s-3.031,2.791-3.344,2.802s-3.656-2.771-3.719-3.177S228.602,343.125,228.602,343.125z"></path></g><g><g><path style="fill:#7D7D7D;stroke:#000000;stroke-linecap:round;stroke-linejoin:round;" d="M266.108,292.5c0,0,2.168,8.999,2.834,13.333s1.666,30.5,1.666,30.5s0.167,7,0,7.5c-3,1-5.5,0.5-5.5,0.5v-7.666c0,0-0.999-29.666-1.332-30.5c-0.834-5-3-16.5-3-16.5S263.108,287.333,266.108,292.5z"></path></g><path style="fill:#B2B2B2;stroke:#000000;stroke-linecap:round;stroke-linejoin:round;" d="M271.398,343.125l-7.094,0.188c0,0,0,5.875,0.094,6.219s3.031,2.791,3.344,2.802s3.656-2.771,3.719-3.177S271.398,343.125,271.398,343.125z"></path></g></g></g><g><path style="fill:#7D7D7D;stroke:#000000;stroke-linecap:round;stroke-linejoin:round;" d="M253.167,308L259,352.333c0,0-3.5,3.5-3.5,3s-4-50.667-4-50.667L253.167,308z"></path><g><polygon style="fill:#7D7D7D;stroke:#000000;stroke-linecap:round;stroke-linejoin:round;" points="245.5,305.167 240.833,357.729 250.167,366 257.834,358.666 253.167,305.166 "></polygon><g><g><path style="fill:#7D7D7D;stroke:#000000;stroke-linecap:round;stroke-linejoin:round;" d="M233.583,291.5c0,0,4.5,7,5.833,8s10,1.667,10,1.667v-1.833l-9.833-6.834c0,0-2.5-4.832-4-4.166S233.583,291.5,233.583,291.5z"></path><path style="fill:#7D7D7D;stroke:#000000;stroke-linecap:round;stroke-linejoin:round;" d="M266.417,291.5c0,0-4.499,7-5.833,8s-10,1.667-10,1.667v-1.833l9.833-6.834c0,0,2.5-4.832,4-4.166S266.417,291.5,266.417,291.5z"></path></g><path style="fill:#7D7D7D;stroke:#000000;stroke-linecap:round;stroke-linejoin:round;" d="M253.5,296.501c-1.666,0.167-6,0.167-7.667,0c-1.833,1.833-0.667,6.5-0.333,8s4.167,2.166,4.167,2.166s3.833-0.666,4.167-2.166S255.334,298.334,253.5,296.501z"></path></g></g></g></g></g></g></svg>