<svg xmlns="http://www.w3.org/2000/svg" width="500" height="500" version="1.1"><g id="x089"><g><g><g><g><path style="fill:#6E6E6E;" d="M228.119,286c0,0-5.25,4.5-7.5,7.75s-6.75,14.5-6.75,14.5s-3.5,3.249-3.75,4c0,2.418,0.25,5,0.5,6.25c-1,2-2.75,5-2.75,5s8.25,5.5,14,9c1.75-3,3.5-7,3.5-7l6-31.25L228.119,286z"></path><path style="fill:#505050;" d="M211.369,318.5l-1.25-6.25c2,1.5,9,4,8,5S211.369,318.5,211.369,318.5z"></path><path style="fill:none;stroke:#B2B2B3;stroke-linecap:round;stroke-linejoin:round;" d="M210.819,324.75l2.375-5.625c0,0,0-3.625,0.375-6.25c0.25-0.75,1.5-2.125,3.125-3.75c4.625-11.75,8.75-16.75,8.75-16.75"></path><path style="fill:#505050;" d="M228.494,298.875c0,0-4.484,2.124-5.151,3.958s0.333,5.501,2,7.334C227.51,305.167,228.494,298.875,228.494,298.875z"></path><path style="fill:none;stroke:#9C969E;stroke-linecap:round;stroke-linejoin:round;" d="M231.994,292.875c-0.109,0.082-3.625,1.75-5.5,4.5c-2.682,3.934-5.625,13.25-5.625,13.25s-2.25,2.875-2.5,3.625s-0.25,5.625-0.25,5.625l-2.5,6.625"></path><path style="fill:none;stroke:#000000;stroke-linecap:round;stroke-linejoin:round;" d="M223.052,300.875c0,0,0.375,3.75,3.125,7.5"></path><polyline style="fill:none;stroke:#B2B2B3;stroke-linecap:round;stroke-linejoin:round;" points="226.119,312.125 223.369,317.5 222.756,321.63 220.369,328.375 "></polyline><path style="fill:none;stroke:#000000;stroke-linecap:round;stroke-linejoin:round;" d="M228.119,286c0,0-5.25,4.5-7.5,7.75s-6.75,14.5-6.75,14.5s-3.5,3.249-3.75,4c0,2.418,0.25,5,0.5,6.25c-1,2-2.75,5-2.75,5s8.25,5.5,14,9c1.75-3,3.5-7,3.5-7l6-31.25L228.119,286z"></path></g><g><path style="fill:#6E6E6E;" d="M223.619,329.5l-19-8c-1.25,5.75-1.5,10.75-1.25,13.5c4,3.25,15,6.25,15,6.25S224.119,331.75,223.619,329.5z"></path><g><path style="fill:none;stroke:#B2B2B3;stroke-linecap:round;stroke-linejoin:round;" d="M207.244,323.402c0,0-1.625,9.523-0.625,12.898"></path><path style="fill:none;stroke:#B2B2B3;stroke-linecap:round;stroke-linejoin:round;" d="M218.119,327.727c0,0-1.625,9.324-0.625,12.699"></path><path style="fill:none;stroke:#9C969E;stroke-linecap:round;stroke-linejoin:round;" d="M212.244,325.402c0,0-1,7.523,0,13.273"></path></g><path style="fill:none;stroke:#000000;stroke-linecap:round;stroke-linejoin:round;" d="M223.619,329.5l-19-8c-1.25,5.75-1.5,10.75-1.25,13.5c4,3.25,15,6.25,15,6.25S224.119,331.75,223.619,329.5z"></path></g></g><g><g><path style="fill:#6E6E6E;" d="M271.881,286c0,0,5.25,4.5,7.5,7.75s6.75,14.5,6.75,14.5s3.5,3.249,3.75,4c0,2.418-0.25,5-0.5,6.25c1,2,2.75,5,2.75,5s-8.25,5.5-14,9c-1.75-3-3.5-7-3.5-7l-6-31.25L271.881,286z"></path><path style="fill:#505050;" d="M288.631,318.5l1.25-6.25c-2,1.5-9,4-8,5S288.631,318.5,288.631,318.5z"></path><path style="fill:none;stroke:#B2B2B3;stroke-linecap:round;stroke-linejoin:round;" d="M289.181,324.75l-2.375-5.625c0,0,0-3.625-0.375-6.25c-0.25-0.75-1.5-2.125-3.125-3.75c-4.625-11.75-8.749-16.75-8.749-16.75"></path><path style="fill:#505050;" d="M271.506,298.875c0,0,4.484,2.124,5.15,3.958c0.667,1.834-0.332,5.501-2,7.334C272.49,305.167,271.506,298.875,271.506,298.875z"></path><path style="fill:none;stroke:#9C969E;stroke-linecap:round;stroke-linejoin:round;" d="M268.006,292.875c0.109,0.082,3.625,1.75,5.5,4.5c2.682,3.934,5.625,13.25,5.625,13.25s2.25,2.875,2.5,3.625s0.25,5.625,0.25,5.625l2.5,6.625"></path><path style="fill:none;stroke:#000000;stroke-linecap:round;stroke-linejoin:round;" d="M276.948,300.875c0,0-0.375,3.75-3.125,7.5"></path><polyline style="fill:none;stroke:#B2B2B3;stroke-linecap:round;stroke-linejoin:round;" points="273.881,312.125 276.631,317.5 277.244,321.63 279.631,328.375 "></polyline><path style="fill:none;stroke:#000000;stroke-linecap:round;stroke-linejoin:round;" d="M271.881,286c0,0,5.25,4.5,7.5,7.75s6.75,14.5,6.75,14.5s3.5,3.249,3.75,4c0,2.418-0.25,5-0.5,6.25c1,2,2.75,5,2.75,5s-8.25,5.5-14,9c-1.75-3-3.5-7-3.5-7l-6-31.25L271.881,286z"></path></g><g><path style="fill:#6E6E6E;" d="M276.381,329.5l19-8c1.25,5.75,1.5,10.75,1.25,13.5c-4,3.25-15,6.25-15,6.25S275.881,331.75,276.381,329.5z"></path><g><path style="fill:none;stroke:#B2B2B3;stroke-linecap:round;stroke-linejoin:round;" d="M292.756,323.402c0,0,1.625,9.523,0.625,12.898"></path><path style="fill:none;stroke:#B2B2B3;stroke-linecap:round;stroke-linejoin:round;" d="M281.881,327.727c0,0,1.625,9.324,0.625,12.699"></path><path style="fill:none;stroke:#9C969E;stroke-linecap:round;stroke-linejoin:round;" d="M287.756,325.402c0,0,1,7.523,0,13.273"></path></g><path style="fill:none;stroke:#000000;stroke-linecap:round;stroke-linejoin:round;" d="M276.381,329.5l19-8c1.25,5.75,1.5,10.75,1.25,13.5c-4,3.25-15,6.25-15,6.25S275.881,331.75,276.381,329.5z"></path></g></g></g><g><g><g><path style="fill:#505050;stroke:#000000;stroke-linecap:round;stroke-linejoin:round;" d="M214,362.25c0,0-1.75,3.75-1.75,4.75c1.75,3.5,19.25,16.75,19.25,16.75l18.25-20.5v-6.75L214,362.25z"></path><path style="fill:#505050;stroke:#000000;stroke-linecap:round;stroke-linejoin:round;" d="M285.5,362.25c0,0,1.75,3.75,1.75,4.75c-1.75,3.5-19.25,16.75-19.25,16.75l-18.25-20.5v-6.75L285.5,362.25z"></path></g><g><g><path style="fill:#6E6E6E;" d="M231,292.75c0,0-3.5,6.75-4.75,12.5s-3,24-2.75,24.25s-10,26-11.25,33.5c5,7.25,18.5,16.5,18.5,16.5L250,359v-52L231,292.75z"></path><path style="fill:#505050;" d="M222.75,333l1.5-5.25l0.25-3.5c0,0,3.5,3.5,3.5,4.5C228,331.324,222.75,333,222.75,333z"></path><g><path style="fill:none;stroke:#B2B2B3;stroke-linecap:round;stroke-linejoin:round;" d="M233.5,297c0,0-2.5,7.5-2.75,9.75s-2.25,23.5-2.25,23.5s-5.75,16.25-12,37"></path><path style="fill:none;stroke:#9C969E;stroke-linecap:round;stroke-linejoin:round;" d="M239,300c0,0-1,5.5-1.75,9S235,330,235,331.5s-7.75,27.75-11.25,42"></path><path style="fill:none;stroke:#B2B2B3;stroke-linecap:round;stroke-linejoin:round;" d="M245,304c0,0-2.75,27.5-2.75,29.75c-0.75,4.5-9.063,42.813-9.063,42.813"></path><line style="fill:none;stroke:#9C969E;stroke-linecap:round;stroke-linejoin:round;" x1="244" y1="365" x2="250" y2="333.938"></line></g><path style="fill:none;stroke:#000000;stroke-linecap:round;stroke-linejoin:round;" d="M231,292.75c0,0-3.5,6.75-4.75,12.5s-3,24-2.75,24.25s-10,26-11.25,33.5c5,7.25,18.5,16.5,18.5,16.5L250,359v-52L231,292.75z"></path></g><g><path style="fill:#6E6E6E;" d="M269,292.75c0,0,3.5,6.75,4.75,12.5s3,24,2.75,24.25s10,26,11.25,33.5c-5,7.25-18.5,16.5-18.5,16.5L250,359v-52L269,292.75z"></path><path style="fill:#505050;" d="M277.25,333l-1.5-5.25l-0.25-3.5c0,0-3.5,3.5-3.5,4.5C272,331.324,277.25,333,277.25,333z"></path><g><path style="fill:none;stroke:#B2B2B3;stroke-linecap:round;stroke-linejoin:round;" d="M266.5,297c0,0,2.5,7.5,2.75,9.75s2.25,23.5,2.25,23.5s5.75,16.25,12,37"></path><path style="fill:none;stroke:#9C969E;stroke-linecap:round;stroke-linejoin:round;" d="M261,300c0,0,1,5.5,1.75,9s2.25,21,2.25,22.5s7.75,27.75,11.25,42"></path><path style="fill:none;stroke:#B2B2B3;stroke-linecap:round;stroke-linejoin:round;" d="M255,304c0,0,2.75,27.5,2.75,29.75c0.75,4.5,9.063,42.813,9.063,42.813"></path><line style="fill:none;stroke:#9C969E;stroke-linecap:round;stroke-linejoin:round;" x1="256" y1="365" x2="250" y2="333.938"></line></g><path style="fill:none;stroke:#000000;stroke-linecap:round;stroke-linejoin:round;" d="M269,292.75c0,0,3.5,6.75,4.75,12.5s3,24,2.75,24.25s10,26,11.25,33.5c-5,7.25-18.5,16.5-18.5,16.5L250,359v-52L269,292.75z"></path></g></g><rect x="248.5" y="307" style="fill:#505050;stroke:#000000;stroke-linecap:round;stroke-linejoin:round;" width="3" height="53.75"></rect></g></g></g></g></svg>