<svg xmlns="http://www.w3.org/2000/svg" width="500" height="500" version="1.1"><g id="x009"><g><path style="fill:#6E6E6E;stroke:#000000;stroke-linecap:round;stroke-linejoin:round;" d="M277.333,326.795c0,0-2.609-8.867-3.282-10.714c1.346-1.979,1.009-5.54,1.009-6.859c0-3.166-1.911-8.048-1.911-8.048s-16.083,1.848-18.604,2.111c-1.971,0-3.821-0.239-4.544-0.345c-0.723,0.105-2.573,0.345-4.544,0.345c-2.522-0.264-18.604-2.111-18.604-2.111s-1.911,4.882-1.911,8.048c0,1.319-0.337,4.881,1.009,6.859c-0.673,1.847-3.283,10.714-3.283,10.714s-3,3.792-3.667,6.8c0.673,1.188,10.145,3.989,11.153,4.122c1.009,0.132,7.568-0.396,7.568-0.396s1.513,1.188,2.522,1.45c0.896,0.234,8.141-0.259,9.757-0.372c1.616,0.113,8.86,0.606,9.757,0.372c1.009-0.263,2.521-1.45,2.521-1.45s6.559,0.527,7.568,0.396c1.009-0.133,10.48-2.934,11.153-4.122C280.333,330.587,277.333,326.795,277.333,326.795z"></path><g><path style="fill:none;stroke:#000000;stroke-linecap:round;stroke-linejoin:round;" d="M234.685,332.704c0,0,2.186,3.694,3.531,4.881"></path><path style="fill:none;stroke:#000000;stroke-linecap:round;stroke-linejoin:round;" d="M265.315,332.704c0,0-2.186,3.694-3.531,4.881"></path></g><g><path style="fill:#505050;" d="M239.574,337.321c0,0-4.709-16.096-3.364-20.976c1.682,4.09,3.027,12.138,3.532,14.644C240.246,333.495,239.574,337.321,239.574,337.321z"></path><path style="fill:#505050;" d="M248.487,317.4c0,0,0.504-7.651,1.68-8.838c0.673,3.166,1.178,8.706,1.346,9.233c0.168,0.528,2.186,1.452,2.186,1.452l1.514-1.848l2.691,2.639c0,0,1.345-1.187,1.85-1.319c0.504-0.133,2.858,3.958,2.69,5.541s-0.841,10.158-1.514,9.894c-0.673-0.264-2.69-9.233-2.69-9.233s-0.504,4.484-1.009,5.276s-4.205-6.464-4.205-6.464s-2.017,4.617-2.858,4.882C249.327,328.879,248.151,319.643,248.487,317.4z"></path><path style="fill:#505050;" d="M236.883,317.796c0,0,0.841-2.507,0.841-3.166s-1.346-6.067-2.018-6.067c-0.841,1.714-0.673,5.144-0.505,6.067C235.37,315.555,236.883,317.796,236.883,317.796z"></path><path style="fill:#505050;" d="M242.769,316.346c0,0-0.505,12.928-0.505,15.039c0,2.11,1.85,6.068,1.85,6.068l2.69,0.131c0,0-0.336-4.881-0.839-7.519C245.46,327.428,242.769,316.346,242.769,316.346z"></path><path style="fill:#505050;" d="M264.63,318.984l1.682-3.035c0,0,1.682,2.771,1.682,3.693c0,0.925,0.504,7.916-0.504,7.521C266.479,326.767,264.63,319.644,264.63,318.984z"></path><path style="fill:#505050;" d="M273.374,316.213c0-0.659,1.514-1.583,0.504-6.859c-1.176,2.771-4.203,6.992-4.203,7.783c0,0.792,4.371,5.145,4.203,7.124C274.215,319.643,273.374,316.213,273.374,316.213z"></path><path style="fill:#505050;" d="M227.14,316.213c0-0.659-1.513-1.583-0.504-6.859c1.177,2.771,4.204,6.992,4.204,7.783c0,0.792-4.372,5.145-4.204,7.124C226.299,319.643,227.14,316.213,227.14,316.213z"></path></g></g></g></svg>