<svg xmlns="http://www.w3.org/2000/svg" width="500" height="500" version="1.1"><g id="x091"><g><g><g><path style="fill:#FFFFFF;stroke:#000000;stroke-linecap:round;stroke-linejoin:round;" d="M287.835,300.167c-0.168-0.5-1.834-2.166-6.834-5.5c-0.668-0.667-5.834-8.5-7.5-9.167c-1.668-0.667-4.166-1.333-4.166-1.333l-19.337,9.5l-19.333-9.5c0,0-2.5,0.666-4.167,1.333s-6.833,8.5-7.5,9.167c-5,3.334-6.667,5-6.833,5.5s0.5,6.333,1.333,7.666c3.667,2.5,14.833,6,14.833,6l21.667,2.834l0,0l0,0h0l0,0l21.668-2.834c0,0,11.168-3.5,14.834-6C287.335,306.5,288.001,300.667,287.835,300.167z"></path><path style="fill:#DCDCDC;" d="M272.167,297.833c0,0,3,0.5,4.334,2.167s-0.166,7.333-1.334,9C274.001,305.667,272.167,297.833,272.167,297.833z"></path><path style="fill:none;stroke:#000000;stroke-linecap:round;stroke-linejoin:round;" d="M276.501,298.333c0,0-0.834,3.667-2.666,5.667"></path><path style="fill:#DCDCDC;" d="M227.832,297.833c0,0-3,0.5-4.333,2.167s0.166,7.333,1.333,9C225.999,305.667,227.832,297.833,227.832,297.833z"></path><path style="fill:none;stroke:#000000;stroke-linecap:round;stroke-linejoin:round;" d="M229.165,296.5c-3.167,6.333-3.667,11.5-3.667,11.5"></path><path style="fill:none;stroke:#000000;stroke-linecap:round;stroke-linejoin:round;" d="M270.667,296.5c3.166,6.333,3.666,11.5,3.666,11.5"></path><path style="fill:none;stroke:#000000;stroke-linecap:round;stroke-linejoin:round;" d="M223.499,298.333c0,0,0.833,3.667,2.667,5.667"></path></g><path style="fill:#6E6E6E;stroke:#000000;stroke-linecap:round;stroke-linejoin:round;" d="M213.427,307.667c0,0-1.585,3.834-1.762,5c5.111,4.166,13.571,6,13.571,6l1.763-6.667L213.427,307.667z"></path><path style="fill:#6E6E6E;stroke:#000000;stroke-linecap:round;stroke-linejoin:round;" d="M286.571,307.667c0,0,1.586,3.834,1.764,5c-5.111,4.166-13.572,6-13.572,6L273.001,312L286.571,307.667z"></path></g><g><path style="fill:#6E6E6E;stroke:#000000;stroke-linecap:round;stroke-linejoin:round;" d="M275.501,327c-0.667-2.167-1.334-19-1.334-19s-3.833-4.834-9.833-6c-6.165,1.999-14.33,11.826-14.335,11.833c-0.005-0.007-8.169-9.834-14.333-11.833c-6,1.166-9.833,6-9.833,6s-0.667,16.833-1.334,19c-0.666,2.167-6.333,16-8.166,24.5c4.666,5,19,11,19,11l14.666-15l14.668,15c0,0,14.334-6,19-11C281.833,343,276.167,329.167,275.501,327z"></path><g><path style="fill:#FFFFFF;" d="M231.166,304.333c0,0-0.833,5.333-0.333,13.5c-0.49,5.511-0.667,9.5-0.667,9.5s-5.417,18.115-7.917,27.948c1.531,1.188,2.406,1.438,2.406,1.438s7.677-27.719,8.344-29.219c0.406-5.719,0.833-9.833,0.833-9.833s-0.833-9.333,0.5-14.5C231.905,303.469,231.166,304.333,231.166,304.333z"></path><path style="fill:#FFFFFF;" d="M268.834,304.333c0,0,0.833,5.333,0.333,13.5c0.49,5.511,0.667,9.5,0.667,9.5s5.417,18.115,7.917,27.948c-1.531,1.188-2.406,1.438-2.406,1.438S267.667,329,267.001,327.5c-0.406-5.719-0.834-9.833-0.834-9.833s0.833-9.333-0.5-14.5C268.095,303.469,268.834,304.333,268.834,304.333z"></path></g></g></g></g></svg>