<svg xmlns="http://www.w3.org/2000/svg" width="500" height="500" version="1.1"><g id="x093"><g><g><g><path style="fill:#FFFFFF;stroke:#000000;stroke-linecap:round;stroke-linejoin:round;" d="M224.275,289.166c0,0-3.333,3.668-4.833,5.834s-9.167,22.833-9.167,22.833s-3.333,2.667-3.333,3.167c-0.167,1.833,0.167,5,0.167,5s-8.5,18.499-11.333,25.166c5.5,4.334,16,7.667,16,7.667s13-27.5,14.333-32c1.5-7.333,6-28.833,6-28.833L224.275,289.166z"></path><path style="fill:#DCDCDC;" d="M211.608,320.666c0,0-0.5,6.334,0.667,7.667s4.167,4.001,5.333,3.667C215.442,327,211.608,320.666,211.608,320.666z"></path><path style="fill:#DCDCDC;" d="M226.775,301.667c0,0-3.333,1.499-4.5,2.666s0,8.667,3,10.667C227.609,308.333,226.775,301.667,226.775,301.667z"></path><path style="fill:none;stroke:#000000;stroke-linecap:round;stroke-linejoin:round;" d="M221.608,303.833c0,0,1.167,4.333,4.167,8.333"></path><path style="fill:none;stroke:#000000;stroke-linecap:round;stroke-linejoin:round;" d="M207.275,325.333c0,0,0.5,2.999,3,7.833"></path><path style="fill:#6E6E6E;stroke:#000000;stroke-linecap:round;stroke-linejoin:round;" d="M194.765,354c-0.5-1.167,4.833-16.333,6-16.5c3.167,2.333,15.167,7.666,18.5,7.833c0.167,1.5-5.333,15.166-7.333,16.333C207.598,361.5,196.431,358,194.765,354z"></path></g><g><path style="fill:#FFFFFF;stroke:#000000;stroke-linecap:round;stroke-linejoin:round;" d="M275.725,289.166c0,0,3.333,3.668,4.833,5.834s9.167,22.833,9.167,22.833s3.333,2.667,3.333,3.167c0.167,1.833-0.167,5-0.167,5s8.501,18.499,11.334,25.166c-5.5,4.334-16,7.667-16,7.667s-13-27.5-14.334-32c-1.5-7.333-6-28.833-6-28.833L275.725,289.166z"></path><path style="fill:#DCDCDC;" d="M288.391,320.666c0,0,0.501,6.334-0.666,7.667s-4.167,4.001-5.334,3.667C284.558,327,288.391,320.666,288.391,320.666z"></path><path style="fill:#DCDCDC;" d="M273.225,301.667c0,0,3.333,1.499,4.5,2.666c1.166,1.167,0,8.667-3,10.667C272.391,308.333,273.225,301.667,273.225,301.667z"></path><path style="fill:none;stroke:#000000;stroke-linecap:round;stroke-linejoin:round;" d="M278.391,303.833c0,0-1.166,4.333-4.166,8.333"></path><path style="fill:none;stroke:#000000;stroke-linecap:round;stroke-linejoin:round;" d="M292.725,325.333c0,0-0.5,2.999-3,7.833"></path><path style="fill:#6E6E6E;stroke:#000000;stroke-linecap:round;stroke-linejoin:round;" d="M305.235,354c0.5-1.167-4.834-16.333-6-16.5c-3.166,2.333-15.166,7.666-18.5,7.833c-0.166,1.5,5.334,15.166,7.334,16.333C292.401,361.5,303.569,358,305.235,354z"></path></g></g><g><path style="fill:#FFFFFF;stroke:#000000;stroke-linecap:round;stroke-linejoin:round;" d="M275.333,326.333c-0.333-3.5-1.166-17.333-1.333-20.5s-3.667-11.333-3.667-11.333l-20.5,11.5l-20.5-11.5c0,0-3.5,8.166-3.667,11.333s-1,17-1.333,20.5c-0.5,1.167-9.5,27-8.833,34.667c9.667,3.667,34.333,3.833,34.333,3.833s24.667-0.166,34.333-3.833C284.833,353.333,275.833,327.5,275.333,326.333z"></path><g><g><g><path style="fill:#505050;stroke:#000000;stroke-linecap:round;stroke-linejoin:round;" d="M230.275,298.25c0,0,1.25,6.25,4.25,9.5c1.449,1.569,15.5,1.625,15.5,1.625S236.65,297.75,230.275,298.25z"></path><path style="fill:#505050;stroke:#000000;stroke-linecap:round;stroke-linejoin:round;" d="M269.725,298.25c0,0-1.25,6.25-4.25,9.5c-1.449,1.569-15.5,1.625-15.5,1.625S263.35,297.75,269.725,298.25z"></path></g><path style="fill:#505050;stroke:#000000;stroke-linecap:round;stroke-linejoin:round;" d="M247.226,311.5c0,0-3.125,8.875-3.375,16.125s5,18.375,7,19.75c2.747-7.125,5.316-15.426,5.622-16.625c1.625-6.375-2.023-16.684-3.574-19.029C250.601,311.625,247.226,311.5,247.226,311.5z"></path><path style="fill:#505050;stroke:#000000;stroke-linecap:round;stroke-linejoin:round;" d="M253.699,305.795l-3.7,0.385l-3.698-0.385c0.114,2.788-0.185,4.818,0.399,5.926c0.335,0.168,1.953,1.195,3.299,1.006c1.349,0.189,2.966-0.838,3.302-1.006C253.885,310.613,253.584,308.583,253.699,305.795z"></path></g></g></g></g></g></svg>