<svg xmlns="http://www.w3.org/2000/svg" width="500" height="500" version="1.1"><g id="x094"><g><g><g><path style="fill:#FFFFFF;" d="M224.47,289.166c0,0-3.333,3.668-4.833,5.834s-9.167,22.833-9.167,22.833s-3.333,2.667-3.333,3.167c-0.167,1.833,0.167,5,0.167,5s-11.025,19.083-13.858,25.75c5.5,4.334,22,9.25,22,9.25s9.525-29.667,10.858-34.167c1.5-7.333,6-28.833,6-28.833L224.47,289.166z"></path><path style="fill:#505050;" d="M197.133,344.813c0,0,15.75,6.563,20.813,8.938c-0.563,2.063-2.313,6.938-2.313,6.938s-17-4.75-21.75-8.938C195.008,348.375,197.133,344.813,197.133,344.813z"></path><path style="fill:none;stroke:#000000;stroke-linecap:round;stroke-linejoin:round;" d="M224.47,289.166c0,0-3.333,3.668-4.833,5.834s-9.167,22.833-9.167,22.833s-3.333,2.667-3.333,3.167c-0.167,1.833,0.167,5,0.167,5s-11.025,19.083-13.858,25.75c5.5,4.334,22,9.25,22,9.25s9.525-29.667,10.858-34.167c1.5-7.333,6-28.833,6-28.833L224.47,289.166z"></path><path style="fill:#DCDCDC;" d="M211.804,320.666c0,0-0.5,6.334,0.667,7.667s4.167,4.001,5.333,3.667C215.637,327,211.804,320.666,211.804,320.666z"></path><path style="fill:#DCDCDC;" d="M226.971,301.667c0,0-3.333,1.499-4.5,2.666s0,8.667,3,10.667C227.804,308.333,226.971,301.667,226.971,301.667z"></path><path style="fill:none;stroke:#000000;stroke-linecap:round;stroke-linejoin:round;" d="M221.804,303.833c0,0,1.167,4.333,4.167,8.333"></path><path style="fill:none;stroke:#000000;stroke-linecap:round;stroke-linejoin:round;" d="M207.37,325.333c0,0,0.5,2.999,3,7.833"></path></g><g><path style="fill:#FFFFFF;" d="M275.529,289.166c0,0,3.334,3.668,4.834,5.834s9.166,22.833,9.166,22.833s3.334,2.667,3.334,3.167c0.166,1.833-0.167,5-0.167,5s11.025,19.083,13.858,25.75c-5.5,4.334-22,9.25-22,9.25s-9.525-29.667-10.858-34.167c-1.5-7.333-6-28.833-6-28.833L275.529,289.166z"></path><path style="fill:#505050;" d="M302.867,344.813c0,0-15.75,6.563-20.813,8.938c0.563,2.063,2.313,6.938,2.313,6.938s17-4.75,21.75-8.938C304.992,348.375,302.867,344.813,302.867,344.813z"></path><path style="fill:none;stroke:#000000;stroke-linecap:round;stroke-linejoin:round;" d="M275.529,289.166c0,0,3.334,3.668,4.834,5.834s9.166,22.833,9.166,22.833s3.334,2.667,3.334,3.167c0.166,1.833-0.167,5-0.167,5s11.025,19.083,13.858,25.75c-5.5,4.334-22,9.25-22,9.25s-9.525-29.667-10.858-34.167c-1.5-7.333-6-28.833-6-28.833L275.529,289.166z"></path><path style="fill:#DCDCDC;" d="M288.196,320.666c0,0,0.501,6.334-0.667,7.667c-1.166,1.333-4.166,4.001-5.333,3.667C284.363,327,288.196,320.666,288.196,320.666z"></path><path style="fill:#DCDCDC;" d="M273.029,301.667c0,0,3.334,1.499,4.5,2.666s0,8.667-3,10.667C272.195,308.333,273.029,301.667,273.029,301.667z"></path><path style="fill:none;stroke:#000000;stroke-linecap:round;stroke-linejoin:round;" d="M278.196,303.833c0,0-1.167,4.333-4.167,8.333"></path><path style="fill:none;stroke:#000000;stroke-linecap:round;stroke-linejoin:round;" d="M292.63,325.333c0,0-0.5,2.999-3,7.833"></path></g></g><g><path style="fill:#FFFFFF;stroke:#000000;stroke-linecap:round;stroke-linejoin:round;" d="M277.333,326.333c-0.333-3.5-3.166-17.333-3.333-20.5s-3.667-11.333-3.667-11.333l-20.5,11.5l-20.5-11.5c0,0-3.5,8.166-3.667,11.333s-3,17-3.333,20.5c-0.5,1.167-9.5,32-8.833,39.667c9.667,3.667,36.333,3.833,36.333,3.833s26.667-0.166,36.333-3.833C286.833,358.333,277.833,327.5,277.333,326.333z"></path><path style="fill:none;stroke:#000000;stroke-linecap:round;stroke-linejoin:round;" d="M226.875,312.25c0,0,8.375-2.25,23.375-2.25s22.875,2.25,22.875,2.25"></path><g><g><g><path style="fill:#505050;stroke:#000000;stroke-linecap:round;stroke-linejoin:round;" d="M230.275,298.25c0,0,1.25,6.25,4.25,9.5c1.449,1.569,15.5,1.625,15.5,1.625S236.65,297.75,230.275,298.25z"></path><path style="fill:#505050;stroke:#000000;stroke-linecap:round;stroke-linejoin:round;" d="M269.725,298.25c0,0-1.25,6.25-4.25,9.5c-1.449,1.569-15.5,1.625-15.5,1.625S263.35,297.75,269.725,298.25z"></path></g><g><path style="fill:#505050;stroke:#000000;stroke-linecap:round;stroke-linejoin:round;" d="M248.65,307.22c0,0-0.9,14.399-4.5,17.399s-11.1,8.7-11.1,8.7s0.3-13.8,3.899-17.7C240.551,311.72,248.65,307.22,248.65,307.22z"></path><path style="fill:#505050;stroke:#000000;stroke-linecap:round;stroke-linejoin:round;" d="M251.35,307.22c0,0,0.9,14.399,4.5,17.399s11.1,8.7,11.1,8.7s-0.299-13.8-3.898-17.7C259.449,311.72,251.35,307.22,251.35,307.22z"></path></g><path style="fill:#505050;stroke:#000000;stroke-linecap:round;stroke-linejoin:round;" d="M253.699,305.795l-3.7,0.385l-3.698-0.385c0.114,2.788-0.185,4.818,0.399,5.926c0.335,0.168,1.953,1.195,3.299,1.006c1.349,0.189,2.966-0.838,3.302-1.006C253.885,310.613,253.584,308.583,253.699,305.795z"></path></g></g></g></g></g></svg>