<svg xmlns="http://www.w3.org/2000/svg" width="500" height="500" version="1.1"><g id="x095"><g><path style="fill:#FFFFFF;stroke:#000000;stroke-linecap:round;stroke-linejoin:round;" d="M274.167,305.833C274,302.666,270.5,294.5,270.5,294.5L250,306l-20.5-11.5c0,0-3.5,8.166-3.666,11.333c-0.124,2.361,0.27,10.65-0.679,16.167h49.689C273.897,316.483,274.292,308.194,274.167,305.833z"></path><g><g><g><path style="fill:#505050;stroke:#000000;stroke-linecap:round;stroke-linejoin:round;" d="M230.275,298.25c0,0,1.25,6.25,4.25,9.5c1.449,1.569,15.5,1.625,15.5,1.625S236.65,297.75,230.275,298.25z"></path><path style="fill:#505050;stroke:#000000;stroke-linecap:round;stroke-linejoin:round;" d="M269.725,298.25c0,0-1.25,6.25-4.25,9.5c-1.449,1.569-15.5,1.625-15.5,1.625S263.35,297.75,269.725,298.25z"></path></g><g><path style="fill:#505050;stroke:#000000;stroke-linecap:round;stroke-linejoin:round;" d="M252.7,311.286l-2.7,0.258l-2.7-0.258c0,0-6.199,9.2-7,18.801c2.2,1.399,3.801,0.999,3.801,0.999l1,3.4c0,0,0.168,1.33,4.899,1.261c4.731,0.069,4.901-1.261,4.901-1.261l1-3.4c0,0,1.6,0.4,3.799-0.999C258.901,320.486,252.7,311.286,252.7,311.286z"></path><path style="fill:none;stroke:#000000;stroke-linecap:round;stroke-linejoin:round;" d="M244.7,332.286c0,0,0.2-4.8,1.2-9"></path></g><path style="fill:#505050;stroke:#000000;stroke-linecap:round;stroke-linejoin:round;" d="M253.699,305.795l-3.7,0.385l-3.698-0.385c0.114,2.788-0.185,4.818,0.399,5.926c0.335,0.168,1.953,1.195,3.299,1.006c1.349,0.189,2.966-0.838,3.302-1.006C253.885,310.613,253.584,308.583,253.699,305.795z"></path></g></g></g></g></svg>