<svg xmlns="http://www.w3.org/2000/svg" width="500" height="500" version="1.1"><g id="x096"><g><g><g><g><path style="fill:#6E6E6E;stroke:#000000;stroke-linecap:round;stroke-linejoin:round;" d="M224.262,289.166c0,0-3.333,3.668-4.833,5.834s-7.767,19.833-7.767,19.833S208.33,317.5,208.33,318c-0.167,1.833,0.167,5,0.167,5s-1.957,4.51-5.434,12.25c-2.075,2.751-3.408,4.918-3.408,4.918s0.033,4.082,0.408,5.707c6.125,2.75,12.5,5.25,12.5,5.25s4.25-2.875,5.125-4.375c0.125-1,7.563-17.062,8.409-19.917c1.5-7.333,6-28.833,6-28.833L224.262,289.166z"></path><path style="fill:#505050;" d="M212.996,317.666c0,0-0.5,6.334,0.667,7.667s4.167,4.001,5.333,3.667C216.83,324,212.996,317.666,212.996,317.666z"></path><path style="fill:#505050;" d="M226.763,301.667c0,0-3.333,1.499-4.5,2.666s0,8.667,3,10.667C227.596,308.333,226.763,301.667,226.763,301.667z"></path><path style="fill:none;stroke:#000000;stroke-linecap:round;stroke-linejoin:round;" d="M221.596,303.833c0,0,1.167,4.333,4.167,8.333"></path><path style="fill:none;stroke:#000000;stroke-linecap:round;stroke-linejoin:round;" d="M208.663,322.333c0,0,0.5,2.999,3,7.833"></path></g><g><path style="fill:#6E6E6E;stroke:#000000;stroke-linecap:round;stroke-linejoin:round;" d="M199.737,346.25c0,0-2.5,4.75-2.5,5.5c1.125,1.75,8.625,5.375,12.75,5.5c1.5-3.375,2.875-6.125,2.875-6.125L199.737,346.25z"></path><path style="fill:#FFFFFF;" d="M198.654,349.626c0,0,4.541,3.375,11.958,4.875c0.333-0.5,0.5-1.125,0.5-1.125s-8.583-2.542-11.875-4.959C198.904,348.792,198.654,349.626,198.654,349.626z"></path></g></g><g><g><path style="fill:#6E6E6E;stroke:#000000;stroke-linecap:round;stroke-linejoin:round;" d="M275.737,289.166c0,0,3.333,3.668,4.833,5.834s7.767,19.833,7.767,19.833s3.333,2.667,3.333,3.167c0.167,1.833-0.167,5-0.167,5s1.957,4.51,5.435,12.25c2.075,2.751,3.408,4.918,3.408,4.918s-0.033,4.082-0.408,5.707c-6.125,2.75-12.5,5.25-12.5,5.25s-4.25-2.875-5.125-4.375c-0.125-1-7.563-17.062-8.409-19.917c-1.5-7.333-6-28.833-6-28.833L275.737,289.166z"></path><path style="fill:#505050;" d="M287.003,317.666c0,0,0.501,6.334-0.666,7.667s-4.167,4.001-5.334,3.667C283.17,324,287.003,317.666,287.003,317.666z"></path><path style="fill:#505050;" d="M273.237,301.667c0,0,3.333,1.499,4.5,2.666c1.166,1.167,0,8.667-3,10.667C272.403,308.333,273.237,301.667,273.237,301.667z"></path><path style="fill:none;stroke:#000000;stroke-linecap:round;stroke-linejoin:round;" d="M278.403,303.833c0,0-1.166,4.333-4.166,8.333"></path><path style="fill:none;stroke:#000000;stroke-linecap:round;stroke-linejoin:round;" d="M291.337,322.333c0,0-0.5,2.999-3,7.833"></path></g><g><path style="fill:#6E6E6E;stroke:#000000;stroke-linecap:round;stroke-linejoin:round;" d="M300.263,346.25c0,0,2.5,4.75,2.5,5.5c-1.125,1.75-8.625,5.375-12.75,5.5c-1.5-3.375-2.875-6.125-2.875-6.125L300.263,346.25z"></path><path style="fill:#FFFFFF;" d="M301.345,349.626c0,0-4.541,3.375-11.957,4.875c-0.334-0.5-0.5-1.125-0.5-1.125s8.582-2.542,11.875-4.959C301.095,348.792,301.345,349.626,301.345,349.626z"></path></g></g></g><g><path style="fill:#6E6E6E;stroke:#000000;stroke-linecap:round;stroke-linejoin:round;" d="M275.5,326.333c-0.334-3.5-1.166-17.333-1.334-20.5C274,302.666,270.5,294.5,270.5,294.5L250,306l-20.5-11.5c0,0-3.5,8.166-3.666,11.333c-0.167,3.167-1,17-1.334,20.5c-0.274,0.642-3.116,11.735-5.51,20.168c0,0,2.844,4.5,31.01,4.5s31.01-4.5,31.01-4.5C278.615,338.068,275.773,326.975,275.5,326.333z"></path><g><g><g><path style="fill:#323232;stroke:#000000;stroke-linecap:round;stroke-linejoin:round;" d="M230.441,298.25c0,0,1.25,6.25,4.25,9.5c1.449,1.569,15.5,1.625,15.5,1.625S236.816,297.75,230.441,298.25z"></path><path style="fill:#323232;stroke:#000000;stroke-linecap:round;stroke-linejoin:round;" d="M269.891,298.25c0,0-1.25,6.25-4.25,9.5c-1.449,1.569-15.499,1.625-15.499,1.625S263.516,297.75,269.891,298.25z"></path></g><g><path style="fill:#323232;stroke:#000000;stroke-linecap:round;stroke-linejoin:round;" d="M248.817,307.22c0,0-0.9,14.399-4.5,17.399s-11.1,8.7-11.1,8.7s0.3-13.8,3.899-17.7C240.718,311.72,248.817,307.22,248.817,307.22z"></path><path style="fill:#323232;stroke:#000000;stroke-linecap:round;stroke-linejoin:round;" d="M251.516,307.22c0,0,0.9,14.399,4.5,17.399s11.1,8.7,11.1,8.7s-0.299-13.8-3.898-17.7C259.615,311.72,251.516,307.22,251.516,307.22z"></path></g><path style="fill:#323232;stroke:#000000;stroke-linecap:round;stroke-linejoin:round;" d="M253.865,305.795l-3.699,0.385l-3.698-0.385c0.114,2.788-0.185,4.818,0.399,5.926c0.335,0.168,1.953,1.195,3.299,1.006c1.348,0.189,2.965-0.838,3.301-1.006C254.051,310.613,253.75,308.583,253.865,305.795z"></path></g></g></g></g></g></svg>