<svg xmlns="http://www.w3.org/2000/svg" width="500" height="500" version="1.1"><g id="x097"><g><g><g><path style="fill:#6E6E6E;stroke:#000000;stroke-linecap:round;stroke-linejoin:round;" d="M225.667,288c0,0-4.5,5.5-7.833,11.5S209.5,321,209.5,321s-11.166,27.167-12.333,30.5c2.333,2.166,11.833,6.166,11.833,6.166s8.5-15,11.333-20.5S226,321.833,226,321.833l5.5-27.333L225.667,288z"></path><path style="fill:#505050;" d="M226.763,301.667c0,0-3.333,1.499-4.5,2.666s0,8.667,3,10.667C227.596,308.333,226.763,301.667,226.763,301.667z"></path><path style="fill:none;stroke:#000000;stroke-linecap:round;stroke-linejoin:round;" d="M221.596,303.833c0,0,1.167,4.333,4.167,8.333"></path></g><g><path style="fill:#6E6E6E;stroke:#000000;stroke-linecap:round;stroke-linejoin:round;" d="M274.231,288c0,0,4.5,5.5,7.833,11.5c3.334,6,8.334,21.5,8.334,21.5s11.166,27.167,12.333,30.5c-2.333,2.166-11.833,6.166-11.833,6.166s-8.5-15-11.334-20.5c-2.833-5.5-5.666-15.333-5.666-15.333l-5.5-27.333L274.231,288z"></path><path style="fill:#505050;" d="M273.136,301.667c0,0,3.333,1.499,4.5,2.666s0,8.667-3,10.667C272.303,308.333,273.136,301.667,273.136,301.667z"></path><path style="fill:none;stroke:#000000;stroke-linecap:round;stroke-linejoin:round;" d="M278.303,303.833c0,0-1.166,4.333-4.166,8.333"></path></g></g><g><g><path style="fill:#6E6E6E;stroke:#000000;stroke-linecap:round;stroke-linejoin:round;" d="M275.665,329c-0.5-1.667-0.666-3.5-0.666-4s-0.334-16.168-0.834-18.834s-3.666-11.666-3.666-11.666l3.666-6.5c0,0-4-3.166-7-5c-3,4.166-17.164,10.834-17.164,10.834s-14.167-6.668-17.167-10.834c-3,1.834-7,5-7,5l3.667,6.5c0,0-3.167,9-3.667,11.666S225.001,324.5,225.001,325s-0.167,2.333-0.667,4c-7,12-11.333,33.666-10.833,39.166c1.833,1.5,9,3,9,3s1-1,1.833-2c0.667-0.5,3.5,0.167,3.5,0.167s0.333,0.833,0.667,1.333c0.333,0.5,9.333,0.5,9.833,0.5s2-1.333,3.333-2.333c0.667-0.166,8.334,0.833,8.334,0.833s7.666-0.999,8.332-0.833c1.332,1,2.832,2.333,3.332,2.333s9.5,0,9.834-0.5s0.666-1.333,0.666-1.333s2.834-0.667,3.5-0.167c0.834,1,1.834,2,1.834,2s7.166-1.5,9-3C286.999,362.666,282.665,341,275.665,329z"></path><g><path style="fill:#505050;" d="M223.737,368.875c0,0,1-0.938,4.313,0.188c-0.25-2.875-1.177-4.412-1.875-4.375C224.987,364.75,223.737,368.875,223.737,368.875z"></path><path style="fill:#505050;" d="M276.261,368.875c0,0-1-0.938-4.313,0.188c0.25-2.875,1.178-4.412,1.875-4.375C275.011,364.75,276.261,368.875,276.261,368.875z"></path></g></g><g><circle style="fill:#FFFFFF;stroke:#000000;stroke-linecap:round;stroke-linejoin:round;" cx="250" cy="305.125" r="2.375"></circle><circle style="fill:#FFFFFF;stroke:#000000;stroke-linecap:round;stroke-linejoin:round;" cx="250" cy="316.375" r="2.375"></circle><circle style="fill:#FFFFFF;stroke:#000000;stroke-linecap:round;stroke-linejoin:round;" cx="250" cy="327.625" r="2.375"></circle><circle style="fill:#FFFFFF;stroke:#000000;stroke-linecap:round;stroke-linejoin:round;" cx="250" cy="338.875" r="2.375"></circle></g></g></g></g></svg>