<svg xmlns="http://www.w3.org/2000/svg" width="500" height="500" version="1.1"><g id="x098"><g><path style="fill:#6E6E6E;stroke:#000000;stroke-linecap:round;stroke-linejoin:round;" d="M274.597,312.171l4.57-2.17L279,304.667c0,0,1.334,1.667,2.667,4.5l5.833-2.5c0,0-4.866-10.666-8.866-15.833c-3.343-4.317-11.968-8.332-12.968-8.665c0,0,0.668,10.832-4.332,13.665s-9.668,2-9.668,2l-1.666,7l-1.667-7c0,0-4.667,0.833-9.667-2s-4.333-13.665-4.333-13.665c-1,0.333-9.625,4.348-12.967,8.665c-4,5.167-8.866,15.833-8.866,15.833l5.833,2.5c1.333-2.833,2.667-4.5,2.667-4.5l-0.167,5.334l4.57,2.17c-0.409,5.725-0.737,12.514-0.737,13.663c0,1.833-5.833,15.5-7,22c3.344,1.295,9.054,0.775,13.531,0.473l2.302-6.14l0.835,5.983c1.043-0.018,1.905,0.027,2.499,0.184c2.431,0.64,8.882,1.475,11.752,1.829c0.656-1.312,1.582-3.162,1.582-3.162l2.275,3.033c3.17-0.401,8.553-1.129,10.724-1.7c1.102-0.29,3.14-0.195,5.535-0.034l0.633-4.299l3.422,4.562c3.523,0.192,7.167,0.205,9.578-0.729c-1.168-6.5-7-20.167-7-22C275.334,324.685,275.006,317.896,274.597,312.171z"></path><path style="fill:#505050;" d="M229.375,295.156c0,0-3.946-0.157-5.112,1.01s-0.044,7.115,2.05,9.959C227.156,300.469,229.375,295.156,229.375,295.156z"></path><path style="fill:none;stroke:#000000;stroke-linecap:round;stroke-linejoin:round;" d="M223.496,295.666c0,0,0.958,3.557,3.369,7.2"></path><path style="fill:none;stroke:#000000;stroke-linecap:round;stroke-linejoin:round;" d="M225.403,312.171c0,0,0.568-6.815,1.94-10.765c1.281-3.688,2.344-6,2.344-6"></path><path style="fill:#505050;" d="M270.625,295.156c0,0,3.945-0.157,5.112,1.01s0.044,7.115-2.05,9.959C272.844,300.469,270.625,295.156,270.625,295.156z"></path><path style="fill:none;stroke:#000000;stroke-linecap:round;stroke-linejoin:round;" d="M276.504,295.666c0,0-0.957,3.557-3.369,7.2"></path><path style="fill:none;stroke:#000000;stroke-linecap:round;stroke-linejoin:round;" d="M274.597,312.171c0,0-0.568-6.815-1.94-10.765c-1.281-3.688-2.344-6-2.344-6"></path></g></g></svg>