<svg xmlns="http://www.w3.org/2000/svg" width="500" height="500" version="1.1"><g id="x099"><g><g><path style="fill:#6E6E6E;stroke:#000000;stroke-linecap:round;stroke-linejoin:round;" d="M310.666,359.666c-0.5-0.833-2.166-3.999-2.666-4.333c-0.166-1.5,0.334-2.834-0.334-3.667c-0.666-0.833-2.5-3.333-5.166-5.333c0,0-1-6.374-3-10.5c-2.666-5.5-7.834-12.667-9.5-14.833c-6.5-27-17.832-34.5-17.832-34.5c-3.5,7.167-22.168,6.833-22.168,6.833s-18.667,0.334-22.167-6.833c0,0-11.333,7.5-17.833,34.5c-1.667,2.166-6.833,9.333-9.5,14.833c-2,4.126-3,10.5-3,10.5c-2.667,2-4.5,4.5-5.167,5.333s-0.167,2.167-0.333,3.667c-0.5,0.334-2.167,3.5-2.667,4.333S188.5,362,189,363.166c0,0,7.167-4.666,11.833-2.833s6.333,5.5,6.333,5.5s1.167-0.167,3.333-2.667c1.5-2.334,1.5-7.5,1.5-7.5s3.667-4.833,6.167-9.833s6.667-20.5,6.667-20.5L226,313.167l24-0.5l24,0.5l1.168,12.166c0,0,4.166,15.5,6.666,20.5s6.166,9.833,6.166,9.833s0,5.166,1.5,7.5c2.166,2.5,3.334,2.667,3.334,2.667s1.666-3.667,6.332-5.5c4.668-1.833,11.834,2.833,11.834,2.833C311.5,362,311.166,360.499,310.666,359.666z"></path><g><g><path style="fill:#505050;" d="M228.834,297c0,0-3.167,1.333-4.167,3.333s0.333,6.001,1.333,6.834C227.667,302.667,228.834,297,228.834,297z"></path><path d="M191.833,356.166c0,0,1-1.666,7.833-0.833s11.833,5.833,11.833,5.833s0.333-3.834,0.167-5c-1.167-2.333-4.706-5.004-10.333-5.666c-5.667-0.667-9,1.166-9,1.166L191.833,356.166z"></path><path d="M198,345.333c0,0,3.667-1.001,9.167,1.333s7.167,5.667,7.167,5.667l2.833-4.667c0,0-2.35-4.245-8-6.333c-7.667-2.833-10.667-1.167-10.667-1.167L198,345.333z"></path><path d="M201.667,334.166c0,0,4.63-0.605,10.167,2c5.667,2.667,7.833,6.5,7.833,6.5l1.667-5.666c0,0-1.833-3.5-7.167-6c-5.333-2.5-10-1.834-10-1.834L201.667,334.166z"></path><path d="M208.167,324.666c0,0,4.892,0.05,8.333,1.834c4.5,2.333,6.667,5.5,6.667,5.5l1.667-5.334c0,0-0.999-3.166-6-5.333c-4.658-2.019-8.334-1.667-8.334-1.667L208.167,324.666z"></path><path d="M212,315c0,0,6.5-0.334,12.667,4.333c0.667-2.666,1-5.5,1-5.5s-5.5-4.5-12.5-3.5C212.167,312.833,212,315,212,315z"></path><path d="M215,305.5c0,0,6-0.5,10.833,3.5c1.5-3.334,1.5-5.167,1.5-5.167s-1.333-3.332-10-3.666C216,302.333,215,305.5,215,305.5z"></path><path style="fill:#3F3F3F;stroke:#000000;stroke-linecap:round;stroke-linejoin:round;" d="M225.167,297.166c0,0,1.167,3.833,2.333,5.5"></path><path style="fill:#3F3F3F;stroke:#000000;stroke-linecap:round;stroke-linejoin:round;" d="M228.301,299.5c0,0,0.5-2.167,2.333-5.334"></path></g><g><path style="fill:#505050;" d="M271.166,297c0,0,3.168,1.333,4.168,3.333S275,306.334,274,307.167C272.334,302.667,271.166,297,271.166,297z"></path><path d="M308.166,356.166c0,0-1-1.666-7.832-0.833c-6.834,0.833-11.834,5.833-11.834,5.833s-0.332-3.834-0.166-5c1.166-2.333,4.705-5.004,10.332-5.666c5.668-0.667,9,1.166,9,1.166L308.166,356.166z"></path><path d="M302,345.333c0,0-3.666-1.001-9.166,1.333s-7.166,5.667-7.166,5.667l-2.834-4.667c0,0,2.35-4.245,8-6.333c7.666-2.833,10.666-1.167,10.666-1.167L302,345.333z"></path><path d="M298.334,334.166c0,0-4.631-0.605-10.168,2c-5.666,2.667-7.832,6.5-7.832,6.5L278.666,337c0,0,1.834-3.5,7.168-6c5.332-2.5,10-1.834,10-1.834L298.334,334.166z"></path><path d="M291.834,324.666c0,0-4.893,0.05-8.334,1.834c-4.5,2.333-6.666,5.5-6.666,5.5l-1.666-5.334c0,0,0.998-3.166,5.998-5.333c4.658-2.019,8.334-1.667,8.334-1.667L291.834,324.666z"></path><path d="M288,315c0,0-6.5-0.334-12.666,4.333c-0.668-2.666-1-5.5-1-5.5s5.5-4.5,12.5-3.5C287.834,312.833,288,315,288,315z"></path><path d="M285,305.5c0,0-6-0.5-10.834,3.5c-1.5-3.334-1.5-5.167-1.5-5.167s1.334-3.332,10-3.666C284,302.333,285,305.5,285,305.5z"></path><path style="fill:#3F3F3F;stroke:#000000;stroke-linecap:round;stroke-linejoin:round;" d="M274.834,297.166c0,0-1.168,3.833-2.334,5.5"></path><path style="fill:#3F3F3F;stroke:#000000;stroke-linecap:round;stroke-linejoin:round;" d="M271.699,299.5c0,0-0.5-2.167-2.332-5.334"></path></g></g></g><path style="fill:#505050;stroke:#000000;stroke-linecap:round;stroke-linejoin:round;" d="M275.334,326.333c0,0-0.334-15.333-1.334-19.5s-2.5-8.667-2.5-8.667C267.334,301.999,250,302,250,302s-17.334-0.001-21.5-3.834c0,0-1.5,4.5-2.5,8.667s-1.334,19.5-1.334,19.5s-5.667,19.167-7,24.167c4.5,3.166,13.834,5,32.334,5s27.834-1.834,32.334-5C281,345.5,275.334,326.333,275.334,326.333z"></path></g></g></svg>