<svg xmlns="http://www.w3.org/2000/svg" width="500" height="500" version="1.1"><g id="x9016"><g><g><path style="fill:#FEFBF6;stroke:#A84A56;stroke-linecap:round;stroke-linejoin:round;" d="M189.132,214.178c0,0-34.044-26.769-35.79-25.896c-1.745,0.873,16.295,56.448,45.683,65.468C199.024,237.456,189.132,214.178,189.132,214.178z"></path><g><path style="fill:none;stroke:#A84A56;stroke-linecap:round;stroke-linejoin:round;" d="M193.787,236.583c0,0-9.021-21.241-32.298-36.081"></path><path style="fill:none;stroke:#A84A56;stroke-linecap:round;stroke-linejoin:round;" d="M181.739,218.833c0,0-4.365-2.91-6.692,0.873"></path></g></g><g><path style="fill:#FEFBF6;stroke:#A84A56;stroke-linecap:round;stroke-linejoin:round;" d="M310.868,214.178c0,0,34.044-26.769,35.79-25.896c1.745,0.873-16.295,56.448-45.683,65.468C300.976,237.456,310.868,214.178,310.868,214.178z"></path><g><path style="fill:none;stroke:#A84A56;stroke-linecap:round;stroke-linejoin:round;" d="M306.213,236.583c0,0,9.021-21.241,32.298-36.081"></path><path style="fill:none;stroke:#A84A56;stroke-linecap:round;stroke-linejoin:round;" d="M318.261,218.833c0,0,4.365-2.91,6.692,0.873"></path></g></g></g><g><g><path style="fill:#A84A56;" d="M195.26,246.161c0,0.061,0.038,0.649,0.068,0.878c0.406,3.035,2.851,12.875,8.499,18.061c9.168,8.417,26.303,11.37,26.303,11.37s-19.058-6.109-26.723-14.226l-8.146-16.022"></path><path style="fill:#A84A56;" d="M304.379,246.161c0,0.061-0.039,0.649-0.069,0.878c-0.405,3.035-2.851,12.875-8.498,18.061c-9.169,8.417-26.303,11.37-26.303,11.37s19.058-6.109,26.723-14.226l8.147-16.022"></path></g><path style="fill:#A84A56;" d="M195.175,246.161c0,0.061,0.037,0.649,0.067,0.878c0.406,3.035,2.852,12.875,8.499,18.061c9.169,8.417,26.303,11.37,26.303,11.37s-19.058-6.109-26.723-14.226l-8.146-16.022"></path><path style="fill:#A84A56;" d="M304.294,246.161c0,0.061-0.039,0.649-0.069,0.878c-0.405,3.035-2.851,12.875-8.498,18.061c-9.169,8.417-26.303,11.37-26.303,11.37s19.058-6.109,26.723-14.226l8.147-16.022"></path><path style="fill:#FEFBF6;stroke:#A84A56;stroke-linecap:round;stroke-linejoin:round;" d="M250,126c-98.666,0-63.287,92.758-61.35,101.153c1.938,8.396,7.104,20.989,10.333,30.03C210.607,278.816,250,278.493,250,278.493s39.393,0.323,51.018-21.311c3.229-9.041,8.394-21.634,10.332-30.03C313.287,218.758,348.665,126,250,126z"></path></g><g><ellipse style="fill:#FEE6DB;" cx="250.086" cy="246.096" rx="3.5" ry="3.403"></ellipse><ellipse style="fill:#A84A56;" cx="250.079" cy="249.498" rx="0.681" ry="0.894"></ellipse></g></g></svg>