<svg xmlns="http://www.w3.org/2000/svg" width="500" height="500" version="1.1"><g id="x9019"><g><g><g><g><g><g><g><g><path style="fill:#FEFBF6;stroke:#A84A56;stroke-linecap:round;stroke-linejoin:round;" d="M250,126.005c-86.932,0.24-62.952,92.763-61.017,101.147c1.938,8.396,4.666,41.696,7.35,46.847c2.556,4.906,49.316,12.398,53.667,13.577c4.352-1.179,52.111-8.671,54.667-13.577c2.684-5.151,4.412-38.451,6.35-46.847C312.951,218.769,336.932,126.246,250,126.005z"></path></g></g><g><path style="fill:#FEE6DB;" d="M209.267,276.75c-1.5,0.333-4.417-1.083-4.417-1.083l-0.333-1.083c0,0-1.667-0.25-2.25-0.834s0.75-3.083,2.583-4.75c0,0-3.75,1.75-4.667,1.084c-0.519-0.377-0.263-1.609,0.056-2.607l7.444-9.227l-10.583,4.417L208.184,248l-10.041,5.221c-0.394-0.52-0.438-1.127-0.347-1.672c2.265-3.172,5.992-8.417,9.388-13.299c-1.772,1.329-6.819,5.049-10.005,7.396c-0.523-0.392-0.72-0.839-0.755-1.252c2.842-4.7,7.803-13.007,8.51-14.894c-3.107,1.998-8.31,5.761-11.446,8.058c-0.052-2.184,1.472-6.188,5.196-9.641c-2.833,2.417-8.667,4-8.667,4l0.938,7.506c-0.067,0.05-0.105,0.078-0.105,0.078s2.271,17.805,2.5,20.333c0.178,1.957,0.877,5.546,1.491,8.473l-0.075,0.028c0,0,0.004,1.754,0.981,4.133c0.064,0.285,0.103,0.45,0.103,0.45l0.058-0.071c0.154,0.347,0.327,0.704,0.525,1.071c1.583,2.75,14.25,5.167,14.25,5.167S210.434,278.167,209.267,276.75z"></path><path style="fill:#FEE6DB;" d="M290.733,276.75c1.5,0.333,4.416-1.083,4.416-1.083l0.334-1.083c0,0,1.666-0.25,2.25-0.834s-0.75-3.083-2.584-4.75c0,0,3.75,1.75,4.668,1.084c0.519-0.377,0.263-1.609-0.057-2.607l-7.444-9.227l10.583,4.417L291.816,248l10.041,5.221c0.394-0.52,0.438-1.127,0.347-1.672c-2.264-3.172-5.992-8.417-9.388-13.299c1.772,1.329,6.819,5.049,10.005,7.396c0.523-0.392,0.721-0.839,0.756-1.252c-2.843-4.7-7.803-13.007-8.511-14.894c3.107,1.998,8.31,5.761,11.446,8.058c0.052-2.184-1.473-6.188-5.196-9.641c2.833,2.417,8.667,4,8.667,4l-0.938,7.506c0.067,0.05,0.104,0.078,0.104,0.078s-2.27,17.805-2.5,20.333c-0.178,1.957-0.877,5.546-1.49,8.473l0.074,0.028c0,0-0.004,1.754-0.98,4.133c-0.064,0.285-0.104,0.45-0.104,0.45l-0.057-0.071c-0.154,0.347-0.328,0.704-0.525,1.071c-1.584,2.75-14.25,5.167-14.25,5.167S289.567,278.167,290.733,276.75z"></path></g><path style="fill:#FEFBF6;stroke:#A84A56;stroke-linecap:round;stroke-linejoin:round;" d="M211.666,273.833c0,0,4.719,6.667,6.192,10.667c3.244,4,27.718,6.333,32.142,6.333c4.423,0,28.897-2.333,32.142-6.333c1.475-4,6.192-10.667,6.192-10.667"></path></g><g><polygon style="fill:#FEE6DB;" points="254.748,214.333 255.102,223.5 262.602,217 "></polygon><polygon style="fill:#FEE6DB;" points="245.035,214.333 244.681,223.5 237.181,217 "></polygon><path style="fill:#FEE6DB;" d="M250,252.516c-5.041,0-10.083-4.599-10.083-4.599c1.833,5.933,8.478,7.417,10.083,7.417s8.25-1.483,10.083-7.417C260.083,247.917,255.041,252.516,250,252.516z"></path><g><g><g><g><path style="fill:#A84A56;" d="M240.25,248c0,0,1.583,2.583,3,3c1.416,0.417,2.583,0.667,2.583,0.667S242.75,248.25,240.25,248z"></path><path style="fill:#A84A56;" d="M259.75,248c0,0-1.583,2.583-3,3s-2.583,0.667-2.583,0.667S257.25,248.25,259.75,248z"></path></g><path style="fill:none;stroke:#000000;stroke-linecap:round;stroke-linejoin:round;" d="M240.459,248.1c0,0,2.363,1.333,2.817,1.75c0.455,0.416,2.725,3.317,6.724,3.317c3.999,0,6.269-2.901,6.722-3.317c0.456-0.417,2.818-1.75,2.818-1.75"></path></g></g><g><path style="fill:none;stroke:#000000;stroke-linecap:round;stroke-linejoin:round;" d="M238.111,242c-2.106,2.74-0.805,5.405-0.805,5.405s3.37,0.429,4.37,1.345"></path><path style="fill:none;stroke:#000000;stroke-linecap:round;stroke-linejoin:round;" d="M261.889,242c2.106,2.74,0.805,5.405,0.805,5.405s-3.369,0.429-4.369,1.345"></path></g></g><path style="opacity:0.2;fill:#FFFFFF;" d="M250,222.5c0,0-1.526,19.859-1.313,22.873s1.313,4.793,1.313,4.793s1.1-1.78,1.313-4.793S250,222.5,250,222.5z"></path></g></g></g></g></g></g></g></svg>