<svg xmlns="http://www.w3.org/2000/svg" width="500" height="500" version="1.1"><g id="x010"><g><g><g><g><path style="fill:#FFFFFF;stroke:#000000;stroke-linecap:round;stroke-linejoin:round;" d="M315.182,258.425c0.594,1.189,24.405,20.834,29.167,22.619c3.869-2.68,6.549-8.035,6.549-8.035l-24.107-25.596L315.182,258.425z"></path><path style="fill:#E4E0F3;" d="M319.348,259.614c0,0,22.918,18.454,25.001,19.346c1.489-1.488,2.382-2.976,2.382-2.976l-22.024-19.94L319.348,259.614z"></path></g><path style="fill:#FFFFFF;stroke:#000000;stroke-linecap:round;stroke-linejoin:round;" d="M300.299,226.578c1.49-15.477,6.251-31.252,8.335-35.121c8.334-5.655,10.714-2.679,10.714-2.679s5.654,14.585,5.358,17.263C319.645,212.589,300.299,226.578,300.299,226.578z"></path><path style="fill:#E4E0F3;" d="M309.526,192.945c0,0-5.952,20.833-6.25,25.001c5.952-5.059,11.31-10.12,11.31-10.12S310.419,194.433,309.526,192.945z"></path><g><path style="fill:#666666;stroke:#000000;stroke-linecap:round;stroke-linejoin:round;" d="M308.931,262.889c0,0,16.369-6.251,19.347-12.5c1.19-10.714,0.596-19.644,0.596-19.644l-18.454,7.441L308.931,262.889z"></path><path style="fill:#484848;" d="M314.586,246.52c0,0,7.44-4.465,12.204,0.894c0.593-8.037,0.593-13.692,0.593-13.692S314.288,238.781,314.586,246.52z"></path></g><g><path style="fill:#FFFFFF;stroke:#000000;stroke-linecap:round;stroke-linejoin:round;" d="M303.871,219.732c0,0-6.548,11.906-8.035,46.134c11.31,1.785,12.201-0.299,12.201-0.299l5.954-21.132l16.964-11.607c0,0-3.572-23.512-7.738-28.275C311.906,208.72,303.871,219.732,303.871,219.732z"></path><path style="fill:#E4E0F3;" d="M302.681,230.15c0,0-4.761,23.214-4.168,33.632c2.68,0.894,8.037,0,8.037,0l5.356-21.133C311.906,242.649,303.276,239.674,302.681,230.15z"></path></g></g><g><g><path style="fill:#FFFFFF;stroke:#000000;stroke-linecap:round;stroke-linejoin:round;" d="M184.818,258.425c-0.596,1.189-24.405,20.834-29.168,22.619c-3.87-2.68-6.547-8.035-6.547-8.035l24.108-25.596L184.818,258.425z"></path><path style="fill:#E4E0F3;" d="M180.651,259.614c0,0-22.917,18.454-25.001,19.346c-1.488-1.488-2.382-2.976-2.382-2.976l22.026-19.94L180.651,259.614z"></path></g><path style="fill:#FFFFFF;stroke:#000000;stroke-linecap:round;stroke-linejoin:round;" d="M199.699,226.578c-1.487-15.477-6.25-31.252-8.334-35.121c-8.333-5.655-10.714-2.679-10.714-2.679s-5.655,14.585-5.357,17.263C180.354,212.589,199.699,226.578,199.699,226.578z"></path><path style="fill:#E4E0F3;" d="M190.473,192.945c0,0,5.953,20.833,6.251,25.001c-5.953-5.059-11.31-10.12-11.31-10.12S189.58,194.433,190.473,192.945z"></path><g><path style="fill:#666666;stroke:#000000;stroke-linecap:round;stroke-linejoin:round;" d="M191.069,262.889c0,0-16.371-6.251-19.346-12.5c-1.192-10.714-0.595-19.644-0.595-19.644l18.453,7.441L191.069,262.889z"></path><path style="fill:#484848;" d="M185.415,246.52c0,0-7.442-4.465-12.204,0.894c-0.595-8.037-0.595-13.692-0.595-13.692S185.71,238.781,185.415,246.52z"></path></g><g><path style="fill:#FFFFFF;stroke:#000000;stroke-linecap:round;stroke-linejoin:round;" d="M196.128,219.732c0,0,6.548,11.906,8.036,46.134c-11.31,1.785-12.204-0.299-12.204-0.299l-5.953-21.132l-16.965-11.607c0,0,3.572-23.512,7.739-28.275C188.092,208.72,196.128,219.732,196.128,219.732z"></path><path style="fill:#E4E0F3;" d="M197.318,230.15c0,0,4.763,23.214,4.167,33.632c-2.678,0.894-8.037,0-8.037,0l-5.357-21.133C188.092,242.649,196.724,239.674,197.318,230.15z"></path></g></g></g><g><g><g><path style="fill:#A84A56;" d="M195.174,246.161c0,0.061,0.038,0.649,0.068,0.878c0.406,3.035,2.851,12.875,8.499,18.061c9.168,8.417,26.303,11.37,26.303,11.37s-19.058-6.109-26.723-14.226l-8.146-16.022"></path><path style="fill:#A84A56;" d="M304.293,246.161c0,0.061-0.039,0.649-0.069,0.878c-0.405,3.035-2.851,12.875-8.498,18.061c-9.169,8.417-26.303,11.37-26.303,11.37s19.058-6.109,26.723-14.226l8.147-16.022"></path></g><path style="fill:#FEFBF6;stroke:#A84A56;stroke-linecap:round;stroke-linejoin:round;" d="M249.999,126c-87.333,0-63.287,92.758-61.35,101.153c1.938,8.396,7.104,20.989,10.333,30.03C210.606,278.816,250,278.493,250,278.493s39.392,0.323,51.017-21.311c3.229-9.041,8.394-21.634,10.332-30.03C313.286,218.758,337.332,126,249.999,126z"></path></g></g></g><g><ellipse style="fill:#FEE6DB;" cx="250" cy="246.096" rx="3.5" ry="3.403"></ellipse><ellipse style="fill:#A84A56;" cx="249.993" cy="249.498" rx="0.681" ry="0.894"></ellipse></g></g></svg>