<svg xmlns="http://www.w3.org/2000/svg" width="500" height="500" version="1.1"><g id="x011"><g><g><g><g><path style="fill:#F0F7FF;stroke:#000000;stroke-linecap:round;stroke-linejoin:round;" d="M333.217,228.116c5.525-7.942,14.156-62.155,14.849-64.226c0.69-2.072-1.727-13.122-3.454-17.957c-4.487,2.764-23.133,52.141-23.133,52.141L333.217,228.116z"></path><path style="fill:#E4E0F3;" d="M330.455,205.326l14.156-47.997l1.728,4.834c0,0-8.978,45.924-11.05,52.139C331.49,214.649,330.455,205.326,330.455,205.326z"></path></g><g><path style="fill:#3F3F3F;stroke:#000000;stroke-linecap:round;stroke-linejoin:round;" d="M292.474,240.892c0,0-1.728,19.337-0.348,22.789c1.383,3.452,11.396,2.417,14.159,2.072c2.762-0.345,27.622-23.825,30.387-30.386c1.035-11.395-2.072-20.372-2.765-21.063c-0.69-0.69-14.156-5.869-16.573-4.834C314.916,210.505,292.818,235.367,292.474,240.892z"></path><path style="opacity:0.5;fill:#FFFFFF;" d="M295.235,240.892c0,0,10.704,1.036,14.156-0.691c-0.689,3.107,0.514,3.398-2.762,4.489c-5.18,1.726-12.086,0.345-12.086,0.345L295.235,240.892z"></path><path style="fill:#323232;" d="M307.665,260.918c-1.021,0.171-0.346-17.264,1.727-20.717s23.825-19.682,23.825-19.682s2.418,11.395,1.383,14.157S311.81,260.229,307.665,260.918z"></path></g><path style="fill:#F0F7FF;stroke:#000000;stroke-linecap:round;stroke-linejoin:round;" d="M297.65,232.26c0,0,8.979,1.38,12.434,0.344c3.452-1.035,19.681-15.192,21.061-20.027c-1.38-6.561-8.977-23.825-12.084-24.861C315.954,186.679,297.65,219.828,297.65,232.26z"></path><path style="fill:#E4E0F3;" d="M313.054,228.253c0,0,13.812-11.394,15.884-15.193c-1.038-6.905-4.835-14.157-4.835-14.157S325.83,213.06,313.054,228.253z"></path><path style="fill:#FFFFFF;" d="M300.758,228.116c0,0,6.907-19.682,10.015-20.719c3.106-1.036,0.691,8.632-1.381,12.085S300.758,228.116,300.758,228.116z"></path></g><g><g><path style="fill:#F0F7FF;stroke:#000000;stroke-linecap:round;stroke-linejoin:round;" d="M166.783,228.116c-5.524-7.942-14.157-62.155-14.848-64.226c-0.691-2.072,1.726-13.122,3.453-17.957c4.488,2.764,23.135,52.141,23.135,52.141L166.783,228.116z"></path><path style="fill:#E4E0F3;" d="M169.544,205.326l-14.156-47.997l-1.728,4.834c0,0,8.978,45.924,11.05,52.139C168.509,214.649,169.544,205.326,169.544,205.326z"></path></g><g><path style="fill:#3F3F3F;stroke:#000000;stroke-linecap:round;stroke-linejoin:round;" d="M207.528,240.892c0,0,1.726,19.337,0.345,22.789c-1.382,3.452-11.395,2.417-14.157,2.072s-27.625-23.825-30.387-30.386c-1.035-11.396,2.073-20.373,2.762-21.064c0.691-0.69,14.158-5.869,16.574-4.834C185.084,210.505,207.183,235.367,207.528,240.892z"></path><path style="opacity:0.5;fill:#FFFFFF;" d="M204.766,240.892c0,0-10.704,1.036-14.158-0.691c0.691,3.107-0.512,3.398,2.762,4.489c5.181,1.726,12.086,0.345,12.086,0.345L204.766,240.892z"></path><path style="fill:#323232;" d="M192.335,260.918c1.022,0.171,0.345-17.264-1.727-20.717c-2.071-3.453-23.825-19.682-23.825-19.682s-2.417,11.395-1.38,14.157C166.437,237.438,188.191,260.229,192.335,260.918z"></path></g><path style="fill:#F0F7FF;stroke:#000000;stroke-linecap:round;stroke-linejoin:round;" d="M202.349,232.26c0,0-8.979,1.38-12.432,0.344c-3.453-1.035-19.682-15.192-21.063-20.027c1.38-6.561,8.977-23.825,12.085-24.861C184.047,186.679,202.349,219.828,202.349,232.26z"></path><path style="fill:#E4E0F3;" d="M186.947,228.253c0,0-13.811-11.394-15.883-15.193c1.037-6.905,4.835-14.157,4.835-14.157S174.171,213.06,186.947,228.253z"></path><path style="fill:#FFFFFF;" d="M199.24,228.116c0,0-6.905-19.682-10.014-20.719c-3.107-1.036-0.689,8.632,1.382,12.085C192.68,222.936,199.24,228.116,199.24,228.116z"></path></g></g><g><g><g><path style="fill:#A84A56;" d="M195.174,246.161c0,0.061,0.038,0.649,0.068,0.878c0.406,3.035,2.851,12.875,8.499,18.061c9.168,8.417,26.303,11.37,26.303,11.37s-19.058-6.109-26.723-14.226l-8.146-16.022"></path><path style="fill:#A84A56;" d="M304.293,246.161c0,0.061-0.039,0.649-0.069,0.878c-0.405,3.035-2.851,12.875-8.498,18.061c-9.169,8.417-26.303,11.37-26.303,11.37s19.058-6.109,26.723-14.226l8.147-16.022"></path></g><path style="fill:#FEFBF6;stroke:#A84A56;stroke-linecap:round;stroke-linejoin:round;" d="M249.999,126c-87.333,0-63.287,92.758-61.35,101.153c1.938,8.396,7.104,20.989,10.333,30.03C210.606,278.816,250,278.493,250,278.493s39.392,0.323,51.017-21.311c3.229-9.041,8.394-21.634,10.332-30.03C313.286,218.758,337.332,126,249.999,126z"></path></g></g></g><g><ellipse style="fill:#FEE6DB;" cx="250" cy="246.096" rx="3.5" ry="3.403"></ellipse><ellipse style="fill:#A84A56;" cx="249.993" cy="249.498" rx="0.681" ry="0.894"></ellipse></g></g></svg>