<svg xmlns="http://www.w3.org/2000/svg" width="500" height="500" version="1.1"><g id="x012"><g><g><g><g><path style="fill:#FFFFFF;stroke:#000000;stroke-linecap:round;stroke-linejoin:round;" d="M307.446,212.221c3.396-15.629,6.113-25.482,6.113-25.482c0-0.68,11.325-2.945,18.348,4.529c4.758,12.685,4.983,31.031,3.17,36.695c-1.811,5.663-15.399,17.893-15.399,17.893l-14.726-16.534C304.952,229.323,304.048,227.85,307.446,212.221z"></path><path style="fill:#E4E0F3;" d="M314.467,234.758c0,0,5.663,6.344,6.567,6.797c0.906,0.679,12.232-12.686,12.912-15.177c0.68-2.493-0.68-23.331-1.357-25.37c-0.682-2.037-8.156-4.982-10.194-2.49c-2.039,2.49-2.494,21.518-7.701,35.562"></path><g><path style="fill:#FFFFFF;stroke:#000000;stroke-linecap:round;stroke-linejoin:round;" d="M312.882,188.098c0,0,17.212-66.82,18.346-67.271c5.21,2.716,9.74,9.285,9.967,12.003c0.227,2.72-8.835,61.385-8.835,61.385L312.882,188.098z"></path><path style="fill:#E4E0F3;" d="M321.715,189.005c0,0,10.419-31.938,13.362-33.524c2.945-1.585-4.303,36.468-4.303,36.468L321.715,189.005z"></path><path style="fill:none;stroke:#000000;stroke-linecap:round;stroke-linejoin:round;" d="M326.924,135.55c0,0,6.114,0,12.004,8.154"></path></g></g><g><path style="fill:#FFFFFF;stroke:#000000;stroke-linecap:round;stroke-linejoin:round;" d="M306.901,231.816c0.905,1.358,11.778,8.831,13.136,12.911c-8.606,12.002-21.969,20.383-22.649,19.477C303.729,250.843,306.901,231.816,306.901,231.816z"></path><path style="fill:#E4E0F3;" d="M313.651,239.97c0,0,3.85,4.076,4.077,4.981c-1.812,2.717-13.137,13.59-16.536,14.95C309.573,251.067,313.651,239.97,313.651,239.97z"></path></g></g><g><g><path style="fill:#FFFFFF;stroke:#000000;stroke-linecap:round;stroke-linejoin:round;" d="M192.552,212.221c-3.397-15.629-6.115-25.482-6.115-25.482c0-0.68-11.324-2.945-18.346,4.529c-4.756,12.685-4.984,31.031-3.17,36.695c1.811,5.663,15.401,17.893,15.401,17.893l14.724-16.534C195.046,229.323,195.95,227.85,192.552,212.221z"></path><path style="fill:#E4E0F3;" d="M185.534,234.758c0,0-5.664,6.344-6.571,6.797c-0.905,0.679-12.231-12.686-12.911-15.177c-0.679-2.493,0.68-23.331,1.359-25.37c0.68-2.037,8.154-4.982,10.193-2.49c2.038,2.49,2.492,21.518,7.7,35.562"></path><g><path style="fill:#FFFFFF;stroke:#000000;stroke-linecap:round;stroke-linejoin:round;" d="M187.119,188.098c0,0-17.214-66.82-18.348-67.271c-5.209,2.716-9.741,9.285-9.965,12.003c-0.228,2.72,8.833,61.385,8.833,61.385L187.119,188.098z"></path><path style="fill:#E4E0F3;" d="M178.284,189.005c0,0-10.42-31.938-13.363-33.524c-2.945-1.585,4.303,36.468,4.303,36.468L178.284,189.005z"></path><path style="fill:none;stroke:#000000;stroke-linecap:round;stroke-linejoin:round;" d="M173.075,135.55c0,0-6.115,0-12.004,8.154"></path></g></g><g><path style="fill:#FFFFFF;stroke:#000000;stroke-linecap:round;stroke-linejoin:round;" d="M193.098,231.816c-0.904,1.358-11.777,8.831-13.136,12.911c8.607,12.002,21.971,20.383,22.649,19.477C196.27,250.843,193.098,231.816,193.098,231.816z"></path><path style="fill:#E4E0F3;" d="M186.348,239.97c0,0-3.851,4.076-4.077,4.981c1.812,2.717,13.137,13.59,16.534,14.95C190.425,251.067,186.348,239.97,186.348,239.97z"></path></g></g></g><g><g><g><path style="fill:#A84A56;" d="M195.174,246.161c0,0.061,0.038,0.649,0.068,0.878c0.406,3.035,2.851,12.875,8.499,18.061c9.168,8.417,26.303,11.37,26.303,11.37s-19.058-6.109-26.723-14.226l-8.146-16.022"></path><path style="fill:#A84A56;" d="M304.293,246.161c0,0.061-0.039,0.649-0.069,0.878c-0.405,3.035-2.851,12.875-8.498,18.061c-9.169,8.417-26.303,11.37-26.303,11.37s19.058-6.109,26.723-14.226l8.147-16.022"></path></g><path style="fill:#FEFBF6;stroke:#A84A56;stroke-linecap:round;stroke-linejoin:round;" d="M249.999,126c-87.333,0-63.287,92.758-61.35,101.153c1.938,8.396,7.104,20.989,10.333,30.03C210.606,278.816,250,278.493,250,278.493s39.392,0.323,51.017-21.311c3.229-9.041,8.394-21.634,10.332-30.03C313.286,218.758,337.332,126,249.999,126z"></path></g></g></g><g><ellipse style="fill:#FEE6DB;" cx="250" cy="246.096" rx="3.5" ry="3.403"></ellipse><ellipse style="fill:#A84A56;" cx="249.993" cy="249.498" rx="0.681" ry="0.894"></ellipse></g></g></svg>