<svg xmlns="http://www.w3.org/2000/svg" width="500" height="500" version="1.1"><g id="x9015"><g><path style="fill:#A84A56;" d="M195.26,246.161c0,0.061,0.038,0.649,0.068,0.878c0.406,3.035,2.851,12.875,8.499,18.061c9.168,8.417,26.303,11.37,26.303,11.37s-19.058-6.109-26.723-14.226l-8.146-16.022"></path><path style="fill:#A84A56;" d="M304.379,246.161c0,0.061-0.039,0.649-0.069,0.878c-0.405,3.035-2.851,12.875-8.498,18.061c-9.169,8.417-26.303,11.37-26.303,11.37s19.058-6.109,26.723-14.226l8.147-16.022"></path><g><g><path style="fill:#A84A56;" d="M195.175,246.161c0,0.061,0.037,0.649,0.067,0.878c0.406,3.035,2.852,12.875,8.499,18.061c9.169,8.417,26.303,11.37,26.303,11.37s-19.058-6.109-26.723-14.226l-8.146-16.022"></path><path style="fill:#A84A56;" d="M304.294,246.161c0,0.061-0.039,0.649-0.069,0.878c-0.405,3.035-2.851,12.875-8.498,18.061c-9.169,8.417-26.303,11.37-26.303,11.37s19.058-6.109,26.723-14.226l8.147-16.022"></path></g><g><path style="fill:#FEFBF6;stroke:#A84A56;stroke-linecap:round;stroke-linejoin:round;" d="M192.798,241.541c0,0-12.853-1.102-15.057-13.956c-2.204-12.853,7.712-12.853,7.712-12.853S197.94,234.197,192.798,241.541z"></path><path style="fill:#FEFBF6;stroke:#A84A56;stroke-linecap:round;stroke-linejoin:round;" d="M307.202,241.541c0,0,12.853-1.102,15.056-13.956c2.203-12.853-7.712-12.853-7.712-12.853S302.061,234.197,307.202,241.541z"></path></g><path style="fill:#FEFBF6;stroke:#A84A56;stroke-linecap:round;stroke-linejoin:round;" d="M250,126c-87.333,0-63.287,92.758-61.35,101.153c1.938,8.396,7.104,20.989,10.333,30.03C210.607,278.816,250,287.667,250,287.667s39.393-8.851,51.018-30.484c3.229-9.041,8.394-21.634,10.332-30.03C313.287,218.758,337.333,126,250,126z"></path></g></g><g><polygon style="opacity:0.2;fill:#8F0000;" points="254.748,214.333 255.102,223.5 262.602,217 "></polygon><polygon style="opacity:0.2;fill:#8F0000;" points="245.035,214.333 244.681,223.5 237.181,217 "></polygon><path style="opacity:0.2;fill:#8F0000;" d="M250,253.167c-4.167,0-8.333-4.167-8.333-4.167c1.515,6.666,7.007,8.333,8.333,8.333s6.819-1.667,8.334-8.333C258.334,249,254.166,253.167,250,253.167z"></path><path style="fill:#FEFBF6;stroke:#A84A56;stroke-linecap:round;stroke-linejoin:round;" d="M241.251,248.1c0,0,2.167,1.333,2.583,1.75c0.417,0.416,2.499,3.317,6.166,3.317c3.667,0,5.749-2.901,6.165-3.317c0.418-0.417,2.584-1.75,2.584-1.75"></path><path style="fill:#FFFFFF;" d="M250,222.5c0,0-3.583,19.859-3.083,22.873s3.083,4.793,3.083,4.793s2.582-1.78,3.082-4.793S250,222.5,250,222.5z"></path></g></g></svg>