<svg xmlns="http://www.w3.org/2000/svg" width="500" height="500" version="1.1"><g id="x003"><g><g><g><path style="fill:#FEFBF6;stroke:#A84A56;stroke-linecap:round;stroke-linejoin:round;" d="M302.743,232.076c0,0,25.745-6.4,31.708-3.055c5.964,3.346-17.018,18.908-26.472,22.835c-2.327,1.746-5.091,2.909-7.854,2.327c-2.764-0.581-4.364-2.473-4.364-2.473s-1.745-5.381,0.582-10.035S302.743,232.076,302.743,232.076z"></path><path style="fill:#FEE6DB;" d="M308.562,247.348c0,0-6.163,1.989-7.709-1.891c3.637-1.309,4.509-2.182,4.509-2.182l-0.872-4.363l8.145-2.909c0,0,5.673,0.582,5.673,2.618S311.471,247.493,308.562,247.348z"></path><path style="fill:none;stroke:#A84A56;stroke-linecap:round;stroke-linejoin:round;" d="M298.671,245.457c0.582,0,6.109-0.582,6.69-2.182c0.582-1.6-1.745-3.927-1.309-4.363s14.399-7.418,25.162-5.964"></path><path style="fill:none;stroke:#A84A56;stroke-linecap:round;stroke-linejoin:round;" d="M309.726,236.294c0,0,7.271-0.437,8.29,1.454s-2.764,4.654-2.764,4.654"></path><path style="fill:none;stroke:#A84A56;stroke-linecap:round;stroke-linejoin:round;" d="M301.58,246.766c0,0,2.618,2.183,4.945,1.019"></path></g><g><path style="fill:#FEFBF6;stroke:#A84A56;stroke-linecap:round;stroke-linejoin:round;" d="M198.506,232.076c0,0-25.744-6.4-31.708-3.055s17.018,18.908,26.472,22.835c2.327,1.746,5.09,2.909,7.854,2.327c2.764-0.581,4.363-2.473,4.363-2.473s1.746-5.381-0.582-10.035S198.506,232.076,198.506,232.076z"></path><path style="fill:#FEE6DB;" d="M192.688,247.348c0,0,6.164,1.989,7.709-1.891c-3.636-1.309-4.509-2.182-4.509-2.182l0.873-4.363l-8.145-2.909c0,0-5.673,0.582-5.673,2.618S189.78,247.493,192.688,247.348z"></path><path style="fill:none;stroke:#A84A56;stroke-linecap:round;stroke-linejoin:round;" d="M202.579,245.457c-0.582,0-6.109-0.582-6.691-2.182c-0.582-1.6,1.746-3.927,1.309-4.363c-0.436-0.437-14.399-7.418-25.162-5.964"></path><path style="fill:none;stroke:#A84A56;stroke-linecap:round;stroke-linejoin:round;" d="M191.525,236.294c0,0-7.272-0.437-8.291,1.454c-1.018,1.892,2.764,4.654,2.764,4.654"></path><path style="fill:none;stroke:#A84A56;stroke-linecap:round;stroke-linejoin:round;" d="M199.67,246.766c0,0-2.618,2.183-4.945,1.019"></path></g></g><g><g><g><path style="fill:#A84A56;" d="M195.174,246.161c0,0.061,0.038,0.649,0.068,0.878c0.406,3.035,2.851,12.875,8.499,18.061c9.168,8.417,26.303,11.37,26.303,11.37s-19.058-6.109-26.723-14.226l-8.146-16.022"></path><path style="fill:#A84A56;" d="M304.293,246.161c0,0.061-0.039,0.649-0.069,0.878c-0.405,3.035-2.851,12.875-8.498,18.061c-9.169,8.417-26.303,11.37-26.303,11.37s19.058-6.109,26.723-14.226l8.147-16.022"></path></g><path style="fill:#FEFBF6;stroke:#A84A56;stroke-linecap:round;stroke-linejoin:round;" d="M249.999,126c-87.333,0-63.287,92.758-61.35,101.153c1.938,8.396,7.104,20.989,10.333,30.03C210.606,278.816,250,278.493,250,278.493s39.392,0.323,51.017-21.311c3.229-9.041,8.394-21.634,10.332-30.03C313.286,218.758,337.332,126,249.999,126z"></path></g></g></g><g><ellipse style="fill:#FEE6DB;" cx="250" cy="246.096" rx="3.5" ry="3.403"></ellipse><ellipse style="fill:#A84A56;" cx="249.993" cy="249.498" rx="0.681" ry="0.894"></ellipse></g></g></svg>