<svg xmlns="http://www.w3.org/2000/svg" width="500" height="500" version="1.1"><g id="x007"><g><g><g><path style="fill:#A1EBED;stroke:#000000;stroke-linecap:round;stroke-linejoin:round;" d="M189.62,222.354c0,0-52.282-52.924-61.333-54.335c8.771,16.859,9.274,33.132,8.786,35.283c2.486,1.857,15.701,19.08,15.98,24.96c3.436,3.366,7.459,12.683,7.99,16.035c7.779,2.737,27.598,7.762,37.655,13.278C201.448,246.889,198.712,229.267,189.62,222.354z"></path><path style="fill:#A1EBED;stroke:#000000;stroke-linecap:round;stroke-linejoin:round;" d="M172.226,239.297c3.781-1.26,15.756-1.891,15.756-1.891"></path><path style="fill:#73B8CC;" d="M185.052,230.474c0,0-32.774-35.611-37.186-38.761c5.357,11.345,9.455,16.701,5.042,19.223C157.951,215.978,171.817,226.377,185.052,230.474z"></path><path style="fill:#73B8CC;" d="M191.133,236.146l-22.689,3.151l-1.891-9.454C166.553,229.844,187.352,234.885,191.133,236.146z"></path><path style="fill:none;stroke:#000000;stroke-linecap:round;stroke-linejoin:round;" d="M165.199,211.881c0,0-14.497-20.798-23.005-26.471"></path><path style="fill:none;stroke:#000000;stroke-linecap:round;stroke-linejoin:round;" d="M185.052,230.474c0,0-32.459-17.647-35.295-20.483"></path></g><g><path style="fill:#A1EBED;stroke:#000000;stroke-linecap:round;stroke-linejoin:round;" d="M310.381,222.354c0,0,52.281-52.924,61.332-54.335c-8.771,16.859-9.273,33.132-8.785,35.283c-2.486,1.857-15.701,19.08-15.98,24.96c-3.436,3.366-7.459,12.682-7.988,16.035c-7.779,2.737-27.598,7.762-37.656,13.278C298.553,246.889,301.287,229.267,310.381,222.354z"></path><path style="fill:#A1EBED;stroke:#000000;stroke-linecap:round;stroke-linejoin:round;" d="M327.773,239.297c-3.781-1.26-15.756-1.891-15.756-1.891"></path><path style="fill:#73B8CC;" d="M314.947,230.474c0,0,32.775-35.611,37.186-38.761c-5.357,11.345-9.453,16.701-5.041,19.223C342.049,215.978,328.184,226.377,314.947,230.474z"></path><path style="fill:#73B8CC;" d="M308.867,236.146l22.689,3.151l1.891-9.454C333.447,229.844,312.648,234.885,308.867,236.146z"></path><path style="fill:none;stroke:#000000;stroke-linecap:round;stroke-linejoin:round;" d="M334.801,211.881c0,0,14.496-20.798,23.006-26.471"></path><path style="fill:none;stroke:#000000;stroke-linecap:round;stroke-linejoin:round;" d="M314.947,230.474c0,0,32.459-17.647,35.295-20.483"></path></g></g><g><g><g><path style="fill:#A84A56;" d="M195.174,246.161c0,0.061,0.038,0.649,0.068,0.878c0.406,3.035,2.851,12.875,8.499,18.061c9.168,8.417,26.303,11.37,26.303,11.37s-19.058-6.109-26.723-14.226l-8.146-16.022"></path><path style="fill:#A84A56;" d="M304.293,246.161c0,0.061-0.039,0.649-0.069,0.878c-0.405,3.035-2.851,12.875-8.498,18.061c-9.169,8.417-26.303,11.37-26.303,11.37s19.058-6.109,26.723-14.226l8.147-16.022"></path></g><path style="fill:#FEFBF6;stroke:#A84A56;stroke-linecap:round;stroke-linejoin:round;" d="M249.999,126c-87.333,0-63.287,92.758-61.35,101.153c1.938,8.396,7.104,20.989,10.333,30.03C210.606,278.816,250,278.493,250,278.493s39.392,0.323,51.017-21.311c3.229-9.041,8.394-21.634,10.332-30.03C313.286,218.758,337.332,126,249.999,126z"></path></g></g></g><g><ellipse style="fill:#FEE6DB;" cx="250" cy="246.096" rx="3.5" ry="3.403"></ellipse><ellipse style="fill:#A84A56;" cx="249.993" cy="249.498" rx="0.681" ry="0.894"></ellipse></g></g></svg>