<svg xmlns="http://www.w3.org/2000/svg" width="500" height="500" version="1.1"><g id="x9014"><g><g><g><path style="fill:#FEFBF6;stroke:#A84A56;stroke-linecap:round;stroke-linejoin:round;" d="M189.752,230.333c0,0-13-6-24.667-3s-13,0.333-14,1.667s2.667,4.333,4.667,5.667s9.666,4.333,15.333,9s15.666,13.667,28.333,11C198.418,246,189.752,230.333,189.752,230.333z"></path><path style="fill:none;stroke:#A84A56;stroke-linecap:round;stroke-linejoin:round;" d="M165.085,229c0,0,5,0,13.667,7c4.221,3.409,11,6,13.333,6"></path></g><g><path style="fill:#FEFBF6;stroke:#A84A56;stroke-linecap:round;stroke-linejoin:round;" d="M310.248,230.333c0,0,13-6,24.667-3s13,0.333,14,1.667s-2.667,4.333-4.667,5.667s-9.666,4.333-15.333,9s-15.666,13.667-28.333,11C301.582,246,310.248,230.333,310.248,230.333z"></path><path style="fill:none;stroke:#A84A56;stroke-linecap:round;stroke-linejoin:round;" d="M334.915,229c0,0-5,0-13.667,7c-4.221,3.409-11,6-13.333,6"></path></g></g><path style="fill:#A84A56;" d="M195.089,246.161c0,0.061,0.037,0.649,0.067,0.878c0.406,3.035,2.852,12.875,8.499,18.061c9.169,8.417,26.303,11.37,26.303,11.37s-19.058-6.109-26.723-14.226l-8.146-16.022"></path><path style="fill:#A84A56;" d="M304.208,246.161c0,0.061-0.039,0.649-0.069,0.878c-0.405,3.035-2.851,12.875-8.498,18.061c-9.169,8.417-26.303,11.37-26.303,11.37s19.058-6.109,26.723-14.226l8.147-16.022"></path><path style="fill:#FEFBF6;stroke:#A84A56;stroke-linecap:round;stroke-linejoin:round;" d="M249.914,126c-98.666,0-63.287,92.758-61.35,101.153c1.938,8.396,7.104,20.989,10.333,30.03c11.624,21.634,51.017,21.311,51.017,21.311s39.393,0.323,51.018-21.311c3.229-9.041,8.394-21.634,10.332-30.03C313.201,218.758,348.579,126,249.914,126z"></path></g><g><ellipse style="fill:#FEE6DB;" cx="250" cy="246.096" rx="3.5" ry="3.403"></ellipse><ellipse style="fill:#A84A56;" cx="249.993" cy="249.498" rx="0.681" ry="0.894"></ellipse></g></g></svg>