<svg xmlns="http://www.w3.org/2000/svg" width="500" height="500" version="1.1"><g id="x005"><g><g><g><path style="fill:#FFFFFF;stroke:#000000;stroke-linecap:round;stroke-linejoin:round;" d="M186.479,193.021c0,0-35.888,12.71-48.225,32.15c14.206,7.85,26.169,17.57,26.169,17.57c-2.617,0.374-4.486,1.122-4.486,1.122l8.599,5.981c0,0,21.308,8.225,32.149,10.468C204.423,237.134,192.834,199.003,186.479,193.021z"></path><g><path style="fill:#FFD4ED;" d="M155.077,221.433c0,0,11.962,9.346,17.943,14.58c10.468,6.355,27.392,11.714,28.14,10.904c-1.745-24.362-8.349-41.559-8.349-41.559s-5.093,8.226-19.751,12.586C165.312,220.249,155.077,221.433,155.077,221.433z"></path><path style="fill:#FFA8BF;" d="M192.924,205.388c1.216,4.766,4.022,12.049,4.997,16.979c-9.365-3.597-18.63-7.103-18.63-7.103C188.015,210.529,189.446,208.598,192.924,205.388z"></path></g><path style="fill:none;stroke:#000000;stroke-linecap:round;stroke-linejoin:round;" d="M192.688,204.922c-0.374,1.495-10.321,10.903-21.91,13.52c-11.589,2.617-22.43,3.739-22.43,3.739"></path></g><g><path style="fill:#FFFFFF;stroke:#000000;stroke-linecap:round;stroke-linejoin:round;" d="M313.521,193.021c0,0,35.888,12.71,48.225,32.15c-14.206,7.85-26.169,17.57-26.169,17.57c2.617,0.374,4.486,1.122,4.486,1.122l-8.599,5.981c0,0-21.308,8.225-32.149,10.468C295.577,237.134,307.166,199.003,313.521,193.021z"></path><g><path style="fill:#FFD4ED;" d="M344.923,221.433c0,0-11.962,9.346-17.943,14.58c-10.468,6.355-27.392,11.714-28.14,10.904c1.745-24.362,8.349-41.559,8.349-41.559s5.093,8.226,19.751,12.586C334.688,220.249,344.923,221.433,344.923,221.433z"></path><path style="fill:#FFA8BF;" d="M307.076,205.388c-1.216,4.766-4.022,12.049-4.997,16.979c9.365-3.597,18.63-7.103,18.63-7.103C311.985,210.529,310.554,208.598,307.076,205.388z"></path></g><path style="fill:none;stroke:#000000;stroke-linecap:round;stroke-linejoin:round;" d="M307.313,204.922c0.374,1.495,10.321,10.903,21.91,13.52c11.589,2.617,22.43,3.739,22.43,3.739"></path></g></g><g><g><g><path style="fill:#A84A56;" d="M195.174,246.161c0,0.061,0.038,0.649,0.068,0.878c0.406,3.035,2.851,12.875,8.499,18.061c9.168,8.417,26.303,11.37,26.303,11.37s-19.058-6.109-26.723-14.226l-8.146-16.022"></path><path style="fill:#A84A56;" d="M304.293,246.161c0,0.061-0.039,0.649-0.069,0.878c-0.405,3.035-2.851,12.875-8.498,18.061c-9.169,8.417-26.303,11.37-26.303,11.37s19.058-6.109,26.723-14.226l8.147-16.022"></path></g><path style="fill:#FEFBF6;stroke:#A84A56;stroke-linecap:round;stroke-linejoin:round;" d="M249.999,126c-87.333,0-63.287,92.758-61.35,101.153c1.938,8.396,7.104,20.989,10.333,30.03C210.606,278.816,250,278.493,250,278.493s39.392,0.323,51.017-21.311c3.229-9.041,8.394-21.634,10.332-30.03C313.286,218.758,337.332,126,249.999,126z"></path><path style="fill:#FEFBF6;stroke:#A84A56;stroke-linecap:round;stroke-linejoin:round;" d="M249.999,126c-98.666,0-63.287,92.758-61.35,101.153c1.938,8.396,7.104,20.989,10.333,30.03C210.606,278.816,250,278.493,250,278.493s39.392,0.323,51.017-21.311c3.229-9.041,8.394-21.634,10.332-30.03C313.286,218.758,348.664,126,249.999,126z"></path></g></g></g><g><ellipse style="fill:#FEE6DB;" cx="250" cy="246.096" rx="3.5" ry="3.403"></ellipse><ellipse style="fill:#A84A56;" cx="249.993" cy="249.498" rx="0.681" ry="0.894"></ellipse></g></g></svg>