<svg xmlns="http://www.w3.org/2000/svg" width="500" height="500" version="1.1"><g id="x006"><g><g><g><path style="fill:#FEFBF6;" d="M183.85,205.574c0.365,1.094-44.133,48.875-61.64,56.898c16.047,7.661,24.437,7.295,29.543,5.472c2.188,2.919-1.095,3.648-1.095,3.648s10.212-1.096,13.495-5.108c-0.365,2.919-0.365,4.013-0.365,4.013s32.128-1.823,37.6-16.412C202.118,228.188,183.85,205.574,183.85,205.574z"></path><path style="fill:#997054;" d="M180.606,267.725c0,0-11.091,2.88-16.563,2.516c0-1.823,0.315-3.459,0.315-3.459s-3.251,3.879-13.419,4.823c1.362-2.202,0.813-3.661,0.813-3.661s-5.426,4.813-29.543-5.472c4.741-1.094,24.558-19.344,28.206-21.897c0.365,2.188-0.314,8.071-2.41,10.588c5.47-0.365,9.958-3.041,13.313-4.823c0.443,3.06-1.887,9.75-1.887,9.75l11.653-5.289c1.136,3.401-0.75,10.843-0.75,10.843s10.177-3.31,11.636-4.402C182.598,263.426,180.606,267.725,180.606,267.725z"></path><path style="fill:none;stroke:#000000;stroke-linecap:round;stroke-linejoin:round;" d="M183.85,205.574c0.365,1.094-44.133,48.875-61.64,56.898c16.047,7.661,24.437,7.295,29.543,5.472c-0.395,1.773-1.095,3.648-1.095,3.648s10.212-1.096,13.495-5.108c-0.365,2.919-0.365,4.013-0.365,4.013s32.128-1.823,37.6-16.412C202.118,228.188,183.85,205.574,183.85,205.574z"></path></g><g><path style="fill:#FEFBF6;" d="M316.15,205.574c-0.365,1.094,44.133,48.875,61.64,56.898c-16.047,7.661-24.437,7.295-29.543,5.472c-2.188,2.919,1.094,3.648,1.094,3.648s-10.212-1.096-13.494-5.108c0.364,2.919,0.364,4.013,0.364,4.013s-32.128-1.823-37.6-16.412C297.882,228.188,316.15,205.574,316.15,205.574z"></path><path style="fill:#997054;" d="M319.394,267.725c0,0,11.091,2.88,16.563,2.516c0-1.823-0.314-3.459-0.314-3.459s3.25,3.879,13.418,4.823c-1.362-2.202-0.813-3.661-0.813-3.661s5.426,4.813,29.543-5.472c-4.74-1.094-24.559-19.344-28.205-21.897c-0.365,2.188,0.314,8.071,2.41,10.588c-5.471-0.365-9.958-3.041-13.313-4.823c-0.443,3.06,1.887,9.75,1.887,9.75l-11.653-5.289c-1.136,3.401,0.751,10.843,0.751,10.843s-10.177-3.31-11.636-4.402C317.402,263.426,319.394,267.725,319.394,267.725z"></path><path style="fill:none;stroke:#000000;stroke-linecap:round;stroke-linejoin:round;" d="M316.15,205.574c-0.365,1.094,44.133,48.875,61.64,56.898c-16.047,7.661-24.437,7.295-29.543,5.472c0.394,1.773,1.094,3.648,1.094,3.648s-10.212-1.096-13.494-5.108c0.364,2.919,0.364,4.013,0.364,4.013s-32.128-1.823-37.6-16.412C297.882,228.188,316.15,205.574,316.15,205.574z"></path></g></g><g><g><g><path style="fill:#A84A56;" d="M195.174,246.161c0,0.061,0.038,0.649,0.068,0.878c0.406,3.035,2.851,12.875,8.499,18.061c9.168,8.417,26.303,11.37,26.303,11.37s-19.058-6.109-26.723-14.226l-8.146-16.022"></path><path style="fill:#A84A56;" d="M304.293,246.161c0,0.061-0.039,0.649-0.069,0.878c-0.405,3.035-2.851,12.875-8.498,18.061c-9.169,8.417-26.303,11.37-26.303,11.37s19.058-6.109,26.723-14.226l8.147-16.022"></path></g><path style="fill:#FEFBF6;stroke:#A84A56;stroke-linecap:round;stroke-linejoin:round;" d="M249.999,126c-87.333,0-63.287,92.758-61.35,101.153c1.938,8.396,7.104,20.989,10.333,30.03C210.606,278.816,250,278.493,250,278.493s39.392,0.323,51.017-21.311c3.229-9.041,8.394-21.634,10.332-30.03C313.286,218.758,337.332,126,249.999,126z"></path><path style="fill:#FEFBF6;stroke:#A84A56;stroke-linecap:round;stroke-linejoin:round;" d="M249.999,126c-98.666,0-63.287,92.758-61.35,101.153c1.938,8.396,7.104,20.989,10.333,30.03C210.606,278.816,250,278.493,250,278.493s39.392,0.323,51.017-21.311c3.229-9.041,8.394-21.634,10.332-30.03C313.286,218.758,348.664,126,249.999,126z"></path></g></g></g><g><ellipse style="fill:#FEE6DB;" cx="250" cy="246.096" rx="3.5" ry="3.403"></ellipse><ellipse style="fill:#A84A56;" cx="249.993" cy="249.498" rx="0.681" ry="0.894"></ellipse></g></g></svg>