<svg xmlns="http://www.w3.org/2000/svg" width="500" height="500" version="1.1"><g id="x008"><g><g><g><path style="fill:#DCDCDC;stroke:#000000;stroke-linecap:round;stroke-linejoin:round;" d="M335.774,244.958c0,0,11.708,13.395,8.953,16.194c-2.754,2.799-10.56,0.199-10.56,0.199c-1.837-0.999-8.953-7.196-11.02-12.594"></path><path style="fill:#DCDCDC;stroke:#000000;stroke-linecap:round;stroke-linejoin:round;" d="M325.215,253.155c0,0,5.739,15.594,1.836,16.594c-3.902,0.999-11.937-5.998-12.855-11.196c-0.919-5.197-1.148-11.795-1.148-11.795"></path><path style="fill:#DCDCDC;stroke:#000000;stroke-linecap:round;stroke-linejoin:round;" d="M339.448,236.762c0.688,0.2,23.186,5.998,23.415,6.998s-8.264,8.596-15.84,6.797c-7.575-1.799-22.956-9.596-22.956-9.596l-2.525-6.397"></path><path style="fill:#DCDCDC;stroke:#000000;stroke-linecap:round;stroke-linejoin:round;" d="M324.067,224.567c0,0,9.871-1.799,17.217-0.6c7.346,1.2,28.237,1.6,29.385,2.399c1.147,0.8-4.133,11.196-14.233,10.596c-13.551-0.715-30.99-4.598-30.99-4.598"></path><path style="fill:#FFFFFF;stroke:#000000;stroke-linecap:round;stroke-linejoin:round;" d="M321.542,235.962c0,0,13.314,9.996,15.151,10.996c1.836,1-8.459,5.331-19.248-3.665c0,0,8.064,11.404,6.393,12.662c-3.727,2.799-12.101-5.732-12.79-7.332c1.607,4.398,4.984,13.729,2.229,12.93c-2.754-0.8-11.019-11.795-11.478-15.794s0.919-16.193,0.919-16.193l14.692-12.396"></path><path style="fill:#FFFFFF;stroke:#000000;stroke-linecap:round;stroke-linejoin:round;" d="M318.098,236.962c0,0,12.477,3.411,19.284,4.398c8.264,1.199,17.044-4.198,18.98-9.263c-4.747-0.878-25.086-6.145-23.572-6.731c23.039-0.2,30.504-5.531,38.5-21.524c-4.82,0.6-25.057,9.063-46.38,7.463c-12.592-0.944-18.52,16.86-18.52,16.86"></path><path style="fill:none;stroke:#000000;stroke-linecap:round;stroke-linejoin:round;" d="M319.219,222.699c0,0,10.219,3.223,13.3,2.803"></path></g><g><path style="fill:#DCDCDC;stroke:#000000;stroke-linecap:round;stroke-linejoin:round;" d="M164.226,244.958c0,0-11.708,13.395-8.953,16.194s10.561,0.199,10.561,0.199c1.836-0.999,8.952-7.196,11.019-12.594"></path><path style="fill:#DCDCDC;stroke:#000000;stroke-linecap:round;stroke-linejoin:round;" d="M174.785,253.155c0,0-5.739,15.594-1.836,16.594c3.902,0.999,11.938-5.998,12.855-11.196c0.919-5.197,1.148-11.795,1.148-11.795"></path><path style="fill:#DCDCDC;stroke:#000000;stroke-linecap:round;stroke-linejoin:round;" d="M160.553,236.762c-0.688,0.2-23.187,5.998-23.416,6.998s8.265,8.596,15.841,6.797c7.575-1.799,22.956-9.596,22.956-9.596l2.525-6.397"></path><path style="fill:#DCDCDC;stroke:#000000;stroke-linecap:round;stroke-linejoin:round;" d="M175.934,224.567c0,0-9.871-1.799-17.218-0.6c-7.346,1.2-28.236,1.6-29.385,2.399c-1.146,0.8,4.133,11.196,14.233,10.596c13.551-0.715,30.991-4.598,30.991-4.598"></path><path style="fill:#FFFFFF;stroke:#000000;stroke-linecap:round;stroke-linejoin:round;" d="M178.459,235.962c0,0-13.314,9.996-15.151,10.996c-1.837,1,8.458,5.331,19.247-3.665c0,0-8.064,11.404-6.392,12.662c3.726,2.799,12.101-5.732,12.789-7.332c-1.607,4.398-4.984,13.729-2.229,12.93c2.754-0.8,11.019-11.795,11.478-15.794c0.46-3.999-0.918-16.193-0.918-16.193l-14.692-12.396"></path><path style="fill:#FFFFFF;stroke:#000000;stroke-linecap:round;stroke-linejoin:round;" d="M181.901,236.962c0,0-12.475,3.411-19.283,4.398c-8.264,1.199-17.044-4.198-18.981-9.263c4.748-0.878,25.087-6.145,23.573-6.731c-23.039-0.2-30.503-5.531-38.5-21.524c4.82,0.6,25.057,9.063,46.381,7.463c12.591-0.944,18.52,16.86,18.52,16.86"></path><path style="fill:none;stroke:#000000;stroke-linecap:round;stroke-linejoin:round;" d="M180.781,222.699c0,0-10.22,3.223-13.299,2.803"></path></g></g><g><g><g><path style="fill:#A84A56;" d="M195.174,246.161c0,0.061,0.038,0.649,0.068,0.878c0.406,3.035,2.851,12.875,8.499,18.061c9.168,8.417,26.303,11.37,26.303,11.37s-19.058-6.109-26.723-14.226l-8.146-16.022"></path><path style="fill:#A84A56;" d="M304.293,246.161c0,0.061-0.039,0.649-0.069,0.878c-0.405,3.035-2.851,12.875-8.498,18.061c-9.169,8.417-26.303,11.37-26.303,11.37s19.058-6.109,26.723-14.226l8.147-16.022"></path></g><path style="fill:#FEFBF6;stroke:#A84A56;stroke-linecap:round;stroke-linejoin:round;" d="M249.999,126c-87.333,0-63.287,92.758-61.35,101.153c1.938,8.396,7.104,20.989,10.333,30.03C210.606,278.816,250,278.493,250,278.493s39.392,0.323,51.017-21.311c3.229-9.041,8.394-21.634,10.332-30.03C313.286,218.758,337.332,126,249.999,126z"></path></g></g></g><g><ellipse style="fill:#FEE6DB;" cx="250" cy="246.096" rx="3.5" ry="3.403"></ellipse><ellipse style="fill:#A84A56;" cx="249.993" cy="249.498" rx="0.681" ry="0.894"></ellipse></g></g></svg>