<svg xmlns="http://www.w3.org/2000/svg" width="500" height="500" version="1.1"><g id="x115"><g><linearGradient id="hair1XMLID_3280_" gradientUnits="userSpaceOnUse" x1="183.4565" y1="226.667" x2="183.4565" y2="158.3335"><stop offset="0" style="stop-color:#FCFCE4"></stop><stop offset="0.5" style="stop-color:#A0C8DD"></stop><stop offset="1" style="stop-color:#5D6EC5"></stop></linearGradient><path style="fill:url(#hair1XMLID_3280_);stroke:#1E1E1E;stroke-linecap:round;stroke-linejoin:round;" d="M176.691,192.975c-1.34,5.359,0.642,19.692,2.01,20.77c1.675,3.351,9.38,18.426,9.715,19.431s-1.748-32.831-2.083-34.841c0,0,2-11.667,4.333-23C190,166,188,160,188,160L176.691,192.975z"></path><linearGradient id="hair1XMLID_3281_" gradientUnits="userSpaceOnUse" x1="314.584" y1="226.667" x2="314.584" y2="158.3333"><stop offset="0" style="stop-color:#FCFCE4"></stop><stop offset="0.5" style="stop-color:#A0C8DD"></stop><stop offset="1" style="stop-color:#5D6EC5"></stop></linearGradient><path style="fill:url(#hair1XMLID_3281_);stroke:#1E1E1E;stroke-linecap:round;stroke-linejoin:round;" d="M312.895,193.31c-0.335,2.011-3.563,41.695-3.228,40.69c0.335-1.005,7.657-16.649,9.333-20c1.675-3.35-1.08-15.666-2.42-21.025"></path><linearGradient id="hair1XMLID_3282_" gradientUnits="userSpaceOnUse" x1="251.0986" y1="226.667" x2="251.0986" y2="158.3335"><stop offset="0" style="stop-color:#FCFCE4"></stop><stop offset="0.5" style="stop-color:#A0C8DD"></stop><stop offset="1" style="stop-color:#5D6EC5"></stop></linearGradient><path style="fill:url(#hair1XMLID_3282_);stroke:#1E1E1E;stroke-linecap:round;stroke-linejoin:round;" d="M332.467,211.4c-4.69-7.371-7.37-17.756-8.04-26.131c-0.671-8.375,7.925-63.315-62.646-63.315c-9.856,0-13.035-1.34-19.095-1.34c-63.985,0-64.32,46.565-64.32,49.245c0.335,3.016-11.382,24.399-8.033,39.474c6.365-5.025,19.758-42.154,19.758-42.154c-2.011,10.385-0.671,13.4,2.68,17.085c1.209-4.233,10.334-22.386,12.098-25.878c-1.062,2.201-4.428,10.202-0.708,16.498c7.705-8.375,19.095-19.43,19.095-19.43s0,8.04-3.685,17.754c9.715-2.68,14.07-16.75,14.07-16.75s1.34,6.7-0.67,15.076c8.375-2.681,18.76-20.771,18.76-20.771s-0.335,6.7-0.67,16.08c6.03-2.01,14.74-15.075,15.745-16.415l-0.67,17.42c5.359-5.36,9.045-13.4,9.045-13.4s3.015,17.419,6.699,19.43c3.351-6.03,3.686-11.39,3.686-11.39s4.354,9.045,5.36,14.74c2.345-6.7,2.68-14.07,2.68-14.07s5.36,21.44,5.024,26.799c3.351-7.034,5.695-14.739,5.695-14.739s3.686,19.765,3.351,26.465c1.644-1.507,3.505-4.092,5.07-7.476l1.294,13.841c0,0,1.34,11.726,10.721,15.409c-1.676-8.709-4.021-21.439-4.021-21.439S324.092,208.72,332.467,211.4z"></path><linearGradient id="hair1XMLID_3283_" gradientUnits="userSpaceOnUse" x1="326.2695" y1="226.667" x2="326.2695" y2="158.3336"><stop offset="0" style="stop-color:#FCFCE4"></stop><stop offset="0.5" style="stop-color:#A0C8DD"></stop><stop offset="1" style="stop-color:#5D6EC5"></stop></linearGradient><path style="fill:url(#hair1XMLID_3283_);stroke:#1E1E1E;stroke-linecap:round;stroke-linejoin:round;" d="M318.731,160.5c1.005,0.335,12.06,8.375,15.075,19.43c-8.375-6.7-14.07-6.7-14.07-6.7"></path><linearGradient id="hair1XMLID_3284_" gradientUnits="userSpaceOnUse" x1="320.2383" y1="226.667" x2="320.2383" y2="158.3336"><stop offset="0" style="stop-color:#FCFCE4"></stop><stop offset="0.5" style="stop-color:#A0C8DD"></stop><stop offset="1" style="stop-color:#5D6EC5"></stop></linearGradient><path style="fill:url(#hair1XMLID_3284_);stroke:#1E1E1E;stroke-linecap:round;stroke-linejoin:round;" d="M312.366,141.405c0,0,14.74,7.37,15.745,24.121c-9.045-5.026-8.04-4.356-8.04-4.356"></path><linearGradient id="hair1XMLID_3285_" gradientUnits="userSpaceOnUse" x1="306.2012" y1="226.667" x2="306.2012" y2="158.3336"><stop offset="0" style="stop-color:#FCFCE4"></stop><stop offset="0.5" style="stop-color:#A0C8DD"></stop><stop offset="1" style="stop-color:#5D6EC5"></stop></linearGradient><path style="fill:url(#hair1XMLID_3285_);stroke:#1E1E1E;stroke-linecap:round;stroke-linejoin:round;" d="M310.356,140.735c0,0,2.01,1.34,9.045,4.69c-9.38-15.745-22.78-19.43-22.78-19.43L293,126.667"></path><linearGradient id="hair1XMLID_3286_" gradientUnits="userSpaceOnUse" x1="264.6289" y1="226.667" x2="264.6289" y2="158.3335"><stop offset="0" style="stop-color:#FCFCE4"></stop><stop offset="0.5" style="stop-color:#A0C8DD"></stop><stop offset="1" style="stop-color:#5D6EC5"></stop></linearGradient><path style="fill:url(#hair1XMLID_3286_);stroke:#1E1E1E;stroke-linecap:round;stroke-linejoin:round;" d="M301.646,135.709c0-1.34-9.045-18.09-19.43-24.455c0.67,6.365,3.685,15.075,3.685,15.075s-12.06-15.41-29.48-19.765c4.355,5.695,5.36,13.4,5.36,13.4s-14.74-14.07-34.17-14.07c9.045,9.715,13.4,17.085,13.4,17.085"></path><linearGradient id="hair1XMLID_3287_" gradientUnits="userSpaceOnUse" x1="171.8555" y1="226.667" x2="171.8555" y2="158.3336"><stop offset="0" style="stop-color:#FCFCE4"></stop><stop offset="0.5" style="stop-color:#A0C8DD"></stop><stop offset="1" style="stop-color:#5D6EC5"></stop></linearGradient><path style="fill:url(#hair1XMLID_3287_);stroke:#1E1E1E;stroke-linecap:round;stroke-linejoin:round;" d="M180.711,182.925c0,0-6.044,10.075-17.711,13.409c7.667-9,16.706-29.489,16.706-29.489"></path><linearGradient id="hair1XMLID_3288_" gradientUnits="userSpaceOnUse" x1="173.5" y1="226.667" x2="173.5" y2="158.3336"><stop offset="0" style="stop-color:#FCFCE4"></stop><stop offset="0.5" style="stop-color:#A0C8DD"></stop><stop offset="1" style="stop-color:#5D6EC5"></stop></linearGradient><path style="fill:url(#hair1XMLID_3288_);stroke:#1E1E1E;stroke-linecap:round;stroke-linejoin:round;" d="M182,167.667c0,0-11.667,10.334-17,17.667c1.333-14.333,6.333-21.333,16.333-30"></path><linearGradient id="hair1XMLID_3289_" gradientUnits="userSpaceOnUse" x1="177.1665" y1="226.667" x2="177.1665" y2="158.3336"><stop offset="0" style="stop-color:#FCFCE4"></stop><stop offset="0.5" style="stop-color:#A0C8DD"></stop><stop offset="1" style="stop-color:#5D6EC5"></stop></linearGradient><path style="fill:url(#hair1XMLID_3289_);stroke:#1E1E1E;stroke-linecap:round;stroke-linejoin:round;" d="M185.848,153.13c0,0-19.162,14.171-22.848,20.537c3.351-14.07,15-27,28.333-33"></path><linearGradient id="hair1XMLID_3290_" gradientUnits="userSpaceOnUse" x1="189.9443" y1="226.667" x2="189.9443" y2="158.3334"><stop offset="0" style="stop-color:#FCFCE4"></stop><stop offset="0.5" style="stop-color:#A0C8DD"></stop><stop offset="1" style="stop-color:#5D6EC5"></stop></linearGradient><path style="fill:url(#hair1XMLID_3290_);stroke:#1E1E1E;stroke-linecap:round;stroke-linejoin:round;" d="M190.648,140.958c0,0-14.069,2.68-18.76,7.37C180.264,138.613,190,129,208,128.333"></path><linearGradient id="hair1XMLID_3291_" gradientUnits="userSpaceOnUse" x1="206.8159" y1="226.667" x2="206.8159" y2="158.3335"><stop offset="0" style="stop-color:#FCFCE4"></stop><stop offset="0.5" style="stop-color:#A0C8DD"></stop><stop offset="1" style="stop-color:#5D6EC5"></stop></linearGradient><path style="fill:url(#hair1XMLID_3291_);stroke:#1E1E1E;stroke-linecap:round;stroke-linejoin:round;" d="M208.404,127.893c0,0-18.091,2.01-21.105,4.02c5.36-6.03,27.309-13.266,39.035-9.246"></path><linearGradient id="hair1XMLID_3292_" gradientUnits="userSpaceOnUse" x1="222.7539" y1="226.667" x2="222.7539" y2="158.3335"><stop offset="0" style="stop-color:#FCFCE4"></stop><stop offset="0.5" style="stop-color:#A0C8DD"></stop><stop offset="1" style="stop-color:#5D6EC5"></stop></linearGradient><path style="fill:url(#hair1XMLID_3292_);stroke:#1E1E1E;stroke-linecap:round;stroke-linejoin:round;" d="M229.956,128.34c0,0-17.085-7.705-29.479-7.37c18.425-6.03,36.18-8.71,44.555,3.015"></path></g></g></svg>