<svg xmlns="http://www.w3.org/2000/svg" width="500" height="500" version="1.1"><g id="x116"><g><g><linearGradient id="hair1XMLID_3293_" gradientUnits="userSpaceOnUse" x1="251.6348" y1="177" x2="251.6348" y2="145.3335"><stop offset="0" style="stop-color:#FCFCE4"></stop><stop offset="0.5" style="stop-color:#A0C8DD"></stop><stop offset="1" style="stop-color:#5D6EC5"></stop></linearGradient><path style="fill:url(#hair1XMLID_3293_);stroke:#1E1E1E;stroke-linecap:round;stroke-linejoin:round;" d="M255.213,129.325c-4.69-0.67-41.54-10.05-62.311,19.43c-20.77,29.479-8.236,74.079-0.569,88.245c-1.813-7.57-2.364-30.372-1.367-39.187c2.137-18.884,9.383-37.257,16.006-40.683c25.795-7.705,54.939,1.675,54.939,1.675s23.115-6.365,36.516-3.35c18.09,11.39,13.927,71.826,9.906,82.212C321.5,228.167,346.668,117.935,255.213,129.325z"></path><linearGradient id="hair1XMLID_3294_" gradientUnits="userSpaceOnUse" x1="204.9624" y1="177" x2="204.9624" y2="145.3335"><stop offset="0" style="stop-color:#FCFCE4"></stop><stop offset="0.5" style="stop-color:#A0C8DD"></stop><stop offset="1" style="stop-color:#5D6EC5"></stop></linearGradient><path style="fill:url(#hair1XMLID_3294_);stroke:#1E1E1E;stroke-linecap:round;stroke-linejoin:round;" d="M234.219,154.003c0,0-16.303,2.457-18.982,4.243c-2.68,1.787-12.319,2.171-12.319,2.171l-19.171,19.046c-0.894,0-8.04-0.446-8.04-0.446l4.243-23.45c0,0,11.166-14.293,16.75-17.867c5.583-3.573,24.344-15.633,24.344-15.633s9.156,7.37,9.38,8.04"></path><linearGradient id="hair1XMLID_3295_" gradientUnits="userSpaceOnUse" x1="192.3335" y1="177" x2="192.3335" y2="145.3336"><stop offset="0" style="stop-color:#FCFCE4"></stop><stop offset="0.5" style="stop-color:#A0C8DD"></stop><stop offset="1" style="stop-color:#5D6EC5"></stop></linearGradient><polygon style="fill:url(#hair1XMLID_3295_);" points="183.5,181.25 202.75,163.583 201.167,159.833 181.917,177.917 "></polygon><linearGradient id="hair1XMLID_3296_" gradientUnits="userSpaceOnUse" x1="167.6104" y1="177" x2="167.6104" y2="145.3335"><stop offset="0" style="stop-color:#FCFCE4"></stop><stop offset="0.5" style="stop-color:#A0C8DD"></stop><stop offset="1" style="stop-color:#5D6EC5"></stop></linearGradient><path style="fill:url(#hair1XMLID_3296_);stroke:#1E1E1E;stroke-linecap:round;stroke-linejoin:round;" d="M180.508,154.115c0,0-5.025,8.375-9.715,19.765c-4.69,11.39-13.065,15.745-16.08,16.415c6.699,0,17.42-1.006,24.12-10.721"></path><linearGradient id="hair1XMLID_3297_" gradientUnits="userSpaceOnUse" x1="298.4277" y1="177" x2="298.4277" y2="145.3335"><stop offset="0" style="stop-color:#FCFCE4"></stop><stop offset="0.5" style="stop-color:#A0C8DD"></stop><stop offset="1" style="stop-color:#5D6EC5"></stop></linearGradient><path style="fill:url(#hair1XMLID_3297_);stroke:#1E1E1E;stroke-linecap:round;stroke-linejoin:round;" d="M300.103,148.419c11.725,15.075,27.135,13.4,33.835,13.735c-5.36-3.35-7.705-19.095-16.08-27.805s-21.104-11.39-21.104-11.39s7.414,1.208,12.729-3.685c-14.149,1.059-19.43-7.37-29.814-6.7c-10.386,0.67-14.74,10.385-14.74,10.385l-2.01,8.04"></path><path style="fill:none;stroke:#1E1E1E;stroke-linecap:round;stroke-linejoin:round;" d="M265.598,143.729c0,0,15.471-11.648,24.12-12.73c2.68-0.335,10.05,5.025,10.05,5.025"></path><linearGradient id="hair1XMLID_3298_" gradientUnits="userSpaceOnUse" x1="322.0449" y1="177" x2="322.0449" y2="145.3335"><stop offset="0" style="stop-color:#FCFCE4"></stop><stop offset="0.5" style="stop-color:#A0C8DD"></stop><stop offset="1" style="stop-color:#5D6EC5"></stop></linearGradient><path style="fill:url(#hair1XMLID_3298_);stroke:#1E1E1E;stroke-linecap:round;stroke-linejoin:round;" d="M306.803,140.38c0,0,20.435,9.715,24.12,31.825c2.484,14.91,2.68,23.115,6.364,27.805c-6.364-2.01-14.069-15.745-16.079-26.801"></path><linearGradient id="hair1XMLID_3299_" gradientUnits="userSpaceOnUse" x1="324.5" y1="177" x2="324.5" y2="145.3335"><stop offset="0" style="stop-color:#FCFCE4"></stop><stop offset="0.5" style="stop-color:#A0C8DD"></stop><stop offset="1" style="stop-color:#5D6EC5"></stop></linearGradient><path style="fill:url(#hair1XMLID_3299_);stroke:#1E1E1E;stroke-linecap:round;stroke-linejoin:round;" d="M317.188,197.33c1.675,14.404,10.72,25.125,17.085,26.129c-7.705-8.375-5.695-39.864-6.03-40.869c0,0,3.011-11.261-13.516-23.097"></path><linearGradient id="hair1XMLID_3300_" gradientUnits="userSpaceOnUse" x1="313.5469" y1="177" x2="313.5469" y2="145.3335"><stop offset="0" style="stop-color:#FCFCE4"></stop><stop offset="0.5" style="stop-color:#A0C8DD"></stop><stop offset="1" style="stop-color:#5D6EC5"></stop></linearGradient><path style="fill:url(#hair1XMLID_3300_);stroke:#1E1E1E;stroke-linecap:round;stroke-linejoin:round;" d="M306.133,178.904c1.34,1.34,4.354,14.07,5.694,21.44c1.341,7.37-1.675,20.435-3.35,23.785c5.695-6.03,13.4-20.101,12.396-33.5"></path><linearGradient id="hair1XMLID_3301_" gradientUnits="userSpaceOnUse" x1="178.1069" y1="177" x2="178.1069" y2="145.3335"><stop offset="0" style="stop-color:#FCFCE4"></stop><stop offset="0.5" style="stop-color:#A0C8DD"></stop><stop offset="1" style="stop-color:#5D6EC5"></stop></linearGradient><path style="fill:url(#hair1XMLID_3301_);stroke:#1E1E1E;stroke-linecap:round;stroke-linejoin:round;" d="M185.867,158.47c-12.729,5.36-21.104-1.675-22.779-8.375c11.39,1.34,22.444-6.365,22.444-6.365l7.594,0.224"></path><linearGradient id="hair1XMLID_3302_" gradientUnits="userSpaceOnUse" x1="185.8672" y1="177" x2="185.8672" y2="145.3334"><stop offset="0" style="stop-color:#FCFCE4"></stop><stop offset="0.5" style="stop-color:#A0C8DD"></stop><stop offset="1" style="stop-color:#5D6EC5"></stop></linearGradient><path style="fill:url(#hair1XMLID_3302_);stroke:#1E1E1E;stroke-linecap:round;stroke-linejoin:round;" d="M201.947,134.015c0,0-6.699-5.025-12.729-3.685s-16.415,2.68-19.431,0.67c3.686,5.36,8.711,16.08,23.45,13.735"></path><linearGradient id="hair1XMLID_3303_" gradientUnits="userSpaceOnUse" x1="210.9702" y1="177" x2="210.9702" y2="145.3335"><stop offset="0" style="stop-color:#FCFCE4"></stop><stop offset="0.5" style="stop-color:#A0C8DD"></stop><stop offset="1" style="stop-color:#5D6EC5"></stop></linearGradient><path style="fill:url(#hair1XMLID_3303_);stroke:#1E1E1E;stroke-linecap:round;stroke-linejoin:round;" d="M226.737,123.965c-1.34-1.005-7.649-7.627-16.415-9.38c-6.699-1.34-10.385-6.365-12.395-10.72c-2.01,7.035-8.71,31.825,11.055,37.185"></path><linearGradient id="hair1XMLID_3304_" gradientUnits="userSpaceOnUse" x1="227.7202" y1="177" x2="227.7202" y2="145.3334"><stop offset="0" style="stop-color:#FCFCE4"></stop><stop offset="0.5" style="stop-color:#A0C8DD"></stop><stop offset="1" style="stop-color:#5D6EC5"></stop></linearGradient><path style="fill:url(#hair1XMLID_3304_);stroke:#1E1E1E;stroke-linecap:round;stroke-linejoin:round;" d="M234.833,153.417c-4,0.167-23.841-5.667-20.491-24.762c7.035,8.375,16.415,16.08,27.135,15.41"></path><linearGradient id="hair1XMLID_3305_" gradientUnits="userSpaceOnUse" x1="244.7017" y1="177" x2="244.7017" y2="145.3334"><stop offset="0" style="stop-color:#FCFCE4"></stop><stop offset="0.5" style="stop-color:#A0C8DD"></stop><stop offset="1" style="stop-color:#5D6EC5"></stop></linearGradient><path style="fill:url(#hair1XMLID_3305_);stroke:#1E1E1E;stroke-linecap:round;stroke-linejoin:round;" d="M263,159.083c-2.25-0.833-10.803-1.954-13.147-1.954s-18.76,11.725-23.115,22.11c0,0-3.015-17.867,9.045-26.577c0,0,7.802-3.247,13.385-0.913"></path><linearGradient id="hair1XMLID_3306_" gradientUnits="userSpaceOnUse" x1="216.2944" y1="177" x2="216.2944" y2="145.3335"><stop offset="0" style="stop-color:#FCFCE4"></stop><stop offset="0.5" style="stop-color:#A0C8DD"></stop><stop offset="1" style="stop-color:#5D6EC5"></stop></linearGradient><path style="fill:url(#hair1XMLID_3306_);stroke:#1E1E1E;stroke-linecap:round;stroke-linejoin:round;" d="M234.442,153.556c0,0-13.064,7.259-20.435,12.619c-7.37,5.36-12.73,18.76-14.07,23.784c-2.68-9.715-3.015-25.459,3.686-34.504"></path><linearGradient id="hair1XMLID_3307_" gradientUnits="userSpaceOnUse" x1="190.5859" y1="177.0059" x2="190.5859" y2="145.3394"><stop offset="0" style="stop-color:#FCFCE4"></stop><stop offset="0.5" style="stop-color:#A0C8DD"></stop><stop offset="1" style="stop-color:#5D6EC5"></stop></linearGradient><path style="fill:url(#hair1XMLID_3307_);stroke:#1E1E1E;stroke-linecap:round;stroke-linejoin:round;" d="M195.383,177.006c0,0-4.49,17.309-0.135,26.689c-6.365-3.016-10.051-15.41-9.381-19.096"></path><linearGradient id="hair1XMLID_3308_" gradientUnits="userSpaceOnUse" x1="288.6152" y1="177" x2="288.6152" y2="145.3335"><stop offset="0" style="stop-color:#FCFCE4"></stop><stop offset="0.5" style="stop-color:#A0C8DD"></stop><stop offset="1" style="stop-color:#5D6EC5"></stop></linearGradient><path style="fill:url(#hair1XMLID_3308_);stroke:#1E1E1E;stroke-linecap:round;stroke-linejoin:round;" d="M262.054,158.804c0,0,9.909-2.344,18.954,1.676s17.085,22.445,34.17,23.45c-9.045-11.725-13.4-41.205-27.805-43.215c-14.405-2.01-22.78,5.695-22.78,5.695"></path><path style="fill:none;stroke:#1E1E1E;stroke-linecap:round;stroke-linejoin:round;" d="M255.548,156.459c0,0,13.064-5.36,15.745-6.03c5.359-0.67,15.409,14.07,17.085,15.745"></path><linearGradient id="hair1XMLID_3309_" gradientUnits="userSpaceOnUse" x1="250.1255" y1="177" x2="250.1255" y2="145.3334"><stop offset="0" style="stop-color:#FCFCE4"></stop><stop offset="0.5" style="stop-color:#A0C8DD"></stop><stop offset="1" style="stop-color:#5D6EC5"></stop></linearGradient><path style="fill:url(#hair1XMLID_3309_);stroke:#1E1E1E;stroke-linecap:round;stroke-linejoin:round;" d="M243.822,114.919c-1.005-0.67-5.359-14.405,2.346-21.44c3.015,5.695,7.705,15.41,12.395,18.09"></path><linearGradient id="hair1XMLID_3310_" gradientUnits="userSpaceOnUse" x1="283.6055" y1="177" x2="283.6055" y2="145.3334"><stop offset="0" style="stop-color:#FCFCE4"></stop><stop offset="0.5" style="stop-color:#A0C8DD"></stop><stop offset="1" style="stop-color:#5D6EC5"></stop></linearGradient><path style="fill:url(#hair1XMLID_3310_);stroke:#1E1E1E;stroke-linecap:round;stroke-linejoin:round;" d="M274.643,116.26c0,0-2.01-12.73,8.04-18.09c-3.35,12.06,4.69,13.4,7.37,20.1c2.68,6.7,2.68,11.39,2.68,11.39"></path><linearGradient id="hair1XMLID_3311_" gradientUnits="userSpaceOnUse" x1="266.2412" y1="177" x2="266.2412" y2="145.3334"><stop offset="0" style="stop-color:#FCFCE4"></stop><stop offset="0.5" style="stop-color:#A0C8DD"></stop><stop offset="1" style="stop-color:#5D6EC5"></stop></linearGradient><path style="fill:url(#hair1XMLID_3311_);stroke:#1E1E1E;stroke-linecap:round;stroke-linejoin:round;" d="M263.588,118.94c0,0-3.016-14.74-10.386-18.425c13.065,3.685,29.48,11.725,25.46,28.475"></path><linearGradient id="hair1XMLID_3312_" gradientUnits="userSpaceOnUse" x1="242.1509" y1="177" x2="242.1509" y2="145.3335"><stop offset="0" style="stop-color:#FCFCE4"></stop><stop offset="0.5" style="stop-color:#A0C8DD"></stop><stop offset="1" style="stop-color:#5D6EC5"></stop></linearGradient><path style="fill:url(#hair1XMLID_3312_);stroke:#1E1E1E;stroke-linecap:round;stroke-linejoin:round;" d="M265.933,133.01c0-1.34,5.025-17.755-9.715-23.45c-14.74-5.695-36.181-9.045-38.525-11.055c-1.02,2.652,2.753,34.271,23.785,39.53"></path></g><linearGradient id="hair1XMLID_3313_" gradientUnits="userSpaceOnUse" x1="180.6982" y1="177" x2="180.6982" y2="145.3335"><stop offset="0" style="stop-color:#FCFCE4"></stop><stop offset="0.5" style="stop-color:#A0C8DD"></stop><stop offset="1" style="stop-color:#5D6EC5"></stop></linearGradient><path style="fill:url(#hair1XMLID_3313_);stroke:#1E1E1E;stroke-linecap:round;stroke-linejoin:round;" d="M180.843,174.326c-0.67,1.006-10.385,15.746-4.355,35.846c3.016-18.09,10.386-26.465,10.386-26.465"></path></g></g></svg>