<svg xmlns="http://www.w3.org/2000/svg" width="500" height="500" version="1.1"><g id="x118"><g><g><linearGradient id="hair1XMLID_3318_" gradientUnits="userSpaceOnUse" x1="187.5933" y1="199" x2="187.5933" y2="151.3335"><stop offset="0" style="stop-color:#FCFCE4"></stop><stop offset="0.5" style="stop-color:#A0C8DD"></stop><stop offset="1" style="stop-color:#5D6EC5"></stop></linearGradient><path style="fill:url(#hair1XMLID_3318_);stroke:#1E1E1E;stroke-linecap:round;stroke-linejoin:round;" d="M191.091,187.503c0,0,0,12.507,1.34,16.974c-2.233,10.273-0.446,29.479-0.446,29.479s-11.167-17.866-8.934-45.113C187.964,187.949,191.091,187.503,191.091,187.503z"></path><linearGradient id="hair1XMLID_3319_" gradientUnits="userSpaceOnUse" x1="314" y1="199" x2="314" y2="151.3335"><stop offset="0" style="stop-color:#FCFCE4"></stop><stop offset="0.5" style="stop-color:#A0C8DD"></stop><stop offset="1" style="stop-color:#5D6EC5"></stop></linearGradient><path style="fill:url(#hair1XMLID_3319_);stroke:#1E1E1E;stroke-linecap:round;stroke-linejoin:round;" d="M310.502,187.503c0,0,0,12.507-1.34,16.974c2.232,10.273,0.445,29.479,0.445,29.479s11.167-17.866,8.935-45.113C313.628,187.949,310.502,187.503,310.502,187.503z"></path></g><linearGradient id="hair1XMLID_3320_" gradientUnits="userSpaceOnUse" x1="196.1011" y1="199" x2="196.1011" y2="151.3335"><stop offset="0" style="stop-color:#FCFCE4"></stop><stop offset="0.5" style="stop-color:#A0C8DD"></stop><stop offset="1" style="stop-color:#5D6EC5"></stop></linearGradient><path style="fill:url(#hair1XMLID_3320_);stroke:#1E1E1E;stroke-linecap:round;stroke-linejoin:round;" d="M215.211,171.423c0,0,0.447,5.36-5.359,8.933c-5.808,3.574-25.907,8.934-28.587,13.4c-2.233-5.807,0.446-14.293,2.232-16.973c-3.126,4.02-6.7,8.933-6.7,8.933s1.787-16.974,8.487-21.44c-4.467,3.574-10.273,9.828-10.273,9.828s-4.467-25.014,24.12-42.881c7.147-2.233,18.313,1.787,18.313,1.787L215.211,171.423z"></path><linearGradient id="hair1XMLID_3321_" gradientUnits="userSpaceOnUse" x1="268.1973" y1="199" x2="268.1973" y2="151.3335"><stop offset="0" style="stop-color:#FCFCE4"></stop><stop offset="0.5" style="stop-color:#A0C8DD"></stop><stop offset="1" style="stop-color:#5D6EC5"></stop></linearGradient><path style="fill:url(#hair1XMLID_3321_);stroke:#1E1E1E;stroke-linecap:round;stroke-linejoin:round;" d="M211.191,167.402c-0.447,1.34,3.126,9.827,7.593,11.167s37.521,4.466,47.793,3.126c15.634,8.041,21.439,11.613,27.693,18.761c-4.913-9.827-12.954-19.653-16.08-20.993c14.294,6.253,23.227,4.467,27.247,10.273c-6.253-8.486-9.38-9.827-9.38-9.827s16.973,6.253,20.1,10.273c2.233,5.807,2.68,8.04,2.68,8.04s4.913-6.699,6.254-10.72c1.34-4.021-6.253-31.713-20.547-38.414c8.934,3.126,17.42,7.593,20.101,11.613c-8.487-11.167-15.188-27.693-50.027-33.053s-53.6,1.787-59.406,8.04"></path><linearGradient id="hair1XMLID_3322_" gradientUnits="userSpaceOnUse" x1="265.2373" y1="199" x2="265.2373" y2="151.3336"><stop offset="0" style="stop-color:#FCFCE4"></stop><stop offset="0.5" style="stop-color:#A0C8DD"></stop><stop offset="1" style="stop-color:#5D6EC5"></stop></linearGradient><path style="fill:url(#hair1XMLID_3322_);stroke:#1E1E1E;stroke-linecap:round;stroke-linejoin:round;" d="M213.871,136.136c0-1.34,1.116-20.77,40.869-22.11c-8.039,4.914-12.283,12.283-12.283,12.283s19.653-14.74,39.754-9.38c-12.953,2.233-16.974,9.827-16.974,9.827s17.203-10.502,33.053-2.233c10.274,5.36,18.314,8.04,18.314,8.04s-14.74,4.913-25.907,1.786"></path><path style="fill:none;stroke:#1E1E1E;stroke-linecap:round;stroke-linejoin:round;" d="M214.765,150.429c0,0,8.04-8.486,28.587-9.826"></path><path style="fill:none;stroke:#1E1E1E;stroke-linecap:round;stroke-linejoin:round;" d="M293.377,150.429c0,0,23.228,13.847,29.48,33.5"></path><path style="fill:none;stroke:#1E1E1E;stroke-linecap:round;stroke-linejoin:round;" d="M224.591,137.476c0,0,16.08-12.506,51.813-2.233"></path></g></g></svg>