<svg xmlns="http://www.w3.org/2000/svg" width="500" height="500" version="1.1"><g id="x119"><g><linearGradient id="hair1XMLID_3323_" gradientUnits="userSpaceOnUse" x1="250.0005" y1="201.667" x2="250.0005" y2="141.667"><stop offset="0" style="stop-color:#FCFCE4"></stop><stop offset="0.5" style="stop-color:#A0C8DD"></stop><stop offset="1" style="stop-color:#5D6EC5"></stop></linearGradient><path style="fill:url(#hair1XMLID_3323_);stroke:#1E1E1E;stroke-linecap:round;stroke-linejoin:round;" d="M322.808,185.717c0,0-0.894-8.487-5.36-25.46C300.474,129.883,250,128.543,250,128.543s-50.474,1.34-67.447,31.713c-4.467,16.973-5.36,25.46-5.36,25.46l4.467-8.934c0,0-1.786,22.334-1.34,24.12c0.447,1.786,3.574,21.886,8.487,26.8c0-8.04,0-17.42,0-17.42s4.913-7.594,8.04-10.721c3.126-3.127,5.359-30.373,6.253-34.839c13.399,4.02,25.906,5.36,46.9,5.36s33.5-1.34,46.9-5.36c0.894,4.466,3.127,31.712,6.254,34.839c3.126,3.127,8.039,10.721,8.039,10.721s0,9.38,0,17.42c4.913-4.914,8.04-25.014,8.486-26.8c0.448-1.786-1.34-24.12-1.34-24.12L322.808,185.717z"></path><linearGradient id="hair1XMLID_3324_" gradientUnits="userSpaceOnUse" x1="250.7749" y1="201.667" x2="250.7749" y2="141.6669"><stop offset="0" style="stop-color:#FCFCE4"></stop><stop offset="0.5" style="stop-color:#A0C8DD"></stop><stop offset="1" style="stop-color:#5D6EC5"></stop></linearGradient><path style="fill:url(#hair1XMLID_3324_);stroke:#1E1E1E;stroke-linecap:round;stroke-linejoin:round;" d="M188.807,151.77c0,0-5.808-20.546-1.34-29.48c0,6.7,9.38,10.72,9.38,10.72s-2.681-8.04,4.02-17.867c3.573,3.573,11.613,12.06,11.613,12.06s-4.021-9.827,5.36-17.867c0,4.467,2.68,13.4,2.68,13.4s5.807-12.506,5.807-15.633c3.126,3.573,9.38,13.847,9.38,13.847s6.253-9.38,6.7-16.526c4.912,5.36,6.7,7.593,7.146,14.293c0,0,6.252-3.573,7.146-10.273c3.573,4.021,5.361,8.04,4.913,11.613c3.126-5.36,7.593-9.826,7.146-12.953c2.68,4.467,7.594,9.827,6.7,14.74c2.233-3.127,4.914-12.507,4.914-12.507s5.359,8.487,5.359,12.507c-0.894,5.36,6.7-6.7,6.7-6.7c0.446,6.253,4.02,8.04,1.786,13.847c0.894,0,9.827-9.38,9.827-12.507c2.681,5.36,4.467,15.187,3.127,20.1c1.786-2.233,8.04-11.167,8.04-11.167s2.233,18.76-2.232,27.247"></path><path style="fill:none;stroke:#1E1E1E;stroke-linecap:round;stroke-linejoin:round;" d="M212.927,157.13c0,0,0.894,8.487,10.72,11.613"></path><path style="fill:none;stroke:#1E1E1E;stroke-linecap:round;stroke-linejoin:round;" d="M290.646,151.1c0,0-1.34,11.614-12.061,16.974"></path><path style="fill:none;stroke:#1E1E1E;stroke-linecap:round;stroke-linejoin:round;" d="M237.046,158.246c0,0,1.786,9.827,8.486,11.613"></path></g></g></svg>