<svg xmlns="http://www.w3.org/2000/svg" width="500" height="500" version="1.1"><g id="x120"><g><g><linearGradient id="hair1XMLID_3325_" gradientUnits="userSpaceOnUse" x1="249.2622" y1="206.3335" x2="249.2622" y2="155"><stop offset="0" style="stop-color:#FCFCE4"></stop><stop offset="0.5" style="stop-color:#A0C8DD"></stop><stop offset="1" style="stop-color:#5D6EC5"></stop></linearGradient><path style="fill:url(#hair1XMLID_3325_);stroke:#1E1E1E;stroke-linecap:round;stroke-linejoin:round;" d="M322.069,185.717c0,0-0.895-8.487-5.36-25.46c-16.974-30.374-67.447-31.713-67.447-31.713s-50.474,1.34-67.447,31.713c-4.466,16.973-5.359,25.46-5.359,25.46l4.466-8.934c0,0-1.786,22.334-1.34,24.12s3.573,21.886,8.487,26.8c0-8.04,0-17.42,0-17.42s4.913-7.594,8.04-10.721c3.126-3.127,5.359-30.373,6.253-34.839c3.127-4.02,12.057-5.724,16.974-4.914c4.466,5.807,6.34,6.608,13.399,9.827c4.375,1.994,51.367,2.232,63.428-4.914c0.894,4.466,3.127,31.712,6.253,34.839s8.04,10.721,8.04,10.721s0,9.38,0,17.42c4.913-4.914,8.04-25.014,8.487-26.8c0.446-1.786-1.34-24.12-1.34-24.12L322.069,185.717z"></path></g><linearGradient id="hair1XMLID_3326_" gradientUnits="userSpaceOnUse" x1="272.9629" y1="206.3335" x2="272.9629" y2="155"><stop offset="0" style="stop-color:#FCFCE4"></stop><stop offset="0.5" style="stop-color:#A0C8DD"></stop><stop offset="1" style="stop-color:#5D6EC5"></stop></linearGradient><path style="fill:url(#hair1XMLID_3326_);stroke:#1E1E1E;stroke-linecap:round;stroke-linejoin:round;" d="M262.661,165.616c0,0,20.547,20.993,61.641-1.787c-8.487,1.34-11.167-0.894-11.167-0.894l17.477-19.138c0,0-18.071-11.022-25.124-17.084c-13.65-11.734-29.445-18.273-51.313-18.494c-34.749-0.351-38.86,22.11-38.86,22.11s0.112,10.05,3.239,14.852"></path><path style="fill:none;stroke:#1E1E1E;stroke-linecap:round;stroke-linejoin:round;" d="M257.859,160.815c-1.34-0.335-11.725-8.375-13.064-13.735"></path><path style="fill:none;stroke:#1E1E1E;stroke-linecap:round;stroke-linejoin:round;" d="M246.47,167.85c-1.34-0.335-17.755-11.39-19.095-19.095c-1.341-7.705,5.024-23.115,15.074-31.155"></path><linearGradient id="hair1XMLID_3327_" gradientUnits="userSpaceOnUse" x1="193.6362" y1="206.3335" x2="193.6362" y2="155"><stop offset="0" style="stop-color:#FCFCE4"></stop><stop offset="0.5" style="stop-color:#A0C8DD"></stop><stop offset="1" style="stop-color:#5D6EC5"></stop></linearGradient><path style="fill:url(#hair1XMLID_3327_);stroke:#1E1E1E;stroke-linecap:round;stroke-linejoin:round;" d="M187.175,166.175c0,0-8.486,12.395-10.72,19.542c-5.36-13.4,4.02-31.267,4.02-31.267c-9.646,8.388-4.575,3.679-11.055,13.4c-0.894-14.74,17.309-34.393,25.795-38.86s20.1,1.34,20.1,1.34s2.01,12.395,2.569,13.4"></path><path style="fill:none;stroke:#1E1E1E;stroke-linecap:round;stroke-linejoin:round;" d="M195.215,144.065c1.34,0.335,16.415-1.005,23.115,16.08"></path></g></g></svg>