<svg xmlns="http://www.w3.org/2000/svg" width="500" height="500" version="1.1"><g id="x131"><g><linearGradient id="hair1XMLID_3439_" gradientUnits="userSpaceOnUse" x1="250.0005" y1="215" x2="250.0005" y2="165"><stop offset="0" style="stop-color:#FCFCE4"></stop><stop offset="0.5" style="stop-color:#A0C8DD"></stop><stop offset="1" style="stop-color:#5D6EC5"></stop></linearGradient><path style="fill:url(#hair1XMLID_3439_);stroke:#1E1E1E;stroke-linecap:round;stroke-linejoin:round;" d="M351.84,183.58c0,0-7.146,0.446-19.206,6.477c11.39-30.82,1.116-54.047,1.116-54.047s-4.02,5.36-11.39,12.73c6.7-24.12-3.127-39.977-3.127-39.977S317,113.9,306.28,126.63c2.68-19.653-13.4-39.53-13.4-39.53s-2.902,4.913-8.933,20.323C277.214,83.107,256.542,71.326,250,68.138c-6.542,3.188-27.214,14.969-33.947,39.285c-6.029-15.41-8.933-20.323-8.933-20.323s-15.187,18.537-13.4,39.53c-10.72-12.73-12.953-17.867-12.953-17.867s-9.826,15.857-3.127,39.977c-7.369-7.37-11.39-12.73-11.39-12.73s-10.273,17.196,1.116,48.017c-12.06-6.03-19.206-6.477-19.206-6.477l22.11,31.489l-15.41-6.699c0,0,13.473,23.994,34.807,28.66c0,0-5.327-27.99,6.733-50.771c-4.914,2.681-8.487,8.04-8.487,8.04s8.04-20.994,22.333-35.287c-1.786,4.02-6.7,26.353-5.359,33.947c2.68-18.76,17.42-35.287,23.674-41.54c10.415-2.083,32.465-2.083,42.88,0c27.246,10.72,40.647,42.88,40.647,42.88s-3.574-5.359-8.488-8.04C315.66,203.01,312,223,312,223c-1,4.667-2.333,11.333-2.333,13.667c8.333-8,35.473-34.327,35.473-34.327l-15.409,6.699L351.84,183.58z"></path><g><linearGradient id="hair1XMLID_3440_" gradientUnits="userSpaceOnUse" x1="190" y1="215" x2="190" y2="165.0001"><stop offset="0" style="stop-color:#FCFCE4"></stop><stop offset="0.5" style="stop-color:#A0C8DD"></stop><stop offset="1" style="stop-color:#5D6EC5"></stop></linearGradient><path style="fill:url(#hair1XMLID_3440_);stroke:#1E1E1E;stroke-linecap:round;stroke-linejoin:round;" d="M189,221.667l6,24c0,0-7.667-12.333-10-16.333"></path><linearGradient id="hair1XMLID_3441_" gradientUnits="userSpaceOnUse" x1="311" y1="215" x2="311" y2="165.0001"><stop offset="0" style="stop-color:#FCFCE4"></stop><stop offset="0.5" style="stop-color:#A0C8DD"></stop><stop offset="1" style="stop-color:#5D6EC5"></stop></linearGradient><path style="fill:url(#hair1XMLID_3441_);stroke:#1E1E1E;stroke-linecap:round;stroke-linejoin:round;" d="M312,221.667l-6,24c0,0,7.666-12.333,10-16.333"></path></g><g><linearGradient id="hair1XMLID_3442_" gradientUnits="userSpaceOnUse" x1="242.1831" y1="215" x2="242.1831" y2="165.0001"><stop offset="0" style="stop-color:#FCFCE4"></stop><stop offset="0.5" style="stop-color:#A0C8DD"></stop><stop offset="1" style="stop-color:#5D6EC5"></stop></linearGradient><path style="fill:url(#hair1XMLID_3442_);stroke:#1E1E1E;stroke-linecap:round;stroke-linejoin:round;" d="M242.406,131.543c0,0-20.993,3.126-28.14-4.02c1.786,8.933,5.807,16.527,15.187,19.207c-7.593,1.34-21.439,4.913-23.673,1.787c7.146,11.167,33.946,32.16,54.939,9.38l16.974-5.36l0.893-12.06"></path><linearGradient id="hair1XMLID_3443_" gradientUnits="userSpaceOnUse" x1="258.4629" y1="215" x2="258.4629" y2="164.9998"><stop offset="0" style="stop-color:#FCFCE4"></stop><stop offset="0.5" style="stop-color:#A0C8DD"></stop><stop offset="1" style="stop-color:#5D6EC5"></stop></linearGradient><path style="fill:url(#hair1XMLID_3443_);stroke:#1E1E1E;stroke-linecap:round;stroke-linejoin:round;" d="M250.894,160.13c0,0-8.487,12.952-21.44,14.293c11.167,0.894,28.587,0,34.84-11.167c-4.467,8.486-13.399,17.867-13.399,17.867s24.567,0.894,26.354-26.354c3.573,11.167,0,26.354,0,26.354s21.439-18.76,2.233-43.773"></path></g></g></g></svg>