<svg xmlns="http://www.w3.org/2000/svg" width="500" height="500" version="1.1"><g id="x136"><g><linearGradient id="hair1XMLID_3484_" gradientUnits="userSpaceOnUse" x1="174.0669" y1="219" x2="174.0669" y2="151.667"><stop offset="0" style="stop-color:#FCFCE4"></stop><stop offset="0.5" style="stop-color:#A0C8DD"></stop><stop offset="1" style="stop-color:#5D6EC5"></stop></linearGradient><path style="fill:url(#hair1XMLID_3484_);stroke:#1E1E1E;stroke-linecap:round;stroke-linejoin:round;" d="M176.746,153.556c0,0-24.566,43.327-32.606,75.487c2.681-50.027,22.78-86.207,59.854-110.327"></path><linearGradient id="hair1XMLID_3485_" gradientUnits="userSpaceOnUse" x1="250.0503" y1="219" x2="250.0503" y2="151.667"><stop offset="0" style="stop-color:#FCFCE4"></stop><stop offset="0.5" style="stop-color:#A0C8DD"></stop><stop offset="1" style="stop-color:#5D6EC5"></stop></linearGradient><path style="fill:url(#hair1XMLID_3485_);stroke:#1E1E1E;stroke-linecap:round;stroke-linejoin:round;" d="M311.534,135.882c-17.021-17.418-41.603-23.852-61.484-20.131c-19.882-3.721-44.464,2.713-61.484,20.131c-13.061,13.365-22.283,30.165-22.283,51.08c0,24.372,15.268,44.372,25.934,48.538c-7.33-33.49-0.484-59.331,5.084-68.5c1.798-2.157,29.369-5.491,52.75-5.619c23.381,0.128,50.952,3.462,52.75,5.619c5.568,9.169,12.414,35.01,5.084,68.5c10.666-4.167,25.934-24.167,25.934-48.538C333.817,166.047,324.595,149.248,311.534,135.882z"></path><linearGradient id="hair1XMLID_3486_" gradientUnits="userSpaceOnUse" x1="192.1875" y1="219" x2="192.1875" y2="151.667"><stop offset="0" style="stop-color:#FCFCE4"></stop><stop offset="0.5" style="stop-color:#A0C8DD"></stop><stop offset="1" style="stop-color:#5D6EC5"></stop></linearGradient><path style="fill:url(#hair1XMLID_3486_);stroke:#1E1E1E;stroke-linecap:round;stroke-linejoin:round;" d="M204,177.333c0.321-1.999-8.968,55.44-2.91,73.149c-11.613-2.68-24.566-33.946-19.653-66.553"></path><linearGradient id="hair1XMLID_3487_" gradientUnits="userSpaceOnUse" x1="212.7632" y1="219" x2="212.7632" y2="151.6672"><stop offset="0" style="stop-color:#FCFCE4"></stop><stop offset="0.5" style="stop-color:#A0C8DD"></stop><stop offset="1" style="stop-color:#5D6EC5"></stop></linearGradient><path style="fill:url(#hair1XMLID_3487_);stroke:#1E1E1E;stroke-linecap:round;stroke-linejoin:round;" d="M207.566,156.683c0,0-16.526,24.12-3.126,64.766c1.786-22.779,21.886-60.746,21.886-60.746"></path><linearGradient id="hair1XMLID_3488_" gradientUnits="userSpaceOnUse" x1="296.1484" y1="219" x2="296.1484" y2="151.6673"><stop offset="0" style="stop-color:#FCFCE4"></stop><stop offset="0.5" style="stop-color:#A0C8DD"></stop><stop offset="1" style="stop-color:#5D6EC5"></stop></linearGradient><path style="fill:url(#hair1XMLID_3488_);stroke:#1E1E1E;stroke-linecap:round;stroke-linejoin:round;" d="M280.334,163.333c0,0,23.266,43.823,26.839,61.243c5.808-16.526,8.935-42.88-6.253-66.106"></path><linearGradient id="hair1XMLID_3489_" gradientUnits="userSpaceOnUse" x1="254.0029" y1="219" x2="254.0029" y2="151.667"><stop offset="0" style="stop-color:#FCFCE4"></stop><stop offset="0.5" style="stop-color:#A0C8DD"></stop><stop offset="1" style="stop-color:#5D6EC5"></stop></linearGradient><path style="fill:url(#hair1XMLID_3489_);stroke:#1E1E1E;stroke-linecap:round;stroke-linejoin:round;" d="M224.54,158.246c0,0-13.847,25.907-1.34,59.407c3.126-22.78,8.934-25.014,8.934-25.014s1.787,33.054,27.693,47.347c-1.787-25.906-3.127-39.307-3.127-39.307s6.253,18.537,14.293,24.79c-5.807-28.587-6.7-51.366-6.253-64.097c3.127,14.293,20.993,49.133,21.887,53.6c2.68-10.273,6.7-37.52-1.34-55.386"></path><g><g><g><linearGradient id="hair1XMLID_3490_" gradientUnits="userSpaceOnUse" x1="305.498" y1="219" x2="305.498" y2="151.6669"><stop offset="0" style="stop-color:#FCFCE4"></stop><stop offset="0.5" style="stop-color:#A0C8DD"></stop><stop offset="1" style="stop-color:#5D6EC5"></stop></linearGradient><path style="fill:url(#hair1XMLID_3490_);stroke:#1E1E1E;stroke-linecap:round;stroke-linejoin:round;" d="M280.15,136.136c0,0,27.692,32.607,30.819,104.967c6.254-8.934,9.827-22.334,9.827-22.334v38.859c10.72-12.059,15.855-44.107,11.836-61.975c6.477,22.334,17.867,29.369,23.228,33.389c-15.188-19.207-12.731-55.834-33.277-85.313c-20.546-29.48-49.133-37.966-51.813-36.626c-2.681,1.34-15.634,23.227-15.634,23.227"></path><path style="fill:none;stroke:#1E1E1E;stroke-linecap:round;stroke-linejoin:round;" d="M260.943,133.456c0,0,8.486-10.72,17.42-16.08"></path></g></g><g><g><linearGradient id="hair1XMLID_3491_" gradientUnits="userSpaceOnUse" x1="200.644" y1="219" x2="200.644" y2="151.6669"><stop offset="0" style="stop-color:#FCFCE4"></stop><stop offset="0.5" style="stop-color:#A0C8DD"></stop><stop offset="1" style="stop-color:#5D6EC5"></stop></linearGradient><path style="fill:url(#hair1XMLID_3491_);stroke:#1E1E1E;stroke-linecap:round;stroke-linejoin:round;" d="M220.298,136.136c0,0-27.694,32.607-30.82,104.967c-6.254-8.934-9.827-22.334-9.827-22.334v38.859c-10.721-12.059-18.313-44.219-14.293-62.086c-5.359,18.313-9.38,30.373-9.38,30.373s1.34-52.707,21.887-82.187c20.546-29.48,49.134-37.966,51.813-36.626s15.633,23.227,15.633,23.227"></path><path style="fill:none;stroke:#1E1E1E;stroke-linecap:round;stroke-linejoin:round;" d="M239.504,133.456c0,0-8.486-10.72-17.42-16.08"></path></g></g></g><path style="fill:none;stroke:#1E1E1E;stroke-linecap:round;stroke-linejoin:round;" d="M260.306,136.745c9.567,1.123,16.941,3.412,16.941,3.412"></path><path style="fill:none;stroke:#1E1E1E;stroke-linecap:round;stroke-linejoin:round;" d="M223.646,140.156c0,0,6.729-2.088,15.672-3.255"></path></g></g></svg>