<svg xmlns="http://www.w3.org/2000/svg" width="500" height="500" version="1.1"><g id="x174"><linearGradient id="hair1XMLID_3840_" gradientUnits="userSpaceOnUse" x1="250.0005" y1="210.3335" x2="250.0005" y2="156"><stop offset="0" style="stop-color:#FCFCE4"></stop><stop offset="0.5" style="stop-color:#A0C8DD"></stop><stop offset="1" style="stop-color:#5D6EC5"></stop></linearGradient><path style="fill:url(#hair1XMLID_3840_);stroke:#1E1E1E;stroke-linecap:round;stroke-linejoin:round;" d="M305.829,133.016c-16.46-15.465-37.753-19.66-55.829-16.156c-18.077-3.503-39.369,0.691-55.829,16.156c-18.197,17.096-20.394,37.527-20.394,57.584c0,14.795,9.96,35.729,10.473,36.9c0,0,5.25,6.5,9.75,15.25c-8.25-26-7.674-55,6.132-72.533c1.132-1.426,40.047-3.826,49.868-4.125c9.821,0.299,48.736,2.699,49.868,4.125C313.674,187.75,314.25,216.75,306,242.75c4.5-8.75,9.75-15.25,9.75-15.25c0.513-1.172,10.473-22.105,10.473-36.9C326.223,170.543,324.026,150.112,305.829,133.016z"></path><g><g><linearGradient id="hair1XMLID_3841_" gradientUnits="userSpaceOnUse" x1="257.9336" y1="210.3335" x2="257.9336" y2="155.9999"><stop offset="0" style="stop-color:#FCFCE4"></stop><stop offset="0.5" style="stop-color:#A0C8DD"></stop><stop offset="1" style="stop-color:#5D6EC5"></stop></linearGradient><path style="fill:url(#hair1XMLID_3841_);stroke:#1E1E1E;stroke-linecap:round;stroke-linejoin:round;" d="M219.85,123.819c-10.72-8.916-9.38-18.983-6.699-24.16c5.694,10.067,13.399,14.381,21.439,16.107c-8.375-8.629-4.689-12.656-2.345-14.669c7.705-2.589,30.485-0.576,41.205-4.602c-4.021,6.328-17.755,10.067-17.755,10.067s14.74-4.89,27.135-1.726c9.361,2.39,20.77,1.151,21.775,0.863c-15.41,10.354-29.815,8.917-29.48,8.341c0,0,17.085,7.766,19.095,10.93"></path><linearGradient id="hair1XMLID_3842_" gradientUnits="userSpaceOnUse" x1="229.145" y1="210.3335" x2="229.145" y2="156"><stop offset="0" style="stop-color:#FCFCE4"></stop><stop offset="0.5" style="stop-color:#A0C8DD"></stop><stop offset="1" style="stop-color:#5D6EC5"></stop></linearGradient><path style="fill:url(#hair1XMLID_3842_);stroke:#1E1E1E;stroke-linecap:round;stroke-linejoin:round;" d="M235.93,118.27c0,0-9.38-13.735-4.354-24.455c-6.7,6.03-15.075,22.78-3.351,35.175"></path></g><g><g><linearGradient id="hair1XMLID_3843_" gradientUnits="userSpaceOnUse" x1="293.8848" y1="210.3335" x2="293.8848" y2="155.9999"><stop offset="0" style="stop-color:#FCFCE4"></stop><stop offset="0.5" style="stop-color:#A0C8DD"></stop><stop offset="1" style="stop-color:#5D6EC5"></stop></linearGradient><path style="fill:url(#hair1XMLID_3843_);stroke:#1E1E1E;stroke-linecap:round;stroke-linejoin:round;" d="M249.665,153.445c0.335-1.34,11.055-28.81,19.095-34.84c8.04-6.03,23.785-7.705,48.91,4.69c-11.055,0-17.755,2.345-17.755,2.345s9.469,0.067,19.095,7.37c9.715,7.37,11.056,8.71,19.096,9.045c-9.045,5.025-16.08,7.705-25.46,6.7"></path><linearGradient id="hair1XMLID_3844_" gradientUnits="userSpaceOnUse" x1="292.8799" y1="210.3335" x2="292.8799" y2="156.0001"><stop offset="0" style="stop-color:#FCFCE4"></stop><stop offset="0.5" style="stop-color:#A0C8DD"></stop><stop offset="1" style="stop-color:#5D6EC5"></stop></linearGradient><path style="fill:url(#hair1XMLID_3844_);stroke:#1E1E1E;stroke-linecap:round;stroke-linejoin:round;" d="M252.345,157.13c0,0,10.386-18.425,22.11-20.435c11.725-2.01,40.535,13.065,58.96,12.73c-8.71,8.375-21.775,10.385-29.815,9.045"></path><linearGradient id="hair1XMLID_3845_" gradientUnits="userSpaceOnUse" x1="321.959" y1="210.3335" x2="321.959" y2="156"><stop offset="0" style="stop-color:#FCFCE4"></stop><stop offset="0.5" style="stop-color:#A0C8DD"></stop><stop offset="1" style="stop-color:#5D6EC5"></stop></linearGradient><path style="fill:url(#hair1XMLID_3845_);stroke:#1E1E1E;stroke-linecap:round;stroke-linejoin:round;" d="M300.788,170.217c0,0,8.842,2.992,15.542,9.693c6.534,6.534,12.73,8.709,24.79,3.015c-12.06-3.685-15.745-12.396-15.745-12.396s8.71,4.69,17.755-3.685c-8.71-0.335-21.774-8.04-21.774-8.04"></path><linearGradient id="hair1XMLID_3846_" gradientUnits="userSpaceOnUse" x1="294.8896" y1="210.3335" x2="294.8896" y2="156"><stop offset="0" style="stop-color:#FCFCE4"></stop><stop offset="0.5" style="stop-color:#A0C8DD"></stop><stop offset="1" style="stop-color:#5D6EC5"></stop></linearGradient><path style="fill:url(#hair1XMLID_3846_);stroke:#1E1E1E;stroke-linecap:round;stroke-linejoin:round;" d="M277.47,160.81c8.71-5.695,27.806-5.025,27.806-5.025c9.045,0.335,14.404,5.36,34.17,0c-15.075,16.415-36.851,16.081-46.23,13.065c-6.365,2.68-13.064,3.35-23.115,0c0,0-13.064,1.005-19.765-3.35"></path></g><g><linearGradient id="hair1XMLID_3847_" gradientUnits="userSpaceOnUse" x1="206.1152" y1="210.3335" x2="206.1152" y2="156"><stop offset="0" style="stop-color:#FCFCE4"></stop><stop offset="0.5" style="stop-color:#A0C8DD"></stop><stop offset="1" style="stop-color:#5D6EC5"></stop></linearGradient><path style="fill:url(#hair1XMLID_3847_);stroke:#1E1E1E;stroke-linecap:round;stroke-linejoin:round;" d="M250.335,153.445c-0.335-1.34-11.055-28.81-19.095-34.84c-8.04-6.03-28.141-9.045-59.295,7.035c11.055,0,28.14,0,28.14,0s-9.468,0.067-19.095,7.37c-9.715,7.37-11.055,8.71-19.095,9.045c9.045,5.025,16.079,7.705,25.46,6.7"></path><linearGradient id="hair1XMLID_3848_" gradientUnits="userSpaceOnUse" x1="207.1201" y1="210.3335" x2="207.1201" y2="156.0001"><stop offset="0" style="stop-color:#FCFCE4"></stop><stop offset="0.5" style="stop-color:#A0C8DD"></stop><stop offset="1" style="stop-color:#5D6EC5"></stop></linearGradient><path style="fill:url(#hair1XMLID_3848_);stroke:#1E1E1E;stroke-linecap:round;stroke-linejoin:round;" d="M247.655,157.13c0,0-10.385-18.425-22.11-20.435c-11.725-2.01-40.535,13.065-58.96,12.73c8.71,8.375,21.775,10.385,29.815,9.045"></path><linearGradient id="hair1XMLID_3849_" gradientUnits="userSpaceOnUse" x1="178.041" y1="210.3335" x2="178.041" y2="156"><stop offset="0" style="stop-color:#FCFCE4"></stop><stop offset="0.5" style="stop-color:#A0C8DD"></stop><stop offset="1" style="stop-color:#5D6EC5"></stop></linearGradient><path style="fill:url(#hair1XMLID_3849_);stroke:#1E1E1E;stroke-linecap:round;stroke-linejoin:round;" d="M199.212,170.217c0,0-8.842,2.992-15.542,9.693c-6.534,6.534-12.729,8.709-24.79,3.015c12.061-3.685,15.745-12.396,15.745-12.396s-8.71,4.69-17.755-3.685c8.71-0.335,21.775-8.04,21.775-8.04"></path><linearGradient id="hair1XMLID_3850_" gradientUnits="userSpaceOnUse" x1="205.1099" y1="210.3335" x2="205.1099" y2="156"><stop offset="0" style="stop-color:#FCFCE4"></stop><stop offset="0.5" style="stop-color:#A0C8DD"></stop><stop offset="1" style="stop-color:#5D6EC5"></stop></linearGradient><path style="fill:url(#hair1XMLID_3850_);stroke:#1E1E1E;stroke-linecap:round;stroke-linejoin:round;" d="M222.53,160.81c-8.71-5.695-27.806-5.025-27.806-5.025c-9.045,0.335-14.404,5.36-34.17,0c15.075,16.415,36.851,16.081,46.23,13.065c6.365,2.68,13.064,3.35,23.115,0c0,0,13.064,1.005,19.765-3.35"></path></g></g><linearGradient id="hair1XMLID_3851_" gradientUnits="userSpaceOnUse" x1="247.3555" y1="210.3335" x2="247.3555" y2="156.0002"><stop offset="0" style="stop-color:#FCFCE4"></stop><stop offset="0.5" style="stop-color:#A0C8DD"></stop><stop offset="1" style="stop-color:#5D6EC5"></stop></linearGradient><path style="fill:url(#hair1XMLID_3851_);stroke:#1E1E1E;stroke-linecap:round;stroke-linejoin:round;" d="M252.01,156.125c0,0-7.37,29.145,2.011,47.235c-12.73-9.38-14.07-33.5-13.065-37.854C241.96,161.15,252.01,156.125,252.01,156.125z"></path><linearGradient id="hair1XMLID_3852_" gradientUnits="userSpaceOnUse" x1="232.4302" y1="210.3335" x2="232.4302" y2="156"><stop offset="0" style="stop-color:#FCFCE4"></stop><stop offset="0.5" style="stop-color:#A0C8DD"></stop><stop offset="1" style="stop-color:#5D6EC5"></stop></linearGradient><path style="fill:url(#hair1XMLID_3852_);stroke:#1E1E1E;stroke-linecap:round;stroke-linejoin:round;" d="M239.615,165.84c0,0-11.391,17.085-13.735,27.47C223.2,176.225,229.23,168.185,239.615,165.84z"></path></g></g></svg>