<svg xmlns="http://www.w3.org/2000/svg" width="500" height="500" version="1.1"><g id="x180"><g><g><linearGradient id="hair1XMLID_3903_" gradientUnits="userSpaceOnUse" x1="250.0503" y1="230.667" x2="250.0503" y2="133.3335"><stop offset="0" style="stop-color:#FCFCE4"></stop><stop offset="0.5" style="stop-color:#A0C8DD"></stop><stop offset="1" style="stop-color:#5D6EC5"></stop></linearGradient><path style="fill:url(#hair1XMLID_3903_);stroke:#1E1E1E;stroke-linecap:round;stroke-linejoin:round;" d="M311.534,135.882c-17.021-17.418-41.603-23.852-61.484-20.131c-19.882-3.721-44.464,2.713-61.484,20.131c-13.061,13.365-22.283,30.165-22.283,51.08c0,24.372,15.268,44.372,25.934,48.538c-7.33-33.49-0.484-59.331,5.084-68.5c1.798-2.157,29.369-5.491,52.75-5.619c23.381,0.128,50.952,3.462,52.75,5.619c5.568,9.169,12.414,35.01,5.084,68.5c10.666-4.167,25.934-24.167,25.934-48.538C333.817,166.047,324.595,149.248,311.534,135.882z"></path></g><linearGradient id="hair1XMLID_3904_" gradientUnits="userSpaceOnUse" x1="310.6299" y1="230.667" x2="310.6299" y2="133.3335"><stop offset="0" style="stop-color:#FCFCE4"></stop><stop offset="0.5" style="stop-color:#A0C8DD"></stop><stop offset="1" style="stop-color:#5D6EC5"></stop></linearGradient><path style="fill:url(#hair1XMLID_3904_);stroke:#1E1E1E;stroke-linecap:round;stroke-linejoin:round;" d="M316.157,229.617c0,0-9.715,21.44-9.38,18.76c0.335-2.68-1.675-29.145-1.675-29.145"></path><linearGradient id="hair1XMLID_3905_" gradientUnits="userSpaceOnUse" x1="263.2266" y1="230.667" x2="263.2266" y2="133.3337"><stop offset="0" style="stop-color:#FCFCE4"></stop><stop offset="0.5" style="stop-color:#A0C8DD"></stop><stop offset="1" style="stop-color:#5D6EC5"></stop></linearGradient><path style="fill:url(#hair1XMLID_3905_);stroke:#1E1E1E;stroke-linecap:round;stroke-linejoin:round;" d="M215.657,119.067c0,0-8.375-16.75-20.436-19.765c17.086-4.69,36.181,4.02,42.546,7.035c-15.745-6.365-19.766-10.72-19.766-10.72s45.896-7.035,79.396,22.445c-9.045-12.395-13.065-20.1-13.065-20.1s42.545,23.45,46.9,70.685"></path><linearGradient id="hair1XMLID_3906_" gradientUnits="userSpaceOnUse" x1="325.0586" y1="230.667" x2="325.0586" y2="133.3335"><stop offset="0" style="stop-color:#FCFCE4"></stop><stop offset="0.5" style="stop-color:#A0C8DD"></stop><stop offset="1" style="stop-color:#5D6EC5"></stop></linearGradient><path style="fill:url(#hair1XMLID_3906_);stroke:#1E1E1E;stroke-linecap:round;stroke-linejoin:round;" d="M313.813,130.792c0,0-3.351-17.755-6.365-23.115c13.399,14.07,19.43,22.445,18.425,41.205c2.01-10.72,4.69-16.08,4.69-16.08s8.375,23.785,0,49.245c6.364-5.36,12.06-19.095,12.06-19.095s1.675,27.47-14.74,47.57"></path><linearGradient id="hair1XMLID_3907_" gradientUnits="userSpaceOnUse" x1="228.2202" y1="230.667" x2="228.2202" y2="133.3333"><stop offset="0" style="stop-color:#FCFCE4"></stop><stop offset="0.5" style="stop-color:#A0C8DD"></stop><stop offset="1" style="stop-color:#5D6EC5"></stop></linearGradient><path style="fill:url(#hair1XMLID_3907_);stroke:#1E1E1E;stroke-linecap:round;stroke-linejoin:round;" d="M182.827,164.961c-13.4-16.415-15.075-36.85-15.745-51.59c4.355,11.39,13.735,12.06,13.735,12.06s-6.365-13.4-6.03-23.45c11.055,6.7,10.385,6.365,24.12,7.035s71.02,5.36,90.45,28.475"></path><linearGradient id="hair1XMLID_3908_" gradientUnits="userSpaceOnUse" x1="252.0039" y1="230.667" x2="252.0039" y2="133.3335"><stop offset="0" style="stop-color:#FCFCE4"></stop><stop offset="0.5" style="stop-color:#A0C8DD"></stop><stop offset="1" style="stop-color:#5D6EC5"></stop></linearGradient><path style="fill:url(#hair1XMLID_3908_);stroke:#1E1E1E;stroke-linecap:round;stroke-linejoin:round;" d="M211.637,121.077c0,0,27.004-20.21,80.735-2.01c-41.607-0.193-52.629,5.942-52.629,5.942"></path><linearGradient id="hair1XMLID_3909_" gradientUnits="userSpaceOnUse" x1="279.8066" y1="230.667" x2="279.8066" y2="133.3335"><stop offset="0" style="stop-color:#FCFCE4"></stop><stop offset="0.5" style="stop-color:#A0C8DD"></stop><stop offset="1" style="stop-color:#5D6EC5"></stop></linearGradient><path style="fill:url(#hair1XMLID_3909_);stroke:#1E1E1E;stroke-linecap:round;stroke-linejoin:round;" d="M229.728,122.082c-0.67-1.005,57.619-5.695,100.165,30.485c-25.46-8.71-60.301-9.38-60.301-9.38"></path><linearGradient id="hair1XMLID_3910_" gradientUnits="userSpaceOnUse" x1="291.7021" y1="230.667" x2="291.7021" y2="133.3336"><stop offset="0" style="stop-color:#FCFCE4"></stop><stop offset="0.5" style="stop-color:#A0C8DD"></stop><stop offset="1" style="stop-color:#5D6EC5"></stop></linearGradient><path style="fill:url(#hair1XMLID_3910_);stroke:#1E1E1E;stroke-linecap:round;stroke-linejoin:round;" d="M236.762,128.447c2.011,0,68.341,9.715,103.181,50.585c-24.12-10.385-36.516-18.425-36.516-18.425s31.155,16.75,43.216,46.23c-14.74-9.715-25.125-14.74-25.125-14.74s15.409,17.085,19.43,29.815c-15.075-8.71-43.55-26.465-43.55-26.465"></path><linearGradient id="hair1XMLID_3911_" gradientUnits="userSpaceOnUse" x1="174.9497" y1="230.667" x2="174.9497" y2="133.3339"><stop offset="0" style="stop-color:#FCFCE4"></stop><stop offset="0.5" style="stop-color:#A0C8DD"></stop><stop offset="1" style="stop-color:#5D6EC5"></stop></linearGradient><path style="fill:url(#hair1XMLID_3911_);stroke:#1E1E1E;stroke-linecap:round;stroke-linejoin:round;" d="M180.482,185.731c0,0-6.365,25.125-6.03,46.565c-8.71-20.77-11.39-28.14-4.355-57.285c-5.024,10.72-13.064,26.465-12.729,27.47c0.446,1.338-3.949-32.478,35.175-64.655"></path><linearGradient id="hair1XMLID_3912_" gradientUnits="userSpaceOnUse" x1="191.6284" y1="230.667" x2="191.6284" y2="133.3331"><stop offset="0" style="stop-color:#FCFCE4"></stop><stop offset="0.5" style="stop-color:#A0C8DD"></stop><stop offset="1" style="stop-color:#5D6EC5"></stop></linearGradient><path style="fill:url(#hair1XMLID_3912_);stroke:#1E1E1E;stroke-linecap:round;stroke-linejoin:round;" d="M205.942,159.267c0,0-15.075,61.64-9.715,89.445c-23.45-20.1-19.431-53.935-17.085-73.03"></path><linearGradient id="hair1XMLID_3913_" gradientUnits="userSpaceOnUse" x1="261.8936" y1="230.667" x2="261.8936" y2="133.3335"><stop offset="0" style="stop-color:#FCFCE4"></stop><stop offset="0.5" style="stop-color:#A0C8DD"></stop><stop offset="1" style="stop-color:#5D6EC5"></stop></linearGradient><path style="fill:url(#hair1XMLID_3913_);stroke:#1E1E1E;stroke-linecap:round;stroke-linejoin:round;" d="M230.063,129.787c54.604,16.08,90.449,87.1,93.13,104.185c-3.351-8.375-17.755-25.795-17.755-25.795s5.359,9.045,7.705,28.475c-11.391-20.436-50.585-54.605-50.585-54.605s6.029,11.725,16.079,31.825c-13.399-8.71-29.479-30.15-29.479-30.15s15.745,36.515,22.11,53.935c-46.565-18.09-51.926-44.555-51.926-44.555s-2.01,18.425,3.686,31.825c-31.155-27.805-20.771-79.395-20.771-79.395s-1.675-19.43,0.67-18.425c2.346,1.005,16.75,2.01,16.75,2.01"></path><path style="fill:none;stroke:#1E1E1E;stroke-linecap:round;stroke-linejoin:round;" d="M212.308,153.237c0,0,2.345,30.485,7.704,42.21"></path></g></g></svg>