<svg xmlns="http://www.w3.org/2000/svg" width="500" height="500" version="1.1"><g id="x182"><g><linearGradient id="hair1XMLID_3926_" gradientUnits="userSpaceOnUse" x1="250.0278" y1="246.667" x2="250.0278" y2="150.9999"><stop offset="0" style="stop-color:#FCFCE4"></stop><stop offset="0.5" style="stop-color:#A0C8DD"></stop><stop offset="1" style="stop-color:#5D6EC5"></stop></linearGradient><path style="fill:url(#hair1XMLID_3926_);stroke:#1E1E1E;stroke-linecap:round;stroke-linejoin:round;" d="M311.819,136.088c-17.106-17.505-41.812-23.971-61.792-20.231c-19.98-3.739-44.686,2.727-61.792,20.231c-13.126,13.432-22.395,30.316-22.395,51.335c0,15.77,9.561,38.005,9.561,38.005l17.974,16.416c0,0-6-25.748-6-26.801c0-2.68,5.762-7.705,5.762-7.705l-5.872-9.654c0.173-0.802,3.074-16.469,7.14-25.094l10.813-3.777l-0.279-3.622c0.502-0.084,12.339,2.952,12.339,2.952l-1.675-5.36c1.047-0.112,14.405,4.02,14.405,4.02l-0.639-4.279c6.756-0.467,13.881-0.773,20.659-0.811c23.498,0.129,51.207,3.479,53.014,5.647c5.597,9.215,12.477,35.186,5.109,68.842c10.72-4.187,26.063-24.287,26.063-48.781C334.214,166.404,324.945,149.521,311.819,136.088z"></path><linearGradient id="hair1XMLID_3927_" gradientUnits="userSpaceOnUse" x1="203.374" y1="246.667" x2="203.374" y2="151"><stop offset="0" style="stop-color:#FCFCE4"></stop><stop offset="0.5" style="stop-color:#A0C8DD"></stop><stop offset="1" style="stop-color:#5D6EC5"></stop></linearGradient><path style="fill:url(#hair1XMLID_3927_);stroke:#1E1E1E;stroke-linecap:round;stroke-linejoin:round;" d="M170.712,159.434c0-1.34,5.694-28.14,39.194-43.885c14.74-3.35,26.13-1.005,26.13-1.005"></path><linearGradient id="hair1XMLID_3928_" gradientUnits="userSpaceOnUse" x1="170.1909" y1="246.667" x2="170.1909" y2="151.0002"><stop offset="0" style="stop-color:#FCFCE4"></stop><stop offset="0.5" style="stop-color:#A0C8DD"></stop><stop offset="1" style="stop-color:#5D6EC5"></stop></linearGradient><path style="fill:url(#hair1XMLID_3928_);stroke:#1E1E1E;stroke-linecap:round;stroke-linejoin:round;" d="M180.427,158.429c0,0-13.065,19.765-19.096,63.315c-4.02-26.13,0.335-53.935,18.761-76.045"></path><linearGradient id="hair1XMLID_3929_" gradientUnits="userSpaceOnUse" x1="209.5713" y1="246.667" x2="209.5713" y2="151"><stop offset="0" style="stop-color:#FCFCE4"></stop><stop offset="0.5" style="stop-color:#A0C8DD"></stop><stop offset="1" style="stop-color:#5D6EC5"></stop></linearGradient><path style="fill:url(#hair1XMLID_3929_);stroke:#1E1E1E;stroke-linecap:round;stroke-linejoin:round;" d="M225.316,155.749c0,0-18.09-8.04-19.765-7.035c-3.686,2.01-9.715,7.705-11.726,11.39"></path><linearGradient id="hair1XMLID_3930_" gradientUnits="userSpaceOnUse" x1="271.8438" y1="246.667" x2="271.8438" y2="151"><stop offset="0" style="stop-color:#FCFCE4"></stop><stop offset="0.5" style="stop-color:#A0C8DD"></stop><stop offset="1" style="stop-color:#5D6EC5"></stop></linearGradient><path style="fill:url(#hair1XMLID_3930_);stroke:#1E1E1E;stroke-linecap:round;stroke-linejoin:round;" d="M317.106,141.679c-26.13-34.84-70.35-34.17-73.7-32.83c-1.656,0.663-6.029,5.025-9.715,10.05c-7.37,4.355-10.377,6.669-11.055,9.38c-4.69,19.765,6.113,33.846,6.113,33.846s2.57-4.525,5.25-7.875c-1.125,5.625-6.339,24.614-2.653,52.418c3.004,22.67,10.05,28.81,18.09,37.52c-2.68-12.06-6.03-49.579-6.03-49.579s4.69,48.239,22.78,52.26c-8.04-14.07-2.01-43.55-3.35-51.59c2.01,12.06-0.671,43.55,18.09,50.92c-5.36-11.39-2.011-50.25-2.011-50.25c2.011,20.1,6.7,40.2,16.08,49.58c5.36-2.681,16.08-36.85,8.71-60.97c6.7,19.43,4.69,52.93-2.68,63.65c12.061-10.05,30.15-42.88,16.08-81.74"></path><linearGradient id="hair1XMLID_3931_" gradientUnits="userSpaceOnUse" x1="332.2705" y1="246.667" x2="332.2705" y2="151"><stop offset="0" style="stop-color:#FCFCE4"></stop><stop offset="0.5" style="stop-color:#A0C8DD"></stop><stop offset="1" style="stop-color:#5D6EC5"></stop></linearGradient><path style="fill:url(#hair1XMLID_3931_);stroke:#1E1E1E;stroke-linecap:round;stroke-linejoin:round;" d="M331.847,169.148c0,0,11.39,34.17-3.351,60.3c2.681-20.1,2.011-40.87,2.011-40.87"></path></g></g></svg>