<svg xmlns="http://www.w3.org/2000/svg" width="500" height="500" version="1.1"><g id="x201"><g><g><linearGradient id="hair1XMLID_4055_" gradientUnits="userSpaceOnUse" x1="250.0005" y1="231.3335" x2="250.0005" y2="173.3335"><stop offset="0" style="stop-color:#FCFCE4"></stop><stop offset="0.5" style="stop-color:#A0C8DD"></stop><stop offset="1" style="stop-color:#5D6EC5"></stop></linearGradient><path style="fill:url(#hair1XMLID_4055_);stroke:#1E1E1E;stroke-linecap:round;stroke-linejoin:round;" d="M311.641,132.383c-28.141-19.43-61.64-19.43-61.64-19.43s-33.5,0-61.641,19.43c-15.745,19.43-23.115,52.93-19.095,67.67c4.02,14.74,19.765,40.535,19.765,40.535s-0.335-29.48,0.335-40.535c6.7-22.11,18.09-33.5,18.09-33.5l14.07,10.72c0,0,0-6.365-3.35-12.06c14.404,13.4,31.825,19.43,31.825,19.43s17.419-6.03,31.824-19.43c-3.35,5.695-3.35,12.06-3.35,12.06l14.07-10.72c0,0,11.391,11.39,18.09,33.5c0.67,11.055,0.336,40.535,0.336,40.535s15.744-25.795,19.764-40.535C334.756,185.313,327.385,151.813,311.641,132.383z"></path><g><linearGradient id="hair1XMLID_4056_" gradientUnits="userSpaceOnUse" x1="206.1431" y1="231.3335" x2="206.1431" y2="173.3337"><stop offset="0" style="stop-color:#FCFCE4"></stop><stop offset="0.5" style="stop-color:#A0C8DD"></stop><stop offset="1" style="stop-color:#5D6EC5"></stop></linearGradient><path style="fill:url(#hair1XMLID_4056_);stroke:#1E1E1E;stroke-linecap:round;stroke-linejoin:round;" d="M201.463,161.863c0,0-15.075-21.44-14.404-31.155c3.015-8.71,12.06-15.075,12.06-15.075s20.77-0.335,26.13,5.695"></path><linearGradient id="hair1XMLID_4057_" gradientUnits="userSpaceOnUse" x1="293.8584" y1="231.3335" x2="293.8584" y2="173.3337"><stop offset="0" style="stop-color:#FCFCE4"></stop><stop offset="0.5" style="stop-color:#A0C8DD"></stop><stop offset="1" style="stop-color:#5D6EC5"></stop></linearGradient><path style="fill:url(#hair1XMLID_4057_);stroke:#1E1E1E;stroke-linecap:round;stroke-linejoin:round;" d="M298.537,161.863c0,0,15.076-21.44,14.406-31.155c-3.016-8.71-12.061-15.075-12.061-15.075s-20.77-0.335-26.131,5.695"></path></g><linearGradient id="hair1XMLID_4058_" gradientUnits="userSpaceOnUse" x1="250.0005" y1="231.3335" x2="250.0005" y2="173.3337"><stop offset="0" style="stop-color:#FCFCE4"></stop><stop offset="0.5" style="stop-color:#A0C8DD"></stop><stop offset="1" style="stop-color:#5D6EC5"></stop></linearGradient><path style="fill:url(#hair1XMLID_4058_);stroke:#1E1E1E;stroke-linecap:round;stroke-linejoin:round;" d="M281.49,146.118c0-1.34,4.355-23.785,2.68-30.82C272.111,99.553,250,93.188,250,93.188s-22.109,6.365-34.17,22.11c-1.675,7.035,2.68,29.48,2.68,30.82"></path></g><g><g><linearGradient id="hair1XMLID_4059_" gradientUnits="userSpaceOnUse" x1="168.9287" y1="231.3335" x2="168.9287" y2="173.3335"><stop offset="0" style="stop-color:#FCFCE4"></stop><stop offset="0.5" style="stop-color:#A0C8DD"></stop><stop offset="1" style="stop-color:#5D6EC5"></stop></linearGradient><path style="fill:url(#hair1XMLID_4059_);stroke:#1E1E1E;stroke-linecap:round;stroke-linejoin:round;" d="M180.829,145.783c-24.789,15.41-32.159,43.215-34.84,59.965c5.36-4.69,20.771-19.096,20.771-19.096s-16.08,36.181-10.72,60.971c8.039-15.075,13.734-20.436,13.734-20.436s-1.34,30.486,10.05,42.21c6.03-20.435,12.045-31.49,12.045-31.49s-5.37-21.44-2.677-37.855"></path><path style="fill:none;stroke:#1E1E1E;stroke-linecap:round;stroke-linejoin:round;" d="M169.774,227.188c0,0,6.7-14.74,8.375-24.79"></path></g><g><linearGradient id="hair1XMLID_4060_" gradientUnits="userSpaceOnUse" x1="331.0713" y1="231.3335" x2="331.0713" y2="173.3335"><stop offset="0" style="stop-color:#FCFCE4"></stop><stop offset="0.5" style="stop-color:#A0C8DD"></stop><stop offset="1" style="stop-color:#5D6EC5"></stop></linearGradient><path style="fill:url(#hair1XMLID_4060_);stroke:#1E1E1E;stroke-linecap:round;stroke-linejoin:round;" d="M319.172,145.783c24.789,15.41,32.158,43.215,34.84,59.965c-5.361-4.69-20.771-19.096-20.771-19.096s16.08,36.181,10.721,60.971c-8.039-15.075-13.734-20.436-13.734-20.436s1.34,30.486-10.051,42.21c-6.029-20.435-12.045-31.49-12.045-31.49s5.371-21.44,2.678-37.855"></path><path style="fill:none;stroke:#1E1E1E;stroke-linecap:round;stroke-linejoin:round;" d="M330.227,227.188c0,0-6.701-14.74-8.375-24.79"></path></g></g></g></g></svg>