<svg xmlns="http://www.w3.org/2000/svg" width="500" height="500" version="1.1"><g id="x202"><g><linearGradient id="hair1XMLID_4061_" gradientUnits="userSpaceOnUse" x1="250.0005" y1="201.667" x2="250.0005" y2="145.3335"><stop offset="0" style="stop-color:#FCFCE4"></stop><stop offset="0.5" style="stop-color:#A0C8DD"></stop><stop offset="1" style="stop-color:#5D6EC5"></stop></linearGradient><path style="fill:url(#hair1XMLID_4061_);stroke:#1E1E1E;stroke-linecap:round;stroke-linejoin:round;" d="M294.221,115.978c0,0,14.74-15.41,5.693-36.515c-3.684,10.385-14.404,13.065-14.404,13.065s4.689-23.115-17.42-36.18c1.34,8.71,1.34,19.095,1.34,19.095S265.516,53.58,250,48.643c-15.516,4.937-19.431,26.8-19.431,26.8s0-10.385,1.34-19.095c-22.109,13.065-17.42,36.18-17.42,36.18s-10.72-2.68-14.404-13.065c-9.046,21.105,5.694,36.515,5.694,36.515s-7.37,1.34-10.385-2.345c2.01,17.755,32.16,21.105,33.835,21.775h41.54c1.676-0.67,31.826-4.02,33.836-21.775C301.59,117.318,294.221,115.978,294.221,115.978z"></path><g><g><g><g><path style="fill:url(#hair1XMLID_4061_);stroke:#1E1E1E;stroke-linecap:round;stroke-linejoin:round;" d="M311.641,130.383c-28.141-19.43-61.64-19.43-61.64-19.43s-33.5,0-61.641,19.43c-15.745,19.43-23.115,52.93-19.095,67.67c4.02,14.74,22.765,40.535,22.765,40.535s-3.335-29.48-2.665-40.535c6.7-22.11,18.09-33.5,18.09-33.5l14.07,6.7l-3.35-8.04l31.825,9.38l31.824-9.38l-3.35,8.04l14.07-6.7c0,0,11.391,11.39,18.09,33.5c0.67,11.055-2.664,40.535-2.664,40.535s18.744-25.795,22.764-40.535C334.756,183.313,327.385,149.813,311.641,130.383z"></path></g></g><g><path style="fill:none;stroke:#1E1E1E;stroke-linecap:round;stroke-linejoin:round;" d="M202.43,126.028c0,0,0,29.48,17.085,37.185"></path><path style="fill:none;stroke:#1E1E1E;stroke-linecap:round;stroke-linejoin:round;" d="M297.57,126.028c0,0,0,29.48-17.086,37.185"></path></g><g><g><linearGradient id="hair1XMLID_4063_" gradientUnits="userSpaceOnUse" x1="172.4473" y1="201.667" x2="172.4473" y2="145.3335"><stop offset="0" style="stop-color:#FCFCE4"></stop><stop offset="0.5" style="stop-color:#A0C8DD"></stop><stop offset="1" style="stop-color:#5D6EC5"></stop></linearGradient><path style="fill:url(#hair1XMLID_4063_);stroke:#1E1E1E;stroke-linecap:round;stroke-linejoin:round;" d="M184.507,228.204c0,0-15.41-11.056-19.095-15.745c4.02-1.34,11.725-3.686,9.715-4.021s-13.4-16.75-14.74-20.77c4.355,0.67,9.045-4.021,9.045-4.021"></path><linearGradient id="hair1XMLID_4064_" gradientUnits="userSpaceOnUse" x1="174.3032" y1="201.667" x2="174.3032" y2="145.3335"><stop offset="0" style="stop-color:#FCFCE4"></stop><stop offset="0.5" style="stop-color:#A0C8DD"></stop><stop offset="1" style="stop-color:#5D6EC5"></stop></linearGradient><path style="fill:url(#hair1XMLID_4064_);stroke:#1E1E1E;stroke-linecap:round;stroke-linejoin:round;" d="M170.773,186.664c-1.006-3.016-7.705-15.41,0-37.855c2.345,8.04,10.72,16.415,10.72,16.415"></path></g><g><linearGradient id="hair1XMLID_4065_" gradientUnits="userSpaceOnUse" x1="327.5527" y1="201.667" x2="327.5527" y2="145.3335"><stop offset="0" style="stop-color:#FCFCE4"></stop><stop offset="0.5" style="stop-color:#A0C8DD"></stop><stop offset="1" style="stop-color:#5D6EC5"></stop></linearGradient><path style="fill:url(#hair1XMLID_4065_);stroke:#1E1E1E;stroke-linecap:round;stroke-linejoin:round;" d="M315.492,228.204c0,0,15.41-11.056,19.096-15.745c-4.02-1.34-11.725-3.686-9.715-4.021s13.4-16.75,14.74-20.77c-4.355,0.67-9.045-4.021-9.045-4.021"></path><linearGradient id="hair1XMLID_4066_" gradientUnits="userSpaceOnUse" x1="325.6973" y1="201.667" x2="325.6973" y2="145.3335"><stop offset="0" style="stop-color:#FCFCE4"></stop><stop offset="0.5" style="stop-color:#A0C8DD"></stop><stop offset="1" style="stop-color:#5D6EC5"></stop></linearGradient><path style="fill:url(#hair1XMLID_4066_);stroke:#1E1E1E;stroke-linecap:round;stroke-linejoin:round;" d="M329.227,186.664c1.006-3.016,7.705-15.41,0-37.855c-2.344,8.04-10.719,16.415-10.719,16.415"></path></g></g></g><g><linearGradient id="hair1XMLID_4067_" gradientUnits="userSpaceOnUse" x1="224.54" y1="201.667" x2="224.54" y2="145.3334"><stop offset="0" style="stop-color:#FCFCE4"></stop><stop offset="0.5" style="stop-color:#A0C8DD"></stop><stop offset="1" style="stop-color:#5D6EC5"></stop></linearGradient><path style="fill:url(#hair1XMLID_4067_);stroke:#1E1E1E;stroke-linecap:round;stroke-linejoin:round;" d="M226.473,170.918c0.67-1.34,5.695-3.685,5.695-3.685s-5.695-7.37-9.045-6.365s-14.07,33.5,4.02,47.905C221.784,196.043,224.635,178.761,226.473,170.918z"></path><linearGradient id="hair1XMLID_4068_" gradientUnits="userSpaceOnUse" x1="275.4609" y1="201.667" x2="275.4609" y2="145.3334"><stop offset="0" style="stop-color:#FCFCE4"></stop><stop offset="0.5" style="stop-color:#A0C8DD"></stop><stop offset="1" style="stop-color:#5D6EC5"></stop></linearGradient><path style="fill:url(#hair1XMLID_4068_);stroke:#1E1E1E;stroke-linecap:round;stroke-linejoin:round;" d="M273.527,170.918c-0.67-1.34-5.695-3.685-5.695-3.685s5.695-7.37,9.045-6.365s14.07,33.5-4.02,47.905C278.217,196.043,275.365,178.761,273.527,170.918z"></path></g></g></g></g></svg>