<svg xmlns="http://www.w3.org/2000/svg" width="500" height="500" version="1.1"><g id="x203"><g><g><linearGradient id="hair1XMLID_4069_" gradientUnits="userSpaceOnUse" x1="184.2285" y1="216.3335" x2="184.2285" y2="149.6665"><stop offset="0" style="stop-color:#FCFCE4"></stop><stop offset="0.5" style="stop-color:#A0C8DD"></stop><stop offset="1" style="stop-color:#5D6EC5"></stop></linearGradient><path style="fill:url(#hair1XMLID_4069_);stroke:#1E1E1E;stroke-linecap:round;stroke-linejoin:round;" d="M196.976,171.253c-3.127,1.34-9.38,12.507-9.38,12.507s1.786,45.113,2.68,47.793c-3.127,1.34-4.913,4.02-4.913,4.02s-10.273-19.206-10.273-23.226c0-4.021,0.446-6.254,0.446-6.254l-4.02-8.486c0,0-1.34-25.014,12.507-45.114c10.272-7.593,8.915-4.466,8.915-4.466S190.258,163.66,196.976,171.253z"></path><linearGradient id="hair1XMLID_4070_" gradientUnits="userSpaceOnUse" x1="315.7715" y1="216.3335" x2="315.7715" y2="149.6665"><stop offset="0" style="stop-color:#FCFCE4"></stop><stop offset="0.5" style="stop-color:#A0C8DD"></stop><stop offset="1" style="stop-color:#5D6EC5"></stop></linearGradient><path style="fill:url(#hair1XMLID_4070_);stroke:#1E1E1E;stroke-linecap:round;stroke-linejoin:round;" d="M303.023,171.253c3.127,1.34,9.381,12.507,9.381,12.507s-1.787,45.113-2.681,47.793c3.127,1.34,4.913,4.02,4.913,4.02s10.273-19.206,10.273-23.226c0-4.021-0.446-6.254-0.446-6.254l4.02-8.486c0,0,1.341-25.014-12.507-45.114c-10.272-7.593-8.915-4.466-8.915-4.466S309.741,163.66,303.023,171.253z"></path></g><linearGradient id="hair1XMLID_4071_" gradientUnits="userSpaceOnUse" x1="250" y1="216.3335" x2="250" y2="149.6664"><stop offset="0" style="stop-color:#FCFCE4"></stop><stop offset="0.5" style="stop-color:#A0C8DD"></stop><stop offset="1" style="stop-color:#5D6EC5"></stop></linearGradient><path style="fill:url(#hair1XMLID_4071_);stroke:#1E1E1E;stroke-linecap:round;stroke-linejoin:round;" d="M267.866,123.402C264.739,113.128,250,111.789,250,111.789s-14.74,1.34-17.866,11.613c-3.128,10.273,1.34,16.08,1.34,16.08L250,139.035l16.525,0.447C266.525,139.482,270.993,133.675,267.866,123.402z"></path></g></g></svg>