<svg xmlns="http://www.w3.org/2000/svg" width="500" height="500" version="1.1"><g id="x204"><g><g><linearGradient id="hair1XMLID_4072_" gradientUnits="userSpaceOnUse" x1="187.7554" y1="217.1333" x2="187.7554" y2="118.4258"><stop offset="0" style="stop-color:#FCFCE4"></stop><stop offset="0.5" style="stop-color:#A0C8DD"></stop><stop offset="1" style="stop-color:#5D6EC5"></stop></linearGradient><path style="fill:url(#hair1XMLID_4072_);stroke:#1E1E1E;stroke-linecap:round;stroke-linejoin:round;" d="M193.754,248.497c0-5.186-3.509-38.552-4.015-36.525c2.502-9.077,6.609-26.583,9.077-30.689c4.323-4.323,8.646-6.052,8.646-6.052s3.889-30.69,6.914-33.283c-3.457-1.729-5.79-6.33-4.753-7.781c2.161-3.026-26.572,12.782-34.023,27.88c-8.213,16.642-16.426,44.306-14.049,52.951c4.972,5.618,21.396,11.67,22.693,12.967C185.541,229.262,193.754,248.497,193.754,248.497z"></path><linearGradient id="hair1XMLID_4073_" gradientUnits="userSpaceOnUse" x1="312.2441" y1="217.1333" x2="312.2441" y2="118.4258"><stop offset="0" style="stop-color:#FCFCE4"></stop><stop offset="0.5" style="stop-color:#A0C8DD"></stop><stop offset="1" style="stop-color:#5D6EC5"></stop></linearGradient><path style="fill:url(#hair1XMLID_4073_);stroke:#1E1E1E;stroke-linecap:round;stroke-linejoin:round;" d="M306.245,248.497c0-5.186,3.51-38.552,4.017-36.525c-2.503-9.077-6.61-26.583-9.079-30.689c-4.321-4.323-8.644-6.052-8.644-6.052s-3.89-30.69-6.917-33.283c3.459-1.729,5.792-6.33,4.755-7.781c-2.161-3.026,26.572,12.782,34.022,27.88c8.215,16.642,16.427,44.306,14.049,52.951c-4.971,5.618-21.396,11.67-22.692,12.967C314.459,229.262,306.245,248.497,306.245,248.497z"></path></g><linearGradient id="hair1XMLID_4074_" gradientUnits="userSpaceOnUse" x1="250.0005" y1="221.6665" x2="250.0005" y2="119.6666"><stop offset="0" style="stop-color:#FCFCE4"></stop><stop offset="0.5" style="stop-color:#A0C8DD"></stop><stop offset="1" style="stop-color:#5D6EC5"></stop></linearGradient><path style="fill:url(#hair1XMLID_4074_);stroke:#1E1E1E;stroke-linecap:round;stroke-linejoin:round;" d="M267.867,118.401C264.74,108.128,250,106.788,250,106.788s-14.74,1.34-17.866,11.613c-3.128,10.273,1.34,16.08,1.34,16.08L250,134.034l16.525,0.447C266.525,134.481,270.994,128.674,267.867,118.401z"></path></g></g></svg>