<svg xmlns="http://www.w3.org/2000/svg" width="500" height="500" version="1.1"><g id="x9241"><g><linearGradient id="hair1XMLID_4411_" gradientUnits="userSpaceOnUse" x1="251.5732" y1="146.2407" x2="251.5732" y2="100.1279"><stop offset="0" style="stop-color:#FCFCE4"></stop><stop offset="0.5" style="stop-color:#A0C8DD"></stop><stop offset="1" style="stop-color:#5D6EC5"></stop></linearGradient><path style="fill:url(#hair1XMLID_4411_);stroke:#000000;stroke-linecap:round;stroke-linejoin:round;" d="M309.334,238.333c3.05-2.614,20.206-22.341,22.999-31c3.333-10.333,5.667-21,4.226-51.206c-3.052-22.032-37.05-42.197-58.844-54.893c-12.205-4.855-44.46-3.735-65.383-2.241c-6.539,2.614-14.82,15.31-14.82,15.31l-11.769,11.576l-9.154,3.735c0,0-0.436,2.613-8.282,17.924c-5.231,14.189,0.436,70.107,2.615,74.962C173.102,227.355,193.5,243,193.5,243l-7-26.5l-3.167-32.833c3.051,1.494,9.333,4.333,9.333,4.333l2.333-8.333l8.333,2c0,0-1.464-9.482-0.156-13.216c4.794,3.361,9.154,3.361,9.154,3.361l6.973-2.614c0,0,73.547-6.616,94.029,28.469C312.463,206.628,309.334,238.333,309.334,238.333z"></path><linearGradient id="hair1XMLID_4412_" gradientUnits="userSpaceOnUse" x1="286.8867" y1="139.0229" x2="286.8867" y2="98.2822"><stop offset="0" style="stop-color:#FCFCE4"></stop><stop offset="0.5" style="stop-color:#A0C8DD"></stop><stop offset="1" style="stop-color:#5D6EC5"></stop></linearGradient><path style="fill:url(#hair1XMLID_4412_);stroke:#000000;stroke-linecap:round;stroke-linejoin:round;" d="M269.669,99.688c0,0,27.025-5.601,34.436-14.19c-5.802,13.044-10.998,18.597-17.348,21.602"></path><linearGradient id="hair1XMLID_4413_" gradientUnits="userSpaceOnUse" x1="259.1885" y1="143.666" x2="259.1885" y2="99.9995"><stop offset="0" style="stop-color:#FCFCE4"></stop><stop offset="0.5" style="stop-color:#A0C8DD"></stop><stop offset="1" style="stop-color:#5D6EC5"></stop></linearGradient><path style="fill:url(#hair1XMLID_4413_);stroke:#000000;stroke-linecap:round;stroke-linejoin:round;" d="M257.664,146.045c0,0,4.357,44.437,2.178,51.159c-3.05,0-25.717,6.348-37.049,2.987c11.769,10.082,23.102,13.443,27.897,13.817c13.512-9.335,40.973-29.5,44.896-56.013"></path><linearGradient id="hair1XMLID_4414_" gradientUnits="userSpaceOnUse" x1="266.1631" y1="143.6665" x2="266.1631" y2="100"><stop offset="0" style="stop-color:#FCFCE4"></stop><stop offset="0.5" style="stop-color:#A0C8DD"></stop><stop offset="1" style="stop-color:#5D6EC5"></stop></linearGradient><line style="fill:url(#hair1XMLID_4414_);stroke:#000000;stroke-linecap:round;stroke-linejoin:round;" x1="259.842" y1="197.204" x2="272.484" y2="194.963"></line><path style="fill:none;stroke:#000000;stroke-linecap:round;stroke-linejoin:round;" d="M219.305,167.704c0,0,20.924-29.5,51.872-31.741"></path><g><linearGradient id="hair1XMLID_4415_" gradientUnits="userSpaceOnUse" x1="314.2656" y1="143.6665" x2="314.2656" y2="100.0001"><stop offset="0" style="stop-color:#FCFCE4"></stop><stop offset="0.5" style="stop-color:#A0C8DD"></stop><stop offset="1" style="stop-color:#5D6EC5"></stop></linearGradient><path style="fill:url(#hair1XMLID_4415_);stroke:#000000;stroke-linecap:round;stroke-linejoin:round;" d="M316.008,188.242c0,0,3.488,29.5-20.05,42.57c16.128-3.361,33.128-11.577,36.615-30.247"></path><linearGradient id="hair1XMLID_4416_" gradientUnits="userSpaceOnUse" x1="302.5596" y1="143.6665" x2="302.5596" y2="100"><stop offset="0" style="stop-color:#FCFCE4"></stop><stop offset="0.5" style="stop-color:#A0C8DD"></stop><stop offset="1" style="stop-color:#5D6EC5"></stop></linearGradient><path style="fill:url(#hair1XMLID_4416_);stroke:#000000;stroke-linecap:round;stroke-linejoin:round;" d="M264.638,133.723c0,0,26.152,7.095,33.563,17.924c7.41,16.804,12.205,61.988,42.28,76.924c-9.591-12.696-9.591-23.898-9.591-31.367s-3.922-53.026-11.332-64.975c-13.076-6.721-44.023-3.733-52.742-0.747"></path><linearGradient id="hair1XMLID_4417_" gradientUnits="userSpaceOnUse" x1="324.2207" y1="142.2021" x2="324.2207" y2="98.5395" gradientTransform="matrix(0.998 -0.0637 0.0637 0.998 -7.9581 21.384)"><stop offset="0" style="stop-color:#FCFCE4"></stop><stop offset="0.5" style="stop-color:#A0C8DD"></stop><stop offset="1" style="stop-color:#5D6EC5"></stop></linearGradient><path style="fill:url(#hair1XMLID_4417_);stroke:#000000;stroke-linecap:round;stroke-linejoin:round;" d="M311.381,129.418c0,0,14.734,5.045,25.903,2.087c-4.381,6.641-19.004,10.193-26.108,8.402"></path></g><path style="fill:none;stroke:#000000;stroke-linecap:round;stroke-linejoin:round;" d="M225.407,126.627c0,0-7.41,27.26-7.846,36.968"></path><path style="fill:none;stroke:#000000;stroke-linecap:round;stroke-linejoin:round;" d="M215.382,161.729c0,0-4.795-14.563-3.051-27.633"></path><path style="fill:none;stroke:#000000;stroke-linecap:round;stroke-linejoin:round;" d="M206.665,139.324c0,0,24.844-28.006,66.254-36.595c0,0,11.248,3.271,13.248,4.271"></path><path style="fill:none;stroke:#000000;stroke-linecap:round;stroke-linejoin:round;" d="M198.382,115.051c0,0-5.23,25.019-4.358,29.126c0.873,4.108,9.153,18.298,16.127,23.152"></path><path style="fill:none;stroke:#000000;stroke-linecap:round;stroke-linejoin:round;" d="M198.382,153.887c0,0,2.616,11.576,6.974,15.683"></path><path style="fill:none;stroke:#000000;stroke-linecap:round;stroke-linejoin:round;" d="M186.614,123.267c0,0,2.615,9.336,5.23,15.311"></path><linearGradient id="hair1XMLID_4418_" gradientUnits="userSpaceOnUse" x1="160.897" y1="150.6665" x2="160.897" y2="106.9999"><stop offset="0" style="stop-color:#FCFCE4"></stop><stop offset="0.5" style="stop-color:#A0C8DD"></stop><stop offset="1" style="stop-color:#5D6EC5"></stop></linearGradient><path style="fill:url(#hair1XMLID_4418_);stroke:#000000;stroke-linecap:round;stroke-linejoin:round;" d="M167,179.558c0,0-5.231,17.177-17,19.418c3.052,3.361,18.744,0.747,21.795-3.36"></path><linearGradient id="hair1XMLID_4419_" gradientUnits="userSpaceOnUse" x1="178.0625" y1="145.8921" x2="178.0625" y2="98.0705"><stop offset="0" style="stop-color:#FCFCE4"></stop><stop offset="0.5" style="stop-color:#A0C8DD"></stop><stop offset="1" style="stop-color:#5D6EC5"></stop></linearGradient><path style="fill:url(#hair1XMLID_4419_);stroke:#000000;stroke-linecap:round;stroke-linejoin:round;" d="M190.973,141.191c0,0-15.691-8.215-21.358-20.911c-6.539,30.62-6.539,57.411,4.358,80.563"></path><path style="fill:none;stroke:#000000;stroke-linecap:round;stroke-linejoin:round;" d="M171,132.333c0.333,1.667,5.667,25.333,16.333,38.333"></path></g></g></svg>