<svg xmlns="http://www.w3.org/2000/svg" width="500" height="500" version="1.1"><g id="x9243"><g><linearGradient id="hair1XMLID_4429_" gradientUnits="userSpaceOnUse" x1="250.0005" y1="272.1025" x2="250.0005" y2="112.0994"><stop offset="0" style="stop-color:#FCFCE4"></stop><stop offset="0.5" style="stop-color:#A0C8DD"></stop><stop offset="1" style="stop-color:#5D6EC5"></stop></linearGradient><path style="fill:url(#hair1XMLID_4429_);stroke:#000000;stroke-linecap:round;stroke-linejoin:round;" d="M312.484,135.882c-17.241-17.643-42.244-24.026-62.256-19.991c-0.077,0.009-0.152,0.018-0.229,0.026c-0.076-0.008-0.152-0.017-0.229-0.026c-20.012-4.035-45.015,2.348-62.256,19.991c-13.061,13.365-14.283,30.165-14.283,51.08c0,29.688,15.768,37.288,17.018,36.538c-1-5,5.333-46.458,12.007-57.45c1.822-2.188,24.201-4.647,47.743-4.676c23.542,0.029,45.921,2.488,47.743,4.676c6.674,10.992,13.007,52.45,12.007,57.45c1.25,0.75,17.018-6.85,17.018-36.538C326.768,166.047,325.545,149.248,312.484,135.882z"></path><g><g><linearGradient id="hair1XMLID_4430_" gradientUnits="userSpaceOnUse" x1="209.6255" y1="320.7529" x2="209.6255" y2="128.7645"><stop offset="0" style="stop-color:#FCFCE4"></stop><stop offset="0.5" style="stop-color:#A0C8DD"></stop><stop offset="1" style="stop-color:#5D6EC5"></stop></linearGradient><path style="fill:url(#hair1XMLID_4430_);stroke:#000000;stroke-linecap:round;stroke-linejoin:round;" d="M260.75,161.5c0,0-10.25-18.25-13.5-20.75c-13-8.5-22.265-9.547-25.5-8.5C213.25,135,197.5,150.5,195,158.5s-10,41.5-9,63.25s-19.5,27.5-27.5,22.5c1.75,12.25,30.75,30.5,58.5,6.5c5.75-0.75,22-13.5,24.25-37.25c1.894-19.987,4.75-55,8-61C253,155.5,260.75,161.5,260.75,161.5z"></path><path style="fill:#FDFBE1;" d="M193.243,179.586c0,0,5.337-10.675,7.472-11.207c2.134-0.534-0.743,17.4-3.734,16.547C194.178,184.126,192.176,182.126,193.243,179.586z"></path><path style="fill:#FDFBE1;" d="M200.642,183.857c0,0,0.411-6.984,2.672-8.541c2.26-1.555,1.6,10.676,0,10.676C201.71,185.992,200.642,186.527,200.642,183.857z"></path><path style="fill:none;stroke:#000000;stroke-linecap:round;stroke-linejoin:round;" d="M249.5,149.5c0,0-4.5-5-7.25-5c-4.75,7.5-7.5,29.5-8,33"></path><path style="fill:none;stroke:#000000;stroke-linecap:round;stroke-linejoin:round;" d="M217,250.75c0,0,17.5-16,15.5-49"></path></g><g><linearGradient id="hair1XMLID_4431_" gradientUnits="userSpaceOnUse" x1="323.6406" y1="232.4888" x2="323.6406" y2="191.3242"><stop offset="0" style="stop-color:#FCFCE4"></stop><stop offset="0.5" style="stop-color:#A0C8DD"></stop><stop offset="1" style="stop-color:#5D6EC5"></stop></linearGradient><path style="fill:url(#hair1XMLID_4431_);stroke:#000000;stroke-linecap:round;stroke-linejoin:round;" d="M303.031,212.563c4.656,4.625,9.964,8.462,23.219,7.188c13-1.25,18-16,18-16s-24.75,8-34.5-11.75"></path></g><linearGradient id="hair1XMLID_4432_" gradientUnits="userSpaceOnUse" x1="298.25" y1="265.1309" x2="298.25" y2="144.0121"><stop offset="0" style="stop-color:#FCFCE4"></stop><stop offset="0.5" style="stop-color:#A0C8DD"></stop><stop offset="1" style="stop-color:#5D6EC5"></stop></linearGradient><path style="fill:url(#hair1XMLID_4432_);stroke:#000000;stroke-linecap:round;stroke-linejoin:round;" d="M260.75,161.5c0,0,6-7.816,10.5-9.624c-0.75,9.944,7,61.415,15.75,67.291c8.75,5.876,17.75,11.586,40.5,8.196c-13-4.294-15.75-10.396-15.75-9.718c0,0.678,14.75,4.068,24-5.65c-12.75-1.13-19.5-8.588-21.25-12.205c-5-15.594-16.75-43.649-18.75-47.04c-7.25-5.25-16.5-6.5-23-6.75C265,149.842,260.75,161.5,260.75,161.5z"></path><path style="fill:#FDFBE1;" d="M305.979,179.586c0,0-5.337-10.675-7.472-11.207c-2.134-0.534,0.743,17.4,3.734,16.547C305.045,184.126,307.047,182.126,305.979,179.586z"></path><path style="fill:#FDFBE1;" d="M298.581,183.857c0,0-0.411-6.984-2.672-8.541c-2.26-1.555-1.6,10.676,0,10.676C297.513,185.992,298.581,186.527,298.581,183.857z"></path></g></g></g></svg>