<svg xmlns="http://www.w3.org/2000/svg" width="500" height="500" version="1.1"><g id="x9251"><g><g><linearGradient id="hair1XMLID_4493_" gradientUnits="userSpaceOnUse" x1="250.0005" y1="218.666" x2="250.0005" y2="113.9995"><stop offset="0" style="stop-color:#FCFCE4"></stop><stop offset="0.5" style="stop-color:#A0C8DD"></stop><stop offset="1" style="stop-color:#5D6EC5"></stop></linearGradient><path style="fill:url(#hair1XMLID_4493_);stroke:#000000;stroke-linecap:round;stroke-linejoin:round;" d="M312.734,135.882c-17.241-17.643-42.244-24.026-62.256-19.991c-0.16,0.019-0.317,0.034-0.478,0.054c-0.16-0.02-0.317-0.035-0.478-0.054c-20.014-4.035-45.017,2.348-62.258,19.991c-13.061,13.365-22.283,30.165-22.283,51.08c0,32.694,14.267,47.104,14.827,48.325c0,0-5.229-21.928,5.742-24.67c4.113-0.686,9.78-33.574,16.455-44.566c1.829-2.195,24.358-4.665,47.994-4.677c23.633,0.012,46.163,2.481,47.992,4.677c6.674,10.992,12.342,43.88,16.455,44.566c10.971,2.742,6.645,25.272,6.645,25.272c0.561-1.221,13.925-19.239,13.925-48.927C335.018,166.047,325.795,149.248,312.734,135.882z"></path><linearGradient id="hair1XMLID_4494_" gradientUnits="userSpaceOnUse" x1="295.6641" y1="218.666" x2="295.6641" y2="113.9995"><stop offset="0" style="stop-color:#FCFCE4"></stop><stop offset="0.5" style="stop-color:#A0C8DD"></stop><stop offset="1" style="stop-color:#5D6EC5"></stop></linearGradient><path style="fill:url(#hair1XMLID_4494_);stroke:#000000;stroke-linecap:round;stroke-linejoin:round;" d="M314.067,145.412c0,0,10.421,9.432,21.594,12.66c-8.166-6.51-14.374-23.071-21.661-29.072c-11.333-9.333-23.333-21-54-15.667l-4.333,3"></path><linearGradient id="hair1XMLID_4495_" gradientUnits="userSpaceOnUse" x1="254.875" y1="218.666" x2="254.875" y2="113.9996"><stop offset="0" style="stop-color:#FCFCE4"></stop><stop offset="0.5" style="stop-color:#A0C8DD"></stop><stop offset="1" style="stop-color:#5D6EC5"></stop></linearGradient><path style="fill:url(#hair1XMLID_4495_);stroke:#000000;stroke-linecap:round;stroke-linejoin:round;" d="M297,178.5c-1.5-0.5-84.5,3.25-84.25,1.5s0.75-26.75,0.75-26.75l79.5,0.25L297,178.5z"></path><linearGradient id="hair1XMLID_4496_" gradientUnits="userSpaceOnUse" x1="334.9258" y1="218.666" x2="334.9258" y2="113.9996"><stop offset="0" style="stop-color:#FCFCE4"></stop><stop offset="0.5" style="stop-color:#A0C8DD"></stop><stop offset="1" style="stop-color:#5D6EC5"></stop></linearGradient><path style="fill:url(#hair1XMLID_4496_);stroke:#000000;stroke-linecap:round;stroke-linejoin:round;" d="M332.433,169.668c0.125,0.992,12.192,30.715,4.967,55.313c0.809-11.25-2.666-24.971-7.25-36.012"></path></g><linearGradient id="hair1XMLID_4497_" gradientUnits="userSpaceOnUse" x1="187.7085" y1="218.666" x2="187.7085" y2="113.9993"><stop offset="0" style="stop-color:#FCFCE4"></stop><stop offset="0.5" style="stop-color:#A0C8DD"></stop><stop offset="1" style="stop-color:#5D6EC5"></stop></linearGradient><path style="fill:url(#hair1XMLID_4497_);stroke:#000000;stroke-linecap:round;stroke-linejoin:round;" d="M178,155.5c0,0-8.75,11-19.25,16c7-7.75,12.372-20.375,16-25.75c6.75-10,19.25-26.75,41.917-28.75"></path><linearGradient id="hair1XMLID_4498_" gradientUnits="userSpaceOnUse" x1="221.792" y1="218.666" x2="221.792" y2="113.9996"><stop offset="0" style="stop-color:#FCFCE4"></stop><stop offset="0.5" style="stop-color:#A0C8DD"></stop><stop offset="1" style="stop-color:#5D6EC5"></stop></linearGradient><path style="fill:url(#hair1XMLID_4498_);stroke:#000000;stroke-linecap:round;stroke-linejoin:round;" d="M254,115.333c0,0-17.917-11.167-36.167-7.667c-22.033,4.226-28.25,14.75-28.25,14.75s19.75-8,41.75-2.5"></path><linearGradient id="hair1XMLID_4499_" gradientUnits="userSpaceOnUse" x1="254.3799" y1="218.666" x2="254.3799" y2="113.9996"><stop offset="0" style="stop-color:#FCFCE4"></stop><stop offset="0.5" style="stop-color:#A0C8DD"></stop><stop offset="1" style="stop-color:#5D6EC5"></stop></linearGradient><path style="fill:url(#hair1XMLID_4499_);stroke:#000000;stroke-linecap:round;stroke-linejoin:round;" d="M249,117.5c0,0,6.75-7.583,9.25-17.333s-15.5-17.667-19-17.917c19.5,1.25,29.25,6.167,30.25,17.667C270,111.167,253,120,253,120"></path><linearGradient id="hair1XMLID_4500_" gradientUnits="userSpaceOnUse" x1="168.3477" y1="218.666" x2="168.3477" y2="113.9997"><stop offset="0" style="stop-color:#FCFCE4"></stop><stop offset="0.5" style="stop-color:#A0C8DD"></stop><stop offset="1" style="stop-color:#5D6EC5"></stop></linearGradient><path style="fill:url(#hair1XMLID_4500_);stroke:#000000;stroke-linecap:round;stroke-linejoin:round;" d="M165.667,178.083c0,1-8.25,32,2,55.5c-3-15,1.25-35.5,6.5-47.75"></path><linearGradient id="hair1XMLID_4501_" gradientUnits="userSpaceOnUse" x1="319.0508" y1="218.666" x2="319.0508" y2="113.9996"><stop offset="0" style="stop-color:#FCFCE4"></stop><stop offset="0.5" style="stop-color:#A0C8DD"></stop><stop offset="1" style="stop-color:#5D6EC5"></stop></linearGradient><path style="fill:url(#hair1XMLID_4501_);stroke:#000000;stroke-linecap:round;stroke-linejoin:round;" d="M329,189.5c0,0,1.077,20.622-3.75,37.25C320.75,242.25,323,249,323,249s-14-17.75-14-50.5"></path><linearGradient id="hair1XMLID_4502_" gradientUnits="userSpaceOnUse" x1="187.9165" y1="218.666" x2="187.9165" y2="113.9998"><stop offset="0" style="stop-color:#FCFCE4"></stop><stop offset="0.5" style="stop-color:#A0C8DD"></stop><stop offset="1" style="stop-color:#5D6EC5"></stop></linearGradient><path style="fill:url(#hair1XMLID_4502_);stroke:#000000;stroke-linecap:round;stroke-linejoin:round;" d="M195.655,192.667c-0.582,3.084-4.15,36,8.678,54.75c-10.187-2.5-12.64-13.5-12.64-13.5s1.32,12.75,10.187,20.75C184.902,248.917,166.667,227,172.667,185"></path><linearGradient id="hair1XMLID_4503_" gradientUnits="userSpaceOnUse" x1="297.4863" y1="218.666" x2="297.4863" y2="113.9999"><stop offset="0" style="stop-color:#FCFCE4"></stop><stop offset="0.5" style="stop-color:#A0C8DD"></stop><stop offset="1" style="stop-color:#5D6EC5"></stop></linearGradient><path style="fill:url(#hair1XMLID_4503_);stroke:#000000;stroke-linecap:round;stroke-linejoin:round;" d="M287.346,179.434c0,0,8.566,34.166,20.904,48.816c6.168-23.131-2.25-74.75-23.5-96.75"></path><linearGradient id="hair1XMLID_4504_" gradientUnits="userSpaceOnUse" x1="311.2178" y1="218.666" x2="311.2178" y2="113.9995"><stop offset="0" style="stop-color:#FCFCE4"></stop><stop offset="0.5" style="stop-color:#A0C8DD"></stop><stop offset="1" style="stop-color:#5D6EC5"></stop></linearGradient><path style="fill:url(#hair1XMLID_4504_);stroke:#000000;stroke-linecap:round;stroke-linejoin:round;" d="M309.75,183.5c0,0,4.5,43-16.5,64c10-3.25,16.059-12.968,16.83-14.51c-6.413,16.677-12.33,19.51-12.33,19.51s28.999-0.025,31.25-41.833c2.463-45.746-20.461-77.144-20.461-77.144"></path><linearGradient id="hair1XMLID_4505_" gradientUnits="userSpaceOnUse" x1="214.7485" y1="218.666" x2="214.7485" y2="113.9998"><stop offset="0" style="stop-color:#FCFCE4"></stop><stop offset="0.5" style="stop-color:#A0C8DD"></stop><stop offset="1" style="stop-color:#5D6EC5"></stop></linearGradient><path style="fill:url(#hair1XMLID_4505_);stroke:#000000;stroke-linecap:round;stroke-linejoin:round;" d="M220.75,126c-24.674,23.903-39.75,72-25.25,102.25c2.167-9.917,10.5-21.25,16.167-30.25c-5,12.667-3.667,24.667-2.167,30c13.833-30.333,30.167-51.667,30.167-51.667"></path><linearGradient id="hair1XMLID_4506_" gradientUnits="userSpaceOnUse" x1="258.332" y1="218.666" x2="258.332" y2="113.9995"><stop offset="0" style="stop-color:#FCFCE4"></stop><stop offset="0.5" style="stop-color:#A0C8DD"></stop><stop offset="1" style="stop-color:#5D6EC5"></stop></linearGradient><path style="fill:url(#hair1XMLID_4506_);stroke:#000000;stroke-linecap:round;stroke-linejoin:round;" d="M284.485,167.263c0,0,1.332,41.543-21.314,59.348c4.329-4.52,7.329-14.381,7.329-14.381s-5.5,13.951-20,20.686c4.663-8.903,6.01-21.883,6.01-21.883s-8.764,16.206-12.76,30.301c-9.75-15.394-17.215-33.269-5.892-69.62"></path><linearGradient id="hair1XMLID_4507_" gradientUnits="userSpaceOnUse" x1="287.9414" y1="218.666" x2="287.9414" y2="113.9994"><stop offset="0" style="stop-color:#FCFCE4"></stop><stop offset="0.5" style="stop-color:#A0C8DD"></stop><stop offset="1" style="stop-color:#5D6EC5"></stop></linearGradient><path style="fill:url(#hair1XMLID_4507_);stroke:#000000;stroke-linecap:round;stroke-linejoin:round;" d="M291.78,162.605c0,0,7.43,42.136-8.061,58.387c5.057-27.585-1.397-55.735-1.397-55.735"></path><g><g><path style="fill:#FFF0DE;" d="M177.524,180.757c0,0,5.335-10.679,7.472-11.21c2.136-0.534-0.744,17.4-3.738,16.547C178.457,185.294,176.456,183.293,177.524,180.757z"></path><path style="fill:#FFF0DE;" d="M186.594,185.023c0,0,0.411-6.983,2.67-8.538c2.259-1.557,1.602,10.673,0,10.673C187.662,187.159,186.594,187.694,186.594,185.023z"></path><path style="fill:#FFF0DE;" d="M322.48,180.753c0,0-5.337-10.675-7.472-11.207c-2.134-0.534,0.743,17.4,3.734,16.547C321.546,185.293,323.548,183.293,322.48,180.753z"></path><path style="fill:#FFF0DE;" d="M315.082,185.024c0,0-0.411-6.984-2.672-8.541c-2.26-1.555-1.6,10.676,0,10.676C314.014,187.159,315.082,187.694,315.082,185.024z"></path><path style="fill:#FFF0DE;" d="M244.782,189.498c0,0,0-10.41,2.403-13.211c2.4-2.802,5.523,13.451,2.804,14.811C247.585,192.301,244.782,192.301,244.782,189.498z"></path><path style="fill:#FFF0DE;" d="M254.259,190.498c-1.606-2.003,0-9.208,0.799-10.41c0.801-1.201,4.002,9.207,2.402,11.208C255.396,193.876,255.858,192.498,254.259,190.498z"></path></g></g><linearGradient id="hair1XMLID_4508_" gradientUnits="userSpaceOnUse" x1="227.1577" y1="218.666" x2="227.1577" y2="113.9995"><stop offset="0" style="stop-color:#FCFCE4"></stop><stop offset="0.5" style="stop-color:#A0C8DD"></stop><stop offset="1" style="stop-color:#5D6EC5"></stop></linearGradient><path style="fill:url(#hair1XMLID_4508_);stroke:#000000;stroke-linecap:round;stroke-linejoin:round;" d="M265,122.5c0,0,18.75,51.75-17.75,79.5c10.75-20.25,11.5-57.5,11.5-57.5s-5.25,39.5-35.25,46.75c-6,3.5-18.5,7-39,3.75c25.5-7.5,62-44.75,69-68"></path></g></g></svg>