<svg xmlns="http://www.w3.org/2000/svg" width="500" height="500" version="1.1"><g id="x025"><g><linearGradient id="hair1XMLID_2606_" gradientUnits="userSpaceOnUse" x1="250.0005" y1="190.5" x2="250.0005" y2="158.25"><stop offset="0" style="stop-color:#FCFCE4"></stop><stop offset="0.5" style="stop-color:#A0C8DD"></stop><stop offset="1" style="stop-color:#5D6EC5"></stop></linearGradient><path style="fill:url(#hair1XMLID_2606_);stroke:#1E1E1E;stroke-linecap:round;stroke-linejoin:round;" d="M311.484,135.882c-17.021-17.418-41.603-23.852-61.484-20.131c-19.882-3.721-44.464,2.713-61.484,20.131c-13.061,13.365-22.283,30.165-22.283,51.08c0,24.372,15.268,44.372,25.934,48.538c-0.607-2.774-2.783-10.375-3.257-11.479l3.591,0.479c0,0-6.031-10.656-6.064-10.982L193,215l-6.653-11.459l7.903,2.709c0,0-6.078-11.166-6.028-11.389c1.363,0.323,5.292,1.272,6.028,1.639c0.784,0.391-4.763-11.287-4.74-11.447l8.74,1.239c-0.625-0.958-2.821-6.063-5.548-10.392l3.798,1.85l-2.042-11.5l10.042,3l-1.5-8.75l12.555,7.295l-1.507-8.71l15.242,9.045l1.309-6.021c5.09-0.336,10.367-0.577,15.522-0.679c1.302-0.025,2.597,14.015,3.879,14.008c1.261,0.007,2.533-14.034,3.813-14.009c5.176,0.101,10.476,0.342,15.588,0.68l1.309,6.021l15.242-9.045l-1.507,8.71L297,160.5l-1.5,8.75l10.042-3l-2.042,11.5l3.798-1.85c-2.727,4.33-4.923,9.434-5.548,10.392l8.74-1.239c0.022,0.161-5.524,11.838-4.74,11.447c0.736-0.367,4.665-1.315,6.028-1.639c0.05,0.223-6.028,11.389-6.028,11.389l7.903-2.709L307,215l6.564-1.482c-0.033,0.327-6.064,10.982-6.064,10.982l3.591-0.479c-0.474,1.103-2.649,8.704-3.257,11.479c10.666-4.167,25.934-24.167,25.934-48.538C333.768,166.047,324.545,149.248,311.484,135.882z"></path><linearGradient id="hair1XMLID_2607_" gradientUnits="userSpaceOnUse" x1="250.2505" y1="190.5" x2="250.2505" y2="158.25"><stop offset="0" style="stop-color:#FCFCE4"></stop><stop offset="0.5" style="stop-color:#A0C8DD"></stop><stop offset="1" style="stop-color:#5D6EC5"></stop></linearGradient><path style="fill:url(#hair1XMLID_2607_);stroke:#1E1E1E;stroke-linecap:round;stroke-linejoin:round;" d="M273.205,131.425c0,0-6.955-20.675-22.955-37.437c-16,16.761-22.955,37.437-22.955,37.437"></path><g><linearGradient id="hair1XMLID_2608_" gradientUnits="userSpaceOnUse" x1="260.1973" y1="190.5" x2="260.1973" y2="158.25"><stop offset="0" style="stop-color:#FCFCE4"></stop><stop offset="0.5" style="stop-color:#A0C8DD"></stop><stop offset="1" style="stop-color:#5D6EC5"></stop></linearGradient><path style="fill:url(#hair1XMLID_2608_);stroke:#1E1E1E;stroke-linecap:round;stroke-linejoin:round;" d="M257.93,165.848c0,0,3.686,14.07,0,28.475c19.264-13.567,12.229-45.057,0.336-46.397c-4.689,0-7.785,27.528-7.785,27.528L257.93,165.848z"></path><linearGradient id="hair1XMLID_2609_" gradientUnits="userSpaceOnUse" x1="239.8032" y1="190.5" x2="239.8032" y2="158.25"><stop offset="0" style="stop-color:#FCFCE4"></stop><stop offset="0.5" style="stop-color:#A0C8DD"></stop><stop offset="1" style="stop-color:#5D6EC5"></stop></linearGradient><path style="fill:url(#hair1XMLID_2609_);stroke:#1E1E1E;stroke-linecap:round;stroke-linejoin:round;" d="M242.07,165.848c0,0-3.686,14.07,0,28.475c-19.263-13.567-12.228-45.057-0.335-46.397c4.689,0,7.784,27.528,7.784,27.528L242.07,165.848z"></path></g><g><g><g><linearGradient id="hair1XMLID_2610_" gradientUnits="userSpaceOnUse" x1="298" y1="190.5" x2="298" y2="158.25"><stop offset="0" style="stop-color:#FCFCE4"></stop><stop offset="0.5" style="stop-color:#A0C8DD"></stop><stop offset="1" style="stop-color:#5D6EC5"></stop></linearGradient><path style="fill:url(#hair1XMLID_2610_);stroke:#1E1E1E;stroke-linecap:round;stroke-linejoin:round;" d="M252.775,116.043c0,0,7.594-13.178,6.029-20.548c20.992,2.455,31.938,19.43,31.938,19.43s2.902-6.922-0.447-11.39c18.09,7.37,25.461,25.015,25.461,25.015s-0.445-6.03-1.785-8.04c12.951,6.03,24.564,31.49,23.895,35.51s-4.92,14.729-11.67,18.229c2.25,0.5,9.25,1.5,17.029-1.035c0,0-5.279,16.035-20.779,15.035"></path><path style="fill:none;stroke:#1E1E1E;stroke-linecap:round;stroke-linejoin:round;" d="M315.756,128.55c0,0,6.035,21.775,5.029,25.125S307.945,169,307.945,169"></path></g><linearGradient id="hair1XMLID_2611_" gradientUnits="userSpaceOnUse" x1="325.7148" y1="190.5" x2="325.7148" y2="158.25"><stop offset="0" style="stop-color:#FCFCE4"></stop><stop offset="0.5" style="stop-color:#A0C8DD"></stop><stop offset="1" style="stop-color:#5D6EC5"></stop></linearGradient><path style="fill:url(#hair1XMLID_2611_);stroke:#1E1E1E;stroke-linecap:round;stroke-linejoin:round;" d="M321.984,188.35c8.039,4.021,15.91,14.9,13.66,29.15c-6.75-14.5-20.25-18.25-20.25-18.25"></path></g><g><g><linearGradient id="hair1XMLID_2612_" gradientUnits="userSpaceOnUse" x1="202.0005" y1="190.5" x2="202.0005" y2="158.25"><stop offset="0" style="stop-color:#FCFCE4"></stop><stop offset="0.5" style="stop-color:#A0C8DD"></stop><stop offset="1" style="stop-color:#5D6EC5"></stop></linearGradient><path style="fill:url(#hair1XMLID_2612_);stroke:#1E1E1E;stroke-linecap:round;stroke-linejoin:round;" d="M247.226,116.043c0,0-7.595-13.178-6.03-20.548c-20.992,2.455-31.937,19.43-31.937,19.43s-2.903-6.922,0.446-11.39c-18.09,7.37-25.46,25.015-25.46,25.015s0.445-6.03,1.785-8.04c-12.952,6.03-24.564,31.49-23.895,35.51s4.919,14.729,11.669,18.229c-2.25,0.5-9.25,1.5-17.029-1.035c0,0,5.279,16.035,20.779,15.035"></path><path style="fill:none;stroke:#1E1E1E;stroke-linecap:round;stroke-linejoin:round;" d="M184.245,128.55c0,0-6.035,21.775-5.03,25.125c1.006,3.35,12.84,15.325,12.84,15.325"></path></g><linearGradient id="hair1XMLID_2613_" gradientUnits="userSpaceOnUse" x1="174.2856" y1="190.5" x2="174.2856" y2="158.25"><stop offset="0" style="stop-color:#FCFCE4"></stop><stop offset="0.5" style="stop-color:#A0C8DD"></stop><stop offset="1" style="stop-color:#5D6EC5"></stop></linearGradient><path style="fill:url(#hair1XMLID_2613_);stroke:#1E1E1E;stroke-linecap:round;stroke-linejoin:round;" d="M178.017,188.35c-8.04,4.021-15.911,14.9-13.661,29.15c6.75-14.5,20.25-18.25,20.25-18.25"></path></g></g></g><g><g><path style="fill:#FFF0DE;" d="M184.006,141.036c0,0,5.852-11.712,8.195-12.295c2.342-0.585-0.816,19.084-4.1,18.149C185.029,146.013,182.834,143.818,184.006,141.036z"></path><path style="fill:#FFF0DE;" d="M192.119,145.717c0,0,0.45-7.659,2.929-9.365c2.478-1.707,1.757,11.708,0,11.708C193.291,148.06,192.119,148.645,192.119,145.717z"></path><path style="fill:#FFF0DE;" d="M315.744,141.036c0,0-5.853-11.712-8.195-12.295c-2.343-0.585,0.816,19.084,4.1,18.149C314.721,146.013,316.915,143.818,315.744,141.036z"></path><path style="fill:#FFF0DE;" d="M307.631,145.717c0,0-0.451-7.659-2.93-9.365c-2.478-1.707-1.756,11.708,0,11.708C306.459,148.06,307.631,148.645,307.631,145.717z"></path></g></g></g></svg>