<svg xmlns="http://www.w3.org/2000/svg" width="500" height="500" version="1.1"><g id="x9252"><g><linearGradient id="hair1XMLID_4509_" gradientUnits="userSpaceOnUse" x1="265.834" y1="109.5" x2="265.834" y2="140.5"><stop offset="0" style="stop-color:#FCFCE4"></stop><stop offset="0.5" style="stop-color:#A0C8DD"></stop><stop offset="1" style="stop-color:#5D6EC5"></stop></linearGradient><path style="fill:url(#hair1XMLID_4509_);stroke:#000000;stroke-linecap:round;stroke-linejoin:round;" d="M244.667,149c0,0-24.667-8-27.333-18c3-10.667,20-27.667,24.667-29.667s47-1.667,58.333-7c-9.334,13-21,20.667-21,20.667s19,3,25.667,6.667c-5.333,0.333-10.333,0.667-10.333,0.667s14.999,7.667,19.666,15.333C299,135.333,277,138,277,138s-13,1-18,4.333c-1-3,2.667-7,2.667-7S253,143.667,251.334,147c-2.667-0.667-4.667-7.333-4.667-7.333S243,147.334,244.667,149z"></path><path style="fill:none;stroke:#000000;stroke-linecap:round;stroke-linejoin:round;" d="M227.333,132.667c0,0,7.333,10.333,16.667,15.333"></path><path style="fill:none;stroke:#000000;stroke-linecap:round;stroke-linejoin:round;" d="M244,145.333c0,0-6.667-13-5-21.333c2.333,7,5,11,5,11s-2-13.333,6.333-22.333"></path><path style="fill:none;stroke:#000000;stroke-linecap:round;stroke-linejoin:round;" d="M251.666,146c0.334-1,5.667-16.333,11.334-20"></path></g></g></svg>