<svg xmlns="http://www.w3.org/2000/svg" width="500" height="500" version="1.1"><g id="x9270"><g><g><g><linearGradient id="hair1XMLID_4637_" gradientUnits="userSpaceOnUse" x1="286.9102" y1="121.667" x2="286.9102" y2="332.3382"><stop offset="0" style="stop-color:#FCFCE4"></stop><stop offset="0.5" style="stop-color:#A0C8DD"></stop><stop offset="1" style="stop-color:#5D6EC5"></stop></linearGradient><path style="fill:url(#hair1XMLID_4637_);stroke:#000000;stroke-linecap:round;stroke-linejoin:round;" d="M324.667,210.333c0,0,18.667-92-76.333-86.667l-0.667,35.667c0,0,24.503-0.776,39.667,9.333C303.333,179.333,324.667,210.333,324.667,210.333"></path><linearGradient id="hair1XMLID_4638_" gradientUnits="userSpaceOnUse" x1="324.3535" y1="121.6655" x2="324.3535" y2="332.3393"><stop offset="0" style="stop-color:#FCFCE4"></stop><stop offset="0.5" style="stop-color:#A0C8DD"></stop><stop offset="1" style="stop-color:#5D6EC5"></stop></linearGradient><path style="fill:url(#hair1XMLID_4638_);stroke:#000000;stroke-linecap:round;stroke-linejoin:round;" d="M335.334,207.667c0,0,3.999,20-10.334,28.667s-12-40-12-40S335.668,189.667,335.334,207.667z"></path><linearGradient id="hair1XMLID_4639_" gradientUnits="userSpaceOnUse" x1="323.5352" y1="121.667" x2="323.5352" y2="332.3378"><stop offset="0" style="stop-color:#FCFCE4"></stop><stop offset="0.5" style="stop-color:#A0C8DD"></stop><stop offset="1" style="stop-color:#5D6EC5"></stop></linearGradient><path style="fill:url(#hair1XMLID_4639_);stroke:#000000;stroke-linecap:round;stroke-linejoin:round;" d="M295.209,131.324c0,0,20.297,0.363,28.541,9.176c8.243,8.813,10,37.75,10,37.75s6.917,11.75,13.379,18.837c2.205,3.247,8.649,20.809,1.334,28.97c0,0-0.714-8.474-15.38-15.684c-14.665-7.209-29.333-26.874-29.333-26.874"></path><linearGradient id="hair1XMLID_4640_" gradientUnits="userSpaceOnUse" x1="334.917" y1="121.667" x2="334.917" y2="332.339"><stop offset="0" style="stop-color:#FCFCE4"></stop><stop offset="0.5" style="stop-color:#A0C8DD"></stop><stop offset="1" style="stop-color:#5D6EC5"></stop></linearGradient><path style="fill:url(#hair1XMLID_4640_);stroke:#000000;stroke-linecap:round;stroke-linejoin:round;" d="M333.25,177.333c0,0,1.668,19.333,3.334,21"></path><linearGradient id="hair1XMLID_4641_" gradientUnits="userSpaceOnUse" x1="306.3584" y1="121.667" x2="306.3584" y2="332.3385"><stop offset="0" style="stop-color:#FCFCE4"></stop><stop offset="0.5" style="stop-color:#A0C8DD"></stop><stop offset="1" style="stop-color:#5D6EC5"></stop></linearGradient><path style="fill:url(#hair1XMLID_4641_);stroke:#000000;stroke-linecap:round;stroke-linejoin:round;" d="M282.25,175.25c0,0,26.75,33.375,25.625,50.875S298,257.625,288.2,261.75c0,0,36.8-5.417,41.967-33.583c2.698-23.744-13.438-64.963-24.5-68.5c0,0-5.917-2.667-15.667,0.833"></path><linearGradient id="hair1XMLID_4642_" gradientUnits="userSpaceOnUse" x1="215.9995" y1="121.667" x2="215.9995" y2="332.3383"><stop offset="0" style="stop-color:#FCFCE4"></stop><stop offset="0.5" style="stop-color:#A0C8DD"></stop><stop offset="1" style="stop-color:#5D6EC5"></stop></linearGradient><path style="fill:url(#hair1XMLID_4642_);stroke:#000000;stroke-linecap:round;stroke-linejoin:round;" d="M279,127.667c0,0-62.333-17.333-87,8.333s-11.333,40.333-33.333,44.333c-5.333,1-5.667-1-5.667-1s6.333,15,31,5.667s31.333-33.667,82-30.667"></path><linearGradient id="hair1XMLID_4643_" gradientUnits="userSpaceOnUse" x1="186.4751" y1="121.667" x2="186.4751" y2="332.3378"><stop offset="0" style="stop-color:#FCFCE4"></stop><stop offset="0.5" style="stop-color:#A0C8DD"></stop><stop offset="1" style="stop-color:#5D6EC5"></stop></linearGradient><path style="fill:url(#hair1XMLID_4643_);stroke:#000000;stroke-linecap:round;stroke-linejoin:round;" d="M180.333,168.333c0,0-29.396,34.804-17,51.333c8,10.667,8.334,20.333,7.667,26.333c0,0,7.333-9.667,1.667-23c0,0,2.333,11.667,9,15.667S195,256,195,256l17.667-37L211,186"></path><linearGradient id="hair1XMLID_4644_" gradientUnits="userSpaceOnUse" x1="193.5864" y1="121.6655" x2="193.5864" y2="332.3402"><stop offset="0" style="stop-color:#FCFCE4"></stop><stop offset="0.5" style="stop-color:#A0C8DD"></stop><stop offset="1" style="stop-color:#5D6EC5"></stop></linearGradient><path style="fill:url(#hair1XMLID_4644_);stroke:#000000;stroke-linecap:round;stroke-linejoin:round;" d="M190.667,218.333c0,0,5.25,19.083-4.25,22.833s-12-5.75-12-5.75s-1.25,16.5,21,11.25s16.75-18.5,16.75-18.5"></path><linearGradient id="hair1XMLID_4645_" gradientUnits="userSpaceOnUse" x1="248.1245" y1="121.667" x2="248.1245" y2="332.3381"><stop offset="0" style="stop-color:#FCFCE4"></stop><stop offset="0.5" style="stop-color:#A0C8DD"></stop><stop offset="1" style="stop-color:#5D6EC5"></stop></linearGradient><path style="fill:url(#hair1XMLID_4645_);stroke:#000000;stroke-linecap:round;stroke-linejoin:round;" d="M303.5,134.75c0,0-15.5-21.75-27.25-25.5s-47.5,3-58.25,2s-22.5-14.75-25.25-18.5c0,0,0.5,32.5,20.75,37.5s50,3,50,3"></path><path style="fill:none;stroke:#000000;stroke-linecap:round;stroke-linejoin:round;" d="M278.667,113c0,0,20.416,20.25,14.083,46.25"></path><g><linearGradient id="hair1XMLID_4646_" gradientUnits="userSpaceOnUse" x1="306.3115" y1="121.667" x2="306.3115" y2="332.3381"><stop offset="0" style="stop-color:#FCFCE4"></stop><stop offset="0.5" style="stop-color:#A0C8DD"></stop><stop offset="1" style="stop-color:#5D6EC5"></stop></linearGradient><path style="fill:url(#hair1XMLID_4646_);stroke:#000000;stroke-linecap:round;stroke-linejoin:round;" d="M297.784,140.542c0,0,17.391-4.988,17.05-15.38c0,0-0.683-12.887-14.321-20.369C300.513,104.792,309.037,130.565,297.784,140.542z"></path><linearGradient id="hair1XMLID_4647_" gradientUnits="userSpaceOnUse" x1="295.043" y1="121.667" x2="295.043" y2="332.3381"><stop offset="0" style="stop-color:#FCFCE4"></stop><stop offset="0.5" style="stop-color:#A0C8DD"></stop><stop offset="1" style="stop-color:#5D6EC5"></stop></linearGradient><path style="fill:url(#hair1XMLID_4647_);stroke:#000000;stroke-linecap:round;stroke-linejoin:round;" d="M301.919,111.132c0,0-1.33-8.789-4.475-8.885c-1.723-0.053-5.207-1.319-9.277-0.195c0,0,6.72,0.506,9.277,3C299.358,106.918,301.919,111.132,301.919,111.132z"></path></g><linearGradient id="hair1XMLID_4648_" gradientUnits="userSpaceOnUse" x1="220.0825" y1="121.667" x2="220.0825" y2="332.3383"><stop offset="0" style="stop-color:#FCFCE4"></stop><stop offset="0.5" style="stop-color:#A0C8DD"></stop><stop offset="1" style="stop-color:#5D6EC5"></stop></linearGradient><path style="fill:url(#hair1XMLID_4648_);stroke:#000000;stroke-linecap:round;stroke-linejoin:round;" d="M279.083,142.667c0,0-6-19-19-19.25s-43.75-0.5-57.5,15.5s-41.5,11.25-41.5,11.25s8.75,20.75,40.5,10.5"></path><linearGradient id="hair1XMLID_4649_" gradientUnits="userSpaceOnUse" x1="193.2007" y1="121.667" x2="193.2007" y2="332.3385"><stop offset="0" style="stop-color:#FCFCE4"></stop><stop offset="0.5" style="stop-color:#A0C8DD"></stop><stop offset="1" style="stop-color:#5D6EC5"></stop></linearGradient><path style="fill:url(#hair1XMLID_4649_);stroke:#000000;stroke-linecap:round;stroke-linejoin:round;" d="M202.5,151.417c0,0-36,25-31.75,56.25c3.5,13,32.5,12,30.5,24c0,0,16.5-13.75,3.25-28.5s11.5-44.5,11.5-44.5"></path><path style="fill:#ACCAC5;stroke:#000000;stroke-linecap:round;stroke-linejoin:round;" d="M282.25,175.25c0,0-9.916-18.417-16.916-18.583s-14.5,25.167-14.5,25.167s6.999-5.5,10.666-5.333l-3.166-1.833c0,0,6-0.5,6.833,1.167l-1-4.167c0,0,6.333,0.833,6.833,2.833l1.834-2.5l2.833,2L282.25,175.25z"></path><linearGradient id="hair1XMLID_4650_" gradientUnits="userSpaceOnUse" x1="215.936" y1="121.667" x2="215.936" y2="332.3379"><stop offset="0" style="stop-color:#FCFCE4"></stop><stop offset="0.5" style="stop-color:#A0C8DD"></stop><stop offset="1" style="stop-color:#5D6EC5"></stop></linearGradient><path style="fill:url(#hair1XMLID_4650_);stroke:#000000;stroke-linecap:round;stroke-linejoin:round;" d="M244,157c0,0-6,32.333,0.333,49c7.833,19.5-9.833,40.833-28.833,50.5c-20.167,8.167-11.333,26.334-11.333,26.334s-27.5-22.834-15.5-37.167S208,222,207.333,216S178,166,226.5,144.5"></path><path style="fill:none;stroke:#000000;stroke-linecap:round;stroke-linejoin:round;" d="M213.333,246.833c0,0-16.667,17.833-9.333,35.667"></path><linearGradient id="hair1XMLID_4651_" gradientUnits="userSpaceOnUse" x1="252.5" y1="121.6729" x2="252.5" y2="332.2563"><stop offset="0" style="stop-color:#FCFCE4"></stop><stop offset="0.5" style="stop-color:#A0C8DD"></stop><stop offset="1" style="stop-color:#5D6EC5"></stop></linearGradient><path style="fill:url(#hair1XMLID_4651_);stroke:#000000;stroke-linecap:round;stroke-linejoin:round;" d="M282.25,175.25c0,0-10.525-15.412-15.02-15.761c-4.494-0.349-15.17,20.66-7.563,40.178c7.605,19.518-11.613,43.713-31.667,38.833c-12-4.833-13.25-14-13.25-14s17.25,8.75,22.25-3.75c-3.709-7.988-11.75-16.5-12.988-19.438c-1.7-4.033-20.571-67.108,43.738-66.062c0,0,5.424,0.379,12.25,6c4.282,3.526,8.25,8.964,10.25,20.25c0,0-0.5,5.25-3,8.5S282.25,175.25,282.25,175.25z"></path><linearGradient id="hair1XMLID_4652_" gradientUnits="userSpaceOnUse" x1="304.125" y1="121.667" x2="304.125" y2="332.3383"><stop offset="0" style="stop-color:#FCFCE4"></stop><stop offset="0.5" style="stop-color:#A0C8DD"></stop><stop offset="1" style="stop-color:#5D6EC5"></stop></linearGradient><path style="fill:url(#hair1XMLID_4652_);stroke:#000000;stroke-linecap:round;stroke-linejoin:round;" d="M309.5,211.25c0,0,0.375,34.625-19.875,40.125c0,0,20.25,1.25,29-20.75"></path><path style="fill:none;stroke:#000000;stroke-linecap:round;stroke-linejoin:round;" d="M238,194.75c0,0,2.25,23.75-2.75,29"></path><path style="fill:none;stroke:#000000;stroke-linecap:round;stroke-linejoin:round;" d="M205.5,160.083c0,0-14.5,20.417,4,40.417"></path><path style="fill:none;stroke:#000000;stroke-linecap:round;stroke-linejoin:round;" d="M272.834,172c0,0-4.334-6.5-10.834-7.5"></path><path style="fill:none;stroke:#000000;stroke-linecap:round;stroke-linejoin:round;" d="M264.167,171.667c0,0-3.167-1.167-5.167-1.167"></path></g></g><g><g><path style="fill:#FFF0DE;" d="M179.107,180.757c0,0,5.335-10.679,7.472-11.21c2.136-0.534-0.744,17.4-3.738,16.547C180.04,185.294,178.039,183.293,179.107,180.757z"></path><path style="fill:#FFF0DE;" d="M188.177,185.023c0,0,0.411-6.983,2.67-8.538c2.259-1.557,1.602,10.673,0,10.673C189.245,187.159,188.177,187.694,188.177,185.023z"></path><path style="fill:#FFF0DE;" d="M316.813,180.753c0,0-5.337-10.675-7.472-11.207c-2.134-0.534,0.743,17.4,3.734,16.547C315.879,185.293,317.881,183.293,316.813,180.753z"></path><path style="fill:#FFF0DE;" d="M309.415,185.024c0,0-0.411-6.984-2.672-8.541c-2.26-1.555-1.6,10.676,0,10.676C308.347,187.159,309.415,187.694,309.415,185.024z"></path><path style="fill:#FFF0DE;" d="M226.782,184.165c0,0,0-10.41,2.403-13.211c2.4-2.802,5.523,13.451,2.804,14.811C229.585,186.967,226.782,186.967,226.782,184.165z"></path><path style="fill:#FFF0DE;" d="M236.259,185.165c-1.606-2.003,0-9.208,0.799-10.41c0.801-1.201,4.002,9.207,2.402,11.208C237.396,188.542,237.858,187.165,236.259,185.165z"></path></g></g></g></g></svg>