<svg xmlns="http://www.w3.org/2000/svg" width="500" height="500" version="1.1"><g id="x9271"><g><g><linearGradient id="hair1XMLID_4653_" gradientUnits="userSpaceOnUse" x1="250.0513" y1="174.3335" x2="250.0513" y2="249"><stop offset="0" style="stop-color:#FCFCE4"></stop><stop offset="0.5" style="stop-color:#A0C8DD"></stop><stop offset="1" style="stop-color:#5D6EC5"></stop></linearGradient><path style="fill:url(#hair1XMLID_4653_);stroke:#000000;stroke-linecap:round;stroke-linejoin:round;" d="M334.52,181.962c-1.02-14.462-10.725-32.714-23.785-46.08c-16.916-17.31-39.3-23.774-59.115-20.201c-0.381,0.069-0.764,0.134-1.141,0.21c-0.16,0.019-0.317,0.034-0.478,0.054c-0.16-0.02-0.317-0.035-0.478-0.054C229.51,111.856,207,115,189.266,135.882C176,149,166,168.5,165.583,182.962c0,32.694,13.666,51.104,14.227,52.325c0,0-5.229-21.928,5.742-24.67c4.113-0.686,9.78-33.574,16.455-44.566c1.829-2.195,24.358-4.665,47.994-4.677c0.54,0,1.079,0.003,1.618,0.006c23.033,0.12,44.587,2.526,46.374,4.671c6.674,10.992,10.894,52.597,15.007,53.283c10.971,2.742,5.093,16.555,5.093,16.555C318.653,234.667,334.52,211.65,334.52,181.962z"></path></g><g><g><linearGradient id="hair1XMLID_4654_" gradientUnits="userSpaceOnUse" x1="329.334" y1="200.9873" x2="329.334" y2="240.4468"><stop offset="0" style="stop-color:#FCFCE4"></stop><stop offset="0.5" style="stop-color:#A0C8DD"></stop><stop offset="1" style="stop-color:#5D6EC5"></stop></linearGradient><path style="fill:url(#hair1XMLID_4654_);stroke:#000000;stroke-linecap:round;stroke-linejoin:round;" d="M334.333,182.667c0,0-1.999,46.333,6.334,55.333c-8.334-3.333-11.334-19.667-11.334-19.667s-0.332,14.333,1.334,17.333c-4-2.333-11-13.333-12.667-25"></path><linearGradient id="hair1XMLID_4655_" gradientUnits="userSpaceOnUse" x1="168.0005" y1="174.3335" x2="168.0005" y2="248.9998"><stop offset="0" style="stop-color:#FCFCE4"></stop><stop offset="0.5" style="stop-color:#A0C8DD"></stop><stop offset="1" style="stop-color:#5D6EC5"></stop></linearGradient><path style="fill:url(#hair1XMLID_4655_);stroke:#000000;stroke-linecap:round;stroke-linejoin:round;" d="M174.667,161c0,0-17.333,19.667-29,19.667c13.333-7.333,36.333-38.333,44.667-46"></path><linearGradient id="hair1XMLID_4656_" gradientUnits="userSpaceOnUse" x1="166.6187" y1="178.1221" x2="166.6187" y2="265.2691"><stop offset="0" style="stop-color:#FCFCE4"></stop><stop offset="0.5" style="stop-color:#A0C8DD"></stop><stop offset="1" style="stop-color:#5D6EC5"></stop></linearGradient><path style="fill:url(#hair1XMLID_4656_);stroke:#000000;stroke-linecap:round;stroke-linejoin:round;" d="M182,181.667c0,0-30.177,41.081-22.667,73c-13.895-25.912-11.295-69.578,18.747-103"></path><linearGradient id="hair1XMLID_4657_" gradientUnits="userSpaceOnUse" x1="337.5" y1="168.3931" x2="337.5" y2="200.1716"><stop offset="0" style="stop-color:#FCFCE4"></stop><stop offset="0.5" style="stop-color:#A0C8DD"></stop><stop offset="1" style="stop-color:#5D6EC5"></stop></linearGradient><path style="fill:url(#hair1XMLID_4657_);stroke:#000000;stroke-linecap:round;stroke-linejoin:round;" d="M320.667,149.667c0,0,16.332,37.333,33.666,41c-11.666-0.667-25-9.667-25-9.667"></path><linearGradient id="hair1XMLID_4658_" gradientUnits="userSpaceOnUse" x1="314.873" y1="178.3228" x2="314.873" y2="261.5811"><stop offset="0" style="stop-color:#FCFCE4"></stop><stop offset="0.5" style="stop-color:#A0C8DD"></stop><stop offset="1" style="stop-color:#5D6EC5"></stop></linearGradient><path style="fill:url(#hair1XMLID_4658_);stroke:#000000;stroke-linecap:round;stroke-linejoin:round;" d="M307.814,215.741c0.308,6.005,0.686,23.509-8.897,33.027c6.443-0.742,12.887-10.39,12.887-10.39s-4.304,13.372-11.966,17.813c15.912,2.81,30.74-20.71,30.989-54.922c0.308-42.305-21.785-61.602-21.785-61.602"></path><linearGradient id="hair1XMLID_4659_" gradientUnits="userSpaceOnUse" x1="196.1626" y1="177.7515" x2="196.1626" y2="273.3539"><stop offset="0" style="stop-color:#FCFCE4"></stop><stop offset="0.5" style="stop-color:#A0C8DD"></stop><stop offset="1" style="stop-color:#5D6EC5"></stop></linearGradient><path style="fill:url(#hair1XMLID_4659_);stroke:#000000;stroke-linecap:round;stroke-linejoin:round;" d="M208.375,162.143c0,0-20.072,58.307-19.708,74.523c-10-23.333-1.771-50.615,3.367-67.323"></path><linearGradient id="hair1XMLID_4660_" gradientUnits="userSpaceOnUse" x1="184.4077" y1="179.6943" x2="184.4077" y2="256.1574"><stop offset="0" style="stop-color:#FCFCE4"></stop><stop offset="0.5" style="stop-color:#A0C8DD"></stop><stop offset="1" style="stop-color:#5D6EC5"></stop></linearGradient><path style="fill:url(#hair1XMLID_4660_);stroke:#000000;stroke-linecap:round;stroke-linejoin:round;" d="M199,164.333c0,0-27,50,1.333,99.334c-24.033-2.027-39.541-40.276-27.903-84.155"></path><path style="fill:#FFF0DE;" d="M174.94,180.757c0,0,5.335-10.679,7.472-11.21c2.136-0.534-0.744,17.4-3.738,16.547C175.874,185.294,173.872,183.293,174.94,180.757z"></path><path style="fill:#FFF0DE;" d="M184.011,185.023c0,0,0.411-6.983,2.67-8.538c2.259-1.557,1.602,10.673,0,10.673C185.079,187.159,184.011,187.694,184.011,185.023z"></path><linearGradient id="hair1XMLID_4661_" gradientUnits="userSpaceOnUse" x1="215.3804" y1="174.3335" x2="215.3804" y2="249.0003"><stop offset="0" style="stop-color:#FCFCE4"></stop><stop offset="0.5" style="stop-color:#A0C8DD"></stop><stop offset="1" style="stop-color:#5D6EC5"></stop></linearGradient><path style="fill:url(#hair1XMLID_4661_);stroke:#000000;stroke-linecap:round;stroke-linejoin:round;" d="M232,160.333c0,0-14,22-14.333,58c-5-5.667-5.333-12.333-5.333-12.333s-4,9.333-4.667,15.667c-10-12-12.667-37-2.333-64.333"></path><linearGradient id="hair1XMLID_4662_" gradientUnits="userSpaceOnUse" x1="268.876" y1="174.3335" x2="268.876" y2="249"><stop offset="0" style="stop-color:#FCFCE4"></stop><stop offset="0.5" style="stop-color:#A0C8DD"></stop><stop offset="1" style="stop-color:#5D6EC5"></stop></linearGradient><path style="fill:url(#hair1XMLID_4662_);stroke:#000000;stroke-linecap:round;stroke-linejoin:round;" d="M231.333,152.333c0,0-18.667,42,5.333,69.667C238,214.333,240,209.333,240,209.333S241,219,253,223c-2.333-15-0.333-34.333,3.334-43.333c0,0-5.001,28.667,8.666,42.333c0.334-11.667,3.667-24.667,3.667-24.667s-0.333,18.333,7.333,25c-2.333-10-1.667-39,5-51.667c0,0-0.666,38.333,32.334,56c-6.667-11.333-4.842-46.541-7.667-61.333c-5.667-29.667-26.667-35-26.667-35"></path><linearGradient id="hair1XMLID_4663_" gradientUnits="userSpaceOnUse" x1="168.9307" y1="182.0669" x2="168.9307" y2="264.873"><stop offset="0" style="stop-color:#FCFCE4"></stop><stop offset="0.5" style="stop-color:#A0C8DD"></stop><stop offset="1" style="stop-color:#5D6EC5"></stop></linearGradient><path style="fill:url(#hair1XMLID_4663_);stroke:#000000;stroke-linecap:round;stroke-linejoin:round;" d="M172.967,192.333c0,0-9.967,44,1.033,63.667c-14.667-21.667-12-49.667-1.033-78"></path><linearGradient id="hair1XMLID_4664_" gradientUnits="userSpaceOnUse" x1="261.1172" y1="165.1123" x2="261.1172" y2="225.8276"><stop offset="0" style="stop-color:#FCFCE4"></stop><stop offset="0.5" style="stop-color:#A0C8DD"></stop><stop offset="1" style="stop-color:#5D6EC5"></stop></linearGradient><path style="fill:url(#hair1XMLID_4664_);stroke:#000000;stroke-linecap:round;stroke-linejoin:round;" d="M246.667,130.333c0,0-6.332,67,29.334,77.333C246.334,190.334,251,129.333,251,129.333"></path><linearGradient id="hair1XMLID_4665_" gradientUnits="userSpaceOnUse" x1="202.833" y1="140.4492" x2="202.833" y2="185.4644"><stop offset="0" style="stop-color:#FCFCE4"></stop><stop offset="0.5" style="stop-color:#A0C8DD"></stop><stop offset="1" style="stop-color:#5D6EC5"></stop></linearGradient><path style="fill:url(#hair1XMLID_4665_);stroke:#000000;stroke-linecap:round;stroke-linejoin:round;" d="M251,121.667c0,0-7.47-2.034-16,1.333c-12.667,5-21,43.333-61.333,49c13.667-5.667,24-15.667,24-15.667s-25,16.666-43,7.333c17.667-2,37-25.333,44.333-35s27.333-20.667,51.667-11"></path></g><g><g><path style="fill:#FFF0DE;" d="M325.813,180.753c0,0-5.337-10.675-7.472-11.207c-2.134-0.534,0.743,17.4,3.734,16.547C324.879,185.293,326.881,183.293,325.813,180.753z"></path><path style="fill:#FFF0DE;" d="M318.415,185.024c0,0-0.411-6.984-2.672-8.541c-2.26-1.555-1.6,10.676,0,10.676C317.347,187.159,318.415,187.694,318.415,185.024z"></path><path style="fill:#FFF0DE;" d="M236.782,184.165c0,0,0-10.41,2.403-13.211c2.4-2.802,5.523,13.451,2.804,14.811C239.585,186.967,236.782,186.967,236.782,184.165z"></path><path style="fill:#FFF0DE;" d="M246.259,185.165c-1.606-2.003,0-9.208,0.799-10.41c0.801-1.201,4.002,9.207,2.402,11.208C247.396,188.542,247.858,187.165,246.259,185.165z"></path></g></g></g></g></g></svg>