<svg xmlns="http://www.w3.org/2000/svg" width="500" height="500" version="1.1"><g id="x9278"><g><g><linearGradient id="hair1XMLID_4722_" gradientUnits="userSpaceOnUse" x1="254.5771" y1="247.665" x2="254.5771" y2="116.3324"><stop offset="0" style="stop-color:#FCFCE4"></stop><stop offset="0.5" style="stop-color:#A0C8DD"></stop><stop offset="1" style="stop-color:#5D6EC5"></stop></linearGradient><path style="fill:url(#hair1XMLID_4722_);stroke:#000000;stroke-linecap:round;stroke-linejoin:round;" d="M354.667,186c-4.333,3.333-13.667-0.333-17.417-5c5,2,10.5-5.25,10.5-5.25s-11.25,4-18.5-8.25c-3.087-5.216-11.733-12.404-15.215-18.75l3.715,1.75c0,0-8.25-24.5-31.25-33.5c-21.5-7-38-2.419-38-2.419l2.556,1.204c-0.193,0.035-0.387,0.067-0.577,0.106c-0.118,0.014-0.234,0.026-0.351,0.04c-2.416-1.537-21.857-5.642-38.127-1.931c-22,4-26.5,29.5-38.668,35.813c-1.826,0.947-4.623,0.919-8.624-0.413c0.837,1.95,6.412,4.74,6.335,4.901c-5.48,0.391-12.722-0.57-16.533-4.531c-0.346,4.476,3.24,12.23,11.74,17.48c-2.114,6.183-2.858,9.59-3,14.5c0,9.852,2.25,21.75-0.5,32.75c5.681,17,21.858,19.934,22.25,20.787c0,0,10.332-58.245,17.007-69.237c1.829-2.195,24.358-4.665,47.994-4.677c0.54,0,1.079,0.003,1.618,0.006c23.033,0.12,44.587,2.526,46.374,4.671c6.674,10.992,17.757,71.2,17.757,71.2c0.42-0.916,8.5-11,22-23.5c-1.083-2.083-1.083-5.417-3.25-12C340.667,204,353.334,197.333,354.667,186z"></path><path style="fill:none;stroke:#000000;stroke-linecap:round;stroke-linejoin:round;" d="M287.667,164c0,0-6.667-27.667-15.667-37.333c-5.149-5.531-18.666-5.333-18.666-5.333"></path><path style="fill:none;stroke:#000000;stroke-linecap:round;stroke-linejoin:round;" d="M201.667,179.333c0,0,4.333-32,28-53.333"></path><path style="fill:none;stroke:#000000;stroke-linecap:round;stroke-linejoin:round;" d="M303.936,146.333c0,0,23.064,27.833,30.564,55.417"></path><path style="fill:none;stroke:#000000;stroke-linecap:round;stroke-linejoin:round;" d="M166.25,167.25c0,0,2.25-5.5,4-8.5"></path><linearGradient id="hair1XMLID_4723_" gradientUnits="userSpaceOnUse" x1="324.123" y1="247.665" x2="324.123" y2="116.3321"><stop offset="0" style="stop-color:#FCFCE4"></stop><stop offset="0.5" style="stop-color:#A0C8DD"></stop><stop offset="1" style="stop-color:#5D6EC5"></stop></linearGradient><path style="fill:url(#hair1XMLID_4723_);stroke:#000000;stroke-linecap:round;stroke-linejoin:round;" d="M326.573,221.902c0,0,5.989,10.191,4.706,19.101c-3.177-10.842-14.494-12.065-14.494-12.065"></path><linearGradient id="hair1XMLID_4724_" gradientUnits="userSpaceOnUse" x1="333.209" y1="247.665" x2="333.209" y2="116.3321"><stop offset="0" style="stop-color:#FCFCE4"></stop><stop offset="0.5" style="stop-color:#A0C8DD"></stop><stop offset="1" style="stop-color:#5D6EC5"></stop></linearGradient><path style="fill:url(#hair1XMLID_4724_);stroke:#000000;stroke-linecap:round;stroke-linejoin:round;" d="M334.667,201.667c0,0,6.333,13.333,16.392,10.68C344,225,324.334,227.334,315.36,217.14"></path><linearGradient id="hair1XMLID_4725_" gradientUnits="userSpaceOnUse" x1="248.1694" y1="247.665" x2="248.1694" y2="116.3319"><stop offset="0" style="stop-color:#FCFCE4"></stop><stop offset="0.5" style="stop-color:#A0C8DD"></stop><stop offset="1" style="stop-color:#5D6EC5"></stop></linearGradient><path style="fill:url(#hair1XMLID_4725_);stroke:#000000;stroke-linecap:round;stroke-linejoin:round;" d="M249.706,118c0,0,8.809-0.678,11.628-8.667c2.82-7.99-12.567-26.112-26.667-25.642c18.799,11.75,10,25.976,10,25.976s-1.333,4-0.333,6.333"></path><linearGradient id="hair1XMLID_4726_" gradientUnits="userSpaceOnUse" x1="321.625" y1="247.665" x2="321.625" y2="116.3321"><stop offset="0" style="stop-color:#FCFCE4"></stop><stop offset="0.5" style="stop-color:#A0C8DD"></stop><stop offset="1" style="stop-color:#5D6EC5"></stop></linearGradient><path style="fill:url(#hair1XMLID_4726_);stroke:#000000;stroke-linecap:round;stroke-linejoin:round;" d="M312.584,140.583c0,0,10.75,8.083,18.083,5.083c-4.333,8.333-13.083,10.25-17.75,4.583"></path><linearGradient id="hair1XMLID_4727_" gradientUnits="userSpaceOnUse" x1="252.3506" y1="247.665" x2="252.3506" y2="116.3322"><stop offset="0" style="stop-color:#FCFCE4"></stop><stop offset="0.5" style="stop-color:#A0C8DD"></stop><stop offset="1" style="stop-color:#5D6EC5"></stop></linearGradient><path style="fill:url(#hair1XMLID_4727_);" d="M203.333,211.333l-15,3.333L186,207.25c0.017-0.102,0.093-0.405,0.219-0.882c1.735-6.552,13.031-45.868,13.031-45.868s79.5-14.25,103.5-0.75C307,190.25,320.5,213,318.5,213s-29-3.75-29-3.75l-23.25-10.5l-36.25-1.5h-11L203.333,211.333z"></path><g><linearGradient id="hair1XMLID_4728_" gradientUnits="userSpaceOnUse" x1="176.875" y1="247.665" x2="176.875" y2="116.332"><stop offset="0" style="stop-color:#FCFCE4"></stop><stop offset="0.5" style="stop-color:#A0C8DD"></stop><stop offset="1" style="stop-color:#5D6EC5"></stop></linearGradient><path style="fill:url(#hair1XMLID_4728_);stroke:#000000;stroke-linecap:round;stroke-linejoin:round;" d="M177.5,226c0,0-6,8-7.25,15.25c7-8,13.25-8.75,13.25-8.75"></path><linearGradient id="hair1XMLID_4729_" gradientUnits="userSpaceOnUse" x1="165.3774" y1="247.665" x2="165.3774" y2="116.3319"><stop offset="0" style="stop-color:#FCFCE4"></stop><stop offset="0.5" style="stop-color:#A0C8DD"></stop><stop offset="1" style="stop-color:#5D6EC5"></stop></linearGradient><path style="fill:url(#hair1XMLID_4729_);stroke:#000000;stroke-linecap:round;stroke-linejoin:round;" d="M173.5,192.5c0,0-1.5,28.5-25.245,23.041c8.995,7.459,15.995,5.209,15.995,5.209s-5,4.625-7.5,4.5c0.25,0.75,13.5,10,25.75,3"></path></g><g><g><linearGradient id="hair1XMLID_4730_" gradientUnits="userSpaceOnUse" x1="305.4492" y1="247.665" x2="305.4492" y2="116.332"><stop offset="0" style="stop-color:#FCFCE4"></stop><stop offset="0.5" style="stop-color:#A0C8DD"></stop><stop offset="1" style="stop-color:#5D6EC5"></stop></linearGradient><path style="fill:url(#hair1XMLID_4730_);stroke:#000000;stroke-linecap:round;stroke-linejoin:round;" d="M312.586,215.922c0,0-4.506,26.158-22.919,33.937c16.166,1.104,28.321-3.657,31.564-37.002"></path><linearGradient id="hair1XMLID_4731_" gradientUnits="userSpaceOnUse" x1="302.1709" y1="247.665" x2="302.1709" y2="116.3318"><stop offset="0" style="stop-color:#FCFCE4"></stop><stop offset="0.5" style="stop-color:#A0C8DD"></stop><stop offset="1" style="stop-color:#5D6EC5"></stop></linearGradient><path style="fill:url(#hair1XMLID_4731_);stroke:#000000;stroke-linecap:round;stroke-linejoin:round;" d="M308.109,233.619c0,0-5.5,7.568-13.486,10.449c6.22-0.623,11.083-2.075,15.096-6.533"></path></g><g><g><linearGradient id="hair1XMLID_4732_" gradientUnits="userSpaceOnUse" x1="193.0142" y1="247.665" x2="193.0142" y2="116.3322"><stop offset="0" style="stop-color:#FCFCE4"></stop><stop offset="0.5" style="stop-color:#A0C8DD"></stop><stop offset="1" style="stop-color:#5D6EC5"></stop></linearGradient><path style="fill:url(#hair1XMLID_4732_);stroke:#000000;stroke-linecap:round;stroke-linejoin:round;" d="M187.108,215.922c0,0,4.506,26.158,22.919,33.937c-16.166,1.104-30.321-3.657-33.564-37.002c0,0-0.537-5.083-0.453-11.481c0.065-4.901,0.495-10.575,1.812-15.325"></path><linearGradient id="hair1XMLID_4733_" gradientUnits="userSpaceOnUse" x1="197.5229" y1="247.665" x2="197.5229" y2="116.3318"><stop offset="0" style="stop-color:#FCFCE4"></stop><stop offset="0.5" style="stop-color:#A0C8DD"></stop><stop offset="1" style="stop-color:#5D6EC5"></stop></linearGradient><path style="fill:url(#hair1XMLID_4733_);stroke:#000000;stroke-linecap:round;stroke-linejoin:round;" d="M191.584,233.619c0,0,5.5,7.568,13.486,10.449c-6.22-0.623-11.083-2.075-15.096-6.533"></path></g></g></g><g><g><linearGradient id="hair1XMLID_4734_" gradientUnits="userSpaceOnUse" x1="290.2734" y1="247.665" x2="290.2734" y2="116.3321"><stop offset="0" style="stop-color:#FCFCE4"></stop><stop offset="0.5" style="stop-color:#A0C8DD"></stop><stop offset="1" style="stop-color:#5D6EC5"></stop></linearGradient><path style="fill:url(#hair1XMLID_4734_);stroke:#000000;stroke-linecap:round;stroke-linejoin:round;" d="M261.125,193.25c0,0,17.85,31.973,58.298,23.627c-9.513,0.629-25.345-10.447-25.345-10.447"></path><linearGradient id="hair1XMLID_4735_" gradientUnits="userSpaceOnUse" x1="309.9697" y1="247.665" x2="309.9697" y2="116.3322"><stop offset="0" style="stop-color:#FCFCE4"></stop><stop offset="0.5" style="stop-color:#A0C8DD"></stop><stop offset="1" style="stop-color:#5D6EC5"></stop></linearGradient><path style="fill:url(#hair1XMLID_4735_);stroke:#000000;stroke-linecap:round;stroke-linejoin:round;" d="M283.286,203.426c0,0,17.332,19.496,53.367,6.927C316.679,210.361,301.334,194,290,170"></path></g><g><linearGradient id="hair1XMLID_4736_" gradientUnits="userSpaceOnUse" x1="245.3428" y1="247.665" x2="245.3428" y2="116.332"><stop offset="0" style="stop-color:#FCFCE4"></stop><stop offset="0.5" style="stop-color:#A0C8DD"></stop><stop offset="1" style="stop-color:#5D6EC5"></stop></linearGradient><path style="fill:url(#hair1XMLID_4736_);stroke:#000000;stroke-linecap:round;stroke-linejoin:round;" d="M242.373,211.551c0,0,6.293,10.449-2.707,15.699c10-0.5,13.259-8.495,10.306-15.972C245.223,210.265,242.373,211.551,242.373,211.551z"></path><linearGradient id="hair1XMLID_4737_" gradientUnits="userSpaceOnUse" x1="195.0005" y1="247.665" x2="195.0005" y2="116.3319"><stop offset="0" style="stop-color:#FCFCE4"></stop><stop offset="0.5" style="stop-color:#A0C8DD"></stop><stop offset="1" style="stop-color:#5D6EC5"></stop></linearGradient><path style="fill:url(#hair1XMLID_4737_);stroke:#000000;stroke-linecap:round;stroke-linejoin:round;" d="M219.333,193.667c0,0-8.333,26.833-31.083,28.583c8-3.5,11.083-7.917,11.083-7.917S186.667,224.75,170.667,214c14-1.75,20.833-11,25.583-22"></path><linearGradient id="hair1XMLID_4738_" gradientUnits="userSpaceOnUse" x1="196.5005" y1="247.665" x2="196.5005" y2="116.332"><stop offset="0" style="stop-color:#FCFCE4"></stop><stop offset="0.5" style="stop-color:#A0C8DD"></stop><stop offset="1" style="stop-color:#5D6EC5"></stop></linearGradient><path style="fill:url(#hair1XMLID_4738_);stroke:#000000;stroke-linecap:round;stroke-linejoin:round;" d="M200.06,183.808c0,0-4.53,14.56-14.56,18.442c11-1.294,18.442-6.471,22.001-13.265"></path><linearGradient id="hair1XMLID_4739_" gradientUnits="userSpaceOnUse" x1="223.4956" y1="247.665" x2="223.4956" y2="116.332"><stop offset="0" style="stop-color:#FCFCE4"></stop><stop offset="0.5" style="stop-color:#A0C8DD"></stop><stop offset="1" style="stop-color:#5D6EC5"></stop></linearGradient><path style="fill:url(#hair1XMLID_4739_);stroke:#000000;stroke-linecap:round;stroke-linejoin:round;" d="M225.083,186.167c0,0-2.25,18.5,5.583,32.167c-5.75-4-14.667-15.667-14.333-34.333"></path><linearGradient id="hair1XMLID_4740_" gradientUnits="userSpaceOnUse" x1="244.3472" y1="247.665" x2="244.3472" y2="116.3322"><stop offset="0" style="stop-color:#FCFCE4"></stop><stop offset="0.5" style="stop-color:#A0C8DD"></stop><stop offset="1" style="stop-color:#5D6EC5"></stop></linearGradient><path style="fill:url(#hair1XMLID_4740_);stroke:#000000;stroke-linecap:round;stroke-linejoin:round;" d="M221.667,180.75c0,0,0.5,25,21.5,35c14.875,11.625,10.125,25.125,10.125,25.125s10.938-12.959,5.043-32.542c4.75,6.25,4.313,17.193,4.313,17.193s15.687-27.527-12.314-62.193"></path><path style="fill:none;stroke:#000000;stroke-linecap:round;stroke-linejoin:round;" d="M244.417,216.75c0,0-9.25-10-10.5-25"></path></g></g><linearGradient id="hair1XMLID_4741_" gradientUnits="userSpaceOnUse" x1="258.5703" y1="247.665" x2="258.5703" y2="116.3323"><stop offset="0" style="stop-color:#FCFCE4"></stop><stop offset="0.5" style="stop-color:#A0C8DD"></stop><stop offset="1" style="stop-color:#5D6EC5"></stop></linearGradient><path style="fill:url(#hair1XMLID_4741_);stroke:#000000;stroke-linecap:round;stroke-linejoin:round;" d="M242.5,127.25c-10.75,15.5-18.417,45.917-14.167,51.417C240.667,199.667,290,202,290,202s-45.667-13-48.25-26.25C235.333,166,242.5,127.25,242.5,127.25z"></path><g><linearGradient id="hair1XMLID_4742_" gradientUnits="userSpaceOnUse" x1="217.6602" y1="247.6655" x2="217.6602" y2="116.3328"><stop offset="0" style="stop-color:#FCFCE4"></stop><stop offset="0.5" style="stop-color:#A0C8DD"></stop><stop offset="1" style="stop-color:#5D6EC5"></stop></linearGradient><path style="fill:url(#hair1XMLID_4742_);stroke:#000000;stroke-linecap:round;stroke-linejoin:round;" d="M246.37,121.837c0,0-13.12-5.587-31.87,7.663c-15.971,11.287-24.167,31.167-21.833,46.167C177.5,141.5,211.5,105,245,119.667"></path></g><path style="fill:none;stroke:#000000;stroke-linecap:round;stroke-linejoin:round;" d="M254.5,117.5c0,0,28.75-9.5,40.75,16.25"></path></g><g><path style="fill:#FFF0DE;" d="M179.507,180.757c0,0,5.335-10.679,7.472-11.21c2.136-0.534-0.744,17.4-3.738,16.547C180.44,185.294,178.439,183.293,179.507,180.757z"></path><path style="fill:#FFF0DE;" d="M187.177,185.023c0,0,0.411-6.983,2.67-8.538c2.259-1.557,1.602,10.673,0,10.673C188.245,187.159,187.177,187.694,187.177,185.023z"></path><g><g><path style="fill:#FFF0DE;" d="M318.063,180.753c0,0-5.337-10.675-7.472-11.207c-2.134-0.534,0.743,17.4,3.734,16.547C317.129,185.293,319.131,183.293,318.063,180.753z"></path><path style="fill:#FFF0DE;" d="M310.665,185.024c0,0-0.411-6.984-2.672-8.541c-2.26-1.555-1.6,10.676,0,10.676C309.597,187.159,310.665,187.694,310.665,185.024z"></path></g></g></g></g></g></svg>