<svg xmlns="http://www.w3.org/2000/svg" width="500" height="500" version="1.1"><g id="x9281"><g><g><g><g><linearGradient id="hair1XMLID_4771_" gradientUnits="userSpaceOnUse" x1="250" y1="108" x2="250" y2="277.3334"><stop offset="0" style="stop-color:#FCFCE4"></stop><stop offset="0.5" style="stop-color:#A0C8DD"></stop><stop offset="1" style="stop-color:#5D6EC5"></stop></linearGradient><path style="fill:url(#hair1XMLID_4771_);stroke:#000000;stroke-linecap:round;stroke-linejoin:round;" d="M334.469,181.962c-1.02-14.462-10.765-32.675-23.785-46.08c-32.184-33.132-74.728-19.174-74.934-19.132c-0.16,0.019-24.464-5.132-47.5,19c-13.266,13.118-22.301,32.75-22.718,47.212c0,32.694,13.666,51.104,14.227,52.325c0,0-5.229-21.928,5.742-24.67c4.113-0.686,9.78-33.574,16.455-44.566c1.829-2.195,24.358-4.665,47.994-4.677c0.54,0,1.08,0.003,1.619,0.006c23.033,0.12,44.586,2.526,46.373,4.671c6.674,10.992,10.895,52.597,15.008,53.283c10.971,2.742,5.092,16.555,5.092,16.555C318.602,234.667,334.469,211.65,334.469,181.962z"></path><linearGradient id="hair1XMLID_4772_" gradientUnits="userSpaceOnUse" x1="175.5" y1="108" x2="175.5" y2="277.3329"><stop offset="0" style="stop-color:#FCFCE4"></stop><stop offset="0.5" style="stop-color:#A0C8DD"></stop><stop offset="1" style="stop-color:#5D6EC5"></stop></linearGradient><path style="fill:url(#hair1XMLID_4772_);stroke:#000000;stroke-linecap:round;stroke-linejoin:round;" d="M186.5,138.4c0,0-17.25,10.5-22,30.75c9-13.9,21.25-22.25,21.25-22.25"></path><linearGradient id="hair1XMLID_4773_" gradientUnits="userSpaceOnUse" x1="167.5425" y1="108" x2="167.5425" y2="277.3331"><stop offset="0" style="stop-color:#FCFCE4"></stop><stop offset="0.5" style="stop-color:#A0C8DD"></stop><stop offset="1" style="stop-color:#5D6EC5"></stop></linearGradient><path style="fill:url(#hair1XMLID_4773_);stroke:#000000;stroke-linecap:round;stroke-linejoin:round;" d="M167.5,171.5c0,0-9,16.5-2,43c-2-22.25,6.75-37.5,6.75-37.5"></path><linearGradient id="hair1XMLID_4774_" gradientUnits="userSpaceOnUse" x1="170.5" y1="108" x2="170.5" y2="277.3329"><stop offset="0" style="stop-color:#FCFCE4"></stop><stop offset="0.5" style="stop-color:#A0C8DD"></stop><stop offset="1" style="stop-color:#5D6EC5"></stop></linearGradient><path style="fill:url(#hair1XMLID_4774_);stroke:#000000;stroke-linecap:round;stroke-linejoin:round;" d="M177.5,218.25c0,0-2.5,14.5-14,18c6.5-6.25,9.25-24.5,8-29.5"></path><linearGradient id="hair1XMLID_4775_" gradientUnits="userSpaceOnUse" x1="292.375" y1="108" x2="292.375" y2="277.3333"><stop offset="0" style="stop-color:#FCFCE4"></stop><stop offset="0.5" style="stop-color:#A0C8DD"></stop><stop offset="1" style="stop-color:#5D6EC5"></stop></linearGradient><path style="fill:url(#hair1XMLID_4775_);stroke:#000000;stroke-linecap:round;stroke-linejoin:round;" d="M279.5,117c0,0,13,4.5,25.75,2.5c-6,4.75-8.5,7.25-18,6.25"></path><linearGradient id="hair1XMLID_4776_" gradientUnits="userSpaceOnUse" x1="320.4512" y1="108" x2="320.4512" y2="277.333"><stop offset="0" style="stop-color:#FCFCE4"></stop><stop offset="0.5" style="stop-color:#A0C8DD"></stop><stop offset="1" style="stop-color:#5D6EC5"></stop></linearGradient><path style="fill:url(#hair1XMLID_4776_);stroke:#000000;stroke-linecap:round;stroke-linejoin:round;" d="M307.701,132.75c0,0,19,11.5,25.5,28.25c-6.5-6.75-15.25-12.25-15.25-12.25"></path><linearGradient id="hair1XMLID_4777_" gradientUnits="userSpaceOnUse" x1="333.665" y1="108" x2="333.665" y2="277.3329"><stop offset="0" style="stop-color:#FCFCE4"></stop><stop offset="0.5" style="stop-color:#A0C8DD"></stop><stop offset="1" style="stop-color:#5D6EC5"></stop></linearGradient><path style="fill:url(#hair1XMLID_4777_);stroke:#000000;stroke-linecap:round;stroke-linejoin:round;" d="M330.852,187.5c0,0,4,14.5,2.75,24.75c5.25-12.5,2-30,0.5-34.75"></path><linearGradient id="hair1XMLID_4778_" gradientUnits="userSpaceOnUse" x1="318.75" y1="108" x2="318.75" y2="277.333"><stop offset="0" style="stop-color:#FCFCE4"></stop><stop offset="0.5" style="stop-color:#A0C8DD"></stop><stop offset="1" style="stop-color:#5D6EC5"></stop></linearGradient><path style="fill:url(#hair1XMLID_4778_);stroke:#000000;stroke-linecap:round;stroke-linejoin:round;" d="M311.75,229.75c0,0.75,2.75,15.75,14,17.75c-9-11.25-7.5-28.5-7.5-28.5"></path><linearGradient id="hair1XMLID_4779_" gradientUnits="userSpaceOnUse" x1="321" y1="108" x2="321" y2="277.333"><stop offset="0" style="stop-color:#FCFCE4"></stop><stop offset="0.5" style="stop-color:#A0C8DD"></stop><stop offset="1" style="stop-color:#5D6EC5"></stop></linearGradient><path style="fill:url(#hair1XMLID_4779_);stroke:#000000;stroke-linecap:round;stroke-linejoin:round;" d="M315.25,225.75c0,0,2.25,10.5,11.5,10.5C321.75,230.5,321,218,321,218"></path></g></g><g><g><linearGradient id="hair1XMLID_4780_" gradientUnits="userSpaceOnUse" x1="183.25" y1="108" x2="183.25" y2="277.3332"><stop offset="0" style="stop-color:#FCFCE4"></stop><stop offset="0.5" style="stop-color:#A0C8DD"></stop><stop offset="1" style="stop-color:#5D6EC5"></stop></linearGradient><path style="fill:url(#hair1XMLID_4780_);stroke:#000000;stroke-linecap:round;stroke-linejoin:round;" d="M188,229.5c-0.25,1-1.5,21.25-8,28c1-15-1.5-27-1.5-27l1.5-18.25"></path><linearGradient id="hair1XMLID_4781_" gradientUnits="userSpaceOnUse" x1="197.9751" y1="108" x2="197.9751" y2="277.3334"><stop offset="0" style="stop-color:#FCFCE4"></stop><stop offset="0.5" style="stop-color:#A0C8DD"></stop><stop offset="1" style="stop-color:#5D6EC5"></stop></linearGradient><path style="fill:url(#hair1XMLID_4781_);stroke:#000000;stroke-linecap:round;stroke-linejoin:round;" d="M188.13,155.558c-1.372,1.6-20.116,41.831-9.372,90.518c0.359-11.353,2.278-20.7,4.029-27.042c2.613,10.761,7.911,21.342,17.914,32.529c-1.479-4.25-2.66-12.389-3.541-20.576c1.573-11.833,3.089-32.486,3.089-32.486s0.25,15.5,5.25,21.5c-3.25-21,15-60.75,15-60.75"></path><linearGradient id="hair1XMLID_4782_" gradientUnits="userSpaceOnUse" x1="191.6733" y1="108" x2="191.6733" y2="277.333"><stop offset="0" style="stop-color:#FCFCE4"></stop><stop offset="0.5" style="stop-color:#A0C8DD"></stop><stop offset="1" style="stop-color:#5D6EC5"></stop></linearGradient><path style="fill:url(#hair1XMLID_4782_);stroke:#000000;stroke-linecap:round;stroke-linejoin:round;" d="M196.588,215.217c0,0,2.058,30.174,5.486,38.86c-11.201-9.144-18.516-22.401-20.802-38.402"></path></g><linearGradient id="hair1XMLID_4783_" gradientUnits="userSpaceOnUse" x1="264.2656" y1="108" x2="264.2656" y2="277.3333"><stop offset="0" style="stop-color:#FCFCE4"></stop><stop offset="0.5" style="stop-color:#A0C8DD"></stop><stop offset="1" style="stop-color:#5D6EC5"></stop></linearGradient><path style="fill:url(#hair1XMLID_4783_);stroke:#000000;stroke-linecap:round;stroke-linejoin:round;" d="M216.703,156.701c0,0.686-5.203,37.049,17.601,61.717c-2.514-10.287-5.486-22.858-5.486-22.858s5.433,25.94,30.933,36.69c-6.39-8.312-14.017-18.404-14.017-18.404s14.857,19.659,29.944,27.43c-9.144-17.829-15.544-42.745-15.544-42.745s7.088,13.256,17.831,20.343c-4.574-10.286-10.516-22.857-10.516-22.857s24.687,21.487,30.173,28.801c-4.114-18.744-12.115-43.202-15.544-50.289c8.229,13.486,23.545,48.689,26.059,56.461c4.802-18.059,7.543-62.404-3.429-82.52"></path><g><path style="fill:none;stroke:#000000;stroke-linecap:round;stroke-linejoin:round;" d="M218.75,148.5c0,0,2.25-11.25,8.75-18.75"></path><path style="fill:none;stroke:#000000;stroke-linecap:round;stroke-linejoin:round;" d="M193.25,146.25c1-2.25,10-15.75,31.25-21.75"></path><path style="fill:none;stroke:#000000;stroke-linecap:round;stroke-linejoin:round;" d="M244.25,124.75c0,0,19,8,30.75,28.75"></path></g><linearGradient id="hair1XMLID_4784_" gradientUnits="userSpaceOnUse" x1="312.9355" y1="108" x2="312.9355" y2="277.3329"><stop offset="0" style="stop-color:#FCFCE4"></stop><stop offset="0.5" style="stop-color:#A0C8DD"></stop><stop offset="1" style="stop-color:#5D6EC5"></stop></linearGradient><path style="fill:url(#hair1XMLID_4784_);stroke:#000000;stroke-linecap:round;stroke-linejoin:round;" d="M312.707,201.503c-2.058,7.313-6.17,24.458-14.628,32.458c9.601-4.571,12.114-9.829,12.114-9.829s-5.027,15.087-9.372,21.03c12.572-6.63,25.601-27.887,26.972-58.518"></path></g><g><linearGradient id="hair1XMLID_4785_" gradientUnits="userSpaceOnUse" x1="244.2495" y1="108" x2="244.2495" y2="277.333"><stop offset="0" style="stop-color:#FCFCE4"></stop><stop offset="0.5" style="stop-color:#A0C8DD"></stop><stop offset="1" style="stop-color:#5D6EC5"></stop></linearGradient><path style="fill:url(#hair1XMLID_4785_);stroke:#000000;stroke-linecap:round;stroke-linejoin:round;" d="M232.75,118.25c0,0-5.75-6.75-5.75-8.75s16.75-12.25,34.5-11c-8.5,2.25-22.25,12.25-25,21"></path><linearGradient id="hair1XMLID_4786_" gradientUnits="userSpaceOnUse" x1="213.625" y1="108" x2="213.625" y2="277.3325"><stop offset="0" style="stop-color:#FCFCE4"></stop><stop offset="0.5" style="stop-color:#A0C8DD"></stop><stop offset="1" style="stop-color:#5D6EC5"></stop></linearGradient><path style="fill:url(#hair1XMLID_4786_);stroke:#000000;stroke-linecap:round;stroke-linejoin:round;" d="M232,117.5c0,0-8.75-7.5-11.5-8s-13.75-0.5-25.25,12.25c13.5-6.25,34.75-3.5,35.25-2"></path></g></g><g><path style="fill:#FFF0DE;" d="M169.008,180.757c0,0,5.335-10.679,7.472-11.21c2.136-0.534-0.744,17.4-3.738,16.547C169.941,185.294,167.939,183.293,169.008,180.757z"></path><path style="fill:#FFF0DE;" d="M176.678,185.023c0,0,0.411-6.983,2.67-8.538c2.259-1.557,1.602,10.673,0,10.673C177.746,187.159,176.678,187.694,176.678,185.023z"></path><g><g><path style="fill:#FFF0DE;" d="M330.313,180.753c0,0-5.337-10.675-7.472-11.207c-2.134-0.534,0.743,17.4,3.734,16.547C329.379,185.293,331.381,183.293,330.313,180.753z"></path><path style="fill:#FFF0DE;" d="M322.915,185.024c0,0-0.411-6.984-2.672-8.541c-2.26-1.555-1.6,10.676,0,10.676C321.847,187.159,322.915,187.694,322.915,185.024z"></path><path style="fill:#FFF0DE;" d="M245.198,184.165c0,0,0-10.41,2.403-13.211c2.399-2.802,5.522,13.451,2.803,14.811C248.001,186.967,245.198,186.967,245.198,184.165z"></path><path style="fill:#FFF0DE;" d="M254.675,185.165c-1.606-2.003,0-9.208,0.799-10.41c0.801-1.201,4.002,9.207,2.402,11.208C255.812,188.542,256.274,187.165,254.675,185.165z"></path></g></g></g></g></g></svg>