<svg xmlns="http://www.w3.org/2000/svg" width="500" height="500" version="1.1"><g id="x057"><g><linearGradient id="hair1XMLID_2845_" gradientUnits="userSpaceOnUse" x1="250.0005" y1="246" x2="250.0005" y2="165"><stop offset="0" style="stop-color:#FCFCE4"></stop><stop offset="0.5" style="stop-color:#A0C8DD"></stop><stop offset="1" style="stop-color:#5D6EC5"></stop></linearGradient><path style="fill:url(#hair1XMLID_2845_);stroke:#1E1E1E;stroke-linecap:round;stroke-linejoin:round;" d="M311.484,135.882c-17.021-17.418-41.603-23.852-61.484-20.131c-19.882-3.721-44.464,2.713-61.484,20.131c-13.061,13.365-22.283,30.165-22.283,51.08c0,24.372,15.268,44.372,25.934,48.538c-7.33-33.49-0.484-59.331,5.084-68.5c1.798-2.157,29.369-5.491,52.75-5.619c23.381,0.128,50.952,3.462,52.75,5.619c5.568,9.169,12.414,35.01,5.084,68.5c10.666-4.167,25.934-24.167,25.934-48.538C333.768,166.047,324.545,149.248,311.484,135.882z"></path><g><linearGradient id="hair1XMLID_2846_" gradientUnits="userSpaceOnUse" x1="195.8867" y1="246" x2="195.8867" y2="165.0001"><stop offset="0" style="stop-color:#FCFCE4"></stop><stop offset="0.5" style="stop-color:#A0C8DD"></stop><stop offset="1" style="stop-color:#5D6EC5"></stop></linearGradient><path style="fill:url(#hair1XMLID_2846_);stroke:#1E1E1E;stroke-linecap:round;stroke-linejoin:round;" d="M188.294,212.963c-0.447,2.68-6.254,48.24,25.013,62.533c-25.906-4.914-33.946-20.547-34.84-54.939"></path><g><g><linearGradient id="hair1XMLID_2847_" gradientUnits="userSpaceOnUse" x1="320.3496" y1="246" x2="320.3496" y2="165"><stop offset="0" style="stop-color:#FCFCE4"></stop><stop offset="0.5" style="stop-color:#A0C8DD"></stop><stop offset="1" style="stop-color:#5D6EC5"></stop></linearGradient><path style="fill:url(#hair1XMLID_2847_);stroke:#1E1E1E;stroke-linecap:round;stroke-linejoin:round;" d="M305.007,150.876c0,1.34,31.267,37.52,26.8,92.013c14.293-37.521,3.126-82.187-29.033-104.073"></path><linearGradient id="hair1XMLID_2848_" gradientUnits="userSpaceOnUse" x1="305.0977" y1="246" x2="305.0977" y2="165.0001"><stop offset="0" style="stop-color:#FCFCE4"></stop><stop offset="0.5" style="stop-color:#A0C8DD"></stop><stop offset="1" style="stop-color:#5D6EC5"></stop></linearGradient><path style="fill:url(#hair1XMLID_2848_);stroke:#1E1E1E;stroke-linecap:round;stroke-linejoin:round;" d="M312.69,212.963c0.446,2.68,6.254,48.24-25.014,62.533c25.907-4.914,33.947-20.547,34.841-54.939"></path><linearGradient id="hair1XMLID_2849_" gradientUnits="userSpaceOnUse" x1="302.8125" y1="246" x2="302.8125" y2="165"><stop offset="0" style="stop-color:#FCFCE4"></stop><stop offset="0.5" style="stop-color:#A0C8DD"></stop><stop offset="1" style="stop-color:#5D6EC5"></stop></linearGradient><path style="fill:url(#hair1XMLID_2849_);stroke:#1E1E1E;stroke-linecap:round;stroke-linejoin:round;" d="M278.653,163.383c0,0,36.18,28.14,30.373,110.773c28.141-40.646,20.993-90.227-6.253-125.96"></path></g><g><linearGradient id="hair1XMLID_2850_" gradientUnits="userSpaceOnUse" x1="179.6499" y1="246" x2="179.6499" y2="165"><stop offset="0" style="stop-color:#FCFCE4"></stop><stop offset="0.5" style="stop-color:#A0C8DD"></stop><stop offset="1" style="stop-color:#5D6EC5"></stop></linearGradient><path style="fill:url(#hair1XMLID_2850_);stroke:#1E1E1E;stroke-linecap:round;stroke-linejoin:round;" d="M194.993,150.876c0,1.34-31.267,37.52-26.8,92.013c-14.293-37.521-3.126-82.187,29.034-104.073"></path><linearGradient id="hair1XMLID_2851_" gradientUnits="userSpaceOnUse" x1="197.188" y1="246" x2="197.188" y2="165"><stop offset="0" style="stop-color:#FCFCE4"></stop><stop offset="0.5" style="stop-color:#A0C8DD"></stop><stop offset="1" style="stop-color:#5D6EC5"></stop></linearGradient><path style="fill:url(#hair1XMLID_2851_);stroke:#1E1E1E;stroke-linecap:round;stroke-linejoin:round;" d="M221.347,163.383c0,0-36.18,28.14-30.373,110.773c-28.141-40.646-20.993-90.227,6.254-125.96"></path></g></g><g><g><linearGradient id="hair1XMLID_2852_" gradientUnits="userSpaceOnUse" x1="250.353" y1="246" x2="250.353" y2="164.9997"><stop offset="0" style="stop-color:#FCFCE4"></stop><stop offset="0.5" style="stop-color:#A0C8DD"></stop><stop offset="1" style="stop-color:#5D6EC5"></stop></linearGradient><path style="fill:url(#hair1XMLID_2852_);stroke:#1E1E1E;stroke-linecap:round;stroke-linejoin:round;" d="M282.485,103.083c-5.807,0.447-11.613,4.913-11.613,4.913s-4.968-8.933-10.273-8.933s-8.486,5.36-8.486,5.36h-3.519c0,0-5.36-5.36-8.486-5.36c-3.127,0-10.274,8.933-10.274,8.933s-5.806-4.466-11.612-4.913c-4.914,0.894-12.508,12.06-11.613,32.16c0.893,20.1,10.272,29.48,13.846,32.606c2.681,1.34,8.487,2.68,16.527,5.807c4.913,4.467,21.831,4.467,26.745,0c8.04-3.127,13.847-4.467,16.526-5.807c3.573-3.126,12.953-12.506,13.847-32.606S287.398,103.977,282.485,103.083z"></path><path style="fill:none;stroke:#1E1E1E;stroke-linecap:round;stroke-linejoin:round;" d="M248.147,176.783c0,0-8.041-7.594-6.254-28.14"></path><path style="fill:none;stroke:#1E1E1E;stroke-linecap:round;stroke-linejoin:round;" d="M219.113,137.03c0,1.34-3.126,25.906,19.207,36.626"></path><path style="fill:none;stroke:#1E1E1E;stroke-linecap:round;stroke-linejoin:round;" d="M281.497,137.03c0,1.34,3.126,25.906-19.207,36.626"></path></g></g></g></g><path style="fill:#FFF0DE;" d="M318.41,181.536c0,0-5.853-11.712-8.195-12.295c-2.343-0.585,0.816,19.084,4.1,18.149C317.387,186.513,319.581,184.318,318.41,181.536z"></path><path style="fill:#FFF0DE;" d="M310.297,186.217c0,0-0.451-7.659-2.93-9.365c-2.478-1.707-1.756,11.708,0,11.708C309.125,188.56,310.297,189.145,310.297,186.217z"></path><g><g><path style="fill:#FFF0DE;" d="M181.422,181.536c0,0,5.852-11.712,8.195-12.295c2.342-0.585-0.816,19.084-4.1,18.149C182.446,186.513,180.251,184.318,181.422,181.536z"></path><path style="fill:#FFF0DE;" d="M189.536,186.217c0,0,0.45-7.659,2.929-9.365c2.478-1.707,1.757,11.708,0,11.708C190.707,188.56,189.536,189.145,189.536,186.217z"></path></g><path style="fill:#FFF0DE;" d="M242.828,142.97c0,0,0-11.417,2.635-14.489c2.631-3.074,6.058,14.753,3.074,16.245C245.901,146.044,242.828,146.044,242.828,142.97z"></path><path style="fill:#FFF0DE;" d="M252.489,142.97c-1.761-2.196,0-10.1,0.876-11.417c0.879-1.317,4.391,10.098,2.635,12.294C253.736,146.676,254.244,145.165,252.489,142.97z"></path></g></g></svg>