<svg xmlns="http://www.w3.org/2000/svg" width="500" height="500" version="1.1"><g id="a9015"><g><g><path style="fill:#FEFDFA;stroke:#000000;stroke-linecap:round;stroke-linejoin:round;" d="M315.333,356.667l-6-4.334c0,0,3.334-7.666,2.667-9.666s-18-21.334-18-21.334s-9-20.666-16-29.666s-18.333-11.334-18.333-11.334s0.958,11.292-9.667,11.292s-9.667-11.292-9.667-11.292S229,282.667,222,291.667s-16,29.666-16,29.666s-17.333,19.334-18,21.334s2.667,9.666,2.667,9.666l-6,4.334c2,3.333,6.667,5,6.667,5S190,364,190.667,365s5.333,2.667,7.333,3c1-1.667,1.667-2.333,2.667-2.333s3.667,0,3.667,0l1,3c0,0,8.667-2.668,10-4.334c-2-5.333-2-11.333-2-11.333l24-50L250,299.333L262.667,303l24,50c0,0,0,6-2,11.333c1.333,1.666,10,4.334,10,4.334l1-3c0,0,2.666,0,3.666,0S301,366.333,302,368c2-0.333,6.667-2,7.333-3s-0.666-3.333-0.666-3.333S313.333,360,315.333,356.667z"></path><g><g><g><g><path style="fill:#E4E0F3;" d="M248.313,292.334v6.333l0,0c0,0.276,0.224,0.5,0.5,0.5s0.5-0.224,0.5-0.5l0,0v-6.333l0,0c0-0.276-0.224-0.5-0.5-0.5S248.313,292.058,248.313,292.334L248.313,292.334z"></path></g></g><g><g><path style="fill:#E4E0F3;" d="M245.813,292.334v6.333l0,0c0,0.276,0.224,0.5,0.5,0.5s0.5-0.224,0.5-0.5l0,0v-6.333l0,0c0-0.276-0.224-0.5-0.5-0.5S245.813,292.058,245.813,292.334L245.813,292.334z"></path></g></g><g><g><path style="fill:#E4E0F3;" d="M243.313,292.334v6.333l0,0c0,0.276,0.224,0.5,0.5,0.5s0.5-0.224,0.5-0.5l0,0v-6.333l0,0c0-0.276-0.224-0.5-0.5-0.5S243.313,292.058,243.313,292.334L243.313,292.334z"></path></g></g><g><g><path style="fill:#E4E0F3;" d="M240.813,292.334v6.333l0,0c0,0.276,0.224,0.5,0.5,0.5s0.5-0.224,0.5-0.5l0,0v-6.333l0,0c0-0.276-0.224-0.5-0.5-0.5S240.813,292.058,240.813,292.334L240.813,292.334z"></path></g></g><g><g><path style="fill:#E4E0F3;" d="M238.313,292.334v6.333l0,0c0,0.276,0.224,0.5,0.5,0.5s0.5-0.224,0.5-0.5l0,0v-6.333l0,0c0-0.276-0.224-0.5-0.5-0.5S238.313,292.058,238.313,292.334L238.313,292.334z"></path></g></g></g><g><g><g><path style="fill:#E4E0F3;" d="M260.688,292.334v6.333l0,0c0,0.276,0.224,0.5,0.5,0.5s0.5-0.224,0.5-0.5l0,0v-6.333l0,0c0-0.276-0.224-0.5-0.5-0.5S260.688,292.058,260.688,292.334L260.688,292.334z"></path></g></g><g><g><path style="fill:#E4E0F3;" d="M258.188,292.334v6.333l0,0c0,0.276,0.224,0.5,0.5,0.5s0.5-0.224,0.5-0.5l0,0v-6.333l0,0c0-0.276-0.224-0.5-0.5-0.5S258.188,292.058,258.188,292.334L258.188,292.334z"></path></g></g><g><g><path style="fill:#E4E0F3;" d="M255.688,292.334v6.333l0,0c0,0.276,0.224,0.5,0.5,0.5s0.5-0.224,0.5-0.5l0,0v-6.333l0,0c0-0.276-0.224-0.5-0.5-0.5S255.688,292.058,255.688,292.334L255.688,292.334z"></path></g></g><g><g><path style="fill:#E4E0F3;" d="M253.188,292.334v6.333l0,0c0,0.276,0.224,0.5,0.5,0.5s0.5-0.224,0.5-0.5l0,0v-6.333l0,0c0-0.276-0.224-0.5-0.5-0.5S253.188,292.058,253.188,292.334L253.188,292.334z"></path></g></g><g><g><path style="fill:#E4E0F3;" d="M250.688,292.334v6.333l0,0c0,0.276,0.224,0.5,0.5,0.5s0.5-0.224,0.5-0.5l0,0v-6.333l0,0c0-0.276-0.224-0.5-0.5-0.5S250.688,292.058,250.688,292.334L250.688,292.334z"></path></g></g></g></g><path style="fill:#D9D9CF;" d="M200.25,349c-6.625-4.375-8.282-9.772-7.7-11.475c-1.25,1.25-4.049,5.143-4.027,5.275c0.003,0.911,0.152,4.129,2.477,9.324c-0.438,0.688-0.563,0.938-0.563,0.938l-5.125,3.688c0,0,2.438,3.25,4.75,3.813c2.313-2.75,3.375-4.938,3.375-4.938s5.313,4.25,8.75,4.25c-1.25,2.188-2.875,5.75-2.875,5.75s2.563-0.688,5.5-0.375c2.25-2.438,3.5-5.375,3.5-5.375s5-5.813,5.063-6C213.408,353.775,209.75,354.125,200.25,349z"></path><path style="fill:#D9D9CF;" d="M193.813,366.125c0,0,2.813,1.188,3.125,1.188c0.25-1.938,2.188-8,1.625-8.5S193.813,366.125,193.813,366.125z"></path><path style="fill:#D9D9CF;" d="M299.836,349c6.625-4.375,8.281-9.772,7.7-11.475c1.25,1.25,4.05,5.143,4.026,5.275c-0.003,0.911-0.151,4.129-2.477,9.324c0.438,0.688,0.563,0.938,0.563,0.938l5.125,3.688c0,0-2.438,3.25-4.75,3.813c-2.313-2.75-3.375-4.938-3.375-4.938s-5.313,4.25-8.75,4.25c1.25,2.188,2.875,5.75,2.875,5.75s-2.563-0.688-5.5-0.375c-2.25-2.438-3.5-5.375-3.5-5.375s-5-5.813-5.063-6C286.678,353.775,290.336,354.125,299.836,349z"></path><g><g><path style="fill:none;stroke:#000000;stroke-linecap:round;stroke-linejoin:round;" d="M190.701,352.333c0,0,1.333,2.001,4,4.334"></path><path style="fill:none;stroke:#000000;stroke-linecap:round;stroke-linejoin:round;" d="M203.034,360c0,0,3.333,0.666,6.333-0.667"></path></g><g><path style="fill:none;stroke:#000000;stroke-linecap:round;stroke-linejoin:round;" d="M309.301,352.333c0,0-1.334,2.001-4,4.334"></path><path style="fill:none;stroke:#000000;stroke-linecap:round;stroke-linejoin:round;" d="M296.968,360c0,0-3.333,0.666-6.333-0.667"></path></g></g><path style="fill:#D9D9CF;" d="M306.273,366.125c0,0-2.813,1.188-3.125,1.188c-0.25-1.938-2.188-8-1.625-8.5S306.273,366.125,306.273,366.125z"></path><g><g><path style="fill:#D9D9CF;" d="M218.23,347.333c0,0-0.033-0.353-0.081-0.973c-0.294-3.81-1.166-17.727,1.414-22.027c3-5,14.333-8.333,14.333-8.333l-5.667,17.666"></path></g></g><path style="fill:#D9D9CF;" d="M281.77,347.333c0,0,0.032-0.353,0.081-0.973c0.294-3.81,1.166-17.727-1.414-22.027c-3-5-14.334-8.333-14.334-8.333l5.667,17.666"></path><g><path style="fill:none;stroke:#000000;stroke-linecap:round;stroke-linejoin:round;" d="M216.334,325.666c0,0,3.333,6.334,7.666,8.667"></path></g><path style="fill:none;stroke:#000000;stroke-linecap:round;stroke-linejoin:round;" d="M283.666,325.666c0,0-3.333,6.334-7.666,8.667"></path><g><path style="fill:none;stroke:#000000;stroke-linecap:round;stroke-linejoin:round;" d="M228.833,296.667c0,0-2-5.333-2.333-9.333"></path><path style="fill:none;stroke:#000000;stroke-linecap:round;stroke-linejoin:round;" d="M271.168,296.667c0,0,1.998-5.333,2.332-9.333"></path></g><g><path style="fill:#FEFDFA;stroke:#000000;stroke-linecap:round;stroke-linejoin:round;" d="M234.972,281.875c0,0,3.588-2.375,4.904-2.125c3.947,6.75,10.167,11.5,10.167,11.5s-8.134,5.75-12.918,1.25C232.34,288,234.972,281.875,234.972,281.875z"></path><path style="fill:#FEFDFA;stroke:#000000;stroke-linecap:round;stroke-linejoin:round;" d="M265.028,281.875c0,0-3.589-2.375-4.905-2.125c-3.946,6.75-10.169,11.5-10.169,11.5s8.137,5.75,12.921,1.25S265.028,281.875,265.028,281.875z"></path></g></g><g><path style="fill:#6E6E6E;stroke:#000000;stroke-linecap:round;stroke-linejoin:round;" d="M274.333,308.334C274,304.001,271,298.667,271,298.667s-8.248-1-20.937-1s-21.063,1-21.063,1s-3,5.334-3.333,9.667s0,11.333,0,11.333h48.666C274.333,319.667,274.666,312.667,274.333,308.334z"></path><g><path style="fill:#505050;" d="M226.264,318.523c0,0-0.625-7.898,0-9.523s4.25-2.75,5.75-3s4.25,1.25,4.25,1.25v11.25L226.264,318.523z"></path></g><path style="fill:#505050;" d="M273.736,318.523c0,0,0.625-7.898,0-9.523s-4.25-2.75-5.75-3s-4.25,1.25-4.25,1.25v11.25L273.736,318.523z"></path><g id="onepXMLID_8_"><g><path style="fill:#F7F7ED;" d="M263.25,298.17v22.16h-26.5v-22.16c0,0,3.69-0.42,13.31-0.42C259.69,297.75,263.25,298.17,263.25,298.17z"></path></g><g><g><rect x="238.75" y="298.041" style="fill:#6E6E6E;" width="1.25" height="21.66"></rect><rect x="241.167" y="298.041" style="fill:#6E6E6E;" width="1.25" height="21.66"></rect></g><g><rect x="257.584" y="298.041" style="fill:#6E6E6E;" width="1.25" height="21.66"></rect><rect x="260" y="298.041" style="fill:#6E6E6E;" width="1.25" height="21.66"></rect></g></g><g><path style="fill:none;stroke:#000000;stroke-linecap:round;stroke-linejoin:round;" d="M263.25,320.33h-26.5v-22.16c0,0,3.69-0.42,13.31-0.42c9.63,0,13.19,0.42,13.19,0.42V320.33z"></path></g></g><g><g><rect x="245.25" y="304.333" transform="matrix(0.8479 -0.5302 0.5302 0.8479 -123.6822 178.9581)" style="fill:#56554F;stroke:#000000;stroke-linecap:round;stroke-linejoin:round;" width="9.5" height="1.333"></rect><rect x="245.249" y="304.333" transform="matrix(-0.8479 -0.5302 0.5302 -0.8479 300.2467 696.1521)" style="fill:#56554F;stroke:#000000;stroke-linecap:round;stroke-linejoin:round;" width="9.5" height="1.333"></rect></g><g><rect x="245.25" y="313.333" transform="matrix(0.8479 -0.5302 0.5302 0.8479 -128.4542 180.3274)" style="fill:#56554F;stroke:#000000;stroke-linecap:round;stroke-linejoin:round;" width="9.5" height="1.333"></rect><rect x="245.249" y="313.333" transform="matrix(-0.8479 -0.5302 0.5302 -0.8479 295.4747 712.7828)" style="fill:#56554F;stroke:#000000;stroke-linecap:round;stroke-linejoin:round;" width="9.5" height="1.333"></rect></g></g><g><path style="fill:#6E6E6E;stroke:#000000;stroke-linecap:round;stroke-linejoin:round;" d="M236,298.167c0,0,0.999,2.166,1.833,3.333c2.333,0.334,5.667-1.333,5.667-1.333l-1.334-3.667C242.166,296.5,239,296,236,298.167z"></path><path style="fill:#6E6E6E;stroke:#000000;stroke-linecap:round;stroke-linejoin:round;" d="M264,298.167c0,0-1,2.166-1.833,3.333c-2.333,0.334-5.667-1.333-5.667-1.333l1.334-3.667C257.834,296.5,261,296,264,298.167z"></path></g></g><g><g><path style="fill:#F7F7ED;stroke:#000000;stroke-linecap:round;stroke-linejoin:round;" d="M273.18,323.707H226.82l-27.339,74.995l0.438,3.937l2.406-0.656c0,0,0.438,2.405,4.374,3.499c3.936,1.094,8.966-1.094,8.966-1.094s2.843,2.188,3.937,1.094c6.561,4.154,12.028,0.874,12.028,0.874s3.5,1.531,4.374,0.656c2.406,3.062,10.06,1.968,11.372,0.875c0.219,1.75,5.031,1.75,5.249,0c1.313,1.093,8.967,2.187,11.372-0.875c0.875,0.875,4.374-0.656,4.374-0.656s5.468,3.28,12.028-0.874c1.094,1.094,3.937-1.094,3.937-1.094s5.03,2.188,8.967,1.094s4.373-3.499,4.373-3.499l2.406,0.656l0.438-3.937L273.18,323.707z"></path><g><g><g><path style="fill:#D9D9CF;" d="M219.054,402.845c0.137,0.144,3.454,3.513,11.796,1.812l0,0c0.271-0.056,0.445-0.319,0.39-0.59s-0.319-0.445-0.59-0.391l0,0c-7.75,1.581-10.843-1.491-10.873-1.522l0.002,0.002c-0.19-0.2-0.507-0.208-0.707-0.018C218.872,402.328,218.864,402.645,219.054,402.845L219.054,402.845z"></path></g><g><path style="fill:#D9D9CF;" d="M235.313,404.753c0.219,0.142,5.451,3.441,11.944,1.049l0,0c0.259-0.095,0.392-0.383,0.296-0.642c-0.096-0.259-0.383-0.392-0.642-0.296l0,0c-6.03,2.221-11.006-0.919-11.056-0.951l0,0c-0.232-0.15-0.542-0.083-0.691,0.148C235.014,404.294,235.081,404.604,235.313,404.753L235.313,404.753z"></path></g></g><g><g><path style="fill:#D9D9CF;" d="M280.945,402.845c-0.137,0.144-3.453,3.513-11.795,1.812l0,0c-0.271-0.056-0.445-0.319-0.391-0.59s0.32-0.445,0.59-0.391l0,0c7.75,1.581,10.844-1.491,10.873-1.522l-0.002,0.002c0.189-0.2,0.508-0.208,0.707-0.018S281.137,402.645,280.945,402.845L280.945,402.845z"></path></g><g><path style="fill:#D9D9CF;" d="M264.688,404.753c-0.219,0.142-5.451,3.441-11.943,1.049l0,0c-0.26-0.095-0.393-0.383-0.297-0.642s0.383-0.392,0.643-0.296l0,0c6.029,2.221,11.006-0.919,11.055-0.951l0,0c0.232-0.15,0.543-0.083,0.691,0.148C264.986,404.294,264.92,404.604,264.688,404.753L264.688,404.753z"></path></g></g></g><path style="fill:#D9D9CF;" d="M268.378,330h-36.756L219,394.94c0.961,4.621,12.736,9.485,18.264,3.405c4.085,5.351,12.736,4.621,12.736,4.621s8.651,0.729,12.736-4.621c5.527,6.08,17.303,1.216,18.264-3.405L268.378,330z"></path><g><g><path style="fill:#F7F7ED;stroke:#000000;stroke-linecap:round;stroke-linejoin:round;" d="M268.378,325h-36.756L219,389.94c0.961,4.621,12.736,9.485,18.264,3.405c4.085,5.351,12.736,4.621,12.736,4.621s8.651,0.729,12.736-4.621c5.527,6.08,17.303,1.216,18.264-3.405L268.378,325z"></path><path style="fill:#D9D9CF;" d="M268,321.5h-36l-3.5,22c0,0,0.875-5.5,21.5-5.5s21.5,5.5,21.5,5.5L268,321.5z"></path></g><g style="opacity:0.3;"><path d="M241.788,368.74c0,0-0.124,2.847,0.247,3.672c-0.619-0.084-1.567-0.537-1.732,0.164c-0.66,0.495-3.135,1.65-3.877,2.517c-0.33,0.907-1.649,2.351-0.948,4.496s1.402,2.641,1.939,2.929c0.536,0.289,0.659,0.66,0.659,0.66s1.815,0.041,2.475,0.33s0.99,0.619,1.238,0.619c0.247,0,2.64-1.526,2.887-2.104c0.247-0.577,0.042-2.64-0.33-2.805c-0.372-0.164-0.825,0.207-0.743,0.371c0.083,0.165-0.866,0.619-0.866,0.619s-0.949-0.372-0.949-0.536c0-0.165,0.536-0.289,0.536-0.289s-0.165-0.329,0.206-0.7c0.372-0.372,2.475-0.661,2.888-0.207c0.413,0.453,0.949,3.259,0.495,4.042s-3.341,2.187-3.341,2.187s0.454,2.145,0.907,3.217c0.454,1.073,1.32,2.435,1.155,2.681c-0.165,0.249-0.619,0.166-0.619,0.166s-0.33-0.99-1.361-0.867c-1.031,0.125-2.352,0.291-2.352,0.291s0.743-5.281-0.783-5.652c-1.527-0.371-2.516,0.001-2.846-0.289c-0.331-0.288-1.815-3.836-2.104-5.403c-0.289-1.568,0.207-3.341,1.361-4.372c1.155-1.032,3.753-2.642,5.239-3.177C241.21,370.432,241.788,368.74,241.788,368.74z"></path><path d="M245.954,382.332c0.021-0.062,0.454-1.443,1.258-1.938c0.805-0.495,2.166-0.454,2.166-0.454s-0.869-0.701-2.042-0.206c-1.464,0.619-1.856,1.443-1.856,1.443L245.954,382.332z"></path><path d="M234.569,378.371c0,0,0.186-1.979-0.763-2.948c-0.948-0.97-2.557,0.371-2.331,0.928s0.99,0.351,1.176,0.475s-0.165,0.64-0.433,0.701c-0.269,0.062-1.052,0.206-1.402-0.66c-0.351-0.867-0.021-1.754,0.722-2.104c0.743-0.351,2.269-0.269,2.743,0.186c0.474,0.454,0.742,2.104,0.742,2.165C235.022,377.176,234.569,378.371,234.569,378.371z"></path><g><path d="M248.429,369.112c0,0,0.289,1.03,1.278,1.278c0.99,0.248,1.321,0.412,1.321,0.412s0.164,1.651,1.153,2.888c-0.824,0.619-1.773,1.361-1.856,1.732s0.207,1.649,0.207,1.649s-0.248,3.054,1.815,4.291c1.154,0.329,4.042,1.526,4.825,2.764c0.578,0.123,0.785,0.041,0.785,0.041s0.989,1.732,0.948,3.259c-0.042,1.525-0.289,1.814-0.289,1.814s-1.32,0.578-1.649,0.95c-0.331,0.371-0.578,1.236-0.578,1.236s0.824-1.031,2.104-0.826c1.279,0.207,2.435,0.578,2.435,0.578s0.577-0.536,0.495-0.742c-0.084-0.206-0.784-1.485-0.784-1.485s-0.207-0.947,0.123-1.196c0.33-0.247,0.454-1.484,0.166-2.021c1.153-0.371,4.619-1.485,4.908-2.806c0.289-1.318,0.289-3.382-0.825-4.207c-1.113-0.824-2.187-1.195-2.434-0.577s-0.619,1.65,0.495,2.516c-0.413-0.535-0.083-1.649,0.453-1.649s1.774,2.6,1.155,3.259s-2.434,0.577-3.753,1.608c-1.609,0.66-0.784,0.042-0.784,0.042s-0.99-1.485-1.443-1.65c-0.455-0.165-2.806,0.619-4.991-1.691c-2.187-2.31-2.394-2.434-2.352-3.672c0.042-1.236,1.856-2.352,2.394-2.516c-0.166-0.66-0.495-1.031-0.495-1.031s-1.074-1.607-1.032-3.012c-0.743-0.165-1.526-0.041-1.938-0.452c-0.413-0.413-0.743-0.991-0.743-0.991L248.429,369.112z"></path><path d="M250.78,378.393c0,0-2.475,0.33-4.249-1.566c1.031,3.464,4.743,2.309,4.743,2.309L250.78,378.393z"></path></g><g><path d="M268.559,385.858c0,0,1.567,1.732,2.805,1.815c1.073-1.154,0.99-2.887,2.104-3.3c1.114-0.412,2.187-0.783,3.177,0.908c0.99,1.69,1.609,3.424,1.609,3.424s1.732-0.743,2.723-0.578c-0.949-1.073-2.847-3.878-2.847-3.878s0.906,0.207,1.566-0.371c0.661-0.578,0.866-1.897,0.866-1.897s0.619-1.32,0.124-2.063s-1.279-0.412-1.279-0.412s0.455,1.236-0.246,1.484s-1.486,0.248-1.815,0.743c-0.33,0.494-0.496,1.442-1.237,1.607c-0.742,0.166-0.619-1.113-2.393-0.659c-1.774,0.454-2.352,2.393-3.135,2.352c-0.784-0.041-1.774,0-2.476-2.021s-1.525-5.157-0.412-6.229c1.113-1.072,3.094-1.072,3.589-0.207c0.494,0.866-0.123,2.393-1.32,1.691c-0.207,0.578,0.866,1.445,1.691,0.908c0.824-0.536,0.866-3.796-2.847-4.249C265.094,374.475,265.918,383.962,268.559,385.858z"></path><path d="M267.775,375.464c0,0,1.236-3.794-2.888-3.836c1.566-0.537,3.629-0.99,3.918,3.3C268.353,375.464,267.775,375.464,267.775,375.464z"></path></g><g><path d="M226.401,388.045c0,0,0.165-0.866,0.908-1.031c0.743-0.164,2.681-1.443,3.259-1.649c0.288-0.578-0.207-0.495-0.083-1.815c0.124-1.32,0.33-3.135,0.99-3.465s1.773,0.206,1.938,0.742c0.413,0.207,0.289-0.701,0.289-0.701s0-0.866-1.031-1.113c-1.032-0.248-3.548,3.217-3.63,3.671s0.207,1.279,0,1.402s-1.98,1.814-3.424,1.733c-1.443-0.083-1.732-2.063-4.125-2.021c-0.949-0.784-1.65-3.384-0.949-4.662c0.702-1.278,5.322-3.176,5.611-4.331c0.082-1.443-0.207-3.051-0.867-3.258c-0.66-0.207-2.228,0.37-2.269,0.659s0.454,0.619,0.454,0.619s1.114-0.495,1.485-0.082c0.372,0.412-0.124,1.649-1.031,2.104c-0.907,0.453-4.042,3.176-4.62,4.208c-0.578,1.03-0.165,3.587,0.33,4.288c-0.041,0.991,0.124,1.65,0.289,1.856c0.165,0.207,2.64,1.692,4.455,1.815c-0.537,0.495-0.866,2.517-1.197,2.682c-0.33,0.165-0.577,1.03-0.454,1.072c0.124,0.041,1.815-0.082,2.682,0.166c0.866,0.246,1.237-0.207,1.279-0.332C226.731,390.479,226.278,388.787,226.401,388.045z"></path><path d="M226.072,374.269c0-0.249,1.443-2.97,3.217-3.507c0.33-0.536,0.206-0.701,0.206-0.701s-2.846,0.784-3.754,2.639C225.783,373.442,226.072,374.269,226.072,374.269z"></path></g></g></g></g><g><g><path style="fill:#D9D9CF;stroke:#000000;stroke-linecap:round;stroke-linejoin:round;" d="M303.002,406c0,0-7.201-7-8.867-10c5,0.667,11.334,2,11.334,2S306.535,404.666,303.002,406z"></path><g id="onepXMLID_14_"><g><path style="fill:#F7F7ED;" d="M279.682,396.411c0.491,3.53,0.936,7.069,1.316,10.589c1,1,3.34,2.33,3.34,2.33s6-5.66,7.66-7c2-2.33,8-4.33,12.34-2.33c-0.67,2.33-1.34,6-1.34,6s5.47-0.33,8.14-3.67c5-6.66,9.2-8.66,9.2-8.66s-8.86-8.33-17.99-12c0-0.041-0.101-0.338-0.273-0.815C293.7,384.014,286.125,389.791,279.682,396.411z"></path><path style="fill:#D9D9CF;" d="M296.668,393.375c0,0,13.5,6.625,14.25,7.75c-0.5,1.625-4,4.824-7.625,4.199C301.793,400.824,296.668,393.375,296.668,393.375z"></path><path style="fill:#6E6E6E;" d="M264.338,324.33c0,0,10.908,39.414,15.997,76.003c3.583-5.666,13.626-15.257,22-18.416c-2.021-5.565-15.554-39.968-27.997-57.587C265.998,324.33,264.338,324.33,264.338,324.33z"></path><g><path style="fill:#F7F7ED;" d="M276.172,357.705c0,0-0.41-1.07-0.998-0.622c-0.589,0.448-0.647,1.688-0.647,1.688s0.744,4.133,0.971,4.462c0.226,0.327,0.968,0.145,0.968,0.145s1.517-2.018,2.647-2.568c1.13-0.553,2.649-0.375,3.677,1.753c-0.99,0.611-1.505,1.124-1.505,1.124s-0.362,3.999-0.349,4.204c0.013,0.205,0.927,1.655,0.937,1.79c0.409-0.025,1.708,0.989,1.969,1.863c0.879-0.192,1.822-0.459,2.104-0.339c0.281,0.119,1.947,1.521,2.507,1.691c0.56,0.169,1.097-0.003,1.187-0.763c0.089-0.76-0.495-2.366-0.495-2.366c-0.285-0.188,0.433-2.907,0.633-2.989c0.201-0.081,2.131,1.167,2.131,1.167s-0.163,9.265,0.184,10.408s3.368,4.448,3.368,4.448s0.07,2.187-0.323,3.516c2.194,1.095,6.467-0.687,6.467-0.687s-1.626-4.01-2.378-5.059c0.002-1.027,1.21-2.576,1.21-2.576s-0.968-2.269-1.322-2.452c-0.354-0.182-2.856,2.543-2.856,2.543l-1.651-0.099c0,0-1.102-6.511-0.95-8.44c-1.655-3.39-3.925-5.645-3.925-5.645s-1.736,2.853-2.285,5.012c-1.245,0.902-2.627,0.717-2.627,0.717l-2.97-2.485c0,0-0.108-1.707,0.258-2.415c1.054-0.684,1.532-0.715,1.532-0.715s0.281,0.118,0.531-0.24c0.253-0.358-0.907-2.408-2.001-3.437c-1.093-1.027-3.287-1.023-4.189-0.144c-0.904,0.879-1.881,1.696-1.881,1.696s-0.921-2.616-0.96-3.229C275.098,358.048,276.172,357.705,276.172,357.705z"></path><path style="fill:#F7F7ED;" d="M277.986,360.697c0,0-1.335-1.949-1.525-3.147c-0.191-1.199,1.01-2.783,2.227-1.262c-0.499-0.287-1.332-0.439-1.622,0.354c-0.507,1.381,1.562,3.718,1.562,3.718L277.986,360.697z"></path><path style="fill:#F7F7ED;" d="M281.013,360.139c0.089-0.029,1.094-1.486,1.138-1.855c0.046-0.367-0.602-1.902-0.793-2.05c-0.192-0.148-0.896-0.082-0.891,0.718c-0.342-0.343-0.043-1.392,0.281-1.686c0.323-0.294,1.92,2.162,2.148,2.901c0.099,0.817-1.148,2.382-1.148,2.382L281.013,360.139z"></path></g></g><g><line style="fill:none;stroke:#000000;stroke-linecap:round;stroke-linejoin:round;" x1="302.348" y1="381.67" x2="302.338" y2="381.67"></line><path style="fill:none;stroke:#000000;stroke-linecap:round;stroke-linejoin:round;" d="M264.338,324.33c0,0,12.33,42.67,16.66,82.67c1,1,3.34,2.33,3.34,2.33s6-5.66,7.66-7c2-2.33,8-4.33,12.34-2.33c-0.67,2.33-1.34,6-1.34,6s5.47-0.33,8.14-3.67c5-6.66,9.2-8.66,9.2-8.66s-8.86-8.33-17.99-12c0-0.52-14.5-38.21-28.01-57.34C265.998,324.33,264.338,324.33,264.338,324.33z"></path></g></g><path style="fill:none;stroke:#000000;stroke-linecap:round;stroke-linejoin:round;" d="M304.312,400c0,0-4.917-3.875-9.542-7.25"></path><path style="fill:#505050;" d="M265.087,324.667c0,0,3.117,12.208,4.283,16.708c7.875,3.5,17.25,8.375,19.875,10.875c-4.125-10-15.158-27.416-15.158-27.416L265.087,324.667z"></path></g><g><path style="fill:#D9D9CF;stroke:#000000;stroke-linecap:round;stroke-linejoin:round;" d="M196.999,406c0,0,7.201-7,8.867-10c-5,0.667-11.334,2-11.334,2S193.465,404.666,196.999,406z"></path><g id="onepXMLID_15_"><g><path style="fill:#F7F7ED;" d="M220.319,396.411c-0.491,3.53-0.936,7.069-1.316,10.589c-1,1-3.34,2.33-3.34,2.33s-6-5.66-7.66-7c-2-2.33-8-4.33-12.34-2.33c0.67,2.33,1.34,6,1.34,6s-5.47-0.33-8.14-3.67c-5-6.66-9.2-8.66-9.2-8.66s8.86-8.33,17.99-12c0-0.041,0.101-0.338,0.273-0.815C206.3,384.014,213.875,389.791,220.319,396.411z"></path><path style="fill:#D9D9CF;" d="M203.333,393.375c0,0-13.5,6.625-14.25,7.75c0.5,1.625,4,4.824,7.625,4.199C198.208,400.824,203.333,393.375,203.333,393.375z"></path><path style="fill:#6E6E6E;" d="M235.663,324.33c0,0-10.908,39.414-15.997,76.003c-3.583-5.666-13.626-15.257-22-18.416c2.021-5.565,15.554-39.968,27.997-57.587C234.002,324.33,235.663,324.33,235.663,324.33z"></path><g><path style="fill:#F7F7ED;" d="M223.829,357.705c0,0,0.41-1.07,0.998-0.622c0.589,0.448,0.647,1.688,0.647,1.688s-0.744,4.133-0.971,4.462c-0.226,0.327-0.968,0.145-0.968,0.145s-1.517-2.018-2.647-2.568c-1.13-0.553-2.649-0.375-3.677,1.753c0.99,0.611,1.505,1.124,1.505,1.124s0.362,3.999,0.349,4.204c-0.013,0.205-0.927,1.655-0.937,1.79c-0.409-0.025-1.708,0.989-1.969,1.863c-0.879-0.192-1.822-0.459-2.104-0.339c-0.281,0.119-1.947,1.521-2.507,1.691c-0.56,0.169-1.097-0.003-1.187-0.763c-0.089-0.76,0.495-2.366,0.495-2.366c0.285-0.188-0.433-2.907-0.633-2.989c-0.201-0.081-2.131,1.167-2.131,1.167s0.163,9.265-0.184,10.408s-3.368,4.448-3.368,4.448s-0.07,2.187,0.323,3.516c-2.194,1.095-6.467-0.687-6.467-0.687s1.626-4.01,2.378-5.059c-0.002-1.027-1.21-2.576-1.21-2.576s0.968-2.269,1.322-2.452c0.354-0.182,2.856,2.543,2.856,2.543l1.651-0.099c0,0,1.102-6.511,0.95-8.44c1.655-3.39,3.925-5.645,3.925-5.645s1.736,2.853,2.285,5.012c1.245,0.902,2.627,0.717,2.627,0.717l2.97-2.485c0,0,0.108-1.707-0.258-2.415c-1.054-0.684-1.532-0.715-1.532-0.715s-0.281,0.118-0.531-0.24c-0.253-0.358,0.907-2.408,2.001-3.437c1.093-1.027,3.287-1.023,4.189-0.144c0.904,0.879,1.881,1.696,1.881,1.696s0.921-2.616,0.96-3.229C224.903,358.048,223.829,357.705,223.829,357.705z"></path><path style="fill:#F7F7ED;" d="M222.014,360.697c0,0,1.335-1.949,1.525-3.147c0.191-1.199-1.01-2.783-2.227-1.262c0.499-0.287,1.332-0.439,1.622,0.354c0.507,1.381-1.562,3.718-1.562,3.718L222.014,360.697z"></path><path style="fill:#F7F7ED;" d="M218.988,360.139c-0.089-0.029-1.094-1.486-1.138-1.855c-0.046-0.367,0.602-1.902,0.793-2.05c0.192-0.148,0.896-0.082,0.891,0.718c0.342-0.343,0.043-1.392-0.281-1.686c-0.323-0.294-1.92,2.162-2.148,2.901c-0.099,0.817,1.148,2.382,1.148,2.382L218.988,360.139z"></path></g></g><g><line style="fill:none;stroke:#000000;stroke-linecap:round;stroke-linejoin:round;" x1="197.653" y1="381.67" x2="197.663" y2="381.67"></line><path style="fill:none;stroke:#000000;stroke-linecap:round;stroke-linejoin:round;" d="M235.663,324.33c0,0-12.33,42.67-16.66,82.67c-1,1-3.34,2.33-3.34,2.33s-6-5.66-7.66-7c-2-2.33-8-4.33-12.34-2.33c0.67,2.33,1.34,6,1.34,6s-5.47-0.33-8.14-3.67c-5-6.66-9.2-8.66-9.2-8.66s8.86-8.33,17.99-12c0-0.52,14.5-38.21,28.01-57.34C234.002,324.33,235.663,324.33,235.663,324.33z"></path></g></g><path style="fill:none;stroke:#000000;stroke-linecap:round;stroke-linejoin:round;" d="M195.689,400c0,0,4.917-3.875,9.542-7.25"></path><path style="fill:#505050;" d="M234.914,324.667c0,0-3.117,12.208-4.283,16.708c-7.875,3.5-17.25,8.375-19.875,10.875c4.125-10,15.158-27.416,15.158-27.416L234.914,324.667z"></path></g></g></g><g><rect x="225.25" y="319" style="fill:#383731;stroke:#000000;stroke-linecap:round;stroke-linejoin:round;" width="49.5" height="6"></rect><g><g><path style="fill:#383731;stroke:#000000;stroke-linecap:round;stroke-linejoin:round;" d="M248.79,324.833c0,0-5.989,42.835-7.989,51.501c3.667,0.333,6,0.333,6,0.333s4.996-43.667,4-52C249.468,324.334,248.79,324.833,248.79,324.833z"></path><path style="fill:#383731;stroke:#000000;stroke-linecap:round;stroke-linejoin:round;" d="M250.3,324.348c0,0,1.498,36.652-0.165,44.319c3.329-0.667,5.329-2.667,5.329-2.667s-0.667-33.999-3-41.666C251.134,324.334,250.3,324.348,250.3,324.348z"></path></g><g><g><g><path style="fill:#383731;stroke:#000000;stroke-linecap:round;stroke-linejoin:round;" d="M245.543,326.239c0,0-3.298,8.632-4.219,9.068c-1.357-1.067-2.554-3.433-2.554-3.433l-2.616,2.667c0,0,2.26,4.355,6.043,5.179c2.521-3.104,6.304-15.373,6.304-15.373L245.543,326.239z"></path><path style="fill:#56554F;stroke:#000000;stroke-linecap:round;stroke-linejoin:round;" d="M248.501,324.348c0,0-6.147,4.694-11.784,11.105c-1.197-1.411-1.697-3.536-1.842-4.559c2.646-4.562,12.413-11.93,12.607-11.88C247.677,319.063,248.501,324.348,248.501,324.348z"></path></g><g><path style="fill:#383731;stroke:#000000;stroke-linecap:round;stroke-linejoin:round;" d="M254.458,326.239c0,0,3.297,8.632,4.219,9.068c1.356-1.067,2.553-3.433,2.553-3.433l2.616,2.667c0,0-2.26,4.355-6.042,5.179c-2.521-3.104-6.305-15.373-6.305-15.373L254.458,326.239z"></path><path style="fill:#56554F;stroke:#000000;stroke-linecap:round;stroke-linejoin:round;" d="M251.499,324.348c0,0,6.147,4.694,11.784,11.105c1.196-1.411,1.696-3.536,1.842-4.559c-2.646-4.562-12.413-11.93-12.606-11.88C252.323,319.063,251.499,324.348,251.499,324.348z"></path></g></g><path style="fill:#56554F;stroke:#000000;stroke-linecap:round;stroke-linejoin:round;" d="M249.719,318.238c0,0-2.941,0.098-3.201,0.582c0,2.134,1.471,6.013,1.471,6.013h3.459c0,0,1.471-3.879,1.471-6.013C252.659,318.336,249.719,318.238,249.719,318.238z"></path></g></g></g></g></g></svg>