<svg xmlns="http://www.w3.org/2000/svg" width="500" height="500" version="1.1"><g id="a9018"><g><g><g><path style="fill:#FDFDFD;stroke:#000000;stroke-linecap:round;stroke-linejoin:round;" d="M282.417,360.5c0,0-1,7.5-1,9.5c4,0,10-0.5,10-0.5s4,2,7,1.5c4.5-1,10-5.5,11-7c4-1,9-8,9-8c-1.5-2.5-9.5-9.5-9.5-9.5L282.417,360.5z"></path><polygon style="fill:#E4E0F3;" points="308.458,353.25 309.708,364 304.958,357 "></polygon><line style="fill:none;stroke:#000000;stroke-linecap:round;stroke-linejoin:round;" x1="305.708" y1="358" x2="309.458" y2="364"></line><linearGradient id="onepXMLID_68_" gradientUnits="userSpaceOnUse" x1="289.833" y1="291.0938" x2="289.833" y2="330.9574"><stop offset="0" style="stop-color:#636363"></stop><stop offset="1" style="stop-color:#282425"></stop></linearGradient><path style="fill:url(#onepXMLID_68_);stroke:#000000;stroke-linecap:round;stroke-linejoin:round;" d="M298.146,328.137c0.966-3.402,3.608-9.737,2.985-11.466c-0.864-2.398-14.318-13.973-18.514-20.271c-1.819-3.825-3.501-6.833-4.701-7.899c-4.5-4-13.668-6.832-13.668-6.832s7.666,17,6,16L277.917,357c0,0,9,8.5,13.5,3c2.5,3,6.5,3.5,11.5,0.5s4.5-7,4.5-7s5,1.5,8-2.5C310.094,345.677,302.041,332.856,298.146,328.137z"></path><path style="fill:none;stroke:#000000;stroke-linecap:round;stroke-linejoin:round;" d="M283.767,331.255c0,0,3.348,2.215,5.537,2.668c0.367-2.512,0.992-4.057,0.992-4.057"></path><path style="fill:none;stroke:#000000;stroke-linecap:round;stroke-linejoin:round;" d="M291.833,328.667c0,0,2.667-0.667,3.667-0.667"></path><path style="fill:none;stroke:#8C8C8C;stroke-linecap:round;stroke-linejoin:round;" d="M268.371,284.188c0,0-0.534,0.73-0.5,1.625c0.063,1.625,1.313,2.188,1.313,2.188s-0.375,1.125,0.125,2.125s1.75,1.5,1.75,1.5s-0.188,1.188,0.063,1.875"></path><g><path style="fill:none;stroke:#8C8C8C;stroke-linecap:round;stroke-linejoin:round;" d="M304.116,352.939c-0.063,0.571-0.73,0.499-1.972,0.363c-0.926-2.127-0.001-6.177,1.09-6.444c-0.5-0.73-2.6-1.828-3.487-0.767c-0.89,1.062-0.318,4.694,0.224,5.912c-0.393,0.054-1.794-1.258-2.208-1.881c-0.414-0.625-0.48-1.79-1.024-3.008c-0.543-1.217-3.54-1.159-3.54-1.159s-0.196,2.683,0.187,3.593c0.385,0.909,2.206,1.013,3.246,1.222c1.038,0.211,1.9,2.042,1.9,2.042s-2.642-1.446-3.954-0.914c-1.313,0.531-2.962,2.38-0.893,3.764c1.997-2.389,5.646-0.446,5.806-0.139c0,0,0.075,1.068-0.326,1.219c-0.402,0.149-1.918-0.113-2.14,0.152c-0.224,0.266-0.03,1.155-0.03,1.155"></path><path style="fill:none;stroke:#8C8C8C;stroke-linecap:round;stroke-linejoin:round;" d="M298.346,359.75c0,0,3.061,0.291,5.25-1.5c2.75-2.25,2.75-8,2.75-8s4.25,1.5,7.25,0.5"></path></g></g><g><path style="fill:#FDFDFD;stroke:#000000;stroke-linecap:round;stroke-linejoin:round;" d="M217.583,360.5c0,0,1,7.5,1,9.5c-4,0-10-0.5-10-0.5s-4,2-7,1.5c-4.5-1-10-5.5-11-7c-4-1-9-8-9-8c1.5-2.5,9.5-9.5,9.5-9.5L217.583,360.5z"></path><polygon style="fill:#E4E0F3;" points="191.542,353.25 190.292,364 195.042,357 "></polygon><line style="fill:none;stroke:#000000;stroke-linecap:round;stroke-linejoin:round;" x1="194.292" y1="358" x2="190.542" y2="364"></line><linearGradient id="onepXMLID_69_" gradientUnits="userSpaceOnUse" x1="253.502" y1="291.0938" x2="253.502" y2="330.9574" gradientTransform="matrix(-1 0 0 1 463.6689 0)"><stop offset="0" style="stop-color:#636363"></stop><stop offset="1" style="stop-color:#282425"></stop></linearGradient><path style="fill:url(#onepXMLID_69_);stroke:#000000;stroke-linecap:round;stroke-linejoin:round;" d="M201.854,328.137c-0.966-3.402-3.608-9.737-2.985-11.466c0.864-2.398,14.318-13.973,18.514-20.271c1.819-3.825,3.501-6.833,4.701-7.899c4.5-4,13.667-6.832,13.667-6.832s-7.666,17-9,16L219.083,357c0,0-6,8.5-10.5,3c-2.5,3-6.5,3.5-11.5,0.5s-4.5-7-4.5-7s-5,1.5-8-2.5C189.907,345.677,197.959,332.856,201.854,328.137z"></path><path style="fill:none;stroke:#000000;stroke-linecap:round;stroke-linejoin:round;" d="M216.234,331.255c0,0-3.348,2.215-5.537,2.668c-0.367-2.512-0.992-4.057-0.992-4.057"></path><path style="fill:none;stroke:#000000;stroke-linecap:round;stroke-linejoin:round;" d="M208.167,328.667c0,0-2.667-0.667-3.667-0.667"></path><path style="fill:none;stroke:#8C8C8C;stroke-linecap:round;stroke-linejoin:round;" d="M231.629,284.188c0,0,0.534,0.73,0.5,1.625c-0.063,1.625-1.313,2.188-1.313,2.188s0.375,1.125-0.125,2.125s-1.75,1.5-1.75,1.5s0.188,1.188-0.063,1.875"></path><g><path style="fill:none;stroke:#8C8C8C;stroke-linecap:round;stroke-linejoin:round;" d="M195.884,352.939c0.063,0.571,0.73,0.499,1.972,0.363c0.926-2.127,0.001-6.177-1.09-6.444c0.5-0.73,2.6-1.828,3.487-0.767c0.89,1.062,0.318,4.694-0.224,5.912c0.393,0.054,1.794-1.258,2.208-1.881c0.414-0.625,0.48-1.79,1.024-3.008c0.543-1.217,3.54-1.159,3.54-1.159s0.196,2.683-0.187,3.593c-0.385,0.909-2.206,1.013-3.246,1.222c-1.038,0.211-1.9,2.042-1.9,2.042s2.642-1.446,3.954-0.914c1.313,0.531,2.962,2.38,0.893,3.764c-1.997-2.389-5.646-0.446-5.806-0.139c0,0-0.075,1.068,0.326,1.219c0.402,0.149,1.918-0.113,2.14,0.152c0.224,0.266,0.03,1.155,0.03,1.155"></path><path style="fill:none;stroke:#8C8C8C;stroke-linecap:round;stroke-linejoin:round;" d="M201.655,359.75c0,0-3.061,0.291-5.25-1.5c-2.75-2.25-2.75-8-2.75-8s-4.25,1.5-7.25,0.5"></path></g></g></g><g><g><g><path style="fill:#FDFDFD;stroke:#000000;stroke-linecap:round;stroke-linejoin:round;" d="M310,394.021c0-2.994-3.334-9.578-3.334-9.578L250,374.265l-56.666,10.178c0,0-3.334,6.584-3.334,9.578c4,2.396,20.001,3.592,22.667,3.592C212,399.408,212,399.408,212,399.408s12.667,2.993,22.667,1.796c0,1.198,0,1.198,0,1.198S243.334,403,250,403s15.334-0.598,15.334-0.598s0,0,0-1.198c10,1.197,22.666-1.796,22.666-1.796s0,0-0.666-1.796C290,397.612,306,396.416,310,394.021z"></path><g><g><path style="fill:#E4E0F3;" d="M264.485,391.75c-0.083,0.417,1.334,9,1.334,9s2.167,0.417,4,0.25c-0.75-6.917-1.084-10.5-1.084-10.5L264.485,391.75z"></path><path style="fill:#E4E0F3;" d="M286.569,392.833l1.166,4.334c0,0,3.25-0.334,3.917-0.334c-0.333-2.833-1.25-5.5-1.25-5.5L286.569,392.833z"></path></g><g><path style="fill:#E4E0F3;" d="M235.515,391.75c0.083,0.417-1.334,9-1.334,9s-2.167,0.417-4,0.25c0.75-6.917,1.084-10.5,1.084-10.5L235.515,391.75z"></path><path style="fill:#E4E0F3;" d="M213.431,392.833l-1.166,4.334c0,0-3.25-0.334-3.917-0.334c0.333-2.833,1.25-5.5,1.25-5.5L213.431,392.833z"></path></g></g><g><g><line style="fill:none;stroke:#000000;stroke-linecap:round;stroke-linejoin:round;" x1="234.633" y1="401.204" x2="235.966" y2="390.428"></line><line style="fill:none;stroke:#000000;stroke-linecap:round;stroke-linejoin:round;" x1="212.633" y1="397.612" x2="215.966" y2="385.339"></line></g><g><line style="fill:none;stroke:#000000;stroke-linecap:round;stroke-linejoin:round;" x1="265.365" y1="401.204" x2="264.032" y2="390.428"></line><line style="fill:none;stroke:#000000;stroke-linecap:round;stroke-linejoin:round;" x1="287.365" y1="397.612" x2="284.032" y2="385.339"></line></g></g></g><g><path style="fill:#6E6E6E;stroke:#000000;stroke-linecap:round;stroke-linejoin:round;" d="M310.5,389.022l-2.5-7.089l-58-52.338l-58,52.338l-2.5,7.089c3.5,1.866,15.5,4.354,28.833,4.353c0-0.746-0.667-3.481-0.667-3.481s10,1.741,18.333,1.989c0,1.865-0.5,1.99-0.5,1.99s9,0.747,14.5,0.747s14.5-0.747,14.5-0.747s-0.5-0.125-0.5-1.99c8.333-0.248,18.333-1.989,18.333-1.989s-0.667,2.735-0.667,3.481C294.999,393.375,307,390.889,310.5,389.022z"></path><g><g><path style="fill:none;stroke:#000000;stroke-linecap:round;stroke-linejoin:round;" d="M190.902,385.558c0,0,1.66-2.456,4.412-1.958c3.028,0.552,3.721,3.06,3.721,3.06s1.944-2.692,5.047-2.214c3.103,0.478,4.036,3.635,4.036,3.635s0.678-0.93,1.82-1.604"></path><path style="fill:none;stroke:#000000;stroke-linecap:round;stroke-linejoin:round;" d="M210.262,385.446c0,0,1.622-2.481,4.381-2.025c3.036,0.505,3.767,3.002,3.767,3.002s1.903-2.722,5.013-2.291c3.11,0.431,4.091,3.573,4.091,3.573s2.003-2.839,4.984-2.286c2.982,0.554,4.024,3.886,4.024,3.886"></path></g><g><path style="fill:none;stroke:#000000;stroke-linecap:round;stroke-linejoin:round;" d="M309.098,385.558c0,0-1.66-2.456-4.412-1.958c-3.027,0.552-3.721,3.06-3.721,3.06s-1.943-2.692-5.047-2.214c-3.104,0.478-4.036,3.635-4.036,3.635s-0.678-0.93-1.819-1.604"></path><path style="fill:none;stroke:#000000;stroke-linecap:round;stroke-linejoin:round;" d="M289.738,385.446c0,0-1.622-2.481-4.382-2.025c-3.036,0.505-3.767,3.002-3.767,3.002s-1.903-2.722-5.014-2.291c-3.109,0.431-4.091,3.573-4.091,3.573s-2.003-2.839-4.984-2.286c-2.982,0.554-4.024,3.886-4.024,3.886"></path></g></g><path style="fill:#505050;" d="M250,330.852l-13.667,62.451c0,0,6.833,0.69,13.667,0.69s13.667-0.69,13.667-0.69L250,330.852z"></path><path style="fill:none;stroke:#000000;stroke-linecap:round;stroke-linejoin:round;" d="M236.805,388.824c0,0,1.389-2.619,4.179-2.417c3.07,0.227,4.025,2.646,4.025,2.646s1.646-2.883,4.783-2.738c3.139,0.145,4.402,3.186,4.402,3.186s1.735-3.011,4.755-2.732c3.021,0.279,4.363,3.503,4.363,3.503"></path><g><g><path style="fill:none;stroke:#000000;stroke-linecap:round;stroke-linejoin:round;" d="M236.25,391.262c0-0.747,12.5-57.563,12.5-57.563"></path><path style="fill:none;stroke:#000000;stroke-linecap:round;stroke-linejoin:round;" d="M209.333,388.898c0,0,4.667-22.262,8.917-30.097"></path><path style="fill:#505050;stroke:#000000;stroke-linecap:round;stroke-linejoin:round;" d="M218.333,393.375c0,0-10-4.726-9-4.477c3.917,0.498,8.333,0.995,8.333,0.995L218.333,393.375z"></path></g><g><path style="fill:none;stroke:#000000;stroke-linecap:round;stroke-linejoin:round;" d="M263.75,391.262c0-0.747-12.5-57.563-12.5-57.563"></path><path style="fill:none;stroke:#000000;stroke-linecap:round;stroke-linejoin:round;" d="M290.666,388.898c0,0-4.666-22.262-8.916-30.097"></path><path style="fill:#505050;stroke:#000000;stroke-linecap:round;stroke-linejoin:round;" d="M281.666,393.375c0,0,10-4.726,9-4.477c-3.916,0.498-8.333,0.995-8.333,0.995L281.666,393.375z"></path></g></g></g></g><g><g><path style="fill:#FDFDFD;stroke:#000000;stroke-linecap:round;stroke-linejoin:round;" d="M228.927,313.188c0,0,10.947,0,20.821,0c0.215-1.364-0.214-3.509-1.502-4.483c1.073-2.146,0.429-3.705-1.502-5.068c0.858-4.098-2.791-5.266-3.863-4.878c-0.214-2.729-2.577-3.508-3.65-3.119c-0.644-1.364-2.575-1.753-3.434-1.753c-0.645-2.926-3.864-2.536-3.864-2.536s-6.382,6.022-6.713,11.735c-0.331,5.712-0.264,11.125-0.264,11.125L228.927,313.188z"></path><g><path style="fill:none;stroke:#000000;stroke-linecap:round;stroke-linejoin:round;" d="M230.755,293.313c0,0,1.563-0.219,2.313,0.25s1.5,2.344,1.5,2.344s1.656-0.406,2.469,0.156s1.219,1.719,1.219,1.719s1.5-0.375,2.313,0.25s1.188,2.344,1.188,2.344s1.406-0.156,2.281,0.625s0.875,2.719,0.875,2.719s2.156,1.656,1.844,3.781"></path><path style="fill:none;stroke:#000000;stroke-linecap:round;stroke-linejoin:round;" d="M238.33,298c0,0.25-0.625,1.875-1.25,1.563c-0.188-1.188-0.438-3.523-0.438-3.523"></path><path style="fill:none;stroke:#000000;stroke-linecap:round;stroke-linejoin:round;" d="M241.821,300.135c0,0.25-0.625,1.875-1.25,1.563c-0.188-1.188-0.438-3.523-0.438-3.523"></path><path style="fill:none;stroke:#000000;stroke-linecap:round;stroke-linejoin:round;" d="M234.642,295.826c0,0.25-0.625,1.875-1.25,1.563c-0.188-1.188-0.438-3.523-0.438-3.523"></path></g><path style="fill:#FDFDFD;stroke:#000000;stroke-linecap:round;stroke-linejoin:round;" d="M271.073,313.188c0,0-10.947,0-20.82,0c-0.215-1.364,0.214-3.509,1.502-4.483c-1.073-2.146-0.43-3.705,1.502-5.068c-0.857-4.098,2.791-5.266,3.863-4.878c0.215-2.729,2.576-3.508,3.65-3.119c0.644-1.364,2.574-1.753,3.434-1.753c0.645-2.926,3.863-2.536,3.863-2.536s6.382,6.022,6.713,11.735c0.331,5.712,0.264,11.125,0.264,11.125L271.073,313.188z"></path><g><path style="fill:none;stroke:#000000;stroke-linecap:round;stroke-linejoin:round;" d="M269.245,293.313c0,0-1.563-0.219-2.313,0.25s-1.5,2.344-1.5,2.344s-1.656-0.406-2.469,0.156s-1.219,1.719-1.219,1.719s-1.5-0.375-2.313,0.25s-1.188,2.344-1.188,2.344s-1.406-0.156-2.281,0.625s-0.875,2.719-0.875,2.719s-2.156,1.656-1.844,3.781"></path><path style="fill:none;stroke:#000000;stroke-linecap:round;stroke-linejoin:round;" d="M261.671,298c0,0.25,0.625,1.875,1.25,1.563c0.188-1.188,0.438-3.523,0.438-3.523"></path><path style="fill:none;stroke:#000000;stroke-linecap:round;stroke-linejoin:round;" d="M258.179,300.135c0,0.25,0.625,1.875,1.25,1.563c0.188-1.188,0.438-3.523,0.438-3.523"></path><path style="fill:none;stroke:#000000;stroke-linecap:round;stroke-linejoin:round;" d="M265.358,295.826c0,0.25,0.625,1.875,1.25,1.563c0.188-1.188,0.438-3.523,0.438-3.523"></path></g></g><g><g><g><g><linearGradient id="onepXMLID_70_" gradientUnits="userSpaceOnUse" x1="219.3892" y1="306.4863" x2="219.3892" y2="359.6421"><stop offset="0" style="stop-color:#636363"></stop><stop offset="1" style="stop-color:#282425"></stop></linearGradient><path style="fill:url(#onepXMLID_70_);stroke:#000000;stroke-linecap:round;stroke-linejoin:round;" d="M249.778,309.889c0,0-5.75-4.836-12.25-6.696c-1.75-0.116-10.75,2.859-13.25,5.014c0,0.771-0.023,14.685-0.354,16.736c-17.277,24.137-29.327,39.331-35.146,62.783c1.5,0.372,12,2.604,19,0.372c3.313-1.058,4.5-7.439,4.5-7.439s7.5-0.744,12.5-2.604c2.72-1.013,5-10.416,5-10.416s2-0.372,6.5-5.579s13-29.851,13.5-31.153C250.278,329.604,249.778,309.889,249.778,309.889z"></path></g></g><g><path style="fill:#FEFEFE;" d="M219.667,367.412l7.667-6.529c1.667,1.828,2.777,5.973,2.777,5.973l-7.11,6.563C222.001,372.636,219.667,367.412,219.667,367.412z"></path><path style="fill:#FEFEFE;" d="M200.444,374.429c0,0-1.11-4.145-2.777-5.972l-2.593,2.208l-3.047,8.424c0.493,0.888,0.974,1.644,1.307,1.905L200.444,374.429z"></path><path style="fill:#BCBCBC;" d="M214.667,373.823l3.818-3.252c0.831,0.909,1.384,2.974,1.384,2.974l-3.542,3.271C215.829,376.424,214.667,373.823,214.667,373.823z"></path><g><path style="fill:#BCBCBC;" d="M207.042,371.929l6.236-5.312c1.357,1.485,2.261,4.857,2.261,4.857l-5.785,5.342C208.94,376.179,207.042,371.929,207.042,371.929z"></path><path style="fill:#4D4B4C;" d="M209.134,371.824l3.166-2.696c0.688,0.754,1.146,2.466,1.146,2.466l-2.936,2.711C210.098,373.98,209.134,371.824,209.134,371.824z"></path></g><g><path style="fill:#BCBCBC;" d="M200.708,364.877l6.237-5.312c1.356,1.485,2.26,4.857,2.26,4.857l-5.785,5.342C202.606,369.127,200.708,364.877,200.708,364.877z"></path><path style="fill:#4D4B4C;" d="M202.801,364.772l3.165-2.696c0.688,0.754,1.147,2.467,1.147,2.467l-2.937,2.71C203.764,366.929,202.801,364.772,202.801,364.772z"></path></g></g><g><linearGradient id="onepXMLID_71_" gradientUnits="userSpaceOnUse" x1="238.625" y1="306.416" x2="238.625" y2="358.4364"><stop offset="0" style="stop-color:#636363"></stop><stop offset="1" style="stop-color:#282425"></stop></linearGradient><path style="fill:url(#onepXMLID_71_);stroke:#000000;stroke-linecap:round;stroke-linejoin:round;" d="M230.75,305.66c0,0-3.25,2.351-3.5,5.877c2.25-0.979,9.5,0.392,7.5,8.227c3,1.764,6,7.835,1,12.929c2,3.526-1,13.63-6.75,18.135c0,2.155,5.25,6.269,6.25,7.052c1,0.784,0.25,2.743,2,2.938c3.75-4.505,12-24.012,12.75-29.104c0-14.3,0-21.825,0-21.825s-6.944-5.834-12.472-6.696C234.25,303.506,230.75,305.66,230.75,305.66z"></path><path style="fill:none;stroke:#8C8C8C;stroke-linecap:round;stroke-linejoin:round;" d="M236.75,357.683c-0.75,0.589-1-2.741-1-2.741s-2-0.589-4.25-3.33c7-6.66,7.75-14.021,7.5-18.135c4.5-7.248,0.75-12.537-2-14.104c0.75-10.97-5.5-9.207-6-10.187c0,0,4-3.722,6.75-3.917c2.75-0.197,10,4.505,10.5,5.483c0.5,5.29,0,20.961,0,20.961S241.25,353.962,236.75,357.683z"></path></g></g><g><g><g><linearGradient id="onepXMLID_72_" gradientUnits="userSpaceOnUse" x1="262.167" y1="306.4863" x2="262.167" y2="359.6421" gradientTransform="matrix(-1 0 0 1 542.7773 0)"><stop offset="0" style="stop-color:#636363"></stop><stop offset="1" style="stop-color:#282425"></stop></linearGradient><path style="fill:url(#onepXMLID_72_);stroke:#000000;stroke-linecap:round;stroke-linejoin:round;" d="M250.223,309.889c0,0,5.75-4.836,12.25-6.696c1.75-0.116,10.75,2.859,13.25,5.014c0,0.771,0.023,14.685,0.354,16.736c17.276,24.137,29.326,39.331,35.146,62.783c-1.5,0.372-12,2.604-18.999,0.372c-3.314-1.058-4.5-7.439-4.5-7.439s-7.5-0.744-12.5-2.604c-2.721-1.013-5-10.416-5-10.416s-2-0.372-6.5-5.579s-13-29.851-13.5-31.153C249.723,329.604,250.223,309.889,250.223,309.889z"></path></g></g><g><path style="fill:#FEFEFE;" d="M280.333,367.412l-7.667-6.529c-1.666,1.828-2.777,5.973-2.777,5.973l7.111,6.563C278,372.636,280.333,367.412,280.333,367.412z"></path><path style="fill:#FEFEFE;" d="M299.556,374.429c0,0,1.11-4.145,2.777-5.972l2.593,2.208l3.047,8.424c-0.493,0.888-0.974,1.644-1.307,1.905L299.556,374.429z"></path><path style="fill:#BCBCBC;" d="M285.333,373.823l-3.818-3.252c-0.831,0.909-1.384,2.974-1.384,2.974l3.542,3.271C284.171,376.424,285.333,373.823,285.333,373.823z"></path><g><path style="fill:#BCBCBC;" d="M292.959,371.929l-6.237-5.312c-1.356,1.485-2.261,4.857-2.261,4.857l5.785,5.342C291.061,376.179,292.959,371.929,292.959,371.929z"></path><path style="fill:#4D4B4C;" d="M290.866,371.824l-3.165-2.696c-0.689,0.754-1.147,2.466-1.147,2.466l2.937,2.711C289.902,373.98,290.866,371.824,290.866,371.824z"></path></g><g><path style="fill:#BCBCBC;" d="M299.292,364.877l-6.237-5.312c-1.356,1.485-2.26,4.857-2.26,4.857l5.785,5.342C297.394,369.127,299.292,364.877,299.292,364.877z"></path><path style="fill:#4D4B4C;" d="M297.199,364.772l-3.165-2.696c-0.688,0.754-1.147,2.467-1.147,2.467l2.937,2.71C296.236,366.929,297.199,364.772,297.199,364.772z"></path></g></g><g><linearGradient id="onepXMLID_73_" gradientUnits="userSpaceOnUse" x1="281.4023" y1="306.416" x2="281.4023" y2="358.4364" gradientTransform="matrix(-1 0 0 1 542.7773 0)"><stop offset="0" style="stop-color:#636363"></stop><stop offset="1" style="stop-color:#282425"></stop></linearGradient><path style="fill:url(#onepXMLID_73_);stroke:#000000;stroke-linecap:round;stroke-linejoin:round;" d="M269.25,305.66c0,0,3.25,2.351,3.5,5.877c-2.25-0.979-9.5,0.392-7.5,8.227c-3,1.764-6,7.835-1,12.929c-2,3.526,1,13.63,6.75,18.135c0,2.155-5.25,6.269-6.25,7.052c-1,0.784-0.25,2.743-2,2.938c-3.75-4.505-12-24.012-12.75-29.104c0-14.3,0-21.825,0-21.825s6.944-5.834,12.473-6.696C265.75,303.506,269.25,305.66,269.25,305.66z"></path><path style="fill:none;stroke:#8C8C8C;stroke-linecap:round;stroke-linejoin:round;" d="M263.25,357.683c0.75,0.589,1-2.741,1-2.741s2-0.589,4.25-3.33c-7-6.66-7.75-14.021-7.5-18.135c-4.5-7.248-0.75-12.537,2-14.104c-0.75-10.97,5.5-9.207,6-10.187c0,0-4-3.722-6.75-3.917c-2.75-0.197-10,4.505-10.5,5.483c-0.5,5.29,0,20.961,0,20.961S258.75,353.962,263.25,357.683z"></path></g></g></g><g><g><g><circle style="fill:#FDFDFD;stroke:#000000;stroke-linecap:round;stroke-linejoin:round;" cx="243.781" cy="311.438" r="2.031"></circle><circle style="fill:#FDFDFD;stroke:#000000;stroke-linecap:round;stroke-linejoin:round;" cx="243.781" cy="317.313" r="2.031"></circle><circle style="fill:#FDFDFD;stroke:#000000;stroke-linecap:round;stroke-linejoin:round;" cx="243.781" cy="323.188" r="2.031"></circle><circle style="fill:#FDFDFD;stroke:#000000;stroke-linecap:round;stroke-linejoin:round;" cx="243.781" cy="329.063" r="2.031"></circle></g><g><circle style="fill:#FDFDFD;stroke:#000000;stroke-linecap:round;stroke-linejoin:round;" cx="256.219" cy="311.438" r="2.031"></circle><circle style="fill:#FDFDFD;stroke:#000000;stroke-linecap:round;stroke-linejoin:round;" cx="256.219" cy="317.313" r="2.031"></circle><circle style="fill:#FDFDFD;stroke:#000000;stroke-linecap:round;stroke-linejoin:round;" cx="256.219" cy="323.188" r="2.031"></circle><circle style="fill:#FDFDFD;stroke:#000000;stroke-linecap:round;stroke-linejoin:round;" cx="256.219" cy="329.063" r="2.031"></circle></g></g><g><g><g><path style="fill:#848381;stroke:#000000;stroke-linecap:round;stroke-linejoin:round;" d="M244.604,318.233l11.666-5.667l0,0c0.498-0.241,0.705-0.84,0.463-1.336c-0.24-0.497-0.84-0.704-1.336-0.463l0,0l-11.667,5.667l0,0c-0.497,0.241-0.704,0.84-0.462,1.336C243.509,318.268,244.107,318.475,244.604,318.233L244.604,318.233z"></path></g><g><path style="fill:#848381;stroke:#000000;stroke-linecap:round;stroke-linejoin:round;" d="M255.396,318.233l-11.667-5.667l0,0c-0.497-0.241-0.704-0.84-0.463-1.336c0.241-0.497,0.84-0.704,1.336-0.463l0,0l11.667,5.667l0,0c0.496,0.241,0.703,0.84,0.463,1.336C256.49,318.268,255.893,318.475,255.396,318.233L255.396,318.233z"></path></g></g><g><g><path style="fill:#848381;stroke:#000000;stroke-linecap:round;stroke-linejoin:round;" d="M244.604,324.358l11.666-5.667l0,0c0.498-0.241,0.705-0.84,0.463-1.336c-0.24-0.497-0.84-0.704-1.336-0.463l0,0l-11.667,5.667l0,0c-0.497,0.241-0.704,0.84-0.462,1.336C243.509,324.393,244.107,324.6,244.604,324.358L244.604,324.358z"></path></g><g><path style="fill:#848381;stroke:#000000;stroke-linecap:round;stroke-linejoin:round;" d="M255.396,324.358l-11.667-5.667l0,0c-0.497-0.241-0.704-0.84-0.463-1.336c0.241-0.497,0.84-0.704,1.336-0.463l0,0l11.667,5.667l0,0c0.496,0.241,0.703,0.84,0.463,1.336C256.49,324.393,255.893,324.6,255.396,324.358L255.396,324.358z"></path></g></g><g><g><path style="fill:#848381;stroke:#000000;stroke-linecap:round;stroke-linejoin:round;" d="M244.604,330.483l11.666-5.667l0,0c0.498-0.241,0.705-0.84,0.463-1.336c-0.24-0.497-0.84-0.704-1.336-0.463l0,0l-11.667,5.667l0,0c-0.497,0.241-0.704,0.84-0.462,1.336C243.509,330.518,244.107,330.725,244.604,330.483L244.604,330.483z"></path></g><g><path style="fill:#848381;stroke:#000000;stroke-linecap:round;stroke-linejoin:round;" d="M255.396,330.483l-11.667-5.667l0,0c-0.497-0.241-0.704-0.84-0.463-1.336c0.241-0.497,0.84-0.704,1.336-0.463l0,0l11.667,5.667l0,0c0.496,0.241,0.703,0.84,0.463,1.336C256.49,330.518,255.893,330.725,255.396,330.483L255.396,330.483z"></path></g></g></g></g></g></g></g></g></svg>