<svg xmlns="http://www.w3.org/2000/svg" width="500" height="500" version="1.1"><g id="a9022"><g><g><g><g><path style="fill:#6E6E6E;stroke:#000000;stroke-linecap:round;stroke-linejoin:round;" d="M222.135,290l-6.5,7.5c0,0-7,13-12,15.5c0,7,14,13.5,20.5,13.5c6.5-21.5,10-32,10-32L222.135,290z"></path><g><path style="fill:#505050;" d="M222.703,304.625c0,0-4.125,6-4.5,7.25s-0.625,4.625-0.625,4.625s-6.75,0.375-13.75-3c0.875,2.5,4.324,6.711,6.225,7.355c2.9,0.395,11.4,2.52,13.4,5.145c1.125-5.125,1.594-15,1.594-15L222.703,304.625z"></path></g><g><path style="fill:#8A7770;stroke:#000000;stroke-linecap:round;stroke-linejoin:round;" d="M229.302,296.333c0,0-1,8-4.333,14.667c-6-6-2-18.667-2-18.667L229.302,296.333z"></path><path style="fill:none;stroke:#000000;stroke-linecap:round;stroke-linejoin:round;" d="M224.635,295c0,0-1.487,7.692,1.09,12.43"></path></g></g><g><path style="fill:#D1CBCD;stroke:#000000;stroke-linecap:round;stroke-linejoin:round;" d="M227.892,318.848c-2.976-0.93-4.927,2.593-4.927,2.593s-2.853-0.907-4.538-1.944c0.13-3.631-1.167-9.595-5.187-10.113s-4.278,5.057-4.148,8.038c-1.815-1.426-3.242-1.944-3.242-1.944s-2.723-10.243-4.537-10.243c-1.815,0-2.594,1.167-1.815,3.761c2.853,5.964,3.386,14.804,4.02,15.817c2.593,4.148,14.78,8.946,17.633,8.557c1.427-0.519,7.779-8.557,7.779-8.557S229.966,319.496,227.892,318.848z M202.731,312.928c-0.426,0.248-0.969-0.238-1.213-1.083s-0.095-1.729,0.33-1.976c0.427-0.247,0.971,0.237,1.215,1.083C203.305,311.796,203.158,312.681,202.731,312.928z M213.306,316.772c-0.967,0-1.751-0.881-1.751-1.97c0-1.088,0.784-1.969,1.751-1.969s1.75,0.881,1.75,1.969C215.056,315.892,214.273,316.772,213.306,316.772z M226.661,323.515c-0.681,0-1.231-0.552-1.231-1.231c0-0.681,0.551-1.232,1.231-1.232c0.68,0,1.231,0.552,1.231,1.232C227.892,322.963,227.34,323.515,226.661,323.515z"></path><path style="fill:#B3ADAF;" d="M217.875,319.875c0,0,0.813,7-2.813,11.438c1.875,0.875,5.375,1.688,6.063,1.625c1.563-1.688,6.063-5.25,6.063-5.25l-6.125-6.438L217.875,319.875z"></path></g></g><g><g><path style="fill:#6E6E6E;stroke:#000000;stroke-linecap:round;stroke-linejoin:round;" d="M277.865,290l6.5,7.5c0,0,7,13,12,15.5c0,7-14,13.5-20.5,13.5c-6.5-21.5-10-32-10-32L277.865,290z"></path><g><path style="fill:#505050;" d="M277.297,304.625c0,0,4.125,6,4.5,7.25s0.625,4.625,0.625,4.625s6.75,0.375,13.75-3c-1.297,3.25-4.324,6.711-6.225,7.355c-2.9,0.395-11.4,2.52-13.4,5.145c-1.125-5.125-1.594-15-1.594-15L277.297,304.625z"></path></g><g><path style="fill:#8A7770;stroke:#000000;stroke-linecap:round;stroke-linejoin:round;" d="M270.697,296.333c0,0,1,8,4.334,14.667c6-6,2-18.667,2-18.667L270.697,296.333z"></path><path style="fill:none;stroke:#000000;stroke-linecap:round;stroke-linejoin:round;" d="M275.365,295c0,0,1.486,7.692-1.09,12.43"></path></g></g><path style="fill:#8A7770;stroke:#000000;stroke-linecap:round;stroke-linejoin:round;" d="M291.398,324.25c-3.25,2-11.5,4.25-14.5,4.75l-1-3c0,0,7-3.75,14.834-4.667C290.898,322.75,291.148,323.5,291.398,324.25z"></path><path style="fill:#6E6E6E;stroke:#000000;stroke-linecap:round;stroke-linejoin:round;" d="M290.75,324.25c0,0,3.25,1.75,4,2.5c0.25,2.25,0.5,4.5,0.5,4.5s6.583,7.25,12.083,11.25c1,4.5-1.25,10.75-1.25,10.75l-18.75,8c0,0-10.583-25-10.333-33C283.75,326,290.75,324.25,290.75,324.25z"></path><path style="fill:#505050;" d="M291.167,324.5c0,0-2.166,3.499-4.833,4.333s-10,0-10,0L291.167,324.5z"></path><g><path style="fill:#D1CBCD;stroke:#000000;stroke-linecap:round;stroke-linejoin:round;" d="M282.125,357.479c0,0,6.354,8.038,7.779,8.557c2.854,0.39,15.041-4.408,17.633-8.557c0.635-1.014,1.168-9.854,4.02-15.817c0.779-2.594,0-3.761-1.814-3.761s-4.537,10.243-4.537,10.243s-1.428,0.519-3.242,1.944c0.129-2.981-0.129-8.557-4.148-8.038s-5.316,6.482-5.188,10.113c-1.686,1.037-4.537,1.944-4.537,1.944s-1.951-3.522-4.928-2.593C281.088,352.163,282.125,357.479,282.125,357.479z M307.992,343.619c0.244-0.846,0.787-1.33,1.215-1.083c0.425,0.247,0.573,1.131,0.33,1.976c-0.244,0.845-0.787,1.331-1.213,1.083C307.896,345.348,307.75,344.463,307.992,343.619z M295.998,347.47c0-1.088,0.783-1.969,1.75-1.969s1.752,0.881,1.752,1.969c0,1.089-0.785,1.97-1.752,1.97S295.998,348.559,295.998,347.47z M283.162,354.95c0-0.681,0.553-1.232,1.232-1.232s1.23,0.552,1.23,1.232c0,0.68-0.551,1.231-1.23,1.231S283.162,355.63,283.162,354.95z"></path><path style="fill:#B3ADAF;" d="M292.667,353c0,0-0.666,8.499,3,10.833c-1,0.5-3.167,1.833-6.5,1.5c-4-6.167-4.667-13.666-4.667-13.666s2.5,1.5,3.5,2.833C289.5,354.5,292.667,353,292.667,353z"></path></g></g></g><g><g><g><path style="fill:#6E6E6E;stroke:#000000;stroke-linecap:round;stroke-linejoin:round;" d="M280.665,338.875L278.167,337l-3-12L250,325.473L224.833,325l-3,12l-2.499,1.875L206.333,378.5c0,0,3.594,3.697,11.354,5.375c0.188-0.438,0.313-1.188,0.509-1.724c3.241,1.224,9.222,3.198,14.866,3.724c-0.063-0.188,0.063-1.25,0.189-1.649c4.515,0.388,10.741,1.961,16.666,2.045c0.021-0.229,0-0.833,0.082-1.287c5.084,0.808,12.094,0.868,16.689,0.496c-0.042-0.375-0.042-1.042-0.083-1.292c4.947,0.569,11.723,0.225,15.458-0.5c-0.042-0.354-0.104-0.834-0.292-1.584c8.558-1.744,11.896-3.604,11.896-3.604L280.665,338.875z"></path><g><polygon style="fill:#505050;" points="261.667,341.833 266.917,382.917 265.25,341.667 "></polygon><path style="fill:#505050;" d="M250,342.083c0,0.25,0.083,42.417,0.083,42.417l3.417-42.25L250,342.083z"></path><polygon style="fill:#505050;" points="238.5,341.667 233.583,383.75 242.667,341.917 "></polygon><path style="fill:#505050;" d="M227.333,340.417c0,0-8.833,41.833-8.833,41.583s12.917-40.5,12.917-40.5L227.333,340.417z"></path><polygon style="fill:#505050;" points="272.917,340.833 281.917,381.667 274.917,340.25 "></polygon></g><path style="fill:#505050;" d="M275.375,326.167L250,325.917l-25.375,0.25l-0.875,3.75c0,0,8.25,3.625,26.25,3.625s26.25-3.625,26.25-3.625L275.375,326.167z"></path><g><line style="fill:none;stroke:#000000;stroke-linecap:round;stroke-linejoin:round;" x1="250" y1="342.333" x2="250.001" y2="384.791"></line><g><g><line style="fill:none;stroke:#000000;stroke-linecap:round;stroke-linejoin:round;" x1="227.05" y1="340.833" x2="218.217" y2="382"></line><line style="fill:#6E6E6E;stroke:#000000;stroke-linecap:round;stroke-linejoin:round;" x1="238.45" y1="342" x2="233.383" y2="384.333"></line></g><g><line style="fill:none;stroke:#000000;stroke-linecap:round;stroke-linejoin:round;" x1="281.783" y1="382" x2="272.95" y2="340.833"></line><line style="fill:#6E6E6E;stroke:#000000;stroke-linecap:round;stroke-linejoin:round;" x1="261.55" y1="342" x2="266.617" y2="384.333"></line></g></g></g><path style="fill:none;stroke:#000000;stroke-linecap:round;stroke-linejoin:round;" d="M225.667,340c0,0,3.458,1.875,24.458,1.875S274.334,340,274.334,340"></path></g><g><g><g><path style="fill:#E1E1E1;stroke:#000000;stroke-linecap:round;stroke-linejoin:round;" d="M244.111,335.433l12.5-4.833l0,0c0.516-0.199,0.771-0.778,0.572-1.293c-0.199-0.516-0.779-0.771-1.293-0.572l0,0l-12.501,4.833l0,0c-0.515,0.199-0.771,0.778-0.572,1.293C243.017,335.376,243.596,335.632,244.111,335.433L244.111,335.433z"></path></g><g><path style="fill:#E1E1E1;stroke:#000000;stroke-linecap:round;stroke-linejoin:round;" d="M255.889,335.433l-12.5-4.833l0,0c-0.516-0.199-0.771-0.778-0.572-1.293c0.199-0.516,0.778-0.771,1.293-0.572l0,0l12.501,4.833l0,0c0.514,0.199,0.77,0.778,0.57,1.293C256.982,335.376,256.404,335.632,255.889,335.433L255.889,335.433z"></path></g></g><g><g><path style="fill:#FFFFFF;stroke:#000000;stroke-linecap:round;stroke-linejoin:round;" d="M244.111,340.6l12.5-4.833l0,0c0.516-0.199,0.771-0.778,0.572-1.293c-0.199-0.516-0.779-0.771-1.293-0.572l0,0l-12.501,4.833l0,0c-0.515,0.199-0.771,0.778-0.572,1.293C243.017,340.543,243.596,340.799,244.111,340.6L244.111,340.6z"></path></g><g><path style="fill:#FFFFFF;stroke:#000000;stroke-linecap:round;stroke-linejoin:round;" d="M255.889,340.6l-12.5-4.833l0,0c-0.516-0.199-0.771-0.778-0.572-1.293c0.199-0.516,0.778-0.771,1.293-0.572l0,0l12.501,4.833l0,0c0.514,0.199,0.77,0.778,0.57,1.293C256.982,340.543,256.404,340.799,255.889,340.6L255.889,340.6z"></path></g></g></g></g><g><g><path style="fill:#6E6E6E;stroke:#000000;stroke-linecap:round;stroke-linejoin:round;" d="M271,294.5l-21,12l-21-12c0,0-5.5,16.167-8.7,31c4,3.5,29.7,4.125,29.7,4.125s25.699-0.625,29.699-4.125C276.5,310.667,271,294.5,271,294.5z"></path><g><path style="fill:#505050;" d="M228.436,297.875c0,0.5,4.25,8.125,6.125,9.25s16.375-0.125,16.125-0.5S228.436,297.875,228.436,297.875z"></path><path style="fill:#505050;" d="M271.564,297.875c0,0.5-4.25,8.125-6.125,9.25s-16.375-0.125-16.125-0.5S271.564,297.875,271.564,297.875z"></path></g></g><g><g><g><path style="fill:#F36591;stroke:#000000;stroke-linecap:round;stroke-linejoin:round;" d="M250,306.5l-7,24c0,0-7.5-6-7-8.5c7-8,9.5-13,9.5-13L250,306.5z"></path><path style="fill:#F36591;stroke:#000000;stroke-linecap:round;stroke-linejoin:round;" d="M233,299.5c0,0,2.6,7,9,12c3,0.5,8.249-5.084,8.249-5.084L233,299.5z"></path></g><g><path style="fill:#F36591;stroke:#000000;stroke-linecap:round;stroke-linejoin:round;" d="M250,306.5l7,24c0,0,7.5-6,7-8.5c-7-8-9.5-13-9.5-13L250,306.5z"></path><path style="fill:#F36591;stroke:#000000;stroke-linecap:round;stroke-linejoin:round;" d="M267,299.5c0,0-2.6,7-9,12c-3,0.5-8.249-5.084-8.249-5.084L267,299.5z"></path></g></g><g><g><path style="fill:#6E6E6E;stroke:#000000;stroke-linecap:round;stroke-linejoin:round;" d="M249.885,306.583c0.083-0.833-0.083-2.167-0.5-3.167c-9-7.583-13.75-23.666-13.75-23.666s-10,4.166-15.417,9.75C226.437,299.035,244.652,305.952,249.885,306.583z"></path><path style="fill:#FFFFFF;" d="M247.825,302.485l-3.189-3.152c-4-0.833-15.514-7.61-19.667-13.178l-1.791,1.366C226.226,291.365,235.718,299.833,247.825,302.485z"></path></g><g><path style="fill:#6E6E6E;stroke:#000000;stroke-linecap:round;stroke-linejoin:round;" d="M250.115,306.583c-0.084-0.833,0.082-2.167,0.5-3.167c9-7.583,13.75-23.666,13.75-23.666s10,4.166,15.416,9.75C273.563,299.035,255.348,305.952,250.115,306.583z"></path><path style="fill:#FFFFFF;" d="M252.176,302.485l3.189-3.152c4-0.833,15.514-7.61,19.667-13.178l1.791,1.366C273.773,291.365,264.281,299.833,252.176,302.485z"></path></g></g></g></g></g></g></g></svg>