<svg xmlns="http://www.w3.org/2000/svg" width="500" height="500" version="1.1"><g id="a9023"><g><g><g><path style="fill:#FEFEFF;stroke:#000000;stroke-linecap:round;stroke-linejoin:round;" d="M225.292,288.017c0,0-3.5,3.5-4.5,5.25s-7.313,15.108-9.313,16.608s-7.938,7.813-8.188,9.313s3.75,8.063,3.75,8.063s11.166,4.417,15.166,6.083c-0.25-0.75,7.584-34.816,7.584-34.816L225.292,288.017z"></path><path style="fill:#E4E0F3;" d="M207.542,325.5c0,0-2.75-3.25-2.75-5.5c2.25-0.25,6.5,2.75,6.5,2.75s7,2,11-7.25c1,7.5-0.75,14.25-0.75,14.25S211.792,326.25,207.542,325.5z"></path><g><g><path style="fill:#FEFEFF;stroke:#000000;stroke-linecap:round;stroke-linejoin:round;" d="M206.542,325.667c0,0-1.167,5.667-2,6.5C203.708,333,202.875,334,202.875,334l0.833,1.667l15.584,5.083c0,0,2.083-4.75,2.75-8.75C220.708,329.833,213.542,326.334,206.542,325.667z"></path></g><g><circle style="fill:#2A2A2B;stroke:#000000;stroke-linecap:round;stroke-linejoin:round;" cx="208.309" cy="330.682" r="2.583"></circle><g><path style="fill:#FFFFFF;" d="M206.895,332.079c-0.008,0.021-0.014,0.032-0.015,0.032c0.157-0.265,1.547-1.398,2.745-2.297l0,0c0.182-0.137,0.219-0.394,0.082-0.575c-0.136-0.181-0.394-0.218-0.574-0.082l0,0c-1.885,1.413-2.9,2.31-3.018,2.662l0,0c-0.072,0.216,0.045,0.447,0.26,0.52C206.59,332.41,206.822,332.294,206.895,332.079L206.895,332.079z"></path></g><g><path style="fill:#FFFFFF;" d="M206.824,329.127l1.779,3.422l0,0c0.104,0.201,0.354,0.28,0.554,0.175c0.201-0.104,0.279-0.352,0.176-0.553l0,0l-1.779-3.422l0,0c-0.104-0.202-0.354-0.28-0.554-0.175C206.799,328.678,206.721,328.926,206.824,329.127L206.824,329.127z"></path></g></g><path style="fill:#E4E0F3;" d="M215.104,328.25c0,0,1.688,5.25,0.938,10.25c1.25,1.25,3.125,1.625,3.125,1.625s2.156-6.188,2.438-7.906C220.511,330.25,215.104,328.25,215.104,328.25z"></path></g><path style="fill:none;stroke:#000000;stroke-linecap:round;stroke-linejoin:round;" d="M211.875,327c0,0,3.469,2.244,1.833,6.333c-1.666,4.167-6.333,3.5-6.333,3.5"></path></g><g><path style="fill:#FEFEFF;stroke:#000000;stroke-linecap:round;stroke-linejoin:round;" d="M274.708,288.017c0,0,3.5,3.5,4.5,5.25s7.313,15.108,9.313,16.608s7.938,7.813,8.188,9.313s-3.75,8.063-3.75,8.063s-11.166,4.417-15.166,6.083c0.25-0.75-7.584-34.816-7.584-34.816L274.708,288.017z"></path><path style="fill:#E4E0F3;" d="M292.458,325.5c0,0,2.75-3.25,2.75-5.5c-2.25-0.25-6.5,2.75-6.5,2.75s-7,2-11-7.25c-1,7.5,0.75,14.25,0.75,14.25S288.208,326.25,292.458,325.5z"></path><g><g><path style="fill:#FEFEFF;stroke:#000000;stroke-linecap:round;stroke-linejoin:round;" d="M293.458,325.667c0,0,1.167,5.667,2,6.5c0.834,0.833,1.667,1.833,1.667,1.833l-0.833,1.667l-15.584,5.083c0,0-2.083-4.75-2.75-8.75C279.292,329.833,286.458,326.334,293.458,325.667z"></path></g><g><circle style="fill:#2A2A2B;stroke:#000000;stroke-linecap:round;stroke-linejoin:round;" cx="291.691" cy="330.682" r="2.583"></circle><g><path style="fill:#FFFFFF;" d="M293.106,332.079c0.007,0.021,0.014,0.032,0.014,0.032c-0.156-0.265-1.547-1.398-2.745-2.297l0,0c-0.182-0.137-0.218-0.394-0.082-0.575c0.136-0.181,0.394-0.218,0.575-0.082l0,0c1.885,1.413,2.899,2.31,3.018,2.662l0,0c0.071,0.216-0.045,0.447-0.26,0.52C293.41,332.41,293.178,332.294,293.106,332.079L293.106,332.079z"></path></g><g><path style="fill:#FFFFFF;" d="M293.176,329.127l-1.779,3.422l0,0c-0.104,0.201-0.353,0.28-0.554,0.175c-0.201-0.104-0.279-0.352-0.176-0.553l0,0l1.779-3.422l0,0c0.105-0.202,0.354-0.28,0.555-0.175C293.202,328.678,293.28,328.926,293.176,329.127L293.176,329.127z"></path></g></g><path style="fill:#E4E0F3;" d="M284.896,328.25c0,0-1.688,5.25-0.938,10.25c-1.25,1.25-3.125,1.625-3.125,1.625s-2.156-6.188-2.438-7.906C279.489,330.25,284.896,328.25,284.896,328.25z"></path></g><path style="fill:none;stroke:#000000;stroke-linecap:round;stroke-linejoin:round;" d="M288.125,327c0,0-3.468,2.244-1.833,6.333c1.666,4.167,6.333,3.5,6.333,3.5"></path></g></g><g><path style="fill:#FEFEFF;stroke:#000000;stroke-linecap:round;stroke-linejoin:round;" d="M275.5,316.75c0-4.75-1-16.5-1-16.5s1.25-8,1.25-11c-5.25-6.75-13.5-8-13.5-8L250,284.5l-12.25-3.25c0,0-8.25,1.25-13.5,8c0,3,1.25,11,1.25,11s-1,11.75-1,16.5C222.25,320,221,323,221,323s1.25,4,2.25,4.25s9,5.75,26.75,5.75s25.75-5.5,26.75-5.75S279,323,279,323S277.75,320,275.5,316.75z"></path><g><path style="fill:#2A2A2A;stroke:#000000;stroke-linecap:round;stroke-linejoin:round;" d="M229.5,284.75C226.75,291.5,229,328,229,328s2.75,1.5,5,0.5c-1.5-6.75-1-45.75-1-45.75L229.5,284.75z"></path><path style="fill:#2A2A2A;stroke:#000000;stroke-linecap:round;stroke-linejoin:round;" d="M270.5,284.75C273.25,291.5,271,328,271,328s-2.75,1.5-5,0.5c1.5-6.75,1-45.75,1-45.75L270.5,284.75z"></path></g><g><path style="fill:#2A2A2A;stroke:#000000;stroke-linecap:round;stroke-linejoin:round;" d="M279.557,342l-29.558-1.084L220.443,342c0,0-19.125,51-18.777,61c2.781,2.334,13.213,5.666,16.343,5c1.043-1.666,2.086-3,2.086-3s2.087,0,3.478,1c1.392,1,2.087,2.333,3.478,3s12.693,3.334,19.647,2.334C247.74,410,248.436,409,248.436,409h3.129c0,0,0.695,1,1.738,2.334c6.953,1,18.256-1.667,19.646-2.334s2.086-2,3.479-3c1.391-1,3.477-1,3.477-1s1.043,1.334,2.086,3c3.131,0.666,13.563-2.666,16.344-5C298.682,393,279.557,342,279.557,342z"></path><g><path style="fill:none;stroke:#FFFFFF;stroke-linecap:round;stroke-linejoin:round;" d="M202.725,400.348c0,0,9.286,4.843,16.112,4.249c1.655-0.855,3.146-1.543,3.146-1.543s2.5-0.034,4.013,0.944c1.514,0.979,4.041,2.945,4.708,2.937c0.667-0.01,14.708,2.966,16.528,1.94c1.804-2.191,1.804-2.191,1.804-2.191"></path><path style="fill:none;stroke:#FFFFFF;stroke-linecap:round;stroke-linejoin:round;" d="M203.195,400.467c0,0,1.424-0.957,1.831-0.932c0.416,0.65,0.84,1.988,0.84,1.988"></path><path style="fill:none;stroke:#FFFFFF;stroke-linecap:round;stroke-linejoin:round;" d="M208.659,402.56c0,0,1.369-1.035,1.776-1.032c0.451,0.627,0.95,1.939,0.95,1.939"></path><path style="fill:none;stroke:#FFFFFF;stroke-linecap:round;stroke-linejoin:round;" d="M215.514,404.238c0,0,1.07-1.342,1.465-1.439c0.592,0.495,1.4,1.644,1.4,1.644"></path><path style="fill:none;stroke:#FFFFFF;stroke-linecap:round;stroke-linejoin:round;" d="M223.74,403.034c0,0,1.373-1.029,1.78-1.025c0.448,0.629,0.941,1.943,0.941,1.943"></path><path style="fill:none;stroke:#FFFFFF;stroke-linecap:round;stroke-linejoin:round;" d="M229.671,406.247c0,0,1.245-1.18,1.65-1.224c0.517,0.574,1.159,1.823,1.159,1.823"></path><path style="fill:none;stroke:#FFFFFF;stroke-linecap:round;stroke-linejoin:round;" d="M236.762,407.627c0,0,1.211-1.215,1.616-1.27c0.533,0.56,1.209,1.789,1.209,1.789"></path><path style="fill:none;stroke:#FFFFFF;stroke-linecap:round;stroke-linejoin:round;" d="M243.838,408.599c0,0,1.029-1.373,1.422-1.482c0.606,0.479,1.448,1.603,1.448,1.603"></path></g><g><path style="fill:none;stroke:#FFFFFF;stroke-linecap:round;stroke-linejoin:round;" d="M297.188,400.348c0,0-9.286,4.843-16.112,4.249c-1.654-0.855-3.145-1.543-3.145-1.543s-2.5-0.034-4.014,0.944c-1.514,0.979-4.041,2.945-4.707,2.937c-0.667-0.01-14.709,2.966-16.528,1.94c-1.805-2.191-1.805-2.191-1.805-2.191"></path><path style="fill:none;stroke:#FFFFFF;stroke-linecap:round;stroke-linejoin:round;" d="M296.719,400.467c0,0-1.425-0.957-1.832-0.932c-0.415,0.65-0.84,1.988-0.84,1.988"></path><path style="fill:none;stroke:#FFFFFF;stroke-linecap:round;stroke-linejoin:round;" d="M291.254,402.56c0,0-1.368-1.035-1.775-1.032c-0.451,0.627-0.949,1.939-0.949,1.939"></path><path style="fill:none;stroke:#FFFFFF;stroke-linecap:round;stroke-linejoin:round;" d="M284.399,404.238c0,0-1.069-1.342-1.465-1.439c-0.593,0.495-1.4,1.644-1.4,1.644"></path><path style="fill:none;stroke:#FFFFFF;stroke-linecap:round;stroke-linejoin:round;" d="M276.174,403.034c0,0-1.373-1.029-1.781-1.025c-0.447,0.629-0.941,1.943-0.941,1.943"></path><path style="fill:none;stroke:#FFFFFF;stroke-linecap:round;stroke-linejoin:round;" d="M270.242,406.247c0,0-1.245-1.18-1.65-1.224c-0.518,0.574-1.158,1.823-1.158,1.823"></path><path style="fill:none;stroke:#FFFFFF;stroke-linecap:round;stroke-linejoin:round;" d="M263.152,407.627c0,0-1.212-1.215-1.616-1.27c-0.533,0.56-1.21,1.789-1.21,1.789"></path><path style="fill:none;stroke:#FFFFFF;stroke-linecap:round;stroke-linejoin:round;" d="M256.076,408.599c0,0-1.029-1.373-1.422-1.482c-0.606,0.479-1.449,1.603-1.449,1.603"></path></g><g><line style="fill:none;stroke:#000000;stroke-linecap:round;stroke-linejoin:round;" x1="248.436" y1="409" x2="246.667" y2="357"></line><path style="fill:none;stroke:#000000;stroke-linecap:round;stroke-linejoin:round;" d="M253.667,403.667c0,0,2.332-35.333,3.666-44.333"></path><path style="fill:none;stroke:#000000;stroke-linecap:round;stroke-linejoin:round;" d="M281,400c0-1-7.999-40-12.333-48"></path><path style="fill:none;stroke:#000000;stroke-linecap:round;stroke-linejoin:round;" d="M220,401c0,0,7.333-33.334,10.333-45"></path></g></g><path style="fill:#2A2A2A;stroke:#000000;stroke-linecap:round;stroke-linejoin:round;" d="M276.941,329.166c0,0-4.237-2.833-8.981-2c-4.743,0.833-17.96,5.5-17.96,5.5s-13.217-4.667-17.961-5.5c-4.746-0.833-8.981,2-8.981,2l-3.558,13.833c0,0,14.402,3,18.13,4.667c5.762,1.333,11.692-1.667,12.37-2.5c0.677,0.833,6.608,3.833,12.368,2.5c3.729-1.667,18.132-4.667,18.132-4.667L276.941,329.166z"></path><g><g><path style="fill:#FEFEFF;" d="M222.606,333.395c0,0,1.237-0.215,1.641,0.924c0.403,1.138,0.384,2.618,2.086,4.305c1.702,1.686,3.477,2.081,3.599,0.981c0.123-1.1-2.002-2.396-2.002-2.396s0.604-0.871,1.471-0.458c0.867,0.414,1.869,0.395,2.108,2.968c0.24,2.573-0.195,2.248-0.195,2.248s-0.391-0.422-0.528-0.134c-0.138,0.289,0.09,2.193,1.087,1.889c0.996-0.306,2.371-3.386,0.942-5.698c1.734,0.826,2.036,1.68,2.212,3.395c0.176,1.716-0.914,2.117-0.954,2.548s2.754,1.762,3.212-1.778c0.912,0.269,4.215,0.731,4.107-2.417c-0.896,0.59-3.734,1.98-4.852,0.952c-1.116-1.03-1.909-2.542-1.909-2.542s2.316-1.142,1.767-2.469c-0.55-1.326-3.094,0.488-3.43,0.399c-0.335-0.089-3.263-0.94-3.85-1.693c-0.587-0.752-2.148,0.041-2.029,1.279c-0.581-0.467,0.166-1.389,0.487-2.063c-0.534-0.419-0.812,0.064-0.812,0.064s-1.048,0.067-1.309,1.457C225.189,333.679,223.827,332.37,222.606,333.395z"></path><g><path style="fill:#FEFEFF;" d="M229.036,330.074c-0.002,0,0,0-0.002,0c0.349-0.004,1.152,0.111,1.278,0.483c0.151,0.452-0.593,0.971-0.601,0.977c-0.163,0.108-0.262,0.293-0.258,0.489c0.005,0.294-0.096,1.425-0.661,1.554c-0.584,0.133-0.83-0.51-0.873-0.641c-0.085-0.252-0.333-0.418-0.599-0.394c-0.006,0.001-0.913,0.068-1.222-0.521c-0.265-0.504,0.424-1.054,0.432-1.059c0.144-0.114,0.228-0.292,0.221-0.474c-0.009-0.295,0.073-1.185,0.553-1.37c0.266-0.104,0.483-0.114,0.667-0.029c0.289,0.13,0.468,0.479,0.513,0.603C228.568,329.922,228.791,330.079,229.036,330.074z M226.891,328.05c-1.07,0.416-1.311,1.756-1.283,2.482c-0.007-0.186,0.076-0.363,0.224-0.477c-0.507,0.39-1.314,1.414-0.746,2.498c0.667,1.271,2.274,1.136,2.343,1.131c-0.269,0.023-0.519-0.142-0.6-0.398c0.195,0.618,0.911,1.706,2.221,1.407c1.259-0.289,1.566-1.827,1.551-2.691c0.004,0.197-0.095,0.383-0.261,0.49c0.558-0.363,1.41-1.256,1.059-2.301c-0.425-1.263-2.185-1.266-2.384-1.263c0.248-0.004,0.472,0.151,0.552,0.388c-0.03-0.092-0.329-0.902-1.106-1.264C228.132,327.901,227.595,327.777,226.891,328.05z"></path></g><g><path style="fill:#FEFEFF;" d="M226.178,330.373c-0.036,0.678-0.047,2.315,0.646,2.861c0.585,0.458,1.623,0.236,2.042,0.119c0.539-0.148,1.222-0.435,1.414-0.941c0.011-0.026,0.018-0.055,0.024-0.081c0.203-0.943-0.335-2.555-0.398-2.735c-0.07-0.205-0.251-0.354-0.467-0.381c-0.229-0.03-2.259-0.261-3.135,0.831C226.229,330.14,226.186,330.254,226.178,330.373z M228.823,329.968L228.823,329.968c0.194,0.567,0.464,1.644,0.361,2.12c0.006-0.026,0.014-0.056,0.024-0.081c0.016-0.043,0.034-0.063,0.034-0.063c-0.24,0.266-1.446,0.535-1.722,0.383c0,0,0.004,0.001,0.01,0.007c0.007,0.006,0.01,0.009,0.01,0.009c-0.158-0.179-0.263-1.089-0.218-1.907c-0.007,0.121-0.051,0.234-0.126,0.328c0.374-0.465,1.571-0.479,2.094-0.413C229.075,330.322,228.894,330.175,228.823,329.968z"></path></g></g><g><path style="fill:#FEFEFF;" d="M277.396,333.395c0,0-1.237-0.215-1.641,0.924c-0.403,1.138-0.384,2.618-2.087,4.305c-1.701,1.686-3.477,2.081-3.598,0.981c-0.123-1.1,2.002-2.396,2.002-2.396s-0.604-0.871-1.471-0.458c-0.867,0.414-1.869,0.395-2.109,2.968s0.195,2.248,0.195,2.248s0.391-0.422,0.529-0.134c0.138,0.289-0.09,2.193-1.087,1.889c-0.996-0.306-2.371-3.386-0.942-5.698c-1.734,0.826-2.037,1.68-2.213,3.395c-0.175,1.716,0.915,2.117,0.955,2.548c0.039,0.431-2.754,1.762-3.212-1.778c-0.913,0.269-4.215,0.731-4.107-2.417c0.896,0.59,3.733,1.98,4.851,0.952c1.117-1.03,1.91-2.542,1.91-2.542s-2.316-1.142-1.768-2.469c0.551-1.326,3.095,0.488,3.43,0.399c0.336-0.089,3.264-0.94,3.851-1.693c0.587-0.752,2.148,0.041,2.028,1.279c0.582-0.467-0.166-1.389-0.486-2.063c0.533-0.419,0.811,0.064,0.811,0.064s1.049,0.067,1.309,1.457C274.813,333.679,276.174,332.37,277.396,333.395z"></path><g><path style="fill:#FEFEFF;" d="M271.518,329.692c0.045-0.123,0.224-0.473,0.512-0.603c0.184-0.085,0.402-0.075,0.668,0.029c0.479,0.186,0.562,1.075,0.553,1.37c-0.008,0.182,0.076,0.359,0.221,0.474c0.008,0.005,0.695,0.555,0.432,1.059c-0.309,0.59-1.217,0.522-1.223,0.521c-0.266-0.024-0.514,0.142-0.598,0.394c-0.043,0.131-0.289,0.773-0.873,0.641c-0.565-0.129-0.666-1.26-0.661-1.554c0.003-0.196-0.095-0.381-0.258-0.489c-0.008-0.006-0.752-0.524-0.601-0.977c0.126-0.372,0.93-0.487,1.277-0.483c-0.001,0,0,0-0.001,0C271.211,330.079,271.434,329.922,271.518,329.692z M271.543,328.053c-0.777,0.361-1.076,1.172-1.107,1.264c0.08-0.236,0.305-0.392,0.553-0.388c-0.199-0.003-1.959,0-2.384,1.263c-0.353,1.045,0.501,1.938,1.058,2.301c-0.165-0.107-0.264-0.293-0.26-0.49c-0.016,0.864,0.291,2.402,1.551,2.691c1.31,0.299,2.025-0.789,2.221-1.407c-0.082,0.257-0.331,0.422-0.6,0.398c0.068,0.005,1.676,0.141,2.342-1.131c0.569-1.084-0.238-2.108-0.746-2.498c0.148,0.113,0.231,0.291,0.225,0.477c0.027-0.727-0.213-2.066-1.283-2.482C272.407,327.777,271.87,327.901,271.543,328.053z"></path></g><g><path style="fill:#FEFEFF;" d="M273.697,330.046c-0.875-1.092-2.905-0.861-3.135-0.831c-0.215,0.027-0.396,0.176-0.467,0.381c-0.063,0.181-0.602,1.792-0.397,2.735c0.007,0.026,0.014,0.055,0.024,0.081c0.191,0.507,0.875,0.793,1.414,0.941c0.418,0.117,1.457,0.339,2.042-0.119c0.692-0.546,0.681-2.184,0.646-2.861C273.816,330.254,273.773,330.14,273.697,330.046z M270.711,330.35c0.521-0.066,1.72-0.052,2.094,0.413c-0.075-0.094-0.119-0.207-0.126-0.328c0.045,0.818-0.06,1.729-0.218,1.907c0,0,0.003-0.003,0.01-0.009c0.006-0.006,0.01-0.007,0.01-0.007c-0.275,0.152-1.482-0.117-1.722-0.383c0,0,0.019,0.021,0.034,0.063c0.011,0.025,0.018,0.055,0.024,0.081c-0.103-0.477,0.167-1.553,0.361-2.12l0,0C271.107,330.175,270.927,330.322,270.711,330.35z"></path></g></g></g><g><path style="fill:#FEFEFF;stroke:#000000;stroke-linecap:round;stroke-linejoin:round;" d="M241.124,278.5c0,0.75,8.744,6,8.744,6s-3.445,5.75-5.829,11.5c-6.094-4.75-9.539-13.25-9.539-13.25L241.124,278.5z"></path><path style="fill:#FEFEFF;stroke:#000000;stroke-linecap:round;stroke-linejoin:round;" d="M258.876,278.5c0,0.75-8.744,6-8.744,6s3.445,5.75,5.83,11.5c6.094-4.75,9.538-13.25,9.538-13.25L258.876,278.5z"></path></g></g></g></g></svg>