<svg xmlns="http://www.w3.org/2000/svg" width="500" height="500" version="1.1"><g id="a9024"><g><g><path style="fill:#FFFFFF;stroke:#000000;stroke-linecap:round;stroke-linejoin:round;" d="M291.211,366.75L250,371l-41.21-4.25c0,0-5.271,8-5.032,9.75c1.677-0.25,3.674-1.332,3.674-1.332s0.159,3,1.917,5.333c2.636-0.083,5.271-2.583,5.271-2.583s0.639,3.583,2.476,5.083c3.035-0.25,4.952-2.333,4.952-2.333s1.357,3.332,3.035,4.332c2.636-0.5,5.031-3,5.031-3s1.518,3.834,3.435,4.584c3.115-1,4.472-3.084,4.472-3.084s1.997,3.834,3.674,4.584c3.115-1,4.232-3.584,4.232-3.584s1.677,3.5,4.073,4.5c2.396-1,4.073-4.5,4.073-4.5s1.118,2.584,4.233,3.584c1.677-0.75,3.673-4.584,3.673-4.584s1.358,2.084,4.473,3.084c1.917-0.75,3.435-4.584,3.435-4.584s2.396,2.5,5.031,3c1.677-1,3.034-4.332,3.034-4.332s1.917,2.083,4.952,2.333c1.837-1.5,2.476-5.083,2.476-5.083s2.636,2.5,5.271,2.583c1.758-2.333,1.917-5.333,1.917-5.333s1.997,1.082,3.675,1.332C296.481,374.75,291.211,366.75,291.211,366.75z"></path><g><g><g><ellipse transform="matrix(0.9655 0.2606 -0.2606 0.9655 105.7755 -41.8205)" style="fill:#B7B9C6;" cx="210.605" cy="378" rx="0.375" ry="0.718"></ellipse><ellipse transform="matrix(0.9897 -0.1432 0.1432 0.9897 -51.9938 34.2339)" style="fill:#B7B9C6;" cx="211.761" cy="378.219" rx="0.375" ry="0.718"></ellipse><ellipse transform="matrix(0.7524 0.6587 -0.6587 0.7524 300.5576 -44.6216)" style="fill:#B7B9C6;" cx="209.636" cy="377.5" rx="0.375" ry="0.718"></ellipse></g><g><ellipse transform="matrix(0.9862 0.1655 -0.1655 0.9862 65.9684 -30.8587)" style="fill:#B7B9C6;" cx="218.207" cy="380.532" rx="0.375" ry="0.718"></ellipse><ellipse transform="matrix(0.9711 -0.2385 0.2385 0.9711 -84.4662 63.3204)" style="fill:#B7B9C6;" cx="219.378" cy="380.636" rx="0.375" ry="0.719"></ellipse><ellipse transform="matrix(0.8129 0.5823 -0.5823 0.8129 261.9952 -55.375)" style="fill:#B7B9C6;" cx="217.193" cy="380.129" rx="0.375" ry="0.718"></ellipse></g><g><ellipse transform="matrix(0.9862 0.1655 -0.1655 0.9862 66.3721 -32.0798)" style="fill:#B7B9C6;" cx="225.738" cy="382.344" rx="0.375" ry="0.718"></ellipse><ellipse transform="matrix(0.9711 -0.2385 0.2385 0.9711 -84.6811 65.1693)" style="fill:#B7B9C6;" cx="226.91" cy="382.449" rx="0.375" ry="0.719"></ellipse><ellipse transform="matrix(0.8129 0.5823 -0.5823 0.8129 264.4595 -59.4218)" style="fill:#B7B9C6;" cx="224.725" cy="381.942" rx="0.375" ry="0.718"></ellipse></g><g><ellipse transform="matrix(0.992 0.1264 -0.1264 0.992 50.4077 -26.5057)" style="fill:#B7B9C6;" cx="233.992" cy="383.814" rx="0.375" ry="0.718"></ellipse><ellipse transform="matrix(0.9611 -0.2761 0.2761 0.9611 -96.8452 79.8501)" style="fill:#B7B9C6;" cx="235.167" cy="383.873" rx="0.375" ry="0.719"></ellipse><ellipse transform="matrix(0.8352 0.5499 -0.5499 0.8352 249.2342 -64.9259)" style="fill:#B7B9C6;" cx="232.963" cy="383.451" rx="0.375" ry="0.718"></ellipse></g><g><ellipse transform="matrix(0.9996 0.03 -0.03 0.9996 11.6599 -7.0824)" style="fill:#B7B9C6;" cx="242.066" cy="385.378" rx="0.375" ry="0.719"></ellipse><ellipse transform="matrix(0.9301 -0.3673 0.3673 0.9301 -124.5405 116.2933)" style="fill:#B7B9C6;" cx="243.241" cy="385.324" rx="0.375" ry="0.718"></ellipse><ellipse transform="matrix(0.8838 0.4679 -0.4679 0.8838 208.2301 -68.0116)" style="fill:#B7B9C6;" cx="241.008" cy="385.117" rx="0.375" ry="0.719"></ellipse></g></g><g><g><ellipse transform="matrix(-0.9655 0.2606 -0.2606 -0.9655 667.2916 667.53)" style="fill:#B7B9C6;" cx="289.395" cy="378" rx="0.375" ry="0.718"></ellipse><ellipse transform="matrix(-0.9897 -0.1432 0.1432 -0.9897 519.3284 793.8257)" style="fill:#B7B9C6;" cx="288.239" cy="378.219" rx="0.375" ry="0.718"></ellipse><ellipse transform="matrix(-0.7524 0.6587 -0.6587 -0.7524 757.4939 470.2771)" style="fill:#B7B9C6;" cx="290.364" cy="377.5" rx="0.375" ry="0.718"></ellipse></g><g><ellipse transform="matrix(-0.9862 0.1657 -0.1657 -0.9862 622.7359 709.1208)" style="fill:#B7B9C6;" cx="281.794" cy="380.532" rx="0.374" ry="0.718"></ellipse><ellipse transform="matrix(-0.9711 -0.2385 0.2385 -0.9711 462.3425 817.2252)" style="fill:#B7B9C6;" cx="280.622" cy="380.636" rx="0.375" ry="0.718"></ellipse><ellipse transform="matrix(-0.8129 0.5823 -0.5823 -0.8129 734.0804 524.4598)" style="fill:#B7B9C6;" cx="282.808" cy="380.129" rx="0.375" ry="0.718"></ellipse></g><g><ellipse transform="matrix(-0.9862 0.1657 -0.1657 -0.9862 608.0778 713.9685)" style="fill:#B7B9C6;" cx="274.263" cy="382.344" rx="0.374" ry="0.718"></ellipse><ellipse transform="matrix(-0.9711 -0.2385 0.2385 -0.9711 447.0651 819.0013)" style="fill:#B7B9C6;" cx="273.09" cy="382.449" rx="0.375" ry="0.718"></ellipse><ellipse transform="matrix(-0.8129 0.5823 -0.5823 -0.8129 721.4823 532.1316)" style="fill:#B7B9C6;" cx="275.276" cy="381.942" rx="0.375" ry="0.718"></ellipse></g><g><ellipse transform="matrix(-0.992 0.1264 -0.1264 -0.992 578.4114 730.9132)" style="fill:#B7B9C6;" cx="266.008" cy="383.814" rx="0.375" ry="0.718"></ellipse><ellipse transform="matrix(-0.961 -0.2764 0.2764 -0.961 413.2276 825.998)" style="fill:#B7B9C6;" cx="264.833" cy="383.873" rx="0.374" ry="0.719"></ellipse><ellipse transform="matrix(-0.8352 0.5499 -0.5499 -0.8352 700.9293 556.8884)" style="fill:#B7B9C6;" cx="267.037" cy="383.451" rx="0.375" ry="0.719"></ellipse></g><g><ellipse transform="matrix(-0.9996 0.0299 -0.0299 -0.9996 527.2897 762.8629)" style="fill:#B7B9C6;" cx="257.935" cy="385.378" rx="0.375" ry="0.719"></ellipse><ellipse transform="matrix(-0.9301 -0.3673 0.3673 -0.9301 354.0196 838.0274)" style="fill:#B7B9C6;" cx="256.759" cy="385.324" rx="0.375" ry="0.718"></ellipse><ellipse transform="matrix(-0.8838 0.4679 -0.4679 -0.8838 668.0926 604.2712)" style="fill:#B7B9C6;" cx="258.992" cy="385.117" rx="0.375" ry="0.719"></ellipse></g></g><g><ellipse transform="matrix(0.9996 -0.0287 0.0287 0.9996 -10.9665 7.3208)" style="fill:#B7B9C6;" cx="249.966" cy="386.318" rx="0.375" ry="0.718"></ellipse><ellipse transform="matrix(0.9072 -0.4207 0.4207 0.9072 -139.1696 141.4962)" style="fill:#B7B9C6;" cx="251.136" cy="386.196" rx="0.375" ry="0.718"></ellipse><ellipse transform="matrix(0.9095 0.4157 -0.4157 0.9095 183.0177 -68.5201)" style="fill:#B7B9C6;" cx="248.895" cy="386.119" rx="0.375" ry="0.718"></ellipse></g></g></g><g><g><g><path style="fill:#FFFFFF;stroke:#000000;stroke-linecap:round;stroke-linejoin:round;" d="M286.333,308c0,0-2.833-11.332-8.833-18.166s-15.667-9.167-15.667-9.167l-11.833,7l-11.833-7c0,0-9.667,2.333-15.667,9.167S213.667,308,213.667,308s-9.5,16.333-17.667,23c0,8,4,12.334,4,12.334L212.167,349c0,0,7.833-3.5,8.833-4.667s4.333-19.833,4.333-19.833l24.667,5l24.667-5c0,0,3.333,18.666,4.333,19.833s8.833,4.667,8.833,4.667L300,343.334c0,0,4-4.334,4-12.334C295.833,324.333,286.333,308,286.333,308z"></path><path style="fill:#E4E0F3;" d="M261.834,287.167L250,291.834l-11.833-4.667L237,298.334c0,0,8,7.334,13,8c5.002-0.666,13-8,13-8L261.834,287.167z"></path><g><path style="fill:none;stroke:#000000;stroke-linecap:round;stroke-linejoin:round;" d="M256.333,301.667c-0.519-0.906-1.63-2.305-2.104-2.889c0.87-0.767,1.916-1.733,2.104-2.111C255.666,295.5,254,293.5,254,293.5h-1.834v26.167l0.834,0.167c0,0,3-2.5,3.333-3.167c-0.519-0.906-1.63-2.305-2.104-2.889c0.87-0.767,1.916-1.733,2.104-2.111c-0.519-0.906-1.63-2.305-2.104-2.889c0.87-0.767,1.916-1.733,2.104-2.111c-0.519-0.906-1.63-2.305-2.104-2.889C255.099,303.012,256.145,302.045,256.333,301.667z"></path><path style="fill:none;stroke:#000000;stroke-linecap:round;stroke-linejoin:round;" d="M245.771,303.778c-0.475,0.584-1.586,1.982-2.104,2.889c0.188,0.378,1.234,1.345,2.104,2.111c-0.475,0.584-1.586,1.982-2.104,2.889c0.188,0.378,1.234,1.345,2.104,2.111c-0.475,0.584-1.586,1.982-2.104,2.889c0.333,0.667,3.333,3.167,3.333,3.167l0.834-0.167V293.5H246c0,0-1.666,2-2.333,3.167c0.188,0.378,1.234,1.345,2.104,2.111c-0.475,0.584-1.586,1.982-2.104,2.889C243.855,302.045,244.901,303.012,245.771,303.778z"></path></g><path style="fill:#1F1E1F;stroke:#000000;stroke-linecap:round;stroke-linejoin:round;" d="M250,318.5c-3,0.166-6.5,0.5-6.5,0.5l6.5,13.667L256.5,319C256.5,319,252.998,318.666,250,318.5z"></path><g><path style="fill:#E4E0F3;" d="M275.167,309.167c0.333,1.333,2.666,9.667,3.333,12.5s-1.834,15.499-2.167,14.166S273,322.667,273,320.5S275.167,309.167,275.167,309.167z"></path><path style="fill:#E4E0F3;" d="M285.979,308.396c0,0,2.146,5.479,1.667,12c-2.167-0.833-3.667-3-3.667-3S284.063,312.5,285.979,308.396z"></path><path style="fill:#E4E0F3;" d="M224.833,309.167c-0.333,1.333-2.666,9.667-3.333,12.5s1.834,15.499,2.167,14.166S227,322.667,227,320.5S224.833,309.167,224.833,309.167z"></path><path style="fill:#E4E0F3;" d="M214.021,308.396c0,0-2.146,5.479-1.667,12c2.167-0.833,3.667-3,3.667-3S215.938,312.5,214.021,308.396z"></path></g><g><path style="fill:none;stroke:#000000;stroke-linecap:round;stroke-linejoin:round;" d="M275.166,288.167c0,0-3.166,8.666-3.666,12.833"></path><path style="fill:none;stroke:#000000;stroke-linecap:round;stroke-linejoin:round;" d="M224.834,288.167c0,0,3.166,8.666,3.666,12.833"></path></g></g><g><g><path style="fill:#FFFFFF;stroke:#000000;stroke-linecap:round;stroke-linejoin:round;" d="M286.688,348.375c0,0,4.479,8.625,5.646,10.125c4-1.5,11.334-5.833,11.334-5.833s-3.834-8.834-4.334-10.167C292.5,343.5,286.688,348.375,286.688,348.375z"></path><g><circle style="fill:#3D3C3D;stroke:#000000;stroke-linecap:round;stroke-linejoin:round;" cx="299" cy="345.166" r="1.333"></circle><circle style="fill:#3D3C3D;stroke:#000000;stroke-linecap:round;stroke-linejoin:round;" cx="300.333" cy="348.666" r="1.333"></circle><circle style="fill:#3D3C3D;stroke:#000000;stroke-linecap:round;stroke-linejoin:round;" cx="301.667" cy="352.166" r="1.333"></circle></g></g><g><path style="fill:#FFFFFF;stroke:#000000;stroke-linecap:round;stroke-linejoin:round;" d="M213.313,348.375c0,0-4.479,8.625-5.646,10.125c-4-1.5-11.334-5.833-11.334-5.833s3.834-8.834,4.334-10.167C207.5,343.5,213.313,348.375,213.313,348.375z"></path><g><circle style="fill:#3D3C3D;stroke:#000000;stroke-linecap:round;stroke-linejoin:round;" cx="201" cy="345.166" r="1.333"></circle><circle style="fill:#3D3C3D;stroke:#000000;stroke-linecap:round;stroke-linejoin:round;" cx="199.667" cy="348.666" r="1.333"></circle><circle style="fill:#3D3C3D;stroke:#000000;stroke-linecap:round;stroke-linejoin:round;" cx="198.333" cy="352.166" r="1.333"></circle></g></g></g><g><g><path style="fill:#3D3C3D;stroke:#000000;stroke-linecap:round;stroke-linejoin:round;" d="M301.358,344.067l0.625-3.47c0,0,5.4-5.273,9.802-4.789c0.241,1.516-3.574,9.939-7.38,11.947C303.158,347.267,301.358,344.067,301.358,344.067z"></path><path style="fill:#BA3C37;" d="M302.228,342.099c0,0,2.858-1.531,7.203-1.566c-0.587,1.17-0.841,1.566-0.841,1.566l-6.307,0.801L302.228,342.099z"></path><path style="fill:#3D3C3D;stroke:#000000;stroke-linecap:round;stroke-linejoin:round;" d="M299.411,340.051c0,0,0.609,0.51,1.144,0.581c0.438-0.076,1.115-0.481,1.326-0.479s0.254,2.588-0.313,3.27c-0.364-0.077-2.372-0.166-2.372-0.166C299.183,342.917,299.411,340.051,299.411,340.051z"></path><g><path style="fill:#3D3C3D;stroke:#000000;stroke-linecap:round;stroke-linejoin:round;" d="M299.38,343.31c-0.176,0.301-5.641,3.757-6.904,2.813c-1.263-0.944-5.987-10.506-4.626-14.271c1.668-0.435,10.469,6.39,11.741,8.35C300.024,341.87,299.38,343.31,299.38,343.31z"></path></g><path style="fill:#BA3C37;" d="M288.78,336.484c0,0,0.381,1.656,0.581,2.037c1.253-0.072,7.215,1.813,9.731,3.756c0.084-0.658-0.018-1.241-0.018-1.241S295.228,337.684,288.78,336.484z"></path></g><g><g><path style="fill:#3D3C3D;stroke:#000000;stroke-linecap:round;stroke-linejoin:round;" d="M198.642,344.067l-0.625-3.47c0,0-5.4-5.273-9.802-4.789c-0.241,1.516,3.574,9.939,7.38,11.947C196.842,347.267,198.642,344.067,198.642,344.067z"></path><path style="fill:#BA3C37;" d="M197.772,342.099c0,0-2.858-1.531-7.203-1.566c0.587,1.17,0.841,1.566,0.841,1.566l6.307,0.801L197.772,342.099z"></path></g><path style="fill:#3D3C3D;stroke:#000000;stroke-linecap:round;stroke-linejoin:round;" d="M200.589,340.051c0,0-0.609,0.51-1.144,0.581c-0.438-0.076-1.115-0.481-1.326-0.479s-0.254,2.588,0.313,3.27c0.364-0.077,2.372-0.166,2.372-0.166C200.817,342.917,200.589,340.051,200.589,340.051z"></path><g><path style="fill:#3D3C3D;stroke:#000000;stroke-linecap:round;stroke-linejoin:round;" d="M200.62,343.31c0.176,0.301,5.641,3.757,6.904,2.813c1.263-0.944,5.987-10.506,4.626-14.271c-1.668-0.435-10.469,6.39-11.741,8.35C199.976,341.87,200.62,343.31,200.62,343.31z"></path><path style="fill:#BA3C37;" d="M211.22,336.484c0,0-0.381,1.656-0.581,2.037c-1.253-0.072-7.215,1.813-9.731,3.756c-0.084-0.658,0.018-1.241,0.018-1.241S204.772,337.684,211.22,336.484z"></path></g></g></g></g><g><g><path style="fill:#6E6E6E;stroke:#000000;stroke-linecap:round;stroke-linejoin:round;" d="M266.443,282.667c0,0,2.666,9.501,2.833,11.667c1.167,2,5.167,8.333,5.667,12.999s-0.833,14.501-0.833,14.501l-13.5-3c0,0,1.667-22.834-0.5-30.834c0-4.833,1.333-7.333,1.333-7.333L266.443,282.667z"></path><g><path style="fill:#505050;" d="M261.483,318.167c0,0-0.001-9.334,0.813-10.167s5.039-1.333,6.503-1.833s5.689,1.499,5.853,2.833s-0.325,10.168-0.976,11.834C268.962,320.834,261.483,318.167,261.483,318.167z"></path></g></g><g><path style="fill:#6E6E6E;stroke:#000000;stroke-linecap:round;stroke-linejoin:round;" d="M233.557,282.667c0,0-2.666,9.501-2.833,11.667c-1.167,2-5.167,8.333-5.667,12.999s0.833,14.501,0.833,14.501l13.5-3c0,0-1.667-22.834,0.5-30.834c0-4.833-1.333-7.333-1.333-7.333L233.557,282.667z"></path><path style="fill:#505050;" d="M238.517,318.167c0,0,0.001-9.334-0.813-10.167s-5.039-1.333-6.503-1.833s-5.689,1.499-5.853,2.833s0.325,10.168,0.976,11.834C231.038,320.834,238.517,318.167,238.517,318.167z"></path></g></g><g><g><path style="fill:#514D4C;stroke:#000000;stroke-linecap:round;stroke-linejoin:round;" d="M231.666,376.5c0,0-5-2.834-11.833-2.167c5-11.667,11.333-26,11.333-26L231.666,376.5z"></path><path style="fill:#514D4C;stroke:#000000;stroke-linecap:round;stroke-linejoin:round;" d="M268.334,376.5c0,0,5-2.834,11.833-2.167c-5-11.667-11.333-26-11.333-26L268.334,376.5z"></path></g><path style="fill:#6E6E6E;stroke:#000000;stroke-linecap:round;stroke-linejoin:round;" d="M296,371.666c-2.442-7.634-19.166-36.333-20.563-40.065c-0.516-4.007-1.231-9.467-1.438-10.601c-4-2.334-19-3.333-19-3.333l-5,12.999l-5-12.999c0,0-15,0.999-19,3.333c-0.206,1.134-0.922,6.594-1.438,10.601c-1.396,3.732-18.12,32.432-20.563,40.065c9.333,5.167,19.333,5.667,19.333,5.667l7.167-25.667c0,0-0.5,18.667-0.5,26.667c7.666,2.5,32.334,2.5,40,0c0-8-0.5-26.667-0.5-26.667l7.167,25.667C276.667,377.333,286.667,376.833,296,371.666z"></path><g><path style="fill:#FDFDC1;" d="M206.561,366.056c-0.246-0.126-0.547-0.028-0.673,0.218c-0.125,0.246-0.028,0.547,0.218,0.673c0.093,0.047,6.163,3.068,18.127,5.232l0.28-0.963C212.653,369.085,206.652,366.103,206.561,366.056z"></path><path style="fill:#FDFDC1;" d="M269.506,373.105l-0.02-1.003c-5.591,0.732-12.135,1.231-19.653,1.231c-7.412,0-13.865-0.483-19.375-1.198v1.008c5.524,0.712,11.979,1.19,19.375,1.19C257.346,374.334,263.895,373.837,269.506,373.105z"></path><path style="fill:#FDFDC1;" d="M294.114,366.277c-0.124-0.247-0.424-0.347-0.671-0.224c-0.093,0.047-6.163,3.001-18.002,5.132l0.255,0.968c11.957-2.161,18.101-5.157,18.194-5.205C294.138,366.824,294.237,366.524,294.114,366.277z"></path></g><path style="fill:#505050;" d="M225.5,328.667c0,0,0.333,4.833,0.833,5.833s8.5,2.168,10.333,1.834c-3.167-3.834-7.833-8.167-7.833-8.167L225.5,328.667z"></path><path style="fill:#505050;" d="M252.667,337.167c-1.076-0.302,15.5-3.499,15.833-2.833s0.833,2.833,0.833,2.833S256.834,338.334,252.667,337.167z"></path><g><path style="fill:none;stroke:#000000;stroke-linecap:round;stroke-linejoin:round;" d="M249.833,336.666c0-0.5-6.833-16.166-6.833-16.166s-10.334,1.064-12.167,1.731"></path><path style="fill:none;stroke:#000000;stroke-linecap:round;stroke-linejoin:round;" d="M230.5,351.666c0,0-0.333-15.166-0.167-15.666s0.667-2.334,0.667-2.334l-0.5-13.5"></path><path style="fill:none;stroke:#000000;stroke-linecap:round;stroke-linejoin:round;" d="M250.167,336.666c0-0.5,6.833-16.166,6.833-16.166s10.334,1.064,12.167,1.731"></path><path style="fill:none;stroke:#000000;stroke-linecap:round;stroke-linejoin:round;" d="M269.5,351.666c0,0,0.333-15.166,0.167-15.666S269,333.666,269,333.666l0.5-13.5"></path></g><g><circle style="fill:#FDFDC1;stroke:#000000;stroke-linecap:round;stroke-linejoin:round;" cx="243.25" cy="326.083" r="2.083"></circle><circle style="fill:#FDFDC1;stroke:#000000;stroke-linecap:round;stroke-linejoin:round;" cx="244.75" cy="332.249" r="2.083"></circle></g><g><g><path style="fill:#6E6E6E;stroke:#000000;stroke-linecap:round;stroke-linejoin:round;" d="M230.666,323.833c0,0-5.167,0.167-6,0.667c-0.333,1.333,0,4.666,0,4.666l6-0.333V323.833z"></path><path style="fill:#FDFDC1;stroke:#000000;stroke-linecap:round;stroke-linejoin:round;" d="M230.833,322.333l-2.167,0.167c-0.333,1,0.334,7.664,0.334,7.664l2-0.164L230.833,322.333z"></path></g><g><path style="fill:#6E6E6E;stroke:#000000;stroke-linecap:round;stroke-linejoin:round;" d="M269.334,323.833c0,0,5.167,0.167,6,0.667c0.333,1.333,0,4.666,0,4.666l-6-0.333V323.833z"></path><path style="fill:#FDFDC1;stroke:#000000;stroke-linecap:round;stroke-linejoin:round;" d="M269.167,322.333l2.167,0.167c0.333,1-0.334,7.664-0.334,7.664L269,330L269.167,322.333z"></path></g></g><g><circle style="fill:#FDFDC1;stroke:#000000;stroke-linecap:round;stroke-linejoin:round;" cx="256.75" cy="326.083" r="2.083"></circle><circle style="fill:#FDFDC1;stroke:#000000;stroke-linecap:round;stroke-linejoin:round;" cx="255.25" cy="332.249" r="2.083"></circle></g></g><polygon style="fill:#1F1E1F;stroke:#000000;stroke-linecap:round;stroke-linejoin:round;" points="251.501,283.834 250,284.5 248.499,283.834 244.166,292.334 250,297.334 255.834,292.334 "></polygon><g><g><path style="fill:#3D3C3D;stroke:#000000;stroke-linecap:round;stroke-linejoin:round;" d="M250.459,283.834c0,0,3.5,10.334,4.5,11.5c1.666-2,6-6.334,6-6.334s4.666,1.668,5.166,1.834c-0.834-4.334-4-10.667-4-10.667l-2.291-1.416l0.041,2.041C259.875,280.792,254.291,283.5,250.459,283.834z"></path><g><g><ellipse transform="matrix(0.9606 -0.2778 0.2778 0.9606 -69.5697 81.8157)" style="fill:#6E6E6E;" cx="253.943" cy="286.42" rx="0.882" ry="1.225"></ellipse><polygon style="fill:#6E6E6E;" points="253.916,287.334 256.084,293.334 256.666,292.709 254.5,287.001 "></polygon></g><g><ellipse transform="matrix(0.9606 -0.2778 0.2778 0.9606 -68.8351 82.7504)" style="fill:#6E6E6E;" cx="257.609" cy="284.295" rx="0.882" ry="1.225"></ellipse><polygon style="fill:#6E6E6E;" points="258.166,284.876 257.582,285.209 259.281,289.91 259.863,289.349 "></polygon></g></g></g><g><path style="fill:#3D3C3D;stroke:#000000;stroke-linecap:round;stroke-linejoin:round;" d="M249.542,283.834c0,0-3.5,10.334-4.5,11.5c-1.667-2-6-6.334-6-6.334s-4.667,1.668-5.167,1.834c0.834-4.334,4-10.667,4-10.667l2.292-1.416l-0.042,2.041C240.125,280.792,245.708,283.5,249.542,283.834z"></path><g><g><ellipse transform="matrix(-0.9607 -0.2776 0.2776 -0.9607 402.9174 629.8948)" style="fill:#6E6E6E;" cx="246.057" cy="286.42" rx="0.883" ry="1.225"></ellipse><polygon style="fill:#6E6E6E;" points="246.083,287.334 243.917,293.334 243.333,292.709 245.5,287.001 "></polygon></g><g><ellipse transform="matrix(-0.9607 -0.2776 0.2776 -0.9607 396.3195 624.7104)" style="fill:#6E6E6E;" cx="242.391" cy="284.295" rx="0.883" ry="1.225"></ellipse><polygon style="fill:#6E6E6E;" points="241.833,284.876 242.417,285.209 240.719,289.91 240.136,289.349 "></polygon></g></g></g></g></g></g></g></svg>