<svg xmlns="http://www.w3.org/2000/svg" width="500" height="500" version="1.1"><g id="a9028"><g><polygon style="opacity:0.3;stroke:#000000;stroke-linecap:round;stroke-linejoin:round;" points="261.667,294 249.881,300.668 237.381,293.334 249.381,286 "></polygon><g><g><path style="fill:#FFFEFC;stroke:#000000;stroke-linecap:round;stroke-linejoin:round;" d="M279.756,340.199c0,0-22.194,8.207-22.677,19.215c-0.635,14.495,25.302,18.336,25.302,18.336s-0.232,0.75-0.906,3.497c-1.137-0.004-24.781-0.587-28.937-20.1c-2.924-13.73,26.186-24.414,26.186-24.414L279.756,340.199z"></path><g><g><path style="fill:#585777;stroke:#000000;stroke-linecap:round;stroke-linejoin:round;" d="M225.881,303c0.5-1.25,6.25-10.25,6.25-10.25s-0.75-3.25-0.5-10c2-0.75,8-2.006,8-2.006V278c0,0,9.75,5,9.75,8s-5.25,7.75-7,8.75c1.25,3,7.5,4.75,7.5,4.75s6.25-1.75,7.5-4.75c-1.75-1-7-5.75-7-8.75s9.75-8,9.75-8v2.744c0,0,6,1.256,8,2.006c0.25,6.75-0.5,10-0.5,10s5.75,9,6.25,10.25s2,12.25,0.75,15.25c0,0-12-6-25.25-6s-24.25,6-24.25,6C223.881,315.25,225.381,304.25,225.881,303z"></path><g><g><path style="fill:#E5CE95;" d="M233.43,282.668c0,0,1.001,9.332,0.667,10.666s-5.5,6.667-5.5,6.667s3.999-6.167,4.166-7.167s-0.333-9.833-0.333-9.833L233.43,282.668z"></path><path style="fill:#E5CE95;" d="M232.097,295.334l0.333,1c0,0,0.834,0.501,0.667,1.334s-1.167,1.166-1.167,1.166s0.667,1.166-0.333,1.5s-1.667-1.166-1.667-1.166c1-0.834,0.5-2.167,0.5-2.167L232.097,295.334z"></path></g><g><path style="fill:#E5CE95;" d="M266.332,282.668c0,0-1.001,9.332-0.667,10.666s5.5,6.667,5.5,6.667s-3.999-6.167-4.166-7.167s0.333-9.833,0.333-9.833L266.332,282.668z"></path><path style="fill:#E5CE95;" d="M267.665,295.334l-0.333,1c0,0-0.834,0.501-0.667,1.334s1.167,1.166,1.167,1.166s-0.667,1.166,0.333,1.5s1.667-1.166,1.667-1.166c-1-0.834-0.5-2.167-0.5-2.167L267.665,295.334z"></path></g></g><g><path style="fill:#E5CE95;" d="M272.048,303.168c0,0,0.333-2.001-0.167-2.667s-2.5-0.834-2.833,0C268.714,301.335,272.048,303.168,272.048,303.168z"></path><path style="fill:#E5CE95;" d="M271.214,303.501c0,0,0.334-2.5,1-2c0.667,0.5,1.167,1.667,1,2.167S271.214,303.501,271.214,303.501z"></path><path style="fill:#E5CE95;" d="M271.881,302.001c0,0-3.834-0.501-3.5,0.333c0.333,0.834,2.666,2.334,2.666,2.334L271.881,302.001z"></path></g><path style="fill:#E5CE95;" d="M247.103,301.334c0,0-7.813-2.667-9.722-8c2.431-0.666,8.159-2.167,8.159-7.5c-1.735-2.166-5.381-4.666-5.381-4.666v-1.667c0,0,5.902,3.999,7.117,5.333c1.216,1.334-1.214,6.667-7.639,9.167c0,2.333,7.812,6.667,10.243,6.667c2.431,0,10.242-4.334,10.242-6.667c-6.424-2.5-8.854-7.833-7.639-9.167c1.216-1.334,7.118-5.333,7.118-5.333v1.667c0,0-3.646,2.5-5.381,4.666c0,5.333,5.729,6.834,8.159,7.5c-1.909,5.333-9.722,8-9.722,8s-1.042,0.667-0.521,1.334c0.521,0.667,1.389-0.334,2.084-0.667c0.521,1-0.695,2.5-2.432,2.667s-1.909-2.5-1.909-2.5s-0.173,2.667-1.909,2.5s-2.952-1.667-2.432-2.667c0.695,0.333,1.563,1.334,2.084,0.667C248.145,302.001,247.103,301.334,247.103,301.334z"></path></g><g><g id="onepXMLID_21_"><g><path style="fill:#FFFEFC;" d="M281.63,349.25c0,0,0.75,1.5,0.5,2.75c-1.75,0.25-31.12,17.12-47.12,45.62c-6.75-5.74-19.38-25.62-20.38-30.62c0.5-1,1-3.5,1-3.5s1-19,6.25-27.25c-0.75-2.75-0.5-4.25-0.5-4.25l2-1.75c0,0,1.75-8.25,1.75-9.25l0.28-4.75h-0.1c-0.08-3.61,0.52-8.25,0.52-8.25s3.75-3.25,10.25-6.25c6.45,2.29,11.67,7.16,13.25,8.74c0,0,7.05-5.99,14.8-8.74c6.5,3,10.45,6.5,10.45,6.5l0.55,10.75c0,0-1.78-2.92-4.75-1c-4.25,2.75-3.75,10,0.5,10.75c-6.5,1-11.54,10.2-6,18C271.63,356.25,281.63,349.25,281.63,349.25z"></path></g><path style="fill:#6E6E6E;" d="M274.747,317.75c0,0-2.747-2.541-5.747,0.792s-2.583,7.625,0.333,10.208c-2,0.833-8.419,4.25-6.752,14c0,0,4.583,14.917,19,7.417c0.166,0.583,0.149,1.384,0.149,1.384s-28,13.75-46.875,45.125c-1.625-1.5-2.727-3.051-2.727-3.051s22.952-31.5,38.202-39c-5.5-1.75-10.704-5.367-11.375-12.75c-0.875-9.625,6.625-14.25,6.625-14.25s-3.625-6.5,0.625-11.125s8.25-1.75,8.25-1.75L274.747,317.75z"></path><path style="fill:#6E6E6E;" d="M226.048,308.483c0,0,6.5-5.166,10.166-6.333c3.5,1.333,9.084,5.017,13,8.833v0.1c4-3.416,11.333-7.5,14.833-8.833c3.666,1.167,10.166,6.333,10.166,6.333s0.084,2.25,0.084,4c-1.5-2.084-8.5-5.75-10.167-6.5c-3.25,1-14.917,8.665-14.917,8.5c0,0-9.834-7.6-13.084-8.6c-1.666,0.75-8.666,4.416-10.166,6.5C225.964,310.733,226.048,308.483,226.048,308.483z"></path><g><path style="fill:none;stroke:#000000;stroke-linecap:round;stroke-linejoin:round;" d="M215.63,363.5c0,0,1-19,6.25-27.25c-0.75-2.75-0.5-4.25-0.5-4.25l2-1.75c0,0,1.75-8.25,1.75-9.25l0.28-4.75h-0.1c-0.08-3.61,0.52-8.25,0.52-8.25s3.75-3.25,10.25-6.25c6.45,2.29,11.67,7.16,13.25,8.74c0,0,7.05-5.99,14.8-8.74c6.5,3,10.45,6.5,10.45,6.5l0.55,10.75c0,0-1.78-2.92-4.75-1c-4.25,2.75-3.75,10,0.5,10.75c-6.5,1-11.54,10.2-6,18c6.75,9.5,16.75,2.5,16.75,2.5s0.75,1.5,0.5,2.75c-1.75,0.25-31.12,17.12-47.12,45.62c-6.75-5.74-19.38-25.62-20.38-30.62C215.13,366,215.63,363.5,215.63,363.5z"></path></g></g><path style="fill:#E4E0F3;" d="M239.631,332.25c-6.908,0.146-12.869-1.607-12.75-1.25c0.25,0.75,10.25,7,12.5,7.25s18-5.5,17-7.25C255.857,330.084,247.225,332.089,239.631,332.25z"></path><g><g><path style="fill:#E1DBE9;" d="M233.865,351.684c0,0,0.189,0.846,0.026,1.581c-0.164,0.735-1.062,2.205-2.123,2.532c-1.063,0.326-1.797,0.462-2.261-0.055c-0.463-0.518-0.272-2.288-0.027-2.696s1.335-1.254,1.443-1.116c0.109,0.136,0.137,2.531,0.3,2.286c0.164-0.244,0.082-2.721,0.436-2.831C232.013,351.275,233.512,351.384,233.865,351.684z"></path><path style="fill:#E1DBE9;" d="M232.449,350.431c0.032,0.16,3.541,0.001,4.686-1.416c1.143-1.416-0.601-3.484-1.526-3.758S232.013,348.252,232.449,350.431z M232.803,349.533c-0.054-0.381,1.497-1.117,1.743-1.007c0.244,0.109,0.162,0.462-0.108,0.734C234.165,349.534,232.803,349.533,232.803,349.533z"></path><path style="fill:#E1DBE9;" d="M229.835,348.252c0.548,0.463,1.58,0.489,2.016,0c0.436-0.491,1.416-2.015,1.742-2.396c0.327-0.381,0.492-1.469-0.38-1.742c-0.871-0.272-1.907-0.491-2.832,0.708C229.455,346.019,229.127,347.651,229.835,348.252z M230.57,347.354c0.056-0.463,0.354-1.225,0.518-1.225c0.163,0,0.408,0.382,0.3,1.117c-0.109,0.734-0.735,1.062-0.735,1.062C230.517,348.09,230.516,347.817,230.57,347.354z"></path><path style="fill:#E1DBE9;" d="M227.549,353.154c0.653,0.164,2.912-1.254,3.075-1.797c0.047-0.157,0.191-1.197-0.436-1.824s-1.661-0.681-2.15-0.599c-0.489,0.081-1.254,0.789-1.335,1.634C226.621,351.412,226.895,352.991,227.549,353.154z M229.591,349.887c0.163-0.028,0.327,0.191,0.271,0.49c-0.055,0.299-1.008,0.49-1.008,0.49C228.72,350.512,229.427,349.915,229.591,349.887z"></path><path style="fill:#E1DBE9;" d="M229.835,355.904c0,0-0.027,2.695-0.79,2.805c-0.762,0.11-1.799-1.115-1.606-1.442c0.191-0.327,0.518-0.408,0.653-0.327c0.137,0.083,0.463,0.191,0.463,0.191s0.026-1.225,0.245-1.416s0.762-0.384,0.899-0.191C229.835,355.715,229.835,355.904,229.835,355.904z"></path><path style="fill:#E1DBE9;" d="M223.572,354.326c0.143,0.035,2.07-0.41,2.178-0.764c0.109-0.354,0.218-0.925-0.19-0.925s-0.953,0.462-1.145,0.517c-0.189,0.055-1.115,0.108-1.196,0.49C223.137,354.026,223.245,354.245,223.572,354.326z"></path><path style="fill:#E1DBE9;" d="M228.202,354.026c0.443,0.134,0.408,1.008,0.026,1.443c-0.382,0.435-3.867,5.417-4.003,5.445c-0.137,0.028-0.652-0.025-0.681,0.191c-0.027,0.217,0.408,0.326,0.408,0.49c0,0.163,0,0.57-0.326,0.543c-0.327-0.026-1.282-0.653-1.09-1.47c0.191-0.816,1.797-4.384,3.35-5.582C227.438,353.89,227.93,353.945,228.202,354.026z"></path><path style="fill:#E1DBE9;" d="M233.374,354.189c0.056,0.164,0.109,0.762,0.818,1.145c0.708,0.381,1.904,0.925,3.131,1.578c1.225,0.653,2.586,2.07,2.996,1.907c0.408-0.164,0.49-0.626,0.3-0.98c-0.192-0.354-1.826-3.376-3.052-4.003c-1.225-0.627-3.513-0.845-3.84-0.627C233.401,353.428,233.374,354.189,233.374,354.189z"></path></g><g><path style="fill:#E1DBE9;" d="M251.204,359.188c0,0,0.789-1.144,1.524-0.98c0.734,0.164,1.279,1.145,1.17,2.097c-0.108,0.954-0.733,1.228-1.251,1.199c-0.519-0.027-1.308-0.056-1.526-0.763C250.903,360.033,250.985,359.296,251.204,359.188z"></path><path style="fill:#E1DBE9;" d="M251.04,358.534c0,0,0.927-0.625,0.953-1.416c0.027-0.79,0.028-1.524-0.572-1.443c-0.6,0.082-1.251,0.245-1.389,0.79c-0.136,0.545-0.056,1.035-0.436,1.444c-0.381,0.408-0.816,0.87-1.334,0.681c-0.517-0.191-1.197-0.656-1.579-0.301s-0.437,1.442,0.054,1.634s0.571-0.327,0.79-0.245s1.063,0.49,0.872,0.653c-0.191,0.164-0.737-0.055-1.172,0.736c-0.436,0.789-0.546,1.688,0,1.605c0.545-0.081,2.015-0.789,1.961-1.443c-0.054-0.653-0.354-0.926-0.354-0.926S250.794,359.241,251.04,358.534z"></path><path style="fill:#E1DBE9;" d="M250.958,360.713c0,0-0.137-0.654-0.49-0.626c-0.353,0.027-1.17,1.878-1.063,2.531c0.109,0.654,1.034,1.524,1.334,1.063c0.301-0.462,0.574-0.625,0.438-1.361C251.04,361.584,250.958,360.713,250.958,360.713z"></path></g><g><path style="fill:#E1DBE9;" d="M237.011,372.227c-0.408-0.327,0.408-1.498,0.627-1.88c0.218-0.382,0.68-0.572,1.089-0.816c0.408-0.245,0.163-0.408,0.218-0.926c0.055-0.517-0.437-0.517-0.682-0.79s0.437-1.089,0.245-1.307c-0.191-0.219-0.925,0.6-1.389,0.763c-0.463,0.164-1.226-0.327-1.524-0.627c-0.299-0.299-0.027-0.463,0.218-0.708c0.244-0.244,0.763,0.219,1.443,0.191c0.681-0.026,0.951-0.74,0.925-0.816c-0.272-0.789-4.247-2.941-4.683-3.051c-0.436-0.11-1.607-0.026-1.17,2.397c0.436,2.424,4.355,3.675,4.546,4.138c-1.77,0.408-2.94,2.859-3.157,3.051c-0.218,0.19-0.354,1.197-0.354,1.197s-0.491,0.191-0.409,0.845s1.198,0.817,1.606,0.817s0.491,0.38,0.436,0.625c-0.055,0.245-0.898,1.009-0.898,1.009s-0.49-0.327-0.653-0.519c-0.164-0.192-0.026,0.245-0.19,0.627c-0.163,0.381-1.771,0.708-1.879,0.68c-0.108-0.027-0.49-0.217-0.354,0.163c0.136,0.381,1.851,0.682,2.369,0.438c0.682,0.708,1.634,0.707,1.742,0.517c0.108-0.189-0.872-0.6-1.062-1.035c1.443-0.546,2.641-1.253,3.186-1.851c0.546-0.599,2.261-2.996,2.261-3.104s0.054,1.034,0.217,2.313c0.163,1.28,1.634,2.18,2.751,1.961c1.116-0.219,2.097-1.308,2.205-2.205c0.109-0.899-1.144-3.241-1.144-3.241s0.627-0.027,1.362-0.054c0.734-0.027,1.688-1.335,1.851-2.315c0.163-0.979,0.571-3.566,0.028-4.193c-0.544-0.627-2.724,0.272-4.003,1.362c-1.279,1.091-1.879,2.859-1.879,3.104s0.49,0.898,0.298,1.088c-0.19,0.191-0.925,0.083-1.278,0.327c-0.354,0.245-0.219-0.544-0.572-0.762c-0.354-0.217-0.6,0-0.681,0.19c-0.082,0.189-0.409,1.96-0.681,2.26C237.719,372.391,237.419,372.553,237.011,372.227 M242.947,370.184c-0.245,0.055-0.437-0.137-0.49-0.545s0.816-1.089,0.816-1.089s0.246-1.199,0.327-1.58c0.082-0.382,0.544-0.654,0.898-0.462c0.355,0.191,0.246,1.389-0.081,2.45S243.192,370.128,242.947,370.184z M241.857,372.089c0.299-0.189,0.6,0.518,1.008,1.308s0.272,1.524,0,1.742c-0.272,0.217-1.042-0.888-1.198-1.77C241.585,372.907,241.559,372.28,241.857,372.089z"></path><path style="fill:#E1DBE9;" d="M239.57,368.196c0.108,0.033,2.095,0.054,2.777-2.751c0.682-2.804,0.49-3.866-0.49-4.192c-0.98-0.327-1.551-0.11-1.851,0.843c-0.301,0.954-0.953,2.916-0.98,3.786C238.998,366.753,238.861,367.978,239.57,368.196z M239.68,366.808c0.028-0.49,0.245-1.58,0.517-1.634c0.272-0.055,0.518,0.245,0.49,1.496c-0.026,1.253-0.817,1.01-0.817,1.01C239.625,367.544,239.652,367.297,239.68,366.808z"></path></g><path style="fill:#E1DBE9;" d="M229.927,369.409c0.026-0.081,0.136-2.288-0.408-2.232c-0.546,0.055-0.681,1.851-0.98,2.286c-0.3,0.438-0.681,0.682-0.817,2.016s-1.58,6.754-1.253,7.162s0.735,0.081,0.79,0.299s-0.463,2.532,0.108,2.368c0.571-0.162,0.872-0.516,0.872-0.516s1.77,0.246,2.26-0.436s0.789-1.09,0.544-1.199c-0.245-0.108-1.797,1.146-2.287,0.954c-0.49-0.192,1.523-0.79,1.797-3.895c0.272-3.104-0.706-6.153-0.68-6.889"></path><path style="fill:#E1DBE9;" d="M219.062,369.355c0.109,0.271,2.204,7.215,4.546,10.047c0.192,0.954,0.139,1.416,0.52,2.151c0.38,0.734,1.688,3.132,2.804,4.139c0.219,0.98,0.135,1.227,0.517,1.553c0.383,0.327,3.215,1.852,3.404,2.26c0.19,0.41,0.028,0.708,0.383,0.926c0.353,0.219,1.171,0.601,1.143,0.219c-0.027-0.381-0.383-0.462-0.437-0.572c-0.054-0.109,1.526-2.804,1.907-2.695c0.38,0.107-0.028,0.844,0.272,0.926c0.3,0.081,0.899-0.546,0.871-0.735c-0.028-0.19-0.735-1.035-0.735-1.035s2.807-4.329,3.268-4.384c0.462-0.055,1.632,0.299,1.959-1.361c0.037-0.189-1.143,0.733-1.905,0.271c-0.762-0.462-1.799-1.498-1.934-1.089c-0.135,0.408,0.544,1.416,0.653,1.96c0.109,0.546-0.952,2.478-1.442,2.069c-0.489-0.408-1.252-0.979-1.226-1.278s0.652-0.6,0.299-1.199c-0.354-0.598-0.653-0.325-0.897,0.055c-0.246,0.381-1.307-0.109-1.443,0.354c-0.137,0.464,0.082,0.819,0.326,1.035c0.246,0.218-0.382,2.071-0.599,1.961c-0.218-0.109-2.234-0.897-2.125-1.144c0.11-0.245,1.009-1.307,1.117-1.035s0.897,1.117,1.008,0.898c0.109-0.218,0.408-0.354,0.136-0.762c-0.271-0.408-0.872-1.278-1.144-1.308c-0.271-0.027-1.77,2.315-2.261,2.125c-0.489-0.191-1.77-1.335-1.797-1.853c-0.026-0.517,0.272-2.697-0.408-4.385c-0.681-1.687-2.449-3.374-2.995-2.994c-0.544,0.381-0.246,2.041-0.6,1.442s-0.79-1.388-0.735-1.523c0.055-0.138,0.735,0.243,0.817-0.192c0.082-0.435-1.226-1.389-1.906-2.886C219.742,369.818,218.953,369.083,219.062,369.355z M232.377,385.53c-0.081-0.518,0.763-1.497,0.925-1.607c0.164-0.109,0.383,0.3,0.383,0.682c0,0.381-0.627,1.062-0.872,1.196C232.567,385.938,232.377,385.53,232.377,385.53z M230.28,385.203c0.081-0.081,2.097,0.953,2.097,1.28s-0.381,0.681-0.381,0.681C231.724,387.137,230.198,385.284,230.28,385.203z M228.483,384.631c0.326,0.055,3.049,2.914,3.104,3.159c0.056,0.245-0.382,0.518-0.382,0.518c-0.79-0.082-2.805-3.132-2.858-3.241C228.292,384.957,228.156,384.576,228.483,384.631z M223.445,375.727c0.216-0.082,1.524,1.579,1.607,1.742c0.081,0.164-0.083,0.3-0.301,0.273c-0.218-0.027-1.389-1.525-1.471-1.662C223.281,376.08,223.228,375.809,223.445,375.727z"></path></g><path style="fill:none;stroke:#000000;stroke-linecap:round;stroke-linejoin:round;" d="M267.381,355.5c0,0-23.167,15.501-42.667,14.334"></path><g><path style="fill:none;stroke:#000000;stroke-linecap:round;stroke-linejoin:round;" d="M221.881,335c0,0,7.5,6.25,11,6.75"></path></g></g></g></g><g><g id="onepXMLID_19_"><g><path style="fill:#F2F1F3;" d="M277.737,339.747c0.06,0.25,4.93,30.38,3.189,37.939c1.061-0.119,3.311-1.31,3.37-1c0.06,0.311,1.56,3,1.56,3s2.11-20.85-3.89-37.02c-1.84-2.42-3.59-4.5-3.59-4.5L277.737,339.747z"></path></g><path style="fill:#7970C3;" d="M286.047,366.583c0,0-0.917-1-1.5-0.833s-1.416,0.5-1.416,0.5l-1.834-0.25l-0.416,11.333l3.416-0.646l1.667,2.396C285.964,379.083,286.547,368.083,286.047,366.583z"></path><path style="fill:#E4E0EF;" d="M285.11,355.47c-0.124-0.513-0.803-1.405-1.245-1.108s-0.671,1.03-1.004,1.002c-0.333-0.027-0.573-1.136-1.086-1.012c-0.513,0.125-1.177,1.072-1.177,1.072l0.198,3.612c0,0,0.698-0.358,1.418,0.036c0.719,0.395,1.294-0.477,1.71-0.441c0.415,0.035,1.528,0.714,1.528,0.714L285.11,355.47z"></path><path style="fill:#C3BAE2;" d="M285.393,359.09c-0.125-0.513-0.804-1.405-1.246-1.108s-0.671,1.03-1.003,1.002c-0.333-0.027-0.574-1.136-1.087-1.011c-0.512,0.124-1.177,1.072-1.177,1.072l0.198,3.612c0,0,0.698-0.359,1.418,0.035s1.294-0.476,1.71-0.441c0.415,0.035,1.528,0.714,1.528,0.714L285.393,359.09z"></path><path style="fill:#958CCD;" d="M285.508,362.695c-0.125-0.513-0.804-1.405-1.246-1.108s-0.671,1.03-1.003,1.002c-0.333-0.027-0.574-1.136-1.087-1.011c-0.512,0.124-1.177,1.071-1.177,1.071l0.198,3.612c0,0,0.698-0.358,1.418,0.036s1.295-0.476,1.71-0.441c0.416,0.035,1.528,0.714,1.528,0.714L285.508,362.695z"></path><g><path style="fill:none;stroke:#7770C1;stroke-linecap:round;stroke-linejoin:round;" d="M277.737,339.747c0.06,0.25,4.93,30.38,3.189,37.939c1.061-0.119,3.311-1.31,3.37-1c0.06,0.311,1.56,3,1.56,3s2.11-20.85-3.89-37.02c-1.84-2.42-3.59-4.5-3.59-4.5L277.737,339.747z"></path></g></g><g><path style="fill:#7770C1;" d="M279.651,339.729c0,0,2.563,4.125,4.063,4.188s1.563-0.813,1.563-1.313s-2.125-10.125-3.25-10.875s-2.063-0.313-2.688,1.125c-0.75,1.725-0.688,5.125-0.688,5.125l1.25,0.75c0,0,0.5-4.5,1.25-4.75s2.75,7.063,2.5,7.75s-3-2.625-3-2.625L279.651,339.729z"></path><path style="fill:#7770C1;" d="M277.895,339.05c0,0-2.463,4.895-5.963,4.921s-6.207-2.516-6.658-4.324c-0.451-1.81,0.717-3.918,2.281-4.08c4.56-0.473,9.712,3.113,9.712,3.113l0.807-0.818c0,0-5.533-4.271-10.28-3.859s-5.22,3.978-4.765,6.224c0.454,2.247,4.55,6.591,9.48,5.678c4.931-0.912,6.078-6.171,6.078-6.171L277.895,339.05z"></path><path style="fill:#7770C1;" d="M277.839,339.479c0,0,0.875,1,1.25,0.875s0.625-0.313,0.625-0.313s0.875,0.063,0.938-0.125s0.625-1.688,0.25-2.438s-0.5-0.75-1.188-0.813s-1.25,0.75-1.25,0.75s-1,0.25-1.125,0.625S277.839,339.479,277.839,339.479z"></path></g></g></g></g></g></svg>