<svg xmlns="http://www.w3.org/2000/svg" width="500" height="500" version="1.1"><g id="a9006"><g><g><g><g><path style="fill:#505050;stroke:#000000;stroke-linecap:round;stroke-linejoin:round;" d="M192.863,363.074l-6.663-7.449l-7.262,10.049l-4.426,0.826c0,0-6.625,11.875-6.438,20.563c0.438,3.313,0.711,6.056,1.188,9.438c1.313-9,3.75-16.063,3.75-16.063s-2.875,15.813-2.5,18.688c1,7.375,6.125,15.875,6.125,15.875s20.125-6.5,22.125-8.5c-1.25-9.125-2-24.5-2-24.5c1,4.5,4.75,23.75,4.75,23.75s9.75-9.75,13.5-17.5c-2-16.5,1-29.5,1-29.5L192.863,363.074z"></path><path d="M196.376,381.501l2.416,25.333c0,0-2.916,2.168-2.833,1.584s-1.25-27.917-1.25-27.917L196.376,381.501z"></path><path d="M198.126,380.418c0,0,4.666,18.083,6,22.916c-1.167,1.166-2.613,2.416-2.613,2.416l-4.471-24.166L198.126,380.418z"></path><path style="fill:#6E6E6E;" d="M191.513,364.667c0,0,4.333,15,6.833,15.5s3.334-14.667,3.334-14.667L191.513,364.667z"></path><path d="M184.876,360.668c-0.063,0.188,4.449,5.27,4.574,5.457s14.992,0.881,17.121,1.315c-0.559-1.44-2.934-7.815-3.121-7.878s-15.313-2.313-15.313-2.313L184.876,360.668z"></path><path d="M187.388,359.688c0,0-4.5,5.5-5.75,7.438c-2.438,0.125-7.875,1.313-7.875,1.313l0.75-1.938l12.188-8.563L187.388,359.688z"></path><path style="fill:#453D40;stroke:#000000;stroke-linecap:round;stroke-linejoin:round;" d="M172.804,381.438c0,0-1.042-3.276-1.042-3.798s2.234-2.83,2.458-2.755c0.223,0.074,1.488,2.829,1.265,3.425C175.262,378.906,172.804,381.438,172.804,381.438z"></path><path style="fill:#453D40;stroke:#000000;stroke-linecap:round;stroke-linejoin:round;" d="M196.513,382.438c-0.188,0-2.25-2.438-2.438-3.125s2-3.625,2.313-3.75s2.375,2.625,2.25,3.625S196.513,382.438,196.513,382.438z"></path><path style="fill:none;stroke:#000000;stroke-linecap:round;stroke-linejoin:round;stroke-dasharray:1 3;" d="M201.138,401.875c0,0,9.5-9.125,12.875-16.375"></path><path style="fill:none;stroke:#000000;stroke-linecap:round;stroke-linejoin:round;stroke-dasharray:1 3;" d="M188.2,360.938c0,0-10.438,27.938-8.188,49.688c6.5-1.125,18.125-6.5,18.125-6.5"></path><path style="fill:none;stroke:#000000;stroke-linecap:round;stroke-linejoin:round;" d="M176.763,414.25c0.125-1.5-0.938-32.063,10.25-55.25"></path></g><g><path style="fill:#6E6E6E;stroke:#000000;stroke-linecap:round;stroke-linejoin:round;" d="M226.679,287.333c-2.667,1.333-7.546,7.298-11,14.667c-10,21.333-27.333,31.333-34.666,51.333c-4.78,6.998-9.125,10.979-9.438,12.104s1.813,3.438,1.813,3.438s0.788-2.28,1.563-2.375c1.203-0.405,3-0.725,5.162-0.956c1.343-1.945,4.029-5.44,7.088-7.231c2.048,2.742,3.413,5.837,4.313,7.5c2.568,0.042,4.887,0.465,7.5,0.625c0.677-1.005,2.638-4.931,3.375-5.563c0.921,1.243,1.807,3.468,2.21,4.554c0.815,0.113,1.597,0.236,2.29,0.384c0.724-1.816,0.791-3.146,0.791-3.146s2-3,4.667-5.667s13.985-31.864,13.985-31.864s1.348-18.469,3.348-28.803C229.346,293.666,226.679,287.333,226.679,287.333z"></path><path style="fill:#505050;" d="M188.667,343.375c0,0,2-0.875,4.5-0.625s7.375,3.25,8.875,3.25c-0.875-2.875-6-6.375-8.125-6.25S188.542,342.25,188.667,343.375z"></path><path style="fill:#505050;" d="M203.982,322.503c0,0,5.147,1.716,7.436,3.432c0.762-2.86-1.145-6.673-3.051-6.863S204.364,320.406,203.982,322.503z"></path><path style="fill:#505050;" d="M218.93,298c0,0,4-2.666,5.166-1.083c1.167,1.583,0.25,11.917-0.333,13.5s-0.166,7.416-4.083,12.083s-5.5,6.251-5.5,7.167s2.667,0.916,2.75,2.416s-4.25,8.834-3.25,11.584s4.75,4.833,4.75,4.833l6.862-21.625l2.554-22.125l1.334-8.417c0,0-1.5-6.416-2.75-8.083C224.846,288.333,220.013,294.75,218.93,298z"></path><path style="fill:#505050;" d="M179.846,365.167l7.834-6.667l4.166,6.667l6.75,0.75l4-5.917l2.75,5.833l9-20c0,0-14.5,10.167-15.166,10.167c-0.667,0-2.5-1.833-6-9.5c-3.667,0.667-11,9-11,9s-9.834,9.167-10,10.167c-0.084,0.503,0.247,1.718,0.833,1.666c0.349-0.03,1.052-1.313,1.083-1.25C174.198,366.185,179.846,365.167,179.846,365.167z"></path><polyline style="fill:none;stroke:#000000;stroke-linecap:round;stroke-linejoin:round;stroke-dasharray:1 3;" points="190.013,358.167 192.863,363.074 197.179,363.5 202.846,356.5 207.013,363 "></polyline><path style="fill:none;stroke:#000000;stroke-linecap:round;stroke-linejoin:round;stroke-dasharray:1 3;" d="M173.513,364c0,0,4.833-0.5,6.666-0.667c1.334-2.166,5.834-6.5,5.834-6.5"></path><path style="fill:none;stroke:#000000;stroke-linecap:round;stroke-linejoin:round;stroke-dasharray:1 3;" d="M191.263,348.75c0,0,1.041-2.381,2.881-5.765c0.255-0.471,0.988-0.854,1.273-1.36c0.413-0.729,0.395-1.597,0.866-2.38c2.948-4.895,7.018-10.629,11.729-14.495c0.271-0.463,1.098-0.693,1.363-1.166c0.32-0.572,0.078-1.388,0.391-1.971C216.58,308.899,221.263,294,221.263,294"></path><path style="fill:none;stroke:#000000;stroke-linecap:round;stroke-linejoin:round;" d="M189.45,347.188c0,0,0.837-1.653,2.364-4.301c0.346-0.599,1.313-0.818,1.728-1.512c0.363-0.608,0.167-1.68,0.581-2.349c2.692-4.354,6.429-9.897,10.89-15.216c0.651-0.776,1.766-0.964,2.446-1.727c0.358-0.592,0.333-1.083,0.637-2.434c5.481-9.641,11.417-24.15,11.417-24.15"></path><path style="fill:#453D40;stroke:#000000;stroke-linecap:round;stroke-linejoin:round;" d="M185.763,359.833c0,0-2.563-6.458-2.438-7.021s5.063-5.125,6.125-5.625c2.063,2.625,4.063,7.688,4.063,7.688l-5.625,4.875l-0.708-2l3.646-3.625l-2.125-3.688l-2.813,2.438l1.542,4.958L185.763,359.833z"></path></g></g><g><g><path style="fill:#505050;stroke:#000000;stroke-linecap:round;stroke-linejoin:round;" d="M307.138,363.074l6.662-7.449l7.262,10.049l4.426,0.826c0,0,6.625,11.875,6.438,20.563c-0.438,3.313-0.711,6.056-1.188,9.438c-1.313-9-3.75-16.063-3.75-16.063s2.875,15.813,2.5,18.688c-1,7.375-6.125,15.875-6.125,15.875s-20.125-6.5-22.125-8.5c1.25-9.125,2-24.5,2-24.5c-1,4.5-4.75,23.75-4.75,23.75s-9.75-9.75-13.5-17.5c2-16.5-1-29.5-1-29.5L307.138,363.074z"></path><path d="M303.624,381.501l-2.416,25.333c0,0,2.916,2.168,2.833,1.584s1.25-27.917,1.25-27.917L303.624,381.501z"></path><path d="M301.874,380.418c0,0-4.666,18.083-6,22.916c1.167,1.166,2.613,2.416,2.613,2.416l4.471-24.166L301.874,380.418z"></path><path style="fill:#6E6E6E;" d="M308.487,364.667c0,0-4.333,15-6.833,15.5s-3.333-14.667-3.333-14.667L308.487,364.667z"></path><path d="M315.124,360.668c0.063,0.188-4.449,5.27-4.574,5.457s-14.992,0.881-17.121,1.315c0.559-1.44,2.934-7.815,3.121-7.878s15.313-2.313,15.313-2.313L315.124,360.668z"></path><path d="M312.612,359.688c0,0,4.5,5.5,5.75,7.438c2.438,0.125,7.875,1.313,7.875,1.313l-0.75-1.938l-12.188-8.563L312.612,359.688z"></path><path style="fill:#453D40;stroke:#000000;stroke-linecap:round;stroke-linejoin:round;" d="M327.196,381.438c0,0,1.042-3.276,1.042-3.798s-2.234-2.83-2.458-2.755c-0.223,0.074-1.488,2.829-1.265,3.425S327.196,381.438,327.196,381.438z"></path><path style="fill:#453D40;stroke:#000000;stroke-linecap:round;stroke-linejoin:round;" d="M303.487,382.438c0.188,0,2.25-2.438,2.438-3.125s-2-3.625-2.313-3.75s-2.375,2.625-2.25,3.625S303.487,382.438,303.487,382.438z"></path><path style="fill:none;stroke:#000000;stroke-linecap:round;stroke-linejoin:round;stroke-dasharray:1 3;" d="M298.862,401.875c0,0-9.5-9.125-12.875-16.375"></path><path style="fill:none;stroke:#000000;stroke-linecap:round;stroke-linejoin:round;stroke-dasharray:1 3;" d="M311.8,360.938c0,0,10.438,27.938,8.188,49.688c-6.5-1.125-18.125-6.5-18.125-6.5"></path><path style="fill:none;stroke:#000000;stroke-linecap:round;stroke-linejoin:round;" d="M323.237,414.25c-0.125-1.5,0.938-32.063-10.25-55.25"></path></g><g><path style="fill:#6E6E6E;stroke:#000000;stroke-linecap:round;stroke-linejoin:round;" d="M273.321,287.333c2.667,1.333,7.546,7.298,11,14.667c10,21.333,27.333,31.333,34.666,51.333c4.781,6.998,9.125,10.979,9.438,12.104s-1.813,3.438-1.813,3.438s-0.788-2.28-1.563-2.375c-1.203-0.405-3-0.725-5.162-0.956c-1.343-1.945-4.029-5.44-7.088-7.231c-2.047,2.742-3.412,5.837-4.313,7.5c-2.568,0.042-4.887,0.465-7.5,0.625c-0.676-1.005-2.638-4.931-3.375-5.563c-0.92,1.243-1.807,3.468-2.209,4.554c-0.816,0.113-1.598,0.236-2.291,0.384c-0.723-1.816-0.791-3.146-0.791-3.146s-2-3-4.667-5.667s-13.985-31.864-13.985-31.864s-1.348-18.469-3.348-28.803C270.655,293.666,273.321,287.333,273.321,287.333z"></path><path style="fill:#505050;" d="M311.333,343.375c0,0-2-0.875-4.5-0.625s-7.375,3.25-8.875,3.25c0.875-2.875,6-6.375,8.125-6.25S311.458,342.25,311.333,343.375z"></path><path style="fill:#505050;" d="M296.018,322.503c0,0-5.147,1.716-7.435,3.432c-0.763-2.86,1.144-6.673,3.05-6.863S295.636,320.406,296.018,322.503z"></path><path style="fill:#505050;" d="M281.071,298c0,0-4-2.666-5.167-1.083s-0.249,11.917,0.333,13.5c0.584,1.583,0.166,7.416,4.084,12.083c3.916,4.667,5.5,6.251,5.5,7.167s-2.668,0.916-2.75,2.416c-0.084,1.5,4.25,8.834,3.25,11.584s-4.75,4.833-4.75,4.833l-6.863-21.625l-2.554-22.125l-1.333-8.417c0,0,1.5-6.416,2.75-8.083C275.154,288.333,279.987,294.75,281.071,298z"></path><path style="fill:#505050;" d="M320.154,365.167l-7.833-6.667l-4.167,6.667l-6.75,0.75l-4-5.917l-2.75,5.833l-9-20c0,0,14.5,10.167,15.167,10.167c0.666,0,2.5-1.833,6-9.5c3.666,0.667,11,9,11,9s9.833,9.167,9.999,10.167c0.084,0.503-0.247,1.718-0.833,1.666c-0.349-0.03-1.052-1.313-1.083-1.25C325.802,366.185,320.154,365.167,320.154,365.167z"></path><polyline style="fill:none;stroke:#000000;stroke-linecap:round;stroke-linejoin:round;stroke-dasharray:1 3;" points="309.987,358.167 307.138,363.074 302.821,363.5 297.154,356.5 292.987,363 "></polyline><path style="fill:none;stroke:#000000;stroke-linecap:round;stroke-linejoin:round;stroke-dasharray:1 3;" d="M326.487,364c0,0-4.832-0.5-6.666-0.667c-1.334-2.166-5.834-6.5-5.834-6.5"></path><path style="fill:none;stroke:#000000;stroke-linecap:round;stroke-linejoin:round;stroke-dasharray:1 3;" d="M308.737,348.75c0,0-1.041-2.381-2.881-5.765c-0.255-0.471-0.988-0.854-1.273-1.36c-0.412-0.729-0.395-1.597-0.866-2.38c-2.948-4.895-7.017-10.629-11.729-14.495c-0.271-0.463-1.098-0.693-1.363-1.166c-0.32-0.572-0.078-1.388-0.391-1.971C283.421,308.899,278.737,294,278.737,294"></path><path style="fill:none;stroke:#000000;stroke-linecap:round;stroke-linejoin:round;" d="M310.55,347.188c0,0-0.837-1.653-2.363-4.301c-0.346-0.599-1.313-0.818-1.729-1.512c-0.363-0.608-0.166-1.68-0.58-2.349c-2.693-4.354-6.43-9.897-10.891-15.216c-0.651-0.776-1.766-0.964-2.446-1.727c-0.358-0.592-0.333-1.083-0.637-2.434c-5.481-9.641-11.417-24.15-11.417-24.15"></path><path style="fill:#453D40;stroke:#000000;stroke-linecap:round;stroke-linejoin:round;" d="M314.237,359.833c0,0,2.563-6.458,2.438-7.021s-5.063-5.125-6.125-5.625c-2.063,2.625-4.063,7.688-4.063,7.688l5.625,4.875l0.709-2l-3.646-3.625l2.125-3.688l2.813,2.438l-1.541,4.958L314.237,359.833z"></path></g></g></g><g><g><g><path style="fill:#453D40;stroke:#000000;stroke-linecap:round;stroke-linejoin:round;" d="M230.876,304.602c-1.188,1.25-0.75,2.688-0.646,3l0.833,0.625c0,0,6.938-9,14.188-11.938c-1.438-0.25-2.021-0.021-2.021-0.021s-1.417-0.979-2.792,0.021s-0.938,1.875-0.938,1.875s-1.188-0.625-2.5,0.625c-1.168,1.112-0.813,2.063-0.813,2.063s-1.438-0.5-2.563,0.688c-0.989,1.045-0.688,2.438-0.688,2.438S232.063,303.352,230.876,304.602z"></path><path style="fill:#453D40;stroke:#000000;stroke-linecap:round;stroke-linejoin:round;" d="M233.33,309.667c0.167-0.5,9.334-9.667,16.667-12.667c-3.667-0.666-6.167-0.333-6.167-0.333s-9.667,5.333-13,11.333C231.538,308.438,233.33,309.667,233.33,309.667z"></path></g><g><path style="fill:#453D40;stroke:#000000;stroke-linecap:round;stroke-linejoin:round;" d="M269.124,304.602c1.188,1.25,0.75,2.688,0.646,3l-0.833,0.625c0,0-6.938-9-14.188-11.938c1.438-0.25,2.021-0.021,2.021-0.021s1.416-0.979,2.791,0.021s0.938,1.875,0.938,1.875s1.188-0.625,2.5,0.625c1.168,1.112,0.813,2.063,0.813,2.063s1.438-0.5,2.563,0.688c0.99,1.045,0.688,2.438,0.688,2.438S267.937,303.352,269.124,304.602z"></path><path style="fill:#453D40;stroke:#000000;stroke-linecap:round;stroke-linejoin:round;" d="M266.671,309.667c-0.168-0.5-9.334-9.667-16.668-12.667c3.668-0.666,6.168-0.333,6.168-0.333S265.837,302,269.17,308C268.462,308.438,266.671,309.667,266.671,309.667z"></path></g></g><g><path style="fill:none;stroke:#A84A56;stroke-linecap:round;stroke-linejoin:round;" d="M251.809,320.75c-1.183-0.619-1.655-3.063-1.817-5.563"></path><line style="fill:none;stroke:#A84A56;stroke-linecap:round;stroke-linejoin:round;" x1="250" y1="315.281" x2="250" y2="308.5"></line><path style="fill:none;stroke:#A84A56;stroke-linecap:round;stroke-linejoin:round;" d="M248.192,320.75c1.182-0.619,1.654-3.063,1.816-5.563"></path></g><g><g><g><path style="fill:#6E6E6E;stroke:#000000;stroke-linecap:round;stroke-linejoin:round;" d="M227.108,304.334c0,0-2.582,4.921-2.959,8.976c-0.547,5.878,1.146,9.19,1.146,9.19h24.315C249.611,322.5,245.687,309.463,227.108,304.334z"></path><path style="fill:#505050;" d="M225.751,322.667c0,0-1.334-3.5-0.168-5.5c1.167-2,7.768-4.914,11.334-3.666c6.666,2.333,10.166,8.833,10.166,8.833L225.751,322.667z"></path><path style="fill:none;stroke:#000000;stroke-linecap:round;stroke-linejoin:round;stroke-dasharray:1 3;" d="M225.917,310.75c0,0,9.625,3.125,13,12.375"></path><path style="fill:none;stroke:#000000;stroke-linecap:round;stroke-linejoin:round;" d="M225.022,313.738c0,0,7.787,2.843,10.655,8.613"></path></g><g><path style="fill:#6E6E6E;stroke:#000000;stroke-linecap:round;stroke-linejoin:round;" d="M272.892,304.334c0,0,2.582,4.921,2.959,8.976c0.547,5.878-1.146,9.19-1.146,9.19h-24.315C250.389,322.5,254.313,309.463,272.892,304.334z"></path><path style="fill:#505050;" d="M274.249,322.667c0,0,1.334-3.5,0.168-5.5c-1.167-2-7.768-4.914-11.334-3.666c-6.666,2.333-10.166,8.833-10.166,8.833L274.249,322.667z"></path><path style="fill:none;stroke:#000000;stroke-linecap:round;stroke-linejoin:round;stroke-dasharray:1 3;" d="M274.083,310.75c0,0-9.625,3.125-13,12.375"></path><path style="fill:none;stroke:#000000;stroke-linecap:round;stroke-linejoin:round;" d="M274.978,313.738c0,0-7.787,2.843-10.655,8.613"></path></g></g><g><g><path style="fill:#453D40;stroke:#000000;stroke-linecap:round;stroke-linejoin:round;" d="M300.545,372.043c0.6-3.115-1.2-8.009-1.2-8.009c-1.363-23.199-26.029-21.702-26.029-21.702L250,343.717l-23.315-1.385c0,0-24.666-1.497-26.029,21.702c0,0-1.801,4.894-1.201,8.009c-0.899,1.186-4.049,3.854-3.749,8.155c1.649-1.334,2.25-1.631,2.25-1.631s-2.687,4.685,0,10.084c1.147-0.761,3.899-2.966,6.45-3.262c-4.97,6.766,0.149,14.978,0.149,14.978s1.2-2.521,6.149-4.746c-0.102,3.118,1.481,4.09,1.481,4.09s-0.132,3.325,0.468,4.66c3.9-1.632,6.149-2.818,8.1-5.19c-0.15,3.559,0.3,6.229,1.5,7.712c4.683-1.57,8.166-3.471,9.516-6.732c-1.199,5.042-0.967,8.512-0.967,8.512s6.299-2.817,8.549-6.081c-0.6,2.967-0.748,4.751,1.252,7.743c0.5-2.02,2.5-3.366,2.5-3.366s5.697-1.855,6.897-4.377c1.2,2.521,6.897,4.377,6.897,4.377s2,1.347,2.5,3.366c2-2.992,1.852-4.776,1.252-7.743c2.25,3.264,8.549,6.081,8.549,6.081s0.232-3.47-0.967-8.512c1.35,3.262,4.833,5.162,9.516,6.732c1.2-1.483,1.65-4.153,1.5-7.712c1.95,2.372,4.199,3.559,8.1,5.19c0.6-1.335,0.468-4.66,0.468-4.66s1.583-0.972,1.481-4.09c4.949,2.226,6.149,4.746,6.149,4.746s5.119-8.212,0.149-14.978c2.551,0.296,5.303,2.501,6.45,3.262c2.687-5.399,0-10.084,0-10.084s0.6,0.297,2.25,1.631C304.595,375.897,301.445,373.229,300.545,372.043z"></path><g><g><path style="fill:#271F22;" d="M199.864,373.625c0,0-0.625,3.375,0,4.5c1.875-1.875,3.25-3.125,3.25-3.125l0.875-4.375C203.989,370.625,200.739,372.75,199.864,373.625z"></path><path style="fill:#271F22;" d="M204.489,379.75c0,0-0.125,2.5,0.875,3.875c2.875-1.125,4.25-2.125,4.25-2.125l-1-2.75L204.489,379.75z"></path></g><g><path style="fill:#271F22;" d="M300.135,373.625c0,0,0.625,3.375,0,4.5c-1.875-1.875-3.25-3.125-3.25-3.125l-0.875-4.375C296.01,370.625,299.26,372.75,300.135,373.625z"></path><path style="fill:#271F22;" d="M295.51,379.75c0,0,0.125,2.5-0.875,3.875c-2.875-1.125-4.25-2.125-4.25-2.125l1-2.75L295.51,379.75z"></path></g></g><path style="fill:#271F22;" d="M267.875,383.25L250,388.813l-17.875-5.563l-0.875,9.125c0.125,0.25,0.75,3.688,3.813,4.938c4.125-3.563,4.5-4.125,4.5-4.125l2.563,2.688c0,0,1,3.125,1.188,3s4.625-1.813,6.688-5.688c2.063,3.875,6.5,5.563,6.688,5.688s1.188-3,1.188-3l2.563-2.688c0,0,0.375,0.563,4.5,4.125c3.063-1.25,3.688-4.688,3.813-4.938L267.875,383.25z"></path><path style="fill:#271F22;" d="M250,350c0,0-9,17.75-10.25,25.75c0,0,3.25-4.5,10.25-4.75c7,0.25,10.25,4.75,10.25,4.75C259,367.75,250,350,250,350z"></path><g><g><path style="fill:#453D40;stroke:#000000;stroke-linecap:round;stroke-linejoin:round;" d="M199.604,372.043c0,0-0.299,0.889,0,2.076c1.5-1.928,5.1-4.005,5.1-4.005s-2.936,2.964-0.899,10.381c2.38-0.46,5.999-1.631,7.95-5.487c-0.752,4.895-2.172,11.003-0.236,14.754c4.05,0.741,8.6-0.846,10.25-3.366c-0.534,3.635,1.834,7.406,1.834,7.406s6.083-1.198,7.799-6.781c0.45,4.597,2.55,7.118,3.15,7.563c2.134-1.604,4-2.619,5.051-7.216c0.166,3.741,0.75,4.938,2.416,6.06c0,1.796,0.332,3.382,0.332,3.382s6.149-3.411,7.199-8.305"></path></g><g><path style="fill:#453D40;stroke:#000000;stroke-linecap:round;stroke-linejoin:round;" d="M300.396,372.043c0,0,0.299,0.889,0,2.076c-1.501-1.928-5.101-4.005-5.101-4.005s2.937,2.964,0.9,10.381c-2.38-0.46-5.999-1.631-7.95-5.487c0.752,4.895,2.172,11.003,0.236,14.754c-4.05,0.741-8.6-0.846-10.25-3.366c0.534,3.635-1.834,7.406-1.834,7.406s-6.083-1.198-7.799-6.781c-0.45,4.597-2.55,7.118-3.15,7.563c-2.134-1.604-4-2.619-5.051-7.216c-0.166,3.741-0.75,4.938-2.416,6.06c0,1.796-0.332,3.382-0.332,3.382s-6.149-3.411-7.199-8.305"></path></g></g><g><path style="fill:#271F22;" d="M238.167,377.251c0,0,2.083,3.5,2.333,4s2.167,0.75,4.583,0c-0.75,0.834-3,3-6.416,5.666c-1.666-1.834-0.917-6.333-0.917-6.333L238.167,377.251z"></path><path style="fill:#271F22;" d="M261.833,377.251c0,0-2.083,3.5-2.333,4s-2.167,0.75-4.583,0c0.75,0.834,3,3,6.416,5.666c1.666-1.834,0.917-6.333,0.917-6.333L261.833,377.251z"></path></g></g><g><g><path style="fill:#6E6E6E;stroke:#000000;stroke-linecap:round;stroke-linejoin:round;" d="M226.318,325.136c-5.483,3.501-10.844,17.802-10.844,17.802s-4.61,1.726-7.415,3.816c-1.181,2.089-1.348,4.271-1.348,4.271s6.014-3.181,9.898-4.359c-3.746,2.088-7.379,4.48-10.203,6.449c-3.484,7.45,0.151,14.326,0.151,14.326l15.003-10.056c0,0-8.666,7.087-14.113,13.69C206.896,387.066,220.926,398.335,227,401c9.604-15.473,9.427-19.493,23-48.643V325.54C245.126,325.401,234.688,325.136,226.318,325.136z"></path><g><path style="fill:#505050;" d="M227.381,341.25c0,0,4.375,0,6.125,0.375s10.125,2.375,8.375,0.625s-7.875-5.5-9.875-5.25S228.256,340,227.381,341.25z"></path></g><path style="fill:#505050;" d="M224.813,326.875c0,0,5,5,8.375,6.5s14.625,1.375,16.75,1.25c0-5.375,0-8.375,0-8.375L224.813,326.875z"></path><g><line style="fill:none;stroke:#000000;stroke-linecap:round;stroke-linejoin:round;stroke-dasharray:1 3;" x1="225.667" y1="397.667" x2="249" y2="349.833"></line></g><path style="fill:#505050;" d="M206.792,366.667l14.25-9.541l6.958-9.542c0,0-21.39,10.248-22.5,12.792C205.5,364.501,206.792,366.667,206.792,366.667z"></path><path style="fill:none;stroke:#000000;stroke-linecap:round;stroke-linejoin:round;stroke-dasharray:1 3;" d="M208.634,372.286l14.886-13.812c0,0,7.997-10.903,9.997-13.084c0.591-10.299,4.145-18.658,4.145-18.658"></path><path style="fill:none;stroke:#000000;stroke-linecap:round;stroke-linejoin:round;stroke-dasharray:1 3;" d="M218.351,346.208c0,0,7.191-14.266,11.301-19.263"></path><path style="fill:none;stroke:#000000;stroke-linecap:round;stroke-linejoin:round;" d="M217.128,346.39c0,0,3.512-12.175,10.232-19.717"></path><path style="fill:none;stroke:#000000;stroke-linecap:round;stroke-linejoin:round;" d="M221.562,357.385c0,0,3.614-5.513,9.475-12.964c0.039-0.05,0.168-1.149,0.414-2.82c0.104-0.699,0.78-1.112,0.925-1.976c0.119-0.711-0.301-1.852-0.151-2.631c0.699-3.631,1.743-7.791,3.234-10.504"></path></g><g><path style="fill:#6E6E6E;stroke:#000000;stroke-linecap:round;stroke-linejoin:round;" d="M273.682,325.136c5.484,3.501,10.844,17.802,10.844,17.802s4.611,1.726,7.416,3.816c1.18,2.089,1.346,4.271,1.346,4.271s-6.013-3.181-9.898-4.359c3.746,2.088,7.381,4.48,10.204,6.449c3.484,7.45-0.151,14.326-0.151,14.326l-15.002-10.056c0,0,8.664,7.087,14.111,13.69c0.553,15.991-13.477,27.26-19.551,29.925c-9.605-15.473-9.428-19.493-23-48.643V325.54C254.875,325.401,265.313,325.136,273.682,325.136z"></path><path style="fill:#505050;" d="M272.619,341.25c0,0-4.375,0-6.125,0.375s-10.125,2.375-8.375,0.625s7.875-5.5,9.875-5.25S271.744,340,272.619,341.25z"></path><g><path style="fill:#505050;" d="M275.188,326.875c0,0-5,5-8.375,6.5s-14.625,1.375-16.75,1.25c0-5.375,0-8.375,0-8.375L275.188,326.875z"></path></g><line style="fill:none;stroke:#000000;stroke-linecap:round;stroke-linejoin:round;stroke-dasharray:1 3;" x1="274.333" y1="397.667" x2="251" y2="349.833"></line><path style="fill:#505050;" d="M293.208,366.667l-14.25-9.541L272,347.584c0,0,21.389,10.248,22.5,12.792C294.5,364.501,293.208,366.667,293.208,366.667z"></path><path style="fill:none;stroke:#000000;stroke-linecap:round;stroke-linejoin:round;stroke-dasharray:1 3;" d="M291.367,372.286l-14.887-13.812c0,0-7.998-10.903-9.997-13.084c-0.591-10.299-4.145-18.658-4.145-18.658"></path><path style="fill:none;stroke:#000000;stroke-linecap:round;stroke-linejoin:round;stroke-dasharray:1 3;" d="M281.649,346.208c0,0-7.191-14.266-11.302-19.263"></path><path style="fill:none;stroke:#000000;stroke-linecap:round;stroke-linejoin:round;" d="M282.871,346.39c0,0-3.511-12.175-10.231-19.717"></path><path style="fill:none;stroke:#000000;stroke-linecap:round;stroke-linejoin:round;" d="M278.439,357.385c0,0-3.615-5.513-9.475-12.964c-0.039-0.05-0.169-1.149-0.415-2.82c-0.092-0.627-0.799-1.213-0.925-1.976c-0.123-0.743,0.336-1.662,0.179-2.487c-0.699-3.664-1.751-7.898-3.261-10.647"></path></g></g><path style="fill:#453D40;stroke:#000000;stroke-linecap:round;stroke-linejoin:round;" d="M250,327.938c0,0-5.637,3.688-5.365,4.563c0.272,0.875,5.365,4.375,5.365,4.375s5.093-3.5,5.365-4.375C255.637,331.625,250,327.938,250,327.938z"></path><path style="fill:#453D40;stroke:#000000;stroke-linecap:round;stroke-linejoin:round;" d="M249.999,338.605c0,0-3.67,1.898-3.492,2.349c0.177,0.451,3.492,2.254,3.492,2.254s3.317-1.803,3.495-2.254C253.671,340.504,249.999,338.605,249.999,338.605z"></path><path style="fill:#453D40;stroke:#000000;stroke-linecap:round;stroke-linejoin:round;" d="M250,346.093c0,0-2.359,1.29-2.247,1.596c0.115,0.307,2.247,1.532,2.247,1.532s2.135-1.226,2.246-1.532C252.36,347.383,250,346.093,250,346.093z"></path></g><path style="fill:#453D40;stroke:#000000;stroke-linecap:round;stroke-linejoin:round;" d="M275.436,322.75L250,322.5l-25.437,0.25c0,0-0.987,2.5,0,4.75c1.235,0.5,25.437,0,25.437,0s24.201,0.5,25.436,0C276.424,325.25,275.436,322.75,275.436,322.75z"></path></g></g></g></g></svg>