<svg xmlns="http://www.w3.org/2000/svg" width="500" height="500" version="1.1"><g id="a9008"><g><g><g><g><g><path style="fill:#6E6E6E;stroke:#000000;stroke-linecap:round;stroke-linejoin:round;" d="M292.151,324.13c0.175-1.078,0.387-2.318,0.599-3.38c-0.5-1-4-4.25-4-4.25c-5.5-1.833-14.833-3-14.833-3l0.833,10c0,0,10.166,32.666,12.833,37.666C290.25,362,304.75,355,304.75,355S296.938,335.471,292.151,324.13z"></path><path style="fill:#505050;" d="M291.75,323.667c-1.021,5.786-0.43,4.985-0.75,6.583c-3.625,2.125-7.917,6.75-6.583,7.417S295.75,336,297.75,337.5s-15,10.5-15,10.5l-7.666-25.666L291.75,323.667z"></path><path style="fill:#6E6E6E;stroke:#000000;stroke-linecap:round;stroke-linejoin:round;" d="M299.75,343.25c0,0,11.083,15.084,13.75,18.25s12.25,28.667,14.083,33c-4.666,1.333-7.5-0.833-7.5-0.833s1.429,6.404-2.5,7.833c-3.666,1.333-5.833-1.333-5.833-1.333s1.833,5.5-3.5,6.666c-4.151,0.907-5.833-0.666-7.667-3.167c-2.167,3.5-8.667,7.001-11,5.667c-1.333-1.5-6.833-60.583-6.833-60.583"></path><path style="fill:#505050;" d="M284.75,364.333l3,11.001c0,0,11-11.333,11-15.333C291.75,360.5,284.75,364.333,284.75,364.333z"></path><path style="fill:#505050;" d="M288.75,383c0,0,15-20,17-21s6.5,6,6.5,6s1.833-2.668,2.5-2.5s12.167,28.666,12.167,28.666s-3.917,1.085-6.75-0.915c-0.5,1.333,0.464,6.664-2.584,7.749c-3.749,1.334-5.833-1.5-5.833-1.5s1.25,6.001-3.916,7.033c-4.738,0.946-7.251-3.533-7.251-3.533s-6.166,6.332-10.5,6.499C288.583,403.499,288.75,383,288.75,383z"></path></g><path style="fill:#272224;" d="M324.251,385.167c0,0-2.05,1.715-2.668,1c-0.619-0.715-1.332-3.083-1.332-3.083s2-1.667,2.625-1.167C324.126,383.417,324.251,385.167,324.251,385.167z"></path><path style="fill:#272224;" d="M316.104,387.534c0,0-0.462-2.306-0.957-2.445c-0.164-0.048-1.159,0.195-2.412,0.538l-1.147-4.012c0,0-2.878,0.612-3.006,1.111c-0.049,0.192,0.357,1.86,0.875,3.842c-1.596,0.473-2.904,0.876-2.904,0.876l0.789,2.919l2.879-0.929c0.624,2.299,1.188,4.305,1.188,4.305l3.256-1.36l-1.146-4.011L316.104,387.534z"></path><path style="fill:#272224;stroke:#000000;stroke-linecap:round;stroke-linejoin:round;" d="M298.76,391.153c0,0-0.104-2.35-0.571-2.563c-0.155-0.071-1.176,0.016-2.467,0.163l-0.519-4.141c0,0-2.938,0.164-3.14,0.638c-0.078,0.183,0.067,1.894,0.275,3.931c-1.649,0.224-3.005,0.422-3.005,0.422l0.333,3.005l2.988-0.478c0.264,2.368,0.513,4.437,0.513,4.437l3.426-0.846l-0.518-4.139L298.76,391.153z"></path><g><path style="fill:#272224;stroke:#000000;stroke-linecap:round;stroke-linejoin:round;" d="M297.875,396.375c-2.962-0.475-6.763,1.165-7.525,1.719c1.667,15.883,0.744,32.59,0.667,40.355l9.367-2.721C300.575,425.184,299.173,402.614,297.875,396.375z"></path><path style="fill:#FFFFFF;stroke:#000000;stroke-linecap:round;stroke-linejoin:round;" d="M291.017,438.449c-0.027,2.812-0.075,4.461-0.075,4.461s2.687,0.094,9.243-2.906c0.101-0.941,0.166-2.424,0.199-4.275L291.017,438.449z"></path></g><g><path style="fill:#272224;stroke:#000000;stroke-linecap:round;stroke-linejoin:round;" d="M316.298,391.235c-2.996-0.166-6.607,1.855-7.31,2.485c3.295,15.627,4.099,32.34,4.821,40.072l9.037-3.672C321.95,419.612,318.23,397.308,316.298,391.235z"></path><path style="fill:#FFFFFF;stroke:#000000;stroke-linecap:round;stroke-linejoin:round;" d="M313.81,433.793c0.263,2.799,0.385,4.444,0.385,4.444s2.683-0.183,8.895-3.843c0.003-0.947-0.084-2.429-0.242-4.273L313.81,433.793z"></path></g></g><g><g><polygon style="fill:#272224;stroke:#000000;stroke-linecap:round;stroke-linejoin:round;" points="292.083,325.667 279.75,338.333 276.75,331.167 286.25,322.833 "></polygon><path style="fill:#272224;stroke:#000000;stroke-linecap:round;stroke-linejoin:round;" d="M292.083,325.667c0,0-14-3.001-18.333-3.334c1-4,1.333-7,1.333-7s13.001,1.668,14.334,2.001c2.666,1.666,3.333,3.416,3.333,3.416L292.083,325.667z"></path></g><path style="fill:#272224;stroke:#000000;stroke-linecap:round;stroke-linejoin:round;" d="M280.917,344.5c0,0,10-5.167,16.833-7l2.167,6.166c0,0-15.666,7-17,7.5C281.75,347.499,280.917,344.5,280.917,344.5z"></path></g></g><g><g><g><path style="fill:#6E6E6E;stroke:#000000;stroke-linecap:round;stroke-linejoin:round;" d="M207.849,324.13c-0.175-1.078-0.387-2.318-0.599-3.38c0.5-1,4-4.25,4-4.25c5.5-1.833,14.833-3,14.833-3l-0.833,10c0,0-10.166,32.666-12.833,37.666C209.75,362,195.25,355,195.25,355S203.062,335.471,207.849,324.13z"></path><path style="fill:#505050;" d="M208.25,323.667c1.021,5.786,0.43,4.985,0.75,6.583c3.625,2.125,7.917,6.75,6.583,7.417S204.25,336,202.25,337.5s15,10.5,15,10.5l7.666-25.666L208.25,323.667z"></path><path style="fill:#6E6E6E;stroke:#000000;stroke-linecap:round;stroke-linejoin:round;" d="M200.25,343.25c0,0-11.083,15.084-13.75,18.25s-12.25,28.667-14.083,33c4.666,1.333,7.5-0.833,7.5-0.833s-1.429,6.404,2.5,7.833c3.666,1.333,5.833-1.333,5.833-1.333s-1.833,5.5,3.5,6.666c4.151,0.907,5.833-0.666,7.667-3.167c2.167,3.5,8.667,7.001,11,5.667c1.333-1.5,6.833-60.583,6.833-60.583"></path><path style="fill:#505050;" d="M215.25,364.333l-3,11.001c0,0-11-11.333-11-15.333C208.25,360.5,215.25,364.333,215.25,364.333z"></path><path style="fill:#505050;" d="M211.25,383c0,0-15-20-17-21s-6.5,6-6.5,6s-1.833-2.668-2.5-2.5s-12.167,28.666-12.167,28.666s3.917,1.085,6.75-0.915c0.5,1.333-0.464,6.664,2.584,7.749c3.749,1.334,5.833-1.5,5.833-1.5s-1.25,6.001,3.916,7.033c4.738,0.946,7.251-3.533,7.251-3.533s6.166,6.332,10.5,6.499C211.417,403.499,211.25,383,211.25,383z"></path></g><path style="fill:#272224;" d="M175.749,385.167c0,0,2.05,1.715,2.668,1c0.619-0.715,1.332-3.083,1.332-3.083s-2-1.667-2.625-1.167C175.874,383.417,175.749,385.167,175.749,385.167z"></path><path style="fill:#272224;" d="M183.896,387.534c0,0,0.462-2.306,0.957-2.445c0.164-0.048,1.159,0.195,2.412,0.538l1.147-4.012c0,0,2.878,0.612,3.006,1.111c0.049,0.192-0.357,1.86-0.875,3.842c1.596,0.473,2.904,0.876,2.904,0.876l-0.789,2.919l-2.879-0.929c-0.624,2.299-1.188,4.305-1.188,4.305l-3.256-1.36l1.146-4.011L183.896,387.534z"></path><path style="fill:#272224;stroke:#000000;stroke-linecap:round;stroke-linejoin:round;" d="M201.24,391.153c0,0,0.104-2.35,0.571-2.563c0.155-0.071,1.176,0.016,2.467,0.163l0.519-4.141c0,0,2.938,0.164,3.14,0.638c0.078,0.183-0.067,1.894-0.275,3.931c1.649,0.224,3.005,0.422,3.005,0.422l-0.333,3.005l-2.988-0.478c-0.264,2.368-0.513,4.437-0.513,4.437l-3.426-0.846l0.518-4.139L201.24,391.153z"></path><g><path style="fill:#272224;stroke:#000000;stroke-linecap:round;stroke-linejoin:round;" d="M202.125,396.375c2.962-0.475,6.763,1.165,7.525,1.719c-1.667,15.883-0.744,32.59-0.667,40.355l-9.367-2.721C199.425,425.184,200.827,402.614,202.125,396.375z"></path><path style="fill:#FFFFFF;stroke:#000000;stroke-linecap:round;stroke-linejoin:round;" d="M208.983,438.449c0.027,2.812,0.075,4.461,0.075,4.461s-2.687,0.094-9.243-2.906c-0.101-0.941-0.166-2.424-0.199-4.275L208.983,438.449z"></path></g><g><path style="fill:#272224;stroke:#000000;stroke-linecap:round;stroke-linejoin:round;" d="M183.702,391.235c2.996-0.166,6.607,1.855,7.31,2.485c-3.295,15.627-4.099,32.34-4.821,40.072l-9.037-3.672C178.05,419.612,181.77,397.308,183.702,391.235z"></path><path style="fill:#FFFFFF;stroke:#000000;stroke-linecap:round;stroke-linejoin:round;" d="M186.19,433.793c-0.263,2.799-0.385,4.444-0.385,4.444s-2.683-0.183-8.895-3.843c-0.003-0.947,0.084-2.429,0.242-4.273L186.19,433.793z"></path></g></g><g><g><polygon style="fill:#272224;stroke:#000000;stroke-linecap:round;stroke-linejoin:round;" points="207.917,325.667 220.25,338.333 223.25,331.167 213.75,322.833 "></polygon><path style="fill:#272224;stroke:#000000;stroke-linecap:round;stroke-linejoin:round;" d="M207.917,325.667c0,0,14-3.001,18.333-3.334c-1-4-1.333-7-1.333-7s-13.001,1.668-14.334,2.001c-2.666,1.666-3.333,3.416-3.333,3.416L207.917,325.667z"></path></g><path style="fill:#272224;stroke:#000000;stroke-linecap:round;stroke-linejoin:round;" d="M219.083,344.5c0,0-10-5.167-16.833-7l-2.167,6.166c0,0,15.666,7,17,7.5C218.25,347.499,219.083,344.5,219.083,344.5z"></path></g></g></g><g><g><linearGradient id="onepXMLID_59_" gradientUnits="userSpaceOnUse" x1="202.7544" y1="419.7393" x2="202.7544" y2="398.5732" gradientTransform="matrix(0.9718 0.236 -0.236 0.9718 102.0206 -35.5078)"><stop offset="0.0056" style="stop-color:#000000"></stop><stop offset="1" style="stop-color:#8C8C8C"></stop></linearGradient><path style="fill:url(#onepXMLID_59_);stroke:#000000;stroke-linecap:round;stroke-linejoin:round;" d="M203.9,387.183c-0.317,0.833-0.62,13.214-2.841,17.003c-2.222,3.788-6.482,9.605-6.539,11.439c-0.057,1.834,1.037,3.153,1.037,3.153s-0.829,2.569-0.293,3.392c0.536,0.824,0.766,1.3,0.766,1.3s-2.234,4.97-1.402,5.286c0.832,0.318,2.608-2.712,2.979-3.344c0.371-0.633,3.776-6.441,5.423-7.512c1.603-0.418,1.381-0.04,1.381-0.04s-1.272,3.328-0.441,3.646c0.833,0.318,3.241-2.343,3.468-4.756c0.227-2.412-1.105-5.06,0.084-9.114c1.189-4.056,3.885-12.995,3.315-17.232C207.031,386.475,203.9,387.183,203.9,387.183z"></path><linearGradient id="onepXMLID_60_" gradientUnits="userSpaceOnUse" x1="222.8032" y1="431.833" x2="222.8032" y2="410.666"><stop offset="0.0056" style="stop-color:#000000"></stop><stop offset="1" style="stop-color:#8C8C8C"></stop></linearGradient><path style="fill:url(#onepXMLID_60_);stroke:#000000;stroke-linecap:round;stroke-linejoin:round;" d="M213.946,395.759c-0.146,0.878-1.317,6.295-1.317,7.905s2.489,7.174,2.195,10.541c-0.293,3.366-0.732,6.295-0.732,6.295c1.172,0.731,2.051,5.124,2.051,5.124s2.78,3.659,3.514,3.366c0.732-0.292,1.464-1.463,0.732-2.342c-0.732-0.878-2.051-2.781-2.051-2.781s-0.585-3.073-0.146-3.367c0.439-0.293,8.052,6.588,9.223,6.588s0.292-2.635-0.293-3.074s-4.538-4.246-4.538-4.246s-0.439-3.367,0.292-3.367c0.732,0,7.174,6.296,8.345,5.71c1.172-0.586,0.293-1.903,0.293-1.903s-5.627-4.907-5.27-5.71c0.585-1.317,5.27,2.636,6.003,2.343c0.73-0.293,0.73-1.757,0.73-1.757s-7.758-5.563-8.197-5.856c-0.439-0.292-0.879-3.22-3.222-5.416C219.217,401.614,213.946,395.759,213.946,395.759z"></path><linearGradient id="onepXMLID_61_" gradientUnits="userSpaceOnUse" x1="301.333" y1="431.833" x2="301.333" y2="410.666"><stop offset="0.0056" style="stop-color:#000000"></stop><stop offset="1" style="stop-color:#8C8C8C"></stop></linearGradient><path style="fill:url(#onepXMLID_61_);stroke:#000000;stroke-linecap:round;stroke-linejoin:round;" d="M290.455,390.17c0.762,0.46,5.636,3.099,6.858,4.147c1.222,1.048,3.822,6.562,6.569,8.53c2.745,1.97,5.254,3.543,5.254,3.543c-0.208,1.366,2.554,4.894,2.554,4.894s0.966,4.493,0.267,4.858c-0.699,0.366-2.064,0.159-2.255-0.969c-0.188-1.128-0.774-3.368-0.774-3.368s-1.952-2.444-2.462-2.302c-0.508,0.143-0.243,10.399-1.006,11.289c-0.762,0.888-2.189-1.495-2.143-2.225c0.048-0.73-0.267-6.21-0.267-6.21s-2.269-2.526-2.746-1.97c-0.477,0.556,0.106,9.544-1.1,10.05c-1.208,0.508-1.636-1.017-1.636-1.017s-0.06-7.466-0.901-7.718c-1.382-0.413-1.432,5.716-2.132,6.082c-0.698,0.363-1.81-0.59-1.81-0.59s0.83-9.511,0.895-10.034c0.064-0.524-1.871-2.764-2.012-5.973C291.468,397.981,290.455,390.17,290.455,390.17z"></path><linearGradient id="onepXMLID_62_" gradientUnits="userSpaceOnUse" x1="279.917" y1="431.833" x2="279.917" y2="410.666"><stop offset="0.0056" style="stop-color:#000000"></stop><stop offset="1" style="stop-color:#8C8C8C"></stop></linearGradient><path style="fill:url(#onepXMLID_62_);stroke:#000000;stroke-linecap:round;stroke-linejoin:round;" d="M273.501,390.333c0.666,1.667,3,4.667,4.833,8.667s2.333,7,1.333,8.833s-2.666,3.999-2.833,5.333s0.333,4.5-1.167,6.167s-4,3.333-4,4s0.166,2.001,1,1.667s3.5-1.501,5.167-5.334c-0.5,2.167-1.167,4.168-2.167,4.834s-2.666,1.499-2.833,2.166s0.167,1.5,1,1.5s2.833,0.167,4-1.333s2.667-3.334,3.167-3.667c-0.5,1.667-0.668,4.5-1.834,5.667s-2.5,3.001-2.5,3.667s0.5,1.166,1.5,0.833s3.334-1.667,3.834-3.5s1.666-4.833,1.666-4.833s0.5,2.834,1.667,2.5c0.333-2.667,0.667-8.5,1-10.167s1.833-4.834,1.833-5.667s-1-12.833-1.833-16.833s-4-14-6.5-16.5C277.001,383,273.501,390.333,273.501,390.333z"></path><linearGradient id="onepXMLID_63_" gradientUnits="userSpaceOnUse" x1="251.4648" y1="431.833" x2="251.4648" y2="410.666"><stop offset="0.0056" style="stop-color:#000000"></stop><stop offset="1" style="stop-color:#8C8C8C"></stop></linearGradient><path style="fill:url(#onepXMLID_63_);stroke:#000000;stroke-linecap:round;stroke-linejoin:round;" d="M262.331,419.551c-0.109-0.55-4.063-7.138-4.063-8.675s-0.22-6.258-0.22-6.258l3.185-5.381l-8.564-2.745c0,0-2.965,3.844-3.404,4.831c-0.438,0.988-2.415,9.333-4.063,11.2c-0.262,0.297-3.843,5.819-4.172,6.478c-0.329,0.659-0.769,3.624-0.22,3.514c0.549-0.109,4.282-3.294,5.38-4.831c0.11,1.317,0.11,2.306,0.11,2.306s-0.988,4.941-1.099,6.918c-0.109,1.976,0.22,4.172,0.879,4.501c0.658,0.33,2.086,0.22,2.196-0.219c0.109-0.439,0.219-4.393,0.329-5.819c0.109-1.428,1.427-5.161,1.427-5.161s2.196,4.722,2.636,7.027s0.109,5.6,0.878,5.71c0.769,0.109,1.867-0.33,1.867-0.33l0.329-2.086c0,0,1.537,0.549,1.866-0.109c0.33-0.659,0.988-3.075,1.099-3.844c0.109-0.769,0-4.392-0.33-5.27c-0.329-0.879-0.769-3.075-0.769-3.075s2.307,2.855,2.416,3.733c0.109,0.879-0.329,4.173,0.659,4.722c0.987,0.549,1.646-0.439,1.646-0.439S262.441,420.1,262.331,419.551z M255.743,426.797c0,0-1.647-3.843-1.757-4.172c-0.109-0.33,0.22-2.087,0.22-2.087s1.866,4.502,1.977,5.051C256.292,426.139,255.743,426.797,255.743,426.797z"></path></g><g><g><path style="fill:#696463;stroke:#000000;stroke-linecap:round;stroke-linejoin:round;" d="M281,341.5l-31,0.823l-31-0.823c0,0-22,26.357-26,56.422c2,1.647,5-1.235,5-1.235s1.5,4.53,7,5.354c5.5,0.824,8.5-0.823,8.5-0.823s3.5,4.118,9,4.942c5.5,0.823,9-1.647,9-1.647s4.5,4.53,10,4.942c5.5,0.411,8.5-2.06,8.5-2.06s3,2.471,8.5,2.06c5.5-0.412,10-4.942,10-4.942s3.5,2.471,9,1.647c5.5-0.824,9-4.942,9-4.942s3,1.647,8.5,0.823c5.5-0.823,7-5.354,7-5.354s3,2.883,5,1.235C303,367.857,281,341.5,281,341.5z"></path><path style="fill:#4B4645;" d="M280.875,342.875L250,342.625l-30.875,0.25c0,0-14.5,16.375-20.375,36.625c0,0,7.25-14.875,51.25-14.875s51.25,14.875,51.25,14.875C295.375,359.25,280.875,342.875,280.875,342.875z"></path><g><g><path style="fill:none;stroke:#000000;stroke-linecap:round;stroke-linejoin:round;" d="M249.417,406.833c0,0,0.166-39,0.166-64.333"></path></g><path style="fill:none;stroke:#000000;stroke-linecap:round;stroke-linejoin:round;" d="M197.85,396.687c0,0,7-32.354,24.333-54.687"></path><path style="fill:none;stroke:#000000;stroke-linecap:round;stroke-linejoin:round;" d="M200.725,400c0,0,6.917-35.448,23.167-57.969"></path><path style="fill:none;stroke:#000000;stroke-linecap:round;stroke-linejoin:round;" d="M203.85,401.375c0,0,6.583-36.604,21.75-59.313"></path><path style="fill:none;stroke:#000000;stroke-linecap:round;stroke-linejoin:round;" d="M206.85,401.75c0,0,6.375-36.761,20.458-59.656"></path><path style="fill:none;stroke:#000000;stroke-linecap:round;stroke-linejoin:round;" d="M210.225,402.125c0,0,5.792-36.917,18.792-60"></path><path style="fill:none;stroke:#000000;stroke-linecap:round;stroke-linejoin:round;" d="M213.475,401.25c0,0,5.333-35.823,17.25-59.094"></path><path style="fill:none;stroke:#000000;stroke-linecap:round;stroke-linejoin:round;" d="M216.6,403.375c0,0,5-37.729,15.833-61.188"></path><path style="fill:none;stroke:#000000;stroke-linecap:round;stroke-linejoin:round;" d="M219.6,404.875c0,0,4.792-39.011,14.542-62.656"></path><path style="fill:none;stroke:#000000;stroke-linecap:round;stroke-linejoin:round;" d="M222.975,405.875c0,0,4.208-39.792,12.875-63.625"></path><path style="fill:none;stroke:#000000;stroke-linecap:round;stroke-linejoin:round;" d="M226.35,405.875c0,0,3.625-39.573,11.208-63.594"></path><path style="fill:none;stroke:#000000;stroke-linecap:round;stroke-linejoin:round;" d="M229.725,405.125c0,0,3.042-38.604,9.542-62.813"></path><path style="fill:none;stroke:#000000;stroke-linecap:round;stroke-linejoin:round;" d="M232.975,405.5c0,0,2.583-38.761,8-63.156"></path><path style="fill:none;stroke:#000000;stroke-linecap:round;stroke-linejoin:round;" d="M236.475,407.5c0,0,1.875-40.542,6.208-65.125"></path><path style="fill:none;stroke:#000000;stroke-linecap:round;stroke-linejoin:round;" d="M239.475,408.875c0,0,1.667-41.698,4.917-66.469"></path><path style="fill:none;stroke:#000000;stroke-linecap:round;stroke-linejoin:round;" d="M242.725,409c0,0,1.208-41.604,3.375-66.563"></path><path style="fill:none;stroke:#000000;stroke-linecap:round;stroke-linejoin:round;" d="M246.35,408.625c0,0,0.375-41.011,1.458-66.156"></path><path style="fill:none;stroke:#000000;stroke-linecap:round;stroke-linejoin:round;" d="M220.225,341.75c0,0-19.625,25-25,55.875"></path><path style="fill:none;stroke:#000000;stroke-linecap:round;stroke-linejoin:round;" d="M301.148,396.687c0,0-7-32.354-24.334-54.687"></path><path style="fill:none;stroke:#000000;stroke-linecap:round;stroke-linejoin:round;" d="M298.273,400c0,0-6.917-35.448-23.168-57.969"></path><path style="fill:none;stroke:#000000;stroke-linecap:round;stroke-linejoin:round;" d="M295.148,401.375c0,0-6.584-36.604-21.75-59.313"></path><path style="fill:none;stroke:#000000;stroke-linecap:round;stroke-linejoin:round;" d="M292.148,401.75c0,0-6.375-36.761-20.459-59.656"></path><path style="fill:none;stroke:#000000;stroke-linecap:round;stroke-linejoin:round;" d="M288.773,402.125c0,0-5.792-36.917-18.793-60"></path><path style="fill:none;stroke:#000000;stroke-linecap:round;stroke-linejoin:round;" d="M285.523,401.25c0,0-5.334-35.823-17.25-59.094"></path><path style="fill:none;stroke:#000000;stroke-linecap:round;stroke-linejoin:round;" d="M282.398,403.375c0,0-5-37.729-15.834-61.188"></path><path style="fill:none;stroke:#000000;stroke-linecap:round;stroke-linejoin:round;" d="M279.398,404.875c0,0-4.792-39.011-14.542-62.656"></path><path style="fill:none;stroke:#000000;stroke-linecap:round;stroke-linejoin:round;" d="M276.023,405.875c0,0-4.209-39.792-12.875-63.625"></path><path style="fill:none;stroke:#000000;stroke-linecap:round;stroke-linejoin:round;" d="M272.648,405.875c0,0-3.625-39.573-11.209-63.594"></path><path style="fill:none;stroke:#000000;stroke-linecap:round;stroke-linejoin:round;" d="M269.273,405.125c0,0-3.042-38.604-9.542-62.813"></path><path style="fill:none;stroke:#000000;stroke-linecap:round;stroke-linejoin:round;" d="M266.023,405.5c0,0-2.584-38.761-8-63.156"></path><path style="fill:none;stroke:#000000;stroke-linecap:round;stroke-linejoin:round;" d="M262.523,407.5c0,0-1.875-40.542-6.209-65.125"></path><path style="fill:none;stroke:#000000;stroke-linecap:round;stroke-linejoin:round;" d="M259.523,408.875c0,0-1.667-41.698-4.917-66.469"></path><path style="fill:none;stroke:#000000;stroke-linecap:round;stroke-linejoin:round;" d="M256.273,409c0,0-1.209-41.604-3.375-66.563"></path><path style="fill:none;stroke:#000000;stroke-linecap:round;stroke-linejoin:round;" d="M252.648,408.625c0,0-0.375-41.011-1.459-66.156"></path><path style="fill:none;stroke:#000000;stroke-linecap:round;stroke-linejoin:round;" d="M278.773,341.75c0,0,19.625,25,25,55.875"></path></g></g><g><g><path style="fill:#505050;stroke:#000000;stroke-linecap:round;stroke-linejoin:round;" d="M205.334,362.667c0,0,6,13.667,11.666,19c-2,7-2.333,9.666-2.333,9.666S202.334,374,202,369C203,364.667,205.334,362.667,205.334,362.667z"></path><path style="fill:#505050;stroke:#000000;stroke-linecap:round;stroke-linejoin:round;" d="M217.667,358l-14.5,7.5c0,0,5.166-9.5,6.833-10.5c4.667-2.333,9-5,9-5L217.667,358z"></path></g><g><path style="fill:#505050;stroke:#000000;stroke-linecap:round;stroke-linejoin:round;" d="M294.667,362.667c0,0-6,13.667-11.667,19c2,7,2.333,9.666,2.333,9.666S297.667,374,298,369C297,364.667,294.667,362.667,294.667,362.667z"></path><path style="fill:#505050;stroke:#000000;stroke-linecap:round;stroke-linejoin:round;" d="M282.333,358l14.5,7.5c0,0-5.166-9.5-6.833-10.5c-4.667-2.333-9-5-9-5L282.333,358z"></path></g></g></g><g><g><g><path style="fill:#6E6E6E;stroke:#000000;stroke-linecap:round;stroke-linejoin:round;" d="M284.801,356.25c-2-6-7-23.5-9.75-28.75c-0.75-1.5-0.25-12-0.25-12L250,312.25l-24.8,3.25c0,0,0.5,10.5-0.25,12c-2.75,5.25-7.75,22.75-9.75,28.75s-2.25,39.5-1.75,40.5c1,1.25,1.75,3.5,4.5,4.25s6.5-3,7.5-5.75c0.75,2,1.112,5.521,7.5,6.75c6.5,1.25,9.25-6,9.25-6s1.05,7,7.8,7c6.75,0,7.801-7,7.801-7s2.75,7.25,9.25,6c6.387-1.229,6.75-4.75,7.5-6.75c1,2.75,4.75,6.5,7.5,5.75s3.5-3,4.5-4.25C287.051,395.75,286.801,362.25,284.801,356.25z"></path><g><g><circle style="fill:#7D6B69;" cx="242.25" cy="394.916" r="1.5"></circle><circle style="fill:#7D6B69;" cx="257.75" cy="394.916" r="1.5"></circle></g><g><circle style="fill:#7D6B69;" cx="274.625" cy="394.115" r="1.5"></circle><circle style="fill:#7D6B69;" cx="225.375" cy="394.115" r="1.5"></circle></g></g><g><g><path style="fill:#7D6B69;" d="M214.373,391.155c0,0,0.076-2.35,0.542-2.569c0.154-0.074,1.175,0.002,2.468,0.134l0.471-4.146c0,0,2.939,0.131,3.147,0.602c0.08,0.182-0.046,1.894-0.23,3.934c1.651,0.203,3.009,0.386,3.009,0.386l-0.297,3.009l-2.993-0.441c-0.237,2.37-0.462,4.441-0.462,4.441l-3.436-0.806l0.469-4.145L214.373,391.155z"></path><path style="fill:#7D6B69;" d="M229.172,393.389c0,0-0.125-2.348,0.32-2.606c0.146-0.087,1.171-0.098,2.47-0.077l0.115-4.172c0,0,2.94-0.12,3.188,0.331c0.095,0.174,0.116,1.891,0.107,3.938c1.663,0.062,3.031,0.127,3.031,0.127l-0.039,3.023l-3.02-0.184c-0.033,2.381-0.081,4.464-0.081,4.464l-3.492-0.509l0.114-4.17L229.172,393.389z"></path></g><g><path style="fill:#7D6B69;" d="M285.629,391.155c0,0-0.076-2.35-0.541-2.569c-0.154-0.074-1.176,0.002-2.469,0.134l-0.471-4.146c0,0-2.939,0.131-3.147,0.602c-0.08,0.182,0.046,1.894,0.229,3.934c-1.65,0.203-3.008,0.386-3.008,0.386l0.297,3.009l2.992-0.441c0.237,2.37,0.463,4.441,0.463,4.441l3.436-0.806l-0.469-4.145L285.629,391.155z"></path><path style="fill:#7D6B69;" d="M270.83,393.389c0,0,0.124-2.348-0.32-2.606c-0.146-0.087-1.172-0.098-2.471-0.077l-0.115-4.172c0,0-2.939-0.12-3.188,0.331c-0.095,0.174-0.115,1.891-0.106,3.938c-1.663,0.062-3.03,0.127-3.03,0.127l0.039,3.023l3.02-0.184c0.033,2.381,0.08,4.464,0.08,4.464l3.492-0.509l-0.113-4.17L270.83,393.389z"></path></g></g><path style="fill:#7D6B69;" d="M254.33,390.984c-0.162-0.094-1.319-0.152-2.79-0.192l0.091-4.173c0,0-0.789-0.061-1.631-0.072c-0.843,0.012-1.631,0.072-1.631,0.072l0.09,4.173c-1.47,0.04-2.627,0.099-2.788,0.192c-0.489,0.279-0.225,2.618-0.225,2.618l3.075,0.039l0.091,4.171l1.388,0.121l1.388-0.121l0.091-4.171l3.074-0.039C254.553,393.603,254.818,391.264,254.33,390.984z"></path><path style="fill:#505050;" d="M253,358.668c0,0,16.667,7.166,29.5,3.833c-14-6-25-7.833-25-7.833L253,358.668z"></path><path style="fill:#505050;" d="M266.833,357.168c-0.667,0.167-25.833,14.5-46.5,10.833c18.333-8.167,37.5-16.167,38-16S266.833,357.168,266.833,357.168z"></path><path style="fill:#505050;" d="M223.833,343.668c-0.167,0.666,9.333,10.833,16.167,12.333c4.333-3.667,6.833-4.666,6-4.833S223.833,343.668,223.833,343.668z"></path><path style="fill:#505050;" d="M245.667,344.834c0,0,23.167-5.5,30-13.5c-15.834,2.5-37.333,8.667-37.333,8.667L245.667,344.834z"></path><g><path style="fill:#6E6E6E;stroke:#000000;stroke-linecap:round;stroke-linejoin:round;" d="M222.667,334.334c0,0,33-3.334,52-12.334c1.666,5,2.333,9,2.333,9s-22.667,9.667-45.667,11.334C225,339.667,222.667,334.334,222.667,334.334z"></path><path style="fill:#6E6E6E;stroke:#000000;stroke-linecap:round;stroke-linejoin:round;" d="M222.667,334.334c0,0,33.333,13.666,60.667,18c2,4,3,11,3,11S247,357.667,219,342C220.333,338.334,222.667,334.334,222.667,334.334z"></path><path style="fill:#6E6E6E;stroke:#000000;stroke-linecap:round;stroke-linejoin:round;" d="M281.333,345c0,0-26.999,19.666-68,24c0-5,1.417-11.5,1.417-11.5s38.584-3.832,62.917-21.166C280.667,339.667,281.333,345,281.333,345z"></path></g><polygon style="fill:#505050;" points="226,315.667 226.333,324.334 264.667,313.667 "></polygon></g><g><g><g><path style="fill:#272224;stroke:#000000;stroke-linecap:round;stroke-linejoin:round;" d="M220.454,342.601l4.42,5.893l-4.125,2.652l-2.356-5.599C218.393,345.547,219.275,343.485,220.454,342.601z"></path><path style="fill:#272224;stroke:#000000;stroke-linecap:round;stroke-linejoin:round;" d="M219.865,339.654l6.777-0.295c0,0,0,2.947-0.295,4.126c-3.241,0-7.955,0.589-7.955,0.589S218.687,340.832,219.865,339.654z"></path></g><g><path style="fill:#272224;stroke:#000000;stroke-linecap:round;stroke-linejoin:round;" d="M217.508,353.503l4.42,5.893l-4.125,2.652l-2.357-5.599C215.445,356.449,216.329,354.387,217.508,353.503z"></path><path style="fill:#272224;stroke:#000000;stroke-linecap:round;stroke-linejoin:round;" d="M216.919,350.556l6.776-0.294c0,0,0.001,2.947-0.294,4.125c-3.242,0-7.956,0.589-7.956,0.589S215.739,351.734,216.919,350.556z"></path></g><path style="fill:#272224;stroke:#000000;stroke-linecap:round;stroke-linejoin:round;" d="M215.445,356.449c0.991,0.551,19.325,45.619,19.325,45.619l-4-1.068l-16.334-37.334L215.445,356.449z"></path><path style="fill:#272224;stroke:#000000;stroke-linecap:round;stroke-linejoin:round;" d="M215.445,356.449c0,0,1.784,10.607,2.078,12.965c-3.241,2.947-4.42,2.651-4.42,2.651S213.367,359.691,215.445,356.449z"></path></g><g><g><path style="fill:#272224;stroke:#000000;stroke-linecap:round;stroke-linejoin:round;" d="M279.545,342.601l-4.42,5.893l4.125,2.652l2.357-5.599C281.607,345.547,280.725,343.485,279.545,342.601z"></path><path style="fill:#272224;stroke:#000000;stroke-linecap:round;stroke-linejoin:round;" d="M280.135,339.654l-6.777-0.295c0,0,0,2.947,0.295,4.126c3.241,0,7.955,0.589,7.955,0.589S281.313,340.832,280.135,339.654z"></path></g><g><path style="fill:#272224;stroke:#000000;stroke-linecap:round;stroke-linejoin:round;" d="M282.492,353.503l-4.42,5.893l4.125,2.652l2.357-5.599C284.555,356.449,283.671,354.387,282.492,353.503z"></path><path style="fill:#272224;stroke:#000000;stroke-linecap:round;stroke-linejoin:round;" d="M283.081,350.556l-6.776-0.294c0,0-0.001,2.947,0.294,4.125c3.241,0,7.956,0.589,7.956,0.589S284.26,351.734,283.081,350.556z"></path></g><path style="fill:#272224;stroke:#000000;stroke-linecap:round;stroke-linejoin:round;" d="M284.555,356.449c-0.992,0.551-19.325,45.619-19.325,45.619l4-1.068l16.333-37.334L284.555,356.449z"></path><path style="fill:#272224;stroke:#000000;stroke-linecap:round;stroke-linejoin:round;" d="M284.555,356.449c0,0-1.784,10.607-2.078,12.965c3.241,2.947,4.42,2.651,4.42,2.651S286.633,359.691,284.555,356.449z"></path></g></g></g><g><path style="fill:#6E6E6E;stroke:#000000;stroke-linecap:round;stroke-linejoin:round;" d="M210,317.5l3.083-7.083L280,294c0,0,5.333,9.333,7,19c-8.333-0.666-12.666,0-12.666,0L210,317.5z"></path><path style="fill:#505050;" d="M272,308.334c0,0-0.667-6.334,1-7.667c3.333,4,6,8.667,6,8.667L272,308.334z"></path><path style="fill:none;stroke:#000000;stroke-linecap:round;stroke-linejoin:round;" d="M273,300.667c0,0,2.334,4.334,2.667,7.667"></path><path style="fill:#6E6E6E;stroke:#000000;stroke-linecap:round;stroke-linejoin:round;" d="M217.333,298c0,0-3,6.668-3,8.334c15.333,2.666,75.333,11,75.333,11l-2.667-9L217.333,298z"></path><path style="fill:#505050;" d="M267,306.667l1.333,6.333l19,3l-1.666-6.666C281,309.334,267,306.667,267,306.667z"></path></g></g></g></g></g></svg>