<svg xmlns="http://www.w3.org/2000/svg" width="500" height="500" version="1.1"><g id="a9009"><g><g><line style="fill:none;stroke:#A84A56;stroke-linecap:round;stroke-linejoin:round;" x1="250" y1="311.25" x2="250" y2="304.25"></line><g><g><path style="fill:#505050;stroke:#000000;stroke-linecap:round;stroke-linejoin:round;" d="M244,379.833c0,0-0.333,9.167-0.167,9.833c1.667,1,4,2.167,6.167,2.167s6.667-1.083,6.667-1.083s-0.583-7.001-0.417-9.417c-0.5-1.667-4.417-5.166-4.417-5.166S244.833,376.166,244,379.833z"></path><path style="fill:#505050;stroke:#000000;stroke-linecap:round;stroke-linejoin:round;" d="M244.833,383c0,0,5.833-4.499,7.5-4.833c-1.5-1.167-5.5-0.833-6.333-0.167S244.833,383,244.833,383z"></path><g><path style="fill:#6E6E6E;stroke:#000000;stroke-linecap:round;stroke-linejoin:round;" d="M218.833,354.501c0,0-13.187,22.833-13.793,27.833c-0.303,3.333,0.455,3.667,1.364,4.5c0,0-4.395,6.167-5.608,7c0,2.333,9.777,3.416,11.822-0.667c0.91,4.333,5.229,7.999,6.594,3.833c-0.303-7.667,0.378-25.499,1.743-25.166c1.212-0.5,2.879,2.667,2.879,2.667s1.5,0.333,2,1.833s-1,1.833-0.333,3.333s3.5,3.5,6,2.167s3.5-4.999,4.5-4.833c1,0.333,1,0.333,1,0.333s-1.167,3.166-0.833,4.333s4.5,3.333,7.5,2.333s1.5-4.333,2.833-5.166s4-1.667,5.833-0.667s2.667,3.834,4.167,4.667s8.166,0.5,9.666-2s2.334-8.333,2.334-8.333s-48.758-18-48.304-19.667C220.651,351.167,219.59,353.501,218.833,354.501z"></path><path style="fill:#6E6E6E;stroke:#000000;stroke-linecap:round;stroke-linejoin:round;" d="M209.89,390c0,0-5.457,9.5-8.412,10.25s-5.002-1.5-4.092-3.75c0.909-2.25,7.502-6.75,10.686-12.75"></path><path style="fill:#6E6E6E;stroke:#000000;stroke-linecap:round;stroke-linejoin:round;" d="M210.799,386.75c0,0-4.583,1.623-6.139-0.75c-2.786-4.25,0.214-9.625,0.214-9.625s7.75-14.875,14.792-22.875"></path><path style="fill:#505050;" d="M207.375,373.125c0,0,10.245-15.875,12.519-18.875c1.819,0.25,3.41,1.75,3.41,1.75l2.446,6.25l-6.993,8.25c0-4.75,2.501-11.25,1.137-11S207.375,373.125,207.375,373.125z"></path><path style="fill:#505050;" d="M211.709,384.75c0,0,0.739,1.375,0.568,3.063s-4.945,6.063-4.945,6.063l6.271,0.875c0,0,0.53,2,2.425,3.25c1.895,1.25,2.728-0.833,2.728-0.833l-0.151-4.584c0,0,0.454-16,1.212-18.833C217.469,376.25,211.709,384.75,211.709,384.75z"></path><path style="fill:#505050;" d="M229.583,381.916c0,0-3.75-0.999-3.917-2.916c0.833-1.417,1.083-2.834-0.25-4.417c2-0.833,3.666-2.251,3.583-2.917s-0.833-5.583-0.833-5.583l8.333,4C236.5,370.083,232.167,381.499,229.583,381.916z"></path><path style="fill:none;stroke:#000000;stroke-linecap:round;stroke-linejoin:round;" d="M225.75,364.333c-2.25,0.167-5.417,2.416-5.417,2.416"></path><path style="fill:#505050;stroke:#000000;stroke-linecap:round;stroke-linejoin:round;" d="M214.892,387.25c0,0-0.91,12.25-6.139,13.5c-3.11,0.743-4.547-2.5-4.547-2.5l5.684-8.167"></path><path style="fill:#505050;" d="M198.167,398.916c0,0-1.237-1-0.175-2.583c1.061-1.583,8.185-8.833,8.185-8.833s0.758,0.833,4.623-0.25c0.076,1.5-6.138,10.249-7.654,11.333c1.061-2,1.816-4.774,0.53-4.666C200.72,394.167,198.394,397.499,198.167,398.916z"></path></g><path style="fill:#505050;" d="M264.167,382.167c0,0-5,1.249-7.333,0.249c-1.833-2.334-4.835-4.416-4.501-5.916c1.167-1.5,2.834-2.5,2.834-2.5s1.5,5.667,4.5,5.5s4.5-3.333,4.5-3.333l5,1.166C269.167,377.333,266.334,381.667,264.167,382.167z"></path><path style="fill:#505050;" d="M239.667,371.001c0,0-2.917,6.415-2.917,9.415c2.5-4.333,4-6.083,10.083-6.249C243,372.167,239.667,371.001,239.667,371.001z"></path><path style="fill:#505050;stroke:#000000;stroke-linecap:round;stroke-linejoin:round;" d="M220.333,371.833c0,0-0.667-4.666-0.333-4.833s1.833,1.333,2.333,2.333s1.5,5.168,1.5,5.168S220.667,373,220.333,371.833z"></path><path style="fill:#505050;stroke:#000000;stroke-linecap:round;stroke-linejoin:round;" d="M230.5,382c-0.525,0.05-2.5-3-1.333-4.167s5.166-2.167,7.333-1c-1,0.833-1.5,1.333-1.5,1.333S234,381.667,230.5,382z"></path><path style="fill:none;stroke:#000000;stroke-linecap:round;stroke-linejoin:round;" d="M228.667,378.25c0,0,0.583-3.251,5.417-6.417"></path><path style="fill:#505050;" d="M204.813,380.833c0,0-1.44,4.668,1.137,5.834c2.094,0.947,6.152-0.689,5.305-0.25c0,0,7.957-9.834,8.563-12.667c-2.198,2.583-7.578,8.001-9.928,7.917S204.813,380.833,204.813,380.833z"></path><path style="fill:none;stroke:#000000;stroke-linecap:round;stroke-linejoin:round;" d="M204.875,376.25c0,0,1.832,6.333,6.606,4.5c3.146-1.208,8.715-8.25,8.715-8.25"></path></g><g><g><g><g><polygon style="fill:#323232;stroke:#000000;stroke-linecap:round;stroke-linejoin:round;" points="240.35,292.051 232.4,304.5 228.4,302.5 238.35,290.551 "></polygon><polygon style="fill:#323232;stroke:#000000;stroke-linecap:round;stroke-linejoin:round;" points="240.9,292 234.5,305.25 238,307.75 243.65,292.5 "></polygon><polygon style="fill:#323232;stroke:#000000;stroke-linecap:round;stroke-linejoin:round;" points="243.65,292.5 240.9,308 244.15,309.75 245.65,292.75 "></polygon></g><g><polygon style="fill:#323232;stroke:#000000;stroke-linecap:round;stroke-linejoin:round;" points="259.649,292.051 267.599,304.5 271.599,302.5 261.649,290.551 "></polygon><polygon style="fill:#323232;stroke:#000000;stroke-linecap:round;stroke-linejoin:round;" points="259.099,292 265.499,305.25 261.999,307.75 256.349,292.5 "></polygon><polygon style="fill:#323232;stroke:#000000;stroke-linecap:round;stroke-linejoin:round;" points="256.349,292.5 259.099,308 255.849,309.75 254.349,292.75 "></polygon></g></g></g><g><g><g><path style="fill:#323232;stroke:#000000;stroke-linecap:round;stroke-linejoin:round;" d="M269.109,331.875c0,0,1.625,11,1.75,11.375c0.066,0.201,1.584-0.102,3.514-0.309l-3.58-16.237C269.537,329.283,269.109,331.875,269.109,331.875z"></path><path style="fill:#323232;stroke:#000000;stroke-linecap:round;stroke-linejoin:round;" d="M276.859,333.5c-0.625-1.75-2.625-11-2.625-11c-0.783,0.49-1.453,1.15-2.029,1.892l4.432,18.389c1.023-0.025,2.053,0.022,2.973,0.22C279.109,340.625,277.484,335.25,276.859,333.5z"></path></g><g><path style="fill:#323232;stroke:#000000;stroke-linecap:round;stroke-linejoin:round;" d="M270.922,338.75c0,0,4.75-2.875,9-1.375c-3.5,2.25-8,4.375-8,4.375L270.922,338.75z"></path><path style="fill:#141414;stroke:#000000;stroke-linecap:round;stroke-linejoin:round;" d="M272.422,341.375c0,0,5.75-4.625,7.5-4s0.75,1.625,1.375,2.125s3.25-0.5,4.25,0.5s-0.625,1.25-0.25,2.125s2,1,1.5,2.25s-5.5,3-5.5,3s1.125-3.75-0.875-4.75S272.422,341.375,272.422,341.375z"></path></g><path style="fill:#323232;stroke:#000000;stroke-linecap:round;stroke-linejoin:round;" d="M270.047,342.75c0,0,7.125-0.75,10.125,2c0.5,1.75,0.75,2.75,0.75,2.75s2.5-2.25,2.375-4.125S274.422,339.625,270.047,342.75z"></path></g><g><g><path style="fill:#323232;stroke:#000000;stroke-linecap:round;stroke-linejoin:round;" d="M230.891,331.875c0,0-1.625,11-1.75,11.375c-0.067,0.201-1.584-0.102-3.515-0.309l3.58-16.237C230.462,329.283,230.891,331.875,230.891,331.875z"></path><path style="fill:#323232;stroke:#000000;stroke-linecap:round;stroke-linejoin:round;" d="M223.141,333.5c0.625-1.75,2.625-11,2.625-11c0.783,0.49,1.453,1.15,2.029,1.892l-4.433,18.389c-1.022-0.025-2.053,0.022-2.972,0.22C220.891,340.625,222.516,335.25,223.141,333.5z"></path></g><g><path style="fill:#323232;stroke:#000000;stroke-linecap:round;stroke-linejoin:round;" d="M229.079,338.75c0,0-4.75-2.875-9-1.375c3.5,2.25,8,4.375,8,4.375L229.079,338.75z"></path><path style="fill:#141414;stroke:#000000;stroke-linecap:round;stroke-linejoin:round;" d="M227.579,341.375c0,0-5.75-4.625-7.5-4s-0.75,1.625-1.375,2.125s-3.25-0.5-4.25,0.5s0.625,1.25,0.25,2.125s-2,1-1.5,2.25s5.5,3,5.5,3s-1.125-3.75,0.875-4.75S227.579,341.375,227.579,341.375z"></path></g><path style="fill:#323232;stroke:#000000;stroke-linecap:round;stroke-linejoin:round;" d="M229.954,342.75c0,0-7.125-0.75-10.125,2c-0.5,1.75-0.75,2.75-0.75,2.75s-2.5-2.25-2.375-4.125S225.579,339.625,229.954,342.75z"></path></g></g><g><g><g><path style="fill:#141414;stroke:#000000;stroke-linecap:round;stroke-linejoin:round;" d="M219.75,286.5c0,0,3.001-3.834,4.334-3.167s-2.334,6.167-2.334,6.167l-2.166,2.5L219.75,286.5z"></path><path style="fill:#323232;stroke:#000000;stroke-linecap:round;stroke-linejoin:round;" d="M223.75,294.833c0,0,1-6.166-0.166-6.833c-1.167-0.667-3.167,3.333-3.5,2.833s1.333-7.666-0.167-10.5c-4.834,1.833-6.833,10.334-6.833,10.334l10.833,6.166c0,0,1.667-1.333,1.667-2S224.75,294,223.75,294.833z M219.037,284.132c-0.179,0.667-0.648,1.12-1.048,1.013c-0.4-0.107-0.58-0.734-0.401-1.401c0.18-0.667,0.648-1.12,1.049-1.013C219.036,282.838,219.216,283.465,219.037,284.132z M223.162,290.944c-0.179,0.667-0.648,1.12-1.048,1.013c-0.4-0.107-0.58-0.734-0.401-1.401c0.18-0.667,0.648-1.12,1.049-1.013C223.161,289.65,223.341,290.277,223.162,290.944z"></path></g><g><path style="fill:#141414;stroke:#000000;stroke-linecap:round;stroke-linejoin:round;" d="M280.249,286.5c0,0-3.001-3.834-4.333-3.167c-1.334,0.667,2.333,6.167,2.333,6.167l2.167,2.5L280.249,286.5z"></path><path style="fill:#323232;stroke:#000000;stroke-linecap:round;stroke-linejoin:round;" d="M274.416,294.833c0,0.667,1.666,2,1.666,2l10.834-6.166c0,0-2-8.501-6.834-10.334c-1.5,2.834,0.166,10-0.166,10.5c-0.334,0.5-2.334-3.5-3.5-2.833c-1.167,0.667-0.167,6.833-0.167,6.833C275.249,294,274.416,294.166,274.416,294.833z M281.363,282.73c0.399-0.107,0.869,0.346,1.048,1.013s-0.001,1.294-0.401,1.401c-0.399,0.107-0.869-0.346-1.047-1.013C280.783,283.465,280.963,282.838,281.363,282.73z M277.238,289.543c0.399-0.107,0.869,0.346,1.048,1.013s-0.001,1.294-0.401,1.401c-0.399,0.107-0.869-0.346-1.047-1.013C276.658,290.277,276.838,289.65,277.238,289.543z"></path></g></g><g><g><path style="fill:#613940;stroke:#000000;stroke-linecap:round;stroke-linejoin:round;" d="M283.166,354.334l-1.833-8.167c0,0-1.501,2.5-3.167,4.5c-3-2.666-7.5-16.667-7.5-16.667s0.151-3.195,1.22-6.327c1.23-0.524,3.171-1.895,5.178-5.506c3.57-6.426-2.166-14.334-2.166-14.334L263.033,303L250,311.146l-13.625-7.271l-11.273,3.958c0,0-5.736,7.908-2.167,14.334c2.008,3.613,3.949,4.983,5.18,5.507c1.067,3.131,1.218,6.326,1.218,6.326s-2.5,9.667-5.167,11.834s-5.167,1.5-5.167,1.5s-2.932,3.573-3.25,11.291c1.258-2.382,3.38-4.564,4-4.875c1.167,1.333,1.416,0.751,1.416,0.751s-2.333,9.666,6.667,11c1.167,3.833,6.5,8.166,12.833,5.666c1.667,4.667,10.833,7,16.333,2.834c3.167,4.333,15.577,5.23,25.083,2.583c12.352-3.44,23.751-8.417,23.751-8.417S294.167,358.167,283.166,354.334z"></path><path style="fill:none;stroke:#000000;stroke-linecap:round;stroke-linejoin:round;" d="M271.886,327.673c0,0-3.011,1.577-6.886,0.702"></path><path style="fill:#431B22;" d="M239.167,363.666c0,0,8.834,5.168,12,5.334s13.167-7.334,13-6.834s-6.333,12-12.5,13.167S239.167,363.666,239.167,363.666z"></path><path style="fill:#431B22;" d="M227.833,343.333c-1,0-2.667,4.167-2.667,4.167c0.11,2.031,2.159,4.64,5.042,7.268l2.211-9.417C229.935,344.186,228.144,343.333,227.833,343.333z"></path><path style="fill:#431B22;" d="M233.797,345.994l-1.936,10.202c3.106,2.58,6.827,5.073,10.124,6.956l1.486-13.021C240.251,348.945,236.705,347.346,233.797,345.994z"></path><path style="fill:#431B22;" d="M255.979,350.636c-1.879,0.626-3.751,1.103-5.313,1.197c-1.492,0.09-3.785-0.5-6.348-1.399l-0.485,13.732c2.473,1.35,3.826,1.874,5.167,2.167c1.528,0.334,4.344-0.606,7.551-2.183L255.979,350.636z"></path><path style="fill:#431B22;" d="M257.323,350.161l0.883,13.138c3.7-1.979,7.698-4.618,10.755-7.035l-5.529-8.725C261.891,348.283,259.659,349.301,257.323,350.161z"></path><path style="fill:#431B22;" d="M274,350.333c-1.333-2.833-8.5-3.833-8.5-3.833s-0.252,0.135-0.686,0.354l5.686,8.141C272.911,352.918,274.384,351.148,274,350.333z"></path><path style="fill:#613940;stroke:#000000;stroke-linecap:round;stroke-linejoin:round;" d="M227.417,327.5c0,0-2,3-2.167,3.5c1.667,1.5,2.833,2.667,2.833,2.667L231.75,331"></path><path style="fill:#431B22;" d="M281.375,347.5c0,0,1.624,6.5,1.791,7.667c-0.5,3.834-2.166,5.333-2.666,5S281.375,347.5,281.375,347.5z"></path><path style="fill:#431B22;" d="M231.167,332c0,0,22.208-17.5,27.083-19.375c-5.916,8.375-6.083,11.583-10.583,13.208S231.167,332,231.167,332z"></path><path style="fill:#431B22;" d="M250,346.333c-0.518,0-0.938-2.424-0.938-5.418c0-2.991,0.419-5.415,0.938-5.415s0.938,2.424,0.938,5.415"></path><path d="M226.333,365.667c0,0,5.667-21.833,6.667-21.5c0,4.5-4.5,22.834-4.5,22.834L226.333,365.667z"></path><path d="M239.667,371.001c0,0,3.333-23.834,4-24.667S242,372.667,242,372.667L239.667,371.001z"></path><path d="M256,347.667c-0.666,0.167-0.333,27.167-0.333,27.167l2.167-0.5C257.834,374.334,256.666,347.5,256,347.667z"></path><path d="M264.167,348.001c-0.5,0.333,3.999,7.333,4.333,8.666s1.667,6.334,2.167,7.834s6.5,11.166,6.5,11.166l1.334-1.5c0,0-6.5-8.332-6.667-10.166s-2-6.667-2.334-7.667S264.667,347.668,264.167,348.001z"></path><path d="M272,347.667c-0.166,0.5,6.501,9.833,7.167,11.5c2,2.333,14.333,6.834,14.333,6.834v-1.834c0,0-12.167-5.5-13-6.333S272.166,347.167,272,347.667z"></path><path style="fill:#431B22;" d="M226.625,310.375c0,0,13.625,0.5,21.25,1.5c-2,1.5-3.5,3-3.5,3L226.625,310.375z"></path><path style="fill:#431B22;" d="M238.25,313c0,0,3.25,3.75,0.375,7.125c5.5-4,7.25-6.25,7.25-6.25L238.25,313z"></path><path style="fill:#431B22;" d="M266.5,310.5c0,0,9.5,1.375,10.375,2.625c-0.5-4.25-3.25-4.625-3.25-4.625L266.5,310.5z"></path></g><g><g><g><path style="fill:#E8E0E0;stroke:#000000;stroke-linecap:round;stroke-linejoin:round;" d="M253.063,360.938c-0.077-1.51,1.125-2.5,1.125-2.5l-1.188-1.75c0,0,2.25,0.563,2.5,1.438c-0.438,1.5-0.9,2.486-0.75,2.938c0.375,1.125,1.75,1.5,1.75,1.5v1.625C256.5,364.188,253.188,363.375,253.063,360.938z"></path><path style="fill:#E8E0E0;stroke:#000000;stroke-linecap:round;stroke-linejoin:round;" d="M259.75,360.938c0.077-1.51-1.125-2.5-1.125-2.5l1.188-1.75c0,0-2.25,0.563-2.5,1.438c0.438,1.5,0.9,2.486,0.75,2.938c-0.375,1.125-1.75,1.5-1.75,1.5v1.625C256.313,364.188,259.625,363.375,259.75,360.938z"></path></g><g><path style="fill:#E8E0E0;stroke:#000000;stroke-linecap:round;stroke-linejoin:round;" d="M256.584,360.918c0,0-1.249,4.051-1.834,3.916c-1.083-0.25-1.416-1.5-1.416-1.5L256.584,360.918z"></path><path style="fill:#E8E0E0;stroke:#000000;stroke-linecap:round;stroke-linejoin:round;" d="M256.251,360.867c0,0,1.249,4.051,1.834,3.916c1.083-0.25,1.416-1.5,1.416-1.5L256.251,360.867z"></path></g><path style="fill:#E8E0E0;stroke:#000000;stroke-linecap:round;stroke-linejoin:round;" d="M256.334,355.501c0,0-2.333,3.917-1.5,5.5s1.666,1.833,1.666,1.833s1.584-1.25,1.584-2.583S256.334,355.501,256.334,355.501z"></path><path style="fill:#FFFFFF;" d="M256.459,360.5c-0.042-0.125-0.125-3.75-0.125-3.75s1.209,2.541,1,3.166S256.459,360.5,256.459,360.5z"></path></g><g><g><path style="fill:#E8E0E0;stroke:#000000;stroke-linecap:round;stroke-linejoin:round;" d="M239.039,357.418c0.236-1.493,1.617-2.214,1.617-2.214l-0.801-1.958c0,0,2.085,1.016,2.149,1.923c-0.738,1.378-1.395,2.247-1.341,2.72c0.135,1.178,1.402,1.829,1.402,1.829l-0.335,1.59C241.73,361.308,238.657,359.828,239.039,357.418z"></path><path style="fill:#E8E0E0;stroke:#000000;stroke-linecap:round;stroke-linejoin:round;" d="M245.582,358.799c0.388-1.461-0.584-2.678-0.584-2.678l1.523-1.468c0,0-2.317,0.086-2.743,0.891c0.118,1.558,0.367,2.618,0.127,3.029c-0.599,1.022-2.022,1.105-2.022,1.105l-0.336,1.59C241.547,361.269,244.956,361.158,245.582,358.799z"></path></g><g><path style="fill:#E8E0E0;stroke:#000000;stroke-linecap:round;stroke-linejoin:round;" d="M242.488,358.126c0,0-2.059,3.705-2.603,3.453c-1.008-0.469-1.076-1.761-1.076-1.761L242.488,358.126z"></path><path style="fill:#E8E0E0;stroke:#000000;stroke-linecap:round;stroke-linejoin:round;" d="M242.173,358.008c0,0,0.385,4.222,0.985,4.21c1.111-0.021,1.695-1.175,1.695-1.175L242.173,358.008z"></path></g><path style="fill:#E8E0E0;stroke:#000000;stroke-linecap:round;stroke-linejoin:round;" d="M243.362,352.774c0,0-3.092,3.351-2.604,5.071c0.488,1.721,1.251,2.138,1.251,2.138s1.808-0.896,2.083-2.2C244.369,356.479,243.362,352.774,243.362,352.774z"></path><path style="fill:#FFFFFF;" d="M242.227,357.494c-0.006-0.131,0.893-3.644,0.893-3.644s0.477,2.772,0.107,3.317C242.857,357.714,242.227,357.494,242.227,357.494z"></path></g><g><g><path style="fill:#E8E0E0;stroke:#000000;stroke-linecap:round;stroke-linejoin:round;" d="M227.69,352.429c0.385-1.462,1.832-2.04,1.832-2.04l-0.6-2.028c0,0,1.973,1.22,1.945,2.129c-0.873,1.297-1.613,2.096-1.607,2.571c0.016,1.186,1.211,1.961,1.211,1.961l-0.494,1.548C229.977,356.569,227.068,354.788,227.69,352.429z"></path><path style="fill:#E8E0E0;stroke:#000000;stroke-linecap:round;stroke-linejoin:round;" d="M234.061,354.461c0.533-1.415-0.312-2.724-0.312-2.724l1.663-1.307c0,0-2.314-0.147-2.818,0.61c-0.04,1.562,0.102,2.642-0.179,3.026c-0.699,0.957-2.123,0.896-2.123,0.896l-0.494,1.548C229.798,356.512,233.201,356.745,234.061,354.461z"></path></g><g><path style="fill:#E8E0E0;stroke:#000000;stroke-linecap:round;stroke-linejoin:round;" d="M231.05,353.479c0,0-2.421,3.479-2.937,3.174c-0.956-0.567-0.893-1.859-0.893-1.859L231.05,353.479z"></path><path style="fill:#E8E0E0;stroke:#000000;stroke-linecap:round;stroke-linejoin:round;" d="M230.749,353.331c0,0-0.042,4.238,0.557,4.287c1.108,0.092,1.805-0.998,1.805-0.998L230.749,353.331z"></path></g><path style="fill:#E8E0E0;stroke:#000000;stroke-linecap:round;stroke-linejoin:round;" d="M232.458,348.243c0,0-3.413,3.023-3.1,4.784c0.312,1.761,1.03,2.253,1.03,2.253s1.888-0.71,2.293-1.979S232.458,348.243,232.458,348.243z"></path><path style="fill:#FFFFFF;" d="M230.864,352.938c0.005-0.131,1.208-3.552,1.208-3.552s0.233,2.804-0.183,3.314C231.473,353.212,230.864,352.938,230.864,352.938z"></path></g></g><g><g><g><path style="fill:#613940;stroke:#000000;stroke-linecap:round;stroke-linejoin:round;" d="M246.627,309.26c-9.714-5.077-32.476-19.666-33.96-20.26C212,290,212,290,212,290s-0.334,4.667-0.667,5.667C209.667,297,205,305,205,307c6.333,2.333,29.333,3.667,29.333,3.667"></path></g><polygon style="fill:#B3596B;" points="212.833,289.667 248.917,311.083 247.75,312.417 212.333,291.667 "></polygon></g><g><g><path style="fill:#613940;stroke:#000000;stroke-linecap:round;stroke-linejoin:round;" d="M229,326.667l20.667-16.334c9.714-5.077,36.142-20.739,37.626-21.333c0.667,1,0.667,1,0.667,1s0.334,4.667,0.667,5.667C290.293,297,294.96,305,294.96,307c-6.333,2.333-29.333,3.667-29.333,3.667"></path></g><path style="fill:#B3596B;" d="M285.813,298.25c0,0,0.188-3.688,0.563-5.25c1.375,1.5,1.875,3,1.875,3s4.25,4.313,5.438,8.688c-2.188-1.125-4.063-1.938-4.063-1.938s-2.063,4.25-2.875,4.563c-0.375-2.375-0.75-5.063-0.75-5.063s-4.188-0.813-4.438-1.375C283.75,299.313,285.813,298.25,285.813,298.25z"></path><path style="fill:#B3596B;" d="M228,328.083c0,0,15.65-12.183,21.9-17.266c15.5-8.666,37.183-21.067,37.183-21.067l0.5,0.75v1.333l-36.75,20.75L227.25,332l-1-1.167L228,328.083z"></path></g></g></g></g></g><g><g><g><g><path style="fill:#6E6E6E;stroke:#000000;stroke-linecap:round;stroke-linejoin:round;" d="M272.474,376.487c0,0,2.021-0.997,4.335-1.482c0.36-1.111,0.6-1.604,0.6-1.604s8.147-3.973,14.306-4.359c3.709-3.999,10.922-10.027,21.997-8.449c9.05,1.289,6.559,9.101-0.184,13.178c2.048,1.854,7.104,6.302,5.538,9.638c-1.565,3.335-4.455,6.054-10.955,6.795c1.444,1.977,2.408,2.348,0.842,4.448c-1.565,2.1-9.871,6.671-13.002,6.302c-0.723,1.358-6.982,4.819-11.558,2.347c-4.574-2.472-6.861-7.166-7.464-11.737c0-3.83,1.203-5.684,0.12-8.279c-1.084-2.595-3.435-2.374-5.193-3.083"></path></g></g><path style="fill:#505050;" d="M298.313,379.973c0,0,1.697,2.031,6.505,0.968c4.808-1.064,5.373-5.128,4.901-6.192C306.515,374.651,301.048,375.522,298.313,379.973z"></path><path style="fill:#505050;" d="M303.215,392.453c0,0,2.734,0.387,3.018,1.838c0.282,1.451-9.238,6.095-10.37,6.288c1.603,0.484,10.652-2.709,12.255-5.805S304.441,390.904,303.215,392.453z"></path><path style="fill:#505050;" d="M296.994,394.291c0,0-1.887-0.968-0.85-2.709s3.771-2.322,3.771-2.322s-5.09-0.87-6.505,0.774C291.997,391.679,293.694,393.807,296.994,394.291z"></path><path style="fill:#505050;" d="M291.997,394.388c0,0,0.095-2.129,1.979-1.064c-2.545-4.16-3.864-9.48-3.864-9.48s-5.563,3.386-9.145,1.451c-0.754-2.322,0.848-9.385-0.942-10.739c-1.791-1.354-2.451-0.677-2.451-0.677l-0.754,1.451c0,0-4.808,1.16-5.091,2.321s0.471,2.226,0.471,2.226s5.374,1.161,5.563,4.063s-0.659,5.611-0.378,7.933c0.283,2.322,3.583,12.384,11.502,12.094c5.844-0.774,5.656-4.354,5.562-4.838C294.354,398.645,291.997,394.388,291.997,394.388z"></path><path style="fill:#505050;" d="M318.204,379.779c0,0-1.319-1.741-3.205-1.936c0.472,1.161,3.018,7.063-3.959,8.707c-6.976,1.646-11.596-1.838-14.046-1.645c-2.451,0.193-4.337,1.742-4.714,4.063c-1.791-1.935-3.394-4.354-3.394-4.354l5.279-5.127c0,0,1.979,3.772,5.468,3.869c3.487,0.097,12.255-2.806,11.123-6.288c1.886-1.741,2.829-1.645,2.829-1.645S318.298,376.78,318.204,379.779z"></path><path style="fill:#505050;" d="M288.98,372.039c2.125-2.284,2.092-2.198,3.206-2.902c9.992-11.028,23.755-9.287,26.301-5.708c2.545,3.58-2.451,8.127-5.091,9.965c-3.11,0.581-9.238-0.193-13.575-1.16c-2.262,0.58-4.808,2.708-4.808,2.708S293.788,372.136,288.98,372.039z"></path><path style="fill:#505050;" d="M289.641,377.457c0,0,0-1.645,1.414-2.709c0.659,0,1.414,1.354,1.414,1.354l2.357-2.225c0,0-3.771-1.936-5.751-1.742c-1.979,2.032-2.074,3.967-1.037,4.838C289.075,377.844,289.641,377.457,289.641,377.457z"></path><path style="fill:#6E6E6E;stroke:#000000;stroke-linecap:round;stroke-linejoin:round;" d="M287.283,374.748c4.809-7.159,9.898-10.448,17.723-13.737c-14.706,1.838-27.598,12.39-27.598,12.39"></path><path style="fill:#505050;" d="M278.328,373.781c0,0,2.546-2.129,4.147-1.936c1.604,0.193,4.431,5.321,6.316,5.998C286.152,377.844,279.554,377.844,278.328,373.781z"></path><path style="fill:#505050;" d="M291.652,377.038c0,0,0.911,1.29,1.665,1.677c-1.226,1.354-3.018,5.128-6.034,6.095c5.751-3.482,8.484-5.901,7.73-10.352C294.826,373.394,291.652,377.038,291.652,377.038z"></path><path style="fill:none;stroke:#000000;stroke-linecap:round;stroke-linejoin:round;" d="M313.527,373.77c0,0-1.073,0.817-2.33,1.012c-1.257,0.193-3.552-0.42-5.531,0.16c-0.498,0.146-6.599,1.581-8.358,6.547c-0.847,2.388,5.153,2.323,11.375-0.645"></path><path style="fill:none;stroke:#000000;stroke-linecap:round;stroke-linejoin:round;" d="M310.38,377.168c0,0,1.697-1.484,2.515-1.613c0.816-0.128,3.481,0.451,5.367,3.547"></path><path style="fill:none;stroke:#000000;stroke-linecap:round;stroke-linejoin:round;" d="M308.181,390.132c0,0-5.279,0.193-7.416-0.71s-6.097-0.903-7.604,0.903c-1.192,1.428,1.006,4.385,4.588,3.934c2.249-0.283,6.027-2.727,7.416-2.709c2.388,0.032,4.336,2.129,3.269,3.548"></path><path style="fill:none;stroke:#000000;stroke-linecap:round;stroke-linejoin:round;" d="M290.206,384.81c0,0,1.508,4.935,2.828,7.063"></path><path style="fill:none;stroke:#000000;stroke-linecap:round;stroke-linejoin:round;" d="M294.104,379.618c0.063,0.193,2.263,2.579,4.085,3.289"></path><path style="fill:none;stroke:#000000;stroke-linecap:round;stroke-linejoin:round;" d="M292.846,402.902c0.188-0.13,1.571-1.033,1.697-3.097c0.125-2.064-4.808-9.385-8.798-13.093"></path><path style="fill:none;stroke:#000000;stroke-linecap:round;stroke-linejoin:round;" d="M280.339,385.036c0.127,0.193,5.28,2.258,10.119-1.999s4.839-6.514,4.776-8.385s-2.577,0.838-3.582,2.386c-1.006,1.548-2.672,1.097-3.426,0.129"></path><path style="fill:none;stroke:#000000;stroke-linecap:round;stroke-linejoin:round;" d="M295.014,374.071c-1.319-1.354-5.75-1.838-5.75-1.838"></path></g><path style="fill:#505050;stroke:#000000;stroke-linecap:round;stroke-linejoin:round;" d="M270,375.333c0,0,6.531-1.737,8-0.833c2.093,1.289,3,3.333,3,3.333"></path><path style="fill:#505050;stroke:#000000;stroke-linecap:round;stroke-linejoin:round;" d="M263.5,382.833c0,0,4.215-1.851,6.667-1.5c3.5,0.5,6.666,1.833,7.166,4.5c0.667-5-0.5-9.166-2.666-10s-5.168-0.832-6.834,0.834S263.5,382.833,263.5,382.833z"></path></g></g></g><g><path style="fill:#323232;stroke:#000000;stroke-linecap:round;stroke-linejoin:round;" d="M270.237,284.475c0.244-1.707-3.169-4.551-3.169-4.551s1.463,0.284,2.438-1.423c-1.707-2.845-4.39-1.707-4.39-1.707c-1.95,0.285-15.117,2.128-15.117,2.128s-13.167-1.843-15.117-2.128c0,0-2.682-1.137-4.389,1.707c0.975,1.707,2.438,1.423,2.438,1.423s-3.413,2.844-3.169,4.551c2.194,0.57,3.169,0,3.169,0s-2.438,3.413-1.707,4.552c1.463,0.285,2.682-1.422,2.682-1.422s-0.731,3.414,0.975,4.551c2.194-0.569,3.657-1.707,3.657-1.707s0.731,2.562,1.707,3.13c0.976-0.853,1.951-2.276,1.951-2.276s0.244,1.706,1.707,2.845c1.708-0.568,2.194-1.991,2.194-1.991s0.732,2.56,1.951,2.845c1.219-0.854,1.951-1.991,1.951-1.991s0.731,1.138,1.951,1.991c1.219-0.285,1.95-2.845,1.95-2.845s0.487,1.423,2.194,1.991c1.463-1.139,1.707-2.845,1.707-2.845s0.975,1.424,1.951,2.276c0.976-0.568,1.706-3.13,1.706-3.13s1.463,1.138,3.657,1.707c1.706-1.137,0.976-4.551,0.976-4.551s1.219,1.707,2.682,1.422c0.732-1.139-1.706-4.552-1.706-4.552S268.043,285.045,270.237,284.475z"></path><g><path style="fill:#141414;" d="M235.364,291.729c0,0,2.012-4.268,3.84-4.694c0.183,1.921-0.67,3.413-0.67,3.413L235.364,291.729z"></path><path style="fill:#141414;" d="M264.636,291.729c0,0-2.011-4.268-3.841-4.694c-0.182,1.92,0.672,3.413,0.672,3.413L264.636,291.729z"></path></g><path style="fill:#141414;" d="M264.63,280.635c-0.549-2.134-1.281-2.987-1.281-2.987L250,279.313l-13.35-1.665c0,0-0.731,0.854-1.28,2.987c1.097-0.427,3.475-1.28,4.572-1.28c-1.097,1.707-1.097,2.987-1.097,2.987l5.303-1.921c0,0,3.658,1.067,5.852,1.494c2.194-0.427,5.852-1.494,5.852-1.494l5.304,1.921c0,0,0-1.28-1.098-2.987C261.155,279.354,263.532,280.208,264.63,280.635z"></path></g></g></g></svg>