<svg xmlns="http://www.w3.org/2000/svg" width="500" height="500" version="1.1"><g id="x9092"><g><g><path style="fill:#6E6E6E;stroke:#000000;stroke-linecap:round;stroke-linejoin:round;" d="M289.757,379.674L250,383.424l-39.757-3.75c0,0-1.459,5.25-1.216,5.625c2.067,0.5,3.04,0.75,3.04,0.75s2.796,1.5,3.769,1.75s3.283,0,3.283,0s2.675,2.25,3.526,2.375s2.796-0.25,2.796-0.25s2.674,1.375,3.404,1.5s3.891-1,3.891-1s2.796,1.373,3.891,1.748s2.067,0.125,2.067,0.125l5.958,1.375l4.134-0.875l1.216-0.125l1.216,0.125l4.134,0.875l5.957-1.375c0,0,0.973,0.25,2.067-0.125c1.094-0.375,3.891-1.748,3.891-1.748s3.161,1.125,3.891,1s3.404-1.5,3.404-1.5s1.945,0.375,2.796,0.25c0.852-0.125,3.526-2.375,3.526-2.375s2.31,0.25,3.282,0s3.77-1.75,3.77-1.75s0.973-0.25,3.039-0.75C291.216,384.924,289.757,379.674,289.757,379.674z"></path><g><path style="fill:#6E6E6E;stroke:#000000;stroke-linecap:round;stroke-linejoin:round;" d="M220.272,383.917c0,0-0.25,5.333,0.25,6.583c2.083,0.833,5,0.667,5,0.667l3,1.083l3.833-0.5c0,0,2.917,0.999,6.25,0.333c0-4.916,0-6.5,0-6.5L220.272,383.917z"></path></g><path style="fill:#6E6E6E;stroke:#000000;stroke-linecap:round;stroke-linejoin:round;" d="M279.729,383.917c0,0,0.25,5.333-0.25,6.583c-2.083,0.833-5,0.667-5,0.667l-3,1.083l-3.833-0.5c0,0-2.916,0.999-6.25,0.333c0-4.916,0-6.5,0-6.5L279.729,383.917z"></path><path style="fill:#6E6E6E;stroke:#000000;stroke-linecap:round;stroke-linejoin:round;" d="M250,386.333l-12.917-0.583c0,0,0.07,6.751,0.421,7.417c2.176,0.166,3.58,0.166,3.58,0.166s2.527,0.75,3.51,0.75c0.983,0,5.405-0.25,5.405-0.25s4.422,0.25,5.406,0.25c0.982,0,3.509-0.75,3.509-0.75s1.404,0,3.581-0.166c0.351-0.666,0.421-7.417,0.421-7.417L250,386.333z"></path></g><g><g><path style="fill:#5F5858;stroke:#000000;stroke-linecap:round;stroke-linejoin:round;" d="M214.308,359.5c-1.277,4.625-4.147,15.46-4.456,20.483c1.273,0.767,7.773,3.142,10.485,3.468c1.019-8.018,2.484-15.992,4.157-23.951H214.308z"></path><path style="fill:#B2B2B2;" d="M211.755,374.751c0.04,0.018,3.709,1.603,8.895,2.411l-0.267,1.981c-4.99-0.773-8.759-2.254-9.453-2.575c-0.058-0.027-0.099-0.073-0.148-0.109l0.374-1.972C211.378,374.585,211.756,374.751,211.755,374.751z"></path><path style="fill:#5F5858;stroke:#000000;stroke-linecap:round;stroke-linejoin:round;" d="M224.756,359.5c-1.783,8.374-3.348,16.764-4.419,25.201c4.729,0.816,10.59,1.386,16.899,1.713c0.313-8.971,0.949-17.943,1.746-26.914H224.756z"></path><path style="fill:#B2B2B2;" d="M221.236,381.375l0.269-1.942c0.036,0.001,0.068-0.011,0.104-0.006c0.069,0.011,6.256,0.884,12.98,1.33l1.875,2.114c-7.531-0.391-15.061-1.453-15.137-1.464C221.295,381.402,221.269,381.383,221.236,381.375z"></path><path style="fill:#949494;" d="M237.001,380.897l-0.072,1.999c-0.154-0.008-0.31-0.017-0.464-0.025l-1.875-2.114C235.39,380.811,236.195,380.858,237.001,380.897z"></path><path style="fill:#5F5858;stroke:#000000;stroke-linecap:round;stroke-linejoin:round;" d="M285.692,359.5c1.277,4.625,4.147,15.46,4.456,20.483c-1.273,0.767-7.773,3.142-10.485,3.468c-1.019-8.018-2.484-15.992-4.157-23.951H285.692z"></path><g><path style="fill:#B2B2B2;" d="M289.13,376.515c-0.017,0.01-0.054,0.028-0.106,0.054c-0.008,0.004-0.014,0.011-0.021,0.015L289.13,376.515z"></path><path style="fill:#B2B2B2;" d="M288.198,374.751c-0.04,0.018-3.709,1.603-8.895,2.411l0.267,1.981c4.99-0.773,8.759-2.254,9.453-2.575c0.058-0.027,0.099-0.073,0.148-0.109l-0.374-1.972C288.575,374.585,288.197,374.751,288.198,374.751z"></path></g><path style="fill:#5F5858;stroke:#000000;stroke-linecap:round;stroke-linejoin:round;" d="M275.244,359.5c1.783,8.374,3.348,16.764,4.419,25.201c-4.729,0.816-10.591,1.386-16.899,1.713c-0.313-8.971-0.948-17.943-1.745-26.914H275.244z"></path><g><path style="fill:#B2B2B2;" d="M262.853,380.902c-0.552,0.026-0.978,0.495-0.951,1.047c0.026,0.551,0.495,0.978,1.047,0.951c0.025-0.001,0.051-0.003,0.076-0.004l-0.072-1.999C262.919,380.898,262.886,380.9,262.853,380.902z"></path><path style="fill:#B2B2B2;" d="M278.717,381.375l-0.269-1.942c-0.036,0.001-0.068-0.011-0.104-0.006c-0.069,0.011-6.256,0.884-12.98,1.33l-1.875,2.114c7.531-0.391,15.061-1.453,15.137-1.464C278.658,381.402,278.685,381.383,278.717,381.375z"></path><path style="fill:#343030;" d="M263.042,383.375l0.446-0.504c-0.154,0.009-0.31,0.018-0.464,0.025L263.042,383.375z"></path><path style="fill:#949494;" d="M262.952,380.897l0.072,1.999c0.154-0.008,0.31-0.017,0.464-0.025l1.875-2.114C264.563,380.811,263.758,380.858,262.952,380.897z"></path></g><path style="fill:#5F5858;stroke:#000000;stroke-linecap:round;stroke-linejoin:round;" d="M260.896,359.5h-21.792c-0.855,9.43-1.54,18.859-1.868,28.289c4.125,0.214,8.443,0.322,12.764,0.326c4.321-0.004,8.639-0.112,12.764-0.326C262.436,378.359,261.752,368.93,260.896,359.5z"></path><g><polygon style="fill:none;" points="242.321,381.667 257.68,381.667 250,372 "></polygon><polygon style="fill:#B2B2B2;" points="262.114,381.667 237.875,381.667 237.875,383.667 262.16,383.667 "></polygon></g></g></g></g></g></svg>