<svg xmlns="http://www.w3.org/2000/svg" width="500" height="500" version="1.1"><g id="x011"><g><path style="fill:#6E6E6E;stroke:#000000;stroke-linecap:round;stroke-linejoin:round;" d="M217.363,350.841c0,0-7.323,24.384-9.362,37.333c6.993,2.444,12.529,3.164,12.529,3.164l6.558-38.844L217.363,350.841z"></path><path style="fill:#6E6E6E;stroke:#000000;stroke-linecap:round;stroke-linejoin:round;" d="M282.639,350.841c0,0,7.321,24.384,9.361,37.333c-6.994,2.444-12.531,3.164-12.531,3.164l-6.557-38.844L282.639,350.841z"></path><path style="fill:#6E6E6E;stroke:#000000;stroke-linecap:round;stroke-linejoin:round;" d="M280.949,398.243c-0.589-14.242-7.221-46.324-7.221-46.324h-47.443c0,0-6.63,32.082-7.22,46.324c5.746,0.863,15.988,2.59,30.942,2.59C264.962,400.833,275.204,399.106,280.949,398.243z"></path><g><path style="fill:#6E6E6E;stroke:#000000;stroke-linecap:round;stroke-linejoin:round;" d="M282.549,350.841c0,0-5.957,3.452-32.601,3.452c-26.641,0-32.598-3.452-32.598-3.452l2.249-6.69c0,0,3.934,2.59,30.462,2.59c26.531,0,30.239-2.59,30.239-2.59L282.549,350.841z"></path></g></g></g></svg>