<svg xmlns="http://www.w3.org/2000/svg" width="500" height="500" version="1.1"><g id="x9098"><g><g><g><g><path style="fill:#505050;stroke:#000000;" d="M222.25,385.875c0,0,2.5,1.125,7.125,1.125s8.75-1.5,8.75-1.5l-0.375-8l-14.25,0.25l-1.125,7.75"></path><line style="fill:none;stroke:#000000;stroke-linecap:round;stroke-linejoin:round;" x1="228.125" y1="386.5" x2="228.875" y2="380.875"></line></g><path style="fill:#6E6E6E;stroke:#000000;stroke-linecap:round;stroke-linejoin:round;" d="M217.333,377.333l-3.083,7.5c0,0,3.833,2.584,10,2.751c0.417-0.833,1.5-6.749,1.75-7.916C221.167,379.334,217.333,377.333,217.333,377.333z"></path><path style="fill:#6E6E6E;stroke:#000000;stroke-linecap:round;stroke-linejoin:round;" d="M232.25,379.501l1.333,8.583c0,0,11.083-0.583,14.083-2.583c-1-2.75-2.333-8.25-2.333-8.25S238.917,379.501,232.25,379.501z"></path><path style="fill:#FFFFFF;" d="M233.542,384.292c0,0,0.125,1.167,0.292,2c3.083,0.25,11.833-1.583,12.917-2.041c-0.125-0.417-0.333-1.25-0.625-1.959C243,383.167,237.333,384.001,233.542,384.292z"></path><path style="fill:#FFFFFF;" d="M224.64,383.669c-3.202-0.155-6.227-1.093-8.551-2.102l-0.826,2.033c2.737,1.413,6.175,2.038,8.964,2.133L224.64,383.669z"></path></g><g><g><path style="fill:#505050;stroke:#000000;" d="M277.75,385.875c0,0-2.5,1.125-7.125,1.125s-8.75-1.5-8.75-1.5l0.375-8l14.25,0.25l1.125,7.75"></path><line style="fill:none;stroke:#000000;stroke-linecap:round;stroke-linejoin:round;" x1="271.875" y1="386.5" x2="271.125" y2="380.875"></line></g><path style="fill:#6E6E6E;stroke:#000000;stroke-linecap:round;stroke-linejoin:round;" d="M282.666,377.333l3.084,7.5c0,0-3.834,2.584-10,2.751c-0.416-0.833-1.5-6.749-1.75-7.916C278.833,379.334,282.666,377.333,282.666,377.333z"></path><path style="fill:#6E6E6E;stroke:#000000;stroke-linecap:round;stroke-linejoin:round;" d="M267.75,379.501l-1.334,8.583c0,0-11.083-0.583-14.083-2.583c1-2.75,2.333-8.25,2.333-8.25S261.084,379.501,267.75,379.501z"></path><path style="fill:#FFFFFF;" d="M266.458,384.292c0,0-0.125,1.167-0.292,2c-3.083,0.25-11.833-1.583-12.916-2.041c0.125-0.417,0.333-1.25,0.625-1.959C257,383.167,262.666,384.001,266.458,384.292z"></path><path style="fill:#FFFFFF;" d="M275.36,383.669c3.202-0.155,6.228-1.093,8.551-2.102l0.826,2.033c-2.737,1.413-6.175,2.038-8.964,2.133L275.36,383.669z"></path></g></g><path style="fill:#6E6E6E;stroke:#000000;stroke-linecap:round;stroke-linejoin:round;" d="M285.25,361.5c-1.125-5.25-2.25-8.833-2.25-8.833h-66c0,0-1.125,3.583-2.25,8.833c-3.125,5.25-4.679,9.195-4.5,10.625c1.125,2.125,7.25,6.375,7.25,6.375s-1.125,1.375,10.875,1.375s17.375-1.75,17.375-1.75l2.583-4.125l1.667,0.333l1.666-0.333l2.584,4.125c0,0,5.375,1.75,17.375,1.75S282.5,378.5,282.5,378.5s6.125-4.25,7.25-6.375C289.929,370.695,288.375,366.75,285.25,361.5z"></path><g><path style="fill:#505050;" d="M227.5,375.438c0.473,1.546,1.889,3.573,1.781,3.906c-0.123,0.38-2.61-3.716-2.688-3.719c-0.166-0.005-0.081-2.091-0.248-2.097c-1.054-0.041-2.139-0.104-3.221-0.181c-0.084-0.006-0.218,1.215-0.187,1.684c0.225,1.15,1.156,2.625,2.313,4.375c-0.175,0.339-3.232-4.21-3.344-4.219c-0.106-0.008,0.137-1.921,0.031-1.93c-5.763-0.463-11.125-1.258-11.125-1.258s1.438,2.563,7.375,6.563c1.5,0.938,16.688,2.063,27.563-0.813c1-1.813,1.75-3.375,1.75-3.375l-7.063-2.563c0,0-3.157,1.165-8.188,1.602c-0.049,0.004-0.313,1.43-0.188,2.055c0.296,1.392,1.276,3.326,1.094,3.656c-0.211,0.382-2.187-3.536-2.25-3.531c-0.267,0.02,0.304-2.102,0.027-2.086c-1.095,0.062-2.264,0.085-3.496,0.055C227.384,373.562,227.438,375,227.5,375.438z"></path><path style="fill:#505050;" d="M272.5,375.438c-0.473,1.546-1.889,3.573-1.781,3.906c0.123,0.38,2.61-3.716,2.688-3.719c0.166-0.005,0.081-2.091,0.248-2.097c1.055-0.041,2.139-0.104,3.221-0.181c0.084-0.006,0.219,1.215,0.188,1.684c-0.225,1.15-1.156,2.625-2.313,4.375c0.176,0.339,3.232-4.21,3.344-4.219c0.106-0.008-0.137-1.921-0.031-1.93c5.764-0.463,11.125-1.258,11.125-1.258s-1.438,2.563-7.375,6.563c-1.5,0.938-16.688,2.063-27.563-0.813c-1-1.813-1.75-3.375-1.75-3.375l7.063-2.563c0,0,3.156,1.165,8.188,1.602c0.049,0.004,0.313,1.43,0.188,2.055c-0.297,1.392-1.276,3.326-1.094,3.656c0.211,0.382,2.187-3.536,2.25-3.531c0.268,0.02-0.305-2.102-0.027-2.086c1.095,0.062,2.264,0.085,3.496,0.055C272.615,373.562,272.563,375,272.5,375.438z"></path></g><g><path style="fill:#505050;" d="M241.188,373.625c-0.375-0.063-3.688-3.188-3.688-5.25c6.375,2,12.063,2.625,12.063,2.625l0.063,2.813L241.188,373.625z"></path><path style="fill:#505050;" d="M258.813,373.625c0.375-0.063,3.688-3.188,3.688-5.25c-6.375,2-12.063,2.625-12.063,2.625l-0.063,2.813L258.813,373.625z"></path></g><g><g><path style="fill:none;stroke:#000000;stroke-linecap:round;stroke-linejoin:round;" d="M225,379.5c0,0-3.125-3.25-3.25-5.125c0.75-2.875,3.75-11.5,4.625-14.625c0.25-1.75,0.5-7,0.5-7"></path><path style="fill:none;stroke:#000000;stroke-linecap:round;stroke-linejoin:round;" d="M233,379.5c-0.375,0-2.5-4.125-2.375-5s2.875-12.25,3.125-13.875s0.375-7.875,0.375-7.875"></path><path style="fill:none;stroke:#000000;stroke-linecap:round;stroke-linejoin:round;" d="M230.25,353c0,0,0,6.125-0.125,6.625s-3.625,12.625-3.875,14.625c0.375,2.375,2.625,5.375,2.625,5.375"></path></g><g><path style="fill:none;stroke:#000000;stroke-linecap:round;stroke-linejoin:round;" d="M275,379.5c0,0,3.125-3.25,3.25-5.125c-0.75-2.875-3.75-11.5-4.625-14.625c-0.25-1.75-0.5-7-0.5-7"></path><path style="fill:none;stroke:#000000;stroke-linecap:round;stroke-linejoin:round;" d="M267,379.5c0.375,0,2.5-4.125,2.375-5s-2.875-12.25-3.125-13.875s-0.375-7.875-0.375-7.875"></path><path style="fill:none;stroke:#000000;stroke-linecap:round;stroke-linejoin:round;" d="M269.75,353c0,0,0,6.125,0.125,6.625s3.625,12.625,3.875,14.625c-0.375,2.375-2.625,5.375-2.625,5.375"></path></g></g><g><path style="fill:none;stroke:#000000;stroke-linecap:round;stroke-linejoin:round;" d="M241.5,372c0,0,4.125,1.5,6.375,1.875"></path><path style="fill:none;stroke:#000000;stroke-linecap:round;stroke-linejoin:round;" d="M258.5,372c0,0-4.125,1.5-6.375,1.875"></path></g><g><line style="fill:none;stroke:#000000;stroke-linecap:round;stroke-linejoin:round;" x1="246.75" y1="354" x2="246.75" y2="371.125"></line><line style="fill:none;stroke:#000000;stroke-linecap:round;stroke-linejoin:round;" x1="253.25" y1="354" x2="253.25" y2="371.125"></line></g></g></g></svg>