<svg xmlns="http://www.w3.org/2000/svg" width="500" height="500" version="1.1"><g id="x012"><g><g><path style="fill:#6E6E6E;stroke:#000000;stroke-linecap:round;stroke-linejoin:round;" d="M218.853,344.543c0,0-8.939,29.294-6.572,47.418c1.051,0,2.629-0.746,2.629-0.746l4.207,6.456l1.051-3.726c0,0,3.155,4.966,6.31,5.709c0.526-1.983,0.526-3.227,0.526-3.227s6.31,4.221,9.728,4.718c0.789-1.491,0.789-2.234,0.789-2.234s4.47,3.724,8.939,4.468c0.263-0.992,0.263-2.233,0.263-2.233s2.368,2.482,10.779,3.227c0-1.241,0-1.241,0-1.241s8.15-2.234,11.042-2.979c0-0.991,0-0.991,0-0.991s5.786,0.247,7.362,0c0.526-1.242,0.526-1.988,0.526-1.988s5.258-0.247,8.677-1.984c0-1.242,0-2.234,0-2.234s2.893-1.738,4.207-3.476c0-6.455-2.892-32.025-8.15-44.935C266.968,344.543,218.853,344.543,218.853,344.543z"></path><path style="fill:none;stroke:#000000;stroke-linecap:round;stroke-linejoin:round;" d="M216.225,390.966c0,0,1.84-31.775,6.047-45.182"></path><path style="fill:none;stroke:#000000;stroke-linecap:round;stroke-linejoin:round;" d="M224.901,349.508c0,0-4.996,37.238-4.208,44.438"></path><path style="fill:none;stroke:#000000;stroke-linecap:round;stroke-linejoin:round;" d="M230.685,349.26c0,0-3.944,34.012-3.681,46.177"></path><line style="fill:none;stroke:#000000;stroke-linecap:round;stroke-linejoin:round;" x1="238.835" y1="350.253" x2="237.521" y2="398.911"></line><line style="fill:none;stroke:#000000;stroke-linecap:round;stroke-linejoin:round;" x1="246.723" y1="350.751" x2="246.46" y2="401.643"></line><line style="fill:none;stroke:#000000;stroke-linecap:round;stroke-linejoin:round;" x1="257.766" y1="349.508" x2="257.765" y2="402.635"></line><path style="fill:none;stroke:#000000;stroke-linecap:round;stroke-linejoin:round;" d="M265.127,349.013c0,0,3.417,46.424,3.417,51.139"></path><path style="fill:none;stroke:#000000;stroke-linecap:round;stroke-linejoin:round;" d="M273.278,347.521c0,0,3.943,35.252,3.154,50.149"></path><path style="fill:none;stroke:#000000;stroke-linecap:round;stroke-linejoin:round;" d="M280.376,346.032c0,0,5.26,33.515,5.26,48.41"></path></g><path style="fill:#6E6E6E;stroke:#000000;stroke-linecap:round;stroke-linejoin:round;" d="M282.171,347.77c0,0-5.88,3.49-32.172,3.49c-26.29,0-32.17-3.49-32.17-3.49l2.219-6.761c0,0,3.883,2.617,30.063,2.617c26.181,0,29.843-2.617,29.843-2.617L282.171,347.77z"></path></g></g></svg>