<svg xmlns="http://www.w3.org/2000/svg" width="500" height="500" version="1.1"><g id="x9122"><g><g><path style="fill:#6E6E6E;stroke:#000000;stroke-linecap:round;stroke-linejoin:round;" d="M281.519,345c-13.838,0-49.2,0-63.037,0c-2.563,3-9.481,38-9.225,53.25c3.332,1.5,13.837,2,13.837,2s0.256,0.75,1.025,1.25c1.794,0.5,15.887,0,16.656-0.75c0,0,0.35,1.5,9.225,1.5s9.225-1.5,9.225-1.5c0.769,0.75,14.862,1.25,16.656,0.75c0.769-0.5,1.025-1.25,1.025-1.25s10.506-0.5,13.837-2C290.999,383,284.081,348,281.519,345z"></path><g><path style="fill:#505050;" d="M259.882,345c0,0,1.024,35.5-1.538,49.75c-1.537-23-3.331-49.5-3.331-49.5L259.882,345z"></path><path style="fill:#505050;" d="M270.644,344.25l6.406,51.5c0,0,2.05-28.75-2.306-51.25C271.925,343.75,270.644,344.25,270.644,344.25z"></path><path style="fill:#505050;" d="M240.119,345c0,0-1.025,35.5,1.538,49.75c1.537-23,3.331-49.5,3.331-49.5L240.119,345z"></path><path style="fill:#505050;" d="M229.356,344.25l-6.406,51.5c0,0-2.05-28.75,2.306-51.25C228.076,343.75,229.356,344.25,229.356,344.25z"></path></g><g><g><path style="fill:none;stroke:#000000;stroke-linecap:round;stroke-linejoin:round;" d="M222.71,400.25c0,0,2.818-37.75,6.918-53.75"></path><path style="fill:none;stroke:#000000;stroke-linecap:round;stroke-linejoin:round;" d="M241.416,400c0,0,1.537-40,2.818-54.25"></path></g><g><path style="fill:none;stroke:#000000;stroke-linecap:round;stroke-linejoin:round;" d="M277.29,400.25c0,0-2.818-37.75-6.919-53.75"></path><path style="fill:none;stroke:#000000;stroke-linecap:round;stroke-linejoin:round;" d="M258.584,400c0,0-1.537-40-2.818-54.25"></path></g></g></g><polygon style="fill:#6E6E6E;stroke:#000000;stroke-linecap:round;stroke-linejoin:round;" points="279.879,338.5 220.122,338.5 218.482,345.75 281.519,345.75 "></polygon></g></g></svg>