<svg xmlns="http://www.w3.org/2000/svg" width="500" height="500" version="1.1"><g id="x9123"><g><g><g id="bottomsXMLID_15_"><g><path style="fill:#B1493C;" d="M284.26,353c0,0,3.57,16.04,4.41,31.37c-2.88,1.16-6.979,1.86-11.43,2.31c-0.12,0.33-0.12,0.46-0.181,0.71c-4.439,1.23-11.56,1.17-17.39,1.11c-0.229,0.38-0.36,0.56-0.42,0.7c-5.25,0.74-9.25,0.68-9.25,0.68s-7.38-0.13-9-0.67c-0.19-0.27-0.44-0.52-0.5-0.63c-7.56-0.021-13.5-0.08-17.06-1.19c-0.06-0.189,0.06-0.64-0.28-0.67c-4.61-0.439-8.86-1.16-11.83-2.35c0.84-15.33,4.41-31.37,4.41-31.37H284.26z"></path></g><g><g><polygon style="fill:#822B24;" points="281.162,386.533 277.018,386.949 274.125,358.5 278.125,358.125 "></polygon><polygon style="fill:#822B24;" points="262.598,388.174 257.875,388.75 256.375,358.75 261.395,358.595 "></polygon><polygon style="fill:#822B24;" points="275.225,387.615 271.066,387.917 268.91,358.191 273.25,358.5 "></polygon><rect x="243.45" y="358.667" transform="matrix(0.9996 0.0293 -0.0293 0.9996 11.0658 -7.0333)" style="fill:#822B24;" width="4.166" height="30.834"></rect><polygon style="fill:#822B24;" points="226.52,387.889 222.875,386.5 226,358.5 230,358.375 "></polygon><polygon style="fill:#822B24;" points="215.5,385.375 211.296,384.24 215,358.625 218.75,358.5 "></polygon></g><rect x="215.5" y="375.5" style="fill:#822B24;" width="72.676" height="5.333"></rect><polygon style="fill:#822B24;" points="286.667,366.833 215.5,366.833 215.5,361.5 285.75,361.625 "></polygon></g><g><path style="fill:none;stroke:#1875B9;stroke-linecap:round;stroke-linejoin:round;" d="M211.375,381.625c0,0,19,2.125,39.5,2.125s37.375-2,37.375-2"></path><line style="fill:none;stroke:#1875B9;stroke-linecap:round;stroke-linejoin:round;" x1="253.5" y1="358.625" x2="254.625" y2="389.625"></line><line style="fill:none;stroke:#1875B9;stroke-linecap:round;stroke-linejoin:round;" x1="267.75" y1="358.5" x2="269.625" y2="388.25"></line><line style="fill:none;stroke:#1875B9;stroke-linecap:round;stroke-linejoin:round;" x1="236.375" y1="358.625" x2="234.875" y2="388.5"></line><path style="fill:none;stroke:#1875B9;stroke-linecap:round;stroke-linejoin:round;" d="M222.25,358.5c0,0-2.875,21.75-2.875,27.125"></path><path style="fill:none;stroke:#1875B9;stroke-linecap:round;stroke-linejoin:round;" d="M283.875,358.625c0,0,2.625,22.375,2.875,26.125"></path><line style="fill:none;stroke:#1875B9;stroke-linecap:round;stroke-linejoin:round;" x1="212.875" y1="369.75" x2="287" y2="369.75"></line></g><g><path style="fill:none;stroke:#000000;stroke-linecap:round;stroke-linejoin:round;" d="M284.26,353h-68.52c0,0-3.57,16.04-4.41,31.37c2.97,1.189,7.22,1.91,11.83,2.35c0.34,0.03,0.22,0.48,0.28,0.67c3.56,1.11,9.5,1.17,17.06,1.19c0.06,0.11,0.31,0.36,0.5,0.63c1.62,0.54,9,0.67,9,0.67s4,0.061,9.25-0.68c0.06-0.141,0.19-0.32,0.42-0.7c5.83,0.06,12.95,0.12,17.39-1.11c0.061-0.25,0.061-0.38,0.181-0.71c4.45-0.449,8.55-1.149,11.43-2.31C287.83,369.04,284.26,353,284.26,353z"></path></g></g><g><g><path style="fill:none;stroke:#000000;stroke-linecap:round;stroke-linejoin:round;" d="M226.333,358.666c0,0-3.333,17.869-3.333,28.035"></path><path style="fill:none;stroke:#000000;stroke-linecap:round;stroke-linejoin:round;" d="M242.167,358.666c0,0-1.667,24.501-1.167,30.334"></path></g><g><path style="fill:none;stroke:#000000;stroke-linecap:round;stroke-linejoin:round;" d="M273.667,358.666c0,0,3.333,17.869,3.333,28.035"></path><path style="fill:none;stroke:#000000;stroke-linecap:round;stroke-linejoin:round;" d="M257.833,358.666c0,0,1.667,24.501,1.167,30.334"></path></g></g></g><line style="fill:none;stroke:#000000;stroke-linecap:round;stroke-linejoin:round;" x1="215.083" y1="358.5" x2="284.917" y2="358.5"></line></g></g></svg>