<svg xmlns="http://www.w3.org/2000/svg" width="500" height="500" version="1.1"><g id="x9127"><g><g><path style="fill:#6E6E6E;stroke:#000000;stroke-linecap:round;stroke-linejoin:round;" d="M279.744,335.5h-59.488c-9.288,38.501-12.258,87.597-11.506,92.106c0.773,0.579,3.404,0.868,3.404,0.868s0,0.579,0.309,1.303c2.166,2.462,8.664,2.896,8.664,2.896s0.464,0.579,0.31,1.303c4.177,1.448,11.387,0.724,11.387,0.724s0.309,0.579,0.309,1.303c2.785,0.145,11.509-0.868,11.509-0.868s0.155-0.435,0-1.158c0.912-0.189,3.014-0.874,4.359-1.326l1-75.981l1,75.981c1.346,0.452,3.447,1.137,4.359,1.326c-0.156,0.724,0,1.158,0,1.158s8.725,1.013,11.508,0.868c0-0.724,0.311-1.303,0.311-1.303s7.209,0.725,11.387-0.724c-0.154-0.724,0.309-1.303,0.309-1.303s6.498-0.434,8.664-2.896c0.309-0.724,0.309-1.303,0.309-1.303s2.631-0.289,3.404-0.868C292.002,423.097,289.033,374.001,279.744,335.5z"></path><g><g><path style="fill:#505050;" d="M236.438,358.75l-3.625,75.625c0,0-2.75,0-3.625,0C229.813,422.625,236.438,358.75,236.438,358.75z"></path><path style="fill:#505050;" d="M221.063,432c0,0-2.875,0-4-0.625c1.75-18.375,10.5-79,10.5-79L221.063,432z"></path><path style="fill:#505050;" d="M219.813,354.5c-0.5,1-8,73.75-8,73.75s-1.75-0.5-2.25-0.75C212.063,402.75,219.813,354.5,219.813,354.5z"></path></g><g><path style="fill:#505050;" d="M263.563,358.75l3.625,75.625c0,0,2.75,0,3.625,0C270.188,422.625,263.563,358.75,263.563,358.75z"></path><path style="fill:#505050;" d="M278.938,432c0,0,2.875,0,4-0.625c-1.75-18.375-10.5-79-10.5-79L278.938,432z"></path><path style="fill:#505050;" d="M280.188,354.5c0.5,1,8,73.75,8,73.75s1.75-0.5,2.25-0.75C287.938,402.75,280.188,354.5,280.188,354.5z"></path></g></g><g><g><path style="fill:#505050;" d="M249.433,357.201L248.667,410c0,0-1.5-25-3.833-36.333s-5.333-17.167-8.1-22.167C240.733,353.834,249.433,357.201,249.433,357.201z"></path></g><g><path style="fill:#505050;" d="M250.435,357.201L251.199,410c0,0,1.5-25,3.834-36.333s5.334-17.167,8.1-22.167C259.133,353.834,250.435,357.201,250.435,357.201z"></path></g></g><g><path style="fill:none;stroke:#000000;stroke-linecap:round;stroke-linejoin:round;" d="M236.25,350.834c0,0,7.001,4.834,13.5,5.834"></path><path style="fill:none;stroke:#000000;stroke-linecap:round;stroke-linejoin:round;" d="M263.75,350.834c0,0-7.001,4.834-13.5,5.834"></path></g><g><path style="fill:none;stroke:#000000;stroke-linecap:round;stroke-linejoin:round;" d="M244.801,434.334c0,0,1.333-91.333,1.833-95"></path><path style="fill:none;stroke:#000000;stroke-linecap:round;stroke-linejoin:round;" d="M232.823,435.532c0,0,3.545-88.597,5.045-97.43"></path><path style="fill:none;stroke:#000000;stroke-linecap:round;stroke-linejoin:round;" d="M221.134,433.334c0,0,5.333-77.499,8.833-96.166"></path><path style="fill:none;stroke:#000000;stroke-linecap:round;stroke-linejoin:round;" d="M212.134,429.001c0,0,3.667-62.667,11.667-93"></path><path style="fill:none;stroke:#000000;stroke-linecap:round;stroke-linejoin:round;" d="M255.199,434.334c0,0-1.334-91.333-1.834-95"></path><path style="fill:none;stroke:#000000;stroke-linecap:round;stroke-linejoin:round;" d="M267.178,435.532c0,0-3.545-88.597-5.045-97.43"></path><path style="fill:none;stroke:#000000;stroke-linecap:round;stroke-linejoin:round;" d="M278.865,433.334c0,0-5.332-77.499-8.832-96.166"></path><path style="fill:none;stroke:#000000;stroke-linecap:round;stroke-linejoin:round;" d="M287.865,429.001c0,0-3.666-62.667-11.666-93"></path></g></g><polygon style="fill:#6E6E6E;stroke:#000000;stroke-linecap:round;stroke-linejoin:round;" points="281.5,341.167 218.5,341.167 219.5,335.5 280.5,335.5 "></polygon></g></g></svg>