<svg xmlns="http://www.w3.org/2000/svg" width="500" height="500" version="1.1"><g id="x014"><g><g><g><path style="fill:#FFFFFF;stroke:#000000;stroke-width:0.9409;stroke-linecap:round;stroke-linejoin:round;" d="M294.603,371.543L250,385.33L205.4,371.543l-2.233,4.649c0,0,2.532,0.436,3.276,1.454c0.745,1.015,0.745,2.613,1.489,3.049c0.745,0.436,3.723,0.292,3.723,0.292s1.789,1.015,3.127,1.741c1.339,0.729,4.467,1.6,4.467,1.6v2.905c0,0,2.383,0.581,3.872,0.873c1.489,0.289,2.383-0.729,2.383-0.729c1.042,0.146,2.383,1.453,3.723,1.889c1.341,0.436,3.873,0,3.873,0s0.893,2.906,2.828,3.197c1.936,0.289,4.319-0.291,4.319-0.291s3.723,0.58,5.212,0.871c1.141,0.223,3.499-0.829,4.542-1.337c1.044,0.508,3.402,1.56,4.542,1.337c1.489-0.291,5.212-0.871,5.212-0.871s2.385,0.58,4.318,0.291c1.937-0.291,2.829-3.197,2.829-3.197s2.533,0.436,3.872,0c1.34-0.436,2.682-1.743,3.723-1.889c0,0,0.893,1.018,2.382,0.729c1.492-0.292,3.873-0.873,3.873-0.873v-2.905c0,0,3.127-0.871,4.471-1.6c1.339-0.727,3.125-1.741,3.125-1.741s2.978,0.144,3.723-0.292c0.744-0.436,0.744-2.034,1.489-3.049c0.745-1.019,3.273-1.454,3.273-1.454L294.603,371.543z"></path><path style="fill:none;stroke:#000000;stroke-width:0.9409;stroke-linecap:round;stroke-linejoin:round;" d="M217.015,379.679c0,0-1.191,2.615-0.894,4.214"></path><path style="fill:none;stroke:#000000;stroke-width:0.9409;stroke-linecap:round;stroke-linejoin:round;" d="M217.015,379.099c0,0-1.191,2.614-0.894,4.213"></path><path style="fill:none;stroke:#000000;stroke-width:0.9409;stroke-linecap:round;stroke-linejoin:round;" d="M234.141,384.328c0,0.436-1.341,4.647-0.893,6.246"></path><path style="fill:none;stroke:#000000;stroke-width:0.9409;stroke-linecap:round;stroke-linejoin:round;" d="M282.79,379.099c0,0,1.189,2.614,0.893,4.213"></path><path style="fill:none;stroke:#000000;stroke-width:0.9409;stroke-linecap:round;stroke-linejoin:round;" d="M265.663,384.328c0,0.436,1.342,4.647,0.895,6.246"></path></g><g><path style="fill:#6E6E6E;stroke:#000000;stroke-width:0.9409;stroke-linecap:round;stroke-linejoin:round;" d="M294.572,372.144c-2.582-12.396-13.204-23.262-13.204-23.262c-4.091,3.592-24.849,3.564-31.272,3.564l0,0h-0.2l0,0c-6.423,0-27.181,0.027-31.272-3.564c0,0-10.621,10.868-13.204,23.262c6.155,3.38,12.708,4.668,12.708,4.668s0.297,3.142,0,2.898c5.758,3.381,16.528,3.26,16.528,3.26l0.151,2.375c0,0,7.089,1.276,15.188,0.968c8.1,0.309,15.189-0.968,15.189-0.968l0.15-2.375c0,0,10.77,0.121,16.527-3.26c-0.298,0.243,0-2.898,0-2.898S288.416,375.523,294.572,372.144z"></path><path style="fill:#505050;" d="M213.889,373.942c0,0,3.126-11.459,9.878-18.38c-1.787,5.956-5.188,19.903-5.188,19.903L213.889,373.942z"></path><path style="fill:#505050;" d="M238.262,354.113l-3.302,27.6l-4.169-0.509C230.791,381.204,232.105,365.866,238.262,354.113z"></path><path style="fill:#505050;" d="M285.965,373.942c0,0-3.228-11.459-9.979-18.38c1.788,5.956,5.362,20.606,5.362,20.606L285.965,373.942z"></path><path style="fill:#505050;" d="M261.492,354.113l3.624,27.453l3.725-0.362C268.841,381.204,267.649,365.866,261.492,354.113z"></path><path style="fill:none;stroke:#000000;stroke-width:0.9409;stroke-linecap:round;stroke-linejoin:round;" d="M217.412,379.228c0,0,3.772-19.479,8.34-28.012"></path><path style="fill:none;stroke:#000000;stroke-width:0.9409;stroke-linecap:round;stroke-linejoin:round;" d="M235.084,384.218c0,0,1.587-20.282,3.576-31.23"></path><path style="fill:none;stroke:#000000;stroke-width:0.9409;stroke-linecap:round;stroke-linejoin:round;" d="M282.339,379.228c0,0-3.77-19.479-8.339-28.012"></path><path style="fill:none;stroke:#000000;stroke-width:0.9409;stroke-linecap:round;stroke-linejoin:round;" d="M264.668,384.218c0,0-1.588-20.282-3.574-31.23"></path></g></g><path style="fill:#6E6E6E;stroke:#000000;stroke-width:0.9409;stroke-linecap:round;stroke-linejoin:round;" d="M280.666,347c0,0-9.166,2.667-31,2.667c-21.833,0-31-2.667-31-2.667l-2.167,4.167c0,0,5.5,2.967,33.167,2.967s33.166-2.967,33.166-2.967L280.666,347z"></path></g></g></svg>