<svg xmlns="http://www.w3.org/2000/svg" width="500" height="500" version="1.1"><g id="x015"><g><g><g id="bottomsXMLID_6_"><g><path style="fill:#6E6E6E;" d="M292.383,381.103c-2.377,2.163-8.866,3.677-8.866,3.677s-0.215,1.729-0.864,3.026c-4.325,1.298-6.703,1.298-9.947,0c0.218,1.082-0.215,3.027-0.215,3.027s-4.542,1.514-9.517,0.865c-1.944-0.865-1.08-1.729-1.08-1.729l-2.813,0.432v1.73c0,0-1.513,1.514-9.082,1.514c-7.568,0-9.082-1.514-9.082-1.514v-1.73l-2.811-0.432c0,0,0.865,0.864-1.082,1.729c-4.974,0.648-9.515-0.865-9.515-0.865s-0.433-1.945-0.217-3.027c-3.243,1.298-5.622,1.298-9.947,0c-0.649-1.297-0.865-3.026-0.865-3.026s-6.487-1.514-8.866-3.677c1.297-14.92,11.863-36.546,11.863-36.546L250,346.75l30.522-2.192C280.521,344.558,291.086,366.183,292.383,381.103z"></path></g><g><rect x="260.666" y="362.647" transform="matrix(0.7071 -0.7071 0.7071 0.7071 -182.8499 297.2018)" style="fill:none;" width="13.379" height="13.38"></rect><polygon style="fill:none;" points="249.715,361.155 259.175,351.695 255.26,347.779 250,346.625 244.234,347.715 240.254,351.695 "></polygon><path style="fill:none;" d="M217.572,358.017l6.321-6.321l-5.286-5.286c-1.182,2.564-3.394,7.549-5.536,13.385l1.361,1.361L217.572,358.017z"></path><path style="fill:none;" d="M214.433,377.517l-4.86,4.86c2.873,1.459,6.909,2.402,6.909,2.402s0.216,1.729,0.865,3.026c1.877,0.564,3.387,0.881,4.761,0.956l1.785-1.784L214.433,377.517z"></path><path style="fill:none;" d="M259.174,386.978l-9.459-9.461l-9.461,9.461l6.564,6.563c0.918,0.065,1.972,0.104,3.181,0.104c0.951,0,1.805-0.024,2.574-0.066l0.281-0.279L259.174,386.978z"></path><polygon style="fill:none;" points="241.534,369.336 232.073,359.876 222.613,369.336 232.073,378.797 235.212,375.657 "></polygon><path style="fill:none;" d="M284.996,377.517l-9.46,9.461l1.8,1.8c1.523-0.009,3.184-0.331,5.316-0.972c0.649-1.297,0.864-3.026,0.864-3.026s3.693-0.862,6.527-2.215L284.996,377.517z"></path><path style="fill:none;" d="M284.996,361.155l1.779-1.777c-2.208-5.965-4.461-10.988-5.563-13.358l-5.676,5.676L284.996,361.155z"></path><polygon style="fill:#505050;" points="235.212,375.657 232.073,378.797 240.254,386.978 249.715,377.517 241.534,369.336 "></polygon><polygon style="fill:#505050;" points="249.715,361.155 240.254,351.695 232.073,359.876 236.837,364.64 241.534,369.336 "></polygon><polygon style="fill:#505050;" points="245.375,346.625 235.109,346.552 240.254,351.695 "></polygon><polygon style="fill:#505050;" points="262.984,364.246 267.355,359.876 259.175,351.695 249.715,361.155 257.895,369.336 "></polygon><path style="fill:#505050;" d="M290.044,382.564c0.923-0.439,1.756-0.932,2.339-1.462c-0.254-2.913-0.861-6.084-1.674-9.299l-5.713,5.713L290.044,382.564z"></path><polygon style="fill:#505050;" points="223.893,351.695 217.572,358.017 214.433,361.155 222.613,369.336 232.073,359.876 "></polygon><polygon style="fill:#505050;" points="214.433,377.517 223.893,386.978 232.073,378.797 228.35,375.073 222.613,369.336 "></polygon><path style="fill:#505050;" d="M227.511,390.833c0,0,0.122,0.04,0.344,0.104l-0.404-0.403C227.486,390.72,227.511,390.833,227.511,390.833z"></path><path style="fill:#505050;" d="M229.724,345.864l-10.245-1.308c0,0-0.327,0.671-0.873,1.853l5.286,5.286L229.724,345.864z"></path><path style="fill:#505050;" d="M272.49,390.833c0,0,0.093-0.422,0.171-0.98l-1.292,1.292C272.077,390.97,272.49,390.833,272.49,390.833z"></path><polygon style="fill:#505050;" points="284.996,361.155 275.536,351.695 267.355,359.876 272.427,364.946 276.816,369.336 "></polygon><path style="fill:#505050;" d="M259.174,386.978l-6.319,6.321l-0.281,0.279c5.351-0.29,6.508-1.447,6.508-1.447v-1.73l2.813-0.432c0,0-0.864,0.864,1.08,1.729c0.346,0.045,0.688,0.079,1.026,0.104l-1.99-1.991L259.174,386.978z"></path><path style="fill:#505050;" d="M235.393,391.839c0.535-0.024,1.081-0.069,1.632-0.141c1.946-0.865,1.082-1.729,1.082-1.729l2.811,0.432v1.73c0,0,1.069,1.068,5.9,1.41l-6.564-6.563L235.393,391.839z"></path><path style="fill:#505050;" d="M274.191,388.322c1.06,0.308,2.068,0.461,3.145,0.455l-1.8-1.8L274.191,388.322z"></path><path style="fill:#505050;" d="M222.108,388.762c1.133,0.061,2.175-0.047,3.251-0.318l-1.466-1.466L222.108,388.762z"></path><polygon style="fill:#505050;" points="276.816,369.336 267.355,378.797 275.536,386.978 284.996,377.517 279.65,372.17 "></polygon><polygon style="fill:#505050;" points="264.236,346.635 254.5,346.875 259.175,351.695 "></polygon><path style="fill:#505050;" d="M209.176,372.261c-0.756,3.057-1.318,6.065-1.56,8.842c0.502,0.457,1.188,0.884,1.957,1.274l4.86-4.86L209.176,372.261z"></path><path style="fill:#505050;" d="M213.071,359.794c-0.499,1.359-0.994,2.763-1.47,4.193l2.831-2.832L213.071,359.794z"></path><polygon style="fill:#505050;" points="249.715,377.517 259.174,386.978 267.355,378.797 264.047,375.488 257.895,369.336 "></polygon><path style="fill:#505050;" d="M281.212,346.02c-0.436-0.938-0.69-1.462-0.69-1.462l-10.753,1.371l5.768,5.767L281.212,346.02z"></path><path style="fill:#505050;" d="M288.679,364.838c-0.61-1.872-1.255-3.707-1.903-5.46l-1.779,1.777L288.679,364.838z"></path><path style="fill:#323232;" d="M276.816,369.336l2.834,2.834l5.346,5.347l5.713-5.713c-0.588-2.325-1.282-4.673-2.03-6.966l-3.683-3.683L276.816,369.336z"></path><path style="fill:#323232;" d="M267.355,378.797l-8.182,8.181l2.836,2.833l1.99,1.991c3.085,0.232,5.885-0.294,7.369-0.657l1.292-1.292c0.09-0.644,0.16-1.468,0.044-2.047c0.516,0.206,1.006,0.375,1.486,0.517l1.345-1.345L267.355,378.797z"></path><polygon style="fill:#323232;" points="267.355,359.876 275.536,351.695 269.769,345.929 264.236,346.635 259.175,351.695 "></polygon><polygon style="fill:#323232;" points="249.715,361.155 241.534,369.336 249.715,377.517 253.904,373.328 257.895,369.336 "></polygon><path style="fill:#323232;" d="M232.073,378.797l-8.18,8.181l1.466,1.466c0.625-0.158,1.261-0.367,1.935-0.638c-0.164,0.822,0.046,2.142,0.157,2.729l0.404,0.403c0.993,0.287,4.031,1.058,7.539,0.901l4.861-4.861L232.073,378.797z"></path><polygon style="fill:#323232;" points="232.073,359.876 240.254,351.695 235.109,346.552 229.724,345.864 223.893,351.695 "></polygon><path style="fill:#323232;" d="M222.613,369.336l-8.181-8.181l-2.831,2.832c-0.904,2.708-1.743,5.51-2.426,8.273l5.257,5.256L222.613,369.336z"></path></g><g><path style="fill:none;stroke:#000000;stroke-linecap:round;stroke-linejoin:round;" d="M280.521,344.558c0,0-6.647,1.893-30.522,1.893s-30.52-1.894-30.52-1.894s-10.566,21.626-11.863,36.546c2.378,2.163,8.866,3.677,8.866,3.677s0.216,1.729,0.865,3.026c4.325,1.298,6.704,1.298,9.947,0c-0.216,1.082,0.217,3.027,0.217,3.027s4.541,1.514,9.515,0.865c1.946-0.865,1.082-1.729,1.082-1.729l2.811,0.432v1.73c0,0,1.513,1.514,9.082,1.514c7.569,0,9.082-1.514,9.082-1.514v-1.73l2.813-0.432c0,0-0.864,0.864,1.08,1.729c4.975,0.648,9.517-0.865,9.517-0.865s0.433-1.945,0.215-3.027c3.244,1.298,5.622,1.298,9.947,0c0.649-1.297,0.864-3.026,0.864-3.026s6.489-1.514,8.866-3.677C291.086,366.183,280.521,344.558,280.521,344.558z"></path></g></g><g><path style="fill:none;stroke:#000000;stroke-linecap:round;stroke-linejoin:round;" d="M216.482,385.644c0-0.864,4.325-24.437,9.731-38.058"></path></g><g><path style="fill:none;stroke:#000000;stroke-linecap:round;stroke-linejoin:round;" d="M283.517,385.644c0-0.864-4.324-24.437-9.729-38.058"></path></g><path style="fill:none;stroke:#000000;stroke-linecap:round;stroke-linejoin:round;" d="M240.918,390.4c0,0,3.532-33.877,4.686-42.527"></path><path style="fill:none;stroke:#000000;stroke-linecap:round;stroke-linejoin:round;" d="M259.155,390.4c0,0-3.533-33.877-4.685-42.527"></path></g><path style="fill:#6E6E6E;stroke:#000000;stroke-linecap:round;stroke-linejoin:round;" d="M280.854,342.557c0,0-0.021,3.276-30.854,3.276c-30.834,0-30.854-3.276-30.854-3.276l-1.479,3.943c0,0,6.501,3.868,32.333,3.868s32.333-3.868,32.333-3.868L280.854,342.557z"></path></g></g></svg>