<svg xmlns="http://www.w3.org/2000/svg" width="500" height="500" version="1.1"><g id="x016"><g><path style="fill:#6E6E6E;stroke:#000000;stroke-linecap:round;stroke-linejoin:round;" d="M216.625,359.268c0,0,26.096,12.818,30.216,13.963c3.435,0.687,3.435,0.687,6.868,0c4.119-1.145,30.216-13.964,30.216-13.964L216.625,359.268z"></path><g><path style="fill:#6E6E6E;stroke:#000000;stroke-linecap:round;stroke-linejoin:round;" d="M289.372,370.117c-3.434-2.747-9.843-4.808-16.711-5.952c-6.866-1.145-22.662,0.458-22.662,0.458s-15.794-1.603-22.662-0.458c-6.867,1.145-13.277,3.205-16.71,5.951c0,0-5.722,3.206-5.722,5.267c0.915,1.144,5.036,1.601,6.18,1.601c0,1.375,0.458,2.977,0.458,2.977s3.663,1.831,4.807,0.687c0-2.061,0.229-4.808,0.229-4.808s2.746-1.831,4.579-0.687c1.831,1.146,2.975,3.434,2.975,3.434s2.29,1.374,3.434,0.688c1.145-0.688,2.518-2.519,2.518-2.519s4.807-0.687,6.181-0.457c1.374,0.229,3.434,2.747,4.578,2.976c0.603,0.12,5.104-2.282,9.613-2.29c4.052-0.006,8.614,0.567,9.156,0.458c1.146-0.228,2.747-0.915,4.121-1.144c1.373-0.229,6.182,0.457,6.182,0.457s1.373,1.831,2.517,2.519c1.146,0.687,3.434-0.688,3.434-0.688s1.146-2.288,2.976-3.434c1.832-1.145,4.58,0.687,4.58,0.687s0.228,2.747,0.228,4.808c1.144,1.145,4.808-0.687,4.808-0.687s0.457-1.602,0.457-2.977c1.146,0,5.264-0.457,6.182-1.601C295.096,373.322,289.372,370.117,289.372,370.117z"></path><path style="fill:#6E6E6E;stroke:#000000;stroke-linecap:round;stroke-linejoin:round;" d="M216.58,376.526c0,0,1.602-4.578,5.036-6.41"></path><path style="fill:#6E6E6E;stroke:#000000;stroke-linecap:round;stroke-linejoin:round;" d="M230.085,376.755c0,0,1.145-3.662,2.976-4.807"></path><path style="fill:#6E6E6E;stroke:#000000;stroke-linecap:round;stroke-linejoin:round;" d="M283.878,376.526c0,0-1.602-4.578-5.036-6.409"></path><path style="fill:#6E6E6E;stroke:#000000;stroke-linecap:round;stroke-linejoin:round;" d="M270.372,376.755c0,0-1.144-3.662-2.976-4.807"></path></g><g><path style="fill:#6E6E6E;stroke:#000000;stroke-linecap:round;stroke-linejoin:round;" d="M288.686,366.226c-0.229-1.145-3.893-5.494-3.893-5.494c-3.891-2.289-34.564-3.204-34.564-3.204s-30.673,0.915-34.565,3.204c0,0-3.663,4.35-3.892,5.494c-2.06,0.915-5.494,2.518-5.494,2.518s0.687,3.892,3.663,3.892c1.062,0.133,4.83,0.883,6.181,0c0.98-0.64-0.229-2.975-0.229-2.975s3.663,0,5.723,0.456c2.06,0.459,3.663,2.29,4.808,2.29c-0.458-1.831,0-3.205,0-3.205s7.554-1.145,10.758,0.229c0.917,1.374-1.602,3.205-1.602,3.205s5.265,1.145,7.096,0.229c1.831-0.915,3.434-2.288,7.554-2.976c4.121,0.688,5.722,2.061,7.554,2.976c1.83,0.916,7.097-0.229,7.097-0.229s-2.52-1.831-1.604-3.205c3.206-1.373,10.761-0.229,10.761-0.229s0.457,1.374,0,3.205c1.144,0,2.745-1.831,4.806-2.289c2.061-0.457,5.723-0.457,5.723-0.457s-1.209,2.335-0.228,2.975c1.35,0.883,5.119,0.133,6.179,0c2.976,0,3.662-3.892,3.662-3.892S290.746,367.141,288.686,366.226z"></path><path style="fill:#6E6E6E;stroke:#000000;stroke-linecap:round;stroke-linejoin:round;" d="M274.036,369.201c0,0-0.917-2.976-2.747-5.036"></path><path style="fill:#6E6E6E;stroke:#000000;stroke-linecap:round;stroke-linejoin:round;" d="M226.423,369.201c0,0,0.915-2.976,2.746-5.036"></path></g><path style="fill:#6E6E6E;stroke:#000000;stroke-linecap:round;stroke-linejoin:round;" d="M285.252,355.925c0,0-8.754,1.408-35.419,1.408c-26.666,0-33.711-1.408-33.711-1.408c-1.145,1.603-0.458,5.493-0.458,5.493S221.832,363,249.833,363s35.877-1.582,35.877-1.582S286.397,357.527,285.252,355.925z"></path></g></g></svg>