<svg xmlns="http://www.w3.org/2000/svg" width="500" height="500" version="1.1"><g id="x017"><g><path style="fill:#D40000;" d="M305.359,367.64c-1.482-1.89-4.74-3.587-6.46-4.391c0.577-0.52,1.164-1.131,1.646-1.808c-1.696-2.223-5.524-3.827-7.399-4.515c0.175-0.202,0.349-0.405,0.522-0.604c-1.394-2.6-6.075-5.041-7.28-5.639c0.06-0.041,0.119-0.087,0.175-0.136c-1.146-3.379-4.815-5.634-4.815-5.634s-0.339,0.027-0.944,0.072c0.35-0.145,0.666-0.294,0.944-0.447c-0.687-2.254-1.145-2.818-1.145-2.818s-10.086,3.381-30.488,3.381c-20.401,0-30.488-3.381-30.488-3.381s-0.457,0.564-1.146,2.818c0.279,0.153,0.596,0.303,0.945,0.447c-0.606-0.045-0.945-0.072-0.945-0.072s-3.667,2.255-4.813,5.634c0.054,0.049,0.114,0.095,0.173,0.136c-1.205,0.598-5.886,3.039-7.28,5.639c0.193,0.221,0.385,0.442,0.578,0.668c-1.93,0.717-5.58,2.295-7.225,4.45c0.44,0.616,0.962,1.176,1.495,1.664c-1.6,0.733-5.191,2.524-6.768,4.534c1.92,1.679,4.131,3.125,5.703,4.075c-0.664,0.92-1.232,1.813-1.576,2.565c1.833,1.71,4.126,2.78,5.501,2.994c1.375,0.214,2.98,1.709,3.667,2.137s2.751,3.422,8.711,4.064c1.146-0.214,1.146-0.214,1.146-0.214l2.521,0.424l1.834,1.498c0,0,5.501,2.353,11.92,1.496c0.457-0.639,0.457-0.639,0.457-0.639l1.834,0.21c1.146,1.499,3.897,2.569,10.086,2.142c1.146-0.856,3.668-0.856,3.668-0.856s2.522,0,3.667,0.856c6.189,0.428,8.94-0.643,10.085-2.142l1.835-0.21c0,0,0,0,0.458,0.639c6.419,0.856,11.921-1.496,11.921-1.496l1.834-1.498l2.521-0.424c0,0,0,0,1.146,0.214c5.96-0.643,8.022-3.637,8.71-4.064c0.688-0.428,2.293-1.923,3.669-2.137c1.375-0.214,3.666-1.285,5.501-2.994c-0.354-0.773-0.954-1.704-1.646-2.664C301.374,370.667,303.502,369.262,305.359,367.64z M292.843,358.192c-0.183-0.124-0.357-0.232-0.519-0.333c0.079-0.087,0.157-0.174,0.234-0.264L292.843,358.192z M207.905,357.859c-0.061,0.036-0.125,0.079-0.189,0.119l0.105-0.214C207.85,357.795,207.877,357.828,207.905,357.859z"></path><g><path style="fill:none;" d="M292.324,357.859c0.155,0.098,0.325,0.203,0.502,0.322c0.005,0.004,0.011,0.008,0.017,0.011l-0.009-0.019l-0.275-0.578C292.481,357.686,292.403,357.772,292.324,357.859z"></path><path style="fill:none;" d="M207.716,357.979c0.064-0.04,0.128-0.083,0.189-0.119c-0.028-0.031-0.055-0.064-0.083-0.095L207.716,357.979z"></path><path style="fill:#6E6E6E;" d="M285.915,363.843l6.911-5.661c-0.177-0.119-0.347-0.225-0.502-0.322c0.079-0.087,0.157-0.174,0.234-0.264l0.275,0.578l1.136-0.93c-0.301-0.122-0.579-0.227-0.824-0.317c0.175-0.202,0.349-0.405,0.522-0.604c-1.394-2.6-6.075-5.041-7.28-5.639c0.06-0.041,0.119-0.087,0.175-0.136c-0.317-0.936-0.831-1.779-1.403-2.52l-9.272,7.598L285.915,363.843z"></path><polygon style="fill:#6E6E6E;" points="267.215,362.731 257.186,370.948 267.215,379.165 277.244,370.948 273.916,368.223 "></polygon><path style="fill:#6E6E6E;" d="M208.666,380.06c1.12,1.037,3.393,2.922,7.981,3.416c0.446-0.083,0.717-0.134,0.884-0.166l-6.417-5.256L208.666,380.06z"></path><path style="fill:#6E6E6E;" d="M276.558,385.718c0.965-0.296,1.523-0.534,1.523-0.534l1.834-1.498l2.521-0.424c0,0,0,0,1.146,0.214c2.997-0.324,5.008-1.24,6.354-2.128l-4.021-3.294L276.558,385.718z"></path><path style="fill:#6E6E6E;" d="M273.569,343.316c-2.832,0.489-6.521,0.99-11.079,1.336l4.726,3.87L273.569,343.316z"></path><path style="fill:#6E6E6E;" d="M255.215,383.543l-6.701-5.489l-10.028,8.216l2.497,2.045c1.429,0.188,3.217,0.233,5.465,0.078c1.146-0.856,3.668-0.856,3.668-0.856s2.522,0,3.667,0.856c0.736,0.05,1.419,0.079,2.061,0.09l2.7-2.213L255.215,383.543z"></path><path style="fill:#6E6E6E;" d="M234.844,344.402c-5.806-0.565-9.942-1.357-12.421-1.936l7.391,6.056L234.844,344.402z"></path><path style="fill:#6E6E6E;" d="M221.143,355.627l-7.153-5.86c-0.119,0.255-0.231,0.514-0.322,0.782c0.054,0.049,0.114,0.095,0.173,0.136c-1.205,0.598-5.886,3.039-7.28,5.639c0.193,0.221,0.385,0.442,0.578,0.668c-0.764,0.283-1.799,0.705-2.873,1.241l6.848,5.61L221.143,355.627z M207.716,357.979l0.105-0.214c0.028,0.03,0.055,0.063,0.083,0.095C207.844,357.896,207.78,357.938,207.716,357.979z"></path><polygon style="fill:#6E6E6E;" points="229.813,362.731 219.785,370.948 229.814,379.165 237.141,373.163 239.843,370.948 "></polygon><polygon style="fill:#6E6E6E;" points="252.843,360.297 258.543,355.627 248.514,347.41 238.485,355.627 248.514,363.843 "></polygon><path style="fill:#6E6E6E;" d="M196.394,365.993c-0.685,0.518-1.302,1.073-1.752,1.646c1.92,1.679,4.131,3.125,5.703,4.075c-0.509,0.705-0.959,1.394-1.297,2.016l3.396-2.782L196.394,365.993z"></path><path style="fill:#6E6E6E;" d="M300.046,375.422c0.486-0.34,0.965-0.722,1.416-1.142c-0.354-0.773-0.954-1.704-1.646-2.664c1.558-0.949,3.686-2.354,5.543-3.977c-0.79-1.007-2.083-1.957-3.379-2.749l-7.395,6.058L300.046,375.422z"></path><path style="fill:#505050;" d="M288.919,375.592l-3.004,2.462l4.021,3.294c1.331-0.876,2.015-1.724,2.355-1.937c0.688-0.428,2.293-1.923,3.669-2.137c1.035-0.162,2.595-0.811,4.085-1.853l-5.46-4.474L288.919,375.592z"></path><path style="fill:#505050;" d="M277.244,370.948l-10.029,8.217l8.345,6.838c0.368-0.097,0.703-0.193,0.998-0.285l9.357-7.664L277.244,370.948z"></path><polygon style="fill:#505050;" points="270.218,360.271 267.215,362.731 273.916,368.223 277.244,370.948 285.915,363.843 275.887,355.627 "></polygon><path style="fill:#505050;" d="M258.543,355.627l8.673-7.104l-4.726-3.87c-3.271,0.248-6.986,0.416-11.151,0.444l-2.825,2.313L258.543,355.627z"></path><path style="fill:#505050;" d="M255.843,388.482c2.055,0.032,3.646-0.133,4.868-0.437l-2.168-1.776L255.843,388.482z"></path><polygon style="fill:#505050;" points="229.813,362.731 239.843,370.948 248.514,363.843 238.485,355.627 236.588,357.182 "></polygon><polygon style="fill:#505050;" points="257.186,370.948 261.229,367.636 267.215,362.731 258.543,355.627 248.514,363.843 "></polygon><path style="fill:#505050;" d="M202.442,370.948l-3.396,2.782c-0.104,0.189-0.199,0.374-0.279,0.55c1.833,1.71,4.126,2.78,5.501,2.994c1.375,0.214,2.98,1.709,3.667,2.137c0.158,0.1,0.395,0.337,0.729,0.648l2.448-2.006L202.442,370.948z"></path><path style="fill:#505050;" d="M237.385,387.17c0.809,0.522,1.963,0.93,3.597,1.145l-2.497-2.045L237.385,387.17z"></path><polygon style="fill:#505050;" points="221.143,355.627 211.114,363.843 219.785,370.948 229.813,362.731 "></polygon><path style="fill:#505050;" d="M229.814,348.522l-7.391-6.056c-1.862-0.432-2.797-0.745-2.797-0.745s-0.457,0.564-1.146,2.818c0.279,0.153,0.596,0.303,0.945,0.447c-0.606-0.045-0.945-0.072-0.945-0.072s-3.103,1.912-4.491,4.852l7.153,5.86L229.814,348.522z"></path><polygon style="fill:#505050;" points="229.814,379.165 238.485,386.27 248.514,378.054 239.843,370.948 "></polygon><polygon style="fill:#505050;" points="255.293,372.5 248.514,378.054 255.215,383.543 258.543,386.27 267.215,379.165 257.186,370.948 "></polygon><path style="fill:#505050;" d="M300.545,361.441c-1.476-1.934-4.561-3.397-6.575-4.197l-1.136,0.93l0.009,0.019c-0.006-0.003-0.012-0.007-0.017-0.011l-6.911,5.661l8.671,7.105l7.395-6.058c-1.139-0.694-2.278-1.267-3.081-1.642C299.477,362.729,300.063,362.118,300.545,361.441z"></path><path style="fill:#505050;" d="M211.114,363.843l-6.848-5.61c-1.634,0.818-3.358,1.908-4.352,3.209c0.44,0.616,0.962,1.176,1.495,1.664c-1.144,0.523-3.3,1.59-5.015,2.888l6.048,4.955L211.114,363.843z"></path><path style="fill:#505050;" d="M275.887,355.627l9.272-7.598c-1.494-1.931-3.412-3.114-3.412-3.114s-0.339,0.027-0.944,0.072c0.35-0.145,0.666-0.294,0.944-0.447c-0.687-2.254-1.145-2.818-1.145-2.818s-2.342,0.783-7.033,1.595l-6.354,5.206L275.887,355.627z"></path><path style="fill:#505050;" d="M238.485,355.627l10.028-8.217l-2.888-2.365c-4.076-0.103-7.67-0.34-10.782-0.643l-5.03,4.12L238.485,355.627z"></path><path style="fill:#505050;" d="M219.785,370.948l-2.455,2.013l-6.216,5.093l6.417,5.256c0.261-0.048,0.262-0.048,0.262-0.048l2.521,0.424l1.834,1.498c0,0,0.075,0.033,0.212,0.086l7.453-6.104L219.785,370.948z"></path><path style="fill:#323232;" d="M251.339,345.097c-0.407,0.002-0.81,0.006-1.224,0.006c-1.559,0-3.05-0.021-4.489-0.058l2.888,2.365L251.339,345.097z"></path><polygon style="fill:#323232;" points="270.218,360.271 275.887,355.627 267.216,348.522 258.543,355.627 267.215,362.731 "></polygon><polygon style="fill:#323232;" points="285.915,378.054 288.919,375.592 294.586,370.948 285.915,363.843 277.244,370.948 "></polygon><polygon style="fill:#323232;" points="236.588,357.182 238.485,355.627 229.814,348.522 221.143,355.627 229.813,362.731 "></polygon><polygon style="fill:#323232;" points="257.186,370.948 248.514,363.843 239.843,370.948 248.514,378.054 255.293,372.5 "></polygon><path style="fill:#323232;" d="M258.543,386.27l2.168,1.776c1.608-0.401,2.583-1.044,3.156-1.795l1.835-0.21c0,0,0,0,0.458,0.639c3.753,0.499,7.19-0.096,9.399-0.677l-8.345-6.838L258.543,386.27z"></path><polygon style="fill:#323232;" points="202.442,370.948 211.114,378.054 217.33,372.961 219.785,370.948 211.114,363.843 "></polygon><path style="fill:#323232;" d="M229.814,379.165l-7.453,6.104c1.065,0.413,6.025,2.168,11.708,1.41c0.457-0.639,0.457-0.639,0.457-0.639l1.834,0.21c0.253,0.332,0.593,0.641,1.024,0.919l1.1-0.9L229.814,379.165z"></path></g><g><g><g><g><line style="opacity:0.8;fill:none;stroke:#FFFFFF;stroke-width:2.5;" x1="293.295" y1="378.672" x2="252.35" y2="345.125"></line><line style="opacity:0.8;fill:none;stroke:#FFFFFF;stroke-width:2.5;" x1="296.35" y1="377.136" x2="257.179" y2="345.044"></line></g><g><line style="opacity:0.8;fill:none;stroke:#FFFFFF;stroke-width:2.5;" x1="264.499" y1="386.067" x2="216.418" y2="346.674"></line><line style="opacity:0.8;fill:none;stroke:#FFFFFF;stroke-width:2.5;" x1="270.604" y1="387.029" x2="219.6" y2="345.242"></line></g><g><line style="opacity:0.8;fill:none;stroke:#FFFFFF;stroke-width:2.5;" x1="227.091" y1="386.407" x2="199.829" y2="364.07"></line><line style="opacity:0.8;fill:none;stroke:#FFFFFF;stroke-width:2.5;" x1="232.637" y1="386.912" x2="200.688" y2="360.736"></line></g></g><g><g><line style="opacity:0.8;fill:none;stroke:#FFFFFF;stroke-width:2.5;" x1="245.126" y1="345.102" x2="205.372" y2="377.673"></line><line style="opacity:0.8;fill:none;stroke:#FFFFFF;stroke-width:2.5;" x1="240.427" y1="344.913" x2="202.018" y2="376.383"></line></g><g><line style="opacity:0.8;fill:none;stroke:#FFFFFF;stroke-width:2.5;" x1="282.319" y1="345.617" x2="231.86" y2="386.958"></line><line style="opacity:0.8;fill:none;stroke:#FFFFFF;stroke-width:2.5;" x1="280.971" y1="342.682" x2="227.634" y2="386.383"></line></g><g><line style="opacity:0.8;fill:none;stroke:#FFFFFF;stroke-width:2.5;" x1="300.285" y1="361.886" x2="269.983" y2="386.712"></line><line style="opacity:0.8;fill:none;stroke:#FFFFFF;stroke-width:2.5;" x1="298.208" y1="359.55" x2="265.743" y2="386.147"></line></g></g><path style="opacity:0.8;fill:none;stroke:#FFFFFF;" d="M276.46,364.879"></path></g><g><line style="opacity:0.8;fill:none;stroke:#000000;" x1="215.341" y1="383.308" x2="262.494" y2="344.677"></line><line style="opacity:0.8;fill:none;stroke:#000000;" x1="195.584" y1="368.413" x2="226.288" y2="343.258"></line><line style="opacity:0.8;fill:none;stroke:#000000;" x1="246.945" y1="388.215" x2="289.969" y2="352.965"></line><line style="opacity:0.8;fill:none;stroke:#000000;" x1="235.56" y1="344.516" x2="282.895" y2="383.296"></line><line style="opacity:0.8;fill:none;stroke:#000000;" x1="272.408" y1="343.623" x2="303.455" y2="369.06"></line><line style="opacity:0.8;fill:none;stroke:#000000;" x1="209.154" y1="353.681" x2="250.532" y2="387.582"></line></g></g><g><g><g id="bottomsXMLID_1_"><g><g id="bottomsXMLID_10_"><g><path style="fill:none;stroke:#000000;" d="M298.899,363.249c1.72,0.804,4.978,2.501,6.46,4.391c-1.857,1.622-3.985,3.027-5.543,3.977"></path><path style="fill:none;stroke:#000000;" d="M297.954,362.824c0.185,0.078,0.514,0.222,0.94,0.425"></path><line style="fill:none;stroke:#000000;" x1="292.843" y1="358.192" x2="292.559" y2="357.596"></line><path style="fill:none;stroke:#000000;" d="M293.146,356.927c1.875,0.688,5.703,2.292,7.399,4.515c-0.481,0.677-1.068,1.288-1.646,1.808h-0.005c-0.129,0.116-0.257,0.226-0.381,0.33"></path><path style="fill:none;stroke:#000000;" d="M202.293,362.798l-0.086-0.041c0,0-0.304,0.123-0.798,0.349c-1.6,0.733-5.191,2.524-6.768,4.534c1.92,1.679,4.131,3.125,5.703,4.075"></path><line style="fill:none;stroke:#000000;" x1="207.716" y1="357.979" x2="207.822" y2="357.765"></line><path style="fill:none;stroke:#000000;" d="M207.139,356.991c-1.93,0.717-5.58,2.295-7.225,4.45c0.44,0.616,0.962,1.176,1.495,1.664c0.128,0.124,0.261,0.241,0.394,0.354"></path><path style="fill:none;stroke:#000000;stroke-linecap:round;stroke-linejoin:round;" d="M204.067,367.171c-1.009,1.129-2.517,2.88-3.724,4.544c-0.664,0.92-1.232,1.813-1.576,2.565c1.833,1.71,4.126,2.78,5.501,2.994c1.375,0.214,2.98,1.709,3.667,2.137s2.751,3.422,8.711,4.064c1.146-0.214,1.146-0.214,1.146-0.214l2.521,0.424l1.834,1.498c0,0,5.501,2.353,11.92,1.496c0.457-0.639,0.457-0.639,0.457-0.639l1.834,0.21c1.146,1.499,3.897,2.569,10.086,2.142c1.146-0.856,3.668-0.856,3.668-0.856s2.522,0,3.667,0.856c6.189,0.428,8.94-0.643,10.085-2.142l1.835-0.21c0,0,0,0,0.458,0.639c6.419,0.856,11.921-1.496,11.921-1.496l1.834-1.498l2.521-0.424c0,0,0,0,1.146,0.214c5.96-0.643,8.022-3.637,8.71-4.064c0.688-0.428,2.293-1.923,3.669-2.137c1.375-0.214,3.666-1.285,5.501-2.994c-0.354-0.773-0.954-1.704-1.646-2.664c-1.197-1.633-2.664-3.338-3.654-4.445"></path><path style="fill:none;stroke:#000000;stroke-linecap:round;stroke-linejoin:round;" d="M207.905,357.859c-0.061,0.036-0.125,0.079-0.189,0.119c-1.413,0.901-3.649,2.546-5.423,4.819c-0.174,0.214-0.335,0.437-0.491,0.662c-0.184,0.251-0.353,0.506-0.513,0.773c0.385,0.803,1.448,1.907,2.778,2.938c0.087,0.066,0.179,0.135,0.271,0.207c1.801,1.344,4.012,2.511,5.662,2.628c2.98,0.215,4.355,0,5.273,0.425c0.917,0.428,1.375,2.355,1.375,2.355s1.833,1.708,6.189,1.923c1.146-0.429,1.146-0.429,1.146-0.429l1.605,0.214v1.281c0,0,5.272,3.208,10.315,1.713c0.917-0.644,1.604-1.071,1.604-1.071l3.209,0.216c0,0,0.229,2.992,9.398,2.992c9.168,0,9.399-2.992,9.399-2.992l3.209-0.216c0,0,0.687,0.428,1.604,1.071c5.043,1.495,10.315-1.713,10.315-1.713v-1.281l1.604-0.214c0,0,0,0,1.147,0.429c4.354-0.215,6.188-1.923,6.188-1.923s0.458-1.928,1.375-2.355c0.918-0.425,2.292-0.21,5.271-0.425c1.596-0.112,3.714-1.206,5.479-2.494c0.156-0.112,0.308-0.226,0.454-0.341c1.329-1.03,2.394-2.135,2.778-2.938c-0.138-0.223-0.279-0.44-0.427-0.654c-0.179-0.26-0.362-0.51-0.56-0.755c-1.642-2.114-3.689-3.688-5.111-4.632c-0.183-0.124-0.357-0.232-0.519-0.333"></path><path style="fill:none;stroke:#000000;stroke-linecap:round;stroke-linejoin:round;" d="M213.841,350.685c-1.205,0.598-5.886,3.039-7.28,5.639c0.193,0.221,0.385,0.442,0.578,0.668c0.224,0.259,0.454,0.519,0.683,0.773c0.028,0.03,0.055,0.063,0.083,0.095c2.406,2.674,4.982,5.088,6.908,5.088c2.292,0,5.96-0.213,7.793,0.643c0,0.644,0,1.71,0,1.71s4.585,3.207,9.398,2.141c0.229-0.642,0.688-1.284,0.688-1.284s6.188-1.923,10.314,1.071c0,1.065,0,1.065,0,1.065s0.23,1.07,7.107,1.07c6.877,0,7.106-1.07,7.106-1.07s0,0,0-1.065c4.126-2.994,10.315-1.071,10.315-1.071s0.459,0.643,0.688,1.284c4.813,1.066,9.398-2.141,9.398-2.141s0-1.066,0-1.71c1.834-0.855,5.501-0.643,7.794-0.643c1.925,0,4.502-2.414,6.908-5.088c0.079-0.087,0.157-0.174,0.234-0.264c0.196-0.222,0.395-0.446,0.587-0.669c0.175-0.202,0.349-0.405,0.522-0.604c-1.394-2.6-6.075-5.041-7.28-5.639"></path><path style="fill:none;stroke:#000000;stroke-linecap:round;stroke-linejoin:round;" d="M219.426,344.987c-0.606-0.045-0.945-0.072-0.945-0.072s-3.667,2.255-4.813,5.634c0.054,0.049,0.114,0.095,0.173,0.136c6.649,5.232,35.224,6.216,36.246,6.249c0.019,0,0.028,0,0.028,0s29.505-0.923,36.273-6.249c0.06-0.041,0.119-0.087,0.175-0.136c-1.146-3.379-4.815-5.634-4.815-5.634s-0.339,0.027-0.944,0.072"></path></g></g></g></g></g></g><path style="fill:none;stroke:#000000;stroke-linecap:round;stroke-linejoin:round;" d="M232.005,366.889c0,0,1.605-4.695,3.668-6.762"></path><path style="fill:none;stroke:#000000;stroke-linecap:round;stroke-linejoin:round;" d="M275.101,358.062c0,0,2.063,4.484,2.521,5.528"></path><path style="fill:none;stroke:#000000;stroke-linecap:round;stroke-linejoin:round;" d="M249.427,357.122c0,0-1.833,5.071-1.833,6.387"></path><path style="fill:none;stroke:#000000;stroke-linecap:round;stroke-linejoin:round;" d="M222.607,354.681c0,0-1.833,2.253-2.522,3.944"></path><path style="fill:none;stroke:#000000;stroke-linecap:round;stroke-linejoin:round;" d="M267.536,367.076c0,0,3.897,5.071,4.126,6.572"></path><path style="fill:none;stroke:#000000;stroke-linecap:round;stroke-linejoin:round;" d="M223.065,365.762c0,0-2.292,3.38-2.98,4.32"></path><path style="fill:none;stroke:#000000;stroke-linecap:round;stroke-linejoin:round;" d="M221.002,374.589c-0.917,0.188-3.208,4.131-3.667,5.445"></path><path style="fill:none;stroke:#000000;stroke-linecap:round;stroke-linejoin:round;" d="M282.436,374.024c0,0,2.292,3.758,2.521,5.071"></path><path style="fill:none;stroke:#000000;stroke-linecap:round;stroke-linejoin:round;" d="M258.597,377.406c0,0,0.917,4.507,1.146,5.633"></path><path style="fill:none;stroke:#000000;stroke-linecap:round;stroke-linejoin:round;" d="M235.902,377.488c0,0-1.376,4.612-1.604,5.551"></path><path style="fill:none;stroke:#000000;stroke-linecap:round;stroke-linejoin:round;" d="M265.702,356.185c0,0,1.604,3.566,1.834,5.07"></path></g><path style="fill:#505050;stroke:#000000;stroke-linecap:round;stroke-linejoin:round;" d="M280.688,345.102c0.35-0.176,0.666-0.358,0.945-0.546c-0.687-2.751-1.146-3.439-1.146-3.439s-10.086,4.126-30.487,4.126s-30.488-4.126-30.488-4.126s-0.458,0.688-1.146,3.439c0.279,0.188,0.596,0.37,0.945,0.546c7.628,3.868,30.689,4.496,30.689,4.496S273.062,348.97,280.688,345.102z"></path></g></svg>