<svg xmlns="http://www.w3.org/2000/svg" width="500" height="500" version="1.1"><g id="x018"><g><g><g><path style="fill:#6E6E6E;stroke:#000000;stroke-linecap:round;stroke-linejoin:round;" d="M294.244,370.7c0,0,0.852-1.364,0.285-2.728c-0.568-1.363-14.18-6.59-14.18-6.59L250,363.655l-30.347-2.272c0,0-13.614,5.227-14.182,6.59s0.283,2.728,0.283,2.728l-4.253,3.408c0,0,4.253,7.727,14.181,9.09c4.254-1.363,6.524-3.636,6.524-3.636s-0.567,4.545,0.85,5.681c1.419,1.136,5.957,2.272,9.927,2.272c3.971,0,0.567-4.772,0.851-5.908c4.539-0.228,7.941,2.272,8.226,3.181c0.283,0.91-1.135,5.228,7.941,5.228s7.658-4.317,7.941-5.228c0.285-0.908,3.688-3.408,8.227-3.181c0.283,1.136-3.121,5.908,0.852,5.908c3.97,0,8.507-1.137,9.927-2.272c1.418-1.136,0.85-5.681,0.85-5.681s2.27,2.272,6.522,3.636c9.927-1.363,14.183-9.09,14.183-9.09L294.244,370.7z"></path><path style="fill:none;stroke:#000000;stroke-linecap:round;stroke-linejoin:round;" d="M267.159,379.903c0,0-3.402-7.727-11.06-16.589"></path><path style="fill:#6E6E6E;stroke:#000000;stroke-linecap:round;stroke-linejoin:round;" d="M240.074,382.972c0,0-3.688,4.544-6.241,4.544c-0.283-4.317-0.566-7.726-0.566-7.726S238.088,380.698,240.074,382.972z"></path><path style="fill:none;stroke:#000000;stroke-linecap:round;stroke-linejoin:round;" d="M205.754,370.7c0,0,8.509-5.455,16.451-7.727"></path><path style="fill:none;stroke:#000000;stroke-linecap:round;stroke-linejoin:round;" d="M214.831,382.517c0,0-2.411-3.182-0.993-4.317c1.419-1.137,7.233-0.683,8.368,1.363"></path><path style="fill:none;stroke:#000000;stroke-linecap:round;stroke-linejoin:round;" d="M213.413,378.653c0,0,4.254-9.09,19.57-14.771"></path><path style="fill:none;stroke:#000000;stroke-linecap:round;stroke-linejoin:round;" d="M233.408,379.903c0,0,3.403-7.727,11.062-16.589"></path><path style="fill:#6E6E6E;stroke:#000000;stroke-linecap:round;stroke-linejoin:round;" d="M260.067,382.972c0,0,3.689,4.544,6.24,4.544c0.285-4.317,0.568-7.726,0.568-7.726S262.054,380.698,260.067,382.972z"></path><path style="fill:none;stroke:#000000;stroke-linecap:round;stroke-linejoin:round;" d="M294.387,370.7c0,0-8.509-5.455-16.449-7.727"></path><path style="fill:none;stroke:#000000;stroke-linecap:round;stroke-linejoin:round;" d="M285.312,382.517c0,0,2.41-3.182,0.992-4.317c-1.418-1.137-7.231-0.683-8.366,1.363"></path><path style="fill:none;stroke:#000000;stroke-linecap:round;stroke-linejoin:round;" d="M286.729,378.653c0,0-4.254-9.09-19.57-14.771"></path></g><g><path style="fill:#FFFFFF;stroke:#000000;stroke-linecap:round;stroke-linejoin:round;" d="M290.94,365.742l-40.832,0.867l-40.833-0.867c0,0-3.311,1.843-3.8,2.709c0.858,2.168,3.064,2.927,3.678,4.228c0.613,1.302,4.66,5.963,11.649,6.721c1.104-0.65,2.698-1.843,2.698-1.843s0.613,1.843,3.188,2.818c2.575,0.976,6.499,0.108,8.092,0.868c1.594,0.759,5.395,4.227,8.951,3.793l1.104-2.059c0,0,4.905,2.817,9.934,2.275c5.027-0.541,7.479-3.577,9.073-4.335c1.593-0.759,7.111,0.433,9.687-0.543c2.574-0.976,3.187-2.818,3.187-2.818s1.595,1.192,2.699,1.843c6.989-0.758,11.036-5.419,11.648-6.721c0.614-1.301,2.819-2.06,3.679-4.228C294.253,367.585,290.94,365.742,290.94,365.742z"></path><path style="fill:none;stroke:#000000;stroke-linecap:round;stroke-linejoin:round;" d="M217.738,376.473c0,0,2.206-3.144,6.622-4.769"></path><path style="fill:none;stroke:#000000;stroke-linecap:round;stroke-linejoin:round;" d="M241.158,381.134c0,0,0.49-1.734,3.678-3.902"></path><path style="fill:none;stroke:#000000;stroke-linecap:round;stroke-linejoin:round;" d="M276.104,378.532c0,0,2.821-4.769,4.659-3.686c1.84,1.084-1.348,4.553-1.348,4.553"></path><path style="fill:none;stroke:#000000;stroke-linecap:round;stroke-linejoin:round;" d="M220.803,379.399c0,0-3.433-2.492-3.065-3.035c0.368-0.541,4.659-0.541,6.375,1.952"></path><path style="fill:none;stroke:#000000;stroke-linecap:round;stroke-linejoin:round;" d="M246.676,383.952c0,0-4.66-3.035-5.518-2.818c-0.859,0.217,0.613,2.818,2.084,3.47"></path></g><g><path style="fill:#6E6E6E;stroke:#000000;stroke-linecap:round;stroke-linejoin:round;" d="M290.197,362.772c0,0,0.773-1.239,0.258-2.479c-0.515-1.238-12.884-5.986-12.884-5.986L250,356.372l-27.571-2.064c0,0-12.369,4.748-12.884,5.986c-0.515,1.239,0.258,2.479,0.258,2.479l-3.866,3.097c0,0,3.866,7.02,12.884,8.258c3.866-1.238,5.928-3.304,5.928-3.304s-0.516,4.13,0.772,5.162c1.288,1.031,5.411,2.064,9.019,2.064c3.607,0,0.515-4.336,0.772-5.368c4.124-0.206,7.216,2.064,7.473,2.891c0.258,0.825-1.03,4.748,7.215,4.748c8.247,0,6.958-3.923,7.214-4.748c0.259-0.826,3.35-3.097,7.473-2.891c0.259,1.032-2.834,5.368,0.773,5.368c3.608,0,7.731-1.033,9.019-2.064c1.288-1.032,0.773-5.162,0.773-5.162s2.061,2.065,5.927,3.304c9.019-1.238,12.883-8.258,12.883-8.258L290.197,362.772z"></path><path style="fill:none;stroke:#000000;stroke-linecap:round;stroke-linejoin:round;" d="M265.59,371.134c0,0-3.093-7.02-10.049-15.071"></path><path style="fill:#6E6E6E;stroke:#000000;stroke-linecap:round;stroke-linejoin:round;" d="M240.981,373.921c0,0-3.35,4.129-5.669,4.129c-0.257-3.923-0.515-7.02-0.515-7.02S239.178,371.855,240.981,373.921z"></path><path style="fill:none;stroke:#000000;stroke-linecap:round;stroke-linejoin:round;" d="M209.803,362.772c0,0,7.73-4.956,14.946-7.02"></path><path style="fill:none;stroke:#000000;stroke-linecap:round;stroke-linejoin:round;" d="M218.049,373.508c0,0-2.191-2.891-0.903-3.923c1.289-1.032,6.571-0.62,7.603,1.238"></path><path style="fill:none;stroke:#000000;stroke-linecap:round;stroke-linejoin:round;" d="M216.759,369.998c0,0,3.865-8.258,17.78-13.42"></path><path style="fill:none;stroke:#000000;stroke-linecap:round;stroke-linejoin:round;" d="M234.926,371.134c0,0,3.092-7.02,10.049-15.071"></path><path style="fill:#6E6E6E;stroke:#000000;stroke-linecap:round;stroke-linejoin:round;" d="M259.147,373.921c0,0,3.35,4.129,5.67,4.129c0.257-3.923,0.514-7.02,0.514-7.02S260.951,371.855,259.147,373.921z"></path><path style="fill:none;stroke:#000000;stroke-linecap:round;stroke-linejoin:round;" d="M290.326,362.772c0,0-7.729-4.956-14.945-7.02"></path><path style="fill:none;stroke:#000000;stroke-linecap:round;stroke-linejoin:round;" d="M282.08,373.508c0,0,2.191-2.891,0.902-3.923c-1.288-1.032-6.569-0.62-7.602,1.238"></path><path style="fill:none;stroke:#000000;stroke-linecap:round;stroke-linejoin:round;" d="M283.369,369.998c0,0-3.865-8.258-17.779-13.42"></path></g><g><path style="fill:#FFFFFF;stroke:#000000;stroke-linecap:round;stroke-linejoin:round;" d="M286.414,355.646l-36.305,0.771l-36.306-0.771c0,0-2.944,1.639-3.38,2.41c0.763,1.928,2.725,2.603,3.271,3.759c0.544,1.156,4.142,5.301,10.356,5.976c0.981-0.578,2.399-1.639,2.399-1.639s0.545,1.639,2.835,2.506c2.29,0.868,5.779,0.097,7.196,0.771c1.417,0.675,4.796,3.759,7.958,3.373l0.981-1.831c0,0,4.362,2.506,8.832,2.024c4.47-0.482,6.651-3.181,8.066-3.855c1.418-0.675,6.326,0.386,8.614-0.482c2.289-0.867,2.835-2.506,2.835-2.506s1.418,1.061,2.398,1.639c6.216-0.675,9.813-4.819,10.358-5.976c0.544-1.156,2.507-1.831,3.27-3.759C289.358,357.285,286.414,355.646,286.414,355.646z"></path><path style="fill:none;stroke:#000000;stroke-linecap:round;stroke-linejoin:round;" d="M221.326,365.188c0,0,1.962-2.795,5.887-4.241"></path><path style="fill:none;stroke:#000000;stroke-linecap:round;stroke-linejoin:round;" d="M242.15,369.333c0,0,0.436-1.542,3.271-3.47"></path><path style="fill:none;stroke:#000000;stroke-linecap:round;stroke-linejoin:round;" d="M273.222,367.02c0,0,2.509-4.24,4.144-3.276c1.637,0.964-1.199,4.048-1.199,4.048"></path><path style="fill:none;stroke:#000000;stroke-linecap:round;stroke-linejoin:round;" d="M224.051,367.791c0,0-3.052-2.217-2.725-2.698c0.328-0.482,4.143-0.482,5.669,1.734"></path><path style="fill:none;stroke:#000000;stroke-linecap:round;stroke-linejoin:round;" d="M247.056,371.839c0,0-4.143-2.699-4.906-2.506s0.545,2.506,1.854,3.084"></path></g><g><path style="fill:#6E6E6E;stroke:#000000;stroke-linecap:round;stroke-linejoin:round;" d="M284.017,352.177c0,0,0.654-1.156,0.217-2.313c-0.437-1.157-10.901-3.591-10.901-3.591L250,348.201l-23.331-1.928c0,0-10.466,2.434-10.902,3.591c-0.437,1.156,0.217,2.313,0.217,2.313l-3.271,2.892c0,0,3.271,6.554,10.903,7.711c3.271-1.157,5.016-3.085,5.016-3.085s-0.437,3.855,0.654,4.819c1.089,0.964,4.579,1.928,7.631,1.928c3.054,0,0.436-4.048,0.655-5.012c3.488-0.193,6.105,1.928,6.323,2.698c0.218,0.771-0.873,4.434,6.105,4.434c6.977,0,5.887-3.662,6.106-4.434c0.219-0.771,2.835-2.892,6.324-2.698c0.217,0.964-2.4,5.012,0.654,5.012c3.053,0,6.541-0.964,7.632-1.928c1.09-0.964,0.654-4.819,0.654-4.819s1.743,1.928,5.015,3.085c7.632-1.157,10.903-7.711,10.903-7.711L284.017,352.177z"></path><path style="fill:none;stroke:#000000;stroke-linecap:round;stroke-linejoin:round;" d="M263.192,359.983c0,0-2.617-4.554-8.505-12.071"></path><path style="fill:#6E6E6E;stroke:#000000;stroke-linecap:round;stroke-linejoin:round;" d="M242.368,362.586c0,0-2.835,3.855-4.797,3.855c-0.219-3.662-0.436-6.554-0.436-6.554S240.842,360.658,242.368,362.586z"></path><path style="fill:none;stroke:#000000;stroke-linecap:round;stroke-linejoin:round;" d="M215.983,352.177c0,0,6.542-2.627,12.648-4.554"></path><path style="fill:none;stroke:#000000;stroke-linecap:round;stroke-linejoin:round;" d="M222.961,362.201c0,0-1.853-2.699-0.763-3.663c1.09-0.964,5.561-0.578,6.434,1.156"></path><path style="fill:none;stroke:#000000;stroke-linecap:round;stroke-linejoin:round;" d="M221.872,358.924c0,0,3.271-5.711,15.045-10.53"></path><path style="fill:none;stroke:#000000;stroke-linecap:round;stroke-linejoin:round;" d="M237.244,359.983c0,0,2.617-4.554,8.504-12.071"></path><path style="fill:#6E6E6E;stroke:#000000;stroke-linecap:round;stroke-linejoin:round;" d="M257.742,362.586c0,0,2.833,3.855,4.796,3.855c0.219-3.662,0.436-6.554,0.436-6.554S259.269,360.658,257.742,362.586z"></path><path style="fill:none;stroke:#000000;stroke-linecap:round;stroke-linejoin:round;" d="M284.125,352.177c0,0-6.541-2.627-12.646-4.554"></path><path style="fill:none;stroke:#000000;stroke-linecap:round;stroke-linejoin:round;" d="M277.148,362.201c0,0,1.854-2.699,0.763-3.663s-5.561-0.578-6.433,1.156"></path><path style="fill:none;stroke:#000000;stroke-linecap:round;stroke-linejoin:round;" d="M278.238,358.924c0,0-3.271-5.711-15.046-10.53"></path></g></g><path style="fill:#6E6E6E;stroke:#000000;stroke-linecap:round;stroke-linejoin:round;" d="M279.941,343.635c-2.519,1.426-15.529,2.613-29.942,2.613c-14.409,0-27.421-1.188-29.94-2.613c-0.56,2.376-1.56,4.515-1.56,4.515s7.437,2.139,31.5,2.139c24.065,0,31.5-2.139,31.5-2.139S280.5,346.011,279.941,343.635z"></path></g></g></svg>