<svg xmlns="http://www.w3.org/2000/svg" width="500" height="500" version="1.1"><g id="x019"><g><path style="opacity:0.8;fill:#FFFFFF;stroke:#000000;stroke-width:1.0266;stroke-linecap:round;stroke-linejoin:round;" d="M296.261,385.788c-0.202-1.059-0.534-17.567-15.916-31.6c-12.992,0-30.162,2.376-30.162,2.376s-0.08,0.051-0.229,0.14c-0.149-0.089-0.23-0.14-0.23-0.14s-17.167-2.376-30.159-2.376c-8.309,7.58-13.521,20.021-15.035,28.929c-2.705,3.964-1.462,7.127-1.285,8.255c1.501,0.772,3.958,1.544,7.232,1.103c0,0.993,1.364,1.985,2.183,2.206c0.819,0.222,6.278,0.222,7.915,0.109c0.819,0.553,1.228,1.214,1.774,1.435c0.546,0.22,6.686,1.433,9.144,0.771c0.817,0.332,5.73-0.219,7.776,0.222c2.048,0.439,3.905,0.992,10.453,0.992c0.079,0,0.153,0,0.23-0.001c0.077,0.001,0.152,0.001,0.229,0.001c6.551,0,8.408-0.553,10.456-0.992c2.045-0.44,6.959,0.11,7.777-0.222c2.456,0.661,8.597-0.552,9.143-0.771c0.546-0.221,0.956-0.882,1.775-1.435c1.637,0.112,7.095,0.112,7.914-0.109c0.817-0.221,2.183-1.213,2.183-2.206c3.276,0.441,5.731-0.33,7.232-1.103C296.862,390.109,297.952,388.664,296.261,385.788z"></path><path style="fill:#6E6E6E;stroke:#000000;stroke-width:1.0266;stroke-linecap:round;stroke-linejoin:round;" d="M279.467,349.168c-12.615,0-29.29,2.377-29.29,2.377s-0.078,0.051-0.223,0.139c-0.145-0.088-0.222-0.139-0.222-0.139s-16.673-2.377-29.29-2.377c-9.913,9.313-16.776,31.12-15.849,37.185c1.458,0.771,3.843,1.543,7.024,1.103c0,0.991,1.326,1.985,2.12,2.206c0.795,0.22,6.096,0.22,7.686,0.109c0.795,0.553,1.193,1.213,1.723,1.435c0.53,0.219,6.494,1.434,8.879,0.771c0.795,0.331,5.566-0.22,7.554,0.222c1.989,0.44,3.791,0.991,10.152,0.991c0.076,0,0.148,0,0.222-0.001c0.075,0.001,0.146,0.001,0.223,0.001c6.362,0,8.164-0.551,10.153-0.991c1.987-0.441,6.76,0.109,7.554-0.222c2.385,0.662,8.348-0.553,8.88-0.771c0.528-0.222,0.926-0.882,1.723-1.435c1.589,0.11,6.891,0.11,7.686-0.109c0.795-0.221,2.12-1.215,2.12-2.205c3.183,0.439,5.565-0.332,7.025-1.104C296.244,380.288,289.38,358.48,279.467,349.168z"></path><g><g style="opacity:0.5;"><path style="fill:#FFFFFF;stroke:#000000;stroke-width:1.0266;stroke-linecap:round;stroke-linejoin:round;" d="M281.942,349.762c-0.756,0-29.167,1.609-31.988,1.771c-2.819-0.162-31.231-1.771-31.987-1.771c0,0-10.592,13.476-13.056,23.137c2.916,2.868,5.566,4.522,7.819,4.411c-0.133,0.552,0.155,2.681,0.928,2.646c2.498-0.107,5.3,1.213,9.806,0.773c2.518,0.771,5.964,2.203,9.145,2.203c3.18,0,7.288-1.542,9.012-1.542c1.658,0,6.331,1.835,8.333,1.972c2.002-0.137,6.675-1.972,8.335-1.972c1.723,0,5.831,1.542,9.011,1.542c3.182,0,6.626-1.433,9.145-2.203c4.507,0.439,7.307-0.881,9.807-0.773c0.774,0.034,1.062-2.095,0.928-2.646c2.252,0.111,4.903-1.543,7.818-4.411C292.534,363.237,281.942,349.762,281.942,349.762z"></path><path style="fill:#DCDCDC;" d="M253.411,380.942c-0.353-0.729-4.069-9.1-1.014-14.26C256.322,372.105,253.411,380.942,253.411,380.942z"></path><path style="fill:#DCDCDC;" d="M274.992,379.254c-0.438-0.69-5.139-8.671-2.721-14.085C276.826,370.196,274.992,379.254,274.992,379.254z"></path><path style="fill:#DCDCDC;" d="M232.148,377.803c-0.102-0.788-0.958-9.744,3.641-13.927C237.798,370.058,232.148,377.803,232.148,377.803z"></path></g><g style="opacity:0.5;"><path style="fill:#FFFFFF;stroke:#000000;stroke-width:1.0266;stroke-linecap:round;stroke-linejoin:round;" d="M279.872,349.3c-9.017,0-29.917,3.403-29.917,3.403s-20.9-3.403-29.918-3.403c-8.06,5.173-14.743,16.301-14.743,16.301s0.542,1.254,1.9,2.883c1.349,0.946,3.375,0.809,4.783,1.51c0.917,0.456,4.774-0.562,6.892-0.299c4.193,0.52,10.508,4.527,11.87,4.527c2.05,0,6.256-2.035,9.807-1.766c3.553,0.273,9.41,1.074,9.41,1.074s5.856-0.801,9.409-1.074c3.552-0.27,7.758,1.766,9.806,1.766c1.362,0,7.679-4.008,11.87-4.527c2.118-0.263,5.976,0.755,6.892,0.299c1.408-0.701,3.435-0.563,4.783-1.51c1.357-1.629,1.9-2.883,1.9-2.883S287.932,354.473,279.872,349.3z"></path><path style="fill:#DCDCDC;" d="M215.344,368.85c0-0.792,0.3-9.774,5.407-13.473C221.954,361.718,215.344,368.85,215.344,368.85z"></path><path style="fill:#DCDCDC;" d="M229.162,365.151c0-0.792,0.301-9.773,5.408-13.475C235.771,358.019,229.162,365.151,229.162,365.151z"></path><path style="fill:#DCDCDC;" d="M278.874,365.151c0-0.792-0.301-9.773-5.409-13.475C272.266,358.019,278.874,365.151,278.874,365.151z"></path></g><g><path style="fill:#6E6E6E;stroke:#000000;stroke-width:1.0266;stroke-linecap:round;stroke-linejoin:round;" d="M282.17,350.453c0,0-5.887,3.606-32.215,3.606c-26.328,0-32.215-3.606-32.215-3.606l2.222-6.984c0,0,3.888,2.703,30.104,2.703c26.218,0,29.882-2.703,29.882-2.703L282.17,350.453z"></path></g><g><g><path style="fill:#FFFFFF;stroke:#000000;stroke-width:1.0266;stroke-linecap:round;stroke-linejoin:round;" d="M252.388,347.691c0,0,4.464-2.683,6.366-2.963c1.904-0.282,3.508,7.388,0.238,9.002c-1.376,0.673-6.898-2.602-6.898-2.602L252.388,347.691z"></path><path style="fill:none;stroke:#000000;stroke-width:1.0266;stroke-linecap:round;stroke-linejoin:round;" d="M252.686,349.829c0,0,2.104-0.595,3.455-0.198"></path></g><g><path style="fill:#FFFFFF;stroke:#000000;stroke-width:1.0266;stroke-linecap:round;stroke-linejoin:round;" d="M247.441,347.735c0,0-4.544-2.601-6.456-2.85c-1.91-0.246-3.236,7.141,0.081,8.696c1.396,0.648,6.773-2.415,6.773-2.415L247.441,347.735z"></path><path style="fill:none;stroke:#000000;stroke-width:1.0266;stroke-linecap:round;stroke-linejoin:round;" d="M247.43,349.829c0,0-2.103-0.595-3.455-0.198"></path></g><path style="fill:#FFFFFF;stroke:#000000;stroke-width:1.0266;stroke-linecap:round;stroke-linejoin:round;" d="M247.49,347.539c0.14-0.22,1.214-0.313,2.419-0.345c1.206,0.011,2.283,0.084,2.432,0.303c0.369,1.45,0.569,3.298,0.056,3.696c-0.431,0.339-1.505,0.957-2.411,0.937c-0.906-0.019-1.998-0.563-2.439-0.891C247.019,350.848,247.167,348.997,247.49,347.539z"></path></g></g></g></g></svg>