<svg xmlns="http://www.w3.org/2000/svg" width="500" height="500" version="1.1"><g id="x002"><g><path style="fill:#6E6E6E;stroke:#000000;stroke-linecap:round;stroke-linejoin:round;" d="M282.868,354.621c0,0-11.846,5.347-32.692,5.347s-33.168-5.427-33.168-5.427l-0.348,1.929c0,0,2.771-0.241,12.946,4.342c4.586,2.066,6.572,3.97,9.503,6.755c2.49,2.366,6.963,5.229,9.273,5.229c1.454,0,1.795,0,1.795,0s0.342,0,1.795,0c2.311,0,6.782-2.863,9.272-5.229c2.933-2.785,4.919-4.688,9.503-6.755c10.174-4.583,12.595-4.341,12.595-4.341L282.868,354.621z"></path><g><g><path style="fill:#3F3F3F;stroke:#000000;stroke-linecap:round;stroke-linejoin:round;" d="M250.094,361.077c-0.31,0.52-1.316,4.239-1.316,4.239l-2.012-0.346l1.341-3.028L250.094,361.077z"></path><path style="fill:#3F3F3F;stroke:#000000;stroke-linecap:round;stroke-linejoin:round;" d="M250.008,361.077c0.31,0.52,1.315,4.239,1.315,4.239l2.014-0.346l-1.342-3.028L250.008,361.077z"></path></g><g><path style="fill:#3F3F3F;stroke:#000000;stroke-linecap:round;stroke-linejoin:round;" d="M249.852,361.077c0,0-2.459-1.989-3.243-2.076c-0.782-0.087-0.559,3.979,0.112,4.239S249.852,361.077,249.852,361.077z"></path><path style="fill:#3F3F3F;stroke:#000000;stroke-linecap:round;stroke-linejoin:round;" d="M250.25,361.077c0,0,2.458-1.989,3.242-2.076c0.782-0.087,0.558,3.979-0.112,4.239C252.708,363.5,250.25,361.077,250.25,361.077z"></path></g></g></g></g></svg>