<svg xmlns="http://www.w3.org/2000/svg" width="500" height="500" version="1.1"><g id="x020"><g><path style="fill:#505050;stroke:#302E1E;stroke-linecap:round;stroke-linejoin:round;" d="M284.57,358.829c0,0,5.494,25.323,4.122,28.869c-5.495-1.52-8.929-2.533-8.929-2.533L284.57,358.829z"></path><path style="fill:#6E6E6E;stroke:#000000;stroke-linecap:round;stroke-linejoin:round;" d="M219.312,348.699c0,0,4.135,38.492,8.255,42.038c9.615,0,17.857-3.546,29.531-2.532c11.676,1.013,24.039,1.013,24.039,1.013s6.18-18.74,4.119-26.844c-2.06-8.104-3.212-14.757-3.212-14.757C233.903,352.228,229.5,348.5,219.312,348.699z"></path><path style="fill:#505050;" d="M255.727,369.464c-3.435-0.506-15.111-12.662-13.05-13.675c2.061-1.015,8.242,1.519,13.05,1.519c4.807,0,11.675-1.519,11.675-1.519S259.16,369.97,255.727,369.464z"></path><g><g><path style="fill:#6E6E6E;stroke:#000000;stroke-linecap:round;stroke-linejoin:round;" d="M282.045,347.952c-0.66-2.79-1.322-4.341-1.322-4.341s-14.883,1.409-30.762,1.409s-30.762-1.409-30.762-1.409s-1.283,4.167-1.323,4.341c1.966,1.665,6.13,2.958,32.085,2.958C275.915,350.91,281.78,348.183,282.045,347.952z"></path></g></g><path style="fill:#6E6E6E;stroke:#000000;stroke-linecap:round;stroke-linejoin:round;" d="M218.625,346.672c0,0-4.106,16.521-3.923,19.315c0.182,2.795,1.992,24.662,1.992,24.662c2.713-0.563,4.742-1.103,4.742-1.103L218.625,346.672z"></path></g></g></svg>