<svg xmlns="http://www.w3.org/2000/svg" width="500" height="500" version="1.1"><g id="x021"><g><g><path style="fill:#6E6E6E;stroke:#000000;stroke-linecap:round;stroke-linejoin:round;" d="M282.288,348.638h-64.575c0,0-9.142,8.44-15.746,23.172c2.612,1.535,6.095,2.251,6.676,2.251c0.073-0.311,0.272-0.854,0.549-1.537c1.045,0.336,2.236,0.679,3.577,1.018c-0.177,0.788-0.265,1.385-0.208,1.644c3.048,0.921,8.126,1.637,8.126,1.637c0.028-0.251,0.177-0.828,0.411-1.617c1.636,0.255,3.397,0.496,5.286,0.715c-0.204,0.933-0.327,1.624-0.327,1.926c3.338,1.126,10.593,0.819,10.593,0.819s0.121-0.718,0.322-1.861c1.941,0.105,3.978,0.189,6.111,0.247v1.716h13.835v-1.716c2.134-0.058,4.17-0.142,6.11-0.247c0.201,1.144,0.322,1.861,0.322,1.861s7.255,0.307,10.594-0.819c0-0.302-0.124-0.993-0.328-1.926c1.889-0.219,3.649-0.46,5.286-0.715c0.234,0.789,0.383,1.366,0.41,1.617c0,0,5.079-0.716,8.127-1.637c0.057-0.259-0.032-0.855-0.208-1.644c1.341-0.339,2.531-0.682,3.576-1.018c0.277,0.684,0.477,1.227,0.55,1.537c0.581,0,4.063-0.716,6.675-2.251C291.43,357.078,282.288,348.638,282.288,348.638z"></path><g><g><line style="fill:none;stroke:#000000;stroke-linecap:round;stroke-linejoin:round;" x1="218.061" y1="357.865" x2="221.688" y2="352.239"></line><line style="fill:none;stroke:#000000;stroke-linecap:round;stroke-linejoin:round;" x1="229.227" y1="359.506" x2="231.826" y2="353.604"></line><line style="fill:none;stroke:#000000;stroke-linecap:round;stroke-linejoin:round;" x1="242.778" y1="360.616" x2="243.864" y2="354.481"></line><line style="fill:none;stroke:#000000;stroke-linecap:round;stroke-linejoin:round;" x1="281.812" y1="357.865" x2="278.183" y2="352.239"></line><line style="fill:none;stroke:#000000;stroke-linecap:round;stroke-linejoin:round;" x1="270.646" y1="359.506" x2="268.045" y2="353.604"></line><line style="fill:none;stroke:#000000;stroke-linecap:round;stroke-linejoin:round;" x1="257.094" y1="360.616" x2="256.008" y2="354.481"></line></g><g><path style="fill:#6E6E6E;stroke:#000000;stroke-linecap:round;stroke-linejoin:round;" d="M220.905,353.613c0,0-6.512,13.976-7.982,19.846c-1.523-0.153-3.972-0.959-3.972-0.959S215.028,360.671,220.905,353.613z"></path><path style="fill:#6E6E6E;stroke:#000000;stroke-linecap:round;stroke-linejoin:round;" d="M243.76,355.953c0,0-0.885,16.777-0.449,21.277c-1.887,0.104-6.386-0.203-6.386-0.203C236.635,374.979,241.547,359.457,243.76,355.953z"></path><path style="fill:#6E6E6E;stroke:#000000;stroke-linecap:round;stroke-linejoin:round;" d="M231.136,355.364c0,0-7.492,10.536-10.104,19.629c1.306,0.818,5.528,0.959,5.528,0.959S227.797,367.232,231.136,355.364z"></path><path style="fill:#6E6E6E;stroke:#000000;stroke-linecap:round;stroke-linejoin:round;" d="M279.036,353.613c0,0,6.513,13.976,7.981,19.846c1.524-0.153,3.974-0.959,3.974-0.959S284.914,360.671,279.036,353.613z"></path><path style="fill:#6E6E6E;stroke:#000000;stroke-linecap:round;stroke-linejoin:round;" d="M256.182,355.953c0,0,0.885,16.777,0.449,21.277c1.888,0.104,6.387-0.203,6.387-0.203C263.307,374.979,258.395,359.457,256.182,355.953z"></path><path style="fill:#6E6E6E;stroke:#000000;stroke-linecap:round;stroke-linejoin:round;" d="M268.807,355.364c0,0,7.491,10.536,10.103,19.629c-1.305,0.818-5.528,0.959-5.528,0.959S272.145,367.232,268.807,355.364z"></path></g></g></g><path style="fill:#6E6E6E;stroke:#000000;stroke-linecap:round;stroke-linejoin:round;" d="M280.716,345.802c0,0-9.529,0.729-30.715,0.729c-21.187,0-30.716-0.729-30.716-0.729l-2.951,4.376c0,0,0.833,3.822,33.667,3.822c32.833,0,33.666-3.822,33.666-3.822L280.716,345.802z"></path></g></g></svg>