<svg xmlns="http://www.w3.org/2000/svg" width="500" height="500" version="1.1"><g id="x022"><g><g><g><path style="fill:#6E6E6E;stroke:#000000;stroke-width:0.9489;stroke-linecap:round;stroke-linejoin:round;" d="M287.133,364.918l-37.375,2.466l-37.375-2.466c0,0-1.051,2.378-1.051,3.346c0,0.97,0.19,1.85,1.434,2.553c1.242,0.707,3.108,0.089,3.108,0.089l0.046,1.673c0,0,1.141,1.409,2.861,1.849c1.721,0.44,3.353-0.353,3.353-0.353s0.165-0.752,0.463-0.792c0.342-0.046,0.824,0.639,0.875,0.968c-0.383,0.617-0.095,1.498-0.095,1.498s-0.097,2.288,5.448,1.849c0.383-0.441,0.766-0.882,0.766-0.882l1.051,0.265v1.057c0,0,0.859,2.201,6.404,1.497c0.478-0.528,0.765-0.969,0.765-0.969l1.147,0.265l0.096,0.969c0,0,4.11,2.199,7.933,0.616c0.288-0.881,0.288-0.881,0.288-0.881s1.529-0.528,2.485-0.528c0.957,0,2.484,0.528,2.484,0.528s0,0,0.288,0.881c3.823,1.583,7.934-0.616,7.934-0.616l0.096-0.969l1.146-0.265c0,0,0.287,0.44,0.766,0.969c5.543,0.704,6.402-1.497,6.402-1.497v-1.057l1.053-0.265c0,0,0.383,0.44,0.765,0.882c5.545,0.439,5.449-1.849,5.449-1.849s0.286-0.881-0.096-1.498c0.051-0.329,0.534-1.014,0.874-0.968c0.298,0.04,0.464,0.792,0.464,0.792s1.632,0.793,3.353,0.353c1.72-0.439,2.859-1.849,2.859-1.849l0.046-1.673c0,0,1.867,0.618,3.11-0.088c1.241-0.704,1.433-1.584,1.433-2.554C288.184,367.296,287.133,364.918,287.133,364.918z"></path><path style="fill:none;stroke:#000000;stroke-width:0.9489;stroke-linecap:round;stroke-linejoin:round;" d="M239.129,379.357c0,0,0.272-2.554,0.727-3.874"></path><path style="fill:none;stroke:#000000;stroke-width:0.9489;stroke-linecap:round;stroke-linejoin:round;" d="M230.641,378.036c0,0,0.041-2.729,0.586-4.049"></path><path style="fill:none;stroke:#000000;stroke-width:0.9489;stroke-linecap:round;stroke-linejoin:round;" d="M223.323,375.483c0,0,0.455-2.553,1.362-4.667"></path><path style="fill:none;stroke:#000000;stroke-width:0.9489;stroke-linecap:round;stroke-linejoin:round;" d="M215.965,371.17c0,0,0.727-3.258,1.181-4.579"></path><path style="fill:none;stroke:#000000;stroke-width:0.9489;stroke-linecap:round;stroke-linejoin:round;" d="M260.387,379.357c0,0-0.272-2.554-0.727-3.874"></path><path style="fill:none;stroke:#000000;stroke-width:0.9489;stroke-linecap:round;stroke-linejoin:round;" d="M268.874,378.036c0,0-0.039-2.729-0.584-4.049"></path><path style="fill:none;stroke:#000000;stroke-width:0.9489;stroke-linecap:round;stroke-linejoin:round;" d="M276.192,375.483c0,0-0.454-2.553-1.362-4.666"></path><path style="fill:none;stroke:#000000;stroke-width:0.9489;stroke-linecap:round;stroke-linejoin:round;" d="M283.551,371.17c0,0-0.727-3.258-1.181-4.579"></path></g><g><path style="fill:#F2F2F2;stroke:#000000;stroke-width:0.9489;stroke-linecap:round;stroke-linejoin:round;" d="M281.088,347.838h-61.873c-0.908,1.938-1.161,3.17-1.161,3.17c-3.633,3.405-5.935,9.861-6.42,13.148c1.454,2.816,5.815,5.104,7.752,4.402c1.938-0.706,4.603,0.879,4.603,0.879c-0.405,1.245-0.16,0.878-0.364,1.468c0.728,3.052,6.602,2.407,7.147,2.172c0.544-0.235,0.544-1.291,1.029-2.113c0.969-1.175,4.906-0.822,4.906,0.821c0,0,0.969,2.465,3.513,2.642c2.778,0.192,3.391-1.468,5.329-1.702c1.938-0.234,4.602,0.353,4.602,0.353s2.665-0.587,4.603-0.353c1.936,0.234,2.55,1.895,5.329,1.702c2.542-0.177,3.513-2.642,3.513-2.642c0-1.644,3.936-1.996,4.905-0.821c0.484,0.822,0.484,1.878,1.03,2.113c0.545,0.235,6.419,0.88,7.146-2.172c-0.203-0.59,0.04-0.223-0.364-1.468c0,0,2.666-1.585,4.604-0.879c1.937,0.702,6.299-1.586,7.753-4.402c-0.486-3.287-2.788-9.743-6.421-13.148C282.248,351.008,281.997,349.776,281.088,347.838z"></path><g><g><path style="fill:none;stroke:#000000;stroke-width:0.9489;stroke-linecap:round;stroke-linejoin:round;" d="M218.372,350.04c0,0-1.65,4.255-2.134,9.655"></path><path style="fill:none;stroke:#000000;stroke-width:0.9489;stroke-linecap:round;stroke-linejoin:round;" d="M223.807,370.787c0,0,1.332-8.392,4.724-13.323"></path></g><path style="fill:none;stroke:#000000;stroke-width:0.9489;stroke-linecap:round;stroke-linejoin:round;" d="M236.708,371.785c0,0,1.21-8.393,3.148-12.854"></path></g><g><g><path style="fill:none;stroke:#000000;stroke-width:0.9489;stroke-linecap:round;stroke-linejoin:round;" d="M281.931,350.04c0,0,1.648,4.255,2.135,9.655"></path><path style="fill:none;stroke:#000000;stroke-width:0.9489;stroke-linecap:round;stroke-linejoin:round;" d="M276.495,370.787c0,0-1.333-8.392-4.723-13.323"></path></g><path style="fill:none;stroke:#000000;stroke-width:0.9489;stroke-linecap:round;stroke-linejoin:round;" d="M263.596,371.785c0,0-1.212-8.393-3.149-12.854"></path></g></g></g><path style="fill:#6E6E6E;stroke:#000000;stroke-width:0.9489;stroke-linecap:round;stroke-linejoin:round;" d="M280.637,345.821c-9.905,1.779-30.637,2.135-30.637,2.135s-20.732-0.355-30.638-2.135c-0.576,0.949-0.921,2.847-1.036,3.677c14.167,3.203,31.674,2.848,31.674,2.848s17.507,0.355,31.674-2.848C281.56,348.668,281.214,346.771,280.637,345.821z"></path></g></g></svg>