<svg xmlns="http://www.w3.org/2000/svg" width="500" height="500" version="1.1"><g id="x026"><g><path style="opacity:0.8;fill:#FFFFFF;stroke:#000000;stroke-linecap:round;stroke-linejoin:round;" d="M280.506,351.066c-13.207,0-48.122,0-61.332,0c-8.448,6.988-11.093,36.402-10.261,36.605s9.624,0.921,11.288,0.819c0.834,0.509,1.25,1.119,1.805,1.322c0.555,0.201,6.799,1.32,9.296,0.71c0.832,0.306,5.827-0.202,7.908,0.204c2.081,0.406,10.633,0.914,10.633,0.914c6.659,0,8.545-0.508,10.627-0.914c2.08-0.406,7.075,0.102,7.907-0.204c2.498,0.61,8.741-0.509,9.297-0.71c0.556-0.203,0.972-0.813,1.804-1.321c1.665,0.101,10.456-0.617,11.287-0.82C291.599,387.469,288.954,358.055,280.506,351.066z"></path><g><path style="fill:#6E6E6E;stroke:#000000;stroke-linecap:round;stroke-linejoin:round;" d="M282.526,347.966c-12.827,0-52.227,0-65.054,0c-5.04,10.079-8.246,25.35-8.705,33.903c0,0.915,3.679,1.69,4.488,1.895c0.809,0.203,6.199,0.203,7.816,0.101c0.808,0.509,1.212,1.119,1.751,1.321c0.54,0.203,6.603,1.321,9.028,0.711c0.809,0.306,5.66-0.202,7.68,0.204c2.022,0.406,10.568,0.914,10.618,0.914c6.469,0,8.301-0.508,10.321-0.914c2.021-0.406,6.871,0.102,7.68-0.204c2.427,0.61,8.488-0.508,9.029-0.711c0.538-0.202,0.942-0.813,1.752-1.321c1.617,0.103,7.006,0.103,7.814-0.101c0.808-0.204,4.487-0.979,4.487-1.895C290.774,373.315,287.566,358.045,282.526,347.966z"></path><g><g><path style="fill:#6E6E6E;stroke:#000000;stroke-linecap:round;stroke-linejoin:round;" d="M282.834,348.426c0,0-5.986,3.199-32.753,3.199c-26.769,0-32.756-3.199-32.756-3.199l2.26-4.582c0,0,3.953,2.281,30.608,2.281s30.383-2.281,30.383-2.281L282.834,348.426z"></path></g></g></g></g></g></svg>