<svg xmlns="http://www.w3.org/2000/svg" width="500" height="500" version="1.1"><g id="x027"><g><path style="fill:#323232;stroke:#000000;stroke-width:0.9391;stroke-linecap:round;stroke-linejoin:round;" d="M285.207,355.128l-35.045,13.217l-35.047-13.217c-3.415,3.09-10.013,17.68-10.013,23.859c1.593,2.403,7.965,2.746,9.558,2.746s0.456,1.03,1.139,1.889c0.683,0.857,7.51,1.889,9.785,1.716c2.277-0.171,2.505-1.888,3.642-1.888c1.138,0,1.365,2.574,2.731,3.262c1.365,0.687,8.42,0.857,10.696,0c2.275-0.859,3.186-1.545,4.096-1.889c0.911-0.344,3.414-0.344,3.414-0.344s2.502,0,3.412,0.344c0.913,0.344,1.823,1.029,4.098,1.889c2.276,0.857,9.331,0.687,10.696,0c1.365-0.688,1.594-3.262,2.73-3.262c1.139,0,1.365,1.717,3.642,1.888c2.276,0.173,9.104-0.858,9.786-1.716c0.682-0.858-0.454-1.889,1.137-1.889c1.595,0,7.967-0.343,9.56-2.746C295.222,372.808,288.621,358.218,285.207,355.128z"></path><g><g><path style="fill:#6E6E6E;stroke:#000000;stroke-width:0.9391;stroke-linecap:round;stroke-linejoin:round;" d="M282.312,350.321c-0.763,0-29.463,1.395-32.313,1.535c-2.848-0.141-31.548-1.535-32.312-1.535c0,0-10.699,11.672-13.187,20.043c2.945,2.484,5.623,3.917,7.898,3.82c-0.135,0.479,0.156,2.322,0.937,2.293c2.524-0.092,5.355,1.05,9.906,0.669c2.544,0.67,6.025,1.91,9.237,1.91c3.213,0,7.364-1.336,9.104-1.336c1.675,0,6.394,1.589,8.417,1.707c2.022-0.118,6.743-1.707,8.421-1.707c1.74,0,5.889,1.336,9.102,1.336s6.692-1.24,9.236-1.91c4.552,0.381,7.383-0.761,9.906-0.669c0.782,0.029,1.072-1.814,0.938-2.293c2.275,0.097,4.952-1.336,7.897-3.82C293.01,361.993,282.312,350.321,282.312,350.321z"></path></g><path style="fill:#505050;" d="M250,353.067c0,0-2.494,10.815-2.494,13.79c-2.427-5.951-1.516-11.215-0.911-12.358C247.203,353.354,250,353.067,250,353.067z"></path><g><path style="fill:#505050;" d="M229.148,352.668l-6.675,14.189c-0.608-3.891,0.91-12.358,2.123-13.274C225.81,352.668,229.148,352.668,229.148,352.668z"></path><path style="fill:#505050;" d="M271.035,352.668l6.678,14.189c0.604-3.891-0.911-12.358-2.126-13.274C274.374,352.668,271.035,352.668,271.035,352.668z"></path></g><g><path style="fill:#323232;stroke:#000000;stroke-width:0.9358;stroke-linecap:round;stroke-linejoin:round;" d="M282.312,350.321c0,0-5.905,2.746-32.312,2.746c-26.407,0-32.311-2.746-32.311-2.746l2.228-5.321c0,0,3.9,2.06,30.195,2.06s29.971-2.06,29.971-2.06L282.312,350.321z"></path></g></g></g></g></svg>