<svg xmlns="http://www.w3.org/2000/svg" width="500" height="500" version="1.1"><g id="x028"><g><path style="fill:#FEFEFE;stroke:#000000;stroke-linecap:round;stroke-linejoin:round;" d="M282.868,354.621c0,0-11.846,5.347-32.692,5.347s-33.168-5.427-33.168-5.427l-0.348,1.929c0,0,2.771-0.241,12.946,4.342c4.586,2.066,6.572,3.97,9.503,6.755c2.49,2.366,6.963,5.229,9.273,5.229c1.454,0,1.795,0,1.795,0s0.342,0,1.795,0c2.311,0,6.782-2.863,9.272-5.229c2.933-2.785,4.919-4.688,9.503-6.755c10.174-4.583,12.595-4.341,12.595-4.341L282.868,354.621z"></path><g><g><path style="fill:#3F3F3F;stroke:#000000;stroke-linecap:round;stroke-linejoin:round;" d="M250.094,361.077c-0.31,0.52-1.316,4.239-1.316,4.239l-2.012-0.346l1.341-3.028L250.094,361.077z"></path><path style="fill:#3F3F3F;stroke:#000000;stroke-linecap:round;stroke-linejoin:round;" d="M250.008,361.077c0.31,0.52,1.315,4.239,1.315,4.239l2.014-0.346l-1.342-3.028L250.008,361.077z"></path></g><g><path style="fill:#3F3F3F;stroke:#000000;stroke-linecap:round;stroke-linejoin:round;" d="M249.852,361.077c0,0-2.459-1.989-3.243-2.076c-0.782-0.087-0.559,3.979,0.112,4.239S249.852,361.077,249.852,361.077z"></path><path style="fill:#3F3F3F;stroke:#000000;stroke-linecap:round;stroke-linejoin:round;" d="M250.25,361.077c0,0,2.458-1.989,3.242-2.076c0.782-0.087,0.558,3.979-0.112,4.239C252.708,363.5,250.25,361.077,250.25,361.077z"></path></g></g></g><g><g><g><g><path style="fill:#6E6E6E;stroke:#000000;stroke-linecap:round;stroke-linejoin:round;" d="M284.94,369.31c0-0.425-0.993-4.397-0.852-5.532s1.986-6.384,1.986-6.384l-1.702-1.418c0,0,0.567-1.985,0.567-2.694c0-0.71-2.411-5.25-2.411-5.25l-1.891-0.354c0,0-19.6,1.596-20.167,3.015c0.142,1.56-4.454,12.966-4.964,13.476c-1.703,1.703-5.778,5.161-5.778,5.161s-6.777-5.125-7.486-5.267c-0.709-0.142-5.106-11.916-4.965-13.478c-0.567-1.417-17.829-2.907-17.829-2.907l-1.89,0.354c0,0-2.411,4.54-2.411,5.25c0,0.709,0.567,2.694,0.567,2.694l-1.702,1.418c0,0,1.419,5.249,1.561,6.384s-0.851,5.107-0.851,5.532c-0.568,0.709-0.994,7.66-0.709,8.937c0.851,1.42,7.234,4.115,18.158,4.115c10.781,0,16.738-4.682,16.738-4.682l0.284-3.405l0.852,0.284l0.849-0.284l0.284,3.405c0,0,5.958,4.682,16.738,4.682c10.924,0,16.881-2.695,17.733-4.115C285.934,376.97,285.508,370.019,284.94,369.31z"></path><path style="fill:#505050;" d="M257.741,368.85c-0.149-0.302,8.724-4.044,10.214-4.469c1.489-0.427,12.979,1.383,13.405,2.127C271.892,367.572,258.273,369.913,257.741,368.85z"></path><path style="fill:none;stroke:#000000;stroke-linecap:round;stroke-linejoin:round;" d="M270.827,362.04c0.319,0,11.277,0.958,13.3,2.234"></path><path style="fill:none;stroke:#000000;stroke-linecap:round;stroke-linejoin:round;" d="M252.209,367.572c0,0,8.724-4.682,9.681-5.639c0.959-0.958,2.021-3.298,2.021-3.298"></path><g><path style="fill:#505050;" d="M215.984,366.167l-0.709,2.98c0,0,7.376,3.263,8.653,3.688C219.247,369.998,215.984,366.167,215.984,366.167z"></path><path style="fill:#505050;" d="M216.426,358.458c0,0,13.76,2.695,15.887,3.263c-0.851-1.701-4.114-4.113-4.681-4.113C227.065,357.607,216.426,358.458,216.426,358.458z"></path><path style="fill:#505050;" d="M242.528,364.594c-2.583-1.363-4.142-1.276-5.674-1.596c0,0,7.944,4.397,8.653,5.249c0.71,0.851,2.127,5.39,2.127,5.39l3.829-0.319l2.704-6.65l-4.012,2.447C250.155,369.114,245.678,366.254,242.528,364.594z"></path><path style="fill:#6E6E6E;stroke:#000000;stroke-linecap:round;stroke-linejoin:round;" d="M235.151,361.579c0.568,0,5.807,1.621,6.516,2.046"></path><path style="fill:none;stroke:#000000;stroke-linecap:round;stroke-linejoin:round;" d="M216.852,353.493c0,0,10.355,1.986,20.427,2.269"></path><path style="fill:none;stroke:#000000;stroke-linecap:round;stroke-linejoin:round;" d="M215.859,369.665c0,0,8.759,5.745,14.859,5.886c6.1,0.143,17.023-1.489,17.023-1.489"></path></g><path style="fill:#505050;" d="M283.948,365.834l0.709,2.98c0,0-4.823,3.263-6.101,3.688C283.238,369.665,283.948,365.834,283.948,365.834z"></path><path style="fill:#505050;" d="M284.515,358.458c0,0-13.759,2.695-15.888,3.263c0.852-1.701,4.115-4.113,4.682-4.113C273.876,357.607,284.515,358.458,284.515,358.458z"></path><path style="fill:none;stroke:#000000;stroke-linecap:round;stroke-linejoin:round;" d="M284.089,353.493c0,0-8.297,2.093-18.369,2.376"></path><path style="fill:none;stroke:#000000;stroke-linecap:round;stroke-linejoin:round;" d="M284.657,369.665c0,0-9.646,5.248-15.745,5.391c-6.102,0.142-15.64-1.1-15.64-1.1"></path><ellipse transform="matrix(0.9651 0.262 -0.262 0.9651 101.9072 -56.6518)" style="fill:#6E6E6E;stroke:#000000;stroke-linecap:round;stroke-linejoin:round;" cx="263.38" cy="353.794" rx="2.128" ry="2.925"></ellipse></g></g></g></g></g></svg>