<svg xmlns="http://www.w3.org/2000/svg" width="500" height="500" version="1.1"><g id="x003"><g><path style="fill:#6E6E6E;stroke:#000000;stroke-linecap:round;stroke-linejoin:round;" d="M283.428,357.498c0,0-16.252,3.497-33.428,3.497s-33.428-3.497-33.428-3.497s-1.089,2.669-0.263,4.835c0,0,5.781,0.834,10.24,2.334s13.145,7.048,17.379,8.126c3.863,0.983,8.281,0.983,12.145,0c4.234-1.078,12.921-6.626,17.38-8.126s10.238-2.334,10.238-2.334C284.517,360.167,283.428,357.498,283.428,357.498z"></path><circle style="fill:#FFFFFF;" cx="250" cy="369.401" r="1.501"></circle><g><g><circle style="fill:#FFFFFF;" cx="220.584" cy="360.737" r="1.501"></circle><circle style="fill:#FFFFFF;" cx="229.749" cy="362.667" r="1.501"></circle><circle style="fill:#FFFFFF;" cx="238.249" cy="366.499" r="1.501"></circle><circle style="fill:#FFFFFF;" cx="244.583" cy="364.167" r="1.501"></circle></g><g><circle style="fill:#FFFFFF;" cx="279.416" cy="360.737" r="1.501"></circle><circle style="fill:#FFFFFF;" cx="270.251" cy="362.667" r="1.5"></circle><circle style="fill:#FFFFFF;" cx="261.751" cy="366.499" r="1.501"></circle><circle style="fill:#FFFFFF;" cx="254.501" cy="364.167" r="1.501"></circle></g></g></g></g></svg>