<svg xmlns="http://www.w3.org/2000/svg" width="500" height="500" version="1.1"><g id="x033"><g><g><path style="fill:#6E6E6E;" d="M295.352,379.168c-0.316-0.057-0.635-0.113-0.956-0.164c0.218,0.004,0.392,0.018,0.512,0.037c1.632,0.243,2.076,1.634,2.076,1.634s1.334-1.224,1.627-2.699c0.387-2.407-7.113-9.475-9.132-11.328c0.444-0.105,0.827-0.206,1.13-0.29c0.595-0.329-5.729-9.409-6.467-10.063c-0.742-0.656-2.521-2.294-2.521-2.294L250,356.209L218.379,354c0,0-1.778,1.638-2.521,2.294c-0.738,0.654-7.061,9.734-6.465,10.063c0.302,0.084,0.685,0.185,1.129,0.29c-2.018,1.854-9.52,8.921-9.132,11.328c0.293,1.476,1.627,2.699,1.627,2.699s0.445-1.391,2.077-1.634c0.12-0.02,0.293-0.033,0.511-0.037c-0.32,0.051-0.641,0.107-0.956,0.164c-0.637,0.116-6.079,6.934-6.817,10.354c2.072,2.186,6.074,3.421,7.559,3.706c1.48,0.283,6.962-0.189,9.336,0.759c2.37,0.951,7.706,3.421,8.595,3.324c0.297-1.234,0.591-1.707,0.591-1.707s3.41-0.476,4.001,0.094c0.596,0.568,0.445,2.468,0.445,2.468s9.044,2.565,17.193,1.331c0.147-1.331,1.036-1.71,1.036-1.71l3.41-0.665l3.41,0.665c0,0,0.89,0.379,1.037,1.71c8.149,1.234,17.193-1.331,17.193-1.331s-0.151-1.899,0.444-2.468c0.592-0.569,4.001-0.094,4.001-0.094s0.293,0.473,0.592,1.707c0.889,0.097,6.224-2.373,8.594-3.324c2.374-0.948,7.857-0.476,9.337-0.759c1.485-0.285,5.487-1.521,7.559-3.706C301.43,386.102,295.987,379.284,295.352,379.168z"></path><g><g id="bottomsXMLID_7_"><g><path style="fill:none;stroke:#000000;stroke-width:0.8149;stroke-linecap:round;stroke-linejoin:round;" d="M205.605,379.004c-0.32,0.051-0.641,0.107-0.956,0.164c-0.637,0.116-6.079,6.934-6.817,10.354c2.072,2.186,6.074,3.421,7.559,3.706c1.48,0.283,6.962-0.189,9.336,0.759c2.37,0.951,7.706,3.421,8.595,3.324c0.297-1.234,0.591-1.707,0.591-1.707s3.41-0.476,4.001,0.094c0.596,0.568,0.445,2.468,0.445,2.468s9.044,2.565,17.193,1.331c0.147-1.331,1.036-1.71,1.036-1.71l3.41-0.665l3.41,0.665c0,0,0.89,0.379,1.037,1.71c8.149,1.234,17.193-1.331,17.193-1.331s-0.151-1.899,0.444-2.468c0.592-0.569,4.001-0.094,4.001-0.094s0.293,0.473,0.592,1.707c0.889,0.097,6.224-2.373,8.594-3.324c2.374-0.948,7.857-0.476,9.337-0.759c1.485-0.285,5.487-1.521,7.559-3.706c-0.737-3.421-6.18-10.238-6.815-10.354c-0.316-0.057-0.635-0.113-0.956-0.164"></path><path style="fill:none;stroke:#000000;stroke-width:0.8149;stroke-linecap:round;stroke-linejoin:round;" d="M210.522,366.647c-2.018,1.854-9.52,8.921-9.132,11.328c0.293,1.476,1.627,2.699,1.627,2.699s0.445-1.391,2.077-1.634c0.12-0.02,0.293-0.033,0.511-0.037c2.663-0.075,11.889,0.739,13.125,1.345c1.334,0.655,6.816,2.126,10.076,2.046c-1.334-0.901-0.738-1.311,0-1.311c0.742,0,9.635,0.33,11.858,1.475s3.259,1.554,9.336,1.554c6.079,0,7.115-0.409,9.337-1.554c2.223-1.145,11.116-1.475,11.858-1.475c0.738,0,1.334,0.409,0,1.311c3.26,0.08,8.741-1.391,10.075-2.046c1.236-0.605,10.462-1.42,13.125-1.345c0.218,0.004,0.392,0.018,0.512,0.037c1.632,0.243,2.076,1.634,2.076,1.634s1.334-1.224,1.627-2.699c0.387-2.407-7.113-9.475-9.132-11.328"></path><path style="fill:none;stroke:#000000;stroke-width:0.8149;stroke-linecap:round;stroke-linejoin:round;" d="M289.479,366.647c0.444-0.105,0.827-0.206,1.13-0.29c0.595-0.329-6.671-9.409-7.409-10.063c-0.742-0.656-2.521-2.294-2.521-2.294L250,356.209L219.321,354c0,0-1.778,1.638-2.521,2.294c-0.738,0.654-8.002,9.734-7.407,10.063c0.302,0.084,0.685,0.185,1.129,0.29c1.734,0.419,4.424,0.938,7.02,0.938c0.889-0.901,2.37-1.064,2.966-1.064c0.592,0,9.631,0.982,10.226,1.554c0.592,0.573,1.183,1.312,1.779,1.391c0.591,0.084,6.226,1.475,9.929,1.229c3.704-0.246,4.148-1.064,7.558-1.145c3.411,0.08,3.855,0.898,7.56,1.145c3.703,0.246,9.336-1.145,9.928-1.229c0.595-0.079,1.187-0.817,1.779-1.391c0.594-0.571,9.634-1.554,10.225-1.554c0.597,0,2.076,0.163,2.966,1.064C285.054,367.585,287.744,367.066,289.479,366.647z"></path></g></g></g></g></g></g></svg>