<svg xmlns="http://www.w3.org/2000/svg" width="500" height="500" version="1.1"><g id="x034"><g><g><path style="fill:#C8C8C8;stroke:#000000;stroke-width:1.1043;stroke-linecap:round;stroke-linejoin:round;" d="M211.628,372.74c-0.708-0.086-5.964-0.257-8.558,3.26c0.238,1.949,2.932,5.399,2.932,5.399l7.732-2.402L211.628,372.74z"></path><path style="fill:#C8C8C8;stroke:#000000;stroke-width:1.1043;stroke-linecap:round;stroke-linejoin:round;" d="M288.371,372.74c0.709-0.086,5.965-0.257,8.559,3.26c-0.24,1.949-2.932,5.399-2.932,5.399l-7.73-2.402L288.371,372.74z"></path><g><path style="fill:#FFFFFF;stroke:#000000;stroke-width:1.1043;stroke-linecap:round;stroke-linejoin:round;" d="M297.49,380.62c-1.904-4.521-7.379-6.188-7.379-6.188h-80.223c0,0-5.475,1.668-7.379,6.188c1.19,0.953,3.333,2.143,3.333,2.143s-0.953,1.906-0.953,3.096c0,1.19,4.524,3.095,6.427,3.095c0.714-1.666,2.143-3.571,6.667-0.714c-0.714,0.476-0.953,3.094-0.239,4.046c0.714,0.954,4.762,2.619,7.856,1.19c1.19,0.953,0.714,1.667,3.095,3.095c2.38,1.429,5.713,1.189,6.665-0.238c0.238-0.476,3.571-1.667,4.999-0.476c1.428,1.189,3.809,2.381,5,3.095c1.02,0.614,2.921-0.7,4.642-0.935c1.722,0.234,3.619,1.549,4.642,0.935c1.189-0.714,3.568-1.905,5-3.095c1.426-1.191,4.758,0,4.996,0.476c0.953,1.428,4.287,1.667,6.666,0.238c2.383-1.428,1.904-2.142,3.096-3.095c3.094,1.429,7.143-0.236,7.855-1.19c0.715-0.952,0.477-3.57-0.238-4.046c4.521-2.857,5.951-0.952,6.666,0.714c1.904,0,6.428-1.904,6.428-3.095c0-1.191-0.953-3.096-0.953-3.096S296.301,381.573,297.49,380.62z"></path><path style="fill:#C8C8C8;" d="M210.519,387.494c0-0.475,2.781-2.032,2.781-2.032c-1.427,0-5.132-1.905-7.036,0.158C208.437,387.108,210.519,387.494,210.519,387.494z"></path><path style="fill:#C8C8C8;" d="M289.492,387.555c0-0.476-2.871-2.093-2.871-2.093c1.428,0,5.191-1.846,7.098,0.218C291.963,386.959,289.492,387.555,289.492,387.555z"></path><path style="fill:none;stroke:#000000;stroke-width:1.1043;stroke-linecap:round;stroke-linejoin:round;" d="M240.359,395.856c0,0,0.239-1.666,2.143-5.475"></path><g><path style="fill:none;stroke:#000000;stroke-width:1.1043;stroke-linecap:round;stroke-linejoin:round;" d="M259.643,395.856c0,0-0.24-1.666-2.145-5.475"></path><path style="fill:none;stroke:#000000;stroke-width:1.1043;stroke-linecap:round;stroke-linejoin:round;" d="M274.4,393.476c0,0-0.953-4.522-3.572-6.188"></path><path style="fill:none;stroke:#000000;stroke-width:1.1043;stroke-linecap:round;stroke-linejoin:round;" d="M282.732,390.856c0,0-2.383-5.475-5.477-7.142"></path><path style="fill:none;stroke:#000000;stroke-width:1.1043;stroke-linecap:round;stroke-linejoin:round;" d="M290.111,385.382c0,0-4.047-0.237-7.141,1.905"></path><path style="fill:none;stroke:#000000;stroke-width:1.1043;stroke-linecap:round;stroke-linejoin:round;" d="M295.348,385.858c0,0-2.143-4.761-5.236-6.665"></path></g><path style="fill:none;stroke:#000000;stroke-width:1.1043;stroke-linecap:round;stroke-linejoin:round;" d="M225.6,393.476c0,0,0.953-4.522,3.571-6.188"></path><path style="fill:none;stroke:#000000;stroke-width:1.1043;stroke-linecap:round;stroke-linejoin:round;" d="M217.269,390.856c0,0,2.38-5.475,5.475-7.142"></path><path style="fill:none;stroke:#000000;stroke-width:1.1043;stroke-linecap:round;stroke-linejoin:round;" d="M209.888,385.382c0,0,4.048-0.237,7.142,1.905"></path><path style="fill:none;stroke:#000000;stroke-width:1.1043;stroke-linecap:round;stroke-linejoin:round;" d="M204.651,385.858c0,0,2.142-4.761,5.237-6.665"></path></g></g><path style="fill:#6E6E6E;stroke:#000000;stroke-width:1.1043;stroke-linecap:round;stroke-linejoin:round;" d="M280.424,346.437c0,0-8.174,1.815-30.424,1.815s-30.424-1.815-30.424-1.815s-7.243,15.73-10.616,30.471c-0.21,0.093,12.29,13.369,41.04,13.369s41-13.776,41.04-13.369C287.667,362.167,280.424,346.437,280.424,346.437z"></path></g></g></svg>