<svg xmlns="http://www.w3.org/2000/svg" width="500" height="500" version="1.1"><g id="x035"><g><path style="fill:#6E6E6E;stroke:#000000;stroke-linecap:round;stroke-linejoin:round;" d="M285.499,356.999c0,0-15.138,2.191-35.499,2.191c-20.36,0-35.499-2.191-35.499-2.191s-6.889,8.771-8.56,16.287c1.46,1.253,7.308,2.296,7.935,2.296c0.833,1.253,2.504,3.131,2.504,3.131s6.055,3.759,11.902,3.759c0.417-0.207,1.88-1.252,1.88-1.252h1.458c0,0,0.837,1.88,1.045,2.298c2.504,0.835,8.219,3.13,17.548,3.13c9.332,0,14.615-2.295,17.121-3.13c0.209-0.418,1.045-2.298,1.045-2.298h1.461c0,0,1.461,1.045,1.879,1.252c5.845,0,11.899-3.759,11.899-3.759s1.671-1.878,2.506-3.131c0.627,0,6.473-1.043,7.934-2.296C292.391,365.77,285.499,356.999,285.499,356.999z"></path><line style="fill:none;stroke:#000000;stroke-linecap:round;stroke-linejoin:round;" x1="249.682" y1="386.388" x2="250.15" y2="364.404"></line><line style="fill:none;stroke:#000000;stroke-linecap:round;stroke-linejoin:round;" x1="228.282" y1="382.472" x2="234.546" y2="364.308"></line><g><path style="fill:none;stroke:#000000;stroke-linecap:round;stroke-linejoin:round;" d="M213.249,374.747c0,0,4.803-10.856,6.055-13.153"></path><path style="fill:none;stroke:#000000;stroke-linecap:round;stroke-linejoin:round;" d="M216.38,376.626c-0.208-0.626,4.175-13.571,4.175-13.571"></path></g><g><line style="fill:none;stroke:#000000;stroke-linecap:round;stroke-linejoin:round;" x1="271.72" y1="382.472" x2="265.455" y2="364.308"></line><g><path style="fill:none;stroke:#000000;stroke-linecap:round;stroke-linejoin:round;" d="M286.752,374.747c0,0-4.803-10.856-6.055-13.153"></path><path style="fill:none;stroke:#000000;stroke-linecap:round;stroke-linejoin:round;" d="M283.619,376.626c0.211-0.626-4.174-13.571-4.174-13.571"></path></g></g><path style="fill:#505050;stroke:#000000;stroke-linecap:round;stroke-linejoin:round;" d="M287.379,359.504l-1.671-5.009l-1.878-0.836l-1.464,2.505c0,0-7.032,2.897-32.366,2.897c-25.333,0-32.367-2.897-32.367-2.897l-1.461-2.505l-1.88,0.836l-1.668,5.009c0,0,5.876,4.625,37.376,4.625S287.379,359.504,287.379,359.504z"></path></g></g></svg>