<svg xmlns="http://www.w3.org/2000/svg" width="500" height="500" version="1.1"><g id="x036"><g><path style="fill:#6E6E6E;stroke:#000000;stroke-linecap:round;stroke-linejoin:round;" d="M297.767,362.955c-7.478,0-28.235,0.277-47.767,0.566c-19.529-0.289-40.286-0.566-47.766-0.566c-6.783,2.399-7.067,6.478-7.067,6.478s3.957,4.079,7.35,5.52c2.826,1.919,7.349,7.198,12.436,7.198c5.088,0,8.196-0.959,8.196-0.959s1.131,0.719,5.371,2.398c6.505,2.551,15.27,3.423,21.48,3.421c6.211,0.002,14.978-0.87,21.481-3.421c4.239-1.68,5.369-2.398,5.369-2.398s3.109,0.959,8.197,0.959c5.087,0,9.611-5.279,12.436-7.198c3.392-1.44,7.35-5.52,7.35-5.52S304.551,365.354,297.767,362.955z"></path><path style="fill:#FFFFFF;stroke:#000000;stroke-linecap:round;stroke-linejoin:round;" d="M287.755,356.844c-7.024-0.11-22.595,0.083-37.755,0.328c-15.159-0.245-30.73-0.438-37.755-0.328c-7.422,1.7-11.323,7.105-11.323,7.105s6.672,4.382,11.595,6.829s14.035,2.578,14.035,2.578s8.116,4.131,23.448,4.131c15.334,0,23.448-4.131,23.448-4.131s9.112-0.131,14.037-2.578c4.921-2.447,11.596-6.829,11.596-6.829S295.179,358.544,287.755,356.844z"></path><path style="fill:#6E6E6E;stroke:#000000;stroke-linecap:round;stroke-linejoin:round;" d="M282.891,348c0,0-20.384,2.439-32.891,2.439c-12.508,0-32.891-2.439-32.891-2.439s-6.219,5.275-7.725,11.034c1.319,0.962,9.422,4.16,9.422,4.16s5.463,2.879,10.739,2.879c0.375-0.157,7.455,3.182,20.456,3.182c13.002,0,20.079-3.341,20.456-3.182c5.273,0,10.739-2.879,10.739-2.879s8.101-3.198,9.423-4.16C289.109,353.275,282.891,348,282.891,348z"></path></g><path style="fill:#6E6E6E;stroke:#000000;stroke-linecap:round;stroke-linejoin:round;" d="M284.78,349.156l-1.553-3.958l-1.747-0.661l-1.361,1.979c0,0-7.787,2.879-30.12,2.879c-22.333,0-30.117-2.879-30.117-2.879l-1.36-1.979l-1.75,0.661l-1.553,3.958c0,0,4.111,4.443,34.779,4.443S284.78,349.156,284.78,349.156z"></path></g></svg>