<svg xmlns="http://www.w3.org/2000/svg" width="500" height="500" version="1.1"><g id="x037"><g><g><path style="fill:#6E6E6E;stroke:#000000;stroke-linecap:round;stroke-linejoin:round;" d="M269.033,355.351c0,0,2.539,20.246,1.792,26.219c2.24,0.896,14.935-0.895,14.935-0.895s1.642-20.694-1.644-28.012C279.936,353.409,269.033,355.351,269.033,355.351z"></path><path style="fill:#6E6E6E;stroke:#000000;stroke-linecap:round;stroke-linejoin:round;" d="M242.153,355.501c-10.155-0.15-21.653-3.436-24.789-4.779c-3.883,7.17-3.436,30.699-3.436,30.699s9.904,1.697,22.251,1.643c6.068-0.028,13.441-0.747,19.176-1.834c3.111-5.514,5.18-19.52,6.222-25.772C255.837,355.526,247.932,355.585,242.153,355.501z"></path><path style="fill:#505050;stroke:#000000;stroke-linecap:round;stroke-linejoin:round;" d="M269.033,355.351c0,0-3.109,0.056-7.456,0.106c-1.042,6.253-4.664,20.896-7.776,26.411c4.844,0.023,9.816-0.56,10.304-0.447C267.54,378.284,269.033,355.351,269.033,355.351z"></path></g><g><g><path style="fill:#505050;stroke:#000000;stroke-linecap:round;stroke-linejoin:round;" d="M284.422,352.617l-1.593-4.058l-1.092-0.675c0,0-0.796,1.184-1.393,2.029c-10.515,2.3-25.122,1.703-30.64,1.881c-5.519-0.178-19.383,0.419-29.896-1.881c-0.597-0.846-1.394-2.029-1.394-2.029l-1.192,0.675l-1.192,4.058c0,0,1.296,3.072,33.445,3.072S284.422,352.617,284.422,352.617z"></path></g><g><path style="fill:#B2B2B2;stroke:#000000;stroke-linecap:round;stroke-linejoin:round;" d="M260.373,358.487c0,0,6.57,0,9.108-1.044c0.598-2.241,1.194-6.87,1.194-6.87l-9.407,1.044L260.373,358.487z"></path><polygon style="fill:#FFFFFF;" points="264.405,353.112 264.405,356.545 262.463,356.845 263.062,353.561 "></polygon></g></g></g></g></svg>