<svg xmlns="http://www.w3.org/2000/svg" width="500" height="500" version="1.1"><g id="x038"><g><path style="fill:#505050;stroke:#000000;stroke-linecap:round;stroke-linejoin:round;" d="M282.945,357.51c0,0-13.724,2.892-32.183,2.892c-18.46,0-32.182-2.892-32.182-2.892s-10.79,6.813-12.305,13.627c1.325,1.134,11.169,3.218,11.737,3.218c0.757,1.137,2.272,2.839,2.272,2.839s5.488,3.407,10.787,3.407c0.377-0.188,1.704-1.135,1.704-1.135h1.325c0,0,0.757,1.703,0.948,2.082c2.271,0.756,7.45,2.84,15.908,2.84c8.459,0,13.25-2.084,15.522-2.84c0.188-0.379,0.946-2.082,0.946-2.082h1.325c0,0,1.325,0.946,1.703,1.135c5.3,0,10.789-3.407,10.789-3.407s1.516-1.702,2.271-2.839c0.567,0,8.885-0.948,10.211-2.084C292.209,365.458,282.945,357.51,282.945,357.51z"></path><line style="fill:none;stroke:#000000;stroke-linecap:round;stroke-linejoin:round;" x1="229.712" y1="379.99" x2="235.236" y2="364.511"></line><g><path style="fill:none;stroke:#000000;stroke-linecap:round;stroke-linejoin:round;" d="M217.444,373.599c0,0,4.353-9.844,5.488-11.925"></path><path style="fill:none;stroke:#000000;stroke-linecap:round;stroke-linejoin:round;" d="M220.284,375.301c-0.191-0.567,3.785-12.303,3.785-12.303"></path></g><g><line style="fill:none;stroke:#000000;stroke-linecap:round;stroke-linejoin:round;" x1="273.187" y1="379.99" x2="268.183" y2="364.511"></line><g><path style="fill:none;stroke:#000000;stroke-linecap:round;stroke-linejoin:round;" d="M286.529,372.271c0,0-4.352-9.841-5.487-11.924"></path><path style="fill:none;stroke:#000000;stroke-linecap:round;stroke-linejoin:round;" d="M283.69,373.976c0.19-0.569-3.786-12.305-3.786-12.305"></path></g></g><path style="fill:#6E6E6E;stroke:#000000;stroke-linecap:round;stroke-linejoin:round;" d="M282.184,349.558c0,0-13.724,2.893-32.184,2.893c-18.46,0-32.182-2.893-32.182-2.893s-6.248,7.952-7.761,14.766c1.324,1.135,6.625,2.082,7.192,2.082c0.758,1.135,2.272,2.838,2.272,2.838s5.488,3.407,10.788,3.407c0.377-0.188,1.704-1.135,1.704-1.135h1.325c0,0,0.757,1.704,0.948,2.083c2.272,0.756,7.451,2.838,15.909,2.838c8.459,0,13.25-2.082,15.521-2.838c0.188-0.379,0.946-2.083,0.946-2.083h1.326c0,0,1.324,0.946,1.702,1.135c5.3,0,10.79-3.407,10.79-3.407s1.515-1.703,2.271-2.838c0.568,0,5.867-0.947,7.192-2.082C288.429,357.51,282.184,349.558,282.184,349.558z"></path><line style="fill:none;stroke:#000000;stroke-linecap:round;stroke-linejoin:round;" x1="250.474" y1="376.2" x2="250.899" y2="357.179"></line><line style="fill:none;stroke:#000000;stroke-linecap:round;stroke-linejoin:round;" x1="231.071" y1="372.65" x2="236.751" y2="356.184"></line><g><path style="fill:none;stroke:#000000;stroke-linecap:round;stroke-linejoin:round;" d="M217.444,365.647c0,0,4.353-9.842,5.488-11.924"></path><path style="fill:none;stroke:#000000;stroke-linecap:round;stroke-linejoin:round;" d="M220.284,367.351c-0.191-0.567,3.785-12.303,3.785-12.303"></path></g><g><line style="fill:none;stroke:#000000;stroke-linecap:round;stroke-linejoin:round;" x1="270.453" y1="372.65" x2="264.775" y2="356.184"></line><g><path style="fill:none;stroke:#000000;stroke-linecap:round;stroke-linejoin:round;" d="M284.081,365.647c0,0-4.352-9.842-5.488-11.924"></path><path style="fill:none;stroke:#000000;stroke-linecap:round;stroke-linejoin:round;" d="M281.242,367.351c0.189-0.567-3.786-12.303-3.786-12.303"></path></g></g><path style="fill:#666666;stroke:#000000;stroke-linecap:round;stroke-linejoin:round;" d="M283.886,351.83l-1.514-4.542l-1.704-0.758l-1.323,2.271c0,0-10.666,2.565-29.345,2.565c-18.678,0-29.344-2.565-29.344-2.565l-1.325-2.271l-1.704,0.758l-1.513,4.542c0,0,1.039,5.1,33.886,5.1C282.848,356.93,283.886,351.83,283.886,351.83z"></path></g></g></svg>