<svg xmlns="http://www.w3.org/2000/svg" width="500" height="500" version="1.1"><g id="x039"><g><path style="fill:#6E6E6E;stroke:#000000;stroke-linecap:round;stroke-linejoin:round;" d="M281.256,345.51c0,0-5.132,2.709-31.256,2.709s-31.256-2.709-31.256-2.709s-6.169,23.754-3.992,29.379c7.003,4.611,32.167,6.973,35.108,7.233v0.027c0,0,0.051-0.007,0.141-0.014c0.091,0.007,0.143,0.014,0.143,0.014v-0.027c2.938-0.261,28.104-2.623,35.106-7.233C287.428,369.264,281.256,345.51,281.256,345.51z"></path><path style="fill:#FFD13F;stroke:#000000;stroke-linecap:round;stroke-linejoin:round;" d="M214.566,373.799c0,0,17.242,6.171,35.39,6.171c18.15,0,35.756-5.988,35.756-5.988s1.813,0.545,1.27,2.542c-0.544,1.994-14.12,7.529-37.169,7.529c-23.049,0-36.335-7.348-36.335-7.348S211.662,374.345,214.566,373.799z"></path></g></g></svg>