<svg xmlns="http://www.w3.org/2000/svg" width="500" height="500" version="1.1"><g id="x004"><g><path style="fill:#FFFFFF;stroke:#000000;stroke-linecap:round;stroke-linejoin:round;" d="M282.682,353.712c-0.051-0.728-0.138-1.491-0.307-2.338c-15.087,4.295-25.438,4.956-32.375,4.956s-17.289-0.661-32.375-4.956c-0.169,0.847-0.256,1.61-0.307,2.338c15.142,4.198,25.61,4.857,32.682,4.857S267.539,357.91,282.682,353.712z"></path><path style="fill:#6E6E6E;stroke:#000000;stroke-linecap:round;stroke-linejoin:round;" d="M229.738,361.064c4.516,1.887,6.473,3.624,9.36,6.167c2.453,2.16,5.872,5.506,8.148,5.506c1.432,0,2.753,0,2.753,0s1.321,0,2.753,0c2.276,0,5.696-3.346,8.148-5.506c2.887-2.543,4.844-4.28,9.36-6.167c10.021-4.185,12.554-3.964,12.554-3.964c-0.068-1.153-0.054-2.224-0.134-3.389c-15.143,4.198-25.61,4.857-32.682,4.857s-17.54-0.659-32.682-4.857c-0.081,1.165-0.066,2.235-0.134,3.389C217.185,357.101,219.717,356.88,229.738,361.064z"></path></g></g></svg>