<svg xmlns="http://www.w3.org/2000/svg" width="500" height="500" version="1.1"><g id="x040"><g><g><path style="fill:#6E6E6E;stroke:#000000;stroke-linecap:round;stroke-linejoin:round;" d="M276.213,331.988c-8.041-1.275-26.344-0.955-26.344-0.955s-18.041-0.32-26.082,0.955c-11.767,18.271-16.278,91.953-15.296,97.053c2.353,2.123,8.432,1.7,8.432,1.7s0,1.698,0.196,2.548c3.139,2.336,10.786,2.549,10.786,2.549s-0.587,1.912,0.196,2.974c3.334,0.851,12.159-1.485,12.159-1.485s-0.589,0.637,0.197,2.548c2.259,2.45,16.826,2.45,19.088,0c0.782-1.911,0.196-2.548,0.196-2.548s8.821,2.336,12.158,1.485c0.782-1.062,0.194-2.974,0.194-2.974s7.649-0.213,10.785-2.549c0.199-0.85,0.199-2.548,0.199-2.548s6.08,0.423,8.43-1.7C292.489,423.941,287.979,350.259,276.213,331.988z"></path><path style="fill:#505050;" d="M240.065,435.489c-0.394-1.372,0.784-58.832,1.568-65.499c-3.922,11.766-6.08,56.869-4.903,66.676C238.103,436.666,240.065,435.489,240.065,435.489z"></path><path style="fill:#505050;" d="M259.943,435.489c0.392-1.372-0.785-58.832-1.57-65.499c3.923,11.766,6.08,56.869,4.904,66.676C261.904,436.666,259.943,435.489,259.943,435.489z"></path><g><path style="fill:none;stroke:#000000;stroke-linecap:round;stroke-linejoin:round;" d="M217.904,430.527c0,0,1.471-76.231,10.884-97.584"></path><path style="fill:none;stroke:#000000;stroke-linecap:round;stroke-linejoin:round;" d="M234.671,332.943c0,0-6.766,64.76-6.177,104.594"></path><path style="fill:none;stroke:#000000;stroke-linecap:round;stroke-linejoin:round;" d="M243.202,333.581c0,0-3.236,84.199-2.059,103"></path><path style="fill:none;stroke:#000000;stroke-linecap:round;stroke-linejoin:round;" d="M282.099,430.527c0,0-1.474-76.231-10.889-97.584"></path><path style="fill:none;stroke:#000000;stroke-linecap:round;stroke-linejoin:round;" d="M265.329,332.943c0,0,6.765,64.76,6.179,104.594"></path><path style="fill:none;stroke:#000000;stroke-linecap:round;stroke-linejoin:round;" d="M256.796,333.581c0,0,3.238,84.199,2.063,103"></path></g></g></g></g></svg>