<svg xmlns="http://www.w3.org/2000/svg" width="500" height="500" version="1.1"><g id="x041"><g><g><path style="fill:#6E6E6E;stroke:#000000;stroke-linecap:round;stroke-linejoin:round;" d="M287.833,368.56c-1.76-7.625-6.893-18.77-6.893-18.77L250,353.456l-30.941-3.666c0,0-5.132,11.145-6.891,18.77c-1.617,7.008-5.866,33.287-4.986,35.046c4.399,3.228,9.972,6.746,15.69,7.479c1.173-1.025,3.079-2.932,5.278-3.225c0,0,1.435,4.157,4.106,5.571c4.986,2.639,15.983,2.786,17.744,2.786c1.76,0,12.758-0.147,17.743-2.786c2.671-1.414,4.106-5.571,4.106-5.571c2.199,0.293,4.105,2.199,5.278,3.225c5.72-0.732,11.291-4.251,15.69-7.479C293.698,401.847,289.45,375.567,287.833,368.56z"></path><path style="fill:#505050;" d="M228.591,407.126c0,0-1.76-0.293-5.719,2.933c-0.147-10.705,3.666-41.792,8.651-54.55C230.937,365.92,228.591,407.126,228.591,407.126z"></path><path style="fill:#505050;" d="M271.437,407.126c0,0,1.761-0.293,5.72,2.933c0.146-10.705-3.666-41.792-8.651-54.55C269.091,365.92,271.437,407.126,271.437,407.126z"></path></g><g><path style="fill:#BFA19C;stroke:#000000;stroke-linecap:round;stroke-linejoin:round;" d="M282.37,350.743c0,0-5.93,3.52-32.444,3.52c-26.513,0-32.443-3.52-32.443-3.52l1.797-5.475c0,0,0.686-1.18,1.465-0.932c2.339,0.743,9.491,2.228,29.293,2.228c26.402,0,30.094-2.64,30.094-2.64L282.37,350.743z"></path><g><path style="fill:#BFA19C;stroke:#000000;stroke-linecap:round;stroke-linejoin:round;" d="M277.261,348.764c-0.293-3.225-3.666-3.665-3.666-3.665l-23.382,1.313l-23.382-1.313c0,0-3.372,0.44-3.666,3.665c-0.271,2.979,0.733,3.958,2.639,4.839c1.896,0.875,14.811,1.895,24.329,1.906l0,0c0.027,0,0.053,0,0.08,0s0.054,0,0.08,0l0,0c9.518-0.012,22.433-1.031,24.328-1.906C276.528,352.722,277.532,351.743,277.261,348.764z"></path><circle style="fill:#E3E8E3;stroke:#000000;stroke-linecap:round;stroke-linejoin:round;" cx="227.784" cy="349.717" r="1.686"></circle><circle style="fill:#E3E8E3;stroke:#000000;stroke-linecap:round;stroke-linejoin:round;" cx="272.642" cy="349.717" r="1.686"></circle></g></g></g></g></svg>