<svg xmlns="http://www.w3.org/2000/svg" width="500" height="500" version="1.1"><g id="x042"><g><g><path style="fill:#6E6E6E;stroke:#000000;stroke-width:0.9054;stroke-linecap:round;stroke-linejoin:round;" d="M283.332,348.993L250,348.577l-33.332,0.416c0,0-15.875,44.781-13.704,48.275c3.331,2.801,12.498,5.629,16.84,5.656c0-1.997,0.527-1.332,0.527-1.332l4.342,0.999c0,0.936-0.286,0.972-0.045,1.472c2.227,1.924,9.542,3.187,25.372,3.187s23.146-1.263,25.372-3.187c0.241-0.5-0.045-0.536-0.045-1.473l4.342-0.998c0,0,0.527-0.665,0.527,1.332c4.342-0.027,13.509-2.855,16.84-5.656C299.207,393.774,283.332,348.993,283.332,348.993z"></path><g><g><line style="fill:none;stroke:#FFFFFF;stroke-width:0.9054;stroke-linecap:round;stroke-linejoin:round;" x1="250.198" y1="406.06" x2="250.198" y2="353.152"></line><line style="fill:none;stroke:#FFFFFF;stroke-width:0.9054;stroke-linecap:round;stroke-linejoin:round;" x1="242.479" y1="352.195" x2="238.94" y2="405.615"></line><line style="fill:none;stroke:#FFFFFF;stroke-width:0.9054;stroke-linecap:round;stroke-linejoin:round;" x1="234.76" y1="351.238" x2="228.005" y2="404.617"></line><line style="fill:none;stroke:#FFFFFF;stroke-width:0.9054;stroke-linecap:round;stroke-linejoin:round;" x1="227.04" y1="350.283" x2="216.427" y2="401.678"></line><line style="fill:none;stroke:#FFFFFF;stroke-width:0.9054;stroke-linecap:round;stroke-linejoin:round;" x1="219.321" y1="349.326" x2="205.652" y2="397.962"></line><line style="fill:none;stroke:#FFFFFF;stroke-width:0.9054;stroke-linecap:round;stroke-linejoin:round;" x1="257.707" y1="352.195" x2="261.245" y2="405.615"></line><line style="fill:none;stroke:#FFFFFF;stroke-width:0.9054;stroke-linecap:round;stroke-linejoin:round;" x1="265.426" y1="351.238" x2="272.181" y2="404.617"></line><line style="fill:none;stroke:#FFFFFF;stroke-width:0.9054;stroke-linecap:round;stroke-linejoin:round;" x1="273.146" y1="350.283" x2="283.759" y2="401.678"></line><line style="fill:none;stroke:#FFFFFF;stroke-width:0.9054;stroke-linecap:round;stroke-linejoin:round;" x1="280.864" y1="349.326" x2="294.533" y2="397.962"></line></g><g><path style="fill:none;stroke:#FFFFFF;stroke-width:0.9054;stroke-linecap:round;stroke-linejoin:round;" d="M203.642,395.245c0,0,16.403,6.987,46.798,6.987c30.394,0,45.832-6.987,45.832-6.987"></path><path style="fill:none;stroke:#FFFFFF;stroke-width:0.9054;stroke-linecap:round;stroke-linejoin:round;" d="M205.732,388.313c0,0,15.76,6.211,44.627,6.211c28.866,0,43.821-6.211,43.821-6.211"></path><path style="fill:none;stroke:#FFFFFF;stroke-width:0.9054;stroke-linecap:round;stroke-linejoin:round;" d="M207.823,381.38c0,0,15.117,5.436,42.456,5.436s41.812-5.436,41.812-5.436"></path><path style="fill:none;stroke:#FFFFFF;stroke-width:0.9054;stroke-linecap:round;stroke-linejoin:round;" d="M209.914,374.448c0,0,14.473,4.658,40.285,4.658c25.811,0,39.802-4.658,39.802-4.658"></path><path style="fill:none;stroke:#FFFFFF;stroke-width:0.9054;stroke-linecap:round;stroke-linejoin:round;" d="M212.004,367.516c0,0,13.83,3.882,38.113,3.882s37.792-3.882,37.792-3.882"></path><path style="fill:none;stroke:#FFFFFF;stroke-width:0.9054;stroke-linecap:round;stroke-linejoin:round;" d="M214.095,360.583c0,0,13.187,3.107,35.942,3.107c22.755,0,35.781-3.107,35.781-3.107"></path><path style="fill:none;stroke:#FFFFFF;stroke-width:0.9054;stroke-linecap:round;stroke-linejoin:round;" d="M216.186,353.651c0,0,12.543,2.33,33.771,2.33c21.228,0,33.771-2.33,33.771-2.33"></path></g></g><path style="fill:none;stroke:#505050;stroke-width:0.9054;stroke-linecap:round;stroke-linejoin:round;" d="M204.044,392.472c0,0,13.831,6.655,45.993,6.655c32.163,0,45.671-6.655,45.671-6.655"></path><path style="fill:none;stroke:#505050;stroke-width:0.9054;stroke-linecap:round;stroke-linejoin:round;" d="M212.246,363.744c0,0,10.774,3.994,37.792,3.994c27.018,0,37.952-3.994,37.952-3.994"></path><line style="fill:none;stroke:#505050;stroke-width:0.9054;stroke-linecap:round;stroke-linejoin:round;" x1="222.698" y1="351.211" x2="209.833" y2="400.459"></line><line style="fill:none;stroke:#505050;stroke-width:0.9054;stroke-linecap:round;stroke-linejoin:round;" x1="276.732" y1="351.211" x2="289.598" y2="400.459"></line><path style="fill:#505050;" d="M219.563,401.067c0-0.499,7.236-30.112,8.684-34.106c-1.447,13.81-3.618,35.271-3.618,35.271L219.563,401.067z"></path><path style="fill:#505050;" d="M280.477,401.067c0-0.499-7.236-30.112-8.684-34.106c1.447,13.81,3.618,35.271,3.618,35.271L280.477,401.067z"></path></g><g><g><g><path style="fill:#6E6E6E;stroke:#000000;stroke-width:0.9054;stroke-linecap:round;stroke-linejoin:round;" d="M283.313,350.06c0,0-5.339,3.165-33.527,3.165c-28.19,0-33.529-3.165-33.529-3.165l1.414-6.13c0,0,4.163,2.373,32.233,2.373c28.07,0,31.996-2.373,31.996-2.373L283.313,350.06z"></path></g></g><g><g><path style="fill:#FFFFFF;stroke:#000000;stroke-width:0.9054;stroke-linecap:round;stroke-linejoin:round;" d="M284.665,348.322c0,0-6.304,2.727-34.492,2.727c-28.19,0-34.495-2.727-34.495-2.727l0.449-2.218c0,0,6.093,2.44,34.164,2.44c28.07,0,33.443-2.44,33.443-2.44L284.665,348.322z"></path></g><g><g><path style="fill:#FFFFFF;stroke:#000000;stroke-width:0.9054;stroke-linecap:round;stroke-linejoin:round;" d="M252.777,347.993c0,0,4.779-2.677,6.816-2.957c2.038-0.281,3.755,7.373,0.255,8.984c-1.473,0.672-7.387-2.597-7.387-2.597L252.777,347.993z"></path><path style="fill:none;stroke:#000000;stroke-width:0.9054;stroke-linecap:round;stroke-linejoin:round;" d="M253.097,350.126c0,0,2.252-0.593,3.699-0.197"></path></g><g><path style="fill:#FFFFFF;stroke:#000000;stroke-width:0.9054;stroke-linecap:round;stroke-linejoin:round;" d="M247.48,348.037c0,0-4.866-2.597-6.913-2.844c-2.045-0.245-3.465,7.126,0.087,8.679c1.495,0.646,7.252-2.41,7.252-2.41L247.48,348.037z"></path><path style="fill:none;stroke:#000000;stroke-width:0.9054;stroke-linecap:round;stroke-linejoin:round;" d="M247.468,350.126c0,0-2.252-0.593-3.699-0.197"></path></g><path style="fill:#FFFFFF;stroke:#000000;stroke-width:0.9054;stroke-linecap:round;stroke-linejoin:round;" d="M247.532,347.842c0.15-0.22,1.3-0.313,2.591-0.345c1.292,0.011,2.445,0.083,2.603,0.302c0.396,1.447,0.611,3.291,0.062,3.691c-0.462,0.337-1.612,0.953-2.583,0.934c-0.97-0.02-2.139-0.563-2.61-0.891C247.029,351.144,247.186,349.295,247.532,347.842z"></path></g></g></g></g></g></svg>