<svg xmlns="http://www.w3.org/2000/svg" width="500" height="500" version="1.1"><g id="x049"><g><path style="fill:#6E6E6E;stroke:#000000;stroke-linecap:round;stroke-linejoin:round;" d="M216.088,364.898c0,0,31.131,8.673,40.694,8.006c-1.111-6.004,0.89-7.784,0.89-7.784s-36.469-13.786-38.916-16.232C216.978,351.111,214.977,361.118,216.088,364.898z"></path><path style="fill:#6E6E6E;stroke:#000000;stroke-linecap:round;stroke-linejoin:round;" d="M261.229,362.452c0,0,9.341-9.562,15.122-29.798c1.778,0.667,1.778,0.667,1.778,0.667l0.89,3.113l2.891,8.895c0,0-6.671,14.899-12.897,20.014C263.453,365.343,261.229,362.452,261.229,362.452z"></path><path style="fill:#6E6E6E;stroke:#000000;stroke-linecap:round;stroke-linejoin:round;" d="M223.204,332.21c-0.667,0.222-1.694,0.47-2.001,1.334c-2.446,6.894-3.335,12.896-3.335,12.896s21.348,13.788,44.697,23.573c2.001-2.669,2.445-4.671,2.445-4.671s-26.24-16.678-41.583-32.021C222.625,332.52,223.204,332.21,223.204,332.21z"></path><path style="fill:none;stroke:#000000;stroke-linecap:round;stroke-linejoin:round;" d="M237.881,352.001c0,0,9.784,7.782,17.123,10.229"></path><g><path style="fill:#6E6E6E;stroke:#000000;stroke-linecap:round;stroke-linejoin:round;" d="M216.978,373.793l-1.779,2.669c0,0,0.792,1.327,1.112,3.113c0.656,3.671,1.18,11.56,1.779,12.008c1.15-0.128,17.123-4.892,38.026-15.121c12.885-4.631,24.209-8.331,28.464-13.343c0-3.113-0.667-8.45-0.445-9.784c0.223-1.557,0.667-2.446,0.667-2.446L282.8,350l-1.111,2.224c0,0-17.123,10.45-32.022,15.566c-14.898,5.114-31.799,8.672-31.799,8.672L216.978,373.793z"></path><path style="fill:none;stroke:#000000;stroke-linecap:round;stroke-linejoin:round;" d="M240.254,379.781c0,0,10.391-3.422,19.047-5.749"></path></g><g><g><path style="fill:#6E6E6E;stroke:#000000;stroke-linecap:round;stroke-linejoin:round;" d="M266.789,370.458c0,0,6.894,17.123,8.45,18.234c0.667-3.335,1.335-4.002,2.669-4.892c1.334-0.891,6.226-4.004,6.226-4.004s-9.562-10.229-11.785-10.673C269.235,369.791,266.789,370.458,266.789,370.458z"></path><path style="fill:#6E6E6E;stroke:#000000;stroke-linecap:round;stroke-linejoin:round;" d="M259.896,373.126c0,0-4.003,13.565-3.335,17.346c3.335,0,6.003-0.445,8.227,0.223c2.224,0.667,4.67-0.89,4.67-0.89l-4.447-18.68L259.896,373.126z"></path></g><g><path style="fill:#6E6E6E;stroke:#000000;stroke-linecap:round;stroke-linejoin:round;" d="M265.455,360.896c0,0,3.558-9.117,6.672-10.229c3.112-1.112,5.781,1.334,6.226,3.558c0.445,2.224,0.223,7.115,0.223,7.115s2.446,3.78,2.001,5.782c-0.444,2.002-1.778,4.67-3.113,4.67c-1.334,0-8.228-0.223-9.34-2.224C267.012,367.567,265.455,360.896,265.455,360.896z"></path><path style="fill:#6E6E6E;stroke:#000000;stroke-linecap:round;stroke-linejoin:round;" d="M261.229,361.785c0,0,2.224-1.779,3.78-2.002c1.557-0.222,4.447,2.891,4.447,5.115c0,2.224,0,4.893-1.111,5.337c-1.112,0.445-4.67,2.002-5.114,1.112C262.786,370.458,261.229,361.785,261.229,361.785z"></path><path style="fill:#6E6E6E;stroke:#000000;stroke-linecap:round;stroke-linejoin:round;" d="M262.119,360.896c0,0-6.894-4.225-10.229-3.78c-3.335,0.444-6.449,3.558-6.004,5.781s4.447,7.784,4.447,7.784s-0.667,5.114,2.447,7.56c3.112,2.446,4.002,1.335,5.114,1.335c1.111,0,7.115-6.894,7.115-8.895C265.01,368.679,264.787,362.229,262.119,360.896z"></path><path style="fill:none;stroke:#000000;stroke-linecap:round;stroke-linejoin:round;" d="M259.006,367.567c0,0,1.779-1.557,5.114-1.334"></path></g></g></g></g></svg>