<svg xmlns="http://www.w3.org/2000/svg" width="500" height="500" version="1.1"><g id="x050"><g><g><path style="fill:#505050;stroke:#000000;stroke-linecap:round;stroke-linejoin:round;" d="M216.76,364.238c0,0-2.245,11.828-1.796,15.12c-1.646-0.75-4.641-0.6-5.389,0.747c-0.748,1.348-2.695,3.593-2.695,3.593s2.844-14.221,7.484-20.357C216.461,361.395,216.76,364.238,216.76,364.238z"></path><path style="fill:#505050;stroke:#000000;stroke-linecap:round;stroke-linejoin:round;" d="M218.258,348.224c0,0-4.491-2.097-5.389-1.797c-0.898,0.299-3.892,4.64-3.593,6.437c0.299,1.796,2.395,4.34,2.544,4.789c0.15,0.449-1.198,4.492-0.898,6.137c0.299,1.647,3.892,2.396,4.79,2.098c0.898-0.3,3.293-7.935,3.442-8.533C219.305,356.755,218.258,348.224,218.258,348.224z"></path></g><g><path style="fill:#6E6E6E;" d="M217.808,351.814c0,0-2.245,4.491-2.395,5.539c-0.149,1.048,1.347,2.395,3.593,3.593c0.898-0.449,1.197-1.198,1.197-1.198l1.498,0.898l-0.749,1.647c0,0,2.395,3.293,8.083,4.788c0.598-0.897,0.897-1.047,0.897-1.047l2.245,1.647c-0.6,1.346,3.293,6.137,9.73,7.334c0.299-0.299,0.748-0.899,0.748-0.899l1.946,0.75l-0.749,1.348c0,0,3.592,4.49,14.97,3.442c0.299-0.898,0.147-1.498,0.147-1.498s1.799-0.449,3.145,0c0,0.449,0.15,1.647,0.15,1.647s4.789,2.096,9.879,0.299c-0.448-1.347-0.448-2.094-0.448-2.094s1.944-0.75,2.542-0.302c0.602,0.449,1.348,2.396,1.348,2.396s5.539-0.747,7.038-2.544c0.148-1.199,0-2.097,0-2.097s3.141-1.047,4.49-3.292c-1.051-6.736-2.697-16.915-5.092-20.358c-6.887,1.199-22.554,4.414-34.428,3.894C230.531,354.959,217.808,351.814,217.808,351.814z"></path><path style="fill:#FFFFFF;" d="M216.013,356.007c0,0,2.844,2.545,4.19,2.694c0.898-0.749,0.75-1.348,0.75-1.348l1.946,1.048l-0.15,1.347c0,0,3.143,3.294,6.735,3.893c1.048-0.749,1.947-0.749,1.947-0.749c1.047,0.6,1.346,2.096,1.346,2.096s4.491,6.587,9.581,7.335c0.748-0.896,0.449-1.796,0.449-1.796l2.094,0.899v2.394c0,0,5.389,3.891,13.325,2.844c0.299-1.049,0.299-1.049,0.299-1.049s2.246-1.497,3.442-0.598c0.897,1.049,0.897,1.497,0.897,1.497s4.491,0.897,8.384-0.151c-0.6-0.897-0.45-1.346-0.45-1.346s1.496-0.749,3.293,0c0.148,0.749,0.148,1.198,0.148,1.198s5.841-1.05,7.936-2.396c-0.449-1.347-0.599-1.946-0.599-1.946s3.742-1.347,4.79-3.143c0.897,2.394,0.749,3.442,0.749,3.442s-4.191,3.741-4.49,3.741c0.148,0.749,0,1.647,0,1.647s-4.792,2.394-7.038,2.544c-1.046-1.347-1.348-2.396-1.348-2.396l-2.542,0.302l0.448,2.094c0,0-6.287,0.749-9.879-0.299c-0.3-1.198-0.15-1.647-0.15-1.647h-3.145c-0.447,0.301-0.147,1.498-0.147,1.498s-8.833,1.197-14.97-3.442c0.448-0.301,0.749-1.348,0.749-1.348l-1.946-0.75c-0.748,0.899-7.784-0.748-10.328-5.837c-0.45-0.148-0.15-0.598-0.15-0.598l-2.545-1.198c-0.598,0.598-7.035-1.348-8.232-4.042c0.3-0.598,0.149-1.347,0.149-1.347l-1.348-1.348l-1.197,1.198c0,0-2.993-0.897-3.593-2.845C215.264,356.605,216.013,356.007,216.013,356.007z"></path><path style="fill:none;stroke:#000000;stroke-linecap:round;stroke-linejoin:round;" d="M217.808,351.814c0,0-2.245,4.491-2.395,5.539c-0.149,1.048,1.347,2.395,3.593,3.593c0.898-0.449,1.197-1.198,1.197-1.198l1.498,0.898l-0.749,1.647c0,0,2.395,3.293,8.083,4.788c0.598-0.897,0.897-1.047,0.897-1.047l2.245,1.647c-0.6,1.346,3.293,6.137,9.73,7.334c0.299-0.299,0.748-0.899,0.748-0.899l1.946,0.75l-0.749,1.348c0,0,3.592,4.49,14.97,3.442c0.299-0.898,0.147-1.498,0.147-1.498s1.799-0.449,3.145,0c0,0.449,0.15,1.647,0.15,1.647s4.789,2.096,9.879,0.299c-0.448-1.347-0.448-2.094-0.448-2.094s1.944-0.75,2.542-0.302c0.602,0.449,1.348,2.396,1.348,2.396s5.539-0.747,7.038-2.544c0.148-1.199,0-2.097,0-2.097s3.141-1.047,4.49-3.292c-1.051-6.736-2.697-16.915-5.092-20.358c-6.887,1.199-22.554,4.414-34.428,3.894C230.531,354.959,217.808,351.814,217.808,351.814z"></path><path style="fill:none;stroke:#000000;stroke-linecap:round;stroke-linejoin:round;" d="M229.185,366.484c0-0.449,1.646-5.539,2.246-7.036"></path><line style="fill:none;stroke:#000000;stroke-linecap:round;stroke-linejoin:round;" x1="232.178" y1="367.683" x2="233.825" y2="360.646"></line><line style="fill:none;stroke:#000000;stroke-linecap:round;stroke-linejoin:round;" x1="241.908" y1="375.017" x2="243.554" y2="363.491"></line><line style="fill:none;stroke:#000000;stroke-linecap:round;stroke-linejoin:round;" x1="244.452" y1="376.065" x2="245.5" y2="363.789"></line><line style="fill:none;stroke:#000000;stroke-linecap:round;stroke-linejoin:round;" x1="258.374" y1="379.058" x2="258.524" y2="364.838"></line><line style="fill:none;stroke:#000000;stroke-linecap:round;stroke-linejoin:round;" x1="262.416" y1="379.058" x2="261.668" y2="364.987"></line><line style="fill:none;stroke:#000000;stroke-linecap:round;stroke-linejoin:round;" x1="271.396" y1="379.358" x2="269.449" y2="365.736"></line><path style="fill:none;stroke:#000000;stroke-linecap:round;stroke-linejoin:round;" d="M275.137,379.058c0-0.449-2.541-13.022-2.541-13.022"></path><line style="fill:none;stroke:#000000;stroke-linecap:round;stroke-linejoin:round;" x1="282.625" y1="375.914" x2="280.827" y2="364.987"></line><path style="fill:none;stroke:#000000;stroke-linecap:round;stroke-linejoin:round;" d="M221.401,361.845c0.149-0.749,2.395-4.491,2.395-4.491"></path><line style="fill:none;stroke:#000000;stroke-linecap:round;stroke-linejoin:round;" x1="219.006" y1="360.946" x2="221.55" y2="356.904"></line></g><path style="fill:#505050;stroke:#000000;stroke-linecap:round;stroke-linejoin:round;" d="M281.576,347.325c0,0-7.485,3.29-31.585,3.29s-31.583-3.29-31.583-3.29l-1.198,5.538c0,0,5.855,4.039,32.781,4.039s32.783-4.039,32.783-4.039L281.576,347.325z"></path></g></g></svg>