<svg xmlns="http://www.w3.org/2000/svg" width="500" height="500" version="1.1"><g id="x051"><g><g><path style="fill:#FFFFFF;stroke:#000000;stroke-width:1.0294;stroke-linecap:round;stroke-linejoin:round;" d="M192.498,382.881l84.488,3.893l0.971,7.255c0,0-1.457,1.946-3.155,2.477c-1.7,0.53-3.399-0.53-3.399-0.53s0.486,1.416-1.456,2.299c-1.942,0.887-3.886,0.354-3.886,0.354s-0.728,1.771-4.612,2.123c-3.886,0.355-3.156-0.883-3.156-0.883s-0.242,1.415-3.399,1.77c-3.154,0.355-3.642-1.062-3.642-1.062s-0.486,1.236-3.399,1.236c-2.913,0-3.156-1.236-3.156-1.236s-1.214,0.707-4.126,0.885c-2.914,0.177-3.4-1.77-3.4-1.77s-0.971,0.707-4.127,0.354c-3.156-0.354-3.156-2.478-3.156-2.478s-0.972,0.354-3.399,0c-2.428-0.354-2.185-2.478-2.185-2.478s-1.942,0.532-3.884,0.177c-1.943-0.353-2.185-2.123-2.185-2.123s-0.971,0.886-3.399,0.71c-2.428-0.18-3.885-1.771-3.885-1.771l-0.485,2.124c0,0-1.943,1.592-3.643,1.416c-1.699-0.178-1.699-2.125-1.699-2.125s-1.699,0.885-4.127,0.356c-2.428-0.533-2.428-2.478-2.428-2.478s-1.943,0.354-3.642-0.179c-1.699-0.53-1.699-2.301-1.699-2.301s-1.7-0.354-3.157-0.528c-1.457-0.179-0.485-2.301-0.485-3.186C189.585,384.298,193.227,383.059,192.498,382.881z"></path><path style="fill:none;stroke:#000000;stroke-width:1.0294;stroke-linecap:round;stroke-linejoin:round;" d="M210.95,392.081c0,0,3.157-4.245,3.399-4.245"></path><path style="fill:#FFFFFF;stroke:#000000;stroke-width:1.0294;stroke-linecap:round;stroke-linejoin:round;" d="M307.819,374.919l2.913,2.124c0,0-0.484,1.592-1.213,1.945c-0.729,0.354,0,2.124-1.457,2.3c-1.456,0.177-2.429,0.708-2.429,0.708l-1.213,1.946l-4.127-4.247L307.819,374.919z"></path><path style="fill:#505050;stroke:#000000;stroke-width:1.0294;stroke-linecap:round;stroke-linejoin:round;" d="M290.341,362.532c1.456,0,15.78,6.548,18.936,11.326c-3.885,7.076-7.77,8.846-7.77,8.846L290.341,362.532z"></path><path style="fill:#FFFFFF;stroke:#000000;stroke-width:1.0294;stroke-linecap:round;stroke-linejoin:round;" d="M278.716,396.605c0.662,0.322,0.662,2.248,1.765,2.892c1.103,0.645,3.086,1.284,3.527,0.482c0.44-0.805,0.88,0,2.864-0.643c1.984-0.644,2.867-1.768,2.867-1.768s1.101,0.483,3.307-0.483c2.205-0.963,2.646-2.408,2.646-2.408s1.984,1.283,3.307,0.32c1.322-0.965,1.984-2.571,1.984-2.571s1.322-0.32,2.646-1.284c1.322-0.963,1.764-2.732,1.764-2.732l-1.983-3.051L278.716,396.605z"></path><path style="fill:#FFFFFF;stroke:#000000;stroke-width:1.0294;stroke-linecap:round;stroke-linejoin:round;" d="M298.353,388.542c0,0,3.884,3.539,3.884,4.425c-1.456,2.122-2.671,2.654-4.372,2.476"></path><path style="fill:#6E6E6E;stroke:#000000;stroke-width:1.0294;stroke-linecap:round;stroke-linejoin:round;" d="M288.154,360.233c-1.942-6.547-2.913-7.015-5.097-8.605c-0.918-0.669-2.09-1.679-3.144-2.628h-60.132c-3.95,3.012-5.676,7.051-5.676,7.051v2.301c0,0-9.226,5.421-9.226,7.189c0,1.77,0,2.654,0,2.654s-10.441,11.324-13.839,15.394c1.942,2.653,13.839,7.963,19.908,8.492c-0.971-0.706-0.971-3.007-0.971-3.007s8.497-0.532,12.867,1.592c4.371,2.124,5.828,4.777,10.684,5.839c4.498,0.983,8.587,0.904,15.536,0.888c6.95,0.017,11.039,0.096,15.539-0.888c2.828-0.618,4.505-1.779,6.274-3.058c2.781-1.031,5.567-1.854,6.35-1.366c1.7,1.062-0.729,5.31,0.729,5.485c1.457,0.177,5.584,0,8.012-1.062c2.43-1.063,2.913-3.715,6.555-4.6c3.643-0.885,11.654-4.069,13.11-6.192C303.936,377.572,291.311,363.063,288.154,360.233z"></path><path style="fill:#505050;" d="M230.614,393.673c0,0,4.856-16.277,8.741-19.462c-0.972,9.202-1.456,22.294-1.456,22.294S231.586,397.213,230.614,393.673z"></path><path style="fill:#505050;" d="M235.957,358.586c0,0-0.972,12.74,13.595,18.637c0,0,9.712-5.071,10.198-6.132c-5.828,1.414-8.797,1.818-13.597-1.063C237.899,365.074,235.957,358.586,235.957,358.586z"></path><path style="fill:none;stroke:#000000;stroke-width:1.0294;stroke-linecap:round;stroke-linejoin:round;" d="M277.957,392.438c0,0-0.729-13.626-8.253-22.827"></path><path style="fill:none;stroke:#000000;stroke-width:1.0294;stroke-linecap:round;stroke-linejoin:round;" d="M209.25,389.074c0,0,3.884-4.538,13.838-13.563c3.156-6.545,5.342-13.091,5.342-13.091"></path><path style="fill:none;stroke:#000000;stroke-width:1.0294;stroke-linecap:round;stroke-linejoin:round;" d="M203.666,369.787c0,0,5.584-6.369,8.498-10.438"></path></g></g></g></svg>