<svg xmlns="http://www.w3.org/2000/svg" width="500" height="500" version="1.1"><g id="x052"><g><path style="fill:#FF7D9C;stroke:#000000;stroke-width:0.9512;stroke-linecap:round;stroke-linejoin:round;" d="M237.385,383.494c0,0,0,6.229-1.207,6.423c-1.206,0.195-13.589,1.805-17.511,1.416c-3.921-0.389-18.429-7.278-19.333-7.666c1.508-5.84,6.565-13.796,11.693-17.492c1.64-5.175,3.732-10.511,6.749-12.846c7.542-2.53,27.453-0.973,27.453-0.973L237.385,383.494z"></path><path style="fill:#6E6E6E;stroke:#000000;stroke-width:0.9512;stroke-linecap:round;stroke-linejoin:round;" d="M262.615,383.494c0,0-4.621,7.591-3.414,7.786c1.207,0.193,21.816,0.777,25.738,0.389s17.156-4.948,18.061-5.336c-1.508-5.84-6.871-12.97-12-16.666c-3.333-7.334-5.76-14.003-8.775-16.338c-7.543-2.53-27.453-0.973-27.453-0.973L262.615,383.494z"></path><path style="fill:#FFE66B;stroke:#000000;stroke-width:0.9512;stroke-linecap:round;stroke-linejoin:round;" d="M254.676,354.303c-3.279-1.013-5.209-1.372-6.335-1.47c-1.125,0.098-3.056,0.457-6.335,1.47c-6.033,4.476-16.672,25.281-15.839,35.234c1,1.357,11.111,2.131,15.333,2.714c2.763,0.383,28.919-0.734,31.333-0.15C269.167,375.212,260.709,358.778,254.676,354.303z"></path><path style="fill:#FF7D9C;stroke:#000000;stroke-linecap:round;stroke-linejoin:round;" d="M280.766,343.941c0,0-4.684,3.309-30.766,3.309s-30.765-3.309-30.765-3.309l-3.868,12.476c0,0,5.382,3.833,34.632,3.833s34.632-3.833,34.632-3.833L280.766,343.941z"></path></g></g></svg>