<svg xmlns="http://www.w3.org/2000/svg" width="500" height="500" version="1.1"><g id="x053"><g><path style="fill:#FAE6CC;stroke:#000000;stroke-linecap:round;stroke-linejoin:round;" d="M216.688,368.969c0,0-1.169,1.169-1.753,2.923c1.022,0,0.438,1.606,1.899,2.775c1.461-1.606,2.776-2.337,2.776-2.337s-0.584-0.292,1.9,0.877c0.876-1.462,1.169-2.923,1.169-2.923s0.146-0.293,2.191,0.438c0.73,1.461,1.314,1.899,1.899,2.338c1.023-1.462,1.753-2.484,1.753-2.484s1.461,2.338,2.922,2.776c0.877-1.754,1.753-2.63,1.753-2.63s1.315-0.146,1.899,0.146c0.585,0.292,2.045,1.023,2.045,1.023l0.731,1.461h2.483l1.461-0.877c0,0,1.022,2.338,2.191,2.923c1.168-1.9,1.168-2.923,1.168-2.923s0.293,2.046,0.731,2.046c0.438,0,1.168-2.191,1.168-2.191s-7.889-8.037-11.396-8.037c-3.507,0-13.004-1.314-13.004-1.314S217.418,366.047,216.688,368.969z"></path><path style="fill:#FAE6CC;stroke:#000000;stroke-linecap:round;stroke-linejoin:round;" d="M283.452,368.969c0,0,1.168,1.169,1.753,2.923c-1.022,0-0.438,1.606-1.899,2.775c-1.461-1.606-2.777-2.337-2.777-2.337s0.585-0.292-1.898,0.877c-0.877-1.462-1.17-2.923-1.17-2.923s-0.146-0.293-2.191,0.438c-0.729,1.461-1.313,1.899-1.898,2.338c-1.023-1.462-1.753-2.484-1.753-2.484s-1.462,2.338-2.923,2.776c-0.877-1.754-1.753-2.63-1.753-2.63s-1.315-0.146-1.899,0.146s-2.047,1.023-2.047,1.023l-0.729,1.461h-2.483l-1.462-0.877c0,0-1.022,2.338-2.191,2.923c-1.168-1.9-1.168-2.923-1.168-2.923s-0.293,2.046-0.731,2.046s-1.169-2.191-1.169-2.191s7.89-8.037,11.397-8.037c3.506,0,13.002-1.314,13.002-1.314S282.721,366.047,283.452,368.969z"></path><path style="fill:#6E6E6E;stroke:#000000;stroke-linecap:round;stroke-linejoin:round;" d="M283.896,355.089L250,359.472l-33.896-4.383c0,0-1.899,1.753-1.753,2.337c0.146,0.585,1.899,2.338,1.899,2.338s-1.753,7.013-1.022,8.036c0.73,1.022,2.191,2.191,2.191,2.191s3.36-5.113,5.99-4.967c2.63,0.146,14.319,3.36,14.319,3.36s6.867,5.113,9.351,5.405c2.338,0.292,2.922,0.146,2.922,0.146s0.584,0.146,2.923-0.146c2.483-0.292,9.351-5.405,9.351-5.405s11.688-3.215,14.318-3.36c2.63-0.146,5.99,4.967,5.99,4.967s1.461-1.169,2.191-2.191c0.73-1.023-1.022-8.036-1.022-8.036s1.753-1.753,1.898-2.338C285.796,356.842,283.896,355.089,283.896,355.089z"></path><path style="fill:none;stroke:#000000;stroke-linecap:round;stroke-linejoin:round;" d="M280.976,357.134c0,0,0.146,2.483-0.146,2.922s1.607,6.722,1.462,7.306c-0.146,0.585-0.438,1.461-0.438,1.461"></path><path style="fill:none;stroke:#000000;stroke-linecap:round;stroke-linejoin:round;" d="M240.504,363.71c0,0,6.428,5.697,8.912,8.327"></path><path style="fill:none;stroke:#000000;stroke-linecap:round;stroke-linejoin:round;" d="M245.032,360.494c0,0,1.316,8.621,2.484,9.79c1.168,1.168,4.968,0,4.968,0l2.045-10.082"></path><path style="fill:#6E6E6E;stroke:#000000;stroke-linecap:round;stroke-linejoin:round;" d="M283.605,351.144l-1.898-1.169l-0.293,1.023c0,0-7.768,2.239-14.026,2.775c-5.113,0.439-17.533,0.146-17.533,0.146s-12.419,0.293-17.533-0.146c-6.26-0.536-14.027-2.775-14.027-2.775l-0.292-1.023l-1.899,1.169l-0.438,4.676c0,0,7.014,2.776,16.51,3.652c9.497,0.877,17.679,0,17.679,0s8.183,0.877,17.68,0c9.496-0.876,16.51-3.652,16.51-3.652L283.605,351.144z"></path><g><path style="fill:none;stroke:#000000;stroke-linecap:round;stroke-linejoin:round;" d="M223.701,352.604c0,0-0.877,3.946-0.877,4.968"></path><path style="fill:none;stroke:#000000;stroke-linecap:round;stroke-linejoin:round;" d="M221.217,352.312c0,0-0.876,3.946-0.876,4.969"></path></g><g><path style="fill:none;stroke:#000000;stroke-linecap:round;stroke-linejoin:round;" d="M276.3,352.604c0,0,0.877,3.946,0.877,4.968"></path><path style="fill:none;stroke:#000000;stroke-linecap:round;stroke-linejoin:round;" d="M278.783,352.312c0,0,0.877,3.946,0.877,4.969"></path></g><circle style="fill:none;stroke:#000000;stroke-linecap:round;stroke-linejoin:round;" cx="250.293" cy="356.55" r="1.9"></circle><line style="fill:none;stroke:#000000;stroke-linecap:round;stroke-linejoin:round;" x1="261.396" y1="354.942" x2="261.396" y2="359.034"></line><line style="fill:none;stroke:#000000;stroke-linecap:round;stroke-linejoin:round;" x1="239.919" y1="354.942" x2="239.919" y2="359.034"></line><path style="fill:#6E6E6E;stroke:#000000;stroke-linecap:round;stroke-linejoin:round;" d="M221.217,359.325c0,0,10.082-1.461,13.734-1.022c3.653,0.438,8.767,2.776,8.767,2.776"></path></g></g></svg>