<svg xmlns="http://www.w3.org/2000/svg" width="500" height="500" version="1.1"><g id="x054"><g><path style="fill:#FFFFFF;stroke:#000000;stroke-width:0.9535;stroke-linecap:round;stroke-linejoin:round;" d="M194.375,384.771l81.729,3.595l0.939,6.696c0,0-1.409,1.797-3.053,2.287c-1.645,0.489-3.288-0.49-3.288-0.49s0.47,1.307-1.41,2.124c-1.878,0.815-3.757,0.327-3.757,0.327s-0.705,1.633-4.463,1.96c-3.757,0.326-3.052-0.817-3.052-0.817s-0.235,1.307-3.289,1.634s-3.522-0.979-3.522-0.979s-0.47,1.143-3.289,1.143c-2.818,0-3.053-1.143-3.053-1.143s-1.174,0.652-3.993,0.816c-2.818,0.163-3.287-1.635-3.287-1.635s-0.94,0.654-3.993,0.328c-3.054-0.328-3.054-2.287-3.054-2.287s-0.939,0.327-3.288,0c-2.348-0.328-2.113-2.288-2.113-2.288s-1.879,0.491-3.758,0.164c-1.879-0.326-2.114-1.96-2.114-1.96s-0.939,0.816-3.288,0.653c-2.348-0.163-3.757-1.634-3.757-1.634l-0.47,1.961c0,0-1.879,1.469-3.522,1.307c-1.644-0.164-1.644-1.962-1.644-1.962s-1.644,0.818-3.993,0.328c-2.348-0.489-2.348-2.287-2.348-2.287s-1.879,0.326-3.523-0.164c-1.644-0.488-1.644-2.122-1.644-2.122s-1.644-0.327-3.053-0.49c-1.41-0.164-0.47-2.124-0.47-2.941C191.557,386.079,195.08,384.936,194.375,384.771z"></path><path style="fill:none;stroke:#000000;stroke-width:0.9535;stroke-linecap:round;stroke-linejoin:round;" d="M212.224,392.721c0,0,3.053-3.559,3.288-3.559"></path><path style="fill:#FFFFFF;stroke:#000000;stroke-width:0.9535;stroke-linecap:round;stroke-linejoin:round;" d="M305.931,377.421l2.819,1.96c0,0-0.47,1.472-1.174,1.797c-0.707,0.326,0,1.961-1.411,2.124c-1.409,0.162-2.348,0.653-2.348,0.653l-1.175,1.796l-3.992-3.92L305.931,377.421z"></path><path style="fill:#505050;stroke:#000000;stroke-width:0.9535;stroke-linecap:round;stroke-linejoin:round;" d="M289.021,367.951c1.41,0,15.266,5.489,18.319,9.492c-3.759,5.934-7.516,7.417-7.516,7.417L289.021,367.951z"></path><path style="fill:#FFFFFF;stroke:#000000;stroke-width:0.9535;stroke-linecap:round;stroke-linejoin:round;" d="M277.777,397.441c0.64,0.297,0.64,2.077,1.706,2.672c1.066,0.592,2.985,1.185,3.412,0.443c0.426-0.741,0.853,0,2.773-0.594c1.919-0.593,2.772-1.631,2.772-1.631s1.065,0.445,3.197-0.445c2.134-0.891,2.561-2.225,2.561-2.225s1.918,1.187,3.199,0.296c1.279-0.89,1.919-2.372,1.919-2.372s1.279-0.297,2.56-1.188c1.279-0.889,1.705-2.521,1.705-2.521l-1.918-2.818L277.777,397.441z"></path><path style="fill:#FFFFFF;stroke:#000000;stroke-width:0.9535;stroke-linecap:round;stroke-linejoin:round;" d="M296.771,389.999c0,0,3.758,3.267,3.758,4.084c-1.408,1.959-2.584,2.45-4.228,2.286"></path><path style="fill:#6E6E6E;stroke:#000000;stroke-width:0.9535;stroke-linecap:round;stroke-linejoin:round;" d="M286.907,366.023c-1.878-5.487-2.817-13.646-4.931-14.981c-2.114-1.335-5.637-4.302-5.637-4.302S262.651,351.897,249,352c-12.144,0.092-24.257-4.93-26.677-4.073c-4.932,2.522-7.046,6.824-7.046,6.824l0,1.928c0,0-8.924,12.311-8.924,13.794s0,2.225,0,2.225s-10.099,9.493-13.387,12.905c1.878,2.225,13.387,6.674,19.258,7.118c-0.939-0.593-0.939-2.52-0.939-2.52s8.22-0.445,12.447,1.335c4.228,1.779,5.637,4.003,10.334,4.893c4.353,0.825,8.308,0.759,15.03,0.745c6.724,0.014,10.677,0.08,15.029-0.745c2.738-0.518,4.359-1.49,6.072-2.563c2.69-0.863,5.386-1.556,6.143-1.146c1.644,0.891-0.705,4.451,0.704,4.599c1.409,0.149,5.402,0,7.75-0.891c2.349-0.89,2.817-3.113,6.342-3.855c3.522-0.741,11.272-3.411,12.682-5.191C302.173,380.558,289.961,368.396,286.907,366.023z"></path><path style="fill:#505050;" d="M231.247,394.058c0,0,4.698-13.647,8.456-16.316c-0.939,7.713-1.409,18.688-1.409,18.688S232.186,397.022,231.247,394.058z"></path><path style="fill:#505050;" d="M236.414,356.877c0,0-0.939,10.679,13.151,15.623c0,0,9.395-4.252,9.864-5.142c-5.637,1.187-8.509,1.525-13.152-0.891C238.293,362.314,236.414,356.877,236.414,356.877z"></path><path style="fill:none;stroke:#000000;stroke-width:0.9535;stroke-linecap:round;stroke-linejoin:round;" d="M277.044,393.02c0,0-0.704-11.422-7.985-19.136"></path><path style="fill:none;stroke:#000000;stroke-width:0.9535;stroke-linecap:round;stroke-linejoin:round;" d="M210.58,390.201c0,0,3.757-11.57,13.386-19.136c3.053-5.487,5.167-10.975,5.167-10.975"></path><path style="fill:none;stroke:#000000;stroke-width:0.9535;stroke-linecap:round;stroke-linejoin:round;" d="M205.178,374.032c0,0,5.402-5.339,8.22-8.751"></path></g><path style="fill:#A36E61;stroke:#000000;stroke-linecap:round;stroke-linejoin:round;" d="M281.659,345.012c0,0-5.327,2.988-31.66,2.988s-31.659-2.988-31.659-2.988l-1.473,7.076c0,0,10.632,3.579,33.132,3.579s33.133-3.579,33.133-3.579L281.659,345.012z"></path></g></svg>