<svg xmlns="http://www.w3.org/2000/svg" width="500" height="500" version="1.1"><g id="x055"><g><path style="fill:#6E6E6E;stroke:#000000;stroke-linecap:round;stroke-linejoin:round;" d="M281.913,345.996c0,0-3.915,2.004-31.581,2.004s-32.244-2.004-32.244-2.004s-2.172,5.065-1.689,6.03C216.883,352.991,234.321,355,250,355s33.118-2.009,33.601-2.974S281.913,345.996,281.913,345.996z"></path><g><path style="fill:#6E6E6E;stroke:#000000;stroke-width:0.9136;stroke-linecap:round;stroke-linejoin:round;" d="M287.148,364.023c-0.482-3.769-3.307-12.452-3.307-12.452S277.334,355,249.667,355s-32.544-3.429-32.544-3.429s-2.824,8.684-3.307,12.452c-6.754,8.028-13.83,21.957-13.83,21.957s12.142,4.424,24.686,4.587c0,1.312,0.482,1.967,0.482,1.967s8.201,1.966,19.78,1.966c1.688-0.328,2.653-0.819,2.653-0.819l2.895-0.327l2.896,0.327c0,0,0.965,0.491,2.653,0.819c11.578,0,19.78-1.966,19.78-1.966s0.482-0.655,0.482-1.967c12.543-0.163,23.72-4.587,23.72-4.587S296.154,374.02,287.148,364.023z"></path><g><line style="fill:#6E6E6E;stroke:#000000;stroke-width:0.9136;stroke-linecap:round;stroke-linejoin:round;" x1="231.373" y1="362.549" x2="224.377" y2="391.715"></line><line style="fill:#6E6E6E;stroke:#000000;stroke-width:0.9136;stroke-linecap:round;stroke-linejoin:round;" x1="268.627" y1="362.549" x2="275.623" y2="391.715"></line></g></g></g></g></svg>