<svg xmlns="http://www.w3.org/2000/svg" width="500" height="500" version="1.1"><g id="x057"><g><path style="fill:#6E6E6E;stroke:#000000;stroke-width:0.8796;stroke-linecap:round;stroke-linejoin:round;" d="M285.771,390.902l-36.167,2.948l-36.167-2.948c0,0-0.264,3.44,0.792,4.425c1.056,0.982,2.112,0.982,2.112,0.982s0.264-0.49,2.375,0c2.112,0.492,3.168,0.738,4.752,0.983c1.584,0.246,3.96,0.246,3.96,0.246s1.848,0,3.168,0.244c1.32,0.247,2.64-0.49,2.64-0.49c2.376,1.475,5.544,0.491,7.392,0.737c1.848,0.245,2.64,1.229,3.432,1.229s3.432,0,3.432,0l2.111,0.491l2.112-0.491c0,0,2.64,0,3.433,0c0.792,0,1.584-0.983,3.432-1.229c1.849-0.246,5.017,0.737,7.392-0.737c0,0,1.321,0.737,2.64,0.49c1.32-0.244,3.169-0.244,3.169-0.244s2.376,0,3.959-0.246c1.584-0.245,2.64-0.491,4.752-0.983c2.111-0.49,2.376,0,2.376,0s1.057,0,2.112-0.982C286.034,394.343,285.771,390.902,285.771,390.902z"></path><path style="fill:#6E6E6E;stroke:#000000;stroke-width:0.8796;stroke-linecap:round;stroke-linejoin:round;" d="M282.212,354.085c-0.172-0.529-0.269-0.813-0.269-0.813S277.499,356,250,356s-31.943-2.729-31.943-2.729s-0.097,0.284-0.268,0.813c-1.552,4.788-9.237,21.201-6.86,37.801c6.864,2.703,34.583,4.179,39.071,4.179c4.49,0,32.208-1.476,39.071-4.179C291.448,375.286,283.764,358.873,282.212,354.085z"></path><path style="fill:none;stroke:#505050;stroke-width:0.8796;stroke-linecap:round;stroke-linejoin:round;" d="M223.733,356.371c0,0-3.696,17.82-1.584,31.092"></path><path style="fill:none;stroke:#505050;stroke-width:0.8796;stroke-linecap:round;stroke-linejoin:round;" d="M278.644,355.388c0,0,6.864,14.625,5.544,29.862"></path><path style="fill:none;stroke:#505050;stroke-width:0.8796;stroke-linecap:round;stroke-linejoin:round;" d="M238.78,357.354c-0.527,0.736-4.488,17.573-0.792,28.142"></path><path style="fill:none;stroke:#505050;stroke-width:0.8796;stroke-linecap:round;stroke-linejoin:round;" d="M227.165,379.965c0,0-0.792,5.776,1.32,10.692"></path><path style="fill:none;stroke:#505050;stroke-width:0.8796;stroke-linecap:round;stroke-linejoin:round;" d="M259.372,356.862c0,0,5.016,10.939,2.111,33.795"></path><path style="fill:none;stroke:#505050;stroke-width:0.8796;stroke-linecap:round;stroke-linejoin:round;" d="M271.251,356.862c0,0,5.28,6.515,4.225,24.21"></path></g></g></svg>