<svg xmlns="http://www.w3.org/2000/svg" width="500" height="500" version="1.1"><g id="x058"><g><path style="fill:#6E6E6E;" d="M291.467,392.367c-1.957-28.505-10.065-42.495-10.738-44.027c0.376-0.161,0.699-0.337,0.962-0.522c-0.651-2.269-1.302-3.53-1.302-3.53s-14.658,2.772-30.294,2.772c-15.635,0-30.293-2.772-30.293-2.772s-0.572,1.109-1.18,3.118l-0.284-0.064c0,0-6.7,13.026-9.894,36.202c-7.875,24.148-10.349,40.461-10.209,49.388c6.993,4.057,21.27,8.563,25.059,8.79c0.017-0.353,0.039-0.733,0.061-1.137c1.583-0.229,4.401-0.405,6.582,0.746c0.218,0.117,0.433,0.245,0.638,0.391c0,1.352,0.875,2.25,0.875,2.25s15.151,3.158,24.472-0.449c9.325-3.606,19.229-6.311,19.229-6.311c0.039-0.591-0.004-2.619-0.11-5.7c2.99-0.405,6.578,0.417,7.688,1.42c1.747,1.576,8.74,4.956,11.651,5.409C295.544,434.057,294.67,407.241,291.467,392.367z"></path><path style="fill:#505050;" d="M229.992,441.268l5.245-81.576c0,0-12.526,57.242-11.944,82.029L229.992,441.268z"></path><path style="fill:#505050;" d="M271.508,375.578c-0.57-0.914,3.53,55.933,3.53,55.933l6.084-0.834C281.122,430.677,277.627,385.381,271.508,375.578z"></path><g><g id="bottomsXMLID_2_"><g><path style="fill:none;stroke:#000000;stroke-linecap:round;stroke-linejoin:round;" d="M275.038,431.511c2.99-0.405,6.578,0.417,7.688,1.42c1.747,1.576,8.74,4.956,11.651,5.409c1.166-4.283,0.292-31.099-2.911-45.973c-1.957-28.505-10.065-42.495-10.738-44.027"></path><path style="fill:none;stroke:#000000;stroke-linecap:round;stroke-linejoin:round;" d="M218.621,347.405l-0.284-0.064c0,0-6.7,13.026-9.894,36.202c-7.875,24.148-10.349,40.461-10.209,49.388c6.993,4.057,21.27,8.563,25.059,8.79c0.017-0.353,0.039-0.733,0.061-1.137c1.583-0.229,4.401-0.405,6.582,0.746c0.218,0.117,0.433,0.245,0.638,0.391c0,1.352,0.875,2.25,0.875,2.25s15.151,3.158,24.472-0.449c9.325-3.606,19.229-6.311,19.229-6.311c0.039-0.591-0.004-2.619-0.11-5.7c-0.65-19.266-5.392-69.314-6.59-75.608"></path><line style="fill:none;stroke:#000000;stroke-linecap:round;stroke-linejoin:round;" x1="229.992" y1="441.268" x2="235.818" y2="351.847"></line><path style="fill:none;stroke:#000000;stroke-linecap:round;stroke-linejoin:round;" d="M280.729,348.34c0.376-0.161,0.699-0.337,0.962-0.522c-0.651-2.269-1.302-3.53-1.302-3.53s-14.658,2.772-30.294,2.772c-15.635,0-30.293-2.772-30.293-2.772s-0.572,1.109-1.18,3.118c-0.039,0.131-0.083,0.269-0.122,0.412c1.936,1.352,7.036,2.261,12.586,2.866c1.596,0.172,3.226,0.32,4.83,0.449c7.376,0.585,14.18,0.116,14.18,0.116s10.711,0.395,19.818-0.657c0.063-0.007,0.118-0.013,0.18-0.021C274.501,350.054,278.519,349.338,280.729,348.34z"></path></g></g></g></g></g></svg>