<svg xmlns="http://www.w3.org/2000/svg" width="500" height="500" version="1.1"><g id="x059"><g><path style="fill:#6E6E6E;stroke:#000000;stroke-linecap:round;stroke-linejoin:round;" d="M231.155,352.457c0,0-3.152,5.008-3.152,8.557c0,3.547-0.373,74.904,1.407,76.086c1.779,1.184,7.711,4.336,17.795,5.914c10.084,1.576,34.404-1.184,34.404-1.184s7.732-50.461,2.604-72.145c0.121-1.185,1.027-6.045,0.912-6.811c-1.188-7.885-2.25-11.375-2.25-11.375L231.155,352.457z"></path><path style="fill:#505050;" d="M283.87,370.431c0,0-7.713,25.23-7.119,28.385s4.746,8.672,7.119,9.855C286.243,406.306,283.87,370.431,283.87,370.431z"></path><path style="fill:#6E6E6E;stroke:#000000;stroke-linecap:round;stroke-linejoin:round;" d="M284.111,370.082c0,0-7.711,31.932-13.643,42.182"></path><path style="fill:#6E6E6E;stroke:#000000;stroke-linecap:round;stroke-linejoin:round;" d="M217.125,351.375c0,0-1.125,4-2.125,11.875c-0.478,3.762,1.485,77.346,2.546,78.58c2.966-1.184,4.746-2.365,13.643-3.547c0,0-6.159-67.693,0.367-85.826C232.395,350.123,217.125,351.375,217.125,351.375z"></path><g><path style="fill:#6E6E6E;stroke:#000000;stroke-width:1.0482;stroke-linecap:round;stroke-linejoin:round;" d="M283.158,351.573c-0.631-1.375-1.264-2.139-1.264-2.139s-17.354,2.598-32.519,2.598c-15.163,0-31.473-2.598-31.473-2.598s-1.224,2.054-1.263,2.139c1.877,0.819,7.951,3.36,32.735,3.36C274.16,354.934,282.905,351.687,283.158,351.573z"></path></g></g></g></svg>