<svg xmlns="http://www.w3.org/2000/svg" width="500" height="500" version="1.1"><g id="x006"><g><path style="fill:#6E6E6E;stroke:#000000;stroke-linecap:round;stroke-linejoin:round;" d="M285.049,356.241c-0.16-0.609-0.785-0.974-1.395-0.814c-0.143,0.038-11.25,4.859-19.524,5.709c-0.183,0.02-4.569,0.495-5.126,0.78c-0.841-1.201-2.455-3.367-3.552-3.978c-1.3,1.339-2.261,2.967-2.74,4.226c-2.888,0.294-2.822,0.294-5.709,0c-0.48-1.259-1.442-2.887-2.74-4.226c-1.098,0.61-2.711,2.776-3.553,3.978c-0.558-0.285-4.942-0.761-5.125-0.78c-8.275-0.85-19.382-5.671-19.525-5.709c-0.609-0.159-1.234,0.205-1.395,0.814c-0.16,0.609,0.204,1.234,0.813,1.395c0.526,0.139,9.259,4.071,18.84,5.748c4.738,6.487,11.174,9.627,11.581,9.627c0.457,0,3.958,0,3.958,0s3.501,0,3.958,0c0.406,0,6.842-3.14,11.581-9.627c9.58-1.677,18.313-5.609,18.839-5.748C284.846,357.476,285.21,356.851,285.049,356.241z"></path><path style="fill:#505050;" d="M237.64,366.274c0,0,5.253,5.138,8.335,6.052c2.055,0.343,7.993,0.228,7.993,0.228s5.709-3.312,7.079-5.479c-3.882,0.798-6.622,2.512-8.107,2.396c-1.484-0.113-5.138-0.685-5.138-0.685s-1.827,0.229-2.74,0.229C244.148,369.015,237.64,366.274,237.64,366.274z"></path><g><g><path style="fill:#6E6E6E;stroke:#000000;stroke-linecap:round;stroke-linejoin:round;" d="M216.813,354.971c0,0-1.142,1.484-1.142,2.397c0,0.914,0.572,1.599,1.028,1.713s1.712-0.229,1.712-0.229s0.8-2.169,0.229-2.969C218.069,355.085,216.813,354.971,216.813,354.971z"></path><path style="fill:#6E6E6E;stroke:#000000;stroke-linecap:round;stroke-linejoin:round;" d="M217.726,359.424c0,0-0.57,21.809,0.229,23.978c-1.37,1.598-2.397,0.456-2.397,0.456s-1.028-18.153,1.027-24.434C217.27,358.396,217.726,359.424,217.726,359.424z"></path><path style="fill:#505050;stroke:#000000;stroke-linecap:round;stroke-linejoin:round;" d="M217.236,360.639c0,0-5.321,21.156-5.015,23.448c-1.802,1.598-2.44-0.078-2.44-0.078s2.963-17.94,6.341-23.62C217.015,359.535,217.236,360.639,217.236,360.639z"></path><g><g><path style="fill:#6E6E6E;stroke:#000000;stroke-linecap:round;stroke-linejoin:round;" d="M217.27,358.396c0,0-3.082,16.557-4.224,16.328c-1.142-0.229-3.997-4.111-3.883-5.253c0.115-1.142,1.713-6.394,2.398-7.535s3.425-4.567,4.225-4.91c0.342,0.229,0.342,1.028,0.342,1.028s-2.512,4.225-2.74,4.795c-0.229,0.571-1.712,6.052-1.484,6.509c0.229,0.456,0.914,0.799,0.914,0.799l3.197-11.646L217.27,358.396z"></path><path style="fill:none;stroke:#000000;stroke-linecap:round;stroke-linejoin:round;" d="M211.789,368.9c0,0,0.457,1.256,1.485,1.941"></path></g><path style="fill:#6E6E6E;stroke:#000000;stroke-linecap:round;stroke-linejoin:round;" d="M217.041,359.081c0,0-1.142,5.024-0.798,8.449c0.208,2.095,2.283,7.535,3.653,7.193c1.37-0.343,2.969-1.941,3.425-2.74c0.457-0.8-0.685-5.024-1.827-7.422c-0.839-1.762-3.197-6.052-3.197-6.052l-0.343,1.256c0,0,1.599,5.139,1.941,5.823c0.343,0.686,1.485,5.367,1.142,5.823c-0.342,0.457-1.027,0.686-1.027,0.686s-2.056-3.769-1.941-5.252c0.114-1.485-0.115-6.052-0.115-6.052L217.041,359.081z"></path></g></g><g><path style="fill:#6E6E6E;stroke:#000000;stroke-linecap:round;stroke-linejoin:round;" d="M283.188,354.971c0,0,1.142,1.484,1.142,2.397c0,0.914-0.571,1.599-1.028,1.713s-1.712-0.229-1.712-0.229s-0.8-2.169-0.229-2.969C281.931,355.085,283.188,354.971,283.188,354.971z"></path><path style="fill:#6E6E6E;stroke:#000000;stroke-linecap:round;stroke-linejoin:round;" d="M282.273,359.424c0,0,0.57,21.809-0.228,23.978c1.37,1.598,2.396,0.456,2.396,0.456s1.028-18.153-1.027-24.434C282.73,358.396,282.273,359.424,282.273,359.424z"></path><path style="fill:#505050;stroke:#000000;stroke-linecap:round;stroke-linejoin:round;" d="M282.763,360.639c0,0,5.322,21.156,5.017,23.448c1.802,1.598,2.439-0.078,2.439-0.078s-2.963-17.94-6.341-23.62C282.984,359.535,282.763,360.639,282.763,360.639z"></path><g><g><path style="fill:#6E6E6E;stroke:#000000;stroke-linecap:round;stroke-linejoin:round;" d="M282.73,358.396c0,0,3.082,16.557,4.224,16.328s3.997-4.111,3.883-5.253s-1.713-6.394-2.397-7.535c-0.686-1.142-3.426-4.567-4.226-4.91c-0.342,0.229-0.342,1.028-0.342,1.028s2.512,4.225,2.74,4.795c0.229,0.571,1.712,6.052,1.483,6.509c-0.228,0.456-0.913,0.799-0.913,0.799l-3.196-11.646L282.73,358.396z"></path><path style="fill:none;stroke:#000000;stroke-linecap:round;stroke-linejoin:round;" d="M288.211,368.9c0,0-0.457,1.256-1.484,1.941"></path></g><path style="fill:#6E6E6E;stroke:#000000;stroke-linecap:round;stroke-linejoin:round;" d="M282.959,359.081c0,0,1.142,5.024,0.799,8.449c-0.21,2.095-2.284,7.535-3.654,7.193c-1.369-0.343-2.968-1.941-3.425-2.74c-0.457-0.8,0.686-5.024,1.827-7.422c0.838-1.762,3.196-6.052,3.196-6.052l0.343,1.256c0,0-1.598,5.139-1.941,5.823c-0.343,0.686-1.484,5.367-1.142,5.823c0.343,0.457,1.027,0.686,1.027,0.686s2.056-3.769,1.941-5.252c-0.113-1.485,0.114-6.052,0.114-6.052L282.959,359.081z"></path></g></g></g></g></g></svg>