<svg xmlns="http://www.w3.org/2000/svg" width="500" height="500" version="1.1"><g id="x060"><g><g id="bottomsXMLID_5_"><g><path style="fill:#6E6E6E;stroke:#000000;stroke-linecap:round;stroke-linejoin:round;" d="M218.038,347.856c-1.165,3.62-2.579,8.223-4.459,24.645c-5.14,16.847-6.854,31.977-5.423,45.685c4.283,1.713,2.853,1.426,10.28,2.569c18.847,10.563,51.921,8.473,56.823,7.137c-0.283-5.997-0.283-5.997-0.283-5.997s12.276-4.566,15.421-8.85c-0.566-19.647-3.266-56.78-8.846-65.133"></path><path style="fill:#6E6E6E;stroke:#000000;stroke-linecap:round;stroke-linejoin:round;" d="M281.551,347.912c0.184-0.124,0.277-0.201,0.308-0.227c-0.617-2.613-1.237-4.065-1.237-4.065s-15.922,3.191-30.775,3.191c-0.929,0-1.854-0.013-2.771-0.035c-13.771-0.351-28.004-3.156-28.004-3.156s-1.199,3.898-1.238,4.065c0.064,0.055,0.133,0.11,0.206,0.171c1.937,1.597,8.391,4.463,31.808,4.463C271.36,352.319,280.119,348.846,281.551,347.912z"></path><path style="fill:none;stroke:#000000;stroke-linecap:round;stroke-linejoin:round;" d="M274.976,423.608c0,0-0.287-34.261-0.856-43.684"></path></g></g></g></g></svg>