<svg xmlns="http://www.w3.org/2000/svg" width="500" height="500" version="1.1"><g id="x061"><path style="fill:#505050;" d="M277.44,416.234c0,0-12.644,2.299-15.516,0.862c1.437-2.299,4.31-3.735,8.332-4.023C274.28,412.786,277.44,415.373,277.44,416.234z"></path><path style="fill:#505050;" d="M222.559,416.234c0,0,12.643,2.299,15.516,0.862c-1.436-2.299-4.31-3.735-8.333-4.023C225.72,412.786,222.559,415.373,222.559,416.234z"></path><path style="fill:#505050;" d="M249.569,350.579c0,0-7.471,34.48-8.333,34.48c-0.862,0-6.896,2.298-6.896,2.298l11.781-38.502L249.569,350.579z"></path><path style="fill:#505050;" d="M251.437,350.579c0,0,7.471,34.48,8.333,34.48s6.896,2.298,6.896,2.298l-11.78-38.502L251.437,350.579z"></path><g><g><g><path style="fill:#6E6E6E;stroke:#000000;stroke-linecap:round;stroke-linejoin:round;" d="M221.167,426.292l0.118,9.481c0,0,1.901,4.023,10.216,4.023c8.315,0,10.928-1.15,10.928-1.15l0.238-8.045L221.167,426.292z"></path><path style="fill:#6E6E6E;stroke:#000000;stroke-linecap:round;stroke-linejoin:round;" d="M278.833,426.292l-0.119,9.481c0,0-1.9,4.023-10.216,4.023s-10.928-1.15-10.928-1.15l-0.237-8.045L278.833,426.292z"></path></g><g><path style="fill:#6E6E6E;stroke:#000000;stroke-linecap:round;stroke-linejoin:round;" d="M284.691,361.659c-0.575-6.034-2.854-17.235-2.854-17.235s-5.506,2.994-31.838,2.994c-26.333,0-30.84-2.994-30.84-2.994s-3.278,11.201-3.853,17.235c-0.575,6.033,3.96,37.91,3.673,40.496c-0.288,2.585-2.586,8.332-2.012,9.77c0.575,1.437,2.012,4.022,2.012,4.022s-0.442,8.621-0.156,10.345c0.288,1.724,2.874,5.172,2.874,5.172s12.948,3.447,20.131,1.148c2.011-4.31,2.298-6.896,2.298-6.896l-0.862-8.332c0,0,2.299-3.592,2.586-10.2c0.287-6.609-0.862-12.356-0.862-12.356L250,374.333l5.011,20.495c0,0-1.149,5.747-0.862,12.356c0.288,6.608,2.587,10.2,2.587,10.2l-0.862,8.332c0,0,0.288,2.586,2.3,6.896c7.183,2.299,18.836-1.148,18.836-1.148s2.587-3.448,2.875-5.172c0.287-1.724,1.138-10.345,1.138-10.345s1.437-2.586,2.011-4.022c0.575-1.438-1.724-7.185-2.011-9.77C280.734,399.569,285.265,367.692,284.691,361.659z"></path><path style="fill:#505050;" d="M237.788,348.567c0,0-6.896,20.977-7.184,18.677c-0.287-2.298,1.437-18.965,1.437-18.965L237.788,348.567z"></path><path style="fill:#505050;" d="M262.754,348.567c0,0,6.896,20.977,7.184,18.677c0.287-2.298-1.437-18.965-1.437-18.965L262.754,348.567z"></path><path style="fill:none;stroke:#000000;stroke-linecap:round;stroke-linejoin:round;" d="M271.693,348.279c0,0,1.724,16.38,1.438,18.965c-0.287,2.587-3.161,34.336-3.161,34.336s0.862,6.896,0.862,9.195c0,2.298-1.149,5.459-1.149,5.459l0.287,16.092"></path><path style="fill:none;stroke:#000000;stroke-linecap:round;stroke-linejoin:round;" d="M228.769,348.279c0,0-1.724,16.38-1.437,18.965c0.287,2.587,3.16,34.336,3.16,34.336s-0.862,6.896-0.862,9.195c0,2.298,1.15,5.459,1.15,5.459l-0.288,16.092"></path></g></g><g><g><path style="fill:#6E6E6E;stroke:#000000;stroke-linecap:round;stroke-linejoin:round;" d="M281.892,348.417c-0.637-2.686-1.272-4.181-1.272-4.181S265.288,347.52,250,347.52c-15.288,0-30.618-3.282-30.618-3.282s-1.235,4.011-1.274,4.18c1.893,1.603,6.902,4.772,31.892,4.772C274.99,353.189,281.636,348.638,281.892,348.417z"></path></g></g><g><path style="fill:#6E6E6E;stroke:#000000;stroke-linecap:round;stroke-linejoin:round;" d="M250,352.751c0,0-9.337,31.607-9.337,34.48c-5.46,2.873-9.77,4.311-9.77,4.311s10.918-33.044,14.941-38.216C249.856,348.153,250,352.751,250,352.751z"></path><path style="fill:#6E6E6E;stroke:#000000;stroke-linecap:round;stroke-linejoin:round;" d="M251.438,352.751c0,0,9.339,31.607,9.339,34.48c5.459,2.873,9.77,4.311,9.77,4.311s-10.919-33.044-14.941-38.216C251.581,348.153,251.438,352.751,251.438,352.751z"></path><g><g><path style="fill:#6E6E6E;stroke:#000000;stroke-linecap:round;stroke-linejoin:round;" d="M250.718,353.326c0,0-16.665,8.62-17.24,7.471c-0.575-1.149-2.011-10.632,0-11.206c2.011-0.575,15.803,0.287,15.803,0.287L250.718,353.326z"></path><path style="fill:#505050;" d="M247.845,352.751c0,0-7.184,4.022-7.471,2.873c-0.287-1.148-0.862-3.735,0.575-3.735C242.385,351.889,245.69,352.751,247.845,352.751z"></path><path style="fill:none;stroke:#000000;stroke-linecap:round;stroke-linejoin:round;" d="M248.168,352.069c0,0-3.501,0.053-5.333,0.915"></path></g><g><path style="fill:#6E6E6E;stroke:#000000;stroke-linecap:round;stroke-linejoin:round;" d="M250.718,353.326c0,0,16.667,8.62,17.241,7.471c0.575-1.149,2.012-10.632,0-11.206c-2.012-0.575-15.803,0.287-15.803,0.287L250.718,353.326z"></path><path style="fill:#505050;" d="M253.378,352.751c0,0,7.184,4.022,7.471,2.873c0.286-1.148,0.861-3.735-0.575-3.735C258.836,351.889,255.531,352.751,253.378,352.751z"></path><path style="fill:none;stroke:#000000;stroke-linecap:round;stroke-linejoin:round;" d="M253.826,352.176c0,0,2.855-0.161,5.226,0.756"></path></g><path style="fill:#6E6E6E;stroke:#000000;stroke-linecap:round;stroke-linejoin:round;" d="M246.768,349.86c0,0,2.102,2.047,2.154,3.986c-0.269,0.809-0.538,1.239-0.538,1.239s2.101,1.077,3.934,0.431c1.4-2.209,1.831-5.603,1.615-5.979c-0.215-0.378-2.208-1.67-3.933-1.348C248.276,348.514,246.768,349.86,246.768,349.86z"></path></g></g></g></g></svg>