<svg xmlns="http://www.w3.org/2000/svg" width="500" height="500" version="1.1"><g id="x062"><g><path style="fill:#F2F5F0;stroke:#000000;stroke-linecap:round;stroke-linejoin:round;" d="M296.188,410.437h-92.284c0,0-0.911,3.339-0.759,4.098c0.151,0.759,10.018,2.429,13.356,2.429c0.456,1.366,0.911,2.126,0.911,2.126s7.437,3.338,10.776,1.973c3.339-1.366,3.339-0.456,5.009-0.456c1.67,0,9.107,3.795,16.848,3.036c7.742,0.759,14.572-2.58,16.242-2.58c1.669,0,2.275-1.366,5.615,0c3.339,1.365,10.776-1.973,10.776-1.973s0.455-0.76,0.91-2.126c3.34,0,13.206-1.67,13.357-2.429S296.188,410.437,296.188,410.437z"></path><path style="fill:#6E6E6E;stroke:#000000;stroke-linecap:round;stroke-linejoin:round;" d="M290.981,378.714c-3.035-13.356-7.589-29.143-8.618-30.509L250,351.696l-32.363-3.491c-1.03,1.366-5.583,17.152-8.619,30.509s-6.981,31.571-6.071,32.178c0.911,0.607,10.625,3.946,15.785,3.035c0,1.519,0.303,2.732,0.303,2.732s5.464,2.732,9.108,1.519c1.214-0.607,1.214-1.822,2.732-2.429c1.518-0.607,5.161-0.304,6.375,0c1.215,0.304,7.286,3.946,12.75,3.946s11.535-3.643,12.75-3.946c1.214-0.304,4.856-0.607,6.375,0c1.517,0.606,1.518,1.821,2.731,2.429c3.644,1.214,9.107-1.519,9.107-1.519s0.304-1.214,0.304-2.732c5.16,0.911,14.875-2.428,15.785-3.035C297.964,410.285,294.018,392.07,290.981,378.714z"></path><g><g><g><path style="fill:#3F3F3F;stroke:#000000;stroke-width:1.0541;stroke-linecap:round;stroke-linejoin:round;" d="M285.5,356.371c-0.73-2.775-4.496-12.338-4.496-12.338s-13.412,2.134-30.959,2.134c-17.545,0-30.957-2.134-30.957-2.134s-4.454,12.164-4.498,12.338c2.173,1.655,6.774,4.93,35.455,4.93C278.728,361.301,285.207,356.599,285.5,356.371z"></path></g></g></g></g></g></svg>