<svg xmlns="http://www.w3.org/2000/svg" width="500" height="500" version="1.1"><g id="x063"><g><g><path style="fill:#6E6E6E;" d="M288.902,397.651c4.598,9.828,9.265,21.547,8.598,29.876c-10.424,3.675-10.5,3.107-29.333,2.684c0,0-8.511,4.844-24,3.812c-15.489-1.026-24.5-3.105-28.667-5.365c-1.216-0.258-10.012-0.291-11.833-1.835c1-14.824,7.922-30.609,8.833-33.18c0.333-7.624,0.547-17.663,1.833-24.566c1.5-8.048,3.636-14.12,3.636-14.12s48.17,0,63.843,0C286.248,362.288,286.774,373.466,288.902,397.651z"></path></g><g><g><g><line style="fill:none;stroke:#1B0C08;stroke-width:1.8408;" x1="230.641" y1="351.069" x2="215.891" y2="363.563"></line><line style="fill:none;stroke:#1B0C08;stroke-width:1.8408;" x1="235.711" y1="352.947" x2="214.41" y2="370.991"></line><line style="fill:none;stroke:#1B0C08;stroke-width:1.8408;" x1="240.324" y1="355.214" x2="213.773" y2="377.708"></line></g><g><line style="fill:none;stroke:#1B0C08;stroke-width:1.8408;" x1="284.285" y1="360.424" x2="205.298" y2="427.183"></line><polyline style="fill:none;stroke:#1B0C08;stroke-width:1.8408;" points="285.823,365.007 285.012,365.695 211.439,428.095 "></polyline><line style="fill:none;stroke:#1B0C08;stroke-width:1.8408;" x1="285.951" y1="371.119" x2="217.441" y2="429.099"></line></g><g><line style="fill:none;stroke:#1B0C08;stroke-width:1.8408;" x1="292.754" y1="407.643" x2="264.723" y2="431.353"></line><line style="fill:none;stroke:#1B0C08;stroke-width:1.8408;" x1="294.48" y1="412.353" x2="273.65" y2="429.972"></line><line style="fill:none;stroke:#1B0C08;stroke-width:1.8408;" x1="295.884" y1="417.336" x2="280.735" y2="430.149"></line></g><g><line style="fill:none;stroke:#1B0C08;stroke-width:1.8408;" x1="204.991" y1="418.942" x2="216.276" y2="428.492"></line><line style="fill:none;stroke:#1B0C08;stroke-width:1.8408;" x1="206.323" y1="413.898" x2="227.488" y2="431.809"></line><line style="fill:none;stroke:#1B0C08;stroke-width:1.8408;" x1="207.558" y1="408.771" x2="236.137" y2="432.955"></line></g><g><line style="fill:none;stroke:#1B0C08;stroke-width:1.8408;" x1="214.039" y1="372.111" x2="282.634" y2="430.153"></line><line style="fill:none;stroke:#1B0C08;stroke-width:1.8408;" x1="214.912" y1="366.68" x2="289.437" y2="429.733"></line><line style="fill:none;stroke:#1B0C08;stroke-width:1.8408;" x1="216.412" y1="361.776" x2="294.84" y2="428.129"></line></g><g><line style="fill:none;stroke:#1B0C08;stroke-width:1.8408;" x1="258.254" y1="354.789" x2="286.786" y2="378.771"></line><line style="fill:none;stroke:#1B0C08;stroke-width:1.8408;" x1="263.93" y1="353.646" x2="286.061" y2="372.396"></line><line style="fill:none;stroke:#1B0C08;stroke-width:1.8408;" x1="269.465" y1="351.947" x2="284.896" y2="364.949"></line></g></g><g><g><line style="opacity:0.8;fill:none;stroke:#FFED00;stroke-width:1.8408;" x1="238.179" y1="433.219" x2="287.903" y2="391.126"></line><line style="opacity:0.8;fill:none;stroke:#FFED00;stroke-width:1.8408;" x1="209.167" y1="403.938" x2="263.558" y2="357.916"></line></g><g><line style="opacity:0.8;fill:none;stroke:#FFED00;stroke-width:1.8408;" x1="291.673" y1="404.86" x2="227.568" y2="350.556"></line><line style="opacity:0.8;fill:none;stroke:#FFED00;stroke-width:1.8408;" x1="260.733" y1="432.502" x2="213.021" y2="392.071"></line></g></g></g><g><path style="fill:none;stroke:#000000;stroke-width:0.9204;stroke-linecap:round;stroke-linejoin:round;" d="M288.902,397.651c4.598,9.828,9.265,21.547,8.598,29.876c-10.424,3.675-10.5,3.107-29.333,2.684c0,0-8.511,4.844-24,3.812c-15.489-1.026-24.5-3.105-28.667-5.365c-1.216-0.258-10.012-0.291-11.833-1.835c1-14.824,7.922-30.609,8.833-33.18c0.333-7.624,0.547-17.663,1.833-24.566c1.5-8.048,3.636-14.12,3.636-14.12s48.17,0,63.843,0C286.248,362.288,286.774,373.466,288.902,397.651z"></path></g><g><g><g><g><g><g><path style="fill:#3F3F3F;stroke:#000000;stroke-width:0.9204;stroke-linecap:round;stroke-linejoin:round;" d="M282.813,354.957c-0.658-2.352-2.049-10.457-2.049-10.457s-15.075,1.874-30.874,1.874c-15.797,0-30.873-1.874-30.873-1.874s-2.009,10.31-2.049,10.457c1.956,1.402,7.099,3.179,32.921,3.179C275.714,358.136,282.549,355.15,282.813,354.957z"></path></g></g></g></g></g></g></g></g></svg>