<svg xmlns="http://www.w3.org/2000/svg" width="500" height="500" version="1.1"><g id="x064"><g><g><g><g><path style="fill:#6E6E6E;" d="M281.418,347.631c5.675,6.768,13.532,21.391,17.023,37.761c-6.984,9.604-30.775,16.369-37.76,16.588c-5.668,0.18-14.206-3.811-17.226-5.321c-2.214,0.332-5.19,1.379-11.805,1.379c-9.167,0-20.518-3.584-30.995-10.981c5.021-25.552,17.898-38.552,17.898-38.552S246.494,356.144,281.418,347.631z"></path></g><path style="fill:#FFFFFF;" d="M230.778,382.771c-9.168-0.437-25.755-11.35-25.755-11.35l-2.184,6.767c0,0,15.061,11.133,27.066,11.133c12.005,0,15.061-1.092,15.061-1.092s0.043,0.053,0.124,0.142c0.701-2.516,1.469-5.194,2.125-7.289C244.777,381.446,237.459,383.09,230.778,382.771z"></path><path style="fill:#FFFFFF;" d="M294.295,371.203c0,0-23.791,15.498-33.395,14.625c-6.611-0.603-9.912-2.546-11.542-3.771c0.184,2.823,0.328,6.462,0.43,9.658c2.802,1.325,6.845,2.343,12.203,1.534c11.568-1.746,34.05-15.061,34.05-15.061L294.295,371.203z"></path><path style="fill:#FFFFFF;" d="M298.006,382.116c0,0-20.518,14.625-35.578,15.28c-5.751,0.249-9.778-0.665-12.526-1.813c0.057,2.127,0.084,3.56,0.084,3.56l-6.984-3.057c0,0,0.434-1.656,1.065-3.985c-2.614,0.598-12.215,2.592-18.09,1.148c-12.441-3.056-24.229-11.35-24.229-11.35l-1.964,5.239c0,0,13.751,10.038,26.629,10.476s17.043-0.956,17.043-0.956s10.241,5.54,17.226,5.321s32.086-6.112,37.76-16.588C298.006,383.645,298.006,382.116,298.006,382.116z"></path><path style="fill:none;stroke:#FF4247;stroke-width:2;stroke-linecap:round;" d="M204.313,374.958c0,0,9.188,8.938,24.625,10.938c13.003,1.685,17.993-1.596,17.993-1.596s5.457,8.294,17.461,5.457c12.005-2.837,30.733-14.611,30.733-14.611"></path><g><g><path style="fill:#505050;" d="M248.021,381.025c0.204,0.068,0.6,0.476,1.337,1.031c-0.186-2.857-0.414-4.876-0.682-4.74c-0.245,0.121-0.795,1.641-1.462,3.766C247.644,381.019,247.924,380.993,248.021,381.025z"></path><path style="fill:#505050;" d="M245.09,388.371c-0.37,1.326-0.72,2.605-1.023,3.729c0.433-0.1,0.681-0.161,0.681-0.161s1.336,2.048,5.154,3.644c-0.028-1.13-0.066-2.456-0.113-3.868C247.059,390.425,245.514,388.844,245.09,388.371z"></path><path style="fill:#DCDCDC;" d="M249.358,382.057c-0.737-0.556-1.133-0.963-1.337-1.031c-0.097-0.032-0.378-0.007-0.807,0.057c-0.193,0.617-0.396,1.29-0.605,1.99c0.862,0.859,1.878,1.838,2.947,2.633C249.497,384.414,249.431,383.171,249.358,382.057z"></path><path style="fill:#C92B47;" d="M246.61,383.072c-0.25,0.839-0.508,1.72-0.764,2.618c1.208,0.905,2.438,1.811,3.826,2.716c-0.036-0.908-0.074-1.814-0.115-2.701C248.488,384.91,247.472,383.932,246.61,383.072z"></path><path style="fill:#DCDCDC;" d="M245.846,385.69c-0.255,0.893-0.51,1.796-0.756,2.681c0.424,0.473,1.969,2.054,4.699,3.344c-0.034-1.068-0.073-2.188-0.117-3.309C248.284,387.501,247.055,386.596,245.846,385.69z"></path></g><path style="fill:#DCDCDC;" d="M249.986,399.143c0,0-0.027-1.433-0.084-3.56c-3.818-1.596-5.154-3.644-5.154-3.644s-0.249,0.062-0.681,0.161c-0.631,2.329-1.065,3.985-1.065,3.985L249.986,399.143z"></path></g><path style="fill:#FFFFFF;" d="M245.839,385.755"></path></g><g id="bottomsXMLID_8_"><g><path style="fill:none;stroke:#000000;stroke-linecap:round;stroke-linejoin:round;" d="M281.418,347.631c-34.924,8.513-62.863,0.873-62.863,0.873s-12.877,13-17.898,38.552c10.477,7.397,21.828,10.981,30.995,10.981c6.614,0,9.591-1.047,11.805-1.379c3.02,1.511,11.558,5.501,17.226,5.321c6.984-0.219,30.775-6.984,37.76-16.588C294.95,369.021,287.093,354.398,281.418,347.631z"></path></g></g></g><path style="fill:#3F3F3F;stroke:#000000;stroke-linecap:round;stroke-linejoin:round;" d="M280.325,343.484c0,0-12.585,3.349-30.122,3.349c-17.537,0-30.121-3.349-30.121-3.349l-1.527,5.02c0,0,4.019,4.163,31.648,4.163s31.65-4.163,31.65-4.163L280.325,343.484z"></path></g></g></svg>