<svg xmlns="http://www.w3.org/2000/svg" width="500" height="500" version="1.1"><g id="x065"><g><path style="fill:#6E6E6E;stroke:#000000;stroke-linecap:round;stroke-linejoin:round;" d="M288.723,369.122c0-4.501-6.342-19.231-6.342-19.231s-7.667,4.632-32.381,4.702c-24.714-0.07-32.381-4.702-32.381-4.702s-6.342,14.73-6.342,19.231c0,3.998,4.34,10.231,5.317,11.584c-1.191,1.576-4.563,6.189-3.887,7.035c0.603,0.751,3.737-1.145,5.361-2.204c0.252,0.125,0.418,4.774,1.596,5.068c1.413,0.354,7.482-2.751,7.695-2.732c1.01,3.613,2.32,5.248,3.89,5.127c2.252-0.173,5.75-5.25,5.75-5.25s5,5,6.191,4.286c1.729-1.036,0.153-4.91,0.153-4.91s4.78-1.626,6.655-4.73c1.875,3.104,6.655,4.73,6.655,4.73s-1.575,3.874,0.153,4.91C258,392.75,263,387.75,263,387.75s3.498,5.077,5.75,5.25c1.569,0.121,2.881-1.514,3.891-5.127c0.212-0.019,6.281,3.086,7.695,2.732c1.177-0.294,1.344-4.943,1.595-5.068c1.624,1.06,4.759,2.955,5.361,2.204c0.677-0.846-2.695-5.459-3.886-7.035C284.383,379.354,288.723,373.12,288.723,369.122z"></path><g><path style="fill:#6E6E6E;stroke:#000000;stroke-linecap:round;stroke-linejoin:round;" d="M250.152,356.063c28.848,0,34.831-5.83,34.831-5.83s-0.614-3.068-1.993-3.528c-0.158-0.052-0.403-0.023-0.735,0.066c-0.507-0.288-1.259-0.509-2.335-0.375c-1.871,0.236-2.315,1.446-2.421,2.01c-0.063,0.021-0.132,0.042-0.196,0.062c-0.339-0.401-1.26-1.15-3.215-0.69c-1.994,0.47-2.547,1.626-2.7,2.229c-0.087,0.019-0.176,0.037-0.266,0.057c-0.386-0.504-1.377-1.389-3.479-1.057c-2.914,0.46-3.527,2.148-3.527,2.148s-1.075-1.842-3.683-1.842c-2.608,0-3.222,1.842-3.222,1.842s-1.229-1.688-3.837-1.536c-1.649,0.1-2.685,0.931-3.222,1.529c-0.538-0.599-1.572-1.43-3.22-1.529c-2.609-0.152-3.837,1.536-3.837,1.536s-0.615-1.842-3.222-1.842c-2.61,0-3.683,1.842-3.683,1.842s-0.614-1.688-3.528-2.148c-2.272-0.358-3.247,0.702-3.56,1.169c-0.05-0.009-0.103-0.019-0.153-0.026c-0.103-0.542-0.567-1.86-2.733-2.371c-2.609-0.612-3.375,0.924-3.375,0.924s0-1.996-2.456-2.305c-1.44-0.18-2.296,0.274-2.76,0.681c-0.206-0.053-0.361-0.077-0.462-0.066c-1.227,0.154-1.074,3.067-1.074,3.067S221.306,356.063,250.152,356.063z"></path></g></g></g></svg>