<svg xmlns="http://www.w3.org/2000/svg" width="500" height="500" version="1.1"><g id="x066"><g><g><path style="fill:#6E6E6E;stroke:#000000;stroke-linecap:round;stroke-linejoin:round;" d="M292.199,371.907l-42.201,4.882l-42.198-4.882c0,0-5.879,3.206-6.48,4.046c0.752,1.951,2.411,5.578,5.575,6.833c1.357-0.418,4.221-0.279,5.427,0.976c1.205,1.257,5.274,4.464,10.55,4.186c1.356-0.28,4.371-1.256,6.029-0.698c1.657,0.559,4.972,4.324,10.55,4.045c5.877-1.256,7.233-2.51,10.548-2.51c3.317,0,4.675,1.254,10.551,2.51c5.576,0.279,8.893-3.486,10.551-4.045c1.657-0.558,4.673,0.418,6.028,0.698c5.275,0.278,9.345-2.929,10.548-4.186c1.207-1.255,4.071-1.394,5.429-0.976c3.163-1.255,4.821-4.882,5.576-6.833C298.077,375.113,292.199,371.907,292.199,371.907z"></path><path style="fill:none;stroke:#000000;stroke-linecap:round;stroke-linejoin:round;" d="M285.29,379.298c0,0,2.23,1.953,3.067,3.348"></path><path style="fill:none;stroke:#000000;stroke-linecap:round;stroke-linejoin:round;" d="M213.872,384.878c0,0,1.953-3.347,4.186-4.184"></path></g><g><path style="fill:#6E6E6E;stroke:#000000;stroke-linecap:round;stroke-linejoin:round;" d="M280.032,345.87c0,0-3.881,2.512-30.032,2.512s-30.032-2.512-30.032-2.512s-18.95,7.624-13.223,28.825c12.732,9.182,43.255,8.229,43.255,8.229s30.52,0.952,43.253-8.229C298.98,353.494,280.032,345.87,280.032,345.87z"></path><path style="fill:none;stroke:#000000;stroke-linecap:round;stroke-linejoin:round;" d="M217.945,379.298c0,0-3.348-4.463-1.674-8.647"></path><path style="fill:none;stroke:#000000;stroke-linecap:round;stroke-linejoin:round;" d="M281.551,379.856c0,0,4.185-3.348,4.185-8.928"></path><path style="fill:none;stroke:#000000;stroke-linecap:round;stroke-linejoin:round;" d="M246.122,382.368c0,0-1.674-2.233-1.117-7.255"></path><path style="fill:none;stroke:#000000;stroke-linecap:round;stroke-linejoin:round;" d="M253.375,381.811c0,0,0.558-1.954,0.837-4.743"></path></g></g></g></svg>