<svg xmlns="http://www.w3.org/2000/svg" width="500" height="500" version="1.1"><g id="x067"><g><path style="fill:#6E6E6E;stroke:#000000;stroke-linecap:round;stroke-linejoin:round;" d="M286.51,363.188L250,365.415l-36.511-2.227c0,0-2.234,3.872-1.339,5.955c0.891,2.081,12.143,5.638,37.729,5.659v0.001c0.042,0,0.08,0,0.122,0c0.039,0,0.08,0,0.12,0v-0.001c25.589-0.021,36.84-3.578,37.731-5.659C288.744,367.061,286.51,363.188,286.51,363.188z"></path><g><path style="fill:#FFFFFF;stroke:#000000;stroke-linecap:round;stroke-linejoin:round;" d="M249.972,371.082c0.024,0,29.188-0.45,36.333-5.213c-0.298-8.786-3.807-14.741-3.807-14.741s-13.554,2.531-32.526,2.531s-32.526-2.531-32.526-2.531s-3.508,5.955-3.806,14.741c7.144,4.763,36.307,5.213,36.331,5.213l0,0H249.972L249.972,371.082L249.972,371.082z"></path><path style="fill:#E4E0F3;" d="M236.908,361.304c-0.1,1.065,8.969,5.7,13.7,5.558c6.551-0.197,14.047-5.259,13.897-6.549c-0.148-1.293-10.347,2.578-14.518,2.578C245.817,362.891,237.008,360.236,236.908,361.304z"></path></g></g></g></svg>