<svg xmlns="http://www.w3.org/2000/svg" width="500" height="500" version="1.1"><g id="x068"><g><path style="fill:#6E6E6E;stroke:#000000;stroke-linecap:round;stroke-linejoin:round;" d="M250,348c-25.375,0-31.521-3-31.521-3c-3.773,7.92-11.468,24.48-13.411,31.806c6.204,2.675,12.81,3.692,12.81,3.692s0.3,2.483,0,2.292c5.803,2.676,16.661,2.58,16.661,2.58l0.15,1.881c0,0,7.146,1.01,15.312,0.765c8.163,0.245,15.31-0.765,15.31-0.765l0.151-1.881c0,0,10.855,0.096,16.66-2.58c-0.3,0.191,0-2.292,0-2.292s6.604-1.018,12.81-3.692c-1.944-7.325-9.639-23.886-13.411-31.806C281.521,345,275.374,348,250,348z"></path><path style="fill:#505050;" d="M224.709,346.961c-6.335,7.293-11.554,32.391-11.554,32.391l5.003,0.639c0,0,5.126-25.898,7.241-32.957L224.709,346.961z"></path><path style="fill:#505050;" d="M236.464,348.136c-4.759,11.772-5.898,36.821-5.898,36.821l3.973,0.413l3.327-37.178L236.464,348.136z"></path><path style="fill:#505050;" d="M286.605,379.352c0,0-5.164-24.834-11.452-32.277l-0.754,0.092c2.138,7.238,7.202,32.824,7.202,32.824L286.605,379.352z"></path><path style="fill:#505050;" d="M269.193,384.957c0,0-1.138-25.007-5.885-36.792l-1.409,0.083l3.32,37.122L269.193,384.957z"></path><path style="fill:#FFFFFF;" d="M219.758,372.689c0,0-1.051,4.1-1.051,4.712c2.402,0.768,12.06,2.685,16.063,2.685c0.199-1.841,0.399-4.446,0.399-4.446S220.358,373.916,219.758,372.689z"></path><path style="fill:#FFFFFF;" d="M208.201,372.459c0,0,4.954,1.687,10.357,2.76c-0.301-1.609,0.301-4.253,0.301-4.253l-9.308-2.875L208.201,372.459z"></path><path style="fill:#FFFFFF;" d="M280.401,372.92c0,0,0.3,3.984,0.3,4.598c-2.4,0.767-11.508,2.568-15.51,2.568c-0.2-1.841-0.4-4.446-0.4-4.446S279.802,374.146,280.401,372.92z"></path><path style="fill:#FFFFFF;" d="M249.976,378.766c-5.8,0-13.255-1.249-13.255-1.249l-0.3,4.369c0,0,5.353,0.958,13.561,0.958c8.206,0,13.409-0.92,13.409-0.92l-0.25-4.062C263.141,377.862,255.774,378.766,249.976,378.766z"></path><path style="fill:#FFFFFF;" d="M292.008,372.421c0,0-5.201,1.84-10.606,2.913c-0.8-1.84-0.399-3.908-0.399-3.908l9.606-3.447L292.008,372.421z"></path><path style="fill:none;stroke:#000000;stroke-linecap:round;stroke-linejoin:round;" d="M217.156,382.41c0,0,4.433-24.464,8.599-35.658"></path><path style="fill:none;stroke:#000000;stroke-linecap:round;stroke-linejoin:round;" d="M234.969,386.358c0,0,1.259-26.588,2.939-38.656"></path><path style="fill:none;stroke:#000000;stroke-linecap:round;stroke-linejoin:round;" d="M282.603,382.41c0,0-4.465-24.653-8.646-35.788"></path><path style="fill:none;stroke:#000000;stroke-linecap:round;stroke-linejoin:round;" d="M264.791,386.358c0,0-1.262-26.636-2.943-38.689"></path></g></g></svg>