<svg xmlns="http://www.w3.org/2000/svg" width="500" height="500" version="1.1"><g id="x069"><g><g><path style="fill:#6E6E6E;stroke:#000000;stroke-linecap:round;stroke-linejoin:round;" d="M280.211,342.434L250,343.573l-30.211-1.14c0,0-13.11,51.681-17.1,81.606c4.56,8.55,19.095,12.54,19.095,12.54l12.825-2.279l3.42,1.709l6.271-2.564l5.7-0.285l5.699,0.285l6.271,2.564l3.42-1.709l12.824,2.279c0,0,14.535-3.99,19.096-12.54C293.321,394.114,280.211,342.434,280.211,342.434z"></path><g><g><path style="fill:#505050;" d="M257.75,356.75l0.75,77l3.5,1.75l3.641-1.199C265.641,434.301,259.25,364.5,257.75,356.75z"></path><path style="fill:#505050;" d="M272.5,354.25l7.25,81.75c0,0,3.5-1,4.5-2C282.25,423.25,272.5,354.25,272.5,354.25z"></path></g><g><path style="fill:#505050;" d="M242.25,356.75l-0.75,77l-3.5,1.75l-3.641-1.199C234.359,434.301,240.75,364.5,242.25,356.75z"></path><path style="fill:#505050;" d="M227.5,354.25L220.25,436c0,0-3.5-1-4.5-2C217.75,423.25,227.5,354.25,227.5,354.25z"></path></g></g><g><g><path style="fill:#6E6E6E;stroke:#000000;stroke-linecap:round;stroke-linejoin:round;" d="M271.66,352.123c0,0,7.126,73.342,7.126,81.607"></path><path style="fill:#6E6E6E;stroke:#000000;stroke-linecap:round;stroke-linejoin:round;" d="M257.409,353.834c0,0,0.57,71.347,0.855,76.477"></path></g><g><path style="fill:#6E6E6E;stroke:#000000;stroke-linecap:round;stroke-linejoin:round;" d="M228.34,352.123c0,0-7.125,73.342-7.125,81.607"></path><path style="fill:#6E6E6E;stroke:#000000;stroke-linecap:round;stroke-linejoin:round;" d="M242.59,353.834c0,0-0.57,71.347-0.855,76.477"></path></g></g><path style="fill:#6E6E6E;stroke:#000000;stroke-linecap:round;stroke-linejoin:round;" d="M278.502,333.313L250,335.022l-28.501-1.709c0,1.995-1.71,7.694-0.285,10.546c5.129,2.279,19.95,3.989,28.786,3.989c8.836,0,23.655-1.71,28.786-3.989C280.211,341.009,278.502,335.309,278.502,333.313z"></path></g><g><path style="fill:#6E6E6E;stroke:#000000;stroke-linecap:round;stroke-linejoin:round;" d="M280.495,339.204c-1.709,1.141-16.53,3.704-30.495,3.704c-13.965,0-28.786-2.563-30.496-3.704c0,0-1.426,4.274-0.57,6.555c5.7,3.42,23.656,3.705,31.066,3.705c7.409,0,25.365-0.285,31.064-3.705C281.921,343.479,280.495,339.204,280.495,339.204z"></path><g><path style="fill:#6E6E6E;stroke:#000000;stroke-linecap:round;stroke-linejoin:round;" d="M256.079,342.813c-0.38-0.38-5.794-0.096-5.794-0.096s-5.415-0.284-5.795,0.096c-0.38,0.381-0.761,5.605-0.19,6.364c0.57,0.761,11.399,0.761,11.971,0C256.84,348.419,256.46,343.194,256.079,342.813z"></path><g><path style="fill:#6E6E6E;stroke:#000000;stroke-linecap:round;stroke-linejoin:round;" d="M244.061,348.607c0,0-10.451,4.371-10.925,3.705c-0.475-0.664-1.425-10.924,0.475-11.493c1.901-0.57,10.166,1.709,10.166,1.709L244.061,348.607z"></path><path style="fill:#6E6E6E;stroke:#000000;stroke-linecap:round;stroke-linejoin:round;" d="M255.938,348.607c0,0,10.451,4.371,10.926,3.705c0.476-0.664,1.424-10.924-0.475-11.493c-1.899-0.57-10.166,1.709-10.166,1.709L255.938,348.607z"></path></g></g></g></g></g></svg>