<svg xmlns="http://www.w3.org/2000/svg" width="500" height="500" version="1.1"><g id="x007"><g><g><g><path style="fill:#505050;stroke:#000000;stroke-linecap:round;stroke-linejoin:round;" d="M285.299,350.572c0,0-11.479,4.541-35.379,4.582c-23.9-0.041-35.379-4.582-35.379-4.582c-0.796,0.996-0.331,2.487-2.479,5.146l37.778,4.021l37.938-4.021C285.631,353.06,286.096,351.568,285.299,350.572z"></path><g><g><path style="fill:#505050;stroke:#000000;stroke-linecap:round;stroke-linejoin:round;" d="M288.596,361.75c-6.754,0-38.596,7.96-38.596,7.96s-31.841-7.96-38.595-7.96c0,0-4.342,4.583-5.548,7.96c1.447,1.93,3.136,2.895,3.136,2.895l0.965-0.965c0,0,1.93,3.618,5.789,3.859c0.724,0.482,5.79-0.241,7.96,0.482c0,0.482,0,0.482,0,0.482s2.653,1.688,8.684,1.688c0-0.724,0-0.724,0-0.724s3.217-0.804,8.765,0.966c0,0.724-0.16,1.206-0.16,1.206s5.628,0.481,8.281-0.001c-0.241-0.482-0.241-0.482-0.241-0.482l0.965-0.724l0.965,0.724c0,0,0,0-0.241,0.482c2.654,0.482,8.283,0.001,8.283,0.001s-0.162-0.482-0.162-1.206c5.549-1.77,8.766-0.966,8.766-0.966s0,0,0,0.724c6.031,0,8.684-1.688,8.684-1.688s0,0,0-0.482c2.172-0.724,7.236,0,7.961-0.482c3.859-0.241,5.789-3.859,5.789-3.859l0.965,0.965c0,0,1.689-0.965,3.137-2.895C292.938,366.333,288.596,361.75,288.596,361.75z"></path><path style="fill:#6E6E6E;stroke:#000000;stroke-linecap:round;stroke-linejoin:round;" d="M209.555,371.399c0,0,1.929-4.182,4.985-6.353"></path><path style="fill:#6E6E6E;stroke:#000000;stroke-linecap:round;stroke-linejoin:round;" d="M223.707,375.981c0,0,0.804-3.537,1.608-5.065"></path><path style="fill:#6E6E6E;stroke:#000000;stroke-linecap:round;stroke-linejoin:round;" d="M233.195,372.203c0,0-1.046,3.859-0.885,5.548"></path><path style="fill:#6E6E6E;stroke:#000000;stroke-linecap:round;stroke-linejoin:round;" d="M241.316,373.409c0,0,0.482,2.251,0.08,5.146"></path><path style="fill:#6E6E6E;stroke:#000000;stroke-linecap:round;stroke-linejoin:round;" d="M290.445,371.399c0,0-1.93-4.182-4.986-6.353"></path><path style="fill:#6E6E6E;stroke:#000000;stroke-linecap:round;stroke-linejoin:round;" d="M276.293,375.981c0,0-0.805-3.537-1.607-5.065"></path><path style="fill:#6E6E6E;stroke:#000000;stroke-linecap:round;stroke-linejoin:round;" d="M266.805,372.203c0,0,1.045,3.859,0.885,5.548"></path><path style="fill:#6E6E6E;stroke:#000000;stroke-linecap:round;stroke-linejoin:round;" d="M258.684,373.409c0,0-0.482,2.251-0.08,5.146"></path></g><g><path style="fill:#6E6E6E;stroke:#000000;stroke-linecap:round;stroke-linejoin:round;" d="M285.299,354.271c0,0-11.479,4.54-35.379,4.581c-23.9-0.041-35.379-4.581-35.379-4.581c-0.965,1.206-3.618,3.136-6.272,6.996c1.206,1.447,6.272,2.814,6.272,2.814s0.482,1.206,0.322,1.447c4.503,2.814,11.257,2.251,11.257,2.251l1.447-0.724l0.965,1.206c0,0,1.126,0.644,4.021,0.402c2.896-0.241,5.87,1.045,5.87,1.045s0.482-1.447,2.412-1.206c0,0,1.206,0.724,0.241,1.447c2.479,0.676,8.113,0.51,8.845,0.485c0.731,0.024,6.366,0.19,8.844-0.485c-0.965-0.724,0.242-1.447,0.242-1.447c1.93-0.241,2.412,1.206,2.412,1.206s2.975-1.286,5.869-1.045s4.021-0.402,4.021-0.402l0.965-1.206l1.447,0.724c0,0,6.754,0.563,11.256-2.251c-0.16-0.241,0.322-1.447,0.322-1.447s5.066-1.367,6.271-2.814C288.918,357.407,286.264,355.478,285.299,354.271z"></path><path style="fill:none;stroke:#000000;stroke-linecap:round;stroke-linejoin:round;" d="M214.54,363.68c0,0,1.206-3.859,3.618-6.03"></path><path style="fill:#6E6E6E;stroke:#000000;stroke-linecap:round;stroke-linejoin:round;" d="M226.119,367.78c0,0,1.206-5.307,3.136-7.478"></path><path style="fill:#6E6E6E;stroke:#000000;stroke-linecap:round;stroke-linejoin:round;" d="M238.421,369.71c0,0,1.206-4.342,2.171-6.271"></path><path style="fill:#6E6E6E;stroke:#000000;stroke-linecap:round;stroke-linejoin:round;" d="M242.04,363.68c0,0,0,4.101,0.241,5.065"></path><path style="fill:none;stroke:#000000;stroke-linecap:round;stroke-linejoin:round;" d="M285.299,363.68c0,0-1.205-3.859-3.617-6.03"></path><path style="fill:#6E6E6E;stroke:#000000;stroke-linecap:round;stroke-linejoin:round;" d="M273.721,367.78c0,0-1.207-5.307-3.137-7.478"></path><path style="fill:#6E6E6E;stroke:#000000;stroke-linecap:round;stroke-linejoin:round;" d="M261.418,369.71c0,0-1.207-4.342-2.172-6.271"></path><path style="fill:#6E6E6E;stroke:#000000;stroke-linecap:round;stroke-linejoin:round;" d="M257.799,363.68c0,0,0,4.101-0.24,5.065"></path></g></g></g></g><g><g><path style="fill:#6E6E6E;stroke:#000000;stroke-linecap:round;stroke-linejoin:round;" d="M217.837,352.181c0,0-4.624-5.146-7.036-4.985c-2.413,0.161-5.347,9.971-2.292,11.257c3.056,1.287,9.167-3.055,9.167-3.055l-1.286-1.93c0,0-4.985,3.377-6.272,2.412s0.024-5.146,0.989-5.468c0.965-0.322,6.087,3.056,6.087,3.056L217.837,352.181z"></path><path style="fill:#6E6E6E;stroke:#000000;stroke-linecap:round;stroke-linejoin:round;" d="M217.722,352.177c0,0,6.301-2.185,8.336-0.881c2.036,1.305,0.108,11.219-3.189,10.872c-3.297-0.346-6.557-7.097-6.557-7.097l2.057-1.069c0,0,2.739,5.362,4.332,5.137c1.592-0.225,2.229-4.425,1.539-5.172s-6.575-0.353-6.575-0.353L217.722,352.177z"></path><g><path style="fill:#6E6E6E;stroke:#000000;stroke-linecap:round;stroke-linejoin:round;" d="M217.254,355.276c0,0-0.724,8.744-1.809,10.734c0.241,0.724,2.412,0.965,2.412,0.965s1.87-7.176,1.146-11.337C218.279,355.096,217.254,355.276,217.254,355.276z"></path><path style="fill:#6E6E6E;stroke:#000000;stroke-linecap:round;stroke-linejoin:round;" d="M216.336,354.598c0,0-4.105,7.755-4.264,10.016c-0.593,0.479-2.552-0.487-2.552-0.487s2.295-7.052,5.148-10.167C215.57,353.893,216.336,354.598,216.336,354.598z"></path></g><path style="fill:#6E6E6E;stroke:#000000;stroke-linecap:round;stroke-linejoin:round;" d="M218.399,352.321c0,0-0.784-0.965-1.387-0.844c-0.603,0.12-1.387,0.482-1.688,2.653c-0.1,0.717,0.542,2.05,0.844,2.171c0.301,0.12,2.11-1.206,2.11-1.206S217.676,353.527,218.399,352.321z"></path></g><g><path style="fill:#6E6E6E;stroke:#000000;stroke-linecap:round;stroke-linejoin:round;" d="M282.432,352.181c0,0,4.625-5.146,7.037-4.985s5.346,9.971,2.291,11.257c-3.057,1.287-9.166-3.055-9.166-3.055l1.285-1.93c0,0,4.986,3.377,6.271,2.412c1.287-0.965-0.023-5.146-0.988-5.468c-0.965-0.322-6.086,3.056-6.086,3.056L282.432,352.181z"></path><path style="fill:#6E6E6E;stroke:#000000;stroke-linecap:round;stroke-linejoin:round;" d="M282.547,352.177c0,0-6.301-2.185-8.336-0.881c-2.035,1.305-0.109,11.219,3.189,10.872c3.297-0.346,6.557-7.097,6.557-7.097l-2.057-1.069c0,0-2.74,5.362-4.332,5.137c-1.592-0.225-2.229-4.425-1.539-5.172s6.574-0.353,6.574-0.353L282.547,352.177z"></path><g><path style="fill:#6E6E6E;stroke:#000000;stroke-linecap:round;stroke-linejoin:round;" d="M283.016,355.276c0,0,0.723,8.744,1.809,10.734c-0.24,0.724-2.412,0.965-2.412,0.965s-1.869-7.176-1.146-11.337C281.99,355.096,283.016,355.276,283.016,355.276z"></path><path style="fill:#6E6E6E;stroke:#000000;stroke-linecap:round;stroke-linejoin:round;" d="M283.934,354.598c0,0,4.104,7.755,4.264,10.016c0.592,0.479,2.551-0.487,2.551-0.487s-2.295-7.052-5.148-10.167C284.699,353.893,283.934,354.598,283.934,354.598z"></path></g><path style="fill:#6E6E6E;stroke:#000000;stroke-linecap:round;stroke-linejoin:round;" d="M281.869,352.321c0,0,0.785-0.965,1.387-0.844c0.604,0.12,1.389,0.482,1.689,2.653c0.1,0.717-0.543,2.05-0.844,2.171c-0.303,0.12-2.111-1.206-2.111-1.206S282.594,353.527,281.869,352.321z"></path></g></g></g></g></svg>