<svg xmlns="http://www.w3.org/2000/svg" width="500" height="500" version="1.1"><g id="x073"><g><path style="fill:#6E6E6E;stroke:#000000;stroke-linecap:round;stroke-linejoin:round;" d="M283,351.333c4,8.833,5.407,18.479,5.5,25.833c-2.5,2.333-6.166,2-6.166,2l-1.5,1.5c0,0-3.834-0.666-7-1c-1.666,0-4.667,1-13.5,2.667s-21.834-0.5-21.834-0.5s0-1,0.5-2.5c-8.167,2.5-24.833,1-28.667-1.333c-0.5-2.333,1.667-15,3.667-19c1-7.666,6.5-16.834,6.5-16.834h59C279.5,342.166,281.334,344.5,283,351.333z"></path><path style="fill:none;stroke:#000000;stroke-linecap:round;stroke-linejoin:round;" d="M239,379.333c0,0,1.833-12.001,4.333-19.667"></path><path style="fill:none;stroke:#000000;stroke-linecap:round;stroke-linejoin:round;" d="M281.667,380c0.333-0.5,3.166-18.667,1.333-28.667"></path><path style="fill:none;stroke:#000000;stroke-linecap:round;stroke-linejoin:round;" d="M246,352.833c0,0,1.667-5.833,3.167-10.5"></path><path style="fill:none;stroke:#000000;stroke-linecap:round;stroke-linejoin:round;" d="M214.333,356.833c0,0-1.167,14.999-0.667,17.833"></path><path style="fill:none;stroke:#000000;stroke-linecap:round;stroke-linejoin:round;" d="M236.167,362.166c-0.167,0.5,1.5,12.166,3,15"></path></g></g></svg>