<svg xmlns="http://www.w3.org/2000/svg" width="500" height="500" version="1.1"><g id="x076"><g><g><g><path style="fill:#FFFFFF;stroke:#000000;stroke-linecap:round;stroke-linejoin:round;" d="M301.5,395.833c-5.1-21.25-20.65-45.5-20.65-45.5l-30.85-0.75l-30.849,0.75c0,0-15.552,24.25-20.651,45.5c3.06,2.5,6.628,4.25,6.628,4.25l-0.51,2c0,0,4.334,3.25,17.847,4.25c0.765-0.25,2.805-1,4.079,0c0.51,1.25,4.08,3.5,23.456,3.5s22.945-2.25,23.456-3.5c1.274-1,3.313-0.25,4.079,0c13.512-1,17.846-4.25,17.846-4.25l-0.51-2C294.871,400.083,298.44,398.333,301.5,395.833z"></path><line style="fill:none;stroke:#000000;stroke-linecap:round;stroke-linejoin:round;" x1="228.667" y1="398.834" x2="228.167" y2="403.001"></line><line style="fill:none;stroke:#000000;stroke-linecap:round;stroke-linejoin:round;" x1="295.199" y1="401.167" x2="293.533" y2="395.667"></line><line style="fill:none;stroke:#000000;stroke-linecap:round;stroke-linejoin:round;" x1="204.667" y1="401.167" x2="206.333" y2="395.667"></line><g><line style="fill:none;stroke:#000000;stroke-linecap:round;stroke-linejoin:round;" x1="272.235" y1="399.26" x2="273.819" y2="402.537"></line><line style="fill:none;stroke:#000000;stroke-linecap:round;stroke-linejoin:round;" x1="276.117" y1="402.138" x2="276.832" y2="398.462"></line></g></g><g><path style="fill:#6E6E6E;stroke:#000000;stroke-linecap:round;stroke-linejoin:round;" d="M300.5,388c-5-21.25-20.25-45.5-20.25-45.5L250,342.451l-30.25,0.049c0,0-15.25,24.25-20.25,45.5c3,2.5,6.5,4.25,6.5,4.25l-0.5,2c0,0,4.25,3.25,17.5,4.25c0.75-0.25,2.75-1,4,0c0.5,1.25,4,3.5,23,3.5s22.5-2.25,23-3.5c1.25-1,3.25-0.25,4,0c13.25-1,17.5-4.25,17.5-4.25l-0.5-2C294,392.25,297.5,390.5,300.5,388z"></path><path style="fill:#6E6E6E;stroke:#000000;stroke-linecap:round;stroke-linejoin:round;" d="M225,396.001c0,0,3.333-15.5,6-25.167"></path><path style="fill:#6E6E6E;stroke:#000000;stroke-linecap:round;stroke-linejoin:round;" d="M236.833,342.167c0,0-2.667,12.334-3.333,15.667"></path><path style="fill:#6E6E6E;stroke:#000000;stroke-linecap:round;stroke-linejoin:round;" d="M270,373.834c0,0,3.5,13.499,4.667,21.833"></path><path style="fill:#6E6E6E;stroke:#000000;stroke-linecap:round;stroke-linejoin:round;" d="M271.667,346.001c0,0,15.166,21,17.333,30.5"></path><path style="fill:#6E6E6E;stroke:#000000;stroke-linecap:round;stroke-linejoin:round;" d="M262.834,343.834c0,0,6.999,27.334,7.166,29.167c0.5-4.667-0.167-12.833-1.5-16.5S262.834,343.834,262.834,343.834z"></path><path style="fill:#6E6E6E;stroke:#000000;stroke-linecap:round;stroke-linejoin:round;" d="M228.167,342.334c0,0-6.334,8.834-8.167,14.667"></path><path style="fill:#6E6E6E;stroke:#000000;stroke-linecap:round;stroke-linejoin:round;" d="M223.667,342.834c0,0-2.333,4.833-2.833,8.833"></path><path style="fill:#6E6E6E;stroke:#000000;stroke-linecap:round;stroke-linejoin:round;" d="M276.167,343.167c0,0,4.499,6.667,4.333,13.667"></path><path style="fill:#6E6E6E;stroke:#000000;stroke-linecap:round;stroke-linejoin:round;" d="M207.25,389.75c0,0,4-15.25,8.25-22.75"></path></g></g><g><path style="fill:#6E6E6E;stroke:#000000;stroke-linecap:round;stroke-linejoin:round;" d="M278,335c-8.25,0-28,0-28,0s-19.75,0-28,0c-0.75,0-2.75,7.5-2.75,7.5s10.75,0.1,30.75,0.1s30.75-0.1,30.75-0.1S278.75,335,278,335z"></path><path style="fill:none;stroke:#000000;stroke-linecap:round;stroke-linejoin:round;" d="M220.75,342.25c0,0,11-0.833,17.75-1.583s39.25,1.833,39.25,1.833"></path></g></g></g></svg>