<svg xmlns="http://www.w3.org/2000/svg" width="500" height="500" version="1.1"><g id="x079"><g><path style="fill:#6E6E6E;stroke:#000000;stroke-linecap:round;stroke-linejoin:round;" d="M250,348c-25.375,0-31.521-3-31.521-3c-3.773,7.92-11.468,24.48-13.411,31.806c6.204,2.675,12.81,3.692,12.81,3.692s0.3,2.483,0,2.292c5.803,2.676,16.661,2.58,16.661,2.58l0.15,1.881c0,0,7.146,1.01,15.312,0.765c8.163,0.245,15.31-0.765,15.31-0.765l0.151-1.881c0,0,10.855,0.096,16.66-2.58c-0.3,0.191,0-2.292,0-2.292s6.604-1.018,12.81-3.692c-1.944-7.325-9.639-23.886-13.411-31.806C281.521,345,275.374,348,250,348z"></path><path style="fill:#505050;" d="M224.709,346.961c-6.335,7.293-11.554,32.391-11.554,32.391l5.003,0.639c0,0,5.126-25.898,7.241-32.957L224.709,346.961z"></path><path style="fill:#505050;" d="M236.464,348.136c-4.759,11.772-5.898,36.821-5.898,36.821l3.973,0.413l3.327-37.178L236.464,348.136z"></path><path style="fill:#505050;" d="M286.605,379.352c0,0-5.164-24.834-11.452-32.277l-0.754,0.092c2.138,7.238,7.202,32.824,7.202,32.824L286.605,379.352z"></path><path style="fill:#505050;" d="M269.193,384.957c0,0-1.138-25.007-5.885-36.792l-1.409,0.083l3.32,37.122L269.193,384.957z"></path><path style="fill:none;stroke:#000000;stroke-linecap:round;stroke-linejoin:round;" d="M217.156,382.41c0,0,4.433-24.464,8.599-35.658"></path><path style="fill:none;stroke:#000000;stroke-linecap:round;stroke-linejoin:round;" d="M234.969,386.358c0,0,1.259-26.588,2.939-38.656"></path><path style="fill:none;stroke:#000000;stroke-linecap:round;stroke-linejoin:round;" d="M282.603,382.41c0,0-4.465-24.653-8.646-35.788"></path><path style="fill:none;stroke:#000000;stroke-linecap:round;stroke-linejoin:round;" d="M264.791,386.358c0,0-1.262-26.636-2.943-38.689"></path></g></g></svg>