<svg xmlns="http://www.w3.org/2000/svg" width="500" height="500" version="1.1"><g id="x080"><g><g><g><path style="fill:#6E6E6E;stroke:#000000;stroke-linecap:round;stroke-linejoin:round;" d="M220.75,416.25c0,0.75,1.5,14,2,16.25c-0.25,2.5-1.5,4-0.75,5s2,3,2,3s2.25-3,9-3s7.75,2.5,7.75,2.5s2.25-3.25,1.75-4s-1.75-3.75-1.75-3.75S243,423,243.25,417C232.75,417,220.75,416.25,220.75,416.25z"></path><g><path style="fill:#505050;" d="M221.375,418.125l0.75,4.75c0,0,3.875-1.125,9.375-0.375s10.25,2.75,10.25,2.75l0.875-4.875C242.625,420.375,231.5,417.5,221.375,418.125z"></path></g></g><g><path style="fill:#6E6E6E;stroke:#000000;stroke-linecap:round;stroke-linejoin:round;" d="M279.25,416.25c0,0.75-1.5,14-2,16.25c0.25,2.5,1.5,4,0.75,5s-2,3-2,3s-2.25-3-9-3s-7.75,2.5-7.75,2.5s-2.25-3.25-1.75-4s1.75-3.75,1.75-3.75S257,423,256.75,417C267.25,417,279.25,416.25,279.25,416.25z"></path><path style="fill:#505050;" d="M278.625,418.125l-0.75,4.75c0,0-3.875-1.125-9.375-0.375s-10.25,2.75-10.25,2.75l-0.875-4.875C257.375,420.375,268.5,417.5,278.625,418.125z"></path></g></g><g><path style="fill:#6E6E6E;stroke:#000000;stroke-linecap:round;stroke-linejoin:round;" d="M286.543,348.185L250,349.489l-36.542-1.305c0,0-9.57,37.412-7.395,59.164c10.005,3.044,32.627,5.22,43.938,5.22s33.933-2.176,43.938-5.22C296.113,385.597,286.543,348.185,286.543,348.185z"></path><g><g><path style="fill:#505050;" d="M218.833,390.835c0,0-5.499,4.667-6.166,4.667S211,389.335,211,389.335L218.833,390.835z"></path><path style="fill:#505050;" d="M223.333,391.835c0,0,1.5,4.167,2.5,4.667s6.167-4.834,6.167-4.834L223.333,391.835z"></path><path style="fill:#505050;" d="M238.778,392.573c0,0,1.722,5.095,3.389,5.095c1.666,0,4.166-5.667,4.166-5.667L238.778,392.573z"></path></g><g><path style="fill:#505050;" d="M281.167,390.835c0,0,5.499,4.667,6.166,4.667s1.667-6.167,1.667-6.167L281.167,390.835z"></path><path style="fill:#505050;" d="M276.667,391.835c0,0-1.5,4.167-2.5,4.667S268,391.668,268,391.668L276.667,391.835z"></path><path style="fill:#505050;" d="M261.222,392.573c0,0-1.723,5.095-3.389,5.095s-4.166-5.667-4.166-5.667L261.222,392.573z"></path></g></g><path style="fill:#505050;" d="M289,361l-39-3l-39,3c0,0-1.5,5.834-1.5,7.5c2.334-2.5,7.167-3.5,10.167-3.5c0.5,2.666,2.167,5.999,2.667,5.166S222.333,366.5,224.5,366s7.667,0.333,8.334,1.333c0.666,1,2.667,4.667,3.333,4.5c0.667-0.167,3.333-4,5.167-4c1.833,0,2.5,3.5,8.666,3.5c6.168,0,6.834-3.5,8.668-3.5c1.832,0,4.5,3.833,5.166,4s2.666-3.5,3.334-4.5c0.666-1,6.166-1.833,8.332-1.333c2.168,0.5,1.668,3.333,2.168,4.166s2.166-2.5,2.666-5.166c3,0,7.834,1,10.166,3.5C290.5,366.834,289,361,289,361z"></path><g><path style="fill:#FFFFFF;stroke:#000000;stroke-linecap:round;stroke-linejoin:round;" d="M291.25,371.25c0,0-22,2.25-41.25,2.25s-41.25-2.25-41.25-2.25l-0.875,6.25L250,382.75l42.125-5.25L291.25,371.25z"></path><g><polygon style="fill:#3F3F3F;stroke:#000000;stroke-linecap:round;stroke-linejoin:round;" points="208.666,371.666 211.666,378.5 207.666,378 "></polygon><polygon style="fill:#3F3F3F;stroke:#000000;stroke-linecap:round;stroke-linejoin:round;" points="211.802,378.697 216.478,371.96 220.016,379.461 "></polygon><polygon style="fill:#3F3F3F;stroke:#000000;stroke-linecap:round;stroke-linejoin:round;" points="245.666,380.833 241.488,373.833 237.5,380.666 "></polygon><polygon style="fill:#3F3F3F;stroke:#000000;stroke-linecap:round;stroke-linejoin:round;" points="236.823,380.656 232.861,373.531 228.665,380.238 "></polygon><polygon style="fill:#3F3F3F;stroke:#000000;stroke-linecap:round;stroke-linejoin:round;" points="228.714,380.11 224.969,372.869 220.572,379.446 "></polygon><polygon style="fill:#3F3F3F;stroke:#000000;stroke-linecap:round;stroke-linejoin:round;" points="291.334,371.666 288.334,378.5 292.334,378 "></polygon><polygon style="fill:#3F3F3F;stroke:#000000;stroke-linecap:round;stroke-linejoin:round;" points="288.199,378.697 283.523,371.96 279.984,379.461 "></polygon><polygon style="fill:#3F3F3F;stroke:#000000;stroke-linecap:round;stroke-linejoin:round;" points="250,373.5 246,380.5 250,380.75 254,380.5 "></polygon><polygon style="fill:#3F3F3F;stroke:#000000;stroke-linecap:round;stroke-linejoin:round;" points="254.334,380.833 258.512,373.833 262.5,380.666 "></polygon><polygon style="fill:#3F3F3F;stroke:#000000;stroke-linecap:round;stroke-linejoin:round;" points="263.178,380.656 267.139,373.531 271.336,380.238 "></polygon><polygon style="fill:#3F3F3F;stroke:#000000;stroke-linecap:round;stroke-linejoin:round;" points="271.287,380.11 275.031,372.869 279.428,379.446 "></polygon></g></g><g><path style="fill:#FFFFFF;stroke:#000000;stroke-linecap:round;stroke-linejoin:round;" d="M289.261,359.361c0,0-20.939,2.142-39.261,2.142c-18.322,0-39.261-2.142-39.261-2.142l-0.833,5.948L250,368.833l40.094-3.523L289.261,359.361z"></path><g><polygon style="fill:#3F3F3F;stroke:#000000;stroke-linecap:round;stroke-linejoin:round;" points="210.659,359.757 213.515,366.262 209.708,365.786 "></polygon><polygon style="fill:#3F3F3F;stroke:#000000;stroke-linecap:round;stroke-linejoin:round;" points="213.644,366.449 218.094,360.037 221.461,367.176 "></polygon><polygon style="fill:#3F3F3F;stroke:#000000;stroke-linecap:round;stroke-linejoin:round;" points="245.875,368.482 241.899,361.819 238.103,368.323 "></polygon><polygon style="fill:#3F3F3F;stroke:#000000;stroke-linecap:round;stroke-linejoin:round;" points="237.458,368.313 233.688,361.532 229.694,367.916 "></polygon><polygon style="fill:#3F3F3F;stroke:#000000;stroke-linecap:round;stroke-linejoin:round;" points="229.74,367.794 226.176,360.902 221.991,367.162 "></polygon><polygon style="fill:#3F3F3F;stroke:#000000;stroke-linecap:round;stroke-linejoin:round;" points="289.341,359.757 286.485,366.262 290.292,365.786 "></polygon><polygon style="fill:#3F3F3F;stroke:#000000;stroke-linecap:round;stroke-linejoin:round;" points="286.357,366.449 281.907,360.037 278.538,367.176 "></polygon><polygon style="fill:#3F3F3F;stroke:#000000;stroke-linecap:round;stroke-linejoin:round;" points="250,361.503 246.193,368.165 250,368.403 253.807,368.165 "></polygon><polygon style="fill:#3F3F3F;stroke:#000000;stroke-linecap:round;stroke-linejoin:round;" points="254.125,368.482 258.102,361.819 261.897,368.323 "></polygon><polygon style="fill:#3F3F3F;stroke:#000000;stroke-linecap:round;stroke-linejoin:round;" points="262.542,368.313 266.313,361.532 270.307,367.916 "></polygon><polygon style="fill:#3F3F3F;stroke:#000000;stroke-linecap:round;stroke-linejoin:round;" points="270.261,367.794 273.824,360.902 278.009,367.162 "></polygon></g></g><g><path style="fill:#6E6E6E;stroke:#000000;stroke-linecap:round;stroke-linejoin:round;" d="M291.575,377.458c0,0-9.388,3.292-41.575,3.292s-41.575-3.292-41.575-3.292s-2.666,5.485-2.46,10.689c0.41,1.126,1.844,1.408,1.844,1.408l0.616-0.703c0,1.124,0.614,1.124,0.614,1.124s2.05,0.423,3.486,0.563c0.41-0.281,1.23-0.423,1.23-0.423l0.205,0.563l2.666,0.423l1.229-0.282c0,0,0.615-1.125,0.821-1.547c-0.41,1.126,0,1.969,0,1.969s2.254,0.705,4.92,0.423c0-0.563,0.82-0.845,0.82-0.845l0.409,1.127h1.026l0.409-0.563c1.025,0.984,5.33,1.267,8.611,1.267c0-0.985,1.025-2.814,1.025-2.814l0.206,3.095c0,0,1.39,0.239,3.501,0.455c0.215,0.021,1.008-0.313,1.008-0.313s0.752,0.235,1.229,0.5c0.603,0.04,1.235,0.075,1.888,0.098c0.053,0.106,0.108,0.198,0.163,0.246c0.752,0.093,1.435,0.093,1.435,0.093s0.049-0.132,0.098-0.306c1.5,0.008,3.058-0.048,4.576-0.209c1.517,0.161,3.076,0.217,4.576,0.209c0.051,0.174,0.096,0.306,0.096,0.306s0.687,0,1.437-0.093c0.057-0.048,0.111-0.14,0.163-0.246c0.653-0.022,1.283-0.058,1.886-0.098c0.48-0.265,1.23-0.5,1.23-0.5s0.793,0.334,1.011,0.313c2.109-0.216,3.501-0.455,3.501-0.455l0.204-3.095c0,0,1.024,1.829,1.024,2.814c3.281,0,7.586-0.282,8.61-1.267l0.412,0.563h1.023l0.411-1.127c0,0,0.82,0.282,0.82,0.845c2.664,0.282,4.92-0.423,4.92-0.423s0.411-0.843,0-1.969c0.204,0.422,0.819,1.547,0.819,1.547l1.23,0.282l2.665-0.423l0.205-0.563c0,0,0.819,0.142,1.229,0.423c1.436-0.141,3.485-0.563,3.485-0.563s0.615,0,0.615-1.124l0.615,0.703c0,0,1.435-0.282,1.846-1.408C294.24,382.943,291.575,377.458,291.575,377.458z"></path><g><path style="fill:#505050;" d="M233.345,382.334c0,0-2.597,5.908-2.323,9.847c0.683,0.188,2.733,0.188,2.733,0.188L233.345,382.334z"></path><path style="fill:#505050;" d="M225.417,381.771l-0.82,8.065l-1.093,1.501h-1.367C222.138,391.338,222.958,384.678,225.417,381.771z"></path><path style="fill:#505050;" d="M206.301,388.007c0,0,0.461-5.768,2.921-7.877c0.41,3.798,0.615,6.752,0.615,6.752s1.025-3.938,1.436-4.36c0.205,1.547,1.127,7.701,1.127,7.701l-3.332-0.563c0,0-0.735-0.573-0.563-2.039c-0.667,0.282-0.821,1.618-0.821,1.618S206.455,388.781,206.301,388.007z"></path><path style="fill:none;stroke:#000000;stroke-linecap:round;stroke-linejoin:round;" d="M210.042,379.004c0,0-1.435,4.36-2.049,9.988"></path><path style="fill:none;stroke:#000000;stroke-linecap:round;stroke-linejoin:round;" d="M211.887,380.974c0,0-1.639,6.893-1.229,8.722"></path><path style="fill:none;stroke:#000000;stroke-linecap:round;stroke-linejoin:round;" d="M233.482,381.959c0,0-0.889,6.752-0.683,10.691"></path><path style="fill:none;stroke:#000000;stroke-linecap:round;stroke-linejoin:round;" d="M227.468,381.958c0,0-0.82,6.472-0.82,9.989"></path><path style="fill:none;stroke:#000000;stroke-linecap:round;stroke-linejoin:round;" d="M225.691,381.303c0,0-1.42,6.143-1.257,9.518"></path><path style="fill:none;stroke:#000000;stroke-linecap:round;stroke-linejoin:round;" d="M220.292,383.084c0,0-1.025,6.189-0.82,8.158"></path><path style="fill:none;stroke:#000000;stroke-linecap:round;stroke-linejoin:round;" d="M218.037,382.943c0,0-1.966,6.188-1.393,8.159"></path><path style="fill:none;stroke:#000000;stroke-linecap:round;stroke-linejoin:round;" d="M245.099,383.225c0,0,0,6.331-0.205,10.55"></path><path style="fill:none;stroke:#000000;stroke-linecap:round;stroke-linejoin:round;" d="M243.049,385.054c0,0-0.41,6.894,0,8.581"></path><path style="fill:#505050;" d="M266.655,382.334c0,0,2.597,5.908,2.325,9.847c-0.684,0.188-2.734,0.188-2.734,0.188L266.655,382.334z"></path><path style="fill:#505050;" d="M274.584,381.771l0.819,8.065l1.094,1.501h1.366C277.863,391.338,277.044,384.678,274.584,381.771z"></path><path style="fill:#505050;" d="M293.7,388.007c0,0-0.46-5.768-2.921-7.877c-0.409,3.798-0.615,6.752-0.615,6.752s-1.024-3.938-1.435-4.36c-0.205,1.547-1.128,7.701-1.128,7.701l3.331-0.563c0,0,0.734-0.573,0.563-2.039c0.665,0.282,0.821,1.618,0.821,1.618S293.547,388.781,293.7,388.007z"></path><path style="fill:none;stroke:#000000;stroke-linecap:round;stroke-linejoin:round;" d="M289.959,379.004c0,0,1.435,4.36,2.05,9.988"></path><path style="fill:none;stroke:#000000;stroke-linecap:round;stroke-linejoin:round;" d="M288.113,380.974c0,0,1.641,6.893,1.23,8.722"></path><path style="fill:none;stroke:#000000;stroke-linecap:round;stroke-linejoin:round;" d="M266.52,381.959c0,0,0.89,6.752,0.684,10.691"></path><path style="fill:none;stroke:#000000;stroke-linecap:round;stroke-linejoin:round;" d="M272.533,381.958c0,0,0.821,6.472,0.821,9.989"></path><path style="fill:none;stroke:#000000;stroke-linecap:round;stroke-linejoin:round;" d="M274.31,381.303c0,0,1.422,6.143,1.257,9.518"></path><path style="fill:none;stroke:#000000;stroke-linecap:round;stroke-linejoin:round;" d="M279.709,383.084c0,0,1.023,6.189,0.819,8.158"></path><path style="fill:none;stroke:#000000;stroke-linecap:round;stroke-linejoin:round;" d="M281.963,382.943c0,0,1.968,6.188,1.394,8.159"></path><path style="fill:none;stroke:#000000;stroke-linecap:round;stroke-linejoin:round;" d="M254.903,383.225c0,0,0,6.331,0.204,10.55"></path><path style="fill:none;stroke:#000000;stroke-linecap:round;stroke-linejoin:round;" d="M256.953,385.054c0,0,0.409,6.894,0,8.581"></path></g></g><g><path style="fill:#6E6E6E;stroke:#000000;stroke-linecap:round;stroke-linejoin:round;" d="M294.111,396.473c0,0-9.961,4.86-44.111,4.86c-34.15,0-44.111-4.86-44.111-4.86s-2.828,8.483-2.61,16.53c0.435,1.74,1.958,2.176,1.958,2.176l0.653-1.088c0,1.74,0.652,1.74,0.652,1.74s2.175,0.653,3.698,0.87c0.435-0.435,1.305-0.652,1.305-0.652l0.217,0.869l2.828,0.653l1.305-0.436c0,0,0.652-1.74,0.87-2.393c-0.435,1.741,0,3.045,0,3.045s2.393,1.089,5.221,0.653c0-0.87,0.87-1.306,0.87-1.306l0.435,1.741h1.088l0.435-0.871c1.087,1.522,5.655,1.958,9.136,1.958c0-1.522,1.087-4.351,1.087-4.351l0.218,4.785c0,0,1.475,0.371,3.715,0.701c0.228,0.033,1.07-0.482,1.07-0.482s0.798,0.362,1.305,0.773c0.639,0.062,1.31,0.115,2.002,0.151c0.056,0.165,0.114,0.307,0.173,0.38c0.798,0.145,1.522,0.145,1.522,0.145s0.052-0.205,0.104-0.474c1.592,0.013,3.244-0.073,4.855-0.323c1.61,0.25,3.263,0.336,4.855,0.323c0.053,0.269,0.103,0.474,0.103,0.474s0.727,0,1.523-0.145c0.06-0.073,0.117-0.215,0.173-0.38c0.692-0.036,1.362-0.09,2.002-0.151c0.508-0.411,1.305-0.773,1.305-0.773s0.841,0.516,1.071,0.482c2.239-0.33,3.715-0.701,3.715-0.701l0.217-4.785c0,0,1.088,2.828,1.088,4.351c3.48,0,8.048-0.436,9.135-1.958l0.436,0.871h1.088l0.436-1.741c0,0,0.869,0.436,0.869,1.306c2.828,0.436,5.221-0.653,5.221-0.653s0.436-1.304,0-3.045c0.218,0.652,0.871,2.393,0.871,2.393l1.304,0.436l2.828-0.653l0.218-0.869c0,0,0.869,0.218,1.305,0.652c1.522-0.217,3.697-0.87,3.697-0.87s0.653,0,0.653-1.74l0.652,1.088c0,0,1.522-0.436,1.958-2.176C296.939,404.956,294.111,396.473,294.111,396.473z"></path><g><path style="fill:#505050;" d="M232.329,404.013c0,0-2.755,9.136-2.465,15.226c0.725,0.291,2.9,0.291,2.9,0.291L232.329,404.013z"></path><path style="fill:#505050;" d="M223.918,403.144l-0.871,12.471l-1.16,2.321h-1.45C220.438,417.936,221.308,407.64,223.918,403.144z"></path><path style="fill:#505050;" d="M203.635,412.785c0,0,0.489-8.918,3.1-12.18c0.435,5.872,0.652,10.44,0.652,10.44s1.087-6.09,1.523-6.743c0.217,2.393,1.196,11.909,1.196,11.909l-3.535-0.871c0,0-0.779-0.888-0.598-3.153c-0.707,0.436-0.871,2.502-0.871,2.502S203.798,413.981,203.635,412.785z"></path><path style="fill:none;stroke:#000000;stroke-linecap:round;stroke-linejoin:round;" d="M207.604,398.864c0,0-1.522,6.743-2.175,15.444"></path><path style="fill:none;stroke:#000000;stroke-linecap:round;stroke-linejoin:round;" d="M209.562,401.91c0,0-1.74,10.658-1.304,13.485"></path><path style="fill:none;stroke:#000000;stroke-linecap:round;stroke-linejoin:round;" d="M232.474,403.434c0,0-0.943,10.44-0.725,16.53"></path><path style="fill:none;stroke:#000000;stroke-linecap:round;stroke-linejoin:round;" d="M226.094,403.433c0,0-0.871,10.006-0.871,15.444"></path><path style="fill:none;stroke:#000000;stroke-linecap:round;stroke-linejoin:round;" d="M224.208,402.419c0,0-1.507,9.497-1.334,14.717"></path><path style="fill:none;stroke:#000000;stroke-linecap:round;stroke-linejoin:round;" d="M218.48,405.173c0,0-1.088,9.57-0.87,12.615"></path><path style="fill:none;stroke:#000000;stroke-linecap:round;stroke-linejoin:round;" d="M216.088,404.956c0,0-2.087,9.569-1.479,12.615"></path><path style="fill:none;stroke:#000000;stroke-linecap:round;stroke-linejoin:round;" d="M244.8,405.391c0,0,0,9.788-0.218,16.313"></path><path style="fill:none;stroke:#000000;stroke-linecap:round;stroke-linejoin:round;" d="M242.625,408.218c0,0-0.435,10.659,0,13.269"></path><path style="fill:#505050;" d="M267.672,404.013c0,0,2.755,9.136,2.466,15.226c-0.726,0.291-2.901,0.291-2.901,0.291L267.672,404.013z"></path><path style="fill:#505050;" d="M276.083,403.144l0.87,12.471l1.16,2.321h1.45C279.563,417.936,278.693,407.64,276.083,403.144z"></path><path style="fill:#505050;" d="M296.366,412.785c0,0-0.489-8.918-3.1-12.18c-0.435,5.872-0.652,10.44-0.652,10.44s-1.087-6.09-1.522-6.743c-0.218,2.393-1.196,11.909-1.196,11.909l3.534-0.871c0,0,0.778-0.888,0.599-3.153c0.706,0.436,0.87,2.502,0.87,2.502S296.203,413.981,296.366,412.785z"></path><path style="fill:none;stroke:#000000;stroke-linecap:round;stroke-linejoin:round;" d="M292.396,398.864c0,0,1.522,6.743,2.175,15.444"></path><path style="fill:none;stroke:#000000;stroke-linecap:round;stroke-linejoin:round;" d="M290.438,401.91c0,0,1.74,10.658,1.305,13.485"></path><path style="fill:none;stroke:#000000;stroke-linecap:round;stroke-linejoin:round;" d="M267.527,403.434c0,0,0.943,10.44,0.726,16.53"></path><path style="fill:none;stroke:#000000;stroke-linecap:round;stroke-linejoin:round;" d="M273.907,403.433c0,0,0.871,10.006,0.871,15.444"></path><path style="fill:none;stroke:#000000;stroke-linecap:round;stroke-linejoin:round;" d="M275.793,402.419c0,0,1.507,9.497,1.333,14.717"></path><path style="fill:none;stroke:#000000;stroke-linecap:round;stroke-linejoin:round;" d="M281.521,405.173c0,0,1.087,9.57,0.871,12.615"></path><path style="fill:none;stroke:#000000;stroke-linecap:round;stroke-linejoin:round;" d="M283.914,404.956c0,0,2.086,9.569,1.478,12.615"></path><path style="fill:none;stroke:#000000;stroke-linecap:round;stroke-linejoin:round;" d="M255.202,405.391c0,0,0,9.788,0.218,16.313"></path><path style="fill:none;stroke:#000000;stroke-linecap:round;stroke-linejoin:round;" d="M257.377,408.218c0,0,0.435,10.659,0,13.269"></path></g></g></g></g></g></svg>