<svg xmlns="http://www.w3.org/2000/svg" width="500" height="500" version="1.1"><g id="x081"><g><g id="bottomsXMLID_9_"><g><path style="fill:#6E6E6E;" d="M279.58,340c0,0.75,3.24,10,4.229,14.75c1,4.75,2.19,14.5,1.94,23.75c2.5,10.75,4,14,6.27,18c-0.25,1.5-2.489,5-2.489,5s2.239,5.5,2.979,9c0.75,3.5,1,9.75,2.74,15c-1.99,3.25-8.21,3.75-8.21,3.75s0,1,0.25,2.75c-5.22,3.75-13.68-1.25-13.68-1.25s-0.5,1.75-0.99,4c-6.22,1.5-10.7-2.5-14.18-3.5c-3.48-1-5.971-0.25-9.45,0.75c-8.45,3.25-14.42-1.25-14.42-1.25s0.25-3,0.5-4.75c-7.96,0-12.57,9-20.64,3.25c-2.68,0.75-9.18-2.5-10.18-4.75c9.25-41,12.67-84.5,12.67-84.5s11.94,2.25,31.83,2.25c19.89,0,30.09-4.25,30.09-4.25l1.49,0.5C280.33,338.5,280.33,338.5,279.58,340z"></path></g><path style="fill:#505050;" d="M260.5,349.5c-0.5,1.5-11.5,40.25-18.75,55.75c-3.5-7-11.25,3.25-11.25,2.5c4.75-8.5,28.75-60,28.75-60L260.5,349.5z"></path><path style="fill:#505050;" d="M211.667,390c0,0,16-1,24.667-9s22.917-33.25,22.917-33.25L211.667,390z"></path><circle style="fill:#FFE89E;" cx="215.75" cy="406.5" r="2.5"></circle><g><path style="fill:#505050;" d="M255.75,388.25c-0.437,0.546-2.872,8.947-5.479,18.242c0.958,0.351,1.646,1.262,1.646,2.341c0,1.381-1.119,2.5-2.5,2.5c-0.166,0-0.327-0.018-0.483-0.049c-1.159,4.17-2.291,8.283-3.235,11.731c0.418-0.024,0.834-0.084,1.243-0.217c1.726-0.56,2.981-1.174,4.089-1.715c0.906-0.443,1.751-0.854,2.667-1.131C254.997,406.152,256.538,387.265,255.75,388.25z"></path><path style="fill:#FFE89E;" d="M249.417,406.333c-1.381,0-2.5,1.119-2.5,2.5c0,1.215,0.868,2.226,2.017,2.451c0.445-1.601,0.894-3.208,1.337-4.792C250.003,406.395,249.718,406.333,249.417,406.333z"></path><path style="fill:#C49C87;" d="M251.916,408.833c0-1.079-0.688-1.99-1.646-2.341c-0.444,1.584-0.893,3.191-1.337,4.792c0.157,0.031,0.318,0.049,0.483,0.049C250.797,411.333,251.916,410.214,251.916,408.833z"></path></g><circle style="fill:#FFE89E;" cx="289.417" cy="413.5" r="2.5"></circle><circle style="fill:#FFE89E;" cx="256.416" cy="381.166" r="2.5"></circle><circle style="fill:#FFE89E;" cx="269.749" cy="389.166" r="2.5"></circle><circle style="fill:#FFE89E;" cx="271.416" cy="356.166" r="2.5"></circle><circle style="fill:#FFE89E;" cx="220.813" cy="398.188" r="1.063"></circle><circle style="fill:#FFE89E;" cx="224.563" cy="409.938" r="1.063"></circle><circle style="fill:#FFE89E;" cx="241.896" cy="378.938" r="1.063"></circle><circle style="fill:#FFE89E;" cx="230.313" cy="400.938" r="1.063"></circle><circle style="fill:#FFE89E;" cx="258.979" cy="371.271" r="1.063"></circle><circle style="fill:#FFE89E;" cx="272.979" cy="382.271" r="1.063"></circle><circle style="fill:#FFE89E;" cx="276.646" cy="408.604" r="1.063"></circle><circle style="fill:#FFE89E;" cx="277.98" cy="396.938" r="1.063"></circle><circle style="fill:#FFE89E;" cx="285.647" cy="402.604" r="1.063"></circle><circle style="fill:#FFE89E;" cx="277.314" cy="354.604" r="1.063"></circle><circle style="fill:#FFE89E;" cx="282.647" cy="366.938" r="1.063"></circle><circle style="fill:#FFE89E;" cx="269.647" cy="348.604" r="1.063"></circle><circle style="fill:#FFE89E;" cx="275.647" cy="341.938" r="1.063"></circle><circle style="fill:#C49C87;" cx="240.313" cy="399.188" r="1.063"></circle><circle style="fill:#C49C87;" cx="253.646" cy="404.188" r="1.063"></circle><circle style="fill:#C49C87;" cx="245.813" cy="386.688" r="1.063"></circle><circle style="fill:#FFE89E;" cx="214.063" cy="391.688" r="1.063"></circle><circle style="fill:#FFE89E;" cx="230.141" cy="388.259" r="2.5"></circle><circle style="fill:#C49C87;" cx="228.348" cy="381.684" r="1.063"></circle><g><path style="fill:#505050;" d="M251.137,423.254c-0.968,0.462-2.123,0.976-3.578,1.447c-0.038,0.012-0.075,0.02-0.113,0.03l0.975,4.634L251.137,423.254z"></path><path style="fill:#505050;" d="M253.487,422.15c-0.306,0.126-0.626,0.273-0.958,0.432l-3.822,8.603l-0.218,0.491c0.563-0.131,1.129-0.306,1.682-0.53l3.218-7.979C253.422,422.827,253.454,422.498,253.487,422.15z"></path><path style="fill:#505050;" d="M246.469,424.947c-0.441,0.063-0.881,0.086-1.317,0.072l1.021,7.004c0.544-0.041,1.132-0.114,1.737-0.228l-0.15-0.712L246.469,424.947z"></path><path style="fill:#505050;" d="M253.038,426.709l-1.513,3.752c0.438-0.274,0.853-0.589,1.225-0.961C252.839,428.666,252.937,427.718,253.038,426.709z"></path><path style="fill:#505050;" d="M243.708,430.313l0.191,1.736c0.326,0.018,0.764,0.028,1.271,0.02l-0.677-4.643C244.177,428.585,243.912,429.563,243.708,430.313z"></path><path style="fill:#FFE89E;" d="M252.529,422.582l0.095-0.213l-0.914-0.406l-0.573,1.291c0.27-0.129,0.53-0.255,0.771-0.373C252.127,422.774,252.328,422.678,252.529,422.582z"></path><path style="fill:#FFE89E;" d="M247.323,424.147l-0.979,0.205l0.125,0.595c0.326-0.046,0.651-0.117,0.977-0.216L247.323,424.147z"></path><path style="fill:#FFE89E;" d="M248.079,432.598l0.41-0.922c-0.194,0.045-0.386,0.084-0.578,0.12L248.079,432.598z"></path><path style="fill:#C49C87;" d="M251.908,422.881c-0.241,0.118-0.502,0.244-0.771,0.373l-2.716,6.111l-0.975-4.634c-0.326,0.099-0.651,0.17-0.977,0.216l1.292,6.137l0.15,0.712c0.192-0.036,0.384-0.075,0.578-0.12l0.218-0.491l3.822-8.603C252.328,422.678,252.127,422.774,251.908,422.881z"></path><path style="fill:#FFE89E;" d="M250.036,431.479l0.928,0.374l0.562-1.393c-0.432,0.271-0.887,0.495-1.354,0.685L250.036,431.479z"></path><path style="fill:#FFE89E;" d="M255.131,421.52l-0.928-0.373l-0.814,2.02c-0.122,1.258-0.239,2.445-0.351,3.543L255.131,421.52z"></path><path style="fill:#C49C87;" d="M253.389,423.166l-3.218,7.979c0.468-0.189,0.923-0.414,1.354-0.685l1.513-3.752C253.149,425.611,253.267,424.424,253.389,423.166z"></path><path style="fill:#FFE89E;" d="M243.708,430.313l-0.71-6.452l-0.107-0.97l-0.725,0.653l-7.583,6.834l0.669,0.742l6.859-6.181l-0.107-0.97l0.832,0.316l-0.725,0.653l0.893,8.114l0.994-0.109l-0.099-0.896c-0.406-0.021-0.648-0.05-0.648-0.05S243.416,431.386,243.708,430.313z"></path><polygon style="fill:#FFE89E;" points="242.003,423.971 242.11,424.94 242.835,424.287 "></polygon><path style="fill:#FFE89E;" d="M243.25,432c0,0,0.242,0.028,0.648,0.05l-0.191-1.736C243.416,431.386,243.25,432,243.25,432z"></path><path style="fill:#FFE89E;" d="M245.152,425.02l-0.074-0.509l-0.989,0.145l0.404,2.771c0.2-0.736,0.42-1.54,0.657-2.407C245.151,425.02,245.151,425.02,245.152,425.02z"></path><path style="fill:#FFE89E;" d="M245.255,432.655l0.989-0.145l-0.071-0.487c-0.358,0.026-0.692,0.04-1.003,0.046L245.255,432.655z"></path><path style="fill:#C49C87;" d="M245.15,425.02c-0.237,0.867-0.457,1.671-0.657,2.407l0.677,4.643c0.312-0.006,0.645-0.02,1.003-0.046l-1.021-7.004C245.151,425.02,245.151,425.02,245.15,425.02z"></path></g><path style="fill:#505050;" d="M274,430.25c0,0,2.25,1.25,6,2c-0.194-2.483-0.638-5.396-1.223-8.473c-2.452-0.515-4.408-1.419-5.382-1.929L274,430.25z"></path><g><path style="fill:#505050;" d="M264.87,423.35c-0.448-0.145-0.896-0.274-1.344-0.401l1.258,5.464C264.838,427.015,264.865,425.307,264.87,423.35z"></path><path style="fill:#505050;" d="M260.537,422.219l2.554,9.758c0.426,0.135,0.846,0.258,1.243,0.357c0.068-0.117,0.129-0.329,0.183-0.625l-2.084-9.052C261.786,422.492,261.152,422.346,260.537,422.219z"></path><path style="fill:#505050;" d="M258,430c0,0,0.4,0.182,1.026,0.446l-0.816-3.19L258,430z"></path><path style="fill:#505050;" d="M258.621,421.867l-0.174,2.283l1.732,6.771c0.497,0.199,1.046,0.409,1.61,0.613l-2.346-9.525C259.168,421.962,258.884,421.907,258.621,421.867z"></path><path style="fill:#FFE89E;" d="M259.349,431.707l0.969-0.248l-0.138-0.537c-0.434-0.173-0.823-0.335-1.153-0.476L259.349,431.707z"></path><polygon style="fill:#FFE89E;" points="257.651,421.042 257.26,419.512 256.699,420.988 253.032,430.655 253.968,431.011 257.074,422.821 256.683,421.29 257.635,421.344 257.074,422.821 258.21,427.256 258.447,424.15 "></polygon><polygon style="fill:#FFE89E;" points="256.683,421.29 257.074,422.821 257.635,421.344 "></polygon><path style="fill:#C49C87;" d="M258.21,427.256l0.816,3.19c0.33,0.141,0.72,0.303,1.153,0.476l-1.732-6.771L258.21,427.256z"></path><path style="fill:#FFE89E;" d="M260.318,421.381l-0.971,0.238l0.097,0.391c0.356,0.063,0.718,0.132,1.093,0.209L260.318,421.381z"></path><path style="fill:#FFE89E;" d="M262.098,432.785l1.277,0.277l-0.284-1.086c-0.433-0.137-0.87-0.286-1.301-0.441L262.098,432.785z"></path><path style="fill:#C49C87;" d="M259.444,422.01l2.346,9.525c0.431,0.155,0.868,0.305,1.301,0.441l-2.554-9.758C260.162,422.142,259.801,422.073,259.444,422.01z"></path><path style="fill:#FFE89E;" d="M268.286,423.73l-2.907,7.268l0.358,1.556l-0.951-0.073l0.593-1.482l-0.595-2.586c-0.058,1.487-0.145,2.619-0.268,3.297l0.246,1.069l0.358,1.557l0.593-1.483l3.5-8.75L268.286,423.73z"></path><path style="fill:#FFE89E;" d="M263.32,422.054l-0.975,0.225l0.087,0.379c0.363,0.092,0.726,0.187,1.094,0.291L263.32,422.054z"></path><polygon style="fill:#FFE89E;" points="265.737,432.554 265.379,430.998 264.786,432.48 "></polygon><path style="fill:#C49C87;" d="M263.526,422.948c-0.368-0.104-0.73-0.199-1.094-0.291l2.084,9.052c0.123-0.678,0.21-1.81,0.268-3.297L263.526,422.948z"></path></g><line style="fill:none;stroke:#FFE09E;" x1="266.917" y1="434.5" x2="270.667" y2="425.5"></line><path style="fill:none;stroke:#FFE09E;" d="M269.583,434.75c0.084-0.25,3-7.917,3-7.917"></path><g><rect x="271.789" y="424.958" transform="matrix(-0.3893 0.9211 -0.9211 -0.3893 773.9471 337.7579)" style="fill:#C49C87;" width="6.423" height="1"></rect></g><g><polygon style="fill:#C49C87;" points="275.296,431.355 278.713,423.022 277.764,422.95 280.181,432.95 281.153,432.716 278.736,422.716 278.373,421.215 277.787,422.644 274.37,430.977 "></polygon></g><line style="fill:none;stroke:#FFE09E;" x1="280.833" y1="423.416" x2="283.083" y2="432.916"></line><path style="fill:none;stroke:#FFE09E;" d="M283.167,423.416c0,0,3.25,9.25,3.25,9s0.623-3.166,0.623-3.166"></path><line style="fill:none;stroke:#FFE09E;" x1="285.75" y1="420.333" x2="289.583" y2="428.75"></line><polyline style="fill:none;stroke:#FFE09E;" points="287.583,420.166 291.333,428.25 291.917,418.833 "></polyline><line style="fill:none;stroke:#FFE09E;" x1="293.5" y1="427.25" x2="294.083" y2="421.5"></line><line style="fill:none;stroke:#FFE09E;" x1="234.833" y1="427.75" x2="240.25" y2="423.167"></line><g><path style="fill:#FFE89E;" d="M205.443,418.842c0.126,0.171,3.159,4.191,10.133,3.655l-0.658-0.184c2.021,1.444,6.157,3.098,8.647,1.386l0.635-0.447c2.486-1.769,7.649-5.908,14.424-6.127l0.593-1.999c-7.378,0.237-13.543,4.623-16.176,6.496l-0.608,0.429c-1.458,1.002-4.681-0.171-6.353-1.364l-0.295-0.212l-0.362,0.028c-5.813,0.447-8.269-2.715-8.371-2.85l-0.051-0.068c-0.004-0.006-0.688-0.866-0.688-0.866L205.443,418.842z"></path></g><path style="fill:none;stroke:#FFE09E;" d="M205.688,419.438c0,0,1.438,7.75,1.313,7.563"></path><polyline style="fill:none;stroke:#FFE09E;" points="207.625,419.813 209.5,427.875 215.25,422.438 "></polyline><line style="fill:none;stroke:#FFE09E;" x1="211.625" y1="429" x2="217.813" y2="423.25"></line><path style="fill:none;stroke:#FFE09E;" d="M214.688,429.25c0-0.188,5.188-5.313,5.188-5.313l2.313,6.625"></path><line style="fill:none;stroke:#FFE09E;" x1="221.813" y1="423.75" x2="224" y2="430"></line><polyline style="fill:none;stroke:#FFE09E;" points="223.688,422.875 225.675,428.188 228.063,419.938 "></polyline><path style="fill:none;stroke:#FFE09E;" d="M227.875,427.813c0-0.438,2.563-8.75,2.563-8.75l2.625,6.938"></path><path style="fill:none;stroke:#FFE09E;" d="M232.75,417.75c0,0.213-0.011,0.155,2.563,7.438"></path><line style="fill:none;stroke:#FFE09E;" x1="234.712" y1="417.375" x2="236.275" y2="422.438"></line><g><path style="fill:#FFE89E;" d="M237.969,419.313l-1.158,1.787c0.191,0.182,4.056,3.788,8.339,3.92c0.175-0.639,0.357-1.307,0.548-2.004C242.029,423.228,238.011,419.353,237.969,419.313z"></path><path style="fill:#FFE89E;" d="M264.866,420.984c0.005,0.822,0.006,1.611,0.004,2.365c3.276,1.058,6.468,2.585,8.192,4.588l0.375-2.188C271.351,423.326,268.021,421.869,264.866,420.984z"></path><path style="fill:#505050;" d="M263,364.5l-4.223,55.317c1.559,0.178,3.768,0.516,6.089,1.167C264.766,401.621,263,364.5,263,364.5z"></path><path style="fill:#C49C87;" d="M264.866,420.984c-2.321-0.651-4.53-0.989-6.089-1.167l-0.156,2.05c1.851,0.283,4.065,0.777,6.249,1.482C264.872,422.596,264.871,421.807,264.866,420.984z"></path></g><g><path style="fill:#505050;" d="M278.29,421.327c-2.526-12.18-6.79-25.827-6.79-25.827l1.802,25.04l0.47-0.769C273.804,419.791,275.663,420.738,278.29,421.327z"></path><path style="fill:#FFE89E;" d="M272.728,421.478c0.046,0.028,0.286,0.171,0.668,0.371l-0.094-1.309L272.728,421.478z"></path><path style="fill:#FFE89E;" d="M285.877,423.718l-0.294-2.342c-2.564,0.667-5.177,0.425-7.293-0.049c0.172,0.825,0.334,1.643,0.487,2.45C280.89,424.221,283.36,424.372,285.877,423.718z"></path><path style="fill:#C49C87;" d="M273.281,419.563l0.021,0.978l0.094,1.309c0.974,0.51,2.93,1.414,5.382,1.929c-0.153-0.808-0.315-1.625-0.487-2.45C275.663,420.738,273.313,419.582,273.281,419.563z"></path></g><g><path style="fill:#FFE89E;" d="M285.688,420.719c0.213,0.052,4.699,0.854,7.937-2.807l-0.707-1.911c-3.125,3.167-7.709,2.343-7.75,2.333L285.688,420.719z"></path></g><path style="fill:#FFE89E;" d="M286.094,420.375c-0.031,0.156,0.25,2.891-0.219,3.359c-0.469-2.594-0.708-5.4-0.708-5.4C285.469,418.75,286.094,420.375,286.094,420.375z"></path><g><path style="fill:none;stroke:#000000;stroke-linecap:round;stroke-linejoin:round;" d="M204.25,424.5c1,2.25,7.5,5.5,10.18,4.75c8.07,5.75,12.68-3.25,20.64-3.25c-0.25,1.75-0.5,4.75-0.5,4.75s5.97,4.5,14.42,1.25c3.479-1,5.97-1.75,9.45-0.75c3.479,1,7.96,5,14.18,3.5c0.49-2.25,0.99-4,0.99-4s8.46,5,13.68,1.25c-0.25-1.75-0.25-2.75-0.25-2.75s6.22-0.5,8.21-3.75c-1.74-5.25-1.99-11.5-2.74-15c-0.74-3.5-2.979-9-2.979-9s2.239-3.5,2.489-5c-2.27-4-3.77-7.25-6.27-18c0.25-9.25-0.94-19-1.94-23.75c-0.989-4.75-4.229-14-4.229-14.75c0.75-1.5,0.75-1.5,0.75-1.5l-1.49-0.5c0,0-10.2,4.25-30.09,4.25c-19.89,0-31.83-2.25-31.83-2.25S213.5,383.5,204.25,424.5z"></path></g></g><path style="fill:#505050;" d="M273.25,368.25c0,0,17.5,27.25,18,30.5l-2,1.75L273.25,368.25z"></path><g><path style="fill:#FFE89E;" d="M256.699,419.628c-1.152-0.085-2.111,0.057-3.002,0.325c-0.071,0.75-0.141,1.481-0.21,2.197c0.971-0.398,1.872-0.616,3.063-0.528c0.606,0.045,1.311,0.13,2.07,0.245l0.156-2.05C257.739,419.699,256.979,419.648,256.699,419.628z"></path><path style="fill:#C49C87;" d="M251.03,421.084c-1.108,0.541-2.363,1.155-4.089,1.715c-0.409,0.133-0.825,0.192-1.243,0.217c-0.191,0.697-0.374,1.365-0.548,2.004c0.796,0.024,1.604-0.058,2.409-0.318c1.86-0.604,3.24-1.278,4.35-1.82c0.577-0.282,1.087-0.528,1.579-0.73c0.069-0.716,0.139-1.447,0.21-2.197C252.781,420.229,251.937,420.641,251.03,421.084z"></path></g><path style="fill:none;stroke:#000000;stroke-linecap:round;stroke-linejoin:round;" d="M235.067,426c0,0,16.183-43,24.933-75.75"></path><path style="fill:none;stroke:#000000;stroke-linecap:round;stroke-linejoin:round;" d="M223.5,417.75c0,0,20-28.75,34.5-68.75"></path><path style="fill:none;stroke:#000000;stroke-linecap:round;stroke-linejoin:round;" d="M262.158,358c0.144,13.356-0.126,41.626-4.158,66"></path><path style="fill:none;stroke:#000000;stroke-linecap:round;stroke-linejoin:round;" d="M270.87,392.992c2.176,20.393,2.74,37.758,2.74,37.758"></path><path style="fill:none;stroke:#000000;stroke-linecap:round;stroke-linejoin:round;" d="M289.53,401.5c0,0-17.03-30.5-22.78-48.75"></path><path style="fill:none;stroke:#000000;stroke-linecap:round;stroke-linejoin:round;" d="M285.25,378.75c0,0-10.5-17.5-13.25-22.5"></path></g></g></svg>