<svg xmlns="http://www.w3.org/2000/svg" width="500" height="500" version="1.1"><g id="x086"><g><g><path style="fill:#6E6E6E;stroke:#000000;stroke-linecap:round;stroke-linejoin:round;" d="M288.124,366.334c-0.35-10-5.59-16.667-5.59-16.667c0.35,3.666-4.891,6.667-4.891,6.667s0-3.334-1.747-5.334c-1.048,2.666-6.288,8-6.288,8s0.349-1.666-0.699-5c-1.397,2.666-8.733,9.334-8.733,9.334s1.449-3.459,0.824-5.959c-2.25,4.125-6.764,6.292-6.764,6.292s-0.262-2.125-0.611-3.792c-0.424,0.606-2.75,2.736-3.625,3.698c-0.875-0.962-3.202-3.092-3.625-3.698c-0.35,1.667-0.611,3.792-0.611,3.792s-4.514-2.167-6.764-6.292c-0.625,2.5,0.825,5.959,0.825,5.959s-7.336-6.668-8.734-9.334c-1.048,3.334-0.699,5-0.699,5s-5.24-5.334-6.289-8c-1.747,2-1.747,5.334-1.747,5.334s-5.24-3.001-4.891-6.667c0,0-5.241,6.667-5.59,16.667c-0.349,10,5.59,16.666,5.59,16.666s-0.349,3.668,0,5.334c1.747-1.667,3.144-3.334,3.144-3.334s0.419,2.875,2.515,3.875c1.397-2,3.074-3.541,3.074-3.541s1.747,3.667,3.145,4c1.397-2.667,2.096-3.667,2.096-3.667s1.397,3.001,3.144,3.667c1.748-1.334,2.795-3.334,2.795-3.334l2.445,3.667c1.397-3,2.675-3.792,2.675-3.792l2.915,3.125l0.699-3.666c0,0,2.417-5.574,3.887-8.986c1.469,3.412,3.887,8.986,3.887,8.986l0.699,3.666l2.914-3.125c0,0,1.277,0.792,2.676,3.792l2.445-3.667c0,0,1.047,2,2.795,3.334c1.747-0.666,3.145-3.667,3.145-3.667s0.698,1,2.096,3.667c1.397-0.333,3.145-4,3.145-4s1.678,1.541,3.074,3.541c2.096-1,2.516-3.875,2.516-3.875s1.396,1.667,3.144,3.334c0.349-1.666,0-5.334,0-5.334S288.474,376.334,288.124,366.334z"></path><g><path style="fill:#505050;" d="M249.542,376.417l-3.834,8.833c0,0,1.334-5.25,0.75-6.25c-0.583-1-6.833-2.249-7.416-8.083c2.5,1.333,5.333,2.25,5.333,2.25L249.542,376.417z"></path><path style="fill:#505050;" d="M250.458,376.417l3.834,8.833c0,0-1.334-5.25-0.75-6.25c0.583-1,6.832-2.249,7.416-8.083c-2.5,1.333-5.333,2.25-5.333,2.25L250.458,376.417z"></path></g></g><g><path style="fill:none;stroke:#000000;stroke-linecap:round;stroke-linejoin:round;" d="M242.041,372.319c0,0.333,3,2.215,7.75,3.882"></path><path style="fill:none;stroke:#000000;stroke-linecap:round;stroke-linejoin:round;" d="M257.959,372.319c0,0.333-2.999,2.215-7.75,3.882"></path></g></g></g></svg>