<svg xmlns="http://www.w3.org/2000/svg" width="500" height="500" version="1.1"><g id="x087"><g><g><path style="fill:#6E6E6E;stroke:#000000;stroke-linecap:round;stroke-linejoin:round;" d="M274.313,332.229c0,0-16.162,1.397-23.654,1.271c-0.16,0.003-0.329,0.004-0.496,0.005c-0.167-0.001-0.336-0.002-0.496-0.005c-7.492,0.127-23.653-1.271-23.653-1.271s-27.515,25.938-37.015,83.104c0,0,1.334,2.834,7.334,4.667c2.267,0.982,4.448,2.104,7.5,3.333c3.352,1.348,6.463,2.796,10.166,3.667c4.865,1.145,13.754,0.5,18.166,0.167c9.068-0.686,16.087-1.767,18-1.767c1.837,0,8.931,1.081,18,1.767c4.412,0.333,13.303,0.978,18.168-0.167c3.703-0.871,6.814-2.319,10.166-3.667c3.051-1.229,5.232-2.351,7.5-3.333c6-1.833,7.334-4.667,7.334-4.667C301.83,358.166,274.313,332.229,274.313,332.229z"></path><polygon style="fill:#505050;" points="296.833,422.333 302.834,420 296.167,399.667 "></polygon><polygon style="fill:#505050;" points="204.243,422.583 198.243,420.25 204.909,399.917 "></polygon><path style="fill:#505050;" d="M261.083,425.918c0,0-7.167-48.585-9.167-53.585h-3.832c-2,5-9.167,53.585-9.167,53.585s4.849-0.67,11.083-1.095C256.234,425.248,261.083,425.918,261.083,425.918z"></path><path style="fill:#BF0000;stroke:#000000;stroke-linecap:round;stroke-linejoin:round;" d="M308.969,405.688c-1.583,1.667-9.875,5.438-12.969,5.985c-0.087,0.032-0.171,0.071-0.251,0.118c-5.519,3.247-13.209,5.329-18.296,4.963c-4.73-0.346-9.265-0.837-13.266-1.271c-5.707-0.62-10.652-1.163-14.25-1.066c-3.598-0.097-8.543,0.446-14.25,1.066c-4.001,0.434-8.535,0.925-13.265,1.271c-5.086,0.366-12.776-1.716-18.295-4.963c-0.08-0.047-0.164-0.086-0.251-0.118c-3.093-0.548-11.385-4.318-12.968-5.985l-0.594,2.844c0,0,3.719,3.719,12.414,5.917c5.574,3.248,12.917,5.349,18.475,5.349c0.494,0,0.974-0.017,1.438-0.051c4.783-0.35,9.344-0.844,13.37-1.28c5.64-0.611,10.515-1.136,13.926-1.05c3.411-0.086,8.286,0.438,13.927,1.05c4.025,0.437,8.587,0.931,13.37,1.28c0.464,0.034,0.944,0.051,1.438,0.051c5.559,0,12.901-2.101,18.476-5.349c8.695-2.198,12.414-5.917,12.414-5.917L308.969,405.688z"></path></g><g><path style="fill:#FFFFFF;stroke:#000000;stroke-linecap:round;stroke-linejoin:round;" d="M278.663,333c-1-1.167-56-1.167-57,0c-15,19.167-28.165,46.667-30.999,59c0,0,10.811,9.708,41.318,12.499c3.551,0.325,14.05,0.951,18.181,1.063c4.13-0.111,14.629-0.737,18.181-1.063C298.853,401.708,309.663,392,309.663,392C306.829,379.667,293.663,352.167,278.663,333z"></path><polygon style="fill:#E4E0F3;" points="301.25,394.75 290.5,373.5 293.25,399 "></polygon><polygon style="fill:#E4E0F3;" points="199.494,394.75 210.243,373.5 207.494,399 "></polygon><path style="fill:#FFFFFF;stroke:#000000;stroke-linecap:round;stroke-linejoin:round;" d="M210.5,372c-4.834,13.667-5.667,27.333-5.667,29.333c0,0,18.832,7.585,45.332,6.335c26.5,1.25,45.333-6.335,45.333-6.335c0-2-0.833-15.666-5.667-29.333"></path><path style="fill:#E4E0F3;" d="M273.75,333.666c0,0,2.706,2.034,2.75,4.75c0.044,2.714,2.25,7,2.25,7l-6.833-11.124L273.75,333.666z"></path><path style="fill:#E4E0F3;" d="M263.75,336c0,0,4.25,17.25,5.75,35c0,0-6.75-25-10-34.25L263.75,336"></path><path style="fill:#E4E0F3;" d="M234.497,336c0,0-4.25,17.25-5.75,35c0,0,6.75-25,10-34.25L234.497,336"></path></g></g></g></svg>