<svg xmlns="http://www.w3.org/2000/svg" width="500" height="500" version="1.1"><g id="x009"><g><path style="fill:#6E6E6E;stroke:#000000;stroke-linecap:round;stroke-linejoin:round;" d="M286.159,373.959c-0.889-16.438-0.783-17.725-1.735-21.532c-0.868-3.472-3.473-7.379-3.473-7.379S271,346.75,250,346.75s-30.951-1.702-30.951-1.702s-2.604,3.907-3.473,7.379c-0.952,3.808-0.847,5.094-1.735,21.532l-2.821,5.859c0,0,6.944,4.124,22.787,4.124c15.842,0,15.624-4.341,15.624-4.341l-0.434-4.992h2.006l-0.434,4.992c0,0-0.218,4.341,15.624,4.341c15.843,0,22.787-4.124,22.787-4.124L286.159,373.959z"></path><g><path style="fill:none;stroke:#000000;stroke-linecap:round;stroke-linejoin:round;" d="M240.438,370.486c0,0,4.188,3.188,8.313,4.125"></path><path style="fill:none;stroke:#000000;stroke-linecap:round;stroke-linejoin:round;" d="M259.563,370.486c0,0-4.188,3.188-8.313,4.125"></path></g></g></g></svg>