<svg xmlns="http://www.w3.org/2000/svg" width="500" height="500" version="1.1"><g id="x093"><g><g><path style="fill:#6E6E6E;stroke:#000000;stroke-linecap:round;stroke-linejoin:round;" d="M279.666,344.405L250,344.127l-29.667,0.278l-18,65.512c0,0,9.417,8.084,47.667,8.084s47.666-8.084,47.666-8.084L279.666,344.405z"></path><g><g><path style="fill:#505050;" d="M207.333,408.25l-0.833,3.333l-2.438-1.271c0.667-2.167,1.563-4.813,1.563-4.813L207.333,408.25z"></path><path style="fill:#505050;" d="M214.958,409.833c-0.083,0.125-1.167,4.167-1.167,4.167s3.333,0.917,4.375,0.917c0.458-2.584,0.875-5.167,0.875-5.167L214.958,409.833z"></path><path style="fill:#505050;" d="M226.292,412.125l-0.708,4.041c0,0,3.75,0.417,4.125,0.417c0.25-2.5,0.458-4.833,0.458-4.833L226.292,412.125z"></path><path style="fill:#505050;" d="M238.292,413.333l-0.458,3.833c0,0,3.375,0.167,3.792,0.167c0.125-2,0.167-4.667,0.167-4.667L238.292,413.333z"></path></g><g><path style="fill:#505050;" d="M293.053,408.25l0.833,3.333l2.438-1.271c-0.667-2.167-1.563-4.813-1.563-4.813L293.053,408.25z"></path><path style="fill:#505050;" d="M285.428,409.833c0.083,0.125,1.166,4.167,1.166,4.167s-3.332,0.917-4.375,0.917c-0.458-2.584-0.875-5.167-0.875-5.167L285.428,409.833z"></path><path style="fill:#505050;" d="M274.094,412.125l0.709,4.041c0,0-3.75,0.417-4.125,0.417c-0.25-2.5-0.459-4.833-0.459-4.833L274.094,412.125z"></path><path style="fill:#505050;" d="M262.094,413.333l0.459,3.833c0,0-3.375,0.167-3.792,0.167c-0.125-2-0.167-4.667-0.167-4.667L262.094,413.333z"></path></g></g></g><g><path style="fill:#483E3C;stroke:#000000;stroke-linecap:round;stroke-linejoin:round;" d="M279.666,339.945L250,339.667l-29.667,0.278l-18,65.512c0,0,12.667,8.084,47.667,8.084s47.666-8.084,47.666-8.084L279.666,339.945z"></path><g><g><polygon style="opacity:0.5;" points="207.25,407.375 218.125,360.875 205.125,406.375 "></polygon><path style="opacity:0.5;" d="M229.375,351.375c-0.125,0.375-11,59.125-11,59.125s-3-0.5-3.5-1.125C218.5,397.5,229.375,351.375,229.375,351.375z"></path><path style="opacity:0.5;" d="M235.625,365.5l-5.5,46.75l-3.875-0.625C226.75,409.125,235.625,365.5,235.625,365.5z"></path><polygon style="opacity:0.5;" points="244.125,366.875 241.125,412.875 238.25,412.625 "></polygon></g><g><polygon style="opacity:0.5;" points="292.75,407.375 281.875,360.875 294.875,406.375 "></polygon><path style="opacity:0.5;" d="M270.625,351.375c0.125,0.375,11,59.125,11,59.125s3-0.5,3.5-1.125C281.5,397.5,270.625,351.375,270.625,351.375z"></path><path style="opacity:0.5;" d="M264.375,365.5l5.5,46.75l3.875-0.625C273.25,409.125,264.375,365.5,264.375,365.5z"></path><polygon style="opacity:0.5;" points="255.875,366.875 258.875,412.875 261.75,412.625 "></polygon></g></g><g><g><line style="fill:#483E3C;stroke:#000000;stroke-linecap:round;stroke-linejoin:round;" x1="276.125" y1="340" x2="292.458" y2="407.265"></line><line style="fill:#483E3C;stroke:#000000;stroke-linecap:round;stroke-linejoin:round;" x1="268.681" y1="340.333" x2="281.125" y2="410.778"></line><line style="fill:#483E3C;stroke:#000000;stroke-linecap:round;stroke-linejoin:round;" x1="261.236" y1="342.065" x2="269.791" y2="412.287"></line><line style="fill:#483E3C;stroke:#000000;stroke-linecap:round;stroke-linejoin:round;" x1="253.791" y1="341" x2="258.458" y2="413"></line></g><g><line style="fill:#483E3C;stroke:#000000;stroke-linecap:round;stroke-linejoin:round;" x1="223.875" y1="340" x2="207.542" y2="407.265"></line><line style="fill:#483E3C;stroke:#000000;stroke-linecap:round;stroke-linejoin:round;" x1="231.319" y1="340.333" x2="218.875" y2="410.778"></line><line style="fill:#483E3C;stroke:#000000;stroke-linecap:round;stroke-linejoin:round;" x1="238.764" y1="342.065" x2="230.208" y2="412.287"></line><line style="fill:#483E3C;stroke:#000000;stroke-linecap:round;stroke-linejoin:round;" x1="246.208" y1="341" x2="241.542" y2="413"></line></g></g></g></g></g></svg>