<svg xmlns="http://www.w3.org/2000/svg" width="500" height="500" version="1.1"><g id="x096"><g><g><path style="fill:#6E6E6E;stroke:#000000;stroke-linecap:round;stroke-linejoin:round;" d="M217.834,350.333c0,0-11.667,30.001-11.667,32.334c1.167,1.333,9.001,4.666,13.667,4.833c0,1.333,0.5,3,0.5,3s7.167,2.333,17-0.5l0.5,3.333c0,0,11.499,0.334,19.667-2.666c0.166,1.5,0.5,2.166,0.5,2.166s14.166,0.166,21.166-4c0,1,0.168,1.334,0.168,1.334s10.834-2.333,14.5-7.5C293,379,282.067,350.301,282.067,350.301L217.834,350.333z"></path><path style="fill:#505050;" d="M225.375,349.125L220,387.25l0.75,3c0,0,3.25,0.5,4.5,0.625C225.5,373.75,225.375,349.125,225.375,349.125z"></path><path style="fill:#505050;" d="M238.375,352.625l-1,36.75l0.75,3.375c0,0,4.25,0.125,4.875,0C241.875,379.5,238.375,352.625,238.375,352.625z"></path><path style="fill:#505050;" d="M255.5,353.125c0,0,1,37.125,3,39.25c1.75,0,4.75-0.375,4.75-0.375L255.5,353.125z"></path><path style="fill:#505050;" d="M273.125,351.875l6.625,37.5c0,0,2-0.25,3.875-1C281.25,378.625,273.125,351.875,273.125,351.875z"></path><line style="fill:#6E6E6E;stroke:#000000;stroke-linecap:round;stroke-linejoin:round;" x1="279.084" y1="388.583" x2="272.833" y2="351.333"></line><line style="fill:#6E6E6E;stroke:#000000;stroke-linecap:round;stroke-linejoin:round;" x1="257.5" y1="390.667" x2="255.5" y2="352.833"></line><line style="fill:#6E6E6E;stroke:#000000;stroke-linecap:round;stroke-linejoin:round;" x1="237.251" y1="390.333" x2="238" y2="351.667"></line><path style="fill:#6E6E6E;stroke:#000000;stroke-linecap:round;stroke-linejoin:round;" d="M219.917,387.75c-0.083-0.583,2.249-21.917,5.083-37.083"></path></g><g><path style="fill:#6E6E6E;stroke:#000000;stroke-linecap:round;stroke-linejoin:round;" d="M282.312,350.321c0,0-5.905,2.746-32.312,2.746c-26.407,0-32.311-2.746-32.311-2.746l2.228-5.321c0,0,3.9,2.06,30.195,2.06s29.971-2.06,29.971-2.06L282.312,350.321z"></path></g></g></g></svg>