<svg xmlns="http://www.w3.org/2000/svg" width="500" height="500" version="1.1"><g id="x011" data-trait-type="Wings" data-trait-value="Dragon Wings"><g><g><path style="fill:#505050;stroke:#000000;stroke-linecap:round;stroke-linejoin:round;" d="M214.801,313.791c0,0-24.454,21.161-42.754,14.679c-18.299-6.481-19.562-20.97-15.775-34.314c-25.873,15.251-61.211,71.299-62.473,98.751c8.203-15.251,30.92-22.114,30.92-22.114s18.3,31.646,29.028,43.848c-1.263-17.921-8.203-59.86,5.679-65.58c13.883-5.72,29.659,12.962,29.659,12.962s-4.417-22.495,28.396-35.839L214.801,313.791z"></path><path style="fill:#FFFFFF;stroke:#000000;stroke-linecap:round;stroke-linejoin:round;" d="M169.342,273.731c0,0,11.482-15.218,12.224-16.56c-5.556,1.789-20.743,11.86-21.113,13.427C165.639,272.166,169.342,273.731,169.342,273.731z"></path><path style="fill:#6E6E6E;stroke:#000000;stroke-linecap:round;stroke-linejoin:round;" d="M166.368,267.465c0,0,4.418-0.381,5.679,4.957c1.263,5.338-27.134,31.646-35.338,80.832c-11.25,67.454,15.776,106.377,20.193,115.907c-8.203-5.337-37.23-37.745-42.279-68.247c-4.493-27.153-6.941-36.223-11.358-38.129c3.155-14.107,35.969-77.78,53.637-92.651C161.951,265.178,166.368,267.465,166.368,267.465z"></path></g><g><path style="fill:#505050;stroke:#000000;stroke-linecap:round;stroke-linejoin:round;" d="M285.199,313.791c0,0,24.453,21.161,42.754,14.679c18.299-6.481,19.562-20.97,15.775-34.314c25.873,15.251,61.211,71.299,62.473,98.751c-8.203-15.251-30.921-22.114-30.921-22.114s-18.3,31.646-29.028,43.848c1.263-17.921,8.204-59.86-5.678-65.58c-13.883-5.72-29.659,12.962-29.659,12.962s4.417-22.495-28.396-35.839L285.199,313.791z"></path><path style="fill:#FFFFFF;stroke:#000000;stroke-linecap:round;stroke-linejoin:round;" d="M330.657,273.731c0,0-11.483-15.218-12.224-16.56c5.557,1.789,20.743,11.86,21.113,13.427C334.362,272.166,330.657,273.731,330.657,273.731z"></path><path style="fill:#6E6E6E;stroke:#000000;stroke-linecap:round;stroke-linejoin:round;" d="M333.633,267.465c0,0-4.418-0.381-5.68,4.957s27.134,31.646,35.338,80.832c11.251,67.454-15.776,106.377-20.193,115.907c8.203-5.337,37.23-37.745,42.28-68.247c4.493-27.153,6.941-36.223,11.357-38.129c-3.154-14.107-35.968-77.78-53.638-92.651C338.05,265.178,333.633,267.465,333.633,267.465z"></path></g></g></g></svg>