<svg xmlns="http://www.w3.org/2000/svg" width="500" height="500" version="1.1"><g id="x013" data-trait-type="Wings" data-trait-value="Batman Wings"><g><g><path style="fill:#6E6E6E;stroke:#000000;stroke-linecap:round;stroke-linejoin:round;" d="M210.688,314.707c0,0-56.16-1.604-61.776-81.833c-6.418-10.43-69.798-29.684-117.935-30.486c29.685,15.243,61.015,32.582,59.369,44.927c-3.209,24.068-31.289,37.707-31.289,37.707s43.154-9.162,49.741,4.012c3.209,6.418,1.604,24.871-7.221,36.905c24.871-14.441,32.894-16.849,44.928-8.825c19.847,13.231,15.243,29.684,16.848,34.498C168.167,341.183,172.179,317.114,210.688,314.707z"></path></g><g><path style="fill:#6E6E6E;stroke:#000000;stroke-linecap:round;stroke-linejoin:round;" d="M289.312,314.707c0,0,56.16-1.604,61.775-81.833c6.419-10.43,69.799-29.684,117.936-30.486c-29.685,15.243-61.015,32.582-59.369,44.927c3.209,24.068,31.289,37.707,31.289,37.707s-43.154-9.161-49.741,4.012c-3.209,6.418-1.604,24.871,7.221,36.905c-24.871-14.441-32.894-16.849-44.928-8.825c-19.847,13.231-15.243,29.684-16.848,34.498C331.832,341.183,327.821,317.114,289.312,314.707z"></path></g></g></g></svg>