<svg xmlns="http://www.w3.org/2000/svg" width="500" height="500" version="1.1"><g id="x015" data-trait-type="Wings" data-trait-value="Fairy Wings"><g><g><g><path style="opacity:0.5;fill:#6E6E6E;" d="M225.095,300.412c-0.634,2.536,1.268,3.17-3.805,3.804c-5.073,0.635-64.042-28.533-81.162-43.751c-8.56-7.609-19.656-24.729-26.631-51.36c-20.291-21.559-28.851-47.873-27.899-64.676c25.997,22.827,77.357,63.408,99.55,88.137C204.768,254.426,225.095,300.412,225.095,300.412z"></path><path style="fill:none;stroke:#E0E0E0;stroke-linecap:round;stroke-linejoin:round;" d="M225.095,300.412c-0.634,2.536,1.268,3.17-3.805,3.804c-5.073,0.635-64.042-28.533-81.162-43.751c-8.56-7.609-19.656-24.729-26.631-51.36c-20.291-21.559-28.851-47.873-27.899-64.676c25.997,22.827,77.357,63.408,99.55,88.137C204.768,254.426,225.095,300.412,225.095,300.412z"></path></g><g><g style="opacity:0.5;"><path style="fill:#6E6E6E;" d="M188.318,330.214c6.341-1.586,34.24-10.779,32.972-1.902s-15.852,40.581-27.266,45.653c-12.047,10.779-27.265,21.559-27.265,21.559s-71.113,58.08-71.651,51.36C93.841,431.032,181.978,331.799,188.318,330.214z"></path></g><g><path style="fill:none;stroke:#E0E0E0;stroke-linecap:round;stroke-linejoin:round;" d="M188.318,330.214c6.341-1.586,34.24-10.779,32.972-1.902s-15.852,40.581-27.266,45.653c-12.047,10.779-27.265,21.559-27.265,21.559s-71.113,58.08-71.651,51.36C93.841,431.032,181.978,331.799,188.318,330.214z"></path></g></g></g><g><g><path style="opacity:0.5;fill:#6E6E6E;" d="M274.905,300.412c0.634,2.536-1.269,3.17,3.804,3.804c5.073,0.635,64.042-28.533,81.162-43.751c8.561-7.609,19.657-24.729,26.632-51.36c20.29-21.559,28.851-47.873,27.899-64.676c-25.997,22.827-77.357,63.408-99.551,88.137C295.232,254.426,274.905,300.412,274.905,300.412z"></path><path style="fill:none;stroke:#E0E0E0;stroke-linecap:round;stroke-linejoin:round;" d="M274.905,300.412c0.634,2.536-1.269,3.17,3.804,3.804c5.073,0.635,64.042-28.533,81.162-43.751c8.561-7.609,19.657-24.729,26.632-51.36c20.29-21.559,28.851-47.873,27.899-64.676c-25.997,22.827-77.357,63.408-99.551,88.137C295.232,254.426,274.905,300.412,274.905,300.412z"></path></g><g><g style="opacity:0.5;"><path style="fill:#6E6E6E;" d="M312.949,330.214c-6.341-1.586-34.24-10.779-32.972-1.902s15.852,40.581,27.266,45.653c12.047,10.779,27.265,21.559,27.265,21.559s71.114,58.08,71.651,51.36C407.428,431.032,319.29,331.799,312.949,330.214z"></path></g><g><path style="fill:none;stroke:#E0E0E0;stroke-linecap:round;stroke-linejoin:round;" d="M312.949,330.214c-6.341-1.586-34.24-10.779-32.972-1.902s15.852,40.581,27.266,45.653c12.047,10.779,27.265,21.559,27.265,21.559s71.114,58.08,71.651,51.36C407.428,431.032,319.29,331.799,312.949,330.214z"></path></g></g></g></g></g></svg>