<svg xmlns="http://www.w3.org/2000/svg" width="500" height="500" version="1.1"><g id="x018" data-trait-type="Wings" data-trait-value="Fairy Wings"><g><g><path style="opacity:0.6;fill:#6E6E6E;" d="M205.671,283.874c-0.859,1.86-34.848-1.367-58.765-18.449c-23.915-17.083-48.514-71.748-47.147-124.362c55.348,22.55,97.712,64.23,103.18,88.83C208.404,254.492,209.771,274.991,205.671,283.874z"></path><path style="opacity:0.6;fill:#6E6E6E;" d="M205.425,308.373c0.852,1.396-16.405,22.485-38.362,30.737c-21.957,8.25-69.124,0.239-103.383-24.068c39.56-26.647,86.024-36.186,104.757-28.867S201.362,301.705,205.425,308.373z"></path><path style="opacity:0.6;fill:#6E6E6E;" d="M214.16,345.302c1.434,0.471,1.941,25.588-8.527,44.512c-10.468,18.922-48.35,41.515-86.925,44.956c11.813-42.359,38.706-76.845,56.226-82.915C192.453,345.783,207.322,343.055,214.16,345.302z"></path><path style="opacity:0.6;fill:#6E6E6E;" d="M120.941,251.076c0,0,14.349,15.031,23.915,21.864c-15.032,2.051-25.282,8.199-25.282,8.199s-33.481-12.299-37.581-21.865C102.492,252.441,120.941,251.076,120.941,251.076z"></path><path style="opacity:0.6;fill:#6E6E6E;" d="M122.284,349.755c0,0,15.739,1.766,32.14,2.448c-12.3,10.251-15.333,22.519-15.333,22.519s-29.082,4.814-43.213,4.814C108.276,361.839,122.284,349.755,122.284,349.755z"></path><path style="fill:none;stroke:#E0E0E0;stroke-linecap:round;stroke-linejoin:round;" d="M205.671,283.874c-0.859,1.86-34.848-1.367-58.765-18.449c-23.915-17.083-48.514-71.748-47.147-124.362c55.348,22.55,97.712,64.23,103.18,88.83C208.404,254.492,209.771,274.991,205.671,283.874z"></path><path style="fill:none;stroke:#E0E0E0;stroke-linecap:round;stroke-linejoin:round;" d="M205.425,308.373c0.852,1.396-16.405,22.485-38.362,30.737c-21.957,8.25-69.124,0.239-103.383-24.068c39.56-26.647,86.024-36.186,104.757-28.867S201.362,301.705,205.425,308.373z"></path><path style="fill:none;stroke:#E0E0E0;stroke-linecap:round;stroke-linejoin:round;" d="M214.16,345.302c1.434,0.471,1.941,25.588-8.527,44.512c-10.468,18.922-48.35,41.515-86.925,44.956c11.813-42.359,38.706-76.845,56.226-82.915C192.453,345.783,207.322,343.055,214.16,345.302z"></path><path style="fill:none;stroke:#E0E0E0;stroke-linecap:round;stroke-linejoin:round;" d="M120.941,251.076c0,0,14.349,15.031,23.915,21.864c-15.032,2.051-25.282,8.199-25.282,8.199s-33.481-12.299-37.581-21.865C102.492,252.441,120.941,251.076,120.941,251.076z"></path><path style="fill:none;stroke:#E0E0E0;stroke-linecap:round;stroke-linejoin:round;" d="M122.284,349.755c0,0,15.739,1.766,32.14,2.448c-12.3,10.251-15.333,22.519-15.333,22.519s-29.082,4.814-43.213,4.814C108.276,361.839,122.284,349.755,122.284,349.755z"></path></g><g><path style="opacity:0.6;fill:#6E6E6E;" d="M294.329,283.874c0.86,1.86,34.848-1.367,58.765-18.449c23.915-17.083,48.514-71.748,47.147-124.362c-55.348,22.55-97.712,64.23-103.18,88.83C291.596,254.492,290.229,274.991,294.329,283.874z"></path><path style="opacity:0.6;fill:#6E6E6E;" d="M294.575,308.373c-0.851,1.396,16.405,22.485,38.362,30.737c21.958,8.25,69.124,0.239,103.383-24.068c-39.56-26.647-86.024-36.186-104.757-28.867S298.639,301.705,294.575,308.373z"></path><path style="opacity:0.6;fill:#6E6E6E;" d="M285.841,345.302c-1.434,0.471-1.942,25.588,8.526,44.512c10.469,18.922,48.35,41.515,86.924,44.956c-11.813-42.359-38.704-76.845-56.224-82.915C307.548,345.783,292.678,343.055,285.841,345.302z"></path><path style="opacity:0.6;fill:#6E6E6E;" d="M379.059,251.076c0,0-14.349,15.031-23.915,21.864c15.032,2.051,25.282,8.199,25.282,8.199s33.481-12.299,37.581-21.865C397.508,252.441,379.059,251.076,379.059,251.076z"></path><path style="opacity:0.6;fill:#6E6E6E;" d="M377.716,349.755c0,0-15.739,1.766-32.139,2.448c12.299,10.251,15.333,22.519,15.333,22.519s29.081,4.814,43.212,4.814C391.723,361.839,377.716,349.755,377.716,349.755z"></path><path style="fill:none;stroke:#E0E0E0;stroke-linecap:round;stroke-linejoin:round;" d="M294.329,283.874c0.86,1.86,34.848-1.367,58.765-18.449c23.915-17.083,48.514-71.748,47.147-124.362c-55.348,22.55-97.712,64.23-103.18,88.83C291.596,254.492,290.229,274.991,294.329,283.874z"></path><path style="fill:none;stroke:#E0E0E0;stroke-linecap:round;stroke-linejoin:round;" d="M294.575,308.373c-0.851,1.396,16.405,22.485,38.362,30.737c21.958,8.25,69.124,0.239,103.383-24.068c-39.56-26.647-86.024-36.186-104.757-28.867S298.639,301.705,294.575,308.373z"></path><path style="fill:none;stroke:#E0E0E0;stroke-linecap:round;stroke-linejoin:round;" d="M285.841,345.302c-1.434,0.471-1.942,25.588,8.526,44.512c10.469,18.922,48.35,41.515,86.924,44.956c-11.813-42.359-38.704-76.845-56.224-82.915C307.548,345.783,292.678,343.055,285.841,345.302z"></path><path style="fill:none;stroke:#E0E0E0;stroke-linecap:round;stroke-linejoin:round;" d="M379.059,251.076c0,0-14.349,15.031-23.915,21.864c15.032,2.051,25.282,8.199,25.282,8.199s33.481-12.299,37.581-21.865C397.508,252.441,379.059,251.076,379.059,251.076z"></path><path style="fill:none;stroke:#E0E0E0;stroke-linecap:round;stroke-linejoin:round;" d="M377.716,349.755c0,0-15.739,1.766-32.139,2.448c12.299,10.251,15.333,22.519,15.333,22.519s29.081,4.814,43.212,4.814C391.723,361.839,377.716,349.755,377.716,349.755z"></path></g></g></g></svg>