<svg xmlns="http://www.w3.org/2000/svg" width="500" height="500" version="1.1"><g id="x019" data-trait-type="Wings" data-trait-value="Butterfly Wings"><g><g><g><g><path d="M103.098,172.524c-0.006,0-0.011,0-0.016,0c-6.443,0.011-16.819,6.119-16.824,12.11c0,0.193,0.011,0.386,0.033,0.579c0.702,6.171,8.323,14.191,8.323,14.191l0,0l0,0c-0.011,0.206-0.016,0.43-0.016,0.669c0.005,5.344,2.788,18.8,6.922,24.75c0.807,5.585,2.469,13.137,5.829,17.972c0.702,6.17,3.51,30.852,8.415,37.174c4.904,6.323,15.828,16.147,34.29,17.659l0,0l0,0c-6.591,3.044-22.339,3.229-26.741,10.898c1.334,2.656,1.767,6.967,1.767,6.967l0,0l0,0c0,0-14.987,9.388-15.55,22.583c0.257-0.179,0.552-0.339,0.878-0.479l0,0c0.051-0.022,0.104-0.044,0.157-0.064l0,0c0.874-0.349,1.944-0.552,3.063-0.552c3.001,0,6.351,1.467,7.188,5.547c0.141,0.686,0.204,1.365,0.204,2.038c0.001,5.36-3.968,10.314-3.958,15.096c0,0.106,0.002,0.214,0.007,0.321c0.011,0,0.022,0,0.033,0c2.643,0,7.803,5.842,7.819,10.299c0.002,0.683-0.116,1.333-0.382,1.925c-2.015,4.472-3.982,5.327-3.982,5.327s0.364,0.083,0.954,0.299l0,0c0.081,0.029,0.165,0.062,0.253,0.096l0,0c2.714,1.06,9.058,4.568,9.056,14.232c0,1.42-0.137,2.972-0.443,4.669c-6.311,11.555-15.397,18.38-23.101,24.245c-5.025,3.825-10.834,13.426-10.837,21.096c-0.001,4.088,1.646,7.626,5.94,9.45c0.439,0.138,0.875,0.202,1.304,0.202c3.815,0,7.051-5.079,7.063-8.925c0.001-0.223-0.009-0.441-0.031-0.654c-0.03-0.303-0.048-0.679-0.048-1.116c-0.004-5.787,2.984-22.479,18.409-27.006c2.353-0.69,4.552-0.995,6.599-0.995c12.381,0,19.195,11.162,20.984,15.632c1.097,2.747,3.626,4.072,6.154,4.072c2.268,0,4.535-1.067,5.765-3.134c0.518-0.87,0.706-2.039,0.707-3.372c0.002-3.476-1.268-8.065-1.277-11.361c-0.005-1.785,0.36-3.19,1.496-3.836c0.668-0.379,1.481-0.55,2.387-0.55c4.573,0,11.527,4.361,14.333,8.396c4.253-1.51,7.564-3.726,7.577-7.575c0-0.239-0.011-0.485-0.037-0.737c-0.359-3.567-5.542-12.563-5.538-19.694c0.001-1.479,0.226-2.879,0.763-4.133c3.127-7.293,15.831-14.071,23.582-23.554c7.752-9.483,12.576-19.492,12.576-19.492l5.471-37.091c0,0-20.262-58.648-55.219-92.744C140.47,179.886,109.782,172.524,103.098,172.524L103.098,172.524z M124.447,308.592c2.949-4.442,10.456-6.09,17.103-7.55c3.426-0.752,6.663-1.462,8.923-2.506c0.413-0.191,0.645-0.635,0.566-1.083c-0.08-0.447-0.451-0.785-0.903-0.822c-8.028-0.657-15.359-2.973-21.792-6.883c-5.833-3.545-9.631-7.608-11.79-10.392c-1.361-1.756-3.436-6.339-5.59-18.209c-1.397-7.699-2.286-15.521-2.621-18.465c-0.019-0.164-0.078-0.322-0.173-0.458c-3.261-4.693-4.878-12.131-5.66-17.544c-0.022-0.154-0.08-0.3-0.169-0.428c-4.095-5.894-6.984-20.055-6.728-24.794c0.014-0.275-0.085-0.543-0.274-0.743c-0.074-0.078-7.399-7.851-8.054-13.615c-0.222-1.948,1.021-3.803,2.103-5.017c3.216-3.61,9.36-6.552,13.696-6.559h0.014c2.966,0,12.035,1.639,25.13,7.843c7.135,3.38,14.371,7.606,21.507,12.562c8.524,5.919,16.923,12.897,24.965,20.74c7.923,7.727,15.742,17.388,23.24,28.712c6.007,9.072,11.821,19.226,17.281,30.176c8.667,17.382,13.687,31.308,14.371,33.239l-5.412,36.69c-0.6,1.21-5.278,10.468-12.384,19.161c-3.396,4.154-7.72,7.747-11.902,11.223c-5.141,4.272-9.998,8.308-11.825,12.57c-2.308,5.385,0.659,13.021,2.825,18.598c0.94,2.419,1.752,4.509,1.874,5.723c0.171,1.703-0.357,3.128-1.616,4.354c-1.025,0.999-2.526,1.873-4.572,2.661c-1.486-1.893-3.756-3.82-6.347-5.372c-3.042-1.823-6.005-2.827-8.343-2.827c-1.116,0-2.085,0.229-2.88,0.68c-1.307,0.742-1.961,2.195-2.001,4.44c-0.03,1.755,0.308,3.875,0.636,5.926c0.513,3.21,1.094,6.848,0.074,8.561c-0.971,1.633-2.851,2.646-4.906,2.646c-1.861,0-4.212-0.904-5.225-3.443c-1.05-2.622-3.375-6.583-6.755-9.841c-1.997-1.925-4.18-3.444-6.487-4.513c-2.729-1.267-5.646-1.907-8.671-1.907c-2.223,0-4.537,0.348-6.88,1.035c-3.994,1.172-7.477,3.223-10.355,6.094c-2.386,2.383-4.353,5.322-5.845,8.737c-2.575,5.894-3.13,11.811-2.875,14.351c0.205,2.042-0.808,4.746-2.464,6.576c-1.11,1.228-2.379,1.903-3.574,1.903c-0.323,0-0.646-0.048-0.962-0.144c-3.031-1.304-4.775-3.633-5.187-6.922c-0.426-3.407,0.593-7.755,2.869-12.242c2.045-4.031,4.841-7.637,7.479-9.645l0.307-0.234c3.753-2.856,8.008-6.095,12.016-9.987c4.611-4.478,8.225-9.168,11.05-14.341c0.051-0.094,0.087-0.195,0.106-0.302c0.702-3.896,0.596-7.394-0.316-10.396c-0.741-2.443-2.01-4.559-3.77-6.288c-1.658-1.629-3.429-2.598-4.704-3.144c0.819-0.867,1.853-2.284,2.879-4.561c0.981-2.181,0.395-5.209-1.61-8.31c-1.426-2.206-3.71-4.559-5.763-5.172c0.125-1.977,0.945-4.052,1.809-6.231c1.321-3.339,2.687-6.792,1.91-10.578c-0.96-4.679-4.849-6.346-8.168-6.346c-1.042,0-2.049,0.155-2.94,0.443c0.329-2.302,1.125-4.63,2.377-6.942c1.265-2.34,2.996-4.667,5.143-6.921c3.688-3.869,7.368-6.197,7.404-6.221c0.322-0.202,0.502-0.568,0.464-0.947C126.058,315.221,125.659,311.37,124.447,308.592L124.447,308.592z"></path></g></g><g><g><path d="M230.618,306.696c0,0-20.262-58.648-55.219-92.744c-34.957-34.097-65.667-41.44-72.316-41.429c-6.65,0.011-17.492,6.52-16.791,12.689c0.702,6.17,8.323,14.191,8.323,14.191c-0.258,4.79,2.586,19.202,6.906,25.419c0.807,5.585,2.469,13.137,5.829,17.972c0.703,6.17,3.51,30.851,8.415,37.174c4.905,6.322,15.829,16.146,34.291,17.659c-6.591,3.044-22.339,3.229-26.741,10.897c1.334,2.657,1.767,6.967,1.767,6.967s-14.987,9.389-15.55,22.583c2.763-1.919,9.999-1.826,11.285,4.451c1.288,6.275-3.969,11.976-3.748,17.455c3.033-0.058,9.483,7.752,7.469,12.224c-2.014,4.473-3.981,5.327-3.981,5.327s12.773,2.905,9.821,19.296c-6.311,11.556-15.397,18.381-23.102,24.245s-17.248,25.3-4.897,30.546c4.578,1.43,8.77-5.067,8.337-9.377c-0.433-4.309,1.77-23.253,18.361-28.122c16.591-4.868,25.499,9.428,27.583,14.638c2.083,5.211,9.319,5.306,11.919,0.938c2.6-4.366-3.113-16.274,0.926-18.568c4.04-2.294,13.359,3.011,16.719,7.847c4.519-1.604,7.973-4.005,7.54-8.313c-0.433-4.308-7.901-16.531-4.775-23.826c3.127-7.294,15.831-14.071,23.583-23.555c7.751-9.482,12.576-19.492,12.576-19.492L230.618,306.696z"></path><path style="fill:#6E6E6E;" d="M107.294,443.116c0,0-0.931,5.169-4.298,4.116c-3.368-1.05-3.609-4.651-3.609-4.651s3.197-7.873,6.6-9.483C105.797,436.621,107.294,443.116,107.294,443.116z"></path><path style="fill:#6E6E6E;" d="M174.915,401.223c0,0,5.337,10.631,10.817,10.409c1.909-3.887,0.283-21.706-4.025-21.273C175.91,392.336,174.915,401.223,174.915,401.223z"></path><path style="fill:#6E6E6E;" d="M143.361,398.563c0,0,7.316,16.427,11.894,17.854c-0.127-12.714,3.315-21.765,9.216-24.327c5.901-2.564,20.772-18.018,21.779-20.253c-5.069-8.771-6.251-15.632-6.251-15.632S169.612,380.322,143.361,398.563z"></path><path style="fill:#6E6E6E;" d="M162.884,206.259c-17.96-15.434-35.591-22.053-45.206-24.732c-9.306,5.245-11.694,8.441-1.567,19.331c11.123,2.003,17.407,7.819,23.274,15.07c10.876,13.442,56.253,43.372,61.755,56.45s19.947,30.186,23.624,33.265C217.437,282.565,182.865,223.431,162.884,206.259z"></path><path style="fill:#6E6E6E;" d="M136.833,216.677c-2.179-1.906-9.6-9.807-21.465-14.424c-2.574,2.058-3.856,5.602-2.91,8.825c1.253,4.272,2.944,9.156,5.933,12.83C127.12,221.383,138.937,218.518,136.833,216.677z"></path><path style="fill:#6E6E6E;" d="M118.133,233.253c0,0,21.637-9.399,25.84-9.247c-0.527,2.928,22.478,16.136,32.874,28.887c-4.778,6.392-15.246,14.177-15.246,14.177S130.496,245.15,118.133,233.253z"></path><path style="fill:#6E6E6E;" d="M224.764,305.643c0,0-22.147-41.461-35.038-50.43c0,0-20.056,0.618-22.527,17.699c-1.478,10.216,4.975,29.207,17.847,45.975l39.598-11.907C224.723,306.12,224.764,305.643,224.764,305.643z"></path><path style="fill:#6E6E6E;" d="M161.93,271.965l-43.949-34.508c-0.804,17.089-0.893,38.52,23.548,51.885c8.693,2.984,17.662,5.096,22.249,5.921C165.828,280.524,161.93,271.965,161.93,271.965z"></path><path style="fill:#6E6E6E;" d="M163.145,298.776c0,0-33.134,6.12-33.497,11.494c-0.364,5.374-0.517,9.577-0.517,9.577s41.482-8.848,47.489-11.997C170.919,302.594,163.145,298.776,163.145,298.776z"></path><path style="fill:#6E6E6E;" d="M175.671,313.119l-42.864,11.298c-3.527,4.346-5.494,9.465-3.432,14.211c0.209,0.46,0.448,0.873,0.705,1.257C144.269,339.112,175.671,313.119,175.671,313.119z"></path><path style="fill:#6E6E6E;" d="M189.03,316.13c-24.975,17.864-48.972,26.984-58.368,28.772c-6.37,8.523-5.188,15.385,6.617,21.194C155.31,355.548,193.069,313.241,189.03,316.13z"></path><path d="M215.792,348.75c-1.651-0.901-59.169-37.248-60.127-68.849c-0.458-15.157,22.226-39.512,41.929-28.107c10.771,14.028,16.331,30.14,16.331,30.14s-6.559,22.993-28.288,9.409c19.365-0.138,17.101-11.885,13.431-17.524c-7.574-11.639-34.703-8.668-21.616,22.699C186.037,317.094,215.792,348.75,215.792,348.75z"></path><path style="fill:#6E6E6E;" d="M224.294,311.602c0,0-4.733,32.993-8.503,37.148c-3.771,4.156-26.403,22.442-26.403,22.442c-0.116-6.064,0.668-13.78-2.153-14.893c-2.821-1.112-6.333-1.744-6.333-1.744s23.979-8.979,30.079-19.364C217.081,324.808,220.782,310.97,224.294,311.602z"></path><path style="fill:#6E6E6E;" d="M193.35,322.348c0,0-10.704,25.873-8.151,25.124s15.63-6.251,19.237-12.854c3.606-6.603,8.057-17.889,8.057-17.889L193.35,322.348z"></path><path d="M174.9,297.268c0,0,7.199,10.361,18.696,13.641c11.498,3.28,22.867-6.156,32.023-3.299c-10.948,7.094-28.909,19.573-37.959,16.13C178.435,311.199,174.9,297.268,174.9,297.268z"></path><path style="fill:#6E6E6E;" d="M137.463,370.907c0,0-9.075,13.475,1.473,22.023c6.545,0.574,45.724-49.182,48.465-64.402C159.627,358.58,137.463,370.907,137.463,370.907z"></path></g></g></g><g><g><g><path d="M396.916,172.524c-0.005,0-0.011,0-0.015,0c-6.682,0-37.37,7.357-72.302,41.429c-34.958,34.096-55.219,92.744-55.219,92.744l5.471,37.092c0,0,4.824,10.008,12.575,19.491c7.753,9.482,20.456,16.261,23.583,23.554c0.538,1.254,0.762,2.653,0.763,4.133c0.005,7.131-5.179,16.127-5.536,19.694c-0.025,0.252-0.038,0.498-0.037,0.737c0.012,3.85,3.322,6.065,7.578,7.575c2.802-4.034,9.758-8.396,14.33-8.396c0.906,0,1.719,0.171,2.388,0.55c1.136,0.646,1.5,2.051,1.495,3.836c-0.009,3.296-1.278,7.886-1.276,11.361c0.001,1.333,0.189,2.502,0.707,3.372c1.229,2.065,3.496,3.134,5.764,3.134c2.527,0,5.057-1.325,6.155-4.072c1.787-4.47,8.604-15.632,20.983-15.632c2.048,0,4.245,0.305,6.6,0.995c15.425,4.526,18.413,21.219,18.408,27.006c0,0.438-0.018,0.813-0.048,1.116c-0.021,0.213-0.032,0.432-0.031,0.654c0.012,3.846,3.248,8.925,7.064,8.925c0.429,0,0.864-0.064,1.305-0.202c4.293-1.824,5.941-5.362,5.939-9.45c-0.003-7.67-5.811-17.271-10.837-21.096c-7.704-5.865-16.791-12.69-23.102-24.245c-0.306-1.697-0.443-3.249-0.443-4.669c-0.001-9.664,6.344-13.173,9.058-14.232l0,0c0.088-0.034,0.173-0.066,0.253-0.096l0,0c0.591-0.216,0.955-0.299,0.955-0.299s-1.97-0.855-3.983-5.327c-0.267-0.592-0.385-1.242-0.382-1.925c0.016-4.457,5.176-10.299,7.817-10.299c0.011,0,0.021,0,0.033,0c0.005-0.107,0.007-0.215,0.007-0.321c0.011-4.781-3.957-9.735-3.958-15.096c0-0.673,0.063-1.353,0.203-2.038c0.836-4.08,4.188-5.547,7.188-5.547c1.119,0,2.189,0.203,3.063,0.552l0,0c0.053,0.021,0.105,0.043,0.157,0.064l0,0c0.325,0.141,0.62,0.301,0.877,0.479c-0.562-13.195-15.551-22.583-15.551-22.583l0,0l0,0c0,0,0.435-4.311,1.769-6.967c-4.403-7.669-20.149-7.854-26.742-10.898l0,0l0,0c18.464-1.512,29.386-11.336,34.292-17.659c4.904-6.322,7.713-31.003,8.415-37.174c3.358-4.835,5.02-12.387,5.828-17.972c4.134-5.95,6.917-19.406,6.921-24.75c0-0.24-0.005-0.463-0.017-0.669l0,0l0,0c0,0,7.621-8.02,8.325-14.191c0.021-0.193,0.032-0.386,0.032-0.579C413.736,178.643,403.359,172.535,396.916,172.524L396.916,172.524z M270.406,306.796c0.685-1.934,5.713-15.879,14.384-33.266c5.459-10.946,11.272-21.096,17.278-30.164c7.494-11.318,15.311-20.973,23.229-28.697c8.042-7.845,16.442-14.823,24.966-20.742c7.138-4.956,14.374-9.182,21.509-12.562c13.094-6.202,22.162-7.841,25.129-7.841h0.015c-0.001,0-0.001,0-0.002,0c4.336,0.007,10.48,2.95,13.698,6.559c1.081,1.214,2.323,3.069,2.102,5.017c-0.657,5.764-7.981,13.537-8.056,13.615c-0.189,0.2-0.288,0.469-0.274,0.743c0.258,4.737-2.629,18.896-6.726,24.794c-0.089,0.128-0.146,0.274-0.169,0.428c-0.784,5.416-2.403,12.856-5.66,17.544c-0.095,0.136-0.154,0.294-0.173,0.458c-0.334,2.944-1.225,10.764-2.621,18.464c-2.154,11.871-4.229,16.454-5.59,18.21c-2.161,2.783-5.96,6.848-11.791,10.392c-6.434,3.91-13.766,6.226-21.793,6.883c-0.452,0.037-0.823,0.375-0.903,0.822c-0.079,0.448,0.153,0.892,0.566,1.083c2.261,1.044,5.497,1.754,8.923,2.506c6.647,1.46,14.154,3.107,17.104,7.55c-1.212,2.778-1.612,6.628-1.63,6.801c-0.038,0.379,0.143,0.745,0.464,0.947c0.037,0.023,3.716,2.352,7.405,6.221c2.148,2.254,3.878,4.581,5.144,6.921c1.252,2.313,2.049,4.641,2.377,6.942c-0.892-0.288-1.9-0.443-2.941-0.443c-3.32,0-7.209,1.667-8.168,6.346c-0.776,3.785,0.59,7.237,1.911,10.576c0.862,2.18,1.684,4.255,1.808,6.232c-2.052,0.613-4.335,2.965-5.762,5.172c-2.005,3.102-2.591,6.13-1.61,8.311c1.025,2.276,2.06,3.693,2.879,4.561c-1.274,0.546-3.046,1.515-4.703,3.144c-1.761,1.729-3.029,3.845-3.771,6.288c-0.912,3.003-1.019,6.501-0.316,10.396c0.02,0.106,0.056,0.208,0.106,0.302c2.825,5.173,6.438,9.862,11.049,14.34c4.008,3.892,8.262,7.13,12.016,9.986l0.31,0.236c2.638,2.008,5.434,5.613,7.479,9.645c2.276,4.487,3.295,8.835,2.869,12.242c-0.411,3.29-2.157,5.618-5.188,6.923c-0.317,0.094-0.64,0.143-0.962,0.143c-1.195,0-2.467-0.676-3.576-1.904c-1.655-1.83-2.667-4.534-2.462-6.575c0.256-2.539-0.3-8.456-2.874-14.351c-1.492-3.415-3.459-6.354-5.846-8.737c-2.878-2.871-6.36-4.922-10.354-6.094c-2.346-0.688-4.661-1.035-6.882-1.035c-3.024,0-5.942,0.641-8.671,1.907c-2.308,1.068-4.49,2.588-6.487,4.513c-3.382,3.259-5.706,7.221-6.754,9.841c-1.015,2.538-3.365,3.443-5.227,3.443c-2.055,0-3.934-1.014-4.904-2.646c-1.021-1.714-0.439-5.353,0.072-8.563c0.328-2.05,0.666-4.171,0.637-5.925c-0.04-2.245-0.694-3.698-2-4.44c-0.797-0.451-1.768-0.68-2.882-0.68c-2.339,0-5.302,1.004-8.344,2.828c-2.59,1.552-4.858,3.479-6.344,5.371c-2.047-0.788-3.547-1.661-4.573-2.661c-1.259-1.227-1.788-2.65-1.615-4.354c0.121-1.215,0.934-3.305,1.874-5.725c2.166-5.575,5.132-13.212,2.823-18.596c-1.827-4.263-6.684-8.299-11.827-12.571c-4.181-3.476-8.505-7.068-11.9-11.222c-7.105-8.693-11.784-17.95-12.383-19.16L270.406,306.796L270.406,306.796z"></path></g></g><g><path d="M269.382,306.696c0,0,20.261-58.648,55.219-92.744c34.957-34.097,65.666-41.44,72.316-41.429c6.65,0.011,17.493,6.52,16.791,12.689c-0.703,6.17-8.324,14.191-8.324,14.191c0.26,4.79-2.585,19.202-6.904,25.419c-0.809,5.585-2.47,13.137-5.829,17.972c-0.702,6.17-3.51,30.851-8.415,37.174c-4.906,6.322-15.828,16.146-34.292,17.659c6.593,3.044,22.339,3.229,26.743,10.897c-1.334,2.657-1.769,6.967-1.769,6.967s14.988,9.389,15.551,22.583c-2.764-1.919-9.999-1.826-11.286,4.451c-1.287,6.275,3.97,11.976,3.748,17.455c-3.032-0.058-9.482,7.752-7.469,12.224c2.014,4.473,3.982,5.327,3.982,5.327s-12.774,2.905-9.822,19.296c6.312,11.556,15.398,18.381,23.103,24.245s17.247,25.3,4.896,30.546c-4.578,1.43-8.771-5.067-8.338-9.377c0.435-4.309-1.769-23.253-18.359-28.122c-16.591-4.868-25.5,9.428-27.583,14.638c-2.084,5.211-9.32,5.306-11.919,0.938c-2.601-4.366,3.112-16.274-0.927-18.568s-13.359,3.011-16.718,7.847c-4.52-1.604-7.975-4.005-7.541-8.313c0.433-4.308,7.901-16.531,4.774-23.826c-3.127-7.294-15.83-14.071-23.583-23.555c-7.751-9.482-12.575-19.491-12.575-19.491L269.382,306.696z"></path><path style="fill:#6E6E6E;" d="M392.704,443.116c0,0,0.932,5.169,4.299,4.116c3.368-1.05,3.609-4.651,3.609-4.651s-3.197-7.873-6.601-9.483C394.203,436.621,392.704,443.116,392.704,443.116z"></path><path style="fill:#6E6E6E;" d="M325.085,401.223c0,0-5.338,10.631-10.817,10.409c-1.908-3.887-0.282-21.706,4.025-21.273C324.089,392.336,325.085,401.223,325.085,401.223z"></path><path style="fill:#6E6E6E;" d="M356.638,398.563c0,0-7.315,16.427-11.894,17.854c0.128-12.714-3.314-21.765-9.216-24.327c-5.901-2.564-20.771-18.018-21.779-20.253c5.068-8.771,6.251-15.632,6.251-15.632S330.388,380.322,356.638,398.563z"></path><path style="fill:#6E6E6E;" d="M337.115,206.259c17.96-15.433,35.592-22.053,45.206-24.732c9.306,5.245,11.694,8.441,1.566,19.331c-11.122,2.003-17.406,7.819-23.273,15.07c-10.876,13.442-56.253,43.372-61.755,56.45s-19.947,30.186-23.624,33.265C282.563,282.565,317.134,223.431,337.115,206.259z"></path><path style="fill:#6E6E6E;" d="M363.166,216.677c2.181-1.906,9.602-9.807,21.465-14.423c2.575,2.057,3.858,5.601,2.912,8.825c-1.254,4.271-2.945,9.155-5.935,12.829C372.878,221.383,361.063,218.518,363.166,216.677z"></path><path style="fill:#6E6E6E;" d="M381.866,233.253c0,0-21.638-9.399-25.841-9.247c0.527,2.928-22.478,16.136-32.874,28.887c4.778,6.392,15.245,14.177,15.245,14.177S369.503,245.15,381.866,233.253z"></path><path style="fill:#6E6E6E;" d="M275.235,305.643c0,0,22.148-41.461,35.038-50.43c0,0,20.056,0.618,22.527,17.699c1.479,10.216-4.975,29.207-17.846,45.975l-39.6-11.907C275.276,306.12,275.235,305.643,275.235,305.643z"></path><path style="fill:#6E6E6E;" d="M338.069,271.965l43.949-34.508c0.804,17.089,0.893,38.52-23.55,51.885c-8.692,2.984-17.66,5.096-22.247,5.921C334.172,280.524,338.069,271.965,338.069,271.965z"></path><path style="fill:#6E6E6E;" d="M336.854,298.776c0,0,33.134,6.12,33.498,11.494c0.363,5.374,0.515,9.577,0.515,9.577S329.386,311,323.38,307.851C329.081,302.594,336.854,298.776,336.854,298.776z"></path><path style="fill:#6E6E6E;" d="M324.328,313.119l42.863,11.298c3.528,4.346,5.495,9.465,3.433,14.211c-0.209,0.46-0.448,0.873-0.705,1.257C355.73,339.112,324.328,313.119,324.328,313.119z"></path><path style="fill:#6E6E6E;" d="M310.97,316.13c24.975,17.864,48.973,26.984,58.367,28.772c6.37,8.523,5.188,15.385-6.615,21.194C344.688,355.548,306.931,313.241,310.97,316.13z"></path><path d="M284.208,348.75c1.65-0.901,59.17-37.248,60.127-68.849c0.458-15.157-22.228-39.512-41.93-28.107c-10.771,14.028-16.33,30.14-16.33,30.14s6.56,22.993,28.288,9.409c-19.365-0.138-17.103-11.885-13.432-17.524c7.573-11.639,34.701-8.668,21.615,22.699C313.963,317.096,284.208,348.75,284.208,348.75z"></path><path style="fill:#6E6E6E;" d="M275.704,311.602c0,0,4.733,32.993,8.504,37.148c3.77,4.156,26.404,22.442,26.404,22.442c0.116-6.064-0.67-13.78,2.152-14.893s6.333-1.744,6.333-1.744s-23.979-8.979-30.079-19.364C282.918,324.808,279.218,310.97,275.704,311.602z"></path><path style="fill:#6E6E6E;" d="M306.649,322.348c0,0,10.704,25.873,8.152,25.124c-2.554-0.749-15.632-6.251-19.239-12.854c-3.605-6.603-8.057-17.889-8.057-17.889L306.649,322.348z"></path><path d="M325.1,297.268c0,0-7.199,10.361-18.697,13.641c-11.496,3.28-22.865-6.156-32.021-3.299c10.947,7.094,28.909,19.573,37.959,16.13C321.564,311.199,325.1,297.268,325.1,297.268z"></path><path style="fill:#6E6E6E;" d="M362.536,370.907c0,0,9.075,13.475-1.473,22.023c-6.544,0.574-45.725-49.182-48.466-64.402C340.372,358.58,362.536,370.907,362.536,370.907z"></path></g></g></g></g></svg>