<svg xmlns="http://www.w3.org/2000/svg" width="500" height="500" version="1.1"><g id="x002" data-trait-type="Wings" data-trait-value="Beby Black Feather"><g><g><path style="fill:#6E6E6E;stroke:#000000;stroke-linecap:round;stroke-linejoin:round;" d="M214.401,314.818c2.413-8.849,0.341-11.722-5.208-18.359c2.953-11.829-15.828-27.15-35.772-11.531c-19.945,15.618-42.157,9.875-45.096,15.111c-2.939,5.236,9.1,15.396,18.558,14.709c-0.178,7.438,7.1,17.514,16.274,14.157c0,0,6.311,11.561,19.795,7.668c13.486-3.895,18.812-12.083,18.812-12.083S211.988,323.668,214.401,314.818z"></path><path style="fill:#505050;" d="M147.627,315.739c0,0,3.911,16.118,16,11.858c11.973-3.685,17.156-11.397,17.156-11.397s-13.815,9.671-19.802,3.684s-4.145-8.289-4.145-8.289L147.627,315.739z"></path><path style="fill:#505050;" d="M129.203,301.003c0,0-0.614,9.67,17.346,12.894c7.138,0.231,24.104-9.67,24.104-9.67l-2.303-5.066c0,0-17.039,9.671-22.565,7.829c-5.525-1.842-5.989-8.635-5.989-8.635S131.391,298.124,129.203,301.003z"></path><path style="fill:#505050;" d="M185.616,334.159c11.743-4.259,15.658-10.821,15.658-10.821s6.446,0.229,10.592-5.756c4.145-5.987,1.496-12.896,1.496-12.896s-1.264,11.514-9.093,12.434c-7.828,0.922-16.118,11.053-22.104,11.975c-5.986,0.92-10.592-3.685-10.592-3.685l-6.795,3.339C164.778,328.749,171.226,340.838,185.616,334.159z"></path><path style="fill:#505050;" d="M191.603,311.939c4.255,3.29,11.066,4.721,15.428,4.721c0,0-2.74,2.457-6.447,2.648c-6.819,0.352-16.361-3.013-14.273-15.543C187.813,305.833,188.669,309.673,191.603,311.939z"></path><path style="fill:none;stroke:#000000;stroke-linecap:round;stroke-linejoin:round;" d="M157.297,329.095c0,0,7.829,3.684,23.947-11.975"></path><path style="fill:none;stroke:#000000;stroke-linecap:round;stroke-linejoin:round;" d="M143.482,314.358c0,0,6.617,4.281,27.37-10.062"></path><path style="fill:none;stroke:#000000;stroke-linecap:round;stroke-linejoin:round;" d="M199.204,317.582c-17.96,2.302-12.895-13.816-12.895-13.816c-16.579,11.514-18.421-7.829-18.421-7.829"></path></g><g><path style="fill:#6E6E6E;stroke:#000000;stroke-linecap:round;stroke-linejoin:round;" d="M285.599,314.818c-2.412-8.849-0.341-11.722,5.208-18.359c-2.953-11.829,15.827-27.15,35.772-11.531c19.944,15.618,42.157,9.875,45.096,15.111c2.939,5.236-9.1,15.396-18.558,14.709c0.178,7.438-7.1,17.514-16.274,14.157c0,0-6.311,11.561-19.796,7.668c-13.485-3.895-18.812-12.083-18.812-12.083S288.012,323.668,285.599,314.818z"></path><path style="fill:#505050;" d="M352.374,315.739c0,0-3.912,16.118-16.001,11.858c-11.974-3.685-17.156-11.397-17.156-11.397s13.815,9.671,19.802,3.684c5.987-5.987,4.145-8.289,4.145-8.289L352.374,315.739z"></path><path style="fill:#505050;" d="M370.797,301.003c0,0,0.614,9.67-17.347,12.894c-7.138,0.231-24.103-9.67-24.103-9.67l2.302-5.066c0,0,17.04,9.671,22.566,7.829s5.989-8.635,5.989-8.635S368.609,298.124,370.797,301.003z"></path><path style="fill:#505050;" d="M314.384,334.159c-11.743-4.259-15.657-10.821-15.657-10.821s-6.447,0.229-10.593-5.756c-4.145-5.987-1.497-12.896-1.497-12.896s1.265,11.514,9.094,12.434c7.828,0.922,16.118,11.053,22.104,11.975c5.986,0.92,10.591-3.685,10.591-3.685l6.797,3.339C335.223,328.749,328.775,340.838,314.384,334.159z"></path><path style="fill:#505050;" d="M308.396,311.939c-4.255,3.29-11.065,4.721-15.427,4.721c0,0,2.74,2.457,6.447,2.648c6.818,0.352,16.361-3.013,14.273-15.543C312.187,305.833,311.331,309.673,308.396,311.939z"></path><path style="fill:none;stroke:#000000;stroke-linecap:round;stroke-linejoin:round;" d="M342.703,329.095c0,0-7.828,3.684-23.947-11.975"></path><path style="fill:none;stroke:#000000;stroke-linecap:round;stroke-linejoin:round;" d="M356.519,314.358c0,0-6.618,4.281-27.371-10.062"></path><path style="fill:none;stroke:#000000;stroke-linecap:round;stroke-linejoin:round;" d="M300.796,317.582c17.96,2.302,12.895-13.816,12.895-13.816c16.578,11.514,18.421-7.829,18.421-7.829"></path></g></g></g></svg>