<svg xmlns="http://www.w3.org/2000/svg" width="500" height="500" version="1.1"><g id="x021" data-trait-type="Wings" data-trait-value="Cyber Wings"><g><g><g><g><g><path style="fill:#FA3638;stroke:#000000;stroke-linecap:round;stroke-linejoin:round;" d="M109.922,395.3l29.546-24.188l4.845,10.949c0,0-19.664,21.595-35.878,39.457l-10.81-3.001L109.922,395.3z"></path><path style="fill:#505050;stroke:#000000;stroke-linecap:round;stroke-linejoin:round;" d="M109.922,395.3c0.759,2.254,1.336,3.581,1.336,3.581l29.087-22.121l4.529,6.203l28.854-33.08l3.557-21.392l-24.283-21.811C153.003,306.681,111.112,390.465,109.922,395.3z"></path></g></g><g><g><g><g><path style="fill:#FA3638;stroke:#000000;stroke-linecap:round;stroke-linejoin:round;" d="M126.896,428.011l20.874-33.747l7.815,8.477c0,0-12.276,27.624-22.38,50.457l-11.128,1.214L126.896,428.011z"></path><path style="fill:#6E6E6E;stroke:#000000;stroke-linecap:round;stroke-linejoin:round;" d="M126.896,428.011c1.384,1.833,2.318,2.865,2.318,2.865l21.051-31.632l6.117,4.135l17.603-41.842l1.277-32.155l-33.633-0.699C141.629,328.683,126.6,423.024,126.896,428.011z"></path></g><polygon style="fill:#505050;" points="172.588,331.365 171.776,359.443 151.837,358.922 139.808,347.995 141.797,327.302 "></polygon><polyline style="fill:none;stroke:#000000;stroke-width:4;stroke-linecap:round;stroke-linejoin:round;" points="150.266,399.244 161.618,357.941 161.618,335.317 "></polyline></g><g><path style="fill:#3F3F3F;stroke:#000000;stroke-linecap:round;stroke-linejoin:round;" d="M157.999,282.945c0,0-8.012,3.727-9.768,5.912c6.965,11.115,12.28,13.725,12.28,13.725l31.173-6.545c0,0,1.234-11.77-2.526-14.669C185.397,278.47,157.999,282.945,157.999,282.945z"></path><path style="fill:#6E6E6E;stroke:#000000;stroke-linecap:round;stroke-linejoin:round;" d="M188.492,282.857c0,0,4.319-2.416,5.676-0.808c1.355,1.609,9.329,12.784,7.683,18.798c0,0-5.418,22.602-13.085,27.873c-7.667,5.273-31.956,9.171-31.956,9.171l-7.48,8.342c0,0-2.939-5.908-3.458-15.489c-1.435-0.851-6.671-4.219-6.671-4.219s0.143,5.103,0.135,8.412c-1.557,0.29-3.258-2.869-3.258-2.869s-2.952-15.458-0.599-23.34c2.35-7.884,9.141-19.321,11.943-21.829c2.087,4.328,8.094,10.033,8.094,10.033s31-0.058,32.992-4.523C190.621,286.805,188.492,282.857,188.492,282.857z"></path></g></g><path style="fill:#505050;" d="M193.058,282.939c0,0,5.601,11.986,5.556,14.85c-0.045,2.862-4.847,26.836-12.181,31.366c-7.334,4.526-30.05,7.947-30.05,7.947l-6.212,5.933c0,0-1.022-9.613,0.107-10.692c1.128-1.078,24.893-4.817,29.205-12.009c4.31-7.192,7.797-18.638,6.595-19.281c-1.203-0.646-3.934-3.674-3.934-3.674s11.114-1.819,10.849-4.128c-0.265-2.308-2.034-9.673-2.034-9.673L193.058,282.939z"></path></g></g><g><path style="fill:#6E6E6E;stroke:#000000;stroke-linecap:round;stroke-linejoin:round;" d="M197.839,248.521c1.253,0.965,7.814,6.841,7.064,16.645c-0.824,3.007-7.263,13.241-16.23,22.286c-3.309,2.477-22.792,5.771-31.416,5.639c-6.248-5.311-8.854-12.491-8.854-12.491s12.947-18.468,24.547-27.326C184.15,248.212,196.583,247.555,197.839,248.521z"></path></g><path style="fill:none;stroke:#000000;stroke-width:4;stroke-linecap:round;stroke-linejoin:round;" d="M151.478,286.367c0,0,19.112-29.252,28.863-34.714"></path><path style="fill:#3F3F3F;stroke:#000000;stroke-linecap:round;stroke-linejoin:round;" d="M178.872,286.357c0.571-0.768,19.873-23.416,22.517-23.813c2.644-0.398-15.937,23.432-16.509,24.197C184.308,287.512,178.872,286.357,178.872,286.357z"></path></g><g><g><g><g><path style="fill:#FA3638;stroke:#000000;stroke-linecap:round;stroke-linejoin:round;" d="M390.076,395.3l-29.546-24.188l-4.844,10.949c0,0,19.665,21.595,35.877,39.457l10.812-3.001L390.076,395.3z"></path><path style="fill:#505050;stroke:#000000;stroke-linecap:round;stroke-linejoin:round;" d="M390.076,395.3c-0.759,2.254-1.336,3.581-1.336,3.581l-29.087-22.121l-4.529,6.203l-28.854-33.08l-3.558-21.392l24.282-21.811C346.995,306.681,388.887,390.465,390.076,395.3z"></path></g></g><g><g><g><g><path style="fill:#FA3638;stroke:#000000;stroke-linecap:round;stroke-linejoin:round;" d="M373.104,428.011l-20.875-33.747l-7.814,8.477c0,0,12.276,27.624,22.38,50.457l11.128,1.214L373.104,428.011z"></path><path style="fill:#6E6E6E;stroke:#000000;stroke-linecap:round;stroke-linejoin:round;" d="M373.104,428.011c-1.384,1.833-2.319,2.865-2.319,2.865l-21.051-31.632l-6.116,4.135l-17.604-41.842l-1.275-32.155l33.632-0.699C358.37,328.683,373.399,423.024,373.104,428.011z"></path></g><polygon style="fill:#505050;" points="327.411,331.365 328.224,359.443 348.162,358.922 360.19,347.995 358.203,327.302 "></polygon><polyline style="fill:none;stroke:#000000;stroke-width:4;stroke-linecap:round;stroke-linejoin:round;" points="349.733,399.244 338.381,357.941 338.381,335.317 "></polyline></g><g><path style="fill:#3F3F3F;stroke:#000000;stroke-linecap:round;stroke-linejoin:round;" d="M342.002,282.945c0,0,8.011,3.727,9.766,5.912c-6.965,11.115-12.279,13.725-12.279,13.725l-31.174-6.545c0,0-1.233-11.77,2.527-14.669C314.602,278.47,342.002,282.945,342.002,282.945z"></path><path style="fill:#6E6E6E;stroke:#000000;stroke-linecap:round;stroke-linejoin:round;" d="M311.507,282.857c0,0-4.319-2.416-5.674-0.808c-1.356,1.609-9.328,12.784-7.685,18.798c0,0,5.42,22.602,13.086,27.873c7.667,5.273,31.957,9.171,31.957,9.171l7.48,8.342c0,0,2.938-5.908,3.456-15.489c1.436-0.851,6.671-4.219,6.671-4.219s-0.144,5.103-0.135,8.412c1.557,0.29,3.258-2.869,3.258-2.869s2.951-15.458,0.599-23.34c-2.351-7.884-9.138-19.321-11.941-21.829c-2.088,4.328-8.095,10.033-8.095,10.033s-31.001-0.058-32.994-4.523C309.379,286.805,311.507,282.857,311.507,282.857z"></path></g></g><path style="fill:#505050;" d="M306.942,282.939c0,0-5.602,11.986-5.558,14.85c0.048,2.862,4.848,26.836,12.182,31.366c7.335,4.526,30.051,7.947,30.051,7.947l6.212,5.933c0,0,1.022-9.613-0.106-10.692c-1.128-1.078-24.894-4.817-29.206-12.009c-4.311-7.192-7.796-18.638-6.596-19.281c1.205-0.646,3.936-3.674,3.936-3.674s-11.115-1.819-10.849-4.128c0.265-2.308,2.033-9.673,2.033-9.673L306.942,282.939z"></path></g></g><g><path style="fill:#6E6E6E;stroke:#000000;stroke-linecap:round;stroke-linejoin:round;" d="M302.161,248.521c-1.255,0.965-7.815,6.841-7.065,16.645c0.823,3.007,7.263,13.241,16.23,22.286c3.309,2.477,22.791,5.771,31.417,5.639c6.246-5.311,8.853-12.491,8.853-12.491s-12.947-18.468-24.547-27.326C315.849,248.212,303.417,247.555,302.161,248.521z"></path></g><path style="fill:none;stroke:#000000;stroke-width:4;stroke-linecap:round;stroke-linejoin:round;" d="M348.522,286.367c0,0-19.113-29.252-28.863-34.714"></path><path style="fill:#3F3F3F;stroke:#000000;stroke-linecap:round;stroke-linejoin:round;" d="M321.128,286.357c-0.572-0.768-19.871-23.416-22.517-23.813c-2.645-0.398,15.937,23.432,16.508,24.197C315.691,287.512,321.128,286.357,321.128,286.357z"></path></g></g></g></svg>