<svg xmlns="http://www.w3.org/2000/svg" width="500" height="500" version="1.1"><g id="x023" data-trait-type="Wings" data-trait-value="Metal Wings"><g><g><path style="fill:#505050;stroke:#000000;stroke-linecap:round;stroke-linejoin:round;" d="M96.227,378.958c0,0,20.196-33.375,24.515-45.223c1.687,16.191,0.541,33.261,0.541,33.261L96.227,378.958z"></path><path style="fill:#666666;stroke:#000000;stroke-linecap:round;stroke-linejoin:round;" d="M230.021,306.293c0,0-17.9,10.982-29.122,8.305c0.03-13.903,4.207-23.162,4.207-23.162l17.191-5.339C222.297,286.097,234.654,293.979,230.021,306.293z"></path><g><path style="fill:#6E6E6E;stroke:#000000;stroke-linecap:round;stroke-linejoin:round;" d="M177.716,328.21c1.565-1.669,2.877-11.307,2.133-14.01c-0.745-2.703-13.313-14.37-17.426-16.026c-3.509-0.33-6.419,0.668-6.419,0.668s-17.827,9.041-19.47,11.065c-1.642,2.022-3.315,8.222-3.315,8.222L177.716,328.21z"></path><path style="fill:#505050;" d="M151.895,312.956l3.543-10.892c0,0-17.004,7.91-18.24,10.083c-1.235,2.175-2.487,6.981-2.487,6.981L151.895,312.956z"></path><path style="fill:#666666;stroke:#000000;stroke-linecap:round;stroke-linejoin:round;" d="M158.832,317.084c0.314-1.423,2.119-11.922,3.856-13.03c1.739-1.107,10.637,7.583,12.949,11.976c2.31,4.394-1.414,13.123-1.414,13.123L158.832,317.084z"></path></g><path style="fill:#505050;stroke:#000000;stroke-linecap:round;stroke-linejoin:round;" d="M164.08,316.306c1.075-0.808,25.206-16.064,25.206-16.064s0.75-8.209,3.63-9.646c3.299-1.647,8.878,3.675,10.534,7.709c3.104,7.554-4.618,20.177-4.618,20.177l-22.297,15.066L164.08,316.306z"></path><path style="fill:#666666;stroke:#000000;stroke-linecap:round;stroke-linejoin:round;" d="M198.106,296.452c0,0-5.383-1.004-8.82,3.789c-3.437,4.794,0.635,10.215,0.635,10.215l8.951-3.854l3.007-7.62L198.106,296.452z"></path><g><path style="fill:#6E6E6E;stroke:#000000;stroke-linecap:round;stroke-linejoin:round;" d="M201.63,318.652c0,0,3.938-4.946,1.938-8.081c-2.769-4.345-6.388-3.505-6.388-3.505l-25.569,17.029l6.299,9.308L201.63,318.652z"></path><path style="fill:#6E6E6E;stroke:#000000;stroke-linecap:round;stroke-linejoin:round;" d="M198.082,309.057c0,0,3.663-7.102,3.474-8.935c-0.193-1.833-5.759-6.351-7.847-6.366c-2.088-0.015-4.423,6.485-4.423,6.485l-2.861,1.456c0,0,3.029-10.974,6.348-12.477c3.319-1.505,7.349-2.852,9.073-1.873c1.723,0.979,7.971,3.11,8.763,6.271c0.793,3.162-5.263,25.11-7.618,26.979c-2.354,1.866-5.673,3.369-7.192,2.137"></path></g><g><path style="fill:#6E6E6E;stroke:#000000;stroke-linecap:round;stroke-linejoin:round;" d="M171.785,395.373c0,0,5.811-10.677,6.208-12.921c2.738-0.915,4.41-2.977,4.41-2.977l-0.884-6.988c0,0,7.549-12.114,7.462-14.465c1.81-6.798,1.491-17.714-0.24-20.432c-2.635-4.131-13.841-18.07-18.148-20.139c-4.306-2.069-19.13-2.413-20.828-2.079c-1.02-0.49-6.264-2.631-8.386-1.959c-6.834,2.163-16.724,10.01-23.553,17.085c-2.617,2.714-2.259,7.003-3.567,11.073c-1.628,5.519-5.934,15.279-5.173,18.317c2.246,4.958,5.126,8.435,5.126,8.435s-5.295,11.095-5.486,13.79c-0.191,2.693,8.638,10.428,10.121,11.061c1.482,0.634,3.8,0.233,4.531-0.314c0.73-0.549,2.154-6.518,1.917-7.28c-0.236-0.762-5.522-6.189-5.522-6.189l3.311-9L171.785,395.373z"></path><path style="fill:#505050;" d="M159.533,337.516l3.394-17.343c0,0-11.096-3.35-12.941-1.078c-1.842,2.272-2.07,13.39-1.857,15.448C148.343,336.601,159.533,337.516,159.533,337.516z"></path><path style="fill:#505050;" d="M144.336,335.764c0,0,1.012-17.919-0.123-18.841c-1.137-0.922-4.946-0.873-4.946-0.873s-18.985,14.111-20.757,17.07c-1.771,2.958-3.065,13.841-3.065,13.841l5.969,4.408C121.415,351.369,142.508,339.209,144.336,335.764z"></path><path style="fill:none;stroke:#000000;stroke-linecap:round;stroke-linejoin:round;" d="M146.451,319.81c0,0,0.051,12.582-2.115,15.954c-2.167,3.373-16.914,14.296-22.921,15.605c-2.77,0.602-7.023-3.99-7.023-3.99"></path><path style="fill:#666666;stroke:#000000;stroke-linecap:round;stroke-linejoin:round;" d="M163.454,386.464l7.529-0.351l1.676-8.731c0,0-9.653-17.014-21.529-24.484c-3.924,5.644-7.859,8.454-7.859,8.454L163.454,386.464z"></path><path style="fill:#6E6E6E;stroke:#000000;stroke-linecap:round;stroke-linejoin:round;" d="M148.755,422.002l18.863-13.766c0,0,3.701-5.264,3.094-12.597c-0.376-4.547-28.993-41.194-32.171-41.492c-3.179-0.298-44.72,23.854-49.418,28.592c-2.125,2.267-1.892,13.57-1.892,13.57l24.039,32.899L148.755,422.002z"></path><polygon style="fill:#505050;" points="147.168,418.543 163.626,406.774 134.952,367.812 92.837,389.531 "></polygon><path style="fill:none;stroke:#000000;stroke-linecap:round;stroke-linejoin:round;" d="M165.78,404.18c0,0-7.482-12.91-30.013-38.887c0,0-26.948,13.191-36.123,20.284"></path><g><g><path style="fill:#666666;stroke:#000000;stroke-linecap:round;stroke-linejoin:round;" d="M119.75,382.794l-15.934,53.37l-7.495,27.979c0,0-12.18-20.222-11.798-32.687c0.223-7.319,4.689-26.698,10.921-43.445l13.697-7.135L119.75,382.794z"></path><polyline style="fill:none;stroke:#000000;stroke-linecap:round;stroke-linejoin:round;" points="91.596,454.225 94.854,430.716 99.092,426.246 108.615,382.274 "></polyline></g><path style="fill:#FA3638;stroke:#000000;stroke-linecap:round;stroke-linejoin:round;" d="M116.875,383.311c-0.03,0.079-0.11,0.346-0.237,0.779c-1.967,6.745-14.863,53.661-14.863,53.661l8.801-3.12l14.587-50.295"></path><polygon style="fill:#57383D;stroke:#000000;stroke-linecap:round;stroke-linejoin:round;" points="121.608,398.552 112.418,397.936 114.598,382.604 127.133,384.365 "></polygon><path style="fill:#666666;stroke:#000000;stroke-linecap:round;stroke-linejoin:round;" d="M140.226,385.441l8.873,6.63c0,0,3.075,3.85,4.384,5.836c-2.321,12.507-8.21,31.772-13.339,39.625c-13.173,15.532-30.451,24.883-30.451,24.883l6.227-30.857l-3.482-6.246l13.283-41.664L140.226,385.441z"></path><path style="opacity:0.5;fill:#6E6E6E;" d="M151.741,398.561l-4.503-4.724l-8.064,41.554C139.173,435.391,149.736,411.042,151.741,398.561z"></path><path style="fill:none;stroke:#000000;stroke-linecap:round;stroke-linejoin:round;" d="M118.903,429.988c0,0,9.787-5.741,11.332-9.048c1.542-3.307,8.821-36.163,8.821-36.163"></path></g><line style="fill:none;stroke:#000000;stroke-linecap:round;stroke-linejoin:round;" x1="136.474" y1="363.017" x2="138.489" y2="356.671"></line><g><path style="fill:none;stroke:#000000;stroke-linecap:round;stroke-linejoin:round;" d="M186.404,356.694c0,0-2.207,2.175-3.455,1.54c-1.247-0.636-16.775-17.649-18.781-21.577"></path><path style="fill:none;stroke:#000000;stroke-linecap:round;stroke-linejoin:round;" d="M162.541,332.295c0,0,2.602-11.286,5.414-12.994"></path></g><path style="fill:#6E6E6E;stroke:#000000;stroke-linecap:round;stroke-linejoin:round;" d="M149.098,345.352c0,0-8.18,15.001-16.209,16.467c-8.03,1.464-9.788,5.737-9.788,5.737l-2.056,7.453l4.675,8.639c0,0-1.938,5.552-4.43,5.811c0,0-4.143-0.511-6.4-4.052c-2.258-3.541-4.282-10.885-3.508-12.538c0.772-1.653,1.861-9.319,1.861-9.319"></path><path style="fill:#505050;" d="M121.411,387.596l-4.708-1.937c0,0-3.967-9.817-4.645-11.304c-0.676-1.487,3.659-11.477,3.659-11.477l-5.229-3.615l3.115-10.031l7.124,5.152l3.738-0.736c0,0-10.325,17.37-8.596,20.657C117.595,377.592,121.411,387.596,121.411,387.596z"></path></g><path style="fill:#666666;stroke:#000000;stroke-linecap:round;stroke-linejoin:round;" d="M192.639,301.282"></path><path style="fill:#6E6E6E;stroke:#000000;stroke-linecap:round;stroke-linejoin:round;" d="M205.437,300.339c0,0,10.636-5.856,18.923-5.47c0.15-5.763-5.737-11.897-5.737-11.897s-15.564,4.12-20.695,7.653"></path><path style="fill:#666666;stroke:#000000;stroke-linecap:round;stroke-linejoin:round;" d="M245.291,297.179c0,0-1.085-13.439-4.743-15.267c-7.399-1.436-14.948-1.28-15.656,1.001c-0.708,2.279,6.977,12.512,6.977,12.512L245.291,297.179z"></path><path style="fill:#6E6E6E;stroke:#000000;stroke-linecap:round;stroke-linejoin:round;" d="M219.807,294.344c0,0,5.306,2.947,6.669,4.054c1.365,1.107,2.606,20.222,5.507,21.669c2.899,1.446,15.718-2.637,15.718-2.637s5.12-18.027,2.252-23.977c0,0-10.931,0.638-14.103-1.029c-3.173-1.67-5.648-8.658-5.648-8.658l13.946-0.453l-1.179-4.125c0,0-16.131-1.319-20.53-0.362c-4.398,0.959-8.556,6.639-8.556,6.639"></path><path style="fill:#505050;" d="M203.45,298.304l13.817-5.893c0,0,0.996-4.487,2.869-6.144c1.873-1.657,7.457-1.361,7.457-1.361c-0.362-3.47-5.884-3.187-5.884-3.187l-6.139,5.607c0,0-14.095,4.976-15.77,5.734C201.974,294.297,203.45,298.304,203.45,298.304z"></path></g><g><path style="fill:#505050;stroke:#000000;stroke-linecap:round;stroke-linejoin:round;" d="M403.772,378.958c0,0-20.196-33.375-24.515-45.223c-1.687,16.191-0.541,33.261-0.541,33.261L403.772,378.958z"></path><path style="fill:#666666;stroke:#000000;stroke-linecap:round;stroke-linejoin:round;" d="M269.979,306.293c0,0,17.899,10.982,29.121,8.305c-0.029-13.903-4.207-23.162-4.207-23.162l-17.191-5.339C277.702,286.097,265.345,293.979,269.979,306.293z"></path><g><path style="fill:#6E6E6E;stroke:#000000;stroke-linecap:round;stroke-linejoin:round;" d="M322.284,328.21c-1.565-1.669-2.879-11.307-2.134-14.01c0.744-2.703,13.313-14.37,17.426-16.026c3.51-0.33,6.419,0.668,6.419,0.668s17.826,9.041,19.47,11.065c1.643,2.022,3.314,8.222,3.314,8.222L322.284,328.21z"></path><path style="fill:#505050;" d="M348.104,312.956l-3.543-10.892c0,0,17.004,7.91,18.24,10.083c1.234,2.175,2.486,6.981,2.486,6.981L348.104,312.956z"></path><path style="fill:#666666;stroke:#000000;stroke-linecap:round;stroke-linejoin:round;" d="M341.168,317.084c-0.315-1.423-2.118-11.922-3.857-13.03c-1.737-1.107-10.637,7.583-12.948,11.976c-2.311,4.394,1.414,13.123,1.414,13.123L341.168,317.084z"></path></g><path style="fill:#505050;stroke:#000000;stroke-linecap:round;stroke-linejoin:round;" d="M335.92,316.306c-1.075-0.808-25.206-16.064-25.206-16.064s-0.749-8.209-3.629-9.646c-3.3-1.647-8.879,3.675-10.535,7.709c-3.104,7.554,4.617,20.177,4.617,20.177l22.298,15.065L335.92,316.306z"></path><path style="fill:#666666;stroke:#000000;stroke-linecap:round;stroke-linejoin:round;" d="M301.894,296.452c0,0,5.383-1.004,8.82,3.789c3.437,4.794-0.635,10.215-0.635,10.215l-8.951-3.854l-3.006-7.62L301.894,296.452z"></path><g><path style="fill:#6E6E6E;stroke:#000000;stroke-linecap:round;stroke-linejoin:round;" d="M298.37,318.652c0,0-3.938-4.946-1.939-8.081c2.77-4.345,6.389-3.505,6.389-3.505l25.569,17.029l-6.299,9.308L298.37,318.652z"></path><path style="fill:#6E6E6E;stroke:#000000;stroke-linecap:round;stroke-linejoin:round;" d="M301.917,309.057c0,0-3.662-7.102-3.473-8.935c0.192-1.833,5.759-6.351,7.847-6.366c2.087-0.015,4.423,6.485,4.423,6.485l2.86,1.456c0,0-3.028-10.974-6.348-12.477c-3.317-1.505-7.349-2.852-9.073-1.873c-1.724,0.979-7.97,3.11-8.762,6.271c-0.794,3.162,5.263,25.11,7.617,26.979c2.354,1.866,5.673,3.369,7.191,2.137"></path></g><g><path style="fill:#6E6E6E;stroke:#000000;stroke-linecap:round;stroke-linejoin:round;" d="M328.214,395.373c0,0-5.81-10.677-6.207-12.921c-2.738-0.915-4.41-2.977-4.41-2.977l0.885-6.988c0,0-7.55-12.114-7.463-14.465c-1.81-6.798-1.49-17.714,0.24-20.432c2.635-4.131,13.841-18.07,18.147-20.139c4.306-2.069,19.131-2.413,20.829-2.079c1.019-0.49,6.264-2.631,8.387-1.959c6.833,2.163,16.723,10.01,23.552,17.085c2.617,2.714,2.261,7.003,3.568,11.073c1.628,5.519,5.934,15.279,5.173,18.317c-2.247,4.958-5.127,8.435-5.127,8.435s5.296,11.095,5.486,13.79c0.191,2.693-8.638,10.428-10.12,11.061c-1.482,0.634-3.8,0.233-4.531-0.314c-0.729-0.549-2.153-6.518-1.917-7.28c0.237-0.762,5.523-6.189,5.523-6.189l-3.311-9L328.214,395.373z"></path><path style="fill:#505050;" d="M340.468,337.516l-3.396-17.343c0,0,11.097-3.35,12.94-1.078c1.845,2.272,2.071,13.39,1.859,15.448C351.656,336.601,340.468,337.516,340.468,337.516z"></path><path style="fill:#505050;" d="M355.664,335.764c0,0-1.014-17.919,0.122-18.841c1.138-0.922,4.945-0.873,4.945-0.873s18.985,14.111,20.757,17.07c1.772,2.958,3.065,13.841,3.065,13.841l-5.969,4.408C378.585,351.369,357.492,339.209,355.664,335.764z"></path><path style="fill:none;stroke:#000000;stroke-linecap:round;stroke-linejoin:round;" d="M353.549,319.81c0,0-0.051,12.582,2.115,15.954c2.166,3.373,16.913,14.296,22.921,15.605c2.771,0.602,7.023-3.99,7.023-3.99"></path><path style="fill:#666666;stroke:#000000;stroke-linecap:round;stroke-linejoin:round;" d="M336.547,386.464l-7.529-0.351l-1.676-8.731c0,0,9.652-17.014,21.528-24.484c3.924,5.644,7.859,8.454,7.859,8.454L336.547,386.464z"></path><path style="fill:#6E6E6E;stroke:#000000;stroke-linecap:round;stroke-linejoin:round;" d="M351.245,422.002l-18.863-13.766c0,0-3.701-5.264-3.094-12.597c0.376-4.547,28.993-41.194,32.17-41.492c3.18-0.298,44.721,23.854,49.42,28.592c2.124,2.267,1.892,13.57,1.892,13.57l-24.039,32.899L351.245,422.002z"></path><polygon style="fill:#505050;" points="352.831,418.543 336.374,406.774 365.048,367.812 407.162,389.531 "></polygon><path style="fill:none;stroke:#000000;stroke-linecap:round;stroke-linejoin:round;" d="M334.22,404.18c0,0,7.481-12.91,30.013-38.887c0,0,26.947,13.191,36.122,20.284"></path><g><g><path style="fill:#666666;stroke:#000000;stroke-linecap:round;stroke-linejoin:round;" d="M380.25,382.794l15.934,53.37l7.495,27.979c0,0,12.18-20.222,11.798-32.687c-0.223-7.319-4.688-26.698-10.922-43.445l-13.696-7.135L380.25,382.794z"></path><polyline style="fill:none;stroke:#000000;stroke-linecap:round;stroke-linejoin:round;" points="408.403,454.225 405.146,430.716 400.908,426.246 391.385,382.274 "></polyline></g><path style="fill:#FA3638;stroke:#000000;stroke-linecap:round;stroke-linejoin:round;" d="M383.125,383.311c0.03,0.079,0.11,0.346,0.236,0.779c1.967,6.745,14.864,53.661,14.864,53.661l-8.801-3.12l-14.588-50.295"></path><polygon style="fill:#57383D;stroke:#000000;stroke-linecap:round;stroke-linejoin:round;" points="378.392,398.552 387.582,397.936 385.402,382.604 372.866,384.365 "></polygon><path style="fill:#666666;stroke:#000000;stroke-linecap:round;stroke-linejoin:round;" d="M359.774,385.441l-8.873,6.63c0,0-3.076,3.85-4.384,5.836c2.321,12.507,8.21,31.772,13.339,39.625c13.173,15.532,30.451,24.883,30.451,24.883l-6.227-30.857l3.482-6.246l-13.283-41.664L359.774,385.441z"></path><path style="opacity:0.5;fill:#6E6E6E;" d="M348.259,398.561l4.504-4.724l8.064,41.554C360.827,435.391,350.263,411.042,348.259,398.561z"></path><path style="fill:none;stroke:#000000;stroke-linecap:round;stroke-linejoin:round;" d="M381.097,429.988c0,0-9.787-5.741-11.331-9.048c-1.543-3.307-8.821-36.163-8.821-36.163"></path></g><line style="fill:none;stroke:#000000;stroke-linecap:round;stroke-linejoin:round;" x1="363.525" y1="363.017" x2="361.51" y2="356.671"></line><g><path style="fill:none;stroke:#000000;stroke-linecap:round;stroke-linejoin:round;" d="M313.596,356.694c0,0,2.207,2.175,3.454,1.54c1.247-0.636,16.775-17.649,18.781-21.577"></path><path style="fill:none;stroke:#000000;stroke-linecap:round;stroke-linejoin:round;" d="M337.459,332.295c0,0-2.603-11.286-5.415-12.994"></path></g><path style="fill:#6E6E6E;stroke:#000000;stroke-linecap:round;stroke-linejoin:round;" d="M350.901,345.352c0,0,8.182,15.001,16.21,16.467c8.03,1.464,9.787,5.737,9.787,5.737l2.057,7.453l-4.675,8.639c0,0,1.938,5.552,4.429,5.811c0,0,4.144-0.511,6.401-4.052s4.281-10.885,3.508-12.538c-0.772-1.653-1.861-9.319-1.861-9.319"></path><path style="fill:#505050;" d="M378.589,387.596l4.709-1.937c0,0,3.967-9.817,4.645-11.304c0.676-1.487-3.66-11.477-3.66-11.477l5.23-3.615l-3.115-10.031l-7.124,5.152l-3.737-0.736c0,0,10.325,17.37,8.597,20.657C382.405,377.592,378.589,387.596,378.589,387.596z"></path></g><path style="fill:#666666;stroke:#000000;stroke-linecap:round;stroke-linejoin:round;" d="M307.36,301.282"></path><path style="fill:#6E6E6E;stroke:#000000;stroke-linecap:round;stroke-linejoin:round;" d="M294.563,300.339c0,0-10.636-5.856-18.923-5.47c-0.149-5.763,5.737-11.897,5.737-11.897s15.564,4.12,20.694,7.653"></path><path style="fill:#666666;stroke:#000000;stroke-linecap:round;stroke-linejoin:round;" d="M254.709,297.179c0,0,1.085-13.439,4.741-15.267c7.399-1.436,14.949-1.28,15.656,1.001c0.709,2.279-6.977,12.512-6.977,12.512L254.709,297.179z"></path><path style="fill:#6E6E6E;stroke:#000000;stroke-linecap:round;stroke-linejoin:round;" d="M280.193,294.344c0,0-5.307,2.947-6.671,4.054c-1.364,1.107-2.605,20.222-5.506,21.669c-2.898,1.446-15.718-2.637-15.718-2.637s-5.12-18.027-2.252-23.977c0,0,10.931,0.638,14.103-1.029c3.172-1.67,5.648-8.658,5.648-8.658l-13.947-0.453l1.18-4.125c0,0,16.132-1.319,20.53-0.362c4.397,0.959,8.556,6.639,8.556,6.639"></path><path style="fill:#505050;" d="M296.55,298.304l-13.816-5.893c0,0-0.996-4.487-2.869-6.144c-1.873-1.657-7.456-1.361-7.456-1.361c0.36-3.47,5.884-3.187,5.884-3.187l6.139,5.607c0,0,14.096,4.976,15.77,5.734C298.026,294.297,296.55,298.304,296.55,298.304z"></path></g></g></g></svg>