<svg xmlns="http://www.w3.org/2000/svg" width="500" height="500" version="1.1"><g id="x024" data-trait-type="Wings" data-trait-value="Metal Wings"><g><g><g><g><path style="fill:#6E6E6E;stroke:#000000;stroke-linecap:round;stroke-linejoin:round;" d="M210.738,266.33c0,0-4.962-8.871-9.439-11.996c-4.428-3.09-43.451-13.699-72.803,21.746c-16.066,19.404-13.5,41.644-13.5,41.644s-8.967,9.448-6.266,22.177c-6.05,13.983-9.689,22.975-10.084,40.259l-8.765,11.912c0,0-6.279,71.421-1.151,75.912C99.836,461.346,210.738,266.33,210.738,266.33z"></path><path style="opacity:0.5;fill:#FFFFFF;" d="M205.82,261.707c0,0-4.471-5.489-5.895-6.099c-1.423-0.61-18.296-5.286-35.168-1.22c2.846,2.439,4.473,6.911,7.114,6.911c2.644,0,8.335-3.659,11.182-4.065C185.899,256.828,199.112,256.015,205.82,261.707z"></path><path style="fill:#505050;" d="M101.129,380.426c0.457,0,7.928-0.609,10.825,3.202c0,4.116-2.439,11.13-2.439,11.13s-5.337-4.116-9.148-4.422c-3.812-0.305-7.928,0.763-7.928,0.763L101.129,380.426z"></path><path style="fill:#505050;" d="M110.582,340.48c0.193,0.84,19.82-3.965,22.717-4.727c-4.727-5.184-11.435-7.166-13.722-7.471c-2.287-0.306-7.471,5.184-7.929,6.099C111.191,335.296,110.124,338.498,110.582,340.48z"></path><path style="fill:#505050;" d="M101.738,397.502c-0.609-1.22-2.134-1.829-3.659-1.981c-1.524-0.153-5.184-0.306-5.488,0.457s-3.659,55.649-3.659,62.663C92.286,441.107,102.349,398.722,101.738,397.502z"></path><path style="fill:#505050;" d="M172.024,257.387c-0.609,1.22-9.147,13.417-16.923,16.009s-18.753-0.915-21.955,0.305c3.354-4.727,5.946-6.86,5.946-6.86L172.024,257.387z"></path><path style="fill:#6E6E6E;stroke:#000000;stroke-linecap:round;stroke-linejoin:round;" d="M173.722,254.628c0,0-12.068,13.995-18.528,14.861c-6.462,0.866-14.752-3.864-18.794-2.56c-3.821,2.844-3.279,4.095-3.279,4.095s-2.03-1.944-1.559-4.972c0.472-3.028,14.166-13.27,18.8-14.236C154.996,250.85,166.396,249.033,173.722,254.628z"></path><path style="opacity:0.5;fill:#FFFFFF;" d="M170.043,254.998c0,0-2.644,5.285-6.303,5.285s-6.505-3.252-10.164-3.455c-3.659-0.204-10.774,1.219-13.01,3.862c4.676-4.473,9.554-6.912,10.977-7.115C152.967,253.372,164.147,251.542,170.043,254.998z"></path><path style="fill:none;stroke:#000000;stroke-linecap:round;stroke-linejoin:round;" d="M107.584,396.663c0,0-5.601-3.667-8.02-4.105s-8.88,0.429-8.88,0.429"></path><path style="fill:none;stroke:#000000;stroke-linecap:round;stroke-linejoin:round;" d="M114.626,318.564c4.193-4.045,16.522-6.115,16.522-6.115l2.111-5.075c0,0-12.263,0.853-17.944,4.204"></path></g><path style="fill:#505050;stroke:#000000;stroke-linecap:round;stroke-linejoin:round;" d="M134.66,339.545c1.654-2.929,10.988-11.175,12.579-14.582c1.215-2.303,0.863-19.62,10.053-40.296c9.007-20.268,35.336-25.704,35.336-25.704c7.142,1.484,18.11,7.367,18.11,7.367s14.063,16.361-2.584,44.977c-12.27,21.094-27.874,28.559-35.486,31.038c-12.161,19.187-61.839,100.887-82.226,119.992C88.183,456.229,133.001,342.481,134.66,339.545z"></path><path style="fill:#57383D;" d="M207.642,265.349c0,0,18.634,16.6-2.118,49.663c-10.631,15.601-30.415,25.507-34.762,26.795c-5.326,2.456-8.622,6.855-8.622,6.855s-33.681,51.592-36.113,56.955s-10.506,24.465-10.506,24.465l-23.037,30.188l-2.048-1.64l43.182-118.866l13.186-12.102c0,0,3.249-32.01,10.04-43.729c10.459-18.054,36.503-25.173,36.503-25.173L207.642,265.349z"></path><path style="fill:#6E6E6E;stroke:#000000;stroke-linecap:round;stroke-linejoin:round;" d="M166.506,324.776l-0.233,4.263l-4.296,0.374c0,0-19.537,27.634-24.402,38.359c-3.925-0.826-6.277-2.482-6.277-2.482s15.813-32.112,22.727-41.2c0.151-2.74-0.949-4.938-0.949-4.938l4.817-4.315L166.506,324.776z"></path></g><path style="fill:#6E6E6E;stroke:#000000;stroke-linecap:round;stroke-linejoin:round;" d="M195.005,261.906c7.462,3.158,19.209,17.241,8.093,41.672c-8.193,18.009-26.885,25.693-39.061,21.674c-11.098-3.664-10.83-30.98-5.943-41.86C165.053,267.894,187.544,258.747,195.005,261.906z"></path><path style="fill:#505050;" d="M173.55,324.166c0,0-10.216,2.592-13.875-5.031s-6.556-28.054,3.659-40.86C154.644,311.207,173.55,324.166,173.55,324.166z"></path><path style="fill:#505050;" d="M187.119,302.059c0,0-1.372,2.135-3.507,1.982c-4.27-5.031-5.794-9.147-1.678-18.601c0.458,2.287,2.439,2.135,2.439,2.135S180.715,295.96,187.119,302.059z"></path><g><ellipse transform="matrix(-0.9389 -0.3442 0.3442 -0.9389 270.2202 633.371)" style="fill:none;stroke:#000000;stroke-linecap:round;stroke-linejoin:round;" cx="191.327" cy="292.701" rx="6.861" ry="8.995"></ellipse><ellipse transform="matrix(-0.9389 -0.3442 0.3442 -0.9389 266.9717 631.3793)" style="fill:none;stroke:#000000;stroke-linecap:round;stroke-linejoin:round;" cx="189.534" cy="291.99" rx="11.263" ry="14.768"></ellipse></g><path style="fill:none;stroke:#000000;stroke-linecap:round;stroke-linejoin:round;" d="M172.521,326.399c0,0,7.887-4.523,8.661-13.032c-3.757-2.48-8.054-3.496-8.054-3.496s-4.831,10.117-9.296,13.536"></path><g><path style="fill:#6E6E6E;stroke:#000000;stroke-linecap:round;stroke-linejoin:round;" d="M117.743,384.09c0,0,8.899,4.765,14.618,6.301c-1.975,8.137,1.688,24.829,1.688,24.829s-12.639,24.348-15.596,28.154c-2.958,3.809-21.93,15.591-21.93,15.591l-5.009-3.328L117.743,384.09z"></path><path style="fill:#505050;" d="M115.309,395.215c0,0-0.915,13.722,1.066,16.161c1.982,2.439-19.516,44.825-19.516,44.825l-3.201-1.22L115.309,395.215z"></path><path style="fill:none;stroke:#000000;stroke-linecap:round;stroke-linejoin:round;" d="M133.17,414.561c0,0-10.911-1.516-14.093-4.744c-3.182-3.229-1.435-23.899-1.435-23.899"></path></g></g><g><g><g><path style="fill:#6E6E6E;stroke:#000000;stroke-linecap:round;stroke-linejoin:round;" d="M289.262,266.33c0,0,4.962-8.871,9.438-11.996c4.429-3.09,43.452-13.699,72.804,21.746c16.066,19.404,13.5,41.644,13.5,41.644s8.966,9.448,6.266,22.177c6.05,13.983,9.688,22.975,10.084,40.259l8.765,11.912c0,0,6.279,71.421,1.15,75.912C400.164,461.346,289.262,266.33,289.262,266.33z"></path><path style="opacity:0.5;fill:#FFFFFF;" d="M294.179,261.707c0,0,4.472-5.489,5.896-6.099c1.423-0.61,18.296-5.286,35.168-1.22c-2.846,2.439-4.473,6.911-7.114,6.911c-2.644,0-8.335-3.659-11.182-4.065C314.101,256.828,300.888,256.015,294.179,261.707z"></path><path style="fill:#505050;" d="M398.871,380.426c-0.457,0-7.928-0.609-10.824,3.202c0,4.116,2.439,11.13,2.439,11.13s5.336-4.116,9.147-4.422c3.812-0.305,7.928,0.763,7.928,0.763L398.871,380.426z"></path><path style="fill:#505050;" d="M389.419,340.48c-0.194,0.84-19.821-3.965-22.718-4.727c4.727-5.184,11.435-7.166,13.722-7.471c2.287-0.306,7.471,5.184,7.929,6.099C388.809,335.296,389.876,338.498,389.419,340.48z"></path><path style="fill:#505050;" d="M398.262,397.502c0.609-1.22,2.135-1.829,3.659-1.981c1.524-0.153,5.184-0.306,5.488,0.457c0.306,0.763,3.659,55.649,3.659,62.663C407.715,441.107,397.651,398.722,398.262,397.502z"></path><path style="fill:#505050;" d="M327.976,257.387c0.609,1.22,9.147,13.417,16.923,16.009c7.776,2.592,18.754-0.915,21.955,0.305c-3.354-4.727-5.946-6.86-5.946-6.86L327.976,257.387z"></path><path style="fill:#6E6E6E;stroke:#000000;stroke-linecap:round;stroke-linejoin:round;" d="M326.277,254.628c0,0,12.069,13.995,18.529,14.861c6.461,0.866,14.751-3.864,18.794-2.56c3.821,2.844,3.279,4.095,3.279,4.095s2.031-1.944,1.56-4.972c-0.474-3.028-14.168-13.27-18.801-14.236C345.004,250.85,333.604,249.033,326.277,254.628z"></path><path style="opacity:0.5;fill:#FFFFFF;" d="M329.957,254.998c0,0,2.644,5.285,6.303,5.285s6.505-3.252,10.164-3.455c3.659-0.204,10.774,1.219,13.011,3.862c-4.677-4.473-9.555-6.912-10.978-7.115C347.033,253.372,335.853,251.542,329.957,254.998z"></path><path style="fill:none;stroke:#000000;stroke-linecap:round;stroke-linejoin:round;" d="M392.416,396.663c0,0,5.601-3.667,8.02-4.105s8.88,0.429,8.88,0.429"></path><path style="fill:none;stroke:#000000;stroke-linecap:round;stroke-linejoin:round;" d="M385.373,318.564c-4.192-4.045-16.521-6.115-16.521-6.115l-2.111-5.075c0,0,12.262,0.853,17.943,4.204"></path></g><path style="fill:#505050;stroke:#000000;stroke-linecap:round;stroke-linejoin:round;" d="M365.34,339.545c-1.654-2.929-10.988-11.175-12.578-14.582c-1.217-2.303-0.864-19.62-10.054-40.296c-9.007-20.268-35.336-25.704-35.336-25.704c-7.142,1.484-18.11,7.367-18.11,7.367s-14.063,16.361,2.584,44.977c12.27,21.094,27.874,28.559,35.486,31.038c12.161,19.187,61.839,100.887,82.225,119.992C411.816,456.229,366.999,342.481,365.34,339.545z"></path><path style="fill:#57383D;" d="M292.357,265.349c0,0-18.633,16.6,2.119,49.663c10.631,15.601,30.415,25.507,34.762,26.795c5.326,2.456,8.622,6.855,8.622,6.855s33.681,51.592,36.114,56.955c2.431,5.363,10.506,24.465,10.506,24.465l23.036,30.188l2.048-1.64l-43.182-118.866l-13.186-12.102c0,0-3.249-32.01-10.04-43.729c-10.459-18.054-36.503-25.173-36.503-25.173L292.357,265.349z"></path><path style="fill:#6E6E6E;stroke:#000000;stroke-linecap:round;stroke-linejoin:round;" d="M333.494,324.776l0.233,4.263l4.296,0.374c0,0,19.537,27.634,24.403,38.359c3.923-0.826,6.275-2.482,6.275-2.482s-15.813-32.112-22.726-41.2c-0.151-2.74,0.949-4.938,0.949-4.938l-4.817-4.315L333.494,324.776z"></path></g><path style="fill:#6E6E6E;stroke:#000000;stroke-linecap:round;stroke-linejoin:round;" d="M304.994,261.906c-7.461,3.158-19.208,17.241-8.092,41.672c8.193,18.009,26.885,25.693,39.061,21.674c11.098-3.664,10.83-30.98,5.943-41.86C334.947,267.894,312.456,258.747,304.994,261.906z"></path><path style="fill:#505050;" d="M326.45,324.166c0,0,10.216,2.592,13.875-5.031s6.556-28.054-3.659-40.86C345.356,311.207,326.45,324.166,326.45,324.166z"></path><path style="fill:#505050;" d="M312.881,302.059c0,0,1.372,2.135,3.507,1.982c4.27-5.031,5.794-9.147,1.677-18.601c-0.457,2.287-2.439,2.135-2.439,2.135S319.285,295.96,312.881,302.059z"></path><g><ellipse transform="matrix(0.9389 -0.3442 0.3442 0.9389 -81.8845 124.1252)" style="fill:none;stroke:#000000;stroke-linecap:round;stroke-linejoin:round;" cx="308.673" cy="292.701" rx="6.861" ry="8.995"></ellipse><ellipse transform="matrix(0.9389 -0.3442 0.3442 0.9389 -81.5385 124.7183)" style="fill:none;stroke:#000000;stroke-linecap:round;stroke-linejoin:round;" cx="310.466" cy="291.99" rx="11.263" ry="14.768"></ellipse></g><path style="fill:none;stroke:#000000;stroke-linecap:round;stroke-linejoin:round;" d="M327.479,326.399c0,0-7.887-4.523-8.661-13.032c3.757-2.48,8.054-3.496,8.054-3.496s4.831,10.117,9.296,13.536"></path><g><path style="fill:#6E6E6E;stroke:#000000;stroke-linecap:round;stroke-linejoin:round;" d="M382.258,384.09c0,0-8.9,4.765-14.619,6.301c1.975,8.137-1.688,24.829-1.688,24.829s12.638,24.348,15.596,28.154c2.957,3.809,21.929,15.591,21.929,15.591l5.009-3.328L382.258,384.09z"></path><path style="fill:#505050;" d="M384.692,395.215c0,0,0.915,13.722-1.067,16.161s19.516,44.825,19.516,44.825l3.201-1.22L384.692,395.215z"></path><path style="fill:none;stroke:#000000;stroke-linecap:round;stroke-linejoin:round;" d="M366.83,414.561c0,0,10.911-1.516,14.094-4.744c3.182-3.229,1.434-23.899,1.434-23.899"></path></g></g></g></g></svg>