<svg xmlns="http://www.w3.org/2000/svg" width="500" height="500" version="1.1"><g id="x025" data-trait-type="Wings" data-trait-value="Metal Wings"><g><g><g><g><g><path style="fill:#F0F0F0;stroke:#000000;stroke-linecap:round;stroke-linejoin:round;" d="M99.781,222.56c0,0-22.378-12.748-24.854-16.637c-2.478-3.891-4.302-14.546-3.063-18.741c18.714,10.496,79.212,44.087,79.212,44.087l-5.089,8.503L99.781,222.56z"></path><path style="fill:#B2B2B2;" d="M120.296,220.43l-46.754-27.841c0,0-1.212,9.059,2.931,12.854c4.142,3.797,20.685,14.12,20.685,14.12L120.296,220.43z"></path></g><g><path style="fill:#6E6E6E;stroke:#000000;stroke-linecap:round;stroke-linejoin:round;" d="M143.811,244.944l-8.146-4.207l-14.451,3.017c0,0-0.9-7.896-2.996-8.816c-2.093-0.921-12.449-5.79-25.55-14.364c12.941-2.43,24.995-2.128,24.995-2.128l31.654,16.11L143.811,244.944z"></path><path style="fill:#505050;" d="M146.02,237.793l-35.697-17.577l-13.905,1.069c0,0,19.758,11.191,23.31,13.065c1.319,3.394,2.032,7.455,2.032,7.455l13.694-2.724l7.624,3.979L146.02,237.793z"></path></g></g><circle style="fill:#6E6E6E;stroke:#000000;stroke-linecap:round;stroke-linejoin:round;" cx="139.781" cy="271.411" r="35.463"></circle><path style="fill:#505050;" d="M126.053,250.533c0,0-6.006,3.718-7.723,10.297c-6.577,2.002-10.296,0.285-10.296,0.285s2.574-10.582,9.152-14.3C122.049,249.389,126.053,250.533,126.053,250.533z"></path><path style="fill:#505050;" d="M169.238,287.999c0,0-9.152,14.299-20.02,14.871c-4.576-8.579-7.723-12.298-7.723-12.298s18.876-5.147,20.593-24.023c4.575,2.288,9.724,5.147,9.724,5.147S176.674,281.706,169.238,287.999z"></path><g><g><path style="fill:#F0F0F0;stroke:#000000;stroke-linecap:round;stroke-linejoin:round;" d="M145.026,337.886c0,0-2.659,25.616-5.222,29.45c-2.563,3.833-11.583,9.794-15.922,10.35c2.072-21.357,8.462-90.259,8.462-90.259l9.83,1.233L145.026,337.886z"></path><path style="fill:#B2B2B2;" d="M134.816,319.966l-6.66,54.006c0,0,8.779-2.536,10.587-7.858c1.808-5.319,4.596-24.619,4.596-24.619L134.816,319.966z"></path></g><g><path style="fill:#F0F0F0;stroke:#000000;stroke-linecap:round;stroke-linejoin:round;" d="M186.255,303.103c0,0-10.307,23.602-13.912,26.477c-3.605,2.876-14.009,5.817-18.313,5.029c4.246-9.902,13.167-30.896,20.999-49.346c4.488,2.807,9.024,5.546,13.73,8.056L186.255,303.103z"></path><path style="fill:#B2B2B2;" d="M183.553,306.029c0,0-8.514,17.543-11.851,22.064c-3.336,4.521-12.472,4.273-12.472,4.273l19.826-42.793c0.94,0.569,7.075,4.401,8.026,4.958L183.553,306.029z"></path></g><g><path style="fill:#F0F0F0;stroke:#000000;stroke-linecap:round;stroke-linejoin:round;" d="M206.183,309.768c0,0-6.558,24.904-9.68,28.299c-3.121,3.396-12.948,7.901-17.32,7.783c2.673-10.436,8.263-32.552,13.166-51.986c4.865,2.085,9.771,4.095,14.806,5.852L206.183,309.768z"></path><path style="fill:#B2B2B2;" d="M203.962,313.073c0,0-5.717,18.645-8.319,23.624c-2.602,4.979-11.667,6.14-11.667,6.14l13.015-45.331c1.018,0.417,7.667,3.26,8.692,3.664L203.962,313.073z"></path></g><g><path style="fill:#F0F0F0;stroke:#000000;stroke-linecap:round;stroke-linejoin:round;" d="M226.63,312.598c0,0-4.198,25.408-6.987,29.081c-2.789,3.672-12.15,9.079-16.517,9.371c1.686-10.643,5.181-33.183,8.241-52.991c5.04,1.619,10.111,3.161,15.289,4.438L226.63,312.598z"></path><path style="fill:#B2B2B2;" d="M224.729,316.097c0,0-3.946,19.097-6.07,24.299c-2.125,5.201-11.042,7.205-11.042,7.205l8.715-46.351c1.052,0.32,7.939,2.529,8.997,2.835L224.729,316.097z"></path></g><g><path style="fill:#6E6E6E;stroke:#000000;stroke-linecap:round;stroke-linejoin:round;" d="M147.788,288.57l-0.571,9.152l8.579,12.011c0,0-6.864,4.004-6.864,6.293c0,2.287-0.285,13.728-2.859,29.171c-7.437-10.868-12.012-22.021-12.012-22.021l2.002-35.464L147.788,288.57z"></path><path style="fill:#505050;" d="M140.353,289.429l-1.717,39.753l6.579,12.298c0,0,2.287-22.594,2.573-26.599c2.574-2.572,6.007-4.86,6.007-4.86l-8.009-11.44l0.572-8.579L140.353,289.429z"></path></g></g><g><g><path style="fill:#F0F0F0;stroke:#000000;stroke-linecap:round;stroke-linejoin:round;" d="M99.902,321.393c0,0-18.885,17.512-23.337,18.706c-4.456,1.194-15.168-0.269-18.796-2.711c15.635-14.695,65.854-62.301,65.854-62.301l6.581,7.407L99.902,321.393z"></path><path style="fill:#B2B2B2;" d="M104.034,301.188l-40.604,36.225c0,0,8.275,3.879,13.141,1.069c4.866-2.811,19.684-15.486,19.684-15.486L104.034,301.188z"></path></g><g><path style="fill:#6E6E6E;stroke:#000000;stroke-linecap:round;stroke-linejoin:round;" d="M134.483,286.126l-6.463,6.506l-1.464,14.688c0,0-7.801-1.513-9.309,0.209c-1.509,1.72-9.264,10.135-21.379,20.052c1.572-13.074,5.48-24.479,5.48-24.479l24.88-25.35L134.483,286.126z"></path><path style="fill:#505050;" d="M128.325,281.87l-27.492,28.766l-3.159,13.584c0,0,16.613-15.483,19.468-18.306c3.632-0.239,7.721,0.302,7.721,0.302l1.518-13.882l6.085-6.075L128.325,281.87z"></path></g></g><g><g><path style="fill:#F0F0F0;stroke:#000000;stroke-linecap:round;stroke-linejoin:round;" d="M79.11,276.184c0,0-25.752,0.317-29.855-1.785c-4.104-2.104-11.066-10.374-12.119-14.621c21.453-0.406,90.631-2.018,90.631-2.018l-0.09,9.909L79.11,276.184z"></path><path style="fill:#B2B2B2;" d="M95.731,263.974l-54.413-0.379c0,0,3.533,8.428,9.027,9.608c5.493,1.181,24.985,1.722,24.985,1.722L95.731,263.974z"></path></g><g><path style="fill:#6E6E6E;stroke:#000000;stroke-linecap:round;stroke-linejoin:round;" d="M128.414,273.232l-9.156,0.489l-10.941,9.909c0,0-4.77-6.355-7.042-6.091s-13.668,1.301-29.307,0.526c9.938-8.64,20.488-14.474,20.488-14.474l35.457-2.105L128.414,273.232z"></path><path style="fill:#505050;" d="M126.703,265.945l-39.685,2.887l-11.457,7.953c0,0,22.707-0.336,26.718-0.514c2.854,2.26,5.523,5.404,5.523,5.404l10.438-9.275l8.589-0.423L126.703,265.945z"></path></g></g><circle style="fill:#6E6E6E;stroke:#000000;stroke-linecap:round;stroke-linejoin:round;" cx="139.78" cy="271.411" r="21.45"></circle><circle style="fill:none;stroke:#000000;stroke-linecap:round;stroke-linejoin:round;" cx="139.781" cy="271.411" r="16.588"></circle><path style="fill:#505050;" d="M124.631,271.411c0,8.367,6.782,15.149,15.149,15.149s15.149-6.782,15.149-15.149s-6.782-15.149-15.149-15.149S124.631,263.044,124.631,271.411z M126.339,271.411c0-7.424,6.017-13.442,13.441-13.442c7.424,0,13.441,6.019,13.441,13.442s-6.018,13.441-13.441,13.441C132.355,284.853,126.339,278.835,126.339,271.411z"></path></g><g><path style="fill:#6E6E6E;stroke:#000000;stroke-linecap:round;stroke-linejoin:round;" d="M240.45,288.57c0,0,6.292,5.721,6.292,8.008c0,2.288-1.144,15.443-1.144,15.443l-9.152,0.572c0,0-4.004-6.864-5.72-8.008s-44.043,4.575-65.206-22.307c5.148-5.72,14.871-16.017,14.871-16.017s17.159,18.876,45.759,24.596C229.011,287.999,240.45,288.57,240.45,288.57z"></path><path style="fill:#505050;" d="M230.155,302.298c0,0-45.188,0.858-61.203-20.306c2.288-2.002,5.434-4.29,5.434-4.29s26.311,18.591,52.337,19.162C229.297,299.725,230.155,302.298,230.155,302.298z"></path><g><path style="fill:#6E6E6E;stroke:#000000;stroke-linecap:round;stroke-linejoin:round;" d="M172.098,276.845c0,0-2.001-16.302-4.861-23.165c-2.859-6.864-22.308-17.16-45.76-14.3c14.872-8.581,21.735-10.296,21.735-10.296s20.592-1.145,37.18,20.02c3.432,11.439,5.148,21.735,5.148,21.735"></path><path style="fill:#505050;" d="M178.391,250.819c0,0,5.147,18.304,4.289,22.308c-4.004,2.288-8.294,4.575-8.294,4.575s-1.144-17.444-4.575-24.594C174.958,251.105,178.391,250.819,178.391,250.819z"></path><path style="opacity:0.5;fill:#FFFFFF;" d="M175.816,247.102c0,0-6.293-0.286-7.437,3.146c-5.72-5.72-15.443-12.584-36.035-13.728c6.006-2.574,12.298-5.147,12.298-5.147S159.515,231.086,175.816,247.102z"></path></g></g><circle style="fill:#505050;stroke:#000000;stroke-width:2;stroke-linecap:round;stroke-linejoin:round;" cx="139.78" cy="271.411" r="7.578"></circle></g><g><g><g><g><path style="fill:#F0F0F0;stroke:#000000;stroke-linecap:round;stroke-linejoin:round;" d="M400.219,222.56c0,0,22.378-12.748,24.855-16.637c2.478-3.891,4.302-14.546,3.062-18.741c-18.713,10.496-79.211,44.087-79.211,44.087l5.088,8.503L400.219,222.56z"></path><path style="fill:#B2B2B2;" d="M379.705,220.43l46.753-27.841c0,0,1.213,9.059-2.93,12.854c-4.143,3.797-20.686,14.12-20.686,14.12L379.705,220.43z"></path></g><g><path style="fill:#6E6E6E;stroke:#000000;stroke-linecap:round;stroke-linejoin:round;" d="M356.19,244.944l8.146-4.207l14.452,3.017c0,0,0.899-7.896,2.995-8.816c2.093-0.921,12.449-5.79,25.55-14.364c-12.941-2.43-24.994-2.128-24.994-2.128l-31.655,16.11L356.19,244.944z"></path><path style="fill:#505050;" d="M353.981,237.793l35.696-17.577l13.906,1.069c0,0-19.759,11.191-23.31,13.065c-1.319,3.394-2.032,7.455-2.032,7.455l-13.695-2.724l-7.624,3.979L353.981,237.793z"></path></g></g><circle style="fill:#6E6E6E;stroke:#000000;stroke-linecap:round;stroke-linejoin:round;" cx="360.22" cy="271.411" r="35.463"></circle><path style="fill:#505050;" d="M373.947,250.533c0,0,6.007,3.718,7.723,10.297c6.577,2.002,10.296,0.285,10.296,0.285s-2.574-10.582-9.152-14.3C377.952,249.389,373.947,250.533,373.947,250.533z"></path><path style="fill:#505050;" d="M330.763,287.999c0,0,9.151,14.299,20.02,14.871c4.576-8.579,7.722-12.298,7.722-12.298s-18.876-5.147-20.592-24.023c-4.575,2.288-9.724,5.147-9.724,5.147S323.326,281.706,330.763,287.999z"></path><g><g><path style="fill:#F0F0F0;stroke:#000000;stroke-linecap:round;stroke-linejoin:round;" d="M354.975,337.886c0,0,2.658,25.616,5.222,29.45c2.563,3.833,11.583,9.794,15.922,10.35c-2.073-21.357-8.462-90.259-8.462-90.259l-9.831,1.233L354.975,337.886z"></path><path style="fill:#B2B2B2;" d="M365.185,319.966l6.659,54.006c0,0-8.779-2.536-10.587-7.858c-1.808-5.319-4.596-24.619-4.596-24.619L365.185,319.966z"></path></g><g><path style="fill:#F0F0F0;stroke:#000000;stroke-linecap:round;stroke-linejoin:round;" d="M313.745,303.103c0,0,10.308,23.602,13.912,26.477c3.605,2.876,14.01,5.817,18.313,5.029c-4.246-9.902-13.167-30.896-20.998-49.346c-4.488,2.807-9.025,5.546-13.731,8.056L313.745,303.103z"></path><path style="fill:#B2B2B2;" d="M316.447,306.029c0,0,8.515,17.543,11.851,22.064c3.337,4.521,12.472,4.273,12.472,4.273l-19.826-42.793c-0.94,0.569-7.075,4.401-8.025,4.958L316.447,306.029z"></path></g><g><path style="fill:#F0F0F0;stroke:#000000;stroke-linecap:round;stroke-linejoin:round;" d="M293.817,309.768c0,0,6.559,24.904,9.68,28.299c3.121,3.396,12.948,7.901,17.321,7.783c-2.673-10.436-8.264-32.552-13.167-51.986c-4.864,2.085-9.77,4.095-14.806,5.852L293.817,309.768z"></path><path style="fill:#B2B2B2;" d="M296.038,313.073c0,0,5.717,18.645,8.319,23.624s11.667,6.14,11.667,6.14l-13.015-45.331c-1.018,0.417-7.667,3.26-8.692,3.664L296.038,313.073z"></path></g><g><path style="fill:#F0F0F0;stroke:#000000;stroke-linecap:round;stroke-linejoin:round;" d="M273.37,312.598c0,0,4.198,25.408,6.987,29.081c2.789,3.672,12.151,9.079,16.517,9.371c-1.686-10.643-5.181-33.183-8.24-52.991c-5.04,1.619-10.111,3.161-15.289,4.438L273.37,312.598z"></path><path style="fill:#B2B2B2;" d="M275.271,316.097c0,0,3.946,19.097,6.07,24.299c2.125,5.201,11.042,7.205,11.042,7.205l-8.714-46.351c-1.053,0.32-7.939,2.529-8.998,2.835L275.271,316.097z"></path></g><g><path style="fill:#6E6E6E;stroke:#000000;stroke-linecap:round;stroke-linejoin:round;" d="M352.212,288.57l0.572,9.152l-8.58,12.011c0,0,6.864,4.004,6.864,6.293c0,2.287,0.286,13.728,2.859,29.171c7.437-10.868,12.012-22.021,12.012-22.021l-2.001-35.464L352.212,288.57z"></path><path style="fill:#505050;" d="M359.647,289.429l1.717,39.753l-6.578,12.298c0,0-2.288-22.594-2.574-26.599c-2.573-2.572-6.006-4.86-6.006-4.86l8.008-11.44l-0.572-8.579L359.647,289.429z"></path></g></g><g><g><path style="fill:#F0F0F0;stroke:#000000;stroke-linecap:round;stroke-linejoin:round;" d="M400.099,321.393c0,0,18.884,17.512,23.337,18.706c4.455,1.194,15.167-0.269,18.796-2.711c-15.635-14.695-65.854-62.301-65.854-62.301l-6.58,7.407L400.099,321.393z"></path><path style="fill:#B2B2B2;" d="M395.966,301.188l40.604,36.225c0,0-8.274,3.879-13.141,1.069c-4.866-2.811-19.683-15.486-19.683-15.486L395.966,301.188z"></path></g><g><path style="fill:#6E6E6E;stroke:#000000;stroke-linecap:round;stroke-linejoin:round;" d="M365.517,286.126l6.463,6.506l1.464,14.688c0,0,7.802-1.513,9.31,0.209c1.509,1.72,9.263,10.135,21.378,20.052c-1.571-13.074-5.48-24.479-5.48-24.479l-24.88-25.35L365.517,286.126z"></path><path style="fill:#505050;" d="M371.675,281.87l27.492,28.766l3.159,13.584c0,0-16.613-15.483-19.468-18.306c-3.631-0.239-7.721,0.302-7.721,0.302l-1.518-13.882l-6.085-6.075L371.675,281.87z"></path></g></g><g><g><path style="fill:#F0F0F0;stroke:#000000;stroke-linecap:round;stroke-linejoin:round;" d="M420.89,276.184c0,0,25.753,0.317,29.856-1.785c4.104-2.104,11.065-10.374,12.118-14.621c-21.452-0.406-90.631-2.018-90.631-2.018l0.09,9.909L420.89,276.184z"></path><path style="fill:#B2B2B2;" d="M404.269,263.974l54.414-0.379c0,0-3.534,8.428-9.028,9.608c-5.493,1.181-24.985,1.722-24.985,1.722L404.269,263.974z"></path></g><g><path style="fill:#6E6E6E;stroke:#000000;stroke-linecap:round;stroke-linejoin:round;" d="M371.586,273.232l9.156,0.489l10.941,9.909c0,0,4.77-6.355,7.042-6.091s13.668,1.301,29.307,0.526c-9.937-8.64-20.487-14.474-20.487-14.474l-35.458-2.105L371.586,273.232z"></path><path style="fill:#505050;" d="M373.297,265.945l39.685,2.887l11.457,7.953c0,0-22.707-0.336-26.718-0.514c-2.854,2.26-5.522,5.404-5.522,5.404L381.76,272.4l-8.589-0.423L373.297,265.945z"></path></g></g><circle style="fill:#6E6E6E;stroke:#000000;stroke-linecap:round;stroke-linejoin:round;" cx="360.22" cy="271.411" r="21.45"></circle><circle style="fill:none;stroke:#000000;stroke-linecap:round;stroke-linejoin:round;" cx="360.22" cy="271.411" r="16.588"></circle><path style="fill:#505050;" d="M360.22,256.262c-8.367,0-15.149,6.782-15.149,15.149s6.782,15.149,15.149,15.149s15.149-6.782,15.149-15.149S368.587,256.262,360.22,256.262z M360.22,284.853c-7.424,0-13.441-6.018-13.441-13.441s6.018-13.442,13.441-13.442c7.425,0,13.442,6.019,13.442,13.442S367.645,284.853,360.22,284.853z"></path></g><g><path style="fill:#6E6E6E;stroke:#000000;stroke-linecap:round;stroke-linejoin:round;" d="M259.55,288.57c0,0-6.292,5.721-6.292,8.008c0,2.288,1.144,15.443,1.144,15.443l9.152,0.572c0,0,4.004-6.864,5.721-8.008c1.715-1.144,44.042,4.575,65.206-22.307c-5.148-5.72-14.872-16.017-14.872-16.017s-17.158,18.876-45.759,24.596C270.989,287.999,259.55,288.57,259.55,288.57z"></path><path style="fill:#505050;" d="M269.846,302.298c0,0,45.187,0.858,61.202-20.306c-2.287-2.002-5.434-4.29-5.434-4.29s-26.311,18.591-52.337,19.162C270.703,299.725,269.846,302.298,269.846,302.298z"></path><g><path style="fill:#6E6E6E;stroke:#000000;stroke-linecap:round;stroke-linejoin:round;" d="M327.902,276.845c0,0,2.002-16.302,4.861-23.165c2.86-6.864,22.308-17.16,45.76-14.3c-14.872-8.581-21.735-10.296-21.735-10.296s-20.592-1.145-37.18,20.02c-3.432,11.439-5.147,21.735-5.147,21.735"></path><path style="fill:#505050;" d="M321.61,250.819c0,0-5.147,18.304-4.29,22.308c4.004,2.288,8.294,4.575,8.294,4.575s1.145-17.444,4.575-24.594C325.043,251.105,321.61,250.819,321.61,250.819z"></path><path style="opacity:0.5;fill:#FFFFFF;" d="M324.185,247.102c0,0,6.292-0.286,7.436,3.146c5.72-5.72,15.444-12.584,36.036-13.728c-6.007-2.574-12.298-5.147-12.298-5.147S340.486,231.086,324.185,247.102z"></path></g></g><circle style="fill:#505050;stroke:#000000;stroke-width:2;stroke-linecap:round;stroke-linejoin:round;" cx="360.22" cy="271.411" r="7.578"></circle></g></g></g></svg>