<svg xmlns="http://www.w3.org/2000/svg" width="500" height="500" version="1.1"><g id="x026" data-trait-type="Wings" data-trait-value="Metal Wings"><g><g><path style="fill:#6E6E6E;stroke:#E0E0E0;" d="M72.424,223.889c-1.33,0.094-47.043-9.779-47.389-8.349c6.05,9.874,30.827,32.474,67.241,36.917c39.222,0.029,59.705,6.07,59.705,6.07l-7.775-15.374L72.424,223.889z"></path><path style="fill:#6E6E6E;stroke:#E0E0E0;" d="M66.335,268.387c-1.272,0.424-47.833,2.222-47.855,3.699c8.022,8.104,37.007,23.919,73.352,19.155c39.76-3.261,59.329-8.993,59.329-8.993l-10.895-13.024L66.335,268.387z"></path><path style="fill:#6E6E6E;stroke:#E0E0E0;" d="M81.42,321.605c-1.037,0.872-43.801,20.021-43.309,21.41c10.298,4.549,42.814,8.425,75.028-9.657c35.916-17.962,52.158-30.652,52.158-30.652l-14.689-8.063L81.42,321.605z"></path><path style="fill:#6E6E6E;stroke:#E0E0E0;" d="M121.292,357.544c-0.704,1.185-35.006,34.075-34.109,35.217c11.125,0.754,42.973-6.797,67.669-35.034c28.224-29.398,39.558-47.022,39.558-47.022l-16.36-2.563L121.292,357.544z"></path><g><g><path style="fill:#F0F0F0;stroke:#000000;stroke-linecap:round;stroke-linejoin:round;" d="M184.342,312.993c0,0-42.416,40.084-45.993,41.536c-3.577,1.448-14.786,4.238-14.786,4.238l-2.844-3.787l43.544-55.316l21.01,5.688L184.342,312.993z"></path><path style="fill:#BEC8C8;" d="M178.762,314.667l-41,36.827l-14.184,4.971l51.337-52.537C174.915,303.928,184.342,300.176,178.762,314.667z"></path></g><polygon style="fill:#6E6E6E;stroke:#000000;stroke-linecap:round;stroke-linejoin:round;" points="184.264,308.395 176.401,318.076 169.253,317.932 160.728,326.688 178.352,328.284 191.367,315.464 "></polygon><g><path style="fill:#F0F0F0;stroke:#000000;stroke-linecap:round;stroke-linejoin:round;" d="M159.38,302.848c0,0-53.283,20.086-57.117,19.994c-3.835-0.092-15.247-2.001-15.247-2.001l-1.362-4.641l59.54-33.719l17.666,13.673L159.38,302.848z"></path><polygon style="fill:#BEC8C8;" points="159.326,301.51 101.65,320.576 89.129,317.94 152.6,293.615 "></polygon></g><polygon style="fill:#6E6E6E;stroke:#000000;stroke-linecap:round;stroke-linejoin:round;" points="163.417,295.863 152.584,302.047 145.971,299.324 134.855,304.405 150.71,312.267 167.479,305.022 "></polygon><g><path style="fill:#F0F0F0;stroke:#000000;stroke-linecap:round;stroke-linejoin:round;" d="M145.51,281.771c0,0-56.51-4.61-60.01-6.345c-3.501-1.734-13.322-8.394-13.322-8.394l0.45-4.823l67.287-5.145l11.262,20.092L145.51,281.771z"></path><polygon style="fill:#BEC8C8;" points="143.038,268.914 73.972,265.714 85.928,272.795 143.215,279.305 "></polygon></g><polygon style="fill:#6E6E6E;stroke:#000000;stroke-linecap:round;stroke-linejoin:round;" points="149.987,279.749 137.516,279.57 133.205,273.864 121.048,272.591 130.709,287.419 148.832,289.704 "></polygon><g><path style="fill:#F0F0F0;stroke:#000000;stroke-linecap:round;stroke-linejoin:round;" d="M141.764,257.821c0,0-65.496-22.717-68.501-25.33c-3.008-2.612-11.034-11.672-11.034-11.672l1.537-4.538l78.195,16.173l6.363,22.423L141.764,257.821z"></path><polygon style="fill:#BEC8C8;" points="143.045,245.838 65.541,221.379 73.677,230.494 140.566,254.384 "></polygon></g><polygon style="fill:#6E6E6E;stroke:#000000;stroke-linecap:round;stroke-linejoin:round;" points="145.911,254.584 133.607,252.534 130.201,246.245 118.374,243.161 125.698,259.271 143.274,264.252 "></polygon><g><g><path style="fill:#F0F0F0;stroke:#000000;stroke-linecap:round;stroke-linejoin:round;" d="M171.494,253.493c0.027-1.597-4.442-17.105-5.292-19.372c-0.85-2.268-45.282-33.14-69.687-41.604c3.095,9.382,5.89,19.074,5.89,19.074s27.785,18.494,28.095,17.545c0.313-0.952,3.582-1.807,3.582-1.807l9.641,7.03l0.772,6.748c0,0,7.261,7.915,10.78,9.629C163.22,253.229,171.494,253.493,171.494,253.493z"></path><path style="fill:#FFFFFF;" d="M154.943,241.318l-1.822-7.366l-50.058-29.238l-2.316-8.266c0,0,53.236,31.354,62.863,39.103c2.613,6.372,4.235,10.94,4.235,10.94L154.943,241.318z"></path></g><g><path style="fill:#BEC8C8;stroke:#000000;stroke-linecap:round;stroke-linejoin:round;" d="M197.297,314.068c-1.125-0.319-16.559-0.023-16.559-0.023l0.591-7.216c0,0-28.274-9.558-28.358-10.748c-0.084-1.189-3.971-9.286-3.971-9.286l17.968-11.242l32.472,16.834L197.297,314.068z"></path><path style="fill:#F0F0F0;stroke:#000000;stroke-linecap:round;stroke-linejoin:round;" d="M225.097,290.966c0,0-15.598-5.742-30.218-21.379c-1.346-1.252-8.139-0.617-15.491-0.494c-7.321-4.665-19.614-6.614-22.021-4.42c-3.422,3.121,7.546,18.203,7.546,18.203l17.348,16.312l5.379-7.16l9.211,5.328l-2.284,19.697c0,0,12.699,7.87,16.954,10.758C215.378,314.778,225.097,290.966,225.097,290.966z"></path><path style="fill:#BEC8C8;" d="M219.464,299.738c0,0-25.781-11.988-38.441-28.371c-9.518-4.507-25.12-6.591-25.12-6.591l10.052,17.228l16.136,14.804l4.339-6.288l12.56,5.888l-1.915,19.67l13.124,8.638L219.464,299.738z"></path><path style="fill:#FFFFFF;" d="M218.604,299.799c0,0-25.813-12.454-34.449-24.487c13.93,7.442,36.032,20.396,36.032,20.396L218.604,299.799z"></path><path style="fill:#6E6E6E;stroke:#000000;stroke-linecap:round;stroke-linejoin:round;" d="M193.612,262.102c0.225,3.175,1.267,7.485,1.267,7.485l-16.981,4.395l-5.692-4.676c0,0-8.131-3.577-13.148-1.563c2.674,6.588,5.855,15.134,5.855,15.134s-14.561,7.411-17.573,6.428c-4.478-11.243-7.068-21.824-7.068-21.824s1.776-16.473,2.283-19.697c4.618-2.321,17.658-5.239,17.658-5.239s5.407,3.604,8.505,5.776c1.493,0.293,7.661-0.942,11.632-2.021C185.84,251.093,191.999,258.658,193.612,262.102z"></path><path style="fill:#FFFFFF;" d="M179.203,265.829c-0.598-2.3-10.069-13.339-11.393-13.715c-1.323-0.374,7.524,16.865,7.524,16.865L179.203,265.829z"></path><path style="fill:#BEC8C8;" d="M191.838,268.209v-5.183l-12.635,2.803l-3.868,3.15c0,0,2.73,2.198,3.182,3.363C182.459,270.866,191.838,268.209,191.838,268.209z"></path></g></g></g></g><g><path style="fill:#6E6E6E;stroke:#E0E0E0;" d="M427.575,223.889c1.331,0.094,47.043-9.779,47.389-8.349c-6.049,9.874-30.827,32.474-67.242,36.917c-39.222,0.029-59.704,6.07-59.704,6.07l7.776-15.374L427.575,223.889z"></path><path style="fill:#6E6E6E;stroke:#E0E0E0;" d="M433.664,268.387c1.271,0.424,47.832,2.222,47.856,3.699c-8.025,8.104-37.007,23.919-73.352,19.155c-39.76-3.261-59.33-8.993-59.33-8.993l10.895-13.024L433.664,268.387z"></path><path style="fill:#6E6E6E;stroke:#E0E0E0;" d="M418.58,321.605c1.035,0.872,43.8,20.021,43.308,21.41c-10.299,4.549-42.815,8.425-75.027-9.657c-35.917-17.962-52.159-30.652-52.159-30.652l14.69-8.063L418.58,321.605z"></path><path style="fill:#6E6E6E;stroke:#E0E0E0;" d="M378.707,357.544c0.704,1.185,35.006,34.075,34.108,35.217c-11.123,0.754-42.973-6.797-67.668-35.034c-28.225-29.398-39.557-47.022-39.557-47.022l16.359-2.563L378.707,357.544z"></path><g><g><path style="fill:#F0F0F0;stroke:#000000;stroke-linecap:round;stroke-linejoin:round;" d="M315.656,312.993c0,0,42.418,40.084,45.993,41.536c3.578,1.448,14.787,4.238,14.787,4.238l2.845-3.787l-43.546-55.315l-21.008,5.688L315.656,312.993z"></path><path style="fill:#BEC8C8;" d="M321.236,314.667l41.002,36.827l14.182,4.971l-51.336-52.537C325.084,303.928,315.656,300.176,321.236,314.667z"></path></g><polygon style="fill:#6E6E6E;stroke:#000000;stroke-linecap:round;stroke-linejoin:round;" points="315.734,308.395 323.597,318.076 330.746,317.932 339.271,326.688 321.647,328.284 308.631,315.464 "></polygon><g><path style="fill:#F0F0F0;stroke:#000000;stroke-linecap:round;stroke-linejoin:round;" d="M340.618,302.848c0,0,53.284,20.086,57.12,19.994c3.833-0.092,15.243-2.001,15.243-2.001l1.364-4.641l-59.539-33.719l-17.666,13.673L340.618,302.848z"></path><polygon style="fill:#BEC8C8;" points="340.672,301.51 398.349,320.576 410.869,317.94 347.398,293.615 "></polygon></g><polygon style="fill:#6E6E6E;stroke:#000000;stroke-linecap:round;stroke-linejoin:round;" points="336.582,295.863 347.415,302.047 354.027,299.325 365.144,304.405 349.289,312.267 332.519,305.022 "></polygon><g><path style="fill:#F0F0F0;stroke:#000000;stroke-linecap:round;stroke-linejoin:round;" d="M354.49,281.771c0,0,56.509-4.61,60.008-6.345c3.501-1.734,13.324-8.394,13.324-8.394l-0.451-4.823l-67.288-5.145l-11.261,20.092L354.49,281.771z"></path><polygon style="fill:#BEC8C8;" points="356.961,268.914 426.027,265.714 414.071,272.795 356.784,279.305 "></polygon></g><polygon style="fill:#6E6E6E;stroke:#000000;stroke-linecap:round;stroke-linejoin:round;" points="350.011,279.749 362.483,279.57 366.796,273.864 378.95,272.591 369.29,287.419 351.167,289.704 "></polygon><g><path style="fill:#F0F0F0;stroke:#000000;stroke-linecap:round;stroke-linejoin:round;" d="M358.234,257.821c0,0,65.498-22.717,68.501-25.33c3.008-2.612,11.037-11.672,11.037-11.672l-1.539-4.538l-78.196,16.173l-6.363,22.423L358.234,257.821z"></path><polygon style="fill:#BEC8C8;" points="356.954,245.838 434.457,221.379 426.322,230.494 359.433,254.384 "></polygon></g><polygon style="fill:#6E6E6E;stroke:#000000;stroke-linecap:round;stroke-linejoin:round;" points="354.088,254.584 366.391,252.534 369.799,246.245 381.624,243.161 374.301,259.271 356.724,264.252 "></polygon><g><g><path style="fill:#F0F0F0;stroke:#000000;stroke-linecap:round;stroke-linejoin:round;" d="M328.504,253.493c-0.027-1.597,4.442-17.105,5.292-19.372c0.849-2.268,45.283-33.14,69.688-41.604c-3.095,9.382-5.891,19.074-5.891,19.074s-27.785,18.494-28.097,17.545c-0.311-0.952-3.579-1.807-3.579-1.807l-9.641,7.03l-0.773,6.748c0,0-7.26,7.915-10.781,9.629C336.779,253.229,328.504,253.493,328.504,253.493z"></path><path style="fill:#FFFFFF;" d="M345.056,241.318l1.821-7.366l50.059-29.238l2.315-8.266c0,0-53.234,31.354-62.862,39.103c-2.613,6.372-4.234,10.94-4.234,10.94L345.056,241.318z"></path></g><g><path style="fill:#BEC8C8;stroke:#000000;stroke-linecap:round;stroke-linejoin:round;" d="M302.702,314.068c1.125-0.319,16.561-0.023,16.561-0.023l-0.593-7.216c0,0,28.274-9.558,28.358-10.748c0.084-1.189,3.97-9.286,3.97-9.286l-17.968-11.242l-32.472,16.834L302.702,314.068z"></path><path style="fill:#F0F0F0;stroke:#000000;stroke-linecap:round;stroke-linejoin:round;" d="M274.902,290.966c0,0,15.597-5.742,30.217-21.379c1.346-1.252,8.14-0.617,15.491-0.494c7.321-4.664,19.615-6.614,22.022-4.42c3.422,3.121-7.546,18.203-7.546,18.203l-17.349,16.312l-5.378-7.16l-9.211,5.328l2.284,19.697c0,0-12.699,7.87-16.954,10.758C284.62,314.778,274.902,290.966,274.902,290.966z"></path><path style="fill:#BEC8C8;" d="M280.535,299.738c0,0,25.78-11.988,38.441-28.371c9.517-4.507,25.119-6.591,25.119-6.591l-10.05,17.228l-16.137,14.804l-4.339-6.288l-12.56,5.888l1.915,19.67l-13.123,8.638L280.535,299.738z"></path><path style="fill:#FFFFFF;" d="M281.396,299.799c0,0,25.813-12.454,34.448-24.487c-13.929,7.442-36.031,20.396-36.031,20.396L281.396,299.799z"></path><path style="fill:#6E6E6E;stroke:#000000;stroke-linecap:round;stroke-linejoin:round;" d="M306.387,262.102c-0.225,3.175-1.268,7.485-1.268,7.485l16.984,4.395l5.69-4.676c0,0,8.13-3.577,13.148-1.563c-2.673,6.588-5.855,15.134-5.855,15.134s14.561,7.411,17.573,6.428c4.479-11.243,7.068-21.824,7.068-21.824s-1.776-16.473-2.283-19.697c-4.618-2.321-17.659-5.239-17.659-5.239s-5.406,3.604-8.504,5.776c-1.494,0.293-7.661-0.942-11.633-2.021C314.158,251.093,308.001,258.658,306.387,262.102z"></path><path style="fill:#FFFFFF;" d="M320.796,265.829c0.598-2.3,10.068-13.339,11.392-13.715c1.323-0.374-7.522,16.865-7.522,16.865L320.796,265.829z"></path><path style="fill:#BEC8C8;" d="M308.161,268.209v-5.183l12.635,2.803l3.869,3.15c0,0-2.731,2.198-3.182,3.363C317.54,270.866,308.161,268.209,308.161,268.209z"></path></g></g></g></g></g></g></svg>