<svg xmlns="http://www.w3.org/2000/svg" width="500" height="500" version="1.1"><g id="x029" data-trait-type="Wings" data-trait-value="Defence Wings"><g><g><path style="fill:#BBA68C;stroke:#000000;stroke-linecap:round;stroke-linejoin:round;" d="M156.434,300.744l23.643-15.764c4.503,0.563,30.398,2.814,30.398,2.814l-21.391,35.466L156.434,300.744z"></path><line style="fill:#99928E;stroke:#000000;stroke-linecap:round;stroke-linejoin:round;" x1="181.391" y1="219.119" x2="187.771" y2="263.027"></line><g><path style="fill:#99928E;stroke:#000000;stroke-linecap:round;stroke-linejoin:round;" d="M156.715,303.839l5.63-33.213c0,0,3.096-3.096,9.851-5.911c7.811-0.258,20.504,0.313,21.391,0.845c1.408,0.846,1.97,32.369,1.97,32.369l-12.666,10.413L156.715,303.839z"></path><polygon style="fill:#786C6A;" points="185.987,271.752 192.18,267.812 193.587,295.677 187.114,301.306 "></polygon><polygon style="fill:#CDC1B8;" points="163.751,271.188 172.759,266.405 192.18,266.967 185.987,271.752 "></polygon></g><polygon style="fill:#99928E;stroke:#000000;stroke-linecap:round;stroke-linejoin:round;" points="176.418,268.656 176.418,215.741 181.203,215.177 181.203,268.938 "></polygon><rect x="163.751" y="226.999" style="fill:#99928E;stroke:#000000;stroke-linecap:round;stroke-linejoin:round;" width="30.398" height="3.94"></rect><g><g><g><path style="fill:#6E6E6E;stroke:#000000;stroke-linecap:round;stroke-linejoin:round;" d="M180.077,360.694c0.845-1.407,30.961-35.465,30.961-37.434c-1.689-4.505-0.563-34.34-0.563-34.34l-35.182,55.448L180.077,360.694z"></path></g><g><path style="fill:#6E6E6E;stroke:#000000;stroke-linecap:round;stroke-linejoin:round;" d="M184.021,339.583l-0.564,13.511l-0.281,13.229c0,0-42.22,53.479-53.479,61.642c-12.666,8.725-38.282,23.361-38.282,23.361L184.021,339.583z"></path><path style="fill:#505050;" d="M120.128,432.303c0,0,5.911-1.408,11.258-6.475c9.289-9.007,50.101-58.39,50.101-58.39l0.282-11.258C181.769,356.181,145.743,406.126,120.128,432.303z"></path><line style="fill:none;stroke:#000000;stroke-linecap:round;stroke-linejoin:round;" x1="163.755" y1="371.107" x2="162.348" y2="389.965"></line><line style="fill:none;stroke:#000000;stroke-linecap:round;stroke-linejoin:round;" x1="144.053" y1="398.128" x2="144.054" y2="413.607"></line><line style="fill:none;stroke:#000000;stroke-linecap:round;stroke-linejoin:round;" x1="119.847" y1="426.556" x2="119.847" y2="433.03"></line></g><path style="fill:#BBA68C;stroke:#000000;stroke-linecap:round;stroke-linejoin:round;" d="M114.781,330.718c0,0,13.51-14.496,19.703-18.623c21.954,0,51.977,0,51.414,0c-0.563,0-27.958,47.847-27.958,47.847l-44.284,0.189L114.781,330.718z"></path><g><path style="fill:#99928E;stroke:#000000;stroke-linecap:round;stroke-linejoin:round;" d="M127.434,326.993c0,0-1.671-5.117-1.984-6.894c-0.314-1.775,7.079-22.375,7.811-23.733c0.731-1.356,8.356-3.551,10.862-3.968c2.507-0.418,35.408,0.018,36.871,0.539c0,0,1.462,1.358,1.88,3.238c0.417,1.88,2.505,16.504,2.297,21.83c-4.804,4.805-15.771,10.862-15.771,10.862L127.434,326.993z"></path><polygon style="fill:#7B7470;" points="127.142,320.022 128.631,325.271 172.215,327.458 172.292,321.662 "></polygon><path style="fill:#786C6A;" d="M173.312,299.181c0,0,6.58-4.152,6.815-3.996c0.235,0.157,0.784,0.705,0.784,0.705s3.211,22.875,3.211,23.188s-11.281,9.323-11.281,9.323S172.841,299.808,173.312,299.181z"></path><path style="fill:#CDC1B8;" d="M135.318,298.51c0,0,6.188-3.995,8.147-4.465c1.959-0.47,36.349,0.2,36.661,0.592c0.313,0.392-6.267,4.151-7.128,4.229C172.137,298.945,135.318,298.51,135.318,298.51z"></path><path style="fill:#57383D;" d="M153.731,299.622c0,0,1.985-3.655,2.821-4.073c0.835-0.417,6.998-0.73,7.52-0.104c0.522,0.626-1.88,3.76-1.88,4.177c0,0.418,0.208,16.085-0.522,16.399c-0.731,0.313-7.938,0.417-8.356-0.418C152.896,314.768,153,300.772,153.731,299.622z"></path><path style="fill:#57383D;" d="M142.242,299.832c0,0,3.968-3.656,3.447-4.074c-0.522-0.418-6.372,0.313-7.206,0.835c-0.836,0.522-3.552,3.134-4.178,4.387c-0.627,1.254-0.627,13.996,0.104,14.937c0.731,0.941,6.58,0.627,6.999,0.105C141.825,315.499,142.242,299.832,142.242,299.832z"></path><g><path style="fill:#7B7470;stroke:#000000;stroke-linecap:round;stroke-linejoin:round;" d="M131.922,304.821c0,0,1.302,1.223,0.596,2.889c-0.705,1.665-2.555,2.813-2.555,2.813s7.242,3.396,7.98,3.345c0.737-0.053,2.109-1.605,2.738-3.159c0.856-2.117-0.03-3.119-0.03-3.119s-7.479-3.789-8.003-3.801C132.122,303.775,131.922,304.821,131.922,304.821z"></path><path style="fill:#99928E;stroke:#000000;stroke-linecap:round;stroke-linejoin:round;" d="M135.036,303.592c0,0,2.82,2.819,1.566,5.013c-1.254,2.193-3.134,2.089-3.134,2.089l-34.676-14.309c0,0-1.671-1.775-0.105-4.282c1.32-2.114,4.178-0.94,4.178-0.94L135.036,303.592z"></path><ellipse style="fill:#57383D;" cx="101.141" cy="294.035" rx="1.201" ry="1.41"></ellipse></g><g><path style="fill:#7B7470;stroke:#000000;stroke-linecap:round;stroke-linejoin:round;" d="M152.289,303.333c0,0,1.303,1.223,0.597,2.888c-0.707,1.666-2.556,2.813-2.556,2.813s7.242,3.398,7.979,3.346c0.738-0.052,2.111-1.606,2.74-3.158c0.857-2.117-0.03-3.12-0.03-3.12s-7.478-3.789-8.003-3.801C152.49,302.286,152.289,303.333,152.289,303.333z"></path><path style="fill:#99928E;stroke:#000000;stroke-linecap:round;stroke-linejoin:round;" d="M153.314,302.339c0,0,2.82,2.818,1.567,5.013c-1.253,2.193-3.134,2.089-3.134,2.089l-34.676-14.309c0,0-1.672-1.775-0.104-4.282c1.32-2.113,4.177-0.94,4.177-0.94L153.314,302.339z"></path><ellipse style="fill:#57383D;" cx="119.42" cy="292.781" rx="1.201" ry="1.41"></ellipse></g></g><g><path style="fill:#BBA68C;stroke:#000000;stroke-linecap:round;stroke-linejoin:round;" d="M133.076,410.794c-9.007,10.414-43.345,39.969-43.345,39.969l-6.759-1.688l-2.814-7.601l1.129-10.133c0,0,7.037-34.901,13.228-49.256c4.786-7.6,11.258-19.703,11.258-19.703l50.945-7.037c0,0-0.563-12.946,0.282-18.576c0.845-5.628,33.213-32.368,33.213-32.368h5.348l0.563,11.259l3.097,2.253C199.22,317.912,142.083,400.38,133.076,410.794z"></path><g><line style="fill:none;stroke:#9D886E;stroke-linecap:round;stroke-linejoin:round;" x1="154.561" y1="356.564" x2="116.282" y2="416.047"></line><line style="fill:none;stroke:#9D886E;stroke-linecap:round;stroke-linejoin:round;" x1="142.928" y1="357.616" x2="89.825" y2="443.068"></line><line style="fill:none;stroke:#9D886E;stroke-linecap:round;stroke-linejoin:round;" x1="132.232" y1="355.89" x2="83.632" y2="441.005"></line><line style="fill:none;stroke:#9D886E;stroke-linecap:round;stroke-linejoin:round;" x1="124.35" y1="354.914" x2="86.354" y2="420.504"></line><line style="fill:none;stroke:#9D886E;stroke-linecap:round;stroke-linejoin:round;" x1="116.469" y1="353.938" x2="91.49" y2="398.762"></line></g></g><g><path style="fill:#99928E;stroke:#000000;stroke-linecap:round;stroke-linejoin:round;" d="M103.801,372.88c0,0-4.486-8.013-4.486-9.775s5.128-21.152,6.57-22.593c1.441-1.443,7.691-4.168,9.454-4.168c1.763,0,38.992-0.107,40.595,0.854c1.602,0.963,2.724,2.725,2.724,4.168c0,1.44,2.029,20.138,1.229,21.578c-0.802,1.443-5.609,10.416-5.609,10.416L103.801,372.88z"></path><path style="fill:#CDC1B8;" d="M107.648,341.633l38.938,1.12c0,0,6.25-3.364,6.41-3.524c-6.089-0.481-36.695-1.283-37.817-1.122C114.058,338.268,107.648,341.633,107.648,341.633z"></path><polygon style="fill:#7B7470;" points="101.238,363.647 104.923,371.34 153.155,371.66 146.425,363.647 "></polygon><path style="fill:#786C6A;" d="M154.439,339.709c0,0-6.41,2.563-7.212,4.326c-0.802,1.764-2.084,18.428-1.762,19.069c0.32,0.642,7.687,8.654,7.687,8.654l5.453-9.455c0,0-0.801-20.031-1.603-21.152C156.201,340.029,154.439,339.709,154.439,339.709z"></path><path style="fill:#57383D;" d="M129.014,342.379c0,0,2.777-3.099,3.311-3.419c0.535-0.319,7.691-0.213,8.119,0.429c0.428,0.641-2.885,3.524-2.885,3.524s-2.349,16.452-2.777,16.666c-0.427,0.214-7.05,0.32-7.691-0.427C126.449,358.403,128.479,343.341,129.014,342.379z"></path><path style="fill:#57383D;" d="M113.95,358.083c0,0,2.779-15.597,3.206-16.345c0.427-0.747,3.952-2.863,3.952-2.863c-1.497-0.32-6.409-0.534-7.265-0.106c-0.854,0.427-3.632,1.474-4.165,2.756c-0.536,1.281-3.419,14.103-3.206,15.598C106.686,358.618,113.95,358.083,113.95,358.083z"></path><g><path style="fill:#99928E;stroke:#000000;stroke-linecap:round;stroke-linejoin:round;" d="M110.371,346.92c0,0,2.404,0.961,2.564,3.364c0.16,2.404-1.283,3.206-1.283,3.206l-39.419,3.205c0,0-3.043-0.16-3.043-4.007c0-2.563,3.364-3.524,3.364-3.524L110.371,346.92z"></path><ellipse style="fill:#57383D;" cx="72.714" cy="353.061" rx="1.389" ry="1.817"></ellipse></g><g><path style="fill:#7B7470;stroke:#000000;stroke-linecap:round;stroke-linejoin:round;" d="M123.507,349.565c0,0,1.762,0.48,1.924,2.323c0.16,1.843-0.962,3.766-0.962,3.766s8.173-0.4,8.813-0.801c0.64-0.4,1.137-2.464,0.961-4.166c-0.241-2.323-1.523-2.805-1.523-2.805s-8.572,0.159-9.053,0.4C123.187,348.523,123.507,349.565,123.507,349.565z"></path><path style="fill:#99928E;stroke:#000000;stroke-linecap:round;stroke-linejoin:round;" d="M125.996,348.522c0,0,2.402,0.961,2.563,3.364c0.16,2.404-1.282,3.205-1.282,3.205l-31.808,2.725c0,0-3.045-0.161-3.045-4.006c0-2.563,3.366-3.526,3.366-3.526L125.996,348.522z"></path><ellipse style="fill:#57383D;" cx="95.576" cy="354.131" rx="1.389" ry="1.814"></ellipse></g></g></g><path style="fill:#99928E;stroke:#000000;stroke-linecap:round;stroke-linejoin:round;" d="M80.349,441.474l1.497,7.179l9.289,2.111c0,0,30.964-27.023,41.097-38.844c6.646-7.754,49.709-61.768,67.293-86.916c7.152-6.53,20.745-21.181,21.648-23.7c-2.534-0.422-6.051-2.392-6.051-2.392l-1.453-13.726l-9.195,0.263c0,0-44.096,44.283-46.911,49.536c-2.815,5.255-1.689,23.831-1.689,23.831l6.568-0.187l-34.526,46.909L90.2,443.631L80.349,441.474z"></path><polygon style="fill:#7B7470;" points="82.55,443.304 83.113,447.527 90.854,449.215 90.431,445.133 "></polygon><path style="fill:#CDC1B8;" d="M198.094,323.822c0,0,17.45-16.044,20.546-21.392c-1.547-0.985-4.784-2.674-4.784-2.674L198.094,323.822z"></path><path style="fill:#CDC1B8;" d="M158.126,337.613c0,0,18.014-21.391,21.672-25.613c3.659-4.222,25.332-25.331,25.332-25.331h6.474l-28.427,27.864c0,0-20.547,23.644-20.547,28.146c0,3.108,0,14.354,0,14.354h-5.066L158.126,337.613z"></path></g></g><g><path style="fill:#BBA68C;stroke:#000000;stroke-linecap:round;stroke-linejoin:round;" d="M343.566,300.744l-23.643-15.764c-4.503,0.563-30.398,2.814-30.398,2.814l21.392,35.466L343.566,300.744z"></path><line style="fill:#99928E;stroke:#000000;stroke-linecap:round;stroke-linejoin:round;" x1="318.609" y1="219.119" x2="312.229" y2="263.027"></line><g><path style="fill:#99928E;stroke:#000000;stroke-linecap:round;stroke-linejoin:round;" d="M343.284,303.839l-5.629-33.213c0,0-3.096-3.096-9.851-5.911c-7.813-0.258-20.505,0.313-21.392,0.845c-1.406,0.846-1.971,32.369-1.971,32.369l12.666,10.413L343.284,303.839z"></path><polygon style="fill:#786C6A;" points="314.013,271.752 307.819,267.812 306.413,295.677 312.887,301.306 "></polygon><polygon style="fill:#CDC1B8;" points="336.248,271.188 327.241,266.405 307.819,266.967 314.013,271.752 "></polygon></g><polygon style="fill:#99928E;stroke:#000000;stroke-linecap:round;stroke-linejoin:round;" points="323.581,268.656 323.581,215.741 318.798,215.177 318.798,268.938 "></polygon><rect x="305.85" y="226.999" style="fill:#99928E;stroke:#000000;stroke-linecap:round;stroke-linejoin:round;" width="30.398" height="3.94"></rect><g><g><g><path style="fill:#6E6E6E;stroke:#000000;stroke-linecap:round;stroke-linejoin:round;" d="M319.924,360.694c-0.846-1.407-30.962-35.465-30.962-37.434c1.69-4.505,0.563-34.34,0.563-34.34l35.183,55.448L319.924,360.694z"></path></g><g><path style="fill:#6E6E6E;stroke:#000000;stroke-linecap:round;stroke-linejoin:round;" d="M315.979,339.583l0.563,13.511l0.281,13.229c0,0,42.221,53.479,53.479,61.642c12.667,8.725,38.282,23.361,38.282,23.361L315.979,339.583z"></path><path style="fill:#505050;" d="M379.871,432.303c0,0-5.91-1.408-11.259-6.475c-9.286-9.007-50.099-58.39-50.099-58.39l-0.282-11.258C318.231,356.181,354.258,406.126,379.871,432.303z"></path><line style="fill:none;stroke:#000000;stroke-linecap:round;stroke-linejoin:round;" x1="336.244" y1="371.107" x2="337.652" y2="389.965"></line><line style="fill:none;stroke:#000000;stroke-linecap:round;stroke-linejoin:round;" x1="355.947" y1="398.128" x2="355.947" y2="413.607"></line><line style="fill:none;stroke:#000000;stroke-linecap:round;stroke-linejoin:round;" x1="380.152" y1="426.556" x2="380.152" y2="433.03"></line></g><path style="fill:#BBA68C;stroke:#000000;stroke-linecap:round;stroke-linejoin:round;" d="M385.22,330.718c0,0-13.51-14.496-19.703-18.623c-21.955,0-51.978,0-51.414,0c0.563,0,27.958,47.847,27.958,47.847l44.285,0.189L385.22,330.718z"></path><g><path style="fill:#99928E;stroke:#000000;stroke-linecap:round;stroke-linejoin:round;" d="M372.566,326.993c0,0,1.671-5.117,1.985-6.894c0.313-1.775-7.08-22.375-7.812-23.733c-0.73-1.356-8.356-3.551-10.861-3.968c-2.508-0.418-35.409,0.018-36.871,0.539c0,0-1.463,1.358-1.881,3.238c-0.417,1.88-2.506,16.504-2.297,21.83c4.805,4.805,15.771,10.862,15.771,10.862L372.566,326.993z"></path><polygon style="fill:#7B7470;" points="372.857,320.022 371.369,325.271 327.785,327.458 327.707,321.662 "></polygon><path style="fill:#786C6A;" d="M326.689,299.181c0,0-6.581-4.152-6.815-3.996c-0.235,0.157-0.784,0.705-0.784,0.705s-3.211,22.875-3.211,23.188s11.278,9.323,11.278,9.323S327.157,299.808,326.689,299.181z"></path><path style="fill:#CDC1B8;" d="M364.682,298.51c0,0-6.188-3.995-8.146-4.465c-1.96-0.47-36.349,0.2-36.661,0.592s6.267,4.151,7.128,4.229C327.863,298.945,364.682,298.51,364.682,298.51z"></path><path style="fill:#57383D;" d="M346.268,299.622c0,0-1.983-3.655-2.819-4.073c-0.836-0.417-6.998-0.73-7.521-0.104c-0.521,0.626,1.881,3.76,1.881,4.177c0,0.418-0.208,16.085,0.521,16.399c0.733,0.313,7.938,0.417,8.356-0.418C347.104,314.768,347.001,300.772,346.268,299.622z"></path><path style="fill:#57383D;" d="M357.759,299.832c0,0-3.969-3.656-3.447-4.074c0.522-0.418,6.371,0.313,7.207,0.835c0.835,0.522,3.551,3.134,4.177,4.387c0.627,1.254,0.627,13.996-0.104,14.937c-0.731,0.941-6.58,0.627-6.999,0.105C358.177,315.499,357.759,299.832,357.759,299.832z"></path><g><path style="fill:#7B7470;stroke:#000000;stroke-linecap:round;stroke-linejoin:round;" d="M368.079,304.821c0,0-1.304,1.223-0.597,2.889c0.705,1.665,2.554,2.813,2.554,2.813s-7.241,3.396-7.979,3.345c-0.736-0.053-2.11-1.605-2.739-3.159c-0.854-2.117,0.032-3.119,0.032-3.119s7.478-3.789,8.003-3.801C367.878,303.775,368.079,304.821,368.079,304.821z"></path><path style="fill:#99928E;stroke:#000000;stroke-linecap:round;stroke-linejoin:round;" d="M364.966,303.592c0,0-2.82,2.819-1.567,5.013c1.254,2.193,3.134,2.089,3.134,2.089l34.677-14.309c0,0,1.671-1.775,0.104-4.282c-1.319-2.114-4.179-0.94-4.179-0.94L364.966,303.592z"></path><ellipse style="fill:#57383D;" cx="398.858" cy="294.035" rx="1.201" ry="1.41"></ellipse></g><g><path style="fill:#7B7470;stroke:#000000;stroke-linecap:round;stroke-linejoin:round;" d="M347.711,303.333c0,0-1.303,1.223-0.597,2.888c0.706,1.666,2.556,2.813,2.556,2.813s-7.242,3.398-7.979,3.346c-0.737-0.052-2.112-1.606-2.741-3.158c-0.856-2.117,0.031-3.12,0.031-3.12s7.479-3.789,8.004-3.801C347.51,302.286,347.711,303.333,347.711,303.333z"></path><path style="fill:#99928E;stroke:#000000;stroke-linecap:round;stroke-linejoin:round;" d="M346.686,302.339c0,0-2.82,2.818-1.565,5.013c1.253,2.193,3.133,2.089,3.133,2.089l34.676-14.309c0,0,1.673-1.775,0.105-4.282c-1.32-2.113-4.177-0.94-4.177-0.94L346.686,302.339z"></path><ellipse style="fill:#57383D;" cx="380.581" cy="292.781" rx="1.201" ry="1.41"></ellipse></g></g><g><path style="fill:#BBA68C;stroke:#000000;stroke-linecap:round;stroke-linejoin:round;" d="M366.924,410.794c9.008,10.414,43.346,39.969,43.346,39.969l6.76-1.688l2.813-7.601l-1.13-10.133c0,0-7.036-34.901-13.228-49.256c-4.786-7.6-11.259-19.703-11.259-19.703l-50.944-7.037c0,0,0.562-12.946-0.283-18.576c-0.843-5.628-33.213-32.368-33.213-32.368h-5.347l-0.563,11.259l-3.098,2.253C300.779,317.912,357.918,400.38,366.924,410.794z"></path><g><line style="fill:none;stroke:#9D886E;stroke-linecap:round;stroke-linejoin:round;" x1="345.438" y1="356.564" x2="383.718" y2="416.047"></line><line style="fill:none;stroke:#9D886E;stroke-linecap:round;stroke-linejoin:round;" x1="357.072" y1="357.616" x2="410.176" y2="443.068"></line><line style="fill:none;stroke:#9D886E;stroke-linecap:round;stroke-linejoin:round;" x1="367.769" y1="355.89" x2="416.367" y2="441.005"></line><line style="fill:none;stroke:#9D886E;stroke-linecap:round;stroke-linejoin:round;" x1="375.649" y1="354.914" x2="413.647" y2="420.504"></line><line style="fill:none;stroke:#9D886E;stroke-linecap:round;stroke-linejoin:round;" x1="383.531" y1="353.938" x2="408.511" y2="398.762"></line></g></g><g><path style="fill:#99928E;stroke:#000000;stroke-linecap:round;stroke-linejoin:round;" d="M396.198,372.88c0,0,4.487-8.013,4.487-9.775s-5.127-21.152-6.571-22.593c-1.442-1.443-7.69-4.168-9.454-4.168c-1.761,0-38.991-0.107-40.594,0.854c-1.603,0.963-2.724,2.725-2.724,4.168c0,1.44-2.03,20.138-1.229,21.578c0.803,1.443,5.608,10.416,5.608,10.416L396.198,372.88z"></path><path style="fill:#CDC1B8;" d="M392.353,341.633l-38.938,1.12c0,0-6.25-3.364-6.409-3.524c6.089-0.481,36.695-1.283,37.815-1.122C385.943,338.268,392.353,341.633,392.353,341.633z"></path><polygon style="fill:#7B7470;" points="398.763,363.647 395.076,371.34 346.844,371.66 353.575,363.647 "></polygon><path style="fill:#786C6A;" d="M345.562,339.709c0,0,6.41,2.563,7.211,4.326c0.803,1.764,2.084,18.428,1.764,19.069s-7.688,8.654-7.688,8.654l-5.452-9.455c0,0,0.801-20.031,1.602-21.152C343.8,340.029,345.562,339.709,345.562,339.709z"></path><path style="fill:#57383D;" d="M370.987,342.379c0,0-2.777-3.099-3.312-3.419c-0.533-0.319-7.691-0.213-8.118,0.429c-0.428,0.641,2.885,3.524,2.885,3.524s2.349,16.452,2.776,16.666c0.427,0.214,7.051,0.32,7.69-0.427C373.551,358.403,371.521,343.341,370.987,342.379z"></path><path style="fill:#57383D;" d="M386.051,358.083c0,0-2.778-15.597-3.206-16.345c-0.427-0.747-3.952-2.863-3.952-2.863c1.496-0.32,6.41-0.534,7.265-0.106c0.854,0.427,3.632,1.474,4.166,2.756c0.535,1.281,3.418,14.103,3.204,15.598C393.315,358.618,386.051,358.083,386.051,358.083z"></path><g><path style="fill:#99928E;stroke:#000000;stroke-linecap:round;stroke-linejoin:round;" d="M389.629,346.92c0,0-2.404,0.961-2.565,3.364c-0.158,2.404,1.283,3.206,1.283,3.206l39.419,3.205c0,0,3.044-0.16,3.044-4.007c0-2.563-3.363-3.524-3.363-3.524L389.629,346.92z"></path><path style="fill:#57383D;" d="M425.896,353.061c0,1.004,0.623,1.817,1.391,1.817c0.765,0,1.389-0.813,1.389-1.817c0-1.002-0.624-1.813-1.389-1.813C426.52,351.247,425.896,352.059,425.896,353.061z"></path></g><g><path style="fill:#7B7470;stroke:#000000;stroke-linecap:round;stroke-linejoin:round;" d="M376.494,349.565c0,0-1.764,0.48-1.924,2.323s0.961,3.766,0.961,3.766s-8.173-0.4-8.813-0.801c-0.642-0.4-1.139-2.464-0.963-4.166c0.242-2.323,1.522-2.805,1.522-2.805s8.573,0.159,9.054,0.4C376.814,348.523,376.494,349.565,376.494,349.565z"></path><path style="fill:#99928E;stroke:#000000;stroke-linecap:round;stroke-linejoin:round;" d="M374.005,348.522c0,0-2.402,0.961-2.563,3.364c-0.159,2.404,1.281,3.205,1.281,3.205l31.81,2.725c0,0,3.044-0.161,3.044-4.006c0-2.563-3.366-3.526-3.366-3.526L374.005,348.522z"></path><ellipse style="fill:#57383D;" cx="404.424" cy="354.131" rx="1.388" ry="1.814"></ellipse></g></g></g><path style="fill:#99928E;stroke:#000000;stroke-linecap:round;stroke-linejoin:round;" d="M419.651,441.474l-1.496,7.179l-9.29,2.111c0,0-30.964-27.023-41.097-38.844c-6.646-7.754-49.711-61.768-67.295-86.916c-7.152-6.53-20.744-21.181-21.647-23.7c2.533-0.422,6.052-2.392,6.052-2.392l1.454-13.726l9.194,0.263c0,0,44.096,44.283,46.909,49.536c2.816,5.255,1.69,23.831,1.69,23.831l-6.567-0.187l34.525,46.909l37.716,38.092L419.651,441.474z"></path><polygon style="fill:#7B7470;" points="417.451,443.304 416.887,447.527 409.147,449.215 409.569,445.133 "></polygon><path style="fill:#CDC1B8;" d="M301.905,323.822c0,0-17.449-16.044-20.546-21.392c1.548-0.985,4.784-2.674,4.784-2.674L301.905,323.822z"></path><path style="fill:#CDC1B8;" d="M341.874,337.613c0,0-18.014-21.391-21.673-25.613c-3.659-4.222-25.33-25.331-25.33-25.331h-6.476l28.428,27.864c0,0,20.548,23.644,20.548,28.146c0,3.108,0,14.354,0,14.354h5.064L341.874,337.613z"></path></g></g></g></g></svg>