<svg xmlns="http://www.w3.org/2000/svg" width="500" height="500" version="1.1"><g id="x003" data-trait-type="Wings" data-trait-value="Junior Adult Black Feather"><g><g><path style="fill:#6E6E6E;stroke:#000000;stroke-linecap:round;stroke-linejoin:round;" d="M138.868,220.003c1.165-4.445,13.01-30.222,17.095-36.53c4.299-6.639,3.441-12.17-12.895-11.064c-16.339,1.107-86.249,43.135-89.426,69.702c-0.86,7.191,25.795-13.277,25.795-13.277S62.67,278.067,76,284.152c3.44,1.571,6.017-6.373,9.393-13.396c-1.159,23.104-1.794,66.437,9.523,69.267c9.321,2.332,13.962-23.821,16.182-45c1.152,15.85,4.188,41.801,12.192,67.128c14.512,45.912,42.205,90.827,48.151,89.063c5.588-1.659-17.197-45.153-28.375-89.063c-6.123-24.051-8.763-48.223-9.968-65.308l8.249-13.798c0,0-6.019,22.681,0,26c6.018,3.319,10.478-5.352,10.478-5.352s-6.178,35.776,3.279,36.329c9.459,0.554,12.038-25.446,12.038-25.446s12.039,30.979,18.058,25.446c6.018-5.531,12.896-37.063,12.896-37.063s6.019,0,6.879-10.511C205.253,289.042,149.81,262.892,138.868,220.003z"></path><path style="fill:#505050;" d="M132.508,312.933c-3.225-22.675-5.306-54.762-0.179-78.44c10.516-34.148,23.704-56.15,23.704-56.15s-5.69-0.571-13.686,6.287c-7.996,6.858-53.781,119.446,27.943,264.038C170.648,442.952,141.063,380.942,132.508,312.933z"></path><path style="fill:#505050;" d="M139.102,226.634c0,0,1.961,7.573,10.693,19.86c-1.226,13.362-1.141,22.722-1.141,22.722s5.241,9.14,7.906,7.997c2.665-1.144,4.131-4.125,4.131-4.125s21.767,12.841,36.869,16.269c7.995,1.144,6.238,12.002-0.357,12.002c-2.672,6.146-8.663,37.577-13.993,37.577c-5.33,0-15.592-29.004-15.592-29.004s-3.982,29.521-12.296,28.433c-8.315-1.087-2.14-40.292-2.14-40.292s-7.678,14.574-12.119,9.432c-4.441-5.145,1.066-27.005,0.178-25.291c-0.889,1.714-4.294,10.002-9.624,11.717C131.617,285.93,128.442,235.779,139.102,226.634z"></path><path style="fill:#505050;" d="M86.882,281.215c0,0,7.496-12.573,10.16-20.004c1.778,0.572-1.777,6.287,1.778,6.287c3.553,0,6.218-5.144,6.218-5.144s-1.977,61.294-14.414,68.725c2.851,12.572,10.694,9.001,15.15-10.859c4.146-18.484,13.478-91.013,13.478-91.013s-14.485,30.017-17.459,27.01c-2.972-3.006-2.972-15.58-2.972-15.58l-10.869,27.576L86.882,281.215z"></path><path style="fill:#505050;" d="M56.939,241.495c1.248-0.286,39.215-23.146,44.545-29.433c-15.101,3.428-44.417,21.145-47.081,25.717C51.739,242.352,55.691,241.779,56.939,241.495z"></path><path style="fill:#505050;" d="M101.485,229.207c0,0-15.991,63.438-27.538,52.008c0.888-23.433,29.315-66.867,29.315-66.867L101.485,229.207z"></path><path style="fill:none;stroke:#000000;stroke-linecap:round;stroke-linejoin:round;" d="M138.5,220.634c-10.364,29.338-8.246,57.987-4.807,83.986"></path><path style="fill:#6E6E6E;stroke:#000000;stroke-linecap:round;stroke-linejoin:round;" d="M118.215,242.111c0,0-6.019,66.105-13.757,87.956"></path><path style="fill:#6E6E6E;stroke:#000000;stroke-linecap:round;stroke-linejoin:round;" d="M115.121,194.813c-0.859,1.106-24.505,37.617-13.328,61.403c3.396,7.227,22.356-44.255,22.356-44.255"></path><path style="fill:#505050;" d="M101.496,241.208c0,0,0,11.715,1.96,12.573c5.909-1.292,17.294-36.004,19.071-42.863C113.643,216.634,105.049,226.349,101.496,241.208z"></path><path style="fill:#6E6E6E;stroke:#000000;stroke-linecap:round;stroke-linejoin:round;" d="M66.195,237.998c0,0,23.215-15.489,30.524-22.127"></path><path style="fill:#6E6E6E;stroke:#000000;stroke-linecap:round;stroke-linejoin:round;" d="M79.064,280.833c0,0,11.607-14.936,18.057-42.595"></path><path style="fill:#6E6E6E;stroke:#000000;stroke-linecap:round;stroke-linejoin:round;" d="M167.141,282.217c0,0-11.178,30.701,2.581,36.233c7.381,2.968,16.337-23.234,16.337-23.234"></path><path style="fill:none;stroke:#000000;stroke-linecap:round;stroke-linejoin:round;" d="M138.767,255.664c0,0-1.721,20.19,4.298,20.467c6.019,0.276,5.589-6.914,5.589-6.914s4.729,11.063,7.738,9.68c3.01-1.383,4.299-5.808,4.299-5.808s5.346,8.126,42.063,17.651"></path><path style="fill:#6E6E6E;stroke:#000000;stroke-linecap:round;stroke-linejoin:round;" d="M147.678,308.266c0,0,5.36-3.885,8.371-21.588"></path></g><g><path style="fill:#6E6E6E;stroke:#000000;stroke-linecap:round;stroke-linejoin:round;" d="M295.025,292.45c0.861,10.511,6.881,10.511,6.881,10.511s6.877,31.531,12.896,37.063c6.018,5.532,18.057-25.446,18.057-25.446s2.578,26,12.037,25.446c9.458-0.553,3.279-36.329,3.279-36.329s4.46,8.671,10.478,5.352c6.019-3.319,0-26,0-26l8.248,13.798c-1.205,17.085-3.845,41.257-9.968,65.308c-11.177,43.909-33.964,87.403-28.374,89.063c5.943,1.765,33.64-43.15,48.149-89.063c8.005-25.327,11.042-51.278,12.192-67.128c2.221,21.179,6.863,47.332,16.183,45c11.318-2.83,10.684-46.162,9.523-69.267c3.375,7.022,5.953,14.967,9.394,13.396c13.329-6.085-3.438-55.319-3.438-55.319s26.655,20.469,25.795,13.277c-3.176-26.567-73.086-68.595-89.424-69.702c-16.336-1.106-17.196,4.426-12.897,11.064c4.086,6.309,15.932,32.085,17.096,36.53C350.19,262.892,294.746,289.042,295.025,292.45z"></path><path style="fill:#505050;" d="M367.492,312.933c3.224-22.675,5.306-54.762,0.178-78.44c-10.515-34.148-23.704-56.15-23.704-56.15s5.69-0.571,13.687,6.287c7.996,6.858,53.781,119.446-27.945,264.038C329.352,442.952,358.938,380.942,367.492,312.933z"></path><path style="fill:#505050;" d="M360.897,226.634c0,0-1.96,7.573-10.693,19.86c1.226,13.362,1.142,22.722,1.142,22.722s-5.243,9.14-7.906,7.997c-2.665-1.144-4.132-4.125-4.132-4.125s-21.767,12.841-36.868,16.269c-7.995,1.144-6.238,12.002,0.355,12.002c2.674,6.146,8.664,37.577,13.996,37.577c5.328,0,15.591-29.004,15.591-29.004s3.983,29.521,12.297,28.433c8.313-1.087,2.139-40.292,2.139-40.292s7.679,14.574,12.12,9.432c4.441-5.145-1.067-27.005-0.18-25.291c0.889,1.714,4.296,10.002,9.625,11.717C368.383,285.93,371.558,235.779,360.897,226.634z"></path><path style="fill:#505050;" d="M413.118,281.215c0,0-7.496-12.573-10.161-20.004c-1.778,0.572,1.776,6.287-1.778,6.287c-3.554,0-6.217-5.144-6.217-5.144s1.977,61.294,14.412,68.725c-2.851,12.572-10.692,9.001-15.147-10.859c-4.146-18.484-13.479-91.013-13.479-91.013s14.484,30.017,17.458,27.01c2.973-3.006,2.973-15.58,2.973-15.58l10.871,27.576L413.118,281.215z"></path><path style="fill:#505050;" d="M443.06,241.495c-1.246-0.286-39.215-23.146-44.547-29.433c15.104,3.428,44.419,21.145,47.083,25.717C448.261,242.352,444.308,241.779,443.06,241.495z"></path><path style="fill:#505050;" d="M398.513,229.207c0,0,15.992,63.438,27.541,52.008c-0.888-23.433-29.315-66.867-29.315-66.867L398.513,229.207z"></path><path style="fill:none;stroke:#000000;stroke-linecap:round;stroke-linejoin:round;" d="M361.5,220.634c10.363,29.338,8.245,57.987,4.807,83.986"></path><path style="fill:#6E6E6E;stroke:#000000;stroke-linecap:round;stroke-linejoin:round;" d="M381.785,242.111c0,0,6.018,66.105,13.755,87.956"></path><path style="fill:#6E6E6E;stroke:#000000;stroke-linecap:round;stroke-linejoin:round;" d="M384.878,194.813c0.86,1.106,24.508,37.617,13.328,61.403c-3.396,7.227-22.354-44.255-22.354-44.255"></path><path style="fill:#505050;" d="M398.503,241.208c0,0,0,11.715-1.961,12.573c-5.908-1.292-17.292-36.004-19.07-42.863C386.355,216.634,394.95,226.349,398.503,241.208z"></path><path style="fill:#6E6E6E;stroke:#000000;stroke-linecap:round;stroke-linejoin:round;" d="M433.804,237.998c0,0-23.216-15.489-30.525-22.127"></path><path style="fill:#6E6E6E;stroke:#000000;stroke-linecap:round;stroke-linejoin:round;" d="M420.937,280.833c0,0-11.608-14.936-18.058-42.595"></path><path style="fill:#6E6E6E;stroke:#000000;stroke-linecap:round;stroke-linejoin:round;" d="M332.859,282.217c0,0,11.177,30.701-2.581,36.233c-7.382,2.968-16.337-23.234-16.337-23.234"></path><path style="fill:none;stroke:#000000;stroke-linecap:round;stroke-linejoin:round;" d="M361.233,255.664c0,0,1.722,20.19-4.3,20.467c-6.019,0.276-5.588-6.914-5.588-6.914s-4.73,11.063-7.74,9.68c-3.008-1.383-4.298-5.808-4.298-5.808s-5.346,8.126-42.063,17.651"></path><path style="fill:#6E6E6E;stroke:#000000;stroke-linecap:round;stroke-linejoin:round;" d="M352.321,308.266c0,0-5.36-3.885-8.371-21.588"></path></g></g></g></svg>