<svg xmlns="http://www.w3.org/2000/svg" width="500" height="500" version="1.1"><g id="x030" data-trait-type="Wings" data-trait-value="Defence Wings"><g><g><path style="fill:#666666;stroke:#000000;stroke-linecap:round;stroke-linejoin:round;" d="M124.18,369.684l5.713,6.384l17.812,0.169c0,0,17.308-4.369,28.566-12.436c12.351-10.082,20.417-23.945,20.417-23.945l-7.31-9.829L124.18,369.684z"></path><path style="fill:#6E6E6E;stroke:#000000;stroke-linecap:round;stroke-linejoin:round;" d="M96.642,363.473l8.177,9.139l25.493,0.241c0,0,24.771-6.253,40.884-17.797c17.676-14.43,29.22-34.271,29.22-34.271l-10.461-14.069L96.642,363.473z"></path><path style="fill:#505050;" d="M125.741,362.752l33.43-16.595c0,0,1.683,4.811,6.733,10.101c-8.657,7.456-35.593,14.431-35.593,14.431L125.741,362.752z"></path><g><g><polygon style="fill:#99928E;stroke:#000000;stroke-linecap:round;stroke-linejoin:round;" points="113.783,306.46 110.112,301.055 119.658,286.393 132.151,275.041 176.793,254.93 200.198,255.322 207.101,265.385 195.797,277.045 177.977,284.464 142.184,285.285 "></polygon><polygon style="fill:#CDC1B8;" points="177.068,257.118 161.031,269.875 158.342,270.442 170.982,259.342 "></polygon><g><polygon style="fill:#786C6A;stroke:#000000;stroke-linecap:round;stroke-linejoin:round;" points="114.3,309.348 110.301,301.95 120.537,287.893 178.11,264.485 188.817,267.281 194.388,276.36 182.658,286.004 "></polygon><line style="fill:none;stroke:#000000;stroke-linecap:round;stroke-linejoin:round;" x1="165.1" y1="270.513" x2="175.098" y2="284.136"></line><line style="fill:none;stroke:#000000;stroke-linecap:round;stroke-linejoin:round;" x1="125.081" y1="285.901" x2="130.44" y2="296.195"></line></g></g><g><polygon style="fill:#99928E;stroke:#000000;stroke-linecap:round;stroke-linejoin:round;" points="78.574,365.884 77.079,337.54 147.151,280.864 183.344,284.595 194.155,277.252 210.509,296.134 163.638,344.254 125.548,365.229 "></polygon><polygon style="fill:#7B7470;" points="147.71,327.389 162.267,342.249 207.682,295.607 184.615,286.619 "></polygon><polygon style="fill:#786C6A;" points="78.604,338.996 81.324,364.271 125.169,363.436 124.623,334.703 100.466,339.62 "></polygon></g><g><polygon style="fill:#99928E;stroke:#000000;stroke-linecap:round;stroke-linejoin:round;" points="77.752,337.397 99.592,337.699 127.757,332.028 145.642,325.578 183.641,284.673 147.887,281.69 "></polygon><polygon style="fill:#7B7470;" points="100.744,334.506 148.688,283.488 180.344,286.352 144.159,324.768 125.766,329.919 "></polygon><polygon style="fill:#CDC1B8;" points="145.056,324.577 180.344,286.352 140.676,325.128 "></polygon></g><polygon style="fill:#7B7470;" points="189.722,266.246 198.982,257.545 204.865,265.436 195.733,276.076 "></polygon><path style="fill:#FFFFFF;stroke:#000000;stroke-linecap:round;stroke-linejoin:round;" d="M67.895,355.684c0,0,11.243-10.618,11.865-12.998c3.879-0.258,13.413,0.537,13.413,0.537l-2.761,17.069l-14.02,9.893L67.895,355.684z"></path><path style="fill:#CDC1B8;" d="M80.829,354.154l9.74-9.02l0.181,13.528l-6.132,3.427C84.617,362.09,85.158,357.941,80.829,354.154z"></path><g><g><path style="fill:#99928E;stroke:#000000;stroke-linecap:round;stroke-linejoin:round;" d="M71.968,353.638c0,0,4.358-1.02,8.265,3.066c3.905,4.086,1.68,7.671,1.191,9.29c-0.296,0.98-14.646,10.164-14.646,10.164s-8.31-6.35-8.24-7.782C61.211,363.991,71.968,353.638,71.968,353.638z"></path><path style="fill:#7B7470;" d="M67.542,366.6l10.22-9.139c0,0,4.089,2.044,2.044,7.937c-2.765,1.683-9.018,5.893-9.018,5.893S70.668,368.523,67.542,366.6z"></path></g><g><path style="fill:#99928E;stroke:#000000;stroke-linecap:round;stroke-linejoin:round;" d="M7.041,419.432l55.475-52.71c0,0,6.694,1.554,6.457,6.466c-7.08,6.43-57.256,51.395-57.256,51.395S7.358,425.603,7.041,419.432z"></path><circle style="fill:#57383D;" cx="11.025" cy="420.892" r="2.164"></circle></g></g><path style="fill:#FFFFFF;stroke:#000000;stroke-linecap:round;stroke-linejoin:round;" d="M91.291,355.597c1.262-5.411,9.503-9.114,10.123-11.493c5.38-1.137,14.932-2.032,14.932-2.032l-0.486,18.087l-11.104,6.048l-9.315-0.688C95.439,365.518,91.067,357.959,91.291,355.597z"></path><path style="fill:#CDC1B8;" d="M103.916,354.154l9.741-9.02l0.18,13.528l-6.133,3.427C107.704,362.09,108.246,357.941,103.916,354.154z"></path><g><g><path style="fill:#99928E;stroke:#000000;stroke-linecap:round;stroke-linejoin:round;" d="M95.815,353.848c0,0,4.407-0.778,8.081,3.518c3.674,4.298,1.253,7.754,0.676,9.342c-0.351,0.965-15.187,9.339-15.187,9.339s-7.945-6.8-7.797-8.227C84.5,363.589,95.815,353.848,95.815,353.848z"></path><path style="fill:#7B7470;" d="M91.471,366.119l9.379-8.538c0,0,4.089,2.045,2.045,7.938c-2.767,1.683-9.019,5.892-9.019,5.892S94.597,368.042,91.471,366.119z"></path></g><g><path style="fill:#99928E;stroke:#000000;stroke-linecap:round;stroke-linejoin:round;" d="M35.195,423.958c-2.087,0.561-6.041-1.642-4.436-5.184c1.604-3.54,54.893-52.387,54.893-52.387s7.273,1.375,5.543,6.141C79.747,384.275,37.282,423.397,35.195,423.958z"></path><circle style="fill:#57383D;" cx="35.014" cy="419.989" r="2.165"></circle></g></g></g></g><g><path style="fill:#666666;stroke:#000000;stroke-linecap:round;stroke-linejoin:round;" d="M375.82,369.684l-5.713,6.385l-17.813,0.168c0,0-17.308-4.369-28.566-12.436c-12.352-10.082-20.416-23.945-20.416-23.945l7.31-9.829L375.82,369.684z"></path><path style="fill:#6E6E6E;stroke:#000000;stroke-linecap:round;stroke-linejoin:round;" d="M403.357,363.473l-8.177,9.139l-25.492,0.241c0,0-24.772-6.253-40.885-17.797c-17.677-14.43-29.221-34.271-29.221-34.271l10.462-14.069L403.357,363.473z"></path><path style="fill:#505050;" d="M374.258,362.752l-33.429-16.595c0,0-1.685,4.811-6.734,10.102c8.658,7.455,35.594,14.43,35.594,14.43L374.258,362.752z"></path><g><g><polygon style="fill:#99928E;stroke:#000000;stroke-linecap:round;stroke-linejoin:round;" points="386.217,306.46 389.888,301.055 380.342,286.393 367.849,275.041 323.205,254.93 299.801,255.322 292.898,265.385 304.201,277.045 322.022,284.464 357.815,285.285 "></polygon><polygon style="fill:#CDC1B8;" points="322.932,257.118 338.968,269.875 341.658,270.442 329.018,259.342 "></polygon><g><polygon style="fill:#786C6A;stroke:#000000;stroke-linecap:round;stroke-linejoin:round;" points="385.699,309.348 389.698,301.95 379.463,287.893 321.889,264.485 311.183,267.281 305.611,276.36 317.341,286.004 "></polygon><line style="fill:none;stroke:#000000;stroke-linecap:round;stroke-linejoin:round;" x1="334.898" y1="270.513" x2="324.902" y2="284.136"></line><line style="fill:none;stroke:#000000;stroke-linecap:round;stroke-linejoin:round;" x1="374.919" y1="285.902" x2="369.559" y2="296.195"></line></g></g><g><polygon style="fill:#99928E;stroke:#000000;stroke-linecap:round;stroke-linejoin:round;" points="421.426,365.884 422.921,337.54 352.85,280.864 316.656,284.595 305.845,277.252 289.49,296.134 336.361,344.254 374.452,365.229 "></polygon><polygon style="fill:#7B7470;" points="352.29,327.389 337.732,342.249 292.317,295.607 315.386,286.619 "></polygon><polygon style="fill:#786C6A;" points="421.395,338.996 418.676,364.271 374.831,363.436 375.377,334.703 399.533,339.62 "></polygon></g><g><polygon style="fill:#99928E;stroke:#000000;stroke-linecap:round;stroke-linejoin:round;" points="422.247,337.397 400.407,337.699 372.242,332.028 354.358,325.578 316.359,284.673 352.112,281.69 "></polygon><polygon style="fill:#7B7470;" points="399.257,334.506 351.311,283.488 319.656,286.352 355.841,324.768 374.233,329.919 "></polygon><polygon style="fill:#CDC1B8;" points="354.944,324.577 319.656,286.352 359.323,325.128 "></polygon></g><polygon style="fill:#7B7470;" points="310.277,266.246 301.017,257.545 295.136,265.436 304.267,276.076 "></polygon><path style="fill:#FFFFFF;stroke:#000000;stroke-linecap:round;stroke-linejoin:round;" d="M432.104,355.684c0,0-11.243-10.618-11.863-12.998c-3.88-0.258-13.415,0.537-13.415,0.537l2.763,17.069l14.019,9.893L432.104,355.684z"></path><path style="fill:#CDC1B8;" d="M419.171,354.154l-9.74-9.02l-0.181,13.528l6.133,3.427C415.383,362.09,414.842,357.941,419.171,354.154z"></path><g><g><path style="fill:#99928E;stroke:#000000;stroke-linecap:round;stroke-linejoin:round;" d="M428.031,353.638c0,0-4.357-1.02-8.265,3.066c-3.903,4.086-1.679,7.671-1.19,9.29c0.295,0.98,14.646,10.165,14.646,10.165s8.311-6.351,8.24-7.783C438.788,363.991,428.031,353.638,428.031,353.638z"></path><path style="fill:#7B7470;" d="M432.458,366.6l-10.222-9.139c0,0-4.089,2.044-2.043,7.937c2.766,1.683,9.018,5.893,9.018,5.893S429.332,368.523,432.458,366.6z"></path></g><g><path style="fill:#99928E;stroke:#000000;stroke-linecap:round;stroke-linejoin:round;" d="M492.959,419.432l-55.475-52.71c0,0-6.695,1.554-6.458,6.466c7.08,6.43,57.258,51.395,57.258,51.395S492.641,425.603,492.959,419.432z"></path><circle style="fill:#57383D;" cx="488.975" cy="420.892" r="2.165"></circle></g></g><path style="fill:#FFFFFF;stroke:#000000;stroke-linecap:round;stroke-linejoin:round;" d="M408.709,355.597c-1.263-5.411-9.503-9.114-10.124-11.493c-5.379-1.137-14.931-2.032-14.931-2.032l0.487,18.087l11.103,6.048l9.316-0.688C404.561,365.518,408.932,357.959,408.709,355.597z"></path><path style="fill:#CDC1B8;" d="M396.083,354.154l-9.74-9.02l-0.181,13.528l6.133,3.427C392.295,362.09,391.754,357.941,396.083,354.154z"></path><g><g><path style="fill:#99928E;stroke:#000000;stroke-linecap:round;stroke-linejoin:round;" d="M404.185,353.848c0,0-4.407-0.778-8.08,3.518c-3.674,4.298-1.254,7.754-0.678,9.342c0.351,0.965,15.188,9.339,15.188,9.339s7.945-6.8,7.797-8.227C415.499,363.59,404.185,353.848,404.185,353.848z"></path><path style="fill:#7B7470;" d="M408.528,366.119l-9.379-8.538c0,0-4.089,2.045-2.044,7.938c2.766,1.683,9.019,5.892,9.019,5.892S405.402,368.042,408.528,366.119z"></path></g><g><path style="fill:#99928E;stroke:#000000;stroke-linecap:round;stroke-linejoin:round;" d="M464.805,423.958c2.088,0.561,6.041-1.642,4.437-5.184c-1.604-3.54-54.894-52.387-54.894-52.387s-7.273,1.375-5.542,6.141C420.252,384.275,462.717,423.397,464.805,423.958z"></path><circle style="fill:#57383D;" cx="464.985" cy="419.989" r="2.164"></circle></g></g></g></g></g></g></svg>