<svg xmlns="http://www.w3.org/2000/svg" width="500" height="500" version="1.1"><g id="x031" data-trait-type="Wings" data-trait-value="Defence Wings"><g><g><g><g><g><path style="fill:#6E6E6E;stroke:#000000;stroke-linecap:round;stroke-linejoin:round;" d="M90.969,220.745c0,0-8.962,5.085-11.763,8.716c-4.48,13.074-5.601,53.021-1.12,63.915c6.722,10.895,14.564,13.073,14.564,13.073L90.969,220.745z"></path></g><path style="fill:#505050;" d="M79.767,231.389c0,0,3.921-5.042,8.962-7.282c2.24,4.481,1.121,12.323,1.121,12.323L79.767,231.389z"></path></g><g><g><path style="fill:#99928E;stroke:#000000;stroke-linecap:round;stroke-linejoin:round;" d="M122.788,206.148c-18.011,3.727-33.538,12.422-33.538,12.422s-8.695,52.169-0.621,88.192c5.589,7.452,24.843,8.074,24.843,8.074l18.011-12.423v-90.055C131.483,212.359,124.651,206.148,122.788,206.148z"></path><path style="fill:#CDC1B8;" d="M89.871,249.002c0,0,4.348-15.526,11.8-28.569c-0.869,0,21.902-12.421,21.117-12.421c-5.383,0-32.296,12.421-32.296,12.421S87.386,242.171,89.871,249.002z"></path><path style="fill:#7B7470;" d="M112.229,312.352c0,0-8.074,0.621-13.042-2.484c6.832-8.695,12.422-18.011,12.422-18.011L112.229,312.352z"></path><polygon style="fill:#7B7470;" points="130.24,301.794 129.62,214.223 111.608,227.887 112.229,312.352 "></polygon></g><g><g><g><path style="fill:#FFFFFF;stroke:#000000;stroke-linecap:round;stroke-linejoin:round;" d="M104.776,239.065h-9.937c0,0-6.832,5.59-8.695,7.453c0,4.968,0,11.801,0,11.801h11.801c0,0,6.21-3.105,6.832-4.97C105.397,251.486,104.776,239.065,104.776,239.065z"></path><path style="fill:#CDC1B8;" d="M94.082,249.467l8.384-7.764l0.156,11.646l-5.28,2.949C97.341,256.298,97.807,252.727,94.082,249.467z"></path></g><g><g><path style="fill:#99928E;stroke:#000000;stroke-linecap:round;stroke-linejoin:round;" d="M90.935,244.383c0,0,3.822,0.489,5.743,4.959c1.92,4.471-0.952,6.693-1.833,7.851c-0.533,0.703-14.87,3.793-14.87,3.793s-4.792-7.621-4.305-8.755C79.145,249.498,90.935,244.383,90.935,244.383z"></path><path style="fill:#7B7470;" d="M83.466,253.506l10.993-4.297c0,0,2.683,2.879-0.738,7.017c-2.737,0.526-9.047,2.04-9.047,2.04S85.409,255.999,83.466,253.506z"></path></g><g><path style="fill:#99928E;stroke:#000000;stroke-linecap:round;stroke-linejoin:round;" d="M18.777,277.92l60.598-25.828c0,0,4.933,3.268,3.263,7.158C74.995,262.306,21,283.479,21,283.479S17.178,282.992,18.777,277.92z"></path><circle style="fill:#57383D;" cx="21.551" cy="280.294" r="1.863"></circle></g></g></g><g><g><path style="fill:#FFFFFF;stroke:#000000;stroke-linecap:round;stroke-linejoin:round;" d="M104.776,273.224h-9.937c0,0-6.832,5.59-8.695,7.454c0,4.968,0,11.8,0,11.8h11.801c0,0,6.21-3.105,6.832-4.97C105.397,285.646,104.776,273.224,104.776,273.224z"></path><path style="fill:#CDC1B8;" d="M94.082,283.625l8.384-7.763l0.156,11.645l-5.28,2.95C97.341,290.457,97.807,286.886,94.082,283.625z"></path></g><g><g><path style="fill:#99928E;stroke:#000000;stroke-linecap:round;stroke-linejoin:round;" d="M87.977,280.518c0,0,3.829-0.435,6.759,3.449c2.929,3.884,0.669,6.727,0.089,8.063c-0.351,0.809-13.539,7.225-13.539,7.225s-6.469-6.26-6.267-7.478C77.745,288.295,87.977,280.518,87.977,280.518z"></path><path style="fill:#7B7470;" d="M82.896,291.158l9.653-6.792c0,0,3.291,2.157,0.954,6.99c-2.534,1.163-8.3,4.137-8.3,4.137S85.377,293.115,82.896,291.158z"></path></g><g><path style="fill:#99928E;stroke:#000000;stroke-linecap:round;stroke-linejoin:round;" d="M25.885,330.279l52.702-39.52c0,0,5.568,1.997,4.874,6.174c-6.696,4.788-54.094,38.216-54.094,38.216S25.54,335.587,25.885,330.279z"></path><circle style="fill:#57383D;" cx="29.146" cy="331.924" r="1.863"></circle></g></g></g></g></g><g><g><path style="fill:#99928E;stroke:#000000;stroke-linecap:round;stroke-linejoin:round;" d="M135.844,205.564c-0.01-0.012-0.019-0.025-0.029-0.036c-1.396-1.622-9.773,0-11.313,0c-8.15,0-14.756,24.469-14.756,54.653c0,30.186,6.606,54.655,14.756,54.655c1.115,0,6.071,0.196,9.252-0.31c0.516,0.202,1.039,0.31,1.57,0.31c8.149,0,14.756-24.47,14.756-54.655C150.08,230.644,143.752,206.581,135.844,205.564z"></path><ellipse style="fill:#7B7470;" cx="135.323" cy="260.182" rx="13.401" ry="49.634"></ellipse></g><g><g><path style="fill:#BBA68C;stroke:#000000;stroke-linecap:round;stroke-linejoin:round;" d="M150.75,205.564c-0.01-0.012-0.019-0.025-0.029-0.036c-1.396-1.622-9.772,0-11.313,0c-8.15,0-14.756,24.469-14.756,54.653c0,30.186,6.606,54.655,14.756,54.655c1.114,0,6.07,0.196,9.251-0.31c0.517,0.202,1.04,0.31,1.571,0.31c8.149,0,14.756-24.47,14.756-54.655C164.985,230.644,158.658,206.581,150.75,205.564z"></path></g><line style="fill:none;stroke:#000000;stroke-linecap:round;stroke-linejoin:round;" x1="125.001" y1="252.9" x2="132.239" y2="252.9"></line><line style="fill:none;stroke:#000000;stroke-linecap:round;stroke-linejoin:round;" x1="125.001" y1="277.027" x2="132.239" y2="277.027"></line></g><g><path style="fill:#99928E;stroke:#000000;stroke-linecap:round;stroke-linejoin:round;" d="M159.48,205.564c-0.011-0.012-0.019-0.025-0.03-0.036c-1.396-1.622-9.773,0-11.313,0c-8.15,0-14.756,24.469-14.756,54.653c0,30.186,6.606,54.655,14.756,54.655c1.114,0,6.07,0.196,9.251-0.31c0.516,0.202,1.039,0.31,1.57,0.31c8.149,0,14.756-24.47,14.756-54.655C173.715,230.644,167.388,206.581,159.48,205.564z"></path><ellipse style="fill:#7B7470;" cx="158.958" cy="260.182" rx="13.401" ry="49.634"></ellipse><rect x="156.946" y="210.981" style="fill:#57383D;" width="6.833" height="100.128"></rect></g></g></g><g><path style="fill:#99928E;stroke:#000000;stroke-linecap:round;stroke-linejoin:round;" d="M171.697,249.935c0,0-14.985,4.934-15.372,5.899c0,6.211,0,8.695,0,8.695l6.21,4.969h20.495l51.549,51.549h16.459l-60.399-71.112H171.697z"></path><polygon style="fill:#CDC1B8;" points="158.344,256.3 170.61,251.486 188.621,251.486 192.968,256.145 "></polygon></g><circle style="fill:#99928E;stroke:#000000;stroke-linecap:round;stroke-linejoin:round;" cx="163.775" cy="261.345" r="5.687"></circle></g><g><g><g><g><path style="fill:#6E6E6E;stroke:#000000;stroke-linecap:round;stroke-linejoin:round;" d="M409.03,220.745c0,0,8.963,5.085,11.764,8.716c4.48,13.074,5.601,53.021,1.12,63.915c-6.722,10.895-14.564,13.073-14.564,13.073L409.03,220.745z"></path></g><path style="fill:#505050;" d="M420.233,231.389c0,0-3.921-5.042-8.963-7.282c-2.24,4.481-1.119,12.323-1.119,12.323L420.233,231.389z"></path></g><g><g><path style="fill:#99928E;stroke:#000000;stroke-linecap:round;stroke-linejoin:round;" d="M377.213,206.148c18.011,3.727,33.537,12.422,33.537,12.422s8.696,52.169,0.621,88.192c-5.589,7.452-24.843,8.074-24.843,8.074l-18.011-12.423v-90.055C368.518,212.359,375.349,206.148,377.213,206.148z"></path><path style="fill:#CDC1B8;" d="M410.13,249.002c0,0-4.348-15.526-11.801-28.569c0.869,0-21.902-12.421-21.116-12.421c5.383,0,32.296,12.421,32.296,12.421S412.614,242.171,410.13,249.002z"></path><path style="fill:#7B7470;" d="M387.771,312.352c0,0,8.073,0.621,13.042-2.484c-6.832-8.695-12.422-18.011-12.422-18.011L387.771,312.352z"></path><polygon style="fill:#7B7470;" points="369.76,301.794 370.381,214.223 388.392,227.887 387.771,312.352 "></polygon></g><g><g><g><path style="fill:#FFFFFF;stroke:#000000;stroke-linecap:round;stroke-linejoin:round;" d="M395.224,239.065h9.938c0,0,6.831,5.59,8.694,7.453c0,4.968,0,11.801,0,11.801h-11.8c0,0-6.211-3.105-6.832-4.97C394.604,251.486,395.224,239.065,395.224,239.065z"></path><path style="fill:#CDC1B8;" d="M405.919,249.467l-8.385-7.764l-0.155,11.646l5.279,2.949C402.658,256.298,402.192,252.727,405.919,249.467z"></path></g><g><g><path style="fill:#99928E;stroke:#000000;stroke-linecap:round;stroke-linejoin:round;" d="M409.064,244.383c0,0-3.821,0.489-5.743,4.959c-1.919,4.471,0.952,6.693,1.834,7.851c0.533,0.703,14.87,3.793,14.87,3.793s4.792-7.621,4.305-8.755C420.855,249.498,409.064,244.383,409.064,244.383z"></path><path style="fill:#7B7470;" d="M416.534,253.506l-10.993-4.297c0,0-2.683,2.879,0.739,7.017c2.736,0.526,9.046,2.04,9.046,2.04S414.591,255.999,416.534,253.506z"></path></g><g><path style="fill:#99928E;stroke:#000000;stroke-linecap:round;stroke-linejoin:round;" d="M481.223,277.92l-60.599-25.828c0,0-4.933,3.268-3.263,7.158c7.644,3.056,61.64,24.229,61.64,24.229S482.822,282.992,481.223,277.92z"></path><circle style="fill:#57383D;" cx="478.449" cy="280.294" r="1.863"></circle></g></g></g><g><g><path style="fill:#FFFFFF;stroke:#000000;stroke-linecap:round;stroke-linejoin:round;" d="M395.224,273.224h9.938c0,0,6.831,5.59,8.694,7.454c0,4.968,0,11.8,0,11.8h-11.8c0,0-6.211-3.105-6.832-4.97C394.604,285.646,395.224,273.224,395.224,273.224z"></path><path style="fill:#CDC1B8;" d="M405.919,283.625l-8.385-7.763l-0.155,11.645l5.279,2.95C402.658,290.457,402.192,286.886,405.919,283.625z"></path></g><g><g><path style="fill:#99928E;stroke:#000000;stroke-linecap:round;stroke-linejoin:round;" d="M412.023,280.518c0,0-3.829-0.435-6.76,3.449c-2.929,3.884-0.669,6.727-0.089,8.063c0.351,0.809,13.539,7.225,13.539,7.225s6.469-6.26,6.266-7.478C422.256,288.295,412.023,280.518,412.023,280.518z"></path><path style="fill:#7B7470;" d="M417.104,291.158l-9.652-6.792c0,0-3.29,2.157-0.954,6.99c2.533,1.163,8.3,4.137,8.3,4.137S414.623,293.115,417.104,291.158z"></path></g><g><path style="fill:#99928E;stroke:#000000;stroke-linecap:round;stroke-linejoin:round;" d="M474.114,330.279l-52.701-39.52c0,0-5.569,1.997-4.874,6.174c6.697,4.788,54.094,38.216,54.094,38.216S474.46,335.587,474.114,330.279z"></path><circle style="fill:#57383D;" cx="470.855" cy="331.924" r="1.863"></circle></g></g></g></g></g><g><g><path style="fill:#99928E;stroke:#000000;stroke-linecap:round;stroke-linejoin:round;" d="M364.156,205.564c0.011-0.012,0.019-0.025,0.028-0.036c1.396-1.622,9.773,0,11.313,0c8.15,0,14.757,24.469,14.757,54.653c0,30.186-6.606,54.655-14.757,54.655c-1.113,0-6.069,0.196-9.251-0.31c-0.517,0.202-1.039,0.31-1.57,0.31c-8.15,0-14.757-24.47-14.757-54.655C349.92,230.644,356.248,206.581,364.156,205.564z"></path><ellipse style="fill:#7B7470;" cx="364.677" cy="260.182" rx="13.401" ry="49.634"></ellipse></g><g><g><path style="fill:#BBA68C;stroke:#000000;stroke-linecap:round;stroke-linejoin:round;" d="M349.25,205.564c0.011-0.012,0.019-0.025,0.029-0.036c1.396-1.622,9.773,0,11.314,0c8.149,0,14.755,24.469,14.755,54.653c0,30.186-6.605,54.655-14.755,54.655c-1.115,0-6.071,0.196-9.253-0.31c-0.516,0.202-1.039,0.31-1.57,0.31c-8.148,0-14.757-24.47-14.757-54.655C335.014,230.644,341.342,206.581,349.25,205.564z"></path></g><line style="fill:none;stroke:#000000;stroke-linecap:round;stroke-linejoin:round;" x1="374.998" y1="252.9" x2="367.761" y2="252.9"></line><line style="fill:none;stroke:#000000;stroke-linecap:round;stroke-linejoin:round;" x1="374.998" y1="277.027" x2="367.761" y2="277.027"></line></g><g><path style="fill:#99928E;stroke:#000000;stroke-linecap:round;stroke-linejoin:round;" d="M340.52,205.564c0.011-0.012,0.02-0.025,0.03-0.036c1.396-1.622,9.772,0,11.313,0c8.15,0,14.757,24.469,14.757,54.653c0,30.186-6.606,54.655-14.757,54.655c-1.114,0-6.069,0.196-9.25-0.31c-0.517,0.202-1.04,0.31-1.571,0.31c-8.149,0-14.756-24.47-14.756-54.655C326.285,230.644,332.611,206.581,340.52,205.564z"></path><ellipse style="fill:#7B7470;" cx="341.042" cy="260.182" rx="13.401" ry="49.634"></ellipse><rect x="336.222" y="210.981" style="fill:#57383D;" width="6.832" height="100.128"></rect></g></g></g><g><path style="fill:#99928E;stroke:#000000;stroke-linecap:round;stroke-linejoin:round;" d="M328.303,249.935c0,0,14.985,4.934,15.372,5.899c0,6.211,0,8.695,0,8.695l-6.211,4.969H316.97l-51.55,51.549h-16.458l60.399-71.112H328.303z"></path><polygon style="fill:#CDC1B8;" points="341.656,256.3 329.39,251.486 311.379,251.486 307.031,256.145 "></polygon></g><circle style="fill:#99928E;stroke:#000000;stroke-linecap:round;stroke-linejoin:round;" cx="336.225" cy="261.345" r="5.687"></circle></g></g></g></svg>