<svg xmlns="http://www.w3.org/2000/svg" width="500" height="500" version="1.1"><g id="x033" data-trait-type="Wings" data-trait-value="Defence Wings"><g><g><polygon style="fill:#F0F0F0;stroke:#000000;stroke-linecap:round;stroke-linejoin:round;" points="332.049,430.241 329.733,437.188 302.333,427.926 290.756,420.208 292.686,414.419 305.034,420.208 "></polygon><g><polygon style="fill:#F0F0F0;stroke:#000000;stroke-linecap:round;stroke-linejoin:round;" points="349.415,304.819 348.257,290.54 355.976,292.47 358.677,307.906 "></polygon><path style="fill:#B2B2B2;stroke:#000000;stroke-linecap:round;stroke-linejoin:round;" d="M351.73,306.362c0,0-2.315-13.507-3.088-14.664c-0.771-1.158-20.453-6.175-20.453-6.175l-8.49,12.735L351.73,306.362z"></path><polygon style="fill:#F0F0F0;stroke:#000000;stroke-linecap:round;stroke-linejoin:round;" points="333.206,297.486 332.435,285.523 324.716,283.594 318.541,294.785 "></polygon></g><g><g><g><path style="fill:#F0F0F0;stroke:#000000;stroke-linecap:round;stroke-linejoin:round;" d="M374.113,444.906c0,0,13.121-6.946,11.577-28.943c-8.876-5.403-47.081-18.139-47.081-18.139l-6.947,28.172L374.113,444.906z"></path><path style="fill:#C8C8C8;" d="M370.447,440.854c0,0,10.998-6.946,9.455-25.277c-5.982-3.088-11.771-4.824-11.771-4.824l-7.911,26.242L370.447,440.854z"></path></g><g><path style="fill:#505050;" d="M288.664,406.824c0,0-12.959-5.912-8.714-18.262c4.654-13.538,16.98-6.946,16.98-6.946l72.78,30.378c0,0,8.923,7.087,4.177,17.554c-5.563,12.271-15.597,8.798-15.597,8.798L288.664,406.824z"></path><path style="fill:#6E6E6E;" d="M372.956,431.785c0,0,4.631-12.35-2.316-18.91c-12.734-6.561-28.943-13.121-28.943-13.121s-8.104-0.386-10.806,8.49s1.544,15.823,1.544,15.823l25.856,14.278C358.291,438.346,368.324,442.205,372.956,431.785z"></path><path style="opacity:0.5;fill:#FFFFFF;" d="M368.324,419.822c1.158,1.93,3.859,6.561,0.387,10.806c-3.474,4.245-9.263,2.315-9.263,2.315s-71.008-35.119-67.149-38.978C296.158,390.106,367.167,417.893,368.324,419.822z"></path><ellipse transform="matrix(-0.936 -0.3521 0.3521 -0.936 511.3612 918.3622)" style="fill:#FFFFFF;" cx="339.188" cy="412.683" rx="5.209" ry="2.894"></ellipse><path style="fill:none;stroke:#000000;stroke-linecap:round;stroke-linejoin:round;" d="M333.979,425.225c0,0-7.719-7.332-3.088-16.98c4.412-9.191,11.964-8.104,11.964-8.104"></path><path style="fill:none;stroke:#000000;stroke-linecap:round;stroke-linejoin:round;" d="M288.664,406.824c0,0-12.959-5.912-8.714-18.262c4.654-13.538,16.98-6.946,16.98-6.946l72.78,30.378c0,0,8.923,7.087,4.177,17.554c-5.563,12.271-15.597,8.798-15.597,8.798L288.664,406.824z"></path></g></g><g><g><path style="fill:#F0F0F0;stroke:#000000;stroke-linecap:round;stroke-linejoin:round;" d="M384.032,413.813c0,0,12.837-7.418,10.481-29.313c-9.058-5.063-47.656-16.355-47.656-16.355l-5.889,28.371L384.032,413.813z"></path><path style="fill:#C8C8C8;" d="M380.224,409.905c0,0,10.719-7.339,8.499-25.575c-6.084-2.859-11.925-4.377-11.925-4.377l-6.923,26.48L380.224,409.905z"></path></g><g><path style="fill:#505050;" d="M297.495,378.51c0,0-13.151-5.42-9.373-17.901c4.144-13.684,16.688-7.562,16.688-7.562l73.61,28.086c0,0,9.167,6.742,4.819,17.362c-5.098,12.452-15.239,9.358-15.239,9.358L297.495,378.51z"></path><path style="fill:#6E6E6E;" d="M382.391,400.763c0,0,4.165-12.495-3.011-18.784c-12.952-6.075-29.37-12.022-29.37-12.022s-8.102-0.085-10.469,8.873s2.127,15.732,2.127,15.732L368,407.854C368,407.854,378.155,411.332,382.391,400.763z"></path><path style="opacity:0.5;fill:#FFFFFF;" d="M377.326,388.995c1.228,1.883,4.095,6.405,0.786,10.77c-3.31,4.365-9.157,2.654-9.157,2.654s-72.018-32.882-68.309-36.876C304.354,361.549,376.1,387.113,377.326,388.995z"></path><ellipse transform="matrix(-0.9484 -0.3171 0.3171 -0.9484 556.578 856.4844)" style="fill:#FFFFFF;" cx="347.985" cy="382.951" rx="5.203" ry="2.89"></ellipse><path style="fill:none;stroke:#000000;stroke-linecap:round;stroke-linejoin:round;" d="M343.251,395.66c0,0-7.975-7.031-3.71-16.831c4.062-9.336,11.639-8.53,11.639-8.53"></path><path style="fill:none;stroke:#000000;stroke-linecap:round;stroke-linejoin:round;" d="M297.495,378.51c0,0-13.151-5.42-9.373-17.901c4.144-13.684,16.688-7.562,16.688-7.562l73.61,28.086c0,0,9.167,6.742,4.819,17.362c-5.098,12.452-15.239,9.358-15.239,9.358L297.495,378.51z"></path></g></g><g><g><path style="fill:#F0F0F0;stroke:#000000;stroke-linecap:round;stroke-linejoin:round;" d="M393.952,382.722c0,0,12.552-7.891,9.385-29.682c-9.239-4.724-48.232-14.575-48.232-14.575l-4.83,28.57L393.952,382.722z"></path><path style="fill:#C8C8C8;" d="M390,378.958c0,0,10.439-7.733,7.543-25.874c-6.186-2.631-12.079-3.933-12.079-3.933l-5.934,26.721L390,378.958z"></path></g><g><path style="fill:#505050;" d="M306.325,350.195c0,0-13.344-4.929-10.031-17.541c3.632-13.828,16.396-8.176,16.396-8.176l74.439,25.793c0,0,9.41,6.396,5.46,17.171c-4.63,12.634-14.881,9.918-14.881,9.918L306.325,350.195z"></path><path style="fill:#6E6E6E;" d="M391.827,369.74c0,0,3.696-12.641-3.708-18.66c-13.168-5.59-29.796-10.922-29.796-10.922s-8.1,0.216-10.132,9.256c-2.033,9.04,2.709,15.643,2.709,15.643l26.808,12.304C377.708,377.36,387.986,380.46,391.827,369.74z"></path><path style="opacity:0.5;fill:#FFFFFF;" d="M386.328,358.17c1.296,1.836,4.329,6.247,1.185,10.732c-3.144,4.484-9.052,2.992-9.052,2.992s-73.024-30.646-69.469-34.774C312.55,332.99,385.032,356.333,386.328,358.17z"></path><ellipse transform="matrix(-0.9595 -0.2816 0.2816 -0.9595 599.669 792.6088)" style="fill:#FFFFFF;" cx="356.783" cy="353.219" rx="5.202" ry="2.89"></ellipse><path style="fill:none;stroke:#000000;stroke-linecap:round;stroke-linejoin:round;" d="M352.524,366.095c0,0-8.229-6.729-4.333-16.681c3.712-9.481,11.313-8.957,11.313-8.957"></path><path style="fill:none;stroke:#000000;stroke-linecap:round;stroke-linejoin:round;" d="M306.325,350.195c0,0-13.344-4.929-10.031-17.541c3.632-13.828,16.396-8.176,16.396-8.176l74.439,25.793c0,0,9.41,6.396,5.46,17.171c-4.63,12.634-14.881,9.918-14.881,9.918L306.325,350.195z"></path></g></g><g><g><path style="fill:#F0F0F0;stroke:#000000;stroke-linecap:round;stroke-linejoin:round;" d="M403.871,351.629c0,0,10.664-5.054,6.685-26.742c-9.421-4.383-47.202-16.101-47.202-16.101l-3.772,28.769L403.871,351.629z"></path><path style="fill:#C8C8C8;" d="M399.777,348.009c0,0,10.157-8.126,6.586-26.171c-6.287-2.404-12.232-3.486-12.232-3.486l-4.946,26.959L399.777,348.009z"></path></g><g><path style="fill:#505050;" d="M315.156,321.88c0,0-13.535-4.435-10.69-17.18c3.121-13.973,16.104-8.791,16.104-8.791l75.269,23.501c0,0,9.654,6.051,6.102,16.98c-4.164,12.813-14.521,10.478-14.521,10.478L315.156,321.88z"></path><path style="fill:#6E6E6E;" d="M401.263,338.718c0,0,3.229-12.787-4.403-18.535c-13.386-5.104-30.224-9.823-30.224-9.823s-8.097,0.519-9.794,9.64c-1.698,9.121,3.292,15.552,3.292,15.552l27.284,11.317C387.418,346.868,397.817,349.588,401.263,338.718z"></path><path style="opacity:0.5;fill:#FFFFFF;" d="M395.33,327.343c1.364,1.79,4.564,6.091,1.585,10.696c-2.98,4.604-8.948,3.331-8.948,3.331s-74.033-28.409-70.628-32.673C320.746,304.433,393.965,325.555,395.33,327.343z"></path><ellipse transform="matrix(-0.9693 -0.2458 0.2458 -0.9693 640.4138 726.9208)" style="fill:#FFFFFF;" cx="365.58" cy="323.487" rx="5.21" ry="2.894"></ellipse><path style="fill:none;stroke:#000000;stroke-linecap:round;stroke-linejoin:round;" d="M361.797,336.53c0,0-8.486-6.429-4.955-16.531c3.362-9.626,10.987-9.384,10.987-9.384"></path><path style="fill:none;stroke:#000000;stroke-linecap:round;stroke-linejoin:round;" d="M315.156,321.88c0,0-13.535-4.435-10.69-17.18c3.121-13.973,16.104-8.791,16.104-8.791l75.269,23.501c0,0,9.654,6.051,6.102,16.98c-4.164,12.813-14.521,10.478-14.521,10.478L315.156,321.88z"></path></g></g></g><g><polygon style="fill:#B2B2B2;stroke:#000000;stroke-linecap:round;stroke-linejoin:round;" points="307.35,420.979 292.299,414.419 286.098,403.034 314.297,299.416 322.4,292.084 345.17,298.259 348.643,304.433 332.435,304.433 304.648,409.402 "></polygon><path style="fill:#F0F0F0;stroke:#000000;stroke-linecap:round;stroke-linejoin:round;" d="M305.807,420.208l12.734,5.017l0.924-3.356c-5.685-2.057-9.082-8.979-7.716-16.357c1.49-8.056,8.081-13.589,14.722-12.36c0.286,0.053,0.561,0.132,0.836,0.208l0.119-0.433c-5.762-1.997-9.22-8.972-7.844-16.406c1.491-8.056,8.082-13.589,14.723-12.36c0.331,0.061,0.65,0.149,0.969,0.241l0.114-0.416c-5.841-1.938-9.357-8.965-7.972-16.455c1.49-8.056,8.082-13.59,14.722-12.361c0.377,0.069,0.741,0.166,1.101,0.274l0.111-0.399c-5.919-1.876-9.497-8.959-8.1-16.505c1.49-8.056,10.227-14.562,16.866-13.333c0.421,0.078-15.437-4.245-15.437-4.245l-6.561,3.473l-26.628,103.426L305.807,420.208z"></path></g></g><g><path style="fill:#B2B2B2;stroke:#000000;stroke-linecap:round;stroke-linejoin:round;" d="M339.162,310.993l54.027,16.98c0,0,15.051-5.402,19.682,10.806c2.316-3.473,0.387-13.893-3.858-17.752c-15.437-6.175-59.817-17.752-59.817-17.752S343.793,302.89,339.162,310.993z"></path><path style="fill:none;stroke:#000000;stroke-linecap:round;stroke-linejoin:round;" d="M363.089,316.782c0,0,1.543-6.175,9.262-6.946"></path></g><g><polygon style="fill:#F0F0F0;stroke:#000000;stroke-linecap:round;stroke-linejoin:round;" points="167.951,430.241 170.267,437.188 197.667,427.926 209.244,420.208 207.314,414.419 194.965,420.208 "></polygon><g><polygon style="fill:#F0F0F0;stroke:#000000;stroke-linecap:round;stroke-linejoin:round;" points="150.585,304.819 151.743,290.54 144.024,292.47 141.323,307.906 "></polygon><path style="fill:#B2B2B2;stroke:#000000;stroke-linecap:round;stroke-linejoin:round;" d="M148.27,306.362c0,0,2.315-13.507,3.087-14.664c0.772-1.158,20.454-6.175,20.454-6.175l8.49,12.735L148.27,306.362z"></path><polygon style="fill:#F0F0F0;stroke:#000000;stroke-linecap:round;stroke-linejoin:round;" points="166.793,297.486 167.565,285.523 175.284,283.594 181.458,294.785 "></polygon></g><g><g><g><path style="fill:#F0F0F0;stroke:#000000;stroke-linecap:round;stroke-linejoin:round;" d="M125.887,444.906c0,0-13.122-6.946-11.578-28.943c8.876-5.403,47.082-18.139,47.082-18.139l6.947,28.172L125.887,444.906z"></path><path style="fill:#C8C8C8;" d="M129.553,440.854c0,0-10.999-6.946-9.455-25.277c5.982-3.088,11.771-4.824,11.771-4.824l7.911,26.242L129.553,440.854z"></path></g><g><path style="fill:#505050;" d="M211.336,406.824c0,0,12.959-5.912,8.714-18.262c-4.654-13.538-16.98-6.946-16.98-6.946l-72.78,30.378c0,0-8.923,7.087-4.177,17.554c5.563,12.271,15.597,8.798,15.597,8.798L211.336,406.824z"></path><path style="fill:#6E6E6E;" d="M127.044,431.785c0,0-4.631-12.35,2.315-18.91c12.735-6.561,28.944-13.121,28.944-13.121s8.104-0.386,10.805,8.49c2.702,8.876-1.543,15.823-1.543,15.823l-25.856,14.278C141.709,438.346,131.675,442.205,127.044,431.785z"></path><path style="opacity:0.5;fill:#FFFFFF;" d="M131.675,419.822c-1.158,1.93-3.859,6.561-0.386,10.806c3.473,4.245,9.262,2.315,9.262,2.315s71.008-35.119,67.15-38.978C203.842,390.106,132.833,417.893,131.675,419.822z"></path><ellipse transform="matrix(0.936 -0.352 0.352 0.936 -134.9891 83.0326)" style="fill:#FFFFFF;" cx="160.812" cy="412.683" rx="5.209" ry="2.894"></ellipse><path style="fill:none;stroke:#000000;stroke-linecap:round;stroke-linejoin:round;" d="M166.022,425.225c0,0,7.718-7.332,3.087-16.98c-4.412-9.191-11.963-8.104-11.963-8.104"></path><path style="fill:none;stroke:#000000;stroke-linecap:round;stroke-linejoin:round;" d="M211.336,406.824c0,0,12.959-5.912,8.714-18.262c-4.654-13.538-16.98-6.946-16.98-6.946l-72.78,30.378c0,0-8.923,7.087-4.177,17.554c5.563,12.271,15.597,8.798,15.597,8.798L211.336,406.824z"></path></g></g><g><g><path style="fill:#F0F0F0;stroke:#000000;stroke-linecap:round;stroke-linejoin:round;" d="M115.967,413.813c0,0-12.837-7.418-10.481-29.313c9.058-5.063,47.656-16.355,47.656-16.355l5.888,28.371L115.967,413.813z"></path><path style="fill:#C8C8C8;" d="M119.776,409.905c0,0-10.718-7.339-8.499-25.575c6.084-2.859,11.926-4.377,11.926-4.377l6.922,26.48L119.776,409.905z"></path></g><g><path style="fill:#505050;" d="M202.505,378.51c0,0,13.151-5.42,9.373-17.901c-4.144-13.684-16.688-7.562-16.688-7.562l-73.609,28.086c0,0-9.167,6.742-4.82,17.362c5.098,12.452,15.239,9.358,15.239,9.358L202.505,378.51z"></path><path style="fill:#6E6E6E;" d="M117.609,400.763c0,0-4.165-12.495,3.011-18.785c12.952-6.074,29.37-12.021,29.37-12.021s8.102-0.085,10.469,8.873s-2.127,15.732-2.127,15.732L132,407.854C132,407.854,121.844,411.332,117.609,400.763z"></path><path style="opacity:0.5;fill:#FFFFFF;" d="M122.673,388.995c-1.227,1.883-4.094,6.405-0.786,10.77c3.309,4.365,9.157,2.654,9.157,2.654s72.018-32.882,68.309-36.876C195.646,361.549,123.9,387.113,122.673,388.995z"></path><ellipse transform="matrix(0.9484 -0.3171 0.3171 0.9484 -113.5886 67.9672)" style="fill:#FFFFFF;" cx="152.015" cy="382.951" rx="5.203" ry="2.89"></ellipse><path style="fill:none;stroke:#000000;stroke-linecap:round;stroke-linejoin:round;" d="M156.749,395.66c0,0,7.975-7.031,3.71-16.831c-4.062-9.336-11.638-8.53-11.638-8.53"></path><path style="fill:none;stroke:#000000;stroke-linecap:round;stroke-linejoin:round;" d="M202.505,378.51c0,0,13.151-5.42,9.373-17.901c-4.144-13.684-16.688-7.562-16.688-7.562l-73.609,28.086c0,0-9.167,6.742-4.82,17.362c5.098,12.452,15.239,9.358,15.239,9.358L202.505,378.51z"></path></g></g><g><g><path style="fill:#F0F0F0;stroke:#000000;stroke-linecap:round;stroke-linejoin:round;" d="M106.048,382.722c0,0-12.552-7.891-9.385-29.682c9.239-4.724,48.232-14.575,48.232-14.575l4.83,28.57L106.048,382.722z"></path><path style="fill:#C8C8C8;" d="M110,378.958c0,0-10.439-7.733-7.543-25.874c6.186-2.631,12.08-3.933,12.08-3.933l5.933,26.721L110,378.958z"></path></g><g><path style="fill:#505050;" d="M193.674,350.195c0,0,13.344-4.929,10.032-17.541c-3.632-13.828-16.396-8.176-16.396-8.176l-74.439,25.793c0,0-9.411,6.396-5.46,17.171c4.63,12.634,14.881,9.918,14.881,9.918L193.674,350.195z"></path><path style="fill:#6E6E6E;" d="M108.173,369.74c0,0-3.696-12.641,3.708-18.66c13.168-5.59,29.795-10.922,29.795-10.922s8.1,0.216,10.132,9.256c2.033,9.04-2.709,15.643-2.709,15.643l-26.808,12.304C122.292,377.36,112.013,380.46,108.173,369.74z"></path><path style="opacity:0.5;fill:#FFFFFF;" d="M113.672,358.17c-1.297,1.836-4.33,6.247-1.185,10.732c3.144,4.484,9.052,2.992,9.052,2.992s73.025-30.646,69.469-34.774C187.45,332.99,114.968,356.333,113.672,358.17z"></path><ellipse transform="matrix(0.9595 -0.2816 0.2816 0.9595 -93.6572 54.6133)" style="fill:#FFFFFF;" cx="143.217" cy="353.219" rx="5.203" ry="2.89"></ellipse><path style="fill:none;stroke:#000000;stroke-linecap:round;stroke-linejoin:round;" d="M147.476,366.095c0,0,8.229-6.729,4.333-16.681c-3.712-9.481-11.313-8.957-11.313-8.957"></path><path style="fill:none;stroke:#000000;stroke-linecap:round;stroke-linejoin:round;" d="M193.674,350.195c0,0,13.344-4.929,10.032-17.541c-3.632-13.828-16.396-8.176-16.396-8.176l-74.439,25.793c0,0-9.411,6.396-5.46,17.171c4.63,12.634,14.881,9.918,14.881,9.918L193.674,350.195z"></path></g></g><g><g><path style="fill:#F0F0F0;stroke:#000000;stroke-linecap:round;stroke-linejoin:round;" d="M96.129,351.629c0,0-10.664-5.054-6.685-26.742c9.421-4.383,47.202-16.101,47.202-16.101l3.773,28.769L96.129,351.629z"></path><path style="fill:#C8C8C8;" d="M100.222,348.009c0,0-10.157-8.126-6.586-26.171c6.288-2.404,12.233-3.486,12.233-3.486l4.946,26.959L100.222,348.009z"></path></g><g><path style="fill:#505050;" d="M184.844,321.88c0,0,13.536-4.435,10.69-17.18c-3.121-13.973-16.103-8.791-16.103-8.791l-75.269,23.501c0,0-9.655,6.051-6.102,16.98c4.164,12.813,14.521,10.478,14.521,10.478L184.844,321.88z"></path><path style="fill:#6E6E6E;" d="M98.737,338.718c0,0-3.229-12.787,4.404-18.535c13.385-5.104,30.223-9.823,30.223-9.823s8.097,0.519,9.794,9.64c1.698,9.121-3.292,15.552-3.292,15.552l-27.284,11.317C112.582,346.868,102.182,349.588,98.737,338.718z"></path><path style="opacity:0.5;fill:#FFFFFF;" d="M104.67,327.343c-1.365,1.79-4.565,6.091-1.585,10.696c2.98,4.604,8.948,3.331,8.948,3.331s74.033-28.409,70.628-32.673C179.254,304.433,106.035,325.555,104.67,327.343z"></path><ellipse transform="matrix(0.9693 -0.2458 0.2458 0.9693 -75.3981 42.9715)" style="fill:#FFFFFF;" cx="134.42" cy="323.487" rx="5.21" ry="2.894"></ellipse><path style="fill:none;stroke:#000000;stroke-linecap:round;stroke-linejoin:round;" d="M138.204,336.53c0,0,8.485-6.429,4.955-16.531c-3.363-9.626-10.988-9.384-10.988-9.384"></path><path style="fill:none;stroke:#000000;stroke-linecap:round;stroke-linejoin:round;" d="M184.844,321.88c0,0,13.536-4.435,10.69-17.18c-3.121-13.973-16.103-8.791-16.103-8.791l-75.269,23.501c0,0-9.655,6.051-6.102,16.98c4.164,12.813,14.521,10.478,14.521,10.478L184.844,321.88z"></path></g></g></g><g><polygon style="fill:#B2B2B2;stroke:#000000;stroke-linecap:round;stroke-linejoin:round;" points="192.65,420.979 207.701,414.419 213.901,403.034 185.704,299.416 177.599,292.084 154.83,298.259 151.357,304.433 167.565,304.433 195.352,409.402 "></polygon><path style="fill:#F0F0F0;stroke:#000000;stroke-linecap:round;stroke-linejoin:round;" d="M194.194,420.208l-12.735,5.017l-0.923-3.356c5.685-2.057,9.082-8.979,7.716-16.357c-1.491-8.056-8.082-13.589-14.722-12.36c-0.286,0.053-0.56,0.132-0.836,0.208l-0.119-0.433c5.761-1.997,9.22-8.972,7.843-16.406c-1.491-8.056-8.082-13.589-14.722-12.36c-0.331,0.061-0.65,0.149-0.968,0.241l-0.115-0.416c5.841-1.938,9.358-8.965,7.972-16.455c-1.49-8.056-8.082-13.59-14.722-12.361c-0.376,0.069-0.741,0.166-1.101,0.274l-0.111-0.399c5.919-1.876,9.497-8.959,8.1-16.505c-1.491-8.056-10.227-14.562-16.866-13.333c-0.421,0.078,15.437-4.245,15.437-4.245l6.561,3.473l26.628,103.426L194.194,420.208z"></path></g></g><g><path style="fill:#B2B2B2;stroke:#000000;stroke-linecap:round;stroke-linejoin:round;" d="M160.838,310.993l-54.028,16.98c0,0-15.051-5.402-19.682,10.806c-2.315-3.473-0.386-13.893,3.859-17.752c15.437-6.175,59.817-17.752,59.817-17.752S156.208,302.89,160.838,310.993z"></path><path style="fill:none;stroke:#000000;stroke-linecap:round;stroke-linejoin:round;" d="M136.912,316.782c0,0-1.544-6.175-9.262-6.946"></path></g></g></g></svg>