<svg xmlns="http://www.w3.org/2000/svg" width="500" height="500" version="1.1"><g id="x034" data-trait-type="Wings" data-trait-value="Shield Wings"><g><g><g><path style="fill:#6E6E6E;stroke:#000000;stroke-linecap:round;stroke-linejoin:round;" d="M250,60.002c-89.574,0-162.188,72.614-162.188,162.188c0,56.833,29.238,106.829,73.486,135.792l17.773-41.054c-28.788-21.587-47.414-55.987-47.414-94.738c0-65.359,52.984-118.343,118.343-118.343s118.343,52.984,118.343,118.343c0,38.488-18.377,72.679-46.831,94.292l17.794,41.103c43.911-29.021,72.883-78.82,72.883-135.395C412.188,132.616,339.574,60.002,250,60.002z"></path><path style="opacity:0.5;fill:#FFFFFF;" d="M350.735,341.16c0,0,0.656-17.332-15.863-14.993c18.21-11.912,42.105-34.479,51.657-90.142c1.762,6.492,14.094,14.4,21.868,1.57C405.195,259.371,396.292,303.602,350.735,341.16z"></path><path style="fill:#505050;" d="M250,87.163c-75.003,0-135.804,60.802-135.804,135.804c0,45.856,20.421,85.477,55.227,110.066l6.854-15.47c-28.452-21.691-46.69-56.058-46.69-94.597c0-65.573,54.838-121.06,120.412-121.06c65.573,0,120.414,55.486,120.414,121.06c0,38.569-17.554,72.47-46.045,94.157l6.467,15.003c34.895-24.578,54.968-63.235,54.968-109.16C385.804,147.965,325.002,87.163,250,87.163z"></path><path style="opacity:0.5;fill:#FFFFFF;" d="M105.918,157.005c0,0,14.486-4.268,16.555,12.288c6.726-20.694,22.893-49.537,74.11-73.334c-6.725,0-16.166-10.865-5.82-21.729C170.587,83.024,130.233,103.202,105.918,157.005z"></path></g><path style="fill:none;stroke:#000000;stroke-linecap:round;stroke-linejoin:round;" d="M170.34,334.803c-34.48-24.913-56.92-65.463-56.92-111.254c0-75.752,61.41-137.162,137.162-137.162c75.753,0,137.162,61.409,137.162,137.162c0,45.969-22.613,86.655-57.323,111.544"></path></g></g></g></svg>