<svg xmlns="http://www.w3.org/2000/svg" width="500" height="500" version="1.1"><g id="x036" data-trait-type="Wings" data-trait-value="Shield Wings"><g><g><g><path style="fill:#6E6E6E;" d="M365.044,314.917l69.11,13.233l-53.921-43.033c2.723-7.462,4.824-15.224,6.238-23.223l21.905-6.706V230.16l-20.505-6.694c-1.085-10.698-3.393-21.034-6.771-30.871l53.054-42.342l-67.271,12.883c-7.067-11.065-15.662-21.06-25.489-29.687l26.735-68.26l-56.069,48.499c-8.955-4.492-18.461-8.048-28.395-10.527V36.696l-17.933-12.239v138.599l17.933-10.71v-11.791c40.196,13.938,69.061,52.126,69.061,97.069c0,47.317-31.998,87.154-75.534,99.073v-0.81l-12.697-34.437c29.168-6.595,50.947-32.667,50.947-63.827c0-36.145-29.298-65.444-65.441-65.444c-36.142,0-65.441,29.299-65.441,65.444c0,31.047,21.622,57.046,50.63,63.758l-12.721,34.506v0.716c-43.361-12.034-75.193-51.785-75.193-98.979c0-44.708,28.563-82.734,68.433-96.851v11.573l17.933,10.71V24.457l-17.933,12.239v66.626c-9.706,2.471-19.001,5.969-27.767,10.367L131.871,65.19l26.737,68.263c-9.826,8.625-18.421,18.618-25.489,29.683l-67.273-12.883l53.054,42.342c-3.378,9.837-5.685,20.173-6.771,30.87l-20.504,6.695v25.028l21.904,6.706c1.414,7.999,3.516,15.761,6.238,23.223L65.846,328.15l69.111-13.234c6.93,10.291,15.207,19.601,24.574,27.679l-27.66,70.619l58.398-50.512c10.114,4.836,20.907,8.484,32.198,10.76v83.248l17.933,10.71l9.6-164.354l9.259,164.354l17.933-10.71v-83.178c11.414-2.271,22.322-5.946,32.538-10.832l58.399,50.514l-27.66-70.617C349.838,334.518,358.114,325.207,365.044,314.917z M250,286.129c-26.789,0-48.506-21.717-48.506-48.505c0-26.791,21.717-48.508,48.506-48.508c26.791,0,48.508,21.717,48.508,48.508C298.508,264.413,276.791,286.129,250,286.129z"></path><path style="fill:#505050;" d="M365.044,314.917l69.11,13.233l-53.921-43.033c2.723-7.462,4.824-15.224,6.238-23.223l21.905-6.706v-9.163h-55.994c-3.528,43.579-34.258,79.465-75.191,90.672v-0.81l-12.697-34.437c26.503-5.992,46.901-28.066,50.409-55.426h-17.137c-3.98,22.781-23.844,40.104-47.767,40.104c-23.921,0-43.784-17.322-47.765-40.104h-17.139c3.493,27.251,23.745,49.261,50.092,55.356l-12.721,34.506v0.716c-40.763-11.314-71.332-47.12-74.851-90.578H91.625v9.163l21.904,6.706c1.414,7.999,3.516,15.761,6.238,23.223L65.846,328.15l69.111-13.234c6.93,10.291,15.207,19.601,24.574,27.679l-27.66,70.619l58.398-50.512c10.114,4.836,20.907,8.484,32.198,10.76v83.248l17.933,10.71l5.375-92.02l8.301,0.029l5.183,91.99l17.933-10.71v-83.178c11.414-2.271,22.322-5.946,32.538-10.832l58.399,50.514l-27.66-70.617C349.838,334.518,358.114,325.207,365.044,314.917z"></path><path style="fill:#505050;" d="M240.594,366.44c-60.971-5.444-116.182-60.683-116.182-124.873c0-64.189,48.735-117.146,106.846-125.272v9.145c0,0-96.615,21.679-96.615,116.52c0,94.843,107.307,113.303,107.307,113.303L240.594,366.44z"></path><path style="fill:#505050;" d="M258.319,366.44c60.972-5.444,116.182-60.683,116.182-124.873c0-64.189-48.734-117.146-106.846-125.272v9.145c0,0,96.615,21.679,96.615,116.52c0,94.843-107.306,113.303-107.306,113.303L258.319,366.44z"></path><path style="fill:none;stroke:#000000;stroke-linecap:round;stroke-linejoin:round;" d="M266.708,121.156c58.11,8.128,102.829,58.031,102.829,118.38c0,62.389-47.793,113.613-108.765,119.058"></path><path style="fill:none;stroke:#000000;stroke-linecap:round;stroke-linejoin:round;" d="M239.2,358.593c-60.957-5.459-108.737-56.678-108.737-119.057c0-60.362,44.739-110.273,102.866-118.383"></path></g><circle style="fill:#505050;stroke:#000000;stroke-linecap:round;stroke-linejoin:round;" cx="250" cy="238.912" r="25.404"></circle></g><path style="fill:#505050;" d="M306.842,245.348c-5.683,0-6.018-3.049-6.018-3.049s-4.906,45.728-51.142,45.728c-46.234,0-51.143-45.728-51.143-45.728s-0.334,3.049-6.016,3.049c-5.685,0-6.352-3.727-6.352-3.727c7.688,57.244,63.51,59.615,63.51,59.615s55.821-2.371,63.511-59.615C313.193,241.621,312.524,245.348,306.842,245.348z"></path><path style="fill:none;stroke:#000000;stroke-linecap:round;stroke-linejoin:round;" d="M365.044,314.917l69.11,13.233l-53.921-43.033c2.723-7.462,4.824-15.224,6.238-23.223l21.905-6.706V230.16l-20.505-6.694c-1.085-10.698-3.393-21.034-6.771-30.871l53.054-42.342l-67.271,12.883c-7.067-11.065-15.662-21.06-25.489-29.687l26.735-68.26l-56.069,48.499c-8.955-4.492-18.461-8.048-28.395-10.527V36.696l-17.933-12.239v138.599l17.933-10.71v-11.791c40.196,13.938,69.061,52.126,69.061,97.069c0,47.317-31.998,87.154-75.534,99.073v-0.81l-12.697-34.437c29.168-6.595,50.947-32.667,50.947-63.827c0-36.145-29.298-65.444-65.441-65.444c-36.142,0-65.441,29.299-65.441,65.444c0,31.047,21.622,57.046,50.63,63.758l-12.721,34.506v0.716c-43.361-12.034-75.193-51.785-75.193-98.979c0-44.708,28.563-82.734,68.433-96.851v11.573l17.933,10.71V24.457l-17.933,12.239v66.626c-9.706,2.471-19.001,5.969-27.767,10.367L131.871,65.19l26.737,68.263c-9.826,8.625-18.421,18.618-25.489,29.683l-67.273-12.883l53.054,42.342c-3.378,9.837-5.685,20.173-6.771,30.87l-20.504,6.695v25.028l21.904,6.706c1.414,7.999,3.516,15.761,6.238,23.223L65.846,328.15l69.111-13.234c6.93,10.291,15.207,19.601,24.574,27.679l-27.66,70.619l58.398-50.512c10.114,4.836,20.907,8.484,32.198,10.76v83.248l17.933,10.71l5.375-92.02l8.301,0.029l5.183,91.99l17.933-10.71v-83.178c11.414-2.271,22.322-5.946,32.538-10.832l58.399,50.514l-27.66-70.617C349.838,334.518,358.114,325.207,365.044,314.917z M250,286.129c-26.789,0-48.506-21.717-48.506-48.505c0-26.791,21.717-48.508,48.506-48.508c26.791,0,48.508,21.717,48.508,48.508C298.508,264.413,276.791,286.129,250,286.129z"></path></g></g></svg>