<svg xmlns="http://www.w3.org/2000/svg" width="500" height="500" version="1.1"><g id="x037" data-trait-type="Wings" data-trait-value="Shield Wings"><g><g><g><path style="fill:#6E6E6E;stroke:#000000;" d="M361.23,326.086c2.584-9.594,3.972-19.679,3.972-30.09c0-10.41-1.388-20.495-3.973-30.089c1.463-1.354,2.999-2.818,4.269-4.133c2.687-9.042-18.938-46.498-28.112-48.692c-1.766,0.442-3.793,1.036-5.689,1.623c-14.195-14.297-32.109-24.893-52.171-30.224c-0.434-1.901-0.922-3.906-1.413-5.62c-6.487-6.848-49.737-6.848-56.225,0c-0.481,1.683-0.961,3.645-1.388,5.515c-20.179,5.286-38.202,15.896-52.476,30.243c-1.815-0.559-3.73-1.116-5.409-1.537c-9.175,2.194-30.8,39.65-28.113,48.692c1.187,1.228,2.604,2.586,3.978,3.862c-2.632,9.676-4.045,19.852-4.045,30.359c0,10.509,1.413,20.685,4.045,30.359c-1.373,1.276-2.791,2.635-3.977,3.861c-2.687,9.043,18.938,46.498,28.112,48.693c1.679-0.421,3.594-0.979,5.409-1.537c14.274,14.348,32.297,24.958,52.477,30.243c0.427,1.87,0.906,3.832,1.387,5.516c6.488,6.848,49.738,6.848,56.226,0c0.489-1.715,0.979-3.719,1.413-5.62c20.061-5.331,37.977-15.927,52.172-30.225c1.896,0.588,3.923,1.182,5.688,1.623c9.174-2.195,30.799-39.65,28.112-48.693C364.229,328.904,362.692,327.438,361.23,326.086z M249.818,365.738c-38.517,0-69.741-31.225-69.741-69.742c0-38.516,31.224-69.741,69.741-69.741c38.517,0,69.741,31.223,69.741,69.741S288.334,365.738,249.818,365.738z"></path><g><path style="fill:#505050;" d="M162.549,214.753c0,0,4.199,0.183,6.572,1.643c3.743,3.195,9.357,7.988,13.511,12.05c-2.191,1.643-3.286,3.286-3.286,3.286L162.549,214.753z"></path><path style="fill:#505050;" d="M337.108,214.753c0,0-4.199,0.183-6.573,1.643c-3.743,3.195-9.356,7.988-13.51,12.05c2.19,1.643,3.286,3.286,3.286,3.286L337.108,214.753z"></path><path style="fill:#505050;" d="M337.108,377.24c0,0-4.199-0.182-6.573-1.644c-3.743-3.194-9.356-7.987-13.51-12.05c2.19-1.643,3.286-3.286,3.286-3.286L337.108,377.24z"></path><path style="fill:#505050;" d="M162.549,377.24c0,0,4.199-0.183,6.572-1.644c3.743-3.194,9.357-7.987,13.511-12.05c-2.191-1.643-3.287-3.286-3.287-3.286L162.549,377.24z"></path></g></g><rect x="158.678" y="282.084" style="fill:#B2B2B2;stroke:#000000;" width="181.557" height="30.396"></rect><g><path style="fill:#B2B2B2;stroke:#000000;" d="M249.818,202.156c-51.827,0-93.841,42.014-93.841,93.84c0,51.827,42.014,93.841,93.84,93.841c51.827,0,93.84-42.014,93.84-93.841C343.658,244.17,301.645,202.156,249.818,202.156z M249.818,365.738c-38.517,0-69.741-31.225-69.741-69.742c0-38.516,31.224-69.741,69.741-69.741c38.517,0,69.741,31.223,69.741,69.741S288.334,365.738,249.818,365.738z"></path><path style="fill:none;stroke:#C8C8C8;stroke-width:4;" d="M249.818,213.841c-45.374,0-82.157,36.782-82.157,82.155c0,45.374,36.783,82.156,82.156,82.156c45.372,0,82.156-36.782,82.156-82.156C331.974,250.623,295.19,213.84,249.818,213.841z"></path></g></g><line style="fill:none;stroke:#B2B2B2;stroke-linecap:round;stroke-linejoin:round;" x1="250" y1="174.588" x2="250" y2="201.061"></line></g></g></svg>