<svg xmlns="http://www.w3.org/2000/svg" width="500" height="500" version="1.1"><g id="x039" data-trait-type="Weapons" data-trait-value="Sword"><g><path style="fill:#F0F0F0;stroke:#000000;stroke-linecap:round;stroke-linejoin:round;" d="M142.35,389.991c-6.168,16.453-7.19,38.053-7.349,43.198c-0.4,0.346,27.212-0.713,43.666-6.883C205.525,416.535,297.301,318.7,297.301,318.7s1.024-14.597,1.698-17.693c0.674-3.098,15.136-16.105,20.495-20.982c5.359-4.872,15.11-5.898,15.11-5.898c-6.808-18.036-19.178-18.066-22.31-17.764c0.303-3.133,0.272-15.502-17.764-22.308c0,0-1.025,9.75-5.899,15.109c-4.876,5.359-17.884,19.821-20.98,20.495c-3.098,0.675-17.695,1.698-17.695,1.698S152.122,363.134,142.35,389.991z"></path><path style="fill:#B2B2B2;" d="M202.357,407.686c0,0,6.552-6.888,4.936-12.544c8.889-8.887,41.208-39.592,41.208-39.592s-2.502,9.733-8.158,17.008C234.283,379.425,202.357,407.686,202.357,407.686z"></path><path style="fill:#B2B2B2;" d="M154.369,415.745l-16.968,16.161c0,0,1.616-27.473,4.443-34.341c5.252,1.212,10.1-2.02,10.1-2.02S148.309,412.109,154.369,415.745z"></path><path style="fill:#B2B2B2;" d="M248.501,287.678c0,0,4.932-8.805,2.265-14.705c7.296,1.374,19.013-0.918,19.013-0.918s17.642-14.678,22.894-23.161c2.693-2.693,4.849-12.39,4.849-12.39s4.309,4.309,4.309,6.734c0,2.424-5.388,15.89-5.388,15.89s-21.276,20.47-25.72,21.68C266.278,282.021,248.501,287.678,248.501,287.678z"></path><path style="fill:#FFFFFF;" d="M148.713,404.434c0,0,0.404-12.523,3.231-18.585c-2.828,6.869-6.06,9.293-6.868,5.251c-2.424,4.851-4.443,14.142-4.04,17.777C142.25,403.626,144.673,400.394,148.713,404.434z"></path><path style="fill:#FFFFFF;" d="M177.801,424.632c0,0,2.424-3.231,0.808-6.463c3.232,0,16.16-8.888,22.221-14.947c-4.445,6.867-3.637,8.483-3.637,8.483S183.053,423.42,177.801,424.632z"></path><path style="fill:#FFFFFF;" d="M150.329,415.745c0,0-11.716,11.715-12.927,16.161c7.675-6.06,16.564-12.525,16.564-12.525L150.329,415.745z"></path><g><path style="fill:#6E6E6E;stroke:#000000;stroke-linecap:round;stroke-linejoin:round;" d="M250.807,282.711c0,0,16.16-3.231,19.797-5.252c3.637-2.02,19.393-17.774,21.411-18.986c2.021-1.214,0,0,3.233-4.042c3.231-4.04,6.06-14.14,6.06-14.14c10.118,10.12,9.952,15.753,9.515,17.544c1.791-0.438,7.424-0.604,17.544,9.514c0,0-10.101,2.83-14.141,6.062c-4.04,3.232-2.827,1.212-4.04,3.232c-1.212,2.02-16.968,17.774-18.987,21.41c-2.021,3.636-5.252,19.797-5.252,19.797s-91.708,92.516-105.041,96.962c-11.655,3.885-28.281,0.806-28.281,0.806c0.839-4.534-2.663-16.211,1.222-27.865C158.292,374.42,250.807,282.711,250.807,282.711z"></path><path style="fill:#C8C8C8;" d="M232.745,365.649l-15.352-46.863c0,0-30.3,31.106-31.916,34.34c-1.616,3.232,11.716,46.46,11.716,46.46L232.745,365.649z"></path><polygon style="fill:#C8C8C8;" points="237.594,359.994 223.049,313.938 252.137,284.042 269.509,328.886 "></polygon></g><g><rect x="346.36" y="186.302" transform="matrix(-0.7071 -0.7071 0.7071 -0.7071 450.6286 617.5435)" style="fill:#FFBF00;stroke:#000000;stroke-linecap:round;stroke-linejoin:round;" width="13.713" height="58.276"></rect><rect x="344.219" y="212.424" transform="matrix(0.7071 -0.7071 0.7071 0.7071 -44.9138 317.8457)" style="fill:#FFFFFF;" width="33.995" height="1.429"></rect><path style="fill:#CC8A00;" d="M347.48,223.441l-4.241-4.241l24.239-24.241l4.646,4.646c0,0-2.625-0.606-5.858,1.414c-3.231,2.021-17.17,16.766-17.17,16.766S345.462,221.018,347.48,223.441z"></path></g><path style="fill:#6E6E6E;stroke:#000000;stroke-linecap:round;stroke-linejoin:round;" d="M379.399,167.894c8.973-1.714,13.332,1.818,16.563,5.048c3.23,3.23,6.762,7.59,5.048,16.563c-1.717,1.919-12.422,5.959-12.422,5.959l-8.28-6.867l0,0l-0.001-0.001l-0.001,0l0,0l-6.866-8.28C373.44,180.316,377.48,169.61,379.399,167.894z"></path><path style="fill:#FFBF00;stroke:#000000;stroke-linecap:round;stroke-linejoin:round;" d="M376.168,171.125c8.973-1.714,13.332,1.818,16.563,5.049c3.231,3.231,6.764,7.589,5.049,16.563c-1.717,1.919-12.424,5.959-12.424,5.959l-8.278-6.866v0l-0.002-0.001l-0.001-0.001v-0.001l-6.865-8.279C370.209,183.548,374.249,172.843,376.168,171.125z"></path><polygon style="fill:#6E6E6E;stroke:#000000;stroke-linecap:round;stroke-linejoin:round;" points="366.212,190.056 378.602,202.445 385.268,197.395 371.263,183.39 "></polygon><rect x="329.274" y="221.624" transform="matrix(-0.7071 -0.7071 0.7071 -0.7071 416.7529 631.58)" style="fill:#6E6E6E;stroke:#000000;stroke-linecap:round;stroke-linejoin:round;" width="19.807" height="15.711"></rect><polygon style="fill:#FFBF00;stroke:#000000;stroke-linecap:round;stroke-linejoin:round;" points="317.327,226.416 342.241,251.329 349.313,236.18 332.478,219.346 "></polygon><rect x="275.049" y="234.19" transform="matrix(-0.7071 -0.7071 0.7071 -0.7071 386.7559 644.0039)" style="fill:#FFFFFF;stroke:#000000;stroke-linecap:round;stroke-linejoin:round;" width="103.413" height="15.425"></rect><g><path style="fill:#FFBF00;stroke:#000000;stroke-linecap:round;stroke-linejoin:round;" d="M298.251,192.794c-1.213,4.848,2.222,12.323,11.917,21.21L323,228.752c4.304,0.116,8.572,1.809,11.856,5.092c3.283,3.284,4.979,7.548,5.094,11.851l14.702,12.793c8.889,9.697,16.362,13.131,21.21,11.919c-2.019,12.928-25.249,27.673-25.249,27.673l-8.081,0.808c0,0,0.992-15.988-5.452-23.633c-4.313-5.114-8.174-7.688-10.973-8.983c-6.624,3.66-12.699,0.26-18.318-5.357c-5.613-5.613-9.017-11.677-5.371-18.298c-1.287-2.803-3.862-6.692-9.016-11.038c-7.645-6.444-23.633-5.454-23.633-5.454l0.808-8.081C270.577,218.044,285.322,194.815,298.251,192.794z"></path><path style="fill:#CC8A00;" d="M342.532,298.888l6.363,0.303c0,0,5.656-24.24-18.382-38.178c-8.687-6.262-18.382-16.766-18.382-16.766s-10.908-28.685-43.632-23.432c-0.405,3.232,0,5.251,0,5.251s11.917-2.625,25.452,6.868c13.533,9.495,9.089,9.9,9.089,9.9s-6.464,8.483,3.434,18.381s19.633,5.057,19.633,5.057S341.019,273.942,342.532,298.888z"></path><path style="fill:#FFFFFF;" d="M372.934,273.135c0,0-9.293,15.351-21.413,21.814c-0.402-3.636-1.817-14.341-1.817-14.341s3.435,9.493,7.475,7.069c4.039-2.424,11.918-13.132,11.918-13.132L372.934,273.135z"></path><path style="fill:none;stroke:#000000;stroke-linecap:round;stroke-linejoin:round;" d="M348.997,298.08c0,0,2.424-12.523-4.646-23.229c-7.071-10.706-15.353-15.354-15.353-15.354"></path><path style="fill:none;stroke:#000000;stroke-linecap:round;stroke-linejoin:round;" d="M309.809,240.309c0,0-4.646-8.281-15.352-15.353c-10.706-7.069-23.23-4.645-23.23-4.645"></path></g><ellipse transform="matrix(-0.7071 -0.7071 0.7071 -0.7071 373.1091 649.6579)" style="fill:#047391;stroke:#000000;stroke-linecap:round;stroke-linejoin:round;" cx="321.099" cy="247.558" rx="14.569" ry="12.855"></ellipse><circle style="fill:#FFFFFF;" cx="320.279" cy="241.487" r="4.19"></circle></g></g></svg>