<svg xmlns="http://www.w3.org/2000/svg" width="500" height="500" version="1.1"><g id="x004" data-trait-type="Wings" data-trait-value="Bat Wings"><g><g><path style="fill:#6E6E6E;stroke:#000000;stroke-linecap:round;stroke-linejoin:round;" d="M210.664,321.607c0,0-16.365-4.85-16.365-15.759c0-16.981,12.728-18.789,12.728-18.789s-85.459-24.244-109.704,44.852c16.365-23.032,48.488-13.335,55.155,9.091c0,0,14.546-20.001,33.941-5.454C188.845,324.031,198.542,321.607,210.664,321.607z"></path><path style="fill:#505050;" d="M196.724,288.271c0,0-33.941,18.789-41.821,47.882C151.267,305.242,184.602,288.271,196.724,288.271z"></path></g><g><path style="fill:#6E6E6E;stroke:#000000;stroke-linecap:round;stroke-linejoin:round;" d="M297.336,321.607c0,0,16.364-4.85,16.364-15.759c0-16.981-12.728-18.789-12.728-18.789s85.46-24.244,109.703,44.852c-16.364-23.032-48.487-13.335-55.154,9.091c0,0-14.547-20.001-33.942-5.454C319.156,324.031,309.457,321.607,297.336,321.607z"></path><path style="fill:#505050;" d="M311.276,288.271c0,0,33.941,18.789,41.82,47.882C356.733,305.242,323.397,288.271,311.276,288.271z"></path></g></g></g></svg>