<svg xmlns="http://www.w3.org/2000/svg" width="500" height="500" version="1.1"><g id="x040" data-trait-type="Katana" data-trait-value="Sword"><g><g><g><path style="fill:#FFCF57;stroke:#000000;stroke-linecap:round;stroke-linejoin:round;" d="M159.604,409.708c-7.069,10.22-16.94,21.544-15.965,25.724c1.3,5.569,12.289,12.174,14.908,11.424c5.639-1.624,12.745-15.219,18.808-22.987C171.329,419.905,164.435,415.229,159.604,409.708z"></path><path style="fill:#DBA642;" d="M149.538,436.176c0,0,4.83-11.89,11.146-17.463c5.201,3.344,10.031,7.431,9.659,8.546c-0.371,1.115-9.659,15.233-12.631,15.233S151.396,439.52,149.538,436.176z"></path><circle style="fill:#FFCF57;stroke:#000000;stroke-linecap:round;stroke-linejoin:round;" cx="160.219" cy="426.794" r="4.04"></circle></g><path style="fill:#BEA36D;stroke:#000000;stroke-linecap:round;stroke-linejoin:round;" d="M314.824,232.042c-29.814,32.024-119.013,127.957-155.232,180.315c4.462,5.1,9.5,9.791,15.068,13.453c47.844-61.3,125.329-149.151,152.287-179.473L314.824,232.042z"></path><g><g><path style="fill:#6E6E6E;stroke:#000000;stroke-linecap:round;stroke-linejoin:round;" d="M362.701,184.121c-16.415,16.071-44.046,46.052-44.046,46.052l16.656,8.209c0.468-0.777,25.785-27.073,39.765-42.541C372.055,190.932,367.938,186.803,362.701,184.121z"></path><g><path style="fill:#FFCF57;stroke:#000000;stroke-linecap:round;stroke-linejoin:round;" d="M334.502,217.569c-0.063-1.064-0.841,8.6-0.841,8.6l9.165,1.227l-0.88-9.208L334.502,217.569z"></path><path style="fill:#FFCF57;stroke:#000000;stroke-linecap:round;stroke-linejoin:round;" d="M342.745,208.877c-0.063-1.064-0.841,8.601-0.841,8.601l9.165,1.226l-0.88-9.208L342.745,208.877z"></path><path style="fill:#FFCF57;stroke:#000000;stroke-linecap:round;stroke-linejoin:round;" d="M350.988,200.185c-0.063-1.064-0.841,8.6-0.841,8.6l9.165,1.226l-0.88-9.208L350.988,200.185z"></path><path style="fill:#FFCF57;stroke:#000000;stroke-linecap:round;stroke-linejoin:round;" d="M359.231,191.494c-0.063-1.065-0.841,8.6-0.841,8.6l9.165,1.226l-0.879-9.208L359.231,191.494z"></path></g></g><g><path style="fill:#FFCF57;stroke:#000000;stroke-linecap:round;stroke-linejoin:round;" d="M373.751,172.566c-1.431,0.357-5.517,5.156-11.693,11.204c5.629,2.882,10.055,7.321,13.303,12.599c5.621-6.219,9.541-10.814,9.715-11.73C385.712,181.271,379.268,171.188,373.751,172.566z"></path><path style="fill:#DBA642;" d="M371.338,187.254c0.371-1.486,8.546-9.288,8.546-9.288s3.715,2.229,2.601,5.573s-7.431,8.545-7.431,8.545L371.338,187.254z"></path><path style="fill:#FFFFFF;" d="M365.579,183.353c0,0,3.901,2.786,4.83,3.529c-0.558-1.672-1.115-2.972-0.558-4.644s5.76-5.201,5.76-5.201l4.458,1.3c0,0-3.529-4.83-6.131-3.715C371.338,175.736,365.579,183.353,365.579,183.353z"></path></g><g><path style="fill:#FFCF57;stroke:#000000;stroke-linecap:round;stroke-linejoin:round;" d="M338.354,236.133l-13.391-14.361c-0.161,0.17-5.042,4.465-11.407,11.75l13.43,14.857C333.257,240.861,338.345,236.144,338.354,236.133z"></path><line style="fill:none;stroke:#000000;stroke-linecap:round;stroke-linejoin:round;" x1="321.46" y1="225.706" x2="334.835" y2="239.917"></line></g></g><g><path style="fill:#665466;stroke:#000000;stroke-linecap:round;stroke-linejoin:round;" d="M313.709,232.042c-29.813,32.024-119.012,127.957-155.231,180.315c4.462,5.1,9.5,9.791,15.068,13.453c47.844-61.3,125.329-149.151,152.287-179.473L313.709,232.042z"></path><path style="fill:#4D3B52;" d="M172.944,424.657c0,0,120.746-147.866,146.01-171.644c-2.229-4.087-8.546-8.917-8.546-8.917s-120.746,126.69-146.752,171.645C167,420.57,172.944,424.657,172.944,424.657z"></path></g><g><polygon style="fill:#B4B4B4;stroke:#000000;stroke-linecap:round;stroke-linejoin:round;" points="306.368,237.316 322.39,255.707 327.571,249.738 313.05,231.068 "></polygon><path style="fill:#FFFFFF;" d="M314.681,243.54l1.114-2.229l-4.458-5.202c0,0-1.857,0-1.857,1.115S314.681,243.54,314.681,243.54z"></path></g><g><polygon style="fill:#FFCF57;stroke:#000000;stroke-linecap:round;stroke-linejoin:round;" points="302.327,223.941 336.721,260.682 340.587,255.613 306.666,219.454 "></polygon><line style="fill:none;stroke:#000000;stroke-linecap:round;stroke-linejoin:round;" x1="331.863" y1="254.592" x2="335.486" y2="250.691"></line><line style="fill:none;stroke:#000000;stroke-linecap:round;stroke-linejoin:round;" x1="307.621" y1="228.121" x2="310.687" y2="225.056"></line></g></g></g></g></svg>