<svg xmlns="http://www.w3.org/2000/svg" width="500" height="500" version="1.1"><g id="x041" data-trait-type="Weapons" data-trait-value="Shield"><g><g><g><path style="fill:#C8C8C8;stroke:#000000;stroke-linecap:round;stroke-linejoin:round;" d="M334.538,331.027c-29.666-25.48-35.976-69.01-36.115-70.004c0.005-0.008,0.009-0.013,0.009-0.013s-0.008,0.001-0.012,0.001c0-0.003,0-0.012,0-0.012s-0.005,0.006-0.011,0.013c-0.995,0.135-44.606,5.856-77.172-15.794c0,0-42.471,45.291-48.468,76.07c-6.596,33.858,4.2,61.847,19.295,80.141c-0.001,0.001-0.002,0.003-0.002,0.004c0.002,0.001,0.005,0.002,0.008,0.003c0.001,0.003,0.003,0.005,0.004,0.007c0.002-0.001,0.002-0.002,0.003-0.003c21.701,9.572,51.568,12.38,82.37-3.144C302.451,384.182,334.538,331.027,334.538,331.027z"></path><path style="fill:#FFFFFF;" d="M200.324,275.863c0,0,14.684-22.407,20.773-25.417c7.747,5.869,30.814,9.621,30.814,9.621S221.568,253.852,200.324,275.863z"></path><path style="fill:#AAAAAA;" d="M197.155,278.035c1.243-1.465-1.143,10.564,11.872,7.467c-8.068,10.653-40.122,58.006-15.981,91.53c-3.521-0.381-12.046,3.831-12.046,3.831S154.641,328.134,197.155,278.035z"></path><path style="fill:#AAAAAA;" d="M308.873,362.645c1.073-1.593-9.858,3.964-10.403-9.403c-8.068,10.655-44.965,54.34-83.776,40.186c1.321,3.287-0.424,12.634-0.424,12.634S272.17,417.145,308.873,362.645z"></path><g><path style="fill:#C8C8C8;stroke:#000000;stroke-linecap:round;stroke-linejoin:round;" d="M304.562,342.228c-0.709-0.292-1.396-0.669-2.036-1.154c-4.012-3.038-4.801-8.755-1.763-12.766c0.809-1.068,1.811-1.9,2.916-2.5c-14.985-17.367-8.148-28.895-23.611-40.605c-15.462-11.711-24.667-1.975-45.444-11.694c-0.278,1.228-0.807,2.417-1.615,3.485c-3.039,4.012-8.754,4.801-12.766,1.763c-0.641-0.486-1.189-1.045-1.664-1.649c-46.25,58.25-30.62,92.404-23.706,100.547c4.59-0.213,11.781,3.687,12.229,3.933c0.358,0.365,6.063,6.23,7.1,10.707C223.914,396.741,261.024,402.531,304.562,342.228z"></path><rect x="234.15" y="336.047" transform="matrix(0.7969 0.6041 -0.6041 0.7969 270.4768 -67.5211)" style="fill:#AAAAAA;" width="3.038" height="64.997"></rect><rect x="209.938" y="317.708" transform="matrix(0.7972 0.6038 -0.6038 0.7972 254.3391 -56.6343)" style="fill:#AAAAAA;" width="3.038" height="64.999"></rect><path style="fill:#AAAAAA;" d="M214.5,284.313c0,0,7.983,7.569,14.438,4.075c6.456-3.492,10.594-4.931,10.594-4.931s20.057-2.337,35.552,9.4c18.037,14.421,16.249,32.879,16.249,32.879s-15.098,6.854,7.779,24.944c1.966-4.608,8.788-8.586,7.335-9.688c-1.452-1.099-13.837-2.858-4.302-15.449c-4.211-8.524-15.146-34.332-18.17-37.383c0,0-7.865-6.719-14.658-8.817c-6.794-2.097-25.468,1.774-34.693-5.837c1.181,1.793-10.334,11.345-16.044,3.599C217.081,277.886,214.5,284.313,214.5,284.313z"></path><path style="fill:#AAAAAA;" d="M211.067,290.856c0,0,20.734,8.845,44.461,26.816c23.729,17.972,37.847,38.569,37.847,38.569l5.736-5.561c0,0-23.451-25.382-40.516-39.069c-17.067-13.688-45.196-25.848-45.196-25.848L211.067,290.856z"></path><path style="fill:#AAAAAA;" d="M197.864,308.29c0,0,20.734,8.844,44.461,26.815c23.729,17.972,37.848,38.569,37.848,38.569l5.735-5.562c0,0-23.451-25.381-40.517-39.068c-17.066-13.688-45.196-25.847-45.196-25.847L197.864,308.29z"></path><g><circle style="fill:#C8C8C8;stroke:#000000;stroke-linecap:round;stroke-linejoin:round;" cx="287.125" cy="354.938" r="3.948"></circle><circle style="fill:#C8C8C8;stroke:#000000;stroke-linecap:round;stroke-linejoin:round;" cx="211.097" cy="297.357" r="3.948"></circle></g><g><line style="fill:none;stroke:#000000;stroke-linecap:round;stroke-linejoin:round;" x1="280.067" y1="285.202" x2="258.429" y2="313.772"></line><line style="fill:none;stroke:#000000;stroke-linecap:round;stroke-linejoin:round;" x1="234.074" y1="325.808" x2="196.299" y2="375.686"></line><line style="fill:none;stroke:#000000;stroke-linecap:round;stroke-linejoin:round;" x1="253.445" y1="340.479" x2="215.669" y2="390.356"></line><path style="fill:none;stroke:#000000;stroke-linecap:round;stroke-linejoin:round;" d="M211.448,287.336c0.72,0.545,25.703,11.084,46.649,26.946c21.309,16.139,38.58,37.602,38.58,37.602"></path><path style="fill:none;stroke:#000000;stroke-linecap:round;stroke-linejoin:round;" d="M200.025,304.593c0.702,0.532,24.07,12.134,44.501,27.607c20.785,15.742,38.634,35.355,38.634,35.355"></path></g></g><g><rect x="237.055" y="293.257" transform="matrix(0.7972 0.6038 -0.6038 0.7972 249.9054 -79.6072)" style="fill:#A35C36;stroke:#000000;stroke-linecap:round;stroke-linejoin:round;" width="12.757" height="77.754"></rect><rect x="198.571" y="358.932" transform="matrix(0.7972 0.6037 -0.6037 0.7972 264.7004 -58.5706)" style="fill:#A35C36;stroke:#000000;stroke-linecap:round;stroke-linejoin:round;" width="41.915" height="11.542"></rect><rect x="245.516" y="296.948" transform="matrix(0.7972 0.6037 -0.6037 0.7972 236.8109 -99.483)" style="fill:#A35C36;stroke:#000000;stroke-linecap:round;stroke-linejoin:round;" width="41.913" height="11.542"></rect></g><circle style="fill:#C8C8C8;stroke:#000000;stroke-linecap:round;stroke-linejoin:round;" cx="225.575" cy="267.173" r="4.555"></circle><circle style="fill:#C8C8C8;stroke:#000000;stroke-linecap:round;stroke-linejoin:round;" cx="313.224" cy="333.555" r="4.556"></circle><circle style="fill:#C8C8C8;stroke:#000000;stroke-linecap:round;stroke-linejoin:round;" cx="198.257" cy="392.79" r="4.556"></circle></g></g></g><path style="fill:none;stroke:#000000;stroke-linecap:round;stroke-linejoin:round;" d="M304.562,342.228c-0.709-0.292-1.396-0.669-2.036-1.154c-4.012-3.038-4.801-8.755-1.763-12.766c0.809-1.068,1.811-1.9,2.916-2.5c-14.985-17.367-8.148-28.895-23.611-40.605c-15.462-11.711-24.667-1.975-45.444-11.694c-0.278,1.228-0.807,2.417-1.615,3.485c-3.039,4.012-8.754,4.801-12.766,1.763c-0.641-0.486-1.189-1.045-1.664-1.649c-46.25,58.25-30.62,92.404-23.706,100.547c4.59-0.213,11.781,3.687,12.229,3.933c0.358,0.365,6.063,6.23,7.1,10.707C223.914,396.741,261.024,402.531,304.562,342.228z"></path></g></svg>