<svg xmlns="http://www.w3.org/2000/svg" width="500" height="500" version="1.1"><g id="x042" data-trait-type="Weapons" data-trait-value="Bow"><g><line style="fill:none;stroke:#000000;stroke-linecap:round;stroke-linejoin:round;" x1="364.801" y1="131.276" x2="105.087" y2="419.955"></line><path style="fill:#6E6E6E;stroke:#000000;stroke-linecap:round;stroke-linejoin:round;" d="M288.49,316.356c0,0,7.619-10.054,17.472-25.143c2.787-0.7,14.558-3.769,16.872-6.342c2.024-2.249-0.385-13.489-1.601-18.551c10.255-17.92,20.168-38.217,25.079-56.547c-4.383-9.23-4.383-9.23-4.383-9.23s31.194-20.573,38.848-23.203c2.979-6.836-4.908-8.647-4.908-8.647s-0.076,0.099-0.224,0.28c2.671-11.775,5.048-31.898-4.64-46.947c-10.751-3.329-10.341,4.441-10.341,4.441c-0.115,8.355,6.312,3.563,7.072,7.42c0.837,6.434,5.979,26.916,1.22,41.828c-5.961,5.177-15.588,11.745-28.142,14.312c-1.46,3.973-10.223,6.663-13.903,10.753c0.176,3.33,7.48,4.614,7.48,4.614s-9.082,23.923-37.29,61.169c-19.188-3.353-40.349,21.241-40.349,21.241s-22.227,23.633-16.873,42.361c-34.067,31.974-56.9,43.525-56.9,43.525s-2.045-7.128-5.375-6.951c-3.681,4.091-5.432,13.087-9.229,14.96c-1.23,12.754-6.748,23.019-11.268,29.492c-14.328,6.303-35.237,3.348-41.724,3.192c-3.914-0.35,0.173-7.246-8.123-6.251c0,0-7.77,0.41-3.33,10.75c15.987,8.049,35.747,3.565,47.176-0.331c-0.165,0.166-0.254,0.251-0.254,0.251s2.631,7.654,9.115,3.973c1.811-7.888,18.981-41.077,18.981-41.077s0,0,9.642,3.386c17.71-6.814,36.848-18.813,53.589-30.896c5.162,0.677,16.592,1.887,18.618-0.363c2.313-2.572,4.125-14.602,4.527-17.445C279.295,324.993,288.49,316.356,288.49,316.356z M252.118,319.938c0,0-1.311-11.078,11.818-25.671c13.129-14.595,24.284-14.456,24.284-14.456s-1.269,10.813-13.376,24.27C262.737,317.538,252.118,319.938,252.118,319.938z"></path></g></g></svg>