<svg xmlns="http://www.w3.org/2000/svg" width="500" height="500" version="1.1"><g id="x043" data-trait-type="Weapons" data-trait-value="Ninjutsu"><g><g><g><g><rect x="105.975" y="314.468" style="fill:#696361;stroke:#000000;stroke-linecap:round;stroke-linejoin:round;" width="288.051" height="33.204"></rect><path style="fill:#595445;" d="M379.943,329.396v14.93h12.162v-15.96c0,0-1.494,6.693-6.828,6.693S379.943,329.396,379.943,329.396z"></path></g><path style="fill:#595445;" d="M108.108,329.396v14.93h12.162v-15.96c0,0-1.494,6.693-6.828,6.693S108.108,329.396,108.108,329.396z"></path><path style="fill:#505050;stroke:#000000;stroke-linecap:round;stroke-linejoin:round;" d="M379.303,327.879c0,23.044-1.92,38.326-1.92,38.326H122.618c0,0-2.561-14.642-2.561-35.766s2.561-34.505,2.561-34.505h254.765C377.383,295.935,379.303,304.835,379.303,327.879z"></path><path style="fill:#6E6E6E;stroke:#000000;stroke-linecap:round;stroke-linejoin:round;" d="M368.421,328.52c0,30.085-2.561,43.862-2.561,43.862H134.14c0,0-2.561-19.538-2.561-43.223c0-23.684,2.561-39.402,2.561-39.402H365.86C365.86,289.757,368.421,298.434,368.421,328.52z"></path><rect x="138.621" y="351.532" style="fill:#505050;" width="18.563" height="19.306"></rect><rect x="340.896" y="351.532" style="fill:#505050;" width="20.483" height="19.306"></rect><g><path style="fill:#EDF2E6;stroke:#000000;stroke-linecap:round;stroke-linejoin:round;" d="M342.816,337.48c0,17.924-1.28,34.901-1.28,34.901H158.464c0,0-1.28-8.656-1.28-34.261s1.28-33.692,1.28-33.692h183.072C341.536,304.429,342.816,319.558,342.816,337.48z"></path><rect x="160.384" y="351.532" style="fill:#D4D1C7;" width="179.232" height="19.306"></rect></g></g><path style="fill:#6E6E6E;stroke:#000000;stroke-linecap:round;stroke-linejoin:round;" d="M180.228,380.104c0,0,0.64,1.545-4.48,1.545c-5.121,0-5.121-1.545-5.121-1.545v-94.208c0,0,0-1.544,5.121-1.544c5.121,0,4.48,1.544,4.48,1.544V380.104z"></path><path style="fill:#6E6E6E;stroke:#000000;stroke-linecap:round;stroke-linejoin:round;" d="M328.734,380.104c0,0,0.639,1.545-4.481,1.545c-5.121,0-5.121-1.545-5.121-1.545v-94.208c0,0,0-1.544,5.121-1.544s4.481,1.544,4.481,1.544V380.104z"></path></g></g></g></svg>