<svg xmlns="http://www.w3.org/2000/svg" width="500" height="500" version="1.1"><g id="x044"><g><g><path data-trait-type="Tail" data-trait-value="Cat Tail" style="fill:#6E6E6E;stroke:#000000;stroke-linecap:round;stroke-linejoin:round;" d="M315.184,401.792c37.651-11.263,20.012-59.443,17.496-66.487c-5.832-16.33,13.998-27.605,3.5-34.604c-15.627-10.418-27.606,12.831-22.94,30.717c4.856,18.614,20.219,41.215-0.777,51.323c-20.996,10.109-43.937-20.606-43.937-20.606l0,0l-6.69,7.056C261.835,369.189,269.692,415.4,315.184,401.792z"></path><path style="fill:#505050;" d="M333.409,301.04c0,0-4.812-2.867-9.283,5.492s-3.306,23.718-1.75,27.8c1.556,4.083,14.581,35.188,2.527,48.214s-44.616,13.56-50.643-11.519c6.124,6.123,21.968,20.559,38.152,13.608c10.158-5.492,14.338-10.839,11.179-25.517c-1.615-7.503-5.582-16.315-7.922-25.516c-2.188-6.076-2.816-16.931-0.486-22.211C323.883,294.43,333.409,301.04,333.409,301.04z"></path><path style="fill:#6E6E6E;stroke:#000000;stroke-linecap:round;stroke-linejoin:round;" d="M264.054,373.604l-4.86,3.888l0.389-8.359l-5.249-5.443l7.388,0.194c-0.194-0.973,4.083-8.943,4.083-8.943l2.722,7.194l8.554-2.334c0,0-4.052,8.748-4.666,8.748"></path><g><path style="fill:#FFFFFF;stroke:#000000;stroke-linecap:round;stroke-linejoin:round;" d="M315.572,337.638c0,0,4.277-12.054,17.108-7.388c0.389,2.722,2.333,10.109,2.333,10.109s-12.442,6.999-13.998,14.774C318.683,348.913,315.572,337.638,315.572,337.638z"></path><path style="fill:#C7D1D6;" d="M324.175,331.318c0,0-2.876,9.16,3.84,13.317c-2.722,2.333-6.562,6.901-6.562,6.901l-4.18-13.803C317.273,337.734,319.509,332.096,324.175,331.318z"></path><path style="fill:none;stroke:#000000;stroke-linecap:round;stroke-linejoin:round;" d="M319.071,342.303c0,0,6.61-5.832,15.942-2.722"></path></g></g><g><g><g><path style="fill:#FFBF00;" d="M346.186,342.812c-0.636-4.355-4.387-7.7-8.918-7.7c-4.479,0-8.193,3.263-8.896,7.541c-0.078,0.479-0.673,0.972-0.673,1.474c0,0.465,0.588,0.92,0.655,1.365c0.658,4.331,4.397,7.65,8.914,7.65c4.432,0,8.115-3.198,8.872-7.413c0.094-0.521,0.695-0.957,0.695-1.505C346.835,343.777,346.835,343.247,346.186,342.812z"></path></g><g><path style="fill:none;stroke:#5F108E;stroke-linecap:round;stroke-linejoin:round;" d="M346.186,342.812c-0.636-4.355-4.387-7.7-8.918-7.7c-4.479,0-8.193,3.263-8.896,7.541c-0.078,0.479-0.673,0.972-0.673,1.474c0,0.465,0.588,0.92,0.655,1.365c0.658,4.331,4.397,7.65,8.914,7.65c4.432,0,8.115-3.198,8.872-7.413c0.094-0.521,0.695-0.957,0.695-1.505C346.835,343.777,346.835,343.247,346.186,342.812z"></path></g></g><circle style="fill:#FFFFFF;" cx="339.216" cy="339.022" r="1.385"></circle><g><circle cx="336.778" cy="346.176" r="1.822"></circle><path style="fill:#FFBF00;stroke:#000000;stroke-linecap:round;stroke-linejoin:round;" d="M337.267,346.176c0,0-1.123,3.256,1.09,6.119"></path></g><g><path style="fill:none;stroke:#000000;stroke-linecap:round;stroke-linejoin:round;" d="M328.414,345.539c0,0,1.692-1.562,8.982-1.562c7.291,0,8.723,1.562,8.723,1.562"></path><path style="fill:none;stroke:#000000;stroke-linecap:round;stroke-linejoin:round;" d="M328.414,343.456c0,0,1.692-1.562,8.982-1.562c7.291,0,8.723,1.562,8.723,1.562"></path></g></g></g></g></svg>