<svg xmlns="http://www.w3.org/2000/svg" width="500" height="500" version="1.1"><g id="x045" data-trait-type="Tail" data-trait-value="Kurama Tail"><g><g><path style="fill:#FFFFFF;stroke:#000000;stroke-linecap:round;stroke-linejoin:round;" d="M206.315,203.159c0.032-33.789,11.302-56.514,28-65.507c8.679-6.456,10.135-25.732,5.496-29.138c13.087,2.283,27.047,19.732,21.253,32.569c5.344,3.312,32.088,13.345,31.379,60.878c-0.715,47.978-32.253,60.714-42.532,60.714C239.632,262.675,206.271,249.392,206.315,203.159z"></path><path style="fill:none;stroke:#000000;stroke-linecap:round;stroke-linejoin:round;" d="M231.477,139.88c1.155-0.927,6.022-6.305,13.766-3.693"></path><path style="fill:#6E6E6E;" d="M277.556,157.225c0,0-34.38-23.167-62.026,3.595c0.428,2.117-9.305,27.503-8.506,30.756c6.835,27.859,33.834,75.216,33.834,75.216s45.17-9.773,50.581-56.294C296.851,163.981,277.556,157.225,277.556,157.225z"></path><path style="fill:#505050;" d="M214.153,199.126c0,0,17.755,21.391,35.724,21.391c17.969,0,34.013-21.391,34.013-21.391s2.139,62.035-34.227,62.035C213.297,261.161,214.153,199.126,214.153,199.126z"></path><path style="opacity:0.5;fill:#FFFFFF;" d="M227.252,179.337c-0.731-0.871-1.003-9.922,6.827-22.104c0.1,5.938,1.146,14.166,1.146,14.166s0.114-4.518,4.495-9.181c0.372,5.099,0.989,20.376,0.989,20.376l-2.563-7.711l-3.879,4.679c0,0-2.334-6.856-1.718-11.357C230.229,170.672,227.252,179.337,227.252,179.337z"></path></g><g><g><path style="fill:#FFFFFF;stroke:#000000;stroke-linecap:round;stroke-linejoin:round;" d="M256.029,394.596c0,0,55.843,17.826,83.788-44.471c27.945-62.295-21.521-94.44-28.911-94.109c2.089,12.371-2.279,24.344-2.279,24.344s-25.465-9.854-49.351,33.118C238.633,350.616,256.029,394.596,256.029,394.596z"></path><path style="fill:none;stroke:#000000;stroke-linecap:round;stroke-linejoin:round;" d="M300.517,280.083c0,0,14.282,2.454,18.914,6.615"></path><path style="fill:#505050;" d="M281.219,288.551c0,0,38.242-9.657,67.909,34.07c-2.79,12.295-23.91,87.928-93.099,71.975C249.631,378.589,238.184,322.958,281.219,288.551z"></path><path style="fill:#FFFFFF;" d="M291.305,294.284c-1.185-0.242-8.967,5.062-14.374,20.958c5.057-3.563,12.625-7.532,12.625-7.532s-3.729,2.915-4.944,10.479c4.52-2.755,17.753-11.54,17.753-11.54l-8.071,2.029l1.537-7.038c0,0-7.21,1.745-10.617,5.185C285.857,302.82,291.305,294.284,291.305,294.284z"></path></g><g><path style="fill:#FFFFFF;stroke:#000000;stroke-linecap:round;stroke-linejoin:round;" d="M242.366,394.596c0,0-55.843,17.826-83.788-44.471c-27.945-62.295,21.521-94.44,28.912-94.109c-2.089,12.371,2.28,24.344,2.28,24.344s25.464-9.854,49.35,33.118C259.763,350.616,242.366,394.596,242.366,394.596z"></path><path style="fill:none;stroke:#000000;stroke-linecap:round;stroke-linejoin:round;" d="M197.879,280.083c0,0-14.282,2.454-18.914,6.615"></path><path style="fill:#505050;" d="M217.177,288.551c0,0-38.242-9.657-67.909,34.07c2.791,12.295,23.91,87.928,93.099,71.975C248.764,378.589,260.212,322.958,217.177,288.551z"></path><path style="fill:#FFFFFF;" d="M207.091,294.284c1.184-0.242,8.966,5.062,14.374,20.958c-5.057-3.563-12.625-7.532-12.625-7.532s3.729,2.915,4.944,10.479c-4.519-2.755-17.753-11.54-17.753-11.54l8.072,2.029l-1.538-7.038c0,0,7.21,1.745,10.616,5.185C212.539,302.82,207.091,294.284,207.091,294.284z"></path></g></g><g><path style="fill:#FFFFFF;stroke:#000000;stroke-linecap:round;stroke-linejoin:round;" d="M161.767,266.727c-27.62-22.22-37.371-51.53-36.564-65.9c0.417-13.255-13.596-22.835-19.427-20.251c10.46-12.098,33.902-15.144,40.597-0.696c6.218-3.377,47.997-27.101,79.881,16.357c30.708,41.855,10.856,83.013,10.856,83.013S199.557,297.13,161.767,266.727z"></path><path style="fill:none;stroke:#000000;stroke-linecap:round;stroke-linejoin:round;" d="M126.422,205.203c0-1.809-1.204-10.397,6.017-16.728"></path><path style="fill:#6E6E6E;" d="M165.334,173.105c0,0-32.093,15.371-28.884,73.238c19.256,9.043,99.489,37.071,99.489,37.071s21.662-53.347-12.838-89.513C188.602,157.734,165.334,173.105,165.334,173.105z"></path><path style="fill:#505050;" d="M235.647,217.095c0,0,14.547,35.51-1.283,60.752c-25.67-20.964-52.624-32.088-52.624-32.088S239.07,254.316,235.647,217.095z"></path><path style="opacity:0.5;fill:#FFFFFF;" d="M159.759,181.081c0.813-0.999,9.859-2.073,22.691,6.908c-5.939,0.605-14.098,2.598-14.098,2.598s4.535-0.218,9.558,4.98c-5.077,0.884-20.333,2.897-20.333,2.897l7.519-3.881l-4.999-4.56c0,0,6.681-3.521,11.239-3.101C168.678,184.172,159.759,181.081,159.759,181.081z"></path></g><g><path style="fill:#FFFFFF;stroke:#000000;stroke-linecap:round;stroke-linejoin:round;" d="M166.137,333.146c-33.697-4.521-54.751-24.939-60.174-37.977c-6.419-9.946-21.663-12.658-25.674-7.233c4.012-16.275,16.849-29.838,27.279-25.316c4.012-13.563,28.529-41.432,85.046-26.222c53.755,14.467,44.93,66.91,44.93,66.91S212.242,339.331,166.137,333.146z"></path><path style="fill:none;stroke:#000000;stroke-linecap:round;stroke-linejoin:round;" d="M103.155,277.989c-0.401,1.809,2.407,15.824,7.221,23.962"></path><path style="fill:#6E6E6E;" d="M121.207,244.535c-1.604,2.713-15.244,26.221,0.802,70.526c9.628,9.946,36.907,18.084,68.197,15.37c31.291-2.712,47.337-27.124,47.337-27.124s2.407-28.03-5.616-37.977c-8.024-9.945-22.466-31.646-57.767-32.551C138.858,231.876,121.207,244.535,121.207,244.535z"></path><path style="fill:#505050;" d="M202.276,241.481c0,0,24.387,45.349-16.257,69.308c31.231-4.277,49.2-2.994,49.2-2.994S246.343,262.017,202.276,241.481z"></path><path style="opacity:0.5;fill:#FFFFFF;" d="M125.883,252.423c0.425-1.269,8.463-6.063,23.341-3.114c-5.312,3.054-12.224,8.328-12.224,8.328s4.136-2.106,10.516,0.609c-4.42,2.952-17.912,11.225-17.912,11.225l5.695-6.758l-6.147-2.133c0,0,5.037-6.072,9.406-7.596C135.182,251.547,125.883,252.423,125.883,252.423z"></path></g><g><path style="fill:#FFFFFF;stroke:#000000;stroke-linecap:round;stroke-linejoin:round;" d="M237.543,309.637c0,0,5.616,65.101-53.755,84.992s-78.627-40.688-77.023-48.825c10.43,4.521,21.663,1.809,21.663,1.809s-4.066-29.994,37.709-48.826C202.241,282.511,237.543,309.637,237.543,309.637z"></path><path style="fill:none;stroke:#000000;stroke-linecap:round;stroke-linejoin:round;" d="M129.631,338.57c0,0-0.401,16.275,2.407,22.152"></path><path style="fill:#6E6E6E;" d="M140.462,318.678c0,0-15.244,40.688,17.651,81.376c11.232-0.904,81.034-10.85,79.43-90.417C224.706,299.69,178.172,277.085,140.462,318.678z"></path><path style="fill:#505050;" d="M203.988,297.099c0,0,32.087,14.547,23.958,55.618c6.417-11.124,8.384-30.376,7.528-41.928C229.485,302.661,211.261,299.238,203.988,297.099z"></path><path style="opacity:0.5;fill:#FFFFFF;" d="M143.672,330.885c0-1.356,6.018-9.042,20.86-12.207c-4.011,4.974-8.826,12.658-8.826,12.658s3.209-3.616,10.029-3.616c-3.209,4.521-13.238,17.632-13.238,17.632l3.209-8.59l-6.418,0.452c0,0,2.808-7.686,6.418-10.851C152.096,326.363,143.672,330.885,143.672,330.885z"></path></g><g><path style="fill:#FFFFFF;stroke:#000000;stroke-linecap:round;stroke-linejoin:round;" d="M338.233,266.727c27.619-22.22,37.371-51.53,36.564-65.9c-0.417-13.255,13.597-22.835,19.428-20.251c-10.461-12.098-33.901-15.144-40.598-0.696c-6.218-3.377-47.996-27.101-79.881,16.357c-30.709,41.855-10.855,83.013-10.855,83.013S300.443,297.13,338.233,266.727z"></path><path style="fill:none;stroke:#000000;stroke-linecap:round;stroke-linejoin:round;" d="M373.579,205.203c0-1.809,1.202-10.397-6.019-16.728"></path><path style="fill:#6E6E6E;" d="M334.666,173.105c0,0,32.093,15.371,28.883,73.238c-19.255,9.043-99.487,37.071-99.487,37.071s-21.663-53.347,12.837-89.513C311.399,157.734,334.666,173.105,334.666,173.105z"></path><path style="fill:#505050;" d="M264.209,217.095c0,0-14.546,35.51,1.284,60.752c25.67-20.964,52.623-32.088,52.623-32.088S260.787,254.316,264.209,217.095z"></path><path style="opacity:0.5;fill:#FFFFFF;" d="M340.242,181.081c-0.815-0.999-9.859-2.073-22.692,6.908c5.939,0.605,14.098,2.598,14.098,2.598s-4.534-0.218-9.558,4.98c5.076,0.884,20.332,2.897,20.332,2.897l-7.519-3.881l5-4.56c0,0-6.681-3.521-11.24-3.101C331.322,184.172,340.242,181.081,340.242,181.081z"></path></g><g><path style="fill:#FFFFFF;stroke:#000000;stroke-linecap:round;stroke-linejoin:round;" d="M333.863,333.146c33.697-4.521,54.752-24.939,60.175-37.977c6.418-9.946,21.662-12.658,25.673-7.233c-4.011-16.275-16.848-29.838-27.278-25.316c-4.012-13.563-28.528-41.432-85.045-26.222c-53.756,14.467-44.931,66.91-44.931,66.91S287.759,339.331,333.863,333.146z"></path><path style="fill:none;stroke:#000000;stroke-linecap:round;stroke-linejoin:round;" d="M396.846,277.989c0.401,1.809-2.407,15.824-7.221,23.962"></path><path style="fill:#6E6E6E;" d="M378.793,244.535c1.605,2.713,15.245,26.221-0.802,70.526c-9.628,9.946-36.906,18.084-68.197,15.37c-31.29-2.712-47.337-27.124-47.337-27.124s-2.407-28.03,5.616-37.977c8.022-9.945,22.465-31.646,57.767-32.551C361.143,231.876,378.793,244.535,378.793,244.535z"></path><path style="fill:#505050;" d="M297.58,241.481c0,0-24.387,45.349,16.258,69.308c-31.231-4.277-49.2-2.994-49.2-2.994S253.514,262.017,297.58,241.481z"></path><path style="opacity:0.5;fill:#FFFFFF;" d="M374.117,252.423c-0.426-1.269-8.464-6.063-23.342-3.114c5.312,3.054,12.225,8.328,12.225,8.328s-4.136-2.106-10.516,0.609c4.419,2.952,17.911,11.225,17.911,11.225l-5.695-6.758l6.146-2.133c0,0-5.036-6.072-9.405-7.596C364.818,251.547,374.117,252.423,374.117,252.423z"></path></g><g><path style="fill:#FFFFFF;stroke:#000000;stroke-linecap:round;stroke-linejoin:round;" d="M262.457,309.637c0,0-5.616,65.101,53.756,84.992c59.371,19.892,78.626-40.688,77.022-48.825c-10.431,4.521-21.663,1.809-21.663,1.809s4.067-29.994-37.709-48.826C297.76,282.511,262.457,309.637,262.457,309.637z"></path><path style="fill:none;stroke:#000000;stroke-linecap:round;stroke-linejoin:round;" d="M370.369,338.57c0,0,0.401,16.275-2.406,22.152"></path><path style="fill:#6E6E6E;" d="M359.537,318.678c0,0,15.244,40.688-17.65,81.376c-11.232-0.904-81.034-10.85-79.43-90.417C275.294,299.69,321.829,277.085,359.537,318.678z"></path><path style="fill:#505050;" d="M295.868,297.099c0,0-32.087,14.547-23.958,55.618c-6.417-11.124-8.384-30.376-7.528-41.928C270.371,302.661,288.595,299.238,295.868,297.099z"></path><path style="opacity:0.5;fill:#FFFFFF;" d="M356.329,330.885c0-1.356-6.018-9.042-20.86-12.207c4.011,4.974,8.825,12.658,8.825,12.658s-3.209-3.616-10.029-3.616c3.209,4.521,13.238,17.632,13.238,17.632l-3.209-8.59l6.418,0.452c0,0-2.808-7.686-6.418-10.851C347.904,326.363,356.329,330.885,356.329,330.885z"></path></g></g></g></svg>