<svg xmlns="http://www.w3.org/2000/svg" width="500" height="500" version="1.1"><g id="x046"><g><g><path data-trait-type="Tail" data-trait-value="Dog Tail" style="fill:#6E6E6E;stroke:#000000;stroke-linecap:round;stroke-linejoin:round;" d="M268.959,340.178c0,0,45.543,5.258,61.964-59.581c17.874-4.767,34.557,25.023,20.257,42.898c0,4.766,14.3,39.322-26.215,41.705c-4.839,13.979-36.941,33.365-54.814,0C264.192,355.668,268.959,340.178,268.959,340.178z"></path><path style="fill:#505050;" d="M310.699,324.242c-0.938,0.938-10.623,9.582-2.187,16.144c-1.875,4.375-5,10.936,3.749,15.311c1.875,1.249-6.874,10.414,7.499,14.788c-2.188,3.125-17.289,15.728-29.162,11.04c-11.873-4.687-26.454-15.31-20.413-39.473C294.452,342.469,310.699,324.242,310.699,324.242z"></path><path style="fill:none;stroke:#000000;stroke-linecap:round;stroke-linejoin:round;" d="M351.18,323.495c0,0-6.685,6.006-11.371,9.755"></path></g></g></g></svg>