<svg xmlns="http://www.w3.org/2000/svg" width="500" height="500" version="1.1"><g id="x048"><g><g><path data-trait-type="Tail" data-trait-value="Panda Tail" style="fill:#FFFFFF;stroke:#000000;stroke-linecap:round;stroke-linejoin:round;" d="M269.829,405.303c29.191,1.868,51.841-19.194,51.841-19.194c5.713-4.284,25.707-24.99,5.713-54.98c0,0,3.569,2.142,7.139-2.143c-7.854-5.713-12.137-17.138-42.128-19.28c-27.506-1.964-65.824,26.104-50.497,77.045C243.281,391.351,254.235,404.304,269.829,405.303z"></path><path style="fill:#FFFFFF;stroke:#000000;stroke-linecap:round;stroke-linejoin:round;" d="M280.969,341.838c0,0,9.283,10.711,3.57,19.28c-5.713,8.567-17.137,9.996-27.848-0.716c-0.714,7.141,3.57,14.996,3.57,14.996l-6.426,2.143c0,0-2.145,34.273,42.843,31.417c44.984-2.855,57.837-42.842,34.273-72.834"></path><path style="fill:#6E6E6E;" d="M328.095,395.393c0,0,4.286-16.425-2.854-22.137c-7.14-5.713-24.278,8.568-24.278,8.568s4.998-13.566-4.999-20.706c5.713-3.572,5.001-22.136-11.424-25.706c3.569-2.857,5.712-4.999,5.712-4.999s-15.757-1.016-27.848,7.14c-14.488,9.774-24.59,31.245-7.854,63.552c14.281,2.855,14.281,2.855,14.281,2.855s4.999,5.712,27.849,4.998C319.527,408.244,328.095,395.393,328.095,395.393z"></path><path style="fill:#505050;" d="M283.41,350.31c0,0-16.724-2.759-19.578,12.949C268.206,368.438,288.607,367.138,283.41,350.31z"></path></g></g></g></svg>