<svg xmlns="http://www.w3.org/2000/svg" width="500" height="500" version="1.1"><g id="x049"><path data-trait-type="Tail" data-trait-value="Demon Tail" style="fill:#6E6E6E;stroke:#000000;stroke-linecap:round;stroke-linejoin:round;" d="M359.919,325.379c-12.258,1.211-27.606,11.444-31.582,21.889c0,0,6.249-0.619,11.066,0.697c-6.348,6.419-7.994,16.354-9.498,25.464c-2.627,15.917-4.896,29.664-27.271,30.873c-13.232,0.715-24.281-2.914-32.838-10.788c-13.483-12.408-17.018-31.905-17.106-34.977c0,0,0,0.01,0,0.03c0-2.649-2.147-4.797-4.797-4.797s-4.797,2.147-4.797,4.797c0,3.555,3.623,26.304,19.647,41.484c10.609,10.053,24.205,14.705,40.409,13.829c13.348-0.722,22.652-5.32,28.444-14.058c4.894-7.38,6.357-16.252,7.773-24.831c1.71-10.356,3.15-17.423,7.902-21.156c3.83,4.277,7.779,9.611,7.779,9.611S363.101,343.105,359.919,325.379z"></path></g></svg>