<svg xmlns="http://www.w3.org/2000/svg" width="500" height="500" version="1.1"><g id="x050"><path data-trait-type="Tail" data-trait-value="Demon Tail" style="fill:#6E6E6E;stroke:#000000;stroke-linecap:round;stroke-linejoin:round;" d="M312.218,380.441c-7.195-17.98-43.309-34.744-67.478-26.544c-2.349,0.797-3.606,3.347-2.81,5.695s3.347,3.606,5.695,2.81c19.472-6.606,50.625,7.31,56.254,21.375c0.85,2.123,3.435,8.583-9.63,14.642c-22.475,10.424-57.509-0.576-85.659-9.415c-18.673-5.863-33.422-10.494-42.108-8.26c-15.302,3.935-21.921,22.873-24.634,35.051c-4.436-2.982-10.001-7.836-10.001-7.836s-3.069,18.952,2.995,33.55c10.28-3.347,21.511-15.009,22.952-24.711c0,0-3.591,1.166-7.311,1.443c2.418-11.117,7.909-26.144,18.236-28.8c6.205-1.596,21.252,3.129,37.182,8.131c29.628,9.303,66.501,20.88,92.128,8.995C316.79,397.865,314.202,385.397,312.218,380.441z"></path></g></svg>