<svg xmlns="http://www.w3.org/2000/svg" width="500" height="500" version="1.1"><g id="x051"><g><g><path data-trait-type="Tail" data-trait-value="Dragon Tail" style="fill:#57383D;stroke:#000000;stroke-linecap:round;stroke-linejoin:round;" d="M327.224,424.546c0.28,0.441,0.302,0.854,0.287,0.964c0.221-1.635,4.849-7.51,14.548-13.684c9.698-6.176,16.979-7.884,18.555-7.393c-0.106-0.033-0.471-0.227-0.752-0.667l0,0c1.184,1.859,3.651,2.408,5.512,1.224c1.859-1.185,2.407-3.651,1.223-5.512l0,0c-0.641-1.007-1.905-2.32-4.287-2.848c-6.151-1.366-16.709,3.475-24.538,8.46s-16.683,12.503-18.048,18.654c-0.528,2.381,0.126,4.082,0.767,5.09l0,0c1.185,1.859,3.652,2.407,5.512,1.224C327.86,428.874,328.408,426.406,327.224,424.546L327.224,424.546z"></path></g><path style="fill:#6E6E6E;stroke:#000000;stroke-linecap:round;stroke-linejoin:round;" d="M263.293,344.347c-11.873-5.323-58.141-15.56-91.713-11.055c-19.142,2.567-57.689,11.94-60.187,56.91c-2.866,51.589,58.548,68.376,87.209,56.912c28.661-11.464,80.25-44.629,104.406-49.132c24.156-4.504,47.086,24.565,47.903,32.754c1.639-3.275,6.143-2.047,6.143-2.047s2.456-27.842-55.274-42.991c-57.73-15.148-101.54,33.574-128.153,26.205c-22.109-10.237-13.101-29.889-7.37-36.85c6.961-4.913,18.424-1.638,20.063-0.819c1.637,0.819,36.439,24.566,80.25,5.323C272.711,375.464,280.238,351.942,263.293,344.347z"></path><path style="fill:#505050;" d="M173.985,412.466c0,0,16.837,15.813,51.64-3.839c25.56-14.434,32.039-21.803,32.039-21.803s-27.483,7.063-54.813,21.188C182.788,416.61,173.985,412.466,173.985,412.466z"></path><path style="fill:none;stroke:#000000;stroke-linecap:round;stroke-linejoin:round;" d="M166.667,441.791c0,0,10.235,2.457,7.779,7.37"></path><path style="fill:#505050;" d="M167.075,372.597c0,0,13.512-16.787,44.219-16.787c30.708,0,58.704,8.291,60.342,9.521c-0.614,6.448-5.478,12.998-5.478,12.998s-9.62,5.887-32.139,7.114c-22.519,1.229-40.688-8.598-50.207-14.125C174.804,370.499,167.075,372.597,167.075,372.597z"></path><path style="fill:none;stroke:#000000;stroke-linecap:round;stroke-linejoin:round;" d="M194.507,376.69c0,0,11.465,2.048,20.881-9.007"></path><ellipse transform="matrix(0.9999 -0.011 0.011 0.9999 -3.6766 1.9191)" style="fill:none;stroke:#000000;stroke-linecap:round;stroke-linejoin:round;" cx="172.807" cy="335.543" rx="5.732" ry="2.662"></ellipse><ellipse transform="matrix(0.9999 -0.0111 0.0111 0.9999 -4.1569 2.812)" style="fill:none;stroke:#000000;stroke-linecap:round;stroke-linejoin:round;" cx="251.83" cy="376.754" rx="5.732" ry="2.662"></ellipse><g><path style="fill:#505050;stroke:#000000;stroke-linecap:round;stroke-linejoin:round;" d="M347.842,424.391c-0.819,1.228,0.409,8.188-6.551,11.873s-18.015,0.818-27.432,23.338c19.652,2.457,37.668,0.41,41.762-11.873s0.818-28.661-2.048-30.708"></path><path style="fill:none;stroke:#000000;stroke-linecap:round;stroke-linejoin:round;" d="M316.52,456.939c1.228-0.408,27.021,0.41,34.802-20.472"></path><path style="fill:none;stroke:#000000;stroke-linecap:round;stroke-linejoin:round;" d="M340.267,459.807c0,0,7.778-5.323,8.598-12.693"></path><path style="fill:none;stroke:#000000;stroke-linecap:round;stroke-linejoin:round;" d="M327.165,443.838c0,0,11.464,1.638,17.605-4.504"></path></g><path style="fill:none;stroke:#000000;stroke-linecap:round;stroke-linejoin:round;" d="M165.023,406.027c0,0,5.866,9.513,26.874,11.204"></path><path style="fill:none;stroke:#000000;stroke-linecap:round;stroke-linejoin:round;" d="M161.549,383.651c0-1.638,2.866-9.826,13.511-18.425"></path><g><path style="fill:#FFBF00;stroke:#000000;stroke-linecap:round;stroke-linejoin:round;" d="M359.861,403.767c-0.28-0.441-0.302-0.853-0.286-0.963c-0.222,1.634-4.851,7.509-14.548,13.684c-9.698,6.175-16.979,7.883-18.554,7.393c0.105,0.033,0.47,0.227,0.75,0.666l0,0c-1.184-1.858-3.65-2.407-5.511-1.223c-1.86,1.184-2.408,3.65-1.224,5.512l0,0c0.641,1.006,1.906,2.319,4.287,2.848c6.152,1.366,16.71-3.476,24.539-8.46c3.85-2.452,22.774-15.115,17.28-23.744l0,0c-1.184-1.859-3.65-2.407-5.511-1.224C359.226,399.439,358.678,401.907,359.861,403.767L359.861,403.767z"></path></g><path style="fill:none;stroke:#000000;stroke-linecap:round;stroke-linejoin:round;" d="M119.99,411.902c0,0,2.865,6.961,6.551,5.322c3.685-1.638,3.275-5.322,3.275-5.322s3.48,3.07,6.347,1.023s3.071-5.527,1.843-7.983"></path><ellipse transform="matrix(0.9816 -0.1907 0.1907 0.9816 -80.2246 45.9923)" style="fill:none;stroke:#000000;stroke-linecap:round;stroke-linejoin:round;" cx="198.806" cy="439.744" rx="6.346" ry="3.071"></ellipse><path style="fill:none;stroke:#000000;stroke-linecap:round;stroke-linejoin:round;" d="M131.454,374.234c0,0-2.456,7.37,5.323,9.417c4.515,1.188,6.142-3.275,6.142-3.275"></path><path style="fill:none;stroke:#000000;stroke-linecap:round;stroke-linejoin:round;" d="M166.818,352.632c0,0-5.695,4.922-5.027,7.023c0.668,2.102,6.971,0.098,6.971,0.098s-6.601,6.088-3.073,8.397"></path><path style="fill:none;stroke:#000000;stroke-linecap:round;stroke-linejoin:round;" d="M160.524,411.084c0,0,3.276,4.094,6.142,2.865c2.865-1.229,2.457-2.865,2.457-2.865"></path><path style="fill:none;stroke:#000000;stroke-linecap:round;stroke-linejoin:round;" d="M216.617,414.769c0,0,4.913-3.685,5.732-1.229c0.819,2.457-2.457,5.322-2.457,5.322s4.504,0,5.323,2.456c0.819,2.457-4.095,5.324-4.095,5.324"></path><path style="fill:none;stroke:#000000;stroke-linecap:round;stroke-linejoin:round;" d="M334.944,402.895c0,0,1.637,1.638,6.55,1.229"></path><path style="fill:none;stroke:#000000;stroke-linecap:round;stroke-linejoin:round;" d="M202.287,354.581c0,0,7.371,2.867,9.417,0c2.047-2.866-2.867-4.504-2.867-4.504s4.094-0.818,5.733-3.274c1.637-2.457-6.142-4.096-6.142-4.096"></path></g></g></svg>