<svg xmlns="http://www.w3.org/2000/svg" width="500" height="500" version="1.1"><g id="x052"><g><path data-trait-type="Tail" data-trait-value="Raccoon Tail" style="fill:#6E6E6E;stroke:#000000;stroke-linecap:round;stroke-linejoin:round;" d="M247.723,355.623c-3.146,5.689-3.989,11.391,3.276,20.309c7.206,8.844,19.604,30.542,61.58,29.479c25.877-0.654,51.1-26.204,33.411-45.53c-16.29-17.799-31.788,3.127-50.116,3.604C270.652,364.14,250.869,349.933,247.723,355.623z"></path><path style="fill:#505050;" d="M262.135,386.086c0,0,13.431,19.653,49.134,17.688c0,0,18.344,1.311,35.05-16.378c2.292-7.534,0-21.619,0-21.619s-6.88,25.222-39.963,25.877C273.272,392.31,262.135,386.086,262.135,386.086z"></path><path d="M302.425,362.501c0,0,11.465,5.241,12.448,19.981c0.982,14.74-5.039,22.601-5.039,22.601s13.228,1.966,17.813-3.603c6.224-8.516,5.368-31.527-12.647-43.647C309.759,359.798,302.425,362.501,302.425,362.501z"></path><path d="M321.751,355.295c0,0,15.068,0,21.291,14.412c6.224,14.412,0,22.603,0,22.603s15.782-13.23,5.568-28.498C336.917,346.333,321.751,355.295,321.751,355.295z"></path></g></g></svg>