<svg xmlns="http://www.w3.org/2000/svg" width="500" height="500" version="1.1"><g id="x053"><g><path data-trait-type="Tail" data-trait-value="Fox Tail" style="fill:#6E6E6E;" d="M338.136,381.168c0.345-0.689-7.92-0.345-11.019-3.443c-2.412-8.609-12.506-30.49-28.238-37.191c-18.596-7.92-44.079,1.033-49.933,5.51c-5.854,4.477-6.543,24.104-6.543,24.104s6.198,27.205,36.503,33.403C309.209,409.75,333.314,396.664,338.136,381.168z"></path><path style="fill:#505050;" d="M304.389,390.466c0,0-39.601-4.821-58.541-36.158c-4.133,12.053-3.444,15.84-3.444,15.84s13.086,29.271,32.025,32.37c18.94,3.099,24.45,2.066,24.45,2.066l3.788-2.411l-5.165-5.509l9.642-3.1L304.389,390.466z"></path><g><path style="fill:#FFFFFF;" d="M327.117,377.725c5.854,2.409,11.02,4.476,11.02,4.476s-12.054,21.695-37.88,22.728c2.41-1.032,3.788-2.41,3.788-2.41l-7.577-6.199l10.676-2.754c0,0-5.854-4.821-6.198-15.841c5.854,1.722,12.396,4.478,12.396,4.478l-0.344-30.648C312.998,351.553,320.229,359.817,327.117,377.725z"></path><path style="fill:#EDEBD6;" d="M319.885,389.776c11.709-1.722,15.842-4.821,15.842-4.821s-7.921,15.496-34.438,19.284c1.378-2.066,2.755-3.099,2.755-3.099l-7.576-4.822l10.676-2.754l-2.066-3.444C305.077,390.12,311.125,391.064,319.885,389.776z"></path></g><path style="fill:none;stroke:#000000;stroke-linecap:round;stroke-linejoin:round;" d="M298.879,404.584c3.787-1.033,5.165-3.443,5.165-3.443l-7.576-5.854c0,0,6.544-0.688,10.676-1.722c-5.51-4.82-6.887-16.186-6.887-16.186s8.608,2.756,13.085,4.822c0.688-2.755-1.033-29.959-1.033-29.959"></path><path style="fill:none;stroke:#000000;stroke-linecap:round;stroke-linejoin:round;" d="M338.136,381.168c0.345-0.689-7.92-0.345-11.019-3.443c-2.412-8.609-12.506-30.49-28.238-37.191c-18.596-7.92-44.079,1.033-49.933,5.51c-5.854,4.477-6.543,24.104-6.543,24.104s6.198,27.205,36.503,33.403C300.746,408.019,329.527,401.829,338.136,381.168z"></path><path style="fill:none;stroke:#000000;stroke-linecap:round;stroke-linejoin:round;" d="M326.984,377.925c-0.899-0.609-2.065-1.416-3.396-2.376"></path></g></g></svg>