<svg xmlns="http://www.w3.org/2000/svg" width="500" height="500" version="1.1"><g id="x056"><g><path data-trait-type="Tail" data-trait-value="Cat Tail" style="fill:#6E6E6E;stroke:#000000;stroke-linecap:round;stroke-linejoin:round;" d="M246.809,357.468c0,0-2.279,4.052,0.605,13.383c54.266,10.179,74.021-9.499,73.976-45.329c-0.018-15.11-6.912-43.404-4.826-46.28c2.085-2.875,10.588,8.995,15.483,8.598c4.896-0.399,8.15-7.911,7.493-11.239s-3.606-12.269-14.124-16.825c-10.517-4.556-28.459,4.15-22.353,30.519c6.106,26.366,7.956,41.967-0.186,57.124C294.737,362.574,246.809,357.468,246.809,357.468z"></path><path style="fill:none;stroke:#000000;stroke-linecap:round;stroke-linejoin:round;" d="M322.625,271.79c0,0-7.049,1.251-6.648,8.562"></path></g></g></svg>