<svg xmlns="http://www.w3.org/2000/svg" width="500" height="500" version="1.1"><g id="x006" data-trait-type="Wings" data-trait-value="Young Adult Black Feather"><g><g><g><path style="fill:#6E6E6E;stroke:#000000;stroke-linecap:round;stroke-linejoin:round;" d="M178.662,359.563c0.374,6.734,13.096,10.477,14.219,10.104c1.123-0.374-1.123-27.691-1.123-39.291c3.368-8.979,5.988-20.206,3.742-23.199c-1.122-0.374-10.104-2.993-17.212,1.87c-3.742-0.373-17.588,0.001-24.697,4.117c-4.864-1.122-30.683-7.858-35.174-3.368c-4.49,4.49,16.464,13.47,19.458,13.845c-6.735,0.75-11.226,1.122-9.729,2.621c1.497,1.497,6.735,4.114,9.729,4.114c-4.865,1.498-16.465,6.363-17.213,10.853c3.555,3.181,17.587,10.103,21.33,7.857C155.087,350.956,178.662,359.563,178.662,359.563z"></path><path style="fill:#505050;" d="M178.848,310.543c0,0-13.096,5.239-16.277,10.291c-3.368-3.742-8.981-7.111-8.981-7.111S171.926,309.234,178.848,310.543z"></path><path style="fill:none;stroke:#000000;stroke-linecap:round;stroke-linejoin:round;" d="M159.203,316.529c0,0-3.367-2.992-7.109-3.367"></path><path style="fill:#6E6E6E;stroke:#000000;stroke-linecap:round;stroke-linejoin:round;" d="M185.771,357.691c0,0,5.987,16.464,16.839,22.076c-5.24-21.703-10.852-39.664-11.226-40.787"></path><path style="fill:#505050;stroke:#000000;stroke-linecap:round;stroke-linejoin:round;" d="M149.849,377.898c-0.854,5.13-2.549,17.984-1.497,29.561c1.25,13.755,5.484,26.023,7.109,25.819c2.994-0.374,8.981-43.032,8.981-43.032"></path><path style="fill:#505050;stroke:#000000;stroke-linecap:round;stroke-linejoin:round;" d="M152.093,342.161c-0.749,1.123-14.593,30.685-13.097,55.382c14.968-13.846,23.2-35.548,23.2-35.548"></path><path style="fill:#505050;stroke:#000000;stroke-linecap:round;stroke-linejoin:round;" d="M182.042,395.684c1.301,1.344,13.315,21.066,30.967,29.185c3.176-3.282-24.569-55.067-24.569-55.067"></path><g><path style="fill:#6E6E6E;stroke:#000000;stroke-linecap:round;stroke-linejoin:round;" d="M147.977,373.407c0,0,7.859,22.077,18.71,33.677c9.729,17.962,20.581,38.168,27.69,41.911c1.871-15.343,1.497-50.892-10.478-87.189"></path><path style="fill:#505050;" d="M169.119,395.859c4.303-7.856,5.8-19.644,2.619-32.555c-1.071-4.345-23.2,8.419-23.2,8.419s8.794,23.387,19.646,34.801c2.993,6.548,19.458,35.923,24.883,39.104c1.311-6.174,0.187-35.362-1.684-44.154c-0.561,5.426-4.598,9.889-10.477,8.42C177.526,409.046,171.738,401.286,169.119,395.859z"></path><path style="fill:none;stroke:#000000;stroke-linecap:round;stroke-linejoin:round;" d="M171.926,371.91c0.375,1.87,0.748,14.594-3.368,24.323"></path></g><path style="fill:#6E6E6E;stroke:#000000;stroke-linecap:round;stroke-linejoin:round;" d="M168.184,352.078c0,0,16.465,44.529,29.562,53.51c4.865-10.852-7.11-49.767-8.233-53.51"></path><path style="fill:#505050;" d="M193.816,373.78c0,0,5.238,22.827,2.994,28.628c-5.426-3.743-20.955-29.375-23.761-42.472c0,0,1.496-10.478,3.555-12.722c0.374,8.606,3.18,20.394,4.865,23.574c1.683,3.182,6.174,12.722,10.103,12.349C195.501,382.764,193.816,373.78,193.816,373.78z"></path><path style="fill:#6E6E6E;stroke:#000000;stroke-linecap:round;stroke-linejoin:round;" d="M173.425,352.553c-2.535,9.902-7.883,25.512-17.589,29.087c-4.116-1.122-3.368-31.058,3.368-42.283"></path><path style="fill:#505050;" d="M175.121,351.944c1.482-1.988,1.482-4.73,1.482-4.73s-0.468-2.315-2.807-1.684c-0.936,0.188-13.169,27.689-16.278,29c-1.941,0.818-2.502-3.251-2.502-3.251s-0.305,7.181,1.005,8.302c1.311,1.124,12.91-9.354,15.342-25.631C172.558,349.739,175.154,351.493,175.121,351.944z"></path><path style="fill:#6E6E6E;stroke:#000000;stroke-linecap:round;stroke-linejoin:round;" d="M142.364,335.613c0,0-15.716,10.104-16.838,37.419c11.974-1.497,28.813-21.702,31.807-30.309"></path><path style="fill:#505050;" d="M156.771,340.292c0,0-11.976,26.381-29.563,30.498c0.187-3.556,1.497-9.729,1.497-9.729s-1.123,3.368,2.433,3.929C134.694,365.551,156.771,340.292,156.771,340.292z"></path></g><path style="fill:#505050;" d="M171.926,368.356"></path></g><g><g><path style="fill:#6E6E6E;stroke:#000000;stroke-linecap:round;stroke-linejoin:round;" d="M321.338,359.563c-0.373,6.734-13.096,10.477-14.219,10.104c-1.122-0.374,1.123-27.691,1.123-39.291c-3.369-8.979-5.987-20.206-3.742-23.199c1.122-0.374,10.104-2.993,17.213,1.87c3.741-0.373,17.587,0.001,24.697,4.117c4.862-1.122,30.683-7.858,35.174-3.368c4.489,4.49-16.465,13.47-19.457,13.845c6.735,0.75,11.225,1.122,9.728,2.621c-1.498,1.497-6.735,4.114-9.728,4.114c4.862,1.498,16.463,6.363,17.212,10.853c-3.556,3.181-17.588,10.103-21.33,7.857C344.913,350.956,321.338,359.563,321.338,359.563z"></path><path style="fill:#505050;" d="M321.151,310.543c0,0,13.097,5.239,16.277,10.291c3.368-3.742,8.981-7.111,8.981-7.111S328.074,309.234,321.151,310.543z"></path><path style="fill:none;stroke:#000000;stroke-linecap:round;stroke-linejoin:round;" d="M340.797,316.529c0,0,3.368-2.992,7.109-3.367"></path><path style="fill:#6E6E6E;stroke:#000000;stroke-linecap:round;stroke-linejoin:round;" d="M314.229,357.691c0,0-5.986,16.464-16.838,22.076c5.238-21.703,10.851-39.664,11.226-40.787"></path><path style="fill:#505050;stroke:#000000;stroke-linecap:round;stroke-linejoin:round;" d="M350.151,377.898c0.854,5.13,2.548,17.984,1.497,29.561c-1.25,13.755-5.484,26.023-7.11,25.819c-2.992-0.374-8.979-43.032-8.979-43.032"></path><path style="fill:#505050;stroke:#000000;stroke-linecap:round;stroke-linejoin:round;" d="M347.906,342.161c0.748,1.123,14.594,30.685,13.097,55.382c-14.968-13.846-23.198-35.548-23.198-35.548"></path><path style="fill:#505050;stroke:#000000;stroke-linecap:round;stroke-linejoin:round;" d="M317.957,395.684c-1.302,1.344-13.314,21.066-30.967,29.185c-3.176-3.282,24.569-55.067,24.569-55.067"></path><g><path style="fill:#6E6E6E;stroke:#000000;stroke-linecap:round;stroke-linejoin:round;" d="M352.022,373.407c0,0-7.858,22.077-18.711,33.677c-9.729,17.962-20.58,38.168-27.689,41.911c-1.872-15.343-1.497-50.892,10.478-87.189"></path><path style="fill:#505050;" d="M330.881,395.859c-4.303-7.856-5.801-19.644-2.619-32.555c1.071-4.345,23.199,8.419,23.199,8.419s-8.794,23.387-19.646,34.801c-2.992,6.548-19.457,35.923-24.883,39.104c-1.311-6.174-0.188-35.362,1.683-44.154c0.562,5.426,4.599,9.889,10.478,8.42C322.474,409.046,328.262,401.286,330.881,395.859z"></path><path style="fill:none;stroke:#000000;stroke-linecap:round;stroke-linejoin:round;" d="M328.074,371.91c-0.374,1.87-0.748,14.594,3.367,24.323"></path></g><path style="fill:#6E6E6E;stroke:#000000;stroke-linecap:round;stroke-linejoin:round;" d="M331.816,352.078c0,0-16.465,44.529-29.562,53.51c-4.865-10.852,7.11-49.767,8.232-53.51"></path><path style="fill:#505050;" d="M306.184,373.78c0,0-5.238,22.827-2.992,28.628c5.425-3.743,20.954-29.375,23.761-42.472c0,0-1.497-10.478-3.555-12.722c-0.374,8.606-3.181,20.394-4.865,23.574c-1.683,3.182-6.174,12.722-10.103,12.349C304.5,382.764,306.184,373.78,306.184,373.78z"></path><path style="fill:#6E6E6E;stroke:#000000;stroke-linecap:round;stroke-linejoin:round;" d="M326.576,352.553c2.534,9.902,7.882,25.512,17.589,29.087c4.116-1.122,3.367-31.058-3.369-42.283"></path><path style="fill:#505050;" d="M324.879,351.944c-1.482-1.988-1.482-4.73-1.482-4.73s0.469-2.315,2.807-1.684c0.936,0.188,13.17,27.689,16.277,29c1.941,0.818,2.504-3.251,2.504-3.251s0.304,7.181-1.005,8.302c-1.312,1.124-12.911-9.354-15.343-25.631C327.442,349.739,324.847,351.493,324.879,351.944z"></path><path style="fill:#6E6E6E;stroke:#000000;stroke-linecap:round;stroke-linejoin:round;" d="M357.636,335.613c0,0,15.716,10.104,16.838,37.419c-11.974-1.497-28.812-21.702-31.806-30.309"></path><path style="fill:#505050;" d="M343.229,340.292c0,0,11.976,26.381,29.562,30.498c-0.187-3.556-1.497-9.729-1.497-9.729s1.124,3.368-2.431,3.929C365.306,365.55,343.229,340.292,343.229,340.292z"></path></g><path style="fill:#505050;" d="M328.074,368.356"></path></g></g></g></svg>