<svg xmlns="http://www.w3.org/2000/svg" width="500" height="500" version="1.1"><g id="a9063" data-trait-type="Wings" data-trait-value="Metal Wings"><g><g><path style="fill:#3F343D;stroke:#000000;stroke-linecap:round;stroke-linejoin:round;" d="M351.724,377.833c-0.587-1.548-10.532-29.384-42.907-45.009c0,0,14.319,7.463,23.461,28.436l-3.054,13.406l9.757-2.592c0.623,0.632,1.174,1.222,1.608,1.698c2.338,8.526-2.45,22.388-3.531,24.395c-1.168,2.167-6.167,3.999-6.167,3.999l2.667,26.333l11.499,21.5l2.833-4.5l1-20.5C353.971,413,355.39,387.499,351.724,377.833z"></path><path style="fill:#21161F;" d="M344.191,364.167c0,0,5.279,9.166,4.112,23.666c-1.16,14.421-3.166,36.417-3.166,39.667s2,17,2,17l1-18.625c0,0,4.125-12.5,4.375-20.875c0.5-7.25,1.228-19.396-0.988-26.5C349.536,372.125,344.191,364.167,344.191,364.167z"></path><path style="opacity:0.5;fill:#FFFFFF;" d="M337.392,399.5c4.833-10.166,4.333-22.166,4.333-22.166s-0.507-6.91-5.532-12.45c0.145-0.137,0.284-0.285,0.422-0.435c2.54,1.945,5.716,5.116,6.109,9.051c0.667,6.666-1.166,23.168-3.666,27.334s-4.001,4.666-4.168,5.166s1.667,20.666,1.667,21.166S346.224,446,346.224,446l-1.001,2.666L334.391,428.5l-2.666-25.834C331.725,402.666,335.391,401.667,337.392,399.5z"></path><g><path style="fill:#3F343D;stroke:#000000;stroke-linecap:round;stroke-linejoin:round;" d="M320.891,377.165c0,0,0.668-4.333,1.167-4.833c2.149-9.261,3.093-8.267,3.665-18c0,0,5.803,1.668,6.636,3.001s2.698,8.499,1.115,14.416L320.891,377.165z"></path><path style="fill:#21161F;" d="M324.941,367.625c0,0,0.375-3.625,4.25-4.25s4.5,3.75,4.5,3.75s-0.5-7.375-1.5-9.375c-2.125-1.5-6-2.625-6-2.625s0,7.375-2.375,11.5c-0.625,2.625,0.375,6.25,0.375,6.25L324.941,367.625z"></path></g><g id="wingXMLID_14_"><g><path style="fill:#3F343D;stroke:#000000;stroke-linecap:round;stroke-linejoin:round;" d="M341.562,361.83c0,0,0.16,6.67-0.67,9.34c-0.83,2.66-5.67,14.5-6.5,14.33c-0.84-0.17-4.67-0.83-8,0.33c-3.33,1.17-6.5,2.34-8,7.17s0,12.5,0,12.5l-7,4.17c0,0-6.67-6.67-8.67-7.34c-2-0.66-5-1.16-8,0.5c-3,1.67-8.83,7.34-8.83,7.34l-2.83,3.83l-5.09,27.33c-1.5-6.83-8.91-22.33-9.58-23c-0.67-0.66-16.67-10.5-16.67-10.5l1.47-11.913c3.16,3.5,10.7,9.253,17.37,8.083c6.66-1.17,15.33-13.33,15.33-13.33c7.3,2.08,14.8-1.42,14.8-1.42c7.33-3.83,12.7-12.25,14.7-15.08c2-2.84,2.83-9.17,2.83-9.17l5.17-0.5c0.83,3.5,1,6,5.17,5.33c4.5-0.33,11.16-8.83,11.16-8.83L341.562,361.83z"></path></g><path style="fill:#21161F;" d="M334.387,384.417c0,0,0.571-0.889,1.379-2.353c0.817-2.176,0.934-4.647,1.426-6.814c0.435-1.914,1.897-2.555,2.748-2.769c0.184-0.594,0.358-1.19,0.511-1.794c0.717-2.842,0.867-5.957,0.438-8.438l-0.834-0.25c0,0-5,13.5-19.667,25.417C320.387,387.417,325.303,384,334.387,384.417z"></path><path style="fill:#21161F;" d="M260.608,403.75c0,0,4.917,3.334,9.5,5.417c0.917,3.75,2.75,11.083,2.75,11.083S262.275,410.417,260.608,403.75z"></path><path style="fill:#21161F;" d="M321.066,365.125L318.691,373c0,0,3.25-3.25,6.375-3c0.125-0.5-1.5-2.875-2-4.875C322.191,365,321.066,365.125,321.066,365.125z"></path><path style="fill:#6E6E6E;stroke:#000000;stroke-linecap:round;stroke-linejoin:round;" d="M302.816,389.25c0,0-1.5,0-2.75,0.063c0,0,9.526-7.611,12.86-12.611S318.224,365,318.224,365l2.53-0.063c0,0-1.063,6.813-7.563,15.188C307.626,387.296,302.816,389.25,302.816,389.25z"></path></g><path style="fill:#3F343D;stroke:#000000;stroke-linecap:round;stroke-linejoin:round;" d="M337.391,360.799c0,0,0.135,2.002-6.532,8.335c0,0,7.032-3.169,9.032-8.169L337.391,360.799z"></path><path style="fill:#21161F;" d="M311.296,408.813c0,0-4.576-11.479-9.743-11.313s-7.861,5.333-9.861,7.166c0,0,6-5.649,11.104-2.979C307.894,404.354,309.796,407.313,311.296,408.813z"></path><path style="opacity:0.3;fill:#FFFFFF;" d="M286.129,391.375c0,0-5.188,8.375-14.313,13.063c-10.438,1.625-17.208-6.104-17.208-6.104s6,7.25,15.595,10.579L277.969,439l-0.584-6.25c0,0-5.328-20.961-4.443-23.875c0.401-1.321,6.322-4.551,8.813-7.625c2.201-2.719,4.069-5.986,5.074-7.659l-0.684-2.215L286.129,391.375z"></path><path style="opacity:0.5;fill:#FFFFFF;" d="M287.004,393.188c0,0,6.277,0.606,9.813-0.063c4.625-0.875,7.25-2,7.25-2l1.125-2.125c0,0-3.25,0.875-8.875,2.063c-4.999,1.056-10,0.188-10,0.188L287.004,393.188z"></path><path style="opacity:0.3;fill:#FFFFFF;" d="M333.816,372.5c-0.047,0.079-8.595,13.026-14.688,14.938c-6.375,2-14.563,3.563-14.563,3.563s8.745-2.176,12.938-5.25c3.75-2.75,4.063-5.5,6.438-7.125s2.875,0.25,5.625-2S333.816,372.5,333.816,372.5z"></path></g><g><path style="fill:#3F343D;stroke:#000000;stroke-linecap:round;stroke-linejoin:round;" d="M148.276,377.833c0.587-1.548,10.532-29.384,42.907-45.009c0,0-14.319,7.463-23.461,28.436l3.054,13.406l-9.757-2.592c-0.623,0.632-1.174,1.222-1.608,1.698c-2.338,8.526,2.45,22.388,3.531,24.395c1.168,2.167,6.167,3.999,6.167,3.999l-2.667,26.333l-11.499,21.5l-2.833-4.5l-1-20.5C146.029,413,144.61,387.499,148.276,377.833z"></path><path style="fill:#21161F;" d="M155.809,364.167c0,0-5.279,9.166-4.112,23.666c1.16,14.421,3.166,36.417,3.166,39.667s-2,17-2,17l-1-18.625c0,0-4.125-12.5-4.375-20.875c-0.5-7.25-1.228-19.396,0.988-26.5C150.464,372.125,155.809,364.167,155.809,364.167z"></path><path style="opacity:0.5;fill:#FFFFFF;" d="M162.608,399.5c-4.833-10.166-4.333-22.166-4.333-22.166s0.507-6.91,5.532-12.45c-0.145-0.137-0.284-0.285-0.422-0.435c-2.54,1.945-5.716,5.116-6.109,9.051c-0.667,6.666,1.166,23.168,3.666,27.334s4.001,4.666,4.168,5.166s-1.667,20.666-1.667,21.166S153.776,446,153.776,446l1.001,2.666l10.832-20.166l2.666-25.834C168.275,402.666,164.609,401.667,162.608,399.5z"></path><g><path style="fill:#3F343D;stroke:#000000;stroke-linecap:round;stroke-linejoin:round;" d="M179.109,377.165c0,0-0.668-4.333-1.167-4.833c-2.149-9.261-3.093-8.267-3.665-18c0,0-5.803,1.668-6.636,3.001s-2.698,8.499-1.115,14.416L179.109,377.165z"></path><path style="fill:#21161F;" d="M175.059,367.625c0,0-0.375-3.625-4.25-4.25s-4.5,3.75-4.5,3.75s0.5-7.375,1.5-9.375c2.125-1.5,6-2.625,6-2.625s0,7.375,2.375,11.5c0.625,2.625-0.375,6.25-0.375,6.25L175.059,367.625z"></path></g><g id="wingXMLID_21_"><g><path style="fill:#3F343D;stroke:#000000;stroke-linecap:round;stroke-linejoin:round;" d="M158.438,361.83c0,0-0.16,6.67,0.67,9.34c0.83,2.66,5.67,14.5,6.5,14.33c0.84-0.17,4.67-0.83,8,0.33c3.33,1.17,6.5,2.34,8,7.17s0,12.5,0,12.5l7,4.17c0,0,6.67-6.67,8.67-7.34c2-0.66,5-1.16,8,0.5c3,1.67,8.83,7.34,8.83,7.34l2.83,3.83l5.09,27.33c1.5-6.83,8.91-22.33,9.58-23c0.67-0.66,16.67-10.5,16.67-10.5l-1.47-11.913c-3.16,3.5-10.7,9.253-17.37,8.083c-6.66-1.17-15.33-13.33-15.33-13.33c-7.3,2.08-14.8-1.42-14.8-1.42c-7.33-3.83-12.7-12.25-14.7-15.08c-2-2.84-2.83-9.17-2.83-9.17l-5.17-0.5c-0.83,3.5-1,6-5.17,5.33c-4.5-0.33-11.16-8.83-11.16-8.83L158.438,361.83z"></path></g><path style="fill:#21161F;" d="M165.613,384.417c0,0-0.571-0.889-1.379-2.353c-0.817-2.176-0.934-4.647-1.426-6.814c-0.435-1.914-1.897-2.555-2.748-2.769c-0.184-0.594-0.358-1.19-0.511-1.794c-0.717-2.842-0.867-5.957-0.438-8.438l0.834-0.25c0,0,5,13.5,19.667,25.417C179.613,387.417,174.697,384,165.613,384.417z"></path><path style="fill:#21161F;" d="M239.392,403.75c0,0-4.917,3.334-9.5,5.417c-0.917,3.75-2.75,11.083-2.75,11.083S237.725,410.417,239.392,403.75z"></path><path style="fill:#21161F;" d="M178.934,365.125l2.375,7.875c0,0-3.25-3.25-6.375-3c-0.125-0.5,1.5-2.875,2-4.875C177.809,365,178.934,365.125,178.934,365.125z"></path><path style="fill:#6E6E6E;stroke:#000000;stroke-linecap:round;stroke-linejoin:round;" d="M197.184,389.25c0,0,1.5,0,2.75,0.063c0,0-9.526-7.611-12.86-12.611S181.776,365,181.776,365l-2.53-0.063c0,0,1.063,6.813,7.563,15.188C192.374,387.296,197.184,389.25,197.184,389.25z"></path></g><path style="fill:#3F343D;stroke:#000000;stroke-linecap:round;stroke-linejoin:round;" d="M162.609,360.799c0,0-0.135,2.002,6.532,8.335c0,0-7.032-3.169-9.032-8.169L162.609,360.799z"></path><path style="fill:#21161F;" d="M188.704,408.813c0,0,4.576-11.479,9.743-11.313s7.861,5.333,9.861,7.166c0,0-6-5.649-11.104-2.979C192.106,404.354,190.204,407.313,188.704,408.813z"></path><path style="opacity:0.3;fill:#FFFFFF;" d="M213.871,391.375c0,0,5.188,8.375,14.313,13.063c10.438,1.625,17.208-6.104,17.208-6.104s-6,7.25-15.595,10.579L222.031,439l0.584-6.25c0,0,5.328-20.961,4.443-23.875c-0.401-1.321-6.322-4.551-8.813-7.625c-2.201-2.719-4.069-5.986-5.074-7.659l0.684-2.215L213.871,391.375z"></path><path style="opacity:0.5;fill:#FFFFFF;" d="M212.996,393.188c0,0-6.277,0.606-9.813-0.063c-4.625-0.875-7.25-2-7.25-2L194.809,389c0,0,3.25,0.875,8.875,2.063c4.999,1.056,10,0.188,10,0.188L212.996,393.188z"></path><path style="opacity:0.3;fill:#FFFFFF;" d="M166.184,372.5c0.047,0.079,8.595,13.026,14.688,14.938c6.375,2,14.563,3.563,14.563,3.563s-8.745-2.176-12.938-5.25c-3.75-2.75-4.063-5.5-6.438-7.125s-2.875,0.25-5.625-2S166.184,372.5,166.184,372.5z"></path></g></g></g></svg>