<svg xmlns="http://www.w3.org/2000/svg" width="500" height="500" version="1.1"><g id="x9065" data-trait-type="Weapons" data-trait-value="Hammer"><g><g><g><g><path style="fill:#2E3234;stroke:#000000;stroke-linecap:round;stroke-linejoin:round;" d="M267.333,129.252c0,0-6.068-0.302-6.645,0.036c-1.482,3.172-5.103,11.955-6.748,20.223c-1.643,8.271-0.475,19.511-0.475,19.511l5.747,1.898L267.333,129.252z"></path><g><path style="fill:#363A3C;stroke:#000000;stroke-linecap:round;stroke-linejoin:round;" d="M311.292,158.175c5.29-26.591,26.589-45.915,51.88-49.959l9.8-49.265l-53.782-10.699c0,0,9.105,8.975,6.939,17.292c-2.164,8.317-11.755,15.457-15.865,16.449c-4.113,0.991-11.414,5.763-11.414,5.763l1.574,0.942c-20.612,14.654-35.482,35.851-40.526,61.208c-9.929,49.912,21.481,99.501,72.431,120.073l7.537-7.229l9.768-12.466l0.685-21.055C322.279,218.387,305.225,188.672,311.292,158.175z"></path><path style="fill:#1B1E1E;" d="M269.54,189.838c0,0,2.523,3.381,10.761,0.542c3.474-1.195,6.084-6.464,6.084-6.464s0.694,19.004,22.982,40.383c-8.061-1.282-12.854-1.277-13.466,1.798c-0.613,3.077-0.854,7.503-0.854,7.503S276.7,214.924,269.54,189.838z"></path></g><g><path style="fill:#616467;" d="M301.408,250.454c0,0,9.764,8.179,19.5,12.873c8.076,4.005,9.738,4.096,9.738,4.096l8.871-7.827c0,0-16.403-6.142-23.074-9.986c-6.669-3.845-16.317-11.401-16.317-11.401l-5.738,5.935L301.408,250.454z"></path><path style="fill:#616467;" d="M259.021,159.128c0.063,0.492-2.224,20.102,4.099,38.548c5.059,14.753,13.776,28.319,13.776,28.319l4.066,6.083l7.929-3.697c0,0-9.596-8.555-18.359-30.67c-8.942-22.564-5.667-37.42-5.667-37.42L259.021,159.128z"></path><path style="opacity:0.5;fill:#FFFFFF;" d="M266.11,203.866c0,0,4.124,3.377,5.656-1.115c2.158,6.827,9.184,21.334,17.372,26.798c-2.949,3.572-4.854,5.11-4.854,5.11S267.658,213.767,266.11,203.866z"></path></g><g><path style="fill:#616467;" d="M280.277,108.519c0,0-12.13,14.374-16.512,30.769c1.999,0.4,5.69,1.132,5.69,1.132s1.838-7.628,8.684-17.937c6.849-10.308,11.702-14.619,11.702-14.619l-4.123-3.378L280.277,108.519z"></path><path style="opacity:0.5;fill:#FFFFFF;" d="M271.829,132.1c0,0-3.095-4.933-2.636-6.041c0.461-1.107,6.091-0.467,6.091-0.467L271.829,132.1z"></path><path style="fill:#616467;" d="M320.936,49.203c0,0,9.152,9.032,5.18,18.554c-3.971,9.522-12.944,13.652-12.944,13.652l-1.299,7.335c0,0,5.375-2.338,11.094-5.546c3.188-1.789,7.201-3.604,8.711-6.021c4.222-6.753,4.443-15.504,4.443-15.504l34.527,6.869l1.744-8.767L320.936,49.203z"></path><path style="opacity:0.5;fill:#FFFFFF;" d="M312.361,87.881c0,0,15.274-7.671,17.334-9.181c2.061-1.508,2.978-5.323,2.978-5.323s-5.716,3.82-7.531,3.298c-1.813-0.52-1.696-3.534-1.696-3.534s-6.019,6.956-10.077,8.068C312.266,84.345,312.361,87.881,312.361,87.881z"></path><path style="opacity:0.5;fill:#FFFFFF;" d="M322.193,49.709l13.421,11.302l17.068,3.396c0,0-16.64-3.151-17.968-7.731c-0.666-2.299,2.428-3.354,8.98-2.531C336.928,52.8,322.193,49.709,322.193,49.709z"></path></g></g><g><path style="fill:#2E3234;stroke:#000000;stroke-linecap:round;stroke-linejoin:round;" d="M484.776,172.505c0,0,5.722,2.042,6.127,2.576c0.155,3.499,0.137,12.997-1.509,21.266c-1.644,8.27-7.026,18.208-7.026,18.208l-6.037-0.447L484.776,172.505z"></path><g><path style="fill:#363A3C;stroke:#000000;stroke-linecap:round;stroke-linejoin:round;" d="M467.905,122.773l1.816-0.268c0,0-4.919-7.203-8.337-9.693c-3.42-2.489-9.547-12.757-8.364-21.269c1.183-8.511,13.03-13.318,13.03-13.318l-53.604-10.662l-9.686,48.688c22.778,13.119,35.775,39.706,30.363,66.917c-6.2,31.157-34.377,52.334-65.205,50.642l-7.313,19.417l4.258,15.253l4.195,9.566c54.944,0.488,102.938-33.304,112.865-83.216C486.969,169.474,481.343,144.201,467.905,122.773z"></path><path style="fill:#1B1E1E;" d="M459.553,227.637c0,0-3.625,2.153-10.151-3.62c-2.747-2.431-3.145-8.299-3.145-8.299s-7.914,17.292-36.688,28.515c7.937,1.898,12.366,3.737,11.755,6.815c-0.613,3.075-2.084,7.258-2.084,7.258S443.336,248.07,459.553,227.637z"></path></g><g><path style="fill:#616467;" d="M406.915,271.443c0,0-12.151,3.817-22.944,4.428c-8.994,0.608-10.563,0.059-10.563,0.059l-5.202-10.628c0,0,17.508,0.603,25.141-0.396c7.633-0.998,19.438-4.286,19.438-4.286l3.03,7.677L406.915,271.443z"></path><path style="fill:#616467;" d="M481.023,203.289c-0.244,0.431-5.639,19.423-18.538,34.043c-10.319,11.695-23.565,20.891-23.565,20.891l-6.083,4.068l-5.91-6.453c0,0,12.137-4.231,28.698-21.309c16.896-17.424,19.555-32.402,19.555-32.402L481.023,203.289z"></path><path style="opacity:0.5;fill:#FFFFFF;" d="M457.354,241.906c0,0-5.101,1.544-4.798-3.192c-4.609,5.479-16.651,16.193-26.306,18.11c1.357,4.425,2.53,6.577,2.53,6.577S452.136,250.462,457.354,241.906z"></path></g><g><path style="fill:#616467;" d="M480.752,148.397c0,0,5.706,17.921,3.482,34.746c-2-0.399-5.694-1.134-5.694-1.134s1.224-7.749-1.155-19.894c-2.381-12.144-5.218-17.984-5.218-17.984l5.101-1.543L480.752,148.397z"></path><path style="opacity:0.5;fill:#FFFFFF;" d="M479.531,173.414c0,0,4.75-3.372,4.747-4.572c-0.001-1.199-5.445-2.761-5.445-2.761L479.531,173.414z"></path><path style="fill:#616467;" d="M465.89,78.037c0,0-11.914,4.841-11.888,15.158c0.025,10.316,6.739,17.567,6.739,17.567l-1.61,7.275c0,0-4.072-4.218-8.125-9.372c-2.26-2.871-5.276-6.084-5.746-8.895c-1.315-7.856,1.828-16.024,1.828-16.024l-34.525-6.868l1.743-8.765L465.89,78.037z"></path><path style="opacity:0.5;fill:#FFFFFF;" d="M459.008,117.053c0,0-11.175-12.935-12.5-15.117s-0.714-6.058-0.714-6.058s3.819,5.718,5.696,5.931c1.875,0.212,2.918-2.618,2.918-2.618s2.898,8.73,6.224,11.31C460.452,113.823,459.008,117.053,459.008,117.053z"></path><path style="opacity:0.5;fill:#FFFFFF;" d="M464.535,78.023l-16.725,5.308l-17.07-3.396c0,0,16.578,3.457,19.558-0.266c1.494-1.87-0.957-4.029-7.327-5.774C449.739,75.239,464.535,78.023,464.535,78.023z"></path></g></g></g><g><path style="fill:#1B1E1E;stroke:#000000;stroke-linecap:round;stroke-linejoin:round;" d="M433.458,184.09c5.194-26.112-18.065-41.222-18.065-41.222l9.234-46.422l-13.822-6.671l-3.519-0.059l-1.687,0.984l-9.938,49.977l3.976,5.24l9.334,1.857c0,0,8.196,10.981,8.92,15.045c-0.433,2.177-6.062,30.465-6.062,30.465s-8.729,11.385-25.284,15.028c-9.167-1.823-20.302-4.038-20.302-4.038s-11.134-2.215-20.3-4.039c-13.898-9.702-17.612-23.561-17.612-23.561s5.629-28.289,6.063-30.465c2.223-3.478,13.999-10.485,13.999-10.485l9.332,1.856l5.682-3.32l9.94-49.976l-1.18-1.554l-3.274-1.292l-15.322,0.874l-9.231,46.422c0,0-27.272,5.059-32.47,31.17c-6.804,34.203,24.953,50.022,41.714,55.895l-7.709,34.628l-21.2,19.767l54.751,10.887l-12.023-26.37l6.129-34.943C391.264,220.756,426.654,218.293,433.458,184.09z"></path><g><path style="fill:#1B1E1E;" d="M412.429,193.562c0,0-10.333,12.572-26.613,15.25c-0.523,0.614-0.646,0.831-0.646,0.831s14.947,0.016,27.999-14.975C412.675,193.929,412.429,193.562,412.429,193.562z"></path><rect x="413.083" y="185.821" transform="matrix(-0.981 -0.1938 0.1938 -0.981 782.629 457.0655)" style="fill:#1B1E1E;" width="1.177" height="8.86"></rect><g><polygon style="fill:#1B1E1E;" points="396.354,140.721 400.075,145.559 400.247,144.244 397.892,141.026 408.017,90.123 406.233,91.046 "></polygon><rect x="400.018" y="145.212" transform="matrix(0.9808 0.1951 -0.1951 0.9808 36.2523 -76.2307)" style="fill:#1B1E1E;" width="10.055" height="1.353"></rect><path style="fill:#1B1E1E;" d="M409.365,147.376c0,0,7.994,10.554,8.998,15.15c-0.352,1.768-1.668,8.381-1.668,8.381l1.309,0.26l1.896-9.534c0,0-2.482-6.411-9.791-15.428C409.26,147.206,409.365,147.376,409.365,147.376z"></path></g></g><g><path style="fill:#1B1E1E;" d="M327.861,176.737c0,0,4.735,15.571,18.753,24.275c0.247,0.771,0.277,1.015,0.277,1.015s-13.813-5.706-20.136-24.549C327.491,176.984,327.861,176.737,327.861,176.737z"></path><rect x="327.394" y="168.775" transform="matrix(0.9809 0.1946 -0.1946 0.9809 39.9742 -60.5117)" style="fill:#1B1E1E;" width="1.172" height="8.86"></rect><g><polygon style="fill:#1B1E1E;" points="362.935,134.073 357.646,137.118 357.988,135.838 361.397,133.767 371.521,82.863 372.815,84.399 "></polygon><rect x="347.899" y="134.845" transform="matrix(-0.9808 -0.195 0.195 -0.9808 672.6586 337.251)" style="fill:#1B1E1E;" width="10.055" height="1.353"></rect><path style="fill:#1B1E1E;" d="M348.365,135.243c0,0-11.424,6.691-14.11,10.554c-0.35,1.769-1.667,8.381-1.667,8.381l-1.307-0.261l1.896-9.535c0,0,4.745-4.971,14.948-10.505C348.527,135.126,348.365,135.243,348.365,135.243z"></path></g></g></g><g><g><path style="fill:none;stroke:#000000;stroke-linecap:round;stroke-linejoin:round;" d="M311.62,91.652c-23.104,12.554-40.148,33.528-45.32,59.528c-8.954,45.014,20.738,89.728,67.953,106.335c0,0,5.194,2.057,7.324,2.479"></path><path style="fill:none;stroke:#000000;stroke-linecap:round;stroke-linejoin:round;" d="M309.524,90.405c0,0,8.055-4.513,17.739-9.593c9.691-5.085,8.646-19.09,8.646-19.09l35.365,7.034"></path><path style="fill:#2E3234;stroke:#000000;stroke-linecap:round;stroke-linejoin:round;" d="M375.787,83.716c0.089-0.435,4.445-22.341,4.445-22.341l-0.876-1.155l-5.321-1.059l-1.199,0.892l-4.676,23.502L375.787,83.716z"></path><rect x="356.344" y="82.564" transform="matrix(0.9808 0.1951 -0.1951 0.9808 24.9637 -67.9995)" style="fill:#6E6E6E;stroke:#000000;stroke-linecap:round;stroke-linejoin:round;" width="2.824" height="20.384"></rect><path style="fill:#6E6E6E;stroke:#000000;stroke-linecap:round;stroke-linejoin:round;" d="M349.188,250.8l-19.214,17.896l2.581,1.569c0,0,19.176-17.99,19.652-17.858l7.619-38.3c-0.998-0.348-1.979-0.723-2.943-1.12L349.188,250.8z"></path><g><path style="fill:#6E6E6E;stroke:#000000;stroke-linecap:round;stroke-linejoin:round;" d="M325.396,160.408c2.646-13.31,11.46-24.005,23.375-30.308l7.93-39.858c-34.971,5.398-63.582,29.255-70.182,62.433c-8.104,40.745,19.845,81.206,63.535,94.648l6.829-34.334C334.698,203.883,321.057,182.217,325.396,160.408z"></path><path style="opacity:0.5;fill:#FFFFFF;" d="M291.872,138.645c0.489-0.862,4.786-11.199,9.026-14.831c0.19,5.472,4.124,4.976,4.124,4.976s-7.003,7.879-8.592,15.876C295.259,140.917,291.872,138.645,291.872,138.645z"></path><path style="opacity:0.5;fill:#FFFFFF;" d="M350.93,92.517c0,0,0.806,5.596,2.035,5.839c1.229,0.245,2.698-7.137,2.698-7.137L350.93,92.517z"></path><path style="fill:#505050;stroke:#000000;stroke-linecap:round;stroke-linejoin:round;" d="M353.911,101.776l0.541-2.722c-29.194,6.092-52.903,26.081-60.163,53.582l2.76,0.549C304.006,127.063,326.314,107.972,353.911,101.776z"></path><path style="fill:#505050;stroke:#000000;stroke-linecap:round;stroke-linejoin:round;" d="M297.045,152.511c0.28-1.388,0.599-2.76,0.958-4.112l-2.763-0.549c-0.357,1.354-0.674,2.726-0.949,4.115c-7.515,37.775,18.012,75.292,58.182,88.327l0.489-2.463C314.317,225.112,289.8,188.937,297.045,152.511z"></path><g><path style="fill:#505050;" d="M308.021,136.893c0,0,3.929-12.036,17.996-21.152c14.052-9.106,21.733-10.003,21.733-10.003l3.237,4.262l-4.455,18.117c0,0-5.556,3.117-8.889,5.32c-3.332,2.204-5.248,4.989-5.248,4.989s-3.08-0.764-3.485-1.297c-0.406-0.533-0.714-12.659-0.714-12.659s10.032-7.656,11.784-7.911c0.318,0.968,0.318,0.968,0.318,0.968l-0.277,5.675l-3.248,1.768l-0.221-2.305l-3.64,2.894c0,0-0.497,5.934,0.226,7.435c3.62-3.653,9.347-7.643,9.347-7.643l2.618-12.296l-1.511-1.809c0,0-9.306,3.125-17.238,8.787c-7.932,5.661-13.459,16.325-13.459,16.325s2.584,11.824,2.411,15.258c-0.309,3.257-4.323,0.348-4.323,0.348S309.18,141.347,308.021,136.893z"></path><path style="fill:#505050;" d="M317.632,135.638l6.365-7.179c0,0,0.589,3.887,0.599,5.549c-1.55,1.804-2.566,3.279-2.566,3.279l0.476,2.412l2.485-1.692c0,0,1.233,4.921,1.581,5.744c-1.435,1.223-2.897,2.591-2.897,2.591s0.589,3.887,0.003,7.692c-3.41-0.83-4.17-1.283-4.17-1.283S320.543,144.965,317.632,135.638z"></path><path style="fill:#505050;" d="M300.992,149.671c0.045-0.217,2.102-3.824,4.138-5.397c-0.048,4.402-0.825,25.002-0.825,25.002l11.081-1.812l-0.284-2.093l4.969,0.367c0,0,0.913,4.083,0.754,4.561c-0.158,0.477-18.725,3.967-21.193,3.534c-1.496-1.77-0.775-20.175,1.319-23.944"></path><path style="fill:#505050;" d="M341.167,228.469c0,0-11.153-2.332-26.252-19.475c-16.009-18.171-14.651-31.926-14.651-31.926c-0.018-0.229,1.066-0.863,1.562-1.104c0.496-0.242,19.168-3.313,19.689-3.04c0.519,0.273,0.771,6.713,1.505,10.084c0.732,3.368,3.9,6.374,4.049,6.913c0.148,0.537-4.339,13.783-4.339,13.783s-0.602,0.786-1.115,0.798c-0.513,0.009-2.852-1.7-6.931-6.865c-4.079-5.167-4.029-9.907-4.029-9.907s5.041-2.56,5.286-2.512c0.246,0.051,1.44,3.342,1.266,3.588c-0.178,0.249-2.167,1.267-2.167,1.267s0.204,4.112,5.149,7.811c1.283-3.251,2.475-6.351,2.475-6.351s-5.657-7.175-5.653-12.322c-2.804,0.291-10.307,2.078-10.558,2.368c0,0,0.051,11.942,12,24.387c11.948,12.444,19.887,16.173,19.887,16.173c0.68-0.208,2.613-9.605,2.742-10.26c-1.028-0.598-8.141-5.916-8.521-6.896c-0.288,0.168-0.474,0.47-0.474,0.47s-0.678,3.711-0.674,4.335c0.006,0.622,2.578,2.773,2.821,2.822c0.373-1.226,0.878-2.484,0.878-2.484c0.523-0.064,3.012,2.185,3.314,2.923c-0.203,1.654-1.149,5.765-1.354,5.837c-0.205,0.073-0.794,0.124-0.794,0.124s-9.897-7.341-10.051-8.5c0.001-1.924,3.245-13.099,3.505-13.442c0.26-0.345,1.023-0.983,0.98-0.766c-0.043,0.217,3.862,6.252,7.832,9.079c3.971,2.825,6.457,5.074,6.48,5.926c0.022,0.853-2.536,14.992-3.827,16.999"></path><path style="fill:#505050;" d="M349.352,213.301c0,0-0.983,3.026-0.612,3.724c0.375,0.694,2.237,2.537,2.122,3.135c-0.119,0.6-0.533,2.664-0.533,2.664s-2.609-0.348-3.038,0.19c-0.423,0.537-2.354,6.713-2.081,7.275c0.269,0.563,1.027,0.601,1.328,0.378c0.298-0.222,2.27-6.278,2.27-6.278s1.121-0.171,1.218,0.298c0.096,0.472-1.541,5.18-1.577,5.682c-0.037,0.501-0.047,1.518,1.109,1.804c1.156,0.289,1.415-1.018,1.415-1.018s3.029-15.233,3.004-15.748c-0.026-0.513-0.332-1.536-0.955-1.604c-0.628-0.067-1.272,0.935-1.389,1.194s-0.605,3.048-0.605,3.048s-0.955-0.984-1.011-1.333c-0.061-0.351,0.839-2.944,0.699-3.197C350.572,213.26,349.758,212.872,349.352,213.301z"></path></g></g><g><path style="fill:#2E3234;stroke:#000000;stroke-linecap:round;stroke-linejoin:round;" d="M300.116,80.804c0,0-1.612-1.302-2.961-1.795c-1.135,0.151-4.739,0.716-10.06,4.785c-5.019,3.842-6.85,7.913-6.979,8.565c-0.131,0.653,1.281,2.969,1.281,2.969L300.116,80.804z"></path><path style="fill:#1B1E1E;" d="M290.412,82.079c0,0,2.661,0.689,2.479,2.811c2.182-1.724,6.207-4.28,6.207-4.28s-1.262-0.891-1.954-1.029C294.654,79.646,291.06,81.646,290.412,82.079z"></path><polygon style="fill:#2E3234;stroke:#000000;stroke-linecap:round;stroke-linejoin:round;" points="299.484,111.368 301.354,113.096 304.299,113.683 315.708,105.094 316.902,103.371 314.098,99.495 "></polygon><polygon style="fill:#1B1E1E;" points="309.46,105.291 311.058,107.289 309.907,108.658 315.47,104.809 316.145,103.423 314.497,101.256 "></polygon><path style="fill:#2E3234;stroke:#000000;stroke-linecap:round;stroke-linejoin:round;" d="M275.417,104.015l5.895,6.303l4.218-3.234l2.484,0.344l6.117,6.042l3.158,1.232c0,0,19.057-15.361,19.826-15.813c1.001-1.608,1.231-2.77,1.231-2.77l-6.214-7.269c0,0-0.289-3.677,2.819-5.624c-2.051-2.52-6.444-6.107-6.444-6.107s-1.25-0.551-1.964-0.391c-0.713,0.159-9.59,4.577-17.698,11.108c-8.105,6.531-13.104,13.681-13.104,13.681L275.417,104.015z"></path><path style="opacity:0.5;fill:#FFFFFF;" d="M311.802,89.09l5.936,7.536c0,0-0.069,0.345-0.946,0.531C315.429,94.968,311.802,89.09,311.802,89.09z"></path><path style="fill:#1B1E1E;" d="M305.447,77.634c0,0,1.044-0.432,1.29-0.462c0.246-0.032,1.477,0.213,1.678,0.413c0.199,0.2,5.77,5.543,5.77,5.543s-1.286,1.664-1.488,1.863C312.065,84.545,305.447,77.634,305.447,77.634z"></path><g><polygon style="fill:#1B1E1E;stroke:#000000;stroke-linecap:round;stroke-linejoin:round;" points="302.148,107.041 299.321,109.224 293.222,102.988 296.049,100.805 "></polygon><polygon points="295.083,104.71 297.331,102.758 296.2,101.215 293.55,103.085 "></polygon><polygon style="fill:#1B1E1E;stroke:#000000;stroke-linecap:round;stroke-linejoin:round;" points="306.861,103.454 304.037,105.639 297.933,99.402 300.758,97.217 "></polygon><polygon points="299.844,100.98 302.091,99.029 300.959,97.485 298.307,99.357 "></polygon><polygon style="fill:#1B1E1E;stroke:#000000;stroke-linecap:round;stroke-linejoin:round;" points="311.574,99.867 308.747,102.052 302.647,95.816 305.473,93.632 "></polygon><polygon points="304.556,97.48 306.804,95.531 305.671,93.985 303.021,95.856 "></polygon></g></g><g><polygon style="fill:#2E3234;stroke:#000000;stroke-linecap:round;stroke-linejoin:round;" points="250.907,151.924 246.97,149.482 248.124,143.679 253.691,142.223 "></polygon><g><path style="fill:#2E3234;stroke:#000000;stroke-linecap:round;stroke-linejoin:round;" d="M289.918,134.649c0,0-2.482,9.914-2.301,10.704c10.151,2.018,51.245,10.193,51.245,10.193l3.229,5.165l-1.415,7.109l-5.796,2.617l-50.265-9.997c0,0-1.025,9.446-0.691,11.173c-1.26,0.351-1.779,0.4-1.779,0.4l0.067,1.37l-7.077-0.352c0,0-3.816-6.489-3.084-11.021c-7.042-1.4-19.319-3.842-19.319-3.842s-3.188-1.086-2.929-2.393c0.74-2.87,3.348-16.827,3.348-16.827s2.696-1.577,3.736-1.671c6.875,1.369,18.991,3.777,18.991,3.777s3.6-6.975,6.641-7.727c0.503-0.806,1.051-0.999,1.051-0.999L289.918,134.649z"></path><path style="fill:#1B1E1E;" d="M287.351,136.466l-3.288,4.063c0,0-3.938,7.421-4.521,13.09c-0.771,7.501,2.06,13.359,2.06,13.359l0.25,4.766l1.581-0.324l0.904-11.172l0.899-2.1l1.521-10.967l2.147-10.486L287.351,136.466z"></path><polygon style="fill:#1B1E1E;" points="254.771,151.335 255.941,156.519 272.32,159.775 272.994,156.393 255.908,153.075 "></polygon><polygon style="fill:#1B1E1E;" points="339.262,168.055 338.206,167.412 334.695,167.691 285.407,157.887 283.824,159.81 334.972,169.985 "></polygon><polyline style="fill:none;stroke:#000000;stroke-linecap:round;stroke-linejoin:round;" points="287.617,145.354 288.987,147.887 336.957,157.43 339.634,160.223 338.278,167.042 334.658,168.131 285.541,158.36 "></polyline><path style="fill:none;stroke:#000000;stroke-linecap:round;stroke-linejoin:round;" d="M281.827,171.045l-0.068-3.936c0,0-3.661-5.554-2.131-13.242c1.528-7.688,4.465-13.891,4.465-13.891c2.06-1.512,3.225-4.157,3.225-4.157"></path><path style="fill:#2E3234;stroke:#000000;stroke-linecap:round;stroke-linejoin:round;" d="M275.878,141.056c-0.586,1.242-1.558,5.271-1.558,5.271l-16.538-3.288l-1.626,1.334l-1.385,6.963l1.377,1.631l16.698,3.322c0,0-0.673,4.239-0.384,5.354"></path><polyline style="fill:none;stroke:#000000;stroke-linecap:round;stroke-linejoin:round;" points="256.908,153.419 257.633,154.919 272.039,157.786 "></polyline><polyline style="fill:none;stroke:#000000;stroke-linecap:round;stroke-linejoin:round;" points="258.659,142.91 260.613,141.641 274.203,144.344 "></polyline></g></g><g><g><path style="fill:#2E3234;stroke:#000000;stroke-linecap:round;stroke-linejoin:round;" d="M277.998,240.56c0,0-0.944,2.188-0.563,2.83c0.384,0.644,3.2,3.803,4.262,4.243c1.063,0.438,3.063-0.635,3.063-0.635L277.998,240.56z"></path><path style="fill:#2E3234;stroke:#000000;stroke-linecap:round;stroke-linejoin:round;" d="M278.705,235.726c0,0-0.966,4.218-0.707,4.834c0.26,0.619,5.08,6.553,6.185,6.772c1.104,0.222,5.85-0.533,5.85-0.533L278.705,235.726z"></path></g><g><path style="fill:#2E3234;stroke:#000000;stroke-linecap:round;stroke-linejoin:round;" d="M276.393,225.539l-1.475,1.628l1.475,4.14c0,0,1.841,4.211,2.224,4.853c0.382,0.643,9.894,11.243,13.374,13.634c5.576,2.127,9.224,2.399,9.224,2.399l0.976-4.898l-4.745-1.169l-2.177-1.901l6.117-6.363c-0.34-0.857,1.993-4.241,1.993-4.241s-8.041-7.706-8.879-7.984c-1.729,0.334-3.127,0.959-3.127,0.959l-1.884-0.149c0,0-7.491,4.279-7.824,4.666c-1.444-2.04-1.955-4.915-1.955-4.915L276.393,225.539z"></path><path style="fill:none;stroke:#000000;stroke-linecap:round;stroke-linejoin:round;" d="M282.757,231.723c0.13,0.311,9.122,9.958,11.403,11.655"></path></g><g><polygon style="fill:#1B1E1E;stroke:#000000;stroke-linecap:round;stroke-linejoin:round;" points="287.414,232.569 286.297,231.253 290.953,228.174 292.069,229.491 "></polygon><polygon style="fill:#1B1E1E;stroke:#000000;stroke-linecap:round;stroke-linejoin:round;" points="291.297,236.449 290.035,235.243 294.273,231.721 295.535,232.927 "></polygon><polygon style="fill:#1B1E1E;stroke:#000000;stroke-linecap:round;stroke-linejoin:round;" points="295.277,240.59 293.902,239.484 297.756,235.625 299.129,236.732 "></polygon></g></g><path style="fill:#2E3234;stroke:#000000;stroke-linecap:round;stroke-linejoin:round;" d="M318.119,267.318c0,0,0.577-6.106,1.365-6.855c4.542,2.825,10.895,5.559,10.895,5.559l0.525,4.407L318.119,267.318z"></path></g><g><path style="fill:none;stroke:#000000;stroke-linecap:round;stroke-linejoin:round;" d="M460.096,121.186c16.541,20.441,24.263,46.341,19.091,72.339c-8.954,45.016-53.498,74.965-103.473,72.237c0,0-5.586-0.091-7.716-0.514"></path><path style="fill:none;stroke:#000000;stroke-linecap:round;stroke-linejoin:round;" d="M462.509,120.835c0,0-5.714-7.252-12.716-15.651c-7.008-8.406-0.684-20.947-0.684-20.947l-35.363-7.035"></path><path style="fill:#2E3234;stroke:#000000;stroke-linecap:round;stroke-linejoin:round;" d="M403.851,89.297c0.087-0.435,4.443-22.34,4.443-22.34l1.251-0.73l5.32,1.057l0.767,1.284l-4.674,23.501L403.851,89.297z"></path><rect x="415.64" y="94.358" transform="matrix(-0.9808 -0.1949 0.1949 -0.9808 805.7371 288.3596)" style="fill:#6E6E6E;stroke:#000000;stroke-linecap:round;stroke-linejoin:round;" width="2.822" height="20.384"></rect><path style="fill:#6E6E6E;stroke:#000000;stroke-linecap:round;stroke-linejoin:round;" d="M364.481,253.843l10.908,23.887l-2.986,0.462c0,0-10.832-23.958-11.323-24.02l7.617-38.299c1.055,0.061,2.104,0.089,3.148,0.089L364.481,253.843z"></path><g><path style="fill:#6E6E6E;stroke:#000000;stroke-linecap:round;stroke-linejoin:round;" d="M421.058,179.437c2.647-13.309-1.4-26.564-9.996-36.946l7.927-39.859c30.241,18.369,47.545,51.361,40.945,84.539c-8.103,40.743-49.41,67.429-94.918,63.129l6.83-34.337C395.825,216.043,416.721,201.245,421.058,179.437z"></path><path style="opacity:0.5;fill:#FFFFFF;" d="M460.358,172.159c-0.125-0.984-0.137-12.178-2.664-17.158c-2.271,4.984-5.716,3.02-5.716,3.02s3.455,9.96,1.862,17.957C456.36,172.962,460.358,172.159,460.358,172.159z"></path><path style="opacity:0.5;fill:#FFFFFF;" d="M423.449,106.942c0,0-2.887,4.861-4.116,4.617c-1.229-0.246,0.238-7.627,0.238-7.627L423.449,106.942z"></path><path style="fill:#505050;stroke:#000000;stroke-linecap:round;stroke-linejoin:round;" d="M417.149,114.355l0.542-2.722c24.642,16.801,38.897,44.342,35.079,72.526l-2.761-0.548C453.578,156.815,440.274,130.64,417.149,114.355z"></path><path style="fill:#505050;stroke:#000000;stroke-linecap:round;stroke-linejoin:round;" d="M450.271,182.991c0.276-1.389,0.508-2.78,0.689-4.166l2.764,0.548c-0.189,1.389-0.42,2.775-0.696,4.166c-7.514,37.776-45.457,62.667-87.557,59.339l0.49-2.464C406.533,243.454,443.025,219.417,450.271,182.991z"></path><g><path style="fill:#505050;" d="M446.107,164.361c0,0,0.979-12.624-8.531-26.429c-9.497-13.791-16.249-17.56-16.249-17.56l-4.622,2.7l-2.816,18.442c0,0,3.938,5.005,6.174,8.316c2.233,3.311,2.939,6.618,2.939,6.618s3.139,0.472,3.719,0.136c0.577-0.337,5.504-11.422,5.504-11.422s-6.34-10.913-7.861-11.819c-0.664,0.772-0.664,0.772-0.664,0.772l-1.915,5.35l2.322,2.874l1.087-2.044l2.256,4.067c0,0-1.811,5.672-3.054,6.783c-1.946-4.761-5.712-10.638-5.712-10.638l2.29-12.363l2.087-1.092c0,0,7.399,6.448,12.563,14.714c5.165,8.267,6.188,20.231,6.188,20.231s-6.912,9.936-8.067,13.177c-0.962,3.125,3.862,1.974,3.862,1.974S443.336,168.032,446.107,164.361z"></path><path style="fill:#505050;" d="M437.709,159.524l-3.132-9.07c0,0-2.033,3.366-2.679,4.898c0.743,2.258,1.118,4.011,1.118,4.011l-1.364,2.047l-1.649-2.516c0,0-3.021,4.075-3.657,4.701c0.858,1.68,1.685,3.503,1.685,3.503s-2.03,3.366-2.942,7.105c3.465,0.54,4.342,0.412,4.342,0.412S431.448,167.025,437.709,159.524z"></path><path style="fill:#505050;" d="M447.712,178.857c0.045-0.219-0.478-4.338-1.756-6.572c-1.642,4.085-8.807,23.416-8.807,23.416l-9.545-5.915l1.065-1.825l-4.733-1.563c0,0-2.404,3.425-2.441,3.927c-0.036,0.5,15.784,10.829,18.227,11.372c2.063-1.059,8.435-18.342,7.949-22.623"></path><path style="fill:#505050;" d="M380.441,236.28c0,0,11.196,2.112,31.706-7.944c21.745-10.662,25.753-23.89,25.753-23.89c0.103-0.205-0.655-1.205-1.02-1.616c-0.365-0.412-16.441-10.397-17.027-10.343c-0.586,0.053-3.281,5.908-5.249,8.74c-1.967,2.833-6.044,4.396-6.387,4.837c-0.344,0.441-1.268,14.395-1.268,14.395s0.254,0.958,0.727,1.163c0.47,0.206,3.285-0.477,9.029-3.689c5.747-3.211,7.514-7.61,7.514-7.61s-3.677-4.294-3.922-4.342c-0.247-0.05-2.611,2.534-2.542,2.832c0.067,0.295,1.517,1.998,1.517,1.998s-1.764,3.72-7.744,5.244c0.058-3.495,0.145-6.815,0.145-6.815s7.97-4.465,9.937-9.218c2.479,1.34,8.728,5.863,8.849,6.227c0,0-4.617,11.013-20.42,17.937c-15.802,6.924-24.563,7.33-24.563,7.33c-0.55-0.449,1.262-9.871,1.394-10.525c1.18-0.161,9.784-2.353,10.512-3.112c0.201,0.267,0.259,0.617,0.259,0.617s-0.797,3.688-1.039,4.263c-0.242,0.574-3.44,1.576-3.687,1.528c0.127-1.276,0.143-2.63,0.143-2.63c-0.46-0.261-3.619,0.864-4.181,1.43c-0.447,1.607-1.147,5.767-0.982,5.912c0.16,0.146,0.682,0.419,0.682,0.419s11.955-2.994,12.539-4.008c0.74-1.779,2.017-13.341,1.908-13.76c-0.108-0.418-0.569-1.3-0.613-1.084c-0.046,0.219-5.962,4.3-10.712,5.393c-4.747,1.091-7.907,2.215-8.253,2.994c-0.348,0.78-3.394,14.821-2.969,17.167"></path><path style="fill:#505050;" d="M378.685,219.135c0,0-0.249,3.173-0.859,3.674c-0.611,0.501-3.041,1.487-3.16,2.085c-0.118,0.6-0.53,2.667-0.53,2.667s2.547,0.678,2.733,1.337c0.189,0.659-0.391,7.104-0.858,7.521c-0.464,0.417-1.178,0.16-1.372-0.162c-0.191-0.319,0.307-6.668,0.307-6.668s-0.968-0.588-1.237-0.191c-0.273,0.399-0.56,5.376-0.719,5.854c-0.156,0.476-0.537,1.419-1.714,1.242c-1.177-0.179-0.919-1.482-0.919-1.482s3.03-15.233,3.251-15.698c0.221-0.466,0.894-1.292,1.497-1.117c0.604,0.177,0.816,1.35,0.823,1.635c0.009,0.284-0.605,3.046-0.605,3.046s1.258-0.541,1.445-0.844c0.188-0.3,0.348-3.039,0.577-3.222C377.571,218.63,378.472,218.583,378.685,219.135z"></path></g></g><g><path style="fill:#2E3234;stroke:#000000;stroke-linecap:round;stroke-linejoin:round;" d="M474.876,115.566c0,0,1.988-0.584,3.424-0.526c0.989,0.575,4.103,2.475,7.459,8.27c3.172,5.472,3.301,9.933,3.173,10.585c-0.129,0.654-2.323,2.253-2.323,2.253L474.876,115.566z"></path><path style="fill:#1B1E1E;" d="M483.351,120.456c0,0-2.72-0.381-3.363,1.649c-1.357-2.428-4.098-6.331-4.098-6.331s1.507-0.34,2.198-0.203C480.364,116.585,482.923,119.811,483.351,120.456z"></path><polygon style="fill:#2E3234;stroke:#000000;stroke-linecap:round;stroke-linejoin:round;" points="463.764,144.044 461.375,144.927 458.429,144.341 451.176,132.041 450.73,129.99 454.804,127.484 "></polygon><polygon style="fill:#1B1E1E;" points="456.874,134.613 454.631,135.846 455.171,137.554 451.505,131.867 451.412,130.332 453.762,128.958 "></polygon><path style="fill:#2E3234;stroke:#000000;stroke-linecap:round;stroke-linejoin:round;" d="M488.813,146.464l-7.857,3.564l-2.66-4.602l-2.428-0.633l-7.963,3.242l-3.391-0.071c0,0-11.727-21.486-12.264-22.195c-0.31-1.871-0.078-3.033-0.078-3.033l8.521-4.335c0,0,1.675-3.287-0.451-6.273c2.856-1.543,8.289-3.177,8.289-3.177s1.368-0.03,1.966,0.391c0.597,0.42,7.108,7.898,12.097,17.035c4.991,9.136,6.871,17.654,6.871,17.654L488.813,146.464z"></path><path style="opacity:0.5;fill:#FFFFFF;" d="M460.909,118.75l-8.367,4.691c0,0-0.068,0.346,0.67,0.853C455.309,122.792,460.909,118.75,460.909,118.75z"></path><path style="fill:#1B1E1E;" d="M471.163,110.597c0,0-0.8-0.799-1.017-0.92c-0.215-0.123-1.442-0.367-1.704-0.26c-0.262,0.108-7.455,2.915-7.455,2.915s0.556,2.029,0.662,2.289C462.403,114.451,471.163,110.597,471.163,110.597z"></path><g><polygon style="fill:#1B1E1E;stroke:#000000;stroke-linecap:round;stroke-linejoin:round;" points="462.956,139.028 464.734,142.127 472.756,138.7 470.98,135.602 "></polygon><polygon points="470.373,139.578 469.046,136.915 470.684,135.922 472.414,138.664 "></polygon><polygon style="fill:#1B1E1E;stroke:#000000;stroke-linecap:round;stroke-linejoin:round;" points="459.976,133.911 461.752,137.01 469.774,133.583 468.001,130.484 "></polygon><polygon points="467.406,134.311 466.077,131.649 467.714,130.656 469.445,133.397 "></polygon><polygon style="fill:#1B1E1E;stroke:#000000;stroke-linecap:round;stroke-linejoin:round;" points="456.994,128.794 458.77,131.893 466.794,128.466 465.02,125.368 "></polygon><polygon points="464.39,129.275 463.062,126.612 464.698,125.619 466.432,128.361 "></polygon></g></g><g><polygon style="fill:#2E3234;stroke:#000000;stroke-linecap:round;stroke-linejoin:round;" points="493.122,200.104 497.695,199.355 498.849,193.552 494.264,190.077 "></polygon><g><path style="fill:#2E3234;stroke:#000000;stroke-linecap:round;stroke-linejoin:round;" d="M463.693,169.217c0,0-1.499,10.107-1.972,10.768c-10.151-2.021-51.246-10.194-51.246-10.194l-4.958,3.538l-1.414,7.108l4.353,4.636l50.264,9.998c0,0-2.666,9.123-3.636,10.587c1.029,0.808,1.491,1.05,1.491,1.05l-0.587,1.241l6.674,2.383c0,0,6.011-4.535,7.068-9c7.038,1.4,19.317,3.842,19.317,3.842s3.361,0.216,3.62-1.088c0.414-2.936,3.348-16.829,3.348-16.829s-1.889-2.487-2.813-2.972c-6.877-1.367-18.993-3.777-18.993-3.777s-0.654-7.822-3.179-9.681c-0.154-0.936-0.587-1.324-0.587-1.324L463.693,169.217z"></path><path style="fill:#1B1E1E;" d="M465.371,171.876l1.479,5.01c0,0,0.799,8.364-0.831,13.825c-2.156,7.224-7.015,11.554-7.015,11.554l-2.056,4.308l-1.34-0.906L459.049,195l-0.021-2.283l2.789-10.716l2.03-10.507L465.371,171.876z"></path><polygon style="fill:#1B1E1E;" points="489.777,198.082 486.712,202.421 470.333,199.164 471.007,195.779 488.061,199.252 "></polygon><polygon style="fill:#1B1E1E;" points="405.322,181.196 406.544,181.005 409.678,182.605 458.965,192.409 459.69,194.793 408.549,184.619 "></polygon><polyline style="fill:none;stroke:#000000;stroke-linecap:round;stroke-linejoin:round;" points="461.722,179.985 459.484,181.803 411.515,172.26 407.97,173.816 406.616,180.635 409.545,183.027 458.661,192.796 "></polyline><path style="fill:none;stroke:#000000;stroke-linecap:round;stroke-linejoin:round;" d="M457.238,205.937l1.571-3.608c0,0,5.508-3.732,7.033-11.419c1.531-7.688,1.193-14.542,1.193-14.542c-1.327-2.184-1.391-5.075-1.391-5.075"></path><path style="fill:#2E3234;stroke:#000000;stroke-linecap:round;stroke-linejoin:round;" d="M474.21,180.508c0.069,1.37-0.574,5.465-0.574,5.465l16.534,3.289l0.993,1.857l-1.386,6.963l-1.895,0.98l-16.702-3.321c0,0-0.999,4.173-1.693,5.092"></path><polyline style="fill:none;stroke:#000000;stroke-linecap:round;stroke-linejoin:round;" points="487.006,199.191 485.762,200.3 471.355,197.434 "></polyline><polyline style="fill:none;stroke:#000000;stroke-linecap:round;stroke-linejoin:round;" points="489.41,188.81 488.088,186.887 474.499,184.185 "></polyline></g></g><g><g><path style="fill:#2E3234;stroke:#000000;stroke-linecap:round;stroke-linejoin:round;" d="M434.173,271.627c0,0,0.036,2.384-0.563,2.826c-0.599,0.449-4.413,2.29-5.561,2.29c-1.148-0.002-2.586-1.761-2.586-1.761L434.173,271.627z"></path><path style="fill:#2E3234;stroke:#000000;stroke-linecap:round;stroke-linejoin:round;" d="M435.37,266.889c0,0-0.722,4.269-1.197,4.738c-0.474,0.469-7.198,4.109-8.305,3.891c-1.105-0.223-5.2-2.731-5.2-2.731L435.37,266.889z"></path></g><g><path style="fill:#2E3234;stroke:#000000;stroke-linecap:round;stroke-linejoin:round;" d="M441.409,258.362l0.735,2.068l-2.948,3.26c0,0-3.312,3.185-3.914,3.63c-0.595,0.447-13.437,6.604-17.567,7.48c-5.969-0.171-9.44-1.313-9.44-1.313l0.973-4.896l4.832,0.734l2.737-0.925l-3.215-8.218c0.641-0.664-0.219-4.681-0.219-4.681s10.379-4.044,11.26-3.982c1.465,0.972,2.52,2.086,2.52,2.086l1.799,0.585c0,0,5.283,6.819,5.441,7.302c2.115-1.332,3.689-3.79,3.689-3.79L441.409,258.362z"></path><path style="fill:none;stroke:#000000;stroke-linecap:round;stroke-linejoin:round;" d="M433.161,261.642c-0.241,0.235-12.241,5.707-14.996,6.403"></path></g><g><polygon style="fill:#1B1E1E;stroke:#000000;stroke-linecap:round;stroke-linejoin:round;" points="428.53,260.639 430.068,259.852 426.944,255.226 425.408,256.016 "></polygon><polygon style="fill:#1B1E1E;stroke:#000000;stroke-linecap:round;stroke-linejoin:round;" points="423.46,262.738 425.088,262.105 422.521,257.23 420.892,257.864 "></polygon><polygon style="fill:#1B1E1E;stroke:#000000;stroke-linecap:round;stroke-linejoin:round;" points="418.198,265.042 419.892,264.544 417.809,259.505 416.115,260.003 "></polygon></g></g><path style="fill:#2E3234;stroke:#000000;stroke-linecap:round;stroke-linejoin:round;" d="M386.867,280.993c0,0,1.804-5.864,1.361-6.857c-5.276,0.876-12.188,0.967-12.188,0.967l-2.178,3.871L386.867,280.993z"></path></g></g></g><polygon style="fill:#6E6E6E;stroke:#000000;stroke-linecap:round;stroke-linejoin:round;" points="382.674,205.431 350.908,199.113 347.481,200.091 347.704,202.396 384.378,209.693 385.464,207.647 "></polygon><g><g><path style="fill:#2E3234;stroke:#000000;stroke-linecap:round;stroke-linejoin:round;" d="M339.47,306.25l-24.083,120.46l11.296,2.246l24.013-120.101C347.509,306.646,343.659,305.279,339.47,306.25z"></path><g><rect x="324.771" y="355.435" transform="matrix(0.9808 0.1951 -0.1951 0.9808 78.7321 -57.7071)" style="fill:#6E6E6E;stroke:#000000;stroke-linecap:round;stroke-linejoin:round;" width="15.179" height="30.913"></rect><rect x="331.727" y="357.5" transform="matrix(0.9806 0.1963 -0.1963 0.9806 79.3636 -58.1365)" style="opacity:0.5;fill:#FFFFFF;" width="2.587" height="27.754"></rect><polygon style="fill:#505050;" points="333.43,356.988 327.923,384.668 323.615,383.813 329.185,355.822 "></polygon><g><path style="fill:#505050;stroke:#000000;stroke-linecap:round;stroke-linejoin:round;" d="M335.494,362.844c-0.145,0.72-0.92,1.175-1.733,1.011c-0.813-0.159-1.357-0.877-1.213-1.597c0.143-0.723,0.919-1.175,1.732-1.01C335.094,361.408,335.638,362.118,335.494,362.844z"></path><path style="fill:#505050;stroke:#000000;stroke-linecap:round;stroke-linejoin:round;" d="M333.877,370.97c-0.144,0.718-0.918,1.171-1.731,1.01c-0.813-0.164-1.358-0.877-1.214-1.599c0.141-0.721,0.919-1.175,1.732-1.014C333.479,369.531,334.021,370.245,333.877,370.97z"></path><path style="fill:#505050;stroke:#000000;stroke-linecap:round;stroke-linejoin:round;" d="M332.264,379.09c-0.144,0.721-0.92,1.178-1.734,1.014c-0.813-0.163-1.357-0.876-1.215-1.601c0.145-0.719,0.921-1.174,1.735-1.011C331.864,377.654,332.404,378.37,332.264,379.09z"></path></g></g><g><rect x="312.033" y="435.201" transform="matrix(0.9808 0.195 -0.195 0.9808 91.2672 -53.865)" style="fill:#6E6E6E;stroke:#000000;stroke-linecap:round;stroke-linejoin:round;" width="14.471" height="3.011"></rect><rect x="311.837" y="424.666" transform="matrix(0.9808 0.1951 -0.1951 0.9808 90.2163 -54.2332)" style="fill:#6E6E6E;stroke:#000000;stroke-linecap:round;stroke-linejoin:round;" width="17.185" height="12.423"></rect><rect x="306.535" y="441.028" transform="matrix(0.9808 0.1951 -0.1951 0.9808 92.7475 -53.4659)" style="fill:#6E6E6E;stroke:#000000;stroke-linecap:round;stroke-linejoin:round;" width="22.526" height="6.159"></rect><rect x="305.443" y="438.126" transform="matrix(0.9808 0.1951 -0.1951 0.9808 92.1784 -53.628)" style="fill:#6E6E6E;stroke:#000000;stroke-linecap:round;stroke-linejoin:round;" width="25.863" height="6.157"></rect></g><rect x="327.349" y="347.08" transform="matrix(0.9808 0.1951 -0.1951 0.9808 75.1535 -58.8186)" style="fill:#6E6E6E;stroke:#000000;stroke-linecap:round;stroke-linejoin:round;" width="17.526" height="9.909"></rect></g><g><path style="fill:#6E6E6E;stroke:#000000;stroke-linecap:round;stroke-linejoin:round;" d="M314.153,265.395l-1.32,6.64l9.087,1.809l-0.324,1.63l2.209,0.44l-0.563,2.831l1.141,0.679l1.352,0.269l-1.008,5.069l-1.123,0.501l0.082,2.165l-0.925,0.155c0,0-0.576,2.259-0.397,2.634c0.447,0.316,0.839,0.281,0.839,0.281l1.122,2.714l4.231,0.842l0.649,9.277l-0.505,0.591l0.163,6.249l4.295,0.859l1.661-0.973l20.262,4.03l1.161,1.532l4.3,0.854l2.541-5.715l-0.242-0.736l4.152-8.325l4.233,0.841l2.074-2.072c0,0,0.346,0.181,0.882,0.06c0.308-0.276,0.642-2.584,0.642-2.584l-0.795-0.501l0.9-1.971l-0.84-0.889l1.007-5.069l1.352,0.269l1.314-0.19l0.563-2.834l2.21,0.441l0.326-1.63l9.085,1.806l1.321-6.637L314.153,265.395z"></path><polygon style="fill:#505050;" points="363.299,306.49 330.079,299.883 329.243,294.441 366.151,301.785 "></polygon><rect x="326.089" y="282.997" transform="matrix(0.9808 0.1951 -0.1951 0.9808 62.412 -62.8561)" style="fill:#505050;" width="48.296" height="4.704"></rect><line style="fill:none;stroke:#000000;stroke-linecap:round;stroke-linejoin:round;" x1="322.492" y1="273.844" x2="380.328" y2="285.347"></line><line style="fill:none;stroke:#000000;stroke-linecap:round;stroke-linejoin:round;" x1="324.709" y1="277.791" x2="376.772" y2="288.146"></line><line style="fill:none;stroke:#000000;stroke-linecap:round;stroke-linejoin:round;" x1="325.717" y1="285.228" x2="372.991" y2="294.629"></line><line style="fill:none;stroke:#000000;stroke-linecap:round;stroke-linejoin:round;" x1="325.133" y1="288.167" x2="372.405" y2="297.572"></line><line style="fill:none;stroke:#000000;stroke-linecap:round;stroke-linejoin:round;" x1="329.212" y1="294.294" x2="366.295" y2="301.67"></line><line style="fill:none;stroke:#000000;stroke-linecap:round;stroke-linejoin:round;" x1="329.278" y1="303.584" x2="362.679" y2="310.228"></line></g></g></g></g></svg>