<svg xmlns="http://www.w3.org/2000/svg" width="500" height="500" version="1.1"><g id="x9067" data-trait-type="Weapons" data-trait-value="Sword Cutter"><g><path style="fill:#3A3D3F;stroke:#000000;stroke-linecap:round;stroke-linejoin:round;" d="M153.1,271.255c-8.155-5.63-4.287-22.52-3.407-23.539c0.879-1.019,3.981-5.397,3.981-5.397s-64.279-41.132-82.397-54.112c-18.119-12.981-57.89-34.327-57.89-34.327s-8.657,1.307-8.92,2.823c-0.263,1.515,0.081,3.136,0.081,3.136s20.008,17.836,21.813,20.022c1.806,2.188,70.424,115.885,74.101,118.084c3.677,2.197,48.633-12.165,50.662-13.061C151.124,284.884,154.652,277.146,153.1,271.255z M131.268,267.075c0,0-21.207,6.15-22.901,6.015c-1.693-0.137-5.072-1.349-5.072-1.349s-39.883-55.318-40.782-64.529c0,0,3.031,0.527,3.94,0.685s13.976,8.516,34.629,24.433c20.653,15.917,26.149,22.025,26.374,22.531c0.224,0.508,4.556,10.626,4.556,10.626L131.268,267.075z"></path><path style="fill:#242627;" d="M27.25,179.5c0,0,21.759,36.214,41.75,68.5c15.556,25.124,30.243,47.731,31.462,49.944c3.038,1.306,49.288-13.194,49.288-13.194L149,282c0,0-45.75,12.5-47.25,11.5S27.25,179.5,27.25,179.5z"></path><path style="opacity:0.5;fill:#FFFFFF;" d="M67.25,238.75c0.5,0.75,31,52,32.75,54s8.75-0.75,8.75-0.75s-4.5,2-7.5-0.75S67.25,238.75,67.25,238.75z"></path><path style="opacity:0.5;fill:#FFFFFF;" d="M49.5,175.5c-12-7-35.5-20.25-35.5-20.25s-3.25,0.75-3.25,2c0,0.716,21.484,13.978,39.845,25.181l-0.774-6.742C49.714,175.625,49.607,175.563,49.5,175.5z"></path><path style="fill:#242627;" d="M72.25,190.25c0,0-10.56-7.612-22.429-14.562l0.774,6.742C64.291,190.788,76.25,198,76.25,198L72.25,190.25z"></path><path style="fill:#3A3D3F;stroke:#000000;stroke-linecap:round;stroke-linejoin:round;" d="M152.642,273.44c0,0-0.639,0.98-0.642,1.449c-0.003,0.468,2.097,5.907,2.449,6.124c0.354,0.217,1.667,0.289,1.667,0.289s6.046-4.258,6.188-4.624c0.142-0.364-1.075-5.493-1.984-5.65C159.411,270.87,152.642,273.44,152.642,273.44z"></path><path style="fill:#3A3D3F;stroke:#000000;stroke-linecap:round;stroke-linejoin:round;" d="M157.742,239.121c0,0-1.766,1.178-1.894,1.468c-0.128,0.289,5.364,10.922,5.904,11.405c0.539,0.484,1.88,0.404,2.476,0.118c0.597-0.287,1.88-3.187,1.934-3.489c0.052-0.304-3.808-10.885-3.808-10.885s0.584-2.475,0.358-2.514C162.484,235.185,158.015,237.999,157.742,239.121z"></path><path style="fill:#3A3D3F;stroke:#000000;stroke-linecap:round;stroke-linejoin:round;" d="M174.353,280.564c0,0-0.289,1.668-0.293,2.135c-0.003,0.469,3.436,11.682,3.709,12.354c0.274,0.671,1.365,2.031,1.365,2.031s6.295,0.158,7.234-0.306c0.939-0.462,2.417-2.234,2.417-2.234l-4.042-2.341c0,0-4.773-10.272-5.364-10.922C178.791,280.633,174.353,280.564,174.353,280.564z"></path><path style="fill:#3A3D3F;stroke:#000000;stroke-linecap:round;stroke-linejoin:round;" d="M187.391,289.54c0,0,1.894,3.922,1.772,5.071c2.244-0.782,10.346-6.085,12.438-19.929c2.092-13.846-0.232-17.995-0.232-17.995l-3.094-0.615c-0.181,0.594,1.332,1.324,1.279,1.627c-0.052,0.304-5.886,4.677-5.886,4.677s2.241,8.841,0.212,15.415C191.204,286.458,187.391,289.54,187.391,289.54z"></path><path style="fill:#3A3D3F;stroke:#000000;stroke-linecap:round;stroke-linejoin:round;" d="M178.665,256.18c0,0,1.251,5.836,1.626,6.37c0.376,0.534,1.793,0.467,1.793,0.467s10.037-3.409,11.687-4.37c1.65-0.963,4.037-2.577,4.037-2.577l-7.927-7.388C189.88,248.681,179.52,254.847,178.665,256.18z"></path><path style="fill:#3A3D3F;stroke:#000000;stroke-linecap:round;stroke-linejoin:round;" d="M183.253,192.66c0.173-0.321,3.719-3.218,4.307-3.233c0.589-0.015,2.348,0.642,2.724,1.175c0.376,0.534,16.348,25.201,16.645,26.19c0.297,0.988-0.493,2.84-0.493,2.84l-11.87-3.113L183.253,192.66z"></path><g><g><path style="fill:#3A3D3F;" d="M480.922,403.024c-15.447-11.736-185.219-109.273-196.395-116.834c-11.177-7.562-38.751-35.764-51.417-47.33c-12.666-11.565-29.538-29.483-51.818-25.232c4.403,7.008-26.279,11.985-26.279,11.985s-20.003,19.008-4.422,59.648c0.198,0.518,32.465,34.205,37.433,36.159c7.716,3.212,42.807,7.9,95.442,32.024c54.868,26.889,169.28,80.593,173.168,81.581c3.887,0.987,20.86,3.933,22.942,2.733l-9.201-8.154l-1.725-6.298l-67.316-38.973l66.401,35.63l-3.284-11.995c0,0,17.45,7.402,20.071,8.482c2.624,1.079,7.987,0.763,7.987,0.763C493.482,415.195,485.705,406.042,480.922,403.024z M238.904,294.506c-2.028,0.895-20.845,4.968-32.645,3.699c-10.073-2.218-14.911-4.931-14.911-4.931l5.093-1.457c0,0,9.052,0.008,12.731-13.09c3.679-13.1,1.989-24.944,1.989-24.944s6.649,0.373,7.604,1.163c0.955,0.792,23.448,21.4,25.051,31.045C243.758,290.82,240.932,293.61,238.904,294.506z"></path></g><g><path style="fill:none;stroke:#000000;stroke-linecap:round;stroke-linejoin:round;" d="M480.922,403.024c-15.447-11.736-185.219-109.273-196.395-116.834c-11.177-7.562-38.751-35.764-51.417-47.33c-12.666-11.565-29.538-29.483-51.818-25.232c4.403,7.008-26.279,11.985-26.279,11.985s-20.003,19.008-4.422,59.648c0.198,0.518,32.465,34.205,37.433,36.159c7.716,3.212,42.807,7.9,95.442,32.024c54.868,26.889,169.28,80.593,173.168,81.581c3.887,0.987,20.86,3.933,22.942,2.733l-9.201-8.154l-1.725-6.298l-67.316-38.973l66.401,35.63l-3.284-11.995c0,0,17.45,7.402,20.071,8.482c2.624,1.079,7.987,0.763,7.987,0.763C493.482,415.195,485.705,406.042,480.922,403.024z M238.904,294.506c-2.028,0.895-20.845,4.968-32.645,3.699c-10.073-2.218-14.911-4.931-14.911-4.931l5.093-1.457c0,0,9.052,0.008,12.731-13.09c3.679-13.1,1.989-24.944,1.989-24.944s6.649,0.373,7.604,1.163c0.955,0.792,23.448,21.4,25.051,31.045C243.758,290.82,240.932,293.61,238.904,294.506z"></path></g></g><path style="fill:#242627;" d="M311,341.334l25.333,1L484,416l5.667,1c0,0,0,0,2.666-0.333c-7.667-7.333-229.666-122-229.666-122s-11.333-17-25.333-32.333S195,232,195,232l5,7.333c0,0,26.333,17,38,35s6.333,16,6.333,16l9.333,20.333L311,341.334z"></path><path style="opacity:0.5;fill:#FFFFFF;" d="M253.333,279.333c0,0,9.001,12.333,10.334,16c6.666,4,21,10.667,21,10.667l-20-12.334C264.667,293.666,256.332,282,253.333,279.333z"></path><path style="fill:#242627;" d="M180.667,314.333c0,0,7,6.001,8.667,6.334s51.666,10.999,82,26.666s89,41.667,103,48.667c13.334,8,67.666,32.332,81,37.666s13.666,3.667,23,3.334c-17.333-5-90.667-41.333-94-42.333S283.85,345.36,267.667,338.334C242.333,327.334,180.667,314.333,180.667,314.333z"></path><g><g><path style="fill:#FFFFFF;stroke:#000000;stroke-linecap:round;stroke-linejoin:round;" d="M147.333,159.261c0,0,12.18,21.548,14.35,26.14c4.178,2.911,10.247,6.62,10.247,6.62l-4.201,8.011l-19.071-14.237l-9.607-26.49L147.333,159.261z"></path><polygon style="fill:#CCADB9;" points="146.5,159.75 160.25,186.25 171,193.25 165.75,196.5 150.25,186.25 154,183 143.5,162.25 143.381,159.98 "></polygon><path style="fill:none;stroke:#000000;stroke-linecap:round;stroke-linejoin:round;" d="M152.743,183.616c0,0,11.1,7.548,14.926,11.139"></path></g><path style="fill:#3A3D3F;stroke:#000000;stroke-linecap:round;stroke-linejoin:round;" d="M178.661,206.301c0,0-26.714-16.97-28.968-20.172c-0.099-0.329,1.629-1.744,3.229-2.872c-0.722-1.686-10.54-21.11-10.323-21.463c0.216-0.352,0.401-1.412,0.782-1.814c0.382-0.402,3.951-0.719,3.951-0.719s0.066-0.38,0.325-1.428c0.259-1.047-10.168-20.106-10.517-20.792c-0.35-0.687-4.565-5.633-5.945-7.121s-4.932-1.715-7.017-1.843c-2.085-0.127-16.522,5.25-31.271,11.978c-14.75,6.727-29.086,17.819-29.699,18.65c-0.612,0.83-2.694,3.824-2.594,5.949c0.1,2.125,12.773,29.381,12.773,29.381s1.035,2.132,4.455,4.912c3.421,2.778,71.804,46.34,72.849,47.068c1.044,0.727,4.602,0.018,4.602,0.018s1.188-7.286,14.373-10.851c10.303-2.786,15.026,4.717,15.026,4.717L178.661,206.301z M148.432,226.656c-3.888-0.988-47.959-31.274-49.113-32.724c-1.154-1.449-7.291-13.753-7.436-14.716c-0.145-0.961,0.347-6.496,0.933-7.175c0.586-0.68,4.532-4.52,10.473-8.172c5.942-3.652,15.495-6.521,15.495-6.521c0.455,0.079,23.401,43.246,24.404,44.668c1.002,1.423,13.751,8.008,13.751,8.008l6.83,11.02C163.769,221.045,153.643,226.313,148.432,226.656z"></path><path style="fill:#242627;" d="M62.75,160.25l-1.25,4l12.75,31l7.5,6.25l69.5,44.25l4.042,0.283l2.458-5.283l-75.25-46.5c0,0-11-29.75-12-30.75S62.75,160.25,62.75,160.25z"></path><path style="opacity:0.5;fill:#FFFFFF;" d="M116.5,217.5c0,0,33.75,23.75,34.75,23.75s6.75-3.5,8.25-4.5c0,0-8.5,1-9.25,0.25S116.5,217.5,116.5,217.5z"></path><path style="opacity:0.5;fill:#FFFFFF;" d="M124.667,129c0,0,15.334,24.667,16.667,29.667c0.667,1,0.667,1,0.667,1l4.5-1.5c-0.333-1.594-10.167-21.5-10.167-21.5l-6-7C130.333,129.667,125.667,129,124.667,129z"></path><path style="fill:#FFFFFF;" d="M130,137.333c0,0-5.037-4.413-3.667-5C128.667,131.333,130.333,136.333,130,137.333z"></path></g><path style="fill:none;stroke:#000000;stroke-linecap:round;stroke-linejoin:round;" d="M128.417,161.206c0,0,15.492,31.257,16.745,33.035c4.066,4.453,13.641,9.551,13.641,9.551"></path><path style="fill:none;stroke:#000000;stroke-linecap:round;stroke-linejoin:round;" d="M113.09,150.583c0,0,8.677,3.066,10.839,5.004"></path><path style="fill:#6E6E6E;stroke:#000000;stroke-linecap:round;stroke-linejoin:round;" d="M156.261,209.438l-13.073-7.422c0.9,1.277,11.252,6.708,13.354,7.801L156.261,209.438z M164.605,220.721l-6.398-8.651l5.563,8.976c0,0-10.126,5.268-15.337,5.611c-3.888-0.988-47.959-31.274-49.113-32.724c-1.154-1.449-7.291-13.753-7.436-14.716c-0.145-0.961,0.347-6.496,0.933-7.175c0.586-0.68,4.532-4.52,10.473-8.172c5.942-3.652,15.495-6.521,15.495-6.521c0.455,0.079,1.008,0.486,1.008,0.486s-3.896-3.642-7.888-4.022c-3.992-0.382-25.555,9.614-29.162,16.012c0,0-0.395,2.273-0.427,3.36c-0.032,1.086,6.951,19.316,8.202,21.094c1.252,1.778,53.042,35.279,54.628,36.023c1.588,0.744,16.417-4.644,20.053-7.604C164.902,221.709,164.605,220.721,164.605,220.721z"></path><path style="fill:#3A3D3F;stroke:#000000;stroke-linecap:round;stroke-linejoin:round;" d="M78.295,195.434c0,0,0.495,1.646,1.556,1.83c1.061,0.185,9.335-0.72,9.316-1.505c-0.021-0.783-1.629-2.312-1.629-2.312S79.085,194.479,78.295,195.434z"></path><path style="fill:#3A3D3F;stroke:#000000;stroke-linecap:round;stroke-linejoin:round;" d="M110.343,152.916c0,0-6.656-6.62-6.551-7.226c0.104-0.605,1.957-1.376,1.957-1.376s7.083,6.85,6.979,7.456C112.622,152.375,110.343,152.916,110.343,152.916z"></path><path style="fill:none;stroke:#000000;stroke-linecap:round;stroke-linejoin:round;" d="M177.572,296.188c0,0,9.028,7.346,26.949,8.425"></path><path style="fill:none;stroke:#000000;stroke-linecap:round;stroke-linejoin:round;" d="M190.925,217.486c0,0,6.902,11.5,6.77,12.259c-0.131,0.756-2.464,1.602-2.464,1.602"></path><path style="fill:#6E6E6E;stroke:#000000;stroke-linecap:round;stroke-linejoin:round;" d="M469.999,429.071c0,0-0.54-2.472-1.271-5.72l-66.396-39.018l65.659,35.769c-1.309-5.734-2.822-12.094-3.087-12.054c-0.48,0.072-117.812-63.228-127.747-67.138c-7.848-2.457-22.408-3.111-22.408-3.111s-7.153-11.856-9.287-13.943c-2.872-0.499-19.078-0.721-18.909-0.785c-4.061-5.387-9.788-14.66-10.269-14.585c-0.377,0.058-17.166-0.433-24.398-0.644c-0.529-4.151-6.752-18.656-7.926-20.89c-0.223,3.082-0.474,4.226-1.296,4.77c-12.7,8.412-38.277,6.467-38.277,6.467l-12.441-3.875c0,0,10.604,9.956,14.058,11.65c5.497,1.799,23.133,4.328,23.133,4.328s3.6,9.836,5.69,11.292c2.825,0.818,17.558,2.266,17.558,2.266s7.278,12.036,7.903,12.925c3.735,0.96,14.937,1.188,20.016,1.604c2.479,3.708,7.863,11.356,9.024,11.868c3.558,1.087,10.152,1.763,11.061,1.921c0.91,0.157,20.961,4.265,31.695,9.874c10.733,5.61,115.849,65.54,140.07,69.9C470.625,429.959,469.999,429.071,469.999,429.071z"></path><path style="opacity:0.5;fill:#FFFFFF;" d="M230.875,296.875c0,0.625,5.875,11.875,5.875,11.875s-9-10.125-9-10.75S230.875,296.875,230.875,296.875z"></path><path style="opacity:0.5;fill:#FFFFFF;" d="M246.125,309.375l3.25-0.5l8.75,14.25C258.125,323.125,250.625,316.25,246.125,309.375z"></path><polygon style="opacity:0.5;fill:#FFFFFF;" points="272.625,324.125 275.75,324.25 284.875,337.5 "></polygon><polygon style="opacity:0.5;fill:#FFFFFF;" points="299.75,338.75 302.75,338.75 311.25,351.25 "></polygon><path style="opacity:0.5;fill:#FFFFFF;" d="M341.75,354.25c-0.709-0.244-8,3.75-8,3.75l59.5,22.25C393.25,380.25,349,356.75,341.75,354.25z"></path><path style="fill:none;stroke:#000000;stroke-linecap:round;stroke-linejoin:round;" d="M301.352,352.023c0,0,20.648-1.023,40.322,1.535c6.913,2.483,33.775,16.474,60.923,30.941"></path><path style="fill:none;stroke:#000000;stroke-linecap:round;stroke-linejoin:round;" d="M228.986,310.266c0,0,17.156-1.703,22.9-2.423"></path><path style="fill:none;stroke:#000000;stroke-linecap:round;stroke-linejoin:round;" d="M251.905,323.924c0,0,31.281-0.347,35.102-0.775"></path><path style="fill:none;stroke:#000000;stroke-linecap:round;stroke-linejoin:round;" d="M280.305,338.379c0,0,29.793-0.763,35.479-0.242"></path><path style="fill:none;stroke:#000000;stroke-linecap:round;stroke-linejoin:round;" d="M302.938,338.403c0,0,8.574,10.854,9.068,12.501"></path><path style="fill:none;stroke:#000000;stroke-linecap:round;stroke-linejoin:round;" d="M276.077,324.061c0,0,7.91,11.989,9.769,13.872"></path><path style="fill:none;stroke:#000000;stroke-linecap:round;stroke-linejoin:round;" d="M249.937,308.283c0.073,0.48,5.815,10.565,9.222,15.217"></path><path style="fill:none;stroke:#000000;stroke-linecap:round;stroke-linejoin:round;" d="M230.919,297.332c0,0,5.519,10.479,6.447,11.423"></path><path style="fill:none;stroke:#000000;stroke-linecap:round;stroke-linejoin:round;" d="M130.583,248.536c0,0,7.819-4.576,8.934-4.695c1.113-0.118,1.752,2.49,1.752,2.49l-7.015,5.338"></path><g><path style="fill:#FFFFFF;stroke:#000000;stroke-linecap:round;stroke-linejoin:round;" d="M175.204,193.837c0,0,3.274-1.773,4.005-1.489c0.731,0.282,2.491,1.837,2.491,1.837s4.368-2.677,4.822-2.598c0.455,0.079,3.149,1.639,4,3.035c0.851,1.397,7.68,12.418,8.023,14.039c0.342,1.621,0.323,4.429,0.323,4.429l-5.797,1.022l-4.479,0.627L175.204,193.837z"></path><path style="fill:#CCADB9;" d="M187.5,202.75c0,0,1.75-0.5,2.5-0.5c-1-1.75-2.5-4.5-2.5-4.5l-4.5-2L187.5,202.75z"></path><path style="fill:#CCADB9;" d="M181.75,195.25c0,0-0.5,5-0.25,6.5c-2.5-4.25-4.25-7.75-4.25-7.75l1.75-0.5L181.75,195.25z"></path><path style="fill:none;stroke:#000000;stroke-linecap:round;stroke-linejoin:round;" d="M181.747,193.92c0,0,8.478,13.883,9.323,15.083c0.845,1.2,0.174,5.064,0.174,5.064"></path><path style="fill:none;stroke:#000000;stroke-linecap:round;stroke-linejoin:round;" d="M183.965,196.647c0,0,2.881,0.266,3.203,0.439c0.321,0.172,7.701,10.937,8.018,11.813l-0.35,4.037"></path></g><path style="fill:#6E6E6E;stroke:#000000;stroke-linecap:round;stroke-linejoin:round;" d="M194.81,211.291l-1.278,1.964l1.034,3.264c0,0,17.587,6.37,33.984,23.422c4.317,1.218,7.683,0.71,7.683,0.71C236.569,239.615,222.675,218.938,194.81,211.291z"></path><g><path style="fill:#3A3D3F;stroke:#000000;stroke-linecap:round;stroke-linejoin:round;" d="M209.104,247.109c1.054,1.722,6.926,12.602,3.896,26.391c-3.263,14.851-9.583,18.591-19.241,18.475c3.864-10.568,8.238-36.661,8.238-36.661l-1.599-14.172C200.399,241.142,208.995,246.93,209.104,247.109z"></path><path style="fill:none;stroke:#000000;stroke-linecap:round;stroke-linejoin:round;" d="M206.36,257.163c0,0,4.14,18.837-8.088,33.096"></path></g><path style="fill:#3A3D3F;stroke:#000000;stroke-linecap:round;stroke-linejoin:round;" d="M178.706,256.618c0,0,1.499,5.528,1.895,5.947c0.395,0.42,2.006,0.582,2.006,0.582s11.804-3.921,16.497-8.024c-2.981-5.083-7.498-7.389-7.498-7.389S180.489,253.765,178.706,256.618z"></path><path style="fill:#3A3D3F;stroke:#000000;stroke-linecap:round;stroke-linejoin:round;" d="M157.949,243.997c0,0-6.148,11.812-2.34,28.983c-0.611,0.831-2.416,1.103-2.416,1.103s-5.564-18.528,3.539-32.52C156.762,242.738,157.949,243.997,157.949,243.997z"></path><path style="fill:#6E6E6E;stroke:#000000;stroke-linecap:round;stroke-linejoin:round;" d="M160.311,242.535c10.728-15.934,22.299-5.027,22.713-4.72l19.322,20.214l-11.473,36.41c0,0-3.042,0.215-8.448,0.33c-5.405,0.116-16.66-3.401-21.415-9.729c-4.755-6.328-6.354-14.123-5.858-25.604C155.578,249.557,160.311,242.535,160.311,242.535z"></path><path style="fill:#505050;" d="M182.535,263.503c1.214,9.284-2.414,17.408-8.102,18.152c-5.689,0.746-11.286-6.178-12.499-15.456c-1.214-9.282,2.413-17.411,8.101-18.153C175.723,247.3,181.32,254.222,182.535,263.503z"></path><path style="fill:#3A3D3F;stroke:#000000;stroke-linecap:round;stroke-linejoin:round;" d="M158.018,278.666c0,0,1.042,7.685,9.041,11.784c8.204,4.206,12.404,2.945,12.404,2.945l0.776,2.944c0,0-17.566,0.696-24.291-14.521C156.314,281.063,158.018,278.666,158.018,278.666z"></path><path style="fill:none;stroke:#000000;stroke-linecap:round;stroke-linejoin:round;" d="M186.801,262.944c1.716,13.129-3.414,24.617-11.458,25.67c-8.045,1.056-15.96-8.735-17.676-21.856c-1.717-13.127,3.412-24.622,11.456-25.671C177.168,240.031,185.083,249.819,186.801,262.944z"></path><path style="fill:#3A3D3F;stroke:#000000;stroke-linecap:round;stroke-linejoin:round;" d="M189.247,248.729c0,0-9.499,6.157-10.19,7.44c-0.691,1.285,1.544,6.396,1.544,6.396l2.006,0.582c0,0,12.388-4.366,16.558-7.702C194.229,252.403,189.247,248.729,189.247,248.729z"></path><path style="fill:#3A3D3F;stroke:#000000;stroke-linecap:round;stroke-linejoin:round;" d="M181.594,237.955c0,0,10.679,15.824,11.357,16.41c0.678,0.587,14.527,3.538,15.387,3.533c0.861-0.009,1.905-1.075,1.905-1.075l-18.806-32.848c0,0,0.205-4.336,0.008-4.995c-0.197-0.658-15.404-25.464-15.932-26.024s-2.734-1.333-3.126-1.324c-0.392,0.011-14.98,10.747-15.401,11.376c-0.421,0.629-1.049,3.798-0.739,4.711c0.31,0.914,7.132,12.869,8.526,14.282c1.393,1.412,8.933,6.546,11.004,8.546C177.851,232.544,181.594,237.955,181.594,237.955z"></path><path style="opacity:0.5;fill:#FFFFFF;" d="M172.667,192.167c0,0,2,1,2.667,1.333c2,3,15.833,26.167,15.833,26.167L190.833,224l18.833,32.5l-1.328,1.398l-19.505-33.565l0.667-4.667L172.667,192.167z"></path><path style="fill:#3A3D3F;stroke:#000000;stroke-linecap:round;stroke-linejoin:round;" d="M156.238,241.71c0,0,4.776,8.909,5.339,9.709c0.563,0.799,1.527,1.319,1.527,1.319s3.547-2.897,3.404-4.093s-4.155-10.907-4.155-10.907l0.358-2.514c0,0-3.603,2.77-3.682,3.224c-0.079,0.455-0.217,1.251-0.217,1.251l-1.071-0.578C157.742,239.121,156.229,240.421,156.238,241.71z"></path><path style="fill:#3A3D3F;stroke:#000000;stroke-linecap:round;stroke-linejoin:round;" d="M153.104,273.246l-0.75,1.626c0,0,1.651,5.321,2.161,5.762c0.509,0.439,1.967,0.81,1.967,0.81s4.956-3.589,5.321-4.346c0.365-0.755-0.99-5.089-1.632-5.435C159.529,271.317,153.277,272.926,153.104,273.246z"></path><path style="fill:#3A3D3F;stroke:#000000;stroke-linecap:round;stroke-linejoin:round;" d="M174.676,280.504c0,0-0.445,1.211-0.429,1.799c0.015,0.589,3.685,13.168,4.135,13.948c0.45,0.781,4.338,0.636,5.495,0.72c1.156,0.083,2.772-0.455,2.772-0.455s2.139-2.204,1.704-2.396c-0.435-0.193-3.608-1.915-3.608-1.915s-4.048-9.952-4.879-10.564C179.034,281.027,175.076,280.222,174.676,280.504z"></path><path style="fill:#3A3D3F;stroke:#000000;stroke-linecap:round;stroke-linejoin:round;" d="M201.881,256.66c0,0-4.12,3.5-6.941,5.585c-0.187,5.119-0.139,17.654-7.375,27.64c0.688,2.108,1.272,5.488,1.272,5.488s7.82-1.217,12.086-17.688C205.538,259.87,201.881,256.66,201.881,256.66z"></path><path style="fill:#6E6E6E;stroke:#000000;stroke-linecap:round;stroke-linejoin:round;" d="M132.666,250.925c-2.636-2.799-77.575-56.71-80.026-56.979c-0.966-0.106-1.838,2.49-1.626,4.868c0.211,2.379,46.292,75.945,47.974,77.955c1.68,2.01,4.58,3.294,6.628,3.181c2.049-0.111,28.962-4.963,31.017-6.011c2.056-1.05,4.143-3.183,4.143-3.183S135.303,253.725,132.666,250.925z M131.268,267.075c0,0-21.207,6.15-22.901,6.015c-1.693-0.137-5.072-1.349-5.072-1.349s-39.883-55.318-40.782-64.529c0,0,3.031,0.527,3.94,0.685s13.976,8.516,34.629,24.433c20.653,15.917,26.149,22.025,26.374,22.531c0.224,0.508,4.556,10.626,4.556,10.626L131.268,267.075z"></path><path style="fill:#505050;" d="M57.25,207.5c0,0,1-3.5,2-3.75s8,3.75,8,3.75s50.5,34,61,47c4,1.25,6.25,1.5,6.25,1.5l-2-4.583c0,0-16.167-12.583-37.5-27.551c-6.038-4.236-16.752-12.025-25.917-18.366c-8.583-5.939-15.833-10.583-15.833-10.583s-1,1.083-1,2.333S57.25,207.5,57.25,207.5z"></path><path style="fill:#CCADB9;stroke:#000000;stroke-linecap:round;stroke-linejoin:round;" d="M136.986,273.024c0,0-1.585,1.715-1.551,2.189c0.034,0.475,2.082,6.216,2.684,6.789c0.604,0.572,7.313-1.657,7.313-1.657l2.713-0.115c0,0,5.326-2.354,5.672-2.996c0.345-0.643-1.915-8.529-1.915-8.529l-6.25,1.608l-1.097-0.425l-1.24,1.072L136.986,273.024z"></path><path style="fill:none;stroke:#000000;stroke-linecap:round;stroke-linejoin:round;" d="M243.961,286.953c-13.357-28.037-42.243-45.543-42.243-45.543"></path><path style="fill:none;stroke:#000000;stroke-linecap:round;stroke-linejoin:round;" d="M196.942,232.503c0,0,41.773,22.628,64.956,60.841"></path><path style="fill:none;stroke:#000000;stroke-linecap:round;stroke-linejoin:round;" d="M195.781,292.015c0,0,6.953,4.014,13.666,5.805"></path><g><ellipse transform="matrix(0.929 -0.37 0.37 0.929 -63.2162 76.5294)" style="fill:#CCADB9;stroke:#000000;stroke-linecap:round;stroke-linejoin:round;" cx="167.904" cy="203.069" rx="2.23" ry="3.346"></ellipse><ellipse transform="matrix(0.9291 -0.3698 0.3698 0.9291 -66.8324 76.1256)" style="fill:#CCADB9;stroke:#000000;stroke-linecap:round;stroke-linejoin:round;" cx="165.119" cy="212.361" rx="2.23" ry="3.346"></ellipse><ellipse transform="matrix(0.929 -0.37 0.37 0.929 -66.6311 79.3204)" style="fill:#CCADB9;stroke:#000000;stroke-linecap:round;stroke-linejoin:round;" cx="173.438" cy="213.338" rx="2.23" ry="3.345"></ellipse></g><ellipse transform="matrix(0.9775 -0.2108 0.2108 0.9775 -52.1451 41.8399)" style="fill:#3A3D3F;stroke:#000000;stroke-linecap:round;stroke-linejoin:round;" cx="170.219" cy="265.558" rx="7.921" ry="12.925"></ellipse><path style="fill:#6E6E6E;stroke:#000000;stroke-linecap:round;stroke-linejoin:round;" d="M164.961,259.576c0,0,0.132-2.551,0.349-2.905c0.216-0.351,0.854-0.867,0.854-0.867s6.901,16.89,6.909,17.749c0.008,0.859-0.326,1.426-0.326,1.426s-1.464,1.697-1.703,1.266C170.807,275.813,164.961,259.576,164.961,259.576z"></path></g></g></svg>