<svg xmlns="http://www.w3.org/2000/svg" width="500" height="500" version="1.1"><g id="x9068" data-trait-type="Weapons" data-trait-value="Ghost"><g><path style="opacity:0.8;fill:#473737;" d="M249.52,24.111c-32.073-5.063-55.704,5.063-68.363,14.348c-12.66,9.284-13.503,2.532-36.291,10.972s-30.383,30.383-36.292,44.731c-5.907,14.348-49.794,36.291-63.298,63.297c-13.504,27.007-12.659,66.675-0.844,80.177c11.816,13.506-1.688,48.954,0,70.896c-24.475,34.603-7.596,56.547,5.908,73.425c-11.816-19.41-4.22-34.602,3.376-41.353c-1.688,16.035,8.44,44.73,44.73,70.894c36.291,26.162,86.93,7.595,110.56,5.908c-20.254,0-34.602-17.724-27.005-25.32c7.595-7.597,29.539-3.376,44.731,5.063c-23.632-36.29-36.292-24.474-48.107-21.942c-11.815,2.531-23.632-5.064-34.604-27.852c-10.971-22.789,2.954-33.337,10.972-41.777s18.146-11.394,27.851-16.035c9.706-4.642,4.22-15.614,6.33-17.302c2.11-1.688,13.504-7.595,22.787-7.595c9.285,0,13.503-8.44,15.192-8.44s3.375,8.017,3.375,9.283s-6.751,9.284-14.347,18.146c-7.596,8.861-24.475,3.8-22.787,5.908c1.688,2.11,8.861,8.861,17.3,8.861c8.44,0,16.458-16.455,24.898-24.896c8.441-8.44,11.817-0.422,17.725,3.799c5.906,4.219,18.989-6.332,28.272-7.174c-2.11-0.423-6.329-5.486-9.283-10.13c-2.954-4.642,2.954-16.458,7.596-21.099c4.641-4.641,18.146-2.953,21.522,0.842c3.374,3.799-3.801,9.707-5.065,12.238c-1.267,2.533,1.265,5.064,0,10.551c-1.267,5.487-12.237,10.973-24.897,13.926c9.706,3.8,21.101-4.641,23.631-5.908c2.531-1.265,7.598-10.127,8.441-11.394c0.843-1.266,6.75-5.485,10.127-8.017c3.376-2.533,7.596-10.551,9.283-11.817c1.688-1.266,4.643-3.797,8.861-4.641c4.221-0.844,1.688-2.11,5.486-3.376c3.798-1.265,11.395-2.956,11.395-2.956s-2.532,6.332-6.33,10.973c8.44-0.842,16.035-15.612,17.723-15.612c1.689,0,9.707-12.66,9.707-12.66s2.138-3.643,5.996-7.912L347.194,71.546C308.626,49.523,265.701,26.666,249.52,24.111z"></path><path style="opacity:0.8;fill:#473737;" d="M439.989,131.906c0,0-31.517-19.491-66.968-39.734l26.76,123.18c3.009-3.33,7.134-7.066,12.161-9.58c5.136-1.976,30.021-26.465,35.947-35.155C452.963,163.174,439.989,131.906,439.989,131.906z"></path><g><g><path style="fill:#473737;stroke:#000000;stroke-linecap:round;stroke-linejoin:round;" d="M415.286,138.097c-3.571-10.714-23.626-31.867-28.02-37.636c-3.477-4.562-9.855-7.57-12.382-8.632c-3.951-10.928-14.592-26.115-21.958-34.499c-1.924-1.647-17.033-17.307-17.033-17.307s-2.472-0.274-4.945,0c0.824,7.692-5.494,24.999-5.494,24.999s-3.296,2.198-7.966,7.418c-4.67,5.219-7.692,17.032-7.692,17.032l-18.956,24.725c0,0-9.614,8.791-26.372,18.68c-16.758,9.89-18.955,16.758-18.955,16.758l60.162,3.022l71.151-26.922C376.826,125.735,401.552,137.823,415.286,138.097z"></path><path style="opacity:0.3;fill:#FFFFFF;" d="M337.817,109.801c0,0,4.944-19.23,16.757-24.724C346.333,83.704,336.718,100.735,337.817,109.801z"></path><path style="opacity:0.3;fill:#FFFFFF;" d="M318.587,108.977c0,0-1.648,7.967,0.273,9.89c1.923,1.922,6.045,4.121,6.045,4.121s5.494-1.099,6.318,0.274c-4.669,3.297-16.482,10.714-16.482,10.714s7.691-6.044,5.769-8.516s-2.506-4.753-4.396-4.396c-10.163,1.923-35.712,15.934-35.712,15.934s33.515-17.582,34.889-19.505C316.663,115.57,318.587,108.977,318.587,108.977z"></path><path style="fill:#291919;" d="M333.695,41.672c0,0,17.034,21.702,22.803,42.031c5.219,3.296,12.91,15.658,12.91,15.658l5.77,3.572l-1.647-10.439C373.53,92.494,366.937,65.572,333.695,41.672z"></path><path style="fill:none;stroke:#000000;stroke-linecap:round;stroke-linejoin:round;" d="M374.903,91.121c0,0.824,1.923,9.615,1.647,14.285"></path><g><path style="fill:#473737;stroke:#000000;stroke-linecap:round;stroke-linejoin:round;" d="M187.273,96.34c0-4.235-0.587-13.583,1.923-22.252c-5.495-0.55-34.34,16.208-38.186,21.428c-3.296-2.198,4.944-24.45,18.68-34.339c13.736-9.89,17.308-14.56,16.208-20.054c-1.099-5.494-1.099-10.164,0-12.362c1.1-2.197,23.35-9.614,43.406-6.043c4.12,21.153-7.145,49.174-7.145,49.174L188.098,96.34"></path><path style="opacity:0.3;fill:#FFFFFF;" d="M187.548,29.585c0,0-1.099,5.495,0.733,7.326c6.227-6.96,37.363-12.821,38.093-12.454C227.108,24.823,203.299,19.329,187.548,29.585z"></path><path style="fill:#473737;stroke:#000000;stroke-linecap:round;stroke-linejoin:round;" d="M154.857,92.769c0,0,22.802-15.384,27.472-13.461c4.67,1.924,3.296,15.934,3.296,15.934s6.593-16.757,4.67-21.703C188.372,68.594,160.626,84.252,154.857,92.769z"></path></g><path style="fill:#473737;stroke:#000000;stroke-linecap:round;stroke-linejoin:round;" d="M172.713,120.241c0,0,2.199-16.208,16.758-31.867c14.56-15.659,22.526-21.153,22.526-21.153l7.417-17.582c0,0,6.319-15.934,6.319-28.57c0-12.637,0.55-15.109,0.55-15.109s7.691,0,18.68,2.198s33.516,3.296,44.504,12.912c4.121,27.746-3.021,61.536-3.021,61.536l-70.053,58.514C216.394,141.119,175.736,127.383,172.713,120.241z"></path><path style="opacity:0.3;fill:#FFFFFF;" d="M228.206,8.34c0,0-0.732,6.592,0.732,9.523c8.059-3.297,55.676,2.564,55.676,2.564S258.24,9.44,228.206,8.34z"></path><path style="fill:#473737;stroke:#000000;stroke-linecap:round;stroke-linejoin:round;" d="M202.932,134.8c0,0,14.285-25.823,31.868-34.614c17.58-8.792,22.251-10.165,22.251-10.165l9.89-15.109c0,0,12.362-9.34,14.285-19.779c1.923-10.439,3.571-40.109,3.571-40.109s4.67-9.34,7.691-9.065c3.022,0.274,29.67,21.427,39.011,35.163c1.098,27.472-17.583,75.272-17.856,76.096c-0.274,0.824-59.339,32.416-59.339,33.515C254.304,151.833,205.404,145.789,202.932,134.8z"></path><path style="opacity:0.3;fill:#FFFFFF;" d="M288.368,12.552c0,0,5.77-2.197,8.791-0.549c3.021,1.648,24.999,20.329,24.999,20.329s-17.308-18.956-29.12-25.274C290.018,8.157,288.368,12.552,288.368,12.552z"></path><path style="fill:#291919;stroke:#000000;stroke-linecap:round;stroke-linejoin:round;" d="M264.468,148.536c0,0,19.505,3.571,39.834-7.417c20.329-10.989,34.34-30.493,34.34-30.493s4.12-15.934,17.306-25.274c7.144,4.946,17.032,20.879,16.759,21.703c-0.275,0.824-67.031,48.35-67.031,48.35L264.468,148.536z"></path></g><g><g><path style="fill:#473737;stroke:#000000;stroke-linecap:round;stroke-linejoin:round;" d="M340.015,120.516c0,0,7.691-0.825,10.715-5.77c3.021-4.945,5.769-16.758,9.614-20.054c7.142,4.945,20.329,9.889,24.175,14.835c7.142,21.152,4.944,42.58-0.55,52.196C367.762,155.679,340.838,132.053,340.015,120.516z"></path><path style="opacity:0.3;fill:#FFFFFF;" d="M357.047,104.856c0,0,3.022-7.967,3.571-7.692c0.55,0.275,3.846,7.417,3.846,7.417s-1.923-3.296-3.846-2.747C358.694,102.384,357.047,104.856,357.047,104.856z"></path><path style="opacity:0.3;fill:#FFFFFF;" d="M366.551,109.527c0,0,11.264,17.307,14.835,35.987c-2.747-8.242-3.021-10.165-4.67-11.538c-1.648-1.374-5.863-4.9-6.044-7.967C370.122,116.669,366.551,109.527,366.551,109.527z"></path><path style="fill:#291919;" d="M360.618,97.165c0,0,20.877,31.867,22.801,56.866c1.924-7.417,3.539-12.795,3.023-19.78c-1.1-14.834-9.892-28.845-9.892-28.845L360.618,97.165z"></path></g><g><path style="fill:#473737;stroke:#000000;stroke-linecap:round;stroke-linejoin:round;" d="M333.695,186.996c0,0-20.053-16.482-42.855-16.482c-22.801,0-46.7,12.636-51.646,12.087c-4.944-0.549-22.801-24.449-39.284-35.438c-16.482-10.989-31.867-17.857-34.339-17.857c-4.121-3.297-12.087-27.471-12.912-31.042s0.549-7.417,1.374-8.242c0.824-0.823,10.165,23.9,22.802,32.142c12.637,8.242,50.547,26.373,91.205,26.648c40.659,0.274,62.636-28.295,64.01-28.57C333.422,119.965,333.695,186.996,333.695,186.996z"></path><path style="opacity:0.3;fill:#FFFFFF;" d="M203.757,145.239c0,0,12.362,5.77,14.284,5.22c1.923-0.549,1.923-2.473,1.923-2.473S205.955,145.514,203.757,145.239z"></path><path style="fill:#291919;" d="M185.076,137.272c0,0,23.351,10.989,53.294,43.13c3.297,0.55,26.098-11.538,52.47-10.714c26.374,0.825,41.757,15.109,41.757,15.109l-5.769-23.9c0,0-18.758-9.122-39.284-3.297C246.886,169.14,185.076,137.272,185.076,137.272z"></path></g><path style="fill:#473737;stroke:#000000;stroke-linecap:round;stroke-linejoin:round;" d="M387.267,114.472c0,1.099,7.141,5.494,7.691,6.868c0.549,1.374,14.01,18.406,34.34,17.307c3.297-1.648,7.143-4.67,7.143-4.67s9.891-4.945,22.801-19.779c12.912-14.835,20.055-26.647,21.428-42.306c3.572,6.043,3.846,11.538,3.846,11.538s0.551,18.131-2.747,23.9c-8.79,9.89-15.383,20.329-15.383,20.329s-9.067,22.801-9.615,26.647c-2.199,3.846-3.021,4.67-3.021,4.67s-5.22,17.856-7.693,18.681c-6.867-9.066-14.285-14.835-20.877-14.835c-9.066,3.022-22.528,15.66-22.528,15.66L387.267,114.472z"></path><path style="fill:#291919;" d="M483.506,92.219c0,0-16.48,21.611-25.272,33.883c-3.379,7.092-19.797,24.112-22.489,27.16c-3.102,0.694-6.099,1.125-8.644,1.043c-11.356-0.366-22.528-8.424-22.528-8.424l-11.355-17.765l5.679,17.398c0,0,4.577,29.487,4.944,30.586c3.479-3.847,17.763-13.553,21.978-14.285c4.213-0.733,22.344,11.171,22.344,11.171l4.577-14.286c0,0,2.198-2.746,2.933-4.028c0.693-2.198,1.678-5.415,2.309-7.489c0.117-0.074,0.209-0.144,0.254-0.204c1.098-1.464,5.86-17.215,6.96-19.047c1.098-1.831,12.271-17.397,16.301-21.793C483.692,101.743,483.506,92.219,483.506,92.219z"></path><path style="fill:#473737;stroke:#000000;stroke-linecap:round;stroke-linejoin:round;" d="M315.383,166.576c0,0,6.959-9.891,9.522-24.908c2.564-15.019,8.79-35.53,8.79-35.53h3.665c0,0,1.462,22.71,17.214,32.966c15.751,10.255,28.937,15.75,28.937,15.75s6.594-13.186,3.298-27.838c-3.298-14.651-9.89-23.075-9.89-23.075l6.592,2.563c0,0,17.652,32.967,20.216,50.181c2.564,17.215,3.296,26.006,3.296,26.006s-0.364,16.117,0.367,19.413c0.733,3.297,6.228,27.106,0.366,60.805c0.367,8.058-0.069,18.313-1.9,20.512c-1.833,2.197-8.792,4.395-8.792,4.395l-1.832,6.228c0,0,4.03,2.932,6.228,8.792c2.198,5.86,11.721,49.079,10.622,52.01c-1.099,2.933-7.691,5.863-7.691,5.863s-36.032-42.753-43.358-53.375c-3.031-18.667-27.71-51.481-39.063-59.908c1.83-3.663,1.83-3.663,1.83-3.663s12.452-10.988,12.82-13.918c0,0,8.03-22.37,0.008-37.812C326.921,173.353,315.383,166.576,315.383,166.576z"></path><path style="fill:#291919;" d="M406.657,263.093c0,0,1.832-10.439,1.832-12.271c-2.198,4.579-5.311,9.523-4.945,10.073C403.91,261.443,405.558,262.726,406.657,263.093z"></path><path style="fill:#291919;" d="M366.295,268.037c0,0-11.354-11.721-11.354-13.918c0-2.199,3.662-16.119,5.495-16.851c1.147-0.458-2.353,7.2-0.368,8.425c1.183,0.729,8.427,5.494,8.427,5.494L366.295,268.037z"></path><path style="fill:none;stroke:#000000;stroke-linecap:round;stroke-linejoin:round;" d="M358.238,247.526c0,0-2.564,6.96-1.832,8.791s8.425,9.523,8.425,9.523"></path><path style="fill:#291919;" d="M394.134,283.422l2.93,4.395l-1.832,6.228c0,0,5.495,8.058,6.594,10.988c1.098,2.931,6.959,29.671,6.959,29.671l1.098,15.383c0,0-1.465-5.86-6.592-13.186c-4.028-18.315-12.454-39.193-12.454-39.193L394.134,283.422z"></path><path style="fill:#291919;" d="M362.13,307.699c0,0,40.793,50.079,42.993,51.176c4.394-0.731,6.958-4.029,6.958-4.029s-3.297-19.412-4.396-23.074c-0.365,8.423-0.365,14.651-0.365,14.651L362.13,307.699z"></path><path style="fill:#291919;" d="M321.969,247.426c0,0,30.364,19.574,40.895,60.64c-1.465-22.345-0.963-25.744-0.963-25.744S342.846,263.178,321.969,247.426z"></path><path style="fill:#291919;" d="M333.33,183.425c0,0,6.959,10.989,8.059,16.85c6.226,6.959,21.244,32.599,21.244,32.599l-10.622-41.39C352.011,191.483,339.558,183.058,333.33,183.425z"></path><path style="opacity:0.3;fill:#FFFFFF;" d="M323.807,154.854c0,0-4.397,9.891-6.227,11.355c4.762,3.297,10.621,9.158,12.087,12.088C328.201,166.942,323.807,154.854,323.807,154.854z"></path><path style="opacity:0.3;fill:#FFFFFF;" d="M336.169,108.153c0,0,1.098,18.956,15.109,30.218c14.01,11.263,32.69,18.131,32.69,18.131s-24.956-8.294-34.063-15.659C336.993,130.405,336.169,108.153,336.169,108.153z"></path><path style="fill:#291919;" d="M386.076,155.953c0,0,16.917,34.064,20.214,45.419c1.1-58.056-21.497-87.358-21.497-87.358S395.598,139.105,386.076,155.953z"></path><g><g><path style="fill:#FFFFFF;stroke:#000000;stroke-linecap:round;stroke-linejoin:round;" d="M364.464,248.44c-0.479-0.327-0.549,15.567,0.733,17.948c5.494,8.607,21.978,30.036,25.823,32.783c-0.367-5.861,4.211-17.398,4.211-17.398S386.442,263.46,364.464,248.44z"></path></g><path style="fill:#FFFFFF;stroke:#000000;stroke-linecap:round;stroke-linejoin:round;" d="M364.328,255.675c4.119,7.967,23.349,28.297,28.156,31.455"></path></g></g><path style="fill:#6E6E6E;stroke:#000000;stroke-linecap:round;stroke-linejoin:round;" d="M344.959,163.096c-0.137,0.549,5.633,9.752,7.83,14.834c3.297,1.511,10.576,5.083,10.576,5.083s1.511-9.478-0.824-15.246c-2.336-5.77-17.17-4.67-17.17-4.67"></path><path style="fill:#6E6E6E;stroke:#000000;stroke-linecap:round;stroke-linejoin:round;" d="M369.134,210.759c-0.137,0.412,3.159,16.757,4.259,18.131c1.098,1.374,10.576,7.28,11.4,8.517c-1.098-9.066-1.374-14.011-3.159-17.72S369.134,210.759,369.134,210.759z"></path><path style="fill:#291919;stroke:#000000;stroke-linecap:round;stroke-linejoin:round;" d="M384.243,233.56c0,0-3.571-3.159-7.142-5.631c-1.787-6.593-7.829-16.758-7.829-17.169l4.12,18.131l10.989,8.379L384.243,233.56z"></path><path style="fill:#291919;stroke:#000000;stroke-linecap:round;stroke-linejoin:round;" d="M350.865,163.371c0,0,4.944,7.005,5.769,16.345l-3.845-1.786c0,0-6.32-11.95-8.242-14.422C346.333,162.821,350.865,163.371,350.865,163.371z"></path><g><path style="fill:#6E6E6E;stroke:#000000;stroke-linecap:round;stroke-linejoin:round;" d="M314.755,108.55c-1.521,7.121-8.361,11.794-15.272,10.437c-6.912-1.356-11.28-8.23-9.756-15.352s8.362-11.794,15.274-10.437C311.913,94.556,316.279,101.429,314.755,108.55z"></path><path style="fill:#6E6E6E;stroke:#000000;stroke-linecap:round;stroke-linejoin:round;" d="M313.191,112.596c-2.509,4.908-8.15,7.123-12.604,4.947c-4.453-2.174-6.027-7.918-3.521-12.828c2.507-4.906,8.151-7.123,12.604-4.946C314.124,101.945,315.697,107.689,313.191,112.596z"></path><path style="fill:#6E6E6E;stroke:#000000;stroke-linecap:round;stroke-linejoin:round;" d="M312.223,115.027c-2.499,3.068-6.633,3.802-9.234,1.643c-2.601-2.159-2.685-6.397-0.186-9.464c2.5-3.067,6.635-3.802,9.237-1.644C314.641,107.724,314.722,111.962,312.223,115.027z"></path></g><g><ellipse transform="matrix(0.9148 0.4039 -0.4039 0.9148 55.6517 -97.9247)" style="fill:#6E6E6E;stroke:#000000;stroke-linecap:round;stroke-linejoin:round;" cx="259.935" cy="82.948" rx="10.714" ry="12.156"></ellipse><path style="fill:#6E6E6E;stroke:#000000;stroke-linecap:round;stroke-linejoin:round;" d="M268.884,88.038c-2.284,5.171-7.411,7.917-11.449,6.134c-4.04-1.788-5.461-7.43-3.178-12.601c2.284-5.174,7.411-7.92,11.45-6.132C269.746,77.222,271.168,82.864,268.884,88.038z"></path><path style="fill:#6E6E6E;stroke:#000000;stroke-linecap:round;stroke-linejoin:round;" d="M267.129,90.253c-2.407,2.861-5.958,3.546-7.931,1.531c-1.972-2.015-1.618-5.966,0.789-8.826c2.408-2.861,5.956-3.546,7.932-1.531C269.89,83.441,269.536,87.394,267.129,90.253z"></path></g><path style="fill:#6E6E6E;stroke:#000000;stroke-linecap:round;stroke-linejoin:round;" d="M219.141,52.523c2.61,1.786,3.571,8.379,1.099,12.912c-2.472,4.532-9.477,5.631-10.713,3.709c-1.237-1.923-3.984-6.869-0.138-12.5C211.313,53.826,216.531,50.737,219.141,52.523z"></path><path style="fill:#6E6E6E;stroke:#000000;stroke-linecap:round;stroke-linejoin:round;" d="M220.788,55.408c0,0-5.635-0.22-7.966,5.22c-1.649,3.846-0.825,6.043,1.922,8.517"></path><path style="fill:none;stroke:#000000;stroke-linecap:round;stroke-linejoin:round;" d="M397.613,287.268c0,0-1.831-5.311-3.113-7.508c-1.283-2.198-18.498-27.474-35.712-34.066c0.548-7.692,2.197-13.735,2.197-13.735s-5.86-40.842-32.052-52.38"></path><path style="opacity:0.3;fill:#FFFFFF;" d="M319.686,105.955c0,0,8.242-24.175,9.89-35.164c1.648-10.988,3.297-28.295,3.297-28.295s0.213,18.12-1.924,30.218C327.652,91.395,319.686,105.955,319.686,105.955z"></path><path style="opacity:0.3;fill:#FFFFFF;" d="M214.744,119.142c0,0,15.935-21.978,32.691-22.802c-5.494,3.571-9.341,5.219-8.516,7.417c0.824,2.197,7.966,6.593,7.966,6.593s-7.134-3.694-10.164-3.846C225.733,105.955,214.744,119.142,214.744,119.142z"></path><path style="opacity:0.3;fill:#FFFFFF;" d="M208.427,72.44c-16.679,11.701-27.494,30.621-29.376,34.066c-0.194,0.356-0.292,0.547-0.292,0.547s6.318-12.088,14.559-17.033c8.241-4.944,13.736-0.823,13.736-0.823s-7.417-4.67-7.143-6.593C200.505,78.444,208.427,72.44,208.427,72.44z"></path></g></g></g></svg>