<svg xmlns="http://www.w3.org/2000/svg" width="500" height="500" version="1.1"><g id="x007" data-trait-type="Wings" data-trait-value="Pheonix Wings"><g><g><path style="fill:#6E6E6E;stroke:#000000;stroke-linecap:round;stroke-linejoin:round;" d="M174.984,242.87c4.062-5.551,6.77-6.751,15.667-9.002c-8.511,8.552-5.803,19.354-5.803,19.354l5.996-2.4c0,0-6.963,7.651-6.383,18.453c0.581,10.803,7.543,17.554,11.026,21.604c7.93,0.601,13.347,3.75,13.347,3.75s13.346-5.249,15.861,1.202s-5.996,12.452-13.733,14.854c-7.738,2.4-13.541,15.152-13.734,16.952c0.774,3.151,0.967,6.002,0.967,6.002s-5.029-2.401-5.609-2.851c-0.581-0.45-2.321-10.653-2.321-10.653l-16.248-15.303c0,0-23.792-10.651-25.533-17.253c-1.741-6.603,2.515-27.007,2.515-27.007l-14.894-32.707l26.887,5.552L174.984,242.87z"></path><path style="fill:#505050;stroke:#000000;stroke-linecap:round;stroke-linejoin:round;" d="M113.666,214.214c0,0-4.642-10.502-4.255-12.753c0.387-2.25,13.154,4.352,17.215,8.553c4.062,4.2,5.996,10.502,5.996,10.502l-4.449,4.65L113.666,214.214z"></path><path style="fill:#6E6E6E;stroke:#000000;stroke-linecap:round;stroke-linejoin:round;" d="M153.9,231.317c0,0-12.767-18.004-11.605-39.308c1.16-21.305,21.664-39.608,46.81-40.209c-20.117,9.302-41.781,32.707-27.854,74.416l6.19,11.703c0,0,3.481-4.802,5.029-5.702c0.774,5.401,3.095,13.653,3.095,13.653"></path><path style="fill:#505050;" d="M154.673,167.704c0,0-11.992,12.303-10.832,29.105c1.161,16.805,6.963,28.507,6.963,28.507l10.059,9.902C160.863,235.219,138.038,201.611,154.673,167.704z"></path><path style="fill:#6E6E6E;stroke:#000000;stroke-linecap:round;stroke-linejoin:round;" d="M156.608,230.718c0,0-20.504-13.503-22.051-47.71c-1.547-34.208,22.438-49.512,22.438-49.512s-39.074,13.804-41.395,40.509c-2.321,26.706,5.803,33.608,5.803,33.608s6.189,1.8,5.802,2.7c-0.386,0.899-3.481,2.1-3.481,2.1s10.058,15.004,21.277,19.806C156.221,237.02,156.608,230.718,156.608,230.718z"></path><path style="fill:#505050;" d="M141.133,228.917c0,0-13.927-12.603-14.701-15.604c1.547-2.101,2.321-3.601,2.321-3.601l-6.189-3.301c0,0-6.964-5.701-5.417-32.107c4.256,15.904,7.345,21.783,12.38,31.508c6.125,11.83,14.701,21.304,14.701,21.304L141.133,228.917z"></path><path style="fill:#6E6E6E;stroke:#000000;stroke-linecap:round;stroke-linejoin:round;" d="M120.05,217.665c-0.581-0.3-12.959-11.103-15.668-26.556c-2.708-15.454-0.193-32.558-0.193-32.558s-19.537,11.553-16.055,39.758c2.622,21.238,24.372,36.458,32.11,40.21C127.98,242.27,120.05,217.665,120.05,217.665z"></path><path style="fill:#505050;" d="M96.258,214.813c-0.774-1.5-14.314-21.005,0.387-46.81c-7.737,31.206,10.059,52.211,10.059,52.211L96.258,214.813z"></path><path style="fill:#6E6E6E;stroke:#000000;stroke-linecap:round;stroke-linejoin:round;" d="M146.55,310.385c0,0-2.515,7.801-14.508,6.301c4.255-6.9,6.383-9.751,6.383-9.751l10.445-1.801L146.55,310.385z"></path><path style="fill:#6E6E6E;stroke:#000000;stroke-linecap:round;stroke-linejoin:round;" d="M109.411,288.63c0,0-19.776-6.089-21.13-8.04c1.741-2.399,15.133-4.006,15.133-4.006s-26.185-12.672-31.601-20.473c4.449-0.9,16.468,0,16.468,0s-20.309-11.921-23.145-21.364c4.006-3.562,18.693,1.335,18.693,1.335s-16.023-11.127-16.467-23.59c7.566,1.336,16.902,7.423,16.902,7.423s-9.285-15.304-4.062-27.306c4.449,9.603,14.701,23.105,14.701,23.105s16.248,7.801,17.022,8.102c0.774,0.3,33.463,21.454,33.657,22.055c0.194,0.6-21.277,44.56-21.277,44.56L109.411,288.63z"></path><path style="fill:#505050;" d="M103.608,238.52c0,0-21.277-10.203-23.211-38.409C86.973,211.213,103.608,238.52,103.608,238.52z"></path><path style="fill:#6E6E6E;stroke:#000000;stroke-linecap:round;stroke-linejoin:round;" d="M123.725,296.731c0,0-7.543,2.851-17.795,1.2s-20.117-9.151-20.117-9.151s17.408-1.501,23.985-1.051c6.577,0.45,15.281,3.451,15.281,3.451L123.725,296.731z"></path><path style="fill:#6E6E6E;stroke:#000000;stroke-linecap:round;stroke-linejoin:round;" d="M133.396,304.983c0,0-4.835,3.751-14.701,4.201c-9.865,0.449-12.186-1.65-12.186-1.65s6.577-7.052,16.249-8.102c9.671-1.05,14.894,0.301,14.894,0.301L133.396,304.983z"></path><path style="fill:#6E6E6E;stroke:#000000;stroke-linecap:round;stroke-linejoin:round;" d="M150.592,238.308c-0.967-1.951-7.331-10.441-7.331-10.441s12.766,0.301,20.117,11.103"></path><path style="fill:#6E6E6E;stroke:#000000;stroke-linecap:round;stroke-linejoin:round;" d="M117.535,268.826c0,0-21.084-8.102-22.631-19.805c8.317,0.149,16.248,1.35,16.248,1.35s-8.705-6.751-9.091-10.502c5.61,2.102,11.606,2.701,11.606,2.701s-16.828-16.354-17.408-26.406c7.35,1.2,26.983,13.053,26.983,13.053"></path><polygon style="fill:#505050;" points="105.155,242.419 112.119,249.621 126.82,254.422 132.236,253.522 130.301,250.821 112.505,243.021 "></polygon><path style="fill:#505050;" d="M129.915,263.725c0,0-22.438-8.102-32.884-13.503c1.548,8.402,22.438,17.704,22.438,17.704l14.797-1.125L129.915,263.725z"></path><path style="fill:#505050;" d="M126.82,248.722c0,0-20.117-8.703-27.854-28.507C112.119,229.517,126.046,243.62,126.82,248.722z"></path><path style="fill:#6E6E6E;stroke:#000000;stroke-linecap:round;stroke-linejoin:round;" d="M153.9,244.971c-5.416-3.601-31.335-23.855-32.303-22.204c-1.741,7.352,12.186,19.354,19.343,22.204c-5.029-2.251-16.608-1.768-17.943,3.129c-1.335,4.896,6.375,14.12,11.729,18.87c-8.674,0.589-17.578,3.657-17.578,3.657s3.963,4.986,11.584,7.675c-13.591,1.41-20.675,8.978-20.675,8.978s10.833,13.653,26.694,13.354c0.267-0.004,0.524-0.02,0.786-0.03l-4.848,7.382c0,0,20.941,6.28,27.155,2.742c-2.948,6.839,11.725,22.313,11.725,22.313s3.994-1.973,7.409-9.326c2.481,3.68,7.292,5.726,7.292,5.726s0.992-3.849,2.211-10.472c2.799,3.363,5.913,4.77,5.913,4.77s1.547-2.7,2.321-9.151s-5.61-15.604-5.61-15.604"></path><path style="fill:#505050;" d="M191.812,299.132c0,0-23.598-4.502-26.306-33.606C174.79,277.228,191.812,299.132,191.812,299.132z"></path><path style="fill:none;stroke:#000000;stroke-linecap:round;stroke-linejoin:round;" d="M112.844,241.971c0,0,1.789,1.462,4.521,3.225"></path><path style="fill:none;stroke:#000000;stroke-linecap:round;stroke-linejoin:round;" d="M111.345,250.522c0,0,6.189,2.101,11.799,3"></path><path style="fill:none;stroke:#000000;stroke-linecap:round;stroke-linejoin:round;" d="M134.702,253.973c0,0,5.512,5.4,15.667,5.176"></path><path style="fill:none;stroke:#000000;stroke-linecap:round;stroke-linejoin:round;" d="M159.219,310.235c0,0,6.384-3.601,6.964-9.678"></path><path style="fill:none;stroke:#000000;stroke-linecap:round;stroke-linejoin:round;" d="M177.208,324.301c0,0,1.451-8.553,1.161-18.229"></path><path style="fill:none;stroke:#000000;stroke-linecap:round;stroke-linejoin:round;" d="M175.177,288.93c0,0,5.803,9.002,18.956,11.402"></path><path style="fill:none;stroke:#000000;stroke-linecap:round;stroke-linejoin:round;" d="M165.119,264.024c0,0,0.773,11.403,3.481,14.104"></path><line style="fill:none;stroke:#000000;stroke-linecap:round;stroke-linejoin:round;" x1="169.374" y1="281.653" x2="170.245" y2="281.429"></line><line style="fill:none;stroke:#000000;stroke-linecap:round;stroke-linejoin:round;" x1="171.55" y1="284.916" x2="172.421" y2="284.692"></line></g><g><path style="fill:#6E6E6E;stroke:#000000;stroke-linecap:round;stroke-linejoin:round;" d="M325.017,242.87c-4.063-5.551-6.771-6.751-15.669-9.002c8.512,8.552,5.804,19.354,5.804,19.354l-5.996-2.4c0,0,6.963,7.651,6.383,18.453c-0.58,10.803-7.544,17.554-11.025,21.604c-7.931,0.601-13.347,3.75-13.347,3.75s-13.347-5.249-15.861,1.202c-2.516,6.451,5.995,12.452,13.733,14.854c7.737,2.4,13.54,15.152,13.733,16.952c-0.773,3.151-0.967,6.002-0.967,6.002s5.029-2.401,5.609-2.851c0.58-0.45,2.321-10.653,2.321-10.653l16.248-15.303c0,0,23.792-10.651,25.533-17.253c1.74-6.603-2.516-27.007-2.516-27.007l14.895-32.707l-26.887,5.552L325.017,242.87z"></path><path style="fill:#505050;stroke:#000000;stroke-linecap:round;stroke-linejoin:round;" d="M386.333,214.214c0,0,4.643-10.502,4.256-12.753c-0.387-2.25-13.153,4.352-17.216,8.553c-4.062,4.2-5.995,10.502-5.995,10.502l4.449,4.65L386.333,214.214z"></path><path style="fill:#6E6E6E;stroke:#000000;stroke-linecap:round;stroke-linejoin:round;" d="M346.1,231.317c0,0,12.768-18.004,11.606-39.308c-1.161-21.305-21.664-39.608-46.811-40.209c20.117,9.302,41.781,32.707,27.854,74.416l-6.189,11.703c0,0-3.481-4.802-5.029-5.702c-0.773,5.401-3.095,13.653-3.095,13.653"></path><path style="fill:#505050;" d="M345.326,167.704c0,0,11.993,12.303,10.832,29.105c-1.16,16.805-6.963,28.507-6.963,28.507l-10.059,9.902C339.137,235.219,361.961,201.611,345.326,167.704z"></path><path style="fill:#6E6E6E;stroke:#000000;stroke-linecap:round;stroke-linejoin:round;" d="M343.393,230.718c0,0,20.504-13.503,22.051-47.71c1.547-34.208-22.438-49.512-22.438-49.512s39.073,13.804,41.395,40.509c2.321,26.706-5.803,33.608-5.803,33.608s-6.189,1.8-5.804,2.7c0.388,0.899,3.482,2.1,3.482,2.1s-10.059,15.004-21.277,19.806C343.779,237.02,343.393,230.718,343.393,230.718z"></path><path style="fill:#505050;" d="M358.867,228.917c0,0,13.926-12.603,14.7-15.604c-1.548-2.101-2.321-3.601-2.321-3.601l6.189-3.301c0,0,6.964-5.701,5.416-32.107c-4.255,15.904-7.345,21.783-12.38,31.508c-6.124,11.83-14.7,21.304-14.7,21.304L358.867,228.917z"></path><path style="fill:#6E6E6E;stroke:#000000;stroke-linecap:round;stroke-linejoin:round;" d="M379.95,217.665c0.58-0.3,12.96-11.103,15.668-26.556c2.708-15.454,0.193-32.558,0.193-32.558s19.536,11.553,16.055,39.758c-2.621,21.238-24.372,36.458-32.109,40.21C372.02,242.27,379.95,217.665,379.95,217.665z"></path><path style="fill:#505050;" d="M403.742,214.813c0.773-1.5,14.313-21.005-0.387-46.81c7.737,31.206-10.059,52.211-10.059,52.211L403.742,214.813z"></path><path style="fill:#6E6E6E;stroke:#000000;stroke-linecap:round;stroke-linejoin:round;" d="M353.45,310.385c0,0,2.514,7.801,14.508,6.301c-4.256-6.9-6.384-9.751-6.384-9.751l-10.445-1.801L353.45,310.385z"></path><path style="fill:#6E6E6E;stroke:#000000;stroke-linecap:round;stroke-linejoin:round;" d="M390.589,288.63c0,0,19.776-6.089,21.13-8.04c-1.74-2.399-15.133-4.006-15.133-4.006s26.185-12.672,31.602-20.473c-4.449-0.9-16.469,0-16.469,0s20.309-11.921,23.145-21.364c-4.005-3.562-18.693,1.335-18.693,1.335s16.023-11.127,16.468-23.59c-7.566,1.336-16.903,7.423-16.903,7.423s9.286-15.304,4.063-27.306c-4.448,9.603-14.7,23.105-14.7,23.105s-16.248,7.801-17.022,8.102c-0.773,0.3-33.464,21.454-33.656,22.055c-0.193,0.6,21.277,44.56,21.277,44.56L390.589,288.63z"></path><path style="fill:#505050;" d="M396.392,238.52c0,0,21.277-10.203,23.212-38.409C413.026,211.213,396.392,238.52,396.392,238.52z"></path><path style="fill:#6E6E6E;stroke:#000000;stroke-linecap:round;stroke-linejoin:round;" d="M376.275,296.731c0,0,7.543,2.851,17.796,1.2c10.251-1.65,20.116-9.151,20.116-9.151s-17.408-1.501-23.985-1.051c-6.576,0.45-15.281,3.451-15.281,3.451L376.275,296.731z"></path><path style="fill:#6E6E6E;stroke:#000000;stroke-linecap:round;stroke-linejoin:round;" d="M366.604,304.983c0,0,4.836,3.751,14.7,4.201c9.866,0.449,12.187-1.65,12.187-1.65s-6.577-7.052-16.248-8.102c-9.672-1.05-14.894,0.301-14.894,0.301L366.604,304.983z"></path><path style="fill:#6E6E6E;stroke:#000000;stroke-linecap:round;stroke-linejoin:round;" d="M349.408,238.308c0.967-1.951,7.33-10.441,7.33-10.441s-12.766,0.301-20.116,11.103"></path><path style="fill:#6E6E6E;stroke:#000000;stroke-linecap:round;stroke-linejoin:round;" d="M382.465,268.826c0,0,21.084-8.102,22.632-19.805c-8.317,0.149-16.248,1.35-16.248,1.35s8.704-6.751,9.091-10.502c-5.609,2.102-11.606,2.701-11.606,2.701s16.829-16.354,17.409-26.406c-7.351,1.2-26.983,13.053-26.983,13.053"></path><polygon style="fill:#505050;" points="394.844,242.419 387.881,249.621 373.181,254.422 367.765,253.522 369.699,250.821 387.494,243.021 "></polygon><path style="fill:#505050;" d="M370.085,263.725c0,0,22.438-8.102,32.884-13.503c-1.548,8.402-22.438,17.704-22.438,17.704l-14.797-1.125L370.085,263.725z"></path><path style="fill:#505050;" d="M373.181,248.722c0,0,20.116-8.703,27.854-28.507C387.881,229.517,373.953,243.62,373.181,248.722z"></path><path style="fill:#6E6E6E;stroke:#000000;stroke-linecap:round;stroke-linejoin:round;" d="M346.1,244.971c5.416-3.601,31.336-23.855,32.304-22.204c1.741,7.352-12.187,19.354-19.344,22.204c5.029-2.251,16.608-1.768,17.944,3.129c1.335,4.896-6.375,14.12-11.729,18.87c8.674,0.589,17.577,3.657,17.577,3.657s-3.963,4.986-11.583,7.675c13.591,1.41,20.674,8.978,20.674,8.978s-10.831,13.653-26.692,13.354c-0.268-0.004-0.524-0.02-0.786-0.03l4.848,7.382c0,0-20.94,6.28-27.154,2.742c2.948,6.839-11.725,22.313-11.725,22.313s-3.995-1.973-7.41-9.326c-2.481,3.68-7.292,5.726-7.292,5.726s-0.99-3.849-2.21-10.472c-2.799,3.363-5.913,4.77-5.913,4.77s-1.548-2.7-2.321-9.151s5.609-15.604,5.609-15.604"></path><path style="fill:#505050;" d="M308.188,299.132c0,0,23.599-4.502,26.307-33.606C325.209,277.228,308.188,299.132,308.188,299.132z"></path><path style="fill:none;stroke:#000000;stroke-linecap:round;stroke-linejoin:round;" d="M387.156,241.971c0,0-1.789,1.462-4.521,3.225"></path><path style="fill:none;stroke:#000000;stroke-linecap:round;stroke-linejoin:round;" d="M388.655,250.522c0,0-6.19,2.101-11.8,3"></path><path style="fill:none;stroke:#000000;stroke-linecap:round;stroke-linejoin:round;" d="M365.298,253.973c0,0-5.513,5.4-15.668,5.176"></path><path style="fill:none;stroke:#000000;stroke-linecap:round;stroke-linejoin:round;" d="M340.781,310.235c0,0-6.384-3.601-6.964-9.678"></path><path style="fill:none;stroke:#000000;stroke-linecap:round;stroke-linejoin:round;" d="M322.792,324.301c0,0-1.451-8.553-1.161-18.229"></path><path style="fill:none;stroke:#000000;stroke-linecap:round;stroke-linejoin:round;" d="M324.822,288.93c0,0-5.802,9.002-18.956,11.402"></path><path style="fill:none;stroke:#000000;stroke-linecap:round;stroke-linejoin:round;" d="M334.881,264.024c0,0-0.773,11.403-3.481,14.104"></path><line style="fill:none;stroke:#000000;stroke-linecap:round;stroke-linejoin:round;" x1="330.626" y1="281.653" x2="329.755" y2="281.429"></line><line style="fill:none;stroke:#000000;stroke-linecap:round;stroke-linejoin:round;" x1="328.449" y1="284.916" x2="327.579" y2="284.692"></line></g></g></g></svg>