<svg xmlns="http://www.w3.org/2000/svg" width="500" height="500" version="1.1"><g id="a9069"><g><g><path style="opacity:0.8;fill:#6E6E6E;" d="M297.709,356.943c1.911,2.55,0.85,7.012,0.85,7.012s-6.585,7.647-7.223,8.921c1.7,0.213,3.824,1.063,2.762,1.7c-1.062,0.638-3.187,0.425-4.461,6.16c-1.275,5.735,1.487,14.233,2.973,15.295c1.488,1.063,2.338,1.912,2.338,1.912s1.487,4.462,3.398,4.462c1.912,0,3.398-2.763,5.312-6.161c1.911-3.398,4.249-6.585,2.762-10.835c-1.488-4.248-3.823-6.797-4.675-9.558c-0.85-2.763-1.699-6.799,0-10.197c1.701-3.398,1.488-6.798,4.675-7.647c1.063-8.072-1.912-10.835-7.011-11.048c-5.098-0.211-8.497,3.4-12.959,3.612C290.911,353.12,295.797,354.395,297.709,356.943z"></path></g><g><path style="opacity:0.8;fill:#6E6E6E;" d="M237.441,351.691c0,0-3.261,7.389-1.957,11.302c1.305,3.911,2.825,4.128,2.825,4.128s-1.302,0.218-0.217,2.608c1.086,2.39,7.824-0.435,7.824,6.303c0,6.736-3.042,14.125-7.39,17.169c-1.302,4.129,0.435,5.649,0.435,5.649s-4.129,4.347-0.652,9.128c3.479,4.781,15.214,6.302,16.518,0s0.218-8.693,0.218-8.693c-4.13-2.391-8.911-1.738-7.39-9.128c1.522-7.389,3.694-8.04,5.434-8.475c-3.477-3.479-4.782-8.477-4.782-9.998c0-1.521-2.473-7.185,1.957-10.865c-0.763-1.986-4.98,0.305-6.955-2.826c-2.308-3.66,0.217-18.255,0.217-18.255L237.441,351.691z"></path></g><g><path style="opacity:0.8;fill:#6E6E6E;" d="M176.159,336.292c0,0,1.008,7.874-4.305,12.199c-1.412,1.149-1.674,2.39-1.436,3.587c0.239,1.196,1.675-1.197,6.219,1.913c4.544,3.109,5.979,4.544,6.218,5.979c0.239,1.435-3.689,3.279-3.689,3.279s10.864,6.526,4.407,14.18c-6.458,7.652-17.459,5.98-17.459,5.98s-9.947,10.923,0.479,22.72c2.113,2.391,8.849-0.956,10.045-2.392c1.195-1.435,1.195-4.066,1.195-4.066s4.784,0.239,6.937-3.349c-1.436-4.782-4.067-6.935,1.673-12.197c0.479-3.109,2.392-8.849,6.936-11.001c-1.913-2.871-3.826-6.459-2.392-9.089c-5.321-8.036-13.633-10.762-14.35-11.001c-0.718-0.239-4.104-0.189-1.674-3.589C180.167,342.166,176.159,336.292,176.159,336.292z"></path></g></g><g><path style="fill:#2B2829;stroke:#000000;stroke-linecap:round;stroke-linejoin:round;" d="M155.02,326.287c0.933,2.052-1.306,6.901-2.611,8.954c-1.12,0.187,0.187,7.835,0.187,7.835s0.187-0.934,0.373,1.864c0.187,0.933,7.088,9.701,7.088,12.872s-18.094,35.815-27.608,48.127c-2.238,2.799-13.618,4.663-13.618,4.663s-11.006-1.864-19.4-6.155c-8.878-4.538-17.81-13.605-18.281-14.736c-0.933-2.238-0.747-16.229-0.747-17.162s19.214-40.665,23.131-43.837c3.917-3.171,9.327-1.306,11.752-1.492s13.804-3.171,13.804-3.171s-0.186-3.918,0.373-5.597c0.56-1.679,4.104-2.816,4.104-1.865C133.567,316.773,155.02,326.287,155.02,326.287z"></path><path style="opacity:0.8;fill:#6E6E6E;" d="M151.406,341.544c-0.503-2.714-0.906-5.294-0.906-5.294s3.083-5.083,3.25-6.75s-0.375-4.25-0.375-4.25L132.833,317c0,0-1.542,1.083-2.208,2.25s-0.125,5.375-0.125,5.375s-1.024,0.196-2.509,0.496C133.509,332.856,142.026,338.188,151.406,341.544z"></path><path style="opacity:0.5;fill:#FFFFFF;" d="M111,330.5c0,0-3,1-2.5,3.5s10,8.5,15,6.5C115,336,111,330.5,111,330.5z"></path><path style="opacity:0.8;fill:#6E6E6E;" d="M129.028,437.403c-0.622-1.493-0.374-2.115-0.374-2.115s0-4.477-1.243-5.845c-0.373,1.493-4.851,6.467-9.576,0.621c-4.725-5.844-8.829-14.177-3.854-16.29c4.974-2.114,11.068-0.373,12.188-1.865c1.119-1.493,1.989-5.348,1.989-5.348s-16.583-2.198-27.908-9.062c-11.886-7.204-18.54-19.087-18.5-19c-1.4-0.729-5.467,10.535-7.191,11.397c-3.979,1.989-7.461,11.192-11.814,10.819c-4.353-0.374-8.333-7.959-11.814-8.457c-3.482-0.497-8.457,1.493-7.213,7.337c-1.119,0.249-2.86,2.115-2.363,3.482c0.498,1.368,4.104,2.859,4.104,4.602c1.492,0.498,2.86-1.368,2.86-1.368s3.731,2.985,7.213,1.492c1.617,4.104,7.461,10.322,8.83,10.944s5.099,0.496,6.343-2.488c0-6.218,2.238-10.445,6.093-10.57c0.373,1.244,0.373,1.244,0.373,1.244s10.571-2.115,15.296,3.357c-0.01-0.108-0.027-0.219-0.041-0.328c0.736,0.533,1.459,0.914,2.155,1.074c0,0-1.99,9.825,3.358,17.037c5.347,7.213,12.436,6.715,13.68,11.69c1.243,4.975-1.244,16.914-4.85,18.903c4.104,1.616,15.794-2.985,16.789-7.089s0-8.582,0.124-9.203C123.805,441.756,125.297,437.527,129.028,437.403z"></path><path style="opacity:0.8;fill:#6E6E6E;" d="M154.273,331.137c0,0,1.679,1.68,4.477-0.187c-1.306-0.933-1.306-0.933-1.306-0.933l0.933-2.425c0,0-5.037,0.187-2.238-4.851c2.798-5.036,8.394-7.274,10.819-2.425c3.917-1.306,3.917-5.036,3.917-5.036s-2.612-4.104-1.306-7.275c1.306-3.171,2.425-6.716,4.85-10.819c0.56-10.446-2.239-13.058-5.783-15.669c-0.56-4.851,3.357-7.089,6.715-8.208c-5.969,0.56-11.565,5.409-12.312,5.969c-0.746,0.56-0.746,5.037,1.12,7.089c-2.985,0.373-2.985,0.373-4.291,2.799c-1.306,2.425-1.119,15.109-4.477,18.094c-3.358,2.985-15.11,6.529-16.042-1.492c-4.291-1.119-5.036,1.306-5.036,1.306s2.425,2.425,0.373,3.731c-2.052,1.305-4.29,1.678-4.29,1.678s0.187,7.275,7.275,11.939C144.76,329.085,154.273,331.137,154.273,331.137z"></path></g></g></svg>