<svg xmlns="http://www.w3.org/2000/svg" width="500" height="500" version="1.1"><g id="x9071"><g><g><g><polygon style="fill:#2C2629;stroke:#000000;stroke-linecap:round;stroke-linejoin:round;" points="213.709,362.562 165.539,279.014 181.754,270.019 229.922,353.567 "></polygon><g><polygon style="fill:#2C2629;stroke:#000000;stroke-linecap:round;stroke-linejoin:round;" points="215.214,331.633 186.55,281.913 201.592,273.567 230.255,323.287 "></polygon><g><line style="fill:none;stroke:#000000;stroke-linecap:round;stroke-linejoin:round;" x1="209.175" y1="287.616" x2="195.109" y2="295.419"></line><line style="fill:none;stroke:#000000;stroke-linecap:round;stroke-linejoin:round;" x1="211.008" y1="290.793" x2="196.942" y2="298.597"></line></g></g></g><g><path style="fill:#6E6E6E;" d="M104.443,409.171c-6.473,3.593-21.056-9.688-32.572-29.664c-11.516-19.975-15.604-39.079-9.131-42.672c6.474-3.588,21.058,9.693,32.574,29.667S110.917,405.58,104.443,409.171z"></path><polygon style="fill:#2C2629;stroke:#000000;stroke-linecap:round;stroke-linejoin:round;" points="158.882,386.648 110.471,302.681 144.61,283.741 193.021,367.715 "></polygon><g><polygon style="fill:#2C2629;stroke:#000000;stroke-linecap:round;stroke-linejoin:round;" points="166.063,382.669 117.651,298.697 142.56,284.881 190.97,368.85 "></polygon><path style="opacity:0.2;fill:#FFFFFF;" d="M142.159,286.534l-22.563,12.518l7.436,12.895c0,0-0.333-7.952,7.154-11.738c7.488-3.78,15.923,0.789,15.923,0.789L142.159,286.534z"></path><path style="fill:#6E6E6E;stroke:#000000;stroke-linecap:round;stroke-linejoin:round;" d="M132.156,290.653l21.418,37.148c1.694-0.214,3.411,0.547,4.284,2.063c0.874,1.516,0.654,3.352-0.405,4.665l23.115,40.089l-3.224,1.79l-23.2-40.24c-1.565,0.063-3.097-0.677-3.906-2.076c-0.808-1.402-0.665-3.071,0.197-4.354l-21.502-37.3L132.156,290.653z"></path></g><g><polygon style="fill:#2C2629;stroke:#000000;stroke-linecap:round;stroke-linejoin:round;" points="114.779,370.863 103.625,351.517 130.878,336.396 142.031,355.744 "></polygon><polygon style="fill:#2C2629;stroke:#000000;stroke-linecap:round;stroke-linejoin:round;" points="103.119,384.177 86.469,355.301 103.905,345.628 120.553,374.504 "></polygon><path style="fill:#2C2629;stroke:#000000;stroke-linecap:round;stroke-linejoin:round;" d="M73.592,346.717c0,0-3.082,3.376-2.808,4.518c0.272,1.145,23.438,40.653,23.438,40.653s7.794,1.781,9.516,1.749c2.44-0.796,4.241-9.75,4.241-9.75l-16.327-28.317L73.592,346.717z"></path></g></g><g><g><path d="M95.655,295.765c-1.172,0.648-23.574,13.447-31.184,25.068c10.69,1.101,17.218,3.03,17.218,3.03l24.847-15.264L95.655,295.765z"></path><path style="fill:#62595A;stroke:#000000;stroke-linecap:round;stroke-linejoin:round;" d="M105.639,288.928l29.095,50.469c0,0-22.064,13.719-31.371,17.031c-9.305,3.314-15.084,1.339-17.711-0.533c-2.628-1.873-16.428-11.056-16.428-11.056s-9.129,3.954-16.512,10.271c-7.381,6.313-10.281,8.662-11.337,8.509c-1.056-0.156-12.327-2.599-12.327-2.599s9.479-22.465,37.698-44.964c5.032,2.019,8.767-1.902,8.74-4.297c-0.018-1.719-0.803-3.067-0.803-3.067s3.962-3.862,8.131-6.359c1.959,2.058,7.036,5.163,10.478,1.404c3.439-3.761,1.743-6.704-0.495-8.236C100.223,290.268,105.639,288.928,105.639,288.928z"></path><path style="opacity:0.2;fill:#FFFFFF;" d="M104.9,291.005c0,0-8.118,4.257-9.246,4.76c1.417,4.023,2.536,6.856-1.938,9.831c-4.473,2.975-11.653-1.43-11.653-1.43s-5.645,3.625-6.386,5.024c1.509,2.618,3.152,3.675-2.103,7.087c-5.254,3.407-7.153,1.008-7.153,1.008s-9.863,7.938-11.736,10.949c32.335-15.471,67.281-6.731,67.281-6.731L104.9,291.005z"></path><path style="fill:#2C2629;" d="M30.958,358.296l-0.656,2.214c0,0,11.203,2.664,11.87,2.481c2.981-2.211,10.004-8.14,12.253-9.942c2.249-1.803,12.541-8.437,15.158-8.595c2.692,1.65,17.368,12.013,20.323,12.78c2.955,0.766,10.316,1.486,23.144-5.809c13.251-7.538,20.985-11.901,20.985-11.901l-1.261-2.187c0,0-20.254,12.161-25.186,14.342c-4.931,2.18-10.463,4.324-18.224,1.6c-6.917-2.432-17.868-13.217-19.216-13.209c-1.35,0.009-20.593,11.237-28.778,19.851C38.378,360.097,30.958,358.296,30.958,358.296z"></path><path style="fill:#2C2629;stroke:#000000;stroke-linecap:round;stroke-linejoin:round;" d="M106.15,319.083c-2.569,1.426-5.801,0.586-7.218-1.872c-1.418-2.458-0.482-5.605,2.085-7.03c2.569-1.425,5.8-0.589,7.219,1.871C109.652,314.51,108.718,317.656,106.15,319.083z"></path><path d="M106.334,318.99c-1.942,1.077-4.384,0.444-5.455-1.414c-1.072-1.858-0.366-4.237,1.575-5.315c1.943-1.076,4.386-0.444,5.457,1.414C108.983,315.533,108.278,317.912,106.334,318.99z"></path><path style="fill:#2C2629;stroke:#000000;stroke-linecap:round;stroke-linejoin:round;" d="M87.204,328.479c-2.569,1.429-5.802,0.589-7.219-1.866c-1.417-2.459-0.482-5.608,2.086-7.032c2.568-1.425,5.8-0.591,7.217,1.868C90.707,323.908,89.772,327.058,87.204,328.479z"></path><path d="M87.932,328.21c-1.943,1.079-4.385,0.444-5.456-1.412c-1.072-1.856-0.366-4.236,1.576-5.315c1.943-1.077,4.385-0.444,5.456,1.414C90.578,324.754,89.873,327.133,87.932,328.21z"></path><path style="fill:none;stroke:#000000;stroke-linecap:round;stroke-linejoin:round;" d="M30.291,358.48c0,0,6.775,0.683,11.08,1.44c7.866-5.474,18.036-15.003,27.54-18.978"></path><path style="fill:none;stroke:#000000;stroke-linecap:round;stroke-linejoin:round;" d="M72.305,341.465c0,0,9.997,9.626,19.883,13.021"></path></g><g><path d="M157.291,402.672c-1.172,0.647-23.897,12.885-37.973,13.292c4.549-9.551,6.227-16.034,6.227-16.034l26.14-13.02L157.291,402.672z"></path><path style="fill:#62595A;stroke:#000000;stroke-linecap:round;stroke-linejoin:round;" d="M168.406,397.801l-29.096-50.466c0,0-23.356,11.477-31.046,17.594c-7.69,6.113-8.943,11.991-8.661,15.166c0.282,3.171,1.19,19.505,1.19,19.505s-8.159,5.635-17.48,8.587c-9.322,2.948-12.868,4.181-13.278,5.145c-0.409,0.968-4.082,11.701-4.082,11.701s24.512,3.609,58.709-8.52c0.83-5.267,6.18-6.386,8.256-5.131c1.496,0.903,2.269,2.255,2.269,2.255s5.416-1.339,9.746-3.557c-0.787-2.704-0.883-8.574,4.174-9.529c5.058-0.956,6.754,1.989,6.941,4.659C164.444,401.662,168.406,397.801,168.406,397.801z"></path><path style="opacity:0.1;fill:#FFFFFF;" d="M166.213,397.352c0,0-7.902,4.631-8.923,5.32c-2.786-3.267-4.685-5.667-9.589-3.441c-4.903,2.23-4.758,10.533-4.758,10.533s-6.075,2.879-7.679,2.781c-1.507-2.616-1.588-4.547-7.273-1.885c-5.687,2.661-4.568,5.496-4.568,5.496s-12.018,4.198-15.615,4.218c30.18-19.207,40.555-53.085,40.555-53.085L166.213,397.352z"></path><path style="fill:#2C2629;" d="M69.316,424.831l-2.274-0.591c0,0,3.448-10.79,3.953-11.256c3.467-1.366,12.267-4.217,15-5.176c2.733-0.962,13.833-6.194,15.318-8.313c-0.055-3.114-1.544-20.79-0.69-23.67c0.855-2.88,4.018-9.439,17.003-16.461c13.414-7.257,21.211-11.509,21.211-11.509l1.26,2.189c0,0-21.063,10.757-25.509,13.779c-4.446,3.024-9.169,6.567-10.787,14.496c-1.441,7.067,2.337,21.831,1.634,22.959c-0.702,1.129-20.432,11.518-32.172,13.963C71.566,417.665,69.316,424.831,69.316,424.831z"></path><path style="fill:#2C2629;stroke:#000000;stroke-linecap:round;stroke-linejoin:round;" d="M142.327,381.832c-2.568,1.426-3.502,4.574-2.087,7.031c1.418,2.46,4.651,3.296,7.219,1.869c2.568-1.426,3.503-4.574,2.086-7.029C148.127,381.243,144.896,380.409,142.327,381.832z"></path><path d="M146.226,388.626c-1.942,1.082-4.384,0.447-5.456-1.409c-1.072-1.86-0.366-4.24,1.577-5.319c1.942-1.075,4.385-0.442,5.456,1.416C148.873,385.17,148.168,387.552,146.226,388.626z"></path><path style="fill:#2C2629;stroke:#000000;stroke-linecap:round;stroke-linejoin:round;" d="M124.35,392.914c-2.567,1.427-3.502,4.573-2.086,7.03c1.418,2.458,4.65,3.295,7.218,1.872c2.569-1.427,3.504-4.574,2.086-7.031C130.151,392.325,126.919,391.488,124.35,392.914z"></path><path d="M128.469,398.972c-1.942,1.076-4.386,0.443-5.456-1.413c-1.071-1.858-0.366-4.238,1.576-5.313c1.942-1.078,4.385-0.445,5.457,1.411C131.117,395.516,130.413,397.895,128.469,398.972z"></path><path style="fill:none;stroke:#000000;stroke-linecap:round;stroke-linejoin:round;" d="M68.813,425.3c0,0,2.896-6.05,4.451-10.058c8.836-3.792,22.401-7.433,30.773-13.372"></path><path style="fill:none;stroke:#000000;stroke-linecap:round;stroke-linejoin:round;" d="M105.33,398.747c0,0-3.257-13.363-1.129-23.423"></path></g></g><g><path style="fill:#62595A;stroke:#000000;stroke-linecap:round;stroke-linejoin:round;" d="M160.554,263.771c-0.651,0.546-12.902,5.123-19.885,13.806c6.141,10.652,55.36,96.024,55.36,96.024s12.767-3.01,23.485-10.251c-2.446-2.899-12.125-15.661-12.125-15.661s2.168-1.943,2.694-3.715c-2.667-4.626-19.458-24.36-19.458-24.36l2.89-4.378c0,0-11.699-16.269-16.574-21.702c1.017-2.6,1.446-4.871,1.446-4.871l-13.781-15.854l1.052-3.544L160.554,263.771z"></path><path style="fill:#2C2629;" d="M151.005,270.526c0,0-8.848,6.392-9.112,7.275c6.25,10.84,54.635,94.764,54.635,94.764s7.612-2.005,10.932-3.847C199.918,355.636,151.005,270.526,151.005,270.526z"></path><g><g><path style="fill:#6E6E6E;stroke:#000000;stroke-linecap:round;stroke-linejoin:round;" d="M190.87,362.527c-0.4-0.025,16.808-15.12,16.808-15.12l1.304,2.483l-16.905,15.175L190.87,362.527z"></path></g><g><polygon style="fill:#6E6E6E;stroke:#000000;stroke-linecap:round;stroke-linejoin:round;" points="190.538,319.688 177.709,340.595 179.457,342.954 192.285,322.048 "></polygon></g><g><polygon style="fill:#6E6E6E;stroke:#000000;stroke-linecap:round;stroke-linejoin:round;" points="167.786,323.157 178.889,295.905 177.131,293.307 166.028,320.556 "></polygon></g><g><polygon style="fill:#6E6E6E;stroke:#000000;stroke-linecap:round;stroke-linejoin:round;" points="166.121,274.744 156.314,303.128 154.335,300.277 164.705,272.199 "></polygon></g></g></g><g><g><path style="fill:#62595A;stroke:#000000;stroke-linecap:round;stroke-linejoin:round;" d="M212.106,309.919c0.535,0.259,4.021,8.314,3.051,12.001c-0.971,3.68-4.608,8.105-4.608,8.105s-5.49,24.691-3.435,37.982c-2.795,4.879-9.291,9.041-12.723,9.46c-3.429,0.426-9.376,5.204-13.02,22.029c-3.645,16.82-3.409,35.007-7.714,39.614c-4.304,4.611-7.375,4.647-7.375,4.647s-6.788,29.482-4.152,33.385c2.637,3.902,45.43-69.789,45.869-70.033c0.586-0.324-0.111,4.501,1.202,5.437c1.314,0.938,21.793-36.324,23.107-40.755c1.313-4.428,1.284-5.151,1.582-6.981c-0.497-2.09-2.436-5.452-2.436-5.452s6.687-13.005,6.162-16.598c-0.525-3.592-8.521-24.508-8.521-24.508L212.106,309.919z"></path><path style="opacity:0.2;fill:#FFFFFF;" d="M227.232,358.74c0,0,4.465,9.979,4.316,12.401c-0.147,2.432-20.086,38.283-21.582,38.37C208.472,409.604,227.232,358.74,227.232,358.74z"></path><path style="opacity:0.2;fill:#FFFFFF;" d="M206.299,407.848c0,0-33.734,60.896-43.313,68.431c0.061-9.285,3.528-26.748,3.528-26.748s8.314,1.677,14.843-7.125C187.887,433.603,206.299,407.848,206.299,407.848z"></path><path style="fill:#2C2629;" d="M233.336,354.122l-2.576,5.373l2.394,4.596c0,0,0.093,4.632-1.605,7.051c-2.168-6.441-4.316-12.401-4.316-12.401L233.336,354.122z"></path><path style="fill:#2C2629;" d="M208.351,368.475c0,0-6.829,7.612-11.415,9.045c-4.588,1.435-5.759,2.084-6.447,3.577c-0.687,1.489,16.659,25.54,16.659,25.54L208.351,368.475z"></path><path style="fill:none;stroke:#000000;stroke-linecap:round;stroke-linejoin:round;" d="M207.115,368.008c0,0,0.772,18.443,0.437,31.951"></path></g><path style="fill:#62595A;stroke:#000000;stroke-linecap:round;stroke-linejoin:round;" d="M206.262,297.433c0.243,0.423-2.031,5.199,1.061,9.222c8.623,7.241,21,14.622,28.961,15.014c-2.095-5.312-10.945-17.979-11.804-18.797C223.622,302.054,206.262,297.433,206.262,297.433z"></path><path style="fill:#2C2629;" d="M217.342,306.254c0,0-2.547,3.634-0.021,6.672c-6.934-3.308-10.052-7.376-10.052-7.376s-3.125-5.417,1.111-9.246C211.2,299.177,217.342,306.254,217.342,306.254z"></path><path style="fill:#62595A;stroke:#000000;stroke-linecap:round;stroke-linejoin:round;" d="M189.314,257.192c-3.678-1.908-19.577-4.437-19.577-4.437s-1.185-2.056-2.996-4.752c-12.744-6.004-55.154-4.432-55.154-4.432s-3.769-0.5-4.618,0.711c-0.849,1.21,4.799,3.628,4.799,3.628s-51.783,2.083-65.828,3.215c-2.89-0.988-4.253-1.341-4.253-1.341s-20.805,0.81-21.977,1.459c-1.172,0.651,1.454,2.525,1.454,2.525s20.44,11.973,30.808,12.513c4.233-2.72,12.761-6.71,24.865-0.473c12.105,6.234,40.284,16.874,48.771,15.5c7.357-3.343,8.013-5.558,8.013-5.558s7.337-7.4,13.864-5.471c19.908,15.414,45.007,15.676,50.502,19.842c5.495,4.168,19.243,18.619,31.281,19.712C228.529,304.567,198.285,263.808,189.314,257.192z"></path><path style="opacity:0.2;fill:#FFFFFF;" d="M21.52,251.7l20.167-1.917l4.011,2.935l39.76-2.815c0,0-28.758,7.813-36.466,9.868C41.283,261.828,24.793,254.693,21.52,251.7z"></path><path style="opacity:0.2;fill:#FFFFFF;" d="M109.819,244.53c0,0,40.862-1.576,53.946,3.008c6.577,6.711,16.62,17.421,16.62,17.421s-14.458-1.6-21.745-0.148c-7.285,1.451-8.951,4.599-8.951,4.599S111.759,247.895,109.819,244.53z"></path><path style="fill:#2C2629;" d="M170.018,253.688c0,0,7.033,6.831,10.024,6.652c2.991-0.18,9.272-3.147,9.272-3.147S172.748,254.395,170.018,253.688z"></path><path style="fill:#2C2629;" d="M144.717,268.835c0,0-8.134,2.662-10.447,4.687c-2.314,2.022-3.133,3.957-4.305,4.608c-1.173,0.647-6.478,2.852-7.902,1.051c-1.424-1.798-10.577-27.063-8.819-28.04C115.003,250.166,144.717,268.835,144.717,268.835z"></path><path style="fill:none;stroke:#000000;stroke-linecap:round;stroke-linejoin:round;" d="M117.772,253.092c0.471,0.479,22.712,12.562,30.042,17.563"></path></g></g><g><path style="fill:#62595A;stroke:#000000;stroke-linecap:round;stroke-linejoin:round;" d="M429.618,152.882c0,0-3.665,7.398-8.129,11.723c-2.669-1.942-7.145-5.009-7.145-5.009l-47.911,26.578l-0.969-1.683l-30.914,17.149l-1.862-3.224l28.279-15.687c0,0-11.433,2.642-16.509-5.827c-4.296,1.272-50.134,14.674-50.134,14.674l10.992,19.064l-18.754,10.404c0,0-3.998-0.558-6.148-3.62c-2.151-3.061-4.96-9.273-4.96-9.273l-63.669,24.403c0,0-1.126,1.734,0.33,4.258c1.453,2.523,11.021,19.789,11.313,19.626c0.294-0.163-2.49,1.382-2.49,1.382l29.661,51.445c0,0,1.147-3.042,1.328-4.067c7.18-3.981,15.239-8.453,15.239-8.453s-2.18-5.45,1.944-9.035c13.188-7.314,44.395-24.627,44.395-24.627s-1.095-2.906,0.992-4.99c12.602-6.989,43.954-24.382,43.954-24.382l2.833,8.604l43.662-24.221c0,0,1.51,0.272,2.091,1.616c-0.187,2.693-0.652,5.911-0.652,5.911s7.413-0.226,11.223-2.34c0.67-1.85,0.544-3.078,0.544-3.078s8.605-2.183,12.122-4.134c0.314-1.469-0.086-3.836-0.086-3.836l6.007-3.333l-2.021-3.503l5.13-2.845c0,0-1.542-6.362-1.987-9.816c5.276-2.925,9.671-5.364,9.671-5.364L446,181.629c0,0-11.118,5.706-10.551,5.853c0.568,0.146-4.344-14.242-7.642-19.628c2.025-3.529,6.901-8.824,6.901-8.824S432.074,155.127,429.618,152.882z"></path><polygon style="fill:#2C2629;" points="325.181,210.154 240.992,257.046 242.647,258.407 266.017,296.26 250.193,305.036 223.039,257.936 313.292,207.869 "></polygon><polygon style="fill:#2C2629;" points="435.285,187.806 436.776,192.405 446.346,187.095 445.941,182.14 "></polygon><path style="fill:#2C2629;" d="M422.279,164.8l4.626,3.108c0,0,5.267-6.745,7.234-8.7c-1.756-3.713-4.088-5.749-4.088-5.749L422.279,164.8z"></path><path style="fill:#2C2629;" d="M417.626,222.024c-0.058-2.56,0.139-2.669,0.139-2.669s8.555-2.155,12.277-3.971c-0.194-3.47-0.595-7.07-0.595-7.07l-10.045,3.597l-1.317,5.542c0,0-9.084,1.461-10.36,0.813c-0.07,1.889-0.538,6.219-0.538,6.219S410.769,225.334,417.626,222.024z"></path><polygon style="fill:#2C2629;" points="365.241,234.826 364.725,226.775 405.357,204.234 406.833,211.704 "></polygon><polygon style="fill:#2C2629;" points="407.008,218.985 404.77,217.452 361.987,241.186 359.228,219.96 362.01,218.416 363.348,237.839 407.059,213.594 "></polygon><path style="opacity:0.2;fill:#FFFFFF;" d="M343.755,178.032l-47.073,14.275l4.294,7.767l44.445-19.605C344.231,179.195,343.755,178.032,343.755,178.032z"></path><polygon style="opacity:0.2;fill:#FFFFFF;" points="213.671,232.804 274.167,209.606 276.844,216.263 219.801,246.794 213.954,235.978 "></polygon><polygon style="fill:#2C2629;" points="423.607,180.36 424.244,184.817 343.659,229.52 340.799,239.988 311.497,256.243 303.87,242.344 "></polygon><polyline style="fill:#2C2629;" points="407.073,170.399 416.448,165.198 426.38,169.679 430.279,180.468 420.901,185.669 "></polyline><path style="fill:#2C2629;" d="M283.551,222.531c0,0-4.896-2.462-6.707-6.268c-17.583,9.751-56.264,31.208-56.264,31.208l3.852,7.965L283.551,222.531z"></path><g><polygon points="371.238,231.738 370.161,219.136 371.039,218.649 372.117,231.25 "></polygon><polyline points="381.842,225.353 380.811,213.23 381.689,212.743 382.766,225.343 381.883,225.831 381.842,225.353 "></polyline><polygon points="392.531,219.924 391.454,207.323 392.336,206.836 393.411,219.437 "></polygon></g><path style="fill:#62595A;stroke:#000000;stroke-linecap:round;stroke-linejoin:round;" d="M332.083,204.858c-1.805,1.004-4.078,0.415-5.075-1.314c-0.998-1.729-0.34-3.944,1.468-4.947c1.809-1.002,4.081-0.413,5.076,1.315C334.551,201.642,333.891,203.856,332.083,204.858z"></path><line style="fill:none;stroke:#000000;stroke-linecap:round;stroke-linejoin:round;" x1="418.447" y1="220.041" x2="418.113" y2="212.641"></line><line style="fill:none;stroke:#000000;stroke-linecap:round;stroke-linejoin:round;" x1="430.188" y1="212.233" x2="429.484" y2="201.152"></line><g><path style="fill:#62595A;stroke:#000000;stroke-linecap:round;stroke-linejoin:round;" d="M418.783,133.082l-5.297,9.6c0,0,11.354,5.266,13.23,7.183c1.879,1.918,14.423,15.959,18.342,30.806c3.92,14.848-6.583,46.947-6.583,46.947l-20.028-7.577l-0.108,2.835l-5.011,2.039l21.067,9.036l-6.217,12.699l1.132,1.964l8.446,1.233c0,0,20.2-26.005,18.84-69.285c-8.2-27.643-20.195-37.548-22.042-39.577C432.709,138.956,418.783,133.082,418.783,133.082z"></path><path style="fill:#2C2629;" d="M416.816,138.058l-2.581,4.578c0,0,10.761,4.575,12.801,6.774c2.87,2.294,14.634,18.339,17.82,28.228c2.577,7.822,2.211,31.337-6.122,50.76c-2.142-1.031-19.503-7.388-19.503-7.388l-0.548,2.402l-4.998,1.121l21.669,9.071l-6.217,12.698l0.598,1.706l3.915,0.417c0,0,23.895-38.046,16.324-70.296c-7.873-18.018-15.806-28.419-18.154-30.818C429.471,144.915,416.816,138.058,416.816,138.058z"></path></g><polyline style="fill:#62595A;stroke:#000000;stroke-linecap:round;stroke-linejoin:round;" points="360.438,232.794 361.399,246.199 353.136,251.77 352.393,232.818 "></polyline><path style="fill:#62595A;stroke:#000000;stroke-linecap:round;stroke-linejoin:round;" d="M348.031,220.557l8.084,3.288c0,0-0.083,26.688-2.202,34.646c-4.277,0.401-12.934,0.147-12.934,0.147l1.115-30.716C342.095,227.921,343.082,224.044,348.031,220.557z"></path><path style="fill:#2C2629;" d="M342.291,236.2c0,0,5.678,3.143,12.882,1.548c-0.278,5.891-1.703,20.188-1.703,20.188l-11.685,0.192L342.291,236.2z"></path><path style="fill:#62595A;stroke:#000000;stroke-linecap:round;stroke-linejoin:round;" d="M351.305,233.521c-2.158,1.195-4.874,0.491-6.064-1.571c-1.189-2.065-0.405-4.709,1.753-5.907c2.158-1.198,4.871-0.494,6.063,1.57C354.245,229.679,353.461,232.322,351.305,233.521z"></path><polygon style="fill:#62595A;stroke:#000000;stroke-linecap:round;stroke-linejoin:round;" points="351.663,231.705 346.059,228.081 346.884,226.906 352.485,230.531 "></polygon><g><path style="fill:#62595A;stroke:#000000;stroke-linecap:round;stroke-linejoin:round;" d="M313.49,263.278c-0.625-7.793,7.444-17.943,7.444-17.943l-4.849-8.411l-75.213,41.722l10.885,18.879L313.49,263.278z"></path><polygon style="fill:#2C2629;" points="315.521,237.729 319.237,244.178 246.857,284.33 242.816,277.319 "></polygon><g><path style="fill:#62595A;stroke:#000000;stroke-linecap:round;stroke-linejoin:round;" d="M326.886,213.17l80.486-44.648c0,0,14.115,10.177,16.496,12.065c-13.48,7.478-77.166,42.806-77.166,42.806L326.886,213.17z"></path><polygon style="fill:#2C2629;" points="421.628,181.009 346.612,222.623 336.62,216.695 412.809,174.432 "></polygon><path style="fill:#2C2629;stroke:#000000;stroke-linecap:round;stroke-linejoin:round;" d="M350.673,201.208l17.692,9.673c0,0-1.526-3.1-7.085-6.924C355.724,200.134,350.673,201.208,350.673,201.208z"></path></g><path style="fill:#62595A;stroke:#000000;stroke-linecap:round;stroke-linejoin:round;" d="M324.684,210.69l-92.989,51.585l9.481,16.446l102.573-56.896C337.967,218.209,324.684,210.69,324.684,210.69z"></path><polygon style="opacity:0.2;fill:#FFFFFF;" points="331.523,215.787 237.243,267.817 234.01,262.209 324.461,212.033 "></polygon><polygon style="fill:#2C2629;" points="341.054,220.975 241.422,276.245 237.381,269.236 332.384,216.534 "></polygon></g><line style="fill:none;stroke:#000000;stroke-linecap:round;stroke-linejoin:round;" x1="286.563" y1="221.045" x2="242.804" y2="245.321"></line><line style="fill:none;stroke:#000000;stroke-linecap:round;stroke-linejoin:round;" x1="223.429" y1="256.438" x2="231.829" y2="251.778"></line><path style="fill:none;stroke:#000000;stroke-linecap:round;stroke-linejoin:round;" d="M404.58,194.985c0.5-0.029-41.999,23.3-41.999,23.3l1.479,18.668l42.783-23.734l0.127,7.824"></path><g><path d="M290.042,270.18c-0.365,0.203-0.822,0.083-1.022-0.264l0,0c-0.202-0.35-0.069-0.795,0.296-0.998l19.485-10.81c0.364-0.202,0.823-0.083,1.023,0.266l0,0c0.2,0.347,0.067,0.794-0.298,0.995L290.042,270.18z"></path><path d="M257.661,288.143c-0.363,0.204-0.82,0.084-1.021-0.265l0,0c-0.201-0.349-0.069-0.796,0.295-0.999l19.485-10.807c0.362-0.201,0.822-0.084,1.024,0.265l0,0c0.2,0.348,0.068,0.792-0.298,0.996L257.661,288.143z"></path><path d="M270.146,271.225c-0.363,0.201-0.822,0.082-1.021-0.265l0,0c-0.201-0.348-0.068-0.793,0.295-0.996l19.487-10.81c0.364-0.203,0.822-0.084,1.023,0.263l0,0c0.201,0.352,0.065,0.798-0.295,0.999L270.146,271.225z"></path></g></g><g><path style="fill:#62595A;stroke:#000000;stroke-linecap:round;stroke-linejoin:round;" d="M218.728,250.743l40.572,70.371c0,0-4.565,15.112-11.708,22.406c-2.853-2.491-16.3-24.697-27.856-44.74c-12.564-21.794-20.579-36.813-23.222-43.856C196.734,254.185,208.936,249.636,218.728,250.743z"></path><path style="fill:#2C2629;" d="M247.456,342.834c0,0-8.589-11.763-26.585-42.979c-17.996-31.215-23.935-44.2-23.935-44.2l10.778-2.771l46.769,81.118L247.456,342.834z"></path><g><g><path style="fill:#2C2629;stroke:#000000;stroke-linecap:round;stroke-linejoin:round;" d="M218.034,251.104l1.66,1.876c0,0-6.438,16.339-11.353,24.245l-1.698-2.946c4.917-7.908,11.011-23.498,11.011-23.498"></path></g><g><path style="fill:#2C2629;stroke:#000000;stroke-linecap:round;stroke-linejoin:round;" d="M228.242,267.806c0,0-6.246,15.973-11.695,24.132l-1.583-3.122c5.45-8.158,11.362-23.327,11.362-23.327L228.242,267.806z"></path></g><g><path style="fill:#2C2629;stroke:#000000;stroke-linecap:round;stroke-linejoin:round;" d="M223.286,303.35C229.268,294.94,235,280.197,235,280.197l1.787,2.432c0,0-6.05,15.616-12.033,24.021L223.286,303.35z"></path></g><g><path style="fill:#2C2629;stroke:#000000;stroke-linecap:round;stroke-linejoin:round;" d="M243.673,294.903c0,0-5.553,14.321-12.066,22.978l1.352,3.483c6.517-8.66,12.375-23.912,12.375-23.912L243.673,294.903z"></path></g><g><path style="fill:#2C2629;stroke:#000000;stroke-linecap:round;stroke-linejoin:round;" d="M239.927,332.416c7.049-8.907,12.42-22.801,12.42-22.801l1.534,2.662c0,0-5.333,14.019-12.088,22.986L239.927,332.416z"></path></g></g></g></g></g></svg>