<svg xmlns="http://www.w3.org/2000/svg" width="500" height="500" version="1.1"><g id="x9075" data-trait-type="Weapons" data-trait-value="Double Sword"><g><g><g><g><g><path style="fill:#F5F5F5;stroke:#000000;stroke-linecap:round;stroke-linejoin:round;" d="M179.977,385.188c0,0-6.889-0.3-14.728,2.024c-25.494,9.545-96.108,60.783-101.306,63.729c-6.807,3.854-27.006,13.537-27.006,13.537s16.525-15.123,22.641-19.998c4.672-3.725,78.569-50.104,96.943-70.189c5.082-6.405,7.376-12.906,7.376-12.906s7.369,4.678,12.084,3.227c4.717-1.451,9.963-8.71,9.963-8.71l12.601-5.54c0,0,91.883-60.087,97.603-64.447c8.948-7.28,30.359-23.973,31.833-24.72c2.329-0.584,3.869-0.139,3.869-0.139s3.317-6.45,4.168-7.025c0.852-0.572,11.046,0.957,11.046,0.957s-2.386,10.03-3.235,10.604c-0.851,0.574-8.074,1.246-8.074,1.246s-0.161,1.594-1.572,3.536c-1.244,1.09-24.723,14.721-34.816,20.301c-6.182,3.682-96.228,66.486-96.228,66.486l-9.842,9.621c0,0-8.695,2.159-11.801,5.99C178.386,376.604,179.977,385.188,179.977,385.188z"></path><g><path style="fill:none;stroke:#000000;stroke-linecap:round;stroke-linejoin:round;" d="M207.009,344.808c0,0,1.503,3.937,0.51,9.064"></path><g><path style="fill:none;stroke:#000000;stroke-linecap:round;stroke-linejoin:round;" d="M216.262,338.952c0,0,1.318,3.665,0.324,8.795"></path><path style="fill:none;stroke:#000000;stroke-linecap:round;stroke-linejoin:round;" d="M209.275,343.274c0,0,3.342,0.55,6.856,4.285"></path></g><g><path style="fill:none;stroke:#000000;stroke-linecap:round;stroke-linejoin:round;" d="M223.29,334.207c0,0,1.319,3.664,0.325,8.792"></path><path style="fill:none;stroke:#000000;stroke-linecap:round;stroke-linejoin:round;" d="M216.303,338.529c0,0,3.342,0.549,6.855,4.283"></path></g><path style="fill:none;stroke:#000000;stroke-linecap:round;stroke-linejoin:round;" d="M225.3,333.276c0,0,4.253,0.429,7.718,2.874"></path><path style="fill:none;stroke:#000000;stroke-linecap:round;stroke-linejoin:round;" d="M236.192,334.007c0,0,0.659-3.912-0.805-7.546"></path><path style="fill:none;stroke:#000000;stroke-linecap:round;stroke-linejoin:round;" d="M237.203,325.235c0,0,3.41-0.323,6.812,3.486"></path><path style="fill:none;stroke:#000000;stroke-linecap:round;stroke-linejoin:round;" d="M244.745,328.096c0,0,1.485-3.18,0.164-8.066"></path><path style="fill:none;stroke:#000000;stroke-linecap:round;stroke-linejoin:round;" d="M245.93,319.342c0,0,2.701,1.311,4.547,5.017"></path><path style="fill:none;stroke:#000000;stroke-linecap:round;stroke-linejoin:round;" d="M257.124,319.539c0,0,0.851-3.382-0.764-6.748"></path><path style="fill:none;stroke:#000000;stroke-linecap:round;stroke-linejoin:round;" d="M257.607,311.946c0,0,2.62,0.214,5.636,3.457"></path><path style="fill:none;stroke:#000000;stroke-linecap:round;stroke-linejoin:round;" d="M265.142,306.727c0,0,1.437,1.638,2.143,5.616"></path><path style="fill:none;stroke:#000000;stroke-linecap:round;stroke-linejoin:round;" d="M267.093,305.703c0,0,2.091,0.901,3.933,4.113"></path><path style="fill:none;stroke:#000000;stroke-linecap:round;stroke-linejoin:round;" d="M273.194,308.385c0,0-0.415-3.549-1.794-5.59"></path><path style="fill:none;stroke:#000000;stroke-linecap:round;stroke-linejoin:round;" d="M272.308,302.185c0,0,1.195,0.544,2.926,4.821"></path><path style="fill:none;stroke:#000000;stroke-linecap:round;stroke-linejoin:round;" d="M277.939,305.146c0,0,2.597-3.238,2.415-8.397"></path><path style="fill:none;stroke:#000000;stroke-linecap:round;stroke-linejoin:round;" d="M282.508,295.292c0,0,2.441,2.148,2.799,4.877"></path><path style="fill:none;stroke:#000000;stroke-linecap:round;stroke-linejoin:round;" d="M287.383,291.999c0,0,1.859,0.063,3.665,3.964"></path><path style="fill:none;stroke:#000000;stroke-linecap:round;stroke-linejoin:round;" d="M292.681,294.957c0,0,0.66-2.689-0.422-5.757"></path><path style="fill:none;stroke:#000000;stroke-linecap:round;stroke-linejoin:round;" d="M293.656,288.091c0,0,1.913,2.34,2.416,4.313"></path><path style="fill:none;stroke:#000000;stroke-linecap:round;stroke-linejoin:round;" d="M299.394,283.391c0,0,2.436,1.162,4.316,4.677"></path></g><polygon style="fill:#D7D7D7;" points="335.791,266.892 334.104,270.015 331.306,265.63 328.283,261.397 331.81,261 336.017,254.029 347.063,254.986 343.827,265.591 "></polygon><line style="fill:none;stroke:#000000;stroke-linecap:round;stroke-linejoin:round;" x1="336.017" y1="254.029" x2="343.827" y2="265.591"></line><line style="fill:none;stroke:#000000;stroke-linecap:round;stroke-linejoin:round;" x1="331.849" y1="261.055" x2="335.753" y2="266.837"></line><line style="fill:none;stroke:#000000;stroke-linecap:round;stroke-linejoin:round;" x1="327.979" y1="261.193" x2="334.181" y2="270.373"></line><path style="fill:#FFFFFF;" d="M338.356,261.527c1.723-1.162,2.929-2.383,2.695-2.73c-0.231-0.342-1.814,0.321-3.536,1.485c-1.723,1.163-2.928,2.382-2.696,2.729C335.051,263.353,336.637,262.69,338.356,261.527z"></path><g><path style="fill:#F5F5F5;stroke:#000000;stroke-linecap:round;stroke-linejoin:round;" d="M307.849,276.359c0,0,10.974,1.334,13.63,1.357c3.178-1.16,5.519-3.069,5.519-3.069l-14.391-1.998L307.849,276.359z"></path><path style="fill:#F5F5F5;stroke:#000000;stroke-linecap:round;stroke-linejoin:round;" d="M319.782,267.143c0,0-8.022,15.984-8.359,16.704c2.008-0.694,5.031-2.569,5.031-2.569l9.07-18.346L319.782,267.143z"></path></g><path style="fill:#333333;stroke:#000000;stroke-linecap:round;stroke-linejoin:round;" d="M201.49,348.37l4.518,6.686l-3.285,2.222l-3.486,4.005c-1.735-1.47-5.919-3.265-5.919-3.265l-1.999-4.427l7.226-3.23L201.49,348.37z"></path><path style="fill:#D7D7D7;" d="M75.055,438.433l-35.197,23.774c0,0,18.576-16.488,19.596-17.177c2.944-2.238,28.168-18.781,28.168-18.781L75.055,438.433z"></path><path style="fill:#D7D7D7;" d="M159.894,375.953c-3.734,4.006-10.64,10.673-10.64,10.673L97.097,421.58l-6.262,6.49l8.358-3.388l51.898-35.336c0,0,8.786-3.928,13.893-5.894l-1.528-4.392L159.894,375.953z M179.4,384.337c-1.643-8.298,2.027-12.76,2.027-12.76l-2.351-3.115l-2.012-3.347c0,0-5.509,1.742-12.593-2.881c-0.296,0.541-0.584,1.058-0.864,1.559c0.8,1.9,2.333,5.045,4.12,6.194c2.628,1.691,7.462,1.15,7.462,1.15s-2.308,4.282-1.721,7.351c0.396,2.057,2.677,4.606,4.146,6.07C178.19,384.483,178.783,384.409,179.4,384.337z"></path><path style="fill:#D7D7D7;" d="M193.413,366.228c-4.837-0.199-11.964,5.379-11.964,5.379l-5.082-1.293l0.698-5.198c0,0,7.835-4.528,9.458-9.09c0.698-0.242,1.744-0.654,2.941-1.145l6.108,9.043C194.672,364.851,193.899,365.669,193.413,366.228z"></path><g><path style="fill:#9E9E9E;" d="M151.598,388.262c-7.992,5.398-52.879,35.72-52.879,35.72l-4.313,1.678l3.165-3.378c0,0,44.886-30.321,52.879-35.719c2.038-1.379,11.427-10.939,11.427-10.939l7.849-0.845l-3.714,6.966C166.012,381.744,153.637,386.884,151.598,388.262z"></path><g><circle style="fill:#9E9E9E;" cx="162.422" cy="371.664" r="1.642"></circle><circle style="fill:#9E9E9E;" cx="169.888" cy="382.716" r="1.641"></circle></g></g></g></g><g><path style="fill:#F5F5F5;stroke:#000000;stroke-linecap:round;stroke-linejoin:round;" d="M205.637,374.902c0,0,12.877,17.833,12.692,22.509c2.948-1.271,6.822,1.457,6.822,1.457s-8.509-14.419-13.423-19.097C208.809,376.235,205.637,374.902,205.637,374.902z"></path><path style="fill:#F5F5F5;stroke:#000000;stroke-linecap:round;stroke-linejoin:round;" d="M202.09,365.739c0,0,3.02,4.693,4.613,6.306c1.593,1.612,23.805,17.921,26.207,20.483c5.35,6.387,9.706,16.5,9.706,16.5c-3.123-0.752-7.519,0.642-8.443,1.739c-0.336-5.65-7.456-19.167-8.712-20.226c-1.256-1.058-21.27-15.517-22.152-17.334c-0.884-1.817-3.136-7.741-3.136-7.741L202.09,365.739z"></path></g><g><path style="fill:#F5F5F5;stroke:#000000;stroke-linecap:round;stroke-linejoin:round;" d="M181.027,361.451c0,0-0.733,13.7-1.068,14.67c2.32-2.063,4.652-5.701,4.652-5.701c-0.006-0.739,0.711-13.606,0.711-13.606L181.027,361.451z"></path><path style="fill:#F5F5F5;stroke:#000000;stroke-linecap:round;stroke-linejoin:round;" d="M171.028,364.489c0,0,10.452,6.063,12.685,8.27c2.439-1.153,4.417-3.728,4.417-3.728l-9.2-5.919C178.021,363.233,171.028,364.489,171.028,364.489z"></path><path style="fill:#F5F5F5;stroke:#000000;stroke-linecap:round;stroke-linejoin:round;" d="M196.354,364.714l2.624,0.952c1.016-1.43,2.195-3.713,2.021-4.338c-0.172-0.624-1.713-1.07-1.713-1.07L196.354,364.714z"></path><path style="fill:#F5F5F5;stroke:#000000;stroke-linecap:round;stroke-linejoin:round;" d="M190.714,354.164c0,0,6.741,4.112,8.522,7.118c-1.751,2.173-2.882,3.432-2.882,3.432l-5.655-3.607L190.714,354.164z"></path><path style="fill:#F5F5F5;stroke:#000000;stroke-linecap:round;stroke-linejoin:round;" d="M187.102,355.415c0,0,2.283,10.343,1.332,12.967c2.443-0.413,4.861-1.601,4.861-1.601s0.345-8.652-1.617-13.021C189.689,354.113,187.102,355.415,187.102,355.415z"></path></g></g><g><path style="fill:#F5F5F5;stroke:#000000;stroke-linecap:round;stroke-linejoin:round;" d="M180.363,349.229c0,0,0.066-1.613-0.856-3.714c-1.196-0.182-2.347,0.926-2.347,0.926s-1.127-1.303-1.582-1.242c-1.525,2.021-3.168,6.184-3.168,6.184l6.447,2.826L180.363,349.229z"></path><path style="fill:#D7BFF0;" d="M175.555,345.833c0,0,1.34,0.704,1.543,1.187c0.283-0.316,2.07-1.151,2.07-1.151s-1.294,2.483-2.062,2.631C176.338,348.646,175.555,345.833,175.555,345.833z"></path><path style="fill:#F5F5F5;stroke:#000000;stroke-linecap:round;stroke-linejoin:round;" d="M179.308,352.004c0,0,0.895-2.831,3.823-4.728c0.29,0.795,0.236,1.327,0.236,1.327s1.774-1.281,2.742-1.194c0.967,2.897,0.455,6.05-0.749,7.688c-4.429,1.756-5.944,1.952-5.944,1.952L179.308,352.004z"></path><path style="fill:#D7BFF0;" d="M182.679,347.584l0.462,1.049c0,0,1.898-1.037,2.298-0.81c-0.419,1.396-3.108,3.461-3.507,3.605C181.535,351.574,181.437,349.411,182.679,347.584z"></path><g><path style="fill:#F5F5F5;stroke:#000000;stroke-linecap:round;stroke-linejoin:round;" d="M168.221,367.664c-0.356,0.324-3.287,5.028,0.731,10.979c1.931-0.808,4.746-2.626,5.493-4.699c0.745-2.072,1.775-4.335-0.734-8.172C170.854,366.797,168.221,367.664,168.221,367.664z"></path><path style="fill:#D7BFF0;" d="M167.591,374.734c0,0,1.144,0.961,2.793,0.837s3.857-1.987,3.857-1.987s-0.865,2.567-5.094,4.556C168.177,377.435,167.591,374.734,167.591,374.734z"></path></g><g><path style="fill:#F5F5F5;stroke:#000000;stroke-linecap:round;stroke-linejoin:round;" d="M166.601,356.956c0,0-5.421,0.774-8.778,3.867c-0.256,1.329,1.848,4.693,4.078,6.16c2.229,1.466,8.755,1.843,13.141-0.707C172.313,363.58,166.601,356.956,166.601,356.956z"></path><path style="fill:#D7BFF0;" d="M158.289,360.963c0,0,2.75-1.61,4.092-0.907c0.752,2.215-0.264,3.643-0.264,3.643s-1.9,0.668-2.503-0.041C159.012,362.949,158.013,362.387,158.289,360.963z"></path><path style="fill:#D7D7D7;" d="M161.963,366.404c0,0,4.463-0.91,5.91-1.516c2.764,0.608,5.303,1.618,5.303,1.618S167.928,369.185,161.963,366.404z"></path><path style="fill:none;stroke:#000000;stroke-linecap:round;stroke-linejoin:round;" d="M158.17,361.581c0,0,2.42-1.058,4.46,0.617c0.642-0.517,1.508-1.433,1.508-1.433l0.481,0.832c0,0,1.607-0.428,2.884,0.361c-1.381,0.521-2.285,1.626-2.285,1.626"></path></g><path style="fill:#F5F5F5;stroke:#000000;stroke-linecap:round;stroke-linejoin:round;" d="M169.36,352.122c0,0-4.952-0.12-7.065,1.884c-0.199,1.537,1.315,4.145,1.315,4.145l3.575,1.136L169.36,352.122z"></path><path style="fill:#D7BFF0;" d="M163.182,356.295c0,0,2.212-1.493,2.173-2.829c-0.886-0.764-2.584,0.754-2.584,0.754L163.182,356.295z"></path><g><path style="fill:#F5F5F5;stroke:#000000;stroke-linecap:round;stroke-linejoin:round;" d="M169.502,363.086c0,0-2.718-1.219-3.545-3.053c-0.828-1.834,0.318-3.682,0.318-3.682l0.107-1.31c0,0,2.806-3.296,3.807-3.646c1.005-0.347,3.788-1.238,3.788-1.238s2.651-0.717,4.641,1.984c1.988,2.7,0.807,4.982,0.807,4.982L169.502,363.086z"></path><path style="fill:#D7BFF0;" d="M166.272,359.036c0,0-0.632-0.936,0.523-2.707c0.055-0.653-0.005-1.109-0.005-1.109s1.806-2.457,2.997-3.262c1.274-0.861,4.51-2.304,6.108-1.403c1.626,0.759,2.571,1.605,2.978,2.942c-1.133,0.888-1.957,0.948-1.957,0.948s-2.039,2.119-2.887,2.694c-0.852,0.574-4.107,3.268-5.243,3.417C167.647,360.706,166.272,359.036,166.272,359.036z"></path><g><path style="fill:none;stroke:#000000;stroke-linecap:round;stroke-linejoin:round;" d="M166.345,355.479c0,0,1.737,1.716,5.377,1.484"></path><path style="fill:none;stroke:#000000;stroke-linecap:round;stroke-linejoin:round;" d="M173.828,350.671c0,0,1.869,1.792-0.631,5.545"></path><path style="fill:none;stroke:#000000;stroke-linecap:round;stroke-linejoin:round;" d="M169.449,354.455c0,0,3.506-0.552,4.43-1.506"></path><path style="fill:none;stroke:#000000;stroke-linecap:round;stroke-linejoin:round;" d="M170.895,351.58c-0.246,0.249-1.887,2.101-1.831,4.868"></path><path style="fill:none;stroke:#000000;stroke-linecap:round;stroke-linejoin:round;" d="M171.988,353.813c0,0,1.809-1.965,0.624-3.228"></path></g></g><g><path style="fill:#F5F5F5;stroke:#000000;stroke-linecap:round;stroke-linejoin:round;" d="M184.686,356.543c0,0,5.32-1.777,8.301,1.657c-2.469,2.576-8.256,5.494-12.586,4.704c2.215-3.807,4.077-6.302,4.077-6.302"></path><path style="fill:#D7BFF0;" d="M189.701,356.331c0,0,2.707,0.527,3.313,1.603c-1.359,1.288-4.139,2.672-4.139,2.672s1.867-1.632,1.518-2.883C190.045,356.473,189.701,356.331,189.701,356.331z"></path></g><path style="fill:#F5F5F5;stroke:#000000;stroke-linecap:round;stroke-linejoin:round;" d="M167.554,363.742c0,0-0.179-1.118,0.142-1.499c0.546-0.534,2.062-0.979,2.062-0.979s1.5-2.911,2.33-3.392c1.727-0.011,2.58-0.339,2.58-0.339s2.659-2.292,3.908-2.642c0.688,0.527,1.143,0.715,1.143,0.715s3.433-3.226,3.868-3.438c1.443,0.427,1.989,2.455,2.087,2.967c0.098,0.511-0.498,4.874-5.83,8.476c-2.324,1.569-5.577,2.86-5.577,2.86S168.992,366.484,167.554,363.742z"></path><path style="fill:#D7D7D7;" d="M170.893,365.325c0,0,11.013-4.592,13.473-11.578c0.975,1.074,0.836,1.787,0.836,1.787s-0.628,4.387-5.162,7.203c-4.537,2.815-5.758,3.021-5.758,3.021S172.719,366.196,170.893,365.325z"></path></g></g><g><g><g><g><path style="fill:#232323;stroke:#000000;stroke-linecap:round;stroke-linejoin:round;" d="M320.023,385.188c0,0,6.889-0.3,14.728,2.024c25.493,9.545,96.107,60.783,101.306,63.729c6.807,3.854,27.007,13.537,27.007,13.537s-16.525-15.123-22.642-19.998c-4.672-3.725-78.568-50.104-96.942-70.189c-5.082-6.405-7.376-12.906-7.376-12.906s-7.369,4.678-12.084,3.227c-4.717-1.451-9.963-8.71-9.963-8.71l-12.601-5.54c0,0-91.883-60.087-97.603-64.447c-8.948-7.28-30.359-23.973-31.833-24.72c-2.329-0.584-3.869-0.139-3.869-0.139s-3.317-6.45-4.168-7.025c-0.852-0.572-11.046,0.957-11.046,0.957s2.386,10.03,3.235,10.604c0.851,0.574,8.074,1.246,8.074,1.246s0.161,1.594,1.572,3.536c1.244,1.09,24.723,14.721,34.816,20.301c6.182,3.682,96.228,66.486,96.228,66.486l9.842,9.621c0,0,8.695,2.159,11.801,5.99C321.614,376.604,320.023,385.188,320.023,385.188z"></path><g><path style="fill:none;stroke:#000000;stroke-linecap:round;stroke-linejoin:round;" d="M292.991,344.808c0,0-1.503,3.937-0.51,9.064"></path><g><path style="fill:none;stroke:#000000;stroke-linecap:round;stroke-linejoin:round;" d="M283.738,338.952c0,0-1.318,3.665-0.324,8.795"></path><path style="fill:none;stroke:#000000;stroke-linecap:round;stroke-linejoin:round;" d="M290.725,343.274c0,0-3.342,0.55-6.856,4.285"></path></g><g><path style="fill:none;stroke:#000000;stroke-linecap:round;stroke-linejoin:round;" d="M276.71,334.207c0,0-1.319,3.664-0.325,8.792"></path><path style="fill:none;stroke:#000000;stroke-linecap:round;stroke-linejoin:round;" d="M283.697,338.529c0,0-3.342,0.549-6.855,4.283"></path></g><path style="fill:none;stroke:#000000;stroke-linecap:round;stroke-linejoin:round;" d="M274.7,333.276c0,0-4.253,0.429-7.718,2.874"></path><path style="fill:none;stroke:#000000;stroke-linecap:round;stroke-linejoin:round;" d="M263.808,334.007c0,0-0.659-3.912,0.805-7.546"></path><path style="fill:none;stroke:#000000;stroke-linecap:round;stroke-linejoin:round;" d="M262.797,325.235c0,0-3.41-0.323-6.812,3.486"></path><path style="fill:none;stroke:#000000;stroke-linecap:round;stroke-linejoin:round;" d="M255.255,328.096c0,0-1.485-3.18-0.164-8.066"></path><path style="fill:none;stroke:#000000;stroke-linecap:round;stroke-linejoin:round;" d="M254.07,319.342c0,0-2.701,1.311-4.547,5.017"></path><path style="fill:none;stroke:#000000;stroke-linecap:round;stroke-linejoin:round;" d="M242.876,319.539c0,0-0.851-3.382,0.764-6.748"></path><path style="fill:none;stroke:#000000;stroke-linecap:round;stroke-linejoin:round;" d="M242.393,311.946c0,0-2.62,0.214-5.636,3.457"></path><path style="fill:none;stroke:#000000;stroke-linecap:round;stroke-linejoin:round;" d="M234.858,306.727c0,0-1.437,1.638-2.143,5.616"></path><path style="fill:none;stroke:#000000;stroke-linecap:round;stroke-linejoin:round;" d="M232.907,305.703c0,0-2.091,0.901-3.933,4.113"></path><path style="fill:none;stroke:#000000;stroke-linecap:round;stroke-linejoin:round;" d="M226.806,308.385c0,0,0.415-3.549,1.794-5.59"></path><path style="fill:none;stroke:#000000;stroke-linecap:round;stroke-linejoin:round;" d="M227.692,302.185c0,0-1.195,0.544-2.926,4.821"></path><path style="fill:none;stroke:#000000;stroke-linecap:round;stroke-linejoin:round;" d="M222.061,305.146c0,0-2.597-3.238-2.415-8.397"></path><path style="fill:none;stroke:#000000;stroke-linecap:round;stroke-linejoin:round;" d="M217.492,295.292c0,0-2.441,2.148-2.799,4.877"></path><path style="fill:none;stroke:#000000;stroke-linecap:round;stroke-linejoin:round;" d="M212.617,291.999c0,0-1.859,0.063-3.665,3.964"></path><path style="fill:none;stroke:#000000;stroke-linecap:round;stroke-linejoin:round;" d="M207.319,294.957c0,0-0.66-2.689,0.422-5.757"></path><path style="fill:none;stroke:#000000;stroke-linecap:round;stroke-linejoin:round;" d="M206.344,288.091c0,0-1.913,2.34-2.416,4.313"></path><path style="fill:none;stroke:#000000;stroke-linecap:round;stroke-linejoin:round;" d="M200.606,283.391c0,0-2.436,1.162-4.316,4.677"></path></g><polygon style="fill:#151515;" points="164.209,266.892 165.896,270.015 168.694,265.63 171.717,261.397 168.19,261 163.983,254.029 152.938,254.986 156.173,265.591 "></polygon><line style="fill:none;stroke:#000000;stroke-linecap:round;stroke-linejoin:round;" x1="163.983" y1="254.029" x2="156.173" y2="265.591"></line><line style="fill:none;stroke:#000000;stroke-linecap:round;stroke-linejoin:round;" x1="168.151" y1="261.055" x2="164.247" y2="266.837"></line><line style="fill:none;stroke:#000000;stroke-linecap:round;stroke-linejoin:round;" x1="172.021" y1="261.193" x2="165.819" y2="270.373"></line><path style="fill:#FFFFFF;" d="M161.644,261.527c-1.723-1.162-2.929-2.383-2.695-2.73c0.231-0.342,1.814,0.321,3.536,1.485c1.723,1.163,2.928,2.382,2.696,2.729C164.949,263.353,163.363,262.69,161.644,261.527z"></path><g><path style="fill:#232323;stroke:#000000;stroke-linecap:round;stroke-linejoin:round;" d="M192.151,276.359c0,0-10.974,1.334-13.63,1.357c-3.178-1.16-5.519-3.069-5.519-3.069l14.391-1.998L192.151,276.359z"></path><path style="fill:#232323;stroke:#000000;stroke-linecap:round;stroke-linejoin:round;" d="M180.218,267.143c0,0,8.022,15.984,8.359,16.704c-2.008-0.694-5.031-2.569-5.031-2.569l-9.07-18.346L180.218,267.143z"></path></g><path style="fill:#333333;stroke:#000000;stroke-linecap:round;stroke-linejoin:round;" d="M298.51,348.37l-4.518,6.686l3.285,2.222l3.486,4.005c1.735-1.47,5.919-3.265,5.919-3.265l1.999-4.427l-7.226-3.23L298.51,348.37z"></path><path style="fill:#151515;" d="M424.944,438.433l35.197,23.774c0,0-18.576-16.488-19.597-17.177c-2.944-2.238-28.168-18.781-28.168-18.781L424.944,438.433z"></path><path style="fill:#151515;" d="M336.543,379.062l-1.527,4.392c5.107,1.966,13.893,5.894,13.893,5.894l51.898,35.336l8.358,3.388l-6.263-6.49l-52.156-34.954c0,0-6.906-6.667-10.641-10.673L336.543,379.062z M322.385,384.559c1.469-1.464,3.75-4.014,4.146-6.07c0.587-3.068-1.721-7.351-1.721-7.351s4.834,0.541,7.462-1.15c1.787-1.149,3.32-4.294,4.121-6.194c-0.281-0.501-0.568-1.018-0.865-1.559c-7.084,4.623-12.593,2.881-12.593,2.881l-2.012,3.347l-2.351,3.115c0,0,3.67,4.462,2.027,12.76C321.217,384.409,321.81,384.483,322.385,384.559z"></path><path style="fill:#151515;" d="M306.587,366.228c4.837-0.199,11.964,5.379,11.964,5.379l5.082-1.293l-0.698-5.198c0,0-7.835-4.528-9.458-9.09c-0.698-0.242-1.744-0.654-2.941-1.145l-6.108,9.043C305.328,364.851,306.101,365.669,306.587,366.228z"></path><g><path style="fill:#9E9E9E;" d="M348.402,388.262c7.992,5.398,52.879,35.72,52.879,35.72l4.313,1.678l-3.165-3.378c0,0-44.886-30.321-52.879-35.719c-2.038-1.379-11.427-10.939-11.427-10.939l-7.85-0.845l3.715,6.966C333.988,381.744,346.363,386.884,348.402,388.262z"></path><g><path style="fill:#9E9E9E;" d="M336.659,373.024c-0.752-0.507-0.95-1.527-0.442-2.278c0.509-0.752,1.529-0.949,2.281-0.442c0.75,0.509,0.947,1.528,0.438,2.28C338.432,373.334,337.409,373.533,336.659,373.024z"></path><circle style="fill:#9E9E9E;" cx="330.112" cy="382.716" r="1.641"></circle></g></g></g></g><g><path style="fill:#232323;stroke:#000000;stroke-linecap:round;stroke-linejoin:round;" d="M294.363,374.902c0,0-12.877,17.833-12.692,22.509c-2.948-1.271-6.822,1.457-6.822,1.457s8.509-14.419,13.423-19.097C291.191,376.235,294.363,374.902,294.363,374.902z"></path><path style="fill:#232323;stroke:#000000;stroke-linecap:round;stroke-linejoin:round;" d="M297.91,365.739c0,0-3.02,4.693-4.613,6.306c-1.593,1.612-23.805,17.921-26.207,20.483c-5.35,6.387-9.706,16.5-9.706,16.5c3.123-0.752,7.519,0.642,8.443,1.739c0.336-5.65,7.456-19.167,8.712-20.226c1.256-1.058,21.27-15.517,22.152-17.334c0.884-1.817,3.136-7.741,3.136-7.741L297.91,365.739z"></path></g><g><path style="fill:#232323;stroke:#000000;stroke-linecap:round;stroke-linejoin:round;" d="M318.973,361.451c0,0,0.733,13.7,1.068,14.67c-2.32-2.063-4.652-5.701-4.652-5.701c0.006-0.739-0.711-13.606-0.711-13.606L318.973,361.451z"></path><path style="fill:#232323;stroke:#000000;stroke-linecap:round;stroke-linejoin:round;" d="M328.972,364.489c0,0-10.452,6.063-12.685,8.27c-2.439-1.153-4.417-3.728-4.417-3.728l9.2-5.919C321.979,363.233,328.972,364.489,328.972,364.489z"></path><path style="fill:#232323;stroke:#000000;stroke-linecap:round;stroke-linejoin:round;" d="M303.646,364.714l-2.624,0.952c-1.016-1.43-2.195-3.713-2.021-4.338c0.172-0.624,1.713-1.07,1.713-1.07L303.646,364.714z"></path><path style="fill:#232323;stroke:#000000;stroke-linecap:round;stroke-linejoin:round;" d="M309.286,354.164c0,0-6.741,4.112-8.522,7.118c1.751,2.173,2.882,3.432,2.882,3.432l5.655-3.607L309.286,354.164z"></path><path style="fill:#232323;stroke:#000000;stroke-linecap:round;stroke-linejoin:round;" d="M312.898,355.415c0,0-2.283,10.343-1.332,12.967c-2.443-0.413-4.861-1.601-4.861-1.601s-0.345-8.652,1.617-13.021C310.311,354.113,312.898,355.415,312.898,355.415z"></path></g></g><g><path style="fill:#232323;stroke:#000000;stroke-linecap:round;stroke-linejoin:round;" d="M319.637,349.229c0,0-0.066-1.613,0.856-3.714c1.196-0.182,2.347,0.926,2.347,0.926s1.127-1.303,1.582-1.242c1.525,2.021,3.168,6.184,3.168,6.184l-6.447,2.826L319.637,349.229z"></path><path style="fill:#4A3FC2;" d="M324.445,345.833c0,0-1.34,0.704-1.543,1.187c-0.283-0.316-2.07-1.151-2.07-1.151s1.294,2.483,2.062,2.631C323.662,348.646,324.445,345.833,324.445,345.833z"></path><path style="fill:#232323;stroke:#000000;stroke-linecap:round;stroke-linejoin:round;" d="M320.692,352.004c0,0-0.895-2.831-3.823-4.728c-0.29,0.795-0.236,1.327-0.236,1.327s-1.774-1.281-2.742-1.194c-0.967,2.897-0.455,6.05,0.749,7.688c4.429,1.756,5.944,1.952,5.944,1.952L320.692,352.004z"></path><path style="fill:#4A3FC2;" d="M317.321,347.584l-0.462,1.049c0,0-1.898-1.037-2.298-0.81c0.419,1.396,3.108,3.461,3.507,3.605C318.465,351.574,318.563,349.411,317.321,347.584z"></path><g><path style="fill:#232323;stroke:#000000;stroke-linecap:round;stroke-linejoin:round;" d="M331.779,367.664c0.356,0.324,3.287,5.028-0.731,10.979c-1.931-0.808-4.746-2.626-5.493-4.699c-0.745-2.072-1.775-4.335,0.734-8.172C329.146,366.797,331.779,367.664,331.779,367.664z"></path><path style="fill:#4A3FC2;" d="M332.408,374.734c0,0-1.144,0.961-2.793,0.837s-3.857-1.987-3.857-1.987s0.865,2.567,5.094,4.556C331.823,377.435,332.408,374.734,332.408,374.734z"></path></g><g><path style="fill:#232323;stroke:#000000;stroke-linecap:round;stroke-linejoin:round;" d="M333.398,356.956c0,0,5.422,0.774,8.778,3.867c0.257,1.329-1.848,4.693-4.077,6.16c-2.229,1.466-8.756,1.843-13.142-0.707C327.688,363.58,333.398,356.956,333.398,356.956z"></path><path style="fill:#4A3FC2;" d="M341.711,360.963c0,0-2.75-1.61-4.092-0.907c-0.752,2.215,0.264,3.643,0.264,3.643s1.9,0.668,2.504-0.041C340.988,362.949,341.987,362.387,341.711,360.963z"></path><path style="fill:#151515;" d="M338.037,366.404c0,0-4.463-0.91-5.91-1.516c-2.764,0.608-5.303,1.618-5.303,1.618S332.072,369.185,338.037,366.404z"></path><path style="fill:none;stroke:#000000;stroke-linecap:round;stroke-linejoin:round;" d="M341.83,361.581c0,0-2.421-1.058-4.461,0.617c-0.642-0.517-1.508-1.433-1.508-1.433l-0.481,0.832c0,0-1.607-0.428-2.884,0.361c1.381,0.521,2.285,1.626,2.285,1.626"></path></g><path style="fill:#232323;stroke:#000000;stroke-linecap:round;stroke-linejoin:round;" d="M330.64,352.122c0,0,4.952-0.12,7.065,1.884c0.198,1.537-1.316,4.145-1.316,4.145l-3.574,1.136L330.64,352.122z"></path><path style="fill:#4A3FC2;" d="M336.818,356.295c0,0-2.213-1.493-2.174-2.829c0.887-0.764,2.584,0.754,2.584,0.754L336.818,356.295z"></path><g><path style="fill:#232323;stroke:#000000;stroke-linecap:round;stroke-linejoin:round;" d="M330.498,363.086c0,0,2.719-1.219,3.545-3.053c0.828-1.834-0.317-3.682-0.317-3.682l-0.107-1.31c0,0-2.806-3.296-3.807-3.646c-1.005-0.347-3.788-1.238-3.788-1.238s-2.651-0.717-4.641,1.984c-1.988,2.7-0.807,4.982-0.807,4.982L330.498,363.086z"></path><path style="fill:#4A3FC2;" d="M333.729,359.036c0,0,0.631-0.936-0.523-2.707c-0.055-0.653,0.005-1.109,0.005-1.109s-1.806-2.457-2.997-3.262c-1.274-0.861-4.51-2.304-6.108-1.403c-1.626,0.759-2.571,1.605-2.978,2.942c1.133,0.888,1.957,0.948,1.957,0.948s2.039,2.119,2.887,2.694c0.852,0.574,4.107,3.268,5.243,3.417C332.354,360.706,333.729,359.036,333.729,359.036z"></path><g><path style="fill:none;stroke:#000000;stroke-linecap:round;stroke-linejoin:round;" d="M333.654,355.479c0,0-1.736,1.716-5.377,1.484"></path><path style="fill:none;stroke:#000000;stroke-linecap:round;stroke-linejoin:round;" d="M326.172,350.671c0,0-1.869,1.792,0.631,5.545"></path><path style="fill:none;stroke:#000000;stroke-linecap:round;stroke-linejoin:round;" d="M330.551,354.455c0,0-3.506-0.552-4.43-1.506"></path><path style="fill:none;stroke:#000000;stroke-linecap:round;stroke-linejoin:round;" d="M329.105,351.58c0.246,0.249,1.887,2.101,1.831,4.868"></path><path style="fill:none;stroke:#000000;stroke-linecap:round;stroke-linejoin:round;" d="M328.012,353.813c0,0-1.809-1.965-0.624-3.228"></path></g></g><g><path style="fill:#232323;stroke:#000000;stroke-linecap:round;stroke-linejoin:round;" d="M315.314,356.543c0,0-5.32-1.777-8.301,1.657c2.469,2.576,8.256,5.494,12.586,4.704c-2.215-3.807-4.077-6.302-4.077-6.302"></path><path style="fill:#4A3FC2;" d="M310.299,356.331c0,0-2.707,0.527-3.313,1.603c1.359,1.288,4.139,2.672,4.139,2.672s-1.867-1.632-1.518-2.883C309.955,356.473,310.299,356.331,310.299,356.331z"></path></g><path style="fill:#232323;stroke:#000000;stroke-linecap:round;stroke-linejoin:round;" d="M332.445,363.742c0,0,0.18-1.118-0.142-1.499c-0.546-0.534-2.062-0.979-2.062-0.979s-1.5-2.911-2.33-3.392c-1.727-0.011-2.58-0.339-2.58-0.339s-2.659-2.292-3.908-2.642c-0.688,0.527-1.143,0.715-1.143,0.715s-3.433-3.226-3.868-3.438c-1.443,0.427-1.989,2.455-2.087,2.967c-0.098,0.511,0.498,4.874,5.83,8.476c2.324,1.569,5.577,2.86,5.577,2.86S331.008,366.484,332.445,363.742z"></path><path style="fill:#151515;" d="M329.107,365.325c0,0-11.013-4.592-13.473-11.578c-0.975,1.074-0.836,1.787-0.836,1.787s0.628,4.387,5.162,7.203c4.537,2.815,5.758,3.021,5.758,3.021S327.281,366.196,329.107,365.325z"></path></g></g></g></g></svg>