<svg xmlns="http://www.w3.org/2000/svg" width="500" height="500" version="1.1"><g id="x008" data-trait-type="Wings" data-trait-value="Junior Adult Black Feather"><g><g><path style="fill:#6E6E6E;stroke:#000000;stroke-linecap:round;stroke-linejoin:round;" d="M237.046,299.868c0,0-11.073-0.852-20.018-11.925c-4.071-5.041-6.735-16.689-13.628-25.98c-9.796-13.202-17.541-21.721-19.166-21.721c-2.98,0,0.426,10.647,0.426,10.647s-13.202-4.259-19.165-12.351c-5.962-8.092-12.777-16.61-12.777-16.61s-7.24,19.166,10.648,28.535c0,0-28.11-9.369-42.59-17.888c-14.48-8.518-34.498-21.721-40.034-31.942c0.852,11.926,2.556,30.665,49.404,51.96c-23.851-5.963-63.459-5.111-114.566-38.757c-2.555,5.11,4.685,24.276,22.572,35.35c17.888,11.073,38.331,19.591,50.682,19.165c-17.462,0.426-48.552,7.24-71.977-4.259c0.852,6.814,9.37,30.665,54.515,27.258c-11.925,2.129-19.591,4.685-17.888,5.536s24.276,10.647,40.46,5.111c-5.11,5.11-4.259,7.24-4.259,7.24s20.869,2.98,29.813-2.556c-5.537,7.666-8.092,14.48-8.092,14.48s25.554,3.833,38.757-17.036c-4.259,10.222-11.073,16.185-9.37,17.888c1.704,1.704,19.592-10.222,22.146-14.48c-1.703,6.389-8.518,17.675-5.962,18.101c2.555,0.426,19.591-11.712,19.591-11.712s-7.24,20.443-4.259,20.443s12.351-11.073,12.777-9.37c0.426,1.703,3.407,4.685,3.407,4.685l7.24-5.11c0,0,0.852,6.814,5.11,4.259s6.389-6.814,6.389-6.814l4.259,4.685l4.685-8.518c3.407-2.981,10.222,6.814,15.759,6.814c2.129-6.814,0.426-15.332,0.426-15.332h6.389l-0.853-4.259L237.046,299.868z"></path><path style="fill:#505050;" d="M119.924,310.303c0,0-4.685,6.602-5.111,8.73c4.046,0.853,25.341-1.916,32.794-15.971c5.963-4.472,11.287-9.157,11.287-9.157l-0.426-3.194l-7.453,0.427L119.924,310.303z"></path><path style="fill:#505050;" d="M103.74,300.72c12.351-0.213,39.821-14.693,39.821-14.693s1.065,0.852,5.537,1.491c-31.729,26.831-55.58,19.591-56.218,19.591s3.407-4.685,3.407-4.685s1.064-2.556-1.704-2.981c-2.769-0.426-15.12,6.602-34.924-2.769c16.61,2.556,37.479-0.213,47.275-4.259C112.258,297.1,103.74,300.72,103.74,300.72z"></path><path style="fill:#505050;" d="M20.69,268.777c0,0,6.175,19.592,40.034,21.082c33.859,1.491,65.588-13.202,65.588-13.202s-52.529,10.798-71.763,7.453c-19.591-3.407-16.61-8.093-13.842-11.073C34.958,271.759,20.69,268.777,20.69,268.777z"></path><path style="fill:#505050;" d="M131.423,250.677c0,0-41.951-16.822-46.849-41.524c6.602,6.602,17.249,13.842,17.249,13.842s-6.602-2.13-5.324,1.277S131.423,250.677,131.423,250.677z"></path><path style="fill:#505050;" d="M17.496,217.883c0,0,3.194,31.729,60.264,46.849c9.583,2.343,34.498,2.13,34.498,2.13s-63.672-11.499-80.708-34.498c-0.426-2.555,2.129-3.62,4.898-3.194C31.338,225.549,17.496,217.883,17.496,217.883z"></path><path style="fill:none;stroke:#000000;stroke-linecap:round;stroke-linejoin:round;" d="M95.222,253.02c0,0,17.462,22.146,53.663,14.055"></path><path style="fill:none;stroke:#000000;stroke-linecap:round;stroke-linejoin:round;" d="M130.146,269.63c0,0-5.111,2.129-4.259,4.259c0.852,2.129,10.222,3.833,16.61,2.555c-2.981,2.981-3.407,6.814-1.704,8.093c1.704,1.277,10.647,0.426,10.647,0.426s-2.981,2.981,0,4.685c2.981,1.704,10.647-1.703,10.647-1.703s-4.259,3.833-0.426,5.11s10.647-0.852,10.647-0.852s-1.703,4.685,1.704,4.685c3.406,0,10.646-2.981,10.646-2.981"></path><path style="fill:none;stroke:#000000;stroke-linecap:round;stroke-linejoin:round;" d="M150.376,253.02c-0.852,0-5.962-0.852-7.027-0.639s1.491,10.222,16.823,9.582c-0.852,3.194-1.491,8.944,11.499,7.88c-3.62,4.046-2.13,12.351,6.602,11.499c-0.64,2.342,0.426,6.602,7.453,3.833"></path><path style="fill:none;stroke:#000000;stroke-linecap:round;stroke-linejoin:round;" d="M199.78,279.212c0.213,0.852,5.323,13.629,12.989,16.61s9.157,2.343,9.157,2.343"></path><path style="fill:none;stroke:#000000;stroke-linecap:round;stroke-linejoin:round;" d="M206.595,322.228c0,0,4.046-10.222,0.639-22.359"></path><path style="fill:none;stroke:#000000;stroke-linecap:round;stroke-linejoin:round;" d="M119.499,307.534c0,0,19.591-7.666,30.025-18.101"></path><path style="fill:none;stroke:#000000;stroke-linecap:round;stroke-linejoin:round;" d="M70.733,291.351c0,0,42.164-4.26,59.625-14.268"></path><path style="fill:none;stroke:#000000;stroke-linecap:round;stroke-linejoin:round;" d="M87.982,268.394c2.129-0.213,18.526,1.875,33.007,0.384"></path><path style="fill:none;stroke:#000000;stroke-linecap:round;stroke-linejoin:round;" d="M149.737,304.47c0,0,5.75-4.602,11.925-11.416"></path></g><g><path style="fill:#6E6E6E;stroke:#000000;stroke-linecap:round;stroke-linejoin:round;" d="M262.954,299.868c0,0,11.073-0.852,20.018-11.925c4.07-5.041,6.735-16.689,13.628-25.98c9.796-13.202,17.542-21.721,19.166-21.721c2.98,0-0.426,10.647-0.426,10.647s13.202-4.259,19.165-12.351s12.776-16.61,12.776-16.61s7.24,19.166-10.647,28.535c0,0,28.109-9.369,42.59-17.888c14.48-8.518,34.498-21.721,40.034-31.942c-0.852,11.926-2.555,30.665-49.403,51.96c23.85-5.963,63.458-5.111,114.566-38.757c2.555,5.11-4.686,24.276-22.573,35.35s-38.33,19.591-50.682,19.165c17.462,0.426,48.553,7.24,71.977-4.259c-0.852,6.814-9.369,30.665-54.515,27.258c11.925,2.129,19.591,4.685,17.888,5.536s-24.276,10.647-40.46,5.111c5.11,5.11,4.259,7.24,4.259,7.24s-20.869,2.98-29.813-2.556c5.536,7.666,8.092,14.48,8.092,14.48s-25.554,3.833-38.757-17.036c4.259,10.222,11.073,16.185,9.37,17.888c-1.704,1.704-19.592-10.222-22.146-14.48c1.703,6.389,8.518,17.675,5.962,18.101c-2.555,0.426-19.591-11.712-19.591-11.712s7.24,20.443,4.259,20.443s-12.351-11.073-12.777-9.37c-0.426,1.703-3.407,4.685-3.407,4.685l-7.24-5.11c0,0-0.852,6.814-5.11,4.259s-6.389-6.814-6.389-6.814l-4.259,4.685l-4.685-8.518c-3.407-2.981-10.222,6.814-15.759,6.814c-2.129-6.814-0.426-15.332-0.426-15.332h-6.389l0.853-4.259L262.954,299.868z"></path><path style="fill:#505050;" d="M380.076,310.303c0,0,4.685,6.602,5.11,8.73c-4.046,0.853-25.341-1.916-32.794-15.971c-5.963-4.472-11.286-9.157-11.286-9.157l0.426-3.194l7.453,0.427L380.076,310.303z"></path><path style="fill:#505050;" d="M396.26,300.72c-12.351-0.213-39.821-14.693-39.821-14.693s-1.064,0.852-5.537,1.491c31.729,26.831,55.58,19.591,56.219,19.591s-3.407-4.685-3.407-4.685s-1.064-2.556,1.704-2.981c2.768-0.426,15.119,6.602,34.923-2.769c-16.609,2.556-37.479-0.213-47.274-4.259C387.742,297.1,396.26,300.72,396.26,300.72z"></path><path style="fill:#505050;" d="M479.31,268.777c0,0-6.176,19.592-40.034,21.082c-33.858,1.491-65.588-13.202-65.588-13.202s52.53,10.798,71.764,7.453c19.591-3.407,16.609-8.093,13.842-11.073C465.042,271.759,479.31,268.777,479.31,268.777z"></path><path style="fill:#505050;" d="M368.576,250.677c0,0,41.951-16.822,46.849-41.524c-6.601,6.602-17.248,13.842-17.248,13.842s6.601-2.13,5.323,1.277S368.576,250.677,368.576,250.677z"></path><path style="fill:#505050;" d="M482.504,217.883c0,0-3.194,31.729-60.265,46.849c-9.582,2.343-34.497,2.13-34.497,2.13s63.671-11.499,80.707-34.498c0.426-2.555-2.129-3.62-4.897-3.194C468.662,225.549,482.504,217.883,482.504,217.883z"></path><path style="fill:none;stroke:#000000;stroke-linecap:round;stroke-linejoin:round;" d="M404.777,253.02c0,0-17.461,22.146-53.662,14.055"></path><path style="fill:none;stroke:#000000;stroke-linecap:round;stroke-linejoin:round;" d="M369.854,269.63c0,0,5.11,2.129,4.259,4.259c-0.852,2.129-10.222,3.833-16.61,2.555c2.981,2.981,3.407,6.814,1.704,8.093c-1.704,1.277-10.647,0.426-10.647,0.426s2.981,2.981,0,4.685c-2.981,1.704-10.647-1.703-10.647-1.703s4.259,3.833,0.426,5.11s-10.647-0.852-10.647-0.852s1.703,4.685-1.704,4.685c-3.406,0-10.646-2.981-10.646-2.981"></path><path style="fill:none;stroke:#000000;stroke-linecap:round;stroke-linejoin:round;" d="M349.624,253.02c0.852,0,5.963-0.852,7.027-0.639s-1.49,10.222-16.823,9.582c0.853,3.194,1.491,8.944-11.499,7.88c3.62,4.046,2.13,12.351-6.602,11.499c0.64,2.342-0.426,6.602-7.453,3.833"></path><path style="fill:none;stroke:#000000;stroke-linecap:round;stroke-linejoin:round;" d="M300.22,279.212c-0.213,0.852-5.323,13.629-12.989,16.61s-9.157,2.343-9.157,2.343"></path><path style="fill:none;stroke:#000000;stroke-linecap:round;stroke-linejoin:round;" d="M293.405,322.228c0,0-4.046-10.222-0.639-22.359"></path><path style="fill:none;stroke:#000000;stroke-linecap:round;stroke-linejoin:round;" d="M380.502,307.534c0,0-19.592-7.666-30.026-18.101"></path><path style="fill:none;stroke:#000000;stroke-linecap:round;stroke-linejoin:round;" d="M429.267,291.351c0,0-42.163-4.26-59.625-14.268"></path><path style="fill:none;stroke:#000000;stroke-linecap:round;stroke-linejoin:round;" d="M412.018,268.394c-2.129-0.213-18.526,1.875-33.007,0.384"></path><path style="fill:none;stroke:#000000;stroke-linecap:round;stroke-linejoin:round;" d="M350.263,304.47c0,0-5.749-4.602-11.925-11.416"></path></g></g></g></svg>