<svg xmlns="http://www.w3.org/2000/svg" width="500" height="500" version="1.1"><g id="x009" data-trait-type="Wings" data-trait-value="Dragon Wings"><g><g><g><path style="fill:#6E6E6E;stroke:#000000;stroke-linecap:round;stroke-linejoin:round;" d="M192.171,292.841c0,0-17.996-2.046-21.678-19.633c-3.681-17.587,5.727-24.54,5.727-24.54l-10.225-18.814c0,0-42.944-10.634-52.761,53.988c5.727,32.311,26.994,58.076,26.994,58.076s0-12.678,6.544-16.358c6.545-3.682,19.631,6.135,21.267,6.135s-3.681-16.36,5.727-20.45c9.407-4.09,15.133,5.727,17.586,5.727C193.807,316.972,192.171,292.841,192.171,292.841z"></path><path style="fill:#505050;" d="M139.001,242.534c0,0-25.953,32.051,5.131,83.176c-1.636,2.045-4.604,8.304-4.604,8.304S97.283,284.66,139.001,242.534z"></path><path style="fill:#505050;" d="M161.496,258.894c0,0-8.997,17.588,22.085,38.854c1.228,3.682,2.046,8.591,2.046,8.591l-4.909-7.362C180.718,298.976,149.226,284.252,161.496,258.894z"></path><g><path style="fill:#FFFFFF;stroke:#000000;stroke-linecap:round;stroke-linejoin:round;" d="M166.403,232.718c0,0-4.908,12.27,9.816,15.951c6.953-3.681,28.629-20.859,28.629-20.859S184.809,220.856,166.403,232.718z"></path><path style="fill:#B2B2B2;" d="M167.221,242.125c0,0,2.454,3.681,8.999,3.681c7.361-6.953,24.54-17.178,24.54-17.178S181.945,229.854,167.221,242.125z"></path></g><path style="fill:#505050;" d="M151.367,323.244c0,0,6.576,0.821,13.812,5.508c-10.634-13.088-17.18-32.231-13.908-61.27c-6.953,23.313-4.908,31.085-0.818,42.945C154.121,321.065,151.367,323.244,151.367,323.244z"></path></g><g><path style="fill:#6E6E6E;stroke:#000000;stroke-linecap:round;stroke-linejoin:round;" d="M161.496,230.263c0,0-33.129,4.499-36.81,44.172c-3.681,39.674,5.317,50.307,30.267,77.71c24.948,27.402,37.627,44.579,37.627,78.119c-6.134-13.088-28.837-51.779-47.444-53.579c-12.679-1.229-4.09,11.452-4.09,11.452s-10.225-4.091-16.77-14.315c-6.543-10.226-9.407-19.632-15.132-19.223c-5.726,0.408-2.455,8.18-2.455,8.18s-18.963-17.947-11.453-61.76C102.6,258.075,128.776,224.946,161.496,230.263z"></path><path style="fill:#505050;" d="M134.502,382.002c1.236,0.804-25.357-29.448-19.224-77.301c-4.498,13.088-4.584,44.148-0.085,51.511C120.511,363.574,126.321,376.686,134.502,382.002z"></path><path style="fill:#505050;" d="M104.505,357.362c0,0-10.903-24.439-2.314-56.751C95.647,319.017,93.462,343.457,104.505,357.362z"></path><path style="opacity:0.5;fill:#FFFFFF;" d="M152.518,231.576c0,0-25.157,6.33-29.021,39.626c-4.738,40.831,2.032,54.978,29.104,82.049c26.175,26.176,36.749,45.465,38.311,70.212c-4.09-20.859-15.394-46.452-40.12-67.169c-30.266-25.358-36.075-49.836-29.787-86.357C127.114,234.453,152.518,231.576,152.518,231.576z"></path></g></g><g><g><path style="fill:#6E6E6E;stroke:#000000;stroke-linecap:round;stroke-linejoin:round;" d="M307.83,292.841c0,0,17.995-2.046,21.677-19.633c3.681-17.587-5.727-24.54-5.727-24.54l10.226-18.814c0,0,42.945-10.634,52.76,53.988c-5.726,32.311-26.992,58.076-26.992,58.076s0-12.678-6.545-16.358c-6.545-3.682-19.632,6.135-21.268,6.135s3.681-16.36-5.728-20.45c-9.406-4.09-15.132,5.727-17.587,5.727C306.194,316.972,307.83,292.841,307.83,292.841z"></path><path style="fill:#505050;" d="M360.998,242.534c0,0,25.954,32.051-5.131,83.176c1.637,2.045,4.604,8.304,4.604,8.304S402.717,284.66,360.998,242.534z"></path><path style="fill:#505050;" d="M338.504,258.894c0,0,8.999,17.588-22.086,38.854c-1.227,3.682-2.045,8.591-2.045,8.591l4.908-7.362C319.281,298.976,350.774,284.252,338.504,258.894z"></path><g><path style="fill:#FFFFFF;stroke:#000000;stroke-linecap:round;stroke-linejoin:round;" d="M333.597,232.718c0,0,4.907,12.27-9.816,15.951c-6.953-3.681-28.63-20.859-28.63-20.859S315.191,220.856,333.597,232.718z"></path><path style="fill:#B2B2B2;" d="M332.779,242.125c0,0-2.454,3.681-8.999,3.681c-7.362-6.953-24.539-17.178-24.539-17.178S318.055,229.854,332.779,242.125z"></path></g><path style="fill:#505050;" d="M348.633,323.244c0,0-6.576,0.821-13.812,5.508c10.635-13.088,17.18-32.231,13.908-61.27c6.952,23.313,4.907,31.085,0.818,42.945C345.879,321.065,348.633,323.244,348.633,323.244z"></path></g><g><path style="fill:#6E6E6E;stroke:#000000;stroke-linecap:round;stroke-linejoin:round;" d="M338.504,230.263c0,0,33.129,4.499,36.812,44.172c3.68,39.674-5.318,50.307-30.268,77.71c-24.948,27.402-37.626,44.579-37.626,78.119c6.134-13.088,28.836-51.779,47.442-53.579c12.68-1.229,4.091,11.452,4.091,11.452s10.224-4.091,16.768-14.315c6.545-10.226,9.407-19.632,15.133-19.223c5.727,0.408,2.455,8.18,2.455,8.18s18.963-17.947,11.451-61.76C397.4,258.075,371.223,224.946,338.504,230.263z"></path><path style="fill:#505050;" d="M365.499,382.002c-1.236,0.804,25.356-29.448,19.223-77.301c4.498,13.088,4.584,44.148,0.085,51.511C379.49,363.574,373.68,376.686,365.499,382.002z"></path><path style="fill:#505050;" d="M395.495,357.362c0,0,10.903-24.439,2.313-56.751C404.354,319.017,406.538,343.457,395.495,357.362z"></path><path style="opacity:0.5;fill:#FFFFFF;" d="M347.481,231.575c0,0,25.158,6.331,29.021,39.627c4.739,40.831-2.031,54.978-29.103,82.049c-26.176,26.176-36.751,45.465-38.312,70.212c4.09-20.859,15.393-46.452,40.119-67.169c30.267-25.358,36.075-49.836,29.787-86.357C372.886,234.453,347.481,231.575,347.481,231.575z"></path></g></g></g></g></svg>