<svg xmlns="http://www.w3.org/2000/svg" width="500" height="500" version="1.1"><g id="x010"><g><linearGradient id="hair2XMLID_515_" gradientUnits="userSpaceOnUse" x1="197.9312" y1="298" x2="197.9312" y2="239"><stop offset="0" style="stop-color:#FCFCE4"></stop><stop offset="0.5" style="stop-color:#A0C8DD"></stop><stop offset="1" style="stop-color:#5D6EC5"></stop></linearGradient><path style="fill:url(#hair2XMLID_515_);stroke:#1E1E1E;stroke-linecap:round;stroke-linejoin:round;" d="M204.99,210.684c1.259,9.597,7.097,21.032-3.153,37.79c-10.25,16.757-13.054,20.176-7.839,25.636c5.215,5.464,14.782,9.053,18.197,13.962c3.415,4.905-9.064,19.096-18.485,18.765c7.52-7.378,12.49-16.545,4.894-21.025c-7.595-4.483-11.605-5.502-15.006-12.763c-3.402-7.26,11.321-17.927,15.142-27.67s-6.729-28.628-6.729-28.628"></path><linearGradient id="hair2XMLID_516_" gradientUnits="userSpaceOnUse" x1="176.8091" y1="298" x2="176.8091" y2="239"><stop offset="0" style="stop-color:#FCFCE4"></stop><stop offset="0.5" style="stop-color:#A0C8DD"></stop><stop offset="1" style="stop-color:#5D6EC5"></stop></linearGradient><path style="fill:url(#hair2XMLID_516_);stroke:#1E1E1E;stroke-linecap:round;stroke-linejoin:round;" d="M173.237,178.612c-0.835,1.845-14.204,36.438-7.102,53.964c7.102,17.525,17.964,21.677,14.623,36.435c-3.342,14.76-12.076,15.969-14.206,22.141c-3.342,9.686,6.268,23.061,20.89,21.215c-14.623-7.839-16.294-15.219-11.699-21.676c4.596-6.459,17.965-17.066,12.534-31.825c-5.431-14.76-15.458-19.372-17.965-31.363c-2.507-11.993,8.356-38.283,10.445-39.667C182.847,186.453,173.237,178.612,173.237,178.612z"></path><linearGradient id="hair2XMLID_517_" gradientUnits="userSpaceOnUse" x1="291.2852" y1="298" x2="291.2852" y2="239"><stop offset="0" style="stop-color:#FCFCE4"></stop><stop offset="0.5" style="stop-color:#A0C8DD"></stop><stop offset="1" style="stop-color:#5D6EC5"></stop></linearGradient><path style="fill:url(#hair2XMLID_517_);stroke:#1E1E1E;stroke-linecap:round;stroke-linejoin:round;" d="M284.228,212.067c-1.258,9.596-7.096,21.033,3.155,37.79c10.249,16.757,13.051,20.173,7.838,25.636c-5.215,5.464-14.783,9.052-18.199,13.96c-3.416,4.906,9.065,19.1,18.486,18.767c-7.52-7.38-12.489-16.545-4.894-21.026c7.597-4.48,11.605-5.502,15.006-12.762c3.402-7.259-11.319-17.928-15.142-27.671s6.728-28.627,6.728-28.627"></path><linearGradient id="hair2XMLID_518_" gradientUnits="userSpaceOnUse" x1="308.2314" y1="298" x2="308.2314" y2="239"><stop offset="0" style="stop-color:#FCFCE4"></stop><stop offset="0.5" style="stop-color:#A0C8DD"></stop><stop offset="1" style="stop-color:#5D6EC5"></stop></linearGradient><path style="fill:url(#hair2XMLID_518_);stroke:#1E1E1E;stroke-linecap:round;stroke-linejoin:round;" d="M311.804,172.157c0.835,1.844,14.203,36.437,7.102,53.963c-7.102,17.526-17.965,21.677-14.621,36.438c3.341,14.759,12.074,15.967,14.203,22.138c3.344,9.687-6.267,23.06-20.889,21.217c7.938-7.381,16.293-15.22,11.698-21.678c-4.596-6.457-17.965-17.063-12.533-31.824c5.43-14.76,15.458-19.371,17.965-31.364c2.506-11.993-8.356-38.283-10.444-39.666C302.193,179.997,311.804,172.157,311.804,172.157z"></path><linearGradient id="hair2XMLID_519_" gradientUnits="userSpaceOnUse" x1="322.0195" y1="298" x2="322.0195" y2="239"><stop offset="0" style="stop-color:#FCFCE4"></stop><stop offset="0.5" style="stop-color:#A0C8DD"></stop><stop offset="1" style="stop-color:#5D6EC5"></stop></linearGradient><path style="fill:url(#hair2XMLID_519_);stroke:#1E1E1E;stroke-linecap:round;stroke-linejoin:round;" d="M325.59,177.23c0.835,1.844,14.205,36.438,7.103,53.964c-7.103,17.525-17.964,21.677-14.62,36.437c3.34,14.76,12.074,15.967,14.203,22.139c3.342,9.685-6.269,23.061-20.891,21.217c13.508-5.535,16.295-15.22,11.7-21.677c-4.598-6.459-17.965-17.066-12.534-31.825c5.429-14.76,15.457-19.372,17.964-31.365c2.507-11.992-8.356-38.282-10.442-39.665C315.98,185.071,325.59,177.23,325.59,177.23z"></path><g><g><path style="fill:#BEA36D;" d="M280.719,247.153h10.188c0.3-1.581,0.628-2.994,0.992-4.15L280.719,247.153z M207.265,247.153h10.19l-11.181-4.15C206.641,244.16,206.967,245.573,207.265,247.153z"></path></g><g><path style="fill:none;stroke:#57383D;stroke-width:5.7737;stroke-linecap:round;stroke-linejoin:round;" d="M280.719,247.153h10.188c0.3-1.581,0.628-2.994,0.992-4.15L280.719,247.153z M207.265,247.153h10.19l-11.181-4.15C206.641,244.16,206.967,245.573,207.265,247.153z"></path></g></g><linearGradient id="hair2XMLID_520_" gradientUnits="userSpaceOnUse" x1="249.2241" y1="298" x2="249.2241" y2="239.0001"><stop offset="0" style="stop-color:#FCFCE4"></stop><stop offset="0.5" style="stop-color:#A0C8DD"></stop><stop offset="1" style="stop-color:#5D6EC5"></stop></linearGradient><path style="fill:url(#hair2XMLID_520_);stroke:#1E1E1E;stroke-linecap:round;stroke-linejoin:round;" d="M324.348,166.049c-10.354-33.926-38.505-53.717-74.646-47.664c-34.666-5.823-61.981,12.132-73.308,43.526c-16.017,27.821-29.017,64.485-25.717,86.348c3.342,22.139,23.397,32.287,43.868,36.438c-10.445-5.998-32.17-15.683-35.095-37.822c-1.276-9.662,3.339-23.544,8.944-36.12c-0.69,9.541-0.063,20.127,4.007,28.74c4.731,10.012,12.167,17.224,20.143,22.513c4.387,7.791,10.765,16.915,18.712,22.227c-0.761-2.938-2.386-8.834-4.009-14.52c0.243,0.099,0.481,0.19,0.724,0.288c17.968,13.019,36.923,12.559,41.709,12.197c4.53,0.344,21.806,0.778,38.902-10.271c-1.4,4.95-2.718,9.748-3.379,12.305c6.919-4.622,12.646-12.133,16.908-19.14c9.806-5.454,19.469-13.495,25.189-25.6c3.607-7.632,4.505-16.813,4.183-25.445c4.93,11.656,8.682,24,7.516,32.825c-2.926,22.14-24.648,31.824-35.096,37.822c20.472-4.151,40.527-14.299,43.868-36.438C350.913,227.449,339.287,194.194,324.348,166.049z"></path></g></g></svg>