<svg xmlns="http://www.w3.org/2000/svg" width="500" height="500" version="1.1"><g id="x9099"><linearGradient id="hair2XMLID_920_" gradientUnits="userSpaceOnUse" x1="249.9995" y1="54.9824" x2="249.9995" y2="198.12"><stop offset="0" style="stop-color:#FCFCE4"></stop><stop offset="0.5" style="stop-color:#A0C8DD"></stop><stop offset="1" style="stop-color:#5D6EC5"></stop></linearGradient><path style="fill:url(#hair2XMLID_920_);stroke:#1E1E1E;stroke-linecap:round;stroke-linejoin:round;" d="M311.334,146.333c-31-37.667-61.334-33.667-61.334-33.667s-30.333-4-61.333,33.667c-27.024,32.836-6,87.667-6,87.667c-0.333,1.333,19,38.667,17.333,57.667c4-7.333,13-13.333,13-13.333s2.333,13.334,8.667,16c1.667-8,4.333-13,4.333-13s11.333,11,11,14c4.667-6,7.667-13.334,7.667-13.334s0,7.001,5.333,12.334c5.333-5.333,5.334-12.334,5.334-12.334s3,7.334,7.666,13.334c-0.334-3,11-14,11-14s2.667,5,4.334,13c6.333-2.666,8.666-16,8.666-16s9,6,13,13.333c-1.667-19,17.667-56.333,17.334-57.667C317.334,234,338.357,179.17,311.334,146.333z"></path></g></svg>