<svg xmlns="http://www.w3.org/2000/svg" width="500" height="500" version="1.1"><g id="x9101"><linearGradient id="hair2XMLID_922_" gradientUnits="userSpaceOnUse" x1="248.9995" y1="158.3569" x2="248.9995" y2="390.4338"><stop offset="0" style="stop-color:#FCFCE4"></stop><stop offset="0.5" style="stop-color:#A0C8DD"></stop><stop offset="1" style="stop-color:#5D6EC5"></stop></linearGradient><path style="fill:url(#hair2XMLID_922_);stroke:#1E1E1E;stroke-linecap:round;stroke-linejoin:round;" d="M330.28,228.598c7.291-1.89,11.882-8.911,11.882-8.911l-14.712-6.737c1.013-5.049,1.551-10.27,1.551-15.616c0-43.631-35.37-79-79-79c-43.631,0-79,35.369-79,79c0,5.05,0.494,9.982,1.399,14.769l-16.562,7.584c0,0,4.59,7.021,11.881,8.911c-1.62,3.781-9.991,12.962-18.092,13.772c8.641,8.641,27.003,5.13,31.054,2.97c2.7,11.611,16.742,33.484,17.552,35.915c0.81,2.431-0.54,12.15-4.861,16.741c8.641-2.43,24.033-9.99,27.004-22.143c1.35,7.291,11.071,21.604,13.231,23.224c-2.7-9.992-1.35-18.903-1.35-17.822c0,1.079,5.671,17.822,16.742,23.223c11.071-5.4,16.742-22.144,16.742-23.223c0-1.081,1.35,7.83-1.351,17.822c2.161-1.62,11.882-15.933,13.232-23.224c2.971,12.152,18.362,19.713,27.003,22.143c-4.32-4.591-5.67-14.311-4.86-16.741c0.811-2.431,14.853-24.304,17.553-35.915c4.05,2.16,22.412,5.671,31.054-2.97C340.272,241.56,331.901,232.379,330.28,228.598z"></path></g></svg>