<svg xmlns="http://www.w3.org/2000/svg" width="500" height="500" version="1.1"><g id="x9102"><g><linearGradient id="hair2XMLID_923_" gradientUnits="userSpaceOnUse" x1="250.0005" y1="270" x2="250.0005" y2="167.5"><stop offset="0" style="stop-color:#FCFCE4"></stop><stop offset="0.5" style="stop-color:#A0C8DD"></stop><stop offset="1" style="stop-color:#5D6EC5"></stop></linearGradient><path style="fill:url(#hair2XMLID_923_);stroke:#1E1E1E;stroke-linecap:round;stroke-linejoin:round;" d="M300.051,130c-20.549-14.083-46.238-10.686-50.051-10.083c-3.813-0.603-29.503-4-50.051,10.083c-22.25,15.25-24,46-20.75,64.25s14.301,46.25,7.551,64.5c5.25-3.25,7.248-10.75,7.248-10.75S196,259.75,190,265.75c6.75-2.25,11.5-8.75,11.75-17.25c0,0,5,18.5,28,34.75c-5.25-7.25-6-15-6-15s6.398,11.059,26.25,16.363c19.852-5.305,26.25-16.363,26.25-16.363s-0.75,7.75-6,15c23-16.25,28-34.75,28-34.75c0.25,8.5,5,15,11.75,17.25c-6-6-3.998-17.75-3.998-17.75s1.998,7.5,7.248,10.75c-6.75-18.25,4.301-46.25,7.551-64.5S322.301,145.25,300.051,130z"></path><g><linearGradient id="hair2XMLID_924_" gradientUnits="userSpaceOnUse" x1="296.25" y1="270" x2="296.25" y2="167.5"><stop offset="0" style="stop-color:#FCFCE4"></stop><stop offset="0.5" style="stop-color:#A0C8DD"></stop><stop offset="1" style="stop-color:#5D6EC5"></stop></linearGradient><path style="fill:url(#hair2XMLID_924_);stroke:#1E1E1E;stroke-linecap:round;stroke-linejoin:round;" d="M303.083,258.667c0,0-1.667,10-13.667,13.666c7.5-5.666,9.167-17.166,9.167-17.166"></path><linearGradient id="hair2XMLID_925_" gradientUnits="userSpaceOnUse" x1="203.7505" y1="270" x2="203.7505" y2="167.5"><stop offset="0" style="stop-color:#FCFCE4"></stop><stop offset="0.5" style="stop-color:#A0C8DD"></stop><stop offset="1" style="stop-color:#5D6EC5"></stop></linearGradient><path style="fill:url(#hair2XMLID_925_);stroke:#1E1E1E;stroke-linecap:round;stroke-linejoin:round;" d="M196.917,258.667c0,0,1.667,10,13.667,13.666c-7.5-5.666-9.167-17.166-9.167-17.166"></path></g></g></g></svg>