<svg xmlns="http://www.w3.org/2000/svg" width="500" height="500" version="1.1"><g id="x9104"><linearGradient id="hair2XMLID_937_" gradientUnits="userSpaceOnUse" x1="249.9995" y1="-35.4629" x2="249.9995" y2="251.7474"><stop offset="0" style="stop-color:#FCFCE4"></stop><stop offset="0.5" style="stop-color:#A0C8DD"></stop><stop offset="1" style="stop-color:#5D6EC5"></stop></linearGradient><path style="fill:url(#hair2XMLID_937_);stroke:#1E1E1E;stroke-linecap:round;stroke-linejoin:round;" d="M310.333,148.667C289.333,118.667,250,125,250,125s-39.333-6.333-60.333,23.667S184.04,212.555,188,220c8.334,15.667,13,32,13,32c0.333,1.667,13.334,23.334,17.667,28.334c-0.667-5,0-12.667,0-12.667s5.332,9.666,7.666,16.333c1-7,2.334-11.333,2.334-11.333L250,281.334l21.333-8.667c0,0,1.334,4.333,2.334,11.333c2.334-6.667,7.666-16.333,7.666-16.333s0.667,7.667,0,12.667c4.333-5,17.334-26.667,17.667-28.334c0,0,4.666-16.333,13-32C315.96,212.555,331.333,178.667,310.333,148.667z"></path></g></svg>