<svg xmlns="http://www.w3.org/2000/svg" width="500" height="500" version="1.1"><g id="x9105"><g><linearGradient id="hair2XMLID_938_" gradientUnits="userSpaceOnUse" x1="250.0005" y1="297" x2="250.0005" y2="242.666"><stop offset="0" style="stop-color:#FCFCE4"></stop><stop offset="0.5" style="stop-color:#A0C8DD"></stop><stop offset="1" style="stop-color:#5D6EC5"></stop></linearGradient><path style="fill:url(#hair2XMLID_938_);stroke:#1E1E1E;stroke-linecap:round;stroke-linejoin:round;" d="M331.834,204.668c0,0,1.792-40.319-22.102-66.004C285.84,112.979,250,113.874,250,113.874s-35.84-0.896-59.733,24.79c-23.894,25.685-22.101,66.004-22.101,66.004c-0.896,0.598-10.155,35.542-3.285,54.06c2.389,2.688,4.479,4.48,4.479,4.48s-2.987-14.636-1.194-21.505c0.895,8.362,1.792,20.907,5.077,25.984c3.583,2.389,3.882,1.492,3.882,1.492s-1.792-12.245-1.792-18.815c1.792,10.155,3.883,13.142,8.362,17.323c6.571,0.598,8.96-0.3,8.96-0.3s-2.091-6.868-2.389-13.141c2.389,9.259,7.765,12.844,7.765,12.844l15.829-0.598c0,0-0.597-12.246,1.793-12.844c0,0,0.896,8.065,5.375,12.544c8.662,3.285,28.971,3.585,28.971,3.585s20.31-0.3,28.97-3.585c4.481-4.479,5.377-12.544,5.377-12.544c2.389,0.598,1.791,12.844,1.791,12.844l15.829,0.598c0,0,5.377-3.585,7.766-12.844c-0.298,6.272-2.389,13.141-2.389,13.141s2.389,0.897,8.959,0.3c4.48-4.182,6.571-7.168,8.363-17.323c0,6.57-1.792,18.815-1.792,18.815s0.299,0.896,3.883-1.492c3.285-5.077,4.182-17.622,5.077-25.984c1.792,6.869-1.195,21.505-1.195,21.505s2.092-1.793,4.48-4.48C341.989,240.21,332.73,205.266,331.834,204.668z"></path></g></g></svg>