<svg xmlns="http://www.w3.org/2000/svg" width="500" height="500" version="1.1"><g id="x9108"><g><linearGradient id="hair2XMLID_941_" gradientUnits="userSpaceOnUse" x1="249.9995" y1="197.4736" x2="249.9995" y2="289.1266"><stop offset="0" style="stop-color:#FCFCE4"></stop><stop offset="0.5" style="stop-color:#A0C8DD"></stop><stop offset="1" style="stop-color:#5D6EC5"></stop></linearGradient><path style="fill:url(#hair2XMLID_941_);stroke:#1E1E1E;stroke-linecap:round;stroke-linejoin:round;" d="M323.41,209.654c0,0,33.59-88.154-73.41-88.154s-73.411,88.154-73.411,88.154s-2.472,54.663,18.588,66.481c1.263,0.71,0.305-5.909,3.406-10.587c0.929,5.416,4.958,10.835,11.462,13.051c-0.313-3.448-3.099-9.851-3.099-9.851s4.955,8.373,17.963,8.618c-0.929-0.738-0.929-2.216-0.929-2.216s10.221,5.665,26.019,4.926c15.797,0.739,26.019-4.926,26.019-4.926s0,1.478-0.929,2.216c13.009-0.245,17.963-8.618,17.963-8.618s-2.786,6.402-3.098,9.851c6.503-2.216,10.533-7.635,11.462-13.051c3.101,4.678,2.143,11.297,3.405,10.587C325.883,264.316,323.41,209.654,323.41,209.654z"></path><g><g><linearGradient id="hair2XMLID_942_" gradientUnits="userSpaceOnUse" x1="177.4995" y1="210.0879" x2="177.4995" y2="289.8151"><stop offset="0" style="stop-color:#FCFCE4"></stop><stop offset="0.5" style="stop-color:#A0C8DD"></stop><stop offset="1" style="stop-color:#5D6EC5"></stop></linearGradient><path style="fill:url(#hair2XMLID_942_);stroke:#1E1E1E;stroke-linecap:round;stroke-linejoin:round;" d="M183.784,144c0,0-17.13,23.985-20.529,40.5c-3.398,16.514-8.32,47.012-9,58.5c-0.68,11.489,3.061,28.089,19.375,33.832c-2.719-5.026-5.438-13.642-5.438-13.642s3.849,18.092,19.482,18.81c-4.758-4.308-5.887-10.911-5.887-10.911s9.517,8.615,19.033,7.897c-6.118-10.77-11.556-20.104-11.556-49.543"></path></g><g><linearGradient id="hair2XMLID_943_" gradientUnits="userSpaceOnUse" x1="347.9902" y1="210.0879" x2="347.9902" y2="289.8151" gradientTransform="matrix(-1 0 0 1 670.4902 0)"><stop offset="0" style="stop-color:#FCFCE4"></stop><stop offset="0.5" style="stop-color:#A0C8DD"></stop><stop offset="1" style="stop-color:#5D6EC5"></stop></linearGradient><path style="fill:url(#hair2XMLID_943_);stroke:#1E1E1E;stroke-linecap:round;stroke-linejoin:round;" d="M316.216,144c0,0,17.131,23.985,20.529,40.5c3.398,16.514,8.32,47.012,9,58.5c0.68,11.489-3.061,28.089-19.375,33.832c2.719-5.026,5.438-13.642,5.438-13.642s-3.849,18.092-19.481,18.81c4.758-4.308,5.887-10.911,5.887-10.911s-9.517,8.615-19.033,7.897c6.118-10.77,11.557-20.104,11.557-49.543"></path></g></g></g></g></svg>