<svg xmlns="http://www.w3.org/2000/svg" width="500" height="500" version="1.1"><g id="x013"><g><linearGradient id="hair2XMLID_525_" gradientUnits="userSpaceOnUse" x1="249.895" y1="349.5" x2="249.895" y2="240.5001"><stop offset="0" style="stop-color:#FCFCE4"></stop><stop offset="0.5" style="stop-color:#A0C8DD"></stop><stop offset="1" style="stop-color:#5D6EC5"></stop></linearGradient><path style="fill:url(#hair2XMLID_525_);stroke:#1E1E1E;stroke-linecap:round;stroke-linejoin:round;" d="M322.219,182.065c-2.681-19.635-9.329-36.766-19.777-47.45c-20.972-21.448-84.121-21.448-105.092,0c-10.448,10.685-17.097,27.815-19.778,47.449c-5.05,26.573-2.014,62.146,1.384,109.599c2.235,31.21,1.6,80.714,1.6,80.714c5.688,7.157,3.882,6.706,13.997,15.682c3.147-11.991,3.298-36.615,2.135-63.825c2.131,30.857,4.047,60.885,3.864,66.593c5.199,5.073,23.596,7.38,23.596,7.38s0.799-78.869,1.199-80.253c0.4-1.385,4,70.105,4.8,81.636c3.538,2.722,13.38,5.19,18.306,6.299c0.001,0.407,0.002,0.62,0.002,0.62s0.54-0.106,1.443-0.301c0.903,0.194,1.443,0.301,1.443,0.301s0.002-0.213,0.003-0.62c4.924-1.109,14.766-3.577,18.305-6.299c0.799-11.53,4.397-83.021,4.797-81.636c0.401,1.384,1.201,80.253,1.201,80.253s18.397-2.307,23.595-7.38c-0.183-5.708,1.733-35.734,3.864-66.588c-1.162,27.207-1.012,51.829,2.137,63.82c10.112-8.976,8.309-8.524,13.995-15.682c0,0-0.635-49.504,1.6-80.714C324.232,244.21,327.269,208.638,322.219,182.065z"></path><g><linearGradient id="hair2XMLID_526_" gradientUnits="userSpaceOnUse" x1="195.6021" y1="349.5" x2="195.6021" y2="240.5001"><stop offset="0" style="stop-color:#FCFCE4"></stop><stop offset="0.5" style="stop-color:#A0C8DD"></stop><stop offset="1" style="stop-color:#5D6EC5"></stop></linearGradient><path style="fill:url(#hair2XMLID_526_);stroke:#1E1E1E;stroke-linecap:round;stroke-linejoin:round;" d="M191.352,206.682c0,0,2,99.627,24.396,136.985c-15.597-17.527-29.994-24.446-29.994-24.446s-15.597-68.261-8.398-128.682"></path><linearGradient id="hair2XMLID_527_" gradientUnits="userSpaceOnUse" x1="200.3501" y1="349.5" x2="200.3501" y2="240.5001"><stop offset="0" style="stop-color:#FCFCE4"></stop><stop offset="0.5" style="stop-color:#A0C8DD"></stop><stop offset="1" style="stop-color:#5D6EC5"></stop></linearGradient><path style="fill:url(#hair2XMLID_527_);stroke:#1E1E1E;stroke-linecap:round;stroke-linejoin:round;" d="M185.354,202.531c0,1.845,2.399,77.948,16.796,105.622c7.599,7.378,13.198,9.686,13.198,9.686s-17.997-47.508-22.396-115.307"></path><linearGradient id="hair2XMLID_528_" gradientUnits="userSpaceOnUse" x1="304.7871" y1="349.5" x2="304.7871" y2="240.5001"><stop offset="0" style="stop-color:#FCFCE4"></stop><stop offset="0.5" style="stop-color:#A0C8DD"></stop><stop offset="1" style="stop-color:#5D6EC5"></stop></linearGradient><path style="fill:url(#hair2XMLID_528_);stroke:#1E1E1E;stroke-linecap:round;stroke-linejoin:round;" d="M309.038,206.682c0,0-2,99.627-24.396,136.985c15.598-17.527,29.995-24.446,29.995-24.446s15.596-68.261,8.397-128.682"></path><linearGradient id="hair2XMLID_529_" gradientUnits="userSpaceOnUse" x1="300.0391" y1="349.5" x2="300.0391" y2="240.5001"><stop offset="0" style="stop-color:#FCFCE4"></stop><stop offset="0.5" style="stop-color:#A0C8DD"></stop><stop offset="1" style="stop-color:#5D6EC5"></stop></linearGradient><path style="fill:url(#hair2XMLID_529_);stroke:#1E1E1E;stroke-linecap:round;stroke-linejoin:round;" d="M315.037,202.531c0,1.845-2.4,77.948-16.799,105.622c-7.598,7.378-13.197,9.686-13.197,9.686s17.999-47.508,22.397-115.307"></path></g></g></g></svg>