<svg xmlns="http://www.w3.org/2000/svg" width="500" height="500" version="1.1"><g id="x016"><g><g><linearGradient id="hair2XMLID_538_" gradientUnits="userSpaceOnUse" x1="249.7563" y1="324" x2="249.7563" y2="258.9999"><stop offset="0" style="stop-color:#FCFCE4"></stop><stop offset="0.5" style="stop-color:#A0C8DD"></stop><stop offset="1" style="stop-color:#5D6EC5"></stop></linearGradient><path style="fill:url(#hair2XMLID_538_);stroke:#1E1E1E;stroke-linecap:round;stroke-linejoin:round;" d="M316.542,158.136c-26.207-50.703-65.257-39.894-66.785-39.205c-1.528-0.689-40.581-11.499-66.789,39.204c-18.123,35.064-3.702,62.727-5.694,106.082c-0.615,13.388-15.543,44.74,8.767,67.802c-3.586-20.755,1.197-29.52,5.581-40.127c-1.595,8.764-5.182,33.208,7.97,40.127c-8.369-11.993-3.985-36.898-3.985-36.898s6.775,44.277,26.7,49.351c-0.992-8.901-5.545-36.237-5.857-44.891c2.935,14.262,11.675,40.563,23.393,48.12c-3.586-13.837-2.79-53.042-2.79-53.042s21.263,41.121,25.044,34.509c4.252,8.547,9.313,15.618,14.009,22.684c-3.768-16.569,1.17-36.803,5.339-50.077c-0.845,15.072-1.977,31.791-3.347,44.081c19.926-5.073,25.809-50.734,25.809-50.734s2.487,33.207-5.883,45.198c13.151-6.918,11.461-39.663,9.866-48.427c4.384,10.607,9.168,19.372,5.581,40.127c24.31-23.062,9.382-54.414,8.768-67.802C320.245,220.863,334.667,193.2,316.542,158.136z"></path></g><linearGradient id="hair2XMLID_539_" gradientUnits="userSpaceOnUse" x1="248.4751" y1="324" x2="248.4751" y2="259"><stop offset="0" style="stop-color:#FCFCE4"></stop><stop offset="0.5" style="stop-color:#A0C8DD"></stop><stop offset="1" style="stop-color:#5D6EC5"></stop></linearGradient><path style="fill:url(#hair2XMLID_539_);stroke:#1E1E1E;stroke-linecap:round;stroke-linejoin:round;" d="M261.76,284.972c0,0,6.376,53.503-14.346,72.874c3.188-21.677,0-47.506-13.15-68.723"></path></g></g></svg>