<svg xmlns="http://www.w3.org/2000/svg" width="500" height="500" version="1.1"><g id="x019"><g><linearGradient id="hair2XMLID_549_" gradientUnits="userSpaceOnUse" x1="249.604" y1="302" x2="249.604" y2="250"><stop offset="0" style="stop-color:#FCFCE4"></stop><stop offset="0.5" style="stop-color:#A0C8DD"></stop><stop offset="1" style="stop-color:#5D6EC5"></stop></linearGradient><path style="fill:url(#hair2XMLID_549_);stroke:#1E1E1E;stroke-linecap:round;stroke-linejoin:round;" d="M249.606,118.531c-47.054-4.436-89.027,35.347-70.74,96.903c16.1,54.197,59.404,56.311,70.74,55.902c11.333,0.408,54.636-1.705,70.737-55.902C338.629,153.878,296.659,114.096,249.606,118.531z"></path><g><g><g><linearGradient id="hair2XMLID_550_" gradientUnits="userSpaceOnUse" x1="301.4512" y1="302" x2="301.4512" y2="250.0001"><stop offset="0" style="stop-color:#FCFCE4"></stop><stop offset="0.5" style="stop-color:#A0C8DD"></stop><stop offset="1" style="stop-color:#5D6EC5"></stop></linearGradient><path style="fill:url(#hair2XMLID_550_);stroke:#1E1E1E;stroke-linecap:round;stroke-linejoin:round;" d="M289.495,249.921c0.836,18.911,5.432,38.743-13.367,60.419c33.628-0.001,31.12-36.897,29.868-43.817c10.861,15.683,2.507,46.122,2.507,46.122s16.71-12.914,14.452-51.145c6.436-25.419,3.558-48.879-0.036-67.389"></path><linearGradient id="hair2XMLID_551_" gradientUnits="userSpaceOnUse" x1="323.7803" y1="302" x2="323.7803" y2="249.9998"><stop offset="0" style="stop-color:#FCFCE4"></stop><stop offset="0.5" style="stop-color:#A0C8DD"></stop><stop offset="1" style="stop-color:#5D6EC5"></stop></linearGradient><path style="fill:url(#hair2XMLID_551_);stroke:#1E1E1E;stroke-linecap:round;stroke-linejoin:round;" d="M314.776,229.627c0,0-6.685,41.049,18.799,50.734c-10.025-10.607-10.862-29.058-9.191-40.126"></path></g><g><linearGradient id="hair2XMLID_552_" gradientUnits="userSpaceOnUse" x1="198.3755" y1="302" x2="198.3755" y2="250.0001"><stop offset="0" style="stop-color:#FCFCE4"></stop><stop offset="0.5" style="stop-color:#A0C8DD"></stop><stop offset="1" style="stop-color:#5D6EC5"></stop></linearGradient><path style="fill:url(#hair2XMLID_552_);stroke:#1E1E1E;stroke-linecap:round;stroke-linejoin:round;" d="M210.332,249.921c-0.836,18.911-5.432,38.743,13.368,60.419c-33.629-0.001-31.123-36.897-29.869-43.817c-10.863,15.683-2.507,46.122-2.507,46.122s-16.712-12.914-14.454-51.145c-6.436-25.419-3.556-48.879,0.037-67.389"></path><linearGradient id="hair2XMLID_553_" gradientUnits="userSpaceOnUse" x1="176.0454" y1="302" x2="176.0454" y2="249.9998"><stop offset="0" style="stop-color:#FCFCE4"></stop><stop offset="0.5" style="stop-color:#A0C8DD"></stop><stop offset="1" style="stop-color:#5D6EC5"></stop></linearGradient><path style="fill:url(#hair2XMLID_553_);stroke:#1E1E1E;stroke-linecap:round;stroke-linejoin:round;" d="M185.05,229.627c0,0,6.685,41.049-18.801,50.734c10.027-10.607,10.863-29.058,9.191-40.126"></path></g></g><linearGradient id="hair2XMLID_554_" gradientUnits="userSpaceOnUse" x1="246.6421" y1="302" x2="246.6421" y2="250"><stop offset="0" style="stop-color:#FCFCE4"></stop><stop offset="0.5" style="stop-color:#A0C8DD"></stop><stop offset="1" style="stop-color:#5D6EC5"></stop></linearGradient><path style="fill:url(#hair2XMLID_554_);stroke:#1E1E1E;stroke-linecap:round;stroke-linejoin:round;" d="M196.338,246.69c0,0,5.684,58.95,32.503,67.181c-9.528-14.368-6.185-38.353-6.185-38.353c0.836,12.913,5.849,39.205,34.257,43.816c-6.266-13.376-10.861-31.823-10.861-41.05c1.253,9.224,15.457,29.981,17.543,41.973c7.94-11.531,15.043-18.449,12.534-42.434c1.254,5.535,6.354,23.842,2.925,31.363c5.016-3.229,19.415-24.465,17.759-63.188"></path></g></g></g></svg>