<svg xmlns="http://www.w3.org/2000/svg" width="500" height="500" version="1.1"><g id="x002"><g><linearGradient id="hair2XMLID_480_" gradientUnits="userSpaceOnUse" x1="250.3052" y1="329.667" x2="250.3052" y2="195.6674"><stop offset="0" style="stop-color:#FCFCE4"></stop><stop offset="0.5" style="stop-color:#A0C8DD"></stop><stop offset="1" style="stop-color:#5D6EC5"></stop></linearGradient><path style="fill:url(#hair2XMLID_480_);stroke:#1E1E1E;stroke-linecap:round;stroke-linejoin:round;" d="M316.936,272.521c0.438-18.047,12.305-25.946,13.559-56.041c1.022-24.556-0.771-52.299-28.829-77.832c-23.187-21.102-51.572-20.409-51.572-20.409s-32.472-1.539-55.485,20.012c-19.511,18.272-29.539,40.178-27.345,77.882c2.193,37.706,15.488,47.507,19.113,68.38c5.687,32.732,1.652,8.474,1.045,11.99c-3.343,19.371-13.37,47.045,10.028,69.185c-1.672-19.371,0.834-51.655,13.368-59.036c-2.507,20.293-12.534,37.82,8.356,54.425c4.178-28.598,32.588-46.123,32.588-46.123s-8.357,29.517,15.037,45.199c-0.836-11.99,3.341-34.13,3.341-34.13s21.725,19.372,15.876,41.51c15.04-8.303,32.588-26.748,25.067-60.881c0.838,0,9.192,20.293,22.562,8.302C321.109,313.109,316.102,306.652,316.936,272.521z"></path><linearGradient id="hair2XMLID_481_" gradientUnits="userSpaceOnUse" x1="176.5586" y1="329.667" x2="176.5586" y2="195.6675"><stop offset="0" style="stop-color:#FCFCE4"></stop><stop offset="0.5" style="stop-color:#A0C8DD"></stop><stop offset="1" style="stop-color:#5D6EC5"></stop></linearGradient><path style="fill:url(#hair2XMLID_481_);stroke:#1E1E1E;stroke-linecap:round;stroke-linejoin:round;" d="M190.763,265.141c0,0-8.355,59.958-30.081,52.581c6.685,10.147,26.739,11.992,31.752-14.759"></path></g></g></svg>