<svg xmlns="http://www.w3.org/2000/svg" width="500" height="500" version="1.1"><g id="x020"><linearGradient id="hair2XMLID_555_" gradientUnits="userSpaceOnUse" x1="249.9126" y1="364.5" x2="249.9126" y2="268.0001"><stop offset="0" style="stop-color:#FCFCE4"></stop><stop offset="0.5" style="stop-color:#A0C8DD"></stop><stop offset="1" style="stop-color:#5D6EC5"></stop></linearGradient><path style="fill:url(#hair2XMLID_555_);stroke:#1E1E1E;stroke-linecap:round;stroke-linejoin:round;" d="M351.853,352.314c-11.699-6.918-32.462-49.031-26.217-83.945c9.713-54.311,4.467-68.709,4.467-68.709c-1.763-44.538-33.223-87.194-80.408-80.729c-48.789-6.682-80.77,38.475-80.493,85.299c-1.03,11.399-2.705,21.126,4.988,64.139c6.246,34.914-14.519,77.027-26.217,83.945c8.669-0.234,16.816-1.271,30.604-25.14c0,0-27.887,48.429,10.758,75.875c-4.596-6.457-5.014-33.67-2.508-40.588c-1.67,5.534-3.76,45.2,31.335,47.045c-19.218-17.065-1.254-41.511-1.254-41.511c-1.526,7.577,1.672,35.515,19.22,46.585c-7.521-13.837-5.798-48.83-0.418-64.571c0,0-7.938,42.198,21.512,65.028c10.028-31.825,8.147-67.799,8.147-67.799c5.381,15.742,5.852,53.505-1.67,67.342c17.547-11.07,20.746-39.008,19.218-46.585c0,0,17.965,24.445-1.253,41.511c35.095-1.845,33.006-41.511,31.335-47.045c2.508,6.918,2.088,34.131-2.507,40.588c38.646-27.446,10.758-75.875,10.758-75.875C335.036,351.043,343.183,352.08,351.853,352.314z"></path></g></svg>