<svg xmlns="http://www.w3.org/2000/svg" width="500" height="500" version="1.1"><g id="x021"><g><g><linearGradient id="hair2XMLID_556_" gradientUnits="userSpaceOnUse" x1="165.0913" y1="384.5" x2="165.0913" y2="219.9998"><stop offset="0" style="stop-color:#FCFCE4"></stop><stop offset="0.5" style="stop-color:#A0C8DD"></stop><stop offset="1" style="stop-color:#5D6EC5"></stop></linearGradient><path style="fill:url(#hair2XMLID_556_);stroke:#1E1E1E;stroke-linecap:round;stroke-linejoin:round;" d="M172.487,358.985c-7.824,0-14.87,3.657-19.825,9.501l-10.256-33.023c0,0-34.04,57.17,13.19,76.968c4.637,4.074,10.504,6.514,16.891,6.514c14.998,0,27.156-13.422,27.156-29.979C199.643,372.408,187.484,358.985,172.487,358.985z"></path><path style="fill:none;stroke:#1E1E1E;stroke-linecap:round;stroke-linejoin:round;" d="M147.836,372.823c0,0-0.417,27.21,17.129,26.751c17.548-0.463,14.205-23.985,4.178-25.829"></path></g><g><linearGradient id="hair2XMLID_557_" gradientUnits="userSpaceOnUse" x1="332.373" y1="384.5" x2="332.373" y2="219.9998"><stop offset="0" style="stop-color:#FCFCE4"></stop><stop offset="0.5" style="stop-color:#A0C8DD"></stop><stop offset="1" style="stop-color:#5D6EC5"></stop></linearGradient><path style="fill:url(#hair2XMLID_557_);stroke:#1E1E1E;stroke-linecap:round;stroke-linejoin:round;" d="M324.979,358.985c7.822,0,14.867,3.657,19.823,9.501l10.255-33.023c0,0,34.041,57.17-13.188,76.968c-4.64,4.074-10.504,6.514-16.891,6.514c-15,0-27.157-13.422-27.157-29.979C297.822,372.408,309.979,358.985,324.979,358.985z"></path><path style="fill:none;stroke:#1E1E1E;stroke-linecap:round;stroke-linejoin:round;" d="M349.628,372.823c0,0,0.417,27.21-17.129,26.751c-17.548-0.463-14.204-23.985-4.179-25.829"></path></g><linearGradient id="hair2XMLID_558_" gradientUnits="userSpaceOnUse" x1="248.7319" y1="384.5" x2="248.7319" y2="219.9999"><stop offset="0" style="stop-color:#FCFCE4"></stop><stop offset="0.5" style="stop-color:#A0C8DD"></stop><stop offset="1" style="stop-color:#5D6EC5"></stop></linearGradient><path style="fill:url(#hair2XMLID_558_);stroke:#1E1E1E;stroke-linecap:round;stroke-linejoin:round;" d="M370.86,313.909c-0.659-0.748-58.834-30.564-45.049-72.536c12.126-36.911,4.866-52.403,2.086-63.632c-5.537-39.515-35.609-64.577-79.164-58.81c-43.556-5.767-73.629,19.295-79.166,58.81c-2.779,11.229-10.041,26.721,2.084,63.632c13.787,41.972-44.389,71.788-45.047,72.536c-9.069,6.17-15.115,17.231-15.115,29.857c0,19.357,14.217,35.051,31.751,35.051c9.586,0,18.172-4.694,23.994-12.108l40.764,29.175c0,0,5.609,28.023,40.109,31.085v0.104c0.211-0.015,0.416-0.036,0.626-0.053c0.21,0.017,0.415,0.038,0.626,0.053v-0.104c34.497-3.062,40.106-31.085,40.106-31.085l40.763-29.175c5.823,7.414,14.41,12.108,23.994,12.108c17.537,0,31.751-15.693,31.751-35.051C385.974,331.141,379.929,320.079,370.86,313.909z"></path><g><linearGradient id="hair2XMLID_559_" gradientUnits="userSpaceOnUse" x1="198.7178" y1="384.5" x2="198.7178" y2="219.9995"><stop offset="0" style="stop-color:#FCFCE4"></stop><stop offset="0.5" style="stop-color:#A0C8DD"></stop><stop offset="1" style="stop-color:#5D6EC5"></stop></linearGradient><path style="fill:url(#hair2XMLID_559_);stroke:#1E1E1E;stroke-linecap:round;stroke-linejoin:round;" d="M184.832,347.732c4.956-5.846,12.002-9.502,19.825-9.502c14.998,0,27.156,13.424,27.156,29.98s-12.158,29.979-27.156,29.979c-6.387,0-12.253-2.44-16.891-6.514c-31.281-13.111-22.8-58.059-14.255-65.796c9.838-17.169,27.385-16.245,27.385-16.245s18.802-20.295,15.041-55.809"></path></g><g><linearGradient id="hair2XMLID_560_" gradientUnits="userSpaceOnUse" x1="298.7461" y1="384.5" x2="298.7461" y2="219.9995"><stop offset="0" style="stop-color:#FCFCE4"></stop><stop offset="0.5" style="stop-color:#A0C8DD"></stop><stop offset="1" style="stop-color:#5D6EC5"></stop></linearGradient><path style="fill:url(#hair2XMLID_560_);stroke:#1E1E1E;stroke-linecap:round;stroke-linejoin:round;" d="M312.633,347.732c-4.955-5.846-12.001-9.502-19.825-9.502c-14.997,0-27.157,13.424-27.157,29.98s12.16,29.979,27.157,29.979c6.387,0,12.254-2.44,16.893-6.514c31.279-13.111,22.799-58.059,14.254-65.796c-9.84-17.169-27.387-16.245-27.387-16.245s-18.8-20.295-15.039-55.809"></path></g></g></g></svg>