<svg xmlns="http://www.w3.org/2000/svg" width="500" height="500" version="1.1"><g id="x022"><g><linearGradient id="hair2XMLID_561_" gradientUnits="userSpaceOnUse" x1="249.9126" y1="299.002" x2="249.9126" y2="221.001"><stop offset="0" style="stop-color:#FCFCE4"></stop><stop offset="0.5" style="stop-color:#A0C8DD"></stop><stop offset="1" style="stop-color:#5D6EC5"></stop></linearGradient><path style="fill:url(#hair2XMLID_561_);stroke:#1E1E1E;stroke-linecap:round;stroke-linejoin:round;" d="M249.913,118.394c-76.884,0.587-79.781,66.026-77.583,93.205c-1.672,59.039,21.362,83.113,29.663,89.482c-5.015-19.372-5.015-33.209-5.015-33.209s2.509,24.906,16.712,35.053c8.773,0.461,15.876,0.461,15.876,0.461s-6.267-13.838-5.431-23.522c2.924,11.068,10.862,24.905,10.862,24.905l14.915,0.038l14.913-0.038c0,0,7.938-13.837,10.862-24.905c0.836,9.685-5.431,23.522-5.431,23.522s7.102,0,15.875-0.461c14.206-10.146,16.713-35.053,16.713-35.053s0,13.837-5.014,33.209c8.301-6.369,31.334-30.443,29.663-89.482C329.693,184.419,326.795,118.981,249.913,118.394z"></path><g><linearGradient id="hair2XMLID_562_" gradientUnits="userSpaceOnUse" x1="178.6587" y1="299.002" x2="178.6587" y2="220.9987"><stop offset="0" style="stop-color:#FCFCE4"></stop><stop offset="0.5" style="stop-color:#A0C8DD"></stop><stop offset="1" style="stop-color:#5D6EC5"></stop></linearGradient><path style="fill:url(#hair2XMLID_562_);stroke:#1E1E1E;stroke-linecap:round;stroke-linejoin:round;" d="M174.21,240.194c0.417,1.846,3.342,43.358,0,59.962c5.431-5.996,12.952-30.902,6.267-58.579"></path><linearGradient id="hair2XMLID_563_" gradientUnits="userSpaceOnUse" x1="321.166" y1="299.002" x2="321.166" y2="220.9987"><stop offset="0" style="stop-color:#FCFCE4"></stop><stop offset="0.5" style="stop-color:#A0C8DD"></stop><stop offset="1" style="stop-color:#5D6EC5"></stop></linearGradient><path style="fill:url(#hair2XMLID_563_);stroke:#1E1E1E;stroke-linecap:round;stroke-linejoin:round;" d="M325.615,240.194c-0.419,1.846-3.343,43.358,0,59.962c-5.432-5.996-12.952-30.902-6.267-58.579"></path></g></g></g></svg>