<svg xmlns="http://www.w3.org/2000/svg" width="500" height="500" version="1.1"><g id="x023"><g><linearGradient id="hair2XMLID_564_" gradientUnits="userSpaceOnUse" x1="249.9126" y1="377" x2="249.9126" y2="277.0001"><stop offset="0" style="stop-color:#FCFCE4"></stop><stop offset="0.5" style="stop-color:#A0C8DD"></stop><stop offset="1" style="stop-color:#5D6EC5"></stop></linearGradient><path style="fill:url(#hair2XMLID_564_);stroke:#1E1E1E;stroke-linecap:round;stroke-linejoin:round;" d="M342.65,407.462c-1.061,1.007-2.185,1.997-3.377,2.964C340.341,410.135,341.5,409.105,342.65,407.462z M340.619,322.332c-12.081-20.729-14.188-56.474-14.149-79.411c2.57-13.655,10.117-61.725-1.306-81.095C318.796,149.155,305.129,119,249.912,119c-55.217,0-67.122,29.191-72.532,44.113c-10.109,11.856-13.469,36.071-4.098,73.046c0.445,22.035-0.728,63.269-14.074,86.173c-17.993,30.875-25.329,63.018-2.033,85.13c-8.012-11.454-15.533-52.688,11.887-80.519c5.871-7.771,10.607-18.237,14.305-29.534c2.153,13.595,3.613,23.076,3.613,23.076c0,1.384-16.126,63.187,14.781,95.474c2.24,2.305,6.719,0.922,6.719,0.922s-10.751-19.372-10.303-44.277c2.241,9.686,8.063,37.359,21.501,42.894c6.27,1.846,11.197,1.385,11.197,1.385s-11.197-37.821-3.134-72.412c0,0-5.824,59.497,11.198,74.257c5.071,1.242,8.697,1.01,10.974,0.531c2.278,0.479,5.902,0.711,10.972-0.531c17.021-14.76,11.197-74.257,11.197-74.257c8.063,34.591-3.134,72.412-3.134,72.412s4.927,0.461,11.197-1.385c13.438-5.534,19.262-33.208,21.5-42.894c0.45,24.905-10.302,44.277-10.302,44.277s4.48,1.383,6.722-0.922c30.906-32.287,14.779-94.09,14.779-95.474c0,0,1.531-9.23,3.807-22.497c3.669,11.075,8.343,21.316,14.11,28.955c27.421,27.831,19.9,69.064,11.889,80.519C365.945,385.35,358.608,353.207,340.619,322.332z M160.551,410.426c-1.192-0.967-2.314-1.957-3.376-2.964C158.323,409.105,159.482,410.135,160.551,410.426z"></path><g><linearGradient id="hair2XMLID_565_" gradientUnits="userSpaceOnUse" x1="152.4878" y1="377" x2="152.4878" y2="277.0001"><stop offset="0" style="stop-color:#FCFCE4"></stop><stop offset="0.5" style="stop-color:#A0C8DD"></stop><stop offset="1" style="stop-color:#5D6EC5"></stop></linearGradient><path style="fill:url(#hair2XMLID_565_);stroke:#1E1E1E;stroke-linecap:round;stroke-linejoin:round;" d="M182.694,241.387c-1.344-0.693,7.613,28.665-11.422,49.812c-25.533,28.364-40.314,26.982-44.346,67.107c-2.687-3.459-5.375-8.993-5.375-8.993s-5.376-25.598,36.283-58.114c18.315-14.297,18.141-49.812,13.438-63.65"></path><linearGradient id="hair2XMLID_566_" gradientUnits="userSpaceOnUse" x1="347.3379" y1="377" x2="347.3379" y2="277.0001"><stop offset="0" style="stop-color:#FCFCE4"></stop><stop offset="0.5" style="stop-color:#A0C8DD"></stop><stop offset="1" style="stop-color:#5D6EC5"></stop></linearGradient><path style="fill:url(#hair2XMLID_566_);stroke:#1E1E1E;stroke-linecap:round;stroke-linejoin:round;" d="M317.131,241.387c1.344-0.693-7.61,28.665,11.423,49.812c25.531,28.364,40.313,26.982,44.346,67.107c2.688-3.459,5.374-8.993,5.374-8.993s5.376-25.598-36.283-58.114c-18.313-14.297-18.141-49.812-13.437-63.65"></path></g><g><linearGradient id="hair2XMLID_567_" gradientUnits="userSpaceOnUse" x1="318.8047" y1="377" x2="318.8047" y2="276.9999"><stop offset="0" style="stop-color:#FCFCE4"></stop><stop offset="0.5" style="stop-color:#A0C8DD"></stop><stop offset="1" style="stop-color:#5D6EC5"></stop></linearGradient><path style="fill:url(#hair2XMLID_567_);stroke:#1E1E1E;stroke-linecap:round;stroke-linejoin:round;" d="M324.939,309.417c0,0,38.074,65.493-2.688,108.849c0.555-0.898-3.583,0.461-4.031-2.767c17.468-35.054,15.111-57.781,0-79.794c-18.364-26.749-23.74-46.121-21.051-82.098"></path><linearGradient id="hair2XMLID_568_" gradientUnits="userSpaceOnUse" x1="181.019" y1="377" x2="181.019" y2="276.9999"><stop offset="0" style="stop-color:#FCFCE4"></stop><stop offset="0.5" style="stop-color:#A0C8DD"></stop><stop offset="1" style="stop-color:#5D6EC5"></stop></linearGradient><path style="fill:url(#hair2XMLID_568_);stroke:#1E1E1E;stroke-linecap:round;stroke-linejoin:round;" d="M174.884,309.417c0,0-38.075,65.493,2.688,108.849c-0.556-0.898,3.582,0.461,4.031-2.767c-17.469-35.054-15.112-57.781,0-79.794c18.366-26.749,23.741-46.121,21.053-82.098"></path></g></g></g></svg>