<svg xmlns="http://www.w3.org/2000/svg" width="500" height="500" version="1.1"><g id="x025"><g><linearGradient id="hair2XMLID_570_" gradientUnits="userSpaceOnUse" x1="249.7261" y1="297" x2="249.7261" y2="234.6665"><stop offset="0" style="stop-color:#FCFCE4"></stop><stop offset="0.5" style="stop-color:#A0C8DD"></stop><stop offset="1" style="stop-color:#5D6EC5"></stop></linearGradient><path style="fill:url(#hair2XMLID_570_);stroke:#1E1E1E;stroke-linecap:round;stroke-linejoin:round;" d="M331.152,201.108c-0.021-34.823-15.349-54.951-25.002-64.573c-27.229-27.139-55.585-16.669-56.422-16.604c-0.839-0.065-25.045-12.453-55.964,17.591c-5.075,4.931-25.445,28.763-25.465,63.586c-0.007,12.227,1.118,20.706,2.75,28.133c0,0,15.813,45.171,24.18,62.958c0,0,8.147-11.07,19.427-9.686c-1.88-2.076,1.88-11.07,1.88-11.07l4.386,12.453c0,0,3.206-3.02,18.174-2.185v0.11h1.722c2.13,0.151,4.466,0.374,7.052,0.691c0-0.203,0-0.438,0-0.691h4.087c0,0.254,0,0.488,0,0.691c22.559-2.768,38.853,4.151,38.853,4.151l4.387-12.455c0,0,3.761,8.996,1.879,11.07c14.714,3.46,17.847,14.529,17.847,14.529c8.856-18.827,13.481-70.568,13.481-70.568C330.034,221.814,331.16,213.334,331.152,201.108z"></path><linearGradient id="hair2XMLID_571_" gradientUnits="userSpaceOnUse" x1="182.8579" y1="297" x2="182.8579" y2="234.6665"><stop offset="0" style="stop-color:#FCFCE4"></stop><stop offset="0.5" style="stop-color:#A0C8DD"></stop><stop offset="1" style="stop-color:#5D6EC5"></stop></linearGradient><path style="fill:url(#hair2XMLID_571_);stroke:#1E1E1E;stroke-linecap:round;stroke-linejoin:round;" d="M168.907,190.499c-6.267,49.12-3.134,113.462,20.681,132.141c-3.76-8.303-6.894-24.906-3.134-44.276c1.253,17.295,6.268,26.98,13.161,29.748c-9.4-27.674-6.267-110.694-4.387-112.77"></path><linearGradient id="hair2XMLID_572_" gradientUnits="userSpaceOnUse" x1="319.1602" y1="297" x2="319.1602" y2="234.6665"><stop offset="0" style="stop-color:#FCFCE4"></stop><stop offset="0.5" style="stop-color:#A0C8DD"></stop><stop offset="1" style="stop-color:#5D6EC5"></stop></linearGradient><path style="fill:url(#hair2XMLID_572_);stroke:#1E1E1E;stroke-linecap:round;stroke-linejoin:round;" d="M330.917,190.499c6.268,49.12,3.135,113.462-20.679,132.141c13.459-42.202-3.761-125.223-5.643-127.298"></path></g></g></svg>