<svg xmlns="http://www.w3.org/2000/svg" width="500" height="500" version="1.1"><g id="x026"><g><g><g><linearGradient id="hair2XMLID_573_" gradientUnits="userSpaceOnUse" x1="249.9126" y1="323.667" x2="249.9126" y2="233"><stop offset="0" style="stop-color:#FCFCE4"></stop><stop offset="0.5" style="stop-color:#A0C8DD"></stop><stop offset="1" style="stop-color:#5D6EC5"></stop></linearGradient><path style="fill:url(#hair2XMLID_573_);" d="M249.912,118.462c-46.703-3.872-88.053,35.792-69.879,96.972c15.721,52.918,57.369,56.181,69.879,55.926c12.51,0.255,54.159-3.008,69.879-55.926C337.966,154.255,296.615,114.59,249.912,118.462z"></path></g><g><path style="fill:none;stroke:#293882;stroke-linecap:round;stroke-linejoin:round;" d="M249.912,118.462c-46.703-3.872-88.053,35.792-69.879,96.972c15.721,52.918,57.369,56.181,69.879,55.926c12.51,0.255,54.159-3.008,69.879-55.926C337.966,154.255,296.615,114.59,249.912,118.462z"></path></g></g><g><g><linearGradient id="hair2XMLID_574_" gradientUnits="userSpaceOnUse" x1="356.1074" y1="323.667" x2="356.1074" y2="233"><stop offset="0" style="stop-color:#FCFCE4"></stop><stop offset="0.5" style="stop-color:#A0C8DD"></stop><stop offset="1" style="stop-color:#5D6EC5"></stop></linearGradient><path style="fill:url(#hair2XMLID_574_);stroke:#1E1E1E;stroke-linecap:round;stroke-linejoin:round;" d="M359.139,332.479c0,0,4.177,28.597-11.697,34.13C360.393,367.532,372.091,356.463,359.139,332.479z"></path><linearGradient id="hair2XMLID_575_" gradientUnits="userSpaceOnUse" x1="333.2598" y1="323.667" x2="333.2598" y2="233"><stop offset="0" style="stop-color:#FCFCE4"></stop><stop offset="0.5" style="stop-color:#A0C8DD"></stop><stop offset="1" style="stop-color:#5D6EC5"></stop></linearGradient><path style="fill:url(#hair2XMLID_575_);stroke:#1E1E1E;stroke-linecap:round;stroke-linejoin:round;" d="M322.374,166.437c0,0,16.04,19.635,21.027,42.598c1.69,2.603,2.003,4.333,1.115,5.831c2.322,0.854,18.508,24.414,24.233,54.195c1.777,3.134,2.196,4.126,2.506,6.572c0.185,1.474,0.155,3.632-0.764,4.493c1.334,13.738,0.669,26.12-0.71,36.292c0.846,2.8,0.818,4.068,0.533,5.741c-0.318,1.868-0.94,3.978-2.336,4.808c-2.336,11.281-5.08,17.964-5.08,17.964s-1.672-19.37-18.383-28.133c-16.712-8.764-53.895-35.978-48.882-80.716"></path><path style="fill:none;stroke:#1E1E1E;stroke-linecap:round;stroke-linejoin:round;" d="M349.531,220.862c0,0-3.762-11.991-37.186-10.147"></path><path style="fill:none;stroke:#1E1E1E;stroke-linecap:round;stroke-linejoin:round;" d="M344.517,211.983c0,0-3.761-11.991-37.184-10.147"></path><path style="fill:none;stroke:#1E1E1E;stroke-linecap:round;stroke-linejoin:round;" d="M369.168,279.898c0,0-9.193-22.139-61-23.061"></path><path style="fill:none;stroke:#1E1E1E;stroke-linecap:round;stroke-linejoin:round;" d="M368.75,270.213c0,0-12.116-19.372-53.896-13.837"></path><path style="fill:none;stroke:#1E1E1E;stroke-linecap:round;stroke-linejoin:round;" d="M368.121,328.789c0,0-5.013-13.376-27.574-14.299"></path><path style="fill:none;stroke:#1E1E1E;stroke-linecap:round;stroke-linejoin:round;" d="M369.585,316.798c0,0-7.104-9.226-29.664-4.152"></path></g><g><linearGradient id="hair2XMLID_576_" gradientUnits="userSpaceOnUse" x1="143.7168" y1="323.667" x2="143.7168" y2="233"><stop offset="0" style="stop-color:#FCFCE4"></stop><stop offset="0.5" style="stop-color:#A0C8DD"></stop><stop offset="1" style="stop-color:#5D6EC5"></stop></linearGradient><path style="fill:url(#hair2XMLID_576_);stroke:#1E1E1E;stroke-linecap:round;stroke-linejoin:round;" d="M140.685,332.479c0,0-4.178,28.597,11.699,34.13C139.432,367.532,127.734,356.463,140.685,332.479z"></path><linearGradient id="hair2XMLID_577_" gradientUnits="userSpaceOnUse" x1="166.5649" y1="323.667" x2="166.5649" y2="233"><stop offset="0" style="stop-color:#FCFCE4"></stop><stop offset="0.5" style="stop-color:#A0C8DD"></stop><stop offset="1" style="stop-color:#5D6EC5"></stop></linearGradient><path style="fill:url(#hair2XMLID_577_);stroke:#1E1E1E;stroke-linecap:round;stroke-linejoin:round;" d="M178.704,166.437c0,0-17.292,19.635-22.279,42.598c-1.691,2.603-2.004,4.333-1.117,5.831c-2.323,0.854-18.508,24.414-24.232,54.195c-1.779,3.134-2.197,4.126-2.506,6.572c-0.186,1.474-0.156,3.632,0.764,4.493c-1.336,13.738-0.67,26.12,0.711,36.292c-0.848,2.8-0.82,4.068-0.534,5.741c0.318,1.868,0.939,3.978,2.335,4.808c2.336,11.281,5.08,17.964,5.08,17.964s1.672-19.37,18.383-28.133c16.711-8.764,53.895-35.978,48.881-80.716"></path><path style="fill:none;stroke:#1E1E1E;stroke-linecap:round;stroke-linejoin:round;" d="M150.294,220.862c0,0,3.761-11.991,37.184-10.147"></path><path style="fill:none;stroke:#1E1E1E;stroke-linecap:round;stroke-linejoin:round;" d="M155.308,211.983c0,0,3.759-11.991,37.183-10.147"></path><path style="fill:none;stroke:#1E1E1E;stroke-linecap:round;stroke-linejoin:round;" d="M130.658,279.898c0,0,9.192-22.139,60.998-23.061"></path><path style="fill:none;stroke:#1E1E1E;stroke-linecap:round;stroke-linejoin:round;" d="M131.076,270.213c0,0,12.116-19.372,53.895-13.837"></path><path style="fill:none;stroke:#1E1E1E;stroke-linecap:round;stroke-linejoin:round;" d="M131.703,328.789c0,0,5.014-13.376,27.574-14.299"></path><path style="fill:none;stroke:#1E1E1E;stroke-linecap:round;stroke-linejoin:round;" d="M130.241,316.798c0,0,7.102-9.226,29.663-4.152"></path></g></g></g></g></svg>