<svg xmlns="http://www.w3.org/2000/svg" width="500" height="500" version="1.1"><g id="x028"><linearGradient id="hair2XMLID_583_" gradientUnits="userSpaceOnUse" x1="249.9126" y1="281" x2="249.9126" y2="229"><stop offset="0" style="stop-color:#FCFCE4"></stop><stop offset="0.5" style="stop-color:#A0C8DD"></stop><stop offset="1" style="stop-color:#5D6EC5"></stop></linearGradient><path style="fill:url(#hair2XMLID_583_);stroke:#1E1E1E;stroke-width:0.968;stroke-linecap:round;stroke-linejoin:round;" d="M331.359,210.416c-0.021-32.631-9.826-60.608-25.465-76.438c-26.223-26.541-55.122-14.6-55.96-14.539c-0.837-0.061-29.743-12.002-55.963,14.539c-15.639,15.83-25.445,43.807-25.465,76.438c0,0.506,0.028,1.114,0.088,1.802l-0.107-0.075c0,0-1.88,47.973,28.827,68.069c-0.626-6.483,1.253-11.021,1.253-11.021s1.88,11.021,6.267,13.614c8.147,1.296,13.787,1.296,15.667,1.944c-2.506-2.593-0.626-7.132-0.626-7.132l4.386,8.429l20.806,3.034l4.889-8.869c1.904,0.051,4.633,9.793,6.253,9.787c19.163-0.095,19.163-3.952,19.163-3.952l4.387-8.429c0,0,1.88,4.539-0.627,7.132c1.882-0.648,7.521-0.648,15.67-1.944c4.384-2.594,6.264-13.614,6.264-13.614s1.88,4.537,1.253,11.021c29.048-19.01,28.938-61.312,28.839-67.518C331.291,211.802,331.359,211.031,331.359,210.416z"></path></g></svg>