<svg xmlns="http://www.w3.org/2000/svg" width="500" height="500" version="1.1"><g id="x003"><g><linearGradient id="hair2XMLID_482_" gradientUnits="userSpaceOnUse" x1="250.3638" y1="313.667" x2="250.3638" y2="189.6674"><stop offset="0" style="stop-color:#FCFCE4"></stop><stop offset="0.5" style="stop-color:#A0C8DD"></stop><stop offset="1" style="stop-color:#5D6EC5"></stop></linearGradient><path style="fill:url(#hair2XMLID_482_);stroke:#1E1E1E;stroke-linecap:round;stroke-linejoin:round;" d="M319.551,264.797h0.357c0.435-2.313,0.943-4.631,1.493-6.941c0.824-2.74,1.45-4.476,1.45-4.476l-0.331-0.024c5.83-16.12,10.216-25.806,9.608-45.291c-2.193-32.863-1.526-39.264-25.713-66.304c-24.754-27.673-73.006-32.862-110.92-7.263c-18.488,14.182-25.846,39.927-26.948,71.605c-0.186,5.361,3.775,8.956,4.092,14.414c0.934,16.042,3.889,37.122,5.85,44.742l7.102,4.611c0,0-8.252,67.912-2.297,82.442c4.866,11.877,17.904,23.516,33.97,30.205l-0.338-1.492c0,0-22.98-17.99-18.801-57.191c5.016,36.318,55.564,62.378,55.564,62.378s53.06-33.438,53.896-77.602c11.281,36.897,6.269,54.425-6.685,73.795c17.547-9.685,25.116-24.223,27.156-39.665c2.924-22.139-5.516-39.895-9.589-53.04C316.256,282.578,317.735,272.527,319.551,264.797z"></path><linearGradient id="hair2XMLID_483_" gradientUnits="userSpaceOnUse" x1="185.5981" y1="313.667" x2="185.5981" y2="189.6675"><stop offset="0" style="stop-color:#FCFCE4"></stop><stop offset="0.5" style="stop-color:#A0C8DD"></stop><stop offset="1" style="stop-color:#5D6EC5"></stop></linearGradient><path style="fill:url(#hair2XMLID_483_);stroke:#1E1E1E;stroke-linecap:round;stroke-linejoin:round;" d="M193.944,291.433c10.028,17.524,17.13,53.96-16.293,65.952c6.684-17.524,18.387-37.821,1.675-58.575c-16.712-20.755-10.031-52.578-2.511-66.876"></path><linearGradient id="hair2XMLID_484_" gradientUnits="userSpaceOnUse" x1="305.2842" y1="313.667" x2="305.2842" y2="189.6675"><stop offset="0" style="stop-color:#FCFCE4"></stop><stop offset="0.5" style="stop-color:#A0C8DD"></stop><stop offset="1" style="stop-color:#5D6EC5"></stop></linearGradient><path style="fill:url(#hair2XMLID_484_);stroke:#1E1E1E;stroke-linecap:round;stroke-linejoin:round;" d="M299.646,258.687c0,0,5.013,28.135-5.015,45.66s-17.132,53.96,16.294,65.955c-6.685-17.527-11.282-36.898,5.431-57.653c16.712-20.756,2.925-53.501-4.597-67.8"></path><linearGradient id="hair2XMLID_485_" gradientUnits="userSpaceOnUse" x1="177.856" y1="313.667" x2="177.856" y2="189.6672"><stop offset="0" style="stop-color:#FCFCE4"></stop><stop offset="0.5" style="stop-color:#A0C8DD"></stop><stop offset="1" style="stop-color:#5D6EC5"></stop></linearGradient><path style="fill:url(#hair2XMLID_485_);stroke:#1E1E1E;stroke-linecap:round;stroke-linejoin:round;" d="M180.995,212.103c0,0-29.663,78.865,5.432,107.003c-6.268-12.912-22.143-39.203-1.673-90.399"></path><linearGradient id="hair2XMLID_486_" gradientUnits="userSpaceOnUse" x1="323.2441" y1="313.667" x2="323.2441" y2="189.6673"><stop offset="0" style="stop-color:#FCFCE4"></stop><stop offset="0.5" style="stop-color:#A0C8DD"></stop><stop offset="1" style="stop-color:#5D6EC5"></stop></linearGradient><path style="fill:url(#hair2XMLID_486_);stroke:#1E1E1E;stroke-linecap:round;stroke-linejoin:round;" d="M320.104,217.64c0,0,29.663,78.867-5.431,107.002c6.268-12.912,22.14-39.201,1.673-90.397"></path><g><linearGradient id="hair2XMLID_487_" gradientUnits="userSpaceOnUse" x1="185.5444" y1="313.667" x2="185.5444" y2="189.6677"><stop offset="0" style="stop-color:#FCFCE4"></stop><stop offset="0.5" style="stop-color:#A0C8DD"></stop><stop offset="1" style="stop-color:#5D6EC5"></stop></linearGradient><path style="fill:url(#hair2XMLID_487_);stroke:#1E1E1E;stroke-linecap:round;stroke-linejoin:round;" d="M193.634,159.636c0,0-11.594,19.025-16.921,20.409s-4.7-7.61-4.7-7.61s-4.387,7.956-4.701,10.032c-0.313,2.075,0.627,8.647,0.627,8.647l-4.073,7.264c0,0,6.894,18.68,11.28,22.139c4.386,3.459,6.581,4.151,6.581,4.151s16.921,1.73,25.381-14.182C208.674,198.725,193.634,159.636,193.634,159.636z"></path><linearGradient id="hair2XMLID_488_" gradientUnits="userSpaceOnUse" x1="177.6528" y1="313.667" x2="177.6528" y2="189.6675"><stop offset="0" style="stop-color:#FCFCE4"></stop><stop offset="0.5" style="stop-color:#A0C8DD"></stop><stop offset="1" style="stop-color:#5D6EC5"></stop></linearGradient><path style="fill:url(#hair2XMLID_488_);stroke:#1E1E1E;stroke-linecap:round;stroke-linejoin:round;" d="M168.043,188.58c0,0,3.342,8.765,6.685,12.453c3.761-1.842,9.192-5.072,12.534-9.685"></path></g><g><linearGradient id="hair2XMLID_489_" gradientUnits="userSpaceOnUse" x1="314.2178" y1="313.667" x2="314.2178" y2="189.6677"><stop offset="0" style="stop-color:#FCFCE4"></stop><stop offset="0.5" style="stop-color:#A0C8DD"></stop><stop offset="1" style="stop-color:#5D6EC5"></stop></linearGradient><path style="fill:url(#hair2XMLID_489_);stroke:#1E1E1E;stroke-linecap:round;stroke-linejoin:round;" d="M306.128,159.636c0,0,11.594,19.025,16.921,20.409c5.325,1.384,4.699-7.61,4.699-7.61s4.387,7.956,4.7,10.032c0.315,2.075-0.626,8.647-0.626,8.647l4.073,7.264c0,0-6.895,18.68-11.281,22.139c-4.386,3.459-6.58,4.151-6.58,4.151s-16.919,1.73-25.38-14.182C291.088,198.725,306.128,159.636,306.128,159.636z"></path><linearGradient id="hair2XMLID_490_" gradientUnits="userSpaceOnUse" x1="322.1094" y1="313.667" x2="322.1094" y2="189.6675"><stop offset="0" style="stop-color:#FCFCE4"></stop><stop offset="0.5" style="stop-color:#A0C8DD"></stop><stop offset="1" style="stop-color:#5D6EC5"></stop></linearGradient><path style="fill:url(#hair2XMLID_490_);stroke:#1E1E1E;stroke-linecap:round;stroke-linejoin:round;" d="M331.718,188.58c0,0-3.344,8.765-6.684,12.453c-3.761-1.842-9.193-5.072-12.534-9.685"></path></g></g></g></svg>