<svg xmlns="http://www.w3.org/2000/svg" width="500" height="500" version="1.1"><g id="x030"><g><linearGradient id="hair2XMLID_591_" gradientUnits="userSpaceOnUse" x1="249.2144" y1="366.1914" x2="249.2144" y2="289.903"><stop offset="0" style="stop-color:#FCFCE4"></stop><stop offset="0.5" style="stop-color:#A0C8DD"></stop><stop offset="1" style="stop-color:#5D6EC5"></stop></linearGradient><path style="fill:url(#hair2XMLID_591_);stroke:#1E1E1E;stroke-linecap:round;stroke-linejoin:round;" d="M334.508,324.64c-8.896-27.895-14.76-47.523-18.166-59.289c16.53-20.376,15.659-59.015,15.659-59.015c0.06-0.735,1.253-34.823-26.946-67.339c-11.652-13.435-33.261-20.256-55.84-20.399c-22.58,0.143-44.188,6.965-55.84,20.399c-28.2,32.516-27.007,66.604-26.947,67.339c0,0-0.871,38.639,15.66,59.015c-3.407,11.766-9.27,31.395-18.167,59.289c-11.907,65.725,45.121,92.707,54.521,97.55c-13.787-21.447-4.386-47.736-1.88-56.73c-7.124,36.701,27.593,57.257,32.653,59.321c5.059-2.064,39.777-22.62,32.653-59.321c2.507,8.994,11.907,35.283-1.88,56.73C289.388,417.347,346.415,390.364,334.508,324.64z"></path><g><g><linearGradient id="hair2XMLID_592_" gradientUnits="userSpaceOnUse" x1="174.0938" y1="366.333" x2="174.0938" y2="290"><stop offset="0" style="stop-color:#FCFCE4"></stop><stop offset="0.5" style="stop-color:#A0C8DD"></stop><stop offset="1" style="stop-color:#5D6EC5"></stop></linearGradient><path style="fill:url(#hair2XMLID_592_);stroke:#1E1E1E;stroke-linecap:round;stroke-linejoin:round;" d="M168.791,213.253c0,0,8.146,52.58-1.253,74.718c-9.4,22.14-51.388,69.185-3.133,112.079c-14.413-16.604-18.213-37.338-10.653-53.271c6.894-14.529,23.814-15.913,44.495-55.349c20.681-39.435-3.761-65.031-3.761-65.031"></path><linearGradient id="hair2XMLID_593_" gradientUnits="userSpaceOnUse" x1="188.6724" y1="366.333" x2="188.6724" y2="290"><stop offset="0" style="stop-color:#FCFCE4"></stop><stop offset="0.5" style="stop-color:#A0C8DD"></stop><stop offset="1" style="stop-color:#5D6EC5"></stop></linearGradient><path style="fill:url(#hair2XMLID_593_);stroke:#1E1E1E;stroke-linecap:round;stroke-linejoin:round;" d="M191.352,247.847c0,0-8.147,81.638,17.547,103.774c-8.774-7.61-18.801-19.371-18.801-19.371s11.28,30.441-5.64,35.976c3.76-14.527-3.202-21.384-9.4-29.748c-11.28-15.221-6.268-45.661,1.253-68.493"></path><linearGradient id="hair2XMLID_594_" gradientUnits="userSpaceOnUse" x1="324.335" y1="366.333" x2="324.335" y2="290"><stop offset="0" style="stop-color:#FCFCE4"></stop><stop offset="0.5" style="stop-color:#A0C8DD"></stop><stop offset="1" style="stop-color:#5D6EC5"></stop></linearGradient><path style="fill:url(#hair2XMLID_594_);stroke:#1E1E1E;stroke-linecap:round;stroke-linejoin:round;" d="M329.638,213.253c0,0-8.147,52.58,1.253,74.718c9.399,22.14,51.39,69.185,3.134,112.079c14.414-16.604,18.213-37.338,10.653-53.271c-6.895-14.529-23.814-15.913-44.494-55.349c-20.681-39.435,3.759-65.031,3.759-65.031"></path><linearGradient id="hair2XMLID_595_" gradientUnits="userSpaceOnUse" x1="309.7559" y1="366.333" x2="309.7559" y2="290"><stop offset="0" style="stop-color:#FCFCE4"></stop><stop offset="0.5" style="stop-color:#A0C8DD"></stop><stop offset="1" style="stop-color:#5D6EC5"></stop></linearGradient><path style="fill:url(#hair2XMLID_595_);stroke:#1E1E1E;stroke-linecap:round;stroke-linejoin:round;" d="M304.152,250.614c0,0,11.071,78.871-14.622,101.007c8.773-7.61,18.8-19.371,18.8-19.371s-11.281,30.441,5.641,35.976c-3.76-14.527,3.2-21.384,9.398-29.748c11.281-15.221,6.269-45.661-1.252-68.493"></path></g></g></g></g></svg>