<svg xmlns="http://www.w3.org/2000/svg" width="500" height="500" version="1.1"><g id="x031"><g><g><linearGradient id="hair2XMLID_596_" gradientUnits="userSpaceOnUse" x1="161.5513" y1="310.667" x2="161.5513" y2="238.6664"><stop offset="0" style="stop-color:#FCFCE4"></stop><stop offset="0.5" style="stop-color:#A0C8DD"></stop><stop offset="1" style="stop-color:#5D6EC5"></stop></linearGradient><path style="fill:url(#hair2XMLID_596_);stroke:#1E1E1E;stroke-linecap:round;stroke-linejoin:round;" d="M168.444,186.731c0,0-3.133,35.977-18.173,38.051c9.399,0.692,18.8-3.459,22.56-20.063"></path><linearGradient id="hair2XMLID_597_" gradientUnits="userSpaceOnUse" x1="338.2744" y1="310.667" x2="338.2744" y2="238.6664"><stop offset="0" style="stop-color:#FCFCE4"></stop><stop offset="0.5" style="stop-color:#A0C8DD"></stop><stop offset="1" style="stop-color:#5D6EC5"></stop></linearGradient><path style="fill:url(#hair2XMLID_597_);stroke:#1E1E1E;stroke-linecap:round;stroke-linejoin:round;" d="M331.381,186.731c0,0,3.134,35.977,18.174,38.051c-9.4,0.692-18.801-3.459-22.561-20.063"></path></g><g><linearGradient id="hair2XMLID_598_" gradientUnits="userSpaceOnUse" x1="251.4795" y1="310.667" x2="251.4795" y2="238.6665"><stop offset="0" style="stop-color:#FCFCE4"></stop><stop offset="0.5" style="stop-color:#A0C8DD"></stop><stop offset="1" style="stop-color:#5D6EC5"></stop></linearGradient><path style="fill:url(#hair2XMLID_598_);stroke:#1E1E1E;stroke-linecap:round;stroke-linejoin:round;" d="M350.809,291.199c-14.901-6.684-22.189-24.061-24.95-32.549c7.888-24.324,7.828-51.814,7.766-56.11c0-32.207-9.762-58.242-29.398-72.079c-22.048-15.536-91.071-21.479-115.101,6.227c-28.201,32.517-23.874,65.913-23.814,66.647c0,0-0.738,32.977,12.186,54.066c-2.42,7.905-9.671,26.769-25.346,33.798c17.547,1.384,21.934-1.383,31.961-15.912c-2.507,8.993-7.52,23.522-18.174,29.749c10.654-0.692,29.455,2.768,44.495-24.214c-1.88,10.377-5.64,31.132-16.919,38.051c14.414,0.69,28.827-0.691,40.107-27.674c1.254,2.076,2.507,14.528-5.64,26.289c21.308,0.693,23.814-31.823,23.814-31.823c2.505,26.289,11.276,31.823,23.186,31.823c-8.148-11.761-6.894-24.213-5.642-26.289c11.282,26.982,21.308,27.674,40.108,27.674c-11.28-6.919-15.039-27.674-16.921-38.051c15.041,26.981,33.842,23.521,44.495,24.214c-10.653-6.227-15.667-20.756-18.174-29.749C328.876,289.816,333.261,292.583,350.809,291.199z"></path></g><g><linearGradient id="hair2XMLID_599_" gradientUnits="userSpaceOnUse" x1="165.938" y1="310.667" x2="165.938" y2="238.6665"><stop offset="0" style="stop-color:#FCFCE4"></stop><stop offset="0.5" style="stop-color:#A0C8DD"></stop><stop offset="1" style="stop-color:#5D6EC5"></stop></linearGradient><path style="fill:url(#hair2XMLID_599_);stroke:#1E1E1E;stroke-linecap:round;stroke-linejoin:round;" d="M171.501,205.41c0,0,9.102,60.852-32.871,69.785c28.921,10.47,45.216,4.242,54.617-33.496"></path><linearGradient id="hair2XMLID_600_" gradientUnits="userSpaceOnUse" x1="333.8867" y1="310.667" x2="333.8867" y2="238.6665"><stop offset="0" style="stop-color:#FCFCE4"></stop><stop offset="0.5" style="stop-color:#A0C8DD"></stop><stop offset="1" style="stop-color:#5D6EC5"></stop></linearGradient><path style="fill:url(#hair2XMLID_600_);stroke:#1E1E1E;stroke-linecap:round;stroke-linejoin:round;" d="M328.323,205.41c0,0-9.101,60.852,32.871,69.785c-28.923,10.47-45.215,4.242-54.615-33.496"></path></g></g></g></svg>