<svg xmlns="http://www.w3.org/2000/svg" width="500" height="500" version="1.1"><g id="x032"><g><linearGradient id="hair2XMLID_601_" gradientUnits="userSpaceOnUse" x1="249.9126" y1="291.667" x2="249.9126" y2="226.0001"><stop offset="0" style="stop-color:#FCFCE4"></stop><stop offset="0.5" style="stop-color:#A0C8DD"></stop><stop offset="1" style="stop-color:#5D6EC5"></stop></linearGradient><path style="fill:url(#hair2XMLID_601_);stroke:#1E1E1E;stroke-linecap:round;stroke-linejoin:round;" d="M311.42,138.454c-24.574-28.327-97.792-28.474-121.821-0.768c-28.201,32.517-24.502,94.435-12.891,115.537h10.396c1.462,17.742,8.014,26.678,11.895,29.058c-0.564-3.115-2.144-14.658,1.215-29.058c0,0,4.485,25.969,1.919,33.9c5.641-3.458,6.894-16.604,8.773-26.29c-1.253,16.604,11.28,38.052,15.667,43.587c-3.133-7.61,0.627-26.291,0.627-31.825c2.507,4.151,6.266,22.831,5.639,27.674c3.134-4.843,3.76-15.913,3.76-23.522c1.596,11.741,12.243,24.504,15.839,26.55c3.733-2.171,14.242-14.809,15.836-26.55c0,7.609,0.627,18.68,3.761,23.522c-0.626-4.843,3.134-23.522,5.64-27.674c0,5.534,3.761,24.215,0.628,31.825c4.387-5.535,16.921-26.982,15.666-43.587c1.88,9.687,3.135,22.832,8.775,26.29c-2.567-7.932,1.918-33.9,1.918-33.9c3.359,14.399,1.779,25.942,1.215,29.058c3.881-2.38,10.432-11.315,11.895-29.058h7.746C332.349,229.808,339.83,171.201,311.42,138.454z"></path><linearGradient id="hair2XMLID_602_" gradientUnits="userSpaceOnUse" x1="183.4644" y1="291.667" x2="183.4644" y2="226"><stop offset="0" style="stop-color:#FCFCE4"></stop><stop offset="0.5" style="stop-color:#A0C8DD"></stop><stop offset="1" style="stop-color:#5D6EC5"></stop></linearGradient><path style="fill:url(#hair2XMLID_602_);stroke:#1E1E1E;stroke-linecap:round;stroke-linejoin:round;" d="M175.033,210.77c0,0-7.328,52.069,17.854,75.371c-2.417-16.904-3.34-52.418-0.914-59.127"></path><linearGradient id="hair2XMLID_603_" gradientUnits="userSpaceOnUse" x1="318.8809" y1="291.667" x2="318.8809" y2="226"><stop offset="0" style="stop-color:#FCFCE4"></stop><stop offset="0.5" style="stop-color:#A0C8DD"></stop><stop offset="1" style="stop-color:#5D6EC5"></stop></linearGradient><path style="fill:url(#hair2XMLID_603_);stroke:#1E1E1E;stroke-linecap:round;stroke-linejoin:round;" d="M328.111,241.462c0,0-10.652,31.825,0,44.969c-11.905-4.841-20.072-24.905-18.192-46.353"></path></g></g></svg>