<svg xmlns="http://www.w3.org/2000/svg" width="500" height="500" version="1.1"><g id="x033"><g><linearGradient id="hair2XMLID_604_" gradientUnits="userSpaceOnUse" x1="249.9126" y1="296.333" x2="249.9126" y2="216.3336"><stop offset="0" style="stop-color:#FCFCE4"></stop><stop offset="0.5" style="stop-color:#A0C8DD"></stop><stop offset="1" style="stop-color:#5D6EC5"></stop></linearGradient><path style="fill:url(#hair2XMLID_604_);stroke:#1E1E1E;stroke-linecap:round;stroke-linejoin:round;" d="M335.271,203.335c0.048-0.574-1.513-28.479-8.563-45.199c-18.967-44.981-62.943-41.417-76.793-39.116c-13.851-2.301-57.828-5.865-76.795,39.116c-7.051,16.721-8.61,44.625-8.564,45.199c0,0-0.688,30.785,10.924,51.887h10.396c1.462,17.742,8.014,26.678,11.895,29.058c-0.564-3.115-2.144-14.658,1.214-29.058c0,0,4.484,25.969,1.919,33.9c5.64-3.458,6.894-16.604,8.773-26.29c-1.253,16.604,11.28,38.052,15.667,43.587c-3.133-7.61,0.626-26.291,0.626-31.825c2.507,4.151,6.267,22.831,5.641,27.674c3.132-4.843,3.759-15.913,3.759-23.522c1.255,9.233,10.607,20.433,14.544,24.529c3.935-4.097,13.287-15.296,14.542-24.529c0,7.609,0.626,18.68,3.761,23.522c-0.627-4.843,3.133-23.522,5.639-27.674c0,5.534,3.76,24.215,0.627,31.825c4.388-5.535,16.921-26.982,15.667-43.587c1.881,9.687,3.133,22.832,8.774,26.29c-2.568-7.932,1.918-33.9,1.918-33.9c3.359,14.399,1.78,25.942,1.215,29.058c3.881-2.38,10.434-11.315,11.896-29.058h10.396C335.959,234.121,335.271,203.335,335.271,203.335z"></path><g><linearGradient id="hair2XMLID_605_" gradientUnits="userSpaceOnUse" x1="185.6792" y1="296.333" x2="185.6792" y2="216.3335"><stop offset="0" style="stop-color:#FCFCE4"></stop><stop offset="0.5" style="stop-color:#A0C8DD"></stop><stop offset="1" style="stop-color:#5D6EC5"></stop></linearGradient><path style="fill:url(#hair2XMLID_605_);stroke:#1E1E1E;stroke-linecap:round;stroke-linejoin:round;" d="M170.792,185.347c0,0-2.037,29.783,4.386,62.267c2.507,22.83,12.535,38.742,25.695,50.503c-2.418-16.905-7.441-65.934-5.014-72.643"></path><linearGradient id="hair2XMLID_606_" gradientUnits="userSpaceOnUse" x1="315.2402" y1="296.333" x2="315.2402" y2="216.3335"><stop offset="0" style="stop-color:#FCFCE4"></stop><stop offset="0.5" style="stop-color:#A0C8DD"></stop><stop offset="1" style="stop-color:#5D6EC5"></stop></linearGradient><path style="fill:url(#hair2XMLID_606_);stroke:#1E1E1E;stroke-linecap:round;stroke-linejoin:round;" d="M329.034,185.347c0,0,2.038,29.783-4.388,62.267c-2.505,31.132-10.973,40.817-23.506,54.655c2.418-16.905,5.252-70.085,2.826-76.794"></path></g></g></g></svg>