<svg xmlns="http://www.w3.org/2000/svg" width="500" height="500" version="1.1"><g id="x034"><g><g><linearGradient id="hair2XMLID_607_" gradientUnits="userSpaceOnUse" x1="249.9126" y1="295.667" x2="249.9126" y2="224.3336"><stop offset="0" style="stop-color:#FCFCE4"></stop><stop offset="0.5" style="stop-color:#A0C8DD"></stop><stop offset="1" style="stop-color:#5D6EC5"></stop></linearGradient><path style="fill:url(#hair2XMLID_607_);stroke:#1E1E1E;stroke-linecap:round;stroke-linejoin:round;" d="M288.967,124.466c-14.473-7.409-36.942-4.885-37.456-4.843c-0.511-0.042-18.212-3.966-35.132,3.329c-53.998,13.967-46.104,86.268-46.059,86.84c0,0-0.722,24.328,10.292,45.43c0,0,17.466,26.678,21.149,29.058c-0.536-3.115-2.034-14.658,1.152-29.058c0,0,4.255,25.969,1.82,33.9c5.351-3.458,6.541-16.604,8.324-26.29c-1.189,16.604,10.703,38.052,14.865,43.587c-2.974-7.61,0.594-26.291,0.594-31.825c2.378,4.151,5.946,22.831,5.351,27.674c2.973-4.843,3.567-15.913,3.567-23.522c1.514,11.741,15.025,26.55,15.025,26.55s13.512-14.809,15.026-26.55c0,7.609,0.594,18.68,3.566,23.522c-0.593-4.843,2.973-23.522,5.352-27.674c0,5.534,3.566,24.215,0.596,31.825c4.161-5.535,16.053-26.982,14.863-43.587c1.783,9.687,2.973,22.832,8.323,26.29c-2.436-7.932,29.746-36.643,29.746-86.583C329.933,162.748,317.797,139.225,288.967,124.466z"></path></g></g></g></svg>