<svg xmlns="http://www.w3.org/2000/svg" width="500" height="500" version="1.1"><g id="x037"><g><linearGradient id="hair2XMLID_616_" gradientUnits="userSpaceOnUse" x1="249.9126" y1="291.5" x2="249.9126" y2="239"><stop offset="0" style="stop-color:#FCFCE4"></stop><stop offset="0.5" style="stop-color:#A0C8DD"></stop><stop offset="1" style="stop-color:#5D6EC5"></stop></linearGradient><path style="fill:url(#hair2XMLID_616_);stroke:#1E1E1E;stroke-linecap:round;stroke-linejoin:round;" d="M300.729,128.617c-8.327-8.014-29.358-12.098-50.817-11.995c-21.459-0.103-42.49,3.98-50.817,11.995c-16.295,15.681-22.739,31.375-20.72,67.025c2.175,18.402,6.391,38.621,6.391,38.621c-1.151,43.713,18.07,53.899,36.14,61.538c-4.613-7.214-6.153-30.98-5-39.469c1.539,19.098,7.691,34.801,18.455,40.318c-3.961-7.95-4.549-25.574-4.607-34.056c0.043,0.055,0.084,0.107,0.131,0.161c2.345,27.159,15.758,35.286,20.028,37.202c4.271-1.916,17.684-10.043,20.028-37.202c0.047-0.054,0.088-0.106,0.131-0.161c-0.058,8.481-0.646,26.105-4.607,34.056c10.765-5.518,16.916-21.221,18.455-40.318c1.153,8.488-0.387,32.255-5,39.469c18.07-7.639,37.291-17.824,36.14-61.538c0,0,4.216-20.219,6.392-38.621C323.469,159.992,317.025,144.298,300.729,128.617z"></path><g><g><linearGradient id="hair2XMLID_617_" gradientUnits="userSpaceOnUse" x1="328.4229" y1="291.5" x2="328.4229" y2="239"><stop offset="0" style="stop-color:#FCFCE4"></stop><stop offset="0.5" style="stop-color:#A0C8DD"></stop><stop offset="1" style="stop-color:#5D6EC5"></stop></linearGradient><path style="fill:url(#hair2XMLID_617_);stroke:#1E1E1E;stroke-linecap:round;stroke-linejoin:round;" d="M315.009,147.672c0,0,18.935,33.958,24.123,56.458c6.5,28.208,0.672,42.384,0.672,42.384s-1.858-28.492-6.055-43.657C329.52,187.579,314.64,153.6,314.64,153.6"></path><linearGradient id="hair2XMLID_618_" gradientUnits="userSpaceOnUse" x1="324.3418" y1="291.5" x2="324.3418" y2="239"><stop offset="0" style="stop-color:#FCFCE4"></stop><stop offset="0.5" style="stop-color:#A0C8DD"></stop><stop offset="1" style="stop-color:#5D6EC5"></stop></linearGradient><path style="fill:url(#hair2XMLID_618_);stroke:#1E1E1E;stroke-linecap:round;stroke-linejoin:round;" d="M332.865,233.413c0,0,10.378,55.598-18.837,54.324c9.224-6.79,8.071-25.039,5.766-51.353l8.231-23.051"></path><g><linearGradient id="hair2XMLID_619_" gradientUnits="userSpaceOnUse" x1="306.5488" y1="291.5" x2="306.5488" y2="239.0001"><stop offset="0" style="stop-color:#FCFCE4"></stop><stop offset="0.5" style="stop-color:#A0C8DD"></stop><stop offset="1" style="stop-color:#5D6EC5"></stop></linearGradient><path style="fill:url(#hair2XMLID_619_);stroke:#1E1E1E;stroke-linecap:round;stroke-linejoin:round;" d="M306.723,246.571c0,0,1.54,25.464-8.841,35.649c-4.998,4.67,11.532,4.244,11.532,4.244s10.381-13.58,5.383-49.655"></path><linearGradient id="hair2XMLID_620_" gradientUnits="userSpaceOnUse" x1="301.8633" y1="291.5" x2="301.8633" y2="239"><stop offset="0" style="stop-color:#FCFCE4"></stop><stop offset="0.5" style="stop-color:#A0C8DD"></stop><stop offset="1" style="stop-color:#5D6EC5"></stop></linearGradient><path style="fill:url(#hair2XMLID_620_);stroke:#1E1E1E;stroke-linecap:round;stroke-linejoin:round;" d="M308.263,271.187c0,0-8.458,14.429-15.763,2.545c-1.538,9.337,13.453,27.587,18.836,8.914"></path><linearGradient id="hair2XMLID_621_" gradientUnits="userSpaceOnUse" x1="301.7441" y1="291.5" x2="301.7441" y2="239"><stop offset="0" style="stop-color:#FCFCE4"></stop><stop offset="0.5" style="stop-color:#A0C8DD"></stop><stop offset="1" style="stop-color:#5D6EC5"></stop></linearGradient><path style="fill:url(#hair2XMLID_621_);stroke:#1E1E1E;stroke-linecap:round;stroke-linejoin:round;" d="M306.104,238.93c0,0-6.683,24.192-13.989,12.308c-1.536,9.337,13.22,25.04,19.372,4.244"></path></g><linearGradient id="hair2XMLID_622_" gradientUnits="userSpaceOnUse" x1="333.4551" y1="291.5" x2="333.4551" y2="239"><stop offset="0" style="stop-color:#FCFCE4"></stop><stop offset="0.5" style="stop-color:#A0C8DD"></stop><stop offset="1" style="stop-color:#5D6EC5"></stop></linearGradient><path style="fill:url(#hair2XMLID_622_);stroke:#1E1E1E;stroke-linecap:round;stroke-linejoin:round;" d="M319.755,159.98c0,0,4.38,9.45,10.418,36.936c19.224,43.713,24.604,71.725,3.075,91.247c4.231-19.099-0.766-54.324-7.303-69.178"></path><linearGradient id="hair2XMLID_623_" gradientUnits="userSpaceOnUse" x1="318.7607" y1="291.5" x2="318.7607" y2="238.9999"><stop offset="0" style="stop-color:#FCFCE4"></stop><stop offset="0.5" style="stop-color:#A0C8DD"></stop><stop offset="1" style="stop-color:#5D6EC5"></stop></linearGradient><path style="fill:url(#hair2XMLID_623_);stroke:#1E1E1E;stroke-linecap:round;stroke-linejoin:round;" d="M313.116,214.316c1.921,11.458,4.227,49.654,2.305,53.474c32.678-49.373-4.57-127.29-6.688-130.409"></path></g><g><linearGradient id="hair2XMLID_624_" gradientUnits="userSpaceOnUse" x1="171.4019" y1="291.5" x2="171.4019" y2="239"><stop offset="0" style="stop-color:#FCFCE4"></stop><stop offset="0.5" style="stop-color:#A0C8DD"></stop><stop offset="1" style="stop-color:#5D6EC5"></stop></linearGradient><path style="fill:url(#hair2XMLID_624_);stroke:#1E1E1E;stroke-linecap:round;stroke-linejoin:round;" d="M184.815,147.672c0,0-18.934,33.958-24.123,56.458c-6.5,28.208-0.671,42.384-0.671,42.384s1.857-28.492,6.054-43.657c4.229-15.278,19.109-49.258,19.109-49.258"></path><linearGradient id="hair2XMLID_625_" gradientUnits="userSpaceOnUse" x1="175.4824" y1="291.5" x2="175.4824" y2="239"><stop offset="0" style="stop-color:#FCFCE4"></stop><stop offset="0.5" style="stop-color:#A0C8DD"></stop><stop offset="1" style="stop-color:#5D6EC5"></stop></linearGradient><path style="fill:url(#hair2XMLID_625_);stroke:#1E1E1E;stroke-linecap:round;stroke-linejoin:round;" d="M166.959,233.413c0,0-10.378,55.598,18.837,54.324c-9.224-6.79-8.072-25.039-5.766-51.353l-8.231-23.051"></path><g><linearGradient id="hair2XMLID_626_" gradientUnits="userSpaceOnUse" x1="193.2759" y1="291.5" x2="193.2759" y2="239.0001"><stop offset="0" style="stop-color:#FCFCE4"></stop><stop offset="0.5" style="stop-color:#A0C8DD"></stop><stop offset="1" style="stop-color:#5D6EC5"></stop></linearGradient><path style="fill:url(#hair2XMLID_626_);stroke:#1E1E1E;stroke-linecap:round;stroke-linejoin:round;" d="M193.102,246.571c0,0-1.54,25.464,8.841,35.649c4.998,4.67-11.533,4.244-11.533,4.244s-10.38-13.58-5.383-49.655"></path><linearGradient id="hair2XMLID_627_" gradientUnits="userSpaceOnUse" x1="197.9614" y1="291.5" x2="197.9614" y2="239"><stop offset="0" style="stop-color:#FCFCE4"></stop><stop offset="0.5" style="stop-color:#A0C8DD"></stop><stop offset="1" style="stop-color:#5D6EC5"></stop></linearGradient><path style="fill:url(#hair2XMLID_627_);stroke:#1E1E1E;stroke-linecap:round;stroke-linejoin:round;" d="M191.562,271.187c0,0,8.459,14.429,15.763,2.545c1.538,9.337-13.454,27.587-18.836,8.914"></path><linearGradient id="hair2XMLID_628_" gradientUnits="userSpaceOnUse" x1="198.0796" y1="291.5" x2="198.0796" y2="239"><stop offset="0" style="stop-color:#FCFCE4"></stop><stop offset="0.5" style="stop-color:#A0C8DD"></stop><stop offset="1" style="stop-color:#5D6EC5"></stop></linearGradient><path style="fill:url(#hair2XMLID_628_);stroke:#1E1E1E;stroke-linecap:round;stroke-linejoin:round;" d="M193.721,238.93c0,0,6.683,24.192,13.989,12.308c1.536,9.337-13.22,25.04-19.372,4.244"></path></g><linearGradient id="hair2XMLID_629_" gradientUnits="userSpaceOnUse" x1="166.3696" y1="291.5" x2="166.3696" y2="239"><stop offset="0" style="stop-color:#FCFCE4"></stop><stop offset="0.5" style="stop-color:#A0C8DD"></stop><stop offset="1" style="stop-color:#5D6EC5"></stop></linearGradient><path style="fill:url(#hair2XMLID_629_);stroke:#1E1E1E;stroke-linecap:round;stroke-linejoin:round;" d="M180.07,159.98c0,0-4.38,9.45-10.418,36.936c-19.223,43.713-24.604,71.725-3.075,91.247c-4.231-19.099,0.765-54.324,7.302-69.178"></path><linearGradient id="hair2XMLID_630_" gradientUnits="userSpaceOnUse" x1="181.064" y1="291.5" x2="181.064" y2="238.9999"><stop offset="0" style="stop-color:#FCFCE4"></stop><stop offset="0.5" style="stop-color:#A0C8DD"></stop><stop offset="1" style="stop-color:#5D6EC5"></stop></linearGradient><path style="fill:url(#hair2XMLID_630_);stroke:#1E1E1E;stroke-linecap:round;stroke-linejoin:round;" d="M186.709,214.316c-1.922,11.458-4.227,49.654-2.305,53.474c-32.678-49.373,4.57-127.29,6.687-130.409"></path></g></g></g></g></svg>