<svg xmlns="http://www.w3.org/2000/svg" width="500" height="500" version="1.1"><g id="x038"><g><g><linearGradient id="hair2XMLID_631_" gradientUnits="userSpaceOnUse" x1="250.0005" y1="417.001" x2="250.0005" y2="221.0009"><stop offset="0" style="stop-color:#FCFCE4"></stop><stop offset="0.5" style="stop-color:#A0C8DD"></stop><stop offset="1" style="stop-color:#5D6EC5"></stop></linearGradient><path style="fill:url(#hair2XMLID_631_);stroke:#1E1E1E;stroke-linecap:round;stroke-linejoin:round;" d="M250.001,118.531c-51.052-4.436-96.591,35.347-76.751,96.903c17.468,54.197,64.453,56.311,76.751,55.902c12.296,0.408,59.28-1.705,76.748-55.902C346.591,153.878,301.055,114.096,250.001,118.531z"></path><linearGradient id="hair2XMLID_632_" gradientUnits="userSpaceOnUse" x1="206.311" y1="417.001" x2="206.311" y2="221.0003"><stop offset="0" style="stop-color:#FCFCE4"></stop><stop offset="0.5" style="stop-color:#A0C8DD"></stop><stop offset="1" style="stop-color:#5D6EC5"></stop></linearGradient><path style="fill:url(#hair2XMLID_632_);stroke:#1E1E1E;stroke-linecap:round;stroke-linejoin:round;" d="M189.827,238.619c0,0-0.681,34.247,9.857,47.736c-1.019-11.761,2.721-24.213,2.721-24.213s6.8,25.598,14.619,34.245c1.359-9.687,5.78-36.321,5.78-36.321"></path><linearGradient id="hair2XMLID_633_" gradientUnits="userSpaceOnUse" x1="286.8906" y1="417.001" x2="286.8906" y2="221.0003"><stop offset="0" style="stop-color:#FCFCE4"></stop><stop offset="0.5" style="stop-color:#A0C8DD"></stop><stop offset="1" style="stop-color:#5D6EC5"></stop></linearGradient><path style="fill:url(#hair2XMLID_633_);stroke:#1E1E1E;stroke-linecap:round;stroke-linejoin:round;" d="M303.375,238.619c0,0,0.679,34.247-9.859,47.736c1.018-11.761-2.721-24.213-2.721-24.213s-6.8,25.598-14.62,34.245c-1.356-9.687-5.777-36.321-5.777-36.321"></path></g></g></g></svg>