<svg xmlns="http://www.w3.org/2000/svg" width="500" height="500" version="1.1"><g id="x004"><linearGradient id="hair2XMLID_491_" gradientUnits="userSpaceOnUse" x1="249.8804" y1="279.667" x2="249.8804" y2="241.6675"><stop offset="0" style="stop-color:#FCFCE4"></stop><stop offset="0.5" style="stop-color:#A0C8DD"></stop><stop offset="1" style="stop-color:#5D6EC5"></stop></linearGradient><path style="fill:url(#hair2XMLID_491_);stroke:#1E1E1E;stroke-linecap:round;stroke-linejoin:round;" d="M250.013,117.969c-59.252-3.114-97.967,54.312-75.238,137.333c-0.339-7.391-1.816-30.287-1.177-38.744c2.352,45.2,10.794,52.23,28.608,69.184c-1.336-5.394-2.417-11.669-3.287-18.068c2.32,8.39,6.025,16.208,11.908,21.294c-0.631-5.753-0.879-11.638-0.952-16.637c3.982,1.854,7.533,3.696,9.573,5.108h61.129c2.039-1.412,5.589-3.255,9.57-5.108c-0.072,4.999-0.32,10.884-0.952,16.637c5.885-5.086,9.59-12.904,11.909-21.294c-0.869,6.399-1.95,12.675-3.285,18.068c17.813-16.954,26.257-23.984,28.605-69.184c0.641,8.457-0.838,31.353-1.175,38.744C347.978,172.281,306.382,115.547,250.013,117.969z"></path></g></svg>