<svg xmlns="http://www.w3.org/2000/svg" width="500" height="500" version="1.1"><g id="x046"><g><linearGradient id="hair2XMLID_673_" gradientUnits="userSpaceOnUse" x1="165.1572" y1="275" x2="165.1572" y2="218.5"><stop offset="0" style="stop-color:#FCFCE4"></stop><stop offset="0.5" style="stop-color:#A0C8DD"></stop><stop offset="1" style="stop-color:#5D6EC5"></stop></linearGradient><path style="fill:url(#hair2XMLID_673_);stroke:#1E1E1E;stroke-linecap:round;stroke-linejoin:round;" d="M173.187,157.561c0,0-23.124,53.271-18.829,72.988c4.294,19.718,22.131,33.208,22.131,33.208s-16.516-27.654-16.516-40.473c0-21.447,12.883-48.429,12.883-48.429"></path><linearGradient id="hair2XMLID_674_" gradientUnits="userSpaceOnUse" x1="248.7271" y1="275" x2="248.7271" y2="218.5"><stop offset="0" style="stop-color:#FCFCE4"></stop><stop offset="0.5" style="stop-color:#A0C8DD"></stop><stop offset="1" style="stop-color:#5D6EC5"></stop></linearGradient><path style="fill:url(#hair2XMLID_674_);stroke:#1E1E1E;stroke-linecap:round;stroke-linejoin:round;" d="M329.104,162.98c-4.716-16.052-17.104-25.116-24.666-30.902c-22.903-17.526-90.29-22.139-119.8,7.841c-12.345,12.542-20.854,39.057-21.582,44.739c-4.876,28.923-5.366,77.512,15.085,97.434c-2.311-7.957-1.652-22.139-1.652-22.139s-0.991,23.522,18.169,28.712c-2.974-6.919-2.643-18.335-2.643-18.335s5.947,15.221,13.544,17.296c11.232,2.769,22.132-0.69,22.793,0c0.382,0.401-1.591-4.43-3.333-8.731c2.478,4.528,6.889,9.535,14.563,11.5c-1.631-3.633-2.885-10.43-3.606-15.098c0.87,0.112,11.774,15.394,12.855,19.249c5.942-2.483,10.725-6.296,14.942-18.809c-0.064,5.712-0.476,10.763-0.62,13.414c1.862-0.526,5.471-1.454,9.855-5.779c-1.036,2.565-1.788,4.516-1.537,4.254c0.66-0.69,11.562,2.769,22.792,0c7.599-2.075,13.544-17.296,13.544-17.296s0.331,11.416-2.643,18.335c19.159-5.189,18.169-28.712,18.169-28.712s0.66,14.182-1.651,22.139C341.676,262.619,340.3,201.098,329.104,162.98z"></path><linearGradient id="hair2XMLID_675_" gradientUnits="userSpaceOnUse" x1="189.0425" y1="275" x2="189.0425" y2="218.4999"><stop offset="0" style="stop-color:#FCFCE4"></stop><stop offset="0.5" style="stop-color:#A0C8DD"></stop><stop offset="1" style="stop-color:#5D6EC5"></stop></linearGradient><path style="fill:url(#hair2XMLID_675_);stroke:#1E1E1E;stroke-linecap:round;stroke-linejoin:round;" d="M182.105,241.965c0,0,2.974,29.404,24.115,31.478c-17.178,6.573-30.391-6.571-34.355-20.408"></path><linearGradient id="hair2XMLID_676_" gradientUnits="userSpaceOnUse" x1="334.668" y1="275" x2="334.668" y2="218.5"><stop offset="0" style="stop-color:#FCFCE4"></stop><stop offset="0.5" style="stop-color:#A0C8DD"></stop><stop offset="1" style="stop-color:#5D6EC5"></stop></linearGradient><path style="fill:url(#hair2XMLID_676_);stroke:#1E1E1E;stroke-linecap:round;stroke-linejoin:round;" d="M326.638,157.561c0,0,23.124,53.271,18.831,72.988c-4.297,19.718-22.134,33.208-22.134,33.208s16.518-27.654,16.518-40.473c0-21.447-12.884-48.429-12.884-48.429"></path><linearGradient id="hair2XMLID_677_" gradientUnits="userSpaceOnUse" x1="310.7832" y1="275" x2="310.7832" y2="218.4999"><stop offset="0" style="stop-color:#FCFCE4"></stop><stop offset="0.5" style="stop-color:#A0C8DD"></stop><stop offset="1" style="stop-color:#5D6EC5"></stop></linearGradient><path style="fill:url(#hair2XMLID_677_);stroke:#1E1E1E;stroke-linecap:round;stroke-linejoin:round;" d="M317.72,241.965c0,0-2.975,29.404-24.114,31.478c17.177,6.573,30.391-6.571,34.354-20.408"></path></g></g></svg>