<svg xmlns="http://www.w3.org/2000/svg" width="500" height="500" version="1.1"><g id="x047"><linearGradient id="hair2XMLID_678_" gradientUnits="userSpaceOnUse" x1="249.9126" y1="282.334" x2="249.9126" y2="237.3335"><stop offset="0" style="stop-color:#FCFCE4"></stop><stop offset="0.5" style="stop-color:#A0C8DD"></stop><stop offset="1" style="stop-color:#5D6EC5"></stop></linearGradient><path style="fill:url(#hair2XMLID_678_);stroke:#1E1E1E;stroke-linecap:round;stroke-linejoin:round;" d="M351.347,252.433c10.055-11.968,6.955-31.156,4.934-32.644c-0.903-0.665-4.035-4.871-7.668-9.971c-0.196-1.002-0.431-1.779-0.688-2.254c-19.218-27.673-28.41-57.653-28.41-57.653s-13.136-32.244-69.602-32.244c-56.466,0-69.602,32.244-69.602,32.244s-9.192,29.98-28.41,57.653c-0.258,0.475-0.493,1.252-0.688,2.254c-3.633,5.101-6.765,9.306-7.668,9.971c-2.021,1.488-5.121,20.676,4.934,32.644c-4.304,3.771-10.055,6.129-16.214,4.482c2.985,5.78,13.562,9.466,22.697,4.289c-3.191,17.434,2.167,35.183,27.856,33.764c-15.06-5.079-19.125-16.517-17.489-28.063c1.95,2.729,5.124,4.89,10.272,5.158c1.872,4.313,4.199,8.062,7.089,11.028c-0.891-3.23-1.316-7.486-1.508-11.403c0.393-0.065,7.191,15.126,17.174,17.977c-2.818-6.919-2.505-18.335-2.505-18.335s5.64,15.221,12.847,17.296c10.654,2.769,20.993-0.69,21.619,0c0.238,0.262-0.477-1.688-1.457-4.254c4.157,4.325,8.581,5.197,9.348,5.779c-0.231-1.321-0.528-7.702-0.588-13.414c0.361,0.047,6.227,11.503,12.294,17.236c6.068-5.733,11.934-17.189,12.295-17.236c-0.061,5.712-0.357,12.093-0.589,13.414c0.768-0.582,5.191-1.454,9.348-5.779c-0.98,2.565-1.695,4.516-1.457,4.254c0.627-0.69,10.966,2.769,21.619,0c7.207-2.075,12.848-17.296,12.848-17.296s0.313,11.416-2.505,18.335c9.981-2.851,16.781-18.042,17.173-17.977c-0.19,3.917-0.617,8.173-1.508,11.403c2.89-2.967,5.217-6.716,7.089-11.028c5.148-0.269,8.322-2.43,10.272-5.158c1.635,11.546-2.429,22.983-17.489,28.063c25.689,1.419,31.048-16.33,27.856-33.764c9.135,5.177,19.712,1.491,22.696-4.289C361.401,258.562,355.651,256.203,351.347,252.433z M348.064,248.958c-2.269-2.91-3.761-6.124-4.166-8.875c2.759-4.778,4.228-10.703,4.87-16.214c1.327,1.29,2.08,1.917,2.08,1.917C351.5,229.028,353.429,237.339,348.064,248.958z M148.976,225.785c0,0,0.754-0.626,2.081-1.917c0.643,5.511,2.111,11.437,4.87,16.214c-0.405,2.751-1.898,5.965-4.167,8.875C146.396,237.339,148.324,229.028,148.976,225.785z"></path></g></svg>