<svg xmlns="http://www.w3.org/2000/svg" width="500" height="500" version="1.1"><g id="x049"><g><linearGradient id="hair2XMLID_682_" gradientUnits="userSpaceOnUse" x1="248.8862" y1="409.002" x2="248.8862" y2="296.9797"><stop offset="0" style="stop-color:#FCFCE4"></stop><stop offset="0.5" style="stop-color:#A0C8DD"></stop><stop offset="1" style="stop-color:#5D6EC5"></stop></linearGradient><path style="fill:url(#hair2XMLID_682_);stroke:#1E1E1E;stroke-linecap:round;stroke-linejoin:round;" d="M334,181c-0.917-44.033-41.09-66.133-84.052-62.469c-52.006-4.436-98.396,35.347-78.185,96.903C157,249,150.88,279.938,146.33,299.029c-4.451,18.679,16.623,77.828,16.623,77.828s30.129,17.642,63.375,22.83c9.721-0.607,25.497-6.88,56.953-33.569c15.236-3.033,57.127-17.451,67.07-46.784C354.261,291.994,352.5,237.5,334,181z M165.61,358.75c-4.801-13-11.087-58.501-8.61-66.75c2.333-7.768,18.937-53.806,30.5-69.5c-4.213,14.537-12.5,50-17.274,69.267C166.639,306.238,165.288,338.753,165.61,358.75z M295.3,355.604c16.799-15.188,36.743-29.039,39.2-37.104c5.09-16.698-2.21-94.006-4.5-124.5c0.272-0.771,15,18.5,12.126,121.129C341.561,335.312,304.331,351.989,295.3,355.604z"></path><linearGradient id="hair2XMLID_683_" gradientUnits="userSpaceOnUse" x1="147.6948" y1="409" x2="147.6948" y2="296.9999"><stop offset="0" style="stop-color:#FCFCE4"></stop><stop offset="0.5" style="stop-color:#A0C8DD"></stop><stop offset="1" style="stop-color:#5D6EC5"></stop></linearGradient><path style="fill:url(#hair2XMLID_683_);stroke:#1E1E1E;stroke-linecap:round;stroke-linejoin:round;" d="M156.385,378.828c0,0-29.864,1.432-33.002,32.033c6.222-17.736,16.638-19.736,16.638-19.736S116.376,403.898,125.747,437c14.429-13.81,28.615-4.796,39.478-19.75c10.863-14.954,5.417-26.29,5.417-26.29S161.949,379.404,156.385,378.828z"></path><path style="fill:#666666;stroke:#1E1E1E;stroke-linecap:round;stroke-linejoin:round;" d="M160.724,368.875c0,0,11.59,11.398,23.018,17.625c-3.086,2.75-10.114,7.511-12.473,6.375c-14.917-6.625-15.045-12.25-15.045-12.25S157.252,372.875,160.724,368.875z"></path></g></g></svg>