<svg xmlns="http://www.w3.org/2000/svg" width="500" height="500" version="1.1"><g id="x005"><linearGradient id="hair2XMLID_492_" gradientUnits="userSpaceOnUse" x1="249.8813" y1="282.334" x2="249.8813" y2="241.6675"><stop offset="0" style="stop-color:#FCFCE4"></stop><stop offset="0.5" style="stop-color:#A0C8DD"></stop><stop offset="1" style="stop-color:#5D6EC5"></stop></linearGradient><path style="fill:url(#hair2XMLID_492_);stroke:#1E1E1E;stroke-linecap:round;stroke-linejoin:round;" d="M338.267,238.774c-4.96-7.554-11.488-5.422-9.11-25.715c2.384-20.359-1.962-32.47-4.574-39.78c-6.216-37.929-33.455-55.347-74.459-55.347s-67.061,16.422-74.04,52.967c-2.292,5.677-8.167,19.192-5.477,42.161c2.378,20.294-4.149,18.162-9.112,25.715c-5.151,7.84-10.302,27.21,4.357,35.053c-3.962-7.38-1.188-22.139,5.151-23.985c-3.565,5.535-6.34,28.595,12.68,33.208c-5.546-9.227-5.944-22.138-1.189-27.674c-2.377,10.607,1.983,32.75,18.228,28.137c-5.313-8.247-4.904-20.534,2.597-27.662c0.61,0.561,1.223,1.1,1.84,1.626c-1.936,11.804,5.79,30.371,24.884,35.722c-4.866-8.05-4.6-17.826-3.804-23.739c0.771,0.263,1.536,0.512,2.29,0.737c2.177,8.203,7.717,22.118,20.59,24.599v0.246c0.262-0.03,0.509-0.084,0.763-0.125c0.256,0.041,0.502,0.095,0.765,0.125c0-0.079-0.002-0.168-0.002-0.246c12.792-2.466,18.343-16.226,20.549-24.448c0.774-0.226,1.557-0.469,2.35-0.732c0.78,5.928,0.999,15.604-3.823,23.584c18.9-5.295,26.663-23.545,24.941-35.361c0.679-0.568,1.354-1.158,2.025-1.77c7.275,7.161,7.612,19.283,2.353,27.445c16.246,4.613,20.606-17.529,18.229-28.137c4.755,5.536,4.356,18.447-1.188,27.674c19.019-4.613,16.242-27.674,12.678-33.208c6.341,1.846,9.116,16.605,5.153,23.985C348.571,265.984,343.419,246.614,338.267,238.774z"></path></g></svg>