<svg xmlns="http://www.w3.org/2000/svg" width="500" height="500" version="1.1"><g id="x054"><g><g><linearGradient id="hair2XMLID_705_" gradientUnits="userSpaceOnUse" x1="249.8125" y1="430.9033" x2="249.8125" y2="225.7839"><stop offset="0" style="stop-color:#FCFCE4"></stop><stop offset="0.5" style="stop-color:#A0C8DD"></stop><stop offset="1" style="stop-color:#5D6EC5"></stop></linearGradient><path style="fill:url(#hair2XMLID_705_);stroke:#1E1E1E;stroke-linecap:round;stroke-linejoin:round;" d="M249.813,118.547c-50.882-4.642-96.267,36.992-76.492,101.412c17.409,56.719,64.235,58.931,76.492,58.503c12.255,0.428,59.082-1.784,76.491-58.503C346.077,155.539,300.691,113.905,249.813,118.547z"></path></g><linearGradient id="hair2XMLID_706_" gradientUnits="userSpaceOnUse" x1="323.9844" y1="430.9023" x2="323.9844" y2="225.7832"><stop offset="0" style="stop-color:#FCFCE4"></stop><stop offset="0.5" style="stop-color:#A0C8DD"></stop><stop offset="1" style="stop-color:#5D6EC5"></stop></linearGradient><path style="fill:url(#hair2XMLID_706_);stroke:#1E1E1E;stroke-linecap:round;stroke-linejoin:round;" d="M330.11,201.504c0,0-7.452,47.786,0,54.303c-7.452-4.706-12.873-14.843-12.196-26.065"></path><linearGradient id="hair2XMLID_707_" gradientUnits="userSpaceOnUse" x1="175.9209" y1="430.9023" x2="175.9209" y2="225.7832"><stop offset="0" style="stop-color:#FCFCE4"></stop><stop offset="0.5" style="stop-color:#A0C8DD"></stop><stop offset="1" style="stop-color:#5D6EC5"></stop></linearGradient><path style="fill:url(#hair2XMLID_707_);stroke:#1E1E1E;stroke-linecap:round;stroke-linejoin:round;" d="M169.793,201.504c0,0,7.454,47.786,0,54.303c7.454-4.706,12.875-14.843,12.198-26.065"></path><linearGradient id="hair2XMLID_708_" gradientUnits="userSpaceOnUse" x1="335.4629" y1="430.9014" x2="335.4629" y2="225.7832"><stop offset="0" style="stop-color:#FCFCE4"></stop><stop offset="0.5" style="stop-color:#A0C8DD"></stop><stop offset="1" style="stop-color:#5D6EC5"></stop></linearGradient><path style="fill:url(#hair2XMLID_708_);stroke:#1E1E1E;stroke-linecap:round;stroke-linejoin:round;" d="M331.06,189.196c0,0-1.963,18.825,5.49,20.272c7.453,1.449,11.45-4.706,11.45-4.706s-4.184,15.843-12.809,14.63c-3.396-0.479-10.569-1.958-12.265-11.371"></path><linearGradient id="hair2XMLID_709_" gradientUnits="userSpaceOnUse" x1="164.3604" y1="430.9014" x2="164.3603" y2="225.7832"><stop offset="0" style="stop-color:#FCFCE4"></stop><stop offset="0.5" style="stop-color:#A0C8DD"></stop><stop offset="1" style="stop-color:#5D6EC5"></stop></linearGradient><path style="fill:url(#hair2XMLID_709_);stroke:#1E1E1E;stroke-linecap:round;stroke-linejoin:round;" d="M168.765,189.196c0,0,1.964,18.825-5.49,20.272c-7.454,1.449-11.451-4.706-11.451-4.706s4.187,15.843,12.81,14.63c3.395-0.479,10.568-1.958,12.262-11.371"></path></g></g></svg>