<svg xmlns="http://www.w3.org/2000/svg" width="500" height="500" version="1.1"><g id="x055"><g><linearGradient id="hair2XMLID_710_" gradientUnits="userSpaceOnUse" x1="249.9126" y1="417.001" x2="249.9126" y2="221.0009"><stop offset="0" style="stop-color:#FCFCE4"></stop><stop offset="0.5" style="stop-color:#A0C8DD"></stop><stop offset="1" style="stop-color:#5D6EC5"></stop></linearGradient><path style="fill:url(#hair2XMLID_710_);stroke:#1E1E1E;stroke-linecap:round;stroke-linejoin:round;" d="M249.913,118.531c-47.054-4.436-89.026,35.347-70.739,96.903c16.1,54.197,59.404,56.311,70.739,55.902c11.333,0.408,54.638-1.705,70.737-55.902C338.938,153.878,296.968,114.096,249.913,118.531z"></path><linearGradient id="hair2XMLID_711_" gradientUnits="userSpaceOnUse" x1="249.9126" y1="417.001" x2="249.9126" y2="221.0005"><stop offset="0" style="stop-color:#FCFCE4"></stop><stop offset="0.5" style="stop-color:#A0C8DD"></stop><stop offset="1" style="stop-color:#5D6EC5"></stop></linearGradient><polyline style="fill:url(#hair2XMLID_711_);stroke:#1E1E1E;stroke-linecap:round;stroke-linejoin:round;" points="219.833,262.487 227.039,279.438 232.052,267.33 237.692,280.476 242.707,267.676 249.913,282.119 257.118,267.676 262.132,280.476 267.772,267.33 272.787,279.438 279.992,262.487 "></polyline><linearGradient id="hair2XMLID_712_" gradientUnits="userSpaceOnUse" x1="198.2119" y1="417.001" x2="198.2119" y2="221.0005"><stop offset="0" style="stop-color:#FCFCE4"></stop><stop offset="0.5" style="stop-color:#A0C8DD"></stop><stop offset="1" style="stop-color:#5D6EC5"></stop></linearGradient><path style="fill:url(#hair2XMLID_712_);stroke:#1E1E1E;stroke-linecap:round;stroke-linejoin:round;" d="M178.158,211.637c0,0,3.134,30.788,9.713,49.466c1.254-4.15,2.507-15.219,2.507-15.219s7.52,24.215,11.593,27.326c0-7.955,1.881-16.948,1.881-16.948s9.714,20.063,11.593,21.793c1.568-6.226,2.821-16.605,2.821-16.605"></path><linearGradient id="hair2XMLID_713_" gradientUnits="userSpaceOnUse" x1="301.2988" y1="417.001" x2="301.2988" y2="221.0005"><stop offset="0" style="stop-color:#FCFCE4"></stop><stop offset="0.5" style="stop-color:#A0C8DD"></stop><stop offset="1" style="stop-color:#5D6EC5"></stop></linearGradient><path style="fill:url(#hair2XMLID_713_);stroke:#1E1E1E;stroke-linecap:round;stroke-linejoin:round;" d="M321.354,211.637c0,0-3.133,30.788-9.713,49.466c-1.255-4.15-2.508-15.219-2.508-15.219s-7.521,24.215-11.593,27.326c0-7.955-1.881-16.948-1.881-16.948s-9.714,20.063-11.595,21.793c-1.564-6.226-2.819-16.605-2.819-16.605"></path></g></g></svg>