<svg xmlns="http://www.w3.org/2000/svg" width="500" height="500" version="1.1"><g id="x056"><linearGradient id="hair2XMLID_714_" gradientUnits="userSpaceOnUse" x1="249.9126" y1="418.001" x2="249.9126" y2="222.0009"><stop offset="0" style="stop-color:#FCFCE4"></stop><stop offset="0.5" style="stop-color:#A0C8DD"></stop><stop offset="1" style="stop-color:#5D6EC5"></stop></linearGradient><path style="fill:url(#hair2XMLID_714_);stroke:#1E1E1E;stroke-linecap:round;stroke-linejoin:round;" d="M249.913,119.531c-52.334-4.436-99.016,35.347-78.677,96.903c17.907,54.197,66.07,56.311,78.677,55.902c12.604,0.408,60.77-1.705,78.676-55.902C348.928,154.878,302.248,115.096,249.913,119.531z"></path><g><linearGradient id="hair2XMLID_715_" gradientUnits="userSpaceOnUse" x1="198.96" y1="418.001" x2="198.9599" y2="222.0004"><stop offset="0" style="stop-color:#FCFCE4"></stop><stop offset="0.5" style="stop-color:#A0C8DD"></stop><stop offset="1" style="stop-color:#5D6EC5"></stop></linearGradient><path style="fill:url(#hair2XMLID_715_);stroke:#1E1E1E;stroke-linecap:round;stroke-linejoin:round;" d="M175.424,208.402c-1.477,2.803-2.174,42.57,5.493,48.162c7.668,5.591,29.275,10.563,42.518,11.184c-22.304-11.807-22.304-25.475-21.607-35.416"></path><linearGradient id="hair2XMLID_716_" gradientUnits="userSpaceOnUse" x1="172.1968" y1="418.001" x2="172.1968" y2="222.0004"><stop offset="0" style="stop-color:#FCFCE4"></stop><stop offset="0.5" style="stop-color:#A0C8DD"></stop><stop offset="1" style="stop-color:#5D6EC5"></stop></linearGradient><path style="fill:url(#hair2XMLID_716_);stroke:#1E1E1E;stroke-linecap:round;stroke-linejoin:round;" d="M174.645,155.907c0,0-23.002,40.386-22.305,49.707c0.697,9.32,2.091,26.097,39.73,32.933c-16.729-9.322-32.063-32.933-23.002-49.709"></path><linearGradient id="hair2XMLID_717_" gradientUnits="userSpaceOnUse" x1="170.647" y1="418.001" x2="170.647" y2="222.0001"><stop offset="0" style="stop-color:#FCFCE4"></stop><stop offset="0.5" style="stop-color:#A0C8DD"></stop><stop offset="1" style="stop-color:#5D6EC5"></stop></linearGradient><path style="fill:url(#hair2XMLID_717_);stroke:#1E1E1E;stroke-linecap:round;stroke-linejoin:round;" d="M173.947,175.168c0,0-28.578,48.465-2.789,77.668c-5.575-33.553,9.758-62.756,9.758-62.756"></path><linearGradient id="hair2XMLID_718_" gradientUnits="userSpaceOnUse" x1="300.8662" y1="418.001" x2="300.8662" y2="222.0004"><stop offset="0" style="stop-color:#FCFCE4"></stop><stop offset="0.5" style="stop-color:#A0C8DD"></stop><stop offset="1" style="stop-color:#5D6EC5"></stop></linearGradient><path style="fill:url(#hair2XMLID_718_);stroke:#1E1E1E;stroke-linecap:round;stroke-linejoin:round;" d="M324.4,208.402c1.479,2.803,2.176,42.57-5.492,48.162c-7.665,5.591-29.275,10.563-42.517,11.184c22.303-11.807,22.303-25.475,21.607-35.416"></path><linearGradient id="hair2XMLID_719_" gradientUnits="userSpaceOnUse" x1="327.6279" y1="418.001" x2="327.6279" y2="222.0004"><stop offset="0" style="stop-color:#FCFCE4"></stop><stop offset="0.5" style="stop-color:#A0C8DD"></stop><stop offset="1" style="stop-color:#5D6EC5"></stop></linearGradient><path style="fill:url(#hair2XMLID_719_);stroke:#1E1E1E;stroke-linecap:round;stroke-linejoin:round;" d="M325.182,155.907c0,0,23.001,40.386,22.303,49.707c-0.695,9.32-2.092,26.097-39.729,32.933c16.729-9.322,32.062-32.933,23.002-49.709"></path><linearGradient id="hair2XMLID_720_" gradientUnits="userSpaceOnUse" x1="329.1777" y1="418.001" x2="329.1777" y2="222.0001"><stop offset="0" style="stop-color:#FCFCE4"></stop><stop offset="0.5" style="stop-color:#A0C8DD"></stop><stop offset="1" style="stop-color:#5D6EC5"></stop></linearGradient><path style="fill:url(#hair2XMLID_720_);stroke:#1E1E1E;stroke-linecap:round;stroke-linejoin:round;" d="M325.879,175.168c0,0,28.577,48.465,2.788,77.668c5.576-33.553-9.759-62.756-9.759-62.756"></path><g><linearGradient id="hair2XMLID_721_" gradientUnits="userSpaceOnUse" x1="249.9204" y1="418.001" x2="249.9204" y2="222.0003"><stop offset="0" style="stop-color:#FCFCE4"></stop><stop offset="0.5" style="stop-color:#A0C8DD"></stop><stop offset="1" style="stop-color:#5D6EC5"></stop></linearGradient><path style="fill:url(#hair2XMLID_721_);stroke:#1E1E1E;stroke-linecap:round;stroke-linejoin:round;" d="M201.828,244.138c0,3.727-4.879,23.61,7.668,28.581c12.546,4.972,25.091,8.078,28.577,6.214c8.364,3.106,11.849,4.273,11.849,4.273s3.482-1.167,11.845-4.273c3.486,1.864,16.033-1.242,28.58-6.214c12.546-4.971,7.667-24.854,7.667-28.581"></path><path style="fill:none;stroke:#1E1E1E;stroke-linecap:round;stroke-linejoin:round;" d="M229.011,255.322c0,0,1.394,18.639,9.062,23.61"></path><path style="fill:none;stroke:#1E1E1E;stroke-linecap:round;stroke-linejoin:round;" d="M268.738,255.322c0,0-1.394,18.639-9.061,23.61"></path></g></g></g></svg>