<svg xmlns="http://www.w3.org/2000/svg" width="500" height="500" version="1.1"><g id="x057"><linearGradient id="hair2XMLID_722_" gradientUnits="userSpaceOnUse" x1="249.9126" y1="416.7979" x2="249.9126" y2="220.6117"><stop offset="0" style="stop-color:#FCFCE4"></stop><stop offset="0.5" style="stop-color:#A0C8DD"></stop><stop offset="1" style="stop-color:#5D6EC5"></stop></linearGradient><path style="fill:url(#hair2XMLID_722_);stroke:#1E1E1E;stroke-linecap:round;stroke-linejoin:round;" d="M304.896,134.834c0,0-20.217-16.834-54.983-16.834s-54.985,16.834-54.985,16.834s-39.086,17.624-28.486,81.964c0,0,8.612,61.775,82.809,61.775c74.193,0,84.131-61.775,84.131-61.775C343.981,152.458,304.896,134.834,304.896,134.834z"></path><linearGradient id="hair2XMLID_723_" gradientUnits="userSpaceOnUse" x1="249.9126" y1="416.668" x2="249.9126" y2="220.6676"><stop offset="0" style="stop-color:#FCFCE4"></stop><stop offset="0.5" style="stop-color:#A0C8DD"></stop><stop offset="1" style="stop-color:#5D6EC5"></stop></linearGradient><path style="fill:url(#hair2XMLID_723_);stroke:#1E1E1E;stroke-linecap:round;stroke-linejoin:round;" d="M190.954,252.083c0,0,11.924,18.678,21.861,29.057c0.663-4.844,0.663-11.07,0.663-11.07s5.963,14.529,13.25,19.373c-0.662-4.844-0.662-8.303-0.662-8.303s21.861,6.055,23.848,10.984c1.989-4.93,23.847-10.984,23.847-10.984s0,3.459-0.663,8.303c7.287-4.844,13.25-19.373,13.25-19.373s0,6.227,0.663,11.07c9.938-10.379,21.86-29.057,21.86-29.057"></path><g><g><linearGradient id="hair2XMLID_724_" gradientUnits="userSpaceOnUse" x1="181.6948" y1="416.666" x2="181.6948" y2="220.666"><stop offset="0" style="stop-color:#FCFCE4"></stop><stop offset="0.5" style="stop-color:#A0C8DD"></stop><stop offset="1" style="stop-color:#5D6EC5"></stop></linearGradient><path style="fill:url(#hair2XMLID_724_);stroke:#1E1E1E;stroke-linecap:round;stroke-linejoin:round;" d="M178.036,163.526c0,0-14.37,21.951-10.6,52.888c2.65,21.743,17.887,39.959,29.149,44.661c-10.599-20.568-12.586-61.115-12.586-61.115"></path><linearGradient id="hair2XMLID_725_" gradientUnits="userSpaceOnUse" x1="177.6167" y1="416.6699" x2="177.6167" y2="220.6669"><stop offset="0" style="stop-color:#FCFCE4"></stop><stop offset="0.5" style="stop-color:#A0C8DD"></stop><stop offset="1" style="stop-color:#5D6EC5"></stop></linearGradient><path style="fill:url(#hair2XMLID_725_);stroke:#1E1E1E;stroke-linecap:round;stroke-linejoin:round;" d="M185.175,227.069c0,0-5.099,25.239-1.177,32.833c-9.276-10.577-17.622-20.19-12.252-38.381"></path><linearGradient id="hair2XMLID_726_" gradientUnits="userSpaceOnUse" x1="167.4663" y1="416.667" x2="167.4663" y2="220.6667"><stop offset="0" style="stop-color:#FCFCE4"></stop><stop offset="0.5" style="stop-color:#A0C8DD"></stop><stop offset="1" style="stop-color:#5D6EC5"></stop></linearGradient><path style="fill:url(#hair2XMLID_726_);stroke:#1E1E1E;stroke-linecap:round;stroke-linejoin:round;" d="M166.773,203.486c0,0,3.975,29.383-7.949,41.136c13.25-8.227,17.886-17.043,17.223-23.506"></path></g><g><linearGradient id="hair2XMLID_727_" gradientUnits="userSpaceOnUse" x1="318.1279" y1="416.666" x2="318.1279" y2="220.666"><stop offset="0" style="stop-color:#FCFCE4"></stop><stop offset="0.5" style="stop-color:#A0C8DD"></stop><stop offset="1" style="stop-color:#5D6EC5"></stop></linearGradient><path style="fill:url(#hair2XMLID_727_);stroke:#1E1E1E;stroke-linecap:round;stroke-linejoin:round;" d="M321.788,163.526c0,0,14.369,21.951,10.6,52.888c-2.648,21.743-17.887,39.959-29.149,44.661c10.6-20.568,12.588-61.115,12.588-61.115"></path><linearGradient id="hair2XMLID_728_" gradientUnits="userSpaceOnUse" x1="322.207" y1="416.6699" x2="322.207" y2="220.6669"><stop offset="0" style="stop-color:#FCFCE4"></stop><stop offset="0.5" style="stop-color:#A0C8DD"></stop><stop offset="1" style="stop-color:#5D6EC5"></stop></linearGradient><path style="fill:url(#hair2XMLID_728_);stroke:#1E1E1E;stroke-linecap:round;stroke-linejoin:round;" d="M314.65,227.069c0,0,5.099,25.239,1.176,32.833c9.273-10.577,17.62-20.19,12.25-38.381"></path><linearGradient id="hair2XMLID_729_" gradientUnits="userSpaceOnUse" x1="332.3564" y1="416.667" x2="332.3564" y2="220.6667"><stop offset="0" style="stop-color:#FCFCE4"></stop><stop offset="0.5" style="stop-color:#A0C8DD"></stop><stop offset="1" style="stop-color:#5D6EC5"></stop></linearGradient><path style="fill:url(#hair2XMLID_729_);stroke:#1E1E1E;stroke-linecap:round;stroke-linejoin:round;" d="M333.05,203.486c0,0-3.976,29.383,7.95,41.136c-13.25-8.227-17.887-17.043-17.226-23.506"></path></g></g></g></svg>