<svg xmlns="http://www.w3.org/2000/svg" width="500" height="500" version="1.1"><g id="x058"><g><linearGradient id="hair2XMLID_730_" gradientUnits="userSpaceOnUse" x1="249.9126" y1="269.75" x2="249.9126" y2="218.25"><stop offset="0" style="stop-color:#FCFCE4"></stop><stop offset="0.5" style="stop-color:#A0C8DD"></stop><stop offset="1" style="stop-color:#5D6EC5"></stop></linearGradient><path style="fill:url(#hair2XMLID_730_);stroke:#1E1E1E;stroke-linecap:round;stroke-linejoin:round;" d="M351.5,231.609c-5.143,0.865-20.568-13.833-24.854-31.125c0,0,12.569,6.766,18.171,17.016c1.4-20.875-5.31-37.454-14.224-49.215c6.172,4.842,17.024,17.715,17.024,17.715s-18.046-70.353-97.706-66.24c-79.66-4.113-97.706,66.24-97.706,66.24s10.852-12.873,17.025-17.715c-8.916,11.761-15.625,28.34-14.224,49.215c5.602-10.25,18.17-17.016,18.17-17.016c-4.286,17.292-19.71,31.99-24.853,31.125c6.632,2.574,18.428,2.082,28.878-1.473c20.155,42.807,61.359,44.577,72.802,44.2c11.434,0.376,52.61-1.391,72.774-44.147C333.189,233.696,344.9,234.17,351.5,231.609z"></path><g><linearGradient id="hair2XMLID_731_" gradientUnits="userSpaceOnUse" x1="311.5869" y1="269.75" x2="311.5869" y2="218.25"><stop offset="0" style="stop-color:#FCFCE4"></stop><stop offset="0.5" style="stop-color:#A0C8DD"></stop><stop offset="1" style="stop-color:#5D6EC5"></stop></linearGradient><path style="fill:url(#hair2XMLID_731_);stroke:#1E1E1E;stroke-linecap:round;stroke-linejoin:round;" d="M292.361,262.75c0,0,4.838,15.5,25.204,19.688c-7.251-11.063-9.544-22.938-9.925-29.813c7.002,11.875,18.97,6.625,18.97,6.625s-10.059-5.625-11.586-15.25c5.729,8.25,15.788,5.375,15.788,5.375s-11.969-6.125-13.247-19.517"></path><linearGradient id="hair2XMLID_732_" gradientUnits="userSpaceOnUse" x1="188.2378" y1="269.75" x2="188.2378" y2="218.25"><stop offset="0" style="stop-color:#FCFCE4"></stop><stop offset="0.5" style="stop-color:#A0C8DD"></stop><stop offset="1" style="stop-color:#5D6EC5"></stop></linearGradient><path style="fill:url(#hair2XMLID_732_);stroke:#1E1E1E;stroke-linecap:round;stroke-linejoin:round;" d="M207.463,262.75c0,0-4.838,15.5-25.203,19.688c7.251-11.063,9.542-22.938,9.925-29.813c-7.002,11.875-18.971,6.625-18.971,6.625s10.058-5.625,11.586-15.25c-5.729,8.25-15.788,5.375-15.788,5.375s11.968-6.125,13.248-19.517"></path></g></g></g></svg>