<svg xmlns="http://www.w3.org/2000/svg" width="500" height="500" version="1.1"><g id="x059"><g><g><linearGradient id="hair2XMLID_733_" gradientUnits="userSpaceOnUse" x1="249.9126" y1="275.5" x2="249.9126" y2="203.25"><stop offset="0" style="stop-color:#FCFCE4"></stop><stop offset="0.5" style="stop-color:#A0C8DD"></stop><stop offset="1" style="stop-color:#5D6EC5"></stop></linearGradient><path style="fill:url(#hair2XMLID_733_);stroke:#1E1E1E;stroke-linecap:round;stroke-linejoin:round;" d="M249.913,118.531c-49.198-4.436-93.083,35.347-73.963,96.903c16.834,54.197,62.112,56.311,73.963,55.902c11.85,0.408,57.128-1.705,73.961-55.902C342.995,153.878,299.112,114.096,249.913,118.531z"></path></g><g><g><linearGradient id="hair2XMLID_734_" gradientUnits="userSpaceOnUse" x1="169.2534" y1="275.5" x2="169.2534" y2="203.2501"><stop offset="0" style="stop-color:#FCFCE4"></stop><stop offset="0.5" style="stop-color:#A0C8DD"></stop><stop offset="1" style="stop-color:#5D6EC5"></stop></linearGradient><path style="fill:url(#hair2XMLID_734_);stroke:#1E1E1E;stroke-linecap:round;stroke-linejoin:round;" d="M161.455,224.782c0,2.076-2.621,22.14,15.727,31.133c-0.656-28.366-0.656-42.894-0.656-42.894"></path><linearGradient id="hair2XMLID_735_" gradientUnits="userSpaceOnUse" x1="169.1484" y1="275.5" x2="169.1484" y2="203.25"><stop offset="0" style="stop-color:#FCFCE4"></stop><stop offset="0.5" style="stop-color:#A0C8DD"></stop><stop offset="1" style="stop-color:#5D6EC5"></stop></linearGradient><path style="fill:url(#hair2XMLID_735_);stroke:#1E1E1E;stroke-linecap:round;stroke-linejoin:round;" d="M168.662,189.499c0,0-21.623,16.604-18.346,42.202c6.552-14.529,9.829-17.296,9.829-17.296s-7.208,24.906,1.965,33.209c4.587-22.832,15.072-33.901,26.209-42.895"></path><linearGradient id="hair2XMLID_736_" gradientUnits="userSpaceOnUse" x1="201.5356" y1="275.5" x2="201.5356" y2="203.25"><stop offset="0" style="stop-color:#FCFCE4"></stop><stop offset="0.5" style="stop-color:#A0C8DD"></stop><stop offset="1" style="stop-color:#5D6EC5"></stop></linearGradient><path style="fill:url(#hair2XMLID_736_);stroke:#1E1E1E;stroke-linecap:round;stroke-linejoin:round;" d="M179.147,224.09c0,0-15.071,27.674-4.587,46.353c0-4.842,3.276-19.371,3.276-19.371s-1.312,31.824,16.381,35.977c-1.311-8.303,1.31-13.839,8.518-18.68c7.208-4.844,11.139-22.831,11.139-24.907c0.656,11.069,4.587,22.831,14.417,26.29c-3.278-15.912,3.929-26.29,3.929-26.29"></path><linearGradient id="hair2XMLID_737_" gradientUnits="userSpaceOnUse" x1="179.6929" y1="275.5" x2="179.6929" y2="203.2501"><stop offset="0" style="stop-color:#FCFCE4"></stop><stop offset="0.5" style="stop-color:#A0C8DD"></stop><stop offset="1" style="stop-color:#5D6EC5"></stop></linearGradient><path style="fill:url(#hair2XMLID_737_);stroke:#1E1E1E;stroke-linecap:round;stroke-linejoin:round;" d="M168.662,204.719c0,0-3.932,34.592,21.624,42.895c-7.208-29.058,0.655-45.662,0.655-45.662"></path></g><g><linearGradient id="hair2XMLID_738_" gradientUnits="userSpaceOnUse" x1="330.5703" y1="275.5" x2="330.5703" y2="203.2501"><stop offset="0" style="stop-color:#FCFCE4"></stop><stop offset="0.5" style="stop-color:#A0C8DD"></stop><stop offset="1" style="stop-color:#5D6EC5"></stop></linearGradient><path style="fill:url(#hair2XMLID_738_);stroke:#1E1E1E;stroke-linecap:round;stroke-linejoin:round;" d="M338.37,224.782c0,2.076,2.62,22.14-15.728,31.133c0.657-28.366,0.657-42.894,0.657-42.894"></path><linearGradient id="hair2XMLID_739_" gradientUnits="userSpaceOnUse" x1="330.6758" y1="275.5" x2="330.6758" y2="203.25"><stop offset="0" style="stop-color:#FCFCE4"></stop><stop offset="0.5" style="stop-color:#A0C8DD"></stop><stop offset="1" style="stop-color:#5D6EC5"></stop></linearGradient><path style="fill:url(#hair2XMLID_739_);stroke:#1E1E1E;stroke-linecap:round;stroke-linejoin:round;" d="M331.163,189.499c0,0,21.622,16.604,18.346,42.202c-6.554-14.529-9.829-17.296-9.829-17.296s7.21,24.906-1.966,33.209c-4.587-22.832-15.071-33.901-26.21-42.895"></path><linearGradient id="hair2XMLID_740_" gradientUnits="userSpaceOnUse" x1="298.2871" y1="275.5" x2="298.2871" y2="203.25"><stop offset="0" style="stop-color:#FCFCE4"></stop><stop offset="0.5" style="stop-color:#A0C8DD"></stop><stop offset="1" style="stop-color:#5D6EC5"></stop></linearGradient><path style="fill:url(#hair2XMLID_740_);stroke:#1E1E1E;stroke-linecap:round;stroke-linejoin:round;" d="M320.679,224.09c0,0,15.069,27.674,4.585,46.353c0-4.842-3.276-19.371-3.276-19.371s1.313,31.824-16.381,35.977c1.312-8.303-1.311-13.839-8.518-18.68c-7.208-4.844-11.138-22.831-11.138-24.907c-0.656,11.069-4.588,22.831-14.417,26.29c3.275-15.912-3.933-26.29-3.933-26.29"></path><linearGradient id="hair2XMLID_741_" gradientUnits="userSpaceOnUse" x1="320.1328" y1="275.5" x2="320.1328" y2="203.2501"><stop offset="0" style="stop-color:#FCFCE4"></stop><stop offset="0.5" style="stop-color:#A0C8DD"></stop><stop offset="1" style="stop-color:#5D6EC5"></stop></linearGradient><path style="fill:url(#hair2XMLID_741_);stroke:#1E1E1E;stroke-linecap:round;stroke-linejoin:round;" d="M331.163,204.719c0,0,3.93,34.592-21.624,42.895c7.206-29.058-0.655-45.662-0.655-45.662"></path></g></g><g><linearGradient id="hair2XMLID_742_" gradientUnits="userSpaceOnUse" x1="338.7148" y1="275.5" x2="338.7148" y2="203.25"><stop offset="0" style="stop-color:#FCFCE4"></stop><stop offset="0.5" style="stop-color:#A0C8DD"></stop><stop offset="1" style="stop-color:#5D6EC5"></stop></linearGradient><path style="fill:url(#hair2XMLID_742_);stroke:#1E1E1E;stroke-width:1.139;stroke-linecap:round;stroke-linejoin:round;" d="M320.431,200.923c11.941,12.608,30.598,10.245,36.569-3.152c-7.463,4.728-28.416-12.601-29.854-24.429"></path><linearGradient id="hair2XMLID_743_" gradientUnits="userSpaceOnUse" x1="161.1099" y1="275.5" x2="161.1099" y2="203.25"><stop offset="0" style="stop-color:#FCFCE4"></stop><stop offset="0.5" style="stop-color:#A0C8DD"></stop><stop offset="1" style="stop-color:#5D6EC5"></stop></linearGradient><path style="fill:url(#hair2XMLID_743_);stroke:#1E1E1E;stroke-width:1.139;stroke-linecap:round;stroke-linejoin:round;" d="M179.395,200.923c-11.941,12.608-30.599,10.245-36.57-3.152c7.463,4.728,28.417-12.601,29.853-24.429"></path></g></g></g></svg>