<svg xmlns="http://www.w3.org/2000/svg" width="500" height="500" version="1.1"><g id="x061"><g><path style="fill:#1E1E1E;" d="M316.616,231.492c0.927-2.441,1.797-5,2.596-7.691c18.155-61.116-2.558-102.359-69.3-102.946c-66.742,0.587-87.455,41.831-69.3,102.946c0.799,2.692,1.669,5.25,2.596,7.691c-17.267,29.061-36.93,70.511-32.801,70.52c4.908,0.01,28.752-15.977,41.94-32.004c-8.222,15.707-10.176,33.648-8.222,33.887c1.954,0.238,34.357-30.297,34.357-30.297s-4.151,21.286-1.709,19.853c1.372-0.808,11.144-8.109,19.788-14.904c5.534,1.023,10.217,1.222,13.351,1.188c3.134,0.034,7.817-0.164,13.351-1.188c8.645,6.795,18.416,14.097,19.788,14.904c2.442,1.434-1.709-19.853-1.709-19.853s32.404,30.535,34.357,30.297c1.954-0.238,0-18.18-8.222-33.887c13.188,16.027,37.031,32.014,41.939,32.004C353.546,302.003,333.883,260.553,316.616,231.492z"></path><g><g><linearGradient id="hair2XMLID_748_" gradientUnits="userSpaceOnUse" x1="334.4941" y1="310" x2="334.4941" y2="204.0001"><stop offset="0" style="stop-color:#FCFCE4"></stop><stop offset="0.5" style="stop-color:#A0C8DD"></stop><stop offset="1" style="stop-color:#5D6EC5"></stop></linearGradient><path style="fill:url(#hair2XMLID_748_);stroke:#1E1E1E;stroke-linecap:round;stroke-linejoin:round;" d="M250.419,120.016c0,0,19.33-8.285,34.014,0.925c31.53,19.772,33.464,30.194,46.464,45.361c8.424,9.829,63.495,105.236,65.58,109.194c3.909,7.415-37.368-32.53-37.368-32.53c8.302,10.285,58.971,97.893,59.459,110.812c0.32,8.477-55.676-50.646-105.052-118.93"></path><linearGradient id="hair2XMLID_749_" gradientUnits="userSpaceOnUse" x1="346.5313" y1="310" x2="346.5313" y2="204"><stop offset="0" style="stop-color:#FCFCE4"></stop><stop offset="0.5" style="stop-color:#A0C8DD"></stop><stop offset="1" style="stop-color:#5D6EC5"></stop></linearGradient><path style="fill:url(#hair2XMLID_749_);stroke:#1E1E1E;stroke-linecap:round;stroke-linejoin:round;" d="M361.32,245.708c-11.935-15.279-29.577-34.956-29.577-34.956"></path></g><g><linearGradient id="hair2XMLID_750_" gradientUnits="userSpaceOnUse" x1="165.3296" y1="310" x2="165.3296" y2="204.0001"><stop offset="0" style="stop-color:#FCFCE4"></stop><stop offset="0.5" style="stop-color:#A0C8DD"></stop><stop offset="1" style="stop-color:#5D6EC5"></stop></linearGradient><path style="fill:url(#hair2XMLID_750_);stroke:#1E1E1E;stroke-linecap:round;stroke-linejoin:round;" d="M249.404,120.016c0,0-19.329-8.285-34.015,0.925c-31.529,19.772-33.463,30.194-46.462,45.361c-8.424,9.829-63.496,105.236-65.581,109.194c-3.908,7.415,37.369-32.53,37.369-32.53c-8.303,10.285-58.972,97.893-59.459,110.812c-0.32,8.477,55.676-50.646,105.051-118.93"></path><linearGradient id="hair2XMLID_751_" gradientUnits="userSpaceOnUse" x1="153.2925" y1="310" x2="153.2925" y2="204"><stop offset="0" style="stop-color:#FCFCE4"></stop><stop offset="0.5" style="stop-color:#A0C8DD"></stop><stop offset="1" style="stop-color:#5D6EC5"></stop></linearGradient><path style="fill:url(#hair2XMLID_751_);stroke:#1E1E1E;stroke-linecap:round;stroke-linejoin:round;" d="M138.504,245.708c11.935-15.279,29.578-34.956,29.578-34.956"></path></g></g></g></g></svg>