<svg xmlns="http://www.w3.org/2000/svg" width="500" height="500" version="1.1"><g id="x062"><linearGradient id="hair2XMLID_752_" gradientUnits="userSpaceOnUse" x1="249.9126" y1="281.5" x2="249.9126" y2="216"><stop offset="0" style="stop-color:#FCFCE4"></stop><stop offset="0.5" style="stop-color:#A0C8DD"></stop><stop offset="1" style="stop-color:#5D6EC5"></stop></linearGradient><path style="fill:url(#hair2XMLID_752_);stroke:#1E1E1E;stroke-linecap:round;stroke-linejoin:round;" d="M250.22,118.34c-0.104,0-0.204,0.003-0.308,0.003c-0.103,0-0.204-0.003-0.307-0.003c-67.011,0-87.873,41.404-69.823,102.96c2.923,4.911,6.726,7.661,10.307,11.73l-0.426-0.28c0,0,6.113,9.599,9.476,20.366c0.059,0.307,0.121,0.603,0.178,0.917c0.043,0.035,0.087,0.067,0.13,0.103c1.014,3.454,1.724,6.999,1.834,10.364c0.955-0.584,2.662-3.109,4.429-6.049c17.438,9.95,36.877,5.306,43.896,5.049c0.096,0.004,0.206,0.012,0.307,0.017c0.102-0.005,0.211-0.013,0.308-0.017c7.037,0.258,26.563,4.927,44.038-5.131c1.785,2.975,3.515,5.541,4.479,6.131c0.465-14.25,11.618-31.75,11.618-31.75l-0.888,0.583c3.658-4.24,7.578-7,10.574-12.033C338.093,159.744,317.23,118.34,250.22,118.34z"></path><g><g><linearGradient id="hair2XMLID_753_" gradientUnits="userSpaceOnUse" x1="209.9795" y1="281.5" x2="209.9795" y2="216"><stop offset="0" style="stop-color:#FCFCE4"></stop><stop offset="0.5" style="stop-color:#A0C8DD"></stop><stop offset="1" style="stop-color:#5D6EC5"></stop></linearGradient><path style="fill:url(#hair2XMLID_753_);stroke:#1E1E1E;stroke-linecap:round;stroke-linejoin:round;" d="M215.117,260.812c0,0-1.635,6.959-10.275,7.856c4.437-6.959,5.604-13.02,5.604-13.02"></path><linearGradient id="hair2XMLID_754_" gradientUnits="userSpaceOnUse" x1="203.0742" y1="281.5" x2="203.0742" y2="215.9999"><stop offset="0" style="stop-color:#FCFCE4"></stop><stop offset="0.5" style="stop-color:#A0C8DD"></stop><stop offset="1" style="stop-color:#5D6EC5"></stop></linearGradient><path style="fill:url(#hair2XMLID_754_);stroke:#1E1E1E;stroke-linecap:round;stroke-linejoin:round;" d="M201.806,250.934c0,0.674,1.801,14.816-7.972,20.566c10.937,0.5,15.357-2.5,18.48-12.036"></path><linearGradient id="hair2XMLID_755_" gradientUnits="userSpaceOnUse" x1="219.7876" y1="281.5" x2="219.7876" y2="216"><stop offset="0" style="stop-color:#FCFCE4"></stop><stop offset="0.5" style="stop-color:#A0C8DD"></stop><stop offset="1" style="stop-color:#5D6EC5"></stop></linearGradient><path style="fill:url(#hair2XMLID_755_);stroke:#1E1E1E;stroke-linecap:round;stroke-linejoin:round;" d="M214.883,261.934c0,0-1.868,11.449-9.575,13.021c9.002,1.296,14.946-2.47,17.514-11.225c1.168,2.694,0.467,9.878-3.503,13.021c7.556,0.75,12.611-5.612,14.946-12.347"></path></g><g><linearGradient id="hair2XMLID_756_" gradientUnits="userSpaceOnUse" x1="290.0381" y1="281.5" x2="290.0381" y2="216"><stop offset="0" style="stop-color:#FCFCE4"></stop><stop offset="0.5" style="stop-color:#A0C8DD"></stop><stop offset="1" style="stop-color:#5D6EC5"></stop></linearGradient><path style="fill:url(#hair2XMLID_756_);stroke:#1E1E1E;stroke-linecap:round;stroke-linejoin:round;" d="M284.9,260.812c0,0,1.635,6.959,10.275,7.856c-4.438-6.959-5.604-13.02-5.604-13.02"></path><linearGradient id="hair2XMLID_757_" gradientUnits="userSpaceOnUse" x1="296.9434" y1="281.5" x2="296.9434" y2="215.9999"><stop offset="0" style="stop-color:#FCFCE4"></stop><stop offset="0.5" style="stop-color:#A0C8DD"></stop><stop offset="1" style="stop-color:#5D6EC5"></stop></linearGradient><path style="fill:url(#hair2XMLID_757_);stroke:#1E1E1E;stroke-linecap:round;stroke-linejoin:round;" d="M298.212,250.934c0,0.674-1.802,14.816,7.972,20.566c-10.937,0.5-15.357-2.5-18.481-12.036"></path><linearGradient id="hair2XMLID_758_" gradientUnits="userSpaceOnUse" x1="280.2305" y1="281.5" x2="280.2305" y2="216"><stop offset="0" style="stop-color:#FCFCE4"></stop><stop offset="0.5" style="stop-color:#A0C8DD"></stop><stop offset="1" style="stop-color:#5D6EC5"></stop></linearGradient><path style="fill:url(#hair2XMLID_758_);stroke:#1E1E1E;stroke-linecap:round;stroke-linejoin:round;" d="M285.134,261.934c0,0,1.869,11.449,9.575,13.021c-9.003,1.296-14.947-2.47-17.515-11.225c-1.168,2.694-0.468,9.878,3.503,13.021c-7.556,0.75-12.611-5.612-14.945-12.347"></path></g></g></g></svg>