<svg xmlns="http://www.w3.org/2000/svg" width="500" height="500" version="1.1"><g id="x063"><linearGradient id="hair2XMLID_759_" gradientUnits="userSpaceOnUse" x1="250.0005" y1="277" x2="250.0005" y2="171"><stop offset="0" style="stop-color:#FCFCE4"></stop><stop offset="0.5" style="stop-color:#A0C8DD"></stop><stop offset="1" style="stop-color:#5D6EC5"></stop></linearGradient><path style="fill:url(#hair2XMLID_759_);stroke:#1E1E1E;stroke-linecap:round;stroke-linejoin:round;" d="M350.333,207.001C349,176.667,331.25,142.792,306.5,127.5s-56.5-12-56.5-12s-31.75-3.292-56.5,12c-24.75,15.292-42.5,49.167-43.833,79.501c-2.051,46.665,11.333,58,24,72c-10.667-15.333-12-34.667-12-34.667S168,276,185.5,282.5c-3.5-13.5-3-20.5-3-20.5s1,21,29.5,27.5c-2.5-10-3-27-3-27s3,24,22,31c1-6,1-6,1-6s4,4,12,7c2-3.5,6-7.5,6-7.5s4,4,6,7.5c8-3,12-7,12-7s0,0,1,6c19-7,22-31,22-31s-0.5,17-3,27c28.5-6.5,29.5-27.5,29.5-27.5s0.5,7-3,20.5c17.5-6.5,23.833-38.166,23.833-38.166s-1.333,19.334-12,34.667C339,265.001,352.385,253.666,350.333,207.001z"></path></g></svg>