<svg xmlns="http://www.w3.org/2000/svg" width="500" height="500" version="1.1"><g id="x064"><g><linearGradient id="hair2XMLID_760_" gradientUnits="userSpaceOnUse" x1="249.9995" y1="263.8223" x2="249.9995" y2="197.1368"><stop offset="0" style="stop-color:#FCFCE4"></stop><stop offset="0.5" style="stop-color:#A0C8DD"></stop><stop offset="1" style="stop-color:#5D6EC5"></stop></linearGradient><path style="fill:url(#hair2XMLID_760_);stroke:#1E1E1E;stroke-linecap:round;stroke-linejoin:round;" d="M336.961,215.566c-0.938-9.91-2.428-27.539-1.961-35.233c-14.334-70.667-85-62-85-62s-70.667-8.667-85,62c0.466,7.694-1.023,25.323-1.961,35.233c-7.971,10.582-18.81,30.479-15.039,57.089c-0.458-11.863,2.106-22.645,5.67-31.691c-3.735,14.776-3.897,34.657,12.996,51.37c-0.667-7-1-15.667,3.062-23.098c2.349,8.789,7.162,18.366,16.938,24.097c-1.959-3.864-5.333-13.666-2.667-23.999c0.667,8.666,3.333,20,17,24c-2-8.334-5.856-14.752-3-23.334c1.722,14.69,10.333,22,17,23c-3-10.666,1-18.333,1-18.333s0.667,13.667,17,19c-2.667-8.333-3.333-11.667-3.333-11.667S234,290,250,296.667C266,290,270.332,282,270.332,282s-0.666,3.334-3.332,11.667c16.332-5.333,17-19,17-19s4,7.667,1,18.333c6.666-1,15.277-8.31,17-23c2.855,8.582-1,15-3,23.334c13.666-4,16.332-15.334,17-24c2.666,10.333-0.707,20.135-2.668,23.999c9.777-5.73,14.59-15.308,16.939-24.097c4.061,7.431,3.729,16.098,3.061,23.098c16.893-16.713,16.73-36.594,12.996-51.37c3.564,9.047,6.129,19.828,5.67,31.691C355.77,246.045,344.932,226.148,336.961,215.566z"></path><linearGradient id="hair2XMLID_761_" gradientUnits="userSpaceOnUse" x1="157.6558" y1="263.667" x2="157.6558" y2="196.667"><stop offset="0" style="stop-color:#FCFCE4"></stop><stop offset="0.5" style="stop-color:#A0C8DD"></stop><stop offset="1" style="stop-color:#5D6EC5"></stop></linearGradient><path style="fill:url(#hair2XMLID_761_);stroke:#1E1E1E;stroke-linecap:round;stroke-linejoin:round;" d="M179.667,198.667c-5.667,6.667-33.667,24.667-44,70.667c-1-75.667,34-94.667,34-94.667"></path><linearGradient id="hair2XMLID_762_" gradientUnits="userSpaceOnUse" x1="156.3335" y1="272.7285" x2="156.3335" y2="184.3008"><stop offset="0" style="stop-color:#FCFCE4"></stop><stop offset="0.5" style="stop-color:#A0C8DD"></stop><stop offset="1" style="stop-color:#5D6EC5"></stop></linearGradient><path style="fill:url(#hair2XMLID_762_);stroke:#1E1E1E;stroke-linecap:round;stroke-linejoin:round;" d="M171.667,173.667c0,0-41.333,25-49.333,61.667c4.333-31,27.667-75,68-97.667"></path><linearGradient id="hair2XMLID_763_" gradientUnits="userSpaceOnUse" x1="225.9917" y1="263.667" x2="225.9917" y2="196.667" gradientTransform="matrix(-1 0 0 1 568.334 0)"><stop offset="0" style="stop-color:#FCFCE4"></stop><stop offset="0.5" style="stop-color:#A0C8DD"></stop><stop offset="1" style="stop-color:#5D6EC5"></stop></linearGradient><path style="fill:url(#hair2XMLID_763_);stroke:#1E1E1E;stroke-linecap:round;stroke-linejoin:round;" d="M320.332,198.667c5.668,6.667,33.666,24.667,44,70.667c1-75.667-34-94.667-34-94.667"></path><linearGradient id="hair2XMLID_764_" gradientUnits="userSpaceOnUse" x1="224.6685" y1="272.7285" x2="224.6685" y2="184.3008" gradientTransform="matrix(-1 0 0 1 568.334 0)"><stop offset="0" style="stop-color:#FCFCE4"></stop><stop offset="0.5" style="stop-color:#A0C8DD"></stop><stop offset="1" style="stop-color:#5D6EC5"></stop></linearGradient><path style="fill:url(#hair2XMLID_764_);stroke:#1E1E1E;stroke-linecap:round;stroke-linejoin:round;" d="M328.332,173.667c0,0,41.334,25,49.334,61.667c-4.334-31-27.668-75-68-97.667"></path></g></g></svg>