<svg xmlns="http://www.w3.org/2000/svg" width="500" height="500" version="1.1"><g id="x065"><g><linearGradient id="hair2XMLID_765_" gradientUnits="userSpaceOnUse" x1="250.0005" y1="260.6055" x2="250.0005" y2="195.8495"><stop offset="0" style="stop-color:#FCFCE4"></stop><stop offset="0.5" style="stop-color:#A0C8DD"></stop><stop offset="1" style="stop-color:#5D6EC5"></stop></linearGradient><path style="fill:url(#hair2XMLID_765_);stroke:#1E1E1E;stroke-linecap:round;stroke-linejoin:round;" d="M350,216.5c-5.5-8-12.5-26.5-12.5-28.5c0,0-5-69-87.5-69s-87.5,69-87.5,69c0,2-7,20.5-12.5,28.5s-25,41-4,61c-9.507-14.735,1.314-40.75,2.405-43.282c-1.124,2.648-11.587,29.219,13.095,46.782c-4-18,3.5-41,7-46c0,0-14,28.5,4,46.5c-6-10-3.5-22.5-3.5-22.5s-0.5,18,23,24.5c-0.815-7.337-2.514-12.737-3.897-16.154c2.971,5.249,9.312,13.795,20.397,17.154c-2.716-5.821-5.5-18-5.5-18s10.5,10.5,11,19c1.294-5.175-0.014-12.939-0.398-14.98c0.531,2.45,3.444,12.956,14.898,16.48c0-6.5,0.5-14.5,0.5-14.5s3,13.5,11.5,17C240,281,242,273,242,273s1.75,13.25,8,19.5c6.25-6.25,8-19.5,8-19.5s2,8,1.5,16.5c8.5-3.5,11.5-17,11.5-17s0.5,8,0.5,14.5c11.453-3.524,14.367-14.029,14.898-16.48c-0.385,2.042-1.692,9.806-0.398,14.98c0.5-8.5,11-19,11-19s-2.783,12.179-5.5,18c11.086-3.359,17.427-11.905,20.397-17.154c-1.384,3.417-3.082,8.817-3.897,16.154c23.5-6.5,23-24.5,23-24.5s2.5,12.5-3.5,22.5c18-18,4-46.5,4-46.5c3.5,5,11,28,7,46c24.69-17.568,14.212-44.15,13.094-46.785c1.084,2.516,11.917,28.543,2.406,43.285C375,257.5,355.5,224.5,350,216.5z"></path><g><linearGradient id="hair2XMLID_766_" gradientUnits="userSpaceOnUse" x1="158.7505" y1="242.4883" x2="158.7505" y2="205.4523"><stop offset="0" style="stop-color:#FCFCE4"></stop><stop offset="0.5" style="stop-color:#A0C8DD"></stop><stop offset="1" style="stop-color:#5D6EC5"></stop></linearGradient><path style="fill:url(#hair2XMLID_766_);stroke:#1E1E1E;stroke-linecap:round;stroke-linejoin:round;" d="M171.03,161.5c0,0-3.5,15.5-16,32.5s-41.5,45.5-31.5,63.5c4.478,8.06,13.5-1.5,13.5-1.5s-5.892,1.823-8.5-6c-2-6-4-27,36-51.5c27.56-16.88,31.5-37,31.5-37"></path><linearGradient id="hair2XMLID_767_" gradientUnits="userSpaceOnUse" x1="310.1895" y1="242.4883" x2="310.1895" y2="205.4523" gradientTransform="matrix(-1 0 0 1 651.4395 0)"><stop offset="0" style="stop-color:#FCFCE4"></stop><stop offset="0.5" style="stop-color:#A0C8DD"></stop><stop offset="1" style="stop-color:#5D6EC5"></stop></linearGradient><path style="fill:url(#hair2XMLID_767_);stroke:#1E1E1E;stroke-linecap:round;stroke-linejoin:round;" d="M328.97,161.5c0,0,3.5,15.5,16,32.5s41.5,45.5,31.5,63.5c-4.478,8.06-13.5-1.5-13.5-1.5s5.893,1.823,8.5-6c2-6,4-27-36-51.5c-27.561-16.88-31.5-37-31.5-37"></path></g><g><g><path style="fill:none;stroke:#1E1E1E;stroke-linecap:round;stroke-linejoin:round;" d="M165.03,211c0,0-7.5,20.5-4,48.5"></path><path style="fill:none;stroke:#1E1E1E;stroke-linecap:round;stroke-linejoin:round;" d="M175.03,225c0,0-7.5,38,9,55.5"></path></g><g><path style="fill:none;stroke:#1E1E1E;stroke-linecap:round;stroke-linejoin:round;" d="M334.97,211c0,0,7.5,20.5,4,48.5"></path><path style="fill:none;stroke:#1E1E1E;stroke-linecap:round;stroke-linejoin:round;" d="M324.97,225c0,0,7.5,38-9,55.5"></path></g></g></g></g></svg>