<svg xmlns="http://www.w3.org/2000/svg" width="500" height="500" version="1.1"><g id="x066"><g><linearGradient id="hair2XMLID_768_" gradientUnits="userSpaceOnUse" x1="250.0005" y1="298.5" x2="250.0005" y2="198"><stop offset="0" style="stop-color:#FCFCE4"></stop><stop offset="0.5" style="stop-color:#A0C8DD"></stop><stop offset="1" style="stop-color:#5D6EC5"></stop></linearGradient><path style="fill:url(#hair2XMLID_768_);stroke:#1E1E1E;stroke-linecap:round;stroke-linejoin:round;" d="M369.109,269.083c-23.544-11.072-38.739-58.144-38.739-58.144l-3.566,3.57c17.393-57.54-5.752-95.966-76.804-95.966c-71.051,0-94.196,38.426-76.804,95.966l-3.566-3.57c0,0-15.195,47.071-38.739,58.144c14.157,0.385,25.884-10.701,30.29-17.667c-5.388,8.964-10.813,18.352-19.257,24.91c16.996-2.52,31.039-7.569,42.701-36.548c3.399,5.126,7.147,9.467,11.092,13.123l-4.676,10.586c0,0-8.04,29.48,6.03,48.91c-2.01-12.73,1.34-31.49,1.34-31.49s4.02,23.45,17.42,35.51c7.37-20.1,17.42-38.859,17.42-38.859s-2.68,24.79,16.08,43.55c18.76-18.76,16.08-43.55,16.08-43.55s10.05,18.76,17.42,38.859c13.4-12.06,17.42-35.51,17.42-35.51s3.35,18.76,1.34,31.49c14.07-19.43,6.03-48.91,6.03-48.91l-4.294-9.722c4.295-3.834,8.375-8.452,12.049-13.99c11.662,28.981,25.706,34.031,42.702,36.551c-8.445-6.559-13.87-15.948-19.259-24.912C343.225,258.381,354.952,269.468,369.109,269.083z"></path><linearGradient id="hair2XMLID_769_" gradientUnits="userSpaceOnUse" x1="180.5508" y1="298.5" x2="180.5508" y2="198.001"><stop offset="0" style="stop-color:#FCFCE4"></stop><stop offset="0.5" style="stop-color:#A0C8DD"></stop><stop offset="1" style="stop-color:#5D6EC5"></stop></linearGradient><path style="fill:url(#hair2XMLID_769_);stroke:#1E1E1E;stroke-linecap:round;stroke-linejoin:round;" d="M173.341,240.037c0,0-11.672,44.221,10.375,62.98c0.648-26.8,7.133-58.29,7.133-58.29"></path><linearGradient id="hair2XMLID_770_" gradientUnits="userSpaceOnUse" x1="192.8071" y1="298.5" x2="192.8071" y2="198.0007"><stop offset="0" style="stop-color:#FCFCE4"></stop><stop offset="0.5" style="stop-color:#A0C8DD"></stop><stop offset="1" style="stop-color:#5D6EC5"></stop></linearGradient><path style="fill:url(#hair2XMLID_770_);stroke:#1E1E1E;stroke-linecap:round;stroke-linejoin:round;" d="M183.715,235.348c-1.297,4.02-16.859,60.3,9.078,77.05c-1.945-27.47,14.914-73.03,14.914-73.03"></path><linearGradient id="hair2XMLID_771_" gradientUnits="userSpaceOnUse" x1="319.4492" y1="298.5" x2="319.4492" y2="198.001"><stop offset="0" style="stop-color:#FCFCE4"></stop><stop offset="0.5" style="stop-color:#A0C8DD"></stop><stop offset="1" style="stop-color:#5D6EC5"></stop></linearGradient><path style="fill:url(#hair2XMLID_771_);stroke:#1E1E1E;stroke-linecap:round;stroke-linejoin:round;" d="M326.659,240.037c0,0,11.672,44.221-10.374,62.98c-0.648-26.8-7.133-58.29-7.133-58.29"></path><linearGradient id="hair2XMLID_772_" gradientUnits="userSpaceOnUse" x1="307.1934" y1="298.5" x2="307.1934" y2="198.0007"><stop offset="0" style="stop-color:#FCFCE4"></stop><stop offset="0.5" style="stop-color:#A0C8DD"></stop><stop offset="1" style="stop-color:#5D6EC5"></stop></linearGradient><path style="fill:url(#hair2XMLID_772_);stroke:#1E1E1E;stroke-linecap:round;stroke-linejoin:round;" d="M316.285,235.348c1.297,4.02,16.858,60.3-9.079,77.05c1.946-27.47-14.913-73.03-14.913-73.03"></path><g><g><linearGradient id="hair2XMLID_773_" gradientUnits="userSpaceOnUse" x1="165.2354" y1="298.5" x2="165.2354" y2="198.0001"><stop offset="0" style="stop-color:#FCFCE4"></stop><stop offset="0.5" style="stop-color:#A0C8DD"></stop><stop offset="1" style="stop-color:#5D6EC5"></stop></linearGradient><path style="fill:url(#hair2XMLID_773_);stroke:#1E1E1E;stroke-linecap:round;stroke-linejoin:round;" d="M170.099,182.417c-0.648,3.35,1.297,30.82-25.289,46.9c14.914-0.67,34.366-6.7,40.851-17.42"></path></g><g><linearGradient id="hair2XMLID_774_" gradientUnits="userSpaceOnUse" x1="334.7656" y1="298.5" x2="334.7656" y2="198.0001"><stop offset="0" style="stop-color:#FCFCE4"></stop><stop offset="0.5" style="stop-color:#A0C8DD"></stop><stop offset="1" style="stop-color:#5D6EC5"></stop></linearGradient><path style="fill:url(#hair2XMLID_774_);stroke:#1E1E1E;stroke-linecap:round;stroke-linejoin:round;" d="M329.901,182.417c0.648,3.35-1.297,30.82,25.289,46.9c-14.914-0.67-34.366-6.7-40.851-17.42"></path></g></g><g><linearGradient id="hair2XMLID_775_" gradientUnits="userSpaceOnUse" x1="163.9385" y1="298.5" x2="163.9385" y2="197.9998"><stop offset="0" style="stop-color:#FCFCE4"></stop><stop offset="0.5" style="stop-color:#A0C8DD"></stop><stop offset="1" style="stop-color:#5D6EC5"></stop></linearGradient><path style="fill:url(#hair2XMLID_775_);stroke:#1E1E1E;stroke-linecap:round;stroke-linejoin:round;" d="M174.637,162.317c0,0-7.132,36.18-28.53,40.87c15.562,2.68,31.772-8.04,35.663-17.42"></path><linearGradient id="hair2XMLID_776_" gradientUnits="userSpaceOnUse" x1="336.0625" y1="298.5" x2="336.0625" y2="197.9998"><stop offset="0" style="stop-color:#FCFCE4"></stop><stop offset="0.5" style="stop-color:#A0C8DD"></stop><stop offset="1" style="stop-color:#5D6EC5"></stop></linearGradient><path style="fill:url(#hair2XMLID_776_);stroke:#1E1E1E;stroke-linecap:round;stroke-linejoin:round;" d="M325.362,162.317c0,0,7.133,36.18,28.531,40.87c-15.563,2.68-31.773-8.04-35.663-17.42"></path></g></g></g></svg>