<svg xmlns="http://www.w3.org/2000/svg" width="500" height="500" version="1.1"><g id="x067"><linearGradient id="hair2XMLID_777_" gradientUnits="userSpaceOnUse" x1="250" y1="288" x2="250" y2="217.5001"><stop offset="0" style="stop-color:#FCFCE4"></stop><stop offset="0.5" style="stop-color:#A0C8DD"></stop><stop offset="1" style="stop-color:#5D6EC5"></stop></linearGradient><path style="fill:url(#hair2XMLID_777_);stroke:#1E1E1E;stroke-linecap:round;stroke-linejoin:round;" d="M276.8,120.748c0,0-16.916-2.916-26.8-2.217c-9.884-0.699-26.8,2.217-26.8,2.217c-73.03,19.43-75.71,111.22-48.91,152.09c-7.172-17.365-7.751-37.068-6.89-50.964c0.11,15.043,3.491,51.939,32.35,72.403c-5.751-12.409-8.903-24.545-10.632-34.121c3.086,10.153,11.269,23.79,32.072,36.131c-4.69-14.739-2.01-21.439-2.01-21.439s6.357,29.222,30.82,30.753c24.463-1.531,30.82-30.753,30.82-30.753s2.68,6.7-2.011,21.439c20.803-12.341,28.985-25.978,32.072-36.131c-1.729,9.576-4.882,21.712-10.632,34.121c28.858-20.464,32.239-57.36,32.35-72.403c0.861,13.896,0.282,33.599-6.89,50.964C352.51,231.968,349.83,140.177,276.8,120.748z"></path></g></svg>