<svg xmlns="http://www.w3.org/2000/svg" width="500" height="500" version="1.1"><g id="x007"><g><linearGradient id="hair2XMLID_499_" gradientUnits="userSpaceOnUse" x1="249.6807" y1="296.333" x2="249.6807" y2="236.3335"><stop offset="0" style="stop-color:#FCFCE4"></stop><stop offset="0.5" style="stop-color:#A0C8DD"></stop><stop offset="1" style="stop-color:#5D6EC5"></stop></linearGradient><path style="fill:url(#hair2XMLID_499_);stroke:#1E1E1E;stroke-linecap:round;stroke-linejoin:round;" d="M321.616,253.38l-0.09-0.007C321.584,253.457,321.616,253.38,321.616,253.38z M321.391,252.952c4.354-16.616,9.502-31.254,9.502-56.303c0-25.252-11.043-49.51-20.13-60.579c-18.305-22.3-45.571-16.447-61.229-16.447c-15.657,0-36.914-4.151-57.594,14.528c-16.935,15.297-22.734,35.875-23.357,54.542c-1.736,51.974,16.792,59.294,16.792,59.294c6.096,13.469,13.089,34.555,4.202,51.054c10.028,0.691,13.788-25.599,13.161-33.901c1.88,11.07,6.267,42.895,31.334,51.197c-5.013-8.303-14.415-32.518-12.533-46.354c1.879,4.149,9.399,38.744,25.694,44.97c-0.626-11.069,5.638-42.202,18.797-50.504c-3.133,6.918-3.76,40.126-10.651,50.504c7.26-3.34,32.626-22.164,38.878-60.196c-0.99,10.864,0.486,29.345-6.462,43.726c6.603-10.559,12.352-19.826,15.634-30.666c1.897,9.641,2.253,17.706-1.05,24.997c4.493-6.82,5.429-41.836,5.429-41.836c2.85,14.696,6.189,19.768,14,25.924C320.429,268.806,321.32,252.643,321.391,252.952z M321.526,253.373c-0.035-0.051-0.08-0.179-0.136-0.421c-0.036,0.134-0.071,0.269-0.108,0.403L321.526,253.373z M287.794,298.483c-1.375,2.199-2.784,4.449-4.217,6.784C285.25,303.157,286.639,300.877,287.794,298.483z"></path><linearGradient id="hair2XMLID_500_" gradientUnits="userSpaceOnUse" x1="178.6831" y1="296.333" x2="178.6831" y2="236.3335"><stop offset="0" style="stop-color:#FCFCE4"></stop><stop offset="0.5" style="stop-color:#A0C8DD"></stop><stop offset="1" style="stop-color:#5D6EC5"></stop></linearGradient><path style="fill:url(#hair2XMLID_500_);stroke:#1E1E1E;stroke-linecap:round;stroke-linejoin:round;" d="M170.946,169.436c0,0-18.263,74.624,19.847,97.482c-7.734-11.904-26.571-35.693-12.307-89.395"></path><linearGradient id="hair2XMLID_501_" gradientUnits="userSpaceOnUse" x1="185.8169" y1="296.333" x2="185.8169" y2="236.3335"><stop offset="0" style="stop-color:#FCFCE4"></stop><stop offset="0.5" style="stop-color:#A0C8DD"></stop><stop offset="1" style="stop-color:#5D6EC5"></stop></linearGradient><path style="fill:url(#hair2XMLID_501_);stroke:#1E1E1E;stroke-linecap:round;stroke-linejoin:round;" d="M176.417,234.701c0,2.076,1.254,29.75,18.8,53.272c-6.893-12.453-9.4-38.743-10.653-51.196c-1.254-12.453-1.254-12.453-1.254-12.453"></path><linearGradient id="hair2XMLID_502_" gradientUnits="userSpaceOnUse" x1="315.5391" y1="296.333" x2="315.5391" y2="236.3335"><stop offset="0" style="stop-color:#FCFCE4"></stop><stop offset="0.5" style="stop-color:#A0C8DD"></stop><stop offset="1" style="stop-color:#5D6EC5"></stop></linearGradient><path style="fill:url(#hair2XMLID_502_);stroke:#1E1E1E;stroke-linecap:round;stroke-linejoin:round;" d="M324.939,234.701c0,2.076-1.254,29.75-18.802,53.272c6.895-12.453,9.4-38.743,10.653-51.196c1.253-12.453,1.253-12.453,1.253-12.453"></path></g></g></svg>