<svg xmlns="http://www.w3.org/2000/svg" width="500" height="500" version="1.1"><g id="x9072"><g><linearGradient id="hair2XMLID_799_" gradientUnits="userSpaceOnUse" x1="249.9995" y1="134.5" x2="249.9995" y2="300.9999"><stop offset="0" style="stop-color:#FCFCE4"></stop><stop offset="0.5" style="stop-color:#A0C8DD"></stop><stop offset="1" style="stop-color:#5D6EC5"></stop></linearGradient><path style="fill:url(#hair2XMLID_799_);stroke:#1E1E1E;stroke-linecap:round;stroke-linejoin:round;" d="M352.333,247.333c-3.025-10.842-11.197-23.776-15-29.437c-2.133-9.427-3.908-19.315-5.001-28.563c-4.333-36.667-26.333-52-26.333-52c-18.142-13.836-51.006-9.807-55.999-9.099c-4.993-0.708-37.857-4.738-55.999,9.099c0,0-22,15.333-26.333,52c-1.093,9.248-2.868,19.136-5.001,28.563c-3.803,5.661-11.975,18.595-15,29.437c-2.559,9.17-1.025,16.97,0.412,21.404c-0.04,9.185,3.724,17.28,9.255,21.263c-6-11-1.333-25.333-1.333-25.333S151.668,286,172.668,293c-2-11.666,1.333-25.666,1.333-25.666s-2.666,24.667,13.667,30c-0.667-11.667,5.666-22.667,5.666-22.667s7,11.333,5.667,26.333c5.333-3.333,8.333-7.999,8.333-14.666c0,0,2.666,13.666,20,15.666c-1.333-9.333,0.334-13.333,0.334-13.333s4.332,9.333,3.666,13c2.611-4.218,3.161-7.819,3.188-10.025c0.634,4.276,3.411,13.029,15.478,13.344c12.066-0.314,14.844-9.067,15.478-13.344c0.027,2.206,0.577,5.808,3.188,10.025c-0.666-3.667,3.666-13,3.666-13s1.667,4,0.334,13.333c17.334-2,20-15.666,20-15.666c0,6.667,3,11.333,8.333,14.666c-1.333-15,5.667-26.333,5.667-26.333s6.333,11,5.666,22.667c16.333-5.333,13.667-30,13.667-30s3.333,14,1.333,25.666c21-7,16.667-28.333,16.667-28.333S348.666,279,342.666,290c5.531-3.982,9.295-12.078,9.255-21.263C353.358,264.304,354.892,256.504,352.333,247.333z M151.334,254.334c-0.831,1.787-1.491,3.589-1.993,5.387c-0.214-3.951,0.011-8.764,1.659-12.721c2.463-5.912,5.491-10.931,8.211-15.342C156.679,240.767,153.93,248.753,151.334,254.334z M350.659,259.721c-0.502-1.798-1.162-3.6-1.993-5.387c-2.596-5.581-5.345-13.567-7.877-22.676c2.72,4.411,5.748,9.43,8.211,15.342C350.648,250.957,350.873,255.77,350.659,259.721z"></path><g><g><linearGradient id="hair2XMLID_800_" gradientUnits="userSpaceOnUse" x1="325.8252" y1="134.5" x2="325.8252" y2="301.0002"><stop offset="0" style="stop-color:#FCFCE4"></stop><stop offset="0.5" style="stop-color:#A0C8DD"></stop><stop offset="1" style="stop-color:#5D6EC5"></stop></linearGradient><path style="fill:url(#hair2XMLID_800_);stroke:#1E1E1E;stroke-linecap:round;stroke-linejoin:round;" d="M323,244.334c0,1,7,45.667-11,58.667c19-1.667,29.667-20.334,27.333-60.334"></path></g><g><linearGradient id="hair2XMLID_801_" gradientUnits="userSpaceOnUse" x1="174.1743" y1="134.5" x2="174.1743" y2="301.0002"><stop offset="0" style="stop-color:#FCFCE4"></stop><stop offset="0.5" style="stop-color:#A0C8DD"></stop><stop offset="1" style="stop-color:#5D6EC5"></stop></linearGradient><path style="fill:url(#hair2XMLID_801_);stroke:#1E1E1E;stroke-linecap:round;stroke-linejoin:round;" d="M177,244.334c0,1-7,45.667,11,58.667c-19-1.667-29.667-20.334-27.333-60.334"></path></g></g></g></g></svg>