<svg xmlns="http://www.w3.org/2000/svg" width="500" height="500" version="1.1"><g id="x9076"><linearGradient id="hair2XMLID_811_" gradientUnits="userSpaceOnUse" x1="256.0977" y1="159.9448" x2="256.0976" y2="571.5129"><stop offset="0" style="stop-color:#FCFCE4"></stop><stop offset="0.5" style="stop-color:#A0C8DD"></stop><stop offset="1" style="stop-color:#5D6EC5"></stop></linearGradient><path style="fill:url(#hair2XMLID_811_);stroke:#1E1E1E;stroke-linecap:round;stroke-linejoin:round;" d="M311.666,282.333c-0.988-4.744,0-21.333,0-21.333L317,214.333c0,0,8-87.333-69.333-87.333s-66,62.667-66,86.667c8.667,66-12.66,133.046-6,150c6.996,17.808,23.707,38.021,51.275,32.322c11.949,10.79,26.723,18.75,38.059,18.345c-9.333-2.667-24-10.667-24.667-17.333s26-26,37.333-47.334c4.303-8.1,6.298-23.793,7.119-40.144c4.389,13.517,7.227,28.131,4.215,38.811c-7.333,26-17.334,35.333-13.334,50.667S301,420.333,301,420.333s-8.667-8.667-3.334-18c1.834-3.209,3.431-5.946,5.008-8.752c-2.162,4.411-0.341,14.752-0.341,14.752s3.333-6.667,5.333-10s23.334-4,29.334-28S315,298.333,311.666,282.333z M189.667,361.666c0.562-3.649,7.508-15.459,15.96-29.75c-1.564,17.237-0.639,32.488,3.373,41.084c3.265,6.997,8.819,14.235,15.454,20.665C192.461,386.183,188.414,369.807,189.667,361.666z M285.284,288.47c0.012-12.301-0.4-23.149-0.687-29.159c2.646,16.265,9.676,30.416,16.805,44.472L285.284,288.47z M303.004,392.995c2.897-5.181,5.781-10.723,9.996-19.995c4.282-9.419,1.414-32.312-1.187-47.486c2.722,6.47,5.024,13.126,6.52,20.152C324.998,376.987,305.681,388.991,303.004,392.995z"></path></g></svg>