<svg xmlns="http://www.w3.org/2000/svg" width="500" height="500" version="1.1"><g id="x9077"><linearGradient id="hair2XMLID_812_" gradientUnits="userSpaceOnUse" x1="249.9995" y1="264.3428" x2="249.9995" y2="353.0545"><stop offset="0" style="stop-color:#FCFCE4"></stop><stop offset="0.5" style="stop-color:#A0C8DD"></stop><stop offset="1" style="stop-color:#5D6EC5"></stop></linearGradient><path style="fill:url(#hair2XMLID_812_);stroke:#1E1E1E;stroke-linecap:round;stroke-linejoin:round;" d="M292.979,283.683c-3.952-19.761,4.446-49.611,4.446-49.611L250,223.879l-47.425,10.192c0,0,8.398,29.851,4.446,49.611c-3.952,19.761-26.182,66.429-14.82,89.132c0.494-13.033,3.458-26.487,3.458-26.487s-5.434,26.067,12.844,34.896c-4.94-17.658,0.494-50.032,11.362-64.747c-1.457,9.916,2.337,60.438,30.134,69.358c27.798-8.92,31.592-59.442,30.135-69.358c10.868,14.715,16.303,47.089,11.362,64.747c18.277-8.829,12.844-34.896,12.844-34.896s2.965,13.454,3.458,26.487C319.161,350.111,296.931,303.443,292.979,283.683z"></path></g></svg>