<svg xmlns="http://www.w3.org/2000/svg" width="500" height="500" version="1.1"><g id="x9080"><g><linearGradient id="hair2XMLID_823_" gradientUnits="userSpaceOnUse" x1="249.9995" y1="125" x2="249.9995" y2="183.6671"><stop offset="0" style="stop-color:#FCFCE4"></stop><stop offset="0.5" style="stop-color:#A0C8DD"></stop><stop offset="1" style="stop-color:#5D6EC5"></stop></linearGradient><path style="fill:url(#hair2XMLID_823_);stroke:#1E1E1E;stroke-linecap:round;stroke-linejoin:round;" d="M323,226c0,0,16-32-3-68s-70-30.5-70-30.5s-51-5.5-70,30.5s-3,68-3,68s8.575,44.455,8,66c-1,37.5-9.5,53.5-9.5,53.5s27,15,53.5,15c2.5-7,9-23.5,9-23.5l-4.5,24c0,0,7.5,1.5,16.5,1c9,0.5,16.5-1,16.5-1l-4.5-24c0,0,6.5,16.5,9,23.5c26.5,0,53.5-15,53.5-15s-8.5-16-9.5-53.5C314.426,270.455,323,226,323,226z"></path><g><linearGradient id="hair2XMLID_824_" gradientUnits="userSpaceOnUse" x1="181.75" y1="125" x2="181.75" y2="183.667"><stop offset="0" style="stop-color:#FCFCE4"></stop><stop offset="0.5" style="stop-color:#A0C8DD"></stop><stop offset="1" style="stop-color:#5D6EC5"></stop></linearGradient><path style="fill:url(#hair2XMLID_824_);stroke:#1E1E1E;stroke-linecap:round;stroke-linejoin:round;" d="M180.063,236c0,0,7.5,48.5-4.5,62.5c5,3.5,7.5,5.5,7.5,5.5s8-21,3.5-51"></path><linearGradient id="hair2XMLID_825_" gradientUnits="userSpaceOnUse" x1="318.25" y1="125" x2="318.25" y2="183.667"><stop offset="0" style="stop-color:#FCFCE4"></stop><stop offset="0.5" style="stop-color:#A0C8DD"></stop><stop offset="1" style="stop-color:#5D6EC5"></stop></linearGradient><path style="fill:url(#hair2XMLID_825_);stroke:#1E1E1E;stroke-linecap:round;stroke-linejoin:round;" d="M319.937,236c0,0-7.5,48.5,4.5,62.5c-5,3.5-7.5,5.5-7.5,5.5s-8-21-3.5-51"></path></g></g></g></svg>