<svg xmlns="http://www.w3.org/2000/svg" width="500" height="500" version="1.1"><g id="x9085"><linearGradient id="hair2XMLID_879_" gradientUnits="userSpaceOnUse" x1="249.9995" y1="144.0649" x2="249.9995" y2="298.4574"><stop offset="0" style="stop-color:#FCFCE4"></stop><stop offset="0.5" style="stop-color:#A0C8DD"></stop><stop offset="1" style="stop-color:#5D6EC5"></stop></linearGradient><path style="fill:url(#hair2XMLID_879_);stroke:#1E1E1E;stroke-linecap:round;stroke-linejoin:round;" d="M351.667,256c-4.666-4-11-13-13.334-23c6.333-1,19,3.667,27,10c-2-4.333-13.333-17-20.333-22.333s-10.667-19.333-10.667-19.333C313.666,125.333,250,126,250,126s-63.666-0.667-84.333,75.333c0,0-3.667,14-10.667,19.333s-18.333,18-20.333,22.333c8-6.333,20.667-11,27-10c-2.334,10-8.668,19-13.334,23c10.667-2,21-6.666,26-20.333c-5.333,14.333-7.999,23.667-8.666,28.667c5-4,12.666-6,12.666-6s0,12.334,0,13c8.334-9.334,28-12.334,28-12.334s14.334,20.334,43.667,20.334S293.667,259,293.667,259s19.666,3,28,12.334c0-0.666,0-13,0-13s7.666,2,12.666,6c-0.667-5-3.333-14.334-8.666-28.667C330.667,249.334,341,254,351.667,256z"></path></g></svg>