<svg xmlns="http://www.w3.org/2000/svg" width="500" height="500" version="1.1"><g id="x9087"><g><g><linearGradient id="hair2XMLID_895_" gradientUnits="userSpaceOnUse" x1="220.1553" y1="52.7939" x2="220.1553" y2="362.0552"><stop offset="0" style="stop-color:#FCFCE4"></stop><stop offset="0.5" style="stop-color:#A0C8DD"></stop><stop offset="1" style="stop-color:#5D6EC5"></stop></linearGradient><path style="fill:url(#hair2XMLID_895_);stroke:#1E1E1E;stroke-linecap:round;stroke-linejoin:round;" d="M209.254,64.127c3.337-6.109,9.458-9.647,12.795-12.863c3.339-3.214,15.023-10.611,27.821-10.29c12.797,0.321,42.844,5.466,51.188,36.015c8.346,30.547,5.621,69.948-19.472,116.081c-37.583,69.095-123.567,153.524-124.29,203.725s37.036,40.548,37.036,40.548s-52.568,11.652-51.479-51.663c-5.003-17.125-17.966-27.96,7.011-66.993c0,0,55.809-77.194,51.153-130.275C193,97,205.913,70.236,209.254,64.127z"></path><path style="fill:none;stroke:#000000;stroke-linecap:round;stroke-linejoin:round;" d="M142.854,385.68c0,0,2.146-39.679,30.813-66.013"></path><path style="fill:none;stroke:#000000;stroke-linecap:round;stroke-linejoin:round;" d="M143.667,376c0-1-3.833-26.166,14-55.333S191.5,274.5,200.5,250.5"></path></g><g><path style="fill:none;stroke:#000000;stroke-linecap:round;stroke-linejoin:round;" d="M260.25,117c0-1.333,7.75-48,37.75-48.333"></path><path style="fill:none;stroke:#000000;stroke-linecap:round;stroke-linejoin:round;" d="M268.667,91.333c0,0,10.104-16.333,31.437-17"></path></g><g><path style="fill:none;stroke:#000000;stroke-linecap:round;stroke-linejoin:round;" d="M221,52c0,0-12,39.667,3,64.667"></path><path style="fill:none;stroke:#000000;stroke-linecap:round;stroke-linejoin:round;" d="M211,62c0,0-8.667,29,14,55.333"></path></g></g></g></svg>