<svg xmlns="http://www.w3.org/2000/svg" width="500" height="500" version="1.1"><g id="x9088"><g><linearGradient id="hair2XMLID_896_" gradientUnits="userSpaceOnUse" x1="250.0005" y1="213" x2="250.0005" y2="156.9999"><stop offset="0" style="stop-color:#FCFCE4"></stop><stop offset="0.5" style="stop-color:#A0C8DD"></stop><stop offset="1" style="stop-color:#5D6EC5"></stop></linearGradient><path style="fill:url(#hair2XMLID_896_);stroke:#1E1E1E;stroke-linecap:round;stroke-linejoin:round;" d="M305.667,150.333c-23-26-55.667-23-55.667-23s-32.667-3-55.667,23s-15,73.667-15,73.667l13.334,28.333c0,0,5.332,14.334,13.666,23.334c3.667,10.333-1.666,20-1.666,20c8-5.667,10.666-15,10.666-15s4.917,2.583,8.167,12.583c7.5-4.375,9.5-14.916,9.5-14.916S241.667,292,250,296c8.333-4,17-17.666,17-17.666s2,10.541,9.5,14.916c3.25-10,8.167-12.583,8.167-12.583s2.666,9.333,10.666,15c0,0-5.333-9.667-1.666-20c8.334-9,13.666-23.334,13.666-23.334L320.667,224C320.667,224,328.667,176.333,305.667,150.333z"></path><g><linearGradient id="hair2XMLID_897_" gradientUnits="userSpaceOnUse" x1="296.667" y1="213" x2="296.667" y2="157"><stop offset="0" style="stop-color:#FCFCE4"></stop><stop offset="0.5" style="stop-color:#A0C8DD"></stop><stop offset="1" style="stop-color:#5D6EC5"></stop></linearGradient><path style="fill:url(#hair2XMLID_897_);stroke:#1E1E1E;stroke-linecap:round;stroke-linejoin:round;" d="M296.479,265.5c0,0-0.875,11.75,9.75,15.375c-9,2-15.75-0.625-19.125-9.375"></path><linearGradient id="hair2XMLID_898_" gradientUnits="userSpaceOnUse" x1="203.333" y1="213" x2="203.333" y2="157"><stop offset="0" style="stop-color:#FCFCE4"></stop><stop offset="0.5" style="stop-color:#A0C8DD"></stop><stop offset="1" style="stop-color:#5D6EC5"></stop></linearGradient><path style="fill:url(#hair2XMLID_898_);stroke:#1E1E1E;stroke-linecap:round;stroke-linejoin:round;" d="M203.521,265.5c0,0,0.875,11.75-9.75,15.375c9,2,15.75-0.625,19.125-9.375"></path></g></g></g></svg>