<svg xmlns="http://www.w3.org/2000/svg" width="500" height="500" version="1.1"><g id="x009"><g><linearGradient id="hair2XMLID_508_" gradientUnits="userSpaceOnUse" x1="252.7051" y1="316" x2="252.7051" y2="259.0001"><stop offset="0" style="stop-color:#FCFCE4"></stop><stop offset="0.5" style="stop-color:#A0C8DD"></stop><stop offset="1" style="stop-color:#5D6EC5"></stop></linearGradient><path style="fill:url(#hair2XMLID_508_);stroke:#1E1E1E;stroke-linecap:round;stroke-linejoin:round;" d="M321.414,301.042c0.523-4.722-0.729-18.563-0.627-22.831c0.444-18.047,14.415-28.711,12.221-61.574c-2.192-32.862-10.581-60.892-27.753-81.92c-20.21-24.741-51.283-16.823-55.484-16.823c-4.202,0-32.472-4.727-55.485,16.823c-19.511,18.271-26.091,56.669-19.825,91.261c4.251,23.466,7.658,24.933,10.654,38.396c4.09,18.381,2.336,32.103,1.985,34.131c-3.343,19.371-13.37,47.045,10.027,69.185c-1.672-19.371,0.834-51.655,13.369-59.036c-2.506,20.293-12.535,37.82,8.356,54.425c4.178-28.598,32.588-46.123,32.588-46.123s-8.357,29.517,15.037,45.199c-0.837-11.99,3.342-34.13,3.342-34.13s21.724,19.372,15.875,41.51C298.854,362.27,317.773,334.083,321.414,301.042z"></path><linearGradient id="hair2XMLID_509_" gradientUnits="userSpaceOnUse" x1="170.7007" y1="316" x2="170.7007" y2="259"><stop offset="0" style="stop-color:#FCFCE4"></stop><stop offset="0.5" style="stop-color:#A0C8DD"></stop><stop offset="1" style="stop-color:#5D6EC5"></stop></linearGradient><path style="fill:url(#hair2XMLID_509_);stroke:#1E1E1E;stroke-linecap:round;stroke-linejoin:round;" d="M173.942,210.489c0,0,6.473,30.363,0.205,39.357c-6.267,8.994-19.427,27.673-20.681,38.743c-1.253,11.068,6.268,17.296,6.268,17.296s1.253,16.603-10.027,14.528c5.64,8.303,21.934,9.687,24.44-7.609c3.918-0.242,7.006-3.07,9.444-7.586c4.582-8.489,6.877-22.937,8.103-37.386"></path><linearGradient id="hair2XMLID_510_" gradientUnits="userSpaceOnUse" x1="175.3198" y1="316" x2="175.3198" y2="259"><stop offset="0" style="stop-color:#FCFCE4"></stop><stop offset="0.5" style="stop-color:#A0C8DD"></stop><stop offset="1" style="stop-color:#5D6EC5"></stop></linearGradient><path style="fill:url(#hair2XMLID_510_);stroke:#1E1E1E;stroke-linecap:round;stroke-linejoin:round;" d="M187.308,303.809c0,0,0,24.907-8.774,24.907c-3.133,2.767-6.893,23.521,1.254,26.98c-13.161-0.69-20.054-20.063-14.414-27.673c-5.014-13.146-0.627-24.907,11.28-44.968"></path><linearGradient id="hair2XMLID_511_" gradientUnits="userSpaceOnUse" x1="194.5659" y1="316" x2="194.5659" y2="259"><stop offset="0" style="stop-color:#FCFCE4"></stop><stop offset="0.5" style="stop-color:#A0C8DD"></stop><stop offset="1" style="stop-color:#5D6EC5"></stop></linearGradient><path style="fill:url(#hair2XMLID_511_);stroke:#1E1E1E;stroke-linecap:round;stroke-linejoin:round;" d="M187.685,295.507c0,0-11.28,20.063-10.653,32.517c0.626,12.452,11.734,20.755,11.734,20.755s4.56,13.838-6.721,15.221c2.507,3.459,20.68,4.151,21.308-14.53c0.626-18.679,8.773-44.276,8.773-44.276"></path><linearGradient id="hair2XMLID_512_" gradientUnits="userSpaceOnUse" x1="336.5195" y1="316" x2="336.5195" y2="259"><stop offset="0" style="stop-color:#FCFCE4"></stop><stop offset="0.5" style="stop-color:#A0C8DD"></stop><stop offset="1" style="stop-color:#5D6EC5"></stop></linearGradient><path style="fill:url(#hair2XMLID_512_);stroke:#1E1E1E;stroke-linecap:round;stroke-linejoin:round;" d="M330.889,212c0,0-4.083,28.852,2.184,37.846c6.268,8.994,19.427,27.673,20.681,38.743c1.253,11.068-6.268,17.296-6.268,17.296s-1.252,16.603,10.028,14.528c-5.641,8.303-21.934,9.687-24.441-7.609c-3.916-0.242-7.004-3.07-9.441-7.586c-4.582-8.489-6.879-22.937-8.104-37.386"></path><linearGradient id="hair2XMLID_513_" gradientUnits="userSpaceOnUse" x1="331.9004" y1="316" x2="331.9004" y2="259"><stop offset="0" style="stop-color:#FCFCE4"></stop><stop offset="0.5" style="stop-color:#A0C8DD"></stop><stop offset="1" style="stop-color:#5D6EC5"></stop></linearGradient><path style="fill:url(#hair2XMLID_513_);stroke:#1E1E1E;stroke-linecap:round;stroke-linejoin:round;" d="M319.911,303.809c0,0,0,24.907,8.774,24.907c3.133,2.767,6.895,23.521-1.253,26.98c13.159-0.69,20.053-20.063,14.414-27.673c5.014-13.146,0.625-24.907-11.281-44.968"></path><linearGradient id="hair2XMLID_514_" gradientUnits="userSpaceOnUse" x1="312.6553" y1="316" x2="312.6553" y2="259"><stop offset="0" style="stop-color:#FCFCE4"></stop><stop offset="0.5" style="stop-color:#A0C8DD"></stop><stop offset="1" style="stop-color:#5D6EC5"></stop></linearGradient><path style="fill:url(#hair2XMLID_514_);stroke:#1E1E1E;stroke-linecap:round;stroke-linejoin:round;" d="M319.535,295.507c0,0,11.28,20.063,10.655,32.517c-0.628,12.452-11.734,20.755-11.734,20.755s-4.562,13.838,6.719,15.221c-2.506,3.459-20.681,4.151-21.307-14.53c-0.628-18.679-8.773-44.276-8.773-44.276"></path></g></g></svg>