<svg xmlns="http://www.w3.org/2000/svg" width="500" height="500" version="1.1"><g id="x9090"><g><g><linearGradient id="hair2XMLID_908_" gradientUnits="userSpaceOnUse" x1="249.9995" y1="346.0166" x2="249.9995" y2="409.683"><stop offset="0" style="stop-color:#FCFCE4"></stop><stop offset="0.5" style="stop-color:#A0C8DD"></stop><stop offset="1" style="stop-color:#5D6EC5"></stop></linearGradient><path style="fill:url(#hair2XMLID_908_);stroke:#1E1E1E;stroke-linecap:round;stroke-linejoin:round;" d="M267.334,393.667c0.666-15.333-4.668-79.333-17.334-92c-12.666,12.667-18,76.667-17.334,92c0.667,15.333,1.334,34-6,46.667c2,0,12.667-6.667,16-12c0,5.333,7.334,14.667,7.334,14.667s7.334-9.334,7.334-14.667c3.334,5.333,14,12,16,12C266,427.667,266.668,409,267.334,393.667z"></path></g><linearGradient id="hair2XMLID_909_" gradientUnits="userSpaceOnUse" x1="250" y1="207.4854" x2="250" y2="316.3185"><stop offset="0" style="stop-color:#FCFCE4"></stop><stop offset="0.5" style="stop-color:#A0C8DD"></stop><stop offset="1" style="stop-color:#5D6EC5"></stop></linearGradient><path style="fill:url(#hair2XMLID_909_);stroke:#1E1E1E;stroke-linecap:round;stroke-linejoin:round;" d="M330.355,197.053c-5.691-34.124-21.554-41.954-21.554-41.954S301,131.973,250,131.673c-51,0.3-58.801,23.427-58.801,23.427s-15.862,7.83-21.554,41.954c-5.693,34.123-7.96,58.275-0.978,104.643c7.232,48.022,57.138,64.292,81.333,71.576c24.195-7.284,74.102-23.554,81.334-71.576C338.316,255.328,336.049,231.176,330.355,197.053z"></path></g></g></svg>