<svg xmlns="http://www.w3.org/2000/svg" width="500" height="500" version="1.1"><g id="x9091"><g><linearGradient id="hair2XMLID_910_" gradientUnits="userSpaceOnUse" x1="255.0859" y1="172.7202" x2="255.0859" y2="859.2222"><stop offset="0" style="stop-color:#FCFCE4"></stop><stop offset="0.5" style="stop-color:#A0C8DD"></stop><stop offset="1" style="stop-color:#5D6EC5"></stop></linearGradient><path style="fill:url(#hair2XMLID_910_);stroke:#1E1E1E;stroke-linecap:round;stroke-linejoin:round;" d="M276.314,109.782c-1.164-12.379-7.773-28.29-27.499-28.29c-19.726,0-28.18,15.728-28.18,29.091c0,1.679,30.81,270.961,7.191,321.417c11.66-5.692,21.767-27.756,21.767-27.756c-1.555,12.099-6.997,24.198-9.329,26.333c11.661-9.252,33.177-35.219,42.753-110.313C300.898,180.062,276.314,109.782,276.314,109.782z"></path><path style="fill:#FFFFFF;stroke:#000000;stroke-linecap:round;stroke-linejoin:round;" d="M276.867,110.948c-4.451-5.113-27.663-5.843-27.663-5.843s-23.211,0.73-27.663,5.843c-1.749,2.009-4.133,9.496-4.133,9.496L249.204,123L281,120.444C281,120.444,278.616,112.957,276.867,110.948z"></path></g></g></svg>