<svg xmlns="http://www.w3.org/2000/svg" width="500" height="500" version="1.1"><g id="x9092"><g><linearGradient id="hair2XMLID_911_" gradientUnits="userSpaceOnUse" x1="249.9995" y1="157.5" x2="249.9995" y2="324.4993"><stop offset="0" style="stop-color:#FCFCE4"></stop><stop offset="0.5" style="stop-color:#A0C8DD"></stop><stop offset="1" style="stop-color:#5D6EC5"></stop></linearGradient><path style="fill:url(#hair2XMLID_911_);stroke:#1E1E1E;stroke-linecap:round;stroke-linejoin:round;" d="M318,175c-8.666-51.667-68-48.333-68-48.333s-59.333-3.334-68,48.333c0,0-4,42.334,11.333,67.667s20,29,21.667,36h4.008c2.107,4.242,3.562,8.739,3.66,13.333c2.333-6.666,3.333-12.666,3.333-12.666s4.667,6.666,9,10.666c-0.333-3.666,4.333-11,4.333-11s7.317,9.497,10.666,12.992c3.349-3.495,10.666-12.992,10.666-12.992s4.666,7.334,4.333,11c4.333-4,9-10.666,9-10.666s1,6,3.333,12.666c0.098-4.594,1.553-9.091,3.66-13.333H285c1.666-7,6.334-10.667,21.666-36C322,217.334,318,175,318,175z"></path><g><linearGradient id="hair2XMLID_912_" gradientUnits="userSpaceOnUse" x1="284.167" y1="157.5" x2="284.167" y2="324.5"><stop offset="0" style="stop-color:#FCFCE4"></stop><stop offset="0.5" style="stop-color:#A0C8DD"></stop><stop offset="1" style="stop-color:#5D6EC5"></stop></linearGradient><path style="fill:url(#hair2XMLID_912_);stroke:#1E1E1E;stroke-linecap:round;stroke-linejoin:round;" d="M288.188,264.001c-1,1.333-7.332,18.667,0.668,29c-9.668-10.334-10.334-19.666-8.668-26"></path><linearGradient id="hair2XMLID_913_" gradientUnits="userSpaceOnUse" x1="215.8335" y1="157.5" x2="215.8335" y2="324.5"><stop offset="0" style="stop-color:#FCFCE4"></stop><stop offset="0.5" style="stop-color:#A0C8DD"></stop><stop offset="1" style="stop-color:#5D6EC5"></stop></linearGradient><path style="fill:url(#hair2XMLID_913_);stroke:#1E1E1E;stroke-linecap:round;stroke-linejoin:round;" d="M211.812,264.001c1,1.333,7.333,18.667-0.667,29c9.667-10.334,10.334-19.666,8.667-26"></path></g></g></g></svg>