<svg xmlns="http://www.w3.org/2000/svg" width="500" height="500" version="1.1"><g id="x9095"><linearGradient id="hair2XMLID_916_" gradientUnits="userSpaceOnUse" x1="250.0005" y1="247" x2="250.0005" y2="186.3335"><stop offset="0" style="stop-color:#FCFCE4"></stop><stop offset="0.5" style="stop-color:#A0C8DD"></stop><stop offset="1" style="stop-color:#5D6EC5"></stop></linearGradient><path style="fill:url(#hair2XMLID_916_);stroke:#1E1E1E;stroke-linecap:round;stroke-linejoin:round;" d="M335,255.173c-14.14-3.819-15.729-20.37-15.729-20.37s17.158-33.101,1.271-63.655S250,132,250,132s-54.655,8.594-70.542,39.148c-15.887,30.554,1.271,63.655,1.271,63.655s-1.589,16.551-15.729,20.37c0,0,6.196,8.912,20.813,8.275c-4.448,5.093-7.626,12.73-7.626,12.73s17.159,3.819,30.504-3.819c-1.906,6.366,1.907,14.641,1.907,14.641s25.422-0.636,39.402-12.73c13.98,12.095,39.402,12.73,39.402,12.73s3.813-8.274,1.906-14.641c13.346,7.639,30.505,3.819,30.505,3.819s-3.178-7.638-7.626-12.73C328.805,264.085,335,255.173,335,255.173z"></path></g></svg>