<svg xmlns="http://www.w3.org/2000/svg" width="500" height="500" version="1.1"><g id="x9096"><linearGradient id="hair2XMLID_917_" gradientUnits="userSpaceOnUse" x1="249.9995" y1="150.6333" x2="249.9995" y2="395.9036"><stop offset="0" style="stop-color:#FCFCE4"></stop><stop offset="0.5" style="stop-color:#A0C8DD"></stop><stop offset="1" style="stop-color:#5D6EC5"></stop></linearGradient><path style="fill:url(#hair2XMLID_917_);stroke:#1E1E1E;stroke-linecap:round;stroke-linejoin:round;" d="M186.639,236.859l0.103,0.063C186.489,235.979,186.404,235.817,186.639,236.859z M317.5,202.875c0-41.491-30.221-75.125-67.5-75.125s-67.5,33.634-67.5,75.125c0,13.342,4.242,34.047,4.242,34.047c1.073,3.994,5.197,22.103,1.174,23.397l9.786-3.71c0,0-1.871,11.23-4.254,12.232c0,0,5.776-2.391,10.506-7.693c-0.41,4.881-1.875,11.227-6.58,13.271c0,0,14.127,2.011,16.681-6.768c0,0,1.017-0.465,2.739,0.62c-1.452,3.413-3.368,8.905-2.484,12.471c0,0,2.042-4.025,8.51-4.208c6.468-0.182,4.767,8.049,4.767,8.049s6.042-2.768,7.693-8.397C240.02,277.361,244.941,278,250,278c5.104,0,10.068-0.651,14.848-1.846c1.638,5.651,7.704,8.43,7.704,8.43s-1.702-8.23,4.766-8.049c6.469,0.183,8.512,4.208,8.512,4.208c0.891-3.589-1.059-9.133-2.514-12.54c1.816-1.15,2.769-0.551,2.769-0.551c2.553,8.778,16.683,6.768,16.683,6.768c-5.509-2.393-6.579-10.681-6.712-15.612c4.754,5.405,10.637,7.842,10.637,7.842c-2.384-1.002-4.255-12.232-4.255-12.232l9.787,3.71c-3.745-1.203,1.276-23.46,1.276-23.46S317.5,215.015,317.5,202.875z"></path></g></svg>