<svg xmlns="http://www.w3.org/2000/svg" width="500" height="500" version="1.1"><g id="x001"><circle style="fill:#FFFFFE;" cx="274.333" cy="226" r="2.333"></circle><g><g><g><path style="fill:#C2BFDC;" d="M194.731,227.83c4.031-5.533,11.065-11.382,18.731-11.856c7.669-0.475,17.313,4.979,17.313,4.979s1.196,3.212,1.798,7.395c-12.023,0.25-26.514,2.003-36.675,9.305C195.037,234.325,194.362,230.215,194.731,227.83z"></path><path style="fill:#FFFFFF;" d="M231.959,239.053c-2.688,7.747-7.826,10.513-13.042,11.303c-7.825,0-10.434-0.711-13.199-2.134c-2.767-1.423-6.799-4.032-7.985-5.534c-0.496-0.63-1.214-2.63-1.836-5.036c10.161-7.302,24.652-9.055,36.675-9.305C233.05,231.677,233.15,235.62,231.959,239.053z"></path><g><g><path d="M234.594,223.905c0,0-6.957-9.485-13.069-12.225c-6.324-1.266-21.5,2.318-27.19,9.064c-2.738,0.209-6.955,0.842-7.166,2.106c-0.209,1.265,5.27,8.431,5.27,8.431l0.633,0.844c0,0,8.432-12.648,21.71-14.333C224.478,215.895,234.594,223.905,234.594,223.905z"></path><path d="M214.36,212.733c0,0-7.586-5.06-9.695-4.849c0,0-3.372,6.535-3.795,9.064C205.93,214.629,214.36,212.733,214.36,212.733z"></path><path d="M220.051,213.787c0,0,9.481-1.687,15.386,0.842c-5.27-3.372-16.65-4.426-21.077-2.529C217.099,212.944,220.051,213.787,220.051,213.787z"></path></g><path d="M235.227,210.626c0,0-7.166-4.427-14.544-4.427C228.062,204.934,232.488,207.043,235.227,210.626z"></path></g><g><path d="M195.39,234.443c0,0,1.053,6.954,3.372,9.274c-2.948-0.842-5.901-2.95-5.901-4.637S195.39,234.443,195.39,234.443z"></path><path d="M206.507,248.697c0,0-1.738-1.581-2.133-1.581c-0.395,0-1.503,1.027-1.106,1.344C203.663,248.776,206.033,249.092,206.507,248.697z"></path><path d="M210.855,250.356c0,0-1.501-0.711-1.819-0.711c-0.314,0-1.501,1.66-0.869,1.897C208.799,251.779,210.775,250.988,210.855,250.356z"></path></g><g><path d="M205.014,232.763c-0.77,9.581,4.718,16.999,11.518,17.529c7.359,0.573,14.569-5.716,15.392-14.431c0.909-9.658-5.939-18.25-13.281-18.947C211.296,216.216,205.915,221.531,205.014,232.763z"></path><path style="fill:#A2D7DD;" d="M228.823,233.926c0.709-0.694-0.792-13.107-12.235-13.293c-9.163-0.149-9.741,13.352-8.611,14.165c1.131,0.813,7.064-1.688,10.085-1.493C221.083,233.5,228.111,234.62,228.823,233.926z"></path><path style="opacity:0.5;" d="M228.823,233.926c0.709-0.694-0.792-13.107-12.235-13.293c-9.163-0.149-9.741,13.352-8.611,14.165c1.131,0.813,7.064-1.688,10.085-1.493C221.083,233.5,228.111,234.62,228.823,233.926z"></path><ellipse transform="matrix(0.7919 -0.6106 0.6106 0.7919 -93.3498 176.9339)" style="opacity:0.5;fill:#FFFFFE;" cx="212.945" cy="225.442" rx="5.572" ry="4.032"></ellipse><path style="fill:#A2D7DD;" d="M229.407,236.034c0.004-0.233-4.658-1.338-10.879-1.074c-6.899,0.294-10.295,1.333-10.402,1.844c-0.108,0.51-0.532,7.067,5.102,10.316c2.02,1.165,8.753,0.788,9.749,0.26C223.972,246.853,229.33,241.799,229.407,236.034z"></path><ellipse transform="matrix(-0.9974 -0.0719 0.0719 -0.9974 422.0974 485.2144)" cx="219.784" cy="235.008" rx="2.648" ry="3.596"></ellipse><path style="fill:#FFFFFE;" d="M211.165,225.724c-0.796,1.278-2.75,1.505-4.36,0.502c-1.614-1.002-2.279-2.851-1.482-4.129c0.793-1.28,2.745-1.506,4.357-0.504C211.297,222.596,211.958,224.444,211.165,225.724z"></path><path style="fill:#FFFFFE;" d="M212.372,228.657c0.021,0.568-0.584,1.047-1.349,1.073c-0.763,0.025-1.395-0.414-1.417-0.981c-0.017-0.568,0.588-1.047,1.349-1.073C211.719,227.651,212.355,228.09,212.372,228.657z"></path><path style="fill:#FFFFFE;" d="M223.277,244.84c-0.453,0.441,0.244,2.01,0.989,2.776c0.745,0.766,1.258,0.442,1.711,0.001c0.455-0.443,0.678-0.833-0.068-1.6C225.167,245.251,223.732,244.397,223.277,244.84z"></path><path style="fill:#FFFFFE;" d="M210.528,242.021c0.27,0.572-0.933,1.797-1.898,2.255c-0.966,0.457-1.334-0.027-1.604-0.598c-0.271-0.574-0.343-1.018,0.623-1.475C208.616,241.746,210.258,241.448,210.528,242.021z"></path><ellipse transform="matrix(0.9841 0.1779 -0.1779 0.9841 44.677 -37.1836)" style="fill:#FFFFFE;" cx="229.705" cy="230.564" rx="1.501" ry="1.067"></ellipse><path style="opacity:0.5;fill:#FFFFFF;" d="M218.605,247.573c0,0,5.29,0.263,5.681-0.899c0.393-1.163-0.375-6.44-5.764-6.393c-5.389,0.048-6.86,6.142-5.665,6.762C214.773,248.039,217.25,247.723,218.605,247.573z"></path><path style="opacity:0.5;fill:#FFFFFE;" d="M223.603,240.224c-0.497,0.69-0.1,1.829,0.893,2.545c0.994,0.716,2.198,0.734,2.697,0.045c0.498-0.691,0.101-1.831-0.892-2.546C225.306,239.553,224.099,239.533,223.603,240.224z"></path></g></g></g><g id="lefteye_36_"><g><path style="fill:#C2BFDC;" d="M305.269,227.83c-4.031-5.533-11.065-11.382-18.73-11.856c-7.669-0.475-17.313,4.979-17.313,4.979s-1.196,3.212-1.798,7.395c12.022,0.25,26.514,2.003,36.675,9.305C304.964,234.325,305.638,230.215,305.269,227.83z"></path><path style="fill:#FFFFFF;" d="M268.042,239.053c2.686,7.747,7.824,10.513,13.04,11.303c7.825,0,10.435-0.711,13.199-2.134c2.768-1.423,6.799-4.032,7.984-5.534c0.496-0.63,1.215-2.63,1.837-5.036c-10.161-7.302-24.652-9.055-36.675-9.305C266.949,231.677,266.85,235.62,268.042,239.053z"></path><g><g><path d="M265.406,223.905c0,0,6.956-9.485,13.068-12.225c6.323-1.266,21.499,2.318,27.19,9.064c2.738,0.209,6.954,0.842,7.166,2.106c0.209,1.265-5.27,8.431-5.27,8.431l-0.633,0.844c0,0-8.433-12.648-21.71-14.333C275.521,215.895,265.406,223.905,265.406,223.905z"></path><path d="M285.641,212.733c0,0,7.585-5.06,9.693-4.849c0,0,3.372,6.535,3.795,9.064C294.069,214.63,285.641,212.733,285.641,212.733z"></path><path d="M279.948,213.787c0,0-9.481-1.687-15.386,0.842c5.27-3.372,16.65-4.426,21.078-2.529C282.9,212.944,279.948,213.787,279.948,213.787z"></path></g><path d="M264.773,210.626c0,0,7.165-4.427,14.544-4.427C271.938,204.934,267.512,207.043,264.773,210.626z"></path></g><g><path d="M304.609,234.443c0,0-1.053,6.954-3.372,9.274c2.949-0.842,5.901-2.95,5.901-4.637S304.609,234.443,304.609,234.443z"></path><path d="M293.491,248.697c0,0,1.739-1.581,2.135-1.581c0.395,0,1.503,1.027,1.106,1.344C296.337,248.776,293.967,249.092,293.491,248.697z"></path><path d="M289.145,250.356c0,0,1.503-0.711,1.818-0.711s1.501,1.66,0.87,1.897C291.2,251.779,289.224,250.988,289.145,250.356z"></path></g><g><path d="M294.986,232.763c0.77,9.581-4.719,16.999-11.518,17.529c-7.359,0.573-14.571-5.716-15.393-14.431c-0.911-9.658,5.938-18.25,13.281-18.947C288.704,216.216,294.087,221.531,294.986,232.763z"></path><path style="fill:#A2D7DD;" d="M271.178,233.926c-0.712-0.694,0.791-13.107,12.232-13.293c9.166-0.149,9.743,13.352,8.612,14.165c-1.133,0.813-7.063-1.688-10.085-1.493C278.919,233.5,271.889,234.62,271.178,233.926z"></path><path style="opacity:0.5;" d="M271.178,233.926c-0.712-0.694,0.791-13.107,12.232-13.293c9.166-0.149,9.743,13.352,8.612,14.165c-1.133,0.813-7.063-1.688-10.085-1.493C278.919,233.5,271.889,234.62,271.178,233.926z"></path><ellipse transform="matrix(0.7919 -0.6106 0.6106 0.7919 -79.8647 216.5181)" style="opacity:0.5;fill:#FFFFFE;" cx="277.757" cy="225.442" rx="5.571" ry="4.032"></ellipse><path style="fill:#A2D7DD;" d="M270.593,236.034c-0.003-0.233,4.657-1.338,10.88-1.074c6.899,0.294,10.297,1.333,10.402,1.844c0.107,0.51,0.53,7.067-5.104,10.316c-2.02,1.165-8.753,0.788-9.748,0.26C276.027,246.853,270.671,241.799,270.593,236.034z"></path><ellipse transform="matrix(0.9974 -0.0719 0.0719 0.9974 -16.1751 20.7603)" cx="280.215" cy="235.008" rx="2.648" ry="3.596"></ellipse><ellipse transform="matrix(0.8497 0.5273 -0.5273 0.8497 159.13 -110.3289)" style="fill:#FFFFFE;" cx="273.055" cy="223.91" rx="3.439" ry="2.726"></ellipse><ellipse transform="matrix(0.9994 -0.0332 0.0332 0.9994 -7.4377 9.2785)" style="fill:#FFFFFE;" cx="275.8" cy="228.703" rx="1.383" ry="1.027"></ellipse><path style="fill:#FFFFFE;" d="M276.722,244.84c0.455,0.441-0.244,2.01-0.988,2.776c-0.747,0.766-1.258,0.442-1.711,0.001c-0.454-0.443-0.678-0.833,0.066-1.6C274.834,245.251,276.269,244.397,276.722,244.84z"></path><path style="fill:#FFFFFE;" d="M289.472,242.021c-0.271,0.573,0.931,1.797,1.898,2.255c0.966,0.457,1.333-0.027,1.603-0.598c0.271-0.574,0.344-1.018-0.622-1.475C291.384,241.746,289.742,241.448,289.472,242.021z"></path><ellipse transform="matrix(0.984 0.1779 -0.1779 0.984 45.7268 -48.7267)" style="fill:#FFFFFE;" cx="294.515" cy="230.564" rx="1.501" ry="1.067"></ellipse><path style="opacity:0.5;fill:#FFFFFE;" d="M281.395,247.573c0,0-5.291,0.263-5.68-0.899c-0.395-1.163,0.374-6.44,5.763-6.393c5.389,0.048,6.86,6.142,5.666,6.762C285.227,248.039,282.751,247.723,281.395,247.573z"></path><path style="opacity:0.5;fill:#FFFFFE;" d="M276.397,240.224c0.497,0.69,0.099,1.829-0.891,2.545c-0.995,0.716-2.202,0.734-2.699,0.045c-0.497-0.691-0.098-1.831,0.891-2.546C274.693,239.553,275.901,239.533,276.397,240.224z"></path></g></g></g></g></g></svg>