<svg xmlns="http://www.w3.org/2000/svg" width="500" height="500" version="1.1"><g id="x010"><g><g><g><path style="fill:#FFFFFF;" d="M196.43,236.266c0,0,3.932,9.073,15.694,9.751c4.309,0.683,12.475,0.227,12.475,0.227s5.473-9.071,5.473-20.186c-5.669-4.309-10.01-5.896-10.01-5.896s-22.417,2.934-26.807,5.821C193.708,228.48,194.616,233.998,196.43,236.266z"></path><path style="fill:#E4E0F3;" d="M194.884,228.1c0,0-0.117,6.882,1.697,7.56c3.856-3.174,16.422-6.062,21.439-5.745c5.017,0.318,13.306,4.461,13.306,4.461s-1.557-3.101-1.934-8.317c-5.443-4.309-11.826-6.35-11.826-6.35S196.927,222.429,194.884,228.1z"></path></g><g><path style="fill:#A2D7DD;" d="M207.468,226.406c0,0,0.757,20.716,12.897,20.716c6.027,0.001,8.57-6.563,8.57-9.444c-0.451-9.079-0.678-15.429-9.305-15.808C206.946,221.315,207.468,226.406,207.468,226.406z"></path><path style="fill:#84B9BF;" d="M219.631,221.871c-12.685-0.555-12.163,4.536-12.163,4.536s0.184,4.937,1.781,9.992c4.775-6.506,12.973-5.489,19.545-1.39C228.352,227.38,227.382,222.21,219.631,221.871z"></path><ellipse style="opacity:0.8;fill:#FFFFFF;" cx="220.015" cy="243.789" rx="5.103" ry="2.949"></ellipse><ellipse style="fill:#FFFFFE;" cx="220.348" cy="241.311" rx="1.587" ry="1.08"></ellipse><path d="M213.517,231.73c0,0,1.134,9.979,5.744,12.398C212.382,241.483,213.517,231.73,213.517,231.73z"></path><path d="M226.782,231.73c0,0,1.814,9.375-5.746,12.398C226.897,240.347,226.782,231.73,226.782,231.73z"></path><g><path d="M205.804,225.379c0,0-1.965,15.574,8.619,20.563c1.058,0.758,2.119,0.152,2.119,0.152s-8.771-5.747-7.108-21.32C207.468,224.623,205.804,225.379,205.804,225.379z"></path><path d="M228.864,232.612c0,0-0.26,10.747-6.027,14.419c3.668,1.046,8.041-3.898,8.564-13.336C229.567,233.435,228.864,232.612,228.864,232.612z"></path><ellipse style="fill:#FFFFFE;" cx="212.472" cy="239.593" rx="3.477" ry="1.965"></ellipse><path style="opacity:0.3;fill:#FFFFFF;" d="M211.837,232.534c-0.949,0.54-1.979,0.517-2.306-0.052c-0.324-0.567,0.181-1.467,1.129-2.011c0.945-0.54,1.978-0.518,2.303,0.051C213.289,231.09,212.785,231.99,211.837,232.534z"></path><ellipse transform="matrix(0.4956 0.8685 -0.8685 0.4956 310.1259 -66.843)" style="opacity:0.3;fill:#FFFFFF;" cx="212.616" cy="233.602" rx="0.682" ry="1.138"></ellipse><ellipse cx="220.545" cy="234.793" rx="1.59" ry="3.741"></ellipse><path d="M221.667,231.958c0.048,0.495,0.08,1.025,0.08,1.587c0,2.507-0.54,4.536-1.209,4.536c-0.667,0-1.21-2.028-1.21-4.536c0-0.562,0.032-1.092,0.082-1.586c-0.641,0.793-1.073,2.224-1.073,3.875c0,2.505,0.988,4.536,2.202,4.536c1.217,0,2.202-2.031,2.202-4.536C222.739,234.181,222.306,232.75,221.667,231.958z"></path><path d="M229.711,225.077c0,0,2.54,7.107,1.331,11.038c-1.361,0.906-2.54,0.152-2.54,0.152s0.664-7.486-2.572-12.096C227.442,223.867,229.711,225.077,229.711,225.077z"></path></g><path d="M216.092,245.531l-8.247-0.534l5.101,2.37c0,0,5.765-0.42,6.946-0.212C217.665,246.579,216.092,245.531,216.092,245.531z"></path><path d="M210.589,213.888c0,0,12.056,0.692,17.561,2.527c5.504,1.835,12.327,6.028,12.327,6.028s-6.752-7.146-12.067-8.125C218.452,212.484,210.589,213.888,210.589,213.888z"></path></g><g><g><path d="M239.225,230.088c0,0-14.654-2.368-22.307-3.349c-7.653-0.98-25.774,1.202-25.774,1.202l-9.595-6.109l13.854-0.617c0,0,12.277-2.381,22.165-1.506c8.219,1.758,21.96,5.995,21.96,5.995l-9.455,0.355L239.225,230.088z"></path><path d="M197.64,226.514c0,0-2.041,10.66,5.216,16.782c-4.99-1.134-9.072-6.803-13.078-16.859C192.952,225.983,197.64,226.514,197.64,226.514z"></path><path d="M197.64,226.514c0,0-2.041,10.66,5.216,16.782c-4.99-1.134-9.072-6.803-13.078-16.859C192.952,225.983,197.64,226.514,197.64,226.514z"></path></g><path d="M213.291,219.709c0,0-9.073-5.443-9.753-6.577c1.361,3.629,3.175,7.485,4.99,8.391C210.341,222.429,213.291,219.709,213.291,219.709z"></path><path d="M203.681,220.43c0,0-10.845-2.467-13.994-4.729c3.17,3.913,10.059,6.247,12.307,6.621C204.241,222.696,203.681,220.43,203.681,220.43z"></path></g></g><g><g><path style="fill:#FFFFFF;" d="M303.57,236.266c0,0-3.932,9.073-15.693,9.751c-4.311,0.683-12.475,0.227-12.475,0.227s-5.475-9.071-5.475-20.186c5.669-4.309,10.011-5.896,10.011-5.896s22.417,2.934,26.807,5.821C306.292,228.48,305.384,233.998,303.57,236.266z"></path><path style="fill:#E4E0F3;" d="M305.114,228.1c0,0,0.119,6.882-1.696,7.56c-3.855-3.174-16.422-6.062-21.438-5.745c-5.016,0.318-13.307,4.461-13.307,4.461s1.558-3.101,1.935-8.317c5.443-4.309,11.827-6.35,11.827-6.35S303.073,222.429,305.114,228.1z"></path></g><g><path style="fill:#A2D7DD;" d="M292.531,226.406c0,0-0.756,20.716-12.896,20.716c-6.027,0.001-8.57-6.563-8.57-9.444c0.449-9.079,0.677-15.429,9.305-15.808C293.053,221.315,292.531,226.406,292.531,226.406z"></path><path style="fill:#84B9BF;" d="M280.37,221.871c12.683-0.555,12.161,4.536,12.161,4.536s-0.184,4.937-1.78,9.992c-4.776-6.506-12.973-5.489-19.546-1.39C271.648,227.38,272.618,222.21,280.37,221.871z"></path><ellipse style="opacity:0.8;fill:#FFFFFF;" cx="279.984" cy="243.789" rx="5.104" ry="2.949"></ellipse><ellipse style="fill:#FFFFFE;" cx="281.118" cy="241.311" rx="1.587" ry="1.08"></ellipse><path d="M286.484,231.73c0,0-1.135,9.979-5.746,12.398C287.619,241.483,286.484,231.73,286.484,231.73z"></path><path d="M273.218,231.73c0,0-1.814,9.375,5.746,12.398C273.103,240.347,273.218,231.73,273.218,231.73z"></path><g><path d="M294.195,225.379c0,0,1.967,15.574-8.618,20.563c-1.059,0.758-2.118,0.152-2.118,0.152s8.771-5.747,7.107-21.32C292.531,224.623,294.195,225.379,294.195,225.379z"></path><path d="M271.135,232.612c0,0,0.262,10.747,6.028,14.419c-3.669,1.046-8.04-3.898-8.563-13.336C270.433,233.435,271.135,232.612,271.135,232.612z"></path><ellipse style="fill:#FFFFFE;" cx="273.241" cy="239.593" rx="3.478" ry="1.965"></ellipse><path style="opacity:0.3;fill:#FFFFFF;" d="M288.162,232.534c0.949,0.54,1.979,0.517,2.307-0.052c0.323-0.567-0.182-1.467-1.128-2.011c-0.948-0.54-1.979-0.518-2.305,0.051C286.712,231.09,287.216,231.99,288.162,232.534z"></path><ellipse transform="matrix(-0.4959 0.8684 -0.8684 -0.4959 632.7548 99.8901)" style="opacity:0.3;fill:#FFFFFF;" cx="287.384" cy="233.602" rx="0.682" ry="1.139"></ellipse><ellipse cx="279.455" cy="234.793" rx="1.59" ry="3.741"></ellipse><path d="M278.333,231.958c-0.049,0.495-0.08,1.025-0.08,1.587c0,2.507,0.542,4.536,1.211,4.536c0.666,0,1.209-2.028,1.209-4.536c0-0.562-0.03-1.092-0.081-1.586c0.64,0.793,1.072,2.224,1.072,3.875c0,2.505-0.985,4.536-2.2,4.536c-1.218,0-2.203-2.031-2.203-4.536C277.261,234.181,277.694,232.75,278.333,231.958z"></path><path d="M270.288,225.077c0,0-2.538,7.107-1.33,11.038c1.361,0.906,2.541,0.152,2.541,0.152s-0.665-7.486,2.571-12.096C272.558,223.867,270.288,225.077,270.288,225.077z"></path></g><path d="M283.908,245.531l8.246-0.534l-5.102,2.37c0,0-5.764-0.42-6.943-0.212C282.336,246.579,283.908,245.531,283.908,245.531z"></path><path d="M289.413,213.888c0,0-12.058,0.692-17.563,2.527c-5.505,1.835-10.483,6.028-10.483,6.028s4.906-7.146,10.222-8.125C281.55,212.484,289.413,213.888,289.413,213.888z"></path></g><g><g><path d="M262.62,230.088c0,0,12.81-2.368,20.462-3.349c7.652-0.98,25.773,1.202,25.773,1.202l9.596-6.109l-13.851-0.617c0,0-12.279-2.381-22.166-1.506c-8.219,1.758-20.116,5.995-20.116,5.995l7.609,0.355L262.62,230.088z"></path><path d="M302.359,226.514c0,0,2.043,10.66-5.215,16.782c4.989-1.134,9.07-6.803,13.078-16.859C307.048,225.983,302.359,226.514,302.359,226.514z"></path><path d="M302.359,226.514c0,0,2.043,10.66-5.215,16.782c4.989-1.134,9.07-6.803,13.078-16.859C307.048,225.983,302.359,226.514,302.359,226.514z"></path></g><path d="M286.711,219.709c0,0,9.072-5.443,9.752-6.577c-1.361,3.629-3.176,7.485-4.988,8.391C289.659,222.429,286.711,219.709,286.711,219.709z"></path><path d="M296.319,220.43c0,0,10.846-2.467,13.993-4.729c-3.171,3.913-10.058,6.247-12.307,6.621C295.759,222.696,296.319,220.43,296.319,220.43z"></path></g></g></g></g></svg>