<svg xmlns="http://www.w3.org/2000/svg" width="500" height="500" version="1.1"><g id="x011"><g><g><path style="fill:#E4E0F3;" d="M194.557,235.122c-1.458-5.346-1.65-6.676-1.65-6.676s10.135-3.722,21.097-2.067c10.962,1.653,18.822,7.031,18.822,7.031s-0.142,2.343-1.024,4.975C219.968,235.419,206.653,233.351,194.557,235.122z"></path><path style="fill:#FDFFFD;" d="M231.801,238.384c-0.973,2.901-2.845,6.154-6.421,7.021c-8.48,0.415-21.511,0.208-23.167-0.827c-1.654-1.034-4.756-3.929-7.445-8.687c-0.074-0.269-0.143-0.519-0.211-0.77C206.653,233.351,219.968,235.419,231.801,238.384z"></path><g><path d="M229.756,231.755c0,0,1.032,10.548-3.518,13.651c-9.101,1.035-16.547,0-16.547,0s-6.619-5.377-6.411-17.581C206.383,225.757,223.138,225.963,229.756,231.755z"></path><g><path style="fill:#A2D7DD;" d="M206.989,228.537c0,0,0.823,11.349,4.441,14.145c7.236,1.645,13.223,0.822,14.046,0.164c0.822-0.657,2.565-7.071,1.085-11.677C222.286,226.892,213.897,226.563,206.989,228.537z"></path><path style="fill:#84B9BF;" d="M226.562,231.168c-4.276-4.276-12.665-4.605-19.573-2.631c0,0,0.43,5.922,2.033,10.264c2.336-5.783,10.784-5.631,15.237-3.85c1.119,0.672,2.025,1.503,2.761,2.445C227.234,235.376,227.187,233.112,226.562,231.168z"></path></g><ellipse style="opacity:0.8;fill:#FFFFFF;" cx="218.667" cy="242.023" rx="5.366" ry="1.857"></ellipse><ellipse style="fill:#1E1E1E;" cx="218.166" cy="236.333" rx="3.75" ry="4.5"></ellipse><path style="fill:#FFFFFE;" d="M206.831,239.889c0,0-3.247-0.641-3.115-2.374c0.13-1.733,0.575-3.991,0.575-3.991s7.774-5.208,11.201-0.135C215.894,236.692,208.859,240.288,206.831,239.889z"></path><ellipse transform="matrix(-0.4959 0.8684 -0.8684 -0.4959 540.4758 157.3011)" style="opacity:0.3;fill:#FFFFFF;" cx="224.581" cy="235.524" rx="1.123" ry="1.874"></ellipse><ellipse transform="matrix(-0.4947 0.8691 -0.8691 -0.4947 540.1581 160.9547)" style="opacity:0.3;fill:#FFFFFF;" cx="223.286" cy="237.514" rx="0.648" ry="1.079"></ellipse><ellipse transform="matrix(0.9289 -0.3705 0.3705 0.9289 -72.6673 96.487)" style="fill:#FFFFFE;" cx="214.86" cy="237.425" rx="1.074" ry="1.344"></ellipse><circle style="fill:#FFFFFE;" cx="213.27" cy="243.338" r="1.448"></circle><path style="fill:#FFFFFE;" d="M228.782,241.889c0,0-4.757-1.861-4.757-3.102c0-1.241,4.551,0.208,5.379,1.241C230.23,241.061,230.23,241.684,228.782,241.889z"></path></g><g><g><path d="M237.375,237.134c0,0-7.031-9.102-11.168-10.964c-4.136-1.861-21.098-5.377-29.164-2.273c-8.066,3.101-13.859,5.169-13.859,5.169l13.652,9.928c0,0-3.311-6.206-1.655-8.687c18.822-4.343,30.818,0.621,30.818,0.621L237.375,237.134z"></path><path d="M211.522,223.481c-1.035,0-6.827-4.55-9.516-6.826c1.862,2.896,3.103,4.551,2.069,6.205C206.351,223.896,211.522,223.481,211.522,223.481z"></path><path d="M226,228.238c0,0,7.653,2.482,10.755,3.931c-4.135-3.723-15.927-8.274-19.855-8.481C221.45,225.757,226,228.238,226,228.238z"></path></g><path d="M234.894,226.583c0,0-11.169-6.826-24.407-7.652C220.001,216.863,233.239,223.067,234.894,226.583z"></path></g></g><g><path style="fill:#E4E0F3;" d="M305.442,235.122c1.459-5.346,1.649-6.676,1.649-6.676s-10.134-3.722-21.095-2.067c-10.963,1.653-18.823,7.031-18.823,7.031s0.142,2.343,1.024,4.975C280.03,235.419,293.347,233.351,305.442,235.122z"></path><path style="fill:#FDFFFD;" d="M268.198,238.384c0.974,2.901,2.846,6.154,6.422,7.021c8.479,0.415,21.511,0.208,23.166-0.827c1.653-1.034,4.756-3.929,7.446-8.687c0.073-0.269,0.143-0.519,0.21-0.77C293.347,233.351,280.03,235.419,268.198,238.384z"></path><g><path d="M270.243,231.755c0,0-1.033,10.548,3.519,13.651c9.1,1.035,16.547,0,16.547,0s6.618-5.377,6.41-17.581C293.617,225.757,276.862,225.963,270.243,231.755z"></path><g><path style="fill:#A2D7DD;" d="M293.011,228.537c0,0-0.822,11.349-4.44,14.145c-7.238,1.645-13.225,0.822-14.047,0.164c-0.822-0.657-2.566-7.071-1.086-11.677C277.715,226.892,286.103,226.563,293.011,228.537z"></path><path style="fill:#84B9BF;" d="M273.438,231.168c4.277-4.276,12.665-4.605,19.573-2.631c0,0-0.431,5.922-2.032,10.264c-2.338-5.783-10.786-5.631-15.238-3.85c-1.119,0.672-2.025,1.503-2.762,2.445C272.766,235.376,272.813,233.112,273.438,231.168z"></path></g><ellipse style="opacity:0.8;fill:#FFFFFF;" cx="281.333" cy="242.023" rx="5.367" ry="1.857"></ellipse><ellipse style="fill:#1E1E1E;" cx="281.834" cy="236.333" rx="3.75" ry="4.5"></ellipse><path style="fill:#FFFFFE;" d="M272.96,239.889c0,0-3.247-0.641-3.115-2.374c0.131-1.733,0.576-3.991,0.576-3.991s7.773-5.208,11.2-0.135C282.023,236.692,274.989,240.288,272.96,239.889z"></path><ellipse transform="matrix(-0.4959 0.8684 -0.8684 -0.4959 639.3991 99.8759)" style="opacity:0.3;fill:#FFFFFF;" cx="290.71" cy="235.524" rx="1.123" ry="1.875"></ellipse><ellipse transform="matrix(-0.4947 0.8691 -0.8691 -0.4947 639.0002 103.4831)" style="opacity:0.3;fill:#FFFFFF;" cx="289.415" cy="237.514" rx="0.648" ry="1.081"></ellipse><ellipse transform="matrix(0.9288 -0.3705 0.3705 0.9288 -67.9721 121.0143)" style="fill:#FFFFFE;" cx="280.99" cy="237.425" rx="1.074" ry="1.344"></ellipse><circle style="fill:#FFFFFE;" cx="279.399" cy="243.338" r="1.448"></circle><path style="fill:#FFFFFE;" d="M294.913,241.889c0,0-4.758-1.861-4.758-3.102c0-1.241,4.551,0.208,5.378,1.241C296.359,241.061,296.359,241.684,294.913,241.889z"></path></g><g><g><path d="M262.625,237.134c0,0,7.031-9.102,11.168-10.964c4.136-1.861,21.098-5.377,29.163-2.273c8.066,3.101,13.859,5.169,13.859,5.169l-13.651,9.928c0,0,3.309-6.206,1.654-8.687c-18.821-4.343-30.818,0.621-30.818,0.621L262.625,237.134z"></path><path d="M288.478,223.481c1.034,0,6.827-4.55,9.517-6.826c-1.863,2.896-3.104,4.551-2.069,6.205C293.649,223.896,288.478,223.481,288.478,223.481z"></path><path d="M274,228.238c0,0-7.652,2.482-10.755,3.931c4.135-3.723,15.926-8.274,19.854-8.481C278.55,225.757,274,228.238,274,228.238z"></path></g><path d="M265.105,226.583c0,0,11.17-6.826,24.406-7.652C279.998,216.863,266.761,223.067,265.105,226.583z"></path></g></g></g></g></svg>