<svg xmlns="http://www.w3.org/2000/svg" width="500" height="500" version="1.1"><g id="x9117"><g><g><g><path style="fill:#FFFFFF;" d="M266.192,227.873c0,0-0.735,10.74,5.886,14.271c5.423,2.893,20.597,5.15,27.807-2.354c6.621-7.504,7.65-12.947,7.65-12.947s-8.239-4.562-22.216-5.15C271.343,221.105,266.192,227.873,266.192,227.873z"></path><path style="fill:#E4E0F3;" d="M285.319,221.693c-13.977-0.588-19.127,6.18-19.127,6.18s-0.213,3.119,0.627,6.549c12.341-4.822,25.766-5.077,38.312-1.88c1.985-3.509,2.404-5.698,2.404-5.698S299.296,222.282,285.319,221.693z"></path></g><g><g><g><path style="fill:#A2D7DD;" d="M272.121,226.77c0,0,2.059-1.839,9.637-2.501c7.579-0.662,10.226,1.03,10.226,1.03s3.237,14.051-9.636,14.639C270.287,240.489,272.121,226.77,272.121,226.77z"></path><ellipse style="opacity:0.5;fill:#FFFFFF;" cx="282.162" cy="236.186" rx="6.143" ry="3.605"></ellipse><path style="fill:#84B9BF;" d="M271.975,226.917c0,0-1.251,7.724,0.146,8.386c1.398,0.662,4.486-5.149,9.269-5.37c4.782-0.22,10.666,5.149,10.962,4.855c0.295-0.294,1.546-6.105-0.073-9.489c-1.181-2.467-4.782-2.869-10.887-2.207C276.259,223.648,272.636,225.299,271.975,226.917z"></path><g><ellipse transform="matrix(0.854 0.5203 -0.5203 0.854 162.6211 -110.2047)" style="fill:#84B9BF;" cx="277.638" cy="234.604" rx="0.588" ry="1.728"></ellipse><ellipse transform="matrix(0.9771 0.2127 -0.2127 0.9771 56.5994 -54.0926)" style="fill:#84B9BF;" cx="279.697" cy="236.002" rx="0.588" ry="1.728"></ellipse><ellipse transform="matrix(-0.854 0.5203 -0.5203 -0.854 653.6414 285.2242)" style="fill:#84B9BF;" cx="286.794" cy="234.339" rx="0.588" ry="1.728"></ellipse><ellipse transform="matrix(-0.9772 0.2125 -0.2125 -0.9772 613.0647 405.5735)" style="fill:#84B9BF;" cx="284.734" cy="235.737" rx="0.588" ry="1.727"></ellipse><ellipse transform="matrix(0.9997 -0.0224 0.0224 0.9997 -5.2218 6.3878)" style="fill:#84B9BF;" cx="282.273" cy="236.076" rx="0.588" ry="1.728"></ellipse></g></g><ellipse cx="281.317" cy="229.822" rx="1.692" ry="4.377"></ellipse></g><path d="M289.065,220.027c-5.804,0.422-11.493,1.547-16.906,3.611c-1.275,1.904-2.023,4.178-2.023,6.625c0,6.684,5.533,12.102,12.359,12.102c6.823,0,12.358-5.418,12.358-12.102C294.854,225.948,292.539,222.17,289.065,220.027z M282.348,239.938c-12.061,0.552-10.227-13.168-10.227-13.168s2.059-1.839,9.637-2.501c7.579-0.662,10.226,1.03,10.226,1.03S295.221,239.35,282.348,239.938z"></path><ellipse style="fill:#FFFFFF;" cx="281.832" cy="239.569" rx="2.794" ry="1.84"></ellipse></g><g><g><g><path d="M292.878,243.91c0,0,4.358-2.482,5.683-3.531c1.159,1.049,1.38,4.084,0.276,4.139s-2.636-1.216-3.366-0.938C294.312,244.021,292.878,243.91,292.878,243.91z"></path><path d="M304.962,240.324c0.095,0.42-2.318,1.379-2.705,0.938c-0.386-0.441-0.496-1.82-0.109-2.097S304.629,238.889,304.962,240.324z"></path><ellipse cx="289.678" cy="244.187" rx="1.27" ry="0.993"></ellipse></g><path style="fill:#F55446;" d="M305.458,230.503c0,0-3.753,8.442-7.725,10.428c4.138-0.275,11.365-6.676,14.676-14.014C308.051,228.131,305.458,230.503,305.458,230.503z"></path><g><path d="M261.926,231.404c0,0,4.561-7.209,11.477-10.445c6.913-3.238,17.934-3.17,24.57-1.767c7.65,1.618,11.77,6.622,16.479,5.444c-2.207,4.119-9.876,7.853-9.876,7.853l0.459-2.997c0,0-3.679-4.562-14.859-6.033c0,0-10.152-0.588-15.596,0.883C269.134,225.813,261.926,231.404,261.926,231.404z"></path><path d="M286.496,218.31c0,0,9.712-1.177,18.245,0.589c-3.386,0.294-7.063,1.324-7.063,1.324L286.496,218.31z"></path></g></g><path d="M259.939,222.503c0.166-0.331,4.91-3.034,7.834-4.138s12.249-2.152,12.249-2.152s-8.44-0.221-11.973,0.607C264.519,217.647,259.939,222.503,259.939,222.503z"></path></g></g><g><g><path style="fill:#FFFFFF;" d="M233.808,227.873c0,0,0.735,10.74-5.885,14.271c-5.425,2.893-20.598,5.15-27.808-2.354c-6.621-7.504-7.65-12.947-7.65-12.947s8.24-4.562,22.216-5.15C228.658,221.105,233.808,227.873,233.808,227.873z"></path><path style="fill:#E4E0F3;" d="M214.681,221.693c13.978-0.588,19.127,6.18,19.127,6.18s0.212,3.119-0.628,6.549c-12.34-4.822-25.765-5.077-38.311-1.88c-1.986-3.509-2.404-5.698-2.404-5.698S200.704,222.282,214.681,221.693z"></path></g><g><g><g><path style="fill:#A2D7DD;" d="M227.879,226.77c0,0-2.059-1.839-9.636-2.501c-7.579-0.662-10.227,1.03-10.227,1.03s-3.235,14.051,9.637,14.639C229.714,240.489,227.879,226.77,227.879,226.77z"></path><ellipse style="opacity:0.5;fill:#FFFFFF;" cx="217.837" cy="236.186" rx="6.143" ry="3.605"></ellipse><path style="fill:#84B9BF;" d="M228.026,226.917c0,0,1.251,7.724-0.147,8.386s-4.487-5.149-9.269-5.37c-4.782-0.22-10.666,5.149-10.961,4.855c-0.295-0.294-1.546-6.105,0.074-9.489c1.18-2.467,4.782-2.869,10.887-2.207C223.742,223.648,227.363,225.299,228.026,226.917z"></path><g><ellipse transform="matrix(-0.8538 0.5205 -0.5205 -0.8538 534.3416 319.1746)" style="fill:#84B9BF;" cx="222.362" cy="234.604" rx="0.588" ry="1.728"></ellipse><ellipse transform="matrix(-0.9771 0.2128 -0.2128 -0.9771 485.7779 419.7204)" style="fill:#84B9BF;" cx="220.302" cy="236.002" rx="0.587" ry="1.728"></ellipse><ellipse transform="matrix(0.854 0.5203 -0.5203 0.854 153.0736 -76.7166)" style="fill:#84B9BF;" cx="213.206" cy="234.339" rx="0.588" ry="1.728"></ellipse><ellipse transform="matrix(0.9772 0.2125 -0.2125 0.9772 55.02 -40.3655)" style="fill:#84B9BF;" cx="215.266" cy="235.737" rx="0.588" ry="1.728"></ellipse><ellipse transform="matrix(-0.9997 -0.0224 0.0224 -0.9997 430.1039 476.9754)" style="fill:#84B9BF;" cx="217.727" cy="236.076" rx="0.588" ry="1.728"></ellipse></g></g><ellipse cx="218.683" cy="229.822" rx="1.692" ry="4.377"></ellipse></g><path d="M205.146,230.264c0,6.684,5.535,12.102,12.358,12.102c6.826,0,12.36-5.418,12.36-12.102c0-2.447-0.748-4.721-2.024-6.625c-5.413-2.064-11.103-3.189-16.906-3.611C207.461,222.17,205.146,225.948,205.146,230.264z M208.016,225.299c0,0,2.648-1.692,10.227-1.03c7.578,0.662,9.636,2.501,9.636,2.501s1.835,13.72-10.226,13.168C204.78,239.35,208.016,225.299,208.016,225.299z"></path><ellipse style="fill:#FFFFFF;" cx="218.168" cy="239.569" rx="2.795" ry="1.84"></ellipse></g><g><g><g><path d="M207.122,243.91c0,0-4.358-2.482-5.683-3.531c-1.158,1.049-1.379,4.084-0.276,4.139s2.637-1.216,3.365-0.938C205.688,244.021,207.122,243.91,207.122,243.91z"></path><path d="M195.039,240.324c-0.096,0.42,2.317,1.379,2.704,0.938c0.387-0.441,0.497-1.82,0.111-2.097C197.466,238.889,195.37,238.889,195.039,240.324z"></path><ellipse cx="210.322" cy="244.187" rx="1.269" ry="0.993"></ellipse></g><path style="fill:#F55446;" d="M194.542,230.503c0,0,3.751,8.442,7.724,10.428c-4.138-0.275-11.366-6.676-14.676-14.014C191.949,228.131,194.542,230.503,194.542,230.503z"></path><g><path d="M238.074,231.404c0,0-4.562-7.209-11.476-10.445c-6.915-3.238-17.935-3.17-24.57-1.767c-7.651,1.618-11.771,6.622-16.479,5.444c2.207,4.119,9.876,7.853,9.876,7.853l-0.459-2.997c0,0,3.679-4.562,14.86-6.033c0,0,10.152-0.588,15.595,0.883C230.865,225.813,238.074,231.404,238.074,231.404z"></path><path d="M213.504,218.31c0,0-9.712-1.177-18.245,0.589c3.385,0.294,7.062,1.324,7.062,1.324L213.504,218.31z"></path></g></g><path d="M240.061,222.503c-0.165-0.331-4.91-3.034-7.834-4.138s-12.249-2.152-12.249-2.152s8.441-0.221,11.973,0.607C235.481,217.647,240.061,222.503,240.061,222.503z"></path></g></g></g></g></svg>