<svg xmlns="http://www.w3.org/2000/svg" width="500" height="500" version="1.1"><g id="x013"><g><g><g><path style="fill:#FFFFFF;" d="M200.284,240.333c0,0,0.843,3.208,2.505,5.604s7.439,5.754,16.051,4.575c8.611-1.179,16.777-10.679,15.944-18.179c-5.5-10.167-7.167-11.5-7.167-11.5s-22.167-6.833-30.5,4.5C197.284,233.167,200.284,240.333,200.284,240.333z"></path><path style="fill:#E4E0F3;" d="M227.617,220.833c0,0-22.167-6.833-30.5,4.5c0.041,1.938,0.256,3.834,0.556,5.593c11.213-4.421,24.588-4.808,35.89-0.814C229.04,221.984,227.617,220.833,227.617,220.833z"></path></g><g><path style="fill:#A2D7DD;stroke:#000000;stroke-width:3;stroke-linecap:round;stroke-linejoin:round;" d="M229.499,235.604c0-6.575-3.072-12.981-11.093-14.075c-6.375-0.869-13.392,2.154-13.392,11.883c0,4.204,2.043,13.961,12.097,13.961c4.373,0,6.8-1.864,6.8-1.864C227.279,243.371,229.499,239.74,229.499,235.604z"></path><path d="M228.103,238.715c0,0,0.066-0.174,0.082-0.448C228.137,238.554,228.103,238.715,228.103,238.715z M206.117,239.667c0,0,2.877-2.283,6.368-3.725c-0.077-0.33,0.014-1.114,0-1.465c-0.122-3.061,1.051-5.378,4.142-5.499c3.091-0.12,5.694,2.261,5.816,5.323c0.006,0.148,0.001,0.294-0.004,0.44c5.296,0.61,5.798,2.623,5.746,3.526c0.461-2.752,2.274-17.291-11.036-16.738c-3.678,0.149-5.86,2.264-7.705,3.57C202.284,230.167,206.117,239.667,206.117,239.667z"></path><path d="M216.889,227.634c-3.841,0.152-6.832,3.358-6.681,7.163c0.153,3.803,3.387,6.763,7.231,6.61c3.841-0.152,6.833-3.357,6.68-7.16C223.967,230.441,220.732,227.482,216.889,227.634z M217.33,238.726c-2.352,0.092-4.33-1.718-4.423-4.043c-0.093-2.326,1.737-4.286,4.087-4.377c2.351-0.092,4.33,1.718,4.422,4.045C221.509,236.676,219.679,238.635,217.33,238.726z"></path><g><path style="fill:#FFFFFF;" d="M212.469,228.796c-0.55,2.298-2.605,3.774-4.593,3.295c-1.986-0.477-3.151-2.727-2.601-5.024c0.55-2.3,2.605-3.775,4.592-3.298C211.854,224.248,213.019,226.497,212.469,228.796z"></path><ellipse transform="matrix(0.9724 0.2334 -0.2334 0.9724 60.3968 -43.6044)" style="fill:#FFFFFF;" cx="214.475" cy="233.44" rx="1.304" ry="1.51"></ellipse></g><path style="fill:#FFFFFF;" d="M225.564,238.348c0.972,0.383,1.521,1.296,1.225,2.04c-0.295,0.744-1.324,1.036-2.296,0.652c-0.973-0.383-1.522-1.296-1.226-2.041C223.563,238.256,224.59,237.964,225.564,238.348z"></path></g><g><g><path d="M230.944,222.938c-0.649-0.891,0.602-1.65-0.286-2.329c-7.178-5.516-15.4-8.102-27.62-5.225c-4.642,1.094-9.646,8.509-10.083,9.508c-0.431,1.006,0.998,5.198,2.231,4.706c0.752-0.3,2.43-3.856,8.283-7.338c7.956-3.255,15.365-1.612,18.255-0.94c6.45,1.5,9.661,5.13,10.612,4.846C232.909,225.995,232.577,225.167,230.944,222.938z"></path><path d="M227.111,223.1c0,0,5.783,6.992,8.714,11.572c0.563-2.805-2.84-10.765-5.167-14.063"></path><path d="M226.451,217.928c3.191,1.761,8.034,3.521,10.235,3.852c-3.082,2.201-8.585,0.551-8.585,0.551L226.451,217.928z"></path><path d="M197.284,225.954c0,0,0.208,4.43,1.2,8.291c0.997,3.878,2.779,7.19,1.935,7.471c-1.684,0.558-8.324-6.874-8.79-14.86C194.177,226.125,197.284,225.954,197.284,225.954z"></path><path d="M195.729,222.635c0,0-8.604-4.136-9.339-3.827c-0.733,0.31,4.054,7.696,6.623,9.092C194.48,225.107,195.729,222.635,195.729,222.635z"></path><path d="M198.804,218.143c0,0-4.992-3.162-5.781-3.059c-0.789,0.104-0.345,5.381,1.76,7.409C196.942,220.189,198.804,218.143,198.804,218.143z"></path><path d="M206.638,216.16c0,0-3.147-5.002-3.904-5.247c-0.758-0.245-2.625,4.71-1.595,7.446C204.078,217.207,206.638,216.16,206.638,216.16z"></path></g><g><path d="M204.123,247.548c0,0-1.799,0.942-2.38,0.206c-0.583-0.742,1.046-1.816,1.046-1.816L204.123,247.548z"></path><path d="M206.255,248.744c0,0-1.161,1.95-1.761,1.54c-0.602-0.406-0.495-1.375-0.11-2.751C205.354,248.457,206.255,248.744,206.255,248.744z"></path></g></g></g><g><g><path style="fill:#FFFFFF;" d="M299.717,240.333c0,0-0.844,3.208-2.506,5.604s-7.439,5.754-16.051,4.575c-8.611-1.179-16.777-10.679-15.943-18.179c5.5-10.167,7.166-11.5,7.166-11.5s22.166-6.833,30.5,4.5C302.717,233.167,299.717,240.333,299.717,240.333z"></path><path style="fill:#E4E0F3;" d="M272.383,220.833c0,0,22.166-6.833,30.5,4.5c-0.041,1.938-0.256,3.834-0.557,5.593c-11.213-4.421-24.588-4.808-35.89-0.814C270.96,221.984,272.383,220.833,272.383,220.833z"></path></g><g><path style="fill:#A2D7DD;stroke:#000000;stroke-width:3;stroke-linecap:round;stroke-linejoin:round;" d="M270.501,235.604c0-6.575,3.072-12.981,11.093-14.075c6.375-0.869,13.393,2.154,13.393,11.883c0,4.204-2.043,13.961-12.098,13.961c-4.372,0-6.799-1.864-6.799-1.864C272.721,243.371,270.501,239.74,270.501,235.604z"></path><path d="M271.815,238.267c0.016,0.274,0.081,0.448,0.081,0.448S271.863,238.554,271.815,238.267z M290.557,225.099c-1.846-1.306-4.027-3.421-7.705-3.57c-13.311-0.553-11.498,13.985-11.036,16.738c-0.052-0.903,0.45-2.916,5.745-3.526c-0.006-0.146-0.01-0.292-0.004-0.44c0.121-3.062,2.725-5.443,5.816-5.323c3.091,0.121,4.264,2.438,4.142,5.499c-0.015,0.351,0.077,1.136,0,1.465c3.491,1.442,6.368,3.725,6.368,3.725S297.717,230.167,290.557,225.099z"></path><path d="M275.881,234.247c-0.153,3.802,2.838,7.008,6.68,7.16c3.844,0.153,7.078-2.807,7.231-6.61c0.151-3.805-2.839-7.011-6.681-7.163C279.268,227.482,276.033,230.441,275.881,234.247z M278.584,234.351c0.092-2.327,2.071-4.137,4.422-4.045c2.35,0.091,4.18,2.051,4.088,4.377c-0.094,2.325-2.072,4.135-4.424,4.043C280.321,238.635,278.49,236.676,278.584,234.351z"></path><g><path style="fill:#FFFFFF;" d="M279.461,228.796c-0.551,2.298-2.605,3.774-4.593,3.295c-1.985-0.477-3.151-2.727-2.601-5.024c0.551-2.3,2.605-3.775,4.592-3.298C278.847,224.248,280.011,226.497,279.461,228.796z"></path><ellipse transform="matrix(0.9724 0.2334 -0.2334 0.9724 62.2464 -59.2376)" style="fill:#FFFFFF;" cx="281.467" cy="233.44" rx="1.304" ry="1.51"></ellipse></g><path style="fill:#FFFFFF;" d="M292.557,238.348c0.972,0.383,1.521,1.296,1.225,2.04c-0.296,0.744-1.324,1.036-2.297,0.652c-0.973-0.383-1.521-1.296-1.226-2.041C290.555,238.256,291.582,237.964,292.557,238.348z"></path></g><g><g><path d="M269.057,222.938c0.648-0.891-0.602-1.65,0.285-2.329c7.178-5.516,15.4-8.102,27.619-5.225c4.643,1.094,9.646,8.509,10.084,9.508c0.431,1.006-0.998,5.198-2.23,4.706c-0.752-0.3-2.43-3.856-8.283-7.338c-7.957-3.255-15.365-1.612-18.256-0.94c-6.45,1.5-9.66,5.13-10.612,4.846C267.091,225.995,267.423,225.167,269.057,222.938z"></path><path d="M272.889,223.1c0,0-5.783,6.992-8.713,11.572c-0.564-2.805,2.84-10.765,5.166-14.063"></path><path d="M273.549,217.928c-3.191,1.761-8.033,3.521-10.234,3.852c3.082,2.201,8.584,0.551,8.584,0.551L273.549,217.928z"></path><path d="M302.716,225.954c0,0-0.208,4.43-1.2,8.291c-0.996,3.878-2.779,7.19-1.935,7.471c1.685,0.558,8.324-6.874,8.79-14.86C305.822,226.125,302.716,225.954,302.716,225.954z"></path><path d="M304.271,222.635c0,0,8.604-4.136,9.339-3.827c0.733,0.31-4.054,7.696-6.622,9.092C305.52,225.107,304.271,222.635,304.271,222.635z"></path><path d="M301.195,218.143c0,0,4.992-3.162,5.781-3.059c0.789,0.104,0.346,5.381-1.76,7.409C303.059,220.189,301.195,218.143,301.195,218.143z"></path><path d="M293.361,216.16c0,0,3.147-5.002,3.904-5.247c0.759-0.245,2.625,4.71,1.596,7.446C295.922,217.207,293.361,216.16,293.361,216.16z"></path></g><g><path d="M295.877,247.548c0,0,1.799,0.942,2.381,0.206c0.582-0.742-1.047-1.816-1.047-1.816L295.877,247.548z"></path><path d="M293.744,248.744c0,0,1.162,1.95,1.762,1.54c0.602-0.406,0.495-1.375,0.11-2.751C294.646,248.457,293.744,248.744,293.744,248.744z"></path></g></g></g></g></g></svg>