<svg xmlns="http://www.w3.org/2000/svg" width="500" height="500" version="1.1"><g id="x015"><g><g id="lefteye_11_"><g><g><g><path d="M217.06,211.143c0,0,7.76-0.221,17.434,3.276C231.748,211.092,221.747,208.961,217.06,211.143z"></path></g></g></g><g><path style="fill:none;stroke:#000000;stroke-linecap:round;stroke-linejoin:round;" d="M213.979,252.274c-0.002,0.344-0.11,0.602-0.238,1.085"></path><path style="fill:none;stroke:#000000;stroke-linecap:round;stroke-linejoin:round;" d="M218.479,252.357c-0.004,0.345-0.112,0.6-0.24,1.085"></path></g><g><path style="fill:#FFFFFF;" d="M229.775,221.167c0,0,5.302,7.23,2.5,17.833c-2.334,8.833-10,11.833-16.667,11.667c-6.498-0.163-14.37-5.957-16.833-16.833c-2-8.833-0.667-12-0.667-12S217.442,215,229.775,221.167z"></path><path style="fill:#E4E0F3;" d="M198.108,221.833c0,0,19.334-6.834,31.667-0.667c0,0,2.181,2.996,3.002,7.943c-11.335-3.395-23.205-2.982-34.911-0.551C197.33,223.707,198.108,221.833,198.108,221.833z"></path></g><g><path style="fill:#A2D7DD;stroke:#000000;stroke-width:3;stroke-linecap:round;stroke-linejoin:round;" d="M204.348,233.567c0-11.262,5.543-15.543,12.379-15.543c6.837,0,12.379,4.095,12.379,15.543c0,8.583-5.542,15.543-12.38,15.543C209.891,249.11,204.348,242.151,204.348,233.567z"></path><ellipse cx="217.563" cy="232.922" rx="4.468" ry="7.253"></ellipse><ellipse style="fill:#FFFFFF;" cx="224.732" cy="243.126" rx="2.261" ry="1.69"></ellipse><ellipse style="opacity:0.5;fill:#FFFFFF;" cx="216.55" cy="243.339" rx="6.479" ry="3.816"></ellipse><ellipse style="fill:#FFFFFF;" cx="209.343" cy="229.647" rx="4.06" ry="3.717"></ellipse></g><g><path d="M194.321,224.286c0,0,15.105-3.998,23.77-2.999c8.663,1,13.104,0.333,15.327,2.11c-1-1.667-1.889-2.888-2.774-3.443c1.331,0.222,2.997,0,4.662,0.666c0.777-1.222-9.774-5.441-20.104-5.109c-10.329,0.334-19.326,3.11-19.548,4c-0.222,0.887-0.334,1.554-0.334,1.554S194.656,221.287,194.321,224.286z"></path><g><path d="M206.649,219.511c0,0-3.956-0.833-5.324-8.651c3.991,3.429,8.08,6.399,13.21,5.096"></path></g></g></g><g id="lefteye_469_"><g><g><g><path d="M282.94,211.143c0,0-7.76-0.221-17.434,3.276C268.252,211.092,278.253,208.961,282.94,211.143z"></path></g></g></g><g><path style="fill:none;stroke:#000000;stroke-linecap:round;stroke-linejoin:round;" d="M286.021,252.274c0.002,0.344,0.11,0.602,0.238,1.085"></path><path style="fill:none;stroke:#000000;stroke-linecap:round;stroke-linejoin:round;" d="M281.521,252.357c0.004,0.345,0.112,0.6,0.24,1.085"></path></g><g><path style="fill:#FFFFFF;" d="M270.225,221.167c0,0-5.302,7.23-2.5,17.833c2.334,8.833,10,11.833,16.667,11.667c6.498-0.163,14.37-5.957,16.833-16.833c2-8.833,0.667-12,0.667-12S282.558,215,270.225,221.167z"></path><path style="fill:#E4E0F3;" d="M301.892,221.833c0,0-19.334-6.834-31.667-0.667c0,0-2.181,2.996-3.002,7.943c11.335-3.395,23.205-2.982,34.911-0.551C302.67,223.707,301.892,221.833,301.892,221.833z"></path></g><g><path style="fill:#A2D7DD;stroke:#000000;stroke-width:3;stroke-linecap:round;stroke-linejoin:round;" d="M295.652,233.567c0-11.262-5.543-15.543-12.379-15.543c-6.837,0-12.379,4.095-12.379,15.543c0,8.583,5.542,15.543,12.38,15.543C290.109,249.11,295.652,242.151,295.652,233.567z"></path><ellipse cx="282.437" cy="232.922" rx="4.468" ry="7.253"></ellipse><ellipse style="fill:#FFFFFF;" cx="291.456" cy="243.126" rx="2.261" ry="1.69"></ellipse><ellipse style="opacity:0.5;fill:#FFFFFF;" cx="283.274" cy="243.339" rx="6.479" ry="3.816"></ellipse><ellipse style="fill:#FFFFFF;" cx="276.066" cy="229.647" rx="4.06" ry="3.717"></ellipse></g><g><path d="M305.679,224.286c0,0-15.105-3.998-23.77-2.999c-8.663,1-13.104,0.333-15.327,2.11c1-1.667,1.889-2.888,2.774-3.443c-1.331,0.222-2.997,0-4.662,0.666c-0.777-1.222,9.774-5.441,20.104-5.109c10.329,0.334,19.326,3.11,19.548,4c0.222,0.887,0.334,1.554,0.334,1.554S305.344,221.287,305.679,224.286z"></path><g><path d="M293.351,219.511c0,0,3.956-0.833,5.324-8.651c-3.991,3.429-8.08,6.399-13.21,5.096"></path></g></g></g></g></g></svg>