<svg xmlns="http://www.w3.org/2000/svg" width="500" height="500" version="1.1"><g id="x027"><g><g><g><path style="fill:#FFFFFF;" d="M268.698,225.262c0,0-3.657,11.322,3.203,21.157c4.575,1.258,15.326,2.059,20.014-1.83c4.689-3.889,11.894-13.495,11.894-13.495s-7.319-11.208-17.727-11.551C275.677,219.201,268.698,225.262,268.698,225.262z"></path><path style="fill:#E4E0F3;" d="M286.082,219.543c-10.405-0.343-17.384,5.718-17.384,5.718s-0.727,2.257-0.924,5.626c11.009-4.633,23.541-2.664,33.037,4.038c1.77-2.195,2.997-3.832,2.997-3.832S296.489,219.887,286.082,219.543z"></path></g><g><path d="M272.381,223.203c0,0-3.774,3.087-3.203,10.407c0.571,7.319,4.461,12.465,11.894,12.465c7.435,0,12.581-5.261,12.581-14.181c0-8.921-4.003-10.636-4.003-10.636S277.299,218.743,272.381,223.203z"></path><path style="fill:#A2D7DD;" d="M275.333,222.402c0,0-4.426,5.154-3.956,11.154c0.47,6.001,3.658,10.221,9.751,10.221c6.096,0,10.315-4.313,10.315-11.627c0-7.313-3.988-11.121-3.988-11.121S279.364,218.746,275.333,222.402z"></path><path style="fill:#84B9BF;" d="M287.455,221.03c0,0-8.091-2.284-12.122,1.373c0,0-4.426,5.154-3.956,11.154c0.01,0.117,0.026,0.228,0.036,0.342c4.246-5.38,14.268-3.507,19.947-0.106c0.049-0.531,0.083-1.075,0.083-1.643C291.443,224.837,287.455,221.03,287.455,221.03z"></path><ellipse cx="281.164" cy="233.61" rx="4.46" ry="5.489"></ellipse><ellipse style="fill:#FFFFFE;" cx="274.62" cy="230.393" rx="2.946" ry="3.341"></ellipse><ellipse style="opacity:0.8;fill:#FFFFFF;" cx="280.824" cy="240.701" rx="5.26" ry="2.974"></ellipse></g><g><path d="M263.667,231.094c0,0,2.86-8.12,8.921-11.208c6.062-3.088,14.867-3.66,22.3-2.516c7.435,1.144,8.921-0.686,8.921-0.686s-2.058,3.202-4.918,3.773c4.69,4.575,6.748,6.633,6.405,11.666c-2.515,5.489-7.788,14.814-16.239,15.82c-9.607,1.144-16.927-1.182-17.498-1.411c6.976,0.801,13.228,0.953,17.346-0.495c0,0,12.047-7.281,11.703-16.088c-3.431-5.718-7.435-6.542-14.754-7.228C272.699,221.489,263.667,231.094,263.667,231.094z"></path><path d="M273.503,221.145c0,0-6.404,2.859-8.692,4.917c2.173-4.46,9.607-7.891,14.41-8.349C276.477,219.429,273.503,221.145,273.503,221.145z"></path><path d="M279.221,217.713c0,0,12.008-1.486,15.667-4.231c-1.371,1.602-1.715,3.316-6.746,4.46L279.221,217.713z"></path><path d="M299.806,224.918c3.203,0.686,5.948-0.915,10.064-3.545c-4.574,1.258-11.322,0.114-11.664-0.343L299.806,224.918z"></path><path d="M291.687,246.533c0,0,5.375-0.686,7.204,1.716c-2.173-3.774-3.888-5.032-3.888-5.032L291.687,246.533z"></path><path d="M295.803,244.36c0,0,3.66-1.944,5.604-0.686c0.115-2.974-1.944-4.803-1.944-4.803L295.803,244.36z"></path><path d="M300.492,239.672c0,0,6.521-5.261,9.949-5.032c-1.143-1.601-3.429-4.232-3.429-4.232s1.829-0.686,5.831,0.229c-5.719-4.231-8.92-7.319-11.664-7.319C301.636,225.833,302.781,235.555,300.492,239.672z"></path></g><path d="M264.88,216.456c0,0,3.507-2.821,7.776-3.736c4.271-0.915,13.19-0.915,15.479-0.152c-2.82-1.982-11.905-2.413-15.479-1.601C267.625,212.11,264.88,216.456,264.88,216.456z"></path></g><g><g><path style="fill:#FFFFFF;" d="M231.301,225.262c0,0,3.659,11.322-3.203,21.157c-4.574,1.258-15.325,2.059-20.014-1.83c-4.688-3.889-11.894-13.495-11.894-13.495s7.319-11.208,17.727-11.551C224.324,219.201,231.301,225.262,231.301,225.262z"></path><path style="fill:#E4E0F3;" d="M213.917,219.543c10.407-0.343,17.384,5.718,17.384,5.718s0.726,2.257,0.924,5.626c-11.009-4.633-23.54-2.664-33.037,4.038c-1.771-2.195-2.999-3.832-2.999-3.832S203.51,219.887,213.917,219.543z"></path></g><g><path d="M227.62,223.203c0,0,3.774,3.087,3.202,10.407c-0.571,7.319-4.46,12.465-11.894,12.465s-12.58-5.261-12.58-14.181c0-8.921,4.002-10.636,4.002-10.636S222.702,218.743,227.62,223.203z"></path><path style="fill:#A2D7DD;" d="M224.667,222.402c0,0,4.425,5.154,3.956,11.154c-0.47,6.001-3.658,10.221-9.752,10.221c-6.095,0-10.315-4.313-10.315-11.627c0-7.313,3.989-11.121,3.989-11.121S220.636,218.746,224.667,222.402z"></path><path style="fill:#84B9BF;" d="M212.545,221.03c0,0,8.091-2.284,12.123,1.373c0,0,4.425,5.154,3.956,11.154c-0.009,0.117-0.026,0.228-0.037,0.342c-4.246-5.38-14.267-3.507-19.946-0.106c-0.05-0.531-0.084-1.075-0.084-1.643C208.556,224.837,212.545,221.03,212.545,221.03z"></path><ellipse cx="218.837" cy="233.61" rx="4.46" ry="5.489"></ellipse><ellipse style="fill:#FFFFFE;" cx="210.892" cy="230.393" rx="2.947" ry="3.341"></ellipse><ellipse style="opacity:0.8;fill:#FFFFFF;" cx="219.177" cy="240.701" rx="5.261" ry="2.974"></ellipse></g><g><path d="M236.333,231.094c0,0-2.86-8.12-8.921-11.208c-6.061-3.088-14.867-3.66-22.301-2.516c-7.435,1.144-8.921-0.686-8.921-0.686s2.059,3.202,4.918,3.773c-4.688,4.575-6.748,6.633-6.404,11.666c2.516,5.489,7.787,14.814,16.239,15.82c9.607,1.144,16.926-1.182,17.498-1.411c-6.976,0.801-13.228,0.953-17.345-0.495c0,0-12.047-7.281-11.704-16.088c3.432-5.718,7.434-6.542,14.753-7.228C227.3,221.489,236.333,231.094,236.333,231.094z"></path><path d="M226.497,221.145c0,0,6.405,2.859,8.692,4.917c-2.173-4.46-9.606-7.891-14.41-8.349C223.524,219.429,226.497,221.145,226.497,221.145z"></path><path d="M220.779,217.713c0,0-12.008-1.486-15.668-4.231c1.373,1.602,1.715,3.316,6.747,4.46L220.779,217.713z"></path><path d="M200.193,224.918c-3.202,0.686-5.947-0.915-10.064-3.545c4.575,1.258,11.322,0.114,11.665-0.343L200.193,224.918z"></path><path d="M208.314,246.533c0,0-5.375-0.686-7.206,1.716c2.173-3.774,3.888-5.032,3.888-5.032L208.314,246.533z"></path><path d="M204.197,244.36c0,0-3.66-1.944-5.605-0.686c-0.114-2.974,1.945-4.803,1.945-4.803L204.197,244.36z"></path><path d="M199.507,239.672c0,0-6.519-5.261-9.949-5.032c1.143-1.601,3.431-4.232,3.431-4.232s-1.83-0.686-5.832,0.229c5.718-4.231,8.92-7.319,11.665-7.319C198.364,225.833,197.22,235.555,199.507,239.672z"></path></g><path d="M235.12,216.456c0,0-3.507-2.821-7.777-3.736c-4.27-0.915-13.19-0.915-15.478-0.152c2.82-1.982,11.906-2.413,15.478-1.601C232.375,212.11,235.12,216.456,235.12,216.456z"></path></g></g></g></svg>