<svg xmlns="http://www.w3.org/2000/svg" width="500" height="500" version="1.1"><g id="x003"><g><g id="lefteye_39_"><path style="fill:#FFFFFF;" d="M301.339,235.674c-2.21,2.981-4.066,5.484-4.066,5.484s-6.535,8.888-17.759,7.377s-12.354-9.275-12.073-13.861c0.072-1.196,0.159-2.404,0.274-3.563c2.886-1.404,5.979-2.36,9.115-2.787C285.063,227.757,295.051,229.62,301.339,235.674z"></path><path style="fill:#E4E0F3;" d="M269.879,223.983c4.43-3.482,15.168-6.107,15.168-6.107s16.824-3.64,19.128,13.971c-0.934,1.262-1.916,2.585-2.836,3.827c-6.288-6.054-16.275-7.917-24.509-7.35c-3.136,0.427-6.229,1.383-9.115,2.787C268.047,227.825,268.627,224.95,269.879,223.983z"></path><g><path d="M287.859,218.019c0,0,8.794,6.177,6.783,18.658c-1.881,11.677-13.214,12.423-14.479,12.306c-2.199-0.202-10.46-1.915-11.48-14.844c0,0,0.409-9.155,4.86-12.138C279.793,218.862,283.637,217.109,287.859,218.019z"></path><path style="opacity:0.5;fill:#A2D7DD;" d="M292.258,232.059c-0.324-3.888-3.564-10.69-4.374-10.69s-8.098-2.916-13.12,2.916c0,0-3.726,4.698-3.077,10.853c0.014,0.134,0.033,0.265,0.049,0.397c3.083-3.202,8.136-4.782,12.747-4.123c2.589,0.647,5.285,1.836,7.695,3.49C292.303,233.798,292.32,232.81,292.258,232.059z"></path><path style="fill:#A2D7DD;" d="M271.735,235.534c0.705,5.963,3.044,10.617,10.966,10.617c6.534,0,8.955-6.641,9.477-11.25c-2.41-1.654-5.106-2.843-7.695-3.49C279.871,230.752,274.818,232.333,271.735,235.534z"></path><ellipse style="fill:#1E1E1E;" cx="281.671" cy="233.565" rx="4.858" ry="6.227"></ellipse><ellipse style="opacity:0.8;fill:#FFFFFF;" cx="281.855" cy="243.664" rx="6.008" ry="2.467"></ellipse><path style="fill:#FFFFFE;" d="M278.949,245.531c0,0-2.258,0.034-2.685-1.098c-0.424-1.132-0.128-2.283,0.617-2.399C277.628,241.918,278.738,244.76,278.949,245.531z"></path><path style="fill:#FFFFFE;" d="M269.11,231.833c0,0,1.377,1.813,3.515,1.58c2.134-0.236,3.449-2.542,3.559-3.34c0.109-0.796-2.647-2.655-4.761-2.225C269.308,228.275,268.491,229.74,269.11,231.833z"></path><ellipse style="fill:#FFFFFF;" cx="281.944" cy="240.399" rx="1.594" ry="1.082"></ellipse><ellipse transform="matrix(-0.4962 0.8682 -0.8682 -0.4962 636.197 97.7442)" style="opacity:0.3;fill:#FFFFFF;" cx="289.74" cy="233.45" rx="1.191" ry="1.986"></ellipse><ellipse transform="matrix(-0.4954 0.8687 -0.8687 -0.4954 635.8403 101.7499)" style="opacity:0.3;fill:#FFFFFF;" cx="288.366" cy="235.559" rx="0.686" ry="1.145"></ellipse><ellipse transform="matrix(0.9974 0.0723 -0.0723 0.9974 17.3951 -19.4792)" style="fill:#FFFFFE;" cx="277.754" cy="230.531" rx="0.723" ry="0.504"></ellipse><path style="fill:#FFFFFE;" d="M294.071,239.598c0,0-5.109-1.21-4.97-4.139C289.242,232.529,294.396,237.942,294.071,239.598z"></path></g><g><g><path d="M289.856,210.027c0,0-12.11-1.58-17.637,0.263c-5.529,1.844-10.529,6.055-10.529,6.055s4.929-7.177,10.266-8.16C281.959,206.342,289.856,210.027,289.856,210.027z"></path><g><path d="M296.411,242.359c0,0,6.844-6.576,8.373-8.171c1.526-1.594,4.826-3.458,6.772-3.295c-1.396-0.797-2.475-1.319-2.475-1.319s3.854-0.265,5.388,0.374c-3.742-2.423-3.383-1.554-6.098-4.197c-2.713-2.643-6.789-9.957-16.803-10.459c-10.011-0.502-14.505,1.297-16.624,2.932c-2.121,1.635-11.373,10.016-11.373,10.016s10.921-6.078,16.089-6.731c5.168-0.653,13.12-1.945,19.269,2.993c4.731,3.844,4.229,7.714,4.229,7.714L296.411,242.359z"></path><path d="M302.822,223.006c0,0,6.618-1.2,8.234-3.694c-3.803,1.006-7.529,0.965-10.088,0.545"></path><path d="M291.97,216.755c0,0,4.281-2.678,5.038-4.666c-4.916,2.125-8.985,3.597-9.654,4.686C286.684,217.863,291.97,216.755,291.97,216.755z"></path><path d="M273.625,220.697c0,0-4.409-1.333-5.805-2.132c3.129,2.167,3.95,3.302,3.95,3.302"></path><path d="M277.72,217.437c0,0-9.066,2.411-12.874,5.502c4.002-4.594,14.657-7.709,19.324-6.988C281.585,217.321,277.72,217.437,277.72,217.437z"></path></g></g><path d="M295.105,244.286c0,0-1.419-0.399-1.496-0.096c-0.079,0.303,0.003,1.489,0.588,1.35C294.783,245.4,295.125,244.583,295.105,244.286z"></path></g></g><g id="lefteye_2_"><path style="fill:#FFFFFF;" d="M198.662,235.674c2.21,2.981,4.067,5.484,4.067,5.484s6.536,8.888,17.759,7.377c11.223-1.511,12.353-9.275,12.073-13.861c-0.072-1.196-0.16-2.404-0.275-3.563c-2.885-1.404-5.979-2.36-9.115-2.787C214.938,227.757,204.951,229.621,198.662,235.674z"></path><path style="fill:#E4E0F3;" d="M230.122,223.983c-4.429-3.482-15.168-6.107-15.168-6.107s-16.823-3.64-19.127,13.971c0.934,1.262,1.916,2.585,2.835,3.827c6.289-6.054,16.276-7.917,24.509-7.35c3.136,0.427,6.229,1.383,9.115,2.787C231.955,227.825,231.375,224.95,230.122,223.983z"></path><g><path d="M212.142,218.019c0,0-8.794,6.177-6.783,18.658c1.881,11.677,13.214,12.423,14.478,12.306c2.199-0.202,10.461-1.915,11.481-14.844c0,0-0.409-9.155-4.86-12.138C220.208,218.862,216.364,217.109,212.142,218.019z"></path><path style="opacity:0.5;fill:#A2D7DD;" d="M207.744,232.059c0.324-3.888,3.563-10.69,4.373-10.69s8.099-2.916,13.12,2.916c0,0,3.726,4.698,3.078,10.853c-0.015,0.134-0.033,0.265-0.049,0.397c-3.083-3.202-8.136-4.782-12.747-4.123c-2.589,0.647-5.285,1.836-7.695,3.49C207.698,233.798,207.681,232.81,207.744,232.059z"></path><path style="fill:#A2D7DD;" d="M228.266,235.534c-0.706,5.963-3.044,10.617-10.966,10.617c-6.534,0-8.955-6.641-9.477-11.25c2.411-1.654,5.106-2.843,7.695-3.49C220.13,230.752,225.183,232.333,228.266,235.534z"></path><ellipse style="fill:#1E1E1E;" cx="218.331" cy="233.565" rx="4.859" ry="6.227"></ellipse><ellipse style="opacity:0.8;fill:#FFFFFF;" cx="218.146" cy="243.664" rx="6.008" ry="2.467"></ellipse><path style="fill:#FFFFFE;" d="M215.082,245.531c0,0-2.258,0.034-2.685-1.098c-0.424-1.132-0.128-2.283,0.617-2.399C213.76,241.918,214.87,244.76,215.082,245.531z"></path><path style="fill:#FFFFFE;" d="M205.243,231.833c0,0,1.377,1.813,3.515,1.58c2.133-0.236,3.449-2.542,3.559-3.34c0.109-0.796-2.648-2.655-4.762-2.225C205.44,228.275,204.624,229.74,205.243,231.833z"></path><ellipse style="fill:#FFFFFF;" cx="218.076" cy="240.399" rx="1.594" ry="1.082"></ellipse><path style="opacity:0.3;fill:#FFFFFF;" d="M225.282,234.484c0.952,0.544,1.988,0.523,2.315-0.048c0.326-0.571-0.182-1.476-1.134-2.02c-0.95-0.543-1.986-0.521-2.313,0.05C223.825,233.037,224.331,233.941,225.282,234.484z"></path><ellipse transform="matrix(-0.4954 0.8687 -0.8687 -0.4954 540.3344 157.2306)" style="opacity:0.3;fill:#FFFFFF;" cx="224.499" cy="235.559" rx="0.686" ry="1.144"></ellipse><ellipse transform="matrix(0.9974 0.0723 -0.0723 0.9974 17.222 -14.8566)" style="fill:#FFFFFE;" cx="213.886" cy="230.531" rx="0.723" ry="0.504"></ellipse><path style="fill:#FFFFFE;" d="M230.204,239.598c0,0-5.109-1.21-4.97-4.139C225.375,232.529,230.529,237.942,230.204,239.598z"></path></g><g><g><path d="M210.145,210.027c0,0,12.11-1.58,17.637,0.263c5.529,1.844,10.529,6.055,10.529,6.055s-4.929-7.177-10.265-8.16C218.042,206.342,210.145,210.027,210.145,210.027z"></path><g><path d="M203.59,242.359c0,0-6.844-6.576-8.373-8.171c-1.526-1.594-4.826-3.458-6.772-3.295c1.397-0.797,2.475-1.319,2.475-1.319s-3.854-0.265-5.388,0.374c3.742-2.423,3.383-1.554,6.098-4.197c2.712-2.643,6.789-9.956,16.802-10.459c10.011-0.502,14.505,1.297,16.624,2.932c2.121,1.635,11.373,10.016,11.373,10.016s-10.921-6.078-16.088-6.731c-5.168-0.653-13.12-1.945-19.269,2.993c-4.732,3.844-4.23,7.714-4.23,7.714L203.59,242.359z"></path><path d="M197.179,223.006c0,0-6.618-1.2-8.234-3.694c3.803,1.006,7.529,0.965,10.087,0.545"></path><path d="M208.032,216.755c0,0-4.281-2.678-5.038-4.666c4.917,2.125,8.985,3.597,9.654,4.686C213.318,217.863,208.032,216.755,208.032,216.755z"></path><path d="M226.376,220.697c0,0,4.409-1.333,5.804-2.132c-3.128,2.167-3.95,3.302-3.95,3.302"></path><path d="M222.282,217.437c0,0,9.067,2.411,12.875,5.502c-4.002-4.594-14.658-7.709-19.325-6.988C218.417,217.321,222.282,217.437,222.282,217.437z"></path></g></g><path d="M204.896,244.286c0,0,1.419-0.399,1.497-0.096c0.079,0.303-0.004,1.489-0.588,1.35C205.219,245.4,204.877,244.583,204.896,244.286z"></path></g></g></g></g></svg>