<svg xmlns="http://www.w3.org/2000/svg" width="500" height="500" version="1.1"><g id="x036"><g><g><g><path style="fill:#FFFFFF;" d="M233.271,231.044c0,0-2.918,9.416-8.619,11.937c-5.705,2.519-17.376,0.662-19.231,0.132c-1.856-0.531-10.609-14.059-8.487-20.822C205.155,222.158,224.651,218.444,233.271,231.044z"></path><path style="fill:#E4E0F3;" d="M197.119,228.39c-0.564-2.252-0.722-4.391-0.187-6.098c8.223-0.134,27.719-3.848,36.338,8.752c0,0-0.478,1.543-1.427,3.547C220.864,230.297,208.993,228.065,197.119,228.39z"></path></g><g><path d="M234.596,232.37c0.301,0.266-1.589-2.917-2.783-3.845c1.988,0.795,5.438,1.988,5.438,1.988l-5.569-5.968c0,0-16.579-9.417-36.737-3.979c-1.856,3.05-1.46,8.488-1.46,8.488s1.593,11.909,13.131,14.694c-5.836-4.376-9.018-14.429-7.957-19.469C206.614,223.086,224.651,223.484,234.596,232.37z"></path><path d="M199.055,220.169c0,0-7.295-0.531-11.937,1.062c4.244,1.193,8.354,2.386,7.958,2.254"></path><path d="M194.146,227.198c0,0-3.712,2.917-4.111,4.378c2.787,0.264,5.968,0.264,5.968,0.264"></path><path d="M206.349,218.976c-0.795-0.398-5.97-4.377-6.366-3.713c-0.397,0.663,0.796,5.437,0.796,5.437"></path><path d="M216.162,220.036c0,0-2.916-4.111-4.244-4.243c-1.326-0.134-0.398,4.906-0.398,4.906"></path><path d="M224.782,222.292c0,0-2.121-5.835-3.182-6.234c-1.061-0.398,0.132,5.969,0.132,5.969"></path><path d="M228.63,225.209c0,0,7.293,2.253,8.752,3.316c-1.987-2.654-6.101-5.307-13.659-7.163"></path></g><g><g><path d="M222.673,224.467c4.573,1.285,6.149,3.484,6.149,3.484s4.702,4.134,1.194,11.958c-3.108,6.936-9.804,6.216-12.674,5.021c-5.74-2.393-6.458-7.174-6.216-12.436c0.24-5.262,4.063-7.175,4.063-7.175S218.104,223.182,222.673,224.467z"></path><g><path style="fill:#A2D7DD;" d="M222.23,227.608c3.189,0.898,4.292,2.435,4.292,2.435s3.285,2.886,0.834,8.348c-2.172,4.841-6.848,4.34-8.849,3.507c-4.007-1.671-4.507-5.011-4.344-8.683c0.17-3.674,2.844-5.01,2.844-5.01S219.04,226.712,222.23,227.608z"></path><path style="fill:#84B9BF;" d="M226.522,230.043c0,0-1.103-1.537-4.292-2.435c-3.19-0.896-5.223,0.597-5.223,0.597s-2.673,1.335-2.844,5.01c-0.017,0.44-0.027,0.874-0.023,1.301c0.65-0.51,1.267-0.951,1.703-1.392c4.603-1.314,8.802-0.235,12.364,2.257C228.595,231.879,226.522,230.043,226.522,230.043z"></path><ellipse cx="221.32" cy="234.627" rx="2.81" ry="3.865"></ellipse></g><ellipse style="opacity:0.8;fill:#FFFFFF;" cx="221.182" cy="241.034" rx="2.398" ry="1.369"></ellipse></g><path style="fill:#FFFFFE;" d="M219.089,236.844c-0.001-0.72-2.229-2.091-3.484-2.005c-1.255,0.086-3.057,1.402-2.831,1.765c0.221,0.361,1.711,1.596,3.086,1.62C217.23,238.247,219.089,237.563,219.089,236.844z"></path></g></g><g><g><path style="fill:#FFFFFF;" d="M266.729,231.044c0,0,2.918,9.416,8.619,11.937c5.705,2.519,17.376,0.662,19.231,0.132c1.856-0.531,10.609-14.059,8.487-20.822C294.845,222.158,275.349,218.444,266.729,231.044z"></path><path style="fill:#E4E0F3;" d="M302.881,228.39c0.564-2.252,0.722-4.391,0.187-6.098c-8.223-0.134-27.719-3.848-36.338,8.752c0,0,0.478,1.543,1.427,3.547C279.136,230.297,291.007,228.065,302.881,228.39z"></path></g><g><path d="M265.404,232.37c-0.301,0.266,1.589-2.917,2.783-3.845c-1.988,0.795-5.438,1.988-5.438,1.988l5.569-5.968c0,0,16.579-9.417,36.737-3.979c1.856,3.05,1.46,8.488,1.46,8.488s-1.593,11.909-13.131,14.694c5.836-4.376,9.018-14.429,7.957-19.469C293.386,223.086,275.349,223.484,265.404,232.37z"></path><path d="M300.945,220.169c0,0,7.295-0.531,11.937,1.062c-4.244,1.193-8.354,2.386-7.958,2.254"></path><path d="M305.854,227.198c0,0,3.712,2.917,4.111,4.378c-2.787,0.264-5.968,0.264-5.968,0.264"></path><path d="M293.651,218.976c0.795-0.398,5.97-4.377,6.366-3.713c0.397,0.663-0.796,5.437-0.796,5.437"></path><path d="M283.838,220.036c0,0,2.916-4.111,4.244-4.243c1.326-0.134,0.398,4.906,0.398,4.906"></path><path d="M275.218,222.292c0,0,2.121-5.835,3.182-6.234c1.061-0.398-0.132,5.969-0.132,5.969"></path><path d="M271.37,225.209c0,0-7.293,2.253-8.752,3.316c1.987-2.654,6.101-5.307,13.659-7.163"></path></g><g><g><path d="M277.327,224.467c-4.574,1.285-6.15,3.484-6.15,3.484s-4.701,4.134-1.193,11.958c3.107,6.936,9.804,6.216,12.674,5.021c5.74-2.393,6.458-7.174,6.217-12.436c-0.24-5.262-4.063-7.175-4.063-7.175S281.896,223.182,277.327,224.467z"></path><g><path style="fill:#A2D7DD;" d="M277.771,227.608c-3.189,0.898-4.293,2.435-4.293,2.435s-3.284,2.886-0.834,8.348c2.172,4.841,6.848,4.34,8.849,3.507c4.007-1.671,4.507-5.011,4.345-8.683c-0.171-3.674-2.844-5.01-2.844-5.01S280.96,226.712,277.771,227.608z"></path><path style="fill:#84B9BF;" d="M273.478,230.043c0,0,1.104-1.537,4.293-2.435c3.189-0.896,5.223,0.597,5.223,0.597s2.673,1.335,2.844,5.01c0.016,0.44,0.026,0.874,0.023,1.301c-0.65-0.51-1.268-0.951-1.703-1.392c-4.604-1.314-8.803-0.235-12.365,2.257C271.405,231.879,273.478,230.043,273.478,230.043z"></path><ellipse cx="278.68" cy="234.627" rx="2.81" ry="3.865"></ellipse></g><path style="opacity:0.8;fill:#FFFFFF;" d="M281.216,241.034c0,0.754-1.072,1.369-2.4,1.369c-1.326,0-2.396-0.615-2.396-1.369c0-0.758,1.069-1.372,2.396-1.372C280.144,239.662,281.216,240.276,281.216,241.034z"></path></g><path style="fill:#FFFFFE;" d="M280.911,236.844c0-0.72,2.229-2.091,3.483-2.005c1.255,0.086,3.057,1.402,2.831,1.765c-0.221,0.361-1.711,1.596-3.086,1.62C282.77,238.247,280.911,237.563,280.911,236.844z"></path></g></g></g></g></svg>