<svg xmlns="http://www.w3.org/2000/svg" width="500" height="500" version="1.1"><g id="x037"><g><g><g><path style="fill:#FFFFFF;" d="M197.493,230.219c0,0,4.581,15.377,14.395,16.686s15.704-2.618,15.704-2.618s6.543-5.888,4.908-14.395c-4.09-3.272-5.398-4.907-5.398-4.907S202.074,224.33,197.493,230.219z"></path><path style="fill:#E4E0F3;" d="M232.5,229.892c-4.09-3.272-5.398-4.907-5.398-4.907s-25.027-0.655-29.608,5.233c0,0,0.695,2.322,2.115,5.236c10.649-1.64,22.516-2.546,32.574,1.18C232.744,234.667,232.98,232.397,232.5,229.892z"></path></g><g><path d="M229.106,227.318c0,0,4.438,16.426-10.552,17.648c-14.708,1.197-15.136-15.891-15.136-15.891S223.112,225.56,229.106,227.318z"></path><g><path style="fill:#A2D7DD;" d="M226.645,226.938c0,0,5.03,15.735-8.028,15.735c-13.058-0.001-11.881-14.237-11.881-14.237S221.614,226.082,226.645,226.938z"></path><path style="fill:#84B9BF;" d="M226.645,226.938c-5.031-0.856-19.909,1.498-19.909,1.498s-0.436,5.331,2.217,9.47c5.215-4.281,12.413-5.151,18.576-3.109C227.9,230.865,226.645,226.938,226.645,226.938z"></path><path style="opacity:0.8;fill:#FFFFFF;" d="M224.397,239.782c0,0-1.499,2.14-6.316,2.14c-4.815,0-6.956-2.461-6.956-2.461s0.035-0.245,0.855-0.749c1.392-0.856,1.926-1.391,5.994-1.391s5.031,0.857,5.995,1.604C224.504,239.341,224.397,239.782,224.397,239.782z"></path></g><ellipse style="fill:#FFFFFE;" cx="209.763" cy="231.855" rx="3.844" ry="3.271"></ellipse></g><g><path d="M192.713,234.815l-2.461-2.527c0,0,4.281-8.99,8.778-8.348c4.495,0.642,25.047-2.998,29.113-1.285c4.068,1.712,10.062,7.921,10.062,7.921l-4.709-1.286c0,0,2.354,2.57,3.854,5.566c-1.928-0.428-11.347-6.849-11.347-6.849s-20.766,0.855-27.023,3.68c-1.342,6.809,12.06,14.21,18.246,14.623C209.148,247.018,200.635,246.953,192.713,234.815z"></path><path d="M221.72,225.011c0,0,13.061-1.498,16.913-0.642c-4.709-1.713-10.275-2.783-16.056-1.928C220.437,223.94,221.72,225.011,221.72,225.011z"></path><path d="M195.817,236.571c0,0-5.779,1.607-5.565,1.926c2.248,1.177,7.813,1.285,7.813,1.285L195.817,236.571z"></path><path d="M194.374,234.162c0,0-5.78,1.605-5.567,1.928c2.248,1.177,7.813,1.284,7.813,1.284L194.374,234.162z"></path><path d="M200.1,241.388c0,0-5.352,1.712-5.673,1.07c-0.321-0.643,2.997-3.318,2.997-3.318L200.1,241.388z"></path><path d="M201.919,243.315c0,0-5.353,1.712-5.673,1.069c-0.321-0.642,2.997-3.318,2.997-3.318L201.919,243.315z"></path><path d="M204.407,244.963c0,0-5.24,2.029-5.599,1.407c-0.36-0.621,2.792-3.491,2.792-3.491L204.407,244.963z"></path><path d="M208.38,244.888c0,0-5.004,2.554-5.425,1.972c-0.421-0.581,2.421-3.758,2.421-3.758L208.38,244.888z"></path><path d="M193.249,228.65c-0.535,0.321-9.418,3.961-9.74,4.389c2.89,1.07,11.239,1.177,11.239,1.177L193.249,228.65z"></path></g><path d="M233.496,219.445c0,0-24.084-1.178-36.287,2.14C205.772,216.876,223.861,216.447,233.496,219.445z"></path><path style="opacity:0.5;" d="M227.929,243.957c0,0-3.207,4.631-14.129,4.496c-8.563-0.108-13.487-5.887-13.487-5.887S217.119,249.845,227.929,243.957z"></path></g><g><g><path style="fill:#FFFFFF;" d="M302.507,230.219c0,0-4.579,15.377-14.395,16.686c-9.814,1.308-15.703-2.618-15.703-2.618s-6.542-5.888-4.907-14.395c4.088-3.272,5.397-4.907,5.397-4.907S297.928,224.331,302.507,230.219z"></path><path style="fill:#E4E0F3;" d="M267.502,229.892c4.088-3.272,5.397-4.907,5.397-4.907s25.028-0.655,29.607,5.233c0,0-0.694,2.322-2.115,5.237c-10.648-1.641-22.516-2.547-32.574,1.179C267.257,234.667,267.021,232.397,267.502,229.892z"></path></g><g><path d="M270.895,227.318c0,0-4.44,16.426,10.551,17.648c14.709,1.197,15.137-15.891,15.137-15.891S276.889,225.56,270.895,227.318z"></path><g><path style="fill:#A2D7DD;" d="M273.355,226.938c0,0-5.029,15.735,8.027,15.735c13.06-0.001,11.883-14.237,11.883-14.237S278.387,226.082,273.355,226.938z"></path><path style="fill:#84B9BF;" d="M273.355,226.938c5.031-0.856,19.91,1.498,19.91,1.498s0.435,5.331-2.218,9.47c-5.215-4.281-12.411-5.151-18.576-3.109C272.102,230.865,273.355,226.938,273.355,226.938z"></path><path style="opacity:0.8;fill:#FFFFFF;" d="M275.604,239.782c0,0,1.496,2.14,6.314,2.14c4.816,0,6.957-2.461,6.957-2.461s-0.036-0.245-0.855-0.749c-1.392-0.856-1.927-1.391-5.994-1.391c-4.068,0-5.032,0.857-5.994,1.604C275.497,239.341,275.604,239.782,275.604,239.782z"></path></g><ellipse style="fill:#FFFFFE;" cx="275.513" cy="231.855" rx="3.844" ry="3.271"></ellipse></g><g><path d="M307.287,234.815l2.462-2.526c0,0-4.283-8.991-8.777-8.348c-4.495,0.642-25.047-2.998-29.114-1.285c-4.066,1.712-10.063,7.921-10.063,7.921l4.71-1.286c0,0-2.354,2.57-3.853,5.566c1.926-0.428,11.346-6.849,11.346-6.849s20.766,0.855,27.023,3.68c1.342,6.809-12.061,14.21-18.247,14.623C290.852,247.018,299.365,246.953,307.287,234.815z"></path><path d="M278.281,225.011c0,0-13.062-1.498-16.914-0.642c4.71-1.713,10.276-2.783,16.057-1.928C279.563,223.94,278.281,225.011,278.281,225.011z"></path><path d="M304.182,236.571c0,0,5.78,1.607,5.567,1.926c-2.249,1.178-7.813,1.285-7.813,1.285L304.182,236.571z"></path><path d="M305.627,234.162c0,0,5.78,1.605,5.565,1.928c-2.247,1.177-7.812,1.284-7.812,1.284L305.627,234.162z"></path><path d="M299.9,241.388c0,0,5.353,1.712,5.674,1.07c0.32-0.643-2.997-3.318-2.997-3.318L299.9,241.388z"></path><path d="M298.082,243.315c0,0,5.351,1.712,5.672,1.069c0.321-0.642-2.996-3.318-2.996-3.318L298.082,243.315z"></path><path d="M295.595,244.963c0,0,5.238,2.029,5.597,1.407c0.361-0.621-2.79-3.491-2.79-3.491L295.595,244.963z"></path><path d="M291.621,244.888c0,0,5.004,2.554,5.425,1.972c0.419-0.581-2.421-3.758-2.421-3.758L291.621,244.888z"></path><path d="M306.751,228.65c0.534,0.321,9.419,3.961,9.74,4.389c-2.89,1.07-11.238,1.177-11.238,1.177L306.751,228.65z"></path></g><path d="M266.505,219.445c0,0,24.085-1.178,36.284,2.14C294.228,216.876,276.139,216.447,266.505,219.445z"></path><path style="opacity:0.5;" d="M272.072,243.957c0,0,3.206,4.631,14.128,4.496c8.563-0.108,13.486-5.887,13.486-5.887S282.882,249.845,272.072,243.957z"></path></g></g></g></svg>