<svg xmlns="http://www.w3.org/2000/svg" width="500" height="500" version="1.1"><g id="x9063"><g><g><path style="fill:#B72D09;" d="M289.016,220.5c0,0,3.136-1.592,5.85-1.532c2.715,0.06,15.532,4.562,17.098,10.086c-1.938,1.992-3.618,2.607-3.618,2.607L289.016,220.5z"></path><g><g><path style="fill:#FFFFFF;" d="M266.142,232.062c0.037,0.384,1.619,8.743,4.523,10.785c4.992,0.936,16.229,2.43,16.229,2.43s9.613-1.96,12.574-4.697c2.96-2.736,5.363-7.226,5.363-7.226s-8.102-10.438-18.425-10.474C276.087,222.846,266.142,232.062,266.142,232.062z"></path><path style="fill:#E4E0F3;" d="M303.065,236.221c1.079-1.594,1.767-2.867,1.767-2.867s-8.102-10.438-18.425-10.474c-10.32-0.035-20.266,9.181-20.266,9.181c0.022,0.236,0.633,3.462,1.762,6.398C275.839,223.841,293.545,227.086,303.065,236.221z"></path></g><g><path style="fill:#A2D7DD;" d="M273.95,227.438c0,0-4.358,4.291-4.826,10.14c0.529,2.786,1.541,6.268,1.541,6.268s16.267,1.814,16.229,1.43c-0.036-0.382,1.77-1.718,2.581-3.99c0.812-2.271,2.715-13.289-1.155-17.301C284.223,222.963,275.503,224.836,273.95,227.438z"></path><path style="opacity:0.5;fill:#FEFBF6;" d="M287.736,243.571c-0.211,1.643-3.732,1.538-8.024,0.988c-4.291-0.549-7.727-1.335-7.516-2.979c0.21-1.644,3.986-3.522,8.277-2.973C284.766,239.158,287.946,241.927,287.736,243.571z"></path><path style="fill:#84B9BF;" d="M269.764,233.517c0,0,4.331-4.495,11.845-4.239c7.894,0.27,8.924,1.588,8.924,1.588l-1.689-6.802c0,0-10.932-1.007-16.968,4.605C270.461,231.387,269.764,233.517,269.764,233.517z"></path><g><path d="M276.188,226.577c0,0-4.585,3.281-7.142,11.524c-0.709-5.994,2.817-9.559,2.817-9.559"></path><path d="M287.183,224.225c0,0,4.97,7.388,1.522,18.426c2.255-2.024,5.327-11.608,1.301-18.57C288.935,223.668,287.183,224.225,287.183,224.225z"></path></g><ellipse transform="matrix(0.9987 0.0505 -0.0505 0.9987 12.1987 -13.8099)" cx="279.477" cy="234.578" rx="1.606" ry="1.989"></ellipse></g><g><path d="M270.204,244.007c0,0,1.844-0.952,3.553-0.601c1.712,0.35,6.712,1.572,11.466,1.258c8.459-0.559,14.819-7.494,15.343-7.415c0,0,1.248,0.911,0.835,1.983c-0.411,1.072-6.836,6.658-13.762,7.069C280.713,246.712,270.204,244.007,270.204,244.007z"></path><g><path d="M292.043,245.166c0,0,1.342,1.87,2.385,1.318c1.043-0.553-0.119-2.569-0.119-2.569L292.043,245.166z"></path><path d="M295.793,243.256c0,0,2.884,2.494,3.737,1.315c0.854-1.179-0.736-2.96-0.736-2.96L295.793,243.256z"></path><path d="M299.429,240.841c0,0,3.309,1.55,4.124,0.633c0.814-0.917-2.702-3.931-2.702-3.931L299.429,240.841z"></path></g></g><g><path d="M261.037,233.974c0,0,3.195-0.309,4.411-1.071c1.216-0.763,13.062-9.001,23.063-8.291c9.999,0.71,16.263,10.812,16.226,10.427c-0.036-0.383,3.418-2.007,4.676-3.676c-3.908-4.395-12.419-11.025-22.205-10.881C273.039,220.69,261.037,233.974,261.037,233.974z"></path><path d="M289.54,223.933c0,0-11.116-4.924-26.014-0.905c5.536-2.792,23.904-4.244,30.487-1.527C292.591,222.799,289.54,223.933,289.54,223.933z"></path></g></g></g><g><path style="fill:#B72D09;" d="M210.984,220.5c0,0-3.136-1.592-5.85-1.532c-2.715,0.06-15.532,4.562-17.098,10.086c1.938,1.992,3.618,2.607,3.618,2.607L210.984,220.5z"></path><g><g><path style="fill:#FFFFFF;" d="M233.858,232.062c-0.037,0.384-1.619,8.743-4.523,10.785c-4.992,0.936-16.229,2.43-16.229,2.43s-9.613-1.96-12.574-4.697c-2.96-2.736-5.363-7.226-5.363-7.226s8.102-10.438,18.425-10.474C223.913,222.846,233.858,232.062,233.858,232.062z"></path><path style="fill:#E4E0F3;" d="M196.935,236.221c-1.079-1.594-1.767-2.867-1.767-2.867s8.102-10.438,18.425-10.474c10.32-0.035,20.266,9.181,20.266,9.181c-0.022,0.236-0.633,3.462-1.762,6.398C224.161,223.841,206.455,227.086,196.935,236.221z"></path></g><g><path style="fill:#A2D7DD;" d="M226.05,227.438c0,0,4.358,4.291,4.826,10.14c-0.529,2.786-1.541,6.268-1.541,6.268s-16.267,1.814-16.229,1.43c0.036-0.382-1.77-1.718-2.581-3.99c-0.812-2.271-2.715-13.289,1.155-17.301C215.777,222.963,224.497,224.836,226.05,227.438z"></path><path style="opacity:0.5;fill:#FEFBF6;" d="M212.264,243.571c0.211,1.643,3.732,1.538,8.024,0.988c4.291-0.549,7.727-1.335,7.516-2.979c-0.21-1.644-3.986-3.522-8.277-2.973C215.234,239.158,212.054,241.927,212.264,243.571z"></path><path style="fill:#84B9BF;" d="M230.236,233.517c0,0-4.331-4.495-11.845-4.239c-7.894,0.27-8.924,1.588-8.924,1.588l1.689-6.802c0,0,10.932-1.007,16.968,4.605C229.539,231.387,230.236,233.517,230.236,233.517z"></path><g><path d="M223.812,226.577c0,0,4.585,3.281,7.142,11.524c0.709-5.994-2.817-9.559-2.817-9.559"></path><path d="M212.817,224.225c0,0-4.97,7.388-1.522,18.426c-2.255-2.024-5.327-11.608-1.301-18.57C211.065,223.668,212.817,224.225,212.817,224.225z"></path></g><ellipse transform="matrix(-0.9987 0.0505 -0.0505 -0.9987 452.608 457.7243)" cx="220.523" cy="234.578" rx="1.606" ry="1.989"></ellipse></g><g><path d="M229.796,244.007c0,0-1.844-0.952-3.553-0.601c-1.712,0.35-6.712,1.572-11.466,1.258c-8.459-0.559-14.819-7.494-15.343-7.415c0,0-1.248,0.911-0.835,1.983c0.411,1.072,6.836,6.658,13.762,7.069C219.287,246.712,229.796,244.007,229.796,244.007z"></path><g><path d="M207.957,245.166c0,0-1.342,1.87-2.385,1.318c-1.043-0.553,0.119-2.569,0.119-2.569L207.957,245.166z"></path><path d="M204.207,243.256c0,0-2.884,2.494-3.737,1.315c-0.854-1.179,0.736-2.96,0.736-2.96L204.207,243.256z"></path><path d="M200.571,240.841c0,0-3.309,1.55-4.124,0.633c-0.814-0.917,2.702-3.931,2.702-3.931L200.571,240.841z"></path></g></g><g><path d="M238.963,233.974c0,0-3.195-0.309-4.411-1.071c-1.216-0.763-13.062-9.001-23.063-8.291c-9.999,0.71-16.263,10.812-16.226,10.427c0.036-0.383-3.418-2.007-4.676-3.676c3.908-4.395,12.419-11.025,22.205-10.881C226.961,220.69,238.963,233.974,238.963,233.974z"></path><path d="M210.46,223.933c0,0,11.116-4.924,26.014-0.905c-5.536-2.792-23.904-4.244-30.487-1.527C207.409,222.799,210.46,223.933,210.46,223.933z"></path></g></g></g></g></g></svg>