<svg xmlns="http://www.w3.org/2000/svg" width="500" height="500" version="1.1"><g id="x9076"><g><g><g><g><path style="fill:#FFFFFF;" d="M267.706,232.118c0,0,3.133,9.857,9.949,12.897c5.159,0.276,14.463,0.092,16.95-1.382s5.251-5.343,6.08-7.186c0.645-5.251-0.185-12.067-8.291-12.712C284.196,223.09,269.642,229.262,267.706,232.118z"></path><path style="fill:#E4E0F3;" d="M300.726,231.684c-0.495-3.915-2.57-7.491-8.331-7.948c-8.198-0.645-22.753,5.527-24.688,8.383c0,0,0.708,2.204,2.162,4.844C279.366,230.905,290.176,229.94,300.726,231.684z"></path></g><g><g><path style="fill:#A2D7DD;" d="M270.01,230.368c0,0-0.639,8.509,7.836,12.195c5.938,1.75,8.731,0.561,11.971-2.522c1.934-1.842,3.407-4.23,3.407-9.949c0-3.132-2.764-6.172-2.764-6.172S276.734,223.643,270.01,230.368z"></path><path style="fill:#84B9BF;" d="M290.46,223.919c0,0-13.726-0.276-20.45,6.448c0,0-0.202,2.682,0.93,5.728c7.035-2.626,14.653-4.537,22.256-5.137c0.009-0.291,0.028-0.556,0.028-0.867C293.224,226.959,290.46,223.919,290.46,223.919z"></path></g><g><path d="M272.096,229.563c0,0-1.375,11.688,9.813,13.938c-3.313,0.188-11.875-1.813-11.875-12.813C271.033,229.625,272.096,229.563,272.096,229.563z"></path><path d="M290.096,224.875c0,0,2.708,4.068,1.375,9.313c-1.875,7.375-8.938,9.313-8.938,9.313s8.505-0.104,10.625-8.813c1.75-7.188-1.5-9.75-1.5-9.75L290.096,224.875z"></path></g></g></g><path d="M272.958,218.576c0,0,5.526-1.658,13.541-1.29c8.015,0.369,15.199,2.58,15.199,2.58s-5.711-4.33-15.291-4.33C276.826,215.537,272.958,218.576,272.958,218.576z"></path><g><g><path d="M263.562,234.237c0,0,10.041-10.962,21.096-13.542c10.685-1.105,22.846,4.053,26.898,7.37c-3.685,3.316-11.699,9.949-11.699,9.949c0.369-1.935,1.794-8.321-4.515-11.7C285.025,220.788,263.562,234.237,263.562,234.237z"></path><path d="M306.4,227.574c0,0,9.58-1.719,16.95-7.615c-2.211,4.667-11.544,10.319-15.721,10.81C307.874,229.294,306.4,227.574,306.4,227.574z"></path><path d="M298.786,223.643c0,0,7.125-3.439,8.844-7.124c-1.966,6.142-5.896,9.335-5.896,9.335L298.786,223.643z"></path><path d="M292.397,221.924c0,0,5.406-2.948,7.862-6.633c-0.737,4.913-3.439,8.107-3.439,8.107L292.397,221.924z"></path><path d="M306.4,231.259c0,0,15.013,3.899,26.038-7.37c-3.192,6.633-12.103,12.896-29.818,11.269C303.356,233.592,306.4,231.259,306.4,231.259z"></path><path d="M282.077,222.998c0,0-8.658,1.013-15.2,4.606c3.777-4.237,15.385-7.646,21.372-6.816C282.262,222.814,282.077,222.998,282.077,222.998z"></path></g><g><path d="M277.195,244.646c0,0,1.381-0.368,4.975-0.368c3.592,0,4.605,0.46,4.514,0.829c-0.093,0.368-5.067,0.645-5.343,0.737C281.063,245.936,278.024,245.568,277.195,244.646z"></path><g><path d="M296.356,240.501c0.092-0.645,0.644-0.921,1.289-1.105c0.645-0.184,4.238,1.474,3.593,3.87C299.765,242.62,296.264,241.146,296.356,240.501z"></path><path d="M294.883,244.739c0,0-1.751,0-1.751-0.645c0-0.645,0.461-1.566,1.381-1.658c0.922-0.092,3.317,1.935,3.409,2.764C296.816,244.831,294.883,244.739,294.883,244.739z"></path><path d="M289.078,245.844c0,0-1.474-0.645-0.92-1.566c0.552-0.921,3.868,0.552,4.145,1.29C292.579,246.305,290.645,246.857,289.078,245.844z"></path></g></g></g></g><g><g><g><path style="fill:#FFFFFF;" d="M232.294,233.118c0,0-3.133,9.857-9.949,12.897c-5.159,0.276-14.463,0.092-16.95-1.382s-5.251-5.343-6.08-7.186c-0.645-5.251,0.185-12.067,8.291-12.712C215.804,224.09,230.358,230.262,232.294,233.118z"></path><path style="fill:#E4E0F3;" d="M199.274,232.684c0.495-3.915,2.57-7.491,8.331-7.948c8.198-0.645,22.753,5.527,24.688,8.383c0,0-0.708,2.204-2.162,4.844C220.634,231.905,209.824,230.94,199.274,232.684z"></path></g><g><g><path style="fill:#A2D7DD;" d="M229.99,231.368c0,0,0.639,8.509-7.836,12.195c-5.938,1.75-8.731,0.561-11.971-2.522c-1.934-1.842-3.407-4.23-3.407-9.949c0-3.132,2.764-6.172,2.764-6.172S223.266,224.643,229.99,231.368z"></path><path style="fill:#84B9BF;" d="M209.54,224.919c0,0,13.726-0.276,20.45,6.448c0,0,0.202,2.682-0.93,5.728c-7.035-2.626-14.653-4.537-22.256-5.137c-0.009-0.291-0.028-0.556-0.028-0.867C206.776,227.959,209.54,224.919,209.54,224.919z"></path></g><g><path d="M227.904,230.563c0,0,1.375,11.688-9.813,13.938c3.313,0.188,11.875-1.813,11.875-12.813C228.967,230.625,227.904,230.563,227.904,230.563z"></path><path d="M209.904,225.875c0,0-2.708,4.068-1.375,9.313c1.875,7.375,8.938,9.313,8.938,9.313s-8.505-0.104-10.625-8.813c-1.75-7.188,1.5-9.75,1.5-9.75L209.904,225.875z"></path></g></g></g><path d="M227.042,219.576c0,0-5.526-1.658-13.541-1.29c-8.015,0.369-15.199,2.58-15.199,2.58s5.711-4.33,15.291-4.33C223.174,216.537,227.042,219.576,227.042,219.576z"></path><g><g><path d="M236.438,235.237c0,0-10.041-10.962-21.096-13.542c-10.685-1.105-22.846,4.053-26.898,7.37c3.685,3.316,11.699,9.949,11.699,9.949c-0.369-1.935-1.794-8.321,4.515-11.7C214.975,221.788,236.438,235.237,236.438,235.237z"></path><path d="M193.6,228.574c0,0-9.58-1.719-16.95-7.615c2.211,4.667,11.544,10.319,15.721,10.81C192.126,230.294,193.6,228.574,193.6,228.574z"></path><path d="M201.214,224.643c0,0-7.125-3.439-8.844-7.124c1.966,6.142,5.896,9.335,5.896,9.335L201.214,224.643z"></path><path d="M207.603,222.924c0,0-5.406-2.948-7.862-6.633c0.737,4.913,3.439,8.107,3.439,8.107L207.603,222.924z"></path><path d="M193.6,232.259c0,0-15.013,3.899-26.038-7.37c3.192,6.633,12.103,12.896,29.818,11.269C196.644,234.592,193.6,232.259,193.6,232.259z"></path><path d="M217.923,223.998c0,0,8.658,1.013,15.2,4.606c-3.777-4.237-15.385-7.646-21.372-6.816C217.738,223.814,217.923,223.998,217.923,223.998z"></path></g><g><path d="M222.805,245.646c0,0-1.381-0.368-4.975-0.368c-3.592,0-4.605,0.46-4.514,0.829c0.093,0.368,5.067,0.645,5.343,0.737C218.937,246.936,221.976,246.568,222.805,245.646z"></path><g><path d="M203.644,241.501c-0.092-0.645-0.644-0.921-1.289-1.105c-0.645-0.184-4.238,1.474-3.593,3.87C200.235,243.62,203.736,242.146,203.644,241.501z"></path><path d="M205.117,245.739c0,0,1.751,0,1.751-0.645c0-0.645-0.461-1.566-1.381-1.658c-0.922-0.092-3.317,1.935-3.409,2.764C203.184,245.831,205.117,245.739,205.117,245.739z"></path><path d="M210.922,246.844c0,0,1.474-0.645,0.92-1.566c-0.552-0.921-3.868,0.552-4.145,1.29C207.421,247.305,209.355,247.857,210.922,246.844z"></path></g></g></g></g></g></g></svg>