<svg xmlns="http://www.w3.org/2000/svg" width="500" height="500" version="1.1"><g id="x008"><g><g><path style="fill:#FFFFFF;" d="M197.268,231.855c2.348,5.281,7.598,15.22,14.068,15.809c8.443,2.166,19.341,0.736,21.484-0.822c1.575-1.145,3.818-9.094,2.212-15.4C223.902,229.608,207.784,228.784,197.268,231.855z"></path><path style="fill:#E4E0F3;" d="M214.133,217.902c0,0-15.564,5.263-18.198,10.712c0,0,0.475,1.312,1.333,3.241c10.516-3.071,26.634-2.247,37.764-0.413c-0.578-2.27-1.374-4.27-2.405-5.558C224.256,221.017,214.133,217.902,214.133,217.902z"></path><path d="M234.964,228.026c0,0-8.942-4.111-18.3-5.646c-9.358-1.535-20.729,6.235-20.729,6.235l0.813,2.16c0,0-10.743-4.262-13.708-4.472c6.831-1.184,12.292-2.815,12.292-2.815l-6.981-4.172l11.75,1.177c0,0,8.061-4.955,17.872-3.65C227.785,218.147,234.964,228.026,234.964,228.026z"></path><path d="M198.948,236.008c0,0,0.75,10.136,12.388,11.656C202.417,243.618,198.948,236.008,198.948,236.008z"></path><g><ellipse transform="matrix(0.9507 0.31 -0.31 0.9507 83.6614 -57.2256)" cx="221.852" cy="234.571" rx="11.535" ry="10.274"></ellipse><ellipse transform="matrix(0.9507 0.31 -0.31 0.9507 83.6545 -57.2221)" style="fill:#A2D7DD;" cx="221.852" cy="234.572" rx="9.057" ry="8.066"></ellipse><path style="opacity:0.5;" d="M224.353,226.903c-4.756-1.552-9.73,0.624-11.112,4.86c-0.285,0.871-0.385,1.759-0.34,2.638h17.875C230.456,231.136,228.004,228.094,224.353,226.903z"></path><g><ellipse transform="matrix(0.9507 0.3101 -0.3101 0.9507 83.7999 -57.1704)" style="fill:#1E1E1E;" cx="221.741" cy="235.024" rx="3.709" ry="3.303"></ellipse></g><ellipse style="fill:#FFFFFE;" cx="216.481" cy="230.641" rx="2.748" ry="2.473"></ellipse><ellipse style="opacity:0.8;fill:#FFFFFF;" cx="222.74" cy="240.843" rx="3.796" ry="2.142"></ellipse></g><g><path d="M215.896,212.753c0.57-0.004,17.319-1.367,25.316,1.431c-4.406-2.765-17.128-4.449-24.746-1.436"></path><path d="M231.509,211.967c0,0,9.038,4.844,11.976,9.783c-2.938-4.939-8.038-9.068-8.038-9.068L231.509,211.967z"></path></g></g><g><path style="fill:#FFFFFF;" d="M302.732,231.855c-2.349,5.281-7.599,15.22-14.068,15.809c-8.442,2.166-19.343,0.736-21.483-0.822c-1.575-1.145-3.817-9.094-2.213-15.4C276.098,229.608,292.217,228.784,302.732,231.855z"></path><path style="fill:#E4E0F3;" d="M285.867,217.902c0,0,15.563,5.263,18.197,10.712c0,0-0.475,1.312-1.332,3.241c-10.516-3.071-26.635-2.247-37.765-0.413c0.577-2.27,1.374-4.27,2.404-5.558C275.743,221.017,285.867,217.902,285.867,217.902z"></path><path d="M265.035,228.026c0,0,8.943-4.111,18.301-5.646c9.358-1.535,20.729,6.235,20.729,6.235l-0.813,2.16c0,0,10.744-4.262,13.709-4.472c-6.831-1.184-12.293-2.815-12.293-2.815l6.98-4.172l-11.749,1.177c0,0-8.062-4.955-17.872-3.65C272.214,218.147,265.035,228.026,265.035,228.026z"></path><path d="M301.052,236.008c0,0-0.75,10.136-12.388,11.656C297.582,243.618,301.052,236.008,301.052,236.008z"></path><g><ellipse transform="matrix(-0.9507 0.31 -0.31 -0.9507 615.3176 371.345)" cx="278.148" cy="234.571" rx="11.535" ry="10.273"></ellipse><ellipse transform="matrix(-0.9507 0.31 -0.31 -0.9507 615.3164 371.3491)" style="fill:#A2D7DD;" cx="278.148" cy="234.572" rx="9.057" ry="8.066"></ellipse><path style="opacity:0.5;" d="M275.647,226.903c4.756-1.552,9.729,0.624,11.111,4.86c0.284,0.871,0.386,1.759,0.34,2.638h-17.875C269.543,231.136,271.995,228.094,275.647,226.903z"></path><g><ellipse transform="matrix(-0.9507 0.31 -0.31 -0.9507 615.674 372.1952)" style="fill:#1E1E1E;" cx="278.259" cy="235.024" rx="3.71" ry="3.303"></ellipse></g><ellipse style="fill:#FFFFFE;" cx="273.551" cy="230.641" rx="2.747" ry="2.473"></ellipse><ellipse style="opacity:0.8;fill:#FFFFFF;" cx="277.259" cy="240.843" rx="3.796" ry="2.142"></ellipse></g><g><path d="M284.104,212.753c-0.571-0.004-17.318-1.367-25.316,1.431c4.406-2.765,17.129-4.449,24.745-1.436"></path><path d="M268.491,211.967c0,0-9.038,4.844-11.977,9.783c2.938-4.939,8.039-9.068,8.039-9.068L268.491,211.967z"></path></g></g></g></g></svg>