<svg xmlns="http://www.w3.org/2000/svg" width="500" height="500" version="1.1"><g id="x9095"><g><g><g><path style="fill:#FFFFFF;" d="M268.173,228.691c0,0-0.098,9.649,5.908,14.671c5.219,0.984,17.527-0.492,17.527-0.492s6.301-4.136,9.254-8.37c2.955-8.074,3.447-9.846,3.447-9.846s-10.338-2.954-20.973-1.969C272.702,223.669,268.173,228.691,268.173,228.691z"></path><path style="fill:#E4E0F3;" d="M301.983,231.416c1.959-5.448,2.326-6.762,2.326-6.762s-10.338-2.954-20.973-1.969c-10.635,0.984-15.164,6.006-15.164,6.006s-0.021,2.359,0.68,5.349C279.776,232.542,291.058,231.036,301.983,231.416z"></path></g><g><g><path style="fill:#A2D7DD;" d="M270.683,227.006c0,0,1.447,13.62,11.855,13.72c10.406,0.1,12.036-13.421,12.036-16.702c-3.168-1.59-8.325-2.784-12.852-2.287C277.197,222.233,270.683,227.006,270.683,227.006z"></path><ellipse style="opacity:0.5;fill:#FFFFFF;" cx="282.537" cy="236.55" rx="6.063" ry="4.088"></ellipse><g><path style="fill:#DBF2FF;" d="M287.516,231.579c0.995-0.199,3.801,1.193,3.801,2.088c0,0.894-5.249,4.075-6.245,2.287C284.076,234.164,286.52,231.778,287.516,231.579z"></path><path style="fill:#FFD1ED;" d="M274.483,233.965c0-0.994,2.443-1.889,3.439-1.79c0.994,0.099,2.352,4.076,1.72,4.672C279.009,237.445,274.483,234.959,274.483,233.965z"></path></g><path style="fill:#84B9BF;" d="M281.723,221.737c-4.525,0.497-11.04,5.269-11.04,5.269s0.321,2.9,1.674,6.032c6.605-2.441,13.998-2.852,20.489-0.35c1.373-3.508,1.729-7.161,1.729-8.664C291.406,222.433,286.249,221.24,281.723,221.737z"></path><ellipse style="fill:#84B9BF;" cx="282.267" cy="230.262" rx="2.625" ry="3.479"></ellipse><ellipse style="opacity:0.5;" cx="282.267" cy="230.262" rx="2.625" ry="3.479"></ellipse></g><g><path d="M271.77,226.012c0,0-1.268,10.638,9.049,14.714c-11.313-1.193-10.769-13.123-10.769-13.123L271.77,226.012z"></path><path d="M292.944,224.819c0,0,1.539,14.117-9.772,15.807c4.887-0.099,13.302-2.585,11.764-15.807C293.94,223.924,292.944,224.819,292.944,224.819z"></path></g></g><g><path style="fill:#FF10B1;" d="M289.048,243.559c15.557,0.197,19.299-15.36,19.299-15.36S296.925,240.408,289.048,243.559z"></path><g><path d="M263.187,232.4c0.131-0.525,4.986-7.222,12.34-10.897c7.613-2.888,23.656-1.528,27.439-0.394c5.25,1.576,8.117,6.725,8.117,6.725s-9.039,8.833-12.582,9.423c0.26-0.394,3.15-5.908,3.543-10.372c-1.443-1.576-16.408-3.544-24.154-2.362C270.536,226.754,263.187,232.4,263.187,232.4z"></path><path d="M287.083,221c0,0,4.5-4.25,7-8.25c0,6.25-0.5,9.25-0.5,9.25L287.083,221z"></path><path d="M282.45,220.125c0,0-12.898,1.772-18.51,6.794c5.414-3.151,18.215-5.711,18.51-5.711V220.125z"></path></g><g><path d="M264.237,216.904c0,0,12.754-2.898,29.158-2.358C283.298,212.166,272.595,212.975,264.237,216.904z"></path><path d="M269.916,215.333c0,0-5.334,4.5-7,6.667c1.167-3.5,3.834-5.833,3.834-5.833L269.916,215.333z"></path></g><g><path d="M280.877,244.464c0,0,1.724,1.572,1.882,4.719c0.156,3.145-1.348,5.313-1.016,9.729c0.24,3.186,1.91,4.557,3.21,4.735s1.978-2.31,1.964-4.57c-0.014-2.259-2.12-5.964-2.12-10.209c0-2.717,1.88-4.719,1.88-4.719L280.877,244.464z"></path><path d="M271.166,241.5c5.5,0.833,15.849,2.42,20.573,1.14C288.392,245.397,277.332,245.333,271.166,241.5z"></path><path d="M290.218,243.484c0,0,2.311,1.579,2.791,1.438c0.482-0.141-0.865-2.001-1.756-2.022C290.362,242.879,290.218,243.484,290.218,243.484z"></path></g></g></g><g><g><path style="fill:#FFFFFF;" d="M231.827,228.691c0,0,0.098,9.649-5.908,14.671c-5.219,0.984-17.527-0.492-17.527-0.492s-6.301-4.136-9.254-8.37c-2.955-8.074-3.447-9.846-3.447-9.846s10.338-2.954,20.973-1.969C227.298,223.669,231.827,228.691,231.827,228.691z"></path><path style="fill:#E4E0F3;" d="M198.017,231.416c-1.959-5.448-2.326-6.762-2.326-6.762s10.338-2.954,20.973-1.969c10.635,0.984,15.164,6.006,15.164,6.006s0.021,2.359-0.68,5.349C220.224,232.542,208.942,231.036,198.017,231.416z"></path></g><g><g><path style="fill:#A2D7DD;" d="M229.317,227.006c0,0-1.447,13.62-11.855,13.72c-10.406,0.1-12.036-13.421-12.036-16.702c3.168-1.59,8.325-2.784,12.852-2.287C222.803,222.233,229.317,227.006,229.317,227.006z"></path><ellipse style="opacity:0.5;fill:#FFFFFF;" cx="217.463" cy="236.55" rx="6.063" ry="4.088"></ellipse><g><path style="fill:#DBF2FF;" d="M212.484,231.579c-0.995-0.199-3.801,1.193-3.801,2.088c0,0.894,5.249,4.075,6.245,2.287C215.924,234.164,213.48,231.778,212.484,231.579z"></path><path style="fill:#FFD1ED;" d="M225.517,233.965c0-0.994-2.443-1.889-3.439-1.79c-0.994,0.099-2.352,4.076-1.72,4.672C220.991,237.445,225.517,234.959,225.517,233.965z"></path></g><path style="fill:#84B9BF;" d="M218.277,221.737c4.525,0.497,11.04,5.269,11.04,5.269s-0.321,2.9-1.674,6.032c-6.605-2.441-13.998-2.852-20.489-0.35c-1.373-3.508-1.729-7.161-1.729-8.664C208.594,222.433,213.751,221.24,218.277,221.737z"></path><ellipse style="fill:#84B9BF;" cx="217.733" cy="230.262" rx="2.625" ry="3.479"></ellipse><ellipse style="opacity:0.5;" cx="217.733" cy="230.262" rx="2.625" ry="3.479"></ellipse></g><g><path d="M228.23,226.012c0,0,1.268,10.638-9.049,14.714c11.313-1.193,10.769-13.123,10.769-13.123L228.23,226.012z"></path><path d="M207.056,224.819c0,0-1.539,14.117,9.772,15.807c-4.887-0.099-13.302-2.585-11.764-15.807C206.06,223.924,207.056,224.819,207.056,224.819z"></path></g></g><g><path style="fill:#FF10B1;" d="M210.952,243.559c-15.557,0.197-19.299-15.36-19.299-15.36S203.075,240.408,210.952,243.559z"></path><g><path d="M236.813,232.4c-0.131-0.525-4.986-7.222-12.34-10.897c-7.613-2.888-23.656-1.528-27.439-0.394c-5.25,1.576-8.117,6.725-8.117,6.725s9.039,8.833,12.582,9.423c-0.26-0.394-3.15-5.908-3.543-10.372c1.443-1.576,16.408-3.544,24.154-2.362C229.464,226.754,236.813,232.4,236.813,232.4z"></path><path d="M212.917,221c0,0-4.5-4.25-7-8.25c0,6.25,0.5,9.25,0.5,9.25L212.917,221z"></path><path d="M217.55,220.125c0,0,12.898,1.772,18.51,6.794c-5.414-3.151-18.215-5.711-18.51-5.711V220.125z"></path></g><g><path d="M235.763,216.904c0,0-12.754-2.898-29.158-2.358C216.702,212.166,227.405,212.975,235.763,216.904z"></path><path d="M230.084,215.333c0,0,5.334,4.5,7,6.667c-1.167-3.5-3.834-5.833-3.834-5.833L230.084,215.333z"></path></g><g><path d="M219.123,244.464c0,0-1.724,1.572-1.882,4.719c-0.156,3.145,1.348,5.313,1.016,9.729c-0.24,3.186-1.91,4.557-3.21,4.735s-1.978-2.31-1.964-4.57c0.014-2.259,2.12-5.964,2.12-10.209c0-2.717-1.88-4.719-1.88-4.719L219.123,244.464z"></path><path d="M228.834,241.5c-5.5,0.833-15.849,2.42-20.573,1.14C211.608,245.397,222.668,245.333,228.834,241.5z"></path><path d="M209.782,243.484c0,0-2.311,1.579-2.791,1.438c-0.482-0.141,0.865-2.001,1.756-2.022C209.638,242.879,209.782,243.484,209.782,243.484z"></path></g></g></g></g></g></svg>