<svg xmlns="http://www.w3.org/2000/svg" width="500" height="500" version="1.1"><g id="a9019"><g><g><g><path style="fill:#6E6E6E;stroke:#000000;stroke-linecap:round;stroke-linejoin:round;" d="M215.333,350.667c0,0-2,5-3,6S208.667,358,208.667,358l-12-4.333c0,0-2-3-2-5.667S216,299.667,217,298s8.333-12.667,8.333-12.667l15,5"></path><g><path style="fill:#505050;" d="M197,353c0,0-2-4-1.75-4.75c0.5-3,2.25-6.25,2.25-6.25l18.75,7.25l-3.25,6.5c0,0-2.917,2.5-4.333,2.25C205.75,356.75,197,353,197,353z"></path></g><g><path style="fill:#505050;" d="M226.006,297c0,0-7.25,6.75-7.5,10.25s3.75,13.75,3.75,13.75L226.006,297z"></path></g><g><path style="fill:none;stroke:#000000;stroke-linecap:round;stroke-linejoin:round;" d="M219,302.5c0,0,3,7.75,6.5,11.5"></path></g><path style="fill:#6E6E6E;stroke:#000000;stroke-linecap:round;stroke-linejoin:round;" d="M284.666,350.667c0,0,2,5,3,6s3.668,1.333,3.668,1.333l12-4.333c0,0,2-3,2-5.667S284,299.667,283,298s-8.334-12.667-8.334-12.667l-15,5"></path><path style="fill:#505050;" d="M303.076,353c0,0,2-4,1.75-4.75c-0.5-3-2.25-6.25-2.25-6.25l-18.75,7.25l3.25,6.5c0,0,2.917,2.5,4.334,2.25C294.326,356.75,303.076,353,303.076,353z"></path><path style="fill:#505050;" d="M273.994,297c0,0,7.25,6.75,7.5,10.25s-3.75,13.75-3.75,13.75L273.994,297z"></path><path style="fill:none;stroke:#000000;stroke-linecap:round;stroke-linejoin:round;" d="M281,302.5c0,0-3,7.75-6.5,11.5"></path></g><g><path style="fill:#6E6E6E;stroke:#000000;stroke-linecap:round;stroke-linejoin:round;" d="M279,329.333c0,0-2.334-17-3.334-21.666c-0.76-3.545-2.095-9.392-2.693-12h0.361c0,0,5.666-12.668,5.666-16.334c-4.666-3.666-23.666-2.666-29-2.666s-24.334-1-29,2.666c0,3.666,5.666,16.334,5.666,16.334h0.36c-0.599,2.608-1.934,8.455-2.693,12c-1,4.666-3.333,21.666-3.333,21.666s-10,21.666-10,25s6.333,9,6.333,9s25-2,32.667-2c7.666,0,32.666,2,32.666,2s6.334-5.666,6.334-9S279,329.333,279,329.333z"></path><g><path style="fill:#505050;" d="M261.086,306.584c0.523-0.953,1.881-3.557,1.881-4.916c0-1.587-1.855-4.878-2.066-5.248c-0.098-0.173-0.283-0.26-0.469-0.247c-0.006-0.001-0.01-0.001-0.016-0.001c-0.004,0-0.01,0-0.014,0.001c-0.186-0.013-0.371,0.074-0.471,0.247c-0.211,0.37-2.064,3.661-2.064,5.248c0,1.359,1.357,3.963,1.881,4.916c-0.523,0.954-1.881,3.558-1.881,4.917s1.357,3.963,1.881,4.917c-0.523,0.953-1.881,3.557-1.881,4.916s1.357,3.963,1.881,4.916c-0.523,0.954-1.881,3.558-1.881,4.917c0,1.587,1.854,4.878,2.064,5.248c0.1,0.173,0.285,0.26,0.471,0.247c0.004,0.001,0.01,0.001,0.014,0.001c0.006,0,0.01,0,0.016-0.001c0.186,0.013,0.371-0.074,0.469-0.247c0.211-0.37,2.066-3.661,2.066-5.248c0-1.359-1.357-3.963-1.881-4.917c0.523-0.953,1.881-3.557,1.881-4.916s-1.357-3.963-1.881-4.916c0.523-0.954,1.881-3.558,1.881-4.917S261.609,307.538,261.086,306.584z M260.416,297.624c0.635,1.203,1.551,3.135,1.551,4.044s-0.916,2.841-1.551,4.044c-0.635-1.203-1.549-3.135-1.549-4.044S259.781,298.827,260.416,297.624z M260.416,307.457c0.635,1.203,1.551,3.135,1.551,4.044s-0.916,2.841-1.551,4.044c-0.635-1.203-1.549-3.135-1.549-4.044S259.781,308.66,260.416,307.457z M260.416,335.211c-0.635-1.203-1.549-3.135-1.549-4.044s0.914-2.841,1.549-4.044c0.635,1.203,1.551,3.135,1.551,4.044S261.051,334.008,260.416,335.211z M260.416,325.378c-0.635-1.203-1.549-3.135-1.549-4.044s0.914-2.841,1.549-4.044c0.635,1.203,1.551,3.135,1.551,4.044S261.051,324.175,260.416,325.378z"></path><path style="fill:#505050;" d="M240.252,306.584c0.523-0.953,1.881-3.557,1.881-4.916c0-1.587-1.854-4.878-2.065-5.248c-0.099-0.173-0.284-0.26-0.47-0.247c-0.005-0.001-0.01-0.001-0.015-0.001s-0.01,0-0.015,0.001c-0.186-0.013-0.371,0.074-0.47,0.247c-0.211,0.37-2.065,3.661-2.065,5.248c0,1.359,1.357,3.963,1.881,4.916c-0.523,0.954-1.881,3.558-1.881,4.917s1.357,3.963,1.881,4.917c-0.523,0.953-1.881,3.557-1.881,4.916s1.357,3.963,1.881,4.916c-0.523,0.954-1.881,3.558-1.881,4.917c0,1.587,1.854,4.878,2.065,5.248c0.099,0.173,0.284,0.26,0.47,0.247c0.005,0.001,0.01,0.001,0.015,0.001s0.01,0,0.015-0.001c0.186,0.013,0.371-0.074,0.47-0.247c0.211-0.37,2.065-3.661,2.065-5.248c0-1.359-1.357-3.963-1.881-4.917c0.523-0.953,1.881-3.557,1.881-4.916s-1.357-3.963-1.881-4.916c0.523-0.954,1.881-3.558,1.881-4.917S240.776,307.538,240.252,306.584z M239.583,297.624c0.635,1.203,1.55,3.135,1.55,4.044s-0.915,2.841-1.55,4.044c-0.635-1.203-1.55-3.135-1.55-4.044S238.949,298.827,239.583,297.624z M239.583,307.457c0.635,1.203,1.55,3.135,1.55,4.044s-0.915,2.841-1.55,4.044c-0.635-1.203-1.55-3.135-1.55-4.044S238.949,308.66,239.583,307.457z M239.583,335.211c-0.635-1.203-1.55-3.135-1.55-4.044s0.915-2.841,1.55-4.044c0.635,1.203,1.55,3.135,1.55,4.044S240.218,334.008,239.583,335.211z M239.583,325.378c-0.635-1.203-1.55-3.135-1.55-4.044s0.915-2.841,1.55-4.044c0.635,1.203,1.55,3.135,1.55,4.044S240.218,324.175,239.583,325.378z"></path></g><g><path style="fill:#505050;" d="M272.533,331.501l6.167-1.333c0,0,9.667,19.832,10,24.666c-1.333,2.5-4.833,6.834-4.833,6.834l-14.334-26.834L272.533,331.501z"></path><path style="fill:#505050;" d="M227.466,331.501l-6.167-1.333c0,0-9.667,19.832-10,24.666c1.333,2.5,4.833,6.834,4.833,6.834l14.334-26.834L227.466,331.501z"></path></g><path style="fill:#505050;" d="M279,330.5l-1-4c0,0-15.5,1.75-28,1.75s-28-1.75-28-1.75l-1,4l-2.5,7.5l31.5,3.75l31.5-3.75L279,330.5z"></path><g><path style="fill:#505050;" d="M231.7,294.168c0,0-2.667-6.834-2.667-9.834s0.342-6.333,0.342-6.333s-5.509,0.333-8.009,2c1.196,3.47,3.509,10.46,5.089,14.499h5.742L231.7,294.168z"></path><path style="fill:#505050;" d="M278.631,280.001c-2.5-1.667-8.009-2-8.009-2s0.342,3.333,0.342,6.333s-2.666,9.834-2.666,9.834L267.8,294.5h5.742C275.121,290.461,277.435,283.471,278.631,280.001z"></path></g><g><path style="fill:#505050;" d="M249.875,296.18c1-0.18,19.5-4.68,23.25-8.93c-1.75,6-1,8.25-1,8.25L249.875,296.18z"></path><path style="fill:#505050;" d="M250.125,296.18c-1-0.18-19.5-4.68-23.25-8.93c1.75,6,1,8.25,1,8.25L250.125,296.18z"></path></g><line style="fill:none;stroke:#000000;stroke-linecap:round;stroke-linejoin:round;" x1="250" y1="299.334" x2="250" y2="353.334"></line><g><g><path style="fill:none;stroke:#000000;stroke-linecap:round;stroke-linejoin:round;" d="M230.864,276.667c0,0-0.334,2.524-0.667,4.417s0.667,9.78,3.333,13.25"></path><path style="fill:none;stroke:#000000;stroke-linecap:round;stroke-linejoin:round;" d="M269.137,276.667c0,0,0.334,2.524,0.666,4.417c0.334,1.893-0.666,9.78-3.333,13.25"></path></g><path style="fill:none;stroke:#000000;stroke-linecap:round;stroke-linejoin:round;" d="M235.998,295.514c3.574,0.355,8.322,0.666,14.002,0.666c5.875,0,10.754-0.332,14.366-0.702"></path><line style="fill:none;stroke:#000000;stroke-linecap:round;stroke-linejoin:round;" x1="250" y1="276.667" x2="250" y2="294"></line></g></g></g><g><g><g><polyline style="fill:#46423E;stroke:#000000;stroke-linecap:round;stroke-linejoin:round;" points="225.875,344.5 227.125,294.904 234.625,295.4 232.875,342.517 "></polyline></g><g><polyline style="fill:#46423E;stroke:#000000;stroke-linecap:round;stroke-linejoin:round;" points="274.125,344.5 272.875,294.904 265.375,295.4 267.125,342.517 "></polyline></g></g><g><g><g><g><path style="fill:#46423E;stroke:#000000;stroke-linecap:round;stroke-linejoin:round;" d="M212.688,391c0,0,0.375,6.834,1.375,8.834c5,3,25.875,1.916,29.875,0.416c1.25-3,1.75-9.25,1.75-9.25H212.688z"></path><path style="fill:#B07E36;stroke:#000000;stroke-linecap:round;stroke-linejoin:round;" d="M212.563,393.001c0,0,0.351,4.5,1.053,5.333c2.982,0.333,9.451,0.873,16.491,0.833c7.641-0.044,15.088-1,15.088-1l0.702-5.164L212.563,393.001z"></path><path style="fill:#46423E;stroke:#000000;stroke-linecap:round;stroke-linejoin:round;" d="M240.063,392.501c0,0,0.333,5.5-0.333,7.333c1.333,0,2.833-0.333,2.833-0.333s1.167-4.667,0.5-7.167C241.729,392.667,240.063,392.501,240.063,392.501z"></path><g><path style="fill:#AAA4A4;stroke:#000000;stroke-linecap:round;stroke-linejoin:round;" d="M212.563,393.001c0,0-0.333,0.999,0.333,1.666c1.833,0.334,4.833,0.167,4.833,0.167s0.5,3.333,0,3.5s-4.114,0-4.114,0s-0.532,1.041,0.135,1.541s5.479,0.792,5.979,0.292s0.834-6.666,0.167-7.166S213.063,392.668,212.563,393.001z"></path><path style="fill:#AAA4A4;stroke:#000000;stroke-linecap:round;stroke-linejoin:round;" d="M215.125,395.938c0,0-0.25,0.938,0.063,1.188s3.688,0.5,3.813,0.125s0.25-1.375-0.063-1.5S215.5,395.688,215.125,395.938z"></path></g></g><g><path style="fill:#46423E;stroke:#000000;stroke-linecap:round;stroke-linejoin:round;" d="M287.313,391c0,0-0.375,6.834-1.375,8.834c-5,3-25.875,1.916-29.875,0.416c-1.25-3-1.75-9.25-1.75-9.25H287.313z"></path><path style="fill:#B07E36;stroke:#000000;stroke-linecap:round;stroke-linejoin:round;" d="M287.438,393.001c0,0-0.352,4.5-1.053,5.333c-2.982,0.333-9.451,0.873-16.491,0.833c-7.641-0.044-15.088-1-15.088-1l-0.702-5.164L287.438,393.001z"></path><path style="fill:#46423E;stroke:#000000;stroke-linecap:round;stroke-linejoin:round;" d="M259.938,392.501c0,0-0.333,5.5,0.334,7.333c-1.334,0-2.834-0.333-2.834-0.333s-1.166-4.667-0.5-7.167C258.271,392.667,259.938,392.501,259.938,392.501z"></path><g><path style="fill:#AAA4A4;stroke:#000000;stroke-linecap:round;stroke-linejoin:round;" d="M287.438,393.001c0,0,0.333,0.999-0.334,1.666c-1.833,0.334-4.833,0.167-4.833,0.167s-0.499,3.333,0,3.5c0.5,0.167,4.114,0,4.114,0s0.531,1.041-0.135,1.541c-0.667,0.5-5.479,0.792-5.979,0.292s-0.834-6.666-0.168-7.166C280.771,392.501,286.938,392.668,287.438,393.001z"></path><path style="fill:#AAA4A4;stroke:#000000;stroke-linecap:round;stroke-linejoin:round;" d="M284.875,395.938c0,0,0.25,0.938-0.063,1.188s-3.688,0.5-3.813,0.125s-0.25-1.375,0.063-1.5S284.5,395.688,284.875,395.938z"></path></g></g></g><g><path style="fill:#46423E;stroke:#000000;stroke-linecap:round;stroke-linejoin:round;" d="M286.294,362.849c-2.792-4.555-13.068-26.329-14.794-29.349c-9,0-21.5,0-21.5,0s-12.5,0-21.5,0c-1.725,3.02-12.001,24.794-14.794,29.349c-0.877,0.846-10.206,22.591-10.206,22.591l10,7.561H245l1.783-2.49l0.717-5.469L250,376l2.5,9.041l0.668,5.309L255,393h31.5l10-7.561C296.5,385.439,287.171,363.694,286.294,362.849z"></path><g><path style="fill:#282420;" d="M246.25,391.299c0.167-1.833,1-10.5,3.667-15c-1.667-2.167-15.566-5.167-15.566-5.167s7.5,8.5,8.167,9.667c-1.167,1.5-3.833,3.333-3.833,3.333s0.333,5.167,0.167,5.667s-23-0.5-25-1s-11.5-4.167-11.5-4.167s7.872,5.495,10.994,7.792h31.7C245.625,392.035,246.174,391.6,246.25,391.299z"></path><path style="fill:#282420;" d="M297.653,384.632c0,0-9.5,3.667-11.5,4.167s-24.832,1.5-25,1c-0.166-0.5,0.167-5.667,0.167-5.667s-2.667-1.833-3.833-3.333c0.667-1.167,8.166-9.667,8.166-9.667s-13.9,3-15.57,5.167c2.67,4.5,3.503,13.167,3.669,15c0.075,0.301,0.625,0.736,1.206,1.125h31.7C289.782,390.127,297.653,384.632,297.653,384.632z"></path></g><polygon style="fill:#7E7462;" points="250.167,334.333 266.5,333.833 266.167,336 "></polygon><path style="fill:#282420;" d="M269.452,342.588h-38.904c0,0-5.257,4.731-5.257,6.309c0,2.104,2.628,14.195,4.206,14.721s9.463,2.629,20.503,2.629s18.926-2.104,20.503-2.629s4.206-12.617,4.206-14.721C274.709,347.319,269.452,342.588,269.452,342.588z"></path><g><path style="fill:none;stroke:#000000;stroke-linecap:round;stroke-linejoin:round;stroke-dasharray:2 2;" d="M223.75,349.25c0,0,1.75,12.5,3.5,14.5s15,3.5,15,3.5"></path><path style="fill:none;stroke:#000000;stroke-linecap:round;stroke-linejoin:round;stroke-dasharray:2 2;" d="M276.25,349.25c0,0-1.75,12.5-3.5,14.5s-15,3.5-15,3.5"></path></g><g><line style="fill:none;stroke:#000000;stroke-linecap:round;stroke-linejoin:round;" x1="246.75" y1="365.25" x2="247.25" y2="374.75"></line><line style="fill:none;stroke:#000000;stroke-linecap:round;stroke-linejoin:round;" x1="253.25" y1="365.25" x2="252.75" y2="374.75"></line></g><line style="fill:none;stroke:#000000;stroke-linecap:round;stroke-linejoin:round;stroke-dasharray:2 2;" x1="236.875" y1="336.75" x2="263.125" y2="336.75"></line><g><g><path style="fill:none;stroke:#000000;stroke-linecap:round;stroke-linejoin:round;" d="M224.25,391.5l-3-4.5c0,0,0.5-3.5,0.5-6s-1-15-5.5-20"></path><path style="fill:none;stroke:#000000;stroke-linecap:round;stroke-linejoin:round;stroke-dasharray:2 2;" d="M221.5,391.5l-3-4.5c0,0,0.5-3.5,0.5-6s-1-15-5.5-20"></path></g><g><path style="fill:none;stroke:#000000;stroke-linecap:round;stroke-linejoin:round;" d="M275.75,391.5l3-4.5c0,0-0.5-3.5-0.5-6s1-15,5.5-20"></path><path style="fill:none;stroke:#000000;stroke-linecap:round;stroke-linejoin:round;stroke-dasharray:2 2;" d="M278.5,391.5l3-4.5c0,0-0.5-3.5-0.5-6s1-15,5.5-20"></path></g></g><g><path style="fill:none;stroke:#000000;stroke-linecap:round;stroke-linejoin:round;" d="M248,376c-2.5-0.5-10-4-10-4"></path><path style="fill:none;stroke:#000000;stroke-linecap:round;stroke-linejoin:round;" d="M262,372c0,0-7.5,3.5-10,4"></path></g></g><g><path style="fill:#46423E;stroke:#000000;stroke-linecap:round;stroke-linejoin:round;" d="M271.5,342h-43c0,0-2,4.5-2,6c0,2,2.5,13.5,4,14s9,2.5,19.5,2.5s18-2,19.5-2.5s4-12,4-14C273.5,346.5,271.5,342,271.5,342z"></path><line style="fill:none;stroke:#000000;stroke-linecap:round;stroke-linejoin:round;" x1="228.625" y1="347.75" x2="271.375" y2="347.75"></line></g></g><g><g><ellipse transform="matrix(0.9981 -0.0615 0.0615 0.9981 -20.1078 14.7317)" style="fill:#E9CF6D;stroke:#000000;stroke-linecap:round;stroke-linejoin:round;" cx="229.25" cy="334" rx="5.224" ry="6.361"></ellipse><ellipse transform="matrix(0.9981 -0.0613 0.0613 0.9981 -20.0513 14.6877)" style="fill:#C19339;" cx="229.251" cy="333.999" rx="3.105" ry="3.781"></ellipse></g><g><ellipse transform="matrix(-0.9981 -0.0615 0.0615 -0.9981 520.4476 684.0188)" style="fill:#E9CF6D;stroke:#000000;stroke-linecap:round;stroke-linejoin:round;" cx="270.75" cy="334" rx="5.224" ry="6.361"></ellipse><ellipse transform="matrix(-0.9981 -0.0613 0.0613 -0.9981 520.505 683.9745)" style="fill:#C19339;" cx="270.75" cy="333.999" rx="3.105" ry="3.781"></ellipse></g></g></g></g></g></g></svg>