<svg xmlns="http://www.w3.org/2000/svg" width="500" height="500" version="1.1"><g id="a9025"><g><g><g><g><path style="fill:#E5E4E5;stroke:#000000;stroke-linecap:round;stroke-linejoin:round;" d="M225.917,286.334c0,0-4.5,2.833-6.167,5.333s-8,17.333-8,17.333c-1.167,0.666-3.5,2.667-3.5,2.667l-1.5,5.833c0,0-10.167,14.667-12.333,20.833c-0.718,2.044,1.5,12.668,2.5,13.168s13.667,6.167,13.667,6.167s4.32-1.799,5.667-4.167c4.615-8.117,9.909-22.921,10.167-25.501c0.333-3.333,7.667-38.666,7.667-38.666L225.917,286.334z"></path><path style="fill:#C7C6C7;" d="M196.625,348.625c0,0-1.875-7.75-1.125-9.625c2.021,1.045,5.019,5.379,10.125,7.75c4.054,1.882,10.625,2,10.625,2s-0.5,5.5-1,6s-3.875,1.875-3.875,1.875L196.625,348.625z"></path><path style="fill:#C7C6C7;" d="M227.333,299c0,0-4.75,7.75-4.75,11.75s2.5,14.25,2.5,14.25l6-19L227.333,299z"></path><path style="fill:#C7C6C7;" d="M208.708,312.125c0,0-1.5,4.75-1.375,5.25s10.5-0.875,11.5-0.875C218.833,314.125,208.708,312.125,208.708,312.125z"></path><path style="fill:#FFFFFF;stroke:#C7C6C7;stroke-linecap:round;stroke-linejoin:round;" d="M198.75,351c0,0-2.333-9.167-1.667-12.167c0.253-1.139,12.333-21.333,12.333-21.333s0-4.167,0.667-4.667s3.833-2.666,3.833-2.666s6.833-16.5,7.667-17.667s5.5-4.833,5.5-4.833s-3.333,4.5-3.667,5.833s-7,17.667-7,17.667s-4,2.333-4.333,3.333s-0.833,5.833-0.667,5c0.278-1.39-10.974,16.395-11.667,20c-0.833,4.334,2,13,2,13L198.75,351z"></path><path style="fill:none;stroke:#000000;stroke-linecap:round;stroke-linejoin:round;" d="M220.417,291.333c0,0,4.833,3.668,7.167,8.334"></path></g><g><path style="fill:#FFFFFF;stroke:#000000;stroke-linecap:round;stroke-linejoin:round;" d="M195.944,348.853c-0.046,0.665-2.688,4.99-2.639,6.665c2.521,2.181,11.196,7.133,13.987,7.83c0.855-0.275,3.613-6.264,3.613-6.264L195.944,348.853z"></path><g><path style="fill:#F8BA71;" d="M209.292,359.247c-4.272-2.2-11.145-6.046-13.944-7.906l-0.84,1.807c3.389,2.254,10.097,5.903,13.891,7.871L209.292,359.247z"></path></g></g></g><g><g><path style="fill:#E5E4E5;stroke:#000000;stroke-linecap:round;stroke-linejoin:round;" d="M274.083,286.334c0,0,4.5,2.833,6.168,5.333c1.666,2.5,8,17.333,8,17.333c1.166,0.666,3.5,2.667,3.5,2.667l1.5,5.833c0,0,10.166,14.667,12.332,20.833c0.719,2.044-1.5,12.668-2.5,13.168s-13.666,6.167-13.666,6.167s-4.32-1.799-5.666-4.167c-4.615-8.117-9.91-22.921-10.168-25.501c-0.334-3.333-7.666-38.666-7.666-38.666L274.083,286.334z"></path><path style="fill:#C7C6C7;" d="M303.799,348.625c0,0,1.875-7.75,1.125-9.625c-2.021,1.045-5.02,5.379-10.125,7.75c-4.054,1.882-10.625,2-10.625,2s0.5,5.5,1,6s3.875,1.875,3.875,1.875L303.799,348.625z"></path><path style="fill:#C7C6C7;" d="M272.667,299c0,0,4.75,7.75,4.75,11.75s-2.5,14.25-2.5,14.25l-6-19L272.667,299z"></path><path style="fill:#C7C6C7;" d="M291.292,312.125c0,0,1.5,4.75,1.375,5.25s-10.5-0.875-11.5-0.875C281.167,314.125,291.292,312.125,291.292,312.125z"></path><path style="fill:#FFFFFF;stroke:#C7C6C7;stroke-linecap:round;stroke-linejoin:round;" d="M301.251,351c0,0,2.332-9.167,1.666-12.167c-0.254-1.139-12.334-21.333-12.334-21.333s0-4.167-0.666-4.667s-3.834-2.666-3.834-2.666s-6.832-16.5-7.666-17.667s-5.5-4.833-5.5-4.833s3.332,4.5,3.666,5.833s7,17.667,7,17.667s4,2.333,4.334,3.333s0.834,5.833,0.666,5c-0.277-1.39,10.975,16.395,11.668,20c0.832,4.334-2,13-2,13L301.251,351z"></path><path style="fill:none;stroke:#000000;stroke-linecap:round;stroke-linejoin:round;" d="M279.583,291.333c0,0-4.832,3.668-7.166,8.334"></path></g><g><path style="fill:#FFFFFF;stroke:#000000;stroke-linecap:round;stroke-linejoin:round;" d="M304.056,348.853c0.047,0.665,2.689,4.99,2.639,6.665c-2.52,2.181-11.195,7.133-13.986,7.83c-0.855-0.275-3.613-6.264-3.613-6.264L304.056,348.853z"></path><g><path style="fill:#F8BA71;" d="M290.708,359.247c4.271-2.2,11.145-6.046,13.943-7.906l0.84,1.807c-3.389,2.254-10.096,5.903-13.891,7.871L290.708,359.247z"></path></g></g></g></g><g><g><g><path style="fill:#FFFFFF;stroke:#000000;stroke-linecap:round;stroke-linejoin:round;" d="M284.86,373.55c0.239-2.149,0.159-4.24-0.03-4.88C280.5,367.33,250,372,250,372s-30.5-4.67-34.83-3.33c-0.25,0.85-0.32,4.311,0.33,7.021c0.23,0.979,0.56,1.859,1,2.479c5.08,5.08,61.92,5.08,67,0C284.25,377.11,284.67,375.31,284.86,373.55z"></path><g><path style="fill:#F8BA71;" d="M250,376.75c18.82,0,31.06-2.49,34.34-3.25l-0.37,2.13c-4.33,0.94-16.3,3.12-33.97,3.12c-17.86,0-29.9-2.23-34.1-3.15l-0.32-2.119C218.75,374.22,231.03,376.75,250,376.75z"></path></g></g><g><g><path style="fill:#E5E4E5;stroke:#000000;stroke-linecap:round;stroke-linejoin:round;" d="M276.334,329.333C276,328,275.668,311.666,274.5,306.666c-1.166-5-5.832-17.833-5.832-17.833l-18.668,8.5l-18.667-8.5c0,0-4.666,12.833-5.833,17.833S224,328,223.666,329.333c-0.333,1.333-10.5,28.167-11,32.334c0.167,3.167,1.5,5.5,3.334,8.333c4.166,2.5,29.833,3,34,2.5c4.167,0.5,29.834,0,34-2.5c1.834-2.833,3.168-5.166,3.334-8.333C286.834,357.5,276.668,330.666,276.334,329.333z"></path><g><path style="fill:#C7C6C7;" d="M280.487,361.375c0,0,4.25-2.25,5.125-3.5c0.75,1.125,1.25,3.75,1.25,4.375s-1.125,4.875-3.125,7.375c-1.125,0.375-6.125,1.5-6.125,1.5L280.487,361.375z"></path><path style="fill:#C7C6C7;" d="M219.512,361.375c0,0-4.25-2.25-5.125-3.5c-0.75,1.125-1.25,3.75-1.25,4.375s1.125,4.875,3.125,7.375c1.125,0.375,6.125,1.5,6.125,1.5L219.512,361.375z"></path></g><path style="fill:#FFFFFF;stroke:#000000;stroke-linecap:round;stroke-linejoin:round;" d="M279.834,361.001c-0.072-1.164-9.668-24.334-9.834-26.167s0.166-9.666,0.166-9.666s-11-27.167-11.166-27.667s-9,1.167-9,1.167s-8.833-1.667-9-1.167s-11.167,27.667-11.167,27.667s0.333,7.833,0.167,9.666s-9.761,25.003-9.833,26.167c-0.167,2.667,0.667,6.832,3.167,10.499c7.5,2,26.667,2,26.667,2s19.166,0,26.666-2C279.166,367.833,280,363.668,279.834,361.001z"></path><path style="fill:#E4E0F3;" d="M279.375,361.625c0.375,0.25-0.643,6.785-3,9.25c-3.625,1.5-19.625,2.25-30.5,2.125C258.375,371.625,273.375,368.5,279.375,361.625z"></path><path style="fill:#E4E0F3;" d="M220.751,361.625c-0.375,0.25,0.643,6.785,3,9.25c3.625,1.5,19.625,2.25,30.501,2.125C241.751,371.625,226.751,368.5,220.751,361.625z"></path><path style="fill:#E4E0F3;" d="M231.333,332c0,0,11.333-12.332,17.333-12.666s22.333,12,22.333,12l-19.667-32L231.333,332z"></path><rect x="249" y="306" style="fill:none;stroke:#E4E0F3;" width="2" height="36"></rect></g></g></g><g><g><g><g id="onepXMLID_16_"><g><path style="fill:#6E6E6E;" d="M250.083,297.33v6.17c0,0-31.83,45-36,52.17c2-10.84,8.67-27.34,8.83-27.84c0-5.5,0.84-15.83,1.5-20.66c0.67-4.84,6.67-19,6.67-19L250.083,297.33z"></path></g><path style="fill:#505050;" d="M224.917,308c0,0,1.833-3.333,2.667-4s14.667,3.5,14.833,4s-9.333,16-9.833,16S225.25,311.333,224.917,308z"></path><path style="fill:#FFFFFF;stroke:#000000;stroke-linecap:round;stroke-linejoin:round;" d="M227,303.833c0,0,0,1.834,0,2.834c5.333,0.166,11.5,0,11.5,0l0.167-2.5L227,303.833z"></path><path style="fill:#4B4447;" d="M224.75,306.5c0,0,3.667,18.333,3.167,24.833c-2.333,4.334-12,19-12,19s5.333-19.166,7-22.166C223.583,321.333,224.75,306.5,224.75,306.5z"></path><path style="fill:#FFDE98;" d="M224.75,306.5c-0.333,5.5,2.5,22.833,2.833,24.833c3.833-3.166,6.167-8.166,6.167-8.166S227.25,316.833,224.75,306.5z"></path><g><path style="fill:none;stroke:#000000;stroke-linecap:round;stroke-linejoin:round;" d="M250.083,297.33v2.17c0,0-31.83,49-36,56.17c2-10.84,8.67-27.34,8.83-27.84c0-5.5,0.84-15.83,1.5-20.66c0.67-4.84,6.67-19,6.67-19L250.083,297.33z"></path></g></g><path style="fill:#FFFFFF;stroke:#000000;stroke-linecap:round;stroke-linejoin:round;" d="M214.75,351c0,0-1.5,2.167-1.167,5c2.333-3,29.667-41.5,36-51.699v-3.524L214.75,351z"></path></g><g><g id="onepXMLID_10_"><g><path style="fill:#6E6E6E;" d="M249.917,297.33v6.17c0,0,31.83,45,36,52.17c-2-10.84-8.67-27.34-8.83-27.84c0-5.5-0.84-15.83-1.5-20.66c-0.67-4.84-6.67-19-6.67-19L249.917,297.33z"></path></g><path style="fill:#505050;" d="M275.083,308c0,0-1.832-3.333-2.666-4s-14.668,3.5-14.834,4s9.334,16,9.834,16S274.749,311.333,275.083,308z"></path><path style="fill:#4B4447;" d="M275.251,306.5c0,0-3.668,18.333-3.168,24.833c2.334,4.334,12,19,12,19s-5.334-19.166-7-22.166C276.417,321.333,275.251,306.5,275.251,306.5z"></path><path style="fill:#FFDE98;" d="M275.251,306.5c0.332,5.5-2.5,22.833-2.834,24.833c-3.834-3.166-6.166-8.166-6.166-8.166S272.751,316.833,275.251,306.5z"></path><g><path style="fill:none;stroke:#000000;stroke-linecap:round;stroke-linejoin:round;" d="M249.917,297.33v2.17c0,0,31.83,49,36,56.17c-2-10.84-8.67-27.34-8.83-27.84c0-5.5-0.84-15.83-1.5-20.66c-0.67-4.84-6.67-19-6.67-19L249.917,297.33z"></path></g></g><path style="fill:#FFFFFF;stroke:#000000;stroke-linecap:round;stroke-linejoin:round;" d="M285.251,351c0,0,1.5,2.167,1.166,5c-2.334-3-29.666-41.5-36-51.699v-3.524L285.251,351z"></path><rect x="249" y="296.666" style="fill:#FFFFFF;stroke:#000000;stroke-linecap:round;stroke-linejoin:round;" width="2" height="8.5"></rect></g></g><g><g><g><path style="fill:#FFFFFF;stroke:#000000;stroke-linecap:round;stroke-linejoin:round;" d="M237.083,279.833c0.667-0.167,7.833,8.834,13,17.5c-11.333-4.667-27-11.833-27-11.833S232.25,280.833,237.083,279.833z"></path><path style="fill:#503D2E;" d="M228.271,283.563c0.125,0.188,18.062,8.578,18.062,8.578l-2.188-3.063l-13.625-6.516L228.271,283.563z"></path></g><g><path style="fill:#FFFFFF;stroke:#000000;stroke-linecap:round;stroke-linejoin:round;" d="M262.917,279.833c-0.668-0.167-7.834,8.834-13,17.5c11.332-4.667,27-11.833,27-11.833S267.749,280.833,262.917,279.833z"></path><path style="fill:#503D2E;" d="M271.729,283.563c-0.125,0.188-18.063,8.578-18.063,8.578l2.188-3.063l13.625-6.516L271.729,283.563z"></path></g></g><g><g><path style="fill:#FFDE98;" d="M253.92,299.45c0-2.16-1.76-3.92-3.92-3.92s-3.92,1.76-3.92,3.92s1.76,3.92,3.92,3.92S253.92,301.61,253.92,299.45z M250,292.83c3.82,0,6.92,3.1,6.92,6.92s-3.1,6.92-6.92,6.92c-3.82,0-6.92-3.1-6.92-6.92S246.18,292.83,250,292.83z"></path><path style="fill:#E8A557;" d="M250,292.833c-3.819,0-6.916,3.097-6.916,6.916c0,3.82,3.097,6.917,6.916,6.917c3.82,0,6.916-3.097,6.916-6.917C256.916,295.93,253.82,292.833,250,292.833z M250,305.374c-3.106,0-5.625-2.518-5.625-5.625c0-3.106,2.519-5.624,5.625-5.624c3.107,0,5.625,2.518,5.625,5.624C255.625,302.856,253.107,305.374,250,305.374z"></path><g><circle style="fill:none;stroke:#000000;stroke-linecap:round;stroke-linejoin:round;" cx="250" cy="299.75" r="6.92"></circle><path style="fill:none;stroke:#000000;stroke-linecap:round;stroke-linejoin:round;" d="M250,303.37c-2.16,0-3.92-1.76-3.92-3.92s1.76-3.92,3.92-3.92s3.92,1.76,3.92,3.92S252.16,303.37,250,303.37z"></path></g></g><path style="fill:#FFFFFF;stroke:#000000;stroke-linecap:round;stroke-linejoin:round;" d="M251.417,296.249c0,0.782-0.634,1.417-1.417,1.417l0,0c-0.783,0-1.417-0.635-1.417-1.417v-2.833c0-0.782,0.634-1.417,1.417-1.417l0,0c0.783,0,1.417,0.635,1.417,1.417V296.249z"></path></g></g></g></g></g></g></svg>