<svg xmlns="http://www.w3.org/2000/svg" width="500" height="500" version="1.1"><g id="a9007"><g><g><g><path style="fill:#FFFFFF;stroke:#000000;stroke-linecap:round;stroke-linejoin:round;" d="M194.796,348.334c0,0-9.999,17.666-11.999,22.333c13.667,9,25.666,13,25.666,13S213.796,365,213.796,359C209.463,354,194.796,348.334,194.796,348.334z"></path><polygon style="fill:#E4E0F3;" points="190.463,357 209.963,375.75 211.713,368.75 "></polygon></g><path style="fill:#6E6E6E;stroke:#000000;stroke-linecap:round;stroke-linejoin:round;" d="M222.463,280.334c0,0-22,8.666-23.333,10.666c2,12.667,3.667,22,3.667,22s-8.667,30-13,42.667c11.416,8.083,23,15.666,23,15.666S222.13,334,225.13,325.667c2.667-17.667,2-43.333,2-43.333L222.463,280.334z"></path><path style="fill:#6E6E6E;stroke:#000000;stroke-linecap:round;stroke-linejoin:round;" d="M277.537,280.334c0,0,22,8.666,23.333,10.666c-2,12.667-3.667,22-3.667,22s16.131,46,20.464,58.667C301.333,366,284,353.333,284,353.333s-6.13-19.333-9.13-27.666c-2.667-17.667-2-43.333-2-43.333L277.537,280.334z"></path><path style="fill:#6E6E6E;stroke:#000000;stroke-linecap:round;stroke-linejoin:round;" d="M386.75,299.875c0,0,4.875,1.75,6.5,5.75c-8.75,0.25-16.75,3.875-16.75,3.875S381.75,300.75,386.75,299.875z"></path><g><path style="fill:#D4CAAE;stroke:#000000;stroke-linecap:round;stroke-linejoin:round;" d="M286,342l1.667,16.334c0,0,2.521,7.562,5.302,13.981c0.351,0.81,4.031,1.185,4.031,1.185s-1.625,2-2.058,3.036c0.683,2.964,1.247,4.978,2.058,5.714c5,0.25,8.667-0.916,8.667-0.916l3.833,9.166c0,0,3.416-1.167,5.75-1.5c1.667,2.334,12.083,11.334,15.083,13.334S352.667,407,359,407.667c1.667,6.667,6.667,16,6.667,16S411.333,440.333,421,445s-1.833-110.75-27.75-139.375C349,306,286,342,286,342z"></path><path style="fill:#F2E8CC;stroke:#000000;stroke-linecap:round;stroke-linejoin:round;" d="M301.25,374.75c0,0,10.75-2.25,17.25-3.75"></path><path style="fill:#F2E8CC;stroke:#000000;stroke-linecap:round;stroke-linejoin:round;" d="M412.75,381.75c0,0.75,20.75,36,20,70c-3.5-1.25-15-3.25-17.5-2.75c-2-11.75-3.5-49-26.25-67.75"></path><path style="fill:#D4CAAE;" d="M411.333,376.334c0,0,10.667,36,2.667,63.333c-3-25-23.333-62.667-23.333-62.667L411.333,376.334z"></path><path style="fill:#F2E8CC;stroke:#000000;stroke-linecap:round;stroke-linejoin:round;" d="M396,386.25c0,0,20.75,28,19.75,72.75c-3.25,0.25-6-1.5-6-1.5l-2.5-6.75l-0.75,3h-5c0,0-12-30-19.5-42"></path><path style="fill:#D4CAAE;" d="M398.667,391.334c0,0-7.334,13.333-16,13.333c-3.667-11-2.334-18.667-2.334-18.667L398.667,391.334z"></path><path style="fill:#F2E8CC;stroke:#000000;stroke-linecap:round;stroke-linejoin:round;" d="M365.75,382.5c-1.25,33.75-14,76-14,76s1.75,4.75,3.25,8c8.5-11.5,12.75-38,12.75-38s3,12.5,5,24.75c1.5-3.5,1.5-20.25,1.25-27.5c3.75,7.25,7.5,30.75,7.5,30.75h3.5c0,0-0.25-2.75,0.5-4.75c0.5,0.75,2.25,6.25,2.25,6.25s0.75,1.5,4.5,2.25c4.25-20-7-71.25-7-71.25"></path><path style="fill:#D4CAAE;" d="M383,389c2.333,6,4.333,15,4.333,15s-12.334,3.334-21,5.334c-1-12.334,2-33,2-33L383,389z"></path><path style="fill:#D4CAAE;stroke:#000000;stroke-linecap:round;stroke-linejoin:round;" d="M353.75,383.5c0,0-10,33.5-13.5,41.75c4.75,3.25,7,6.25,7,6.25s5.75-10.5,7.75-15c-0.5,6.5-3.25,17.5-4.75,23c4.5,5,8.25,6.25,8.25,6.25S372.75,411,367.75,383"></path><path style="fill:#D4CAAE;stroke:#000000;stroke-linecap:round;stroke-linejoin:round;" d="M329.25,389l-9,8.25c0,0,7,7.5,13.25,8.5C340.75,396,343,385,343,385"></path><path style="fill:#D4CAAE;stroke:#000000;stroke-linecap:round;stroke-linejoin:round;" d="M339.75,386c0,0-6,18-8.5,21.25c3.75,3.25,5.5,4.75,5.5,4.75s4-5.5,4.25-5.5c-1,4-2.25,7.5-2.25,7.5l6.5,4.75c0,0,10.75-20.25,11.25-34.75"></path><path style="fill:#F2E8CC;stroke:#000000;stroke-linecap:round;stroke-linejoin:round;" d="M399.5,347c30.5,16.5,47,58,47,58l9,7c0,0,0,0,3-1l2.5,5.5c0,0,6.5-2,9.5-6c-9.5-36-38-60.5-38.5-62c0,0-19-15.5-29-18.5"></path><path style="fill:#D4CAAE;" d="M377,309.667c0,0,53.334,36.333,63.667,73.333c-19.667-20-43.334-42.333-43.334-42.333L377,309.667z"></path><path style="fill:#F2E8CC;stroke:#000000;stroke-linecap:round;stroke-linejoin:round;" d="M378.333,307.5c3.5-1.667,14.917-1.875,14.917-1.875S406.5,312.5,414,319.5c-0.588,2.057-1,5.5-1,5.5s13.167,8.5,19,13c-0.5,3-0.5,4.5-0.5,4.5s4,4,7,8c-2,3-2,3-2,3s-17.833-16.5-34.333-23"></path><path style="fill:#D4CAAE;" d="M384,316.667c2,1.333,13.666,5,27,10c-3.667-3.333-32-17-32-17L384,316.667z"></path><path style="fill:none;stroke:#000000;stroke-linecap:round;stroke-linejoin:round;" d="M313.875,387c0,0,12.75-2.75,19.125-8.125"></path><path style="fill:#F2E8CC;stroke:#000000;stroke-linecap:round;stroke-linejoin:round;" d="M380.25,329.25c0,0,44.75,22.5,63.5,59s20,64.5,20,64.5s0-2.75-3.25-2.75s-13.5,0.25-15.75-2c-2.5-14.25-13-73.75-62.25-98.75"></path><path style="fill:#D4CAAE;" d="M381,337.667c0,0,32.667,17.667,41.667,46.667c-14.334-21.667-37-34.667-37-34.667L381,337.667z"></path></g><path style="fill:#6E6E6E;stroke:#000000;stroke-linecap:round;stroke-linejoin:round;" d="M282.667,352.5c0.685-0.292,36.666,20.667,36.666,20.667l9,14.666l32.334-6.666l5.333,6.666l20.333,2.667l5,4c0,0,3.334-8,4.334-10.333s-20.334-68.334-20.334-68.334s3.334-10.333,7-16.333c-27.667-0.333-49,9.333-49,9.333l-9-7C314,300.167,305,302.167,305,302.167s-2.334-2.667-5-5.333"></path><path style="fill:#505050;" d="M324.25,302.375l9,6.75c0,0,11.75-4.125,15.875-5c-4.375,3.75-14.25,11.125-17,10.625S324.25,302.375,324.25,302.375z"></path><path style="fill:#505050;" d="M300.333,317.167c0,0-3.832,25-2.166,27.167s20.334,9.834,24,13.167s10.5,20.833,14,21.833s22,0.833,21.333,1.333s-29.5,6.5-29.5,6.5l-9.667-13.166l-30.166-21.167l-5.231-22.334L300.333,317.167z"></path><path style="fill:#FFF09E;stroke:#000000;stroke-linecap:round;stroke-linejoin:round;" d="M289,358.667c0,0,11.333,9.333,27.667,17.333c5,9.333,10.333,15.667,10.333,15.667s21.981-2.813,32.819-7.54c1.137,2.11,2.603,4.77,3.181,5.54c4,1.333,22,2,25,5c2,2.333,3.667,5,3.667,5l6-13.667c0,0-20.333-64.001-20-70.667c2-9.333,6.333-13,6.333-13l3.75-2.208c0,0-5-0.625-6.75-0.125s-7,5.666-8,15.333c2,14.334,19.333,69,19.333,69l-2.666,6.334l-2.334-3l-22-2L362,378c0,0-30.001,8.667-32.667,7.667c-5.666-8.334-9.333-13-9.333-13l-32.014-20.333"></path><path style="fill:#505050;" d="M299.602,297c-0.166,0.5-11.499,26.333-16.666,33.5c10.833-8.5,21.5-27.667,21.5-27.667L299.602,297z"></path><path style="fill:#505050;" d="M216.213,307.75c0,0-7.5,18.75-6.5,22s8.5,17,8.5,17l4-19L216.213,307.75z"></path><path style="fill:#505050;" d="M201.855,306.667l1.033,6.333l-1.833,5.667c0,0,5.166-3.834,5.5-5.167C206.889,312.167,201.855,306.667,201.855,306.667z"></path></g><g><g><path style="fill:#FFFFFF;stroke:#000000;stroke-linecap:round;stroke-linejoin:round;" d="M273.5,285c0,0-6.834-1.583-11.834-1.5L250.5,293.75l-11.167-10.25c-5-0.083-11.833,1.5-11.833,1.5l-0.75,22l23.75,26.5l23.75-26.5L273.5,285z"></path><g><path style="fill:#E4E0F3;" d="M234,300c0-0.375,16.375-6.125,16.375-6.125L240,284l-7.625,8.5L234,300z"></path><path style="fill:#E4E0F3;" d="M266.5,300c0-0.375-16.375-6.125-16.375-6.125L260.5,284l7.625,8.5L266.5,300z"></path></g><g><g><g><path style="fill:#6E6E6E;stroke:#000000;stroke-linecap:round;stroke-linejoin:round;" d="M237.883,286.833c0,0,5.5,10,12.667,20c0-5.166-0.333-6.5-0.333-6.5l-7.667-14.5l-2.333-2.333L237.883,286.833z"></path><path style="fill:#6E6E6E;stroke:#000000;stroke-linecap:round;stroke-linejoin:round;" d="M262.117,286.833c0,0-5.5,10-12.667,20c0-5.166,0.333-6.5,0.333-6.5l7.667-14.5l2.333-2.333L262.117,286.833z"></path></g><polygon style="fill:#6E6E6E;stroke:#000000;stroke-linecap:round;stroke-linejoin:round;" points="252.501,302.667 250,306 247.5,302.667 245.167,333 250,335.167 254.833,333 "></polygon><path style="fill:#6E6E6E;stroke:#000000;stroke-linecap:round;stroke-linejoin:round;" d="M250,299.172c-0.882,0.022-3.229,0.138-3.5,0.745c0.25,2.5,1.084,6.417,1.084,6.417l2.416,0.151l2.416-0.151c0,0,0.834-3.917,1.084-6.417C253.23,299.31,250.882,299.194,250,299.172z"></path></g></g></g><g><g><g><g><path style="fill:#505050;stroke:#000000;stroke-linecap:round;stroke-linejoin:round;" d="M278.334,404.667c0,0,22.666,30,28.333,33c9.667-5.667,14.667-10.667,14-16S278.334,404.667,278.334,404.667z"></path><path style="fill:#E8D187;stroke:#000000;stroke-linecap:round;stroke-linejoin:round;" d="M278.25,404c0,0,14.334,23.084,28.417,33.667C312,435.75,322.75,427.5,320.5,422c-2.5-1.75-4.75-3-4.75-3s3.75,5.75-1,9.75c-2-0.25-5.5-0.75-5.5-0.75l-1,5.25c0,0-17-15.5-23-26.25C280.5,403.5,278.25,404,278.25,404z"></path></g><g><g><path style="fill:#6E6E6E;stroke:#000000;stroke-linecap:round;stroke-linejoin:round;" d="M320.667,423c-1.333-11-32.891-37.333-34.519-42.333c1.304-5,1.304-7.667,1.304-7.667c-2.28-2.667-2.932-5.667-2.932-5.667s1.628-3.667,1.954-5c-0.326-5-8.469-25.666-8.469-25.666l-15.305-19L251,328.723l-0.667,47.944c2.668,3.224,16.753,23.448,28,28C292.336,410.334,311.334,415.333,320.667,423z"></path><path style="fill:#505050;" d="M281.734,373.438c0,0,2.188-0.25,2.5,0.063s-0.072,6.959-2.66,10.167c0,0-3.215,1.646-4.652,1.646C277.609,382.625,281.734,373.438,281.734,373.438z"></path><path style="fill:#505050;" d="M282.998,349.167l2.834,12.166c0,0-27.167-11.666-32.667-30.166C263.498,335,282.998,349.167,282.998,349.167z"></path><g><path style="fill:none;stroke:#000000;stroke-linecap:round;stroke-linejoin:round;" d="M284.521,367.333c0,0-7.165,15-8.142,19.667"></path><path style="fill:none;stroke:#000000;stroke-linecap:round;stroke-linejoin:round;" d="M277.355,385.333c0,0,2.604-0.333,4.233-1.666c0.977-1.666,3.256-8.334,2.931-9.334"></path></g></g><path style="fill:#FFF09E;stroke:#000000;stroke-linecap:round;stroke-linejoin:round;" d="M318.667,416.667c-0.442-0.549-2.194-1.747-6.198-3.706l-2.344-6.211l-5.418,2.709c-3.161-1.339-6.965-2.871-11.538-4.615c-0.821-1.881-2.234-4.966-3.544-7.094c-2.476,0.077-5.716,1.687-7.827,2.902c-0.143-0.052-0.278-0.101-0.423-0.152c-12.832-4.583-22.041-21.833-22.041-21.833l-0.667,8.667c0,0,7.334,11.667,18.667,17s36.333,10.999,43.333,18.666C320,419,319.709,417.959,318.667,416.667z M309.25,409.25l0.968,2.64c-0.977-0.452-2.06-0.938-3.244-1.456L309.25,409.25z M288.125,400.875l1.233,2.534c-1.263-0.47-2.577-0.953-3.942-1.45L288.125,400.875z"></path></g></g><g><path style="fill:#505050;stroke:#000000;stroke-linecap:round;stroke-linejoin:round;" d="M182.667,438.667c0,0,3.667,1.667,14.333,1.333c-0.75-11,16-17.25,16-17.25S181.667,429.417,182.667,438.667z"></path><g><path style="fill:#E8D187;stroke:#000000;stroke-linecap:round;stroke-linejoin:round;" d="M210.202,358.667c0,0,2.298,3.333,5.131,3.833c1.167-5.5,1.833-8.833,1.833-8.833S210.738,354.667,210.202,358.667z"></path><path style="fill:#6E6E6E;stroke:#000000;stroke-linecap:round;stroke-linejoin:round;" d="M251.667,330c0,0,4.999,21,6.333,28.667c0.667,4-1.333,30-1.333,30S242.956,407.428,229.333,415c-19.519,10.851-43.27,14.892-47,23.334c-6.333-11.667-3.667-19.667-3.667-19.667S189,403.334,204,396.334c2.667-5.667,4.333-10.334,6-11.667c1.667-3,3.333-6,3.333-6S213,373.333,214,368s3-14.334,4-16s33.667-21.666,33.667-21.666"></path><g><path style="fill:#505050;" d="M218.265,373.438c0,0-2.188-0.25-2.5,0.063s0.072,6.959,2.661,10.167c0,0,3.214,1.646,4.651,1.646C222.39,382.625,218.265,373.438,218.265,373.438z"></path></g><path style="fill:#505050;" d="M218.667,349.167l-2.833,12.166c0,0,27.167-11.666,32.667-30.166C238.167,335,218.667,349.167,218.667,349.167z"></path><path style="fill:#FFF09E;stroke:#000000;stroke-linecap:round;stroke-linejoin:round;" d="M259.334,356.334c-0.334-8.334-7-27.334-7-27.334l-4.667,1c0,0,1.057,3.015,2.371,7.143c-0.191,0.056-0.372,0.15-0.506,0.317c-0.104,0.131-2.568,3.228-3.612,6.621c-0.103,0.334-0.024,0.697,0.208,0.958c2.462,2.771,6.687,4.127,6.866,4.184c0.182,0.058,0.361,0.043,0.533,0.001c0.675,2.709,1.198,5.233,1.415,7.205c-0.215,0.011-0.43,0.074-0.605,0.226c-0.127,0.109-3.115,2.704-4.762,5.85c-0.162,0.31-0.15,0.682,0.03,0.98c1.702,2.82,4.969,4.793,5.793,5.26c0.012,7.313-0.353,15.284-1.34,19.059c-1.366-0.114-4.152-0.229-6.688,0.393c-0.34,0.083-0.611,0.338-0.716,0.672c-1.109,3.538-0.1,7.858-0.056,8.041c0.035,0.145,0.102,0.27,0.188,0.38c-2.103,2.05-4.489,4.191-6.906,6.2c-0.078-0.059-0.157-0.118-0.254-0.153c-0.157-0.057-3.885-1.384-7.435-1.277c-0.35,0.011-0.668,0.204-0.84,0.509c-1.823,3.228-1.738,7.665-1.733,7.853c0.003,0.146,0.042,0.282,0.101,0.405c-8.229,4.673-30.426,11.873-34.052,14.51c-0.947,0.688-2.296,1.489-3.802,2.366c-0.083-0.064-0.168-0.126-0.272-0.162c-0.158-0.055-3.899-1.345-7.447-1.202c-0.35,0.014-0.667,0.21-0.835,0.516c-1.791,3.246-1.662,7.683-1.655,7.87c0.001,0.024,0.014,0.044,0.016,0.067c-0.445,0.518-0.791,1.034-1.004,1.545c-1.667,4,2.333,3.333,2.333,3.333S192,432,198.667,429s19.333-6.333,35-15C247.435,406.384,258,392.667,259,389.334C260.333,380.001,259.668,364.668,259.334,356.334z M184.807,428.325c1.782,0.015,3.59,0.395,4.776,0.705c-2.059,1.21-4.173,2.519-5.859,3.854C183.833,431.601,184.112,429.833,184.807,428.325z M248.015,344.12c0.746-2.061,2.034-3.983,2.681-4.88c0.767,2.476,1.572,5.2,2.28,7.852C251.891,346.673,249.607,345.671,248.015,344.12z M251.628,362.926c1.093-1.862,2.679-3.496,3.49-4.273c0.134,2.163,0.227,4.848,0.263,7.728C254.301,365.659,252.695,364.436,251.628,362.926z M231.631,409.66c0.049-1.182,0.265-3.623,1.201-5.605c2.049,0.037,4.132,0.559,5.26,0.89C235.839,406.743,233.616,408.377,231.631,409.66z M248.397,395.676c-0.199-1.191-0.476-3.569,0.017-5.662c1.77-0.346,3.64-0.328,4.864-0.259C252.391,391.288,250.634,393.378,248.397,395.676z"></path><g><g><path style="fill:none;stroke:#000000;stroke-linecap:round;stroke-linejoin:round;" d="M215.479,367.333c0,0,7.165,15,8.142,19.667"></path><path style="fill:none;stroke:#000000;stroke-linecap:round;stroke-linejoin:round;" d="M215.48,374.333c-0.326,1,1.954,7.668,2.931,9.334c1.628,1.333,4.233,1.666,4.233,1.666"></path></g></g></g></g></g><g><g><path style="fill:#6E6E6E;stroke:#000000;stroke-linecap:round;stroke-linejoin:round;" d="M241.558,317c0,0,7.849,11.334,7.849,12.667s-30.868,27-38.416,27c3.924-12,6.642-27,6.642-27s-1.434-23.666,0.076-36.333c8.754,1.333,14.188,2,14.188,2L241.558,317z"></path><g><path style="fill:#505050;" d="M230.978,309.625c0,0-4.625,12.5-5.375,15.5c-1.5-8.125-1-18.5-1-18.5L230.978,309.625z"></path></g><path style="fill:#FFF09E;stroke:#000000;stroke-linecap:round;stroke-linejoin:round;" d="M239.863,314l-7.736-4.666l3.32,4.908c-1.374-0.258-3.751-0.813-5.575-1.813c0.486-3.565,1.758-5.413,1.772-5.433l-0.003,0.004c0.326-0.445,0.23-1.07-0.215-1.397c-0.445-0.326-1.071-0.23-1.398,0.216c-0.072,0.098-1.765,2.452-2.232,7.029c-0.039,0.374,0.137,0.738,0.453,0.942c3.076,1.982,7.864,2.596,8.066,2.62c0.191,0.023,0.368-0.023,0.532-0.099l0.806,1.191c-0.058,0.102-0.106,0.21-0.126,0.332c-0.029,0.173-0.345,2.241,0.049,4.91c-1.954,0.345-3.811,1.016-5.092,2.122c-0.356,0.308-0.45,0.822-0.224,1.235c1.104,2.022,2.786,3.66,4.939,4.892c-0.505,2.146-0.442,3.892-0.435,4.051c0.016,0.344,0.214,0.624,0.487,0.792c-0.009,0.007-0.018,0.015-0.027,0.022c-0.433-0.269-2.801-1.617-7.029-1.858c-0.375-0.021-0.731,0.169-0.921,0.494c-1.844,3.161-2.242,7.972-2.258,8.175c-0.021,0.274,0.07,0.532,0.235,0.727c-0.792,0.54-1.608,1.084-2.45,1.63c-0.065-0.087-0.138-0.171-0.233-0.234c-0.101-0.067-2.529-1.654-7.123-1.916c-0.375-0.021-0.731,0.169-0.921,0.494c-1.57,2.692-2.091,6.571-2.221,7.791c-0.751,0.394-1.512,0.785-2.289,1.172c0,0-1.245,0.916-1.698,3.041c-0.453,2.125-0.113,3.292-0.113,3.292s29.454-12.333,39.718-29C249.316,324.667,239.863,314,239.863,314z M240.279,325.234c-0.089-0.247-0.178-0.493-0.251-0.737c0.388-0.021,0.772-0.031,1.147-0.028C240.854,324.71,240.555,324.965,240.279,325.234z M241.207,330.563c-0.556-0.175-1.084-0.374-1.59-0.592c0.112-0.301,0.242-0.601,0.385-0.899C240.355,329.582,240.756,330.08,241.207,330.563z M241.003,322.458c-0.466-0.001-0.942,0.012-1.422,0.044c-0.14-0.91-0.187-1.742-0.191-2.43L241.003,322.458z M234.489,325.893c0.949-0.568,2.188-0.95,3.504-1.174c0.207,0.755,0.482,1.526,0.838,2.301c-0.418,0.658-0.757,1.34-1.023,2.02C236.431,328.188,235.319,327.132,234.489,325.893z M239.064,331.915c0.604,0.25,1.237,0.471,1.895,0.668c-0.655,0.603-1.391,1.262-2.196,1.962C238.775,334.026,238.831,333.062,239.064,331.915z M230.706,336.058c2.378,0.217,3.998,0.808,4.837,1.188c-1.887,1.525-4.041,3.174-6.456,4.881C229.247,340.858,229.688,338.128,230.706,336.058z M217.956,344.933c2.552,0.232,4.233,0.896,5.008,1.267c-2.028,1.269-4.193,2.541-6.479,3.793C216.716,348.58,217.158,346.556,217.956,344.933z M243.579,330.072c-1.015-0.872-1.792-1.852-2.381-2.868c0.521-0.621,1.147-1.184,1.911-1.632l1.98,2.928C245.09,328.5,244.574,329.076,243.579,330.072z"></path><path style="fill:none;stroke:#000000;stroke-linecap:round;stroke-linejoin:round;" d="M225.105,328.25c0.227-1.5,3.849-13.25,6.792-19.75"></path></g><g><path style="fill:#6E6E6E;stroke:#000000;stroke-linecap:round;stroke-linejoin:round;" d="M258.677,317c0,0-7.851,11.334-7.851,12.667s30.869,27,38.416,27c-3.924-12-6.642-27-6.642-27s1.435-23.666-0.075-36.333c-8.755,1.333-14.188,2-14.188,2L258.677,317z"></path><path style="fill:#505050;" d="M269.022,309.625c0,0,4.625,12.5,5.375,15.5c1.5-8.125,1-18.5,1-18.5L269.022,309.625z"></path><g><path style="fill:#FFF09E;stroke:#000000;stroke-linecap:round;stroke-linejoin:round;" d="M250.08,329.667c10.265,16.667,39.718,29,39.718,29s0.34-1.167-0.113-3.292s-1.698-3.041-1.698-3.041c-0.776-0.387-1.538-0.778-2.289-1.172c-0.13-1.22-0.651-5.099-2.222-7.791c-0.189-0.325-0.545-0.516-0.92-0.494c-4.594,0.262-7.021,1.849-7.123,1.916c-0.096,0.063-0.168,0.147-0.233,0.234c-0.843-0.546-1.657-1.09-2.45-1.63c0.165-0.194,0.257-0.452,0.235-0.727c-0.017-0.203-0.415-5.014-2.259-8.175c-0.189-0.325-0.545-0.516-0.92-0.494c-4.229,0.241-6.597,1.59-7.029,1.858c-0.01-0.008-0.019-0.016-0.027-0.022c0.273-0.168,0.472-0.448,0.487-0.792c0.007-0.159,0.07-1.905-0.435-4.051c2.152-1.231,3.835-2.869,4.938-4.892c0.226-0.413,0.132-0.928-0.224-1.235c-1.281-1.106-3.139-1.777-5.092-2.122c0.395-2.669,0.078-4.737,0.049-4.91c-0.021-0.122-0.068-0.23-0.127-0.332l0.807-1.191c0.163,0.075,0.34,0.122,0.531,0.099c0.203-0.024,4.99-0.638,8.066-2.62c0.316-0.204,0.491-0.568,0.453-0.942c-0.468-4.577-2.16-6.932-2.232-7.029c-0.326-0.446-0.953-0.542-1.398-0.216c-0.445,0.327-0.541,0.952-0.215,1.397l-0.003-0.004c0.014,0.02,1.286,1.867,1.772,5.433c-1.824,0.999-4.201,1.555-5.575,1.813l3.319-4.908L260.137,314C260.137,314,250.684,324.667,250.08,329.667z M258.825,324.469c0.375-0.003,0.76,0.008,1.147,0.028c-0.073,0.244-0.162,0.49-0.251,0.737C259.444,324.965,259.146,324.71,258.825,324.469z M259.998,329.071c0.144,0.299,0.273,0.599,0.386,0.899c-0.506,0.218-1.035,0.417-1.591,0.592C259.244,330.08,259.646,329.582,259.998,329.071z M260.61,320.072c-0.004,0.688-0.052,1.52-0.191,2.43c-0.48-0.032-0.957-0.045-1.422-0.044L260.61,320.072z M262.192,329.039c-0.268-0.68-0.605-1.361-1.023-2.02c0.355-0.774,0.631-1.546,0.838-2.301c1.316,0.224,2.555,0.605,3.504,1.174C264.681,327.132,263.569,328.188,262.192,329.039z M261.236,334.545c-0.806-0.7-1.541-1.359-2.196-1.962c0.658-0.197,1.292-0.418,1.896-0.668C261.169,333.062,261.225,334.026,261.236,334.545z M270.913,342.126c-2.415-1.707-4.568-3.355-6.456-4.881c0.839-0.38,2.458-0.971,4.837-1.188C270.312,338.128,270.753,340.858,270.913,342.126z M283.516,349.992c-2.286-1.252-4.451-2.524-6.479-3.793c0.774-0.37,2.455-1.034,5.008-1.267C282.842,346.556,283.284,348.58,283.516,349.992z M254.91,328.5l1.98-2.928c0.764,0.448,1.39,1.011,1.911,1.632c-0.59,1.017-1.366,1.996-2.381,2.868C255.426,329.076,254.91,328.5,254.91,328.5z"></path></g><path style="fill:none;stroke:#000000;stroke-linecap:round;stroke-linejoin:round;" d="M275.13,328.25c-0.227-1.5-3.85-13.25-6.793-19.75"></path></g></g></g><g><g><g><path style="fill:#B2B2B2;stroke:#000000;stroke-linecap:round;stroke-linejoin:round;" d="M213.833,265.667c0,0-19.334,14.999-24,28.333c10-0.333,25.666-0.333,36.333,7c-4.667,3.334-5.333,5.334-5.333,5.334s14.583,3.416,20.917,10.416c-4.221-9.932-7.098-19.116-9.5-32c2.306-1.66,5.083-3.083,7.75-4.083c0.333-2,0.951-7.504,1-10.333C229.667,267.001,213.833,265.667,213.833,265.667z"></path></g><g><path style="fill:#B2B2B2;stroke:#000000;stroke-linecap:round;stroke-linejoin:round;" d="M286.401,265.667c0,0,19.334,14.999,24,28.333c-10-0.333-25.666-0.333-36.333,7c4.667,3.334,5.333,5.334,5.333,5.334s-14.583,3.416-20.917,10.416c4.222-9.932,7.098-19.116,9.5-32c-2.307-1.66-5.084-3.083-7.75-4.083c-0.334-2-0.951-7.504-1-10.333C270.567,267.001,286.401,265.667,286.401,265.667z"></path></g></g><g><path style="fill:#FFFFFF;stroke:#000000;stroke-linecap:round;stroke-linejoin:round;" d="M240.383,281.333l9.5,12.417c0,0-6.667-5.417-9.5-8.25c-6.167,8.5-13,15.5-15.5,19.5c-0.108-1.242,3.25-17,8.75-25.75c3-0.333,6.917-0.417,6.917-0.417L240.383,281.333z"></path><path style="fill:#FFFFFF;stroke:#000000;stroke-linecap:round;stroke-linejoin:round;" d="M259.617,281.333l-9.5,12.417c0,0,6.667-5.417,9.5-8.25c6.166,8.5,13,15.5,15.5,19.5c0.107-1.242-3.25-17-8.75-25.75c-3-0.333-6.916-0.417-6.916-0.417L259.617,281.333z"></path></g></g></g><g><path style="fill:#D4CAAE;stroke:#000000;stroke-linecap:round;stroke-linejoin:round;" d="M182.333,395.364c0,0,14,22,14.667,32.333c4.333-1,7.333-4,7.333-4s-5.667-20.333-17.333-33C184,392.364,182.333,395.364,182.333,395.364z"></path><path style="fill:#D4CAAE;stroke:#000000;stroke-linecap:round;stroke-linejoin:round;" d="M177.083,452.197l12.25,9.167l-1,4c0,0,4.333-1.666,4.667-5s-16.25-17.834-16.25-17.834S175.75,449.53,177.083,452.197z"></path><path style="fill:#F2E8CC;stroke:#000000;stroke-linecap:round;stroke-linejoin:round;" d="M198,384.197c-0.333,1-8,80.501-9.667,81.167S182,465.03,182,465.03l8.833-88L198,384.197z"></path><polygon style="fill:#D4CAAE;" points="185.5,435.799 184.75,443.049 191.75,439.549 192.375,431.924 "></polygon><path style="fill:#D4CAAE;" d="M189.375,396.924l-0.375,5l7.5-6.75l0.5-5.75C197,389.424,190.25,393.924,189.375,396.924z"></path><path style="fill:#F2E8CC;stroke:#000000;stroke-linecap:round;stroke-linejoin:round;" d="M198.95,379.78l-1.021,2.27c-0.158-0.005-0.311-0.034-0.464-0.065c-0.528-0.869-1.641-2.767-2.082-3.996l-6.242-3.135c-0.28,0.736-0.444,1.323-0.39,1.594c0.147,0.736,1.074,3.38,1.863,5.736c-0.162,1.18-0.422,2.095-0.946,2.514c-1.667,1.333-7.333,10.667-7.333,10.667s0.333,4.333,4.333,6.666c0-5,10.667-11.666,14-14.666c1.165-1.048,2.401-3.076,3.415-5.007L198.95,379.78z"></path><path style="fill:#D4CAAE;" d="M191.125,382.424l-0.75,2.125l-2.625,3.25c0,0,6,0.375,6.75-1C194,386.049,191.125,382.424,191.125,382.424z"></path><path style="fill:#F2E8CC;stroke:#000000;stroke-linecap:round;stroke-linejoin:round;" d="M201.333,415.364c1.333,2.333,3.333,5.666,3,8.333c-2,4.333-25.25,17.499-26.917,22.833c-0.333,1.667-0.333,5.667-0.333,5.667s-4-9.333-2.667-14C174.996,436.17,195.333,423.031,201.333,415.364z"></path></g></g></g></svg>