<svg xmlns="http://www.w3.org/2000/svg" width="500" height="500" version="1.1"><g id="x002" data-trait-type="Beard" data-trait-value="Blackbeard"><path style="fill:#6E6E6E;stroke:#000000;stroke-linecap:round;stroke-linejoin:round;" d="M308.75,234.75c0,0-9.75,24.5-10.5,26.25c-5.25,3.75-30.75,15.75-42,16.25c-3.25-2.25-3.75-5-3.75-5h-5c0,0-0.5,2.75-3.75,5c-11.25-0.5-36.75-12.5-42-16.25c-0.75-1.75-10.5-26.25-10.5-26.25s1.25,24-7.5,34C203.25,267.75,250,301,250,301s46.75-33.25,66.25-32.25C307.5,258.75,308.75,234.75,308.75,234.75z"></path></g></svg>