<svg xmlns="http://www.w3.org/2000/svg" width="500" height="500" version="1.1"><g id="x003" data-trait-type="Beard" data-trait-value="Spiky Blackbeard"><g><g><path style="fill:#6E6E6E;stroke:#000000;stroke-linecap:round;stroke-linejoin:round;" d="M307.412,252.417c0,1.36-3.419,18.609-3.419,18.609s-15.324,2.103-19.535,4.144c-0.632-3.003-2.601-8.253-2.601-8.253s-3.096,9.5-9.65,16.202l-3.063-2.722c-4.595,3.402-10.337,6.443-10.337,6.443L250,278.995l-8.806,7.846c0,0-5.743-3.041-10.337-6.443l-3.063,2.722c-6.555-6.702-9.65-16.202-9.65-16.202s-1.97,5.25-2.601,8.253c-4.212-2.041-19.536-4.144-19.536-4.144s-3.42-17.249-3.42-18.609s-1.346,20.5-7.254,25.75l8.762,3.364c0,0,13.357,2.136,17.619,4.443c5.585,5.692,17.228,11.31,17.228,11.31s-0.107-3.617-0.107-5.617c7.315,6.5,21.166,12.25,21.166,12.25s13.852-5.75,21.166-12.25c0,2-0.108,5.617-0.108,5.617s11.643-5.617,17.228-11.31c4.263-2.308,17.619-4.443,17.619-4.443l8.763-3.364C308.759,272.917,307.412,251.057,307.412,252.417z"></path><g><polyline style="fill:#6E6E6E;stroke:#000000;stroke-linecap:round;stroke-linejoin:round;" points="192.758,263.334 203.136,257.834 194.514,274.167 "></polyline><polyline style="fill:#6E6E6E;stroke:#000000;stroke-linecap:round;stroke-linejoin:round;" points="307.242,263.334 296.863,257.834 305.485,274.167 "></polyline></g></g><g><g><path style="fill:#6E6E6E;stroke:#000000;stroke-linecap:round;stroke-linejoin:round;" d="M197.074,248.833l-4.016-2.725c-0.309-2.606-0.625-5.371-0.936-8.125c1.062-3.221,3.951-11.817,3.951-11.817s-3.587,1.696-5.059,1.798c-0.712-6.549-1.225-11.465-1.225-11.465l-0.725,24.134c0,0-2.722,4.763-9.525,9.866c1.701,0,10.736,6.515,15.5,9.917c-0.214-0.713-0.569-3.058-0.996-6.314L197.074,248.833z"></path><path style="fill:#6E6E6E;stroke:#000000;stroke-linecap:round;stroke-linejoin:round;" d="M190.591,236.5c0,0-6.5,1-11.5-0.25c6,7.25,12,10,12,10"></path></g><g><path style="fill:#6E6E6E;stroke:#000000;stroke-linecap:round;stroke-linejoin:round;" d="M302.925,248.833l4.017-2.725c0.308-2.606,0.625-5.371,0.935-8.125c-1.061-3.221-3.951-11.817-3.951-11.817s3.588,1.696,5.059,1.798c0.713-6.549,1.226-11.465,1.226-11.465l0.724,24.134c0,0,2.723,4.763,9.526,9.866c-1.701,0-10.737,6.515-15.5,9.917c0.214-0.713,0.569-3.058,0.996-6.314L302.925,248.833z"></path><path style="fill:#6E6E6E;stroke:#000000;stroke-linecap:round;stroke-linejoin:round;" d="M309.409,236.5c0,0,6.5,1,11.5-0.25c-6,7.25-12,10-12,10"></path></g></g></g></g></svg>