<svg xmlns="http://www.w3.org/2000/svg" width="500" height="500" version="1.1"><g id="x100"><g><g><linearGradient id="hair3XMLID_1205_" gradientUnits="userSpaceOnUse" x1="331.5215" y1="407" x2="331.5215" y2="91.9998"><stop offset="0" style="stop-color:#FCFCE4"></stop><stop offset="0.5" style="stop-color:#A0C8DD"></stop><stop offset="1" style="stop-color:#5D6EC5"></stop></linearGradient><path style="fill:url(#hair3XMLID_1205_);stroke:#1E1E1E;stroke-linecap:round;stroke-linejoin:round;" d="M306.864,155.767c1.391,3.202,3.328,5.997,5.658,8.321c0.982,0.982,1.998,3.296,3.108,4.105c0.958,0.697,4.518,2.51,5.551,3.073c7.021,3.818,13.145,1.883,21.044-1.546c2.168-0.941,2.46-0.021,4.233-1.417c1.023-0.803,4.024-3.31,4.907-4.238c0.804-0.847,1.189-2.217,1.871-3.153c5.426-7.447,6.876-17.491,2.94-26.553c-1.097-2.528-0.529-3.155-2.231-5.144c-0.759-0.884-2.521-4.091-3.376-4.859c-0.818-0.737-2.733-0.689-3.63-1.315c-7.4-5.171-17.233-6.494-26.124-2.634C307.199,126.317,300.952,142.149,306.864,155.767z"></path><linearGradient id="hair3XMLID_1206_" gradientUnits="userSpaceOnUse" x1="330.4844" y1="407" x2="330.4844" y2="91.9998"><stop offset="0" style="stop-color:#FCFCE4"></stop><stop offset="0.5" style="stop-color:#A0C8DD"></stop><stop offset="1" style="stop-color:#5D6EC5"></stop></linearGradient><path style="fill:url(#hair3XMLID_1206_);stroke:#1E1E1E;stroke-linecap:round;stroke-linejoin:round;" d="M346.94,123.04c0,0,2.252,10.767-4.14,23.239c-6.39,12.473-14.302,14.643-29.156,20.247"></path><linearGradient id="hair3XMLID_1207_" gradientUnits="userSpaceOnUse" x1="350.8145" y1="407" x2="350.8145" y2="92.0007"><stop offset="0" style="stop-color:#FCFCE4"></stop><stop offset="0.5" style="stop-color:#A0C8DD"></stop><stop offset="1" style="stop-color:#5D6EC5"></stop></linearGradient><path style="fill:url(#hair3XMLID_1207_);stroke:#1E1E1E;stroke-linecap:round;stroke-linejoin:round;" d="M352.501,146.285c0,0,1.997,14.312-3.712,20.585"></path><linearGradient id="hair3XMLID_1208_" gradientUnits="userSpaceOnUse" x1="325.6348" y1="407" x2="325.6348" y2="92.0001"><stop offset="0" style="stop-color:#FCFCE4"></stop><stop offset="0.5" style="stop-color:#A0C8DD"></stop><stop offset="1" style="stop-color:#5D6EC5"></stop></linearGradient><path style="fill:url(#hair3XMLID_1208_);stroke:#1E1E1E;stroke-linecap:round;stroke-linejoin:round;" d="M343.097,144.043c0,0-24.877,1.944-34.923,14.739"></path><linearGradient id="hair3XMLID_1209_" gradientUnits="userSpaceOnUse" x1="319.6094" y1="407" x2="319.6094" y2="91.9995"><stop offset="0" style="stop-color:#FCFCE4"></stop><stop offset="0.5" style="stop-color:#A0C8DD"></stop><stop offset="1" style="stop-color:#5D6EC5"></stop></linearGradient><path style="fill:url(#hair3XMLID_1209_);stroke:#1E1E1E;stroke-linecap:round;stroke-linejoin:round;" d="M327.934,148.939c0,0-12.618,5.899-16.647,13.129"></path><linearGradient id="hair3XMLID_1210_" gradientUnits="userSpaceOnUse" x1="319.5996" y1="407" x2="319.5996" y2="91.9991"><stop offset="0" style="stop-color:#FCFCE4"></stop><stop offset="0.5" style="stop-color:#A0C8DD"></stop><stop offset="1" style="stop-color:#5D6EC5"></stop></linearGradient><path style="fill:url(#hair3XMLID_1210_);stroke:#1E1E1E;stroke-linecap:round;stroke-linejoin:round;" d="M334.332,126.767c0,0-23.585,6.865-29.466,19.538"></path></g></g></g></svg>