<svg xmlns="http://www.w3.org/2000/svg" width="500" height="500" version="1.1"><g id="x106"><g><g><linearGradient id="hair3XMLID_1217_" gradientUnits="userSpaceOnUse" x1="316.7168" y1="407" x2="316.7168" y2="92.0005"><stop offset="0" style="stop-color:#FCFCE4"></stop><stop offset="0.5" style="stop-color:#A0C8DD"></stop><stop offset="1" style="stop-color:#5D6EC5"></stop></linearGradient><path style="fill:url(#hair3XMLID_1217_);stroke:#1E1E1E;stroke-linecap:round;stroke-linejoin:round;" d="M320.359,224.817c0.963,0.31,2.428,0.976,2.877,2.261c0.688,1.967,0.584,4.285,0.584,4.285l3.801,10.236c-0.691,0.633-1.523,1.638-2.115,2.384c2.535,2.23,11.426,10.867,12.219,22.844c0.926,13.979-8.975,21.992-9.637,28.157s7.35,16.245,17.35,15.934c-4.201,6.887-10.387,8.433-21.217-0.462c16.629,20.885,6.598,50.526-32.359,47.242c8.471-16.271,11.244-28.915-0.516-42.988c-7.943-9.507-0.773-25.912,11.217-42.157c5.738-7.775-2-11.849,6.193-25.12c-0.645,0.196-1.178,0.4-1.555,0.612c-1.324-0.444-2.271-5.071-2.891-9.617C304.629,227.108,318.457,223.82,320.359,224.817z"></path><linearGradient id="hair3XMLID_1218_" gradientUnits="userSpaceOnUse" x1="299.5508" y1="407" x2="299.5508" y2="92.0001"><stop offset="0" style="stop-color:#FCFCE4"></stop><stop offset="0.5" style="stop-color:#A0C8DD"></stop><stop offset="1" style="stop-color:#5D6EC5"></stop></linearGradient><path style="fill:url(#hair3XMLID_1218_);stroke:#1E1E1E;stroke-linecap:round;stroke-linejoin:round;" d="M304.881,266.751c0,0-15.855,41.771-8.895,55.694"></path><linearGradient id="hair3XMLID_1219_" gradientUnits="userSpaceOnUse" x1="330.1934" y1="407" x2="330.1934" y2="92.0001"><stop offset="0" style="stop-color:#FCFCE4"></stop><stop offset="0.5" style="stop-color:#A0C8DD"></stop><stop offset="1" style="stop-color:#5D6EC5"></stop></linearGradient><path style="fill:url(#hair3XMLID_1219_);stroke:#1E1E1E;stroke-linecap:round;stroke-linejoin:round;" d="M327.701,246.639c0,0,11.217,24.753,0,46.413"></path><linearGradient id="hair3XMLID_1220_" gradientUnits="userSpaceOnUse" x1="315.9053" y1="407" x2="315.9053" y2="92.0002"><stop offset="0" style="stop-color:#FCFCE4"></stop><stop offset="0.5" style="stop-color:#A0C8DD"></stop><stop offset="1" style="stop-color:#5D6EC5"></stop></linearGradient><path style="fill:url(#hair3XMLID_1220_);stroke:#1E1E1E;stroke-linecap:round;stroke-linejoin:round;" d="M324.221,243.932c0,0-9.283-3.094-16.631,6.188"></path></g></g></g></svg>