<svg xmlns="http://www.w3.org/2000/svg" width="500" height="500" version="1.1"><g id="x107"><g><g><linearGradient id="hair3XMLID_1221_" gradientUnits="userSpaceOnUse" x1="318.3438" y1="407" x2="318.3438" y2="92.0005"><stop offset="0" style="stop-color:#FCFCE4"></stop><stop offset="0.5" style="stop-color:#A0C8DD"></stop><stop offset="1" style="stop-color:#5D6EC5"></stop></linearGradient><path style="fill:url(#hair3XMLID_1221_);stroke:#1E1E1E;stroke-linecap:round;stroke-linejoin:round;" d="M307.887,297.693c0,0-3.095,13.922,8.896,15.083c-1.548-4.642-1.548-6.575-1.548-6.575s10.443,6.961,13.925-4.255c-6.576,1.547-15.084,1.935-17.018-6.962C309.821,293.438,307.887,297.693,307.887,297.693z"></path><g><linearGradient id="hair3XMLID_1222_" gradientUnits="userSpaceOnUse" x1="289.3154" y1="407" x2="289.3154" y2="91.9998"><stop offset="0" style="stop-color:#FCFCE4"></stop><stop offset="0.5" style="stop-color:#A0C8DD"></stop><stop offset="1" style="stop-color:#5D6EC5"></stop></linearGradient><path style="fill:url(#hair3XMLID_1222_);stroke:#1E1E1E;stroke-linecap:round;stroke-linejoin:round;" d="M314.804,243.737c1.204,10.879-4.597,17.6-4.597,17.6c4.794,7.612,3.829,14.606,1.156,19.338h0.005c4.456,7.882,3.147,17.052-0.386,19.724c-13.512-1.491-12.821-14.229-12.225-18.4c-3.464-2.274-5.916-5.543-7.608-8.647c-9.265-0.526-20.325-6.601-21.987-8.146c-1.664-1.546-6.817-15.374-5.183-21.467H314.804z"></path><linearGradient id="hair3XMLID_1223_" gradientUnits="userSpaceOnUse" x1="288.1602" y1="407" x2="288.1602" y2="92.0008"><stop offset="0" style="stop-color:#FCFCE4"></stop><stop offset="0.5" style="stop-color:#A0C8DD"></stop><stop offset="1" style="stop-color:#5D6EC5"></stop></linearGradient><path style="fill:url(#hair3XMLID_1223_);stroke:#1E1E1E;stroke-linecap:round;stroke-linejoin:round;" d="M274.624,248.573c0,0,5.414,22.046,27.073,21.659"></path><linearGradient id="hair3XMLID_1224_" gradientUnits="userSpaceOnUse" x1="307.3066" y1="407" x2="307.3066" y2="92.0005"><stop offset="0" style="stop-color:#FCFCE4"></stop><stop offset="0.5" style="stop-color:#A0C8DD"></stop><stop offset="1" style="stop-color:#5D6EC5"></stop></linearGradient><path style="fill:url(#hair3XMLID_1224_);stroke:#1E1E1E;stroke-linecap:round;stroke-linejoin:round;" d="M311.368,258.629c0,0-4.257,8.896-8.122,11.604"></path><linearGradient id="hair3XMLID_1225_" gradientUnits="userSpaceOnUse" x1="302.3809" y1="407" x2="302.3809" y2="91.9996"><stop offset="0" style="stop-color:#FCFCE4"></stop><stop offset="0.5" style="stop-color:#A0C8DD"></stop><stop offset="1" style="stop-color:#5D6EC5"></stop></linearGradient><path style="fill:url(#hair3XMLID_1225_);stroke:#1E1E1E;stroke-linecap:round;stroke-linejoin:round;" d="M305.566,268.686c0,0,3.016,7.288-6.809,13.313"></path><linearGradient id="hair3XMLID_1226_" gradientUnits="userSpaceOnUse" x1="307.6934" y1="407" x2="307.6934" y2="91.9997"><stop offset="0" style="stop-color:#FCFCE4"></stop><stop offset="0.5" style="stop-color:#A0C8DD"></stop><stop offset="1" style="stop-color:#5D6EC5"></stop></linearGradient><path style="fill:url(#hair3XMLID_1226_);stroke:#1E1E1E;stroke-linecap:round;stroke-linejoin:round;" d="M301.312,280.868c0,2.708,0.772,8.896,4.641,11.603c3.868,2.708,8.123,3.481,8.123,3.481"></path><linearGradient id="hair3XMLID_1227_" gradientUnits="userSpaceOnUse" x1="309.0469" y1="407" x2="309.0469" y2="92.0001"><stop offset="0" style="stop-color:#FCFCE4"></stop><stop offset="0.5" style="stop-color:#A0C8DD"></stop><stop offset="1" style="stop-color:#5D6EC5"></stop></linearGradient><path style="fill:url(#hair3XMLID_1227_);stroke:#1E1E1E;stroke-linecap:round;stroke-linejoin:round;" d="M312.141,278.548c0,0-3.096,10.83-6.188,12.763"></path></g></g></g></g></svg>