<svg xmlns="http://www.w3.org/2000/svg" width="500" height="500" version="1.1"><g id="x108"><g><g><g><g><linearGradient id="hair3XMLID_1228_" gradientUnits="userSpaceOnUse" x1="321.9404" y1="407" x2="321.9404" y2="92.0001"><stop offset="0" style="stop-color:#FCFCE4"></stop><stop offset="0.5" style="stop-color:#A0C8DD"></stop><stop offset="1" style="stop-color:#5D6EC5"></stop></linearGradient><path style="fill:url(#hair3XMLID_1228_);stroke:#1E1E1E;stroke-linecap:round;stroke-linejoin:round;" d="M320.516,257.13c0,0-8.044,23.821-15.561,25.876c9.402-4.588,14.05-14.009,15.227-16.744c-2.566,8.87-4.012,16.527-8.696,22.093c6.786,3.117,14.051,0.604,14.051,0.604s1.241-6.947,2.173-12.83c0.298,1.624,0.32,10.86-0.707,14.407c2.793-0.348,8.329-2.206,10.364-3.924c1.547-8.013,3.868-20.028-4.005-32.688C329.103,252.693,320.516,257.13,320.516,257.13z"></path><linearGradient id="hair3XMLID_1229_" gradientUnits="userSpaceOnUse" x1="328.1836" y1="407" x2="328.1836" y2="91.9992"><stop offset="0" style="stop-color:#FCFCE4"></stop><stop offset="0.5" style="stop-color:#A0C8DD"></stop><stop offset="1" style="stop-color:#5D6EC5"></stop></linearGradient><path style="fill:url(#hair3XMLID_1229_);stroke:#1E1E1E;stroke-linecap:round;stroke-linejoin:round;" d="M319.9,246.299c0,0-1.686,11.943,0.95,12.416c2.636,0.472,13.453-1.672,14.566-2.833c1.116-1.162,2.439-13.624,0.841-14.817C334.657,239.872,319.9,246.299,319.9,246.299z"></path><linearGradient id="hair3XMLID_1230_" gradientUnits="userSpaceOnUse" x1="322.459" y1="407" x2="322.459" y2="91.9999"><stop offset="0" style="stop-color:#FCFCE4"></stop><stop offset="0.5" style="stop-color:#A0C8DD"></stop><stop offset="1" style="stop-color:#5D6EC5"></stop></linearGradient><path style="fill:url(#hair3XMLID_1230_);stroke:#1E1E1E;stroke-linecap:round;stroke-linejoin:round;" d="M321.031,256.77c0,0-8.041,23.821-15.558,25.876c9.402-4.587,15.703-11.856,16.88-14.591c-2.567,8.871-5.666,14.373-10.352,19.939c6.789,3.116,14.052,0.603,14.052,0.603s1.242-6.946,2.172-12.829c0.301,1.625,0.32,10.858-0.706,14.405c2.791-0.345,8.329-2.205,10.361-3.923c1.55-8.012,3.872-20.028-4.001-32.687C329.62,252.333,321.031,256.77,321.031,256.77z"></path><g><linearGradient id="hair3XMLID_1231_" gradientUnits="userSpaceOnUse" x1="328.7012" y1="407" x2="328.7012" y2="91.9992"><stop offset="0" style="stop-color:#FCFCE4"></stop><stop offset="0.5" style="stop-color:#A0C8DD"></stop><stop offset="1" style="stop-color:#5D6EC5"></stop></linearGradient><path style="fill:url(#hair3XMLID_1231_);stroke:#1E1E1E;stroke-linecap:round;stroke-linejoin:round;" d="M320.415,245.938c0,0-1.684,11.944,0.952,12.417c2.639,0.472,13.452-1.674,14.567-2.834c1.114-1.161,2.44-13.623,0.84-14.816C335.175,239.511,320.415,245.938,320.415,245.938z"></path><linearGradient id="hair3XMLID_1232_" gradientUnits="userSpaceOnUse" x1="329.1953" y1="406.999" x2="329.1953" y2="91.9995"><stop offset="0" style="stop-color:#FCFCE4"></stop><stop offset="0.5" style="stop-color:#A0C8DD"></stop><stop offset="1" style="stop-color:#5D6EC5"></stop></linearGradient><path style="fill:url(#hair3XMLID_1232_);stroke:#1E1E1E;stroke-linecap:round;stroke-linejoin:round;" d="M321.367,258.354c0,0,12.923-6.303,15.657-13.977"></path></g><linearGradient id="hair3XMLID_1233_" gradientUnits="userSpaceOnUse" x1="338.3535" y1="407" x2="338.3535" y2="92.0001"><stop offset="0" style="stop-color:#FCFCE4"></stop><stop offset="0.5" style="stop-color:#A0C8DD"></stop><stop offset="1" style="stop-color:#5D6EC5"></stop></linearGradient><path style="fill:url(#hair3XMLID_1233_);stroke:#1E1E1E;stroke-linecap:round;stroke-linejoin:round;" d="M336.635,171c0,0,9.022,8.708,9.79,12.02c0.769,3.313-11.393,25.625-16.179,27.035"></path><linearGradient id="hair3XMLID_1234_" gradientUnits="userSpaceOnUse" x1="323.9824" y1="407" x2="323.9824" y2="91.9999"><stop offset="0" style="stop-color:#FCFCE4"></stop><stop offset="0.5" style="stop-color:#A0C8DD"></stop><stop offset="1" style="stop-color:#5D6EC5"></stop></linearGradient><path style="fill:url(#hair3XMLID_1234_);stroke:#1E1E1E;stroke-linecap:round;stroke-linejoin:round;" d="M333.032,191.959c0,0,8.126-22.581,7.232-27.73c-3.54-10.612-18.257-19.597-18.257-19.597s-6.391,0.424-9.718,2.341c-6.8,10.121-9.816,16.836-10.75,27.101c1.13,3.831,5.819,10.566,12.268,17.617c-3.176,7.595-4.683,10.953-3.603,12.507c0,0,3.23,6.021,5.49,7.333c-1.148,3.876-2.688,9.949-2.688,9.949s4.609,7.175,6.412,9.766c-0.945,5.274,0.306,17.289,0.306,17.289c7.502-1.377,19.42-9.674,21.165-14.351c1.592-4.267-0.191-13.91-0.506-16.185c2-3,5.848-10.246,6-12c0.426-4.913-2.592-14.607-2.592-14.607"></path><linearGradient id="hair3XMLID_1235_" gradientUnits="userSpaceOnUse" x1="331.8711" y1="407" x2="331.8711" y2="92.0001"><stop offset="0" style="stop-color:#FCFCE4"></stop><stop offset="0.5" style="stop-color:#A0C8DD"></stop><stop offset="1" style="stop-color:#5D6EC5"></stop></linearGradient><path style="fill:url(#hair3XMLID_1235_);stroke:#1E1E1E;stroke-linecap:round;stroke-linejoin:round;" d="M324.497,187.709c0,0,5.614,9.169,14.749,6.27"></path></g></g><linearGradient id="hair3XMLID_1236_" gradientUnits="userSpaceOnUse" x1="338.3848" y1="407" x2="338.3848" y2="92"><stop offset="0" style="stop-color:#FCFCE4"></stop><stop offset="0.5" style="stop-color:#A0C8DD"></stop><stop offset="1" style="stop-color:#5D6EC5"></stop></linearGradient><path style="fill:url(#hair3XMLID_1236_);stroke:#1E1E1E;stroke-linecap:round;stroke-linejoin:round;" d="M343.885,190.75c0,0-4,12.5-11,20"></path><linearGradient id="hair3XMLID_1237_" gradientUnits="userSpaceOnUse" x1="335.8848" y1="407" x2="335.8848" y2="91.9998"><stop offset="0" style="stop-color:#FCFCE4"></stop><stop offset="0.5" style="stop-color:#A0C8DD"></stop><stop offset="1" style="stop-color:#5D6EC5"></stop></linearGradient><path style="fill:url(#hair3XMLID_1237_);stroke:#1E1E1E;stroke-linecap:round;stroke-linejoin:round;" d="M340.635,217.5c0,0-3.75,6.75-9.5,12.75"></path></g></g></g></svg>