<svg xmlns="http://www.w3.org/2000/svg" width="500" height="500" version="1.1"><g id="x109"><g><g><g><g><linearGradient id="hair3XMLID_1238_" gradientUnits="userSpaceOnUse" x1="209.7144" y1="407" x2="209.7143" y2="92.0002"><stop offset="0" style="stop-color:#FCFCE4"></stop><stop offset="0.5" style="stop-color:#A0C8DD"></stop><stop offset="1" style="stop-color:#5D6EC5"></stop></linearGradient><path style="fill:url(#hair3XMLID_1238_);stroke:#1E1E1E;stroke-linecap:round;stroke-linejoin:round;" d="M232.551,101.076c-0.809-0.662-22.577-4.559-35.734-1.193c-8.368,2.089-13.512,18.779-12.065,21.837c1.073,3.895,6.074,9.344,6.074,9.344s-1.236,3.667-0.484,4.907c0.751,1.241,10.636,10.377,14.733,10.198c4.07,0.111,29.846-21.832,29.846-21.832L232.551,101.076z"></path><linearGradient id="hair3XMLID_1239_" gradientUnits="userSpaceOnUse" x1="196.4365" y1="407" x2="196.4365" y2="92.0001"><stop offset="0" style="stop-color:#FCFCE4"></stop><stop offset="0.5" style="stop-color:#A0C8DD"></stop><stop offset="1" style="stop-color:#5D6EC5"></stop></linearGradient><path style="fill:url(#hair3XMLID_1239_);stroke:#1E1E1E;stroke-linecap:round;stroke-linejoin:round;" d="M189.264,129.16c0,0,4.709,2.504,7.595,2.789c2.886,0.285,6.75-3.415,6.75-3.415"></path><linearGradient id="hair3XMLID_1240_" gradientUnits="userSpaceOnUse" x1="206.3677" y1="407" x2="206.3677" y2="91.9996"><stop offset="0" style="stop-color:#FCFCE4"></stop><stop offset="0.5" style="stop-color:#A0C8DD"></stop><stop offset="1" style="stop-color:#5D6EC5"></stop></linearGradient><path style="fill:url(#hair3XMLID_1240_);stroke:#1E1E1E;stroke-linecap:round;stroke-linejoin:round;" d="M191.262,111.868c0,0-2.504,4.708-0.309,6.09c2.196,1.383,17.829-6.402,31.731-14.358"></path></g><g><linearGradient id="hair3XMLID_1241_" gradientUnits="userSpaceOnUse" x1="252.0156" y1="407" x2="252.0156" y2="92"><stop offset="0" style="stop-color:#FCFCE4"></stop><stop offset="0.5" style="stop-color:#A0C8DD"></stop><stop offset="1" style="stop-color:#5D6EC5"></stop></linearGradient><path style="fill:url(#hair3XMLID_1241_);stroke:#1E1E1E;stroke-linecap:round;stroke-linejoin:round;" d="M230.098,122.987c0,0-9.335-8.792,0.579-20.639c0.343-4.75,4.366-8.212,9.739-10.124c5.078-4.153,9.725-3.987,13.28-1.583c3.482,0.31,6.841,1.189,9.643,2.688c1.562,1.902,2.545,3.748,2.545,3.748s7.623,2.501,10.455,6.279c2.834,3.777,0.983,22.541,0.983,22.541S234.033,130.371,230.098,122.987z"></path><linearGradient id="hair3XMLID_1242_" gradientUnits="userSpaceOnUse" x1="238.6772" y1="407" x2="238.6772" y2="92"><stop offset="0" style="stop-color:#FCFCE4"></stop><stop offset="0.5" style="stop-color:#A0C8DD"></stop><stop offset="1" style="stop-color:#5D6EC5"></stop></linearGradient><path style="fill:url(#hair3XMLID_1242_);stroke:#1E1E1E;stroke-linecap:round;stroke-linejoin:round;" d="M241.314,92.031c0,0-6.225,6.964-5.148,13.774"></path><linearGradient id="hair3XMLID_1243_" gradientUnits="userSpaceOnUse" x1="251.4463" y1="407" x2="251.4463" y2="91.9995"><stop offset="0" style="stop-color:#FCFCE4"></stop><stop offset="0.5" style="stop-color:#A0C8DD"></stop><stop offset="1" style="stop-color:#5D6EC5"></stop></linearGradient><path style="fill:url(#hair3XMLID_1243_);stroke:#1E1E1E;stroke-linecap:round;stroke-linejoin:round;" d="M253.954,90.946c0,0-5.273,6.184-5.005,12.331"></path></g><g><linearGradient id="hair3XMLID_1244_" gradientUnits="userSpaceOnUse" x1="289.0918" y1="407" x2="289.0918" y2="91.9998"><stop offset="0" style="stop-color:#FCFCE4"></stop><stop offset="0.5" style="stop-color:#A0C8DD"></stop><stop offset="1" style="stop-color:#5D6EC5"></stop></linearGradient><path style="fill:url(#hair3XMLID_1244_);stroke:#1E1E1E;stroke-linecap:round;stroke-linejoin:round;" d="M267.038,97.192c0,0-4.408,6.269-4.172,9.791c0.234,3.521,2.73,13.677,4.462,13.848c1.733,0.171,38.434,12.246,38.52,11.38c0.085-0.867,8.531-9.652,9.478-13.349c0.022-6.119-3.015-10.79-3.015-10.79c1.988-2.427,2.063-9.52,1.66-10.913c-1.307-4.5-6.274-7.322-10.722-9.51C298.8,85.459,276.061,88.463,267.038,97.192z"></path><linearGradient id="hair3XMLID_1245_" gradientUnits="userSpaceOnUse" x1="309.0918" y1="407" x2="309.0918" y2="92.0001"><stop offset="0" style="stop-color:#FCFCE4"></stop><stop offset="0.5" style="stop-color:#A0C8DD"></stop><stop offset="1" style="stop-color:#5D6EC5"></stop></linearGradient><path style="fill:url(#hair3XMLID_1245_);stroke:#1E1E1E;stroke-linecap:round;stroke-linejoin:round;" d="M313.145,105.531c0,0-3.401,4.911-8.104,5.321"></path><linearGradient id="hair3XMLID_1246_" gradientUnits="userSpaceOnUse" x1="288.7363" y1="407" x2="288.7363" y2="92"><stop offset="0" style="stop-color:#FCFCE4"></stop><stop offset="0.5" style="stop-color:#A0C8DD"></stop><stop offset="1" style="stop-color:#5D6EC5"></stop></linearGradient><path style="fill:url(#hair3XMLID_1246_);stroke:#1E1E1E;stroke-linecap:round;stroke-linejoin:round;" d="M270.302,99.554c0,0,23.415,4.7,30.193,1.23c4.297-2.199,7.937-0.674,6.259-4.337c-1.681-3.663-5.03-5.16-5.03-5.16"></path></g></g><linearGradient id="hair3XMLID_1247_" gradientUnits="userSpaceOnUse" x1="253.7344" y1="407" x2="253.7344" y2="91.9998"><stop offset="0" style="stop-color:#FCFCE4"></stop><stop offset="0.5" style="stop-color:#A0C8DD"></stop><stop offset="1" style="stop-color:#5D6EC5"></stop></linearGradient><path style="fill:url(#hair3XMLID_1247_);stroke:#1E1E1E;stroke-linecap:round;stroke-linejoin:round;" d="M298.783,145.698c0,0-1.336-21.896-14.837-30.806c-42.991-10.363-64.391,2.683-69.721,9.444c-3.513,6.065-5.539,16.748-5.539,16.748s11.76,11.083,41.118,12.607C283.058,155.417,298.783,145.698,298.783,145.698z"></path></g></g></g></svg>