<svg xmlns="http://www.w3.org/2000/svg" width="500" height="500" version="1.1"><g id="x110"><g><g><g><linearGradient id="hair3XMLID_1248_" gradientUnits="userSpaceOnUse" x1="333.9668" y1="407" x2="333.9668" y2="91.9998"><stop offset="0" style="stop-color:#FCFCE4"></stop><stop offset="0.5" style="stop-color:#A0C8DD"></stop><stop offset="1" style="stop-color:#5D6EC5"></stop></linearGradient><path style="fill:url(#hair3XMLID_1248_);stroke:#1E1E1E;stroke-linecap:round;stroke-linejoin:round;" d="M324.674,162.814c0,0-8.604,39.492,19.809,67.374c-7.068-16.597-17.865-38.661-11.145-59.39"></path><linearGradient id="hair3XMLID_1249_" gradientUnits="userSpaceOnUse" x1="298.8496" y1="407" x2="298.8496" y2="91.9996"><stop offset="0" style="stop-color:#FCFCE4"></stop><stop offset="0.5" style="stop-color:#A0C8DD"></stop><stop offset="1" style="stop-color:#5D6EC5"></stop></linearGradient><path style="fill:url(#hair3XMLID_1249_);stroke:#1E1E1E;stroke-linecap:round;stroke-linejoin:round;" d="M309.229,116.286c0,0-15.729-2.948-20.758,9.718c5.227-3.698,12-6.452,16.984-5.627"></path><linearGradient id="hair3XMLID_1250_" gradientUnits="userSpaceOnUse" x1="334.9551" y1="407" x2="334.9551" y2="92.0002"><stop offset="0" style="stop-color:#FCFCE4"></stop><stop offset="0.5" style="stop-color:#A0C8DD"></stop><stop offset="1" style="stop-color:#5D6EC5"></stop></linearGradient><path style="fill:url(#hair3XMLID_1250_);stroke:#1E1E1E;stroke-linecap:round;stroke-linejoin:round;" d="M298.777,123.682c0,0,2.465-7.592,16.352-9.205c8.834-1.026,15.535,3.812,16.309,6.251c3.34,1.297,11.568,6.803,14.281,22.22c2.715,15.417,9.494,40.196,25.414,38.345c-7.355,1.417-8.371,1.535-17.322-2.2c0,0,19.018,9.869,13.025,34.729c0.965-12.193-11.719-25.328-11.719-25.328s18.201,20.921-0.664,41.378c1.781-23.247-11.623-36.578-17.676-43.46c-5.18-7.826-20.186-26.31-22.752-31.069C311.461,150.584,298.777,123.682,298.777,123.682z"></path><linearGradient id="hair3XMLID_1251_" gradientUnits="userSpaceOnUse" x1="324.7373" y1="407" x2="324.7373" y2="92"><stop offset="0" style="stop-color:#FCFCE4"></stop><stop offset="0.5" style="stop-color:#A0C8DD"></stop><stop offset="1" style="stop-color:#5D6EC5"></stop></linearGradient><path style="fill:url(#hair3XMLID_1251_);stroke:#1E1E1E;stroke-linecap:round;stroke-linejoin:round;" d="M331.197,121.317c-0.824-0.747-7.02-4.522-12.92-2.711"></path><linearGradient id="hair3XMLID_1252_" gradientUnits="userSpaceOnUse" x1="341.7109" y1="407" x2="341.7109" y2="92.0001"><stop offset="0" style="stop-color:#FCFCE4"></stop><stop offset="0.5" style="stop-color:#A0C8DD"></stop><stop offset="1" style="stop-color:#5D6EC5"></stop></linearGradient><path style="fill:url(#hair3XMLID_1252_);stroke:#1E1E1E;stroke-linecap:round;stroke-linejoin:round;" d="M330.873,176.422c0.482,0.787,24.541,39.289,6.695,67.494c15.141-18.056,20.85-22.937,7.439-52.001"></path></g></g></g></g></svg>