<svg xmlns="http://www.w3.org/2000/svg" width="500" height="500" version="1.1"><g id="x114"><g><g><linearGradient id="hair3XMLID_1263_" gradientUnits="userSpaceOnUse" x1="367.7344" y1="407" x2="367.7344" y2="91.9999"><stop offset="0" style="stop-color:#FCFCE4"></stop><stop offset="0.5" style="stop-color:#A0C8DD"></stop><stop offset="1" style="stop-color:#5D6EC5"></stop></linearGradient><path style="fill:url(#hair3XMLID_1263_);stroke:#1E1E1E;stroke-linecap:round;stroke-linejoin:round;" d="M371.093,325.485c0,0,4.631,28.705-12.962,34.26C372.481,360.669,385.444,349.559,371.093,325.485z"></path><linearGradient id="hair3XMLID_1264_" gradientUnits="userSpaceOnUse" x1="335.8789" y1="407" x2="335.8789" y2="92.0003"><stop offset="0" style="stop-color:#FCFCE4"></stop><stop offset="0.5" style="stop-color:#A0C8DD"></stop><stop offset="1" style="stop-color:#5D6EC5"></stop></linearGradient><path style="fill:url(#hair3XMLID_1264_);stroke:#1E1E1E;stroke-linecap:round;stroke-linejoin:round;" d="M300.726,228.729c-5.555,44.907,35.646,72.22,54.165,81.017c18.519,8.796,20.368,28.239,20.368,28.239s3.042-6.708,5.63-18.032c1.548-0.831,2.236-2.95,2.591-4.825c0.315-1.677,0.346-2.951-0.594-5.764c1.529-10.208,2.268-22.636,0.787-36.425c1.02-0.866,1.053-3.032,0.847-4.511c-0.344-2.456-0.808-3.453-2.777-6.599c-6.343-29.892-24.279-53.54-26.852-54.397c0.984-1.504,0.637-3.241-1.236-5.852c-5.527-23.05-24.689-42.757-24.689-42.757s-31.453-11.111-39.788,7.407C280.845,184.748,300.726,228.729,300.726,228.729z"></path><linearGradient id="hair3XMLID_1265_" gradientUnits="userSpaceOnUse" x1="339.8438" y1="407" x2="339.8438" y2="92.0002"><stop offset="0" style="stop-color:#FCFCE4"></stop><stop offset="0.5" style="stop-color:#A0C8DD"></stop><stop offset="1" style="stop-color:#5D6EC5"></stop></linearGradient><path style="fill:url(#hair3XMLID_1265_);stroke:#1E1E1E;stroke-linecap:round;stroke-linejoin:round;" d="M360.445,213.451c0,0-4.165-12.037-41.202-10.185"></path><linearGradient id="hair3XMLID_1266_" gradientUnits="userSpaceOnUse" x1="334.2891" y1="407" x2="334.2891" y2="92.0005"><stop offset="0" style="stop-color:#FCFCE4"></stop><stop offset="0.5" style="stop-color:#A0C8DD"></stop><stop offset="1" style="stop-color:#5D6EC5"></stop></linearGradient><path style="fill:url(#hair3XMLID_1266_);stroke:#1E1E1E;stroke-linecap:round;stroke-linejoin:round;" d="M354.891,204.539c0,0-4.165-12.037-41.202-10.185"></path><linearGradient id="hair3XMLID_1267_" gradientUnits="userSpaceOnUse" x1="348.4102" y1="407" x2="348.4102" y2="92.0007"><stop offset="0" style="stop-color:#FCFCE4"></stop><stop offset="0.5" style="stop-color:#A0C8DD"></stop><stop offset="1" style="stop-color:#5D6EC5"></stop></linearGradient><path style="fill:url(#hair3XMLID_1267_);stroke:#1E1E1E;stroke-linecap:round;stroke-linejoin:round;" d="M382.205,272.71c0,0-10.187-22.223-67.591-23.149"></path><linearGradient id="hair3XMLID_1268_" gradientUnits="userSpaceOnUse" x1="351.8818" y1="407" x2="351.8818" y2="92"><stop offset="0" style="stop-color:#FCFCE4"></stop><stop offset="0.5" style="stop-color:#A0C8DD"></stop><stop offset="1" style="stop-color:#5D6EC5"></stop></linearGradient><path style="fill:url(#hair3XMLID_1268_);stroke:#1E1E1E;stroke-linecap:round;stroke-linejoin:round;" d="M381.742,262.987c0,0-13.427-19.444-59.721-13.889"></path><linearGradient id="hair3XMLID_1269_" gradientUnits="userSpaceOnUse" x1="365.7695" y1="407" x2="365.7695" y2="92.0006"><stop offset="0" style="stop-color:#FCFCE4"></stop><stop offset="0.5" style="stop-color:#A0C8DD"></stop><stop offset="1" style="stop-color:#5D6EC5"></stop></linearGradient><path style="fill:url(#hair3XMLID_1269_);stroke:#1E1E1E;stroke-linecap:round;stroke-linejoin:round;" d="M381.047,321.782c0,0-5.555-13.426-30.555-14.354"></path><linearGradient id="hair3XMLID_1270_" gradientUnits="userSpaceOnUse" x1="366.2334" y1="407" x2="366.2334" y2="92.0002"><stop offset="0" style="stop-color:#FCFCE4"></stop><stop offset="0.5" style="stop-color:#A0C8DD"></stop><stop offset="1" style="stop-color:#5D6EC5"></stop></linearGradient><path style="fill:url(#hair3XMLID_1270_);stroke:#1E1E1E;stroke-linecap:round;stroke-linejoin:round;" d="M382.669,309.745c0,0-7.87-9.258-32.871-4.165"></path></g></g></g></svg>