<svg xmlns="http://www.w3.org/2000/svg" width="500" height="500" version="1.1"><g id="x116"><g><linearGradient id="hair3XMLID_1272_" gradientUnits="userSpaceOnUse" x1="344.7422" y1="407" x2="344.7422" y2="92"><stop offset="0" style="stop-color:#FCFCE4"></stop><stop offset="0.5" style="stop-color:#A0C8DD"></stop><stop offset="1" style="stop-color:#5D6EC5"></stop></linearGradient><path style="fill:url(#hair3XMLID_1272_);stroke:#1E1E1E;stroke-linecap:round;stroke-linejoin:round;" d="M323.509,153.815c0,0,14.504-4.061,24.364,4.642c9.864,8.702,12.184,43.511,12.184,43.511s26.688,37.71,13.344,63.817c0-9.283-9.862-22.627-9.862-22.627s11.022,23.786-6.961,33.649c-1.16-0.58-1.74-5.223-1.74-5.223s-1.161,3.481-9.863,8.704c-9.281,1.739-13.924-22.047-13.924-20.306c-1.16,8.122-0.58,15.083-0.58,15.083s-12.764-4.641-17.404-29.587C309.005,220.532,323.509,153.815,323.509,153.815z"></path></g></g></svg>