<svg xmlns="http://www.w3.org/2000/svg" width="500" height="500" version="1.1"><g id="x123"><g><g><g><linearGradient id="hair3XMLID_1291_" gradientUnits="userSpaceOnUse" x1="325.0332" y1="407" x2="325.0332" y2="92.0001"><stop offset="0" style="stop-color:#FCFCE4"></stop><stop offset="0.5" style="stop-color:#A0C8DD"></stop><stop offset="1" style="stop-color:#5D6EC5"></stop></linearGradient><path style="fill:url(#hair3XMLID_1291_);stroke:#1E1E1E;stroke-linecap:round;stroke-linejoin:round;" d="M326.775,199.21c0,0,2.873,45.755-11.898,49.738c8.58-0.319,21.455-12.651,20.23-35.702"></path><linearGradient id="hair3XMLID_1292_" gradientUnits="userSpaceOnUse" x1="333.25" y1="407" x2="333.25" y2="92.0001"><stop offset="0" style="stop-color:#FCFCE4"></stop><stop offset="0.5" style="stop-color:#A0C8DD"></stop><stop offset="1" style="stop-color:#5D6EC5"></stop></linearGradient><path style="fill:url(#hair3XMLID_1292_);stroke:#1E1E1E;stroke-linecap:round;stroke-linejoin:round;" d="M368.746,215.008c0.217-18.679-9.225-41.669-14.537-49.625c-5.361-30.064-18.58-42.665-29.387-44.871c-19.705-4.023-23.922,13.964-23.922,13.964s-10.998,32.728,8.105,43.938c19.604,10.095,29.072,67.77,11.354,85.844c9.547-3.231,16.875-9.397,22.371-17.26C351.793,243.542,368.52,234.527,368.746,215.008z M355.578,183.007c1.783,6.255,8.781,25.771,5.324,36.669c-2.26,7.116-8.146,13.617-12.771,17.878C356.832,218.892,358.174,201.292,355.578,183.007z"></path></g></g></g></g></svg>