<svg xmlns="http://www.w3.org/2000/svg" width="500" height="500" version="1.1"><g id="x124"><g><g><g><linearGradient id="hair3XMLID_1293_" gradientUnits="userSpaceOnUse" x1="326.6758" y1="407" x2="326.6758" y2="91.9998"><stop offset="0" style="stop-color:#FCFCE4"></stop><stop offset="0.5" style="stop-color:#A0C8DD"></stop><stop offset="1" style="stop-color:#5D6EC5"></stop></linearGradient><path style="fill:url(#hair3XMLID_1293_);stroke:#1E1E1E;stroke-linecap:round;stroke-linejoin:round;" d="M310.413,298.852c16.631,15.472,21.271,23.206,25.526,30.168c4.254,6.962,0.389,15.857-8.896,12.763c-6.962-2.32-7.734,10.057-2.32,13.924c-1.159-3.867,1.161-10.057,5.026-8.896c0,0,15.369,5.006,19.34-13.149c2.707-12.378,0.774-22.819,0.774-22.819s5.415-3.095,6.188-12.763c0.772-9.669-8.51-39.064-51.438-61.883C294.17,251.666,293.781,283.382,310.413,298.852z"></path><linearGradient id="hair3XMLID_1294_" gradientUnits="userSpaceOnUse" x1="345.9951" y1="407" x2="345.9951" y2="92.0009"><stop offset="0" style="stop-color:#FCFCE4"></stop><stop offset="0.5" style="stop-color:#A0C8DD"></stop><stop offset="1" style="stop-color:#5D6EC5"></stop></linearGradient><path style="fill:url(#hair3XMLID_1294_);stroke:#1E1E1E;stroke-linecap:round;stroke-linejoin:round;" d="M350.249,316.256c0,0,0-12.375-8.508-21.658"></path></g></g></g></g></svg>