<svg xmlns="http://www.w3.org/2000/svg" width="500" height="500" version="1.1"><g id="x125"><g><linearGradient id="hair3XMLID_1295_" gradientUnits="userSpaceOnUse" x1="330.5469" y1="407" x2="330.5469" y2="91.9997"><stop offset="0" style="stop-color:#FCFCE4"></stop><stop offset="0.5" style="stop-color:#A0C8DD"></stop><stop offset="1" style="stop-color:#5D6EC5"></stop></linearGradient><path style="fill:url(#hair3XMLID_1295_);stroke:#1E1E1E;stroke-linecap:round;stroke-linejoin:round;" d="M312.532,123.317c0,0,25.891,30.66,29.298,51.781c3.405,21.121-10.222,47.693-10.222,47.693l-0.682,8.175c0,0,25.211-36.109,20.443-59.274c-4.772-23.165-42.245-55.188-42.245-55.188"></path><linearGradient id="hair3XMLID_1296_" gradientUnits="userSpaceOnUse" x1="213.8501" y1="407" x2="213.8501" y2="92.0001"><stop offset="0" style="stop-color:#FCFCE4"></stop><stop offset="0.5" style="stop-color:#A0C8DD"></stop><stop offset="1" style="stop-color:#5D6EC5"></stop></linearGradient><path style="fill:url(#hair3XMLID_1296_);stroke:#1E1E1E;stroke-linecap:round;stroke-linejoin:round;" d="M268.929,80.395c-11.793-1.105-29.979,12.264-29.979,12.264s-17.712,20.894-16.351,40.879c1.362,19.985,20.44,51.78,14.989,58.593c-3.724,4.654-51.99,38.127-90.388,61.773c-86.301,53.144-49.056,99.926-49.056,99.926s-5.905-57.23,61.773-73.58c9.149-2.211,16.585-5.011,22.674-8.176c3.792-1.972,25.474,9.537,25.474,9.537c-63.591,20.439-68.587,77.67-51.781,101.289c6.815-84.03,106.741-108.557,114.462-107.193c6.897-2.253,15.938-8.392,25.125-16.182c22.112-27.879,18.425-59.572,20.751-66.941c0.225-0.714,9.538,26.799,9.538,26.799c0.926,3.397,0.064,7.32-2.293,11.678c8.123-9.928,13.648-18.848,13.648-23.487C338.877,133.992,297.999,83.119,268.929,80.395z"></path><linearGradient id="hair3XMLID_1297_" gradientUnits="userSpaceOnUse" x1="304.1396" y1="407" x2="304.1396" y2="91.9995"><stop offset="0" style="stop-color:#FCFCE4"></stop><stop offset="0.5" style="stop-color:#A0C8DD"></stop><stop offset="1" style="stop-color:#5D6EC5"></stop></linearGradient><path style="fill:url(#hair3XMLID_1297_);stroke:#1E1E1E;stroke-linecap:round;stroke-linejoin:round;" d="M324.798,185.771c0,0,8.175,29.069,7.268,45.421c-1.726,31.051-54.053,45.42-55.869,46.33c-1.815,0.908,43.604-31.342,42.242-53.143c-1.362-21.802-13.626-72.221-20.894-79.941"></path><linearGradient id="hair3XMLID_1298_" gradientUnits="userSpaceOnUse" x1="174.2271" y1="407" x2="174.227" y2="91.9995"><stop offset="0" style="stop-color:#FCFCE4"></stop><stop offset="0.5" style="stop-color:#A0C8DD"></stop><stop offset="1" style="stop-color:#5D6EC5"></stop></linearGradient><path style="fill:url(#hair3XMLID_1298_);stroke:#1E1E1E;stroke-linecap:round;stroke-linejoin:round;" d="M166.049,263.67c-81.942,64.065-37.926,111.056-37.926,111.056s3.86-59.276,63.59-85.847c11.592-5.156,29.381-15.64,40.425-20.439"></path></g></g></svg>