<svg xmlns="http://www.w3.org/2000/svg" width="500" height="500" version="1.1"><g id="x130"><g><g><g><linearGradient id="hair3XMLID_1330_" gradientUnits="userSpaceOnUse" x1="324.2246" y1="407" x2="324.2246" y2="91.9999"><stop offset="0" style="stop-color:#FCFCE4"></stop><stop offset="0.5" style="stop-color:#A0C8DD"></stop><stop offset="1" style="stop-color:#5D6EC5"></stop></linearGradient><path style="fill:url(#hair3XMLID_1330_);stroke:#1E1E1E;stroke-linecap:round;stroke-linejoin:round;" d="M292.444,122.533c0,0,21.088-14.357,31.402-11.718c10.313,2.638,32.86,51.09,32.142,76.036c-0.719,12.952-13.193,19.428-13.193,19.428l-18.47-8.875c0,0,2.4-30.942-9.114-51.09C303.697,126.166,292.444,122.533,292.444,122.533z"></path><linearGradient id="hair3XMLID_1331_" gradientUnits="userSpaceOnUse" x1="342.2539" y1="407" x2="342.2539" y2="91.9999"><stop offset="0" style="stop-color:#FCFCE4"></stop><stop offset="0.5" style="stop-color:#A0C8DD"></stop><stop offset="1" style="stop-color:#5D6EC5"></stop></linearGradient><path style="fill:url(#hair3XMLID_1331_);stroke:#1E1E1E;stroke-linecap:round;stroke-linejoin:round;" d="M345.434,170.3c1.198,3.039,8.716,23.827-8.968,31.197"></path><linearGradient id="hair3XMLID_1332_" gradientUnits="userSpaceOnUse" x1="328.2051" y1="407" x2="328.2051" y2="91.9999"><stop offset="0" style="stop-color:#FCFCE4"></stop><stop offset="0.5" style="stop-color:#A0C8DD"></stop><stop offset="1" style="stop-color:#5D6EC5"></stop></linearGradient><path style="fill:url(#hair3XMLID_1332_);stroke:#1E1E1E;stroke-linecap:round;stroke-linejoin:round;" d="M327.444,145.115c0.719,0.48,9.115,33.82-2.158,48.932"></path></g><g><linearGradient id="hair3XMLID_1333_" gradientUnits="userSpaceOnUse" x1="344.8408" y1="407" x2="344.8408" y2="92.0006"><stop offset="0" style="stop-color:#FCFCE4"></stop><stop offset="0.5" style="stop-color:#A0C8DD"></stop><stop offset="1" style="stop-color:#5D6EC5"></stop></linearGradient><path style="fill:url(#hair3XMLID_1333_);stroke:#1E1E1E;stroke-linecap:round;stroke-linejoin:round;" d="M360.065,271.763c0,0-0.241,7.914-11.754,5.517c-7.675-6.236-18.71-21.348-18.71-21.348s4.798-2.399,2.4-8.636C334.88,243.938,360.784,259.289,360.065,271.763z"></path><linearGradient id="hair3XMLID_1334_" gradientUnits="userSpaceOnUse" x1="344.1211" y1="407" x2="344.1211" y2="91.9999"><stop offset="0" style="stop-color:#FCFCE4"></stop><stop offset="0.5" style="stop-color:#A0C8DD"></stop><stop offset="1" style="stop-color:#5D6EC5"></stop></linearGradient><path style="fill:url(#hair3XMLID_1334_);stroke:#1E1E1E;stroke-linecap:round;stroke-linejoin:round;" d="M360.065,271.763c0,0-0.241,7.914-11.754,5.517c-7.675-6.236-18.71-21.348-18.71-21.348s0.961-5.758-1.438-11.993C331.041,240.58,360.784,259.289,360.065,271.763z"></path><linearGradient id="hair3XMLID_1335_" gradientUnits="userSpaceOnUse" x1="338.7227" y1="407" x2="338.7227" y2="91.9998"><stop offset="0" style="stop-color:#FCFCE4"></stop><stop offset="0.5" style="stop-color:#A0C8DD"></stop><stop offset="1" style="stop-color:#5D6EC5"></stop></linearGradient><path style="fill:url(#hair3XMLID_1335_);stroke:#1E1E1E;stroke-linecap:round;stroke-linejoin:round;" d="M331.281,255.932c0,0,30.223,16.31,26.146,29.502c-4.078,13.193-20.39,2.639-20.39,2.639s17.271,3.357,12.953-7.195c-2.762-6.752-26.865-16.79-29.744-22.308c-2.878-5.516,5.039-14.631,11.515-13.671C328.883,252.094,331.281,255.932,331.281,255.932z"></path><linearGradient id="hair3XMLID_1336_" gradientUnits="userSpaceOnUse" x1="338.834" y1="407" x2="338.834" y2="91.9998"><stop offset="0" style="stop-color:#FCFCE4"></stop><stop offset="0.5" style="stop-color:#A0C8DD"></stop><stop offset="1" style="stop-color:#5D6EC5"></stop></linearGradient><path style="fill:url(#hair3XMLID_1336_);stroke:#1E1E1E;stroke-linecap:round;stroke-linejoin:round;" d="M356.707,239.381c0,0-11.513,3.838-21.827,3.118c-8.154-3.118-15.352-17.75-13.673-27.104C330.322,215.875,356.707,225.469,356.707,239.381z"></path><path style="fill:url(#hair3XMLID_1336_);stroke:#1E1E1E;stroke-linecap:round;stroke-linejoin:round;" d="M356.707,239.381c0,0-11.513,3.838-21.827,3.118c-8.154-3.118-15.352-17.75-13.673-27.104C330.322,215.875,356.707,225.469,356.707,239.381z"></path><linearGradient id="hair3XMLID_1338_" gradientUnits="userSpaceOnUse" x1="340.9219" y1="407" x2="340.9219" y2="92.0001"><stop offset="0" style="stop-color:#FCFCE4"></stop><stop offset="0.5" style="stop-color:#A0C8DD"></stop><stop offset="1" style="stop-color:#5D6EC5"></stop></linearGradient><path style="fill:url(#hair3XMLID_1338_);stroke:#1E1E1E;stroke-linecap:round;stroke-linejoin:round;" d="M325.286,194.047c0,0,4.077,5.997,13.191,9.114c9.115,3.118,17.75,4.797,21.588,10.075c3.358,7.675,6.475,23.027-4.317,26.385c-1.68-3.599-3.598-7.676-8.635-10.075c-5.037-2.398-22.067-8.635-25.427-12.712C318.33,212.756,315.689,204.121,325.286,194.047z"></path><linearGradient id="hair3XMLID_1339_" gradientUnits="userSpaceOnUse" x1="347.7129" y1="407" x2="347.7129" y2="92.0009"><stop offset="0" style="stop-color:#FCFCE4"></stop><stop offset="0.5" style="stop-color:#A0C8DD"></stop><stop offset="1" style="stop-color:#5D6EC5"></stop></linearGradient><path style="fill:url(#hair3XMLID_1339_);stroke:#1E1E1E;stroke-linecap:round;stroke-linejoin:round;" d="M362.704,230.985c0,0,0-6.956-8.396-11.034c-8.396-4.077-18.71-7.196-21.588-10.554"></path><g><linearGradient id="hair3XMLID_1340_" gradientUnits="userSpaceOnUse" x1="338.1895" y1="407" x2="338.1895" y2="92"><stop offset="0" style="stop-color:#FCFCE4"></stop><stop offset="0.5" style="stop-color:#A0C8DD"></stop><stop offset="1" style="stop-color:#5D6EC5"></stop></linearGradient><path style="fill:url(#hair3XMLID_1340_);stroke:#1E1E1E;stroke-linecap:round;stroke-linejoin:round;" d="M321.687,216.834c0,0-7.604,6.049-6.476,15.831c1.439,12.473,38.857,27.104,44.854,40.537c1.679-4.798,1.92-11.755-1.199-15.832c0,0,2.879-6.716-0.24-13.672c-3.119-6.957-30.463-11.273-34.779-20.388C320.924,217.141,321.687,216.834,321.687,216.834z"></path><linearGradient id="hair3XMLID_1341_" gradientUnits="userSpaceOnUse" x1="353.3486" y1="407" x2="353.3486" y2="92.0002"><stop offset="0" style="stop-color:#FCFCE4"></stop><stop offset="0.5" style="stop-color:#A0C8DD"></stop><stop offset="1" style="stop-color:#5D6EC5"></stop></linearGradient><path style="fill:url(#hair3XMLID_1341_);stroke:#1E1E1E;stroke-linecap:round;stroke-linejoin:round;" d="M358.626,257.37c0,0-0.721-5.996-10.555-8.874"></path></g></g></g></g></g></svg>