<svg xmlns="http://www.w3.org/2000/svg" width="500" height="500" version="1.1"><g id="x134"><g><g><g><g><linearGradient id="hair3XMLID_1348_" gradientUnits="userSpaceOnUse" x1="358.8438" y1="407" x2="358.8438" y2="91.9992"><stop offset="0" style="stop-color:#FCFCE4"></stop><stop offset="0.5" style="stop-color:#A0C8DD"></stop><stop offset="1" style="stop-color:#5D6EC5"></stop></linearGradient><path style="fill:url(#hair3XMLID_1348_);stroke:#1E1E1E;stroke-linecap:round;stroke-linejoin:round;" d="M351.43,268.487c0,0,21.727-1.794,12.583,22.281C359.324,276.799,351.43,268.487,351.43,268.487z"></path><linearGradient id="hair3XMLID_1349_" gradientUnits="userSpaceOnUse" x1="346.6738" y1="407" x2="346.6738" y2="91.9989"><stop offset="0" style="stop-color:#FCFCE4"></stop><stop offset="0.5" style="stop-color:#A0C8DD"></stop><stop offset="1" style="stop-color:#5D6EC5"></stop></linearGradient><path style="fill:url(#hair3XMLID_1349_);stroke:#1E1E1E;stroke-linecap:round;stroke-linejoin:round;" d="M348.855,270.019c0,0-7.95,17.064,4.134,24.759C341.022,292.914,333.798,279.645,348.855,270.019z"></path></g><g><linearGradient id="hair3XMLID_1350_" gradientUnits="userSpaceOnUse" x1="357.1758" y1="407" x2="357.1758" y2="92.0001"><stop offset="0" style="stop-color:#FCFCE4"></stop><stop offset="0.5" style="stop-color:#A0C8DD"></stop><stop offset="1" style="stop-color:#5D6EC5"></stop></linearGradient><path style="fill:url(#hair3XMLID_1350_);stroke:#1E1E1E;stroke-linecap:round;stroke-linejoin:round;" d="M379.038,217.071c0,0,7.308,11.609,9.977,16.323c2.669,4.713-7.363,13.766-13.694,15.52c1.595,1.331,5.689,10.694,5.689,10.694s-1.801,10.725-33.378,9.932c-15.438,0.87-19.289-5.153-19.289-5.153s-6.604-9.077-1.536-26.705C328.042,233.38,379.038,217.071,379.038,217.071z"></path><linearGradient id="hair3XMLID_1351_" gradientUnits="userSpaceOnUse" x1="367.1211" y1="407" x2="367.1211" y2="92.0001"><stop offset="0" style="stop-color:#FCFCE4"></stop><stop offset="0.5" style="stop-color:#A0C8DD"></stop><stop offset="1" style="stop-color:#5D6EC5"></stop></linearGradient><path style="fill:url(#hair3XMLID_1351_);stroke:#1E1E1E;stroke-linecap:round;stroke-linejoin:round;" d="M377.459,247.777c0,0-11.502,5.232-20.676,5.592"></path></g><linearGradient id="hair3XMLID_1352_" gradientUnits="userSpaceOnUse" x1="348.001" y1="407" x2="348.001" y2="92.0009"><stop offset="0" style="stop-color:#FCFCE4"></stop><stop offset="0.5" style="stop-color:#A0C8DD"></stop><stop offset="1" style="stop-color:#5D6EC5"></stop></linearGradient><path style="fill:url(#hair3XMLID_1352_);stroke:#1E1E1E;stroke-linecap:round;stroke-linejoin:round;" d="M370.643,226.624c0,0-13.953,20.5-44.614,18.09c-2.299-3.862,2.063-7.798,2.063-7.798L370.643,226.624z"></path><linearGradient id="hair3XMLID_1353_" gradientUnits="userSpaceOnUse" x1="353.9453" y1="407" x2="353.9453" y2="91.9999"><stop offset="0" style="stop-color:#FCFCE4"></stop><stop offset="0.5" style="stop-color:#A0C8DD"></stop><stop offset="1" style="stop-color:#5D6EC5"></stop></linearGradient><path style="fill:url(#hair3XMLID_1353_);stroke:#1E1E1E;stroke-linecap:round;stroke-linejoin:round;" d="M367.926,182.385c0,0,8.018,13.711,15.86,23.282c-0.929,9.938-11.103,29.799-55.514,35.834c-8.911-20.845-0.761-33.738-0.761-33.738L367.926,182.385z"></path><g><linearGradient id="hair3XMLID_1354_" gradientUnits="userSpaceOnUse" x1="324.9199" y1="407" x2="324.9199" y2="91.9999"><stop offset="0" style="stop-color:#FCFCE4"></stop><stop offset="0.5" style="stop-color:#A0C8DD"></stop><stop offset="1" style="stop-color:#5D6EC5"></stop></linearGradient><path style="fill:url(#hair3XMLID_1354_);stroke:#1E1E1E;stroke-linecap:round;stroke-linejoin:round;" d="M275.234,126.538c0,0,30.645-23.897,47.137-20.968c7.782,1.382,30.365,29.991,31.277,44.599c6.69,5.351,19.62,20.957,20.958,32.996c0.042-0.829-15.357,30.392-63.182,30.011C302.345,179.426,275.234,126.538,275.234,126.538z"></path><linearGradient id="hair3XMLID_1355_" gradientUnits="userSpaceOnUse" x1="343.1445" y1="407" x2="343.1445" y2="92.0001"><stop offset="0" style="stop-color:#FCFCE4"></stop><stop offset="0.5" style="stop-color:#A0C8DD"></stop><stop offset="1" style="stop-color:#5D6EC5"></stop></linearGradient><path style="fill:url(#hair3XMLID_1355_);stroke:#1E1E1E;stroke-linecap:round;stroke-linejoin:round;" d="M353.204,152.398c0,0,1.273,32.623-20.135,44.417"></path></g></g></g></g></g></svg>