<svg xmlns="http://www.w3.org/2000/svg" width="500" height="500" version="1.1"><g id="x135"><g><g><g><linearGradient id="hair3XMLID_1356_" gradientUnits="userSpaceOnUse" x1="340.75" y1="407" x2="340.75" y2="92.0001"><stop offset="0" style="stop-color:#FCFCE4"></stop><stop offset="0.5" style="stop-color:#A0C8DD"></stop><stop offset="1" style="stop-color:#5D6EC5"></stop></linearGradient><path style="fill:url(#hair3XMLID_1356_);stroke:#1E1E1E;stroke-linecap:round;stroke-linejoin:round;" d="M325.813,154.432c0,0,4.093-15.428,14.636-14.464c10.543,0.964,15.985,11.614,17.335,21.985c1.352,10.372-0.984,33.814-0.063,54.106c0.92,20.293,2.205,53.356-9.344,62.356c4.521-9.643,5.143-24.813,3-38.036c-1.585,10.007-4.585,32.335-15.857,37.243c5.465-12.621,5.294-30.642,1.521-50.143C333.271,207.981,316.938,185.144,325.813,154.432z"></path><linearGradient id="hair3XMLID_1357_" gradientUnits="userSpaceOnUse" x1="331.1621" y1="407" x2="331.1621" y2="92.0002"><stop offset="0" style="stop-color:#FCFCE4"></stop><stop offset="0.5" style="stop-color:#A0C8DD"></stop><stop offset="1" style="stop-color:#5D6EC5"></stop></linearGradient><path style="fill:url(#hair3XMLID_1357_);stroke:#1E1E1E;stroke-linecap:round;stroke-linejoin:round;" d="M331.442,160.777c0,0-5.626,22.599,1.539,51.04"></path></g></g></g></g></svg>