<svg xmlns="http://www.w3.org/2000/svg" width="500" height="500" version="1.1"><g id="x136"><g><linearGradient id="hair3XMLID_1358_" gradientUnits="userSpaceOnUse" x1="249.9995" y1="407" x2="249.9995" y2="91.9999"><stop offset="0" style="stop-color:#FCFCE4"></stop><stop offset="0.5" style="stop-color:#A0C8DD"></stop><stop offset="1" style="stop-color:#5D6EC5"></stop></linearGradient><ellipse style="fill:url(#hair3XMLID_1358_);stroke:#1E1E1E;stroke-linecap:round;stroke-linejoin:round;" cx="250" cy="119.953" rx="41.76" ry="35.703"></ellipse><linearGradient id="hair3XMLID_1359_" gradientUnits="userSpaceOnUse" x1="187.3062" y1="407" x2="187.3061" y2="92.0011"><stop offset="0" style="stop-color:#FCFCE4"></stop><stop offset="0.5" style="stop-color:#A0C8DD"></stop><stop offset="1" style="stop-color:#5D6EC5"></stop></linearGradient><path style="fill:url(#hair3XMLID_1359_);stroke:#1E1E1E;stroke-linecap:round;stroke-linejoin:round;" d="M204.404,217.073c0,0-10.009,42.504-25.948,75.019c-15.939,32.516-15.939,56.105-2.55,87.983c-35.065-42.078-8.927-90.533,3.188-117.948c14.097-31.904,11.284-49.94,11.284-60.354c0-13.176,1.701-44.629,25.927-60.355"></path><linearGradient id="hair3XMLID_1360_" gradientUnits="userSpaceOnUse" x1="312.6934" y1="407" x2="312.6934" y2="92.0011"><stop offset="0" style="stop-color:#FCFCE4"></stop><stop offset="0.5" style="stop-color:#A0C8DD"></stop><stop offset="1" style="stop-color:#5D6EC5"></stop></linearGradient><path style="fill:url(#hair3XMLID_1360_);stroke:#1E1E1E;stroke-linecap:round;stroke-linejoin:round;" d="M295.596,217.073c0,0,10.009,42.504,25.948,75.019c15.938,32.516,15.938,56.105,2.551,87.983c35.066-42.078,8.925-90.533-3.188-117.948c-14.097-31.904-11.284-49.94-11.284-60.354c0-13.176-1.699-44.629-25.928-60.355"></path><linearGradient id="hair3XMLID_1361_" gradientUnits="userSpaceOnUse" x1="251.4004" y1="407" x2="251.4004" y2="91.9989"><stop offset="0" style="stop-color:#FCFCE4"></stop><stop offset="0.5" style="stop-color:#A0C8DD"></stop><stop offset="1" style="stop-color:#5D6EC5"></stop></linearGradient><path style="fill:url(#hair3XMLID_1361_);stroke:#1E1E1E;stroke-linecap:round;stroke-linejoin:round;" d="M303.417,227.699c0,0,5.1,23.59,18.489,67.58c21.211,69.698-39.529,112.21-39.529,112.21s9.563-19.128,11.476-43.353c-0.637,26.776-9.563,33.789-27.414,45.267c3.186-5.103,10.839-22.954,9.563-36.98c0,13.389-10.839,20.403-24.864,39.53c-0.638-14.027-24.227-35.703-24.227-35.703s-0.638,12.751,16.576,31.239c-32.515-13.387-31.24-46.541-36.341-61.842c-0.638,16.577,1.913,35.702,12.751,58.017c-47.816-24.227-49.729-79.057-36.341-114.76c8.416-22.438,16.578-51.642,16.578-51.642s1.296-58.017,2.571-63.118c1.275-5.1,8.925-53.555,47.604-53.555c38.681,0,45.479,31.028,46.329,51.005C297.191,184.586,303.417,227.699,303.417,227.699z"></path></g></g></svg>