<svg xmlns="http://www.w3.org/2000/svg" width="500" height="500" version="1.1"><g id="x137"><g><g><g><g><linearGradient id="hair3XMLID_1362_" gradientUnits="userSpaceOnUse" x1="341.8428" y1="407" x2="341.8428" y2="91.9999"><stop offset="0" style="stop-color:#FCFCE4"></stop><stop offset="0.5" style="stop-color:#A0C8DD"></stop><stop offset="1" style="stop-color:#5D6EC5"></stop></linearGradient><path style="fill:url(#hair3XMLID_1362_);stroke:#1E1E1E;stroke-linecap:round;stroke-linejoin:round;" d="M323.967,145.514c0,0,10.292-5.625,20.885,2.32c11.604,8.702,9.863,19.145,6.962,25.527c11.023-10.443,11.603-28.428-5.22-35.969C329.768,129.85,323.967,145.514,323.967,145.514z"></path><linearGradient id="hair3XMLID_1363_" gradientUnits="userSpaceOnUse" x1="344.6826" y1="407" x2="344.6826" y2="92.0002"><stop offset="0" style="stop-color:#FCFCE4"></stop><stop offset="0.5" style="stop-color:#A0C8DD"></stop><stop offset="1" style="stop-color:#5D6EC5"></stop></linearGradient><path style="fill:url(#hair3XMLID_1363_);stroke:#1E1E1E;stroke-linecap:round;stroke-linejoin:round;" d="M326.909,142.88c0,0,1.013-11.684,13.495-16.108c13.67-4.845,21.402,2.385,25.111,8.334c-2.595-14.961-17.25-25.4-32.846-15.564C317.075,129.377,326.909,142.88,326.909,142.88z"></path><linearGradient id="hair3XMLID_1364_" gradientUnits="userSpaceOnUse" x1="312.4404" y1="407" x2="312.4404" y2="92.0002"><stop offset="0" style="stop-color:#FCFCE4"></stop><stop offset="0.5" style="stop-color:#A0C8DD"></stop><stop offset="1" style="stop-color:#5D6EC5"></stop></linearGradient><path style="fill:url(#hair3XMLID_1364_);stroke:#1E1E1E;stroke-linecap:round;stroke-linejoin:round;" d="M318.228,138.485c0,0,6.989-9.418,0.581-21.005c-7.021-12.692-17.604-12.407-24.324-10.414c11.863-9.478,29.755-7.574,34.906,10.13C334.542,134.897,318.228,138.485,318.228,138.485z"></path></g><g><linearGradient id="hair3XMLID_1365_" gradientUnits="userSpaceOnUse" x1="317.5498" y1="407" x2="317.5498" y2="92.0013"><stop offset="0" style="stop-color:#FCFCE4"></stop><stop offset="0.5" style="stop-color:#A0C8DD"></stop><stop offset="1" style="stop-color:#5D6EC5"></stop></linearGradient><path style="fill:url(#hair3XMLID_1365_);stroke:#1E1E1E;stroke-linecap:round;stroke-linejoin:round;" d="M330.348,143.773c0,0-0.58-13.343-8.121-15.663c-2.9,1.16-5.803,1.16-5.803,1.16l-5.221-2.321c0,0-5.801,3.481-6.961,8.122c4.061,4.061,18.564,20.886,18.564,20.886S333.25,150.736,330.348,143.773z"></path><linearGradient id="hair3XMLID_1366_" gradientUnits="userSpaceOnUse" x1="320.1953" y1="407" x2="320.1953" y2="91.9997"><stop offset="0" style="stop-color:#FCFCE4"></stop><stop offset="0.5" style="stop-color:#A0C8DD"></stop><stop offset="1" style="stop-color:#5D6EC5"></stop></linearGradient><path style="fill:url(#hair3XMLID_1366_);stroke:#1E1E1E;stroke-linecap:round;stroke-linejoin:round;" d="M323.967,136.812c0,0-2.32-5.222-7.543-7.542"></path></g></g></g></g></g></svg>