<svg xmlns="http://www.w3.org/2000/svg" width="500" height="500" version="1.1"><g id="x138"><g><g><linearGradient id="hair3XMLID_1367_" gradientUnits="userSpaceOnUse" x1="339.4199" y1="406.999" x2="339.4199" y2="91.9993"><stop offset="0" style="stop-color:#FCFCE4"></stop><stop offset="0.5" style="stop-color:#A0C8DD"></stop><stop offset="1" style="stop-color:#5D6EC5"></stop></linearGradient><path style="fill:url(#hair3XMLID_1367_);stroke:#1E1E1E;stroke-linecap:round;stroke-linejoin:round;" d="M309.025,127.392c0,0,0-11.603,5.801-12.764c2.711-1.478,8.703-6.381,14.668-0.857c5.466,1.065,11.25,4.943,14.92,13.621c0,0,3.482,18.565,11.603,24.946c8.123,6.381,21.467,26.687,12.765,44.671c0.579-11.603-0.581-22.625-10.443-30.748c2.321,5.801,11.022,33.068,3.481,44.671c-1.16,6.962,2.32,13.344,8.121,13.924c-3.48,1.16-12.764,0-14.504-10.443c-0.58,2.32,6.962,17.984-13.343,24.946c5.803-9.282,2.32-30.748-5.802-35.969c-8.123-1.741-23.206-21.466-27.267-43.511C304.965,137.834,309.025,127.392,309.025,127.392z"></path><linearGradient id="hair3XMLID_1368_" gradientUnits="userSpaceOnUse" x1="332.8887" y1="407" x2="332.8887" y2="91.9998"><stop offset="0" style="stop-color:#FCFCE4"></stop><stop offset="0.5" style="stop-color:#A0C8DD"></stop><stop offset="1" style="stop-color:#5D6EC5"></stop></linearGradient><path style="fill:url(#hair3XMLID_1368_);stroke:#1E1E1E;stroke-linecap:round;stroke-linejoin:round;" d="M329.33,113.468c0,0,4.177,3.957,7.117,11.193"></path></g></g></g></svg>