<svg xmlns="http://www.w3.org/2000/svg" width="500" height="500" version="1.1"><g id="x141"><g><g><g><linearGradient id="hair3XMLID_1375_" gradientUnits="userSpaceOnUse" x1="334.9922" y1="407.001" x2="334.9922" y2="92.0005"><stop offset="0" style="stop-color:#FCFCE4"></stop><stop offset="0.5" style="stop-color:#A0C8DD"></stop><stop offset="1" style="stop-color:#5D6EC5"></stop></linearGradient><path style="fill:url(#hair3XMLID_1375_);stroke:#1E1E1E;stroke-linecap:round;stroke-linejoin:round;" d="M335.861,124.808c18.76,1.104,23.787,13.344,23.787,13.344s17.404,6.961,16.244,34.229c-0.84,19.716-19.145,40.61-12.184,48.732c6.963,8.122,12.764,0,12.764,0s-2.9,17.405-15.664,11.603c1.74,2.9,8.121,22.047-17.404,27.268c8.123-8.123,4.061-15.665-0.58-17.405c-19.725-0.58-49.313-42.301-49.313-72.519C293.512,133.51,316.137,123.648,335.861,124.808z"></path><linearGradient id="hair3XMLID_1376_" gradientUnits="userSpaceOnUse" x1="362.3838" y1="407" x2="362.3838" y2="92.0005"><stop offset="0" style="stop-color:#FCFCE4"></stop><stop offset="0.5" style="stop-color:#A0C8DD"></stop><stop offset="1" style="stop-color:#5D6EC5"></stop></linearGradient><path style="fill:url(#hair3XMLID_1376_);stroke:#1E1E1E;stroke-linecap:round;stroke-linejoin:round;" d="M357.908,135.251c0,0,12.184,17.985,8.123,28.427"></path></g></g></g></g></svg>