<svg xmlns="http://www.w3.org/2000/svg" width="500" height="500" version="1.1"><g id="x142"><g><g><g><linearGradient id="hair3XMLID_1377_" gradientUnits="userSpaceOnUse" x1="310.8271" y1="407" x2="310.8271" y2="92"><stop offset="0" style="stop-color:#FCFCE4"></stop><stop offset="0.5" style="stop-color:#A0C8DD"></stop><stop offset="1" style="stop-color:#5D6EC5"></stop></linearGradient><path style="fill:url(#hair3XMLID_1377_);stroke:#1E1E1E;stroke-linecap:round;stroke-linejoin:round;" d="M318.93,182.049c0,0,14.139-7.542,18.974-26.493c0.386-1.161-0.519-3.567-0.519-3.567s5.775-6.563,7.094-15.578c-0.194-2.514-0.194-4.448-0.194-4.448s5.803-11.603,6.383-17.598c0.318-3.295-4.255-8.896-7.155-9.283c-2.902-0.386-11.216,1.16-18.951,5.995c-2.32-0.773-3.676-0.58-3.676-0.58s-11.022-0.194-16.631,4.834c-1.16-0.58-1.934-0.58-2.9-0.58c-8.121,0.58-21.873,8.896-30.382,20.112C276.667,140.169,318.93,182.049,318.93,182.049z"></path><linearGradient id="hair3XMLID_1378_" gradientUnits="userSpaceOnUse" x1="311.4336" y1="407" x2="311.4336" y2="92.0003"><stop offset="0" style="stop-color:#FCFCE4"></stop><stop offset="0.5" style="stop-color:#A0C8DD"></stop><stop offset="1" style="stop-color:#5D6EC5"></stop></linearGradient><path style="fill:url(#hair3XMLID_1378_);stroke:#1E1E1E;stroke-linecap:round;stroke-linejoin:round;" d="M303.674,115.913c0,0,18.566,12.763,15.084,52.987"></path><linearGradient id="hair3XMLID_1379_" gradientUnits="userSpaceOnUse" x1="330.3555" y1="407" x2="330.3555" y2="92"><stop offset="0" style="stop-color:#FCFCE4"></stop><stop offset="0.5" style="stop-color:#A0C8DD"></stop><stop offset="1" style="stop-color:#5D6EC5"></stop></linearGradient><path style="fill:url(#hair3XMLID_1379_);stroke:#1E1E1E;stroke-linecap:round;stroke-linejoin:round;" d="M324.753,111.659c0,0,9.671,10.829,11.204,32.072"></path><linearGradient id="hair3XMLID_1380_" gradientUnits="userSpaceOnUse" x1="338.8984" y1="407" x2="338.8984" y2="92.0013"><stop offset="0" style="stop-color:#FCFCE4"></stop><stop offset="0.5" style="stop-color:#A0C8DD"></stop><stop offset="1" style="stop-color:#5D6EC5"></stop></linearGradient><path style="fill:url(#hair3XMLID_1380_);stroke:#1E1E1E;stroke-linecap:round;stroke-linejoin:round;" d="M344.284,136.218c0.389-1.16-0.965-20.305-10.828-29.008"></path><linearGradient id="hair3XMLID_1381_" gradientUnits="userSpaceOnUse" x1="312.2803" y1="407" x2="312.2803" y2="91.9999"><stop offset="0" style="stop-color:#FCFCE4"></stop><stop offset="0.5" style="stop-color:#A0C8DD"></stop><stop offset="1" style="stop-color:#5D6EC5"></stop></linearGradient><path style="fill:url(#hair3XMLID_1381_);stroke:#1E1E1E;stroke-linecap:round;stroke-linejoin:round;" d="M305.608,118.813c0,0,10.636,25.14,13.344,39.644"></path></g></g></g></g></svg>