<svg xmlns="http://www.w3.org/2000/svg" width="500" height="500" version="1.1"><g id="x144"><g><g><linearGradient id="hair3XMLID_1384_" gradientUnits="userSpaceOnUse" x1="287.5449" y1="407" x2="287.5449" y2="92.0005"><stop offset="0" style="stop-color:#FCFCE4"></stop><stop offset="0.5" style="stop-color:#A0C8DD"></stop><stop offset="1" style="stop-color:#5D6EC5"></stop></linearGradient><path style="fill:url(#hair3XMLID_1384_);stroke:#1E1E1E;stroke-linecap:round;stroke-linejoin:round;" d="M341.61,245.915c0,0,10.305,16.929-2.208,44.898c48.578-53.73,8.095-97.891,8.095-97.891s1.354-11.756-3.68-41.954c-4.415-26.495-30.911-40.48-41.952-43.424c-11.039-11.041-25.023-19.136-49.314-17.665c-31.59,1.915-37.535,34.594-37.535,34.594s-16.439,29.93,24.779,65.749C266.981,213.851,322.721,219.664,341.61,245.915z"></path><linearGradient id="hair3XMLID_1385_" gradientUnits="userSpaceOnUse" x1="293.0332" y1="407" x2="293.0332" y2="92.0001"><stop offset="0" style="stop-color:#FCFCE4"></stop><stop offset="0.5" style="stop-color:#A0C8DD"></stop><stop offset="1" style="stop-color:#5D6EC5"></stop></linearGradient><path style="fill:url(#hair3XMLID_1385_);stroke:#1E1E1E;stroke-linecap:round;stroke-linejoin:round;" d="M281.257,106.808c0,0,14.721-2.208,23.552,2.208"></path><linearGradient id="hair3XMLID_1386_" gradientUnits="userSpaceOnUse" x1="315.0732" y1="407" x2="315.0732" y2="91.9994"><stop offset="0" style="stop-color:#FCFCE4"></stop><stop offset="0.5" style="stop-color:#A0C8DD"></stop><stop offset="1" style="stop-color:#5D6EC5"></stop></linearGradient><path style="fill:url(#hair3XMLID_1386_);stroke:#1E1E1E;stroke-linecap:round;stroke-linejoin:round;" d="M350.443,235.61c0,0,5.888,23.553-17.664,45.634c-23.555,22.079-7.362,39.009,10.303,41.217c-40.481,3.68-61.825-28.705-47.104-75.074c7.359-41.953-16.929-84.642-16.929-84.642"></path><linearGradient id="hair3XMLID_1387_" gradientUnits="userSpaceOnUse" x1="345.2891" y1="407" x2="345.2891" y2="91.9998"><stop offset="0" style="stop-color:#FCFCE4"></stop><stop offset="0.5" style="stop-color:#A0C8DD"></stop><stop offset="1" style="stop-color:#5D6EC5"></stop></linearGradient><path style="fill:url(#hair3XMLID_1387_);stroke:#1E1E1E;stroke-linecap:round;stroke-linejoin:round;" d="M347.497,182.618c0,0,0,24.288-4.415,33.121"></path></g></g></g></svg>