<svg xmlns="http://www.w3.org/2000/svg" width="500" height="500" version="1.1"><g id="x145"><g><g><g><g><linearGradient id="hair3XMLID_1388_" gradientUnits="userSpaceOnUse" x1="355.8711" y1="407" x2="355.8711" y2="92"><stop offset="0" style="stop-color:#FCFCE4"></stop><stop offset="0.5" style="stop-color:#A0C8DD"></stop><stop offset="1" style="stop-color:#5D6EC5"></stop></linearGradient><path style="fill:url(#hair3XMLID_1388_);stroke:#1E1E1E;stroke-linecap:round;stroke-linejoin:round;" d="M356.297,216.117c0,0,5.077,53.313,9.307,62.622c-9.307,7.615-15.23,11.847-15.23,11.847s5.076-25.387-4.233-49.082C351.218,232.195,356.297,216.117,356.297,216.117z"></path><linearGradient id="hair3XMLID_1389_" gradientUnits="userSpaceOnUse" x1="338.3262" y1="407" x2="338.3262" y2="91.9993"><stop offset="0" style="stop-color:#FCFCE4"></stop><stop offset="0.5" style="stop-color:#A0C8DD"></stop><stop offset="1" style="stop-color:#5D6EC5"></stop></linearGradient><path style="fill:url(#hair3XMLID_1389_);stroke:#1E1E1E;stroke-linecap:round;stroke-linejoin:round;" d="M324.985,203.424c0,0,11,40.619,11.846,49.928c0.848,13.54-7.615,49.082-7.615,49.082l8.463-3.386c0,0,18.618-55.851,21.155-72.776c2.54-16.925,0.846-50.774-0.846-54.158c-1.691-3.386-18.617-49.082-24.541-51.621c-5.922-2.539-16.924,18.617-16.924,18.617S319.062,198.346,324.985,203.424z"></path><linearGradient id="hair3XMLID_1390_" gradientUnits="userSpaceOnUse" x1="348.834" y1="407" x2="348.834" y2="92.0002"><stop offset="0" style="stop-color:#FCFCE4"></stop><stop offset="0.5" style="stop-color:#A0C8DD"></stop><stop offset="1" style="stop-color:#5D6EC5"></stop></linearGradient><path style="fill:url(#hair3XMLID_1390_);stroke:#1E1E1E;stroke-linecap:round;stroke-linejoin:round;" d="M362.22,274.507c0,0-6.758,13.677-18.616,19.465c-11.849,3.383-17.772,7.616-17.772,7.616s-6.767,9.176-5.077,16.076c1.027,4.191,11.946,10.625,11.946,10.625s7.665-10.071,20.895-16.514c7.64-3.722,17.706-3.685,23.59-11.121C374.646,292.192,362.22,274.507,362.22,274.507z"></path><linearGradient id="hair3XMLID_1391_" gradientUnits="userSpaceOnUse" x1="357.8203" y1="407" x2="357.8203" y2="91.9998"><stop offset="0" style="stop-color:#FCFCE4"></stop><stop offset="0.5" style="stop-color:#A0C8DD"></stop><stop offset="1" style="stop-color:#5D6EC5"></stop></linearGradient><path style="fill:url(#hair3XMLID_1391_);stroke:#1E1E1E;stroke-linecap:round;stroke-linejoin:round;" d="M344.34,317.167c0,0,13.816-16.851,26.961-25.949"></path><linearGradient id="hair3XMLID_1392_" gradientUnits="userSpaceOnUse" x1="368.4238" y1="407" x2="368.4238" y2="91.9996"><stop offset="0" style="stop-color:#FCFCE4"></stop><stop offset="0.5" style="stop-color:#A0C8DD"></stop><stop offset="1" style="stop-color:#5D6EC5"></stop></linearGradient><path style="fill:url(#hair3XMLID_1392_);stroke:#1E1E1E;stroke-linecap:round;stroke-linejoin:round;" d="M376.85,327.614c-0.675,1.349-5.057,13.48-2.695,16.515c-5.057-2.696-14.155-7.415-14.155-7.415L376.85,327.614z"></path><linearGradient id="hair3XMLID_1393_" gradientUnits="userSpaceOnUse" x1="361.4277" y1="407" x2="361.4277" y2="92.0002"><stop offset="0" style="stop-color:#FCFCE4"></stop><stop offset="0.5" style="stop-color:#A0C8DD"></stop><stop offset="1" style="stop-color:#5D6EC5"></stop></linearGradient><path style="fill:url(#hair3XMLID_1393_);stroke:#1E1E1E;stroke-linecap:round;stroke-linejoin:round;" d="M375.683,295.936c0,0,7.416,5.393,8.425,8.089c1.012,2.695-1.58,20.41-4.119,22.949c-2.536,2.539-16.959,17.155-41.464,13.54c13.902-6.158,24.839-16.367,29.069-32.446C370.908,304.086,375.683,295.936,375.683,295.936z"></path></g><linearGradient id="hair3XMLID_1394_" gradientUnits="userSpaceOnUse" x1="353.5957" y1="407" x2="353.5957" y2="91.9999"><stop offset="0" style="stop-color:#FCFCE4"></stop><stop offset="0.5" style="stop-color:#A0C8DD"></stop><stop offset="1" style="stop-color:#5D6EC5"></stop></linearGradient><path style="fill:url(#hair3XMLID_1394_);stroke:#1E1E1E;stroke-linecap:round;stroke-linejoin:round;" d="M340.452,295.599c0,0,16.513-3.707,26.286-10.449"></path><linearGradient id="hair3XMLID_1395_" gradientUnits="userSpaceOnUse" x1="359.1553" y1="407" x2="359.1553" y2="91.9997"><stop offset="0" style="stop-color:#FCFCE4"></stop><stop offset="0.5" style="stop-color:#A0C8DD"></stop><stop offset="1" style="stop-color:#5D6EC5"></stop></linearGradient><path style="fill:url(#hair3XMLID_1395_);stroke:#1E1E1E;stroke-linecap:round;stroke-linejoin:round;" d="M373.479,343.117c0,0,2.358,6.068,3.705,7.415c-1.165,13.144-4.042,17.188-4.042,17.188s-22.581,5.393-32.017,0C352.583,364.013,364.717,360.308,373.479,343.117z"></path><linearGradient id="hair3XMLID_1396_" gradientUnits="userSpaceOnUse" x1="338.708" y1="407" x2="338.708" y2="92.0002"><stop offset="0" style="stop-color:#FCFCE4"></stop><stop offset="0.5" style="stop-color:#A0C8DD"></stop><stop offset="1" style="stop-color:#5D6EC5"></stop></linearGradient><path style="fill:url(#hair3XMLID_1396_);stroke:#1E1E1E;stroke-linecap:round;stroke-linejoin:round;" d="M340.786,172.587c0.34,1.011,1.013,76.503-4.38,94.028"></path></g></g></g></g></svg>