<svg xmlns="http://www.w3.org/2000/svg" width="500" height="500" version="1.1"><g id="x146"><g><g><linearGradient id="hair3XMLID_1397_" gradientUnits="userSpaceOnUse" x1="353.9697" y1="407" x2="353.9697" y2="92.0001"><stop offset="0" style="stop-color:#FCFCE4"></stop><stop offset="0.5" style="stop-color:#A0C8DD"></stop><stop offset="1" style="stop-color:#5D6EC5"></stop></linearGradient><path style="fill:url(#hair3XMLID_1397_);stroke:#1E1E1E;stroke-linecap:round;stroke-linejoin:round;" d="M379.111,253.357c0,0-23.371,34.003-43.555,38.362c-3.541-1.744-6.729-2.616-6.729-2.616s25.496-29.208,28.684-52.748C368.488,242.459,377.341,249.434,379.111,253.357z"></path><path style="fill:#1E1E1E;" d="M368.797,246.639c0,0-15.664,26.687-31.328,34.229c13.924-21.465,19.726-40.03,19.726-40.03L368.797,246.639z"></path><linearGradient id="hair3XMLID_1398_" gradientUnits="userSpaceOnUse" x1="355.21" y1="407" x2="355.21" y2="91.9998"><stop offset="0" style="stop-color:#FCFCE4"></stop><stop offset="0.5" style="stop-color:#A0C8DD"></stop><stop offset="1" style="stop-color:#5D6EC5"></stop></linearGradient><path style="fill:url(#hair3XMLID_1398_);stroke:#1E1E1E;stroke-linecap:round;stroke-linejoin:round;" d="M365.656,321.799c0,0-6.729,21.359-16.997,22.231c-2.479-0.872-3.896-2.615-3.896-2.615s10.624-21.796,9.207-31.822C359.989,310.029,365.302,318.746,365.656,321.799z"></path><g><linearGradient id="hair3XMLID_1399_" gradientUnits="userSpaceOnUse" x1="345.9883" y1="407" x2="345.9883" y2="91.9998"><stop offset="0" style="stop-color:#FCFCE4"></stop><stop offset="0.5" style="stop-color:#A0C8DD"></stop><stop offset="1" style="stop-color:#5D6EC5"></stop></linearGradient><path style="fill:url(#hair3XMLID_1399_);stroke:#1E1E1E;stroke-linecap:round;stroke-linejoin:round;" d="M358.175,314.481c-12.991-9.408-29.7-8.813-29.7-8.813s-0.708-1.308-0.708-4.358c0-3.053-1.063-4.359-1.417-5.669c-0.354-1.308,2.479-7.845,2.479-7.845c14.52,0,33.286,16.564,36.828,34.002l-1.596,4.36"></path><linearGradient id="hair3XMLID_1400_" gradientUnits="userSpaceOnUse" x1="339.2744" y1="407" x2="339.2744" y2="91.9999"><stop offset="0" style="stop-color:#FCFCE4"></stop><stop offset="0.5" style="stop-color:#A0C8DD"></stop><stop offset="1" style="stop-color:#5D6EC5"></stop></linearGradient><path style="fill:url(#hair3XMLID_1400_);stroke:#1E1E1E;stroke-linecap:round;stroke-linejoin:round;" d="M332.369,298.258c0,0,8.498,0.437,13.811,4.36"></path></g><linearGradient id="hair3XMLID_1401_" gradientUnits="userSpaceOnUse" x1="352.8203" y1="407" x2="352.8203" y2="91.9992"><stop offset="0" style="stop-color:#FCFCE4"></stop><stop offset="0.5" style="stop-color:#A0C8DD"></stop><stop offset="1" style="stop-color:#5D6EC5"></stop></linearGradient><path style="fill:url(#hair3XMLID_1401_);stroke:#1E1E1E;stroke-linecap:round;stroke-linejoin:round;" d="M362.16,363.383c0,0-6.289,8.223-15.271,8.985c-2.169-0.763-3.407-2.289-3.407-2.289s9.696-8.603,8.458-17.372C357.203,353.088,361.85,360.713,362.16,363.383z"></path><linearGradient id="hair3XMLID_1402_" gradientUnits="userSpaceOnUse" x1="344.9316" y1="407" x2="344.9316" y2="92.0001"><stop offset="0" style="stop-color:#FCFCE4"></stop><stop offset="0.5" style="stop-color:#A0C8DD"></stop><stop offset="1" style="stop-color:#5D6EC5"></stop></linearGradient><path style="fill:url(#hair3XMLID_1402_);stroke:#1E1E1E;stroke-linecap:round;stroke-linejoin:round;" d="M355.782,356.575c-11.382-8.247-26.146-7.301-26.146-7.301s-0.619-1.144-0.619-3.813c0-2.67-0.928-3.814-1.239-4.957c-0.31-1.145,2.169-6.863,2.169-6.863c12.699,0,29.067,13.883,32.165,29.135l-2.479,2.835"></path><path style="fill:#1E1E1E;" d="M352.843,355.416c0,0,7.252-1.739,9.638,7.36c-2.966,5.114-7.606,7.725-7.606,7.725l-9.283-2.61C345.591,367.891,352.263,360.929,352.843,355.416z"></path><linearGradient id="hair3XMLID_1403_" gradientUnits="userSpaceOnUse" x1="350.0605" y1="407" x2="350.0605" y2="91.9998"><stop offset="0" style="stop-color:#FCFCE4"></stop><stop offset="0.5" style="stop-color:#A0C8DD"></stop><stop offset="1" style="stop-color:#5D6EC5"></stop></linearGradient><path style="fill:url(#hair3XMLID_1403_);stroke:#1E1E1E;stroke-linecap:round;stroke-linejoin:round;" d="M371.717,186.288c0,0-7.922,11.051-31.868,25.5c-15.137-4.903-10.897-5.884-10.897-5.884s9.878-2.353,16.518-13.143c1.063-0.98,2.391-14.058,1.55-24.128C362.156,168.634,371.717,186.288,371.717,186.288z"></path><path style="fill:#1E1E1E;" d="M360.095,179.632c-0.87,0.58-8.122,11.893-14.214,14.213c0.87-9.862,2.321-20.015,2.321-20.015L360.095,179.632z"></path><linearGradient id="hair3XMLID_1404_" gradientUnits="userSpaceOnUse" x1="341.1729" y1="407" x2="341.1729" y2="91.9999"><stop offset="0" style="stop-color:#FCFCE4"></stop><stop offset="0.5" style="stop-color:#A0C8DD"></stop><stop offset="1" style="stop-color:#5D6EC5"></stop></linearGradient><path style="fill:url(#hair3XMLID_1404_);stroke:#1E1E1E;stroke-linecap:round;stroke-linejoin:round;" d="M306.389,161.22c0-2.507,19.006-38.438,33.26-40.945c14.254-2.507,36.309,17.955,36.309,17.955l-7.309-1.765c0,0-22.223-13.798-30.357-9.505c-14.256,7.521-29.867,39.273-29.867,39.273L306.389,161.22z"></path><linearGradient id="hair3XMLID_1405_" gradientUnits="userSpaceOnUse" x1="344.5176" y1="407" x2="344.5176" y2="92.0002"><stop offset="0" style="stop-color:#FCFCE4"></stop><stop offset="0.5" style="stop-color:#A0C8DD"></stop><stop offset="1" style="stop-color:#5D6EC5"></stop></linearGradient><path style="fill:url(#hair3XMLID_1405_);stroke:#1E1E1E;stroke-linecap:round;stroke-linejoin:round;" d="M361.58,180.34c-12.564-6.703-34.67-15.838-52.477-9.093c0.678,0-0.68-5.014-0.68-5.014c2.037-5.013,25.794-30.082,34.618-32.589c8.823-2.506,28.843-0.428,32.915,4.585c0.679,8.356,3.188,17.655,3.188,17.655l-3.188,6.865c0,0,7.132,13.512,3.738,16.854c-5.43,4.178-10.323,9.018-10.323,9.018"></path><linearGradient id="hair3XMLID_1406_" gradientUnits="userSpaceOnUse" x1="339.1777" y1="407" x2="339.1777" y2="91.9999"><stop offset="0" style="stop-color:#FCFCE4"></stop><stop offset="0.5" style="stop-color:#A0C8DD"></stop><stop offset="1" style="stop-color:#5D6EC5"></stop></linearGradient><path style="fill:url(#hair3XMLID_1406_);stroke:#1E1E1E;stroke-linecap:round;stroke-linejoin:round;" d="M317.138,161.482c0,0,13.192-13.738,44.081-7.213"></path><linearGradient id="hair3XMLID_1407_" gradientUnits="userSpaceOnUse" x1="345.8564" y1="407" x2="345.8564" y2="92.0001"><stop offset="0" style="stop-color:#FCFCE4"></stop><stop offset="0.5" style="stop-color:#A0C8DD"></stop><stop offset="1" style="stop-color:#5D6EC5"></stop></linearGradient><path style="fill:url(#hair3XMLID_1407_);stroke:#1E1E1E;stroke-linecap:round;stroke-linejoin:round;" d="M369.999,247.427c-16.678-8.932-49.646-17.208-56.981-15.041c-1.416-2.615,0-23.757,0-25.501c0-1.743,19.918-1.961,19.918-1.961c17.161,6.959,28.469,12.687,35.108,26.091c7.702,7.193,8.693,13.535,11.28,22.342l-3.401,4.578"></path><linearGradient id="hair3XMLID_1408_" gradientUnits="userSpaceOnUse" x1="350.8867" y1="407" x2="350.8867" y2="91.9993"><stop offset="0" style="stop-color:#FCFCE4"></stop><stop offset="0.5" style="stop-color:#A0C8DD"></stop><stop offset="1" style="stop-color:#5D6EC5"></stop></linearGradient><path style="fill:url(#hair3XMLID_1408_);stroke:#1E1E1E;stroke-linecap:round;stroke-linejoin:round;" d="M369.318,232.713c0,0-10.57-12.814-36.862-17.718"></path><linearGradient id="hair3XMLID_1409_" gradientUnits="userSpaceOnUse" x1="349.543" y1="407" x2="349.543" y2="92"><stop offset="0" style="stop-color:#FCFCE4"></stop><stop offset="0.5" style="stop-color:#A0C8DD"></stop><stop offset="1" style="stop-color:#5D6EC5"></stop></linearGradient><path style="fill:url(#hair3XMLID_1409_);stroke:#1E1E1E;stroke-linecap:round;stroke-linejoin:round;" d="M339.098,372.803c0,0,0-2.615,6.374-3.925c6.374-1.307,12.748,4.797,14.518,14.387C353.263,375.418,342.285,372.368,339.098,372.803z"></path><linearGradient id="hair3XMLID_1410_" gradientUnits="userSpaceOnUse" x1="348.3037" y1="407" x2="348.3037" y2="91.9991"><stop offset="0" style="stop-color:#FCFCE4"></stop><stop offset="0.5" style="stop-color:#A0C8DD"></stop><stop offset="1" style="stop-color:#5D6EC5"></stop></linearGradient><path style="fill:url(#hair3XMLID_1410_);stroke:#1E1E1E;stroke-linecap:round;stroke-linejoin:round;" d="M359.989,383.265c0,0-2.124,37.056-23.371,8.282C352.908,402.011,359.989,383.265,359.989,383.265z"></path><linearGradient id="hair3XMLID_1411_" gradientUnits="userSpaceOnUse" x1="335.0254" y1="407" x2="335.0254" y2="92"><stop offset="0" style="stop-color:#FCFCE4"></stop><stop offset="0.5" style="stop-color:#A0C8DD"></stop><stop offset="1" style="stop-color:#5D6EC5"></stop></linearGradient><path style="fill:url(#hair3XMLID_1411_);stroke:#1E1E1E;stroke-linecap:round;stroke-linejoin:round;" d="M328.475,342.723c0,0,9.207-0.872,13.103,1.308"></path></g></g></g></svg>