<svg xmlns="http://www.w3.org/2000/svg" width="500" height="500" version="1.1"><g id="x147"><g><path style="fill:url(#hair3XMLID_1070_);stroke:#1E1E1E;stroke-linecap:round;stroke-linejoin:round;" d="M381.734,370.135"></path><g><linearGradient id="hair3XMLID_1413_" gradientUnits="userSpaceOnUse" x1="336.9512" y1="407" x2="336.9512" y2="92.0008"><stop offset="0" style="stop-color:#FCFCE4"></stop><stop offset="0.5" style="stop-color:#A0C8DD"></stop><stop offset="1" style="stop-color:#5D6EC5"></stop></linearGradient><path style="fill:url(#hair3XMLID_1413_);stroke:#1E1E1E;stroke-linecap:round;stroke-linejoin:round;" d="M354.242,282.758c0.889-1.783,7.131-88.27-41.908-116.355c-18.277-22.29-5.795-39.905-5.795-39.905s34.771-3.337,49.039,9.59c14.264,12.929,22.736,96.741,8.914,131.514"></path><path style="fill:#1E1E1E;" d="M361.373,189.584c0,0,6.844,25.916-3.408,25.916c-10.254,0-18.5-21.5-18.5-21.5s19.68,48.188,15.221,68.696C360.928,242.636,367.613,214.995,361.373,189.584z"></path><linearGradient id="hair3XMLID_1414_" gradientUnits="userSpaceOnUse" x1="344.209" y1="407" x2="344.209" y2="91.9995"><stop offset="0" style="stop-color:#FCFCE4"></stop><stop offset="0.5" style="stop-color:#A0C8DD"></stop><stop offset="1" style="stop-color:#5D6EC5"></stop></linearGradient><path style="fill:url(#hair3XMLID_1414_);stroke:#1E1E1E;stroke-linecap:round;stroke-linejoin:round;" d="M304.309,127.171c0,0,19.172-14.266,42.354,0c23.18,14.267,42.352,67.762,25.41,128.838c-16.943,61.075-41.016,109.222-32.99,124.824c8.023,15.603,41.463,17.832,45.027,11.144c-8.918,15.606-27.195,31.655-47.256,24.521c-20.063-7.134-14.711-52.605-6.688-80.244c8.025-27.641,35.662-86.487,33.436-126.164c-2.229-39.677-10.254-64.197-16.049-69.992"></path><path style="fill:#1E1E1E;" d="M336.854,376.375c0,0-0.443,34.773,20.506,38.341c17.387-5.795,26.303-28.978,26.303-28.978S356.469,408.474,336.854,376.375z"></path><linearGradient id="hair3XMLID_1415_" gradientUnits="userSpaceOnUse" x1="364.1719" y1="407" x2="364.1719" y2="92.0007"><stop offset="0" style="stop-color:#FCFCE4"></stop><stop offset="0.5" style="stop-color:#A0C8DD"></stop><stop offset="1" style="stop-color:#5D6EC5"></stop></linearGradient><path style="fill:url(#hair3XMLID_1415_);stroke:#1E1E1E;stroke-linecap:round;stroke-linejoin:round;" d="M357.359,281.866c0,0-20.506,57.954-19.613,82.919c9.807-24.519,39.23-37.447,49.93-72.22c10.699-34.773-11.146-88.27-11.146-88.27 M358.697,321.542c20.953-28.531,21.844-69.991,21.844-69.991s4.014,22.736,0.447,39.231C377.348,307.608,366.188,315.261,358.697,321.542z"></path><linearGradient id="hair3XMLID_1416_" gradientUnits="userSpaceOnUse" x1="360.0859" y1="407" x2="360.0859" y2="91.9998"><stop offset="0" style="stop-color:#FCFCE4"></stop><stop offset="0.5" style="stop-color:#A0C8DD"></stop><stop offset="1" style="stop-color:#5D6EC5"></stop></linearGradient><path style="fill:url(#hair3XMLID_1416_);stroke:#1E1E1E;stroke-linecap:round;stroke-linejoin:round;" d="M329.051,410.701c0.447,1.784,17.389,25.413,41.016,16.496s27.191-41.459,11.59-56.17c-4.68,34.772-21.623,39.23-39.689,37.841"></path></g></g></g></svg>