<svg xmlns="http://www.w3.org/2000/svg" width="500" height="500" version="1.1"><g id="x148"><g><g><g><linearGradient id="hair3XMLID_1417_" gradientUnits="userSpaceOnUse" x1="342.7441" y1="407" x2="342.7441" y2="91.9997"><stop offset="0" style="stop-color:#FCFCE4"></stop><stop offset="0.5" style="stop-color:#A0C8DD"></stop><stop offset="1" style="stop-color:#5D6EC5"></stop></linearGradient><path style="fill:url(#hair3XMLID_1417_);stroke:#1E1E1E;stroke-linecap:round;stroke-linejoin:round;" d="M310.115,171.22c0,0,7.001,14.601,29.395,16.244c42.155,3.094,52.212-44.478,36.742-66.137c-15.471-21.659-51.826-29.007-73.873,7.735c7.348,8.123,11.604,17.792,11.604,17.792s15.084-26.3,36.355-16.631c21.42,9.737,10.443,32.488-4.64,35.196c-15.65,2.809-31.33-9.67-31.33-9.67L310.115,171.22z"></path><linearGradient id="hair3XMLID_1418_" gradientUnits="userSpaceOnUse" x1="342.4102" y1="407" x2="342.4102" y2="91.9996"><stop offset="0" style="stop-color:#FCFCE4"></stop><stop offset="0.5" style="stop-color:#A0C8DD"></stop><stop offset="1" style="stop-color:#5D6EC5"></stop></linearGradient><path style="fill:url(#hair3XMLID_1418_);stroke:#1E1E1E;stroke-linecap:round;stroke-linejoin:round;" d="M362.715,144.92c0,0-1.548-34.035-40.61-26.3"></path><linearGradient id="hair3XMLID_1419_" gradientUnits="userSpaceOnUse" x1="351.6914" y1="406.999" x2="351.6914" y2="91.9991"><stop offset="0" style="stop-color:#FCFCE4"></stop><stop offset="0.5" style="stop-color:#A0C8DD"></stop><stop offset="1" style="stop-color:#5D6EC5"></stop></linearGradient><path style="fill:url(#hair3XMLID_1419_);stroke:#1E1E1E;stroke-linecap:round;stroke-linejoin:round;" d="M373.545,173.541c0,0-22.047,10.056-43.706-9.283"></path></g></g></g></g></svg>