<svg xmlns="http://www.w3.org/2000/svg" width="500" height="500" version="1.1"><g id="x150"><g><g><linearGradient id="hair3XMLID_1426_" gradientUnits="userSpaceOnUse" x1="321.416" y1="407" x2="321.416" y2="92.0001"><stop offset="0" style="stop-color:#FCFCE4"></stop><stop offset="0.5" style="stop-color:#A0C8DD"></stop><stop offset="1" style="stop-color:#5D6EC5"></stop></linearGradient><path style="fill:url(#hair3XMLID_1426_);stroke:#1E1E1E;stroke-linecap:round;stroke-linejoin:round;" d="M326.799,156.688c0,0,9.395-5.011,12.605-17.601c0.258-0.771-0.345-2.371-0.345-2.371s3.838-4.359,4.714-10.349c-0.13-1.67-0.13-2.955-0.13-2.955s3.854-7.708,4.24-11.691c0.212-2.189-2.827-5.91-4.754-6.167c-1.927-0.257-7.45,0.771-12.591,3.982c-1.542-0.514-2.44-0.386-2.44-0.386s-7.322-0.128-11.049,3.212c-0.771-0.386-1.284-0.385-1.928-0.385c-5.396,0.385-14.532,5.91-20.185,13.361C298.722,128.865,326.799,156.688,326.799,156.688z"></path><linearGradient id="hair3XMLID_1427_" gradientUnits="userSpaceOnUse" x1="321.8184" y1="407" x2="321.8184" y2="92.0001"><stop offset="0" style="stop-color:#FCFCE4"></stop><stop offset="0.5" style="stop-color:#A0C8DD"></stop><stop offset="1" style="stop-color:#5D6EC5"></stop></linearGradient><path style="fill:url(#hair3XMLID_1427_);stroke:#1E1E1E;stroke-linecap:round;stroke-linejoin:round;" d="M316.663,112.75c0,0,12.334,8.48,10.022,35.203"></path><linearGradient id="hair3XMLID_1428_" gradientUnits="userSpaceOnUse" x1="334.3896" y1="406.999" x2="334.3896" y2="91.9987"><stop offset="0" style="stop-color:#FCFCE4"></stop><stop offset="0.5" style="stop-color:#A0C8DD"></stop><stop offset="1" style="stop-color:#5D6EC5"></stop></linearGradient><path style="fill:url(#hair3XMLID_1428_);stroke:#1E1E1E;stroke-linecap:round;stroke-linejoin:round;" d="M330.668,109.924c0,0,6.423,7.194,7.443,21.307"></path><linearGradient id="hair3XMLID_1429_" gradientUnits="userSpaceOnUse" x1="340.0664" y1="406.999" x2="340.0664" y2="91.9992"><stop offset="0" style="stop-color:#FCFCE4"></stop><stop offset="0.5" style="stop-color:#A0C8DD"></stop><stop offset="1" style="stop-color:#5D6EC5"></stop></linearGradient><path style="fill:url(#hair3XMLID_1429_);stroke:#1E1E1E;stroke-linecap:round;stroke-linejoin:round;" d="M343.644,126.24c0.258-0.771-0.642-13.49-7.193-19.271"></path><linearGradient id="hair3XMLID_1430_" gradientUnits="userSpaceOnUse" x1="322.3809" y1="406.999" x2="322.3809" y2="91.9984"><stop offset="0" style="stop-color:#FCFCE4"></stop><stop offset="0.5" style="stop-color:#A0C8DD"></stop><stop offset="1" style="stop-color:#5D6EC5"></stop></linearGradient><path style="fill:url(#hair3XMLID_1430_);stroke:#1E1E1E;stroke-linecap:round;stroke-linejoin:round;" d="M317.948,114.677c0,0,7.068,16.703,8.865,26.337"></path></g></g></g></svg>