<svg xmlns="http://www.w3.org/2000/svg" width="500" height="500" version="1.1"><g id="x152"><g><g><g><g><linearGradient id="hair3XMLID_1435_" gradientUnits="userSpaceOnUse" x1="338.0596" y1="407" x2="338.0596" y2="92.0002"><stop offset="0" style="stop-color:#FCFCE4"></stop><stop offset="0.5" style="stop-color:#A0C8DD"></stop><stop offset="1" style="stop-color:#5D6EC5"></stop></linearGradient><path style="fill:url(#hair3XMLID_1435_);stroke:#1E1E1E;stroke-linecap:round;stroke-linejoin:round;" d="M333.83,237.225c0,0,15.855,34.421,11.602,51.052c-4.254,16.632-15.469,30.94-15.469,30.94l2.707-17.016c0,0,11.602-18.952,9.668-26.688c-1.934-7.736-10.057-30.167-10.057-30.167"></path><linearGradient id="hair3XMLID_1436_" gradientUnits="userSpaceOnUse" x1="323.3271" y1="407" x2="323.3271" y2="91.9995"><stop offset="0" style="stop-color:#FCFCE4"></stop><stop offset="0.5" style="stop-color:#A0C8DD"></stop><stop offset="1" style="stop-color:#5D6EC5"></stop></linearGradient><path style="fill:url(#hair3XMLID_1436_);stroke:#1E1E1E;stroke-linecap:round;stroke-linejoin:round;" d="M315.654,236.045c0,0,5.701,96.612-5.611,118.947c10.443,0,17.256-4.474,20.682-14.737c-0.729,2.407-0.398,3.733-0.398,3.733s5.646-5.629,5.404-13.767c-0.246-8.14,3.99-86.905-4.186-108.039C324.283,229.142,315.654,236.045,315.654,236.045z"></path><linearGradient id="hair3XMLID_1437_" gradientUnits="userSpaceOnUse" x1="330.7861" y1="407" x2="330.7861" y2="92.0001"><stop offset="0" style="stop-color:#FCFCE4"></stop><stop offset="0.5" style="stop-color:#A0C8DD"></stop><stop offset="1" style="stop-color:#5D6EC5"></stop></linearGradient><path style="fill:url(#hair3XMLID_1437_);stroke:#1E1E1E;stroke-linecap:round;stroke-linejoin:round;" d="M329.553,342.44c0,0,4.275-20.128,1.568-36.76"></path><linearGradient id="hair3XMLID_1438_" gradientUnits="userSpaceOnUse" x1="315.6543" y1="407" x2="315.6543" y2="92.0004"><stop offset="0" style="stop-color:#FCFCE4"></stop><stop offset="0.5" style="stop-color:#A0C8DD"></stop><stop offset="1" style="stop-color:#5D6EC5"></stop></linearGradient><path style="fill:url(#hair3XMLID_1438_);stroke:#1E1E1E;stroke-linecap:round;stroke-linejoin:round;" d="M334.023,175.341c2.32,2.321,6.961,15.664,6.768,17.792c-0.195,2.126-10.25,13.537-10.25,13.537s4.545,12.086,4.545,17.501c-0.58,1.644-1.959,4.834-4.678,7.469c-2.721,2.636-9.73,4.811-12.727,4.135c-8.51-1.161-20.982-8.605-21.176-9.573c0,0-9.67-28.233-4.447-50.085c5.221-21.853,27.072-27.848,27.072-27.848s11.41,0.967,18.953,8.703"></path><linearGradient id="hair3XMLID_1439_" gradientUnits="userSpaceOnUse" x1="331.1211" y1="407" x2="331.1211" y2="91.9998"><stop offset="0" style="stop-color:#FCFCE4"></stop><stop offset="0.5" style="stop-color:#A0C8DD"></stop><stop offset="1" style="stop-color:#5D6EC5"></stop></linearGradient><path style="fill:url(#hair3XMLID_1439_);stroke:#1E1E1E;stroke-linecap:round;stroke-linejoin:round;" d="M334.215,226.007c0,0-4.254,4.641-6.188,5.415"></path><linearGradient id="hair3XMLID_1440_" gradientUnits="userSpaceOnUse" x1="312.75" y1="407" x2="312.75" y2="91.9999"><stop offset="0" style="stop-color:#FCFCE4"></stop><stop offset="0.5" style="stop-color:#A0C8DD"></stop><stop offset="1" style="stop-color:#5D6EC5"></stop></linearGradient><path style="fill:url(#hair3XMLID_1440_);stroke:#1E1E1E;stroke-linecap:round;stroke-linejoin:round;" d="M317.199,256.176c0,0-0.775,54.146-14.697,68.07c11.602-12.764,20.111-29.781,20.496-44.865"></path></g><linearGradient id="hair3XMLID_1441_" gradientUnits="userSpaceOnUse" x1="331.917" y1="407" x2="331.917" y2="91.9993"><stop offset="0" style="stop-color:#FCFCE4"></stop><stop offset="0.5" style="stop-color:#A0C8DD"></stop><stop offset="1" style="stop-color:#5D6EC5"></stop></linearGradient><path style="fill:url(#hair3XMLID_1441_);stroke:#1E1E1E;stroke-linecap:round;stroke-linejoin:round;" d="M334.834,154.333c5.416,2.833,8.166,11.712,8.166,15c-0.25,1.25-5.584,11.25-6.084,11.833c-4.5-8.167-10.75-17.083-16.082-23.75"></path></g></g><linearGradient id="hair3XMLID_1442_" gradientUnits="userSpaceOnUse" x1="326.1455" y1="407" x2="326.1455" y2="92.0005"><stop offset="0" style="stop-color:#FCFCE4"></stop><stop offset="0.5" style="stop-color:#A0C8DD"></stop><stop offset="1" style="stop-color:#5D6EC5"></stop></linearGradient><path style="fill:url(#hair3XMLID_1442_);stroke:#1E1E1E;stroke-linecap:round;stroke-linejoin:round;" d="M330.541,206.669c0,0-5.123-16.419-8.791-24.419"></path></g></g></svg>