<svg xmlns="http://www.w3.org/2000/svg" width="500" height="500" version="1.1"><g id="x155"><g><g><g><linearGradient id="hair3XMLID_1454_" gradientUnits="userSpaceOnUse" x1="290.75" y1="407" x2="290.75" y2="91.9998"><stop offset="0" style="stop-color:#FCFCE4"></stop><stop offset="0.5" style="stop-color:#A0C8DD"></stop><stop offset="1" style="stop-color:#5D6EC5"></stop></linearGradient><path style="fill:url(#hair3XMLID_1454_);stroke:#1E1E1E;stroke-linecap:round;stroke-linejoin:round;" d="M303.106,268.029c4.932,15.663,6.672,29.008,2.32,35.969c-1.16-10.152-14.792-14.213-15.663-13.924c-2.609,7.833-1.449,14.794,0.58,17.694c-6.672-3.479-14.793-20.595-15.373-29.587c0,0-5.803-16.824,6.381-21.466C293.534,252.074,300.786,258.456,303.106,268.029z"></path><linearGradient id="hair3XMLID_1455_" gradientUnits="userSpaceOnUse" x1="294.1953" y1="407" x2="294.1953" y2="92.0001"><stop offset="0" style="stop-color:#FCFCE4"></stop><stop offset="0.5" style="stop-color:#A0C8DD"></stop><stop offset="1" style="stop-color:#5D6EC5"></stop></linearGradient><path style="fill:url(#hair3XMLID_1455_);stroke:#1E1E1E;stroke-linecap:round;stroke-linejoin:round;" d="M285.412,289.785c0,0,12.183,11.603,11.313,21.756c4.932-10.733,9.28-22.047,3.48-32.489"></path></g></g></g></g></svg>