<svg xmlns="http://www.w3.org/2000/svg" width="500" height="500" version="1.1"><g id="x156"><g><g><g><linearGradient id="hair3XMLID_1456_" gradientUnits="userSpaceOnUse" x1="321.877" y1="407" x2="321.877" y2="91.9997"><stop offset="0" style="stop-color:#FCFCE4"></stop><stop offset="0.5" style="stop-color:#A0C8DD"></stop><stop offset="1" style="stop-color:#5D6EC5"></stop></linearGradient><path style="fill:url(#hair3XMLID_1456_);stroke:#1E1E1E;stroke-linecap:round;stroke-linejoin:round;" d="M313.271,308.154c-0.312,1.691-6.009,17.64,0.842,21.156c6.851,3.516,17.09-1.843,18.887-7.511c-8.494,2.681-13.895-0.567-12.941-11.141"></path><g><linearGradient id="hair3XMLID_1457_" gradientUnits="userSpaceOnUse" x1="292.8086" y1="407" x2="292.8086" y2="92.0003"><stop offset="0" style="stop-color:#FCFCE4"></stop><stop offset="0.5" style="stop-color:#A0C8DD"></stop><stop offset="1" style="stop-color:#5D6EC5"></stop></linearGradient><path style="fill:url(#hair3XMLID_1457_);stroke:#1E1E1E;stroke-linecap:round;stroke-linejoin:round;" d="M317.235,321.887c6.584-11.283,4.811-36.86-15.732-50.156c-14.229-9.209-19.705-21.889-20.582-22.552c-0.878-0.662-20.093,5.913-15.14,15.64c1.282,2.518,5.216,17.775,18.576,27.994c10.856,8.302,26.681,10.261,31.498,20.49"></path></g></g></g></g></g></svg>