<svg xmlns="http://www.w3.org/2000/svg" width="500" height="500" version="1.1"><g id="x157"><g><g><linearGradient id="hair3XMLID_1458_" gradientUnits="userSpaceOnUse" x1="236.7148" y1="407" x2="236.7148" y2="91.9998"><stop offset="0" style="stop-color:#FCFCE4"></stop><stop offset="0.5" style="stop-color:#A0C8DD"></stop><stop offset="1" style="stop-color:#5D6EC5"></stop></linearGradient><path style="fill:url(#hair3XMLID_1458_);stroke:#1E1E1E;stroke-linecap:round;stroke-linejoin:round;" d="M182.158,183.953c-17.116,34.962-46.251,78.666-27.678,117.633c18.573,38.967,47.345,28.043,53.9,17.481c-10.197,5.462-28.042,3.642-31.32-2.185c-3.278-5.829,32.412-81.215,79.757-103.066c47.344-21.852,68.189-61.173,68.104-66.647c-0.365-22.579-9.834-50.439-40.789-53.626C253.175,90.356,189.807,106.745,182.158,183.953z"></path><linearGradient id="hair3XMLID_1459_" gradientUnits="userSpaceOnUse" x1="201.0972" y1="407" x2="201.0972" y2="92.0001"><stop offset="0" style="stop-color:#FCFCE4"></stop><stop offset="0.5" style="stop-color:#A0C8DD"></stop><stop offset="1" style="stop-color:#5D6EC5"></stop></linearGradient><path style="fill:url(#hair3XMLID_1459_);stroke:#1E1E1E;stroke-linecap:round;stroke-linejoin:round;" d="M179.246,273.543c0.364-1.456,10.561-38.968,43.703-64.826"></path><linearGradient id="hair3XMLID_1460_" gradientUnits="userSpaceOnUse" x1="172.144" y1="407" x2="172.144" y2="92.0007"><stop offset="0" style="stop-color:#FCFCE4"></stop><stop offset="0.5" style="stop-color:#A0C8DD"></stop><stop offset="1" style="stop-color:#5D6EC5"></stop></linearGradient><path style="fill:url(#hair3XMLID_1460_);stroke:#1E1E1E;stroke-linecap:round;stroke-linejoin:round;" d="M166.5,301.95c0,1.091,5.462,13.475,11.29,16.388"></path></g></g></g></svg>