<svg xmlns="http://www.w3.org/2000/svg" width="500" height="500" version="1.1"><g id="x159"><g><g><g><linearGradient id="hair3XMLID_1463_" gradientUnits="userSpaceOnUse" x1="291.0898" y1="407" x2="291.0898" y2="91.9998"><stop offset="0" style="stop-color:#FCFCE4"></stop><stop offset="0.5" style="stop-color:#A0C8DD"></stop><stop offset="1" style="stop-color:#5D6EC5"></stop></linearGradient><path style="fill:url(#hair3XMLID_1463_);stroke:#1E1E1E;stroke-linecap:round;stroke-linejoin:round;" d="M317.601,209.386c-2.524,11.956-2.003,22.828,1.107,30.85c3.11,8.023-13.22,25.904-13.22,25.904l-22.93,7.583c0,0-11.297-4.434-17.306-10.251c-6.01-5.816,2.217-28.098,3.355-29.844C268.608,233.628,281.353,215.062,317.601,209.386z"></path><linearGradient id="hair3XMLID_1464_" gradientUnits="userSpaceOnUse" x1="293.957" y1="407" x2="293.957" y2="92.0001"><stop offset="0" style="stop-color:#FCFCE4"></stop><stop offset="0.5" style="stop-color:#A0C8DD"></stop><stop offset="1" style="stop-color:#5D6EC5"></stop></linearGradient><path style="fill:url(#hair3XMLID_1464_);stroke:#1E1E1E;stroke-linecap:round;stroke-linejoin:round;" d="M305.295,254.313c0,0,7.79,3.759,8.677,10.479c-0.694,5.105-4.009,16.254-4.009,16.254s6.635,7.102,3.683,14.101c-2.949,6.999,5.465,12.041,5.465,12.041s-5.139,0.455-10.866,0.599c-5.837,0.146-12.288-0.034-14.53-1.349c-4.446-2.604-6.896-12.537-6.896-12.537c-3.51-0.676-14.953-6.231-17.325-8.653c-2.371-2.422,2.151-21.707,2.151-21.707"></path><linearGradient id="hair3XMLID_1465_" gradientUnits="userSpaceOnUse" x1="313.0898" y1="407" x2="313.0898" y2="92.0006"><stop offset="0" style="stop-color:#FCFCE4"></stop><stop offset="0.5" style="stop-color:#A0C8DD"></stop><stop offset="1" style="stop-color:#5D6EC5"></stop></linearGradient><path style="fill:url(#hair3XMLID_1465_);stroke:#1E1E1E;stroke-linecap:round;stroke-linejoin:round;" d="M303.959,304.631c0,0,0.557,7.675,4.194,11.068c3.639,3.395,13.095,0.781,13.095,0.781s1.996-7.33,0.267-10.064c-1.728-2.736-8.726-5.686-10.966-5.391"></path><linearGradient id="hair3XMLID_1466_" gradientUnits="userSpaceOnUse" x1="321.4668" y1="407" x2="321.4668" y2="92.0006"><stop offset="0" style="stop-color:#FCFCE4"></stop><stop offset="0.5" style="stop-color:#A0C8DD"></stop><stop offset="1" style="stop-color:#5D6EC5"></stop></linearGradient><path style="fill:url(#hair3XMLID_1466_);stroke:#1E1E1E;stroke-linecap:round;stroke-linejoin:round;" d="M315.04,314.336c-0.66,1.909-0.397,7.346,1.183,8.96c1.579,1.615,7.64,2.639,8.466,0.25c0.825-2.388,5.041-8.415,2.984-10.194c-2.058-1.779-7.806-2.16-7.806-2.16"></path><linearGradient id="hair3XMLID_1467_" gradientUnits="userSpaceOnUse" x1="340.1025" y1="407" x2="340.1025" y2="92.0005"><stop offset="0" style="stop-color:#FCFCE4"></stop><stop offset="0.5" style="stop-color:#A0C8DD"></stop><stop offset="1" style="stop-color:#5D6EC5"></stop></linearGradient><path style="fill:url(#hair3XMLID_1467_);stroke:#1E1E1E;stroke-linecap:round;stroke-linejoin:round;" d="M322.61,323.364c0,0,4.59,19.224,20.963,12.049c2.259-1.894,13.823-7.522,14.021-11.196c-4.496,2.19-9.636,4.692-12.649,2.581c-3.014-2.108-4.065-8.351-7.407-9.505C334.194,316.139,324.146,314.273,322.61,323.364z"></path></g><linearGradient id="hair3XMLID_1468_" gradientUnits="userSpaceOnUse" x1="279.8574" y1="407" x2="279.8574" y2="91.9999"><stop offset="0" style="stop-color:#FCFCE4"></stop><stop offset="0.5" style="stop-color:#A0C8DD"></stop><stop offset="1" style="stop-color:#5D6EC5"></stop></linearGradient><path style="fill:url(#hair3XMLID_1468_);stroke:#1E1E1E;stroke-linecap:round;stroke-linejoin:round;" d="M274.911,241.685c0,0,1.167,10.558,9.894,16.244"></path><linearGradient id="hair3XMLID_1469_" gradientUnits="userSpaceOnUse" x1="288.0342" y1="407" x2="288.0342" y2="92.0008"><stop offset="0" style="stop-color:#FCFCE4"></stop><stop offset="0.5" style="stop-color:#A0C8DD"></stop><stop offset="1" style="stop-color:#5D6EC5"></stop></linearGradient><path style="fill:url(#hair3XMLID_1469_);stroke:#1E1E1E;stroke-linecap:round;stroke-linejoin:round;" d="M291.974,244.902c0,0-7.795,11.741-7.879,19.729"></path><linearGradient id="hair3XMLID_1470_" gradientUnits="userSpaceOnUse" x1="287.3789" y1="407" x2="287.3789" y2="91.9995"><stop offset="0" style="stop-color:#FCFCE4"></stop><stop offset="0.5" style="stop-color:#A0C8DD"></stop><stop offset="1" style="stop-color:#5D6EC5"></stop></linearGradient><path style="fill:url(#hair3XMLID_1470_);stroke:#1E1E1E;stroke-linecap:round;stroke-linejoin:round;" d="M281.329,270.935c0,0,2.653,10.284,12.101,14.675"></path><linearGradient id="hair3XMLID_1471_" gradientUnits="userSpaceOnUse" x1="296.1152" y1="407" x2="296.1152" y2="92.0003"><stop offset="0" style="stop-color:#FCFCE4"></stop><stop offset="0.5" style="stop-color:#A0C8DD"></stop><stop offset="1" style="stop-color:#5D6EC5"></stop></linearGradient><path style="fill:url(#hair3XMLID_1471_);stroke:#1E1E1E;stroke-linecap:round;stroke-linejoin:round;" d="M298.677,271.697c0,0-6.051,12.729-5,20.647"></path><linearGradient id="hair3XMLID_1472_" gradientUnits="userSpaceOnUse" x1="308.3965" y1="407" x2="308.3965" y2="92.0004"><stop offset="0" style="stop-color:#FCFCE4"></stop><stop offset="0.5" style="stop-color:#A0C8DD"></stop><stop offset="1" style="stop-color:#5D6EC5"></stop></linearGradient><path style="fill:url(#hair3XMLID_1472_);stroke:#1E1E1E;stroke-linecap:round;stroke-linejoin:round;" d="M311.282,277.226c0,0-3.94,9.865-5.772,16.714"></path></g></g></g></svg>