<svg xmlns="http://www.w3.org/2000/svg" width="500" height="500" version="1.1"><g id="x160"><g><linearGradient id="hair3XMLID_1473_" gradientUnits="userSpaceOnUse" x1="356.4082" y1="255" x2="356.4082" y2="200.9999"><stop offset="0" style="stop-color:#FCFCE4"></stop><stop offset="0.5" style="stop-color:#A0C8DD"></stop><stop offset="1" style="stop-color:#5D6EC5"></stop></linearGradient><path style="fill:url(#hair3XMLID_1473_);stroke:#1E1E1E;stroke-linecap:round;stroke-linejoin:round;" d="M364.591,166.561c-0.224,0.896-1.119,22.868-16.366,28.472c4.935-26.455,4.035-46.183,4.035-46.183L364.591,166.561z"></path><g><linearGradient id="hair3XMLID_1474_" gradientUnits="userSpaceOnUse" x1="339.4521" y1="255" x2="339.4521" y2="201"><stop offset="0" style="stop-color:#FCFCE4"></stop><stop offset="0.5" style="stop-color:#A0C8DD"></stop><stop offset="1" style="stop-color:#5D6EC5"></stop></linearGradient><path style="fill:url(#hair3XMLID_1474_);stroke:#1E1E1E;stroke-linecap:round;stroke-linejoin:round;" d="M364.975,158.893c0,0,1.187-25.96-12.938-33.359c-6.723-3.521-14.455-2.927-20.793-1.34c2.073-5.744,0.754-11.654-0.281-15.922c-3.021,10.162-8.396,13.926-12.108,15.322c-1.216-0.214-2.213-0.253-2.913-0.077c-5.38,1.345-7.847,8.294-7.398,13.451c0.45,5.156,8.817,10.672,18.832,21.523c25.558,27.688,2.915,58.29,2.915,58.29s27.353-6.053,25.782-46.855c-0.195-5.037-1.01-9.433-2.369-13.276c5.023,5.746,9.619,14.275,8.646,25.83c-2.017,23.989-16.365,29.369-16.365,29.369s21.748-3.812,24.213-27.126C371.077,176.394,369.267,167.268,364.975,158.893z M350.923,141.734c-3.679-3.751-8.869-7.456-14.173-10.542c4.35-0.496,9.166-0.364,12.372,1.741c5.313,3.486,6.567,10.163,6.861,13.398C354.417,144.711,352.732,143.171,350.923,141.734z"></path></g></g></g></svg>