<svg xmlns="http://www.w3.org/2000/svg" width="500" height="500" version="1.1"><g id="x161"><linearGradient id="hair3XMLID_1475_" gradientUnits="userSpaceOnUse" x1="340.0615" y1="255" x2="340.0615" y2="201.0001"><stop offset="0" style="stop-color:#FCFCE4"></stop><stop offset="0.5" style="stop-color:#A0C8DD"></stop><stop offset="1" style="stop-color:#5D6EC5"></stop></linearGradient><path style="fill:url(#hair3XMLID_1475_);stroke:#1E1E1E;stroke-linecap:round;stroke-linejoin:round;" d="M310.087,192.921c-7.655,37.827-4.504,55.838,4.953,67.096c-2.251-13.059,6.754-27.469,6.754-27.469s4.504,36.024,0.451,42.328c17.11-5.854,36.925-33.771,36.475-67.996c5.404,16.211-0.9,39.177-3.603,51.336c12.158-15.311,22.063-41.88,18.463-60.341c-3.603-18.463-14.86-73.401-36.024-81.507c-7.656-1.801-24.316,7.206-27.921,16.212C306.438,139.618,306.483,164.553,310.087,192.921z"></path></g></svg>