<svg xmlns="http://www.w3.org/2000/svg" width="500" height="500" version="1.1"><g id="x163"><g><linearGradient id="hair3XMLID_1478_" gradientUnits="userSpaceOnUse" x1="250.0005" y1="115.4644" x2="250.0005" y2="66.1093"><stop offset="0" style="stop-color:#FCFCE4"></stop><stop offset="0.5" style="stop-color:#A0C8DD"></stop><stop offset="1" style="stop-color:#5D6EC5"></stop></linearGradient><path style="fill:url(#hair3XMLID_1478_);stroke:#1E1E1E;stroke-linecap:round;stroke-linejoin:round;" d="M288.5,99.102c0-20.295-17.237-34.602-38.5-34.602c-21.262,0-38.5,14.307-38.5,34.603c0,6.388,1.71,11.011,4.714,14.35h67.572C286.79,110.113,288.5,105.49,288.5,99.102z"></path><g><path style="fill:#4D94E3;stroke:#1E1E1E;stroke-linecap:round;stroke-linejoin:round;" d="M298.406,111.372c-4.4,0.629-12.572,0-12.572,0s1.571-5.187-4.559-10.059c-2.721-0.302-5.841,0.268-8.696,0.731c-3.405,3.355-7.177-1.203-7.491-2.617c-2.986-3.144-27.189-3.144-30.176,0c-0.314,1.415-4.086,5.972-7.491,2.617c-2.856-0.463-5.977-1.033-8.697-0.731c-6.129,4.872-4.558,10.059-4.558,10.059s-8.172,0.629-12.573,0c-1.1,4.401-1.257,11.945,11.316,14.459c9.327-2.743,31.575-3.093,37.091-3.137c5.516,0.044,27.764,0.394,37.091,3.137C299.664,123.317,299.507,115.773,298.406,111.372z"></path><g><path style="fill:#2E6BAB;" d="M219.079,101.875c0,0,6.25-0.25,8,0.625c2.125,1.5,2.625,1.375,4.625,0.75s3.625-3.75,3.625-3.75s1.625,14-1.75,14.75S219.079,101.875,219.079,101.875z"></path><path style="fill:#2E6BAB;" d="M280.921,101.875c0,0-6.25-0.25-8,0.625c-2.125,1.5-2.625,1.375-4.625,0.75s-3.625-3.75-3.625-3.75s-1.625,14,1.75,14.75S280.921,101.875,280.921,101.875z"></path></g></g></g></g></svg>