<svg xmlns="http://www.w3.org/2000/svg" width="500" height="500" version="1.1"><g id="x9166"><g><g><g><linearGradient id="hair3XMLID_1495_" gradientUnits="userSpaceOnUse" x1="115.6577" y1="304" x2="115.6577" y2="278.5"><stop offset="0" style="stop-color:#FCFCE4"></stop><stop offset="0.5" style="stop-color:#A0C8DD"></stop><stop offset="1" style="stop-color:#5D6EC5"></stop></linearGradient><path style="fill:url(#hair3XMLID_1495_);stroke:#1E1E1E;stroke-linecap:round;stroke-linejoin:round;" d="M136.272,260.097c0,0,9.758,29.104-16.434,37.543c-20.942,6.749-26.575-12.54-26.575-12.54s30.17,11.377,27.815-34.246C128.754,257.377,136.272,260.097,136.272,260.097z"></path><linearGradient id="hair3XMLID_1496_" gradientUnits="userSpaceOnUse" x1="137.9399" y1="289.7559" x2="137.9399" y2="226.7911"><stop offset="0" style="stop-color:#FCFCE4"></stop><stop offset="0.5" style="stop-color:#A0C8DD"></stop><stop offset="1" style="stop-color:#5D6EC5"></stop></linearGradient><path style="fill:url(#hair3XMLID_1496_);stroke:#1E1E1E;stroke-linecap:round;stroke-linejoin:round;" d="M173.417,160c0,0-16.6,24.76-15.641,36.174c0.96,11.416,9.591,40.768-2.398,54.902c5.546-16.299-2.877-32.614-2.877-32.614s0.001,17.936-8.153,29.896c5.756,5.438,30.214,27.178,13.908,58.707c0,0,1.438-15.222-1.438-23.375c1.025,18.752-5.138,41.453-40.288,34.789c15.122-3.813,20.623-19.023,12.95-33.7c-7.673-14.676-31.174-21.198-26.377-55.446c4.795-34.244,39.806-61.423,39.806-61.423L173.417,160z"></path><path style="fill:none;stroke:#000000;stroke-linecap:round;stroke-linejoin:round;" d="M150.524,213.823c0,0-10.015-22.7,0.77-40.162"></path><linearGradient id="hair3XMLID_1497_" gradientUnits="userSpaceOnUse" x1="141.1162" y1="208.4004" x2="141.1162" y2="158.1971"><stop offset="0" style="stop-color:#FCFCE4"></stop><stop offset="0.5" style="stop-color:#A0C8DD"></stop><stop offset="1" style="stop-color:#5D6EC5"></stop></linearGradient><path style="fill:url(#hair3XMLID_1497_);stroke:#1E1E1E;stroke-linecap:round;stroke-linejoin:round;" d="M181.75,147.667c0,0-51.374,3.819-72.439,36.289C99.682,198.798,93.93,241.5,110.43,257.5c17.334,16.809,50.88,22.495,71.807-3.337c-19.771,4.878-47.96-4.892-50.358-44.03c-2.398-39.137,33.372-47.967,33.372-47.967L181.75,147.667z"></path><linearGradient id="hair3XMLID_1498_" gradientUnits="userSpaceOnUse" x1="142.0898" y1="206.7134" x2="142.0898" y2="156.1169"><stop offset="0" style="stop-color:#FCFCE4"></stop><stop offset="0.5" style="stop-color:#A0C8DD"></stop><stop offset="1" style="stop-color:#5D6EC5"></stop></linearGradient><path style="fill:url(#hair3XMLID_1498_);stroke:#1E1E1E;stroke-linecap:round;stroke-linejoin:round;" d="M131.883,259.041c1.926,0.873,17.332,16.152,38.518,12.66c-21.956,8.294-45.471,5.299-56.621-14.843"></path></g><g><linearGradient id="hair3XMLID_1499_" gradientUnits="userSpaceOnUse" x1="142.1221" y1="119.9258" x2="142.1221" y2="193.7356"><stop offset="0" style="stop-color:#FCFCE4"></stop><stop offset="0.5" style="stop-color:#A0C8DD"></stop><stop offset="1" style="stop-color:#5D6EC5"></stop></linearGradient><path style="fill:url(#hair3XMLID_1499_);stroke:#1E1E1E;stroke-linecap:round;stroke-linejoin:round;" d="M181.917,149.333c-1.5-7.5-18.262,2.534-31.333,0.667c-32.964-3.867-33.166-42.591-33.69-52.553c-6.272,13.074-1.566,17.432-1.566,17.432s-7.842-12.452-8.887-23.658c-8.011,52.779,4.706,62.259,19.862,70.974c-14.637,0.622-24.044-11.207-24.044-11.207s5.171,26.511,35.022,28.639C159.915,181.241,183.417,156.833,181.917,149.333z"></path><path style="fill:none;stroke:#000000;stroke-linecap:round;stroke-linejoin:round;" d="M162.786,157.5c0,0-11.755,9.5-26.448,4.5"></path></g></g><g><g><linearGradient id="hair3XMLID_1500_" gradientUnits="userSpaceOnUse" x1="310.6582" y1="304" x2="310.6582" y2="278.5" gradientTransform="matrix(-1 0 0 1 695 0)"><stop offset="0" style="stop-color:#FCFCE4"></stop><stop offset="0.5" style="stop-color:#A0C8DD"></stop><stop offset="1" style="stop-color:#5D6EC5"></stop></linearGradient><path style="fill:url(#hair3XMLID_1500_);stroke:#1E1E1E;stroke-linecap:round;stroke-linejoin:round;" d="M363.728,260.097c0,0-9.758,29.104,16.434,37.543c20.942,6.749,26.575-12.54,26.575-12.54s-30.17,11.377-27.815-34.246C371.246,257.377,363.728,260.097,363.728,260.097z"></path><linearGradient id="hair3XMLID_1501_" gradientUnits="userSpaceOnUse" x1="332.9395" y1="289.7559" x2="332.9395" y2="226.7911" gradientTransform="matrix(-1 0 0 1 695 0)"><stop offset="0" style="stop-color:#FCFCE4"></stop><stop offset="0.5" style="stop-color:#A0C8DD"></stop><stop offset="1" style="stop-color:#5D6EC5"></stop></linearGradient><path style="fill:url(#hair3XMLID_1501_);stroke:#1E1E1E;stroke-linecap:round;stroke-linejoin:round;" d="M326.583,160c0,0,16.6,24.76,15.641,36.174c-0.96,11.416-9.591,40.768,2.398,54.902c-5.546-16.299,2.877-32.614,2.877-32.614s-0.001,17.936,8.153,29.896c-5.756,5.438-30.214,27.178-13.908,58.707c0,0-1.438-15.222,1.438-23.375c-1.025,18.752,5.138,41.453,40.288,34.789c-15.122-3.813-20.623-19.023-12.95-33.7c7.673-14.676,31.174-21.198,26.377-55.446c-4.795-34.244-39.806-61.423-39.806-61.423L326.583,160z"></path><path style="fill:none;stroke:#000000;stroke-linecap:round;stroke-linejoin:round;" d="M349.476,213.823c0,0,10.015-22.7-0.77-40.162"></path><linearGradient id="hair3XMLID_1502_" gradientUnits="userSpaceOnUse" x1="336.1162" y1="208.4004" x2="336.1162" y2="158.1971" gradientTransform="matrix(-1 0 0 1 695 0)"><stop offset="0" style="stop-color:#FCFCE4"></stop><stop offset="0.5" style="stop-color:#A0C8DD"></stop><stop offset="1" style="stop-color:#5D6EC5"></stop></linearGradient><path style="fill:url(#hair3XMLID_1502_);stroke:#1E1E1E;stroke-linecap:round;stroke-linejoin:round;" d="M318.25,147.667c0,0,51.374,3.819,72.439,36.289c9.629,14.843,15.381,57.544-1.119,73.544c-17.334,16.809-50.88,22.495-71.807-3.337c19.771,4.878,47.96-4.892,50.358-44.03c2.398-39.137-33.372-47.967-33.372-47.967L318.25,147.667z"></path><linearGradient id="hair3XMLID_1503_" gradientUnits="userSpaceOnUse" x1="337.0898" y1="206.7134" x2="337.0898" y2="156.1169" gradientTransform="matrix(-1 0 0 1 695 0)"><stop offset="0" style="stop-color:#FCFCE4"></stop><stop offset="0.5" style="stop-color:#A0C8DD"></stop><stop offset="1" style="stop-color:#5D6EC5"></stop></linearGradient><path style="fill:url(#hair3XMLID_1503_);stroke:#1E1E1E;stroke-linecap:round;stroke-linejoin:round;" d="M368.117,259.041c-1.926,0.873-17.332,16.152-38.518,12.66c21.956,8.294,45.471,5.299,56.621-14.843"></path></g><g><linearGradient id="hair3XMLID_1504_" gradientUnits="userSpaceOnUse" x1="337.1221" y1="119.9258" x2="337.1221" y2="193.7356" gradientTransform="matrix(-1 0 0 1 695 0)"><stop offset="0" style="stop-color:#FCFCE4"></stop><stop offset="0.5" style="stop-color:#A0C8DD"></stop><stop offset="1" style="stop-color:#5D6EC5"></stop></linearGradient><path style="fill:url(#hair3XMLID_1504_);stroke:#1E1E1E;stroke-linecap:round;stroke-linejoin:round;" d="M318.083,149.333c1.5-7.5,18.263,2.534,31.333,0.667c32.965-3.867,33.166-42.591,33.69-52.553c6.272,13.074,1.566,17.432,1.566,17.432s7.842-12.452,8.887-23.658c8.011,52.779-4.706,62.259-19.862,70.974c14.637,0.622,24.044-11.207,24.044-11.207s-5.171,26.511-35.022,28.639C340.085,181.241,316.583,156.833,318.083,149.333z"></path><path style="fill:none;stroke:#000000;stroke-linecap:round;stroke-linejoin:round;" d="M337.214,157.5c0,0,11.755,9.5,26.448,4.5"></path></g></g></g></g></svg>