<svg xmlns="http://www.w3.org/2000/svg" width="500" height="500" version="1.1"><g id="x9167"><g><linearGradient id="hair3XMLID_1505_" gradientUnits="userSpaceOnUse" x1="162.3218" y1="399" x2="162.3218" y2="167"><stop offset="0" style="stop-color:#FCFCE4"></stop><stop offset="0.5" style="stop-color:#A0C8DD"></stop><stop offset="1" style="stop-color:#5D6EC5"></stop></linearGradient><path style="fill:url(#hair3XMLID_1505_);stroke:#1E1E1E;stroke-linecap:round;stroke-linejoin:round;" d="M195.25,137.25c0,0-4-10.75-21.75-8.747c-13.5,9.327-26,34.565-27,53.769s0.5,106.439-4.5,121.254c-5,14.813-33.5,86.688,16.5,112.475c-4-6.584-2.5-8.778-2.5-8.778s4.5,7.681,14,8.229c-9.5-22.495,16.604-44.571,8.5-121.802C169,203.121,195.25,137.25,195.25,137.25z"></path><linearGradient id="hair3XMLID_1506_" gradientUnits="userSpaceOnUse" x1="137.6177" y1="399" x2="137.6177" y2="167"><stop offset="0" style="stop-color:#FCFCE4"></stop><stop offset="0.5" style="stop-color:#A0C8DD"></stop><stop offset="1" style="stop-color:#5D6EC5"></stop></linearGradient><path style="fill:url(#hair3XMLID_1506_);stroke:#1E1E1E;stroke-linecap:round;stroke-linejoin:round;" d="M147.201,176c0,0-1,19-25,29c16,1,23.167-0.667,30.833-12"></path></g></g></svg>