<svg xmlns="http://www.w3.org/2000/svg" width="500" height="500" version="1.1"><g id="x9168"><g><g><linearGradient id="hair3XMLID_1507_" gradientUnits="userSpaceOnUse" x1="152.4014" y1="217.5" x2="152.4014" y2="292.0002"><stop offset="0" style="stop-color:#FCFCE4"></stop><stop offset="0.5" style="stop-color:#A0C8DD"></stop><stop offset="1" style="stop-color:#5D6EC5"></stop></linearGradient><path style="fill:url(#hair3XMLID_1507_);stroke:#1E1E1E;stroke-linecap:round;stroke-linejoin:round;" d="M133.173,268.167c0,0-2.167-14.5,15.884-20.905c16.415-4.863,32.83-13.982,32.83-13.982l-0.913-13.983c0,0-5.167,2.127-15.502,10.943c-10.335,8.816-33.438,8.816-42.558,2.128c1.824,6.08,4.894,11.525,14.925,12.133c-6.833,7.167-11.277,15.833-12.188,25.561C130.21,268.236,133.173,268.167,133.173,268.167z"></path><g><linearGradient id="hair3XMLID_1508_" gradientUnits="userSpaceOnUse" x1="154.0005" y1="217.5" x2="154.0005" y2="292"><stop offset="0" style="stop-color:#FCFCE4"></stop><stop offset="0.5" style="stop-color:#A0C8DD"></stop><stop offset="1" style="stop-color:#5D6EC5"></stop></linearGradient><path style="fill:url(#hair3XMLID_1508_);stroke:#1E1E1E;stroke-linecap:round;stroke-linejoin:round;" d="M180.671,233.887c0,0-9.423-3.952-23.102,7.295c-13.679,11.247-12.608,21.483-26.143,24.622c-20.975,4.864-29.79-10.639-29.79-10.639s-4.56,17.022,16.111,28.271c-3.648,10.64-8.512,39.517,17.63,48.028c-11.872-12.631-6.08-26.143-6.08-26.143s6.992,24.319,41.949,18.544c7.903,1.52,20.259-0.199,26.925-10.032c-14.833,2.333-26.833-1.5-31.833-3.834c3-3.166,6.125-8.325,6.125-8.325s28.574-0.607,33.741-18.542C211.374,265.197,180.671,233.887,180.671,233.887z"></path><path style="fill:none;stroke:#000000;stroke-linecap:round;stroke-linejoin:round;" d="M117.748,283.437c0,0,7.758,4.396,17.592-1.437"></path><path style="fill:none;stroke:#000000;stroke-linecap:round;stroke-linejoin:round;" d="M154.673,313.334c0.167,0.5,4,9.333,17.167,10.5"></path><path style="fill:none;stroke:#000000;stroke-linecap:round;stroke-linejoin:round;" d="M151.84,288.834c0,0-1.333,15.166,12.5,20"></path><path style="fill:none;stroke:#000000;stroke-linecap:round;stroke-linejoin:round;" d="M151.673,284.5c0,0,0.424-18.999,13.495-29.638"></path><path style="fill:none;stroke:#000000;stroke-linecap:round;stroke-linejoin:round;" d="M156.657,284.956c0,0,7.903-13.68,23.406-18.847"></path><linearGradient id="hair3XMLID_1509_" gradientUnits="userSpaceOnUse" x1="180.9785" y1="217.5" x2="180.9785" y2="292"><stop offset="0" style="stop-color:#FCFCE4"></stop><stop offset="0.5" style="stop-color:#A0C8DD"></stop><stop offset="1" style="stop-color:#5D6EC5"></stop></linearGradient><path style="fill:url(#hair3XMLID_1509_);stroke:#1E1E1E;stroke-linecap:round;stroke-linejoin:round;" d="M194.351,271.276c0,0-3.04,15.199-15.807,20.671c-10.577,4.534-21.886,0-21.886,0s8.207,17.023,28.878,10.335c20.67-6.688,19.759-19.149,19.759-19.149"></path></g></g><g><linearGradient id="hair3XMLID_1510_" gradientUnits="userSpaceOnUse" x1="347.5986" y1="217.5" x2="347.5986" y2="292.0002"><stop offset="0" style="stop-color:#FCFCE4"></stop><stop offset="0.5" style="stop-color:#A0C8DD"></stop><stop offset="1" style="stop-color:#5D6EC5"></stop></linearGradient><path style="fill:url(#hair3XMLID_1510_);stroke:#1E1E1E;stroke-linecap:round;stroke-linejoin:round;" d="M366.826,268.167c0,0,2.167-14.5-15.884-20.905c-16.415-4.863-32.83-13.982-32.83-13.982l0.913-13.983c0,0,5.166,2.127,15.502,10.943c10.336,8.816,33.438,8.816,42.558,2.128c-1.823,6.08-4.894,11.525-14.925,12.133c6.833,7.167,11.277,15.833,12.188,25.561C369.789,268.236,366.826,268.167,366.826,268.167z"></path><g><linearGradient id="hair3XMLID_1511_" gradientUnits="userSpaceOnUse" x1="346" y1="217.5" x2="346" y2="292"><stop offset="0" style="stop-color:#FCFCE4"></stop><stop offset="0.5" style="stop-color:#A0C8DD"></stop><stop offset="1" style="stop-color:#5D6EC5"></stop></linearGradient><path style="fill:url(#hair3XMLID_1511_);stroke:#1E1E1E;stroke-linecap:round;stroke-linejoin:round;" d="M319.328,233.887c0,0,9.424-3.952,23.103,7.295s12.608,21.483,26.143,24.622c20.976,4.864,29.79-10.639,29.79-10.639s4.56,17.022-16.111,28.271c3.648,10.64,8.512,39.517-17.631,48.028c11.872-12.631,6.08-26.143,6.08-26.143s-6.992,24.319-41.949,18.544c-7.903,1.52-20.259-0.199-26.926-10.032c14.834,2.333,26.834-1.5,31.834-3.834c-3-3.166-6.125-8.325-6.125-8.325s-28.573-0.607-33.74-18.542C288.627,265.197,319.328,233.887,319.328,233.887z"></path><path style="fill:none;stroke:#000000;stroke-linecap:round;stroke-linejoin:round;" d="M382.252,283.437c0,0-7.758,4.396-17.592-1.437"></path><path style="fill:none;stroke:#000000;stroke-linecap:round;stroke-linejoin:round;" d="M345.326,313.334c-0.166,0.5-4,9.333-17.166,10.5"></path><path style="fill:none;stroke:#000000;stroke-linecap:round;stroke-linejoin:round;" d="M348.16,288.834c0,0,1.334,15.166-12.5,20"></path><path style="fill:none;stroke:#000000;stroke-linecap:round;stroke-linejoin:round;" d="M348.326,284.5c0,0-0.424-18.999-13.494-29.638"></path><path style="fill:none;stroke:#000000;stroke-linecap:round;stroke-linejoin:round;" d="M343.343,284.956c0,0-7.903-13.68-23.406-18.847"></path><linearGradient id="hair3XMLID_1512_" gradientUnits="userSpaceOnUse" x1="319.0215" y1="217.5" x2="319.0215" y2="292"><stop offset="0" style="stop-color:#FCFCE4"></stop><stop offset="0.5" style="stop-color:#A0C8DD"></stop><stop offset="1" style="stop-color:#5D6EC5"></stop></linearGradient><path style="fill:url(#hair3XMLID_1512_);stroke:#1E1E1E;stroke-linecap:round;stroke-linejoin:round;" d="M305.649,271.276c0,0,3.04,15.199,15.808,20.671c10.576,4.534,21.886,0,21.886,0s-8.207,17.023-28.878,10.335c-20.67-6.688-19.759-19.149-19.759-19.149"></path></g></g></g></g></svg>