<svg xmlns="http://www.w3.org/2000/svg" width="500" height="500" version="1.1"><g id="x017"><g><g><linearGradient id="hair3XMLID_826_" gradientUnits="userSpaceOnUse" x1="160.6519" y1="385" x2="160.6518" y2="130.0003"><stop offset="0" style="stop-color:#FCFCE4"></stop><stop offset="0.5" style="stop-color:#A0C8DD"></stop><stop offset="1" style="stop-color:#5D6EC5"></stop></linearGradient><path style="fill:url(#hair3XMLID_826_);stroke:#1E1E1E;stroke-linecap:round;stroke-linejoin:round;" d="M166.309,182.75c0,0,6.398,58.132-8.71,77.648c3.757-18.676-2.153-53.834-3.949-63.334"></path><linearGradient id="hair3XMLID_827_" gradientUnits="userSpaceOnUse" x1="167.0396" y1="385" x2="167.0395" y2="129.9994"><stop offset="0" style="stop-color:#FCFCE4"></stop><stop offset="0.5" style="stop-color:#A0C8DD"></stop><stop offset="1" style="stop-color:#5D6EC5"></stop></linearGradient><path style="fill:url(#hair3XMLID_827_);stroke:#1E1E1E;stroke-linecap:round;stroke-linejoin:round;" d="M193.195,150c0,0-3.482-20.156-6.798-22.032c-3.314-1.876-11.323-3.432-16.899-2.031c-41.684,29.048-37.21,111.018,9.413,131.091c-15.217-19.353-9.482-46.386-1.625-71.27C185.144,160.875,192.682,159.276,193.195,150z"></path><linearGradient id="hair3XMLID_828_" gradientUnits="userSpaceOnUse" x1="146.3613" y1="385" x2="146.3613" y2="130.0002"><stop offset="0" style="stop-color:#FCFCE4"></stop><stop offset="0.5" style="stop-color:#A0C8DD"></stop><stop offset="1" style="stop-color:#5D6EC5"></stop></linearGradient><path style="fill:url(#hair3XMLID_828_);stroke:#1E1E1E;stroke-linecap:round;stroke-linejoin:round;" d="M145.874,207.086c-0.067,12.096,1.086,28.656,6.785,40.524c-12.103-17.494-14.964-43.922-10.793-72.018"></path></g><g><linearGradient id="hair3XMLID_829_" gradientUnits="userSpaceOnUse" x1="339.3477" y1="385" x2="339.3477" y2="130.0003"><stop offset="0" style="stop-color:#FCFCE4"></stop><stop offset="0.5" style="stop-color:#A0C8DD"></stop><stop offset="1" style="stop-color:#5D6EC5"></stop></linearGradient><path style="fill:url(#hair3XMLID_829_);stroke:#1E1E1E;stroke-linecap:round;stroke-linejoin:round;" d="M333.691,182.75c0,0-6.399,58.132,8.707,77.648c-3.755-18.676,2.155-53.834,3.952-63.334"></path><linearGradient id="hair3XMLID_830_" gradientUnits="userSpaceOnUse" x1="332.9609" y1="385" x2="332.9609" y2="129.9994"><stop offset="0" style="stop-color:#FCFCE4"></stop><stop offset="0.5" style="stop-color:#A0C8DD"></stop><stop offset="1" style="stop-color:#5D6EC5"></stop></linearGradient><path style="fill:url(#hair3XMLID_830_);stroke:#1E1E1E;stroke-linecap:round;stroke-linejoin:round;" d="M306.806,150c0,0,3.481-20.156,6.797-22.032c3.314-1.876,11.324-3.432,16.899-2.031c41.685,29.048,37.212,111.018-9.411,131.091c15.217-19.353,9.48-46.386,1.623-71.27C314.856,160.875,307.318,159.276,306.806,150z"></path><linearGradient id="hair3XMLID_831_" gradientUnits="userSpaceOnUse" x1="353.6387" y1="385" x2="353.6387" y2="130.0002"><stop offset="0" style="stop-color:#FCFCE4"></stop><stop offset="0.5" style="stop-color:#A0C8DD"></stop><stop offset="1" style="stop-color:#5D6EC5"></stop></linearGradient><path style="fill:url(#hair3XMLID_831_);stroke:#1E1E1E;stroke-linecap:round;stroke-linejoin:round;" d="M354.126,207.086c0.068,12.096-1.086,28.656-6.785,40.524c12.104-17.494,14.964-43.922,10.794-72.018"></path></g></g></g></svg>