<svg xmlns="http://www.w3.org/2000/svg" width="500" height="500" version="1.1"><g id="x9169"><g><g><linearGradient id="hair3XMLID_1513_" gradientUnits="userSpaceOnUse" x1="320.167" y1="125" x2="320.167" y2="183.6668"><stop offset="0" style="stop-color:#FCFCE4"></stop><stop offset="0.5" style="stop-color:#A0C8DD"></stop><stop offset="1" style="stop-color:#5D6EC5"></stop></linearGradient><path style="fill:url(#hair3XMLID_1513_);stroke:#1E1E1E;stroke-linecap:round;stroke-linejoin:round;" d="M296,126.667c0,0,23.334-13.667,48.334-9.667c-0.668,36.667-13.668,48.333-13.668,48.333L296,126.667z"></path><g><path style="fill:#4F9388;stroke:#000000;stroke-linecap:round;stroke-linejoin:round;" d="M306.916,121.5c0,0,10.5,4.25,18.25,13s11.701,21.75,11.701,21.75l3.549-10c0,0-0.25-9-9.25-18.5c-7.424-7.838-11.082-9.25-12.75-9.5C314.584,118.333,306.916,121.5,306.916,121.5z"></path><path style="fill:#40B8A5;" d="M322.166,129.75c0,0,5.75,5.75,8.25,10c0.25-2.75,4.5-4.75,4.5-4.75c-3.5-6.25-6.75-7.5-6.75-7.5S323.166,130,322.166,129.75z"></path></g><g><path style="fill:#4F9388;stroke:#000000;stroke-linecap:round;stroke-linejoin:round;" d="M329.666,116.333c0,0,11.584,6.417,13.834,14.417c0.75-3,0.666-8,0.666-8s-0.25-3.583-6.25-6.583C333.5,115.75,329.666,116.333,329.666,116.333z"></path><path style="fill:#40B8A5;" d="M337,120.667c0,0,3.5,2.5,4.25,4.5c0.75-1,1.834-3.25,1.834-3.25s-1.084-2.083-2.584-2.833C339.75,119.833,337,120.667,337,120.667z"></path></g></g><g><linearGradient id="hair3XMLID_1514_" gradientUnits="userSpaceOnUse" x1="179.8335" y1="125" x2="179.8335" y2="183.6668"><stop offset="0" style="stop-color:#FCFCE4"></stop><stop offset="0.5" style="stop-color:#A0C8DD"></stop><stop offset="1" style="stop-color:#5D6EC5"></stop></linearGradient><path style="fill:url(#hair3XMLID_1514_);stroke:#1E1E1E;stroke-linecap:round;stroke-linejoin:round;" d="M204,126.667c0,0-23.334-13.667-48.334-9.667c0.667,36.667,13.667,48.333,13.667,48.333L204,126.667z"></path><g><path style="fill:#4F9388;stroke:#000000;stroke-linecap:round;stroke-linejoin:round;" d="M193.083,121.5c0,0-10.5,4.25-18.25,13s-11.701,21.75-11.701,21.75l-3.549-10c0,0,0.25-9,9.25-18.5c7.425-7.838,11.083-9.25,12.75-9.5C185.417,118.333,193.083,121.5,193.083,121.5z"></path><path style="fill:#40B8A5;" d="M177.833,129.75c0,0-5.75,5.75-8.25,10c-0.25-2.75-4.5-4.75-4.5-4.75c3.5-6.25,6.75-7.5,6.75-7.5S176.833,130,177.833,129.75z"></path></g><g><path style="fill:#4F9388;stroke:#000000;stroke-linecap:round;stroke-linejoin:round;" d="M170.333,116.333c0,0-11.583,6.417-13.833,14.417c-0.75-3-0.667-8-0.667-8s0.25-3.583,6.25-6.583C166.5,115.75,170.333,116.333,170.333,116.333z"></path><path style="fill:#40B8A5;" d="M163,120.667c0,0-3.5,2.5-4.25,4.5c-0.75-1-1.834-3.25-1.834-3.25s1.084-2.083,2.584-2.833C160.25,119.833,163,120.667,163,120.667z"></path></g></g></g></g></svg>