<svg xmlns="http://www.w3.org/2000/svg" width="500" height="500" version="1.1"><g id="x9170"><g><g><linearGradient id="hair3XMLID_1515_" gradientUnits="userSpaceOnUse" x1="355.0078" y1="121.666" x2="355.0078" y2="332.3376"><stop offset="0" style="stop-color:#FCFCE4"></stop><stop offset="0.5" style="stop-color:#A0C8DD"></stop><stop offset="1" style="stop-color:#5D6EC5"></stop></linearGradient><path style="fill:url(#hair3XMLID_1515_);stroke:#1E1E1E;stroke-linecap:round;stroke-linejoin:round;" d="M316.463,189c0,0,6.506,15.626,49.691,72.65c4.109,6.84,42.383,41.537,39.768,44.258c-6.443,1.594-41.094-4.127-61.158-23.236S283.172,179.315,316.463,189z"></path><linearGradient id="hair3XMLID_1516_" gradientUnits="userSpaceOnUse" x1="370.208" y1="291.3711" x2="390.292" y2="291.3711"><stop offset="0" style="stop-color:#DBFFA3"></stop><stop offset="0.0954" style="stop-color:#D1FDA5"></stop><stop offset="0.2568" style="stop-color:#B7F9A9"></stop><stop offset="0.4644" style="stop-color:#8BF2B0"></stop><stop offset="0.7102" style="stop-color:#50E7BA"></stop><stop offset="0.9854" style="stop-color:#04DBC6"></stop><stop offset="1" style="stop-color:#00DAC7"></stop></linearGradient><path style="fill:url(#hair3XMLID_1516_);stroke:#000000;stroke-linecap:round;stroke-linejoin:round;" d="M370.208,285c0,0,1.5,5.25,4.75,8.25s14.25,5.25,15.25,4.25s-7.25-9.75-9-10.75S370.708,285,370.208,285z"></path></g><g><linearGradient id="hair3XMLID_1517_" gradientUnits="userSpaceOnUse" x1="144.9907" y1="121.666" x2="144.9907" y2="332.3376"><stop offset="0" style="stop-color:#FCFCE4"></stop><stop offset="0.5" style="stop-color:#A0C8DD"></stop><stop offset="1" style="stop-color:#5D6EC5"></stop></linearGradient><path style="fill:url(#hair3XMLID_1517_);stroke:#1E1E1E;stroke-linecap:round;stroke-linejoin:round;" d="M183.533,189c0,0-6.505,15.626-49.689,72.65c-4.109,6.84-42.382,41.537-39.766,44.258c6.443,1.594,41.092-4.127,61.155-23.236S216.823,179.315,183.533,189z"></path><linearGradient id="hair3XMLID_1518_" gradientUnits="userSpaceOnUse" x1="159.2939" y1="291.3711" x2="179.3779" y2="291.3711" gradientTransform="matrix(-1 0 0 1 289.0859 0)"><stop offset="0" style="stop-color:#DBFFA3"></stop><stop offset="0.0954" style="stop-color:#D1FDA5"></stop><stop offset="0.2568" style="stop-color:#B7F9A9"></stop><stop offset="0.4644" style="stop-color:#8BF2B0"></stop><stop offset="0.7102" style="stop-color:#50E7BA"></stop><stop offset="0.9854" style="stop-color:#04DBC6"></stop><stop offset="1" style="stop-color:#00DAC7"></stop></linearGradient><path style="fill:url(#hair3XMLID_1518_);stroke:#000000;stroke-linecap:round;stroke-linejoin:round;" d="M129.792,285c0,0-1.5,5.25-4.75,8.25s-14.25,5.25-15.25,4.25s7.25-9.75,9-10.75S129.292,285,129.792,285z"></path></g></g></g></svg>