<svg xmlns="http://www.w3.org/2000/svg" width="500" height="500" version="1.1"><g id="x9172"><g><g><path style="fill:#FFFFFF;stroke:#000000;stroke-linecap:round;stroke-linejoin:round;" d="M154.574,175.019c0,0-4.697-4.983-4.308-6.9c0.389-1.917,4.948-8.854,4.948-8.854S154.815,170.877,154.574,175.019z"></path><path style="fill:#211817;stroke:#000000;stroke-linecap:round;stroke-linejoin:round;" d="M151.338,165.473l2.302,3.474l-0.134,5.167c0,0-3.917-4.401-3.879-5.067C149.667,168.38,151.338,165.473,151.338,165.473z"></path></g><g><linearGradient id="hair3XMLID_1531_" gradientUnits="userSpaceOnUse" x1="153.5977" y1="200.6411" x2="144.9311" y2="250.6413"><stop offset="0" style="stop-color:#FCFCE4"></stop><stop offset="0.5" style="stop-color:#A0C8DD"></stop><stop offset="1" style="stop-color:#5D6EC5"></stop></linearGradient><path style="fill:url(#hair3XMLID_1531_);stroke:#1E1E1E;stroke-linecap:round;stroke-linejoin:round;" d="M141.184,307.185c0,0,1.392,31.242-19.999,39.087c16.504-13.538,12.419-34.767,12.419-34.767"></path><linearGradient id="hair3XMLID_1532_" gradientUnits="userSpaceOnUse" x1="137.9497" y1="197.9292" x2="129.2832" y2="247.9293"><stop offset="0" style="stop-color:#FCFCE4"></stop><stop offset="0.5" style="stop-color:#A0C8DD"></stop><stop offset="1" style="stop-color:#5D6EC5"></stop></linearGradient><path style="fill:url(#hair3XMLID_1532_);stroke:#1E1E1E;stroke-linecap:round;stroke-linejoin:round;" d="M113.501,330.242c0,0-5.515,13.745-0.737,25.06c0.531-14.468,3.639-20.129,3.639-20.129"></path><linearGradient id="hair3XMLID_1533_" gradientUnits="userSpaceOnUse" x1="153.3628" y1="200.6006" x2="144.6963" y2="250.6006"><stop offset="0" style="stop-color:#FCFCE4"></stop><stop offset="0.5" style="stop-color:#A0C8DD"></stop><stop offset="1" style="stop-color:#5D6EC5"></stop></linearGradient><path style="fill:url(#hair3XMLID_1533_);stroke:#1E1E1E;stroke-linecap:round;stroke-linejoin:round;" d="M153.973,230.641c-20.121,30.19-4.11,59.771-8.445,74.203c-4.334,14.433-20.836,14.693-22.029,33.511c-1.314,20.741,6.867,25.937,6.867,25.937c-21.511-13.545-20.849-34.714-10.495-47.854c4.71-5.977,15.974-15.908,16.147-24.836c-0.463-4.575-12.315-20.588-12.241-24.414s10.24-14.806,23.877-33.803c13.531-27.702,2.824-74.132,10.772-84.841c11.685-3.868,21.47-0.027,21.47-0.027S175.827,197.849,153.973,230.641z"></path><path style="fill:none;stroke:#000000;stroke-linecap:round;stroke-linejoin:round;" d="M146.937,234.089c0,0,12.193-10.254,15.362-19.015"></path><linearGradient id="hair3XMLID_1534_" gradientUnits="userSpaceOnUse" x1="155.3472" y1="200.9419" x2="146.6804" y2="250.9433"><stop offset="0" style="stop-color:#664945"></stop><stop offset="1" style="stop-color:#624742"></stop></linearGradient><path style="fill:url(#hair3XMLID_1534_);stroke:#000000;stroke-linecap:round;stroke-linejoin:round;" d="M135.77,290.15c0,0,4.572,6.491,5.187,17.54"></path></g><path style="fill:#FFFFFF;stroke:#000000;stroke-linecap:round;stroke-linejoin:round;" d="M154.086,173.882c0,0,2.542,13.446,15.604,22.241c2.659-7.602,4.589-12.2,4.589-12.2s-19.046-20.226-19.017-25.487C153.3,163.586,154.086,173.882,154.086,173.882z"></path></g></g></svg>