<svg xmlns="http://www.w3.org/2000/svg" width="500" height="500" version="1.1"><g id="x9174"><g><linearGradient id="hair3XMLID_1541_" gradientUnits="userSpaceOnUse" x1="364.5107" y1="276.2197" x2="374.7457" y2="420.9421" gradientTransform="matrix(0.977 0.2133 -0.2053 0.9013 41.7123 -52.8329)"><stop offset="0" style="stop-color:#FCFCE4"></stop><stop offset="0.5" style="stop-color:#A0C8DD"></stop><stop offset="1" style="stop-color:#5D6EC5"></stop></linearGradient><path style="fill:url(#hair3XMLID_1541_);stroke:#1E1E1E;stroke-linecap:round;stroke-linejoin:round;" d="M326.504,166.202c0,0,12.43-6.141,14.892-4.562c0.845,0.542,1.769,18.653,5.438,44.288c7.037,49.18,21.169,109.708,14.323,137.901c-7.299,30.059-31.602,52.111-61.99,45.95c12.105-5.872,18.857-12.279,18.857-12.279s-13.5,5-20.503,2.703c16.396-5.652,35.231-20.956,39.471-41.908C350.409,271.948,324.441,177.732,326.504,166.202z"></path><linearGradient id="hair3XMLID_1542_" gradientUnits="userSpaceOnUse" x1="206.9932" y1="313.498" x2="217.2281" y2="458.2198" gradientTransform="matrix(-0.977 0.2133 0.2053 0.9013 296.7403 -52.8329)"><stop offset="0" style="stop-color:#FCFCE4"></stop><stop offset="0.5" style="stop-color:#A0C8DD"></stop><stop offset="1" style="stop-color:#5D6EC5"></stop></linearGradient><path style="fill:url(#hair3XMLID_1542_);stroke:#1E1E1E;stroke-linecap:round;stroke-linejoin:round;" d="M173.496,166.202c0,0-12.43-6.141-14.892-4.562c-0.845,0.542-1.769,18.653-5.438,44.288c-7.037,49.18-21.169,109.708-14.323,137.901c7.299,30.059,31.602,52.111,61.99,45.95c-12.105-5.872-18.857-12.279-18.857-12.279s13.5,5,20.503,2.703c-16.396-5.652-35.231-20.956-39.471-41.908C149.591,271.948,175.559,177.732,173.496,166.202z"></path></g></g></svg>