<svg xmlns="http://www.w3.org/2000/svg" width="500" height="500" version="1.1"><g id="x018"><g><g><linearGradient id="hair3XMLID_832_" gradientUnits="userSpaceOnUse" x1="158.3745" y1="385" x2="158.3745" y2="130.0003"><stop offset="0" style="stop-color:#FCFCE4"></stop><stop offset="0.5" style="stop-color:#A0C8DD"></stop><stop offset="1" style="stop-color:#5D6EC5"></stop></linearGradient><path style="fill:url(#hair3XMLID_832_);stroke:#1E1E1E;stroke-linecap:round;stroke-linejoin:round;" d="M163.984,122.723c-16.751,5.473-26.119,23.565-26.213,41.064c-0.933,7.694-3.246,20.138-8.702,24.554c8.314-3.094,8.702-2.32,15.664-10.056c-3.869,12.376-0.773,26.299,16.631,37.516c-6.188-8.896,2.551-41.996,10.409-57.002c7.858-15.006,15.396-15.97,15.908-21.565C187.68,137.234,184.183,118.723,163.984,122.723z"></path></g><g><linearGradient id="hair3XMLID_833_" gradientUnits="userSpaceOnUse" x1="337.125" y1="385" x2="337.125" y2="130.0003"><stop offset="0" style="stop-color:#FCFCE4"></stop><stop offset="0.5" style="stop-color:#A0C8DD"></stop><stop offset="1" style="stop-color:#5D6EC5"></stop></linearGradient><path style="fill:url(#hair3XMLID_833_);stroke:#1E1E1E;stroke-linecap:round;stroke-linejoin:round;" d="M331.516,122.723c16.75,5.473,26.12,23.565,26.214,41.064c0.933,7.694,3.246,20.138,8.702,24.554c-8.315-3.094-8.702-2.32-15.664-10.056c3.868,12.376,0.773,26.299-16.632,37.516c6.188-8.896-2.552-41.996-10.408-57.002c-7.857-15.006-15.396-15.97-15.908-21.565C307.819,137.234,311.317,118.723,331.516,122.723z"></path></g></g></g></svg>