<svg xmlns="http://www.w3.org/2000/svg" width="500" height="500" version="1.1"><g id="x020"><g><g><linearGradient id="hair3XMLID_836_" gradientUnits="userSpaceOnUse" x1="157.4907" y1="385" x2="157.4907" y2="130.0003"><stop offset="0" style="stop-color:#FCFCE4"></stop><stop offset="0.5" style="stop-color:#A0C8DD"></stop><stop offset="1" style="stop-color:#5D6EC5"></stop></linearGradient><path style="fill:url(#hair3XMLID_836_);stroke:#1E1E1E;stroke-linecap:round;stroke-linejoin:round;" d="M163.147,221.352c0,0,6.398,90.161-8.71,120.432c3.758-28.966-2.153-83.496-3.95-98.231"></path><linearGradient id="hair3XMLID_837_" gradientUnits="userSpaceOnUse" x1="160.9731" y1="385" x2="160.9731" y2="129.9991"><stop offset="0" style="stop-color:#FCFCE4"></stop><stop offset="0.5" style="stop-color:#A0C8DD"></stop><stop offset="1" style="stop-color:#5D6EC5"></stop></linearGradient><path style="fill:url(#hair3XMLID_837_);stroke:#1E1E1E;stroke-linecap:round;stroke-linejoin:round;" d="M190.033,170.557c0,0-3.482-31.263-6.797-34.172c-3.315-2.911-11.324-5.322-16.901-3.149c-55.838,62.358-37.21,172.189,9.413,203.322c-15.217-30.017-9.481-71.944-1.625-110.539C181.982,187.424,189.52,184.944,190.033,170.557z"></path></g><g><linearGradient id="hair3XMLID_838_" gradientUnits="userSpaceOnUse" x1="343.1855" y1="385" x2="343.1855" y2="130.0003"><stop offset="0" style="stop-color:#FCFCE4"></stop><stop offset="0.5" style="stop-color:#A0C8DD"></stop><stop offset="1" style="stop-color:#5D6EC5"></stop></linearGradient><path style="fill:url(#hair3XMLID_838_);stroke:#1E1E1E;stroke-linecap:round;stroke-linejoin:round;" d="M337.529,221.352c0,0-6.398,90.161,8.708,120.432c-3.756-28.966,2.155-83.496,3.951-98.231"></path><linearGradient id="hair3XMLID_839_" gradientUnits="userSpaceOnUse" x1="339.3652" y1="385" x2="339.3652" y2="129.9991"><stop offset="0" style="stop-color:#FCFCE4"></stop><stop offset="0.5" style="stop-color:#A0C8DD"></stop><stop offset="1" style="stop-color:#5D6EC5"></stop></linearGradient><path style="fill:url(#hair3XMLID_839_);stroke:#1E1E1E;stroke-linecap:round;stroke-linejoin:round;" d="M310.644,170.557c0,0,3.482-31.263,6.797-34.172c3.314-2.911,11.324-5.322,16.899-3.149c54.215,57.137,37.212,172.189-9.411,203.322c15.218-30.017,9.48-71.944,1.624-110.539C318.695,187.424,311.157,184.944,310.644,170.557z"></path></g></g></g></svg>