<svg xmlns="http://www.w3.org/2000/svg" width="500" height="500" version="1.1"><g id="x021"><g><linearGradient id="hair3XMLID_840_" gradientUnits="userSpaceOnUse" x1="159.9814" y1="385" x2="159.9814" y2="129.9996"><stop offset="0" style="stop-color:#FCFCE4"></stop><stop offset="0.5" style="stop-color:#A0C8DD"></stop><stop offset="1" style="stop-color:#5D6EC5"></stop></linearGradient><path style="fill:url(#hair3XMLID_840_);stroke:#1E1E1E;stroke-linecap:round;stroke-linejoin:round;" d="M182.623,127.364c0,0-21.271-4.047-29.394,14.165c-8.107,18.212-12.845,21.585-22.417,22.09c5.414,3.036,15.084-0.168,18.564-5.564c-1.16,2.023-24.366,26.138,8.896,58.515c-8.123-14.839,3.866-33.052,15.47-48.228C182.286,157.166,198.109,134.952,182.623,127.364z"></path><linearGradient id="hair3XMLID_841_" gradientUnits="userSpaceOnUse" x1="340.0176" y1="385" x2="340.0176" y2="129.9996"><stop offset="0" style="stop-color:#FCFCE4"></stop><stop offset="0.5" style="stop-color:#A0C8DD"></stop><stop offset="1" style="stop-color:#5D6EC5"></stop></linearGradient><path style="fill:url(#hair3XMLID_841_);stroke:#1E1E1E;stroke-linecap:round;stroke-linejoin:round;" d="M317.375,127.364c0,0,21.271-4.047,29.395,14.165c8.105,18.212,12.844,21.585,22.418,22.09c-5.416,3.036-15.086-0.168-18.566-5.564c1.16,2.023,24.367,26.138-8.896,58.515c8.123-14.839-3.867-33.052-15.469-48.228C317.711,157.166,301.889,134.952,317.375,127.364z"></path></g></g></svg>