<svg xmlns="http://www.w3.org/2000/svg" width="500" height="500" version="1.1"><g id="x023"><g><g><linearGradient id="hair3XMLID_844_" gradientUnits="userSpaceOnUse" x1="189.4712" y1="385" x2="189.4712" y2="130.0002"><stop offset="0" style="stop-color:#FCFCE4"></stop><stop offset="0.5" style="stop-color:#A0C8DD"></stop><stop offset="1" style="stop-color:#5D6EC5"></stop></linearGradient><path style="fill:url(#hair3XMLID_844_);stroke:#1E1E1E;stroke-linecap:round;stroke-linejoin:round;" d="M190.46,237.038c0,0-11.04,11.902-11.596,38.111s6.873,45.52,14.097,55.827c-5.279-17.964-5.001-26.503-5.001-26.503s6.946,23.265,11.392,31.509c-6.669-33.275,4.651-47.956-0.763-81.259C196.333,240.85,190.46,237.038,190.46,237.038z"></path><linearGradient id="hair3XMLID_845_" gradientUnits="userSpaceOnUse" x1="310.5283" y1="385" x2="310.5283" y2="130.0002"><stop offset="0" style="stop-color:#FCFCE4"></stop><stop offset="0.5" style="stop-color:#A0C8DD"></stop><stop offset="1" style="stop-color:#5D6EC5"></stop></linearGradient><path style="fill:url(#hair3XMLID_845_);stroke:#1E1E1E;stroke-linecap:round;stroke-linejoin:round;" d="M309.539,237.038c0,0,11.042,11.902,11.597,38.111c0.557,26.209-6.874,45.52-14.098,55.827c5.279-17.964,5.002-26.503,5.002-26.503s-6.945,23.265-11.392,31.509c6.669-33.275-4.652-47.956,0.763-81.259C303.665,240.85,309.539,237.038,309.539,237.038z"></path></g></g></g></svg>