<svg xmlns="http://www.w3.org/2000/svg" width="500" height="500" version="1.1"><g id="x024"><g><g><linearGradient id="hair3XMLID_846_" gradientUnits="userSpaceOnUse" x1="190.1484" y1="385" x2="190.1484" y2="129.9999"><stop offset="0" style="stop-color:#FCFCE4"></stop><stop offset="0.5" style="stop-color:#A0C8DD"></stop><stop offset="1" style="stop-color:#5D6EC5"></stop></linearGradient><path style="fill:url(#hair3XMLID_846_);stroke:#1E1E1E;stroke-linecap:round;stroke-linejoin:round;" d="M207.94,411.981c-6.668-59.422-2.321-84.863-7.736-144.331c-2.256-24.772-8.129-31.58-8.129-31.58s-14.135,25.845-14.69,72.645c-0.138,11.603,0.406,22.163,1.412,31.769c0.207,15.743-0.259,46.551-6.44,61.442c7.37-6.45,9.033-15.711,10.443-27.267c3.147,12.307,8.721,21.369,11.775,29.155c-5.974-23.354-3.266-29.93-3.266-29.93S195.176,401.152,207.94,411.981z"></path></g><g><linearGradient id="hair3XMLID_847_" gradientUnits="userSpaceOnUse" x1="312.2695" y1="385" x2="312.2695" y2="130.0006"><stop offset="0" style="stop-color:#FCFCE4"></stop><stop offset="0.5" style="stop-color:#A0C8DD"></stop><stop offset="1" style="stop-color:#5D6EC5"></stop></linearGradient><path style="fill:url(#hair3XMLID_847_);stroke:#1E1E1E;stroke-linecap:round;stroke-linejoin:round;" d="M296.896,412.948c6.668-59.421-2.516-84.863,2.9-144.331c2.254-24.772,8.129-31.58,8.129-31.58s14.133,25.844,14.689,72.644c0.139,11.604-0.406,22.163-1.41,31.77c-0.209,15.743,0.256,46.55,6.438,61.441c-7.369-6.449-10.961-16.499-12.369-28.057C312.125,387.144,309.66,402.119,296.896,412.948z"></path></g></g></g></svg>