<svg xmlns="http://www.w3.org/2000/svg" width="500" height="500" version="1.1"><g id="x032"><g><g><linearGradient id="hair3XMLID_889_" gradientUnits="userSpaceOnUse" x1="340.9492" y1="385" x2="340.9492" y2="130.0006"><stop offset="0" style="stop-color:#FCFCE4"></stop><stop offset="0.5" style="stop-color:#A0C8DD"></stop><stop offset="1" style="stop-color:#5D6EC5"></stop></linearGradient><path style="fill:url(#hair3XMLID_889_);stroke:#1E1E1E;stroke-linecap:round;stroke-linejoin:round;" d="M317.957,145.694c0,0,8.701,39.45,30.168,64.977c5.801,19.725,4.641,51.053-1.16,70.198c23.205-24.366,21.295-103.133,2.32-132.274C333.041,123.648,317.957,145.694,317.957,145.694z"></path><path style="fill:none;stroke:#1E1E1E;stroke-linecap:round;stroke-linejoin:round;" d="M324.918,149.755c0,0,18.566-2.321,23.787,22.625"></path></g><g><linearGradient id="hair3XMLID_890_" gradientUnits="userSpaceOnUse" x1="159.0503" y1="385" x2="159.0503" y2="130.0006"><stop offset="0" style="stop-color:#FCFCE4"></stop><stop offset="0.5" style="stop-color:#A0C8DD"></stop><stop offset="1" style="stop-color:#5D6EC5"></stop></linearGradient><path style="fill:url(#hair3XMLID_890_);stroke:#1E1E1E;stroke-linecap:round;stroke-linejoin:round;" d="M182.043,145.694c0,0-8.702,39.45-30.168,64.977c-5.801,19.725-4.641,51.053,1.161,70.198c-23.206-24.366-21.296-103.133-2.321-132.274C166.959,123.648,182.043,145.694,182.043,145.694z"></path><path style="fill:none;stroke:#1E1E1E;stroke-linecap:round;stroke-linejoin:round;" d="M175.081,149.755c0,0-18.564-2.321-23.785,22.625"></path></g></g></g></svg>