<svg xmlns="http://www.w3.org/2000/svg" width="500" height="500" version="1.1"><g id="x034"><g><linearGradient id="hair3XMLID_895_" gradientUnits="userSpaceOnUse" x1="168.5859" y1="385" x2="168.5859" y2="129.9999"><stop offset="0" style="stop-color:#FCFCE4"></stop><stop offset="0.5" style="stop-color:#A0C8DD"></stop><stop offset="1" style="stop-color:#5D6EC5"></stop></linearGradient><path style="fill:url(#hair3XMLID_895_);stroke:#1E1E1E;stroke-linecap:round;stroke-linejoin:round;" d="M174.83,188.237c0,0-5.801,19.338-27.46,24.366c11.217,1.16,23.594-2.32,26.688-6.962c-10.83,15.084-7.349,26.3-22.82,34.035c25.141-4.641,30.555-11.216,36.356-37.516c0,0,4.157-22.432,1.063-22.818C185.563,178.955,174.83,188.237,174.83,188.237z"></path><linearGradient id="hair3XMLID_896_" gradientUnits="userSpaceOnUse" x1="331.4141" y1="385" x2="331.4141" y2="129.9999"><stop offset="0" style="stop-color:#FCFCE4"></stop><stop offset="0.5" style="stop-color:#A0C8DD"></stop><stop offset="1" style="stop-color:#5D6EC5"></stop></linearGradient><path style="fill:url(#hair3XMLID_896_);stroke:#1E1E1E;stroke-linecap:round;stroke-linejoin:round;" d="M325.17,188.237c0,0,5.801,19.338,27.46,24.366c-11.216,1.16-23.592-2.32-26.685-6.962c10.828,15.084,7.348,26.3,22.816,34.035c-25.14-4.641-30.553-11.216-36.355-37.516c0,0-4.156-22.432-1.062-22.818C314.438,178.955,325.17,188.237,325.17,188.237z"></path></g></g></svg>