<svg xmlns="http://www.w3.org/2000/svg" width="500" height="500" version="1.1"><g id="x036"><g><g><linearGradient id="hair3XMLID_899_" gradientUnits="userSpaceOnUse" x1="331.7129" y1="385" x2="331.7129" y2="130.0003"><stop offset="0" style="stop-color:#FCFCE4"></stop><stop offset="0.5" style="stop-color:#A0C8DD"></stop><stop offset="1" style="stop-color:#5D6EC5"></stop></linearGradient><path style="fill:url(#hair3XMLID_899_);stroke:#1E1E1E;stroke-linecap:round;stroke-linejoin:round;" d="M316.402,146.011c0,0,16.07,23.447,19.376,63.39c3.309,39.943,13.871,52.058,26.586,66.509c-16.106-2.129-50.279-12.492-60.952-54.181c0,0-1.773-41.301,2.664-61.729C309.407,148.898,316.402,146.011,316.402,146.011z"></path><linearGradient id="hair3XMLID_900_" gradientUnits="userSpaceOnUse" x1="347.377" y1="385" x2="347.377" y2="129.9997"><stop offset="0" style="stop-color:#FCFCE4"></stop><stop offset="0.5" style="stop-color:#A0C8DD"></stop><stop offset="1" style="stop-color:#5D6EC5"></stop></linearGradient><path style="fill:url(#hair3XMLID_900_);stroke:#1E1E1E;stroke-linecap:round;stroke-linejoin:round;" d="M335.054,203.299c0,0,7.327,49.96,26.645,61.952c-13.987-7.329-24.646-19.318-28.643-38.637"></path></g><g><linearGradient id="hair3XMLID_901_" gradientUnits="userSpaceOnUse" x1="168.2866" y1="385" x2="168.2866" y2="130.0003"><stop offset="0" style="stop-color:#FCFCE4"></stop><stop offset="0.5" style="stop-color:#A0C8DD"></stop><stop offset="1" style="stop-color:#5D6EC5"></stop></linearGradient><path style="fill:url(#hair3XMLID_901_);stroke:#1E1E1E;stroke-linecap:round;stroke-linejoin:round;" d="M183.599,146.011c0,0-16.072,23.447-19.378,63.39c-3.306,39.943-13.869,52.058-26.585,66.509c16.107-2.129,50.28-12.492,60.951-54.181c0,0,1.776-41.301-2.664-61.729C190.594,148.898,183.599,146.011,183.599,146.011z"></path><linearGradient id="hair3XMLID_902_" gradientUnits="userSpaceOnUse" x1="152.6235" y1="385" x2="152.6235" y2="129.9998"><stop offset="0" style="stop-color:#FCFCE4"></stop><stop offset="0.5" style="stop-color:#A0C8DD"></stop><stop offset="1" style="stop-color:#5D6EC5"></stop></linearGradient><path style="fill:url(#hair3XMLID_902_);stroke:#1E1E1E;stroke-linecap:round;stroke-linejoin:round;" d="M164.947,203.3c0,0-7.328,49.96-26.646,61.951c13.989-7.329,24.647-19.318,28.644-38.637"></path></g></g></g></svg>