<svg xmlns="http://www.w3.org/2000/svg" width="500" height="500" version="1.1"><g id="x037"><g><g><g><linearGradient id="hair3XMLID_903_" gradientUnits="userSpaceOnUse" x1="350.1787" y1="385" x2="350.1787" y2="129.999"><stop offset="0" style="stop-color:#FCFCE4"></stop><stop offset="0.5" style="stop-color:#A0C8DD"></stop><stop offset="1" style="stop-color:#5D6EC5"></stop></linearGradient><path style="fill:url(#hair3XMLID_903_);stroke:#1E1E1E;stroke-linecap:round;stroke-linejoin:round;" d="M340.17,142.059c0,0,26.813-1.261,18.375,22.633c-3.602-17.077-14.309-13.083-14.309-13.083L340.17,142.059z"></path><linearGradient id="hair3XMLID_904_" gradientUnits="userSpaceOnUse" x1="329.7148" y1="385" x2="329.7148" y2="129.9998"><stop offset="0" style="stop-color:#FCFCE4"></stop><stop offset="0.5" style="stop-color:#A0C8DD"></stop><stop offset="1" style="stop-color:#5D6EC5"></stop></linearGradient><path style="fill:url(#hair3XMLID_904_);stroke:#1E1E1E;stroke-linecap:round;stroke-linejoin:round;" d="M326.319,149.928c0,0,10.377-8.082,4.363-14.263c-6.016-6.182-14.005,0.884-14.005,0.884s6.43-18.419,19.642-7.513c18.256,15.069-8.145,28.562-8.145,28.562L326.319,149.928z"></path><linearGradient id="hair3XMLID_905_" gradientUnits="userSpaceOnUse" x1="332.6191" y1="385" x2="332.6191" y2="130"><stop offset="0" style="stop-color:#FCFCE4"></stop><stop offset="0.5" style="stop-color:#A0C8DD"></stop><stop offset="1" style="stop-color:#5D6EC5"></stop></linearGradient><path style="fill:url(#hair3XMLID_905_);stroke:#1E1E1E;stroke-linecap:round;stroke-linejoin:round;" d="M315.857,165.418c-6.961-6.575-3.48-17.791-3.48-17.791s5.028-14.697,19.972-10.699c11.011,2.947,11.414,12.907,11.414,12.907s2.859,0.756,8.224,8.061c5.364,7.304-3.347,16.651-3.347,16.651l-16.757-1.609C331.883,172.938,322.819,171.994,315.857,165.418z"></path><path style="fill:none;stroke:#1E1E1E;stroke-linecap:round;stroke-linejoin:round;" d="M329.793,150.141c0,0,11.546,1.29,16.483,15.542"></path><linearGradient id="hair3XMLID_906_" gradientUnits="userSpaceOnUse" x1="337.75" y1="385" x2="337.75" y2="129.9996"><stop offset="0" style="stop-color:#FCFCE4"></stop><stop offset="0.5" style="stop-color:#A0C8DD"></stop><stop offset="1" style="stop-color:#5D6EC5"></stop></linearGradient><path style="fill:url(#hair3XMLID_906_);stroke:#1E1E1E;stroke-linecap:round;stroke-linejoin:round;" d="M328.229,175.62c-0.177,2.895,13.642,61.867-24.382,103.709c8.214-1.24,24.122-14.214,24.122-14.214s-6.821,16.438-19.81,19.708c7.316,3.938,20.635,4.754,34.876-9.483c1.053,1.807-4.729,10.753-4.729,10.753s17.585-2.408,23.024-24.743c-0.391,6.37-1.646,17.336-1.646,17.336s38.784-73.182-23.3-122.327C318.295,157.573,328.229,175.62,328.229,175.62z"></path></g></g><g><g><linearGradient id="hair3XMLID_907_" gradientUnits="userSpaceOnUse" x1="149.8208" y1="385" x2="149.8208" y2="129.999"><stop offset="0" style="stop-color:#FCFCE4"></stop><stop offset="0.5" style="stop-color:#A0C8DD"></stop><stop offset="1" style="stop-color:#5D6EC5"></stop></linearGradient><path style="fill:url(#hair3XMLID_907_);stroke:#1E1E1E;stroke-linecap:round;stroke-linejoin:round;" d="M159.83,142.059c0,0-26.813-1.261-18.375,22.633c3.602-17.077,14.309-13.083,14.309-13.083L159.83,142.059z"></path><linearGradient id="hair3XMLID_908_" gradientUnits="userSpaceOnUse" x1="170.2847" y1="385" x2="170.2847" y2="129.9998"><stop offset="0" style="stop-color:#FCFCE4"></stop><stop offset="0.5" style="stop-color:#A0C8DD"></stop><stop offset="1" style="stop-color:#5D6EC5"></stop></linearGradient><path style="fill:url(#hair3XMLID_908_);stroke:#1E1E1E;stroke-linecap:round;stroke-linejoin:round;" d="M173.681,149.928c0,0-10.377-8.082-4.363-14.263c6.016-6.182,14.005,0.884,14.005,0.884s-6.43-18.419-19.642-7.513c-18.256,15.069,8.145,28.562,8.145,28.562L173.681,149.928z"></path><linearGradient id="hair3XMLID_909_" gradientUnits="userSpaceOnUse" x1="167.3804" y1="385" x2="167.3804" y2="130"><stop offset="0" style="stop-color:#FCFCE4"></stop><stop offset="0.5" style="stop-color:#A0C8DD"></stop><stop offset="1" style="stop-color:#5D6EC5"></stop></linearGradient><path style="fill:url(#hair3XMLID_909_);stroke:#1E1E1E;stroke-linecap:round;stroke-linejoin:round;" d="M184.143,165.418c6.961-6.575,3.48-17.791,3.48-17.791s-5.028-14.697-19.972-10.699c-11.011,2.947-11.414,12.907-11.414,12.907s-2.859,0.756-8.224,8.061c-5.364,7.304,3.347,16.651,3.347,16.651l16.757-1.609C168.117,172.938,177.181,171.994,184.143,165.418z"></path><path style="fill:none;stroke:#1E1E1E;stroke-linecap:round;stroke-linejoin:round;" d="M170.207,150.141c0,0-11.546,1.29-16.483,15.542"></path><linearGradient id="hair3XMLID_910_" gradientUnits="userSpaceOnUse" x1="162.2505" y1="385" x2="162.2505" y2="129.9996"><stop offset="0" style="stop-color:#FCFCE4"></stop><stop offset="0.5" style="stop-color:#A0C8DD"></stop><stop offset="1" style="stop-color:#5D6EC5"></stop></linearGradient><path style="fill:url(#hair3XMLID_910_);stroke:#1E1E1E;stroke-linecap:round;stroke-linejoin:round;" d="M171.771,175.62c0.177,2.895-13.642,61.867,24.382,103.709c-8.214-1.24-24.122-14.214-24.122-14.214s6.821,16.438,19.81,19.708c-7.316,3.938-20.635,4.754-34.876-9.483c-1.053,1.807,4.729,10.753,4.729,10.753s-17.585-2.408-23.024-24.743c0.391,6.37,1.646,17.336,1.646,17.336s-38.784-73.182,23.3-122.327C181.705,157.573,171.771,175.62,171.771,175.62z"></path></g></g></g></g></svg>