<svg xmlns="http://www.w3.org/2000/svg" width="500" height="500" version="1.1"><g id="x040"><g><linearGradient id="hair3XMLID_920_" gradientUnits="userSpaceOnUse" x1="340.6885" y1="385" x2="340.6885" y2="129.9998"><stop offset="0" style="stop-color:#FCFCE4"></stop><stop offset="0.5" style="stop-color:#A0C8DD"></stop><stop offset="1" style="stop-color:#5D6EC5"></stop></linearGradient><path style="fill:url(#hair3XMLID_920_);stroke:#1E1E1E;stroke-linecap:round;stroke-linejoin:round;" d="M319.443,145.307c0,0,33.455,31.135,47.379,35.776c-4.641,0.581-18.564,1.741-29.588-6.961c0,0-21.367-8.315-22.529-14.504C313.547,153.429,319.443,145.307,319.443,145.307z"></path><linearGradient id="hair3XMLID_921_" gradientUnits="userSpaceOnUse" x1="159.3115" y1="385" x2="159.3115" y2="129.9998"><stop offset="0" style="stop-color:#FCFCE4"></stop><stop offset="0.5" style="stop-color:#A0C8DD"></stop><stop offset="1" style="stop-color:#5D6EC5"></stop></linearGradient><path style="fill:url(#hair3XMLID_921_);stroke:#1E1E1E;stroke-linecap:round;stroke-linejoin:round;" d="M180.557,145.307c0,0-33.455,31.135-47.379,35.776c4.641,0.581,18.564,1.741,29.588-6.961c0,0,21.368-8.315,22.528-14.504C186.455,153.429,180.557,145.307,180.557,145.307z"></path></g></g></svg>