<svg xmlns="http://www.w3.org/2000/svg" width="500" height="500" version="1.1"><g id="x041"><g><linearGradient id="hair3XMLID_922_" gradientUnits="userSpaceOnUse" x1="350.541" y1="385" x2="350.541" y2="129.9997"><stop offset="0" style="stop-color:#FCFCE4"></stop><stop offset="0.5" style="stop-color:#A0C8DD"></stop><stop offset="1" style="stop-color:#5D6EC5"></stop></linearGradient><path style="fill:url(#hair3XMLID_922_);stroke:#1E1E1E;stroke-linecap:round;stroke-linejoin:round;" d="M318.5,144.533c0,0,51.102,54.969,75.086,62.965c-7.994,0.999-31.98,2.999-50.971-11.994c0,0,13.596,15.166,27.52,18.066c-9.281-1.741-16.824,5.801-38.289-12.183c0,0-23.953-19.725-24.34-31.715C307.119,157.684,318.5,144.533,318.5,144.533z"></path><linearGradient id="hair3XMLID_923_" gradientUnits="userSpaceOnUse" x1="149.4595" y1="385" x2="149.4595" y2="129.9997"><stop offset="0" style="stop-color:#FCFCE4"></stop><stop offset="0.5" style="stop-color:#A0C8DD"></stop><stop offset="1" style="stop-color:#5D6EC5"></stop></linearGradient><path style="fill:url(#hair3XMLID_923_);stroke:#1E1E1E;stroke-linecap:round;stroke-linejoin:round;" d="M181.499,144.533c0,0-51.099,54.969-75.085,62.965c7.995,0.999,31.982,2.999,50.971-11.994c0,0-13.596,15.166-27.519,18.066c9.281-1.741,16.824,5.801,38.289-12.183c0,0,23.952-19.725,24.34-31.715C192.882,157.684,181.499,144.533,181.499,144.533z"></path></g></g></svg>