<svg xmlns="http://www.w3.org/2000/svg" width="500" height="500" version="1.1"><g id="x045"><g><g><linearGradient id="hair3XMLID_934_" gradientUnits="userSpaceOnUse" x1="227.3091" y1="385" x2="227.3091" y2="129.9999"><stop offset="0" style="stop-color:#FCFCE4"></stop><stop offset="0.5" style="stop-color:#A0C8DD"></stop><stop offset="1" style="stop-color:#5D6EC5"></stop></linearGradient><path style="fill:url(#hair3XMLID_934_);stroke:#1E1E1E;stroke-linecap:round;stroke-linejoin:round;" d="M297.873,115.299c-1.865-6.219-6.839-8.083-13.059-11.193c-3.729-4.975-8.082-16.167-16.789-18.655c-8.706-2.487-17.412,5.597-17.412,5.597s-7.461-4.354-9.949-3.109c-2.487,1.244-8.705,6.84-9.948,11.814c-0.543,2.17-0.021,7.063,0.741,11.89c-10.691,9.253-12.557,19.203-12.557,19.203s-15.546,82.082-6.219,109.443c-14.302,6.218-17.412,6.84-37.31,21.143c-10.923,7.851-21.143,24.873-25.497,50.368c11.194-23.63,28.305-33.933,39.799-36.688c-14.924,13.059-20.521,24.252-22.386,36.067c1.244,26.739,8.084,36.065,8.084,36.065c-5.597,11.815-8.084,13.681-24.874,20.521c11.815,5.596,40.42-6.841,47.882-16.791c7.462-9.948,9.328-24.25,15.546-35.443c6.217-11.194,19.898-18.655,64.049-68.402C322.126,197.381,298.495,122.762,297.873,115.299z"></path><path style="fill:none;stroke:#1E1E1E;stroke-linecap:round;stroke-linejoin:round;" d="M280.462,97.266c0,0,7.461,11.815,8.084,19.277"></path></g></g></g></svg>