<svg xmlns="http://www.w3.org/2000/svg" width="500" height="500" version="1.1"><g id="x046"><g><g><linearGradient id="hair3XMLID_935_" gradientUnits="userSpaceOnUse" x1="362.4854" y1="385" x2="362.4854" y2="130.0001"><stop offset="0" style="stop-color:#FCFCE4"></stop><stop offset="0.5" style="stop-color:#A0C8DD"></stop><stop offset="1" style="stop-color:#5D6EC5"></stop></linearGradient><path style="fill:url(#hair3XMLID_935_);stroke:#1E1E1E;stroke-linecap:round;stroke-linejoin:round;" d="M356.393,141.777c0,0,7.307,31.501,11.023,41.19c8.121,21.176,3.77,31.038,3.77,31.038l-6.962-8.992c0-2.611-1.45-11.023-4.351-22.336c-2.9-11.313-6.961-23.206-7.252-28.718"></path><linearGradient id="hair3XMLID_936_" gradientUnits="userSpaceOnUse" x1="321.5205" y1="385" x2="321.5205" y2="129.9998"><stop offset="0" style="stop-color:#FCFCE4"></stop><stop offset="0.5" style="stop-color:#A0C8DD"></stop><stop offset="1" style="stop-color:#5D6EC5"></stop></linearGradient><path style="fill:url(#hair3XMLID_936_);stroke:#1E1E1E;stroke-linecap:round;stroke-linejoin:round;" d="M319.618,210.514c-6.338,16.011-1.737,29.004,6.594,35.362c-23.88-2.737-13.704-35.454-13.704-35.454s3.161-14.11,15.924-21.846c2.32,7.348,4.256,12.763,4.256,12.763"></path><linearGradient id="hair3XMLID_937_" gradientUnits="userSpaceOnUse" x1="337.75" y1="385" x2="337.75" y2="130.0005"><stop offset="0" style="stop-color:#FCFCE4"></stop><stop offset="0.5" style="stop-color:#A0C8DD"></stop><stop offset="1" style="stop-color:#5D6EC5"></stop></linearGradient><path style="fill:url(#hair3XMLID_937_);stroke:#1E1E1E;stroke-linecap:round;stroke-linejoin:round;" d="M327.336,189.93c1.909,2.625-0.643,11.925,1.789,19.435c3.482,10.749,11.947,21.708,13.875,37.129c4.061,32.487,23.496,14.504,23.496,14.504c-11.313,3.191-14.504-4.352-6.381-21.756c7.683-16.466-3.434-26.977-3.434-26.977c9.283,3.48,15.955,11.022,11.555,24.366c19.195-19.436-8.412-34.809-13.633-50.763c-2.824-8.63,2.32-32.198,2.32-43.801c0-11.604-19.1-23.487-31.862-24.067c-12.764-0.58-24.5,12-24.5,12s1.958,18.739,8.919,36.144C316.442,183.548,327.336,189.93,327.336,189.93z"></path><linearGradient id="hair3XMLID_938_" gradientUnits="userSpaceOnUse" x1="326.6016" y1="385" x2="326.6016" y2="129.9998"><stop offset="0" style="stop-color:#FCFCE4"></stop><stop offset="0.5" style="stop-color:#A0C8DD"></stop><stop offset="1" style="stop-color:#5D6EC5"></stop></linearGradient><path style="fill:url(#hair3XMLID_938_);stroke:#1E1E1E;stroke-linecap:round;stroke-linejoin:round;" d="M324.194,236.922c0,0,4.351,16.534-6.092,23.496c10.442,0.871,18.274-3.48,16.823-19.726"></path><linearGradient id="hair3XMLID_939_" gradientUnits="userSpaceOnUse" x1="333.7188" y1="385" x2="333.7188" y2="130.0002"><stop offset="0" style="stop-color:#FCFCE4"></stop><stop offset="0.5" style="stop-color:#A0C8DD"></stop><stop offset="1" style="stop-color:#5D6EC5"></stop></linearGradient><path style="fill:url(#hair3XMLID_939_);stroke:#1E1E1E;stroke-linecap:round;stroke-linejoin:round;" d="M328.545,198.051c0,0-11.603,15.665-6.672,35.39c4.932,19.725,21.467,21.466,17.695,38.289c7.833-4.641,11.023-38,0.581-56.564"></path></g><g><linearGradient id="hair3XMLID_940_" gradientUnits="userSpaceOnUse" x1="137.5142" y1="385" x2="137.5141" y2="130.0001"><stop offset="0" style="stop-color:#FCFCE4"></stop><stop offset="0.5" style="stop-color:#A0C8DD"></stop><stop offset="1" style="stop-color:#5D6EC5"></stop></linearGradient><path style="fill:url(#hair3XMLID_940_);stroke:#1E1E1E;stroke-linecap:round;stroke-linejoin:round;" d="M143.607,141.777c0,0-7.307,31.501-11.023,41.19c-8.121,21.176-3.77,31.038-3.77,31.038l6.962-8.992c0-2.611,1.45-11.023,4.351-22.336c2.9-11.313,6.961-23.206,7.252-28.718"></path><linearGradient id="hair3XMLID_941_" gradientUnits="userSpaceOnUse" x1="178.4795" y1="385" x2="178.4795" y2="129.9998"><stop offset="0" style="stop-color:#FCFCE4"></stop><stop offset="0.5" style="stop-color:#A0C8DD"></stop><stop offset="1" style="stop-color:#5D6EC5"></stop></linearGradient><path style="fill:url(#hair3XMLID_941_);stroke:#1E1E1E;stroke-linecap:round;stroke-linejoin:round;" d="M180.382,210.514c6.338,16.011,1.737,29.004-6.594,35.362c23.88-2.737,13.704-35.454,13.704-35.454s-3.161-14.11-15.924-21.846c-2.32,7.348-4.256,12.763-4.256,12.763"></path><linearGradient id="hair3XMLID_942_" gradientUnits="userSpaceOnUse" x1="162.2495" y1="385" x2="162.2495" y2="130.0005"><stop offset="0" style="stop-color:#FCFCE4"></stop><stop offset="0.5" style="stop-color:#A0C8DD"></stop><stop offset="1" style="stop-color:#5D6EC5"></stop></linearGradient><path style="fill:url(#hair3XMLID_942_);stroke:#1E1E1E;stroke-linecap:round;stroke-linejoin:round;" d="M172.664,189.93c-1.909,2.625,0.643,11.925-1.789,19.435c-3.482,10.749-11.947,21.708-13.875,37.129c-4.061,32.487-23.496,14.504-23.496,14.504c11.313,3.191,14.504-4.352,6.381-21.756c-7.683-16.466,3.434-26.977,3.434-26.977c-9.283,3.48-15.955,11.022-11.555,24.366c-19.195-19.436,8.412-34.809,13.633-50.763c2.824-8.63-2.32-32.198-2.32-43.801c0-11.604,19.1-23.487,31.862-24.067c12.764-0.58,24.5,12,24.5,12s-1.958,18.739-8.919,36.144C183.558,183.548,172.664,189.93,172.664,189.93z"></path><linearGradient id="hair3XMLID_943_" gradientUnits="userSpaceOnUse" x1="173.3989" y1="385" x2="173.3989" y2="129.9998"><stop offset="0" style="stop-color:#FCFCE4"></stop><stop offset="0.5" style="stop-color:#A0C8DD"></stop><stop offset="1" style="stop-color:#5D6EC5"></stop></linearGradient><path style="fill:url(#hair3XMLID_943_);stroke:#1E1E1E;stroke-linecap:round;stroke-linejoin:round;" d="M175.806,236.922c0,0-4.351,16.534,6.092,23.496c-10.442,0.871-18.274-3.48-16.823-19.726"></path><linearGradient id="hair3XMLID_944_" gradientUnits="userSpaceOnUse" x1="166.2817" y1="385" x2="166.2817" y2="130.0002"><stop offset="0" style="stop-color:#FCFCE4"></stop><stop offset="0.5" style="stop-color:#A0C8DD"></stop><stop offset="1" style="stop-color:#5D6EC5"></stop></linearGradient><path style="fill:url(#hair3XMLID_944_);stroke:#1E1E1E;stroke-linecap:round;stroke-linejoin:round;" d="M171.455,198.051c0,0,11.603,15.665,6.672,35.39c-4.932,19.725-21.467,21.466-17.695,38.289c-7.833-4.641-11.023-38-0.581-56.564"></path></g></g></g></svg>