<svg xmlns="http://www.w3.org/2000/svg" width="500" height="500" version="1.1"><g id="x047"><g><g><g><linearGradient id="hair3XMLID_945_" gradientUnits="userSpaceOnUse" x1="220.1265" y1="385" x2="220.1264" y2="130.0002"><stop offset="0" style="stop-color:#FCFCE4"></stop><stop offset="0.5" style="stop-color:#A0C8DD"></stop><stop offset="1" style="stop-color:#5D6EC5"></stop></linearGradient><path style="fill:url(#hair3XMLID_945_);stroke:#1E1E1E;stroke-linecap:round;stroke-linejoin:round;" d="M224.814,65.296c0,0-19.146,10.131-21.175,24.801c-2.032,14.671,29.587,25.151,33.068,25.85c-14.504-7.335-24.366-21.658-23.496-27.945c0.87-6.288,13.633-15.719,13.633-15.719L224.814,65.296z"></path><linearGradient id="hair3XMLID_946_" gradientUnits="userSpaceOnUse" x1="285.4639" y1="385" x2="285.4639" y2="130"><stop offset="0" style="stop-color:#FCFCE4"></stop><stop offset="0.5" style="stop-color:#A0C8DD"></stop><stop offset="1" style="stop-color:#5D6EC5"></stop></linearGradient><path style="fill:url(#hair3XMLID_946_);stroke:#1E1E1E;stroke-linecap:round;stroke-linejoin:round;" d="M304.294,83.111c-3.191,18.165-47.281,35.98-35.969,27.596s28.717-19.562,24.944-26.548c-3.771-6.987-6.38-7.336-6.38-7.336S306.409,71.072,304.294,83.111z"></path><g><linearGradient id="hair3XMLID_947_" gradientUnits="userSpaceOnUse" x1="246.9858" y1="385" x2="246.9858" y2="129.9999"><stop offset="0" style="stop-color:#FCFCE4"></stop><stop offset="0.5" style="stop-color:#A0C8DD"></stop><stop offset="1" style="stop-color:#5D6EC5"></stop></linearGradient><path style="fill:url(#hair3XMLID_947_);stroke:#1E1E1E;stroke-linecap:round;stroke-linejoin:round;" d="M249.47,62.851c0,0,10.732-5.938,15.953,10.829c5.223,16.767-3.479,35.63-3.479,35.63l-27.267,0.698c0,0-12.184-17.815-6.092-34.931C232.452,64.213,249.47,62.851,249.47,62.851z"></path><path style="fill:none;stroke:#1E1E1E;stroke-linecap:round;stroke-linejoin:round;" d="M247.15,63.549c0,0,17.405,17.816-11.603,45.412"></path><path style="fill:none;stroke:#1E1E1E;stroke-linecap:round;stroke-linejoin:round;" d="M260.782,72.283c0,0,2.902,23.404-17.694,30.041"></path></g><linearGradient id="hair3XMLID_948_" gradientUnits="userSpaceOnUse" x1="227.3208" y1="385" x2="227.3208" y2="129.9998"><stop offset="0" style="stop-color:#FCFCE4"></stop><stop offset="0.5" style="stop-color:#A0C8DD"></stop><stop offset="1" style="stop-color:#5D6EC5"></stop></linearGradient><path style="fill:url(#hair3XMLID_948_);stroke:#1E1E1E;stroke-linecap:round;stroke-linejoin:round;" d="M223.653,106.865c0,0-10.732-9.083-7.832-24.802c2.901-15.719,15.954-19.212,15.954-19.212s-8.122,11.527-5.221,25.15c2.901,13.624,12.764,22.357,12.764,22.357S225.104,112.104,223.653,106.865z"></path><linearGradient id="hair3XMLID_949_" gradientUnits="userSpaceOnUse" x1="236.2319" y1="385" x2="236.2319" y2="130.0001"><stop offset="0" style="stop-color:#FCFCE4"></stop><stop offset="0.5" style="stop-color:#A0C8DD"></stop><stop offset="1" style="stop-color:#5D6EC5"></stop></linearGradient><path style="fill:url(#hair3XMLID_949_);stroke:#1E1E1E;stroke-linecap:round;stroke-linejoin:round;" d="M237.577,110.008c0,0-13.633-8.384-14.503-24.801c-0.87-16.418,5.455-31.252,15.664-30.74c6.961,0.349,10.733,8.384,10.733,8.384s-8.438-1.547-14.214,10.13C227.135,89.398,237.577,110.008,237.577,110.008z"></path><linearGradient id="hair3XMLID_950_" gradientUnits="userSpaceOnUse" x1="276.3711" y1="385" x2="276.3711" y2="129.9999"><stop offset="0" style="stop-color:#FCFCE4"></stop><stop offset="0.5" style="stop-color:#A0C8DD"></stop><stop offset="1" style="stop-color:#5D6EC5"></stop></linearGradient><path style="fill:url(#hair3XMLID_950_);stroke:#1E1E1E;stroke-linecap:round;stroke-linejoin:round;" d="M271.807,59.707c0,0,11.603-3.843,15.952,6.637c4.352,10.479,0.871,37.726-24.365,42.268C266.294,96.036,271.807,59.707,271.807,59.707z"></path><linearGradient id="hair3XMLID_951_" gradientUnits="userSpaceOnUse" x1="262.4717" y1="385" x2="262.4717" y2="130"><stop offset="0" style="stop-color:#FCFCE4"></stop><stop offset="0.5" style="stop-color:#A0C8DD"></stop><stop offset="1" style="stop-color:#5D6EC5"></stop></linearGradient><path style="fill:url(#hair3XMLID_951_);stroke:#1E1E1E;stroke-linecap:round;stroke-linejoin:round;" d="M249.47,62.851c0,0,3.77-12.576,16.244-8.733c12.473,3.842,14.794,38.425-3.771,52.747C274.706,68.789,249.47,62.851,249.47,62.851z"></path><linearGradient id="hair3XMLID_952_" gradientUnits="userSpaceOnUse" x1="271.2656" y1="385" x2="271.2656" y2="130.0001"><stop offset="0" style="stop-color:#FCFCE4"></stop><stop offset="0.5" style="stop-color:#A0C8DD"></stop><stop offset="1" style="stop-color:#5D6EC5"></stop></linearGradient><path style="fill:url(#hair3XMLID_952_);stroke:#1E1E1E;stroke-linecap:round;stroke-linejoin:round;" d="M275.286,67.042c0,0,19.145,4.891,17.695,21.309c-1.451,16.417-29.588,13.273-43.51,21.657c3.771-7.335,31.565-17.094,31.908-24.103C281.958,74.029,275.286,67.042,275.286,67.042z"></path><linearGradient id="hair3XMLID_953_" gradientUnits="userSpaceOnUse" x1="249.7603" y1="384.999" x2="249.7602" y2="129.998"><stop offset="0" style="stop-color:#FCFCE4"></stop><stop offset="0.5" style="stop-color:#A0C8DD"></stop><stop offset="1" style="stop-color:#5D6EC5"></stop></linearGradient><path style="fill:url(#hair3XMLID_953_);stroke:#1E1E1E;stroke-linecap:round;stroke-linejoin:round;" d="M214.081,106.375c0,0,0.29,7.832,6.672,11.313c4.062,3.19,44.092,19.338,64.687,4.544c-2.321-2.321-1.45-14.987-1.45-14.987S223.363,115.077,214.081,106.375z"></path><linearGradient id="hair3XMLID_954_" gradientUnits="userSpaceOnUse" x1="243.7134" y1="384.999" x2="243.7134" y2="129.9985"><stop offset="0" style="stop-color:#FCFCE4"></stop><stop offset="0.5" style="stop-color:#A0C8DD"></stop><stop offset="1" style="stop-color:#5D6EC5"></stop></linearGradient><path style="fill:url(#hair3XMLID_954_);stroke:#1E1E1E;stroke-linecap:round;stroke-linejoin:round;" d="M216.111,113.046c0,0,31.909,11.022,56.274,6.672c-9.28,4.351-52.599,6.381-55.79,4.061C213.405,121.458,216.111,113.046,216.111,113.046z"></path><linearGradient id="hair3XMLID_955_" gradientUnits="userSpaceOnUse" x1="269.7715" y1="385" x2="269.7715" y2="129.9992"><stop offset="0" style="stop-color:#FCFCE4"></stop><stop offset="0.5" style="stop-color:#A0C8DD"></stop><stop offset="1" style="stop-color:#5D6EC5"></stop></linearGradient><path style="fill:url(#hair3XMLID_955_);stroke:#1E1E1E;stroke-linecap:round;stroke-linejoin:round;" d="M286.89,106.955c0,0-23.883,6.865-35.485,15.277c5.511-9.863,22.723-18.468,32.293-20.789C291.241,100.283,286.89,106.955,286.89,106.955z"></path></g></g></g></g></svg>