<svg xmlns="http://www.w3.org/2000/svg" width="500" height="500" version="1.1"><g id="x048"><g><g><g><linearGradient id="hair3XMLID_956_" gradientUnits="userSpaceOnUse" x1="152.1953" y1="385" x2="152.1953" y2="129.9997"><stop offset="0" style="stop-color:#FCFCE4"></stop><stop offset="0.5" style="stop-color:#A0C8DD"></stop><stop offset="1" style="stop-color:#5D6EC5"></stop></linearGradient><path style="fill:url(#hair3XMLID_956_);stroke:#1E1E1E;stroke-linecap:round;stroke-linejoin:round;" d="M165.888,179.343c0,0-23.592,18.951-18.178,30.167c5.416,11.216,13.924,14.311,13.151,22.819c-0.774,8.508-18.179,16.63-12.764,26.299c-7.348-3.094-5.416-16.244,3.481-25.913c-3.869-6.962-15.084-16.63-12.764-29.781c2.321-13.15,17.018-27.46,17.018-27.46L165.888,179.343z"></path><linearGradient id="hair3XMLID_957_" gradientUnits="userSpaceOnUse" x1="151.2114" y1="385" x2="151.2114" y2="130.0003"><stop offset="0" style="stop-color:#FCFCE4"></stop><stop offset="0.5" style="stop-color:#A0C8DD"></stop><stop offset="1" style="stop-color:#5D6EC5"></stop></linearGradient><path style="fill:url(#hair3XMLID_957_);stroke:#1E1E1E;stroke-linecap:round;stroke-linejoin:round;" d="M160.474,167.739c0,0-21.658,8.122-26.3,23.207c-6.374,20.717,19.725,14.697,22.432,22.045c2.708,7.349-8.896,13.151-6.962,20.113c1.935,6.961,8.122,4.254,6.189,15.856c4.254-1.934,3.868-14.31,1.16-17.018c-2.707-2.708,5.802-13.923,5.028-21.659c-0.773-7.735-15.857-7.735-17.791-14.311c-1.934-6.575,12.763-14.31,24.366-19.725C172.077,170.06,160.474,167.739,160.474,167.739z"></path></g><g><linearGradient id="hair3XMLID_958_" gradientUnits="userSpaceOnUse" x1="151.1919" y1="385" x2="151.1919" y2="129.9996"><stop offset="0" style="stop-color:#FCFCE4"></stop><stop offset="0.5" style="stop-color:#A0C8DD"></stop><stop offset="1" style="stop-color:#5D6EC5"></stop></linearGradient><path style="fill:url(#hair3XMLID_958_);stroke:#1E1E1E;stroke-linecap:round;stroke-linejoin:round;" d="M127.599,160.391c0,0,0.387,20.885,21.659,22.433c25.461,1.852,25.527-21.272,25.527-21.272s-11.99,15.47-24.753,13.923c-12.764-1.547-17.018-15.084-17.018-15.084H127.599z"></path><g><linearGradient id="hair3XMLID_959_" gradientUnits="userSpaceOnUse" x1="153.6909" y1="385" x2="153.6909" y2="130.0002"><stop offset="0" style="stop-color:#FCFCE4"></stop><stop offset="0.5" style="stop-color:#A0C8DD"></stop><stop offset="1" style="stop-color:#5D6EC5"></stop></linearGradient><path style="fill:url(#hair3XMLID_959_);stroke:#1E1E1E;stroke-linecap:round;stroke-linejoin:round;" d="M129.533,139.892c0,0-5.414,7.348-3.48,17.018c1.934,9.669,16.63,14.31,30.941,13.924c14.311-0.387,21.658-16.245,24.753-21.659C171.69,149.561,129.533,139.892,129.533,139.892z"></path><path style="fill:none;stroke:#1E1E1E;stroke-linecap:round;stroke-linejoin:round;" d="M153.126,163.872c0,0,11.603,2.708,22.432-3.868"></path></g><g><linearGradient id="hair3XMLID_960_" gradientUnits="userSpaceOnUse" x1="154.1177" y1="385" x2="154.1177" y2="130.0001"><stop offset="0" style="stop-color:#FCFCE4"></stop><stop offset="0.5" style="stop-color:#A0C8DD"></stop><stop offset="1" style="stop-color:#5D6EC5"></stop></linearGradient><path style="fill:url(#hair3XMLID_960_);stroke:#1E1E1E;stroke-linecap:round;stroke-linejoin:round;" d="M127.213,138.345c0,0-1.548,13.149,22.432,17.791c23.98,4.641,31.328-8.122,31.328-8.122s2.321-25.526-19.725-24.753C139.202,124.035,127.213,138.345,127.213,138.345z"></path><g><path style="fill:none;stroke:#1E1E1E;stroke-linecap:round;stroke-linejoin:round;" d="M136.495,151.108c0,0-1.934-18.951,15.084-23.979"></path><path style="fill:none;stroke:#1E1E1E;stroke-linecap:round;stroke-linejoin:round;" d="M170.144,131.383c0,0-14.311,15.083,0,23.979"></path><path style="fill:none;stroke:#1E1E1E;stroke-linecap:round;stroke-linejoin:round;" d="M167.823,130.61c0,0-19.338-3.868-24.367,23.979"></path></g></g><g><linearGradient id="hair3XMLID_961_" gradientUnits="userSpaceOnUse" x1="158.9224" y1="385" x2="158.9223" y2="130.0002"><stop offset="0" style="stop-color:#FCFCE4"></stop><stop offset="0.5" style="stop-color:#A0C8DD"></stop><stop offset="1" style="stop-color:#5D6EC5"></stop></linearGradient><path style="fill:url(#hair3XMLID_961_);stroke:#1E1E1E;stroke-linecap:round;stroke-linejoin:round;" d="M191.029,139.892c0,0,0-22.819-19.725-30.167c-22.465-8.37-34.036,11.216-34.036,11.216s-10.829,4.642-10.442,18.952c0,0,10.829-15.084,31.328-13.15c20.498,1.934,19.726,23.979,19.726,23.979L191.029,139.892z"></path><path style="fill:none;stroke:#1E1E1E;stroke-linecap:round;stroke-linejoin:round;" d="M137.268,120.94c0,0,5.802-5.028,18.178-3.094"></path></g></g></g><g><g><linearGradient id="hair3XMLID_962_" gradientUnits="userSpaceOnUse" x1="347.8027" y1="385" x2="347.8027" y2="129.9997"><stop offset="0" style="stop-color:#FCFCE4"></stop><stop offset="0.5" style="stop-color:#A0C8DD"></stop><stop offset="1" style="stop-color:#5D6EC5"></stop></linearGradient><path style="fill:url(#hair3XMLID_962_);stroke:#1E1E1E;stroke-linecap:round;stroke-linejoin:round;" d="M334.109,179.343c0,0,23.594,18.951,18.179,30.167c-5.416,11.216-13.924,14.311-13.148,22.819c0.772,8.508,18.176,16.63,12.763,26.299c7.348-3.094,5.413-16.244-3.482-25.913c3.868-6.962,15.084-16.63,12.764-29.781c-2.32-13.15-17.017-27.46-17.017-27.46L334.109,179.343z"></path><linearGradient id="hair3XMLID_963_" gradientUnits="userSpaceOnUse" x1="348.7871" y1="385" x2="348.7871" y2="130.0003"><stop offset="0" style="stop-color:#FCFCE4"></stop><stop offset="0.5" style="stop-color:#A0C8DD"></stop><stop offset="1" style="stop-color:#5D6EC5"></stop></linearGradient><path style="fill:url(#hair3XMLID_963_);stroke:#1E1E1E;stroke-linecap:round;stroke-linejoin:round;" d="M339.524,167.739c0,0,21.659,8.122,26.3,23.207c6.374,20.717-19.725,14.697-22.433,22.045c-2.707,7.349,8.896,13.151,6.962,20.113c-1.934,6.961-8.121,4.254-6.187,15.856c-4.255-1.934-3.868-14.31-1.162-17.018c2.708-2.708-5.801-13.923-5.028-21.659c0.774-7.735,15.858-7.735,17.791-14.311c1.936-6.575-12.763-14.31-24.364-19.725C327.921,170.06,339.524,167.739,339.524,167.739z"></path></g><g><linearGradient id="hair3XMLID_964_" gradientUnits="userSpaceOnUse" x1="348.8066" y1="385" x2="348.8066" y2="129.9996"><stop offset="0" style="stop-color:#FCFCE4"></stop><stop offset="0.5" style="stop-color:#A0C8DD"></stop><stop offset="1" style="stop-color:#5D6EC5"></stop></linearGradient><path style="fill:url(#hair3XMLID_964_);stroke:#1E1E1E;stroke-linecap:round;stroke-linejoin:round;" d="M372.399,160.391c0,0-0.387,20.885-21.657,22.433c-25.463,1.852-25.527-21.272-25.527-21.272s11.989,15.47,24.753,13.923c12.764-1.547,17.019-15.084,17.019-15.084H372.399z"></path><g><linearGradient id="hair3XMLID_965_" gradientUnits="userSpaceOnUse" x1="346.3086" y1="385" x2="346.3086" y2="130.0002"><stop offset="0" style="stop-color:#FCFCE4"></stop><stop offset="0.5" style="stop-color:#A0C8DD"></stop><stop offset="1" style="stop-color:#5D6EC5"></stop></linearGradient><path style="fill:url(#hair3XMLID_965_);stroke:#1E1E1E;stroke-linecap:round;stroke-linejoin:round;" d="M370.466,139.892c0,0,5.416,7.348,3.481,17.018s-16.632,14.31-30.942,13.924c-14.309-0.387-21.657-16.245-24.752-21.659C328.308,149.561,370.466,139.892,370.466,139.892z"></path><path style="fill:none;stroke:#1E1E1E;stroke-linecap:round;stroke-linejoin:round;" d="M346.872,163.872c0,0-11.603,2.708-22.431-3.868"></path></g><g><linearGradient id="hair3XMLID_966_" gradientUnits="userSpaceOnUse" x1="345.8809" y1="385" x2="345.8809" y2="130.0001"><stop offset="0" style="stop-color:#FCFCE4"></stop><stop offset="0.5" style="stop-color:#A0C8DD"></stop><stop offset="1" style="stop-color:#5D6EC5"></stop></linearGradient><path style="fill:url(#hair3XMLID_966_);stroke:#1E1E1E;stroke-linecap:round;stroke-linejoin:round;" d="M372.786,138.345c0,0,1.548,13.149-22.433,17.791c-23.978,4.641-31.328-8.122-31.328-8.122s-2.32-25.526,19.726-24.753S372.786,138.345,372.786,138.345z"></path><g><path style="fill:none;stroke:#1E1E1E;stroke-linecap:round;stroke-linejoin:round;" d="M363.504,151.108c0,0,1.934-18.951-15.084-23.979"></path><path style="fill:none;stroke:#1E1E1E;stroke-linecap:round;stroke-linejoin:round;" d="M329.855,131.383c0,0,14.312,15.083,0,23.979"></path><path style="fill:none;stroke:#1E1E1E;stroke-linecap:round;stroke-linejoin:round;" d="M332.176,130.61c0,0,19.337-3.868,24.367,23.979"></path></g></g><g><linearGradient id="hair3XMLID_967_" gradientUnits="userSpaceOnUse" x1="341.0771" y1="385" x2="341.0771" y2="130.0002"><stop offset="0" style="stop-color:#FCFCE4"></stop><stop offset="0.5" style="stop-color:#A0C8DD"></stop><stop offset="1" style="stop-color:#5D6EC5"></stop></linearGradient><path style="fill:url(#hair3XMLID_967_);stroke:#1E1E1E;stroke-linecap:round;stroke-linejoin:round;" d="M308.97,139.892c0,0,0-22.819,19.727-30.167c22.463-8.37,34.035,11.216,34.035,11.216s10.828,4.642,10.443,18.952c0,0-10.832-15.084-31.33-13.15c-20.499,1.934-19.725,23.979-19.725,23.979L308.97,139.892z"></path><path style="fill:none;stroke:#1E1E1E;stroke-linecap:round;stroke-linejoin:round;" d="M362.731,120.94c0,0-5.803-5.028-18.18-3.094"></path></g></g></g></g></g></svg>