<svg xmlns="http://www.w3.org/2000/svg" width="500" height="500" version="1.1"><g id="x051"><g><g><g><linearGradient id="hair3XMLID_986_" gradientUnits="userSpaceOnUse" x1="172.8408" y1="385" x2="172.8408" y2="129.9997"><stop offset="0" style="stop-color:#FCFCE4"></stop><stop offset="0.5" style="stop-color:#A0C8DD"></stop><stop offset="1" style="stop-color:#5D6EC5"></stop></linearGradient><path style="fill:url(#hair3XMLID_986_);stroke:#1E1E1E;stroke-linecap:round;stroke-linejoin:round;" d="M184.582,287.83c0,0-26.107,48.731-16.824,76.579c3.48,7.543,1.74,11.604,1.74,11.604S142.811,356.868,184.582,287.83z"></path><linearGradient id="hair3XMLID_987_" gradientUnits="userSpaceOnUse" x1="182.8423" y1="385" x2="182.8423" y2="129.9994"><stop offset="0" style="stop-color:#FCFCE4"></stop><stop offset="0.5" style="stop-color:#A0C8DD"></stop><stop offset="1" style="stop-color:#5D6EC5"></stop></linearGradient><path style="fill:url(#hair3XMLID_987_);stroke:#1E1E1E;stroke-linecap:round;stroke-linejoin:round;" d="M195.024,232.136c0,0,5.222,18.564-1.16,47.571c-6.382,29.008-13.343,84.122,0.58,100.946c-8.122-2.9-15.664-15.084-14.503-30.748c0,0-9.283,44.671,11.603,59.175c-24.946-8.701-28.427-43.511-15.664-88.182c12.764-44.671,10.442-93.984,9.863-100.946C188.644,213.571,195.024,232.136,195.024,232.136z"></path></g><g><linearGradient id="hair3XMLID_988_" gradientUnits="userSpaceOnUse" x1="327.1582" y1="385" x2="327.1582" y2="129.9997"><stop offset="0" style="stop-color:#FCFCE4"></stop><stop offset="0.5" style="stop-color:#A0C8DD"></stop><stop offset="1" style="stop-color:#5D6EC5"></stop></linearGradient><path style="fill:url(#hair3XMLID_988_);stroke:#1E1E1E;stroke-linecap:round;stroke-linejoin:round;" d="M315.417,287.83c0,0,26.107,48.731,16.824,76.579c-3.479,7.543-1.739,11.604-1.739,11.604S357.188,356.868,315.417,287.83z"></path><linearGradient id="hair3XMLID_989_" gradientUnits="userSpaceOnUse" x1="317.1582" y1="385" x2="317.1582" y2="129.9994"><stop offset="0" style="stop-color:#FCFCE4"></stop><stop offset="0.5" style="stop-color:#A0C8DD"></stop><stop offset="1" style="stop-color:#5D6EC5"></stop></linearGradient><path style="fill:url(#hair3XMLID_989_);stroke:#1E1E1E;stroke-linecap:round;stroke-linejoin:round;" d="M304.977,232.136c0,0-5.223,18.564,1.16,47.571c6.381,29.008,13.343,84.122-0.58,100.946c8.121-2.9,15.663-15.084,14.504-30.748c0,0,9.28,44.671-11.604,59.175c24.947-8.701,28.429-43.511,15.665-88.182s-10.443-93.984-9.863-100.946C311.357,213.571,304.977,232.136,304.977,232.136z"></path></g></g></g></g></svg>