<svg xmlns="http://www.w3.org/2000/svg" width="500" height="500" version="1.1"><g id="x052"><g><g><linearGradient id="hair3XMLID_990_" gradientUnits="userSpaceOnUse" x1="175.4307" y1="385" x2="175.4306" y2="130.0002"><stop offset="0" style="stop-color:#FCFCE4"></stop><stop offset="0.5" style="stop-color:#A0C8DD"></stop><stop offset="1" style="stop-color:#5D6EC5"></stop></linearGradient><path style="fill:url(#hair3XMLID_990_);stroke:#1E1E1E;stroke-linecap:round;stroke-linejoin:round;" d="M187.922,262.56c0,0-28.471,22.305-30.345,41.404c-1.754-34.646,9.935-53.119,35.877-62.12"></path><linearGradient id="hair3XMLID_991_" gradientUnits="userSpaceOnUse" x1="225.4951" y1="385" x2="225.4951" y2="130.0011"><stop offset="0" style="stop-color:#FCFCE4"></stop><stop offset="0.5" style="stop-color:#A0C8DD"></stop><stop offset="1" style="stop-color:#5D6EC5"></stop></linearGradient><path style="fill:url(#hair3XMLID_991_);stroke:#1E1E1E;stroke-linecap:round;stroke-linejoin:round;" d="M226.282,116.362c0,0,1.588-23.129,27.799-23.129c26.206,0,31.765,12.012,34.148,27.896c2.382,15.883-46.064,153.277-70.684,162.807c-24.62,9.53-48.445,19.854-54.005,32.562c-3.176-23.031,1.589-44.475,27.796-67.506C195.31,158.454,226.282,116.362,226.282,116.362z"></path></g></g></g></svg>