<svg xmlns="http://www.w3.org/2000/svg" width="500" height="500" version="1.1"><g id="x056"><g><g><g><g><linearGradient id="hair3XMLID_1010_" gradientUnits="userSpaceOnUse" x1="158.1572" y1="385" x2="158.1572" y2="130.0001"><stop offset="0" style="stop-color:#FCFCE4"></stop><stop offset="0.5" style="stop-color:#A0C8DD"></stop><stop offset="1" style="stop-color:#5D6EC5"></stop></linearGradient><path style="fill:url(#hair3XMLID_1010_);stroke:#1E1E1E;stroke-linecap:round;stroke-linejoin:round;" d="M176.033,145.514c0,0-10.292-5.625-20.885,2.32c-11.603,8.702-9.863,19.145-6.961,25.527c-11.023-10.443-11.603-28.428,5.22-35.969C170.232,129.85,176.033,145.514,176.033,145.514z"></path><linearGradient id="hair3XMLID_1011_" gradientUnits="userSpaceOnUse" x1="155.3169" y1="385" x2="155.3169" y2="130.0001"><stop offset="0" style="stop-color:#FCFCE4"></stop><stop offset="0.5" style="stop-color:#A0C8DD"></stop><stop offset="1" style="stop-color:#5D6EC5"></stop></linearGradient><path style="fill:url(#hair3XMLID_1011_);stroke:#1E1E1E;stroke-linecap:round;stroke-linejoin:round;" d="M173.091,142.88c0,0-1.013-11.684-13.495-16.108c-13.67-4.845-21.402,2.385-25.111,8.334c2.595-14.961,17.25-25.4,32.845-15.564S173.091,142.88,173.091,142.88z"></path><linearGradient id="hair3XMLID_1012_" gradientUnits="userSpaceOnUse" x1="187.5596" y1="385" x2="187.5596" y2="130.0001"><stop offset="0" style="stop-color:#FCFCE4"></stop><stop offset="0.5" style="stop-color:#A0C8DD"></stop><stop offset="1" style="stop-color:#5D6EC5"></stop></linearGradient><path style="fill:url(#hair3XMLID_1012_);stroke:#1E1E1E;stroke-linecap:round;stroke-linejoin:round;" d="M181.772,138.485c0,0-6.989-9.418-0.581-21.005c7.021-12.692,17.604-12.407,24.324-10.414c-11.863-9.478-29.755-7.574-34.906,10.13C165.458,134.897,181.772,138.485,181.772,138.485z"></path></g><g><linearGradient id="hair3XMLID_1013_" gradientUnits="userSpaceOnUse" x1="182.4502" y1="385" x2="182.4502" y2="129.9999"><stop offset="0" style="stop-color:#FCFCE4"></stop><stop offset="0.5" style="stop-color:#A0C8DD"></stop><stop offset="1" style="stop-color:#5D6EC5"></stop></linearGradient><path style="fill:url(#hair3XMLID_1013_);stroke:#1E1E1E;stroke-linecap:round;stroke-linejoin:round;" d="M169.652,143.773c0,0,0.581-13.343,8.122-15.663c2.9,1.16,5.803,1.16,5.803,1.16l5.221-2.321c0,0,5.801,3.481,6.961,8.122c-4.061,4.061-18.564,20.886-18.564,20.886S166.75,150.736,169.652,143.773z"></path><path style="fill:none;stroke:#1E1E1E;stroke-linecap:round;stroke-linejoin:round;" d="M176.033,136.812c0,0,2.32-5.222,7.543-7.542"></path></g></g></g><g><g><g><linearGradient id="hair3XMLID_1014_" gradientUnits="userSpaceOnUse" x1="341.8428" y1="385" x2="341.8428" y2="130.0001"><stop offset="0" style="stop-color:#FCFCE4"></stop><stop offset="0.5" style="stop-color:#A0C8DD"></stop><stop offset="1" style="stop-color:#5D6EC5"></stop></linearGradient><path style="fill:url(#hair3XMLID_1014_);stroke:#1E1E1E;stroke-linecap:round;stroke-linejoin:round;" d="M323.967,145.514c0,0,10.292-5.625,20.885,2.32c11.604,8.702,9.863,19.145,6.962,25.527c11.023-10.443,11.603-28.428-5.22-35.969C329.768,129.85,323.967,145.514,323.967,145.514z"></path><linearGradient id="hair3XMLID_1015_" gradientUnits="userSpaceOnUse" x1="344.6826" y1="385" x2="344.6826" y2="130.0001"><stop offset="0" style="stop-color:#FCFCE4"></stop><stop offset="0.5" style="stop-color:#A0C8DD"></stop><stop offset="1" style="stop-color:#5D6EC5"></stop></linearGradient><path style="fill:url(#hair3XMLID_1015_);stroke:#1E1E1E;stroke-linecap:round;stroke-linejoin:round;" d="M326.909,142.88c0,0,1.013-11.684,13.495-16.108c13.67-4.845,21.402,2.385,25.111,8.334c-2.595-14.961-17.25-25.4-32.846-15.564C317.075,129.377,326.909,142.88,326.909,142.88z"></path><linearGradient id="hair3XMLID_1016_" gradientUnits="userSpaceOnUse" x1="312.4404" y1="385" x2="312.4404" y2="130.0001"><stop offset="0" style="stop-color:#FCFCE4"></stop><stop offset="0.5" style="stop-color:#A0C8DD"></stop><stop offset="1" style="stop-color:#5D6EC5"></stop></linearGradient><path style="fill:url(#hair3XMLID_1016_);stroke:#1E1E1E;stroke-linecap:round;stroke-linejoin:round;" d="M318.228,138.485c0,0,6.989-9.418,0.581-21.005c-7.021-12.692-17.604-12.407-24.324-10.414c11.863-9.478,29.755-7.574,34.906,10.13C334.542,134.897,318.228,138.485,318.228,138.485z"></path></g><g><linearGradient id="hair3XMLID_1017_" gradientUnits="userSpaceOnUse" x1="317.5498" y1="385" x2="317.5498" y2="129.9999"><stop offset="0" style="stop-color:#FCFCE4"></stop><stop offset="0.5" style="stop-color:#A0C8DD"></stop><stop offset="1" style="stop-color:#5D6EC5"></stop></linearGradient><path style="fill:url(#hair3XMLID_1017_);stroke:#1E1E1E;stroke-linecap:round;stroke-linejoin:round;" d="M330.348,143.773c0,0-0.58-13.343-8.121-15.663c-2.9,1.16-5.803,1.16-5.803,1.16l-5.221-2.321c0,0-5.801,3.481-6.961,8.122c4.061,4.061,18.564,20.886,18.564,20.886S333.25,150.736,330.348,143.773z"></path><path style="fill:none;stroke:#1E1E1E;stroke-linecap:round;stroke-linejoin:round;" d="M323.967,136.812c0,0-2.32-5.222-7.543-7.542"></path></g></g></g></g></g></svg>