<svg xmlns="http://www.w3.org/2000/svg" width="500" height="500" version="1.1"><g id="x057"><g><g><linearGradient id="hair3XMLID_1018_" gradientUnits="userSpaceOnUse" x1="160.5806" y1="385" x2="160.5806" y2="129.9999"><stop offset="0" style="stop-color:#FCFCE4"></stop><stop offset="0.5" style="stop-color:#A0C8DD"></stop><stop offset="1" style="stop-color:#5D6EC5"></stop></linearGradient><path style="fill:url(#hair3XMLID_1018_);stroke:#1E1E1E;stroke-linecap:round;stroke-linejoin:round;" d="M190.975,127.392c0,0,0-11.603-5.802-12.764c-2.71-1.478-8.702-6.381-14.667-0.857c-5.466,1.065-11.249,4.943-14.921,13.621c0,0-3.481,18.565-11.603,24.946c-8.122,6.381-21.466,26.687-12.764,44.671c-0.58-11.603,0.58-22.625,10.443-30.748c-2.321,5.801-11.023,33.068-3.481,44.671c1.161,6.962-2.32,13.344-8.122,13.924c3.481,1.16,12.764,0,14.503-10.443c0.581,2.32-6.961,17.984,13.344,24.946c-5.802-9.282-2.32-30.748,5.801-35.969c8.123-1.741,23.206-21.466,27.268-43.511C195.035,137.834,190.975,127.392,190.975,127.392z"></path><path style="fill:none;stroke:#1E1E1E;stroke-linecap:round;stroke-linejoin:round;" d="M170.669,113.468c0,0-4.177,3.957-7.118,11.193"></path></g><g><linearGradient id="hair3XMLID_1019_" gradientUnits="userSpaceOnUse" x1="339.4199" y1="385" x2="339.4199" y2="129.9999"><stop offset="0" style="stop-color:#FCFCE4"></stop><stop offset="0.5" style="stop-color:#A0C8DD"></stop><stop offset="1" style="stop-color:#5D6EC5"></stop></linearGradient><path style="fill:url(#hair3XMLID_1019_);stroke:#1E1E1E;stroke-linecap:round;stroke-linejoin:round;" d="M309.025,127.392c0,0,0-11.603,5.801-12.764c2.711-1.478,8.703-6.381,14.668-0.857c5.466,1.065,11.25,4.943,14.92,13.621c0,0,3.482,18.565,11.603,24.946c8.123,6.381,21.467,26.687,12.765,44.671c0.579-11.603-0.581-22.625-10.443-30.748c2.321,5.801,11.022,33.068,3.481,44.671c-1.16,6.962,2.32,13.344,8.121,13.924c-3.48,1.16-12.764,0-14.504-10.443c-0.58,2.32,6.962,17.984-13.343,24.946c5.803-9.282,2.32-30.748-5.802-35.969c-8.123-1.741-23.206-21.466-27.267-43.511C304.965,137.834,309.025,127.392,309.025,127.392z"></path><path style="fill:none;stroke:#1E1E1E;stroke-linecap:round;stroke-linejoin:round;" d="M329.33,113.468c0,0,4.177,3.957,7.117,11.193"></path></g></g></g></svg>