<svg xmlns="http://www.w3.org/2000/svg" width="500" height="500" version="1.1"><g id="x058"><g><g><g><linearGradient id="hair3XMLID_1020_" gradientUnits="userSpaceOnUse" x1="347.625" y1="385" x2="347.625" y2="129.9999"><stop offset="0" style="stop-color:#FCFCE4"></stop><stop offset="0.5" style="stop-color:#A0C8DD"></stop><stop offset="1" style="stop-color:#5D6EC5"></stop></linearGradient><path style="fill:url(#hair3XMLID_1020_);stroke:#1E1E1E;stroke-linecap:round;stroke-linejoin:round;" d="M334.505,167.435c-0.393-16.463-13.985-35.491-13.985-35.491s8.64-5.803,13.288-5.533c4.649,0.271,14.626,5.829,18.881,11.244c2.23,2.468,3.22,18.396,6.188,27.074c2.421,7.081,9.668,16.63,8.896,21.272c-0.952,8.258-3.873,16.244-8.155,20.681c3.141,4.419,9.411,10.758,13.569,16.835c4.441,6.492-0.481,22.028-17.681,29.3c-1.211,3.661-2.799,6.533-4.881,8.03c-13.795,9.083-9.189,24.25-7.219,26.873c-14.312-8.896-16.517-22.044-12.585-33.205s-4.809-23.837-7.353-36.206C319.081,196.979,334.896,183.899,334.505,167.435z"></path><linearGradient id="hair3XMLID_1021_" gradientUnits="userSpaceOnUse" x1="339.0566" y1="385" x2="339.0566" y2="130.0003"><stop offset="0" style="stop-color:#FCFCE4"></stop><stop offset="0.5" style="stop-color:#A0C8DD"></stop><stop offset="1" style="stop-color:#5D6EC5"></stop></linearGradient><path style="fill:url(#hair3XMLID_1021_);stroke:#1E1E1E;stroke-linecap:round;stroke-linejoin:round;" d="M345.338,215.781c0,0,1.935,20.499,3.096,22.433c1.159,1.933,13.923,16.243,13.923,26.686c0,10.443-18.95,19.339-23.207,21.272c14.694-12.764,7.738-22.045,8.123-25.913c-2.707-4.254-25.144-18.951-30.172-28.234c-5.028-9.282,5.415-29.781,8.896-36.355"></path><path style="fill:none;stroke:#1E1E1E;stroke-linecap:round;stroke-linejoin:round;" d="M360.812,208.046c0,0-5.416-5.028-7.351-8.896c-1.159-3.095-0.772-11.604-0.772-11.604"></path></g><g><g><linearGradient id="hair3XMLID_1022_" gradientUnits="userSpaceOnUse" x1="311.5586" y1="385" x2="311.5586" y2="130.0002"><stop offset="0" style="stop-color:#FCFCE4"></stop><stop offset="0.5" style="stop-color:#A0C8DD"></stop><stop offset="1" style="stop-color:#5D6EC5"></stop></linearGradient><path style="fill:url(#hair3XMLID_1022_);stroke:#1E1E1E;stroke-linecap:round;stroke-linejoin:round;" d="M294.668,132.24c0,0,15.09-6.576,17.797-6.189c3.093,1.547,5.026,3.48,5.026,3.48s5.415,0.774,7.35,2.708c3.094,4.641,5.028,17.018,2.32,20.112c-3.48,1.547-10.056,6.575-10.056,6.575L294.668,132.24z"></path><path style="fill:none;stroke:#1E1E1E;stroke-linecap:round;stroke-linejoin:round;" d="M316.525,129.146c0,0,5.027,5.801,5.027,10.056"></path></g></g></g><g><g><linearGradient id="hair3XMLID_1023_" gradientUnits="userSpaceOnUse" x1="152.3755" y1="385" x2="152.3755" y2="129.9999"><stop offset="0" style="stop-color:#FCFCE4"></stop><stop offset="0.5" style="stop-color:#A0C8DD"></stop><stop offset="1" style="stop-color:#5D6EC5"></stop></linearGradient><path style="fill:url(#hair3XMLID_1023_);stroke:#1E1E1E;stroke-linecap:round;stroke-linejoin:round;" d="M165.495,167.435c0.393-16.463,13.985-35.491,13.985-35.491s-8.638-5.803-13.287-5.533c-4.649,0.271-14.626,5.829-18.881,11.244c-2.23,2.468-3.22,18.396-6.188,27.074c-2.422,7.081-9.669,16.63-8.897,21.272c0.954,8.258,3.873,16.244,8.156,20.681c-3.141,4.419-9.411,10.758-13.569,16.835c-4.442,6.492,0.48,22.028,17.681,29.3c1.209,3.661,2.799,6.533,4.88,8.03c13.794,9.083,9.189,24.25,7.219,26.873c14.311-8.896,16.517-22.044,12.585-33.205c-3.931-11.161,4.808-23.837,7.351-36.206C180.918,196.979,165.103,183.899,165.495,167.435z"></path><linearGradient id="hair3XMLID_1024_" gradientUnits="userSpaceOnUse" x1="160.9429" y1="385" x2="160.9429" y2="130.0003"><stop offset="0" style="stop-color:#FCFCE4"></stop><stop offset="0.5" style="stop-color:#A0C8DD"></stop><stop offset="1" style="stop-color:#5D6EC5"></stop></linearGradient><path style="fill:url(#hair3XMLID_1024_);stroke:#1E1E1E;stroke-linecap:round;stroke-linejoin:round;" d="M154.661,215.781c0,0-1.935,20.499-3.095,22.433c-1.16,1.933-13.924,16.243-13.924,26.686c0,10.443,18.952,19.339,23.207,21.272c-14.693-12.764-7.736-22.045-8.123-25.913c2.707-4.254,25.146-18.951,30.172-28.234c5.028-9.282-5.415-29.781-8.896-36.355"></path><path style="fill:none;stroke:#1E1E1E;stroke-linecap:round;stroke-linejoin:round;" d="M139.189,208.046c0,0,5.415-5.028,7.349-8.896c1.161-3.095,0.773-11.604,0.773-11.604"></path></g><g><g><linearGradient id="hair3XMLID_1025_" gradientUnits="userSpaceOnUse" x1="188.0508" y1="385" x2="188.0508" y2="130.0001"><stop offset="0" style="stop-color:#FCFCE4"></stop><stop offset="0.5" style="stop-color:#A0C8DD"></stop><stop offset="1" style="stop-color:#5D6EC5"></stop></linearGradient><path style="fill:url(#hair3XMLID_1025_);stroke:#1E1E1E;stroke-linecap:round;stroke-linejoin:round;" d="M204.552,131.08c0,0-14.31-5.416-17.017-5.029c-3.094,1.547-5.027,3.48-5.027,3.48s-5.415,0.774-7.349,2.708c-3.094,4.641-5.028,17.018-2.321,20.112c3.481,1.547,10.057,6.575,10.057,6.575L204.552,131.08z"></path><path style="fill:none;stroke:#1E1E1E;stroke-linecap:round;stroke-linejoin:round;" d="M183.475,129.146c0,0-5.028,5.801-5.028,10.056"></path></g></g></g></g></g></svg>