<svg xmlns="http://www.w3.org/2000/svg" width="500" height="500" version="1.1"><g id="x059"><g><g><linearGradient id="hair3XMLID_1026_" gradientUnits="userSpaceOnUse" x1="177.7837" y1="385" x2="177.7837" y2="130.0002"><stop offset="0" style="stop-color:#FCFCE4"></stop><stop offset="0.5" style="stop-color:#A0C8DD"></stop><stop offset="1" style="stop-color:#5D6EC5"></stop></linearGradient><path style="fill:url(#hair3XMLID_1026_);stroke:#1E1E1E;stroke-linecap:round;stroke-linejoin:round;" d="M197.333,265.442c0.157-1.276-1.826-4.697-3.898-7.379c2.161-1.779,4.113-4.023,4.237-5.172c0.152-1.432-2.409-5.504-4.76-8.227c1.101-1.627,1.864-3.206,1.795-4.038c-0.187-2.202-7.84-9.326-9.812-9.128c-1.974,0.2-6.987,7.316-6.783,9.29c0.082,0.806,2.483,3.987,4.876,6.38c-0.933,1.1-1.585,2.118-1.64,2.737c-0.072,0.821,1.739,4.502,3.667,7.323c-2.002,1.772-3.852,3.937-3.96,4.984c-0.095,0.923,2.154,5.522,4.29,8.418c-2.15,1.736-4.214,3.964-4.363,5.05c-0.029,0.214,0.071,0.646,0.254,1.199c-0.638,0.444-1.358,1.048-2.094,1.736c-1.279-0.879-2.79-1.76-4.213-2.455c1.103-1.665,1.865-3.286,1.783-4.129c-0.128-1.32-2.979-4.377-5.661-6.563c1.858-2.006,3.431-4.388,3.411-5.513c-0.026-1.34-2.681-4.663-5.208-7.055c2.205-1.228,4.171-2.76,4.502-3.744c0.418-1.253-0.918-5.167-2.464-8.249c2.725-0.949,5.483-2.48,6.001-3.556c0.444-0.926,0.033-3.591-0.713-6.259c2.987-0.57,6.28-1.859,6.968-2.938c1.188-1.863-0.584-12.171-2.276-13.207c-1.691-1.033-9.989,1.595-11.026,3.285c-0.366,0.598-0.423,3.696-0.135,6.7c-2.945,0.953-6.655,2.948-7.207,4.149c-0.375,0.82,0.24,5.673,1.285,9.092c-2.593,1.364-5.384,3.438-5.739,4.564c-0.314,1,1.37,7.211,3.124,10.29c-1.917,2.13-3.726,4.873-3.685,6.02c0.035,0.892,2.705,4.863,5.155,7.45c-1.631,2.208-3.05,4.846-2.926,5.926c0.119,1.021,4.053,5.85,6.901,8.001c-0.794,2.104-1.284,4.191-0.991,5.03c0.431,1.236,8.25,7.162,10.652,6.889c0.613-0.07,1.316-0.684,2.009-1.589c1.777,1.161,3.552,2.02,4.393,1.932c1.126-0.118,6.912-4.8,8.647-7.622c2.576-1.719,5.209-4.32,5.414-5.613c0.226-1.452-2.234-5.785-4.489-8.616C194.983,269.055,197.185,266.651,197.333,265.442z"></path><linearGradient id="hair3XMLID_1027_" gradientUnits="userSpaceOnUse" x1="322.2158" y1="385" x2="322.2158" y2="130.0002"><stop offset="0" style="stop-color:#FCFCE4"></stop><stop offset="0.5" style="stop-color:#A0C8DD"></stop><stop offset="1" style="stop-color:#5D6EC5"></stop></linearGradient><path style="fill:url(#hair3XMLID_1027_);stroke:#1E1E1E;stroke-linecap:round;stroke-linejoin:round;" d="M342.109,259.05c0.042-1.146-1.769-3.891-3.685-6.021c1.754-3.079,3.438-9.289,3.122-10.289c-0.353-1.127-3.146-3.201-5.739-4.564c1.05-3.419,1.663-8.272,1.287-9.092c-0.551-1.203-4.261-3.197-7.209-4.149c0.291-3.004,0.232-6.102-0.133-6.7c-1.037-1.69-9.333-4.318-11.025-3.285c-1.691,1.036-3.465,11.344-2.278,13.207c0.688,1.079,3.98,2.368,6.971,2.938c-0.746,2.668-1.158,5.333-0.713,6.259c0.518,1.076,3.275,2.607,6,3.556c-1.547,3.082-2.883,6.996-2.462,8.249c0.329,0.984,2.295,2.517,4.499,3.744c-2.524,2.392-5.18,5.715-5.206,7.055c-0.018,1.125,1.554,3.507,3.413,5.513c-2.684,2.186-5.535,5.241-5.663,6.563c-0.082,0.842,0.681,2.464,1.783,4.128c-1.424,0.695-2.936,1.576-4.213,2.455c-0.735-0.688-1.458-1.292-2.095-1.736c0.184-0.554,0.283-0.985,0.254-1.199c-0.148-1.086-2.213-3.313-4.361-5.05c2.135-2.896,4.383-7.495,4.289-8.418c-0.11-1.048-1.957-3.212-3.963-4.984c1.932-2.82,3.741-6.502,3.669-7.323c-0.056-0.62-0.708-1.637-1.641-2.737c2.394-2.393,4.795-5.574,4.876-6.38c0.205-1.974-4.809-9.09-6.783-9.29c-1.97-0.198-9.625,6.926-9.812,9.128c-0.068,0.832,0.694,2.411,1.795,4.038c-2.351,2.723-4.912,6.795-4.759,8.227c0.122,1.148,2.076,3.393,4.237,5.172c-2.072,2.682-4.055,6.103-3.899,7.379c0.149,1.209,2.352,3.612,4.678,5.396c-2.252,2.83-4.714,7.163-4.488,8.615c0.202,1.293,2.839,3.895,5.414,5.614c1.738,2.822,7.522,7.503,8.647,7.621c0.84,0.088,2.617-0.771,4.393-1.933c0.692,0.905,1.394,1.52,2.007,1.59c2.402,0.273,10.225-5.652,10.654-6.889c0.293-0.839-0.196-2.926-0.992-5.03c2.851-2.152,6.784-6.979,6.902-8.001c0.124-1.08-1.294-3.719-2.925-5.926C339.406,263.913,342.077,259.941,342.109,259.05z"></path></g></g></g></svg>