<svg xmlns="http://www.w3.org/2000/svg" width="500" height="500" version="1.1"><g id="x006"><g><linearGradient id="hair3XMLID_787_" gradientUnits="userSpaceOnUse" x1="336.4346" y1="385" x2="336.4346" y2="130.0004"><stop offset="0" style="stop-color:#FCFCE4"></stop><stop offset="0.5" style="stop-color:#A0C8DD"></stop><stop offset="1" style="stop-color:#5D6EC5"></stop></linearGradient><path style="fill:url(#hair3XMLID_787_);stroke:#1E1E1E;stroke-linecap:round;stroke-linejoin:round;" d="M307.725,134.197c0,0,5.898-12.924,26.534-7.75c20.636,5.171,19.637,25.479,33.787,40.06c-8.254,0.469-16.689-9.738-17.278-11.15c5.895,8.936,12.993,27.752-4.146,44.357c4.285-10.712-1.161-25.074-1.161-25.074s5.509,19.156-6.872,26.68C312.707,187.337,298.293,154.89,307.725,134.197z"></path><linearGradient id="hair3XMLID_788_" gradientUnits="userSpaceOnUse" x1="163.5659" y1="385" x2="163.5659" y2="130.0004"><stop offset="0" style="stop-color:#FCFCE4"></stop><stop offset="0.5" style="stop-color:#A0C8DD"></stop><stop offset="1" style="stop-color:#5D6EC5"></stop></linearGradient><path style="fill:url(#hair3XMLID_788_);stroke:#1E1E1E;stroke-linecap:round;stroke-linejoin:round;" d="M192.275,134.197c0,0-5.896-12.924-26.531-7.75s-19.64,25.479-33.79,40.057c8.256,0.472,16.691-9.735,17.281-11.147c-5.896,8.936-12.996,27.754,4.144,44.357c-4.284-10.712,1.162-25.074,1.162-25.074s-5.508,19.156,6.873,26.68C187.294,187.337,201.709,154.89,192.275,134.197z"></path></g></g></svg>