<svg xmlns="http://www.w3.org/2000/svg" width="500" height="500" version="1.1"><g id="x061"><g><g><g><linearGradient id="hair3XMLID_1030_" gradientUnits="userSpaceOnUse" x1="188.292" y1="385" x2="188.292" y2="130.0001"><stop offset="0" style="stop-color:#FCFCE4"></stop><stop offset="0.5" style="stop-color:#A0C8DD"></stop><stop offset="1" style="stop-color:#5D6EC5"></stop></linearGradient><path style="fill:url(#hair3XMLID_1030_);stroke:#1E1E1E;stroke-linecap:round;stroke-linejoin:round;" d="M181.241,182.437c0,0-14.31-7.929-19.145-26.88c-0.386-1.161,0.52-3.567,0.52-3.567s-5.776-6.563-7.095-15.578c0.193-2.514,0.193-4.448,0.193-4.448s-5.801-11.603-6.381-17.598c-0.32-3.295,4.254-8.896,7.155-9.283c2.901-0.386,11.216,1.16,18.952,5.995c2.32-0.773,3.674-0.58,3.674-0.58s11.023-0.194,16.631,4.834c1.16-0.58,1.934-0.58,2.9-0.58c8.122,0.58,22.045,9.669,28.621,20.499C221.571,140.556,181.241,182.437,181.241,182.437z"></path><path style="fill:none;stroke:#1E1E1E;stroke-linecap:round;stroke-linejoin:round;" d="M196.325,115.913c0,0-18.565,12.763-15.083,52.987"></path><path style="fill:none;stroke:#1E1E1E;stroke-linecap:round;stroke-linejoin:round;" d="M175.246,111.659c0,0-9.668,10.829-11.203,32.072"></path><path style="fill:none;stroke:#1E1E1E;stroke-linecap:round;stroke-linejoin:round;" d="M155.714,136.218c-0.386-1.16,0.967-20.305,10.83-29.008"></path><path style="fill:none;stroke:#1E1E1E;stroke-linecap:round;stroke-linejoin:round;" d="M194.391,118.813c0,0-10.636,25.14-13.344,39.644"></path></g><g><linearGradient id="hair3XMLID_1031_" gradientUnits="userSpaceOnUse" x1="310.8271" y1="385" x2="310.8271" y2="130.0001"><stop offset="0" style="stop-color:#FCFCE4"></stop><stop offset="0.5" style="stop-color:#A0C8DD"></stop><stop offset="1" style="stop-color:#5D6EC5"></stop></linearGradient><path style="fill:url(#hair3XMLID_1031_);stroke:#1E1E1E;stroke-linecap:round;stroke-linejoin:round;" d="M318.93,182.049c0,0,14.139-7.542,18.974-26.493c0.386-1.161-0.519-3.567-0.519-3.567s5.775-6.563,7.094-15.578c-0.194-2.514-0.194-4.448-0.194-4.448s5.803-11.603,6.383-17.598c0.318-3.295-4.255-8.896-7.155-9.283c-2.902-0.386-11.216,1.16-18.951,5.995c-2.32-0.773-3.676-0.58-3.676-0.58s-11.022-0.194-16.631,4.834c-1.16-0.58-1.934-0.58-2.9-0.58c-8.121,0.58-21.873,8.896-30.382,20.112C276.667,140.169,318.93,182.049,318.93,182.049z"></path><path style="fill:none;stroke:#1E1E1E;stroke-linecap:round;stroke-linejoin:round;" d="M303.674,115.913c0,0,18.566,12.763,15.084,52.987"></path><path style="fill:none;stroke:#1E1E1E;stroke-linecap:round;stroke-linejoin:round;" d="M324.753,111.659c0,0,9.671,10.829,11.204,32.072"></path><path style="fill:none;stroke:#1E1E1E;stroke-linecap:round;stroke-linejoin:round;" d="M344.284,136.218c0.389-1.16-0.965-20.305-10.828-29.008"></path><path style="fill:none;stroke:#1E1E1E;stroke-linecap:round;stroke-linejoin:round;" d="M305.608,118.813c0,0,10.636,25.14,13.344,39.644"></path></g></g></g></g></svg>