<svg xmlns="http://www.w3.org/2000/svg" width="500" height="500" version="1.1"><g id="x062"><g><g><linearGradient id="hair3XMLID_1032_" gradientUnits="userSpaceOnUse" x1="220.481" y1="385" x2="220.4809" y2="129.9999"><stop offset="0" style="stop-color:#FCFCE4"></stop><stop offset="0.5" style="stop-color:#A0C8DD"></stop><stop offset="1" style="stop-color:#5D6EC5"></stop></linearGradient><path style="fill:url(#hair3XMLID_1032_);stroke:#1E1E1E;stroke-linecap:round;stroke-linejoin:round;" d="M200.899,231.515c25.991-59.136,5.313-87.655,5.313-97.233c0-20.19,15.72-45.788,46.755-46.225c37.727-0.532,46.228,20.721,46.228,20.721s29.754,14.878,20.721,55.259c0,0,8.121,49.12-35.6,90.325c-46.224,43.568-78.274,27.081-130.706,62.696c-12.849,8.729-24.441,21.786-32.942,36.663C113.23,312.81,136.608,272.959,200.899,231.515z"></path><linearGradient id="hair3XMLID_1033_" gradientUnits="userSpaceOnUse" x1="155.2236" y1="385" x2="155.2236" y2="129.9998"><stop offset="0" style="stop-color:#FCFCE4"></stop><stop offset="0.5" style="stop-color:#A0C8DD"></stop><stop offset="1" style="stop-color:#5D6EC5"></stop></linearGradient><path style="fill:url(#hair3XMLID_1033_);stroke:#1E1E1E;stroke-linecap:round;stroke-linejoin:round;" d="M172.207,305.9c0,0-30.285,25.504-31.347,57.914c-3.188-21.251-6.908-37.724,11.689-62.696"></path></g></g></g></svg>