<svg xmlns="http://www.w3.org/2000/svg" width="500" height="500" version="1.1"><g id="x064"><g><g><g><g><linearGradient id="hair3XMLID_1036_" gradientUnits="userSpaceOnUse" x1="355.8711" y1="385" x2="355.8711" y2="129.9998"><stop offset="0" style="stop-color:#FCFCE4"></stop><stop offset="0.5" style="stop-color:#A0C8DD"></stop><stop offset="1" style="stop-color:#5D6EC5"></stop></linearGradient><path style="fill:url(#hair3XMLID_1036_);stroke:#1E1E1E;stroke-linecap:round;stroke-linejoin:round;" d="M356.297,216.117c0,0,5.077,53.313,9.307,62.622c-9.307,7.615-15.23,11.847-15.23,11.847s5.076-25.387-4.233-49.082C351.218,232.195,356.297,216.117,356.297,216.117z"></path><linearGradient id="hair3XMLID_1037_" gradientUnits="userSpaceOnUse" x1="338.3262" y1="385" x2="338.3262" y2="130.0002"><stop offset="0" style="stop-color:#FCFCE4"></stop><stop offset="0.5" style="stop-color:#A0C8DD"></stop><stop offset="1" style="stop-color:#5D6EC5"></stop></linearGradient><path style="fill:url(#hair3XMLID_1037_);stroke:#1E1E1E;stroke-linecap:round;stroke-linejoin:round;" d="M324.985,203.424c0,0,11,40.619,11.846,49.928c0.848,13.54-7.615,49.082-7.615,49.082l8.463-3.386c0,0,18.618-55.851,21.155-72.776c2.54-16.925,0.846-50.774-0.846-54.158c-1.691-3.386-18.617-49.082-24.541-51.621c-5.922-2.539-16.924,18.617-16.924,18.617S319.062,198.346,324.985,203.424z"></path><linearGradient id="hair3XMLID_1038_" gradientUnits="userSpaceOnUse" x1="348.834" y1="385" x2="348.834" y2="130.0002"><stop offset="0" style="stop-color:#FCFCE4"></stop><stop offset="0.5" style="stop-color:#A0C8DD"></stop><stop offset="1" style="stop-color:#5D6EC5"></stop></linearGradient><path style="fill:url(#hair3XMLID_1038_);stroke:#1E1E1E;stroke-linecap:round;stroke-linejoin:round;" d="M362.22,274.507c0,0-6.758,13.677-18.616,19.465c-11.849,3.383-17.772,7.616-17.772,7.616s-6.767,9.176-5.077,16.076c1.027,4.191,11.946,10.625,11.946,10.625s7.665-10.071,20.895-16.514c7.64-3.722,17.706-3.685,23.59-11.121C374.646,292.192,362.22,274.507,362.22,274.507z"></path><path style="fill:none;stroke:#1E1E1E;stroke-linecap:round;stroke-linejoin:round;" d="M344.34,317.167c0,0,13.816-16.851,26.961-25.949"></path><linearGradient id="hair3XMLID_1039_" gradientUnits="userSpaceOnUse" x1="368.4238" y1="385" x2="368.4238" y2="130.0006"><stop offset="0" style="stop-color:#FCFCE4"></stop><stop offset="0.5" style="stop-color:#A0C8DD"></stop><stop offset="1" style="stop-color:#5D6EC5"></stop></linearGradient><path style="fill:url(#hair3XMLID_1039_);stroke:#1E1E1E;stroke-linecap:round;stroke-linejoin:round;" d="M376.85,327.614c-0.675,1.349-5.057,13.48-2.695,16.515c-5.057-2.696-14.155-7.415-14.155-7.415L376.85,327.614z"></path><linearGradient id="hair3XMLID_1040_" gradientUnits="userSpaceOnUse" x1="361.4277" y1="385" x2="361.4277" y2="130.0002"><stop offset="0" style="stop-color:#FCFCE4"></stop><stop offset="0.5" style="stop-color:#A0C8DD"></stop><stop offset="1" style="stop-color:#5D6EC5"></stop></linearGradient><path style="fill:url(#hair3XMLID_1040_);stroke:#1E1E1E;stroke-linecap:round;stroke-linejoin:round;" d="M375.683,295.936c0,0,7.416,5.393,8.425,8.089c1.012,2.695-1.58,20.41-4.119,22.949c-2.536,2.539-16.959,17.155-41.464,13.54c13.902-6.158,24.839-16.367,29.069-32.446C370.908,304.086,375.683,295.936,375.683,295.936z"></path></g><path style="fill:none;stroke:#1E1E1E;stroke-linecap:round;stroke-linejoin:round;" d="M340.452,295.599c0,0,16.513-3.707,26.286-10.449"></path><linearGradient id="hair3XMLID_1041_" gradientUnits="userSpaceOnUse" x1="359.1553" y1="385" x2="359.1553" y2="129.9999"><stop offset="0" style="stop-color:#FCFCE4"></stop><stop offset="0.5" style="stop-color:#A0C8DD"></stop><stop offset="1" style="stop-color:#5D6EC5"></stop></linearGradient><path style="fill:url(#hair3XMLID_1041_);stroke:#1E1E1E;stroke-linecap:round;stroke-linejoin:round;" d="M373.479,343.117c0,0,2.358,6.068,3.705,7.415c-1.165,13.144-4.042,17.188-4.042,17.188s-22.581,5.393-32.017,0C352.583,364.013,364.717,360.308,373.479,343.117z"></path><path style="fill:none;stroke:#1E1E1E;stroke-linecap:round;stroke-linejoin:round;" d="M340.786,172.587c0.34,1.011,1.013,76.503-4.38,94.028"></path></g><g><g><linearGradient id="hair3XMLID_1042_" gradientUnits="userSpaceOnUse" x1="144.1289" y1="385" x2="144.1289" y2="129.9998"><stop offset="0" style="stop-color:#FCFCE4"></stop><stop offset="0.5" style="stop-color:#A0C8DD"></stop><stop offset="1" style="stop-color:#5D6EC5"></stop></linearGradient><path style="fill:url(#hair3XMLID_1042_);stroke:#1E1E1E;stroke-linecap:round;stroke-linejoin:round;" d="M143.705,216.117c0,0-5.077,53.313-9.308,62.622c9.308,7.615,15.232,11.847,15.232,11.847s-5.077-25.387,4.231-49.082C148.783,232.195,143.705,216.117,143.705,216.117z"></path><linearGradient id="hair3XMLID_1043_" gradientUnits="userSpaceOnUse" x1="161.6753" y1="385" x2="161.6753" y2="130.0002"><stop offset="0" style="stop-color:#FCFCE4"></stop><stop offset="0.5" style="stop-color:#A0C8DD"></stop><stop offset="1" style="stop-color:#5D6EC5"></stop></linearGradient><path style="fill:url(#hair3XMLID_1043_);stroke:#1E1E1E;stroke-linecap:round;stroke-linejoin:round;" d="M175.016,203.424c0,0-11.001,40.619-11.847,49.928c-0.846,13.54,7.616,49.082,7.616,49.082l-8.462-3.386c0,0-18.618-55.851-21.156-72.776c-2.539-16.925-0.847-50.774,0.846-54.159c1.692-3.386,18.616-49.082,24.541-51.621c5.924-2.539,16.924,18.617,16.924,18.617S180.94,198.346,175.016,203.424z"></path><linearGradient id="hair3XMLID_1044_" gradientUnits="userSpaceOnUse" x1="151.167" y1="385" x2="151.167" y2="130.0002"><stop offset="0" style="stop-color:#FCFCE4"></stop><stop offset="0.5" style="stop-color:#A0C8DD"></stop><stop offset="1" style="stop-color:#5D6EC5"></stop></linearGradient><path style="fill:url(#hair3XMLID_1044_);stroke:#1E1E1E;stroke-linecap:round;stroke-linejoin:round;" d="M137.783,274.507c0,0,6.757,13.677,18.616,19.465c11.848,3.383,17.771,7.616,17.771,7.616s6.768,9.176,5.078,16.076c-1.027,4.191-11.946,10.625-11.946,10.625s-7.665-10.071-20.895-16.514c-7.641-3.722-17.706-3.685-23.591-11.121C125.354,292.192,137.783,274.507,137.783,274.507z"></path><path style="fill:none;stroke:#1E1E1E;stroke-linecap:round;stroke-linejoin:round;" d="M155.662,317.167c0,0-13.818-16.851-26.962-25.949"></path><linearGradient id="hair3XMLID_1045_" gradientUnits="userSpaceOnUse" x1="131.5776" y1="385" x2="131.5776" y2="130.0006"><stop offset="0" style="stop-color:#FCFCE4"></stop><stop offset="0.5" style="stop-color:#A0C8DD"></stop><stop offset="1" style="stop-color:#5D6EC5"></stop></linearGradient><path style="fill:url(#hair3XMLID_1045_);stroke:#1E1E1E;stroke-linecap:round;stroke-linejoin:round;" d="M123.152,327.614c0.674,1.349,5.055,13.48,2.697,16.515c5.055-2.696,14.154-7.415,14.154-7.415L123.152,327.614z"></path><linearGradient id="hair3XMLID_1046_" gradientUnits="userSpaceOnUse" x1="138.5728" y1="385" x2="138.5727" y2="130.0002"><stop offset="0" style="stop-color:#FCFCE4"></stop><stop offset="0.5" style="stop-color:#A0C8DD"></stop><stop offset="1" style="stop-color:#5D6EC5"></stop></linearGradient><path style="fill:url(#hair3XMLID_1046_);stroke:#1E1E1E;stroke-linecap:round;stroke-linejoin:round;" d="M124.318,295.936c0,0-7.413,5.393-8.425,8.089c-1.011,2.695,1.58,20.41,4.118,22.949c2.538,2.539,16.959,17.155,41.465,13.54c-13.904-6.158-24.838-16.367-29.07-32.446C129.094,304.086,124.318,295.936,124.318,295.936z"></path></g><path style="fill:none;stroke:#1E1E1E;stroke-linecap:round;stroke-linejoin:round;" d="M159.551,295.599c0,0-16.514-3.707-26.289-10.449"></path><linearGradient id="hair3XMLID_1047_" gradientUnits="userSpaceOnUse" x1="140.8457" y1="385" x2="140.8457" y2="129.9999"><stop offset="0" style="stop-color:#FCFCE4"></stop><stop offset="0.5" style="stop-color:#A0C8DD"></stop><stop offset="1" style="stop-color:#5D6EC5"></stop></linearGradient><path style="fill:url(#hair3XMLID_1047_);stroke:#1E1E1E;stroke-linecap:round;stroke-linejoin:round;" d="M126.523,343.117c0,0-2.36,6.068-3.708,7.415c1.166,13.144,4.044,17.188,4.044,17.188s22.581,5.393,32.017,0C147.417,364.013,135.285,360.308,126.523,343.117z"></path><path style="fill:none;stroke:#1E1E1E;stroke-linecap:round;stroke-linejoin:round;" d="M159.213,172.587c-0.337,1.011-1.011,76.503,4.381,94.028"></path></g></g></g></g></svg>