<svg xmlns="http://www.w3.org/2000/svg" width="500" height="500" version="1.1"><g id="x065"><g><g><linearGradient id="hair3XMLID_1048_" gradientUnits="userSpaceOnUse" x1="146.0303" y1="385" x2="146.0303" y2="130.0001"><stop offset="0" style="stop-color:#FCFCE4"></stop><stop offset="0.5" style="stop-color:#A0C8DD"></stop><stop offset="1" style="stop-color:#5D6EC5"></stop></linearGradient><path style="fill:url(#hair3XMLID_1048_);stroke:#1E1E1E;stroke-linecap:round;stroke-linejoin:round;" d="M120.889,253.357c0,0,23.371,34.003,43.555,38.362c3.541-1.744,6.729-2.616,6.729-2.616s-25.496-29.208-28.684-52.748C131.512,242.459,122.659,249.434,120.889,253.357z"></path><path style="fill:#1E1E1E;" d="M131.203,246.639c0,0,15.664,26.687,31.328,34.229c-13.924-21.465-19.726-40.03-19.726-40.03L131.203,246.639z"></path><linearGradient id="hair3XMLID_1049_" gradientUnits="userSpaceOnUse" x1="144.79" y1="385" x2="144.79" y2="130"><stop offset="0" style="stop-color:#FCFCE4"></stop><stop offset="0.5" style="stop-color:#A0C8DD"></stop><stop offset="1" style="stop-color:#5D6EC5"></stop></linearGradient><path style="fill:url(#hair3XMLID_1049_);stroke:#1E1E1E;stroke-linecap:round;stroke-linejoin:round;" d="M134.344,321.799c0,0,6.729,21.359,16.997,22.231c2.479-0.872,3.896-2.615,3.896-2.615s-10.624-21.796-9.207-31.822C140.011,310.029,134.698,318.746,134.344,321.799z"></path><g><linearGradient id="hair3XMLID_1050_" gradientUnits="userSpaceOnUse" x1="154.0122" y1="385" x2="154.0122" y2="130"><stop offset="0" style="stop-color:#FCFCE4"></stop><stop offset="0.5" style="stop-color:#A0C8DD"></stop><stop offset="1" style="stop-color:#5D6EC5"></stop></linearGradient><path style="fill:url(#hair3XMLID_1050_);stroke:#1E1E1E;stroke-linecap:round;stroke-linejoin:round;" d="M141.825,314.481c12.991-9.408,29.7-8.813,29.7-8.813s0.708-1.308,0.708-4.358c0-3.053,1.063-4.359,1.417-5.669c0.354-1.308-2.479-7.845-2.479-7.845c-14.52,0-33.286,16.564-36.828,34.002l1.596,4.36"></path><path style="fill:none;stroke:#1E1E1E;stroke-linecap:round;stroke-linejoin:round;" d="M167.631,298.258c0,0-8.498,0.437-13.811,4.36"></path></g><linearGradient id="hair3XMLID_1051_" gradientUnits="userSpaceOnUse" x1="147.1792" y1="385" x2="147.1792" y2="129.999"><stop offset="0" style="stop-color:#FCFCE4"></stop><stop offset="0.5" style="stop-color:#A0C8DD"></stop><stop offset="1" style="stop-color:#5D6EC5"></stop></linearGradient><path style="fill:url(#hair3XMLID_1051_);stroke:#1E1E1E;stroke-linecap:round;stroke-linejoin:round;" d="M137.84,363.383c0,0,6.289,8.223,15.271,8.985c2.169-0.763,3.407-2.289,3.407-2.289s-9.696-8.603-8.458-17.372C142.797,353.088,138.15,360.713,137.84,363.383z"></path><linearGradient id="hair3XMLID_1052_" gradientUnits="userSpaceOnUse" x1="155.0679" y1="385" x2="155.0679" y2="129.9999"><stop offset="0" style="stop-color:#FCFCE4"></stop><stop offset="0.5" style="stop-color:#A0C8DD"></stop><stop offset="1" style="stop-color:#5D6EC5"></stop></linearGradient><path style="fill:url(#hair3XMLID_1052_);stroke:#1E1E1E;stroke-linecap:round;stroke-linejoin:round;" d="M144.218,356.575c11.382-8.247,26.146-7.301,26.146-7.301s0.619-1.144,0.619-3.813c0-2.67,0.928-3.814,1.239-4.957c0.31-1.145-2.169-6.863-2.169-6.863c-12.699,0-29.067,13.883-32.165,29.135l2.479,2.835"></path><path style="fill:#1E1E1E;" d="M147.157,355.416c0,0-7.252-1.739-9.638,7.36c2.966,5.114,7.606,7.725,7.606,7.725l9.283-2.61C154.409,367.891,147.737,360.929,147.157,355.416z"></path><linearGradient id="hair3XMLID_1053_" gradientUnits="userSpaceOnUse" x1="149.939" y1="385" x2="149.9389" y2="130.0001"><stop offset="0" style="stop-color:#FCFCE4"></stop><stop offset="0.5" style="stop-color:#A0C8DD"></stop><stop offset="1" style="stop-color:#5D6EC5"></stop></linearGradient><path style="fill:url(#hair3XMLID_1053_);stroke:#1E1E1E;stroke-linecap:round;stroke-linejoin:round;" d="M128.283,186.288c0,0,7.922,11.051,31.868,25.5c15.137-4.903,10.897-5.884,10.897-5.884s-9.878-2.353-16.518-13.143c-1.063-0.98-2.391-14.058-1.55-24.128C137.844,168.634,128.283,186.288,128.283,186.288z"></path><path style="fill:#1E1E1E;" d="M139.905,179.632c0.87,0.58,8.122,11.893,14.214,14.213c-0.87-9.862-2.321-20.015-2.321-20.015L139.905,179.632z"></path><linearGradient id="hair3XMLID_1054_" gradientUnits="userSpaceOnUse" x1="158.8271" y1="385" x2="158.8271" y2="130.0001"><stop offset="0" style="stop-color:#FCFCE4"></stop><stop offset="0.5" style="stop-color:#A0C8DD"></stop><stop offset="1" style="stop-color:#5D6EC5"></stop></linearGradient><path style="fill:url(#hair3XMLID_1054_);stroke:#1E1E1E;stroke-linecap:round;stroke-linejoin:round;" d="M193.611,161.22c0-2.507-19.006-38.438-33.26-40.945c-14.254-2.507-36.309,17.955-36.309,17.955l7.309-1.765c0,0,22.223-13.798,30.357-9.505c14.256,7.521,29.867,39.273,29.867,39.273L193.611,161.22z"></path><linearGradient id="hair3XMLID_1055_" gradientUnits="userSpaceOnUse" x1="155.4829" y1="385" x2="155.4829" y2="129.9999"><stop offset="0" style="stop-color:#FCFCE4"></stop><stop offset="0.5" style="stop-color:#A0C8DD"></stop><stop offset="1" style="stop-color:#5D6EC5"></stop></linearGradient><path style="fill:url(#hair3XMLID_1055_);stroke:#1E1E1E;stroke-linecap:round;stroke-linejoin:round;" d="M138.42,180.34c12.564-6.703,34.67-15.838,52.477-9.093c-0.678,0,0.68-5.014,0.68-5.014c-2.037-5.013-25.794-30.082-34.618-32.589c-8.823-2.506-28.843-0.428-32.915,4.585c-0.679,8.356-3.188,17.655-3.188,17.655l3.188,6.865c0,0-7.132,13.512-3.738,16.854c5.43,4.178,10.323,9.018,10.323,9.018"></path><path style="fill:none;stroke:#1E1E1E;stroke-linecap:round;stroke-linejoin:round;" d="M182.862,161.482c0,0-13.192-13.738-44.081-7.213"></path><linearGradient id="hair3XMLID_1056_" gradientUnits="userSpaceOnUse" x1="154.144" y1="385" x2="154.144" y2="129.9998"><stop offset="0" style="stop-color:#FCFCE4"></stop><stop offset="0.5" style="stop-color:#A0C8DD"></stop><stop offset="1" style="stop-color:#5D6EC5"></stop></linearGradient><path style="fill:url(#hair3XMLID_1056_);stroke:#1E1E1E;stroke-linecap:round;stroke-linejoin:round;" d="M130.001,247.427c16.678-8.932,49.646-17.208,56.981-15.041c1.416-2.615,0-23.757,0-25.501c0-1.743-19.918-1.961-19.918-1.961c-17.161,6.959-28.469,12.687-35.108,26.091c-7.702,7.193-8.693,13.535-11.28,22.342l3.401,4.578"></path><path style="fill:none;stroke:#1E1E1E;stroke-linecap:round;stroke-linejoin:round;" d="M130.682,232.713c0,0,10.57-12.814,36.862-17.718"></path><linearGradient id="hair3XMLID_1057_" gradientUnits="userSpaceOnUse" x1="150.4565" y1="385" x2="150.4565" y2="130.0004"><stop offset="0" style="stop-color:#FCFCE4"></stop><stop offset="0.5" style="stop-color:#A0C8DD"></stop><stop offset="1" style="stop-color:#5D6EC5"></stop></linearGradient><path style="fill:url(#hair3XMLID_1057_);stroke:#1E1E1E;stroke-linecap:round;stroke-linejoin:round;" d="M160.902,372.803c0,0,0-2.615-6.374-3.925c-6.374-1.307-12.748,4.797-14.518,14.387C146.737,375.418,157.715,372.368,160.902,372.803z"></path><linearGradient id="hair3XMLID_1058_" gradientUnits="userSpaceOnUse" x1="151.6963" y1="385" x2="151.6963" y2="130.0005"><stop offset="0" style="stop-color:#FCFCE4"></stop><stop offset="0.5" style="stop-color:#A0C8DD"></stop><stop offset="1" style="stop-color:#5D6EC5"></stop></linearGradient><path style="fill:url(#hair3XMLID_1058_);stroke:#1E1E1E;stroke-linecap:round;stroke-linejoin:round;" d="M140.011,383.265c0,0,2.124,37.056,23.371,8.282C147.092,402.011,140.011,383.265,140.011,383.265z"></path><path style="fill:none;stroke:#1E1E1E;stroke-linecap:round;stroke-linejoin:round;" d="M171.525,342.723c0,0-9.207-0.872-13.103,1.308"></path></g><g><linearGradient id="hair3XMLID_1059_" gradientUnits="userSpaceOnUse" x1="353.9697" y1="385" x2="353.9697" y2="130.0001"><stop offset="0" style="stop-color:#FCFCE4"></stop><stop offset="0.5" style="stop-color:#A0C8DD"></stop><stop offset="1" style="stop-color:#5D6EC5"></stop></linearGradient><path style="fill:url(#hair3XMLID_1059_);stroke:#1E1E1E;stroke-linecap:round;stroke-linejoin:round;" d="M379.111,253.357c0,0-23.371,34.003-43.555,38.362c-3.541-1.744-6.729-2.616-6.729-2.616s25.496-29.208,28.684-52.748C368.488,242.459,377.341,249.434,379.111,253.357z"></path><path style="fill:#1E1E1E;" d="M368.797,246.639c0,0-15.664,26.687-31.328,34.229c13.924-21.465,19.726-40.03,19.726-40.03L368.797,246.639z"></path><linearGradient id="hair3XMLID_1060_" gradientUnits="userSpaceOnUse" x1="355.21" y1="385" x2="355.21" y2="130"><stop offset="0" style="stop-color:#FCFCE4"></stop><stop offset="0.5" style="stop-color:#A0C8DD"></stop><stop offset="1" style="stop-color:#5D6EC5"></stop></linearGradient><path style="fill:url(#hair3XMLID_1060_);stroke:#1E1E1E;stroke-linecap:round;stroke-linejoin:round;" d="M365.656,321.799c0,0-6.729,21.359-16.997,22.231c-2.479-0.872-3.896-2.615-3.896-2.615s10.624-21.796,9.207-31.822C359.989,310.029,365.302,318.746,365.656,321.799z"></path><g><linearGradient id="hair3XMLID_1061_" gradientUnits="userSpaceOnUse" x1="345.9883" y1="385" x2="345.9883" y2="130"><stop offset="0" style="stop-color:#FCFCE4"></stop><stop offset="0.5" style="stop-color:#A0C8DD"></stop><stop offset="1" style="stop-color:#5D6EC5"></stop></linearGradient><path style="fill:url(#hair3XMLID_1061_);stroke:#1E1E1E;stroke-linecap:round;stroke-linejoin:round;" d="M358.175,314.481c-12.991-9.408-29.7-8.813-29.7-8.813s-0.708-1.308-0.708-4.358c0-3.053-1.063-4.359-1.417-5.669c-0.354-1.308,2.479-7.845,2.479-7.845c14.52,0,33.286,16.564,36.828,34.002l-1.596,4.36"></path><path style="fill:none;stroke:#1E1E1E;stroke-linecap:round;stroke-linejoin:round;" d="M332.369,298.258c0,0,8.498,0.437,13.811,4.36"></path></g><linearGradient id="hair3XMLID_1062_" gradientUnits="userSpaceOnUse" x1="352.8203" y1="385" x2="352.8203" y2="129.999"><stop offset="0" style="stop-color:#FCFCE4"></stop><stop offset="0.5" style="stop-color:#A0C8DD"></stop><stop offset="1" style="stop-color:#5D6EC5"></stop></linearGradient><path style="fill:url(#hair3XMLID_1062_);stroke:#1E1E1E;stroke-linecap:round;stroke-linejoin:round;" d="M362.16,363.383c0,0-6.289,8.223-15.271,8.985c-2.169-0.763-3.407-2.289-3.407-2.289s9.696-8.603,8.458-17.372C357.203,353.088,361.85,360.713,362.16,363.383z"></path><linearGradient id="hair3XMLID_1063_" gradientUnits="userSpaceOnUse" x1="344.9316" y1="385" x2="344.9316" y2="129.9999"><stop offset="0" style="stop-color:#FCFCE4"></stop><stop offset="0.5" style="stop-color:#A0C8DD"></stop><stop offset="1" style="stop-color:#5D6EC5"></stop></linearGradient><path style="fill:url(#hair3XMLID_1063_);stroke:#1E1E1E;stroke-linecap:round;stroke-linejoin:round;" d="M355.782,356.575c-11.382-8.247-26.146-7.301-26.146-7.301s-0.619-1.144-0.619-3.813c0-2.67-0.928-3.814-1.239-4.957c-0.31-1.145,2.169-6.863,2.169-6.863c12.699,0,29.067,13.883,32.165,29.135l-2.479,2.835"></path><path style="fill:#1E1E1E;" d="M352.843,355.416c0,0,7.252-1.739,9.638,7.36c-2.966,5.114-7.606,7.725-7.606,7.725l-9.283-2.61C345.591,367.891,352.263,360.929,352.843,355.416z"></path><linearGradient id="hair3XMLID_1064_" gradientUnits="userSpaceOnUse" x1="350.0605" y1="385" x2="350.0605" y2="130.0001"><stop offset="0" style="stop-color:#FCFCE4"></stop><stop offset="0.5" style="stop-color:#A0C8DD"></stop><stop offset="1" style="stop-color:#5D6EC5"></stop></linearGradient><path style="fill:url(#hair3XMLID_1064_);stroke:#1E1E1E;stroke-linecap:round;stroke-linejoin:round;" d="M371.717,186.288c0,0-7.922,11.051-31.868,25.5c-15.137-4.903-10.897-5.884-10.897-5.884s9.878-2.353,16.518-13.143c1.063-0.98,2.391-14.058,1.55-24.128C362.156,168.634,371.717,186.288,371.717,186.288z"></path><path style="fill:#1E1E1E;" d="M360.095,179.632c-0.87,0.58-8.122,11.893-14.214,14.213c0.87-9.862,2.321-20.015,2.321-20.015L360.095,179.632z"></path><linearGradient id="hair3XMLID_1065_" gradientUnits="userSpaceOnUse" x1="341.1729" y1="385" x2="341.1729" y2="130.0001"><stop offset="0" style="stop-color:#FCFCE4"></stop><stop offset="0.5" style="stop-color:#A0C8DD"></stop><stop offset="1" style="stop-color:#5D6EC5"></stop></linearGradient><path style="fill:url(#hair3XMLID_1065_);stroke:#1E1E1E;stroke-linecap:round;stroke-linejoin:round;" d="M306.389,161.22c0-2.507,19.006-38.438,33.26-40.945c14.254-2.507,36.309,17.955,36.309,17.955l-7.309-1.765c0,0-22.223-13.798-30.357-9.505c-14.256,7.521-29.867,39.273-29.867,39.273L306.389,161.22z"></path><linearGradient id="hair3XMLID_1066_" gradientUnits="userSpaceOnUse" x1="344.5176" y1="385" x2="344.5176" y2="129.9999"><stop offset="0" style="stop-color:#FCFCE4"></stop><stop offset="0.5" style="stop-color:#A0C8DD"></stop><stop offset="1" style="stop-color:#5D6EC5"></stop></linearGradient><path style="fill:url(#hair3XMLID_1066_);stroke:#1E1E1E;stroke-linecap:round;stroke-linejoin:round;" d="M361.58,180.34c-12.564-6.703-34.67-15.838-52.477-9.093c0.678,0-0.68-5.014-0.68-5.014c2.037-5.013,25.794-30.082,34.618-32.589c8.823-2.506,28.843-0.428,32.915,4.585c0.679,8.356,3.188,17.655,3.188,17.655l-3.188,6.865c0,0,7.132,13.512,3.738,16.854c-5.43,4.178-10.323,9.018-10.323,9.018"></path><path style="fill:none;stroke:#1E1E1E;stroke-linecap:round;stroke-linejoin:round;" d="M317.138,161.482c0,0,13.192-13.738,44.081-7.213"></path><linearGradient id="hair3XMLID_1067_" gradientUnits="userSpaceOnUse" x1="345.8564" y1="385" x2="345.8564" y2="129.9998"><stop offset="0" style="stop-color:#FCFCE4"></stop><stop offset="0.5" style="stop-color:#A0C8DD"></stop><stop offset="1" style="stop-color:#5D6EC5"></stop></linearGradient><path style="fill:url(#hair3XMLID_1067_);stroke:#1E1E1E;stroke-linecap:round;stroke-linejoin:round;" d="M369.999,247.427c-16.678-8.932-49.646-17.208-56.981-15.041c-1.416-2.615,0-23.757,0-25.501c0-1.743,19.918-1.961,19.918-1.961c17.161,6.959,28.469,12.687,35.108,26.091c7.702,7.193,8.693,13.535,11.28,22.342l-3.401,4.578"></path><path style="fill:none;stroke:#1E1E1E;stroke-linecap:round;stroke-linejoin:round;" d="M369.318,232.713c0,0-10.57-12.814-36.862-17.718"></path><linearGradient id="hair3XMLID_1068_" gradientUnits="userSpaceOnUse" x1="349.543" y1="385" x2="349.543" y2="130.0004"><stop offset="0" style="stop-color:#FCFCE4"></stop><stop offset="0.5" style="stop-color:#A0C8DD"></stop><stop offset="1" style="stop-color:#5D6EC5"></stop></linearGradient><path style="fill:url(#hair3XMLID_1068_);stroke:#1E1E1E;stroke-linecap:round;stroke-linejoin:round;" d="M339.098,372.803c0,0,0-2.615,6.374-3.925c6.374-1.307,12.748,4.797,14.518,14.387C353.263,375.418,342.285,372.368,339.098,372.803z"></path><linearGradient id="hair3XMLID_1069_" gradientUnits="userSpaceOnUse" x1="348.3037" y1="385" x2="348.3037" y2="130.0005"><stop offset="0" style="stop-color:#FCFCE4"></stop><stop offset="0.5" style="stop-color:#A0C8DD"></stop><stop offset="1" style="stop-color:#5D6EC5"></stop></linearGradient><path style="fill:url(#hair3XMLID_1069_);stroke:#1E1E1E;stroke-linecap:round;stroke-linejoin:round;" d="M359.989,383.265c0,0-2.124,37.056-23.371,8.282C352.908,402.011,359.989,383.265,359.989,383.265z"></path><path style="fill:none;stroke:#1E1E1E;stroke-linecap:round;stroke-linejoin:round;" d="M328.475,342.723c0,0,9.207-0.872,13.103,1.308"></path></g></g></g></svg>