<svg xmlns="http://www.w3.org/2000/svg" width="500" height="500" version="1.1"><g id="x066"><g><linearGradient id="hair3XMLID_1070_" gradientUnits="userSpaceOnUse" x1="381.7344" y1="370.1348" x2="381.7344" y2="370.1348"><stop offset="0" style="stop-color:#FCFCE4"></stop><stop offset="0.5" style="stop-color:#A0C8DD"></stop><stop offset="1" style="stop-color:#5D6EC5"></stop></linearGradient><path style="fill:url(#hair3XMLID_1070_);stroke:#1E1E1E;stroke-linecap:round;stroke-linejoin:round;" d="M381.734,370.135"></path><g><linearGradient id="hair3XMLID_1071_" gradientUnits="userSpaceOnUse" x1="336.9512" y1="385" x2="336.9512" y2="129.9999"><stop offset="0" style="stop-color:#FCFCE4"></stop><stop offset="0.5" style="stop-color:#A0C8DD"></stop><stop offset="1" style="stop-color:#5D6EC5"></stop></linearGradient><path style="fill:url(#hair3XMLID_1071_);stroke:#1E1E1E;stroke-linecap:round;stroke-linejoin:round;" d="M354.242,282.758c0.889-1.783,7.131-88.27-41.908-116.355c-18.277-22.29-5.795-39.905-5.795-39.905s34.771-3.337,49.039,9.59c14.264,12.929,22.736,96.741,8.914,131.514"></path><path style="fill:#1E1E1E;" d="M361.373,189.584c0,0,6.844,25.916-3.408,25.916c-10.254,0-18.5-21.5-18.5-21.5s19.68,48.188,15.221,68.696C360.928,242.636,367.613,214.995,361.373,189.584z"></path><linearGradient id="hair3XMLID_1072_" gradientUnits="userSpaceOnUse" x1="344.209" y1="385" x2="344.209" y2="129.9999"><stop offset="0" style="stop-color:#FCFCE4"></stop><stop offset="0.5" style="stop-color:#A0C8DD"></stop><stop offset="1" style="stop-color:#5D6EC5"></stop></linearGradient><path style="fill:url(#hair3XMLID_1072_);stroke:#1E1E1E;stroke-linecap:round;stroke-linejoin:round;" d="M304.309,127.171c0,0,19.172-14.266,42.354,0c23.18,14.267,42.352,67.762,25.41,128.838c-16.943,61.075-41.016,109.222-32.99,124.824c8.023,15.603,41.463,17.832,45.027,11.144c-8.918,15.606-27.195,31.655-47.256,24.521c-20.063-7.134-14.711-52.605-6.688-80.244c8.025-27.641,35.662-86.487,33.436-126.164c-2.229-39.677-10.254-64.197-16.049-69.992"></path><path style="fill:#1E1E1E;" d="M336.854,376.375c0,0-0.443,34.773,20.506,38.341c17.387-5.795,26.303-28.978,26.303-28.978S356.469,408.474,336.854,376.375z"></path><linearGradient id="hair3XMLID_1073_" gradientUnits="userSpaceOnUse" x1="364.1719" y1="385" x2="364.1719" y2="129.9994"><stop offset="0" style="stop-color:#FCFCE4"></stop><stop offset="0.5" style="stop-color:#A0C8DD"></stop><stop offset="1" style="stop-color:#5D6EC5"></stop></linearGradient><path style="fill:url(#hair3XMLID_1073_);stroke:#1E1E1E;stroke-linecap:round;stroke-linejoin:round;" d="M357.359,281.866c0,0-20.506,57.954-19.613,82.919c9.807-24.519,39.23-37.447,49.93-72.22c10.699-34.773-11.146-88.27-11.146-88.27 M358.697,321.542c20.953-28.531,21.844-69.991,21.844-69.991s4.014,22.736,0.447,39.231C377.348,307.608,366.188,315.261,358.697,321.542z"></path><linearGradient id="hair3XMLID_1074_" gradientUnits="userSpaceOnUse" x1="360.0859" y1="385" x2="360.0859" y2="130.0003"><stop offset="0" style="stop-color:#FCFCE4"></stop><stop offset="0.5" style="stop-color:#A0C8DD"></stop><stop offset="1" style="stop-color:#5D6EC5"></stop></linearGradient><path style="fill:url(#hair3XMLID_1074_);stroke:#1E1E1E;stroke-linecap:round;stroke-linejoin:round;" d="M329.051,410.701c0.447,1.784,17.389,25.413,41.016,16.496s27.191-41.459,11.59-56.17c-4.68,34.772-21.623,39.23-39.689,37.841"></path></g><g><linearGradient id="hair3XMLID_1075_" gradientUnits="userSpaceOnUse" x1="163.0493" y1="385" x2="163.0493" y2="129.9999"><stop offset="0" style="stop-color:#FCFCE4"></stop><stop offset="0.5" style="stop-color:#A0C8DD"></stop><stop offset="1" style="stop-color:#5D6EC5"></stop></linearGradient><path style="fill:url(#hair3XMLID_1075_);stroke:#1E1E1E;stroke-linecap:round;stroke-linejoin:round;" d="M145.758,282.758c-0.89-1.783-7.131-88.27,41.907-116.355c18.278-22.29,5.796-39.905,5.796-39.905s-34.771-3.337-49.039,9.59c-14.265,12.929-22.736,96.741-8.915,131.514"></path><path style="fill:#1E1E1E;" d="M138.627,189.584c0,0-6.845,25.916,3.408,25.916c10.254,0,18.5-21.5,18.5-21.5s-19.68,48.188-15.221,68.696C139.073,242.636,132.387,214.995,138.627,189.584z"></path><linearGradient id="hair3XMLID_1076_" gradientUnits="userSpaceOnUse" x1="155.7915" y1="385" x2="155.7915" y2="129.9999"><stop offset="0" style="stop-color:#FCFCE4"></stop><stop offset="0.5" style="stop-color:#A0C8DD"></stop><stop offset="1" style="stop-color:#5D6EC5"></stop></linearGradient><path style="fill:url(#hair3XMLID_1076_);stroke:#1E1E1E;stroke-linecap:round;stroke-linejoin:round;" d="M195.692,127.171c0,0-19.172-14.266-42.354,0c-23.179,14.267-42.351,67.762-25.409,128.838c16.942,61.075,41.015,109.222,32.989,124.824c-8.023,15.603-41.462,17.832-45.026,11.144c8.917,15.606,27.194,31.655,47.256,24.521s14.71-52.605,6.687-80.244c-8.024-27.641-35.662-86.487-33.436-126.164c2.229-39.677,10.255-64.197,16.049-69.992"></path><path style="fill:#1E1E1E;" d="M163.147,376.375c0,0,0.443,34.773-20.507,38.341c-17.386-5.795-26.302-28.978-26.302-28.978S143.531,408.474,163.147,376.375z"></path><linearGradient id="hair3XMLID_1077_" gradientUnits="userSpaceOnUse" x1="135.8286" y1="385" x2="135.8286" y2="129.9994"><stop offset="0" style="stop-color:#FCFCE4"></stop><stop offset="0.5" style="stop-color:#A0C8DD"></stop><stop offset="1" style="stop-color:#5D6EC5"></stop></linearGradient><path style="fill:url(#hair3XMLID_1077_);stroke:#1E1E1E;stroke-linecap:round;stroke-linejoin:round;" d="M123.47,204.296c0,0-21.845,53.496-11.146,88.27c10.7,34.772,40.123,47.701,49.931,72.22c0.893-24.965-19.614-82.919-19.614-82.919 M119.011,290.782c-3.566-16.495,0.447-39.231,0.447-39.231s0.892,41.46,21.844,69.991C133.812,315.261,122.652,307.608,119.011,290.782z"></path><linearGradient id="hair3XMLID_1078_" gradientUnits="userSpaceOnUse" x1="139.9136" y1="385" x2="139.9136" y2="130.0003"><stop offset="0" style="stop-color:#FCFCE4"></stop><stop offset="0.5" style="stop-color:#A0C8DD"></stop><stop offset="1" style="stop-color:#5D6EC5"></stop></linearGradient><path style="fill:url(#hair3XMLID_1078_);stroke:#1E1E1E;stroke-linecap:round;stroke-linejoin:round;" d="M170.949,410.701c-0.446,1.784-17.389,25.413-41.015,16.496c-23.628-8.917-27.192-41.459-11.59-56.17c4.68,34.772,21.622,39.23,39.688,37.841"></path></g></g></g></svg>