<svg xmlns="http://www.w3.org/2000/svg" width="500" height="500" version="1.1"><g id="x067"><g><g><g><linearGradient id="hair3XMLID_1079_" gradientUnits="userSpaceOnUse" x1="157.2554" y1="385" x2="157.2554" y2="130"><stop offset="0" style="stop-color:#FCFCE4"></stop><stop offset="0.5" style="stop-color:#A0C8DD"></stop><stop offset="1" style="stop-color:#5D6EC5"></stop></linearGradient><path style="fill:url(#hair3XMLID_1079_);stroke:#1E1E1E;stroke-linecap:round;stroke-linejoin:round;" d="M189.886,171.22c0,0-7.002,14.601-29.394,16.244c-42.158,3.094-52.215-44.478-36.743-66.137c15.47-21.659,51.826-29.007,73.872,7.735c-7.349,8.123-11.604,17.792-11.604,17.792s-15.084-26.3-36.355-16.631c-21.421,9.737-10.443,32.488,4.641,35.196c15.65,2.809,31.328-9.67,31.328-9.67L189.886,171.22z"></path><path style="fill:none;stroke:#1E1E1E;stroke-linecap:round;stroke-linejoin:round;" d="M137.286,144.92c0,0,1.547-34.035,40.609-26.3"></path><path style="fill:none;stroke:#1E1E1E;stroke-linecap:round;stroke-linejoin:round;" d="M126.456,173.541c0,0,22.045,10.056,43.704-9.283"></path></g><g><linearGradient id="hair3XMLID_1080_" gradientUnits="userSpaceOnUse" x1="342.7441" y1="385" x2="342.7441" y2="130"><stop offset="0" style="stop-color:#FCFCE4"></stop><stop offset="0.5" style="stop-color:#A0C8DD"></stop><stop offset="1" style="stop-color:#5D6EC5"></stop></linearGradient><path style="fill:url(#hair3XMLID_1080_);stroke:#1E1E1E;stroke-linecap:round;stroke-linejoin:round;" d="M310.115,171.22c0,0,7.001,14.601,29.395,16.244c42.155,3.094,52.212-44.478,36.742-66.137c-15.471-21.659-51.826-29.007-73.873,7.735c7.348,8.123,11.604,17.792,11.604,17.792s15.084-26.3,36.355-16.631c21.42,9.737,10.443,32.488-4.64,35.196c-15.65,2.809-31.33-9.67-31.33-9.67L310.115,171.22z"></path><path style="fill:none;stroke:#1E1E1E;stroke-linecap:round;stroke-linejoin:round;" d="M362.715,144.92c0,0-1.548-34.035-40.61-26.3"></path><path style="fill:none;stroke:#1E1E1E;stroke-linecap:round;stroke-linejoin:round;" d="M373.545,173.541c0,0-22.047,10.056-43.706-9.283"></path></g></g></g></g></svg>