<svg xmlns="http://www.w3.org/2000/svg" width="500" height="500" version="1.1"><g id="x070"><g><g><linearGradient id="hair3XMLID_1089_" gradientUnits="userSpaceOnUse" x1="144.9072" y1="385" x2="144.9072" y2="130"><stop offset="0" style="stop-color:#FCFCE4"></stop><stop offset="0.5" style="stop-color:#A0C8DD"></stop><stop offset="1" style="stop-color:#5D6EC5"></stop></linearGradient><path style="fill:url(#hair3XMLID_1089_);stroke:#1E1E1E;stroke-linecap:round;stroke-linejoin:round;" d="M156.559,167.159c0,0-20.886,16.824-15.664,48.732C127.551,200.227,131.031,166.579,156.559,167.159z"></path><g><linearGradient id="hair3XMLID_1090_" gradientUnits="userSpaceOnUse" x1="159.7495" y1="385" x2="159.7495" y2="130.0002"><stop offset="0" style="stop-color:#FCFCE4"></stop><stop offset="0.5" style="stop-color:#A0C8DD"></stop><stop offset="1" style="stop-color:#5D6EC5"></stop></linearGradient><circle style="fill:url(#hair3XMLID_1090_);stroke:#1E1E1E;stroke-linecap:round;stroke-linejoin:round;" cx="159.75" cy="147.144" r="24.657"></circle><path style="fill:none;stroke:#1E1E1E;stroke-linecap:round;stroke-linejoin:round;" d="M159.749,122.488c0,0-25.236,18.564-4.931,48.152"></path><path style="fill:none;stroke:#1E1E1E;stroke-linecap:round;stroke-linejoin:round;" d="M149.597,141.052c0,0,5.802,18.565,22.046,28.427"></path></g></g><g><linearGradient id="hair3XMLID_1091_" gradientUnits="userSpaceOnUse" x1="355.0918" y1="385" x2="355.0918" y2="130"><stop offset="0" style="stop-color:#FCFCE4"></stop><stop offset="0.5" style="stop-color:#A0C8DD"></stop><stop offset="1" style="stop-color:#5D6EC5"></stop></linearGradient><path style="fill:url(#hair3XMLID_1091_);stroke:#1E1E1E;stroke-linecap:round;stroke-linejoin:round;" d="M343.44,167.159c0,0,20.887,16.824,15.666,48.732C372.448,200.227,368.968,166.579,343.44,167.159z"></path><g><linearGradient id="hair3XMLID_1092_" gradientUnits="userSpaceOnUse" x1="340.251" y1="385" x2="340.251" y2="130.0002"><stop offset="0" style="stop-color:#FCFCE4"></stop><stop offset="0.5" style="stop-color:#A0C8DD"></stop><stop offset="1" style="stop-color:#5D6EC5"></stop></linearGradient><circle style="fill:url(#hair3XMLID_1092_);stroke:#1E1E1E;stroke-linecap:round;stroke-linejoin:round;" cx="340.251" cy="147.144" r="24.656"></circle><path style="fill:none;stroke:#1E1E1E;stroke-linecap:round;stroke-linejoin:round;" d="M340.251,122.488c0,0,25.236,18.564,4.932,48.152"></path><path style="fill:none;stroke:#1E1E1E;stroke-linecap:round;stroke-linejoin:round;" d="M350.404,141.052c0,0-5.802,18.565-22.047,28.427"></path></g></g></g></g></svg>