<svg xmlns="http://www.w3.org/2000/svg" width="500" height="500" version="1.1"><g id="x071"><g><g><g><g><linearGradient id="hair3XMLID_1093_" gradientUnits="userSpaceOnUse" x1="338.0596" y1="385" x2="338.0596" y2="130.0001"><stop offset="0" style="stop-color:#FCFCE4"></stop><stop offset="0.5" style="stop-color:#A0C8DD"></stop><stop offset="1" style="stop-color:#5D6EC5"></stop></linearGradient><path style="fill:url(#hair3XMLID_1093_);stroke:#1E1E1E;stroke-linecap:round;stroke-linejoin:round;" d="M333.83,237.225c0,0,15.855,34.421,11.602,51.052c-4.254,16.632-15.469,30.94-15.469,30.94l2.707-17.016c0,0,11.602-18.952,9.668-26.688c-1.934-7.736-10.057-30.167-10.057-30.167"></path><linearGradient id="hair3XMLID_1094_" gradientUnits="userSpaceOnUse" x1="323.3271" y1="385" x2="323.3271" y2="129.9999"><stop offset="0" style="stop-color:#FCFCE4"></stop><stop offset="0.5" style="stop-color:#A0C8DD"></stop><stop offset="1" style="stop-color:#5D6EC5"></stop></linearGradient><path style="fill:url(#hair3XMLID_1094_);stroke:#1E1E1E;stroke-linecap:round;stroke-linejoin:round;" d="M315.654,236.045c0,0,5.701,96.612-5.611,118.947c10.443,0,17.256-4.474,20.682-14.737c-0.729,2.407-0.398,3.733-0.398,3.733s5.646-5.629,5.404-13.767c-0.246-8.14,3.99-86.905-4.186-108.039C324.283,229.142,315.654,236.045,315.654,236.045z"></path><path style="fill:none;stroke:#1E1E1E;stroke-linecap:round;stroke-linejoin:round;" d="M329.553,342.44c0,0,4.275-20.128,1.568-36.76"></path><linearGradient id="hair3XMLID_1095_" gradientUnits="userSpaceOnUse" x1="315.6543" y1="385" x2="315.6543" y2="130.0003"><stop offset="0" style="stop-color:#FCFCE4"></stop><stop offset="0.5" style="stop-color:#A0C8DD"></stop><stop offset="1" style="stop-color:#5D6EC5"></stop></linearGradient><path style="fill:url(#hair3XMLID_1095_);stroke:#1E1E1E;stroke-linecap:round;stroke-linejoin:round;" d="M334.023,175.341c2.32,2.321,6.961,15.664,6.768,17.792c-0.195,2.126-10.25,13.537-10.25,13.537s4.545,12.086,4.545,17.501c-0.58,1.644-1.959,4.834-4.678,7.469c-2.721,2.636-9.73,4.811-12.727,4.135c-8.51-1.161-20.982-8.605-21.176-9.573c0,0-9.67-28.233-4.447-50.085c5.221-21.853,27.072-27.848,27.072-27.848s11.41,0.967,18.953,8.703"></path><path style="fill:none;stroke:#1E1E1E;stroke-linecap:round;stroke-linejoin:round;" d="M334.215,226.007c0,0-4.254,4.641-6.188,5.415"></path><linearGradient id="hair3XMLID_1096_" gradientUnits="userSpaceOnUse" x1="312.75" y1="385" x2="312.75" y2="129.9998"><stop offset="0" style="stop-color:#FCFCE4"></stop><stop offset="0.5" style="stop-color:#A0C8DD"></stop><stop offset="1" style="stop-color:#5D6EC5"></stop></linearGradient><path style="fill:url(#hair3XMLID_1096_);stroke:#1E1E1E;stroke-linecap:round;stroke-linejoin:round;" d="M317.199,256.176c0,0-0.775,54.146-14.697,68.07c11.602-12.764,20.111-29.781,20.496-44.865"></path></g><linearGradient id="hair3XMLID_1097_" gradientUnits="userSpaceOnUse" x1="331.917" y1="385" x2="331.917" y2="130"><stop offset="0" style="stop-color:#FCFCE4"></stop><stop offset="0.5" style="stop-color:#A0C8DD"></stop><stop offset="1" style="stop-color:#5D6EC5"></stop></linearGradient><path style="fill:url(#hair3XMLID_1097_);stroke:#1E1E1E;stroke-linecap:round;stroke-linejoin:round;" d="M334.834,154.333c5.416,2.833,8.166,11.712,8.166,15c-0.25,1.25-5.584,11.25-6.084,11.833c-4.5-8.167-10.75-17.083-16.082-23.75"></path></g></g><g><g><g><linearGradient id="hair3XMLID_1098_" gradientUnits="userSpaceOnUse" x1="161.9409" y1="385" x2="161.9409" y2="130.0001"><stop offset="0" style="stop-color:#FCFCE4"></stop><stop offset="0.5" style="stop-color:#A0C8DD"></stop><stop offset="1" style="stop-color:#5D6EC5"></stop></linearGradient><path style="fill:url(#hair3XMLID_1098_);stroke:#1E1E1E;stroke-linecap:round;stroke-linejoin:round;" d="M166.17,237.225c0,0-15.856,34.421-11.602,51.052c4.254,16.632,15.469,30.94,15.469,30.94l-2.707-17.016c0,0-11.602-18.952-9.669-26.688c1.935-7.736,10.057-30.167,10.057-30.167"></path><linearGradient id="hair3XMLID_1099_" gradientUnits="userSpaceOnUse" x1="176.6733" y1="385" x2="176.6733" y2="129.9999"><stop offset="0" style="stop-color:#FCFCE4"></stop><stop offset="0.5" style="stop-color:#A0C8DD"></stop><stop offset="1" style="stop-color:#5D6EC5"></stop></linearGradient><path style="fill:url(#hair3XMLID_1099_);stroke:#1E1E1E;stroke-linecap:round;stroke-linejoin:round;" d="M184.346,236.045c0,0-5.701,96.612,5.611,118.947c-10.443,0-17.256-4.474-20.682-14.737c0.728,2.407,0.398,3.733,0.398,3.733s-5.647-5.629-5.404-13.767c0.245-8.14-3.99-86.905,4.186-108.039C175.717,229.142,184.346,236.045,184.346,236.045z"></path><path style="fill:none;stroke:#1E1E1E;stroke-linecap:round;stroke-linejoin:round;" d="M170.448,342.44c0,0-4.275-20.128-1.569-36.76"></path><linearGradient id="hair3XMLID_1100_" gradientUnits="userSpaceOnUse" x1="184.3467" y1="385" x2="184.3467" y2="130.0003"><stop offset="0" style="stop-color:#FCFCE4"></stop><stop offset="0.5" style="stop-color:#A0C8DD"></stop><stop offset="1" style="stop-color:#5D6EC5"></stop></linearGradient><path style="fill:url(#hair3XMLID_1100_);stroke:#1E1E1E;stroke-linecap:round;stroke-linejoin:round;" d="M165.977,175.341c-2.32,2.321-6.961,15.664-6.768,17.792c0.194,2.126,10.249,13.537,10.249,13.537s-4.545,12.086-4.545,17.501c0.581,1.644,1.959,4.834,4.678,7.469c2.721,2.636,9.73,4.811,12.728,4.135c8.51-1.161,20.982-8.605,21.176-9.573c0,0,9.67-28.233,4.447-50.085c-5.221-21.853-27.072-27.848-27.072-27.848s-11.411,0.967-18.953,8.703"></path><path style="fill:none;stroke:#1E1E1E;stroke-linecap:round;stroke-linejoin:round;" d="M165.785,226.007c0,0,4.255,4.641,6.188,5.415"></path><linearGradient id="hair3XMLID_1101_" gradientUnits="userSpaceOnUse" x1="187.25" y1="385" x2="187.25" y2="129.9998"><stop offset="0" style="stop-color:#FCFCE4"></stop><stop offset="0.5" style="stop-color:#A0C8DD"></stop><stop offset="1" style="stop-color:#5D6EC5"></stop></linearGradient><path style="fill:url(#hair3XMLID_1101_);stroke:#1E1E1E;stroke-linecap:round;stroke-linejoin:round;" d="M182.801,256.176c0,0,0.775,54.146,14.697,68.07c-11.602-12.764-20.111-29.781-20.497-44.865"></path></g><linearGradient id="hair3XMLID_1102_" gradientUnits="userSpaceOnUse" x1="168.083" y1="385" x2="168.083" y2="130"><stop offset="0" style="stop-color:#FCFCE4"></stop><stop offset="0.5" style="stop-color:#A0C8DD"></stop><stop offset="1" style="stop-color:#5D6EC5"></stop></linearGradient><path style="fill:url(#hair3XMLID_1102_);stroke:#1E1E1E;stroke-linecap:round;stroke-linejoin:round;" d="M165.167,154.333c-5.417,2.833-8.167,11.712-8.167,15c0.25,1.25,5.584,11.25,6.084,11.833c4.5-8.167,10.75-17.083,16.083-23.75"></path></g></g><path style="fill:none;stroke:#1E1E1E;stroke-linecap:round;stroke-linejoin:round;" d="M330.541,206.669c0,0-5.123-16.419-8.791-24.419"></path></g></g></svg>