<svg xmlns="http://www.w3.org/2000/svg" width="500" height="500" version="1.1"><g id="x072"><g><g><g><linearGradient id="hair3XMLID_1103_" gradientUnits="userSpaceOnUse" x1="276.9277" y1="385" x2="276.9277" y2="130.0002"><stop offset="0" style="stop-color:#FCFCE4"></stop><stop offset="0.5" style="stop-color:#A0C8DD"></stop><stop offset="1" style="stop-color:#5D6EC5"></stop></linearGradient><path style="fill:url(#hair3XMLID_1103_);stroke:#1E1E1E;stroke-linecap:round;stroke-linejoin:round;" d="M302.884,244.574c4.365,4.448-6.961,34.422-6.961,34.422s1.118,2.285,2.576,5.385c-3.583,1.91-7.137,3.922-10.752,5.734c-0.949-2.48-1.854-4.9-2.674-7.15c-26.279-0.873-30.924-1.953-35.066-7.063c-0.471-0.58,3.48-16.244,22.625-25.527C288.353,242.754,298.739,243.607,302.884,244.574z"></path><path style="fill:none;stroke:#1E1E1E;stroke-linecap:round;stroke-linejoin:round;" d="M281.999,280.93c0,0-13.15-5.801-17.02-11.988"></path></g><g><linearGradient id="hair3XMLID_1104_" gradientUnits="userSpaceOnUse" x1="357.0488" y1="385" x2="357.0488" y2="130.0001"><stop offset="0" style="stop-color:#FCFCE4"></stop><stop offset="0.5" style="stop-color:#A0C8DD"></stop><stop offset="1" style="stop-color:#5D6EC5"></stop></linearGradient><path style="fill:url(#hair3XMLID_1104_);stroke:#1E1E1E;stroke-linecap:round;stroke-linejoin:round;" d="M341.567,287.506c0,0,21.271-0.002,18.951,15.469c-2.321,15.471-13.923,15.084-13.923,15.084s24.861,6.559,25.912-21.27c0.774-20.5-19.337-21.66-19.337-21.66"></path><linearGradient id="hair3XMLID_1105_" gradientUnits="userSpaceOnUse" x1="323.9688" y1="385" x2="323.9688" y2="130.0001"><stop offset="0" style="stop-color:#FCFCE4"></stop><stop offset="0.5" style="stop-color:#A0C8DD"></stop><stop offset="1" style="stop-color:#5D6EC5"></stop></linearGradient><path style="fill:url(#hair3XMLID_1105_);stroke:#1E1E1E;stroke-linecap:round;stroke-linejoin:round;" d="M355.878,280.158c-9.282,0.771-17.405,11.602-21.273,20.109c-7.734,5.416-32.486,8.123-37.516,5.803c-5.025-2.32-12.764-14.697-12.764-14.697l13.041-6.574c0,0,18.289,9.668,28.73,3.094c10.442-6.576,22.819-18.178,37.516-9.67"></path><path style="fill:none;stroke:#1E1E1E;stroke-linecap:round;stroke-linejoin:round;" d="M301.536,298.367c0,0,17.404,10.83,31.715,2.709"></path></g><linearGradient id="hair3XMLID_1106_" gradientUnits="userSpaceOnUse" x1="289.1777" y1="385" x2="289.1777" y2="129.9999"><stop offset="0" style="stop-color:#FCFCE4"></stop><stop offset="0.5" style="stop-color:#A0C8DD"></stop><stop offset="1" style="stop-color:#5D6EC5"></stop></linearGradient><path style="fill:url(#hair3XMLID_1106_);stroke:#1E1E1E;stroke-linecap:round;stroke-linejoin:round;" d="M297.492,272.809c0,0-11.603,9.871-18.95,9.871c0,3.096,0.387,4.256,0.387,4.256c1.934,0.771,3.868,5.598,3.868,5.598s13.149,0.387,17.017-7.734c-1.547-2.322-2.321-6.576-2.321-6.576S298.267,274.355,297.492,272.809z"></path></g><g><g><linearGradient id="hair3XMLID_1107_" gradientUnits="userSpaceOnUse" x1="223.0723" y1="385" x2="223.0723" y2="130.0002"><stop offset="0" style="stop-color:#FCFCE4"></stop><stop offset="0.5" style="stop-color:#A0C8DD"></stop><stop offset="1" style="stop-color:#5D6EC5"></stop></linearGradient><path style="fill:url(#hair3XMLID_1107_);stroke:#1E1E1E;stroke-linecap:round;stroke-linejoin:round;" d="M197.116,244.574c-4.365,4.448,6.961,34.422,6.961,34.422s-1.118,2.285-2.576,5.385c3.583,1.91,7.137,3.922,10.752,5.734c0.949-2.48,1.854-4.9,2.674-7.15c26.279-0.873,30.924-1.953,35.066-7.063c0.471-0.58-3.48-16.244-22.625-25.527C211.647,242.754,201.261,243.607,197.116,244.574z"></path><path style="fill:none;stroke:#1E1E1E;stroke-linecap:round;stroke-linejoin:round;" d="M218.001,280.93c0,0,13.15-5.801,17.02-11.988"></path></g><g><linearGradient id="hair3XMLID_1108_" gradientUnits="userSpaceOnUse" x1="142.9517" y1="385" x2="142.9516" y2="130.0001"><stop offset="0" style="stop-color:#FCFCE4"></stop><stop offset="0.5" style="stop-color:#A0C8DD"></stop><stop offset="1" style="stop-color:#5D6EC5"></stop></linearGradient><path style="fill:url(#hair3XMLID_1108_);stroke:#1E1E1E;stroke-linecap:round;stroke-linejoin:round;" d="M158.433,287.506c0,0-21.271-0.002-18.951,15.469c2.321,15.471,13.923,15.084,13.923,15.084s-24.861,6.559-25.912-21.27c-0.774-20.5,19.337-21.66,19.337-21.66"></path><linearGradient id="hair3XMLID_1109_" gradientUnits="userSpaceOnUse" x1="176.0313" y1="385" x2="176.0312" y2="130.0001"><stop offset="0" style="stop-color:#FCFCE4"></stop><stop offset="0.5" style="stop-color:#A0C8DD"></stop><stop offset="1" style="stop-color:#5D6EC5"></stop></linearGradient><path style="fill:url(#hair3XMLID_1109_);stroke:#1E1E1E;stroke-linecap:round;stroke-linejoin:round;" d="M144.122,280.158c9.282,0.771,17.405,11.602,21.273,20.109c7.734,5.416,32.486,8.123,37.516,5.803c5.025-2.32,12.764-14.697,12.764-14.697l-13.041-6.574c0,0-18.289,9.668-28.73,3.094c-10.442-6.576-22.819-18.178-37.516-9.67"></path><path style="fill:none;stroke:#1E1E1E;stroke-linecap:round;stroke-linejoin:round;" d="M198.464,298.367c0,0-17.404,10.83-31.715,2.709"></path></g><linearGradient id="hair3XMLID_1110_" gradientUnits="userSpaceOnUse" x1="210.8223" y1="385" x2="210.8223" y2="129.9999"><stop offset="0" style="stop-color:#FCFCE4"></stop><stop offset="0.5" style="stop-color:#A0C8DD"></stop><stop offset="1" style="stop-color:#5D6EC5"></stop></linearGradient><path style="fill:url(#hair3XMLID_1110_);stroke:#1E1E1E;stroke-linecap:round;stroke-linejoin:round;" d="M202.508,272.809c0,0,11.603,9.871,18.95,9.871c0,3.096-0.387,4.256-0.387,4.256c-1.934,0.771-3.868,5.598-3.868,5.598s-13.149,0.387-17.017-7.734c1.547-2.322,2.321-6.576,2.321-6.576S201.733,274.355,202.508,272.809z"></path></g></g></g></svg>