<svg xmlns="http://www.w3.org/2000/svg" width="500" height="500" version="1.1"><g id="x073"><g><g><g><linearGradient id="hair3XMLID_1111_" gradientUnits="userSpaceOnUse" x1="314.8232" y1="385" x2="314.8232" y2="129.9998"><stop offset="0" style="stop-color:#FCFCE4"></stop><stop offset="0.5" style="stop-color:#A0C8DD"></stop><stop offset="1" style="stop-color:#5D6EC5"></stop></linearGradient><path style="fill:url(#hair3XMLID_1111_);stroke:#1E1E1E;stroke-linecap:round;stroke-linejoin:round;" d="M285.818,287.416c0,0-0.057,0.28-0.057,0.773c0,2.101,1.012,8.065,11.658,12.763c13.15,5.803,24.754,1.548,27.074,11.603c2.32,10.057-30.555,27.849-22.434,44.479c8.123,16.63,29.008,7.348,32.488-1.935c-12.375,9.67-27.361,6.515-24.365-6.962c2.322-10.442,35.195-18.563,33.648-42.543c-1.547-23.98-38.676-18.566-46.025-21.659"></path><path style="fill:none;stroke:#1E1E1E;stroke-linecap:round;stroke-linejoin:round;" d="M307.863,296.313c0,0,13.15,5.027,15.084,11.989"></path></g><g><linearGradient id="hair3XMLID_1112_" gradientUnits="userSpaceOnUse" x1="277.8223" y1="385" x2="277.8223" y2="129.9998"><stop offset="0" style="stop-color:#FCFCE4"></stop><stop offset="0.5" style="stop-color:#A0C8DD"></stop><stop offset="1" style="stop-color:#5D6EC5"></stop></linearGradient><path style="fill:url(#hair3XMLID_1112_);stroke:#1E1E1E;stroke-linecap:round;stroke-linejoin:round;" d="M303.779,243.325c4.365,4.448-6.961,34.422-6.961,34.422s1.117,2.285,2.576,5.385c-3.584,1.91-7.137,3.921-10.752,5.734c-0.949-2.48-1.855-4.9-2.674-7.15c-26.281-0.874-30.926-1.953-35.067-7.063c-0.47-0.581,3.481-16.245,22.625-25.527C289.248,241.504,299.635,242.358,303.779,243.325z"></path><g><path style="fill:none;stroke:#1E1E1E;stroke-linecap:round;stroke-linejoin:round;" d="M286.332,279.681c0,0-13.15-5.802-17.02-11.989"></path></g></g><linearGradient id="hair3XMLID_1113_" gradientUnits="userSpaceOnUse" x1="290.8232" y1="385" x2="290.8232" y2="129.9999"><stop offset="0" style="stop-color:#FCFCE4"></stop><stop offset="0.5" style="stop-color:#A0C8DD"></stop><stop offset="1" style="stop-color:#5D6EC5"></stop></linearGradient><path style="fill:url(#hair3XMLID_1113_);stroke:#1E1E1E;stroke-linecap:round;stroke-linejoin:round;" d="M299.137,271.559c0,0-11.602,8.122-18.949,8.122c0,3.095,0.387,4.255,0.387,4.255c1.934,0.772,3.867,7.348,3.867,7.348s13.15,0.388,17.018-7.734c-1.547-2.321-2.322-6.575-2.322-6.575S299.912,273.106,299.137,271.559z"></path></g><g><g><linearGradient id="hair3XMLID_1114_" gradientUnits="userSpaceOnUse" x1="185.1772" y1="385" x2="185.1772" y2="129.9998"><stop offset="0" style="stop-color:#FCFCE4"></stop><stop offset="0.5" style="stop-color:#A0C8DD"></stop><stop offset="1" style="stop-color:#5D6EC5"></stop></linearGradient><path style="fill:url(#hair3XMLID_1114_);stroke:#1E1E1E;stroke-linecap:round;stroke-linejoin:round;" d="M214.182,287.416c0,0,0.057,0.28,0.057,0.773c0,2.101-1.012,8.065-11.659,12.763c-13.15,5.803-24.753,1.548-27.073,11.603c-2.321,10.057,30.555,27.849,22.433,44.479c-8.123,16.63-29.008,7.348-32.488-1.935c12.375,9.67,27.361,6.515,24.365-6.962c-2.321-10.442-35.195-18.563-33.647-42.543c1.546-23.98,38.676-18.566,46.024-21.659"></path><path style="fill:none;stroke:#1E1E1E;stroke-linecap:round;stroke-linejoin:round;" d="M192.136,296.313c0,0-13.15,5.027-15.083,11.989"></path></g><g><linearGradient id="hair3XMLID_1115_" gradientUnits="userSpaceOnUse" x1="222.1772" y1="385" x2="222.1772" y2="129.9998"><stop offset="0" style="stop-color:#FCFCE4"></stop><stop offset="0.5" style="stop-color:#A0C8DD"></stop><stop offset="1" style="stop-color:#5D6EC5"></stop></linearGradient><path style="fill:url(#hair3XMLID_1115_);stroke:#1E1E1E;stroke-linecap:round;stroke-linejoin:round;" d="M196.221,243.325c-4.365,4.448,6.961,34.422,6.961,34.422s-1.118,2.285-2.576,5.385c3.583,1.91,7.137,3.921,10.752,5.734c0.949-2.48,1.854-4.9,2.674-7.15c26.28-0.874,30.925-1.953,35.066-7.063c0.47-0.581-3.481-16.245-22.626-25.527C210.752,241.504,200.366,242.358,196.221,243.325z"></path><g><path style="fill:none;stroke:#1E1E1E;stroke-linecap:round;stroke-linejoin:round;" d="M213.667,279.681c0,0,13.15-5.802,17.02-11.989"></path></g></g><linearGradient id="hair3XMLID_1116_" gradientUnits="userSpaceOnUse" x1="209.1772" y1="385" x2="209.1772" y2="129.9999"><stop offset="0" style="stop-color:#FCFCE4"></stop><stop offset="0.5" style="stop-color:#A0C8DD"></stop><stop offset="1" style="stop-color:#5D6EC5"></stop></linearGradient><path style="fill:url(#hair3XMLID_1116_);stroke:#1E1E1E;stroke-linecap:round;stroke-linejoin:round;" d="M200.863,271.559c0,0,11.603,8.122,18.95,8.122c0,3.095-0.387,4.255-0.387,4.255c-1.934,0.772-3.868,7.348-3.868,7.348s-13.149,0.388-17.017-7.734c1.547-2.321,2.321-6.575,2.321-6.575S200.088,273.106,200.863,271.559z"></path></g></g></g></svg>