<svg xmlns="http://www.w3.org/2000/svg" width="500" height="500" version="1.1"><g id="x077"><g><g><g><linearGradient id="hair3XMLID_1126_" gradientUnits="userSpaceOnUse" x1="319.334" y1="385" x2="319.334" y2="130.0007"><stop offset="0" style="stop-color:#FCFCE4"></stop><stop offset="0.5" style="stop-color:#A0C8DD"></stop><stop offset="1" style="stop-color:#5D6EC5"></stop></linearGradient><path style="fill:url(#hair3XMLID_1126_);stroke:#1E1E1E;stroke-linecap:round;stroke-linejoin:round;" d="M295.788,138.709c0,0,5.964-10.875,29.116-8.771c23.154,2.104,42.803,33.679,36.137,66.656c-6.665,32.978-44.908,59.64-22.102,83.847c-31.224,0-54.728-19.646-41.749-54.728c0,0-23.155-21.05-20.699-46.66S295.788,138.709,295.788,138.709z"></path><path style="fill:none;stroke:#1E1E1E;stroke-linecap:round;stroke-linejoin:round;" d="M311.574,250.271c0,0,1.753,23.856,25.609,28.768"></path></g></g><g><g><linearGradient id="hair3XMLID_1127_" gradientUnits="userSpaceOnUse" x1="180.6665" y1="385" x2="180.6665" y2="130.0007"><stop offset="0" style="stop-color:#FCFCE4"></stop><stop offset="0.5" style="stop-color:#A0C8DD"></stop><stop offset="1" style="stop-color:#5D6EC5"></stop></linearGradient><path style="fill:url(#hair3XMLID_1127_);stroke:#1E1E1E;stroke-linecap:round;stroke-linejoin:round;" d="M204.212,138.709c0,0-5.964-10.875-29.116-8.771c-23.154,2.104-42.803,33.679-36.137,66.656c6.665,32.978,44.908,59.64,22.102,83.847c31.224,0,54.728-19.646,41.749-54.728c0,0,23.155-21.05,20.699-46.66S204.212,138.709,204.212,138.709z"></path><path style="fill:none;stroke:#1E1E1E;stroke-linecap:round;stroke-linejoin:round;" d="M188.426,250.271c0,0-1.753,23.856-25.609,28.768"></path></g></g></g></g></svg>