<svg xmlns="http://www.w3.org/2000/svg" width="500" height="500" version="1.1"><g id="x081"><g><g><linearGradient id="hair3XMLID_1140_" gradientUnits="userSpaceOnUse" x1="356.4082" y1="214.9995" x2="356.4082" y2="153.9995"><stop offset="0" style="stop-color:#FCFCE4"></stop><stop offset="0.5" style="stop-color:#A0C8DD"></stop><stop offset="1" style="stop-color:#5D6EC5"></stop></linearGradient><path style="fill:url(#hair3XMLID_1140_);stroke:#1E1E1E;stroke-linecap:round;stroke-linejoin:round;" d="M364.591,166.561c-0.224,0.896-1.119,22.868-16.366,28.472c4.935-26.455,4.035-46.183,4.035-46.183L364.591,166.561z"></path><g><linearGradient id="hair3XMLID_1141_" gradientUnits="userSpaceOnUse" x1="339.4521" y1="214.9995" x2="339.4521" y2="153.9995"><stop offset="0" style="stop-color:#FCFCE4"></stop><stop offset="0.5" style="stop-color:#A0C8DD"></stop><stop offset="1" style="stop-color:#5D6EC5"></stop></linearGradient><path style="fill:url(#hair3XMLID_1141_);stroke:#1E1E1E;stroke-linecap:round;stroke-linejoin:round;" d="M364.975,158.893c0,0,1.187-25.96-12.938-33.359c-6.723-3.521-14.455-2.927-20.793-1.34c2.073-5.744,0.754-11.654-0.281-15.922c-3.021,10.162-8.396,13.926-12.108,15.322c-1.216-0.214-2.213-0.253-2.913-0.077c-5.38,1.345-7.847,8.294-7.398,13.451c0.45,5.156,8.817,10.672,18.832,21.523c25.558,27.688,2.915,58.29,2.915,58.29s27.353-6.053,25.782-46.855c-0.195-5.037-1.01-9.433-2.369-13.276c5.023,5.746,9.619,14.275,8.646,25.83c-2.017,23.989-16.365,29.369-16.365,29.369s21.748-3.812,24.213-27.126C371.077,176.394,369.267,167.268,364.975,158.893z M350.923,141.734c-3.679-3.751-8.869-7.456-14.173-10.542c4.35-0.496,9.166-0.364,12.372,1.741c5.313,3.486,6.567,10.163,6.861,13.398C354.417,144.711,352.732,143.171,350.923,141.734z"></path></g></g><g><linearGradient id="hair3XMLID_1142_" gradientUnits="userSpaceOnUse" x1="143.5918" y1="214.9995" x2="143.5918" y2="153.9995"><stop offset="0" style="stop-color:#FCFCE4"></stop><stop offset="0.5" style="stop-color:#A0C8DD"></stop><stop offset="1" style="stop-color:#5D6EC5"></stop></linearGradient><path style="fill:url(#hair3XMLID_1142_);stroke:#1E1E1E;stroke-linecap:round;stroke-linejoin:round;" d="M135.409,166.561c0.225,0.896,1.12,22.868,16.366,28.472c-4.933-26.455-4.035-46.183-4.035-46.183L135.409,166.561z"></path><g><linearGradient id="hair3XMLID_1143_" gradientUnits="userSpaceOnUse" x1="160.5474" y1="214.9995" x2="160.5474" y2="153.9995"><stop offset="0" style="stop-color:#FCFCE4"></stop><stop offset="0.5" style="stop-color:#A0C8DD"></stop><stop offset="1" style="stop-color:#5D6EC5"></stop></linearGradient><path style="fill:url(#hair3XMLID_1143_);stroke:#1E1E1E;stroke-linecap:round;stroke-linejoin:round;" d="M129.803,184.721c2.466,23.315,24.213,27.126,24.213,27.126s-14.349-5.38-16.366-29.369c-0.972-11.554,3.623-20.083,8.646-25.83c-1.36,3.843-2.175,8.239-2.369,13.276c-1.569,40.802,25.782,46.855,25.782,46.855s-22.643-30.602,2.916-58.29c10.014-10.851,18.382-16.367,18.831-21.523c0.449-5.157-2.017-12.106-7.399-13.451c-0.699-0.176-1.696-0.137-2.913,0.077c-3.712-1.396-9.085-5.16-12.107-15.322c-1.035,4.268-2.354,10.178-0.282,15.922c-6.337-1.587-14.07-2.182-20.793,1.34c-14.124,7.399-12.938,33.359-12.938,33.359C130.733,167.268,128.924,176.394,129.803,184.721z M144.017,146.331c0.293-3.235,1.549-9.912,6.861-13.398c3.206-2.105,8.022-2.236,12.372-1.741c-5.303,3.087-10.494,6.792-14.173,10.542C147.269,143.171,145.583,144.711,144.017,146.331z"></path></g></g></g></g></svg>