<svg xmlns="http://www.w3.org/2000/svg" width="500" height="500" version="1.1"><g id="x083"><g><g><linearGradient id="hair3XMLID_1146_" gradientUnits="userSpaceOnUse" x1="348.5625" y1="407" x2="348.5625" y2="92.0003"><stop offset="0" style="stop-color:#FCFCE4"></stop><stop offset="0.5" style="stop-color:#A0C8DD"></stop><stop offset="1" style="stop-color:#5D6EC5"></stop></linearGradient><path style="fill:url(#hair3XMLID_1146_);stroke:#1E1E1E;stroke-linecap:round;stroke-linejoin:round;" d="M344.6,214.617c0,0,11.338,40.08-3.023,121.509c17.385-52.802,18.141-97.335,4.535-163.497"></path><linearGradient id="hair3XMLID_1147_" gradientUnits="userSpaceOnUse" x1="332.2324" y1="407" x2="332.2324" y2="91.9992"><stop offset="0" style="stop-color:#FCFCE4"></stop><stop offset="0.5" style="stop-color:#A0C8DD"></stop><stop offset="1" style="stop-color:#5D6EC5"></stop></linearGradient><path style="fill:url(#hair3XMLID_1147_);stroke:#1E1E1E;stroke-linecap:round;stroke-linejoin:round;" d="M317.389,227.34c-3.67-42.616-10.727-91.133-5.682-94.154c12-7.187,23.822,1.272,29.869,11.451c6.047,10.179,10.281,47.577,3.023,90.338c-10.582,62.345,35.525,163.495-12.094,188.308c20.408-22.267,12.85-64.255,4.535-101.152C332.922,303.853,320.99,269.167,317.389,227.34z"></path><linearGradient id="hair3XMLID_1148_" gradientUnits="userSpaceOnUse" x1="338.1338" y1="407" x2="338.1338" y2="92.0002"><stop offset="0" style="stop-color:#FCFCE4"></stop><stop offset="0.5" style="stop-color:#A0C8DD"></stop><stop offset="1" style="stop-color:#5D6EC5"></stop></linearGradient><path style="fill:url(#hair3XMLID_1148_);stroke:#1E1E1E;stroke-linecap:round;stroke-linejoin:round;" d="M332.959,297.353c7.582,34.88,12.58,79.346-4.363,99.863c10.962-8.09,18.268-21.639,19.076-48.966"></path></g></g></g></svg>