<svg xmlns="http://www.w3.org/2000/svg" width="500" height="500" version="1.1"><g id="x084"><g><g><linearGradient id="hair3XMLID_1149_" gradientUnits="userSpaceOnUse" x1="338.0117" y1="407" x2="338.0117" y2="92.0006"><stop offset="0" style="stop-color:#FCFCE4"></stop><stop offset="0.5" style="stop-color:#A0C8DD"></stop><stop offset="1" style="stop-color:#5D6EC5"></stop></linearGradient><path style="fill:url(#hair3XMLID_1149_);stroke:#1E1E1E;stroke-linecap:round;stroke-linejoin:round;" d="M302.347,132.376c0,0,7.032-12.658,28.128-11.252c21.098,1.407,52.979,21.564,40.321,60.008c-7.885,23.937-16.801,26.047-16.41,38.914c0.469,15.471,8.907,16.877,8.438,32.349c-0.467,15.47-25.783,24.844-16.408,35.628c6.743,7.757,13.128-2.813,13.595-5.156c0.47-2.343,5.08,19.089-14.064,17.348c-20.628-1.877-22.973-25.784-13.595-36.568c9.375-10.784-0.47-41.256-14.534-44.07C307.035,185.821,302.347,132.376,302.347,132.376z"></path><linearGradient id="hair3XMLID_1150_" gradientUnits="userSpaceOnUse" x1="346.416" y1="407" x2="346.416" y2="91.9995"><stop offset="0" style="stop-color:#FCFCE4"></stop><stop offset="0.5" style="stop-color:#A0C8DD"></stop><stop offset="1" style="stop-color:#5D6EC5"></stop></linearGradient><path style="fill:url(#hair3XMLID_1150_);stroke:#1E1E1E;stroke-linecap:round;stroke-linejoin:round;" d="M358.604,285.68c0,0-4.217,18.286-24.377,10.314"></path><linearGradient id="hair3XMLID_1151_" gradientUnits="userSpaceOnUse" x1="352.6514" y1="407" x2="352.6514" y2="92"><stop offset="0" style="stop-color:#FCFCE4"></stop><stop offset="0.5" style="stop-color:#A0C8DD"></stop><stop offset="1" style="stop-color:#5D6EC5"></stop></linearGradient><path style="fill:url(#hair3XMLID_1151_);stroke:#1E1E1E;stroke-linecap:round;stroke-linejoin:round;" d="M354.386,228.014c0,0,8.907,28.599-6.094,46.414"></path><linearGradient id="hair3XMLID_1152_" gradientUnits="userSpaceOnUse" x1="335.8623" y1="407" x2="335.8623" y2="92.0002"><stop offset="0" style="stop-color:#FCFCE4"></stop><stop offset="0.5" style="stop-color:#A0C8DD"></stop><stop offset="1" style="stop-color:#5D6EC5"></stop></linearGradient><path style="fill:url(#hair3XMLID_1152_);stroke:#1E1E1E;stroke-linecap:round;stroke-linejoin:round;" d="M308.911,140.345c0,0,14.531-14.532,34.691-2.343c20.16,12.188,24.847,34.694,12.188,73.605"></path></g></g></g></svg>