<svg xmlns="http://www.w3.org/2000/svg" width="500" height="500" version="1.1"><g id="x085"><g><g><linearGradient id="hair3XMLID_1153_" gradientUnits="userSpaceOnUse" x1="264.5" y1="407" x2="264.5" y2="92.0006"><stop offset="0" style="stop-color:#FCFCE4"></stop><stop offset="0.5" style="stop-color:#A0C8DD"></stop><stop offset="1" style="stop-color:#5D6EC5"></stop></linearGradient><path style="fill:url(#hair3XMLID_1153_);stroke:#1E1E1E;stroke-linecap:round;stroke-linejoin:round;" d="M323.659,359.905c-26.686-16.243-34.228-30.747-34.228-30.747s18.563,16.824,44.671,24.945c-16.824-22.625-26.688-38.869-29.587-77.159c-2-26.4-7.062-47.122-13.204-62.972c0.254-1.047,0.57-1.917,0.955-2.585c8.024-13.923,15.579-53.954,13.22-73.099c-2.363-19.145-17.469-30.748-22.66-31.908c-6.048-21.241-28.633-20.124-32.416-19.782c-3.783-0.342-26.365-1.459-32.415,19.782c-5.191,1.161-20.298,12.764-22.659,31.908c-1.822,14.78,2.266,42,7.917,60.053c0.263,29.392-3.57,113.272,31.646,134.297c-9.283-29.588-8.703-53.374-8.703-53.374s5.801,73.679,77.739,87.021c-22.046-21.464-24.367-34.808-24.367-34.808S291.752,359.905,323.659,359.905z"></path><g><linearGradient id="hair3XMLID_1154_" gradientUnits="userSpaceOnUse" x1="249.8662" y1="407" x2="249.8662" y2="91.9997"><stop offset="0" style="stop-color:#FCFCE4"></stop><stop offset="0.5" style="stop-color:#A0C8DD"></stop><stop offset="1" style="stop-color:#5D6EC5"></stop></linearGradient><path style="fill:url(#hair3XMLID_1154_);stroke:#1E1E1E;stroke-linecap:round;stroke-linejoin:round;" d="M249.867,104.061c-14.74,0-26.918,8.807-29.124,20.305h58.245C276.784,112.867,264.604,104.061,249.867,104.061z"></path><linearGradient id="hair3XMLID_1155_" gradientUnits="userSpaceOnUse" x1="249.8677" y1="407.001" x2="249.8677" y2="92.0007"><stop offset="0" style="stop-color:#FCFCE4"></stop><stop offset="0.5" style="stop-color:#A0C8DD"></stop><stop offset="1" style="stop-color:#5D6EC5"></stop></linearGradient><path style="fill:url(#hair3XMLID_1155_);stroke:#1E1E1E;stroke-linecap:round;stroke-linejoin:round;" d="M249.867,109.282c-16.804,0-30.689,8.806-33.203,20.305h66.407C280.554,118.088,266.67,109.282,249.867,109.282z"></path></g></g></g></g></svg>