<svg xmlns="http://www.w3.org/2000/svg" width="500" height="500" version="1.1"><g id="x086"><g><g><linearGradient id="hair3XMLID_1156_" gradientUnits="userSpaceOnUse" x1="327.3945" y1="407" x2="327.3945" y2="91.9998"><stop offset="0" style="stop-color:#FCFCE4"></stop><stop offset="0.5" style="stop-color:#A0C8DD"></stop><stop offset="1" style="stop-color:#5D6EC5"></stop></linearGradient><path style="fill:url(#hair3XMLID_1156_);stroke:#1E1E1E;stroke-linecap:round;stroke-linejoin:round;" d="M353.023,121.105c-10.679-16.36-31.729-21.532-47.021-11.55c-4.438,2.896-7.897,6.753-10.319,11.164l36.716,52.78c4.28-0.665,8.452-2.21,12.265-4.699C359.957,158.819,363.697,137.466,353.023,121.105z"></path><path style="fill:#FEFEFE;stroke:#1E1E1E;stroke-linecap:round;stroke-linejoin:round;" d="M327.886,174.205c1.486,0.939,8.688,1.256,8.688,1.256s2.139-8.864-2.989-11.497c0.164-3.708,2.914-6.645-0.381-11.164c-3.299-4.516-6.383-3.996-6.383-3.996s1.619-6.922-3.035-10.404c-4.655-3.485-6.469-2.037-6.469-2.037s-0.175-5.908-4.422-8.717c-4.249-2.813-7.14-1.628-7.14-1.628s-0.18-5.908-4.699-7.421c0,0-3.602-2.563-7.427-0.11c-1.76,5.169,0.067,13.336,0.067,13.336L327.886,174.205z"></path></g></g></g></svg>