<svg xmlns="http://www.w3.org/2000/svg" width="500" height="500" version="1.1"><g id="x088"><g><g><linearGradient id="hair3XMLID_1158_" gradientUnits="userSpaceOnUse" x1="297.4746" y1="407" x2="297.4746" y2="91.9998"><stop offset="0" style="stop-color:#FCFCE4"></stop><stop offset="0.5" style="stop-color:#A0C8DD"></stop><stop offset="1" style="stop-color:#5D6EC5"></stop></linearGradient><path style="fill:url(#hair3XMLID_1158_);stroke:#1E1E1E;stroke-linecap:round;stroke-linejoin:round;" d="M298.566,224.207c9.745,0.611,18.605,8.413,18.372,8.896c2.9,7.929,3.617,22.471,2.809,24.494c-1.059,2.645-24.34,19.577-24.34,19.577s-18.463-14.904-19.66-18.738c-2.899-9.282,2.514-27.46,2.514-27.46S289.155,223.616,298.566,224.207z"></path><linearGradient id="hair3XMLID_1159_" gradientUnits="userSpaceOnUse" x1="309.6055" y1="407" x2="309.6055" y2="92.0001"><stop offset="0" style="stop-color:#FCFCE4"></stop><stop offset="0.5" style="stop-color:#A0C8DD"></stop><stop offset="1" style="stop-color:#5D6EC5"></stop></linearGradient><path style="fill:url(#hair3XMLID_1159_);stroke:#1E1E1E;stroke-linecap:round;stroke-linejoin:round;" d="M303.979,268.88c0,0,9.863-9.862,11.024-15.084c1.159-5.221-2.514-23.208-2.514-23.208"></path><linearGradient id="hair3XMLID_1160_" gradientUnits="userSpaceOnUse" x1="290.1211" y1="407" x2="290.1211" y2="92.0001"><stop offset="0" style="stop-color:#FCFCE4"></stop><stop offset="0.5" style="stop-color:#A0C8DD"></stop><stop offset="1" style="stop-color:#5D6EC5"></stop></linearGradient><path style="fill:url(#hair3XMLID_1160_);stroke:#1E1E1E;stroke-linecap:round;stroke-linejoin:round;" d="M293.538,266.753c0,0-6.768-16.633-6.768-18.954c-0.774-7.154,5.608-18.757,5.608-18.757"></path><g><linearGradient id="hair3XMLID_1161_" gradientUnits="userSpaceOnUse" x1="299.2266" y1="407" x2="299.2266" y2="92.0013"><stop offset="0" style="stop-color:#FCFCE4"></stop><stop offset="0.5" style="stop-color:#A0C8DD"></stop><stop offset="1" style="stop-color:#5D6EC5"></stop></linearGradient><path style="fill:url(#hair3XMLID_1161_);stroke:#1E1E1E;stroke-linecap:round;stroke-linejoin:round;" d="M302.359,268.891c0,0,9.093,7.037,9.304,12.921c0.212,5.88-6.561,14.083-6.561,14.083l-11.718,1.895c0,0-6.147-7.14-6.568-10.661c-0.423-3.522,3.619-13.977,3.619-13.977"></path><linearGradient id="hair3XMLID_1162_" gradientUnits="userSpaceOnUse" x1="300.8027" y1="407" x2="300.8027" y2="91.9998"><stop offset="0" style="stop-color:#FCFCE4"></stop><stop offset="0.5" style="stop-color:#A0C8DD"></stop><stop offset="1" style="stop-color:#5D6EC5"></stop></linearGradient><path style="fill:url(#hair3XMLID_1162_);stroke:#1E1E1E;stroke-linecap:round;stroke-linejoin:round;" d="M303.276,288.553c0,0,7.183,5.559,7.353,10.205c0.165,4.648-5.186,11.122-5.186,11.122l-9.258,1.493c0,0-4.855-5.64-5.189-8.421c-0.33-2.778,2.86-11.038,2.86-11.038"></path><linearGradient id="hair3XMLID_1163_" gradientUnits="userSpaceOnUse" x1="301.5977" y1="407" x2="301.5977" y2="92"><stop offset="0" style="stop-color:#FCFCE4"></stop><stop offset="0.5" style="stop-color:#A0C8DD"></stop><stop offset="1" style="stop-color:#5D6EC5"></stop></linearGradient><path style="fill:url(#hair3XMLID_1163_);stroke:#1E1E1E;stroke-linecap:round;stroke-linejoin:round;" d="M303.32,306.547c0,0,5,3.87,5.116,7.104c0.117,3.237-3.609,7.741-3.609,7.741l-6.441,1.041c0,0-3.381-3.925-3.613-5.86c-0.229-1.934,1.99-7.687,1.99-7.687"></path><linearGradient id="hair3XMLID_1164_" gradientUnits="userSpaceOnUse" x1="301.3027" y1="407" x2="301.3027" y2="92.0009"><stop offset="0" style="stop-color:#FCFCE4"></stop><stop offset="0.5" style="stop-color:#A0C8DD"></stop><stop offset="1" style="stop-color:#5D6EC5"></stop></linearGradient><path style="fill:url(#hair3XMLID_1164_);stroke:#1E1E1E;stroke-linecap:round;stroke-linejoin:round;" d="M304.94,320.989c0,0,7.826,5.128,4.081,17.351c-2.907-0.468-10.837,0.649-10.837,0.649l-0.688-8.76l-4.929,8.457c0,0,0.407-11.862,5.268-16.15C302.697,318.244,304.94,320.989,304.94,320.989z"></path></g></g></g></g></svg>