<svg xmlns="http://www.w3.org/2000/svg" width="500" height="500" version="1.1"><g id="x091"><g><g><g><linearGradient id="hair3XMLID_1168_" gradientUnits="userSpaceOnUse" x1="329.7363" y1="407" x2="329.7363" y2="91.9999"><stop offset="0" style="stop-color:#FCFCE4"></stop><stop offset="0.5" style="stop-color:#A0C8DD"></stop><stop offset="1" style="stop-color:#5D6EC5"></stop></linearGradient><path style="fill:url(#hair3XMLID_1168_);stroke:#1E1E1E;stroke-linecap:round;stroke-linejoin:round;" d="M295.568,154.468c-5.221-9.572-2.514-18.66-2.514-18.66s12.305-18.764,31.732-18.567c19.43,0.197,32.057,16.75,30.762,25.024c-1.293,8.276-14.248,23.316-1.619,23.711c12.629,0.394,12.951-8.703,12.951-8.703s3.564,16.825-16.838,16.825c-0.236,0-0.451-0.014-0.68-0.021c1.24,1.519,2.738,2.84,4.566,3.791c7.764,4.039,13.275,22.046-2.914,25.527s-11.332,19.192-8.418,21.164c2.914,1.969,9.066-0.395,9.066-0.395s-4.211,8.866-19.752,3.744c-8.408-2.771-12.955-23.58-12.305-33.431c0.646-9.852,0.322-21.083,0.322-21.083S300.789,164.041,295.568,154.468z"></path><linearGradient id="hair3XMLID_1169_" gradientUnits="userSpaceOnUse" x1="328.4219" y1="407" x2="328.4219" y2="92.0002"><stop offset="0" style="stop-color:#FCFCE4"></stop><stop offset="0.5" style="stop-color:#A0C8DD"></stop><stop offset="1" style="stop-color:#5D6EC5"></stop></linearGradient><path style="fill:url(#hair3XMLID_1169_);stroke:#1E1E1E;stroke-linecap:round;stroke-linejoin:round;" d="M339.033,169.457c0,0,16.84,28.428-24.607,47.572c8.744-16.824,15.541-37.13,8.418-51.633"></path></g><g><path style="fill:#FFFFFF;stroke:#1E1E1E;stroke-linecap:round;stroke-linejoin:round;" d="M310.559,131.806c0,0-21.227-5.123-21.178-10.313c0.047-5.188,11.791-12.863,13.84-9.992C305.273,114.375,310.559,131.806,310.559,131.806z"></path><path style="fill:#FFFFFF;stroke:#1E1E1E;stroke-linecap:round;stroke-linejoin:round;" d="M306.014,128.112c0,0,21.229,5.124,21.18,10.313c-0.047,5.188-11.793,12.863-13.842,9.992C311.305,145.544,306.014,128.112,306.014,128.112z"></path><path style="fill:#FFFFFF;stroke:#1E1E1E;stroke-linecap:round;stroke-linejoin:round;" d="M314.766,131.321c0,0-5.221-1.16-6.381,2.9c-3.48-0.58-6.383-4.641-6.383-6.382c0-1.74,4.063-5.221,5.803-5.221S315.926,124.359,314.766,131.321z"></path></g></g></g></g></svg>