<svg xmlns="http://www.w3.org/2000/svg" width="500" height="500" version="1.1"><g id="x093"><g><g><linearGradient id="hair3XMLID_1172_" gradientUnits="userSpaceOnUse" x1="281.1084" y1="407" x2="281.1084" y2="92.0008"><stop offset="0" style="stop-color:#FCFCE4"></stop><stop offset="0.5" style="stop-color:#A0C8DD"></stop><stop offset="1" style="stop-color:#5D6EC5"></stop></linearGradient><path style="fill:url(#hair3XMLID_1172_);stroke:#1E1E1E;stroke-linecap:round;stroke-linejoin:round;" d="M357.092,163.656c-8.093,12.53-17.391,4.211-17.202-0.145c7.376-27.203,0.282-60.546-45.55-75.049c-19.104-6.046-63.509,0-78.205,13.923c-13.81,13.082-9.584,35.568-8.004,40.948c-2.078,7.624-11.76,49.218,20.073,62.898c20.594,8.123,26.976,14.504,26.976,14.504s-3.992,17.428,28.845,23.929l-0.378,0.196c0,0-6.71,10.394,3.732,17.936c9.572,0.87,14.86,8.181,14.793,8.702c-12.341,16.09,0.871,27.556,13.489,27.085c-5.077-11.131,7.937-11.088,11.707-21.472c3.77-10.382-1.454-13.293-3.156-19.024c15.032,11.87,19.857-2.774,20.107-10.332c-0.285,2.595-11.399,10.98-15.346-1.108c-3.995-12.248,16.264-12.509,20.406-36.855c2.4-14.109-4.639-26.114-10.984-33.724C346.783,179.782,355.562,177.419,357.092,163.656z"></path><linearGradient id="hair3XMLID_1173_" gradientUnits="userSpaceOnUse" x1="209.3657" y1="407" x2="209.3657" y2="91.9993"><stop offset="0" style="stop-color:#FCFCE4"></stop><stop offset="0.5" style="stop-color:#A0C8DD"></stop><stop offset="1" style="stop-color:#5D6EC5"></stop></linearGradient><path style="fill:url(#hair3XMLID_1173_);stroke:#1E1E1E;stroke-linecap:round;stroke-linejoin:round;" d="M224.449,110.507c0,0-24.752-1.933-30.167,24.754c13.906-13.15,27.54-12.861,27.54-12.861"></path><linearGradient id="hair3XMLID_1174_" gradientUnits="userSpaceOnUse" x1="210.1128" y1="407" x2="210.1128" y2="91.9991"><stop offset="0" style="stop-color:#FCFCE4"></stop><stop offset="0.5" style="stop-color:#A0C8DD"></stop><stop offset="1" style="stop-color:#5D6EC5"></stop></linearGradient><path style="fill:url(#hair3XMLID_1174_);stroke:#1E1E1E;stroke-linecap:round;stroke-linejoin:round;" d="M228.317,99.677c0,0-1.933-4.251-11.604-5.8c-9.669-1.547-8.122,10.056-24.753,12.764c-1.16-0.385,17.018,9.667,35.97,2.706"></path><linearGradient id="hair3XMLID_1175_" gradientUnits="userSpaceOnUse" x1="256.96" y1="407" x2="256.96" y2="92"><stop offset="0" style="stop-color:#FCFCE4"></stop><stop offset="0.5" style="stop-color:#A0C8DD"></stop><stop offset="1" style="stop-color:#5D6EC5"></stop></linearGradient><path style="fill:url(#hair3XMLID_1175_);stroke:#1E1E1E;stroke-linecap:round;stroke-linejoin:round;" d="M254.632,98.969c0,0,33.608-8.605,31.829-31.25c-3.164,2.618-5.545,8.852-20.629,9.142c-9.28,0.179-39.605-10.889-38.406,27.992"></path><linearGradient id="hair3XMLID_1176_" gradientUnits="userSpaceOnUse" x1="283.6553" y1="407" x2="283.6553" y2="92.0488"><stop offset="0" style="stop-color:#FCFCE4"></stop><stop offset="0.5" style="stop-color:#A0C8DD"></stop><stop offset="1" style="stop-color:#5D6EC5"></stop></linearGradient><path style="fill:url(#hair3XMLID_1176_);stroke:#1E1E1E;stroke-linecap:round;stroke-linejoin:round;" d="M242.434,99.099c0,0,8.729-14.912,35.969-12.184c50.167,5.027,46.411,62.657,46.411,62.657"></path><path style="fill:url(#hair3XMLID_814_);stroke:#1E1E1E;stroke-linecap:round;stroke-linejoin:round;" d="M278.79,112.055"></path><path style="fill:url(#hair3XMLID_815_);stroke:#1E1E1E;stroke-linecap:round;stroke-linejoin:round;" d="M289.548,104.9"></path></g></g></g></svg>