<svg xmlns="http://www.w3.org/2000/svg" width="500" height="500" version="1.1"><g id="x096"><g><g><g><linearGradient id="hair3XMLID_1184_" gradientUnits="userSpaceOnUse" x1="329.75" y1="407" x2="329.75" y2="92.0002"><stop offset="0" style="stop-color:#FCFCE4"></stop><stop offset="0.5" style="stop-color:#A0C8DD"></stop><stop offset="1" style="stop-color:#5D6EC5"></stop></linearGradient><path style="fill:url(#hair3XMLID_1184_);stroke:#1E1E1E;stroke-linecap:round;stroke-linejoin:round;" d="M333.818,251.894c-9.361-10.583-2.553-20.543-2.553-20.543c-0.527,0.535-9.361,9.005-3.465,20.735c-19.82-10.146-5.998-24.372-3.953-27.857c-11.529,4.824-15.635-2.818-16.445-7.663c1.486,5.342,16.834,4.438,12.963-5.803c-3.871-10.24-9.814-10.712-17.387-17.207c-7.572-6.495-15.373-14.504-17.115-37.71c-1.703-22.731,16.211-38.192,16.211-38.192s5.83-9.201,19.516-8.186c13.684,1.014,16.289,8.29,16.289,8.29s20.156,0.602,29.098,22.703c8.938,22.102-10.805,31.229-10.934,44.811c-0.127,13.582,11.846,15.305,12.309,26.244c0.412,9.729-8.713,16.134-8.713,16.134s-1.848,10.838,14.111,7.427c-1.088,9.363-18.926,12.315-22.777-2.901c0,0-0.074,18.243-5.348,20.278c-7.217,2.781,0.063,9.152,5.736,14.016C338.424,268.694,332.367,257.848,333.818,251.894z"></path><linearGradient id="hair3XMLID_1185_" gradientUnits="userSpaceOnUse" x1="345.3877" y1="407" x2="345.3877" y2="91.9997"><stop offset="0" style="stop-color:#FCFCE4"></stop><stop offset="0.5" style="stop-color:#A0C8DD"></stop><stop offset="1" style="stop-color:#5D6EC5"></stop></linearGradient><path style="fill:url(#hair3XMLID_1185_);stroke:#1E1E1E;stroke-linecap:round;stroke-linejoin:round;" d="M344.334,172.133c0,0-9.816,17.729-2.781,33.924c7.033,16.195,11.186,21.633,10.012,30.068"></path><linearGradient id="hair3XMLID_1186_" gradientUnits="userSpaceOnUse" x1="347.6816" y1="407" x2="347.6816" y2="91.9999"><stop offset="0" style="stop-color:#FCFCE4"></stop><stop offset="0.5" style="stop-color:#A0C8DD"></stop><stop offset="1" style="stop-color:#5D6EC5"></stop></linearGradient><path style="fill:url(#hair3XMLID_1186_);stroke:#1E1E1E;stroke-linecap:round;stroke-linejoin:round;" d="M336.568,126.349c0,0,19.889-0.862,21.934,23.024c2.039,23.886-7.465,29.99-1.816,40.229"></path><linearGradient id="hair3XMLID_1187_" gradientUnits="userSpaceOnUse" x1="328.0547" y1="407" x2="328.0547" y2="92.0001"><stop offset="0" style="stop-color:#FCFCE4"></stop><stop offset="0.5" style="stop-color:#A0C8DD"></stop><stop offset="1" style="stop-color:#5D6EC5"></stop></linearGradient><path style="fill:url(#hair3XMLID_1187_);stroke:#1E1E1E;stroke-linecap:round;stroke-linejoin:round;" d="M313.795,124.766c0,0,7.771-12.481,28.52-5.882"></path></g></g></g></g></svg>