<svg xmlns="http://www.w3.org/2000/svg" width="500" height="500" version="1.1"><g id="x098"><g><g><linearGradient id="hair3XMLID_1201_" gradientUnits="userSpaceOnUse" x1="339.3477" y1="407" x2="339.3477" y2="92.0002"><stop offset="0" style="stop-color:#FCFCE4"></stop><stop offset="0.5" style="stop-color:#A0C8DD"></stop><stop offset="1" style="stop-color:#5D6EC5"></stop></linearGradient><path style="fill:url(#hair3XMLID_1201_);stroke:#1E1E1E;stroke-linecap:round;stroke-linejoin:round;" d="M333.691,182.75c0,0-6.399,58.132,8.707,77.648c-3.755-18.676,2.155-53.834,3.952-63.334"></path><linearGradient id="hair3XMLID_1202_" gradientUnits="userSpaceOnUse" x1="332.9609" y1="407.001" x2="332.9609" y2="92.0004"><stop offset="0" style="stop-color:#FCFCE4"></stop><stop offset="0.5" style="stop-color:#A0C8DD"></stop><stop offset="1" style="stop-color:#5D6EC5"></stop></linearGradient><path style="fill:url(#hair3XMLID_1202_);stroke:#1E1E1E;stroke-linecap:round;stroke-linejoin:round;" d="M306.806,150c0,0,3.481-20.156,6.797-22.032c3.314-1.876,11.324-3.432,16.899-2.031c41.685,29.048,37.212,111.018-9.411,131.091c15.217-19.353,9.48-46.386,1.623-71.27C314.856,160.875,307.318,159.276,306.806,150z"></path><linearGradient id="hair3XMLID_1203_" gradientUnits="userSpaceOnUse" x1="353.6387" y1="407" x2="353.6387" y2="92.0002"><stop offset="0" style="stop-color:#FCFCE4"></stop><stop offset="0.5" style="stop-color:#A0C8DD"></stop><stop offset="1" style="stop-color:#5D6EC5"></stop></linearGradient><path style="fill:url(#hair3XMLID_1203_);stroke:#1E1E1E;stroke-linecap:round;stroke-linejoin:round;" d="M354.126,207.086c0.068,12.096-1.086,28.656-6.785,40.524c12.104-17.494,14.964-43.922,10.794-72.018"></path></g></g></g></svg>