<svg xmlns="http://www.w3.org/2000/svg" width="500" height="500" version="1.1"><g id="x011"><g><g><path style="fill:#FEE6DB;" d="M288.771,264.159c0,0,1.22,4.129-2.018,4.568c-2.562,0.349-4.335-2.524-3.321-4.643c1.014-2.117,1.543-6.306,2.304-5.996c0.761,0.309-0.648,5.608-0.524,6.854c0.124,1.247,0.048,2.006,1.313,1.874C287.688,266.696,288.771,264.159,288.771,264.159z"></path><ellipse style="fill:#FFFFFF;" cx="286.75" cy="265.041" rx="1.167" ry="1.625"></ellipse></g><g><path style="fill:#FEE6DB;" d="M208.437,255.159c0,0,1.22,4.129-2.018,4.568c-2.562,0.349-4.335-2.524-3.321-4.643c1.014-2.117,1.543-6.306,2.304-5.996c0.761,0.309-0.648,5.608-0.524,6.854c0.124,1.247,0.048,2.006,1.313,1.874C207.354,257.696,208.437,255.159,208.437,255.159z"></path><ellipse style="fill:#FFFFFF;" cx="206.417" cy="256.041" rx="1.167" ry="1.625"></ellipse></g><g><path style="fill:#FEE6DB;" d="M265.438,205.159c0,0,1.22,4.129-2.018,4.568c-2.562,0.349-4.335-2.524-3.321-4.643c1.014-2.117,1.543-6.306,2.304-5.996c0.761,0.309-0.648,5.608-0.524,6.854c0.124,1.247,0.048,2.006,1.313,1.874C264.354,207.696,265.438,205.159,265.438,205.159z"></path><ellipse style="fill:#FFFFFF;" cx="263.417" cy="206.041" rx="1.167" ry="1.625"></ellipse></g></g></g></svg>