<svg xmlns="http://www.w3.org/2000/svg" width="500" height="500" version="1.1"><g id="x008"><g><g><path style="fill:none;stroke:#FEE6DB;stroke-linecap:round;stroke-linejoin:round;" d="M204.125,258.875c0,0,2.625-2.625,4.5-4.375l0.25,4.375c0,0,2.625-2.625,4.5-4.375"></path><path style="fill:none;stroke:#FEE6DB;stroke-linecap:round;stroke-linejoin:round;" d="M213.625,258.875c0,0,2.625-2.625,4.5-4.375"></path><path style="fill:none;stroke:#FEE6DB;stroke-linecap:round;stroke-linejoin:round;" d="M218.375,258.875c0,0,2.625-2.625,4.5-4.375"></path></g><g><path style="fill:none;stroke:#FEE6DB;stroke-linecap:round;stroke-linejoin:round;" d="M277.125,258.875c0,0,2.625-2.625,4.5-4.375l0.25,4.375c0,0,2.625-2.625,4.5-4.375"></path><path style="fill:none;stroke:#FEE6DB;stroke-linecap:round;stroke-linejoin:round;" d="M286.625,258.875c0,0,2.625-2.625,4.5-4.375"></path><path style="fill:none;stroke:#FEE6DB;stroke-linecap:round;stroke-linejoin:round;" d="M291.375,258.875c0,0,2.625-2.625,4.5-4.375"></path></g></g></g></svg>