<svg xmlns="http://www.w3.org/2000/svg" width="500" height="500" version="1.1"><g id="x010"><g><g><g><g><path style="fill:#6E6E6E;stroke:#000000;stroke-linecap:round;stroke-linejoin:round;" d="M209.473,317.25c0,0,2.25-4.5,2.25-5.25s-2-3.5-2-3.5s0.75-4,1.5-4.75s6.25-6.25,6.25-6.25s2.685-6.498,5.5-8.75c3.75-3,8.5-5.25,8.5-5.25l0.75,11.75l-9.5,30L209.473,317.25z"></path><path style="fill:#505050;" d="M226.223,309.25c0,0-4.25-7-3.25-9.25s6.5-6,6.5-6S227.723,308,226.223,309.25z"></path><path style="fill:#505050;" d="M213.473,318c0,0,3-1.5,2-4.5c2.25,1,8.25,7,9,10.5C221.223,323,213.473,318,213.473,318z"></path><path style="opacity:0.5;fill:none;stroke:#FFFFFF;stroke-width:1.5;stroke-linecap:round;" d="M223.473,290.875c0,0-3.625,7.125-4.25,9.625c-1.875,1.625-4.75,4.125-4.75,4.125l-0.875,4l1.125,3.375c0,0,0,4.125-1.75,6.5"></path><path style="opacity:0.5;fill:none;stroke:#FFFFFF;stroke-width:1.5;stroke-linecap:round;" d="M216.973,319.333c0,0,1.833-2.666,2-3.666c0-3-0.167-6.334-0.167-6.334s1.166-3.5,1.333-4s3.167-3.333,3.167-3.333l3-8.5"></path><path style="opacity:0.5;fill:none;stroke:#FFFFFF;stroke-width:1.5;stroke-linecap:round;" d="M225.473,307.333c0,0-0.667,1.833-1.667,4s-1.167,8.334-1.167,8.334l-2.333,2.166"></path><path style="fill:none;stroke:#000000;stroke-linecap:round;stroke-linejoin:round;" d="M223.223,302.75c0,0,2.5,4.5,5.75,7"></path><path style="fill:none;stroke:#000000;stroke-linecap:round;stroke-linejoin:round;" d="M213.723,312c0,0,6.75,3.5,10.25,10.75"></path></g><g><path style="fill:#6E6E6E;" d="M219.973,338c0,0-16.25-7.5-16.5-8.25s0.5-2.75,0.5-2.75s-1.5-5-1.5-6c1.5-2.25,5.5-4,5.5-4s13.5,3.25,17.5,7.75C225.723,329.75,219.973,338,219.973,338z"></path><path style="fill:#505050;" d="M223.306,323.167l0.167,3.333l-4.333,10.667L214.306,335c0,0-0.167-3.166,1.5-7.833s3.167-6,3.167-6L223.306,323.167z"></path><g><path style="opacity:0.5;fill:none;stroke:#FFFFFF;stroke-width:1.5;stroke-linecap:round;" d="M210.223,318.375c0,0-3.75,2.875-3.875,3.25s0.875,5.5,0.875,5.5l-1.375,3.625"></path><path style="opacity:0.5;fill:none;stroke:#FFFFFF;stroke-width:1.5;stroke-linecap:round;" d="M208.973,332.625l1.75-4.375c0,0,0.625-3.875,0.75-4.625s2.875-4.25,2.875-4.25"></path><path style="opacity:0.5;fill:none;stroke:#FFFFFF;stroke-width:1.5;stroke-linecap:round;" d="M213.598,334.625l1.375-4.25c0,0,1-3.5,1.25-4.75c0.25-0.75,2.813-4.25,2.813-4.25"></path><path style="opacity:0.5;fill:none;stroke:#FFFFFF;stroke-width:1.5;stroke-linecap:round;" d="M217.598,336.5l1.625-5.125c0,0,1.5-3.25,1.625-3.75s2.063-4.326,2.063-4.326"></path></g><path style="fill:none;stroke:#000000;stroke-linecap:round;stroke-linejoin:round;" d="M219.973,338c0,0-16.25-7.5-16.5-8.25s0.5-2.75,0.5-2.75s-1.5-5-1.5-6c1.5-2.25,5.5-4,5.5-4s13.5,3.25,17.5,7.75C225.723,329.75,219.973,338,219.973,338z"></path></g></g><g><g><path style="fill:#6E6E6E;stroke:#000000;stroke-linecap:round;stroke-linejoin:round;" d="M290.527,317.25c0,0-2.25-4.5-2.25-5.25s2-3.5,2-3.5s-0.75-4-1.5-4.75s-6.25-6.25-6.25-6.25s-2.685-6.498-5.5-8.75c-3.75-3-8.5-5.25-8.5-5.25l-0.75,11.75l9.5,30L290.527,317.25z"></path><path style="fill:#505050;" d="M273.777,309.25c0,0,4.25-7,3.25-9.25s-6.5-6-6.5-6S272.277,308,273.777,309.25z"></path><path style="fill:#505050;" d="M286.527,318c0,0-3-1.5-2-4.5c-2.25,1-8.25,7-9,10.5C278.777,323,286.527,318,286.527,318z"></path><path style="opacity:0.5;fill:none;stroke:#FFFFFF;stroke-width:1.5;stroke-linecap:round;" d="M276.527,290.875c0,0,3.625,7.125,4.25,9.625c1.875,1.625,4.75,4.125,4.75,4.125l0.875,4L285.277,312c0,0,0,4.125,1.75,6.5"></path><path style="opacity:0.5;fill:none;stroke:#FFFFFF;stroke-width:1.5;stroke-linecap:round;" d="M283.027,319.333c0,0-1.834-2.666-2-3.666c0-3,0.166-6.334,0.166-6.334s-1.166-3.5-1.332-4c-0.168-0.5-3.168-3.333-3.168-3.333l-3-8.5"></path><path style="opacity:0.5;fill:none;stroke:#FFFFFF;stroke-width:1.5;stroke-linecap:round;" d="M274.527,307.333c0,0,0.666,1.833,1.666,4s1.168,8.334,1.168,8.334l2.332,2.166"></path><path style="fill:none;stroke:#000000;stroke-linecap:round;stroke-linejoin:round;" d="M276.777,302.75c0,0-2.5,4.5-5.75,7"></path><path style="fill:none;stroke:#000000;stroke-linecap:round;stroke-linejoin:round;" d="M286.277,312c0,0-6.75,3.5-10.25,10.75"></path></g><g><path style="fill:#6E6E6E;" d="M280.027,338c0,0,16.25-7.5,16.5-8.25s-0.5-2.75-0.5-2.75s1.5-5,1.5-6c-1.5-2.25-5.5-4-5.5-4s-13.5,3.25-17.5,7.75C274.277,329.75,280.027,338,280.027,338z"></path><path style="fill:#505050;" d="M276.693,323.167l-0.166,3.333l4.334,10.667l4.832-2.167c0,0,0.167-3.166-1.5-7.833c-1.666-4.667-3.166-6-3.166-6L276.693,323.167z"></path><g><path style="opacity:0.5;fill:none;stroke:#FFFFFF;stroke-width:1.5;stroke-linecap:round;" d="M289.777,318.375c0,0,3.75,2.875,3.875,3.25s-0.875,5.5-0.875,5.5l1.375,3.625"></path><path style="opacity:0.5;fill:none;stroke:#FFFFFF;stroke-width:1.5;stroke-linecap:round;" d="M291.027,332.625l-1.75-4.375c0,0-0.625-3.875-0.75-4.625s-2.875-4.25-2.875-4.25"></path><path style="opacity:0.5;fill:none;stroke:#FFFFFF;stroke-width:1.5;stroke-linecap:round;" d="M286.402,334.625l-1.375-4.25c0,0-1-3.5-1.25-4.75c-0.25-0.75-2.813-4.25-2.813-4.25"></path><path style="opacity:0.5;fill:none;stroke:#FFFFFF;stroke-width:1.5;stroke-linecap:round;" d="M282.402,336.5l-1.625-5.125c0,0-1.5-3.25-1.625-3.75s-2.063-4.326-2.063-4.326"></path></g><path style="fill:none;stroke:#000000;stroke-linecap:round;stroke-linejoin:round;" d="M280.027,338c0,0,16.25-7.5,16.5-8.25s-0.5-2.75-0.5-2.75s1.5-5,1.5-6c-1.5-2.25-5.5-4-5.5-4s-13.5,3.25-17.5,7.75C274.277,329.75,280.027,338,280.027,338z"></path></g></g></g><g><g><g><g><path style="fill:#6E6E6E;" d="M231.723,286.25c0,0-3.5,9.25-5.5,17.25s-2.75,23-2.75,23s-9.25,22.75-10.75,45.75c3.25,4.75,14.25,7.25,21,8.5c1.5-1.75,2.25-52,2.25-52c0.5-19.25,4.5-29.75,4.5-29.75L231.723,286.25z"></path><g><path style="opacity:0.5;fill:none;stroke:#FFFFFF;stroke-width:1.5;stroke-linecap:round;" d="M232.306,291.5c0,0-2.667,10.001-3.667,13.167s-2.333,22.833-2.333,22.833s-2.5,5.5-5.833,17.167c-3.186,11.149-4.833,30-4.833,30"></path><path style="opacity:0.5;fill:none;stroke:#FFFFFF;stroke-width:1.5;stroke-linecap:round;" d="M235.639,293.167c0,0-3.333,12-4,16s-1.5,18.499-2,20.666s-4.166,13.5-5.833,22s-3.167,24.834-3.167,24.834"></path><path style="opacity:0.5;fill:none;stroke:#FFFFFF;stroke-width:1.5;stroke-linecap:round;" d="M238.306,296.167c0,0-2.5,10.167-3.167,15.5s-1.666,18.166-2.333,20.666s-2.834,15.334-3.667,22.334s-1.833,22.833-1.833,22.833"></path></g><path style="fill:none;stroke:#000000;stroke-linecap:round;stroke-linejoin:round;" d="M231.723,286.25c0,0-3.5,9.25-5.5,17.25s-2.75,23-2.75,23s-9.25,22.75-10.75,45.75c3.25,4.75,14.25,7.25,21,8.5c1.5-1.75,2.25-52,2.25-52c0.5-19.25,4.5-29.75,4.5-29.75L231.723,286.25z"></path></g><path style="fill:#6E6E6E;stroke:#000000;stroke-linecap:round;stroke-linejoin:round;" d="M214.723,353.75c0,0-0.25-2.375,1.5-6.5c1.625-2.875,8-7.375,8-7.375c-0.125,2-0.625,5.625-0.625,5.625S218.723,349.25,214.723,353.75z"></path></g><g><g><path style="fill:#6E6E6E;" d="M268.277,286.25c0,0,3.5,9.25,5.5,17.25s2.75,23,2.75,23s9.25,22.75,10.75,45.75c-3.25,4.75-14.25,7.25-21,8.5c-1.5-1.75-2.25-52-2.25-52c-0.5-19.25-4.5-29.75-4.5-29.75L268.277,286.25z"></path><g><path style="opacity:0.5;fill:none;stroke:#FFFFFF;stroke-width:1.5;stroke-linecap:round;" d="M267.693,291.5c0,0,2.668,10.001,3.668,13.167s2.332,22.833,2.332,22.833s2.5,5.5,5.834,17.167c3.186,11.149,4.834,30,4.834,30"></path><path style="opacity:0.5;fill:none;stroke:#FFFFFF;stroke-width:1.5;stroke-linecap:round;" d="M264.361,293.167c0,0,3.333,12,4,16c0.666,4,1.5,18.499,2,20.666s4.166,13.5,5.832,22c1.668,8.5,3.168,24.834,3.168,24.834"></path><path style="opacity:0.5;fill:none;stroke:#FFFFFF;stroke-width:1.5;stroke-linecap:round;" d="M261.693,296.167c0,0,2.501,10.167,3.168,15.5c0.666,5.333,1.666,18.166,2.332,20.666c0.668,2.5,2.834,15.334,3.668,22.334c0.832,7,1.832,22.833,1.832,22.833"></path></g><path style="fill:none;stroke:#000000;stroke-linecap:round;stroke-linejoin:round;" d="M268.277,286.25c0,0,3.5,9.25,5.5,17.25s2.75,23,2.75,23s9.25,22.75,10.75,45.75c-3.25,4.75-14.25,7.25-21,8.5c-1.5-1.75-2.25-52-2.25-52c-0.5-19.25-4.5-29.75-4.5-29.75L268.277,286.25z"></path></g><path style="fill:#6E6E6E;stroke:#000000;stroke-linecap:round;stroke-linejoin:round;" d="M285.277,353.75c0,0,0.25-2.375-1.5-6.5c-1.625-2.875-8-7.375-8-7.375c0.125,2,0.625,5.625,0.625,5.625S281.277,349.25,285.277,353.75z"></path></g><g><path style="fill:#6E6E6E;stroke:#000000;stroke-linecap:round;stroke-linejoin:round;" d="M259.309,298.962c0,0,3.331,16.872,3.831,21.872s0.5,24,0.5,32.5s2.442,26.499,2.638,27.416s3.028,0.251,4.695-0.416c0,0-1.667-22.333-2-26.5s-0.565-30.826-0.833-33.5c-0.667-6.666-5.5-26-5.5-26L259.309,298.962z"></path><g><circle style="fill:#FF87B0;stroke:#000000;stroke-linecap:round;stroke-linejoin:round;" cx="266.911" cy="352.586" r="3.054"></circle><circle style="fill:#FFED73;stroke:#000000;stroke-linecap:round;stroke-linejoin:round;" cx="266.361" cy="332.23" r="3.053"></circle><circle style="fill:#FF87B0;stroke:#000000;stroke-linecap:round;stroke-linejoin:round;" cx="264.764" cy="312.782" r="3.053"></circle></g></g></g><g><path style="fill:#6E6E6E;stroke:#000000;stroke-linecap:round;stroke-linejoin:round;" d="M240.588,280.765c0,0-4.557,1.846-5.875,2.637c0.264,1.056,5.978,15.561,5.978,15.561s-7.033-8.439-8.088-8.177c-1.054,0.265-8.175,5.54-11.076,8.968c-1.319-7.648,5.538-19.516,7.385-20.044c1.846-0.526,11.561-1.209,11.561-1.209L240.588,280.765z"></path><path style="fill:#6E6E6E;stroke:#000000;stroke-linecap:round;stroke-linejoin:round;" d="M259.412,280.765c0,0,4.557,1.846,5.875,2.637c-0.264,1.056-5.979,15.561-5.979,15.561s7.033-8.439,8.088-8.177c1.055,0.265,8.176,5.54,11.076,8.968c1.319-7.648-5.537-19.516-7.385-20.044c-1.846-0.526-11.561-1.209-11.561-1.209L259.412,280.765z"></path></g></g></g></g></svg>