<svg xmlns="http://www.w3.org/2000/svg" width="500" height="500" version="1.1"><g id="x9139"><g><g><g><path style="fill:#FEFFFD;stroke:#000000;stroke-linecap:round;stroke-linejoin:round;" d="M214.537,313.333l-11,3.667c0,0-13.667,21.667-16,34.333c-0.794,4.313,1.667,10.667,1.667,10.667s-1.667,4-1.667,6.333c2,3.333,13.667,7,18,7.334c2.333-3,4.333-7.667,4.333-7.667s6.333-9.333,8.667-15s9-30.333,9-30.333L214.537,313.333z"></path><g><g><path style="fill:none;stroke:#F0EDEC;stroke-linecap:round;stroke-linejoin:round;" d="M207.228,318.477c0,0-2.155,1.105-2.144,2.189c0.011,1.083,0.364,2.997,0.364,2.997"></path><path style="fill:none;stroke:#F0EDEC;stroke-linecap:round;stroke-linejoin:round;" d="M206.193,323.237c0,0,1.399-1.763,4.135-3.126"></path><path style="fill:none;stroke:#F0EDEC;stroke-linecap:round;stroke-linejoin:round;" d="M205.789,324.408c0,0,0.618,3.328,1.042,4.072"></path><path style="fill:none;stroke:#F0EDEC;stroke-linecap:round;stroke-linejoin:round;" d="M206.561,326.566c0,0,4.226-2.378,4.717-3.216s0.642-2.423,0.642-2.423"></path></g><path style="fill:none;stroke:#F0EDEC;stroke-linecap:round;stroke-linejoin:round;" d="M209.148,326.874c0,0-3.804,2.872-7.043,3.906"></path><path style="fill:none;stroke:#F0EDEC;stroke-linecap:round;stroke-linejoin:round;" d="M209.986,327.281c0,0,0.353,1.913-0.222,2.753s-4.209,3.96-6.459,3.983"></path><path style="fill:none;stroke:#F0EDEC;stroke-linecap:round;stroke-linejoin:round;" d="M208.043,332.886c0,0,0.353,1.912-0.222,2.752c-0.575,0.841-4.209,3.961-6.459,3.985"></path><path style="fill:none;stroke:#F0EDEC;stroke-linecap:round;stroke-linejoin:round;" d="M205.852,338.576c0,0,0.354,1.912-0.222,2.752c-0.574,0.84-4.209,3.961-6.459,3.983"></path><path style="fill:none;stroke:#F0EDEC;stroke-linecap:round;stroke-linejoin:round;" d="M203.743,344.181c0,0,0.354,1.912-0.221,2.753c-0.576,0.84-4.209,3.96-6.46,3.984"></path><path style="fill:none;stroke:#F0EDEC;stroke-linecap:round;stroke-linejoin:round;" d="M201.634,349.786c0,0,0.353,1.912-0.222,2.752s-4.209,3.961-6.459,3.983"></path><path style="fill:none;stroke:#F0EDEC;stroke-linecap:round;stroke-linejoin:round;" d="M199.525,355.39c0,0,0.353,1.913-0.221,2.754c-0.575,0.84-4.209,3.96-6.459,3.983"></path><path style="fill:none;stroke:#F0EDEC;stroke-linecap:round;stroke-linejoin:round;" d="M204.197,323.508c0,0-1.236,1.346-1.479,2.099c-0.243,0.752-0.047,3.585,0.376,4.163"></path><path style="fill:none;stroke:#F0EDEC;stroke-linecap:round;stroke-linejoin:round;" d="M201.179,329.955c0,0-1.236,1.347-1.479,2.099c-0.242,0.753-0.047,3.585,0.376,4.163"></path><path style="fill:none;stroke:#F0EDEC;stroke-linecap:round;stroke-linejoin:round;" d="M202.528,331.358c0,0,0.272,2.163,0.702,3.493"></path><path style="fill:none;stroke:#F0EDEC;stroke-linecap:round;stroke-linejoin:round;" d="M198.907,335.896c0,0-1.236,1.346-1.479,2.099c-0.243,0.752-0.047,3.583,0.376,4.163"></path><path style="fill:none;stroke:#F0EDEC;stroke-linecap:round;stroke-linejoin:round;" d="M200.255,337.299c0,0,0.272,2.163,0.703,3.493"></path><path style="fill:none;stroke:#F0EDEC;stroke-linecap:round;stroke-linejoin:round;" d="M196.635,341.836c0,0-1.236,1.346-1.479,2.097c-0.242,0.754-0.047,3.586,0.376,4.163"></path><path style="fill:none;stroke:#F0EDEC;stroke-linecap:round;stroke-linejoin:round;" d="M197.982,343.238c0,0,0.272,2.163,0.703,3.493"></path><path style="fill:none;stroke:#F0EDEC;stroke-linecap:round;stroke-linejoin:round;" d="M194.362,347.774c0,0-1.236,1.346-1.479,2.1c-0.242,0.751-0.047,3.584,0.376,4.162"></path><path style="fill:none;stroke:#F0EDEC;stroke-linecap:round;stroke-linejoin:round;" d="M195.71,349.178c0,0,0.272,2.164,0.703,3.493"></path><path style="fill:none;stroke:#F0EDEC;stroke-linecap:round;stroke-linejoin:round;" d="M192.09,353.715c0,0-1.236,1.346-1.479,2.099c-0.242,0.752-0.047,3.584,0.375,4.163"></path><path style="fill:none;stroke:#F0EDEC;stroke-linecap:round;stroke-linejoin:round;" d="M193.438,355.117c0,0,0.272,2.164,0.702,3.493"></path></g><path style="fill:none;stroke:#F0EDEC;stroke-linecap:round;stroke-linejoin:round;" d="M203.37,321.001c0,0-13.333,27.334-13.833,31.167s1.667,10.833,1.667,10.833"></path><path style="fill:none;stroke:#F0EDEC;stroke-linecap:round;stroke-linejoin:round;" d="M191.537,362.334c0,0,5.667,3.583,15.75,6"></path><line style="fill:none;stroke:#F0EDEC;stroke-linecap:round;stroke-linejoin:round;" x1="193.453" y1="371.084" x2="195.62" y2="364.751"></line><path style="fill:none;stroke:#F0EDEC;stroke-linecap:round;stroke-linejoin:round;" d="M205.953,368.001c-0.083,0.333-2.833,6.083-2.833,6.083"></path></g><g><path style="fill:#FEFFFD;stroke:#000000;stroke-linecap:round;stroke-linejoin:round;" d="M285.463,313.333l11,3.667c0,0,13.667,21.667,16,34.333c0.795,4.313-1.666,10.667-1.666,10.667s1.666,4,1.666,6.333c-2,3.333-13.666,7-18,7.334c-2.333-3-4.333-7.667-4.333-7.667s-6.333-9.333-8.667-15c-2.333-5.667-9-30.333-9-30.333L285.463,313.333z"></path><g><g><path style="fill:none;stroke:#F0EDEC;stroke-linecap:round;stroke-linejoin:round;" d="M292.772,318.477c0,0,2.155,1.105,2.144,2.189c-0.011,1.083-0.363,2.997-0.363,2.997"></path><path style="fill:none;stroke:#F0EDEC;stroke-linecap:round;stroke-linejoin:round;" d="M293.807,323.237c0,0-1.398-1.763-4.135-3.126"></path><path style="fill:none;stroke:#F0EDEC;stroke-linecap:round;stroke-linejoin:round;" d="M294.211,324.408c0,0-0.618,3.328-1.042,4.072"></path><path style="fill:none;stroke:#F0EDEC;stroke-linecap:round;stroke-linejoin:round;" d="M293.439,326.566c0,0-4.227-2.378-4.718-3.216s-0.642-2.423-0.642-2.423"></path></g><path style="fill:none;stroke:#F0EDEC;stroke-linecap:round;stroke-linejoin:round;" d="M290.852,326.874c0,0,3.805,2.872,7.044,3.906"></path><path style="fill:none;stroke:#F0EDEC;stroke-linecap:round;stroke-linejoin:round;" d="M290.014,327.281c0,0-0.353,1.913,0.223,2.753c0.574,0.84,4.209,3.96,6.459,3.983"></path><path style="fill:none;stroke:#F0EDEC;stroke-linecap:round;stroke-linejoin:round;" d="M291.957,332.886c0,0-0.354,1.912,0.221,2.752c0.576,0.841,4.209,3.961,6.46,3.985"></path><path style="fill:none;stroke:#F0EDEC;stroke-linecap:round;stroke-linejoin:round;" d="M294.148,338.576c0,0-0.354,1.912,0.221,2.752s4.21,3.961,6.46,3.983"></path><path style="fill:none;stroke:#F0EDEC;stroke-linecap:round;stroke-linejoin:round;" d="M296.257,344.181c0,0-0.354,1.912,0.222,2.753c0.575,0.84,4.209,3.96,6.459,3.984"></path><path style="fill:none;stroke:#F0EDEC;stroke-linecap:round;stroke-linejoin:round;" d="M298.365,349.786c0,0-0.353,1.912,0.223,2.752c0.574,0.84,4.209,3.961,6.459,3.983"></path><path style="fill:none;stroke:#F0EDEC;stroke-linecap:round;stroke-linejoin:round;" d="M300.475,355.39c0,0-0.354,1.913,0.221,2.754c0.576,0.84,4.21,3.96,6.46,3.983"></path><path style="fill:none;stroke:#F0EDEC;stroke-linecap:round;stroke-linejoin:round;" d="M295.803,323.508c0,0,1.236,1.346,1.479,2.099c0.243,0.752,0.047,3.585-0.375,4.163"></path><path style="fill:none;stroke:#F0EDEC;stroke-linecap:round;stroke-linejoin:round;" d="M298.82,329.955c0,0,1.236,1.347,1.479,2.099c0.242,0.753,0.047,3.585-0.375,4.163"></path><path style="fill:none;stroke:#F0EDEC;stroke-linecap:round;stroke-linejoin:round;" d="M297.473,331.358c0,0-0.272,2.163-0.703,3.493"></path><path style="fill:none;stroke:#F0EDEC;stroke-linecap:round;stroke-linejoin:round;" d="M301.093,335.896c0,0,1.236,1.346,1.479,2.099c0.243,0.752,0.048,3.583-0.376,4.163"></path><path style="fill:none;stroke:#F0EDEC;stroke-linecap:round;stroke-linejoin:round;" d="M299.745,337.299c0,0-0.272,2.163-0.703,3.493"></path><path style="fill:none;stroke:#F0EDEC;stroke-linecap:round;stroke-linejoin:round;" d="M303.365,341.836c0,0,1.236,1.346,1.479,2.097c0.242,0.754,0.047,3.586-0.376,4.163"></path><path style="fill:none;stroke:#F0EDEC;stroke-linecap:round;stroke-linejoin:round;" d="M302.018,343.238c0,0-0.272,2.163-0.703,3.493"></path><path style="fill:none;stroke:#F0EDEC;stroke-linecap:round;stroke-linejoin:round;" d="M305.638,347.774c0,0,1.236,1.346,1.479,2.1c0.242,0.751,0.047,3.584-0.376,4.162"></path><path style="fill:none;stroke:#F0EDEC;stroke-linecap:round;stroke-linejoin:round;" d="M304.29,349.178c0,0-0.272,2.164-0.702,3.493"></path><path style="fill:none;stroke:#F0EDEC;stroke-linecap:round;stroke-linejoin:round;" d="M307.91,353.715c0,0,1.236,1.346,1.479,2.099c0.242,0.752,0.047,3.584-0.375,4.163"></path><path style="fill:none;stroke:#F0EDEC;stroke-linecap:round;stroke-linejoin:round;" d="M306.563,355.117c0,0-0.273,2.164-0.703,3.493"></path></g><path style="fill:none;stroke:#F0EDEC;stroke-linecap:round;stroke-linejoin:round;" d="M296.63,321.001c0,0,13.333,27.334,13.833,31.167s-1.666,10.833-1.666,10.833"></path><path style="fill:none;stroke:#F0EDEC;stroke-linecap:round;stroke-linejoin:round;" d="M308.463,362.334c0,0-5.666,3.583-15.75,6"></path><line style="fill:none;stroke:#F0EDEC;stroke-linecap:round;stroke-linejoin:round;" x1="306.547" y1="371.084" x2="304.38" y2="364.751"></line><path style="fill:none;stroke:#F0EDEC;stroke-linecap:round;stroke-linejoin:round;" d="M294.047,368.001c0.083,0.333,2.833,6.083,2.833,6.083"></path></g></g><g><g><path style="fill:#FEFFFD;stroke:#000000;stroke-linecap:round;stroke-linejoin:round;" d="M233.31,327.69c0,0-13.648,31.318-18.826,50.186c-5.178,18.866-6.838,53.905-10.68,58.162c-1.949-0.559-4.447-2.187-4.447-2.187s3.852-7.276,3.437-15.376c-0.249-4.848-4.231-21.958-1.907-36.116c4.431-27.006,21.089-67.038,21.089-67.038L233.31,327.69z"></path><g><path style="fill:none;stroke:#F0EDEC;stroke-linecap:round;stroke-linejoin:round;" d="M221.677,322.333c0,0-2.338,3.81-2.101,6.639c0.175,2.1,1.189,3.385,1.844,4.404c-3.811,2.123-2.726,6.23-2.726,6.23s-4.311,1.794-5.948,6.533c-2.006,5.81,1.57,9.741,1.57,9.741s-2.356,0.065-3.099,2.162c-0.743,2.096,0.817,3.113,0.817,3.113s-4.234,0.354-5.437,7.933c-0.811,5.114,1.906,8.271,1.906,8.271s-2.286,0.913-2.494,2.734c-0.208,1.821,0.945,3.463,0.945,3.463s-3.488,2.622-3.208,7.519c0.278,4.896,1.636,6.226,1.636,6.226s-1.717,1.816-1.613,3.842c0.104,2.024,1.627,3.373,1.627,3.373s-1.852,2.977-1.383,6.217c0.468,3.24,2.082,5.271,2.082,5.271"></path><path style="fill:none;stroke:#F0EDEC;stroke-linecap:round;stroke-linejoin:round;" d="M224.969,322.878c0,0-3.218,4.663,0.652,8.965c3.311,0.379,5.938-3.514,5.938-3.514"></path><path style="fill:none;stroke:#F0EDEC;stroke-linecap:round;stroke-linejoin:round;" d="M223.398,335.146c0,0-1.77,0.803-1.359,4.541c1.713-0.308,2.967-1.003,2.967-1.003L223.398,335.146z"></path><path style="fill:none;stroke:#F0EDEC;stroke-linecap:round;stroke-linejoin:round;" d="M216.021,357.116c0,0-1.77,0.803-1.359,4.541c1.713-0.308,2.967-1.003,2.967-1.003L216.021,357.116z"></path><path style="fill:none;stroke:#F0EDEC;stroke-linecap:round;stroke-linejoin:round;" d="M210.265,378.098c0,0-1.77,0.803-1.358,4.541c1.712-0.308,2.966-1.002,2.966-1.002L210.265,378.098z"></path><path style="fill:none;stroke:#F0EDEC;stroke-linecap:round;stroke-linejoin:round;" d="M208.687,400.951l-1.15-2.532c0,0-1.77,0.804-1.358,4.541c0.83-0.148,1.552-0.389,2.076-0.596C208.812,402.143,208.687,400.951,208.687,400.951z"></path><path style="fill:none;stroke:#F0EDEC;stroke-linecap:round;stroke-linejoin:round;" d="M225.584,343.163c0,0-3.021,0.744-3.868,0.814c0.932,2.12,1.928,4.415,1.928,4.415"></path><path style="fill:none;stroke:#F0EDEC;stroke-linecap:round;stroke-linejoin:round;" d="M218.74,344.477c0,0-2.601,1.224-3.084,3.506c-0.73,3.439,1.508,5.876,1.508,5.876l3.799-2.418L218.74,344.477z"></path><path style="fill:none;stroke:#F0EDEC;stroke-linecap:round;stroke-linejoin:round;" d="M212.971,364.115c0,0-2.613,1.221-3.084,3.505c-0.98,4.753,0.525,6.267,0.525,6.267l4.783-2.808L212.971,364.115z"></path><path style="fill:none;stroke:#F0EDEC;stroke-linecap:round;stroke-linejoin:round;" d="M210.88,389.231l-1.119-3.507c0,0-2.614,1.221-3.084,3.505c-0.98,4.753,0.524,6.267,0.524,6.267l2.988-1.754"></path></g><path style="fill:none;stroke:#000000;stroke-linecap:round;stroke-linejoin:round;" d="M203.266,420.208c0,0,1.816,7.59-1.96,14.203"></path></g><g><path style="fill:#FEFFFD;stroke:#000000;stroke-linecap:round;stroke-linejoin:round;" d="M266.69,327.69c0,0,13.648,31.318,18.826,50.186c5.178,18.866,6.838,53.905,10.68,58.162c1.949-0.559,4.447-2.187,4.447-2.187s-3.852-7.276-3.437-15.376c0.249-4.848,4.231-21.958,1.907-36.116c-4.432-27.006-21.09-67.038-21.09-67.038L266.69,327.69z"></path><g><path style="fill:none;stroke:#F0EDEC;stroke-linecap:round;stroke-linejoin:round;" d="M278.323,322.333c0,0,2.338,3.81,2.102,6.639c-0.176,2.1-1.189,3.385-1.844,4.404c3.811,2.123,2.725,6.23,2.725,6.23s4.312,1.794,5.949,6.533c2.006,5.81-1.57,9.741-1.57,9.741s2.355,0.065,3.099,2.162c0.743,2.096-0.817,3.113-0.817,3.113s4.234,0.354,5.438,7.933c0.811,5.114-1.906,8.271-1.906,8.271s2.285,0.913,2.493,2.734s-0.945,3.463-0.945,3.463s3.487,2.622,3.208,7.519c-0.277,4.896-1.636,6.226-1.636,6.226s1.717,1.816,1.613,3.842c-0.104,2.024-1.628,3.373-1.628,3.373s1.852,2.977,1.383,6.217c-0.467,3.24-2.081,5.271-2.081,5.271"></path><path style="fill:none;stroke:#F0EDEC;stroke-linecap:round;stroke-linejoin:round;" d="M275.031,322.878c0,0,3.218,4.663-0.652,8.965c-3.312,0.379-5.938-3.514-5.938-3.514"></path><path style="fill:none;stroke:#F0EDEC;stroke-linecap:round;stroke-linejoin:round;" d="M276.603,335.146c0,0,1.77,0.803,1.358,4.541c-1.714-0.308-2.968-1.003-2.968-1.003L276.603,335.146z"></path><path style="fill:none;stroke:#F0EDEC;stroke-linecap:round;stroke-linejoin:round;" d="M283.979,357.116c0,0,1.77,0.803,1.359,4.541c-1.713-0.308-2.967-1.003-2.967-1.003L283.979,357.116z"></path><path style="fill:none;stroke:#F0EDEC;stroke-linecap:round;stroke-linejoin:round;" d="M289.735,378.098c0,0,1.771,0.803,1.358,4.541c-1.712-0.308-2.966-1.002-2.966-1.002L289.735,378.098z"></path><path style="fill:none;stroke:#F0EDEC;stroke-linecap:round;stroke-linejoin:round;" d="M291.313,400.951l1.15-2.532c0,0,1.77,0.804,1.357,4.541c-0.83-0.148-1.552-0.389-2.076-0.596C291.188,402.143,291.313,400.951,291.313,400.951z"></path><path style="fill:none;stroke:#F0EDEC;stroke-linecap:round;stroke-linejoin:round;" d="M274.416,343.163c0,0,3.021,0.744,3.868,0.814c-0.933,2.12-1.928,4.415-1.928,4.415"></path><path style="fill:none;stroke:#F0EDEC;stroke-linecap:round;stroke-linejoin:round;" d="M281.261,344.477c0,0,2.601,1.224,3.084,3.506c0.729,3.439-1.508,5.876-1.508,5.876l-3.8-2.418L281.261,344.477z"></path><path style="fill:none;stroke:#F0EDEC;stroke-linecap:round;stroke-linejoin:round;" d="M287.03,364.115c0,0,2.613,1.221,3.084,3.505c0.98,4.753-0.525,6.267-0.525,6.267l-4.782-2.808L287.03,364.115z"></path><path style="fill:none;stroke:#F0EDEC;stroke-linecap:round;stroke-linejoin:round;" d="M289.12,389.231l1.119-3.507c0,0,2.614,1.221,3.085,3.505c0.98,4.753-0.524,6.267-0.524,6.267l-2.988-1.754"></path></g><path style="fill:none;stroke:#000000;stroke-linecap:round;stroke-linejoin:round;" d="M296.735,420.208c0,0-1.816,7.59,1.959,14.203"></path></g></g><g><g><path style="fill:#FEFFFD;stroke:#000000;stroke-linecap:round;stroke-linejoin:round;" d="M221.87,288.333c0.832-0.555,10.333,23,12,40.334c-3.333,0.667-6.667-1.916-8.333-6.25c-3.5,2.668-14.75,0.583-15.75-5.083c-2.833,0.333-6.917,1.665-8.583,2.999C204.87,308.333,215.87,292.333,221.87,288.333z"></path><path style="fill:none;stroke:#F0EDEC;stroke-linecap:round;stroke-linejoin:round;" d="M204.537,317.417c0,0,6.5-14.75,17.5-26.583"></path><path style="fill:none;stroke:#F0EDEC;stroke-linecap:round;stroke-linejoin:round;" d="M209.537,308.834c0,0,0.667,3.834,4.833,3.167c1.333-0.5,4.333-2.5,4.333-2.5s0.333,1.666,1.5,1.333s2.333-0.666,2.333-0.666s0.5,2.833,3.333,3.333s4-1,4-1"></path><g><g><g><path style="fill:none;stroke:#F0EDEC;stroke-linecap:round;stroke-linejoin:round;" d="M217.12,316.584c0,0-0.583-1.916-0.167-2.916s1.583-0.75,1.833,0.25C218.904,314.39,217.12,316.584,217.12,316.584z"></path><path style="fill:none;stroke:#F0EDEC;stroke-linecap:round;stroke-linejoin:round;" d="M217.066,317.451c0,0,0.828,1.823,0.546,2.869c-0.282,1.046-1.471,0.95-1.85-0.008C215.584,319.86,217.066,317.451,217.066,317.451z"></path></g><g><path style="fill:none;stroke:#F0EDEC;stroke-linecap:round;stroke-linejoin:round;" d="M216.804,317.2c0,0-1.916,0.583-2.916,0.167c-1-0.417-0.75-1.583,0.25-1.833C214.61,315.416,216.804,317.2,216.804,317.2z"></path><path style="fill:none;stroke:#F0EDEC;stroke-linecap:round;stroke-linejoin:round;" d="M217.671,317.254c0,0,1.823-0.828,2.869-0.547c1.046,0.282,0.95,1.472-0.008,1.85C220.081,318.735,217.671,317.254,217.671,317.254z"></path></g></g><path style="fill:none;stroke:#F0EDEC;stroke-linecap:round;stroke-linejoin:round;" d="M215.036,315.334c0,0,0.917-1.166,1.5-1.333"></path><path style="fill:none;stroke:#F0EDEC;stroke-linecap:round;stroke-linejoin:round;" d="M219.203,314.751c0,0,0.833,1.001,1,1.417"></path><path style="fill:none;stroke:#F0EDEC;stroke-linecap:round;stroke-linejoin:round;" d="M219.453,318.834c0,0-1.25,1.166-1.583,1.25"></path><path style="fill:none;stroke:#F0EDEC;stroke-linecap:round;stroke-linejoin:round;" d="M214.203,317.751c0,0,0.833,1.75,1.333,2.25"></path></g><g><g><g><path style="fill:none;stroke:#F0EDEC;stroke-linecap:round;stroke-linejoin:round;" d="M231.877,321.527c0,0-1.354,2.484-1.151,2.926c0,0,0.348,1.422,1.759,1.265"></path></g><g><path style="fill:none;stroke:#F0EDEC;stroke-linecap:round;stroke-linejoin:round;" d="M231.603,321.291c0,0-1.883,0.683-2.903,0.319s-0.832-1.541,0.153-1.843C229.317,319.624,231.603,321.291,231.603,321.291z"></path></g></g><path style="fill:none;stroke:#F0EDEC;stroke-linecap:round;stroke-linejoin:round;" d="M229.739,319.521c0,0,0.854-1.213,1.428-1.41"></path><path style="fill:none;stroke:#F0EDEC;stroke-linecap:round;stroke-linejoin:round;" d="M229.034,321.978c0,0,0.924,1.704,1.449,2.177"></path></g></g><g><path style="fill:#FEFFFD;stroke:#000000;stroke-linecap:round;stroke-linejoin:round;" d="M278.13,288.333c-0.832-0.555-10.333,23-12,40.334c3.333,0.667,6.667-1.916,8.333-6.25c3.501,2.668,14.75,0.583,15.75-5.083c2.834,0.333,6.917,1.665,8.584,2.999C295.13,308.333,284.13,292.333,278.13,288.333z"></path><path style="fill:none;stroke:#F0EDEC;stroke-linecap:round;stroke-linejoin:round;" d="M295.463,317.417c0,0-6.5-14.75-17.5-26.583"></path><path style="fill:none;stroke:#F0EDEC;stroke-linecap:round;stroke-linejoin:round;" d="M290.463,308.834c0,0-0.666,3.834-4.833,3.167c-1.333-0.5-4.333-2.5-4.333-2.5s-0.333,1.666-1.5,1.333s-2.334-0.666-2.334-0.666s-0.5,2.833-3.333,3.333s-4-1-4-1"></path><g><g><g><path style="fill:none;stroke:#F0EDEC;stroke-linecap:round;stroke-linejoin:round;" d="M282.881,316.584c0,0,0.582-1.916,0.166-2.916s-1.583-0.75-1.833,0.25C281.096,314.39,282.881,316.584,282.881,316.584z"></path><path style="fill:none;stroke:#F0EDEC;stroke-linecap:round;stroke-linejoin:round;" d="M282.934,317.451c0,0-0.828,1.823-0.547,2.869c0.283,1.046,1.472,0.95,1.85-0.008C284.416,319.86,282.934,317.451,282.934,317.451z"></path></g><g><path style="fill:none;stroke:#F0EDEC;stroke-linecap:round;stroke-linejoin:round;" d="M283.195,317.2c0,0,1.916,0.583,2.916,0.167c1-0.417,0.75-1.583-0.25-1.833C285.391,315.416,283.195,317.2,283.195,317.2z"></path><path style="fill:none;stroke:#F0EDEC;stroke-linecap:round;stroke-linejoin:round;" d="M282.328,317.254c0,0-1.822-0.828-2.869-0.547c-1.045,0.282-0.949,1.472,0.008,1.85C279.92,318.735,282.328,317.254,282.328,317.254z"></path></g></g><path style="fill:none;stroke:#F0EDEC;stroke-linecap:round;stroke-linejoin:round;" d="M284.964,315.334c0,0-0.917-1.166-1.5-1.333"></path><path style="fill:none;stroke:#F0EDEC;stroke-linecap:round;stroke-linejoin:round;" d="M280.797,314.751c0,0-0.834,1.001-1,1.417"></path><path style="fill:none;stroke:#F0EDEC;stroke-linecap:round;stroke-linejoin:round;" d="M280.547,318.834c0,0,1.25,1.166,1.584,1.25"></path><path style="fill:none;stroke:#F0EDEC;stroke-linecap:round;stroke-linejoin:round;" d="M285.797,317.751c0,0-0.833,1.75-1.333,2.25"></path></g><g><g><g><path style="fill:none;stroke:#F0EDEC;stroke-linecap:round;stroke-linejoin:round;" d="M268.123,321.527c0,0,1.354,2.484,1.15,2.926c0,0-0.348,1.422-1.758,1.265"></path></g><g><path style="fill:none;stroke:#F0EDEC;stroke-linecap:round;stroke-linejoin:round;" d="M268.397,321.291c0,0,1.883,0.683,2.903,0.319s0.832-1.541-0.153-1.843C270.683,319.624,268.397,321.291,268.397,321.291z"></path></g></g><path style="fill:none;stroke:#F0EDEC;stroke-linecap:round;stroke-linejoin:round;" d="M270.262,319.521c0,0-0.854-1.213-1.428-1.41"></path><path style="fill:none;stroke:#F0EDEC;stroke-linecap:round;stroke-linejoin:round;" d="M270.967,321.978c0,0-0.924,1.704-1.449,2.177"></path></g></g></g></g></g></svg>