<svg xmlns="http://www.w3.org/2000/svg" width="500" height="500" version="1.1"><g id="x9140"><g><g><g><g><path style="fill:#6E6E6E;stroke:#000000;stroke-linecap:round;stroke-linejoin:round;" d="M217.726,288.834c0,0-4.833,15-6.167,21.666c-1.333,1.667-2.5,4.5-2.5,4.5s-0.333,4.667-0.667,5.667c-1.333,2-14.333,31-14.333,31s6,9.333,19,10.333c6.333-23.666,13.667-59.666,13.667-59.666L217.726,288.834z"></path><path style="fill:#505050;" d="M219.809,297.5c0,0-2.417,14.417,1.75,19.5c2-8.5,2.833-10.417,2.833-10.417L219.809,297.5z"></path><path style="fill:#505050;" d="M209.559,315.083c0.083,0.25-0.583,5.166-0.5,5.5c1.167,1.167,6.083,1.5,6.083,1.5C213.476,319.667,209.559,315.083,209.559,315.083z"></path></g><g><path style="fill:#FAF9F9;stroke:#000000;stroke-linecap:round;stroke-linejoin:round;" d="M193.893,345.166c1.167,2,6,5.334,8.833,6.167c2.833-1.333,3-6,3-6c-0.833-0.333-9-6-9-6S193.354,344.244,193.893,345.166z"></path><path style="fill:#484F5A;stroke:#000000;stroke-linecap:round;stroke-linejoin:round;" d="M194.606,343.011c0.09,0.12,3.886,3.123,6.148,4.042c0.21-0.721,0.442-1.068,0.341-1.396c-1.428-0.923-5.691-4.067-5.691-4.067L194.606,343.011z"></path><g><circle style="fill:#F5E8BF;stroke:#000000;stroke-linecap:round;stroke-linejoin:round;" cx="202.413" cy="347.035" r="2.333"></circle><g><polygon style="fill:none;stroke:#000000;stroke-width:0.5;stroke-linecap:round;stroke-linejoin:round;" points="200.736,348.046 202.412,345.417 204.09,348.046 "></polygon><polygon style="fill:none;stroke:#000000;stroke-width:0.5;stroke-linecap:round;stroke-linejoin:round;" points="204.09,346.024 202.413,348.653 200.736,346.024 "></polygon></g></g></g></g><g><g><path style="fill:#6E6E6E;stroke:#000000;stroke-linecap:round;stroke-linejoin:round;" d="M282.274,288.834c0,0,4.833,15,6.166,21.666c1.334,1.667,2.5,4.5,2.5,4.5s0.334,4.667,0.667,5.667c1.333,2,14.333,31,14.333,31s-6,9.333-19,10.333c-6.333-23.666-13.666-59.666-13.666-59.666L282.274,288.834z"></path><path style="fill:#505050;" d="M280.19,297.5c0,0,2.417,14.417-1.75,19.5c-2-8.5-2.833-10.417-2.833-10.417L280.19,297.5z"></path><path style="fill:#505050;" d="M290.44,315.083c-0.083,0.25,0.584,5.166,0.5,5.5c-1.166,1.167-6.083,1.5-6.083,1.5C286.524,319.667,290.44,315.083,290.44,315.083z"></path></g><g><path style="fill:#FAF9F9;stroke:#000000;stroke-linecap:round;stroke-linejoin:round;" d="M306.107,345.166c-1.167,2-6,5.334-8.833,6.167c-2.834-1.333-3-6-3-6c0.833-0.333,9-6,9-6S306.646,344.244,306.107,345.166z"></path><path style="fill:#484F5A;stroke:#000000;stroke-linecap:round;stroke-linejoin:round;" d="M305.394,343.011c-0.09,0.12-3.887,3.123-6.148,4.042c-0.211-0.721-0.442-1.068-0.341-1.396c1.429-0.923,5.691-4.067,5.691-4.067L305.394,343.011z"></path><g><circle style="fill:#F5E8BF;stroke:#000000;stroke-linecap:round;stroke-linejoin:round;" cx="297.587" cy="347.035" r="2.333"></circle><g><polygon style="fill:none;stroke:#000000;stroke-width:0.5;stroke-linecap:round;stroke-linejoin:round;" points="299.264,348.046 297.588,345.417 295.91,348.046 "></polygon><polygon style="fill:none;stroke:#000000;stroke-width:0.5;stroke-linecap:round;stroke-linejoin:round;" points="295.91,346.024 297.587,348.653 299.264,346.024 "></polygon></g></g></g></g></g><g><g><g><path style="fill:#FAF9F9;stroke:#000000;stroke-linecap:round;stroke-linejoin:round;" d="M230.494,311l-6.268-25.333c0,0-3.667,1.167-6.667,3.333c0.5,4.666,5.132,17.582,5.132,17.582c-8.493,36.661-12.602,61.864-17.299,89.418c0.768,1.333,4.333,4.667,15.667,4.334C220.392,374.667,230.494,311,230.494,311z"></path><g id="outerXMLID_7_"><g><path style="fill:#484F5A;" d="M240.056,279.17l0.11,1.57c0,0-9.11,20.93-10.77,37.59c-0.67-6.66-3.14-9.94-5-14.16c-2.43-5.51-4.53-13.06-4.34-16.84c3.67-1.33,17.34-8.66,17.34-8.66L240.056,279.17z"></path></g><g><path style="fill:#FAF9F9;" d="M233.559,299.333c0,0-1.042-0.75-0.625-2s1.208-1.25,1.208-1.25L233.559,299.333z"></path><path style="fill:#6E6E6E;" d="M232.143,302.583c0,0-2.872-2.124-1.625-6c1.167-3.625,4.333-3.5,4.333-3.5l-0.333,1.25c0,0-2.125,0.334-2.792,2.792c-0.704,2.596,0.875,4,0.875,4L232.143,302.583z"></path><path style="fill:#FAF9F9;" d="M235.916,289.6c-0.032-0.01-1.741-0.517-3.682,0.115l-1.608-2.475c-0.313-0.481-0.957-0.618-1.438-0.306c-0.481,0.313-0.618,0.957-0.305,1.438l1.512,2.325c-1.022,0.793-1.981,2.043-2.675,3.994l-2.482-0.902c-0.54-0.196-1.136,0.082-1.332,0.621c-0.196,0.54,0.082,1.136,0.622,1.332l2.667,0.969c-0.497,2.896,0.279,5.133,1.238,6.676l-1.64,1.642c-0.405,0.406-0.405,1.064,0,1.47c0.407,0.405,1.064,0.405,1.47,0l1.453-1.455c0.547,0.566,0.967,0.87,0.982,0.88c0.474,0.324,1.121,0.203,1.445-0.27c0.325-0.473,0.204-1.12-0.27-1.445c-0.195-0.137-4.573-3.179-2.249-8.69c1.976-4.686,5.501-3.988,5.661-3.938c0.547,0.173,1.131-0.128,1.305-0.675C236.765,290.358,236.462,289.774,235.916,289.6z"></path></g><g><path style="fill:none;stroke:#000000;stroke-linecap:round;stroke-linejoin:round;" d="M240.166,280.74c0,0-9.11,20.93-10.77,37.59c-0.67-6.66-3.14-9.94-5-14.16c-2.43-5.51-4.53-13.06-4.34-16.84c3.67-1.33,17.34-8.66,17.34-8.66l2.66,0.5L240.166,280.74z"></path></g></g></g><g><path style="fill:#FAF9F9;stroke:#000000;stroke-linecap:round;stroke-linejoin:round;" d="M269.507,311l6.268-25.333c0,0,3.666,1.167,6.666,3.333c-0.5,4.666-5.132,17.582-5.132,17.582c8.493,36.661,12.603,61.864,17.299,89.418c-0.768,1.333-4.333,4.667-15.667,4.334C279.608,374.667,269.507,311,269.507,311z"></path><g id="outerXMLID_12_"><g><path style="fill:#484F5A;" d="M259.944,279.17l-0.109,1.57c0,0,9.109,20.93,10.77,37.59c0.67-6.66,3.141-9.94,5-14.16c2.43-5.51,4.529-13.06,4.34-16.84c-3.67-1.33-17.34-8.66-17.34-8.66L259.944,279.17z"></path></g><g><path style="fill:#FAF9F9;" d="M266.44,299.333c0,0,1.042-0.75,0.625-2c-0.416-1.25-1.207-1.25-1.207-1.25L266.44,299.333z"></path><path style="fill:#6E6E6E;" d="M267.857,302.583c0,0,2.872-2.124,1.625-6c-1.167-3.625-4.333-3.5-4.333-3.5l0.333,1.25c0,0,2.125,0.334,2.792,2.792c0.704,2.596-0.875,4-0.875,4L267.857,302.583z"></path><path style="fill:#FAF9F9;" d="M264.085,289.6c0.031-0.01,1.74-0.517,3.682,0.115l1.607-2.475c0.313-0.481,0.957-0.618,1.438-0.306c0.481,0.313,0.618,0.957,0.305,1.438l-1.512,2.325c1.022,0.793,1.981,2.043,2.675,3.994l2.482-0.902c0.539-0.196,1.136,0.082,1.332,0.621c0.195,0.54-0.082,1.136-0.621,1.332l-2.668,0.969c0.498,2.896-0.279,5.133-1.238,6.676l1.641,1.642c0.405,0.406,0.405,1.064,0,1.47c-0.407,0.405-1.064,0.405-1.471,0l-1.453-1.455c-0.547,0.566-0.967,0.87-0.982,0.88c-0.473,0.324-1.12,0.203-1.444-0.27c-0.325-0.473-0.204-1.12,0.27-1.445c0.195-0.137,4.573-3.179,2.249-8.69c-1.977-4.686-5.502-3.988-5.661-3.938c-0.547,0.173-1.132-0.128-1.306-0.675C263.235,290.358,263.538,289.774,264.085,289.6z"></path></g><g><path style="fill:none;stroke:#000000;stroke-linecap:round;stroke-linejoin:round;" d="M259.835,280.74c0,0,9.109,20.93,10.77,37.59c0.67-6.66,3.141-9.94,5-14.16c2.43-5.51,4.529-13.06,4.34-16.84c-3.67-1.33-17.34-8.66-17.34-8.66l-2.66,0.5L259.835,280.74z"></path></g></g></g></g><g><g><path style="fill:#484F5A;stroke:#000000;stroke-linecap:round;stroke-linejoin:round;" d="M223.969,323.281c-0.094,0-2.281-0.469-2.313-0.656s0.094-0.844,0.281-0.906s2.188,0.156,2.188,0.156L223.969,323.281z"></path><g><circle style="fill:#F5E8BF;stroke:#000000;stroke-linecap:round;stroke-linejoin:round;" cx="225.562" cy="322.41" r="2.333"></circle><g><polygon style="fill:none;stroke:#000000;stroke-width:0.5;stroke-linecap:round;stroke-linejoin:round;" points="223.886,323.421 225.562,320.792 227.239,323.421 "></polygon><polygon style="fill:none;stroke:#000000;stroke-width:0.5;stroke-linecap:round;stroke-linejoin:round;" points="227.239,321.399 225.563,324.028 223.886,321.399 "></polygon></g></g></g><g><path style="fill:#484F5A;stroke:#000000;stroke-linecap:round;stroke-linejoin:round;" d="M220.281,345.531c-0.094,0-2.281-0.469-2.313-0.656s0.094-0.844,0.281-0.906s2.188,0.156,2.188,0.156L220.281,345.531z"></path><g><circle style="fill:#F5E8BF;stroke:#000000;stroke-linecap:round;stroke-linejoin:round;" cx="222.125" cy="345.098" r="2.333"></circle><g><polygon style="fill:none;stroke:#000000;stroke-width:0.5;stroke-linecap:round;stroke-linejoin:round;" points="220.448,346.108 222.124,343.479 223.802,346.108 "></polygon><polygon style="fill:none;stroke:#000000;stroke-width:0.5;stroke-linecap:round;stroke-linejoin:round;" points="223.802,344.087 222.125,346.716 220.448,344.087 "></polygon></g></g></g><g><path style="fill:#484F5A;stroke:#000000;stroke-linecap:round;stroke-linejoin:round;" d="M217.563,368.594c-0.094,0-2.281-0.469-2.313-0.656s0.094-0.844,0.281-0.906s2.188,0.156,2.188,0.156L217.563,368.594z"></path><g><circle style="fill:#F5E8BF;stroke:#000000;stroke-linecap:round;stroke-linejoin:round;" cx="219.562" cy="368.16" r="2.333"></circle><g><polygon style="fill:none;stroke:#000000;stroke-width:0.5;stroke-linecap:round;stroke-linejoin:round;" points="217.886,369.171 219.562,366.542 221.239,369.171 "></polygon><polygon style="fill:none;stroke:#000000;stroke-width:0.5;stroke-linecap:round;stroke-linejoin:round;" points="221.239,367.149 219.563,369.778 217.886,367.149 "></polygon></g></g></g></g></g></g></g></svg>