<svg xmlns="http://www.w3.org/2000/svg" width="500" height="500" version="1.1"><g id="x9142"><g><g><g><path style="fill:#6E6E6E;stroke:#000000;stroke-linecap:round;stroke-linejoin:round;" d="M234.625,319c-0.5-3-1.5-14-1.25-21.5s3.5-16,3.5-16s-5.667,1.333-10.167,4.166c-4.854,3.056-8.833,7.834-8.833,7.834s-10,24.75-12.25,29.25s-7,13-8,20.75c-1.667,4.084-3.917,8.167-4.333,10.917c5.5,7.5,16.583,7.5,16.583,7.5s2-4.75,3.333-8.333c0.367-0.734,0.532-2.926,2.684-6.518c-2.931,10.573-9.265,17.974-8.267,19.684c1.75,3,3.75,8.5,3.75,8.5s-0.25,3,0.75,7.25c0.5,1,6.25,1,8.5,0c0.25-1-0.75-4,0-8.25C220.875,371.75,235.125,322,234.625,319z"></path></g><path style="fill:#505050;" d="M209.625,369.375c0,0.5,2.375,5.25,2.5,6c-0.125,1,0,3.875,0,3.875s3.375-1.75,3.625-3.625S209.625,369.375,209.625,369.375z"></path><polygon style="fill:#505050;" points="195.141,355.813 198.875,347.001 199.563,347.578 195.959,356.584 "></polygon><polygon style="fill:#505050;" points="197.891,357.969 201.709,348.917 202.459,349.417 198.792,358.5 "></polygon><polygon style="fill:#505050;" points="201.74,359.823 205.406,351.073 206.156,351.573 202.704,360.172 "></polygon><polygon style="fill:#505050;" points="205.922,360.984 209.454,352.672 210.239,352.938 206.907,361.141 "></polygon><path style="fill:#505050;" d="M223.125,304.25c0,0-4,6.75-4.5,9.75s2.25,11,3.75,12.5C223.625,319.5,223.125,304.25,223.125,304.25z"></path><path style="fill:none;stroke:#000000;stroke-linecap:round;stroke-linejoin:round;" d="M207.625,366.75c-1-1.713,5.344-9.148,8.283-19.741c2.208-7.958,4.751-16.005,6.467-20.509c2-13.25,1.25-25.5,1.25-25.5"></path><path style="fill:none;stroke:#000000;stroke-linecap:round;stroke-linejoin:round;" d="M216.375,297.166c0,0,5.833,8,7,15.5"></path></g><g><g><path style="fill:#6E6E6E;stroke:#000000;stroke-linecap:round;stroke-linejoin:round;" d="M265.375,319c0.5-3,1.5-14,1.25-21.5s-3.5-16-3.5-16s5.666,1.333,10.166,4.166c4.854,3.056,8.834,7.834,8.834,7.834s10,24.75,12.25,29.25s7,13,8,20.75c1.666,4.084,3.916,8.167,4.332,10.917c-5.5,7.5-16.582,7.5-16.582,7.5s-2-4.75-3.334-8.333c-0.367-0.734-0.533-2.926-2.684-6.518c2.932,10.573,9.264,17.974,8.268,19.684c-1.75,3-3.75,8.5-3.75,8.5s0.25,3-0.75,7.25c-0.5,1-6.25,1-8.5,0c-0.25-1,0.75-4,0-8.25C279.125,371.75,264.875,322,265.375,319z"></path></g><path style="fill:#505050;" d="M290.375,369.375c0,0.5-2.375,5.25-2.5,6c0.125,1,0,3.875,0,3.875s-3.375-1.75-3.625-3.625S290.375,369.375,290.375,369.375z"></path><polygon style="fill:#505050;" points="304.859,355.813 301.125,347.001 300.438,347.578 304.041,356.584 "></polygon><polygon style="fill:#505050;" points="302.109,357.969 298.291,348.917 297.541,349.417 301.207,358.5 "></polygon><polygon style="fill:#505050;" points="298.26,359.823 294.594,351.073 293.844,351.573 297.297,360.172 "></polygon><polygon style="fill:#505050;" points="294.078,360.984 290.547,352.672 289.76,352.938 293.094,361.141 "></polygon><path style="fill:#505050;" d="M276.875,304.25c0,0,4,6.75,4.5,9.75s-2.25,11-3.75,12.5C276.375,319.5,276.875,304.25,276.875,304.25z"></path><path style="fill:none;stroke:#000000;stroke-linecap:round;stroke-linejoin:round;" d="M292.375,366.75c0.998-1.713-5.344-9.148-8.283-19.741c-2.207-7.958-4.752-16.005-6.467-20.509c-2-13.25-1.25-25.5-1.25-25.5"></path><path style="fill:none;stroke:#000000;stroke-linecap:round;stroke-linejoin:round;" d="M283.625,297.166c0,0-5.834,8-7,15.5"></path></g></g></g></svg>