<svg xmlns="http://www.w3.org/2000/svg" width="500" height="500" version="1.1"><g id="x9145"><g><g><g><g><path style="fill:#5D5D61;stroke:#000000;stroke-linecap:round;stroke-linejoin:round;" d="M284.854,298.5c0,0,18.5,44,20,49c-0.25,3.25-19.75,11.75-19.75,11s-13-43-13-43L284.854,298.5z"></path><path style="fill:#3F3F42;" d="M286.187,326.334c0,0,1.666,4.667,2.5,5.167s6.167-8.167,6.167-8.167l9.5,24.167c0,0-3.667,4.666-16,9.333c-5.5-14.333-6-25.667-6-25.667L286.187,326.334z"></path><path style="fill:#3F3F42;" d="M281.854,310.834c0.333,1.333,3.5,12.5,3.5,12.5l-3.667,4.833l-4.5-12.333L281.854,310.834z"></path><path style="fill:#3F3F42;" d="M289.322,310.406c0,0-4.344,9.156-9.844,11.656c5.75-6.25,9.25-13,9.25-13L289.322,310.406z"></path><path style="fill:#3F3F42;" d="M292.135,317.188c0,0-4.531,9.313-10.031,11.813c5.75-6.25,9.375-13.5,9.375-13.5L292.135,317.188z"></path><g><path style="fill:none;stroke:#000000;stroke-linecap:round;stroke-linejoin:round;" d="M288.604,308.803c0,0-5,10.5-11.5,17"></path><path style="fill:none;stroke:#000000;stroke-linecap:round;stroke-linejoin:round;" d="M291.354,315.303c0,0-5,10.5-11.5,17"></path><path style="fill:none;stroke:#000000;stroke-linecap:round;stroke-linejoin:round;" d="M294.104,321.803c0,0-5,10.5-11.5,17"></path></g></g><g><g><ellipse style="fill:#FFFFFF;stroke:#000000;stroke-linecap:round;stroke-linejoin:round;" cx="286.484" cy="306.124" rx="1.047" ry="1.207"></ellipse><ellipse transform="matrix(0.1502 -0.9887 0.9887 0.1502 -61.3328 548.3921)" style="fill:#FFFFFF;stroke:#000000;stroke-linecap:round;stroke-linejoin:round;" cx="288.344" cy="309.875" rx="1.047" ry="1.207"></ellipse><path style="fill:#FFFFFF;stroke:#000000;stroke-linecap:round;stroke-linejoin:round;" d="M286.63,305.296c0,0-0.611,0.697,0,1.569c1.046,0.088,2.268,0.437,2.268,0.437s0.291-0.29,0.407-0.813c0.117-0.523-0.232-0.757-0.232-0.757S287.152,305.296,286.63,305.296z"></path><path style="fill:#FFFFFF;stroke:#000000;stroke-linecap:round;stroke-linejoin:round;" d="M287.665,309.469c0,0,0.639,0.672,1.563,0.143c0.183-1.034,0.641-2.219,0.641-2.219s-0.069-0.265-0.68-0.469c-0.61-0.203-0.868,0.152-0.868,0.152S287.712,308.948,287.665,309.469z"></path></g><g><ellipse style="fill:#FFFFFF;stroke:#000000;stroke-linecap:round;stroke-linejoin:round;" cx="289.317" cy="311.374" rx="1.047" ry="1.207"></ellipse><ellipse transform="matrix(0.1502 -0.9887 0.9887 0.1502 -64.1158 555.6542)" style="fill:#FFFFFF;stroke:#000000;stroke-linecap:round;stroke-linejoin:round;" cx="291.177" cy="315.125" rx="1.047" ry="1.207"></ellipse><path style="fill:#FFFFFF;stroke:#000000;stroke-linecap:round;stroke-linejoin:round;" d="M289.463,310.546c0,0-0.611,0.697,0,1.569c1.046,0.088,2.268,0.437,2.268,0.437s0.291-0.29,0.407-0.813c0.117-0.523-0.232-0.757-0.232-0.757S289.985,310.546,289.463,310.546z"></path><path style="fill:#FFFFFF;stroke:#000000;stroke-linecap:round;stroke-linejoin:round;" d="M290.498,314.719c0,0,0.639,0.672,1.563,0.143c0.183-1.034,0.641-2.219,0.641-2.219s-0.069-0.265-0.68-0.469c-0.61-0.203-0.868,0.152-0.868,0.152S290.545,314.198,290.498,314.719z"></path></g><g><ellipse style="fill:#FFFFFF;stroke:#000000;stroke-linecap:round;stroke-linejoin:round;" cx="292.15" cy="316.624" rx="1.047" ry="1.207"></ellipse><ellipse transform="matrix(0.1502 -0.9887 0.9887 0.1502 -66.8988 562.9164)" style="fill:#FFFFFF;stroke:#000000;stroke-linecap:round;stroke-linejoin:round;" cx="294.01" cy="320.375" rx="1.047" ry="1.207"></ellipse><path style="fill:#FFFFFF;stroke:#000000;stroke-linecap:round;stroke-linejoin:round;" d="M292.296,315.796c0,0-0.611,0.697,0,1.569c1.046,0.088,2.268,0.437,2.268,0.437s0.291-0.29,0.407-0.813c0.117-0.523-0.232-0.757-0.232-0.757S292.818,315.796,292.296,315.796z"></path><path style="fill:#FFFFFF;stroke:#000000;stroke-linecap:round;stroke-linejoin:round;" d="M293.331,319.969c0,0,0.639,0.672,1.563,0.143c0.183-1.034,0.641-2.219,0.641-2.219s-0.069-0.265-0.68-0.469c-0.61-0.203-0.868,0.152-0.868,0.152S293.378,319.448,293.331,319.969z"></path></g></g></g><g><g><path style="fill:#5D5D61;stroke:#000000;stroke-linecap:round;stroke-linejoin:round;" d="M215.146,298.5c0,0-18.5,44-20,49c0.25,3.25,19.75,11.75,19.75,11s13-43,13-43L215.146,298.5z"></path><path style="fill:#3F3F42;" d="M213.813,326.334c0,0-1.666,4.667-2.5,5.167s-6.167-8.167-6.167-8.167l-9.5,24.167c0,0,3.667,4.666,16,9.333c5.5-14.333,6-25.667,6-25.667L213.813,326.334z"></path><path style="fill:#3F3F42;" d="M218.833,308.833c-0.333,1.333-4.187,14.501-4.187,14.501l3.667,4.833l4.5-12.333L218.833,308.833z"></path><path style="fill:#3F3F42;" d="M210.678,310.406c0,0,4.344,9.156,9.844,11.656c-5.75-6.25-9.25-13-9.25-13L210.678,310.406z"></path><path style="fill:#3F3F42;" d="M207.865,317.188c0,0,4.531,9.313,10.031,11.813c-5.75-6.25-9.375-13.5-9.375-13.5L207.865,317.188z"></path><g><path style="fill:none;stroke:#000000;stroke-linecap:round;stroke-linejoin:round;" d="M211.396,308.803c0,0,5,10.5,11.5,17"></path><path style="fill:none;stroke:#000000;stroke-linecap:round;stroke-linejoin:round;" d="M208.646,315.303c0,0,5,10.5,11.5,17"></path><path style="fill:none;stroke:#000000;stroke-linecap:round;stroke-linejoin:round;" d="M205.896,321.803c0,0,5,10.5,11.5,17"></path></g></g><g><g><ellipse style="fill:#FFFFFF;stroke:#000000;stroke-linecap:round;stroke-linejoin:round;" cx="213.516" cy="306.124" rx="1.047" ry="1.207"></ellipse><ellipse transform="matrix(-0.1502 -0.9887 0.9887 -0.1502 -62.9034 565.6822)" style="fill:#FFFFFF;stroke:#000000;stroke-linecap:round;stroke-linejoin:round;" cx="211.656" cy="309.875" rx="1.047" ry="1.207"></ellipse><path style="fill:#FFFFFF;stroke:#000000;stroke-linecap:round;stroke-linejoin:round;" d="M213.37,305.296c0,0,0.611,0.697,0,1.569c-1.046,0.088-2.268,0.437-2.268,0.437s-0.291-0.29-0.407-0.813c-0.117-0.523,0.232-0.757,0.232-0.757S212.848,305.296,213.37,305.296z"></path><path style="fill:#FFFFFF;stroke:#000000;stroke-linecap:round;stroke-linejoin:round;" d="M212.335,309.469c0,0-0.639,0.672-1.563,0.143c-0.183-1.034-0.641-2.219-0.641-2.219s0.069-0.265,0.68-0.469c0.61-0.203,0.868,0.152,0.868,0.152S212.288,308.948,212.335,309.469z"></path></g><g><ellipse style="fill:#FFFFFF;stroke:#000000;stroke-linecap:round;stroke-linejoin:round;" cx="210.683" cy="311.374" rx="1.047" ry="1.207"></ellipse><ellipse transform="matrix(-0.1502 -0.9887 0.9887 -0.1502 -71.3524 568.9201)" style="fill:#FFFFFF;stroke:#000000;stroke-linecap:round;stroke-linejoin:round;" cx="208.823" cy="315.125" rx="1.047" ry="1.207"></ellipse><path style="fill:#FFFFFF;stroke:#000000;stroke-linecap:round;stroke-linejoin:round;" d="M210.537,310.546c0,0,0.611,0.697,0,1.569c-1.046,0.088-2.268,0.437-2.268,0.437s-0.291-0.29-0.407-0.813c-0.117-0.523,0.232-0.757,0.232-0.757S210.015,310.546,210.537,310.546z"></path><path style="fill:#FFFFFF;stroke:#000000;stroke-linecap:round;stroke-linejoin:round;" d="M209.502,314.719c0,0-0.639,0.672-1.563,0.143c-0.183-1.034-0.641-2.219-0.641-2.219s0.069-0.265,0.68-0.469c0.61-0.203,0.868,0.152,0.868,0.152S209.455,314.198,209.502,314.719z"></path></g><g><ellipse style="fill:#FFFFFF;stroke:#000000;stroke-linecap:round;stroke-linejoin:round;" cx="207.85" cy="316.624" rx="1.047" ry="1.207"></ellipse><ellipse transform="matrix(-0.1502 -0.9887 0.9887 -0.1502 -79.8015 572.158)" style="fill:#FFFFFF;stroke:#000000;stroke-linecap:round;stroke-linejoin:round;" cx="205.99" cy="320.375" rx="1.047" ry="1.207"></ellipse><path style="fill:#FFFFFF;stroke:#000000;stroke-linecap:round;stroke-linejoin:round;" d="M207.704,315.796c0,0,0.611,0.697,0,1.569c-1.046,0.088-2.268,0.437-2.268,0.437s-0.291-0.29-0.407-0.813c-0.117-0.523,0.232-0.757,0.232-0.757S207.182,315.796,207.704,315.796z"></path><path style="fill:#FFFFFF;stroke:#000000;stroke-linecap:round;stroke-linejoin:round;" d="M206.669,319.969c0,0-0.639,0.672-1.563,0.143c-0.183-1.034-0.641-2.219-0.641-2.219s0.069-0.265,0.68-0.469c0.61-0.203,0.868,0.152,0.868,0.152S206.622,319.448,206.669,319.969z"></path></g></g></g></g><g><g><g><path style="fill:#5D5D61;stroke:#000000;stroke-linecap:round;stroke-linejoin:round;" d="M236.426,369c0,0,0.333,10.001-0.333,11.334c-9.5-1.334-26,1.166-31.5,5.166c1.917-24.334,17.5-74,17.5-74l17,25.834L236.426,369z"></path><path style="fill:#3F3F42;" d="M227.593,325.75c0,0-4.75,31.25-3.5,39.5c2.25-15.25,4.75-36.75,4.75-36.75L227.593,325.75z"></path><path style="fill:#3F3F42;" d="M238.01,336.333c0,0-14.75-12-15.5-14.75s0-9,0-9l17,25.75"></path><line style="fill:none;stroke:#FFFFFF;stroke-linecap:round;stroke-linejoin:round;stroke-dasharray:1 2;" x1="226.593" y1="358" x2="224.093" y2="377"></line><path style="fill:none;stroke:#000000;stroke-linecap:round;stroke-linejoin:round;" d="M229.093,326.75c0,0-6,32-7.25,53.25"></path><path style="fill:#505050;stroke:#000000;stroke-linecap:round;stroke-linejoin:round;" d="M238.78,368c0,0-1.833,9-1.937,12.348c-2.5-0.25-3-0.5-3-0.5l3.104-16.015L238.78,368z"></path><g><path style="fill:#5D5D61;stroke:#000000;stroke-linecap:round;stroke-linejoin:round;" d="M223.093,353.75c0,0,0.25,3,0,6c-0.75,2.5-16.5,13.25-16.5,13.25s-0.25-2.75,0.5-6.75C211.343,360.75,223.093,353.75,223.093,353.75z"></path><path style="fill:#3F3F42;" d="M222.26,359.834c0.5-0.833,0.833-2.5,0.333-4.833c-3.333,2-13.166,9.166-13.333,9.666s-1.167,5-0.667,6C212.926,368.334,221.76,360.667,222.26,359.834z"></path></g></g><g><g><g><g id="outerXMLID_13_"><g><path style="fill:#6E6E6E;" d="M212.563,296.887c-0.96,4.353,24.688,38.212,26.711,40.7c2.256-8.08-10.587-52.295-10.587-52.295l3.422-2.077c0,0-4.347-1.864-5.684-1.548C225.096,281.975,213.523,292.534,212.563,296.887z"></path></g><path style="fill:#505050;" d="M238.209,335.448c0,0-13.795-18.64-16.205-22.484c5.401,2.796,10.991-1.049,11.688-6.757c1.652,2.912,5.481,25.302,5.384,28.378C238.087,335.798,238.209,335.448,238.209,335.448z"></path><path style="fill:none;stroke:#000000;stroke-linecap:round;stroke-linejoin:round;" d="M239.178,332.012c-4.391-6.214-22.752-30.018-24.168-39.027"></path><path style="fill:#505050;" d="M219.556,297.524c0.375-0.878,0.905-3.756,1.233-5.537c0.749-4.07,0.845-4.594,1.776-4.718c0.426-0.058,0.908,0.194,1.105,0.554c0.231,0.425,0.255,1.164,0.259,4.146c0.003,1.911,0.007,5.394,0.296,6.236c0.858,0.406,4.772,0.773,8.059,0.87c0.051,0.001,0.099,0.013,0.147,0.021l0.492,2.83c-0.339,0.115-0.967,0.134-2.47,0.175c-1.618,0.044-5.281,0.145-6.277,0.457c-0.429,1.225-0.167,7.328,0.344,12.516c0.041,0.407-0.212,0.782-0.613,0.935l-6.194-8.653c0.646-2.06,1.053-4.09,0.937-4.712c-0.528-0.129-2.126,0.123-3.535,0.575c-0.18-0.809-1.679-3.11-2.285-4.817c-0.24-0.677-0.001-1.955-0.001-1.955C215.449,297.026,218.558,297.555,219.556,297.524z"></path><path style="fill:#FFFFFF;" d="M212.49,297.702c0,0,6.705,1.496,7.668,1.04c0.962-0.457,2.159-10.979,2.624-10.127c0.366,0.669-0.172,9.607,0.654,10.57s8.828,1.196,8.828,1.196s0.506,0.699,0.26,1.049c-0.125,0.175-7.847,0.038-9.042,0.776c-1.194,0.737,0.045,13.319,0.045,13.319l-5.063-6.873c0,0,1.757-5.189,1.033-6.206s-4.712,0.265-4.712,0.265L212.49,297.702z"></path><g><path style="fill:none;stroke:#000000;stroke-linecap:round;stroke-linejoin:round;" d="M232.108,283.215c0,0-4.347-1.864-5.684-1.548c-1.328,0.308-12.901,10.867-13.861,15.22s24.688,38.212,26.711,40.7c2.256-8.08-10.587-52.295-10.587-52.295L232.108,283.215z"></path></g></g><path style="fill:#505050;" d="M228.373,284.888c-0.003-0.35,2.114-1.165,2.114-1.165s-2.387-1.281-2.759-1.049C227.355,282.907,228.373,284.888,228.373,284.888z"></path><line style="fill:none;stroke:#000000;stroke-linecap:round;stroke-linejoin:round;" x1="228.689" y1="285.295" x2="227.728" y2="282.674"></line></g></g><g><path style="fill:#6E6E6E;stroke:#000000;stroke-linecap:round;stroke-linejoin:round;" d="M239.567,333.546c0,0,2.379,23.61-1.809,39.454c0.599-7.456-6.389-24.542-6.42-27.96C231.307,341.623,239.567,333.546,239.567,333.546z"></path><path style="fill:#505050;" d="M239.502,346.981c0,0-3.2-1.397-6.274,4.194c-0.677-3.34-1.675-5.476-1.433-6.408c0.241-0.932,1.958-4.591,7.282-10.183C239.735,338.303,239.502,346.981,239.502,346.981z"></path><path style="fill:none;stroke:#000000;stroke-linecap:round;stroke-linejoin:round;" d="M238.999,362.438c0,0-2.763-10.563-4.848-19.883"></path></g></g><g><g><circle style="fill:#FFFFFF;stroke:#000000;stroke-linecap:round;stroke-linejoin:round;" cx="228.408" cy="375.115" r="3.417"></circle><circle style="fill:#2B2B2D;stroke:#000000;stroke-linecap:round;stroke-linejoin:round;" cx="228.409" cy="375.115" r="1.75"></circle></g><g><path style="fill:#6E6E6E;stroke:#000000;stroke-linecap:round;stroke-linejoin:round;" d="M229.76,384.001c0,0,1.999,10.166,0.666,13.333c-1.833,1.333-4.833,1.167-5.5,0c0.166-6,0.5-11.167,1.5-12.667C228.426,383.834,229.76,384.001,229.76,384.001z"></path><path style="fill:#6E6E6E;stroke:#000000;stroke-linecap:round;stroke-linejoin:round;" d="M229.426,376.501c0,0-1.667-0.668-2.5,0.166c-1,1.834-0.5,8-0.5,8l3.334-0.166C229.76,384.501,229.926,377.501,229.426,376.501z"></path><path style="fill:#303032;stroke:#000000;stroke-linecap:round;stroke-linejoin:round;" d="M229.926,383.334c0,0,0.834,1.333,0.167,2.333s-3.999,0.666-4.333,0s0.5-2.5,0.5-2.5L229.926,383.334z"></path></g></g></g><g><g><path style="fill:#5D5D61;stroke:#000000;stroke-linecap:round;stroke-linejoin:round;" d="M263.574,369c0,0-0.334,10.001,0.332,11.334c9.5-1.334,26,1.166,31.5,5.166c-1.916-24.334-17.5-74-17.5-74l-17,25.834L263.574,369z"></path><path style="fill:#3F3F42;" d="M272.406,325.75c0,0,4.75,31.25,3.5,39.5c-2.25-15.25-4.75-36.75-4.75-36.75L272.406,325.75z"></path><path style="fill:#3F3F42;" d="M261.99,336.333c0,0,14.75-12,15.5-14.75s0-9,0-9l-17,25.75"></path><line style="fill:none;stroke:#FFFFFF;stroke-linecap:round;stroke-linejoin:round;stroke-dasharray:1 2;" x1="273.406" y1="358" x2="275.906" y2="377"></line><path style="fill:none;stroke:#000000;stroke-linecap:round;stroke-linejoin:round;" d="M270.906,326.75c0,0,6,32,7.25,53.25"></path><path style="fill:#505050;stroke:#000000;stroke-linecap:round;stroke-linejoin:round;" d="M261.221,368c0,0,1.832,9,1.936,12.348c2.5-0.25,3-0.5,3-0.5l-3.104-16.015L261.221,368z"></path><g><path style="fill:#5D5D61;stroke:#000000;stroke-linecap:round;stroke-linejoin:round;" d="M276.906,353.75c0,0-0.25,3,0,6c0.75,2.5,16.5,13.25,16.5,13.25s0.25-2.75-0.5-6.75C288.656,360.75,276.906,353.75,276.906,353.75z"></path><path style="fill:#3F3F42;" d="M277.74,359.834c-0.5-0.833-0.834-2.5-0.334-4.833c3.334,2,13.166,9.166,13.334,9.666c0.166,0.5,1.166,5,0.666,6C287.074,368.334,278.24,360.667,277.74,359.834z"></path></g></g><g><g><g><g id="outerXMLID_11_"><g><path style="fill:#6E6E6E;" d="M287.438,296.887c0.961,4.353-24.688,38.212-26.711,40.7c-2.256-8.08,10.588-52.295,10.588-52.295l-3.422-2.077c0,0,4.348-1.864,5.684-1.548C274.904,281.975,286.477,292.534,287.438,296.887z"></path></g><path style="fill:#505050;" d="M261.791,335.448c0,0,13.795-18.64,16.205-22.484c-5.4,2.796-10.99-1.049-11.688-6.757c-1.652,2.912-5.482,25.302-5.385,28.378C261.912,335.798,261.791,335.448,261.791,335.448z"></path><path style="fill:none;stroke:#000000;stroke-linecap:round;stroke-linejoin:round;" d="M260.822,332.012c4.391-6.214,22.752-30.018,24.168-39.027"></path><path style="fill:#505050;" d="M280.445,297.524c-0.375-0.878-0.906-3.756-1.234-5.537c-0.748-4.07-0.844-4.594-1.775-4.718c-0.426-0.058-0.908,0.194-1.105,0.554c-0.23,0.425-0.254,1.164-0.258,4.146c-0.004,1.911-0.008,5.394-0.297,6.236c-0.857,0.406-4.773,0.773-8.059,0.87c-0.051,0.001-0.1,0.013-0.148,0.021l-0.49,2.83c0.338,0.115,0.967,0.134,2.469,0.175c1.619,0.044,5.281,0.145,6.277,0.457c0.43,1.225,0.166,7.328-0.344,12.516c-0.041,0.407,0.213,0.782,0.613,0.935l6.193-8.653c-0.646-2.06-1.053-4.09-0.936-4.712c0.527-0.129,2.125,0.123,3.535,0.575c0.18-0.809,1.678-3.11,2.285-4.817c0.24-0.677,0-1.955,0-1.955C284.551,297.026,281.441,297.555,280.445,297.524z"></path><path style="fill:#FFFFFF;" d="M287.51,297.702c0,0-6.705,1.496-7.668,1.04c-0.961-0.457-2.158-10.979-2.623-10.127c-0.365,0.669,0.172,9.607-0.654,10.57s-8.828,1.196-8.828,1.196s-0.506,0.699-0.26,1.049c0.125,0.175,7.848,0.038,9.041,0.776c1.195,0.737-0.045,13.319-0.045,13.319l5.063-6.873c0,0-1.758-5.189-1.033-6.206s4.713,0.265,4.713,0.265L287.51,297.702z"></path><g><path style="fill:none;stroke:#000000;stroke-linecap:round;stroke-linejoin:round;" d="M267.893,283.215c0,0,4.348-1.864,5.684-1.548c1.328,0.308,12.9,10.867,13.861,15.22s-24.688,38.212-26.711,40.7c-2.256-8.08,10.588-52.295,10.588-52.295L267.893,283.215z"></path></g></g><path style="fill:#505050;" d="M271.627,284.888c0.004-0.35-2.113-1.165-2.113-1.165s2.387-1.281,2.758-1.049C272.645,282.907,271.627,284.888,271.627,284.888z"></path><line style="fill:none;stroke:#000000;stroke-linecap:round;stroke-linejoin:round;" x1="271.311" y1="285.295" x2="272.271" y2="282.674"></line></g></g><g><path style="fill:#6E6E6E;stroke:#000000;stroke-linecap:round;stroke-linejoin:round;" d="M260.434,333.546c0,0-2.379,23.61,1.809,39.454c-0.6-7.456,6.389-24.542,6.42-27.96C268.693,341.623,260.434,333.546,260.434,333.546z"></path><path style="fill:#505050;" d="M260.498,346.981c0,0,3.201-1.397,6.275,4.194c0.676-3.34,1.674-5.476,1.432-6.408c-0.24-0.932-1.957-4.591-7.281-10.183C260.266,338.303,260.498,346.981,260.498,346.981z"></path><path style="fill:none;stroke:#000000;stroke-linecap:round;stroke-linejoin:round;" d="M261.002,362.438c0,0,2.762-10.563,4.848-19.883"></path></g></g><g><g><circle style="fill:#FFFFFF;stroke:#000000;stroke-linecap:round;stroke-linejoin:round;" cx="271.592" cy="375.115" r="3.416"></circle><circle style="fill:#2B2B2D;stroke:#000000;stroke-linecap:round;stroke-linejoin:round;" cx="271.592" cy="375.115" r="1.75"></circle></g><g><path style="fill:#6E6E6E;stroke:#000000;stroke-linecap:round;stroke-linejoin:round;" d="M270.24,384.001c0,0-2,10.166-0.666,13.333c1.832,1.333,4.832,1.167,5.5,0c-0.166-6-0.5-11.167-1.5-12.667C271.574,383.834,270.24,384.001,270.24,384.001z"></path><path style="fill:#6E6E6E;stroke:#000000;stroke-linecap:round;stroke-linejoin:round;" d="M270.574,376.501c0,0,1.666-0.668,2.5,0.166c1,1.834,0.5,8,0.5,8l-3.334-0.166C270.24,384.501,270.074,377.501,270.574,376.501z"></path><path style="fill:#303032;stroke:#000000;stroke-linecap:round;stroke-linejoin:round;" d="M270.074,383.334c0,0-0.834,1.333-0.168,2.333c0.668,1,4,0.666,4.334,0s-0.5-2.5-0.5-2.5L270.074,383.334z"></path></g></g></g></g></g></g></svg>