<svg xmlns="http://www.w3.org/2000/svg" width="500" height="500" version="1.1"><g id="x9146"><g><g><g><path style="fill:#505050;stroke:#000000;stroke-linecap:round;stroke-linejoin:round;" d="M213.188,303c0,0-21.187,50.658-23.25,57.75c9.75,9.583,20.75,9.75,20.75,9.75l16.25-46.75l-5-20L213.188,303z"></path><path style="fill:#6E6E6E;" d="M213.438,304.5c0,0-15.25,35.625-16.125,39c6-3.625,10.375-7.5,10.75-11.375s-0.375-5.625,0.375-10.375S213.438,304.5,213.438,304.5z"></path></g><g><path style="fill:#505050;stroke:#000000;stroke-linecap:round;stroke-linejoin:round;" d="M286.813,303c0,0,21.188,50.658,23.25,57.75c-9.75,9.583-20.75,9.75-20.75,9.75l-16.25-46.75l5-20L286.813,303z"></path><path style="fill:#6E6E6E;" d="M286.563,304.5c0,0,15.25,35.625,16.125,39c-6-3.625-10.375-7.5-10.75-11.375s0.375-5.625-0.375-10.375S286.563,304.5,286.563,304.5z"></path></g></g><g><g><g><g><path style="fill:#6E6E6E;stroke:#000000;stroke-linecap:round;stroke-linejoin:round;" d="M219.521,307.102c0,0,1.333,1,1.833,1c3.333-5,12.5-17.334,12.5-17.334l-0.167-3.166L219.521,307.102z"></path><path style="fill:#6E6E6E;stroke:#000000;stroke-linecap:round;stroke-linejoin:round;" d="M230.938,291.852c-3.583,4.083-11.417,15.25-11.417,15.25c-4.25,2.167-8.917-1.999-6.833-8.25c3-6.083,16-17.583,16-17.583s4.75-1.667,11-1.917L230.938,291.852z"></path><path style="fill:#505050;" d="M216.521,297.27c0.667,0.166,1.167-0.334,3-0.167c1.167-2.333,0-4.333,0-4.333l10.333-10.167l9-2.5l-17.833,24.167c0,0-0.334-2.5-1.667-3.667S216.521,297.27,216.521,297.27z"></path></g><g><circle style="fill:#C3C2C4;stroke:#000000;stroke-linecap:round;stroke-linejoin:round;" cx="217.75" cy="300.914" r="2.688"></circle><path style="fill:#A2A2A2;" d="M218.728,301.696c0,0,0.244,0.732,0,1.172c0.586-0.195,1.075-0.928,1.075-1.466C219.265,301.843,218.728,301.696,218.728,301.696z"></path><path style="fill:#A2A2A2;" d="M215.795,300.621c0,0-0.195-0.831,0.733-1.417c-0.049,0.586,0.146,0.928,0.146,0.928l0.098,0.392C216.773,300.523,215.893,300.377,215.795,300.621z"></path><circle style="fill:#3B3B3B;" cx="217.75" cy="300.914" r="1.107"></circle><circle style="fill:#989898;" cx="217.749" cy="300.915" r="0.448"></circle></g></g><g><path style="fill:#6E6E6E;stroke:#000000;stroke-linecap:round;stroke-linejoin:round;" d="M231.854,344.602c0,0-0.533,27.667-1.2,29c-0.833,0.333-6.8-0.834-6.8-0.834s2.5-46.5,2.5-45S231.354,341.102,231.854,344.602z"></path><path style="fill:#505050;" d="M227.75,355.477c0.063-0.25,1.375-1,2.5-0.063c0.5-2.688,0.688-9.5-0.375-13.375C227.938,344.977,227.75,355.477,227.75,355.477z"></path><g><path style="fill:#505050;stroke:#000000;stroke-linecap:round;stroke-linejoin:round;" d="M229.688,335.602c-0.556-3.057-6.901-23.135-8.996-29.729l-1.163,1.433c-1.12,8.206-3.866,29.237-5.175,47.296c-1.667,23-3,59.666-3,59.666s3.167,1.667,8.667,2C221.021,402.935,230.354,339.268,229.688,335.602z"></path></g><g><g><polygon style="opacity:0.3;fill:#FFFFFF;" points="225.172,358.4 217.715,365.114 223.925,371.747 225.599,358.804 "></polygon><path style="opacity:0.3;fill:#FFFFFF;" d="M213.265,384.261l5.151-5.018c-2.49-2.876-4.702-5.492-4.796-5.604L213.265,384.261z"></path><polygon style="fill:#FFFFFF;" points="213.611,373.626 213.621,373.639 213.63,373.341 "></polygon><path style="opacity:0.3;fill:#FFFFFF;" d="M218.417,379.243c1.337,1.545,2.75,3.161,3.957,4.504l1.236-9.559L218.417,379.243z"></path><polygon style="opacity:0.3;fill:#FFFFFF;" points="214.424,361.6 213.958,368.499 217.715,365.114 "></polygon><path style="opacity:0.8;fill:#FFFFFF;" d="M217.715,365.114l-3.757,3.385l-0.327,4.842l-0.01,0.298c0.094,0.112,2.306,2.729,4.796,5.604l5.193-5.055l0.316-2.441L217.715,365.114z"></path></g><polygon style="fill:#FFFFFF;" points="224.733,365.334 218.099,371.508 213.927,366.897 213.858,368.447 217.301,372.25 213.537,375.753 213.476,377.136 213.557,377.224 218.033,373.059 223.071,378.625 223.25,377.199 218.831,372.315 224.522,367.02 "></polygon></g><path style="fill:#C3C2C4;stroke:#000000;stroke-linecap:round;stroke-linejoin:round;" d="M220.688,413.602c0,0,0.333,12.333,0,13.833c-1.167-0.167-2.667-0.167-2.667-0.167l1.5-12.666L220.688,413.602z"></path><g><path style="fill:#C3C2C4;stroke:#000000;stroke-linecap:round;stroke-linejoin:round;" d="M230.688,338.769c0,0-8.167,66.965-10.167,78.132c-0.833,0.333-1.833-0.132-1.833-0.132l10.333-79.834L230.688,338.769z"></path><g><line style="fill:none;stroke:#000000;stroke-linecap:round;stroke-linejoin:round;" x1="219.453" y1="415.568" x2="220.194" y2="415.695"></line><line style="fill:none;stroke:#000000;stroke-linecap:round;stroke-linejoin:round;" x1="219.712" y1="414.089" x2="220.453" y2="414.217"></line><line style="fill:none;stroke:#000000;stroke-linecap:round;stroke-linejoin:round;" x1="219.97" y1="412.609" x2="220.712" y2="412.736"></line><line style="fill:none;stroke:#000000;stroke-linecap:round;stroke-linejoin:round;" x1="220.23" y1="411.128" x2="220.971" y2="411.256"></line><line style="fill:none;stroke:#000000;stroke-linecap:round;stroke-linejoin:round;" x1="220.486" y1="409.669" x2="221.227" y2="409.796"></line><line style="fill:none;stroke:#000000;stroke-linecap:round;stroke-linejoin:round;" x1="220.745" y1="408.189" x2="221.485" y2="408.317"></line><line style="fill:none;stroke:#000000;stroke-linecap:round;stroke-linejoin:round;" x1="221.003" y1="406.709" x2="221.744" y2="406.836"></line><line style="fill:none;stroke:#000000;stroke-linecap:round;stroke-linejoin:round;" x1="221.263" y1="405.229" x2="222.003" y2="405.356"></line><line style="fill:none;stroke:#000000;stroke-linecap:round;stroke-linejoin:round;" x1="221.464" y1="403.667" x2="222.204" y2="403.795"></line><line style="fill:none;stroke:#000000;stroke-linecap:round;stroke-linejoin:round;" x1="221.722" y1="402.188" x2="222.463" y2="402.315"></line><line style="fill:none;stroke:#000000;stroke-linecap:round;stroke-linejoin:round;" x1="221.981" y1="400.707" x2="222.722" y2="400.835"></line><line style="fill:none;stroke:#000000;stroke-linecap:round;stroke-linejoin:round;" x1="222.24" y1="399.227" x2="222.981" y2="399.354"></line></g><g><line style="fill:none;stroke:#000000;stroke-linecap:round;stroke-linejoin:round;" x1="227.116" y1="358.988" x2="227.862" y2="359.073"></line><line style="fill:none;stroke:#000000;stroke-linecap:round;stroke-linejoin:round;" x1="227.291" y1="357.496" x2="228.037" y2="357.582"></line><line style="fill:none;stroke:#000000;stroke-linecap:round;stroke-linejoin:round;" x1="227.464" y1="356.005" x2="228.212" y2="356.09"></line><line style="fill:none;stroke:#000000;stroke-linecap:round;stroke-linejoin:round;" x1="227.64" y1="354.511" x2="228.386" y2="354.597"></line><line style="fill:none;stroke:#000000;stroke-linecap:round;stroke-linejoin:round;" x1="227.813" y1="353.04" x2="228.56" y2="353.125"></line><line style="fill:none;stroke:#000000;stroke-linecap:round;stroke-linejoin:round;" x1="227.987" y1="351.548" x2="228.734" y2="351.634"></line><line style="fill:none;stroke:#000000;stroke-linecap:round;stroke-linejoin:round;" x1="228.161" y1="350.056" x2="228.908" y2="350.14"></line><line style="fill:none;stroke:#000000;stroke-linecap:round;stroke-linejoin:round;" x1="228.336" y1="348.563" x2="229.083" y2="348.648"></line><line style="fill:none;stroke:#000000;stroke-linecap:round;stroke-linejoin:round;" x1="228.449" y1="346.992" x2="229.195" y2="347.078"></line><line style="fill:none;stroke:#000000;stroke-linecap:round;stroke-linejoin:round;" x1="228.623" y1="345.501" x2="229.37" y2="345.586"></line><line style="fill:none;stroke:#000000;stroke-linecap:round;stroke-linejoin:round;" x1="228.797" y1="344.008" x2="229.544" y2="344.094"></line><line style="fill:none;stroke:#000000;stroke-linecap:round;stroke-linejoin:round;" x1="228.972" y1="342.515" x2="229.719" y2="342.601"></line></g></g><g><g><g><path style="fill:#6E6E6E;stroke:#000000;stroke-linecap:round;stroke-linejoin:round;" d="M221.521,308.102c2.773-3.618,5.833-8.762,9.333-13c-0.25,2.5,3.333,35.166,1,51c-2.5-12.25-11-26.916-16-31.666C217.122,312.646,219.021,310.602,221.521,308.102z"></path></g><path style="fill:#505050;" d="M219.854,310.27c0,0,0.333,5.333,0.833,5.833c2-2.5,3.167-5.167,3.167-5.167s7.667,15.334,8.333,20.167c0-8.333-1.833-34.333-1.833-34.333l-8,10.833L219.854,310.27z"></path></g><g><path style="fill:#C3C2C4;stroke:#000000;stroke-linecap:round;stroke-linejoin:round;" d="M217.438,316.875c0.125-0.75,1.5-1.625,1.5-1.625s10.875,14.875,13.75,28.625c0.75,7.25-0.958,30.199-0.958,30.199L229.854,374c0,0,1.708-22.875,1.083-28.875S223.813,326.125,217.438,316.875z"></path><g><line style="fill:none;stroke:#000000;stroke-linecap:round;stroke-linejoin:round;" x1="231.578" y1="365.733" x2="232.329" y2="365.758"></line><line style="fill:none;stroke:#000000;stroke-linecap:round;stroke-linejoin:round;" x1="231.632" y1="364.232" x2="232.383" y2="364.258"></line><line style="fill:none;stroke:#000000;stroke-linecap:round;stroke-linejoin:round;" x1="231.686" y1="362.731" x2="232.438" y2="362.756"></line><line style="fill:none;stroke:#000000;stroke-linecap:round;stroke-linejoin:round;" x1="231.74" y1="361.229" x2="232.492" y2="361.254"></line><line style="fill:none;stroke:#000000;stroke-linecap:round;stroke-linejoin:round;" x1="231.794" y1="359.748" x2="232.546" y2="359.772"></line><line style="fill:none;stroke:#000000;stroke-linecap:round;stroke-linejoin:round;" x1="231.848" y1="358.247" x2="232.6" y2="358.272"></line><line style="fill:none;stroke:#000000;stroke-linecap:round;stroke-linejoin:round;" x1="231.902" y1="356.745" x2="232.653" y2="356.77"></line><line style="fill:none;stroke:#000000;stroke-linecap:round;stroke-linejoin:round;" x1="231.957" y1="355.243" x2="232.708" y2="355.269"></line><line style="fill:none;stroke:#000000;stroke-linecap:round;stroke-linejoin:round;" x1="231.942" y1="353.669" x2="232.693" y2="353.694"></line><line style="fill:none;stroke:#000000;stroke-linecap:round;stroke-linejoin:round;" x1="231.996" y1="352.169" x2="232.747" y2="352.193"></line><line style="fill:none;stroke:#000000;stroke-linecap:round;stroke-linejoin:round;" x1="232.05" y1="350.666" x2="232.801" y2="350.691"></line><line style="fill:none;stroke:#000000;stroke-linecap:round;stroke-linejoin:round;" x1="232.104" y1="349.164" x2="232.855" y2="349.189"></line></g><g><line style="fill:none;stroke:#000000;stroke-linecap:round;stroke-linejoin:round;" x1="218.688" y1="317.852" x2="219.813" y2="316.852"></line><line style="fill:none;stroke:#000000;stroke-linecap:round;stroke-linejoin:round;" x1="219.5" y1="319.32" x2="220.625" y2="318.32"></line><line style="fill:none;stroke:#000000;stroke-linecap:round;stroke-linejoin:round;" x1="220.313" y1="320.789" x2="221.438" y2="319.789"></line><line style="fill:none;stroke:#000000;stroke-linecap:round;stroke-linejoin:round;" x1="221.156" y1="322.133" x2="222.281" y2="321.133"></line></g></g></g></g></g><g><g><g><path style="fill:#6E6E6E;stroke:#000000;stroke-linecap:round;stroke-linejoin:round;" d="M280.479,307.102c0,0-1.333,1-1.833,1c-3.333-5-12.5-17.334-12.5-17.334l0.167-3.166L280.479,307.102z"></path><path style="fill:#6E6E6E;stroke:#000000;stroke-linecap:round;stroke-linejoin:round;" d="M269.063,291.852c3.583,4.083,11.416,15.25,11.416,15.25c4.25,2.167,8.917-1.999,6.834-8.25c-3-6.083-16-17.583-16-17.583s-4.75-1.667-11-1.917L269.063,291.852z"></path><path style="fill:#505050;" d="M283.479,297.27c-0.666,0.166-1.166-0.334-3-0.167c-1.166-2.333,0-4.333,0-4.333l-10.332-10.167l-9-2.5l17.832,24.167c0,0,0.334-2.5,1.668-3.667C281.979,299.436,283.479,297.27,283.479,297.27z"></path></g><g><circle style="fill:#C3C2C4;stroke:#000000;stroke-linecap:round;stroke-linejoin:round;" cx="282.25" cy="300.914" r="2.688"></circle><path style="fill:#A2A2A2;" d="M281.272,301.696c0,0-0.244,0.732,0,1.172c-0.586-0.195-1.075-0.928-1.075-1.466C280.735,301.843,281.272,301.696,281.272,301.696z"></path><path style="fill:#A2A2A2;" d="M284.205,300.621c0,0,0.195-0.831-0.733-1.417c0.049,0.586-0.146,0.928-0.146,0.928l-0.099,0.392C283.227,300.523,284.107,300.377,284.205,300.621z"></path><circle style="fill:#3B3B3B;" cx="282.25" cy="300.914" r="1.107"></circle><circle style="fill:#989898;" cx="282.251" cy="300.915" r="0.448"></circle></g></g><g><path style="fill:#6E6E6E;stroke:#000000;stroke-linecap:round;stroke-linejoin:round;" d="M268.146,344.602c0,0,0.533,27.667,1.199,29c0.833,0.333,6.801-0.834,6.801-0.834s-2.5-46.5-2.5-45S268.646,341.102,268.146,344.602z"></path><path style="fill:#505050;" d="M272.25,355.477c-0.063-0.25-1.375-1-2.5-0.063c-0.5-2.688-0.688-9.5,0.375-13.375C272.063,344.977,272.25,355.477,272.25,355.477z"></path><g><path style="fill:#505050;stroke:#000000;stroke-linecap:round;stroke-linejoin:round;" d="M270.313,335.602c0.556-3.057,6.901-23.135,8.996-29.729l1.162,1.433c1.121,8.206,3.867,29.237,5.176,47.296c1.666,23,2.999,59.666,2.999,59.666s-3.167,1.667-8.667,2C278.979,402.935,269.646,339.268,270.313,335.602z"></path></g><g><g><polygon style="opacity:0.3;fill:#FFFFFF;" points="274.828,358.4 282.285,365.114 276.074,371.747 274.401,358.804 "></polygon><path style="opacity:0.3;fill:#FFFFFF;" d="M286.734,384.261l-5.15-5.018c2.49-2.876,4.701-5.492,4.795-5.604L286.734,384.261z"></path><polygon style="fill:#FFFFFF;" points="286.389,373.626 286.379,373.639 286.369,373.341 "></polygon><path style="opacity:0.3;fill:#FFFFFF;" d="M281.584,379.243c-1.338,1.545-2.75,3.161-3.957,4.504l-1.236-9.559L281.584,379.243z"></path><polygon style="opacity:0.3;fill:#FFFFFF;" points="285.576,361.6 286.043,368.499 282.285,365.114 "></polygon><path style="opacity:0.8;fill:#FFFFFF;" d="M282.285,365.114l3.758,3.385l0.326,4.842l0.01,0.298c-0.094,0.112-2.305,2.729-4.795,5.604l-5.193-5.055l-0.316-2.441L282.285,365.114z"></path></g><polygon style="fill:#FFFFFF;" points="275.268,365.334 281.9,371.508 286.073,366.897 286.142,368.447 282.699,372.25 286.463,375.753 286.523,377.136 286.443,377.224 281.967,373.059 276.929,378.625 276.75,377.199 281.17,372.315 275.478,367.02 "></polygon></g><path style="fill:#C3C2C4;stroke:#000000;stroke-linecap:round;stroke-linejoin:round;" d="M279.313,413.602c0,0-0.334,12.333,0,13.833c1.166-0.167,2.666-0.167,2.666-0.167l-1.5-12.666L279.313,413.602z"></path><g><path style="fill:#C3C2C4;stroke:#000000;stroke-linecap:round;stroke-linejoin:round;" d="M269.313,338.769c0,0,8.166,66.965,10.166,78.132c0.834,0.333,1.834-0.132,1.834-0.132l-10.334-79.834L269.313,338.769z"></path><g><line style="fill:none;stroke:#000000;stroke-linecap:round;stroke-linejoin:round;" x1="280.547" y1="415.568" x2="279.807" y2="415.695"></line><line style="fill:none;stroke:#000000;stroke-linecap:round;stroke-linejoin:round;" x1="280.287" y1="414.089" x2="279.547" y2="414.217"></line><line style="fill:none;stroke:#000000;stroke-linecap:round;stroke-linejoin:round;" x1="280.029" y1="412.609" x2="279.288" y2="412.736"></line><line style="fill:none;stroke:#000000;stroke-linecap:round;stroke-linejoin:round;" x1="279.77" y1="411.128" x2="279.029" y2="411.256"></line><line style="fill:none;stroke:#000000;stroke-linecap:round;stroke-linejoin:round;" x1="279.514" y1="409.669" x2="278.773" y2="409.796"></line><line style="fill:none;stroke:#000000;stroke-linecap:round;stroke-linejoin:round;" x1="279.256" y1="408.189" x2="278.515" y2="408.317"></line><line style="fill:none;stroke:#000000;stroke-linecap:round;stroke-linejoin:round;" x1="278.996" y1="406.709" x2="278.256" y2="406.836"></line><line style="fill:none;stroke:#000000;stroke-linecap:round;stroke-linejoin:round;" x1="278.737" y1="405.229" x2="277.996" y2="405.356"></line><line style="fill:none;stroke:#000000;stroke-linecap:round;stroke-linejoin:round;" x1="278.536" y1="403.667" x2="277.796" y2="403.795"></line><line style="fill:none;stroke:#000000;stroke-linecap:round;stroke-linejoin:round;" x1="278.277" y1="402.188" x2="277.537" y2="402.315"></line><line style="fill:none;stroke:#000000;stroke-linecap:round;stroke-linejoin:round;" x1="278.02" y1="400.707" x2="277.277" y2="400.835"></line><line style="fill:none;stroke:#000000;stroke-linecap:round;stroke-linejoin:round;" x1="277.76" y1="399.227" x2="277.02" y2="399.354"></line></g><g><line style="fill:none;stroke:#000000;stroke-linecap:round;stroke-linejoin:round;" x1="272.885" y1="358.988" x2="272.138" y2="359.073"></line><line style="fill:none;stroke:#000000;stroke-linecap:round;stroke-linejoin:round;" x1="272.709" y1="357.496" x2="271.963" y2="357.582"></line><line style="fill:none;stroke:#000000;stroke-linecap:round;stroke-linejoin:round;" x1="272.535" y1="356.005" x2="271.788" y2="356.09"></line><line style="fill:none;stroke:#000000;stroke-linecap:round;stroke-linejoin:round;" x1="272.36" y1="354.511" x2="271.613" y2="354.597"></line><line style="fill:none;stroke:#000000;stroke-linecap:round;stroke-linejoin:round;" x1="272.188" y1="353.04" x2="271.44" y2="353.125"></line><line style="fill:none;stroke:#000000;stroke-linecap:round;stroke-linejoin:round;" x1="272.014" y1="351.548" x2="271.266" y2="351.634"></line><line style="fill:none;stroke:#000000;stroke-linecap:round;stroke-linejoin:round;" x1="271.839" y1="350.056" x2="271.092" y2="350.14"></line><line style="fill:none;stroke:#000000;stroke-linecap:round;stroke-linejoin:round;" x1="271.664" y1="348.563" x2="270.917" y2="348.648"></line><line style="fill:none;stroke:#000000;stroke-linecap:round;stroke-linejoin:round;" x1="271.551" y1="346.992" x2="270.805" y2="347.078"></line><line style="fill:none;stroke:#000000;stroke-linecap:round;stroke-linejoin:round;" x1="271.377" y1="345.501" x2="270.631" y2="345.586"></line><line style="fill:none;stroke:#000000;stroke-linecap:round;stroke-linejoin:round;" x1="271.203" y1="344.008" x2="270.455" y2="344.094"></line><line style="fill:none;stroke:#000000;stroke-linecap:round;stroke-linejoin:round;" x1="271.027" y1="342.515" x2="270.281" y2="342.601"></line></g></g><g><g><g><path style="fill:#6E6E6E;stroke:#000000;stroke-linecap:round;stroke-linejoin:round;" d="M278.479,308.102c-2.773-3.618-5.832-8.762-9.333-13c0.25,2.5-3.333,35.166-0.999,51c2.5-12.25,10.999-26.916,15.999-31.666C282.879,312.646,280.979,310.602,278.479,308.102z"></path></g><path style="fill:#505050;" d="M280.146,310.27c0,0-0.334,5.333-0.834,5.833c-2-2.5-3.166-5.167-3.166-5.167s-7.668,15.334-8.334,20.167c0-8.333,1.834-34.333,1.834-34.333l8,10.833L280.146,310.27z"></path></g><g><path style="fill:#C3C2C4;stroke:#000000;stroke-linecap:round;stroke-linejoin:round;" d="M282.563,316.875c-0.125-0.75-1.5-1.625-1.5-1.625s-10.875,14.875-13.75,28.625c-0.75,7.25,0.959,30.199,0.959,30.199l1.875-0.074c0,0-1.709-22.875-1.084-28.875S276.188,326.125,282.563,316.875z"></path><g><line style="fill:none;stroke:#000000;stroke-linecap:round;stroke-linejoin:round;" x1="268.422" y1="365.733" x2="267.671" y2="365.758"></line><line style="fill:none;stroke:#000000;stroke-linecap:round;stroke-linejoin:round;" x1="268.367" y1="364.232" x2="267.617" y2="364.258"></line><line style="fill:none;stroke:#000000;stroke-linecap:round;stroke-linejoin:round;" x1="268.314" y1="362.731" x2="267.563" y2="362.756"></line><line style="fill:none;stroke:#000000;stroke-linecap:round;stroke-linejoin:round;" x1="268.26" y1="361.229" x2="267.508" y2="361.254"></line><line style="fill:none;stroke:#000000;stroke-linecap:round;stroke-linejoin:round;" x1="268.205" y1="359.748" x2="267.454" y2="359.772"></line><line style="fill:none;stroke:#000000;stroke-linecap:round;stroke-linejoin:round;" x1="268.152" y1="358.247" x2="267.4" y2="358.272"></line><line style="fill:none;stroke:#000000;stroke-linecap:round;stroke-linejoin:round;" x1="268.098" y1="356.745" x2="267.347" y2="356.77"></line><line style="fill:none;stroke:#000000;stroke-linecap:round;stroke-linejoin:round;" x1="268.043" y1="355.243" x2="267.293" y2="355.269"></line><line style="fill:none;stroke:#000000;stroke-linecap:round;stroke-linejoin:round;" x1="268.058" y1="353.669" x2="267.307" y2="353.694"></line><line style="fill:none;stroke:#000000;stroke-linecap:round;stroke-linejoin:round;" x1="268.004" y1="352.169" x2="267.253" y2="352.193"></line><line style="fill:none;stroke:#000000;stroke-linecap:round;stroke-linejoin:round;" x1="267.95" y1="350.666" x2="267.199" y2="350.691"></line><line style="fill:none;stroke:#000000;stroke-linecap:round;stroke-linejoin:round;" x1="267.896" y1="349.164" x2="267.145" y2="349.189"></line></g><g><line style="fill:none;stroke:#000000;stroke-linecap:round;stroke-linejoin:round;" x1="281.313" y1="317.852" x2="280.188" y2="316.852"></line><line style="fill:none;stroke:#000000;stroke-linecap:round;stroke-linejoin:round;" x1="280.5" y1="319.32" x2="279.375" y2="318.32"></line><line style="fill:none;stroke:#000000;stroke-linecap:round;stroke-linejoin:round;" x1="279.688" y1="320.789" x2="278.563" y2="319.789"></line><line style="fill:none;stroke:#000000;stroke-linecap:round;stroke-linejoin:round;" x1="278.844" y1="322.133" x2="277.719" y2="321.133"></line></g></g></g></g></g></g></g></g></svg>