<svg xmlns="http://www.w3.org/2000/svg" width="500" height="500" version="1.1"><g id="x011"><g><g><g><g><path style="fill:#6E6E6E;stroke:#000000;stroke-linecap:round;stroke-linejoin:round;" d="M224.001,289.75c0,0-4,3.5-7.75,11c-3.855,7.71-7,19.5-7,19.5s-2.5,2-2.75,2.75s0,3.25,0,3.25s-4.25,10.75-6,14.75s-4.75,10.25-5.5,10.5c-0.25,1.25,1.75,3.75,1.75,3.75l12,5.5c0,0,2.5-1.25,3-2.25s1-6.25,1-6.25s8.75-14.75,11.75-24c3-10.25,7-35.75,7-35.75L224.001,289.75z"></path><path style="fill:#505050;" d="M224.834,303.875c0,0-3.333,3.666-3.5,5s1.333,7.834,3.5,9.334C227.834,315.375,226.501,304.875,224.834,303.875z"></path><path style="fill:none;stroke:#000000;stroke-linecap:round;stroke-linejoin:round;" d="M220.334,306.875c0,0,1.666,4,5.333,6.667"></path></g><g><path style="fill:#6E6E6E;stroke:#000000;stroke-linecap:round;stroke-linejoin:round;" d="M230.251,289.25c0,0-8.75,3.75-9.5,4.75s-2,3.75-2,3.75s-1,1.5-1.5,0.75s0.75-7,1.75-8s10.25-5.75,10.75-5.75S230.251,289.25,230.251,289.25z"></path><ellipse transform="matrix(0.9393 -0.3431 0.3431 0.9393 -85.252 94.6012)" style="fill:#DCDCDC;stroke:#000000;stroke-linecap:round;stroke-linejoin:round;" cx="224.712" cy="288.218" rx="2.813" ry="1.759"></ellipse></g></g><g><g><path style="fill:#6E6E6E;stroke:#000000;stroke-linecap:round;stroke-linejoin:round;" d="M275.999,289.75c0,0,4,3.5,7.75,11c3.855,7.71,7,19.5,7,19.5s2.5,2,2.75,2.75s0,3.25,0,3.25s4.25,10.75,6,14.75s4.75,10.25,5.5,10.5c0.25,1.25-1.75,3.75-1.75,3.75l-12,5.5c0,0-2.5-1.25-3-2.25s-1-6.25-1-6.25s-8.75-14.75-11.75-24c-3-10.25-7-35.75-7-35.75L275.999,289.75z"></path><path style="fill:#505050;" d="M275.165,303.875c0,0,3.334,3.666,3.5,5c0.168,1.334-1.333,7.834-3.5,9.334C272.165,315.375,273.499,304.875,275.165,303.875z"></path><path style="fill:none;stroke:#000000;stroke-linecap:round;stroke-linejoin:round;" d="M279.665,306.875c0,0-1.666,4-5.332,6.667"></path></g><g><path style="fill:#6E6E6E;stroke:#000000;stroke-linecap:round;stroke-linejoin:round;" d="M269.749,289.25c0,0,8.75,3.75,9.5,4.75s2,3.75,2,3.75s1,1.5,1.5,0.75s-0.75-7-1.75-8s-10.25-5.75-10.75-5.75S269.749,289.25,269.749,289.25z"></path><ellipse transform="matrix(-0.9393 -0.3431 0.3431 -0.9393 434.9695 653.3965)" style="fill:#DCDCDC;stroke:#000000;stroke-linecap:round;stroke-linejoin:round;" cx="275.288" cy="288.218" rx="2.813" ry="1.759"></ellipse></g></g></g><g><g><g><g><path style="fill:#6E6E6E;stroke:#000000;stroke-linecap:round;stroke-linejoin:round;" d="M243.5,315c0,0,0,0.25,0.5,1.25c-0.5,2.25-0.75,34.5-0.5,43.25c-6.75,1-23.25-3.5-26.5-7c-0.5-5.25,6-23.25,6-23.25s-0.75-1.5-0.75-2.25s2-2.75,2-2.75s-0.25-14.75,1-19s3-6.75,3-6.75L243.5,315z"></path><path style="fill:#505050;" d="M223.667,330.667c0,0-1.333-3.334-1-3.667s9.833,3.833,11.5,5.167S225.667,331.834,223.667,330.667z"></path><path style="fill:#DCDCDC;stroke:#000000;stroke-linecap:round;stroke-linejoin:round;" d="M229,308c0,0-0.75,9.5-0.25,17.25c-0.75,1-1.25,2.75-1.25,2.75l-0.25,3.25c0,0-3.75,13.75-3,25.25C225.5,358,227,357,227,357c0-8.833,1.667-19.166,3-24.666c-0.25-2,0.25-3.584,0.25-3.584l1.5-3.25c0,0,0-12.25,0.5-17.25C231.5,306.5,229,308,229,308z"></path></g><g><g><path style="fill:#6E6E6E;stroke:#000000;stroke-linecap:round;stroke-linejoin:round;" d="M217.716,341.24c0,0-1.129,4.893-1.129,6.775c1.506,2.636,18.255,8.28,30.677,9.033c0-3.575,0-7.904,0-7.904S223.174,345.004,217.716,341.24z"></path><path style="fill:#DCDCDC;stroke:#000000;stroke-linecap:round;stroke-linejoin:round;" d="M244.104,356.908v-7.904c0,0,2.541-0.988,3.105-0.706c0.565,0.282,1.271,8.046-0.141,9.739C245.516,357.896,244.104,356.908,244.104,356.908z"></path></g><path style="fill:#6E6E6E;stroke:#000000;stroke-linecap:round;stroke-linejoin:round;" d="M229.5,344c0,0-1.5,7.668,0.167,10.334c1.167,1.166,3.833,0.833,3.833,0.833s0-8.001,0.333-10.167"></path></g></g><g><path style="fill:#6E6E6E;stroke:#000000;stroke-linecap:round;stroke-linejoin:round;" d="M234.77,282.794c0,0-4.579,15.222,9.73,32.728c-17.17-5.073-21.463-12.178-22.322-14.46c2.003-1.522,6.582-6.343,6.582-6.343s-7.727-1.616-7.727-2.377c1.717-2.283,7.44-8.143,7.727-9.157c1.145-1.521,6.01-3.435,6.01-3.435l2.003,2.284L234.77,282.794z"></path><circle style="fill:#DCDCDC;stroke:#000000;stroke-linecap:round;stroke-linejoin:round;" cx="225.667" cy="291.167" r="1.667"></circle><circle style="fill:#DCDCDC;stroke:#000000;stroke-linecap:round;stroke-linejoin:round;" cx="226.5" cy="302" r="1.667"></circle></g></g><g><g><g><path style="fill:#6E6E6E;stroke:#000000;stroke-linecap:round;stroke-linejoin:round;" d="M256.498,315c0,0,0,0.25-0.5,1.25c0.5,2.25,0.75,34.5,0.5,43.25c6.75,1,23.25-3.5,26.5-7c0.5-5.25-6-23.25-6-23.25s0.75-1.5,0.75-2.25s-2-2.75-2-2.75s0.25-14.75-1-19s-3-6.75-3-6.75L256.498,315z"></path><path style="fill:#505050;" d="M276.332,330.667c0,0,1.333-3.334,1-3.667c-0.334-0.333-9.834,3.833-11.5,5.167C264.165,333.501,274.332,331.834,276.332,330.667z"></path><path style="fill:#DCDCDC;stroke:#000000;stroke-linecap:round;stroke-linejoin:round;" d="M270.998,308c0,0,0.75,9.5,0.25,17.25c0.75,1,1.25,2.75,1.25,2.75l0.25,3.25c0,0,3.75,13.75,3,25.25c-1.25,1.5-2.75,0.5-2.75,0.5c0-8.833-1.666-19.166-3-24.666c0.25-2-0.25-3.584-0.25-3.584l-1.5-3.25c0,0,0-12.25-0.5-17.25C268.498,306.5,270.998,308,270.998,308z"></path></g><g><g><path style="fill:#6E6E6E;stroke:#000000;stroke-linecap:round;stroke-linejoin:round;" d="M282.281,341.24c0,0,1.13,4.893,1.13,6.775c-1.506,2.636-18.255,8.28-30.677,9.033c0-3.575,0-7.904,0-7.904S276.824,345.004,282.281,341.24z"></path></g><path style="fill:#DCDCDC;stroke:#000000;stroke-linecap:round;stroke-linejoin:round;" d="M262.992,347.631c-0.527-1.055-8.438-0.265-10.021,0.527c-1.581,0.791-0.791,8.438-0.526,10.021c0.264,1.584,8.438-0.526,9.758-1.054C263.521,356.597,262.992,347.631,262.992,347.631z M259.5,354.609l-3.751,0.685l-0.341-4.096l4.092-0.681V354.609z"></path><path style="fill:#6E6E6E;stroke:#000000;stroke-linecap:round;stroke-linejoin:round;" d="M270.498,344c0,0,1.5,7.668-0.166,10.334c-1.168,1.166-3.834,0.833-3.834,0.833s0-8.001-0.334-10.167"></path></g></g><g><path style="fill:#6E6E6E;stroke:#000000;stroke-linecap:round;stroke-linejoin:round;" d="M265.229,282.794c0,0,4.578,15.222-9.73,32.728c17.17-5.073,21.463-12.178,22.322-14.46c-2.004-1.522-6.582-6.343-6.582-6.343s7.727-1.616,7.727-2.377c-1.717-2.283-7.441-8.143-7.727-9.157c-1.145-1.521-6.01-3.435-6.01-3.435l-2.004,2.284L265.229,282.794z"></path><circle style="fill:#DCDCDC;stroke:#000000;stroke-linecap:round;stroke-linejoin:round;" cx="274.332" cy="291.167" r="1.667"></circle><circle style="fill:#DCDCDC;stroke:#000000;stroke-linecap:round;stroke-linejoin:round;" cx="273.498" cy="302" r="1.666"></circle></g></g></g></g></g></svg>