<svg xmlns="http://www.w3.org/2000/svg" width="500" height="500" version="1.1"><g id="x9147"><g><g><path style="fill:#6E6E6E;stroke:#000000;stroke-linecap:round;stroke-linejoin:round;" d="M273.084,303.479l16,58.855l20.668-8.252l-18.25-36.627c0,0-1.916-4.716-3.25-9.01c-1.334-4.293-2.334-7.83-4.418-13.05c-2.574-6.45-7.086-10.387-10.75-11.619"></path><path style="fill:#505050;" d="M278.627,313.501c0-2.166,1-6,0.667-7.167s-2.833-4.333-2.833-4.333c-1.666,1.834-0.167,4.833-0.167,4.833L278.627,313.501z"></path><path style="fill:#505050;" d="M276.961,325.5l5,1.834l4.667-6.834c0,0-0.835,0.667-1.001,4.833s1.5,19,1.5,19S279.461,334.166,276.961,325.5z"></path><path style="fill:#6E6E6E;stroke:#000000;stroke-linecap:round;stroke-linejoin:round;" d="M286.084,358.63c0,0,12.668-4.378,21.668-12.124l4.332,7.914c0,0-12.998,11.62-24.832,11.452L286.084,358.63z"></path><path style="fill:none;stroke:#000000;stroke-linecap:round;stroke-linejoin:round;stroke-dasharray:2;" d="M291.252,362.841c0,0,11.5-2.188,19.332-10.609"></path><path style="fill:#6E6E6E;stroke:#000000;stroke-linecap:round;stroke-linejoin:round;" d="M288.334,361.671c0,0,10.25,31.556,12.75,40.959c0,0-2.873-4.219-4-5.248c-4.885-4.456-17.541-14.632-19.166-15.367c-2-0.904-7-2.893-4.166-7.413C276.584,370.08,288.334,361.671,288.334,361.671z"></path><path style="fill:#505050;stroke:#000000;stroke-linecap:round;stroke-linejoin:round;" d="M271.252,360.314c0,0,21.332,1.424,23.166,5.221c1.318,2.731-11.738,6.922-17.834,9.607c-2.381,1.05-3.875,3.232-3.875,3.232L271.252,360.314z"></path><path style="fill:#6E6E6E;stroke:#000000;stroke-linecap:round;stroke-linejoin:round;" d="M270.084,282.177c0,0-11.25,29.807-11,36.879c0.25,7.073,2,43.613,2,43.613s31.834,1.098,33.334,2.866c0,0-17.584-55.488-18.334-58.014c-0.75-2.526-0.5-5.81-0.5-5.81"></path><path style="fill:#505050;" d="M267.461,306.5c0,0-1.834,9-2.5,13.667c-0.865,2.113-3.835,4.514-5.209,5.958C259.752,326.125,261.127,317,267.461,306.5z"></path><path style="fill:#505050;" d="M269.961,303.667l14.289-5.417l-1.373-4.125C282.877,294.125,272.586,301.042,269.961,303.667z"></path><path style="fill:#6E6E6E;stroke:#000000;stroke-linecap:round;stroke-linejoin:round;" d="M259.252,315.52c0.096-2.391,5.666-28.46,11.832-34.354c0,0,8.334,3.453,13,11.704c0,0-14.041,8.842-17.375,14.398c-3.334,5.558-7.5,15.367-7.5,18.566C259.209,325.835,259.084,319.646,259.252,315.52z"></path><g><g><line style="fill:none;stroke:#000000;stroke-linecap:round;stroke-linejoin:round;" x1="263.709" y1="313.71" x2="263.778" y2="314.708"></line><line style="fill:none;stroke:#000000;stroke-linecap:round;stroke-linejoin:round;stroke-dasharray:2.0432 2.0432;" x1="263.919" y1="316.746" x2="266.944" y2="360.571"></line><line style="fill:none;stroke:#000000;stroke-linecap:round;stroke-linejoin:round;" x1="267.015" y1="361.59" x2="267.084" y2="362.588"></line></g></g><g><g><path style="fill:none;stroke:#000000;stroke-linecap:round;stroke-linejoin:round;" d="M260.834,356.272c0,0,0.357-0.007,0.997-0.013"></path><path style="fill:none;stroke:#000000;stroke-linecap:round;stroke-linejoin:round;stroke-dasharray:1.9184 1.9184;" d="M263.747,356.25c5.893-0.009,19.226,0.165,25.798,1.8"></path><path style="fill:none;stroke:#000000;stroke-linecap:round;stroke-linejoin:round;" d="M290.474,358.305c0.341,0.104,0.656,0.212,0.944,0.326"></path></g></g><g><g><path style="fill:none;stroke:#000000;stroke-linecap:round;stroke-linejoin:round;" d="M276.709,375.597c0,0,0.236,0.286,0.68,0.729"></path><path style="fill:none;stroke:#000000;stroke-linecap:round;stroke-linejoin:round;stroke-dasharray:1.9234 1.9234;" d="M278.821,377.606c0.776,0.625,1.749,1.308,2.888,1.905c2.664,1.4,11.326,7.85,14.829,11.286"></path><path style="fill:none;stroke:#000000;stroke-linecap:round;stroke-linejoin:round;" d="M297.21,391.491c0.272,0.298,0.484,0.561,0.624,0.777"></path></g></g><g><g><path style="fill:none;stroke:#000000;stroke-linecap:round;stroke-linejoin:round;" d="M272.584,372.061c0,0,0.332-0.228,0.831-0.55"></path><path style="fill:none;stroke:#000000;stroke-linecap:round;stroke-linejoin:round;stroke-dasharray:2.0926 2.0926;" d="M275.203,370.42c0.853-0.484,1.718-0.913,2.256-1.012c1.08-0.198,5.632-2.034,8.201-3.73"></path><path style="fill:none;stroke:#000000;stroke-linecap:round;stroke-linejoin:round;" d="M286.509,365.061c0.299-0.244,0.538-0.481,0.7-0.704"></path></g></g></g><g><path d="M262.214,359.533c0,0,0.835-2.118,1.637-2.151c0.798-0.029,1.649,2.118,1.649,2.118S263.975,360.569,262.214,359.533z"></path><g><g><path d="M264.292,376.845c-1.729,0-3.137-1.407-3.137-3.137c0-1.729,1.407-3.135,3.137-3.135c1.729,0,3.135,1.406,3.135,3.135C267.427,375.438,266.021,376.845,264.292,376.845z M264.292,371.573c-1.178,0-2.137,0.958-2.137,2.135c0,1.178,0.959,2.137,2.137,2.137c1.177,0,2.135-0.959,2.135-2.137C266.427,372.531,265.469,371.573,264.292,371.573z"></path></g><g><path style="fill:#FF7F00;" d="M264.292,376.172c-1.358,0-2.464-1.105-2.464-2.464c0-1.357,1.105-2.462,2.464-2.462c1.357,0,2.462,1.104,2.462,2.462C266.754,375.066,265.649,376.172,264.292,376.172z M264.292,372.246c-0.808,0-1.464,0.656-1.464,1.462c0,0.808,0.656,1.464,1.464,1.464c0.806,0,1.462-0.656,1.462-1.464C265.754,372.902,265.098,372.246,264.292,372.246z"></path></g></g><g><path style="fill:#FF7F00;" d="M264.583,372.583c-0.048,0-0.098-0.007-0.146-0.021c-0.264-0.081-0.412-0.36-0.332-0.625c0.467-1.524,0.026-10.017-0.184-13.16c-0.019-0.275,0.19-0.514,0.466-0.532c0.274-0.016,0.514,0.189,0.532,0.466c0.078,1.176,0.747,11.542,0.143,13.52C264.995,372.444,264.797,372.583,264.583,372.583z"></path></g><g><path style="fill:#FF7F00;" d="M263.708,372.625c-0.009,0-0.018,0-0.027-0.001c-0.275-0.015-0.487-0.25-0.472-0.526c0.144-2.635-0.346-13.209-0.351-13.315c-0.014-0.276,0.2-0.51,0.476-0.522c0.277-0.039,0.511,0.2,0.522,0.476c0.021,0.438,0.497,10.732,0.351,13.417C264.192,372.419,263.972,372.625,263.708,372.625z"></path></g></g><g><g><path style="fill:#6E6E6E;stroke:#000000;stroke-linecap:round;stroke-linejoin:round;" d="M226.914,303.479l-15.999,58.855l-20.666-8.252l18.249-36.627c0,0,1.916-4.716,3.25-9.01c1.334-4.293,2.334-7.83,4.417-13.05c2.574-6.45,7.086-10.387,10.75-11.619"></path><path style="fill:#505050;" d="M221.374,313.501c0-2.166-1-6-0.667-7.167s2.833-4.333,2.833-4.333c1.666,1.834,0.167,4.833,0.167,4.833L221.374,313.501z"></path><path style="fill:#505050;" d="M223.04,325.5l-5,1.834l-4.667-6.834c0,0,0.835,0.667,1.001,4.833s-1.5,19-1.5,19S220.54,334.166,223.04,325.5z"></path><path style="fill:#6E6E6E;stroke:#000000;stroke-linecap:round;stroke-linejoin:round;" d="M213.915,358.63c0,0-12.667-4.378-21.666-12.124l-4.333,7.914c0,0,12.999,11.62,24.832,11.452L213.915,358.63z"></path><path style="fill:none;stroke:#000000;stroke-linecap:round;stroke-linejoin:round;stroke-dasharray:2;" d="M208.748,362.841c0,0-11.5-2.188-19.332-10.609"></path><path style="fill:#6E6E6E;stroke:#000000;stroke-linecap:round;stroke-linejoin:round;" d="M211.665,361.671c0,0-10.25,31.556-12.75,40.959c0,0,2.873-4.219,4-5.248c4.884-4.456,17.541-14.632,19.166-15.367c2-0.904,6.999-2.893,4.166-7.413C223.414,370.08,211.665,361.671,211.665,361.671z"></path><path style="fill:#505050;stroke:#000000;stroke-linecap:round;stroke-linejoin:round;" d="M228.747,360.314c0,0-21.332,1.424-23.165,5.221c-1.318,2.731,11.737,6.922,17.832,9.607c2.382,1.05,3.875,3.232,3.875,3.232L228.747,360.314z"></path><path style="fill:#6E6E6E;stroke:#000000;stroke-linecap:round;stroke-linejoin:round;" d="M229.914,282.177c0,0,11.25,29.807,11,36.879c-0.25,7.073-2,43.613-2,43.613s-31.832,1.098-33.331,2.866c0,0,17.582-55.488,18.332-58.014c0.75-2.526,0.5-5.81,0.5-5.81"></path><path style="fill:#505050;" d="M230.039,303.667l-14.289-5.292l1.374-4.25C217.124,294.125,227.414,301.042,230.039,303.667z"></path><path style="fill:#505050;" d="M232.539,306.5c0,0,1.834,9,2.5,13.667c0.865,2.113,3.834,4.514,5.208,5.958C240.248,326.125,238.873,317,232.539,306.5z"></path><path style="fill:#6E6E6E;stroke:#000000;stroke-linecap:round;stroke-linejoin:round;" d="M240.746,315.52c-0.097-2.391-5.666-28.46-11.833-34.354c0,0-8.333,3.453-12.999,11.704c0,0,14.04,8.842,17.374,14.398c3.333,5.558,7.5,15.367,7.5,18.566C240.788,325.835,240.913,319.646,240.746,315.52z"></path><g><g><line style="fill:none;stroke:#000000;stroke-linecap:round;stroke-linejoin:round;" x1="236.288" y1="313.71" x2="236.219" y2="314.708"></line><line style="fill:none;stroke:#000000;stroke-linecap:round;stroke-linejoin:round;stroke-dasharray:2.0432 2.0432;" x1="236.079" y1="316.746" x2="233.053" y2="360.571"></line><line style="fill:none;stroke:#000000;stroke-linecap:round;stroke-linejoin:round;" x1="232.982" y1="361.59" x2="232.914" y2="362.588"></line></g></g><g><g><path style="fill:none;stroke:#000000;stroke-linecap:round;stroke-linejoin:round;" d="M239.163,356.272c0,0-0.357-0.007-0.997-0.013"></path><path style="fill:none;stroke:#000000;stroke-linecap:round;stroke-linejoin:round;stroke-dasharray:1.9183 1.9183;" d="M236.25,356.25c-5.893-0.009-19.224,0.165-25.796,1.8"></path><path style="fill:none;stroke:#000000;stroke-linecap:round;stroke-linejoin:round;" d="M209.525,358.305c-0.341,0.104-0.656,0.212-0.944,0.326"></path></g></g><g><g><path style="fill:none;stroke:#000000;stroke-linecap:round;stroke-linejoin:round;" d="M223.289,375.597c0,0-0.236,0.286-0.68,0.729"></path><path style="fill:none;stroke:#000000;stroke-linecap:round;stroke-linejoin:round;stroke-dasharray:1.9234 1.9234;" d="M221.176,377.606c-0.776,0.625-1.749,1.308-2.887,1.905c-2.664,1.4-11.326,7.85-14.828,11.286"></path><path style="fill:none;stroke:#000000;stroke-linecap:round;stroke-linejoin:round;" d="M202.789,391.491c-0.272,0.298-0.484,0.561-0.624,0.777"></path></g></g><g><g><path style="fill:none;stroke:#000000;stroke-linecap:round;stroke-linejoin:round;" d="M227.414,372.061c0,0-0.332-0.228-0.832-0.55"></path><path style="fill:none;stroke:#000000;stroke-linecap:round;stroke-linejoin:round;stroke-dasharray:2.0924 2.0924;" d="M224.794,370.42c-0.853-0.484-1.717-0.913-2.255-1.012c-1.08-0.198-5.632-2.034-8.201-3.73"></path><path style="fill:none;stroke:#000000;stroke-linecap:round;stroke-linejoin:round;" d="M213.49,365.061c-0.299-0.244-0.539-0.481-0.701-0.704"></path></g></g></g><g><path d="M237.366,360.348c0,0-0.835-2.14-1.637-2.173c-0.798-0.03-1.649,2.14-1.649,2.14S235.605,361.395,237.366,360.348z"></path><g><g><path d="M235.288,377.834c-1.729,0-3.135-1.419-3.135-3.164c0-1.743,1.406-3.162,3.135-3.162c1.729,0,3.137,1.419,3.137,3.162C238.424,376.415,237.017,377.834,235.288,377.834z M235.288,372.508c-1.177,0-2.135,0.97-2.135,2.162c0,1.193,0.958,2.164,2.135,2.164c1.178,0,2.137-0.971,2.137-2.164C237.424,373.478,236.466,372.508,235.288,372.508z"></path></g><g><path style="fill:#FF7F00;" d="M235.288,377.154c-1.357,0-2.462-1.114-2.462-2.484c0-1.369,1.104-2.482,2.462-2.482c1.358,0,2.464,1.113,2.464,2.482C237.751,376.04,236.646,377.154,235.288,377.154z M235.288,373.188c-0.806,0-1.462,0.665-1.462,1.482c0,0.818,0.656,1.484,1.462,1.484c0.807,0,1.464-0.666,1.464-1.484C236.751,373.853,236.095,373.188,235.288,373.188z"></path></g></g><g><path style="fill:#FF7F00;" d="M234.997,373.528c-0.215,0-0.413-0.139-0.479-0.355c-0.604-1.996,0.064-12.469,0.143-13.656c0.018-0.275,0.263-0.492,0.532-0.466c0.276,0.019,0.484,0.257,0.466,0.532c-0.209,3.177-0.65,11.759-0.184,13.301c0.08,0.264-0.069,0.543-0.333,0.623C235.093,373.521,235.044,373.528,234.997,373.528z"></path></g><g><path style="fill:#FF7F00;" d="M235.871,373.571c-0.264,0-0.484-0.206-0.499-0.473c-0.146-2.713,0.33-13.114,0.351-13.557c0.013-0.275,0.258-0.515,0.522-0.476c0.276,0.013,0.489,0.246,0.477,0.522c-0.005,0.107-0.494,10.793-0.351,13.455c0.015,0.276-0.197,0.512-0.473,0.526C235.889,373.571,235.88,373.571,235.871,373.571z"></path></g></g></g></g></g></svg>