<svg xmlns="http://www.w3.org/2000/svg" width="500" height="500" version="1.1"><g id="x012"><g><g><g><path style="fill:#FFFFFF;stroke:#000000;stroke-linecap:round;stroke-linejoin:round;" d="M198.298,345.167c0,0-2.5,5-2.333,7c2.667,2.5,12.333,5.5,13.667,5.5c1.667-2.166,2.667-6,2.667-6L198.298,345.167z"></path><g><path style="fill:#6E6E6E;stroke:#000000;stroke-linecap:round;stroke-linejoin:round;" d="M224.465,288.834c0,0-5.167,4.666-8.167,11.833s-6.167,16.334-6.167,16.334s-12.667,15.833-13.833,19.5c-0.5,4.833,2,10.5,2,10.5s12.5,5.499,14.5,5.166c2.167-1.167,4.236-3.06,6-6.166c4.696-8.271,7-19,7-19l4.333-29.167L224.465,288.834z"></path><path style="fill:#505050;" d="M226.631,303.834c0,0-4.167,2.667-4.667,4.167s-0.333,6.5,3,11.333C228.131,314.667,226.631,303.834,226.631,303.834z"></path><path style="fill:none;stroke:#000000;stroke-linecap:round;stroke-linejoin:round;" d="M221.465,305.001c0,0,0.666,6.5,4.833,10.833"></path></g></g><g><path style="fill:#FFFFFF;stroke:#000000;stroke-linecap:round;stroke-linejoin:round;" d="M301.701,345.167c0,0,2.499,5,2.333,7c-2.667,2.5-12.333,5.5-13.666,5.5c-1.667-2.166-2.667-6-2.667-6L301.701,345.167z"></path><g><path style="fill:#6E6E6E;stroke:#000000;stroke-linecap:round;stroke-linejoin:round;" d="M275.534,288.834c0,0,5.167,4.666,8.167,11.833s6.167,16.334,6.167,16.334s12.666,15.833,13.833,19.5c0.5,4.833-2,10.5-2,10.5s-12.5,5.499-14.5,5.166c-2.167-1.167-4.236-3.06-6-6.166c-4.696-8.271-7-19-7-19l-4.333-29.167L275.534,288.834z"></path><path style="fill:#505050;" d="M273.368,303.834c0,0,4.166,2.667,4.666,4.167s0.334,6.5-3,11.333C271.868,314.667,273.368,303.834,273.368,303.834z"></path><path style="fill:none;stroke:#000000;stroke-linecap:round;stroke-linejoin:round;" d="M278.534,305.001c0,0-0.666,6.5-4.833,10.833"></path><path style="fill:#FFBF00;stroke:#000000;stroke-linecap:round;stroke-linejoin:round;" d="M279.813,293.872c0,0-0.313,5.298,0.103,6.268c-1.352,0.865-3.084,4.19-3.084,4.19l4.466,0.382c0,0,0.692,4.294,2.389,5.576c1.282-1.696,2.147-3.955,2.147-3.955S286.495,298.758,279.813,293.872z"></path></g></g></g><g><g><g><path style="fill:#FFFFFF;stroke:#000000;stroke-linecap:round;stroke-linejoin:round;" d="M216.795,351.899c0,0-2.183,5.614-0.312,9.046c6.55,6.55,16.531,7.797,22.458,8.732c0.312-3.119,0.623-11.853,0.623-11.853L216.795,351.899z"></path><g><g><path style="fill:#6E6E6E;stroke:#000000;stroke-linecap:round;stroke-linejoin:round;" d="M228.465,296.834c0,0-2.333,5.166-2.833,9.833s-1.667,21-1.667,21s-9.333,20.334-9.167,25.334c2.5,5.333,12.667,10,24.333,10.5c2.333-36,6.746-55.504,6.746-55.504C240.098,305.001,228.465,296.834,228.465,296.834z"></path><path style="fill:#FFFFFF;stroke:#000000;stroke-linecap:round;stroke-linejoin:round;" d="M221.965,359.334c0,0,0.5-7.167,1.833-9.667c2.167,0.667,7.667,2.167,7.667,2.167s0.667-6.333,1.5-7.667c3.167,0.5,7.5,1.167,7.5,1.167l-1.333,18.167C234.131,363.501,227.465,362.334,221.965,359.334z"></path></g><g><path style="fill:#FFFFFF;stroke:#000000;stroke-linecap:round;stroke-linejoin:round;" d="M239.229,363.565c2.3-35.489,6.679-55.153,6.723-55.348l0,0c0.122-0.539-0.216-1.074-0.755-1.196s-1.074,0.216-1.196,0.755l0,0c-0.044,0.196-4.456,19.993-6.768,55.66l0,0c-0.036,0.551,0.382,1.026,0.934,1.063C238.718,364.534,239.194,364.117,239.229,363.565L239.229,363.565z"></path></g></g></g><g><path style="fill:#6E6E6E;stroke:#000000;stroke-linecap:round;stroke-linejoin:round;" d="M245.782,307.997c0.748,0.228-8.439-8.958-5.538-27.103c-10.021-1.837-15.56,5.743-16.351,8.039C223.893,288.934,223.893,301.336,245.782,307.997z"></path><path style="fill:#FFFFFF;stroke:#000000;stroke-linecap:round;stroke-linejoin:round;" d="M246.077,307.997c0,0-8.704-8.498-10.549-12.633c-1.847-4.134,0.791-14.929,5.01-16.766C239.747,285.718,243.967,306.619,246.077,307.997z"></path></g></g><g><g><path style="fill:#FFFFFF;stroke:#000000;stroke-linecap:round;stroke-linejoin:round;" d="M283.204,351.899c0,0,2.183,5.614,0.312,9.046c-6.55,6.55-16.53,7.797-22.458,8.732c-0.312-3.119-0.623-11.853-0.623-11.853L283.204,351.899z"></path><g><g><path style="fill:#6E6E6E;stroke:#000000;stroke-linecap:round;stroke-linejoin:round;" d="M271.534,296.834c0,0,2.334,5.166,2.834,9.833s1.666,21,1.666,21s9.334,20.334,9.167,25.334c-2.5,5.333-12.667,10-24.333,10.5c-2.334-36-6.746-55.504-6.746-55.504C259.901,305.001,271.534,296.834,271.534,296.834z"></path><path style="fill:#FFFFFF;stroke:#000000;stroke-linecap:round;stroke-linejoin:round;" d="M278.034,359.334c0,0-0.5-7.167-1.833-9.667c-2.167,0.667-7.667,2.167-7.667,2.167s-0.667-6.333-1.5-7.667c-3.166,0.5-7.5,1.167-7.5,1.167l1.334,18.167C265.868,363.501,272.534,362.334,278.034,359.334z"></path></g><g><path style="fill:#FFFFFF;stroke:#000000;stroke-linecap:round;stroke-linejoin:round;" d="M260.77,363.565c-2.3-35.489-6.679-55.153-6.724-55.348l0,0c-0.121-0.539,0.217-1.074,0.756-1.196c0.538-0.122,1.074,0.216,1.195,0.755l0,0c0.045,0.196,4.457,19.993,6.769,55.66l0,0c0.036,0.551-0.382,1.026-0.934,1.063C261.281,364.534,260.806,364.117,260.77,363.565L260.77,363.565z"></path></g><path style="fill:#7D7D7D;stroke:#000000;stroke-linecap:round;stroke-linejoin:round;" d="M263.25,362.709c0.425,0.425,0.958,6.459,0.708,6.792s-2,0.833-2.791,0.333c-0.542-0.833-0.917-6.584-0.709-6.875S262.083,362.376,263.25,362.709z"></path></g></g><g><path style="fill:#6E6E6E;stroke:#000000;stroke-linecap:round;stroke-linejoin:round;" d="M254.218,307.997c-0.748,0.228,8.438-8.958,5.537-27.103c10.021-1.837,15.561,5.743,16.352,8.039C276.106,288.934,276.106,301.336,254.218,307.997z"></path><path style="fill:#FFFFFF;stroke:#000000;stroke-linecap:round;stroke-linejoin:round;" d="M253.922,307.997c0,0,8.704-8.498,10.55-12.633c1.846-4.134-0.791-14.929-5.01-16.766C260.252,285.718,256.032,306.619,253.922,307.997z"></path></g></g></g></g></g></svg>