<svg xmlns="http://www.w3.org/2000/svg" width="500" height="500" version="1.1"><g id="x013"><g><g><g><path style="fill:#6E6E6E;stroke:#000000;stroke-linecap:round;stroke-linejoin:round;" d="M220.938,292.834c0,0-4.833,7.499-6.833,12.166s-4.569,14.486-5.667,16.167c-5.333,8.167-7.667,11.333-8.833,13c-1.167,3.667,0.167,9,0.167,9s-3.834,8.833-3.667,10.333c1,2.5,11.167,6.333,12.833,6.5c2.167-2.333,3.833-5.166,5-9c4.833-4.833,10.167-19.334,11.333-25.5c1.833-12.5,5.5-31,5.5-31S227.105,290.834,220.938,292.834z"></path><path style="fill:#505050;" d="M224.272,319.667c-0.5-0.833-3.167-7.999-2.333-10.833s4.667-6,4.667-6L224.272,319.667z"></path><path style="fill:none;stroke:#000000;stroke-linecap:round;stroke-linejoin:round;" d="M221.105,304.167c0,0,0.5,5.499,4,9.833"></path><path style="fill:none;stroke:#000000;stroke-linecap:round;stroke-linejoin:round;" d="M201.772,345.167c0,0,2.167,3,9,5.167"></path></g><g><path style="fill:#6E6E6E;stroke:#000000;stroke-linecap:round;stroke-linejoin:round;" d="M279.063,292.834c0,0,4.832,7.499,6.832,12.166s4.57,14.486,5.668,16.167c5.332,8.167,7.666,11.333,8.832,13c1.168,3.667-0.166,9-0.166,9s3.834,8.833,3.666,10.333c-1,2.5-11.166,6.333-12.832,6.5c-2.168-2.333-3.834-5.166-5-9c-4.834-4.833-10.168-19.334-11.334-25.5c-1.834-12.5-5.5-31-5.5-31S272.895,290.834,279.063,292.834z"></path><path style="fill:#505050;" d="M275.729,319.667c0.5-0.833,3.166-7.999,2.334-10.833c-0.834-2.834-4.668-6-4.668-6L275.729,319.667z"></path><path style="fill:none;stroke:#000000;stroke-linecap:round;stroke-linejoin:round;" d="M278.895,304.167c0,0-0.5,5.499-4,9.833"></path><path style="fill:none;stroke:#000000;stroke-linecap:round;stroke-linejoin:round;" d="M298.229,345.167c0,0-2.168,3-9,5.167"></path></g></g><g><g><g><path style="fill:#6E6E6E;stroke:#000000;stroke-linecap:round;stroke-linejoin:round;" d="M229.938,294.667c0,0-2.167,4-4,11s-1.5,21-2,22.5s-3.833,7-4.5,9s-0.5,5.167-0.5,5.167s-2.833,5-3.5,7.833s-1.5,12.667,0.167,15.5c3.667,1.333,13,3.833,16.333,3c2.333-6.167,5.167-23.333,6.667-36.333s1.867-24.834,1.867-24.834S239.272,299,229.938,294.667z"></path><path style="fill:#505050;" d="M227.938,300.834c0,0,1.667-4.833,2.5-6c2.667,0.5,6.667,5.333,6.667,5.333l1.167,4.667C238.272,304.834,232.605,300.501,227.938,300.834z"></path></g><g><path style="fill:#6E6E6E;stroke:#000000;stroke-linecap:round;stroke-linejoin:round;" d="M270.063,294.667c0,0,2.166,4,4,11c1.832,7,1.5,21,2,22.5s3.832,7,4.5,9c0.666,2,0.5,5.167,0.5,5.167s2.832,5,3.5,7.833c0.666,2.833,1.5,12.667-0.168,15.5c-3.666,1.333-13,3.833-16.332,3c-2.334-6.167-5.168-23.333-6.668-36.333s-1.865-24.834-1.865-24.834S260.729,299,270.063,294.667z"></path><path style="fill:#505050;" d="M272.063,300.834c0,0-1.668-4.833-2.5-6c-2.668,0.5-6.668,5.333-6.668,5.333l-1.166,4.667C261.729,304.834,267.395,300.501,272.063,300.834z"></path></g></g><g><g><path style="fill:#6E6E6E;stroke:#000000;stroke-linecap:round;stroke-linejoin:round;" d="M240.272,311c1.429-10.145-7.452-23.738-7.667-25.666c-0.214-1.929,7.441-3.817,7.441-3.817s1.071-1.5,0.857-4.285c-1.072-0.643-10.93,0.857-12.858,1.5s-7.072,6.43-7.072,6.43s-6.154,4.768-6.368,5.839c-0.214,1.07,3.267,7,3.267,7s1.8-3,3.634-5c0.428-0.428,7.1,0.334,12.267,5c0,0,3.833,6.333,4.333,10"></path><path style="fill:#505050;" d="M232.438,284.667c0,0,0.167-1.001,7.167-3.667c0.5-1.333,1-3,1-3s-8,1.333-9.833,3C230.938,283.167,232.438,284.667,232.438,284.667z"></path><path style="fill:none;stroke:#000000;stroke-linecap:round;stroke-linejoin:round;" d="M230.223,280.663c0,0,1.082,1.822,2.148,4.384"></path></g><g><path style="fill:#6E6E6E;stroke:#000000;stroke-linecap:round;stroke-linejoin:round;" d="M259.729,311c-1.43-10.145,7.451-23.738,7.666-25.666c0.215-1.929-7.441-3.817-7.441-3.817s-1.07-1.5-0.857-4.285c1.072-0.643,10.93,0.857,12.859,1.5c1.928,0.643,7.072,6.43,7.072,6.43s6.154,4.768,6.367,5.839c0.215,1.07-3.266,7-3.266,7s-1.801-3-3.635-5c-0.428-0.428-7.1,0.334-12.266,5c0,0-3.834,6.333-4.334,10"></path><path style="fill:#505050;" d="M267.563,284.667c0,0-0.168-1.001-7.168-3.667c-0.5-1.333-1-3-1-3s8,1.333,9.834,3C269.063,283.167,267.563,284.667,267.563,284.667z"></path><path style="fill:none;stroke:#000000;stroke-linecap:round;stroke-linejoin:round;" d="M269.777,280.663c0,0-1.082,1.822-2.148,4.384"></path></g></g></g></g></g></svg>