<svg xmlns="http://www.w3.org/2000/svg" width="500" height="500" version="1.1"><g id="x014"><g><g><g><g><path style="fill:#FFFFFF;stroke:#000000;stroke-linecap:round;stroke-linejoin:round;" d="M198.124,347.167c0,0-2.333,4.5-2.5,6c1.833,2.666,8.167,6,14.167,6.166c1.667-3.166,2.667-7.166,2.667-7.166L198.124,347.167z"></path><path style="fill:#666666;" d="M198.229,348.063c0,0-0.875,1.688-1.063,2.063c0.5,1.5,7.625,6.688,13.563,6c0.5-1.5,0.938-2.688,0.938-2.688S198.291,348.125,198.229,348.063z"></path></g><g><path style="fill:#FFFFFF;stroke:#000000;stroke-linecap:round;stroke-linejoin:round;" d="M225.791,287.5c0,0-3.333,1.666-5.833,7s-7.833,18.667-7.833,18.667s-5.667,7.333-6.333,9.166c-0.333,2.5-0.5,4.667-0.5,4.667s-5.833,4.667-6.667,6.667s0.833,6.833,0.833,6.833s-2.667,4.167-2.667,4.667s2.126,4.424,7.667,6.833c7.667,3.333,10.75-0.416,13.083-1.25c0.667-1-0.25-5.083-0.25-5.083l12.333-26.5l2.833-26.5L225.791,287.5z"></path><path style="fill:#DCDCDC;" d="M206.25,322.833c-0.208,0.75-0.458,3.084-0.292,4.834c1.292,2.041,5,3.499,5.667,3.666C210.125,327.167,206.25,322.833,206.25,322.833z"></path><path style="fill:#DCDCDC;" d="M227.458,300.5c0,0-3.833,1.499-4.833,4.833s0.833,6.666,2.5,8.5C227.791,310.667,227.458,300.5,227.458,300.5z"></path><path style="fill:none;stroke:#000000;stroke-linecap:round;stroke-linejoin:round;" d="M222.125,302.5c0,0,0.333,6.667,3.5,10.167"></path></g></g><g><g><path style="fill:#FFFFFF;stroke:#000000;stroke-linecap:round;stroke-linejoin:round;" d="M301.876,347.167c0,0,2.333,4.5,2.5,6c-1.834,2.666-8.167,6-14.167,6.166c-1.666-3.166-2.666-7.166-2.666-7.166L301.876,347.167z"></path><path style="fill:#666666;" d="M301.771,348.063c0,0,0.875,1.688,1.063,2.063c-0.5,1.5-7.625,6.688-13.563,6c-0.5-1.5-0.938-2.688-0.938-2.688S301.709,348.125,301.771,348.063z"></path></g><g><path style="fill:#FFFFFF;stroke:#000000;stroke-linecap:round;stroke-linejoin:round;" d="M274.209,287.5c0,0,3.334,1.666,5.834,7s7.832,18.667,7.832,18.667s5.667,7.333,6.334,9.166c0.333,2.5,0.5,4.667,0.5,4.667s5.833,4.667,6.666,6.667c0.834,2-0.833,6.833-0.833,6.833s2.667,4.167,2.667,4.667s-2.127,4.424-7.667,6.833c-7.667,3.333-10.749-0.416-13.083-1.25c-0.666-1,0.25-5.083,0.25-5.083l-12.334-26.5l-2.833-26.5L274.209,287.5z"></path><path style="fill:#DCDCDC;" d="M293.75,322.833c0.209,0.75,0.459,3.084,0.292,4.834c-1.292,2.041-5,3.499-5.667,3.666C289.875,327.167,293.75,322.833,293.75,322.833z"></path><path style="fill:#DCDCDC;" d="M272.542,300.5c0,0,3.833,1.499,4.833,4.833s-0.833,6.666-2.5,8.5C272.209,310.667,272.542,300.5,272.542,300.5z"></path><path style="fill:none;stroke:#000000;stroke-linecap:round;stroke-linejoin:round;" d="M277.875,302.5c0,0-0.333,6.667-3.5,10.167"></path></g></g></g><g><g><g><g><path style="fill:#6E6E6E;stroke:#000000;stroke-linecap:round;stroke-linejoin:round;" d="M217.125,352.333c0,0-1.667,5.334-0.833,7.834c4,3.333,19.833,5.834,23.333,5c0.833-4.334-0.167-8-0.167-8L217.125,352.333z"></path><path style="fill:#6E6E6E;stroke:#000000;stroke-linecap:round;stroke-linejoin:round;" d="M230.625,293.5c0,0-4,8.999-4.833,12.333s-1.666,20.668-2.333,22.334s-9,19.167-9.167,20.5s3.667,5.833,3.667,5.833c4,2.167,18.333,4.333,21.5,3.833c1.5-3.5,2.333-6,2.333-6l4-51.666L230.625,293.5z"></path><g><ellipse style="fill:#666666;stroke:#000000;stroke-linecap:round;stroke-linejoin:round;" cx="242.104" cy="310.5" rx="2.813" ry="3.5"></ellipse><ellipse style="fill:#666666;stroke:#000000;stroke-linecap:round;stroke-linejoin:round;" cx="240.771" cy="328.833" rx="2.813" ry="3.5"></ellipse><ellipse style="fill:#666666;stroke:#000000;stroke-linecap:round;stroke-linejoin:round;" cx="239.437" cy="347.166" rx="2.813" ry="3.5"></ellipse></g></g><g><path style="fill:#FFFFFF;stroke:#000000;stroke-linecap:round;stroke-linejoin:round;" d="M216.541,341.979c0,0,2.343-5.565,2.929-6.444c3.071-3.159,6.696-5.284,10.253-7.323c0.568,0.289,1.758,5.272,1.758,5.272s-3.69,8.142-6.445,10.253C220.166,343.625,216.541,341.979,216.541,341.979z"></path><ellipse style="fill:#666666;stroke:#000000;stroke-linecap:round;stroke-linejoin:round;" cx="222.695" cy="336.706" rx="2.346" ry="3.222"></ellipse></g></g><g><path style="fill:#FFFFFF;stroke:#000000;stroke-linecap:round;stroke-linejoin:round;" d="M239.625,281c0,0-3.167,7.833,6.5,19.5c-8.833-0.333-19.5-7.5-21.167-13c5.833-6,13-7.166,13.5-7.333c0.833,0.042,2.125,0.542,2.125,0.542L239.625,281z"></path><path style="fill:#666666;" d="M228.291,285.25c0,0,4.688,8.625,13.813,10.438c-0.688-1.125-1.563-3.313-1.563-3.313s-7.188-4.313-9.063-9.125C229.854,283.875,228.291,285.25,228.291,285.25z"></path></g></g><g><g><g><path style="fill:#6E6E6E;stroke:#000000;stroke-linecap:round;stroke-linejoin:round;" d="M282.875,352.333c0,0,1.668,5.334,0.834,7.834c-4,3.333-19.834,5.834-23.334,5c-0.833-4.334,0.167-8,0.167-8L282.875,352.333z"></path><path style="fill:#6E6E6E;stroke:#000000;stroke-linecap:round;stroke-linejoin:round;" d="M269.375,293.5c0,0,4.001,8.999,4.834,12.333s1.666,20.668,2.333,22.334s9.001,19.167,9.167,20.5s-3.667,5.833-3.667,5.833c-4,2.167-18.333,4.333-21.5,3.833c-1.5-3.5-2.333-6-2.333-6l-4-51.666L269.375,293.5z"></path><g><ellipse style="fill:#666666;stroke:#000000;stroke-linecap:round;stroke-linejoin:round;" cx="257.896" cy="310.5" rx="2.813" ry="3.5"></ellipse><ellipse style="fill:#666666;stroke:#000000;stroke-linecap:round;stroke-linejoin:round;" cx="259.229" cy="328.833" rx="2.813" ry="3.5"></ellipse><ellipse style="fill:#666666;stroke:#000000;stroke-linecap:round;stroke-linejoin:round;" cx="260.563" cy="347.166" rx="2.813" ry="3.5"></ellipse></g></g><g><path style="fill:#FFFFFF;stroke:#000000;stroke-linecap:round;stroke-linejoin:round;" d="M283.459,341.979c0,0-2.344-5.565-2.93-6.444c-3.07-3.159-6.695-5.284-10.252-7.323c-0.568,0.289-1.758,5.272-1.758,5.272s3.689,8.142,6.444,10.253C279.834,343.625,283.459,341.979,283.459,341.979z"></path><ellipse style="fill:#666666;stroke:#000000;stroke-linecap:round;stroke-linejoin:round;" cx="277.305" cy="336.706" rx="2.346" ry="3.222"></ellipse></g></g><g><path style="fill:#FFFFFF;stroke:#000000;stroke-linecap:round;stroke-linejoin:round;" d="M260.375,281c0,0,3.167,7.833-6.5,19.5c8.834-0.333,19.5-7.5,21.168-13c-5.834-6-13-7.166-13.5-7.333c-0.834,0.042-2.125,0.542-2.125,0.542L260.375,281z"></path><path style="fill:#666666;" d="M271.709,285.25c0,0-4.688,8.625-13.813,10.438c0.688-1.125,1.563-3.313,1.563-3.313s7.188-4.313,9.063-9.125C270.146,283.875,271.709,285.25,271.709,285.25z"></path></g></g></g></g></g></svg>