<svg xmlns="http://www.w3.org/2000/svg" width="500" height="500" version="1.1"><g id="x017"><g><g><g><path style="fill:#3F3F3F;stroke:#000000;stroke-linecap:round;stroke-linejoin:round;" d="M194.875,354.25c0,0,3.25,0,6.75,2s6.25,4.75,6.25,4.75s3.5-2.75,3.75-3.75s1.25-3.75,1.25-3.75l10.5-19l9.75-44.5c0,0-7.75-1.5-10.25-0.25c-6.25,5.5-13.5,25.5-16,33.5c-5,8-14.75,23-15,26.25c0.25,1,1.5,7.25,1.5,7.25L194.875,354.25z"></path><path style="fill:#212121;" d="M225.75,301.375l-2.375,12.875c0,0-3.125-6.375-2.375-9.25S225.75,301.375,225.75,301.375z"></path><path style="fill:none;stroke:#000000;stroke-linecap:round;stroke-linejoin:round;" d="M220.875,303c0,0.375,0.75,5.25,3.375,8.875"></path></g><g><path style="fill:#3F3F3F;stroke:#000000;stroke-linecap:round;stroke-linejoin:round;" d="M305.125,354.25c0,0-3.25,0-6.75,2s-6.25,4.75-6.25,4.75s-3.5-2.75-3.75-3.75s-1.25-3.75-1.25-3.75l-10.5-19l-9.75-44.5c0,0,7.75-1.5,10.25-0.25c6.25,5.5,13.5,25.5,16,33.5c5,8,14.75,23,15,26.25c-0.25,1-1.5,7.25-1.5,7.25L305.125,354.25z"></path><path style="fill:#212121;" d="M274.25,301.375l2.375,12.875c0,0,3.125-6.375,2.375-9.25S274.25,301.375,274.25,301.375z"></path><path style="fill:none;stroke:#000000;stroke-linecap:round;stroke-linejoin:round;" d="M279.125,303c0,0.375-0.75,5.25-3.375,8.875"></path></g></g><g><g><g><path style="fill:#6E6E6E;stroke:#000000;stroke-linecap:round;stroke-linejoin:round;" d="M243.75,305.125c0,0-1,16.875-1,19.875s-1.625,38.75-2.375,40.5c-2.5,1.25-4.25,0.75-4.25,0.75l-2.75,1.5c0,0-17-0.25-20.75-6.5c1.25-9,6.25-22.75,8.25-25.5c4.75-5.5,10.25-34,10.25-34L243.75,305.125z"></path><path style="fill:#505050;" d="M233.625,367l2.125-1.125l2.25-0.25c0,0-1.125-9-1.875-9.5S233.625,367,233.625,367z"></path></g><g><path style="fill:#3F3F3F;stroke:#000000;stroke-linecap:round;stroke-linejoin:round;" d="M229.625,292c0,0-4,8-5,13.25s-3,22-3,22l-3,9.5c0,0,6.5,4.25,15.5,4.25c-0.25-13.25,1.25-40,1.25-40L229.625,292z"></path><g><path style="fill:#3F3F3F;stroke:#000000;stroke-linecap:round;stroke-linejoin:round;" d="M233.84,282.034c0,1.95,1.558,11.983,3.117,14.212c1.558,2.229,7.293,8.754,7.293,8.754c-7.791-1.115-11.969-2.623-13.215-4.574C231.289,294.75,233.84,282.034,233.84,282.034z"></path><path style="fill:#3F3F3F;stroke:#000000;stroke-linecap:round;stroke-linejoin:round;" d="M232.904,294.574c0,0-1.559-2.787-2.494-2.787c-0.935,0-10.286,7.245-10.286,7.245s1.559-7.803,5.923-14.49c3.117-3.065,9.038-6.409,9.038-6.409s4.081,1.434,4.053,2.787c-2.182,0.557-3.429,1.672-4.364,1.95c-1.871,5.853,1.346,11.23,2.182,13.098"></path></g></g></g><g><g><path style="fill:#6E6E6E;stroke:#000000;stroke-linecap:round;stroke-linejoin:round;" d="M256.25,305.125c0,0,1,16.875,1,19.875s1.625,38.75,2.375,40.5c2.5,1.25,4.25,0.75,4.25,0.75l2.75,1.5c0,0,17-0.25,20.75-6.5c-1.25-9-6.25-22.75-8.25-25.5c-4.75-5.5-10.25-34-10.25-34L256.25,305.125z"></path><path style="fill:#505050;" d="M266.375,367l-2.125-1.125l-2.25-0.25c0,0,1.125-9,1.875-9.5S266.375,367,266.375,367z"></path></g><g><path style="fill:#3F3F3F;stroke:#000000;stroke-linecap:round;stroke-linejoin:round;" d="M270.375,292c0,0,4,8,5,13.25s3,22,3,22l3,9.5c0,0-6.5,4.25-15.5,4.25c0.25-13.25-1.25-40-1.25-40L270.375,292z"></path><g><path style="fill:#3F3F3F;stroke:#000000;stroke-linecap:round;stroke-linejoin:round;" d="M266.16,282.034c0,1.95-1.558,11.983-3.117,14.212c-1.557,2.229-7.293,8.754-7.293,8.754c7.791-1.115,11.969-2.623,13.215-4.574C268.711,294.75,266.16,282.034,266.16,282.034z"></path><path style="fill:#3F3F3F;stroke:#000000;stroke-linecap:round;stroke-linejoin:round;" d="M267.096,294.574c0,0,1.559-2.787,2.494-2.787c0.934,0,10.285,7.245,10.285,7.245s-1.559-7.803-5.923-14.49c-3.116-3.065-9.038-6.409-9.038-6.409s-4.081,1.434-4.053,2.787c2.182,0.557,3.43,1.672,4.363,1.95c1.871,5.853-1.346,11.23-2.182,13.098"></path></g></g></g></g></g></g></svg>