<svg xmlns="http://www.w3.org/2000/svg" width="500" height="500" version="1.1"><g id="x018"><g><g><g><path style="fill:#6E6E6E;stroke:#000000;stroke-linecap:round;stroke-linejoin:round;" d="M196.279,349.833c0,0,5,4.833,16.333,7.167c3-4.834,14.667-31.5,14.667-31.5l4-29.334l-6.667-7.833c0,0-3.833,4.834-7.333,10.667s-7.333,20.166-7.333,20.166s-2,1.334-2.167,1.834s0.5,2.666,0.333,3.166C207.279,325.833,199.946,340.833,196.279,349.833z"></path><path style="fill:#505050;" d="M225.362,311.375c0,0-3.375,2.625-4.25,4.875s2.25,9.5,4.625,10.75C227.737,320,225.362,311.375,225.362,311.375z"></path><path style="fill:none;stroke:#000000;stroke-linecap:round;stroke-linejoin:round;" d="M219.862,313.25c0,0,1,5.375,5,9.25"></path><ellipse style="fill:#FFBF00;stroke:#000000;stroke-linecap:round;stroke-linejoin:round;" cx="197.932" cy="344.222" rx="2.374" ry="2.769"></ellipse><path style="fill:#6E6E6E;stroke:#000000;stroke-linecap:round;stroke-linejoin:round;" d="M201.279,338.833c-1.667,0.5-1.667,0.833-2,1c-1.41,3.003-4.36,9.57-4.229,10.354c0.167,1,1.563,4.646,8.229,7.479c4.472,1.9,10.5,2.167,11.5,1.667c1.5-1.5,5.333-13,5.333-13s-6.5-0.167-12.333-2.667C204.226,342.144,202.209,340.033,201.279,338.833z"></path><path style="fill:#6E6E6E;stroke:#000000;stroke-linecap:round;stroke-linejoin:round;" d="M208.362,343.625c0,0-2.875,8.625-3.25,8.625s-4.375-1.75-4.75-2.625c1-3.375,3.25-8.625,3.25-8.625S207.654,342.666,208.362,343.625z"></path></g><g><path style="fill:#6E6E6E;stroke:#000000;stroke-linecap:round;stroke-linejoin:round;" d="M303.721,349.833c0,0-5,4.833-16.333,7.167c-3-4.834-14.667-31.5-14.667-31.5l-4-29.334l6.667-7.833c0,0,3.833,4.834,7.333,10.667s7.333,20.166,7.333,20.166s2,1.334,2.167,1.834s-0.499,2.666-0.333,3.166C292.721,325.833,300.054,340.833,303.721,349.833z"></path><path style="fill:#505050;" d="M274.638,311.375c0,0,3.375,2.625,4.25,4.875s-2.25,9.5-4.625,10.75C272.263,320,274.638,311.375,274.638,311.375z"></path><path style="fill:none;stroke:#000000;stroke-linecap:round;stroke-linejoin:round;" d="M280.138,313.25c0,0-1,5.375-5,9.25"></path><ellipse style="fill:#FFBF00;stroke:#000000;stroke-linecap:round;stroke-linejoin:round;" cx="302.068" cy="344.222" rx="2.374" ry="2.769"></ellipse><path style="fill:#6E6E6E;stroke:#000000;stroke-linecap:round;stroke-linejoin:round;" d="M298.721,338.833c1.667,0.5,1.666,0.833,2,1c1.41,3.003,4.359,9.57,4.229,10.354c-0.167,1-1.563,4.646-8.229,7.479c-4.472,1.9-10.5,2.167-11.5,1.667c-1.5-1.5-5.333-13-5.333-13s6.5-0.167,12.333-2.667C295.773,342.144,297.791,340.033,298.721,338.833z"></path><path style="fill:#6E6E6E;stroke:#000000;stroke-linecap:round;stroke-linejoin:round;" d="M291.638,343.625c0,0,2.875,8.625,3.25,8.625s4.375-1.75,4.75-2.625c-1-3.375-3.25-8.625-3.25-8.625S292.346,342.666,291.638,343.625z"></path></g></g><g><g><g><path style="fill:#6E6E6E;stroke:#000000;stroke-linecap:round;stroke-linejoin:round;" d="M245.204,317.667c0,0-2.425,38.165-8.758,55.499c-5.833,0.167-21.5-5-23.833-8.5c0.833-10.5,10.167-32.666,11.667-36.333c0.667-4.667,0.333-16.833,1.833-20.5C230.946,309.666,245.204,317.667,245.204,317.667z"></path><circle style="fill:#FFBF00;stroke:#000000;stroke-linecap:round;stroke-linejoin:round;" cx="241.491" cy="323.289" r="2.769"></circle><circle style="fill:#FFBF00;stroke:#000000;stroke-linecap:round;stroke-linejoin:round;" cx="239.366" cy="340.539" r="2.769"></circle><circle style="fill:#FFBF00;stroke:#000000;stroke-linecap:round;stroke-linejoin:round;" cx="237.366" cy="354.039" r="2.769"></circle><path style="opacity:0.5;fill:none;stroke:#FFFFFF;stroke-linecap:round;stroke-linejoin:round;" d="M230.737,310.75c0,0-0.375,9.875,0.125,16.625c-2,7.875-10.5,40.852-10.5,40.852"></path><path style="fill:#6E6E6E;stroke:#000000;stroke-linecap:round;stroke-linejoin:round;" d="M224.487,325.25c0,0-1,3.75-0.75,5.375c1.75,2,14.375,4.5,20.125,4.875c1.125-2.625,0.625-6,0.625-6S225.987,326.125,224.487,325.25z"></path></g><path style="fill:#6E6E6E;stroke:#000000;stroke-linecap:round;stroke-linejoin:round;" d="M237.292,283.61c0,0,0.528,26.382,7.912,34.057c-4.483-1.918-17.67-8.634-26.637-10.793c3.166-5.516,10.286-9.353,10.286-9.353l-7.12-9.594c0,0,7.647-6.476,18.196-7.674C238.446,281.667,237.292,283.61,237.292,283.61z"></path><g><path style="fill:#6E6E6E;stroke:#000000;stroke-linecap:round;stroke-linejoin:round;" d="M215.362,353.125c0,0,2-9.875,4.25-12.75c6.125,1.125,12,2.75,12,2.75s-2.625,14.25-3.75,14.75C226.362,358.375,216.487,357.125,215.362,353.125z"></path><path style="fill:#6E6E6E;stroke:#000000;stroke-linecap:round;stroke-linejoin:round;" d="M218.712,340.375c0,0-1.85,4.75-1.85,5.875s4.75,4.625,5.5,4.875s7.5-0.375,8.125-1.125c1-2.75,2-6.75,1.5-7.25S220.712,339.625,218.712,340.375z"></path></g></g><g><g><path style="fill:#6E6E6E;stroke:#000000;stroke-linecap:round;stroke-linejoin:round;" d="M254.796,317.667c0,0,2.425,38.165,8.758,55.499c5.834,0.167,21.501-5,23.834-8.5c-0.834-10.5-10.167-32.666-11.667-36.333c-0.667-4.667-0.333-16.833-1.833-20.5C269.054,309.666,254.796,317.667,254.796,317.667z"></path><circle style="fill:#FFBF00;stroke:#000000;stroke-linecap:round;stroke-linejoin:round;" cx="258.509" cy="323.289" r="2.77"></circle><circle style="fill:#FFBF00;stroke:#000000;stroke-linecap:round;stroke-linejoin:round;" cx="260.634" cy="340.539" r="2.77"></circle><circle style="fill:#FFBF00;stroke:#000000;stroke-linecap:round;stroke-linejoin:round;" cx="262.634" cy="354.039" r="2.77"></circle><path style="opacity:0.5;fill:none;stroke:#FFFFFF;stroke-linecap:round;stroke-linejoin:round;" d="M269.263,310.75c0,0,0.375,9.875-0.125,16.625c2,7.875,10.5,40.852,10.5,40.852"></path><path style="fill:#6E6E6E;stroke:#000000;stroke-linecap:round;stroke-linejoin:round;" d="M275.513,325.25c0,0,1,3.75,0.75,5.375c-1.75,2-14.375,4.5-20.125,4.875c-1.125-2.625-0.625-6-0.625-6S274.013,326.125,275.513,325.25z"></path></g><path style="fill:#6E6E6E;stroke:#000000;stroke-linecap:round;stroke-linejoin:round;" d="M262.708,283.61c0,0-0.528,26.382-7.912,34.057c4.483-1.918,17.67-8.634,26.637-10.793c-3.166-5.516-10.285-9.353-10.285-9.353l7.119-9.594c0,0-7.646-6.476-18.195-7.674C261.554,281.667,262.708,283.61,262.708,283.61z"></path><g><path style="fill:#6E6E6E;stroke:#000000;stroke-linecap:round;stroke-linejoin:round;" d="M284.638,353.125c0,0-2-9.875-4.25-12.75c-6.125,1.125-12,2.75-12,2.75s2.625,14.25,3.75,14.75C273.638,358.375,283.513,357.125,284.638,353.125z"></path><path style="fill:#6E6E6E;stroke:#000000;stroke-linecap:round;stroke-linejoin:round;" d="M281.288,340.375c0,0,1.85,4.75,1.85,5.875s-4.75,4.625-5.5,4.875s-7.5-0.375-8.125-1.125c-1-2.75-2-6.75-1.5-7.25S279.288,339.625,281.288,340.375z"></path></g></g></g></g></g></svg>