<svg xmlns="http://www.w3.org/2000/svg" width="500" height="500" version="1.1"><g id="x002"><g><g><path style="fill:#6E6E6E;stroke:#000000;stroke-linecap:round;stroke-linejoin:round;" d="M206.625,319c-6.75,12-12.251,24.707-15.25,31.25c0,0,4,11.5,21.75,11c8.25-17.5,13.5-37.25,13.5-37.25l0.75-19l-14.5-3C212.875,302,211.375,304,206.625,319z"></path><path style="fill:#6E6E6E;stroke:#000000;stroke-linecap:round;stroke-linejoin:round;" d="M293.375,319c6.75,12,12.251,24.707,15.25,31.25c0,0-4,11.5-21.75,11c-8.25-17.5-13.5-37.25-13.5-37.25l-0.75-19l14.5-3C287.125,302,288.625,304,293.375,319z"></path></g><g><g><path style="fill:#6E6E6E;stroke:#000000;stroke-linecap:round;stroke-linejoin:round;" d="M238.875,337.5c0,0-1.75,57.75-2.75,68.25c-6.75,1.75-26.5-3.5-32.5-10.25c1-18.75,18.5-70.5,18.5-70.5s-0.25-17.75,0.5-20.75c5,0.25,8,3.25,8,3.25L238.875,337.5z"></path><path style="fill:#6E6E6E;stroke:#000000;stroke-linecap:round;stroke-linejoin:round;" d="M207.625,370.5c0,0-0.5,4,0.407,7.237c1.477,0.738,8.858-1.107,11.072-2.953c2.215-1.845,7.521-9.188,7.521-11.034c-1.75-4.75-3.091-7.42-3.091-7.42S209.375,366,207.625,370.5z"></path><ellipse transform="matrix(0.9951 0.0991 -0.0991 0.9951 35.9086 -21.4963)" style="fill:#EDEBE6;stroke:#000000;stroke-linecap:round;stroke-linejoin:round;" cx="234.254" cy="350.571" rx="2.768" ry="3.783"></ellipse><ellipse transform="matrix(0.9951 0.0991 -0.0991 0.9951 38.2752 -21.2664)" style="fill:#EDEBE6;stroke:#000000;stroke-linecap:round;stroke-linejoin:round;" cx="233.125" cy="374.5" rx="2.768" ry="3.783"></ellipse></g><g><path style="fill:#6E6E6E;stroke:#000000;stroke-linecap:round;stroke-linejoin:round;" d="M261.125,337.5c0,0,1.75,57.75,2.75,68.25c6.75,1.75,26.5-3.5,32.5-10.25c-1-18.75-18.5-70.5-18.5-70.5s0.25-17.75-0.5-20.75c-5,0.25-8,3.25-8,3.25L261.125,337.5z"></path><path style="fill:#6E6E6E;stroke:#000000;stroke-linecap:round;stroke-linejoin:round;" d="M292.375,370.5c0,0,0.5,4-0.407,7.237c-1.477,0.738-8.858-1.107-11.072-2.953c-2.215-1.845-7.521-9.188-7.521-11.034c1.75-4.75,3.091-7.42,3.091-7.42S290.625,366,292.375,370.5z"></path></g></g><g><path style="fill:#6E6E6E;stroke:#000000;stroke-linecap:round;stroke-linejoin:round;" d="M234.884,342.161c0,0,1.797-6.535,0.327-8.496c-1.471-1.96-12.99-12.58-14.215-13.315c-0.246-2.206,3.186-7.353,7.353-10.539c-3.186-1.715-8.026-5.105-20.117-6.086c-0.49-1.96,3.778-16.135,23.547-23.241c2.451,0.245,3.427,1.392,3.427,1.392s-2.625,1.125-3.25,2.125c-1.455,6.126-0.475,20.297,2.519,28.344c3.922,10.538,4.331,26.877,4.331,26.877"></path><path style="fill:#6E6E6E;stroke:#000000;stroke-linecap:round;stroke-linejoin:round;" d="M265.116,342.161c0,0-1.797-6.535-0.326-8.496c1.471-1.96,12.989-12.58,14.215-13.315c0.245-2.206-3.187-7.353-7.354-10.539c3.187-1.715,8.026-5.105,20.117-6.086c0.49-1.96-3.778-16.135-23.547-23.241c-2.451,0.245-3.428,1.392-3.428,1.392s2.625,1.125,3.25,2.125c1.455,6.126,0.475,20.297-2.519,28.344c-3.922,10.538-4.331,26.877-4.331,26.877"></path></g></g></g></svg>