<svg xmlns="http://www.w3.org/2000/svg" width="500" height="500" version="1.1"><g id="x020"><g><g><g><path style="fill:#6E6E6E;stroke:#000000;stroke-linecap:round;stroke-linejoin:round;" d="M209.125,362.25c0,0-13-5.75-15.75-9c2.5-7.5,15.75-33.25,15.75-33.25s7.5-23.5,10-26c3.25-2.75,7.5-6.75,7.5-6.75l1.25,17l-6.75,33.25C221.125,337.5,214.375,353.75,209.125,362.25z"></path><path style="fill:#505050;" d="M222.375,322c0,0-4-6.5-3-10s6.25-6.75,6.25-6.75S226.875,318.25,222.375,322z"></path><path style="fill:none;stroke:#000000;stroke-linecap:round;stroke-linejoin:round;" d="M218.625,310.75c0,0,1.25,3,4.75,7.5"></path></g><g><path style="fill:#6E6E6E;stroke:#000000;stroke-linecap:round;stroke-linejoin:round;" d="M290.875,362.25c0,0,13-5.75,15.75-9c-2.5-7.5-15.75-33.25-15.75-33.25s-7.5-23.5-10-26c-3.25-2.75-7.5-6.75-7.5-6.75l-1.25,17l6.75,33.25C278.875,337.5,285.625,353.75,290.875,362.25z"></path><path style="fill:#505050;" d="M277.625,322c0,0,4-6.5,3-10s-6.25-6.75-6.25-6.75S273.125,318.25,277.625,322z"></path><path style="fill:none;stroke:#000000;stroke-linecap:round;stroke-linejoin:round;" d="M281.375,310.75c0,0-1.25,3-4.75,7.5"></path></g></g><g><g><g><path style="fill:#6E6E6E;stroke:#000000;stroke-linecap:round;stroke-linejoin:round;" d="M241.875,320.25c0,0-1.5,27.5-2,33.25s1.5,54.5,0.5,55.25c-2.75,1.25-4.5,3.25-5.5,2.75s-3.75-2.75-3.75-2.75s-20.25,3-20.75,1.5s5.25-55.25,5.75-58.5s9.25-46.5,10.25-49.25c3.25-4.5,8.5-7.5,8.5-7.5L241.875,320.25z"></path><circle style="fill:#505050;stroke:#000000;stroke-linecap:round;stroke-linejoin:round;" cx="237.398" cy="325.829" r="3.038"></circle><circle style="fill:#505050;stroke:#000000;stroke-linecap:round;stroke-linejoin:round;" cx="236.398" cy="343.079" r="3.038"></circle><circle style="fill:#505050;stroke:#000000;stroke-linecap:round;stroke-linejoin:round;" cx="235.398" cy="360.329" r="3.038"></circle><circle style="fill:#505050;stroke:#000000;stroke-linecap:round;stroke-linejoin:round;" cx="235.398" cy="377.579" r="3.038"></circle><path style="fill:#505050;" d="M226.375,305c0,0,11-1,10.75-3s-2-7.75-2-7.75S227.125,300.5,226.375,305z"></path><path style="fill:none;stroke:#000000;stroke-linecap:round;stroke-linejoin:round;" d="M231.875,409c0,0-7.75-10.25-9.75-19"></path></g><g><path style="fill:#6E6E6E;stroke:#000000;stroke-linecap:round;stroke-linejoin:round;" d="M258.125,320.25c0,0,1.5,27.5,2,33.25s-1.5,54.5-0.5,55.25c7.75,0.25,29.5,3,30,1.5s-5.25-55.25-5.75-58.5s-9.25-46.5-10.25-49.25c-3.25-4.5-8.5-7.5-8.5-7.5L258.125,320.25z"></path><path style="fill:#505050;" d="M273.625,305c0,0-11-1-10.75-3s2-7.75,2-7.75S272.875,300.5,273.625,305z"></path></g></g><g><path style="fill:#6E6E6E;stroke:#000000;stroke-linecap:round;stroke-linejoin:round;" d="M239.872,318.162c-0.312-3.114-5.92-19.938-5.92-19.938s-9.657,6.854-14.02,11.527c-1.559-1.559,1.558-20.875,2.181-23.057c1.246-1.245,10.592-6.23,13.085-5.295c0.312,2.492,5.607,26.482,5.607,26.482s1.56,10.594,0.935,13.707"></path><path style="fill:#6E6E6E;stroke:#000000;stroke-linecap:round;stroke-linejoin:round;" d="M260.129,318.162c0.313-3.114,5.918-19.938,5.918-19.938s9.658,6.854,14.021,11.527c1.557-1.559-1.559-20.875-2.182-23.057c-1.246-1.245-10.592-6.23-13.084-5.295c-0.313,2.492-5.609,26.482-5.609,26.482s-1.559,10.594-0.934,13.707"></path></g></g></g></g></svg>