<svg xmlns="http://www.w3.org/2000/svg" width="500" height="500" version="1.1"><g id="x021"><g><g><g><g><path style="fill:#6E6E6E;stroke:#000000;stroke-linecap:round;stroke-linejoin:round;" d="M238.664,280.5c0,0,0.75,28.5,0.25,48.5c-0.383,15.318-2.75,63.25-3.75,64.5c-3-1.25-14.25-6.5-14.25-6.5s-15-2-17.75-5.5c0-11,14.5-48,15-58s3.25-32.5,4-33.5S227.164,282.75,238.664,280.5z"></path><path style="fill:#505050;" d="M206.289,367.75c0,0-2.833,10.333-2.5,14c5,3.375,13.5,4,17.5,5c6,2.667,9.25,4.125,9.25,4.125s1.708-38.874,1.375-42.541s-7.667-16-7.667-16L206.289,367.75z"></path></g><g><path style="fill:#6E6E6E;" d="M225.214,287c0,0-3.05,2.25-7.8,8.25c-2.5,6.25-6,16.5-6,16.5s-18.25,28.25-26.25,46.75c6.25,5.5,18.25,11,35.25,14.25c5-17.75,11-70,11-70"></path><polygon style="fill:#FFFFFF;" points="188.164,352.75 185.914,358.5 193.164,363.25 "></polygon><path style="fill:#6E6E6E;" d="M199.164,332c0,0-12.75,9.5-17.25,14.25c4.75,10.5,8.25,16,15.75,22.75c2.75,1,16-4.25,17.5-4.25"></path><path style="fill:#505050;" d="M199.414,332.125c0.75-2.25,10.75-18.375,12.25-19.625c0.5-1.75,6.75-16.5,6.75-16.5s3.75,3.25,5.125,7.125c0.301,0.85-1.875,11.375-2.625,15.125s-3,26-3,26s-3.25-13.75-7.25-18c-3.25,4.5-9.5,40.75-9.5,42.5l-11.5-29L199.414,332.125z"></path><g><path style="fill:#FFFFFF;" d="M216.664,349.5c-5,1.75-11.75,5.25-11.75,5.25s0.489-3.76,0.017-8.634l-5.39,22.425c4.195-1.031,14.108-3.507,15.873-4.291C216.914,360.25,217.414,353.5,216.664,349.5z"></path><path style="fill:#DCDCDC;" d="M204.414,342.5c-4.5,2-9.75,5.25-9.75,5.25s1-6,0.75-12.5c-4.5,3.25-13.5,11-13.5,11c4,11.5,15.75,22.75,15.75,22.75s0.724-0.175,1.877-0.459c0,0,0.957-3.416,2.707-10.541s2.683-11.884,2.683-11.884C204.818,344.962,204.653,343.745,204.414,342.5z"></path></g><path style="fill:none;stroke:#000000;stroke-linecap:round;stroke-linejoin:round;" d="M217.164,355c0,0,3-19.75-2.75-35"></path><g><g id="outerXMLID_1_"><g><path style="fill:none;stroke:#000000;stroke-linecap:round;stroke-linejoin:round;" d="M203.434,368.26c4.93,1.74,10.6,3.271,16.98,4.49c5-17.75,11-70,11-70"></path><path style="fill:none;stroke:#000000;stroke-linecap:round;stroke-linejoin:round;" d="M186.534,355.46c-0.49,1.04-0.94,2.05-1.37,3.04c1.79,1.57,4.04,3.14,6.75,4.66"></path><path style="fill:none;stroke:#000000;stroke-linecap:round;stroke-linejoin:round;" d="M225.214,287c0,0-3.05,2.25-7.8,8.25c-2.5,6.25-6,16.5-6,16.5s-5.9,9.13-12.46,20.41"></path><path style="fill:none;stroke:#000000;stroke-linecap:round;stroke-linejoin:round;" d="M199.164,332c0,0-0.07,0.05-0.21,0.16c-1.67,1.25-12.88,9.7-17.04,14.09c1.62,3.57,3.08,6.55,4.62,9.21c1.63,2.85,3.34,5.32,5.38,7.7c1.66,1.95,3.53,3.84,5.75,5.84c0.96,0.35,3.19-0.06,5.77-0.74c4.79-1.279,10.75-3.51,11.73-3.51"></path></g></g></g></g></g><g><g><path style="fill:#6E6E6E;stroke:#000000;stroke-linecap:round;stroke-linejoin:round;" d="M261.336,280.5c0,0-0.75,28.5-0.25,48.5c0.383,15.318,2.75,63.25,3.75,64.5c3-1.25,14.25-6.5,14.25-6.5s15-2,17.75-5.5c0-11-14.5-48-15-58s-3.25-32.5-4-33.5S272.836,282.75,261.336,280.5z"></path><path style="fill:#505050;" d="M293.711,367.75c0,0,2.834,10.333,2.5,14c-5,3.375-13.5,4-17.5,5c-6,2.667-9.25,4.125-9.25,4.125s-1.708-38.874-1.375-42.541s7.666-16,7.666-16L293.711,367.75z"></path></g><g><path style="fill:#6E6E6E;" d="M274.786,287c0,0,3.05,2.25,7.8,8.25c2.5,6.25,6,16.5,6,16.5s18.25,28.25,26.25,46.75c-6.25,5.5-18.25,11-35.25,14.25c-5-17.75-11-70-11-70"></path><polygon style="fill:#FFFFFF;" points="311.836,352.75 314.086,358.5 306.836,363.25 "></polygon><path style="fill:#6E6E6E;" d="M300.836,332c0,0,12.75,9.5,17.25,14.25c-4.75,10.5-8.25,16-15.75,22.75c-2.75,1-16-4.25-17.5-4.25"></path><path style="fill:#505050;" d="M300.586,332.125c-0.75-2.25-10.75-18.375-12.25-19.625c-0.5-1.75-6.75-16.5-6.75-16.5s-3.75,3.25-5.125,7.125c-0.301,0.85,1.875,11.375,2.625,15.125s3,26,3,26s3.25-13.75,7.25-18c3.25,4.5,9.5,40.75,9.5,42.5l11.5-29L300.586,332.125z"></path><g><path style="fill:#FFFFFF;" d="M283.336,349.5c5,1.75,11.75,5.25,11.75,5.25s-0.489-3.76-0.017-8.634l5.39,22.425c-4.195-1.031-14.108-3.507-15.873-4.291C283.086,360.25,282.586,353.5,283.336,349.5z"></path><path style="fill:#DCDCDC;" d="M295.586,342.5c4.5,2,9.75,5.25,9.75,5.25s-1-6-0.75-12.5c4.5,3.25,13.5,11,13.5,11c-4,11.5-15.75,22.75-15.75,22.75s-0.724-0.175-1.877-0.459c0,0-0.957-3.416-2.707-10.541s-2.683-11.884-2.683-11.884C295.182,344.962,295.347,343.745,295.586,342.5z"></path></g><path style="fill:none;stroke:#000000;stroke-linecap:round;stroke-linejoin:round;" d="M282.836,355c0,0-3-19.75,2.75-35"></path><g><g id="outerXMLID_3_"><g><path style="fill:none;stroke:#000000;stroke-linecap:round;stroke-linejoin:round;" d="M296.566,368.26c-4.931,1.74-10.601,3.271-16.98,4.49c-5-17.75-11-70-11-70"></path><path style="fill:none;stroke:#000000;stroke-linecap:round;stroke-linejoin:round;" d="M313.466,355.46c0.49,1.04,0.94,2.05,1.37,3.04c-1.79,1.57-4.04,3.14-6.75,4.66"></path><path style="fill:none;stroke:#000000;stroke-linecap:round;stroke-linejoin:round;" d="M274.786,287c0,0,3.05,2.25,7.8,8.25c2.5,6.25,6,16.5,6,16.5s5.9,9.13,12.46,20.41"></path><path style="fill:none;stroke:#000000;stroke-linecap:round;stroke-linejoin:round;" d="M300.836,332c0,0,0.07,0.05,0.21,0.16c1.67,1.25,12.88,9.7,17.04,14.09c-1.62,3.57-3.08,6.55-4.62,9.21c-1.63,2.85-3.34,5.32-5.38,7.7c-1.66,1.95-3.529,3.84-5.75,5.84c-0.96,0.35-3.189-0.06-5.77-0.74c-4.791-1.279-10.75-3.51-11.73-3.51"></path></g></g></g></g></g></g><g><g><polygon style="fill:#FFFFFF;stroke:#000000;stroke-linecap:round;stroke-linejoin:round;" points="230.15,284.019 230.15,284.019 230.151,284.021 "></polygon></g><g><g><path style="fill:#FFFFFF;stroke:#000000;stroke-linecap:round;stroke-linejoin:round;" d="M271.856,282.357c-1.091-0.173-2.116,0.571-2.289,1.663l0.001-0.002c-0.05,0.308-4.962,29.176-30.58,46.169l-0.207,4.878c29.234-17.67,34.52-49.05,34.737-50.42C273.691,283.555,272.947,282.53,271.856,282.357z"></path></g><g><path style="fill:#FFFFFF;stroke:#000000;stroke-linecap:round;stroke-linejoin:round;" d="M228.144,282.357c1.091-0.173,2.116,0.571,2.289,1.663l-0.001-0.002c0.05,0.308,4.962,29.176,30.581,46.169l0.207,4.878c-29.235-17.67-34.521-49.05-34.738-50.42C226.309,283.555,227.053,282.53,228.144,282.357z"></path></g></g></g></g></g></svg>