<svg xmlns="http://www.w3.org/2000/svg" width="500" height="500" version="1.1"><g id="x024"><g><g><g><path style="fill:#6E6E6E;stroke:#000000;stroke-linecap:round;stroke-linejoin:round;" d="M234.5,281.75c0,0-10.75,6-13.25,9c-4,6.75-7.5,17.25-9.5,22.5C203.5,328,193.25,353,193.25,353l17.75,7.25l19-46.5L234.5,281.75z"></path><path style="fill:#505050;" d="M227.75,300.5c0,0-5.5,4.25-6,7.75s3.5,8.75,3.5,8.75L227.75,300.5z"></path><path style="fill:none;stroke:#000000;stroke-linecap:round;stroke-linejoin:round;" d="M221.25,305c0,0,1.75,6,4.75,10.25"></path></g><g><path style="fill:#6E6E6E;stroke:#000000;stroke-linecap:round;stroke-linejoin:round;" d="M265,281.75c0,0,10.75,6,13.25,9c4,6.75,7.5,17.25,9.5,22.5C296,328,306.25,353,306.25,353l-17.75,7.25l-19-46.5L265,281.75z"></path><path style="fill:#505050;" d="M271.75,300.5c0,0,5.5,4.25,6,7.75s-3.5,8.75-3.5,8.75L271.75,300.5z"></path><path style="fill:none;stroke:#000000;stroke-linecap:round;stroke-linejoin:round;" d="M278.25,305c0,0-1.75,6-4.75,10.25"></path></g></g><g><g><g><g><path style="fill:#6E6E6E;stroke:#000000;stroke-linecap:round;stroke-linejoin:round;" d="M231.377,291.5c0,0-5.25,11.75-5.75,16s-1.75,20-1.75,20s-13.5,33-10.25,69c5.75,1.5,16.245,4.75,40.123,4.75c-1.5-24.75-3.873-82-3.873-82l-12.75-28L231.377,291.5z"></path></g><g><path style="fill:#6E6E6E;stroke:#000000;stroke-linecap:round;stroke-linejoin:round;" d="M215.194,358.5c0,0-3.083,12.333-2,20.75c1.5,2.417,8.5,3.25,10,2.75s3-20.25,3-21.5C224.444,359.25,215.194,358.5,215.194,358.5z"></path><path style="fill:#6E6E6E;stroke:#000000;stroke-linecap:round;stroke-linejoin:round;" d="M214.777,358.167c-0.262,0.032-1.584,5.083-1.417,6.833c2.667,0.583,12.167,2.333,12.167,2.333s0.917-5.583,0.667-6.833C224.527,359.25,218.111,357.751,214.777,358.167z"></path></g><path style="fill:#6E6E6E;stroke:#000000;stroke-linecap:round;stroke-linejoin:round;" d="M268.623,291.5c0,0,5.25,11.75,5.75,16s1.75,20,1.75,20s13.5,33,10.25,69c-7.123,3.75-21.123,7.5-36.123,7c-0.75-8-1.75-83.25-1.75-83.25l14.373-29L268.623,291.5z"></path><g><path style="fill:#6E6E6E;stroke:#000000;stroke-linecap:round;stroke-linejoin:round;" d="M284.805,358.5c0,0,3.084,12.333,2,20.75c-1.5,2.417-8.5,3.25-10,2.75s-3-20.25-3-21.5C275.555,359.25,284.805,358.5,284.805,358.5z"></path><path style="fill:#6E6E6E;stroke:#000000;stroke-linecap:round;stroke-linejoin:round;" d="M285.221,358.167c0.262,0.032,1.584,5.083,1.418,6.833c-2.668,0.583-12.168,2.333-12.168,2.333s-0.916-5.583-0.666-6.833C275.471,359.25,281.888,357.751,285.221,358.167z"></path></g></g><g><path style="fill:#6E6E6E;stroke:#000000;stroke-linecap:round;stroke-linejoin:round;" d="M239.25,280.25c0,0,3.5,26.5,10.75,38c-8.75-2.25-16.75-14-19.5-19.75c3.25-2.5,6.5-5.75,6.5-5.75l-8.25-0.25c0,0,1-6.5,2.5-9.75C235.25,280.75,239.25,280.25,239.25,280.25z"></path><path style="fill:#6E6E6E;stroke:#000000;stroke-linecap:round;stroke-linejoin:round;" d="M260.75,280.25c0,0-5,28.25-12.25,39.75c8.75-2.25,18.25-15.75,21-21.5c-3.25-2.5-6.5-5.75-6.5-5.75l8.25-0.25c0,0-1-6.5-2.5-9.75C264.75,280.75,260.75,280.25,260.75,280.25z"></path></g></g><g><circle style="fill:#6E6E6E;stroke:#000000;stroke-linecap:round;stroke-linejoin:round;" cx="253.5" cy="331.75" r="4"></circle><circle style="fill:#6E6E6E;stroke:#000000;stroke-linecap:round;stroke-linejoin:round;" cx="253.5" cy="353" r="4"></circle><circle style="fill:#6E6E6E;stroke:#000000;stroke-linecap:round;stroke-linejoin:round;" cx="253.5" cy="374.25" r="4"></circle></g></g></g></g></svg>