<svg xmlns="http://www.w3.org/2000/svg" width="500" height="500" version="1.1"><g id="x026"><g><g><g><path style="fill:#6E6E6E;stroke:#000000;stroke-linecap:round;stroke-linejoin:round;" d="M193.125,351.5c0,0,5.333,7.666,18,8.5c3.833-7.333,11-22.167,11-22.167l4.667-34.333l-11-1.5C215.792,302,198.959,335.667,193.125,351.5z"></path><path style="fill:#505050;" d="M223.625,308.834c0,0-3.333,1.833-4.167,5.5s3.167,7.667,3.167,7.667S225.292,313.001,223.625,308.834z"></path><path style="fill:none;stroke:#000000;stroke-linecap:round;stroke-linejoin:round;" d="M218.458,311.334c0,0,1.667,4.833,4.833,7.833"></path><g><path style="fill:#FFFFFF;stroke:#000000;stroke-linecap:round;stroke-linejoin:round;" d="M195.271,346.875l2.813-8.313c0,0-1.375-0.313-2-0.188c-0.5,0.188-3.375,6.438-3.375,6.438L195.271,346.875z"></path><path style="fill:#6E6E6E;stroke:#000000;stroke-linecap:round;stroke-linejoin:round;" d="M204.229,351.708c8.354,3.917,10.078,2.422,10,2.5c-0.167,0.167,2.5-5.167,2.5-5.167s-3.667-0.166-10.333-3.166s-9.167-6-9.167-6l-2.5,5C194.729,344.875,195.875,347.791,204.229,351.708z"></path></g></g><g><path style="fill:#6E6E6E;stroke:#000000;stroke-linecap:round;stroke-linejoin:round;" d="M306.875,351.5c0,0-5.334,7.666-18,8.5c-3.834-7.333-11-22.167-11-22.167l-4.666-34.333l11-1.5C284.209,302,301.041,335.667,306.875,351.5z"></path><path style="fill:#505050;" d="M276.375,308.834c0,0,3.334,1.833,4.166,5.5c0.834,3.667-3.166,7.667-3.166,7.667S274.709,313.001,276.375,308.834z"></path><path style="fill:none;stroke:#000000;stroke-linecap:round;stroke-linejoin:round;" d="M281.541,311.334c0,0-1.666,4.833-4.832,7.833"></path><g><path style="fill:#FFFFFF;stroke:#000000;stroke-linecap:round;stroke-linejoin:round;" d="M304.729,346.875l-2.813-8.313c0,0,1.375-0.313,2-0.188c0.5,0.188,3.375,6.438,3.375,6.438L304.729,346.875z"></path><path style="fill:#6E6E6E;stroke:#000000;stroke-linecap:round;stroke-linejoin:round;" d="M295.771,351.708c-8.355,3.917-10.078,2.422-10,2.5c0.166,0.167-2.5-5.167-2.5-5.167s3.666-0.166,10.332-3.166c6.668-3,9.166-6,9.166-6l2.5,5C305.27,344.875,304.125,347.791,295.771,351.708z"></path></g></g></g><g><g><path style="fill:#6E6E6E;stroke:#000000;stroke-linecap:round;stroke-linejoin:round;" d="M242.625,336.166c0,0-3.667,67.5-6.167,71.5c-6.666-0.166-28-3.831-28.166-4.665c3.333-31.5,10.333-69.835,14.833-85.835c0.333-6.333,1.167-14.666,1.167-14.666l11.833,2.5L242.625,336.166z"></path><g><ellipse style="fill:#FFBF00;stroke:#000000;stroke-linecap:round;stroke-linejoin:round;" cx="238.125" cy="347.75" rx="2.5" ry="3.084"></ellipse><ellipse style="fill:#FFBF00;stroke:#000000;stroke-linecap:round;stroke-linejoin:round;" cx="236.458" cy="367.417" rx="2.5" ry="3.084"></ellipse><ellipse style="fill:#FFBF00;stroke:#000000;stroke-linecap:round;stroke-linejoin:round;" cx="234.791" cy="387.084" rx="2.5" ry="3.084"></ellipse></g><g><path style="fill:#6E6E6E;stroke:#000000;stroke-linecap:round;stroke-linejoin:round;" d="M214.458,363.501c0,0,1.5,5.167,2,5.5s7.334,0.334,9.334-0.5c3-3.667,5.333-8.666,5.333-11c-2-3-3.167-4.334-3.167-4.334S218.125,358.001,214.458,363.501z"></path><path style="fill:#FFBF00;stroke:#000000;stroke-linecap:round;stroke-linejoin:round;" d="M224.099,364.553c-0.291,1.167-1.389,1.815-2.531,1.284c-1.287-0.596-1.913-2.306-1.316-3.591c0.53-1.144,1.785-1.359,2.762-0.655C223.898,362.229,224.362,363.493,224.099,364.553z"></path></g><path style="fill:#6E6E6E;stroke:#000000;stroke-linecap:round;stroke-linejoin:round;" d="M238.73,339.464c0,0,1.735-6.31,0.315-8.202c-1.419-1.893-12.539-12.145-13.722-12.854c-0.236-2.129,3.076-7.098,7.098-10.173c-3.076-1.655-6.309-4.731-17.98-5.679c-0.474-1.893,2.208-15.772,21.293-22.633c2.365,0.236,4.494,0.709,4.494,0.709l-3.548,2.367c0,0-2.13,17.506,1.656,27.681c3.785,10.173,4.181,25.945,4.181,25.945"></path></g><g><path style="fill:#6E6E6E;stroke:#000000;stroke-linecap:round;stroke-linejoin:round;" d="M257.374,336.166c0,0,3.667,67.5,6.167,71.5c6.667-0.166,28-3.831,28.167-4.665c-3.334-31.5-10.334-69.835-14.834-85.835c-0.333-6.333-1.166-14.666-1.166-14.666l-11.834,2.5L257.374,336.166z"></path><g><ellipse style="fill:#FFBF00;stroke:#000000;stroke-linecap:round;stroke-linejoin:round;" cx="261.874" cy="347.75" rx="2.5" ry="3.084"></ellipse><ellipse style="fill:#FFBF00;stroke:#000000;stroke-linecap:round;stroke-linejoin:round;" cx="263.542" cy="367.417" rx="2.5" ry="3.084"></ellipse><ellipse style="fill:#FFBF00;stroke:#000000;stroke-linecap:round;stroke-linejoin:round;" cx="265.208" cy="387.084" rx="2.5" ry="3.084"></ellipse></g><g><path style="fill:#6E6E6E;stroke:#000000;stroke-linecap:round;stroke-linejoin:round;" d="M285.541,363.501c0,0-1.5,5.167-2,5.5s-7.333,0.334-9.333-0.5c-3-3.667-5.334-8.666-5.334-11c2-3,3.167-4.334,3.167-4.334S281.874,358.001,285.541,363.501z"></path><path style="fill:#FFBF00;stroke:#000000;stroke-linecap:round;stroke-linejoin:round;" d="M275.9,364.553c0.291,1.167,1.389,1.815,2.531,1.284c1.287-0.596,1.913-2.306,1.316-3.591c-0.53-1.144-1.785-1.359-2.762-0.655C276.101,362.229,275.637,363.493,275.9,364.553z"></path></g><path style="fill:#6E6E6E;stroke:#000000;stroke-linecap:round;stroke-linejoin:round;" d="M261.269,339.464c0,0-1.734-6.31-0.315-8.202s12.54-12.145,13.722-12.854c0.236-2.129-3.076-7.098-7.098-10.173c3.076-1.655,6.309-4.731,17.98-5.679c0.474-1.893-2.208-15.772-21.293-22.633c-2.365,0.236-4.494,0.709-4.494,0.709l3.548,2.367c0,0,2.13,17.506-1.655,27.681c-3.786,10.173-4.182,25.945-4.182,25.945"></path></g></g></g></g></svg>