<svg xmlns="http://www.w3.org/2000/svg" width="500" height="500" version="1.1"><g id="x027"><g><g><g><path style="fill:#6E6E6E;stroke:#000000;stroke-linecap:round;stroke-linejoin:round;" d="M218.928,297.667l-10.333,17.334c0,0-0.333,3.166-1.333,6.5c-1.333,2.167-7.334,9.499-8.167,11.333c-0.833,2.834-0.833,4.167-0.833,4.167l0.167,8.333c0,0-1.833,6.834-1.5,7.834c0.833,1.833,11.5,4.166,12.167,4.833c2.333-2.5,4.333-6.5,5-8c2.167-3.167,11.167-12.833,11.167-12.833l2.667-24.5L218.928,297.667z"></path><path style="fill:#505050;" d="M199.095,346.001c0,0-0.166-5.501-0.333-7.167c3.167,2.834,9.333,8,8.5,8C204.928,347.334,199.928,347.001,199.095,346.001z"></path></g><g><path style="fill:#6E6E6E;stroke:#000000;stroke-linecap:round;stroke-linejoin:round;" d="M281.071,297.667l10.334,17.334c0,0,0.333,3.166,1.333,6.5c1.333,2.167,7.334,9.499,8.167,11.333c0.833,2.834,0.833,4.167,0.833,4.167l-0.167,8.333c0,0,1.834,6.834,1.5,7.834c-0.833,1.833-11.499,4.166-12.166,4.833c-2.334-2.5-4.333-6.5-5-8c-2.167-3.167-11.167-12.833-11.167-12.833l-2.667-24.5L281.071,297.667z"></path><path style="fill:#505050;" d="M300.905,346.001c0,0,0.166-5.501,0.333-7.167c-3.167,2.834-9.333,8-8.5,8C295.071,347.334,300.072,347.001,300.905,346.001z"></path></g></g><g><g><g><g><path style="fill:#CFD4D9;stroke:#000000;stroke-linecap:round;stroke-linejoin:round;" d="M214.263,359.834c0,0-0.5,6.334-0.333,7.167c0.166,0.833,4,3.999,7.166,4.833c3.167,0.834,27.5-6.666,28.667-8.333c0.167-2.833,0-5.333,0-5.333L214.263,359.834z"></path><path style="fill:#6E6E6E;stroke:#000000;stroke-linecap:round;stroke-linejoin:round;" d="M243.43,323.168c0,0,2.667,19.334,6.5,27c0,6.5,0,9,0,9s-22.834,7.833-29.5,6.833c-3.334-1.333-7.834-5.334-7.667-7.167c0.166-1.833,1.5-9.833,2.5-12.333s4.166-7.667,4.166-7.667s2.167-7.833,2.834-8.833c0.666-2.5,1.167-9,2.833-18.5C228.429,314.001,242.93,321.335,243.43,323.168z"></path><path style="fill:#DCDCDC;stroke:#000000;stroke-linecap:round;stroke-linejoin:round;" d="M243.293,322.375c0,0,2.875,18.375,7.125,28.125c-1.25,0.875-2.125,1.375-2.125,1.375s-5.25-13.25-7.25-30C241.543,321.75,243.293,322.375,243.293,322.375z"></path></g><g><path style="fill:#CFD4D9;stroke:#000000;stroke-linecap:round;stroke-linejoin:round;" d="M285.737,359.834c0,0,0.499,6.334,0.333,7.167c-0.167,0.833-4,3.999-7.166,4.833c-3.167,0.834-27.5-6.666-28.666-8.333c-0.167-2.833,0-5.333,0-5.333L285.737,359.834z"></path><path style="fill:#6E6E6E;stroke:#000000;stroke-linecap:round;stroke-linejoin:round;" d="M256.57,323.168c0,0-2.667,19.334-6.499,27c0,6.5,0,9,0,9s22.833,7.833,29.499,6.833c3.333-1.333,7.833-5.334,7.667-7.167c-0.167-1.833-1.5-9.833-2.5-12.333s-4.167-7.667-4.167-7.667s-2.166-7.833-2.833-8.833c-0.667-2.5-1.167-9-2.833-18.5C271.57,314.001,257.07,321.335,256.57,323.168z"></path><path style="fill:#DCDCDC;stroke:#000000;stroke-linecap:round;stroke-linejoin:round;" d="M256.707,322.375c0,0-2.875,18.375-7.124,28.125c1.25,0.875,2.124,1.375,2.124,1.375s5.25-13.25,7.25-30C258.457,321.75,256.707,322.375,256.707,322.375z"></path></g></g><g><polygon style="fill:#DCDCDC;stroke:#000000;stroke-linecap:round;stroke-linejoin:round;" points="252.119,350.067 247.881,350.067 245.762,362.431 245.762,365.433 254.238,365.433 254.238,362.431 "></polygon><g><ellipse style="fill:#BEBEBE;" cx="250" cy="357.044" rx="2.031" ry="2.26"></ellipse><ellipse cx="250" cy="357.706" rx="1.743" ry="1.501"></ellipse></g><rect x="246.38" y="362.482" style="fill:#BEBEBE;" width="7.241" height="2.297"></rect></g></g><g><g><path style="fill:#CFD4D9;stroke:#000000;stroke-linecap:round;stroke-linejoin:round;" d="M240.762,273.667l-0.167,6.834c0,0-8.5,4.832-9.167,6.666s-0.5,20.501,0.333,21.501s10.475,7.849,10.667,9c0.5,3,0.833,5.5,0.833,5.5s-26.5-8.334-28.833-14.001c-1.5-5.5-0.667-15.501,0.167-16.334s5-4.666,5-4.666s1.736-8.006,2.667-8.5C227.595,276.834,240.762,273.667,240.762,273.667z"></path><path style="fill:#B1B6BB;" d="M220.928,302.834c0,0,1,4.834,1.333,5.834s6.666,4,9.333,4.5C224.428,307.334,220.928,302.834,220.928,302.834z"></path><path style="fill:none;stroke:#000000;stroke-linecap:round;stroke-linejoin:round;" d="M219.595,288.167c0,0-1,9.834-0.833,11.667"></path></g><g><path style="fill:#CFD4D9;stroke:#000000;stroke-linecap:round;stroke-linejoin:round;" d="M259.238,273.667l0.167,6.834c0,0,8.5,4.832,9.166,6.666c0.667,1.834,0.501,20.501-0.332,21.501c-0.834,1-10.476,7.849-10.668,9c-0.5,3-0.833,5.5-0.833,5.5s26.501-8.334,28.833-14.001c1.5-5.5,0.668-15.501-0.166-16.334s-5-4.666-5-4.666s-1.736-8.006-2.667-8.5C272.405,276.834,259.238,273.667,259.238,273.667z"></path><path style="fill:#B1B6BB;" d="M279.071,302.834c0,0-1,4.834-1.333,5.834s-6.666,4-9.333,4.5C275.571,307.334,279.071,302.834,279.071,302.834z"></path><path style="fill:none;stroke:#000000;stroke-linecap:round;stroke-linejoin:round;" d="M280.405,288.167c0,0,1,9.834,0.833,11.667"></path></g></g></g></g></g></svg>