<svg xmlns="http://www.w3.org/2000/svg" width="500" height="500" version="1.1"><g id="x028"><g><g><g><path style="fill:#6E6E6E;stroke:#000000;stroke-linecap:round;stroke-linejoin:round;" d="M192.417,352.833l-1.833,4.917c0,0,3.485,6.315,7.75,7.25c6.083,1.333,11.5-0.084,12.75-0.834c0.75-3,0.5-7.416,0.5-7.416s18-32.25,18-33s5.25-42,5.25-42s-9,3.25-13.25,7.25c-4.5,7.5-8.75,21.5-8.75,21.5S200,330.25,198.75,333c-0.5,3,0.833,5.5,0.833,5.5s-7,5.5-7.75,6.5C191.833,347.5,192.417,351.833,192.417,352.833z"></path><path style="fill:#505050;" d="M195.75,342.666c0,0,3.5-3.5,4.333-3.833c-0.333-1.667-1.167-4.666-1-5.333c3.167,2,11.333,6.332,11.333,8.666C204.583,344.5,196.417,342.666,195.75,342.666z"></path><path style="fill:none;stroke:#000000;stroke-linecap:round;stroke-linejoin:round;" d="M222.583,289.5c0,0,4,3.75,5.5,11"></path><path style="fill:none;stroke:#000000;stroke-linecap:round;stroke-linejoin:round;" d="M200.583,364.75c0-0.375,0.625-7,1.375-9.75c0-4.5,0.75-7.25,0.75-7.25s1.708-2.417,4.708-6.25c0.5-2.333,1.095-6.789,1.333-7.667c1.625-6,8.667-20.167,9.667-22.167c2.167-10,4.333-17.666,5.333-20.666"></path><path style="fill:none;stroke:#000000;stroke-linecap:round;stroke-linejoin:round;" d="M212.833,310.5c0,0-8.75,19.5-9.75,22.5c-0.375,2.5-1.167,6.333-1.167,6.333s-5.458,5.792-6.208,7.292c0,2.75,0.25,5.875,0.25,5.875s-2,5.625-1.875,9.125"></path></g><g><path style="fill:#6E6E6E;stroke:#000000;stroke-linecap:round;stroke-linejoin:round;" d="M307.584,352.833l1.832,4.917c0,0-3.484,6.315-7.75,7.25c-6.082,1.333-11.5-0.084-12.75-0.834c-0.75-3-0.5-7.416-0.5-7.416s-17.998-32.25-17.998-33s-5.25-42-5.25-42s9,3.25,13.25,7.25c4.5,7.5,8.75,21.5,8.75,21.5S300,330.25,301.25,333c0.5,3-0.834,5.5-0.834,5.5s7,5.5,7.75,6.5C308.166,347.5,307.584,351.833,307.584,352.833z"></path><path style="fill:#505050;" d="M304.25,342.666c0,0-3.5-3.5-4.334-3.833c0.334-1.667,1.168-4.666,1-5.333c-3.166,2-11.332,6.332-11.332,8.666C295.416,344.5,303.584,342.666,304.25,342.666z"></path><path style="fill:none;stroke:#000000;stroke-linecap:round;stroke-linejoin:round;" d="M277.418,289.5c0,0-4,3.75-5.5,11"></path><path style="fill:none;stroke:#000000;stroke-linecap:round;stroke-linejoin:round;" d="M299.416,364.75c0-0.375-0.625-7-1.375-9.75c0-4.5-0.75-7.25-0.75-7.25s-1.707-2.417-4.707-6.25c-0.5-2.333-1.096-6.789-1.334-7.667c-1.625-6-8.666-20.167-9.666-22.167c-2.166-10-4.334-17.666-5.334-20.666"></path><path style="fill:none;stroke:#000000;stroke-linecap:round;stroke-linejoin:round;" d="M287.168,310.5c0,0,8.748,19.5,9.748,22.5c0.375,2.5,1.168,6.333,1.168,6.333s5.457,5.792,6.207,7.292c0,2.75-0.25,5.875-0.25,5.875s2,5.625,1.875,9.125"></path></g></g><g><g><path style="fill:#6E6E6E;stroke:#000000;stroke-linecap:round;stroke-linejoin:round;" d="M283.833,353.833h-67.667c0,0-1.667,5.167-1.333,8c4.333,5,17.667,8.167,35.167,8.167c17.499,0,30.833-3.167,35.167-8.167C285.499,359,283.833,353.833,283.833,353.833z"></path><g><g><g><path style="fill:#6E6E6E;stroke:#000000;stroke-linecap:round;stroke-linejoin:round;" d="M239.083,280.801c0,0-3,14.449-3,17.199s1.5,12.167,3.5,14s10.25,5.25,10.25,5.25v43.5c0,0-15.917,0.584-16.917,0.084s-16.083-3.834-17.333-6.584c-1.5-4-0.5-6.25-0.5-6.25l4.25-5.5c0,0,4.75-15.5,4.75-16.5c-0.25-3.5,1.25-18.75,1.5-21s4.75-12.5,4.75-12.5l3.5-10.25L239.083,280.801z"></path><path style="fill:#3F3F3F;stroke:#000000;stroke-linecap:round;stroke-linejoin:round;" d="M219.333,342.5c0,0-0.417-3.333,0.25-4c1.333-1.667,7.5-4.334,8.667-4.334c0,3,0,4.334,0,4.334L219.333,342.5z"></path></g></g><g><g><path style="fill:#6E6E6E;stroke:#000000;stroke-linecap:round;stroke-linejoin:round;" d="M260.917,280.801c0,0,3,14.449,3,17.199s-1.5,12.167-3.5,14s-10.25,5.25-10.25,5.25v43.5c0,0,15.916,0.584,16.916,0.084s16.084-3.834,17.334-6.584c1.5-4,0.5-6.25,0.5-6.25l-4.25-5.5c0,0-4.75-15.5-4.75-16.5c0.25-3.5-1.25-18.75-1.5-21s-4.75-12.5-4.75-12.5l-3.5-10.25L260.917,280.801z"></path><path style="fill:#3F3F3F;stroke:#000000;stroke-linecap:round;stroke-linejoin:round;" d="M280.667,342.5c0,0,0.416-3.333-0.25-4c-1.334-1.667-7.5-4.334-8.667-4.334c0,3,0,4.334,0,4.334L280.667,342.5z"></path></g></g></g><g><rect x="248.583" y="316.334" style="fill:#DCDCDC;stroke:#000000;stroke-linecap:round;stroke-linejoin:round;" width="2.833" height="44.833"></rect><g><polygon style="fill:#DCDCDC;stroke:#000000;stroke-linecap:round;stroke-linejoin:round;" points="252.119,316.067 247.881,316.067 245.762,328.431 245.762,331.433 254.238,331.433 254.238,328.431 "></polygon><g><ellipse style="fill:#BEBEBE;" cx="250" cy="323.044" rx="2.031" ry="2.26"></ellipse><ellipse cx="250" cy="323.706" rx="1.743" ry="1.501"></ellipse></g><rect x="246.38" y="328.482" style="fill:#BEBEBE;" width="7.241" height="2.297"></rect></g></g></g><g><g><path style="fill:#FFFFFF;stroke:#000000;stroke-linecap:round;stroke-linejoin:round;" d="M211.917,286.166c0,0-2.167,2.5-3,4.167c9.666,1.667,20.833,4,20.833,4l1.833-4.5C231.583,289.833,217.417,285.499,211.917,286.166z"></path><path style="fill:#6E6E6E;stroke:#000000;stroke-linecap:round;stroke-linejoin:round;" d="M237.083,306.166c0,0-0.333-8.332,0-11.666s3.5-13.667,3.5-13.667l-0.333-8.167c0,0-12.667-0.166-13.5,0.334s-10.166,5.5-15.333,14c6.5,0,17.666,2.332,18.833,3.166S237.083,306.166,237.083,306.166z"></path><path style="fill:#505050;" d="M231.583,289.333c0,0,3.5-4.5,8.167-7.5c-1.667,4.667-3,12.334-3.5,12.667S231.417,290,231.583,289.333z"></path><path style="fill:none;stroke:#000000;stroke-linecap:round;stroke-linejoin:round;" d="M215.417,281.833c0,0,12.499,0.333,18.333,3c2.333,2.333,3.899,6.368,3.899,6.368"></path><path style="fill:none;stroke:#000000;stroke-linecap:round;stroke-linejoin:round;" d="M226.083,274.666c0,0,10.333,2.166,12.667,4.5c1.167,2.834,1.167,4.167,1.167,4.167"></path></g><g><path style="fill:#FFFFFF;stroke:#000000;stroke-linecap:round;stroke-linejoin:round;" d="M288.083,286.166c0,0,2.166,2.5,3,4.167c-9.666,1.667-20.833,4-20.833,4l-1.833-4.5C268.417,289.833,282.583,285.499,288.083,286.166z"></path><path style="fill:#6E6E6E;stroke:#000000;stroke-linecap:round;stroke-linejoin:round;" d="M262.917,306.166c0,0,0.332-8.332,0-11.666c-0.334-3.334-3.5-13.667-3.5-13.667l0.333-8.167c0,0,12.667-0.166,13.5,0.334s10.166,5.5,15.333,14c-6.5,0-17.666,2.332-18.833,3.166S262.917,306.166,262.917,306.166z"></path><path style="fill:#505050;" d="M268.417,289.333c0,0-3.5-4.5-8.167-7.5c1.667,4.667,3,12.334,3.5,12.667S268.583,290,268.417,289.333z"></path><path style="fill:none;stroke:#000000;stroke-linecap:round;stroke-linejoin:round;" d="M284.583,281.833c0,0-12.5,0.333-18.333,3c-2.333,2.333-3.899,6.368-3.899,6.368"></path><path style="fill:none;stroke:#000000;stroke-linecap:round;stroke-linejoin:round;" d="M273.917,274.666c0,0-10.334,2.166-12.667,4.5c-1.167,2.834-1.167,4.167-1.167,4.167"></path></g></g></g></g></g></svg>