<svg xmlns="http://www.w3.org/2000/svg" width="500" height="500" version="1.1"><g id="x029"><g><g><g><g><g><path style="fill:#FFFFFF;stroke:#000000;stroke-linecap:round;stroke-linejoin:round;" d="M288.803,311.728c0,0,2.77,0.659,3.033,1.056c0.145,0.218,1.85,4.592,2.35,7.842c2.75,2.875,3,4.125,2.875,4.625c0,1.5-3.991,6.271-10,8.75c-10,4.125-14.75-0.25-14.75-0.25l-1.178-16.22L288.803,311.728z"></path><path style="fill:#DCDCDC;" d="M295.561,322.75l-1.75-1.875l-0.75-2.75c0,0-2.375,4.5-1.5,5.125S295.561,322.75,295.561,322.75z"></path></g><g><path style="fill:#6E6E6E;stroke:#000000;stroke-linecap:round;stroke-linejoin:round;" d="M278.811,290.625c2.66,2.659,11.881,24.019,11.881,24.809c0,0.792-7.256,11.691-17.506,5.691c-3.428-12.131-3.35-36.766-3.35-36.766S275.061,286.875,278.811,290.625z"></path><path style="fill:#505050;" d="M276.598,298.125c0,0,6.593,6.065,6.329,9.758c-0.265,3.692-6.856,10.813-6.856,10.813l-3.692-5.802L276.598,298.125z"></path><path style="fill:none;stroke:#000000;stroke-linecap:round;stroke-linejoin:round;" d="M279.696,304.78c0.131,0.396-1.056,6.856-3.825,10.549"></path></g></g></g><g><g><g><path style="fill:#FFFFFF;stroke:#000000;stroke-linecap:round;stroke-linejoin:round;" d="M211.195,311.728c0,0-2.77,0.659-3.033,1.056c-0.145,0.218-1.85,4.592-2.35,7.842c-2.75,2.875-3,4.125-2.875,4.625c0,1.5,3.991,6.271,10,8.75c10,4.125,14.75-0.25,14.75-0.25l1.177-16.22L211.195,311.728z"></path><path style="fill:#DCDCDC;" d="M204.438,322.75l1.75-1.875l0.75-2.75c0,0,2.375,4.5,1.5,5.125S204.438,322.75,204.438,322.75z"></path></g><g><path style="fill:#6E6E6E;stroke:#000000;stroke-linecap:round;stroke-linejoin:round;" d="M221.188,290.625c-2.66,2.659-11.881,24.019-11.881,24.809c0,0.792,7.256,11.691,17.506,5.691c3.428-12.131,3.35-36.766,3.35-36.766S224.938,286.875,221.188,290.625z"></path><path style="fill:#505050;" d="M223.401,298.125c0,0-6.593,6.065-6.33,9.758c0.264,3.692,6.856,10.813,6.856,10.813l3.692-5.802L223.401,298.125z"></path><path style="fill:none;stroke:#000000;stroke-linecap:round;stroke-linejoin:round;" d="M220.302,304.78c-0.131,0.396,1.055,6.856,3.825,10.549"></path></g></g></g></g><g><g><g><g><path style="fill:#6E6E6E;stroke:#000000;stroke-linecap:round;stroke-linejoin:round;" d="M267.436,284.25l-7.944,12.162c0,0-5.011,11.868-5.273,14.506c-0.264,2.637-2.171,34.048-1.907,34.707s26.066,1.979,32-9.625c-2.109-3.956-6.465-15.852-7.124-16.907c1.624-13.093-3.351-30.131-6.251-34.218c-3.297-1.582-8.375-3.75-8.375-3.75L267.436,284.25z"></path><path style="fill:none;stroke:#000000;stroke-linecap:round;stroke-linejoin:round;" d="M254.021,339.18c17.582,1.935,27.664-6.305,27.664-6.305"></path></g><g><g><path style="fill:#6E6E6E;stroke:#000000;stroke-linecap:round;stroke-linejoin:round;" d="M276.648,306.046c0,0-2.162-1.921-7.849-2.409c-3.665-0.314-8.382,2.982-8.382,2.982l0.663,10.668c0,0,5.954,4.192,9.099,3.749c2.484-0.351,6.109-4.11,6.77-5.323C277.736,313.375,276.648,306.046,276.648,306.046z"></path></g><path style="fill:none;stroke:#000000;stroke-linecap:round;stroke-linejoin:round;" d="M276.197,310.61c0,0-7.727-3.654-14.986,0.698"></path><path style="fill:none;stroke:#000000;stroke-linecap:round;stroke-linejoin:round;" d="M269.827,309.353c0,0,1.284,7.022-0.091,11.522"></path></g></g><g><g><path style="fill:#6E6E6E;stroke:#000000;stroke-linecap:round;stroke-linejoin:round;" d="M232.563,284.25l7.944,12.162c0,0,5.01,11.868,5.273,14.506c0.264,2.637,2.17,34.048,1.907,34.707c-0.264,0.659-26.066,1.979-32-9.625c2.109-3.956,6.465-15.852,7.124-16.907c-1.624-13.093,3.351-30.131,6.251-34.218c3.297-1.582,8.375-3.75,8.375-3.75L232.563,284.25z"></path><path style="fill:none;stroke:#000000;stroke-linecap:round;stroke-linejoin:round;" d="M245.977,339.18c-17.583,1.935-27.664-6.305-27.664-6.305"></path></g><g><g><path style="fill:#6E6E6E;stroke:#000000;stroke-linecap:round;stroke-linejoin:round;" d="M223.35,306.046c0,0,2.163-1.921,7.849-2.409c3.665-0.314,8.382,2.982,8.382,2.982l-0.664,10.668c0,0-5.954,4.192-9.098,3.749c-2.485-0.351-6.109-4.11-6.771-5.323C222.262,313.375,223.35,306.046,223.35,306.046z"></path></g><path style="fill:none;stroke:#000000;stroke-linecap:round;stroke-linejoin:round;" d="M223.801,310.61c0,0,7.726-3.654,14.986,0.698"></path><path style="fill:none;stroke:#000000;stroke-linecap:round;stroke-linejoin:round;" d="M230.171,309.353c0,0-1.284,7.022,0.091,11.522"></path></g></g></g><g><path style="fill:#6E6E6E;stroke:#000000;stroke-linecap:round;stroke-linejoin:round;" d="M250.551,339.652c0,0,2.787-3.345,4.17-3.784c1.38-0.438,6.018,0.508,7.926,2.858c1.906,2.349,3.43,7.012,5.971,8.263c-3.411,1.796-10.233,2.568-13.139,1.163C252.573,346.748,248.848,343.455,250.551,339.652z"></path><g><path style="fill:#6E6E6E;stroke:#000000;stroke-linecap:round;stroke-linejoin:round;" d="M242.667,337.497c0,0,0.856-3.226,1.735-3.278c0.878-0.056,2.73,1.415,2.73,1.415s2.338-2.083,3.236-1.784c0.896,0.297,3.265,4.378,3.691,5.584c0.426,1.207-1.737,6.099-2.78,6.337c-1.038,0.241-2.346,1.906-3.244,1.61C247.136,347.085,242.356,343.857,242.667,337.497z"></path><path style="fill:none;stroke:#000000;stroke-linecap:round;stroke-linejoin:round;" d="M247.132,335.634c0,0,1.72,2.186,2.707,3.886"></path></g><path style="fill:#6E6E6E;stroke:#000000;stroke-linecap:round;stroke-linejoin:round;" d="M234.429,341.004c0,0,3.118-3.715,4.182-3.606c1.064,0.109,3.617,1.537,3.617,1.537s2.688,0.712,3.081,1.394c0.395,0.682,1.718,5.002,0.534,5.781c-1.185,0.776-8.775,0.539-12.846,5.9C231.013,348.433,230.215,344.082,234.429,341.004z"></path></g><g><g><path style="fill:#6E6E6E;stroke:#000000;stroke-linecap:round;stroke-linejoin:round;" d="M260.061,279.625c-0.021,0.064,0,0.75-0.125,1.25c2.5,1.125,6.203,6.59,0.5,10.875c-0.879,1.054-1.182,4.003-1.182,4.003l4.262-1.757c0,0,5.979,2.813,11.253,9.495c1.757-0.706,1.542-13.491-4.208-19.616C267.811,281.75,260.061,279.625,260.061,279.625z"></path></g><g><path style="fill:#6E6E6E;stroke:#000000;stroke-linecap:round;stroke-linejoin:round;" d="M239.938,279.625c0.021,0.064,0,0.75,0.125,1.25c-2.5,1.125-6.203,6.59-0.5,10.875c0.879,1.054,1.182,4.003,1.182,4.003l-4.262-1.757c0,0-5.978,2.813-11.253,9.495c-1.757-0.706-1.542-13.491,4.208-19.616C232.188,281.75,239.938,279.625,239.938,279.625z"></path></g></g></g></g></g></svg>