<svg xmlns="http://www.w3.org/2000/svg" width="500" height="500" version="1.1"><g id="x003"><g><g><g><path style="fill:#6E6E6E;stroke:#000000;stroke-linecap:round;stroke-linejoin:round;" d="M206.625,319c-6.75,12-12.251,24.707-15.25,31.25c0,0,5.875,13,23.625,12.5c8.25-17.5,11.625-38.75,11.625-38.75l0.75-19l-3.875-18.75c0,0-7,6.5-9.25,11.25C212.809,300.542,211.375,304,206.625,319z"></path><path style="fill:none;stroke:#000000;stroke-linecap:round;stroke-linejoin:round;" d="M213.75,313.5c0,0,2.5,6.75,4.75,12"></path></g><g><path style="fill:#6E6E6E;stroke:#000000;stroke-linecap:round;stroke-linejoin:round;" d="M293.35,319c6.75,12,12.25,24.707,15.249,31.25c0,0-5.875,13-23.624,12.5c-8.25-17.5-11.625-38.75-11.625-38.75l-0.75-19l3.875-18.75c0,0,7,6.5,9.25,11.25C287.166,300.542,288.6,304,293.35,319z"></path><path style="fill:none;stroke:#000000;stroke-linecap:round;stroke-linejoin:round;" d="M286.225,313.5c0,0-2.5,6.75-4.75,12"></path></g></g><g><g><g><path style="fill:#6E6E6E;stroke:#000000;stroke-linecap:round;stroke-linejoin:round;" d="M240.5,307.75c0,0-0.75,29.25-0.75,37.75s-1.5,60.5-2,62c-2,2-5.75,4.75-5.75,4.75l-3.5-2c0,0-8.25,1.25-10.5,0.5c-3.75,2-17-7.5-17-7.5s8-32,14.5-55.75c0.75-15.5,7-59.5,7-59.5l10.5-6.5L240.5,307.75z"></path><path style="fill:none;stroke:#000000;stroke-linecap:round;stroke-linejoin:round;" d="M228.5,410.25c0,0-12-17.75-13.75-29"></path><path style="fill:none;stroke:#000000;stroke-linecap:round;stroke-linejoin:round;" d="M205.5,401.25c0,0,8.5,6,9.75,6.75s3,0,3,0l8.5-0.25"></path><polyline style="fill:none;stroke:#000000;stroke-linecap:round;stroke-linejoin:round;" points="231.75,408.25 235.5,405.5 238,311.25 "></polyline></g><g><circle style="fill:#3F3F3F;stroke:#000000;stroke-linecap:round;stroke-linejoin:round;" cx="234.75" cy="314" r="3"></circle><circle style="fill:#3F3F3F;stroke:#000000;stroke-linecap:round;stroke-linejoin:round;" cx="234" cy="331.25" r="3"></circle><circle style="fill:#3F3F3F;stroke:#000000;stroke-linecap:round;stroke-linejoin:round;" cx="233.25" cy="348.5" r="3"></circle><circle style="fill:#3F3F3F;stroke:#000000;stroke-linecap:round;stroke-linejoin:round;" cx="232.5" cy="365.75" r="3"></circle><circle style="fill:#3F3F3F;stroke:#000000;stroke-linecap:round;stroke-linejoin:round;" cx="231.75" cy="383" r="3"></circle></g></g><g><g><path style="fill:#6E6E6E;stroke:#000000;stroke-linecap:round;stroke-linejoin:round;" d="M259.475,307.75c0,0,0.75,29.25,0.75,37.75s1.5,60.5,2,62c2,2,11.025,3.25,20.025,5.25c3.75,2,16.725-9.5,16.725-9.5s-8-32-14.5-55.75c-0.75-15.5-7-59.5-7-59.5l-10.5-6.5L259.475,307.75z"></path><polyline style="fill:none;stroke:#000000;stroke-linecap:round;stroke-linejoin:round;" points="283.25,410.25 264.475,405.5 261.975,311.25 "></polyline></g></g></g><g><g><path style="fill:#6E6E6E;stroke:#000000;stroke-linecap:round;stroke-linejoin:round;" d="M238.486,309.409c-0.295-3.039-5.591-19.442-5.591-19.442s-9.12,6.683-13.238,11.239c-1.471-1.518,3.253-17.079,3.843-19.206c1.176-1.215,8.646-7.911,11-7c0.294,2.431,4.868,24.384,4.868,24.384s1.471,10.329,0.882,13.366"></path></g><g><path style="fill:#6E6E6E;stroke:#000000;stroke-linecap:round;stroke-linejoin:round;" d="M261.488,309.409c0.295-3.039,5.591-19.442,5.591-19.442s9.12,6.683,13.238,11.239c1.471-1.518-3.253-17.079-3.843-19.206c-1.176-1.215-8.646-7.911-11-7c-0.294,2.431-4.868,24.384-4.868,24.384s-1.472,10.329-0.882,13.366"></path></g></g></g></g></svg>