<svg xmlns="http://www.w3.org/2000/svg" width="500" height="500" version="1.1"><g id="x030"><g><g><g><g><path style="fill:#6E6E6E;stroke:#000000;stroke-linecap:round;stroke-linejoin:round;" d="M201.107,341.705c0,0-3.475,7.03-3.627,8.34s10,10.006,19.688,6.621c-0.189-2.942,1.167-8,1.167-8L201.107,341.705z"></path><g><path style="fill:#6E6E6E;stroke:#000000;stroke-linecap:round;stroke-linejoin:round;" d="M228.833,326.5l-1.083-40.334c0,0-3.667,2.667-7.417,7.084c0,0-4.917,5-10.167,25.25c-3.868,5.412-5,9.833-5.255,12.913c-4.329,4.837-5.357,7.407-6.412,9.253s5.156,8.058,10.167,10.167c5.274,1.583,11.014,1.415,11.014,1.415L228.833,326.5z"></path><path style="fill:#505050;" d="M230.218,306.725c0,0-7.198-5.607-8.298-3.152c-1.1,2.453,2.34,11.894,3.447,11.785c3.157-1.985,6.01-4.221,6.01-4.221L230.218,306.725z"></path><path style="fill:none;stroke:#000000;stroke-linecap:round;stroke-linejoin:round;" d="M225.966,311.136c0,0-2.716-4.386-3.632-7.553"></path></g></g></g><g><g><path style="fill:#6E6E6E;stroke:#000000;stroke-linecap:round;stroke-linejoin:round;" d="M298.297,341.705c0,0,3.475,7.03,3.628,8.34s-9.999,10.006-19.688,6.621c0.188-2.942-1.167-8-1.167-8L298.297,341.705z"></path><g><path style="fill:#6E6E6E;stroke:#000000;stroke-linecap:round;stroke-linejoin:round;" d="M270.57,326.5l1.084-40.334c0,0,3.666,2.667,7.416,7.084c0,0,4.918,5,10.167,25.25c3.868,5.412,5.001,9.833,5.255,12.913c4.328,4.837,5.357,7.407,6.412,9.253s-5.156,8.058-10.167,10.167c-5.274,1.583-11.014,1.415-11.014,1.415L270.57,326.5z"></path><path style="fill:#505050;" d="M269.187,306.725c0,0,7.198-5.607,8.298-3.152c1.101,2.453-2.34,11.894-3.446,11.785c-3.157-1.985-6.01-4.221-6.01-4.221L269.187,306.725z"></path><path style="fill:none;stroke:#000000;stroke-linecap:round;stroke-linejoin:round;" d="M273.438,311.136c0,0,2.716-4.386,3.632-7.553"></path></g></g></g></g><g><g><g><g><g><path style="fill:#6E6E6E;stroke:#000000;stroke-linecap:round;stroke-linejoin:round;" d="M247.533,301.961c0,0-13.653-10.126-16.95-8.544c-2.901,4.087-5,9.749-5.75,31.166c-3.5,6.25-7.744,13.512-7.583,18c0.167,4.666,0.083,5.584,0.25,6.917c-1.583,5.416-1.833,9-1.833,9s8.167,3.667,16.922,2.711c1.421-1.479,2.813-5.098,2.637-10.197c7.195-11.518,5.354-19.479,5.629-27.247C241.11,316.55,247.533,301.961,247.533,301.961z"></path></g></g><path style="fill:#505050;" d="M217.063,353.125c0,0,0.813-3,0.938-3.5c-0.063-1.125-0.25-4.875-0.25-5.438c1.563,2,7.188,5.688,7.25,6.563S217.063,353.125,217.063,353.125z"></path></g><g><g><g><path style="fill:#6E6E6E;stroke:#000000;stroke-linecap:round;stroke-linejoin:round;" d="M251.871,301.961c0,0,13.653-10.126,16.949-8.544c2.901,4.087,5,9.749,5.75,31.166c3.5,6.25,7.744,13.512,7.584,18c-0.166,4.666-0.084,5.584-0.25,6.917c1.583,5.416,1.834,9,1.834,9s-8.168,3.667-16.922,2.711c-1.422-1.479-2.814-5.098-2.638-10.197c-7.195-11.518-5.354-19.479-5.63-27.247C258.294,316.55,251.871,301.961,251.871,301.961z"></path></g></g><path style="fill:#505050;" d="M282.342,353.125c0,0-0.813-3-0.938-3.5c0.063-1.125,0.25-4.875,0.25-5.438c-1.563,2-7.188,5.688-7.25,6.563S282.342,353.125,282.342,353.125z"></path></g></g><g><path style="fill:#FFFFFF;stroke:#000000;stroke-linecap:round;stroke-linejoin:round;" d="M239.833,280.25c-1.083,6.166-2.146,13.799,8.593,21.099c-1.055,5.538-4.506,7.63-8.427,7.567c-5.167-0.083-5.917-3.5-5.917-3.5s-3.207,0.773-5.917-2.916c-2.374-3.23-0.583-6.417-0.583-6.417s-2.971-0.534-3.917-4.083C222.667,288.25,229.988,281.48,239.833,280.25z"></path><path style="fill:#FFFFFF;stroke:#000000;stroke-linecap:round;stroke-linejoin:round;" d="M259.57,280.25c1.084,6.166,2.146,13.799-8.593,21.099c1.056,5.538,4.507,7.63,8.427,7.567c5.166-0.083,5.916-3.5,5.916-3.5s3.207,0.773,5.918-2.916c2.373-3.23,0.582-6.417,0.582-6.417s2.971-0.534,3.918-4.083C276.738,288.25,269.416,281.48,259.57,280.25z"></path></g></g></g></g></svg>