<svg xmlns="http://www.w3.org/2000/svg" width="500" height="500" version="1.1"><g id="x031"><g><g><g><g><path style="fill:#6E6E6E;stroke:#000000;stroke-linecap:round;stroke-linejoin:round;" d="M232.954,291.334c0,0-6.587,7.5-7.754,13.5s-0.5,19.334-0.5,19.334s-5,10.999-4.833,12.166c2.5,3.5,10,7.501,18.167,8.334c4.667-4.834,12-19.834,12-19.834s-14.412-1.5-17.246-8.167c-2.746-6.168-1.667-12.167-1.667-12.167s4.167-7.333,14.167-14.833L232.954,291.334z"></path><path style="fill:#505050;" d="M224.179,326.563l1.063-2.313c0,0-0.125-2.125-0.125-2.5c1,0.625,3.25,2.25,3,2.938S224.179,326.563,224.179,326.563z"></path></g><path style="fill:#666666;stroke:#000000;stroke-linecap:round;stroke-linejoin:round;" d="M221.033,333.001c0,0-1.833,2.499-1.833,3.833c2.167,3,8.333,8.167,18.833,9.167c4.667-6.833,12-20.833,12-20.833s-3.167-1.667-3.5-1.167c-0.5,0.667-10.333,17-10.333,17S224.866,338.501,221.033,333.001z"></path></g><g><g><path style="fill:#6E6E6E;stroke:#000000;stroke-linecap:round;stroke-linejoin:round;" d="M267.048,291.334c0,0,6.587,7.5,7.754,13.5s0.5,19.334,0.5,19.334s5,10.999,4.833,12.166c-2.5,3.5-9.999,7.501-18.166,8.334c-4.667-4.834-12.001-19.834-12.001-19.834s14.414-1.5,17.248-8.167c2.746-6.168,1.666-12.167,1.666-12.167s-4.166-7.333-14.166-14.833L267.048,291.334z"></path><path style="fill:#505050;" d="M275.822,326.563l-1.063-2.313c0,0,0.125-2.125,0.125-2.5c-1,0.625-3.25,2.25-3,2.938S275.822,326.563,275.822,326.563z"></path></g><path style="fill:#666666;stroke:#000000;stroke-linecap:round;stroke-linejoin:round;" d="M278.969,333.001c0,0,1.833,2.499,1.833,3.833c-2.167,3-8.333,8.167-18.833,9.167c-4.666-6.833-12.001-20.833-12.001-20.833s3.168-1.667,3.501-1.167c0.5,0.667,10.333,17,10.333,17S275.135,338.501,278.969,333.001z"></path></g></g><g><path style="fill:#6E6E6E;stroke:#000000;stroke-linecap:round;stroke-linejoin:round;" d="M249.866,293.125c0,0-3.375-4.125-3.875-5.875c-3.75-2.25-5.375-4.75-5.625-6.5c-0.125-1.375-0.125-2.5-0.125-2.5l-2.625,0.625c0,0-4.663,2.292-5.996,4.292c-0.625,1.125-3.917,11.375-0.167,17c4.25-6,11.663-11.042,12.163-10.917S249.866,293.125,249.866,293.125z"></path><path style="fill:#6E6E6E;stroke:#000000;stroke-linecap:round;stroke-linejoin:round;" d="M250.133,293.125c0,0,3.376-4.125,3.876-5.875c3.75-2.25,5.375-4.75,5.625-6.5c0.125-1.375,0.125-2.5,0.125-2.5l2.625,0.625c0,0,4.663,2.292,5.996,4.292c0.625,1.125,3.917,11.375,0.167,17c-4.25-6-11.663-11.042-12.163-10.917S250.133,293.125,250.133,293.125z"></path></g></g></g></svg>