<svg xmlns="http://www.w3.org/2000/svg" width="500" height="500" version="1.1"><g id="x032"><g><g><g><path style="fill:#6E6E6E;stroke:#000000;stroke-linecap:round;stroke-linejoin:round;" d="M230.855,301c0.479-6.264-0.667-10.167-0.667-10.167s-5.333,10.167-6.333,16c-0.5,7.167-0.333,18.334-0.333,18.334c-6.042,10.458-6.891,10.115-10,18.666c7.5,8.667,14.667,10.834,14.667,10.834c2.5-8.667,3.5-25,2.5-28.667c-0.333-2.167-2-11.333-1.833-15.333C229.296,308.413,230.656,303.608,230.855,301z"></path><path style="fill:none;stroke:#FFFFFF;stroke-linecap:round;stroke-linejoin:round;stroke-dasharray:1 3;" d="M229.688,300.833c0,0-2.333,5.833-2.667,8.5s1.167,16.833,1.667,19.5s-3.167,19.667-3.167,19.667"></path><path style="fill:#FFFFFF;stroke:#000000;stroke-linecap:round;stroke-linejoin:round;" d="M230.655,340.532c0,0-5.133-1.199-5.8-2.032c-0.167-0.5,0.5-3.167,1-3.667s5.333,0.666,5.667,1.5S231.655,339.698,230.655,340.532z"></path></g><g><path style="fill:#6E6E6E;stroke:#000000;stroke-linecap:round;stroke-linejoin:round;" d="M240.511,279.72c-0.059-1.235-13.5-6.301-28.199,1.199c12,3,19.543,7.914,18.376,20.914C234.188,289.167,236.688,285.667,240.511,279.72z"></path><circle style="fill:#FFFFFF;stroke:#000000;stroke-linecap:round;stroke-linejoin:round;" cx="222.659" cy="281.367" r="2.248"></circle></g></g><g><g><path style="fill:#6E6E6E;stroke:#000000;stroke-linecap:round;stroke-linejoin:round;" d="M269.145,301c-0.479-6.264,0.668-10.167,0.668-10.167s5.332,10.167,6.332,16c0.5,7.167,0.334,18.334,0.334,18.334c6.043,10.458,6.891,10.115,10,18.666c-7.5,8.667-14.666,10.834-14.666,10.834c-2.5-8.667-3.5-25-2.5-28.667c0.332-2.167,2-11.333,1.832-15.333C270.703,308.413,269.344,303.608,269.145,301z"></path><path style="fill:none;stroke:#FFFFFF;stroke-linecap:round;stroke-linejoin:round;stroke-dasharray:1 3;" d="M270.313,300.833c0,0,2.332,5.833,2.666,8.5s-1.166,16.833-1.666,19.5s3.166,19.667,3.166,19.667"></path><path style="fill:#FFFFFF;stroke:#000000;stroke-linecap:round;stroke-linejoin:round;" d="M269.344,340.532c0,0,5.135-1.199,5.801-2.032c0.168-0.5-0.5-3.167-1-3.667s-5.332,0.666-5.666,1.5S268.344,339.698,269.344,340.532z"></path></g><g><path style="fill:#6E6E6E;stroke:#000000;stroke-linecap:round;stroke-linejoin:round;" d="M259.488,279.72c0.059-1.235,13.5-6.301,28.199,1.199c-12,3-19.543,7.914-18.375,20.914C265.813,289.167,263.313,285.667,259.488,279.72z"></path><circle style="fill:#FFFFFF;stroke:#000000;stroke-linecap:round;stroke-linejoin:round;" cx="277.341" cy="281.367" r="2.247"></circle></g></g></g></g></svg>