<svg xmlns="http://www.w3.org/2000/svg" width="500" height="500" version="1.1"><g id="x033"><g><g><g><g><path style="fill:#6E6E6E;stroke:#000000;stroke-linecap:round;stroke-linejoin:round;" d="M224.825,316.938c0.375-10.5,2-18.375,4.579-22.009c-0.797-2.528-2.169-5.409-4.454-6.679c0,0-4.625,3.791-6.875,7.916s-8.557,25.061-11.5,30.667c-5.667,6.167-9.24,10.472-9.167,11c0.5,1.5,1.583,4.75,1.583,4.75s-1.417,2.459-2.167,4.834c0,1,1.333,3.583,1.333,3.583s3.375-1.375,6.75,1s3.833,3.833,3.833,3.833s5.5-1.666,5.75-2.041s0.75-2.625,0.75-2.625s5.583-15.917,5.958-17.417C221.401,332.947,223.287,326.414,224.825,316.938z"></path><path style="fill:#505050;" d="M222.409,320.833l2.042-6.021c0,0,0.563-6.313,0.938-8.563s1.521-7.25,1.521-7.25s-1.5,5.332-6,4.666c0.167,2.834,2.333,6.5,2.5,8.167S222.409,320.833,222.409,320.833z"></path><path style="fill:#505050;" d="M198.242,345l1.333-2.5l-1.167-3.5c0,0,6.167,2.167,7.5,6C201.575,345.667,198.242,345,198.242,345z"></path><path style="fill:none;stroke:#000000;stroke-linecap:round;stroke-linejoin:round;" d="M220.325,301c0,0,1,7,4.25,10.75"></path></g><path style="fill:#6E6E6E;stroke:#000000;stroke-linecap:round;stroke-linejoin:round;" d="M222.825,361.5c-7,4.25-9.25,8.25-10,8.25c-1-3.25,6.75-45.583,12.25-54.583C222.825,339.667,222.075,358.5,222.825,361.5z"></path></g><g><path style="fill:#6E6E6E;stroke:#000000;stroke-linecap:round;stroke-linejoin:round;" d="M238.575,280.75c0,0-4.563,4.188-9.333,14.917c-1.125-7.625-4-6.667-4-6.667l-4.167,1.667c0,0-2-1.667-2.25-2.667s2.25-5.25,4.5-7.25s3.75-3.5,8.25-5.5c5.75-0.75,8,0.75,8,0.75l0.75,4.75H238.575z"></path><path style="fill:#505050;" d="M233.2,287c0,0,3.542-5.459,5.375-6.625c1.167-0.166,1.438-0.063,1.438-0.063l-1.438-6.5c0,0-7.167,1.188-10.667,5.021C233.242,284,233.2,287,233.2,287z"></path><path style="fill:none;stroke:#000000;stroke-linecap:round;stroke-linejoin:round;" d="M223.555,287c0,0,1.5,0.833,2.833,2"></path></g></g><g><g><g><path style="fill:#6E6E6E;stroke:#000000;stroke-linecap:round;stroke-linejoin:round;" d="M275.175,316.938c-0.375-10.5-2-18.375-4.579-22.009c0.797-2.528,2.169-5.409,4.454-6.679c0,0,4.625,3.791,6.875,7.916s8.557,25.061,11.5,30.667c5.666,6.167,9.24,10.472,9.166,11c-0.5,1.5-1.582,4.75-1.582,4.75s1.416,2.459,2.166,4.834c0,1-1.334,3.583-1.334,3.583s-3.375-1.375-6.75,1s-3.832,3.833-3.832,3.833s-5.5-1.666-5.75-2.041s-0.75-2.625-0.75-2.625s-5.584-15.917-5.959-17.417C278.599,332.947,276.714,326.414,275.175,316.938z"></path><path style="fill:#505050;" d="M277.591,320.833l-2.041-6.021c0,0-0.563-6.313-0.938-8.563s-1.521-7.25-1.521-7.25s1.5,5.332,6,4.666c-0.166,2.834-2.333,6.5-2.5,8.167C276.425,313.5,277.591,320.833,277.591,320.833z"></path><path style="fill:#505050;" d="M301.759,345l-1.334-2.5l1.166-3.5c0,0-6.166,2.167-7.5,6C298.425,345.667,301.759,345,301.759,345z"></path><path style="fill:none;stroke:#000000;stroke-linecap:round;stroke-linejoin:round;" d="M279.675,301c0,0-1,7-4.25,10.75"></path></g><path style="fill:#6E6E6E;stroke:#000000;stroke-linecap:round;stroke-linejoin:round;" d="M277.175,361.5c7,4.25,9.25,8.25,10,8.25c1-3.25-6.75-45.583-12.25-54.583C277.175,339.667,277.925,358.5,277.175,361.5z"></path></g><g><path style="fill:#6E6E6E;stroke:#000000;stroke-linecap:round;stroke-linejoin:round;" d="M261.425,280.75c0,0,4.563,4.188,9.333,14.917c1.125-7.625,4-6.667,4-6.667l4.167,1.667c0,0,2-1.667,2.25-2.667s-2.25-5.25-4.5-7.25s-3.75-3.5-8.25-5.5c-5.75-0.75-8,0.75-8,0.75l-0.75,4.75H261.425z"></path><path style="fill:#505050;" d="M266.8,287c0,0-3.542-5.459-5.375-6.625c-1.166-0.166-1.438-0.063-1.438-0.063l1.438-6.5c0,0,7.166,1.188,10.666,5.021C266.758,284,266.8,287,266.8,287z"></path><path style="fill:none;stroke:#000000;stroke-linecap:round;stroke-linejoin:round;" d="M276.445,287c0,0-1.499,0.833-2.833,2"></path></g></g></g></g></svg>