<svg xmlns="http://www.w3.org/2000/svg" width="500" height="500" version="1.1"><g id="x034"><g><g><g><path style="fill:#6E6E6E;stroke:#000000;stroke-linecap:round;stroke-linejoin:round;" d="M287.358,304.597c0,0,5.802,10.813,5.538,17.405c-5.803,3.692-19.253,9.23-19.253,9.23l-3.691-23.735c0,0,10.021-13.449,12.658-13.714C285.248,293.52,287.358,304.597,287.358,304.597z"></path><path style="fill:#505050;" d="M274.698,311.188c0,0,5.1-2.284,6.507-0.175c1.405,2.11-0.171,12.951-4.038,15.237C275.232,319.922,274.698,311.188,274.698,311.188z"></path><path style="opacity:0.5;fill:none;stroke:#FFFFFF;stroke-linecap:round;stroke-linejoin:round;stroke-dasharray:1.0047 3.014;" d="M275.615,304.792c0,0,0.791,8.702,1.847,10.284c0.79,1.847,2.9,10.022,2.9,11.077"></path><path style="fill:none;stroke:#000000;stroke-linecap:round;stroke-linejoin:round;" d="M275.754,320.508c0,0,3.516-3.164,5.274-10.725"></path></g><g><path style="fill:#6E6E6E;stroke:#000000;stroke-linecap:round;stroke-linejoin:round;" d="M212.25,315.084c-0.528-1.847,1.25-3.916,2.583-8.416c0,0-6.735,5.779-7,8.416c-0.264,2.638-0.82,9.458-1.083,10.25c-0.263,0.79-5.083,10.083-5.083,10.083s3.145,8.211,18.177,8.211c3.956-7.912,2.156-15.211,2.156-15.211S214.319,320.907,212.25,315.084z"></path><path style="fill:#505050;" d="M215.667,341.167c0,0-4.965-3.605-4.789-11.692c2.989-2.989,5.626-5.626,5.626-5.626S218.127,336.771,215.667,341.167z"></path><path style="fill:none;stroke:#000000;stroke-linecap:round;stroke-linejoin:round;" d="M209.296,325.431c1.054,2.462,3.515,6.682,7.384,9.143"></path></g></g><g><path style="fill:#6E6E6E;stroke:#000000;stroke-linecap:round;stroke-linejoin:round;" d="M216.68,327.541c0,0-0.527,10.813-0.527,12.922c0,2.11-5.274,8.176-6.593,15.824c-1.318,7.647,0,25.581,0,25.581c0.858-0.034,3.034-1.431,3.358-4.034c0.645-5.184,0.833-9,1.652-12.054c2.929-3.515,2.956-3.475,9.759-11.339c1.318-6.066,3.164-15.561,3.691-18.989c-0.527-1.318-11.951-12.747-14.853-18.285"></path><path style="opacity:0.5;fill:none;stroke:#FFFFFF;stroke-linecap:round;stroke-linejoin:round;stroke-dasharray:1.0047 3.014;" d="M220.635,330.441l-0.792,13.187c0,0-5.538,10.549-6.329,12.396c-0.792,1.846,0,8.966,0,8.966"></path><path style="fill:#6E6E6E;stroke:#000000;stroke-linecap:round;stroke-linejoin:round;" d="M218.721,346.705l-0.527,4.57c0,0-7.56,4.748-8.791,5.979c-0.528-2.109,1.055-5.275,1.055-5.275S213.623,348.287,218.721,346.705z"></path></g><g><g><path style="fill:#6E6E6E;stroke:#000000;stroke-linecap:round;stroke-linejoin:round;" d="M264.5,315.334c0,0,0.885,18.198,1.149,21.1c0.264,2.9,3.868,32.701,3.868,32.701c8.967,0.528,15.296-6.856,15.296-6.856s-4.396-21.444-9.063-36.527c-0.918-11.333-1.834-18-1.834-18L264.5,315.334z"></path><path style="opacity:0.5;fill:none;stroke:#FFFFFF;stroke-linecap:round;stroke-linejoin:round;stroke-dasharray:1.0047 3.014;" d="M270.479,313.563c0,0.792,2.637,8.439,2.11,13.714c-0.528,5.274-0.265,17.671-0.265,17.671l4.747,21.097"></path><path style="fill:#6E6E6E;stroke:#000000;stroke-linecap:round;stroke-linejoin:round;" d="M273.636,343.458l0.527,4.571c0,0,7.562,4.747,8.792,5.978c0.526-2.11-1.056-5.274-1.056-5.274S278.735,345.04,273.636,343.458z"></path></g><g><path style="fill:#6E6E6E;stroke:#000000;stroke-linecap:round;stroke-linejoin:round;" d="M264.667,315.251c1.416-6.084,5.285-21.731,7.923-28.852c2.9-1.319,11.603,6.064,12.395,7.911c0.791,1.846,5.011,12.659,4.746,14.241c-0.526-0.791-7.12-11.604-7.12-11.604c-1.055,1.582-10.168,13.876-13.86,20.469"></path><path style="opacity:0.5;fill:none;stroke:#FFFFFF;stroke-linecap:round;stroke-linejoin:round;stroke-dasharray:1.0047 3.014;" d="M268.417,313.834c0,0,4.667-18.667,6.583-25.333"></path></g></g></g></g></svg>