<svg xmlns="http://www.w3.org/2000/svg" width="500" height="500" version="1.1"><g id="x035"><g><g><path style="fill:#FFFFFF;stroke:#000000;stroke-linecap:round;stroke-linejoin:round;" d="M213.616,306.777c0,0-1.233,2.739-1.07,4.739c3.15,3.7,11.506,6.196,13.945,5.622c-0.109-2.686-1.149-4.878-1.149-4.878L213.616,306.777z"></path><path style="fill:#FFFFFF;stroke:#000000;stroke-linecap:round;stroke-linejoin:round;" d="M212.333,352.334c0,0-1.667,2.166-1.667,5.666c3.5,7.667,11.834,11.334,12.334,11.334c0.166-3.334-0.167-7-0.167-7L212.333,352.334z"></path><path style="fill:#6E6E6E;stroke:#000000;stroke-linecap:round;stroke-linejoin:round;" d="M228,284c-0.778,0.467-3.167,1.334-4.834,4.334c-4.333,4.666-9.347,11.199-10.333,14c-0.166,0.5,0.667,4.333,0.667,4.333s2.3,1.834,7.133,3.667c-1,7-0.3,13.499-0.3,13.499s-6,20.167-8.333,29.334c-0.093,0.361,8,8.333,10.667,9.666c0.667-1.167,1.5-9.166,1.666-9.833c0.167-0.667,2.334-35.167,2.334-35.167l-0.834-9.666c0,0-0.5-11,0-12.833s3.167-9.667,3.167-9.667l3.333-2.334C232.333,283.333,228.833,283.5,228,284z"></path><path style="fill:#505050;" d="M220.667,309.5l0.966-4l-2.466-1.666C219.167,303.834,218,306.166,220.667,309.5z"></path><path style="fill:none;stroke:#000000;stroke-linecap:round;stroke-linejoin:round;" d="M220.083,324.417c0,0,0.667-1.167,2.292-3.354"></path><g><path style="fill:#6E6E6E;stroke:#000000;stroke-linecap:round;stroke-linejoin:round;" d="M220.633,310.334c0,0,0.334-3.001,1-4.834"></path><path style="fill:#6E6E6E;stroke:#000000;stroke-linecap:round;stroke-linejoin:round;" d="M218.274,301.831c0.301,0.434,1.579,3.011,6.149,4.969"></path></g></g><g><path style="fill:#FFFFFF;stroke:#000000;stroke-linecap:round;stroke-linejoin:round;" d="M286.385,306.777c0,0,1.232,2.739,1.069,4.739c-3.149,3.7-11.506,6.196-13.944,5.622c0.108-2.686,1.148-4.878,1.148-4.878L286.385,306.777z"></path><path style="fill:#FFFFFF;stroke:#000000;stroke-linecap:round;stroke-linejoin:round;" d="M287.667,352.334c0,0,1.667,2.166,1.667,5.666c-3.5,7.667-11.834,11.334-12.334,11.334c-0.166-3.334,0.167-7,0.167-7L287.667,352.334z"></path><path style="fill:#6E6E6E;stroke:#000000;stroke-linecap:round;stroke-linejoin:round;" d="M272,284c0.779,0.467,3.168,1.334,4.834,4.334c4.334,4.666,9.348,11.199,10.333,14c0.167,0.5-0.667,4.333-0.667,4.333s-2.299,1.834-7.133,3.667c1,7,0.3,13.499,0.3,13.499s6,20.167,8.333,29.334c0.093,0.361-8,8.333-10.666,9.666c-0.668-1.167-1.5-9.166-1.667-9.833s-2.333-35.167-2.333-35.167l0.833-9.666c0,0,0.5-11,0-12.833S271,285.667,271,285.667l-3.333-2.334C267.667,283.333,271.168,283.5,272,284z"></path><path style="fill:#505050;" d="M279.713,309.5l-0.967-4l2.467-1.666C281.213,303.834,282.38,306.166,279.713,309.5z"></path><path style="fill:none;stroke:#000000;stroke-linecap:round;stroke-linejoin:round;" d="M279.917,324.417c0,0-0.667-1.167-2.292-3.354"></path><g><path style="fill:#6E6E6E;stroke:#000000;stroke-linecap:round;stroke-linejoin:round;" d="M279.367,310.334c0,0-0.334-3.001-1-4.834"></path><path style="fill:#6E6E6E;stroke:#000000;stroke-linecap:round;stroke-linejoin:round;" d="M281.726,301.831c-0.301,0.434-1.579,3.011-6.149,4.969"></path></g></g></g></g></svg>