<svg xmlns="http://www.w3.org/2000/svg" width="500" height="500" version="1.1"><g id="x036"><g><g><g><path style="fill:#FFFFFF;stroke:#000000;stroke-linecap:round;stroke-linejoin:round;" d="M210.112,319.125c0,0-2,4.875-2.125,6c1.75,2.125,11.25,6.5,15.75,6.25c1.875-4.375,2.5-6.375,2.5-6.375L210.112,319.125z"></path><path style="fill:#6E6E6E;stroke:#000000;stroke-linecap:round;stroke-linejoin:round;" d="M224.362,289.25c0,0-4.375,5-6.625,9s-4.5,12.125-4.5,12.125s-3.75,3.875-4,5s1.125,4.75,1.125,4.75s11.625,6.375,17.625,6.375c4.125-14.375,4.25-30.5,4.25-30.5L224.362,289.25z"></path><path style="fill:#505050;" d="M227.237,297.875c0,0-4.75,2.375-5.625,4.375s1,8.5,3.375,10.375C226.237,306.375,227.237,297.875,227.237,297.875z"></path><path style="fill:none;stroke:#000000;stroke-linecap:round;stroke-linejoin:round;" d="M221.112,300.75c0,0,0.375,6.75,4.375,10.5"></path></g><g><path style="fill:#FFFFFF;stroke:#000000;stroke-linecap:round;stroke-linejoin:round;" d="M289.888,319.125c0,0,2,4.875,2.125,6c-1.75,2.125-11.25,6.5-15.75,6.25c-1.875-4.375-2.5-6.375-2.5-6.375L289.888,319.125z"></path><path style="fill:#6E6E6E;stroke:#000000;stroke-linecap:round;stroke-linejoin:round;" d="M275.638,289.25c0,0,4.375,5,6.625,9s4.5,12.125,4.5,12.125s3.75,3.875,4,5s-1.125,4.75-1.125,4.75s-11.625,6.375-17.625,6.375c-4.125-14.375-4.25-30.5-4.25-30.5L275.638,289.25z"></path><path style="fill:#505050;" d="M272.763,297.875c0,0,4.75,2.375,5.625,4.375s-1,8.5-3.375,10.375C273.763,306.375,272.763,297.875,272.763,297.875z"></path><path style="fill:none;stroke:#000000;stroke-linecap:round;stroke-linejoin:round;" d="M278.888,300.75c0,0-0.375,6.75-4.375,10.5"></path></g></g><g><g><path style="fill:#6E6E6E;stroke:#000000;stroke-linecap:round;stroke-linejoin:round;" d="M243.503,327.989c0,0,1.846,3.56,2.505,4.746c0.659,1.188,0.29,11.807,0.158,12.598c-21.167-0.833-26.055-7.083-26.055-7.083l3.5-10.5c0,0-0.746-1.256-0.811-2.003c-0.064-0.497,1.582-1.847,1.582-1.847s-0.771-6.775,0.604-16.15c1.417-9.658,5.125-14.125,5.125-14.125l5.48,1.267C235.591,294.892,233.35,316.517,243.503,327.989z"></path><path style="fill:#6E6E6E;stroke:#000000;stroke-linecap:round;stroke-linejoin:round;" d="M256.497,327.989c0,0-1.846,3.56-2.506,4.746c-0.658,1.188-0.289,11.807-0.157,12.598c21.167-0.833,26.055-7.083,26.055-7.083l-3.5-10.5c0,0,0.746-1.256,0.811-2.003c0.064-0.497-1.582-1.847-1.582-1.847s0.771-6.775-0.604-16.15c-1.417-9.658-5.125-14.125-5.125-14.125l-5.479,1.267C264.409,294.892,266.65,316.517,256.497,327.989z"></path></g><g><path style="fill:#6E6E6E;stroke:#000000;stroke-linecap:round;stroke-linejoin:round;" d="M237.258,281.31c0,0-3.005,14.448,0.431,28.19c2.5,10,6.822,20.598,6.822,20.598s-19.052-11.246-21.822-25.223c1.875-2.625,6.5-6.875,6.5-6.875s-3.625-5-5.513-7.855C227.314,283.625,237.258,281.31,237.258,281.31z"></path><path style="fill:#6E6E6E;stroke:#000000;stroke-linecap:round;stroke-linejoin:round;" d="M262.742,281.31c0,0,3.005,14.448-0.431,28.19c-2.5,10-6.821,20.598-6.821,20.598s19.052-11.246,21.821-25.223c-1.875-2.625-6.5-6.875-6.5-6.875s3.625-5,5.513-7.855C272.687,283.625,262.742,281.31,262.742,281.31z"></path></g></g></g></g></svg>