<svg xmlns="http://www.w3.org/2000/svg" width="500" height="500" version="1.1"><g id="x037"><g><g><g><g><path style="fill:#6E6E6E;stroke:#000000;stroke-linecap:round;stroke-linejoin:round;" d="M230.221,284.166c0,0-6.833,5.334-9.5,8.667c-3.5,5-5.5,10.833-5.5,10.833s-2.834,5.333-3.167,7c4.333,2.334,16.333,4.167,16.333,4.167L230.221,284.166z"></path><path style="fill:#505050;" d="M225.554,298c0,0-3.333,1.833-4,4.333s1.667,8.334,3.167,9.667C226.221,306.166,225.554,298,225.554,298z"></path><path style="fill:none;stroke:#000000;stroke-linecap:round;stroke-linejoin:round;" d="M221.387,301c0,0,1,4.166,3.833,7.666"></path></g><g><path style="fill:#6E6E6E;stroke:#000000;stroke-linecap:round;stroke-linejoin:round;" d="M210.221,310.5c-0.833,0.666-3,6.833-2.5,8.333c1.5,2.167,15.167,6,18.333,5.5c1-3.333,2.333-8.166,2-8.833S211.054,309.834,210.221,310.5z"></path><path style="fill:none;stroke:#000000;stroke-linecap:round;stroke-linejoin:round;stroke-dasharray:1.0047 3;" d="M209.387,316.833c0,0,8.333,3.333,16,4.5"></path></g></g><g><g><path style="fill:#6E6E6E;stroke:#000000;stroke-linecap:round;stroke-linejoin:round;" d="M269.78,284.166c0,0,6.833,5.334,9.5,8.667c3.5,5,5.5,10.833,5.5,10.833s2.834,5.333,3.167,7c-4.333,2.334-16.333,4.167-16.333,4.167L269.78,284.166z"></path><path style="fill:#505050;" d="M274.447,298c0,0,3.333,1.833,4,4.333s-1.667,8.334-3.167,9.667C273.78,306.166,274.447,298,274.447,298z"></path><path style="fill:none;stroke:#000000;stroke-linecap:round;stroke-linejoin:round;" d="M278.614,301c0,0-1.001,4.166-3.834,7.666"></path></g><g><path style="fill:#6E6E6E;stroke:#000000;stroke-linecap:round;stroke-linejoin:round;" d="M289.78,310.5c0.834,0.666,3,6.833,2.5,8.333c-1.5,2.167-15.167,6-18.334,5.5c-1-3.333-2.332-8.166-2-8.833C272.28,314.833,288.946,309.834,289.78,310.5z"></path><path style="fill:none;stroke:#000000;stroke-linecap:round;stroke-linejoin:round;stroke-dasharray:1.0047 3;" d="M290.614,316.833c0,0-8.334,3.333-16,4.5"></path></g></g></g><g><g><g><g><path style="fill:#6E6E6E;stroke:#000000;stroke-linecap:round;stroke-linejoin:round;" d="M227.478,296.166c0,0-1.333,3.834-2.5,9s-0.935,18.667-0.935,18.667s-5.965,7.71-5.918,8.542c0.166,3,1.708,5.625,1.708,5.625s12.31,8.166,29.977,8.166c0.167-8-1.833-11.333-1.833-11.333l-3-9.333l-1.025-25.185c-4.309-2.813-6.975-4.147-6.975-4.147L227.478,296.166z"></path><path style="fill:#505050;" d="M223.625,326.25c0,0-3.375,4.75-3.375,5.375s2.625,2.875,4.125,3.625S237,334,238.75,332.625c-3.75-0.875-14.375-3.875-14.375-3.875L223.625,326.25z"></path><path style="fill:#505050;" d="M225.875,323.75c0,0-0.25,3.25,0.375,3.75s11.125,3.375,12.875,2.625C235,327.375,225.875,323.75,225.875,323.75z"></path><path style="fill:none;stroke:#000000;stroke-linecap:round;stroke-linejoin:round;" d="M224.043,324.166c0,0,0.167,3.333,0.334,4s4.333,3,10.333,3.5"></path></g><g><g><path style="fill:#6E6E6E;stroke:#000000;stroke-linecap:round;stroke-linejoin:round;" d="M224.375,306.875c0,0-1.25,7.125-0.625,9.625c2.125,3.75,6.625,4.875,6.625,4.875s5.674-2.625,6.424-4.125c0.75-4.75,0.701-10.25,0.701-10.25S229.5,305,224.375,306.875z"></path><path style="fill:none;stroke:#000000;stroke-linecap:round;stroke-linejoin:round;stroke-dasharray:1.0047 3;" d="M224,313.75c0,0,3.75,4,6.125,4.75c1,0.125,7-4.25,7-4.25"></path><path style="fill:#6E6E6E;stroke:#000000;stroke-linecap:round;stroke-linejoin:round;" d="M224.5,304.102c0,0-0.875,3.773-0.625,4.648c2,0,11.5,0,13.875,1.25c0.25-1.25,0.625-3.875,0.075-5.125C237,304.375,229.25,301.977,224.5,304.102z"></path></g><path style="fill:none;stroke:#000000;stroke-linecap:round;stroke-linejoin:round;stroke-dasharray:1.0047 3;" d="M224.375,306.875c0,0,3.75-0.875,13.375,0.875"></path></g></g><g><g><g><path style="fill:#6E6E6E;stroke:#000000;stroke-linecap:round;stroke-linejoin:round;" d="M272.522,296.166c0,0,1.333,3.834,2.5,9s0.934,20.667,0.934,20.667s5.112,9.168,5.066,10c-0.167,3-3,7-3,7s-10.166,3.333-27.836,3.333c-0.166-8,1.836-11.333,1.836-11.333l3-9.333l1.025-25.185c4.309-2.813,6.975-4.147,6.975-4.147L272.522,296.166z"></path></g><path style="fill:#505050;" d="M275.75,323l-0.125,2.875l1.625,2.75c0,0-4.375,1-6.75,0.25C271.625,327.125,275.75,323,275.75,323z"></path></g><g><path style="fill:#6E6E6E;stroke:#000000;stroke-linecap:round;stroke-linejoin:round;" d="M260.875,299.5c0,0-0.5,26.375-0.75,27.375s-5.375,18.625-6.5,19.5c-1,0.5-6.875,0.375-6.875,0.375s7.75-18.625,8.125-20.75s0.875-25.75,0.875-25.75L260.875,299.5z"></path><g><circle style="fill:#666666;stroke:#000000;stroke-linecap:round;stroke-linejoin:round;" cx="258.101" cy="304.258" r="2.515"></circle><circle style="fill:#666666;stroke:#000000;stroke-linecap:round;stroke-linejoin:round;" cx="258.101" cy="318.008" r="2.515"></circle><circle style="fill:#666666;stroke:#000000;stroke-linecap:round;stroke-linejoin:round;" cx="256.226" cy="331.258" r="2.515"></circle></g></g></g></g><g><path style="fill:#6E6E6E;stroke:#000000;stroke-linecap:round;stroke-linejoin:round;" d="M221.167,344.5c-0.793-0.51-2-7.334-2-7.334s5.271,1.917,6.271,2.084c5.063-0.188,44.807-4.75,48.5-4.75c1.846,1.056,3.938,3,4.125,3.5c-0.625,1.875-3.318,4.482-3.318,4.482l-46.369,4.268C228.375,346.75,223.5,346,221.167,344.5z"></path><g><path style="fill:#6E6E6E;stroke:#000000;stroke-linecap:round;stroke-linejoin:round;" d="M227.25,337.688c-0.4,0.521,1.367,9.654,1.871,10.077s3.875,0.089,4.221-0.662c-0.154-0.915-1.279-8.165-1.842-10.103C230.942,336.598,227.65,337.166,227.25,337.688z"></path><path style="fill:#6E6E6E;stroke:#000000;stroke-linecap:round;stroke-linejoin:round;" d="M262.313,335.125c-0.4,0.521,1.367,9.654,1.871,10.077s3.875,0.089,4.221-0.662c-0.154-0.915-1.279-8.165-1.842-10.103C266.005,334.035,262.713,334.604,262.313,335.125z"></path></g><circle style="fill:#666666;stroke:#000000;stroke-linecap:round;stroke-linejoin:round;" cx="250" cy="341.008" r="2.515"></circle></g><g><g><path style="fill:#6E6E6E;stroke:#000000;stroke-linecap:round;stroke-linejoin:round;" d="M235.536,282.859c0,0-1.055,11.728,8.439,17.259c-5.274,0.221-6.857-1.991-6.857-1.991l-13.187,3.54c0,0,3.165-13.939,6.065-18.808c3.166-1.106,7.385-1.99,7.385-1.99L235.536,282.859z"></path></g><g><path style="fill:#6E6E6E;stroke:#000000;stroke-linecap:round;stroke-linejoin:round;" d="M264.465,282.859c0,0,1.057,11.728-8.439,17.259c5.275,0.221,6.857-1.991,6.857-1.991l13.186,3.54c0,0-3.164-13.939-6.064-18.808c-3.164-1.106-7.385-1.99-7.385-1.99L264.465,282.859z"></path></g></g></g></g></g></svg>