<svg xmlns="http://www.w3.org/2000/svg" width="500" height="500" version="1.1"><g id="x038"><g><g><g><path style="fill:#6E6E6E;stroke:#000000;stroke-linecap:round;stroke-linejoin:round;" d="M210.248,357.167c0,0-12.5-5.333-13.667-7c1.333-5,8.5-22.334,10.667-25.667c0.833-3.666,0-3.666,0.5-4.666s2-2.334,2-2.334s4.999-17.667,10.666-25s14-10.666,14-10.666l-10.5,43.833c0,0-3,11.334-5.5,15.667S210.248,357.167,210.248,357.167z"></path><path d="M196.998,350.042c0,0,7.333,5.25,13.083,6.5c1.334-2.25,2.5-5.166,2.5-5.166l-13.625-6.667C198.956,344.709,197.081,348.958,196.998,350.042z"></path><path style="fill:#505050;" d="M226.248,300.167c0,0-3,1.499-4,3.833s-1.166,7.333,0.834,9.5C226.915,310.5,226.248,300.167,226.248,300.167z"></path><path style="fill:none;stroke:#000000;stroke-linecap:round;stroke-linejoin:round;" d="M221.582,302.834c0,0,1.833,3.499,5,6.166"></path></g><g><path style="fill:#6E6E6E;stroke:#000000;stroke-linecap:round;stroke-linejoin:round;" d="M289.752,357.167c0,0,12.499-5.333,13.667-7c-1.334-5-8.5-22.334-10.667-25.667c-0.833-3.666,0-3.666-0.5-4.666s-2-2.334-2-2.334s-4.999-17.667-10.667-25c-5.666-7.333-14-10.666-14-10.666l10.5,43.833c0,0,3,11.334,5.5,15.667S289.752,357.167,289.752,357.167z"></path><path d="M303.001,350.042c0,0-7.332,5.25-13.082,6.5c-1.334-2.25-2.5-5.166-2.5-5.166l13.625-6.667C301.044,344.709,302.919,348.958,303.001,350.042z"></path><path style="fill:#505050;" d="M273.751,300.167c0,0,3,1.499,4,3.833s1.167,7.333-0.833,9.5C273.085,310.5,273.751,300.167,273.751,300.167z"></path><path style="fill:none;stroke:#000000;stroke-linecap:round;stroke-linejoin:round;" d="M278.418,302.834c0,0-1.833,3.499-5,6.166"></path></g></g><g><g><path style="fill:#8B5C29;stroke:#000000;stroke-linecap:round;stroke-linejoin:round;" d="M220.249,337.167l1.333,1.667c1.167-3.834,2.833-9,2.833-11C221.915,328.334,219.749,333,220.249,337.167z"></path><g><path style="fill:#6E6E6E;stroke:#000000;stroke-linecap:round;stroke-linejoin:round;" d="M229.924,293.481c0,0-2.406,3.604-4.175,9.186c-2.167,6.833-3,15.667-3.667,21.5c-0.792,2.638-3.833,8-1.833,13c2.667-11.833,17.377-17.01,18.833-22.5c2.167-8.167,1.355-34.635,1.355-34.635s-3.935,0.874-8.418,2.984"></path><path d="M240.249,280.767c0,0,0.375,30.854-1.958,35.021c-3.333,4.166-10.938,9.287-13.75,12.35c-2.756,3.001-4.125,8.13-4.125,8.13s-1.333-2.667,1-9.167c2.333-5,11.417-11.604,12.75-13.938s2.25-31.396,2.25-31.396S240.249,280.1,240.249,280.767z"></path></g></g><g><path style="fill:#8B5C29;stroke:#000000;stroke-linecap:round;stroke-linejoin:round;" d="M279.751,337.167l-1.333,1.667c-1.167-3.834-2.833-9-2.833-11C278.085,328.334,280.251,333,279.751,337.167z"></path><g><path style="fill:#6E6E6E;stroke:#000000;stroke-linecap:round;stroke-linejoin:round;" d="M270.076,293.481c0,0,2.405,3.604,4.175,9.186c2.167,6.833,3,15.667,3.667,21.5c0.792,2.638,3.833,8,1.833,13c-2.666-11.833-17.377-17.01-18.833-22.5c-2.167-8.167-1.354-34.635-1.354-34.635s3.935,0.874,8.418,2.984"></path><path d="M259.751,280.767c0,0-0.375,30.854,1.959,35.021c3.334,4.166,10.938,9.287,13.75,12.35c2.756,3.001,4.125,8.13,4.125,8.13s1.334-2.667-1-9.167c-2.334-5-11.417-11.604-12.75-13.938s-2.25-31.396-2.25-31.396S259.751,280.1,259.751,280.767z"></path></g></g></g></g></g></svg>