<svg xmlns="http://www.w3.org/2000/svg" width="500" height="500" version="1.1"><g id="x039"><g><g><g><path style="fill:#6E6E6E;stroke:#000000;stroke-linecap:round;stroke-linejoin:round;" d="M196.5,351.334c0,0,3.5,3.666,14.834,6.666c4-6.666,13-31,13-31L232,283.334c0,0-4.5,1.333-10,6.5c-4.333,5.833-12.5,28.666-12.5,28.666S197.834,348,196.5,351.334z"></path><path style="fill:#505050;" d="M227.001,298.168c0,0-3.167,1.999-4.167,4.166s-0.167,10.333,1,11.5C226.501,308.834,227.001,301.002,227.001,298.168z"></path><path style="fill:none;stroke:#000000;stroke-linecap:round;stroke-linejoin:round;" d="M222.167,301.834c0,0,1.334,4.667,4.5,8"></path></g><g><path style="fill:#6E6E6E;stroke:#000000;stroke-linecap:round;stroke-linejoin:round;" d="M303.5,351.334c0,0-3.5,3.666-14.833,6.666c-4-6.666-13-31-13-31L268,283.334c0,0,4.5,1.333,10,6.5c4.334,5.833,12.5,28.666,12.5,28.666S302.167,348,303.5,351.334z"></path><path style="fill:#505050;" d="M273,298.168c0,0,3.167,1.999,4.167,4.166s0.167,10.333-1,11.5C273.5,308.834,273,301.002,273,298.168z"></path><path style="fill:none;stroke:#000000;stroke-linecap:round;stroke-linejoin:round;" d="M277.834,301.834c0,0-1.334,4.667-4.5,8"></path></g></g><g><g><g><path style="fill:#6E6E6E;stroke:#000000;stroke-linecap:round;stroke-linejoin:round;" d="M246.667,325.667v43c0,0-20.833,2.334-33-6.833c1.166-7.667,8.032-30.334,8.032-30.334c-0.666-0.666-1-2.5-1-2.5l1.5-1.833c0,0,2.256-16.757,3.468-22.333c1.666-7.667,5.166-16.5,5.166-16.5L246.667,325.667z"></path><circle style="fill:#FFBF00;stroke:#000000;stroke-linecap:round;stroke-linejoin:round;" cx="239.715" cy="333.997" r="3.165"></circle><path style="fill:#505050;" d="M223.167,332.667c0,0-1.667-2.501-1.667-3.167c2.333-0.5,7.833,1.167,7.5,1.667S223.167,332.667,223.167,332.667z"></path><path style="fill:#6E6E6E;stroke:#000000;stroke-linecap:round;stroke-linejoin:round;" d="M219.333,339.334c0,0-0.166-1.166,0.334-2.5s1.5-2.334,1.5-2.334h7.333l-0.333,3.834L219.333,339.334z"></path></g><path style="fill:#6E6E6E;stroke:#000000;stroke-linecap:round;stroke-linejoin:round;" d="M236.833,281c0,0-0.333,22.667,9.834,44.667C235.833,319.833,231,312,231,312l3-8.166c0,0-4.667-1.501-5-2.167c-0.333-8.834,1.667-17.666,2.333-19C232.833,281.5,236.833,281,236.833,281z"></path></g><g><g><path style="fill:#6E6E6E;stroke:#000000;stroke-linecap:round;stroke-linejoin:round;" d="M253.333,325.667v43c0,0,20.832,2.334,33-6.833c-1.167-7.667-8.033-30.334-8.033-30.334c0.666-0.666,1-2.5,1-2.5l-1.5-1.833c0,0-2.256-16.757-3.467-22.333c-1.667-7.667-5.167-16.5-5.167-16.5L253.333,325.667z"></path><circle style="fill:#FFBF00;stroke:#000000;stroke-linecap:round;stroke-linejoin:round;" cx="260.284" cy="333.997" r="3.165"></circle><path style="fill:#505050;" d="M276.833,332.667c0,0,1.666-2.501,1.666-3.167c-2.333-0.5-7.832,1.167-7.5,1.667C271.333,331.667,276.833,332.667,276.833,332.667z"></path><path style="fill:#6E6E6E;stroke:#000000;stroke-linecap:round;stroke-linejoin:round;" d="M280.666,339.334c0,0,0.167-1.166-0.333-2.5s-1.5-2.334-1.5-2.334h-7.334l0.334,3.834L280.666,339.334z"></path></g><path style="fill:#6E6E6E;stroke:#000000;stroke-linecap:round;stroke-linejoin:round;" d="M263.166,281c0,0,0.333,22.667-9.833,44.667C264.166,319.833,268.999,312,268.999,312l-3-8.166c0,0,4.667-1.501,5-2.167c0.334-8.834-1.666-17.666-2.333-19C267.166,281.5,263.166,281,263.166,281z"></path></g></g></g></g></svg>