<svg xmlns="http://www.w3.org/2000/svg" width="500" height="500" version="1.1"><g id="x040"><g><g><g><path style="fill:#6E6E6E;stroke:#000000;stroke-linecap:round;stroke-linejoin:round;" d="M210.15,318.188c0,0-2.125,2.75-4.125,6.5c-0.25,3.063-0.438,5.375-0.688,6.125s-6.563,14.521-8.229,18.354c1,3,13.667,8.166,13.667,8.166c7.333-11.5,14.917-32.083,14.917-32.083l7.304-22.35l-7.103-16.22C215.942,297,210.15,318.188,210.15,318.188z"></path><path style="fill:#505050;" d="M226.442,301.5c0,0-4.833,3.5-5.167,7c-0.333,3.5,4.5,9.667,4.5,9.667S227.942,305.333,226.442,301.5z"></path><path style="fill:none;stroke:#000000;stroke-linecap:round;stroke-linejoin:round;" d="M220.275,305.333c0,0,0.833,5.001,6.333,10.334"></path></g><g><path style="fill:#6E6E6E;stroke:#000000;stroke-linecap:round;stroke-linejoin:round;" d="M289.85,318.188c0,0,2.125,2.75,4.125,6.5c0.25,3.063,0.438,5.375,0.688,6.125s6.563,14.521,8.229,18.354c-1,3-13.667,8.166-13.667,8.166c-7.333-11.5-14.917-32.083-14.917-32.083l-7.304-22.35l7.103-16.22C284.058,297,289.85,318.188,289.85,318.188z"></path><path style="fill:#505050;" d="M273.558,301.5c0,0,4.834,3.5,5.167,7s-4.5,9.667-4.5,9.667S272.058,305.333,273.558,301.5z"></path><path style="fill:none;stroke:#000000;stroke-linecap:round;stroke-linejoin:round;" d="M279.725,305.333c0,0-0.833,5.001-6.333,10.334"></path></g></g><g><g><g><path style="fill:#6E6E6E;stroke:#000000;stroke-linecap:round;stroke-linejoin:round;" d="M238.192,301.917l0.5,33.083c0,0-1.167,25.917-3.917,33.167c-11.833-1.5-19.833-7-20.083-8.417s4.5-19.917,9.25-32c0.5-3.5,1.5-19.25,2-23.5s4-9.5,4-9.5s-4.166-7.751-4.083-8.042c5.25-5.125,14.542-6.958,14.542-6.958L238.192,301.917z"></path><path style="fill:#6E6E6E;stroke:#000000;stroke-linecap:round;stroke-linejoin:round;" d="M219.025,342.183c0.103-0.824,1.236-4.737,1.957-5.767c3.398,0.927,10.503,3.191,10.503,3.191l-1.236,5.974L219.025,342.183z"></path></g><g><path style="fill:#6E6E6E;stroke:#000000;stroke-linecap:round;stroke-linejoin:round;" d="M238.643,335.708c-5.802-14.594-9.721-18.461-9.369-27.955c4.748-1.935,9.319-8.439,9.319-8.439L238.643,335.708z"></path><path style="fill:#6E6E6E;stroke:#000000;stroke-linecap:round;stroke-linejoin:round;" d="M238.623,302.126c0,0-7.033-3.867-11.429-4.923c0.353-3.867,6.506-13.01,13.363-17.23C238.447,291.929,238.623,302.126,238.623,302.126z"></path></g></g><g><g><path style="fill:#6E6E6E;stroke:#000000;stroke-linecap:round;stroke-linejoin:round;" d="M261.808,301.917l-0.5,33.083c0,0,1.167,25.917,3.917,33.167c11.833-1.5,19.833-7,20.083-8.417s-4.5-19.917-9.25-32c-0.5-3.5-1.5-19.25-2-23.5s-4-9.5-4-9.5s4.166-7.751,4.084-8.042c-5.25-5.125-14.542-6.958-14.542-6.958L261.808,301.917z"></path><path style="fill:#6E6E6E;stroke:#000000;stroke-linecap:round;stroke-linejoin:round;" d="M280.976,342.183c-0.104-0.824-1.236-4.737-1.957-5.767c-3.398,0.927-10.504,3.191-10.504,3.191l1.236,5.974L280.976,342.183z"></path></g><g><path style="fill:#6E6E6E;stroke:#000000;stroke-linecap:round;stroke-linejoin:round;" d="M261.357,335.708c5.802-14.594,9.722-18.461,9.369-27.955c-4.747-1.935-9.319-8.439-9.319-8.439L261.357,335.708z"></path><path style="fill:#6E6E6E;stroke:#000000;stroke-linecap:round;stroke-linejoin:round;" d="M261.378,302.126c0,0,7.033-3.867,11.429-4.923c-0.353-3.867-6.507-13.01-13.362-17.23C261.554,291.929,261.378,302.126,261.378,302.126z"></path></g></g></g></g></g></svg>