<svg xmlns="http://www.w3.org/2000/svg" width="500" height="500" version="1.1"><g id="x041"><g><g><g><path style="fill:#6E6E6E;stroke:#000000;stroke-linecap:round;stroke-linejoin:round;" d="M210.15,318.188c0,0-2.125,2.75-4.125,6.5c-0.25,3.063-0.438,5.375-0.688,6.125s-6.563,14.521-8.229,18.354c1,3,13.667,8.166,13.667,8.166c7.333-11.5,14.917-32.083,14.917-32.083l7.304-22.35l-7.103-16.22C215.942,297,210.15,318.188,210.15,318.188z"></path><path style="fill:#505050;" d="M226.442,301.5c0,0-4.833,3.5-5.167,7c-0.333,3.5,4.5,9.667,4.5,9.667S227.942,305.333,226.442,301.5z"></path><path style="fill:none;stroke:#000000;stroke-linecap:round;stroke-linejoin:round;" d="M220.275,305.333c0,0,0.833,5.001,6.333,10.334"></path></g><g><path style="fill:#6E6E6E;stroke:#000000;stroke-linecap:round;stroke-linejoin:round;" d="M289.85,318.188c0,0,2.125,2.75,4.125,6.5c0.25,3.063,0.438,5.375,0.688,6.125s6.563,14.521,8.229,18.354c-1,3-13.667,8.166-13.667,8.166c-7.333-11.5-14.917-32.083-14.917-32.083l-7.304-22.35l7.103-16.22C284.058,297,289.85,318.188,289.85,318.188z"></path><path style="fill:#505050;" d="M273.558,301.5c0,0,4.834,3.5,5.167,7s-4.5,9.667-4.5,9.667S272.058,305.333,273.558,301.5z"></path><path style="fill:none;stroke:#000000;stroke-linecap:round;stroke-linejoin:round;" d="M279.725,305.333c0,0-0.833,5.001-6.333,10.334"></path></g></g><g><g><path style="fill:#6E6E6E;stroke:#000000;stroke-linecap:round;stroke-linejoin:round;" d="M236.033,318.5l13.75,18c0,0-1.75,26-4.5,33.25c-11.833-1.5-30.308-5.583-30.558-7s4.5-22.917,9.25-35c0.5-3.5,1.5-19.25,2-23.5s4-9.5,4-9.5s-4.166-7.751-4.083-8.042c5.25-5.125,11.891-6.208,11.891-6.208L236.033,318.5z"></path><path style="fill:#6E6E6E;stroke:#000000;stroke-linecap:round;stroke-linejoin:round;" d="M263.967,318.5l-13.75,18c0,0,1.75,26,4.5,33.25c11.834-1.5,30.308-5.583,30.558-7s-4.5-22.917-9.25-35c-0.5-3.5-1.5-19.25-2-23.5s-4-9.5-4-9.5s4.166-7.751,4.083-8.042c-5.25-5.125-11.891-6.208-11.891-6.208L263.967,318.5z"></path></g><g><path style="fill:#6E6E6E;stroke:#000000;stroke-linecap:round;stroke-linejoin:round;" d="M232.969,281.833c0,0-5.582,3.824-7.033,25.845c2.901,0.528,7.253,2.242,7.253,2.242s-4.615,4.615-5.012,9.89c3.825,5.274,13.319,13.714,21.758,16.615c-3.296-5.274-10.681-15.297-12.131-31.384c-1.451-16.088,0.527-25.054,0.527-25.054L232.969,281.833z"></path><path style="fill:#6E6E6E;stroke:#000000;stroke-linecap:round;stroke-linejoin:round;" d="M267.031,281.833c0,0,5.583,3.824,7.033,25.845c-2.901,0.528-7.253,2.242-7.253,2.242s4.615,4.615,5.011,9.89c-3.823,5.274-12.658,13.978-21.624,17.143c3.296-5.274,10.548-15.824,11.999-31.911c1.45-16.088-0.528-25.054-0.528-25.054L267.031,281.833z"></path></g></g></g></g></svg>