<svg xmlns="http://www.w3.org/2000/svg" width="500" height="500" version="1.1"><g id="x043"><g><g><g><path style="fill:#6E6E6E;stroke:#000000;stroke-linecap:round;stroke-linejoin:round;" d="M210.15,318.188c0,0-2.125,2.75-4.125,6.5c-0.25,3.063-0.438,5.375-0.688,6.125s-6.563,14.521-8.229,18.354c1,3,13.667,8.166,13.667,8.166c7.333-11.5,14.917-32.083,14.917-32.083l10.304-22.35l-10.103-16.319C215.942,296.9,210.15,318.188,210.15,318.188z"></path><path style="fill:#505050;" d="M217.267,333.128c0,0-7.736-11.604-8.087-10.549c-0.352,1.055,0,7.736,2.813,8.792C214.806,332.425,217.267,333.128,217.267,333.128z"></path><path style="fill:#505050;" d="M226.442,301.5c0,0-4.833,3.5-5.167,7c-0.333,3.5,4.5,9.667,4.5,9.667S227.942,305.333,226.442,301.5z"></path><path style="fill:none;stroke:#000000;stroke-linecap:round;stroke-linejoin:round;" d="M220.275,305.333c0,0,0.833,5.001,6.333,10.334"></path></g><g><path style="fill:#6E6E6E;stroke:#000000;stroke-linecap:round;stroke-linejoin:round;" d="M289.85,318.188c0,0,2.125,2.75,4.125,6.5c0.25,3.063,0.438,5.375,0.688,6.125s6.563,14.521,8.229,18.354c-1,3-13.667,8.166-13.667,8.166c-7.333-11.5-14.917-32.083-14.917-32.083l-10.304-22.35l10.103-16.319C284.058,296.9,289.85,318.188,289.85,318.188z"></path><path style="fill:#505050;" d="M282.733,333.128c0,0,7.736-11.604,8.087-10.549c0.352,1.055,0,7.736-2.813,8.792C285.194,332.425,282.733,333.128,282.733,333.128z"></path><path style="fill:#505050;" d="M273.558,301.5c0,0,4.834,3.5,5.167,7s-4.5,9.667-4.5,9.667S272.058,305.333,273.558,301.5z"></path><path style="fill:none;stroke:#000000;stroke-linecap:round;stroke-linejoin:round;" d="M279.725,305.333c0,0-0.833,5.001-6.333,10.334"></path></g></g><g><g><g><g><path style="fill:#6E6E6E;stroke:#000000;stroke-linecap:round;stroke-linejoin:round;" d="M263.901,314.5l-13.753,9c0,0-0.554,24.067-0.823,37.5c0.842,2.833,2.891,8.489,4.353,8.421c18.78-0.873,31.299-8.356,31.531-9.671c0.25-1.417-4.5-19.917-9.25-32c-1.061-7.427-1.96-23.165-2-23.5c-0.5-4.25-4-9.5-4-9.5s4.166-7.851,4.083-8.142c-5.25-5.125-11.891-6.108-11.891-6.108L263.901,314.5z"></path></g><g><path style="fill:#6E6E6E;stroke:#000000;stroke-linecap:round;stroke-linejoin:round;" d="M259.001,309.288c0,0,13.01-1.406,14.592,0c0.352,2.813,0.229,12.974-2.759,13.678c-2.989,0.704-9.771,0.307-10.548-0.315C258.527,321.244,259.001,309.288,259.001,309.288z"></path><g><path style="fill:#FFBF66;stroke:#000000;stroke-linecap:round;stroke-linejoin:round;" d="M267.712,320.183c0,0-7.595,0.851-7.153-7.324C261.073,312.573,267.712,320.183,267.712,320.183z"></path><path style="fill:#FFBF66;stroke:#000000;stroke-linecap:round;stroke-linejoin:round;" d="M265.394,320.282c0,0,7.638,0.2,6.503-7.908C271.359,312.135,265.394,320.282,265.394,320.282z"></path></g></g><path style="fill:#6E6E6E;stroke:#000000;stroke-linecap:round;stroke-linejoin:round;" d="M280.976,342.959c0.292-0.417-0.708-4.75-1.458-6.25c-4.25,0.25-10.75,2.25-11,2.625s0.333,5.833,1.083,6.333S280.685,343.376,280.976,342.959z"></path></g><g><g><path style="fill:#6E6E6E;stroke:#000000;stroke-linecap:round;stroke-linejoin:round;" d="M236.099,314.5l13.75,9c0,0,0.967,42,0.967,46c-21.25,0.25-35.774-8.333-36.024-9.75s4.5-19.917,9.25-32c1.061-7.427,1.96-23.165,2-23.5c0.5-4.25,4-9.5,4-9.5s-4.166-7.851-4.083-8.142c5.25-5.125,11.891-6.108,11.891-6.108L236.099,314.5z"></path></g><g><circle style="fill:#FFBF66;stroke:#000000;stroke-linecap:round;stroke-linejoin:round;" cx="247.697" cy="340.097" r="2.952"></circle><circle style="fill:#FFBF66;stroke:#000000;stroke-linecap:round;stroke-linejoin:round;" cx="247.697" cy="354.981" r="2.952"></circle></g><path style="fill:#6E6E6E;stroke:#000000;stroke-linecap:round;stroke-linejoin:round;" d="M219.024,342.959c-0.292-0.417,0.708-4.75,1.458-6.25c4.25,0.25,10.75,2.25,11,2.625s-0.333,5.833-1.083,6.333S219.315,343.376,219.024,342.959z"></path></g></g><g><path style="fill:#6E6E6E;stroke:#000000;stroke-linecap:round;stroke-linejoin:round;" d="M235.137,281.29c0,0-4.871,2.945-6.138,19.909c2.532,0.407,6.33,1.728,6.33,1.728s-4.027,3.555-4.374,7.617c3.338,4.063,11.624,10.565,18.987,12.8c-2.876-4.063-9.32-11.783-10.586-24.177c-1.267-12.393,0.459-19.299,0.459-19.299L235.137,281.29z"></path><path style="fill:#6E6E6E;stroke:#000000;stroke-linecap:round;stroke-linejoin:round;" d="M264.862,281.29c0,0,4.873,2.945,6.138,19.909c-2.531,0.407-6.329,1.728-6.329,1.728s4.027,3.555,4.372,7.617c-3.336,4.063-11.045,10.768-18.87,13.206c2.876-4.063,9.205-12.189,10.472-24.583c1.266-12.393-0.462-19.299-0.462-19.299L264.862,281.29z"></path></g></g></g></g></svg>