<svg xmlns="http://www.w3.org/2000/svg" width="500" height="500" version="1.1"><g id="x044"><g><g><g><path style="fill:#6E6E6E;stroke:#000000;stroke-linecap:round;stroke-linejoin:round;" d="M210.188,318.188c0,0-2.125,2.75-4.125,6.5c-0.25,3.063-0.438,5.375-0.688,6.125s-6.563,14.521-8.229,18.354c1,3,14.892,8.833,14.892,8.833c7.333-11.5,13.692-32.75,13.692-32.75l7.304-22.35l-8.103-16.22C217.788,295,210.188,318.188,210.188,318.188z"></path><path style="fill:#505050;" d="M226.48,301.5c0,0-4.833,3.5-5.167,7c-0.333,3.5,4.5,9.667,4.5,9.667S227.98,305.333,226.48,301.5z"></path><path style="fill:none;stroke:#000000;stroke-linecap:round;stroke-linejoin:round;" d="M220.313,305.333c0,0,0.833,5.001,6.333,10.334"></path></g><g><path style="fill:#6E6E6E;stroke:#000000;stroke-linecap:round;stroke-linejoin:round;" d="M289.812,318.188c0,0,2.125,2.75,4.125,6.5c0.25,3.063,0.438,5.375,0.688,6.125s6.563,14.521,8.229,18.354c-1,3-14.892,8.833-14.892,8.833c-7.333-11.5-13.692-32.75-13.692-32.75l-7.304-22.35l8.103-16.22C282.212,295,289.812,318.188,289.812,318.188z"></path><path style="fill:#505050;" d="M273.52,301.5c0,0,4.833,3.5,5.167,7c0.333,3.5-4.5,9.667-4.5,9.667S272.02,305.333,273.52,301.5z"></path><path style="fill:none;stroke:#000000;stroke-linecap:round;stroke-linejoin:round;" d="M279.687,305.333c0,0-0.833,5.001-6.333,10.334"></path></g></g><g><g><g><path style="fill:#6E6E6E;stroke:#000000;stroke-linecap:round;stroke-linejoin:round;" d="M238.23,301.917L243.288,330c0,0-5.724,30.917-8.474,38.167c-11.833-1.5-19.833-7-20.083-8.417c-0.212-1.205,3.239-12.915,7.183-24.375c-0.125-2.375-0.373-4.233,0-5.25c0.334-0.91,0.75-1.25,2.067-2.375c0.5-3.5,1.5-19.25,2-23.5s3.308-7.5,3.308-7.5s-4.474-9.751-4.391-10.042c4.141-3.458,15.542-6.958,15.542-6.958L238.23,301.917z"></path></g><path style="fill:#505050;" d="M222.663,334.625c0,0-1.375-4.75-0.75-4.5s8.625,6.375,7.5,6.625S223.538,335.125,222.663,334.625z"></path><path style="fill:#6E6E6E;stroke:#000000;stroke-linecap:round;stroke-linejoin:round;" d="M240.024,280.737c0,0-1.583,0.527-3.166,2.901c-1.846,2.637-7.747,7.911-8.274,15.032c1.847,0,5.803,1.055,5.803,1.055s-7.912,5.011-9.494,13.187c2.373,1.318,16.087,13.186,18.46,17.406C240.188,314.23,240.038,296.25,240.024,280.737z"></path></g><g><g><path style="fill:#6E6E6E;stroke:#000000;stroke-linecap:round;stroke-linejoin:round;" d="M261.77,301.917L256.712,330c0,0,5.725,30.917,8.475,38.167c11.833-1.5,19.833-7,20.083-8.417c0.212-1.205-3.239-12.915-7.183-24.375c0.125-2.375,0.373-4.233,0-5.25c-0.334-0.91-0.75-1.25-2.067-2.375c-0.5-3.5-1.5-19.25-2-23.5s-3.308-7.5-3.308-7.5s4.474-9.751,4.391-10.042c-4.141-3.458-15.541-6.958-15.541-6.958L261.77,301.917z"></path></g><path style="fill:#505050;" d="M277.337,334.625c0,0,1.375-4.75,0.75-4.5s-8.625,6.375-7.5,6.625S276.462,335.125,277.337,334.625z"></path><path style="fill:#6E6E6E;stroke:#000000;stroke-linecap:round;stroke-linejoin:round;" d="M259.976,280.737c0,0,1.583,0.527,3.166,2.901c1.846,2.637,7.746,7.911,8.274,15.032c-1.847,0-5.803,1.055-5.803,1.055s7.912,5.011,9.494,13.187c-2.372,1.318-16.087,13.186-18.46,17.406C259.812,314.23,259.962,296.25,259.976,280.737z"></path></g></g></g></g></svg>