<svg xmlns="http://www.w3.org/2000/svg" width="500" height="500" version="1.1"><g id="x045"><g><g><g><g><path style="fill:#6E6E6E;stroke:#000000;stroke-linecap:round;stroke-linejoin:round;" d="M219.983,295.667c0,0-7.466,16.001-9.966,25.334c-1.333,2-4,5.833-4,5.833s-0.667,3.334-0.667,4.667c-1.167,2.666-5.167,12.166-5.833,14.666c3.833,2,12.5,6.167,12.5,6.167s10.167-16.001,11.167-18.667c2.5-6,10.333-31.333,10.333-31.333l-10.333-8.667L219.983,295.667z"></path><path style="fill:#505050;" d="M209.684,323.167c0,0-0.167,4.001,1,6.334s6.833,3.334,8,3.5C215.684,329.167,209.684,323.167,209.684,323.167z"></path><path style="fill:#505050;" d="M226.851,306.501c0,0-6.667,5.667-6.833,7.5s2.333,6.333,5.167,8.333C227.684,315.834,226.851,306.501,226.851,306.501z"></path><path style="fill:none;stroke:#000000;stroke-linecap:round;stroke-linejoin:round;" d="M220.017,312.501c0,0,2.167,3.5,5.5,6.833"></path></g><g><path style="fill:#FFFFFF;stroke:#000000;stroke-linecap:round;stroke-linejoin:round;" d="M218.017,345.334l-17.5-7.833c0,0-0.478,1.173-1.128,2.876l17.502,7.882C217.618,346.526,218.017,345.334,218.017,345.334z"></path><path style="fill:#3F3F3F;stroke:#000000;stroke-linecap:round;stroke-linejoin:round;" d="M199.389,340.377c-1.49,3.901-3.887,10.602-3.539,12.457c0,0,7,4.833,14.5,6.167c2.974-2.974,5.266-7.699,6.541-10.742L199.389,340.377z"></path></g></g><g><g><path style="fill:#6E6E6E;stroke:#000000;stroke-linecap:round;stroke-linejoin:round;" d="M280.017,295.667c0,0,7.466,16.001,9.966,25.334c1.334,2,4,5.833,4,5.833s0.667,3.334,0.667,4.667c1.167,2.666,5.167,12.166,5.833,14.666c-3.833,2-12.5,6.167-12.5,6.167s-10.166-16.001-11.166-18.667c-2.5-6-10.333-31.333-10.333-31.333l10.333-8.667L280.017,295.667z"></path><path style="fill:#505050;" d="M290.316,323.167c0,0,0.167,4.001-1,6.334s-6.833,3.334-8,3.5C284.316,329.167,290.316,323.167,290.316,323.167z"></path><path style="fill:#505050;" d="M273.149,306.501c0,0,6.667,5.667,6.834,7.5c0.166,1.833-2.334,6.333-5.167,8.333C272.316,315.834,273.149,306.501,273.149,306.501z"></path><path style="fill:none;stroke:#000000;stroke-linecap:round;stroke-linejoin:round;" d="M279.983,312.501c0,0-2.167,3.5-5.5,6.833"></path></g><g><path style="fill:#FFFFFF;stroke:#000000;stroke-linecap:round;stroke-linejoin:round;" d="M281.983,345.334l17.499-7.833c0,0,0.479,1.173,1.128,2.876l-17.502,7.882C282.382,346.526,281.983,345.334,281.983,345.334z"></path><path style="fill:#3F3F3F;stroke:#000000;stroke-linecap:round;stroke-linejoin:round;" d="M300.61,340.377c1.49,3.901,3.887,10.602,3.539,12.457c0,0-7,4.833-14.5,6.167c-2.974-2.974-5.266-7.699-6.541-10.742L300.61,340.377z"></path></g></g></g><g><g><g><g><g><path style="fill:#6E6E6E;stroke:#000000;stroke-linecap:round;stroke-linejoin:round;" d="M237.517,302.501c0,0,0.334,21.666,1.334,24.333c1.666,2.833,2.5,4.167,2.5,4.167s-6.834,39.333-7,41.5c-5.834,0.834-17.501-3.5-19.167-5c-0.833-5.167,4.667-26.834,6.833-30.667c-0.5-1.666,0.834-9,0.834-9l1.5-2.833c0,0,0.666-12.833,2-18.167c1.333-5.334,2.833-8.667,2.833-8.667L237.517,302.501z"></path><path style="fill:#505050;" d="M222.851,336.167c0,0-0.334-5,0.166-6.5c3.334,2.334,8.334,5.834,7.5,6.167C229.684,336.167,224.184,337.333,222.851,336.167z"></path></g><path style="fill:#3F3F3F;stroke:#000000;stroke-linecap:round;stroke-linejoin:round;" d="M218.684,347.001c0,0,0-2.334,1.5-4.667c1-0.333,8-1.167,8-1.167l-0.667,4.334L218.684,347.001z"></path><g><ellipse style="fill:#3F3F3F;stroke:#000000;stroke-linecap:round;stroke-linejoin:round;" cx="236.017" cy="339.835" rx="2.5" ry="3.333"></ellipse><ellipse style="fill:#3F3F3F;stroke:#000000;stroke-linecap:round;stroke-linejoin:round;" cx="233.351" cy="356.501" rx="2.5" ry="3.333"></ellipse></g></g><g><path style="fill:#3F3F3F;stroke:#000000;stroke-linecap:round;stroke-linejoin:round;" d="M235.123,281.82c0,0-1.582,0.527-3.164,2.901c-1.846,2.637-4.748,7.911-5.275,15.032c1.846,0,5.802,1.055,5.802,1.055s-7.911,5.011-9.494,13.187c2.374,1.318,16.088,13.186,18.462,17.406C238.288,315.313,236.97,301.072,235.123,281.82z"></path><path style="fill:#FFFFFF;stroke:#000000;stroke-linecap:round;stroke-linejoin:round;" d="M232.485,300.809c-0.79,0.791-6.469,4.858-10.284,12.395c2.9,2.901,16.878,13.714,19.252,18.198c-0.527-1.847-0.527-7.648-0.527-7.648s-7.648-8.704-12.659-11.868c1.582-2.638,9.23-9.758,9.23-9.758L232.485,300.809z"></path></g></g><g><g><g><path style="fill:#6E6E6E;stroke:#000000;stroke-linecap:round;stroke-linejoin:round;" d="M262.483,302.501c0,0-0.334,21.666-1.334,24.333c-1.666,2.833-2.5,4.167-2.5,4.167s6.834,39.333,7,41.5c5.834,0.834,17.5-3.5,19.167-5c0.833-5.167-4.667-26.834-6.833-30.667c0.5-1.666-0.834-9-0.834-9l-1.5-2.833c0,0-0.666-12.833-2-18.167s-2.833-8.667-2.833-8.667L262.483,302.501z"></path><path style="fill:#505050;" d="M277.149,336.167c0,0,0.334-5-0.166-6.5c-3.334,2.334-8.334,5.834-7.5,6.167C270.316,336.167,275.815,337.333,277.149,336.167z"></path></g><path style="fill:#3F3F3F;stroke:#000000;stroke-linecap:round;stroke-linejoin:round;" d="M281.316,347.001c0,0,0-2.334-1.5-4.667c-1-0.333-8-1.167-8-1.167l0.667,4.334L281.316,347.001z"></path></g><g><path style="fill:#3F3F3F;stroke:#000000;stroke-linecap:round;stroke-linejoin:round;" d="M264.877,281.82c0,0,1.582,0.527,3.164,2.901c1.846,2.637,4.747,7.911,5.274,15.032c-1.846,0-5.801,1.055-5.801,1.055s7.911,5.011,9.494,13.187c-2.375,1.318-16.088,13.186-18.462,17.406C261.712,315.313,263.03,301.072,264.877,281.82z"></path><path style="fill:#FFFFFF;stroke:#000000;stroke-linecap:round;stroke-linejoin:round;" d="M267.515,300.809c0.79,0.791,6.469,4.858,10.284,12.395c-2.901,2.901-16.878,13.714-19.252,18.198c0.527-1.847,0.527-7.648,0.527-7.648s7.648-8.704,12.659-11.868c-1.582-2.638-9.23-9.758-9.23-9.758L267.515,300.809z"></path></g></g></g><g><g><path style="fill:#FFFFFF;stroke:#000000;stroke-linecap:round;stroke-linejoin:round;" d="M241.893,305.644c0,0-1.935,15.297-0.44,25.758c-2.726,0.615-3.429-0.089-3.429-0.089s-0.673-16.646,1.493-27.646C240.22,303.315,241.893,305.644,241.893,305.644z"></path><g><path style="fill:#FFFFFF;stroke:#000000;stroke-linecap:round;stroke-linejoin:round;" d="M234.35,279.501c-4.667,1.5-6.611,4.957-6.611,4.957s-3.709-0.984-5.555-0.457c-1.847,0.527-2.833,5.333-2.833,5.333s-3.167,3.333-3.333,4.333c0,1.667,2.333,5.667,2.333,5.667s2.084-3.807,3.667-4.333c1.583,2.372,4.667,5.544,10.997,7.653c3.352,1.117,11.02,3.614,14.503,3.513C241.85,301.167,237.35,291.501,234.35,279.501z"></path><path style="fill:#DCDCDC;" d="M225.184,284.834c-0.357-0.578,3,0,3,0s0.5-1.334,2.167-2.334c1.5,3.5,4.667,11,3.667,10.667C233.23,292.905,226.497,286.961,225.184,284.834z"></path></g></g><g><path style="fill:#FFFFFF;stroke:#000000;stroke-linecap:round;stroke-linejoin:round;" d="M258.106,305.644c0,0,1.936,15.297,0.44,25.758c2.726,0.615,3.429-0.089,3.429-0.089s0.674-16.646-1.492-27.646C259.779,303.315,258.106,305.644,258.106,305.644z"></path><g><path style="fill:#FFFFFF;stroke:#000000;stroke-linecap:round;stroke-linejoin:round;" d="M265.649,279.501c4.666,1.5,6.611,4.957,6.611,4.957s3.709-0.984,5.555-0.457c1.848,0.527,2.834,5.333,2.834,5.333s3.166,3.333,3.334,4.333c0,1.667-2.334,5.667-2.334,5.667s-2.084-3.807-3.666-4.333c-1.584,2.372-4.668,5.544-10.998,7.653c-3.352,1.117-11.02,3.614-14.502,3.513C258.149,301.167,262.649,291.501,265.649,279.501z"></path><path style="fill:#DCDCDC;" d="M274.815,284.834c0.357-0.578-3,0-3,0s-0.5-1.334-2.166-2.334c-1.5,3.5-4.666,11-3.666,10.667C266.769,292.905,273.503,286.961,274.815,284.834z"></path></g></g></g></g></g></g></svg>