<svg xmlns="http://www.w3.org/2000/svg" width="500" height="500" version="1.1"><g id="x046"><g><g><g><path style="fill:#6E6E6E;stroke:#000000;stroke-linecap:round;stroke-linejoin:round;" d="M229.367,286.334c0,0-3.5,0.167-4.833,1.5s-10.333,14.5-13.667,30.333c-1.333,2-4.667,5.667-5.167,7.167s-0.667,4.167-1,6c-1.167,2.666-7.667,18.333-8.333,20.833c3.667,3.5,15.333,7.834,15.333,7.834s10.517-23.668,11.517-26.334c2.5-6,13.65-33.166,13.65-33.166L229.367,286.334z"></path><path style="fill:#505050;" d="M218.653,332.294c0,0-7.736-11.604-8.088-10.549c-0.351,1.055,0.001,7.736,2.813,8.792C216.192,331.591,218.653,332.294,218.653,332.294z"></path><path style="fill:#505050;" d="M226.884,306.501c0,0-6.667,5.667-6.833,7.5s2.333,6.333,5.167,8.333C227.717,315.834,226.884,306.501,226.884,306.501z"></path><path style="fill:none;stroke:#000000;stroke-linecap:round;stroke-linejoin:round;" d="M220.05,312.501c0,0,2.167,3.5,5.5,6.833"></path></g><g><path style="fill:#6E6E6E;stroke:#000000;stroke-linecap:round;stroke-linejoin:round;" d="M270.635,286.334c0,0,3.5,0.167,4.834,1.5s10.333,14.5,13.666,30.333c1.334,2,4.667,5.667,5.167,7.167s0.667,4.167,1,6c1.167,2.666,7.667,18.333,8.333,20.833c-3.666,3.5-15.333,7.834-15.333,7.834s-10.517-23.668-11.517-26.334c-2.5-6-13.65-33.166-13.65-33.166L270.635,286.334z"></path><path style="fill:#505050;" d="M281.349,332.294c0,0,7.736-11.604,8.088-10.549c0.351,1.055-0.001,7.736-2.813,8.792C283.81,331.591,281.349,332.294,281.349,332.294z"></path><path style="fill:#505050;" d="M273.118,306.501c0,0,6.667,5.667,6.833,7.5c0.167,1.833-2.332,6.333-5.166,8.333C272.285,315.834,273.118,306.501,273.118,306.501z"></path><path style="fill:none;stroke:#000000;stroke-linecap:round;stroke-linejoin:round;" d="M279.951,312.501c0,0-2.166,3.5-5.5,6.833"></path></g></g><g><g><g><path style="fill:#6E6E6E;stroke:#000000;stroke-linecap:round;stroke-linejoin:round;" d="M244.533,305.667c0,0-1.614,23.15-2.5,30.334c-1.5,12.166-6,34.999-6.167,37.166c-5.834,0.834-20.917-3.667-22.583-5.167c1-12.5,5.584-27.167,7.75-31c-0.5-1.666,1.851-9.166,1.851-9.166l1.5-2.833c0,0,0.595-14.347,1.983-19.667c2-7.667,4.333-11.333,4.333-11.333L244.533,305.667z"></path><path style="fill:#505050;" d="M223.367,336.834c0,0,0-1.833-0.167-2.5s0.333-1.501,0.833-1.667s4.167,2.334,7.333,5C227.533,338.001,223.367,336.834,223.367,336.834z"></path></g><g><path style="fill:#6E6E6E;stroke:#000000;stroke-linecap:round;stroke-linejoin:round;" d="M255.469,305.667c0,0,1.614,23.15,2.5,30.334c1.5,12.166,6,34.999,6.166,37.166c5.834,0.834,20.918-3.667,22.584-5.167c-1-12.5-5.584-27.167-7.75-31c0.5-1.666-1.851-9.166-1.851-9.166l-1.5-2.833c0,0-0.595-14.347-1.983-19.667c-2-7.667-4.332-11.333-4.332-11.333L255.469,305.667z"></path><path style="fill:#505050;" d="M276.635,336.834c0,0,0.001-1.833,0.168-2.5c0.166-0.667-0.334-1.501-0.834-1.667s-4.166,2.334-7.334,5C272.469,338.001,276.635,336.834,276.635,336.834z"></path></g></g><g><g><path style="fill:#6E6E6E;stroke:#000000;stroke-linecap:round;stroke-linejoin:round;" d="M239.7,280.334c0,0,0.333,15,5.333,25.167c-9.5-2-18.833-13.833-19.5-19.167C228.033,282.834,238.2,280,239.7,280.334z"></path><path style="opacity:0.5;fill:#FFFFFF;" d="M229.283,284.063c0,0,4.063,9.938,13.438,16.875c-0.375-1.25-0.938-3.188-0.938-3.188s-7.813-8-10.563-14.75C229.908,283.625,229.283,284.063,229.283,284.063z"></path></g><g><path style="fill:#6E6E6E;stroke:#000000;stroke-linecap:round;stroke-linejoin:round;" d="M260.303,280.334c0,0-0.334,15-5.334,25.167c9.5-2,18.834-13.833,19.5-19.167C271.969,282.834,261.803,280,260.303,280.334z"></path><path style="opacity:0.5;fill:#FFFFFF;" d="M270.719,284.063c0,0-4.063,9.938-13.438,16.875c0.375-1.25,0.938-3.188,0.938-3.188s7.813-8,10.563-14.75C270.094,283.625,270.719,284.063,270.719,284.063z"></path></g></g></g></g></g></svg>