<svg xmlns="http://www.w3.org/2000/svg" width="500" height="500" version="1.1"><g id="x047"><g><g><g><g><path style="fill:#6E6E6E;stroke:#000000;stroke-linecap:round;stroke-linejoin:round;" d="M228.289,285.885c0,0-4.633,3.115-8.883,9.615c-4.5,9.25-10.25,26-10.25,26s-10.917,14.667-12.667,17.917c-0.917,5.584,1.167,9.083,1.917,9.583c4.75,1.75,12.25,5.75,12.25,5.75s5.5-4.75,7-7s10.25-27,10.25-27l6-29.5L228.289,285.885z"></path><path style="fill:#505050;" d="M226.239,301.584c0,0-3.333,2.167-4,4.917s1.5,7.084,3,8.667C226.906,309.418,226.239,301.584,226.239,301.584z"></path><path style="fill:none;stroke:#000000;stroke-linecap:round;stroke-linejoin:round;" d="M221.656,303.001c0,0,0.334,5.917,3.417,9.917"></path><path style="fill:none;stroke:#000000;stroke-linecap:round;stroke-linejoin:round;" d="M208.789,322.001c0,0,3-3.749,3.667-4.583"></path></g><path style="fill:#6E6E6E;stroke:#000000;stroke-linecap:round;stroke-linejoin:round;" d="M198.739,345.917c0,0-2.833,5.916-2.417,7.75c2.75,1.584,12.333,5.417,12.333,5.417s3.333-5.834,3.583-8.417C210.239,348.667,201.489,345.167,198.739,345.917z"></path></g><g><g><path style="fill:#6E6E6E;stroke:#000000;stroke-linecap:round;stroke-linejoin:round;" d="M271.711,285.885c0,0,4.634,3.115,8.884,9.615c4.5,9.25,10.25,26,10.25,26s10.916,14.667,12.666,17.917c0.917,5.584-1.166,9.083-1.916,9.583c-4.75,1.75-12.25,5.75-12.25,5.75s-5.5-4.75-7-7s-10.25-27-10.25-27l-6-29.5L271.711,285.885z"></path><path style="fill:#505050;" d="M273.762,301.584c0,0,3.333,2.167,4,4.917c0.666,2.75-1.5,7.084-3,8.667C273.095,309.418,273.762,301.584,273.762,301.584z"></path><path style="fill:none;stroke:#000000;stroke-linecap:round;stroke-linejoin:round;" d="M278.345,303.001c0,0-0.334,5.917-3.417,9.917"></path><path style="fill:none;stroke:#000000;stroke-linecap:round;stroke-linejoin:round;" d="M291.211,322.001c0,0-2.999-3.749-3.666-4.583"></path></g><path style="fill:#6E6E6E;stroke:#000000;stroke-linecap:round;stroke-linejoin:round;" d="M301.261,345.917c0,0,2.833,5.916,2.417,7.75c-2.75,1.584-12.333,5.417-12.333,5.417s-3.333-5.834-3.583-8.417C289.762,348.667,298.511,345.167,301.261,345.917z"></path></g></g><g><g><g><path style="fill:#6E6E6E;stroke:#000000;stroke-linecap:round;stroke-linejoin:round;" d="M215.989,354c0,0-1.833,5.5-1.5,7.5c4.667,5.167,16.833,5,19.833,4.5c1.5-5.667,1.667-8.667,1.667-8.667L215.989,354z"></path><path style="fill:#6E6E6E;stroke:#000000;stroke-linecap:round;stroke-linejoin:round;" d="M219.656,356.5c0,0-1.167,4.001-1.167,6.667"></path><path style="fill:#6E6E6E;stroke:#000000;stroke-linecap:round;stroke-linejoin:round;" d="M226.156,358.467c0,0-1.167,4.001-1.167,6.667"></path></g><g><path style="fill:#6E6E6E;stroke:#000000;stroke-linecap:round;stroke-linejoin:round;" d="M240.406,280.5c0,0-1,10,4.5,17.25c-1.25,6-5.25,31.75-5.25,42.25c-0.5,6.5-1.833,13.667-3.5,18c-3.5,1.75-19.167-0.75-20.167-4c0.75-7.5,5.667-18.75,6.417-20.25c-0.25-3-1-5-0.25-6.25s2.5-3.75,2.5-3.75s0-14.25,1-19.5s4.75-11.75,4.75-11.75l-2.25-6.5C228.156,286,233.906,281,240.406,280.5z"></path><path style="fill:#505050;" d="M223.156,333.5c0,0-1-4.334-0.833-5c2.167,1,8.334,4.333,7.667,5S223.822,334.166,223.156,333.5z"></path></g></g><g><g><path style="fill:#6E6E6E;stroke:#000000;stroke-linecap:round;stroke-linejoin:round;" d="M284.011,354c0,0,1.833,5.5,1.5,7.5c-4.667,5.167-16.834,5-19.834,4.5c-1.5-5.667-1.666-8.667-1.666-8.667L284.011,354z"></path><path style="fill:#6E6E6E;stroke:#000000;stroke-linecap:round;stroke-linejoin:round;" d="M280.344,356.5c0,0,1.167,4.001,1.167,6.667"></path><path style="fill:#6E6E6E;stroke:#000000;stroke-linecap:round;stroke-linejoin:round;" d="M273.844,358.467c0,0,1.167,4.001,1.167,6.667"></path></g><g><path style="fill:#6E6E6E;stroke:#000000;stroke-linecap:round;stroke-linejoin:round;" d="M259.594,280.5c0,0,1,10-4.5,17.25c1.25,6,5.25,31.75,5.25,42.25c0.5,6.5,1.833,13.667,3.5,18c3.5,1.75,19.167-0.75,20.167-4c-0.75-7.5-5.667-18.75-6.417-20.25c0.25-3,1-5,0.25-6.25s-2.5-3.75-2.5-3.75s0-14.25-1-19.5s-4.75-11.75-4.75-11.75l2.25-6.5C271.844,286,266.094,281,259.594,280.5z"></path><path style="fill:#505050;" d="M276.844,333.5c0,0,1.001-4.334,0.833-5c-2.166,1-8.334,4.333-7.666,5C270.677,334.167,276.177,334.166,276.844,333.5z"></path></g></g></g></g></g></svg>