<svg xmlns="http://www.w3.org/2000/svg" width="500" height="500" version="1.1"><g id="x049"><g><g><g><path style="fill:#6E6E6E;stroke:#000000;stroke-linecap:round;stroke-linejoin:round;" d="M235.667,281.334c0,0-7.333,1.999-10.833,4.666c-4,5.333-10.167,19.001-13,27.834c-1.5,2-4,5.832-4.167,6.666s-0.167,4.167-0.167,4.167s-9,19-11.667,26.5c3.667,2.5,15.833,8.333,15.833,8.333l15.5-34L235.667,281.334z"></path><path style="fill:#505050;" d="M211.833,316.5c0,0-0.02,0.117-0.051,0.323c-0.214,1.386-0.986,6.785-0.116,7.511c1,0.833,4.167,4,5.5,3.5C215.833,323.834,211.833,316.5,211.833,316.5z"></path><path style="fill:#505050;" d="M227.167,299.667c0,0-3.5,1.667-4.5,3.5s0.834,6.167,2.667,8C227.5,306.167,227.167,299.667,227.167,299.667z"></path><path style="fill:none;stroke:#000000;stroke-linecap:round;stroke-linejoin:round;" d="M222.333,301.334c0,0,0.5,4.334,3.5,9"></path></g><g><path style="fill:#6E6E6E;stroke:#000000;stroke-linecap:round;stroke-linejoin:round;" d="M263.717,281.334c0,0,7.332,1.999,10.832,4.666c4,5.333,10.167,19.001,13,27.834c1.5,2,4.001,5.832,4.168,6.666c0.166,0.834,0.166,4.167,0.166,4.167s9,19,11.666,26.5c-3.666,2.5-15.832,8.333-15.832,8.333l-15.5-34L263.717,281.334z"></path><path style="fill:#505050;" d="M287.549,316.5c0,0,0.02,0.117,0.052,0.323c0.214,1.386,0.986,6.785,0.116,7.511c-1,0.833-4.167,4-5.5,3.5C283.549,323.834,287.549,316.5,287.549,316.5z"></path><path style="fill:#505050;" d="M272.217,299.667c0,0,3.5,1.667,4.5,3.5s-0.834,6.167-2.668,8C271.883,306.167,272.217,299.667,272.217,299.667z"></path><path style="fill:none;stroke:#000000;stroke-linecap:round;stroke-linejoin:round;" d="M277.049,301.334c0,0-0.5,4.334-3.5,9"></path></g></g><g><g><path style="fill:#6E6E6E;stroke:#000000;stroke-linecap:round;stroke-linejoin:round;" d="M278.665,335.667c0,0,0.166-2.333-0.166-3.5C278.165,331,276.165,327,276.165,327s-1-15.166-1.834-21.333c-0.832-6.167-9.332-23.833-9.332-23.833c-1-1-6.664,26.291-6.664,26.291l-8.334,8.177L237.96,304.25c0,0-1.959-23.416-2.959-22.416c0,0-8.499,17.666-9.333,23.833c-0.833,6.167-1.833,21.333-1.833,21.333s-2.001,4-2.334,5.167s-0.166,3.5-0.166,3.5s-6.834,15-7.334,26.5c7.5,6.833,29.001,7.833,32.167,8.333c1.833-4,3.833-9.666,3.833-9.666s1.998,5.666,3.83,9.666c3.168-0.5,24.668-1.5,32.168-8.333C285.499,350.667,278.665,335.667,278.665,335.667z"></path><g><path style="fill:#FFFFFF;stroke:#000000;stroke-linecap:round;stroke-linejoin:round;" d="M219.334,345.166c0,0,0.667-4.166,1-4.833c1.334-1,9.834-2.001,12-1.167c0.334,1.667,0.667,4.5,0.667,4.5L219.334,345.166z"></path><path style="fill:#FFFFFF;stroke:#000000;stroke-linecap:round;stroke-linejoin:round;" d="M280.666,345.166c0,0-0.666-4.166-1-4.833c-1.334-1-9.834-2.001-12-1.167c-0.334,1.667-0.666,4.5-0.666,4.5L280.666,345.166z"></path><g><circle style="fill:#DCDCDC;stroke:#000000;stroke-linecap:round;stroke-linejoin:round;" cx="250" cy="330.625" r="3.625"></circle><circle style="fill:#DCDCDC;stroke:#000000;stroke-linecap:round;stroke-linejoin:round;" cx="250" cy="348.375" r="3.625"></circle></g></g></g><g><g><path style="fill:#6E6E6E;" d="M240.374,278.936c0,0-7.999,2.913-11.972,11.715c1.472,0.579,7.734,2.08,7.734,2.08l-7.396,7.285c0,0,4.988,9.778,21.357,15.821C239.742,300.267,240.374,278.936,240.374,278.936z"></path><path style="fill:#FFFFFF;" d="M240.5,282.072c0,0-6.578,3.656-7.763,7.098c3.324,1.053,6.168,1.705,6.168,1.705s0.525,1.905,0.348,2.897c-0.539,0.723-6.238,6.679-6.238,6.679s4.287,6.486,14.311,11.024c0.912,1.676,2.665,4.021,2.665,4.021s-11.675-3.29-21.25-15.481c3.101-3.383,7.396-7.285,7.396-7.285l-7.734-2.08c0,0,4.023-9.758,11.612-11.233C240.461,280.442,240.5,282.072,240.5,282.072z"></path><path style="fill:none;stroke:#000000;stroke-linecap:round;stroke-linejoin:round;" d="M240.374,278.936c0,0-7.999,2.913-11.972,11.715c1.472,0.579,7.734,2.08,7.734,2.08l-7.396,7.285c0,0,4.988,9.778,21.357,15.821C239.742,300.267,240.374,278.936,240.374,278.936z"></path></g><g><path style="fill:#6E6E6E;" d="M259.625,278.936c0,0,8,2.913,11.973,11.715c-1.473,0.579-7.734,2.08-7.734,2.08l7.396,7.285c0,0-4.988,9.778-21.357,15.821C260.258,300.267,259.625,278.936,259.625,278.936z"></path><path style="fill:#FFFFFF;" d="M259.5,282.072c0,0,6.578,3.656,7.762,7.098c-3.323,1.053-6.168,1.705-6.168,1.705s-0.524,1.905-0.347,2.897c0.539,0.723,6.237,6.679,6.237,6.679s-4.286,6.486-14.311,11.024c-0.912,1.676-2.664,4.021-2.664,4.021s11.674-3.29,21.25-15.481c-3.101-3.383-7.396-7.285-7.396-7.285l7.734-2.08c0,0-4.023-9.758-11.613-11.233C259.539,280.442,259.5,282.072,259.5,282.072z"></path><path style="fill:none;stroke:#000000;stroke-linecap:round;stroke-linejoin:round;" d="M259.625,278.936c0,0,8,2.913,11.973,11.715c-1.473,0.579-7.734,2.08-7.734,2.08l7.396,7.285c0,0-4.988,9.778-21.357,15.821C260.258,300.267,259.625,278.936,259.625,278.936z"></path></g></g></g></g></g></svg>