<svg xmlns="http://www.w3.org/2000/svg" width="500" height="500" version="1.1"><g id="x005"><g><g><g><g><g><path style="fill:#6E6E6E;stroke:#000000;stroke-linecap:round;stroke-linejoin:round;" d="M213.427,308.75c0,0-3.75,7.75-4.75,10.75s-2.688,8.313-2.688,8.313s-13.25,14.938-13.75,16.688c0.875,2.188,3.25,3.938,3.25,3.938l3.438-4.688c0,0,13.5-1.75,15.75-0.75c1,1,3,6.75,3,6.75s7.25-20.25,8-23.25s3.75-21.5,3.75-21.5S218.677,301.75,213.427,308.75z"></path></g><path style="fill:#505050;" d="M225.76,306c0,0-4,3.5-4.333,6.667s3.167,7.834,3.667,8.167C225.26,316.5,225.76,306,225.76,306z"></path><path style="fill:none;stroke:#000000;stroke-linecap:round;stroke-linejoin:round;" d="M221.927,309.834c0,0,1,4.166,3.167,8.333"></path><path style="fill:none;stroke:#000000;stroke-linecap:round;stroke-linejoin:round;" d="M205.789,328.1c0,0,1.688-1.875,2.625-2.813"></path><path style="fill:none;stroke:#000000;stroke-linecap:round;stroke-linejoin:round;" d="M195.802,344.438c0,0,1.813-0.438,3.375-0.75"></path></g><g><g><path style="fill:#6E6E6E;stroke:#000000;stroke-linecap:round;stroke-linejoin:round;" d="M286.573,308.75c0,0,3.75,7.75,4.75,10.75s2.688,8.313,2.688,8.313s13.25,14.938,13.75,16.688c-0.875,2.188-3.25,3.938-3.25,3.938l-3.438-4.688c0,0-13.5-1.75-15.75-0.75c-1,1-2,6.75-2,6.75s-8.25-20.25-9-23.25s-3.75-21.5-3.75-21.5S281.323,301.75,286.573,308.75z"></path></g><path style="fill:#505050;" d="M274.239,306c0,0,4.001,3.5,4.334,6.667s-3.167,7.834-3.667,8.167C274.739,316.5,274.239,306,274.239,306z"></path><path style="fill:none;stroke:#000000;stroke-linecap:round;stroke-linejoin:round;" d="M278.073,309.834c0,0-1,4.166-3.167,8.333"></path><path style="fill:none;stroke:#000000;stroke-linecap:round;stroke-linejoin:round;" d="M294.211,328.1c0,0-1.688-1.875-2.625-2.813"></path><path style="fill:none;stroke:#000000;stroke-linecap:round;stroke-linejoin:round;" d="M304.198,344.438c0,0-1.813-0.438-3.375-0.75"></path></g></g><g><path style="fill:#6E6E6E;stroke:#000000;stroke-linecap:round;stroke-linejoin:round;" d="M226.258,304c0,0-0.5,3-1,6.75s-0.75,16.25-1.25,18.25s-9.5,15.25-11.5,24.75s-4,24.25-3,28.25c0,0,9.99,4.833,20.75,1c0.25-16.25,1.5-70.25,3.5-77.75C230.508,302.75,226.258,304,226.258,304z"></path><path style="fill:#6E6E6E;stroke:#000000;stroke-linecap:round;stroke-linejoin:round;" d="M273.742,304c0,0,0.5,3,1,6.75s0.75,16.25,1.25,18.25s9.5,15.25,11.5,24.75s4,24.25,3,28.25c0,0-9.989,4.833-20.75,1c-0.25-16.25-1.5-70.25-3.5-77.75C269.492,302.75,273.742,304,273.742,304z"></path></g></g><g><g><path style="fill:#FFFFFF;stroke:#000000;stroke-linecap:round;stroke-linejoin:round;" d="M285.283,299.65c-0.232-3.61-1.164-6.542-1.164-6.542c-5.353-1.354-10.005-0.903-16.523,0.676c-4.101,0-12.824,0.785-17.616,1.248c0.872,4.813,1.827,9.646,3.012,14.439c5.805-0.755,11.654-2.416,15.304-3.503c6.05-1.807,17.453,2.029,17.453,2.029l1.464,2.709c0,0,1.794-3.159,2.025-3.836C289.473,306.193,285.981,301.455,285.283,299.65z"></path></g><g><path style="fill:#FFFFFF;stroke:#000000;stroke-linecap:round;stroke-linejoin:round;" d="M215.879,293.108c0,0-0.93,2.932-1.162,6.542c-0.699,1.805-4.189,6.543-3.956,7.221c0.232,0.677,2.024,3.836,2.024,3.836l1.466-2.709c0,0,11.403-3.836,17.454-2.029c6.051,1.805,18.152,5.188,26.064,3.384c0.466-2.481-1.629-5.641-1.629-5.641s1.162-4.512,0.698-5.865c-0.466-1.354-3.491-2.482-3.491-2.482s-15.125-1.58-20.943-1.58C225.887,292.205,221.232,291.754,215.879,293.108z"></path><path style="fill:#DCDCDC;" d="M243.806,296.943c0,0,0.699,6.995,6.284,7.896c5.584,0.902,5.584-4.287,5.584-4.287L243.806,296.943z"></path><g><path style="fill:none;stroke:#000000;stroke-linecap:round;stroke-linejoin:round;" d="M244.505,300.778c0,0,2.093,5.415,7.68,5.415"></path><ellipse style="fill:#FFFFFF;stroke:#000000;stroke-linecap:round;stroke-linejoin:round;" cx="251.428" cy="302.302" rx="3.317" ry="3.215"></ellipse></g></g></g></g></g></svg>