<svg xmlns="http://www.w3.org/2000/svg" width="500" height="500" version="1.1"><g id="x050"><g><g><g><g><path style="fill:#6E6E6E;stroke:#000000;stroke-linecap:round;stroke-linejoin:round;" d="M235.126,281.834c0,0-8.501,0.416-12.251,3.916c-2,4-3,7-3,7s-6,4.75-6.75,6.25c0,2.75,2,6,2,6s-6,17-6.5,18.5c-1.75,2.25-6.25,13-7.25,17.5c5.5,3.25,14,6,14,6l14-24.25L235.126,281.834z"></path><path style="fill:#505050;" d="M209.875,324.5c0,0,0.5,5,1.5,6s6.5,4.25,6.5,3.25C215.375,329.75,209.875,324.5,209.875,324.5z"></path><path style="fill:#505050;" d="M225.375,309.5c-0.729,0.729-2.25-5.5-2.25-8.25s6.25-6.5,6.25-6.5S228.375,306.5,225.375,309.5z"></path><path style="fill:none;stroke:#000000;stroke-linecap:round;stroke-linejoin:round;" d="M223.125,299.25c0,0,1.086,2.834,2.668,6.417"></path></g><path style="fill:#FFFFFF;stroke:#000000;stroke-linecap:round;stroke-linejoin:round;" d="M199.375,337.25c0,0-3.75,10.75-3.75,16.25c0,0,8.25,4.916,15.75,6.25c5-5.25,6.767-14.416,6.767-14.416L199.375,337.25z"></path></g><g><g><path style="fill:#6E6E6E;stroke:#000000;stroke-linecap:round;stroke-linejoin:round;" d="M264.874,281.834c0,0,8.501,0.416,12.251,3.916c2,4,3,7,3,7s6,4.75,6.75,6.25c0,2.75-2,6-2,6s6,17,6.5,18.5c1.75,2.25,6.25,13,7.25,17.5c-5.5,3.25-14,6-14,6l-14-24.25L264.874,281.834z"></path><path style="fill:#505050;" d="M290.125,324.5c0,0-0.5,5-1.5,6s-6.5,4.25-6.5,3.25C284.625,329.75,290.125,324.5,290.125,324.5z"></path><path style="fill:#505050;" d="M274.625,309.5c0.729,0.729,2.25-5.5,2.25-8.25s-6.25-6.5-6.25-6.5S271.625,306.5,274.625,309.5z"></path><path style="fill:none;stroke:#000000;stroke-linecap:round;stroke-linejoin:round;" d="M276.875,299.25c0,0-1.086,2.834-2.668,6.417"></path></g><path style="fill:#FFFFFF;stroke:#000000;stroke-linecap:round;stroke-linejoin:round;" d="M300.625,337.25c0,0,3.75,10.75,3.75,16.25c0,0-8.25,4.916-15.75,6.25c-5-5.25-6.768-14.416-6.768-14.416L300.625,337.25z"></path></g></g><g><path style="fill:#6E6E6E;stroke:#000000;stroke-linecap:round;stroke-linejoin:round;" d="M278.665,335.667c0,0,0.166-2.333-0.166-3.5C278.165,331,276.165,327,276.165,327s-1-15.166-1.834-21.333c-0.456-3.384-3.222-10.228-5.624-15.718c-0.851-3.375-1.922-6.723-3.082-8.199c-2.25-0.75-6-1.25-6-1.25s6.221,12.224,4.606,19.487c-2.203,3.188-7.943,3.513-14.23,3.513c-6.29,0-12.03-0.326-14.233-3.516c-1.612-7.265,4.607-19.484,4.607-19.484s-3.75,0.5-6,1.25c-1.161,1.478-2.231,4.825-3.083,8.201c-2.403,5.489-5.167,12.332-5.625,15.716c-0.833,6.167-1.833,21.333-1.833,21.333s-2.001,4-2.334,5.167s-0.166,3.5-0.166,3.5s-6.834,15-7.334,26.5c7.5,6.833,29.001,7.833,32.167,8.333c1.833-4,3.833-9.666,3.833-9.666s1.998,5.666,3.83,9.666c3.168-0.5,24.668-1.5,32.168-8.333C285.499,350.667,278.665,335.667,278.665,335.667z"></path><g><circle style="fill:#FFBF66;stroke:#000000;stroke-linecap:round;stroke-linejoin:round;" cx="250" cy="329.347" r="2.952"></circle><circle style="fill:#FFBF66;stroke:#000000;stroke-linecap:round;stroke-linejoin:round;" cx="250" cy="344.231" r="2.952"></circle></g><g><path style="fill:#6E6E6E;stroke:#000000;stroke-linecap:round;stroke-linejoin:round;" d="M218.125,343.25c0,0,1-4.5,2.25-4.75c2.5,1.5,11.75,4.25,11.75,4.25c-1,3-2.5,5.75-2.5,5.75S219.875,346.5,218.125,343.25z"></path><path style="fill:#6E6E6E;stroke:#000000;stroke-linecap:round;stroke-linejoin:round;" d="M281.875,343.25c0,0-1-4.5-2.25-4.75c-2.5,1.5-11.75,4.25-11.75,4.25c1,3,2.5,5.75,2.5,5.75S280.125,346.5,281.875,343.25z"></path></g></g></g></g></svg>