<svg xmlns="http://www.w3.org/2000/svg" width="500" height="500" version="1.1"><g id="x051"><g><g><g><path style="fill:#6E6E6E;stroke:#000000;stroke-linecap:round;stroke-linejoin:round;" d="M236.024,302.9l-10.103-16.319c-9.951,10.319-15.743,31.606-15.743,31.606s-2.125,2.75-4.125,6.5c-0.25,3.063-0.438,5.375-0.688,6.125s-6.563,14.521-8.229,18.354l-1.358,3.083l2.375,0.375L198.028,357l3.125-2.5l0.625,1.5l2.875,0.25l0.25,1.875h3.5l0.875,2.5l2.75-1.875c7.137-11.648,13.692-33.5,13.692-33.5L236.024,302.9z"></path><path style="fill:#505050;" d="M226.471,301.5c0,0-4.833,3.5-5.167,7c-0.333,3.5,4.5,9.667,4.5,9.667S227.971,305.333,226.471,301.5z"></path><path style="fill:none;stroke:#000000;stroke-linecap:round;stroke-linejoin:round;" d="M220.304,305.333c0,0,0.833,5.001,6.333,10.334"></path></g><g><path style="fill:#6E6E6E;stroke:#000000;stroke-linecap:round;stroke-linejoin:round;" d="M263.976,302.9l10.103-16.319c9.951,10.319,15.743,31.606,15.743,31.606s2.125,2.75,4.125,6.5c0.25,3.063,0.438,5.375,0.688,6.125s6.563,14.521,8.229,18.354l1.358,3.083l-2.375,0.375l0.125,4.375l-3.125-2.5l-0.625,1.5l-2.875,0.25l-0.25,1.875h-3.5l-0.875,2.5l-2.75-1.875c-7.137-11.648-13.692-33.5-13.692-33.5L263.976,302.9z"></path><path style="fill:#505050;" d="M273.529,301.5c0,0,4.833,3.5,5.167,7c0.333,3.5-4.5,9.667-4.5,9.667S272.029,305.333,273.529,301.5z"></path><path style="fill:none;stroke:#000000;stroke-linecap:round;stroke-linejoin:round;" d="M279.696,305.333c0,0-0.833,5.001-6.333,10.334"></path></g></g><g><path style="fill:#6E6E6E;stroke:#000000;stroke-linecap:round;stroke-linejoin:round;" d="M244.84,368.943c-0.063-6.32,1.037-45.443,1.037-45.443l-9.75-9l1.75-34c0,0-6.641,0.983-11.891,6.108c-0.083,0.291,4.083,8.142,4.083,8.142s-3.5,5.25-4,9.5c-0.04,0.335-0.939,16.073-2,23.5c-4.12,10.479-8.237,25.778-9.095,30.581c-0.224,0.899-1.021,4.601,0.179,7.544c1.625-1,3.25-2,3.25-2s2,4.875,2,5.25s1.875-2.875,1.875-2.875l1.75,4.125l0.25-2.125l4.5,3.625l2-1.875l1.625,0.125l0.375,1.75l2.875-1.625l0.5,3.375l2.125-2.625l2.25,1.75l1-1.625l2.75,3.5L244.84,368.943z"></path><path style="fill:#6E6E6E;stroke:#000000;stroke-linecap:round;stroke-linejoin:round;" d="M235.166,281.29c0,0-6.637,7.71-8.137,16.46c3,1.75,7.75,3.5,7.75,3.5s-6.5,5.75-7.5,7.5c3.338,4.063,11.329,12.359,18.693,14.594c-2.876-4.063-5.32-11.783-6.586-24.177c-1.267-12.393,0.459-19.299,0.459-19.299L235.166,281.29z"></path><path style="fill:#6E6E6E;stroke:#000000;stroke-linecap:round;stroke-linejoin:round;" d="M255.159,368.943c0.063-6.32-1.036-45.443-1.036-45.443l9.75-9l-1.75-34c0,0,6.642,0.983,11.891,6.108c0.083,0.291-4.083,8.142-4.083,8.142s3.5,5.25,4,9.5c0.039,0.335,0.939,16.073,2,23.5c4.119,10.479,8.236,25.778,9.095,30.581c0.224,0.899,1.021,4.601-0.179,7.544c-1.625-1-3.25-2-3.25-2s-2,4.875-2,5.25s-1.875-2.875-1.875-2.875l-1.75,4.125l-0.25-2.125l-4.5,3.625l-2-1.875l-1.625,0.125l-0.375,1.75l-2.875-1.625l-0.5,3.375L261.722,371l-2.25,1.75l-1-1.625l-2.75,3.5L255.159,368.943z"></path><path style="fill:#6E6E6E;stroke:#000000;stroke-linecap:round;stroke-linejoin:round;" d="M264.835,281.29c0,0,6.637,7.71,8.137,16.46c-3,1.75-7.75,3.5-7.75,3.5s6.5,5.75,7.5,7.5c-3.338,4.063-11.329,12.359-18.693,14.594c2.877-4.063,5.32-11.783,6.586-24.177c1.268-12.393-0.459-19.299-0.459-19.299L264.835,281.29z"></path></g></g></g></svg>