<svg xmlns="http://www.w3.org/2000/svg" width="500" height="500" version="1.1"><g id="x052"><g id="outerXMLID_2_"><path style="fill:#6E6E6E;" d="M295.5,322.75l-1-4.75l-2.5-2c0,0-7.75-19-11-23.5c-2.64-3.96-8.76-6.56-10.19-7.13c-1.6-2.83-7.56-5.12-7.56-5.12l-4-2.5c0,0,0.25,6.25,0,7c-0.21,0.62-1.8,14.96-10,25.94c-7.11-11.221-8.55-25.351-8.75-25.94c-0.25-0.75,0-7,0-7l-4,2.5c0,0-6.14,2.36-7.63,5.25c-1.87,0.77-7.4,3.29-9.87,7c-3.25,4.5-11,23.5-11,23.5l-2.5,2l-1,4.75c0,0-15,24-15,25.5c3,7.75,15.5,16,25,21.5c0,0,3.76-12,6.72-22.58c0.84,0.37,1.87,0.8,3.1,1.24c0.06,0.12,0.12,0.229,0.18,0.34c2.75,2.75,17.25,3.25,17.25,3.25s-0.02-0.03-0.06-0.09c2.55,0.22,5.31,0.34,8.31,0.34c15.19,0,24.53-3.17,28.78-5.08c2.96,10.58,6.72,22.58,6.72,22.58c9.5-5.5,22-13.75,25-21.5C310.5,346.75,295.5,322.75,295.5,322.75z"></path><g><path style="fill:#505050;" d="M220.642,307c0,0-3.25-3.25-3.75-2.25s-2,16.75,1.25,21.5C219.392,316.25,220.642,307,220.642,307z"></path><path style="fill:#505050;" d="M279.358,307c0,0,3.25-3.25,3.75-2.25s2,16.75-1.25,21.5C280.608,316.25,279.358,307,279.358,307z"></path></g><path style="fill:#505050;" d="M213.25,338.5c0,0,5.39,8.07,11.07,9.91c8.68,2.84,26.43,4.84,39.18,2.59C241.5,345.25,213.25,338.5,213.25,338.5z"></path><g><path style="fill:none;stroke:#000000;stroke-linecap:round;stroke-linejoin:round;" d="M228.87,285.5c-1.87,0.77-7.4,3.29-9.87,7c-3.25,4.5-11,23.5-11,23.5l-2.5,2l-1,4.75c0,0-15,24-15,25.5c3,7.75,15.5,16,25,21.5c0,0,3.76-12,6.72-22.58"></path><path style="fill:none;stroke:#000000;stroke-linecap:round;stroke-linejoin:round;" d="M270.81,285.37c1.431,0.57,7.551,3.17,10.19,7.13c3.25,4.5,11,23.5,11,23.5l2.5,2l1,4.75c0,0,15,24,15,25.5c-3,7.75-15.5,16-25,21.5c0,0-3.76-12-6.72-22.58"></path><path style="fill:none;stroke:#000000;stroke-linecap:round;stroke-linejoin:round;" d="M241.69,351.91c2.55,0.22,5.31,0.34,8.31,0.34c15.19,0,24.53-3.17,28.78-5.08c1.83-0.83,2.72-1.42,2.72-1.42s6-5.5,6-6.75s-4-8.25-6-14c-0.75-5.25-2.5-20.5-2.5-20.5"></path><path style="fill:none;stroke:#000000;stroke-linecap:round;stroke-linejoin:round;" d="M221,304.5c0,0-1.75,15.25-2.5,20.5c-2,5.75-6,12.75-6,14s6,6.75,6,6.75s0.89,0.59,2.72,1.42c0.84,0.37,1.87,0.8,3.1,1.24"></path><path style="fill:none;stroke:#000000;stroke-linecap:round;stroke-linejoin:round;" d="M239.3,320.67c-4.58-6.61-9.2-16.51-10.31-30.35c-0.1-1.12-0.16-2.271-0.2-3.45c-0.02-0.37-0.03-0.74-0.04-1.12c0.04-0.08,0.07-0.17,0.12-0.25c1.49-2.89,7.63-5.25,7.63-5.25l4-2.5c0,0-0.25,6.25,0,7c0.2,0.59,1.64,14.72,8.75,25.94"></path><path style="fill:none;stroke:#000000;stroke-linecap:round;stroke-linejoin:round;" d="M270.96,286.3c0.021-0.18,0.03-0.359,0.04-0.55c-0.05-0.13-0.11-0.25-0.19-0.38c-1.6-2.83-7.56-5.12-7.56-5.12l-4-2.5c0,0,0.25,6.25,0,7c-0.21,0.62-1.8,14.96-10,25.94c-1.22,1.649-2.6,3.22-4.14,4.649c-0.52,0.49-1.05,0.96-1.61,1.41c-1.46,1.25-2.86,2.57-4.2,3.92C229.13,330.9,222.5,343,222.5,343s0.46,2.76,1.82,5.41c0.06,0.12,0.12,0.229,0.18,0.34c2.75,2.75,17.25,3.25,17.25,3.25s-0.02-0.03-0.06-0.09c-0.45-0.59-2.98-4.061-3.44-5.66c1.16-2.17,7.16-8.85,12.02-14.1c3.54-3.83,6.48-6.9,6.48-6.9s11.77-9.42,14.06-36.93C270.87,287.66,270.92,286.99,270.96,286.3z"></path></g></g></g></svg>