<svg xmlns="http://www.w3.org/2000/svg" width="500" height="500" version="1.1"><g id="x053"><g id="outerXMLID_4_"><path style="fill:#6E6E6E;" d="M295.5,322.75l-1-4.75l-2.5-2c0,0-7.75-19-11-23.5c-2.64-3.96-8.76-6.56-10.19-7.13c-1.6-2.83-7.56-5.12-7.56-5.12l-4-2.5c0,0,0.25,6.25,0,7c-0.21,0.62-1.8,14.96-10,25.94c-7.11-11.221-8.55-25.351-8.75-25.94c-0.25-0.75,0-7,0-7l-4,2.5c0,0-6.14,2.36-7.63,5.25c-1.87,0.77-7.4,3.29-9.87,7c-3.25,4.5-11,23.5-11,23.5l-2.5,2l-1,4.75c0,0-15,24-15,25.5c3,7.75,15.5,16,25,21.5c0,0,3.76-12,6.72-22.58c0.84,0.37,1.87,0.8,3.1,1.24c0.06,0.12,0.12,0.229,0.18,0.34c2.75,2.75,17.25,3.25,17.25,3.25s-0.02-0.03-0.06-0.09c2.55,0.22,5.31,0.34,8.31,0.34c15.19,0,24.53-3.17,28.78-5.08c2.96,10.58,6.72,22.58,6.72,22.58c9.5-5.5,22-13.75,25-21.5C310.5,346.75,295.5,322.75,295.5,322.75z"></path><g><path style="opacity:0.6;fill:none;stroke:#FFFFFF;" d="M231.8,283.233c0,0,0.333,22.334,10,34.667"></path><path style="opacity:0.6;fill:none;stroke:#FFFFFF;" d="M234.633,281.733c0,0,0.333,22.334,10,34.667"></path><path style="opacity:0.6;fill:none;stroke:#FFFFFF;" d="M237.466,280.233c0,0-0.466,20.601,9.201,32.934"></path></g><g><path style="fill:#505050;" d="M213.25,338.5c0,0,5.39,8.07,11.07,9.91c8.68,2.84,26.43,4.84,39.18,2.59C241.5,345.25,213.25,338.5,213.25,338.5z"></path><path style="opacity:0.6;fill:none;stroke:#FFFFFF;" d="M262.602,280.233c0,0-1.602,22.267-11.269,34.6c0,0-17.333,14.5-25.5,28.5c0.333,1.334,2,6.5,2,6.5"></path><path style="opacity:0.6;fill:none;stroke:#FFFFFF;" d="M265.435,281.733c0,0-0.333,22.334-9.999,34.667c0,0-21.436,17.933-25.936,27.933c0.667,4,2.167,6.334,2.167,6.334"></path><path style="opacity:0.6;fill:none;stroke:#FFFFFF;" d="M268.268,283.233c0,0-0.333,22.334-10,34.667c0,0-20.934,19.434-23.768,26.267c-1,2.833,1.5,7.333,1.5,7.333"></path></g><g><g><path style="opacity:0.6;fill:none;stroke:#FFFFFF;" d="M229.75,294.75l-4.25,8.5c0,0-2.331,20.583-2.997,21.75c-0.667,1.167-4.289,11.835-4.333,12.5c-0.167,2.5,3.833,9.833,3.833,9.833"></path><path style="opacity:0.6;fill:none;stroke:#FFFFFF;" d="M230.167,299.833c-0.333,0.5-1.499,4.334-1.833,5.167c-0.333,0.833-1.998,20.333-1.998,20.333s-3.666,10.834-3.666,12.167s0.497,3.833,0.497,3.833"></path><polyline style="opacity:0.6;fill:none;stroke:#FFFFFF;" points="232.336,306.5 230.17,325.333 229.167,332.333 "></polyline><line style="opacity:0.6;fill:none;stroke:#FFFFFF;" x1="235.836" y1="315.134" x2="235.003" y2="325.333"></line></g></g><g><g><path style="opacity:0.6;fill:none;stroke:#FFFFFF;" d="M270,294.25l4,8c0,0,2.664,21.583,3.33,22.75c0.667,1.167,6.126,13.335,6.17,14c0.167,2.5-2.5,6-2.5,6"></path><path style="opacity:0.6;fill:none;stroke:#FFFFFF;" d="M269.666,299.833c0.334,0.5,1.5,4.334,1.834,5.167c0.332,0.833,1.997,20.333,1.997,20.333s4.836,12.001,4.836,13.334s-3,9.833-3,9.833"></path><path style="opacity:0.6;fill:none;stroke:#FFFFFF;" d="M267.497,306.5l2.166,18.833l3.004,16.167c0,0-1.666,7.333-2,8.333"></path><path style="opacity:0.6;fill:none;stroke:#FFFFFF;" d="M263.997,315.134l1.836,19.199c0,0,1.667,7,1.667,8.167s-2.333,8.333-2.333,8.333"></path><path style="opacity:0.6;fill:none;stroke:#FFFFFF;" d="M260.667,321.167c0,0,1.166,19.166,1.333,20.333s-1.667,9.167-2.167,10"></path><path style="opacity:0.6;fill:none;stroke:#FFFFFF;" d="M257.333,324.333c0,0,0.334,17.001,0.334,17.834s-2.167,9.166-2.667,10.166"></path><polyline style="opacity:0.6;fill:none;stroke:#FFFFFF;" points="252.667,329.833 252.333,343.333 250.833,352 "></polyline><line style="opacity:0.6;fill:none;stroke:#FFFFFF;" x1="247.167" y1="335.5" x2="246.167" y2="351.667"></line><path style="opacity:0.6;fill:none;stroke:#FFFFFF;" d="M243.5,339.667c0,0-1.667,6.666-1.667,7.833s1.333,4,1.333,4"></path></g></g><g><path style="fill:#505050;" d="M220.642,307c0,0-3.25-3.25-3.75-2.25s-2,16.75,1.25,21.5C219.392,316.25,220.642,307,220.642,307z"></path><path style="fill:#505050;" d="M279.358,307c0,0,3.25-3.25,3.75-2.25s2,16.75-1.25,21.5C280.608,316.25,279.358,307,279.358,307z"></path></g><g><g><path style="opacity:0.6;fill:none;stroke:#FFFFFF;" d="M190.917,351l16.5-27c0,0,1.001-2.833,1.334-3.333s2.166-3.834,2.166-3.834s10.166-22.916,10.833-23.583s7-6,7-6"></path><path style="opacity:0.6;fill:none;stroke:#FFFFFF;" d="M193.917,354l17.167-28.5c0,0,0.834-2.499,1.5-3.833c0.667-1.334,7.667-16.334,7.667-16.334s3.249-8.583,4.499-10.083s4.25-4.75,4.25-4.75"></path><path style="opacity:0.6;fill:none;stroke:#FFFFFF;" d="M197.417,358.167c0.167-0.667,17.5-32.334,17.5-32.334l4.834-10.666"></path><line style="opacity:0.6;fill:none;stroke:#FFFFFF;" x1="212.751" y1="339.167" x2="201.584" y2="361"></line><line style="opacity:0.6;fill:none;stroke:#FFFFFF;" x1="215.584" y1="342.833" x2="206.084" y2="363.833"></line><line style="opacity:0.6;fill:none;stroke:#FFFFFF;" x1="218.751" y1="345.667" x2="211.084" y2="367.333"></line></g><g><path style="opacity:0.6;fill:none;stroke:#FFFFFF;" d="M309.083,351l-16.5-27c0,0-1-2.833-1.333-3.333s-2.167-3.834-2.167-3.834s-8.915-22.916-9.583-23.583c-0.666-0.667-8.25-6-8.25-6"></path><path style="opacity:0.6;fill:none;stroke:#FFFFFF;" d="M306.083,354l-17.166-28.5c0,0-0.834-2.499-1.5-3.833c-0.667-1.334-7.667-16.334-7.667-16.334S275,295.25,274.5,294.5s-4.25-4.75-4.25-4.75"></path><path style="opacity:0.6;fill:none;stroke:#FFFFFF;" d="M302.583,358.167c-0.166-0.667-17.5-32.334-17.5-32.334l-4.833-10.666"></path><line style="opacity:0.6;fill:none;stroke:#FFFFFF;" x1="287.25" y1="339.167" x2="298.417" y2="361"></line><line style="opacity:0.6;fill:none;stroke:#FFFFFF;" x1="284.417" y1="342.833" x2="293.917" y2="363.833"></line><line style="opacity:0.6;fill:none;stroke:#FFFFFF;" x1="281.25" y1="345.667" x2="288.917" y2="367.333"></line></g></g><g><path style="fill:none;stroke:#000000;stroke-linecap:round;stroke-linejoin:round;" d="M228.87,285.5c-1.87,0.77-7.4,3.29-9.87,7c-3.25,4.5-11,23.5-11,23.5l-2.5,2l-1,4.75c0,0-15,24-15,25.5c3,7.75,15.5,16,25,21.5c0,0,3.76-12,6.72-22.58"></path><path style="fill:none;stroke:#000000;stroke-linecap:round;stroke-linejoin:round;" d="M270.81,285.37c1.431,0.57,7.551,3.17,10.19,7.13c3.25,4.5,11,23.5,11,23.5l2.5,2l1,4.75c0,0,15,24,15,25.5c-3,7.75-15.5,16-25,21.5c0,0-3.76-12-6.72-22.58"></path><path style="fill:none;stroke:#000000;stroke-linecap:round;stroke-linejoin:round;" d="M241.69,351.91c2.55,0.22,5.31,0.34,8.31,0.34c15.19,0,24.53-3.17,28.78-5.08c1.83-0.83,2.72-1.42,2.72-1.42s6-5.5,6-6.75s-4-8.25-6-14c-0.75-5.25-2.5-20.5-2.5-20.5"></path><path style="fill:none;stroke:#000000;stroke-linecap:round;stroke-linejoin:round;" d="M224.32,348.41c-1.23-0.44-2.26-0.87-3.1-1.24c-1.83-0.83-2.72-1.42-2.72-1.42s-6-5.5-6-6.75s4-8.25,6-14c0.75-5.25,2.5-20.5,2.5-20.5"></path><path style="fill:none;stroke:#000000;stroke-linecap:round;stroke-linejoin:round;" d="M239.3,320.67c-4.58-6.61-9.2-16.51-10.31-30.35c-0.1-1.12-0.16-2.271-0.2-3.45c-0.02-0.37-0.03-0.74-0.04-1.12c0.04-0.08,0.07-0.17,0.12-0.25c1.49-2.89,7.63-5.25,7.63-5.25l4-2.5c0,0-0.25,6.25,0,7c0.2,0.59,1.64,14.72,8.75,25.94"></path><path style="fill:none;stroke:#000000;stroke-linecap:round;stroke-linejoin:round;" d="M270.96,286.3c0.021-0.18,0.03-0.359,0.04-0.55c-0.05-0.13-0.11-0.25-0.19-0.38c-1.6-2.83-7.56-5.12-7.56-5.12l-4-2.5c0,0,0.25,6.25,0,7c-0.21,0.62-1.8,14.96-10,25.94c-1.22,1.649-2.6,3.22-4.14,4.649c-0.52,0.49-1.05,0.96-1.61,1.41c-1.46,1.25-2.86,2.57-4.2,3.92C229.13,330.9,222.5,343,222.5,343s0.46,2.76,1.82,5.41c0.06,0.12,0.12,0.229,0.18,0.34c2.75,2.75,17.25,3.25,17.25,3.25s-0.02-0.03-0.06-0.09c-0.45-0.59-2.98-4.061-3.44-5.66c1.16-2.17,7.16-8.85,12.02-14.1c3.54-3.83,6.48-6.9,6.48-6.9s11.77-9.42,14.06-36.93C270.87,287.66,270.92,286.99,270.96,286.3z"></path></g></g></g></svg>