<svg xmlns="http://www.w3.org/2000/svg" width="500" height="500" version="1.1"><g id="x054"><g><g><path style="fill:#6E6E6E;stroke:#000000;stroke-linecap:round;stroke-linejoin:round;" d="M278.534,311.416c-0.511-2.257-5.643-12.251-10.652-16.625c-0.096-0.084-0.611-9.002-2.864-10.426c-2.064,0.356-15.018,0.179-15.018,0.179s-12.952,0.178-15.018-0.179c-2.252,1.424-2.769,10.342-2.865,10.426c-5.008,4.374-10.141,14.368-10.651,16.625c-0.563,2.491,1.314,8.542,3.567,14.771c0.751,1.957,9.761,6.406,9.761,6.406s2.628-3.381,4.694-5.517c1.313,1.602,10.512,2.491,10.512,2.491s9.197-0.89,10.512-2.491c2.065,2.136,4.694,5.517,4.694,5.517s9.011-4.449,9.762-6.406C277.22,319.958,279.097,313.907,278.534,311.416z"></path><g><g><path style="fill:#505050;" d="M269,308.917c0,0,7.157,5.898,7.334,7.5c0.534-1.957,1.833-5.084,1.833-5.084l-3.5-6.416C274.667,304.917,270.957,308.917,269,308.917z"></path></g><g><path style="fill:#505050;" d="M231,308.917c0,0-7.157,5.898-7.334,7.5c-0.534-1.957-1.833-5.084-1.833-5.084l3.5-6.416C225.333,304.917,229.042,308.917,231,308.917z"></path></g></g><g><g><path style="fill:#505050;" d="M225.542,314.917c0,0,4.417-5.167,6.75-5.667c0.89,2.848,11.638,13.799,17.333,14.333c-3.083,0.917-9.784,0.69-13.333-0.75C227.875,319.417,225.542,314.917,225.542,314.917z"></path></g><g><path style="fill:#505050;" d="M274.459,314.917c0,0-4.418-5.167-6.75-5.667c-0.891,2.848-11.639,13.799-17.334,14.333c3.084,0.917,9.784,0.69,13.334-0.75C272.125,319.417,274.459,314.917,274.459,314.917z"></path></g></g><path style="opacity:0.5;fill:#FFFFFF;" d="M237.187,309.993c0,0,8.008,1.602,12.813,1.245s12.636-1.779,12.636-1.779s-8.364-1.068-12.991-1.246C245.017,308.035,237.187,309.993,237.187,309.993z"></path><g><path style="opacity:0.5;fill:#FFFFFF;" d="M235.083,285.333c0,0-2.118,7.661-1.583,9.084c3.381,0.89,12,1.666,12,1.666s-4.644-4.242-4.11-6.378c0.534-2.136,3.36-4.205,3.36-4.205L235.083,285.333z"></path><path style="fill:#505050;" d="M265.084,285.25c0,0,2.723,6.52,1.833,8.833c-3.5,1.584-12.417,2.25-12.417,2.25s3.264-4.492,3.085-6.628S255,285.417,255,285.417L265.084,285.25z"></path></g><g><path style="opacity:0.5;fill:#FFFFFF;" d="M228.11,304.12c0,0,4.271-6.941,5.339-7.119c3.204,1.246,13.348,2.67,13.348,2.67s-8.898,2.491-14.059,6.229C231.492,305.365,228.11,304.12,228.11,304.12z"></path><path style="opacity:0.5;fill:#FFFFFF;" d="M271.89,304.12c0,0-4.271-6.941-5.339-7.119c-3.203,1.246-13.348,2.67-13.348,2.67s8.899,2.491,14.06,6.229C268.509,305.365,271.89,304.12,271.89,304.12z"></path></g><path style="fill:#505050;" d="M250,313.022l-14.059-0.891c0,0,6.407,10.5,14.059,10.5c7.652,0,14.06-10.5,14.06-10.5L250,313.022z"></path><g><g><path style="fill:#6E6E6E;stroke:#000000;stroke-linecap:round;stroke-linejoin:round;" d="M224.094,316.577l-3.191,3.56c0,0,1.314,6.763,2.816,7.475c1.501,0.711,3.942-0.891,3.942-0.891L224.094,316.577z"></path></g><g><path style="fill:#6E6E6E;stroke:#000000;stroke-linecap:round;stroke-linejoin:round;" d="M275.906,316.577l3.19,3.56c0,0-1.313,6.763-2.815,7.475c-1.502,0.711-3.942-0.891-3.942-0.891L275.906,316.577z"></path></g></g></g><path style="fill:none;stroke:#000000;stroke-linecap:round;stroke-linejoin:round;" d="M235.827,295.222c0,0,11.169,2.136,14.36,2.136s13.986-2.136,13.986-2.136"></path><g><path style="fill:none;stroke:#000000;stroke-linecap:round;stroke-linejoin:round;" d="M250,301.984c0,0-19.148,3.914-24.967,13.169"></path><path style="fill:none;stroke:#000000;stroke-linecap:round;stroke-linejoin:round;" d="M250,301.984c0,0,19.148,3.914,24.967,13.169"></path></g><line style="fill:none;stroke:#000000;stroke-linecap:round;stroke-linejoin:round;" x1="250" y1="298.069" x2="250" y2="301.45"></line><line style="fill:#6E6E6E;stroke:#000000;stroke-linecap:round;stroke-linejoin:round;" x1="250" y1="329.568" x2="250" y2="324.052"></line><g><path style="fill:none;stroke:#000000;stroke-linecap:round;stroke-linejoin:round;" d="M232.729,308.747c0,0,3.567,10.678,17.083,14.414"></path><path style="fill:none;stroke:#000000;stroke-linecap:round;stroke-linejoin:round;" d="M267.271,308.747c0,0-3.567,10.678-17.084,14.414"></path></g></g></g></svg>