<svg xmlns="http://www.w3.org/2000/svg" width="500" height="500" version="1.1"><g id="x055"><g><g><path style="fill:#6E6E6E;stroke:#000000;stroke-linecap:round;stroke-linejoin:round;" d="M250,307.879l-26.009,2.674c0,0,0,3.208,0.582,11.586c5.435,3.744,25.427,7.31,25.427,7.31s19.992-3.565,25.427-7.31c0.584-8.378,0.584-11.586,0.584-11.586L250,307.879z"></path><path style="fill:#505050;" d="M250,311.443l-22.418,2.149l0.291,6.942c0,0,13.394,6.951,22.127,6.951c8.736,0,22.129-6.951,22.129-6.951l0.29-6.942L250,311.443z"></path></g><g><path style="fill:#6E6E6E;stroke:#000000;stroke-linecap:round;stroke-linejoin:round;" d="M265.794,291.835c-8.666-1.8-15.794-1.07-15.794-1.07s-7.128-0.729-15.794,1.07c-6.868,6.417-10.816,12.479-11.332,13.548c0,3.03,1.545,7.309,2.575,8.2c1.03,0.892,10.988,5.169,21.118,0.892c2.917,0,3.948,0,6.865,0c10.13,4.277,20.088,0,21.117-0.892c1.031-0.892,2.575-5.17,2.575-8.2C276.61,304.313,272.662,298.252,265.794,291.835z"></path><g style="opacity:0.5;"><path style="fill:#FFFFFF;" d="M253.973,296.112c0,0,7.175-2.596,9.613-1.604c3.949,1.604,5.838,3.922,5.838,3.922s-3.948,1.961-7.039,1.783c-3.089-0.179-7.726-1.249-7.897-1.783C254.316,297.896,253.973,296.112,253.973,296.112z"></path><path style="fill:#FFFFFF;" d="M246.027,296.112c0,0-7.173-2.596-9.614-1.604c-3.948,1.604-5.837,3.922-5.837,3.922s3.95,1.961,7.039,1.783c3.09-0.179,7.726-1.249,7.897-1.783C245.684,297.896,246.027,296.112,246.027,296.112z"></path></g><polygon style="fill:#505050;" points="246.137,293.93 250,299.144 253.863,293.93 "></polygon><path style="fill:#505050;" d="M274.451,303.08c0,0-3.13,1.143-7.043,1.334c-3.911,0.19-8.997-2.666-10.562-1.904c-1.565,0.761-6.847,3.237-6.847,3.237s-5.281-2.477-6.845-3.237c-1.566-0.762-6.651,2.095-10.563,1.904c-3.912-0.191-7.042-1.334-7.042-1.334l-1.956,3.237c0,0,0.587,4.952,2.739,6.284c2.151,1.333,7.433,3.906,11.931,3.146c2.25-0.382,5.986-0.623,11.736-2.004c5.25,1.006,9.486,1.622,11.736,2.004c4.499,0.76,9.78-1.813,11.933-3.146c2.151-1.332,2.737-6.284,2.737-6.284L274.451,303.08z"></path><g><path style="fill:none;stroke:#000000;stroke-linecap:round;stroke-linejoin:round;" d="M267.363,295.757c0,0,1.202,10.517-0.171,18.896"></path><path style="fill:none;stroke:#000000;stroke-linecap:round;stroke-linejoin:round;" d="M232.636,295.757c0,0-1.201,10.517,0.171,18.896"></path></g></g><path style="fill:#6E6E6E;stroke:#000000;stroke-linecap:round;stroke-linejoin:round;" d="M264.594,285.774c-0.345-0.535-14.078-0.179-14.594-0.179c-0.515,0-14.249-0.356-14.593,0.179c-0.343,0.534-1.03,4.99-0.686,6.061L250,292.369l15.278-0.534C265.623,290.765,264.936,286.309,264.594,285.774z"></path></g></g></svg>