<svg xmlns="http://www.w3.org/2000/svg" width="500" height="500" version="1.1"><g id="x056"><g><g><g><path style="fill:#666666;stroke:#000000;stroke-linecap:round;stroke-linejoin:round;" d="M250,318.433c0,0-7.83,3.56-11.39,12.458c1.779,5.694,11.39,11.389,11.39,11.389s9.609-5.694,11.39-11.389C257.829,321.992,250,318.433,250,318.433z"></path><g><g><path style="fill:#8B5C29;stroke:#000000;stroke-linecap:round;stroke-linejoin:round;" d="M227.221,324.128l-4.093,1.957c0,0-5.161-6.763-4.093-10.678c3.025-0.178,5.517-0.178,5.517-0.178L227.221,324.128z"></path><path style="fill:#8B5C29;stroke:#000000;stroke-linecap:round;stroke-linejoin:round;" d="M272.779,324.128l4.093,1.957c0,0,5.161-6.763,4.094-10.678c-3.026-0.178-5.518-0.178-5.518-0.178L272.779,324.128z"></path></g></g><g><g><g><path style="fill:#323232;stroke:#000000;stroke-linecap:round;stroke-linejoin:round;" d="M276.492,323.06c0.58,0.89,2.943,4.113,2.35,6.065c-0.875,2.875-1.375,5.5-1.375,5.5s-8.699-1.065-11.402-2.133c1.158-5.339,2.318-8.543,4.248-9.61C272.244,321.814,276.492,323.06,276.492,323.06z"></path></g><g><path style="fill:#323232;stroke:#000000;stroke-linecap:round;stroke-linejoin:round;" d="M223.507,323.06c-0.579,0.89-2.942,4.113-2.349,6.065c0.875,2.875,1.375,5.5,1.375,5.5s8.698-1.065,11.402-2.133c-1.158-5.339-2.318-8.543-4.248-9.61C227.756,321.814,223.507,323.06,223.507,323.06z"></path></g></g><path style="fill:#505050;stroke:#000000;stroke-linecap:round;stroke-linejoin:round;" d="M249.807,311.848c0,0-16.416,4.627-21.437,11.212c0,0,4.442,8.009,5.601,8.898c4.442-0.712,7.532-0.89,7.532-0.89s1.159-6.051,8.305-6.051c7.145,0,8.304,6.051,8.304,6.051s3.091,0.178,7.532,0.89c1.158-0.89,5.602-8.898,5.602-8.898C266.222,316.475,249.807,311.848,249.807,311.848z"></path><g><path style="fill:#6E6E6E;stroke:#000000;stroke-linecap:round;stroke-linejoin:round;" d="M272.957,295.298c-4.981-2.848-22.957-3.025-22.957-3.025s-17.974,0.178-22.957,3.025c-0.832,0.476-5.873,17.084-5.873,18.686s4.093,9.61,4.983,10.145c0.89,0.533,8.897-0.534,10.855,0.178c1.78-3.737,6.584-7.119,12.991-7.119c6.407,0,11.212,3.382,12.991,7.119c1.959-0.712,9.966,0.355,10.856-0.178c0.89-0.534,4.982-8.543,4.982-10.145S273.789,295.773,272.957,295.298z"></path><g><path style="opacity:0.5;fill:#FFFFFF;" d="M223.662,312.827c0-0.356,2.313-9.433,3.915-11.835c6.051-1.779,12.368-0.89,12.724-0.623C234.962,304.818,223.662,312.827,223.662,312.827z"></path><path style="opacity:0.5;fill:#FFFFFF;" d="M276.339,312.827c0-0.356-2.313-9.433-3.915-11.835c-6.052-1.779-12.369-0.89-12.726-0.623C265.037,304.818,276.339,312.827,276.339,312.827z"></path></g><path style="fill:#505050;" d="M250,307.221c0,0-13.837,0.979-25.449,9.521l2.226,6.141l10.257-0.445c0,0,4.064-6.674,12.966-6.674c8.903,0,12.967,6.674,12.967,6.674l10.257,0.445l2.226-6.141C263.837,308.199,250,307.221,250,307.221z"></path></g></g></g><g><path style="fill:#323232;stroke:#000000;stroke-linecap:round;stroke-linejoin:round;" d="M225.264,285.689c0,0-0.462,8.632,4.316,11.098c6.628-0.925,12.332-0.925,12.332-0.925l0.463-12.177l-6.32-4.471C236.054,279.215,230.897,280.125,225.264,285.689z"></path><path style="fill:#323232;stroke:#000000;stroke-linecap:round;stroke-linejoin:round;" d="M274.736,285.689c0,0,0.462,8.632-4.315,11.098c-6.629-0.925-12.332-0.925-12.332-0.925l-0.463-12.177l6.32-4.471C263.946,279.215,269.103,280.125,274.736,285.689z"></path></g><g><path style="fill:#323232;stroke:#000000;stroke-linecap:round;stroke-linejoin:round;" d="M259.787,280.883L250,283.374l-9.788-2.491c0,0-0.89,8.008-0.712,14.948c2.136,2.848,10.5,2.67,10.5,2.67s8.364,0.178,10.499-2.67C260.677,288.891,259.787,280.883,259.787,280.883z"></path></g></g></g><g><g><g><path style="fill:#323232;stroke:#000000;stroke-linecap:round;stroke-linejoin:round;" d="M277.189,332.625c0,0,1.875,3,2.5,8.587c-5.077,1.067-24.743,2.136-24.743,2.136v-10.322L277.189,332.625z"></path><path style="fill:#6E6E6E;stroke:#000000;stroke-linecap:round;stroke-linejoin:round;" d="M259.217,335.517c0,0-3.915-5.339-6.406-5.339c1.067,3.56,1.424,4.983,1.424,4.983c-1.779,3.915,0.356,6.051,0.356,6.051s-1.068,0.712-1.424,2.848C258.149,344.06,260.997,343.347,259.217,335.517z"></path></g></g><g><g><path style="fill:#323232;stroke:#000000;stroke-linecap:round;stroke-linejoin:round;" d="M222.811,332.625c0,0-1.875,3-2.5,8.587c5.077,1.067,24.743,2.136,24.743,2.136v-10.322L222.811,332.625z"></path><path style="fill:#6E6E6E;stroke:#000000;stroke-linecap:round;stroke-linejoin:round;" d="M240.783,335.517c0,0,3.915-5.339,6.406-5.339c-1.067,3.56-1.424,4.983-1.424,4.983c1.779,3.915-0.356,6.051-0.356,6.051s1.068,0.712,1.424,2.848C241.851,344.06,239.003,343.347,240.783,335.517z"></path></g></g></g></g></svg>