<svg xmlns="http://www.w3.org/2000/svg" width="500" height="500" version="1.1"><g id="x057"><g><g><path style="fill:#6E6E6E;stroke:#000000;stroke-linecap:round;stroke-linejoin:round;" d="M277.148,303.811c-0.181-1.852-1.108-4.266-2.262-6.663c0,0-9.427-2.984-13.227-2.17c-3.115,0.667-9.879,4.802-12.212,6.267c-2.334-1.465-9.098-5.6-12.214-6.267c-3.799-0.814-13.224,2.17-13.224,2.17c-1.154,2.397-2.082,4.812-2.263,6.663c-0.542,5.551,1.99,13.513,1.99,13.513s4.267-2.383,9.155-1.177c1.764,0.435,3.621,1.206,5.449,2.174c0.074,1.834,0.43,5.174,2.151,7.325c2.171,2.714,8.958,8.143,8.958,8.143s6.784-5.429,8.955-8.143c1.722-2.151,2.077-5.491,2.151-7.325c1.827-0.968,3.686-1.739,5.448-2.174c4.89-1.206,9.154,1.177,9.154,1.177S277.691,309.361,277.148,303.811z"></path><path style="fill:#505050;" d="M224.968,313.342c0,0-2.363-6.152-1.006-7.78c1.357-1.628,8.956-5.97,11.67-5.156c2.714,0.814,11.399,5.156,11.399,7.327c0,2.172-3.8,7.329-3.8,7.329S225.159,314.337,224.968,313.342z"></path><path style="fill:#505050;" d="M274.102,313.342c0,0,2.363-6.152,1.006-7.78c-1.355-1.628-8.956-5.97-11.67-5.156c-2.715,0.814-11.399,5.156-11.399,7.327c0,2.172,3.8,7.329,3.8,7.329S273.911,314.337,274.102,313.342z"></path></g><path style="fill:#FFBF00;stroke:#000000;stroke-linecap:round;stroke-linejoin:round;" d="M276.615,313.704c0,0-4.614-1.086-7.328-1.086c-2.769,0-9.499,3.257-9.499,3.257s-1.087,5.429-1.629,7.328c-0.543,1.9-7.871,5.156-7.871,5.156s-7.328-3.256-7.871-5.156c-0.543-1.899-1.628-7.328-1.628-7.328s-6.731-3.257-9.499-3.257c-2.714,0-7.328,1.086-7.328,1.086s-2.171,2.442-1.628,4.614c0.543,2.171,2.171,2.442,2.171,2.442s4.614-3.257,7.599-1.9s5.428,2.443,5.428,2.443s0.814,4.613,2.171,5.97c1.356,1.357,10.584,7.328,10.584,7.328s9.227-5.971,10.584-7.328c1.357-1.356,2.172-5.97,2.172-5.97s2.442-1.087,5.428-2.443s7.6,1.9,7.6,1.9s1.628-0.271,2.171-2.442C278.785,316.146,276.615,313.704,276.615,313.704z"></path><g><path style="fill:#6E6E6E;stroke:#000000;stroke-linecap:round;stroke-linejoin:round;" d="M269.967,287.649c-5.484-5.156-34.958-5.156-40.441,0c-1.249,1.174,0.686,5.699,1.713,8.143c1.028,2.442,18.507,8.685,18.507,8.685s17.479-6.242,18.507-8.685C269.28,293.349,271.215,288.823,269.967,287.649z"></path><path style="fill:#505050;" d="M233.19,294.435c0,0,12.756,7.056,16.556,7.6c4.342-1.087,16.555-7.057,16.555-7.057l1.086-2.985c0,0-5.429-3.257-18.455-3.257c-13.027,0-16.827,3.257-16.827,3.257L233.19,294.435z"></path></g></g></g></svg>