<svg xmlns="http://www.w3.org/2000/svg" width="500" height="500" version="1.1"><g id="x058"><g><g><path style="fill:#6E6E6E;stroke:#000000;stroke-linecap:round;stroke-linejoin:round;" d="M278.296,314.579c-0.177-3.203-3.024-9.788-3.024-9.788l-2.314-20.466c0,0-3.381-3.024-9.61-3.203c-1.423,14.059-13.347,18.33-13.347,18.33s-11.923-4.271-13.347-18.33c-6.229,0.179-9.61,3.203-9.61,3.203l-2.313,20.466c0,0-2.848,6.585-3.025,9.788s-0.153,13.524,0.915,14.771s9.051,0.178,10.475,0c1.423-0.178,7.119-6.762,16.906-6.762c9.789,0,15.483,6.584,16.907,6.762c1.425,0.178,9.407,1.246,10.475,0C278.449,328.104,278.475,317.782,278.296,314.579z"></path><path style="fill:#505050;" d="M262.329,309.605c-2.541,0-12.33,3.193-12.33,3.193s-9.788-3.193-12.329-3.193c-2.264,0-10.107,2.876-13.941,5.508c0,0-1.11,10.677,0.669,13.169c2.491,0.178,8.873-0.178,8.873-0.178s9.788-6.676,16.729-7.031c6.941,0.355,16.729,7.031,16.729,7.031s6.381,0.355,8.873,0.178c1.779-2.492,0.67-13.169,0.67-13.169C272.436,312.481,264.594,309.605,262.329,309.605z"></path><g><path style="fill:#505050;" d="M227.774,293.045c0,0,4.449-3.559,10.144-2.847c-0.89-1.78-2.669-7.83-2.669-7.83s-5.873,1.602-6.763,2.313C227.774,286.995,227.774,293.045,227.774,293.045z"></path><path style="fill:#505050;" d="M272.226,293.045c0,0-4.448-3.559-10.145-2.847c0.891-1.78,2.67-7.83,2.67-7.83s5.873,1.602,6.764,2.313C272.226,286.995,272.226,293.045,272.226,293.045z"></path></g><g><path style="opacity:0.5;fill:#FFFFFF;" d="M224.571,313.867c0,0.533,8.364-5.339,11.923-4.627c-2.847-3.382-4.805-6.584-6.584-5.873C228.13,304.079,224.571,311.909,224.571,313.867z"></path><path style="opacity:0.5;fill:#FFFFFF;" d="M275.429,313.867c0,0.533-8.364-5.339-11.923-4.627c2.847-3.382,4.805-6.584,6.584-5.873C271.87,304.079,275.429,311.909,275.429,313.867z"></path></g></g><g><path style="fill:#6E6E6E;stroke:#000000;stroke-linecap:round;stroke-linejoin:round;" d="M266.64,277.47c-0.89-0.359-3.292,0.144-8.187,0.862c-2.58,4.096-8.454,4.023-8.454,4.023s-5.873,0.072-8.453-4.022c-4.895-0.719-7.297-1.222-8.187-0.862c-0.89,0.359-0.178,8.118,0.445,9.053c0.623,0.934,5.606,7.614,16.195,7.614s15.572-6.682,16.194-7.616C266.818,285.588,267.529,277.829,266.64,277.47z"></path><g><path style="fill:#505050;" d="M265.004,278.834c0,0-0.089,5.962-0.712,7.208c-2.136,1.778-6.673,4.715-7.118,4.537s0.623-7.207,0.268-8.364c1.067-1.957,2.402-3.025,2.402-3.025L265.004,278.834z"></path><path style="fill:#505050;" d="M234.996,278.834c0,0,0.089,5.962,0.712,7.208c2.135,1.778,6.673,4.715,7.118,4.537s-0.623-7.207-0.267-8.364c-1.068-1.957-2.402-3.025-2.402-3.025L234.996,278.834z"></path></g></g></g></g></svg>