<svg xmlns="http://www.w3.org/2000/svg" width="500" height="500" version="1.1"><g id="x059"><g><g><g><path style="fill:#6E6E6E;stroke:#000000;stroke-linecap:round;stroke-linejoin:round;" d="M224.8,338.705c0,0-1.352,4.593-2.567,5.674c-0.405,2.162,2.431,7.837,2.431,7.837l3.513,0.27c0,0,2.027-7.431,2.297-7.972c-1.486-2.837-2.297-6.214-2.297-6.214L224.8,338.705z"></path><polygon style="fill:#505050;" points="225.61,341.542 225.88,345.055 228.717,344.92 226.961,351 225.205,351 223.448,345.055 "></polygon></g><g><path style="fill:#6E6E6E;stroke:#000000;stroke-linecap:round;stroke-linejoin:round;" d="M274.533,338.705c0,0,1.351,4.593,2.566,5.674c0.406,2.162-2.432,7.837-2.432,7.837l-3.512,0.27c0,0-2.027-7.431-2.298-7.972c1.487-2.837,2.298-6.214,2.298-6.214L274.533,338.705z"></path><polygon style="fill:#505050;" points="273.722,341.542 273.451,345.055 270.615,344.92 272.371,351 274.127,351 275.884,345.055 "></polygon></g></g><g><path style="fill:#6E6E6E;stroke:#000000;stroke-linecap:round;stroke-linejoin:round;" d="M278.324,332.684c6.348-12.936-1.18-36.643-2.988-38.969c-1.486-1.621-8.242-7.431-9.592-7.836c0,0,0,4.459-1.217,5.675c-1.216,1.216-14.861,2.837-14.861,2.837s-13.646-1.621-14.861-2.837c-1.216-1.216-1.216-5.675-1.216-5.675c-1.351,0.405-8.105,6.215-9.592,7.836c-1.809,2.326-9.335,26.033-2.988,38.969c-0.789,1.018-3.164,4.197-3.389,5.887c0.811,3.242,2.161,3.512,2.161,3.512s11.782-3.917,29.886-3.917c18.104,0,29.886,3.917,29.886,3.917s1.351-0.27,2.161-3.512C281.489,336.881,279.114,333.701,278.324,332.684z"></path><path style="opacity:0.5;fill:#FFFFFF;" d="M226.158,295.472c0,0,2.972-4.458,5.539-5.675c0.675,2.702,2.027,3.918,2.027,3.918l8.916,2.026l-6.214,3.107c0,0-3.783-3.242-4.594-2.837c-0.811,0.406-5.269,2.972-5.269,2.972S226.158,296.012,226.158,295.472z"></path><path style="fill:#505050;" d="M225.483,295.336c0,0-10.296,19.32-2.73,36.884c-1.082,2.432-3.513,6.351-3.513,6.351l0.945,1.621c0,0,11.376-2.837,23.131-3.378c-3.918-1.352-3.377-4.054-1.622-5.27c4.324-0.405,25.833-0.405,35.021,1.621c2.161-5.269,1.323-18.914-0.298-29.857c-6.35,9.052-15.37,13.209-26.346,13.646C226.293,317.898,225.483,295.336,225.483,295.336z"></path><g><path style="fill:none;stroke:#000000;stroke-linecap:round;stroke-linejoin:round;" d="M221.835,305.739c0,0,3.107-4.863,10.402-8.105c2.432,3.513,10.944,5.134,17.699,5.134"></path><path d="M246.423,303.037c0,0,2.297,1.892,2.837,3.647l0.946-4.053L246.423,303.037z"></path><path style="fill:none;stroke:#000000;stroke-linecap:round;stroke-linejoin:round;" d="M249.396,302.768c6.754,0,15.266-1.621,17.698-5.134c7.297,3.242,10.403,8.105,10.403,8.105"></path></g><path style="fill:none;stroke:#000000;stroke-linecap:round;stroke-linejoin:round;" d="M224.509,332.49c0,0,12.863-1.757,25.292-1.757c12.429,0,25.022,1.757,25.022,1.757"></path><line style="fill:none;stroke:#000000;stroke-linecap:round;stroke-linejoin:round;" x1="249.666" y1="303.308" x2="249.666" y2="330.193"></line><g><circle style="fill:#505050;stroke:#000000;stroke-linecap:round;stroke-linejoin:round;" cx="249.261" cy="297.229" r="1.486"></circle><g><circle style="fill:#505050;stroke:#000000;stroke-linecap:round;stroke-linejoin:round;" cx="264.933" cy="294.391" r="1.487"></circle><circle style="fill:#505050;stroke:#000000;stroke-linecap:round;stroke-linejoin:round;" cx="234.399" cy="294.391" r="1.486"></circle></g></g></g></g></g></svg>