<svg xmlns="http://www.w3.org/2000/svg" width="500" height="500" version="1.1"><g id="x006"><g><g><g><g><path style="fill:#6E6E6E;stroke:#000000;stroke-linecap:round;stroke-linejoin:round;" d="M224.786,339.531l2.757-25.656l-18.295-1.967c0,0-2.014,11.223-2.589,13.236c-1.728,1.438-4.316,4.891-3.741,5.754c0.575,0.864,2.302,3.453,2.302,3.453s-4.762,1.594-6.703,3.948l-2.475,11.95c0,0,1,3.125,8.75,6.25s11.5,2.625,11.5,2.625l4.043-9.916C222.961,343.637,224.786,339.531,224.786,339.531z"></path><path style="fill:#505050;" d="M220.549,338.38c0,0-6.762-5.897-6.186-8.775c2.445-0.576,11.679-11.979,11.679-11.979l-1.25,12.25L220.549,338.38z"></path><path style="fill:#505050;" d="M201.559,337.94c0,0,9.208,4.61,13.092,3.604c-4.028-4.028-8.632-6.905-8.632-6.905L201.559,337.94z"></path><path style="fill:none;stroke:#000000;stroke-linecap:round;stroke-linejoin:round;" d="M214.14,342.058c0,0-5.179-5.178-8.632-7.48"></path></g><path style="fill:#6E6E6E;stroke:#000000;stroke-linecap:round;stroke-linejoin:round;" d="M212.414,381.139c0,0-4.164,6.027-4.164,9.194c2.249,4.125,17.333,11.167,25.743,11.292c1.3-4.465,0.8-12,0.8-12L212.414,381.139z"></path><path style="fill:#6E6E6E;stroke:#000000;stroke-linecap:round;stroke-linejoin:round;" d="M216.441,292.631c0,0,15.825,19.853,17.552,23.882c2.014,9.783,1.438,25.032,1.151,25.896c-0.287,0.863,0.288,47.763-0.575,49.201c-14.153-3.109-22.731-10.471-22.731-10.471s5.996-34.875,7.08-38.264c2-6.25,5.125-17.375,5.125-17.375l1.625-18"></path><g><path style="fill:#6E6E6E;stroke:#000000;stroke-linecap:round;stroke-linejoin:round;" d="M234.569,379.524c0,0-2.015-25.319-2.59-35.965c-0.575-10.646-4.316-19.566-4.891-20.429c-0.576-0.864-10.934-6.906-25.608-10.647c-0.575-7.769,9.496-19.564,15.25-20.429c8.056,7.482,16.4,18.703,17.839,22.443C238.309,342.983,234.569,379.524,234.569,379.524z"></path><path style="fill:#505050;" d="M214.939,304.428c0,0,5.826,8.2,17.623,9.64c-2.301-4.389-9.854-14.53-9.854-14.53S218.68,298.098,214.939,304.428z"></path></g><g><path style="fill:#6E6E6E;stroke:#000000;stroke-linecap:round;stroke-linejoin:round;" d="M228.14,358.097c0,0-1.935,12.229-3.948,13.38c-2.015,1.151-4.684,0.431-7.849-0.721c-1.759-0.756-3.426-2.241-3.426-4.256s3.139-14.445,3.139-14.445L228.14,358.097z"></path><path style="fill:#6E6E6E;stroke:#000000;stroke-linecap:round;stroke-linejoin:round;" d="M229.781,353.903l-13.264-5.303c0,0-1.778,3.933-1.404,5.617c0.375,1.687,3.902,5.618,7.117,5.492c3.214-0.124,6.585-0.874,6.585-0.874L229.781,353.903z"></path></g></g><g><path style="fill:#FCCFA8;stroke:#000000;stroke-linecap:round;stroke-linejoin:round;" d="M237.958,281.696c0,0-6.331,2.591-7.481,4.893c-3.453-0.863-3.101,0.862-3.677-2.59c-0.288,1.727,3.549,6.042-2.013,13.522c1.151-2.3-3.741-5.754-3.741-5.754s6.555,13.092-1.79,18.415c1.438-5.18-0.799-9.783-0.799-9.783s-6.618,8.632-6.042,12.66c0,0-4.7-1.918-4.7-10.742c-1.15,1.343-3.997,5.707-3.997,5.707s-1.95-8.968,2.462-13.954c-1.151-0.769-4.795,0.575-4.795,0.575s1.918-7.289,8.823-9.207c-1.918-1.727-5.946-2.495-5.946-2.495s1.918-5.562,13.427-8.438C230.348,275.463,237.958,281.696,237.958,281.696z"></path><path style="fill:#E8AB87;" d="M236.584,281.667c0,0-4.25,1.5-6.417,4.416c-0.833-0.333-2.917-0.25-2.917-0.25s0.491,4.496-1.883,7.733c-1.438-5.18-3.668-9.567-5.25-10c0.575-2.013,4.747-2.445,6.761-1.725c-2.015-3.022-3.453-4.245-5.467-5.108C227.383,277.166,233.348,279.437,236.584,281.667z"></path></g></g><g><g><g><path style="fill:#6E6E6E;stroke:#000000;stroke-linecap:round;stroke-linejoin:round;" d="M275.215,339.531l-2.758-25.656l18.295-1.967c0,0,2.014,11.223,2.59,13.236c1.727,1.438,4.315,4.891,3.74,5.754c-0.574,0.864-2.303,3.453-2.303,3.453s4.763,1.594,6.703,3.948l2.475,11.95c0,0-1,3.125-8.75,6.25s-11.5,2.625-11.5,2.625l-4.043-9.916C277.039,343.637,275.215,339.531,275.215,339.531z"></path><path style="fill:#505050;" d="M279.451,338.38c0,0,6.762-5.897,6.186-8.775c-2.445-0.576-11.68-11.979-11.68-11.979l1.25,12.25L279.451,338.38z"></path><path style="fill:#505050;" d="M298.441,337.94c0,0-9.208,4.61-13.092,3.604c4.027-4.028,8.631-6.905,8.631-6.905L298.441,337.94z"></path><path style="fill:none;stroke:#000000;stroke-linecap:round;stroke-linejoin:round;" d="M285.86,342.058c0,0,5.179-5.178,8.632-7.48"></path></g><path style="fill:#6E6E6E;stroke:#000000;stroke-linecap:round;stroke-linejoin:round;" d="M287.586,381.139c0,0,4.164,6.027,4.164,9.194c-2.248,4.125-17.333,11.167-25.742,11.292c-1.301-4.465-0.801-12-0.801-12L287.586,381.139z"></path><path style="fill:#6E6E6E;stroke:#000000;stroke-linecap:round;stroke-linejoin:round;" d="M283.559,292.631c0,0-15.824,19.853-17.551,23.882c-2.015,9.783-1.439,25.032-1.151,25.896c0.287,0.863-0.288,47.763,0.575,49.201c14.152-3.109,22.73-10.471,22.73-10.471s-5.995-34.875-7.08-38.264c-2-6.25-5.125-17.375-5.125-17.375l-1.625-18"></path><g><path style="fill:#6E6E6E;stroke:#000000;stroke-linecap:round;stroke-linejoin:round;" d="M265.432,379.524c0,0,2.015-25.319,2.59-35.965c0.575-10.646,4.316-19.566,4.891-20.429c0.576-0.864,10.935-6.906,25.609-10.647c0.574-7.769-9.496-19.564-15.251-20.429c-8.056,7.482-16.4,18.703-17.839,22.443C261.691,342.983,265.432,379.524,265.432,379.524z"></path><path style="fill:#505050;" d="M285.062,304.428c0,0-5.826,8.2-17.623,9.64c2.302-4.389,9.854-14.53,9.854-14.53S281.32,298.098,285.062,304.428z"></path></g><g><path style="fill:#6E6E6E;stroke:#000000;stroke-linecap:round;stroke-linejoin:round;" d="M271.861,358.097c0,0,1.934,12.229,3.947,13.38c2.016,1.151,4.685,0.431,7.85-0.721c1.759-0.756,3.426-2.241,3.426-4.256s-3.139-14.445-3.139-14.445L271.861,358.097z"></path><path style="fill:#6E6E6E;stroke:#000000;stroke-linecap:round;stroke-linejoin:round;" d="M270.22,353.903l13.265-5.303c0,0,1.777,3.933,1.403,5.617c-0.375,1.687-3.902,5.618-7.116,5.492c-3.215-0.124-6.586-0.874-6.586-0.874L270.22,353.903z"></path></g></g><g><path style="fill:#FCCFA8;stroke:#000000;stroke-linecap:round;stroke-linejoin:round;" d="M262.043,281.696c0,0,6.33,2.591,7.48,4.893c3.453-0.863,3.102,0.862,3.678-2.59c0.287,1.727-3.549,6.042,2.014,13.522c-1.151-2.3,3.74-5.754,3.74-5.754s-6.555,13.092,1.791,18.415c-1.439-5.18,0.799-9.783,0.799-9.783s6.617,8.632,6.041,12.66c0,0,4.701-1.918,4.701-10.742c1.15,1.343,3.996,5.707,3.996,5.707s1.95-8.968-2.462-13.954c1.151-0.769,4.796,0.575,4.796,0.575s-1.919-7.289-8.824-9.207c1.918-1.727,5.947-2.495,5.947-2.495s-1.919-5.562-13.428-8.438C269.652,275.463,262.043,281.696,262.043,281.696z"></path><path style="fill:#E8AB87;" d="M263.416,281.667c0,0,4.25,1.5,6.416,4.416c0.834-0.333,2.917-0.25,2.917-0.25s-0.491,4.496,1.883,7.733c1.438-5.18,3.669-9.567,5.25-10c-0.575-2.013-4.747-2.445-6.761-1.725c2.014-3.022,3.453-4.245,5.467-5.108C272.617,277.166,266.652,279.437,263.416,281.667z"></path></g></g></g></g></svg>