<svg xmlns="http://www.w3.org/2000/svg" width="500" height="500" version="1.1"><g id="x060"><g><g><path style="fill:#505050;stroke:#000000;stroke-linecap:round;stroke-linejoin:round;" d="M224.5,306.109c0,0-5.982-11.239-9.063-11.239c-1.087-3.807,0-3.988,0-3.988s6.889-5.801,10.876-7.433c4.894,0.906,9.426,3.807,9.426,3.807l2.719,9.427L224.5,306.109z"></path><path style="fill:#505050;stroke:#000000;stroke-linecap:round;stroke-linejoin:round;" d="M275.5,306.109c0,0,5.98-11.239,9.063-11.239c1.088-3.807,0-3.988,0-3.988s-6.889-5.801-10.876-7.433c-4.895,0.906-9.427,3.807-9.427,3.807l-2.72,9.427L275.5,306.109z"></path></g><path style="fill:#505050;stroke:#000000;stroke-linecap:round;stroke-linejoin:round;" d="M265.952,324.056L250,324.78l-15.952-0.725l-0.544,5.075c0,0,3.444,7.252,16.496,7.433c13.053-0.181,16.496-7.433,16.496-7.433L265.952,324.056z"></path><g><g><path style="fill:#6E6E6E;stroke:#000000;stroke-linecap:round;stroke-linejoin:round;" d="M277.327,315.399c-0.271-0.408-3.398-7.342-3.398-12.236c-1.495-1.903-4.895-5.303-4.895-5.303s-15.499,4.486-16.043,5.439c-0.544,0.951-2.991,1.767-2.991,1.767s-2.447-0.815-2.991-1.767c-0.544-0.953-16.043-5.439-16.043-5.439s-3.399,3.399-4.894,5.303c0,4.895-3.127,11.828-3.399,12.236c-0.272,0.407-0.68,12.372,8.158,18.626c1.767-2.99,4.215-5.438,4.215-5.438L250,328.18l14.955,0.407c0,0,2.447,2.448,4.215,5.438C278.007,327.771,277.6,315.807,277.327,315.399z"></path><path style="fill:#505050;" d="M270.666,318.119c-3.127-0.952-20.666-3.535-20.666-3.535s-17.539,2.583-20.666,3.535c-3.806-0.272-5.438-2.176-5.438-2.176s0.68,12.372,6.662,16.043c1.903-2.72,3.943-4.759,3.943-4.759L250,326.82l15.499,0.407c0,0,2.04,2.039,3.942,4.759c5.983-3.671,6.663-16.043,6.663-16.043S274.472,317.847,270.666,318.119z"></path></g><g><path style="fill:#6E6E6E;stroke:#000000;stroke-linecap:round;stroke-linejoin:round;" d="M258.837,329.402L250,329.267l-8.837,0.136c0,0-0.952,0.408-2.447,1.225c0.815,4.486,11.284,9.245,11.284,9.245s10.469-4.759,11.285-9.245C259.789,329.811,258.837,329.402,258.837,329.402z"></path><path style="fill:#505050;" d="M248.097,331.035c0,0-1.224,1.767-0.952,2.854s2.855,4.215,2.855,4.215s-8.021-3.943-9.381-6.934C242.658,330.082,248.097,331.035,248.097,331.035z"></path></g><g><ellipse transform="matrix(0.923 0.3848 -0.3848 0.923 132.7001 -64.0334)" style="fill:#505050;stroke:#000000;stroke-linecap:round;stroke-linejoin:round;" cx="226.343" cy="299.546" rx="2.595" ry="5.451"></ellipse><ellipse transform="matrix(-0.923 0.3848 -0.3848 -0.923 641.5103 470.7183)" style="fill:#505050;stroke:#000000;stroke-linecap:round;stroke-linejoin:round;" cx="273.657" cy="299.546" rx="2.595" ry="5.45"></ellipse></g><g><path style="fill:#6E6E6E;stroke:#000000;stroke-linecap:round;stroke-linejoin:round;" d="M269.85,287.256c-0.68-0.407-12.235,5.303-17.402,5.03c-0.845,0.634-1.759,1.155-2.447,1.514c-0.688-0.358-1.603-0.88-2.447-1.514c-5.167,0.272-16.723-5.438-17.403-5.03c-0.68,0.408-5.847,5.303-5.847,5.303c8.518,6.767,22.032,8.727,25.696,9.147c3.664-0.421,17.179-2.381,25.696-9.147C275.696,292.559,270.53,287.664,269.85,287.256z"></path><path style="fill:#505050;" d="M238.171,297.453c0,0-1.224-0.952-1.359-2.312c-0.136-1.36,2.719-2.719,2.719-2.719l-8.973-4.079l-3.807,4.351C226.751,292.694,234.501,297.045,238.171,297.453z"></path></g></g></g></g></svg>