<svg xmlns="http://www.w3.org/2000/svg" width="500" height="500" version="1.1"><g id="x061"><g><path style="fill:#505050;stroke:#000000;stroke-linecap:round;stroke-linejoin:round;" d="M256.771,345.917c0,0-5.19,10.75-6.771,11.75c-1.58-1-6.771-11.75-6.771-11.75l-3.836,12c0,0,1.58,1.75,4.514,1.5c0.451,2.5,6.093,6.25,6.093,6.25s5.642-3.75,6.094-6.25c2.934,0.25,4.514-1.5,4.514-1.5L256.771,345.917z"></path><g><g><path style="fill:#6E6E6E;stroke:#000000;stroke-linecap:round;stroke-linejoin:round;" d="M233.178,341.167c0.451-1,7.447-8.5,8.124-9c1.354,3.75,1.129,17,1.129,17l-1.806,11.5c-1.806-1.25-5.417-11.25-5.417-11.25L233.178,341.167z"></path><path style="fill:#505050;" d="M237.917,340.167c-0.226,0.75,2.482,19.5,2.482,19.5s-4.514-8-6.094-16.25C237.014,337.667,237.917,340.167,237.917,340.167z"></path></g><g><path style="fill:#6E6E6E;stroke:#000000;stroke-linecap:round;stroke-linejoin:round;" d="M266.822,341.188c-0.448-1.002-7.418-8.532-8.093-9.035c-1.366,3.744-1.188,16.994-1.188,16.994l1.765,11.508c1.811-1.242,5.457-11.226,5.457-11.226L266.822,341.188z"></path><path style="fill:#505050;" d="M262.086,340.167c0.225,0.751-2.551,19.488-2.551,19.488s4.542-7.979,6.151-16.223C262.998,337.671,262.086,340.167,262.086,340.167z"></path></g></g><g><g><path style="fill:#6E6E6E;stroke:#000000;stroke-linecap:round;stroke-linejoin:round;" d="M224.836,286.667c0,0,1.757,5.143,1.921,7.333c2.932,0.147,3.318,1.885,3.193,3.469c4.146,0.932,11.199,2.808,15.681,4.027c-0.851-2.898,0.75-6.559-0.483-9.329C238.041,287.653,224.836,286.667,224.836,286.667z"></path><path style="fill:#505050;" d="M226.98,293.417c0,0,2.482,0.5,3.16,1.625c4.514,0.875,12.299,2.25,12.299,2.25l0.452-1.375L226.98,293.417z"></path></g><g><path style="fill:#6E6E6E;stroke:#000000;stroke-linecap:round;stroke-linejoin:round;" d="M275.163,286.667c0,0-1.757,5.143-1.921,7.333c-2.932,0.147-3.317,1.885-3.192,3.469c-4.146,0.932-11.199,2.808-15.681,4.027c0.851-2.898-0.749-6.559,0.483-9.329C261.959,287.653,275.163,286.667,275.163,286.667z"></path><path style="fill:#505050;" d="M273.02,293.417c0,0-2.482,0.5-3.159,1.625c-4.514,0.875-12.3,2.25-12.3,2.25l-0.451-1.375L273.02,293.417z"></path></g></g><g><g><path style="fill:#6E6E6E;stroke:#000000;stroke-linecap:round;stroke-linejoin:round;" d="M226.868,327.917l6.545,4l7.673-2.5l3.16,5.5c0,0-10.381,9-11.961,8.5c-1.58-0.5-7.899-6.5-7.899-7.25S226.868,327.917,226.868,327.917z"></path><path style="fill:#505050;" d="M230.253,330.542c0,0,1.918,1.75,2.934,1.75c1.918-0.375,6.771-1.875,6.771-1.875s-6.657,3.625-7.109,4c-0.451,0.375-0.451,8.5-0.451,8.5s-6.545-4.75-7.561-6.875c0.79-3.625,1.693-6,1.693-6L230.253,330.542z"></path></g><g><path style="fill:#6E6E6E;stroke:#000000;stroke-linecap:round;stroke-linejoin:round;" d="M273.132,327.917l-6.544,4l-7.674-2.5l-3.159,5.5c0,0,10.381,9,11.961,8.5s7.899-6.5,7.899-7.25S273.132,327.917,273.132,327.917z"></path><path style="fill:#505050;" d="M269.747,330.542c0,0-1.918,1.75-2.934,1.75c-1.919-0.375-6.771-1.875-6.771-1.875s6.657,3.625,7.108,4c0.452,0.375,0.452,8.5,0.452,8.5s6.544-4.75,7.56-6.875c-0.79-3.625-1.692-6-1.692-6L269.747,330.542z"></path></g></g><g><g><path style="fill:#6E6E6E;stroke:#000000;stroke-linecap:round;stroke-linejoin:round;" d="M250.113,332.917v-8.75l-3.611-1l-10.156,4.75l5.417,8C241.763,335.917,245.825,332.917,250.113,332.917z"></path><path style="fill:#505050;" d="M238.152,329.542c0,0,4.175,0.25,5.078,0s2.708-1.875,4.063-1.875c1.354,0,2.482,1.125,2.482,1.125v-2.75c0,0-2.257-2.5-3.611-2.375S238.152,329.542,238.152,329.542z"></path></g><g><path style="fill:#6E6E6E;stroke:#000000;stroke-linecap:round;stroke-linejoin:round;" d="M249.887,332.917v-8.75l3.611-1l10.155,4.75l-5.416,8C258.237,335.917,254.175,332.917,249.887,332.917z"></path><path style="fill:#505050;" d="M261.849,329.542c0,0-4.176,0.25-5.078,0c-0.903-0.25-2.708-1.875-4.063-1.875c-1.354,0-2.482,1.125-2.482,1.125v-2.75c0,0,2.257-2.5,3.611-2.375C255.19,323.792,261.849,329.542,261.849,329.542z"></path></g></g><path style="fill:#6E6E6E;stroke:#000000;stroke-linecap:round;stroke-linejoin:round;" d="M250,331.251c0,0-7.899,3-8.576,4c0,4.25,1.128,11.75,1.128,11.75c0.677,4,7.447,11,7.447,11s6.771-7,7.447-11c0,0,1.129-7.5,1.129-11.75C257.898,334.251,250,331.251,250,331.251z"></path><g><g><path style="fill:#6E6E6E;stroke:#000000;stroke-linecap:round;stroke-linejoin:round;" d="M226.53,313.501c0.16,0,6.574,4,12.187,5.75c0.962,2,4.089,8.417,4.089,8.417s-7.858,3.25-10.905,2.5c-4.33-4.417-8.419-11.333-8.419-12.083S226.37,313.501,226.53,313.501z"></path><path style="fill:#505050;" d="M226.078,315.542c0,0,5.981,4,7.109,4.5c1.128,0.5,5.529,0.25,5.529,0.25L226.078,315.542z"></path></g><g><path style="fill:#6E6E6E;stroke:#000000;stroke-linecap:round;stroke-linejoin:round;" d="M273.471,313.501c-0.16,0-6.574,4-12.188,5.75c-0.962,2-4.09,8.417-4.09,8.417s7.858,3.25,10.905,2.5c4.33-4.417,8.419-11.333,8.419-12.083S273.631,313.501,273.471,313.501z"></path><path style="fill:#505050;" d="M273.922,315.542c0,0-5.98,4-7.108,4.5c-1.129,0.5-5.529,0.25-5.529,0.25L273.922,315.542z"></path></g></g><path style="fill:#6E6E6E;stroke:#000000;stroke-linecap:round;stroke-linejoin:round;" d="M224.12,319.251c0,0.25,5.211,9.167,7.938,10.667c-2.004,1.167-8.98-0.25-9.461-1.333C222.036,323.001,224.12,319.251,224.12,319.251z"></path><path style="fill:#505050;" d="M223.031,328.292c0,0,3.836-2.625,4.514-2.75c1.016,1.375,3.498,4.25,3.498,4.25S225.739,330.167,223.031,328.292z"></path><g><g><path style="fill:#6E6E6E;stroke:#000000;stroke-linecap:round;stroke-linejoin:round;" d="M246.728,315.167c0,0,2.144,3.75,3.16,4.625c0,4.625,0,7,0,7s-1.806-1.5-2.482-1.375c-0.677,0.125-3.047,2.5-3.047,2.5s-4.175-2.5-5.19-8.625c2.595,0.625,3.724,0.375,3.724,0.375L246.728,315.167z"></path><path style="fill:#505050;" d="M239.619,319.167c0,0,3.498,1.75,4.062,1.75c0.564,0,1.918-1.125,1.918-1.125l3.836,1.375l-3.836-4.625l-3.498,2.25L239.619,319.167z"></path></g><g><path style="fill:#6E6E6E;stroke:#000000;stroke-linecap:round;stroke-linejoin:round;" d="M253.272,315.167c0,0-2.145,3.75-3.16,4.625c0,4.625,0,7,0,7s1.805-1.5,2.483-1.375c0.677,0.125,3.046,2.5,3.046,2.5s4.176-2.5,5.191-8.625c-2.596,0.625-3.724,0.375-3.724,0.375L253.272,315.167z"></path><path style="fill:#505050;" d="M260.381,319.167c0,0-3.498,1.75-4.062,1.75c-0.564,0-1.919-1.125-1.919-1.125l-3.836,1.375l3.836-4.625l3.498,2.25L260.381,319.167z"></path></g></g><g><g><path style="fill:#6E6E6E;stroke:#000000;stroke-linecap:round;stroke-linejoin:round;" d="M242.459,319.667c0.943-0.444,4.405-3,5.14-5c0.734-2,0.245-14,0.245-14l-4.65-3c0,0-14.194-2.5-15.173-2.25s-7.021,10.5-7.021,11.5s4.084,8,5.063,8.5C227.042,315.917,239.278,321.167,242.459,319.667z"></path><path style="fill:#505050;" d="M221.451,306.917c0,0,2.934,6.125,4.739,7.75c2.708,1.5,11.51,5.5,15.685,4.625c2.144-1.125,3.836-2.5,3.836-2.5l0.226-5c0,0-4.852,2.5-5.642,2.625c-0.79,0.125-13.879-3.75-14.669-4.625S221.451,306.917,221.451,306.917z"></path><path style="fill:#505050;" d="M242.402,304.168c0,0,2.181,3.124,2.294,3.874c0.113,0.75-0.902,4.75-0.902,4.75l4.326-4.124L242.402,304.168z"></path></g><g><path style="fill:#6E6E6E;stroke:#000000;stroke-linecap:round;stroke-linejoin:round;" d="M257.541,319.667c-0.943-0.444-4.406-3-5.14-5c-0.734-2-0.245-14-0.245-14l4.649-3c0,0,14.195-2.5,15.174-2.25s7.021,10.5,7.021,11.5s-4.084,8-5.063,8.5C272.958,315.917,260.722,321.167,257.541,319.667z"></path><g><path style="fill:#505050;" d="M257.975,304.335c0,0-2.333,2.957-2.445,3.707c-0.113,0.75,0.902,4.75,0.902,4.75l-4.476-4.624L257.975,304.335z"></path></g><path style="fill:#505050;" d="M278.549,306.917c0,0-2.934,6.125-4.739,7.75c-2.708,1.5-11.51,5.5-15.685,4.625c-2.145-1.125-3.837-2.5-3.837-2.5l-0.226-5c0,0,4.852,2.5,5.642,2.625s13.88-3.75,14.669-4.625C275.163,308.917,278.549,306.917,278.549,306.917z"></path></g></g><g><path style="fill:#FF0000;stroke:#000000;stroke-linecap:round;stroke-linejoin:round;" d="M252.773,309.031l1.849-2.269L250,305.027l-4.622,1.735l1.849,2.269l-3.543,3.604c1.078,3.604,6.316,8.81,6.316,8.81s5.238-5.205,6.316-8.81L252.773,309.031z"></path><path style="fill:#BF0000;" d="M244.2,312.792c0,0,2.039,4.126,5.417,7.625c0-6.875,0-8,0-8L244.2,312.792z"></path><path style="fill:#FFFFFF;" d="M244.375,312.813c0,0,4.938-4.563,5.375-5.063c0,1.563,0.063,4.625,0.063,4.625L244.375,312.813z"></path><polygon style="opacity:0.5;fill:#FFFFFF;" points="250,312.313 250,307.688 255.563,312.813 "></polygon></g><g><path style="fill:#FF0000;stroke:#000000;stroke-linecap:round;stroke-linejoin:round;" d="M255.873,300.421l2.003-4.938c0,0-3.704-4.039-7.876-6.513c-4.171,2.474-7.876,6.513-7.876,6.513l2.003,4.938l-2.773,3.07l3.697,3.203l4.949-1.261l4.949,1.261l3.697-3.203L255.873,300.421z"></path><polygon style="fill:#BF0000;" points="242.813,295.688 244.688,300.563 249.938,300.813 249.938,295.125 "></polygon><path style="fill:#FFFFFF;" d="M242.813,295.688c0,0.188,4.438-4.625,7.125-6.063c0,2.438,0,5.5,0,5.5L242.813,295.688z"></path><path style="opacity:0.5;fill:#FFFFFF;" d="M250.188,295.188l-0.063-5.563c0,0,6.188,4.5,7,6.063C254.313,295.125,250.188,295.188,250.188,295.188z"></path><g><polygon style="fill:#BF0000;" points="242.009,303.292 245.056,306.167 249.795,304.991 "></polygon><polygon style="fill:#BF0000;" points="257.99,303.292 254.943,306.167 250.207,304.991 "></polygon></g></g><path style="fill:#6E6E6E;stroke:#000000;stroke-linecap:round;stroke-linejoin:round;" d="M275.653,319.251c0,0.25-5.211,9.167-7.938,10.667c2.005,1.167,8.979-0.25,9.461-1.333C277.738,323.001,275.653,319.251,275.653,319.251z"></path><path style="fill:#505050;" d="M276.743,328.292c0,0-3.837-2.625-4.514-2.75c-1.016,1.375-3.498,4.25-3.498,4.25S274.035,330.167,276.743,328.292z"></path></g><g><g><circle cx="229.5" cy="317.188" r="3.188"></circle><circle style="fill:#FF0000;stroke:#000000;stroke-linecap:round;stroke-linejoin:round;" cx="230.375" cy="317.063" r="2.188"></circle></g><g><circle cx="270.5" cy="317.188" r="3.188"></circle><circle style="fill:#FF0000;stroke:#000000;stroke-linecap:round;stroke-linejoin:round;" cx="269.625" cy="317.063" r="2.188"></circle></g></g><g><g><circle cx="264.188" cy="329.688" r="3.188"></circle><circle style="fill:#FF0000;stroke:#000000;stroke-linecap:round;stroke-linejoin:round;" cx="263.313" cy="329.563" r="2.188"></circle></g><g><circle cx="235.813" cy="329.688" r="3.188"></circle><circle style="fill:#FF0000;stroke:#000000;stroke-linecap:round;stroke-linejoin:round;" cx="236.688" cy="329.563" r="2.188"></circle></g></g><g><circle style="fill:#FF0000;stroke:#000000;stroke-linecap:round;stroke-linejoin:round;" cx="267.125" cy="321.125" r="1.25"></circle><circle style="fill:#FF0000;stroke:#000000;stroke-linecap:round;stroke-linejoin:round;" cx="232.875" cy="321.125" r="1.25"></circle></g><g><g><circle style="fill:#FF0000;stroke:#000000;stroke-linecap:round;stroke-linejoin:round;" cx="263.563" cy="335.375" r="1.25"></circle><circle style="fill:#FF0000;stroke:#000000;stroke-linecap:round;stroke-linejoin:round;" cx="265.563" cy="333.875" r="1.25"></circle><circle style="fill:#FF0000;stroke:#000000;stroke-linecap:round;stroke-linejoin:round;" cx="267.688" cy="332.25" r="1.25"></circle></g><g><circle style="fill:#FF0000;stroke:#000000;stroke-linecap:round;stroke-linejoin:round;" cx="236.438" cy="335.375" r="1.25"></circle><circle style="fill:#FF0000;stroke:#000000;stroke-linecap:round;stroke-linejoin:round;" cx="234.438" cy="333.875" r="1.25"></circle><circle style="fill:#FF0000;stroke:#000000;stroke-linecap:round;stroke-linejoin:round;" cx="232.313" cy="332.25" r="1.25"></circle></g></g></g></svg>