<svg xmlns="http://www.w3.org/2000/svg" width="500" height="500" version="1.1"><g id="x062"><g><g><g><path style="fill:#6E6E6E;stroke:#000000;stroke-linecap:round;stroke-linejoin:round;" d="M220.875,290.5c0,0-4.25,6-5.5,8.25s-19.75,44.75-19.75,44.75c7,3.75,19.75,11.75,19.75,11.75l13.75-59L220.875,290.5z"></path><path style="fill:#505050;" d="M224.375,297.75c0,0-4.25,3.75-4.75,6s-1,10.25,1,13C224.875,310.25,224.375,297.75,224.375,297.75z"></path><path style="fill:none;stroke:#000000;stroke-linecap:round;stroke-linejoin:round;" d="M219.125,301.25c0,0,3.5,7,6,9.5"></path></g><g><path style="fill:#6E6E6E;stroke:#000000;stroke-linecap:round;stroke-linejoin:round;" d="M279.125,290.5c0,0,4.25,6,5.5,8.25s19.75,44.75,19.75,44.75c-7,3.75-19.75,11.75-19.75,11.75l-13.75-59L279.125,290.5z"></path><path style="fill:#505050;" d="M275.625,297.75c0,0,4.25,3.75,4.75,6s1,10.25-1,13C275.125,310.25,275.625,297.75,275.625,297.75z"></path><path style="fill:none;stroke:#000000;stroke-linecap:round;stroke-linejoin:round;" d="M280.875,301.25c0,0-3.5,7-6,9.5"></path></g></g><g><g><path style="fill:#6E6E6E;stroke:#000000;stroke-linecap:round;stroke-linejoin:round;" d="M218.875,384.75c-3.25,0-9.75-2.5-9.75-2.5s15.25-82.25,15.25-84.5c-0.75-2.75-3.5-7.25-3.5-7.25s5.5-6.5,13.25-9.5C232.375,297.5,218.875,384.75,218.875,384.75z"></path><g><path style="fill:#3F3F3F;stroke:#000000;stroke-linecap:round;stroke-linejoin:round;" d="M239.875,279.75c0,0-2.25,3.5-2.25,4.75s-10,97.75-12.25,101.25c-3.25,0.5-6.5-1-6.5-1l13.5-100.5l1.75-3.25L239.875,279.75z"></path><g><path style="fill:#FF57C9;" d="M230.245,312.475c-0.136-0.183-0.229-0.387-0.298-0.6c-0.182-0.589,0.006-1.247,0.346-1.488c0.324-0.247,0.607-0.199,0.78-0.118c0.298,0.073,0.407,0.388,0.528,0.425c0.127-0.035,0.153-0.175,0.424-0.284c0.143-0.056,0.304-0.069,0.479-0.037c0.25,0.042,0.399,0.266,0.463,0.361c0.093,0.157,0.153,0.312,0.188,0.482c0.087,0.57-0.104,0.908-0.201,1.07c-0.1,0.168-0.217,0.303-0.367,0.438c-0.217,0.18-1.021,0.69-1.275,0.671C231.019,313.35,230.384,312.665,230.245,312.475z"></path><path style="fill:#FF57C9;" d="M230.139,314c0.108,0.01,0.301,0.005,0.533,0.001c0.006-0.584,0.854-0.808,1.086-0.214c0.018,0.05,0.038,0.105,0.055,0.169c0.262-0.009,0.486-0.01,0.605,0c0.389,0.035,0.557,0.573,0.11,0.707c-0.14,0.038-0.332,0.086-0.558,0.135c0.021,0.142,0.036,0.289,0.053,0.432c0.111-0.001,0.213,0.006,0.289,0.012c0.431,0.04,0.493,0.677-0.033,0.716c-0.062,0.002-0.127,0.01-0.197,0.018c0.018,0.321,0.021,0.568,0.006,0.649c-0.059,0.289-0.439,0.526-0.66,0.072c-0.058-0.119-0.13-0.324-0.205-0.57c-0.32,0.058-0.629,0.102-0.827,0.085c-0.433-0.04-0.534-0.713,0.046-0.878c0.064-0.012,0.276-0.033,0.539-0.052c-0.027-0.102-0.051-0.201-0.078-0.298c-0.238,0.032-0.477,0.055-0.695,0.066C229.485,315.083,229.439,314.023,230.139,314z"></path><path style="fill:#FF57C9;" d="M230.65,320.195l-0.279-0.965l-0.062-0.006l-0.356,0.016c-0.104-0.024-0.206-0.096-0.273-0.196c-0.081-0.146-0.111-0.286-0.082-0.453c0.029-0.165,0.104-0.296,0.251-0.405l0.225-0.074c-0.012-0.229,0.054-0.423,0.206-0.58c0.114-0.064,0.254-0.085,0.391-0.073c0.088,0.026,0.161,0.063,0.234,0.146c0.074,0.163,0.121,0.333,0.137,0.52l0.24,0.036l0.506,0.032c0.197,0.018,0.375,0.095,0.514,0.23c0.082,0.146,0.098,0.3,0.067,0.467c-0.049,0.229-0.159,0.4-0.341,0.554c-0.085,0.068-0.178,0.074-0.284,0.051c-0.065-0.111-0.102-0.224-0.072-0.359l0.028-0.136l-0.035-0.126l-0.137-0.029l-0.426,0.146l-0.012,0.122l0.028,1.048l-0.136,0.125l-0.217-0.001L230.65,320.195z"></path><path style="fill:#FF57C9;" d="M229.689,321.9c0.824,0.03,2.266,0.346,2.253,0.954c-0.012,0.656-0.704,1.165-1.155,1.343c-0.452,0.176-0.658-0.064-0.422-0.387c0.148-0.204,0.785-0.585,0.553-0.7c-0.208-0.106-0.691,0.107-1.465-0.058C228.729,322.9,229.037,321.884,229.689,321.9z M229.983,320.936c0.138-0.074,1.339,0.122,1.634,0.235s0.313,0.377-0.004,0.522c-0.318,0.146-0.794,0.102-1.57,0.031C229.266,321.654,229.504,320.936,229.983,320.936z"></path><path style="fill:#FF57C9;" d="M228.974,325.82c-0.065-0.115-0.083-0.254-0.054-0.407l0.155-0.2c0.133-0.097,0.288-0.126,0.456-0.097c0.104,0.057,0.172,0.14,0.209,0.251l0.004,0.277c-0.023,0.103-0.094,0.19-0.193,0.257c-0.111,0.065-0.223,0.089-0.346,0.078C229.117,325.957,229.046,325.903,228.974,325.82z M229.977,325.633c-0.069-0.098-0.09-0.208-0.063-0.329c0.021-0.075,0.074-0.146,0.155-0.2c0.099-0.052,0.206-0.072,0.313-0.063l0.188,0.123c0.067,0.101,0.104,0.209,0.095,0.316c-0.023,0.107-0.078,0.179-0.16,0.247c-0.102,0.067-0.208,0.089-0.328,0.061C230.104,325.767,230.027,325.717,229.977,325.633z M230.051,327.177c-0.042-0.051-0.064-0.129-0.043-0.203c0.205-0.214,0.41-0.438,0.599-0.683c0.191-0.229,0.277-0.496,0.292-0.818l-0.005-0.142c0.028-0.103,0.081-0.206,0.163-0.275c0.101-0.067,0.211-0.09,0.346-0.063c0.104,0.028,0.206,0.099,0.273,0.195c0.096,0.147,0.108,0.318,0.063,0.514c-0.069,0.24-0.166,0.46-0.291,0.648c-0.123,0.188-0.295,0.376-0.496,0.538c-0.132,0.098-0.258,0.177-0.389,0.245c-0.128,0.064-0.27,0.099-0.426,0.1L230.051,327.177z"></path><path style="fill:#FF57C9;" d="M231.284,330.137c-0.194,0.494-0.891,0.145-1.298-0.176c-0.052,0.3-0.2,0.525-0.3,0.945c-0.069,0.299-0.585,0.458-0.702,0.066c-0.201-0.67-0.149-1.231-0.145-2.232c0.006-0.99,0.965-1.044,1.303-0.447c0.104,0.328,0.045,0.646-0.025,0.958C231.141,329.519,231.493,329.594,231.284,330.137z"></path><path style="fill:#FF57C9;" d="M228.283,334.059c-0.137-0.183-0.23-0.388-0.298-0.601c-0.183-0.589,0.005-1.247,0.345-1.488c0.324-0.246,0.606-0.199,0.78-0.117c0.299,0.074,0.407,0.389,0.528,0.425c0.127-0.035,0.152-0.175,0.426-0.284c0.142-0.057,0.303-0.07,0.477-0.036c0.25,0.041,0.401,0.265,0.465,0.36c0.091,0.158,0.153,0.313,0.188,0.482c0.086,0.569-0.104,0.907-0.202,1.069c-0.099,0.17-0.217,0.304-0.367,0.438c-0.216,0.181-1.02,0.691-1.276,0.672C229.057,334.933,228.421,334.249,228.283,334.059z"></path></g></g></g><g><path style="fill:#6E6E6E;stroke:#000000;stroke-linecap:round;stroke-linejoin:round;" d="M281.125,384.75c3.25,0,9.75-2.5,9.75-2.5s-15.25-82.25-15.25-84.5c0.75-2.75,3.5-7.25,3.5-7.25s-5.5-6.5-13.25-9.5C267.625,297.5,281.125,384.75,281.125,384.75z"></path><g><path style="fill:#3F3F3F;stroke:#000000;stroke-linecap:round;stroke-linejoin:round;" d="M260.125,279.75c0,0,2.25,3.5,2.25,4.75s10,97.75,12.25,101.25c3.25,0.5,6.5-1,6.5-1l-13.5-100.5l-1.75-3.25L260.125,279.75z"></path><g><path style="fill:#FF57C9;" d="M267.211,312.722c-0.169-0.152-0.3-0.335-0.408-0.53c-0.292-0.543-0.234-1.226,0.053-1.527c0.271-0.305,0.558-0.313,0.743-0.267c0.306,0.015,0.474,0.303,0.6,0.315c0.118-0.059,0.117-0.201,0.361-0.36c0.129-0.082,0.285-0.127,0.464-0.129c0.253-0.007,0.442,0.184,0.523,0.266c0.121,0.136,0.211,0.275,0.278,0.437c0.194,0.543,0.073,0.911,0.009,1.089c-0.065,0.185-0.155,0.339-0.276,0.5c-0.179,0.219-0.868,0.874-1.122,0.904C268.138,313.432,267.384,312.882,267.211,312.722z"></path><path style="fill:#FF57C9;" d="M267.4,314.239c0.107-0.012,0.296-0.053,0.523-0.102c-0.107-0.574,0.682-0.957,1.024-0.419c0.026,0.045,0.058,0.096,0.086,0.155c0.255-0.06,0.476-0.104,0.594-0.117c0.389-0.04,0.657,0.456,0.245,0.673c-0.13,0.064-0.31,0.148-0.521,0.239c0.047,0.136,0.091,0.277,0.135,0.414c0.109-0.022,0.21-0.035,0.286-0.044c0.43-0.044,0.614,0.568,0.104,0.708c-0.06,0.014-0.122,0.034-0.189,0.056c0.079,0.312,0.13,0.554,0.131,0.636c-0.002,0.295-0.33,0.602-0.634,0.198c-0.08-0.105-0.19-0.293-0.312-0.521c-0.303,0.119-0.598,0.222-0.795,0.243c-0.433,0.044-0.662-0.597-0.124-0.87c0.061-0.024,0.265-0.086,0.519-0.155c-0.046-0.094-0.089-0.188-0.134-0.276c-0.228,0.077-0.457,0.146-0.67,0.198C266.968,315.428,266.719,314.396,267.4,314.239z"></path><path style="fill:#FF57C9;" d="M269.096,320.22l-0.46-0.893l-0.062,0.006l-0.347,0.084c-0.106-0.004-0.221-0.054-0.307-0.14c-0.107-0.127-0.164-0.26-0.168-0.429c-0.003-0.168,0.045-0.311,0.169-0.446l0.206-0.116c-0.056-0.223-0.029-0.425,0.09-0.608c0.1-0.086,0.233-0.133,0.369-0.147c0.092,0.009,0.171,0.03,0.259,0.098c0.104,0.146,0.183,0.304,0.233,0.483l0.243-0.011l0.503-0.065c0.196-0.021,0.386,0.021,0.548,0.127c0.109,0.128,0.153,0.275,0.156,0.445c-0.004,0.233-0.079,0.423-0.228,0.608c-0.07,0.084-0.16,0.107-0.27,0.104c-0.086-0.097-0.143-0.199-0.14-0.339l0.001-0.139l-0.059-0.116l-0.14-0.003l-0.39,0.225l0.012,0.122l0.229,1.023l-0.108,0.148l-0.213,0.041L269.096,320.22z"></path><path style="fill:#FF57C9;" d="M268.48,322.078c0.814-0.129,2.29-0.097,2.395,0.503c0.115,0.646-0.466,1.278-0.875,1.54c-0.409,0.259-0.658,0.063-0.488-0.299c0.106-0.229,0.658-0.725,0.407-0.793c-0.225-0.064-0.657,0.238-1.448,0.226C267.73,323.245,267.838,322.188,268.48,322.078z M268.583,321.075c0.121-0.1,1.338-0.139,1.648-0.084c0.312,0.055,0.381,0.31,0.098,0.514c-0.285,0.204-0.76,0.252-1.535,0.333C268.018,321.918,268.113,321.167,268.583,321.075z"></path><path style="fill:#FF57C9;" d="M268.533,326.063c-0.086-0.101-0.13-0.233-0.131-0.389l0.113-0.227c0.112-0.121,0.259-0.18,0.43-0.183c0.112,0.035,0.195,0.104,0.253,0.206l0.058,0.271c-0.004,0.104-0.056,0.204-0.141,0.289c-0.097,0.086-0.201,0.13-0.324,0.143C268.7,326.169,268.62,326.13,268.533,326.063z M269.481,325.686c-0.087-0.082-0.128-0.187-0.125-0.311c0.006-0.078,0.045-0.157,0.114-0.227c0.087-0.07,0.188-0.11,0.295-0.122l0.209,0.085c0.086,0.085,0.143,0.185,0.154,0.292c-0.003,0.109-0.043,0.19-0.11,0.273c-0.086,0.086-0.187,0.127-0.31,0.122C269.632,325.792,269.548,325.758,269.481,325.686z M269.852,327.187c-0.051-0.042-0.088-0.114-0.081-0.191c0.16-0.249,0.317-0.509,0.456-0.785c0.144-0.261,0.176-0.54,0.129-0.859l-0.032-0.138c0.008-0.106,0.04-0.218,0.106-0.302c0.086-0.086,0.19-0.129,0.327-0.129c0.107,0.008,0.222,0.058,0.307,0.139c0.122,0.127,0.167,0.292,0.16,0.492c-0.022,0.249-0.074,0.483-0.161,0.692c-0.085,0.208-0.217,0.426-0.383,0.624c-0.11,0.121-0.219,0.223-0.334,0.315c-0.113,0.088-0.246,0.148-0.399,0.18L269.852,327.187z"></path><path style="fill:#FF57C9;" d="M271.632,329.854c-0.096,0.522-0.846,0.313-1.308,0.077c0.007,0.305-0.095,0.554-0.111,0.985c-0.011,0.307-0.486,0.563-0.677,0.2c-0.326-0.618-0.384-1.18-0.571-2.162c-0.186-0.974,0.745-1.211,1.191-0.69c0.165,0.303,0.169,0.625,0.16,0.945C271.372,329.274,271.732,329.28,271.632,329.854z"></path><path style="fill:#FF57C9;" d="M269.442,334.279c-0.169-0.152-0.301-0.336-0.408-0.531c-0.292-0.543-0.235-1.225,0.052-1.527c0.271-0.304,0.557-0.313,0.743-0.265c0.308,0.015,0.475,0.303,0.601,0.314c0.117-0.059,0.115-0.2,0.363-0.36c0.128-0.083,0.283-0.128,0.46-0.128c0.254-0.008,0.445,0.183,0.526,0.265c0.119,0.138,0.21,0.277,0.277,0.437c0.194,0.543,0.072,0.911,0.008,1.089c-0.064,0.186-0.154,0.34-0.276,0.5c-0.177,0.219-0.867,0.875-1.123,0.905C270.37,334.988,269.614,334.44,269.442,334.279z"></path></g></g></g></g></g></g></svg>