<svg xmlns="http://www.w3.org/2000/svg" width="500" height="500" version="1.1"><g id="x063"><g><g><g><path style="fill:#6E6E6E;stroke:#000000;stroke-linecap:round;stroke-linejoin:round;" d="M216.172,299.25c0,0-20,42-21.5,46c6.25,4.75,12,6.5,15.75,10s9.75,3.75,9.75,3.75l10.25-60.5L216.172,299.25z"></path><path style="fill:#505050;" d="M224.297,297.75c0,0-4.25,3.75-4.75,6s-1,10.25,1,13C224.797,310.25,224.297,297.75,224.297,297.75z"></path><path style="fill:none;stroke:#000000;stroke-linecap:round;stroke-linejoin:round;" d="M219.047,301.25c0,0,3.5,7,6,9.5"></path></g><g><path style="fill:#6E6E6E;stroke:#000000;stroke-linecap:round;stroke-linejoin:round;" d="M283.828,299.25c0,0,20,42,21.5,46c-6.25,4.75-12,6.5-15.75,10s-9.75,3.75-9.75,3.75l-10.25-60.5L283.828,299.25z"></path><path style="fill:#505050;" d="M275.703,297.75c0,0,4.25,3.75,4.75,6s1,10.25-1,13C275.203,310.25,275.703,297.75,275.703,297.75z"></path><path style="fill:none;stroke:#000000;stroke-linecap:round;stroke-linejoin:round;" d="M280.953,301.25c0,0-3.5,7-6,9.5"></path></g></g><g><g><path style="fill:#6E6E6E;stroke:#000000;stroke-linecap:round;stroke-linejoin:round;" d="M249.703,303.602c-0.188,0.185,0.233,24.227-1.578,48.898c-2.09,28.475-2.866,58.116-3,58.25c-0.25,0.25-17.328,3.75-22.578,3.5s-8.5-2-8.5-2v-2.75c0,0-6.25,0-7.5-1c0.25-7,10.75-70,12.5-80.75c1.5-16.75,3.25-28.75,3.25-28.75L249.703,303.602z"></path><path style="fill:#6E6E6E;stroke:#000000;stroke-linecap:round;stroke-linejoin:round;" d="M250.297,303.602c0.188,0.185-0.232,24.227,1.578,48.898c2.09,28.475,2.866,58.116,3,58.25c0.25,0.25,17.328,3.75,22.578,3.5s8.5-2,8.5-2v-2.75c0,0,6.25,0,7.5-1c-0.25-7-10.75-70-12.5-80.75c-1.5-16.75-3.25-28.75-3.25-28.75L250.297,303.602z"></path></g><g><g><g><path style="fill:#6E6E6E;stroke:#000000;stroke-linecap:round;stroke-linejoin:round;" d="M249.844,303.602c0,0-8.594-10.148-13.851-17.648c-0.224-0.67-0.224-3.797-0.224-5.808c-6.352,2.499-12.5,7.559-15.192,10.499c-1.787,2.233-5.361,8.937-5.361,8.937L249.844,303.602z"></path><path style="fill:#FFFFFF;stroke:#000000;stroke-linecap:round;stroke-linejoin:round;" d="M222.588,289.081l0.224,3.128c0,0,14.968,3.127,21.223,3.798c3.575,3.798,5.809,7.595,5.809,7.595s-32.169-3.128-34.627-4.021C216.558,295.336,219.461,290.422,222.588,289.081z"></path></g><g><path style="fill:#6E6E6E;stroke:#000000;stroke-linecap:round;stroke-linejoin:round;" d="M250.156,303.602c0,0,8.594-10.148,13.851-17.648c0.224-0.67,0.224-3.797,0.224-5.808c6.353,2.499,12.5,7.559,15.19,10.499c1.787,2.233,5.362,8.937,5.362,8.937L250.156,303.602z"></path><path style="fill:#FFFFFF;stroke:#000000;stroke-linecap:round;stroke-linejoin:round;" d="M277.411,289.081l-0.223,3.128c0,0-14.969,3.127-21.224,3.798c-3.574,3.798-5.809,7.595-5.809,7.595s32.17-3.128,34.627-4.021C283.442,295.336,280.539,290.422,277.411,289.081z"></path></g></g></g></g></g></g></svg>