<svg xmlns="http://www.w3.org/2000/svg" width="500" height="500" version="1.1"><g id="x064"><g><g><g><g><path style="fill:#505050;stroke:#000000;stroke-linecap:round;stroke-linejoin:round;" d="M202.422,356.75c0,0-5.5,19-5.25,20.75c3,0,7.75,1.5,7.75,1.5l-5,24.5l8-1.25l9-42.5C216.922,359.75,205.172,355.75,202.422,356.75z"></path><line style="fill:none;stroke:#000000;stroke-linecap:round;stroke-linejoin:round;" x1="204.922" y1="379" x2="207.472" y2="366.5"></line></g><g><path style="fill:#6E6E6E;stroke:#000000;stroke-linecap:round;stroke-linejoin:round;" d="M230.344,298.5l-14.25,0.75c0,0-4.263,9.308-9.214,20.177c6.243,2.747,13.034,4.05,19.778,5.594L230.344,298.5z"></path><path style="fill:#323232;stroke:#000000;stroke-linecap:round;stroke-linejoin:round;" d="M206.88,319.427c-6.467,14.197-14.108,31.058-14.958,33.323c6.75,6,14.25,4,18,7.5s11.25,4.25,11.25,4.25l5.486-39.479C219.914,323.477,213.123,322.174,206.88,319.427z"></path><path style="fill:#505050;" d="M224.219,297.75c0,0-4.25,3.75-4.75,6s-1,10.25,1,13C224.719,310.25,224.219,297.75,224.219,297.75z"></path><path style="fill:none;stroke:#000000;stroke-linecap:round;stroke-linejoin:round;" d="M218.969,301.25c0,0,3.5,7,6,9.5"></path></g></g><g><g><path style="fill:#505050;stroke:#000000;stroke-linecap:round;stroke-linejoin:round;" d="M297.58,356.75c0,0,5.5,19,5.25,20.75c-3,0-7.75,1.5-7.75,1.5l5,24.5l-8-1.25l-9-42.5C283.08,359.75,294.83,355.75,297.58,356.75z"></path><line style="fill:none;stroke:#000000;stroke-linecap:round;stroke-linejoin:round;" x1="295.08" y1="379" x2="292.529" y2="366.5"></line></g><g><path style="fill:#6E6E6E;stroke:#000000;stroke-linecap:round;stroke-linejoin:round;" d="M269.658,298.5l14.25,0.75c0,0,4.264,9.308,9.214,20.177c-6.243,2.747-13.034,4.05-19.778,5.594L269.658,298.5z"></path><path style="fill:#323232;stroke:#000000;stroke-linecap:round;stroke-linejoin:round;" d="M293.122,319.427c6.468,14.197,14.108,31.058,14.958,33.323c-6.75,6-14.25,4-18,7.5s-11.25,4.25-11.25,4.25l-5.486-39.479C280.088,323.477,286.879,322.174,293.122,319.427z"></path><path style="fill:#505050;" d="M275.783,297.75c0,0,4.25,3.75,4.75,6s1,10.25-1,13C275.283,310.25,275.783,297.75,275.783,297.75z"></path><path style="fill:none;stroke:#000000;stroke-linecap:round;stroke-linejoin:round;" d="M281.033,301.25c0,0-3.5,7-6,9.5"></path></g></g></g><g><g><g><path style="fill:#6E6E6E;stroke:#000000;stroke-linecap:round;stroke-linejoin:round;" d="M249.625,303.602c-0.188,0.185,0.233,24.227-1.578,48.898c-2.09,28.475-2.866,58.116-3,58.25c-0.25,0.25-17.328,3.75-22.578,3.5s-8.5-2-8.5-2v-2.75c0,0-6.25,0-7.5-1c0.25-7,10.75-70,12.5-80.75c1.5-16.75,3.25-28.75,3.25-28.75L249.625,303.602z"></path><path style="fill:#323232;stroke:#000000;stroke-linecap:round;stroke-linejoin:round;" d="M250.078,303.602l-4.406,107.148c0,0-11.25,3.25-12.75,3c1.75-10.5,7.75-112,7.75-112L250.078,303.602z"></path></g><g><path style="fill:#6E6E6E;stroke:#000000;stroke-linecap:round;stroke-linejoin:round;" d="M250.375,303.602c0.189,0.185-0.232,24.227,1.581,48.898c2.09,28.475,2.866,58.116,3,58.25c0.25,0.25,17.328,3.75,22.578,3.5s8.5-2,8.5-2v-2.75c0,0,6.25,0,7.5-1c-0.25-7-10.75-70-12.5-80.75c-1.5-16.75-3.25-28.75-3.25-28.75L250.375,303.602z"></path><path style="fill:#323232;stroke:#000000;stroke-linecap:round;stroke-linejoin:round;" d="M249.921,303.602l4.409,107.148c0,0,11.25,3.25,12.75,3c-1.75-10.5-7.75-112-7.75-112L249.921,303.602z"></path></g></g><g><g><g><path style="fill:#6E6E6E;stroke:#000000;stroke-linecap:round;stroke-linejoin:round;" d="M249.844,303.602c0,0-8.594-10.148-13.851-17.648c-0.224-0.67-0.224-3.797-0.224-5.808c-6.352,2.499-12.5,7.559-15.192,10.499c-1.787,2.233-5.361,8.937-5.361,8.937L249.844,303.602z"></path><path style="fill:#FFFFFF;stroke:#000000;stroke-linecap:round;stroke-linejoin:round;" d="M222.588,289.081l0.224,3.128c0,0,14.968,3.127,21.223,3.798c3.575,3.798,5.809,7.595,5.809,7.595s-32.169-3.128-34.627-4.021C216.558,295.336,219.461,290.422,222.588,289.081z"></path></g><g><path style="fill:#6E6E6E;stroke:#000000;stroke-linecap:round;stroke-linejoin:round;" d="M250.156,303.602c0,0,8.594-10.148,13.851-17.648c0.224-0.67,0.224-3.797,0.224-5.808c6.353,2.499,12.5,7.559,15.19,10.499c1.787,2.233,5.362,8.937,5.362,8.937L250.156,303.602z"></path><path style="fill:#FFFFFF;stroke:#000000;stroke-linecap:round;stroke-linejoin:round;" d="M277.411,289.081l-0.223,3.128c0,0-14.969,3.127-21.224,3.798c-3.574,3.798-5.809,7.595-5.809,7.595s32.17-3.128,34.627-4.021C283.442,295.336,280.539,290.422,277.411,289.081z"></path></g></g></g></g></g></g></svg>