<svg xmlns="http://www.w3.org/2000/svg" width="500" height="500" version="1.1"><g id="x065"><g><g><g><path style="fill:#141414;stroke:#000000;stroke-linecap:round;stroke-linejoin:round;" d="M209.703,357.75l-7,24.75c0,0,3.5,2.5,9.75,1.75c3.75-15.75,5.75-25.25,5.75-25.25L209.703,357.75z"></path><g><g><path style="fill:#323232;stroke:#000000;stroke-linecap:round;stroke-linejoin:round;" d="M216.375,299.25c0,0-22.672,47.25-24.172,51.25c7,4.75,11.5,6.5,15.25,10s13,3.5,13,3.5l10.172-65.5L216.375,299.25z"></path><path style="fill:#141414;" d="M224.5,297.75c0,0-4.25,3.75-4.75,6s-1,10.25,1,13C225,310.25,224.5,297.75,224.5,297.75z"></path><path style="fill:none;stroke:#000000;stroke-linecap:round;stroke-linejoin:round;" d="M219.25,301.25c0,0,3.5,7,6,9.5"></path></g><g><path style="fill:#6E6E6E;stroke:#000000;stroke-linecap:round;stroke-linejoin:round;" d="M212.473,305.604c0,0-4.667,7.717-3.797,8.257s8.226,4.623,9.36,4.06c1.133-0.563,3.865-2.245,4.09-3.191c0.225-0.945-0.565-4.631-1.202-5.448C220.287,308.463,212.473,305.604,212.473,305.604z"></path><path style="fill:#6E6E6E;stroke:#000000;stroke-linecap:round;stroke-linejoin:round;" d="M206.723,317.854c0,0-4.667,7.717-3.797,8.257s8.226,4.623,9.36,4.06c1.133-0.563,3.865-2.245,4.09-3.191c0.225-0.945-0.565-4.631-1.202-5.448C214.537,320.713,206.723,317.854,206.723,317.854z"></path><path style="fill:#6E6E6E;stroke:#000000;stroke-linecap:round;stroke-linejoin:round;" d="M200.973,330.104c0,0-4.667,7.717-3.797,8.257s8.226,4.623,9.36,4.06c1.133-0.563,3.865-2.245,4.09-3.191c0.225-0.945-0.565-4.631-1.202-5.448C208.787,332.963,200.973,330.104,200.973,330.104z"></path></g></g></g><g><path style="fill:#141414;stroke:#000000;stroke-linecap:round;stroke-linejoin:round;" d="M290.297,357.75l7,24.75c0,0-3.5,2.5-9.75,1.75c-3.75-15.75-5.75-25.25-5.75-25.25L290.297,357.75z"></path><g><g><path style="fill:#323232;stroke:#000000;stroke-linecap:round;stroke-linejoin:round;" d="M283.625,299.25c0,0,22.672,47.25,24.172,51.25c-7,4.75-11.5,6.5-15.25,10s-13,3.5-13,3.5l-10.172-65.5L283.625,299.25z"></path><path style="fill:#141414;" d="M275.5,297.75c0,0,4.25,3.75,4.75,6s1,10.25-1,13C275,310.25,275.5,297.75,275.5,297.75z"></path><path style="fill:none;stroke:#000000;stroke-linecap:round;stroke-linejoin:round;" d="M280.75,301.25c0,0-3.5,7-6,9.5"></path></g><g><path style="fill:#6E6E6E;stroke:#000000;stroke-linecap:round;stroke-linejoin:round;" d="M287.527,305.604c0,0,4.667,7.717,3.797,8.257c-0.871,0.54-8.227,4.623-9.36,4.06c-1.133-0.563-3.865-2.245-4.091-3.191c-0.225-0.945,0.565-4.631,1.203-5.448C279.713,308.463,287.527,305.604,287.527,305.604z"></path><path style="fill:#6E6E6E;stroke:#000000;stroke-linecap:round;stroke-linejoin:round;" d="M293.277,317.854c0,0,4.667,7.717,3.797,8.257c-0.871,0.54-8.227,4.623-9.36,4.06c-1.133-0.563-3.865-2.245-4.091-3.191c-0.225-0.945,0.565-4.631,1.203-5.448C285.463,320.713,293.277,317.854,293.277,317.854z"></path><path style="fill:#6E6E6E;stroke:#000000;stroke-linecap:round;stroke-linejoin:round;" d="M299.027,330.104c0,0,4.667,7.717,3.797,8.257c-0.871,0.54-8.227,4.623-9.36,4.06c-1.133-0.563-3.865-2.245-4.091-3.191c-0.225-0.945,0.565-4.631,1.203-5.448C291.213,332.963,299.027,330.104,299.027,330.104z"></path></g></g></g></g><g><g><g><path style="fill:#323232;stroke:#000000;stroke-linecap:round;stroke-linejoin:round;" d="M249.906,303.602c-0.188,0.185,0.233,24.227-1.578,48.898c-2.09,28.475-2.866,58.116-3,58.25c-0.25,0.25-17.328,3.75-22.578,3.5s-8.5-2-8.5-2v-2.75c0,0-6.25,0-7.5-1c0.25-7,10.75-70,12.5-80.75C220.75,311,222.5,299,222.5,299L249.906,303.602z"></path><path style="fill:#6E6E6E;stroke:#000000;stroke-linecap:round;stroke-linejoin:round;" d="M250.047,303.602L245.953,410.5c0,0-10.25,4-13.25,3.5c0.75-18.25,6.75-111.75,6.75-111.75L250.047,303.602z"></path></g><g><path style="fill:#323232;stroke:#000000;stroke-linecap:round;stroke-linejoin:round;" d="M250.094,303.602c0.188,0.185-0.232,24.227,1.578,48.898c2.09,28.475,2.866,58.116,3,58.25c0.25,0.25,17.328,3.75,22.578,3.5s8.5-2,8.5-2v-2.75c0,0,6.25,0,7.5-1c-0.25-7-10.75-70-12.5-80.75C279.25,311,277.5,299,277.5,299L250.094,303.602z"></path><path style="fill:#6E6E6E;stroke:#000000;stroke-linecap:round;stroke-linejoin:round;" d="M249.953,303.602l4.094,106.898c0,0,10.25,4,13.25,3.5c-0.75-18.25-6.75-111.75-6.75-111.75L249.953,303.602z"></path></g></g><g><g><g><path style="fill:#6E6E6E;stroke:#000000;stroke-linecap:round;stroke-linejoin:round;" d="M249.844,303.602c0,0-8.594-10.148-13.851-17.648c-0.224-0.67-0.224-3.797-0.224-5.808c-6.352,2.499-12.5,7.559-15.192,10.499c-1.787,2.233-5.361,8.937-5.361,8.937L249.844,303.602z"></path><path style="fill:#FFFFFF;stroke:#000000;stroke-linecap:round;stroke-linejoin:round;" d="M222.588,289.081l0.224,3.128c0,0,14.968,3.127,21.223,3.798c3.575,3.798,5.809,7.595,5.809,7.595s-32.169-3.128-34.627-4.021C216.558,295.336,219.461,290.422,222.588,289.081z"></path></g><g><path style="fill:#6E6E6E;stroke:#000000;stroke-linecap:round;stroke-linejoin:round;" d="M250.156,303.602c0,0,8.594-10.148,13.851-17.648c0.224-0.67,0.224-3.797,0.224-5.808c6.353,2.499,12.5,7.559,15.19,10.499c1.787,2.233,5.362,8.937,5.362,8.937L250.156,303.602z"></path><path style="fill:#FFFFFF;stroke:#000000;stroke-linecap:round;stroke-linejoin:round;" d="M277.411,289.081l-0.223,3.128c0,0-14.969,3.127-21.224,3.798c-3.574,3.798-5.809,7.595-5.809,7.595s32.17-3.128,34.627-4.021C283.442,295.336,280.539,290.422,277.411,289.081z"></path></g></g></g></g></g></g></svg>