<svg xmlns="http://www.w3.org/2000/svg" width="500" height="500" version="1.1"><g id="x066"><g><g><path style="fill:#6E6E6E;stroke:#000000;stroke-linecap:round;stroke-linejoin:round;" d="M222.823,288.5c0,0-7.5,8.25-12,17.5c-2.75,6.25-17.5,39.5-16.5,41c3.5,4,23,9.5,23,9.5l10.25-33.75L222.823,288.5z"></path><g><circle style="fill:#FFFFFF;" cx="204.14" cy="340.565" r="2.026"></circle><g><circle style="fill:#FFFFFF;" cx="203.755" cy="336.108" r="1.134"></circle><circle style="fill:#FFFFFF;" cx="207.282" cy="337.323" r="1.134"></circle><circle style="fill:#FFFFFF;" cx="208.531" cy="340.634" r="1.134"></circle></g></g><g><circle style="fill:#FFFFFF;" cx="217.107" cy="309.245" r="2.026"></circle><g><circle style="fill:#FFFFFF;" cx="212.698" cy="310.007" r="1.134"></circle><circle style="fill:#FFFFFF;" cx="213.609" cy="306.39" r="1.134"></circle><circle style="fill:#FFFFFF;" cx="216.802" cy="304.864" r="1.134"></circle></g></g><path style="fill:#323232;stroke:#000000;stroke-linecap:round;stroke-linejoin:round;" d="M194.823,344.5c0,0-2.75,5.75-2,7.25s14,7.25,20.5,7.5c2.25-7,2.25-7,2.25-7L194.823,344.5z"></path><path style="fill:#505050;" d="M220.073,308c0,0-3.75,7.25-4,11.25s3,13.25,3,13.25s4.5-3,5.5-6.75S220.073,308,220.073,308z"></path><path style="fill:none;stroke:#000000;stroke-linecap:round;stroke-linejoin:round;" d="M216.073,316.75c0,0,2,4,6,7.5"></path></g><g><path style="fill:#6E6E6E;stroke:#000000;stroke-linecap:round;stroke-linejoin:round;" d="M277.179,288.5c0,0,7.5,8.25,12,17.5c2.75,6.25,17.5,39.5,16.5,41c-3.5,4-23,9.5-23,9.5l-10.25-33.75L277.179,288.5z"></path><g><circle style="fill:#FFFFFF;" cx="295.861" cy="340.565" r="2.026"></circle><g><circle style="fill:#FFFFFF;" cx="296.247" cy="336.108" r="1.134"></circle><circle style="fill:#FFFFFF;" cx="292.719" cy="337.323" r="1.134"></circle><circle style="fill:#FFFFFF;" cx="291.47" cy="340.634" r="1.134"></circle></g></g><g><circle style="fill:#FFFFFF;" cx="282.895" cy="309.245" r="2.026"></circle><g><circle style="fill:#FFFFFF;" cx="287.304" cy="310.007" r="1.134"></circle><circle style="fill:#FFFFFF;" cx="286.393" cy="306.39" r="1.134"></circle><circle style="fill:#FFFFFF;" cx="283.199" cy="304.864" r="1.134"></circle></g></g><path style="fill:#323232;stroke:#000000;stroke-linecap:round;stroke-linejoin:round;" d="M305.179,344.5c0,0,2.75,5.75,2,7.25s-14,7.25-20.5,7.5c-2.25-7-2.25-7-2.25-7L305.179,344.5z"></path><path style="fill:#505050;" d="M279.929,308c0,0,3.75,7.25,4,11.25s-3,13.25-3,13.25s-4.5-3-5.5-6.75S279.929,308,279.929,308z"></path><path style="fill:none;stroke:#000000;stroke-linecap:round;stroke-linejoin:round;" d="M283.929,316.75c0,0-2,4-6,7.5"></path></g></g><g><g><g><g><path style="fill:#6E6E6E;stroke:#000000;stroke-linecap:round;stroke-linejoin:round;" d="M235.323,280.75c0,0-7,2.75-12.75,8c-1.75,15-3.5,41-3.5,41s-7,23.5-8.25,47.25c7.75,3,21.25,1.5,21.25,1.5s6.75-67.25,6.75-68S235.323,280.75,235.323,280.75z"></path><g><circle style="fill:#FFFFFF;" cx="223.667" cy="370.742" r="2.025"></circle><g><circle style="fill:#FFFFFF;" cx="222.59" cy="366.399" r="1.135"></circle><circle style="fill:#FFFFFF;" cx="226.264" cy="367.048" r="1.135"></circle><circle style="fill:#FFFFFF;" cx="228.015" cy="370.123" r="1.134"></circle></g></g><g><circle style="fill:#FFFFFF;" cx="227.756" cy="339.714" r="2.026"></circle><g><circle style="fill:#FFFFFF;" cx="223.483" cy="338.382" r="1.135"></circle><circle style="fill:#FFFFFF;" cx="225.944" cy="335.578" r="1.135"></circle><circle style="fill:#FFFFFF;" cx="229.482" cy="335.677" r="1.134"></circle></g></g><g><circle style="fill:#FFFFFF;" cx="227.588" cy="304.053" r="2.025"></circle><g><circle style="fill:#FFFFFF;" cx="224.905" cy="300.472" r="1.134"></circle><circle style="fill:#FFFFFF;" cx="228.542" cy="299.639" r="1.134"></circle><circle style="fill:#FFFFFF;" cx="231.352" cy="301.79" r="1.134"></circle></g></g></g><path style="fill:#323232;stroke:#000000;stroke-linecap:round;stroke-linejoin:round;" d="M232.573,282.5c0,0,5.25-5.25,7-4.75c0.75,3.5,2.25,37.25,2.75,43s-4.75,62.75-6.25,64.75s-26.25-1.25-26.75-2.25c-0.5-1.75,0.75-6.75,0.75-6.75l20.25,2.25c0,0,5.25-54.75,5-56.5S232.573,282.5,232.573,282.5z"></path></g><g><g><path style="fill:#6E6E6E;stroke:#000000;stroke-linecap:round;stroke-linejoin:round;" d="M264.679,280.75c0,0,7,2.75,12.75,8c1.75,15,3.5,41,3.5,41s7,23.5,8.25,47.25c-7.75,3-21.25,1.5-21.25,1.5s-6.75-67.25-6.75-68S264.679,280.75,264.679,280.75z"></path><g><circle style="fill:#FFFFFF;" cx="276.334" cy="370.742" r="2.025"></circle><g><circle style="fill:#FFFFFF;" cx="277.411" cy="366.399" r="1.135"></circle><circle style="fill:#FFFFFF;" cx="273.737" cy="367.048" r="1.135"></circle><circle style="fill:#FFFFFF;" cx="271.987" cy="370.123" r="1.134"></circle></g></g><g><circle style="fill:#FFFFFF;" cx="272.246" cy="339.714" r="2.026"></circle><g><circle style="fill:#FFFFFF;" cx="276.518" cy="338.382" r="1.135"></circle><circle style="fill:#FFFFFF;" cx="274.057" cy="335.578" r="1.135"></circle><circle style="fill:#FFFFFF;" cx="270.52" cy="335.677" r="1.134"></circle></g></g><g><circle style="fill:#FFFFFF;" cx="272.413" cy="304.053" r="2.025"></circle><g><circle style="fill:#FFFFFF;" cx="275.096" cy="300.472" r="1.134"></circle><circle style="fill:#FFFFFF;" cx="271.46" cy="299.639" r="1.134"></circle><circle style="fill:#FFFFFF;" cx="268.649" cy="301.79" r="1.134"></circle></g></g></g><path style="fill:#323232;stroke:#000000;stroke-linecap:round;stroke-linejoin:round;" d="M267.429,282.5c0,0-5.25-5.25-7-4.75c-0.75,3.5-2.25,37.25-2.75,43s4.75,62.75,6.25,64.75s26.25-1.25,26.75-2.25c0.5-1.75-0.75-6.75-0.75-6.75l-20.25,2.25c0,0-5.25-54.75-5-56.5S267.429,282.5,267.429,282.5z"></path></g></g><g><path style="fill:#6E6E6E;stroke:#000000;stroke-linecap:round;stroke-linejoin:round;" d="M249.781,337.253c0,0-10.572,10.451-11.181,10.208c-0.607-0.243-3.281-3.16-2.673-4.132c0.607-0.973,10.208-7.17,11.545-7.899C248.808,334.7,249.781,337.253,249.781,337.253z"></path><path style="fill:#6E6E6E;stroke:#000000;stroke-linecap:round;stroke-linejoin:round;" d="M250.218,337.253c0,0,10.574,10.451,11.181,10.208s3.281-3.16,2.674-4.132c-0.608-0.973-10.208-7.17-11.545-7.899S250.218,337.253,250.218,337.253z"></path><g><path style="fill:#6E6E6E;stroke:#000000;stroke-linecap:round;stroke-linejoin:round;" d="M237.993,332.027c-0.484,0.032-0.729,3.889-0.243,4.739s10.451,1.458,12.031,1.094c0.364-1.944,0-3.889,0-3.889S239.816,331.905,237.993,332.027z"></path><path style="fill:#6E6E6E;stroke:#000000;stroke-linecap:round;stroke-linejoin:round;" d="M262.007,332.027c0.485,0.032,0.729,3.889,0.243,4.739s-10.451,1.458-12.032,1.094c-0.364-1.944,0-3.889,0-3.889S260.184,331.905,262.007,332.027z"></path></g><path style="fill:#6E6E6E;stroke:#000000;stroke-linecap:round;stroke-linejoin:round;" d="M248.444,333.729c0,0-0.486,3.402,0.364,4.011c0.852,0.607,3.282,0.364,3.282-0.243c0-0.608,0-3.768-0.485-4.132C251.118,332.999,249.051,333.485,248.444,333.729z"></path></g></g></g></svg>