<svg xmlns="http://www.w3.org/2000/svg" width="500" height="500" version="1.1"><g id="x067"><g><g><g><g><path style="fill:#6E6E6E;stroke:#000000;stroke-linecap:round;stroke-linejoin:round;" d="M242.776,345.75c0,0-6.75,26.75-8.5,27.25c-7.75,1.75-23.5-3-25.25-5c0-4.25,3-8,3-8s3.5-14.25,7.75-19.25C229.026,344.5,242.776,345.75,242.776,345.75z"></path><path style="fill:#505050;" d="M222,340.75c0,0,6,9.25,14.25,11c6-4.5,6.75-6.5,6.75-6.5L222,340.75z"></path><g><polygon style="fill:none;stroke:#FFFFFF;stroke-linecap:round;stroke-linejoin:round;" points="214.841,353.693 220.66,348.509 223.318,355.604 216.511,361.708 "></polygon><polygon style="fill:none;stroke:#FFFFFF;stroke-linecap:round;stroke-linejoin:round;" points="223.234,355.666 229.054,350.482 231.713,357.578 224.903,363.681 "></polygon></g></g><path style="fill:#323232;stroke:#000000;stroke-linecap:round;stroke-linejoin:round;" d="M249.526,345.75c0,0-13,27.25-15,28s-8.25,0.5-8-0.25c1.25-4.25,15.5-29.5,15.5-29.5L249.526,345.75z"></path></g><g><path style="fill:#6E6E6E;stroke:#000000;stroke-linecap:round;stroke-linejoin:round;" d="M239.776,278.75c0,0-15.75,5-19.75,10c-5,9.5-10,23.5-10,23.5s-3.5,1.75-3.75,3s0,5,0,5s-3.25,5.5-2.75,5.75s9,8.25,18.75,9C230.526,313.5,239.776,278.75,239.776,278.75z"></path><path style="fill:#505050;" d="M225.776,300.5c0,0-5.25,4.25-6.25,9.5s3,10.25,3,10.25S223.026,307.25,225.776,300.5z"></path><path style="fill:#6E6E6E;stroke:#000000;stroke-linecap:round;stroke-linejoin:round;" d="M240.026,278.75l-1.5,4.75l1.5,10.75c0,0-2,19-1.75,22.75s2,12.25,6.25,22c-11.25,0.5-24.5-3-24.5-3s-1.95-4-1.95-5.25s4.7-5.5,4.7-5.5s0.25-11,0.75-15.5s4.25-14,4.25-14"></path><path style="fill:#323232;stroke:#000000;stroke-linecap:round;stroke-linejoin:round;" d="M249.526,339c0,0-11-15.75-11.5-20.5s2-24.25,2-24.25s-2.25-9.75-1.5-10.75l2.25-5.75l-7.75,3c0,0-1.5,3.25-1.5,4.25s1.75,10.75,1.75,10.75s-2.75,19-2.25,23.5s8.75,18.25,10.5,19.5C245.776,339.75,249.526,339,249.526,339z"></path></g><g><g><path style="fill:#6E6E6E;stroke:#000000;stroke-linecap:round;stroke-linejoin:round;" d="M257.224,345.75c0,0,6.75,26.75,8.5,27.25c7.75,1.75,23.5-3,25.25-5c0-4.25-3-8-3-8s-3.5-14.25-7.75-19.25C270.974,344.5,257.224,345.75,257.224,345.75z"></path><path style="fill:#505050;" d="M278,340.75c0,0-6,9.25-14.25,11c-6-4.5-6.75-6.5-6.75-6.5L278,340.75z"></path><g><polygon style="fill:none;stroke:#FFFFFF;stroke-linecap:round;stroke-linejoin:round;" points="285.159,353.693 279.34,348.509 276.682,355.604 283.489,361.708 "></polygon><polygon style="fill:none;stroke:#FFFFFF;stroke-linecap:round;stroke-linejoin:round;" points="276.766,355.666 270.946,350.482 268.287,357.578 275.097,363.681 "></polygon></g></g><path style="fill:#323232;stroke:#000000;stroke-linecap:round;stroke-linejoin:round;" d="M250.474,345.75c0,0,13,27.25,15,28s8.25,0.5,8-0.25c-1.25-4.25-15.5-29.5-15.5-29.5L250.474,345.75z"></path></g><g><path style="fill:#6E6E6E;stroke:#000000;stroke-linecap:round;stroke-linejoin:round;" d="M260.224,278.75c0,0,15.75,5,19.75,10c5,9.5,10,23.5,10,23.5s3.5,1.75,3.75,3s0,5,0,5s3.25,5.5,2.75,5.75s-9,8.25-18.75,9C269.474,313.5,260.224,278.75,260.224,278.75z"></path><path style="fill:#505050;" d="M274.224,300.5c0,0,5.25,4.25,6.25,9.5s-3,10.25-3,10.25S276.974,307.25,274.224,300.5z"></path><path style="fill:#6E6E6E;stroke:#000000;stroke-linecap:round;stroke-linejoin:round;" d="M259.974,278.75l1.5,4.75l-1.5,10.75c0,0,2,19,1.75,22.75s-2,12.25-6.25,22c11.25,0.5,24.5-3,24.5-3s1.949-4,1.949-5.25s-4.699-5.5-4.699-5.5s-0.25-11-0.75-15.5s-4.25-14-4.25-14"></path><path style="fill:#323232;stroke:#000000;stroke-linecap:round;stroke-linejoin:round;" d="M250.474,339c0,0,11-15.75,11.5-20.5s-2-24.25-2-24.25s2.25-9.75,1.5-10.75l-2.25-5.75l7.75,3c0,0,1.5,3.25,1.5,4.25s-1.75,10.75-1.75,10.75s2.75,19,2.25,23.5s-8.75,18.25-10.5,19.5C254.224,339.75,250.474,339,250.474,339z"></path></g></g><g><path style="fill:#FFFFFF;stroke:#000000;stroke-linecap:round;stroke-linejoin:round;" d="M279.539,333.75c-5.043,2.75-17.291,5-29.539,5s-24.496-2.25-29.54-5c0,0-1.201,5.25-0.48,6.75c3.362,2.25,16.571,6.25,30.02,6.25c13.449,0,26.657-4,30.02-6.25C280.74,339,279.539,333.75,279.539,333.75z"></path><g><path style="fill:#FFFFFF;stroke:#000000;stroke-linecap:round;stroke-linejoin:round;" d="M253.188,344.918c0,0,12.152,8.021,14.34,6.806c2.188-1.216,2.674-7.292,2.674-7.292s-14.826-5.347-16.771-4.86C252.944,342.001,253.188,344.918,253.188,344.918z"></path><path style="fill:#FFFFFF;stroke:#000000;stroke-linecap:round;stroke-linejoin:round;" d="M246.382,346.133c0,0-8.75,6.319-10.694,5.834c-1.944-0.486-3.889-7.049-3.889-7.049s9.235-3.889,13.854-3.889C246.868,344.432,246.382,346.133,246.382,346.133z"></path><g><path style="fill:#FFFFFF;stroke:#000000;stroke-linecap:round;stroke-linejoin:round;" d="M246.382,347.835c0,0-3.16-5.104-2.674-7.049s1.944-2.674,1.944-2.674l2.674,0.486c0,0,3.402-0.973,4.618-0.973c1.215,0,3.402,0.729,3.402,0.729s-1.458,8.507-2.917,9.236c-1.458,0.729-3.402,0.729-3.402,0.729S247.597,349.05,246.382,347.835z"></path><path style="fill:#DCDCDC;" d="M247.84,339.813c0,0,1.701,4.375,2.917,3.646c1.215-0.729,1.458-4.375,1.458-4.375L247.84,339.813z"></path></g></g></g></g></g></svg>