<svg xmlns="http://www.w3.org/2000/svg" width="500" height="500" version="1.1"><g id="x069"><g><g><path style="fill:#6E6E6E;stroke:#000000;stroke-linecap:round;stroke-linejoin:round;" d="M236.097,305.767l0.278-0.517c-0.081-0.13-0.171-0.264-0.257-0.396c0.002-0.118,0.005-0.241,0.007-0.354c-0.221-0.574-0.869-1.274-1.776-2.036c-5.637-6.88-16.433-14.964-19.724-14.964c-1,2-0.75,11-0.75,11.75c0,0-4.25,7.5-4.75,10s-7,22.25-7,22.25s-8.75,11.5-9,14c0.75,1.75,2.75,4.25,2.75,4.25l14,4.75l2.205-4.098c-5.955,33.098-7.578,48.847-7.455,60.348c0.021,1.904,7.5,2.25,7.5,2.25s0.25-4.5,0-7.5c0-1.25,7.75-6.75,9-8.75s0.25-14,0.25-14s5.75-4,10-6.75C232.348,372.838,235.687,321.876,236.097,305.767z"></path><path style="fill:#505050;" d="M199.875,335.5l2.25-4l2.25-4c0,0,3.25,4.75,2.75,6S199.875,335.5,199.875,335.5z"></path><path style="fill:#505050;" d="M220.625,312c0,0-4,3.5-5,7.25s0.5,12.5,0.5,12.5L220.625,312z"></path><path style="fill:none;stroke:#000000;stroke-linecap:round;stroke-linejoin:round;" d="M217.125,309.75c0,0-0.75,10.5,0.75,15"></path><path style="fill:#505050;" d="M212.125,404.75l4.5-4.25c-2-5.25-4-15-4-15L212.125,404.75z"></path><path style="fill:none;stroke:#000000;stroke-linecap:round;stroke-linejoin:round;" d="M216.125,299.25c0,0,7.5,4.25,12.5,8.25"></path><path style="fill:none;stroke:#000000;stroke-linecap:round;stroke-linejoin:round;" d="M212.125,352c0,0,5.25-28.25,9.75-42"></path><path style="fill:none;stroke:#000000;stroke-linecap:round;stroke-linejoin:round;" d="M221.875,382l-4.25,2.75c-0.25-7.75,3.75-46.25,8-71"></path></g><g><path style="fill:#6E6E6E;stroke:#000000;stroke-linecap:round;stroke-linejoin:round;" d="M263.902,305.767l-0.277-0.517c0.08-0.13,0.171-0.264,0.257-0.396c-0.002-0.118-0.005-0.241-0.007-0.354c0.221-0.574,0.869-1.274,1.776-2.036c5.637-6.88,16.433-14.964,19.724-14.964c1,2,0.75,11,0.75,11.75c0,0,4.25,7.5,4.75,10s7,22.25,7,22.25s8.75,11.5,9,14c-0.75,1.75-2.75,4.25-2.75,4.25l-14,4.75l-2.205-4.098c5.955,33.098,7.578,48.847,7.455,60.348c-0.021,1.904-7.5,2.25-7.5,2.25s-0.25-4.5,0-7.5c0-1.25-7.75-6.75-9-8.75s-0.25-14-0.25-14s-5.75-4-10-6.75C267.652,372.838,264.313,321.876,263.902,305.767z"></path><path style="fill:#505050;" d="M300.125,335.5l-2.25-4l-2.25-4c0,0-3.25,4.75-2.75,6S300.125,335.5,300.125,335.5z"></path><path style="fill:#505050;" d="M279.375,312c0,0,4,3.5,5,7.25s-0.5,12.5-0.5,12.5L279.375,312z"></path><path style="fill:none;stroke:#000000;stroke-linecap:round;stroke-linejoin:round;" d="M282.875,309.75c0,0,0.75,10.5-0.75,15"></path><path style="fill:#505050;" d="M287.875,404.75l-4.5-4.25c2-5.25,4-15,4-15L287.875,404.75z"></path><path style="fill:none;stroke:#000000;stroke-linecap:round;stroke-linejoin:round;" d="M283.875,299.25c0,0-7.5,4.25-12.5,8.25"></path><path style="fill:none;stroke:#000000;stroke-linecap:round;stroke-linejoin:round;" d="M287.875,352c0,0-5.25-28.25-9.75-42"></path><path style="fill:none;stroke:#000000;stroke-linecap:round;stroke-linejoin:round;" d="M278.125,382l4.25,2.75c0.25-7.75-3.75-46.25-8-71"></path></g></g></g></svg>