<svg xmlns="http://www.w3.org/2000/svg" width="500" height="500" version="1.1"><g id="x007"><g><g><g><path style="fill:#6E6E6E;stroke:#000000;stroke-linecap:round;stroke-linejoin:round;" d="M207.371,320.833c0,0-3.833,10.667-4.833,14c-2.833,3.833-8.5,13.167-8.5,13.167s0.5,5.333,15.667,11.333c10.167-23.167,10.333-37.833,10.333-37.833L207.371,320.833z"></path><path style="fill:#505050;" d="M213.151,339.75c0,0-2.625-5.5-1.75-9.125s8.625-7.25,8.625-7.25L213.151,339.75z"></path></g><g><path style="fill:#6E6E6E;stroke:#000000;stroke-linecap:round;stroke-linejoin:round;" d="M292.629,320.833c0,0,3.833,10.667,4.833,14c2.833,3.833,8.5,13.167,8.5,13.167s-0.5,5.333-15.667,11.333c-10.166-23.167-10.333-37.833-10.333-37.833L292.629,320.833z"></path><path style="fill:#505050;" d="M286.849,339.75c0,0,2.625-5.5,1.75-9.125s-8.625-7.25-8.625-7.25L286.849,339.75z"></path></g></g><g><g><g><g><g><g><path style="fill:#FFFFFF;stroke:#000000;stroke-linecap:round;stroke-linejoin:round;" d="M216.291,369.702c-5.606-2.287-13.277-2.638-13.277-2.638c-0.442,0.351-3.884,3.561-4.514,5.061c1.154,2.125,4.514,6.017,7.316,6.192c0.34-0.567,1.284-0.567,1.284-0.567l0.487,1.797c0,0,2.345,5.828,9.582,5.703c0.321-0.069,4.164,4.617,6.817,5.25c5.402,1.288,8.39-0.625,8.39-0.625l-1.629-10.504C230.748,379.371,221.896,371.989,216.291,369.702z"></path></g><path style="fill:#DCDCDC;" d="M218.976,386.001l-1.458-1.25c0,0-1.542-0.001-2.542-0.167c1.084-1.375,2.625-2.583,3.167-2.208S218.976,386.001,218.976,386.001z"></path></g><path style="fill:#6E6E6E;stroke:#000000;stroke-linecap:round;stroke-linejoin:round;" d="M221.307,319.423c-3.983,5.803-6.344,13.275-7.708,19.296c-0.033-0.073-0.065-0.147-0.101-0.219c-4.999,9.379-5.415,16.438-5.449,17.478c-1.566,3.023-3.333,6.827-4.724,10.897C213.079,383,233.216,384.5,233.216,384.5l10.81-52.771C244.026,331.729,232.519,323.291,221.307,319.423z"></path><g><g><path style="fill:#505050;" d="M209.849,359.833c0,0-0.917,5.167,4.333,6.417s9.076-3.228,9.076-3.228L209.849,359.833z"></path><path style="fill:#6E6E6E;stroke:#000000;stroke-linecap:round;stroke-linejoin:round;" d="M215.392,341.531c0.634,0.688,1.564,1.428,3.008,2.219c3.018,1.652,8.81,1.375,8.81,1.375s-0.524,12.375-3.952,17.897c-3.39,1.853-7.832,1.235-10.522-0.397c-1.11-0.674-1.989-1.649-2.665-2.641"></path><path style="fill:#505050;" d="M215.266,362.833c0,0,5.666,0.667,7.333-1.083c1.917-3.084,2.75-7.833,2.667-9.917C217.433,357.333,215.266,362.833,215.266,362.833z"></path></g></g><path style="fill:#FF7F00;stroke:#000000;stroke-linecap:round;stroke-linejoin:round;" d="M208.044,356.125c0,0,0.035-7.458,5.454-17.625"></path></g><g><g><g><path style="fill:#FFFFFF;stroke:#000000;stroke-linecap:round;stroke-linejoin:round;" d="M283.71,369.702c5.605-2.287,13.277-2.638,13.277-2.638c0.442,0.351,3.884,3.561,4.513,5.061c-1.153,2.125-4.513,6.017-7.316,6.192c-0.34-0.567-1.284-0.567-1.284-0.567l-0.486,1.797c0,0-2.345,5.828-9.582,5.703c-0.321-0.069-4.164,4.617-6.817,5.25c-5.401,1.288-8.391-0.625-8.391-0.625l1.629-10.504C269.252,379.371,278.104,371.989,283.71,369.702z"></path></g><path style="fill:#DCDCDC;" d="M281.141,386.001l1.458-1.25c0,0,1.542-0.001,2.542-0.167c-1.084-1.375-2.625-2.583-3.167-2.208S281.141,386.001,281.141,386.001z"></path></g><path style="fill:#6E6E6E;stroke:#000000;stroke-linecap:round;stroke-linejoin:round;" d="M291.952,355.979c-0.034-1.035-0.448-8.096-5.45-17.479c-0.035,0.071-0.068,0.146-0.101,0.219c-1.364-6.021-3.725-13.493-7.708-19.296c-11.212,3.868-22.719,12.307-22.719,12.307l10.81,52.771c0,0,20.138-1.5,29.892-17.625C295.285,362.806,293.519,359.003,291.952,355.979z"></path><g><path style="fill:#505050;" d="M290.15,359.833c0,0,0.917,5.167-4.333,6.417s-9.076-3.228-9.076-3.228L290.15,359.833z"></path><path style="fill:#6E6E6E;stroke:#000000;stroke-linecap:round;stroke-linejoin:round;" d="M284.607,341.531c-0.634,0.688-1.564,1.428-3.009,2.219c-3.018,1.652-8.81,1.375-8.81,1.375s0.524,12.375,3.952,17.897c3.39,1.853,7.831,1.235,10.521-0.397c1.109-0.674,1.988-1.649,2.664-2.641"></path><path style="fill:#505050;" d="M284.733,362.833c0,0-5.666,0.667-7.333-1.083c-1.917-3.084-2.75-7.833-2.667-9.917C282.566,357.333,284.733,362.833,284.733,362.833z"></path></g></g></g><g><path style="fill:#FFFFFF;stroke:#000000;stroke-linecap:round;stroke-linejoin:round;" d="M225.081,382.23c0,0-2.818,4.103-2.498,10.436c2.638,1.917,6.636,3.084,6.636,3.084s-0.879-1.834-0.72-3.917c0.883-0.702,9.639-0.681,10.698,0.025c-0.944,2.058-0.624,3.725-0.624,3.725s6.622,1.374,11.033,0.494c4.411-0.88,5.999-2.637,5.999-2.637l-0.353-2.11c0,0,6.02-1.515,8.822-0.88c3.883,0.88,5.471,3.868,5.471,3.868l-1.237,1.935c0,0,5.685-0.17,9.442-5.337c-0.88-5.5-4.238-11.583-9.442-14.84c-4.471-2.797-26.113-2.284-26.113-2.284L225.081,382.23z"></path><path style="fill:none;stroke:#000000;stroke-linecap:round;stroke-linejoin:round;" d="M239.692,391.083c0,0,1.155-6.127,3.272-7.887"></path><path style="fill:none;stroke:#000000;stroke-linecap:round;stroke-linejoin:round;" d="M265.439,382.205c0,0,3.196,3.545,4.396,10.461"></path></g><g><g><path style="fill:#6E6E6E;stroke:#000000;stroke-linecap:round;stroke-linejoin:round;" d="M264,302.75L250,305l-14-2.25c0,0-9.75,69.5-11.5,82.75c0,0,9.25,2.5,25.5,2.5s25.5-2.5,25.5-2.5C273.75,372.25,264,302.75,264,302.75z"></path><path style="fill:#505050;" d="M250,305.5l-9.375,21.5c0,0,4.25-1,9.375-1s9.375,1,9.375,1L250,305.5z"></path><path style="fill:#E4E0DE;stroke:#000000;stroke-linecap:round;stroke-linejoin:round;" d="M236.752,326.47c0,0-7.202,40.274-8.785,60.448c-1.406,0.391-4.219-1.042-4.219-1.042s1.63-22.209,8.96-59.603C234.642,326.078,236.752,326.47,236.752,326.47z"></path><path style="fill:#E4E0DE;stroke:#000000;stroke-linecap:round;stroke-linejoin:round;" d="M263.248,326.47c0,0,7.202,40.274,8.784,60.448c1.406,0.391,4.22-1.042,4.22-1.042s-1.63-22.209-8.96-59.603C265.358,326.078,263.248,326.47,263.248,326.47z"></path></g><g><g><circle style="fill:#FFBF00;stroke:#000000;stroke-linecap:round;stroke-linejoin:round;" cx="240.549" cy="345.8" r="2.99"></circle></g><g><circle style="fill:#FFBF00;stroke:#000000;stroke-linecap:round;stroke-linejoin:round;" cx="259.452" cy="345.8" r="2.99"></circle></g></g><g><g><circle style="fill:#FFBF00;stroke:#000000;stroke-linecap:round;stroke-linejoin:round;" cx="240.549" cy="358.3" r="2.99"></circle></g><g><circle style="fill:#FFBF00;stroke:#000000;stroke-linecap:round;stroke-linejoin:round;" cx="259.452" cy="358.3" r="2.99"></circle></g></g><g><g><circle style="fill:#FFBF00;stroke:#000000;stroke-linecap:round;stroke-linejoin:round;" cx="240.549" cy="370.8" r="2.99"></circle></g><g><circle style="fill:#FFBF00;stroke:#000000;stroke-linecap:round;stroke-linejoin:round;" cx="259.452" cy="370.8" r="2.99"></circle></g></g></g></g><g><g><g><path style="fill:#E4E0DE;stroke:#000000;stroke-linecap:round;stroke-linejoin:round;" d="M199.428,316.839c0,0-3.122,2.423-2.918,2.771c0.202,0.346,16.386,10.865,42.31,8.211c13.955-7.487,11.324-25.653,11.324-25.653L199.428,316.839z"></path><path style="fill:#6E6E6E;stroke:#000000;stroke-linecap:round;stroke-linejoin:round;" d="M249.878,302c0,0-2.364,18-12.885,22.667c-22.921,1-36.287-5.307-38.707-8.076c-0.287-1.086,6.426-10.807,11.153-12.885c1.141-3.231,3.042-11.648,8.954-13.956C228.337,292.059,249.878,302,249.878,302z"></path></g><g><path style="fill:#E4E0DE;stroke:#000000;stroke-linecap:round;stroke-linejoin:round;" d="M300.863,316.839c0,0,3.122,2.423,2.918,2.771c-0.202,0.346-16.386,10.865-42.311,8.211c-13.953-7.487-11.323-25.653-11.323-25.653L300.863,316.839z"></path><path style="fill:#6E6E6E;stroke:#000000;stroke-linecap:round;stroke-linejoin:round;" d="M250.414,302c0,0,2.363,18,12.884,22.667c22.921,1,36.287-5.307,38.707-8.076c0.287-1.086-6.426-10.807-11.153-12.885c-1.141-3.231-3.042-11.648-8.953-13.956C271.954,292.059,250.414,302,250.414,302z"></path></g></g><g><g><g><path style="fill:#6E6E6E;stroke:#000000;stroke-linecap:round;stroke-linejoin:round;" d="M238.036,281.083c0,0-9.664-1.75-13.282-1c-1.733,2.333-2.637,5-2.637,5s-5.537,1.046-6.492,2.75c-2.232,4.583-3.125,7.5-3.125,7.5s7.829,5.309,18.304,6c10.099,0.667,16.654,0.583,19.197,0.583c-4.451-5.396-10.605-13.499-17.84-18.166C232.08,282.363,238.036,281.083,238.036,281.083z"></path></g><path style="fill:#505050;" d="M218.875,286.459c0,0,2.25-0.708,3.667-1.041c0.208-0.25,0-0.75,0.833-2c2.417,1.708,5.625,4.958,5.167,5.458S218.875,286.459,218.875,286.459z"></path></g><g><g><path style="fill:#6E6E6E;stroke:#000000;stroke-linecap:round;stroke-linejoin:round;" d="M262.256,281.083c0,0,9.664-1.75,13.281-1c1.732,2.333,2.637,5,2.637,5s5.537,1.046,6.492,2.75c2.231,4.583,3.125,7.5,3.125,7.5s-7.828,5.309-18.304,6c-10.099,0.667-16.653,0.583-19.196,0.583c4.45-5.396,10.604-13.499,17.84-18.166C268.211,282.363,262.256,281.083,262.256,281.083z"></path></g><path style="fill:#505050;" d="M281.41,286.459c0,0-2.25-0.708-3.667-1.041c-0.208-0.25,0.001-0.75-0.833-2c-2.417,1.708-5.625,4.958-5.167,5.458S281.41,286.459,281.41,286.459z"></path></g></g></g></g></g></g></svg>