<svg xmlns="http://www.w3.org/2000/svg" width="500" height="500" version="1.1"><g id="x070"><g><g><g><path style="fill:#6E6E6E;stroke:#000000;stroke-linecap:round;stroke-linejoin:round;" d="M227.708,286.75c0,0-4.75,1.5-8.25,3c-2.25,3.5-14.75,34.75-15.25,36.5s-9.5,26.5-9.25,27.5c4,2.5,17.75,7.75,17.75,7.75l16.5-50L227.708,286.75z"></path><path style="fill:#505050;" d="M226.208,302.25c0,0-4,2.5-5.25,7.25s2.75,14,2.75,14S227.208,305.5,226.208,302.25z"></path><path style="fill:none;stroke:#000000;stroke-linecap:round;stroke-linejoin:round;" d="M219.958,306.75c0,0,1.5,7.75,5.75,11.75"></path></g><g><path style="fill:#6E6E6E;stroke:#000000;stroke-linecap:round;stroke-linejoin:round;" d="M272.292,286.75c0,0,4.75,1.5,8.25,3c2.25,3.5,14.75,34.75,15.25,36.5s9.5,26.5,9.25,27.5c-4,2.5-17.75,7.75-17.75,7.75l-16.5-50L272.292,286.75z"></path><path style="fill:#505050;" d="M273.792,302.25c0,0,4,2.5,5.25,7.25s-2.75,14-2.75,14S272.792,305.5,273.792,302.25z"></path><path style="fill:none;stroke:#000000;stroke-linecap:round;stroke-linejoin:round;" d="M280.042,306.75c0,0-1.5,7.75-5.75,11.75"></path></g></g><g><g><g><path style="fill:#505050;stroke:#000000;stroke-linecap:round;stroke-linejoin:round;" d="M205.208,405.25c0,0-4.5,20-8.25,25.75c11.25-1.25,17.75-6.25,17.75-7s-0.5-3.25,0.25-3.75s3.25-0.75,3.25-0.75s3.5-30.25,3.25-44C213.458,383.5,205.958,398.25,205.208,405.25z"></path><path style="fill:#6E6E6E;stroke:#000000;stroke-linecap:round;stroke-linejoin:round;" d="M237.708,280.25c0,0,2.514,5.631,5,7c1.653,0.911,3.55,1.351,3.75,1.75c0.5,1-1.159,47.31-3.25,58.25c-3.25,17-30.75,32.5-38.25,59.75c1.5-32.75,14.75-70.25,17.75-76c1.135-6.953,1-13.25,3.5-28.75c-1.25-4.25-6.683-11.311-6.25-12.5C223.208,286.75,237.708,280.25,237.708,280.25z"></path></g><path style="fill:#6E6E6E;stroke:#000000;stroke-linecap:round;stroke-linejoin:round;" d="M228.708,273.75c0,0-1.75,13-0.5,14.5s11.5,3.5,14.5,2c0-5.25-0.25-9.5-0.25-9.5l-3.75-0.25l0.25-3.5C238.958,277,229.708,274.25,228.708,273.75z"></path></g><g><g><path style="fill:#505050;stroke:#000000;stroke-linecap:round;stroke-linejoin:round;" d="M294.792,405.25c0,0,4.5,20,8.25,25.75c-11.25-1.25-17.75-6.25-17.75-7s0.5-3.25-0.25-3.75s-3.25-0.75-3.25-0.75s-3.5-30.25-3.25-44C286.542,383.5,294.042,398.25,294.792,405.25z"></path><path style="fill:#6E6E6E;stroke:#000000;stroke-linecap:round;stroke-linejoin:round;" d="M262.292,280.25c0,0-2.514,5.631-5,7c-1.652,0.911-3.551,1.351-3.75,1.75c-0.5,1,1.158,47.31,3.25,58.25c3.25,17,30.75,32.5,38.25,59.75c-1.5-32.75-14.75-70.25-17.75-76c-1.135-6.953-1-13.25-3.5-28.75c1.25-4.25,6.683-11.311,6.25-12.5C276.792,286.75,262.292,280.25,262.292,280.25z"></path></g><path style="fill:#6E6E6E;stroke:#000000;stroke-linecap:round;stroke-linejoin:round;" d="M271.292,273.75c0,0,1.75,13,0.5,14.5s-11.5,3.5-14.5,2c0-5.25,0.25-9.5,0.25-9.5l3.75-0.25l-0.25-3.5C261.042,277,270.292,274.25,271.292,273.75z"></path></g></g></g></g></svg>