<svg xmlns="http://www.w3.org/2000/svg" width="500" height="500" version="1.1"><g id="x071"><g><g><path style="fill:#505050;stroke:#000000;stroke-linecap:round;stroke-linejoin:round;" d="M294.917,354.223c1.671,10.263,1.909,24.106,1.909,24.106c2.626,0.716,8.115,2.625,8.115,2.625C303.987,371.169,298.975,360.428,294.917,354.223z"></path><path style="fill:#6E6E6E;stroke:#000000;stroke-linecap:round;stroke-linejoin:round;" d="M282.506,285.722c0,0,5.25,3.818,6.444,5.25c1.193,1.433,15.991,27.448,19.095,35.563c3.58,10.264,10.979,29.119,10.979,29.119c-3.818,2.626-16.23,6.922-16.23,6.922l-18.378-48.452L282.506,285.722z"></path><path style="fill:#505050;" d="M288.95,306.009c0,0,8.115,13.367,9.069,17.424c0.955,4.058,1.433,19.571,1.433,18.617c0-0.955-9.309-20.05-9.309-20.05L288.95,306.009z"></path><path style="fill:#6E6E6E;stroke:#000000;stroke-linecap:round;stroke-linejoin:round;" d="M261.502,281.902c-0.239-0.955,0.478-5.729,0.478-5.729s15.275,5.49,17.186,7.161c4.772,2.625,6.927,4.813,7.159,5.489c2.388,6.922,7.638,23.629,5.967,47.498C278.448,328.684,261.502,281.902,261.502,281.902z"></path><circle style="fill:#505050;stroke:#000000;stroke-linecap:round;stroke-linejoin:round;" cx="286.384" cy="315.974" r="2.685"></circle><path style="fill:#6E6E6E;stroke:#000000;stroke-linecap:round;stroke-linejoin:round;" d="M259.831,277.368c0,0,11.695,39.143,17.186,46.304c5.489,7.16,15.274,24.584,15.991,26.254c0.717,1.671,10.502,31.745,11.456,32.223c3.342-2.148,8.354-8.831,9.07-11.219c-3.58-5.489-12.411-24.583-12.65-25.3c-0.238-0.716-8.593-19.095-10.263-21.72c-4.297-4.773-12.889-6.444-12.889-6.444L259.831,277.368z"></path><ellipse transform="matrix(0.943 -0.3328 0.3328 0.943 -96.3547 118.0307)" style="fill:#505050;stroke:#000000;stroke-linecap:round;stroke-linejoin:round;" cx="296.409" cy="340.319" rx="1.969" ry="2.684"></ellipse><ellipse transform="matrix(0.943 -0.3327 0.3327 0.943 -101.1806 121.6885)" style="fill:#505050;stroke:#000000;stroke-linecap:round;stroke-linejoin:round;" cx="304.763" cy="356.311" rx="1.97" ry="2.686"></ellipse><path style="fill:#6E6E6E;stroke:#000000;stroke-linecap:round;stroke-linejoin:round;" d="M287.041,333.219c-1.433-4.058-4.297-14.799-4.058-21.72c0.239-6.922-3.342-28.403-3.342-28.403s-5.012,1.909-7.399,3.342c-2.864-3.58-12.694-8.592-12.694-8.592s12.694,38.188,14.365,41.291c1.671,3.103,9.547,13.843,10.264,15.037"></path></g><g><path style="fill:#505050;stroke:#000000;stroke-linecap:round;stroke-linejoin:round;" d="M205.083,354.223c-1.671,10.263-1.91,24.106-1.91,24.106c-2.625,0.716-8.115,2.625-8.115,2.625C196.014,371.169,201.025,360.428,205.083,354.223z"></path><path style="fill:#6E6E6E;stroke:#000000;stroke-linecap:round;stroke-linejoin:round;" d="M217.494,285.722c0,0-5.25,3.818-6.444,5.25c-1.193,1.433-15.991,27.448-19.094,35.563c-3.581,10.264-10.979,29.119-10.979,29.119c3.819,2.626,16.23,6.922,16.23,6.922l18.378-48.452L217.494,285.722z"></path><path style="fill:#505050;" d="M211.05,306.009c0,0-8.115,13.367-9.069,17.424c-0.955,4.058-1.433,19.571-1.433,18.617c0-0.955,9.309-20.05,9.309-20.05L211.05,306.009z"></path><path style="fill:#6E6E6E;stroke:#000000;stroke-linecap:round;stroke-linejoin:round;" d="M238.498,281.902c0.239-0.955-0.478-5.729-0.478-5.729s-15.275,5.49-17.184,7.161c-4.774,2.625-6.927,4.813-7.161,5.489c-2.387,6.922-7.637,23.629-5.967,47.498C221.552,328.684,238.498,281.902,238.498,281.902z"></path><circle style="fill:#505050;stroke:#000000;stroke-linecap:round;stroke-linejoin:round;" cx="213.616" cy="315.974" r="2.685"></circle><path style="fill:#6E6E6E;stroke:#000000;stroke-linecap:round;stroke-linejoin:round;" d="M240.168,277.368c0,0-11.695,39.143-17.184,46.304c-5.49,7.16-15.276,24.584-15.992,26.254c-0.715,1.671-10.502,31.745-11.456,32.223c-3.342-2.148-8.354-8.831-9.07-11.219c3.581-5.489,12.411-24.583,12.65-25.3c0.239-0.716,8.593-19.095,10.263-21.72c4.296-4.773,12.889-6.444,12.889-6.444L240.168,277.368z"></path><ellipse transform="matrix(-0.943 -0.3328 0.3328 -0.943 282.3167 728.9955)" style="fill:#505050;stroke:#000000;stroke-linecap:round;stroke-linejoin:round;" cx="203.592" cy="340.319" rx="1.969" ry="2.685"></ellipse><ellipse transform="matrix(-0.943 -0.3328 0.3328 -0.943 260.7468 757.2888)" style="fill:#505050;stroke:#000000;stroke-linecap:round;stroke-linejoin:round;" cx="195.238" cy="356.311" rx="1.969" ry="2.686"></ellipse><path style="fill:#6E6E6E;stroke:#000000;stroke-linecap:round;stroke-linejoin:round;" d="M212.959,333.219c1.433-4.058,4.296-14.799,4.059-21.72c-0.239-6.922,3.341-28.403,3.341-28.403s5.012,1.909,7.399,3.342c2.864-3.58,12.696-8.592,12.696-8.592s-12.696,38.188-14.366,41.291c-1.671,3.103-9.547,13.843-10.263,15.037"></path></g></g></g></svg>