<svg xmlns="http://www.w3.org/2000/svg" width="500" height="500" version="1.1"><g id="x072"><g><g><g><path style="fill:#6E6E6E;stroke:#000000;stroke-linecap:round;stroke-linejoin:round;" d="M283.105,287.085c0,0,5.139,1.198,6.267,2.545c1.131,1.347,3.596,6.256,3.596,6.256c1.222,1.729,3.813,3.778,4.218,5.137c0.405,1.357,0.29,4.941,0.29,4.941s7.721,5.594,8.561,7.414c0.102,1.107,0.77,2.888,0.77,2.888s23.005,12.05,25.11,18.498c0.536,1.569,0.85,2.546,0.85,2.546l2.552,2.22c0,0-0.966,11.871-7.244,14.017c-1.633-0.742-2.962-1.233-2.962-1.233l-6.05,0.395c0,0-10.088-12.467-19.19-24.52c-6.512-4.59-12.749-8.031-13.536-9.299c-0.787-1.266-8.69-18.457-7.765-24.74C279.495,287.865,283.105,287.085,283.105,287.085z"></path></g><path style="fill:#505050;" d="M305.715,317.455c0,0-7.47,4.937-8.326,4.736c1.593-4.503,6.164-9.393,6.164-9.393l1.666,1.517C305.219,314.315,305.875,316.771,305.715,317.455z"></path><path style="fill:#FFFFFF;" d="M286.628,294.044c0,0,2.743,3.71,3.754,5.57c1.01,1.86,1.495,8.292,1.495,8.292s10.644,6.998,11.049,8.356c0.404,1.358,1.91,4.96,1.91,4.96s19.608,10.353,22.605,13.761c2.996,3.407,2.882,6.992,2.882,6.992l1.484-3.265c0,0,0.7-1.562-2.408-5.617c-3.875-5.058-23.685-15.639-23.685-15.639s0.177-2.587-0.993-3.764c-1.17-1.176-8.599-6.96-8.599-6.96s0.103-4.309-0.263-5.839c-1.774-1.678-3.982-3.817-3.982-3.817s-2.294-4.868-4.029-6.718C287.449,292.068,286.628,294.044,286.628,294.044z"></path><path style="fill:#505050;" d="M297.947,325.211c0,0,2.369,1.455,2.935,2.129c0.564,0.673,18.062,23.173,18.837,23.714c0.775,0.542,5.626-0.13,5.626-0.13s4.629-6.684,4.544-9.41c-0.085-2.729-4.541-6.839-7.133-8.889c-2.591-2.048-14.205-5.661-15.756-6.746C305.447,324.795,297.947,325.211,297.947,325.211z"></path><path style="fill:none;stroke:#000000;stroke-linecap:round;stroke-linejoin:round;" d="M325.979,350.529c0,0,3.909-3.601,5.588-10.791"></path><path style="fill:#DCDCDC;" d="M296.026,303.279l0.097,3.452l1.895,1.164c0,0-1.803,1.633-3.264,0.931C294.213,307.955,296.026,303.279,296.026,303.279z"></path><path style="fill:#DCDCDC;" d="M303.76,318.681l1.995-1.295c0,0,0.07-2.049-0.462-2.951c-0.534-0.903-1.61-1.661-1.61-1.661l-1.964,2.181c0,0,1.023,0.984,1.273,1.651C303.242,317.273,303.76,318.681,303.76,318.681z"></path></g><g><path style="fill:#6E6E6E;stroke:#000000;stroke-linecap:round;stroke-linejoin:round;" d="M259.566,274.389c-0.664-0.232-2.462,8.438-2.11,13.361c-1.23,5.098,7.911,25.141,11.955,29.712s17.581,21.273,25.492,34.282c1.27,2.087,2.813,21.448,0,24.086c1.23,1.934,2.813,2.637,2.813,2.637s14.24-7.91,17.229-14.24c0.352-1.23,0.176-1.758,0.176-1.758s3.165-19.163-12.482-32.876c-0.527-2.109-1.406-3.165-1.406-3.165s-4.923-2.461-5.625-2.989c-1.936-6.328-2.11-18.635-10.198-26.547c1.759-3.691,1.759-9.669,1.759-9.669S270.643,278.256,259.566,274.389z"></path><path style="fill:#FFFFFF;" d="M263.258,288.276c-0.509-0.138,7.207,23.383,13.537,29.537c3.122,3.033,22.391,29.327,22.855,30.766c1.934,5.979,1.231,23.56,1.231,23.56l-0.176,2.813c0,0,11.426-7.56,13.009-11.251c0.353-7.385,0.879-21.625-12.131-33.053c-0.352-1.23-0.878-2.813-0.878-2.813s-5.451-2.813-6.153-3.34c-0.704-0.527-2.064-9.683-3.517-14.769c-2.111-7.384-6.717-11.779-6.717-12.481c0-0.704,1.268-5.627,1.268-8.968c-2.463-1.758-7.737-5.273-7.737-5.273S273.631,291.091,263.258,288.276z"></path><path style="fill:#DCDCDC;" d="M300.706,327.834c0,0,0.702,2.638,0.878,2.813s-0.791,5.362-3.34,6.152c0.702-5.186,0.702-9.844,0.702-9.844L300.706,327.834z"></path><path style="fill:#505050;stroke:#000000;stroke-linecap:round;stroke-linejoin:round;" d="M257.148,287.705c0-0.352,1.231-16.35,4.571-17.932c5.626,1.758,16.174,5.626,17.58,7.208c-0.175,3.867-4.923,10.724-8.438,11.252"></path><path style="fill:#505050;stroke:#000000;stroke-linecap:round;stroke-linejoin:round;" d="M258.511,285.816c0,0,4.22,2.109,5.274,2.109"></path><path style="fill:none;stroke:#000000;stroke-linecap:round;stroke-linejoin:round;" d="M298.244,373.544c0,0,9.318-4.569,13.713-11.25"></path></g><g><g><path style="fill:#6E6E6E;stroke:#000000;stroke-linecap:round;stroke-linejoin:round;" d="M216.894,287.085c0,0-5.138,1.198-6.267,2.545c-1.13,1.347-3.595,6.256-3.595,6.256c-1.221,1.729-3.813,3.778-4.217,5.137c-0.405,1.357-0.292,4.941-0.292,4.941s-7.72,5.594-8.561,7.414c-0.102,1.107-0.769,2.888-0.769,2.888s-23.005,12.05-25.109,18.498c-0.537,1.569-0.85,2.546-0.85,2.546l-2.553,2.22c0,0,0.966,11.871,7.243,14.017c1.633-0.742,2.963-1.233,2.963-1.233l6.049,0.395c0,0,10.09-12.467,19.191-24.52c6.512-4.59,12.749-8.031,13.536-9.299c0.787-1.266,8.689-18.457,7.765-24.74S216.894,287.085,216.894,287.085z"></path></g><path style="fill:#505050;" d="M194.284,317.455c0,0,7.471,4.937,8.326,4.736c-1.593-4.503-6.163-9.393-6.163-9.393l-1.666,1.517C194.781,314.315,194.124,316.771,194.284,317.455z"></path><path style="fill:#FFFFFF;" d="M213.373,294.044c0,0-2.744,3.71-3.756,5.57c-1.01,1.86-1.494,8.292-1.494,8.292s-10.643,6.998-11.049,8.356c-0.404,1.358-1.91,4.96-1.91,4.96s-19.608,10.353-22.605,13.761c-2.995,3.407-2.881,6.992-2.881,6.992l-1.484-3.265c0,0-0.7-1.562,2.407-5.617c3.875-5.058,23.684-15.639,23.684-15.639s-0.176-2.587,0.994-3.764c1.17-1.176,8.599-6.96,8.599-6.96s-0.103-4.309,0.263-5.839c1.773-1.678,3.981-3.817,3.981-3.817s2.296-4.868,4.03-6.718C212.551,292.068,213.373,294.044,213.373,294.044z"></path><path style="fill:#505050;" d="M202.052,325.211c0,0-2.369,1.455-2.934,2.129c-0.563,0.673-18.061,23.173-18.836,23.714c-0.777,0.542-5.628-0.13-5.628-0.13s-4.628-6.684-4.543-9.41c0.086-2.729,4.541-6.839,7.133-8.889c2.592-2.048,14.205-5.661,15.756-6.746C194.554,324.795,202.052,325.211,202.052,325.211z"></path><path style="fill:none;stroke:#000000;stroke-linecap:round;stroke-linejoin:round;" d="M174.02,350.529c0,0-3.908-3.601-5.587-10.791"></path><path style="fill:#DCDCDC;" d="M203.974,303.279l-0.097,3.452l-1.895,1.164c0,0,1.802,1.633,3.264,0.931C205.787,307.955,203.974,303.279,203.974,303.279z"></path><path style="fill:#DCDCDC;" d="M196.24,318.681l-1.995-1.295c0,0-0.071-2.049,0.462-2.951c0.534-0.903,1.609-1.661,1.609-1.661l1.965,2.181c0,0-1.022,0.984-1.273,1.651C196.758,317.273,196.24,318.681,196.24,318.681z"></path></g><g><path style="fill:#6E6E6E;stroke:#000000;stroke-linecap:round;stroke-linejoin:round;" d="M240.435,274.389c0.663-0.232,2.46,8.438,2.109,13.361c1.231,5.098-7.912,25.141-11.955,29.712c-4.044,4.571-17.581,21.273-25.492,34.282c-1.27,2.087-2.813,21.448,0,24.086c-1.23,1.934-2.813,2.637-2.813,2.637s-14.24-7.91-17.229-14.24c-0.353-1.23-0.175-1.758-0.175-1.758s-3.166-19.163,12.481-32.876c0.527-2.109,1.406-3.165,1.406-3.165s4.923-2.461,5.625-2.989c1.935-6.328,2.11-18.635,10.197-26.547c-1.759-3.691-1.759-9.669-1.759-9.669S229.358,278.256,240.435,274.389z"></path><path style="fill:#FFFFFF;" d="M236.742,288.276c0.51-0.138-7.208,23.383-13.537,29.537c-3.121,3.033-22.39,29.327-22.855,30.766c-1.934,5.979-1.231,23.56-1.231,23.56l0.177,2.813c0,0-11.428-7.56-13.01-11.251c-0.353-7.385-0.879-21.625,12.131-33.053c0.352-1.23,0.879-2.813,0.879-2.813s5.451-2.813,6.153-3.34c0.703-0.527,2.063-9.683,3.517-14.769c2.109-7.384,6.717-11.779,6.717-12.481c0-0.704-1.268-5.627-1.268-8.968c2.462-1.758,7.736-5.273,7.736-5.273S226.368,291.091,236.742,288.276z"></path><path style="fill:#DCDCDC;" d="M199.295,327.834c0,0-0.702,2.638-0.879,2.813c-0.176,0.176,0.791,5.362,3.34,6.152c-0.703-5.186-0.703-9.844-0.703-9.844L199.295,327.834z"></path><path style="fill:#505050;stroke:#000000;stroke-linecap:round;stroke-linejoin:round;" d="M242.852,287.705c0-0.352-1.23-16.35-4.571-17.932c-5.625,1.758-16.175,5.626-17.58,7.208c0.175,3.867,4.923,10.724,8.438,11.252"></path><path style="fill:#505050;stroke:#000000;stroke-linecap:round;stroke-linejoin:round;" d="M241.489,285.816c0,0-4.22,2.109-5.275,2.109"></path><path style="fill:none;stroke:#000000;stroke-linecap:round;stroke-linejoin:round;" d="M201.756,373.544c0,0-9.317-4.569-13.714-11.25"></path></g></g></g></svg>