<svg xmlns="http://www.w3.org/2000/svg" width="500" height="500" version="1.1"><g id="x119"><g><g><path style="fill:#6E6E6E;stroke:#000000;stroke-linecap:round;stroke-linejoin:round;" d="M225.221,331.563c0,0-1.207,4.103-2.292,5.068c-0.362,1.931,2.172,6.998,2.172,6.998l3.137,0.241c0,0,1.81-6.636,2.051-7.118c-1.327-2.534-2.051-5.551-2.051-5.551L225.221,331.563z"></path><polygon style="fill:#505050;" points="225.944,334.098 226.187,337.234 228.72,337.113 227.151,342.543 225.583,342.543 224.014,337.234 "></polygon></g><g><path style="fill:#6E6E6E;stroke:#000000;stroke-linecap:round;stroke-linejoin:round;" d="M274.779,331.563c0,0,1.206,4.103,2.292,5.068c0.362,1.931-2.171,6.998-2.171,6.998l-3.139,0.241c0,0-1.809-6.636-2.051-7.118c1.328-2.534,2.051-5.551,2.051-5.551L274.779,331.563z"></path><polygon style="fill:#505050;" points="274.055,334.098 273.813,337.234 271.28,337.113 272.849,342.543 274.417,342.543 275.985,337.234 "></polygon></g></g><g><g><path style="fill:#6E6E6E;stroke:#000000;stroke-linecap:round;stroke-linejoin:round;" d="M225.499,296.461c-1.624,7.789-0.499,13.164-0.499,13.164l-1.584,5.732c0,0-9.706-1.14-10.666,0.143c-0.961,1.281-7.108,1.299-6.948,0.338s1.761-2.722,4.964-5.445c0.961-1.921,3.202-8.487,3.202-8.487s-2.093-6.405-1.843-11.53c4.875-5,18.875-6.5,18.875-6.5S226.62,291.017,225.499,296.461z"></path><path style="fill:#505050;" d="M212.875,291.25c0,0,5-4.25,14.75-5c-4.625,11.25-3.375,22.5-3.375,22.5s-11.082-0.438-11.563,0.361c-0.48,0.802,2.722-6.726,2.722-6.726S213.5,296,212.875,291.25z"></path><path style="fill:#6E6E6E;stroke:#000000;stroke-linecap:round;stroke-linejoin:round;" d="M209.863,321.353c0,0-4.613-5.142-4.613-6.103s5.516-4.857,5.516-4.857s6.493-3.76,13.859-1.518c-0.25,3.5,0,7.375,0,7.375s-12.449,0.395-13.25,0.875C210.574,317.604,209.863,321.353,209.863,321.353z"></path><path style="fill:#FFFFFF;" d="M206.5,315.375c0,0,1.645,3.009,3.086,3.49c-0.32-2.082,1.664-5.24,2.289-7.615C210.594,311.411,206.661,314.414,206.5,315.375z"></path></g><g><path style="fill:#6E6E6E;stroke:#000000;stroke-linecap:round;stroke-linejoin:round;" d="M274.501,296.461c1.624,7.789,0.499,13.164,0.499,13.164l1.584,5.732c0,0,9.706-1.14,10.666,0.143c0.961,1.281,7.108,1.299,6.948,0.338s-1.761-2.722-4.964-5.445c-0.961-1.921-3.202-8.487-3.202-8.487s2.093-6.405,1.843-11.53c-4.875-5-18.875-6.5-18.875-6.5S273.38,291.017,274.501,296.461z"></path><path style="fill:#505050;" d="M287.125,291.25c0,0-5-4.25-14.75-5c4.625,11.25,3.375,22.5,3.375,22.5s11.082-0.438,11.563,0.361c0.48,0.802-2.722-6.726-2.722-6.726S286.5,296,287.125,291.25z"></path><path style="fill:#6E6E6E;stroke:#000000;stroke-linecap:round;stroke-linejoin:round;" d="M290.137,321.353c0,0,4.613-5.142,4.613-6.103s-5.516-4.857-5.516-4.857s-6.493-3.76-13.859-1.518c0.25,3.5,0,7.375,0,7.375s12.449,0.395,13.25,0.875C289.426,317.604,290.137,321.353,290.137,321.353z"></path><path style="fill:#FFFFFF;" d="M293.5,315.375c0,0-1.645,3.009-3.086,3.49c0.32-2.082-1.664-5.24-2.289-7.615C289.406,311.411,293.339,314.414,293.5,315.375z"></path></g></g><g><g><path style="fill:#6E6E6E;stroke:#000000;stroke-linecap:round;stroke-linejoin:round;" d="M276.915,326.187c5.669-11.553-2.374-32.726-3.99-34.803c-1.326-1.448-7.359-6.636-8.566-6.998c0,0,0,3.981-1.086,5.067S250,291.987,250,291.987s-12.187-1.448-13.272-2.534s-1.086-5.067-1.086-5.067c-1.207,0.362-7.24,5.55-8.567,6.998c-1.615,2.077-9.658,23.25-3.989,34.803c-0.705,0.908-1.826,3.748-2.027,5.256c0.724,2.896,1.931,3.138,1.931,3.138s10.843-3.5,27.012-3.5c16.168,0,27.011,3.5,27.011,3.5s1.207-0.241,1.932-3.138C278.741,329.935,277.619,327.095,276.915,326.187z"></path><path style="fill:#FFFFFF;" d="M229.005,292.952c0,0,2.654-3.981,4.947-5.067c0.604,2.412,1.81,3.499,1.81,3.499l7.964,1.81l-5.551,2.775c0,0-3.378-2.896-4.102-2.534c-0.725,0.362-4.706,2.654-4.706,2.654S229.005,293.435,229.005,292.952z"></path><path style="fill:#505050;" d="M228.401,292.832c0,0-10.533,16.857-3.776,32.543c-0.965,2.172-2.125,6-2.125,6l0.875,1.5c0,0,10.456-2.519,20.954-3.001c-3.499-1.207-3.017-3.62-1.448-4.706c3.861-0.361,23.789,0.148,31.994,1.957c3.25-9.625,1.5-19.875-0.984-27.175c-5.671,8.084-13.727,11.797-23.528,12.187C229.126,312.981,228.401,292.832,228.401,292.832z"></path><g><path style="fill:none;stroke:#000000;stroke-linecap:round;stroke-linejoin:round;" d="M225.144,302.122c0,0,2.775-4.344,9.291-7.24c2.172,3.138,9.773,4.586,15.807,4.586"></path><path d="M247.104,299.709c0,0,2.052,1.689,2.534,3.258l0.845-3.62L247.104,299.709z"></path><path style="fill:none;stroke:#000000;stroke-linecap:round;stroke-linejoin:round;" d="M249.759,299.468c6.033,0,13.635-1.448,15.807-4.586c6.516,2.896,9.291,7.24,9.291,7.24"></path></g><path style="fill:none;stroke:#000000;stroke-linecap:round;stroke-linejoin:round;" d="M230.212,326.013c0,0,8.808-1.568,19.908-1.568s19.668,1.568,19.668,1.568"></path><line style="fill:none;stroke:#000000;stroke-linecap:round;stroke-linejoin:round;" x1="250" y1="299.95" x2="250" y2="323.961"></line><g><circle style="fill:#B2B2B2;stroke:#000000;stroke-linecap:round;stroke-linejoin:round;" cx="249.638" cy="294.521" r="1.327"></circle><g><circle style="fill:#B2B2B2;stroke:#000000;stroke-linecap:round;stroke-linejoin:round;" cx="263.635" cy="291.987" r="1.327"></circle><circle style="fill:#B2B2B2;stroke:#000000;stroke-linecap:round;stroke-linejoin:round;" cx="236.365" cy="291.987" r="1.327"></circle></g></g></g></g></g></svg>