<svg xmlns="http://www.w3.org/2000/svg" width="500" height="500" version="1.1"><g id="x120"><g><g><path style="fill:#505050;stroke:#000000;stroke-linecap:round;stroke-linejoin:round;" d="M224.25,300.737c0,0-6.04-11.35-9.152-11.35c-1.098-3.844,0-4.026,0-4.026s6.956-5.858,10.983-7.506c4.942,0.915,9.519,3.845,9.519,3.845l2.746,9.519L224.25,300.737z"></path><path style="fill:#505050;stroke:#000000;stroke-linecap:round;stroke-linejoin:round;" d="M275.749,300.737c0,0,6.041-11.35,9.153-11.35c1.099-3.844,0-4.026,0-4.026s-6.957-5.858-10.983-7.506c-4.942,0.915-9.519,3.845-9.519,3.845l-2.746,9.519L275.749,300.737z"></path></g><path style="fill:#505050;stroke:#000000;stroke-linecap:round;stroke-linejoin:round;" d="M266.108,318.859L250,319.592l-16.108-0.732l-0.549,5.126c0,0,3.478,7.322,16.658,7.505c13.181-0.183,16.658-7.505,16.658-7.505L266.108,318.859z"></path><g><g><path style="fill:#6E6E6E;stroke:#000000;stroke-linecap:round;stroke-linejoin:round;" d="M277.596,310.119c-0.275-0.412-3.433-7.414-3.433-12.356c-1.51-1.922-4.942-5.354-4.942-5.354s-15.651,4.53-16.2,5.492c-0.549,0.961-3.021,1.784-3.021,1.784s-2.471-0.823-3.021-1.784c-0.549-0.962-16.2-5.492-16.2-5.492s-3.432,3.433-4.942,5.354c0,4.942-3.158,11.944-3.432,12.356c-0.275,0.411-0.687,12.493,8.237,18.809c1.785-3.021,4.256-5.492,4.256-5.492L250,323.024l15.102,0.411c0,0,2.472,2.472,4.257,5.492C278.282,322.612,277.87,310.53,277.596,310.119z"></path><path style="fill:#505050;" d="M270.868,312.864c-3.157-0.961-20.868-3.569-20.868-3.569s-17.71,2.608-20.868,3.569c-3.844-0.274-5.492-2.196-5.492-2.196s0.687,12.493,6.728,16.2c1.922-2.746,3.981-4.806,3.981-4.806L250,321.651l15.651,0.411c0,0,2.06,2.06,3.981,4.806c6.04-3.707,6.727-16.2,6.727-16.2S274.712,312.59,270.868,312.864z"></path></g><g><path style="fill:#6E6E6E;stroke:#000000;stroke-linecap:round;stroke-linejoin:round;" d="M258.924,324.26L250,324.122l-8.924,0.138c0,0-0.961,0.412-2.471,1.235c0.824,4.53,11.395,9.336,11.395,9.336s10.571-4.806,11.396-9.336C259.885,324.672,258.924,324.26,258.924,324.26z"></path><path style="fill:#505050;" d="M248.078,325.907c0,0-1.236,1.784-0.961,2.883c0.275,1.099,2.883,4.256,2.883,4.256s-8.1-3.981-9.473-7.002C242.586,324.946,248.078,325.907,248.078,325.907z"></path></g><g><ellipse transform="matrix(0.923 0.3848 -0.3848 0.923 130.5898 -64.3625)" style="fill:#505050;stroke:#000000;stroke-linecap:round;stroke-linejoin:round;" cx="226.111" cy="294.111" rx="2.62" ry="5.504"></ellipse><ellipse transform="matrix(-0.923 0.3847 -0.3847 -0.923 639.8523 460.2036)" style="fill:#505050;stroke:#000000;stroke-linecap:round;stroke-linejoin:round;" cx="273.889" cy="294.111" rx="2.621" ry="5.504"></ellipse></g><g><path style="fill:#6E6E6E;stroke:#000000;stroke-linecap:round;stroke-linejoin:round;" d="M270.044,281.7c-0.686-0.412-12.355,5.354-17.572,5.079c-0.854,0.64-1.777,1.167-2.472,1.528c-0.695-0.361-1.619-0.889-2.471-1.528c-5.217,0.274-16.887-5.491-17.573-5.079c-0.687,0.411-5.903,5.354-5.903,5.354c8.601,6.834,22.248,8.813,25.948,9.236c3.7-0.424,17.347-2.402,25.948-9.236C275.948,287.054,270.73,282.111,270.044,281.7z"></path><path style="fill:#505050;" d="M238.056,291.996c0,0-1.235-0.961-1.373-2.333c-0.137-1.373,2.746-2.746,2.746-2.746l-9.061-4.119l-3.844,4.394C226.523,287.191,234.349,291.585,238.056,291.996z"></path></g></g></g><g><g><path style="fill:#6E6E6E;stroke:#000000;stroke-linecap:round;stroke-linejoin:round;" d="M222.863,281.334c0,0,2.653,15.011,2.653,19.038c0,4.026-4.851,12.264-4.851,12.264l-3.844-4.393c0,0-18.488,9.519-22.516,9.885c-2.563-2.929-3.295-5.126-3.295-5.126l2.929-3.661c0,0,0.528-17.238,13.546-25.627C215.724,278.405,222.863,281.334,222.863,281.334z"></path><path style="fill:#FFFFFF;" d="M198.242,298.541c0,0,5.125-11.35,12.813-14.645c-3.661,4.027-4.394,6.224-3.295,6.59c1.098,0.366-0.733,6.59-2.563,6.59S199.706,295.612,198.242,298.541z"></path><path style="fill:#505050;" d="M207.028,307.877c0,0,1.83,2.379,0.732,3.478c3.661-1.647,8.604-4.21,8.604-4.21l4.21,2.563c0,0,3.844-6.773,3.844-8.787c-0.549-5.674-2.563-19.77-2.929-18.854c-0.366,0.915,3.112,8.969-6.772,16.841c-3.963,3.156-16.475,7.139-18.672,7.688c-0.366,1.83,1.281,3.111,1.281,3.111L207.028,307.877z"></path><path style="fill:none;stroke:#000000;stroke-linecap:round;stroke-linejoin:round;" d="M194.855,308.609c0,0,1.281,2.563,1.83,2.379c0.55-0.183,17.024-6.772,17.024-6.772l3.479,3.844"></path></g><g><path style="fill:#6E6E6E;stroke:#000000;stroke-linecap:round;stroke-linejoin:round;" d="M277.138,281.334c0,0-2.654,15.011-2.654,19.038c0,4.026,4.851,12.264,4.851,12.264l3.844-4.393c0,0,18.489,9.519,22.516,9.885c2.563-2.929,3.295-5.126,3.295-5.126l-2.929-3.661c0,0-0.528-17.238-13.546-25.627C284.276,278.405,277.138,281.334,277.138,281.334z"></path><path style="fill:#FFFFFF;" d="M301.759,298.541c0,0-5.126-11.35-12.814-14.645c3.662,4.027,4.394,6.224,3.295,6.59s0.732,6.59,2.563,6.59C296.633,297.076,300.294,295.612,301.759,298.541z"></path><path style="fill:#505050;" d="M292.972,307.877c0,0-1.83,2.379-0.731,3.478c-3.662-1.647-8.604-4.21-8.604-4.21l-4.21,2.563c0,0-3.844-6.773-3.844-8.787c0.549-5.674,2.563-19.77,2.929-18.854c0.366,0.915-3.112,8.969,6.772,16.841c3.964,3.156,16.476,7.139,18.672,7.688c0.366,1.83-1.281,3.111-1.281,3.111L292.972,307.877z"></path><path style="fill:none;stroke:#000000;stroke-linecap:round;stroke-linejoin:round;" d="M305.145,308.609c0,0-1.281,2.563-1.83,2.379c-0.55-0.183-17.024-6.772-17.024-6.772l-3.479,3.844"></path></g></g></g></svg>