<svg xmlns="http://www.w3.org/2000/svg" width="500" height="500" version="1.1"><g id="x121"><g><g><path style="fill:#FFFFFF;" d="M240.59,295.7l0.41-0.2l-0.75-16.75c0,0-8.75,3.25-9.25,4.5c-0.03,0.08-0.07,0.2-0.12,0.35c-3.45,1.811-7.72,4.36-10.13,6.9c-0.14,0.21-0.27,0.43-0.41,0.65c-8.67,13.81-18.88,43.72-21.59,51.35c0.61,3.45,11.76,8.71,15.94,10.58c-3.96,31.54-3.25,58.2-2.94,58.67c0.5,0.75,20.25,7.5,26,7.25c0-2,0.75-50.25,0.75-58.5s2.75-54.25,2.75-57C241.25,302.52,240.96,299.36,240.59,295.7z"></path><path style="fill:#6E6E6E;" d="M232.567,376.819h-7.113v-7.113h-7.125v7.113h-5.902c-0.165,2.47-0.304,4.852-0.418,7.135h6.321v7.113h-6.62c-0.086,2.566-0.143,4.95-0.176,7.113h6.796v7.135h-6.826c0.035,3.978,0.157,6.299,0.246,6.435c0.073,0.11,0.57,0.352,1.366,0.679h5.213v1.893c2.157,0.725,4.637,1.506,7.125,2.221v-4.113h7.113v5.918c2.14,0.446,3.973,0.706,5.183,0.653c0-1.596,0.477-32.618,0.67-49.294h-5.854V376.819z M232.567,405.315h-7.113v-7.135h7.113V405.315z M232.567,391.067h-7.113v-7.113h7.113V391.067z M240.803,312.734c0.16-2.999,0.289-5.466,0.366-7.113h-1.478v-7.113h1.175c-0.084-0.88-0.177-1.822-0.276-2.808l0.41-0.2l-0.185-4.127h-1.124v-7.113h0.805l-0.247-5.51c0,0-8.75,3.25-9.25,4.5c-0.03,0.08-0.07,0.2-0.12,0.35c-0.4,0.21-0.813,0.432-1.23,0.66h2.917v7.113h-7.113v-4.615c-1.811,1.187-3.493,2.466-4.704,3.742c-0.14,0.21-0.27,0.43-0.41,0.65c-1.33,2.119-2.697,4.619-4.067,7.357h2.057v7.113h-5.403c-3.223,7.232-6.313,15.178-8.834,21.98v6.494h-2.366c-1.043,2.908-1.903,5.361-2.528,7.135h4.894v6.374c3.653,2.281,8.237,4.419,10.598,5.476c-0.1,0.796-0.195,1.587-0.289,2.377h3.929v7.135h-4.712c-0.244,2.42-0.462,4.795-0.656,7.113h25.459c0.049-4.229,0.08-7.536,0.08-9.205c0-3.757,0.57-15.342,1.191-27.105v-6.412h0.342c0.132-2.45,0.262-4.845,0.385-7.113h-0.727v-7.135H240.803z M218.33,348.344h-7.124v-7.113h7.124V348.344z M218.33,334.096h-7.124v-7.113h7.124V334.096z M218.33,319.869h-7.124v-7.135h7.124V319.869z M232.567,362.592h-7.113v-7.135h7.113V362.592z M232.567,348.344h-7.113v-7.113h7.113V348.344z M232.567,334.096h-7.113v-7.113h7.113V334.096z M232.567,319.869h-7.113v-7.135h7.113V319.869z M232.567,305.621h-7.113v-7.113h7.113V305.621z"></path><g><g id="outerXMLID_6_"><g><path style="fill:none;stroke:#000000;stroke-linecap:round;stroke-linejoin:round;" d="M214.69,353.08c-4.18-1.87-15.33-7.13-15.94-10.58c2.71-7.63,12.92-37.54,21.59-51.35c0.14-0.221,0.27-0.44,0.41-0.65c2.41-2.54,6.68-5.09,10.13-6.9"></path><path style="fill:none;stroke:#000000;stroke-linecap:round;stroke-linejoin:round;" d="M221.51,291.77c0.25,0.33,4.16,5.73,4.48,9.36"></path><line style="fill:none;stroke:#000000;stroke-linecap:round;stroke-linejoin:round;" x1="221.51" y1="291.77" x2="221.5" y2="291.75"></line><path style="fill:none;stroke:#000000;stroke-linecap:round;stroke-linejoin:round;" d="M240.59,295.7c0.37,3.66,0.66,6.819,0.66,7.8c0,2.75-2.75,48.75-2.75,57s-0.75,56.5-0.75,58.5c-5.75,0.25-25.5-6.5-26-7.25c-0.31-0.47-1.02-27.13,2.94-58.67c2.14-16.99,5.63-35.4,11.28-51.89c0.01-0.021,0.01-0.04,0.02-0.061c0.57-1.649,1.15-3.28,1.76-4.88"></path><path style="fill:none;stroke:#000000;stroke-linecap:round;stroke-linejoin:round;" d="M241,295.5l-0.75-16.75c0,0-8.75,3.25-9.25,4.5c-0.03,0.08-0.07,0.2-0.12,0.35c-0.42,1.381-1.29,5.44-1.42,10.33c-0.06,2.471,0.07,5.16,0.54,7.82c0.21-0.09,0.42-0.19,0.62-0.29c4.2-1.96,7.38-4.46,7.38-4.46"></path></g></g></g></g><g><path style="fill:#FFFFFF;" d="M259.41,295.7l-0.41-0.2l0.75-16.75c0,0,8.75,3.25,9.25,4.5c0.029,0.08,0.07,0.2,0.12,0.35c3.45,1.811,7.72,4.36,10.13,6.9c0.141,0.21,0.27,0.43,0.41,0.65c8.67,13.81,18.88,43.72,21.59,51.35c-0.609,3.45-11.76,8.71-15.939,10.58c3.959,31.54,3.25,58.2,2.939,58.67c-0.5,0.75-20.25,7.5-26,7.25c0-2-0.75-50.25-0.75-58.5s-2.75-54.25-2.75-57C258.75,302.52,259.04,299.36,259.41,295.7z"></path><path style="fill:#6E6E6E;" d="M267.434,369.706h-5.854c0.193,16.676,0.67,47.698,0.67,49.294c1.21,0.053,3.043-0.207,5.184-0.653v-5.918h7.112v4.113c2.487-0.715,4.968-1.496,7.124-2.221v-1.893h5.214c0.796-0.327,1.293-0.568,1.366-0.679c0.09-0.136,0.211-2.457,0.246-6.435h-6.826v-7.135h6.797c-0.033-2.163-0.09-4.547-0.176-7.113h-6.621v-7.113h6.321c-0.114-2.283-0.253-4.665-0.419-7.135h-5.902v-7.113h-7.124v7.113h-7.112V369.706z M267.434,398.181h7.112v7.135h-7.112V398.181z M267.434,383.954h7.112v7.113h-7.112V383.954z M260.309,312.734v7.135h-0.727c0.123,2.269,0.253,4.663,0.385,7.113h0.342v6.412c0.621,11.764,1.191,23.349,1.191,27.105c0,1.669,0.031,4.976,0.08,9.205h25.459c-0.193-2.318-0.412-4.693-0.656-7.113h-4.713v-7.135h3.93c-0.095-0.79-0.189-1.581-0.289-2.377c2.36-1.057,6.944-3.194,10.598-5.476v-6.374h4.894c-0.625-1.773-1.485-4.227-2.528-7.135h-2.365v-6.494c-2.521-6.803-5.611-14.748-8.835-21.98h-5.403v-7.113h2.057c-1.369-2.738-2.736-5.238-4.066-7.357c-0.141-0.221-0.27-0.44-0.41-0.65c-1.211-1.276-2.893-2.556-4.704-3.742v4.615h-7.112v-7.113h2.916c-0.417-0.229-0.83-0.45-1.229-0.66c-0.05-0.149-0.091-0.27-0.12-0.35c-0.5-1.25-9.25-4.5-9.25-4.5l-0.246,5.51h0.805v7.113h-1.124L259,295.5l0.41,0.2c-0.1,0.985-0.192,1.928-0.276,2.808h1.175v7.113h-1.478c0.077,1.647,0.206,4.114,0.366,7.113H260.309z M281.67,341.23h7.125v7.113h-7.125V341.23z M281.67,326.982h7.125v7.113h-7.125V326.982z M281.67,312.734h7.125v7.135h-7.125V312.734z M267.434,355.457h7.112v7.135h-7.112V355.457z M267.434,341.23h7.112v7.113h-7.112V341.23z M267.434,326.982h7.112v7.113h-7.112V326.982z M267.434,312.734h7.112v7.135h-7.112V312.734z M267.434,298.508h7.112v7.113h-7.112V298.508z"></path><g><g id="outerXMLID_10_"><g><path style="fill:none;stroke:#000000;stroke-linecap:round;stroke-linejoin:round;" d="M285.311,353.08c4.18-1.87,15.33-7.13,15.939-10.58c-2.71-7.63-12.92-37.54-21.59-51.35c-0.141-0.221-0.27-0.44-0.41-0.65c-2.41-2.54-6.68-5.09-10.13-6.9"></path><path style="fill:none;stroke:#000000;stroke-linecap:round;stroke-linejoin:round;" d="M278.49,291.77c-0.25,0.33-4.16,5.73-4.48,9.36"></path><line style="fill:none;stroke:#000000;stroke-linecap:round;stroke-linejoin:round;" x1="278.49" y1="291.77" x2="278.5" y2="291.75"></line><path style="fill:none;stroke:#000000;stroke-linecap:round;stroke-linejoin:round;" d="M259.41,295.7c-0.37,3.66-0.66,6.819-0.66,7.8c0,2.75,2.75,48.75,2.75,57s0.75,56.5,0.75,58.5c5.75,0.25,25.5-6.5,26-7.25c0.311-0.47,1.02-27.13-2.939-58.67c-2.141-16.99-5.631-35.4-11.281-51.89c-0.01-0.021-0.01-0.04-0.02-0.061c-0.57-1.649-1.15-3.28-1.76-4.88"></path><path style="fill:none;stroke:#000000;stroke-linecap:round;stroke-linejoin:round;" d="M259,295.5l0.75-16.75c0,0,8.75,3.25,9.25,4.5c0.029,0.08,0.07,0.2,0.12,0.35c0.42,1.381,1.29,5.44,1.42,10.33c0.06,2.471-0.069,5.16-0.54,7.82c-0.21-0.09-0.42-0.19-0.62-0.29C265.18,299.5,262,297,262,297"></path></g></g></g></g></g></g></svg>