<svg xmlns="http://www.w3.org/2000/svg" width="500" height="500" version="1.1"><g id="x122"><g><g><path style="fill:#505050;stroke:#000000;stroke-linecap:round;stroke-linejoin:round;" d="M207.75,353.5c0,0.75,1.75,14.25,3.75,17.25c4-1.75,7.25-5,7.25-5l0.5-16L207.75,353.5z"></path><path style="fill:#6E6E6E;stroke:#000000;stroke-linecap:round;stroke-linejoin:round;" d="M238.75,280.75c0,0-10,2.5-16,7.25c-2.637,2.088-22.5,51.75-26.5,61.5C199,353.25,216,358,216,358s-1.806,36.194-0.75,37.25c1.25,1.25,8.25,3.25,14.75,2.75c0-3.75-1.25-87.25-0.75-92.5s9.5-24.5,9.5-24.5l-0.13,0.232L238.75,280.75z"></path><path style="fill:#6E6E6E;stroke:#000000;stroke-linecap:round;stroke-linejoin:round;" d="M229.25,305.25c0,0,0.25,62.75,1,81.75c-9-10-14.75-31-14.75-45C215.5,329.977,229.25,305.25,229.25,305.25z"></path></g><g><path style="fill:#505050;stroke:#000000;stroke-linecap:round;stroke-linejoin:round;" d="M292.25,353.5c0,0.75-1.75,14.25-3.75,17.25c-4-1.75-7.25-5-7.25-5l-0.5-16L292.25,353.5z"></path><path style="fill:#6E6E6E;stroke:#000000;stroke-linecap:round;stroke-linejoin:round;" d="M261.25,280.75c0,0,10,2.5,16,7.25c2.637,2.088,22.5,51.75,26.5,61.5C301,353.25,284,358,284,358s1.807,36.194,0.75,37.25c-1.25,1.25-8.25,3.25-14.75,2.75c0-3.75,1.25-87.25,0.75-92.5s-9.5-24.5-9.5-24.5l0.13,0.232L261.25,280.75z"></path><path style="fill:#6E6E6E;stroke:#000000;stroke-linecap:round;stroke-linejoin:round;" d="M270.75,305.25c0,0-0.25,62.75-1,81.75c9-10,14.75-31,14.75-45C284.5,329.977,270.75,305.25,270.75,305.25z"></path></g></g></g></svg>