<svg xmlns="http://www.w3.org/2000/svg" width="500" height="500" version="1.1"><g id="x123"><g><g><g><path style="fill:#6E6E6E;stroke:#000000;stroke-linecap:round;stroke-linejoin:round;" d="M207.072,325c-5.053,13.908-10.5,26.5-10.5,26.5s8.25,5.75,14.75,7.75c6-9.75,16.5-33.5,16.5-33.5l-4-37c0,0-5,5.5-7,8.25C215.869,298.311,212.322,309.5,207.072,325z"></path><path style="fill:#505050;" d="M222.322,315c0,0-3.5,7.25-3.5,11.5s4.75,12.25,4.75,11.5s3.25-7.5,3-9.75S222.322,315,222.322,315z"></path><g><path style="fill:#6E6E6E;stroke:#000000;stroke-linecap:round;stroke-linejoin:round;" d="M219.072,348c0,0-15.819-8.023-18.473-7.782c-1.074,2.085-2.197,4.579-2.197,4.579l17.67,8.953L219.072,348z"></path><path style="fill:#6E6E6E;stroke:#000000;stroke-linecap:round;stroke-linejoin:round;" d="M207.305,341.974c0.312,0.865-1.339,5.51-2.222,5.959c-1.684,0.217-7.604-3.521-7.604-3.521s1.66-5.887,2.494-5.927C200.807,338.444,206.992,341.106,207.305,341.974z"></path></g><path style="fill:#6E6E6E;stroke:#000000;stroke-linecap:round;stroke-linejoin:round;" d="M213.322,307.5l2.75,1.75c-0.5,2.75-3.5,9.25-3.5,9.25l-5.5,6.5C206.822,319.25,211.322,309.5,213.322,307.5z"></path></g><g><path style="fill:#6E6E6E;stroke:#000000;stroke-linecap:round;stroke-linejoin:round;" d="M292.928,325c5.053,13.908,10.5,26.5,10.5,26.5s-8.25,5.75-14.75,7.75c-6-9.75-16.5-33.5-16.5-33.5l4-37c0,0,5,5.5,7,8.25C284.131,298.311,287.678,309.5,292.928,325z"></path><path style="fill:#505050;" d="M277.678,315c0,0,3.5,7.25,3.5,11.5s-4.75,12.25-4.75,11.5s-3.25-7.5-3-9.75S277.678,315,277.678,315z"></path><g><path style="fill:#6E6E6E;stroke:#000000;stroke-linecap:round;stroke-linejoin:round;" d="M280.928,348c0,0,15.818-8.023,18.473-7.782c1.074,2.085,2.197,4.579,2.197,4.579l-17.67,8.953L280.928,348z"></path><path style="fill:#6E6E6E;stroke:#000000;stroke-linecap:round;stroke-linejoin:round;" d="M292.695,341.974c-0.313,0.865,1.338,5.51,2.221,5.959c1.685,0.217,7.604-3.521,7.604-3.521s-1.66-5.887-2.494-5.927C299.192,338.444,293.008,341.106,292.695,341.974z"></path></g><path style="fill:#6E6E6E;stroke:#000000;stroke-linecap:round;stroke-linejoin:round;" d="M286.678,307.5l-2.75,1.75c0.5,2.75,3.5,9.25,3.5,9.25l5.5,6.5C293.178,319.25,288.678,309.5,286.678,307.5z"></path></g></g><g><g><g><path style="fill:#6E6E6E;stroke:#000000;stroke-linecap:round;stroke-linejoin:round;" d="M236.822,281.25c0,0,3.099,46.667,2.5,54c-3.25,18.25-5.25,28.25-7,31.25c-7.75-0.5-20.25-4.75-20.25-4.75s9-26.25,12.25-33.25c-0.75-4-3.25-23.5-1.25-39.5C227.822,284.5,236.822,281.25,236.822,281.25z"></path><path style="fill:#505050;" d="M223.072,311.75c0,0.75,4.75,14.75,15,20.5C233.822,319.5,223.072,311.75,223.072,311.75z"></path><path style="fill:#505050;" d="M224.072,321.75l1,6.5l-2.75,6.75c0,0,5-3.5,5.5-5.25S224.072,321.75,224.072,321.75z"></path></g><g><path style="fill:#6E6E6E;stroke:#000000;stroke-linecap:round;stroke-linejoin:round;" d="M237.822,334.25c-0.5-2.75-13.5-19.25-20.5-31.25c5.25-4.5,19.5-17.25,19.5-17.25s3.05,35.75,2.55,45.5"></path><path style="fill:none;stroke:#000000;stroke-linecap:round;stroke-linejoin:round;" d="M228.822,293.25c0,0,8.25,6.75,9.5,11"></path></g></g><g><g><path style="fill:#6E6E6E;stroke:#000000;stroke-linecap:round;stroke-linejoin:round;" d="M263.178,281.25c0,0-3.099,46.667-2.5,54c3.25,18.25,5.25,28.25,7,31.25c7.75-0.5,20.25-4.75,20.25-4.75s-9-26.25-12.25-33.25c0.75-4,3.25-23.5,1.25-39.5C272.178,284.5,263.178,281.25,263.178,281.25z"></path><path style="fill:#505050;" d="M276.928,311.75c0,0.75-4.75,14.75-15,20.5C266.178,319.5,276.928,311.75,276.928,311.75z"></path><path style="fill:#505050;" d="M275.928,321.75l-1,6.5l2.75,6.75c0,0-5-3.5-5.5-5.25S275.928,321.75,275.928,321.75z"></path></g><g><path style="fill:#6E6E6E;stroke:#000000;stroke-linecap:round;stroke-linejoin:round;" d="M262.178,334.25c0.5-2.75,13.5-19.25,20.5-31.25c-5.25-4.5-19.5-17.25-19.5-17.25s-3.05,35.75-2.55,45.5"></path><path style="fill:none;stroke:#000000;stroke-linecap:round;stroke-linejoin:round;" d="M271.178,293.25c0,0-8.25,6.75-9.5,11"></path></g></g></g></g></g></svg>