<svg xmlns="http://www.w3.org/2000/svg" width="500" height="500" version="1.1"><g id="x124"><g><g><g><g><path style="fill:#6E6E6E;stroke:#000000;stroke-linecap:round;stroke-linejoin:round;" d="M198.628,346.625c0,0-4.375,2.75-5.5,3.625c-0.875,2.75,0.75,3.75,1,4.375s1.875-0.375,3,0.875s0.875,3.125,3.25,4s3.75,0,4.5,0.625s3.5,2.125,4.875,2s3.875-1.875,3.875-1.875l-0.25-8.125L198.628,346.625z"></path><line style="fill:none;stroke:#000000;stroke-linecap:round;stroke-linejoin:round;" x1="199.378" y1="351.75" x2="202.378" y2="350.25"></line><path style="fill:none;stroke:#000000;stroke-linecap:round;stroke-linejoin:round;" d="M208.128,352c0,0,0.5,5.75,0.5,4.75"></path></g><g><path style="fill:#6E6E6E;stroke:#000000;stroke-linecap:round;stroke-linejoin:round;" d="M227.545,286c0,0-5.833,4.168-9.333,10.334c-4.5,9.166-7.75,19.125-7.75,19.125s-3.833,5.666-5.167,9.333S201.003,337,201.003,337s-4.625,4.667-4.625,5.5c0.167,2.333,2.667,6.167,2.667,6.167s8.833,4.541,11.833,4.208s5.25-2,5.25-2l0.583-7.041c0,0,9-18.168,8.5-17.834s7.333-31.5,7.333-31.5L227.545,286z"></path><path style="fill:#505050;" d="M225.045,307c0,0-0.076,0.14-0.21,0.394c-0.953,1.802-4.83,9.351-5.123,13.44c-0.333,4.666,4.167,11.833,4.167,11.833S226.378,316,225.045,307z"></path><path style="fill:none;stroke:#000000;stroke-linecap:round;stroke-linejoin:round;" d="M210.878,315.25c0,0-1.625,4.75-1.75,12.875"></path></g></g><g><g><path style="fill:#6E6E6E;stroke:#000000;stroke-linecap:round;stroke-linejoin:round;" d="M301.371,346.625c0,0,4.375,2.75,5.5,3.625c0.875,2.75-0.75,3.75-1,4.375s-1.875-0.375-3,0.875s-0.875,3.125-3.248,4c-2.375,0.875-3.75,0-4.5,0.625s-3.5,2.125-4.875,2s-3.875-1.875-3.875-1.875l0.25-8.125L301.371,346.625z"></path><line style="fill:none;stroke:#000000;stroke-linecap:round;stroke-linejoin:round;" x1="300.623" y1="351.75" x2="297.623" y2="350.25"></line><path style="fill:none;stroke:#000000;stroke-linecap:round;stroke-linejoin:round;" d="M291.873,352c0,0-0.5,5.75-0.5,4.75"></path></g><g><path style="fill:#6E6E6E;stroke:#000000;stroke-linecap:round;stroke-linejoin:round;" d="M272.455,286c0,0,5.834,4.168,9.334,10.334c4.5,9.166,7.75,19.125,7.75,19.125s3.832,5.666,5.166,9.333S298.998,337,298.998,337s4.623,4.667,4.623,5.5c-0.166,2.333-2.666,6.167-2.666,6.167s-8.832,4.541-11.832,4.208s-5.25-2-5.25-2l-0.584-7.041c0,0-9-18.168-8.5-17.834s-7.334-31.5-7.334-31.5L272.455,286z"></path><path style="fill:#505050;" d="M274.955,307c0,0,0.076,0.14,0.211,0.394c0.953,1.802,4.83,9.351,5.123,13.44c0.334,4.666-4.166,11.833-4.166,11.833S273.623,316,274.955,307z"></path><path style="fill:none;stroke:#000000;stroke-linecap:round;stroke-linejoin:round;" d="M289.123,315.25c0,0,1.625,4.75,1.75,12.875"></path></g></g></g><g><g><g><path style="fill:#6E6E6E;stroke:#000000;stroke-linecap:round;stroke-linejoin:round;" d="M231.711,283c0,0,0.833,8.167,9,12.667C239.545,307,237.545,325,238.045,327.5c-1.167,9-4.25,27.083-3.917,29.75c-4.333,1.167-17.917-1.083-18.25-1.583c-0.333-2.333,1.167-5.667,1.333-6.167c-0.333-0.833-1-1.833-1-1.833l1.333-2.667c0,0,6.25-19,6.583-20c-0.333-3-0.875-9.292,0.125-15.125s3.125-10.125,3.125-10.125s-0.166-11.25,0.167-13.75C229.211,284.167,231.711,283,231.711,283z"></path><path style="fill:#505050;" d="M224.344,320.834c0,0-0.166,3.666,0.167,4.333c-0.5,1.667-1.5,4.833-1.5,4.833s3.167-2.167,3.667-4S224.344,320.834,224.344,320.834z"></path><path style="fill:none;stroke:#000000;stroke-linecap:round;stroke-linejoin:round;" d="M226.878,301c0,0,2.125-4.75,4.375-7.75"></path></g><path style="fill:#6E6E6E;stroke:#000000;stroke-linecap:round;stroke-linejoin:round;" d="M219.628,338.25c0,0,6.875-5,11-7.125c0-3.25,0.25-5.25,0.25-5.25s-6.625,2.25-9.375,5.625c-1.25,3-1.875,7.125-1.875,7.125"></path><path style="fill:none;stroke:#000000;stroke-linecap:round;stroke-linejoin:round;" d="M234.628,350.875c-9.25,0.375-16.25-1.375-16.25-1.375"></path><g><path style="fill:#6E6E6E;stroke:#000000;stroke-linecap:round;stroke-linejoin:round;" d="M239.628,296.25c0,0-0.75,0.25-3,1.5c-0.864,2.247,0.303,3.776,1.106,4.507l-0.231,0.306c0,0-2.334,0.015-2.688,3.125c-0.313,2.75,1.938,4.188,1.938,4.188s-2.25,0.375-2.5,3.563c-0.194,2.48,1.875,3.625,1.875,3.625s-1.75,0.188-2.25,3c-0.487,2.741,1.438,4.063,1.438,4.063s-2.063,0.375-2.188,2.813c-0.139,2.71,2.063,3.313,2.063,3.313s-2.104,0.643-2.438,3.375c-0.313,2.563,1.688,3.563,1.688,3.563s-2,0.563-2.25,3.063c-0.26,2.597,1.188,3.938,1.188,3.938s-1.51,0.771-1.813,2.5c-0.438,2.5,0.563,3.938,0.563,3.938l3.25,0.5c0,0,1.875-15.25,3.125-23.125c-1-7.5,1.5-28.75,1.5-28.75L239.628,296.25z"></path><path style="fill:#6E6E6E;stroke:#000000;stroke-linecap:round;stroke-linejoin:round;" d="M231.128,283.75c0,0-2.25,2.125-1,4.625s2.375,2.25,2.375,2.25s-1.25,3.375,0.625,4.625s3.375,0.625,3.375,0.625s-1.125,2.125,0.375,3.375s3.375,0.5,3.375,0.5l0.875-4.125c0,0-8.25-6.75-8.125-12.875C232.128,282.75,231.128,283.75,231.128,283.75z"></path></g></g><g><g><path style="fill:#6E6E6E;stroke:#000000;stroke-linecap:round;stroke-linejoin:round;" d="M268.288,283c0,0-0.834,8.167-9,12.667C260.454,307,262.454,325,261.954,327.5c1.168,9,4.25,27.083,3.918,29.75c4.333,1.167,17.916-1.083,18.25-1.583c0.332-2.333-1.168-5.667-1.334-6.167c0.334-0.833,1-1.833,1-1.833L282.454,345c0,0-6.249-19-6.582-20c0.332-3,0.875-9.292-0.125-15.125s-3.125-10.125-3.125-10.125s0.166-11.25-0.168-13.75C270.788,284.167,268.288,283,268.288,283z"></path><path style="fill:#505050;" d="M275.655,320.834c0,0,0.166,3.666-0.167,4.333c0.5,1.667,1.5,4.833,1.5,4.833s-3.167-2.167-3.667-4S275.655,320.834,275.655,320.834z"></path><path style="fill:none;stroke:#000000;stroke-linecap:round;stroke-linejoin:round;" d="M273.122,301c0,0-2.125-4.75-4.375-7.75"></path></g><path style="fill:#6E6E6E;stroke:#000000;stroke-linecap:round;stroke-linejoin:round;" d="M280.372,338.25c0,0-6.875-5-11-7.125c0-3.25-0.25-5.25-0.25-5.25s6.625,2.25,9.375,5.625c1.25,3,1.875,7.125,1.875,7.125"></path><path style="fill:none;stroke:#000000;stroke-linecap:round;stroke-linejoin:round;" d="M265.372,350.875c9.25,0.375,16.25-1.375,16.25-1.375"></path><g><path style="fill:#6E6E6E;stroke:#000000;stroke-linecap:round;stroke-linejoin:round;" d="M260.372,296.25c0,0,0.75,0.25,3,1.5c0.863,2.247-0.303,3.776-1.106,4.507l0.231,0.306c0,0,2.334,0.015,2.688,3.125c0.313,2.75-1.938,4.188-1.938,4.188s2.25,0.375,2.5,3.563c0.193,2.48-1.875,3.625-1.875,3.625s1.75,0.188,2.25,3c0.486,2.741-1.438,4.063-1.438,4.063s2.063,0.375,2.188,2.813c0.139,2.71-2.063,3.313-2.063,3.313s2.104,0.643,2.438,3.375c0.313,2.563-1.688,3.563-1.688,3.563s2,0.563,2.25,3.063c0.26,2.597-1.188,3.938-1.188,3.938s1.51,0.771,1.813,2.5c0.438,2.5-0.563,3.938-0.563,3.938l-3.25,0.5c0,0-1.875-15.25-3.125-23.125c1-7.5-1.5-28.75-1.5-28.75L260.372,296.25z"></path><path style="fill:#6E6E6E;stroke:#000000;stroke-linecap:round;stroke-linejoin:round;" d="M268.872,283.75c0,0,2.25,2.125,1,4.625s-2.375,2.25-2.375,2.25s1.25,3.375-0.625,4.625s-3.375,0.625-3.375,0.625s1.125,2.125-0.375,3.375s-3.375,0.5-3.375,0.5l-0.875-4.125c0,0,8.25-6.75,8.125-12.875C267.872,282.75,268.872,283.75,268.872,283.75z"></path></g></g></g></g></g></svg>