<svg xmlns="http://www.w3.org/2000/svg" width="500" height="500" version="1.1"><g id="x125"><g><g><g><g><path style="fill:#6E6E6E;stroke:#000000;stroke-linecap:round;stroke-linejoin:round;" d="M200.625,342.334c0,0-2.999,7.001-3.166,9.334c3,4.833,11.666,6.166,11.666,6.166l5.167-9.833L200.625,342.334z"></path><path style="fill:#6E6E6E;stroke:#000000;stroke-linecap:round;stroke-linejoin:round;" d="M199.125,353.001c0,0,2.167-6.167,3.334-8"></path><path style="fill:#6E6E6E;stroke:#000000;stroke-linecap:round;stroke-linejoin:round;" d="M205.292,346.668c0,0-2.667,7.667-3.167,9"></path><path style="fill:#6E6E6E;stroke:#000000;stroke-linecap:round;stroke-linejoin:round;" d="M206.125,356.501c0,0,2.834-6.834,3.334-8.167"></path><line style="fill:#6E6E6E;stroke:#000000;stroke-linecap:round;stroke-linejoin:round;" x1="212.292" y1="349.168" x2="208.625" y2="357.501"></line></g><g><path style="fill:#6E6E6E;stroke:#000000;stroke-linecap:round;stroke-linejoin:round;" d="M227.125,286.5c0,0-6.5,5.75-9.5,11.25s-8.75,24.75-8.75,24.75s-3.25,3.75-3.75,4.5s0,3,0,5c-1.25,2.5-3,2.75-3.5,3.75s-1,5.75-1.5,7.25s11.084,6.168,13.334,6.668c4.5-5,10.166-15.168,10.166-15.168l10.75-42.75L227.125,286.5z"></path><path style="fill:#505050;" d="M224.959,302.501c0,0-4.333,4.667-4.5,8c0.5,7,3.166,14.5,3.166,14.5L224.959,302.501z"></path><path style="fill:none;stroke:#000000;stroke-linecap:round;stroke-linejoin:round;" d="M218.459,303.334c0,0,1.833,9.833,5.333,14"></path><path style="fill:none;stroke:#000000;stroke-linecap:round;stroke-linejoin:round;" d="M205.125,332c0,0,0.667,3.502-0.166,5.668"></path><path style="fill:none;stroke:#000000;stroke-linecap:round;stroke-linejoin:round;" d="M203.292,337.001c0,0,2.667,3.666,8.833,4.833"></path></g></g><g><g><path style="fill:#6E6E6E;stroke:#000000;stroke-linecap:round;stroke-linejoin:round;" d="M299.375,342.334c0,0,2.999,7.001,3.166,9.334c-3,4.833-11.666,6.166-11.666,6.166l-5.167-9.833L299.375,342.334z"></path><path style="fill:#6E6E6E;stroke:#000000;stroke-linecap:round;stroke-linejoin:round;" d="M300.875,353.001c0,0-2.168-6.167-3.334-8"></path><path style="fill:#6E6E6E;stroke:#000000;stroke-linecap:round;stroke-linejoin:round;" d="M294.708,346.668c0,0,2.667,7.667,3.167,9"></path><path style="fill:#6E6E6E;stroke:#000000;stroke-linecap:round;stroke-linejoin:round;" d="M293.875,356.501c0,0-2.834-6.834-3.334-8.167"></path><line style="fill:#6E6E6E;stroke:#000000;stroke-linecap:round;stroke-linejoin:round;" x1="287.708" y1="349.168" x2="291.375" y2="357.501"></line></g><g><path style="fill:#6E6E6E;stroke:#000000;stroke-linecap:round;stroke-linejoin:round;" d="M272.875,286.5c0,0,6.5,5.75,9.5,11.25s8.75,24.75,8.75,24.75s3.25,3.75,3.75,4.5s0,3,0,5c1.25,2.5,3,2.75,3.5,3.75s1,5.75,1.5,7.25s-11.084,6.168-13.334,6.668c-4.5-5-10.166-15.168-10.166-15.168l-10.75-42.75L272.875,286.5z"></path><path style="fill:#505050;" d="M275.041,302.501c0,0,4.333,4.667,4.5,8c-0.5,7-3.166,14.5-3.166,14.5L275.041,302.501z"></path><path style="fill:none;stroke:#000000;stroke-linecap:round;stroke-linejoin:round;" d="M281.541,303.334c0,0-1.833,9.833-5.333,14"></path><path style="fill:none;stroke:#000000;stroke-linecap:round;stroke-linejoin:round;" d="M294.875,332c0,0-0.668,3.502,0.166,5.668"></path><path style="fill:none;stroke:#000000;stroke-linecap:round;stroke-linejoin:round;" d="M296.708,337.001c0,0-2.667,3.666-8.833,4.833"></path></g></g></g><g><g><path style="fill:#6E6E6E;stroke:#000000;stroke-linecap:round;stroke-linejoin:round;" d="M232.625,283.168c0,0,0.5,6.082,9.25,10.582c0,2.75-0.5,4.75-0.5,4.75s-8,21-9,28.75s-10.75,22-10.75,22.75s-4.833,9.334-5.333,11.834c-0.167,4.333,0.583,8.916,0.583,8.916s-2.75-1.25-3.25-4.75s2.25-12.5,3.75-16.75c1.25-8,3.25-17,5.75-22.75c0.5-7.5,0.25-16.5,1.5-21.5s4-10.666,4-10.666s-3.5-5.667-3.5-6C227.125,285.501,232.625,283.168,232.625,283.168z"></path><g><line style="fill:none;stroke:#000000;stroke-linecap:round;stroke-linejoin:round;" x1="237.333" y1="300.334" x2="239.5" y2="301.334"></line><line style="fill:none;stroke:#000000;stroke-linecap:round;stroke-linejoin:round;" x1="232.667" y1="313.5" x2="234.833" y2="314.5"></line><line style="fill:none;stroke:#000000;stroke-linecap:round;stroke-linejoin:round;" x1="228.667" y1="330.334" x2="230.833" y2="331.334"></line><line style="fill:none;stroke:#000000;stroke-linecap:round;stroke-linejoin:round;" x1="221.5" y1="344" x2="223.667" y2="345"></line></g><path style="fill:none;stroke:#000000;stroke-linecap:round;stroke-linejoin:round;" d="M237.625,296.834c0,0-8,18.666-8.5,29.5c-3.667,8.834-9.846,19.298-12.5,25.667"></path><path style="fill:none;stroke:#000000;stroke-linecap:round;stroke-linejoin:round;" d="M229.458,285.168c0,0,2.099,9.167,11.933,13"></path><path style="fill:none;stroke:#000000;stroke-linecap:round;stroke-linejoin:round;" d="M228.191,295.501c0,0,1.833-3.499,3.333-5.833"></path></g><g><g><path style="fill:#6E6E6E;stroke:#000000;stroke-linecap:round;stroke-linejoin:round;" d="M267.375,283.168c0,0-0.5,6.082-9.25,10.582c0,2.75,0.5,4.75,0.5,4.75s8,21,9,28.75s10.75,22,10.75,22.75s4.833,9.334,5.333,11.834c0.167,4.333-0.583,8.916-0.583,8.916s2.75-1.25,3.25-4.75s-2.25-12.5-3.75-16.75c-1.25-8-3.25-17-5.75-22.75c-0.5-7.5-0.25-16.5-1.5-21.5s-4-10.666-4-10.666s3.5-5.667,3.5-6C272.875,285.501,267.375,283.168,267.375,283.168z"></path><path style="fill:none;stroke:#000000;stroke-linecap:round;stroke-linejoin:round;" d="M262.375,296.834c0,0,8,18.666,8.5,29.5c3.666,8.834,9.846,19.298,12.5,25.667"></path><path style="fill:none;stroke:#000000;stroke-linecap:round;stroke-linejoin:round;" d="M270.541,285.168c0,0-2.1,9.167-11.933,13"></path><path style="fill:none;stroke:#000000;stroke-linecap:round;stroke-linejoin:round;" d="M271.809,295.501c0,0-1.834-3.499-3.334-5.833"></path></g><g><circle style="fill:#6E6E6E;stroke:#000000;stroke-linecap:round;stroke-linejoin:round;" cx="262.834" cy="303.001" r="2.167"></circle><circle style="fill:#6E6E6E;stroke:#000000;stroke-linecap:round;stroke-linejoin:round;" cx="267.334" cy="318.167" r="2.167"></circle><circle style="fill:#6E6E6E;stroke:#000000;stroke-linecap:round;stroke-linejoin:round;" cx="271.334" cy="333.501" r="2.167"></circle><circle style="fill:#6E6E6E;stroke:#000000;stroke-linecap:round;stroke-linejoin:round;" cx="278.834" cy="347.334" r="2.167"></circle></g></g></g></g></g></svg>