<svg xmlns="http://www.w3.org/2000/svg" width="500" height="500" version="1.1"><g id="x008"><g><g><g><path style="fill:#6E6E6E;stroke:#000000;stroke-linecap:round;stroke-linejoin:round;" d="M222.716,308.417l-9.59-2.292c0,0-4.375,5.125-5.625,18.5c-1.874,1.875-5.25,4.563-5.25,4.563s-0.563,3.813-0.063,6.688c-2.875,4.063-11.313,15.438-11.188,17.125s9.25,10.938,23.875,8.875c7.874-22.874,12.715-37.335,12.715-37.335L222.716,308.417z"></path><path style="fill:#505050;" d="M218.918,326.541c-1.145,6.078-0.458,13.917-0.458,15.042c1.208-2.625,5.417-13.917,5.417-13.917l-0.167-12.749C223.709,314.917,220.126,320.125,218.918,326.541z"></path><path style="fill:#505050;" d="M205.751,326.958c0,0,3.708,0.042,5.333-2.583c-1.667-1.75-2.583-4.292-2.583-4.292l-0.5,4.667L205.751,326.958z"></path><path style="fill:#505050;" d="M202.751,329.417c0,0-0.771,4.646,0.021,6.521c1.646,1.791,7.813,2.896,8.146,2.688C209.48,336.896,202.751,329.417,202.751,329.417z"></path></g><g><path style="fill:#6E6E6E;stroke:#000000;stroke-linecap:round;stroke-linejoin:round;" d="M277.284,308.417l9.59-2.292c0,0,4.375,5.125,5.625,18.5c1.874,1.875,5.25,4.563,5.25,4.563s0.563,3.813,0.063,6.688c2.875,4.063,11.313,15.438,11.188,17.125s-9.25,10.938-23.875,8.875c-7.874-22.874-12.715-37.335-12.715-37.335L277.284,308.417z"></path><path style="fill:#505050;" d="M281.082,326.541c1.145,6.078,0.458,13.917,0.458,15.042c-1.208-2.625-5.416-13.917-5.416-13.917l0.166-12.749C276.29,314.917,279.874,320.125,281.082,326.541z"></path><path style="fill:#505050;" d="M294.249,326.958c0,0-3.709,0.042-5.334-2.583c1.668-1.75,2.584-4.292,2.584-4.292l0.5,4.667L294.249,326.958z"></path><path style="fill:#505050;" d="M297.249,329.417c0,0,0.771,4.646-0.021,6.521c-1.646,1.791-7.813,2.896-8.146,2.688C290.52,336.896,297.249,329.417,297.249,329.417z"></path></g></g><g><g><g><g><path style="fill:#6E6E6E;stroke:#000000;stroke-linecap:round;stroke-linejoin:round;" d="M242.214,310.292c0,0-9.75,62.994-10.124,91.868c-8.999-1.5-24.839-4.16-26.964-14.66c1.25-16.875,13.25-47.125,13.25-47.125l4.375-12.75c0,0,0.875-14.625,2.375-19.875C233.75,307.001,242.214,310.292,242.214,310.292z"></path><path style="fill:none;stroke:#000000;stroke-linecap:round;stroke-linejoin:round;" d="M206.188,380.125c0,0-0.722,13.036,22.152,15.66c0.75-11.999,3.75-58.12,9.749-76.867"></path></g><g><path style="fill:#6E6E6E;stroke:#000000;stroke-linecap:round;stroke-linejoin:round;" d="M241.376,315.875c0,0-14.91,9.979-16.973,16.54c-2.062,6.562,9.374,20.248,10.686,31.686C240.714,340.666,241.376,315.875,241.376,315.875z"></path><path style="fill:#FFD4B5;stroke:#000000;stroke-linecap:round;stroke-linejoin:round;" d="M241.063,320.063c-0.078-0.836-12.91,11.604-13.098,14.04c-0.188,2.438,7.723,13.96,9.035,20.897C239.938,347.375,242.188,332.188,241.063,320.063z"></path><path style="fill:#E1B697;" d="M240.626,323.063c1.125,7.938-1.5,23.688-2.75,27.313c-2.249-6.186-2.974-12.084-1.849-17.335C237.152,327.791,240.626,323.063,240.626,323.063z"></path></g><g><path style="fill:#6E6E6E;stroke:#000000;stroke-linecap:round;stroke-linejoin:round;" d="M213.191,351.868c0.892-0.781,14.215,3.868,14.637,4.875s-0.876,7.68-1.893,8.57c-3.668,0.863-8.7,1.521-10.435,0.812c-2.75-1.125-5.417-6.281-5.417-6.281S211.157,353.649,213.191,351.868z"></path><circle style="fill:#FFD4B5;stroke:#000000;stroke-linecap:round;stroke-linejoin:round;" cx="217.527" cy="360.539" r="2.121"></circle></g></g><g><g><path style="fill:#6E6E6E;stroke:#000000;stroke-linecap:round;stroke-linejoin:round;" d="M257.786,310.292c0,0,9.749,62.994,10.123,91.868c9-1.5,24.84-4.16,26.965-14.66c-1.25-16.875-13.25-47.125-13.25-47.125l-4.375-12.75c0,0-0.875-14.625-2.375-19.875C266.25,307.001,257.786,310.292,257.786,310.292z"></path><path style="fill:none;stroke:#000000;stroke-linecap:round;stroke-linejoin:round;" d="M293.812,380.125c0,0,0.722,13.036-22.152,15.66c-0.75-11.999-3.75-58.12-9.749-76.867"></path></g><g><path style="fill:#6E6E6E;stroke:#000000;stroke-linecap:round;stroke-linejoin:round;" d="M258.624,315.875c0,0,14.91,9.979,16.973,16.54s-9.373,20.248-10.686,31.686C259.286,340.666,258.624,315.875,258.624,315.875z"></path><path style="fill:#FFD4B5;stroke:#000000;stroke-linecap:round;stroke-linejoin:round;" d="M258.937,320.063c0.078-0.836,12.91,11.604,13.098,14.04c0.188,2.438-7.723,13.96-9.035,20.897C260.062,347.375,257.812,332.188,258.937,320.063z"></path><path style="fill:#E1B697;" d="M259.374,323.063c-1.125,7.938,1.5,23.688,2.75,27.313c2.249-6.186,2.974-12.084,1.85-17.335C262.848,327.791,259.374,323.063,259.374,323.063z"></path></g><g><path style="fill:#6E6E6E;stroke:#000000;stroke-linecap:round;stroke-linejoin:round;" d="M286.809,351.868c-0.892-0.781-14.215,3.868-14.638,4.875c-0.422,1.007,0.877,7.68,1.894,8.57c3.669,0.863,8.7,1.521,10.435,0.812c2.75-1.125,5.416-6.281,5.416-6.281S288.843,353.649,286.809,351.868z"></path><circle style="fill:#FFD4B5;stroke:#000000;stroke-linecap:round;stroke-linejoin:round;" cx="282.473" cy="360.539" r="2.121"></circle></g></g></g><g><g><g><path style="fill:#6E6E6E;stroke:#000000;stroke-linecap:round;stroke-linejoin:round;" d="M240.001,280.5c-6.75,10.875-7.125,17.875-3.411,23.792c1.722,2.743,5.661,5.833,5.661,5.833s-0.5,2.125-1.75,3.375s-12.831,0.468-22.375-0.375c-10.375-4.875-13.408-11.081-13.408-11.081c-0.217-1.419,5.998-6.751,5.998-6.751s-0.373-7.874,1.876-13.124c0.751-2.999,13.123-8.249,27.748-7.874C239.876,277.25,240.842,279.145,240.001,280.5z"></path><path style="fill:#505050;" d="M209.104,297.396c0,0,2.771,2.688,7.271,3.813c-4.875-4.125-5.021-10.833-5.021-10.833s-0.271,2.875-0.146,5.063C211.126,295.668,209.104,297.396,209.104,297.396z"></path></g><g><path style="fill:#FFD4B5;stroke:#000000;stroke-linecap:round;stroke-linejoin:round;" d="M241.464,309.541c-1.467-0.486-8.248-7.873-10.124-12.372c-1.874-4.501,8.25-16.125,8.25-16.125l-1.125-1.125c0,0-16.124,2.626-19.123,6.75c-1.125,1.875,0,16.123,3.749,19.873C226.466,308.792,242.589,309.917,241.464,309.541z"></path><path style="fill:#E1B697;" d="M224.253,305.137c0,0,3.094-2.016,3.094-4.641c-1.126-2.25-5.756-5.578-5.381-10.078c0.375-4.498,5.099-4.294,15.598-7.668c-6.625,8.875-7.225,11.454-6.938,13.75c0.25,2,4.921,8.281,9,12.5C236.625,309,224.253,305.137,224.253,305.137z"></path></g></g><g><g><path style="fill:#6E6E6E;stroke:#000000;stroke-linecap:round;stroke-linejoin:round;" d="M259.999,280.5c6.75,10.875,7.125,17.875,3.411,23.792c-1.722,2.743-5.661,5.833-5.661,5.833s0.5,2.125,1.75,3.375s12.831,0.468,22.375-0.375c10.375-4.875,13.408-11.081,13.408-11.081c0.217-1.419-5.998-6.751-5.998-6.751s0.373-7.874-1.876-13.124c-0.751-2.999-13.124-8.249-27.749-7.874C260.124,277.25,259.157,279.145,259.999,280.5z"></path><path style="fill:#505050;" d="M290.896,297.396c0,0-2.771,2.688-7.271,3.813c4.875-4.125,5.021-10.833,5.021-10.833s0.271,2.875,0.146,5.063C288.874,295.668,290.896,297.396,290.896,297.396z"></path></g><g><path style="fill:#FFD4B5;stroke:#000000;stroke-linecap:round;stroke-linejoin:round;" d="M258.536,309.541c1.467-0.486,8.248-7.873,10.123-12.372c1.875-4.501-8.25-16.125-8.25-16.125l1.126-1.125c0,0,16.124,2.626,19.123,6.75c1.125,1.875,0,16.123-3.749,19.873C273.534,308.792,257.411,309.917,258.536,309.541z"></path><path style="fill:#E1B697;" d="M275.747,305.137c0,0-3.094-2.016-3.094-4.641c1.125-2.25,5.756-5.578,5.381-10.078c-0.375-4.498-5.099-4.294-15.598-7.668c6.625,8.875,7.225,11.454,6.938,13.75c-0.25,2-4.922,8.281-9,12.5C263.374,309,275.747,305.137,275.747,305.137z"></path></g></g></g></g></g></g></svg>