<svg xmlns="http://www.w3.org/2000/svg" width="500" height="500" version="1.1"><g id="x126"><g><g><g><g><g><path style="fill:#6E6E6E;stroke:#000000;stroke-linecap:round;stroke-linejoin:round;" d="M223.914,289.334c0,0-5.333,4-6.667,6.167c-3,6.5-3.601,14-4.601,17.332c0,0-2.599,5.334-5.266,9.334c-1,4.667-0.833,7.834-0.833,7.834s-3,2.166-3.333,2.666c0,1.834-0.134,2.666,0.2,4.666c2.833,2.166,14.833,6,14.833,6s3.834-8.165,7.501-17.832c4.167-20,4.666-30.667,4.666-30.667L223.914,289.334z"></path><path style="fill:#505050;" d="M225.248,301.334c0,0-5.667,9.666-5.833,13.333s2.667,10.834,4.667,12.667C227.414,315.667,225.248,301.334,225.248,301.334z"></path><path style="fill:none;stroke:#000000;stroke-linecap:round;stroke-linejoin:round;" d="M212.98,311.334c0,0-0.333,4.667,0.5,10.5"></path></g></g><g id="outerXMLID_5_"><g><path style="fill:#6E6E6E;" d="M218.25,340.337l1,2.5c0,0-2.67,4.16-5.84,8.16c-1.5-0.16-9.33-3-13.83-6c-0.83-1.66,0.33-9.333,0.5-10.163s3.5-0.337,3.5-0.337L218.25,340.337z"></path></g><g style="opacity:0.5;"><path style="fill:#FFFFFF;" d="M218.25,340.337l1,2.5c0,0-2.67,4.16-5.84,8.16c-1.5-0.16-9.33-3-13.83-6c-0.83-1.66,0.497-9.667,0.667-10.497s3.333-0.003,3.333-0.003L218.25,340.337z"></path></g><g><path style="fill:none;stroke:#000000;stroke-linecap:round;stroke-linejoin:round;" d="M203.581,334.497c0,0-3.497-0.827-3.667,0.003s-1.164,8.837-0.333,10.497c4.5,3,12.33,5.84,13.83,6c3.17-4,5.84-8.16,5.84-8.16l-1-2.5L203.581,334.497z"></path></g></g></g><g><g><g><path style="fill:#6E6E6E;stroke:#000000;stroke-linecap:round;stroke-linejoin:round;" d="M276.086,289.334c0,0,5.333,4,6.666,6.167c3,6.5,3.602,14,4.602,17.332c0,0,2.599,5.334,5.266,9.334c1,4.667,0.833,7.834,0.833,7.834s3,2.166,3.333,2.666c0,1.834,0.135,2.666-0.199,4.666c-2.833,2.166-14.833,6-14.833,6s-3.834-8.165-7.501-17.832c-4.166-20-4.666-30.667-4.666-30.667L276.086,289.334z"></path><path style="fill:#505050;" d="M274.752,301.334c0,0,5.668,9.666,5.834,13.333s-2.666,10.834-4.666,12.667C272.586,315.667,274.752,301.334,274.752,301.334z"></path><path style="fill:none;stroke:#000000;stroke-linecap:round;stroke-linejoin:round;" d="M287.02,311.334c0,0,0.334,4.667-0.5,10.5"></path></g></g><g id="outerXMLID_8_"><g><path style="fill:#6E6E6E;" d="M281.75,340.337l-1,2.5c0,0,2.67,4.16,5.84,8.16c1.5-0.16,9.33-3,13.83-6c0.83-1.66-0.33-9.333-0.5-10.163s-3.5-0.337-3.5-0.337L281.75,340.337z"></path></g><g style="opacity:0.5;"><path style="fill:#FFFFFF;" d="M281.75,340.337l-1,2.5c0,0,2.67,4.16,5.84,8.16c1.5-0.16,9.33-3,13.83-6c0.83-1.66-0.498-9.667-0.668-10.497s-3.332-0.003-3.332-0.003L281.75,340.337z"></path></g><g><path style="fill:none;stroke:#000000;stroke-linecap:round;stroke-linejoin:round;" d="M296.42,334.497c0,0,3.496-0.827,3.666,0.003s1.164,8.837,0.334,10.497c-4.5,3-12.33,5.84-13.83,6c-3.17-4-5.84-8.16-5.84-8.16l1-2.5L296.42,334.497z"></path></g></g></g></g><g><g><path style="fill:#6E6E6E;stroke:#000000;stroke-linecap:round;stroke-linejoin:round;" d="M241.414,303c0,0-1.5,18.167-1.5,22.834s-1.667,22.5-1.667,22.5s-19.667,0.834-21.167-0.333c0-4.834,3-12.167,3-12.167s3.334-25.999,4.167-30.333c0.366-1.902,1.471-5.025,2.595-7.931c0.239-0.616-3.161-7.653-2.928-8.236c2-2.833,8.166-6,8.166-6l3.167,5.333L241.414,303z"></path><line style="fill:none;stroke:#000000;stroke-linecap:round;stroke-linejoin:round;" x1="229.247" y1="320.834" x2="227.247" y2="337.001"></line><path style="fill:#6E6E6E;stroke:#000000;stroke-linecap:round;stroke-linejoin:round;" d="M240.747,281.001c0,0-3,9.166-2.833,11.333c1.166,4.167,3.333,11,3.333,11S233.08,292,231.58,291.5c0.667-1,3.334-4.166,3.334-4.166s-5.501,1-9.834,2.833c2.834-4.5,6.667-9.333,7.667-10.167s7.333-2.333,7.333-2.333L240.747,281.001z"></path><line style="fill:none;stroke:#000000;stroke-linecap:round;stroke-linejoin:round;" x1="219.914" y1="338.167" x2="237.747" y2="338.334"></line><path style="fill:none;stroke:#000000;stroke-linecap:round;stroke-linejoin:round;" d="M238.247,300.167c-0.167,0.5-3,36-3,36"></path><g><path style="fill:#6E6E6E;stroke:#000000;stroke-linecap:round;stroke-linejoin:round;" d="M223.914,305.001c0,0-1.5,11.5-1,13c1.666,2.333,4.5,4.333,4.5,4.333l5-4l1.833-13.333C234.247,305.001,225.247,304.168,223.914,305.001z"></path><path style="fill:none;stroke:#000000;stroke-linecap:round;stroke-linejoin:round;" d="M223.58,309.167c0,0,3.334,2.666,4.167,3s5.667-3.5,5.667-3.5"></path></g></g><g><path style="fill:#6E6E6E;stroke:#000000;stroke-linecap:round;stroke-linejoin:round;" d="M258.586,303c0,0,1.5,18.167,1.5,22.834s1.666,22.5,1.666,22.5s19.668,0.834,21.168-0.333c0-4.834-3-12.167-3-12.167s-3.334-25.999-4.168-30.333c-0.365-1.902-1.47-5.025-2.594-7.931c-0.239-0.616,3.161-7.653,2.928-8.236c-2-2.833-8.166-6-8.166-6l-3.168,5.333L258.586,303z"></path><line style="fill:none;stroke:#000000;stroke-linecap:round;stroke-linejoin:round;" x1="270.752" y1="320.834" x2="272.752" y2="337.001"></line><path style="fill:#6E6E6E;stroke:#000000;stroke-linecap:round;stroke-linejoin:round;" d="M259.252,281.001c0,0,3,9.166,2.834,11.333c-1.166,4.167-3.334,11-3.334,11S266.92,292,268.42,291.5c-0.667-1-3.334-4.166-3.334-4.166s5.5,1,9.834,2.833c-2.834-4.5-6.667-9.333-7.667-10.167s-7.333-2.333-7.333-2.333L259.252,281.001z"></path><line style="fill:none;stroke:#000000;stroke-linecap:round;stroke-linejoin:round;" x1="280.086" y1="338.167" x2="262.252" y2="338.334"></line><path style="fill:none;stroke:#000000;stroke-linecap:round;stroke-linejoin:round;" d="M261.753,300.167c0.167,0.5,2.999,36,2.999,36"></path><g><circle style="fill:#6E6E6E;stroke:#000000;stroke-linecap:round;stroke-linejoin:round;" cx="261.167" cy="307.834" r="1.833"></circle><circle style="fill:#6E6E6E;stroke:#000000;stroke-linecap:round;stroke-linejoin:round;" cx="261.833" cy="320.667" r="1.833"></circle><circle style="fill:#6E6E6E;stroke:#000000;stroke-linecap:round;stroke-linejoin:round;" cx="262.5" cy="333.5" r="1.833"></circle><circle style="fill:#6E6E6E;stroke:#000000;stroke-linecap:round;stroke-linejoin:round;" cx="263.167" cy="343.799" r="1.833"></circle></g><g><path style="fill:#6E6E6E;stroke:#000000;stroke-linecap:round;stroke-linejoin:round;" d="M276.086,305.001c0,0,1.5,11.5,1,13c-1.666,2.333-4.5,4.333-4.5,4.333l-5-4l-1.834-13.333C265.752,305.001,274.752,304.168,276.086,305.001z"></path><path style="fill:none;stroke:#000000;stroke-linecap:round;stroke-linejoin:round;" d="M276.42,309.167c0,0-3.334,2.666-4.168,3c-0.832,0.334-5.666-3.5-5.666-3.5"></path></g></g></g></g></g></svg>