<svg xmlns="http://www.w3.org/2000/svg" width="500" height="500" version="1.1"><g id="x127"><g><g><g><g><path style="fill:#6E6E6E;stroke:#000000;stroke-linecap:round;stroke-linejoin:round;" d="M233.916,281.666c0,0,0.084,6.75,5.334,10c-1.5,5-3.052,10.717-8.834,19.834c-9.833,15.503-22.5,27.5-28,35.25c-3-0.25-4-1.75-4-1.75l1.167-3.667c0.25-1.25,0.333-2.333,0.333-2.333c1.05-0.899,2.82-9.261,6.084-17.25c2.179-5.335,6.416-11.5,6.416-11.5s0.083-2.167,0.417-3.667c1.75-4.833,6.083-10,8.25-12.5C222.083,290.25,223.666,286.333,233.916,281.666z"></path><path style="fill:#505050;" d="M212.916,309.833c0,0,6.334-7.334,7.834-8.5c-3.167,1.667-7.5,4.334-7.5,4.834S212.749,308.999,212.916,309.833z"></path><path style="fill:none;stroke:#000000;stroke-linecap:round;stroke-linejoin:round;" d="M211.666,311.417c0.084-0.25,6.167-7.416,10.417-11.25"></path><path style="fill:none;stroke:#000000;stroke-linecap:round;stroke-linejoin:round;" d="M220.583,294.833c0,0,4.083-3.75,8-6"></path></g><path style="fill:none;stroke:#000000;stroke-linecap:round;stroke-linejoin:round;" d="M199.416,342c0,0,2.251,0.667,2.667,0.667c2.167-3.583,17.903-21.396,23-29.167c5.083-7.75,10.25-18.333,10.25-18.333"></path><path style="fill:#6E6E6E;stroke:#000000;stroke-linecap:round;stroke-linejoin:round;" d="M235.045,295.615c-2.317-2.391-5.603-7.114-6.212-11.532c0,0,3.416-2.334,5.083-2.667c0,5.417,4.75,9.584,6.667,10.751c-1.667,3.833-3.567,6.5-3.567,6.5"></path></g><g><line style="fill:none;stroke:#000000;stroke-linecap:round;stroke-linejoin:round;" x1="233.125" y1="300.75" x2="235.125" y2="302"></line><line style="fill:none;stroke:#000000;stroke-linecap:round;stroke-linejoin:round;" x1="225.5" y1="313.125" x2="227.5" y2="314.375"></line><line style="fill:none;stroke:#000000;stroke-linecap:round;stroke-linejoin:round;" x1="214.25" y1="327.875" x2="216.25" y2="329.125"></line><line style="fill:none;stroke:#000000;stroke-linecap:round;stroke-linejoin:round;" x1="202.375" y1="342.75" x2="204.375" y2="344"></line></g></g><g><g><g><path style="fill:#6E6E6E;stroke:#000000;stroke-linecap:round;stroke-linejoin:round;" d="M266.084,281.666c0,0-0.084,6.75-5.334,10c1.5,5,3.051,10.717,8.834,19.834c9.832,15.503,22.5,27.5,28,35.25c3-0.25,4-1.75,4-1.75l-1.168-3.667c-0.25-1.25-0.332-2.333-0.332-2.333c-1.051-0.899-2.82-9.261-6.084-17.25c-2.18-5.335-6.416-11.5-6.416-11.5s-0.084-2.167-0.418-3.667c-1.75-4.833-6.082-10-8.25-12.5C277.916,290.25,276.334,286.333,266.084,281.666z"></path><path style="fill:#505050;" d="M287.084,309.833c0,0-6.334-7.334-7.834-8.5c3.166,1.667,7.5,4.334,7.5,4.834S287.25,308.999,287.084,309.833z"></path><path style="fill:none;stroke:#000000;stroke-linecap:round;stroke-linejoin:round;" d="M288.334,311.417c-0.084-0.25-6.168-7.416-10.418-11.25"></path><path style="fill:none;stroke:#000000;stroke-linecap:round;stroke-linejoin:round;" d="M279.416,294.833c0,0-4.082-3.75-8-6"></path></g><path style="fill:none;stroke:#000000;stroke-linecap:round;stroke-linejoin:round;" d="M300.584,342c0,0-2.252,0.667-2.668,0.667c-2.166-3.583-17.902-21.396-23-29.167c-5.082-7.75-10.25-18.333-10.25-18.333"></path><path style="fill:#6E6E6E;stroke:#000000;stroke-linecap:round;stroke-linejoin:round;" d="M264.955,295.615c2.316-2.391,5.602-7.114,6.211-11.532c0,0-3.416-2.334-5.082-2.667c0,5.417-4.75,9.584-6.668,10.751c1.668,3.833,3.568,6.5,3.568,6.5"></path></g><g><g id="outerXMLID_15_"><g><path style="fill:#6E6E6E;" d="M268.92,301.79c0.39,1.33-0.12,2.64-1.13,2.94c-1.021,0.3-2.16-0.53-2.55-1.86c-0.38-1.32,0.12-2.64,1.14-2.93C267.39,299.64,268.53,300.47,268.92,301.79z"></path></g><g style="opacity:0.5;"><path style="fill:#FFFFFF;" d="M268.92,301.79c0.39,1.33-0.12,2.64-1.13,2.94c-1.021,0.3-2.16-0.53-2.55-1.86c-0.38-1.32,0.12-2.64,1.14-2.93C267.39,299.64,268.53,300.47,268.92,301.79z"></path></g><g><path style="fill:none;stroke:#000000;stroke-linecap:round;stroke-linejoin:round;" d="M268.92,301.79c0.39,1.33-0.12,2.64-1.13,2.94c-1.021,0.3-2.16-0.53-2.55-1.86c-0.38-1.32,0.12-2.64,1.14-2.93C267.39,299.64,268.53,300.47,268.92,301.79z"></path></g></g><g id="outerXMLID_9_"><g><path style="fill:#6E6E6E;" d="M277.477,316.222c0.529,1.281,0.162,2.638-0.81,3.044c-0.982,0.407-2.204-0.296-2.734-1.577c-0.519-1.271-0.162-2.637,0.82-3.034C275.725,314.247,276.947,314.95,277.477,316.222z"></path></g><g style="opacity:0.5;"><path style="fill:#FFFFFF;" d="M277.477,316.222c0.529,1.281,0.162,2.638-0.81,3.044c-0.982,0.407-2.204-0.296-2.734-1.577c-0.519-1.271-0.162-2.637,0.82-3.034C275.725,314.247,276.947,314.95,277.477,316.222z"></path></g><g><path style="fill:none;stroke:#000000;stroke-linecap:round;stroke-linejoin:round;" d="M277.477,316.222c0.529,1.281,0.162,2.638-0.81,3.044c-0.982,0.407-2.204-0.296-2.734-1.577c-0.519-1.271-0.162-2.637,0.82-3.034C275.725,314.247,276.947,314.95,277.477,316.222z"></path></g></g><g id="outerXMLID_14_"><g><path style="fill:#6E6E6E;" d="M288.727,331.1c0.709,1.191,0.541,2.586-0.362,3.129c-0.913,0.544-2.224,0.024-2.933-1.167c-0.697-1.184-0.541-2.586,0.374-3.12C286.708,329.397,288.02,329.917,288.727,331.1z"></path></g><g style="opacity:0.5;"><path style="fill:#FFFFFF;" d="M288.727,331.1c0.709,1.191,0.541,2.586-0.362,3.129c-0.913,0.544-2.224,0.024-2.933-1.167c-0.697-1.184-0.541-2.586,0.374-3.12C286.708,329.397,288.02,329.917,288.727,331.1z"></path></g><g><path style="fill:none;stroke:#000000;stroke-linecap:round;stroke-linejoin:round;" d="M288.727,331.1c0.709,1.191,0.541,2.586-0.362,3.129c-0.913,0.544-2.224,0.024-2.933-1.167c-0.697-1.184-0.541-2.586,0.374-3.12C286.708,329.397,288.02,329.917,288.727,331.1z"></path></g></g><g id="outerXMLID_21_"><g><path style="fill:#6E6E6E;" d="M298.692,342.546c0.801,1.132,0.744,2.535-0.113,3.148c-0.867,0.614-2.215,0.201-3.016-0.931c-0.789-1.124-0.745-2.535,0.125-3.14C296.545,341.01,297.894,341.424,298.692,342.546z"></path></g><g style="opacity:0.5;"><path style="fill:#FFFFFF;" d="M298.692,342.546c0.801,1.132,0.744,2.535-0.113,3.148c-0.867,0.614-2.215,0.201-3.016-0.931c-0.789-1.124-0.745-2.535,0.125-3.14C296.545,341.01,297.894,341.424,298.692,342.546z"></path></g><g><path style="fill:none;stroke:#000000;stroke-linecap:round;stroke-linejoin:round;" d="M298.692,342.546c0.801,1.132,0.744,2.535-0.113,3.148c-0.867,0.614-2.215,0.201-3.016-0.931c-0.789-1.124-0.745-2.535,0.125-3.14C296.545,341.01,297.894,341.424,298.692,342.546z"></path></g></g></g></g></g></g></svg>