<svg xmlns="http://www.w3.org/2000/svg" width="500" height="500" version="1.1"><g id="x128"><g><g><g><path style="fill:#6E6E6E;stroke:#000000;stroke-linecap:round;stroke-linejoin:round;" d="M189.042,356.334c0.334-1,3.666-13.167,5.333-16.667s5.417-10.417,12.917-18.417c3.666-7,6.583-19.249,10.583-26.416s8.834-8.167,8.834-8.167s-1,35-1.167,37.334s-7.333,19.833-9.333,23.5s-8,9.666-8,9.666s-4.417,5.166-4.917,7.833c-0.017,0.032-8.544-5.117-14.655-7.931C188.767,356.811,188.9,356.561,189.042,356.334z"></path><path style="fill:#505050;" d="M222.744,307.25c0,0-6,11.5-7,18.5s0.75,16.75,0.75,16.75S224.494,321.75,222.744,307.25z"></path><path style="fill:#505050;" d="M209.244,319.5c0,0,6.75-8,7.5-10c-1.75,1-3.5,0-3.75-1C211.994,311,209.244,319.5,209.244,319.5z"></path><g><path style="fill:#6E6E6E;stroke:#000000;stroke-linecap:round;stroke-linejoin:round;" d="M209.042,359.5c0,0-3.5,9-5.5,11.25c-6.75,0-13.5-2-17-5.5c0-4.5,3-11.25,4-12.5"></path><g><path style="fill:none;stroke:#000000;stroke-linecap:round;stroke-linejoin:round;" d="M205.542,361c0,0-2.75,8.5-4,9.25"></path><path style="fill:none;stroke:#000000;stroke-linecap:round;stroke-linejoin:round;" d="M201.542,360.75c0,0-2.5,7.25-3.5,8.5"></path><line style="fill:none;stroke:#000000;stroke-linecap:round;stroke-linejoin:round;" x1="196.542" y1="360.25" x2="193.792" y2="368.5"></line><path style="fill:none;stroke:#000000;stroke-linecap:round;stroke-linejoin:round;" d="M191.542,359c0,0-1.25,7.5-1.75,8.25"></path><path style="fill:none;stroke:#000000;stroke-linecap:round;stroke-linejoin:round;" d="M189.542,356.25c0,1-1.75,7-1.75,9"></path></g></g><path style="fill:#6E6E6E;stroke:#000000;stroke-linecap:round;stroke-linejoin:round;" d="M194.042,341c0,0.75-6,5.75-6.5,7.5s2.75,8.25,3.5,9.75s6,1.5,7,2"></path><path style="fill:#6E6E6E;stroke:#000000;stroke-linecap:round;stroke-linejoin:round;" d="M202.292,360.75c0,0,10-0.25,10.75-2s-0.25-7.5,0.75-10.5"></path><path style="fill:none;stroke:#000000;stroke-linecap:round;stroke-linejoin:round;" d="M219.542,303.5c0,0-2.75,8.5-12.25,17.75"></path><path style="fill:none;stroke:#000000;stroke-linecap:round;stroke-linejoin:round;" d="M210.042,326c0,0-9.667,10.667-16.667,16"></path></g><g><path style="fill:#6E6E6E;stroke:#000000;stroke-linecap:round;stroke-linejoin:round;" d="M310.958,356.334c-0.334-1-3.666-13.167-5.332-16.667c-1.668-3.5-5.418-10.417-12.918-18.417c-3.666-7-6.582-19.249-10.582-26.416s-8.834-8.167-8.834-8.167s1,35,1.166,37.334c0.168,2.334,7.334,19.833,9.334,23.5s8,9.666,8,9.666s4.416,5.166,4.916,7.833c0.018,0.032,8.545-5.117,14.656-7.931C311.233,356.811,311.101,356.561,310.958,356.334z"></path><path style="fill:#505050;" d="M277.257,307.25c0,0,6,11.5,7,18.5s-0.75,16.75-0.75,16.75S275.507,321.75,277.257,307.25z"></path><path style="fill:#505050;" d="M290.757,319.5c0,0-6.75-8-7.5-10c1.75,1,3.5,0,3.75-1C288.007,311,290.757,319.5,290.757,319.5z"></path><g><path style="fill:#6E6E6E;stroke:#000000;stroke-linecap:round;stroke-linejoin:round;" d="M290.958,359.5c0,0,3.5,9,5.5,11.25c6.75,0,13.5-2,17-5.5c0-4.5-3-11.25-4-12.5"></path><g><path style="fill:none;stroke:#000000;stroke-linecap:round;stroke-linejoin:round;" d="M294.458,361c0,0,2.75,8.5,4,9.25"></path><path style="fill:none;stroke:#000000;stroke-linecap:round;stroke-linejoin:round;" d="M298.458,360.75c0,0,2.5,7.25,3.5,8.5"></path><line style="fill:none;stroke:#000000;stroke-linecap:round;stroke-linejoin:round;" x1="303.458" y1="360.25" x2="306.208" y2="368.5"></line><path style="fill:none;stroke:#000000;stroke-linecap:round;stroke-linejoin:round;" d="M308.458,359c0,0,1.25,7.5,1.75,8.25"></path><path style="fill:none;stroke:#000000;stroke-linecap:round;stroke-linejoin:round;" d="M310.458,356.25c0,1,1.75,7,1.75,9"></path></g></g><path style="fill:#6E6E6E;stroke:#000000;stroke-linecap:round;stroke-linejoin:round;" d="M305.958,341c0,0.75,6,5.75,6.5,7.5s-2.75,8.25-3.5,9.75s-6,1.5-7,2"></path><path style="fill:#6E6E6E;stroke:#000000;stroke-linecap:round;stroke-linejoin:round;" d="M297.708,360.75c0,0-10-0.25-10.75-2s0.25-7.5-0.75-10.5"></path><path style="fill:none;stroke:#000000;stroke-linecap:round;stroke-linejoin:round;" d="M280.458,303.5c0,0,2.75,8.5,12.25,17.75"></path><path style="fill:none;stroke:#000000;stroke-linecap:round;stroke-linejoin:round;" d="M289.958,326c0,0,9.668,10.667,16.668,16"></path></g></g><g><g><g><path style="fill:#6E6E6E;stroke:#000000;stroke-linecap:round;stroke-linejoin:round;" d="M225.631,287.165c4.119-4.665,14.167-6.831,14.167-6.831s4,41.333-1.5,55.333s-24.333,30.167-24.333,30.167c-0.167-18.667,5.667-35.667,6.833-39.334c0,0,0.294-10.014,1.519-20.771"></path><path style="fill:#6E6E6E;stroke:#000000;stroke-linecap:round;stroke-linejoin:round;" d="M219.465,360.501c-0.334,0.5-3.334,7.333-4.334,7.166s-5.166-2.5-6.333-4.5c1.833-4.833,2.666-6.667,2.833-7.5s-1.999-4.666-1.666-5.333s8.333-9.667,9.5-12.5"></path></g><path style="fill:none;stroke:#000000;stroke-linecap:round;stroke-linejoin:round;" d="M235.548,283c0,0,2.5,37-2,49.5s-19.25,25.5-19.25,25.5"></path><path style="fill:none;stroke:#000000;stroke-linecap:round;stroke-linejoin:round;" d="M239.548,282.5c0,0-2,0.125-2.875,0.75"></path><path style="fill:none;stroke:#000000;stroke-linecap:round;stroke-linejoin:round;" d="M239.798,285c0,0-2,0.125-2.875,0.75"></path><path style="fill:none;stroke:#000000;stroke-linecap:round;stroke-linejoin:round;" d="M240.048,287.5c0,0-2,0.125-2.875,0.75"></path><path style="fill:none;stroke:#000000;stroke-linecap:round;stroke-linejoin:round;" d="M240.548,292.5c0,0-2,0.125-2.875,0.75"></path><path style="fill:none;stroke:#000000;stroke-linecap:round;stroke-linejoin:round;" d="M240.798,296.375c0,0-2,0.125-2.875,0.75"></path><path style="fill:none;stroke:#000000;stroke-linecap:round;stroke-linejoin:round;" d="M240.923,299.75c0,0-2,0.125-2.875,0.75"></path><path style="fill:none;stroke:#000000;stroke-linecap:round;stroke-linejoin:round;" d="M240.701,317.837c0,0-1.991-0.222-2.961,0.242"></path><path style="fill:none;stroke:#000000;stroke-linecap:round;stroke-linejoin:round;" d="M240.534,321.67c0,0-1.991-0.222-2.961,0.242"></path><path style="fill:none;stroke:#000000;stroke-linecap:round;stroke-linejoin:round;" d="M239.868,329.003c0,0-1.991-0.222-2.961,0.242"></path><path style="fill:none;stroke:#000000;stroke-linecap:round;stroke-linejoin:round;" d="M236.382,339.525c0,0-1.668-1.11-2.742-1.143"></path><path style="fill:none;stroke:#000000;stroke-linecap:round;stroke-linejoin:round;" d="M235.248,341.525c0,0-1.668-1.11-2.742-1.143"></path><path style="fill:none;stroke:#000000;stroke-linecap:round;stroke-linejoin:round;" d="M233.915,343.525c0,0-1.668-1.11-2.742-1.143"></path><path style="fill:none;stroke:#000000;stroke-linecap:round;stroke-linejoin:round;" d="M230.582,347.692c0,0-1.668-1.11-2.742-1.143"></path><path style="fill:none;stroke:#000000;stroke-linecap:round;stroke-linejoin:round;" d="M227.249,351.859c0,0-1.668-1.11-2.742-1.143"></path><path style="fill:none;stroke:#000000;stroke-linecap:round;stroke-linejoin:round;" d="M224.916,355.025c0,0-1.668-1.11-2.742-1.143"></path><path style="fill:none;stroke:#000000;stroke-linecap:round;stroke-linejoin:round;" d="M221.833,358.274c0,0-1.668-1.11-2.742-1.143"></path><path style="fill:none;stroke:#000000;stroke-linecap:round;stroke-linejoin:round;" d="M219.417,360.857c0,0-1.668-1.11-2.742-1.143"></path></g><g><g><path style="fill:#6E6E6E;stroke:#000000;stroke-linecap:round;stroke-linejoin:round;" d="M274.369,287.165c-4.119-4.665-14.167-6.831-14.167-6.831s-4,41.333,1.5,55.333s24.333,30.167,24.333,30.167c0.167-18.667-5.667-35.667-6.833-39.334c0,0-0.294-10.014-1.519-20.771"></path><path style="fill:#6E6E6E;stroke:#000000;stroke-linecap:round;stroke-linejoin:round;" d="M280.535,360.501c0.334,0.5,3.334,7.333,4.334,7.166s5.166-2.5,6.333-4.5c-1.833-4.833-2.666-6.667-2.833-7.5s1.999-4.666,1.666-5.333s-8.333-9.667-9.5-12.5"></path></g><path style="fill:none;stroke:#000000;stroke-linecap:round;stroke-linejoin:round;" d="M264.452,283c0,0-2.5,37,2,49.5s19.25,25.5,19.25,25.5"></path><path style="fill:none;stroke:#000000;stroke-linecap:round;stroke-linejoin:round;" d="M260.452,282.5c0,0,2,0.125,2.875,0.75"></path><path style="fill:none;stroke:#000000;stroke-linecap:round;stroke-linejoin:round;" d="M260.202,285c0,0,2,0.125,2.875,0.75"></path><path style="fill:none;stroke:#000000;stroke-linecap:round;stroke-linejoin:round;" d="M259.952,287.5c0,0,2,0.125,2.875,0.75"></path><path style="fill:none;stroke:#000000;stroke-linecap:round;stroke-linejoin:round;" d="M259.452,292.5c0,0,2,0.125,2.875,0.75"></path><path style="fill:none;stroke:#000000;stroke-linecap:round;stroke-linejoin:round;" d="M259.202,296.375c0,0,2,0.125,2.875,0.75"></path><path style="fill:none;stroke:#000000;stroke-linecap:round;stroke-linejoin:round;" d="M259.077,299.75c0,0,2,0.125,2.875,0.75"></path><path style="fill:none;stroke:#000000;stroke-linecap:round;stroke-linejoin:round;" d="M259.299,317.837c0,0,1.991-0.222,2.961,0.242"></path><path style="fill:none;stroke:#000000;stroke-linecap:round;stroke-linejoin:round;" d="M259.466,321.67c0,0,1.991-0.222,2.961,0.242"></path><path style="fill:none;stroke:#000000;stroke-linecap:round;stroke-linejoin:round;" d="M260.132,329.003c0,0,1.991-0.222,2.961,0.242"></path><path style="fill:none;stroke:#000000;stroke-linecap:round;stroke-linejoin:round;" d="M263.618,339.525c0,0,1.668-1.11,2.742-1.143"></path><path style="fill:none;stroke:#000000;stroke-linecap:round;stroke-linejoin:round;" d="M264.752,341.525c0,0,1.668-1.11,2.742-1.143"></path><path style="fill:none;stroke:#000000;stroke-linecap:round;stroke-linejoin:round;" d="M266.085,343.525c0,0,1.668-1.11,2.742-1.143"></path><path style="fill:none;stroke:#000000;stroke-linecap:round;stroke-linejoin:round;" d="M269.418,347.692c0,0,1.668-1.11,2.742-1.143"></path><path style="fill:none;stroke:#000000;stroke-linecap:round;stroke-linejoin:round;" d="M272.751,351.859c0,0,1.668-1.11,2.742-1.143"></path><path style="fill:none;stroke:#000000;stroke-linecap:round;stroke-linejoin:round;" d="M275.084,355.025c0,0,1.668-1.11,2.742-1.143"></path><path style="fill:none;stroke:#000000;stroke-linecap:round;stroke-linejoin:round;" d="M278.167,358.274c0,0,1.668-1.11,2.742-1.143"></path><path style="fill:none;stroke:#000000;stroke-linecap:round;stroke-linejoin:round;" d="M280.583,360.857c0,0,1.668-1.11,2.742-1.143"></path></g></g></g></g></svg>