<svg xmlns="http://www.w3.org/2000/svg" width="500" height="500" version="1.1"><g id="x129"><g><g><g><g><path style="fill:#6E6E6E;stroke:#000000;stroke-linecap:round;stroke-linejoin:round;" d="M230.606,296.833L224.815,285c0,0-5.243,0.165-5.909,0.998c-0.667,2.667-1.5,5-1.5,5l-2.667,3.167c0,0-0.5,2.667-0.5,4.5c-1.166,3.062-4.501,14.286-6.322,19.838l16.709,7.945L230.606,296.833z"></path><path style="fill:#6E6E6E;stroke:#000000;stroke-linecap:round;stroke-linejoin:round;" d="M210.315,311.5c0,0-4.25,1.75-4.75,2.75s0.25,3.75,0.25,3.75l-1.5,2.75c0,0-0.75,7-0.25,7.75c6.25,3.25,13.25,5.75,13.25,5.75s5.75-9.25,5.75-10.25s1-3.5,1-3.5l-1.25-3"></path><g><path style="fill:#505050;" d="M204.815,320.875c0,0,1.313-2.625,1.563-2.75c3.063,1.563,7.813,3.938,7.125,4.375S204.815,320.875,204.815,320.875z"></path></g><path style="fill:#505050;" d="M214.907,298.498c0,0-0.167-3.499,0.333-4.333c2.333,1.833,6.833,7.833,6.833,7.833S215.24,299.665,214.907,298.498z"></path></g></g><g><g><path style="fill:#6E6E6E;stroke:#000000;stroke-linecap:round;stroke-linejoin:round;" d="M269.394,296.833L275.185,285c0,0,5.242,0.165,5.908,0.998c0.668,2.667,1.5,5,1.5,5l2.668,3.167c0,0,0.5,2.667,0.5,4.5c1.166,3.062,4.5,14.286,6.321,19.838l-16.71,7.945L269.394,296.833z"></path><path style="fill:#6E6E6E;stroke:#000000;stroke-linecap:round;stroke-linejoin:round;" d="M289.685,311.5c0,0,4.25,1.75,4.75,2.75s-0.25,3.75-0.25,3.75l1.5,2.75c0,0,0.75,7,0.25,7.75c-6.25,3.25-13.25,5.75-13.25,5.75s-5.75-9.25-5.75-10.25s-1-3.5-1-3.5l1.25-3"></path><g><path style="fill:#505050;" d="M295.185,320.875c0,0-1.313-2.625-1.563-2.75c-3.063,1.563-7.813,3.938-7.125,4.375S295.185,320.875,295.185,320.875z"></path></g><path style="fill:#505050;" d="M285.093,298.498c0,0,0.168-3.499-0.332-4.333c-2.334,1.833-6.834,7.833-6.834,7.833S284.761,299.665,285.093,298.498z"></path></g></g></g><g><g><path style="fill:#6E6E6E;stroke:#000000;stroke-linecap:round;stroke-linejoin:round;" d="M237.832,288.75l-2.25-2.75l0.833-6.5c0,0-7,1.333-12.834,5.833c-1,10.834-1.333,17.667-1.333,17.667l-11.666,53.5c0,0,9.5,6,22.5,6.5L237.832,288.75z"></path><g><g><path style="fill:#6E6E6E;stroke:#000000;stroke-linecap:round;stroke-linejoin:round;" d="M215.488,330.583c0,0,11.073,0.369,11.442,1.107c-0.368,0.924-0.738,2.215-0.738,2.215s-5.352,2.953-7.382,2.953s-4.245-1.477-4.245-1.477S214.935,331.69,215.488,330.583z"></path></g></g></g><g><path style="fill:#6E6E6E;stroke:#000000;stroke-linecap:round;stroke-linejoin:round;" d="M262.082,288.75l2.25-2.75l-0.832-6.5c0,0,7,1.333,12.833,5.833c1,10.834,1.333,17.667,1.333,17.667l12.666,53.5c0,0-10.5,6-23.5,6.5L262.082,288.75z"></path><g><g><path style="fill:#6E6E6E;stroke:#000000;stroke-linecap:round;stroke-linejoin:round;" d="M284.426,330.583c0,0-11.073,0.369-11.442,1.107c0.368,0.924,0.738,2.215,0.738,2.215s5.352,2.953,7.382,2.953s4.245-1.477,4.245-1.477S284.979,331.69,284.426,330.583z"></path></g></g></g></g><g><g><g><circle style="fill:#FFBF00;stroke:#000000;stroke-linecap:round;stroke-linejoin:round;" cx="233.618" cy="294.968" r="2.75"></circle></g></g><g><g><circle style="fill:#FFBF00;stroke:#000000;stroke-linecap:round;stroke-linejoin:round;" cx="232.987" cy="305.574" r="2.75"></circle></g></g><g><g><circle style="fill:#FFBF00;stroke:#000000;stroke-linecap:round;stroke-linejoin:round;" cx="232.354" cy="316.181" r="2.75"></circle></g></g><g><g><circle style="fill:#FFBF00;stroke:#000000;stroke-linecap:round;stroke-linejoin:round;" cx="231.721" cy="326.787" r="2.75"></circle></g></g><g><g><circle style="fill:#FFBF00;stroke:#000000;stroke-linecap:round;stroke-linejoin:round;" cx="231.089" cy="337.393" r="2.75"></circle></g></g></g><g><g><g><polygon style="fill:#E4E0F3;stroke:#000000;stroke-linecap:round;stroke-linejoin:round;" points="233.132,277.333 240.299,279 240.132,280.898 233.799,284.398 "></polygon><polygon style="fill:#505050;stroke:#000000;stroke-linecap:round;stroke-linejoin:round;" points="235.132,277.833 235.966,283.667 233.299,283.333 232.632,277 "></polygon></g><g><path style="fill:#6E6E6E;stroke:#000000;stroke-linecap:round;stroke-linejoin:round;" d="M229.632,285c0,0,0.5-8,1-9c2.167,0.333,3,0.667,3,0.667s0.5,6.833,0.833,7.666"></path></g></g><g><g><polygon style="fill:#E4E0F3;stroke:#000000;stroke-linecap:round;stroke-linejoin:round;" points="266.868,277.333 259.702,279 259.868,280.898 266.202,284.398 "></polygon><polygon style="fill:#505050;stroke:#000000;stroke-linecap:round;stroke-linejoin:round;" points="264.868,277.833 264.035,283.667 266.702,283.333 267.368,277 "></polygon></g><g><path style="fill:#6E6E6E;stroke:#000000;stroke-linecap:round;stroke-linejoin:round;" d="M270.368,285c0,0-0.5-8-1-9c-2.166,0.333-3,0.667-3,0.667s-0.5,6.833-0.833,7.666"></path></g></g></g></g></g></svg>