<svg xmlns="http://www.w3.org/2000/svg" width="500" height="500" version="1.1"><g id="x130"><g><g><g><g><path style="fill:#6E6E6E;stroke:#000000;stroke-linecap:round;stroke-linejoin:round;" d="M222.792,286.667c0,0-2.834,0-3.5,0.833c-0.667,2.667-1.5,5-1.5,5l-2.667,3.167c0,0-0.5,2.667-0.5,4.5c-1.333,3.5-4.5,17.666-6,21.833c-1.833,4-11.833,24.667-12.833,27.5c3.833,2.5,15.733,7.833,15.733,7.833l11.6-24l7.167-35.5L222.792,286.667z"></path><path style="fill:#505050;" d="M215.292,300c0,0-0.167-3.499,0.333-4.333c2.333,1.833,6.833,7.833,6.833,7.833S215.625,301.167,215.292,300z"></path></g></g><g><g><path style="fill:#6E6E6E;stroke:#000000;stroke-linecap:round;stroke-linejoin:round;" d="M277.21,286.667c0,0,2.834,0,3.5,0.833c0.668,2.667,1.5,5,1.5,5l2.668,3.167c0,0,0.5,2.667,0.5,4.5c1.332,3.5,4.5,17.666,6,21.833c1.832,4,11.832,24.667,12.832,27.5c-3.832,2.5-15.732,7.833-15.732,7.833l-11.6-24l-7.168-35.5L277.21,286.667z"></path><path style="fill:#505050;" d="M284.71,300c0,0,0.168-3.499-0.332-4.333c-2.334,1.833-6.834,7.833-6.834,7.833S284.378,301.167,284.71,300z"></path></g></g></g><g><g><path style="fill:#6E6E6E;stroke:#000000;stroke-linecap:round;stroke-linejoin:round;" d="M236.641,411.167l5.167-122.667l-1.586-1.11l-0.414-5.89c-2.667,0-7.5,0.833-8.333,1.5l0.01,0.044c-3.621,1.144-7.336,2.548-9.177,3.956c0.333,15-1.667,20.833-1.667,20.833S207.442,365.5,206.442,407.5C209.442,411.083,236.641,411.167,236.641,411.167z"></path></g><g><path style="fill:#6E6E6E;stroke:#000000;stroke-linecap:round;stroke-linejoin:round;" d="M263.359,411.167L258.192,288.5l1.586-1.11l0.414-5.89c2.667,0,7.5,0.833,8.334,1.5l-0.011,0.044c3.621,1.144,7.336,2.548,9.177,3.956c-0.333,15,1.667,20.833,1.667,20.833s13.198,57.667,14.198,99.667C290.558,411.083,263.359,411.167,263.359,411.167z"></path></g></g><g><g><g><polygon style="fill:#E4E0F3;stroke:#000000;stroke-linecap:round;stroke-linejoin:round;" points="233.132,277.333 240.299,279 240.132,280.898 233.799,284.398 "></polygon><polygon style="fill:#505050;stroke:#000000;stroke-linecap:round;stroke-linejoin:round;" points="235.132,277.833 235.966,283.667 233.299,283.333 232.632,277 "></polygon></g><g><path style="fill:#6E6E6E;stroke:#000000;stroke-linecap:round;stroke-linejoin:round;" d="M229.632,285c0,0,0.5-8,1-9c2.167,0.333,3,0.667,3,0.667s0.5,6.833,0.833,7.666"></path></g></g><g><g><polygon style="fill:#E4E0F3;stroke:#000000;stroke-linecap:round;stroke-linejoin:round;" points="266.868,277.333 259.702,279 259.868,280.898 266.202,284.398 "></polygon><polygon style="fill:#505050;stroke:#000000;stroke-linecap:round;stroke-linejoin:round;" points="264.868,277.833 264.035,283.667 266.702,283.333 267.368,277 "></polygon></g><g><path style="fill:#6E6E6E;stroke:#000000;stroke-linecap:round;stroke-linejoin:round;" d="M270.368,285c0,0-0.5-8-1-9c-2.166,0.333-3,0.667-3,0.667s-0.5,6.833-0.833,7.666"></path></g></g></g><g><g><g><g><circle style="fill:#FFBF00;stroke:#000000;stroke-linecap:round;stroke-linejoin:round;" cx="237.584" cy="292.583" r="2.75"></circle></g></g></g><g><g><g><circle style="fill:#FFBF00;stroke:#000000;stroke-linecap:round;stroke-linejoin:round;" cx="236.834" cy="306.583" r="2.75"></circle></g></g></g><g><g><g><circle style="fill:#FFBF00;stroke:#000000;stroke-linecap:round;stroke-linejoin:round;" cx="236.084" cy="320.583" r="2.75"></circle></g></g></g><g><g><g><circle style="fill:#FFBF00;stroke:#000000;stroke-linecap:round;stroke-linejoin:round;" cx="235.334" cy="334.583" r="2.75"></circle></g></g></g><g><g><g><circle style="fill:#FFBF00;stroke:#000000;stroke-linecap:round;stroke-linejoin:round;" cx="234.584" cy="348.583" r="2.75"></circle></g></g></g></g></g></g></svg>