<svg xmlns="http://www.w3.org/2000/svg" width="500" height="500" version="1.1"><g id="x131"><g><g><g><path style="fill:#6E6E6E;stroke:#000000;stroke-linecap:round;stroke-linejoin:round;" d="M216.917,290.334c-0.5,0.5-7.5,9.499-10,13.499c-3.333,6.667-5.944,22.291-7.708,27.485c-0.863,0.377-2.678,1.312-2.959,2.015c-0.163,0.407-0.206,1.652-0.208,2.817c-2.346,3.497-6.792,20.018-6.792,20.018s-5.167,8.999-5.333,10.165c4.333,5.667,13.667,10.5,23.167,11.5c2.667-7,7.167-14.165,7.167-14.165l9.5-43.834L216.917,290.334z"></path><path style="fill:#505050;" d="M216.233,330.75c-0.375,0-6.726,2.432-11.875,1.5c5.25-5.125,9.25-11.5,9.625-13.875s2-17.125,3.5-19.625c0.875,9.625,2.25,23.375,2.25,23.375L216.233,330.75z"></path><path style="fill:#505050;" d="M209.358,335c0,0,1.667,4.333,1,8s-3,18.334-4.333,19.667c-0.167,2.333-0.5,5.333-0.667,6.333s-2.667,6.666-5.333,6.333c2,1.334,6.5,2.334,7.5,1.834c3.667-11.167,9.5-44.5,9.5-44.5L209.358,335z"></path><ellipse transform="matrix(0.9506 0.3103 -0.3103 0.9506 121.8708 -40.4828)" style="fill:#6E6E6E;stroke:#000000;stroke-linecap:round;stroke-linejoin:round;" cx="188.192" cy="362.857" rx="1.833" ry="2.501"></ellipse><path style="fill:none;stroke:#000000;stroke-linecap:round;stroke-linejoin:round;" d="M201.343,332.255c0,0,8.298,1.838,17.183-2.214"></path><path style="fill:none;stroke:#000000;stroke-linecap:round;stroke-linejoin:round;" d="M190.916,356.501c0,0,9.167,6.499,18.833,8.499"></path></g><g><path style="fill:#6E6E6E;stroke:#000000;stroke-linecap:round;stroke-linejoin:round;" d="M283.084,290.334c0.5,0.5,7.5,9.499,10,13.499c3.332,6.667,5.943,22.291,7.707,27.485c0.863,0.377,2.678,1.312,2.959,2.015c0.164,0.407,0.207,1.652,0.209,2.817c2.346,3.497,6.791,20.018,6.791,20.018s5.166,8.999,5.334,10.165c-4.334,5.667-13.668,10.5-23.168,11.5c-2.666-7-7.166-14.165-7.166-14.165l-9.5-43.834L283.084,290.334z"></path><path style="fill:#505050;" d="M283.768,330.75c0.375,0,6.725,2.432,11.875,1.5c-5.25-5.125-9.25-11.5-9.625-13.875s-2-17.125-3.5-19.625c-0.875,9.625-2.25,23.375-2.25,23.375L283.768,330.75z"></path><path style="fill:#505050;" d="M290.641,335c0,0-1.666,4.333-1,8c0.668,3.667,3.002,18.334,4.334,19.667c0.166,2.333,0.5,5.333,0.666,6.333c0.168,1,2.668,6.666,5.334,6.333c-2,1.334-6.5,2.334-7.5,1.834c-3.666-11.167-9.5-44.5-9.5-44.5L290.641,335z"></path><ellipse transform="matrix(-0.9507 0.3102 -0.3102 -0.9507 720.8002 611.079)" style="fill:#6E6E6E;stroke:#000000;stroke-linecap:round;stroke-linejoin:round;" cx="311.808" cy="362.857" rx="1.834" ry="2.5"></ellipse><path style="fill:none;stroke:#000000;stroke-linecap:round;stroke-linejoin:round;" d="M298.656,332.255c0,0-8.297,1.838-17.182-2.214"></path><path style="fill:none;stroke:#000000;stroke-linecap:round;stroke-linejoin:round;" d="M309.084,356.501c0,0-9.168,6.499-18.834,8.499"></path></g></g><g><g><g><g><path style="fill:#6E6E6E;stroke:#000000;stroke-linecap:round;stroke-linejoin:round;" d="M235.167,282.168c-5.333,0.334-14.167,5.333-18,8.166c-0.167,7.167,1.333,19.832,1.167,31.999C207.5,354.5,204,395,204,395s7.947-0.318,8.25-1c-0.5-1.25-0.583-2.833-1.25-4c10.667-6.5,42.168-4.333,44.834-4.999c-0.834-0.666-2.5-55.333-3.834-67c-4.666-5.5-6.667-23-7.5-25.333c-2.667-1.166-3.833-3.334-3.833-3.334L235.167,282.168z"></path><path style="fill:#505050;" d="M241,377.333c0,0,7.333,1.833,8.667,2s5-0.5,5-0.5l-0.5-7.5l-5.5-2.667L241,377.333z"></path><path style="fill:#505050;" d="M240,289.667c0,0,1.667,2,4,3.333c0.167,0.667,1,5.667,1,5.667s-15.5-7-16.5-7.167C231.333,289.5,240,289.667,240,289.667z"></path><path style="fill:none;stroke:#000000;stroke-linecap:round;stroke-linejoin:round;" d="M240.667,293.333C240.5,294,242,301.167,243,304.667"></path><path style="fill:#505050;" d="M249,326.5c0,0-8.667-9.833-9.667-16.5c3.833,2.833,9.333,9,9.333,9L249,326.5z"></path><g><path style="fill:none;stroke:#000000;stroke-linecap:round;stroke-linejoin:round;" d="M218.875,309.875c0,0,27.292-2.542,28.625-2.375"></path><path style="fill:none;stroke:#000000;stroke-linecap:round;stroke-linejoin:round;" d="M218.125,307.75c0,0,24.708-2.417,28.542-2.417"></path></g><path style="fill:none;stroke:#000000;stroke-linecap:round;stroke-linejoin:round;" d="M240,313.167c0.5,0.666,3.667,7.166,6.833,10.666"></path><path style="fill:none;stroke:#000000;stroke-linecap:round;stroke-linejoin:round;" d="M243.333,309c0,0,2.667,7.167,4,10.167"></path><path style="fill:none;stroke:#000000;stroke-linecap:round;stroke-linejoin:round;" d="M213,378.833c0,0,20-5.501,41.167-3.667"></path><path style="fill:none;stroke:#000000;stroke-linecap:round;stroke-linejoin:round;" d="M211.133,389.667c0,0,1.534-15,4.2-27.334"></path></g><path style="fill:#6E6E6E;stroke:#000000;stroke-linecap:round;stroke-linejoin:round;" d="M240.667,278.668c0,0-1.333,7.499,0.167,12.166c-2-0.166-4-0.666-4-0.666s-11.333,2.833-11,1.833c2-4,5.333-10.499,5.667-10.833S237.833,278.668,240.667,278.668z"></path></g></g><g><g><g><path style="fill:#6E6E6E;stroke:#000000;stroke-linecap:round;stroke-linejoin:round;" d="M265.002,282.168c5.333,0.334,14.166,5.333,18,8.166c0.166,7.167-1.169,24.332-1.002,36.499c1.952,9.301,4.063,18.443,6.658,30.044c0.263,1.173,2.069,4.397,2.342,5.623c0.944,4.248,2.167,18.583,1,26.75c-3-3.167-9.25-6.25-18.5-8c-8.534-3.216-22.388-3.762-23.167-3.917c-1.667-0.333-8.637,4.174-9.333,4c-0.333-2.667,1.667-42.666,7.168-63.332c4.666-5.5,6.667-23,7.5-25.333c2.668-1.166,3.834-3.334,3.834-3.334L265.002,282.168z"></path><path style="fill:#505050;" d="M276.833,332.625c0,0,9.666,23.5,11.5,25.5c-3.333,0.667-15.332-22.001-15.666-25.167C273.833,330.625,276.833,332.625,276.833,332.625z"></path><path style="fill:none;stroke:#000000;stroke-linecap:round;stroke-linejoin:round;" d="M258.333,309c0,0-4.166,9.833-6.333,15c-1.333,9.333-4,33.333-4.667,44.333"></path><path style="fill:none;stroke:#000000;stroke-linecap:round;stroke-linejoin:round;" d="M261.833,293c0,0-1.5,6.666-3.5,11.333"></path><path style="fill:none;stroke:#000000;stroke-linecap:round;stroke-linejoin:round;" d="M278.333,334.333c0.5,1.25,4.25,13.5,10.5,23.5"></path><g><path style="fill:none;stroke:#000000;stroke-linecap:round;stroke-linejoin:round;" d="M282,310.625c0,0-28.166-3.292-29.499-3.125"></path><path style="fill:none;stroke:#000000;stroke-linecap:round;stroke-linejoin:round;" d="M282.125,308.125c0,0-24.957-2.792-28.791-2.792"></path></g><path style="fill:none;stroke:#000000;stroke-linecap:round;stroke-linejoin:round;" d="M242,370.833c0,0,5-2.334,7.333-3c6,0.834,24.687,2.272,26.667,3.167c7.75,3.5,16.75,7.5,16.75,7.5"></path></g><path style="fill:#6E6E6E;stroke:#000000;stroke-linecap:round;stroke-linejoin:round;" d="M259.502,278.668c0,0,1.333,7.499-0.167,12.166c2-0.166,4-0.666,4-0.666s11.333,2.833,11,1.833c-2-4-5.333-10.499-5.667-10.833C268.335,280.834,262.336,278.668,259.502,278.668z"></path></g></g></g></g></g></svg>