<svg xmlns="http://www.w3.org/2000/svg" width="500" height="500" version="1.1"><g id="x133"><g><path style="fill:#6E6E6E;stroke:#000000;stroke-linecap:round;stroke-linejoin:round;" d="M274.979,313.167c0,0,0.167-5.5-1.683-12.333c-1.261-4.656-9.924-19.5-9.924-19.5s-0.926-0.584-1.347-0.084c1.397,4.027,6.522,18.58,7.233,23.084c-2.252,5.291-8.63,10.904-19.26,12.62c-10.63-1.716-17.008-7.329-19.26-12.62c0.71-4.504,5.835-19.057,7.233-23.084c-0.421-0.5-1.346,0.084-1.346,0.084s-8.664,14.844-9.925,19.5c-1.85,6.833-1.682,12.333-1.682,12.333s-0.252,10.75-2.271,20.666c5.034,3.43,24.903,3.111,27.25,3.012c2.346,0.1,22.216,0.418,27.25-3.012C275.231,323.917,274.979,313.167,274.979,313.167z"></path><g><g><rect x="247.666" y="317" style="fill:#6E6E6E;stroke:#000000;stroke-linecap:round;stroke-linejoin:round;" width="4.668" height="20.334"></rect><line style="fill:none;stroke:#000000;stroke-linecap:round;stroke-linejoin:round;" x1="250" y1="317.334" x2="250" y2="336.834"></line></g></g></g></g></svg>