<svg xmlns="http://www.w3.org/2000/svg" width="500" height="500" version="1.1"><g id="x009"><g><g><g><path style="fill:#6E6E6E;stroke:#000000;stroke-linecap:round;stroke-linejoin:round;" d="M212.372,360.452c0,0-3.429,15.561-4.483,21.362c0.527,3.164,4.219,5.274,6.065,6.33c0,0,4.88,6.189,6.713,6.356c6.5-7.75,7.667-22.833,9.111-31.147c2.109-10.021,2.722-80.229,2.722-80.229c-4,1.25-6.875,4.125-9.875,6.5c-2.11,0.264-5.167,2.765-6.75,4.875c-0.792,1.582,5.671,6.831,5.063,7.563c-1.319,1.582-4.028,3.75-5.875,3.75c0.5-1.563,1.625-4.188,1.625-4.188s-6.101,3.35-6.125,4.438c-0.063,2.813,1.313,4.875,1.313,4.875s-3.702,5.443-3.875,5.938c-0.528,2.109-0.667,3.876,0.125,6.25c0,0-9.375,15.313-13.688,26.875c0.527,6.856,4.577,15.849,5.896,17.167c1.318,2.11,4.75,4.667,4.75,4.667s1.25-2.5,2.25-9.083c2.637-5.274,3.25-7.084,3.25-7.084L212.372,360.452z"></path><path style="fill:#505050;" d="M222.938,290c-1.525,0.511-2.859,1.202-2.96,1.336c1.897,0.227,2.96,0.727,6.46,3.539c-0.528-4.22-1-7-1-7S223.5,289.688,222.938,290z"></path><path style="fill:#505050;" d="M212.404,317.466c0,0,0.414,1.54,3.172,1.355c2.758-0.184,4.597-2.941,4.597-2.941s-0.556,8.316-4.597,14.525C214.473,331.876,211.875,321.511,212.404,317.466z"></path><path style="fill:#505050;" d="M211.079,355.664c0,0,8.539-10.813,10.384-11.604c-1.055,3.692-8.736,15.89-8.736,15.89L211.079,355.664z"></path><path style="fill:none;stroke:#000000;stroke-linecap:round;stroke-linejoin:round;" d="M212.305,360.549c0,0,6.066-8.967,8.175-14.241"></path><path style="fill:none;stroke:#000000;stroke-linecap:round;stroke-linejoin:round;" d="M212.636,324.059c0.302,1.316,1.828,5.609,2.677,7.316"></path><path style="fill:none;stroke:#000000;stroke-linecap:round;stroke-linejoin:round;" d="M210.467,356.001l7.7-14.834c-1.847-2.109-4.213-6.823-4.213-6.823s7.121-10.813,7.121-26.109"></path></g><g><g><path style="fill:#6E6E6E;stroke:#000000;stroke-linecap:round;stroke-linejoin:round;" d="M294.364,328.97c0,0,2.761,2.655,4.886,6.28c0.362,0.618,1.658,7.038,3.125,10.625c1.774,4.337,3.825,6.112,5.125,9c2.373,5.274-4.169,19.72-5.224,24.731c-1.055,5.01-5.389,10.145-8.026,12.519c-3.955-0.265-10.75-31.25-10.75-31.25l-6.25-25.625C277.25,335.25,292.518,328.443,294.364,328.97z"></path><path style="fill:#505050;" d="M299.902,368.528c0,0,2.638,8.44,0.264,11.868c-2.373,3.429-6.329,11.076-6.593,10.286C293.31,389.891,296.474,370.375,299.902,368.528z"></path></g><g><path style="fill:#6E6E6E;stroke:#000000;stroke-linecap:round;stroke-linejoin:round;" d="M282.259,310.081c-0.791,0.264-6.856,5.01-9.23,10.285c-1.195,7.467-1.528,36.3,2.11,49.844c3.955,7.648,11.128,15.9,14.028,16.956c1.166-9-0.917-16.916-0.917-16.916L280,340.375c0,0,10.75-9.75,15.125-10.875c0.5-2.25,0.125-3.875,0.125-3.875s-1.918-4.334-3.5-5.125c0-2,0-3.5-0.125-6.25c-2.625-4.125-5.875-6.375-5.875-6.375L282.259,310.081z"></path><path style="fill:none;stroke:#000000;stroke-linecap:round;stroke-linejoin:round;" d="M280,340.375c0,0-3.875-13.25-4.125-14.75"></path><path style="fill:#505050;" d="M291.25,319c0,0.313,0,0.938,0.014,1.733c0.443,0.418,0.852,0.763,0.852,0.763s-0.923,6.065-5.143,7.648c-4.22,1.582-7.384,3.956-7.12,3.164c0.263-0.791,1.582-5.802,3.164-7.12C284.115,324.272,288.816,320.174,291.25,319z"></path></g></g></g></g></g></svg>