<svg xmlns="http://www.w3.org/2000/svg" width="500" height="500" version="1.1"><g id="x136"><g><g><g><path style="fill:#6E6E6E;stroke:#000000;stroke-linecap:round;stroke-linejoin:round;" d="M235.75,280.667c-0.334,1-4.167,49.333-5.5,53.333s-11.333,34.667-11.333,34.667s-10.833-5.334-11.5-6.167c3.333-13.833,9.5-24,9.833-24.667c0.166-1.667-0.834-6.333-0.667-7.333s5.167-8.666,5.167-8.833c0.333-1.334-0.666-32.667-0.333-33.834C222.25,285.999,235.75,280.667,235.75,280.667z"></path><path style="fill:#505050;" d="M222.458,293.25c0.125,0.375,0.625,5.875,1.25,6s9.375,1.625,9.25,1.125S222.458,293.25,222.458,293.25z"></path><path style="fill:#505050;" d="M222.458,316.25c0,0-0.125,5.125,0,5.625s7.375,11.375,7.375,11.375L222.458,316.25z"></path><path style="opacity:0.8;fill:#FFFFFF;" d="M222.917,287.167c0,0,3.166,1.999,5.833,1.166s6-6.166,6-6.166L222.917,287.167z"></path><path style="opacity:0.8;fill:#FFFFFF;" d="M217.25,330.333c0,0,0.5,6.5,1.167,7.5c0.666,1,11.333-6,10.5-5.833c-0.834,0.167-8.667,1.167-9.167,0.5S217.25,330.333,217.25,330.333z"></path><path style="fill:none;stroke:#000000;stroke-linecap:round;stroke-linejoin:round;" d="M224.917,320.333L224.083,324c0,0-3.499,6.834-3.666,7.667s-0.5,8-0.5,8s-6.333,15.5-7.5,19.833"></path><path style="fill:none;stroke:#000000;stroke-linecap:round;stroke-linejoin:round;" d="M209.083,358.333c0,0,8.5,4.167,11,5.167"></path></g><g><path style="fill:#6E6E6E;stroke:#000000;stroke-linecap:round;stroke-linejoin:round;" d="M235.75,280.667c0,0-10,5.166-14.333,12c5.166,4,7.666,5.5,9.333,6.666c-3.333,1.334-11.167,7.333-12,8.667c1,3.834,10.833,21.167,11.5,26C232.25,326.667,235.75,280.667,235.75,280.667z"></path><path style="opacity:0.8;fill:#FFFFFF;" d="M231.917,301.667c-0.5,0.166-3.334,3.666-3.834,4.666s-0.833,4.001-0.166,3.834c0.666-0.167,4.666-3,4.666-3c-0.5,2.333-0.333,7.499-0.666,8.166c-0.334,0.667-4.5,6.834-5.5,6.667c-1.334-1-2.167-4.833-2.167-5.333s0.667-3,0.167-4s-3-3.167-3-3.167L231.917,301.667z"></path><path style="opacity:0.8;fill:#FFFFFF;" d="M224.083,292.833c0,0,8.5,6.667,9.167,8.667c0.5-3.333-0.167-8.333-0.167-8.333s-0.166,1.834-2.666,1.5S224.083,292.833,224.083,292.833z"></path><circle style="fill:#505050;stroke:#000000;stroke-linecap:round;stroke-linejoin:round;" cx="223.833" cy="308.417" r="1.25"></circle><circle style="fill:#505050;stroke:#000000;stroke-linecap:round;stroke-linejoin:round;" cx="227.333" cy="292.25" r="1.25"></circle><path style="fill:none;stroke:#000000;stroke-linecap:round;stroke-linejoin:round;" d="M230.917,330.5c0.333-0.5-8-19.501-9.834-22.167c0.667-1.166,12.5-9.166,12.5-9.166l-9.666-7c2.333-2.667,9.333-7.5,11.333-9.167"></path></g></g><g><g><path style="fill:#6E6E6E;stroke:#000000;stroke-linecap:round;stroke-linejoin:round;" d="M264.251,280.5c0.333,1,4.166,49.333,5.5,53.333c1.332,4,11.332,34.667,11.332,34.667s10.834-5.334,11.5-6.167c-3.332-13.833-9.5-24-9.832-24.667c-0.167-1.667,0.833-6.333,0.666-7.333s-5.166-8.666-5.166-8.833c-0.334-1.334,0.666-32.667,0.332-33.834C277.751,285.832,264.251,280.5,264.251,280.5z"></path><path style="fill:#505050;" d="M277.542,293.083c-0.125,0.375-0.625,5.875-1.25,6s-9.375,1.625-9.25,1.125S277.542,293.083,277.542,293.083z"></path><path style="fill:#505050;" d="M277.542,316.083c0,0,0.125,5.125,0,5.625s-7.375,11.375-7.375,11.375L277.542,316.083z"></path><path style="opacity:0.8;fill:#FFFFFF;" d="M277.083,287c0,0-3.166,1.999-5.832,1.166c-2.668-0.833-6-6.166-6-6.166L277.083,287z"></path><path style="opacity:0.8;fill:#FFFFFF;" d="M282.751,330.166c0,0-0.501,6.5-1.168,7.5c-0.666,1-11.333-6-10.5-5.833c0.834,0.167,8.668,1.167,9.168,0.5S282.751,330.166,282.751,330.166z"></path><path style="fill:none;stroke:#000000;stroke-linecap:round;stroke-linejoin:round;" d="M275.083,320.166l0.834,3.667c0,0,3.5,6.834,3.666,7.667c0.168,0.833,0.5,8,0.5,8s6.334,15.5,7.5,19.833"></path><path style="fill:none;stroke:#000000;stroke-linecap:round;stroke-linejoin:round;" d="M290.917,358.166c0,0-8.5,4.167-11,5.167"></path></g><g><path style="fill:#6E6E6E;stroke:#000000;stroke-linecap:round;stroke-linejoin:round;" d="M264.251,280.5c0,0,10,5.166,14.332,12c-5.166,4-7.666,5.5-9.332,6.666c3.332,1.334,11.166,7.333,12,8.667c-1,3.834-10.834,21.167-11.5,26C267.751,326.5,264.251,280.5,264.251,280.5z"></path><path style="opacity:0.8;fill:#FFFFFF;" d="M268.083,301.5c0.5,0.166,3.334,3.666,3.834,4.666s0.833,4.001,0.166,3.834c-0.666-0.167-4.666-3-4.666-3c0.5,2.333,0.333,7.499,0.666,8.166c0.334,0.667,4.5,6.834,5.5,6.667c1.334-1,2.168-4.833,2.168-5.333s-0.668-3-0.168-4s3-3.167,3-3.167L268.083,301.5z"></path><path style="opacity:0.8;fill:#FFFFFF;" d="M275.917,292.666c0,0-8.5,6.667-9.166,8.667c-0.5-3.333,0.166-8.333,0.166-8.333s0.166,1.834,2.666,1.5S275.917,292.666,275.917,292.666z"></path><circle style="fill:#505050;stroke:#000000;stroke-linecap:round;stroke-linejoin:round;" cx="276.167" cy="308.25" r="1.25"></circle><circle style="fill:#505050;stroke:#000000;stroke-linecap:round;stroke-linejoin:round;" cx="272.667" cy="292.083" r="1.25"></circle><path style="fill:none;stroke:#000000;stroke-linecap:round;stroke-linejoin:round;" d="M269.083,330.333c-0.333-0.5,8-19.501,9.834-22.167c-0.666-1.166-12.5-9.166-12.5-9.166l9.666-7c-2.333-2.667-9.332-7.5-11.332-9.167"></path></g></g></g></g></svg>