<svg xmlns="http://www.w3.org/2000/svg" width="500" height="500" version="1.1"><g id="x137"><g><g><g><g><path style="fill:#6E6E6E;stroke:#000000;stroke-linecap:round;stroke-linejoin:round;" d="M279.125,330c0,0,1-2.125,0.75-2.875c-0.5-1.25-1.5-3-1.5-3s-0.375-0.625-0.625-5.5c-0.25-8.375-5.25-27.75-5.25-27.75l-8.625-0.375c0,0-7.125,22.125-18.875,24c0.625,3.375,1.875,8.5,2.75,11.5c0.125,3.375,0.5,6.625,0.125,11.125c2.375,2.625,15.875,7.875,16.5,7.875s8.75-9.5,9.125-9.375S283.875,352,287.375,366.25C286.5,352,282.875,336.875,279.125,330z"></path><path style="fill:#505050;" d="M279.535,327c0,0-0.375,2.375-0.875,3c-0.875,0.75-3.875,0.75-4.875,0.375C274.41,328.875,279.535,327,279.535,327z"></path><path style="fill:none;stroke:#000000;stroke-linecap:round;stroke-linejoin:round;" d="M264.25,302.875c0,0.375,1.5,15.875,0.75,24.75c0.625,1.375,0.75,12.875,0,16.625"></path></g><g><path style="fill:#FFFFFF;stroke:#000000;stroke-linecap:round;stroke-linejoin:round;" d="M264.25,281.75c0,0-3.125,23.375-19.375,32.75c5.75,0.75,25.625-5.375,29.125-16.5c-3.375-3.375-6.875-5.875-6.875-5.875s7.125,0.125,7.5-0.125c0.125-1.25-2-7.5-3-9c-2.75-1.5-7.125-3.375-7.125-3.375l-2.375,1.625L264.25,281.75z"></path><line style="fill:none;stroke:#000000;stroke-linecap:round;stroke-linejoin:round;" x1="267.875" y1="292.574" x2="264" y2="290.199"></line></g></g><g><g><path style="fill:#6E6E6E;stroke:#000000;stroke-linecap:round;stroke-linejoin:round;" d="M220.875,330c0,0-1-2.125-0.75-2.875c0.5-1.25,1.5-3,1.5-3s0.375-0.625,0.625-5.5c0.25-8.375,5.25-27.75,5.25-27.75l8.625-0.375c0,0,7.125,22.125,18.875,24c-0.291,8.834-0.625,15.167-1.625,22.5c-2.375,2.625-17.125,8-17.75,8s-8.75-9.5-9.125-9.375S216.125,352,212.625,366.25C213.5,352,217.125,336.875,220.875,330z"></path><g><path style="fill:#505050;" d="M220.462,327c0,0,0.375,2.375,0.875,3c0.875,0.75,3.875,0.75,4.875,0.375C225.587,328.875,220.462,327,220.462,327z"></path></g><path style="fill:none;stroke:#000000;stroke-linecap:round;stroke-linejoin:round;" d="M235.75,302.875c0,0.375-1.5,15.875-0.75,24.75c-0.625,1.375-0.75,12.875,0,16.625"></path></g><g><path style="fill:#FFFFFF;stroke:#000000;stroke-linecap:round;stroke-linejoin:round;" d="M235.75,281.75c0,0,3.125,23.375,19.375,32.75c-5.75,0.75-25.625-5.375-29.125-16.5c3.375-3.375,6.875-5.875,6.875-5.875s-7.125,0.125-7.5-0.125c-0.125-1.25,2-7.5,3-9c2.75-1.5,7.125-3.375,7.125-3.375l2.375,1.625L235.75,281.75z"></path><line style="fill:none;stroke:#000000;stroke-linecap:round;stroke-linejoin:round;" x1="232.125" y1="292.574" x2="236" y2="290.199"></line></g></g></g><path style="fill:none;stroke:#000000;stroke-linecap:round;stroke-linejoin:round;" d="M245.083,331.833c0.25,0,5.334-2.584,7.5-4.917"></path><circle style="fill:#FFFFFF;stroke:#000000;stroke-linecap:round;stroke-linejoin:round;" cx="249.375" cy="326.5" r="4"></circle></g></g></svg>