<svg xmlns="http://www.w3.org/2000/svg" width="500" height="500" version="1.1"><g id="x138"><g><g><path style="fill:#6E6E6E;stroke:#000000;stroke-linecap:round;stroke-linejoin:round;" d="M226.5,301.667l-8.333-12.333c0,0-7.5,23.834-9.167,29.5c-2.145,5.496-13.333,27.666-13.583,29.666c4.25,4.75,18.25,9.75,18.25,9.75L226.333,324L226.5,301.667z"></path><g><path style="fill:#505050;" d="M221.3,295.875c0,0,3.042,6.418,3.458,7.959s-1.083,15.791-1.083,15.791s-4.125-8-4.25-10.875S221.3,295.875,221.3,295.875z"></path></g><g><path style="fill:#6E6E6E;stroke:#000000;stroke-linecap:round;stroke-linejoin:round;" d="M236.333,327.501C235.167,331.834,228.167,343,227,344.5c-2.5-0.666-8.667-4.667-9-6.333c1.5-4.333,5-11.5,5-11.5s1.667-20.333,1.833-22.833c-1-5.5-6.667-14.5-6.667-14.5c0.667-1.167,10.5-6.168,15.667-7.834C233.833,281.5,236.022,326.567,236.333,327.501z"></path><g><path style="fill:#505050;" d="M224.825,309.625c0,0,7.375,20.125,9,22.375c1.25-1.75,2.5-6.5,2.5-6.5C236.325,325.125,224.825,309.625,224.825,309.625z"></path></g><path style="fill:#6E6E6E;stroke:#000000;stroke-linecap:round;stroke-linejoin:round;" d="M236.533,327.2c0,0-10.366-14.033-15.033-21.2c2.5-3.5,10.167-9.166,10.167-9.166s-10.167-4.334-11-4.667c0.667-1.667,10.5-10.999,11.5-11.833c2-0.834,5.167-0.667,5.167-0.667l-0.333,2C237,281.667,236.5,315.167,236.533,327.2z"></path><g><ellipse style="fill:#F0E670;stroke:#000000;stroke-linecap:round;stroke-linejoin:round;" cx="225.333" cy="317.25" rx="1.833" ry="2.917"></ellipse><ellipse style="fill:#C9A670;" cx="225.583" cy="318.25" rx="0.917" ry="1.417"></ellipse><ellipse transform="matrix(0.9918 0.1278 -0.1278 0.9918 43.7816 -25.9861)" style="fill:#F0E670;stroke:#000000;stroke-linecap:round;stroke-linejoin:round;" cx="224.333" cy="328.084" rx="1.833" ry="2.917"></ellipse><ellipse transform="matrix(0.9873 0.1588 -0.1588 0.9873 55.0937 -31.4353)" style="fill:#C9A670;" cx="224.271" cy="329.063" rx="0.916" ry="1.417"></ellipse><ellipse transform="matrix(0.9433 0.3318 -0.3318 0.9433 125.0668 -54.3401)" style="fill:#F0E670;stroke:#000000;stroke-linecap:round;stroke-linejoin:round;" cx="221.667" cy="339.084" rx="1.834" ry="2.917"></ellipse><ellipse transform="matrix(0.9636 0.2675 -0.2675 0.9636 98.9852 -46.8143)" style="fill:#C9A670;" cx="221.334" cy="339.938" rx="0.916" ry="1.418"></ellipse></g></g></g><g><path style="fill:#6E6E6E;stroke:#000000;stroke-linecap:round;stroke-linejoin:round;" d="M273.5,301.667l8.333-12.333c0,0,7.5,23.834,9.167,29.5c2.146,5.496,13.333,27.666,13.583,29.666c-4.25,4.75-18.25,9.75-18.25,9.75L273.667,324L273.5,301.667z"></path><path style="fill:#505050;" d="M278.7,295.875c0,0-3.042,6.418-3.459,7.959c-0.416,1.541,1.084,15.791,1.084,15.791s4.125-8,4.25-10.875S278.7,295.875,278.7,295.875z"></path><g><path style="fill:#6E6E6E;stroke:#000000;stroke-linecap:round;stroke-linejoin:round;" d="M263.667,327.501c1.166,4.333,8.166,15.499,9.333,16.999c2.5-0.666,8.667-4.667,9-6.333c-1.5-4.333-5-11.5-5-11.5s-1.667-20.333-1.833-22.833c1-5.5,6.666-14.5,6.666-14.5c-0.666-1.167-10.5-6.168-15.666-7.834C266.167,281.5,263.978,326.567,263.667,327.501z"></path><path style="fill:#505050;" d="M275.175,309.625c0,0-7.375,20.125-9,22.375c-1.25-1.75-2.5-6.5-2.5-6.5C263.675,325.125,275.175,309.625,275.175,309.625z"></path><path style="fill:#6E6E6E;stroke:#000000;stroke-linecap:round;stroke-linejoin:round;" d="M263.467,327.2c0,0,10.366-14.033,15.033-21.2c-2.5-3.5-10.167-9.166-10.167-9.166s10.166-4.334,11-4.667c-0.666-1.667-10.5-10.999-11.5-11.833c-2-0.834-5.166-0.667-5.166-0.667l0.333,2C263,281.667,263.499,315.167,263.467,327.2z"></path><g><ellipse style="fill:#F0E670;stroke:#000000;stroke-linecap:round;stroke-linejoin:round;" cx="274.667" cy="317.25" rx="1.833" ry="2.917"></ellipse><ellipse style="fill:#C9A670;" cx="274.417" cy="318.25" rx="0.917" ry="1.417"></ellipse><ellipse transform="matrix(-0.9918 0.1278 -0.1278 -0.9918 591.0132 618.236)" style="fill:#F0E670;stroke:#000000;stroke-linecap:round;stroke-linejoin:round;" cx="275.667" cy="328.084" rx="1.833" ry="2.917"></ellipse><ellipse transform="matrix(-0.9873 0.1588 -0.1588 -0.9873 600.2087 610.1702)" style="fill:#C9A670;" cx="275.729" cy="329.063" rx="0.916" ry="1.417"></ellipse><ellipse transform="matrix(-0.9434 0.3318 -0.3318 -0.9434 653.3981 566.623)" style="fill:#F0E670;stroke:#000000;stroke-linecap:round;stroke-linejoin:round;" cx="278.333" cy="339.084" rx="1.834" ry="2.917"></ellipse><ellipse transform="matrix(-0.9636 0.2674 -0.2674 -0.9636 638.084 592.9822)" style="fill:#C9A670;" cx="278.667" cy="339.938" rx="0.917" ry="1.418"></ellipse></g></g></g></g></g></svg>