<svg xmlns="http://www.w3.org/2000/svg" width="500" height="500" version="1.1"><g id="x9131"><g><g><g><path style="fill:#E4E0F3;stroke:#000000;stroke-linecap:round;stroke-linejoin:round;" d="M193.005,413.25c0,1.75-0.5,7.75-1,9.75s-8.75,30.75-8.75,44.25c-3.25-4.5-5.25-8.25-5.25-8.25s-2.25-14.25,2-29.25C185.755,420,193.005,413.25,193.005,413.25z"></path><path style="fill:#505050;stroke:#000000;stroke-linecap:round;stroke-linejoin:round;" d="M193.005,419.25c0,0-4.5,6-8,25.5c-1.697,4.528-6.759,9.283-7.25,13c-3-11.25,6.75-49.75,12.5-58C193.255,404.5,193.005,419.25,193.005,419.25z"></path><path style="fill:#E4E0F3;stroke:#000000;stroke-linecap:round;stroke-linejoin:round;" d="M190.255,399.75c0,0-7.25,18-8.5,23c0-11.75,2.75-29,4.75-32.5C189.005,395,190.255,399.75,190.255,399.75z"></path></g><g><path style="fill:#FFFFFF;stroke:#000000;stroke-linecap:round;stroke-linejoin:round;" d="M195.219,347.682c-0.424,1.328-0.831,2.611-1.214,3.818c-2.25,3.5-13.25,12.75-14.5,15.25c1.75,12,7.5,22.75,7.5,22.75s2.5,13.25,10.75,22.75c5.25-15.874,13.605-18.523,21.355-56.523L195.219,347.682z"></path><g><path style="fill:#E4E0F3;" d="M194.259,353.25c0,0-13.25,11.25-14,14c1.5,3.25,14.977,30,14.727,29s-7.022-17.875-8.5-27.625C184.987,358.738,194.259,353.25,194.259,353.25z"></path></g><g><path style="fill:#6E6E6E;stroke:#000000;stroke-linecap:round;stroke-linejoin:round;" d="M181.755,368c0,0-5.25,5.75-7,9.25c2,5.5,19,27,19.75,29.25s-1,9.5-1,9.5s4.25-7.5,4.5-9.5S183.255,370.75,181.755,368z"></path><path style="fill:#505050;" d="M181.73,369.051c0,0,13.399,26.949,14.774,33.949c-4.625-10-17.649-30.699-17.649-30.699S180.98,369.426,181.73,369.051z"></path></g></g></g><g><g><path style="fill:#E4E0F3;stroke:#000000;stroke-linecap:round;stroke-linejoin:round;" d="M306.995,413.25c0,1.75,0.5,7.75,1,9.75s8.75,30.75,8.75,44.25c3.25-4.5,5.25-8.25,5.25-8.25s2.25-14.25-2-29.25C314.245,420,306.995,413.25,306.995,413.25z"></path><path style="fill:#505050;stroke:#000000;stroke-linecap:round;stroke-linejoin:round;" d="M306.995,419.25c0,0,4.5,6,8,25.5c1.697,4.528,6.76,9.283,7.25,13c3-11.25-6.75-49.75-12.5-58C306.745,404.5,306.995,419.25,306.995,419.25z"></path><path style="fill:#E4E0F3;stroke:#000000;stroke-linecap:round;stroke-linejoin:round;" d="M309.745,399.75c0,0,7.25,18,8.5,23c0-11.75-2.75-29-4.75-32.5C310.995,395,309.745,399.75,309.745,399.75z"></path></g><g><path style="fill:#FFFFFF;stroke:#000000;stroke-linecap:round;stroke-linejoin:round;" d="M304.781,347.682c0.424,1.328,0.831,2.611,1.214,3.818c2.25,3.5,13.25,12.75,14.5,15.25c-1.75,12-7.5,22.75-7.5,22.75s-2.5,13.25-10.75,22.75c-5.25-15.874-13.605-18.523-21.355-56.523L304.781,347.682z"></path><g><path style="fill:#E4E0F3;" d="M305.741,353.25c0,0,13.25,11.25,14,14c-1.5,3.25-14.977,30-14.727,29s7.023-17.875,8.5-27.625C315.013,358.738,305.741,353.25,305.741,353.25z"></path></g><g><path style="fill:#6E6E6E;stroke:#000000;stroke-linecap:round;stroke-linejoin:round;" d="M318.245,368c0,0,5.25,5.75,7,9.25c-2,5.5-19,27-19.75,29.25s1,9.5,1,9.5s-4.25-7.5-4.5-9.5S316.745,370.75,318.245,368z"></path><path style="fill:#505050;" d="M318.271,369.051c0,0-13.4,26.949-14.775,33.949c4.625-10,17.65-30.699,17.65-30.699S319.021,369.426,318.271,369.051z"></path></g></g></g></g><g><g><polygon style="fill:#6E6E6E;stroke:#000000;stroke-linecap:round;stroke-linejoin:round;" points="223.125,284.25 219.542,287.578 297.375,387.752 300.125,384.25 "></polygon><path style="fill:#FFFFFF;stroke:#000000;stroke-linecap:round;stroke-linejoin:round;" d="M218.875,285.625l80,102.375c0,0-5,5-17.75,28.75c-37.5-63-72.25-111.5-72.25-111.5S210.125,297,218.875,285.625z"></path><g><path style="fill:#E4E0F3;" d="M296.511,388.25c0,0-15.5,24.25-15.5,26.25c-3-6.25-11.5-17.75-11-20.5s15.5-6.5,17.5-8.75s2.25-5.75,2.25-5.75L296.511,388.25z"></path></g><path style="fill:#E4E0F3;" d="M265.209,343.5c0,0-3.834,19.833-9,30.5c-3.333-4.666-9.334-14-9.334-14L265.209,343.5z"></path><path style="fill:#E4E0F3;" d="M239.375,315.667c-0.667,1-4,28.333-4,32.333c14-13.334,14.5-20,14.5-20L239.375,315.667z"></path><g><path style="fill:#FFFFFF;stroke:#000000;stroke-linecap:round;stroke-linejoin:round;" d="M193.875,352c6.536-28.182,12.621-41.106,14-43.75c0,0,12,13.25,13.75,15.5s2.417,10.25,2.417,10.25s-1.667,11.25-5.167,22.25"></path></g><g><path style="fill:#E4E0F3;" d="M200.225,353.25c2.5,0,10.5,3.25,14,0.25s5.75-11.75,5.75-11.75l1.75-0.5c0,0-6.85,33-9.85,35.75C211.625,366.125,202.186,356.736,200.225,353.25z"></path></g><path style="fill:#E4E0F3;" d="M214.875,317c0,0,8.667,9,8.667,14.667c-1,6-3,15-3,15L214.875,317z"></path><g><path style="fill:#FFFFFF;stroke:#000000;stroke-linecap:round;stroke-linejoin:round;" d="M306.125,352c-6.536-28.182-12.621-41.106-14-43.75c0,0-12,13.25-13.75,15.5S275.958,334,275.958,334s1.667,11.25,5.167,22.25"></path></g><g><path style="fill:#E4E0F3;" d="M285.775,353.5c-3.5-3-5.75-11.75-5.75-11.75l-1.75-0.5c0,0,1.995,9.61,4.304,18.891l7.042,9.496c2.792-7.596,8.654-13.721,10.154-16.387C297.275,353.25,289.275,356.5,285.775,353.5z"></path></g><path style="fill:#E4E0F3;" d="M285.125,317c0,0-8.667,9-8.667,14.667c1,6,3,15,3,15L285.125,317z"></path><g><path style="fill:#6E6E6E;stroke:#000000;stroke-linecap:round;stroke-linejoin:round;" d="M224.875,316c0.375,0.375,1.942,1.434,1.75,2.25c-0.5,2.125-4.875,17.375-4.875,17.375s-2.625-0.375-2.625-1.25S224.875,316,224.875,316z"></path><path style="fill:#6E6E6E;stroke:#000000;stroke-linecap:round;stroke-linejoin:round;" d="M212.125,300.75c0.375,0.375,1.942,1.434,1.75,2.25c-0.5,2.125-4.875,17.375-4.875,17.375s-2.625-0.375-2.625-1.25S212.125,300.75,212.125,300.75z"></path><path style="fill:#6E6E6E;stroke:#000000;stroke-linecap:round;stroke-linejoin:round;" d="M218.125,306.75c0.375,0.375,1.942,1.434,1.75,2.25c-0.5,2.125-4.875,17.375-4.875,17.375s-2.625-0.375-2.625-1.25S218.125,306.75,218.125,306.75z"></path><path style="fill:#6E6E6E;stroke:#000000;stroke-linecap:round;stroke-linejoin:round;" d="M218.157,306.649c0.225,0.48,1.338,2.009,0.88,2.711c-1.193,1.828-10.169,12.063-10.169,12.063s-2.341-1.246-2.043-2.068C207.122,318.532,218.157,306.649,218.157,306.649z"></path><path style="fill:#6E6E6E;stroke:#000000;stroke-linecap:round;stroke-linejoin:round;" d="M224.733,313.984c0.196,0.493,1.215,2.086,0.715,2.76c-1.301,1.753-10.879,11.428-10.879,11.428s-2.261-1.385-1.914-2.188C213.001,325.181,224.733,313.984,224.733,313.984z"></path></g><g><path style="fill:#6E6E6E;stroke:#000000;stroke-linecap:round;stroke-linejoin:round;" d="M275.125,316c-0.375,0.375-1.942,1.434-1.75,2.25c0.5,2.125,4.875,17.375,4.875,17.375s2.625-0.375,2.625-1.25S275.125,316,275.125,316z"></path><path style="fill:#6E6E6E;stroke:#000000;stroke-linecap:round;stroke-linejoin:round;" d="M287.875,300.75c-0.375,0.375-1.942,1.434-1.75,2.25c0.5,2.125,4.875,17.375,4.875,17.375s2.625-0.375,2.625-1.25S287.875,300.75,287.875,300.75z"></path><path style="fill:#6E6E6E;stroke:#000000;stroke-linecap:round;stroke-linejoin:round;" d="M281.875,306.75c-0.375,0.375-1.942,1.434-1.75,2.25c0.5,2.125,4.875,17.375,4.875,17.375s2.625-0.375,2.625-1.25S281.875,306.75,281.875,306.75z"></path><path style="fill:#6E6E6E;stroke:#000000;stroke-linecap:round;stroke-linejoin:round;" d="M281.843,306.649c-0.225,0.48-1.338,2.009-0.88,2.711c1.193,1.828,10.17,12.063,10.17,12.063s2.341-1.246,2.043-2.068C292.878,318.532,281.843,306.649,281.843,306.649z"></path><path style="fill:#6E6E6E;stroke:#000000;stroke-linecap:round;stroke-linejoin:round;" d="M275.267,313.984c-0.195,0.493-1.215,2.086-0.715,2.76c1.302,1.753,10.879,11.428,10.879,11.428s2.262-1.385,1.914-2.188C286.999,325.181,275.267,313.984,275.267,313.984z"></path></g></g><g><polygon style="fill:#6E6E6E;stroke:#000000;stroke-linecap:round;stroke-linejoin:round;" points="276.875,284.25 280.458,287.578 202.625,387.752 199.875,384.25 "></polygon><path style="fill:#FFFFFF;stroke:#000000;stroke-linecap:round;stroke-linejoin:round;" d="M281.125,285.625l-80,102.375c0,0,5,5,17.75,28.75c37.5-63,72.25-111.5,72.25-111.5S289.875,297,281.125,285.625z"></path><g><path style="fill:#E4E0F3;" d="M203.489,388.25c0,0,15.5,24.25,15.5,26.25c3-6.25,11.5-17.75,11-20.5s-15.5-6.5-17.5-8.75s-2.25-5.75-2.25-5.75L203.489,388.25z"></path></g></g></g></g></svg>