<svg xmlns="http://www.w3.org/2000/svg" width="500" height="500" version="1.1"><g id="x9132"><g><g><path style="fill:#6E6E6E;stroke:#000000;stroke-linecap:round;stroke-linejoin:round;" d="M295.583,325.053c1.295-1.395,3.063-3.349,5.167-5.803c-1-3.75-11.25-11.25-11.25-11.25l0.17,1.139c-2.021-5.545-3.892-10.843-4.438-12.889c0-1.334-7.084-5.25-7.084-5.25l4.046,39.755l10.506-4.465l0.55,1.21c0,0,0.851-0.852,2.315-2.428l0.021-0.01C295.586,325.06,295.584,325.056,295.583,325.053z"></path><g><path style="fill:#E3E3AF;" d="M291.075,316.875c0,0,1.313,0.813,1.563,1.5s0.625,1.875,0.625,1.875s-1.5-1.688-2.813-1.688s-3.25,4.375-7.125,4.875c-0.188-1.438-0.25-2.063-0.25-2.063s4.563-1.063,5.375-2.938S291.075,316.875,291.075,316.875z"></path><path style="fill:#E3E3AF;" d="M297.875,315.969l-1.656-1.719c0,0-8.969,0.906-12.769,5.313c-0.063,1.438,0.063,1.75,0.063,1.75S289.438,315.75,297.875,315.969z"></path><path style="fill:#E3E3AF;" d="M288.45,319.875c0,0,1.563-0.25,2.625,0.438s0.688,2.438-0.75,3.188c0.125-1.25,0.816-1.695-0.313-2.625c-1.063-0.875-3-0.25-3-0.25L288.45,319.875z"></path><path style="fill:#E3E3AF;" d="M286.95,321.313c0,0,1.938-0.125,2.625,0.438s1.75,1.938,0.125,2.5c-0.188-0.75-0.279-1.089-1.313-1.688c-1.188-0.688-3-0.625-3-0.625L286.95,321.313z"></path><g><path style="fill:none;stroke:#E3E3AF;stroke-width:0.25;stroke-linecap:round;stroke-linejoin:round;" d="M291.075,315.813c-0.188-0.063-6.938-6.375-6.938-6.375"></path><path style="fill:none;stroke:#E3E3AF;stroke-width:0.25;stroke-linecap:round;stroke-linejoin:round;" d="M291.875,315.078c-1.799-1.624-7.175-6.641-7.175-6.641"></path><path style="fill:none;stroke:#E3E3AF;stroke-width:0.25;stroke-linecap:round;stroke-linejoin:round;" d="M293.438,314.922c-1.242-1.146-6.265-5.701-7.205-6.579"></path><line style="fill:none;stroke:#E3E3AF;stroke-width:0.25;stroke-linecap:round;stroke-linejoin:round;" x1="288.078" y1="308.609" x2="294.891" y2="314.484"></line><path style="fill:none;stroke:#E3E3AF;stroke-width:0.25;stroke-linecap:round;stroke-linejoin:round;" d="M290.263,316.688c-0.188-0.063-6.938-6.375-6.938-6.375"></path><path style="fill:none;stroke:#E3E3AF;stroke-width:0.25;stroke-linecap:round;stroke-linejoin:round;" d="M288.663,316.882c-1.819-1.644-6.15-5.694-6.15-5.694"></path><path style="fill:none;stroke:#E3E3AF;stroke-width:0.25;stroke-linecap:round;stroke-linejoin:round;" d="M287.539,317.474c-1.958-1.782-5.839-5.411-5.839-5.411"></path><path style="fill:none;stroke:#E3E3AF;stroke-width:0.25;stroke-linecap:round;stroke-linejoin:round;" d="M286.449,318.095c-2.024-1.85-5.562-5.157-5.562-5.157"></path><line style="fill:none;stroke:#E3E3AF;stroke-width:0.25;stroke-linecap:round;stroke-linejoin:round;" x1="288.513" y1="308.563" x2="288.513" y2="316.75"></line><line style="fill:none;stroke:#E3E3AF;stroke-width:0.25;stroke-linecap:round;stroke-linejoin:round;" x1="289.531" y1="309.641" x2="289.513" y2="316.75"></line><line style="fill:none;stroke:#E3E3AF;stroke-width:0.25;stroke-linecap:round;stroke-linejoin:round;" x1="290.531" y1="309.516" x2="290.513" y2="316.75"></line><line style="fill:none;stroke:#E3E3AF;stroke-width:0.25;stroke-linecap:round;stroke-linejoin:round;" x1="291.5" y1="310.234" x2="291.484" y2="316"></line><line style="fill:none;stroke:#E3E3AF;stroke-width:0.25;stroke-linecap:round;stroke-linejoin:round;" x1="292.453" y1="310.984" x2="292.451" y2="315.859"></line><line style="fill:none;stroke:#E3E3AF;stroke-width:0.25;stroke-linecap:round;stroke-linejoin:round;" x1="293.453" y1="311.75" x2="293.433" y2="315.734"></line><line style="fill:none;stroke:#E3E3AF;stroke-width:0.25;stroke-linecap:round;stroke-linejoin:round;" x1="294.359" y1="312.531" x2="294.373" y2="315.578"></line><line style="fill:none;stroke:#E3E3AF;stroke-width:0.25;stroke-linecap:round;stroke-linejoin:round;" x1="287.563" y1="308.469" x2="287.513" y2="317.063"></line><line style="fill:none;stroke:#E3E3AF;stroke-width:0.25;stroke-linecap:round;stroke-linejoin:round;" x1="286.516" y1="308.734" x2="286.513" y2="317.375"></line><line style="fill:none;stroke:#E3E3AF;stroke-width:0.25;stroke-linecap:round;stroke-linejoin:round;" x1="285.513" y1="309.5" x2="285.513" y2="317.688"></line><line style="fill:none;stroke:#E3E3AF;stroke-width:0.25;stroke-linecap:round;stroke-linejoin:round;" x1="284.513" y1="309.813" x2="284.513" y2="318"></line><line style="fill:none;stroke:#E3E3AF;stroke-width:0.25;stroke-linecap:round;stroke-linejoin:round;" x1="283.513" y1="310.125" x2="283.513" y2="318.313"></line></g><path style="fill:#E3E3AF;" d="M288.763,308.563l-0.375-1.5c0,0-5.125,0.813-6.813,3.125c-0.25,1.25,0.063,1.5,0.063,1.5S285.45,308.688,288.763,308.563z"></path><path style="fill:#E3E3AF;" d="M282.575,309.875c-0.063-0.188,0.875-3.375,2.813-3.813s2.75,1,2.75,1s-0.25-1.625-1-2s-0.813-0.313-2-0.063s-2.75,2.125-2.813,3.313C282.45,309,282.575,309.875,282.575,309.875z"></path></g><path style="fill:#030303;" d="M284.417,329.334c0-0.25,9.583-8.001,15.25-9.667c-2,2.167-6,7.167-6,7.167l-0.5-0.833L284.417,329.334z"></path><g><path style="fill:#6E6E6E;stroke:#000000;stroke-linecap:round;stroke-linejoin:round;" d="M221.85,291c0,0-7.083,3.916-7.083,5.25c-1.333,5-10.583,29.417-10.583,29.417S194.85,346,190.184,357c9.333,4.667,24,9.334,24,9.334L221.85,291z"></path><g><path style="fill:#E3E3AF;" d="M208.925,316.875c0,0-1.313,0.813-1.563,1.5s-0.625,1.875-0.625,1.875s1.5-1.688,2.813-1.688s3.25,4.375,7.125,4.875c0.188-1.438,0.25-2.063,0.25-2.063s-4.563-1.063-5.375-2.938S208.925,316.875,208.925,316.875z"></path><path style="fill:#E3E3AF;" d="M208.05,317.063l0.688-1.625c0,0,4.688,0.688,7.813,4.125c0.063,1.438-0.063,1.75-0.063,1.75S211.862,317.125,208.05,317.063z"></path><path style="fill:#E3E3AF;" d="M211.55,319.875c0,0-1.563-0.25-2.625,0.438s-0.688,2.438,0.75,3.188c-0.125-1.25-0.817-1.695,0.313-2.625c1.063-0.875,3-0.25,3-0.25L211.55,319.875z"></path><path style="fill:#E3E3AF;" d="M213.05,321.313c0,0-1.938-0.125-2.625,0.438s-1.75,1.938-0.125,2.5c0.188-0.75,0.279-1.089,1.313-1.688c1.188-0.688,3-0.625,3-0.625L213.05,321.313z"></path><g><path style="fill:none;stroke:#E3E3AF;stroke-width:0.25;stroke-linecap:round;stroke-linejoin:round;" d="M208.925,315.813c0.188-0.063,6.938-6.375,6.938-6.375"></path><path style="fill:none;stroke:#E3E3AF;stroke-width:0.25;stroke-linecap:round;stroke-linejoin:round;" d="M209.116,314.161c1.799-1.624,6.184-5.724,6.184-5.724"></path><path style="fill:none;stroke:#E3E3AF;stroke-width:0.25;stroke-linecap:round;stroke-linejoin:round;" d="M210.12,311.729c1.243-1.146,2.707-2.509,3.647-3.387"></path><path style="fill:none;stroke:#E3E3AF;stroke-width:0.25;stroke-linecap:round;stroke-linejoin:round;" d="M209.737,316.688c0.188-0.063,6.938-6.375,6.938-6.375"></path><path style="fill:none;stroke:#E3E3AF;stroke-width:0.25;stroke-linecap:round;stroke-linejoin:round;" d="M211.336,316.882c1.82-1.644,6.151-5.694,6.151-5.694"></path><path style="fill:none;stroke:#E3E3AF;stroke-width:0.25;stroke-linecap:round;stroke-linejoin:round;" d="M212.461,317.474c1.958-1.782,5.839-5.411,5.839-5.411"></path><path style="fill:none;stroke:#E3E3AF;stroke-width:0.25;stroke-linecap:round;stroke-linejoin:round;" d="M213.551,318.095c2.024-1.85,5.562-5.157,5.562-5.157"></path><line style="fill:none;stroke:#E3E3AF;stroke-width:0.25;stroke-linecap:round;stroke-linejoin:round;" x1="211.487" y1="308.563" x2="211.487" y2="316.75"></line><line style="fill:none;stroke:#E3E3AF;stroke-width:0.25;stroke-linecap:round;stroke-linejoin:round;" x1="210.487" y1="310.813" x2="210.487" y2="316.75"></line><line style="fill:none;stroke:#E3E3AF;stroke-width:0.25;stroke-linecap:round;stroke-linejoin:round;" x1="209.487" y1="312.813" x2="209.487" y2="316.75"></line><line style="fill:none;stroke:#E3E3AF;stroke-width:0.25;stroke-linecap:round;stroke-linejoin:round;" x1="212.487" y1="308.875" x2="212.487" y2="317.063"></line><line style="fill:none;stroke:#E3E3AF;stroke-width:0.25;stroke-linecap:round;stroke-linejoin:round;" x1="213.487" y1="309.188" x2="213.487" y2="317.375"></line><line style="fill:none;stroke:#E3E3AF;stroke-width:0.25;stroke-linecap:round;stroke-linejoin:round;" x1="214.487" y1="309.5" x2="214.487" y2="317.688"></line><line style="fill:none;stroke:#E3E3AF;stroke-width:0.25;stroke-linecap:round;stroke-linejoin:round;" x1="215.487" y1="309.813" x2="215.487" y2="318"></line><line style="fill:none;stroke:#E3E3AF;stroke-width:0.25;stroke-linecap:round;stroke-linejoin:round;" x1="216.487" y1="310.125" x2="216.487" y2="318.313"></line></g><path style="fill:#E3E3AF;" d="M211.237,308.563l0.375-1.5c0,0,5.125,0.813,6.813,3.125c0.25,1.25-0.063,1.5-0.063,1.5S214.55,308.688,211.237,308.563z"></path><path style="fill:#E3E3AF;" d="M217.425,309.875c0.063-0.188-0.875-3.375-2.813-3.813s-2.75,1-2.75,1s0.25-1.625,1-2s0.813-0.313,2-0.063s2.75,2.125,2.813,3.313C217.55,309,217.425,309.875,217.425,309.875z"></path></g><path style="fill:#E3E3AF;stroke:#000000;stroke-linecap:round;stroke-linejoin:round;" d="M213.667,359.667c-0.167-1.666-4.167-1.666-4.167-1.666c-1.5,1.166-2,3.832-4.167,2.666s-2.833-4.5-4.667-5.333s-3.834,0.501-2.167,2.667c-1.333,0.833-3-0.166-3.833-1s-0.5-5.166-2.333-5.5s-1.333,2-1.333,2s2.167,1.834,1.667,2s-2.167-0.334-2.167-0.334s-1.166,0.832-0.333,1.833c0,0,15.167,8.167,22.167,8.167c0.833-1.666,0.833-1.666,0.833-1.666s-3.167,0-4-0.667S213.834,361.333,213.667,359.667z M200.333,359.501l0.167-2c0,0,2.5,3.333,3.5,3.833C202,361.334,200.333,359.501,200.333,359.501z"></path></g><g><g><path style="fill:#6E6E6E;stroke:#000000;stroke-linecap:round;stroke-linejoin:round;" d="M233.5,282.667c0,0-16.167,51.333-19.5,70.333c1.333-24.667,5.5-59,5.833-61C226.167,285.667,233.5,282.667,233.5,282.667z"></path><g><g><g><path style="fill:none;stroke:#E3E3AF;stroke-width:0.25;stroke-linecap:round;stroke-linejoin:round;" d="M217.482,317.04c1.921-1.775,4.115-3.827,4.115-3.827"></path><path style="fill:none;stroke:#E3E3AF;stroke-width:0.25;stroke-linecap:round;stroke-linejoin:round;" d="M217.632,315.38c1.712-1.587,3.402-3.167,3.402-3.167"></path><path style="fill:none;stroke:#E3E3AF;stroke-width:0.25;stroke-linecap:round;stroke-linejoin:round;" d="M217.865,313.643c0.612-0.568,1.185-1.103,1.638-1.524"></path><path style="fill:none;stroke:#E3E3AF;stroke-width:0.25;stroke-linecap:round;stroke-linejoin:round;" d="M217.995,312.18c0.563-0.523,1.087-1.013,1.507-1.405"></path><path style="fill:none;stroke:#E3E3AF;stroke-width:0.25;stroke-linecap:round;stroke-linejoin:round;" d="M217.335,318.8c2.056-1.89,5.074-4.712,5.074-4.712"></path><path style="fill:none;stroke:#E3E3AF;stroke-width:0.25;stroke-linecap:round;stroke-linejoin:round;" d="M217.071,320.657c1.82-1.644,6.151-5.694,6.151-5.694"></path><path style="fill:none;stroke:#E3E3AF;stroke-width:0.25;stroke-linecap:round;stroke-linejoin:round;" d="M218.196,321.249c1.958-1.782,5.839-5.411,5.839-5.411"></path><path style="fill:none;stroke:#E3E3AF;stroke-width:0.25;stroke-linecap:round;stroke-linejoin:round;" d="M219.286,321.87c2.024-1.85,5.562-5.157,5.562-5.157"></path><path style="fill:none;stroke:#E3E3AF;stroke-width:0.25;stroke-linecap:round;stroke-linejoin:round;" d="M220.409,322.462c2.055-1.885,5.251-4.874,5.251-4.874"></path><line style="fill:none;stroke:#E3E3AF;stroke-width:0.25;stroke-linecap:round;stroke-linejoin:round;" x1="218.285" y1="310.156" x2="218.222" y2="321.125"></line><line style="fill:none;stroke:#E3E3AF;stroke-width:0.25;stroke-linecap:round;stroke-linejoin:round;" x1="219.222" y1="310.813" x2="219.253" y2="321.438"></line><line style="fill:none;stroke:#E3E3AF;stroke-width:0.25;stroke-linecap:round;stroke-linejoin:round;" x1="220.222" y1="312.031" x2="220.222" y2="321.463"></line><line style="fill:none;stroke:#E3E3AF;stroke-width:0.25;stroke-linecap:round;stroke-linejoin:round;" x1="221.191" y1="312.563" x2="221.222" y2="321.775"></line><line style="fill:none;stroke:#E3E3AF;stroke-width:0.25;stroke-linecap:round;stroke-linejoin:round;" x1="222.222" y1="313.219" x2="222.222" y2="322.088"></line></g><g><path style="fill:#E3E3AF;" d="M218.472,308.438c0,0,1.813-0.938,2.563-0.188s1.875,2.688,1.875,2.688l-0.375,1.188c0,0-1.125-3.063-2.188-2.938S218.16,310,218.16,310L218.472,308.438z"></path><path style="fill:#E3E3AF;" d="M218.16,310c0,0,2.625,3.625,4.25,3.563c0.188-1.063,0.125-1.75,0.125-1.75s-3.313-1.563-3.563-2.5C218.41,309.125,218.16,310,218.16,310z"></path><path style="fill:#E3E3AF;" d="M217.16,320.25c0,0,1.396,1.333,3.583,1.25c-0.188,0.813-0.479,1.875-0.479,1.875s-2.854-0.813-3.229-1.563C217.035,320.688,217.16,320.25,217.16,320.25z"></path><path style="fill:#E3E3AF;" d="M217.035,321.813c0,0,0.542,1.521,1.417,1.833c1.167,0.417,1.875-0.438,1.875-0.438l-0.458,1.854c0,0-1.045,0.206-1.667,0.063c-1.083-0.25-1.438-1.146-1.438-1.146L217.035,321.813z"></path></g></g></g><path style="fill:#6E6E6E;stroke:#000000;stroke-linecap:round;stroke-linejoin:round;" d="M266.832,282.667c0,0,16.166,51.333,19.499,70.333c-1.333-24.667-5.499-59-5.833-61C274.164,285.667,266.832,282.667,266.832,282.667z"></path><g><g><path style="fill:none;stroke:#E3E3AF;stroke-width:0.25;stroke-linecap:round;stroke-linejoin:round;" d="M282.518,317.04c-1.921-1.775-4.115-3.827-4.115-3.827"></path><path style="fill:none;stroke:#E3E3AF;stroke-width:0.25;stroke-linecap:round;stroke-linejoin:round;" d="M282.367,315.38c-1.713-1.587-3.402-3.167-3.402-3.167"></path><path style="fill:none;stroke:#E3E3AF;stroke-width:0.25;stroke-linecap:round;stroke-linejoin:round;" d="M282.135,313.643c-0.611-0.568-1.186-1.103-1.638-1.524"></path><path style="fill:none;stroke:#E3E3AF;stroke-width:0.25;stroke-linecap:round;stroke-linejoin:round;" d="M282.004,312.18c-0.563-0.523-1.086-1.013-1.507-1.405"></path><path style="fill:none;stroke:#E3E3AF;stroke-width:0.25;stroke-linecap:round;stroke-linejoin:round;" d="M282.664,318.8c-2.057-1.89-5.074-4.712-5.074-4.712"></path><path style="fill:none;stroke:#E3E3AF;stroke-width:0.25;stroke-linecap:round;stroke-linejoin:round;" d="M282.928,320.657c-1.819-1.644-6.15-5.694-6.15-5.694"></path><path style="fill:none;stroke:#E3E3AF;stroke-width:0.25;stroke-linecap:round;stroke-linejoin:round;" d="M281.804,321.249c-1.958-1.782-5.839-5.411-5.839-5.411"></path><path style="fill:none;stroke:#E3E3AF;stroke-width:0.25;stroke-linecap:round;stroke-linejoin:round;" d="M280.714,321.87c-2.024-1.85-5.562-5.157-5.562-5.157"></path><path style="fill:none;stroke:#E3E3AF;stroke-width:0.25;stroke-linecap:round;stroke-linejoin:round;" d="M279.591,322.462c-2.055-1.885-5.251-4.874-5.251-4.874"></path><line style="fill:none;stroke:#E3E3AF;stroke-width:0.25;stroke-linecap:round;stroke-linejoin:round;" x1="281.715" y1="310.156" x2="281.777" y2="321.125"></line><line style="fill:none;stroke:#E3E3AF;stroke-width:0.25;stroke-linecap:round;stroke-linejoin:round;" x1="280.777" y1="310.813" x2="280.746" y2="321.438"></line><line style="fill:none;stroke:#E3E3AF;stroke-width:0.25;stroke-linecap:round;stroke-linejoin:round;" x1="279.777" y1="312.031" x2="279.777" y2="321.463"></line><line style="fill:none;stroke:#E3E3AF;stroke-width:0.25;stroke-linecap:round;stroke-linejoin:round;" x1="278.809" y1="312.563" x2="278.777" y2="321.775"></line><line style="fill:none;stroke:#E3E3AF;stroke-width:0.25;stroke-linecap:round;stroke-linejoin:round;" x1="277.777" y1="313.219" x2="277.777" y2="322.088"></line></g><g><path style="fill:#E3E3AF;" d="M281.527,308.438c0,0-1.813-0.938-2.563-0.188s-1.875,2.688-1.875,2.688l0.375,1.188c0,0,1.125-3.063,2.188-2.938S281.84,310,281.84,310L281.527,308.438z"></path><path style="fill:#E3E3AF;" d="M281.84,310c0,0-2.625,3.625-4.25,3.563c-0.188-1.063-0.125-1.75-0.125-1.75s3.313-1.563,3.563-2.5C281.59,309.125,281.84,310,281.84,310z"></path><path style="fill:#E3E3AF;" d="M282.84,320.25c0,0-1.396,1.333-3.584,1.25c0.188,0.813,0.479,1.875,0.479,1.875s2.854-0.813,3.229-1.563C282.965,320.688,282.84,320.25,282.84,320.25z"></path><path style="fill:#E3E3AF;" d="M282.965,321.813c0,0-0.542,1.521-1.417,1.833c-1.167,0.417-1.875-0.438-1.875-0.438l0.458,1.854c0,0,1.046,0.206,1.667,0.063c1.083-0.25,1.438-1.146,1.438-1.146L282.965,321.813z"></path></g></g></g><g><g><path style="fill:#E3E3AF;stroke:#000000;stroke-linecap:round;stroke-linejoin:round;" d="M272.167,303.501c0,0-5.333-2.001-7-0.834s-1.333,4.5,0.5,5.167s6.833-1,6.833-1c-0.333-1.333-4.999,0.001-5.333-0.833s0.166-1.334,0.166-1.334l4.834,0.334V303.501z"></path><path style="fill:#E3E3AF;stroke:#000000;stroke-linecap:round;stroke-linejoin:round;" d="M273.667,311.168c0,0-5.333-2.001-7-0.834s-1.333,4.5,0.5,5.167s6.833-1,6.833-1c-0.333-1.333-5.333-0.165-5.667-0.999s0.5-1.5,0.5-1.5l4.834,0.666V311.168z"></path></g><g><linearGradient id="outerXMLID_20_" gradientUnits="userSpaceOnUse" x1="275.2695" y1="295.21" x2="255.0956" y2="394.5669" gradientTransform="matrix(-1 0 0 1 550.4004 0)"><stop offset="0.0056" style="stop-color:#F8F9D4"></stop><stop offset="1" style="stop-color:#C1A573"></stop></linearGradient><path style="fill:url(#outerXMLID_20_);stroke:#000000;stroke-linecap:round;stroke-linejoin:round;" d="M269.221,283.5c1.024,3.379,2.348,8.247,3.867,14.121c0.301,0.437,0.568,1.038,0.717,1.88c1,0,2.166,1,2.5,1.833c0.332,0.833-1,2.834-1,2.834s1.238,0.749,0.072,2.457c3.154,12.604,2.774,14.452,7.156,29.541c14,39,23.688,76.334,23.688,76.334s-3,0.262-4-0.5c-0.746-4.606-11.688-39.333-22.688-73c-6.334-19.333-11.313-47-11.313-47s-2.5-8.5-3.5-12.25C265.971,280,268.221,282.25,269.221,283.5z"></path><g><circle style="fill:#C1A573;stroke:#000000;stroke-linecap:round;stroke-linejoin:round;" cx="304.641" cy="414.671" r="2.42"></circle><path style="fill:#C1A573;stroke:#000000;stroke-linecap:round;stroke-linejoin:round;" d="M305.521,415.551c0,0,3.3,9.238,2.2,12.758c-0.66-1.1-0.66-1.1-0.66-1.1s-2.859,2.199-4.619,1.319c1.1-7.698,1.76-12.978,1.76-12.978H305.521z"></path></g></g><g><linearGradient id="outerXMLID_22_" gradientUnits="userSpaceOnUse" x1="224.8667" y1="295.209" x2="204.6927" y2="394.5663"><stop offset="0.0056" style="stop-color:#F8F9D4"></stop><stop offset="1" style="stop-color:#C1A573"></stop></linearGradient><path style="fill:url(#outerXMLID_22_);stroke:#000000;stroke-linecap:round;stroke-linejoin:round;" d="M230.778,283.5c-1.024,3.379-2.347,8.247-3.867,14.121c-0.3,0.437-0.567,1.038-0.716,1.88c-1,0-2.167,1-2.5,1.833s1,2.834,1,2.834s-1.239,0.749-0.072,2.457c-3.154,12.604-2.775,14.452-7.157,29.541c-14,39-23.688,76.334-23.688,76.334s3,0.262,4-0.5c0.747-4.606,11.688-39.333,22.688-73c6.333-19.333,11.312-47,11.312-47s2.5-8.5,3.5-12.25C234.028,280,231.778,282.25,230.778,283.5z"></path><g><circle style="fill:#C1A573;stroke:#000000;stroke-linecap:round;stroke-linejoin:round;" cx="195.359" cy="414.671" r="2.42"></circle><path style="fill:#C1A573;stroke:#000000;stroke-linecap:round;stroke-linejoin:round;" d="M194.479,415.551c0,0-3.299,9.238-2.2,12.758c0.66-1.1,0.66-1.1,0.66-1.1s2.86,2.199,4.62,1.319c-1.1-7.698-1.76-12.978-1.76-12.978H194.479z"></path></g></g></g><g><g><path style="fill:#E3E3AF;stroke:#000000;stroke-linecap:round;stroke-linejoin:round;" d="M225.5,304.501c0,0,0-2.332,1-2.166s1.333,2.166,1.333,2.166l-0.333,15.667l-2.167,0.166L225.5,304.501z"></path><path style="fill:#E3E3AF;stroke:#000000;stroke-linecap:round;stroke-linejoin:round;" d="M226.5,317.204c-1.451,1.238-5.358,4.635-5.358,5.333c0,0.675,3.484,3.735,5.358,5.008c1.875-1.272,5.357-4.333,5.357-5.008C231.857,321.839,227.951,318.442,226.5,317.204z M226.5,323.899c-0.843,0-1.525-0.683-1.525-1.524c0-0.844,0.683-1.526,1.525-1.526s1.526,0.683,1.526,1.526C228.026,323.217,227.343,323.899,226.5,323.899z"></path><path style="fill:#E3E3AF;stroke:#000000;stroke-linecap:round;stroke-linejoin:round;" d="M226.5,345.871c-1.451,1.238-5.358,4.635-5.358,5.333c0,0.675,3.484,3.735,5.358,5.008c1.875-1.272,5.357-4.333,5.357-5.008C231.857,350.506,227.951,347.109,226.5,345.871z M226.5,352.566c-0.843,0-1.525-0.683-1.525-1.524c0-0.844,0.683-1.526,1.525-1.526s1.526,0.683,1.526,1.526C228.026,351.884,227.343,352.566,226.5,352.566z"></path><path style="fill:#E3E3AF;stroke:#000000;stroke-linecap:round;stroke-linejoin:round;" d="M226.5,331.188c-2.497,0-4.52,2.022-4.52,4.522c0,2.492,2.023,4.515,4.52,4.515c2.496,0,4.521-2.022,4.521-4.515C231.021,333.211,228.997,331.188,226.5,331.188z M226.5,337.337c-0.9,0-1.63-0.729-1.63-1.629c0-0.901,0.729-1.631,1.63-1.631s1.631,0.729,1.631,1.631C228.131,336.607,227.401,337.337,226.5,337.337z"></path><path style="fill:#E3E3AF;stroke:#000000;stroke-linecap:round;stroke-linejoin:round;" d="M227.833,325.834c0,0-0.333-2-1.333-2.166s-1,2.166-1,2.166L225.457,334c0,0,0.293,0.5,1.293,0.5s0.997-0.5,0.997-0.5L227.833,325.834z"></path><path style="fill:#E3E3AF;stroke:#000000;stroke-linecap:round;stroke-linejoin:round;" d="M227.833,339.084c0,0-0.333-2-1.333-2.166s-1,2.166-1,2.166l-0.043,8.166c0,0,0.293,0.5,1.293,0.5s0.997-0.5,0.997-0.5L227.833,339.084z"></path><path style="fill:#E3E3AF;stroke:#000000;stroke-linecap:round;stroke-linejoin:round;" d="M227.833,356.334c0,0-0.333-2-1.333-2.166s-1,2.166-1,2.166l-0.011,2.166h2.322L227.833,356.334z"></path><path style="fill:#BF7049;stroke:#000000;stroke-linecap:round;stroke-linejoin:round;" d="M226.228,358.625c0,0-1.659,3.375-2.212,6.625s-1.328,9.125-1.991,10.625c2.876,3.25,5.642,2.375,7.412,2s2.102-1.25,3.098-1.25c0.553-4.375-0.996-9.125-2.102-12.25C229.344,361.302,226.228,358.625,226.228,358.625z"></path><circle style="fill:#E3E3AF;stroke:#000000;stroke-linecap:round;stroke-linejoin:round;" cx="226.575" cy="359" r="1.375"></circle></g></g></g></g><g><g><path style="fill:#BA6A3B;stroke:#000000;stroke-linecap:round;stroke-linejoin:round;" d="M293.334,312.5c0,0-2.668,31.834-1.334,40.167c-4.333-1.167-6.166-1.333-6.166-1.833s2.908-31.554,6.704-38.11C293.334,311.334,293.334,312.5,293.334,312.5z"></path><g><polygon style="fill:#FFFFCF;" points="286.344,350.756 291.406,352.006 291.25,345.256 289.438,342.662 286.938,344.725 "></polygon><polygon style="fill:#FFFFCF;" points="289.438,342.818 287.531,339.881 289.75,336.975 291.281,340.213 "></polygon></g></g><g><g><path style="fill:#BA6A3B;stroke:#000000;stroke-linecap:round;stroke-linejoin:round;" d="M299.447,308.242l2.054,3.548l-1.493,2.802c-3.361-0.748-6.35-2.241-6.35-2.241v-1.308l5.789,0.188V308.242z"></path><path style="fill:#BA6A3B;stroke:#000000;stroke-linecap:round;stroke-linejoin:round;" d="M292.165,310.109c0,0,2.987-3.548,4.854-4.108c2.241,1.308,2.428,2.241,2.428,2.241l-5.789,2.801L292.165,310.109z"></path></g><g><path style="fill:#BA6A3B;stroke:#000000;stroke-linecap:round;stroke-linejoin:round;" d="M281.895,316.832c0,0,1.12-2.802,2.24-3.548c1.121-0.746,8.777-3.175,8.777-3.175l-0.374,2.614l-5.788,2.615l-1.308,3.174L281.895,316.832z"></path><path style="fill:#BA6A3B;stroke:#000000;stroke-linecap:round;stroke-linejoin:round;" d="M294.593,311.417c0,0-5.229,10.084-6.35,10.084c-1.12,0-5.415-1.494-5.415-1.494l-1.494-3.361l6.536,0.187l3.922-6.349L294.593,311.417z"></path></g><path style="fill:#BA6A3B;stroke:#000000;stroke-linecap:round;stroke-linejoin:round;" d="M291.418,309.736c0,0,2.054-0.374,2.801,0.187s0.187,2.801,0.187,2.801S290.857,311.417,291.418,309.736z"></path></g></g></g></g></svg>