<svg xmlns="http://www.w3.org/2000/svg" width="500" height="500" version="1.1"><g id="x9133"><g><g><g><path style="fill:#6E6E6E;stroke:#000000;stroke-linecap:round;stroke-linejoin:round;" d="M212.666,298.593l-2.937,11.818l-1.875,1.022l0.146,3.024L196.042,347.4l18.063,6.835L224,319.248l3.75-5.366l-1.25-3.578l0.533-5.082l2.217-8.717l-4.625-10.86l-1.541,0.725l-3.667,1.703c0,0-3.209,0.172-4.375,3.749C213.875,295.399,212.666,298.593,212.666,298.593z"></path><path style="fill:#505050;" d="M218.754,312.168c0,0-4.333,9.833-4.5,11.833s2,11.833,3,12.5c4.833-5.667,5.5-16.5,5.5-16.5L218.754,312.168z"></path><path style="fill:#505050;" d="M211.336,301.6c0,0,2.25-4,3.25-3.75s6.25,4.5,4.75,5S211.336,301.6,211.336,301.6z"></path><path style="fill:#505050;" d="M207.337,319.25l1.5-4.5c0,0-0.75-3.5,0-3.25s3.75,2.5,4,3.75S207.337,319.25,207.337,319.25z"></path><path style="fill:#505050;" d="M210.837,310.5c0.5,1.25,4.5,2,9,2.75c1.25-1.5,1.75-3.5,1.75-3.5L210.837,310.5z"></path><path style="fill:#505050;" d="M200.337,335c0,0,3.5,4,7,5s9.25-0.5,9.25-0.5L200.337,335z"></path><path style="fill:#6E6E6E;stroke:#000000;stroke-linecap:round;stroke-linejoin:round;" d="M201.063,334.837c0,0-2.188,0.83-2.25,1.214s1.125,3.45,1.125,3.45"></path><path style="fill:#6E6E6E;stroke:#000000;stroke-linecap:round;stroke-linejoin:round;" d="M205.584,323.594c0,0-3,1.597-3,1.98s0.813,2.874,0.813,2.874l2.063,1.022"></path><path style="fill:#6E6E6E;stroke:#000000;stroke-linecap:round;stroke-linejoin:round;" d="M213.083,298.442c0,0-2.5,2.429-2.625,3.067s1.5,3.066,1.5,3.066l2.125,1.021"></path><path style="fill:#6E6E6E;stroke:#000000;stroke-linecap:round;stroke-linejoin:round;" d="M195.708,344.93c0,0,8.688,6.197,18.938,7.475l-2.063,10.157c0,0-13.416,1.042-21.166-8.668L195.708,344.93z"></path><path style="fill:#505050;" d="M212.837,353.75c0,0-7.75-2-9-2.75c-0.5,2.5,1.5,5.25,0.75,7s-2.75,2.5-2.75,2.5s6.75,2.25,9,1C211.587,358,212.837,353.75,212.837,353.75z"></path><g><g><path style="fill:#AA8453;stroke:#000000;stroke-linecap:round;stroke-linejoin:round;" d="M210.158,303.769c0,0,12.06,0.899,14.071,1.894l-0.755,5.964c0,0-9.931-1.42-14.078-1.847L210.158,303.769z"></path></g><path style="fill:#8A653D;" d="M214.028,304.969l-0.488,4.532c0,0,7.383,1.076,10.353,0.618c0.21-3.026,0.436-4.777,0.436-4.777L214.028,304.969z"></path><path style="fill:#C1C1C1;stroke:#000000;stroke-linecap:round;stroke-linejoin:round;" d="M210.262,303.071c0.553-0.239,2.295-0.206,2.416,0.567c0.122,0.772-0.438,7.279-0.887,7.109c-0.146,0.084-2.045,0.271-2.724-0.217c-0.678-0.488-0.024-1.345-0.024-1.345s1.234,0.216,1.294-0.233c0.161-0.141,0.555-4.553,0.555-4.553l-1.136-0.259C209.756,304.142,209.709,303.309,210.262,303.071z"></path></g><g><g><path style="fill:#AA8453;stroke:#000000;stroke-linecap:round;stroke-linejoin:round;" d="M202.318,328.091c0,0,8.924,4.414,18.104,6.091l-1.407,6.417c0,0-13.027-2.729-18.808-6.354L202.318,328.091z"></path></g><path style="fill:#8A653D;" d="M209.337,332.167l-1.417,4.333c0,0,7,2.583,10,2.75c0.833-2.917,1.417-4.583,1.417-4.583L209.337,332.167z"></path><path style="fill:#C1C1C1;stroke:#000000;stroke-linecap:round;stroke-linejoin:round;" d="M202.447,327.521c0.622-0.091,2.563,0.499,2.531,1.258s-2.227,6.757-2.395,6.805c-0.494,0.373-2.343-0.649-2.946-1.275c-0.214-0.673,0.436-1.158,0.436-1.158s1.236,0.5,1.391,0.089c-0.081-0.198,1.506-4.17,1.506-4.17l-1.126-0.515C201.844,328.554,201.824,327.613,202.447,327.521z"></path></g></g><g><path style="fill:#6E6E6E;stroke:#000000;stroke-linecap:round;stroke-linejoin:round;" d="M287.334,298.593l2.937,11.818l1.875,1.022L292,314.458l11.958,32.942l-18.063,6.835L276,319.248l-3.75-5.366l1.25-3.578l-0.533-5.082l-2.217-8.717l4.625-10.86l1.541,0.725l3.667,1.703c0,0,3.209,0.172,4.375,3.749C286.125,295.399,287.334,298.593,287.334,298.593z"></path><path style="fill:#505050;" d="M281.246,312.168c0,0,4.333,9.833,4.5,11.833s-2,11.833-3,12.5c-4.833-5.667-5.5-16.5-5.5-16.5L281.246,312.168z"></path><path style="fill:#505050;" d="M288.663,301.6c0,0-2.25-4-3.25-3.75s-6.25,4.5-4.75,5S288.663,301.6,288.663,301.6z"></path><path style="fill:#505050;" d="M292.663,319.25l-1.5-4.5c0,0,0.75-3.5,0-3.25s-3.75,2.5-4,3.75S292.663,319.25,292.663,319.25z"></path><path style="fill:#505050;" d="M289.163,310.5c-0.5,1.25-4.5,2-9,2.75c-1.25-1.5-1.75-3.5-1.75-3.5L289.163,310.5z"></path><path style="fill:#505050;" d="M299.663,335c0,0-3.5,4-7,5s-9.25-0.5-9.25-0.5L299.663,335z"></path><path style="fill:#6E6E6E;stroke:#000000;stroke-linecap:round;stroke-linejoin:round;" d="M298.937,334.837c0,0,2.188,0.83,2.25,1.214s-1.125,3.45-1.125,3.45"></path><path style="fill:#6E6E6E;stroke:#000000;stroke-linecap:round;stroke-linejoin:round;" d="M294.416,323.594c0,0,3,1.597,3,1.98s-0.813,2.874-0.813,2.874l-2.063,1.022"></path><path style="fill:#6E6E6E;stroke:#000000;stroke-linecap:round;stroke-linejoin:round;" d="M286.917,298.442c0,0,2.5,2.429,2.625,3.067s-1.5,3.066-1.5,3.066l-2.125,1.021"></path><path style="fill:#6E6E6E;stroke:#000000;stroke-linecap:round;stroke-linejoin:round;" d="M304.292,344.93c0,0-8.688,6.197-18.938,7.475l2.063,10.157c0,0,13.416,1.042,21.166-8.668L304.292,344.93z"></path><path style="fill:#505050;" d="M287.163,353.75c0,0,7.75-2,9-2.75c0.5,2.5-1.5,5.25-0.75,7s2.75,2.5,2.75,2.5s-6.75,2.25-9,1C288.413,358,287.163,353.75,287.163,353.75z"></path><g><g><path style="fill:#AA8453;stroke:#000000;stroke-linecap:round;stroke-linejoin:round;" d="M289.842,303.769c0,0-12.06,0.899-14.071,1.894l0.755,5.964c0,0,9.931-1.42,14.078-1.847L289.842,303.769z"></path></g><path style="fill:#8A653D;" d="M285.972,304.969l0.488,4.532c0,0-7.383,1.076-10.354,0.618c-0.21-3.026-0.436-4.777-0.436-4.777L285.972,304.969z"></path><path style="fill:#C1C1C1;stroke:#000000;stroke-linecap:round;stroke-linejoin:round;" d="M289.738,303.071c-0.553-0.239-2.295-0.206-2.416,0.567c-0.122,0.772,0.438,7.279,0.887,7.109c0.146,0.084,2.045,0.271,2.724-0.217c0.678-0.488,0.024-1.345,0.024-1.345s-1.234,0.216-1.294-0.233c-0.161-0.141-0.555-4.553-0.555-4.553l1.136-0.259C290.244,304.142,290.291,303.309,289.738,303.071z"></path></g><g><g><path style="fill:#AA8453;stroke:#000000;stroke-linecap:round;stroke-linejoin:round;" d="M297.682,328.091c0,0-8.924,4.414-18.104,6.091l1.407,6.417c0,0,13.027-2.729,18.808-6.354L297.682,328.091z"></path></g><path style="fill:#8A653D;" d="M290.663,332.167l1.416,4.333c0,0-7,2.583-10,2.75c-0.832-2.917-1.416-4.583-1.416-4.583L290.663,332.167z"></path><path style="fill:#C1C1C1;stroke:#000000;stroke-linecap:round;stroke-linejoin:round;" d="M297.553,327.521c-0.622-0.091-2.563,0.499-2.531,1.258s2.227,6.757,2.395,6.805c0.494,0.373,2.343-0.649,2.946-1.275c0.214-0.673-0.436-1.158-0.436-1.158s-1.236,0.5-1.391,0.089c0.081-0.198-1.506-4.17-1.506-4.17l1.126-0.515C298.156,328.554,298.176,327.613,297.553,327.521z"></path></g></g></g><g><g><g><path style="fill:#6E6E6E;stroke:#000000;stroke-linecap:round;stroke-linejoin:round;" d="M217,291.5c0,0,1.044,3.812,1.954,8.156c0.824,3.933,1.538,8.302,1.268,10.677c-0.568,5-1.896,22.334-1.896,22.334l-2.368,2.416l1.421,2.25c-5.686,16-24.069,75.667-24.069,75.667c11.371,6,28.428,6.667,28.428,6.667c0.854-11.25,14.594-72.75,14.594-78s-7.297-34.084-7.013-38.334c0.285-4.25,4.644-22.166,4.644-22.166l-11.276,3.749l-5.449,3.335l-1.089,0.583L217,291.5"></path><g><path style="fill:#505050;" d="M235.059,346.001l-0.5-13.333c0,0-13.054-22.865-13.417-23.168c-1,4-1.5,23-1.5,23s5.5-3.75,9.161-2.902L235.059,346.001z"></path><path style="fill:#505050;" d="M215.392,345.25l2.5-8c-0.5-1.75,2.75,2,2.75,3S215.392,345.25,215.392,345.25z"></path></g><g><polyline style="fill:none;stroke:#000000;stroke-linecap:round;stroke-linejoin:round;" points="207.842,366.25 228.176,374.333 230.092,374.416 "></polyline><polyline style="fill:none;stroke:#000000;stroke-linecap:round;stroke-linejoin:round;" points="207.342,368 227.676,376.083 229.592,376.166 "></polyline></g><g><circle style="fill:#5A3D1C;stroke:#000000;stroke-linecap:round;stroke-linejoin:round;" cx="230.977" cy="340.011" r="3.057"></circle><circle style="fill:#2D1F0E;" cx="230.977" cy="340.011" r="1.582"></circle><circle cx="231.004" cy="339.038" r="0.338"></circle><circle cx="231.025" cy="341.035" r="0.338"></circle></g><g><circle style="fill:#5A3D1C;stroke:#000000;stroke-linecap:round;stroke-linejoin:round;" cx="229.102" cy="353.073" r="3.057"></circle><circle style="fill:#2D1F0E;" cx="229.102" cy="353.073" r="1.582"></circle><circle cx="229.132" cy="352.101" r="0.338"></circle><circle cx="229.147" cy="354.098" r="0.338"></circle></g><g><circle style="fill:#5A3D1C;stroke:#000000;stroke-linecap:round;stroke-linejoin:round;" cx="226.621" cy="366.028" r="3.057"></circle><circle style="fill:#2D1F0E;" cx="226.62" cy="366.028" r="1.582"></circle><circle cx="226.501" cy="365.063" r="0.338"></circle><circle cx="226.822" cy="367.034" r="0.338"></circle></g></g><g><g><path style="fill:#F9F9F8;stroke:#000000;stroke-linecap:round;stroke-linejoin:round;" d="M237.664,279c-4.667,4.5-4.833,20.667-4.833,20.667l-13.5-8.167c4.5-8.334,11.666-13.833,11.666-13.833L237.664,279z"></path><path style="fill:none;stroke:#000000;stroke-linecap:round;stroke-linejoin:round;" d="M232.698,278.075c-0.425,0.3-8.895,8.11-10.534,12.643c3.109,2.157,10.359,6.782,10.359,6.782"></path><path style="fill:#F9F9F8;stroke:#000000;stroke-linecap:round;stroke-linejoin:round;" d="M233.438,298.604c0,0-5.274,0.729-9.394,3.263c-1.063,0.979-6.735,0.979-6.735,0.979s18.255,33.854,18.255,36.546c0.001,2.691,0,5.546,0,5.546S239.64,334.822,233.438,298.604z"></path><path style="fill:none;stroke:#000000;stroke-linecap:round;stroke-linejoin:round;" d="M233.157,300.577c0,0-3.884,0.673-7.384,3.048c-2.625,0.5-4.922,1.034-4.922,1.034s13.422,25.716,15.172,31.591"></path></g></g><g><polygon style="fill:#FFFFFF;stroke:#000000;stroke-linecap:round;stroke-linejoin:round;" points="225.611,312.044 230.872,310.5 231.517,312.267 226.034,313.811 "></polygon><polygon style="fill:#FFFFFF;stroke:#000000;stroke-linecap:round;stroke-linejoin:round;" points="223.193,306.644 230.624,304.463 231.535,305.78 223.791,307.961 "></polygon><g><circle style="fill:#C1C1C1;stroke:#000000;stroke-linecap:round;stroke-linejoin:round;" cx="225.735" cy="306.895" r="3.401"></circle><rect x="224.655" y="302.923" transform="matrix(0.4351 -0.9004 0.9004 0.4351 -148.9313 376.5065)" style="fill:#C1C1C1;stroke:#000000;stroke-linecap:round;stroke-linejoin:round;" width="1.88" height="8.044"></rect><rect x="224.654" y="302.925" transform="matrix(-0.9003 -0.4353 0.4353 -0.9003 295.0667 681.487)" style="fill:#C1C1C1;stroke:#000000;stroke-linecap:round;stroke-linejoin:round;" width="1.88" height="8.041"></rect></g></g></g><g><g><path style="fill:#6E6E6E;stroke:#000000;stroke-linecap:round;stroke-linejoin:round;" d="M283,291.5l0.854-2.666l-1.09-0.583l-5.449-3.335l-11.277-3.749c0,0,4.359,17.916,4.643,22.166c0.285,4.25-7.012,33.084-7.012,38.334s13.74,66.75,14.594,78c0,0,17.059-0.667,28.43-6.667c0,0-18.385-59.667-24.07-75.667l1.422-2.25l-2.369-2.416c0,0-1.328-17.334-1.896-22.334S283,291.5,283,291.5"></path><path style="fill:#505050;" d="M264.943,346.001l0.5-13.333c0,0,13.053-22.865,13.416-23.168c1,4,1.5,23,1.5,23s-5.5-3.75-9.16-2.902L264.943,346.001z"></path><g><polygon style="fill:#6E6E6E;stroke:#000000;stroke-linecap:round;stroke-linejoin:round;" points="272.186,341.295 266.521,341.662 266.092,340.14 271.906,339.696 "></polygon><polygon style="fill:#6E6E6E;stroke:#000000;stroke-linecap:round;stroke-linejoin:round;" points="276.988,366.393 270.916,366.789 270.465,365.27 276.695,364.794 "></polygon><polygon style="fill:#6E6E6E;stroke:#000000;stroke-linecap:round;stroke-linejoin:round;" points="274.742,353.73 268.67,354.127 268.219,352.607 274.451,352.132 "></polygon></g><path style="fill:#505050;" d="M284.609,345.25l-2.5-8c0.5-1.75-2.75,2-2.75,3S284.609,345.25,284.609,345.25z"></path><g><polyline style="fill:none;stroke:#000000;stroke-linecap:round;stroke-linejoin:round;" points="292.156,366.25 271.824,374.333 269.906,374.416 "></polyline><polyline style="fill:none;stroke:#000000;stroke-linecap:round;stroke-linejoin:round;" points="292.656,368 272.324,376.083 270.406,376.166 "></polyline></g><polyline style="fill:none;stroke:#000000;stroke-linecap:round;stroke-linejoin:round;" points="271.5,322.417 271.5,326.667 279.834,326.75 281.25,325.5 281.121,328 280.371,328.75 270.371,328.5 269.996,323.875 "></polyline></g><g><g><path style="fill:#F9F9F8;stroke:#000000;stroke-linecap:round;stroke-linejoin:round;" d="M262.334,279c4.668,4.5,4.834,20.667,4.834,20.667l13.5-8.167c-4.5-8.334-11.666-13.833-11.666-13.833L262.334,279z"></path><path style="fill:none;stroke:#000000;stroke-linecap:round;stroke-linejoin:round;" d="M267.305,278.075c0.424,0.3,8.893,8.11,10.533,12.643c-3.109,2.157-10.359,6.782-10.359,6.782"></path><path style="fill:#F9F9F8;stroke:#000000;stroke-linecap:round;stroke-linejoin:round;" d="M266.561,298.604c0,0,5.275,0.729,9.395,3.263c1.063,0.979,6.734,0.979,6.734,0.979s-18.254,33.854-18.256,36.546c0,2.691,0,5.546,0,5.546S260.357,334.822,266.561,298.604z"></path><path style="fill:none;stroke:#000000;stroke-linecap:round;stroke-linejoin:round;" d="M266.846,300.577c0,0,3.883,0.673,7.383,3.048c2.625,0.5,4.922,1.034,4.922,1.034s-13.422,25.716-15.172,31.591"></path></g></g></g></g></g></g></svg>