<svg xmlns="http://www.w3.org/2000/svg" width="500" height="500" version="1.1"><g id="x9134"><g><g><g><path style="fill:#6E6E6E;stroke:#000000;stroke-linecap:round;stroke-linejoin:round;" d="M282.417,299c0,0,16,33.002,25.333,48.668c-6.333-1.668-11-6.334-11-6.334l-5.666,13l-14-2.667l-8.334-37L282.417,299z"></path><path style="fill:#505050;" d="M283.833,347.084c0-0.25,2.042-10.709,2.042-10.709l10.375,3.5l1.824-8.875l-3.907-7.416l-1.667,9.083c0,0-7.834-2.083-9.917-2.75c-1.833,5.167-2.666,10.334-2.666,10.334L283.833,347.084z"></path><path style="opacity:0.7;" d="M296.25,339.875l-10.375-3.5L282.75,352l8.334,2.334l5.479-13.572c0,0,5.688,4.988,10.188,6.238l-8.676-16L296.25,339.875z"></path><path style="fill:#505050;" d="M274.25,314c0,0,3.375,4.875,4.125,8.5S276,338.125,276,337.5s-5.917-19.5-5.917-19.5L274.25,314z"></path></g><g><path style="fill:#6E6E6E;stroke:#000000;stroke-linecap:round;stroke-linejoin:round;" d="M217.583,299c0,0-16,33.002-25.333,48.668c6.333-1.668,11-6.334,11-6.334l5.666,13l14-2.667l8.334-37L217.583,299z"></path><path style="fill:#505050;" d="M216.167,347.084c0-0.25-2.042-10.709-2.042-10.709l-10.375,3.5L201.926,331l3.907-7.416l1.667,9.083c0,0,7.834-2.083,9.917-2.75c1.833,5.167,2.666,10.334,2.666,10.334L216.167,347.084z"></path><path style="opacity:0.7;" d="M203.75,339.875l10.375-3.5L217.25,352l-8.334,2.334l-5.479-13.572c0,0-5.688,4.988-10.188,6.238l8.676-16L203.75,339.875z"></path><path style="fill:#505050;" d="M225.75,314c0,0-3.375,4.875-4.125,8.5s2.375,15.625,2.375,15s5.917-19.5,5.917-19.5L225.75,314z"></path></g></g><g><g><g><path style="fill:#505050;stroke:#000000;stroke-linecap:round;stroke-linejoin:round;" d="M219.382,397.748l4.091-10.602c0,0-9.093-3.534-11.519-1.902C209.529,386.875,219.382,397.748,219.382,397.748z"></path><path style="opacity:0.8;" d="M219.382,397.748l4.091-10.602c0,0-9.093-3.534-11.519-1.902C209.529,386.875,219.382,397.748,219.382,397.748z"></path><path style="fill:#6E6E6E;stroke:#000000;stroke-linecap:round;stroke-linejoin:round;" d="M187.702,388.777c7.46-18.953,24.739-50.771,28.775-56.878c3.21-8.919,5.481-14.883,5.481-14.883l7.881-4.35l-0.401,1.429c5.02-0.77,8.891-1.157,8.891-1.157l17.582,35.881c0,0-3.183,22.562-11.368,45.666c-16.371-2.446-22.281-5.164-29.708-7.746c-0.455,1.631,4.547,11.009,4.547,11.009s-5.306,2.445-15.31,6.252c-2.122-2.99-4.547-5.437-6.737-10.663C194.422,392.313,190.365,390.688,187.702,388.777z"></path><path style="fill:#505050;" d="M229.878,330.063c0.341,0,15.574,14.984,17.848,18.042c2.273,3.059,3.069,14.271,3.069,16.718c2.046-6.32,2.387-14.78,2.273-16.31s-3.069-5.198-4.661-6.32C247.158,340.868,229.878,330.063,229.878,330.063z"></path><path style="opacity:0.2;" d="M246.998,341.48c0,0,0.796,5.911,1.705,6.728c0.91,0.815,4.32,0.713,4.32,0.713C252.909,347.087,251.318,344.946,246.998,341.48z"></path><path style="fill:#505050;" d="M228.06,328.024c0,0-6.821-5.606-7.958-7.645c7.162-4.281,18.644-7.747,18.644-7.441S228.06,328.024,228.06,328.024z"></path><path style="opacity:0.2;" d="M228.855,324.355c0-0.511,0.568-3.058-3.41-4.281c6.707-4.078,12.164-7.136,12.164-6.83S228.855,324.355,228.855,324.355z"></path><polygon style="opacity:0.7;" points="218.927,372.74 201.891,359.42 197.041,368.935 215.533,385.516 "></polygon><path style="fill:#505050;" d="M205.588,352.216l-3.606,7.34c0,0,17.128,15.766,17.128,15.086s1.819-10.193,1.819-10.193L205.588,352.216z"></path><path style="opacity:0.9;" d="M219.382,397.748L204.072,404c0,0-5.896-8.279-6.737-10.663c-2.66-1.297-9.557-4.219-9.557-4.219l9.094-21.202l18.988,14.859l-0.988,4.473L219.382,397.748z"></path><g><path style="opacity:0.6;" d="M228.698,391.083c0.767,0.215,1.231,0.345,1.231,0.345c0.056,0.015,0.114,0.03,0.171,0.045l-0.79,0.363L228.698,391.083z"></path><path style="opacity:0.9;" d="M249.065,380.026l0.025-0.016c-0.837,3.357-3.675,14.084-4.547,14.475c-3.517-0.461-9.474-1.677-14.444-3.013l17.854-8.199C247.954,383.273,248.45,381.876,249.065,380.026z"></path><path style="opacity:0.9;" d="M214.758,387.146c0.515-2.882,1.61-7.067,2.466-10.162l11.474,14.099C225.385,390.156,216.42,387.644,214.758,387.146z"></path><path style="opacity:0.7;" d="M221.352,364.109l10.914,16.514c0,0,14.097-6.728,19.099-9.175c0,1.388-3.411,11.825-3.411,11.825l-17.854,8.199c-0.057-0.015-0.115-0.03-0.171-0.045c0,0-0.464-0.13-1.231-0.345l-11.474-14.099L221.352,364.109z"></path><polygon style="fill:#505050;" points="221.352,364.109 224.079,354.936 234.31,371.856 252.557,364.366 250.556,372.929 231.811,381.234 "></polygon></g><path style="fill:none;stroke:#000000;stroke-linecap:round;stroke-linejoin:round;" d="M214.835,386.739c0,0,7.729-28.405,12.277-41.182"></path></g><g><path style="fill:#6E6E6E;stroke:#000000;stroke-linecap:round;stroke-linejoin:round;" d="M217.246,424.056c0.716,1.28,8.364,0.695,8.965-0.764c1.244-6.647-0.705-18.768-0.705-18.768s-0.639-1.928-1.571-3.868C221.465,404.962,216.531,422.777,217.246,424.056z M223.794,407.423c0,0-0.88,11.728-1.143,13.039c-0.515,0.344-1.802,0.772-2.188,0.687C221.064,413.856,223.794,407.423,223.794,407.423z"></path><g><g><path style="fill:#505050;stroke:#000000;stroke-linecap:round;stroke-linejoin:round;" d="M237.526,337.442c0,0-1.314-5.007-1.793-7.017c-1.947,2.029-2.65,1.981-2.631,4.391c0.032,3.64,1.82,7.186,1.82,7.186L237.526,337.442z"></path><path style="fill:#505050;stroke:#000000;stroke-linecap:round;stroke-linejoin:round;" d="M241.676,331.607c0,0,0.861,3.976-0.236,6.457c-1.808,4.09-5.767,6.6-5.767,6.6l-1.449-4.984L241.676,331.607z"></path></g><g><path style="fill:#505050;stroke:#000000;stroke-linecap:round;stroke-linejoin:round;" d="M235.836,346.492c0,0-1.316-5.007-1.794-7.017c-1.949,2.03-2.652,1.981-2.632,4.391c0.032,3.64,1.82,7.186,1.82,7.186L235.836,346.492z"></path><path style="fill:#505050;stroke:#000000;stroke-linecap:round;stroke-linejoin:round;" d="M239.982,340.656c0,0,0.862,3.978-0.235,6.457c-1.809,4.092-5.767,6.601-5.767,6.601l-1.451-4.985L239.982,340.656z"></path></g><g><path style="fill:#6E6E6E;stroke:#000000;stroke-linecap:round;stroke-linejoin:round;" d="M234.143,355.542c0,0-1.314-5.006-1.793-7.016c-1.948,2.031-2.653,1.981-2.632,4.39c0.03,3.639,1.818,7.187,1.818,7.187L234.143,355.542z"></path><path style="fill:#6E6E6E;stroke:#000000;stroke-linecap:round;stroke-linejoin:round;" d="M238.29,349.707c0,0,0.861,3.976-0.236,6.457c-1.809,4.093-5.766,6.602-5.766,6.602l-1.451-4.986L238.29,349.707z"></path></g><g><path style="fill:#6E6E6E;stroke:#000000;stroke-linecap:round;stroke-linejoin:round;" d="M232.45,364.342c0,0-1.315-5.006-1.794-7.016c-1.947,2.031-2.652,1.981-2.631,4.39c0.03,3.64,1.818,7.187,1.818,7.187L232.45,364.342z"></path><path style="fill:#6E6E6E;stroke:#000000;stroke-linecap:round;stroke-linejoin:round;" d="M236.598,358.507c0,0,0.861,3.977-0.235,6.457c-1.81,4.093-5.766,6.603-5.766,6.603l-1.452-4.987L236.598,358.507z"></path></g><g><path style="fill:#6E6E6E;stroke:#000000;stroke-linecap:round;stroke-linejoin:round;" d="M230.757,373.393c0,0-1.314-5.006-1.794-7.017c-1.947,2.03-2.65,1.982-2.63,4.392c0.031,3.64,1.819,7.186,1.819,7.186L230.757,373.393z"></path><path style="fill:#6E6E6E;stroke:#000000;stroke-linecap:round;stroke-linejoin:round;" d="M234.905,367.558c0,0,0.862,3.976-0.235,6.456c-1.81,4.093-5.768,6.602-5.768,6.602l-1.449-4.987L234.905,367.558z"></path></g><g><path style="fill:#6E6E6E;stroke:#000000;stroke-linecap:round;stroke-linejoin:round;" d="M229.065,382.444c0,0-1.316-5.009-1.795-7.019c-1.948,2.031-2.652,1.981-2.632,4.391c0.033,3.641,1.821,7.187,1.821,7.187L229.065,382.444z"></path><path style="fill:#6E6E6E;stroke:#000000;stroke-linecap:round;stroke-linejoin:round;" d="M233.212,376.606c0,0,0.863,3.977-0.235,6.457c-1.808,4.093-5.767,6.602-5.767,6.602l-1.45-4.985L233.212,376.606z"></path></g><g><path style="fill:#6E6E6E;stroke:#000000;stroke-linecap:round;stroke-linejoin:round;" d="M227.372,391.493c0,0-1.315-5.007-1.793-7.016c-1.949,2.03-2.653,1.98-2.632,4.39c0.031,3.64,1.818,7.186,1.818,7.186L227.372,391.493z"></path><path style="fill:#6E6E6E;stroke:#000000;stroke-linecap:round;stroke-linejoin:round;" d="M231.52,385.658c0,0,0.861,3.976-0.236,6.457c-1.809,4.092-5.766,6.601-5.766,6.601l-1.451-4.985L231.52,385.658z"></path></g><g><path style="fill:#6E6E6E;stroke:#000000;stroke-linecap:round;stroke-linejoin:round;" d="M225.679,400.543c0,0-1.314-5.007-1.793-7.017c-1.947,2.03-2.652,1.981-2.631,4.391c0.03,3.64,1.818,7.186,1.818,7.186L225.679,400.543z"></path><path style="fill:#6E6E6E;stroke:#000000;stroke-linecap:round;stroke-linejoin:round;" d="M229.827,394.709c0,0,0.861,3.976-0.236,6.456c-1.809,4.091-5.767,6.6-5.767,6.6l-1.45-4.984L229.827,394.709z"></path></g></g></g><g><path style="fill:#6E6E6E;stroke:#000000;stroke-linecap:round;stroke-linejoin:round;" d="M237.585,315.01c-0.297,0.45-9.92,14.681-10.201,15.99c-0.254,1.17,12.223,7.95,23.562,20.34l4.746,5.66c-2.338-12.33-6.348-28.41-10.218-39.67c-7.854-22.9-16.049-37-16.049-37S217.167,289,212.5,297c1.751,4,5.253,24.33,7.004,29C225.537,323.71,237.208,315.28,237.585,315.01z"></path><g><g><g><path style="fill:#505050;" d="M228.852,329.246c0.103-0.031,0.216-0.022,0.318,0.039c12.498,7.571,23.162,19.541,23.268,19.661c0.172,0.194,0.174,0.511,0.004,0.707c-0.171,0.196-0.447,0.198-0.619,0.004c-0.105-0.119-10.681-11.987-23.063-19.489c-0.144-0.087-0.221-0.253-0.226-0.427L228.852,329.246z"></path></g><g><path style="fill:#505050;" d="M250.905,348.297c-0.085,0.012-2.085,0.263-3.316-1.143c-1.157-1.321-1.727-3.368-1.75-3.454c0.054,0.198,0.211,0.338,0.394,0.35c-0.086-0.005-2.123-0.148-3.636-1.478c-1.493-1.312-2.499-3.835-2.541-3.941c0.076,0.192,0.249,0.31,0.433,0.293c-0.063,0.006-1.57,0.125-3.304-0.932c-1.771-1.079-2.476-3.306-2.505-3.4c0.065,0.21,0.243,0.346,0.437,0.333c-0.086,0.006-2.149,0.12-3.684-1.228c-1.506-1.323-1.985-2.789-2.005-2.851l0,0c-0.083-0.26,0.034-0.547,0.262-0.641c0.228-0.095,0.479,0.039,0.561,0.299l0,0c0-0.001,0-0.001-0.001-0.002c0.004,0.013,0.425,1.266,1.717,2.401c1.272,1.117,3.084,1.023,3.102,1.022c0.194-0.012,0.372,0.124,0.437,0.333c0.006,0.019,0.626,1.957,2.091,2.85c1.498,0.913,2.813,0.818,2.826,0.817c0.183-0.015,0.356,0.103,0.432,0.294c0.009,0.023,0.959,2.402,2.275,3.559c1.294,1.137,3.133,1.271,3.15,1.272c0.182,0.012,0.339,0.151,0.394,0.35c0.005,0.019,0.531,1.9,1.533,3.046c0.681,0.777,1.752,0.876,2.28,0.873c0.19-0.001,0.793,0.624,0.754,0.709C251.178,348.172,251.055,348.276,250.905,348.297L250.905,348.297z"></path></g><g><path style="fill:#505050;" d="M249.584,337.408c0.015,0.053,0.017,0.064,0.048,0.108c-0.411-0.606-9.52-9.728-16.565-13.565l0,0c-0.219-0.119-0.311-0.417-0.207-0.666c0.104-0.25,0.365-0.355,0.583-0.236l0,0c6.769,3.687,16.74,13.248,16.971,14.043l0,0c0.077,0.262-0.047,0.545-0.276,0.633C249.909,337.812,249.661,337.67,249.584,337.408L249.584,337.408z"></path></g><g><path style="fill:#505050;" d="M249.479,336.548L249.479,336.548c-0.208-0.646-0.822-2.446-1.157-3.021c-0.124-0.213-1.123-0.276-2.177-0.037l0,0c-0.237,0.055-0.468-0.121-0.515-0.393c-0.048-0.271,0.106-0.534,0.343-0.588l0,0c0.582-0.133,2.52-0.491,3.077,0.463c0.453,0.776,1.17,2.98,1.25,3.229l0,0c0.084,0.259-0.032,0.547-0.259,0.642C249.814,336.939,249.563,336.807,249.479,336.548L249.479,336.548z"></path></g><g><path style="fill:#505050;" d="M244.339,331.85L244.339,331.85c-0.386-1.117-1.104-3.042-1.394-3.454c0.007,0.01,0.013,0.015,0.013,0.015c-0.23-0.201-1.507-0.163-2.732,0.082l0,0c-0.238,0.048-0.465-0.134-0.507-0.405c-0.042-0.272,0.117-0.531,0.354-0.579l0,0c1.104-0.222,3.033-0.482,3.555,0.263c0.465,0.665,1.418,3.402,1.525,3.712l0,0c0.089,0.257-0.021,0.547-0.247,0.648C244.683,332.232,244.428,332.106,244.339,331.85L244.339,331.85z"></path></g><g><path style="fill:#505050;" d="M238.354,327.094L238.354,327.094c-0.343-1.025-0.998-2.794-1.301-3.175c0.01,0.013,0.018,0.019,0.018,0.019c-0.25-0.178-1.555-0.001-2.791,0.378l0,0c-0.233,0.072-0.474-0.086-0.536-0.353c-0.063-0.267,0.075-0.541,0.309-0.612l0,0c1.119-0.345,3.083-0.815,3.648-0.104c0.502,0.63,1.313,3.019,1.471,3.491l0,0c0.086,0.258-0.026,0.547-0.253,0.645C238.693,327.481,238.44,327.353,238.354,327.094L238.354,327.094z"></path></g><g><path style="fill:#505050;" d="M250.489,340.162c-0.111-0.074-0.245-0.089-0.366-0.04l-1.944,0.777c-0.192,0.077-0.313,0.295-0.291,0.527l0.292,2.998c0.016,0.164,0.103,0.309,0.23,0.386s0.28,0.078,0.409,0.002l2.041-1.221c0.168-0.102,0.261-0.314,0.229-0.529l-0.389-2.555C250.676,340.363,250.6,340.237,250.489,340.162z M248.468,341.843l1.944-0.777c-0.122,0.049-0.256,0.034-0.366-0.04c-0.111-0.075-0.188-0.201-0.21-0.346l0.389,2.555c-0.032-0.215,0.06-0.428,0.229-0.529l-2.041,1.221c0.128-0.076,0.281-0.075,0.409,0.002c0.127,0.077,0.213,0.222,0.229,0.386l-0.292-2.998C248.781,341.548,248.661,341.766,248.468,341.843z"></path></g><g><path style="fill:#505050;" d="M244.259,333.899c-0.111-0.075-0.246-0.09-0.367-0.041l-2.239,0.895c-0.192,0.077-0.313,0.296-0.291,0.527l0.337,3.449c0.016,0.164,0.102,0.309,0.229,0.386c0.128,0.077,0.281,0.078,0.409,0.002l2.35-1.405c0.168-0.102,0.261-0.314,0.229-0.529l-0.447-2.938C244.447,334.1,244.37,333.974,244.259,333.899z M241.943,335.696l2.239-0.895c-0.122,0.049-0.255,0.034-0.366-0.041c-0.111-0.074-0.187-0.2-0.209-0.345l0.447,2.938c-0.033-0.215,0.06-0.428,0.229-0.529l-2.35,1.405c0.128-0.076,0.281-0.075,0.409,0.002c0.127,0.077,0.213,0.222,0.23,0.386l-0.337-3.449C242.256,335.4,242.135,335.619,241.943,335.696z"></path></g><g><path style="fill:#505050;" d="M236.886,327.068c-0.11-0.074-0.245-0.089-0.366-0.04l-2.641,1.056c-0.192,0.077-0.313,0.295-0.291,0.527l0.396,4.071c0.016,0.164,0.102,0.309,0.23,0.386c0.127,0.077,0.28,0.078,0.408,0.002l2.774-1.658c0.168-0.102,0.261-0.314,0.227-0.529l-0.528-3.469C237.074,327.27,236.998,327.144,236.886,327.068z M234.169,329.027l2.641-1.056c-0.122,0.049-0.255,0.034-0.366-0.04c-0.111-0.075-0.188-0.201-0.209-0.346l0.528,3.469c-0.033-0.215,0.059-0.428,0.229-0.529l-2.773,1.658c0.127-0.076,0.28-0.075,0.408,0.002c0.128,0.077,0.214,0.222,0.23,0.387l-0.396-4.072C234.482,328.732,234.361,328.95,234.169,329.027z"></path></g><g><path style="fill:#505050;" d="M247.917,337.421c0.019,0.005,0.061,0.075,0.038,0.183c-0.012,0.058-0.04,0.106-0.074,0.132c-0.009,0.006-0.022,0.013-0.03,0.011c-0.018-0.005-0.06-0.075-0.038-0.181C247.835,337.458,247.899,337.417,247.917,337.421z M246.96,337.335c-0.129,0.625,0.18,1.246,0.688,1.384c0.235,0.063,0.481,0.016,0.692-0.134c0.232-0.163,0.402-0.438,0.467-0.753c0.129-0.626-0.18-1.247-0.689-1.384C247.608,336.312,247.089,336.71,246.96,337.335z"></path></g><g><path style="fill:#505050;" d="M240.62,331.046c0.008,0.002,0.017,0.015,0.022,0.025c0.021,0.04,0.027,0.098,0.015,0.157c-0.012,0.058-0.04,0.106-0.075,0.132c-0.004,0.003-0.02,0.013-0.029,0.011c-0.017-0.005-0.059-0.077-0.038-0.182C240.538,331.083,240.603,331.042,240.62,331.046z M239.665,330.961c-0.129,0.625,0.179,1.245,0.687,1.383c0.235,0.063,0.481,0.016,0.692-0.134c0.232-0.163,0.402-0.438,0.466-0.752c0.065-0.315,0.021-0.647-0.122-0.912c-0.131-0.241-0.332-0.409-0.566-0.473C240.312,329.937,239.792,330.335,239.665,330.961z"></path></g><g><path style="fill:#505050;" d="M233.061,325.387c0.008,0.002,0.016,0.015,0.022,0.025c0.021,0.04,0.027,0.098,0.016,0.157c-0.012,0.058-0.04,0.106-0.075,0.132c-0.004,0.003-0.02,0.013-0.029,0.011c-0.017-0.005-0.059-0.077-0.038-0.182C232.979,325.424,233.044,325.383,233.061,325.387z M232.105,325.302c-0.129,0.625,0.18,1.245,0.688,1.383c0.235,0.063,0.48,0.016,0.692-0.134c0.231-0.163,0.402-0.438,0.466-0.752c0.066-0.315,0.021-0.647-0.122-0.912c-0.131-0.241-0.332-0.409-0.566-0.473C232.752,324.277,232.233,324.676,232.105,325.302z"></path></g></g><g><g><path style="fill:#505050;" d="M214.464,294.893c0.075,0.053,0.14,0.123,0.176,0.223c5.199,13.964,7.128,28.962,7.147,29.111c0.011,0.082-0.002,0.16-0.024,0.233l-0.595,0.28c-0.127-0.07-0.226-0.2-0.247-0.371c-0.019-0.147-1.919-14.902-7.024-28.694L214.464,294.893z"></path></g><g><path style="fill:#505050;" d="M218.053,310.062c0.061,0.162,0.192,0.275,0.345,0.299c-0.025-0.004-0.255-0.045-0.574-0.207c0.14-0.347,0.261-0.558,0.276-0.582C218.01,309.714,217.992,309.9,218.053,310.062z"></path><path style="fill:#505050;" d="M219.756,318.178c0.04,0.13,0.125,0.235,0.237,0.29c-0.021-0.011-0.174-0.094-0.39-0.253c0.095-0.252,0.165-0.41,0.175-0.434C219.723,317.904,219.715,318.048,219.756,318.178z"></path><path style="fill:#505050;" d="M214.013,299.73c-0.449-2.112-0.021-3.599-0.002-3.66c0.078-0.262,0.326-0.402,0.555-0.313c0.229,0.089,0.352,0.372,0.274,0.634c0-0.001,0,0,0-0.002c-0.004,0.013-0.362,1.293,0.022,3.104c0.38,1.776,1.844,3.001,1.859,3.013c0.165,0.136,0.227,0.384,0.149,0.598c-0.007,0.02-0.708,2.002-0.233,3.839c0.561,2.17,1.826,2.417,1.879,2.427c-0.021-0.004-0.039-0.005-0.062-0.005c0.165,0,0.316,0.105,0.39,0.272s0.062,0.368-0.035,0.521c-0.039,0.063-0.98,1.631-0.415,4.396c0.451,2.209,1.889,2.969,1.949,3c0.109,0.056,0.195,0.161,0.235,0.291c0.039,0.129,0.032,0.272-0.022,0.395c-0.009,0.019-0.884,1.998-0.731,3.583c0.138,1.449,1.762,2.326,1.779,2.335h0c0.106,0.057,0.184,0.156,0.223,0.273l-0.919,0.432c-0.596-0.398-1.806-1.385-1.953-2.932c-0.135-1.407,0.366-2.973,0.646-3.715c0.216,0.159,0.37,0.242,0.39,0.253c-0.111-0.055-0.197-0.16-0.237-0.29c-0.041-0.13-0.033-0.273,0.022-0.396c-0.01,0.023-0.08,0.182-0.175,0.434c-0.583-0.429-1.655-1.455-2.061-3.435c-0.461-2.25-0.037-3.833,0.282-4.627c0.318,0.162,0.548,0.203,0.574,0.207c-0.153-0.023-0.284-0.137-0.345-0.299c-0.062-0.161-0.043-0.348,0.047-0.49c-0.016,0.024-0.137,0.235-0.276,0.582c-0.609-0.31-1.547-1.072-2.026-2.928c-0.441-1.706-0.055-3.426,0.152-4.146c0.143,0.138,0.246,0.227,0.262,0.239c-0.166-0.136-0.228-0.383-0.15-0.598c-0.008,0.021-0.054,0.157-0.112,0.358C215.451,302.597,214.37,301.396,214.013,299.73z"></path><path style="fill:#505050;" d="M216.212,303.318c-0.016-0.013-0.119-0.102-0.262-0.239c0.058-0.201,0.104-0.338,0.112-0.358C215.984,302.936,216.046,303.183,216.212,303.318z"></path></g><g><path style="fill:#505050;" d="M219.587,289.174c0.153,0.006,0.301,0.097,0.376,0.264c3.607,7.953,8.415,24.466,9.237,30.528c0.008,0.062,0.003,0.122-0.007,0.181l-0.579,0.355c-0.142-0.062-0.255-0.199-0.28-0.384c-0.813-5.994-5.575-22.34-9.149-30.222c-0.042-0.093-0.048-0.192-0.038-0.289L219.587,289.174z"></path></g><g><path style="fill:#505050;" d="M226.813,312.121L226.813,312.121c0.175-0.658,0.637-2.517,0.674-3.206c0.014-0.285-0.834-1.043-1.715-1.53l0,0c-0.217-0.12-0.309-0.419-0.204-0.668c0.105-0.248,0.367-0.353,0.585-0.232l0,0c0.533,0.294,2.268,1.343,2.208,2.49c-0.05,0.948-0.683,3.336-0.709,3.438l0,0c-0.07,0.264-0.315,0.413-0.546,0.333C226.873,312.665,226.742,312.386,226.813,312.121L226.813,312.121z"></path></g><g><path style="fill:#505050;" d="M228.491,319.621L228.491,319.621c0.175-0.658,0.637-2.517,0.674-3.206c0.015-0.285-0.834-1.043-1.715-1.53l0,0c-0.217-0.12-0.309-0.419-0.203-0.668c0.105-0.248,0.367-0.353,0.584-0.232l0,0c0.533,0.294,2.268,1.343,2.208,2.49c-0.051,0.948-0.683,3.336-0.71,3.438l0,0c-0.07,0.264-0.314,0.413-0.546,0.333C228.552,320.165,228.421,319.886,228.491,319.621L228.491,319.621z"></path></g><g><path style="fill:#505050;" d="M224.707,304.93L224.707,304.93c0.283-1.156,0.727-3.188,0.715-3.716c0.001,0.014,0.003,0.021,0.003,0.021c-0.075-0.314-1.136-1.182-2.224-1.818l0,0c-0.214-0.126-0.3-0.428-0.19-0.674c0.11-0.245,0.375-0.343,0.59-0.217l0,0c0.997,0.584,2.674,1.707,2.697,2.661c0.019,0.852-0.669,3.69-0.748,4.012l0,0c-0.065,0.266-0.306,0.421-0.54,0.347C224.778,305.472,224.642,305.196,224.707,304.93L224.707,304.93z"></path></g><g><path style="fill:#505050;" d="M222.281,296.996L222.281,296.996c0.269-1.053,0.681-2.915,0.641-3.427c0.002,0.018,0.004,0.026,0.004,0.026c-0.105-0.314-1.238-1.073-2.425-1.623l0,0c-0.224-0.104-0.333-0.395-0.241-0.65c0.091-0.256,0.345-0.38,0.569-0.275l0,0c1.075,0.497,2.888,1.475,2.964,2.433c0.067,0.85-0.549,3.313-0.674,3.798l0,0c-0.067,0.265-0.31,0.417-0.543,0.339C222.346,297.539,222.212,297.262,222.281,296.996L222.281,296.996z"></path></g><g><path style="fill:#505050;" d="M225.049,315.781c-0.049-0.136-0.148-0.239-0.27-0.284l-1.959-0.72c-0.194-0.071-0.405,0.02-0.511,0.219l-1.354,2.589c-0.074,0.143-0.082,0.316-0.021,0.467c0.061,0.149,0.183,0.256,0.325,0.283l2.275,0.436c0.188,0.036,0.375-0.071,0.462-0.265l1.038-2.305C225.093,316.07,225.099,315.917,225.049,315.781z M222.552,315.729l1.959,0.72c-0.123-0.045-0.222-0.148-0.271-0.284c-0.049-0.136-0.043-0.289,0.016-0.42l-1.038,2.305c0.087-0.193,0.273-0.301,0.462-0.265l-2.275-0.436c0.142,0.027,0.264,0.134,0.325,0.283c0.061,0.15,0.052,0.324-0.021,0.467l1.354-2.589C222.957,315.709,222.746,315.8,222.552,315.729z"></path></g><g><path style="fill:#505050;" d="M223.393,306.492c-0.049-0.136-0.148-0.239-0.27-0.284l-2.259-0.83c-0.194-0.071-0.406,0.02-0.51,0.22l-1.553,2.982c-0.074,0.143-0.082,0.316-0.021,0.466c0.061,0.15,0.182,0.256,0.324,0.283l2.615,0.5c0.188,0.036,0.375-0.071,0.462-0.265l1.196-2.652C223.437,306.782,223.443,306.628,223.393,306.492z M220.595,306.329l2.259,0.83c-0.122-0.045-0.222-0.148-0.27-0.284c-0.05-0.136-0.044-0.29,0.015-0.42l-1.196,2.652c0.087-0.193,0.274-0.301,0.462-0.265l-2.616-0.5c0.142,0.027,0.264,0.133,0.324,0.283c0.062,0.149,0.053,0.323-0.021,0.466l1.553-2.982C221.001,306.31,220.79,306.401,220.595,306.329z"></path></g><g><path style="fill:#505050;" d="M221.125,295.964c-0.049-0.136-0.148-0.239-0.27-0.284l-2.664-0.978c-0.194-0.071-0.406,0.02-0.51,0.22l-1.837,3.518c-0.074,0.142-0.083,0.316-0.021,0.466c0.061,0.15,0.183,0.256,0.325,0.283l3.087,0.591c0.188,0.036,0.375-0.071,0.462-0.264l1.414-3.131C221.169,296.254,221.175,296.101,221.125,295.964z M217.923,295.653l2.664,0.978c-0.122-0.045-0.222-0.148-0.27-0.284c-0.05-0.137-0.044-0.29,0.015-0.421l-1.413,3.131c0.087-0.192,0.273-0.3,0.461-0.264l-3.087-0.591c0.142,0.027,0.264,0.134,0.325,0.283c0.061,0.149,0.052,0.324-0.021,0.466l1.837-3.518C218.33,295.634,218.118,295.725,217.923,295.653z"></path></g><g><path style="fill:#505050;" d="M224.418,311.812c0.005,0.001,0.024,0.003,0.03,0.011c0.012,0.017,0.008,0.102-0.067,0.172c-0.041,0.038-0.088,0.058-0.128,0.054c-0.006-0.001-0.023-0.004-0.03-0.012c-0.011-0.016-0.006-0.102,0.066-0.17C224.33,311.827,224.378,311.808,224.418,311.812z M224.499,310.816c-0.27-0.029-0.55,0.073-0.767,0.278c-0.433,0.408-0.516,1.116-0.185,1.577c0.154,0.213,0.375,0.345,0.623,0.371c0.272,0.029,0.552-0.072,0.77-0.278c0.435-0.409,0.517-1.116,0.185-1.577C224.968,310.974,224.747,310.842,224.499,310.816z"></path></g><g><path style="fill:#505050;" d="M221.97,301.699c0.005,0.001,0.022,0.003,0.029,0.013c0.012,0.017,0.008,0.1-0.064,0.169c-0.075,0.069-0.149,0.057-0.159,0.044c-0.012-0.018-0.009-0.103,0.065-0.172C221.9,301.696,221.954,301.697,221.97,301.699z M222.054,300.704c-0.271-0.03-0.552,0.071-0.771,0.277c-0.433,0.407-0.516,1.115-0.182,1.58c0.334,0.458,0.958,0.498,1.392,0.089c0.433-0.411,0.513-1.118,0.18-1.577C222.521,300.863,222.3,300.731,222.054,300.704z"></path></g><g><path style="fill:#505050;" d="M218.933,291.975c0.011,0.002,0.025,0.005,0.03,0.013c0.005,0.007,0.005,0.022,0.004,0.034c-0.003,0.046-0.03,0.097-0.073,0.137c-0.039,0.037-0.087,0.058-0.127,0.053c-0.005,0-0.023-0.003-0.028-0.01c-0.012-0.017-0.009-0.102,0.065-0.171C218.845,291.99,218.893,291.971,218.933,291.975z M219.015,290.979c-0.271-0.029-0.552,0.073-0.769,0.279c-0.433,0.409-0.516,1.116-0.183,1.579c0.155,0.212,0.376,0.344,0.625,0.369c0.27,0.028,0.55-0.074,0.765-0.278c0.219-0.206,0.36-0.502,0.387-0.812c0.023-0.282-0.048-0.555-0.201-0.767C219.485,291.138,219.263,291.006,219.015,290.979z"></path></g></g></g></g></g><g><g><path style="fill:#505050;stroke:#000000;stroke-linecap:round;stroke-linejoin:round;" d="M280.618,397.748l-4.092-10.602c0,0,9.094-3.534,11.519-1.902C290.471,386.875,280.618,397.748,280.618,397.748z"></path><path style="opacity:0.8;" d="M280.618,397.748l-4.092-10.602c0,0,9.094-3.534,11.519-1.902C290.471,386.875,280.618,397.748,280.618,397.748z"></path><path style="fill:#6E6E6E;stroke:#000000;stroke-linecap:round;stroke-linejoin:round;" d="M312.298,388.777c-7.46-18.953-24.739-50.771-28.775-56.878c-3.209-8.919-5.481-14.883-5.481-14.883l-7.881-4.35l0.401,1.429c-5.02-0.77-8.891-1.157-8.891-1.157L244.5,352.522c0,0,2.771,18.858,10.957,41.963c16.37-2.446,22.28-5.164,29.708-7.747c0.455,1.632-4.547,11.01-4.547,11.01s5.306,2.445,15.31,6.252c2.122-2.99,4.547-5.437,6.737-10.663C305.578,392.313,309.635,390.688,312.298,388.777z"></path><path style="fill:#505050;" d="M270.122,330.063c-0.342,0-15.575,14.984-17.849,18.042c-2.273,3.059-3.069,14.271-3.069,16.718c-2.046-6.32-2.387-14.78-2.273-16.31s3.069-5.198,4.661-6.32C252.842,340.868,270.122,330.063,270.122,330.063z"></path><path style="opacity:0.2;" d="M253.002,341.48c0,0-0.796,5.911-1.705,6.728c-0.91,0.815-4.32,0.713-4.32,0.713C247.09,347.087,248.682,344.946,253.002,341.48z"></path><path style="fill:#505050;" d="M271.94,328.024c0,0,6.821-5.606,7.958-7.645c-7.162-4.281-18.644-7.747-18.644-7.441S271.94,328.024,271.94,328.024z"></path><path style="opacity:0.2;" d="M271.145,324.355c0-0.511-0.568-3.058,3.411-4.281c-6.708-4.078-12.164-7.136-12.164-6.83S271.145,324.355,271.145,324.355z"></path><polygon style="opacity:0.7;" points="281.073,372.74 298.108,359.42 302.959,368.935 284.467,385.516 "></polygon><path style="fill:#505050;" d="M294.411,352.216l3.607,7.34c0,0-17.129,15.766-17.129,15.086s-1.819-10.193-1.819-10.193L294.411,352.216z"></path><path style="opacity:0.9;" d="M280.618,397.748l15.31,6.252c0,0,5.896-8.279,6.737-10.663c2.66-1.297,9.558-4.219,9.558-4.219l-9.095-21.202l-18.987,14.859l0.987,4.473L280.618,397.748z"></path><g><path style="opacity:0.6;" d="M271.302,391.083c-0.767,0.215-1.23,0.345-1.23,0.345c-0.056,0.015-0.114,0.03-0.171,0.045l0.79,0.363L271.302,391.083z"></path><path style="opacity:0.9;" d="M250.935,380.026l-0.025-0.016c0.837,3.357,3.675,14.084,4.547,14.475c3.516-0.461,9.474-1.677,14.443-3.013l-17.854-8.199C252.046,383.273,251.549,381.876,250.935,380.026z"></path><path style="opacity:0.9;" d="M285.241,387.146c-0.514-2.882-1.61-7.067-2.465-10.162l-11.475,14.099C274.615,390.156,283.58,387.644,285.241,387.146z"></path><path style="opacity:0.7;" d="M278.647,364.109l-10.913,16.514c0,0-14.097-6.728-19.099-9.175c0,1.388,3.41,11.825,3.41,11.825l17.854,8.199c0.057-0.015,0.115-0.03,0.171-0.045c0,0,0.464-0.13,1.23-0.345l11.475-14.099L278.647,364.109z"></path><polygon style="fill:#505050;" points="278.647,364.109 275.921,354.936 265.689,371.856 247.442,364.366 249.444,372.929 268.189,381.234 "></polygon></g><path style="fill:none;stroke:#000000;stroke-linecap:round;stroke-linejoin:round;" d="M285.165,386.738c0,0-7.729-28.404-12.276-41.181"></path></g><g><path style="fill:#6E6E6E;stroke:#000000;stroke-linecap:round;stroke-linejoin:round;" d="M276.065,400.656c-0.933,1.94-1.571,3.868-1.571,3.868s-1.949,12.12-0.705,18.768c0.601,1.459,8.249,2.044,8.965,0.764C283.469,422.777,278.535,404.962,276.065,400.656z M279.536,421.148c-0.386,0.086-1.673-0.343-2.188-0.687c-0.263-1.312-1.143-13.039-1.143-13.039S278.936,413.856,279.536,421.148z"></path><g><g><path style="fill:#505050;stroke:#000000;stroke-linecap:round;stroke-linejoin:round;" d="M262.473,337.442c0,0,1.315-5.007,1.794-7.017c1.947,2.029,2.65,1.981,2.631,4.391c-0.032,3.64-1.82,7.186-1.82,7.186L262.473,337.442z"></path><path style="fill:#505050;stroke:#000000;stroke-linecap:round;stroke-linejoin:round;" d="M258.324,331.607c0,0-0.861,3.976,0.236,6.457c1.808,4.09,5.767,6.6,5.767,6.6l1.449-4.984L258.324,331.607z"></path></g><g><path style="fill:#505050;stroke:#000000;stroke-linecap:round;stroke-linejoin:round;" d="M264.164,346.492c0,0,1.316-5.007,1.794-7.017c1.949,2.03,2.652,1.981,2.632,4.391c-0.032,3.64-1.82,7.186-1.82,7.186L264.164,346.492z"></path><path style="fill:#505050;stroke:#000000;stroke-linecap:round;stroke-linejoin:round;" d="M260.018,340.656c0,0-0.862,3.978,0.235,6.457c1.808,4.092,5.767,6.601,5.767,6.601l1.451-4.985L260.018,340.656z"></path></g><g><path style="fill:#6E6E6E;stroke:#000000;stroke-linecap:round;stroke-linejoin:round;" d="M265.857,355.542c0,0,1.314-5.006,1.793-7.016c1.948,2.031,2.653,1.981,2.632,4.39c-0.03,3.639-1.818,7.187-1.818,7.187L265.857,355.542z"></path><path style="fill:#6E6E6E;stroke:#000000;stroke-linecap:round;stroke-linejoin:round;" d="M261.71,349.707c0,0-0.862,3.976,0.236,6.457c1.809,4.093,5.766,6.602,5.766,6.602l1.451-4.986L261.71,349.707z"></path></g><g><path style="fill:#6E6E6E;stroke:#000000;stroke-linecap:round;stroke-linejoin:round;" d="M267.55,364.342c0,0,1.315-5.006,1.794-7.016c1.947,2.031,2.652,1.981,2.631,4.39c-0.03,3.64-1.818,7.187-1.818,7.187L267.55,364.342z"></path><path style="fill:#6E6E6E;stroke:#000000;stroke-linecap:round;stroke-linejoin:round;" d="M263.402,358.507c0,0-0.861,3.977,0.235,6.457c1.81,4.093,5.766,6.603,5.766,6.603l1.452-4.987L263.402,358.507z"></path></g><g><path style="fill:#6E6E6E;stroke:#000000;stroke-linecap:round;stroke-linejoin:round;" d="M269.243,373.393c0,0,1.314-5.006,1.794-7.017c1.947,2.03,2.65,1.982,2.63,4.392c-0.031,3.64-1.819,7.186-1.819,7.186L269.243,373.393z"></path><path style="fill:#6E6E6E;stroke:#000000;stroke-linecap:round;stroke-linejoin:round;" d="M265.095,367.558c0,0-0.862,3.976,0.235,6.456c1.81,4.093,5.768,6.602,5.768,6.602l1.449-4.987L265.095,367.558z"></path></g><g><path style="fill:#6E6E6E;stroke:#000000;stroke-linecap:round;stroke-linejoin:round;" d="M270.935,382.444c0,0,1.316-5.009,1.795-7.019c1.948,2.031,2.652,1.981,2.632,4.391c-0.033,3.641-1.821,7.187-1.821,7.187L270.935,382.444z"></path><path style="fill:#6E6E6E;stroke:#000000;stroke-linecap:round;stroke-linejoin:round;" d="M266.788,376.606c0,0-0.863,3.977,0.235,6.457c1.808,4.093,5.767,6.602,5.767,6.602l1.45-4.985L266.788,376.606z"></path></g><g><path style="fill:#6E6E6E;stroke:#000000;stroke-linecap:round;stroke-linejoin:round;" d="M272.628,391.493c0,0,1.315-5.007,1.793-7.016c1.949,2.03,2.653,1.98,2.632,4.39c-0.031,3.64-1.818,7.186-1.818,7.186L272.628,391.493z"></path><path style="fill:#6E6E6E;stroke:#000000;stroke-linecap:round;stroke-linejoin:round;" d="M268.48,385.658c0,0-0.861,3.976,0.236,6.457c1.809,4.092,5.766,6.601,5.766,6.601l1.451-4.985L268.48,385.658z"></path></g><g><path style="fill:#6E6E6E;stroke:#000000;stroke-linecap:round;stroke-linejoin:round;" d="M274.321,400.543c0,0,1.314-5.007,1.793-7.017c1.947,2.03,2.652,1.981,2.631,4.391c-0.03,3.64-1.818,7.186-1.818,7.186L274.321,400.543z"></path><path style="fill:#6E6E6E;stroke:#000000;stroke-linecap:round;stroke-linejoin:round;" d="M270.173,394.709c0,0-0.861,3.976,0.236,6.456c1.809,4.091,5.767,6.6,5.767,6.6l1.45-4.984L270.173,394.709z"></path></g></g></g><g><path style="fill:#6E6E6E;stroke:#000000;stroke-linecap:round;stroke-linejoin:round;" d="M262.415,315.01c0.298,0.45,9.92,14.681,10.2,15.99c0.254,1.17-12.223,7.95-23.561,20.34l-4.745,5.66c2.337-12.33,6.348-28.41,10.217-39.67c7.854-22.9,16.049-37,16.049-37S282.833,289,287.5,297c-1.751,4-5.253,24.33-7.005,29C274.463,323.71,262.792,315.28,262.415,315.01z"></path><g><g><g><path style="fill:#505050;" d="M271.148,329.246c-0.103-0.031-0.217-0.022-0.318,0.039c-12.498,7.571-23.163,19.541-23.269,19.661c-0.171,0.194-0.173,0.511-0.003,0.707c0.171,0.196,0.448,0.198,0.619,0.004c0.106-0.119,10.682-11.987,23.063-19.489c0.145-0.087,0.221-0.253,0.227-0.427L271.148,329.246z"></path></g><g><path style="fill:#505050;" d="M249.095,348.297c0.084,0.012,2.084,0.263,3.316-1.143c1.157-1.321,1.726-3.368,1.749-3.454c-0.055,0.198-0.211,0.338-0.393,0.35c0.085-0.005,2.122-0.148,3.636-1.478c1.492-1.312,2.498-3.835,2.54-3.941c-0.076,0.192-0.249,0.31-0.433,0.293c0.063,0.006,1.569,0.125,3.304-0.932c1.771-1.079,2.477-3.306,2.505-3.4c-0.064,0.21-0.242,0.346-0.437,0.333c0.086,0.006,2.149,0.12,3.684-1.228c1.506-1.323,1.985-2.789,2.005-2.851l0,0c0.083-0.26-0.034-0.547-0.262-0.641c-0.228-0.095-0.479,0.039-0.561,0.299l0,0c0-0.001,0-0.001,0.001-0.002c-0.005,0.013-0.426,1.266-1.718,2.401c-1.271,1.117-3.084,1.023-3.102,1.022c-0.194-0.012-0.372,0.124-0.437,0.333c-0.007,0.019-0.626,1.957-2.092,2.85c-1.498,0.913-2.813,0.818-2.826,0.817c-0.183-0.015-0.356,0.103-0.432,0.294c-0.01,0.023-0.959,2.402-2.275,3.559c-1.294,1.137-3.133,1.271-3.151,1.272c-0.182,0.012-0.339,0.151-0.393,0.35c-0.005,0.019-0.531,1.9-1.533,3.046c-0.682,0.777-1.752,0.876-2.28,0.873c-0.19-0.001-0.793,0.624-0.755,0.709C248.822,348.172,248.945,348.276,249.095,348.297L249.095,348.297z"></path></g><g><path style="fill:#505050;" d="M250.416,337.408c-0.015,0.053-0.017,0.064-0.048,0.108c0.411-0.606,9.52-9.728,16.565-13.565l0,0c0.22-0.119,0.312-0.417,0.207-0.666c-0.104-0.25-0.365-0.355-0.583-0.236l0,0c-6.77,3.687-16.74,13.248-16.972,14.043l0,0c-0.076,0.262,0.048,0.545,0.277,0.633C250.091,337.812,250.338,337.67,250.416,337.408L250.416,337.408z"></path></g><g><path style="fill:#505050;" d="M250.52,336.548L250.52,336.548c0.208-0.646,0.823-2.446,1.158-3.021c0.124-0.213,1.122-0.276,2.177-0.037l0,0c0.237,0.055,0.467-0.121,0.515-0.393c0.048-0.271-0.105-0.534-0.344-0.588l0,0c-0.58-0.133-2.519-0.491-3.076,0.463c-0.453,0.776-1.17,2.98-1.25,3.229l0,0c-0.084,0.259,0.032,0.547,0.259,0.642C250.185,336.939,250.436,336.807,250.52,336.548L250.52,336.548z"></path></g><g><path style="fill:#505050;" d="M255.66,331.85L255.66,331.85c0.387-1.117,1.105-3.042,1.395-3.454c-0.008,0.01-0.013,0.015-0.013,0.015c0.229-0.201,1.507-0.163,2.731,0.082l0,0c0.239,0.048,0.466-0.134,0.508-0.405c0.042-0.272-0.117-0.531-0.355-0.579l0,0c-1.104-0.222-3.032-0.482-3.555,0.263c-0.466,0.665-1.418,3.402-1.524,3.712l0,0c-0.089,0.257,0.021,0.547,0.246,0.648S255.571,332.106,255.66,331.85L255.66,331.85z"></path></g><g><path style="fill:#505050;" d="M261.646,327.094L261.646,327.094c0.343-1.025,0.998-2.794,1.302-3.175c-0.011,0.013-0.019,0.019-0.019,0.019c0.25-0.178,1.555-0.001,2.791,0.378l0,0c0.233,0.072,0.474-0.086,0.536-0.353c0.063-0.267-0.075-0.541-0.309-0.612l0,0c-1.119-0.345-3.082-0.815-3.648-0.104c-0.502,0.63-1.313,3.019-1.471,3.491l0,0c-0.086,0.258,0.026,0.547,0.253,0.645C261.307,327.481,261.56,327.353,261.646,327.094L261.646,327.094z"></path></g><g><path style="fill:#505050;" d="M249.301,340.508l-0.388,2.555c-0.033,0.215,0.06,0.428,0.227,0.529l2.042,1.221c0.128,0.076,0.28,0.075,0.409-0.002c0.127-0.077,0.213-0.222,0.229-0.386l0.293-2.998c0.021-0.232-0.099-0.45-0.291-0.527l-1.944-0.777c-0.122-0.049-0.255-0.034-0.366,0.04C249.4,340.237,249.323,340.363,249.301,340.508z M251.241,341.315l-0.292,2.998c0.017-0.164,0.103-0.309,0.229-0.386c0.128-0.077,0.281-0.078,0.409-0.002l-2.041-1.221c0.167,0.102,0.26,0.314,0.228,0.529l0.39-2.555c-0.022,0.145-0.099,0.271-0.21,0.346c-0.111,0.074-0.244,0.089-0.366,0.04l1.944,0.777C251.339,341.766,251.22,341.548,251.241,341.315z"></path></g><g><path style="fill:#505050;" d="M255.531,334.244l-0.447,2.938c-0.032,0.215,0.06,0.428,0.229,0.529l2.349,1.405c0.128,0.076,0.281,0.075,0.408-0.002c0.129-0.077,0.214-0.222,0.23-0.386l0.337-3.449c0.022-0.231-0.099-0.45-0.291-0.527l-2.239-0.895c-0.121-0.049-0.255-0.034-0.366,0.041C255.63,333.974,255.554,334.1,255.531,334.244z M257.767,335.169l-0.337,3.449c0.016-0.164,0.102-0.309,0.229-0.386s0.28-0.078,0.409-0.002l-2.35-1.405c0.168,0.102,0.261,0.314,0.228,0.529l0.447-2.938c-0.021,0.145-0.099,0.271-0.209,0.345c-0.111,0.075-0.245,0.09-0.367,0.041l2.239,0.895C257.864,335.619,257.743,335.4,257.767,335.169z"></path></g><g><path style="fill:#505050;" d="M262.904,327.414l-0.528,3.469c-0.033,0.215,0.059,0.428,0.228,0.529l2.773,1.658c0.127,0.076,0.28,0.075,0.408-0.002s0.213-0.222,0.229-0.386l0.396-4.071c0.022-0.232-0.098-0.45-0.29-0.527l-2.641-1.056c-0.121-0.049-0.256-0.034-0.366,0.04C263.003,327.144,262.926,327.27,262.904,327.414z M265.54,328.5l-0.396,4.072c0.016-0.165,0.102-0.31,0.229-0.387s0.28-0.078,0.408-0.002l-2.772-1.658c0.169,0.102,0.261,0.314,0.228,0.529l0.528-3.469c-0.021,0.145-0.098,0.271-0.209,0.346c-0.111,0.074-0.245,0.089-0.366,0.04l2.641,1.056C265.639,328.95,265.518,328.732,265.54,328.5z"></path></g><g><path style="fill:#505050;" d="M252.188,337.565c0.021,0.105-0.02,0.176-0.038,0.181c-0.008,0.002-0.021-0.005-0.03-0.011c-0.034-0.025-0.062-0.074-0.074-0.132c-0.021-0.107,0.02-0.178,0.038-0.183C252.1,337.417,252.165,337.458,252.188,337.565z M251.881,336.448c-0.508,0.137-0.817,0.758-0.688,1.384c0.065,0.315,0.235,0.59,0.467,0.753c0.212,0.149,0.457,0.197,0.692,0.134c0.508-0.138,0.817-0.759,0.688-1.384C252.91,336.71,252.391,336.312,251.881,336.448z"></path></g><g><path style="fill:#505050;" d="M259.484,331.189c0.021,0.104-0.021,0.177-0.038,0.182c-0.01,0.002-0.024-0.008-0.029-0.011c-0.035-0.025-0.063-0.074-0.075-0.132c-0.012-0.06-0.006-0.117,0.016-0.157c0.006-0.011,0.015-0.023,0.022-0.025C259.396,331.042,259.462,331.083,259.484,331.189z M259.178,330.073c-0.234,0.063-0.435,0.231-0.565,0.473c-0.144,0.265-0.188,0.597-0.122,0.912c0.064,0.314,0.234,0.589,0.466,0.752c0.212,0.149,0.457,0.197,0.692,0.134c0.508-0.138,0.816-0.758,0.688-1.383C260.207,330.335,259.688,329.937,259.178,330.073z"></path></g><g><path style="fill:#505050;" d="M267.043,325.53c0.021,0.104-0.021,0.177-0.037,0.182c-0.01,0.002-0.025-0.008-0.029-0.011c-0.035-0.025-0.063-0.074-0.075-0.132c-0.012-0.06-0.006-0.117,0.016-0.157c0.006-0.011,0.015-0.023,0.022-0.025C266.956,325.383,267.021,325.424,267.043,325.53z M266.737,324.414c-0.234,0.063-0.436,0.231-0.566,0.473c-0.143,0.265-0.187,0.597-0.121,0.912c0.064,0.314,0.234,0.589,0.466,0.752c0.211,0.149,0.457,0.197,0.691,0.134c0.509-0.138,0.817-0.758,0.688-1.383C267.767,324.676,267.248,324.277,266.737,324.414z"></path></g></g><g><g><path style="fill:#505050;" d="M285.536,294.893c-0.074,0.053-0.14,0.123-0.177,0.223c-5.198,13.964-7.128,28.962-7.146,29.111c-0.011,0.082,0.002,0.16,0.024,0.233l0.596,0.28c0.127-0.07,0.226-0.2,0.247-0.371c0.019-0.147,1.918-14.902,7.023-28.694L285.536,294.893z"></path></g><g><path style="fill:#505050;" d="M281.946,310.062c-0.061,0.162-0.191,0.275-0.345,0.299c0.026-0.004,0.256-0.045,0.574-0.207c-0.14-0.347-0.261-0.558-0.276-0.582C281.99,309.714,282.008,309.9,281.946,310.062z"></path><path style="fill:#505050;" d="M280.244,318.178c-0.04,0.13-0.126,0.235-0.236,0.29c0.021-0.011,0.174-0.094,0.39-0.253c-0.095-0.252-0.165-0.41-0.176-0.434C280.276,317.904,280.285,318.048,280.244,318.178z"></path><path style="fill:#505050;" d="M285.987,299.73c0.449-2.112,0.021-3.599,0.002-3.66c-0.078-0.262-0.326-0.402-0.555-0.313c-0.229,0.089-0.353,0.372-0.274,0.634c0-0.001,0,0-0.001-0.002c0.004,0.013,0.362,1.293-0.022,3.104c-0.381,1.776-1.845,3.001-1.858,3.013c-0.165,0.136-0.228,0.384-0.149,0.598c0.007,0.02,0.708,2.002,0.233,3.839c-0.561,2.17-1.826,2.417-1.879,2.427c0.021-0.004,0.039-0.005,0.062-0.005c-0.164,0-0.315,0.105-0.39,0.272c-0.075,0.167-0.063,0.368,0.034,0.521c0.04,0.063,0.981,1.631,0.415,4.396c-0.451,2.209-1.889,2.969-1.949,3c-0.109,0.056-0.195,0.161-0.235,0.291c-0.039,0.129-0.032,0.272,0.022,0.395c0.009,0.019,0.884,1.998,0.73,3.583c-0.138,1.449-1.762,2.326-1.779,2.335h0.001c-0.106,0.057-0.184,0.156-0.223,0.273l0.919,0.432c0.596-0.398,1.806-1.385,1.953-2.932c0.135-1.407-0.366-2.973-0.646-3.715c-0.216,0.159-0.369,0.242-0.39,0.253c0.11-0.055,0.196-0.16,0.236-0.29c0.041-0.13,0.032-0.273-0.022-0.396c0.011,0.023,0.081,0.182,0.176,0.434c0.583-0.429,1.655-1.455,2.061-3.435c0.461-2.25,0.036-3.833-0.282-4.627c-0.318,0.162-0.548,0.203-0.574,0.207c0.153-0.023,0.284-0.137,0.345-0.299c0.062-0.161,0.044-0.348-0.047-0.49c0.016,0.024,0.137,0.235,0.276,0.582c0.608-0.31,1.548-1.072,2.026-2.928c0.441-1.706,0.055-3.426-0.152-4.146c-0.143,0.138-0.246,0.227-0.262,0.239c0.166-0.136,0.228-0.383,0.149-0.598c0.008,0.021,0.055,0.157,0.112,0.358C284.549,302.597,285.63,301.396,285.987,299.73z"></path><path style="fill:#505050;" d="M283.788,303.318c0.016-0.013,0.119-0.102,0.262-0.239c-0.058-0.201-0.104-0.338-0.112-0.358C284.016,302.936,283.954,303.183,283.788,303.318z"></path></g><g><path style="fill:#505050;" d="M280.413,289.174c-0.153,0.006-0.302,0.097-0.377,0.264c-3.606,7.953-8.414,24.466-9.236,30.528c-0.009,0.062-0.004,0.122,0.007,0.181l0.578,0.355c0.143-0.062,0.255-0.199,0.28-0.384c0.813-5.994,5.575-22.34,9.149-30.222c0.042-0.093,0.048-0.192,0.038-0.289L280.413,289.174z"></path></g><g><path style="fill:#505050;" d="M273.188,312.121L273.188,312.121c-0.175-0.658-0.637-2.517-0.674-3.206c-0.015-0.285,0.835-1.043,1.716-1.53l0,0c0.217-0.12,0.309-0.419,0.203-0.668c-0.105-0.248-0.367-0.353-0.585-0.232l0,0c-0.532,0.294-2.268,1.343-2.208,2.49c0.051,0.948,0.684,3.336,0.71,3.438l0,0c0.07,0.264,0.314,0.413,0.547,0.333C273.127,312.665,273.258,312.386,273.188,312.121L273.188,312.121z"></path></g><g><path style="fill:#505050;" d="M271.509,319.621L271.509,319.621c-0.175-0.658-0.637-2.517-0.674-3.206c-0.014-0.285,0.835-1.043,1.716-1.53l0,0c0.217-0.12,0.309-0.419,0.203-0.668c-0.104-0.248-0.366-0.353-0.585-0.232l0,0c-0.532,0.294-2.268,1.343-2.207,2.49c0.05,0.948,0.683,3.336,0.709,3.438l0,0c0.07,0.264,0.315,0.413,0.547,0.333C271.448,320.165,271.579,319.886,271.509,319.621L271.509,319.621z"></path></g><g><path style="fill:#505050;" d="M275.293,304.93L275.293,304.93c-0.283-1.156-0.727-3.188-0.715-3.716c-0.001,0.014-0.003,0.021-0.003,0.021c0.075-0.314,1.136-1.182,2.224-1.818l0,0c0.215-0.126,0.301-0.428,0.19-0.674c-0.11-0.245-0.375-0.343-0.59-0.217l0,0c-0.997,0.584-2.675,1.707-2.697,2.661c-0.019,0.852,0.669,3.69,0.747,4.012l0,0c0.065,0.266,0.307,0.421,0.54,0.347C275.222,305.472,275.357,305.196,275.293,304.93L275.293,304.93z"></path></g><g><path style="fill:#505050;" d="M277.72,296.996L277.72,296.996c-0.27-1.053-0.682-2.915-0.642-3.427c-0.002,0.018-0.004,0.026-0.004,0.026c0.104-0.314,1.237-1.073,2.425-1.623l0,0c0.224-0.104,0.332-0.395,0.24-0.65c-0.09-0.256-0.345-0.38-0.569-0.275l0,0c-1.074,0.497-2.888,1.475-2.964,2.433c-0.066,0.85,0.549,3.313,0.674,3.798l0,0c0.067,0.265,0.311,0.417,0.543,0.339C277.654,297.539,277.788,297.262,277.72,296.996L277.72,296.996z"></path></g><g><path style="fill:#505050;" d="M274.966,316.201l1.038,2.305c0.088,0.193,0.273,0.301,0.462,0.265l2.275-0.436c0.142-0.027,0.264-0.134,0.325-0.283c0.061-0.15,0.052-0.324-0.021-0.467l-1.354-2.589c-0.105-0.199-0.316-0.29-0.511-0.219l-1.959,0.72c-0.122,0.045-0.222,0.148-0.27,0.284C274.901,315.917,274.907,316.07,274.966,316.201z M276.938,315.51l1.354,2.589c-0.073-0.143-0.082-0.316-0.021-0.467c0.061-0.149,0.184-0.256,0.325-0.283l-2.275,0.436c0.188-0.036,0.375,0.071,0.462,0.265l-1.038-2.305c0.059,0.131,0.065,0.284,0.016,0.42c-0.049,0.136-0.148,0.239-0.271,0.284l1.959-0.72C277.254,315.8,277.043,315.709,276.938,315.51z"></path></g><g><path style="fill:#505050;" d="M276.622,306.912l1.196,2.652c0.087,0.193,0.273,0.301,0.462,0.265l2.615-0.5c0.143-0.027,0.264-0.133,0.324-0.283c0.062-0.149,0.053-0.323-0.021-0.466l-1.553-2.982c-0.104-0.2-0.316-0.291-0.511-0.22l-2.259,0.83c-0.122,0.045-0.222,0.148-0.271,0.284S276.563,306.782,276.622,306.912z M278.895,306.109l1.553,2.982c-0.074-0.143-0.082-0.316-0.021-0.466c0.061-0.15,0.182-0.256,0.323-0.283l-2.615,0.5c0.188-0.036,0.375,0.071,0.462,0.265l-1.196-2.652c0.059,0.13,0.064,0.284,0.016,0.42s-0.148,0.239-0.271,0.284l2.259-0.83C279.211,306.401,278.998,306.31,278.895,306.109z"></path></g><g><path style="fill:#505050;" d="M278.89,296.385l1.413,3.131c0.088,0.192,0.274,0.3,0.462,0.264l3.088-0.591c0.142-0.027,0.264-0.133,0.325-0.283c0.061-0.149,0.052-0.324-0.021-0.466l-1.838-3.518c-0.104-0.2-0.316-0.291-0.511-0.22l-2.663,0.978c-0.122,0.045-0.222,0.148-0.271,0.284C278.825,296.101,278.831,296.254,278.89,296.385z M281.566,295.434l1.837,3.518c-0.073-0.142-0.082-0.316-0.021-0.466c0.062-0.149,0.184-0.256,0.325-0.283l-3.088,0.591c0.188-0.036,0.375,0.071,0.462,0.264l-1.413-3.131c0.059,0.131,0.064,0.284,0.016,0.421c-0.049,0.136-0.148,0.239-0.271,0.284l2.663-0.978C281.883,295.725,281.67,295.634,281.566,295.434z"></path></g><g><path style="fill:#505050;" d="M275.711,311.866c0.072,0.068,0.078,0.154,0.066,0.17c-0.007,0.008-0.023,0.011-0.029,0.012c-0.041,0.004-0.089-0.016-0.129-0.054c-0.075-0.07-0.079-0.155-0.067-0.172c0.006-0.008,0.024-0.01,0.03-0.011C275.622,311.808,275.67,311.827,275.711,311.866z M274.876,311.188c-0.332,0.461-0.249,1.168,0.185,1.577c0.218,0.206,0.498,0.308,0.77,0.278c0.248-0.026,0.469-0.158,0.623-0.371c0.332-0.461,0.249-1.169-0.185-1.577c-0.217-0.205-0.497-0.308-0.768-0.278C275.253,310.842,275.032,310.974,274.876,311.188z"></path></g><g><path style="fill:#505050;" d="M278.159,301.753c0.074,0.069,0.077,0.154,0.065,0.172c-0.01,0.013-0.085,0.025-0.159-0.044c-0.071-0.069-0.076-0.152-0.064-0.169c0.007-0.01,0.024-0.012,0.029-0.013C278.046,301.697,278.1,301.696,278.159,301.753z M277.328,301.073c-0.334,0.459-0.254,1.166,0.179,1.577c0.434,0.409,1.058,0.369,1.393-0.089c0.333-0.465,0.25-1.173-0.183-1.58c-0.22-0.206-0.5-0.308-0.771-0.277C277.699,300.731,277.479,300.863,277.328,301.073z"></path></g><g><path style="fill:#505050;" d="M281.196,292.03c0.073,0.069,0.076,0.154,0.064,0.171c-0.005,0.007-0.023,0.01-0.028,0.01c-0.04,0.005-0.088-0.016-0.127-0.053c-0.043-0.04-0.069-0.091-0.073-0.137c-0.001-0.012-0.001-0.027,0.005-0.034c0.005-0.008,0.019-0.011,0.029-0.013C281.107,291.971,281.155,291.99,281.196,292.03z M280.361,291.351c-0.153,0.212-0.225,0.484-0.201,0.767c0.026,0.31,0.168,0.605,0.387,0.812c0.215,0.204,0.495,0.307,0.766,0.278c0.248-0.025,0.469-0.157,0.624-0.369c0.332-0.463,0.249-1.17-0.184-1.579c-0.216-0.206-0.496-0.309-0.769-0.279C280.736,291.006,280.516,291.138,280.361,291.351z"></path></g></g></g></g></g></g></g></g></svg>