<svg xmlns="http://www.w3.org/2000/svg" width="500" height="500" version="1.1"><g id="x9135"><g><g><g><g><path style="fill:#09080D;stroke:#000000;stroke-linecap:round;stroke-linejoin:round;" d="M297.429,342.5c0,0,2-3.834,2.5-4.667c2.666,2.167,8.166,8.667,8.166,8.667c-0.666,2.167-3,5-3,5L297.429,342.5z"></path><path style="fill:#6E6E6E;stroke:#000000;stroke-linecap:round;stroke-linejoin:round;" d="M306.22,351.625c0,0,1.875,1.75,3.125,0s-0.875-4.125-0.875-4.125l-0.5,1.125c0,0,1,1.5,0.375,2.25S306.47,350,306.47,350L306.22,351.625z"></path><path style="fill:#6E6E6E;stroke:#000000;stroke-linecap:round;stroke-linejoin:round;" d="M304.095,351.501l3.667-5.5l1,1c0,0-2.833,5.334-3.5,5.5L304.095,351.501z"></path></g><g><g><path style="fill:#27262B;stroke:#000000;stroke-linecap:round;stroke-linejoin:round;" d="M288.929,313.5c0,0,1.666,5.166,2.666,6.333c2,1.334,3.125,2.209,3.625,2.917c-0.25,1.75-0.625,3.75-0.625,3.75s1.375,2.625,4.125,8.375c3.625,3.125,6.068,6.701,6.125,7.5c-1.25,3.125-2.625,6.125-2.625,6.125l-11.958,8.5c0,0-7.167-11.667-7.667-13s-7.333-28.001-6.833-28.167S282.596,310.667,288.929,313.5z"></path><path style="fill:#09080D;" d="M281.429,325.667c0,0,1.332-5.334,4.166-6.834s5.167,0.5,5.167,0.5L288.429,313l-9.5,1.333C279.762,317.5,281.429,325.667,281.429,325.667z"></path><path style="opacity:0.3;fill:#FFFFFF;" d="M297.72,342.75c0,0-2.625,5.75-3.5,5.625s-4.916-2.5-4.791-3.375s6.916-2.25,7.166-2.625s0.875-5,1.75-5.625C298.095,339,297.72,342.75,297.72,342.75z"></path><path style="fill:#09080D;" d="M302.262,347.5c0,0,1.708-4.125,1.583-4.875c-1.75-0.875-4.75-0.75-6.125,0.125s-3.875,7.375-3.125,8S302.179,347.875,302.262,347.5z"></path><path style="fill:#09080D;" d="M297.095,349.25c0,0-7.75-3-9-4.75s-4.75-8-4.75-8l1.875,11.625l3.125,4.625L297.095,349.25z"></path><path style="fill:#09080D;" d="M294.012,326.418c0,0,0.833-2.834,0.75-3.334c-2.25-0.75-9.25,0.084-9.25,0.084S291.929,325.835,294.012,326.418z"></path></g><g><path style="fill:#27262B;stroke:#000000;stroke-linecap:round;stroke-linejoin:round;" d="M288.095,353.167c0,0,1.833,6.5,3.333,7.833c7.334-1.5,13.667-6,13.667-6s-2.333-6.5-2.833-7.5C296.262,350.333,288.095,353.167,288.095,353.167z"></path><path style="fill:#6E6E6E;" d="M290.428,358.5c0.136,0.375,0.667,1.167,0.667,1.167c6.875-1.448,13.156-5.448,13.156-5.448l-0.406-1.156C303.845,353.063,297.782,356.375,290.428,358.5z"></path><path style="fill:#6E6E6E;" d="M288.657,353.5l1.094,3.063c5.188-0.969,13.531-5.125,13.531-5.125l-1.188-3.25C302.095,348.188,291.823,352.667,288.657,353.5z"></path></g></g></g><g><g><path style="fill:#09080D;stroke:#000000;stroke-linecap:round;stroke-linejoin:round;" d="M208.321,329.25c0,0-2-3.834-2.5-4.667c-2.666,2.167-8.166,8.667-8.166,8.667c0.666,2.167,3,5,3,5L208.321,329.25z"></path><path style="fill:#6E6E6E;stroke:#000000;stroke-linecap:round;stroke-linejoin:round;" d="M199.53,338.375c0,0-1.875,1.75-3.125,0s0.875-4.125,0.875-4.125l0.5,1.125c0,0-1,1.5-0.375,2.25s1.875-0.875,1.875-0.875L199.53,338.375z"></path><path style="fill:#6E6E6E;stroke:#000000;stroke-linecap:round;stroke-linejoin:round;" d="M201.655,338.251l-3.667-5.5l-1,1c0,0,2.833,5.334,3.5,5.5L201.655,338.251z"></path></g><g><g><path style="fill:#27262B;stroke:#000000;stroke-linecap:round;stroke-linejoin:round;" d="M211.646,308.388c-0.517,0.424-0.886,0.787-1.115,1.112c0.25,1.75,0.625,3.75,0.625,3.75s-1.375,2.625-4.125,8.375c-3.625,3.125-6.068,6.701-6.125,7.5c1.25,3.125,2.625,6.125,2.625,6.125l11.958,8.5c0,0,7.167-11.667,7.667-13c0.263-0.702,2.283-8.43,4.063-15.613L211.646,308.388z"></path><path style="opacity:0.3;fill:#FFFFFF;" d="M208.03,329.5c0,0,2.625,5.75,3.5,5.625s4.916-2.5,4.791-3.375s-6.916-2.25-7.166-2.625s-0.875-5-1.75-5.625C207.655,325.75,208.03,329.5,208.03,329.5z"></path><path style="fill:#09080D;" d="M203.488,334.25c0,0-1.708-4.125-1.583-4.875c1.75-0.875,4.75-0.75,6.125,0.125s3.875,7.375,3.125,8S203.571,334.625,203.488,334.25z"></path><path style="fill:#09080D;" d="M208.655,336c0,0,7.75-3,9-4.75s4.75-8,4.75-8l-1.875,11.625l-3.125,4.625L208.655,336z"></path><path style="fill:#09080D;" d="M214.264,309.522c-1.323-0.007-2.548,0.069-3.276,0.312c-0.083,0.5,0.75,3.334,0.75,3.334c1.207-0.338,3.865-1.374,5.891-2.187L214.264,309.522z"></path></g><g><path style="fill:#27262B;stroke:#000000;stroke-linecap:round;stroke-linejoin:round;" d="M217.655,339.917c0,0-1.833,6.5-3.333,7.833c-7.334-1.5-13.667-6-13.667-6s2.333-6.5,2.833-7.5C209.488,337.083,217.655,339.917,217.655,339.917z"></path><path style="fill:#6E6E6E;" d="M215.322,345.25c-0.136,0.375-0.667,1.167-0.667,1.167c-6.875-1.448-13.156-5.448-13.156-5.448l0.406-1.156C201.905,339.813,207.968,343.125,215.322,345.25z"></path><path style="fill:#6E6E6E;" d="M217.093,340.25l-1.094,3.063c-5.188-0.969-13.531-5.125-13.531-5.125l1.188-3.25C203.655,334.938,213.927,339.417,217.093,340.25z"></path></g></g></g></g><g><g><path style="fill:#27262B;stroke:#000000;stroke-linecap:round;stroke-linejoin:round;" d="M264.929,326.167c0,0-5.5,34.75-5,35.25s1,3,1,3l-1,6.333c0,0,11.333,3,24.333,2.5c0.833-1.5,1.333-5.167,1.333-5.167s2.166-8.332,2.5-9.666c-2.666-5-9.166-44.084-9.166-44.084L264.929,326.167z"></path><path style="opacity:0.3;fill:#FFFFFF;" d="M263.929,349.166c0,0,5.999,0.001,8.166,0.334c3.334,1.5,12.834,7.333,12.834,7.333S275.262,348,273.762,346.5s-8.667-4.167-8.667-4.167L263.929,349.166z"></path><path style="fill:#09080D;" d="M262.296,358.833l1.466-9.333c0,0,4.834-1.001,8.667,0.166s14.832,8.333,15.166,9.5c-1,2.667-2.625,9.959-2.625,9.959l-23.708-2.375L262.296,358.833z"></path><path style="fill:#09080D;" d="M268.095,322.833l-1.5,6.667c0,0,10.168-9.834,12.334-15.167C271.928,315.833,268.095,322.833,268.095,322.833z"></path><path style="fill:#6E6E6E;" d="M260.928,368.75c0,0,14.042,3.27,23.542,2.27c0.333-0.667,0.5-1.895,0.5-1.895s-11.719,0.344-23.708-2.375C261.095,368.083,260.928,368.75,260.928,368.75z"></path><path style="fill:#27262B;stroke:#000000;stroke-linecap:round;stroke-linejoin:round;" d="M264.928,325.833c0,0-5.833,34.417-6.166,41.417c1.166,1,1.5,0.833,1.5,0.833l7-43.917L264.928,325.833z"></path></g><g><path style="fill:#27262B;stroke:#000000;stroke-linecap:round;stroke-linejoin:round;" d="M235.071,326.167c0,0,5.5,34.75,5,35.25s-1,3-1,3l1,6.333c0,0-11.333,3-24.333,2.5c-0.833-1.5-1.333-5.167-1.333-5.167s-2.166-8.332-2.5-9.666c2.666-5,9.166-44.084,9.166-44.084L235.071,326.167z"></path><path style="opacity:0.3;fill:#FFFFFF;" d="M236.071,349.166c0,0-5.999,0.001-8.166,0.334c-3.334,1.5-12.834,7.333-12.834,7.333s9.667-8.833,11.167-10.333s8.667-4.167,8.667-4.167L236.071,349.166z"></path><path style="fill:#09080D;" d="M237.704,358.833l-1.466-9.333c0,0-4.834-1.001-8.667,0.166s-14.832,8.333-15.166,9.5c1,2.667,2.625,9.959,2.625,9.959l23.708-2.375L237.704,358.833z"></path><path style="fill:#09080D;" d="M231.905,322.833l1.5,6.667c0,0-10.168-9.834-12.334-15.167C228.072,315.833,231.905,322.833,231.905,322.833z"></path><path style="fill:#6E6E6E;" d="M239.072,368.75c0,0-14.042,3.27-23.542,2.27c-0.333-0.667-0.5-1.895-0.5-1.895s11.719,0.344,23.708-2.375C238.905,368.083,239.072,368.75,239.072,368.75z"></path><path style="fill:#27262B;stroke:#000000;stroke-linecap:round;stroke-linejoin:round;" d="M235.072,325.833c0,0,5.833,34.417,6.166,41.417c-1.166,1-1.5,0.833-1.5,0.833l-7-43.917L235.072,325.833z"></path></g></g><g><g><g><path style="fill:#27262B;stroke:#000000;stroke-linecap:round;stroke-linejoin:round;" d="M286.762,296.501c0,0,0.129-2.221-0.25-4.75c-4.417,2.333-5.417,5.582-5.417,5.582l1.333,2.75c-0.986,0.849-3.956,2.38-5.986,3.508c-4.553,2.529-5.186,6.324-5.186,6.324l7.672-0.748c0,0,2.68-1.599,4.36-3.189l5.474,3.272l2.731-10.972c0,0,2.263-2.756,2.769-4.527C289.012,294.251,286.762,296.501,286.762,296.501z"></path><path style="fill:#27262B;stroke:#000000;stroke-linecap:round;stroke-linejoin:round;" d="M275.595,305.083c0,0,0.917-3.918,4.75-6.334c-0.25,2.084-0.167,3.667-0.167,3.667s3.5-5.081,6.417-6.498c0.75,1.75,0.667,5,0.667,5"></path></g><path style="fill:#27262B;stroke:#000000;stroke-linecap:round;stroke-linejoin:round;" d="M288.078,300.555c0,0,1.392-2.15,2.909-2.656c1.518-0.505,4.69,2.019,9.865,2.404c-4.008,2.364-7.082,2.529-7.082,2.529s4.805,0.507,9.991,5.186c-2.023-0.126-6.197,1.771-6.197,1.771s2.697,0.796,3.363,4.879c-3.175-1.329-7.5-2.25-7.5-2.25s1.354,2.938,1.48,5.087c-1.771-2.023-8.095-4.806-11.004-3.794c2.277,0.885,2.773,4.207,2.773,4.207s-4.165-3.069-9.729-1.805"></path><path style="fill:#27262B;stroke:#000000;stroke-linecap:round;stroke-linejoin:round;" d="M285.675,308.65c0,0,0.602-3.789-0.663-6.066c-3.267,1.074-8.57,5.56-8.57,5.56s0.254-1.012-0.505-2.529c-1.013,1.771-5.313,2.403-7.969,7.21c-2.656,4.806-3.162,14.292-3.162,14.292s8.095-9.106,16.189-12.774"></path></g><g><g><path style="fill:#27262B;stroke:#000000;stroke-linecap:round;stroke-linejoin:round;" d="M213.238,296.501c0,0-0.129-2.221,0.25-4.75c4.417,2.333,5.417,5.582,5.417,5.582l-1.333,2.75c0.986,0.849,3.956,2.38,5.986,3.508c4.553,2.529,5.186,6.324,5.186,6.324l-7.672-0.748c0,0-2.68-1.599-4.36-3.189l-5.474,3.272l-2.731-10.972c0,0-2.263-2.756-2.769-4.527C210.988,294.251,213.238,296.501,213.238,296.501z"></path><path style="fill:#27262B;stroke:#000000;stroke-linecap:round;stroke-linejoin:round;" d="M224.405,305.083c0,0-0.917-3.918-4.75-6.334c0.25,2.084,0.167,3.667,0.167,3.667s-3.5-5.081-6.417-6.498c-0.75,1.75-0.667,5-0.667,5"></path></g><path style="fill:#27262B;stroke:#000000;stroke-linecap:round;stroke-linejoin:round;" d="M211.922,300.555c0,0-1.392-2.15-2.909-2.656c-1.518-0.505-4.69,2.019-9.865,2.404c4.008,2.364,7.082,2.529,7.082,2.529s-4.805,0.507-9.991,5.186c2.023-0.126,6.197,1.771,6.197,1.771s-2.697,0.796-3.363,4.879c3.175-1.329,7.5-2.25,7.5-2.25s-1.354,2.938-1.48,5.087c1.771-2.023,8.095-4.806,11.004-3.794c-2.277,0.885-2.773,4.207-2.773,4.207s4.165-3.069,9.729-1.805"></path><path style="fill:#27262B;stroke:#000000;stroke-linecap:round;stroke-linejoin:round;" d="M214.325,308.65c0,0-0.602-3.789,0.663-6.066c3.267,1.074,8.57,5.56,8.57,5.56s-0.254-1.012,0.505-2.529c1.013,1.771,5.313,2.403,7.969,7.21c2.656,4.806,3.162,14.292,3.162,14.292s-8.095-9.106-16.189-12.774"></path></g></g></g></g></svg>