<svg xmlns="http://www.w3.org/2000/svg" width="500" height="500" version="1.1"><g id="x9136"><g><g><g><g><path style="fill:#6E6E6E;stroke:#000000;stroke-linecap:round;stroke-linejoin:round;" d="M214.583,298c0,0-1.999,4.334-2.666,5.667c-0.334,2.666-1.334,8-1.334,8s-18.333,38.667-18.666,42c1.666,5.333,16,11,22.666,11c5.334-21,10.667-60.334,10.667-60.334L214.583,298z"></path><path style="fill:#505050;" d="M195.083,347.125l-0.875,2c0,0,3.75,3.625,8.375,3.375c3.375-2.5,3.375-6,3.375-6l-1.625-1.5L195.083,347.125z"></path><path style="fill:#505050;" d="M214.083,303c0,0-2.75,15,2.25,24.5c2.5-10,6.25-23,6.25-23L214.083,303z"></path><path style="fill:none;stroke:#000000;stroke-linecap:round;stroke-linejoin:round;" d="M205.208,346.875c0,0,4.625,2.625,8.125,3.875"></path><path style="fill:none;stroke:#000000;stroke-linecap:round;stroke-linejoin:round;" d="M213.583,304c0,0,1.25,11,5.5,17.5"></path></g><g><path style="fill:#6E6E6E;stroke:#000000;stroke-linecap:round;stroke-linejoin:round;" d="M194.232,346.5c0,0,4.5,4,7,4.75c3-0.25,4-5.25,3.75-6.5c-2.25-1.75-7.25-5.5-7.25-5.5l1-2.25l-3,0.75c0,0-0.25,4.25-2.5,6.25C193.107,345,194.232,346.5,194.232,346.5z"></path><path style="fill:none;stroke:#000000;stroke-linecap:round;stroke-linejoin:round;" d="M195.437,344.98c0,0,3.132,2.594,5.092,3.414"></path><circle style="fill:#374040;stroke:#000000;stroke-linecap:round;stroke-linejoin:round;" cx="200.67" cy="346.813" r="2.063"></circle></g></g><g><g><path style="fill:#6E6E6E;stroke:#000000;stroke-linecap:round;stroke-linejoin:round;" d="M285.417,298c0,0,2,4.334,2.666,5.667c0.334,2.666,1.334,8,1.334,8s18.333,38.667,18.666,42c-1.666,5.333-16,11-22.666,11c-5.334-21-10.666-60.334-10.666-60.334L285.417,298z"></path><path style="fill:#505050;" d="M304.917,347.125l0.875,2c0,0-3.75,3.625-8.375,3.375c-3.375-2.5-3.375-6-3.375-6l1.625-1.5L304.917,347.125z"></path><path style="fill:#505050;" d="M285.917,303c0,0,2.75,15-2.25,24.5c-2.5-10-6.25-23-6.25-23L285.917,303z"></path><path style="fill:none;stroke:#000000;stroke-linecap:round;stroke-linejoin:round;" d="M294.792,346.875c0,0-4.625,2.625-8.125,3.875"></path><path style="fill:none;stroke:#000000;stroke-linecap:round;stroke-linejoin:round;" d="M286.417,304c0,0-1.25,11-5.5,17.5"></path></g><g><path style="fill:#6E6E6E;stroke:#000000;stroke-linecap:round;stroke-linejoin:round;" d="M305.768,346.5c0,0-4.5,4-7,4.75c-3-0.25-4-5.25-3.75-6.5c2.25-1.75,7.25-5.5,7.25-5.5l-1-2.25l3,0.75c0,0,0.25,4.25,2.5,6.25C306.893,345,305.768,346.5,305.768,346.5z"></path><path style="fill:none;stroke:#000000;stroke-linecap:round;stroke-linejoin:round;" d="M304.563,344.98c0,0-3.131,2.594-5.092,3.414"></path><circle style="fill:#374040;stroke:#000000;stroke-linecap:round;stroke-linejoin:round;" cx="299.33" cy="346.813" r="2.063"></circle></g></g></g><g><g><g><g><g><g><path style="fill:#FFFFFF;stroke:#000000;stroke-linecap:round;stroke-linejoin:round;" d="M236.75,329.333c0,0,1.833,3.667,1.833,5.167c-1.166,1-1.833,1.833-1.833,1.833l2,3.5c-1,0.834-1.501,2.001-2.167,3.334c1.334,0.333,2.167,3,2.167,3s-2-0.501-2.5-0.334c1.167,1.167,2.167,5.5,2.167,5.5c-1.667,0.667-3.334,3.334-3.667,4.667c1,0.167,1.833,2.667,1.833,2.667s-1.334-0.501-1.5-0.334s1.354,4.519,1.344,5.843c-1.677,2.324-3.844,5.824-3.844,5.824s2.501,3.001,1.834,2.667c-1.334-0.167-1.334-0.167-1.334-0.167l0.834,3.333L232.583,379l1.167,2.5c-1.167,0.5-2.667,1.333-2.667,1.333l-5.166-2.5l8.333-54.5L236.75,329.333z"></path></g><path style="fill:#6E6E6E;stroke:#000000;stroke-linecap:round;stroke-linejoin:round;" d="M237.917,320.333c0,0-2.583,20.042-6.583,63.042c-20.083,0-28.75-6.5-28.75-6.5s12.667-37.208,18.333-73.208C229.25,308.001,237.917,320.333,237.917,320.333z"></path><path style="fill:#505050;" d="M221.833,308c-1.25,0.75-2.5,8.5-2.5,8.5c6.25,2,18.75,9,18.5,8.25s-5.75-13.75-8.25-14.5S221.833,308,221.833,308z"></path><path style="fill:#374040;stroke:#000000;stroke-linecap:round;stroke-linejoin:round;" d="M231.949,326c0,0-3.366,2.166-3.866,2.833c-0.333,2,0.333,4.167,0.333,4.167l3-0.833L231.949,326z"></path><path style="fill:#374040;stroke:#000000;stroke-linecap:round;stroke-linejoin:round;" d="M230.616,342c0,0-3.366,2.166-3.866,2.833c-0.333,2,0.333,4.167,0.333,4.167l3-0.833L230.616,342z"></path><path style="fill:#374040;stroke:#000000;stroke-linecap:round;stroke-linejoin:round;" d="M229.199,358.667c0,0-3.366,2.166-3.866,2.833c-0.333,2,0.333,4.167,0.333,4.167l3-0.833L229.199,358.667z"></path><polyline style="fill:none;stroke:#000000;stroke-linecap:round;stroke-linejoin:round;" points="232.833,319 228.833,363.25 232.583,368.25 "></polyline></g><path style="fill:#6E6E6E;stroke:#000000;stroke-linecap:round;stroke-linejoin:round;" d="M232.083,315.75l-1.375,6.75c0,0,10.5,13.75,11.625,16.125c2.25,1.125,4.375,0.375,4.75-2.375C243.958,329.25,232.083,315.75,232.083,315.75z"></path><path style="fill:#505050;" d="M232.333,318l-0.875,4c0,0,2.792,4.25,5.292,6.833c-0.083-1.5,0.695-4.689,1.458-4.833C234.583,321.25,232.333,318,232.333,318z"></path><ellipse transform="matrix(0.9137 -0.4064 0.4064 0.9137 -115.3823 127.8271)" style="fill:#374040;stroke:#000000;stroke-linecap:round;stroke-linejoin:round;" cx="243.257" cy="335.563" rx="1.3" ry="2.062"></ellipse><path style="fill:#6E6E6E;stroke:#000000;stroke-linecap:round;stroke-linejoin:round;" d="M211.083,367.25l10.5-18.75c2.5,1.75,3,3.25,3,3.25l-11.75,21L211.083,367.25z"></path></g><g><g><path style="fill:#374040;stroke:#000000;stroke-linecap:round;stroke-linejoin:round;" d="M226.917,331.333c0,0.5,0.167,3.167,1,3.667c3.333-1.333,7.5-2.667,7.5-2.667s-0.5-2.333-1-3.166C231.417,329.334,226.917,331.333,226.917,331.333z"></path><path style="opacity:0.3;fill:#FFFFFF;" d="M227.917,333.5l-0.167-1.5c0,0,6.5-1.501,7-1.667c-0.167,0.334-0.167,0.334-0.167,0.334L227.917,333.5z"></path></g><g><path style="fill:#374040;stroke:#000000;stroke-linecap:round;stroke-linejoin:round;" d="M224.917,348.333c0,0.5,0.167,3.167,1,3.667c3.333-1.333,7.5-2.667,7.5-2.667s-0.5-2.333-1-3.166C229.417,346.334,224.917,348.333,224.917,348.333z"></path><path style="opacity:0.3;fill:#FFFFFF;" d="M225.917,350.5l-0.167-1.5c0,0,6.5-1.501,7-1.667c-0.167,0.334-0.167,0.334-0.167,0.334L225.917,350.5z"></path></g><g><path style="fill:#374040;stroke:#000000;stroke-linecap:round;stroke-linejoin:round;" d="M222.917,365.333c0,0.5,0.167,3.167,1,3.667c3.333-1.333,7.5-2.667,7.5-2.667s-0.5-2.333-1-3.166C227.417,363.334,222.917,365.333,222.917,365.333z"></path><path style="opacity:0.3;fill:#FFFFFF;" d="M223.917,367.5l-0.167-1.5c0,0,6.5-1.501,7-1.667c-0.167,0.334-0.167,0.334-0.167,0.334L223.917,367.5z"></path></g></g></g><g><g><path style="fill:#6E6E6E;stroke:#000000;stroke-linecap:round;stroke-linejoin:round;" d="M225.917,285c0,0,10.333,21.334,13.667,39.667c-9.333-8-28.5-29.167-28.5-29.167s5.25-5.75,9.833-8.833C223.077,285.214,225.917,285,225.917,285z"></path><polygon style="fill:#505050;" points="219.333,297.75 228.583,293.25 233.083,304.5 "></polygon></g><g><path style="fill:#FFFFFF;stroke:#000000;stroke-linecap:round;stroke-linejoin:round;" d="M240.708,311.75c-2.052-0.213-3.647-0.903-4.84-1.682c1.089-0.447,2.384-0.859,3.745-1.034c-1.022-1.512-4.448-2.143-6.479-2.39c0.215-0.581,0.833-1.509,2.593-2.465c-2.478-2.479-7.643-2.43-7.643-2.43s-0.5-3.083,1.25-5.417c-2.202-1.651-6.207-1.626-7.583-0.25c-0.275-3.027-0.631-5.113-2.833-8.416c-1.101,1.927-1.91,4.124-1.91,4.124s-4.404,0-6.607-3.028c-1.101,3.028,0.275,4.681,0.275,4.681s-1.592,0.807-3.303,3.027c2.461,1.779,6.211,3.029,6.211,3.029s-2.5,3.048-2.5,5.25c0,0,2.823-0.25,4.75-0.25c0.275,1.651,4.5,4.5,4.5,4.5s-1.124,2.888-1.124,5.09c1.101-0.826,3.458-2.34,6.541-0.84c1.5,2.667,3.167,4.25,5.571,4.693c1.652,1.102,4.095,3.724,8.595,7.224c-0.583-5-3.083-9.604-3.083-9.604S239.882,313.952,240.708,311.75z"></path><path style="fill:#BAB5AF;" d="M219.792,313.125c0,0,2.592-2.083,6.175-0.25c0.5,1.042,2.325,4.292,5.617,4.667c1.917,1.5,7.625,6.458,7.625,6.458s-3.542-6.542-5.208-7.542c-2.875-0.916-4.667-3.667-5.292-5.25S221.333,310.042,219.792,313.125z"></path><path style="fill:#BAB5AF;" d="M211.583,304.167c0,0,3.417-0.25,4.417,0c0.667,0.833,0.917,1.083,0.917,1.083l1.167-3.833C218.083,301.417,213.333,302.001,211.583,304.167z"></path></g></g></g><g><g><g><g><path style="fill:#FFFFFF;stroke:#000000;stroke-linecap:round;stroke-linejoin:round;" d="M263.25,329.333c0,0-1.833,3.667-1.833,5.167c1.166,1,1.833,1.833,1.833,1.833l-2,3.5c1,0.834,1.501,2.001,2.167,3.334c-1.334,0.333-2.167,3-2.167,3s2-0.501,2.5-0.334c-1.167,1.167-2.167,5.5-2.167,5.5c1.667,0.667,3.334,3.334,3.667,4.667c-1,0.167-1.833,2.667-1.833,2.667s1.334-0.501,1.5-0.334s-1.354,4.519-1.344,5.843c1.677,2.324,3.844,5.824,3.844,5.824s-2.501,3.001-1.834,2.667c1.334-0.167,1.334-0.167,1.334-0.167l-0.834,3.333l1.334,3.167l-1.167,2.5c1.167,0.5,2.667,1.333,2.667,1.333l5.166-2.5l-8.333-54.5L263.25,329.333z"></path><path style="fill:#6E6E6E;stroke:#000000;stroke-linecap:round;stroke-linejoin:round;" d="M262.083,320.333c0,0,2.584,20.042,6.584,63.042c20.083,0,28.75-6.5,28.75-6.5s-12.666-37.208-18.334-73.208C270.751,308.001,262.083,320.333,262.083,320.333z"></path><path style="fill:#505050;" d="M278.167,308c1.25,0.75,2.5,8.5,2.5,8.5c-6.25,2-18.75,9-18.5,8.25s5.75-13.75,8.25-14.5S278.167,308,278.167,308z"></path><path style="fill:#374040;stroke:#000000;stroke-linecap:round;stroke-linejoin:round;" d="M268.051,326c0,0,3.366,2.166,3.866,2.833c0.334,2-0.334,4.167-0.334,4.167l-3-0.833L268.051,326z"></path><path style="fill:#374040;stroke:#000000;stroke-linecap:round;stroke-linejoin:round;" d="M269.384,342c0,0,3.366,2.166,3.866,2.833c0.333,2-0.333,4.167-0.333,4.167l-3-0.833L269.384,342z"></path><path style="fill:#374040;stroke:#000000;stroke-linecap:round;stroke-linejoin:round;" d="M270.801,358.667c0,0,3.366,2.166,3.866,2.833c0.334,2-0.334,4.167-0.334,4.167l-3-0.833L270.801,358.667z"></path><polyline style="fill:none;stroke:#000000;stroke-linecap:round;stroke-linejoin:round;" points="267.167,319 271.167,363.25 267.417,368.25 "></polyline></g><path style="fill:#6E6E6E;stroke:#000000;stroke-linecap:round;stroke-linejoin:round;" d="M267.917,315.75l1.375,6.75c0,0-10.5,13.75-11.625,16.125c-2.25,1.125-4.375,0.375-4.75-2.375C256.042,329.25,267.917,315.75,267.917,315.75z"></path><path style="fill:#505050;" d="M267.667,318l0.875,4c0,0-2.791,4.25-5.291,6.833c0.082-1.5-0.695-4.689-1.459-4.833C265.417,321.25,267.667,318,267.667,318z"></path><ellipse transform="matrix(-0.9137 -0.4065 0.4065 -0.9137 354.9165 746.5142)" style="fill:#374040;stroke:#000000;stroke-linecap:round;stroke-linejoin:round;" cx="256.743" cy="335.563" rx="1.3" ry="2.062"></ellipse><path style="fill:#6E6E6E;stroke:#000000;stroke-linecap:round;stroke-linejoin:round;" d="M288.917,367.25l-10.5-18.75c-2.5,1.75-3,3.25-3,3.25l11.75,21L288.917,367.25z"></path></g><g><g><path style="fill:#374040;stroke:#000000;stroke-linecap:round;stroke-linejoin:round;" d="M273.083,331.333c0,0.5-0.166,3.167-1,3.667c-3.332-1.333-7.5-2.667-7.5-2.667s0.5-2.333,1-3.166C268.583,329.334,273.083,331.333,273.083,331.333z"></path><path style="opacity:0.3;fill:#FFFFFF;" d="M272.083,333.5l0.168-1.5c0,0-6.5-1.501-7-1.667c0.166,0.334,0.166,0.334,0.166,0.334L272.083,333.5z"></path></g><g><path style="fill:#374040;stroke:#000000;stroke-linecap:round;stroke-linejoin:round;" d="M275.083,348.333c0,0.5-0.167,3.167-1,3.667c-3.333-1.333-7.5-2.667-7.5-2.667s0.5-2.333,1-3.166C270.583,346.334,275.083,348.333,275.083,348.333z"></path><path style="opacity:0.3;fill:#FFFFFF;" d="M274.083,350.5l0.167-1.5c0,0-6.5-1.501-7-1.667c0.167,0.334,0.167,0.334,0.167,0.334L274.083,350.5z"></path></g><g><path style="fill:#374040;stroke:#000000;stroke-linecap:round;stroke-linejoin:round;" d="M277.083,365.333c0,0.5-0.166,3.167-1,3.667c-3.332-1.333-7.5-2.667-7.5-2.667s0.5-2.333,1-3.166C272.583,363.334,277.083,365.333,277.083,365.333z"></path><path style="opacity:0.3;fill:#FFFFFF;" d="M276.083,367.5l0.168-1.5c0,0-6.5-1.501-7-1.667c0.166,0.334,0.166,0.334,0.166,0.334L276.083,367.5z"></path></g></g></g><g><g><path style="fill:#6E6E6E;stroke:#000000;stroke-linecap:round;stroke-linejoin:round;" d="M274.083,285c0,0-10.332,21.334-13.666,39.667c9.334-8,28.5-29.167,28.5-29.167s-5.25-5.75-9.834-8.833C276.923,285.214,274.083,285,274.083,285z"></path><polygon style="fill:#505050;" points="280.667,297.75 271.417,293.25 266.917,304.5 "></polygon></g><g><path style="fill:#FFFFFF;stroke:#000000;stroke-linecap:round;stroke-linejoin:round;" d="M259.292,311.75c2.052-0.213,3.647-0.903,4.84-1.682c-1.088-0.447-2.383-0.859-3.744-1.034c1.022-1.512,4.448-2.143,6.479-2.39c-0.216-0.581-0.833-1.509-2.593-2.465c2.477-2.479,7.643-2.43,7.643-2.43s0.5-3.083-1.25-5.417c2.202-1.651,6.207-1.626,7.583-0.25c0.275-3.027,0.632-5.113,2.833-8.416c1.102,1.927,1.91,4.124,1.91,4.124s4.404,0,6.607-3.028c1.102,3.028-0.275,4.681-0.275,4.681s1.592,0.807,3.303,3.027c-2.461,1.779-6.211,3.029-6.211,3.029s2.5,3.048,2.5,5.25c0,0-2.822-0.25-4.75-0.25c-0.275,1.651-4.5,4.5-4.5,4.5s1.124,2.888,1.124,5.09c-1.101-0.826-3.458-2.34-6.541-0.84c-1.5,2.667-3.167,4.25-5.571,4.693c-1.652,1.102-4.096,3.724-8.596,7.224c0.584-5,3.084-9.604,3.084-9.604S260.118,313.952,259.292,311.75z"></path><path style="fill:#BAB5AF;" d="M280.208,313.125c0,0-2.592-2.083-6.174-0.25c-0.5,1.042-2.326,4.292-5.617,4.667c-1.916,1.5-7.625,6.458-7.625,6.458s3.542-6.542,5.209-7.542c2.875-0.916,4.666-3.667,5.291-5.25S278.667,310.042,280.208,313.125z"></path><path style="fill:#BAB5AF;" d="M288.417,304.167c0,0-3.417-0.25-4.417,0c-0.667,0.833-0.917,1.083-0.917,1.083l-1.166-3.833C281.917,301.417,286.667,302.001,288.417,304.167z"></path></g></g></g></g></g></g></svg>