<svg xmlns="http://www.w3.org/2000/svg" width="500" height="500" version="1.1"><g id="x101"><g><linearGradient id="eyeblowXMLID_175_" gradientUnits="userSpaceOnUse" x1="284.1875" y1="207.5" x2="284.1875" y2="192.1665"><stop offset="0" style="stop-color:#FCFCE4"></stop><stop offset="0.5" style="stop-color:#A0C8DD"></stop><stop offset="1" style="stop-color:#5D6EC5"></stop></linearGradient><path style="fill:url(#eyeblowXMLID_175_);stroke:#000000;stroke-linecap:round;stroke-linejoin:round;" d="M263.313,202.875c0,0,4.5-2.5,13.625-2.875c5.125,0,23.125,5.75,28.125,9.75c-5.549-8.375-17.5-16.75-27.25-17.375C272.438,192.875,263.313,202.875,263.313,202.875z"></path><linearGradient id="eyeblowXMLID_176_" gradientUnits="userSpaceOnUse" x1="215.8125" y1="207.5" x2="215.8125" y2="192.1665"><stop offset="0" style="stop-color:#FCFCE4"></stop><stop offset="0.5" style="stop-color:#A0C8DD"></stop><stop offset="1" style="stop-color:#5D6EC5"></stop></linearGradient><path style="fill:url(#eyeblowXMLID_176_);stroke:#000000;stroke-linecap:round;stroke-linejoin:round;" d="M236.688,202.875c0,0-4.5-2.5-13.625-2.875c-5.125,0-23.125,5.75-28.125,9.75c5.549-8.375,17.5-16.75,27.25-17.375C227.563,192.875,236.688,202.875,236.688,202.875z"></path></g></g></svg>