<svg xmlns="http://www.w3.org/2000/svg" width="500" height="500" version="1.1"><g id="x102"><g><linearGradient id="eyeblowXMLID_177_" gradientUnits="userSpaceOnUse" x1="284" y1="208" x2="284" y2="191.6665"><stop offset="0" style="stop-color:#FCFCE4"></stop><stop offset="0.5" style="stop-color:#A0C8DD"></stop><stop offset="1" style="stop-color:#5D6EC5"></stop></linearGradient><path style="fill:url(#eyeblowXMLID_177_);stroke:#000000;stroke-linecap:round;stroke-linejoin:round;" d="M263.25,206c0,0,6-3.75,13.563-6c5.563-1.75,18.063-3.25,27.938-0.625c-8.5-6.5-22.438-8-29-7C270.375,192.875,263.25,206,263.25,206z"></path><linearGradient id="eyeblowXMLID_178_" gradientUnits="userSpaceOnUse" x1="216" y1="208" x2="216" y2="191.6665"><stop offset="0" style="stop-color:#FCFCE4"></stop><stop offset="0.5" style="stop-color:#A0C8DD"></stop><stop offset="1" style="stop-color:#5D6EC5"></stop></linearGradient><path style="fill:url(#eyeblowXMLID_178_);stroke:#000000;stroke-linecap:round;stroke-linejoin:round;" d="M236.75,206c0,0-6-3.75-13.563-6c-5.563-1.75-18.063-3.25-27.938-0.625c8.5-6.5,22.438-8,29-7C229.625,192.875,236.75,206,236.75,206z"></path></g></g></svg>