<svg xmlns="http://www.w3.org/2000/svg" width="500" height="500" version="1.1"><g id="x107"><g><linearGradient id="eyeblowXMLID_187_" gradientUnits="userSpaceOnUse" x1="277.917" y1="204.25" x2="277.917" y2="190.2383"><stop offset="0" style="stop-color:#FCFCE4"></stop><stop offset="0.5" style="stop-color:#A0C8DD"></stop><stop offset="1" style="stop-color:#5D6EC5"></stop></linearGradient><path style="fill:url(#eyeblowXMLID_187_);stroke:#000000;stroke-linecap:round;stroke-linejoin:round;" d="M289.389,191.811c1.026,3.344-3.277,7.632-9.612,9.577c-6.335,1.946-12.304,0.813-13.331-2.531c-1.026-3.344,3.277-7.632,9.612-9.578C282.393,187.333,288.361,188.467,289.389,191.811z"></path><linearGradient id="eyeblowXMLID_188_" gradientUnits="userSpaceOnUse" x1="222.083" y1="204.25" x2="222.083" y2="190.2383"><stop offset="0" style="stop-color:#FCFCE4"></stop><stop offset="0.5" style="stop-color:#A0C8DD"></stop><stop offset="1" style="stop-color:#5D6EC5"></stop></linearGradient><path style="fill:url(#eyeblowXMLID_188_);stroke:#000000;stroke-linecap:round;stroke-linejoin:round;" d="M210.611,191.811c-1.026,3.344,3.277,7.632,9.612,9.577c6.335,1.946,12.304,0.813,13.331-2.531c1.026-3.344-3.277-7.632-9.612-9.578C217.607,187.333,211.639,188.467,210.611,191.811z"></path></g></g></svg>