<svg xmlns="http://www.w3.org/2000/svg" width="500" height="500" version="1.1"><g id="x110"><g><linearGradient id="eyeblowXMLID_193_" gradientUnits="userSpaceOnUse" x1="217.0054" y1="208.1665" x2="217.0054" y2="197.5"><stop offset="0" style="stop-color:#FCFCE4"></stop><stop offset="0.5" style="stop-color:#A0C8DD"></stop><stop offset="1" style="stop-color:#5D6EC5"></stop></linearGradient><path style="fill:url(#eyeblowXMLID_193_);stroke:#000000;stroke-linecap:round;stroke-linejoin:round;" d="M233.405,203.617c0,0-11.408,1.019-13.038,0.611c-1.63-0.407-13.446-2.852-15.483-2.852c-2.445,0-4.278,1.019-4.278,1.019s2.648-3.259,6.519-4.686c1.883-0.694,12.427-0.815,16.909,0.408C228.516,199.338,233.405,203.617,233.405,203.617z"></path><linearGradient id="eyeblowXMLID_194_" gradientUnits="userSpaceOnUse" x1="282.9941" y1="208.1665" x2="282.9941" y2="197.5"><stop offset="0" style="stop-color:#FCFCE4"></stop><stop offset="0.5" style="stop-color:#A0C8DD"></stop><stop offset="1" style="stop-color:#5D6EC5"></stop></linearGradient><path style="fill:url(#eyeblowXMLID_194_);stroke:#000000;stroke-linecap:round;stroke-linejoin:round;" d="M266.594,203.617c0,0,11.408,1.019,13.039,0.611c1.629-0.407,13.445-2.852,15.482-2.852c2.445,0,4.279,1.019,4.279,1.019s-2.65-3.259-6.521-4.686c-1.881-0.694-12.426-0.815-16.908,0.408C271.482,199.338,266.594,203.617,266.594,203.617z"></path></g></g></svg>