<svg xmlns="http://www.w3.org/2000/svg" width="500" height="500" version="1.1"><g id="x115"><g><linearGradient id="eyeblowXMLID_203_" gradientUnits="userSpaceOnUse" x1="285.6377" y1="216.5" x2="285.6377" y2="201.6665"><stop offset="0" style="stop-color:#FCFCE4"></stop><stop offset="0.5" style="stop-color:#A0C8DD"></stop><stop offset="1" style="stop-color:#5D6EC5"></stop></linearGradient><path style="fill:url(#eyeblowXMLID_203_);stroke:#000000;stroke-linecap:round;stroke-linejoin:round;" d="M260.513,213c0,0,1.125-4.75,2.625-6.375c0.875-0.25,10.875-3.75,20.5-6.5c8.708-2.488,17.5-4.875,18.25-4.75s6.75,3.875,8.875,8.25C286.888,205.5,280.013,210.375,260.513,213z"></path><linearGradient id="eyeblowXMLID_204_" gradientUnits="userSpaceOnUse" x1="214.3633" y1="216.5" x2="214.3633" y2="201.6665"><stop offset="0" style="stop-color:#FCFCE4"></stop><stop offset="0.5" style="stop-color:#A0C8DD"></stop><stop offset="1" style="stop-color:#5D6EC5"></stop></linearGradient><path style="fill:url(#eyeblowXMLID_204_);stroke:#000000;stroke-linecap:round;stroke-linejoin:round;" d="M239.488,213c0,0-1.125-4.75-2.625-6.375c-0.875-0.25-10.875-3.75-20.5-6.5c-8.708-2.488-17.5-4.875-18.25-4.75s-6.75,3.875-8.875,8.25C213.113,205.5,219.988,210.375,239.488,213z"></path></g></g></svg>