<svg xmlns="http://www.w3.org/2000/svg" width="500" height="500" version="1.1"><g id="x116"><g><linearGradient id="eyeblowXMLID_205_" gradientUnits="userSpaceOnUse" x1="283.4326" y1="216.5" x2="283.4326" y2="201"><stop offset="0" style="stop-color:#FCFCE4"></stop><stop offset="0.5" style="stop-color:#A0C8DD"></stop><stop offset="1" style="stop-color:#5D6EC5"></stop></linearGradient><path style="fill:url(#eyeblowXMLID_205_);stroke:#000000;stroke-width:0.9835;stroke-linecap:round;stroke-linejoin:round;" d="M262.992,202.375c1.693,1.75,10.278,2.5,16.202,3.5c5.925,1,24.425,6.5,28.294,9.125c0.242-3.875-3.386-9.25-3.386-9.25s-11.85-5-24.303-7c-12.749-2.047-20.435-4.125-20.435-4.125S261.3,200.625,262.992,202.375z"></path><linearGradient id="eyeblowXMLID_206_" gradientUnits="userSpaceOnUse" x1="216.5674" y1="216.5" x2="216.5674" y2="201"><stop offset="0" style="stop-color:#FCFCE4"></stop><stop offset="0.5" style="stop-color:#A0C8DD"></stop><stop offset="1" style="stop-color:#5D6EC5"></stop></linearGradient><path style="fill:url(#eyeblowXMLID_206_);stroke:#000000;stroke-width:0.9835;stroke-linecap:round;stroke-linejoin:round;" d="M237.007,202.375c-1.692,1.75-10.277,2.5-16.202,3.5s-24.424,6.5-28.293,9.125c-0.242-3.875,3.385-9.25,3.385-9.25s11.85-5,24.304-7c12.749-2.047,20.434-4.125,20.434-4.125S238.7,200.625,237.007,202.375z"></path></g></g></svg>