<svg xmlns="http://www.w3.org/2000/svg" width="500" height="500" version="1.1"><g id="x9133"><g><g><g><linearGradient id="eyeblowXMLID_221_" gradientUnits="userSpaceOnUse" x1="244.2612" y1="212.125" x2="248.1362" y2="212.125"><stop offset="0" style="stop-color:#FCFCE4"></stop><stop offset="0.5" style="stop-color:#A0C8DD"></stop><stop offset="1" style="stop-color:#5D6EC5"></stop></linearGradient><path style="fill:url(#eyeblowXMLID_221_);stroke:#000000;stroke-linecap:round;stroke-linejoin:round;" d="M248.136,207.5c0,0-1.125,6.25-3.875,9.25"></path></g><g><linearGradient id="eyeblowXMLID_222_" gradientUnits="userSpaceOnUse" x1="181.6055" y1="207.5" x2="237.6465" y2="207.5" gradientTransform="matrix(-1 0 0 1 426.2939 0)"><stop offset="0" style="stop-color:#FCFCE4"></stop><stop offset="0.5" style="stop-color:#A0C8DD"></stop><stop offset="1" style="stop-color:#5D6EC5"></stop></linearGradient><path style="fill:url(#eyeblowXMLID_222_);stroke:#000000;stroke-linecap:round;stroke-linejoin:round;" d="M233.814,214.667c3.833,1.333,8.5,2,10.874,1.667c0,0-4.374,3.333-10.541,4.5c-12.479-4.833-29-20.167-34-20.333s-11.5,3.167-11.5,3.167s5.084-8,11.167-9.5C204.398,194.5,221.647,209.333,233.814,214.667z"></path></g></g><g><linearGradient id="eyeblowXMLID_223_" gradientUnits="userSpaceOnUse" x1="251.8604" y1="212.125" x2="255.7354" y2="212.125"><stop offset="0" style="stop-color:#FCFCE4"></stop><stop offset="0.5" style="stop-color:#A0C8DD"></stop><stop offset="1" style="stop-color:#5D6EC5"></stop></linearGradient><path style="fill:url(#eyeblowXMLID_223_);stroke:#000000;stroke-linecap:round;stroke-linejoin:round;" d="M251.86,207.5c0,0,1.125,6.25,3.875,9.25"></path><linearGradient id="eyeblowXMLID_224_" gradientUnits="userSpaceOnUse" x1="146.6084" y1="207.5" x2="202.6484" y2="207.5" gradientTransform="matrix(1 0 0 1 108.7041 0)"><stop offset="0" style="stop-color:#FCFCE4"></stop><stop offset="0.5" style="stop-color:#A0C8DD"></stop><stop offset="1" style="stop-color:#5D6EC5"></stop></linearGradient><path style="fill:url(#eyeblowXMLID_224_);stroke:#000000;stroke-linecap:round;stroke-linejoin:round;" d="M266.186,214.667c-3.832,1.333-8.5,2-10.873,1.667c0,0,4.373,3.333,10.541,4.5c12.479-4.833,29-20.167,33.999-20.333c5-0.167,11.5,3.167,11.5,3.167s-5.084-8-11.167-9.5C295.602,194.5,278.354,209.333,266.186,214.667z"></path></g></g></g></svg>