<svg xmlns="http://www.w3.org/2000/svg" width="500" height="500" version="1.1"><g id="x9136"><g><g><linearGradient id="eyeblowXMLID_227_" gradientUnits="userSpaceOnUse" x1="285.125" y1="200.5" x2="285.125" y2="115"><stop offset="0" style="stop-color:#FCFCE4"></stop><stop offset="0.5" style="stop-color:#A0C8DD"></stop><stop offset="1" style="stop-color:#5D6EC5"></stop></linearGradient><path style="fill:url(#eyeblowXMLID_227_);stroke:#000000;stroke-linecap:round;stroke-linejoin:round;" d="M309.125,201.5c0,0-18-7.75-23-7.75s-22,6.25-25,7c1.5,2.5,3.25,3.5,3.25,3.5s21.75-7.25,23.5-7.25S309.125,201.5,309.125,201.5z"></path></g><g><linearGradient id="eyeblowXMLID_228_" gradientUnits="userSpaceOnUse" x1="214.875" y1="200.5" x2="214.875" y2="115"><stop offset="0" style="stop-color:#FCFCE4"></stop><stop offset="0.5" style="stop-color:#A0C8DD"></stop><stop offset="1" style="stop-color:#5D6EC5"></stop></linearGradient><path style="fill:url(#eyeblowXMLID_228_);stroke:#000000;stroke-linecap:round;stroke-linejoin:round;" d="M190.875,201.5c0,0,18-7.75,23-7.75s22,6.25,25,7c-1.5,2.5-3.25,3.5-3.25,3.5s-21.75-7.25-23.5-7.25S190.875,201.5,190.875,201.5z"></path></g></g></g></svg>