<svg xmlns="http://www.w3.org/2000/svg" width="500" height="500" version="1.1"><g id="x9137"><g><linearGradient id="eyeblowXMLID_229_" gradientUnits="userSpaceOnUse" x1="261.6816" y1="214.2031" x2="302.7236" y2="214.2031"><stop offset="0" style="stop-color:#FCFCE4"></stop><stop offset="0.5" style="stop-color:#A0C8DD"></stop><stop offset="1" style="stop-color:#5D6EC5"></stop></linearGradient><path style="fill:url(#eyeblowXMLID_229_);stroke:#000000;stroke-linecap:round;stroke-linejoin:round;" d="M261.682,221.704c0,0,7.644-0.282,11.322-2.264c3.679-1.981,12.451-8.774,17.264-10.755c4.813-1.981,12.456-1.981,12.456-1.981s-12.456,0.282-14.719,0.566C285.741,207.552,272.154,210.099,261.682,221.704z"></path><linearGradient id="eyeblowXMLID_230_" gradientUnits="userSpaceOnUse" x1="201.4863" y1="214.2031" x2="242.5283" y2="214.2031" gradientTransform="matrix(-1 0 0 1 439.8047 0)"><stop offset="0" style="stop-color:#FCFCE4"></stop><stop offset="0.5" style="stop-color:#A0C8DD"></stop><stop offset="1" style="stop-color:#5D6EC5"></stop></linearGradient><path style="fill:url(#eyeblowXMLID_230_);stroke:#000000;stroke-linecap:round;stroke-linejoin:round;" d="M238.318,221.704c0,0-7.644-0.282-11.322-2.264c-3.679-1.981-12.451-8.774-17.264-10.755c-4.813-1.981-12.456-1.981-12.456-1.981s12.456,0.282,14.719,0.566C214.259,207.552,227.846,210.099,238.318,221.704z"></path></g></g></svg>