<svg xmlns="http://www.w3.org/2000/svg" width="500" height="500" version="1.1"><g id="x9147"><g><g><polyline style="fill:none;stroke:#000000;stroke-linecap:round;stroke-linejoin:round;" points="237.917,216 243.083,208.5 241.083,193.5 "></polyline><polyline style="fill:none;stroke:#000000;stroke-linecap:round;stroke-linejoin:round;" points="262.083,216 256.917,208.5 258.917,193.5 "></polyline></g><g><g><linearGradient id="eyeblowXMLID_231_" gradientUnits="userSpaceOnUse" x1="281.333" y1="203.3555" x2="281.333" y2="217.7874"><stop offset="0" style="stop-color:#FCFCE4"></stop><stop offset="0.5" style="stop-color:#A0C8DD"></stop><stop offset="1" style="stop-color:#5D6EC5"></stop></linearGradient><path style="fill:url(#eyeblowXMLID_231_);stroke:#000000;stroke-linecap:round;stroke-linejoin:round;" d="M289,205.5c0,0,5.667,0,11.5,2.667C289.834,209,262.166,216,262.166,216s2.835-5.667,5.501-8.5c3.333-2.833,22.999-5.666,31.666-5.833C292.5,203.5,289,205.5,289,205.5z"></path></g><g><linearGradient id="eyeblowXMLID_232_" gradientUnits="userSpaceOnUse" x1="221.333" y1="203.3555" x2="221.333" y2="217.7874" gradientTransform="matrix(-1 0 0 1 440 0)"><stop offset="0" style="stop-color:#FCFCE4"></stop><stop offset="0.5" style="stop-color:#A0C8DD"></stop><stop offset="1" style="stop-color:#5D6EC5"></stop></linearGradient><path style="fill:url(#eyeblowXMLID_232_);stroke:#000000;stroke-linecap:round;stroke-linejoin:round;" d="M211,205.5c0,0-5.667,0-11.5,2.667C210.166,209,237.834,216,237.834,216s-2.835-5.667-5.501-8.5c-3.333-2.833-22.999-5.666-31.666-5.833C207.5,203.5,211,205.5,211,205.5z"></path></g></g></g></g></svg>