<svg xmlns="http://www.w3.org/2000/svg" width="500" height="500" version="1.1"><g id="x9149"><g><linearGradient id="eyeblowXMLID_235_" gradientUnits="userSpaceOnUse" x1="257.3223" y1="215.0322" x2="295.8613" y2="215.0322"><stop offset="0" style="stop-color:#FCFCE4"></stop><stop offset="0.5" style="stop-color:#A0C8DD"></stop><stop offset="1" style="stop-color:#5D6EC5"></stop></linearGradient><path style="fill:url(#eyeblowXMLID_235_);stroke:#000000;stroke-linecap:round;stroke-linejoin:round;" d="M270.213,217c-5.652,3.618-12.891,7.922-12.891,7.922c0.377,0,9.391-0.939,12.707-2.629c3.313-2.634,7.7-5.66,11.916-8.43l-1.584-2.536C277.143,212.9,273.675,214.783,270.213,217z M286.296,208.636l1.121,1.705c4.8-3.033,8.444-5.199,8.444-5.199S291.945,206.263,286.296,208.636z"></path><linearGradient id="eyeblowXMLID_236_" gradientUnits="userSpaceOnUse" x1="178.396" y1="215.0322" x2="216.9351" y2="215.0322" gradientTransform="matrix(-1 0 0 1 421.0732 0)"><stop offset="0" style="stop-color:#FCFCE4"></stop><stop offset="0.5" style="stop-color:#A0C8DD"></stop><stop offset="1" style="stop-color:#5D6EC5"></stop></linearGradient><path style="fill:url(#eyeblowXMLID_236_);stroke:#000000;stroke-linecap:round;stroke-linejoin:round;" d="M242.677,224.922c-0.377,0-9.39-0.939-12.707-2.629c-8.976-7.136-25.832-17.151-25.832-17.151s12.879,3.681,25.648,11.858C235.439,220.618,242.677,224.922,242.677,224.922z"></path></g></g></svg>