<svg xmlns="http://www.w3.org/2000/svg" width="500" height="500" version="1.1"><g id="x9159"><g><linearGradient id="eyeblowXMLID_247_" gradientUnits="userSpaceOnUse" x1="271.8145" y1="166.3335" x2="271.8145" y2="306.6667"><stop offset="0" style="stop-color:#FCFCE4"></stop><stop offset="0.5" style="stop-color:#A0C8DD"></stop><stop offset="1" style="stop-color:#5D6EC5"></stop></linearGradient><path style="fill:url(#eyeblowXMLID_247_);stroke:#000000;stroke-linecap:round;stroke-linejoin:round;" d="M260.259,212.448c0,0-0.092-7.678,5.364-10.214c2.577-0.791,5.102-0.887,8.721-0.61c5.123,0.885,8.262,2.692,9.026,4C281.41,209,263.277,214.608,260.259,212.448z"></path><linearGradient id="eyeblowXMLID_248_" gradientUnits="userSpaceOnUse" x1="228.1846" y1="166.3335" x2="228.1846" y2="306.6667"><stop offset="0" style="stop-color:#FCFCE4"></stop><stop offset="0.5" style="stop-color:#A0C8DD"></stop><stop offset="1" style="stop-color:#5D6EC5"></stop></linearGradient><path style="fill:url(#eyeblowXMLID_248_);stroke:#000000;stroke-linecap:round;stroke-linejoin:round;" d="M239.74,212.448c0,0,0.091-7.678-5.364-10.214c-2.577-0.791-5.101-0.887-8.72-0.61c-5.123,0.885-8.261,2.692-9.026,4C218.589,209,236.721,214.608,239.74,212.448z"></path></g></g></svg>