<svg xmlns="http://www.w3.org/2000/svg" width="500" height="500" version="1.1"><g id="a016"><g><g><linearGradient id="eyeblowXMLID_265_" gradientUnits="userSpaceOnUse" x1="281.75" y1="205.75" x2="281.75" y2="196"><stop offset="0" style="stop-color:#FCFCE4"></stop><stop offset="0.5" style="stop-color:#A0C8DD"></stop><stop offset="1" style="stop-color:#5D6EC5"></stop></linearGradient><path style="fill:url(#eyeblowXMLID_265_);" d="M266.461,192.867c0,0,1.93,3.647,5.285,5.269c1.009,0.106,15.844-2.875,25.293-0.775C292.557,192.314,278.344,189.933,266.461,192.867z"></path><g><path style="fill:none;stroke:#000000;stroke-linecap:round;stroke-linejoin:round;" d="M270.542,196.75c0,0,1.5-2.875,2.5-4.25"></path><path style="fill:none;stroke:#000000;stroke-linecap:round;stroke-linejoin:round;" d="M274.742,196.4c0.227-0.075,1.303-2.351,2.475-3.55"></path><path style="fill:none;stroke:#000000;stroke-linecap:round;stroke-linejoin:round;" d="M278.942,196.049c0.453-0.149,1.105-1.827,2.449-2.85"></path><path style="fill:none;stroke:#000000;stroke-linecap:round;stroke-linejoin:round;" d="M283.142,195.788c0.68-0.223,0.909-1.303,2.426-2.15"></path><path style="fill:none;stroke:#000000;stroke-linecap:round;stroke-linejoin:round;" d="M287.342,196.05c0.906-0.297,0.712-0.779,2.4-1.45"></path><path style="fill:none;stroke:#000000;stroke-linecap:round;stroke-linejoin:round;" d="M291.542,196.5c1.133-0.372,0.515-0.255,2.375-0.75"></path></g></g><g><linearGradient id="eyeblowXMLID_266_" gradientUnits="userSpaceOnUse" x1="196.9189" y1="205.75" x2="196.9189" y2="196" gradientTransform="matrix(-1 0 0 1 415.1689 0)"><stop offset="0" style="stop-color:#FCFCE4"></stop><stop offset="0.5" style="stop-color:#A0C8DD"></stop><stop offset="1" style="stop-color:#5D6EC5"></stop></linearGradient><path style="fill:url(#eyeblowXMLID_266_);" d="M233.539,192.867c0,0-1.93,3.647-5.285,5.269c-1.009,0.106-15.844-2.875-25.293-0.775C207.443,192.314,221.656,189.933,233.539,192.867z"></path><g><path style="fill:none;stroke:#000000;stroke-linecap:round;stroke-linejoin:round;" d="M229.458,196.75c0,0-1.5-2.875-2.5-4.25"></path><path style="fill:none;stroke:#000000;stroke-linecap:round;stroke-linejoin:round;" d="M225.258,196.4c-0.227-0.075-1.303-2.351-2.475-3.55"></path><path style="fill:none;stroke:#000000;stroke-linecap:round;stroke-linejoin:round;" d="M221.058,196.049c-0.453-0.149-1.105-1.827-2.449-2.85"></path><path style="fill:none;stroke:#000000;stroke-linecap:round;stroke-linejoin:round;" d="M216.858,195.788c-0.68-0.223-0.909-1.303-2.426-2.15"></path><path style="fill:none;stroke:#000000;stroke-linecap:round;stroke-linejoin:round;" d="M212.658,196.05c-0.906-0.297-0.712-0.779-2.4-1.45"></path><path style="fill:none;stroke:#000000;stroke-linecap:round;stroke-linejoin:round;" d="M208.458,196.5c-1.133-0.372-0.515-0.255-2.375-0.75"></path></g></g></g></g></svg>