<svg xmlns="http://www.w3.org/2000/svg" width="500" height="500" version="1.1"><g id="x9160"><g><g><linearGradient id="eyeblowXMLID_249_" gradientUnits="userSpaceOnUse" x1="283" y1="174.3335" x2="283" y2="249"><stop offset="0" style="stop-color:#FCFCE4"></stop><stop offset="0.5" style="stop-color:#A0C8DD"></stop><stop offset="1" style="stop-color:#5D6EC5"></stop></linearGradient><path style="fill:url(#eyeblowXMLID_249_);stroke:#000000;stroke-linecap:round;stroke-linejoin:round;" d="M266.665,187.33c0,0,0.47,0.75,1.22,1.77c0.521,0.7,1.17,1.53,1.891,2.33c1.26,1.41,2.729,2.72,4.06,3.07c1.85,0.48,6.311,0.86,12,1.05c2.18,0.08,4.54,0.12,7,0.14c2.11,0.02,4.29,0.01,6.5-0.02C288.665,188.5,266.665,187.33,266.665,187.33z"></path><path style="fill:none;stroke:#000000;stroke-linecap:round;stroke-linejoin:round;" d="M270.165,191.125c0.409,0.328,3.342,1.836,6.686,2.943"></path><path style="fill:none;stroke:#000000;stroke-linecap:round;stroke-linejoin:round;" d="M275.665,188.75c0,0,3.875,4.875,11,6.5"></path><path style="fill:none;stroke:#000000;stroke-linecap:round;stroke-linejoin:round;" d="M285.29,190.875c0.25,0.5,2.875,2.75,7.5,4.25"></path></g><g><linearGradient id="eyeblowXMLID_250_" gradientUnits="userSpaceOnUse" x1="217" y1="174.3335" x2="217" y2="249"><stop offset="0" style="stop-color:#FCFCE4"></stop><stop offset="0.5" style="stop-color:#A0C8DD"></stop><stop offset="1" style="stop-color:#5D6EC5"></stop></linearGradient><path style="fill:url(#eyeblowXMLID_250_);stroke:#000000;stroke-linecap:round;stroke-linejoin:round;" d="M233.335,187.33c0,0-0.47,0.75-1.22,1.77c-0.521,0.7-1.17,1.53-1.891,2.33c-1.26,1.41-2.729,2.72-4.06,3.07c-1.85,0.48-6.311,0.86-12,1.05c-2.18,0.08-4.54,0.12-7,0.14c-2.11,0.02-4.29,0.01-6.5-0.02C211.335,188.5,233.335,187.33,233.335,187.33z"></path><path style="fill:none;stroke:#000000;stroke-linecap:round;stroke-linejoin:round;" d="M229.835,191.125c-0.409,0.328-3.342,1.836-6.686,2.943"></path><path style="fill:none;stroke:#000000;stroke-linecap:round;stroke-linejoin:round;" d="M224.335,188.75c0,0-3.875,4.875-11,6.5"></path><path style="fill:none;stroke:#000000;stroke-linecap:round;stroke-linejoin:round;" d="M214.71,190.875c-0.25,0.5-2.875,2.75-7.5,4.25"></path></g></g></g></svg>