<svg xmlns="http://www.w3.org/2000/svg" width="500" height="500" version="1.1"><g id="x9162"><g><g><linearGradient id="eyeblowXMLID_253_" gradientUnits="userSpaceOnUse" x1="274.375" y1="201.667" x2="274.375" y2="216.667"><stop offset="0" style="stop-color:#FCFCE4"></stop><stop offset="0.5" style="stop-color:#A0C8DD"></stop><stop offset="1" style="stop-color:#5D6EC5"></stop></linearGradient><path style="fill:url(#eyeblowXMLID_253_);" d="M261.531,209.271c0,0-0.084,0.421-0.117,0.927c-0.039,0.634,0.004,1.402,0.402,1.641c0.713,0.428,10.127-4.935,16.117-6.361c4.42-0.286,9.414-0.628,9.414-0.628s-9.271-0.999-16.404,0.143C263.527,206.561,261.531,209.271,261.531,209.271z"></path><path style="opacity:0.3;" d="M261.531,209.271c0,0-0.084,0.421-0.117,0.927c-0.039,0.634,0.004,1.402,0.402,1.641c0.713,0.428,10.127-4.935,16.117-6.361c4.42-0.286,9.414-0.628,9.414-0.628s-9.271-0.999-16.404,0.143C263.527,206.561,261.531,209.271,261.531,209.271z"></path></g><g><linearGradient id="eyeblowXMLID_254_" gradientUnits="userSpaceOnUse" x1="225.625" y1="201.667" x2="225.625" y2="216.667"><stop offset="0" style="stop-color:#FCFCE4"></stop><stop offset="0.5" style="stop-color:#A0C8DD"></stop><stop offset="1" style="stop-color:#5D6EC5"></stop></linearGradient><path style="fill:url(#eyeblowXMLID_254_);" d="M238.469,209.271c0,0,0.084,0.421,0.116,0.927c0.039,0.634-0.004,1.402-0.401,1.641c-0.714,0.428-10.127-4.935-16.117-6.361c-4.421-0.286-9.414-0.628-9.414-0.628s9.271-0.999,16.403,0.143C236.473,206.561,238.469,209.271,238.469,209.271z"></path><path style="opacity:0.3;" d="M238.469,209.271c0,0,0.084,0.421,0.116,0.927c0.039,0.634-0.004,1.402-0.401,1.641c-0.714,0.428-10.127-4.935-16.117-6.361c-4.421-0.286-9.414-0.628-9.414-0.628s9.271-0.999,16.403,0.143C236.473,206.561,238.469,209.271,238.469,209.271z"></path></g></g></g></svg>