<svg xmlns="http://www.w3.org/2000/svg" width="500" height="500" version="1.1"><g id="a017"><g><g><linearGradient id="eyeblowXMLID_267_" gradientUnits="userSpaceOnUse" x1="281.5313" y1="205.75" x2="281.5313" y2="196"><stop offset="0" style="stop-color:#FCFCE4"></stop><stop offset="0.5" style="stop-color:#A0C8DD"></stop><stop offset="1" style="stop-color:#5D6EC5"></stop></linearGradient><path style="fill:url(#eyeblowXMLID_267_);" d="M266.406,197c0,0,3.416,5.5,7.083,6.167c1-0.167,13.333-3.333,23.167-14.167C287.322,193.167,271.989,197,266.406,197z"></path><g><path style="fill:none;stroke:#000000;stroke-linecap:round;stroke-linejoin:round;" d="M269.948,198.188c0,0,1.938,2.438,4,3.438"></path><path style="fill:none;stroke:#000000;stroke-linecap:round;stroke-linejoin:round;" d="M274.048,197.288c0,0,1.638,2.088,3.363,2.975"></path><path style="fill:none;stroke:#000000;stroke-linecap:round;stroke-linejoin:round;" d="M278.148,196.163c0,0,1.337,1.737,2.725,2.512"></path><path style="fill:none;stroke:#000000;stroke-linecap:round;stroke-linejoin:round;" d="M282.248,194.962c0,0,1.038,1.388,2.088,2.05"></path><path style="fill:none;stroke:#000000;stroke-linecap:round;stroke-linejoin:round;" d="M286.349,193.788c0,0,0.737,1.037,1.449,1.587"></path><path style="fill:none;stroke:#000000;stroke-linecap:round;stroke-linejoin:round;" d="M290.448,192.188c0,0,0.438,0.688,0.813,1.125"></path></g></g><g><linearGradient id="eyeblowXMLID_268_" gradientUnits="userSpaceOnUse" x1="344.6973" y1="205.75" x2="344.6973" y2="196" gradientTransform="matrix(-1 0 0 1 563.166 0)"><stop offset="0" style="stop-color:#FCFCE4"></stop><stop offset="0.5" style="stop-color:#A0C8DD"></stop><stop offset="1" style="stop-color:#5D6EC5"></stop></linearGradient><path style="fill:url(#eyeblowXMLID_268_);" d="M233.594,197c0,0-3.416,5.5-7.083,6.167c-1-0.167-13.333-3.333-23.167-14.167C212.678,193.167,228.011,197,233.594,197z"></path><g><path style="fill:none;stroke:#000000;stroke-linecap:round;stroke-linejoin:round;" d="M230.052,198.188c0,0-1.938,2.438-4,3.438"></path><path style="fill:none;stroke:#000000;stroke-linecap:round;stroke-linejoin:round;" d="M225.952,197.288c0,0-1.638,2.088-3.363,2.975"></path><path style="fill:none;stroke:#000000;stroke-linecap:round;stroke-linejoin:round;" d="M221.852,196.163c0,0-1.337,1.737-2.725,2.512"></path><path style="fill:none;stroke:#000000;stroke-linecap:round;stroke-linejoin:round;" d="M217.752,194.962c0,0-1.038,1.388-2.088,2.05"></path><path style="fill:none;stroke:#000000;stroke-linecap:round;stroke-linejoin:round;" d="M213.651,193.788c0,0-0.737,1.037-1.449,1.587"></path><path style="fill:none;stroke:#000000;stroke-linecap:round;stroke-linejoin:round;" d="M209.552,192.188c0,0-0.438,0.688-0.813,1.125"></path></g></g></g></g></svg>