<svg xmlns="http://www.w3.org/2000/svg" width="500" height="500" version="1.1"><g id="a018"><g><g><linearGradient id="eyeblowXMLID_269_" gradientUnits="userSpaceOnUse" x1="282.6563" y1="205.75" x2="282.6563" y2="196"><stop offset="0" style="stop-color:#FCFCE4"></stop><stop offset="0.5" style="stop-color:#A0C8DD"></stop><stop offset="1" style="stop-color:#5D6EC5"></stop></linearGradient><path style="fill:url(#eyeblowXMLID_269_);" d="M266.74,193c0,0,1.666,3.833,4,5.5c3.832,0.5,25,3.667,27.832,7.167C295.572,197.667,278.906,191.833,266.74,193z"></path><g><path style="fill:none;stroke:#000000;stroke-linecap:round;stroke-linejoin:round;" d="M271.092,197.736c0,0,1.697-2.61,3.656-3.801"></path><path style="fill:none;stroke:#000000;stroke-linecap:round;stroke-linejoin:round;" d="M275.258,198.243c0,0,1.434-2.233,3.066-3.28"></path><path style="fill:none;stroke:#000000;stroke-linecap:round;stroke-linejoin:round;" d="M279.447,198.975c0,0,1.166-1.856,2.475-2.759"></path><path style="fill:none;stroke:#000000;stroke-linecap:round;stroke-linejoin:round;" d="M283.641,199.781c0,0,0.904-1.48,1.885-2.24"></path><path style="fill:none;stroke:#000000;stroke-linecap:round;stroke-linejoin:round;" d="M287.834,200.561c0,0,0.637-1.102,1.293-1.717"></path><path style="fill:none;stroke:#000000;stroke-linecap:round;stroke-linejoin:round;" d="M292.068,201.766c0,0,0.371-0.726,0.701-1.197"></path></g></g><g><linearGradient id="eyeblowXMLID_270_" gradientUnits="userSpaceOnUse" x1="246.9922" y1="205.75" x2="246.9922" y2="196" gradientTransform="matrix(-1 0 0 1 464.3359 0)"><stop offset="0" style="stop-color:#FCFCE4"></stop><stop offset="0.5" style="stop-color:#A0C8DD"></stop><stop offset="1" style="stop-color:#5D6EC5"></stop></linearGradient><path style="fill:url(#eyeblowXMLID_270_);" d="M233.26,193c0,0-1.667,3.833-4,5.5c-3.833,0.5-25,3.667-27.833,7.167C204.427,197.667,221.093,191.833,233.26,193z"></path><g><path style="fill:none;stroke:#000000;stroke-linecap:round;stroke-linejoin:round;" d="M228.909,197.736c0,0-1.698-2.61-3.657-3.801"></path><path style="fill:none;stroke:#000000;stroke-linecap:round;stroke-linejoin:round;" d="M224.743,198.243c0,0-1.434-2.233-3.067-3.28"></path><path style="fill:none;stroke:#000000;stroke-linecap:round;stroke-linejoin:round;" d="M220.553,198.975c0,0-1.166-1.856-2.475-2.759"></path><path style="fill:none;stroke:#000000;stroke-linecap:round;stroke-linejoin:round;" d="M216.359,199.781c0,0-0.903-1.48-1.885-2.24"></path><path style="fill:none;stroke:#000000;stroke-linecap:round;stroke-linejoin:round;" d="M212.166,200.561c0,0-0.637-1.102-1.293-1.717"></path><path style="fill:none;stroke:#000000;stroke-linecap:round;stroke-linejoin:round;" d="M207.932,201.766c0,0-0.371-0.726-0.702-1.197"></path></g></g></g></g></svg>