<svg xmlns="http://www.w3.org/2000/svg" width="500" height="500" version="1.1"><g id="a019"><g><g><linearGradient id="eyeblowXMLID_271_" gradientUnits="userSpaceOnUse" x1="281.8125" y1="205.75" x2="281.8125" y2="196"><stop offset="0" style="stop-color:#FCFCE4"></stop><stop offset="0.5" style="stop-color:#A0C8DD"></stop><stop offset="1" style="stop-color:#5D6EC5"></stop></linearGradient><path style="fill:url(#eyeblowXMLID_271_);" d="M266.479,197c0,0,2.834,3,6.5,3.667c1-0.167,14.5-7,24.168-7.5C291.479,189.5,277.146,191,266.479,197z"></path><g><path style="fill:none;stroke:#000000;stroke-linecap:round;stroke-linejoin:round;" d="M270.125,196.625c0,0,1.5,1.25,3.938,2.188"></path><path style="fill:none;stroke:#000000;stroke-linecap:round;stroke-linejoin:round;" d="M274.338,195.312c0,0,1.375,1.1,3.449,1.938"></path><path style="fill:none;stroke:#000000;stroke-linecap:round;stroke-linejoin:round;" d="M278.549,194.399c0,0,1.25,0.95,2.963,1.688"></path><path style="fill:none;stroke:#000000;stroke-linecap:round;stroke-linejoin:round;" d="M282.762,193.487c0,0,1.125,0.8,2.475,1.438"></path><path style="fill:none;stroke:#000000;stroke-linecap:round;stroke-linejoin:round;" d="M286.975,192.575c0,0,1,0.65,1.988,1.188"></path><path style="fill:none;stroke:#000000;stroke-linecap:round;stroke-linejoin:round;" d="M291.188,192.063c0,0,0.875,0.5,1.5,0.938"></path></g></g><g><linearGradient id="eyeblowXMLID_272_" gradientUnits="userSpaceOnUse" x1="238.0654" y1="205.75" x2="238.0654" y2="196" gradientTransform="matrix(-1 0 0 1 456.2529 0)"><stop offset="0" style="stop-color:#FCFCE4"></stop><stop offset="0.5" style="stop-color:#A0C8DD"></stop><stop offset="1" style="stop-color:#5D6EC5"></stop></linearGradient><path style="fill:url(#eyeblowXMLID_272_);" d="M233.521,197c0,0-2.833,3-6.5,3.667c-1-0.167-14.5-7-24.167-7.5C208.521,189.5,222.854,191,233.521,197z"></path><g><path style="fill:none;stroke:#000000;stroke-linecap:round;stroke-linejoin:round;" d="M229.875,196.625c0,0-1.5,1.25-3.938,2.188"></path><path style="fill:none;stroke:#000000;stroke-linecap:round;stroke-linejoin:round;" d="M225.663,195.312c0,0-1.375,1.1-3.449,1.938"></path><path style="fill:none;stroke:#000000;stroke-linecap:round;stroke-linejoin:round;" d="M221.451,194.399c0,0-1.25,0.95-2.963,1.688"></path><path style="fill:none;stroke:#000000;stroke-linecap:round;stroke-linejoin:round;" d="M217.238,193.487c0,0-1.125,0.8-2.475,1.438"></path><path style="fill:none;stroke:#000000;stroke-linecap:round;stroke-linejoin:round;" d="M213.026,192.575c0,0-1,0.65-1.988,1.188"></path><path style="fill:none;stroke:#000000;stroke-linecap:round;stroke-linejoin:round;" d="M208.813,192.063c0,0-0.875,0.5-1.5,0.938"></path></g></g></g></g></svg>