<svg xmlns="http://www.w3.org/2000/svg" width="500" height="500" version="1.1"><g id="a038"><g><path d="M266.346,203.709c0,0,11.304-1.843,12.783-2.643c1.477-0.798,12.317-6.098,14.291-6.604c2.368-0.606,4.397-0.075,4.397-0.075s-3.376-2.5-7.479-2.921c-1.994-0.206-12.239,2.293-16.278,4.589C270.021,198.352,266.346,203.709,266.346,203.709z"></path><path d="M234.653,203.709c0,0-11.304-1.843-12.783-2.643c-1.477-0.798-12.317-6.098-14.291-6.604c-2.368-0.606-4.397-0.075-4.397-0.075s3.376-2.5,7.479-2.921c1.994-0.206,12.239,2.293,16.278,4.589C230.978,198.352,234.653,203.709,234.653,203.709z"></path></g></g></svg>