<svg xmlns="http://www.w3.org/2000/svg" width="500" height="500" version="1.1"><g id="a039"><g><path d="M265.538,193.785c0,0,10.38,4.842,12.053,5.014c1.67,0.172,13.612,1.896,15.528,2.59c2.299,0.832,3.676,2.414,3.676,2.414s-1.382-3.967-4.536-6.625c-1.532-1.293-11.405-4.997-16.036-5.374S265.538,193.785,265.538,193.785z"></path><path d="M234.462,193.785c0,0-10.38,4.842-12.053,5.014c-1.67,0.172-13.612,1.896-15.528,2.59c-2.299,0.832-3.676,2.414-3.676,2.414s1.382-3.967,4.536-6.625c1.532-1.293,11.405-4.997,16.036-5.374S234.462,193.785,234.462,193.785z"></path></g></g></svg>