<svg xmlns="http://www.w3.org/2000/svg" width="500" height="500" version="1.1"><g id="a040"><g><path d="M265.747,201.416c0,0,11.172,2.523,12.843,2.335c1.669-0.188,13.705-1.043,15.724-0.773c2.424,0.325,4.106,1.577,4.106,1.577s-2.194-3.582-5.842-5.509c-1.772-0.938-12.208-2.456-16.813-1.839C271.16,197.824,265.747,201.416,265.747,201.416z"></path><path d="M234.253,201.416c0,0-11.172,2.523-12.843,2.335c-1.669-0.188-13.705-1.043-15.724-0.773c-2.424,0.325-4.106,1.577-4.106,1.577s2.194-3.582,5.842-5.509c1.772-0.938,12.208-2.456,16.813-1.839C228.84,197.824,234.253,201.416,234.253,201.416z"></path></g></g></svg>