<svg xmlns="http://www.w3.org/2000/svg" width="500" height="500" version="1.1"><g id="a075"><g><path d="M266.141,210.25c0,0,0.898-4.75,2.096-6.375c0.697-0.25,8.68-3.75,16.363-6.5c6.949-2.488,13.967-4.875,14.566-4.75c0.598,0.125,5.387,3.875,7.084,8.25C287.193,202.75,281.705,207.625,266.141,210.25z"></path><path d="M233.859,210.25c0,0-0.898-4.75-2.095-6.375c-0.699-0.25-8.68-3.75-16.363-6.5c-6.951-2.488-13.968-4.875-14.567-4.75s-5.388,3.875-7.084,8.25C212.807,202.75,218.294,207.625,233.859,210.25z"></path></g></g></svg>