<svg xmlns="http://www.w3.org/2000/svg" width="500" height="500" version="1.1"><g id="a076"><g><path d="M268.12,199.625c1.352,1.75,8.204,2.5,12.933,3.5s19.495,6.5,22.584,9.125c0.193-3.875-2.703-9.25-2.703-9.25s-9.458-5-19.397-7c-10.177-2.047-16.311-4.125-16.311-4.125S266.77,197.875,268.12,199.625z"></path><path d="M231.879,199.625c-1.351,1.75-8.203,2.5-12.932,3.5c-4.729,1-19.495,6.5-22.584,9.125c-0.193-3.875,2.702-9.25,2.702-9.25s9.458-5,19.399-7c10.176-2.047,16.31-4.125,16.31-4.125S233.23,197.875,231.879,199.625z"></path></g></g></svg>