<svg xmlns="http://www.w3.org/2000/svg" width="500" height="500" version="1.1"><g id="x9100"><g><g><linearGradient id="hair2XMLID_921_" gradientUnits="userSpaceOnUse" x1="244.6885" y1="125.8311" x2="244.6885" y2="428.395"><stop offset="0" style="stop-color:#FCFCE4"></stop><stop offset="0.5" style="stop-color:#A0C8DD"></stop><stop offset="1" style="stop-color:#5D6EC5"></stop></linearGradient><path style="fill:url(#hair2XMLID_921_);stroke:#1E1E1E;stroke-linecap:round;stroke-linejoin:round;" d="M191,154.333c-24.667,26-30,44-27.333,70c0-8,5.333-18,10.667-22.667c-4,25.333,6,42,11.333,53.333C191,266.334,217,281,228.333,286.333c3.333,16.666,28,26,38,30c-3.333-4.667-3.333-12-0.667-20c2.666-5.334,27.334-18.666,32.667-22.666s12-27.333,14-42s-2-40-2-40s6.667,6,16,19.333c-1.333-39.333-39.999-86-39.999-86s-1-19.667-2.667-23S275.334,88.667,272,85.667c-3-5.333-8.333-4.667-8.333-4.667s-7.333-6.333-9.667-7s-9.667-0.667-17,2.667C229,80.334,223,85,223,85s-8.667,5.333-11,8.333S208.25,123,208.25,123S191,145,191,154.333z"></path><g><path style="fill:none;stroke:#000000;stroke-linecap:round;stroke-linejoin:round;" d="M222.667,87.333c0,0,9,0,14.333,0.667s13.333,12.334,15,16.667"></path><path style="fill:none;stroke:#000000;stroke-linecap:round;stroke-linejoin:round;" d="M263.667,81c0,0,3.334,11.667,3,18.667"></path><path style="fill:none;stroke:#000000;stroke-linecap:round;stroke-linejoin:round;" d="M265,85c0,0,3.666,0.667,5.333,3.667C271,93,269,98,269,98"></path></g></g><g><path style="fill:#3D3C3D;stroke:#000000;stroke-linecap:round;stroke-linejoin:round;" d="M250,101c0,0-17.257-0.5-23.5,7c0.329,5,2.471,12,2.471,12h42.058c0,0,2.143-7,2.471-12C267.258,100.5,250,101,250,101z"></path><g><g><path style="fill:#3D3C3D;stroke:#000000;stroke-linecap:round;stroke-linejoin:round;" d="M175.25,179.5c0,0-18.5,20-22.5,26.5c-4-7.5-5.5-14-5.5-14s-5.333,0.167-11,1.5c8.167-17.667,27.167-29.167,41.5-30C177.75,173,175.25,179.5,175.25,179.5z"></path><g><g id="hair2XMLID_20_"><g><path style="fill:#3D3C3D;stroke:#000000;stroke-linecap:round;stroke-linejoin:round;" d="M226.46,106.59c0,0,3.03,3.44,5.79,12.91c-14,22-57.18,62.13-57.18,62.13s-5.53-3.44-8.29-5.41c-2.77-1.97-4.98-13.95-4.98-22.95c-11.05-5.88-21.55-21.27-21.55-28.27c2.76-2.53,12.71-3.13,21-4.72C189.43,107.48,226.46,106.59,226.46,106.59z"></path></g><path style="fill:#BA3C37;" d="M150.417,142.833c0,0,2.333,3.167,6.333,6.333c3-4,43.833-26.667,75-33.167c-1-1.167-2.167-3.167-2.167-3.167S175.75,122.667,150.417,142.833z"></path><g><path style="fill:none;stroke:#000000;stroke-linecap:round;stroke-linejoin:round;" d="M226.46,106.59c0,0-37.03,0.89-65.21,13.69c-8.29,1.59-18.24,2.19-21,4.72c0,7,10.5,22.39,21.55,28.27c0,9,2.21,20.98,4.98,22.95c2.76,1.97,8.29,5.41,8.29,5.41s43.18-40.13,57.18-62.13C229.49,110.03,226.46,106.59,226.46,106.59z"></path></g></g><path style="fill:none;stroke:#000000;stroke-linecap:round;stroke-linejoin:round;" d="M161.803,153.272c0,0,0.947-13.772-0.053-15.772s-4-2.5-4-2.5"></path></g></g><g><path style="fill:#3D3C3D;stroke:#000000;stroke-linecap:round;stroke-linejoin:round;" d="M324.75,179.5c0,0,18.5,20,22.5,26.5c4-7.5,5.5-14,5.5-14s5.333,0.167,11,1.5c-8.167-17.667-27.167-29.167-41.5-30C322.25,173,324.75,179.5,324.75,179.5z"></path><g><g id="hair2XMLID_22_"><g><path style="fill:#3D3C3D;stroke:#000000;stroke-linecap:round;stroke-linejoin:round;" d="M275.04,106.59c0,0-3.03,3.44-5.79,12.91c14,22,57.18,62.13,57.18,62.13s5.53-3.44,8.29-5.41c2.771-1.97,4.98-13.95,4.98-22.95c11.05-5.88,21.55-21.27,21.55-28.27c-2.76-2.53-12.71-3.13-21-4.72C312.07,107.48,275.04,106.59,275.04,106.59z"></path></g><path style="fill:#BA3C37;" d="M351.083,142.833c0,0-2.333,3.167-6.333,6.333c-3-4-43.834-26.667-75-33.167c1-1.167,2.166-3.167,2.166-3.167S325.75,122.667,351.083,142.833z"></path><g><path style="fill:none;stroke:#000000;stroke-linecap:round;stroke-linejoin:round;" d="M275.04,106.59c0,0,37.03,0.89,65.21,13.69c8.29,1.59,18.24,2.19,21,4.72c0,7-10.5,22.39-21.55,28.27c0,9-2.21,20.98-4.98,22.95c-2.76,1.97-8.29,5.41-8.29,5.41s-43.18-40.13-57.18-62.13C272.01,110.03,275.04,106.59,275.04,106.59z"></path></g></g><path style="fill:none;stroke:#000000;stroke-linecap:round;stroke-linejoin:round;" d="M339.697,153.272c0,0-0.947-13.772,0.053-15.772s4-2.5,4-2.5"></path></g></g></g></g></g></g></svg>