<svg xmlns="http://www.w3.org/2000/svg" width="500" height="500" version="1.1"><g id="x9103"><g><linearGradient id="hair2XMLID_926_" gradientUnits="userSpaceOnUse" x1="250.3325" y1="146.5" x2="250.3325" y2="269.5"><stop offset="0" style="stop-color:#FCFCE4"></stop><stop offset="0.5" style="stop-color:#A0C8DD"></stop><stop offset="1" style="stop-color:#5D6EC5"></stop></linearGradient><path style="fill:url(#hair2XMLID_926_);stroke:#1E1E1E;stroke-linecap:round;stroke-linejoin:round;" d="M332.39,206.833c-0.25-10.656-4.57-35.892-11.393-48.667c-5.991-11.221-15.878-39.921-70.664-40.354c-54.786,0.433-64.673,29.133-70.664,40.354c-6.823,12.775-11.143,38.011-11.393,48.667c-1.424,60.667-26.918,83.032-27.776,116.5c9.667,11.333,21.667,53.333,41.377,65.097c-5.117-23.952,3.956-49.431,3.956-49.431s17.5,21.666,10.167,51c-1.023,2.953-3,6.667-7.833,8.667c17.333,0,28.957-9.705,31.231-29.398c5.685,25.016,12.508,46.839,8.526,52.695c9.958-7.251,17.986-22.109,22.409-34.711c4.422,12.602,12.451,27.46,22.408,34.711c-3.98-5.856,2.842-27.68,8.527-52.695c1.785,15.462,15.181,29.113,26.731,32.398c-7-6.667-5-10-6-12.667c4,7.667,9.184,9.667,10.499,9.667C296.603,379.335,314.833,339,314.833,339s9.072,25.479,3.955,49.431c19.711-11.764,31.711-53.764,41.378-65.097C359.308,289.865,333.813,267.5,332.39,206.833z"></path><linearGradient id="hair2XMLID_927_" gradientUnits="userSpaceOnUse" x1="203.5" y1="146.5" x2="203.5" y2="269.4999"><stop offset="0" style="stop-color:#FCFCE4"></stop><stop offset="0.5" style="stop-color:#A0C8DD"></stop><stop offset="1" style="stop-color:#5D6EC5"></stop></linearGradient><path style="fill:url(#hair2XMLID_927_);stroke:#1E1E1E;stroke-linecap:round;stroke-linejoin:round;" d="M206.667,391.334c0,0-5,7.333-13.667,9.333c10.333,0.333,18.667-5.999,21-15.333"></path><linearGradient id="hair2XMLID_928_" gradientUnits="userSpaceOnUse" x1="358.3887" y1="146.5" x2="358.3887" y2="269.4999"><stop offset="0" style="stop-color:#FCFCE4"></stop><stop offset="0.5" style="stop-color:#A0C8DD"></stop><stop offset="1" style="stop-color:#5D6EC5"></stop></linearGradient><path style="fill:url(#hair2XMLID_928_);stroke:#1E1E1E;stroke-linecap:round;stroke-linejoin:round;" d="M353.398,329.167c-2,14,1.834,24.166,10.501,31.499c-7.667-7.334-3.8-38.499-3.8-38.499s-0.367-3.667-0.701-8.167"></path><path style="fill:none;stroke:#000000;stroke-linecap:round;stroke-linejoin:round;" d="M334.667,254.334c0,0,6.999,10.334,8.666,20"></path><path style="fill:none;stroke:#000000;stroke-linecap:round;stroke-linejoin:round;" d="M168,255c0,0-6.667,9.666-9.667,29"></path><g><path style="fill:none;stroke:#000000;stroke-linecap:round;stroke-linejoin:round;" d="M190.456,303.667c0,0,1.667-9.335-9.666-37.334"></path><path style="fill:none;stroke:#000000;stroke-linecap:round;stroke-linejoin:round;" d="M309.543,303.667c0,0-1.667-9.335,9.667-37.334"></path></g><g><g><linearGradient id="hair2XMLID_929_" gradientUnits="userSpaceOnUse" x1="141.8101" y1="147.5" x2="141.8101" y2="270.4999"><stop offset="0" style="stop-color:#FCFCE4"></stop><stop offset="0.5" style="stop-color:#A0C8DD"></stop><stop offset="1" style="stop-color:#5D6EC5"></stop></linearGradient><path style="fill:url(#hair2XMLID_929_);stroke:#1E1E1E;stroke-linecap:round;stroke-linejoin:round;" d="M146.801,330.167c2,14-1.833,24.166-10.5,31.499c7.667-7.334,3.8-38.499,3.8-38.499s0.367-3.667,0.7-8.167"></path><linearGradient id="hair2XMLID_930_" gradientUnits="userSpaceOnUse" x1="191.0269" y1="146.5005" x2="191.0269" y2="269.5004"><stop offset="0" style="stop-color:#FCFCE4"></stop><stop offset="0.5" style="stop-color:#A0C8DD"></stop><stop offset="1" style="stop-color:#5D6EC5"></stop></linearGradient><path style="fill:url(#hair2XMLID_930_);stroke:#1E1E1E;stroke-linecap:round;stroke-linejoin:round;" d="M191.301,314.334c0,1-6,42,13.667,64.666c-11.491-1.962-22.04-6.516-27.881-21.588"></path><linearGradient id="hair2XMLID_931_" gradientUnits="userSpaceOnUse" x1="175.6343" y1="146.5" x2="175.6343" y2="269.4999"><stop offset="0" style="stop-color:#FCFCE4"></stop><stop offset="0.5" style="stop-color:#A0C8DD"></stop><stop offset="1" style="stop-color:#5D6EC5"></stop></linearGradient><path style="fill:url(#hair2XMLID_931_);stroke:#1E1E1E;stroke-linecap:round;stroke-linejoin:round;" d="M161.967,359.334c3.667,20,17.667,30.666,27.333,31.666c-12.667-11-12-35.666-12-37.666"></path><path style="fill:none;stroke:#000000;stroke-linecap:round;stroke-linejoin:round;" d="M169,367.333c0,1,2,15.667,10,19.667"></path><linearGradient id="hair2XMLID_932_" gradientUnits="userSpaceOnUse" x1="159.1343" y1="146.5005" x2="159.1343" y2="269.5005"><stop offset="0" style="stop-color:#FCFCE4"></stop><stop offset="0.5" style="stop-color:#A0C8DD"></stop><stop offset="1" style="stop-color:#5D6EC5"></stop></linearGradient><path style="fill:url(#hair2XMLID_932_);stroke:#1E1E1E;stroke-linecap:round;stroke-linejoin:round;" d="M164.301,337.334c0.333,10-7.333,33.999-20.333,39.666c20.333-3,28.667-21.666,30.333-26.666c-2-21.334-30.667-24.667-19.667-73.334"></path><linearGradient id="hair2XMLID_933_" gradientUnits="userSpaceOnUse" x1="169.4839" y1="146.5" x2="169.4839" y2="269.5001"><stop offset="0" style="stop-color:#FCFCE4"></stop><stop offset="0.5" style="stop-color:#A0C8DD"></stop><stop offset="1" style="stop-color:#5D6EC5"></stop></linearGradient><path style="fill:url(#hair2XMLID_933_);stroke:#1E1E1E;stroke-linecap:round;stroke-linejoin:round;" d="M174.301,350.334c0,0,0.033,13.999-9.634,20.999c4.333-10.333,3-16.666,3-16.666"></path></g><g><linearGradient id="hair2XMLID_934_" gradientUnits="userSpaceOnUse" x1="308.9736" y1="146.5005" x2="308.9736" y2="269.5004"><stop offset="0" style="stop-color:#FCFCE4"></stop><stop offset="0.5" style="stop-color:#A0C8DD"></stop><stop offset="1" style="stop-color:#5D6EC5"></stop></linearGradient><path style="fill:url(#hair2XMLID_934_);stroke:#1E1E1E;stroke-linecap:round;stroke-linejoin:round;" d="M308.699,314.334c0,1,6.301,48-13.666,64.666c11.491-1.962,22.039-6.516,27.881-21.588"></path><path style="fill:none;stroke:#000000;stroke-linecap:round;stroke-linejoin:round;" d="M297,377c0,0,23.667-4,32-56.333"></path><g><linearGradient id="hair2XMLID_935_" gradientUnits="userSpaceOnUse" x1="325.0156" y1="146.5" x2="325.0156" y2="269.4999"><stop offset="0" style="stop-color:#FCFCE4"></stop><stop offset="0.5" style="stop-color:#A0C8DD"></stop><stop offset="1" style="stop-color:#5D6EC5"></stop></linearGradient><path style="fill:url(#hair2XMLID_935_);stroke:#1E1E1E;stroke-linecap:round;stroke-linejoin:round;" d="M339.333,359.334c-0.7,9.666-4,18.333-12.716,22.958c-5.167,5.292-11.084,8.208-15.918,8.708c12.667-11,12-35.666,12-37.666"></path><path style="fill:none;stroke:#000000;stroke-linecap:round;stroke-linejoin:round;" d="M326.617,382.292c0,0,9.716-11.625,9.383-18.625"></path></g><linearGradient id="hair2XMLID_936_" gradientUnits="userSpaceOnUse" x1="340.8662" y1="146.5005" x2="340.8662" y2="269.5005"><stop offset="0" style="stop-color:#FCFCE4"></stop><stop offset="0.5" style="stop-color:#A0C8DD"></stop><stop offset="1" style="stop-color:#5D6EC5"></stop></linearGradient><path style="fill:url(#hair2XMLID_936_);stroke:#1E1E1E;stroke-linecap:round;stroke-linejoin:round;" d="M335.699,337.334c-0.333,10,7.334,33.999,20.334,39.666c-20.334-3-28.667-21.666-30.334-26.666c2-21.334,30.667-24.667,19.667-73.334"></path></g></g></g></g></svg>