<svg xmlns="http://www.w3.org/2000/svg" width="500" height="500" version="1.1"><g id="x9999"><g><g><linearGradient id="hair2XMLID_954_" gradientUnits="userSpaceOnUse" x1="154.5776" y1="273.667" x2="154.5776" y2="302.3329"><stop offset="0" style="stop-color:#FCFCE4"></stop><stop offset="0.5" style="stop-color:#A0C8DD"></stop><stop offset="1" style="stop-color:#5D6EC5"></stop></linearGradient><path style="fill:url(#hair2XMLID_954_);stroke:#1E1E1E;stroke-linecap:round;stroke-linejoin:round;" d="M203.922,284.688c0,0-30.227,46.821-59.861,46.821c-29.634,0-44.452-27.856-44.452-27.856s20.152-10.668,25.486-30.819c15.41,18.967,30.227,23.707,43.859,14.225c13.632-9.482,32.005-62.232,34.376-67.566C216.961,236.087,203.922,284.688,203.922,284.688z"></path><linearGradient id="hair2XMLID_955_" gradientUnits="userSpaceOnUse" x1="345.4219" y1="273.667" x2="345.4219" y2="302.3329"><stop offset="0" style="stop-color:#FCFCE4"></stop><stop offset="0.5" style="stop-color:#A0C8DD"></stop><stop offset="1" style="stop-color:#5D6EC5"></stop></linearGradient><path style="fill:url(#hair2XMLID_955_);stroke:#1E1E1E;stroke-linecap:round;stroke-linejoin:round;" d="M296.077,284.688c0,0,30.229,46.821,59.861,46.821c29.635,0,44.451-27.856,44.451-27.856s-20.15-10.668-25.484-30.819c-15.41,18.967-30.228,23.707-43.859,14.225c-13.633-9.482-32.005-62.232-34.375-67.566C283.038,236.087,296.077,284.688,296.077,284.688z"></path></g><linearGradient id="hair2XMLID_956_" gradientUnits="userSpaceOnUse" x1="250.0005" y1="453" x2="250.0005" y2="375.0001"><stop offset="0" style="stop-color:#FCFCE4"></stop><stop offset="0.5" style="stop-color:#A0C8DD"></stop><stop offset="1" style="stop-color:#5D6EC5"></stop></linearGradient><path style="fill:url(#hair2XMLID_956_);stroke:#1E1E1E;stroke-linecap:round;stroke-linejoin:round;" d="M356.28,370.019c40.066-6.748,65.793-44.283,65.793-44.283s-54.13,4.188-80.132-22.774c-13.084-13.568-24.131-45.614-24.131-45.614c7.606,17.049,26.113,26.86,41.689,23.653c-36-3-38-53-38-53s-1.486-17.604,1-36c2.5-18.5-3-38-26-57.5s-46.5-13-46.5-13s-23.5-6.5-46.5,13s-28.5,39-26,57.5c2.486,18.396,1,36,1,36s-2,50-38,53c15.576,3.207,34.083-6.604,41.69-23.653c0,0-11.047,32.046-24.131,45.614c-26.002,26.963-80.132,22.774-80.132,22.774s25.726,37.535,65.792,44.283c19.823-6.747,64.95-43.862,79.289-88.566c-2.953,17.713-35.005,85.193-83.084,102.907c10.122,4.217,24.041,12.229,29.944,18.135c5.904,5.904,19.821,8.436,24.461,7.17c13.074-11.81,37.113-52.298,43.019-75.493c0,21.088-0.423,71.276-13.497,94.472c8.014,6.326,11.81,8.013,26.149,8.013s18.135-1.687,26.148-8.013c-13.073-23.195-13.496-73.384-13.496-94.472c5.905,23.195,29.944,63.684,43.019,75.493c4.64,1.266,18.558-1.266,24.461-7.17c5.903-5.905,19.822-13.918,29.944-18.135c-48.079-17.714-80.132-85.194-83.085-102.907C291.33,326.156,336.458,363.271,356.28,370.019z"></path></g></g></svg>