<svg xmlns="http://www.w3.org/2000/svg" width="500" height="500" version="1.1"><g id="x035"><g><linearGradient id="hair2XMLID_608_" gradientUnits="userSpaceOnUse" x1="250.293" y1="382.667" x2="250.293" y2="284"><stop offset="0" style="stop-color:#FCFCE4"></stop><stop offset="0.5" style="stop-color:#A0C8DD"></stop><stop offset="1" style="stop-color:#5D6EC5"></stop></linearGradient><path style="fill:url(#hair2XMLID_608_);stroke:#1E1E1E;stroke-width:0.9809;stroke-linecap:round;stroke-linejoin:round;" d="M323.56,415.711c35.463-34.616,9.365-50.592,5.353-122.483c0,0,7.488-44.242,8.75-74.973c1.69-53.255-14.549-79.907-42.206-93.442c-15.978-7.82-62.649-8.477-81.689-1.456c-48.563,7.89-65.55,83.31-42.476,130.595c0,0,0.02,0.026,0.054,0.071c-0.276,11.582,1.813,25.183-0.341,39.204c-7.36,47.928-27.435,87.868,8.029,122.483c-5.368-30.442-6.425-61.734-2.833-83.232c-2.004,66.207,9.186,87.009,23.576,106.529c-4.06-8.366-7.24-25.739-9.541-42.901c6.08,17.784,14.524,33.029,24.325,47.084c-3.661-5.619-6.279-13.465-8.08-22.776c8.016-16.02,11.46-49.549,12.031-74.598c1.846,30.737-1.618,63.052,0.669,94.523c6.022-11.317,12.422-25.037,13.382-43.935c3.206,22.695,23.418,43.935,23.418,43.935l10.704-67.201c1.039,21.934,0.521,48.437-6.021,64.539c8.655-7.114,14.349-18.229,17.554-40.923c0.958,18.896,2.576,34.893,5.195,43.585c2.289-31.472-1.177-63.786,0.669-94.523c0.574,25.049,4.016,58.578,12.033,74.598c-1.801,9.312-4.419,17.157-8.082,22.776c9.801-14.055,18.246-29.3,24.326-47.084c-2.301,17.162-5.481,34.535-9.54,42.901c14.39-19.521,25.578-40.322,23.575-106.529C329.985,353.977,328.928,385.269,323.56,415.711z M205.035,407.381c-3.294-25.368-1.913-58.432,0.635-87.314C212.539,349.963,206.982,373.523,205.035,407.381z"></path><linearGradient id="hair2XMLID_609_" gradientUnits="userSpaceOnUse" x1="183.939" y1="382.667" x2="183.939" y2="284.0001"><stop offset="0" style="stop-color:#FCFCE4"></stop><stop offset="0.5" style="stop-color:#A0C8DD"></stop><stop offset="1" style="stop-color:#5D6EC5"></stop></linearGradient><path style="fill:url(#hair2XMLID_609_);stroke:#1E1E1E;stroke-linecap:round;stroke-linejoin:round;" d="M197.768,225.474c-1.338,2.075-20.742,133.524-2.676,184.03c-25.935-28.035-28.504-86.131-21.889-170.98"></path><linearGradient id="hair2XMLID_610_" gradientUnits="userSpaceOnUse" x1="161.1909" y1="382.667" x2="161.1909" y2="283.9999"><stop offset="0" style="stop-color:#FCFCE4"></stop><stop offset="0.5" style="stop-color:#A0C8DD"></stop><stop offset="1" style="stop-color:#5D6EC5"></stop></linearGradient><path style="fill:url(#hair2XMLID_610_);stroke:#1E1E1E;stroke-linecap:round;stroke-linejoin:round;" d="M168.772,184.887c-10.259,60.882-14.274,84.404-16.505,135.37c-3.057,69.858,10.708,64.341,10.708,64.341s-6.022-24.906-3.347-71.952c1.107-19.447,10.261-79.792,10.93-89.477"></path><linearGradient id="hair2XMLID_611_" gradientUnits="userSpaceOnUse" x1="316.6445" y1="382.667" x2="316.6445" y2="284.0001"><stop offset="0" style="stop-color:#FCFCE4"></stop><stop offset="0.5" style="stop-color:#A0C8DD"></stop><stop offset="1" style="stop-color:#5D6EC5"></stop></linearGradient><path style="fill:url(#hair2XMLID_611_);stroke:#1E1E1E;stroke-linecap:round;stroke-linejoin:round;" d="M302.816,225.474c1.339,2.075,20.742,133.524,2.677,184.03c25.933-28.035,28.503-86.131,21.886-170.98"></path><linearGradient id="hair2XMLID_612_" gradientUnits="userSpaceOnUse" x1="340.1289" y1="382.667" x2="340.1289" y2="284"><stop offset="0" style="stop-color:#FCFCE4"></stop><stop offset="0.5" style="stop-color:#A0C8DD"></stop><stop offset="1" style="stop-color:#5D6EC5"></stop></linearGradient><path style="fill:url(#hair2XMLID_612_);stroke:#1E1E1E;stroke-linecap:round;stroke-linejoin:round;" d="M333.597,182.58c8.256,66.824,11.313,66.212,14.049,137.677c2.679,69.876-10.704,64.341-10.704,64.341s6.021-24.906,3.345-71.952c-1.107-19.447-7.361-80.944-8.029-90.631"></path></g></g></svg>