<svg xmlns="http://www.w3.org/2000/svg" width="500" height="500" version="1.1"><g id="x041"><g><g><linearGradient id="hair2XMLID_644_" gradientUnits="userSpaceOnUse" x1="249.8481" y1="392" x2="249.8481" y2="317.6671"><stop offset="0" style="stop-color:#FCFCE4"></stop><stop offset="0.5" style="stop-color:#A0C8DD"></stop><stop offset="1" style="stop-color:#5D6EC5"></stop></linearGradient><path style="fill:url(#hair2XMLID_644_);stroke:#1E1E1E;stroke-linecap:round;stroke-linejoin:round;" d="M331.274,212.178c0-34.825-9.825-58.455-25.464-75.349c-26.222-28.325-55.122-16.963-55.961-16.898c-0.838-0.065-29.743-11.426-55.963,16.898c-15.639,16.894-25.466,40.524-25.466,75.349c0,24.674,33.824,82.097,33.824,82.097c0,2.074-21.935,53.964,0,71.259c21.934,17.296,9.4,38.742,1.879,44.97c25.23-0.423,40.899-13.458,46.724-30.16c5.823,16.702,21.492,29.737,46.723,30.16c-7.521-6.228-20.055-27.674,1.88-44.97c21.934-17.295,0-69.185,0-71.259C299.45,294.275,331.274,237.543,331.274,212.178z"></path><linearGradient id="hair2XMLID_645_" gradientUnits="userSpaceOnUse" x1="202.5386" y1="392" x2="202.5386" y2="317.6673"><stop offset="0" style="stop-color:#FCFCE4"></stop><stop offset="0.5" style="stop-color:#A0C8DD"></stop><stop offset="1" style="stop-color:#5D6EC5"></stop></linearGradient><path style="fill:url(#hair2XMLID_645_);stroke:#1E1E1E;stroke-linecap:round;stroke-linejoin:round;" d="M207.675,372.453c0,0-11.815,29.748,6.752,47.044c-5.627-5.534-32.635-17.987-20.818-62.266"></path><linearGradient id="hair2XMLID_646_" gradientUnits="userSpaceOnUse" x1="297.0664" y1="392" x2="297.0664" y2="317.6673"><stop offset="0" style="stop-color:#FCFCE4"></stop><stop offset="0.5" style="stop-color:#A0C8DD"></stop><stop offset="1" style="stop-color:#5D6EC5"></stop></linearGradient><path style="fill:url(#hair2XMLID_646_);stroke:#1E1E1E;stroke-linecap:round;stroke-linejoin:round;" d="M291.929,372.453c0,0,11.815,29.748-6.752,47.044c5.626-5.534,32.634-17.987,20.819-62.266"></path><g><linearGradient id="hair2XMLID_647_" gradientUnits="userSpaceOnUse" x1="164.188" y1="392" x2="164.188" y2="317.667"><stop offset="0" style="stop-color:#FCFCE4"></stop><stop offset="0.5" style="stop-color:#A0C8DD"></stop><stop offset="1" style="stop-color:#5D6EC5"></stop></linearGradient><path style="fill:url(#hair2XMLID_647_);stroke:#1E1E1E;stroke-linecap:round;stroke-linejoin:round;" d="M176.638,226.707c0,0,3.19,36.645-8.254,44.706c-11.445,8.059-23.499,18.401-24.265,29.932c-0.914,13.813,13.277,18.42,9.615,25.901c-3.663,7.483-13.734,10.938-14.649,16.693c-0.915,5.757,10.071,10.36,15.108,9.785c-4.122-2.879-9.614-6.332-5.952-12.088s20.144-8.634,19.685-21.872c-0.199-5.78-16.608-11.932-16.48-16.117c0.457-14.968,30.215-17.269,34.792-30.508c4.578-13.238,2.746-44.322,2.746-44.322"></path><linearGradient id="hair2XMLID_648_" gradientUnits="userSpaceOnUse" x1="196.7676" y1="392" x2="196.7676" y2="317.667"><stop offset="0" style="stop-color:#FCFCE4"></stop><stop offset="0.5" style="stop-color:#A0C8DD"></stop><stop offset="1" style="stop-color:#5D6EC5"></stop></linearGradient><path style="fill:url(#hair2XMLID_648_);stroke:#1E1E1E;stroke-linecap:round;stroke-linejoin:round;" d="M232.019,326.79c-8.699,26.29-32.047,35.976-42.577,49.122c-10.529,13.145-0.915,31.823,12.362,50.503c-15.566-0.691-32.962-20.062-35.709-32.516c-2.747-12.453,8.699-25.6,8.699-39.435c0-13.837-13.277-13.829-13.277-41.511c0-19.371,8.698-25.599,21.976-38.744c10.59-10.486,13.275-18.679,16.479-44.969"></path><linearGradient id="hair2XMLID_649_" gradientUnits="userSpaceOnUse" x1="169.187" y1="392" x2="169.187" y2="317.667"><stop offset="0" style="stop-color:#FCFCE4"></stop><stop offset="0.5" style="stop-color:#A0C8DD"></stop><stop offset="1" style="stop-color:#5D6EC5"></stop></linearGradient><path style="fill:url(#hair2XMLID_649_);stroke:#1E1E1E;stroke-linecap:round;stroke-linejoin:round;" d="M173.226,309.495c0,0,5.9,11.762,2.212,20.755c-3.686,8.993-25.247,9.31-28.386,26.981c-4.793,26.981,16.221,25.599,20.645,33.208c4.424,7.611-13.641,13.837-14.377,24.214c-0.737,10.378,10.322,15.913,14.377,15.913c-3.687-4.151-11.06-5.535-6.267-17.297c2.868-7.037,15.115-7.609,16.958-24.213c-2.212-6.227-14.747-5.535-13.641-24.905c0.479-8.37,26.913-24.215,27.282-39.436"></path></g><g><linearGradient id="hair2XMLID_650_" gradientUnits="userSpaceOnUse" x1="335.6357" y1="392" x2="335.6357" y2="317.667"><stop offset="0" style="stop-color:#FCFCE4"></stop><stop offset="0.5" style="stop-color:#A0C8DD"></stop><stop offset="1" style="stop-color:#5D6EC5"></stop></linearGradient><path style="fill:url(#hair2XMLID_650_);stroke:#1E1E1E;stroke-linecap:round;stroke-linejoin:round;" d="M323.187,226.707c0,0-3.189,36.645,8.255,44.706c11.445,8.059,23.496,18.401,24.261,29.932c0.918,13.813-13.273,18.42-9.612,25.901c3.662,7.483,13.734,10.938,14.65,16.693c0.916,5.757-10.074,10.36-15.107,9.785c4.119-2.879,9.612-6.332,5.95-12.088s-20.142-8.634-19.685-21.872c0.2-5.78,16.609-11.932,16.479-16.117c-0.457-14.968-30.215-17.269-34.791-30.508c-4.579-13.238-2.748-44.322-2.748-44.322"></path><linearGradient id="hair2XMLID_651_" gradientUnits="userSpaceOnUse" x1="303.0566" y1="392" x2="303.0566" y2="317.667"><stop offset="0" style="stop-color:#FCFCE4"></stop><stop offset="0.5" style="stop-color:#A0C8DD"></stop><stop offset="1" style="stop-color:#5D6EC5"></stop></linearGradient><path style="fill:url(#hair2XMLID_651_);stroke:#1E1E1E;stroke-linecap:round;stroke-linejoin:round;" d="M267.806,326.79c8.699,26.29,32.046,35.976,42.576,49.122c10.528,13.145,0.917,31.823-12.362,50.503c15.567-0.691,32.965-20.062,35.71-32.516c2.747-12.453-8.699-25.6-8.699-39.435c0-13.837,13.277-13.829,13.277-41.511c0-19.371-8.699-25.599-21.976-38.744c-10.59-10.486-13.273-18.679-16.48-44.969"></path><linearGradient id="hair2XMLID_652_" gradientUnits="userSpaceOnUse" x1="330.6387" y1="392" x2="330.6387" y2="317.667"><stop offset="0" style="stop-color:#FCFCE4"></stop><stop offset="0.5" style="stop-color:#A0C8DD"></stop><stop offset="1" style="stop-color:#5D6EC5"></stop></linearGradient><path style="fill:url(#hair2XMLID_652_);stroke:#1E1E1E;stroke-linecap:round;stroke-linejoin:round;" d="M326.598,309.495c0,0-5.897,11.762-2.212,20.755s25.247,9.31,28.388,26.981c4.792,26.981-16.223,25.599-20.647,33.208c-4.422,7.611,13.641,13.837,14.38,24.214c0.737,10.378-10.322,15.913-14.38,15.913c3.688-4.151,11.063-5.535,6.27-17.297c-2.868-7.037-15.117-7.609-16.958-24.213c2.211-6.227,14.746-5.535,13.64-24.905c-0.477-8.37-26.911-24.215-27.279-39.436"></path></g></g></g></g></svg>