<svg xmlns="http://www.w3.org/2000/svg" width="500" height="500" version="1.1"><g id="x042"><g><g><linearGradient id="hair2XMLID_653_" gradientUnits="userSpaceOnUse" x1="251.7705" y1="413.667" x2="251.7705" y2="300.6671"><stop offset="0" style="stop-color:#FCFCE4"></stop><stop offset="0.5" style="stop-color:#A0C8DD"></stop><stop offset="1" style="stop-color:#5D6EC5"></stop></linearGradient><ellipse style="fill:url(#hair2XMLID_653_);stroke:#1E1E1E;stroke-linecap:round;stroke-linejoin:round;" cx="251.771" cy="121.007" rx="43.463" ry="38.743"></ellipse><linearGradient id="hair2XMLID_654_" gradientUnits="userSpaceOnUse" x1="251.7129" y1="413.667" x2="251.7129" y2="300.6671"><stop offset="0" style="stop-color:#FCFCE4"></stop><stop offset="0.5" style="stop-color:#A0C8DD"></stop><stop offset="1" style="stop-color:#5D6EC5"></stop></linearGradient><path style="fill:url(#hair2XMLID_654_);stroke:#1E1E1E;stroke-linecap:round;stroke-linejoin:round;" d="M198.355,248.305c0,0-8.495,31.689-17.253,56.039c-13.935,38.743-11.945,98.241,37.822,124.53c-11.281-24.214-13.934-44.968-13.271-62.956c5.309,16.604,3.981,52.579,37.823,67.109c-17.916-20.064-17.252-33.901-17.252-33.901s24.551,23.522,25.216,38.743c14.595-20.754,25.875-28.365,25.875-42.896c1.328,15.221-6.635,34.593-9.952,40.127c18.579-12.452,27.87-20.063,28.532-49.12c-1.99,26.289-11.944,47.047-11.944,47.047s63.221-46.134,41.142-121.764c-13.936-47.738-19.244-73.335-19.244-73.335"></path><linearGradient id="hair2XMLID_655_" gradientUnits="userSpaceOnUse" x1="175.5938" y1="413.667" x2="175.5938" y2="300.6671"><stop offset="0" style="stop-color:#FCFCE4"></stop><stop offset="0.5" style="stop-color:#A0C8DD"></stop><stop offset="1" style="stop-color:#5D6EC5"></stop></linearGradient><path style="fill:url(#hair2XMLID_655_);stroke:#1E1E1E;stroke-linecap:round;stroke-linejoin:round;" d="M185.747,212.33c0,0,5.381,28.336-9.29,62.958c-12.608,29.749-39.814,82.328-3.318,127.989c-13.935-34.591-13.935-60.189,2.654-95.473c16.59-35.284,20.571-69.185,20.571-69.185"></path><linearGradient id="hair2XMLID_656_" gradientUnits="userSpaceOnUse" x1="324.2295" y1="413.667" x2="324.2295" y2="300.6671"><stop offset="0" style="stop-color:#FCFCE4"></stop><stop offset="0.5" style="stop-color:#A0C8DD"></stop><stop offset="1" style="stop-color:#5D6EC5"></stop></linearGradient><path style="fill:url(#hair2XMLID_656_);stroke:#1E1E1E;stroke-linecap:round;stroke-linejoin:round;" d="M314.078,208.871c0,0-5.384,28.336,9.289,62.958c12.608,29.749,39.815,82.327,3.316,127.988c13.937-34.592,13.937-60.189-2.652-95.474c-16.588-35.283-20.572-69.183-20.572-69.183"></path></g><linearGradient id="hair2XMLID_657_" gradientUnits="userSpaceOnUse" x1="250.7749" y1="413.667" x2="250.7749" y2="300.667"><stop offset="0" style="stop-color:#FCFCE4"></stop><stop offset="0.5" style="stop-color:#A0C8DD"></stop><stop offset="1" style="stop-color:#5D6EC5"></stop></linearGradient><path style="fill:url(#hair2XMLID_657_);stroke:#1E1E1E;stroke-linecap:round;stroke-linejoin:round;" d="M250.776,118.531c-49.824-4.436-94.266,35.347-74.902,96.903c17.047,54.197,62.9,56.311,74.902,55.902c12.002,0.408,57.853-1.705,74.901-55.902C345.039,153.878,300.598,114.096,250.776,118.531z"></path></g></g></svg>