<svg xmlns="http://www.w3.org/2000/svg" width="500" height="500" version="1.1"><g id="x044"><g><linearGradient id="hair2XMLID_659_" gradientUnits="userSpaceOnUse" x1="249.9126" y1="399" x2="249.9126" y2="295.3338"><stop offset="0" style="stop-color:#FCFCE4"></stop><stop offset="0.5" style="stop-color:#A0C8DD"></stop><stop offset="1" style="stop-color:#5D6EC5"></stop></linearGradient><path style="fill:url(#hair2XMLID_659_);stroke:#1E1E1E;stroke-linecap:round;stroke-linejoin:round;" d="M326.995,271.994c-1.94-12.136,3.777-62.333,2.768-69.208c0-30.65-12.322-50.813-23.912-63.333c-26.219-28.324-85.701-28.324-111.922,0c-11.502,12.426-22.141,31.3-23.604,59.896c-0.805,15.738,4.446,60.508,2.507,72.644c-3.76,23.523-23.188,49.812-36.975,48.43c10.663,8.053,31.874,4.453,44.743-22.217l14.53,74.739c2.988,38.478,15.226,57.402,37.237,70.624c0.618-31.61,17.855-67.059,17.855-67.059s16.62,35.479,17.237,67.059c21.195-12.732,33.326-30.749,36.865-66.42l0.11,0.004c0,0,18.346-65.974,18.629-72.021c12.929,20.318,31.247,22.584,40.904,15.29C350.183,321.806,330.755,295.518,326.995,271.994z"></path><g><linearGradient id="hair2XMLID_660_" gradientUnits="userSpaceOnUse" x1="189.394" y1="399" x2="189.394" y2="295.334"><stop offset="0" style="stop-color:#FCFCE4"></stop><stop offset="0.5" style="stop-color:#A0C8DD"></stop><stop offset="1" style="stop-color:#5D6EC5"></stop></linearGradient><path style="fill:url(#hair2XMLID_660_);stroke:#1E1E1E;stroke-linecap:round;stroke-linejoin:round;" d="M181.604,324.084c0,0-28.201,62.957,1.881,106.543c1.879-41.511,13.786-79.561,25.693-98.934"></path><linearGradient id="hair2XMLID_661_" gradientUnits="userSpaceOnUse" x1="310.4297" y1="399" x2="310.4297" y2="295.334"><stop offset="0" style="stop-color:#FCFCE4"></stop><stop offset="0.5" style="stop-color:#A0C8DD"></stop><stop offset="1" style="stop-color:#5D6EC5"></stop></linearGradient><path style="fill:url(#hair2XMLID_661_);stroke:#1E1E1E;stroke-linecap:round;stroke-linejoin:round;" d="M318.221,324.084c0,0,28.2,62.957-1.881,106.543c-1.882-41.511-13.787-79.561-25.694-98.934"></path></g><g><linearGradient id="hair2XMLID_662_" gradientUnits="userSpaceOnUse" x1="163.9722" y1="399" x2="163.9722" y2="295.334"><stop offset="0" style="stop-color:#FCFCE4"></stop><stop offset="0.5" style="stop-color:#A0C8DD"></stop><stop offset="1" style="stop-color:#5D6EC5"></stop></linearGradient><path style="fill:url(#hair2XMLID_662_);stroke:#1E1E1E;stroke-linecap:round;stroke-linejoin:round;" d="M179.952,267.844c0,0-7.52,90.63-38.854,108.617c25.695-2.767,37.601-21.446,45.748-47.736"></path><linearGradient id="hair2XMLID_663_" gradientUnits="userSpaceOnUse" x1="335.8525" y1="399" x2="335.8525" y2="295.334"><stop offset="0" style="stop-color:#FCFCE4"></stop><stop offset="0.5" style="stop-color:#A0C8DD"></stop><stop offset="1" style="stop-color:#5D6EC5"></stop></linearGradient><path style="fill:url(#hair2XMLID_663_);stroke:#1E1E1E;stroke-linecap:round;stroke-linejoin:round;" d="M319.873,267.844c0,0,7.52,90.63,38.854,108.617c-25.695-2.767-37.602-21.446-45.748-47.736"></path></g><g><linearGradient id="hair2XMLID_664_" gradientUnits="userSpaceOnUse" x1="167.1909" y1="399" x2="167.1909" y2="295.3341"><stop offset="0" style="stop-color:#FCFCE4"></stop><stop offset="0.5" style="stop-color:#A0C8DD"></stop><stop offset="1" style="stop-color:#5D6EC5"></stop></linearGradient><path style="fill:url(#hair2XMLID_664_);stroke:#1E1E1E;stroke-linecap:round;stroke-linejoin:round;" d="M175.338,216.646c0,0-1.881,24.215-20.68,22.831c9.4,4.843,16.92,7.611,25.067-4.842"></path><linearGradient id="hair2XMLID_665_" gradientUnits="userSpaceOnUse" x1="332.6338" y1="399" x2="332.6338" y2="295.3341"><stop offset="0" style="stop-color:#FCFCE4"></stop><stop offset="0.5" style="stop-color:#A0C8DD"></stop><stop offset="1" style="stop-color:#5D6EC5"></stop></linearGradient><path style="fill:url(#hair2XMLID_665_);stroke:#1E1E1E;stroke-linecap:round;stroke-linejoin:round;" d="M324.486,216.646c0,0,1.88,24.215,20.681,22.831c-9.4,4.843-16.921,7.611-25.066-4.842"></path></g></g></g></svg>