<svg xmlns="http://www.w3.org/2000/svg" width="500" height="500" version="1.1"><g id="x048"><g><linearGradient id="hair2XMLID_679_" gradientUnits="userSpaceOnUse" x1="124.2192" y1="432" x2="124.2192" y2="317.0001"><stop offset="0" style="stop-color:#FCFCE4"></stop><stop offset="0.5" style="stop-color:#A0C8DD"></stop><stop offset="1" style="stop-color:#5D6EC5"></stop></linearGradient><path style="fill:url(#hair2XMLID_679_);stroke:#1E1E1E;stroke-linecap:round;stroke-linejoin:round;" d="M124.925,457.692c0,0-26.833-2.767-34.601-15.911c9.886,0.691,19.772,0,19.772,0s2.825,2.766,9.18,4.151c0-2.768-3.532-6.92-3.532-6.92s8.475,0.693,19.773-3.459c2.119,3.459,3.529,6.228,3.529,6.228l0.708-7.61l18.359-2.768C158.114,431.403,148.228,457.692,124.925,457.692z"></path><linearGradient id="hair2XMLID_680_" gradientUnits="userSpaceOnUse" x1="375.6055" y1="432" x2="375.6055" y2="317.0001"><stop offset="0" style="stop-color:#FCFCE4"></stop><stop offset="0.5" style="stop-color:#A0C8DD"></stop><stop offset="1" style="stop-color:#5D6EC5"></stop></linearGradient><path style="fill:url(#hair2XMLID_680_);stroke:#1E1E1E;stroke-linecap:round;stroke-linejoin:round;" d="M374.898,457.692c0,0,26.834-2.767,34.602-15.911c-9.887,0.691-19.771,0-19.771,0s-2.826,2.766-9.18,4.151c0-2.768,3.531-6.92,3.531-6.92s-8.475,0.693-19.773-3.459c-2.118,3.459-3.53,6.228-3.53,6.228l-0.706-7.61l-18.36-2.768C341.71,431.403,351.596,457.692,374.898,457.692z"></path><linearGradient id="hair2XMLID_681_" gradientUnits="userSpaceOnUse" x1="249.9116" y1="432" x2="249.9116" y2="317.0001"><stop offset="0" style="stop-color:#FCFCE4"></stop><stop offset="0.5" style="stop-color:#A0C8DD"></stop><stop offset="1" style="stop-color:#5D6EC5"></stop></linearGradient><path style="fill:url(#hair2XMLID_681_);stroke:#1E1E1E;stroke-linecap:round;stroke-linejoin:round;" d="M353.009,444.165c-33.19-92.014-18.975-265.846-18.975-265.846c-4.827-39.761-42.729-63.251-84.121-59.788c-41.394-3.463-79.296,20.027-84.124,59.788c0,0,14.215,173.832-18.973,265.846c-16.948,11.761-21.892,15.22-21.892,15.22s60.023-23.695,124.988-23.695c64.963,0,124.985,23.695,124.985,23.695S369.956,455.926,353.009,444.165z"></path><path style="fill:none;stroke:#1E1E1E;stroke-linecap:round;stroke-linejoin:round;" d="M198.784,279.848c0,4.151,8.474,121.825-16.946,156.069"></path><path style="fill:none;stroke:#1E1E1E;stroke-linecap:round;stroke-linejoin:round;" d="M296.224,342.107c-3.176,7.266-6.355,63.715,3.18,83.433"></path></g></g></svg>