<svg xmlns="http://www.w3.org/2000/svg" width="500" height="500" version="1.1"><g id="x051"><g><linearGradient id="hair2XMLID_687_" gradientUnits="userSpaceOnUse" x1="249.9126" y1="384.5" x2="249.9126" y2="280.4999"><stop offset="0" style="stop-color:#FCFCE4"></stop><stop offset="0.5" style="stop-color:#A0C8DD"></stop><stop offset="1" style="stop-color:#5D6EC5"></stop></linearGradient><path style="fill:url(#hair2XMLID_687_);stroke:#1E1E1E;stroke-linecap:round;stroke-linejoin:round;" d="M382.142,344.931c0,0,14.982-15.328,7.521-29.057c-8.773-16.143-35.094-19.832-40.106-24.445c-7.104-6.918-25.068-33.208-20.056-62.265c5.015-29.058-9.634-69.896-9.634-69.896c-11.276-28.002-39.551-43.603-69.953-40.737c-30.405-2.866-58.681,12.735-69.955,40.737c0,0-14.648,40.838-9.634,69.896c5.013,29.057-12.952,55.347-20.054,62.265c-5.013,4.613-31.334,8.303-40.108,24.445c-7.462,13.729,7.52,29.057,7.52,29.057s-20.054,10.61-15.459,21.678c4.597,11.069,17.548,13.838,25.486,10.61c-8.355,0.46-7.52-9.688-7.52-9.688c6.267,3.69,16.731,29.552,46.792,24.445c21.725-3.69,28.41-22.602,28.41-22.602s-1.253,25.368,29.245,23.523c25.246-1.527,25.277-24.537,25.277-24.537s0.031,23.01,25.274,24.537c30.5,1.845,29.246-23.523,29.246-23.523s6.686,18.911,28.41,22.602c30.062,5.106,40.524-20.755,46.793-24.445c0,0,0.835,10.147-7.521,9.688c7.938,3.228,20.89,0.459,25.485-10.61C402.197,355.541,382.142,344.931,382.142,344.931z"></path><path style="fill:none;stroke:#1E1E1E;stroke-linecap:round;stroke-linejoin:round;" d="M161.132,276.669c0,0-13.786,23.984-24.231,30.442"></path><path style="fill:none;stroke:#1E1E1E;stroke-linecap:round;stroke-linejoin:round;" d="M187.871,272.52c0,0-17.547,35.976-48.464,41.049"></path><linearGradient id="hair2XMLID_688_" gradientUnits="userSpaceOnUse" x1="158.9487" y1="384.5" x2="158.9487" y2="280.5003"><stop offset="0" style="stop-color:#FCFCE4"></stop><stop offset="0.5" style="stop-color:#A0C8DD"></stop><stop offset="1" style="stop-color:#5D6EC5"></stop></linearGradient><path style="fill:url(#hair2XMLID_688_);stroke:#1E1E1E;stroke-linecap:round;stroke-linejoin:round;" d="M141.079,385.058c0,0-12.117-9.684-4.178-29.98c7.938-20.293,35.93-26.75,46.793-41.97"></path><linearGradient id="hair2XMLID_689_" gradientUnits="userSpaceOnUse" x1="157.1089" y1="384.5" x2="157.1089" y2="280.5001"><stop offset="0" style="stop-color:#FCFCE4"></stop><stop offset="0.5" style="stop-color:#A0C8DD"></stop><stop offset="1" style="stop-color:#5D6EC5"></stop></linearGradient><path style="fill:url(#hair2XMLID_689_);stroke:#1E1E1E;stroke-linecap:round;stroke-linejoin:round;" d="M151.105,363.379c0,0-10.444,29.058,14.206,33.209c-10.028-8.302-6.267-22.139-6.267-22.139"></path><path style="fill:none;stroke:#1E1E1E;stroke-linecap:round;stroke-linejoin:round;" d="M338.844,276.669c0,0,13.786,23.984,24.231,30.442"></path><path style="fill:none;stroke:#1E1E1E;stroke-linecap:round;stroke-linejoin:round;" d="M312.104,272.52c0,0,17.546,35.976,48.463,41.049"></path><linearGradient id="hair2XMLID_690_" gradientUnits="userSpaceOnUse" x1="341.0273" y1="384.5" x2="341.0273" y2="280.5003"><stop offset="0" style="stop-color:#FCFCE4"></stop><stop offset="0.5" style="stop-color:#A0C8DD"></stop><stop offset="1" style="stop-color:#5D6EC5"></stop></linearGradient><path style="fill:url(#hair2XMLID_690_);stroke:#1E1E1E;stroke-linecap:round;stroke-linejoin:round;" d="M358.896,385.058c0,0,12.115-9.684,4.179-29.98c-7.938-20.293-35.932-26.75-46.792-41.97"></path><linearGradient id="hair2XMLID_691_" gradientUnits="userSpaceOnUse" x1="342.8652" y1="384.5" x2="342.8652" y2="280.5001"><stop offset="0" style="stop-color:#FCFCE4"></stop><stop offset="0.5" style="stop-color:#A0C8DD"></stop><stop offset="1" style="stop-color:#5D6EC5"></stop></linearGradient><path style="fill:url(#hair2XMLID_691_);stroke:#1E1E1E;stroke-linecap:round;stroke-linejoin:round;" d="M348.87,363.379c0,0,10.444,29.058-14.206,33.209c10.026-8.302,6.269-22.139,6.269-22.139"></path></g></g></svg>