<svg xmlns="http://www.w3.org/2000/svg" width="500" height="500" version="1.1"><g id="x052"><g><linearGradient id="hair2XMLID_692_" gradientUnits="userSpaceOnUse" x1="153.2036" y1="397.8281" x2="153.2036" y2="316.7217"><stop offset="0" style="stop-color:#FCFCE4"></stop><stop offset="0.5" style="stop-color:#A0C8DD"></stop><stop offset="1" style="stop-color:#5D6EC5"></stop></linearGradient><path style="fill:url(#hair2XMLID_692_);stroke:#1E1E1E;stroke-width:0.9192;stroke-linecap:round;stroke-linejoin:round;" d="M160.244,251.546c0,0-51.699,44.713-27.258,111.344c20.679-35.068,38.539-83.29,38.539-83.29l8.459-38.575"></path><path style="fill:#1E1E1E;" d="M132.792,292.5c0,0,7.911-18.668,14.271-25.834s27.846-18.875,27.846-18.875S158.078,275.334,132.792,292.5z"></path><linearGradient id="hair2XMLID_693_" gradientUnits="userSpaceOnUse" x1="241.5513" y1="401.0869" x2="241.5513" y2="316.5639"><stop offset="0" style="stop-color:#FCFCE4"></stop><stop offset="0.5" style="stop-color:#A0C8DD"></stop><stop offset="1" style="stop-color:#5D6EC5"></stop></linearGradient><path style="fill:url(#hair2XMLID_693_);stroke:#1E1E1E;stroke-linecap:round;stroke-linejoin:round;" d="M293.184,258.423c11.249-8.2,21.91-21.498,28.294-42.988c18.286-61.556-23.687-101.339-70.739-96.903c-47.054-4.436-89.026,35.347-70.739,96.903c5.226,17.593,13.32,29.693,22.255,38.005l-20.242,27.994c-31.156,89.51-103.547,93.533-103.547,93.533s4.583,13.072,7.33,24.135c13.987,1.289,31.398-9.104,31.398-9.104s-6.109,9.388-24.065,21.175c73.695,0.399,107.535-82.617,107.535-82.617s1.523-3.115,3.982-8.317c-0.183,41.485,1.658,101.688,1.658,101.688s27.26,0,38.539,0c-4.757-30.959,0-70.543,0-70.543l5.896,72.531c0,0,14.78,4.236,28.881,0.086c-6.594-13.276-9.187-60.372-9.955-96.51c13.757,46.531,40.543,92.899,92.673,92.383c-34.777-24.905-43.237-49.811-43.237-49.811s31.958,50.847,77.077,41.509c0.94-32.17,8.46-29.057,8.46-29.057S309.705,316.403,293.184,258.423z"></path><polygon style="fill:#1E1E1E;" points="165.523,317 174.831,299.666 178.709,365 167.075,378.166 "></polygon><polygon style="fill:#1E1E1E;" points="337.559,324.333 327.165,313.666 320.961,373.833 334.767,388.833 "></polygon><g><path style="fill:none;stroke:#1E1E1E;stroke-width:0.9192;stroke-linecap:round;stroke-linejoin:round;" d="M173.404,223.49c0,0-34.78,8.768-51.699,26.303c-16.92,17.533-21.62,42.082-21.62,42.082"></path><linearGradient id="hair2XMLID_694_" gradientUnits="userSpaceOnUse" x1="141.8921" y1="397.8301" x2="141.8921" y2="316.7228"><stop offset="0" style="stop-color:#FCFCE4"></stop><stop offset="0.5" style="stop-color:#A0C8DD"></stop><stop offset="1" style="stop-color:#5D6EC5"></stop></linearGradient><path style="fill:url(#hair2XMLID_694_);stroke:#1E1E1E;stroke-width:0.9192;stroke-linecap:round;stroke-linejoin:round;" d="M181.864,205.957c0,0-9.4,25.425-51.7,48.218c-20.75,11.183-49.257,42.323-47.939,72.769c1.983-9.382,7.281-19.039,14.32-27.856c-0.73,1.373-1.119,2.236-1.16,2.431c-0.314,1.462-1.317,22.453,4.949,30.347c1.88-32.15,55.131-71.835,55.131-71.835c19.81-10.017,41.067-25.456,46.137-38.292"></path><linearGradient id="hair2XMLID_695_" gradientUnits="userSpaceOnUse" x1="154.377" y1="397.8291" x2="154.377" y2="316.722"><stop offset="0" style="stop-color:#FCFCE4"></stop><stop offset="0.5" style="stop-color:#A0C8DD"></stop><stop offset="1" style="stop-color:#5D6EC5"></stop></linearGradient><path style="fill:url(#hair2XMLID_695_);stroke:#1E1E1E;stroke-width:0.9192;stroke-linecap:round;stroke-linejoin:round;" d="M194.795,170.888c0,0-19.244,77.322-31.157,90.917c-11.912,13.596-72.826,61.179-66.652,106.212c13.504-8.497,19.918-14.444,19.918-14.444s2.435-25.358,31.543-56.798c-9.278,15.419-34.651,62.199-27.877,102.681C132.482,415.601,144.396,419,144.396,419s-11.975-25.536,3.05-80.493c-7.083,57.506,10.695,76.243,10.695,76.243s0,0,18.327-2.549c-20.16-24.64-4.042-137.356-3.665-137.65c3.171-3.86,2.746-4.468,5.498-10.196c-13.5,89.738,6.415,126.604,6.415,126.604s8.248,6.796,23.825,12.745c-41.235-66.275,3.666-172.488,3.666-172.488"></path><path style="fill:none;stroke:#1E1E1E;stroke-width:0.9192;stroke-linecap:round;stroke-linejoin:round;" d="M159.057,266.903c6.414-7.646,18.326-21.243,31.156-48.432"></path><path style="fill:none;stroke:#1E1E1E;stroke-width:0.9192;stroke-linecap:round;stroke-linejoin:round;" d="M141.646,304.856c0,0,6.802-9.215,20.16-20.393"></path></g><g><path style="fill:none;stroke:#1E1E1E;stroke-width:0.9192;stroke-linecap:round;stroke-linejoin:round;" d="M327.777,223.49c0,0,34.779,8.768,51.697,26.303c16.921,17.533,21.62,42.082,21.62,42.082"></path><linearGradient id="hair2XMLID_696_" gradientUnits="userSpaceOnUse" x1="359.2891" y1="397.8301" x2="359.2891" y2="316.7228"><stop offset="0" style="stop-color:#FCFCE4"></stop><stop offset="0.5" style="stop-color:#A0C8DD"></stop><stop offset="1" style="stop-color:#5D6EC5"></stop></linearGradient><path style="fill:url(#hair2XMLID_696_);stroke:#1E1E1E;stroke-width:0.9192;stroke-linecap:round;stroke-linejoin:round;" d="M319.316,205.957c0,0,9.4,25.425,51.7,48.218c20.749,11.183,49.257,42.323,47.939,72.769c-1.985-9.382-7.282-19.039-14.32-27.856c0.73,1.373,1.118,2.236,1.159,2.431c0.314,1.462,1.319,22.453-4.949,30.347c-1.879-32.15-55.147-71.606-55.147-71.606l0.016-0.229c-19.81-10.017-41.066-25.456-46.137-38.292"></path><linearGradient id="hair2XMLID_697_" gradientUnits="userSpaceOnUse" x1="346.8037" y1="397.8291" x2="346.8037" y2="316.722"><stop offset="0" style="stop-color:#FCFCE4"></stop><stop offset="0.5" style="stop-color:#A0C8DD"></stop><stop offset="1" style="stop-color:#5D6EC5"></stop></linearGradient><path style="fill:url(#hair2XMLID_697_);stroke:#1E1E1E;stroke-width:0.9192;stroke-linecap:round;stroke-linejoin:round;" d="M306.386,170.888c0,0,19.243,77.322,31.157,90.917c11.91,13.596,72.824,61.179,66.651,106.212c-13.505-8.497-19.918-14.444-19.918-14.444s-2.435-25.358-31.544-56.798c9.279,15.419,34.653,62.199,27.878,102.681C368.698,415.601,356.786,419,356.786,419s11.974-25.536-3.051-80.493c7.082,57.506-10.696,76.243-10.696,76.243s0,0-18.327-2.549c20.161-24.64,4.043-137.356,3.667-137.65c-3.172-3.86-2.747-4.468-5.497-10.196c13.5,89.738-6.417,126.604-6.417,126.604s-8.247,6.796-23.824,12.745c41.235-66.275-3.666-172.488-3.666-172.488"></path><path style="fill:none;stroke:#1E1E1E;stroke-width:0.9192;stroke-linecap:round;stroke-linejoin:round;" d="M342.124,266.903c-6.415-7.646-18.328-21.243-31.155-48.432"></path><path style="fill:none;stroke:#1E1E1E;stroke-width:0.9192;stroke-linecap:round;stroke-linejoin:round;" d="M359.534,304.856c0,0-6.802-9.215-20.159-20.393"></path></g></g></g></svg>