<svg xmlns="http://www.w3.org/2000/svg" width="500" height="500" version="1.1"><g id="x053"><g><linearGradient id="hair2XMLID_698_" gradientUnits="userSpaceOnUse" x1="249.6021" y1="401.7734" x2="249.6021" y2="265.5564"><stop offset="0" style="stop-color:#FCFCE4"></stop><stop offset="0.5" style="stop-color:#A0C8DD"></stop><stop offset="1" style="stop-color:#5D6EC5"></stop></linearGradient><path style="fill:url(#hair2XMLID_698_);stroke:#1E1E1E;stroke-width:0.9572;stroke-linecap:round;stroke-linejoin:round;" d="M398.994,291.313c-8.148-15.213-63.579-28.438-65.803-82.407c-1.096-26.599-1.684-90.38-82.722-90.38c-0.29-0.025-0.579-0.035-0.868-0.057c-0.29,0.022-0.578,0.032-0.869,0.057c-81.038,0-81.626,63.782-82.722,90.38c-2.224,53.969-57.655,67.194-65.802,82.407c-8.148,15.214-9.4,54.516,38.228,60.854c0.626,19.65,26.321,75.435,57.028,63.39c5.407,4.825,16.79,19.941,54.137,20.109c37.346-0.168,48.73-15.284,54.136-20.109c30.708,12.045,56.401-43.739,57.029-63.39C408.395,345.829,407.142,306.527,398.994,291.313z"></path><g><g><path style="fill:none;stroke:#1E1E1E;stroke-width:0.9572;stroke-linecap:round;stroke-linejoin:round;" d="M217.126,255.816c0,0-20.706,41.837-23.839,76.067"></path><path style="fill:none;stroke:#1E1E1E;stroke-width:0.9572;stroke-linecap:round;stroke-linejoin:round;" d="M208.979,255.181c0,0-31.334,63.39-5.641,128.682"></path><linearGradient id="hair2XMLID_699_" gradientUnits="userSpaceOnUse" x1="183.1563" y1="401.7734" x2="183.1563" y2="265.5567"><stop offset="0" style="stop-color:#FCFCE4"></stop><stop offset="0.5" style="stop-color:#A0C8DD"></stop><stop offset="1" style="stop-color:#5D6EC5"></stop></linearGradient><path style="fill:url(#hair2XMLID_699_);stroke:#1E1E1E;stroke-width:0.9572;stroke-linecap:round;stroke-linejoin:round;" d="M172.631,352.802c-7.52,32.33,22.425,39.51,31.335,25.99c7.521-11.409-14.414-23.455-20.681-19.651c3.133-19.65,39.48-25.355,46.375,5.705c10.027,58.954-43.242,58.318-43.242,58.318s-42.616,5.706-50.135-41.835c0,0-5.013-19.018,8.773-43.107"></path><path style="fill:none;stroke:#1E1E1E;stroke-width:0.9572;stroke-linecap:round;stroke-linejoin:round;" d="M202.784,355.864c0,0,14.906,11.053-0.627,25.356"></path><linearGradient id="hair2XMLID_700_" gradientUnits="userSpaceOnUse" x1="170.4385" y1="401.7734" x2="170.4385" y2="265.5571"><stop offset="0" style="stop-color:#FCFCE4"></stop><stop offset="0.5" style="stop-color:#A0C8DD"></stop><stop offset="1" style="stop-color:#5D6EC5"></stop></linearGradient><path style="fill:url(#hair2XMLID_700_);stroke:#1E1E1E;stroke-width:0.9572;stroke-linecap:round;stroke-linejoin:round;" d="M184.539,247.575c-3.76,3.803-26.321,34.864-28.2,92.549"></path><linearGradient id="hair2XMLID_701_" gradientUnits="userSpaceOnUse" x1="151.8506" y1="401.7734" x2="151.8506" y2="265.5571"><stop offset="0" style="stop-color:#FCFCE4"></stop><stop offset="0.5" style="stop-color:#A0C8DD"></stop><stop offset="1" style="stop-color:#5D6EC5"></stop></linearGradient><path style="fill:url(#hair2XMLID_701_);stroke:#1E1E1E;stroke-width:0.9572;stroke-linecap:round;stroke-linejoin:round;" d="M138.179,352.098c8.29-0.3,18.678-4.614,26.932-14.51c16.921-20.283,6.894-41.203,0-45.006c-5.925-3.27-28.63-5.265-28.827,15.846c3.76-4.437,17.547-3.803,19.427,2.536c1.88,6.341-17.331,21.055-23.814,7.606c-12.534-25.988,23.814-60.854,31.961-67.192"></path><path style="fill:none;stroke:#1E1E1E;stroke-width:0.9572;stroke-linecap:round;stroke-linejoin:round;" d="M154.457,298.92c0,0,7.853,6.952,0.406,16.229"></path></g><g><path style="fill:none;stroke:#1E1E1E;stroke-width:0.9572;stroke-linecap:round;stroke-linejoin:round;" d="M282.698,255.816c0,0,20.705,41.837,23.839,76.067"></path><path style="fill:none;stroke:#1E1E1E;stroke-width:0.9572;stroke-linecap:round;stroke-linejoin:round;" d="M290.845,255.181c0,0,31.334,63.39,5.641,128.682"></path><linearGradient id="hair2XMLID_702_" gradientUnits="userSpaceOnUse" x1="316.668" y1="401.7734" x2="316.668" y2="265.5567"><stop offset="0" style="stop-color:#FCFCE4"></stop><stop offset="0.5" style="stop-color:#A0C8DD"></stop><stop offset="1" style="stop-color:#5D6EC5"></stop></linearGradient><path style="fill:url(#hair2XMLID_702_);stroke:#1E1E1E;stroke-width:0.9572;stroke-linecap:round;stroke-linejoin:round;" d="M327.192,352.802c7.521,32.33-22.424,39.51-31.335,25.99c-7.52-11.409,14.414-23.455,20.682-19.651c-3.134-19.65-39.48-25.355-46.376,5.705c-10.026,58.954,43.242,58.318,43.242,58.318s42.615,5.706,50.136-41.835c0,0,5.013-19.018-8.773-43.107"></path><path style="fill:none;stroke:#1E1E1E;stroke-width:0.9572;stroke-linecap:round;stroke-linejoin:round;" d="M297.04,355.864c0,0-14.905,11.053,0.628,25.356"></path><linearGradient id="hair2XMLID_703_" gradientUnits="userSpaceOnUse" x1="329.3857" y1="401.7734" x2="329.3857" y2="265.5571"><stop offset="0" style="stop-color:#FCFCE4"></stop><stop offset="0.5" style="stop-color:#A0C8DD"></stop><stop offset="1" style="stop-color:#5D6EC5"></stop></linearGradient><path style="fill:url(#hair2XMLID_703_);stroke:#1E1E1E;stroke-width:0.9572;stroke-linecap:round;stroke-linejoin:round;" d="M315.285,247.575c3.762,3.803,26.321,34.864,28.201,92.549"></path><linearGradient id="hair2XMLID_704_" gradientUnits="userSpaceOnUse" x1="347.9736" y1="401.7734" x2="347.9736" y2="265.5571"><stop offset="0" style="stop-color:#FCFCE4"></stop><stop offset="0.5" style="stop-color:#A0C8DD"></stop><stop offset="1" style="stop-color:#5D6EC5"></stop></linearGradient><path style="fill:url(#hair2XMLID_704_);stroke:#1E1E1E;stroke-width:0.9572;stroke-linecap:round;stroke-linejoin:round;" d="M361.646,352.098c-8.29-0.3-18.678-4.614-26.933-14.51c-16.921-20.283-6.894-41.203,0-45.006c5.925-3.27,28.63-5.265,28.827,15.846c-3.76-4.437-17.547-3.803-19.427,2.536c-1.881,6.341,17.33,21.055,23.814,7.606c12.533-25.988-23.814-60.854-31.961-67.192"></path><path style="fill:none;stroke:#1E1E1E;stroke-width:0.9572;stroke-linecap:round;stroke-linejoin:round;" d="M345.368,298.92c0,0-7.854,6.952-0.407,16.229"></path></g></g></g></g></svg>