<svg xmlns="http://www.w3.org/2000/svg" width="500" height="500" version="1.1"><g id="x9068"><g><linearGradient id="hair2XMLID_780_" gradientUnits="userSpaceOnUse" x1="159.1826" y1="259.3154" x2="316.2734" y2="259.3154"><stop offset="0" style="stop-color:#FCFCE4"></stop><stop offset="0.5" style="stop-color:#A0C8DD"></stop><stop offset="1" style="stop-color:#5D6EC5"></stop></linearGradient><path style="fill:url(#hair2XMLID_780_);stroke:#1E1E1E;stroke-linecap:round;stroke-linejoin:round;" d="M256.334,131c0,0-18.667-2.667-42,3.333s-32.667,37.333-36,63.333c-2.589,20.198,4.878,57.287,8.34,72.838c-1,0.967-1.955,1.879-2.822,2.725c-6.079,5.924-14.95,17.91-16.553,33.631c-1.603,15.722,2.531,29.373,6.139,36.554c-3.12,1.201-9.128,5.482-14.097,9.363c0.158,5.7,4.634,15.497,4.634,15.497s-3.323,1.77-4.432,3.814c-1.11,2.043,0.385,9.757,3.895,16.132c12.744-2.659,22.148-12.533,23.729-15.18c1.58-2.646-0.93-5.331-2.399-8.419c18.396-14.25,20.352-20.483,24.42-27.248c0.366-0.238,0.718-0.49,1.078-0.732c8.253-2.633,39.375-7.307,51.293-21.611c12.643-15.174,45.181-14.292,53.441-83.364C326.501,135.5,256.334,131,256.334,131z M255.189,314.181c-2.121,2.863-5.572,5.593-9.585,8.092c12.522-14.935,18.005-30.372,18.005-30.372s0.5-3.39,1.195-8.158C265.139,290.378,264.115,302.131,255.189,314.181z"></path><linearGradient id="hair2XMLID_781_" gradientUnits="userSpaceOnUse" x1="274.918" y1="146.3335" x2="274.918" y2="454.8336"><stop offset="0" style="stop-color:#FCFCE4"></stop><stop offset="0.5" style="stop-color:#A0C8DD"></stop><stop offset="1" style="stop-color:#5D6EC5"></stop></linearGradient><path style="fill:url(#hair2XMLID_781_);stroke:#1E1E1E;stroke-linecap:round;stroke-linejoin:round;" d="M313.166,245.333c0,0,0.5,40.5-9.5,53.5s-67,27.5-67,27.5l11.5-8.5c0,0,37-5,48-23s9.5-40.5,9.5-40.5"></path><linearGradient id="hair2XMLID_782_" gradientUnits="userSpaceOnUse" x1="165.3677" y1="146.333" x2="165.3677" y2="454.8332"><stop offset="0" style="stop-color:#FCFCE4"></stop><stop offset="0.5" style="stop-color:#A0C8DD"></stop><stop offset="1" style="stop-color:#5D6EC5"></stop></linearGradient><path style="fill:url(#hair2XMLID_782_);stroke:#1E1E1E;stroke-linecap:round;stroke-linejoin:round;" d="M174.646,284.712c0,0-12.624,10.271-13.962,28.14c-1.338,17.866,9.642,27.406,14.331,30.096c-5.571,3.41-7.75,3.406-7.75,3.406s-5.795-2.826-9.841-9.136S155.573,302.314,174.646,284.712z"></path><path style="fill:none;stroke:#000000;stroke-linecap:round;stroke-linejoin:round;" d="M221.975,329.535c0,0-19.514,10.711-34.287,13.484"></path><path style="fill:none;stroke:#000000;stroke-linecap:round;stroke-linejoin:round;" d="M189.645,345.638c0,0-17.374,13.716-21.093,22.208l-0.594,4.021c1.878-0.231,11.907-2.828,15.031-6.209"></path><path style="fill:none;stroke:#000000;stroke-linecap:round;stroke-linejoin:round;" d="M169.729,346.459c0.05,0.402-0.267,8.884,1.385,13.446"></path><path style="fill:none;stroke:#000000;stroke-linecap:round;stroke-linejoin:round;" d="M236.329,248.243c0.231,1.877-8.085,22.783-26.758,41.425c-18.672,18.641-33.023,39.202-36.525,48.349"></path><path style="fill:none;stroke:#000000;stroke-linecap:round;stroke-linejoin:round;" d="M209.153,259.762c-0.136,1.106-5.017,34.209-12.309,43.551"></path><path style="fill:none;stroke:#000000;stroke-linecap:round;stroke-linejoin:round;" d="M168.09,372.941c0,0-4.767,3.312-6.486,9.242"></path><path style="fill:#483436;stroke:#000000;stroke-linecap:round;stroke-linejoin:round;" d="M162.433,388.166c0,0-3.694-7.897-5.572-8.392C144.25,381,132.625,389,132.625,389s4.625,4.875,5.125,6.5c-1.5,5.125-0.915,8.894-0.915,8.894l20.892-8.749L162.433,388.166z"></path><path style="fill:#2A1618;" d="M160.625,388.625c-0.75-0.5-5.375-1-9.25-0.625c0.25,3.5,3.625,5.375,3.625,5.375L160.625,388.625z"></path><g><linearGradient id="hair2XMLID_783_" gradientUnits="userSpaceOnUse" x1="145.3403" y1="244.5049" x2="145.3403" y2="437.4157"><stop offset="0" style="stop-color:#FCFCE4"></stop><stop offset="0.5" style="stop-color:#A0C8DD"></stop><stop offset="1" style="stop-color:#5D6EC5"></stop></linearGradient><path style="fill:url(#hair2XMLID_783_);stroke:#1E1E1E;stroke-linecap:round;stroke-linejoin:round;" d="M149.189,406.566c0,0-9.173,8.081-9.828,16.162s-1.092,17.036,13.978,20.967c-6.839,0.555-16.817-1.965-15.944-20.967s13.978-26.428,13.978-26.428L149.189,406.566z"></path><g><linearGradient id="hair2XMLID_784_" gradientUnits="userSpaceOnUse" x1="176.6899" y1="375.1758" x2="176.6899" y2="436.7472"><stop offset="0" style="stop-color:#FCFCE4"></stop><stop offset="0.5" style="stop-color:#A0C8DD"></stop><stop offset="1" style="stop-color:#5D6EC5"></stop></linearGradient><path style="fill:url(#hair2XMLID_784_);stroke:#1E1E1E;stroke-linecap:round;stroke-linejoin:round;" d="M171.75,423.625c0,0,1.875,14.875,12.25,14c-3.875,1.5-12.125,3.375-14.5-7.625C168.75,424.625,171.75,423.625,171.75,423.625z"></path><linearGradient id="hair2XMLID_785_" gradientUnits="userSpaceOnUse" x1="163.5269" y1="207.6196" x2="163.5268" y2="437.9687"><stop offset="0" style="stop-color:#FCFCE4"></stop><stop offset="0.5" style="stop-color:#A0C8DD"></stop><stop offset="1" style="stop-color:#5D6EC5"></stop></linearGradient><path style="fill:url(#hair2XMLID_785_);stroke:#1E1E1E;stroke-linecap:round;stroke-linejoin:round;" d="M151.373,396.301c0,0-7.644,11.576-3.058,22.933c4.586,11.357,14.415,29.704,31.888,25.772c-9.203-3.131-9.453-10.506-8.518-20.312c-0.31-13.944-7.862-20.968-7.862-20.968s0-12.668-1.748-14.852C156.833,390.841,151.373,396.301,151.373,396.301z"></path><path style="fill:none;stroke:#000000;stroke-linecap:round;stroke-linejoin:round;" d="M155.125,410.125c0,0-1,12.25,7.75,18"></path></g></g><path style="fill:#483436;stroke:#000000;stroke-linecap:round;stroke-linejoin:round;" d="M158.419,395.378c0,0,11.834,19.42,13.312,18.148s18.08-24.196,17.146-27.35c-8.689-2.741-17.85-4.88-18.564-4.792c-0.715,0.088-7.209,6.332-9.85,8.476C158.243,393.946,158.419,395.378,158.419,395.378z"></path><path style="fill:#2A1618;" d="M161.75,389.625c0,0,3.5-3.375,4.625-3.625c2.25-0.125,5.375,3.75,5.75,4.875C168.25,391.5,161.75,389.625,161.75,389.625z"></path></g></g></svg>