<svg xmlns="http://www.w3.org/2000/svg" width="500" height="500" version="1.1"><g id="x9069"><g><g><linearGradient id="hair2XMLID_786_" gradientUnits="userSpaceOnUse" x1="249.9995" y1="254.1855" x2="249.9995" y2="451.7188"><stop offset="0" style="stop-color:#FCFCE4"></stop><stop offset="0.5" style="stop-color:#A0C8DD"></stop><stop offset="1" style="stop-color:#5D6EC5"></stop></linearGradient><path style="fill:url(#hair2XMLID_786_);stroke:#1E1E1E;stroke-linecap:round;stroke-linejoin:round;" d="M373.599,340.152c-5.105-32.401-23.889-56.487-34.191-72.809c0,0-8.976-42.152-15.86-76.165c-8.247-40.755-15.778-73.207-73.547-72.868c-57.769-0.339-65.3,32.113-73.547,72.868c-6.885,34.013-15.86,76.165-15.86,76.165c-10.303,16.321-29.086,40.407-34.191,72.809c-10.648,67.597,15.82,108.285,15.82,108.285s3.779-9.188,18.257-17.72c-4.564-3.938-9.889-11.156-12.171-21.657c2.282,3.938,4.564,12.47,16.734,19.032c-9.888-7.876-19.709-87.283,19.889-147.661c-16.264,107.629-3.152,143.067-3.152,143.067s-1.292-22.314,5.555-36.752c2,21.002,5.095,28.877,8.138,34.783c11.083-2.812,97.976-2.812,109.059,0c3.043-5.906,6.138-13.781,8.138-34.783c6.847,14.438,5.555,36.752,5.555,36.752s13.111-35.438-3.152-143.067c39.598,60.378,29.776,139.785,19.889,147.661c12.17-6.563,14.452-15.095,16.734-19.032c-2.282,10.501-7.606,17.72-12.171,21.657c14.478,8.532,18.257,17.72,18.257,17.72S384.247,407.749,373.599,340.152z"></path></g><g><g><linearGradient id="hair2XMLID_787_" gradientUnits="userSpaceOnUse" x1="360.8223" y1="254.1816" x2="360.8223" y2="451.7184"><stop offset="0" style="stop-color:#FCFCE4"></stop><stop offset="0.5" style="stop-color:#A0C8DD"></stop><stop offset="1" style="stop-color:#5D6EC5"></stop></linearGradient><path style="fill:url(#hair2XMLID_787_);stroke:#1E1E1E;stroke-linecap:round;stroke-linejoin:round;" d="M337.977,273.356C354.666,307.339,380,341.465,374,387.404C365.243,454.453,350.742,455,350.742,455s38.035-9.844,47.924-41.345c-1.571-58.298-26.354-95.159-55.26-143.067c-20.446-33.888-16.381-62.381-20.428-82.69"></path></g><linearGradient id="hair2XMLID_788_" gradientUnits="userSpaceOnUse" x1="190.1582" y1="254.1816" x2="190.1582" y2="451.7184" gradientTransform="matrix(-1 0 0 1 329.3359 0)"><stop offset="0" style="stop-color:#FCFCE4"></stop><stop offset="0.5" style="stop-color:#A0C8DD"></stop><stop offset="1" style="stop-color:#5D6EC5"></stop></linearGradient><path style="fill:url(#hair2XMLID_788_);stroke:#1E1E1E;stroke-linecap:round;stroke-linejoin:round;" d="M162.023,273.356C145.334,307.339,120,341.465,126,387.404C134.757,454.453,149.258,455,149.258,455s-38.035-9.844-47.924-41.345c1.571-58.298,26.354-95.159,55.26-143.067c20.446-33.888,16.381-62.381,20.428-82.69"></path></g></g></g></svg>