<svg xmlns="http://www.w3.org/2000/svg" width="500" height="500" version="1.1"><g id="x9070"><g><g><linearGradient id="hair2XMLID_789_" gradientUnits="userSpaceOnUse" x1="250.0005" y1="149.6646" x2="250.0005" y2="319.6649"><stop offset="0" style="stop-color:#FCFCE4"></stop><stop offset="0.5" style="stop-color:#A0C8DD"></stop><stop offset="1" style="stop-color:#5D6EC5"></stop></linearGradient><path style="fill:url(#hair2XMLID_789_);stroke:#1E1E1E;stroke-linecap:round;stroke-linejoin:round;" d="M363.683,292.524c-2.041-7.65-20.248-24.272-34.798-42.53c-4.337-5.442-7.498-11.586-9.805-17.838c-0.379-8.516-0.605-21.524,0.585-33.825c2-20.667-12.666-74.667-70.666-74.667s-72.667,54-70.667,74.667c1.495,15.445,0.755,32.003,0.286,39.386c-1.998,4.301-4.461,8.461-7.502,12.277c-14.551,18.257-32.758,34.879-34.798,42.53c-2.04,7.652-1.555,26.261,18.104,41.851c6.529,3.953,25.109,12.111,25.109,12.111s8,4.442,18.19,2.262c10.19-2.181,21.966-17.553,19.462-39.604c-0.317-2.794-0.602-5.908-0.853-9.234c4.278-15.493,15.365-50.276,32.668-67.579c20.03,20.031,31.729,63.483,34.179,73.319c-0.115,1.207-0.235,2.382-0.361,3.494c-2.503,22.051,9.272,37.423,19.462,39.604c10.19,2.181,18.19-2.262,18.19-2.262s18.58-8.158,25.108-12.111C365.237,318.785,365.723,300.177,363.683,292.524z M144.341,305.954c-0.55-11.013,5.462-17.842,5.462-17.842s-4.362,6.94-3.503,17.673c0.859,10.733,5.272,18.612,5.272,18.612S144.889,316.963,144.341,305.954z M183.251,343.962c0,0,9.57-1.625,20.19-8.889C191.889,348.777,183.251,343.962,183.251,343.962z M296.561,335.073c10.618,7.264,20.189,8.889,20.189,8.889S308.112,348.777,296.561,335.073z M355.659,305.954c-0.547,11.009-7.231,18.443-7.231,18.443s4.413-7.879,5.272-18.612c0.859-10.732-3.502-17.673-3.502-17.673S356.21,294.941,355.659,305.954z"></path><g><path style="fill:none;stroke:#000000;stroke-linecap:round;stroke-linejoin:round;" d="M149.544,288.737c0,0,2.907-3.763,11.18-11.432c9.259-8.584,14.292-22.157,14.292-22.157"></path><path style="fill:none;stroke:#000000;stroke-linecap:round;stroke-linejoin:round;" d="M162.158,336.986c-0.477-0.865-5.857-8.669-6.313-22.548c-0.545-16.615,12.608-29.735,12.608-29.735"></path><path style="fill:none;stroke:#000000;stroke-linecap:round;stroke-linejoin:round;" d="M172.529,342.484c0,0,10.069,1.806,20.716-7.679"></path><path style="fill:none;stroke:#000000;stroke-linecap:round;stroke-linejoin:round;" d="M171.708,340.852c0,0,15.486-3.149,24.956-17.869c10.189-15.839,8.333-40.671,8.333-40.671"></path><path style="fill:none;stroke:#000000;stroke-linecap:round;stroke-linejoin:round;" d="M168.256,338.785c0,0-4.58-15.447,3.647-32.751c8.225-17.307,24.21-42.276,26.279-52.15"></path></g><g><path style="fill:none;stroke:#000000;stroke-linecap:round;stroke-linejoin:round;" d="M350.457,288.737c0,0-2.907-3.763-11.18-11.432c-9.261-8.584-14.293-22.157-14.293-22.157"></path><path style="fill:none;stroke:#000000;stroke-linecap:round;stroke-linejoin:round;" d="M337.842,336.986c0.477-0.865,5.857-8.669,6.313-22.548c0.546-16.615-12.608-29.735-12.608-29.735"></path><path style="fill:none;stroke:#000000;stroke-linecap:round;stroke-linejoin:round;" d="M327.472,342.484c0,0-10.07,1.806-20.716-7.679"></path><path style="fill:none;stroke:#000000;stroke-linecap:round;stroke-linejoin:round;" d="M328.291,340.852c0,0-15.484-3.149-24.956-17.869c-10.188-15.839-8.332-40.671-8.332-40.671"></path><path style="fill:none;stroke:#000000;stroke-linecap:round;stroke-linejoin:round;" d="M331.744,338.785c0,0,4.58-15.447-3.646-32.751c-8.227-17.307-24.21-42.276-26.278-52.15"></path></g></g><g><g><g><path style="fill:#472D50;stroke:#000000;stroke-linecap:round;stroke-linejoin:round;" d="M147.183,327.584c-1.157,0.422-10.655,20.493-11.137,21.806c-0.453,2.35,0.146,5.188,0.449,6.738c0.305,1.549,4.465,8.704,15.014,14.379c10.547,5.676,19.248,5.689,23.392,2.976c3.694-7.115,11.053-22.449,10.724-24.974c-0.332-2.521-2.287-9.673-16.313-16.68C155.284,324.824,148.34,327.162,147.183,327.584z"></path><ellipse transform="matrix(0.8865 0.4628 -0.4628 0.8865 185.7355 -30.6208)" style="fill:#331F39;stroke:#000000;stroke-linecap:round;stroke-linejoin:round;" cx="155.279" cy="363.256" rx="20.507" ry="7.104"></ellipse><path style="fill:#FF5CFF;stroke:#000000;stroke-linecap:round;stroke-linejoin:round;" d="M146.409,334.683c0,0-2.233,3.699-2.33,4.87c3.115-0.087,10.301,1.527,11.779,3.304c0.622,3.619,0.965,6.595,0.965,6.595l6.525-3.43c0,0,9.911,6.083,12.833,13.014c1.393-1.208,2.607-4.229,2.607-4.229s-2.511-6.162-10.224-12.567c0.894-0.545,2.155-1.878,2.155-1.878s-4.579-5.845-14.758-7.637c-0.083,1.693,0.103,3.635,0.103,3.635S151.468,334.542,146.409,334.683z"></path></g><g><linearGradient id="hair2XMLID_790_" gradientUnits="userSpaceOnUse" x1="148.2144" y1="432.3311" x2="148.2144" y2="370.3311"><stop offset="0" style="stop-color:#FCFCE4"></stop><stop offset="0.5" style="stop-color:#A0C8DD"></stop><stop offset="1" style="stop-color:#5D6EC5"></stop></linearGradient><path style="fill:url(#hair2XMLID_790_);stroke:#1E1E1E;stroke-linecap:round;stroke-linejoin:round;" d="M147.26,408.951c0,0,3.985,10.098-0.159,15.396c-4.142,5.296-13.061,3.92-13.061,3.92s12.74,5.707,21.9-5.354c3.639-2.175,7.752-8.505,6.051-16.301c-1.699-7.797-12.063-7.948-12.063-7.948"></path><linearGradient id="hair2XMLID_791_" gradientUnits="userSpaceOnUse" x1="150.4556" y1="432.3311" x2="150.4556" y2="370.3309"><stop offset="0" style="stop-color:#FCFCE4"></stop><stop offset="0.5" style="stop-color:#A0C8DD"></stop><stop offset="1" style="stop-color:#5D6EC5"></stop></linearGradient><path style="fill:url(#hair2XMLID_791_);stroke:#1E1E1E;stroke-linecap:round;stroke-linejoin:round;" d="M157.431,386.467c0,0,4.78,6.82,8.649,7.6c-6.094-6.193-4.929-22.652-3.745-27.866c-3.605-7.151-12.663-8.228-12.663-8.228s-16.514,7.421-21.845,23.111c-5.329,15.689,14.382,21.941,14.382,21.941c11.403,10.778,27.334,3.67,31.789-1.043C157.991,401.102,157.431,386.467,157.431,386.467z M134.341,379.371c-2.771,10.239,2.397,18.578,2.397,18.578C129.203,393.131,131.543,381.619,134.341,379.371z"></path><linearGradient id="hair2XMLID_792_" gradientUnits="userSpaceOnUse" x1="143.187" y1="432.3311" x2="143.187" y2="370.3311"><stop offset="0" style="stop-color:#FCFCE4"></stop><stop offset="0.5" style="stop-color:#A0C8DD"></stop><stop offset="1" style="stop-color:#5D6EC5"></stop></linearGradient><path style="fill:url(#hair2XMLID_792_);stroke:#1E1E1E;stroke-linecap:round;stroke-linejoin:round;" d="M138.585,400.463c0.16,0.438,4.997,14.511,1.902,20.221c5.006-0.88,8.483-8.822,6.926-16.769"></path></g></g><g><g><path style="fill:#472D50;stroke:#000000;stroke-linecap:round;stroke-linejoin:round;" d="M352.818,327.584c1.156,0.422,10.655,20.493,11.138,21.806c0.452,2.35-0.148,5.188-0.45,6.738c-0.304,1.549-4.464,8.704-15.013,14.379c-10.549,5.676-19.248,5.689-23.392,2.976c-3.695-7.115-11.053-22.449-10.724-24.974c0.331-2.521,2.286-9.673,16.313-16.68C344.716,324.824,351.661,327.162,352.818,327.584z"></path><ellipse transform="matrix(-0.8865 0.4628 -0.4628 -0.8865 818.4138 525.7454)" style="fill:#331F39;stroke:#000000;stroke-linecap:round;stroke-linejoin:round;" cx="344.721" cy="363.256" rx="20.507" ry="7.104"></ellipse><path style="fill:#FF5CFF;stroke:#000000;stroke-linecap:round;stroke-linejoin:round;" d="M353.593,334.683c0,0,2.232,3.699,2.329,4.87c-3.115-0.087-10.302,1.527-11.778,3.304c-0.623,3.619-0.966,6.595-0.966,6.595l-6.526-3.43c0,0-9.91,6.083-12.831,13.014c-1.394-1.208-2.607-4.229-2.607-4.229s2.511-6.162,10.223-12.567c-0.894-0.545-2.154-1.878-2.154-1.878s4.578-5.845,14.758-7.637c0.082,1.693-0.104,3.635-0.104,3.635S348.532,334.542,353.593,334.683z"></path></g><g><linearGradient id="hair2XMLID_793_" gradientUnits="userSpaceOnUse" x1="351.7852" y1="432.3311" x2="351.7852" y2="370.3311"><stop offset="0" style="stop-color:#FCFCE4"></stop><stop offset="0.5" style="stop-color:#A0C8DD"></stop><stop offset="1" style="stop-color:#5D6EC5"></stop></linearGradient><path style="fill:url(#hair2XMLID_793_);stroke:#1E1E1E;stroke-linecap:round;stroke-linejoin:round;" d="M352.74,408.951c0,0-3.984,10.098,0.159,15.396c4.143,5.296,13.06,3.92,13.06,3.92s-12.739,5.707-21.899-5.354c-3.64-2.175-7.753-8.505-6.052-16.301c1.7-7.797,12.063-7.948,12.063-7.948"></path><linearGradient id="hair2XMLID_794_" gradientUnits="userSpaceOnUse" x1="349.5449" y1="432.3311" x2="349.5449" y2="370.3309"><stop offset="0" style="stop-color:#FCFCE4"></stop><stop offset="0.5" style="stop-color:#A0C8DD"></stop><stop offset="1" style="stop-color:#5D6EC5"></stop></linearGradient><path style="fill:url(#hair2XMLID_794_);stroke:#1E1E1E;stroke-linecap:round;stroke-linejoin:round;" d="M326.002,401.982c4.456,4.713,20.387,11.821,31.789,1.043c0,0,19.711-6.252,14.382-21.941c-5.33-15.69-21.845-23.111-21.845-23.111s-9.058,1.076-12.663,8.228c1.186,5.214,2.35,21.673-3.744,27.866c3.869-0.779,8.649-7.6,8.649-7.6S342.01,401.102,326.002,401.982z M363.263,397.949c0,0,5.168-8.339,2.396-18.578C368.458,381.619,370.798,393.131,363.263,397.949z"></path><linearGradient id="hair2XMLID_795_" gradientUnits="userSpaceOnUse" x1="356.8135" y1="432.3311" x2="356.8135" y2="370.3311"><stop offset="0" style="stop-color:#FCFCE4"></stop><stop offset="0.5" style="stop-color:#A0C8DD"></stop><stop offset="1" style="stop-color:#5D6EC5"></stop></linearGradient><path style="fill:url(#hair2XMLID_795_);stroke:#1E1E1E;stroke-linecap:round;stroke-linejoin:round;" d="M361.415,400.463c-0.159,0.438-4.996,14.511-1.901,20.221c-5.007-0.88-8.483-8.822-6.927-16.769"></path></g></g></g></g></g></svg>