<svg xmlns="http://www.w3.org/2000/svg" width="500" height="500" version="1.1"><g id="x9073"><g><g><g><path style="fill:#5473D4;stroke:#000000;stroke-linecap:round;stroke-linejoin:round;" d="M250.75,314l-57,53.738c-8-9.083-9-18.165-9-18.165L250.75,314z"></path><path style="fill:#5473D4;stroke:#000000;stroke-linecap:round;stroke-linejoin:round;" d="M249.25,314l57,53.738c8-9.083,9-18.165,9-18.165L249.25,314z"></path></g><g><linearGradient id="hair2XMLID_802_" gradientUnits="userSpaceOnUse" x1="250.0005" y1="359.9951" x2="250.0005" y2="346.365"><stop offset="0" style="stop-color:#FCFCE4"></stop><stop offset="0.5" style="stop-color:#A0C8DD"></stop><stop offset="1" style="stop-color:#5D6EC5"></stop></linearGradient><path style="fill:url(#hair2XMLID_802_);stroke:#1E1E1E;stroke-linecap:round;stroke-linejoin:round;" d="M252.514,342.075h-5.027c0,0-4.341,14.281-3.77,17.423c0.571,3.143,1.428,5.427,1.428,5.427h9.711c0,0,0.857-2.284,1.429-5.427C256.855,356.356,252.514,342.075,252.514,342.075z"></path><g><rect x="246.75" y="332" style="fill:#5473D4;stroke:#000000;stroke-linecap:round;stroke-linejoin:round;" width="6.5" height="3.5"></rect><rect x="246.75" y="302" style="fill:#E6E3EB;stroke:#000000;stroke-linecap:round;stroke-linejoin:round;" width="6.5" height="30"></rect><rect x="246.75" y="335.5" style="fill:#E6E3EB;stroke:#000000;stroke-linecap:round;stroke-linejoin:round;" width="6.5" height="9"></rect></g><linearGradient id="hair2XMLID_803_" gradientUnits="userSpaceOnUse" x1="250.0005" y1="420.7002" x2="250.0005" y2="379.0932"><stop offset="0" style="stop-color:#FCFCE4"></stop><stop offset="0.5" style="stop-color:#A0C8DD"></stop><stop offset="1" style="stop-color:#5D6EC5"></stop></linearGradient><path style="fill:url(#hair2XMLID_803_);stroke:#1E1E1E;stroke-linecap:round;stroke-linejoin:round;" d="M254.286,367.75L250,366l-4.286,1.75c0,0-5.714,11.5-5.714,29.25s10,38.75,10,38.75s10-21,10-38.75S254.286,367.75,254.286,367.75z"></path><g><path style="fill:#E6E3EB;stroke:#000000;stroke-linecap:round;stroke-linejoin:round;" d="M255.004,368.66c-3.977-0.688-6.034-0.688-10.008-0.001c0-1.601,0-2.398,0-3.998c3.974-0.688,6.031-0.688,10.008-0.001C255.004,366.26,255.004,367.06,255.004,368.66z"></path></g></g></g><linearGradient id="hair2XMLID_804_" gradientUnits="userSpaceOnUse" x1="250.0005" y1="278.2744" x2="250.0005" y2="156.0023"><stop offset="0" style="stop-color:#FCFCE4"></stop><stop offset="0.5" style="stop-color:#A0C8DD"></stop><stop offset="1" style="stop-color:#5D6EC5"></stop></linearGradient><path style="fill:url(#hair2XMLID_804_);stroke:#1E1E1E;stroke-linecap:round;stroke-linejoin:round;" d="M374.3,272.5c-18-3.5-30.757-22.968-36-66.5c-5.3-44-16.5-57.5-16.5-57.5s-20.493-30.501-71.8-30.978c-51.307,0.477-71.8,30.978-71.8,30.978S167,162,161.7,206c-5.243,43.532-18,63-36,66.5c12.8,2.5,37.5,2,47-10.5c0,0-9.7,28.5-27.2,40c16.5,3.5,42.5,2,57-17.5c0,4,0.5,17,9,30c8.445-4.645,14.393-7.775,19.479-11.647C237.805,316.955,250,322.5,250,322.5s12.194-5.545,19.021-19.647c5.086,3.872,11.034,7.003,19.479,11.647c8.5-13,9-26,9-30c14.5,19.5,40.5,21,57,17.5c-17.5-11.5-27.2-40-27.2-40C336.8,274.5,361.5,275,374.3,272.5z"></path></g></g></svg>