<svg xmlns="http://www.w3.org/2000/svg" width="500" height="500" version="1.1"><g id="x9074"><g><linearGradient id="hair2XMLID_805_" gradientUnits="userSpaceOnUse" x1="250.0005" y1="453" x2="250.0005" y2="277.5001"><stop offset="0" style="stop-color:#FCFCE4"></stop><stop offset="0.5" style="stop-color:#A0C8DD"></stop><stop offset="1" style="stop-color:#5D6EC5"></stop></linearGradient><path style="fill:url(#hair2XMLID_805_);stroke:#1E1E1E;stroke-linecap:round;stroke-linejoin:round;" d="M337.5,427.5c-12.188-6.269-16.373-15.094-19.51-37.678c4.012-7.523,13.525-27.705,15.343-52.822c1.957-27.046-7.661-90.162-10.686-109.058c2.89-21.315,3.439-42.298-3.666-63.942C291.667,118.5,250,124,250,124s-41.667-5.5-68.981,40c-7.105,21.645-6.556,42.627-3.666,63.942c-3.025,18.896-12.643,82.012-10.687,109.058c1.817,25.117,11.333,45.299,15.343,52.822c-3.137,22.584-7.32,31.409-19.509,37.678c25,10,43.981-10.5,47.222-17.5c-3.704,11.5-2.315,23-10.185,25.5c18.056,3.5,27.315-6,34.722-20.5c-3.241,10.5-12.037,22.5-14.815,24.5C232.407,437.5,250,436,250,382c0,54,17.593,55.5,30.556,57.5c-2.778-2-11.574-14-14.814-24.5c7.407,14.5,16.666,24,34.722,20.5c-7.87-2.5-6.481-14-10.186-25.5C293.519,417,312.5,437.5,337.5,427.5z M316.381,265.056c2.565,13.219,5.15,29.919,5.379,44.444c0.37,23.604-4.888,43.673-7.006,50.758c-0.79-8.162-1.662-17.357-2.717-27.758C309.611,308.568,312.668,286.389,316.381,265.056z M187.963,332.5c-1.054,10.4-1.927,19.596-2.717,27.758c-2.118-7.085-7.375-27.153-7.005-50.758c0.228-14.525,2.813-31.226,5.379-44.444C187.332,286.389,190.389,308.568,187.963,332.5z"></path><g><linearGradient id="hair2XMLID_806_" gradientUnits="userSpaceOnUse" x1="166" y1="453" x2="166" y2="277.5"><stop offset="0" style="stop-color:#FCFCE4"></stop><stop offset="0.5" style="stop-color:#A0C8DD"></stop><stop offset="1" style="stop-color:#5D6EC5"></stop></linearGradient><path style="fill:url(#hair2XMLID_806_);stroke:#1E1E1E;stroke-linecap:round;stroke-linejoin:round;" d="M177.25,372.5c0,0-9.5,27-31,21c5.5,12,28.5,11.5,39.5-1"></path><linearGradient id="hair2XMLID_807_" gradientUnits="userSpaceOnUse" x1="334" y1="453" x2="334" y2="277.5"><stop offset="0" style="stop-color:#FCFCE4"></stop><stop offset="0.5" style="stop-color:#A0C8DD"></stop><stop offset="1" style="stop-color:#5D6EC5"></stop></linearGradient><path style="fill:url(#hair2XMLID_807_);stroke:#1E1E1E;stroke-linecap:round;stroke-linejoin:round;" d="M322.75,372.5c0,0,9.5,27,31,21c-5.5,12-28.5,11.5-39.5-1"></path></g></g></g></svg>