<svg xmlns="http://www.w3.org/2000/svg" width="500" height="500" version="1.1"><g id="x9083"><g><g><g><linearGradient id="hair2XMLID_833_" gradientUnits="userSpaceOnUse" x1="169.3428" y1="447.5781" x2="169.3428" y2="209.5837" gradientTransform="matrix(0.9878 -0.1558 0.1558 0.9878 -46.1675 29.2358)"><stop offset="0" style="stop-color:#FCFCE4"></stop><stop offset="0.5" style="stop-color:#A0C8DD"></stop><stop offset="1" style="stop-color:#5D6EC5"></stop></linearGradient><path style="fill:url(#hair2XMLID_833_);stroke:#1E1E1E;stroke-linecap:round;stroke-linejoin:round;" d="M170.754,201.125c0,0-31.802,31.589-22.287,85.515c-16.066-52.134,20.658-87.283,20.658-87.283"></path><linearGradient id="hair2XMLID_834_" gradientUnits="userSpaceOnUse" x1="143.4429" y1="447.584" x2="143.4429" y2="209.5801" gradientTransform="matrix(0.9878 -0.1558 0.1558 0.9878 -46.1675 29.2358)"><stop offset="0" style="stop-color:#FCFCE4"></stop><stop offset="0.5" style="stop-color:#A0C8DD"></stop><stop offset="1" style="stop-color:#5D6EC5"></stop></linearGradient><path style="fill:url(#hair2XMLID_834_);stroke:#1E1E1E;stroke-linecap:round;stroke-linejoin:round;" d="M145.478,290.148c0,0-9.23,12.085-6.464,20c0.805,1.898,3.314,1.756,3.314,1.756s-3.587,1.325-5.484-2.679c-1.896-4.004,2.031-16.012,9.557-21.248"></path><linearGradient id="hair2XMLID_835_" gradientUnits="userSpaceOnUse" x1="114.1519" y1="447.5547" x2="114.1518" y2="209.6102" gradientTransform="matrix(0.9878 -0.1558 0.1558 0.9878 -46.1675 29.2358)"><stop offset="0" style="stop-color:#FCFCE4"></stop><stop offset="0.5" style="stop-color:#A0C8DD"></stop><stop offset="1" style="stop-color:#5D6EC5"></stop></linearGradient><path style="fill:url(#hair2XMLID_835_);stroke:#1E1E1E;stroke-linecap:round;stroke-linejoin:round;" d="M125.605,348.708c0,0-7.656,6.016-11.736,2.609c2.845,3.601,10.332,2.927,12.581-0.465"></path><linearGradient id="hair2XMLID_836_" gradientUnits="userSpaceOnUse" x1="167.6538" y1="449.3018" x2="167.6538" y2="206.0554" gradientTransform="matrix(0.9878 -0.1558 0.1558 0.9878 -46.1675 29.2358)"><stop offset="0" style="stop-color:#FCFCE4"></stop><stop offset="0.5" style="stop-color:#A0C8DD"></stop><stop offset="1" style="stop-color:#5D6EC5"></stop></linearGradient><path style="fill:url(#hair2XMLID_836_);stroke:#1E1E1E;stroke-linecap:round;stroke-linejoin:round;" d="M187.417,173.5c11.5-1,17.722,6.005,17.722,6.005l3.375,21.401c0,0-6.14,25.265-15.448,36.856c0.034,8.77-1.791,35.716-18.742,50.2c0.207,7.728-3.715,29.943-22,40.25c-0.14,3.396,2.717,15.094-12.43,23.895c0.744,2.582,3.255,16.36-11.494,23.409c-2.86,1.125-8.058,0.259-8.058,0.259l1.751-6.014c-1.403-2.479,0.541-17.97,2.43-20.967c1.89-2.998,9.221-7.866,9.221-7.866s-5.023-8.32,0.836-20.379c5.86-12.06,8.909-9.841,8.909-9.841s-3.688-10.555,1.183-22.459c4.872-11.903,12.618-14.138,12.618-14.138s-4.383-6.396-0.982-25.492c3.401-19.095,9.277-26.772,9.277-26.772s-1.519-26.756,6.889-41.917C172.474,179.932,175.917,174.5,187.417,173.5z"></path><linearGradient id="hair2XMLID_837_" gradientUnits="userSpaceOnUse" x1="112.3584" y1="447.5791" x2="112.3584" y2="209.5791" gradientTransform="matrix(0.9878 -0.1558 0.1558 0.9878 -46.1675 29.2358)"><stop offset="0" style="stop-color:#FCFCE4"></stop><stop offset="0.5" style="stop-color:#A0C8DD"></stop><stop offset="1" style="stop-color:#5D6EC5"></stop></linearGradient><path style="fill:url(#hair2XMLID_837_);stroke:#1E1E1E;stroke-linecap:round;stroke-linejoin:round;" d="M116.692,398.115c0,0-6.217,21.565-0.359,39.454c-0.583-6.91,0.355-20.219,0.355-20.219s-1.008,15.007,8.205,23.678c0.737,0.391,5.107,1.895,9.289,1.656c-3.794-3.197-8.208-10.854-8.87-15.052c3.819,8.172,7.021,11.886,13.968,16.358c4.389,1.079,10.22,0.075,9.934-0.133c-0.286-0.208-16.921-7.793-22.406-24.392c-5.485-16.598-1.641-26.99-1.641-26.99S119.154,393.931,116.692,398.115z"></path><linearGradient id="hair2XMLID_838_" gradientUnits="userSpaceOnUse" x1="113.0776" y1="447.5762" x2="113.0776" y2="209.5857" gradientTransform="matrix(0.9878 -0.1558 0.1558 0.9878 -46.1675 29.2358)"><stop offset="0" style="stop-color:#FCFCE4"></stop><stop offset="0.5" style="stop-color:#A0C8DD"></stop><stop offset="1" style="stop-color:#5D6EC5"></stop></linearGradient><path style="fill:url(#hair2XMLID_838_);stroke:#1E1E1E;stroke-linecap:round;stroke-linejoin:round;" d="M121.089,373.273c-1.045,1.557-2.694,5.678-2.642,6.007c0.052,0.328,0.679,2.17,0.679,2.17s-3.16,7.248-3.29,8.027c0.299,1.091,0.342,1.633,0.342,1.633s-1.396,2.92-1.439,3.18c0.692,2.253,1.84,4.182,1.84,4.182s5.52-4.582,8.848-5.95c0.27-4.178-0.042-6.153-0.042-6.153s2.752-4.482,3.155-5.137c-0.138-1.413-0.693-2.254-0.498-2.621c0.195-0.368,4.44-4.075,5.359-7.342"></path><linearGradient id="hair2XMLID_839_" gradientUnits="userSpaceOnUse" x1="121.2988" y1="366.8369" x2="132.1709" y2="366.8369"><stop offset="0" style="stop-color:#FCFCE4"></stop><stop offset="0.5" style="stop-color:#A0C8DD"></stop><stop offset="1" style="stop-color:#5D6EC5"></stop></linearGradient><path style="fill:url(#hair2XMLID_839_);stroke:#1E1E1E;stroke-linecap:round;stroke-linejoin:round;" d="M121.299,372.756c0,0,4.988-7.957,10.872-11.838"></path><linearGradient id="hair2XMLID_840_" gradientUnits="userSpaceOnUse" x1="128.9697" y1="356.8242" x2="139.1436" y2="356.8242"><stop offset="0" style="stop-color:#FCFCE4"></stop><stop offset="0.5" style="stop-color:#A0C8DD"></stop><stop offset="1" style="stop-color:#5D6EC5"></stop></linearGradient><path style="fill:url(#hair2XMLID_840_);stroke:#1E1E1E;stroke-linecap:round;stroke-linejoin:round;" d="M128.97,360.41c0.524-0.419,5.33-4.721,10.174-7.172"></path><path style="fill:none;stroke:#1E1E1E;stroke-linecap:round;stroke-linejoin:round;" d="M163.629,296.651c0,0-6.529,14.781-16.909,19.033"></path><linearGradient id="hair2XMLID_841_" gradientUnits="userSpaceOnUse" x1="143.2378" y1="313.1484" x2="145.4375" y2="313.1484"><stop offset="0" style="stop-color:#FCFCE4"></stop><stop offset="0.5" style="stop-color:#A0C8DD"></stop><stop offset="1" style="stop-color:#5D6EC5"></stop></linearGradient><path style="fill:url(#hair2XMLID_841_);stroke:#1E1E1E;stroke-linecap:round;stroke-linejoin:round;" d="M143.238,309.651c0.316,1.469,0.831,3.666,2.2,6.994"></path><linearGradient id="hair2XMLID_842_" gradientUnits="userSpaceOnUse" x1="145.2329" y1="330.8242" x2="152.6943" y2="330.8242"><stop offset="0" style="stop-color:#FCFCE4"></stop><stop offset="0.5" style="stop-color:#A0C8DD"></stop><stop offset="1" style="stop-color:#5D6EC5"></stop></linearGradient><path style="fill:url(#hair2XMLID_842_);stroke:#1E1E1E;stroke-linecap:round;stroke-linejoin:round;" d="M152.694,328.001c0,0-6.85,4.708-7.461,5.647"></path><path style="fill:none;stroke:#1E1E1E;stroke-linecap:round;stroke-linejoin:round;" d="M145.025,318.313c0,0-2.259,7.61,0.169,16.592"></path><path style="fill:none;stroke:#1E1E1E;stroke-linecap:round;stroke-linejoin:round;" d="M131.393,355.979c0,0,1.93-12.369,12.043-18.856"></path><linearGradient id="hair2XMLID_843_" gradientUnits="userSpaceOnUse" x1="163.0542" y1="291.4648" x2="174.5464" y2="291.4648"><stop offset="0" style="stop-color:#FCFCE4"></stop><stop offset="0.5" style="stop-color:#A0C8DD"></stop><stop offset="1" style="stop-color:#5D6EC5"></stop></linearGradient><path style="fill:url(#hair2XMLID_843_);stroke:#1E1E1E;stroke-linecap:round;stroke-linejoin:round;" d="M163.054,295.22c0.238-0.186,8.108-3.423,11.492-7.509"></path><linearGradient id="hair2XMLID_844_" gradientUnits="userSpaceOnUse" x1="157.144" y1="276.3203" x2="161.0029" y2="276.3203"><stop offset="0" style="stop-color:#FCFCE4"></stop><stop offset="0.5" style="stop-color:#A0C8DD"></stop><stop offset="1" style="stop-color:#5D6EC5"></stop></linearGradient><path style="fill:url(#hair2XMLID_844_);stroke:#1E1E1E;stroke-linecap:round;stroke-linejoin:round;" d="M157.144,273.714c0,0,1.437,3.232,3.859,5.213"></path><linearGradient id="hair2XMLID_845_" gradientUnits="userSpaceOnUse" x1="164.9663" y1="271.3477" x2="175.0649" y2="271.3477"><stop offset="0" style="stop-color:#FCFCE4"></stop><stop offset="0.5" style="stop-color:#A0C8DD"></stop><stop offset="1" style="stop-color:#5D6EC5"></stop></linearGradient><path style="fill:url(#hair2XMLID_845_);stroke:#1E1E1E;stroke-linecap:round;stroke-linejoin:round;" d="M164.966,283.194c0,0,5.833-9.019,10.099-23.694"></path><path style="fill:none;stroke:#1E1E1E;stroke-linecap:round;stroke-linejoin:round;" d="M175.127,252.403c0,0-5.309-16.542,4.157-33.557"></path><path style="fill:none;stroke:#1E1E1E;stroke-linecap:round;stroke-linejoin:round;" d="M165.629,221.589c0,0,0.741,12.201,3.981,17.765"></path><linearGradient id="hair2XMLID_846_" gradientUnits="userSpaceOnUse" x1="177.522" y1="243.959" x2="193.168" y2="243.959"><stop offset="0" style="stop-color:#FCFCE4"></stop><stop offset="0.5" style="stop-color:#A0C8DD"></stop><stop offset="1" style="stop-color:#5D6EC5"></stop></linearGradient><path style="fill:url(#hair2XMLID_846_);stroke:#1E1E1E;stroke-linecap:round;stroke-linejoin:round;" d="M177.522,250.254c0.685,0.06,10.893-6.358,15.646-12.59"></path><linearGradient id="hair2XMLID_847_" gradientUnits="userSpaceOnUse" x1="182.0664" y1="200.6777" x2="191.8638" y2="200.6777"><stop offset="0" style="stop-color:#FCFCE4"></stop><stop offset="0.5" style="stop-color:#A0C8DD"></stop><stop offset="1" style="stop-color:#5D6EC5"></stop></linearGradient><path style="fill:url(#hair2XMLID_847_);stroke:#1E1E1E;stroke-linecap:round;stroke-linejoin:round;" d="M182.066,214.02c0,0,8.498-9.776,9.797-26.685"></path><linearGradient id="hair2XMLID_848_" gradientUnits="userSpaceOnUse" x1="133.5464" y1="342.1777" x2="135.751" y2="342.1777"><stop offset="0" style="stop-color:#FCFCE4"></stop><stop offset="0.5" style="stop-color:#A0C8DD"></stop><stop offset="1" style="stop-color:#5D6EC5"></stop></linearGradient><path style="fill:url(#hair2XMLID_848_);stroke:#1E1E1E;stroke-linecap:round;stroke-linejoin:round;" d="M133.546,340.538c0,0,1.104,2.188,2.205,3.28"></path><linearGradient id="hair2XMLID_849_" gradientUnits="userSpaceOnUse" x1="116.333" y1="388.8311" x2="125.1333" y2="388.8311"><stop offset="0" style="stop-color:#FCFCE4"></stop><stop offset="0.5" style="stop-color:#A0C8DD"></stop><stop offset="1" style="stop-color:#5D6EC5"></stop></linearGradient><path style="fill:url(#hair2XMLID_849_);stroke:#1E1E1E;stroke-linecap:round;stroke-linejoin:round;" d="M116.333,391.423c0,0,4.579-3.063,8.8-5.184"></path><linearGradient id="hair2XMLID_850_" gradientUnits="userSpaceOnUse" x1="120.1631" y1="379.834" x2="127.8936" y2="379.834"><stop offset="0" style="stop-color:#FCFCE4"></stop><stop offset="0.5" style="stop-color:#A0C8DD"></stop><stop offset="1" style="stop-color:#5D6EC5"></stop></linearGradient><path style="fill:url(#hair2XMLID_850_);stroke:#1E1E1E;stroke-linecap:round;stroke-linejoin:round;" d="M120.163,381.202c0.094-0.205,4.958-1.857,7.73-2.737"></path></g><g><linearGradient id="hair2XMLID_851_" gradientUnits="userSpaceOnUse" x1="366.7344" y1="478.71" x2="366.7344" y2="240.7169" gradientTransform="matrix(-0.9878 -0.1558 -0.1558 0.9878 746.0024 29.2358)"><stop offset="0" style="stop-color:#FCFCE4"></stop><stop offset="0.5" style="stop-color:#A0C8DD"></stop><stop offset="1" style="stop-color:#5D6EC5"></stop></linearGradient><path style="fill:url(#hair2XMLID_851_);stroke:#1E1E1E;stroke-linecap:round;stroke-linejoin:round;" d="M329.247,201.125c0,0,31.801,31.589,22.286,85.515c16.065-52.134-20.657-87.283-20.657-87.283"></path><linearGradient id="hair2XMLID_852_" gradientUnits="userSpaceOnUse" x1="340.834" y1="478.7178" x2="340.834" y2="240.7139" gradientTransform="matrix(-0.9878 -0.1558 -0.1558 0.9878 746.0024 29.2358)"><stop offset="0" style="stop-color:#FCFCE4"></stop><stop offset="0.5" style="stop-color:#A0C8DD"></stop><stop offset="1" style="stop-color:#5D6EC5"></stop></linearGradient><path style="fill:url(#hair2XMLID_852_);stroke:#1E1E1E;stroke-linecap:round;stroke-linejoin:round;" d="M354.522,290.148c0,0,9.23,12.085,6.465,20c-0.806,1.898-3.314,1.756-3.314,1.756s3.588,1.325,5.484-2.679s-2.031-16.012-9.557-21.248"></path><linearGradient id="hair2XMLID_853_" gradientUnits="userSpaceOnUse" x1="311.543" y1="478.6885" x2="311.543" y2="240.744" gradientTransform="matrix(-0.9878 -0.1558 -0.1558 0.9878 746.0024 29.2358)"><stop offset="0" style="stop-color:#FCFCE4"></stop><stop offset="0.5" style="stop-color:#A0C8DD"></stop><stop offset="1" style="stop-color:#5D6EC5"></stop></linearGradient><path style="fill:url(#hair2XMLID_853_);stroke:#1E1E1E;stroke-linecap:round;stroke-linejoin:round;" d="M374.396,348.708c0,0,7.656,6.016,11.736,2.609c-2.846,3.601-10.332,2.927-12.582-0.465"></path><linearGradient id="hair2XMLID_854_" gradientUnits="userSpaceOnUse" x1="365.0449" y1="480.4346" x2="365.0449" y2="237.1888" gradientTransform="matrix(-0.9878 -0.1558 -0.1558 0.9878 746.0024 29.2358)"><stop offset="0" style="stop-color:#FCFCE4"></stop><stop offset="0.5" style="stop-color:#A0C8DD"></stop><stop offset="1" style="stop-color:#5D6EC5"></stop></linearGradient><path style="fill:url(#hair2XMLID_854_);stroke:#1E1E1E;stroke-linecap:round;stroke-linejoin:round;" d="M312.584,173.5c-11.5-1-17.722,6.005-17.722,6.005l-3.375,21.401c0,0,6.141,25.265,15.448,36.856c-0.034,8.77,1.791,35.716,18.742,50.2c-0.206,7.728,3.716,29.943,21.999,40.25c0.141,3.396-2.717,15.094,12.431,23.895c-0.744,2.582-3.255,16.36,11.494,23.409c2.86,1.125,8.058,0.259,8.058,0.259l-1.751-6.014c1.403-2.479-0.54-17.97-2.431-20.967c-1.889-2.998-9.221-7.866-9.221-7.866s5.023-8.32-0.836-20.379c-5.859-12.06-8.909-9.841-8.909-9.841s3.688-10.555-1.183-22.459c-4.872-11.903-12.619-14.138-12.619-14.138s4.383-6.396,0.982-25.492c-3.4-19.095-9.277-26.772-9.277-26.772s1.52-26.756-6.889-41.917C327.526,179.932,324.084,174.5,312.584,173.5z"></path><linearGradient id="hair2XMLID_855_" gradientUnits="userSpaceOnUse" x1="309.75" y1="478.7129" x2="309.75" y2="240.7087" gradientTransform="matrix(-0.9878 -0.1558 -0.1558 0.9878 746.0024 29.2358)"><stop offset="0" style="stop-color:#FCFCE4"></stop><stop offset="0.5" style="stop-color:#A0C8DD"></stop><stop offset="1" style="stop-color:#5D6EC5"></stop></linearGradient><path style="fill:url(#hair2XMLID_855_);stroke:#1E1E1E;stroke-linecap:round;stroke-linejoin:round;" d="M383.308,398.115c0,0,6.218,21.565,0.359,39.454c0.584-6.91-0.354-20.219-0.354-20.219s1.009,15.007-8.204,23.678c-0.737,0.391-5.107,1.895-9.289,1.656c3.795-3.197,8.207-10.854,8.869-15.052c-3.818,8.172-7.02,11.886-13.968,16.358c-4.389,1.079-10.22,0.075-9.935-0.133c0.287-0.208,16.922-7.793,22.406-24.392c5.485-16.598,1.641-26.99,1.641-26.99S380.847,393.931,383.308,398.115z"></path><linearGradient id="hair2XMLID_856_" gradientUnits="userSpaceOnUse" x1="310.4688" y1="478.7061" x2="310.4688" y2="240.7252" gradientTransform="matrix(-0.9878 -0.1558 -0.1558 0.9878 746.0024 29.2358)"><stop offset="0" style="stop-color:#FCFCE4"></stop><stop offset="0.5" style="stop-color:#A0C8DD"></stop><stop offset="1" style="stop-color:#5D6EC5"></stop></linearGradient><path style="fill:url(#hair2XMLID_856_);stroke:#1E1E1E;stroke-linecap:round;stroke-linejoin:round;" d="M378.911,373.273c1.045,1.557,2.694,5.678,2.643,6.007c-0.053,0.328-0.68,2.17-0.68,2.17s3.16,7.248,3.29,8.027c-0.299,1.091-0.343,1.633-0.343,1.633s1.396,2.92,1.439,3.18c-0.692,2.253-1.84,4.182-1.84,4.182s-5.521-4.582-8.848-5.95c-0.27-4.178,0.041-6.153,0.041-6.153s-2.752-4.482-3.154-5.137c0.139-1.413,0.693-2.254,0.498-2.621c-0.195-0.368-4.441-4.075-5.359-7.342"></path><linearGradient id="hair2XMLID_857_" gradientUnits="userSpaceOnUse" x1="367.8291" y1="366.8369" x2="378.7021" y2="366.8369"><stop offset="0" style="stop-color:#FCFCE4"></stop><stop offset="0.5" style="stop-color:#A0C8DD"></stop><stop offset="1" style="stop-color:#5D6EC5"></stop></linearGradient><path style="fill:url(#hair2XMLID_857_);stroke:#1E1E1E;stroke-linecap:round;stroke-linejoin:round;" d="M378.702,372.756c0,0-4.988-7.957-10.873-11.838"></path><linearGradient id="hair2XMLID_858_" gradientUnits="userSpaceOnUse" x1="360.8564" y1="356.8242" x2="371.0303" y2="356.8242"><stop offset="0" style="stop-color:#FCFCE4"></stop><stop offset="0.5" style="stop-color:#A0C8DD"></stop><stop offset="1" style="stop-color:#5D6EC5"></stop></linearGradient><path style="fill:url(#hair2XMLID_858_);stroke:#1E1E1E;stroke-linecap:round;stroke-linejoin:round;" d="M371.03,360.41c-0.523-0.419-5.33-4.721-10.174-7.172"></path><path style="fill:none;stroke:#1E1E1E;stroke-linecap:round;stroke-linejoin:round;" d="M336.372,296.651c0,0,6.528,14.781,16.908,19.033"></path><linearGradient id="hair2XMLID_859_" gradientUnits="userSpaceOnUse" x1="354.5635" y1="313.1484" x2="356.7627" y2="313.1484"><stop offset="0" style="stop-color:#FCFCE4"></stop><stop offset="0.5" style="stop-color:#A0C8DD"></stop><stop offset="1" style="stop-color:#5D6EC5"></stop></linearGradient><path style="fill:url(#hair2XMLID_859_);stroke:#1E1E1E;stroke-linecap:round;stroke-linejoin:round;" d="M356.763,309.651c-0.316,1.469-0.831,3.666-2.199,6.994"></path><linearGradient id="hair2XMLID_860_" gradientUnits="userSpaceOnUse" x1="347.3057" y1="330.8242" x2="354.7676" y2="330.8242"><stop offset="0" style="stop-color:#FCFCE4"></stop><stop offset="0.5" style="stop-color:#A0C8DD"></stop><stop offset="1" style="stop-color:#5D6EC5"></stop></linearGradient><path style="fill:url(#hair2XMLID_860_);stroke:#1E1E1E;stroke-linecap:round;stroke-linejoin:round;" d="M347.306,328.001c0,0,6.851,4.708,7.462,5.647"></path><path style="fill:none;stroke:#1E1E1E;stroke-linecap:round;stroke-linejoin:round;" d="M354.976,318.313c0,0,2.258,7.61-0.17,16.592"></path><path style="fill:none;stroke:#1E1E1E;stroke-linecap:round;stroke-linejoin:round;" d="M368.608,355.979c0,0-1.931-12.369-12.044-18.856"></path><linearGradient id="hair2XMLID_861_" gradientUnits="userSpaceOnUse" x1="325.4541" y1="291.4648" x2="336.9463" y2="291.4648"><stop offset="0" style="stop-color:#FCFCE4"></stop><stop offset="0.5" style="stop-color:#A0C8DD"></stop><stop offset="1" style="stop-color:#5D6EC5"></stop></linearGradient><path style="fill:url(#hair2XMLID_861_);stroke:#1E1E1E;stroke-linecap:round;stroke-linejoin:round;" d="M336.946,295.22c-0.238-0.186-8.108-3.423-11.492-7.509"></path><linearGradient id="hair2XMLID_862_" gradientUnits="userSpaceOnUse" x1="338.9971" y1="276.3203" x2="342.8564" y2="276.3203"><stop offset="0" style="stop-color:#FCFCE4"></stop><stop offset="0.5" style="stop-color:#A0C8DD"></stop><stop offset="1" style="stop-color:#5D6EC5"></stop></linearGradient><path style="fill:url(#hair2XMLID_862_);stroke:#1E1E1E;stroke-linecap:round;stroke-linejoin:round;" d="M342.856,273.714c0,0-1.438,3.232-3.859,5.213"></path><linearGradient id="hair2XMLID_863_" gradientUnits="userSpaceOnUse" x1="324.9355" y1="271.3477" x2="335.0342" y2="271.3477"><stop offset="0" style="stop-color:#FCFCE4"></stop><stop offset="0.5" style="stop-color:#A0C8DD"></stop><stop offset="1" style="stop-color:#5D6EC5"></stop></linearGradient><path style="fill:url(#hair2XMLID_863_);stroke:#1E1E1E;stroke-linecap:round;stroke-linejoin:round;" d="M335.034,283.194c0,0-5.832-9.019-10.099-23.694"></path><path style="fill:none;stroke:#1E1E1E;stroke-linecap:round;stroke-linejoin:round;" d="M324.873,252.403c0,0,5.309-16.542-4.157-33.557"></path><path style="fill:none;stroke:#1E1E1E;stroke-linecap:round;stroke-linejoin:round;" d="M334.372,221.589c0,0-0.742,12.201-3.982,17.765"></path><linearGradient id="hair2XMLID_864_" gradientUnits="userSpaceOnUse" x1="306.833" y1="243.959" x2="322.4785" y2="243.959"><stop offset="0" style="stop-color:#FCFCE4"></stop><stop offset="0.5" style="stop-color:#A0C8DD"></stop><stop offset="1" style="stop-color:#5D6EC5"></stop></linearGradient><path style="fill:url(#hair2XMLID_864_);stroke:#1E1E1E;stroke-linecap:round;stroke-linejoin:round;" d="M322.479,250.254c-0.685,0.06-10.893-6.358-15.646-12.59"></path><linearGradient id="hair2XMLID_865_" gradientUnits="userSpaceOnUse" x1="308.1367" y1="200.6777" x2="317.9346" y2="200.6777"><stop offset="0" style="stop-color:#FCFCE4"></stop><stop offset="0.5" style="stop-color:#A0C8DD"></stop><stop offset="1" style="stop-color:#5D6EC5"></stop></linearGradient><path style="fill:url(#hair2XMLID_865_);stroke:#1E1E1E;stroke-linecap:round;stroke-linejoin:round;" d="M317.935,214.02c0,0-8.498-9.776-9.798-26.685"></path><linearGradient id="hair2XMLID_866_" gradientUnits="userSpaceOnUse" x1="364.249" y1="342.1777" x2="366.4541" y2="342.1777"><stop offset="0" style="stop-color:#FCFCE4"></stop><stop offset="0.5" style="stop-color:#A0C8DD"></stop><stop offset="1" style="stop-color:#5D6EC5"></stop></linearGradient><path style="fill:url(#hair2XMLID_866_);stroke:#1E1E1E;stroke-linecap:round;stroke-linejoin:round;" d="M366.454,340.538c0,0-1.104,2.188-2.205,3.28"></path><linearGradient id="hair2XMLID_867_" gradientUnits="userSpaceOnUse" x1="374.8672" y1="388.8311" x2="383.667" y2="388.8311"><stop offset="0" style="stop-color:#FCFCE4"></stop><stop offset="0.5" style="stop-color:#A0C8DD"></stop><stop offset="1" style="stop-color:#5D6EC5"></stop></linearGradient><path style="fill:url(#hair2XMLID_867_);stroke:#1E1E1E;stroke-linecap:round;stroke-linejoin:round;" d="M383.667,391.423c0,0-4.578-3.063-8.8-5.184"></path><linearGradient id="hair2XMLID_868_" gradientUnits="userSpaceOnUse" x1="372.1064" y1="379.834" x2="379.8369" y2="379.834"><stop offset="0" style="stop-color:#FCFCE4"></stop><stop offset="0.5" style="stop-color:#A0C8DD"></stop><stop offset="1" style="stop-color:#5D6EC5"></stop></linearGradient><path style="fill:url(#hair2XMLID_868_);stroke:#1E1E1E;stroke-linecap:round;stroke-linejoin:round;" d="M379.837,381.202c-0.094-0.205-4.958-1.857-7.73-2.737"></path></g></g><linearGradient id="hair2XMLID_869_" gradientUnits="userSpaceOnUse" x1="249.9995" y1="112.2197" x2="249.9995" y2="296.6068"><stop offset="0" style="stop-color:#FCFCE4"></stop><stop offset="0.5" style="stop-color:#A0C8DD"></stop><stop offset="1" style="stop-color:#5D6EC5"></stop></linearGradient><circle style="fill:url(#hair2XMLID_869_);stroke:#1E1E1E;stroke-linecap:round;stroke-linejoin:round;" cx="250" cy="195.25" r="74.25"></circle></g></g></svg>