<svg xmlns="http://www.w3.org/2000/svg" width="500" height="500" version="1.1"><g id="x9084"><g><g><g><linearGradient id="hair2XMLID_870_" gradientUnits="userSpaceOnUse" x1="250" y1="121.5" x2="250" y2="320.9992"><stop offset="0" style="stop-color:#FCFCE4"></stop><stop offset="0.5" style="stop-color:#A0C8DD"></stop><stop offset="1" style="stop-color:#5D6EC5"></stop></linearGradient><path style="fill:url(#hair2XMLID_870_);stroke:#1E1E1E;stroke-linecap:round;stroke-linejoin:round;" d="M312.827,264.96c-0.39-7.207-2.577-10.489-5.054-12.87c10.35-12.772,16.561-29.036,16.561-46.756C324.334,164.28,291.053,131,250,131c-41.053,0-74.333,33.28-74.333,74.333c0,17.72,6.21,33.984,16.561,46.756c-2.477,2.381-4.665,5.663-5.054,12.87c-3.716,1.626-6.039,4.182-6.503,5.574c-1.858,7.666-1.627,13.239-1.394,14.169l8.129,6.968c0,0,6.735-0.232,9.291-1.394c2.555-1.161,6.039-6.271,6.039-6.271s5.807-0.233,10.684-2.091c4.878-1.858,8.594-6.039,9.059-7.2c0,0,4.229,2.278,11.18,3.127c5.261,1.181,10.725,1.824,16.342,1.824c5.617,0,11.081-0.644,16.341-1.824c6.953-0.848,11.182-3.127,11.182-3.127c0.465,1.161,4.181,5.342,9.059,7.2c4.877,1.857,10.684,2.091,10.684,2.091s3.484,5.109,6.039,6.271c2.556,1.161,9.291,1.394,9.291,1.394l8.129-6.968c0.233-0.93,0.465-6.503-1.394-14.169C318.866,269.142,316.543,266.586,312.827,264.96z"></path><linearGradient id="hair2XMLID_871_" gradientUnits="userSpaceOnUse" x1="263.9551" y1="121.4995" x2="263.9551" y2="320.9995"><stop offset="0" style="stop-color:#FCFCE4"></stop><stop offset="0.5" style="stop-color:#A0C8DD"></stop><stop offset="1" style="stop-color:#5D6EC5"></stop></linearGradient><path style="fill:url(#hair2XMLID_871_);stroke:#1E1E1E;stroke-linecap:round;stroke-linejoin:round;" d="M257.731,278.344c0,0,10.372,1.296,12.446,6.741c-0.52-6.223-3.631-9.075-3.631-9.075"></path><path style="fill:none;stroke:#000000;stroke-linecap:round;stroke-linejoin:round;" d="M286.232,268.328c0,0,11.032-2.787,21.252,3.252"></path><path style="fill:none;stroke:#000000;stroke-linecap:round;stroke-linejoin:round;" d="M297.846,267.516c0,0-0.58-5.808,0.696-12.659"></path><path style="fill:none;stroke:#000000;stroke-linecap:round;stroke-linejoin:round;" d="M310.969,265.657c0,0-3.484,2.206-3.717,13.472"></path><path style="fill:none;stroke:#000000;stroke-linecap:round;stroke-linejoin:round;" d="M298.194,282.961c0,0,3.02-0.116,5.109-1.51"></path><path style="fill:none;stroke:#000000;stroke-linecap:round;stroke-linejoin:round;" d="M306.556,279.709c0,0,5.923,0.116,8.479,1.627c2.555,1.509,3.251,4.761,3.251,4.761"></path><linearGradient id="hair2XMLID_872_" gradientUnits="userSpaceOnUse" x1="280.4258" y1="121.5" x2="280.4258" y2="321"><stop offset="0" style="stop-color:#FCFCE4"></stop><stop offset="0.5" style="stop-color:#A0C8DD"></stop><stop offset="1" style="stop-color:#5D6EC5"></stop></linearGradient><path style="fill:url(#hair2XMLID_872_);stroke:#1E1E1E;stroke-linecap:round;stroke-linejoin:round;" d="M277.522,274.716c0,0,4.181-1.858,5.807-4.065"></path></g><g><g><linearGradient id="hair2XMLID_873_" gradientUnits="userSpaceOnUse" x1="339.8213" y1="121.5" x2="339.8213" y2="320.9998"><stop offset="0" style="stop-color:#FCFCE4"></stop><stop offset="0.5" style="stop-color:#A0C8DD"></stop><stop offset="1" style="stop-color:#5D6EC5"></stop></linearGradient><path style="fill:url(#hair2XMLID_873_);stroke:#1E1E1E;stroke-linecap:round;stroke-linejoin:round;" d="M326.065,290.277l0.232-0.813c0,0-2.555-3.948-3.367-4.296c-0.813-0.349-2.903,0.116-2.903,0.116l-6.968,6.039c0,0,2.322,2.09,3.367,2.787c1.046,0.696,2.091,0.696,2.091,0.696s7.398,22.193,1.394,42.621c0.938,0.25,3.728,0.572,7.567,0.434c1.1-3.007,3.438-9.015,3.438-13.861c1.535,4.349,2.921,8.989,4.049,13.061c10.272-1.815,23.355-7.173,31.618-21.394C357.25,296,326.065,290.277,326.065,290.277z"></path><linearGradient id="hair2XMLID_874_" gradientUnits="userSpaceOnUse" x1="338.083" y1="121.5" x2="338.083" y2="320.9999"><stop offset="0" style="stop-color:#FCFCE4"></stop><stop offset="0.5" style="stop-color:#A0C8DD"></stop><stop offset="1" style="stop-color:#5D6EC5"></stop></linearGradient><path style="fill:url(#hair2XMLID_874_);stroke:#1E1E1E;stroke-linecap:round;stroke-linejoin:round;" d="M329.583,322.667c-0.333,1.333,3.667,16.333-1,23c10.667-2.667,16.667-8.667,19-16.333"></path></g><path style="fill:none;stroke:#000000;stroke-linecap:round;stroke-linejoin:round;" d="M319.911,293.994c0,0,3.6-3.136,5.807-3.484"></path></g></g><g><g><linearGradient id="hair2XMLID_875_" gradientUnits="userSpaceOnUse" x1="236.0454" y1="121.4995" x2="236.0454" y2="320.9995"><stop offset="0" style="stop-color:#FCFCE4"></stop><stop offset="0.5" style="stop-color:#A0C8DD"></stop><stop offset="1" style="stop-color:#5D6EC5"></stop></linearGradient><path style="fill:url(#hair2XMLID_875_);stroke:#1E1E1E;stroke-linecap:round;stroke-linejoin:round;" d="M242.269,278.344c0,0-10.372,1.296-12.446,6.741c0.52-6.223,3.631-9.075,3.631-9.075"></path><path style="fill:none;stroke:#000000;stroke-linecap:round;stroke-linejoin:round;" d="M213.768,268.328c0,0-11.032-2.787-21.252,3.252"></path><path style="fill:none;stroke:#000000;stroke-linecap:round;stroke-linejoin:round;" d="M202.154,267.516c0,0,0.58-5.808-0.696-12.659"></path><path style="fill:none;stroke:#000000;stroke-linecap:round;stroke-linejoin:round;" d="M189.031,265.657c0,0,3.484,2.206,3.717,13.472"></path><path style="fill:none;stroke:#000000;stroke-linecap:round;stroke-linejoin:round;" d="M201.806,282.961c0,0-3.02-0.116-5.109-1.51"></path><path style="fill:none;stroke:#000000;stroke-linecap:round;stroke-linejoin:round;" d="M193.444,279.709c0,0-5.923,0.116-8.479,1.627c-2.555,1.509-3.251,4.761-3.251,4.761"></path><linearGradient id="hair2XMLID_876_" gradientUnits="userSpaceOnUse" x1="219.5742" y1="121.5" x2="219.5742" y2="321"><stop offset="0" style="stop-color:#FCFCE4"></stop><stop offset="0.5" style="stop-color:#A0C8DD"></stop><stop offset="1" style="stop-color:#5D6EC5"></stop></linearGradient><path style="fill:url(#hair2XMLID_876_);stroke:#1E1E1E;stroke-linecap:round;stroke-linejoin:round;" d="M222.478,274.716c0,0-4.181-1.858-5.807-4.065"></path></g><g><g><linearGradient id="hair2XMLID_877_" gradientUnits="userSpaceOnUse" x1="160.1787" y1="121.5" x2="160.1787" y2="320.9998"><stop offset="0" style="stop-color:#FCFCE4"></stop><stop offset="0.5" style="stop-color:#A0C8DD"></stop><stop offset="1" style="stop-color:#5D6EC5"></stop></linearGradient><path style="fill:url(#hair2XMLID_877_);stroke:#1E1E1E;stroke-linecap:round;stroke-linejoin:round;" d="M173.935,290.277l-0.232-0.813c0,0,2.555-3.948,3.367-4.296c0.813-0.349,2.903,0.116,2.903,0.116l6.968,6.039c0,0-2.322,2.09-3.367,2.787c-1.046,0.696-2.091,0.696-2.091,0.696s-7.398,22.193-1.394,42.621c-0.938,0.25-3.728,0.572-7.567,0.434c-1.1-3.007-3.438-9.015-3.438-13.861c-1.535,4.349-2.921,8.989-4.049,13.061c-10.272-1.815-23.355-7.173-31.618-21.394C142.75,296,173.935,290.277,173.935,290.277z"></path><linearGradient id="hair2XMLID_878_" gradientUnits="userSpaceOnUse" x1="161.917" y1="121.5" x2="161.917" y2="320.9999"><stop offset="0" style="stop-color:#FCFCE4"></stop><stop offset="0.5" style="stop-color:#A0C8DD"></stop><stop offset="1" style="stop-color:#5D6EC5"></stop></linearGradient><path style="fill:url(#hair2XMLID_878_);stroke:#1E1E1E;stroke-linecap:round;stroke-linejoin:round;" d="M170.417,322.667c0.333,1.333-3.667,16.333,1,23c-10.667-2.667-16.667-8.667-19-16.333"></path></g><path style="fill:none;stroke:#000000;stroke-linecap:round;stroke-linejoin:round;" d="M180.089,293.994c0,0-3.6-3.136-5.807-3.484"></path></g></g></g></g></svg>