<svg xmlns="http://www.w3.org/2000/svg" width="500" height="500" version="1.1"><g id="x9086"><g><linearGradient id="hair2XMLID_880_" gradientUnits="userSpaceOnUse" x1="246.9912" y1="381" x2="246.9912" y2="465.666"><stop offset="0" style="stop-color:#FCFCE4"></stop><stop offset="0.5" style="stop-color:#A0C8DD"></stop><stop offset="1" style="stop-color:#5D6EC5"></stop></linearGradient><path style="fill:url(#hair2XMLID_880_);stroke:#1E1E1E;stroke-linecap:round;stroke-linejoin:round;" d="M352.976,255.762c-2.088-23.934-14.483-49.839-16.976-73.262c-2.5-23.5-23-44-23-44s-13-21.83-63-21.83s-63,21.83-63,21.83s-20.5,20.5-23,44c-2.492,23.423-18.888,49.328-20.976,73.263c-0.805,2.604-1.477,5.144-2.023,7.604c29.11,14.848,80.427,70.76,80.427,70.76L250,341l28.572-6.874C278.572,334.126,353.781,258.365,352.976,255.762z"></path><g><g><linearGradient id="hair2XMLID_881_" gradientUnits="userSpaceOnUse" x1="348.8945" y1="252.5" x2="348.8945" y2="298"><stop offset="0" style="stop-color:#FCFCE4"></stop><stop offset="0.5" style="stop-color:#A0C8DD"></stop><stop offset="1" style="stop-color:#5D6EC5"></stop></linearGradient><path style="fill:url(#hair2XMLID_881_);stroke:#1E1E1E;stroke-linecap:round;stroke-linejoin:round;" d="M336.648,208.607c0,0,3.537,55.881-3.471,88.738c18.957-10.166,31.435-23.836,31.435-23.836S355.098,226.181,336.648,208.607z"></path><g><linearGradient id="hair2XMLID_882_" gradientUnits="userSpaceOnUse" x1="386.9814" y1="332.666" x2="386.9814" y2="378.666"><stop offset="0" style="stop-color:#FCFCE4"></stop><stop offset="0.5" style="stop-color:#A0C8DD"></stop><stop offset="1" style="stop-color:#5D6EC5"></stop></linearGradient><path style="fill:url(#hair2XMLID_882_);stroke:#1E1E1E;stroke-linecap:round;stroke-linejoin:round;" d="M326.205,372.664c0,0,74.396,8.081,91.318,18.001c2.41,3.88-0.78,20.383-3.548,23.716c34.267-33.127,33.828-51.139,33.828-51.139s-43.468-4.178-67.496-17.748c-24.026-13.569-32.623-22.209-32.623-22.209S325.013,366.415,326.205,372.664z"></path><linearGradient id="hair2XMLID_883_" gradientUnits="userSpaceOnUse" x1="368.7539" y1="238" x2="368.7539" y2="303.9999"><stop offset="0" style="stop-color:#FCFCE4"></stop><stop offset="0.5" style="stop-color:#A0C8DD"></stop><stop offset="1" style="stop-color:#5D6EC5"></stop></linearGradient><path style="fill:url(#hair2XMLID_883_);stroke:#1E1E1E;stroke-linecap:round;stroke-linejoin:round;" d="M352.869,284.033l2.06-48.605c0,0,22.519,17.198,29.71,26.173c-0.233,15.202-13.068,36.084-13.508,37.972L352.869,284.033z"></path><linearGradient id="hair2XMLID_884_" gradientUnits="userSpaceOnUse" x1="373.1816" y1="265" x2="373.1816" y2="301"><stop offset="0" style="stop-color:#FCFCE4"></stop><stop offset="0.5" style="stop-color:#A0C8DD"></stop><stop offset="1" style="stop-color:#5D6EC5"></stop></linearGradient><path style="fill:url(#hair2XMLID_884_);stroke:#1E1E1E;stroke-linecap:round;stroke-linejoin:round;" d="M364.356,297.329c0,0,10.396,43.552-6.468,87.375c-13.359,17.443-33.826,31.238-33.826,31.238s28.664-0.605,33.466-4.126c0.564,6.1-0.903,12.391-0.903,12.391s27.597-18.762,38.462-45.412c11.049,15.183,27.214,16.967,27.214,16.967s-9.495-16.146-11.131-20.508c2.226-18.056,2.231-57.854-0.536-74.417c-17.466-4.742-37.218-5.375-37.218-5.375s-10.461-17.698-16.981-23.863C361.864,288.124,364.356,297.329,364.356,297.329z"></path><linearGradient id="hair2XMLID_885_" gradientUnits="userSpaceOnUse" x1="335.9043" y1="237" x2="335.9043" y2="319.5"><stop offset="0" style="stop-color:#FCFCE4"></stop><stop offset="0.5" style="stop-color:#A0C8DD"></stop><stop offset="1" style="stop-color:#5D6EC5"></stop></linearGradient><path style="fill:url(#hair2XMLID_885_);stroke:#1E1E1E;stroke-linecap:round;stroke-linejoin:round;" d="M355.894,236.98c0,0,1.212,37.429,6.787,53.323c5.575,15.896,1.485,24.889,1.485,24.889s-20.188,35.033-31.837,48.288c-2.729,3.107-5.388,6.038-6.124,9.184l-19.978-25.228c0,0-0.525-3.438,2.789-11.953c3.313-8.512,27.77-47.909,35.55-61.349c7.78-13.44,8.295-37.42,8.295-37.42"></path></g></g><g><linearGradient id="hair2XMLID_886_" gradientUnits="userSpaceOnUse" x1="151.105" y1="252.5" x2="151.105" y2="298"><stop offset="0" style="stop-color:#FCFCE4"></stop><stop offset="0.5" style="stop-color:#A0C8DD"></stop><stop offset="1" style="stop-color:#5D6EC5"></stop></linearGradient><path style="fill:url(#hair2XMLID_886_);stroke:#1E1E1E;stroke-linecap:round;stroke-linejoin:round;" d="M163.352,208.607c0,0-3.537,55.881,3.471,88.738c-18.957-10.166-31.435-23.836-31.435-23.836S144.902,226.181,163.352,208.607z"></path><g><linearGradient id="hair2XMLID_887_" gradientUnits="userSpaceOnUse" x1="113.0181" y1="332.666" x2="113.0181" y2="378.666"><stop offset="0" style="stop-color:#FCFCE4"></stop><stop offset="0.5" style="stop-color:#A0C8DD"></stop><stop offset="1" style="stop-color:#5D6EC5"></stop></linearGradient><path style="fill:url(#hair2XMLID_887_);stroke:#1E1E1E;stroke-linecap:round;stroke-linejoin:round;" d="M173.795,372.664c0,0-74.396,8.081-91.318,18.001c-2.41,3.88,0.78,20.383,3.548,23.716c-34.267-33.127-33.828-51.139-33.828-51.139s43.468-4.178,67.496-17.748c24.026-13.569,32.623-22.209,32.623-22.209S174.987,366.415,173.795,372.664z"></path><linearGradient id="hair2XMLID_888_" gradientUnits="userSpaceOnUse" x1="131.2461" y1="238" x2="131.2461" y2="303.9999"><stop offset="0" style="stop-color:#FCFCE4"></stop><stop offset="0.5" style="stop-color:#A0C8DD"></stop><stop offset="1" style="stop-color:#5D6EC5"></stop></linearGradient><path style="fill:url(#hair2XMLID_888_);stroke:#1E1E1E;stroke-linecap:round;stroke-linejoin:round;" d="M147.131,284.033l-2.06-48.605c0,0-22.519,17.198-29.71,26.173c0.233,15.202,13.068,36.084,13.508,37.972L147.131,284.033z"></path><linearGradient id="hair2XMLID_889_" gradientUnits="userSpaceOnUse" x1="126.8184" y1="265" x2="126.8184" y2="301"><stop offset="0" style="stop-color:#FCFCE4"></stop><stop offset="0.5" style="stop-color:#A0C8DD"></stop><stop offset="1" style="stop-color:#5D6EC5"></stop></linearGradient><path style="fill:url(#hair2XMLID_889_);stroke:#1E1E1E;stroke-linecap:round;stroke-linejoin:round;" d="M135.644,297.329c0,0-10.396,43.552,6.468,87.375c13.359,17.443,33.826,31.238,33.826,31.238s-28.664-0.605-33.466-4.126c-0.564,6.1,0.903,12.391,0.903,12.391s-27.597-18.762-38.462-45.412c-11.049,15.183-27.214,16.967-27.214,16.967s9.495-16.146,11.131-20.508c-2.226-18.056-2.231-57.854,0.536-74.417c17.466-4.742,37.218-5.375,37.218-5.375s10.461-17.698,16.981-23.863C138.136,288.124,135.644,297.329,135.644,297.329z"></path><linearGradient id="hair2XMLID_890_" gradientUnits="userSpaceOnUse" x1="164.0952" y1="237" x2="164.0952" y2="319.5"><stop offset="0" style="stop-color:#FCFCE4"></stop><stop offset="0.5" style="stop-color:#A0C8DD"></stop><stop offset="1" style="stop-color:#5D6EC5"></stop></linearGradient><path style="fill:url(#hair2XMLID_890_);stroke:#1E1E1E;stroke-linecap:round;stroke-linejoin:round;" d="M144.106,236.98c0,0-1.212,37.429-6.787,53.323c-5.575,15.896-1.485,24.889-1.485,24.889s20.188,35.033,31.837,48.288c2.729,3.107,5.388,6.038,6.124,9.184l19.978-25.228c0,0,0.525-3.438-2.789-11.953c-3.313-8.512-27.77-47.909-35.55-61.349c-7.78-13.44-8.295-37.42-8.295-37.42"></path></g></g></g><g><g><linearGradient id="hair2XMLID_891_" gradientUnits="userSpaceOnUse" x1="277" y1="138.3989" x2="277" y2="323.9639"><stop offset="0" style="stop-color:#FCFCE4"></stop><stop offset="0.5" style="stop-color:#A0C8DD"></stop><stop offset="1" style="stop-color:#5D6EC5"></stop></linearGradient><path style="fill:url(#hair2XMLID_891_);stroke:#1E1E1E;stroke-linecap:round;stroke-linejoin:round;" d="M265.941,312.64c0,0-15.878,27.539-15.678,28.945c0.2,1.407,15.276,5.629,26.333,19.297c11.055,13.668,9.85,12.663,9.85,12.663s-4.824,10.452-9.045,11.859c4.02,3.618,11.055,3.818,13.869,3.016c-1.408,2.814-4.824,9.246-4.824,9.246s5.426-4.423,8.24-9.648c1.006-6.03,3.215-15.878,8.844-19.096c1.609-8.242-6.23-32.162-18.291-43.819S265.941,312.64,265.941,312.64z"></path><linearGradient id="hair2XMLID_892_" gradientUnits="userSpaceOnUse" x1="290.2051" y1="345.1348" x2="290.2051" y2="374.9643"><stop offset="0" style="stop-color:#FCFCE4"></stop><stop offset="0.5" style="stop-color:#A0C8DD"></stop><stop offset="1" style="stop-color:#5D6EC5"></stop></linearGradient><path style="fill:url(#hair2XMLID_892_);stroke:#1E1E1E;stroke-linecap:round;stroke-linejoin:round;" d="M286.486,373.144c2.613,4.221,6.432,9.446,7.438,13.668"></path></g><g><linearGradient id="hair2XMLID_893_" gradientUnits="userSpaceOnUse" x1="174.8091" y1="138.3989" x2="174.8091" y2="323.9639" gradientTransform="matrix(-1 0 0 1 397.8096 0)"><stop offset="0" style="stop-color:#FCFCE4"></stop><stop offset="0.5" style="stop-color:#A0C8DD"></stop><stop offset="1" style="stop-color:#5D6EC5"></stop></linearGradient><path style="fill:url(#hair2XMLID_893_);stroke:#1E1E1E;stroke-linecap:round;stroke-linejoin:round;" d="M234.058,312.64c0,0,15.879,27.539,15.679,28.945c-0.2,1.407-15.276,5.629-26.332,19.297s-9.85,12.663-9.85,12.663s4.824,10.452,9.045,11.859c-4.02,3.618-11.055,3.818-13.869,3.016c1.408,2.814,4.824,9.246,4.824,9.246s-5.427-4.423-8.241-9.648c-1.005-6.03-3.215-15.878-8.844-19.096c-1.608-8.242,6.23-32.162,18.291-43.819S234.058,312.64,234.058,312.64z"></path><linearGradient id="hair2XMLID_894_" gradientUnits="userSpaceOnUse" x1="188.0146" y1="345.1348" x2="188.0146" y2="374.9643" gradientTransform="matrix(-1 0 0 1 397.8096 0)"><stop offset="0" style="stop-color:#FCFCE4"></stop><stop offset="0.5" style="stop-color:#A0C8DD"></stop><stop offset="1" style="stop-color:#5D6EC5"></stop></linearGradient><path style="fill:url(#hair2XMLID_894_);stroke:#1E1E1E;stroke-linecap:round;stroke-linejoin:round;" d="M213.514,373.144c-2.613,4.221-6.433,9.446-7.438,13.668"></path></g></g><g><g><path style="fill:none;stroke:#000000;stroke-linecap:round;stroke-linejoin:round;" d="M203.18,202.979c-0.777,2.247-2.586,18.82,4.139,34.831c6.725,16.01,13.194,24.998,15.004,41.852"></path></g><g><g><path style="fill:none;stroke:#000000;stroke-linecap:round;stroke-linejoin:round;" d="M296.82,202.979c0.776,2.247,2.585,18.82-4.141,34.831c-6.725,16.01-13.192,24.998-15.002,41.852"></path></g></g></g></g></g></svg>