<svg xmlns="http://www.w3.org/2000/svg" width="500" height="500" version="1.1"><g id="x9089"><g><g><g><linearGradient id="hair2XMLID_899_" gradientUnits="userSpaceOnUse" x1="140.4136" y1="163.6265" x2="140.4136" y2="289.606"><stop offset="0" style="stop-color:#FCFCE4"></stop><stop offset="0.5" style="stop-color:#A0C8DD"></stop><stop offset="1" style="stop-color:#5D6EC5"></stop></linearGradient><path style="fill:url(#hair2XMLID_899_);stroke:#1E1E1E;stroke-linecap:round;stroke-linejoin:round;" d="M125.429,394.637c0,0,7.396,6.746,6.573,8.06c-0.823,1.315-6.767,2.846-8.673,2.08c0.258,3.543,12.13,19.2,33.864,19.974c-6.198-2.159-9.363-3.978-10.406-8.267c-3.184-0.785-6.467-4.964-6.467-4.964s10.449,5.91,15.293,3.328c4.843-2.579-1.164-6.503-1.164-6.503l-6.259,1.231c0,0,1.728,1.794,0.28,2.217c-1.446,0.42-9.533-3.39-11.033-9.014C135.124,398.027,125.429,394.637,125.429,394.637z"></path><path style="opacity:0.3;fill:#A13845;" d="M125.429,394.637c0,0,7.396,6.746,6.573,8.06c-0.823,1.315-6.767,2.846-8.673,2.08c0.258,3.543,12.13,19.2,33.864,19.974c-6.198-2.159-9.363-3.978-10.406-8.267c-3.184-0.785-6.467-4.964-6.467-4.964s10.449,5.91,15.293,3.328c4.843-2.579-1.164-6.503-1.164-6.503l-6.259,1.231c0,0,1.728,1.794,0.28,2.217c-1.446,0.42-9.533-3.39-11.033-9.014C135.124,398.027,125.429,394.637,125.429,394.637z"></path><linearGradient id="hair2XMLID_900_" gradientUnits="userSpaceOnUse" x1="150.6206" y1="163.6313" x2="150.6206" y2="289.6083"><stop offset="0" style="stop-color:#FCFCE4"></stop><stop offset="0.5" style="stop-color:#A0C8DD"></stop><stop offset="1" style="stop-color:#5D6EC5"></stop></linearGradient><path style="fill:url(#hair2XMLID_900_);stroke:#1E1E1E;stroke-linecap:round;stroke-linejoin:round;" d="M141.436,353.604l-9.714-11.203c0,0-2.806-4.094-6.545-0.688c1.444,4.225,4.89,8.256,4.89,8.256c-0.461-1.038-1.818-5.702-1.407-6.214c0.335-0.418,4.866,6.655,6.548,9.303c-3.019-0.472-5.979-0.929-5.979-0.929l8.019,14.274c0,0-12.317-1.957-16.969,3.279c2.166,6.337,30.734,31.756,40.758,34.674c0.511,0.148-14.284-12.822-18.069-15.754c4.684-0.371,17.144,0.371,24.275,4.017c7.131,3.646,10.101,5.241,13.718,4.189C170.199,388.354,141.436,353.604,141.436,353.604z"></path><path style="opacity:0.3;fill:#A13845;" d="M141.436,353.604l-9.714-11.203c0,0-2.806-4.094-6.545-0.688c1.444,4.225,4.89,8.256,4.89,8.256c-0.461-1.038-1.818-5.702-1.407-6.214c0.335-0.418,4.866,6.655,6.548,9.303c-3.019-0.472-5.979-0.929-5.979-0.929l8.019,14.274c0,0-12.317-1.957-16.969,3.279c2.166,6.337,30.734,31.756,40.758,34.674c0.511,0.148-14.284-12.822-18.069-15.754c4.684-0.371,17.144,0.371,24.275,4.017c7.131,3.646,10.101,5.241,13.718,4.189C170.199,388.354,141.436,353.604,141.436,353.604z"></path><linearGradient id="hair2XMLID_901_" gradientUnits="userSpaceOnUse" x1="140.7563" y1="163.6323" x2="140.7563" y2="289.6086"><stop offset="0" style="stop-color:#FCFCE4"></stop><stop offset="0.5" style="stop-color:#A0C8DD"></stop><stop offset="1" style="stop-color:#5D6EC5"></stop></linearGradient><path style="fill:url(#hair2XMLID_901_);stroke:#1E1E1E;stroke-linecap:round;stroke-linejoin:round;" d="M120.599,369.65c-0.342-0.825,0.17,8.405-0.521,11.197c2.81,3.874,4.526,6.26,4.526,6.26s-1.998,4.389-2.019,5.57c2.995,2.403,28.75,19.858,32.87,21.984c4.592-1.92,6.256-10.039,5.941-10.337C161.083,404.023,125.811,382.261,120.599,369.65z"></path><path style="opacity:0.3;fill:#A13845;" d="M125.164,387.188l-0.834,1.83c0,0,15.77,12.4,28.707,17.757C143.067,400.948,125.164,387.188,125.164,387.188z"></path><linearGradient id="hair2XMLID_902_" gradientUnits="userSpaceOnUse" x1="152.6597" y1="163.6309" x2="152.6597" y2="289.6076"><stop offset="0" style="stop-color:#FCFCE4"></stop><stop offset="0.5" style="stop-color:#A0C8DD"></stop><stop offset="1" style="stop-color:#5D6EC5"></stop></linearGradient><path style="fill:url(#hair2XMLID_902_);stroke:#1E1E1E;stroke-linecap:round;stroke-linejoin:round;" d="M167.583,393.729c4.114,3.497,11.158,6.474,14.056,5.41c-5.438,8.984-20.294-5.283-34.076-19.312c-13.782-14.03-23.386-26.89-23.734-27.561c-0.348-0.666,0.023-7.958,0.041-8.953c0.018-0.994,1.834-1.962,1.834-1.962S138.167,368.739,167.583,393.729z"></path><linearGradient id="hair2XMLID_903_" gradientUnits="userSpaceOnUse" x1="158.0254" y1="163.6265" x2="158.0254" y2="289.6064"><stop offset="0" style="stop-color:#FCFCE4"></stop><stop offset="0.5" style="stop-color:#A0C8DD"></stop><stop offset="1" style="stop-color:#5D6EC5"></stop></linearGradient><path style="fill:url(#hair2XMLID_903_);stroke:#1E1E1E;stroke-linecap:round;stroke-linejoin:round;" d="M185.13,385.044c-0.183-0.629-2.747-3.232-3.732-4.216c0.175-0.89,1.034-5.167,2.173-9.187c-9.912-9.105-17.918-24.153-14.352-22.329c3.566,1.823,14.893,5.533,14.893,5.533l-36.536-29.301c0,0-3.504-0.791-8.9-0.873c-5.395-0.083-7.336,3.388-7.336,3.388l0.179,0.32c-0.107-0.123-0.181-0.209-0.181-0.209s-1.374,9.709,0.78,16.706c1.041,2.117,12.375,18.871,24.844,32.552c12.468,13.678,20.143,20.429,25.315,19.62c0.322-4.639,0.614-7.508,0.614-7.508S185.355,385.819,185.13,385.044z"></path><path style="opacity:0.3;fill:#A13845;" d="M169.219,349.313c3.566,1.823,14.893,5.533,14.893,5.533l-36.536-29.301c0,0-3.504-0.791-8.9-0.873c-5.395-0.083-7.336,3.388-7.336,3.388s0.047,1.809-0.157,4.311c2.093,8.141,16.642,26.197,24.542,31.478c-8.497-6.53-19.494-27.996-22.237-33.525l19.904,20.959c0,0,28.899,24.874,30.179,20.36C173.659,362.536,165.653,347.488,169.219,349.313z"></path><linearGradient id="hair2XMLID_904_" gradientUnits="userSpaceOnUse" x1="164.6157" y1="163.6289" x2="164.6157" y2="289.6077"><stop offset="0" style="stop-color:#FCFCE4"></stop><stop offset="0.5" style="stop-color:#A0C8DD"></stop><stop offset="1" style="stop-color:#5D6EC5"></stop></linearGradient><path style="fill:url(#hair2XMLID_904_);stroke:#1E1E1E;stroke-linecap:round;stroke-linejoin:round;" d="M143.861,305.256c0,0-1.778-1.132-2.634-0.261c-0.854,0.871-0.125,13.366,18.288,30.239c18.526,16.976,31.409,20.932,32.245,21.165c-4.088,0.6-23.703-9.206-34.556-19.322c-10.853-10.112-20.09-23.411-19.721-30.593c0.367-7.181,4.213-7.563,4.213-7.563L143.861,305.256z"></path><linearGradient id="hair2XMLID_905_" gradientUnits="userSpaceOnUse" x1="185.147" y1="163.6289" x2="185.147" y2="289.6075"><stop offset="0" style="stop-color:#FCFCE4"></stop><stop offset="0.5" style="stop-color:#A0C8DD"></stop><stop offset="1" style="stop-color:#5D6EC5"></stop></linearGradient><path style="fill:url(#hair2XMLID_905_);stroke:#1E1E1E;stroke-linecap:round;stroke-linejoin:round;" d="M143.407,290.434c0,0,1.339-1.193,3.912-1.893c2.571-0.698,6.274-2.114,6.906-1.663c0.301,1.035,2.407-0.406,2.906-1.578c0.675-1.904,1.823-3.51,2.798-4.379c2.081-0.115,3.517,0.054,3.517,0.054s8.798-0.161,16.313-9.039c7.562,15.299,45.204,47.565,45.204,47.565s2.111,7.106,1.91,9.461c-4.691,3.025-12.271,6.595-14.291,12.168c-4.737,5.528-11.035,8.969-15.034,9.057c-6.084,0.348-34.792-12.914-41.617-24.661C149.105,313.775,143.407,290.434,143.407,290.434z"></path><path style="opacity:0.3;fill:#A13845;" d="M189.812,299.947c0.144,0.887,7.042,17.501,20.379,22.864c13.337,5.362,15.898,5.254,15.898,5.254l-1.31-7.243L189.812,299.947z"></path><path style="opacity:0.3;fill:#A13845;" d="M162.998,281.409c0,0-0.574,3.013,0.037,4.718c0.609,1.702,4.579,16.578,18.055,23.122c6.823-1.443,8.689-2.963,8.689-2.963s-3.781-7.648-4.53-10.461c2.462,0.994,5.333,1.405,5.333,1.405s-9.675-8.915-11.814-23.468C171.442,281.021,162.998,281.409,162.998,281.409z"></path><linearGradient id="hair2XMLID_906_" gradientUnits="userSpaceOnUse" x1="169.6431" y1="163.6299" x2="169.6431" y2="289.6075"><stop offset="0" style="stop-color:#FCFCE4"></stop><stop offset="0.5" style="stop-color:#A0C8DD"></stop><stop offset="1" style="stop-color:#5D6EC5"></stop></linearGradient><path style="fill:url(#hair2XMLID_906_);stroke:#1E1E1E;stroke-linecap:round;stroke-linejoin:round;" d="M143.407,290.434c0,0-2.191,1.847-2.227,3.726c-0.033,1.879,1.239,17.93,8.186,25.11c-2.714-2.474-5.792-4.62-5.792-4.62s6.839,13.149,19.005,23.616c12.167,10.468,29.54,18.139,29.54,18.139s-10.774-7.792-13.001-10.7c5.807,3.848,12.86,5.172,18.988,4.6c-16.56-6.221-22.197-9.248-35.691-22.875C146.628,311.489,143.407,290.434,143.407,290.434z"></path><path style="opacity:0.3;fill:#A13845;" d="M143.407,290.434c0,0-2.191,1.847-2.227,3.726c-0.033,1.879,1.239,17.93,8.186,25.11c-2.714-2.474-5.792-4.62-5.792-4.62s6.839,13.149,19.005,23.616c12.167,10.468,29.54,18.139,29.54,18.139s-10.774-7.792-13.001-10.7c5.807,3.848,12.86,5.172,18.988,4.6c-16.56-6.221-22.197-9.248-35.691-22.875C146.628,311.489,143.407,290.434,143.407,290.434z"></path><linearGradient id="hair2XMLID_907_" gradientUnits="userSpaceOnUse" x1="212.3335" y1="163.6294" x2="212.3335" y2="289.6075"><stop offset="0" style="stop-color:#FCFCE4"></stop><stop offset="0.5" style="stop-color:#A0C8DD"></stop><stop offset="1" style="stop-color:#5D6EC5"></stop></linearGradient><path style="fill:url(#hair2XMLID_907_);stroke:#1E1E1E;stroke-linecap:round;stroke-linejoin:round;" d="M188,155.641c-18,35.028,2,103.854-13.333,120.446c1.451,0,14.357,37.009,48.98,45.457c7.698-1.211,13.853-5.541,13.853-5.541s-5.405-10.693-3.934-21.433c0.866-6.322,7.122-13.58,12.124-18.483c2.769,0,4.31,0,4.31,0v-3.973v-33.257V127.372C250,127.372,206,120.612,188,155.641z"></path><path style="opacity:0.3;fill:#A13845;" d="M154.489,287.729c-0.144,0.041-0.479-0.535-0.631-0.49c-1.68,0.048-3.41,0.685-3.41,0.685s3.236,0.088,4.109,0.542c0.871,0.456,0.811,3.919,1.197,4.589c0.387,0.668,10.619,23.157,20.035,28.681c-3.837-4.479-7.248-10.503-6.346-11.669c0.9-1.166,8.667,7.209,12.576,7.637c-7.879-6.459-21.905-17.948-24.045-28.006c-0.55-2.584-0.152-4.865-0.152-4.865s-0.834,1.829-1.803,2.403C155.698,287.424,155.24,287.502,154.489,287.729z"></path><path style="opacity:0.3;fill:#A13845;" d="M221.847,314.883c-6.105-5.342-14.452-20.289-14.483-20.373c-6.195-17.672-1.418-29.698,5.159-39.321c5.583-8.173,8.197-20.219,8.197-20.219s-6.56,9.188-14.183,15.114c-7.292,5.669-14.998,6.996-15.197,9.202c-1.448,4.486,0.375,13.546,5.14,22.788c-0.02,1.022-0.243,1.978-1.024,1.967c-1.68-0.025-7.137-7.849-7.89-14.86C180.869,290.379,202.041,313.697,221.847,314.883z"></path><path style="opacity:0.3;fill:#A13845;" d="M221.182,253.844c3.959-9.833,5.737-16.717,5.737-16.717s-2.127,11.613-4.636,17.766c-2.509,6.153-5.5,21.438-5.061,23.656C217.662,280.767,213.986,271.719,221.182,253.844z"></path><path style="opacity:0.3;fill:#A13845;stroke:#000000;stroke-linecap:round;stroke-linejoin:round;" d="M144.076,384.749"></path></g><path style="opacity:0.5;fill:#FFFFFF;" d="M163.782,294.559c-0.336,0.087-0.642-1.004-1.791-0.415c-1.15,0.593,0.336,4.648,1.72,4.338c1.386-0.311,0.281-2.261,0.944-2.473c0.664-0.21,3.165,0.768,4.401,2.057c-2.289-2.799-5.467-9.48-5.467-9.48S165.771,294.036,163.782,294.559z"></path><path style="opacity:0.5;fill:#FFFFFF;" d="M154.67,295.544c0,0,7.184,10.722,7.295,11.22c0.111,0.502-0.256,0.883-0.022,1.272c0.232,0.392,5.25,8.206,5.415,9.094c-3.235-3.588-8.659-12.184-10.75-12.546c-2.092-0.364-5.448,2.845-5.296,4.342c-1.586-1.739-3.022-5.298-2.943-6.347c1.714,1.406,4.358,1.377,5.885-0.519C156.277,299.547,154.67,295.544,154.67,295.544z"></path><path style="opacity:0.5;fill:#FFFFFF;" d="M179.203,274.01c-0.051-0.443-0.124-2.123,0.856-3.176c0.698,1.172,1.927,1.779,3.098,0.029c1.171-1.752,2.173-6.363,2.173-6.363s-0.513,14.127,0.448,17.458c-1.486-4.114-3.98-8.851-5.118-8.922C179.521,272.963,179.203,274.01,179.203,274.01z"></path><path style="opacity:0.5;fill:#FFFFFF;" d="M215.672,250.13c0.185-0.329,1.666-2.628,2.095-3.176c0.104,0.943,2.969,1.65,4.637-1.033c-1.39,3.905-2.085,5.938-2.085,5.938s-0.377-2.437-1.756-2.457C217.183,249.38,215.672,250.13,215.672,250.13z"></path><path style="opacity:0.5;fill:#FFFFFF;" d="M139.909,341.789c-0.181,0.059,2.03,3.846,2.979,4.468c-0.806-1.892-0.601-3.324,0.47-2.813c1.07,0.515,5.939,3.188,7.251,3.595c-4.073-3.545-9.901-9.658-11.269-10.287C140.557,339.091,141.778,341.21,139.909,341.789z"></path></g><g><g><path style="fill:#232323;stroke:#000000;stroke-linecap:round;stroke-linejoin:round;" d="M374.571,394.637c0,0-7.396,6.746-6.572,8.06c0.822,1.315,6.768,2.846,8.673,2.08c-0.257,3.543-12.13,19.2-33.864,19.974c6.198-2.159,9.363-3.978,10.406-8.267c3.184-0.785,6.468-4.964,6.468-4.964s-10.45,5.91-15.294,3.328c-4.842-2.579,1.164-6.503,1.164-6.503l6.259,1.231c0,0-1.728,1.794-0.279,2.217c1.445,0.42,9.532-3.39,11.033-9.014C364.877,398.027,374.571,394.637,374.571,394.637z"></path><path style="fill:#232323;stroke:#000000;stroke-linecap:round;stroke-linejoin:round;" d="M358.564,353.604l9.715-11.203c0,0,2.805-4.094,6.544-0.688c-1.444,4.225-4.89,8.256-4.89,8.256c0.462-1.038,1.817-5.702,1.406-6.214c-0.336-0.418-4.865,6.655-6.549,9.303c3.02-0.472,5.98-0.929,5.98-0.929l-8.02,14.274c0,0,12.317-1.957,16.97,3.279c-2.165,6.337-30.735,31.756-40.76,34.674c-0.509,0.148,14.285-12.822,18.071-15.754c-4.685-0.371-17.146,0.371-24.277,4.017c-7.131,3.646-10.1,5.241-13.717,4.189C329.802,388.354,358.564,353.604,358.564,353.604z"></path><path style="fill:#3F3C3F;stroke:#000000;stroke-linecap:round;stroke-linejoin:round;" d="M379.4,369.65c0.342-0.825-0.169,8.405,0.521,11.197c-2.81,3.874-4.526,6.26-4.526,6.26s1.999,4.389,2.021,5.57c-2.996,2.403-28.751,19.858-32.871,21.984c-4.591-1.92-6.255-10.039-5.941-10.337C338.916,404.023,374.189,382.261,379.4,369.65z"></path><path style="fill:#232323;" d="M374.838,387.188l0.832,1.83c0,0-15.77,12.4-28.706,17.757C356.934,400.948,374.838,387.188,374.838,387.188z"></path><path style="fill:#3F3C3F;stroke:#000000;stroke-linecap:round;stroke-linejoin:round;" d="M332.418,393.729c-4.115,3.497-11.16,6.474-14.058,5.41c5.439,8.984,20.295-5.283,34.077-19.312c13.781-14.03,23.386-26.89,23.733-27.561c0.348-0.666-0.023-7.958-0.04-8.953c-0.018-0.994-1.835-1.962-1.835-1.962S361.834,368.739,332.418,393.729z"></path><path style="fill:#3F3C3F;stroke:#000000;stroke-linecap:round;stroke-linejoin:round;" d="M314.87,385.044c0.183-0.629,2.746-3.232,3.73-4.216c-0.174-0.89-1.031-5.167-2.172-9.187c9.913-9.105,17.92-24.153,14.354-22.329c-3.566,1.823-14.895,5.533-14.895,5.533l36.537-29.301c0,0,3.505-0.791,8.899-0.873c5.396-0.083,7.336,3.388,7.336,3.388l-0.179,0.32c0.106-0.123,0.182-0.209,0.182-0.209s1.373,9.709-0.78,16.706c-1.041,2.117-12.376,18.871-24.844,32.552c-12.469,13.678-20.144,20.429-25.316,19.62c-0.32-4.639-0.613-7.508-0.613-7.508S314.644,385.819,314.87,385.044z"></path><path style="fill:#232323;" d="M330.782,349.313c-3.566,1.823-14.895,5.533-14.895,5.533l36.537-29.301c0,0,3.505-0.791,8.899-0.873c5.396-0.083,7.336,3.388,7.336,3.388s-0.047,1.809,0.157,4.311c-2.093,8.141-16.641,26.197-24.542,31.478c8.495-6.53,19.494-27.996,22.238-33.525l-19.905,20.959c0,0-28.899,24.874-30.18,20.36C326.342,362.536,334.349,347.488,330.782,349.313z"></path><path style="fill:#3F3C3F;stroke:#000000;stroke-linecap:round;stroke-linejoin:round;" d="M356.139,305.256c0,0,1.779-1.132,2.634-0.261c0.855,0.871,0.126,13.366-18.288,30.239c-18.525,16.976-31.408,20.932-32.244,21.165c4.089,0.6,23.704-9.206,34.557-19.322c10.853-10.112,20.089-23.411,19.72-30.593c-0.366-7.181-4.213-7.563-4.213-7.563L356.139,305.256z"></path><path style="fill:#3F3C3F;stroke:#000000;stroke-linecap:round;stroke-linejoin:round;" d="M356.593,290.434c0,0-1.339-1.193-3.911-1.893c-2.571-0.698-6.273-2.114-6.906-1.663c-0.302,1.035-2.405-0.406-2.907-1.578c-0.674-1.904-1.821-3.51-2.797-4.379c-2.08-0.115-3.517,0.054-3.517,0.054s-8.798-0.161-16.313-9.039c-7.562,15.299-45.204,47.565-45.204,47.565s-2.111,7.106-1.911,9.461c4.691,3.025,12.272,6.595,14.292,12.168c4.736,5.528,11.034,8.969,15.034,9.057c6.082,0.348,34.791-12.914,41.616-24.661C350.896,313.775,356.593,290.434,356.593,290.434z"></path><path style="fill:#232323;" d="M310.188,299.947c-0.144,0.887-7.042,17.501-20.379,22.864c-13.337,5.362-15.899,5.254-15.899,5.254l1.312-7.243L310.188,299.947z"></path><path style="fill:#232323;" d="M337.003,281.409c0,0,0.572,3.013-0.036,4.718c-0.61,1.702-4.581,16.578-18.056,23.122c-6.823-1.443-8.689-2.963-8.689-2.963s3.78-7.648,4.53-10.461c-2.462,0.994-5.333,1.405-5.333,1.405s9.676-8.915,11.814-23.468C328.559,281.021,337.003,281.409,337.003,281.409z"></path><path style="fill:#232323;stroke:#000000;stroke-linecap:round;stroke-linejoin:round;" d="M356.593,290.434c0,0,2.192,1.847,2.227,3.726c0.032,1.879-1.238,17.93-8.186,25.11c2.715-2.474,5.791-4.62,5.791-4.62s-6.839,13.149-19.005,23.616c-12.166,10.468-29.539,18.139-29.539,18.139s10.774-7.792,13.001-10.7c-5.807,3.848-12.859,5.172-18.988,4.6c16.561-6.221,22.198-9.248,35.692-22.875C353.371,311.489,356.593,290.434,356.593,290.434z"></path><path style="fill:#3F3C3F;stroke:#000000;stroke-linecap:round;stroke-linejoin:round;" d="M325.333,276.087C310,259.495,330,190.668,312,155.641c-18-35.028-62-28.269-62-28.269v111.485v33.257v3.973c0,0,1.541,0,4.31,0c5.001,4.903,11.259,12.161,12.125,18.483c1.471,10.739-3.935,21.433-3.935,21.433s6.154,4.33,13.854,5.541C310.977,313.096,323.882,276.087,325.333,276.087z"></path><path style="fill:#232323;" d="M345.511,287.729c0.145,0.041,0.479-0.535,0.632-0.49c1.679,0.048,3.409,0.685,3.409,0.685s-3.235,0.088-4.108,0.542c-0.869,0.456-0.812,3.919-1.196,4.589c-0.388,0.668-10.619,23.157-20.035,28.681c3.837-4.479,7.248-10.503,6.346-11.669c-0.899-1.166-8.666,7.209-12.575,7.637c7.879-6.459,21.905-17.948,24.045-28.006c0.55-2.584,0.152-4.865,0.152-4.865s0.834,1.829,1.803,2.403C344.302,287.424,344.76,287.502,345.511,287.729z"></path><path style="fill:#232323;" d="M278.151,314.883c6.106-5.342,14.454-20.289,14.483-20.373c6.196-17.672,1.419-29.698-5.157-39.321c-5.584-8.173-8.196-20.219-8.196-20.219s6.558,9.188,14.182,15.114c7.293,5.669,15,6.996,15.197,9.202c1.448,4.486-0.374,13.546-5.14,22.788c0.02,1.022,0.243,1.978,1.024,1.967c1.68-0.025,7.137-7.849,7.89-14.86C319.131,290.379,297.96,313.697,278.151,314.883z"></path><path style="fill:#232323;" d="M278.817,253.844c-3.958-9.833-5.737-16.717-5.737-16.717s2.127,11.613,4.638,17.766c2.509,6.153,5.5,21.438,5.061,23.656C282.337,280.767,286.014,271.719,278.817,253.844z"></path><path style="fill:#232323;stroke:#000000;stroke-linecap:round;stroke-linejoin:round;" d="M355.925,384.749"></path></g><path style="opacity:0.5;fill:#FFFFFF;" d="M336.219,294.559c0.334,0.087,0.641-1.004,1.791-0.415c1.149,0.593-0.337,4.648-1.722,4.338c-1.386-0.311-0.282-2.261-0.944-2.473c-0.663-0.21-3.164,0.768-4.401,2.057c2.289-2.799,5.468-9.48,5.468-9.48S334.229,294.036,336.219,294.559z"></path><path style="opacity:0.5;fill:#FFFFFF;" d="M345.33,295.544c0,0-7.185,10.722-7.296,11.22c-0.11,0.502,0.257,0.883,0.022,1.272c-0.231,0.392-5.249,8.206-5.413,9.094c3.234-3.588,8.658-12.184,10.748-12.546c2.093-0.364,5.449,2.845,5.297,4.342c1.587-1.739,3.022-5.298,2.944-6.347c-1.715,1.406-4.358,1.377-5.887-0.519C343.723,299.547,345.33,295.544,345.33,295.544z"></path><path style="opacity:0.5;fill:#FFFFFF;" d="M320.797,274.01c0.052-0.443,0.125-2.123-0.855-3.176c-0.699,1.172-1.927,1.779-3.098,0.029c-1.172-1.752-2.173-6.363-2.173-6.363s0.511,14.127-0.447,17.458c1.486-4.114,3.978-8.851,5.117-8.922C320.479,272.963,320.797,274.01,320.797,274.01z"></path><path style="opacity:0.5;fill:#FFFFFF;" d="M284.329,250.13c-0.187-0.329-1.666-2.628-2.097-3.176c-0.104,0.943-2.969,1.65-4.636-1.033c1.39,3.905,2.084,5.938,2.084,5.938s0.378-2.437,1.757-2.457C282.816,249.38,284.329,250.13,284.329,250.13z"></path><path style="opacity:0.5;fill:#FFFFFF;" d="M360.092,341.789c0.181,0.059-2.03,3.846-2.979,4.468c0.807-1.892,0.601-3.324-0.469-2.813c-1.07,0.515-5.939,3.188-7.252,3.595c4.073-3.545,9.901-9.658,11.269-10.287C359.443,339.091,358.223,341.21,360.092,341.789z"></path></g></g></g></svg>