<svg xmlns="http://www.w3.org/2000/svg" width="500" height="500" version="1.1"><g id="x9098"><g><linearGradient id="hair2XMLID_919_" gradientUnits="userSpaceOnUse" x1="249.9995" y1="85.5" x2="249.9995" y2="389.5001"><stop offset="0" style="stop-color:#FCFCE4"></stop><stop offset="0.5" style="stop-color:#A0C8DD"></stop><stop offset="1" style="stop-color:#5D6EC5"></stop></linearGradient><path style="fill:url(#hair2XMLID_919_);stroke:#1E1E1E;stroke-linecap:round;stroke-linejoin:round;" d="M293,192c0,0,7,14.5,21,22c-11-11-27-91.5-27-91.5c-11.5-37-37-38.5-37-38.5s-25.5,1.5-37,38.5c0,0-16,80.5-27,91.5c14-7.5,21-22,21-22s1.5,78.5-21,120c20-17.5,25-47,25-47c-1.811,32.602-3.366,37.583,0.5,60.5C218.5,367,250,403,250,403s31.5-36,38.5-77.5c3.865-22.917,2.311-27.898,0.5-60.5c0,0,5,29.5,25,47C291.5,270.5,293,192,293,192z"></path><g><path style="fill:#363032;stroke:#000000;stroke-linecap:round;stroke-linejoin:round;" d="M237.732,116.376c4.417-0.189,9.552-0.08,9.552-0.08l-24.82-13.453c-12.474,4.319-48.771,34.998-50.249,39.878c5.009,10.531,24.357,21.589,26.3,22.279c16.247-22.54,48.223-48.255,48.223-48.255l-7.963-0.771L197.516,148c-4.688-3.467-9-4.5-9-4.5s32.745-28.215,34.928-30.014C226.444,113.504,231.953,113.808,237.732,116.376z"></path><path style="fill:#363032;stroke:#000000;stroke-linecap:round;stroke-linejoin:round;" d="M262.268,116.376c-4.416-0.189-9.552-0.08-9.552-0.08l24.819-13.453c12.475,4.319,48.771,34.998,50.249,39.878c-5.009,10.531-24.357,21.589-26.3,22.279c-16.246-22.54-48.223-48.255-48.223-48.255l7.963-0.771L302.484,148c4.688-3.467,9-4.5,9-4.5s-32.745-28.215-34.928-30.014C273.557,113.504,268.047,113.808,262.268,116.376z"></path></g></g></g></svg>