<svg xmlns="http://www.w3.org/2000/svg" width="500" height="500" version="1.1"><g id="x011"><g><path style="fill:#FFD661;stroke:#000000;stroke-linecap:round;stroke-linejoin:round;" d="M248.298,289.397c-0.561,0.355-1.208,0.572-1.77,0.926c-0.015,8.893-0.277,16.053,0.409,16.857c3.079,3.6,6.341,0.48,6.341,0.48l0.1-16.568C251.995,289.917,250.356,289.187,248.298,289.397z"></path><path style="fill:#5A3D1C;stroke:#000000;stroke-linecap:round;stroke-linejoin:round;" d="M250.624,263.056c-1.428-0.078-3.137,1.726-3.137,1.726s-0.938,13.429-0.958,25.542c0.562-0.354,1.209-0.57,1.77-0.926c2.058-0.211,3.697,0.52,5.081,1.695l0.153-25.123C253.532,265.97,252.541,263.159,250.624,263.056z"></path></g></g></svg>