<svg xmlns="http://www.w3.org/2000/svg" width="500" height="500" version="1.1"><g id="x012"><g><path style="fill:#FFFFFF;stroke:#000000;stroke-linecap:round;stroke-linejoin:round;" d="M234.174,285.52l4.803,2.68l8.451-15.334c-1.238-1.235-2.771-2.182-4.464-2.633L234.174,285.52z"></path><path style="fill:#B2B2B2;stroke:#000000;stroke-linecap:round;stroke-linejoin:round;" d="M235.302,283.564c-0.391,0.279-2.579,4.355-2.579,4.355s0.369,0.271,0.893,0.646c0.113,0.081,0.425-0.05,0.551,0.039c0.123,0.087,0.059,0.394,0.19,0.485c0.219,0.154,0.446,0.313,0.671,0.468c0.231,0.159,0.693-0.015,0.91,0.13c0.184,0.122,0.127,0.565,0.288,0.666c0.47,0.295,0.809,0.475,0.853,0.414c0.727-1.006,1.843-3.016,2.513-4.467C239.255,286.189,235.302,283.564,235.302,283.564z"></path><path style="fill:#6E6E6E;stroke:#000000;stroke-linecap:round;stroke-linejoin:round;" d="M247.017,263.186l-4.053,7.047c1.693,0.451,3.226,1.397,4.464,2.633l4.167-7.559C249.757,262.755,247.017,263.186,247.017,263.186z"></path></g></g></svg>