<svg xmlns="http://www.w3.org/2000/svg" width="500" height="500" version="1.1"><g id="x014"><g><g><g><path style="fill:#FF94C2;" d="M256.546,262.378c-1.499,1.454-4.135,2.422-7.145,2.422s-5.646-0.968-7.145-2.422c-10.094,1.918-17.441,7.744-17.441,14.171v3.151c0,7.867,11.008,14.246,24.586,14.246s24.586-6.379,24.586-14.246v-3.151C273.987,270.122,266.64,264.296,256.546,262.378z"></path><path style="fill:#FF61A4;" d="M249.513,288.026c-8.933,0-16.805-1.672-21.216-7.002v2.932c0,0,2.311,7.867,21.216,7.867c18.906,0,21.217-7.867,21.217-7.867v-2.932C266.318,286.354,258.446,288.026,249.513,288.026z"></path><path style="fill:none;stroke:#FFBF00;stroke-linecap:round;stroke-linejoin:round;" d="M248.48,272.868c0,0,5.862,0.392,6.281-1.764c0.27-1.387-2.233-2.611-5.584-2.611s-7.174,1.066-7.397,3.33s0.754,4.68,7.845,4.68c6.699,0,12.674-2.611,12.674-5.746s-4.606-5.398-13.567-5.398c-8.04,0-15.187,3.199-15.187,7.641c0,4.439,4.243,8.031,16.303,8.031c12.061,0,18.091-3.309,18.091-7.313"></path><path style="opacity:0.5;fill:#FFFFFF;" d="M228.297,276.524c0-4.934,4.467-11.055,17.195-11.166c-5.918,4.355-5.862,6.789-5.917,9.156c-0.112,4.803,8.263,11.838,7.593,11.949S228.297,284.565,228.297,276.524z"></path></g><g><g><ellipse style="fill:#997552;" cx="249.402" cy="310.024" rx="1.591" ry="0.67"></ellipse></g></g></g><path style="fill:none;stroke:#000000;stroke-linecap:round;stroke-linejoin:round;" d="M256.546,262.378c-1.499,1.454-4.135,1.122-7.145,1.122s-5.646,0.332-7.145-1.122c-10.094,1.918-17.441,7.744-17.441,14.171v3.151c0,7.867,11.008,14.246,24.586,14.246s24.586-6.379,24.586-14.246v-3.151C273.987,270.122,266.64,264.296,256.546,262.378z"></path></g><path style="fill:#BEA36D;stroke:#000000;stroke-linecap:round;stroke-linejoin:round;" d="M252.751,310.808c0,0-0.559,2.01-3.35,2.01s-3.35-2.01-3.35-2.01v-18.855h6.699V310.808z"></path><g><path style="fill:#6E6E6E;stroke:#000000;stroke-linecap:round;stroke-linejoin:round;" d="M249.813,292.349c-0.45,0.057-13.604,5.662-14.775,5.262s-1.893-8.75-0.541-9.838S249.813,292.349,249.813,292.349z"></path><path style="fill:#6E6E6E;stroke:#000000;stroke-linecap:round;stroke-linejoin:round;" d="M248.99,292.349c0.452,0.057,13.605,5.662,14.776,5.262s1.893-8.752,0.541-9.838C262.956,286.685,248.99,292.349,248.99,292.349z"></path></g></g></svg>