<svg xmlns="http://www.w3.org/2000/svg" width="500" height="500" version="1.1"><g id="x015"><g><path style="fill:#E89C65;stroke:#000000;stroke-linecap:round;stroke-linejoin:round;" d="M271.616,262.123l-15.538,1.229c0,0,0.088,1.814-6.078,1.814c-6.167,0-6.079-1.814-6.079-1.814l-15.538-1.229c0,0-8.86,26.969-8.86,30.209s4.119,10.807,4.119,10.807s25.122-1.889,26.357-2.699c1.234,0.811,26.359,2.699,26.359,2.699s4.117-7.566,4.117-10.807S271.616,262.123,271.616,262.123z"></path><path style="fill:#CA7E47;" d="M257.666,290.667c0,0-2.5-0.667-3.166-1c-0.668-0.333-4.5,0.833-4.5,0.833s-3.833-1.166-4.5-0.833s-3.167,1-3.167,1l-21.833,2l3.833,9.5l25.667-3l25.666,3l3.834-9.5L257.666,290.667z"></path><path style="fill:#FCD69E;stroke:#000000;stroke-linecap:round;stroke-linejoin:round;" d="M269.143,264.52c-0.721-0.539,0.078-1.89-1.603-1.89c-1.063,0-6.925,0.323-11.641,0.425c-0.574,1.695-11.225,1.695-11.799,0c-4.716-0.102-10.577-0.425-11.64-0.425c-1.682,0-0.883,1.351-1.604,1.89c0,0-5.363,17.552-5.845,25.652c0.24,1.08,17.3-0.811,18.741-1.35c1.441-0.541,6.246,0.27,6.246,0.27s4.806-0.811,6.247-0.27c1.441,0.539,18.5,2.43,18.74,1.35C274.507,282.071,269.143,264.52,269.143,264.52z"></path><g><line style="fill:none;stroke:#B38165;stroke-linecap:round;stroke-linejoin:round;" x1="241.293" y1="275.996" x2="254.732" y2="269.785"></line><line style="fill:none;stroke:#B38165;stroke-linecap:round;stroke-linejoin:round;" x1="246.024" y1="281.126" x2="259.465" y2="274.916"></line></g><g><line style="fill:none;stroke:#B38165;stroke-linecap:round;stroke-linejoin:round;" x1="259.465" y1="275.996" x2="246.024" y2="269.785"></line><line style="fill:none;stroke:#B38165;stroke-linecap:round;stroke-linejoin:round;" x1="254.732" y1="281.126" x2="241.293" y2="274.916"></line></g></g></g></svg>