<svg xmlns="http://www.w3.org/2000/svg" width="500" height="500" version="1.1"><g id="x016"><g><path style="fill:#FFFCF7;stroke:#000000;stroke-linecap:round;stroke-linejoin:round;" d="M273.98,275.856c-3.35-6.365-13.232-11.055-19.095-12.897c-1.34,1.675-5.527,0.958-5.527,0.958s-4.188,0.717-5.527-0.958c-5.863,1.843-15.745,6.532-19.096,12.897c-3.243,6.166-1.842,14.07,4.69,18.258c6.728,4.313,19.933,4.02,19.933,4.02s13.205,0.293,19.933-4.02C275.823,289.927,277.226,282.022,273.98,275.856z"></path><g><path style="fill:#FFEBD6;" d="M269.669,273.261c0,0,4.606,4.438,4.104,9.799c-0.502,5.359-2.764,10.385-14.907,12.646C275.699,289.509,269.669,273.261,269.669,273.261z"></path><path style="fill:#FFEBD6;" d="M229.173,273.261c0,0-4.606,4.438-4.104,9.799c0.503,5.359,2.765,10.385,14.908,12.646C223.143,289.509,229.173,273.261,229.173,273.261z"></path></g><g><g><path style="fill:#FFEBD6;" d="M239.729,267.983c-0.838,0-6.867,2.346-6.532,4.858s1.507,1.675,1.507,1.675L239.729,267.983z"></path><path style="fill:#FFEBD6;" d="M241.846,270.392c0,0-4.596,5.059-3.778,6.833c0.818,1.774,2.835,0.14,2.835,0.14L241.846,270.392z"></path></g><g><path style="fill:#FFEBD6;" d="M258.988,267.983c0.837,0,6.867,2.346,6.532,4.858s-1.508,1.675-1.508,1.675L258.988,267.983z"></path><path style="fill:#FFEBD6;" d="M256.871,270.392c0,0,4.596,5.059,3.777,6.833c-0.817,1.774-2.833,0.14-2.833,0.14L256.871,270.392z"></path></g></g></g></g></svg>