<svg xmlns="http://www.w3.org/2000/svg" width="500" height="500" version="1.1"><g id="x017"><g><g><path style="fill:#F5C26D;stroke:#000000;stroke-linecap:round;stroke-linejoin:round;" d="M262.369,246.473c-0.067-0.188-0.123-0.367-0.219-0.453c-5.019-4.522-19.282-4.522-24.301,0c-0.096,0.086-0.15,0.266-0.219,0.453c-0.754,2.061-0.926,8.215,1.012,7.754c2.112-0.502,6.074-1.172,11.358-1.172c5.282,0,9.244,0.67,11.357,1.172C263.295,254.688,263.123,248.534,262.369,246.473z"></path></g><path style="fill:#FFFFFF;stroke:#000000;stroke-linecap:round;stroke-linejoin:round;" d="M253.995,248.812c0,1.389-1.126,2.516-2.516,2.516h-3.005c-1.388,0-2.515-1.127-2.515-2.516v-1.677c0-1.389,1.127-2.516,2.515-2.516h3.005c1.39,0,2.516,1.126,2.516,2.516V248.812z"></path></g></g></svg>