<svg xmlns="http://www.w3.org/2000/svg" width="500" height="500" version="1.1"><g id="x002"><g><g><path style="fill:#6E6E6E;stroke:#000000;stroke-linecap:round;stroke-linejoin:round;" d="M203.63,249.645l-14.781-20.253c0,0-1.022,2.965,0.406,5.108c1.428,2.143,16.25,22,16.25,22L203.63,249.645z"></path><path style="fill:#6E6E6E;stroke:#000000;stroke-linecap:round;stroke-linejoin:round;" d="M296.369,249.645l14.781-20.253c0,0,1.023,2.965-0.406,5.108c-1.428,2.143-16.25,22-16.25,22L296.369,249.645z"></path></g><g><path style="fill:#6E6E6E;stroke:#000000;stroke-linecap:round;stroke-linejoin:round;" d="M250.25,239c-0.076,0-0.162,0.002-0.25,0.006c-0.088-0.003-0.174-0.006-0.25-0.006c-5.858,0-33.75,10.5-46.25,10.645c0,0,2.818,17.131,8.768,21.605c4.672,3.511,35.193,7.986,37.732,8.104c2.539-0.117,33.061-4.593,37.732-8.104c5.949-4.474,8.768-21.605,8.768-21.605C284,249.5,256.107,239,250.25,239z"></path><path style="fill:#505050;" d="M280.528,264.981c0,0-25.049,1.277-27.24,0.958l-0.413,10.561C252.875,276.5,263.932,275.838,280.528,264.981z"></path><path style="fill:#505050;" d="M245.75,267.75l-19.5,1.25c0,0,17.75,5,21,5.25C246.25,271.5,245.75,267.75,245.75,267.75z"></path><path style="fill:#505050;" d="M249.75,277l0.5-25.25c0,0-3.25,6.25-3.75,9.25S249.75,277,249.75,277z"></path></g></g></g></svg>