<svg xmlns="http://www.w3.org/2000/svg" width="500" height="500" version="1.1"><g id="x020"><g><g><path style="fill:#6E6E6E;stroke:#000000;stroke-linecap:round;stroke-linejoin:round;" d="M188.536,176.628c9.492-2.848,28.951-5.695,61.226-5.695c32.275,0,53.159,3.323,61.703,5.695c2.373,16.137,2.848,26.104,2.848,26.104s-21.833-5.695-64.075-5.695s-64.55,5.695-64.55,5.695S185.688,191.816,188.536,176.628z"></path><g><path style="fill:#505050;" d="M290.719,173.625c2.875,3.125,4.625,11.5-0.563,24.836c7.594,0.475,23.688,3.414,23.688,3.414s-0.875-17.125-3-25C304.344,175.25,290.719,173.625,290.719,173.625z"></path><path style="fill:#505050;" d="M209.281,173.625c-2.875,3.125-4.625,11.5,0.563,24.836c-7.594,0.475-23.688,3.414-23.688,3.414s0.875-17.125,3-25C195.656,175.25,209.281,173.625,209.281,173.625z"></path></g></g><path style="fill:#B2B2B2;stroke:#000000;stroke-linecap:round;stroke-linejoin:round;" d="M270.606,192.775c0,0-5.214-0.497-19.614-0.497c-14.4,0-21.6,0.497-21.6,0.497v-16.387c0,0,10.18-0.497,21.104-0.497c10.923,0,20.11,0.497,20.11,0.497V192.775z"></path></g></g></svg>