<svg xmlns="http://www.w3.org/2000/svg" width="500" height="500" version="1.1"><g id="x021"><g><g><g><path style="fill:#6E6E6E;stroke:#000000;stroke-linecap:round;stroke-linejoin:round;" d="M188.636,171.482c9.477-2.68,28.904-5.36,61.127-5.36c32.224,0,53.073,3.127,61.603,5.36c2.369,15.187,2.843,34.394,2.843,34.394s-21.797-5.36-63.971-5.36c-42.173,0-64.445,5.36-64.445,5.36S185.792,185.776,188.636,171.482z"></path></g><g><path style="fill:#505050;" d="M208.13,168.625C204.152,173,201.234,195.5,208.661,202c-7.582,0.446-22.279,3.25-22.279,3.25s0.266-24.875,2.918-33.5C195.798,169.75,208.13,168.625,208.13,168.625z"></path><path style="fill:#505050;" d="M291.78,168.625c3.979,4.375,6.896,26.875-0.53,33.375c7.581,0.446,22.278,3.25,22.278,3.25s-0.266-24.875-2.917-33.5C304.113,169.75,291.78,168.625,291.78,168.625z"></path></g></g><g><path style="fill:#DEE6E6;stroke:#000000;stroke-linecap:round;stroke-linejoin:round;" d="M249.958,171.038c-14.443,0.03-27.666,0.741-27.666,0.741v24.495c0,0,9.224-0.701,27.666-0.74c18.443,0.039,27.666,0.74,27.666,0.74v-24.495C277.624,171.778,264.401,171.067,249.958,171.038z"></path><polygon style="fill:#6E6E6E;stroke:#000000;stroke-linecap:round;stroke-linejoin:round;" points="233.671,191.575 247.964,173.708 223.844,174.155 224.291,192.468 "></polygon><g><g><g><circle style="fill:#DEE6E6;stroke:#000000;stroke-linecap:round;stroke-linejoin:round;" cx="273.896" cy="191.583" r="2.456"></circle></g><g><circle style="fill:#DEE6E6;stroke:#000000;stroke-linecap:round;stroke-linejoin:round;" cx="273.896" cy="175.458" r="2.456"></circle></g></g><g><g><circle style="fill:#DEE6E6;stroke:#000000;stroke-linecap:round;stroke-linejoin:round;" cx="226.021" cy="191.583" r="2.456"></circle></g><g><circle style="fill:#DEE6E6;stroke:#000000;stroke-linecap:round;stroke-linejoin:round;" cx="226.021" cy="175.458" r="2.456"></circle></g></g></g></g></g></g></svg>