<svg xmlns="http://www.w3.org/2000/svg" width="500" height="500" version="1.1"><g id="x022"><g><g><path style="fill:#FFD15A;stroke:#000000;stroke-linecap:round;stroke-linejoin:round;" d="M186.432,187.732c0.824,0.749,10.683,10.72,48.995,12.06c0-4.355,0-8.04,0-8.04s-37.944-0.335-45.311-12.73C186.064,178.353,183.117,184.717,186.432,187.732z"></path><path style="fill:#D9A333;" d="M200.615,188.402c0,0-3.868,1.843,0.185,4.522c-7.185-1.675-13.354-6.449-13.354-6.449s-2.529-4.355,1.565-5.36C190.526,184.131,200.615,188.402,200.615,188.402z"></path></g><g><path style="fill:#FFD15A;stroke:#000000;stroke-linecap:round;stroke-linejoin:round;" d="M313.567,187.732c-0.823,0.749-10.683,10.72-48.995,12.06c0-4.355,0-8.04,0-8.04s37.944-0.335,45.312-12.73C313.937,178.353,316.883,184.717,313.567,187.732z"></path><path style="fill:#D9A333;" d="M299.436,188.402c0,0,4.328,1.675,0.276,4.355c7.367-2.345,12.616-6.281,12.616-6.281s2.621-4.606-1.473-5.611C309.34,183.88,299.436,188.402,299.436,188.402z"></path></g><g><circle style="fill:#FFD15A;stroke:#000000;stroke-linecap:round;stroke-linejoin:round;" cx="250.651" cy="191.25" r="25.962"></circle><path style="fill:#D9A333;" d="M246.129,209.507c0,1.005,3.099,3.015-0.587,5.36c5.36,1.088,18.342,0.837,25.377-10.72c-4.021,1.34-4.69-3.015-5.025-4.02S246.129,209.507,246.129,209.507z"></path><path style="fill:#FFFFFF;" d="M232.059,189.408c0,0-3.35-3.015-5.36-1.34c2.052-8.567,6.365-18.09,21.105-19.765C247.469,171.317,232.059,189.408,232.059,189.408z"></path><g><circle style="fill:#6E6E6E;stroke:#000000;stroke-linecap:round;stroke-linejoin:round;" cx="250.651" cy="191.25" r="19.597"></circle><circle style="fill:#505050;" cx="256.011" cy="194.6" r="11.223"></circle><circle style="fill:#FFFFFF;" cx="242.946" cy="184.885" r="5.862"></circle></g></g></g></g></svg>