<svg xmlns="http://www.w3.org/2000/svg" width="500" height="500" version="1.1"><g id="x023"><g><g><path style="fill:#FFD15A;stroke:#000000;stroke-linecap:round;stroke-linejoin:round;" d="M310.049,172.046c0,0-38.932,8.247-60.292,8.247c-21.359,0-61.002-8.247-61.002-8.247c-2.173,1.991-5.25,13.576-4.526,20.093c10.68,8.327,63.674,22.653,65.173,22.354c1.499,0.299,48.325-10.226,65.173-22.354C315.298,185.622,312.222,174.037,310.049,172.046z"></path><path style="fill:#D9A333;" d="M188.392,181.278c0,0,42.357,13.516,52.978,8.206c-0.482,0,0.965-1.448,0.965-1.448l-53.581-12.008L188.392,181.278z"></path><path style="fill:#FFFFFF;" d="M193.098,176.934c-4.476-0.807-3.982,0.181-3.982,0.181s1.956,0.656,5.325,1.621c7.486,2.141,26.81,6.991,42.283,8.335c2.627,0.228,0.42-0.8,3.077-0.724C230.143,184.519,206.132,180.373,193.098,176.934z"></path><path style="fill:#D9A333;" d="M311.363,180.795c0,0-43.926,13.999-54.547,8.689c0.484,0-0.965-1.448-0.965-1.448l53.988-10.921L311.363,180.795z"></path><path style="fill:#FFFFFF;" d="M305.857,176.934c4.476-0.807,3.982,0.181,3.982,0.181s-1.956,0.656-5.326,1.621c-7.485,2.141-26.81,6.991-42.282,8.335c-2.628,0.228-0.42-0.8-3.077-0.724C268.813,184.519,292.823,180.373,305.857,176.934z"></path><path style="fill:#D9A333;" d="M227.312,206.53c0,0,10.679-0.634,17.92-10.771c10.137,3.379,30.909,10.173,30.909,10.173s-20.803,6.059-25.116,6.239C246.68,212.353,227.312,206.53,227.312,206.53z"></path><path style="fill:#D9A333;" d="M294.951,184.657c0,0,7.481,9.473-2.655,15.99c9.232-3.439,20.273-9.413,20.273-9.413s0.327-7.603-1.845-13.214C306.862,176.571,294.951,184.657,294.951,184.657z"></path><path style="fill:#D9A333;" d="M203.959,184.657c0,0-7.15,7.392,2.626,15.175c-14.12-4.887-20.727-8.417-20.727-8.417s0.181-9.956,2.353-13.396C192.073,176.571,203.959,184.657,203.959,184.657z"></path></g><g><ellipse style="fill:#FFD15A;stroke:#000000;stroke-linecap:round;stroke-linejoin:round;" cx="250.119" cy="196.498" rx="13.457" ry="16.897"></ellipse><path style="fill:#D9A333;" d="M238.805,198.61c1.328,2.308,1.6,4.873,11.737,3.907s10.891-4.088,10.891-4.088s0.211,13.742-10.408,13.742C240.404,212.172,238.805,198.61,238.805,198.61z"></path><path style="fill:#FFFFFF;" d="M240.888,196.725c-2.897-0.965-0.483-13.516,6.757-13.516C243.3,192.381,240.888,196.725,240.888,196.725z"></path></g><g><ellipse style="fill:#6E6E6E;stroke:#000000;stroke-linecap:round;stroke-linejoin:round;" cx="250.119" cy="196.498" rx="7.114" ry="11.359"></ellipse><ellipse style="fill:#505050;" cx="252.064" cy="198.439" rx="4.074" ry="6.504"></ellipse><ellipse style="fill:#FFFFFF;" cx="247.322" cy="192.809" rx="2.127" ry="3.397"></ellipse></g></g></g></svg>