<svg xmlns="http://www.w3.org/2000/svg" width="500" height="500" version="1.1"><g id="x027"><g><path style="fill:#6E6E6E;stroke:#000000;stroke-linecap:round;stroke-linejoin:round;" d="M303.253,164.133c0,0-15.35-8.438-53.179-8.438s-53.326,8.438-53.326,8.438c-15.953,20.524-11.395,67.502-11.395,78.449c0.456,9.578,5.926,25.085,18.688,33.295c12.277,7.898,43.533,9.042,45.887,9.118V285c0,0,0.027-0.001,0.073-0.002c0.045,0.001,0.073,0.002,0.073,0.002v-0.005c2.354-0.076,33.61-1.22,45.887-9.118c12.762-8.21,18.23-23.717,18.687-33.295C314.647,231.636,319.205,184.658,303.253,164.133z M295.961,263.107c-4.558,3.192-26.436,9.577-37.374,11.401c-2.735-2.279-4.104-7.754-4.104-7.754l-4.482,2.04l-4.485-2.04c0,0-1.368,5.475-4.102,7.754c-10.938-1.824-32.816-8.209-37.373-11.401c-4.558-3.193-7.939-15.509-7.939-20.525c1.368,3.649,7.939,4.105,7.939,4.105l0.911-10.035c0,0-10.027-8.666-10.482-13.227c0.456-13.683,9.571-26.909,9.571-26.909c15.505-2.218,23.554-4.556,45.96-4.556c22.406,0,30.454,2.338,45.96,4.556c0,0,9.115,13.226,9.571,26.909c-0.456,4.561-10.483,13.227-10.483,13.227l0.912,10.034c0,0,6.571-0.457,7.938-4.105C303.898,247.599,300.52,259.914,295.961,263.107z"></path><path style="fill:#505050;" d="M249.833,157.083c0,0,6.337,27.076-0.5,33.917c14.129-0.911,46.667,1.583,64.417,10.5c-1.823-10.947-7.23-32.685-11.333-36.333C295.416,162.417,275.25,156.5,249.833,157.083z"></path><circle style="fill:#DEE6E6;stroke:#000000;stroke-linecap:round;stroke-linejoin:round;" cx="304.311" cy="235.969" r="2.735"></circle><circle style="fill:#DEE6E6;stroke:#000000;stroke-linecap:round;stroke-linejoin:round;" cx="196.063" cy="235.969" r="2.735"></circle><path style="fill:#505050;" d="M250.529,269.721l-0.695,14.196c0,0,28.583,0.25,46.274-9.636c-1.368-1.825-4.352-5.961-3.44-8.697c-10.417,4.083-23.834,8.332-34.417,9.499c-2.667-3.25-4.083-7.249-4.083-7.249L250.529,269.721z"></path><path style="opacity:0.5;fill:#FFFFFF;" d="M250.074,271.089l-0.457,11.858c0,0-5.47-4.562-5.47-5.929c0-1.369,2.28-6.843,2.28-6.843L250.074,271.089z"></path><path style="opacity:0.5;fill:#FFFFFF;" d="M214.979,162.538c0,0-14.585,3.648-17.775,6.841c-5.47,9.579-8.66,29.191-8.66,29.191s32.816-7.755,31.448-7.755c-1.367,0-17.319-2.736-14.584-11.857C208.143,169.835,214.979,162.538,214.979,162.538z"></path><path style="fill:none;stroke:#000000;stroke-linecap:round;stroke-linejoin:round;" d="M185.482,202.576c0,0,7.274-4.876,22.53-6.787"></path><path style="fill:none;stroke:#000000;stroke-linecap:round;stroke-linejoin:round;" d="M313.98,202.576c0,0-7.274-4.876-22.53-6.787"></path></g></g></svg>