<svg xmlns="http://www.w3.org/2000/svg" width="500" height="500" version="1.1"><g id="x028"><g><g><g><path style="fill:#6E6E6E;stroke:#000000;stroke-linecap:round;stroke-linejoin:round;" d="M310.214,197.096c-0.527-1.516-5.945-13.655-9.248-15.197c-3.305-1.542-46.889,6.252-50.965,6.252c-4.077,0-47.662-7.794-50.965-6.252c-3.303,1.542-8.723,13.681-9.25,15.197c-3.524,10.129-2.863,31.883-1.542,45.978c1.322,14.095,14.094,23.784,14.094,23.784s1.542-5.946,5.727-7.707c4.184-1.763,32.593-1.542,35.896-3.084c3.303-1.543,5.285-7.046,5.946-7.268c0-1.101,0.185-1.101,0.185,0c0.662,0.221,2.643,5.725,5.946,7.268c3.305,1.542,31.713,1.321,35.896,3.084c4.185,1.761,5.727,7.707,5.727,7.707s12.773-9.689,14.095-23.784S313.738,207.225,310.214,197.096z M219.736,242.818c-9.789,0.342-12.333,0.555-18.719-2.776c-6.387-3.33-6.387-19.983-6.387-19.983c6.277,1.388,9.163,1.329,14.535,1.388c10.775,0.12,17.178,1.11,20.811,4.718c4.796,4.761,7.598,8.604,8.258,10.27C236.457,236.822,227.665,242.541,219.736,242.818z M298.982,240.042c-6.387,3.331-8.931,3.118-18.719,2.776c-7.928-0.277-16.72-5.996-18.499-6.383c0.66-1.666,3.463-5.508,8.259-10.27c3.633-3.607,10.035-4.598,20.811-4.718c5.373-0.06,8.259,0,14.535-1.388C305.369,220.059,305.369,236.712,298.982,240.042z"></path></g></g><path style="fill:#505050;" d="M285.786,211.56c-12.954,1.341-31.807,8.554-35.786,10.422c-3.979-1.869-22.832-9.082-35.786-10.422c-9.273-0.959-18.228,7.036-18.228,7.036s3.518,1.279,8.954,1.918c5.436,0.639,20.06-1.847,25.227,4.32c7.563,7.802,10.5,14.667,10.5,14.667s5.363-2.952,9.333-4.123c3.97,1.17,9.333,4.123,9.333,4.123s2.938-6.865,10.5-14.667c5.167-6.167,19.791-3.681,25.227-4.32c5.437-0.64,8.954-1.918,8.954-1.918S295.06,210.6,285.786,211.56z"></path></g></g></svg>