<svg xmlns="http://www.w3.org/2000/svg" width="500" height="500" version="1.1"><g id="x029"><g><path style="fill:#6E6E6E;stroke:#000000;stroke-linecap:round;stroke-linejoin:round;" d="M312.717,217.055c0-11.055-1.351-41.63-12.061-52.595c-14.069-3.015-38.515-3.35-40.859-1.005c-2.346,2.345-0.346,83.75-0.681,86.43c-0.335,2.679,12.061,10.385,21.775,26.129c6.125-2.663,15.527-8.706,20.358-17.015c5.375-11.125,8.75-28.25,8.75-28.25S312.472,221.38,312.717,217.055z"></path><path style="fill:#505050;" d="M263.375,225.75c0,0-2.625,6.75-2.875,7.875c4.875,4.875,19,10.625,25.875,10.875c10-2.25,23.125-15.5,23.125-15.5s-3.125-9.25-3.75-9.25C302.125,219.25,280.125,219.625,263.375,225.75z"></path><path style="fill:none;stroke:#000000;stroke-linecap:round;stroke-linejoin:round;" d="M291.276,239.5c0,0,4.021,5.36,3.35,7.035c-0.67,1.675-1.901,13.388-13.626,29.132"></path><g><path d="M264.382,233.81c0,0,2.345-6.365,2.68-8.375c1.675-2.68,24.653-7.275,31.688-5.935c5,4.75,7.75,10.25,7.75,10.25s-13.644,12.435-22.354,12.77C277.111,242.185,264.382,233.81,264.382,233.81z"></path><circle style="fill:#FFFFFF;" cx="284.816" cy="230.13" r="5.36"></circle><path style="fill:none;stroke:#000000;stroke-linecap:round;stroke-linejoin:round;" d="M263.041,225.579c0,0,23.115-7.705,43.216-6.03"></path></g><path style="fill:none;stroke:#000000;stroke-linecap:round;stroke-linejoin:round;" d="M286.922,220.667c0-1.34,5.024-26.727-1.341-56.542"></path></g></g></svg>