<svg xmlns="http://www.w3.org/2000/svg" width="500" height="500" version="1.1"><g id="x003"><g><path style="fill:#6E6E6E;stroke:#000000;stroke-linecap:round;stroke-linejoin:round;" d="M269.712,249.605c-6.753-2.894-14.999-9.643-19.711-9.643c-4.714,0-12.959,6.749-19.712,9.643c-12.428,3.857-38.141-6.857-38.141-6.857s5.143,21,18.856,28.713c12.416,6.984,27.641,6.591,38.997,6.454c11.357,0.137,26.582,0.53,38.998-6.454c13.713-7.713,18.854-28.713,18.854-28.713S282.14,253.463,269.712,249.605z"></path><path style="opacity:0.5;fill:#FFFFFF;" d="M249.854,257.998v-16.107c0,0,10.498,4.714,12.642,7.286C257.995,255.177,249.854,257.998,249.854,257.998z"></path><g><circle style="fill:#6E6E6E;stroke:#000000;stroke-linecap:round;stroke-linejoin:round;" cx="250" cy="270.604" r="20.463"></circle><path style="opacity:0.5;fill:#6E6E6E;" d="M253.214,256.892c0,0,10.846,4.689,11.267,14.952c1.919,0.666,3.763-2.783,3.763-2.783s0.612-10.24-11.223-15.736C255.532,254.208,253.214,256.892,253.214,256.892z"></path><g><circle style="fill:#505050;" cx="250" cy="273.605" r="7.503"></circle><path style="opacity:0.5;fill:#6E6E6E;" d="M242.716,274.677c0,0,0.427,6.432,7.285,6.432c6.856,0,7.499-6.646,7.499-6.646s-0.963,5.035-7.604,5.035C243.251,279.497,242.716,274.677,242.716,274.677z"></path><g><path style="fill:#505050;" d="M262.529,263.75c-2.924-3.708-7.451-6.097-12.53-6.097c-5.021,0.001-9.504,2.335-12.431,5.973l2.854,2.759c2.194-2.904,5.666-4.793,9.578-4.794c3.803,0,7.193,1.782,9.396,4.55L262.529,263.75z"></path><path style="fill:#505050;" d="M265.952,273.605c0-2.62-0.648-5.087-1.771-7.27l-3.187,2.45c0.652,1.477,1.02,3.104,1.02,4.819c0,6.083-4.55,11.112-10.422,11.895v3.977C259.643,288.675,265.952,281.863,265.952,273.605z"></path><path style="fill:#505050;" d="M237.986,273.605c0-1.638,0.339-3.193,0.938-4.614l-3.314-2.239c-0.995,2.078-1.562,4.399-1.562,6.854c0,8.336,6.428,15.194,14.588,15.889v-3.958C242.652,284.855,237.986,279.768,237.986,273.605z"></path></g></g></g><g><g><path style="fill:#505050;stroke:#000000;stroke-linecap:round;stroke-linejoin:round;" d="M280.518,269.962c0,0-0.216-6.213,4.285-10.284c4.498-4.072,9.857-3,9.857-3l4.285,4.5l-13.714,13.069L280.518,269.962z"></path><g><path style="fill:#6E6E6E;stroke:#000000;stroke-linecap:round;stroke-linejoin:round;" d="M281.589,281.533c0,0-3-9.429,6-17.57c8.999-8.143,18.428-7.285,18.428-7.285l8.783,6.428l-25.497,25.927L281.589,281.533z"></path><path style="opacity:0.5;fill:#FFFFFF;" d="M290.159,274.247c0,0,2.786-5.999,10.5-10.284c-3.857,0.643-6.215,0.643-5.143-3.215c-4.285,2.144-8.142,5.786-9.213,9.644C290.159,267.819,290.373,273.177,290.159,274.247z"></path><path style="opacity:0.5;fill:#FFFFFF;" d="M283.088,275.962c0,0,1.501,3.429,4.287,3.214c-1.071,1.715-1.501,4.5-1.501,4.5l-3.429-2.785C282.445,280.891,282.016,278.533,283.088,275.962z"></path><ellipse transform="matrix(0.7008 -0.7133 0.7133 0.7008 -107.0538 298.1722)" style="fill:#6E6E6E;stroke:#000000;stroke-linecap:round;stroke-linejoin:round;" cx="301.945" cy="276.712" rx="18.428" ry="8.891"></ellipse><ellipse transform="matrix(0.7008 -0.7133 0.7133 0.7008 -107.1273 299.2831)" style="fill:#505050;" cx="303.23" cy="277.354" rx="7.843" ry="3.784"></ellipse><path style="opacity:0.5;fill:#6E6E6E;" d="M297.733,282.949c0,0,3.782,0.941,6.998-3.131c3.213-4.07,3.213-8.142,3.213-8.142s2.279,4.576-2.57,9.427C300.444,286.033,297.733,282.949,297.733,282.949z"></path></g></g><g><path style="fill:#505050;stroke:#000000;stroke-linecap:round;stroke-linejoin:round;" d="M219.483,269.962c0,0,0.214-6.213-4.285-10.284c-4.5-4.072-9.857-3-9.857-3l-4.285,4.5l13.713,13.069L219.483,269.962z"></path><g><path style="fill:#6E6E6E;stroke:#000000;stroke-linecap:round;stroke-linejoin:round;" d="M218.412,281.533c0,0,3-9.429-5.999-17.57c-9-8.143-18.428-7.285-18.428-7.285l-8.784,6.428l25.498,25.927L218.412,281.533z"></path><path style="opacity:0.5;fill:#FFFFFF;" d="M209.841,274.247c0,0-2.786-5.999-10.5-10.284c3.857,0.643,6.214,0.643,5.143-3.215c4.285,2.144,8.142,5.786,9.213,9.644C209.841,267.819,209.627,273.177,209.841,274.247z"></path><path style="opacity:0.5;fill:#FFFFFF;" d="M216.912,275.962c0,0-1.5,3.429-4.286,3.214c1.071,1.715,1.5,4.5,1.5,4.5l3.428-2.785C217.555,280.891,217.983,278.533,216.912,275.962z"></path><ellipse transform="matrix(-0.7008 -0.7133 0.7133 -0.7008 139.4804 611.9201)" style="fill:#6E6E6E;stroke:#000000;stroke-linecap:round;stroke-linejoin:round;" cx="198.056" cy="276.712" rx="18.427" ry="8.892"></ellipse><ellipse transform="matrix(-0.7008 -0.7134 0.7134 -0.7008 136.8152 612.092)" style="fill:#505050;" cx="196.769" cy="277.354" rx="7.843" ry="3.783"></ellipse><path style="opacity:0.5;fill:#6E6E6E;" d="M202.266,282.949c0,0-3.781,0.941-6.995-3.131c-3.214-4.07-3.214-8.142-3.214-8.142s-2.28,4.576,2.571,9.427C199.556,286.033,202.266,282.949,202.266,282.949z"></path></g></g></g></g></g></svg>