<svg xmlns="http://www.w3.org/2000/svg" width="500" height="500" version="1.1"><g id="x030"><path style="fill:#6E6E6E;stroke:#000000;stroke-linecap:round;stroke-linejoin:round;" d="M301.144,172.137c0,0-7.394-13.637-51.144-13.637s-51.144,13.637-51.144,13.637c-14.525,19.005-8.487,75.71-8.487,75.71s5.36,21.887,19.654,29.926c12.699,7.144,28.215,6.883,39.977,6.735c11.762,0.147,27.277,0.408,39.977-6.735c14.294-8.039,19.653-29.926,19.653-29.926S315.669,191.143,301.144,172.137z M227.654,231.117c-2.683,11.911-12.316,19.885-21.514,17.813c-9.197-2.072-14.479-13.408-11.796-25.318c2.685-11.911,12.316-19.885,21.515-17.812C225.057,207.872,230.339,219.207,227.654,231.117z M293.859,248.929c-9.197,2.073-18.83-5.902-21.514-17.813c-2.684-11.91,2.598-23.245,11.795-25.317c9.198-2.073,18.83,5.901,21.515,17.812C308.339,235.521,303.057,246.857,293.859,248.929z"></path><g><g><g><g><path style="fill:#6E6E6E;stroke:#000000;stroke-linecap:round;stroke-linejoin:round;" d="M306.688,225.2c-3.467-15.384-15.91-25.685-27.791-23.007c-11.881,2.677-18.703,17.319-15.235,32.703c3.466,15.384,15.909,25.685,27.79,23.007C303.333,255.227,310.155,240.583,306.688,225.2z M293.859,248.929c-9.197,2.073-18.83-5.902-21.514-17.813c-2.684-11.91,2.598-23.245,11.795-25.317c9.198-2.073,18.83,5.901,21.515,17.812C308.339,235.521,303.057,246.857,293.859,248.929z"></path><path style="opacity:0.5;fill:#FFFFFF;" d="M274.085,210.417c0,0-6.374,4.334-4.334,16.826c-1.275-0.255-4.59,0.51-4.59,0.51s-1.132-13.739,8.924-17.846"></path></g><g><ellipse transform="matrix(0.9755 -0.2198 0.2198 0.9755 -42.9089 69.0862)" style="opacity:0.8;fill:#FF0000;stroke:#000000;stroke-linecap:round;stroke-linejoin:round;" cx="289" cy="227.364" rx="17.072" ry="22.106"></ellipse><path style="opacity:0.5;fill:#FFFFFF;" d="M290.146,208.377l-9.942,33.398c0,0-8.669-11.728-4.335-24.475C280.204,204.553,290.146,208.377,290.146,208.377z"></path></g></g></g><g><g><g><path style="fill:#6E6E6E;stroke:#000000;stroke-linecap:round;stroke-linejoin:round;" d="M221.104,202.193c-11.882-2.678-24.324,7.623-27.792,23.007c-3.467,15.384,3.355,30.027,15.236,32.703c11.881,2.678,24.324-7.623,27.79-23.007C239.806,219.512,232.983,204.87,221.104,202.193z M227.654,231.117c-2.683,11.911-12.316,19.885-21.514,17.813c-9.197-2.072-14.479-13.408-11.796-25.318c2.685-11.911,12.316-19.885,21.515-17.812C225.057,207.872,230.339,219.207,227.654,231.117z"></path><path style="opacity:0.5;fill:#FFFFFF;" d="M225.915,210.417c0,0,6.374,4.334,4.334,16.826c1.275-0.255,4.59,0.51,4.59,0.51s1.132-13.739-8.924-17.846"></path></g><g><ellipse transform="matrix(-0.9755 -0.2198 0.2198 -0.9755 366.8614 495.5473)" style="opacity:0.8;fill:#FF0000;stroke:#000000;stroke-linecap:round;stroke-linejoin:round;" cx="211" cy="227.364" rx="17.072" ry="22.106"></ellipse><path style="opacity:0.5;fill:#FFFFFF;" d="M209.854,208.377l9.943,33.398c0,0,8.668-11.728,4.334-24.475C219.797,204.553,209.854,208.377,209.854,208.377z"></path></g></g></g></g><path style="opacity:0.5;fill:#FFFFFF;" d="M250,246.954c-4.02,0-10.942,4.914-13.176,7.593c4.689,6.254,13.176,9.193,13.176,9.193s8.486-2.939,13.176-9.193C260.942,251.867,254.02,246.954,250,246.954z"></path><line style="fill:none;stroke:#000000;stroke-linecap:round;stroke-linejoin:round;" x1="250" y1="256.334" x2="250" y2="174.147"></line><g><g><circle style="fill:#6E6E6E;stroke:#000000;stroke-linecap:round;stroke-linejoin:round;" cx="249.178" cy="276.881" r="21.329"></circle><path style="opacity:0.5;fill:#FFFFFF;" d="M252.528,262.587c0,0,11.302,4.888,11.741,15.585c2.002,0.694,3.923-2.901,3.923-2.901s0.639-10.673-11.696-16.4C254.943,259.789,252.528,262.587,252.528,262.587z"></path><g><circle style="fill:#505050;" cx="249.178" cy="280.008" r="7.821"></circle><path style="opacity:0.5;fill:#FFFFFF;" d="M241.584,281.124c0,0,0.446,6.704,7.594,6.704s7.817-6.928,7.817-6.928s-1.005,5.248-7.928,5.248C242.144,286.148,241.584,281.124,241.584,281.124z"></path><g><path style="fill:#505050;" d="M262.237,269.736c-3.048-3.866-7.767-6.355-13.061-6.355c-5.233,0-9.907,2.434-12.958,6.226l2.975,2.875c2.288-3.026,5.906-4.995,9.983-4.996c3.965,0,7.499,1.858,9.795,4.743L262.237,269.736z"></path><path style="fill:#505050;" d="M265.805,280.008c0-2.73-0.676-5.302-1.848-7.576l-3.32,2.554c0.68,1.538,1.063,3.235,1.063,5.022c0,6.34-4.741,11.582-10.863,12.398v4.145C259.229,295.715,265.805,288.615,265.805,280.008z"></path><path style="fill:#505050;" d="M236.655,280.008c0-1.707,0.354-3.328,0.978-4.811l-3.454-2.334c-1.037,2.168-1.628,4.586-1.628,7.145c0,8.689,6.7,15.838,15.205,16.561v-4.125C241.52,291.734,236.655,286.431,236.655,280.008z"></path></g></g></g><g><g><path style="fill:#505050;stroke:#000000;stroke-linecap:round;stroke-linejoin:round;" d="M281.808,276.211c0,0-0.224-6.477,4.467-10.721c4.689-4.243,10.273-3.127,10.273-3.127l4.467,4.69l-14.294,13.624L281.808,276.211z"></path><g><path style="fill:#6E6E6E;stroke:#000000;stroke-linecap:round;stroke-linejoin:round;" d="M282.925,288.271c0,0-3.127-9.828,6.253-18.314s19.207-7.594,19.207-7.594l9.156,6.701l-26.576,27.023L282.925,288.271z"></path><path style="opacity:0.5;fill:#FFFFFF;" d="M291.858,280.678c0,0,2.902-6.254,10.942-10.721c-4.02,0.67-6.477,0.67-5.359-3.35c-4.467,2.232-8.486,6.029-9.604,10.05C291.858,273.977,292.081,279.561,291.858,280.678z"></path><path style="opacity:0.5;fill:#FFFFFF;" d="M284.488,282.464c0,0,1.563,3.573,4.467,3.351c-1.117,1.786-1.563,4.689-1.563,4.689l-3.573-2.903C283.818,287.601,283.371,285.145,284.488,282.464z"></path><ellipse transform="matrix(0.7008 -0.7133 0.7133 0.7008 -111.0573 301.6942)" style="fill:#6E6E6E;stroke:#000000;stroke-linecap:round;stroke-linejoin:round;" cx="304.142" cy="283.246" rx="19.207" ry="9.269"></ellipse><ellipse transform="matrix(0.7008 -0.7133 0.7133 0.7008 -111.1335 302.8443)" style="fill:#505050;" cx="305.483" cy="283.915" rx="8.175" ry="3.944"></ellipse><path style="opacity:0.5;fill:#FFFFFF;" d="M299.754,289.746c0,0,3.941,0.98,7.291-3.262c3.35-4.244,3.35-8.487,3.35-8.487s2.377,4.771-2.68,9.827C302.578,292.961,299.754,289.746,299.754,289.746z"></path></g></g><g><path style="fill:#505050;stroke:#000000;stroke-linecap:round;stroke-linejoin:round;" d="M218.192,276.211c0,0,0.224-6.477-4.467-10.721c-4.689-4.243-10.273-3.127-10.273-3.127l-4.466,4.69l14.293,13.624L218.192,276.211z"></path><g><path style="fill:#6E6E6E;stroke:#000000;stroke-linecap:round;stroke-linejoin:round;" d="M217.075,288.271c0,0,3.127-9.828-6.253-18.314s-19.207-7.594-19.207-7.594l-9.156,6.701l26.576,27.023L217.075,288.271z"></path><path style="opacity:0.5;fill:#FFFFFF;" d="M208.142,280.678c0,0-2.902-6.254-10.942-10.721c4.02,0.67,6.477,0.67,5.359-3.35c4.467,2.232,8.486,6.029,9.604,10.05C208.142,273.977,207.919,279.561,208.142,280.678z"></path><path style="opacity:0.5;fill:#FFFFFF;" d="M215.512,282.464c0,0-1.563,3.573-4.467,3.351c1.117,1.786,1.564,4.689,1.564,4.689l3.572-2.903C216.182,287.601,216.629,285.145,215.512,282.464z"></path><ellipse transform="matrix(-0.7008 -0.7133 0.7133 -0.7008 131.0722 621.4644)" style="fill:#6E6E6E;stroke:#000000;stroke-linecap:round;stroke-linejoin:round;" cx="195.858" cy="283.246" rx="19.207" ry="9.269"></ellipse><ellipse transform="matrix(-0.7009 -0.7133 0.7133 -0.7009 128.3277 621.6483)" style="fill:#505050;" cx="194.518" cy="283.915" rx="8.175" ry="3.945"></ellipse><path style="opacity:0.5;fill:#FFFFFF;" d="M200.247,289.746c0,0-3.942,0.98-7.292-3.262c-3.35-4.244-3.35-8.487-3.35-8.487s-2.376,4.771,2.68,9.827C197.422,292.961,200.247,289.746,200.247,289.746z"></path></g></g></g></g></g></svg>