<svg xmlns="http://www.w3.org/2000/svg" width="500" height="500" version="1.1"><g id="x031"><g><g><path style="fill:#DEE6E3;stroke:#000000;stroke-linecap:round;stroke-linejoin:round;" d="M283.831,185.9c-29.316-3.505-33.367,21.627-33.831,31.575c-0.464-9.947-4.514-35.08-33.831-31.575c-36.429,4.355-26.39,62.31-12.908,78.725c0,0,17.772,15.733,46.725,15.41l0,0c0.005,0,0.01,0,0.015,0c0.007,0,0.011,0,0.017,0l0,0c28.951,0.323,46.722-15.41,46.722-15.41C310.22,248.21,320.26,190.255,283.831,185.9z"></path><path style="fill:#66635E;stroke:#000000;stroke-linecap:round;stroke-linejoin:round;" d="M331.272,249.773c0-7.753-5.338-21.321-14.979-32.694c-0.809-16.524-6.561-32.658-15.617-42.122c-19.078-19.936-44.601-9.939-50.676-7.131c-6.076-2.808-31.598-12.805-50.676,7.131c-9.058,9.464-14.809,25.598-15.618,42.122c-9.642,11.373-14.979,24.941-14.979,32.694c4.972-7.147,15.299-3.573,15.299-3.573s-5.354,5.36-8.797,14.292c6.884-4.467,14.916-2.68,14.916-2.68s-5.737,8.486-6.885,12.953c4.387-3.073,12.569-5.883,17.035-6.838c3.891,3.352,8.516,6.008,13.943,7.731c0,0-8.796-11.167-10.326-15.634c3.825,2.234,9.944,1.341,9.944,1.341s-5.033-8.203-9.254-18.229c-0.355-3.678-1.342-5.803,5.238-11.028c0.287,1.675,2.104,28.81,17.879,34.17c0.281-4.6,2.231-15.312,22.052-16.042c19.821,0.729,21.771,11.442,22.052,16.042c15.775-5.36,17.473-32.941,17.76-34.616c7.171,5.695,5.474,8.151,5.282,12.506c-0.005,0.084-0.014,0.175-0.022,0.263c-4.095,9.429-8.702,16.934-8.702,16.934s6.12,0.894,9.945-1.341c-1.53,4.467-10.327,15.634-10.327,15.634c5.429-1.724,10.054-4.38,13.944-7.731c4.466,0.955,12.649,3.766,17.034,6.838c-1.147-4.466-6.884-12.953-6.884-12.953s8.031-1.787,14.915,2.68c-3.441-8.933-8.796-14.292-8.796-14.292S326.3,242.627,331.272,249.773z"></path><path style="fill:#DEE6E3;stroke:#000000;stroke-linecap:round;stroke-linejoin:round;" d="M229.061,274.341c3.441,18.76,38.436,18.76,41.879,0"></path><path style="fill:#57383D;stroke:#000000;stroke-linecap:round;stroke-linejoin:round;" d="M237.379,271.327c0,0,1.435,7.035,11.761,7.035c10.327,0,13.481-7.37,13.481-7.37L237.379,271.327z"></path></g><g><g><g><g><path style="fill:#FFFFFF;stroke:#000000;stroke-linecap:round;stroke-linejoin:round;" d="M205.787,216.497c0,0-5.938,18.597,10.167,22.622c16.721,4.179,18.556-10.675,18.556-10.675l-28.214-11.692"></path><g><ellipse transform="matrix(0.9962 0.0874 -0.0874 0.9962 20.5155 -18.3993)" style="fill:#3F3F3F;stroke:#000000;stroke-linecap:round;stroke-linejoin:round;" cx="220.286" cy="224.984" rx="7.131" ry="6.867"></ellipse></g></g><g><path style="fill:#DEE6E3;stroke:#000000;stroke-linecap:round;stroke-linejoin:round;" d="M238.258,229.003c0.89,1.002-34.282-11.948-36.627-15.633c-0.335-3.685-2.568-20.881,21.217-30.597C219.163,199.188,232.898,222.974,238.258,229.003z"></path></g></g><g><g><path style="fill:#FFFFFF;stroke:#000000;stroke-linecap:round;stroke-linejoin:round;" d="M294.213,216.497c0,0,5.938,18.597-10.166,22.622c-16.721,4.179-18.557-10.675-18.557-10.675l28.215-11.692"></path><g><ellipse transform="matrix(-0.9962 0.0874 -0.0874 -0.9962 578.027 424.6518)" style="fill:#3F3F3F;stroke:#000000;stroke-linecap:round;stroke-linejoin:round;" cx="279.714" cy="224.984" rx="7.132" ry="6.867"></ellipse></g></g><g><path style="fill:#DEE6E3;stroke:#000000;stroke-linecap:round;stroke-linejoin:round;" d="M261.742,229.003c-0.891,1.002,34.281-11.948,36.627-15.633c0.334-3.685,2.568-20.881-21.217-30.597C280.836,199.188,267.102,222.974,261.742,229.003z"></path></g></g></g></g><g><g><line style="fill:#DEE6E3;stroke:#000000;stroke-linecap:round;stroke-linejoin:round;" x1="250" y1="264.849" x2="250" y2="275.011"></line></g><path style="fill:#DEE6E3;stroke:#000000;stroke-linecap:round;stroke-linejoin:round;" d="M229.141,258.931c0,0,0,10.385,4.589,14.069c4.38,3.517,13.454,3.372,16.271,3.353c2.815,0.02,11.89,0.164,16.269-3.353c4.59-3.685,4.59-14.069,4.59-14.069"></path><g><path style="fill:#57383D;stroke:#000000;stroke-linecap:round;stroke-linejoin:round;" d="M250,247.875c-6.924,0-15.39,1.586-15.39,5.65c0,4.065,11.282,11.356,15.39,11.323c4.107,0.033,15.391-7.684,15.391-11.323C265.391,249.885,256.924,247.875,250,247.875z"></path><ellipse style="fill:#FFFFFF;" cx="239.279" cy="253.459" rx="2.68" ry="2.01"></ellipse></g></g></g></g></svg>