<svg xmlns="http://www.w3.org/2000/svg" width="500" height="500" version="1.1"><g id="x032"><g><path style="fill:#F0F0F0;stroke:#000000;stroke-linecap:round;stroke-linejoin:round;" d="M282.607,152.141c0,0-29.927,15.187-32.607,16.08c-2.681-0.894-32.606-16.08-32.606-16.08s-31.267,12.06-31.267,62.533c0,18.862,4.417,35.077,11.613,44.89C216.277,284.84,250,284.131,250,284.131s33.722,0.709,52.26-24.566c7.197-9.813,11.613-26.028,11.613-44.89C313.873,164.201,282.607,152.141,282.607,152.141z M235.93,235.891c-2.01,3.573-9.156,10.273-10.05,10.273c-2.233,0.223-19.566-0.848-23.004-4.02c-5.806-5.36-7.035-20.435-5.806-22.11c1.228-1.675,12.506-5.137,23.226-3.126C231.017,218.917,236.6,232.541,235.93,235.891z M297.123,242.144c-3.437,3.172-20.77,4.243-23.004,4.02c-0.893,0-8.04-6.7-10.05-10.273c-0.67-3.35,4.914-16.974,15.634-18.983c10.72-2.01,21.997,1.452,23.227,3.126C304.158,221.709,302.93,236.784,297.123,242.144z"></path><path style="fill:#C7D1D6;" d="M300.18,167.477c0,0-5.847-9.144-16.513-12.144s-32.397-4.667-32.397-4.667v91.181l0.67,39.82c0,0,57.892,3,57.892-54.56C312.831,194,300.18,167.477,300.18,167.477z M297.123,242.144c-3.437,3.172-20.77,4.243-23.004,4.02c-0.893,0-8.04-6.7-10.05-10.273c-0.67-3.35,4.914-16.974,15.634-18.983c10.72-2.01,21.997,1.452,23.227,3.126C304.158,221.709,302.93,236.784,297.123,242.144z"></path><g><path style="fill:#C7D1D6;" d="M196.272,220.75c0,0-2.938,8-3.003,15.774c2.011,7.37,6.477,10.943,8.04,11.837c1.563,0.893,18.891,3.024,20.9,2.576c2.14-0.476,3.997-3.739,4.188-4.063c0,0-15.375,0.125-23.625-4C195.522,235.563,196.272,220.75,196.272,220.75z"></path></g><path style="fill:#6E6E6E;" d="M250,213.39l-19.43-3.183c0,0,5.192,7.203,19.43,11.558c14.237-4.355,19.43-11.558,19.43-11.558L250,213.39z"></path><g><path style="fill:#6E6E6E;" d="M206.117,265.65c-0.343-0.498,19.43-13.902,22.78-14.74c-4.69,11.055-11.726,23.115-11.726,23.115S209.802,271.01,206.117,265.65z"></path><path style="fill:#6E6E6E;" d="M293.883,265.65c0.343-0.498-19.43-13.902-22.779-14.74c4.689,11.055,11.725,23.115,11.725,23.115S290.198,271.01,293.883,265.65z"></path></g><g><g><ellipse cx="189.924" cy="199.935" rx="2.345" ry="4.578"></ellipse><ellipse cx="193.497" cy="190.778" rx="2.345" ry="4.578"></ellipse><ellipse cx="193.497" cy="207.751" rx="2.345" ry="4.578"></ellipse></g><g><ellipse cx="310.076" cy="199.935" rx="2.345" ry="4.578"></ellipse><ellipse cx="306.503" cy="190.778" rx="2.346" ry="4.578"></ellipse><ellipse cx="306.503" cy="207.751" rx="2.346" ry="4.578"></ellipse></g></g><g><ellipse transform="matrix(-0.9883 -0.1523 0.1523 -0.9883 440.8577 591.3104)" cx="243.077" cy="278.77" rx="4.578" ry="2.344"></ellipse><ellipse transform="matrix(-0.9883 -0.1523 0.1523 -0.9883 441.7422 579.7649)" cx="243.077" cy="272.963" rx="4.578" ry="2.344"></ellipse><ellipse transform="matrix(0.9883 -0.1523 0.1523 0.9883 -39.4589 42.3806)" cx="256.922" cy="278.77" rx="4.578" ry="2.344"></ellipse><ellipse transform="matrix(0.9883 -0.1523 0.1523 0.9883 -38.5745 42.3129)" cx="256.922" cy="272.963" rx="4.578" ry="2.344"></ellipse></g><g><g><ellipse transform="matrix(-0.3581 -0.9337 0.9337 -0.3581 35.3849 530.9485)" cx="200.197" cy="253.311" rx="4.578" ry="2.345"></ellipse><ellipse transform="matrix(-0.3582 -0.9336 0.9336 -0.3582 42.737 540.4644)" cx="207.121" cy="255.544" rx="4.578" ry="2.345"></ellipse><ellipse transform="matrix(-0.5254 -0.8509 0.8509 -0.5254 89.1239 576.4353)" cx="205.334" cy="263.36" rx="4.578" ry="2.345"></ellipse></g><g><ellipse transform="matrix(0.3581 -0.9337 0.9337 0.3581 -44.0756 442.5095)" cx="299.803" cy="253.311" rx="4.578" ry="2.345"></ellipse><ellipse transform="matrix(0.3582 -0.9336 0.9336 0.3582 -50.6256 437.4377)" cx="292.879" cy="255.544" rx="4.578" ry="2.345"></ellipse><ellipse transform="matrix(0.5254 -0.8509 0.8509 0.5254 -84.2292 375.7222)" cx="294.666" cy="263.36" rx="4.578" ry="2.345"></ellipse></g></g><g><g><ellipse cx="239.168" cy="207.304" rx="4.579" ry="3.573"></ellipse><ellipse cx="223.982" cy="205.518" rx="4.578" ry="3.573"></ellipse><ellipse cx="210.023" cy="200.158" rx="4.578" ry="3.573"></ellipse><ellipse cx="212.257" cy="185.417" rx="4.578" ry="3.573"></ellipse><ellipse cx="216.054" cy="170.454" rx="4.578" ry="3.573"></ellipse></g><g><ellipse cx="260.831" cy="207.304" rx="4.578" ry="3.573"></ellipse><ellipse cx="276.019" cy="205.518" rx="4.578" ry="3.573"></ellipse><ellipse cx="289.977" cy="200.158" rx="4.578" ry="3.573"></ellipse><ellipse cx="287.743" cy="185.417" rx="4.579" ry="3.573"></ellipse><ellipse cx="283.946" cy="170.454" rx="4.579" ry="3.573"></ellipse></g></g><ellipse cx="249.833" cy="256.438" rx="5.528" ry="3.518"></ellipse></g><path style="fill:none;stroke:#000000;stroke-linecap:round;stroke-linejoin:round;" d="M297.123,242.144c-3.437,3.172-20.77,4.243-23.004,4.02c-0.893,0-8.04-6.7-10.05-10.273c-0.67-3.35,4.914-16.974,15.634-18.983c10.72-2.01,21.997,1.452,23.227,3.126C304.158,221.709,302.93,236.784,297.123,242.144z"></path></g></svg>