<svg xmlns="http://www.w3.org/2000/svg" width="500" height="500" version="1.1"><g id="x034"><g><g><path style="fill:#FFFFFF;stroke:#000000;stroke-linecap:round;stroke-linejoin:round;" d="M301.367,168.244c0,0-3.852-16.244-50.517-16.244c-46.666,0-52.216,16.244-52.216,16.244s-14.517,31.936-8.487,64.543c-1.784,9.592-2.451,49.488,59.853,49.578c62.305-0.09,61.638-39.986,59.854-49.578C315.883,200.18,301.367,168.244,301.367,168.244z"></path><path style="fill:#C7D1D6;" d="M251.27,244.847v-91.181c0,0,21.731,1.667,32.397,4.667s16.513,12.144,16.513,12.144s12.651,26.523,9.651,59.63c0,57.56-57.892,50.25-57.892,50.25L251.27,244.847z"></path></g><g><g><path style="fill:#6E6E6E;" d="M191.04,228.321c0,0-0.001,3.573,0.893,4.69c-0.446,2.457-0.446,8.933-0.446,8.933s17.42,2.904,19.43,5.36C208.236,238.817,198.409,230.777,191.04,228.321z"></path><path style="fill:#6E6E6E;" d="M193.272,250.431c0,0,2.903,8.263,6.924,11.167c2.233-0.894,12.953-1.117,14.739,0.67C210.022,256.014,205.109,249.984,193.272,250.431z"></path></g><g><path style="fill:#6E6E6E;" d="M308.96,228.321c0,0,0,3.573-0.894,4.69c0.447,2.457,0.447,8.933,0.447,8.933s-17.42,2.904-19.43,5.36C291.764,238.817,301.59,230.777,308.96,228.321z"></path><path style="fill:#6E6E6E;" d="M306.726,250.431c0,0-2.902,8.263-6.922,11.167c-2.234-0.894-12.954-1.117-14.74,0.67C289.976,256.014,294.89,249.984,306.726,250.431z"></path></g></g><g><path style="fill:#6E6E6E;" d="M249.776,188.344c-2.233,0-7.816,0-7.816,9.603c0,14.293,8.04,32.383,8.04,32.383s8.04-18.09,8.04-32.383C258.04,188.344,252.01,188.344,249.776,188.344z"></path><g><path style="fill:#6E6E6E;" d="M224.763,203.531c0,0-0.446-4.467,3.127-5.807c3.572-1.34,6.477,1.563,6.7,2.903c0.223,1.34-0.894,10.05,1.34,12.954C231.686,212.464,224.317,207.774,224.763,203.531z"></path><path style="fill:#6E6E6E;" d="M275.236,203.531c0,0,0.446-4.467-3.127-5.807c-3.573-1.34-6.478,1.563-6.699,2.903c-0.225,1.34,0.892,10.05-1.341,12.954C268.313,212.464,275.684,207.774,275.236,203.531z"></path></g></g><g><g><g><path style="fill:#6E6E6E;" d="M219.431,238.22c0,0,12.06,8.979,14.293,11.167c3.35-0.397,0.223-16.372-1.563-20.547C227.917,233.412,219.431,238.22,219.431,238.22z"></path><path style="fill:#6E6E6E;" d="M205.807,231.52c0,0-10.943-11.837-8.263-27.917c5.807,0.795,22.557,12.73,22.557,12.73L205.807,231.52z"></path><path d="M201.118,208.478c0,0,21.217,5.567,28.363,15.507s3.573,21.868,3.573,21.868s-14.415-6.909-20.323-9.344C200.67,231.539,198.883,215.833,201.118,208.478z"></path></g><circle style="fill:#FFFFFF;" cx="220.659" cy="227.835" r="4.578"></circle></g><g><g><path style="fill:#6E6E6E;" d="M280.569,238.22c0,0-12.061,8.979-14.294,11.167c-3.35-0.397-0.224-16.372,1.564-20.547C272.083,233.412,280.569,238.22,280.569,238.22z"></path><path style="fill:#6E6E6E;" d="M294.192,231.52c0,0,10.943-11.837,8.264-27.917c-5.807,0.795-22.557,12.73-22.557,12.73L294.192,231.52z"></path><path d="M298.883,208.478c0,0-21.217,5.567-28.363,15.507s-3.573,21.868-3.573,21.868s14.414-6.909,20.323-9.344C299.329,231.539,301.116,215.833,298.883,208.478z"></path></g><circle style="fill:#FFFFFF;" cx="279.341" cy="227.835" r="4.579"></circle><circle style="fill:#FFFFFF;" cx="279.341" cy="228.501" r="4.579"></circle></g></g><g><path d="M250.001,248.716c-0.67,0-5.138-0.223-7.147,3.127c0.67,5.807,7.147,7.593,7.147,7.593s6.476-1.786,7.146-7.593C255.137,248.493,250.671,248.716,250.001,248.716z"></path><line style="fill:none;stroke:#000000;stroke-linecap:round;stroke-linejoin:round;" x1="250" y1="259.437" x2="250" y2="267.999"></line><path style="fill:#6E6E6E;" d="M283.053,260.016c-4.467-4.243-8.71,2.903-9.604,4.689c-0.893,1.787-4.021,6.254-8.933,7.817C259.603,274.086,250,265.6,250,265.6s-9.604,8.486-14.517,6.923c-4.914-1.563-8.04-6.03-8.934-7.817c-0.894-1.786-5.137-8.933-9.604-4.689c-1.697,1.611,1.925,9.73,7.37,13.848c9.157,6.922,25.684-4.467,25.684-4.467s16.526,11.389,25.682,4.467C281.129,269.746,284.75,261.627,283.053,260.016z"></path></g><g><g><path style="fill:#6E6E6E;stroke:#000000;stroke-linecap:round;stroke-linejoin:round;" d="M188.959,230.107l-5.36,4.02c0,0-1.34,4.02,0,6.03c1.34,2.01,6.03-0.67,6.03-0.67S191.64,232.787,188.959,230.107z"></path><g><path style="fill:#6E6E6E;stroke:#000000;stroke-linecap:round;stroke-linejoin:round;" d="M186.279,240.157c0,0-3.35,4.02-4.02,8.71c-0.67,4.689-5.36,38.859,0,54.27c8.04,0,14.74-0.67,14.74-0.67s-2.01-46.229-3.35-52.26C192.31,244.177,188.29,241.497,186.279,240.157z"></path><path style="fill:none;stroke:#000000;stroke-linecap:round;stroke-linejoin:round;" d="M186.279,301.127c0-2.01,0-21.439,0-28.14"></path></g></g><g><path style="fill:#6E6E6E;stroke:#000000;stroke-linecap:round;stroke-linejoin:round;" d="M311.041,230.107l5.359,4.02c0,0,1.34,4.02,0,6.03c-1.34,2.01-6.029-0.67-6.029-0.67S308.36,232.787,311.041,230.107z"></path><g><path style="fill:#6E6E6E;stroke:#000000;stroke-linecap:round;stroke-linejoin:round;" d="M313.721,240.157c0,0,3.35,4.02,4.02,8.71c0.671,4.689,5.36,38.859,0,54.27c-8.039,0-14.739-0.67-14.739-0.67s2.01-46.229,3.35-52.26C307.69,244.177,311.711,241.497,313.721,240.157z"></path><path style="fill:none;stroke:#000000;stroke-linecap:round;stroke-linejoin:round;" d="M313.721,301.127c0-2.01,0-21.439,0-28.14"></path></g></g></g></g></g></svg>