<svg xmlns="http://www.w3.org/2000/svg" width="500" height="500" version="1.1"><g id="x037"><g><g><path style="fill:#E7C474;stroke:#000000;stroke-linecap:round;stroke-linejoin:round;" d="M201.667,271c-0.5-7.5-7.25-16.75-7.25-16.75s-6.75,9.25-7.25,16.75s7.25,9.5,7.25,9.5S202.167,278.5,201.667,271z"></path><path style="fill:#A87745;" d="M194.417,277.419v1.915c0,0,3.375,0.5,6.042-4.667c-0.167-1.833-1.834-2.5-1.834-2.5S197.375,276.004,194.417,277.419z"></path><path style="fill:#F3E4A0;" d="M194.417,262.534c0,0-4.631,5.623-4.631,9.262s4.631,5.623,4.631,5.623s4.631-1.984,4.631-5.623S194.417,262.534,194.417,262.534z"></path><path style="fill:none;stroke:#000000;stroke-linecap:round;stroke-linejoin:round;" d="M194.458,257.167c0,0-0.666,4.667,0.167,8"></path><g><path style="fill:#6E6E6E;stroke:#000000;stroke-linecap:round;stroke-linejoin:round;" d="M194.417,264.75c0,0-3.5,4.25-3.5,7s3.5,4.25,3.5,4.25s3.5-1.5,3.5-4.25S194.417,264.75,194.417,264.75z"></path><path style="fill:#505050;" d="M191.625,271.334c0,0,0.834,3.167,2.5,3.5c1.667,0.333,3.334-3.5,3.334-3.5s-1.333,0.332-3,0.666S191.625,271.334,191.625,271.334z"></path><ellipse style="fill:#FFFFFF;" cx="193.68" cy="271.952" rx="0.888" ry="1.382"></ellipse></g></g><g><path style="fill:#E7C474;stroke:#000000;stroke-linecap:round;stroke-linejoin:round;" d="M298.333,271c0.5-7.5,7.25-16.75,7.25-16.75s6.75,9.25,7.25,16.75s-7.25,9.5-7.25,9.5S297.833,278.5,298.333,271z"></path><path style="fill:#A87745;" d="M305.583,277.419v1.915c0,0-3.376,0.5-6.043-4.667c0.168-1.833,1.834-2.5,1.834-2.5S302.624,276.004,305.583,277.419z"></path><path style="fill:#F3E4A0;" d="M305.583,262.534c0,0,4.631,5.623,4.631,9.262s-4.631,5.623-4.631,5.623s-4.631-1.984-4.631-5.623S305.583,262.534,305.583,262.534z"></path><path style="fill:none;stroke:#000000;stroke-linecap:round;stroke-linejoin:round;" d="M305.541,257.167c0,0,0.666,4.667-0.167,8"></path><g><path style="fill:#6E6E6E;stroke:#000000;stroke-linecap:round;stroke-linejoin:round;" d="M305.583,264.75c0,0,3.5,4.25,3.5,7s-3.5,4.25-3.5,4.25s-3.5-1.5-3.5-4.25S305.583,264.75,305.583,264.75z"></path><path style="fill:#505050;" d="M308.374,271.334c0,0-0.834,3.167-2.5,3.5s-3.334-3.5-3.334-3.5s1.334,0.332,3,0.666C307.208,272.334,308.374,271.334,308.374,271.334z"></path><ellipse style="fill:#FFFFFF;" cx="306.319" cy="271.952" rx="0.889" ry="1.382"></ellipse></g></g></g></g></svg>