<svg xmlns="http://www.w3.org/2000/svg" width="500" height="500" version="1.1"><g id="x9038"><g><path style="fill:#E8C044;stroke:#000000;stroke-linecap:round;stroke-linejoin:round;" d="M286.676,201.865c-3.221,24.536-36.675,40.894-36.675,40.894s-33.459-16.358-36.676-40.894c-21.233-21.497-35.71-30.145-35.71-30.145s5.47,21.966,12.87,31.313c7.398,9.348,18.98,30.613,19.945,41.595c4.827-0.233,11.261-0.702,11.261-0.702s16.407,27.807,28.311,27.807c11.902,0,28.31-27.807,28.31-27.807s6.431,0.469,11.261,0.702c0.962-10.982,12.547-32.247,19.941-41.595c7.402-9.347,12.871-31.313,12.871-31.313S307.909,180.367,286.676,201.865z"></path><g><path style="fill:#CAA226;" d="M180,174.333c0,0,2.333,14.333,9,21.333C198.667,204,215,210,215,210L180,174.333z"></path><path style="fill:#CAA226;" d="M320,174.333c0,0-2.333,14.333-9,21.333C301.333,204,285,210,285,210L320,174.333z"></path></g><path style="fill:#CAA226;" d="M250.667,255.667V270c0,0-28.667-18.667-29.333-20s0-16.667,1.333-17.667C227,239.333,240,253.667,250.667,255.667z"></path><g><path style="fill:#242529;stroke:#000000;stroke-linecap:round;stroke-linejoin:round;" d="M250,124c0,0-25.416,0.616-43.111,20.365C205.925,176.764,250,186.329,250,186.329s44.073-9.565,43.11-41.964C275.413,124.616,250,124,250,124z"></path><path style="opacity:0.4;fill:#FFFFFF;" d="M207.078,147.083c0,0,18.334-22.594,45.424-19.828c-30.839,11.989-37.09,37.349-37.09,37.349L207.078,147.083z"></path></g><g><path style="fill:#E8C044;stroke:#000000;stroke-linecap:round;stroke-linejoin:round;" d="M250,238.553c-12.869-1.87-31.59-22.901-31.59-22.901c8.427,29.91,31.59,38.557,31.59,38.557s23.161-8.646,31.59-38.557C281.59,215.651,262.864,236.683,250,238.553z"></path><path style="fill:#754912;" d="M250,238.553v12.414c0,0-4.896,0.176-7.604-1.572c-8.231-4.365-15.94-16.062-19.483-22.522c-2.083-5.937-3.771-9.864-3.771-9.864L250,238.553z"></path><path d="M250.001,225.349l-39.089-17.642c0,0.468,24.931,32.25,39.089,33.883c14.156-1.633,39.085-33.415,39.085-33.883L250.001,225.349z"></path><g><path style="fill:#E8C044;stroke:#000000;stroke-linecap:round;stroke-linejoin:round;" d="M294.073,144.848c-6.111,7.945-26.054,29.444-44.075,31.313c-18.014-1.868-37.963-23.368-44.076-31.313c-23.486,5.841-31.527,19.862-31.527,19.862c19.624,44.632,75.603,64.261,75.603,64.261s55.981-19.629,75.605-64.261C325.604,164.71,317.561,150.689,294.073,144.848z"></path><path style="fill:#CAA226;" d="M250,224.667V181c0,0-37.333-12.333-43.667-31.667c-3.333,7.667-2,38.333,4.667,51C221.333,213.333,250,224.667,250,224.667z"></path><g><path style="fill:none;stroke:#000000;stroke-linecap:round;stroke-linejoin:round;" d="M204.304,147.258c0,0-7.211,29.332,3.606,52.377"></path><path style="fill:none;stroke:#000000;stroke-linecap:round;stroke-linejoin:round;" d="M295.696,147.258c0,0,7.212,29.332-3.605,52.377"></path></g><path style="opacity:0.4;fill:#FFFFFF;" d="M251.668,224.777l0.665-44.444c0,0,29.758-10.728,40.589-30.98c3.335,9.427,1.712,46.529-4.167,52.727C275.84,215.699,251.668,224.777,251.668,224.777z"></path></g><path d="M250,250.573c-4.22,0.131-7.813-1.179-7.813-1.179l7.813,4.813l7.813-4.813C257.813,249.395,254.221,250.704,250,250.573z"></path></g><path style="fill:#363A43;stroke:#000000;stroke-linecap:round;stroke-linejoin:round;" d="M270.798,275.25L250,282.466l-20.796-7.216c0,0-5.546,4.867-6.472,9.064c1.618,4.363,5.547,13.428,6.471,14.267c0.923,0.838,6.786,3.784,11.784,9.23c2.672,2.912,3.75,7.792,5.258,10.155c0.636,0.797,2.78,1.426,3.755,1.426c0.974,0,3.119-0.629,3.755-1.426c1.507-2.363,2.587-7.243,5.254-10.155c5.003-5.446,10.865-8.393,11.789-9.23c0.921-0.839,4.852-9.903,6.468-14.267C276.342,280.117,270.798,275.25,270.798,275.25z"></path><g><path style="fill:#6E6E6E;stroke:#000000;stroke-linecap:round;stroke-linejoin:round;" d="M275.735,241.123L275.735,241.123L275.735,241.123L275.735,241.123z M224.262,241.123L224.262,241.123L224.262,241.123L224.262,241.123z M286.031,243.226l-10.296-2.103c0,0.001-2.749,9.251-3.076,10.76c-0.624,2.881-12.501,12.31-22.659,17.515c-10.158-5.205-22.035-14.634-22.661-17.515c-0.327-1.509-3.078-10.759-3.078-10.76l-10.294,2.103c0,0-4.506,14.488-3.219,18.227c1.287,2.572,18.66,20.564,18.66,20.564s18.924,29.441,20.591,29.441c1.668,0,20.589-29.441,20.589-29.441s17.373-17.992,18.661-20.564C290.535,257.714,286.031,243.226,286.031,243.226z"></path><path style="opacity:0.4;fill:#FFFFFF;" d="M272.723,253.758c0,0-4.186,4.88-10.438,9.334c-6.25,4.45-10.815,6.338-10.815,6.338l-1.25,40.899l19.693-28.983c0,0,18.283-18.332,18.595-20.035C284.441,258.693,272.723,253.758,272.723,253.758z"></path></g></g></g></svg>