<svg xmlns="http://www.w3.org/2000/svg" width="500" height="500" version="1.1"><g id="x004"><g><g><path style="fill:#6E6E6E;stroke:#000000;stroke-linecap:round;stroke-linejoin:round;" d="M205.743,249.493c-1.611-0.427-10.468-5.131-10.871-3.849c-0.402,1.283,1.208,11.973,4.429,12.827C204.938,254.624,205.743,249.493,205.743,249.493z"></path><path style="fill:#6E6E6E;stroke:#000000;stroke-linecap:round;stroke-linejoin:round;" d="M294.257,249.493c1.61-0.428,10.469-5.131,10.871-3.849c0.402,1.283-1.209,11.973-4.43,12.827C295.063,254.624,294.257,249.493,294.257,249.493z"></path></g><path style="fill:#6E6E6E;stroke:#000000;stroke-linecap:round;stroke-linejoin:round;" d="M299.552,251.202c-1.61-1.709-40.665-7.695-49.924-8.978c-9.259,1.282-48.314,7.269-49.924,8.979c0,0-2.416,21.807,0.806,37.625c3.624,1.711,11.676,0,20.131,0.856c5.235,1.282,28.988,2.993,28.988,2.993s23.753-1.711,28.988-2.993c8.455-0.856,16.507,0.854,20.131-0.856C301.968,273.01,299.552,251.202,299.552,251.202z"></path><path style="fill:#505050;" d="M251.5,280.25L251,244c0,0,27.25,5.75,29.5,7.25C274,257.5,251.5,280.25,251.5,280.25z"></path><path style="fill:none;stroke:#000000;stroke-linecap:round;stroke-linejoin:round;" d="M203.328,253.769c0,0,9.662,11.116,16.507,13.255"></path><path style="fill:none;stroke:#000000;stroke-linecap:round;stroke-linejoin:round;" d="M296.672,253.769c0,0-9.662,11.116-16.506,13.255"></path></g></g></svg>