<svg xmlns="http://www.w3.org/2000/svg" width="500" height="500" version="1.1"><g id="x9040"><g><linearGradient id="maskXMLID_9_" gradientUnits="userSpaceOnUse" x1="305.668" y1="254.9248" x2="305.668" y2="263.2478"><stop offset="0" style="stop-color:#241F1C"></stop><stop offset="1" style="stop-color:#191512"></stop></linearGradient><path style="fill:url(#maskXMLID_9_);stroke:#000000;stroke-linecap:round;stroke-linejoin:round;" d="M305.667,254.334c-1.392,1.834-1.498,8.833-1.498,8.833h2.998C307.167,263.167,307.061,256.168,305.667,254.334z"></path><g><path style="fill:#6E6E6E;stroke:#000000;stroke-linecap:round;stroke-linejoin:round;" d="M301.853,270.102c0,0,1.168,1.667,3.834,1.667s3.834-2,3.834-2l-1.834-1.667l-0.5-4.833l-3.5,0.167l-0.166,5.5L301.853,270.102z"></path><linearGradient id="maskXMLID_10_" gradientUnits="userSpaceOnUse" x1="305.668" y1="271.6064" x2="305.668" y2="294.2198"><stop offset="0" style="stop-color:#241F1C"></stop><stop offset="1" style="stop-color:#191512"></stop></linearGradient><path style="fill:url(#maskXMLID_10_);stroke:#000000;stroke-linecap:round;stroke-linejoin:round;" d="M305.667,270.001c-1.392,1.834-1.498,23.999-1.498,23.999h2.998C307.167,294,307.061,271.835,305.667,270.001z"></path><linearGradient id="maskXMLID_11_" gradientUnits="userSpaceOnUse" x1="305.667" y1="260.6465" x2="305.667" y2="270.1041"><stop offset="0" style="stop-color:#241F1C"></stop><stop offset="1" style="stop-color:#191512"></stop></linearGradient><path style="fill:url(#maskXMLID_11_);stroke:#000000;stroke-linecap:round;stroke-linejoin:round;" d="M310.323,263.915c-0.717-3.701-4.656-3.939-4.656-3.939s-3.939,0.238-4.656,3.939c-0.588,3.046,1.555,4.179,1.555,4.179s-0.24,1.074-0.717,1.671c0.834,0.478,2.625,0.119,2.625,0.119s0.836-1.552,0.598-2.268c-1.432-2.149,0.596-2.985,0.596-2.985s2.029,0.836,0.598,2.985c-0.238,0.716,0.596,2.268,0.596,2.268s1.791,0.358,2.627-0.119c-0.479-0.597-0.717-1.671-0.717-1.671S310.911,266.961,310.323,263.915z"></path></g><linearGradient id="maskXMLID_12_" gradientUnits="userSpaceOnUse" x1="305.668" y1="251.3457" x2="305.668" y2="253.8587"><stop offset="0" style="stop-color:#241F1C"></stop><stop offset="1" style="stop-color:#191512"></stop></linearGradient><circle style="fill:url(#maskXMLID_12_);stroke:#000000;stroke-linecap:round;stroke-linejoin:round;" cx="305.667" cy="252.5" r="1.333"></circle></g></g></svg>