<svg xmlns="http://www.w3.org/2000/svg" width="500" height="500" version="1.1"><g id="x9041"><g><linearGradient id="maskXMLID_13_" gradientUnits="userSpaceOnUse" x1="315.5576" y1="280.2939" x2="324.8915" y2="400.96"><stop offset="0" style="stop-color:#77B8DF"></stop><stop offset="1" style="stop-color:#363A76"></stop></linearGradient><path style="fill:url(#maskXMLID_13_);stroke:#000000;stroke-linecap:round;stroke-linejoin:round;" d="M310.112,262.594c0,0-10.89,83.293-2.767,120.666c2.914-1.588,6.351-2.014,6.351-2.014s7.251,3.721,11.231,3.889c6.375-2.582,14.504-6.23,14.504-6.23c3.507-2.133-11.952-95.643-18.632-113.014C314.759,260.51,310.112,262.594,310.112,262.594z"></path><path style="fill:#2E3463;" d="M304.751,345.084c0,0,0.166,26.334,2.833,37.666c2.75-1.25,6-1.916,6-1.916s5.5,3.25,11.333,4c10.668-4.168,14.584-6.418,14.584-6.418s-0.416-24-3.834-34.75c-1.333,10.666-8.333,22.334-9.333,22.666C324,363,320.667,347,320.667,347s-3.999,18.334-8.333,19S304.751,345.084,304.751,345.084z"></path><g><linearGradient id="maskXMLID_14_" gradientUnits="userSpaceOnUse" x1="327.6611" y1="274.0996" x2="366.3281" y2="380.0996"><stop offset="0" style="stop-color:#FFFFFF"></stop><stop offset="1" style="stop-color:#B0B4D4"></stop></linearGradient><path style="fill:url(#maskXMLID_14_);stroke:#000000;stroke-linecap:round;stroke-linejoin:round;" d="M320.773,257.779c0,0,9.32,83.482,26.134,117.834c2.451-2.238,5.687-3.473,5.687-3.473s7.93,1.883,11.834,1.094c5.575-4.029,12.596-9.516,12.596-9.516c2.897-2.906-26.022-74.387-48.355-104.387C321.517,255.551,320.773,257.779,320.773,257.779z"></path><path style="fill:#AAAFCF;" d="M347.168,375c0,0-10.667-23.834-11-33.668c4.5,9.834,13.331,14.168,14.999,13c-0.332-1.832-2.166-12.166-0.666-18.666c8,14.5,11.834,14.666,15.166,15.166c3-2,3.501-11.166,3.501-11.166s7.5,19.166,7.5,23.5c-1.167,1.334-11.334,9.334-12.667,9.834c-3,0.166-12-1-12-1L347.168,375z"></path></g><g><g><linearGradient id="maskXMLID_15_" gradientUnits="userSpaceOnUse" x1="323.7441" y1="228.8877" x2="329.6183" y2="249.1805"><stop offset="0" style="stop-color:#CEE1F4"></stop><stop offset="1" style="stop-color:#EAF2F8"></stop></linearGradient><path style="fill:url(#maskXMLID_15_);stroke:#000000;stroke-linecap:round;stroke-linejoin:round;" d="M323.746,230.008c-5.783,1.739-15.423,11.085-12.049,20.726c3.374,9.637,10.603,13.012,10.603,15.42c0,2.412-0.964,7.713-0.964,7.713s5.481-1.143,7.41-10.301c1.446,1.928,6.325,4.336,12.109,3.795c5.604-4.699,4.098-9.882,4.098-9.882s2.408,2.411,5.784,2.411c-1.206-1.928-3.06-4.82-3.736-8.796c-0.678-3.977-0.182-9.037-2.712-13.194C339.333,229.759,332.36,227.418,323.746,230.008z"></path><path style="fill:none;stroke:#000000;stroke-linecap:round;stroke-linejoin:round;" d="M344.953,257.479c0,0-0.845-3.854-0.845-4.397c1.085,0.543,3.434,1.086,3.434,1.086"></path></g><linearGradient id="maskXMLID_16_" gradientUnits="userSpaceOnUse" x1="309.8525" y1="254.4004" x2="309.3185" y2="266.6824"><stop offset="0" style="stop-color:#CEE1F4"></stop><stop offset="1" style="stop-color:#EAF2F8"></stop></linearGradient><path style="fill:url(#maskXMLID_16_);stroke:#000000;stroke-linecap:round;stroke-linejoin:round;" d="M314.829,252.359c-3.804-0.83-8.245-0.556-11.567,2.35c-5.783,5.061-4.164,12.256-7.591,16.086c-3.072,3.434-5.783,3.254-5.783,3.254s4.618,3.338,8.495,2.891c4.698-0.543,5.421-3.795,5.421-3.795s1.266,5.061,7.411,7.771c5.784,0.182,8.133-4.699,8.133-4.699s2.53,4.699,8.495,3.977c-3.615-3.254-4.7-5.061-4.7-9.76S324.77,254.528,314.829,252.359z"></path></g></g></g></svg>