<svg xmlns="http://www.w3.org/2000/svg" width="500" height="500" version="1.1"><g id="x9042"><g><g><circle style="fill:#D5C191;stroke:#000000;stroke-linecap:round;stroke-linejoin:round;" cx="195.755" cy="258.013" r="1.594"></circle><circle style="fill:#D5C191;stroke:#000000;stroke-linecap:round;stroke-linejoin:round;" cx="195.604" cy="254.67" r="0.922"></circle><g><g><circle style="fill:#71D4E8;stroke:#000000;stroke-linecap:round;stroke-linejoin:round;" cx="195.163" cy="266.575" r="7.75"></circle><path style="fill:#4E8BAE;" d="M188.123,265.098c0,0-0.935,4.945,2.827,6.907c-2.827-4.614-1.434-7.477-1.434-7.477L188.123,265.098z"></path><circle style="fill:#518FB2;" cx="195.162" cy="266.575" r="3.531"></circle><ellipse transform="matrix(0.4579 -0.889 0.889 0.4579 -136.1181 319.8159)" style="fill:#89F7F8;" cx="194.171" cy="271.517" rx="1.406" ry="2.25"></ellipse><path style="fill:#89F7F8;" d="M193.44,269.715c0,0-0.938-0.688-0.692-1.158c0.246-0.471,3.053,1.792,5.411,0.33C197.706,269.946,195.903,271.299,193.44,269.715z"></path><circle style="fill:#FFFFFF;" cx="191.477" cy="266.598" r="1.695"></circle><circle style="fill:#FFFFFF;" cx="199.207" cy="268.884" r="1.313"></circle></g><g><path style="fill:#D5C191;stroke:#000000;stroke-linecap:round;stroke-linejoin:round;" d="M187.637,264.595c0,0,2.722,0.323,4.72-2.073c0.442,0.777,1.469,1.962,3.018,2.72c1.312-0.412,3.034-2.854,3.034-2.854s1.825,3.096,4.503,3.695c0.102-1.344-0.377-6.827-7.049-7.415S187.637,264.595,187.637,264.595z"></path><path style="fill:#A58678;" d="M193.29,261.736c0,0,1.401,1.853,2.05,2.042c0.649,0.188,1.966-1.667,2.12-2.01c-0.292-0.826-1.309-2.079-1.486-2.121c-0.177-0.043-1.206,0.02-1.206,0.02S193.627,260.517,193.29,261.736z"></path><path style="fill:#D5C191;" d="M195.375,262.948c0,0-1.15-0.949-1.274-1.237c-0.124-0.289,0.676-1.392,0.825-1.439c0.149-0.046,0.949-0.003,0.949-0.003s0.716,0.921,0.739,1.307C196.636,261.962,195.76,262.925,195.375,262.948z"></path><path style="fill:#A58678;" d="M197.865,261.182c0,0-0.554-1.136-0.589-1.354c0.464,0.019,1.485,0.451,1.485,0.451L197.865,261.182z"></path><path style="fill:#A58678;" d="M199.27,261.69c0,0,0.504-0.585,0.672-0.571c0.399,0.333,1.673,2.717,1.776,3.045C200.985,263.706,199.678,262.676,199.27,261.69z"></path><path style="fill:#A58678;" d="M188.865,263.292c0,0,2.165-0.616,3.214-1.863c-0.211-0.358-0.335-0.647-0.335-0.647s-1.931,1.36-2.52,1.677C188.901,262.887,188.865,263.292,188.865,263.292z"></path><path style="fill:#A58678;" d="M192.737,261.124l-0.415-0.59c0,0,0.606-0.78,0.726-0.818c0.119-0.037,0.751-0.006,0.751-0.006S193.007,260.94,192.737,261.124z"></path></g></g></g><g><circle style="fill:#D5C191;stroke:#000000;stroke-linecap:round;stroke-linejoin:round;" cx="304.245" cy="258.013" r="1.594"></circle><circle style="fill:#D5C191;stroke:#000000;stroke-linecap:round;stroke-linejoin:round;" cx="304.396" cy="254.67" r="0.922"></circle><g><g><circle style="fill:#71D4E8;stroke:#000000;stroke-linecap:round;stroke-linejoin:round;" cx="304.838" cy="266.575" r="7.749"></circle><path style="fill:#4E8BAE;" d="M311.878,265.098c0,0,0.935,4.945-2.827,6.907c2.826-4.614,1.434-7.477,1.434-7.477L311.878,265.098z"></path><circle style="fill:#518FB2;" cx="304.839" cy="266.575" r="3.531"></circle><ellipse transform="matrix(-0.458 -0.8889 0.8889 -0.458 204.5408 667.7408)" style="fill:#89F7F8;" cx="305.83" cy="271.517" rx="1.406" ry="2.25"></ellipse><path style="fill:#89F7F8;" d="M306.561,269.715c0,0,0.938-0.688,0.691-1.158c-0.245-0.471-3.053,1.792-5.41,0.33C302.295,269.946,304.098,271.299,306.561,269.715z"></path><circle style="fill:#FFFFFF;" cx="308.523" cy="266.598" r="1.695"></circle><circle style="fill:#FFFFFF;" cx="300.794" cy="268.884" r="1.313"></circle></g><g><path style="fill:#D5C191;stroke:#000000;stroke-linecap:round;stroke-linejoin:round;" d="M312.363,264.595c0,0-2.722,0.323-4.72-2.073c-0.442,0.777-1.47,1.962-3.018,2.72c-1.312-0.412-3.034-2.854-3.034-2.854s-1.824,3.096-4.502,3.695c-0.103-1.344,0.377-6.827,7.049-7.415C310.81,258.079,312.363,264.595,312.363,264.595z"></path><path style="fill:#A58678;" d="M306.711,261.736c0,0-1.401,1.853-2.051,2.042c-0.648,0.188-1.966-1.667-2.119-2.01c0.292-0.826,1.309-2.079,1.485-2.121c0.177-0.043,1.206,0.02,1.206,0.02S306.373,260.517,306.711,261.736z"></path><path style="fill:#D5C191;" d="M304.626,262.948c0,0,1.15-0.949,1.274-1.237c0.123-0.289-0.677-1.392-0.826-1.439c-0.148-0.046-0.948-0.003-0.948-0.003s-0.716,0.921-0.739,1.307C303.364,261.962,304.24,262.925,304.626,262.948z"></path><path style="fill:#A58678;" d="M302.135,261.182c0,0,0.555-1.136,0.59-1.354c-0.464,0.019-1.484,0.451-1.484,0.451L302.135,261.182z"></path><path style="fill:#A58678;" d="M300.73,261.69c0,0-0.504-0.585-0.672-0.571c-0.399,0.333-1.674,2.717-1.776,3.045C299.016,263.706,300.322,262.676,300.73,261.69z"></path><path style="fill:#A58678;" d="M311.135,263.292c0,0-2.164-0.616-3.214-1.863c0.212-0.358,0.335-0.647,0.335-0.647s1.931,1.36,2.52,1.677C311.1,262.887,311.135,263.292,311.135,263.292z"></path><path style="fill:#A58678;" d="M307.264,261.124l0.415-0.59c0,0-0.606-0.78-0.726-0.818c-0.119-0.037-0.751-0.006-0.751-0.006S306.994,260.94,307.264,261.124z"></path></g></g></g></g></g></svg>