<svg xmlns="http://www.w3.org/2000/svg" width="500" height="500" version="1.1"><g id="x9043"><g><path style="fill:#323232;stroke:#000000;" d="M315.783,171.591c-12.021-2.678-39.206-2.97-65.67-2.472c-26.462-0.498-53.646-0.206-65.666,2.472c0,0-7,21.328-1,35.863c0,0,31.427,3.346,66.666,3.796l0,0l0,0h0.001l0,0c35.24-0.45,66.669-3.796,66.669-3.796C322.783,192.919,315.783,171.591,315.783,171.591z"></path><path style="fill:#B5B5B5;" d="M262.917,178.625c0,0-1.334-3.167,3.666-4.333C269.083,174.458,265.084,177.625,262.917,178.625z"></path><path style="fill:#B5B5B5;" d="M263.834,183c0,0-2.334-2.5,2.666-3.667C269,179.5,266.001,182,263.834,183z"></path><path style="fill:#B5B5B5;" d="M265.5,197.75c0,0,2.875,1,3.5,2.25c0.584,1.458-3.262,1.003-3.667-1C265.275,198.714,265.417,198.104,265.5,197.75z"></path><path style="fill:#B5B5B5;" d="M265,201.667c0,0,3.833,1.5,3.833,2.333s-1.166,1.167-1.166,1.167s-1.741-0.676-2.548-1.445C264.273,202.916,263.721,202.008,265,201.667z"></path><path style="fill:#B5B5B5;" d="M236.897,178.625c0,0,1.334-3.167-3.666-4.333C230.731,174.458,234.73,177.625,236.897,178.625z"></path><path style="fill:#B5B5B5;" d="M235.98,183c0,0,2.334-2.5-2.666-3.667C230.814,179.5,233.813,182,235.98,183z"></path><path style="fill:#B5B5B5;" d="M234.314,197.75c0,0-2.875,1-3.5,2.25c-0.584,1.458,3.262,1.003,3.667-1C234.539,198.714,234.397,198.104,234.314,197.75z"></path><path style="fill:#B5B5B5;" d="M234.814,201.667c0,0-3.833,1.5-3.833,2.333s1.166,1.167,1.166,1.167s1.741-0.676,2.548-1.445C235.541,202.916,236.094,202.008,234.814,201.667z"></path><g><g><polygon style="fill:#6E6E6E;" points="256.97,190.333 263.095,185.667 269.178,190.083 263.011,194.667 "></polygon><polygon style="fill:#6E6E6E;" points="243.177,190.333 237.053,185.667 230.97,190.083 237.137,194.667 "></polygon><g><g><g><path d="M283.199,202.386c-1.524,0-3.557-0.189-6.251-0.738c-8.645-0.957-21.759-11.457-32.297-19.894c-2.92-2.339-5.679-4.548-8.007-6.276c-10.143-7.529-25.095-5.492-25.246-5.471l-0.143-0.99c0.154-0.022,15.507-2.121,25.984,5.658c2.343,1.739,5.108,3.954,8.037,6.298c10.437,8.356,23.425,18.756,31.825,19.688c7.762,1.576,9.661,0.065,9.679,0.05l0.68,0.734C287.321,201.578,286.344,202.386,283.199,202.386z"></path></g><g><path d="M282.178,209.88c-4.969,0-11.61-0.897-17.688-4.645c-8.294-5.115-18.09-12.547-23.943-16.988c-2.335-1.772-4.022-3.052-4.758-3.538c-0.34-0.225-0.788-0.564-1.338-0.982c-3.614-2.745-12.078-9.173-23.628-7.234l-0.165-0.986c11.974-2.012,20.681,4.601,24.397,7.424c0.528,0.401,0.958,0.728,1.284,0.943c0.764,0.504,2.461,1.792,4.812,3.576c5.839,4.43,15.611,11.845,23.864,16.934c11.255,6.939,24.517,3.798,24.648,3.765l0.238,0.972C289.836,209.136,286.699,209.88,282.178,209.88z"></path></g><g><path d="M282.576,206.019c-10.305,0.001-20.468-6.797-20.592-6.881c-2.069-1.403-22.53-16.491-29.295-21.575c-6.947-5.222-21.654-4.57-21.8-4.563L210.841,172c0.619-0.026,15.217-0.673,22.449,4.762c6.759,5.08,27.193,20.149,29.255,21.547c0.147,0.1,14.892,9.955,26.52,5.597c0.13-0.04,9.737-2.999,18.396-14.95c5.852-6.618,10.314-6.945,10.502-6.956l0.057,0.998l-0.028-0.499l0.031,0.499c-0.042,0.003-4.271,0.353-9.782,6.582c-8.842,12.209-18.453,15.154-18.857,15.273C287.18,205.681,284.874,206.019,282.576,206.019z"></path></g></g><g><g><path d="M218.053,209.88c-4.522,0-7.659-0.744-7.724-0.759l0.238-0.972c0.133,0.034,13.405,3.169,24.647-3.765c8.257-5.09,18.03-12.507,23.87-16.938c2.348-1.781,4.043-3.068,4.806-3.571c0.296-0.195,0.681-0.479,1.149-0.826c3.821-2.817,12.768-9.413,24.908-7.375l-0.166,0.986c-11.716-1.967-20.43,4.452-24.148,7.194c-0.486,0.359-0.886,0.652-1.192,0.855c-0.734,0.485-2.42,1.764-4.752,3.533c-5.854,4.442-15.651,11.876-23.95,16.993C229.663,208.982,223.021,209.88,218.053,209.88z"></path></g><g><path d="M216.53,202.366c-4.796,0-5.746-1.534-5.862-1.767l0.895-0.447c0.005,0.005,1.567,2.348,11.529,0.515c8.553-1.573,22.481-12.46,32.65-20.41c2.633-2.058,5.119-4.001,7.249-5.582c10.477-7.779,25.828-5.681,25.983-5.658l-0.143,0.99c-0.149-0.021-15.103-2.058-25.245,5.471c-2.119,1.574-4.602,3.514-7.229,5.567c-10.822,8.459-24.292,18.988-33.086,20.605C220.444,202.17,218.242,202.366,216.53,202.366z"></path></g><g><path d="M217.473,205.983c-2.471,0-4.916-0.402-7.185-1.401l0.403-0.915c9.61,4.233,23.737-3.148,26.993-5.357c2.062-1.399,22.497-16.468,29.256-21.547c7.231-5.435,20.872-4.873,21.448-4.845c0.449,0.06,10.019,1.414,14.34,5.989c1.289,1.364,2.824,3.239,4.45,5.223c3.83,4.674,8.171,9.972,11.568,11.585l-0.43,0.903c-3.599-1.71-8.016-7.1-11.912-11.855c-1.614-1.97-3.139-3.832-4.403-5.17c-4.082-4.322-13.608-5.668-13.704-5.681c-0.093-0.001-13.813-0.569-20.756,4.65c-6.766,5.083-27.228,20.171-29.296,21.575C238.119,199.224,227.601,205.983,217.473,205.983z"></path></g></g></g></g><g><path d="M288.874,209.408l-0.184-0.982c7.969-1.495,13.518-7.603,18.413-12.993c1.172-1.29,2.278-2.508,3.404-3.658c3.991-4.513,6.509-5.251,7.694-5.271l-0.889-6.79c-1.589,0.371-6.962,2.137-13.568,9.861c-11.277,12.531-18.975,12.675-19.297,12.675l-0.002-1c0.075,0,7.622-0.195,18.547-12.334c8.153-9.533,14.434-10.262,14.697-10.288l0.482-0.048l1.22,9.314l-0.81-0.351c-0.004-0.001-2.339-0.745-7.343,4.914c-1.131,1.155-2.231,2.367-3.396,3.649C302.842,201.612,297.174,207.853,288.874,209.408z"></path></g><g><path d="M319.252,200.421l-0.672-0.296c-4.917-2.169-8.952-6.995-12.854-11.661c-2.891-3.456-5.62-6.72-8.372-8.413c-6.244-3.843-9.743-3.637-9.783-3.635l-0.079-0.997c0.157-0.01,3.821-0.259,10.386,3.781c2.891,1.779,5.672,5.104,8.615,8.624c3.646,4.358,7.409,8.858,11.821,11.071l0.291-7.137c-1.271-0.888-7.407-5.429-13.648-14.345c-3.182-5.39-13.867-7.54-16.023-7.401l-0.059-0.998c2.327-0.151,13.495,2.049,16.922,7.858c6.834,9.759,13.524,14.166,13.592,14.209l0.238,0.155L319.252,200.421z"></path></g><g><g><path d="M210.618,204.854c-0.404-0.119-10.015-3.064-18.888-15.311c-5.48-6.191-9.709-6.542-9.751-6.544l0.059-0.998c0.188,0.011,4.65,0.337,10.472,6.918c8.688,11.989,18.296,14.948,18.392,14.977L210.618,204.854z"></path></g><g><path d="M181.683,195.619l-0.429-0.903c3.396-1.614,7.737-6.911,11.567-11.585c1.626-1.984,3.161-3.859,4.45-5.223c4.321-4.576,13.891-5.93,14.296-5.985l0.136,0.991c-0.096,0.013-9.626,1.363-13.705,5.681c-1.264,1.339-2.789,3.2-4.403,5.17C189.698,188.519,185.282,193.909,181.683,195.619z"></path></g><g><path d="M211.126,209.408c-8.3-1.556-13.968-7.796-18.969-13.303c-1.166-1.283-2.267-2.495-3.38-3.63c-5.019-5.675-7.352-4.934-7.376-4.927l-0.769,0.272l0.09-0.802l1.104-8.439l0.482,0.048c0.264,0.026,6.544,0.755,14.705,10.297c10.966,12.184,18.463,12.325,18.537,12.325v1c-0.322,0-8.019-0.144-19.288-12.666c-6.613-7.732-11.987-9.499-13.576-9.87l-0.89,6.791c1.187,0.02,3.708,0.761,7.712,5.289c1.108,1.131,2.216,2.349,3.388,3.639c4.895,5.39,10.443,11.498,18.413,12.993L211.126,209.408z"></path></g><g><path d="M180.748,200.421l-0.374-9.185l0.239-0.155c0.066-0.043,6.758-4.45,13.612-14.242c3.406-5.776,14.556-7.962,16.901-7.826l-0.06,0.998c-2.122-0.115-12.841,2.011-16.002,7.368c-6.26,8.945-12.398,13.489-13.67,14.377l0.291,7.137c4.412-2.212,8.176-6.712,11.821-11.071c2.944-3.52,5.725-6.845,8.615-8.624c6.562-4.038,10.237-3.792,10.386-3.781l-0.079,0.997c-0.037,0-3.541-0.205-9.782,3.635c-2.752,1.693-5.482,4.958-8.372,8.413c-3.902,4.666-7.938,9.491-12.855,11.661L180.748,200.421z"></path></g></g></g></g></g></svg>