<svg xmlns="http://www.w3.org/2000/svg" width="500" height="500" version="1.1"><g id="x005"><g><path style="fill:#6E6E6E;stroke:#000000;stroke-linecap:round;stroke-linejoin:round;" d="M267.657,248.535c-8.521-5.188-15.546-5.799-17.657-5.867c-2.111,0.068-9.137,0.679-17.657,5.867c-14.075,8.569-39.055-0.153-41.343-12.785c2.142,11.648,7.778,23.268,10.964,28.529c3.567,5.536,21.879,17.813,48.036,18.029c26.156-0.217,44.468-12.493,48.036-18.029c3.186-5.262,8.822-16.881,10.964-28.529C306.712,248.382,281.732,257.104,267.657,248.535z"></path><path style="fill:#505050;" d="M251.25,265.75v-23c0,0,14.75,4.75,16.75,8.25C261.25,256.5,251.25,265.75,251.25,265.75z"></path></g><line style="fill:none;stroke:#000000;stroke-linecap:round;stroke-linejoin:round;" x1="250" y1="237.852" x2="250" y2="281.066"></line></g></svg>