<svg xmlns="http://www.w3.org/2000/svg" width="500" height="500" version="1.1"><g id="x006"><g><polygon style="opacity:0.5;fill:#6E6E6E;" points="217.251,263.367 216.581,258.106 218.759,255.004 222.109,258.376 222.444,263.367 220.434,265.39 "></polygon><polygon style="opacity:0.5;fill:#6E6E6E;" points="192.964,243.602 192.294,238.342 194.472,235.24 197.821,238.611 198.156,243.602 196.146,245.625 "></polygon><polygon style="opacity:0.5;fill:#6E6E6E;" points="225.351,271.791 221.946,267.725 222.104,263.938 226.744,264.968 229.721,268.987 229.122,271.775 "></polygon><polygon style="fill:#6E6E6E;stroke:#000000;stroke-linecap:round;stroke-linejoin:round;" points="219.932,268.907 226.967,272.928 228.642,277.449 222.946,278.957 218.257,276.779 "></polygon><path style="fill:#6E6E6E;stroke:#000000;stroke-linecap:round;stroke-linejoin:round;" d="M201.161,257.8c0,0-8.04-2.011-8.542-2.681c-0.503-0.67-4.02-5.359-4.188-6.365c-0.168-1.004,0.67-5.861,0.67-5.861s4.188,2.848,5.527,4.188S201.161,257.8,201.161,257.8z"></path><path style="fill:#505050;" d="M190.274,248.754c0,0,3.183,4.523,3.685,5.025c0.502,0.503,3.015,1.006,3.015,1.006l-4.689-5.695L190.274,248.754z"></path><g><polygon style="fill:#6E6E6E;stroke:#000000;stroke-linecap:round;stroke-linejoin:round;" points="206.029,270.247 196.816,270.08 192.796,265.725 201.842,263.715 "></polygon><path style="fill:#6E6E6E;stroke:#000000;stroke-linecap:round;stroke-linejoin:round;" d="M214.236,262.207c0,0,5.025,4.188,5.025,4.689c0,0.503-0.335,6.365-0.335,6.365l-7.203-2.68L214.236,262.207z"></path><path style="fill:#6E6E6E;stroke:#000000;stroke-linecap:round;stroke-linejoin:round;" d="M215.744,254.837c-0.335-1.005-4.522-5.694-5.025-5.862c-0.465-0.154-3.355,4.117-3.792,4.768c-1.08-2.657-2.238-5.103-2.238-5.103s-8.542-7.035-12.729-7.203c0.335,6.03,1.172,13.065,1.172,13.065l3.518,7.537c0,0,8.897,5.063,10.833,5.348l2.231,4.2l4.522-1.173C214.236,270.414,216.079,255.842,215.744,254.837z"></path><polygon style="fill:#505050;" points="209.044,253.832 210.217,260.867 213.063,263.212 211.389,258.857 210.887,251.654 "></polygon><path style="fill:#505050;" d="M194.137,243.615c0,0,0.335,8.709,0.837,9.715c0.503,1.004,5.36,8.709,5.36,8.709s3.35-5.191,2.848-6.197c-0.503-1.005-5.025-9.547-5.025-9.547L194.137,243.615z"></path><line style="fill:none;stroke:#000000;stroke-linecap:round;stroke-linejoin:round;" x1="206.364" y1="252.492" x2="208.206" y2="257.182"></line><path style="fill:#6E6E6E;stroke:#000000;stroke-linecap:round;stroke-linejoin:round;" d="M213.901,266.729l-4.522-4.188l-1.173,3.015l-6.699-0.67c0,0,2.68,5.36,4.857,6.7c2.177,1.341,11.558-0.335,11.558-0.335L213.901,266.729z"></path><path style="fill:#505050;" d="M205.024,266.896c0,0,3.517,0.838,4.02,0.503s1.173-1.843,1.173-1.843l2.68,3.518C212.896,269.074,206.364,268.907,205.024,266.896z"></path></g></g></g></svg>