<svg xmlns="http://www.w3.org/2000/svg" width="500" height="500" version="1.1"><g id="x007"><path style="fill:#C7D1D6;stroke:#000000;stroke-linecap:round;stroke-linejoin:round;" d="M181.615,248.384c-1.117,0.224-9.827,9.156-9.827,10.273c0,1.116,2.68,10.05,6.03,11.837c6.477-0.224,12.06-4.689,12.06-4.689L181.615,248.384z"></path><path style="fill:#C7D1D6;stroke:#000000;stroke-linecap:round;stroke-linejoin:round;" d="M172.905,225.827c0,0-0.894,15.857,0,18.537c0.894,2.68,6.923,13.177,6.923,13.177l13.4,0.67l-5.979-44.461C187.25,213.75,176.031,219.127,172.905,225.827z"></path><g><path style="fill:#FFFFFF;stroke:#000000;stroke-linecap:round;stroke-linejoin:round;" d="M180.051,253.967c-0.446,1.34-0.67,12.507,0,13.4c0.67,0.894,37.967,18.76,40.424,18.983c2.456,0.224,17.866,1.116,17.866-0.224s0.67-5.583,0.67-5.583l-15.634-6.478l-27.693-19.876L180.051,253.967z"></path><path style="fill:#C7D1D6;" d="M180.417,257.167c0,0,0.083,8.749,0.333,9.583s39.583,18.584,39.583,18.584l12,0.75l-40.892-19.609v-5.808L180.417,257.167z"></path></g><path style="fill:#6E6E6E;stroke:#000000;stroke-linecap:round;stroke-linejoin:round;" d="M190.771,222.701c-0.67,0.223-11.613,6.253-11.613,6.923s0.224,13.847,0.894,15.857c0.67,2.01,13.177,3.35,13.177,3.35L190.771,222.701z"></path><path style="fill:#6E6E6E;stroke:#000000;stroke-linecap:round;stroke-linejoin:round;" d="M185.635,238.557l1.563,6.03c0,0-7.37,6.03-7.593,6.7c-0.224,0.67,0,4.02,0,4.02l4.466-1.34l10.72,4.244l0.447,6.029l25.46,12.953l2.68-3.127l-20.323-15.633l0.224-10.497c0,0-2.68-3.573-6.7-8.263c-1.563-6.253-3.279-12.599-4.913-16.303c0,0-6.253,1.787-10.72,5.137"></path><path style="opacity:0.5;fill:#FFFFFF;" d="M200.375,249.054c0,0-9.157,6.477-8.264,4.466c0.894-2.01,6.03-7.146,6.03-7.146L200.375,249.054z"></path></g></svg>