<svg xmlns="http://www.w3.org/2000/svg" width="500" height="500" version="1.1"><g id="x009"><g><g><path style="fill:#6E6E6E;stroke:#000000;stroke-linecap:round;stroke-linejoin:round;" d="M256.709,268.879c0,1.773-0.579,3.413-1.559,4.737c-0.18,0.242-0.19,0.7-0.395,0.919c-0.205,0.221-0.604,0.203-0.832,0.398c-1.395,1.196-3.207,1.92-5.188,1.92c-4.403,0-7.974-3.57-7.974-7.975c-0.317-0.613-0.316-1.043-0.228-1.521c0.114-0.611,0.318-1.227,0.907-1.705c1.239-2.797,4.038-4.747,7.294-4.747C253.14,260.905,256.709,264.475,256.709,268.879z"></path><path style="opacity:0.3;fill:#FFFFFF;" d="M254.119,270.265c0.064,0.223,0.229,2.362-0.454,2.862c-0.682,0.5-4.815,1.908-5.498,1.227c1.772-0.908,3.227-1.771,3.363-2.271c0.136-0.5-0.409-2.59-0.046-2.953C251.849,268.766,254.028,269.946,254.119,270.265z"></path><path style="fill:none;stroke:#000000;stroke-linecap:round;stroke-linejoin:round;" d="M242.942,265.539c0,0,3.49-1.547,7.36,0.818c4.907,2.999,4.499,6.27,4.499,6.27"></path></g><path style="fill:#FFFFFF;stroke:#000000;stroke-linecap:round;stroke-linejoin:round;" d="M245.032,272.037c0,0,0.881-0.368,1.636,0.136c1.091,0.727,0.863,1.544,0.863,1.544l-10.903,17.494c0,0-0.817,0.271-1.682-0.137c-0.863-0.41-0.728-1.592-0.728-1.592L245.032,272.037z"></path></g></g></svg>