<svg xmlns="http://www.w3.org/2000/svg" width="500" height="500" version="1.1"><g id="x010"><g><g><linearGradient id="hair5XMLID_340_" gradientUnits="userSpaceOnUse" x1="309.1289" y1="309.5" x2="309.1289" y2="125.5"><stop offset="0" style="stop-color:#FCFCE4"></stop><stop offset="0.5" style="stop-color:#A0C8DD"></stop><stop offset="1" style="stop-color:#5D6EC5"></stop></linearGradient><path style="fill:url(#hair5XMLID_340_);stroke:#1E1E1E;stroke-linecap:round;stroke-linejoin:round;" d="M312.615,328c0,0,4.666,9,3,15s-5,10.334-5,10.334s-8-5.334-8.333-14c0,0,1.334-10.333,3.667-11S312.615,328,312.615,328z"></path><linearGradient id="hair5XMLID_341_" gradientUnits="userSpaceOnUse" x1="307.834" y1="309.5" x2="307.834" y2="125.4998"><stop offset="0" style="stop-color:#FCFCE4"></stop><stop offset="0.5" style="stop-color:#A0C8DD"></stop><stop offset="1" style="stop-color:#5D6EC5"></stop></linearGradient><path style="fill:url(#hair5XMLID_341_);stroke:#1E1E1E;stroke-linecap:round;stroke-linejoin:round;" d="M310.615,231c0,0-10.333,29-11.333,32.667s-5.667,40.999-4,50.333s10.667,14.334,10.667,14.334l6.666-0.334c0,0,6.666-8.332,8-18.666s-8.334-51.667-9-61.667S310.615,231,310.615,231z"></path><path style="fill:none;stroke:#1E1E1E;stroke-linecap:round;stroke-linejoin:round;" d="M306.615,327.334c0,0,7-7.666,7.667-20s-1.333-27-1.333-27"></path></g><g><linearGradient id="hair5XMLID_342_" gradientUnits="userSpaceOnUse" x1="190.8716" y1="309.5" x2="190.8716" y2="125.5"><stop offset="0" style="stop-color:#FCFCE4"></stop><stop offset="0.5" style="stop-color:#A0C8DD"></stop><stop offset="1" style="stop-color:#5D6EC5"></stop></linearGradient><path style="fill:url(#hair5XMLID_342_);stroke:#1E1E1E;stroke-linecap:round;stroke-linejoin:round;" d="M187.385,328c0,0-4.666,9-3,15s5,10.334,5,10.334s8-5.334,8.333-14c0,0-1.334-10.333-3.667-11S187.385,328,187.385,328z"></path><linearGradient id="hair5XMLID_343_" gradientUnits="userSpaceOnUse" x1="192.1665" y1="309.5" x2="192.1665" y2="125.4998"><stop offset="0" style="stop-color:#FCFCE4"></stop><stop offset="0.5" style="stop-color:#A0C8DD"></stop><stop offset="1" style="stop-color:#5D6EC5"></stop></linearGradient><path style="fill:url(#hair5XMLID_343_);stroke:#1E1E1E;stroke-linecap:round;stroke-linejoin:round;" d="M189.385,231c0,0,10.333,29,11.333,32.667s5.667,40.999,4,50.333s-10.667,14.334-10.667,14.334L187.385,328c0,0-6.666-8.332-8-18.666s8.334-51.667,9-61.667S189.385,231,189.385,231z"></path><path style="fill:none;stroke:#1E1E1E;stroke-linecap:round;stroke-linejoin:round;" d="M193.385,327.334c0,0-7-7.666-7.667-20s1.333-27,1.333-27"></path></g></g></g></svg>