<svg xmlns="http://www.w3.org/2000/svg" width="500" height="500" version="1.1"><g id="x012"><g><linearGradient id="hair5XMLID_346_" gradientUnits="userSpaceOnUse" x1="310.666" y1="309.5" x2="310.666" y2="125.5001"><stop offset="0" style="stop-color:#FCFCE4"></stop><stop offset="0.5" style="stop-color:#A0C8DD"></stop><stop offset="1" style="stop-color:#5D6EC5"></stop></linearGradient><path style="fill:url(#hair5XMLID_346_);stroke:#1E1E1E;stroke-linecap:round;stroke-linejoin:round;" d="M311.144,228c0,0-7.666,21.334-8.333,26.334c0.666,11,4,14.667,3,17s-7.333,12.334-7,17c3.333,6,10.333,11.666,10,13.666s-7.666,15.668-7.333,22.334c11.333-18,21-25.334,20-29.667s-7.334-13.333-7.334-13.333s7.334-18,8.334-23S311.144,228,311.144,228z"></path><linearGradient id="hair5XMLID_347_" gradientUnits="userSpaceOnUse" x1="189.3335" y1="309.5" x2="189.3335" y2="125.5001"><stop offset="0" style="stop-color:#FCFCE4"></stop><stop offset="0.5" style="stop-color:#A0C8DD"></stop><stop offset="1" style="stop-color:#5D6EC5"></stop></linearGradient><path style="fill:url(#hair5XMLID_347_);stroke:#1E1E1E;stroke-linecap:round;stroke-linejoin:round;" d="M188.856,228c0,0,7.666,21.334,8.333,26.334c-0.666,11-4,14.667-3,17s7.333,12.334,7,17c-3.333,6-10.333,11.666-10,13.666s7.666,15.668,7.333,22.334c-11.333-18-21-25.334-20-29.667s7.334-13.333,7.334-13.333s-7.334-18-8.334-23S188.856,228,188.856,228z"></path></g></g></svg>