<svg xmlns="http://www.w3.org/2000/svg" width="500" height="500" version="1.1"><g id="x013"><g><g><linearGradient id="hair5XMLID_348_" gradientUnits="userSpaceOnUse" x1="181.9995" y1="309.5" x2="181.9995" y2="125.5004"><stop offset="0" style="stop-color:#FCFCE4"></stop><stop offset="0.5" style="stop-color:#A0C8DD"></stop><stop offset="1" style="stop-color:#5D6EC5"></stop></linearGradient><path style="fill:url(#hair5XMLID_348_);stroke:#1E1E1E;stroke-linecap:round;stroke-linejoin:round;" d="M190.789,232.333c0,0,5,19.667,7,24.667s6.667,19.666,5.333,29.333c-1.333,9.667-17.666,13.667-20,15.334c-2.333,1.667,10,12,10.333,15c0.334,3-6.666,9.334-11,10c-4.333,0.666-16-1.001-19.666-8.334c5.666,0.667,10.333,2.334,15.333,1.667c-4.333-7-15.737-17.183-17.333-21.333c-1-1,3.333-10.334,5.666-11.334c2.334-1,23.696-3.587,26-13.666C195.122,262.001,190.789,232.333,190.789,232.333z"></path><path style="fill:none;stroke:#1E1E1E;stroke-linecap:round;stroke-linejoin:round;" d="M174.623,303.801c0,0,4.281-0.685,8.057-2.178"></path></g><g><linearGradient id="hair5XMLID_349_" gradientUnits="userSpaceOnUse" x1="318" y1="309.5" x2="318" y2="125.5004"><stop offset="0" style="stop-color:#FCFCE4"></stop><stop offset="0.5" style="stop-color:#A0C8DD"></stop><stop offset="1" style="stop-color:#5D6EC5"></stop></linearGradient><path style="fill:url(#hair5XMLID_349_);stroke:#1E1E1E;stroke-linecap:round;stroke-linejoin:round;" d="M309.211,232.333c0,0-5,19.667-7,24.667s-6.666,19.666-5.333,29.333s17.667,13.667,20,15.334s-9.999,12-10.333,15s6.666,9.334,11,10s16-1.001,19.666-8.334c-5.666,0.667-10.333,2.334-15.333,1.667c4.333-7,15.737-17.183,17.333-21.333c1-1-3.332-10.334-5.666-11.334s-23.696-3.587-26-13.666C304.879,262.001,309.211,232.333,309.211,232.333z"></path><path style="fill:none;stroke:#1E1E1E;stroke-linecap:round;stroke-linejoin:round;" d="M325.377,303.801c0,0-4.281-0.685-8.057-2.178"></path></g></g></g></svg>