<svg xmlns="http://www.w3.org/2000/svg" width="500" height="500" version="1.1"><g id="x014"><g><linearGradient id="hair5XMLID_350_" gradientUnits="userSpaceOnUse" x1="308.834" y1="309.5" x2="308.834" y2="125.5002"><stop offset="0" style="stop-color:#FCFCE4"></stop><stop offset="0.5" style="stop-color:#A0C8DD"></stop><stop offset="1" style="stop-color:#5D6EC5"></stop></linearGradient><path style="fill:url(#hair5XMLID_350_);stroke:#1E1E1E;stroke-linecap:round;stroke-linejoin:round;" d="M309.805,232.333c0,0,5.334,18,4.666,26c-0.666,8-5.332,15.667-5.332,15.667s5.367,2.334,5.367,3.667s-8.668,8-9.668,8.333c4-4,5.633-7.666,3.633-8.666S303.139,272,303.139,272s7.998-11,7.998-16S309.805,232.333,309.805,232.333z"></path><linearGradient id="hair5XMLID_351_" gradientUnits="userSpaceOnUse" x1="191.1665" y1="309.5" x2="191.1665" y2="125.5002"><stop offset="0" style="stop-color:#FCFCE4"></stop><stop offset="0.5" style="stop-color:#A0C8DD"></stop><stop offset="1" style="stop-color:#5D6EC5"></stop></linearGradient><path style="fill:url(#hair5XMLID_351_);stroke:#1E1E1E;stroke-linecap:round;stroke-linejoin:round;" d="M190.195,232.333c0,0-5.333,18-4.666,26S190.862,274,190.862,274s-5.367,2.334-5.367,3.667s8.667,8,9.667,8.333c-4-4-5.633-7.666-3.633-8.666s5.333-5.334,5.333-5.334s-7.999-11-7.999-16S190.195,232.333,190.195,232.333z"></path></g></g></svg>