<svg xmlns="http://www.w3.org/2000/svg" width="500" height="500" version="1.1"><g id="x015"><g><g><linearGradient id="hair5XMLID_352_" gradientUnits="userSpaceOnUse" x1="298.5" y1="309.5" x2="298.5" y2="125.5003"><stop offset="0" style="stop-color:#FCFCE4"></stop><stop offset="0.5" style="stop-color:#A0C8DD"></stop><stop offset="1" style="stop-color:#5D6EC5"></stop></linearGradient><path style="fill:url(#hair5XMLID_352_);stroke:#1E1E1E;stroke-linecap:round;stroke-linejoin:round;" d="M312.152,222.667c-0.666,3-7.666,45.333-14.666,62.333s-15,39-14,48.333s24.999,45.334,23.666,54.334c6-19-9.666-41.333-11.333-51c-1-2.667,9.352-13.828,14.333-46.334C316.486,249,312.152,222.667,312.152,222.667z"></path><path style="fill:none;stroke:#1E1E1E;stroke-linecap:round;stroke-linejoin:round;" d="M296.152,334.667c0,0-2,7.333-2,11.333"></path></g><g><linearGradient id="hair5XMLID_353_" gradientUnits="userSpaceOnUse" x1="201.4995" y1="309.5" x2="201.4995" y2="125.5003"><stop offset="0" style="stop-color:#FCFCE4"></stop><stop offset="0.5" style="stop-color:#A0C8DD"></stop><stop offset="1" style="stop-color:#5D6EC5"></stop></linearGradient><path style="fill:url(#hair5XMLID_353_);stroke:#1E1E1E;stroke-linecap:round;stroke-linejoin:round;" d="M187.848,222.667c0.666,3,7.666,45.333,14.666,62.333s15,39,14,48.333s-24.999,45.334-23.666,54.334c-6-19,9.666-41.333,11.333-51c1-2.667-9.352-13.828-14.333-46.334C183.514,249,187.848,222.667,187.848,222.667z"></path><path style="fill:none;stroke:#1E1E1E;stroke-linecap:round;stroke-linejoin:round;" d="M203.848,334.667c0,0,2,7.333,2,11.333"></path></g></g></g></svg>