<svg xmlns="http://www.w3.org/2000/svg" width="500" height="500" version="1.1"><g id="x016"><g><g><linearGradient id="hair5XMLID_354_" gradientUnits="userSpaceOnUse" x1="311.6914" y1="309.5" x2="311.6914" y2="125.5"><stop offset="0" style="stop-color:#FCFCE4"></stop><stop offset="0.5" style="stop-color:#A0C8DD"></stop><stop offset="1" style="stop-color:#5D6EC5"></stop></linearGradient><path style="fill:url(#hair5XMLID_354_);stroke:#1E1E1E;stroke-linecap:round;stroke-linejoin:round;" d="M324.508,248.25c-2.5-20-8.553-30.771-10-34.75c-0.539-1.486-18.5,58-17,67c2.537,1.384,8.689,2.021,14.582,2.309c1.35-6.23,2.785-14.325,3.418-17.809c0.535,5.887-0.219,12.774-1.035,17.908c5.936,0.204,11.035,0.092,11.035,0.092S327.031,268.435,324.508,248.25z"></path><linearGradient id="hair5XMLID_355_" gradientUnits="userSpaceOnUse" x1="326.5439" y1="309.5" x2="326.5439" y2="125.5"><stop offset="0" style="stop-color:#FCFCE4"></stop><stop offset="0.5" style="stop-color:#A0C8DD"></stop><stop offset="1" style="stop-color:#5D6EC5"></stop></linearGradient><path style="fill:url(#hair5XMLID_355_);stroke:#1E1E1E;stroke-linecap:round;stroke-linejoin:round;" d="M324.508,247.5c0,0,6.5,23.75,4,35.25c-1.75-6.75-4.5-20-4.5-20"></path></g><g><linearGradient id="hair5XMLID_356_" gradientUnits="userSpaceOnUse" x1="188.3081" y1="309.5" x2="188.3081" y2="125.5"><stop offset="0" style="stop-color:#FCFCE4"></stop><stop offset="0.5" style="stop-color:#A0C8DD"></stop><stop offset="1" style="stop-color:#5D6EC5"></stop></linearGradient><path style="fill:url(#hair5XMLID_356_);stroke:#1E1E1E;stroke-linecap:round;stroke-linejoin:round;" d="M175.492,248.25c2.5-20,8.554-30.771,10-34.75c0.54-1.486,18.5,58,17,67c-2.537,1.384-8.688,2.021-14.582,2.309c-1.349-6.23-2.784-14.325-3.418-17.809c-0.535,5.887,0.219,12.774,1.035,17.908c-5.936,0.204-11.035,0.092-11.035,0.092S172.968,268.435,175.492,248.25z"></path><linearGradient id="hair5XMLID_357_" gradientUnits="userSpaceOnUse" x1="173.4556" y1="309.5" x2="173.4556" y2="125.5"><stop offset="0" style="stop-color:#FCFCE4"></stop><stop offset="0.5" style="stop-color:#A0C8DD"></stop><stop offset="1" style="stop-color:#5D6EC5"></stop></linearGradient><path style="fill:url(#hair5XMLID_357_);stroke:#1E1E1E;stroke-linecap:round;stroke-linejoin:round;" d="M175.492,247.5c0,0-6.5,23.75-4,35.25c1.75-6.75,4.5-20,4.5-20"></path></g></g></g></svg>