<svg xmlns="http://www.w3.org/2000/svg" width="500" height="500" version="1.1"><g id="x017"><g><g><linearGradient id="hair5XMLID_358_" gradientUnits="userSpaceOnUse" x1="301.8223" y1="309.5" x2="301.8223" y2="125.5003"><stop offset="0" style="stop-color:#FCFCE4"></stop><stop offset="0.5" style="stop-color:#A0C8DD"></stop><stop offset="1" style="stop-color:#5D6EC5"></stop></linearGradient><path style="fill:url(#hair5XMLID_358_);stroke:#1E1E1E;stroke-linecap:round;stroke-linejoin:round;" d="M315.322,204.667c0,0-4,48-30.667,83.333c4.333,1,9-1.667,9-1.667l2.333-4l-2,5.667c0,0,12-12.668,17.667-35.667l7.333-9l-2-33.667"></path><linearGradient id="hair5XMLID_359_" gradientUnits="userSpaceOnUse" x1="303.5" y1="309.5" x2="303.5" y2="125.5001"><stop offset="0" style="stop-color:#FCFCE4"></stop><stop offset="0.5" style="stop-color:#A0C8DD"></stop><stop offset="1" style="stop-color:#5D6EC5"></stop></linearGradient><path style="fill:url(#hair5XMLID_359_);stroke:#1E1E1E;stroke-linecap:round;stroke-linejoin:round;" d="M313.322,247c0,1-12.667,39.001-29.667,60.667c10.333-1.334,14.333-5.334,14.333-5.334L296.322,308c0,0,21.334-24.971,26.787-64.987c0.941-6.906-0.787-20.679-7.787-38.679"></path></g><g><linearGradient id="hair5XMLID_360_" gradientUnits="userSpaceOnUse" x1="198.1782" y1="309.5" x2="198.1782" y2="125.5003"><stop offset="0" style="stop-color:#FCFCE4"></stop><stop offset="0.5" style="stop-color:#A0C8DD"></stop><stop offset="1" style="stop-color:#5D6EC5"></stop></linearGradient><path style="fill:url(#hair5XMLID_360_);stroke:#1E1E1E;stroke-linecap:round;stroke-linejoin:round;" d="M184.678,204.667c0,0,4,48,30.667,83.333c-4.333,1-9-1.667-9-1.667l-2.333-4l2,5.667c0,0-12-12.668-17.667-35.667l-7.333-9l2-33.667"></path><linearGradient id="hair5XMLID_361_" gradientUnits="userSpaceOnUse" x1="196.4995" y1="309.5" x2="196.4995" y2="125.5001"><stop offset="0" style="stop-color:#FCFCE4"></stop><stop offset="0.5" style="stop-color:#A0C8DD"></stop><stop offset="1" style="stop-color:#5D6EC5"></stop></linearGradient><path style="fill:url(#hair5XMLID_361_);stroke:#1E1E1E;stroke-linecap:round;stroke-linejoin:round;" d="M186.678,247c0,1,12.667,39.001,29.667,60.667c-10.333-1.334-14.333-5.334-14.333-5.334l1.666,5.667c0,0-21.334-24.971-26.787-64.987c-0.941-6.906,0.787-20.679,7.787-38.679"></path></g></g></g></svg>