<svg xmlns="http://www.w3.org/2000/svg" width="500" height="500" version="1.1"><g id="x018"><g><linearGradient id="hair5XMLID_362_" gradientUnits="userSpaceOnUse" x1="190.0005" y1="309.5" x2="190.0005" y2="125.4996"><stop offset="0" style="stop-color:#FCFCE4"></stop><stop offset="0.5" style="stop-color:#A0C8DD"></stop><stop offset="1" style="stop-color:#5D6EC5"></stop></linearGradient><path style="fill:url(#hair5XMLID_362_);stroke:#1E1E1E;stroke-linecap:round;stroke-linejoin:round;" d="M202.057,301c-5.177-15.293-5.702-37.216-5.563-49.853l-10.581-43.544c-1.768,3.418-4.398,9.147-5.856,15.397c-2.333,10-2.666,47.667-1.333,60.667s8.667,14.666,8.667,14.666s-2-8.333-1-11.333C188.725,292.667,190.724,297.333,202.057,301z"></path><linearGradient id="hair5XMLID_363_" gradientUnits="userSpaceOnUse" x1="310" y1="309.5" x2="310" y2="125.4996"><stop offset="0" style="stop-color:#FCFCE4"></stop><stop offset="0.5" style="stop-color:#A0C8DD"></stop><stop offset="1" style="stop-color:#5D6EC5"></stop></linearGradient><path style="fill:url(#hair5XMLID_363_);stroke:#1E1E1E;stroke-linecap:round;stroke-linejoin:round;" d="M297.943,301c5.177-15.293,5.701-37.216,5.563-49.853l10.582-43.544c1.768,3.418,4.397,9.147,5.855,15.397c2.333,10,2.666,47.667,1.333,60.667s-8.667,14.666-8.667,14.666s2-8.333,1-11.333C311.275,292.667,309.276,297.333,297.943,301z"></path></g></g></svg>