<svg xmlns="http://www.w3.org/2000/svg" width="500" height="500" version="1.1"><g id="x019"><g><g><linearGradient id="hair5XMLID_364_" gradientUnits="userSpaceOnUse" x1="301.3672" y1="309.5" x2="301.3672" y2="125.4999"><stop offset="0" style="stop-color:#FCFCE4"></stop><stop offset="0.5" style="stop-color:#A0C8DD"></stop><stop offset="1" style="stop-color:#5D6EC5"></stop></linearGradient><path style="fill:url(#hair5XMLID_364_);stroke:#1E1E1E;stroke-linecap:round;stroke-linejoin:round;" d="M309.285,233.667c0,0-15.712,21.901-15.834,31.25s4.5,12.75,4.5,12.75l10.385-3.967c0,0-8.629-2.833-6.484-13.883C303.996,248.767,309.285,233.667,309.285,233.667z"></path><linearGradient id="hair5XMLID_365_" gradientUnits="userSpaceOnUse" x1="304.9277" y1="309.5" x2="304.9277" y2="125.4998"><stop offset="0" style="stop-color:#FCFCE4"></stop><stop offset="0.5" style="stop-color:#A0C8DD"></stop><stop offset="1" style="stop-color:#5D6EC5"></stop></linearGradient><path style="fill:url(#hair5XMLID_365_);stroke:#1E1E1E;stroke-linecap:round;stroke-linejoin:round;" d="M289.285,287.667c0,0-1.5,2.833-1.167,3.333c2.167,1.333,20.001,4.333,28.167,3c2.5-4.667,5.5-8.167,5.5-8.167S290.285,288.834,289.285,287.667z"></path><linearGradient id="hair5XMLID_366_" gradientUnits="userSpaceOnUse" x1="303.8682" y1="309.5" x2="303.8682" y2="125.5001"><stop offset="0" style="stop-color:#FCFCE4"></stop><stop offset="0.5" style="stop-color:#A0C8DD"></stop><stop offset="1" style="stop-color:#5D6EC5"></stop></linearGradient><path style="fill:url(#hair5XMLID_366_);stroke:#1E1E1E;stroke-linecap:round;stroke-linejoin:round;" d="M313.118,269.333c4.5,0.167,7.833,6.167,7.833,6.167c-0.833,2.667-1,4-1,4s-29.499,9.834-31.166,9.167c-1.667-2-2-4.334-2-4.334S307.785,270.833,313.118,269.333z"></path><linearGradient id="hair5XMLID_367_" gradientUnits="userSpaceOnUse" x1="309.6172" y1="309.5" x2="309.6172" y2="125.4997"><stop offset="0" style="stop-color:#FCFCE4"></stop><stop offset="0.5" style="stop-color:#A0C8DD"></stop><stop offset="1" style="stop-color:#5D6EC5"></stop></linearGradient><path style="fill:url(#hair5XMLID_367_);stroke:#1E1E1E;stroke-linecap:round;stroke-linejoin:round;" d="M296.618,304.833c-0.123,0.677,11,8.333,26,0c-12,0.5-20.5-4.333-20.5-4.333S296.951,302.999,296.618,304.833z"></path><linearGradient id="hair5XMLID_368_" gradientUnits="userSpaceOnUse" x1="308.166" y1="309.5" x2="308.166" y2="125.5"><stop offset="0" style="stop-color:#FCFCE4"></stop><stop offset="0.5" style="stop-color:#A0C8DD"></stop><stop offset="1" style="stop-color:#5D6EC5"></stop></linearGradient><path style="fill:url(#hair5XMLID_368_);stroke:#1E1E1E;stroke-linecap:round;stroke-linejoin:round;" d="M322.285,285.333c0,0,2.166,7.5,1.166,8.667c-2.833,1.5-21.166,6.333-26.833,10.833c-3.167-0.666-4-4.333-4-4.333S308.118,290.333,322.285,285.333z"></path></g><g><linearGradient id="hair5XMLID_369_" gradientUnits="userSpaceOnUse" x1="198.6333" y1="309.5" x2="198.6333" y2="125.4999"><stop offset="0" style="stop-color:#FCFCE4"></stop><stop offset="0.5" style="stop-color:#A0C8DD"></stop><stop offset="1" style="stop-color:#5D6EC5"></stop></linearGradient><path style="fill:url(#hair5XMLID_369_);stroke:#1E1E1E;stroke-linecap:round;stroke-linejoin:round;" d="M190.715,233.667c0,0,15.712,21.901,15.834,31.25s-4.5,12.75-4.5,12.75l-10.385-3.967c0,0,8.629-2.833,6.484-13.883C196.004,248.767,190.715,233.667,190.715,233.667z"></path><linearGradient id="hair5XMLID_370_" gradientUnits="userSpaceOnUse" x1="195.0728" y1="309.5" x2="195.0727" y2="125.4998"><stop offset="0" style="stop-color:#FCFCE4"></stop><stop offset="0.5" style="stop-color:#A0C8DD"></stop><stop offset="1" style="stop-color:#5D6EC5"></stop></linearGradient><path style="fill:url(#hair5XMLID_370_);stroke:#1E1E1E;stroke-linecap:round;stroke-linejoin:round;" d="M210.715,287.667c0,0,1.5,2.833,1.167,3.333c-2.167,1.333-20.001,4.333-28.167,3c-2.5-4.667-5.5-8.167-5.5-8.167S209.715,288.834,210.715,287.667z"></path><linearGradient id="hair5XMLID_371_" gradientUnits="userSpaceOnUse" x1="196.1318" y1="309.5" x2="196.1318" y2="125.5001"><stop offset="0" style="stop-color:#FCFCE4"></stop><stop offset="0.5" style="stop-color:#A0C8DD"></stop><stop offset="1" style="stop-color:#5D6EC5"></stop></linearGradient><path style="fill:url(#hair5XMLID_371_);stroke:#1E1E1E;stroke-linecap:round;stroke-linejoin:round;" d="M186.882,269.333c-4.5,0.167-7.833,6.167-7.833,6.167c0.833,2.667,1,4,1,4s29.499,9.834,31.166,9.167c1.667-2,2-4.334,2-4.334S192.215,270.833,186.882,269.333z"></path><linearGradient id="hair5XMLID_372_" gradientUnits="userSpaceOnUse" x1="190.3823" y1="309.5" x2="190.3823" y2="125.4997"><stop offset="0" style="stop-color:#FCFCE4"></stop><stop offset="0.5" style="stop-color:#A0C8DD"></stop><stop offset="1" style="stop-color:#5D6EC5"></stop></linearGradient><path style="fill:url(#hair5XMLID_372_);stroke:#1E1E1E;stroke-linecap:round;stroke-linejoin:round;" d="M203.382,304.833c0.123,0.677-11,8.333-26,0c12,0.5,20.5-4.333,20.5-4.333S203.049,302.999,203.382,304.833z"></path><linearGradient id="hair5XMLID_373_" gradientUnits="userSpaceOnUse" x1="191.8335" y1="309.5" x2="191.8335" y2="125.5"><stop offset="0" style="stop-color:#FCFCE4"></stop><stop offset="0.5" style="stop-color:#A0C8DD"></stop><stop offset="1" style="stop-color:#5D6EC5"></stop></linearGradient><path style="fill:url(#hair5XMLID_373_);stroke:#1E1E1E;stroke-linecap:round;stroke-linejoin:round;" d="M177.715,285.333c0,0-2.166,7.5-1.166,8.667c2.833,1.5,21.166,6.333,26.833,10.833c3.167-0.666,4-4.333,4-4.333S191.882,290.333,177.715,285.333z"></path></g></g></g></svg>