<svg xmlns="http://www.w3.org/2000/svg" width="500" height="500" version="1.1"><g id="x020"><g><g><linearGradient id="hair5XMLID_374_" gradientUnits="userSpaceOnUse" x1="305.916" y1="309.5" x2="305.916" y2="125.4999"><stop offset="0" style="stop-color:#FCFCE4"></stop><stop offset="0.5" style="stop-color:#A0C8DD"></stop><stop offset="1" style="stop-color:#5D6EC5"></stop></linearGradient><path style="fill:url(#hair5XMLID_374_);stroke:#1E1E1E;stroke-linecap:round;stroke-linejoin:round;" d="M309.208,235.25c0,0-10.625,18.646-10.625,21.859c0,3.215,2.332,23.237-0.334,30.159c12-8.404,15.334-25.214,15.334-30.653c0-5.438-2.125-36.365-2.125-36.365L309.208,235.25z"></path><linearGradient id="hair5XMLID_375_" gradientUnits="userSpaceOnUse" x1="307.125" y1="309.5" x2="307.125" y2="125.5001"><stop offset="0" style="stop-color:#FCFCE4"></stop><stop offset="0.5" style="stop-color:#A0C8DD"></stop><stop offset="1" style="stop-color:#5D6EC5"></stop></linearGradient><path style="fill:url(#hair5XMLID_375_);stroke:#1E1E1E;stroke-linecap:round;stroke-linejoin:round;" d="M298.415,286.032c0,0-4.666,7.664,0.334,12.855c5,5.19,11.333,9.641,11.333,12.112c6.333-8.652-4-11.372-2.667-15.327c1.334-3.955,9.334-8.157,10.334-11.124c1-2.966-10-14.337-10-14.337"></path></g><g><linearGradient id="hair5XMLID_376_" gradientUnits="userSpaceOnUse" x1="194.084" y1="309.5" x2="194.084" y2="125.4999"><stop offset="0" style="stop-color:#FCFCE4"></stop><stop offset="0.5" style="stop-color:#A0C8DD"></stop><stop offset="1" style="stop-color:#5D6EC5"></stop></linearGradient><path style="fill:url(#hair5XMLID_376_);stroke:#1E1E1E;stroke-linecap:round;stroke-linejoin:round;" d="M190.792,235.25c0,0,10.625,18.646,10.625,21.859c0,3.215-2.332,23.237,0.334,30.159c-12-8.404-15.334-25.214-15.334-30.653c0-5.438,2.125-36.365,2.125-36.365L190.792,235.25z"></path><linearGradient id="hair5XMLID_377_" gradientUnits="userSpaceOnUse" x1="192.8745" y1="309.5" x2="192.8745" y2="125.5001"><stop offset="0" style="stop-color:#FCFCE4"></stop><stop offset="0.5" style="stop-color:#A0C8DD"></stop><stop offset="1" style="stop-color:#5D6EC5"></stop></linearGradient><path style="fill:url(#hair5XMLID_377_);stroke:#1E1E1E;stroke-linecap:round;stroke-linejoin:round;" d="M201.585,286.032c0,0,4.666,7.664-0.334,12.855c-5,5.19-11.333,9.641-11.333,12.112c-6.333-8.652,4-11.372,2.667-15.327c-1.334-3.955-9.334-8.157-10.334-11.124c-1-2.966,10-14.337,10-14.337"></path></g></g></g></svg>