<svg xmlns="http://www.w3.org/2000/svg" width="500" height="500" version="1.1"><g id="x021"><g><linearGradient id="hair5XMLID_378_" gradientUnits="userSpaceOnUse" x1="198.9214" y1="309.5" x2="198.9214" y2="125.5002"><stop offset="0" style="stop-color:#FCFCE4"></stop><stop offset="0.5" style="stop-color:#A0C8DD"></stop><stop offset="1" style="stop-color:#5D6EC5"></stop></linearGradient><path style="fill:url(#hair5XMLID_378_);stroke:#1E1E1E;stroke-linecap:round;stroke-linejoin:round;" d="M193.893,249.643c1.005,1.005,10.72,13.736,10.385,21.775c-0.335,8.041-9.38,14.404-9.38,14.404s5.695-11.055,3.35-16.75c-2.345-5.693-4.689-10.719-4.689-10.719L193.893,249.643z"></path><linearGradient id="hair5XMLID_379_" gradientUnits="userSpaceOnUse" x1="181.0347" y1="309.5" x2="181.0347" y2="125.4998"><stop offset="0" style="stop-color:#FCFCE4"></stop><stop offset="0.5" style="stop-color:#A0C8DD"></stop><stop offset="1" style="stop-color:#5D6EC5"></stop></linearGradient><path style="fill:url(#hair5XMLID_379_);stroke:#1E1E1E;stroke-linecap:round;stroke-linejoin:round;" d="M196.5,250.25c6.365,34.17-15.003,51.988-15.003,51.988s-13.399-7.705-13.734-14.74c3.015-22.445-3.853-37.645-3.351-58.959c0.503-21.314,6.7-35.511,6.7-35.511S173,187.5,184.5,181c-1,14.75-0.25,33.5,3.75,45C191,240,196.5,250.25,196.5,250.25z"></path><linearGradient id="hair5XMLID_380_" gradientUnits="userSpaceOnUse" x1="187.4399" y1="309.5" x2="187.4399" y2="125.5"><stop offset="0" style="stop-color:#FCFCE4"></stop><stop offset="0.5" style="stop-color:#A0C8DD"></stop><stop offset="1" style="stop-color:#5D6EC5"></stop></linearGradient><path style="fill:url(#hair5XMLID_380_);stroke:#1E1E1E;stroke-linecap:round;stroke-linejoin:round;" d="M195.313,260.764c-4.063-7.514-7.153-22.628-5.813-33.014c-2.681,4.021-9.933,17.938-9.933,17.938s0.335,9.044,11.391,19.095"></path><g><linearGradient id="hair5XMLID_381_" gradientUnits="userSpaceOnUse" x1="192.3828" y1="309.5" x2="192.3828" y2="125.4995"><stop offset="0" style="stop-color:#FCFCE4"></stop><stop offset="0.5" style="stop-color:#A0C8DD"></stop><stop offset="1" style="stop-color:#5D6EC5"></stop></linearGradient><path style="fill:url(#hair5XMLID_381_);stroke:#1E1E1E;stroke-linecap:round;stroke-linejoin:round;" d="M185.848,354.207c0,0,6.938,2.682,9.412-1.086s0.668-5.371-2.435-6.635c4.552,0.191,12.014,12.779,0.009,14.545C182.895,358.791,185.848,354.207,185.848,354.207z"></path><linearGradient id="hair5XMLID_382_" gradientUnits="userSpaceOnUse" x1="183.2651" y1="309.5" x2="183.2651" y2="125.5"><stop offset="0" style="stop-color:#FCFCE4"></stop><stop offset="0.5" style="stop-color:#A0C8DD"></stop><stop offset="1" style="stop-color:#5D6EC5"></stop></linearGradient><path style="fill:url(#hair5XMLID_382_);stroke:#1E1E1E;stroke-linecap:round;stroke-linejoin:round;" d="M185.088,338.127c0,0-1.679,16.027,8.548,22c-9.72,2.553-13.432,3.021-15.153,1.742c-1.722-1.281-7.035-8.375-5.212-19.947"></path><linearGradient id="hair5XMLID_383_" gradientUnits="userSpaceOnUse" x1="183.4077" y1="309.5" x2="183.4077" y2="125.5"><stop offset="0" style="stop-color:#FCFCE4"></stop><stop offset="0.5" style="stop-color:#A0C8DD"></stop><stop offset="1" style="stop-color:#5D6EC5"></stop></linearGradient><path style="fill:url(#hair5XMLID_383_);stroke:#1E1E1E;stroke-linecap:round;stroke-linejoin:round;" d="M194.319,328.43c0,0-2.852,6.291-19.704,17.297c-3.9-6.943,2.547-11.406,5.913-22.334c3.364-10.928-5.397-16.594-8.24-23.467C185.671,304.725,196.149,318.252,194.319,328.43z"></path><linearGradient id="hair5XMLID_384_" gradientUnits="userSpaceOnUse" x1="172.1128" y1="309.5" x2="172.1128" y2="125.5001"><stop offset="0" style="stop-color:#FCFCE4"></stop><stop offset="0.5" style="stop-color:#A0C8DD"></stop><stop offset="1" style="stop-color:#5D6EC5"></stop></linearGradient><path style="fill:url(#hair5XMLID_384_);stroke:#1E1E1E;stroke-linecap:round;stroke-linejoin:round;" d="M165.753,277.113c0,0-11.726,15.074-12.061,20.77s8.04,10.721,11.391,13.4c3.35,2.68,20.435,6.029,25.46,12.395c-6.365-9.379-6.365-9.379-6.365-9.379s-21.775-11.055-23.115-17.42c3.015-8.711,8.71-14.07,8.71-14.07"></path><linearGradient id="hair5XMLID_385_" gradientUnits="userSpaceOnUse" x1="184.7842" y1="309.5" x2="184.7842" y2="125.5"><stop offset="0" style="stop-color:#FCFCE4"></stop><stop offset="0.5" style="stop-color:#A0C8DD"></stop><stop offset="1" style="stop-color:#5D6EC5"></stop></linearGradient><path style="fill:url(#hair5XMLID_385_);stroke:#1E1E1E;stroke-linecap:round;stroke-linejoin:round;" d="M168.693,263.809c0,0-2.639,14.631-4.733,18.908c-1.49,3.039-1.446,8.703,3.133,14.496c8.591,10.873,25.618,24.002,25.469,33.756c13.391-12.986,15.41-23.094,13.097-33.225c-2.313-10.129-25.416-12.375-29.661-14.031c-1.869-6.6-0.406-13.77,0.141-15.645"></path><path style="fill:none;stroke:#1E1E1E;stroke-linecap:round;stroke-linejoin:round;" d="M192.888,300.563c0,0,10.385,6.031,10.385,15.746"></path></g></g></g></svg>