<svg xmlns="http://www.w3.org/2000/svg" width="500" height="500" version="1.1"><g id="x023"><g><g><linearGradient id="hair5XMLID_394_" gradientUnits="userSpaceOnUse" x1="187.75" y1="309.5" x2="187.75" y2="125.4995"><stop offset="0" style="stop-color:#FCFCE4"></stop><stop offset="0.5" style="stop-color:#A0C8DD"></stop><stop offset="1" style="stop-color:#5D6EC5"></stop></linearGradient><path style="fill:url(#hair5XMLID_394_);stroke:#1E1E1E;stroke-linecap:round;stroke-linejoin:round;" d="M194.722,246.406c0,0,1.34,30.373,9.38,67.445C174.693,288,167.189,246.7,173.443,206.5c0,0,2-14.75,11.75-26C188.943,207.75,194.722,246.406,194.722,246.406z"></path><linearGradient id="hair5XMLID_395_" gradientUnits="userSpaceOnUse" x1="195.168" y1="309.5" x2="195.168" y2="125.4999"><stop offset="0" style="stop-color:#FCFCE4"></stop><stop offset="0.5" style="stop-color:#A0C8DD"></stop><stop offset="1" style="stop-color:#5D6EC5"></stop></linearGradient><path style="fill:url(#hair5XMLID_395_);stroke:#1E1E1E;stroke-linecap:round;stroke-linejoin:round;" d="M193.828,251.767c0,0,9.38,28.14,10.273,31.265c-5.36,0.447-13.4-4.02-17.867-16.525"></path><linearGradient id="hair5XMLID_396_" gradientUnits="userSpaceOnUse" x1="196.3525" y1="309.5" x2="196.3525" y2="125.4999"><stop offset="0" style="stop-color:#FCFCE4"></stop><stop offset="0.5" style="stop-color:#A0C8DD"></stop><stop offset="1" style="stop-color:#5D6EC5"></stop></linearGradient><path style="fill:url(#hair5XMLID_396_);stroke:#1E1E1E;stroke-linecap:round;stroke-linejoin:round;" d="M189.344,210.25c0,0,9.845,48.216,14.758,56.256c-7.895-4.971-12.953-9.38-15.498-23.148"></path></g><g><linearGradient id="hair5XMLID_397_" gradientUnits="userSpaceOnUse" x1="312.25" y1="309.5" x2="312.25" y2="125.4995"><stop offset="0" style="stop-color:#FCFCE4"></stop><stop offset="0.5" style="stop-color:#A0C8DD"></stop><stop offset="1" style="stop-color:#5D6EC5"></stop></linearGradient><path style="fill:url(#hair5XMLID_397_);stroke:#1E1E1E;stroke-linecap:round;stroke-linejoin:round;" d="M305.278,246.406c0,0-1.34,30.373-9.38,67.445C325.307,288,332.811,246.7,326.557,206.5c0,0-2-14.75-11.75-26C311.057,207.75,305.278,246.406,305.278,246.406z"></path><linearGradient id="hair5XMLID_398_" gradientUnits="userSpaceOnUse" x1="304.832" y1="309.5" x2="304.832" y2="125.4999"><stop offset="0" style="stop-color:#FCFCE4"></stop><stop offset="0.5" style="stop-color:#A0C8DD"></stop><stop offset="1" style="stop-color:#5D6EC5"></stop></linearGradient><path style="fill:url(#hair5XMLID_398_);stroke:#1E1E1E;stroke-linecap:round;stroke-linejoin:round;" d="M306.172,251.767c0,0-9.38,28.14-10.273,31.265c5.36,0.447,13.4-4.02,17.867-16.525"></path><linearGradient id="hair5XMLID_399_" gradientUnits="userSpaceOnUse" x1="303.6475" y1="309.5" x2="303.6475" y2="125.4999"><stop offset="0" style="stop-color:#FCFCE4"></stop><stop offset="0.5" style="stop-color:#A0C8DD"></stop><stop offset="1" style="stop-color:#5D6EC5"></stop></linearGradient><path style="fill:url(#hair5XMLID_399_);stroke:#1E1E1E;stroke-linecap:round;stroke-linejoin:round;" d="M310.656,210.25c0,0-9.845,48.216-14.758,56.256c7.895-4.971,12.953-9.38,15.498-23.148"></path></g></g></g></svg>