<svg xmlns="http://www.w3.org/2000/svg" width="500" height="500" version="1.1"><g id="x024"><g><linearGradient id="hair5XMLID_400_" gradientUnits="userSpaceOnUse" x1="185.9995" y1="309.5" x2="185.9995" y2="125.5004"><stop offset="0" style="stop-color:#FCFCE4"></stop><stop offset="0.5" style="stop-color:#A0C8DD"></stop><stop offset="1" style="stop-color:#5D6EC5"></stop></linearGradient><path style="fill:url(#hair5XMLID_400_);stroke:#1E1E1E;stroke-linecap:round;stroke-linejoin:round;" d="M216.93,131.5c0,0-31.813,8.759-49.581,49.827c-27.247,62.98-2.681,107.197,11.613,122.384c-6.7-15.187-4.466-29.927-4.466-29.927s12.06,27.247,26.353,30.374C164.367,230.5,216.93,131.5,216.93,131.5z"></path><linearGradient id="hair5XMLID_401_" gradientUnits="userSpaceOnUse" x1="314" y1="309.5" x2="314" y2="125.5004"><stop offset="0" style="stop-color:#FCFCE4"></stop><stop offset="0.5" style="stop-color:#A0C8DD"></stop><stop offset="1" style="stop-color:#5D6EC5"></stop></linearGradient><path style="fill:url(#hair5XMLID_401_);stroke:#1E1E1E;stroke-linecap:round;stroke-linejoin:round;" d="M283.07,131.5c0,0,31.813,8.759,49.581,49.827c27.247,62.98,2.681,107.197-11.613,122.384c6.7-15.187,4.466-29.927,4.466-29.927s-12.06,27.247-26.353,30.374C335.633,230.5,283.07,131.5,283.07,131.5z"></path></g></g></svg>