<svg xmlns="http://www.w3.org/2000/svg" width="500" height="500" version="1.1"><g id="x026"><g><g><linearGradient id="hair5XMLID_404_" gradientUnits="userSpaceOnUse" x1="196.1489" y1="309.5" x2="196.1489" y2="125.4997"><stop offset="0" style="stop-color:#FCFCE4"></stop><stop offset="0.5" style="stop-color:#A0C8DD"></stop><stop offset="1" style="stop-color:#5D6EC5"></stop></linearGradient><path style="fill:url(#hair5XMLID_404_);stroke:#1E1E1E;stroke-linecap:round;stroke-linejoin:round;" d="M193.245,201.204c0,1.787,0.446,56.277,13.4,69.677c-13.847-10.273-18.313-18.313-20.993-34.39"></path><linearGradient id="hair5XMLID_405_" gradientUnits="userSpaceOnUse" x1="188.7129" y1="309.5" x2="188.7129" y2="125.4996"><stop offset="0" style="stop-color:#FCFCE4"></stop><stop offset="0.5" style="stop-color:#A0C8DD"></stop><stop offset="1" style="stop-color:#5D6EC5"></stop></linearGradient><path style="fill:url(#hair5XMLID_405_);stroke:#1E1E1E;stroke-linecap:round;stroke-linejoin:round;" d="M184.312,157.431c-27.693,71.467,10.273,121.938,18.76,125.51c-20.1-35.283-0.894-125.063-0.894-125.063L184.312,157.431z"></path></g><g><linearGradient id="hair5XMLID_406_" gradientUnits="userSpaceOnUse" x1="303.8516" y1="309.5" x2="303.8516" y2="125.4997"><stop offset="0" style="stop-color:#FCFCE4"></stop><stop offset="0.5" style="stop-color:#A0C8DD"></stop><stop offset="1" style="stop-color:#5D6EC5"></stop></linearGradient><path style="fill:url(#hair5XMLID_406_);stroke:#1E1E1E;stroke-linecap:round;stroke-linejoin:round;" d="M306.755,201.204c0,1.787-0.446,56.277-13.4,69.677c13.847-10.273,18.313-18.313,20.993-34.39"></path><linearGradient id="hair5XMLID_407_" gradientUnits="userSpaceOnUse" x1="311.2871" y1="309.5" x2="311.2871" y2="125.4996"><stop offset="0" style="stop-color:#FCFCE4"></stop><stop offset="0.5" style="stop-color:#A0C8DD"></stop><stop offset="1" style="stop-color:#5D6EC5"></stop></linearGradient><path style="fill:url(#hair5XMLID_407_);stroke:#1E1E1E;stroke-linecap:round;stroke-linejoin:round;" d="M315.688,157.431c27.693,71.467-10.273,121.938-18.76,125.51c20.1-35.283,0.894-125.063,0.894-125.063L315.688,157.431z"></path></g></g></g></svg>