<svg xmlns="http://www.w3.org/2000/svg" width="500" height="500" version="1.1"><g id="x029"><g><linearGradient id="hair5XMLID_412_" gradientUnits="userSpaceOnUse" x1="308.75" y1="309.5" x2="308.75" y2="125.5001"><stop offset="0" style="stop-color:#FCFCE4"></stop><stop offset="0.5" style="stop-color:#A0C8DD"></stop><stop offset="1" style="stop-color:#5D6EC5"></stop></linearGradient><path style="fill:url(#hair5XMLID_412_);stroke:#1E1E1E;stroke-linecap:round;stroke-linejoin:round;" d="M315.168,202.5c4,10,8.166,33.603,7.156,45.298c-1.008,11.696-0.219,20.59,1.785,39.452c-9.521-7.367-7.527-26.367-7.527-26.367s-4.916,11.168-8.115,30.682c-10.057-11.834-4.59-33.408-3.201-43.7c-1.389,10.292-5.855,18.141-11.875,22.737c4.143-7.553,8.148-33.042,8.148-33.042S312.168,214,315.168,202.5z"></path><linearGradient id="hair5XMLID_413_" gradientUnits="userSpaceOnUse" x1="191.2505" y1="309.5" x2="191.2505" y2="125.5001"><stop offset="0" style="stop-color:#FCFCE4"></stop><stop offset="0.5" style="stop-color:#A0C8DD"></stop><stop offset="1" style="stop-color:#5D6EC5"></stop></linearGradient><path style="fill:url(#hair5XMLID_413_);stroke:#1E1E1E;stroke-linecap:round;stroke-linejoin:round;" d="M184.832,202.5c-4,10-8.165,33.603-7.156,45.298c1.009,11.696,0.219,20.59-1.785,39.452c9.521-7.367,7.528-26.367,7.528-26.367s4.916,11.168,8.115,30.682c10.056-11.834,4.589-33.408,3.201-43.7c1.388,10.292,5.855,18.141,11.875,22.737c-4.144-7.553-8.149-33.042-8.149-33.042S187.832,214,184.832,202.5z"></path></g></g></svg>