<svg xmlns="http://www.w3.org/2000/svg" width="500" height="500" version="1.1"><g id="x030"><g><g><g><linearGradient id="hair5XMLID_414_" gradientUnits="userSpaceOnUse" x1="303.5" y1="309.5" x2="303.5" y2="125.4995"><stop offset="0" style="stop-color:#FCFCE4"></stop><stop offset="0.5" style="stop-color:#A0C8DD"></stop><stop offset="1" style="stop-color:#5D6EC5"></stop></linearGradient><path style="fill:url(#hair5XMLID_414_);stroke:#1E1E1E;stroke-linecap:round;stroke-linejoin:round;" d="M314.518,213c0,0-8.833,72.167-7.666,123.834c-19.834-27.667-17.703-69.127-2.338-96.834C307.481,236.04,314.518,213,314.518,213z"></path><linearGradient id="hair5XMLID_415_" gradientUnits="userSpaceOnUse" x1="306.0186" y1="309.5" x2="306.0186" y2="125.5"><stop offset="0" style="stop-color:#FCFCE4"></stop><stop offset="0.5" style="stop-color:#A0C8DD"></stop><stop offset="1" style="stop-color:#5D6EC5"></stop></linearGradient><path style="fill:url(#hair5XMLID_415_);stroke:#1E1E1E;stroke-linecap:round;stroke-linejoin:round;" d="M307.685,290.5c-1.167,14,0.667,31.834,4.167,39c-5.137-3.35-11.442-16.381-11.666-30.227"></path></g></g><g><g><linearGradient id="hair5XMLID_416_" gradientUnits="userSpaceOnUse" x1="196.4995" y1="309.5" x2="196.4995" y2="125.4995"><stop offset="0" style="stop-color:#FCFCE4"></stop><stop offset="0.5" style="stop-color:#A0C8DD"></stop><stop offset="1" style="stop-color:#5D6EC5"></stop></linearGradient><path style="fill:url(#hair5XMLID_416_);stroke:#1E1E1E;stroke-linecap:round;stroke-linejoin:round;" d="M185.482,213c0,0,8.833,72.167,7.666,123.834c19.834-27.667,17.703-69.127,2.338-96.834C192.519,236.04,185.482,213,185.482,213z"></path><linearGradient id="hair5XMLID_417_" gradientUnits="userSpaceOnUse" x1="193.9814" y1="309.5" x2="193.9814" y2="125.5"><stop offset="0" style="stop-color:#FCFCE4"></stop><stop offset="0.5" style="stop-color:#A0C8DD"></stop><stop offset="1" style="stop-color:#5D6EC5"></stop></linearGradient><path style="fill:url(#hair5XMLID_417_);stroke:#1E1E1E;stroke-linecap:round;stroke-linejoin:round;" d="M192.315,290.5c1.167,14-0.667,31.834-4.167,39c5.137-3.35,11.442-16.381,11.666-30.227"></path></g></g></g></g></svg>