<svg xmlns="http://www.w3.org/2000/svg" width="500" height="500" version="1.1"><g id="x033"><g><g><linearGradient id="hair5XMLID_422_" gradientUnits="userSpaceOnUse" x1="302.25" y1="309.5" x2="302.25" y2="125.5002"><stop offset="0" style="stop-color:#FCFCE4"></stop><stop offset="0.5" style="stop-color:#A0C8DD"></stop><stop offset="1" style="stop-color:#5D6EC5"></stop></linearGradient><path style="fill:url(#hair5XMLID_422_);stroke:#1E1E1E;stroke-linecap:round;stroke-linejoin:round;" d="M315.838,195.25c26.5,56.5,8.957,76.438-5.389,84.209c-8.041,4.354-25.461,3.014-35.51-3.352c3.35-4.689,12.729-10.385,12.729-10.385l-11.055-2.344c0,0,8.375,0.334,21.441-7.371c13.064-7.705,12.059-33.5,12.729-36.849L315.838,195.25z"></path><linearGradient id="hair5XMLID_423_" gradientUnits="userSpaceOnUse" x1="304.0117" y1="309.5" x2="304.0117" y2="125.5001"><stop offset="0" style="stop-color:#FCFCE4"></stop><stop offset="0.5" style="stop-color:#A0C8DD"></stop><stop offset="1" style="stop-color:#5D6EC5"></stop></linearGradient><path style="fill:url(#hair5XMLID_423_);stroke:#1E1E1E;stroke-linecap:round;stroke-linejoin:round;" d="M315.291,273.428c0,0-17.084,17.42-17.754,25.795c-5.361-6.699-7.371-20.77,0-28.809"></path></g><g><linearGradient id="hair5XMLID_424_" gradientUnits="userSpaceOnUse" x1="197.7495" y1="309.5" x2="197.7495" y2="125.5002"><stop offset="0" style="stop-color:#FCFCE4"></stop><stop offset="0.5" style="stop-color:#A0C8DD"></stop><stop offset="1" style="stop-color:#5D6EC5"></stop></linearGradient><path style="fill:url(#hair5XMLID_424_);stroke:#1E1E1E;stroke-linecap:round;stroke-linejoin:round;" d="M184.162,195.25c-26.5,56.5-8.956,76.438,5.39,84.209c8.041,4.354,25.461,3.014,35.51-3.352c-3.35-4.689-12.729-10.385-12.729-10.385l11.055-2.344c0,0-8.375,0.334-21.441-7.371c-13.064-7.705-12.059-33.5-12.729-36.849L184.162,195.25z"></path><linearGradient id="hair5XMLID_425_" gradientUnits="userSpaceOnUse" x1="195.9888" y1="309.5" x2="195.9888" y2="125.5001"><stop offset="0" style="stop-color:#FCFCE4"></stop><stop offset="0.5" style="stop-color:#A0C8DD"></stop><stop offset="1" style="stop-color:#5D6EC5"></stop></linearGradient><path style="fill:url(#hair5XMLID_425_);stroke:#1E1E1E;stroke-linecap:round;stroke-linejoin:round;" d="M184.709,273.428c0,0,17.084,17.42,17.754,25.795c5.361-6.699,7.371-20.77,0-28.809"></path></g></g></g></svg>