<svg xmlns="http://www.w3.org/2000/svg" width="500" height="500" version="1.1"><g id="x034"><g><g><linearGradient id="hair5XMLID_426_" gradientUnits="userSpaceOnUse" x1="330.5898" y1="309.5" x2="330.5898" y2="125.5001"><stop offset="0" style="stop-color:#FCFCE4"></stop><stop offset="0.5" style="stop-color:#A0C8DD"></stop><stop offset="1" style="stop-color:#5D6EC5"></stop></linearGradient><path style="fill:url(#hair5XMLID_426_);stroke:#1E1E1E;stroke-linecap:round;stroke-linejoin:round;" d="M324.545,186.75c0,0,9.75,43.25,18.5,51c-11.75,0.75-15.53-7.028-15.53-7.028l1.34,10.72c0,0-9.38-2.68-10.72-18.76"></path><linearGradient id="hair5XMLID_427_" gradientUnits="userSpaceOnUse" x1="312.7441" y1="309.5" x2="312.7441" y2="125.5002"><stop offset="0" style="stop-color:#FCFCE4"></stop><stop offset="0.5" style="stop-color:#A0C8DD"></stop><stop offset="1" style="stop-color:#5D6EC5"></stop></linearGradient><path style="fill:url(#hair5XMLID_427_);stroke:#1E1E1E;stroke-linecap:round;stroke-linejoin:round;" d="M314.045,172.25c1.25,10.75-7.3,54.452-7.3,54.452s-8.04,49.58-8.04,56.951c3.35-6.031,6.7-11.391,6.7-11.391s-1.34,20.1,2.68,32.16c2.68-36.85,27.47-86.43,15.41-129.98L314.045,172.25z"></path><linearGradient id="hair5XMLID_428_" gradientUnits="userSpaceOnUse" x1="308.6699" y1="309.5" x2="308.6699" y2="125.5"><stop offset="0" style="stop-color:#FCFCE4"></stop><stop offset="0.5" style="stop-color:#A0C8DD"></stop><stop offset="1" style="stop-color:#5D6EC5"></stop></linearGradient><path style="fill:url(#hair5XMLID_428_);stroke:#1E1E1E;stroke-linecap:round;stroke-linejoin:round;" d="M307.365,224.065c-1.443,11.54-3.966,21.321-8.228,25.244c5.399-0.165,17.393-13.167,19.065-23.776"></path></g><g><linearGradient id="hair5XMLID_429_" gradientUnits="userSpaceOnUse" x1="169.4102" y1="309.5" x2="169.4101" y2="125.5001"><stop offset="0" style="stop-color:#FCFCE4"></stop><stop offset="0.5" style="stop-color:#A0C8DD"></stop><stop offset="1" style="stop-color:#5D6EC5"></stop></linearGradient><path style="fill:url(#hair5XMLID_429_);stroke:#1E1E1E;stroke-linecap:round;stroke-linejoin:round;" d="M175.455,186.75c0,0-9.75,43.25-18.5,51c11.75,0.75,15.53-7.028,15.53-7.028l-1.34,10.72c0,0,9.38-2.68,10.72-18.76"></path><linearGradient id="hair5XMLID_430_" gradientUnits="userSpaceOnUse" x1="187.2554" y1="309.5" x2="187.2554" y2="125.5002"><stop offset="0" style="stop-color:#FCFCE4"></stop><stop offset="0.5" style="stop-color:#A0C8DD"></stop><stop offset="1" style="stop-color:#5D6EC5"></stop></linearGradient><path style="fill:url(#hair5XMLID_430_);stroke:#1E1E1E;stroke-linecap:round;stroke-linejoin:round;" d="M185.955,172.25c-1.25,10.75,7.3,54.452,7.3,54.452s8.04,49.58,8.04,56.951c-3.35-6.031-6.7-11.391-6.7-11.391s1.34,20.1-2.68,32.16c-2.68-36.85-27.47-86.43-15.41-129.98L185.955,172.25z"></path><linearGradient id="hair5XMLID_431_" gradientUnits="userSpaceOnUse" x1="191.3296" y1="309.5" x2="191.3296" y2="125.5"><stop offset="0" style="stop-color:#FCFCE4"></stop><stop offset="0.5" style="stop-color:#A0C8DD"></stop><stop offset="1" style="stop-color:#5D6EC5"></stop></linearGradient><path style="fill:url(#hair5XMLID_431_);stroke:#1E1E1E;stroke-linecap:round;stroke-linejoin:round;" d="M192.635,224.065c1.443,11.54,3.966,21.321,8.228,25.244c-5.399-0.165-17.393-13.167-19.065-23.776"></path></g></g></g></svg>