<svg xmlns="http://www.w3.org/2000/svg" width="500" height="500" version="1.1"><g id="x035"><g><linearGradient id="hair5XMLID_432_" gradientUnits="userSpaceOnUse" x1="312.0469" y1="309.5" x2="312.0469" y2="125.5006"><stop offset="0" style="stop-color:#FCFCE4"></stop><stop offset="0.5" style="stop-color:#A0C8DD"></stop><stop offset="1" style="stop-color:#5D6EC5"></stop></linearGradient><path style="fill:url(#hair5XMLID_432_);stroke:#1E1E1E;stroke-linecap:round;stroke-linejoin:round;" d="M321.354,220.689c12.506,66.445-7.146,95.727-7.146,95.727s0.894-7.32,0.894-16.33c-0.894,9.572-4.913,16.893-16.527,23.65c10.273-27.029,7.594-115.998,7.594-118.813L321.354,220.689z"></path><linearGradient id="hair5XMLID_433_" gradientUnits="userSpaceOnUse" x1="187.4263" y1="309.5" x2="187.4263" y2="125.5006"><stop offset="0" style="stop-color:#FCFCE4"></stop><stop offset="0.5" style="stop-color:#A0C8DD"></stop><stop offset="1" style="stop-color:#5D6EC5"></stop></linearGradient><path style="fill:url(#hair5XMLID_433_);stroke:#1E1E1E;stroke-linecap:round;stroke-linejoin:round;" d="M193.305,204.924c0,2.814-2.68,91.783,7.594,118.813c-11.614-6.758-15.634-14.078-16.527-23.65c0,9.01,0.894,16.33,0.894,16.33s-19.652-29.281-7.146-95.727L193.305,204.924z"></path></g></g></svg>