<svg xmlns="http://www.w3.org/2000/svg" width="500" height="500" version="1.1"><g id="x036"><g><g><linearGradient id="hair5XMLID_434_" gradientUnits="userSpaceOnUse" x1="317" y1="309.5" x2="317" y2="125.4997"><stop offset="0" style="stop-color:#FCFCE4"></stop><stop offset="0.5" style="stop-color:#A0C8DD"></stop><stop offset="1" style="stop-color:#5D6EC5"></stop></linearGradient><path style="fill:url(#hair5XMLID_434_);stroke:#1E1E1E;stroke-linecap:round;stroke-linejoin:round;" d="M330.169,177.676c0,0,16.974,31.268-1.341,67c-5.806,27.248-21.886,43.326-32.159,48.24c20.993-39.307,18.76-100.5,11.166-128.64L330.169,177.676z"></path><path style="fill:none;stroke:#1E1E1E;stroke-linecap:round;stroke-linejoin:round;" d="M330.671,210.175c0,0,0.894,26.354-2.681,37.521"></path></g><g><linearGradient id="hair5XMLID_435_" gradientUnits="userSpaceOnUse" x1="183.0005" y1="309.5" x2="183.0005" y2="125.4997"><stop offset="0" style="stop-color:#FCFCE4"></stop><stop offset="0.5" style="stop-color:#A0C8DD"></stop><stop offset="1" style="stop-color:#5D6EC5"></stop></linearGradient><path style="fill:url(#hair5XMLID_435_);stroke:#1E1E1E;stroke-linecap:round;stroke-linejoin:round;" d="M169.831,177.676c0,0-16.974,31.268,1.341,67c5.806,27.248,21.886,43.326,32.159,48.24c-20.993-39.307-18.76-100.5-11.166-128.64L169.831,177.676z"></path><path style="fill:none;stroke:#1E1E1E;stroke-linecap:round;stroke-linejoin:round;" d="M169.329,210.175c0,0-0.894,26.354,2.681,37.521"></path></g></g></g></svg>