<svg xmlns="http://www.w3.org/2000/svg" width="500" height="500" version="1.1"><g id="x037"><g><g><linearGradient id="hair5XMLID_436_" gradientUnits="userSpaceOnUse" x1="310.667" y1="309.5" x2="310.667" y2="125.5006"><stop offset="0" style="stop-color:#FCFCE4"></stop><stop offset="0.5" style="stop-color:#A0C8DD"></stop><stop offset="1" style="stop-color:#5D6EC5"></stop></linearGradient><path style="fill:url(#hair5XMLID_436_);stroke:#1E1E1E;stroke-linecap:round;stroke-linejoin:round;" d="M311.662,240.617l-6.072,11.165c0,0-8.041,28.588-16.527,46.453c18.76-8.486,32.16-30.818,37.967-43.772c5.807-12.953,6.998-44.13,2.523-64.128c-5.666-25.333-22.666-38-22.666-38L311.662,240.617z"></path><linearGradient id="hair5XMLID_437_" gradientUnits="userSpaceOnUse" x1="308.9395" y1="309.5" x2="308.9395" y2="125.4999"><stop offset="0" style="stop-color:#FCFCE4"></stop><stop offset="0.5" style="stop-color:#A0C8DD"></stop><stop offset="1" style="stop-color:#5D6EC5"></stop></linearGradient><path style="fill:url(#hair5XMLID_437_);stroke:#1E1E1E;stroke-linecap:round;stroke-linejoin:round;" d="M312.289,216.497c0,0-6.699,30.82-18.76,43.326c9.826,1.786,26.799-8.932,30.82-23.672"></path></g><g><linearGradient id="hair5XMLID_438_" gradientUnits="userSpaceOnUse" x1="189.3325" y1="309.5" x2="189.3325" y2="125.5006"><stop offset="0" style="stop-color:#FCFCE4"></stop><stop offset="0.5" style="stop-color:#A0C8DD"></stop><stop offset="1" style="stop-color:#5D6EC5"></stop></linearGradient><path style="fill:url(#hair5XMLID_438_);stroke:#1E1E1E;stroke-linecap:round;stroke-linejoin:round;" d="M188.337,240.617l6.073,11.165c0,0,8.04,28.588,16.526,46.453c-18.76-8.486-32.16-30.818-37.966-43.772c-5.807-12.953-6.998-44.13-2.524-64.128c5.667-25.333,22.667-38,22.667-38L188.337,240.617z"></path><linearGradient id="hair5XMLID_439_" gradientUnits="userSpaceOnUse" x1="191.061" y1="309.5" x2="191.061" y2="125.4999"><stop offset="0" style="stop-color:#FCFCE4"></stop><stop offset="0.5" style="stop-color:#A0C8DD"></stop><stop offset="1" style="stop-color:#5D6EC5"></stop></linearGradient><path style="fill:url(#hair5XMLID_439_);stroke:#1E1E1E;stroke-linecap:round;stroke-linejoin:round;" d="M187.711,216.497c0,0,6.699,30.82,18.76,43.326c-9.827,1.786-26.8-8.932-30.82-23.672"></path></g></g></g></svg>