<svg xmlns="http://www.w3.org/2000/svg" width="500" height="500" version="1.1"><g id="x038"><g><g><linearGradient id="hair5XMLID_440_" gradientUnits="userSpaceOnUse" x1="320.6631" y1="309.5" x2="320.6631" y2="125.5001"><stop offset="0" style="stop-color:#FCFCE4"></stop><stop offset="0.5" style="stop-color:#A0C8DD"></stop><stop offset="1" style="stop-color:#5D6EC5"></stop></linearGradient><path style="fill:url(#hair5XMLID_440_);stroke:#1E1E1E;stroke-linecap:round;stroke-linejoin:round;" d="M329.623,186.667c5.449,7.393,6.764,25.404,6.764,25.404c14.74,33.945,3.127,46.453-7.594,52.706c4.467-4.913,4.467-10.273,6.254-23.227c-4.914,22.78-28.141,25.46-37.074,19.653c13.848-4.467,14.295-21.439,14.295-21.439l1.34-20.547c0,0,1.35-38.217,1.35-45.55C321.291,177.333,324.957,180.333,329.623,186.667z"></path><g><linearGradient id="hair5XMLID_441_" gradientUnits="userSpaceOnUse" x1="314.4365" y1="309.5" x2="314.4365" y2="125.5"><stop offset="0" style="stop-color:#FCFCE4"></stop><stop offset="0.5" style="stop-color:#A0C8DD"></stop><stop offset="1" style="stop-color:#5D6EC5"></stop></linearGradient><path style="fill:url(#hair5XMLID_441_);stroke:#1E1E1E;stroke-linecap:round;stroke-linejoin:round;" d="M314.957,206.667c0.096,0.26,1.334,29-16.666,38c17,3.333,36.756-5.35,31.396-39.743"></path><linearGradient id="hair5XMLID_442_" gradientUnits="userSpaceOnUse" x1="339.0674" y1="309.5" x2="339.0674" y2="125.5001"><stop offset="0" style="stop-color:#FCFCE4"></stop><stop offset="0.5" style="stop-color:#A0C8DD"></stop><stop offset="1" style="stop-color:#5D6EC5"></stop></linearGradient><path style="fill:url(#hair5XMLID_442_);stroke:#1E1E1E;stroke-linecap:round;stroke-linejoin:round;" d="M324.773,204.243c0,0,7.594,20.1,28.588,8.933c-7.301-2.918-15.193-5.838-19.545-16.792"></path></g></g><g><linearGradient id="hair5XMLID_443_" gradientUnits="userSpaceOnUse" x1="179.3374" y1="309.5" x2="179.3374" y2="125.5001"><stop offset="0" style="stop-color:#FCFCE4"></stop><stop offset="0.5" style="stop-color:#A0C8DD"></stop><stop offset="1" style="stop-color:#5D6EC5"></stop></linearGradient><path style="fill:url(#hair5XMLID_443_);stroke:#1E1E1E;stroke-linecap:round;stroke-linejoin:round;" d="M170.376,186.667c-5.448,7.393-6.763,25.404-6.763,25.404c-14.74,33.945-3.127,46.453,7.594,52.706c-4.467-4.913-4.467-10.273-6.254-23.227c4.914,22.78,28.141,25.46,37.074,19.653c-13.848-4.467-14.295-21.439-14.295-21.439l-1.34-20.547c0,0-1.35-38.217-1.35-45.55C178.709,177.333,175.043,180.333,170.376,186.667z"></path><g><linearGradient id="hair5XMLID_444_" gradientUnits="userSpaceOnUse" x1="185.564" y1="309.5" x2="185.5639" y2="125.5"><stop offset="0" style="stop-color:#FCFCE4"></stop><stop offset="0.5" style="stop-color:#A0C8DD"></stop><stop offset="1" style="stop-color:#5D6EC5"></stop></linearGradient><path style="fill:url(#hair5XMLID_444_);stroke:#1E1E1E;stroke-linecap:round;stroke-linejoin:round;" d="M185.043,206.667c-0.096,0.26-1.334,29,16.666,38c-17,3.333-36.756-5.35-31.396-39.743"></path><linearGradient id="hair5XMLID_445_" gradientUnits="userSpaceOnUse" x1="160.9331" y1="309.5" x2="160.9331" y2="125.5001"><stop offset="0" style="stop-color:#FCFCE4"></stop><stop offset="0.5" style="stop-color:#A0C8DD"></stop><stop offset="1" style="stop-color:#5D6EC5"></stop></linearGradient><path style="fill:url(#hair5XMLID_445_);stroke:#1E1E1E;stroke-linecap:round;stroke-linejoin:round;" d="M175.227,204.243c0,0-7.594,20.1-28.588,8.933c7.3-2.918,15.193-5.838,19.544-16.792"></path></g></g></g></g></svg>