<svg xmlns="http://www.w3.org/2000/svg" width="500" height="500" version="1.1"><g id="x039"><g><linearGradient id="hair5XMLID_446_" gradientUnits="userSpaceOnUse" x1="184.228" y1="309.5" x2="184.228" y2="125.5"><stop offset="0" style="stop-color:#FCFCE4"></stop><stop offset="0.5" style="stop-color:#A0C8DD"></stop><stop offset="1" style="stop-color:#5D6EC5"></stop></linearGradient><path style="fill:url(#hair5XMLID_446_);stroke:#1E1E1E;stroke-linecap:round;stroke-linejoin:round;" d="M192.417,134.33c0,0-26.354,20.994-30.373,63.874c-7.233,77.152,40.646,129.533,44.667,129.086c-2.234-3.127-5.808-10.273-4.468-9.826s-3.572-2.68,4.913,1.787c-7.594-8.041-21.439-57.059-21.439-99.607c0-42.879,18.76-66.106,18.76-66.106L192.417,134.33z"></path><linearGradient id="hair5XMLID_447_" gradientUnits="userSpaceOnUse" x1="315.7715" y1="309.5" x2="315.7715" y2="125.5"><stop offset="0" style="stop-color:#FCFCE4"></stop><stop offset="0.5" style="stop-color:#A0C8DD"></stop><stop offset="1" style="stop-color:#5D6EC5"></stop></linearGradient><path style="fill:url(#hair5XMLID_447_);stroke:#1E1E1E;stroke-linecap:round;stroke-linejoin:round;" d="M307.582,134.33c0,0,26.354,20.994,30.375,63.874c7.232,77.152-40.646,129.533-44.668,129.086c2.234-3.127,5.809-10.273,4.467-9.826c-1.34,0.447,3.574-2.68-4.912,1.787c7.594-8.041,20.182-57.077,21.439-99.607c1.412-47.793-19.133-66.106-19.133-66.106L307.582,134.33z"></path></g></g></svg>