<svg xmlns="http://www.w3.org/2000/svg" width="500" height="500" version="1.1"><g id="x040"><g><g><linearGradient id="hair5XMLID_448_" gradientUnits="userSpaceOnUse" x1="332.9121" y1="309.5" x2="332.9121" y2="125.4998"><stop offset="0" style="stop-color:#FCFCE4"></stop><stop offset="0.5" style="stop-color:#A0C8DD"></stop><stop offset="1" style="stop-color:#5D6EC5"></stop></linearGradient><path style="fill:url(#hair5XMLID_448_);stroke:#1E1E1E;stroke-linecap:round;stroke-linejoin:round;" d="M328.055,185.279c0,0,11.055,31.49,13.734,48.575c-1.34,12.396-17.754,24.79-17.754,24.79l3.016-38.525"></path><g><linearGradient id="hair5XMLID_449_" gradientUnits="userSpaceOnUse" x1="307.6719" y1="309.5" x2="307.6719" y2="125.5"><stop offset="0" style="stop-color:#FCFCE4"></stop><stop offset="0.5" style="stop-color:#A0C8DD"></stop><stop offset="1" style="stop-color:#5D6EC5"></stop></linearGradient><path style="fill:url(#hair5XMLID_449_);stroke:#1E1E1E;stroke-linecap:round;stroke-linejoin:round;" d="M308.291,290.135c0,0,7.971,7.01,7.703,14.74c-0.334,9.715-7.033,19.094-7.033,19.094s-11.391-8.709-9.381-20.1S308.291,290.135,308.291,290.135z"></path><g><linearGradient id="hair5XMLID_450_" gradientUnits="userSpaceOnUse" x1="312.8809" y1="309.5" x2="312.8809" y2="125.5003"><stop offset="0" style="stop-color:#FCFCE4"></stop><stop offset="0.5" style="stop-color:#A0C8DD"></stop><stop offset="1" style="stop-color:#5D6EC5"></stop></linearGradient><path style="fill:url(#hair5XMLID_450_);stroke:#1E1E1E;stroke-linecap:round;stroke-linejoin:round;" d="M322.359,165.515c12.396,26.13,12.73,94.136,9.381,114.235c-9.715,20.434-23.115,15.744-23.115,15.744l-7.369-1.674c0,0-8.711-9.381-9.045-22.445c0-2.346,10.021-7.246,13.398-16.08c8.711-22.78,8.711-42.881,8.711-42.881s3.846-34.748-3.488-51.414C320.832,161.667,322.359,165.515,322.359,165.515z"></path><path style="fill:none;stroke:#1E1E1E;stroke-linecap:round;stroke-linejoin:round;" d="M309.965,295.83c0,0,11.391,0.334,15.076-39.53"></path></g></g></g><g><linearGradient id="hair5XMLID_451_" gradientUnits="userSpaceOnUse" x1="167.0879" y1="309.5" x2="167.0879" y2="125.4998"><stop offset="0" style="stop-color:#FCFCE4"></stop><stop offset="0.5" style="stop-color:#A0C8DD"></stop><stop offset="1" style="stop-color:#5D6EC5"></stop></linearGradient><path style="fill:url(#hair5XMLID_451_);stroke:#1E1E1E;stroke-linecap:round;stroke-linejoin:round;" d="M171.945,185.279c0,0-11.055,31.49-13.734,48.575c1.34,12.396,17.755,24.79,17.755,24.79l-3.016-38.525"></path><g><linearGradient id="hair5XMLID_452_" gradientUnits="userSpaceOnUse" x1="192.3281" y1="309.5" x2="192.3281" y2="125.5"><stop offset="0" style="stop-color:#FCFCE4"></stop><stop offset="0.5" style="stop-color:#A0C8DD"></stop><stop offset="1" style="stop-color:#5D6EC5"></stop></linearGradient><path style="fill:url(#hair5XMLID_452_);stroke:#1E1E1E;stroke-linecap:round;stroke-linejoin:round;" d="M191.709,290.135c0,0-7.971,7.01-7.704,14.74c0.335,9.715,7.034,19.094,7.034,19.094s11.391-8.709,9.38-20.1C198.41,292.479,191.709,290.135,191.709,290.135z"></path><g><linearGradient id="hair5XMLID_453_" gradientUnits="userSpaceOnUse" x1="187.1187" y1="309.5" x2="187.1186" y2="125.5003"><stop offset="0" style="stop-color:#FCFCE4"></stop><stop offset="0.5" style="stop-color:#A0C8DD"></stop><stop offset="1" style="stop-color:#5D6EC5"></stop></linearGradient><path style="fill:url(#hair5XMLID_453_);stroke:#1E1E1E;stroke-linecap:round;stroke-linejoin:round;" d="M177.64,165.515c-12.396,26.13-12.73,94.136-9.38,114.235c9.715,20.434,23.114,15.744,23.114,15.744l7.37-1.674c0,0,8.71-9.381,9.045-22.445c0-2.346-10.022-7.246-13.399-16.08c-8.71-22.78-8.71-42.881-8.71-42.881s-3.846-34.748,3.487-51.414C179.167,161.667,177.64,165.515,177.64,165.515z"></path><path style="fill:none;stroke:#1E1E1E;stroke-linecap:round;stroke-linejoin:round;" d="M190.035,295.83c0,0-11.39,0.334-15.075-39.53"></path></g></g></g></g></g></svg>