<svg xmlns="http://www.w3.org/2000/svg" width="500" height="500" version="1.1"><g id="x041"><g><linearGradient id="hair5XMLID_454_" gradientUnits="userSpaceOnUse" x1="301.0869" y1="309.5" x2="301.0869" y2="125.5001"><stop offset="0" style="stop-color:#FCFCE4"></stop><stop offset="0.5" style="stop-color:#A0C8DD"></stop><stop offset="1" style="stop-color:#5D6EC5"></stop></linearGradient><path style="fill:url(#hair5XMLID_454_);stroke:#1E1E1E;stroke-linecap:round;stroke-linejoin:round;" d="M312.741,221.115c0,0,6.364,39.529,2.68,71.02s-16.415,31.49-28.475,28.475c5.694-1.676,9.715-7.035,9.715-7.035s-5.695,2.68-11.056-1.674c19.766-1.006,22.11-91.791,22.11-91.791L312.741,221.115z"></path><linearGradient id="hair5XMLID_455_" gradientUnits="userSpaceOnUse" x1="198.9126" y1="309.5" x2="198.9126" y2="125.5001"><stop offset="0" style="stop-color:#FCFCE4"></stop><stop offset="0.5" style="stop-color:#A0C8DD"></stop><stop offset="1" style="stop-color:#5D6EC5"></stop></linearGradient><path style="fill:url(#hair5XMLID_455_);stroke:#1E1E1E;stroke-linecap:round;stroke-linejoin:round;" d="M187.259,221.115c0,0-6.364,39.529-2.68,71.02s16.415,31.49,28.475,28.475c-5.694-1.676-9.715-7.035-9.715-7.035s5.695,2.68,11.056-1.674c-19.766-1.006-22.11-91.791-22.11-91.791L187.259,221.115z"></path></g></g></svg>