<svg xmlns="http://www.w3.org/2000/svg" width="500" height="500" version="1.1"><g id="x042"><g><linearGradient id="hair5XMLID_456_" gradientUnits="userSpaceOnUse" x1="320.0996" y1="309.5" x2="320.0996" y2="125.5"><stop offset="0" style="stop-color:#FCFCE4"></stop><stop offset="0.5" style="stop-color:#A0C8DD"></stop><stop offset="1" style="stop-color:#5D6EC5"></stop></linearGradient><path style="fill:url(#hair5XMLID_456_);stroke:#1E1E1E;stroke-linecap:round;stroke-linejoin:round;" d="M311.891,245.57c0,0-8.375,15.409-10.721,29.479c7.705-7.035,19.096-10.385,19.096-10.385s30.488-9.715,13.738-57.284"></path><linearGradient id="hair5XMLID_457_" gradientUnits="userSpaceOnUse" x1="314.877" y1="309.5" x2="314.877" y2="125.5"><stop offset="0" style="stop-color:#FCFCE4"></stop><stop offset="0.5" style="stop-color:#A0C8DD"></stop><stop offset="1" style="stop-color:#5D6EC5"></stop></linearGradient><path style="fill:url(#hair5XMLID_457_);stroke:#1E1E1E;stroke-linecap:round;stroke-linejoin:round;" d="M326.629,183.26c3.016,5.359,5.361,12.395,5.361,12.395c13.4,50.92-18.426,58.625-18.426,58.625s-6.029,9.715-19.094,8.375c30.818-38.524,7.703-97.149,7.033-99.16L326.629,183.26z"></path><path style="fill:none;stroke:#1E1E1E;stroke-linecap:round;stroke-linejoin:round;" d="M318.318,242.22c0,1.34-2.346,8.71-6.029,13.735"></path><linearGradient id="hair5XMLID_458_" gradientUnits="userSpaceOnUse" x1="179.9004" y1="309.5" x2="179.9004" y2="125.5"><stop offset="0" style="stop-color:#FCFCE4"></stop><stop offset="0.5" style="stop-color:#A0C8DD"></stop><stop offset="1" style="stop-color:#5D6EC5"></stop></linearGradient><path style="fill:url(#hair5XMLID_458_);stroke:#1E1E1E;stroke-linecap:round;stroke-linejoin:round;" d="M188.11,245.57c0,0,8.375,15.409,10.721,29.479c-7.705-7.035-19.096-10.385-19.096-10.385s-30.489-9.715-13.739-57.284"></path><linearGradient id="hair5XMLID_459_" gradientUnits="userSpaceOnUse" x1="185.1235" y1="309.5" x2="185.1235" y2="125.5"><stop offset="0" style="stop-color:#FCFCE4"></stop><stop offset="0.5" style="stop-color:#A0C8DD"></stop><stop offset="1" style="stop-color:#5D6EC5"></stop></linearGradient><path style="fill:url(#hair5XMLID_459_);stroke:#1E1E1E;stroke-linecap:round;stroke-linejoin:round;" d="M198.496,163.495c-0.67,2.01-23.785,60.635,7.034,99.16c-13.064,1.34-19.095-8.375-19.095-8.375s-31.825-7.705-18.425-58.625c0,0,2.345-7.035,5.36-12.395L198.496,163.495z"></path><path style="fill:none;stroke:#1E1E1E;stroke-linecap:round;stroke-linejoin:round;" d="M181.58,242.22c0,1.34,2.345,8.71,6.029,13.735"></path></g></g></svg>