<svg xmlns="http://www.w3.org/2000/svg" width="500" height="500" version="1.1"><g id="x043"><g><linearGradient id="hair5XMLID_460_" gradientUnits="userSpaceOnUse" x1="304.1025" y1="309.5" x2="304.1025" y2="125.4996"><stop offset="0" style="stop-color:#FCFCE4"></stop><stop offset="0.5" style="stop-color:#A0C8DD"></stop><stop offset="1" style="stop-color:#5D6EC5"></stop></linearGradient><path style="fill:url(#hair5XMLID_460_);stroke:#1E1E1E;stroke-linecap:round;stroke-linejoin:round;" d="M298.045,152.104c0,0,10.05,55.275,6.7,83.08c-3.351,27.806-10.721,60.636-18.09,74.37c10.385-9.381,16.079-30.82,15.409-28.141s-8.04,23.115,0.67,45.225c2.346-21.773,4.69-32.83,8.375-45.559c3.686-12.73,17.085-77.051,6.365-110.885L298.045,152.104z"></path><linearGradient id="hair5XMLID_461_" gradientUnits="userSpaceOnUse" x1="195.8979" y1="309.5" x2="195.8979" y2="125.4996"><stop offset="0" style="stop-color:#FCFCE4"></stop><stop offset="0.5" style="stop-color:#A0C8DD"></stop><stop offset="1" style="stop-color:#5D6EC5"></stop></linearGradient><path style="fill:url(#hair5XMLID_461_);stroke:#1E1E1E;stroke-linecap:round;stroke-linejoin:round;" d="M201.955,152.104c0,0-10.05,55.275-6.699,83.08c3.35,27.806,10.72,60.636,18.09,74.37c-10.386-9.381-16.08-30.82-15.41-28.141s8.04,23.115-0.67,45.225c-2.345-21.773-4.69-32.83-8.375-45.559c-3.686-12.73-17.085-77.051-6.365-110.885L201.955,152.104z"></path></g></g></svg>