<svg xmlns="http://www.w3.org/2000/svg" width="500" height="500" version="1.1"><g id="x044"><g><g><linearGradient id="hair5XMLID_462_" gradientUnits="userSpaceOnUse" x1="194.7251" y1="309.5" x2="194.7251" y2="125.5007"><stop offset="0" style="stop-color:#FCFCE4"></stop><stop offset="0.5" style="stop-color:#A0C8DD"></stop><stop offset="1" style="stop-color:#5D6EC5"></stop></linearGradient><path style="fill:url(#hair5XMLID_462_);stroke:#1E1E1E;stroke-linecap:round;stroke-linejoin:round;" d="M192.871,142.39c-15.074,21.775-8.71,66.665-11.725,91.79c-4.355,30.82,2.68,50.584,12.395,55.945c-5.024-7.705-7.584-26.15-5.359-49.245c4.354-45.226,21.439-80.065,21.439-81.07L192.871,142.39z"></path><linearGradient id="hair5XMLID_463_" gradientUnits="userSpaceOnUse" x1="197.7285" y1="309.5" x2="197.7285" y2="125.4999"><stop offset="0" style="stop-color:#FCFCE4"></stop><stop offset="0.5" style="stop-color:#A0C8DD"></stop><stop offset="1" style="stop-color:#5D6EC5"></stop></linearGradient><path style="fill:url(#hair5XMLID_463_);stroke:#1E1E1E;stroke-linecap:round;stroke-linejoin:round;" d="M186.842,270.695c0,0,2.68,18.76,22.779,16.75c-4.354,11.055-16.415,15.744-23.785-6.701"></path></g><g><linearGradient id="hair5XMLID_464_" gradientUnits="userSpaceOnUse" x1="305.2754" y1="309.5" x2="305.2754" y2="125.5007"><stop offset="0" style="stop-color:#FCFCE4"></stop><stop offset="0.5" style="stop-color:#A0C8DD"></stop><stop offset="1" style="stop-color:#5D6EC5"></stop></linearGradient><path style="fill:url(#hair5XMLID_464_);stroke:#1E1E1E;stroke-linecap:round;stroke-linejoin:round;" d="M307.129,142.39c15.075,21.775,8.71,66.665,11.725,91.79c4.355,30.82-2.68,50.584-12.395,55.945c5.024-7.705,7.584-26.15,5.359-49.245c-4.354-45.226-21.439-80.065-21.439-81.07L307.129,142.39z"></path><linearGradient id="hair5XMLID_465_" gradientUnits="userSpaceOnUse" x1="302.2715" y1="309.5" x2="302.2715" y2="125.4999"><stop offset="0" style="stop-color:#FCFCE4"></stop><stop offset="0.5" style="stop-color:#A0C8DD"></stop><stop offset="1" style="stop-color:#5D6EC5"></stop></linearGradient><path style="fill:url(#hair5XMLID_465_);stroke:#1E1E1E;stroke-linecap:round;stroke-linejoin:round;" d="M313.158,270.695c0,0-2.68,18.76-22.779,16.75c4.354,11.055,16.415,15.744,23.785-6.701"></path></g></g></g></svg>