<svg xmlns="http://www.w3.org/2000/svg" width="500" height="500" version="1.1"><g id="x045"><g><g><linearGradient id="hair5XMLID_466_" gradientUnits="userSpaceOnUse" x1="310.7285" y1="309.5" x2="310.7285" y2="125.5003"><stop offset="0" style="stop-color:#FCFCE4"></stop><stop offset="0.5" style="stop-color:#A0C8DD"></stop><stop offset="1" style="stop-color:#5D6EC5"></stop></linearGradient><path style="fill:url(#hair5XMLID_466_);stroke:#1E1E1E;stroke-linecap:round;stroke-linejoin:round;" d="M311.811,224.333c-0.446,1.341-19.365,44.912-6.412,64.564c-0.446-16.527,0-21.887,0-21.887s-1.786,21.439,15.188,31.266c-4.467-10.273-6.254-30.819-4.467-43.326"></path><linearGradient id="hair5XMLID_467_" gradientUnits="userSpaceOnUse" x1="317.8037" y1="309.5" x2="317.8037" y2="125.4996"><stop offset="0" style="stop-color:#FCFCE4"></stop><stop offset="0.5" style="stop-color:#A0C8DD"></stop><stop offset="1" style="stop-color:#5D6EC5"></stop></linearGradient><path style="fill:url(#hair5XMLID_467_);stroke:#1E1E1E;stroke-linecap:round;stroke-linejoin:round;" d="M311.652,215.197c-4.466,27.246,0,41.539,4.913,64.318c-1.34-4.912-0.446-18.76,6.7-56.279s-3.127-67.893-3.127-67.893s-6.995,4.99-8.328,8.323S311.652,215.197,311.652,215.197z"></path></g><g><linearGradient id="hair5XMLID_468_" gradientUnits="userSpaceOnUse" x1="189.271" y1="309.5" x2="189.271" y2="125.5003"><stop offset="0" style="stop-color:#FCFCE4"></stop><stop offset="0.5" style="stop-color:#A0C8DD"></stop><stop offset="1" style="stop-color:#5D6EC5"></stop></linearGradient><path style="fill:url(#hair5XMLID_468_);stroke:#1E1E1E;stroke-linecap:round;stroke-linejoin:round;" d="M188.189,224.333c0.446,1.341,19.365,44.912,6.412,64.564c0.446-16.527,0-21.887,0-21.887s1.786,21.439-15.188,31.266c4.467-10.273,6.254-30.819,4.467-43.326"></path><linearGradient id="hair5XMLID_469_" gradientUnits="userSpaceOnUse" x1="182.1963" y1="309.5" x2="182.1963" y2="125.4996"><stop offset="0" style="stop-color:#FCFCE4"></stop><stop offset="0.5" style="stop-color:#A0C8DD"></stop><stop offset="1" style="stop-color:#5D6EC5"></stop></linearGradient><path style="fill:url(#hair5XMLID_469_);stroke:#1E1E1E;stroke-linecap:round;stroke-linejoin:round;" d="M188.348,215.197c4.466,27.246,0,41.539-4.913,64.318c1.34-4.912,0.446-18.76-6.7-56.279s3.127-67.893,3.127-67.893s6.995,4.99,8.328,8.323S188.348,215.197,188.348,215.197z"></path></g></g></g></svg>