<svg xmlns="http://www.w3.org/2000/svg" width="500" height="500" version="1.1"><g id="x046"><g><g><linearGradient id="hair5XMLID_470_" gradientUnits="userSpaceOnUse" x1="308.251" y1="309.5" x2="308.251" y2="125.5007"><stop offset="0" style="stop-color:#FCFCE4"></stop><stop offset="0.5" style="stop-color:#A0C8DD"></stop><stop offset="1" style="stop-color:#5D6EC5"></stop></linearGradient><path style="fill:url(#hair5XMLID_470_);stroke:#1E1E1E;stroke-linecap:round;stroke-linejoin:round;" d="M321.468,219.662l-20.993-29.033c0.893,1.787,11.613,78.613-7.146,169.287l22.779-22.334C321.914,297.828,325.472,241.683,321.468,219.662z"></path><path style="fill:none;stroke:#1E1E1E;stroke-linecap:round;stroke-linejoin:round;" d="M306.951,345.621c0.446-1.34,14.293-49.133,15.187-81.292"></path></g><g><linearGradient id="hair5XMLID_471_" gradientUnits="userSpaceOnUse" x1="191.3037" y1="309.5" x2="191.3037" y2="125.5007"><stop offset="0" style="stop-color:#FCFCE4"></stop><stop offset="0.5" style="stop-color:#A0C8DD"></stop><stop offset="1" style="stop-color:#5D6EC5"></stop></linearGradient><path style="fill:url(#hair5XMLID_471_);stroke:#1E1E1E;stroke-linecap:round;stroke-linejoin:round;" d="M178.087,219.662l20.993-29.033c-0.894,1.787-11.613,78.613,7.146,169.287l-22.779-22.334C177.64,297.828,174.083,241.683,178.087,219.662z"></path><path style="fill:none;stroke:#1E1E1E;stroke-linecap:round;stroke-linejoin:round;" d="M192.604,345.621c-0.446-1.34-14.293-49.133-15.187-81.292"></path></g></g></g></svg>