<svg xmlns="http://www.w3.org/2000/svg" width="500" height="500" version="1.1"><g id="x047"><g><g><linearGradient id="hair5XMLID_472_" gradientUnits="userSpaceOnUse" x1="189.3335" y1="309.5" x2="189.3335" y2="125.5007"><stop offset="0" style="stop-color:#FCFCE4"></stop><stop offset="0.5" style="stop-color:#A0C8DD"></stop><stop offset="1" style="stop-color:#5D6EC5"></stop></linearGradient><path style="fill:url(#hair5XMLID_472_);stroke:#1E1E1E;stroke-linecap:round;stroke-linejoin:round;" d="M198.054,212.963l-12.787,4.783c-4.953,20.617-4.65,143.063-4.65,143.063s5.314-6.238,10.297-14.139c-0.163-2.557-0.307-7.904-0.425-14.543c1.843-2.748,3.809-5.672,5.738-8.539C195.23,312.982,198.054,214.002,198.054,212.963z"></path><linearGradient id="hair5XMLID_473_" gradientUnits="userSpaceOnUse" x1="190.5811" y1="309.5" x2="190.581" y2="125.5"><stop offset="0" style="stop-color:#FCFCE4"></stop><stop offset="0.5" style="stop-color:#A0C8DD"></stop><stop offset="1" style="stop-color:#5D6EC5"></stop></linearGradient><line style="fill:url(#hair5XMLID_473_);stroke:#1E1E1E;stroke-linecap:round;stroke-linejoin:round;" x1="190.581" y1="298.428" x2="190.581" y2="333.777"></line></g><g><linearGradient id="hair5XMLID_474_" gradientUnits="userSpaceOnUse" x1="310.667" y1="309.5" x2="310.667" y2="125.5007"><stop offset="0" style="stop-color:#FCFCE4"></stop><stop offset="0.5" style="stop-color:#A0C8DD"></stop><stop offset="1" style="stop-color:#5D6EC5"></stop></linearGradient><path style="fill:url(#hair5XMLID_474_);stroke:#1E1E1E;stroke-linecap:round;stroke-linejoin:round;" d="M301.946,212.963l12.787,4.783c4.953,20.617,4.65,143.063,4.65,143.063s-5.314-6.238-10.297-14.139c0.164-2.557,0.307-7.904,0.426-14.543c-1.844-2.748-3.809-5.672-5.738-8.539C304.771,312.982,301.946,214.002,301.946,212.963z"></path><linearGradient id="hair5XMLID_475_" gradientUnits="userSpaceOnUse" x1="309.4189" y1="309.5" x2="309.4189" y2="125.5"><stop offset="0" style="stop-color:#FCFCE4"></stop><stop offset="0.5" style="stop-color:#A0C8DD"></stop><stop offset="1" style="stop-color:#5D6EC5"></stop></linearGradient><line style="fill:url(#hair5XMLID_475_);stroke:#1E1E1E;stroke-linecap:round;stroke-linejoin:round;" x1="309.419" y1="298.428" x2="309.419" y2="333.777"></line></g></g></g></svg>