<svg xmlns="http://www.w3.org/2000/svg" width="500" height="500" version="1.1"><g id="x048"><g><linearGradient id="hair5XMLID_476_" gradientUnits="userSpaceOnUse" x1="188.0771" y1="309.5" x2="188.0771" y2="125.5003"><stop offset="0" style="stop-color:#FCFCE4"></stop><stop offset="0.5" style="stop-color:#A0C8DD"></stop><stop offset="1" style="stop-color:#5D6EC5"></stop></linearGradient><path style="fill:url(#hair5XMLID_476_);stroke:#1E1E1E;stroke-linecap:round;stroke-linejoin:round;" d="M169.601,187.057c0,0-4.467,22.779-3.574,46.006c0.894,23.227,6.7,43.773,16.08,54.939c0,0-3.572-15.633-5.36-30.373c0,0,13.4,24.568,33.5,35.287c-12.06-14.74-21.886-47.793-21.886-47.793s5.359,11.613,15.634,22.334c-8.486-13.848-12.954-64.768-12.954-66.554L169.601,187.057z"></path><linearGradient id="hair5XMLID_477_" gradientUnits="userSpaceOnUse" x1="311.9219" y1="309.5" x2="311.9219" y2="125.5003"><stop offset="0" style="stop-color:#FCFCE4"></stop><stop offset="0.5" style="stop-color:#A0C8DD"></stop><stop offset="1" style="stop-color:#5D6EC5"></stop></linearGradient><path style="fill:url(#hair5XMLID_477_);stroke:#1E1E1E;stroke-linecap:round;stroke-linejoin:round;" d="M308.96,200.903c0,0.149-5.178,53.866-12.953,66.554c10.273-10.721,15.634-22.334,15.634-22.334s-9.827,33.053-21.888,47.793c20.101-10.719,33.5-35.287,33.5-35.287c-1.786,14.74-5.359,30.373-5.359,30.373c9.38-11.166,15.187-31.713,16.08-54.939c0.893-23.227-3.573-46.006-3.573-46.006L308.96,200.903z"></path></g></g></svg>