<svg xmlns="http://www.w3.org/2000/svg" width="500" height="500" version="1.1"><g id="x049"><g><linearGradient id="hair5XMLID_478_" gradientUnits="userSpaceOnUse" x1="191.2539" y1="309.5" x2="191.2539" y2="125.4994"><stop offset="0" style="stop-color:#FCFCE4"></stop><stop offset="0.5" style="stop-color:#A0C8DD"></stop><stop offset="1" style="stop-color:#5D6EC5"></stop></linearGradient><path style="fill:url(#hair5XMLID_478_);stroke:#1E1E1E;stroke-linecap:round;stroke-linejoin:round;" d="M193.615,148.419c0,0-18.09,16.75-18.76,49.581c-0.67,32.83,9.38,51.59,7.37,75.709c7.035,12.395,16.08,9.045,15.41,7.705s-14.405-92.459,10.05-126.629L193.615,148.419z"></path><linearGradient id="hair5XMLID_479_" gradientUnits="userSpaceOnUse" x1="184.6611" y1="309.5" x2="184.6611" y2="125.5"><stop offset="0" style="stop-color:#FCFCE4"></stop><stop offset="0.5" style="stop-color:#A0C8DD"></stop><stop offset="1" style="stop-color:#5D6EC5"></stop></linearGradient><path style="fill:url(#hair5XMLID_479_);stroke:#1E1E1E;stroke-linecap:round;stroke-linejoin:round;" d="M195.291,259.64c-0.335,2.681,5.359,25.794,1.005,40.2c-4.355,14.404-13.735,34.504-9.045,45.895c-12.061-15.744-19.096-28.141-14.405-45.225c4.689-17.086,10.385-33.835,10.385-41.54"></path><linearGradient id="hair5XMLID_480_" gradientUnits="userSpaceOnUse" x1="308.7461" y1="309.5" x2="308.7461" y2="125.4994"><stop offset="0" style="stop-color:#FCFCE4"></stop><stop offset="0.5" style="stop-color:#A0C8DD"></stop><stop offset="1" style="stop-color:#5D6EC5"></stop></linearGradient><path style="fill:url(#hair5XMLID_480_);stroke:#1E1E1E;stroke-linecap:round;stroke-linejoin:round;" d="M306.384,148.419c0,0,18.09,16.75,18.76,49.581c0.672,32.83-9.379,51.59-7.369,75.709c-7.035,12.395-16.08,9.045-15.41,7.705s14.404-92.459-10.049-126.629L306.384,148.419z"></path><linearGradient id="hair5XMLID_481_" gradientUnits="userSpaceOnUse" x1="315.3389" y1="309.5" x2="315.3389" y2="125.5"><stop offset="0" style="stop-color:#FCFCE4"></stop><stop offset="0.5" style="stop-color:#A0C8DD"></stop><stop offset="1" style="stop-color:#5D6EC5"></stop></linearGradient><path style="fill:url(#hair5XMLID_481_);stroke:#1E1E1E;stroke-linecap:round;stroke-linejoin:round;" d="M304.71,259.64c0.334,2.681-5.361,25.794-1.006,40.2c4.355,14.404,13.736,34.504,9.045,45.895c12.061-15.744,19.096-28.141,14.406-45.225c-4.691-17.086-10.387-33.835-10.387-41.54"></path></g></g></svg>