<svg xmlns="http://www.w3.org/2000/svg" width="500" height="500" version="1.1"><g id="x005"><g><linearGradient id="hair5XMLID_322_" gradientUnits="userSpaceOnUse" x1="191.4888" y1="309.5" x2="191.4888" y2="125.4997"><stop offset="0" style="stop-color:#FCFCE4"></stop><stop offset="0.5" style="stop-color:#A0C8DD"></stop><stop offset="1" style="stop-color:#5D6EC5"></stop></linearGradient><path style="fill:url(#hair5XMLID_322_);stroke:#1E1E1E;stroke-linecap:round;stroke-linejoin:round;" d="M191.991,213.865c0,0,3.126,53.154,1.786,58.066c1.786-0.895,10.72,11.166,9.38,15.186s-9.382,8.043-7.594,12.953c1.787,4.914,4.913,11.613,4.913,11.613s-8.039-3.125-10.72-10.273c-2.68-7.145-0.001-11.162,3.126-14.738c3.128-3.574-11.164-12.51-12.952-18.314c-1.787-5.805,6.699-14.289,7.593-27.244s1.787-26.801,1.787-26.801L191.991,213.865z"></path><linearGradient id="hair5XMLID_323_" gradientUnits="userSpaceOnUse" x1="308.5156" y1="309.5" x2="308.5156" y2="125.4997"><stop offset="0" style="stop-color:#FCFCE4"></stop><stop offset="0.5" style="stop-color:#A0C8DD"></stop><stop offset="1" style="stop-color:#5D6EC5"></stop></linearGradient><path style="fill:url(#hair5XMLID_323_);stroke:#1E1E1E;stroke-linecap:round;stroke-linejoin:round;" d="M308.013,213.865c0,0-3.126,53.154-1.786,58.066c-1.786-0.895-10.72,11.166-9.38,15.186s9.381,8.043,7.594,12.953c-1.788,4.914-4.914,11.613-4.914,11.613s8.04-3.125,10.72-10.273c2.681-7.145,0.003-11.162-3.126-14.738c-3.128-3.574,11.166-12.51,12.954-18.314c1.787-5.805-6.7-14.289-7.593-27.244c-0.896-12.955-1.787-26.801-1.787-26.801L308.013,213.865z"></path></g></g></svg>