<svg xmlns="http://www.w3.org/2000/svg" width="500" height="500" version="1.1"><g id="x051"><g><g><linearGradient id="hair5XMLID_485_" gradientUnits="userSpaceOnUse" x1="190.0073" y1="309.5" x2="190.0073" y2="125.4998"><stop offset="0" style="stop-color:#FCFCE4"></stop><stop offset="0.5" style="stop-color:#A0C8DD"></stop><stop offset="1" style="stop-color:#5D6EC5"></stop></linearGradient><path style="fill:url(#hair5XMLID_485_);stroke:#1E1E1E;stroke-linecap:round;stroke-linejoin:round;" d="M203.903,259.416c-16.08-8.041-9.826-46.9-9.826-50.027c0,0-9.318-5.889-9.818-10.889C181.009,202.75,159.259,256.5,203.903,259.416z"></path><linearGradient id="hair5XMLID_486_" gradientUnits="userSpaceOnUse" x1="190.0718" y1="309.5" x2="190.0718" y2="125.5"><stop offset="0" style="stop-color:#FCFCE4"></stop><stop offset="0.5" style="stop-color:#A0C8DD"></stop><stop offset="1" style="stop-color:#5D6EC5"></stop></linearGradient><path style="fill:url(#hair5XMLID_486_);stroke:#1E1E1E;stroke-linecap:round;stroke-linejoin:round;" d="M176.21,254.502c4.02,11.613,12.06,21.439,28.139,21.887c-10.72-3.574-19.652-32.606-19.652-32.606S173.53,249.589,176.21,254.502z"></path><linearGradient id="hair5XMLID_487_" gradientUnits="userSpaceOnUse" x1="182.4888" y1="309.5" x2="182.4888" y2="125.5002"><stop offset="0" style="stop-color:#FCFCE4"></stop><stop offset="0.5" style="stop-color:#A0C8DD"></stop><stop offset="1" style="stop-color:#5D6EC5"></stop></linearGradient><path style="fill:url(#hair5XMLID_487_);stroke:#1E1E1E;stroke-linecap:round;stroke-linejoin:round;" d="M179.783,251.375c13.399-14.739,14.226-42.125,14.226-42.125l-6.75-5.5c0,0-41,62.5,6.818,80.678c-6.566-5.873-11.126-11.752-12.95-22.813"></path></g><g><linearGradient id="hair5XMLID_488_" gradientUnits="userSpaceOnUse" x1="309.9922" y1="309.5" x2="309.9922" y2="125.4998"><stop offset="0" style="stop-color:#FCFCE4"></stop><stop offset="0.5" style="stop-color:#A0C8DD"></stop><stop offset="1" style="stop-color:#5D6EC5"></stop></linearGradient><path style="fill:url(#hair5XMLID_488_);stroke:#1E1E1E;stroke-linecap:round;stroke-linejoin:round;" d="M296.097,259.416c16.08-8.041,9.826-46.9,9.826-50.027c0,0,9.318-5.889,9.818-10.889C318.991,202.75,340.741,256.5,296.097,259.416z"></path><linearGradient id="hair5XMLID_489_" gradientUnits="userSpaceOnUse" x1="309.9277" y1="309.5" x2="309.9277" y2="125.5"><stop offset="0" style="stop-color:#FCFCE4"></stop><stop offset="0.5" style="stop-color:#A0C8DD"></stop><stop offset="1" style="stop-color:#5D6EC5"></stop></linearGradient><path style="fill:url(#hair5XMLID_489_);stroke:#1E1E1E;stroke-linecap:round;stroke-linejoin:round;" d="M323.79,254.502c-4.02,11.613-12.06,21.439-28.139,21.887c10.72-3.574,19.652-32.606,19.652-32.606S326.47,249.589,323.79,254.502z"></path><linearGradient id="hair5XMLID_490_" gradientUnits="userSpaceOnUse" x1="317.5117" y1="309.5" x2="317.5117" y2="125.5002"><stop offset="0" style="stop-color:#FCFCE4"></stop><stop offset="0.5" style="stop-color:#A0C8DD"></stop><stop offset="1" style="stop-color:#5D6EC5"></stop></linearGradient><path style="fill:url(#hair5XMLID_490_);stroke:#1E1E1E;stroke-linecap:round;stroke-linejoin:round;" d="M320.217,251.375c-13.399-14.739-14.226-42.125-14.226-42.125l6.75-5.5c0,0,41,62.5-6.818,80.678c6.566-5.873,11.126-11.752,12.95-22.813"></path></g></g></g></svg>