<svg xmlns="http://www.w3.org/2000/svg" width="500" height="500" version="1.1"><g id="x052"><g><linearGradient id="hair5XMLID_491_" gradientUnits="userSpaceOnUse" x1="194.8247" y1="309.5" x2="194.8247" y2="125.4993"><stop offset="0" style="stop-color:#FCFCE4"></stop><stop offset="0.5" style="stop-color:#A0C8DD"></stop><stop offset="1" style="stop-color:#5D6EC5"></stop></linearGradient><path style="fill:url(#hair5XMLID_491_);stroke:#1E1E1E;stroke-linecap:round;stroke-linejoin:round;" d="M183.83,164.84c-31.714,39.307-6.7,94.693,3.573,110.326c5.938,9.037,16.08,24.119,14.293,37.52c12.954-14.293,4.021-30.82,4.021-30.82s8.934,7.148,15.634,14.295c-2.234-19.654-27.694-26.801-29.927-64.768C189.19,193.426,211.97,156.8,211.97,156.8L183.83,164.84z"></path><linearGradient id="hair5XMLID_492_" gradientUnits="userSpaceOnUse" x1="305.1758" y1="309.5" x2="305.1758" y2="125.4993"><stop offset="0" style="stop-color:#FCFCE4"></stop><stop offset="0.5" style="stop-color:#A0C8DD"></stop><stop offset="1" style="stop-color:#5D6EC5"></stop></linearGradient><path style="fill:url(#hair5XMLID_492_);stroke:#1E1E1E;stroke-linecap:round;stroke-linejoin:round;" d="M316.17,164.84c31.715,39.307,6.701,94.693-3.572,110.326c-5.938,9.037-16.08,24.119-14.293,37.52c-12.955-14.293-4.021-30.82-4.021-30.82s-8.934,7.148-15.633,14.295c2.234-19.654,27.693-26.801,29.926-64.768c2.234-37.967-20.547-74.593-20.547-74.593L316.17,164.84z"></path></g></g></svg>