<svg xmlns="http://www.w3.org/2000/svg" width="500" height="500" version="1.1"><g id="x054"><g><g><linearGradient id="hair5XMLID_497_" gradientUnits="userSpaceOnUse" x1="311.625" y1="309.5" x2="311.625" y2="125.5004"><stop offset="0" style="stop-color:#FCFCE4"></stop><stop offset="0.5" style="stop-color:#A0C8DD"></stop><stop offset="1" style="stop-color:#5D6EC5"></stop></linearGradient><path style="fill:url(#hair5XMLID_497_);stroke:#1E1E1E;stroke-linecap:round;stroke-linejoin:round;" d="M310.873,181.333c5.211,40.063-3,58.333-3,58.333s-3.949,24.533-13.105,31.101c6.477,0.635,12.506,11.227,12.506,11.227s-9.603,7.838-21.886,6.78c7.37,5.719,60.746,2.328,56.727-72.236c-4.002-74.219-61.193-85.582-61.193-85.582S305.54,140.333,310.873,181.333z"></path><linearGradient id="hair5XMLID_498_" gradientUnits="userSpaceOnUse" x1="297.3359" y1="309.5" x2="297.3359" y2="125.4999"><stop offset="0" style="stop-color:#FCFCE4"></stop><stop offset="0.5" style="stop-color:#A0C8DD"></stop><stop offset="1" style="stop-color:#5D6EC5"></stop></linearGradient><path style="fill:url(#hair5XMLID_498_);stroke:#1E1E1E;stroke-linecap:round;stroke-linejoin:round;" d="M308.206,251c0,0-8.526,12.66-26.616,10.427c5.36,7.593,13.4,8.04,13.4,8.04s-7.146,5.582-19.653,3.127c3.127,4.912,22.11,20.77,43.997,3.127"></path></g><g><linearGradient id="hair5XMLID_499_" gradientUnits="userSpaceOnUse" x1="188.3745" y1="309.5" x2="188.3745" y2="125.5004"><stop offset="0" style="stop-color:#FCFCE4"></stop><stop offset="0.5" style="stop-color:#A0C8DD"></stop><stop offset="1" style="stop-color:#5D6EC5"></stop></linearGradient><path style="fill:url(#hair5XMLID_499_);stroke:#1E1E1E;stroke-linecap:round;stroke-linejoin:round;" d="M189.127,181.333c-5.211,40.063,3,58.333,3,58.333s3.949,24.533,13.105,31.101c-6.477,0.635-12.506,11.227-12.506,11.227s9.603,7.838,21.886,6.78c-7.37,5.719-60.746,2.328-56.727-72.236c4.002-74.219,61.193-85.582,61.193-85.582S194.46,140.333,189.127,181.333z"></path><linearGradient id="hair5XMLID_500_" gradientUnits="userSpaceOnUse" x1="202.6646" y1="309.5" x2="202.6645" y2="125.4999"><stop offset="0" style="stop-color:#FCFCE4"></stop><stop offset="0.5" style="stop-color:#A0C8DD"></stop><stop offset="1" style="stop-color:#5D6EC5"></stop></linearGradient><path style="fill:url(#hair5XMLID_500_);stroke:#1E1E1E;stroke-linecap:round;stroke-linejoin:round;" d="M191.794,251c0,0,8.526,12.66,26.616,10.427c-5.36,7.593-13.4,8.04-13.4,8.04s7.146,5.582,19.653,3.127c-3.127,4.912-22.11,20.77-43.997,3.127"></path></g></g></g></svg>