<svg xmlns="http://www.w3.org/2000/svg" width="500" height="500" version="1.1"><g id="x055"><g><g><linearGradient id="hair5XMLID_501_" gradientUnits="userSpaceOnUse" x1="196.0718" y1="309.5" x2="196.0718" y2="125.5005"><stop offset="0" style="stop-color:#FCFCE4"></stop><stop offset="0.5" style="stop-color:#A0C8DD"></stop><stop offset="1" style="stop-color:#5D6EC5"></stop></linearGradient><path style="fill:url(#hair5XMLID_501_);stroke:#1E1E1E;stroke-linecap:round;stroke-linejoin:round;" d="M188.716,227.705c0,0-12.01,72.373,9.041,109.742c6.195-19.539,9.082-41.691,9.082-41.691s-4.846-31.707-9.589-44.756S189.903,231.91,188.716,227.705z"></path><g><linearGradient id="hair5XMLID_502_" gradientUnits="userSpaceOnUse" x1="202.7139" y1="309.5" x2="202.7139" y2="125.5003"><stop offset="0" style="stop-color:#FCFCE4"></stop><stop offset="0.5" style="stop-color:#A0C8DD"></stop><stop offset="1" style="stop-color:#5D6EC5"></stop></linearGradient><path style="fill:url(#hair5XMLID_502_);stroke:#1E1E1E;stroke-linecap:round;stroke-linejoin:round;" d="M193.233,327.512c0.596,2.762,8.967,36.938,8.689,55.779c8.811-18.803,12.113-20.236,9.285-35.377c-1.412-7.57-5.658-11.857-9.676-14.658"></path><linearGradient id="hair5XMLID_503_" gradientUnits="userSpaceOnUse" x1="196.5532" y1="309.5" x2="196.5532" y2="125.5001"><stop offset="0" style="stop-color:#FCFCE4"></stop><stop offset="0.5" style="stop-color:#A0C8DD"></stop><stop offset="1" style="stop-color:#5D6EC5"></stop></linearGradient><path style="fill:url(#hair5XMLID_503_);stroke:#1E1E1E;stroke-linecap:round;stroke-linejoin:round;" d="M197.335,335.152c0,0,0.537,44.098-7.047,55.846c9.707-10.615,12.904-19.25,12.496-31.879"></path></g><linearGradient id="hair5XMLID_504_" gradientUnits="userSpaceOnUse" x1="202.7236" y1="309.5" x2="202.7236" y2="125.4997"><stop offset="0" style="stop-color:#FCFCE4"></stop><stop offset="0.5" style="stop-color:#A0C8DD"></stop><stop offset="1" style="stop-color:#5D6EC5"></stop></linearGradient><path style="fill:url(#hair5XMLID_504_);stroke:#1E1E1E;stroke-linecap:round;stroke-linejoin:round;" d="M202.032,274.107c0,0,13.553,36.094-3.682,66.102c4.307-35.027,0.045-53.471,0.045-53.471"></path></g><g><linearGradient id="hair5XMLID_505_" gradientUnits="userSpaceOnUse" x1="303.9277" y1="309.5" x2="303.9277" y2="125.5005"><stop offset="0" style="stop-color:#FCFCE4"></stop><stop offset="0.5" style="stop-color:#A0C8DD"></stop><stop offset="1" style="stop-color:#5D6EC5"></stop></linearGradient><path style="fill:url(#hair5XMLID_505_);stroke:#1E1E1E;stroke-linecap:round;stroke-linejoin:round;" d="M311.284,227.705c0,0,12.01,72.373-9.041,109.742c-6.195-19.539-9.082-41.691-9.082-41.691s4.846-31.707,9.589-44.756S310.097,231.91,311.284,227.705z"></path><g><linearGradient id="hair5XMLID_506_" gradientUnits="userSpaceOnUse" x1="297.2861" y1="309.5" x2="297.2861" y2="125.5003"><stop offset="0" style="stop-color:#FCFCE4"></stop><stop offset="0.5" style="stop-color:#A0C8DD"></stop><stop offset="1" style="stop-color:#5D6EC5"></stop></linearGradient><path style="fill:url(#hair5XMLID_506_);stroke:#1E1E1E;stroke-linecap:round;stroke-linejoin:round;" d="M306.767,327.512c-0.596,2.762-8.967,36.938-8.689,55.779c-8.811-18.803-12.113-20.236-9.285-35.377c1.412-7.57,5.658-11.857,9.676-14.658"></path><linearGradient id="hair5XMLID_507_" gradientUnits="userSpaceOnUse" x1="303.4473" y1="309.5" x2="303.4473" y2="125.5001"><stop offset="0" style="stop-color:#FCFCE4"></stop><stop offset="0.5" style="stop-color:#A0C8DD"></stop><stop offset="1" style="stop-color:#5D6EC5"></stop></linearGradient><path style="fill:url(#hair5XMLID_507_);stroke:#1E1E1E;stroke-linecap:round;stroke-linejoin:round;" d="M302.665,335.152c0,0-0.537,44.098,7.047,55.846c-9.707-10.615-12.904-19.25-12.496-31.879"></path></g><linearGradient id="hair5XMLID_508_" gradientUnits="userSpaceOnUse" x1="297.2764" y1="309.5" x2="297.2764" y2="125.4997"><stop offset="0" style="stop-color:#FCFCE4"></stop><stop offset="0.5" style="stop-color:#A0C8DD"></stop><stop offset="1" style="stop-color:#5D6EC5"></stop></linearGradient><path style="fill:url(#hair5XMLID_508_);stroke:#1E1E1E;stroke-linecap:round;stroke-linejoin:round;" d="M297.968,274.107c0,0-13.553,36.094,3.682,66.102c-4.307-35.027-0.045-53.471-0.045-53.471"></path></g></g></g></svg>