<svg xmlns="http://www.w3.org/2000/svg" width="500" height="500" version="1.1"><g id="x056"><g><g><linearGradient id="hair5XMLID_509_" gradientUnits="userSpaceOnUse" x1="322.1152" y1="309.5" x2="322.1152" y2="125.5001"><stop offset="0" style="stop-color:#FCFCE4"></stop><stop offset="0.5" style="stop-color:#A0C8DD"></stop><stop offset="1" style="stop-color:#5D6EC5"></stop></linearGradient><path style="fill:url(#hair5XMLID_509_);stroke:#1E1E1E;stroke-linecap:round;stroke-linejoin:round;" d="M313.486,262.813c0,0,2.593,9.104,9.715,4.354c7.035-4.689,2.01-14.069,2.01-14.069s13.735,17.085-1.34,22.444C310.996,280.121,313.486,262.813,313.486,262.813z"></path><linearGradient id="hair5XMLID_510_" gradientUnits="userSpaceOnUse" x1="306.6953" y1="309.5" x2="306.6953" y2="125.4999"><stop offset="0" style="stop-color:#FCFCE4"></stop><stop offset="0.5" style="stop-color:#A0C8DD"></stop><stop offset="1" style="stop-color:#5D6EC5"></stop></linearGradient><path style="fill:url(#hair5XMLID_510_);stroke:#1E1E1E;stroke-linecap:round;stroke-linejoin:round;" d="M315.155,265.507c0,0,10.486,11.827,1.152,28.66c1.334-6.5-1.822-13.25-1.822-13.25s3.578,19.725-14.177,25.084c0.833-7.667-6.335-13.667-7.001-21.667s2.245-15.866,8.668-18.167C308.006,268.177,315.155,265.507,315.155,265.507z"></path><linearGradient id="hair5XMLID_511_" gradientUnits="userSpaceOnUse" x1="316.4297" y1="309.5" x2="316.4297" y2="125.5003"><stop offset="0" style="stop-color:#FCFCE4"></stop><stop offset="0.5" style="stop-color:#A0C8DD"></stop><stop offset="1" style="stop-color:#5D6EC5"></stop></linearGradient><path style="fill:url(#hair5XMLID_511_);stroke:#1E1E1E;stroke-linecap:round;stroke-linejoin:round;" d="M319.642,203.333c0,0,17.756,34.252,13.584,45.25c-3.686,9.716-18.918,21.083-18.918,21.083s-7.666,3.167-13.166-2.167c-8-20.5,8.969-45.045,9.304-54.09"></path><path style="fill:none;stroke:#1E1E1E;stroke-linecap:round;stroke-linejoin:round;" d="M307.725,270.549c1-0.75,8.25-1,16.25-24.999"></path><linearGradient id="hair5XMLID_512_" gradientUnits="userSpaceOnUse" x1="312.6689" y1="309.5" x2="312.6689" y2="125.4998"><stop offset="0" style="stop-color:#FCFCE4"></stop><stop offset="0.5" style="stop-color:#A0C8DD"></stop><stop offset="1" style="stop-color:#5D6EC5"></stop></linearGradient><path style="fill:url(#hair5XMLID_512_);stroke:#1E1E1E;stroke-linecap:round;stroke-linejoin:round;" d="M310.094,213.41c0,0,5.024,27.805-7.37,35.844c11.585-2.087,21.104-10.385,19.765-39.194"></path><linearGradient id="hair5XMLID_513_" gradientUnits="userSpaceOnUse" x1="329.6953" y1="309.5" x2="329.6953" y2="125.4998"><stop offset="0" style="stop-color:#FCFCE4"></stop><stop offset="0.5" style="stop-color:#A0C8DD"></stop><stop offset="1" style="stop-color:#5D6EC5"></stop></linearGradient><path style="fill:url(#hair5XMLID_513_);stroke:#1E1E1E;stroke-linecap:round;stroke-linejoin:round;" d="M316.458,184.935c-1.233,9.315-2.368,16.704,8.017,22.399s19,0.917,23.474-12.349c6.026,15.683-9.224,39.016-27.474,31.516C299.777,217.995,316.458,184.935,316.458,184.935z"></path></g><g><linearGradient id="hair5XMLID_514_" gradientUnits="userSpaceOnUse" x1="177.8853" y1="309.5" x2="177.8852" y2="125.5001"><stop offset="0" style="stop-color:#FCFCE4"></stop><stop offset="0.5" style="stop-color:#A0C8DD"></stop><stop offset="1" style="stop-color:#5D6EC5"></stop></linearGradient><path style="fill:url(#hair5XMLID_514_);stroke:#1E1E1E;stroke-linecap:round;stroke-linejoin:round;" d="M186.514,262.813c0,0-2.593,9.104-9.715,4.354c-7.035-4.689-2.01-14.069-2.01-14.069s-13.735,17.085,1.34,22.444C189.004,280.121,186.514,262.813,186.514,262.813z"></path><linearGradient id="hair5XMLID_515_" gradientUnits="userSpaceOnUse" x1="193.3042" y1="309.5" x2="193.3042" y2="125.4999"><stop offset="0" style="stop-color:#FCFCE4"></stop><stop offset="0.5" style="stop-color:#A0C8DD"></stop><stop offset="1" style="stop-color:#5D6EC5"></stop></linearGradient><path style="fill:url(#hair5XMLID_515_);stroke:#1E1E1E;stroke-linecap:round;stroke-linejoin:round;" d="M184.845,265.507c0,0-10.486,11.827-1.152,28.66c-1.334-6.5,1.822-13.25,1.822-13.25s-3.578,19.725,14.177,25.084c-0.833-7.667,6.335-13.667,7.001-21.667s-2.245-15.866-8.668-18.167C191.994,268.177,184.845,265.507,184.845,265.507z"></path><linearGradient id="hair5XMLID_516_" gradientUnits="userSpaceOnUse" x1="183.5698" y1="309.5" x2="183.5698" y2="125.5003"><stop offset="0" style="stop-color:#FCFCE4"></stop><stop offset="0.5" style="stop-color:#A0C8DD"></stop><stop offset="1" style="stop-color:#5D6EC5"></stop></linearGradient><path style="fill:url(#hair5XMLID_516_);stroke:#1E1E1E;stroke-linecap:round;stroke-linejoin:round;" d="M180.358,203.333c0,0-17.756,34.252-13.584,45.25c3.686,9.716,18.918,21.083,18.918,21.083s7.666,3.167,13.166-2.167c8-20.5-8.969-45.045-9.304-54.09"></path><path style="fill:none;stroke:#1E1E1E;stroke-linecap:round;stroke-linejoin:round;" d="M192.275,270.549c-1-0.75-8.25-1-16.25-24.999"></path><linearGradient id="hair5XMLID_517_" gradientUnits="userSpaceOnUse" x1="187.3311" y1="309.5" x2="187.331" y2="125.4998"><stop offset="0" style="stop-color:#FCFCE4"></stop><stop offset="0.5" style="stop-color:#A0C8DD"></stop><stop offset="1" style="stop-color:#5D6EC5"></stop></linearGradient><path style="fill:url(#hair5XMLID_517_);stroke:#1E1E1E;stroke-linecap:round;stroke-linejoin:round;" d="M189.906,213.41c0,0-5.024,27.805,7.37,35.844c-11.585-2.087-21.104-10.385-19.765-39.194"></path><linearGradient id="hair5XMLID_518_" gradientUnits="userSpaceOnUse" x1="170.3047" y1="309.5" x2="170.3047" y2="125.4998"><stop offset="0" style="stop-color:#FCFCE4"></stop><stop offset="0.5" style="stop-color:#A0C8DD"></stop><stop offset="1" style="stop-color:#5D6EC5"></stop></linearGradient><path style="fill:url(#hair5XMLID_518_);stroke:#1E1E1E;stroke-linecap:round;stroke-linejoin:round;" d="M183.542,184.935c1.233,9.315,2.368,16.704-8.017,22.399s-19,0.917-23.474-12.349c-6.026,15.683,9.224,39.016,27.474,31.516C200.223,217.995,183.542,184.935,183.542,184.935z"></path></g></g></g></svg>