<svg xmlns="http://www.w3.org/2000/svg" width="500" height="500" version="1.1"><g id="x057"><g><g><linearGradient id="hair5XMLID_519_" gradientUnits="userSpaceOnUse" x1="199.8364" y1="309.5" x2="199.8364" y2="125.5001"><stop offset="0" style="stop-color:#FCFCE4"></stop><stop offset="0.5" style="stop-color:#A0C8DD"></stop><stop offset="1" style="stop-color:#5D6EC5"></stop></linearGradient><path style="fill:url(#hair5XMLID_519_);stroke:#1E1E1E;stroke-linecap:round;stroke-linejoin:round;" d="M191.225,284.43c0,0-10.05,21.775,7.705,33.5c-1.34-8.041-1.675-11.055-1.675-11.055s4.354,11.725,13.064,12.729c3.016-17.42-1.005-30.148-12.729-38.523C192.229,284.764,191.225,284.43,191.225,284.43z"></path><linearGradient id="hair5XMLID_520_" gradientUnits="userSpaceOnUse" x1="183.6289" y1="309.5" x2="183.6289" y2="125.4995"><stop offset="0" style="stop-color:#FCFCE4"></stop><stop offset="0.5" style="stop-color:#A0C8DD"></stop><stop offset="1" style="stop-color:#5D6EC5"></stop></linearGradient><path style="fill:url(#hair5XMLID_520_);stroke:#1E1E1E;stroke-linecap:round;stroke-linejoin:round;" d="M180.84,159.14c-27.471,87.101,5.359,124.284,10.05,126.294c1.364,0.975,4.565-0.258,6.266-4.529c1.222-3.07-8.61-104.68-7.94-106.354L180.84,159.14z"></path></g><g><linearGradient id="hair5XMLID_521_" gradientUnits="userSpaceOnUse" x1="300.1631" y1="309.5" x2="300.1631" y2="125.5001"><stop offset="0" style="stop-color:#FCFCE4"></stop><stop offset="0.5" style="stop-color:#A0C8DD"></stop><stop offset="1" style="stop-color:#5D6EC5"></stop></linearGradient><path style="fill:url(#hair5XMLID_521_);stroke:#1E1E1E;stroke-linecap:round;stroke-linejoin:round;" d="M308.775,284.43c0,0,10.05,21.775-7.705,33.5c1.34-8.041,1.675-11.055,1.675-11.055s-4.354,11.725-13.064,12.729c-3.015-17.42,1.005-30.148,12.729-38.523C307.771,284.764,308.775,284.43,308.775,284.43z"></path><linearGradient id="hair5XMLID_522_" gradientUnits="userSpaceOnUse" x1="316.3711" y1="309.5" x2="316.3711" y2="125.4995"><stop offset="0" style="stop-color:#FCFCE4"></stop><stop offset="0.5" style="stop-color:#A0C8DD"></stop><stop offset="1" style="stop-color:#5D6EC5"></stop></linearGradient><path style="fill:url(#hair5XMLID_522_);stroke:#1E1E1E;stroke-linecap:round;stroke-linejoin:round;" d="M319.16,159.14c27.471,87.101-5.359,124.284-10.05,126.294c-1.364,0.975-4.564-0.258-6.266-4.529c-1.222-3.07,8.61-104.68,7.94-106.354L319.16,159.14z"></path></g></g></g></svg>