<svg xmlns="http://www.w3.org/2000/svg" width="500" height="500" version="1.1"><g id="x058"><g><g><linearGradient id="hair5XMLID_523_" gradientUnits="userSpaceOnUse" x1="309.25" y1="309.5" x2="309.25" y2="125.4998"><stop offset="0" style="stop-color:#FCFCE4"></stop><stop offset="0.5" style="stop-color:#A0C8DD"></stop><stop offset="1" style="stop-color:#5D6EC5"></stop></linearGradient><path style="fill:url(#hair5XMLID_523_);stroke:#1E1E1E;stroke-linecap:round;stroke-linejoin:round;" d="M324.629,207.283c0,0,11.613,37.52,5.359,52.26c-6.253,14.74-28.14,20.547-43.326,19.207c15.187-11.613,25.46-49.134,21.44-75.934C308.103,202.816,323.041,205.566,324.629,207.283z"></path><path style="fill:none;stroke:#1E1E1E;stroke-linecap:round;stroke-linejoin:round;" d="M316.143,227.383c0,0-1.787,20.547-16.527,32.607"></path></g><g><linearGradient id="hair5XMLID_524_" gradientUnits="userSpaceOnUse" x1="190.7505" y1="309.5" x2="190.7505" y2="125.4998"><stop offset="0" style="stop-color:#FCFCE4"></stop><stop offset="0.5" style="stop-color:#A0C8DD"></stop><stop offset="1" style="stop-color:#5D6EC5"></stop></linearGradient><path style="fill:url(#hair5XMLID_524_);stroke:#1E1E1E;stroke-linecap:round;stroke-linejoin:round;" d="M175.371,207.283c0,0-11.613,37.52-5.359,52.26c6.253,14.74,28.14,20.547,43.326,19.207c-15.187-11.613-25.46-49.134-21.44-75.934C191.897,202.816,176.959,205.566,175.371,207.283z"></path><path style="fill:none;stroke:#1E1E1E;stroke-linecap:round;stroke-linejoin:round;" d="M183.857,227.383c0,0,1.787,20.547,16.527,32.607"></path></g></g></g></svg>