<svg xmlns="http://www.w3.org/2000/svg" width="500" height="500" version="1.1"><g id="x059"><g><g><linearGradient id="hair5XMLID_525_" gradientUnits="userSpaceOnUse" x1="197.8472" y1="309.5" x2="197.8472" y2="125.5"><stop offset="0" style="stop-color:#FCFCE4"></stop><stop offset="0.5" style="stop-color:#A0C8DD"></stop><stop offset="1" style="stop-color:#5D6EC5"></stop></linearGradient><path style="fill:url(#hair5XMLID_525_);stroke:#1E1E1E;stroke-linecap:round;stroke-linejoin:round;" d="M220.142,127.543c-37.073,9.38-43.326,45.113-43.326,45.113c-7.594,77.721,20.769,125.066,39.083,129.533c-31.777-67.526-17.861-134.741-12.061-142.933C205.736,156.577,209.304,142.5,220.142,127.543z"></path><linearGradient id="hair5XMLID_526_" gradientUnits="userSpaceOnUse" x1="180.8516" y1="309.5" x2="180.8515" y2="125.4996"><stop offset="0" style="stop-color:#FCFCE4"></stop><stop offset="0.5" style="stop-color:#A0C8DD"></stop><stop offset="1" style="stop-color:#5D6EC5"></stop></linearGradient><path style="fill:url(#hair5XMLID_526_);stroke:#1E1E1E;stroke-linecap:round;stroke-linejoin:round;" d="M176.145,198.117c0,1.786,5.806,72.807-1.786,83.525c14.293-7.146,12.953-28.586,12.953-28.586"></path></g><g><linearGradient id="hair5XMLID_527_" gradientUnits="userSpaceOnUse" x1="302.1533" y1="309.5" x2="302.1533" y2="125.5"><stop offset="0" style="stop-color:#FCFCE4"></stop><stop offset="0.5" style="stop-color:#A0C8DD"></stop><stop offset="1" style="stop-color:#5D6EC5"></stop></linearGradient><path style="fill:url(#hair5XMLID_527_);stroke:#1E1E1E;stroke-linecap:round;stroke-linejoin:round;" d="M279.858,127.543c37.072,9.38,43.326,45.113,43.326,45.113c7.594,77.721-20.77,125.066-39.084,129.533c31.777-67.526,17.861-134.741,12.061-142.933C294.263,156.577,290.696,142.5,279.858,127.543z"></path><linearGradient id="hair5XMLID_528_" gradientUnits="userSpaceOnUse" x1="319.1484" y1="309.5" x2="319.1484" y2="125.4996"><stop offset="0" style="stop-color:#FCFCE4"></stop><stop offset="0.5" style="stop-color:#A0C8DD"></stop><stop offset="1" style="stop-color:#5D6EC5"></stop></linearGradient><path style="fill:url(#hair5XMLID_528_);stroke:#1E1E1E;stroke-linecap:round;stroke-linejoin:round;" d="M323.854,198.117c0,1.786-5.805,72.807,1.787,83.525c-14.293-7.146-12.953-28.586-12.953-28.586"></path></g></g></g></svg>