<svg xmlns="http://www.w3.org/2000/svg" width="500" height="500" version="1.1"><g id="x006"><g><g><linearGradient id="hair5XMLID_324_" gradientUnits="userSpaceOnUse" x1="309.8848" y1="309.5" x2="309.8848" y2="125.5002"><stop offset="0" style="stop-color:#FCFCE4"></stop><stop offset="0.5" style="stop-color:#A0C8DD"></stop><stop offset="1" style="stop-color:#5D6EC5"></stop></linearGradient><path style="fill:url(#hair5XMLID_324_);stroke:#1E1E1E;stroke-linecap:round;stroke-linejoin:round;" d="M308.686,231.5c0,0-12.73,18.09-6.7,32.83c11.39-7.371,17.42-15.41,17.42-40.2l-5.443-5.63C313.962,218.5,309.909,229,308.686,231.5z"></path><linearGradient id="hair5XMLID_325_" gradientUnits="userSpaceOnUse" x1="302.6543" y1="309.5" x2="302.6543" y2="125.5001"><stop offset="0" style="stop-color:#FCFCE4"></stop><stop offset="0.5" style="stop-color:#A0C8DD"></stop><stop offset="1" style="stop-color:#5D6EC5"></stop></linearGradient><path style="fill:url(#hair5XMLID_325_);stroke:#1E1E1E;stroke-linecap:round;stroke-linejoin:round;" d="M303.995,248.25c0,0-5.36,18.09-13.4,22.109c14.07-1.34,21.44-5.359,24.12-22.109"></path></g><g><linearGradient id="hair5XMLID_326_" gradientUnits="userSpaceOnUse" x1="190.1157" y1="309.5" x2="190.1157" y2="125.5002"><stop offset="0" style="stop-color:#FCFCE4"></stop><stop offset="0.5" style="stop-color:#A0C8DD"></stop><stop offset="1" style="stop-color:#5D6EC5"></stop></linearGradient><path style="fill:url(#hair5XMLID_326_);stroke:#1E1E1E;stroke-linecap:round;stroke-linejoin:round;" d="M191.314,231.5c0,0,12.73,18.09,6.7,32.83c-11.39-7.371-17.42-15.41-17.42-40.2l5.443-5.63C186.038,218.5,190.091,229,191.314,231.5z"></path><linearGradient id="hair5XMLID_327_" gradientUnits="userSpaceOnUse" x1="197.3452" y1="309.5" x2="197.3452" y2="125.5001"><stop offset="0" style="stop-color:#FCFCE4"></stop><stop offset="0.5" style="stop-color:#A0C8DD"></stop><stop offset="1" style="stop-color:#5D6EC5"></stop></linearGradient><path style="fill:url(#hair5XMLID_327_);stroke:#1E1E1E;stroke-linecap:round;stroke-linejoin:round;" d="M196.005,248.25c0,0,5.36,18.09,13.4,22.109c-14.07-1.34-21.44-5.359-24.12-22.109"></path></g></g></g></svg>