<svg xmlns="http://www.w3.org/2000/svg" width="500" height="500" version="1.1"><g id="x062"><g><g><linearGradient id="hair5XMLID_533_" gradientUnits="userSpaceOnUse" x1="183.833" y1="309.5" x2="183.833" y2="125.4996"><stop offset="0" style="stop-color:#FCFCE4"></stop><stop offset="0.5" style="stop-color:#A0C8DD"></stop><stop offset="1" style="stop-color:#5D6EC5"></stop></linearGradient><path style="fill:url(#hair5XMLID_533_);stroke:#1E1E1E;stroke-linecap:round;stroke-linejoin:round;" d="M182.863,191.521c0,1.787,1.22,26.744-9.827,50.474c-12.061,25.907-11.166,49.579,3.573,68.786c-0.894-16.525,3.574-34.393,13.4-50.473c-0.894-16.08-0.446-37.967,12.954-65.213L182.863,191.521z"></path><linearGradient id="hair5XMLID_534_" gradientUnits="userSpaceOnUse" x1="186.873" y1="309.5" x2="186.873" y2="125.5003"><stop offset="0" style="stop-color:#FCFCE4"></stop><stop offset="0.5" style="stop-color:#A0C8DD"></stop><stop offset="1" style="stop-color:#5D6EC5"></stop></linearGradient><path style="fill:url(#hair5XMLID_534_);stroke:#1E1E1E;stroke-linecap:round;stroke-linejoin:round;" d="M196.263,221.895c-0.446,1.787-9.828,65.215-3.128,83.08c-8.486-5.807-16.08-16.973-15.634-29.48"></path></g><g><linearGradient id="hair5XMLID_535_" gradientUnits="userSpaceOnUse" x1="313.4531" y1="309.5" x2="313.4531" y2="125.4996"><stop offset="0" style="stop-color:#FCFCE4"></stop><stop offset="0.5" style="stop-color:#A0C8DD"></stop><stop offset="1" style="stop-color:#5D6EC5"></stop></linearGradient><path style="fill:url(#hair5XMLID_535_);stroke:#1E1E1E;stroke-linecap:round;stroke-linejoin:round;" d="M331.825,195.096c6.253,35.287-8.559,58.021-12.953,65.213c-9.827,16.08-14.294,33.947-13.4,50.473c-14.74-19.207-15.634-42.879-3.573-68.786c11.046-23.729,9.826-48.687,9.826-50.474L331.825,195.096z"></path><linearGradient id="hair5XMLID_536_" gradientUnits="userSpaceOnUse" x1="315.7354" y1="309.5" x2="315.7354" y2="125.5003"><stop offset="0" style="stop-color:#FCFCE4"></stop><stop offset="0.5" style="stop-color:#A0C8DD"></stop><stop offset="1" style="stop-color:#5D6EC5"></stop></linearGradient><path style="fill:url(#hair5XMLID_536_);stroke:#1E1E1E;stroke-linecap:round;stroke-linejoin:round;" d="M325.125,221.895c-0.446,1.787-9.827,65.215-3.127,83.08c-8.487-5.807-16.081-16.973-15.634-29.48"></path></g></g></g></svg>