<svg xmlns="http://www.w3.org/2000/svg" width="500" height="500" version="1.1"><g id="x063"><g><g><g><linearGradient id="hair5XMLID_537_" gradientUnits="userSpaceOnUse" x1="309.25" y1="309.5" x2="309.25" y2="125.5003"><stop offset="0" style="stop-color:#FCFCE4"></stop><stop offset="0.5" style="stop-color:#A0C8DD"></stop><stop offset="1" style="stop-color:#5D6EC5"></stop></linearGradient><path style="fill:url(#hair5XMLID_537_);stroke:#1E1E1E;stroke-linecap:round;stroke-linejoin:round;" d="M311.068,242.57c-0.67,1.34-40.869,37.184-40.535,50.92c0.336,13.734,19.766,27.805,30.486,27.469c-9.047-7.369-12.396-19.764-8.711-22.109s53.6-6.365,55.609-23.449c1.1-9.34-16.414-50.25-22.779-56.281"></path><path style="fill:none;stroke:#1E1E1E;stroke-linecap:round;stroke-linejoin:round;" d="M329.494,234.529c-0.336,2.01-5.025,10.051-21.775,10.721"></path><path style="fill:none;stroke:#1E1E1E;stroke-linecap:round;stroke-linejoin:round;" d="M311.404,281.43c0,0-23.115,8.039-20.436,19.766"></path></g><linearGradient id="hair5XMLID_538_" gradientUnits="userSpaceOnUse" x1="310.2305" y1="309.5" x2="310.2305" y2="125.5"><stop offset="0" style="stop-color:#FCFCE4"></stop><stop offset="0.5" style="stop-color:#A0C8DD"></stop><stop offset="1" style="stop-color:#5D6EC5"></stop></linearGradient><path style="fill:url(#hair5XMLID_538_);stroke:#1E1E1E;stroke-linecap:round;stroke-linejoin:round;" d="M330.498,208.4c-1.674,23.114-13.064,45.225-40.535,47.569c18.426-12.396,25.162-49.915,25.162-49.915L330.498,208.4z"></path></g><g><g><linearGradient id="hair5XMLID_539_" gradientUnits="userSpaceOnUse" x1="190.7505" y1="309.5" x2="190.7505" y2="125.5003"><stop offset="0" style="stop-color:#FCFCE4"></stop><stop offset="0.5" style="stop-color:#A0C8DD"></stop><stop offset="1" style="stop-color:#5D6EC5"></stop></linearGradient><path style="fill:url(#hair5XMLID_539_);stroke:#1E1E1E;stroke-linecap:round;stroke-linejoin:round;" d="M188.931,242.57c0.67,1.34,40.87,37.184,40.535,50.92c-0.335,13.734-19.765,27.805-30.485,27.469c9.046-7.369,12.396-19.764,8.711-22.109c-3.686-2.346-53.601-6.365-55.61-23.449c-1.1-9.34,16.415-50.25,22.78-56.281"></path><path style="fill:none;stroke:#1E1E1E;stroke-linecap:round;stroke-linejoin:round;" d="M170.506,234.529c0.335,2.01,5.025,10.051,21.775,10.721"></path><path style="fill:none;stroke:#1E1E1E;stroke-linecap:round;stroke-linejoin:round;" d="M188.596,281.43c0,0,23.115,8.039,20.436,19.766"></path></g><linearGradient id="hair5XMLID_540_" gradientUnits="userSpaceOnUse" x1="189.769" y1="309.5" x2="189.769" y2="125.5"><stop offset="0" style="stop-color:#FCFCE4"></stop><stop offset="0.5" style="stop-color:#A0C8DD"></stop><stop offset="1" style="stop-color:#5D6EC5"></stop></linearGradient><path style="fill:url(#hair5XMLID_540_);stroke:#1E1E1E;stroke-linecap:round;stroke-linejoin:round;" d="M169.501,208.4c1.675,23.114,13.065,45.225,40.535,47.569c-18.425-12.396-25.161-49.915-25.161-49.915L169.501,208.4z"></path></g></g></g></svg>