<svg xmlns="http://www.w3.org/2000/svg" width="500" height="500" version="1.1"><g id="x064"><g><g><linearGradient id="hair5XMLID_541_" gradientUnits="userSpaceOnUse" x1="298.25" y1="309.5" x2="298.25" y2="125.5004"><stop offset="0" style="stop-color:#FCFCE4"></stop><stop offset="0.5" style="stop-color:#A0C8DD"></stop><stop offset="1" style="stop-color:#5D6EC5"></stop></linearGradient><path style="fill:url(#hair5XMLID_541_);stroke:#1E1E1E;stroke-linecap:round;stroke-linejoin:round;" d="M315.019,187.949c2.681,19.431,4.021,70.351-4.689,85.09c-8.71,14.74-19.431,15.41-30.82,32.16c-0.67-14.74,5.36-36.18,18.76-48.91c4.021-12.729,12.061-30.149,12.061-33.5L315.019,187.949z"></path><linearGradient id="hair5XMLID_542_" gradientUnits="userSpaceOnUse" x1="286.5986" y1="309.5" x2="286.5986" y2="125.5002"><stop offset="0" style="stop-color:#FCFCE4"></stop><stop offset="0.5" style="stop-color:#A0C8DD"></stop><stop offset="1" style="stop-color:#5D6EC5"></stop></linearGradient><path style="fill:url(#hair5XMLID_542_);stroke:#1E1E1E;stroke-linecap:round;stroke-linejoin:round;" d="M290.898,284.43c0,0-6.029,22.109-6.029,32.16c-3.351-11.391-4.69-35.51,4.02-48.24"></path></g><g><linearGradient id="hair5XMLID_543_" gradientUnits="userSpaceOnUse" x1="201.75" y1="309.5" x2="201.75" y2="125.5004"><stop offset="0" style="stop-color:#FCFCE4"></stop><stop offset="0.5" style="stop-color:#A0C8DD"></stop><stop offset="1" style="stop-color:#5D6EC5"></stop></linearGradient><path style="fill:url(#hair5XMLID_543_);stroke:#1E1E1E;stroke-linecap:round;stroke-linejoin:round;" d="M184.981,187.949c-2.681,19.431-4.021,70.351,4.689,85.09c8.71,14.74,19.431,15.41,30.82,32.16c0.67-14.74-5.36-36.18-18.76-48.91c-4.021-12.729-12.061-30.149-12.061-33.5L184.981,187.949z"></path><linearGradient id="hair5XMLID_544_" gradientUnits="userSpaceOnUse" x1="213.4014" y1="309.5" x2="213.4014" y2="125.5002"><stop offset="0" style="stop-color:#FCFCE4"></stop><stop offset="0.5" style="stop-color:#A0C8DD"></stop><stop offset="1" style="stop-color:#5D6EC5"></stop></linearGradient><path style="fill:url(#hair5XMLID_544_);stroke:#1E1E1E;stroke-linecap:round;stroke-linejoin:round;" d="M209.102,284.43c0,0,6.029,22.109,6.029,32.16c3.351-11.391,4.69-35.51-4.02-48.24"></path></g></g></g></svg>