<svg xmlns="http://www.w3.org/2000/svg" width="500" height="500" version="1.1"><g id="x066"><g><g><linearGradient id="hair5XMLID_547_" gradientUnits="userSpaceOnUse" x1="321.3457" y1="309.5" x2="321.3457" y2="125.5001"><stop offset="0" style="stop-color:#FCFCE4"></stop><stop offset="0.5" style="stop-color:#A0C8DD"></stop><stop offset="1" style="stop-color:#5D6EC5"></stop></linearGradient><path style="fill:url(#hair5XMLID_547_);stroke:#1E1E1E;stroke-linecap:round;stroke-linejoin:round;" d="M315.153,207.611c-0.287,12.313-4.97,26.184-4.97,26.184s2.447,33.661,3.34,29.195c0.22-1.096,12.061-8.487,17.991-22.867c2.93-7.105-1.552-31.453-1.552-31.453L315.153,207.611z"></path><g><linearGradient id="hair5XMLID_548_" gradientUnits="userSpaceOnUse" x1="300.8408" y1="309.5" x2="300.8408" y2="125.4998"><stop offset="0" style="stop-color:#FCFCE4"></stop><stop offset="0.5" style="stop-color:#A0C8DD"></stop><stop offset="1" style="stop-color:#5D6EC5"></stop></linearGradient><path style="fill:url(#hair5XMLID_548_);stroke:#1E1E1E;stroke-linecap:round;stroke-linejoin:round;" d="M292.203,281.414c-2.757,3.043-8.062,13.367-1.733,23.795c0.231-6.092,2.741-8.574,2.741-8.574s2.128,13.393,6.701,17.611c5.923-5.664,17.719-17.08,13.316-26c-5.34-10.814-11.964-13.539-11.964-13.539S296.129,277.084,292.203,281.414z"></path><path style="fill:none;stroke:#1E1E1E;stroke-linecap:round;stroke-linejoin:round;" d="M297.163,286.76c0,0,4.196-5.572,10.054-9.215"></path><g><linearGradient id="hair5XMLID_549_" gradientUnits="userSpaceOnUse" x1="305.6133" y1="309.5" x2="305.6133" y2="125.5"><stop offset="0" style="stop-color:#FCFCE4"></stop><stop offset="0.5" style="stop-color:#A0C8DD"></stop><stop offset="1" style="stop-color:#5D6EC5"></stop></linearGradient><path style="fill:url(#hair5XMLID_549_);stroke:#1E1E1E;stroke-linecap:round;stroke-linejoin:round;" d="M315.409,253.215c0,0,5.036,6.906,4.331,10.742s-14.822,16.83-18.157,17.219c-2.53-1.439-10.029-12.922-10.16-15.598c-0.133-2.677,3.855-12.488,3.855-12.488L315.409,253.215z"></path><path style="fill:none;stroke:#1E1E1E;stroke-linecap:round;stroke-linejoin:round;" d="M299.937,274.996c0,0,1.065-10.115,5.754-14.818"></path><linearGradient id="hair5XMLID_550_" gradientUnits="userSpaceOnUse" x1="307.7227" y1="309.5" x2="307.7227" y2="125.4999"><stop offset="0" style="stop-color:#FCFCE4"></stop><stop offset="0.5" style="stop-color:#A0C8DD"></stop><stop offset="1" style="stop-color:#5D6EC5"></stop></linearGradient><path style="fill:url(#hair5XMLID_550_);stroke:#1E1E1E;stroke-linecap:round;stroke-linejoin:round;" d="M296.028,250.146c-1.265,6.1,5.824,13.799,6.737,14.201c1.575-4.326,9.385-9.184,11.327-10.621c1.941-1.438,5.817-9.007,5.45-11.896c-0.364-2.89-7.362-13.276-8.031-13.244C303.087,234.592,297.293,244.047,296.028,250.146z"></path></g></g></g><g><linearGradient id="hair5XMLID_551_" gradientUnits="userSpaceOnUse" x1="178.6538" y1="309.5" x2="178.6538" y2="125.5001"><stop offset="0" style="stop-color:#FCFCE4"></stop><stop offset="0.5" style="stop-color:#A0C8DD"></stop><stop offset="1" style="stop-color:#5D6EC5"></stop></linearGradient><path style="fill:url(#hair5XMLID_551_);stroke:#1E1E1E;stroke-linecap:round;stroke-linejoin:round;" d="M184.847,207.611c0.287,12.313,4.97,26.184,4.97,26.184s-2.447,33.661-3.34,29.195c-0.22-1.096-12.061-8.487-17.991-22.867c-2.93-7.105,1.552-31.453,1.552-31.453L184.847,207.611z"></path><g><linearGradient id="hair5XMLID_552_" gradientUnits="userSpaceOnUse" x1="199.1587" y1="309.5" x2="199.1587" y2="125.4998"><stop offset="0" style="stop-color:#FCFCE4"></stop><stop offset="0.5" style="stop-color:#A0C8DD"></stop><stop offset="1" style="stop-color:#5D6EC5"></stop></linearGradient><path style="fill:url(#hair5XMLID_552_);stroke:#1E1E1E;stroke-linecap:round;stroke-linejoin:round;" d="M207.797,281.414c2.757,3.043,8.062,13.367,1.733,23.795c-0.231-6.092-2.741-8.574-2.741-8.574s-2.128,13.393-6.701,17.611c-5.923-5.664-17.719-17.08-13.316-26c5.34-10.814,11.964-13.539,11.964-13.539S203.871,277.084,207.797,281.414z"></path><path style="fill:none;stroke:#1E1E1E;stroke-linecap:round;stroke-linejoin:round;" d="M202.837,286.76c0,0-4.196-5.572-10.054-9.215"></path><g><linearGradient id="hair5XMLID_553_" gradientUnits="userSpaceOnUse" x1="194.3862" y1="309.5" x2="194.3862" y2="125.5"><stop offset="0" style="stop-color:#FCFCE4"></stop><stop offset="0.5" style="stop-color:#A0C8DD"></stop><stop offset="1" style="stop-color:#5D6EC5"></stop></linearGradient><path style="fill:url(#hair5XMLID_553_);stroke:#1E1E1E;stroke-linecap:round;stroke-linejoin:round;" d="M184.591,253.215c0,0-5.036,6.906-4.331,10.742s14.822,16.83,18.157,17.219c2.53-1.439,10.029-12.922,10.16-15.598c0.133-2.677-3.855-12.488-3.855-12.488L184.591,253.215z"></path><path style="fill:none;stroke:#1E1E1E;stroke-linecap:round;stroke-linejoin:round;" d="M200.063,274.996c0,0-1.065-10.115-5.754-14.818"></path><linearGradient id="hair5XMLID_554_" gradientUnits="userSpaceOnUse" x1="192.2773" y1="309.5" x2="192.2773" y2="125.4999"><stop offset="0" style="stop-color:#FCFCE4"></stop><stop offset="0.5" style="stop-color:#A0C8DD"></stop><stop offset="1" style="stop-color:#5D6EC5"></stop></linearGradient><path style="fill:url(#hair5XMLID_554_);stroke:#1E1E1E;stroke-linecap:round;stroke-linejoin:round;" d="M203.972,250.146c1.265,6.1-5.824,13.799-6.737,14.201c-1.575-4.326-9.385-9.184-11.327-10.621c-1.941-1.438-5.817-9.007-5.45-11.896c0.364-2.89,7.362-13.276,8.031-13.244C196.913,234.592,202.707,244.047,203.972,250.146z"></path></g></g></g></g></g></svg>