<svg xmlns="http://www.w3.org/2000/svg" width="500" height="500" version="1.1"><g id="x067"><g><g><linearGradient id="hair5XMLID_555_" gradientUnits="userSpaceOnUse" x1="194.3091" y1="309.5" x2="194.3091" y2="125.4995"><stop offset="0" style="stop-color:#FCFCE4"></stop><stop offset="0.5" style="stop-color:#A0C8DD"></stop><stop offset="1" style="stop-color:#5D6EC5"></stop></linearGradient><path style="fill:url(#hair5XMLID_555_);stroke:#1E1E1E;stroke-linecap:round;stroke-linejoin:round;" d="M204.365,272.816c-13.623-17.196-15.41-43.996-15.41-43.996l-16.527-8.264c-0.893,1.117,3.798,39.753,14.07,49.133c2.059,1.879,3.948,3.516,5.665,4.947c2.659,4.992,5.193,9.35,7.064,12.695c7.37,13.178,5.808,27.023,1.787,34.395c7.37-3.797,10.72,0.893,10.05,11.613C219.552,315.025,217.988,290.014,204.365,272.816z"></path><linearGradient id="hair5XMLID_556_" gradientUnits="userSpaceOnUse" x1="189.7368" y1="309.5" x2="189.7368" y2="125.5"><stop offset="0" style="stop-color:#FCFCE4"></stop><stop offset="0.5" style="stop-color:#A0C8DD"></stop><stop offset="1" style="stop-color:#5D6EC5"></stop></linearGradient><path style="fill:url(#hair5XMLID_556_);stroke:#1E1E1E;stroke-linecap:round;stroke-linejoin:round;" d="M185.382,257.406c0,0,4.243,11.391,8.71,21.439"></path></g><g><linearGradient id="hair5XMLID_557_" gradientUnits="userSpaceOnUse" x1="306.6465" y1="309.5" x2="306.6465" y2="125.4995"><stop offset="0" style="stop-color:#FCFCE4"></stop><stop offset="0.5" style="stop-color:#A0C8DD"></stop><stop offset="1" style="stop-color:#5D6EC5"></stop></linearGradient><path style="fill:url(#hair5XMLID_557_);stroke:#1E1E1E;stroke-linecap:round;stroke-linejoin:round;" d="M296.591,272.816c13.624-17.196,15.41-43.996,15.41-43.996l16.526-8.264c0.894,1.117-3.796,39.753-14.07,49.133c-2.058,1.879-3.946,3.516-5.664,4.947c-2.659,4.992-5.193,9.35-7.065,12.695c-7.37,13.178-5.807,27.023-1.786,34.395c-7.37-3.797-10.72,0.893-10.05,11.613C281.404,315.025,282.968,290.014,296.591,272.816z"></path><linearGradient id="hair5XMLID_558_" gradientUnits="userSpaceOnUse" x1="311.2188" y1="309.5" x2="311.2188" y2="125.5"><stop offset="0" style="stop-color:#FCFCE4"></stop><stop offset="0.5" style="stop-color:#A0C8DD"></stop><stop offset="1" style="stop-color:#5D6EC5"></stop></linearGradient><path style="fill:url(#hair5XMLID_558_);stroke:#1E1E1E;stroke-linecap:round;stroke-linejoin:round;" d="M315.574,257.406c0,0-4.243,11.391-8.71,21.439"></path></g></g></g></svg>