<svg xmlns="http://www.w3.org/2000/svg" width="500" height="500" version="1.1"><g id="x068"><g><g><linearGradient id="hair5XMLID_559_" gradientUnits="userSpaceOnUse" x1="306.25" y1="309.5" x2="306.25" y2="125.4998"><stop offset="0" style="stop-color:#FCFCE4"></stop><stop offset="0.5" style="stop-color:#A0C8DD"></stop><stop offset="1" style="stop-color:#5D6EC5"></stop></linearGradient><path style="fill:url(#hair5XMLID_559_);stroke:#1E1E1E;stroke-linecap:round;stroke-linejoin:round;" d="M314.657,213.5c5.583,25.014,4.964,50.383,2.73,57.752c-2.234,7.371-7.816,10.498-10.721,12.73c-2.903,2.234-13.176,14.965-13.176,14.965s2.456-13.4,2.902-18.984c2.01-12.506,12.508-47.57,12.508-48.91L314.657,213.5z"></path><linearGradient id="hair5XMLID_560_" gradientUnits="userSpaceOnUse" x1="304.0986" y1="309.5" x2="304.0986" y2="125.5001"><stop offset="0" style="stop-color:#FCFCE4"></stop><stop offset="0.5" style="stop-color:#A0C8DD"></stop><stop offset="1" style="stop-color:#5D6EC5"></stop></linearGradient><path style="fill:url(#hair5XMLID_560_);stroke:#1E1E1E;stroke-linecap:round;stroke-linejoin:round;" d="M310.464,246.91c-0.223,1.116-3.351,19.877-12.73,30.596"></path></g><g><linearGradient id="hair5XMLID_561_" gradientUnits="userSpaceOnUse" x1="193.75" y1="309.5" x2="193.75" y2="125.4998"><stop offset="0" style="stop-color:#FCFCE4"></stop><stop offset="0.5" style="stop-color:#A0C8DD"></stop><stop offset="1" style="stop-color:#5D6EC5"></stop></linearGradient><path style="fill:url(#hair5XMLID_561_);stroke:#1E1E1E;stroke-linecap:round;stroke-linejoin:round;" d="M185.343,213.5c-5.583,25.014-4.964,50.383-2.73,57.752c2.234,7.371,7.816,10.498,10.721,12.73c2.903,2.234,13.176,14.965,13.176,14.965s-2.456-13.4-2.902-18.984c-2.01-12.506-12.508-47.57-12.508-48.91L185.343,213.5z"></path><linearGradient id="hair5XMLID_562_" gradientUnits="userSpaceOnUse" x1="195.9014" y1="309.5" x2="195.9014" y2="125.5001"><stop offset="0" style="stop-color:#FCFCE4"></stop><stop offset="0.5" style="stop-color:#A0C8DD"></stop><stop offset="1" style="stop-color:#5D6EC5"></stop></linearGradient><path style="fill:url(#hair5XMLID_562_);stroke:#1E1E1E;stroke-linecap:round;stroke-linejoin:round;" d="M189.536,246.91c0.223,1.116,3.351,19.877,12.73,30.596"></path></g></g></g></svg>