<svg xmlns="http://www.w3.org/2000/svg" width="500" height="500" version="1.1"><g id="x069"><g><g><linearGradient id="hair5XMLID_563_" gradientUnits="userSpaceOnUse" x1="314.9238" y1="309.5" x2="314.9238" y2="125.4997"><stop offset="0" style="stop-color:#FCFCE4"></stop><stop offset="0.5" style="stop-color:#A0C8DD"></stop><stop offset="1" style="stop-color:#5D6EC5"></stop></linearGradient><path style="fill:url(#hair5XMLID_563_);stroke:#1E1E1E;stroke-linecap:round;stroke-linejoin:round;" d="M303.947,265.457c-1.34,25.459,7.594,33.5,12.953,43.771c5.361,10.273-8.932,13.848-8.932,13.848s0.445,5.359,0.893,14.74c15.633-11.613,22.779-28.141,12.061-40.646c-10.721-12.508-4.914-81.74-4.914-81.74l-9.311,0.237l-0.834,11.167"></path><linearGradient id="hair5XMLID_564_" gradientUnits="userSpaceOnUse" x1="300.5352" y1="309.5" x2="300.5352" y2="125.4998"><stop offset="0" style="stop-color:#FCFCE4"></stop><stop offset="0.5" style="stop-color:#A0C8DD"></stop><stop offset="1" style="stop-color:#5D6EC5"></stop></linearGradient><path style="fill:url(#hair5XMLID_564_);stroke:#1E1E1E;stroke-linecap:round;stroke-linejoin:round;" d="M307.074,215.877c0,0-4.467,42.434-13.4,64.32c-8.934,21.885-12.506,43.771,2.68,59.852c-6.699-9.379-4.467-29.033,0-37.967c-3.125,10.721-1.785,18.762,3.127,30.375c4.914,11.613-5.807,22.334-10.273,24.119c18.314-3.127,28.141-15.186,25.461-28.141c-2.68-12.953-8.041-37.072-2.234-62.979"></path></g><g><linearGradient id="hair5XMLID_565_" gradientUnits="userSpaceOnUse" x1="185.0767" y1="309.5" x2="185.0766" y2="125.4997"><stop offset="0" style="stop-color:#FCFCE4"></stop><stop offset="0.5" style="stop-color:#A0C8DD"></stop><stop offset="1" style="stop-color:#5D6EC5"></stop></linearGradient><path style="fill:url(#hair5XMLID_565_);stroke:#1E1E1E;stroke-linecap:round;stroke-linejoin:round;" d="M196.052,265.457c1.34,25.459-7.593,33.5-12.953,43.771c-5.36,10.273,8.933,13.848,8.933,13.848s-0.445,5.359-0.893,14.74c-15.633-11.613-22.78-28.141-12.061-40.646c10.721-12.508,4.914-81.74,4.914-81.74l9.31,0.237l0.834,11.167"></path><linearGradient id="hair5XMLID_566_" gradientUnits="userSpaceOnUse" x1="199.4653" y1="309.5" x2="199.4653" y2="125.4998"><stop offset="0" style="stop-color:#FCFCE4"></stop><stop offset="0.5" style="stop-color:#A0C8DD"></stop><stop offset="1" style="stop-color:#5D6EC5"></stop></linearGradient><path style="fill:url(#hair5XMLID_566_);stroke:#1E1E1E;stroke-linecap:round;stroke-linejoin:round;" d="M192.926,215.877c0,0,4.467,42.434,13.399,64.32c8.934,21.885,12.507,43.771-2.68,59.852c6.7-9.379,4.467-29.033,0-37.967c3.126,10.721,1.786,18.762-3.127,30.375s5.807,22.334,10.273,24.119c-18.313-3.127-28.141-15.186-25.46-28.141c2.68-12.953,8.04-37.072,2.233-62.979"></path></g></g></g></svg>