<svg xmlns="http://www.w3.org/2000/svg" width="500" height="500" version="1.1"><g id="x007"><g><linearGradient id="hair5XMLID_328_" gradientUnits="userSpaceOnUse" x1="204.75" y1="309.5" x2="204.75" y2="125.5"><stop offset="0" style="stop-color:#FCFCE4"></stop><stop offset="0.5" style="stop-color:#A0C8DD"></stop><stop offset="1" style="stop-color:#5D6EC5"></stop></linearGradient><path style="fill:url(#hair5XMLID_328_);stroke:#1E1E1E;stroke-linecap:round;stroke-linejoin:round;" d="M205.924,136.432c-13.212,10.431-17.615,20.63-17.615,20.63c-38.478,72.78,31.987,155.301,31.987,170.135c0,14.832-14.372,6.953-14.372,6.953s14.834,18.078,24.107,0.924c11.64-21.535-18.081-53.771-29.67-89.469c-11.59-35.698,0.928-84.835,0.928-84.835L205.924,136.432z"></path><linearGradient id="hair5XMLID_329_" gradientUnits="userSpaceOnUse" x1="295.25" y1="309.5" x2="295.25" y2="125.5"><stop offset="0" style="stop-color:#FCFCE4"></stop><stop offset="0.5" style="stop-color:#A0C8DD"></stop><stop offset="1" style="stop-color:#5D6EC5"></stop></linearGradient><path style="fill:url(#hair5XMLID_329_);stroke:#1E1E1E;stroke-linecap:round;stroke-linejoin:round;" d="M294.076,136.432c13.213,10.431,17.615,20.63,17.615,20.63c38.479,72.78-31.986,155.301-31.986,170.135c0,14.832,14.371,6.953,14.371,6.953s-14.834,18.078-24.107,0.924c-11.639-21.535,18.082-53.771,29.67-89.469c11.59-35.698-0.928-84.835-0.928-84.835L294.076,136.432z"></path></g></g></svg>