<svg xmlns="http://www.w3.org/2000/svg" width="500" height="500" version="1.1"><g id="x071"><g><linearGradient id="hair5XMLID_569_" gradientUnits="userSpaceOnUse" x1="189.2505" y1="309.5" x2="189.2505" y2="125.5004"><stop offset="0" style="stop-color:#FCFCE4"></stop><stop offset="0.5" style="stop-color:#A0C8DD"></stop><stop offset="1" style="stop-color:#5D6EC5"></stop></linearGradient><path style="fill:url(#hair5XMLID_569_);stroke:#1E1E1E;stroke-linecap:round;stroke-linejoin:round;" d="M192.333,236.525c0,0,2.681,41.539,12.73,51.254c-10.05-0.67-16.75-7.369-17.755-21.439c0,0-3.351,14.404,4.689,21.105c-11.39-3.352-25.46-30.82-14.74-76.716c0,0,2.479-10.229,6.979-16.729C184.737,204,192.333,236.525,192.333,236.525z"></path><linearGradient id="hair5XMLID_570_" gradientUnits="userSpaceOnUse" x1="310.75" y1="309.5" x2="310.75" y2="125.5004"><stop offset="0" style="stop-color:#FCFCE4"></stop><stop offset="0.5" style="stop-color:#A0C8DD"></stop><stop offset="1" style="stop-color:#5D6EC5"></stop></linearGradient><path style="fill:url(#hair5XMLID_570_);stroke:#1E1E1E;stroke-linecap:round;stroke-linejoin:round;" d="M307.667,236.525c0,0-2.681,41.539-12.73,51.254c10.05-0.67,16.75-7.369,17.755-21.439c0,0,3.351,14.404-4.689,21.105c11.39-3.352,25.46-30.82,14.74-76.716c0,0-2.479-10.229-6.979-16.729C315.263,204,307.667,236.525,307.667,236.525z"></path></g></g></svg>