<svg xmlns="http://www.w3.org/2000/svg" width="500" height="500" version="1.1"><g id="x072"><g><g><g><g><g><linearGradient id="hair5XMLID_571_" gradientUnits="userSpaceOnUse" x1="315.6113" y1="309.5" x2="315.6113" y2="125.5"><stop offset="0" style="stop-color:#FCFCE4"></stop><stop offset="0.5" style="stop-color:#A0C8DD"></stop><stop offset="1" style="stop-color:#5D6EC5"></stop></linearGradient><path style="fill:url(#hair5XMLID_571_);stroke:#1E1E1E;stroke-linecap:round;stroke-linejoin:round;" d="M323.961,228.55c0,0,2.785,12.124,0.954,15.639c-1.831,3.514-5.354,6.504-5.354,6.504l-11.228-4.198c0,0-3.408-5.486-2.491-11.968c0.33-2.338,1.242-5.031,2.273-7.518C313.752,224,323.298,222.517,323.961,228.55z"></path><linearGradient id="hair5XMLID_572_" gradientUnits="userSpaceOnUse" x1="314.6348" y1="309.5" x2="314.6348" y2="125.5001"><stop offset="0" style="stop-color:#FCFCE4"></stop><stop offset="0.5" style="stop-color:#A0C8DD"></stop><stop offset="1" style="stop-color:#5D6EC5"></stop></linearGradient><path style="fill:url(#hair5XMLID_572_);stroke:#1E1E1E;stroke-linecap:round;stroke-linejoin:round;" d="M307.532,244.5c0,0-2.47,4.234-3.179,10.541c-0.709,6.306,2.175,13.484,2.175,13.484l11.909,0.59c0,0,6.265-5.852,6.563-9.49c0.44-5.369-4.23-11.918-4.23-11.918"></path><linearGradient id="hair5XMLID_573_" gradientUnits="userSpaceOnUse" x1="312.8418" y1="309.5" x2="312.8418" y2="125.5"><stop offset="0" style="stop-color:#FCFCE4"></stop><stop offset="0.5" style="stop-color:#A0C8DD"></stop><stop offset="1" style="stop-color:#5D6EC5"></stop></linearGradient><path style="fill:url(#hair5XMLID_573_);stroke:#1E1E1E;stroke-linecap:round;stroke-linejoin:round;" d="M305.208,266.003c0,0-2.301,3.083-3.01,9.39s7.456,12.935,7.456,12.935l6.436,0.751c0,0,7.106-7.424,7.404-11.063c0.439-5.367-3.526-11.089-3.526-11.089"></path></g><path style="fill:none;stroke:#1E1E1E;stroke-linecap:round;stroke-linejoin:round;" d="M308.144,243.836c0,0,6.886,3.477,8.101,10.523"></path><path style="fill:none;stroke:#1E1E1E;stroke-linecap:round;stroke-linejoin:round;" d="M316.376,255.49c0,0,2.734,4.93-1.006,9.553"></path><path style="fill:none;stroke:#1E1E1E;stroke-linecap:round;stroke-linejoin:round;" d="M318.173,266.393c0,0-1.056,1.931-2.908,2.674"></path><path style="fill:none;stroke:#1E1E1E;stroke-linecap:round;stroke-linejoin:round;" d="M305.222,263.092c0,0,7.536,2.94,10.383,10.038c1.288,3.213,0,7.156-0.559,12.278"></path></g><linearGradient id="hair5XMLID_574_" gradientUnits="userSpaceOnUse" x1="312.0938" y1="309.5" x2="312.0938" y2="125.5001"><stop offset="0" style="stop-color:#FCFCE4"></stop><stop offset="0.5" style="stop-color:#A0C8DD"></stop><stop offset="1" style="stop-color:#5D6EC5"></stop></linearGradient><path style="fill:url(#hair5XMLID_574_);stroke:#1E1E1E;stroke-linecap:round;stroke-linejoin:round;" d="M318.083,294.844c0,0,5.796,5.854,3.676,15.314c-2.119,9.462-11.351,12.739-11.351,12.739s3.275-4.438,3.604-8.443c-0.131-1.132-0.974,6.418-11.34,7.137c3.995-7.738,3.79-7.979,1.094-13.354c-2.696-5.376-2.913-13.684,3.148-16.548C312.942,291.958,318.083,294.844,318.083,294.844z"></path><linearGradient id="hair5XMLID_575_" gradientUnits="userSpaceOnUse" x1="312.1865" y1="309.5" x2="312.1865" y2="125.5006"><stop offset="0" style="stop-color:#FCFCE4"></stop><stop offset="0.5" style="stop-color:#A0C8DD"></stop><stop offset="1" style="stop-color:#5D6EC5"></stop></linearGradient><path style="fill:url(#hair5XMLID_575_);stroke:#1E1E1E;stroke-linecap:round;stroke-linejoin:round;" d="M317.459,286.055l1.971,3.297c0,0-1.314,2.357-1.164,3.268c0.149,0.907-0.273,3.338-0.273,3.338s-6.265,2.625-12.538-0.129c0.941-3.286,0.846-4.861,0.846-4.861l-1.356-2.576l2.98-3.565C307.924,284.825,314.996,288.765,317.459,286.055z"></path></g></g><g><g><g><g><linearGradient id="hair5XMLID_576_" gradientUnits="userSpaceOnUse" x1="184.3882" y1="309.5" x2="184.3882" y2="125.5"><stop offset="0" style="stop-color:#FCFCE4"></stop><stop offset="0.5" style="stop-color:#A0C8DD"></stop><stop offset="1" style="stop-color:#5D6EC5"></stop></linearGradient><path style="fill:url(#hair5XMLID_576_);stroke:#1E1E1E;stroke-linecap:round;stroke-linejoin:round;" d="M176.039,228.55c0,0-2.785,12.124-0.954,15.639c1.831,3.514,5.354,6.504,5.354,6.504l11.228-4.198c0,0,3.408-5.486,2.491-11.968c-0.33-2.338-1.242-5.031-2.273-7.518C186.248,224,176.702,222.517,176.039,228.55z"></path><linearGradient id="hair5XMLID_577_" gradientUnits="userSpaceOnUse" x1="185.3647" y1="309.5" x2="185.3647" y2="125.5001"><stop offset="0" style="stop-color:#FCFCE4"></stop><stop offset="0.5" style="stop-color:#A0C8DD"></stop><stop offset="1" style="stop-color:#5D6EC5"></stop></linearGradient><path style="fill:url(#hair5XMLID_577_);stroke:#1E1E1E;stroke-linecap:round;stroke-linejoin:round;" d="M192.468,244.5c0,0,2.47,4.234,3.179,10.541c0.709,6.306-2.175,13.484-2.175,13.484l-11.909,0.59c0,0-6.265-5.852-6.563-9.49c-0.44-5.369,4.23-11.918,4.23-11.918"></path><linearGradient id="hair5XMLID_578_" gradientUnits="userSpaceOnUse" x1="187.1587" y1="309.5" x2="187.1587" y2="125.5"><stop offset="0" style="stop-color:#FCFCE4"></stop><stop offset="0.5" style="stop-color:#A0C8DD"></stop><stop offset="1" style="stop-color:#5D6EC5"></stop></linearGradient><path style="fill:url(#hair5XMLID_578_);stroke:#1E1E1E;stroke-linecap:round;stroke-linejoin:round;" d="M194.792,266.003c0,0,2.301,3.083,3.01,9.39s-7.456,12.935-7.456,12.935l-6.436,0.751c0,0-7.106-7.424-7.404-11.063c-0.439-5.367,3.526-11.089,3.526-11.089"></path></g><path style="fill:none;stroke:#1E1E1E;stroke-linecap:round;stroke-linejoin:round;" d="M191.856,243.836c0,0-6.886,3.477-8.101,10.523"></path><path style="fill:none;stroke:#1E1E1E;stroke-linecap:round;stroke-linejoin:round;" d="M183.624,255.49c0,0-2.734,4.93,1.006,9.553"></path><path style="fill:none;stroke:#1E1E1E;stroke-linecap:round;stroke-linejoin:round;" d="M181.827,266.393c0,0,1.056,1.931,2.908,2.674"></path><path style="fill:none;stroke:#1E1E1E;stroke-linecap:round;stroke-linejoin:round;" d="M194.778,263.092c0,0-7.536,2.94-10.383,10.038c-1.288,3.213,0,7.156,0.559,12.278"></path></g><linearGradient id="hair5XMLID_579_" gradientUnits="userSpaceOnUse" x1="187.9067" y1="309.5" x2="187.9067" y2="125.5001"><stop offset="0" style="stop-color:#FCFCE4"></stop><stop offset="0.5" style="stop-color:#A0C8DD"></stop><stop offset="1" style="stop-color:#5D6EC5"></stop></linearGradient><path style="fill:url(#hair5XMLID_579_);stroke:#1E1E1E;stroke-linecap:round;stroke-linejoin:round;" d="M181.917,294.844c0,0-5.796,5.854-3.676,15.314c2.119,9.462,11.351,12.739,11.351,12.739s-3.275-4.438-3.604-8.443c0.131-1.132,0.974,6.418,11.34,7.137c-3.995-7.738-3.79-7.979-1.094-13.354c2.696-5.376,2.913-13.684-3.148-16.548C187.058,291.958,181.917,294.844,181.917,294.844z"></path><linearGradient id="hair5XMLID_580_" gradientUnits="userSpaceOnUse" x1="187.8135" y1="309.5" x2="187.8135" y2="125.5006"><stop offset="0" style="stop-color:#FCFCE4"></stop><stop offset="0.5" style="stop-color:#A0C8DD"></stop><stop offset="1" style="stop-color:#5D6EC5"></stop></linearGradient><path style="fill:url(#hair5XMLID_580_);stroke:#1E1E1E;stroke-linecap:round;stroke-linejoin:round;" d="M182.541,286.055l-1.971,3.297c0,0,1.314,2.357,1.164,3.268c-0.149,0.907,0.273,3.338,0.273,3.338s6.265,2.625,12.538-0.129c-0.941-3.286-0.846-4.861-0.846-4.861l1.356-2.576l-2.98-3.565C192.076,284.825,185.004,288.765,182.541,286.055z"></path></g></g></g></g></svg>