<svg xmlns="http://www.w3.org/2000/svg" width="500" height="500" version="1.1"><g id="x073"><g><g><g><g><linearGradient id="hair5XMLID_581_" gradientUnits="userSpaceOnUse" x1="315.6914" y1="309.5" x2="315.6914" y2="125.5003"><stop offset="0" style="stop-color:#FCFCE4"></stop><stop offset="0.5" style="stop-color:#A0C8DD"></stop><stop offset="1" style="stop-color:#5D6EC5"></stop></linearGradient><path style="fill:url(#hair5XMLID_581_);stroke:#1E1E1E;stroke-linecap:round;stroke-linejoin:round;" d="M308.956,147.876c0,0,20.637,37.295,25.238,76.417c3.166,12.158,19.163,81.818-25.619,96.891c7.449-8.74,11.115-24.879,12.885-37.006c-7.936,14.225-21.26,9.758-21.26,9.758s-5.711,4.02-8.375,12.953c1.142-11.613,2.664-34.393,14.846-46.006c12.183-12.06,11.42-50.473,1.523-78.166"></path><path style="fill:none;stroke:#1E1E1E;stroke-linecap:round;stroke-linejoin:round;" d="M312.382,284.557c0,0-11.42,5.807-14.847,11.613"></path></g><path style="fill:none;stroke:#1E1E1E;stroke-linecap:round;stroke-linejoin:round;" d="M327.228,253.289c0,0,1.523,32.16-13.703,39.307"></path></g><linearGradient id="hair5XMLID_582_" gradientUnits="userSpaceOnUse" x1="304.207" y1="309.5" x2="304.207" y2="125.4998"><stop offset="0" style="stop-color:#FCFCE4"></stop><stop offset="0.5" style="stop-color:#A0C8DD"></stop><stop offset="1" style="stop-color:#5D6EC5"></stop></linearGradient><path style="fill:url(#hair5XMLID_582_);stroke:#1E1E1E;stroke-linecap:round;stroke-linejoin:round;" d="M321.549,214.872c8.726,62.538-25.155,52.04-35.814,79.063c-1.522-16.973,2.665-22.332,18.844-47.793c10.479-16.492,5.52-46.899-0.737-66.157c0,0,0.163-25.732,5.115-32.109"></path></g><g><g><g><linearGradient id="hair5XMLID_583_" gradientUnits="userSpaceOnUse" x1="184.3091" y1="309.5" x2="184.3091" y2="125.5003"><stop offset="0" style="stop-color:#FCFCE4"></stop><stop offset="0.5" style="stop-color:#A0C8DD"></stop><stop offset="1" style="stop-color:#5D6EC5"></stop></linearGradient><path style="fill:url(#hair5XMLID_583_);stroke:#1E1E1E;stroke-linecap:round;stroke-linejoin:round;" d="M191.044,147.876c0,0-20.637,37.295-25.238,76.417c-3.166,12.158-19.163,81.818,25.619,96.891c-7.449-8.74-11.115-24.879-12.885-37.006c7.936,14.225,21.26,9.758,21.26,9.758s5.711,4.02,8.375,12.953c-1.142-11.613-2.664-34.393-14.846-46.006c-12.183-12.06-11.42-50.473-1.523-78.166"></path><path style="fill:none;stroke:#1E1E1E;stroke-linecap:round;stroke-linejoin:round;" d="M187.618,284.557c0,0,11.42,5.807,14.847,11.613"></path></g><path style="fill:none;stroke:#1E1E1E;stroke-linecap:round;stroke-linejoin:round;" d="M172.772,253.289c0,0-1.523,32.16,13.703,39.307"></path></g><linearGradient id="hair5XMLID_584_" gradientUnits="userSpaceOnUse" x1="195.7935" y1="309.5" x2="195.7934" y2="125.4998"><stop offset="0" style="stop-color:#FCFCE4"></stop><stop offset="0.5" style="stop-color:#A0C8DD"></stop><stop offset="1" style="stop-color:#5D6EC5"></stop></linearGradient><path style="fill:url(#hair5XMLID_584_);stroke:#1E1E1E;stroke-linecap:round;stroke-linejoin:round;" d="M178.451,214.872c-8.726,62.538,25.155,52.04,35.814,79.063c1.522-16.973-2.665-22.332-18.844-47.793c-10.479-16.492-5.52-46.899,0.737-66.157c0,0-0.163-25.732-5.115-32.109"></path></g></g></g></svg>