<svg xmlns="http://www.w3.org/2000/svg" width="500" height="500" version="1.1"><g id="x074"><g><linearGradient id="hair5XMLID_585_" gradientUnits="userSpaceOnUse" x1="191.1416" y1="309.5" x2="191.1416" y2="125.4999"><stop offset="0" style="stop-color:#FCFCE4"></stop><stop offset="0.5" style="stop-color:#A0C8DD"></stop><stop offset="1" style="stop-color:#5D6EC5"></stop></linearGradient><path style="fill:url(#hair5XMLID_585_);stroke:#1E1E1E;stroke-linecap:round;stroke-linejoin:round;" d="M196.639,175.374c-5.482,10.818-8.935,24.931-7.015,42.949c1.34,16.08,5.807,18.76,5.807,28.14c0,9.381-0.446,17.867,0,25.461c0.447,7.592,1.341,18.758,12.061,28.586c-16.08-13.4-18.761-22.781-20.993-36.18c-2.234-13.4,0.893-23.227-1.34-25.461c-1.142-1.141-9.988-20.379-10.366-42.434L196.639,175.374z"></path><linearGradient id="hair5XMLID_586_" gradientUnits="userSpaceOnUse" x1="309.2666" y1="309.5" x2="309.2666" y2="125.4999"><stop offset="0" style="stop-color:#FCFCE4"></stop><stop offset="0.5" style="stop-color:#A0C8DD"></stop><stop offset="1" style="stop-color:#5D6EC5"></stop></linearGradient><path style="fill:url(#hair5XMLID_586_);stroke:#1E1E1E;stroke-linecap:round;stroke-linejoin:round;" d="M325.616,196.436c-0.377,22.055-9.225,41.293-10.366,42.434c-2.233,2.234,0.893,12.061-1.34,25.461c-2.233,13.398-4.913,22.779-20.993,36.18c10.72-9.828,11.613-20.994,12.06-28.586c0.446-7.594,0-16.08,0-25.461c0-9.38,4.467-12.06,5.807-28.14c1.921-18.019-1.531-32.131-7.013-42.949L325.616,196.436z"></path></g></g></svg>