<svg xmlns="http://www.w3.org/2000/svg" width="500" height="500" version="1.1"><g id="x075"><g><g><linearGradient id="hair5XMLID_587_" gradientUnits="userSpaceOnUse" x1="318.4922" y1="309.5" x2="318.4922" y2="125.4999"><stop offset="0" style="stop-color:#FCFCE4"></stop><stop offset="0.5" style="stop-color:#A0C8DD"></stop><stop offset="1" style="stop-color:#5D6EC5"></stop></linearGradient><path style="fill:url(#hair5XMLID_587_);stroke:#1E1E1E;stroke-linecap:round;stroke-linejoin:round;" d="M312.029,235.743c-0.446,1.786-7.146,30.373,1.786,39.306c8.934,8.934,16.08-2.68,13.4-10.272c-3.127,3.573-8.486,8.04-9.826-4.021c-1.34-12.059,10.316-35.256-1.184-48.756"></path><linearGradient id="hair5XMLID_588_" gradientUnits="userSpaceOnUse" x1="307.7021" y1="309.5" x2="307.7021" y2="125.5003"><stop offset="0" style="stop-color:#FCFCE4"></stop><stop offset="0.5" style="stop-color:#A0C8DD"></stop><stop offset="1" style="stop-color:#5D6EC5"></stop></linearGradient><path style="fill:url(#hair5XMLID_588_);stroke:#1E1E1E;stroke-linecap:round;stroke-linejoin:round;" d="M315.206,204.5c2.233,25.461,4.948,62.51-16.492,76.803c16.526-25.459,10.274-56.727,10.274-56.727L315.206,204.5z"></path></g><g><linearGradient id="hair5XMLID_589_" gradientUnits="userSpaceOnUse" x1="181.5073" y1="309.5" x2="181.5073" y2="125.4999"><stop offset="0" style="stop-color:#FCFCE4"></stop><stop offset="0.5" style="stop-color:#A0C8DD"></stop><stop offset="1" style="stop-color:#5D6EC5"></stop></linearGradient><path style="fill:url(#hair5XMLID_589_);stroke:#1E1E1E;stroke-linecap:round;stroke-linejoin:round;" d="M187.971,235.743c0.446,1.786,7.146,30.373-1.786,39.306c-8.934,8.934-16.08-2.68-13.4-10.272c3.127,3.573,8.486,8.04,9.826-4.021c1.34-12.059-10.316-35.256,1.184-48.756"></path><linearGradient id="hair5XMLID_590_" gradientUnits="userSpaceOnUse" x1="192.2974" y1="309.5" x2="192.2973" y2="125.5003"><stop offset="0" style="stop-color:#FCFCE4"></stop><stop offset="0.5" style="stop-color:#A0C8DD"></stop><stop offset="1" style="stop-color:#5D6EC5"></stop></linearGradient><path style="fill:url(#hair5XMLID_590_);stroke:#1E1E1E;stroke-linecap:round;stroke-linejoin:round;" d="M184.794,204.5c-2.233,25.461-4.948,62.51,16.492,76.803c-16.526-25.459-10.274-56.727-10.274-56.727L184.794,204.5z"></path></g></g></g></svg>