<svg xmlns="http://www.w3.org/2000/svg" width="500" height="500" version="1.1"><g id="x076"><g><g><linearGradient id="hair5XMLID_591_" gradientUnits="userSpaceOnUse" x1="181.9956" y1="309.5" x2="181.9956" y2="125.5008"><stop offset="0" style="stop-color:#FCFCE4"></stop><stop offset="0.5" style="stop-color:#A0C8DD"></stop><stop offset="1" style="stop-color:#5D6EC5"></stop></linearGradient><path style="fill:url(#hair5XMLID_591_);stroke:#1E1E1E;stroke-linecap:round;stroke-linejoin:round;" d="M189.464,231.891c-1.751,0.105-17.014-6.736-19.479-5.875c-0.005,3.848,1.966,10.779,2.136,12.811c1.014,1.839,15.641,4.992,21.737,4.482C194.964,240.393,189.464,231.891,189.464,231.891z"></path><linearGradient id="hair5XMLID_592_" gradientUnits="userSpaceOnUse" x1="185.939" y1="309.5" x2="185.9389" y2="125.5006"><stop offset="0" style="stop-color:#FCFCE4"></stop><stop offset="0.5" style="stop-color:#A0C8DD"></stop><stop offset="1" style="stop-color:#5D6EC5"></stop></linearGradient><path style="fill:url(#hair5XMLID_592_);stroke:#1E1E1E;stroke-linecap:round;stroke-linejoin:round;" d="M193.628,269.395c0,0-7.336,6.713-9.262,8.633c-2.782-4.391-6.116-16.348-6.116-16.348S190.652,264.16,193.628,269.395z"></path><linearGradient id="hair5XMLID_593_" gradientUnits="userSpaceOnUse" x1="185.7803" y1="309.5" x2="185.7803" y2="125.5"><stop offset="0" style="stop-color:#FCFCE4"></stop><stop offset="0.5" style="stop-color:#A0C8DD"></stop><stop offset="1" style="stop-color:#5D6EC5"></stop></linearGradient><path style="fill:url(#hair5XMLID_593_);stroke:#1E1E1E;stroke-linecap:round;stroke-linejoin:round;" d="M176.329,253.41c0,4.902-2.449,7.682-1.998,9.649c1.944,0.737,14.58,9.899,20.741,9.671c3.267-2.525-1.442-6.344,2.213-10.201C195.648,260.331,178.204,253.828,176.329,253.41z"></path><linearGradient id="hair5XMLID_594_" gradientUnits="userSpaceOnUse" x1="184.9175" y1="309.5" x2="184.9175" y2="125.5003"><stop offset="0" style="stop-color:#FCFCE4"></stop><stop offset="0.5" style="stop-color:#A0C8DD"></stop><stop offset="1" style="stop-color:#5D6EC5"></stop></linearGradient><path style="fill:url(#hair5XMLID_594_);stroke:#1E1E1E;stroke-linecap:round;stroke-linejoin:round;" d="M174.021,240.146c0.08,4.068-0.49,8.369,0.054,9.734c0.544,1.367,17.116,8.581,21.191,8.419c2.083-3.022-1.06-4.89-0.02-9.673C194.367,247.03,175.961,239.249,174.021,240.146z"></path><linearGradient id="hair5XMLID_595_" gradientUnits="userSpaceOnUse" x1="178.6226" y1="309.5" x2="178.6225" y2="125.5005"><stop offset="0" style="stop-color:#FCFCE4"></stop><stop offset="0.5" style="stop-color:#A0C8DD"></stop><stop offset="1" style="stop-color:#5D6EC5"></stop></linearGradient><path style="fill:url(#hair5XMLID_595_);stroke:#1E1E1E;stroke-linecap:round;stroke-linejoin:round;" d="M186.447,289.68c0,0-13.158-3.195-17.351-3.416c-0.23-6.16,1.696-8.082,1.696-8.082s12.385-0.178,17.374,2.229C187.189,283.889,186.447,289.68,186.447,289.68z"></path><linearGradient id="hair5XMLID_596_" gradientUnits="userSpaceOnUse" x1="182.1523" y1="309.5" x2="182.1523" y2="125.5"><stop offset="0" style="stop-color:#FCFCE4"></stop><stop offset="0.5" style="stop-color:#A0C8DD"></stop><stop offset="1" style="stop-color:#5D6EC5"></stop></linearGradient><path style="fill:url(#hair5XMLID_596_);stroke:#1E1E1E;stroke-linecap:round;stroke-linejoin:round;" d="M172.94,272.068c0,0,1.065-4.385,4.742-6.412c1.405-0.322,10.928,6.369,13.682,15.795c-1.147,1.447-4.314,9.57-5.761,8.422C184.157,288.727,181.468,279.58,172.94,272.068z"></path><linearGradient id="hair5XMLID_597_" gradientUnits="userSpaceOnUse" x1="166.7036" y1="309.5" x2="166.7036" y2="125.5001"><stop offset="0" style="stop-color:#FCFCE4"></stop><stop offset="0.5" style="stop-color:#A0C8DD"></stop><stop offset="1" style="stop-color:#5D6EC5"></stop></linearGradient><path style="fill:url(#hair5XMLID_597_);stroke:#1E1E1E;stroke-linecap:round;stroke-linejoin:round;" d="M177.192,308.666c0,0-8.017-1.416-8.614-6.604c0.368-0.973,6.528-1.201,7.911-0.334c0,0-4.335-7.291-8.744-7.168c-4.409,0.125-7.442,4.961-7.488,7.34c-0.035,1.811,1.757,7.834,5.47,9.947c-3.908,2.285-9.38-1.846-9.38-1.846s-1.675,7.369,6.923,9.715C169.185,321.33,177.192,308.666,177.192,308.666C175.006,309.885,177.192,308.666,177.192,308.666z"></path><path style="fill:none;stroke:#1E1E1E;stroke-linecap:round;stroke-linejoin:round;" d="M162.712,313.643c0,0,4.913-1.23,7.035-3.127"></path><linearGradient id="hair5XMLID_598_" gradientUnits="userSpaceOnUse" x1="174.7261" y1="309.5" x2="174.7261" y2="125.5"><stop offset="0" style="stop-color:#FCFCE4"></stop><stop offset="0.5" style="stop-color:#A0C8DD"></stop><stop offset="1" style="stop-color:#5D6EC5"></stop></linearGradient><path style="fill:url(#hair5XMLID_598_);stroke:#1E1E1E;stroke-linecap:round;stroke-linejoin:round;" d="M176.624,284.4c4.476,5.443,9.312,13.533,6.02,20.943c-2.793,3.305-5.064,5.008-5.064,5.008s-2.116-16.969-11.855-23.314c0,0,2.235-7.021,5.069-8.855c0,0,4.314-0.006,5.431,0.664"></path></g><g><linearGradient id="hair5XMLID_599_" gradientUnits="userSpaceOnUse" x1="318.0049" y1="309.5" x2="318.0049" y2="125.5008"><stop offset="0" style="stop-color:#FCFCE4"></stop><stop offset="0.5" style="stop-color:#A0C8DD"></stop><stop offset="1" style="stop-color:#5D6EC5"></stop></linearGradient><path style="fill:url(#hair5XMLID_599_);stroke:#1E1E1E;stroke-linecap:round;stroke-linejoin:round;" d="M310.536,231.891c1.751,0.105,17.014-6.736,19.479-5.875c0.005,3.848-1.966,10.779-2.136,12.811c-1.014,1.839-15.641,4.992-21.737,4.482C305.036,240.393,310.536,231.891,310.536,231.891z"></path><linearGradient id="hair5XMLID_600_" gradientUnits="userSpaceOnUse" x1="314.0605" y1="309.5" x2="314.0605" y2="125.5006"><stop offset="0" style="stop-color:#FCFCE4"></stop><stop offset="0.5" style="stop-color:#A0C8DD"></stop><stop offset="1" style="stop-color:#5D6EC5"></stop></linearGradient><path style="fill:url(#hair5XMLID_600_);stroke:#1E1E1E;stroke-linecap:round;stroke-linejoin:round;" d="M306.372,269.395c0,0,7.336,6.713,9.262,8.633c2.782-4.391,6.116-16.348,6.116-16.348S309.348,264.16,306.372,269.395z"></path><linearGradient id="hair5XMLID_601_" gradientUnits="userSpaceOnUse" x1="314.2197" y1="309.5" x2="314.2197" y2="125.5"><stop offset="0" style="stop-color:#FCFCE4"></stop><stop offset="0.5" style="stop-color:#A0C8DD"></stop><stop offset="1" style="stop-color:#5D6EC5"></stop></linearGradient><path style="fill:url(#hair5XMLID_601_);stroke:#1E1E1E;stroke-linecap:round;stroke-linejoin:round;" d="M323.671,253.41c0,4.902,2.449,7.682,1.998,9.649c-1.944,0.737-14.58,9.899-20.741,9.671c-3.267-2.525,1.442-6.344-2.213-10.201C304.352,260.331,321.796,253.828,323.671,253.41z"></path><linearGradient id="hair5XMLID_602_" gradientUnits="userSpaceOnUse" x1="315.083" y1="309.5" x2="315.083" y2="125.5003"><stop offset="0" style="stop-color:#FCFCE4"></stop><stop offset="0.5" style="stop-color:#A0C8DD"></stop><stop offset="1" style="stop-color:#5D6EC5"></stop></linearGradient><path style="fill:url(#hair5XMLID_602_);stroke:#1E1E1E;stroke-linecap:round;stroke-linejoin:round;" d="M325.979,240.146c-0.08,4.068,0.49,8.369-0.054,9.734c-0.544,1.367-17.116,8.581-21.191,8.419c-2.083-3.022,1.06-4.89,0.02-9.673C305.633,247.03,324.039,239.249,325.979,240.146z"></path><linearGradient id="hair5XMLID_603_" gradientUnits="userSpaceOnUse" x1="321.3779" y1="309.5" x2="321.3779" y2="125.5005"><stop offset="0" style="stop-color:#FCFCE4"></stop><stop offset="0.5" style="stop-color:#A0C8DD"></stop><stop offset="1" style="stop-color:#5D6EC5"></stop></linearGradient><path style="fill:url(#hair5XMLID_603_);stroke:#1E1E1E;stroke-linecap:round;stroke-linejoin:round;" d="M313.553,289.68c0,0,13.158-3.195,17.351-3.416c0.23-6.16-1.696-8.082-1.696-8.082s-12.385-0.178-17.374,2.229C312.811,283.889,313.553,289.68,313.553,289.68z"></path><linearGradient id="hair5XMLID_604_" gradientUnits="userSpaceOnUse" x1="317.8477" y1="309.5" x2="317.8477" y2="125.5"><stop offset="0" style="stop-color:#FCFCE4"></stop><stop offset="0.5" style="stop-color:#A0C8DD"></stop><stop offset="1" style="stop-color:#5D6EC5"></stop></linearGradient><path style="fill:url(#hair5XMLID_604_);stroke:#1E1E1E;stroke-linecap:round;stroke-linejoin:round;" d="M327.06,272.068c0,0-1.065-4.385-4.742-6.412c-1.405-0.322-10.928,6.369-13.682,15.795c1.147,1.447,4.314,9.57,5.761,8.422C315.843,288.727,318.532,279.58,327.06,272.068z"></path><linearGradient id="hair5XMLID_605_" gradientUnits="userSpaceOnUse" x1="333.2969" y1="309.5" x2="333.2969" y2="125.5001"><stop offset="0" style="stop-color:#FCFCE4"></stop><stop offset="0.5" style="stop-color:#A0C8DD"></stop><stop offset="1" style="stop-color:#5D6EC5"></stop></linearGradient><path style="fill:url(#hair5XMLID_605_);stroke:#1E1E1E;stroke-linecap:round;stroke-linejoin:round;" d="M322.808,308.666c0,0,8.017-1.416,8.614-6.604c-0.368-0.973-6.528-1.201-7.911-0.334c0,0,4.335-7.291,8.744-7.168c4.409,0.125,7.442,4.961,7.488,7.34c0.035,1.811-1.757,7.834-5.47,9.947c3.908,2.285,9.38-1.846,9.38-1.846s1.675,7.369-6.923,9.715C330.815,321.33,322.808,308.666,322.808,308.666C324.994,309.885,322.808,308.666,322.808,308.666z"></path><path style="fill:none;stroke:#1E1E1E;stroke-linecap:round;stroke-linejoin:round;" d="M337.288,313.643c0,0-4.913-1.23-7.035-3.127"></path><linearGradient id="hair5XMLID_606_" gradientUnits="userSpaceOnUse" x1="325.2734" y1="309.5" x2="325.2734" y2="125.5"><stop offset="0" style="stop-color:#FCFCE4"></stop><stop offset="0.5" style="stop-color:#A0C8DD"></stop><stop offset="1" style="stop-color:#5D6EC5"></stop></linearGradient><path style="fill:url(#hair5XMLID_606_);stroke:#1E1E1E;stroke-linecap:round;stroke-linejoin:round;" d="M323.376,284.4c-4.476,5.443-9.312,13.533-6.02,20.943c2.793,3.305,5.064,5.008,5.064,5.008s2.116-16.969,11.855-23.314c0,0-2.235-7.021-5.069-8.855c0,0-4.314-0.006-5.431,0.664"></path></g></g></g></svg>