<svg xmlns="http://www.w3.org/2000/svg" width="500" height="500" version="1.1"><g id="x077"><g><g><linearGradient id="hair5XMLID_607_" gradientUnits="userSpaceOnUse" x1="302.7109" y1="309.5" x2="302.7109" y2="125.5004"><stop offset="0" style="stop-color:#FCFCE4"></stop><stop offset="0.5" style="stop-color:#A0C8DD"></stop><stop offset="1" style="stop-color:#5D6EC5"></stop></linearGradient><path style="fill:url(#hair5XMLID_607_);stroke:#1E1E1E;stroke-linecap:round;stroke-linejoin:round;" d="M314.965,256.625c0,0-1.287,24.494-10.051,39.195c-10.385,17.42-13.399,31.154-13.399,31.154s-5.36-49.58,8.04-72.025"></path><g><linearGradient id="hair5XMLID_608_" gradientUnits="userSpaceOnUse" x1="310.0762" y1="309.5" x2="310.0762" y2="125.4997"><stop offset="0" style="stop-color:#FCFCE4"></stop><stop offset="0.5" style="stop-color:#A0C8DD"></stop><stop offset="1" style="stop-color:#5D6EC5"></stop></linearGradient><path style="fill:url(#hair5XMLID_608_);stroke:#1E1E1E;stroke-linecap:round;stroke-linejoin:round;" d="M315.633,201c7.146,14.294,12.174,38.319-1.674,58.42c-9.497,13.787-14.739,18.76-16.525,30.818c0-25.459,6.252-60.746,6.252-60.746L315.633,201z"></path><linearGradient id="hair5XMLID_609_" gradientUnits="userSpaceOnUse" x1="318.4121" y1="309.5" x2="318.4121" y2="125.5003"><stop offset="0" style="stop-color:#FCFCE4"></stop><stop offset="0.5" style="stop-color:#A0C8DD"></stop><stop offset="1" style="stop-color:#5D6EC5"></stop></linearGradient><path style="fill:url(#hair5XMLID_609_);stroke:#1E1E1E;stroke-linecap:round;stroke-linejoin:round;" d="M321.633,218c0,0,13.767,40.525-10.354,60.18c5.36-12.508,4.021-31.268,4.021-31.268"></path></g></g><g><linearGradient id="hair5XMLID_610_" gradientUnits="userSpaceOnUse" x1="197.2896" y1="309.5" x2="197.2895" y2="125.5004"><stop offset="0" style="stop-color:#FCFCE4"></stop><stop offset="0.5" style="stop-color:#A0C8DD"></stop><stop offset="1" style="stop-color:#5D6EC5"></stop></linearGradient><path style="fill:url(#hair5XMLID_610_);stroke:#1E1E1E;stroke-linecap:round;stroke-linejoin:round;" d="M185.035,256.625c0,0,1.287,24.494,10.051,39.195c10.385,17.42,13.399,31.154,13.399,31.154s5.36-49.58-8.04-72.025"></path><g><linearGradient id="hair5XMLID_611_" gradientUnits="userSpaceOnUse" x1="189.9243" y1="309.5" x2="189.9243" y2="125.4997"><stop offset="0" style="stop-color:#FCFCE4"></stop><stop offset="0.5" style="stop-color:#A0C8DD"></stop><stop offset="1" style="stop-color:#5D6EC5"></stop></linearGradient><path style="fill:url(#hair5XMLID_611_);stroke:#1E1E1E;stroke-linecap:round;stroke-linejoin:round;" d="M184.367,201c-7.146,14.294-12.174,38.319,1.674,58.42c9.497,13.787,14.739,18.76,16.525,30.818c0-25.459-6.252-60.746-6.252-60.746L184.367,201z"></path><linearGradient id="hair5XMLID_612_" gradientUnits="userSpaceOnUse" x1="181.5884" y1="309.5" x2="181.5884" y2="125.5003"><stop offset="0" style="stop-color:#FCFCE4"></stop><stop offset="0.5" style="stop-color:#A0C8DD"></stop><stop offset="1" style="stop-color:#5D6EC5"></stop></linearGradient><path style="fill:url(#hair5XMLID_612_);stroke:#1E1E1E;stroke-linecap:round;stroke-linejoin:round;" d="M178.367,218c0,0-13.767,40.525,10.354,60.18c-5.36-12.508-4.021-31.268-4.021-31.268"></path></g></g></g></g></svg>