<svg xmlns="http://www.w3.org/2000/svg" width="500" height="500" version="1.1"><g id="x078"><g><linearGradient id="hair5XMLID_613_" gradientUnits="userSpaceOnUse" x1="311.9736" y1="309.5" x2="311.9736" y2="125.4998"><stop offset="0" style="stop-color:#FCFCE4"></stop><stop offset="0.5" style="stop-color:#A0C8DD"></stop><stop offset="1" style="stop-color:#5D6EC5"></stop></linearGradient><path style="fill:url(#hair5XMLID_613_);stroke:#1E1E1E;stroke-linecap:round;stroke-linejoin:round;" d="M320.875,189.959c8.264,16.08,4.467,64.209-3.35,79.395c-4.799,9.326-15.744,30.82-8.598,45.449c-20.102-16.527,3.35-73.477,3.35-73.477c-3.461,7.594-6.477,15.188-13.848,17.867c10.273-13.4,5.139-51.367,3.352-60.301L320.875,189.959z"></path><linearGradient id="hair5XMLID_614_" gradientUnits="userSpaceOnUse" x1="188.0254" y1="309.5" x2="188.0254" y2="125.4998"><stop offset="0" style="stop-color:#FCFCE4"></stop><stop offset="0.5" style="stop-color:#A0C8DD"></stop><stop offset="1" style="stop-color:#5D6EC5"></stop></linearGradient><path style="fill:url(#hair5XMLID_614_);stroke:#1E1E1E;stroke-linecap:round;stroke-linejoin:round;" d="M198.219,198.893c-1.787,8.934-6.923,46.9,3.35,60.301c-7.369-2.68-10.385-10.273-13.847-17.867c0,0,23.451,56.949,3.351,73.477c7.146-14.629-3.799-36.123-8.599-45.449c-7.816-15.186-11.613-63.314-3.35-79.395L198.219,198.893z"></path></g></g></svg>