<svg xmlns="http://www.w3.org/2000/svg" width="500" height="500" version="1.1"><g id="x080"><g><g><linearGradient id="hair5XMLID_617_" gradientUnits="userSpaceOnUse" x1="183.3247" y1="309.5" x2="183.3247" y2="125.5004"><stop offset="0" style="stop-color:#FCFCE4"></stop><stop offset="0.5" style="stop-color:#A0C8DD"></stop><stop offset="1" style="stop-color:#5D6EC5"></stop></linearGradient><path style="fill:url(#hair5XMLID_617_);stroke:#1E1E1E;stroke-linecap:round;stroke-linejoin:round;" d="M189.47,149.09c-18.76,29.48-13.399,43.55-14.74,58.29c-1.34,14.739-12.06,21.44-14.739,53.6c-3.065,36.776,25.288,29.124,26.8,36.181c2.01,9.379-2.01,14.74-10.72,24.789c42.21-2.68,18.09-59.629,18.09-59.629s-3.351-6.701-0.67-42.211c2.68-35.51,13.399-58.29,13.399-58.29L189.47,149.09z"></path><path style="fill:none;stroke:#1E1E1E;stroke-linecap:round;stroke-linejoin:round;" d="M194.161,262.32c0,0-8.04-8.711-7.37-34.841"></path></g><g><linearGradient id="hair5XMLID_618_" gradientUnits="userSpaceOnUse" x1="316.6758" y1="309.5" x2="316.6758" y2="125.5004"><stop offset="0" style="stop-color:#FCFCE4"></stop><stop offset="0.5" style="stop-color:#A0C8DD"></stop><stop offset="1" style="stop-color:#5D6EC5"></stop></linearGradient><path style="fill:url(#hair5XMLID_618_);stroke:#1E1E1E;stroke-linecap:round;stroke-linejoin:round;" d="M310.529,149.09c18.76,29.48,13.4,43.55,14.74,58.29c1.34,14.739,12.06,21.44,14.74,53.6c3.064,36.776-25.288,29.124-26.801,36.181c-2.01,9.379,2.01,14.74,10.721,24.789c-42.211-2.68-18.091-59.629-18.091-59.629s3.351-6.701,0.671-42.211c-2.681-35.51-13.4-58.29-13.4-58.29L310.529,149.09z"></path><path style="fill:none;stroke:#1E1E1E;stroke-linecap:round;stroke-linejoin:round;" d="M305.839,262.32c0,0,8.04-8.711,7.37-34.841"></path></g></g></g></svg>