<svg xmlns="http://www.w3.org/2000/svg" width="500" height="500" version="1.1"><g id="x081"><g><linearGradient id="hair5XMLID_619_" gradientUnits="userSpaceOnUse" x1="305.25" y1="309.5" x2="305.25" y2="125.5005"><stop offset="0" style="stop-color:#FCFCE4"></stop><stop offset="0.5" style="stop-color:#A0C8DD"></stop><stop offset="1" style="stop-color:#5D6EC5"></stop></linearGradient><path style="fill:url(#hair5XMLID_619_);stroke:#1E1E1E;stroke-linecap:round;stroke-linejoin:round;" d="M301.093,258c0,0,7-18,11-35.5l4.5-29c21.5,57,1.779,119.74,1.779,119.74s-1.005-3.016-10.05,0.67c0.595-1.969,1.271-4.842,1.992-8.336c-3.094,12.578-6.76,21.93-8.357,24.416c-1.698,1.697-3.397,1.695-6.296,2.027c-3.754,1.992-6.435,7.352-11.794,6.348C291.572,320.609,301.093,259.004,301.093,258z"></path><linearGradient id="hair5XMLID_620_" gradientUnits="userSpaceOnUse" x1="194.7505" y1="309.5" x2="194.7505" y2="125.5005"><stop offset="0" style="stop-color:#FCFCE4"></stop><stop offset="0.5" style="stop-color:#A0C8DD"></stop><stop offset="1" style="stop-color:#5D6EC5"></stop></linearGradient><path style="fill:url(#hair5XMLID_620_);stroke:#1E1E1E;stroke-linecap:round;stroke-linejoin:round;" d="M198.907,258c0,0-7-18-11-35.5l-4.5-29c-21.5,57-1.779,119.74-1.779,119.74s1.005-3.016,10.05,0.67c-0.595-1.969-1.271-4.842-1.992-8.336c3.094,12.578,6.76,21.93,8.357,24.416c1.698,1.697,3.397,1.695,6.296,2.027c3.754,1.992,6.435,7.352,11.794,6.348C208.428,320.609,198.907,259.004,198.907,258z"></path></g></g></svg>