<svg xmlns="http://www.w3.org/2000/svg" width="500" height="500" version="1.1"><g id="x082"><g><g><g><g><linearGradient id="hair5XMLID_621_" gradientUnits="userSpaceOnUse" x1="185.4067" y1="309.5" x2="185.4067" y2="125.5001"><stop offset="0" style="stop-color:#FCFCE4"></stop><stop offset="0.5" style="stop-color:#A0C8DD"></stop><stop offset="1" style="stop-color:#5D6EC5"></stop></linearGradient><path style="fill:url(#hair5XMLID_621_);stroke:#1E1E1E;stroke-linecap:round;stroke-linejoin:round;" d="M178.257,247.803c0,0-11.167,39.307,16.525,54.941c-4.913-5.361-13.399-31.268-8.932-45.115"></path><linearGradient id="hair5XMLID_622_" gradientUnits="userSpaceOnUse" x1="214.1167" y1="309.5" x2="214.1167" y2="125.4998"><stop offset="0" style="stop-color:#FCFCE4"></stop><stop offset="0.5" style="stop-color:#A0C8DD"></stop><stop offset="1" style="stop-color:#5D6EC5"></stop></linearGradient><path style="fill:url(#hair5XMLID_622_);stroke:#1E1E1E;stroke-linecap:round;stroke-linejoin:round;" d="M198.803,260.31c0,0,3.573,13.847,16.974,24.12s18.76,22.334,9.38,34.393c1.34-9.826-2.68-16.078-8.486-20.547c-5.808-4.467-10.72-4.02-18.313-16.525"></path></g><linearGradient id="hair5XMLID_623_" gradientUnits="userSpaceOnUse" x1="197.4292" y1="309.5" x2="197.4292" y2="125.4999"><stop offset="0" style="stop-color:#FCFCE4"></stop><stop offset="0.5" style="stop-color:#A0C8DD"></stop><stop offset="1" style="stop-color:#5D6EC5"></stop></linearGradient><path style="fill:url(#hair5XMLID_623_);stroke:#1E1E1E;stroke-linecap:round;stroke-linejoin:round;" d="M201.93,136.137c-18.018,15.118-25.661,34.939-28.682,51.854l-0.128-0.264c-4.69,17.643-8.503,56.559,8.263,77.05c20.1,24.567,6.254,33.946,10.72,48.687c2.912,9.607,9.827,15.635,22.78,12.061c0,0-15.958,3.777-13.667-15.543c1.786,2.986,4.471,5.906,9.2,9.736c9.381,7.592,6.254,14.293,4.913,19.207c16.08-11.166,10.721-26.354,2.681-33.947c-6.707-6.334-12.219-15.219-13.847-16.527c2.119-12.082,2.742-16.039-3.127-26.799c-0.497-0.912-0.999-1.828-1.503-2.748c1.825,0.135,3.673,0.148,5.523,0.067c-31.268-32.606,5.806-97.373,5.806-97.373L201.93,136.137z"></path></g><linearGradient id="hair5XMLID_624_" gradientUnits="userSpaceOnUse" x1="192.5498" y1="309.5" x2="192.5498" y2="125.5001"><stop offset="0" style="stop-color:#FCFCE4"></stop><stop offset="0.5" style="stop-color:#A0C8DD"></stop><stop offset="1" style="stop-color:#5D6EC5"></stop></linearGradient><path style="fill:url(#hair5XMLID_624_);stroke:#1E1E1E;stroke-linecap:round;stroke-linejoin:round;" d="M180.043,235.743c0,0,4.021,23.673,25.014,23.227"></path></g><g><g><g><linearGradient id="hair5XMLID_625_" gradientUnits="userSpaceOnUse" x1="314.3105" y1="309.5" x2="314.3105" y2="125.5001"><stop offset="0" style="stop-color:#FCFCE4"></stop><stop offset="0.5" style="stop-color:#A0C8DD"></stop><stop offset="1" style="stop-color:#5D6EC5"></stop></linearGradient><path style="fill:url(#hair5XMLID_625_);stroke:#1E1E1E;stroke-linecap:round;stroke-linejoin:round;" d="M321.461,247.803c0,0,11.168,39.307-16.526,54.941c4.914-5.361,13.4-31.268,8.933-45.115"></path><linearGradient id="hair5XMLID_626_" gradientUnits="userSpaceOnUse" x1="285.6016" y1="309.5" x2="285.6016" y2="125.4998"><stop offset="0" style="stop-color:#FCFCE4"></stop><stop offset="0.5" style="stop-color:#A0C8DD"></stop><stop offset="1" style="stop-color:#5D6EC5"></stop></linearGradient><path style="fill:url(#hair5XMLID_626_);stroke:#1E1E1E;stroke-linecap:round;stroke-linejoin:round;" d="M300.915,260.31c0,0-3.574,13.847-16.974,24.12c-13.4,10.273-18.761,22.334-9.38,34.393c-1.341-9.826,2.68-16.078,8.487-20.547c5.806-4.467,10.719-4.02,18.313-16.525"></path></g><linearGradient id="hair5XMLID_627_" gradientUnits="userSpaceOnUse" x1="302.2891" y1="309.5" x2="302.2891" y2="125.4999"><stop offset="0" style="stop-color:#FCFCE4"></stop><stop offset="0.5" style="stop-color:#A0C8DD"></stop><stop offset="1" style="stop-color:#5D6EC5"></stop></linearGradient><path style="fill:url(#hair5XMLID_627_);stroke:#1E1E1E;stroke-linecap:round;stroke-linejoin:round;" d="M297.787,136.137c18.019,15.118,25.662,34.939,28.682,51.854l0.129-0.264c4.691,17.643,8.503,56.559-8.263,77.05c-20.101,24.567-6.254,33.946-10.72,48.687c-2.912,9.607-9.826,15.635-22.78,12.061c0,0,15.958,3.777,13.667-15.543c-1.786,2.986-4.471,5.906-9.201,9.736c-9.38,7.592-6.252,14.293-4.912,19.207c-16.08-11.166-10.72-26.354-2.68-33.947c6.706-6.334,12.218-15.219,13.846-16.527c-2.12-12.082-2.742-16.039,3.126-26.799c0.498-0.912,1-1.828,1.504-2.748c-1.825,0.135-3.673,0.148-5.523,0.067c31.268-32.606-5.807-97.373-5.807-97.373L297.787,136.137z"></path></g><linearGradient id="hair5XMLID_628_" gradientUnits="userSpaceOnUse" x1="307.168" y1="309.5" x2="307.168" y2="125.5001"><stop offset="0" style="stop-color:#FCFCE4"></stop><stop offset="0.5" style="stop-color:#A0C8DD"></stop><stop offset="1" style="stop-color:#5D6EC5"></stop></linearGradient><path style="fill:url(#hair5XMLID_628_);stroke:#1E1E1E;stroke-linecap:round;stroke-linejoin:round;" d="M319.675,235.743c0,0-4.02,23.673-25.014,23.227"></path></g></g></g></svg>