<svg xmlns="http://www.w3.org/2000/svg" width="500" height="500" version="1.1"><g id="x083"><g><linearGradient id="hair5XMLID_629_" gradientUnits="userSpaceOnUse" x1="197.6504" y1="309.5" x2="197.6504" y2="125.4997"><stop offset="0" style="stop-color:#FCFCE4"></stop><stop offset="0.5" style="stop-color:#A0C8DD"></stop><stop offset="1" style="stop-color:#5D6EC5"></stop></linearGradient><path style="fill:url(#hair5XMLID_629_);stroke:#1E1E1E;stroke-linecap:round;stroke-linejoin:round;" d="M186.833,220.109c-9.38,32.16,4.69,76.381,9.38,77.721c-0.67-8.041,0.67-15.41,0.67-15.41s5.36,8.039,14.74,14.07c-14.07-14.07-21.44-76.381-21.44-76.381H186.833z"></path><linearGradient id="hair5XMLID_630_" gradientUnits="userSpaceOnUse" x1="302.1709" y1="309.5" x2="302.1709" y2="125.4997"><stop offset="0" style="stop-color:#FCFCE4"></stop><stop offset="0.5" style="stop-color:#A0C8DD"></stop><stop offset="1" style="stop-color:#5D6EC5"></stop></linearGradient><path style="fill:url(#hair5XMLID_630_);stroke:#1E1E1E;stroke-linecap:round;stroke-linejoin:round;" d="M312.988,220.109c9.38,32.16-4.69,76.381-9.381,77.721c0.671-8.041-0.67-15.41-0.67-15.41s-5.359,8.039-14.739,14.07c14.069-14.07,21.439-76.381,21.439-76.381H312.988z"></path></g></g></svg>