<svg xmlns="http://www.w3.org/2000/svg" width="500" height="500" version="1.1"><g id="x009"><g><g><g><linearGradient id="hair5XMLID_332_" gradientUnits="userSpaceOnUse" x1="301.5" y1="309.5" x2="301.5" y2="125.5"><stop offset="0" style="stop-color:#FCFCE4"></stop><stop offset="0.5" style="stop-color:#A0C8DD"></stop><stop offset="1" style="stop-color:#5D6EC5"></stop></linearGradient><path style="fill:url(#hair5XMLID_332_);stroke:#1E1E1E;stroke-linecap:round;stroke-linejoin:round;" d="M310.348,232.787C306.426,244,304.176,256.75,291.426,268c-2.146,11.255,5.959,28.637,9.225,32.859C309.473,286.684,314.752,252.121,310.348,232.787z"></path><path style="fill:none;stroke:#1E1E1E;stroke-linecap:round;stroke-linejoin:round;" d="M297.662,265.459c-0.07,1.227,1.32,11.956,3.084,16.153"></path><path style="fill:none;stroke:#1E1E1E;stroke-linecap:round;stroke-linejoin:round;" d="M305.865,266.544c0,0-3.609,14.949-7.918,20.233"></path></g><g><linearGradient id="hair5XMLID_333_" gradientUnits="userSpaceOnUse" x1="300.5313" y1="309.5" x2="300.5313" y2="125.4999"><stop offset="0" style="stop-color:#FCFCE4"></stop><stop offset="0.5" style="stop-color:#A0C8DD"></stop><stop offset="1" style="stop-color:#5D6EC5"></stop></linearGradient><path style="fill:url(#hair5XMLID_333_);stroke:#1E1E1E;stroke-linecap:round;stroke-linejoin:round;" d="M298.941,293.057c0,0-1.908,5.665-2.107,6.765c-0.197,1.098,2.504,4.988,2.504,4.988s-2.082,4.929-1.908,5.665c0.174,0.737,2.307,6.087,2.307,6.087l3.309-0.508c0,0,0.979-4.575,1.182-6.04c0.201-1.467-2.133-5.352-2.133-5.352s1.871-2.729,2.078-4.562c0.209-1.834-2.283-7.923-2.283-7.923"></path><linearGradient id="hair5XMLID_334_" gradientUnits="userSpaceOnUse" x1="300.9941" y1="309.5" x2="300.9941" y2="125.5001"><stop offset="0" style="stop-color:#FCFCE4"></stop><stop offset="0.5" style="stop-color:#A0C8DD"></stop><stop offset="1" style="stop-color:#5D6EC5"></stop></linearGradient><path style="fill:url(#hair5XMLID_334_);stroke:#1E1E1E;stroke-linecap:round;stroke-linejoin:round;" d="M299.404,313.805c0,0-1.91,5.665-2.107,6.765c-0.197,1.098,2.504,4.988,2.504,4.988s-2.082,4.929-1.908,5.665c0.174,0.735,2.305,6.088,2.305,6.088l3.313-0.508c0,0,0.977-4.575,1.18-6.042c0.201-1.466-2.133-5.352-2.133-5.352s1.871-2.729,2.078-4.56c0.207-1.835-2.281-7.925-2.281-7.925"></path></g><path style="fill:#3F3F3F;stroke:#1E1E1E;stroke-linecap:round;stroke-linejoin:round;" d="M299.863,336.813c0.438-0.188,1-1,1.938-1.125s1.688,0.563,1.688,0.563l0.25,1.313c0,0-2.813,0.875-3.25,0.625S299.863,336.813,299.863,336.813z"></path><linearGradient id="hair5XMLID_335_" gradientUnits="userSpaceOnUse" x1="302.3408" y1="309.5" x2="302.3408" y2="125.4997"><stop offset="0" style="stop-color:#FCFCE4"></stop><stop offset="0.5" style="stop-color:#A0C8DD"></stop><stop offset="1" style="stop-color:#5D6EC5"></stop></linearGradient><path style="fill:url(#hair5XMLID_335_);stroke:#1E1E1E;stroke-linecap:round;stroke-linejoin:round;" d="M300.363,338c0,0-3.438,4-0.75,7.75c0.125-2.438,0.75-3.313,0.625-3.125s3.688,5.75,3,7.563c2.688-1.75,3.313-5.75,2.563-8.5s-2.063-4.125-2.063-4.125S301.238,337.125,300.363,338z"></path></g><g><g><linearGradient id="hair5XMLID_336_" gradientUnits="userSpaceOnUse" x1="198.5" y1="309.5" x2="198.5" y2="125.5"><stop offset="0" style="stop-color:#FCFCE4"></stop><stop offset="0.5" style="stop-color:#A0C8DD"></stop><stop offset="1" style="stop-color:#5D6EC5"></stop></linearGradient><path style="fill:url(#hair5XMLID_336_);stroke:#1E1E1E;stroke-linecap:round;stroke-linejoin:round;" d="M189.653,232.787C193.575,244,195.825,256.75,208.575,268c2.146,11.255-5.959,28.637-9.225,32.859C190.528,286.684,185.249,252.121,189.653,232.787z"></path><path style="fill:none;stroke:#1E1E1E;stroke-linecap:round;stroke-linejoin:round;" d="M202.337,265.459c0.07,1.227-1.32,11.956-3.084,16.153"></path><path style="fill:none;stroke:#1E1E1E;stroke-linecap:round;stroke-linejoin:round;" d="M194.135,266.544c0,0,3.608,14.949,7.917,20.233"></path></g><g><linearGradient id="hair5XMLID_337_" gradientUnits="userSpaceOnUse" x1="199.4688" y1="309.5" x2="199.4687" y2="125.4999"><stop offset="0" style="stop-color:#FCFCE4"></stop><stop offset="0.5" style="stop-color:#A0C8DD"></stop><stop offset="1" style="stop-color:#5D6EC5"></stop></linearGradient><path style="fill:url(#hair5XMLID_337_);stroke:#1E1E1E;stroke-linecap:round;stroke-linejoin:round;" d="M201.059,293.057c0,0,1.908,5.665,2.107,6.765c0.197,1.098-2.504,4.988-2.504,4.988s2.082,4.929,1.908,5.665c-0.174,0.737-2.307,6.087-2.307,6.087l-3.31-0.508c0,0-0.979-4.575-1.182-6.04c-0.201-1.467,2.134-5.352,2.134-5.352s-1.872-2.729-2.079-4.562c-0.208-1.834,2.283-7.923,2.283-7.923"></path><linearGradient id="hair5XMLID_338_" gradientUnits="userSpaceOnUse" x1="199.0059" y1="309.5" x2="199.0058" y2="125.5001"><stop offset="0" style="stop-color:#FCFCE4"></stop><stop offset="0.5" style="stop-color:#A0C8DD"></stop><stop offset="1" style="stop-color:#5D6EC5"></stop></linearGradient><path style="fill:url(#hair5XMLID_338_);stroke:#1E1E1E;stroke-linecap:round;stroke-linejoin:round;" d="M200.596,313.805c0,0,1.91,5.665,2.106,6.765c0.198,1.098-2.504,4.988-2.504,4.988s2.083,4.929,1.909,5.665c-0.174,0.735-2.306,6.088-2.306,6.088l-3.312-0.508c0,0-0.978-4.575-1.18-6.042c-0.202-1.466,2.132-5.352,2.132-5.352s-1.87-2.729-2.078-4.56c-0.207-1.835,2.282-7.925,2.282-7.925"></path></g><path style="fill:#3F3F3F;stroke:#1E1E1E;stroke-linecap:round;stroke-linejoin:round;" d="M200.137,336.813c-0.438-0.188-1-1-1.938-1.125s-1.688,0.563-1.688,0.563l-0.25,1.313c0,0,2.813,0.875,3.25,0.625S200.137,336.813,200.137,336.813z"></path><linearGradient id="hair5XMLID_339_" gradientUnits="userSpaceOnUse" x1="197.6597" y1="309.5" x2="197.6597" y2="125.4997"><stop offset="0" style="stop-color:#FCFCE4"></stop><stop offset="0.5" style="stop-color:#A0C8DD"></stop><stop offset="1" style="stop-color:#5D6EC5"></stop></linearGradient><path style="fill:url(#hair5XMLID_339_);stroke:#1E1E1E;stroke-linecap:round;stroke-linejoin:round;" d="M199.637,338c0,0,3.438,4,0.75,7.75c-0.125-2.438-0.75-3.313-0.625-3.125s-3.688,5.75-3,7.563c-2.688-1.75-3.313-5.75-2.563-8.5s2.063-4.125,2.063-4.125S198.762,337.125,199.637,338z"></path></g></g></g></svg>