<svg xmlns="http://www.w3.org/2000/svg" width="500" height="500" version="1.1"><g id="x9104"><g><g><path style="fill:#FFFFFF;stroke:#E6597D;stroke-linecap:round;stroke-linejoin:round;" d="M250,262.532c0,0-9.908,0.531-13.408,0.917c0,0,8.321,1.884,13.408,1.884c5.088,0,13.408-1.884,13.408-1.884C259.908,263.063,250,262.532,250,262.532z"></path><g><path style="fill:#E6597D;" d="M235.488,262.5c1.313,0.313,3.45,0.563,3.45,0.563s-1.002,1.074-2,0.938c-1.204-0.166-3.844-1.136-4.208-1.5c-0.667-0.833,0.333-1.167,0.333-1.167S234.175,262.188,235.488,262.5z"></path><path style="fill:#E6597D;" d="M264.512,262.5c-1.313,0.313-3.449,0.563-3.449,0.563s1.002,1.074,2,0.938c1.204-0.166,3.844-1.136,4.209-1.5c0.666-0.833-0.334-1.167-0.334-1.167S265.824,262.188,264.512,262.5z"></path></g></g><g><path style="fill:none;stroke:#A84A56;stroke-linecap:round;stroke-linejoin:round;" d="M246.75,269.135c0,0,1.139,0.605,3.183,0.605"></path><path style="fill:none;stroke:#A84A56;stroke-linecap:round;stroke-linejoin:round;" d="M253.25,269.135c0,0-1.139,0.605-3.183,0.605"></path></g></g></g></svg>