<svg xmlns="http://www.w3.org/2000/svg" width="500" height="500" version="1.1"><g id="x010"><g><g><path style="fill:#FFDEDE;" d="M263,262.855c0,1.535-5.818,4.278-13,4.278c-7.18,0-13-2.743-13-4.278s5.82,1.119,13,1.119C257.182,263.975,263,261.32,263,262.855z"></path><ellipse style="fill:#FFFFFF;" cx="254.207" cy="265.343" rx="0.869" ry="0.656"></ellipse></g><g><g><g><g><path style="fill:none;stroke:#E6597D;stroke-linecap:round;stroke-linejoin:round;" d="M250.096,263.744c8.226,0,12.445-1.313,12.445-1.313"></path></g></g></g><path style="fill:#E6597D;" d="M262.119,262.015c0,0,1.757-0.75,1.99-0.625c0.234,0.125,1.078,0.313,0.352,0.959c-0.223,0.198-2.342,0.771-2.554,0.771C261.979,262.765,262.119,262.015,262.119,262.015z"></path><g><g><g><path style="fill:none;stroke:#E6597D;stroke-linecap:round;stroke-linejoin:round;" d="M249.902,263.744c-8.226,0-12.444-1.313-12.444-1.313"></path></g></g></g><path style="fill:#E6597D;" d="M237.88,262.015c0,0-1.757-0.75-1.991-0.625c-0.234,0.125-1.078,0.313-0.353,0.959c0.224,0.198,2.343,0.771,2.555,0.771C238.021,262.765,237.88,262.015,237.88,262.015z"></path></g></g></g></svg>