<svg xmlns="http://www.w3.org/2000/svg" width="500" height="500" version="1.1"><g id="x9111"><g><path style="fill:#FFFFFF;stroke:#000000;stroke-linecap:round;stroke-linejoin:round;" d="M235.033,262.309c0,0,2.529,3.629,7.045,5.387c1.825,0.711,4.294,0.866,7.338,0.972c14.417,0.5,17-7.334,17-7.334s-6,2.417-16.677,2.29C240.412,263.512,235.033,262.309,235.033,262.309z"></path><path d="M261.5,262.75c0,0,1.459,1.563,0.125,3.063c2.375-0.375,4.208-3.896,4.208-3.896L261.5,262.75z"></path><path d="M239.583,263.25c0,0-1.583,1.334-0.333,2.917c-3.813-1.604-3.583-3.667-3.583-3.667L239.583,263.25z"></path></g></g></svg>