<svg xmlns="http://www.w3.org/2000/svg" width="500" height="500" version="1.1"><g id="x011"><g><g><path style="fill:#FFDEDE;" d="M258.555,260.959c0,1.535-3.829,4.278-8.555,4.278c-4.725,0-8.555-2.743-8.555-4.278s3.83,1.119,8.555,1.119C254.726,262.078,258.555,259.424,258.555,260.959z"></path><ellipse style="fill:#FFFFFF;" cx="252.541" cy="263.946" rx="0.869" ry="0.656"></ellipse></g><g><g><g><g><g><path style="fill:#FDFFFC;stroke:#A84A56;stroke-linecap:round;stroke-linejoin:round;" d="M253.29,262.6c-0.38,0,1.813,3.938,2.688,3.563s2-5,2-5S255.228,262.6,253.29,262.6z"></path><path style="fill:#FDFFFC;stroke:#A84A56;stroke-linecap:round;stroke-linejoin:round;" d="M246.708,262.6c0.38,0-1.813,3.938-2.688,3.563s-2-5-2-5S244.771,262.6,246.708,262.6z"></path></g><path style="fill:none;stroke:#E6597D;stroke-linecap:round;stroke-linejoin:round;" d="M250.056,262.744c4.741,0,7.172-1.313,7.172-1.313"></path></g></g></g><path style="fill:#E6597D;" d="M256.984,261.015c0,0,1.013-0.75,1.147-0.625s0.621,0.313,0.202,0.959c-0.128,0.198-1.35,0.771-1.472,0.771C256.903,261.765,256.984,261.015,256.984,261.015z"></path><g><g><g><path style="fill:none;stroke:#E6597D;stroke-linecap:round;stroke-linejoin:round;" d="M249.944,262.744c-4.74,0-7.171-1.313-7.171-1.313"></path></g></g></g><path style="fill:#E6597D;" d="M243.016,261.015c0,0-1.013-0.75-1.147-0.625s-0.621,0.313-0.203,0.959c0.129,0.198,1.351,0.771,1.473,0.771C243.097,261.765,243.016,261.015,243.016,261.015z"></path></g></g></g></svg>