<svg xmlns="http://www.w3.org/2000/svg" width="500" height="500" version="1.1"><g id="x9118"><g><g><g><path style="fill:none;stroke:#A84A56;stroke-linecap:round;stroke-linejoin:round;" d="M247.593,268.875c0,0,1.125,0.5,2.375,0.5"></path></g><g><path style="fill:none;stroke:#A84A56;stroke-linecap:round;stroke-linejoin:round;" d="M252.407,268.875c0,0-1.125,0.5-2.375,0.5"></path></g></g><g><g><g><path style="fill:none;stroke:#A84A56;stroke-width:1.0454;stroke-linecap:round;stroke-linejoin:round;" d="M232.601,264c0,0,9.153-1.25,12.841-0.874c3.688,0.375,4.372,0.625,4.372,0.625"></path></g><g><path style="fill:none;stroke:#A84A56;stroke-width:1.0454;stroke-linecap:round;stroke-linejoin:round;" d="M267.4,264.002c0,0-9.153-1.251-12.842-0.876c-3.689,0.375-4.374,0.625-4.374,0.625"></path></g></g></g><path style="fill:#FEE6DB;" d="M254.041,259.834c0,0-1.809,1.416-4.041,1.416c-2.232,0-4.042-1.416-4.042-1.416s1.726-0.501,3.958-0.501S254.041,259.834,254.041,259.834z"></path></g></g></svg>