<svg xmlns="http://www.w3.org/2000/svg" width="500" height="500" version="1.1"><g id="x012"><g><g><path style="fill:#FFDEDE;" d="M260.583,262.855c0,1.535-4.737,4.278-10.583,4.278c-5.845,0-10.583-2.743-10.583-4.278s4.738,1.119,10.583,1.119C255.846,263.975,260.583,261.32,260.583,262.855z"></path><ellipse style="fill:#FFFFFF;" cx="254.207" cy="265.343" rx="0.869" ry="0.656"></ellipse></g><g><path style="fill:none;stroke:#E6597D;stroke-linecap:round;stroke-linejoin:round;" d="M237.77,260.831c0,0,2.966,2.309,6.659,2.901"></path><path style="fill:none;stroke:#E6597D;stroke-linecap:round;stroke-linejoin:round;" d="M250.692,263.799c0.198,0,7.715,0.593,11.011-3.165"></path><path style="fill:#FFFFFF;stroke:#A84A56;stroke-linecap:round;stroke-linejoin:round;" d="M262.23,261.964c0,0.197-0.263,3.362-1.121,3.494c-0.857,0.132-2.308-1.451-2.308-1.451"></path></g></g></g></svg>