<svg xmlns="http://www.w3.org/2000/svg" width="500" height="500" version="1.1"><g id="x013"><g><g><path style="fill:#FFDEDE;" d="M262,260.022c0,1.535-5.371,4.278-12,4.278c-6.627,0-12-2.743-12-4.278s5.373,1.119,12,1.119C256.629,261.142,262,258.487,262,260.022z"></path><ellipse style="fill:#FFFFFF;" cx="254.207" cy="262.51" rx="0.869" ry="0.656"></ellipse></g><g><g><g><path style="fill:#FFFFFF;stroke:#A84A56;stroke-linecap:round;stroke-linejoin:round;" d="M238.075,259.8c0,0,0.95,5.942,2.325,5.942s3-4.953,3-4.953L238.075,259.8z"></path></g><g><path style="fill:#FFFFFF;stroke:#A84A56;stroke-linecap:round;stroke-linejoin:round;" d="M262.15,259.8c0,0-0.95,5.942-2.325,5.942s-3-4.953-3-4.953L262.15,259.8z"></path></g></g><path style="fill:none;stroke:#E6597D;stroke-linecap:round;stroke-linejoin:round;" d="M236.875,258.7c0,0,1.447,2.375,13.229,2.375c11.781,0,13.021-2.375,13.021-2.375"></path></g></g></g></svg>