<svg xmlns="http://www.w3.org/2000/svg" width="500" height="500" version="1.1"><g id="x014"><g><g><path style="fill:#FFDEDE;" d="M254.815,263.272c0.61-0.148,1.419,1.8,1.935,1.645c0.59-0.177,0.871-2.455,1.309-2.571c0.944-0.251,1.496-0.272,1.496,0.311c0,1.535-3.829,4.278-8.555,4.278c-4.725,0-8.555-2.743-8.555-4.278s3.83,1.119,8.555,1.119C252.371,263.775,253.667,263.552,254.815,263.272z"></path><ellipse style="fill:#FFFFFF;" cx="255.207" cy="265.144" rx="0.869" ry="0.656"></ellipse></g><g><g><g><g><path style="fill:none;stroke:#E6597D;stroke-linecap:round;stroke-linejoin:round;" d="M250.055,263.744c1.085,0,4.05-0.269,4.892-0.375c0.365,0.369,1.286,1.799,1.803,1.682c0.518-0.117,0.938-1.625,1.299-2.35c0.782-0.255,1.178-0.469,1.178-0.469"></path></g></g></g><path style="fill:#E6597D;" d="M258.983,261.815c0,0,1.013-0.75,1.147-0.625s0.621,0.313,0.202,0.959c-0.128,0.198-1.35,0.771-1.472,0.771C258.902,262.565,258.983,261.815,258.983,261.815z"></path><g><g><g><path style="fill:none;stroke:#E6597D;stroke-linecap:round;stroke-linejoin:round;" d="M249.943,263.744c-4.74,0-7.171-1.313-7.171-1.313"></path></g></g></g><path style="fill:#E6597D;" d="M243.016,262.015c0,0-1.013-0.75-1.147-0.625s-0.621,0.313-0.203,0.959c0.129,0.198,1.351,0.771,1.473,0.771C243.097,262.765,243.016,262.015,243.016,262.015z"></path></g></g></g></svg>