<svg xmlns="http://www.w3.org/2000/svg" width="500" height="500" version="1.1"><g id="x015"><g><g><path style="fill:#FFDEDE;" d="M258.555,262.855c0,1.535-3.829,4.278-8.555,4.278c-4.725,0-8.555-2.743-8.555-4.278s3.83,1.119,8.555,1.119C254.726,263.975,258.555,261.32,258.555,262.855z"></path><ellipse style="fill:#FFFFFF;" cx="254.207" cy="265.343" rx="0.869" ry="0.656"></ellipse></g><g><path style="fill:#FFFFFF;stroke:#E6597D;stroke-linecap:round;stroke-linejoin:round;" d="M241.533,261.474c0,0,2.881,3.221,6.101,2.882c3.221-0.34,11.016-3.56,11.016-3.56s3.729,0.339,1.695,2.034"></path><path style="fill:#FFA1A6;stroke:#E6597D;stroke-linecap:round;stroke-linejoin:round;" d="M249.838,264.016c2.372,1.187,10.103,0.937,11.525-0.17c3.05-2.372-1.188-4.406-1.188-4.406S255.431,259.609,249.838,264.016z"></path></g></g></g></svg>