<svg xmlns="http://www.w3.org/2000/svg" width="500" height="500" version="1.1"><g id="x016"><g><g><path style="fill:#FFDEDE;" d="M256.417,263.917c1.409-0.427,2.138-1.789,2.138-1.062c0,1.535-3.829,3.145-8.555,3.145c-4.725,0-8.555-1.609-8.555-3.145c0-0.636,0.366,0.662,1.471,0.978c1.563,0.446,4.315-1.166,7.083-1.166C252.485,262.667,254.854,264.39,256.417,263.917z"></path><ellipse style="fill:#FFFFFF;" cx="253.957" cy="264.593" rx="0.869" ry="0.656"></ellipse></g><g><g><path style="fill:none;stroke:#E6597D;stroke-linecap:round;stroke-linejoin:round;" d="M241.244,262.764c0.868,1.578,2.73,1.276,2.73,1.276s1.265-0.424,2.829-0.9c0.944-0.286,1.998-0.512,2.948-0.512c1.107,0,2.34,0.335,3.372,0.714c1.319,0.483,2.313,0.829,2.313,0.829s1.796,0.381,3.321-1.407"></path></g></g></g></g></svg>