<svg xmlns="http://www.w3.org/2000/svg" width="500" height="500" version="1.1"><g id="x017"><g><g><path style="fill:#FFDEDE;" d="M256.5,264.167c1.572-0.479,2.055-2.086,2.055-1.312c0,1.535-3.829,3.228-8.555,3.228c-4.725,0-8.555-1.692-8.555-3.228c0-0.768,0.506,0.756,2.055,1.228c1.548,0.472,4.917-0.416,6.5-2.5C251.333,263.333,254.956,264.638,256.5,264.167z"></path><ellipse style="fill:#FFFFFF;" cx="254.207" cy="265.343" rx="0.869" ry="0.656"></ellipse></g><g><path style="fill:none;stroke:#E6597D;stroke-linecap:round;stroke-linejoin:round;" d="M240.541,261.543c0,0,0.167,2.791,4.333,2.791c4.167,0,4.917-3.167,4.917-3.167"></path><path style="fill:none;stroke:#E6597D;stroke-linecap:round;stroke-linejoin:round;" d="M259.459,261.543c0,0-0.167,2.791-4.333,2.791c-4.167,0-4.918-3.167-4.918-3.167"></path></g></g></g></svg>