<svg xmlns="http://www.w3.org/2000/svg" width="500" height="500" version="1.1"><g id="x018"><g><g><path style="fill:#FFDEDE;" d="M255.418,264.667c1.915,0.028,3.137-0.512,3.137,0.355c0,1.535-3.829,2.111-8.555,2.111c-4.725,0-8.555-0.576-8.555-2.111c0-0.964,1.511-0.032,3.805-0.022c1.359,0.006,2.993-1.025,4.75-1.025C252.056,263.975,253.942,264.645,255.418,264.667z"></path><ellipse style="fill:#FFFFFF;" cx="254.207" cy="265.343" rx="0.869" ry="0.656"></ellipse></g><path style="fill:none;stroke:#E6597D;stroke-linecap:round;stroke-linejoin:round;" d="M239.244,259.867c-1.256,2.871,0.897,4.665,4.127,5.203c3.23,0.539,4.666-0.896,6.64-0.896s1.432,0.625,5.024,0.718c4.308,0.112,6.349-1.862,6.057-4.128"></path></g></g></svg>