<svg xmlns="http://www.w3.org/2000/svg" width="500" height="500" version="1.1"><g id="x001"><g><g><g><path style="fill:#FFDEDE;" d="M258.555,262.855c0,1.535-3.829,4.278-8.555,4.278c-4.725,0-8.555-2.743-8.555-4.278s3.83,0.717,8.555,0.717C254.726,263.572,258.555,261.32,258.555,262.855z"></path><ellipse style="fill:#FFFFFF;" cx="254.207" cy="265.343" rx="0.869" ry="0.656"></ellipse></g></g><g><g><path style="fill:none;stroke:#E6597D;stroke-linecap:round;stroke-linejoin:round;" d="M248.284,264.288c-2.405-0.17-3.877-0.538-5.558-1.011c-3.307-0.93-3.705-1.604-3.705-1.604"></path></g><path style="fill:#E6597D;" d="M241.273,262.432c-2.101-0.86-2.384-2.429-3.004-2.411c-0.62,0.018-1.529,1.435,1.665,2.801C241.141,262.95,241.536,262.639,241.273,262.432z"></path><g><path style="fill:none;stroke:#E6597D;stroke-linecap:round;stroke-linejoin:round;" d="M251.344,264.288c2.404-0.17,3.877-0.538,5.558-1.011c3.308-0.93,3.705-1.604,3.705-1.604"></path></g><path style="fill:#E6597D;" d="M258.354,262.432c2.102-0.86,2.385-2.429,3.005-2.411c0.619,0.018,1.528,1.435-1.665,2.801C258.486,262.95,258.091,262.639,258.354,262.432z"></path></g></g></g></svg>