<svg xmlns="http://www.w3.org/2000/svg" width="500" height="500" version="1.1"><g id="x019"><g><g><path style="fill:#FFDEDE;" d="M253.083,261.917c2.667,1.083,4.167,1.583,5.472,0.938c0,1.535-3.829,4.278-8.555,4.278c-4.725,0-8.555-2.743-8.555-4.278c0.638,0.228,2.971-0.605,4.638-0.605c0.908,0.138,2.896,1.167,3.917,1.167C251.317,263.417,251.969,262.119,253.083,261.917z"></path><ellipse style="fill:#FFFFFF;" cx="254.207" cy="265.343" rx="0.869" ry="0.656"></ellipse></g><path style="fill:none;stroke:#E6597D;stroke-linecap:round;stroke-linejoin:round;" d="M237.229,263.467c0.074-0.519,2.519-1.549,2.519-1.549c0.789,0,1.818,0.957,2.886,0.957c0.45,0,2.51-0.957,3.011-0.957c0.561,0,3.228,1.327,3.8,1.327c0.488,0,3.065-1.259,3.553-1.259c0.573,0,3.733,1.406,4.294,1.406c0.501,0,3.271-1.475,4.06-1.475c0,0,1.123,0.809,1.419,1.475"></path></g></g></svg>