<svg xmlns="http://www.w3.org/2000/svg" width="500" height="500" version="1.1"><g id="x021"><g><path style="fill:#FFDEDE;" d="M261,262.106c0,1.535-4.924,5.478-11,5.478c-6.075,0-11-3.942-11-5.478c5.62-0.772,8.13,1.811,11,0.285C253.229,264.084,256.934,261.501,261,262.106z"></path><g><g><ellipse style="fill:#FFFFFF;" cx="253.874" cy="265.176" rx="0.869" ry="0.656"></ellipse></g></g><g><path style="fill:#FEE6DB;" d="M255.215,267.257c0,0.917-2.335,2.713-5.215,2.713c-2.88,0-5.215-1.796-5.215-2.713s2.335-0.61,5.215-0.61S255.215,266.34,255.215,267.257z"></path><path style="fill:#E6597D;" d="M255.625,266.658c0,0.747-2.519,1.355-5.625,1.355s-5.625-0.608-5.625-1.355c0-0.749,2.519,0.149,5.625,0.149S255.625,265.908,255.625,266.658z"></path><path style="fill:#FEE6DB;" d="M249.413,261.727c-5.142,0-7.026,0.458-7.026,0.458c2.24,1.273,7.026,1.222,7.026,1.222s4.785,0.052,7.025-1.222C256.438,262.185,254.555,261.727,249.413,261.727z"></path><g><path style="fill:none;stroke:#E6597D;stroke-linecap:round;stroke-linejoin:round;" d="M248.263,262.951c-1.167-0.5-2.241-0.596-3.083-0.541c-2.728,0.177-4.889-0.283-6.591-0.591c-4.612-0.832-5.852-2.312-5.852-2.312"></path><path style="fill:none;stroke:#E6597D;stroke-linecap:round;stroke-linejoin:round;" d="M251.736,262.951c1.168-0.5,2.241-0.596,3.084-0.541c2.728,0.177,4.889-0.283,6.591-0.591c4.612-0.832,5.852-2.312,5.852-2.312"></path></g></g></g></g></svg>