<svg xmlns="http://www.w3.org/2000/svg" width="500" height="500" version="1.1"><g id="x023"><g><path style="fill:#FFDEDE;" d="M258.555,262.855c0,1.535-3.829,1.716-8.555,1.716c-4.725,0-8.555-0.181-8.555-1.716s3.83-1.443,8.555-1.443C254.726,261.412,258.555,261.32,258.555,262.855z"></path><ellipse style="fill:#FFFFFF;" cx="254.207" cy="263.28" rx="0.869" ry="0.656"></ellipse></g><g><g><g><g><path style="fill:none;stroke:#E6597D;stroke-linecap:round;stroke-linejoin:round;" d="M249.944,261.375c-4.74,0-7.171,1.313-7.171,1.313"></path></g></g></g><path style="fill:#E6597D;" d="M243.016,263.104c0,0-1.013,0.75-1.148,0.625c-0.135-0.125-0.621-0.313-0.202-0.959c0.128-0.198,1.35-0.771,1.472-0.771C243.097,262.354,243.016,263.104,243.016,263.104z"></path><g><g><g><path style="fill:none;stroke:#E6597D;stroke-linecap:round;stroke-linejoin:round;" d="M250.056,261.375c4.74,0,7.171,1.313,7.171,1.313"></path></g></g></g><path style="fill:#E6597D;" d="M256.983,263.104c0,0,1.013,0.75,1.147,0.625s0.621-0.313,0.203-0.959c-0.129-0.198-1.351-0.771-1.473-0.771C256.902,262.354,256.983,263.104,256.983,263.104z"></path></g></g></svg>