<svg xmlns="http://www.w3.org/2000/svg" width="500" height="500" version="1.1"><g id="x002"><g><g><path style="fill:#FFDEDE;" d="M258.555,262.855c0,1.535-3.829,4.278-8.555,4.278c-4.725,0-8.555-2.743-8.555-4.278s3.83,1.119,8.555,1.119C254.726,263.975,258.555,261.32,258.555,262.855z"></path><ellipse style="fill:#FFFFFF;" cx="254.207" cy="265.343" rx="0.869" ry="0.656"></ellipse></g><g><g><g><g><path style="fill:none;stroke:#E6597D;stroke-linecap:round;stroke-linejoin:round;" d="M250.055,264.744c4.741,0,7.171-1.313,7.171-1.313"></path></g></g></g><path style="fill:#E6597D;" d="M256.983,263.015c0,0,1.013-0.75,1.147-0.625s0.621,0.313,0.202,0.959c-0.128,0.198-1.35,0.771-1.472,0.771C256.902,263.765,256.983,263.015,256.983,263.015z"></path><g><g><g><path style="fill:none;stroke:#E6597D;stroke-linecap:round;stroke-linejoin:round;" d="M249.943,264.744c-4.74,0-7.171-1.313-7.171-1.313"></path></g></g></g><path style="fill:#E6597D;" d="M243.016,263.015c0,0-1.013-0.75-1.147-0.625s-0.621,0.313-0.203,0.959c0.129,0.198,1.351,0.771,1.473,0.771C243.097,263.765,243.016,263.015,243.016,263.015z"></path></g></g></g></svg>