<svg xmlns="http://www.w3.org/2000/svg" width="500" height="500" version="1.1"><g id="x030"><g><g><path style="fill:#FFDEDE;" d="M258.555,262.918c0,1.535-3.829,3.028-8.555,3.028c-4.725,0-8.555-1.493-8.555-3.028s3.83-0.131,8.555-0.131C254.726,262.787,258.555,261.383,258.555,262.918z"></path><ellipse style="fill:#FFFFFF;" cx="254.207" cy="264.155" rx="0.869" ry="0.656"></ellipse></g><g><path style="fill:#FFA1A6;stroke:#E6597D;stroke-linecap:round;stroke-linejoin:round;" d="M237.083,261.084c0,0,0.834,0.833,7.667,1.336"></path><path style="fill:none;stroke:#E6597D;stroke-linecap:round;stroke-linejoin:round;" d="M265.5,261.25c0,0-0.833,0.167-2.924,0.377c-0.659,0.957-1.909,2.206-1.909,2.206s-1.667-0.999-2.403-1.635c-2.341,0.221-5.366,0.386-9.18,0.386"></path></g></g></g></svg>