<svg xmlns="http://www.w3.org/2000/svg" width="500" height="500" version="1.1"><g id="x035"><g><g><path style="fill:#FFDEDE;" d="M258.555,267.119c0,1.535-3.829,4.278-8.555,4.278c-4.725,0-8.555-2.743-8.555-4.278s3.83,1.119,8.555,1.119C254.726,268.238,258.555,265.584,258.555,267.119z"></path><ellipse style="fill:#FFFFFF;" cx="254.207" cy="269.606" rx="0.869" ry="0.656"></ellipse></g><path style="fill:#FFA1A6;stroke:#E6597D;stroke-linecap:round;stroke-linejoin:round;" d="M261.438,258.8c-0.416-0.504-5.848-1.208-11.438-1.116c-5.59-0.092-11.022,0.612-11.438,1.116c-0.859,1.042,1.114,10.297,11.438,10.635C260.323,269.097,262.296,259.842,261.438,258.8z"></path><g><path style="fill:#FDFFFC;" d="M250.063,258.1c-6.438,0-10.595,0.882-10.595,0.882s3.825,1.65,10.531,1.65c6.707,0,10.531-1.65,10.531-1.65S256.502,258.1,250.063,258.1z"></path></g></g></g></svg>