<svg xmlns="http://www.w3.org/2000/svg" width="500" height="500" version="1.1"><g id="x036"><g><g><path style="fill:#FFDEDE;" d="M258.555,265.82c0,1.535-3.829,4.278-8.555,4.278c-4.725,0-8.555-2.743-8.555-4.278s3.83,1.119,8.555,1.119C254.726,266.939,258.555,264.285,258.555,265.82z"></path><ellipse style="fill:#FFFFFF;" cx="254.207" cy="268.308" rx="0.869" ry="0.656"></ellipse></g><g><path style="fill:#FFA1A6;stroke:#E6597D;stroke-linecap:round;stroke-linejoin:round;" d="M259.518,261.36c-0.346-0.307-4.866-0.735-9.518-0.68c-4.652-0.056-9.172,0.373-9.518,0.68c-0.715,0.634,0.927,6.267,9.518,6.472C258.591,267.627,260.232,261.994,259.518,261.36z"></path><path style="fill:#FDFFFC;" d="M250,261.188c-5.98,0-9,0.5-9,0.5c2.665,1.25,9,1.188,9,1.188s6.335,0.063,9-1.188C259,261.688,255.98,261.188,250,261.188z"></path></g></g></g></svg>