<svg xmlns="http://www.w3.org/2000/svg" width="500" height="500" version="1.1"><g id="x039"><g><g><path style="fill:#FFDEDE;" d="M256.5,266.508c0,1.535-2.909,4.278-6.5,4.278c-3.59,0-6.5-2.743-6.5-4.278s2.91,1.119,6.5,1.119C253.591,267.627,256.5,264.973,256.5,266.508z"></path><ellipse style="fill:#FFFFFF;" cx="254.207" cy="268.308" rx="0.869" ry="0.656"></ellipse></g><g><g><g><path style="fill:#FFA1A6;stroke:#E6597D;stroke-linecap:round;stroke-linejoin:round;" d="M255.589,260.171c0,0-2.746-1.144-5.478-1.542h-0.338c-2.732,0.398-5.478,1.542-5.478,1.542s-1.623-0.199-2.196-0.646c0,8.753,7.674,9.35,7.674,9.35h0.338c0,0,7.673-0.597,7.673-9.35C257.211,259.972,255.589,260.171,255.589,260.171z"></path></g><path style="fill:none;stroke:#E6597D;stroke-linecap:round;stroke-linejoin:round;" d="M241.125,258.758c0.821,1.492,3.179,1.207,3.179,1.207s1.196-0.401,2.675-0.852c0.893-0.271,1.889-0.484,2.788-0.484c1.046,0,2.211,0.316,3.189,0.676c1.247,0.457,2.186,0.783,2.186,0.783s2.293,0.36,3.734-1.33"></path></g></g></g></g></svg>