<svg xmlns="http://www.w3.org/2000/svg" width="500" height="500" version="1.1"><g id="x003"><g><g><path style="fill:#FFDEDE;" d="M258.555,261.855c0,1.535-3.829,5.562-8.555,5.562c-4.725,0-8.555-4.026-8.555-5.562s3.83,0.717,8.555,0.717C254.726,262.572,258.555,260.32,258.555,261.855z"></path><ellipse style="fill:#FFFFFF;" cx="254.207" cy="264.343" rx="0.869" ry="0.656"></ellipse></g><g><g><g><g><path style="fill:none;stroke:#E6597D;stroke-linecap:round;stroke-linejoin:round;" d="M250.055,263.744c4.741,0,7.171-1.313,7.171-1.313"></path></g></g></g><path style="fill:#E6597D;" d="M256.983,262.015c0,0,1.013-0.75,1.147-0.625s0.621,0.313,0.202,0.959c-0.128,0.198-1.35,0.771-1.472,0.771C256.902,262.765,256.983,262.015,256.983,262.015z"></path><g><g><g><path style="fill:none;stroke:#E6597D;stroke-linecap:round;stroke-linejoin:round;" d="M249.943,263.744c-4.74,0-7.171-1.313-7.171-1.313"></path></g></g></g><path style="fill:#E6597D;" d="M243.016,262.015c0,0-1.013-0.75-1.147-0.625s-0.621,0.313-0.203,0.959c0.129,0.198,1.351,0.771,1.473,0.771C243.097,262.765,243.016,262.015,243.016,262.015z"></path></g><g><g><g><g><path style="fill:none;stroke:#E6597D;stroke-linecap:round;stroke-linejoin:round;" d="M250.023,266.567c2.031,0,3.072-0.563,3.072-0.563"></path></g></g></g><g><g><g><path style="fill:none;stroke:#E6597D;stroke-linecap:round;stroke-linejoin:round;" d="M249.976,266.567c-2.031,0-3.072-0.563-3.072-0.563"></path></g></g></g></g></g></g></svg>