<svg xmlns="http://www.w3.org/2000/svg" width="500" height="500" version="1.1"><g id="x040"><g><g><path style="fill:#FFDEDE;" d="M258.555,270.32c0,1.535-3.829,4.278-8.555,4.278c-4.725,0-8.555-2.743-8.555-4.278s3.83,1.119,8.555,1.119C254.726,271.439,258.555,268.785,258.555,270.32z"></path><ellipse style="fill:#FFFFFF;" cx="254.207" cy="272.808" rx="0.869" ry="0.656"></ellipse></g><g><path style="fill:#FFA1A6;stroke:#E6597D;stroke-linecap:round;stroke-linejoin:round;" d="M264.666,259.417c-0.456-0.58-5.087-2.812-14.666-2.831c-9.579,0.02-14.21,2.251-14.667,2.831c-0.457,0.581,3.637,12.612,14.667,12.704C261.029,272.029,265.123,259.998,264.666,259.417z"></path><path style="fill:#FDFFFC;" d="M250,257.125c-9.825,0-14.063,2.5-14.063,2.5c2.763,1.125,14.063,1.063,14.063,1.063s11.299,0.063,14.063-1.063C264.063,259.625,259.825,257.125,250,257.125z"></path></g></g></g></svg>