<svg xmlns="http://www.w3.org/2000/svg" width="500" height="500" version="1.1"><g id="x041"><g><g><path style="fill:#FFDEDE;" d="M258.555,265.258c0,1.535-3.829,5.778-8.555,5.778c-4.725,0-8.555-4.243-8.555-5.778s3.83,2.619,8.555,2.619C254.726,267.877,258.555,263.723,258.555,265.258z"></path><ellipse style="fill:#FFFFFF;" cx="254.207" cy="269.245" rx="0.869" ry="0.656"></ellipse></g><g><path style="fill:#FFA1A6;stroke:#E6597D;stroke-linecap:round;stroke-linejoin:round;" d="M258.59,258.038c-1.623-0.691-15.505-0.692-17.128-0.001c-2.238,0.953-1.087,10.838,8.423,10.839C259.395,268.876,260.826,258.991,258.59,258.038z"></path><g><path style="fill:#FFFFFF;stroke:#A84A56;stroke-linecap:round;stroke-linejoin:round;" d="M253.197,257.877c0,0,1.584,4.166,2.834,4.166c1.338,0,2.584-4,2.584-4"></path><path style="fill:#FFFFFF;stroke:#A84A56;stroke-linecap:round;stroke-linejoin:round;" d="M246.951,257.877c0,0-1.584,4.166-2.834,4.166c-1.337,0-2.583-4-2.583-4"></path></g></g><path style="fill:none;stroke:#E6597D;stroke-linecap:round;stroke-linejoin:round;" d="M258.59,258.038c-1.623-0.691-15.505-0.692-17.128-0.001c-2.238,0.953-1.087,10.838,8.423,10.839C259.395,268.876,260.826,258.991,258.59,258.038z"></path></g></g></svg>