<svg xmlns="http://www.w3.org/2000/svg" width="500" height="500" version="1.1"><g id="x042"><g><g><path style="fill:#FFDEDE;" d="M258.555,268.383c0,1.535-3.829,7.466-8.555,7.466c-4.725,0-8.555-5.931-8.555-7.466s3.83,4.307,8.555,4.307C254.726,272.689,258.555,266.848,258.555,268.383z"></path><ellipse style="fill:#FFFFFF;" cx="254.207" cy="274.058" rx="0.869" ry="0.656"></ellipse></g><g><path style="fill:#FFA1A6;stroke:#E6597D;stroke-linecap:round;stroke-linejoin:round;" d="M258.677,255.856c-1.201-0.064-6.076,0.686-8.563-1.896c-4.138,2.957-7.388,1.957-8.565,1.896c-2.237,1.648-1.087,17.746,8.423,17.746C259.481,273.604,260.913,257.507,258.677,255.856z"></path><g><path style="fill:#FFFFFF;stroke:#A84A56;stroke-linecap:round;stroke-linejoin:round;" d="M253.584,255.86c0,0,1.584,4.166,2.834,4.166c1.337,0,2.583-4,2.583-4L253.584,255.86z"></path><path style="fill:#FFFFFF;stroke:#A84A56;stroke-linecap:round;stroke-linejoin:round;" d="M246.738,255.86c0,0-1.585,4.166-2.835,4.166c-1.337,0-2.583-4-2.583-4L246.738,255.86z"></path></g><path style="fill:none;stroke:#E6597D;stroke-linecap:round;stroke-linejoin:round;" d="M239.566,254.692c0,0,0.464,1.234,4.406,1.234c4.753,0,6.058-2.166,6.058-2.166s1.245,2.166,5.998,2.166c3.941,0,4.405-1.234,4.405-1.234"></path></g></g></g></svg>