<svg xmlns="http://www.w3.org/2000/svg" width="500" height="500" version="1.1"><g id="x043"><g><g><path style="fill:#FFDEDE;" d="M258.555,269.133c0,1.535-3.829,4.278-8.555,4.278c-4.725,0-8.555-2.743-8.555-4.278s3.83,1.119,8.555,1.119C254.726,270.252,258.555,267.598,258.555,269.133z"></path><ellipse style="fill:#FFFFFF;" cx="254.207" cy="271.62" rx="0.869" ry="0.656"></ellipse></g><g><path style="fill:#FFA1A6;stroke:#E6597D;stroke-linecap:round;stroke-linejoin:round;" d="M264.666,258.417c-0.456-0.58-5.087-2.812-14.666-2.831c-9.579,0.02-14.21,2.251-14.667,2.831c-0.457,0.581,3.637,12.612,14.667,12.704C261.029,271.029,265.123,258.998,264.666,258.417z"></path><g><path style="fill:#FDFFFC;" d="M250,256.125c-9.825,0-14.063,2.5-14.063,2.5c2.763,1.125,14.063,1.063,14.063,1.063s11.299,0.063,14.063-1.063C264.063,258.625,259.825,256.125,250,256.125z"></path><g><path style="fill:#FDFFFC;" d="M261.979,258.709c0,0-1.854,3.563-2.813,3.563s-2.938-4.063-2.938-4.063L261.979,258.709z"></path><path style="fill:#FDFFFC;" d="M238.021,258.709c0,0,1.854,3.563,2.813,3.563s2.938-4.063,2.938-4.063L238.021,258.709z"></path></g></g></g></g></g></svg>