<svg xmlns="http://www.w3.org/2000/svg" width="500" height="500" version="1.1"><g id="x044"><g><g><path style="fill:#FFDEDE;" d="M258.555,271.195c0,1.535-3.829,4.278-8.555,4.278c-4.725,0-8.555-2.743-8.555-4.278s3.83,1.119,8.555,1.119C254.726,272.314,258.555,269.66,258.555,271.195z"></path><ellipse style="fill:#FFFFFF;" cx="254.207" cy="273.683" rx="0.869" ry="0.656"></ellipse></g><path style="fill:#FFA1A6;stroke:#E6597D;stroke-linecap:round;stroke-linejoin:round;" d="M249.956,258.761c-7.473,0-12.415,4.135-11.691,8.084c0.347,1.893,1.446,3.351,3.271,4.361c0.065,1.535,0.52,3.724,1.893,4.606c1.372,0.882,1.894-1.565,2.09-3.297c1.335,0.233,2.846,0.355,4.54,0.355c7.111,0,10.955-2.08,11.677-6.026C262.459,262.896,257.43,258.761,249.956,258.761z"></path></g></g></svg>