<svg xmlns="http://www.w3.org/2000/svg" width="500" height="500" version="1.1"><g id="x045"><g><g><path style="fill:#FFDEDE;" d="M258.555,265.82c0,1.535-3.829,3.617-8.555,3.617c-4.725,0-8.555-2.082-8.555-3.617s3.83,1.119,8.555,1.119C254.726,266.939,258.555,264.285,258.555,265.82z"></path><ellipse style="fill:#FFFFFF;" cx="254.207" cy="268.308" rx="0.869" ry="0.656"></ellipse></g><path style="fill:#FFA1A6;stroke:#E6597D;stroke-linecap:round;stroke-linejoin:round;" d="M262.166,260.667c-0.708-0.646-2.604-1.167-5.666-0.334c-2.703,0.735-5.626,0.991-6.5,0.979c-0.874,0.012-3.796-0.244-6.5-0.979c-3.063-0.833-4.958-0.312-5.667,0.334s-2.625,2.834-0.958,4.5c1.591,1.591,8.406,1.412,13.125,1.25c4.719,0.162,11.534,0.341,13.125-1.25C264.791,263.501,262.875,261.313,262.166,260.667z"></path></g></g></svg>