<svg xmlns="http://www.w3.org/2000/svg" width="500" height="500" version="1.1"><g id="x047"><g><g><path style="fill:#FFDEDE;" d="M253.875,266.82c0,1.535-1.734,4.278-3.875,4.278c-2.14,0-3.875-2.743-3.875-4.278s1.735,1.119,3.875,1.119C252.141,267.939,253.875,265.285,253.875,266.82z"></path><ellipse style="fill:#FFFFFF;" cx="251.519" cy="269.245" rx="0.869" ry="0.656"></ellipse></g><g><path style="fill:#FFA1A6;stroke:#E6597D;stroke-linecap:round;stroke-linejoin:round;" d="M250,259.833c-3.031,0.342-3.888,5.397-3.349,6.775c0.531,1.356,1.72,1.596,3.349,1.555c1.629,0.041,2.817-0.198,3.35-1.554C253.888,265.23,253.03,260.175,250,259.833z"></path><path style="fill:#FDFFFC;" d="M250,260.313c-0.313,0-1.25,0.333-1.479,0.854c0.291,0.313,1.479,0.375,1.479,0.375s1.188-0.063,1.479-0.375C251.25,260.646,250.313,260.313,250,260.313z"></path></g></g></g></svg>