<svg xmlns="http://www.w3.org/2000/svg" width="500" height="500" version="1.1"><g id="x048"><g><g><path style="fill:#FFDEDE;" d="M258.555,265.82c0,1.535-3.829,4.278-8.555,4.278c-4.725,0-8.555-2.743-8.555-4.278s3.83,1.119,8.555,1.119C254.726,266.939,258.555,264.285,258.555,265.82z"></path><ellipse style="fill:#FFFFFF;" cx="254.207" cy="268.308" rx="0.869" ry="0.656"></ellipse></g><g><path style="fill:#FFA1A6;stroke:#E6597D;stroke-linecap:round;stroke-linejoin:round;" d="M256,259.966c-0.498-0.208-3.229-0.116-5.969-0.116c-2.761-0.001-5.529-0.093-6.031,0.116c-1,0.417-4.166,4.501-2.583,5.917s5.583,1.75,8.583,1.75s7-0.334,8.584-1.75C260.166,264.467,257,260.383,256,259.966z"></path><path style="fill:#FDFFFC;" d="M250,260.282l-5.646,0.074c0,0,2.05,1.65,5.646,1.65c3.596,0,5.646-1.65,5.646-1.65L250,260.282z"></path></g></g></g></svg>