<svg xmlns="http://www.w3.org/2000/svg" width="500" height="500" version="1.1"><g id="x049"><g><g><path style="fill:#FFDEDE;" d="M258.555,273.633c0,1.535-3.829,4.278-8.555,4.278c-4.725,0-8.555-2.743-8.555-4.278s3.83,1.119,8.555,1.119C254.726,274.752,258.555,272.098,258.555,273.633z"></path><ellipse style="fill:#FFFFFF;" cx="254.207" cy="276.12" rx="0.869" ry="0.656"></ellipse></g><path style="fill:#FFA1A6;stroke:#E6597D;stroke-linecap:round;stroke-linejoin:round;" d="M249.75,253.76c-12.727,0.212-14.844,14.057-12.942,17.615c1.845,3.43,9.533,4.01,12.942,4.039c3.41-0.029,11.098-0.609,12.942-4.039C264.595,267.816,262.477,253.972,249.75,253.76z"></path><g><path style="fill:#E6597D;" d="M243.923,255c0.694-0.625,6.069-1.25,6.069-1.25s5.374,0.625,6.067,1.25c2.69,1.583,10.23,10,6.415,16.625c0,0-1.907-3.5-12.482-3.5c-10.576,0-12.482,3.5-12.482,3.5C233.695,265,240.147,257.5,243.923,255z"></path></g></g></g></svg>