<svg xmlns="http://www.w3.org/2000/svg" width="500" height="500" version="1.1"><g id="x050"><g><g><path style="fill:#FFDEDE;" d="M258.555,270.195c0,1.535-3.829,4.278-8.555,4.278c-4.725,0-8.555-2.743-8.555-4.278s3.83-0.258,8.555-0.258C254.726,269.938,258.555,268.66,258.555,270.195z"></path><ellipse style="fill:#FFFFFF;" cx="254.207" cy="272.683" rx="0.869" ry="0.656"></ellipse></g><g><path style="fill:#FFA1A6;stroke:#E6597D;stroke-linecap:round;stroke-linejoin:round;" d="M264.462,264.25c-0.168-3.417-3.334-8.666-4-8.25c-0.084,0.75-5.25,1.167-6.584,0.834c-1.332-0.333-7.667-0.333-9,0s-6.5-0.084-6.583-0.834c-0.667-0.416-3.833,2.833-4,6.25s1,8.916,3.667,9.25s5.833-0.416,7.083-0.583s4.333-0.417,4.333-0.417s3.083,0.25,4.333,0.417s4.416,0.917,7.084,0.583C263.462,271.166,264.628,267.667,264.462,264.25z"></path><path style="fill:#E6597D;" d="M264.047,260.833c-0.75-2.25-3.583-4.75-3.583-4.75s-6,1.083-6.25,1.083c-0.216,0-3.851-0.496-4.835-0.632c-0.985,0.136-4.617,0.632-4.833,0.632c-0.25,0-6.25-1.083-6.25-1.083s-2.833,2.5-3.583,4.75s-0.083,8.251,1.75,9.667c0.917-0.917,2.333-2.083,3.417-1.75c0,0,1.241-3.612,9.5-3.662c8.261,0.05,9.502,3.662,9.502,3.662c1.084-0.333,2.5,0.833,3.416,1.75C264.131,269.084,264.797,263.083,264.047,260.833z"></path><g><path style="fill:#FDFFFC;stroke:#E6597D;stroke-linecap:round;stroke-linejoin:round;" d="M239.197,271.167c0,0-1.584,0.167-2.167-0.833c0.167-0.667,1.083-1.834,2.75-2.084C239.197,269.417,239.197,271.167,239.197,271.167z"></path><path style="fill:#FDFFFC;stroke:#E6597D;stroke-linecap:round;stroke-linejoin:round;" d="M259.561,271.167c0,0,1.584,0.167,2.167-0.833c-0.167-0.667-1.083-1.834-2.75-2.084C259.561,269.417,259.561,271.167,259.561,271.167z"></path></g></g></g></g></svg>