<svg xmlns="http://www.w3.org/2000/svg" width="500" height="500" version="1.1"><g id="x051"><g><g><path style="fill:#FFDEDE;" d="M258.555,273.582c0,1.535-3.829,4.278-8.555,4.278c-4.725,0-8.555-2.743-8.555-4.278s3.83,1.119,8.555,1.119C254.726,274.701,258.555,272.047,258.555,273.582z"></path><ellipse style="fill:#FFFFFF;" cx="254.207" cy="276.069" rx="0.869" ry="0.656"></ellipse></g><g><g><path style="fill:#FFA1A6;stroke:#E6597D;stroke-linecap:round;stroke-linejoin:round;" d="M250.04,253.75c2.774,0,4.572,0.207,6.332,1.25c0.324,1.25,0.812,3.25,0.812,3.25s2.273-1,3.086-1.375c3.539,4.438,4.232,12.195,2.997,14.498c-1.892,3.528-9.979,4.044-13.227,4.044c-3.249,0-11.335-0.516-13.232-4.042C234.891,267.789,237.05,253.75,250.04,253.75z"></path></g><path style="fill:#E6597D;" d="M243.923,255c0.694-0.625,6.069-1.25,6.069-1.25s5.374,0.625,6.067,1.25c0,1.375,0.867,3.25,0.867,3.25l3.294-1.375c0,0,6.169,8.125,2.354,14.75c0,0-2.007-3.5-12.582-3.5c-10.576,0-12.482,3.5-12.482,3.5C233.695,265,240.147,257.5,243.923,255z"></path></g></g></g></svg>