<svg xmlns="http://www.w3.org/2000/svg" width="500" height="500" version="1.1"><g id="x053"><g><g><path style="fill:#FFDEDE;" d="M258.555,266.258c0,1.535-3.829,4.278-8.555,4.278c-4.725,0-8.555-2.743-8.555-4.278S245.275,266,250,266C254.726,266,258.555,264.723,258.555,266.258z"></path><ellipse style="fill:#FFFFFF;" cx="254.207" cy="268.745" rx="0.869" ry="0.656"></ellipse></g><path style="fill:#FFA1A6;stroke:#E6597D;stroke-linecap:round;stroke-linejoin:round;" d="M262.325,263.928c-0.696-0.374-8.168-1.588-9.106-1.986c-0.938-0.399-2.334-1.637-3.658-1.881c-1.322-0.246-5.097,2.302-6.26,2.272c-1.163-0.028-4.043-0.048-5.366,1.386c0,0-1.215,2.137-0.634,2.99c0.104,0.152,0.526,0.23,1.158,0.259c-0.123,0.959-0.229,2.384,0.168,2.748c0.613,0.561,0.502,0.45,1.504,0.264c0.843-0.156,1.175-2.386,1.26-3.094c3.425-0.224,8-0.78,9.662-0.84c2.709-0.098,9.595,3.124,10.76,2.562S263.021,264.3,262.325,263.928z"></path></g></g></svg>