<svg xmlns="http://www.w3.org/2000/svg" width="500" height="500" version="1.1"><g id="x055"><path style="fill:#FFDEDE;" d="M258.294,262.656c1.093,1.078-3.829,2.78-8.555,2.78c-4.724,0-8.554-1.245-8.554-2.78c0-0.281,3.83-1.281,8.554-1.281C254.465,261.375,258.225,262.588,258.294,262.656z"></path><g><circle style="fill:#FFFFFF;" cx="253.04" cy="263.979" r="0.869"></circle><path style="fill:none;stroke:#E6597D;stroke-linecap:round;stroke-linejoin:round;" d="M240.36,261.563c0.956,1.737,3.006,1.405,3.006,1.405s1.392-0.467,3.114-0.991c1.04-0.314,2.2,0.595,3.246,0.595c1.218,0,2.576-0.79,3.712-0.372c1.452,0.532,2.546,0.912,2.546,0.912s1.977,0.42,3.655-1.549"></path></g></g></svg>