<svg xmlns="http://www.w3.org/2000/svg" width="500" height="500" version="1.1"><g id="x056"><g><g><path style="fill:#FFDEDE;" d="M258.555,264.861c0,1.535-3.829,4.278-8.555,4.278c-4.725,0-8.555-2.743-8.555-4.278s3.83-0.258,8.555-0.258C254.726,264.604,258.555,263.326,258.555,264.861z"></path><ellipse style="fill:#FFFFFF;" cx="254.207" cy="267.349" rx="0.869" ry="0.656"></ellipse></g><g><path style="fill:#FFA1A6;stroke:#E6597D;stroke-linecap:round;stroke-linejoin:round;" d="M262.469,261.569c-0.566-0.28-6.747,0.555-12.469,0.584c-5.722-0.029-11.902-0.864-12.469-0.584c-0.568,0.284,6.302,4.931,12.469,4.931S263.037,261.854,262.469,261.569z"></path><path style="fill:#FDFFFC;" d="M250,262.4c-4.366,0-6.33-0.192-11.714-0.577c1.964,1.538,5.714,2.311,11.714,2.311s9.75-0.772,11.715-2.311C256.33,262.208,254.365,262.4,250,262.4z"></path></g></g></g></svg>