<svg xmlns="http://www.w3.org/2000/svg" width="500" height="500" version="1.1"><g id="x057"><g><g><path style="fill:#FFDEDE;" d="M258.555,268.028c0,1.535-3.829,4.278-8.555,4.278c-4.725,0-8.555-2.743-8.555-4.278s3.83-0.258,8.555-0.258C254.726,267.771,258.555,266.493,258.555,268.028z"></path><ellipse style="fill:#FFFFFF;" cx="254.207" cy="270.516" rx="0.869" ry="0.656"></ellipse></g><g><path style="fill:#FDFFFC;stroke:#E6597D;stroke-linecap:round;stroke-linejoin:round;" d="M258.818,260.865c-2.475,0.861-8.818,0.861-8.818,0.861s-6.345,0-8.819-0.861c-3.119,1.292-3.011,5.592-1.613,6.345c3.834,2.065,17.03,2.065,20.864,0C261.83,266.457,261.938,262.157,258.818,260.865z"></path><path style="fill:none;stroke:#E4E0F3;stroke-linecap:round;stroke-linejoin:round;" d="M239.733,263.843c0,0,1.336,1.246,6.536,1.564"></path><path style="fill:none;stroke:#E4E0F3;stroke-linecap:round;stroke-linejoin:round;" d="M260.264,263.843c0,0-1.336,1.246-6.535,1.564"></path></g></g></g></svg>