<svg xmlns="http://www.w3.org/2000/svg" width="500" height="500" version="1.1"><g id="x058"><g><g><path style="fill:#FFDEDE;" d="M258.555,266.695c0,1.535-3.829,4.278-8.555,4.278c-4.725,0-8.555-2.743-8.555-4.278s3.83-0.258,8.555-0.258C254.726,266.438,258.555,265.16,258.555,266.695z"></path><ellipse style="fill:#FFFFFF;" cx="254.207" cy="269.183" rx="0.869" ry="0.656"></ellipse></g><g><path style="fill:#FDFFFC;stroke:#E6597D;stroke-linecap:round;stroke-linejoin:round;" d="M261.438,259.76c-0.416-0.41-5.848,0.021-11.438,0.096c-5.59-0.075-11.022-0.506-11.438-0.096c-0.859,0.849,1.114,8.382,11.438,8.657C260.323,268.142,262.296,260.608,261.438,259.76z"></path><path style="fill:none;stroke:#E4E0F3;stroke-linecap:round;stroke-linejoin:round;" d="M239.733,261.968c0,0,1.336,1.246,6.536,1.564"></path><path style="fill:none;stroke:#E4E0F3;stroke-linecap:round;stroke-linejoin:round;" d="M260.264,261.968c0,0-1.336,1.246-6.535,1.564"></path><g><g><path style="fill:#E6597D;" d="M240.584,264.126c0-0.334-1.021-3.229,1.979-3.979c-1.854-0.104-3.083-0.225-3.708-0.058C238.646,262.068,240.584,264.126,240.584,264.126z"></path></g><g><path style="fill:#E6597D;" d="M259.414,264.126c0-0.334,1.02-3.229-1.98-3.979c1.855-0.104,3.084-0.225,3.709-0.058C261.352,262.068,259.414,264.126,259.414,264.126z"></path></g></g></g></g></g></svg>