<svg xmlns="http://www.w3.org/2000/svg" width="500" height="500" version="1.1"><g id="x059"><g><g><path style="fill:#FFDEDE;" d="M258.555,267.528c0,1.535-3.829,4.278-8.555,4.278c-4.725,0-8.555-2.743-8.555-4.278s3.83-0.258,8.555-0.258C254.726,267.271,258.555,265.993,258.555,267.528z"></path><ellipse style="fill:#FFFFFF;" cx="254.207" cy="270.016" rx="0.869" ry="0.656"></ellipse></g><g><g><g><path style="fill:#FDFFFC;stroke:#E6597D;stroke-linecap:round;stroke-linejoin:round;" d="M261.53,260.295c-1.088-0.276-6.292-0.891-11.495-0.891c-5.204,0-10.408,0.614-11.498,0.891c-3.004,0.76-1.46,8.646,11.306,8.646C262.61,268.941,264.532,261.055,261.53,260.295z"></path></g><polyline style="fill:none;stroke:#E4E0F3;stroke-linecap:round;stroke-linejoin:round;" points="239.63,260.817 243.884,266.092 246.266,262.008 249.838,266.262 "></polyline><polyline style="fill:none;stroke:#E4E0F3;stroke-linecap:round;stroke-linejoin:round;" points="260.558,260.817 256.304,266.092 253.922,262.008 250.349,266.262 "></polyline></g></g></g></g></svg>