<svg xmlns="http://www.w3.org/2000/svg" width="500" height="500" version="1.1"><g id="x005"><g><g><path style="fill:#FFDEDE;" d="M258.294,260.793c0,1.535-3.829,8.966-8.555,8.966c-4.725,0-8.554-7.118-8.554-9.153c0-1.535,3.83,7.27,8.554,7.27C254.465,267.875,258.294,259.258,258.294,260.793z"></path><ellipse style="fill:#FFFFFF;" cx="252.571" cy="267.968" rx="0.869" ry="0.656"></ellipse></g><g><g><g><g><g><g><path style="fill:none;stroke:#E6597D;stroke-linecap:round;stroke-linejoin:round;" d="M259.216,259.369c0,0-5.94,8.708-9.11,8.708"></path></g></g></g></g><g><g><g><g><path style="fill:none;stroke:#E6597D;stroke-linecap:round;stroke-linejoin:round;" d="M240.784,259.369c0,0,5.939,8.708,9.11,8.708"></path></g></g></g></g></g><g><path style="fill:#E6597D;" d="M240.723,259.99c0,0-1.223-1.022-1.223-2.017c0-0.441,0.508-0.833,0.845-0.538c0.337,0.294,1.097,2.182,1.097,2.182L240.723,259.99z"></path><path style="fill:#E6597D;" d="M259.276,259.99c0,0,1.224-1.022,1.224-2.017c0-0.441-0.509-0.833-0.845-0.538c-0.337,0.294-1.098,2.182-1.098,2.182L259.276,259.99z"></path></g></g></g></g></svg>