<svg xmlns="http://www.w3.org/2000/svg" width="500" height="500" version="1.1"><g id="x060"><g><g><path style="fill:#FFDEDE;" d="M258.555,268.529c0,1.535-3.829,4.278-8.555,4.278c-4.725,0-8.555-2.743-8.555-4.278s3.83-0.258,8.555-0.258C254.726,268.271,258.555,266.994,258.555,268.529z"></path><ellipse style="fill:#FFFFFF;" cx="254.207" cy="271.017" rx="0.869" ry="0.656"></ellipse></g><g><path style="fill:#FFFFFF;stroke:#E6597D;stroke-linecap:round;stroke-linejoin:round;" d="M263.5,259.167c0,0-9,1-13.5,1s-13.5-1-13.5-1s-2.666,0.166-3.5,1.5c3.25,6.25,12.749,9.25,17,9.25s13.75-3,17-9.25C266.166,259.333,263.5,259.167,263.5,259.167z"></path><path style="fill:none;stroke:#E4E0F3;stroke-linecap:round;stroke-linejoin:round;" d="M234.751,261.416c0,0,1.249,1.333,6.416,2"></path><path style="fill:none;stroke:#E4E0F3;stroke-linecap:round;stroke-linejoin:round;" d="M257.167,263.666c0,0,1.583-0.083,2-0.333c0.5,0.666,1.916,1.499,2.25,1.583s2.084-2.333,2.084-2.333l1.5-0.75"></path><g><path style="fill:#E6597D;" d="M235.781,263.531c0-0.334-1.53-3.032,1.47-3.782c-1.313-0.405-3.643,0.438-3.726,0.938C233.859,261.854,235.781,263.531,235.781,263.531z"></path></g><g><path style="fill:#E6597D;" d="M264.164,263.531c0-0.334,1.53-3.032-1.47-3.782c1.313-0.405,3.644,0.438,3.726,0.938C266.086,261.854,264.164,263.531,264.164,263.531z"></path></g></g></g></g></svg>