<svg xmlns="http://www.w3.org/2000/svg" width="500" height="500" version="1.1"><g id="x062"><g><g><path style="fill:#FFDEDE;" d="M258.555,265.361c0,1.535-3.829,4.278-8.555,4.278c-4.725,0-8.555-2.743-8.555-4.278s3.83-0.258,8.555-0.258C254.726,265.104,258.555,263.826,258.555,265.361z"></path><ellipse style="fill:#FFFFFF;" cx="254.207" cy="267.849" rx="0.869" ry="0.656"></ellipse></g><g><g><path style="fill:#FFFFFF;stroke:#E6597D;stroke-linecap:round;stroke-linejoin:round;" d="M262.166,259.667c-0.708-0.646-2.604-1.167-5.666-0.334c-2.703,0.735-5.626,0.991-6.5,0.979c-0.874,0.012-3.796-0.244-6.5-0.979c-3.063-0.833-4.958-0.312-5.667,0.334s-0.625,2.834,1.042,4.5c1.591,1.591,6.406,0.745,11.125,0.583c4.719,0.162,9.534,1.008,11.125-0.583C262.791,262.501,262.875,260.313,262.166,259.667z"></path><g><path style="fill:none;stroke:#E4E0F3;stroke-linecap:round;stroke-linejoin:round;" d="M238.695,262.324c0,0,2.13-0.233,4.135-0.148"></path><path style="fill:none;stroke:#E4E0F3;stroke-linecap:round;stroke-linejoin:round;" d="M261.304,262.324c0,0-2.13-0.233-4.135-0.148"></path></g></g></g></g></g></svg>