<svg xmlns="http://www.w3.org/2000/svg" width="500" height="500" version="1.1"><g id="x063"><g><g><path style="fill:#FFDEDE;" d="M258.555,263.029c0,1.535-3.829,4.278-8.555,4.278c-4.725,0-8.555-2.743-8.555-4.278s3.83-0.258,8.555-0.258C254.726,262.771,258.555,261.494,258.555,263.029z"></path><ellipse style="fill:#FFFFFF;" cx="254.207" cy="265.517" rx="0.869" ry="0.656"></ellipse></g><g><path style="fill:#FFFFFF;stroke:#E6597D;stroke-linecap:round;stroke-linejoin:round;" d="M260.458,261.167c-0.476-0.237-5.659,0.339-10.458,0.363c-4.799-0.024-9.982-0.601-10.458-0.363c-0.477,0.238,3.292,3.212,10.458,3.247C257.166,264.379,260.935,261.405,260.458,261.167z"></path><g><path style="fill:#E6597D;" d="M242.734,263.094c0.093,0.009-1.125-1.219,0.313-1.5c-1.375-0.531-2.875-0.5-2.875-0.5S240.109,262.844,242.734,263.094z"></path><path style="fill:#E6597D;" d="M257.266,263.094c-0.094,0.009,1.125-1.219-0.313-1.5c1.375-0.531,2.875-0.5,2.875-0.5S259.891,262.844,257.266,263.094z"></path></g></g></g></g></svg>