<svg xmlns="http://www.w3.org/2000/svg" width="500" height="500" version="1.1"><g id="x064"><g><path style="fill:#FFA1A6;stroke:#A84A56;stroke-linecap:round;stroke-linejoin:round;" d="M258.108,261.88c-0.886-5.445-8.108-5.285-8.108-5.285s-7.223-0.16-8.108,5.285c-1.371,8.437,5.71,12.034,8.108,12.034C252.398,273.914,259.479,270.315,258.108,261.88z"></path><path style="fill:#A84A56;" d="M257.594,260.418c-2.456-4.274-7.594-3.823-7.594-3.823s-5.139-0.451-7.594,3.823c-1.865,3.244,0.286,7.872,0.286,7.872s0.97-3.653,7.308-3.653c6.339,0,7.309,3.653,7.309,3.653S259.457,263.662,257.594,260.418z"></path><g><path style="fill:#FFFFFF;" d="M243.162,259.649c0,0,0.59,1.372,1.791,1.774c0.819-1.129,0.436-3.377,0.436-3.377S243.761,258.893,243.162,259.649z"></path><path style="fill:#FFFFFF;" d="M257.171,259.649c0,0-0.589,1.372-1.789,1.774c-0.819-1.129-0.438-3.377-0.438-3.377S256.572,258.893,257.171,259.649z"></path></g></g></g></svg>