<svg xmlns="http://www.w3.org/2000/svg" width="500" height="500" version="1.1"><g id="x065"><g><path style="fill:#FFDEDE;" d="M250,265.572c0,0-3.083,0.227-8.166,0.227c2,3.167,8.166,2.917,8.166,2.917s6.166,0.25,8.166-2.917C253.083,265.799,250,265.572,250,265.572z"></path><ellipse style="fill:#FFFFFF;" cx="250.583" cy="267.215" rx="1.417" ry="0.917"></ellipse><g><path style="fill:#FFFFFF;stroke:#A84A56;stroke-linecap:round;stroke-linejoin:round;" d="M250,262.523c-3.073,0-7.839,2.986-7.839,2.986l7.839,0.063l7.84-0.063C257.84,265.51,253.073,262.523,250,262.523z"></path><g><path style="fill:#A84A56;" d="M242.671,265.696c0,0-0.933,0.436-1.742,0.374c-0.585-0.046-1.493-0.996-1.12-1.12c0.373-0.125,2.426,0.373,2.862,0.187C242.484,265.386,242.671,265.696,242.671,265.696z"></path><path style="fill:#A84A56;" d="M257.329,265.696c0,0,0.934,0.436,1.742,0.374c0.585-0.046,1.493-0.996,1.12-1.12c-0.374-0.125-2.427,0.373-2.862,0.187C257.516,265.386,257.329,265.696,257.329,265.696z"></path></g></g><path style="fill:#A84A56;" d="M250,259.413c0,0-2.053-0.125-1.991,0.311c0.063,0.436,1.991,0.809,1.991,0.809s1.929-0.373,1.991-0.809C252.053,259.288,250,259.413,250,259.413z"></path><path style="fill:#A84A56;" d="M250,270.611c0,0-3.795,0.125-3.484,0.81c0.312,0.685,3.484,0.497,3.484,0.497s3.173,0.188,3.484-0.497C253.795,270.736,250,270.611,250,270.611z"></path></g></g></svg>