<svg xmlns="http://www.w3.org/2000/svg" width="500" height="500" version="1.1"><g id="x9064"><g><g><path style="fill:#FFDEDE;" d="M258.555,269.32c0,1.535-3.829,4.278-8.555,4.278c-4.725,0-8.555-2.743-8.555-4.278s3.83,1.119,8.555,1.119C254.726,270.439,258.555,267.785,258.555,269.32z"></path><ellipse style="fill:#FFFFFF;" cx="254.207" cy="271.808" rx="0.869" ry="0.656"></ellipse></g><g><path style="fill:#FFA1A6;stroke:#E6597D;stroke-linecap:round;stroke-linejoin:round;" d="M262.615,263.198c-0.393-0.426-4.376-1.184-12.615-1.198c-8.24,0.015-12.223,0.772-12.616,1.198c-0.393,0.428,3.129,7.063,12.616,7.13C259.487,270.262,263.008,263.626,262.615,263.198z"></path><path style="fill:#FDFFFC;" d="M250,262.396c-8.451,0-12.096,0.956-12.096,0.956C240.281,264.178,244.167,265,250,265s9.719-0.822,12.096-1.648C262.096,263.352,258.451,262.396,250,262.396z"></path></g></g></g></svg>