<svg xmlns="http://www.w3.org/2000/svg" width="500" height="500" version="1.1"><g id="x006"><g><path style="fill:#FFDEDE;" d="M256.663,262.125c-0.855,0.225-4.311,1.949-6.663,2.239c-2.352-0.29-5.808-2.015-6.663-2.239c-0.952-0.25-3.274-2.339-2.285-0.563c2.214,3.974,6.934,6.526,8.947,6.693c2.014-0.167,6.734-2.72,8.947-6.693C259.937,259.786,257.614,261.875,256.663,262.125z"></path><ellipse style="fill:#FFFFFF;" cx="253.883" cy="264.968" rx="0.869" ry="0.656"></ellipse><g><g><path style="fill:none;stroke:#E6597D;stroke-linecap:round;stroke-linejoin:round;" d="M239.252,260.688c0,0,2.304,0,3.575,0.813s3.575,2.551,6.991,2.551"></path><path style="fill:none;stroke:#E6597D;stroke-linecap:round;stroke-linejoin:round;" d="M260.75,260.688c0,0-2.304,0-3.574,0.813c-1.271,0.813-3.575,2.551-6.994,2.551"></path></g><g><path style="fill:none;stroke:#E6597D;stroke-linecap:round;stroke-linejoin:round;" d="M245.938,266.426c0,0,1,1.875,4.125,1.875"></path><path style="fill:none;stroke:#E6597D;stroke-linecap:round;stroke-linejoin:round;" d="M249.938,268.301c3.125,0,4.125-1.875,4.125-1.875"></path></g></g></g></g></svg>