<svg xmlns="http://www.w3.org/2000/svg" width="500" height="500" version="1.1"><g id="x9075"><g><g><path style="fill:#A84A56;" d="M223.78,262c-1.225-0.75-3.131-2.625-2.723-5.125c1.77,1.25,2.859,2.375,3.131,2.75c0.272,0.375,2.314,2.875,4.084,3.5C226.639,262.75,225.006,262.75,223.78,262z"></path><path style="fill:#A84A56;" d="M276.221,262c1.226-0.75,3.132-2.625,2.723-5.125c-1.77,1.25-2.858,2.375-3.131,2.75s-2.314,2.875-4.084,3.5C273.362,262.75,274.996,262.75,276.221,262z"></path></g><g><g><path style="fill:none;stroke:#A84A56;stroke-linecap:round;stroke-linejoin:round;" d="M239.338,269.007c0,0,5.439,0.993,10.662,0.993c5.222,0,10.661-0.993,10.661-0.993"></path><path style="fill:none;stroke:#A84A56;stroke-linecap:round;stroke-linejoin:round;" d="M223.317,260.5c2.011,3.538,15.334,3.538,17.633,2.948c2.299-0.59,8.07,1.614,8.932,1.614"></path><path style="fill:none;stroke:#A84A56;stroke-linecap:round;stroke-linejoin:round;" d="M250.118,265.063c0.864,0,6.633-2.204,8.933-1.614c2.297,0.59,15.62,0.59,17.632-2.948"></path></g></g></g></g></svg>