<svg xmlns="http://www.w3.org/2000/svg" width="500" height="500" version="1.1"><g id="x9077"><g><g><ellipse style="fill:#FFFFFF;" cx="252.314" cy="265.633" rx="1.234" ry="0.73"></ellipse><g><path style="fill:#F1B5B4;" d="M256.95,262.284c0,0-1.008-2.216-3.273-2.267c-2.267-0.05-3.677,1.158-3.677,1.158s-1.41-1.208-3.676-1.158c-2.266,0.051-3.273,2.267-3.273,2.267s-0.101,0.504-0.403,1.36c1.914,3.726,7.353,4.028,7.353,4.028s5.438-0.303,7.353-4.028C257.05,262.788,256.95,262.284,256.95,262.284z M250,264.047c-3.625,0-5.741-0.799-5.741-0.799c1.46-1.369,5.741-1.026,5.741-1.026s4.28-0.343,5.741,1.026C255.741,263.248,253.626,264.047,250,264.047z"></path><ellipse style="fill:#FFFFFF;" cx="252.459" cy="265.667" rx="1.625" ry="1"></ellipse></g><g><g><g><path style="fill:none;stroke:#A84A56;stroke-linecap:round;stroke-linejoin:round;" d="M241.219,263.846c0,0,0.907-0.906,2.216-1.209c1.309-0.302,4.28,0.453,5.54,0.353"></path><path style="fill:#A84A56;" d="M242.78,263.645c0,0-1.007,1.409-1.964,1.359c-0.957-0.051-1.561-0.957-1.158-1.461c0.403-0.503,3.173-0.755,3.173-0.755L242.78,263.645z"></path></g><g><path style="fill:none;stroke:#A84A56;stroke-linecap:round;stroke-linejoin:round;" d="M258.782,263.846c0,0-0.906-0.906-2.217-1.209c-1.309-0.302-4.28,0.453-5.539,0.353"></path><path style="fill:#A84A56;" d="M257.22,263.645c0,0,1.008,1.409,1.965,1.359c0.957-0.051,1.561-0.957,1.158-1.461s-3.172-0.755-3.172-0.755L257.22,263.645z"></path></g></g></g></g><path style="fill:none;stroke:#A84A56;stroke-linecap:round;stroke-linejoin:round;" d="M247.86,269.435c0,0,0.992,0.354,2.282,0.354c1.291,0,1.999-0.354,1.999-0.354"></path></g></g></svg>