<svg xmlns="http://www.w3.org/2000/svg" width="500" height="500" version="1.1"><g id="x007"><g><g><path style="fill:#FFDEDE;" d="M259.654,261.959c0,1.535-3.829,4.278-8.555,4.278c-4.724,0-8.554-2.743-8.554-4.278s3.83,1.119,8.554,1.119C255.825,263.078,259.654,260.424,259.654,261.959z"></path><ellipse style="fill:#FFFFFF;" cx="255.306" cy="264.446" rx="0.869" ry="0.656"></ellipse></g><g><g><g><g><g><path style="fill:none;stroke:#E6597D;stroke-linecap:round;stroke-linejoin:round;" d="M251.055,263.744c4.741,0,7.172-1.313,7.172-1.313"></path></g></g></g><path style="fill:#E6597D;" d="M257.983,262.015c0,0,1.013-0.75,1.147-0.625s0.621,0.313,0.202,0.959c-0.128,0.198-1.35,0.771-1.472,0.771C257.902,262.765,257.983,262.015,257.983,262.015z"></path><g><g><g><path style="fill:none;stroke:#E6597D;stroke-linecap:round;stroke-linejoin:round;" d="M250.943,263.744c-4.74,0-7.171-1.313-7.171-1.313"></path></g></g></g><path style="fill:#E6597D;" d="M244.016,262.015c0,0-1.013-0.75-1.147-0.625s-0.621,0.313-0.203,0.959c0.129,0.198,1.351,0.771,1.473,0.771C244.097,262.765,244.016,262.015,244.016,262.015z"></path></g><path style="fill:#FFA1A6;stroke:#E6597D;stroke-linecap:round;stroke-linejoin:round;" d="M255.083,263.25c0-0.083,0.501-5.166,3.209-5.166s1.459,3.459,0.75,4C257.083,263.375,255.083,263.25,255.083,263.25z"></path></g></g></g></svg>