<svg xmlns="http://www.w3.org/2000/svg" width="500" height="500" version="1.1"><g id="x9078"><g><g><g><path style="fill:none;stroke:#E6597D;stroke-linecap:round;stroke-linejoin:round;" d="M236.271,263.844c0,0,2.156,0.5,4.003,0.5s5.081-0.125,9.084-0.125"></path><path style="fill:#E6597D;" d="M236.464,264.375c0,0-5.004-0.813-5.068-2.28c-0.023-0.541,1.235-0.042,2.566,0.437c1.33,0.479,2.733,0.938,2.733,0.938L236.464,264.375z"></path></g><g><path style="fill:none;stroke:#E6597D;stroke-linecap:round;stroke-linejoin:round;" d="M263.729,263.844c0,0-2.156,0.5-4.003,0.5c-1.848,0-5.081-0.125-9.085-0.125"></path><path style="fill:#E6597D;" d="M263.536,264.375c0,0,5.004-0.813,5.067-2.28c0.022-0.541-1.235-0.042-2.565,0.437c-1.331,0.479-2.733,0.938-2.733,0.938L263.536,264.375z"></path></g></g><g><path style="fill:none;stroke:#E6597D;stroke-linecap:round;stroke-linejoin:round;" d="M243,267.626c0,0,1.894,0.392,6.913,0.392"></path><path style="fill:none;stroke:#E6597D;stroke-linecap:round;stroke-linejoin:round;" d="M257,267.626c0,0-1.894,0.392-6.913,0.392"></path></g></g></g></svg>