<svg xmlns="http://www.w3.org/2000/svg" width="500" height="500" version="1.1"><g id="x9080"><g><path style="fill:#A84A56;" d="M258.334,265c-0.666-0.334-3-1.333-4.668-1.666C252,263.001,250,263.667,250,263.667s-2-0.666-3.668-0.333c-1.666,0.333-4,1.332-4.666,1.666s-1.5,0.334-1.5,0.334s0,0.833,0.834,0.833c0.832,0,3.166-1.833,4.832-1.5c1.668,0.333,3.002,1.001,4.168,0.667c1.166,0.334,2.5-0.334,4.166-0.667c1.668-0.333,4,1.5,4.834,1.5c0.832,0,0.834-0.833,0.834-0.833S259,265.334,258.334,265z"></path><path style="fill:#A84A56;" d="M250,268.5c-2.834,0-5.168,1.667-5.168,1.667c0.166,0.5,5.168-0.333,5.168-0.333s5,0.833,5.166,0.333C255.166,270.167,252.832,268.5,250,268.5z"></path></g></g></svg>