<svg xmlns="http://www.w3.org/2000/svg" width="500" height="500" version="1.1"><g id="x9081"><g><path style="fill:#FFFFFF;" d="M255.582,263c-1.666,0.167-5.582,0.854-5.582,0.854s-3.916-0.688-5.582-0.854c-1.667-0.167-6.5,0.667-9.167,1.5C237.917,268.166,250,268,250,268s12.082,0.166,14.749-3.5C262.082,263.667,257.248,262.833,255.582,263z"></path><g><path style="fill:#A84A56;" d="M249.676,263.854c0.838-0.194,2.505-1.374,7.216-1.23c4.709,0.144,4.44,1.265,8.911,0.759s7.395-1.978,7.395-1.978s-10.762,6.11-17.894,6.175c4.741-1.628,7.395-1.978,6.925-2.486c-0.472-0.51-2.997-1.513-5.421-1.304C254.385,263.998,249.676,263.854,249.676,263.854z"></path><path style="fill:#A84A56;" d="M250.324,263.854c-0.838-0.194-2.505-1.374-7.216-1.23c-4.709,0.143-4.44,1.265-8.911,0.759c-4.471-0.507-7.395-1.979-7.395-1.979s10.762,6.111,17.893,6.176c-4.741-1.628-7.395-1.979-6.924-2.487c0.472-0.509,2.998-1.512,5.421-1.304C245.615,263.998,250.324,263.854,250.324,263.854z"></path></g></g></g></svg>