<svg xmlns="http://www.w3.org/2000/svg" width="500" height="500" version="1.1"><g id="x9082"><g><g><path style="fill:#FEE6DB;" d="M256.476,267.15L250,267.319l-6.476-0.169c-4.668,0.553,0.635,3.619,6.476,4.458C255.842,270.77,261.145,267.703,256.476,267.15z"></path></g><path style="fill:#FEE6DB;" d="M255.957,260.081c-1.481-0.229-4.375-0.356-5.957,0.536c-1.582-0.893-4.475-0.765-5.957-0.536c-2.497,0.385-10.183,2.882-10.183,2.882c0.78,0.098,3.594-0.747,7.686-0.577c3.05,0.126,6.856,0.854,8.455,1.182c1.598-0.328,5.404-1.056,8.454-1.182c4.091-0.17,6.905,0.675,7.686,0.577C266.14,262.963,258.454,260.466,255.957,260.081z"></path><g><g><path style="fill:#A84A56;" d="M232.325,262.52c0,0-0.581-1.512-0.116-1.627c0.465-0.118,2.557,0.929,2.907,1.509C234.185,263.102,232.559,263.102,232.325,262.52z"></path><path style="fill:none;stroke:#A84A56;stroke-linecap:round;stroke-linejoin:round;" d="M233.604,262.169c0,0,1.744,0.898,3.022,0.781c1.279-0.116,2.675-0.696,4.767-0.466c2.093,0.234,6.743,1.512,7.79,1.512"></path></g><g><path style="fill:#A84A56;" d="M267.676,262.52c0,0,0.581-1.512,0.116-1.627c-0.467-0.118-2.56,0.929-2.907,1.509C265.813,263.102,267.443,263.102,267.676,262.52z"></path><path style="fill:none;stroke:#A84A56;stroke-linecap:round;stroke-linejoin:round;" d="M266.396,262.171c0,0-1.745,0.896-3.023,0.779c-1.278-0.116-2.674-0.696-4.768-0.466c-2.093,0.234-6.743,1.512-7.788,1.512"></path></g></g></g></g></svg>