<svg xmlns="http://www.w3.org/2000/svg" width="500" height="500" version="1.1"><g id="x9083"><g><g><g><g><path style="fill:#FEFBF6;stroke:#A84A56;stroke-linecap:round;stroke-linejoin:round;" d="M271.125,260.828c-0.426,0.229-5.52,1.485-10.348,1.485c-5.67,0-9.496-0.114-9.496-0.114"></path></g><g><path style="fill:#FEFBF6;stroke:#A84A56;stroke-linecap:round;stroke-linejoin:round;" d="M228.875,260.826c0.428,0.23,5.52,1.487,10.347,1.487c5.669,0,9.499-0.114,9.499-0.114"></path></g></g><g><path style="fill:#A84A56;" d="M229.996,261.563c0,0-2.188-0.313-3.188-1.063c-0.438-0.875-0.313-2.125,0.188-2.313c1.188,0.563,3.25,2.813,3.875,3.063C230.746,261.625,229.996,261.563,229.996,261.563z"></path><path style="fill:#A84A56;" d="M270.004,261.563c0,0,2.188-0.313,3.188-1.063c0.438-0.875,0.313-2.125-0.188-2.313c-1.188,0.563-3.25,2.813-3.875,3.063C269.254,261.625,270.004,261.563,270.004,261.563z"></path></g></g><path style="fill:#FEE6DB;" d="M239.376,266.551c0,0,1.54,2.517,2.926,3.202c1.386,0.687,4.772,0.3,7.698-0.044c2.925,0.344,6.316,0.73,7.7,0.044c1.386-0.686,2.925-3.202,2.925-3.202C258.006,265.407,241.993,265.407,239.376,266.551z"></path></g></g></svg>