<svg xmlns="http://www.w3.org/2000/svg" width="500" height="500" version="1.1"><g id="x9084"><g><path style="fill:#B8313B;" d="M254.041,262.89c-2.027,0-3.612,0.582-4.041,0.756c-0.429-0.174-2.014-0.756-4.041-0.756c-4.709,0-12.272-1.577-12.272-1.577s5.697,3.643,7.563,4.188c1.864,0.548,3.833,0.923,4.894,0.923c1.811,0,3.421-0.229,3.856-0.296c0.436,0.067,2.046,0.296,3.856,0.296c1.06,0,3.029-0.375,4.894-0.923c1.865-0.545,7.563-4.188,7.563-4.188S258.75,262.89,254.041,262.89z"></path><g><path style="fill:none;stroke:#A84A56;stroke-linecap:round;stroke-linejoin:round;" d="M242.332,264.563c0,0,5.181,0.188,7.392,0.063"></path><path style="fill:none;stroke:#A84A56;stroke-linecap:round;stroke-linejoin:round;" d="M257.668,264.563c0,0-5.181,0.188-7.392,0.063"></path></g><ellipse style="fill:#FFFFFF;" cx="250" cy="265.313" rx="1.692" ry="0.688"></ellipse></g></g></svg>