<svg xmlns="http://www.w3.org/2000/svg" width="500" height="500" version="1.1"><g id="x9085"><g><g><g><g><path style="fill:#FB4256;" d="M254.167,262.89c-2.381,0-4.167,0.808-4.167,0.808s-1.786-0.808-4.166-0.808c-2.381,0-8.334-0.654-8.334-0.654s2.188,2.128,4.054,2.673c1.864,0.548,3.404,1.515,4.464,1.515c2.121,0,3.981-0.315,3.981-0.315s1.861,0.315,3.981,0.315c1.061,0,2.6-0.967,4.463-1.515c1.867-0.545,4.056-2.674,4.056-2.674S256.547,262.89,254.167,262.89z"></path></g></g></g><ellipse style="fill:#FFFFFF;" cx="250" cy="265.313" rx="1.692" ry="0.688"></ellipse></g></g></svg>