<svg xmlns="http://www.w3.org/2000/svg" width="500" height="500" version="1.1"><g id="x9087"><g><path style="fill:#FEE6DB;" d="M256.926,271.083c0,1.242-3.101,2.917-6.926,2.917c-3.826,0-6.927-1.675-6.927-2.917s3.101-1.583,6.927-1.583C253.825,269.5,256.926,269.841,256.926,271.083z"></path><path style="fill:#FEE6DB;" d="M258.388,262c-1.562-0.211-6.781,0.878-8.388,1.226c-1.607-0.348-6.828-1.437-8.39-1.226c-1.854,0.25-19.219,4.667-19.512,4.75c0,0,17.269-1.5,19.804-2.333c1.291,0.689,6.373,1.376,8.098,1.594c1.723-0.218,6.806-0.904,8.096-1.594c2.538,0.833,19.806,2.333,19.806,2.333C277.609,266.667,260.242,262.25,258.388,262z"></path><g><g><path style="fill:none;stroke:#000000;stroke-linecap:round;stroke-linejoin:round;" d="M249.442,265.743c0,0-2.857,0-8.002-1.465c-5.716,0.978-19.438,2.442-19.438,2.442"></path><path style="fill:none;stroke:#000000;stroke-linecap:round;stroke-linejoin:round;" d="M278,266.721c0,0-13.722-1.465-19.438-2.442c-5.145,1.465-8.005,1.465-8.005,1.465"></path></g><g><path style="fill:none;stroke:#000000;stroke-linecap:round;stroke-linejoin:round;" d="M243.122,269.875c0,0,3.951-0.625,6.732-0.625"></path><path style="fill:none;stroke:#000000;stroke-linecap:round;stroke-linejoin:round;" d="M256.878,269.875c0,0-3.951-0.625-6.732-0.625"></path></g></g></g></g></svg>