<svg xmlns="http://www.w3.org/2000/svg" width="500" height="500" version="1.1"><g id="x008"><g><g><path style="fill:#FFDEDE;" d="M254.083,261.925c0,1.535-1.827,3.575-4.083,3.575c-2.255,0-4.083-2.04-4.083-3.575s1.828,0.721,4.083,0.721C252.256,262.646,254.083,260.39,254.083,261.925z"></path><ellipse style="fill:#FFFFFF;" cx="250.373" cy="264.509" rx="0.869" ry="0.656"></ellipse></g><g><path style="fill:none;stroke:#E6597D;stroke-linecap:round;stroke-linejoin:round;" d="M254.772,260.16c0,0-1.031,3.715-5.434,3.577c-3.374-0.105-3.823-2.89-3.823-2.89"></path><path style="fill:#FFA1A6;stroke:#E6597D;stroke-linecap:round;stroke-linejoin:round;" d="M252.088,263.545c0,0,1.728,2.929,3.886,2.072c1.957-0.776,2.362-2.679,1.743-3.507c-0.618-0.829-3.504-0.6-3.504-0.6L252.088,263.545z"></path></g></g></g></svg>