<svg xmlns="http://www.w3.org/2000/svg" width="500" height="500" version="1.1"><g id="x9089"><g><g><g><g><path style="fill:#FFFFFF;stroke:#A84A56;stroke-linecap:round;stroke-linejoin:round;" d="M249.999,261.129c0,0-11.604,0-17.174,2.319c4.874,2.786,6.813,5.107,17.174,5.107c10.361,0,12.302-2.321,17.175-5.106C261.604,261.129,249.999,261.129,249.999,261.129z"></path></g></g><path style="fill:none;stroke:#E4E0F3;stroke-linecap:round;stroke-linejoin:round;" d="M237.846,263.792c0,0,5.756,0.794,12.232,0.794c6.476,0,12.755-0.794,12.755-0.794"></path></g><g><path style="fill:#A84A56;" d="M235.898,263.883c-0.236,0.761-0.333,1.401-0.333,1.401s-7.585-2.889-7.982-3.681c3.339,0.679,9.056,0.355,9.283,0.355C236.418,262.461,236.104,263.218,235.898,263.883z"></path><path style="fill:#A84A56;" d="M264.436,265.284c0,0,7.587-2.889,7.982-3.681c-3.338,0.679-9.057,0.355-9.282,0.355C264.096,263.035,264.436,265.284,264.436,265.284z"></path></g></g></g></svg>