<svg xmlns="http://www.w3.org/2000/svg" width="500" height="500" version="1.1"><g id="x9090"><g><g><g><g><g><path style="fill:none;stroke:#E6597D;stroke-linecap:round;stroke-linejoin:round;" d="M250.068,264.744c5.855,0,8.859-2.313,8.859-2.313"></path></g></g></g><path style="fill:#E6597D;" d="M258.627,262.015c0,0,1.251-0.75,1.417-0.625c0.167,0.125,0.768,0.313,0.25,0.959c-0.158,0.198-1.667,0.771-1.817,0.771C258.527,262.765,258.627,262.015,258.627,262.015z"></path><g><g><g><path style="fill:none;stroke:#E6597D;stroke-linecap:round;stroke-linejoin:round;" d="M249.93,264.744c-5.855,0-8.858-2.313-8.858-2.313"></path></g></g></g><path style="fill:#E6597D;" d="M241.372,262.015c0,0-1.251-0.75-1.417-0.625c-0.167,0.125-0.768,0.313-0.251,0.959c0.159,0.198,1.668,0.771,1.819,0.771C241.473,262.765,241.372,262.015,241.372,262.015z"></path></g></g></g></svg>