<svg xmlns="http://www.w3.org/2000/svg" width="500" height="500" version="1.1"><g id="x9092"><g><g><g><g><path style="fill:none;stroke:#A84A56;stroke-linecap:round;stroke-linejoin:round;" d="M247.927,264.744c-8.071,0-12.21-2.313-12.21-2.313"></path></g></g></g><path style="fill:#E6597D;" d="M236.131,262.015c0,0-1.724-0.75-1.953-0.625c-0.229,0.125-1.058,0.313-0.346,0.959c0.219,0.198,2.299,0.771,2.507,0.771C236.27,262.765,236.131,262.015,236.131,262.015z"></path><g><g><g><g><g><path style="fill:none;stroke:#E6597D;stroke-linecap:round;stroke-linejoin:round;" d="M251.883,264.744"></path></g></g></g><g><g><g><path style="fill:none;stroke:#A84A56;stroke-linecap:round;stroke-linejoin:round;" d="M252.073,264.744c8.071,0,12.21-2.313,12.21-2.313"></path></g></g></g><path style="fill:#E6597D;" d="M263.869,262.015c0,0,1.725-0.75,1.953-0.625c0.229,0.125,1.059,0.313,0.346,0.959c-0.219,0.198-2.299,0.771-2.507,0.771C263.73,262.765,263.869,262.015,263.869,262.015z"></path></g></g></g></g></svg>