<svg xmlns="http://www.w3.org/2000/svg" width="500" height="500" version="1.1"><g id="x9094"><g><path style="fill:#FEE6DB;" d="M250,266.667c-4.167,0-7.833,0.333-7.833,0.333c0,0.666,1,3.167,2.667,3.5c1.333-0.334,2.667-0.833,5.167-0.833s3.833,0.499,5.167,0.833c1.666-0.333,2.666-2.834,2.666-3.5C257.833,267,254.167,266.667,250,266.667z"></path><g><g><g><g><path style="fill:none;stroke:#A84A56;stroke-linecap:round;stroke-linejoin:round;" d="M250.447,263.135c6.298,0,9.527,0.54,9.527,0.54"></path></g></g></g><path style="fill:#A84A56;" d="M259.652,264.097c0,0,1.346,0.759,1.523,0.633c0.18-0.127,0.826-0.316,0.27-0.971c-0.17-0.201-1.793-0.78-1.956-0.78C259.544,263.338,259.652,264.097,259.652,264.097z"></path><g><g><g><g><g><path style="fill:none;stroke:#A84A56;stroke-linecap:round;stroke-linejoin:round;" d="M249.553,263.135c-6.298,0-9.528,0.54-9.528,0.54"></path></g></g></g><path style="fill:#A84A56;" d="M240.348,264.097c0,0-1.346,0.759-1.524,0.633c-0.179-0.127-0.826-0.316-0.27-0.971c0.17-0.201,1.794-0.78,1.956-0.78C240.456,263.338,240.348,264.097,240.348,264.097z"></path></g></g></g></g></g></svg>