<svg xmlns="http://www.w3.org/2000/svg" width="500" height="500" version="1.1"><g id="x9097"><g><g><g><path style="fill:#FFFFFF;" d="M263.603,231.429c0,0,3.61,11.959,24.153,11.715c10.271-2.813,16.386-7.826,17.363-16.508c-4.279-1.834-6.358-3.301-6.358-3.301l-25.189,0.734L263.603,231.429z"></path><path style="fill:#E4E0F3;" d="M304.337,230.246c0.367-1.129,0.638-2.325,0.782-3.61c-4.279-1.834-6.358-3.301-6.358-3.301l-25.189,0.734l-9.147,7.319C278.016,229.646,291.163,229.344,304.337,230.246z"></path></g><g><g><path style="fill:#A2D7DD;" d="M274.142,225.373c0,0-1.305,13.328,7.948,15.57c3.017-0.367,9.782-5.541,11.616-16.057C285.758,222.277,274.142,225.373,274.142,225.373z"></path><path style="fill:#84B9BF;" d="M292.062,230.587c0.699-1.69,1.275-3.582,1.645-5.701c-7.948-2.609-19.564,0.487-19.564,0.487s-0.223,2.371,0.2,5.275C280.431,229.667,286.212,230.025,292.062,230.587z"></path><ellipse cx="282.438" cy="228.332" rx="1.245" ry="1.374"></ellipse><g><path d="M272.471,226.718c0,0-1.752,11.82,9.334,14.184c-8.804-4.076-6.888-15.979-6.888-15.979L272.471,226.718z"></path><path d="M291.058,225.046c0,0,2.018,12.534-8.805,15.774c5.544,0.571,11.373-4.341,11.557-15.468C292.994,224.782,291.058,225.046,291.058,225.046z"></path></g></g><ellipse style="fill:#FFFFFF;" cx="274.917" cy="231.12" rx="3.342" ry="1.63"></ellipse><g><g><g><path d="M261.375,233.025c4.126-5.013,12.809-11.035,12.809-11.035c3.75,0.164,4.729,0.652,4.729,0.652S269.658,229.235,261.375,233.025z"></path><path d="M300.596,221.338c-8.805-1.467-26.412-1.06-33.749-0.489c3.832,0.896,6.522,1.305,6.522,1.305l-10.272,3.423c0,0,29.511-0.326,38.314,0.489c1.147,0.809,2.228,1.689,3.238,2.49l4.562-2.295C307.274,224.629,304.398,222.713,300.596,221.338z"></path></g><path d="M260.407,221.99c0,0,3.26-1.957,5.216-2.935c3.424-0.407,13.818-0.947,15.815-1.06c-2.487-0.225-11.332-0.652-15.489-0.489C263.177,218.974,260.407,221.99,260.407,221.99z"></path></g><g><path d="M307.198,227.125c-2.568,11.861-11.861,15.774-19.075,16.019c0,0,13.084-1.345,16.63-15.529C305.731,227.248,306.343,227.981,307.198,227.125z"></path></g></g></g></g><g><g><path style="fill:#FFFFFF;" d="M236.397,231.429c0,0-3.61,11.959-24.153,11.715c-10.271-2.813-16.386-7.826-17.363-16.508c4.279-1.834,6.358-3.301,6.358-3.301l25.189,0.734L236.397,231.429z"></path><path style="fill:#E4E0F3;" d="M195.663,230.246c-0.367-1.129-0.638-2.325-0.782-3.61c4.279-1.834,6.358-3.301,6.358-3.301l25.189,0.734l9.147,7.319C221.984,229.646,208.837,229.344,195.663,230.246z"></path></g><g><g><path style="fill:#A2D7DD;" d="M225.858,225.373c0,0,1.305,13.328-7.948,15.57c-3.017-0.367-9.782-5.541-11.616-16.057C214.242,222.277,225.858,225.373,225.858,225.373z"></path><path style="fill:#84B9BF;" d="M207.938,230.587c-0.699-1.69-1.275-3.582-1.645-5.701c7.948-2.609,19.564,0.487,19.564,0.487s0.223,2.371-0.2,5.275C219.569,229.667,213.788,230.025,207.938,230.587z"></path><ellipse cx="217.563" cy="228.332" rx="1.245" ry="1.374"></ellipse><g><path d="M227.529,226.718c0,0,1.752,11.82-9.334,14.184c8.804-4.076,6.888-15.979,6.888-15.979L227.529,226.718z"></path><path d="M208.942,225.046c0,0-2.018,12.534,8.805,15.774c-5.544,0.571-11.373-4.341-11.557-15.468C207.006,224.782,208.942,225.046,208.942,225.046z"></path></g></g><ellipse style="fill:#FFFFFF;" cx="225.083" cy="231.12" rx="3.342" ry="1.63"></ellipse><g><g><g><path d="M238.625,233.025c-4.126-5.013-12.809-11.035-12.809-11.035c-3.75,0.164-4.729,0.652-4.729,0.652S230.342,229.235,238.625,233.025z"></path><path d="M199.404,221.338c8.805-1.467,26.412-1.06,33.749-0.489c-3.832,0.896-6.522,1.305-6.522,1.305l10.272,3.423c0,0-29.511-0.326-38.314,0.489c-1.147,0.809-2.228,1.689-3.238,2.49l-4.562-2.295C192.726,224.629,195.602,222.713,199.404,221.338z"></path></g><path d="M239.593,221.99c0,0-3.26-1.957-5.216-2.935c-3.424-0.407-13.818-0.947-15.815-1.06c2.487-0.225,11.332-0.652,15.489-0.489C236.823,218.974,239.593,221.99,239.593,221.99z"></path></g><g><path d="M192.802,227.125c2.568,11.861,11.861,15.774,19.075,16.019c0,0-13.084-1.345-16.63-15.529C194.269,227.248,193.657,227.981,192.802,227.125z"></path></g></g></g></g></g></g></svg>