<svg xmlns="http://www.w3.org/2000/svg" width="500" height="500" version="1.1"><g id="x9098"><g><g><g><path style="fill:#FFFFFF;" d="M264.645,231.429c0,0,3.609,11.959,24.152,11.715c10.271-2.813,16.387-7.826,17.363-16.508c-4.279-1.834-6.357-3.301-6.357-3.301l-25.189,0.734L264.645,231.429z"></path><path style="fill:#E4E0F3;" d="M305.379,230.246c0.367-1.129,0.637-2.325,0.781-3.61c-4.279-1.834-6.357-3.301-6.357-3.301l-25.189,0.734l-9.148,7.319C279.057,229.646,292.205,229.344,305.379,230.246z"></path></g><g><g><path style="fill:#A2D7DD;" d="M275.184,225.373c0,0-1.305,13.328,7.947,15.57c3.018-0.367,9.783-5.541,11.617-16.057C286.799,222.277,275.184,225.373,275.184,225.373z"></path><path style="fill:#84B9BF;" d="M293.104,230.587c0.699-1.69,1.275-3.582,1.645-5.701c-7.949-2.609-19.564,0.487-19.564,0.487s-0.223,2.371,0.199,5.275C281.473,229.667,287.254,230.025,293.104,230.587z"></path><ellipse style="opacity:0.1;fill:none;stroke:#000000;" cx="283.291" cy="230.583" rx="3" ry="3.417"></ellipse><g><path d="M273.512,226.718c0,0-1.752,11.82,9.334,14.184c-8.803-4.076-6.887-15.979-6.887-15.979L273.512,226.718z"></path><path d="M292.1,225.046c0,0,2.018,12.534-8.805,15.774c5.543,0.571,11.373-4.341,11.557-15.468C294.035,224.782,292.1,225.046,292.1,225.046z"></path></g></g><g><g><g><path d="M301.637,221.338c-8.805-1.467-23.357-0.031-27.227,0.815s-9.369,7.013-9.369,7.013s15.666-6.5,37.412-3.101c1.146,0.809,2.227,1.689,3.238,2.49l4.561-2.295C308.316,224.629,305.439,222.713,301.637,221.338z"></path></g><path d="M264.707,235.667c1.834-7.833,5.5-10.667,5.5-10.667c3.75,0.164,6.914-2.024,6.914-2.024S271.041,229.5,264.707,235.667z"></path><path d="M264.209,225.5c0,0,4.178-3.344,6.033-4.5c3.371-0.726,13.051-1.85,15.029-2.149c-2.498,0.009-8.063-0.184-15.467,0.964C267.182,221.536,264.209,225.5,264.209,225.5z"></path><path d="M264.209,217c0,0,2.832-5.667,5.332-7.333c5.668-1.5,12.668-1.333,12.668-1.333s-11.166,2.167-11.834,2.5C267.041,213.167,264.209,217,264.209,217z"></path></g><g><path d="M308.24,227.125c-2.568,11.861-11.861,15.774-19.076,16.019c0,0,13.084-1.345,16.631-15.529C306.773,227.248,307.385,227.981,308.24,227.125z"></path></g></g></g></g><g><g><path style="fill:#FFFFFF;" d="M235.356,231.429c0,0-3.61,11.959-24.153,11.715c-10.271-2.813-16.386-7.826-17.363-16.508c4.279-1.834,6.358-3.301,6.358-3.301l25.189,0.734L235.356,231.429z"></path><path style="fill:#E4E0F3;" d="M194.622,230.246c-0.367-1.129-0.638-2.325-0.782-3.61c4.279-1.834,6.358-3.301,6.358-3.301l25.189,0.734l9.147,7.319C220.943,229.646,207.795,229.344,194.622,230.246z"></path></g><g><g><path style="fill:#A2D7DD;" d="M224.817,225.373c0,0,1.305,13.328-7.948,15.57c-3.017-0.367-9.782-5.541-11.616-16.057C213.201,222.277,224.817,225.373,224.817,225.373z"></path><path style="fill:#84B9BF;" d="M206.897,230.587c-0.699-1.69-1.275-3.582-1.645-5.701c7.948-2.609,19.564,0.487,19.564,0.487s0.223,2.371-0.2,5.275C218.528,229.667,212.747,230.025,206.897,230.587z"></path><ellipse style="opacity:0.1;fill:none;stroke:#000000;" cx="216.709" cy="230.583" rx="3" ry="3.417"></ellipse><g><path d="M226.488,226.718c0,0,1.752,11.82-9.334,14.184c8.804-4.076,6.888-15.979,6.888-15.979L226.488,226.718z"></path><path d="M207.901,225.046c0,0-2.018,12.534,8.805,15.774c-5.544,0.571-11.373-4.341-11.557-15.468C205.964,224.782,207.901,225.046,207.901,225.046z"></path></g></g><g><g><g><path d="M198.363,221.338c8.805-1.467,23.357-0.031,27.227,0.815s9.369,7.013,9.369,7.013s-15.666-6.5-37.411-3.101c-1.147,0.809-2.228,1.689-3.238,2.49l-4.562-2.295C191.684,224.629,194.56,222.713,198.363,221.338z"></path></g><path d="M235.292,235.667c-1.834-7.833-5.5-10.667-5.5-10.667c-3.75,0.164-6.913-2.024-6.913-2.024S228.959,229.5,235.292,235.667z"></path><path d="M235.792,225.5c0,0-4.179-3.344-6.034-4.5c-3.371-0.726-13.051-1.85-15.028-2.149c2.497,0.009,8.063-0.184,15.467,0.964C232.819,221.536,235.792,225.5,235.792,225.5z"></path><path d="M235.792,217c0,0-2.833-5.667-5.333-7.333c-5.667-1.5-12.667-1.333-12.667-1.333s11.166,2.167,11.833,2.5C232.958,213.167,235.792,217,235.792,217z"></path></g><g><path d="M191.76,227.125c2.568,11.861,11.861,15.774,19.075,16.019c0,0-13.084-1.345-16.63-15.529C193.227,227.248,192.616,227.981,191.76,227.125z"></path></g></g></g></g></g></g></svg>