<svg xmlns="http://www.w3.org/2000/svg" width="500" height="500" version="1.1"><g id="x9099"><g><g><g><path style="fill:#FFFFFF;" d="M266.73,234.879c0,0,1.531,4.745,2.984,5.74c2.678,0.229,26.096,0.382,31.912-4.515c4.438-5.817,4.898-12.397,4.898-12.397S278.211,220.492,266.73,234.879z"></path><path style="fill:#E4E0F3;" d="M266.73,234.879c0,0,0.432,1.334,1.053,2.735c12.398-3.605,24.811-6.528,37.395-8.134c1.168-3.275,1.348-5.773,1.348-5.773S278.211,220.492,266.73,234.879z"></path></g><g><path d="M272.547,231.512c0,0-0.689,8.647,10.867,8.188c11.555-0.458,10.943-13.163,10.943-13.163S276.832,228.758,272.547,231.512z"></path><path style="fill:#A2D7DD;" d="M275.133,230.978c0,0-0.523,7.512,8.289,7.162c8.814-0.35,8.346-10.955,8.346-10.955S278.404,228.877,275.133,230.978z"></path><circle cx="282.495" cy="231.359" r="1.913"></circle></g><g><g><g><path d="M261.73,237.634c0,0,5.715-9.183,11.02-11.835c7.348-2.245,31.836-5.307,44.078-2.245c-14.078,1.633-42.648,7.551-42.648,7.551L261.73,237.634z"></path><path d="M272.699,228.298c-0.459-0.076-9.793,2.908-11.861,3.826c4.057-3.902,13.393-6.734,18.826-7.805C274.307,227.15,272.699,228.298,272.699,228.298z"></path></g><path d="M308.668,223.758c0,0-0.41,8.776-5.307,12.856c-4.49,2.245-9.162,3.364-15.51,4.005c-8.34,0.84-18.137,0-18.137,0s24.256-0.123,29.77-5.638c5.102-5.102,4.285-10.816,4.285-10.816L308.668,223.758z"></path></g><path d="M262.063,227.687c0,0,15.152-7.653,41.324-5.817C291.373,218.35,269.41,221.258,262.063,227.687z"></path></g></g><g><g><path style="fill:#FFFFFF;" d="M233.269,234.879c0,0-1.53,4.745-2.984,5.74c-2.678,0.229-26.096,0.382-31.912-4.515c-4.438-5.817-4.897-12.397-4.897-12.397S221.79,220.492,233.269,234.879z"></path><path style="fill:#E4E0F3;" d="M233.269,234.879c0,0-0.432,1.334-1.053,2.735c-12.397-3.605-24.81-6.528-37.394-8.134c-1.169-3.275-1.348-5.773-1.348-5.773S221.79,220.492,233.269,234.879z"></path></g><g><path d="M227.453,231.512c0,0,0.689,8.647-10.866,8.188c-11.556-0.458-10.943-13.163-10.943-13.163S223.167,228.758,227.453,231.512z"></path><path style="fill:#A2D7DD;" d="M224.867,230.978c0,0,0.523,7.512-8.289,7.162c-8.813-0.35-8.346-10.955-8.346-10.955S221.596,228.877,224.867,230.978z"></path><circle cx="217.504" cy="231.359" r="1.913"></circle></g><g><g><g><path d="M238.27,237.634c0,0-5.715-9.183-11.021-11.835c-7.347-2.245-31.835-5.307-44.078-2.245c14.079,1.633,42.648,7.551,42.648,7.551L238.27,237.634z"></path><path d="M227.3,228.298c0.459-0.076,9.794,2.908,11.861,3.826c-4.057-3.902-13.393-6.734-18.826-7.805C225.693,227.15,227.3,228.298,227.3,228.298z"></path></g><path d="M191.333,223.758c0,0,0.41,8.776,5.307,12.856c4.489,2.245,9.161,3.364,15.509,4.005c8.341,0.84,18.137,0,18.137,0s-24.255-0.123-29.769-5.638c-5.102-5.102-4.286-10.816-4.286-10.816L191.333,223.758z"></path></g><path d="M237.937,227.687c0,0-15.152-7.653-41.323-5.817C208.627,218.35,230.59,221.258,237.937,227.687z"></path></g></g></g></g></svg>