<svg xmlns="http://www.w3.org/2000/svg" width="500" height="500" version="1.1"><g id="x9100"><g><g><g><g><path style="fill:#FFFFFF;" d="M267.031,231.849c0,0,2.5,9.053,7,11.542c5,2.037,16.525,2.195,22.762-2.524c5.988-6.755,8.238-17.845,8.238-17.845s-7.75-4.526-21.5-1.584C269.781,224.381,267.031,231.849,267.031,231.849z"></path><path style="fill:#E4E0F3;" d="M303.537,228.327c1.039-3.07,1.494-5.304,1.494-5.304s-7.75-4.526-21.5-1.584c-13.75,2.942-16.5,10.411-16.5,10.411s0.438,1.585,1.275,3.609C279.217,230.508,291.408,228.162,303.537,228.327z"></path></g><g><g><g><path style="fill:#A2D7DD;" d="M272.805,227.097c0,0-0.752,15.236,9.852,17.01c6.322-0.941,11.318-4.336,10.842-21.536C289.217,218.723,277.086,221.438,272.805,227.097z"></path><path style="fill:#84B9BF;" d="M293.498,222.57c-4.281-3.848-16.412-1.132-20.693,4.526c0,0-0.154,3.186,0.689,6.813c2.053-0.456,4.145-0.951,6.26-1.443c0.02,2.538,1.393,4.588,3.088,4.588c1.709,0,3.094-2.077,3.094-4.64c0-0.455-0.059-0.885-0.141-1.299c2.5-0.522,5.016-0.988,7.529-1.332C293.51,227.698,293.574,225.311,293.498,222.57z"></path><ellipse style="opacity:0.5;" cx="282.804" cy="232.583" rx="3.331" ry="4.583"></ellipse></g><g><path d="M270.988,228.378c0,0-1.58,13.992,10.453,15.842c-9.238-4.971-8.023-17.23-8.023-17.23L270.988,228.378z"></path><path d="M291.529,222.944c0,0,3.768,18.27-8.873,21.162c3.525-0.117,14.221-0.347,12.277-21.279C293.232,222.828,291.529,222.944,291.529,222.944z"></path><path d="M282.17,223.833c12.688-1.667,11.26,10.667,11.26,10.667s0.635-9.5,0.316-12.5c-5.234-1-18.236,1.167-21.408,4.167c-0.477,5.667,2.063,10.333,2.063,10.333S272.803,225.064,282.17,223.833z"></path></g></g><path style="fill:#FFFFFF;" d="M294.709,229.582c-0.328,1.751-2.58,2.173-4.627,1.425c-2.047-0.748-2.789-4.133-2.789-4.133s2.578-2.172,4.627-1.425C293.967,226.197,295.035,227.831,294.709,229.582z"></path><path style="fill:#FFFFFF;" d="M277.408,237.182c0.186,0.594-0.982,1.526-2.607,2.081c-1.623,0.555-3.09,0.522-3.273-0.072c-0.184-0.594,0.984-1.525,2.609-2.08C275.76,236.555,277.225,236.587,277.408,237.182z"></path></g></g><g><g><path d="M263.031,235.47c0.256-1.388,1.979-10.047,13.912-15.025c13.029-5.434,28.154-1.087,35.691,5.158c-3.066-0.232-19.801-4.51-32.959-1.041C270.748,226.916,263.031,235.47,263.031,235.47z"></path><path d="M302.924,222.944c0,0-1.275,13.066-6.131,17.923c8.688-3.816,9.711-9.02,10.986-17.923C305.223,222.25,302.924,222.944,302.924,222.944z"></path></g><path d="M264.602,227.454c0.383-0.811,3.443-6.386,14.818-9.253c12.393-3.123,20.186-0.694,20.186-0.694s-9.326-3.236-20.568-0.924C267.797,218.895,264.602,227.454,264.602,227.454z"></path></g></g><g><g><g><path style="fill:#FFFFFF;" d="M232.968,231.849c0,0-2.5,9.053-7,11.542c-5,2.037-16.525,2.195-22.762-2.524c-5.988-6.755-8.238-17.845-8.238-17.845s7.75-4.526,21.5-1.584C230.218,224.381,232.968,231.849,232.968,231.849z"></path><path style="fill:#E4E0F3;" d="M196.462,228.327c-1.039-3.07-1.494-5.304-1.494-5.304s7.75-4.526,21.5-1.584c13.75,2.942,16.5,10.411,16.5,10.411s-0.438,1.585-1.275,3.609C220.783,230.508,208.591,228.162,196.462,228.327z"></path></g><g><g><g><path style="fill:#A2D7DD;" d="M227.196,227.097c0,0,0.751,15.236-9.853,17.01c-6.322-0.941-11.317-4.336-10.842-21.536C210.783,218.723,222.915,221.438,227.196,227.097z"></path><path style="fill:#84B9BF;" d="M206.501,222.57c4.281-3.848,16.413-1.132,20.694,4.526c0,0,0.154,3.186-0.689,6.813c-2.053-0.456-4.146-0.951-6.261-1.443c-0.019,2.538-1.392,4.588-3.088,4.588c-1.708,0-3.093-2.077-3.093-4.64c0-0.455,0.058-0.885,0.14-1.299c-2.5-0.522-5.016-0.988-7.528-1.332C206.49,227.698,206.425,225.311,206.501,222.57z"></path><ellipse style="opacity:0.5;" cx="217.196" cy="232.583" rx="3.331" ry="4.583"></ellipse></g><g><path d="M229.012,228.378c0,0,1.579,13.992-10.454,15.842c9.238-4.971,8.023-17.23,8.023-17.23L229.012,228.378z"></path><path d="M208.471,222.944c0,0-3.769,18.27,8.872,21.162c-3.525-0.117-14.221-0.347-12.276-21.279C206.767,222.828,208.471,222.944,208.471,222.944z"></path><path d="M217.83,223.833c-12.687-1.667-11.26,10.667-11.26,10.667s-0.634-9.5-0.315-12.5c5.233-1,18.236,1.167,21.408,4.167c0.476,5.667-2.063,10.333-2.063,10.333S227.198,225.064,217.83,223.833z"></path></g></g><path style="fill:#FFFFFF;" d="M228.434,229.582c-0.327,1.751-2.579,2.173-4.627,1.425c-2.047-0.748-2.788-4.133-2.788-4.133s2.578-2.172,4.626-1.425S228.761,227.831,228.434,229.582z"></path><path style="fill:#FFFFFF;" d="M211.134,237.182c0.185,0.594-0.982,1.526-2.607,2.081c-1.624,0.555-3.09,0.522-3.274-0.072c-0.184-0.594,0.985-1.525,2.609-2.08C209.486,236.555,210.951,236.587,211.134,237.182z"></path></g></g><g><g><path d="M236.968,235.47c-0.256-1.388-1.979-10.047-13.912-15.025c-13.029-5.434-28.154-1.087-35.691,5.158c3.066-0.232,19.801-4.51,32.959-1.041C229.251,226.916,236.968,235.47,236.968,235.47z"></path><path d="M197.076,222.944c0,0,1.275,13.066,6.131,17.923c-8.688-3.816-9.711-9.02-10.986-17.923C194.777,222.25,197.076,222.944,197.076,222.944z"></path></g><path d="M235.398,227.454c-0.383-0.811-3.443-6.386-14.818-9.253c-12.393-3.123-20.186-0.694-20.186-0.694s9.326-3.236,20.568-0.924C232.203,218.895,235.398,227.454,235.398,227.454z"></path></g></g></g></g></svg>