<svg xmlns="http://www.w3.org/2000/svg" width="500" height="500" version="1.1"><g id="x9101"><g><g><g><path style="fill:#FFFFFF;" d="M269.024,227.024c0,0-3.413,8.729,1.138,15.199c1.95,2.708,7.099,4.52,13.33,4.063c6.067,0.295,12.027-2.257,12.027-2.257s6.176-5.87,6.014-14.296c-7.639-8.125-17.88-8.427-17.88-8.427S272.438,222.811,269.024,227.024z"></path><path style="fill:#E4E0F3;" d="M283.653,221.306c0,0-11.216,1.625-14.629,6.177c0,0-0.963,3.043-1.186,6.824c10.622-2.788,22.634-3.065,33.185,0.124c0.332-1.298,0.534-2.642,0.51-4.022C293.895,221.631,283.653,221.306,283.653,221.306z"></path></g><g><ellipse style="fill:#A2D7DD;" cx="282.346" cy="233.952" rx="11.904" ry="12.21"></ellipse><path style="opacity:0.5;" d="M273.164,240.203c0,0,0.348-6.799,9.156-6.799c8.808,0,11.009,6.799,11.009,6.799s3.245-9.04-2.317-15.298c-8.345-3.708-17.616,0.232-17.616,0.232S266.441,234.872,273.164,240.203z"></path><g><ellipse cx="282.044" cy="234.397" rx="2.114" ry="3.02"></ellipse><ellipse style="fill:#FFFFFF;" cx="283.802" cy="230.99" rx="2.118" ry="1.647"></ellipse></g><g><path d="M277.82,222.771c0,0-8.075,4.177-5.986,13.923c2.088,9.747,10.72,9.747,10.72,9.747s-10.72,0.842-12.809-9.607C267.518,225.695,277.82,222.771,277.82,222.771z"></path><path d="M286.973,222.771c0,0,8.076,4.177,5.987,13.923c-2.089,9.747-10.722,9.747-10.722,9.747s10.721,0.842,12.811-9.607C297.276,225.695,286.973,222.771,286.973,222.771z"></path></g></g><g><g><path d="M279.77,217.342c2.088-2.228,4.873-5.012,6.127-4.873c1.252,0.139,3.76,5.012,3.76,5.012s9.605,1.949,13.783,9.05c-0.419,2.367-2.228,5.569-2.228,5.569s-5.91-8.355-17.883-8.633c-11.975-0.278-19.344,9.428-19.344,9.428S267.796,219.013,279.77,217.342z"></path><path d="M301.371,232.522c0,0-1.3,5.364-2.6,8.94c5.689-3.088,7.314-9.916,7.64-11.216c-1.626-1.789-4.226-4.389-4.226-4.389L301.371,232.522z"></path><path d="M264.176,219.152c0,0,10.024-2.646,25.34-1.532C281.022,213.583,265.568,216.924,264.176,219.152z"></path></g><g><path d="M287.055,245.808c0,0,0.558,1.67,1.254,1.81c0.695,0.139,1.531-0.139,1.252-0.696C289.283,246.365,287.891,245.808,287.055,245.808z"></path><path d="M290.676,244.787c0,0,0.556,1.67,1.252,1.811c0.696,0.139,1.532-0.14,1.253-0.696C292.902,245.344,291.511,244.787,290.676,244.787z"></path><path d="M293.925,242.962c0,0,0.557,1.67,1.253,1.81c0.696,0.139,1.531-0.139,1.254-0.696C296.152,243.519,294.76,242.962,293.925,242.962z"></path></g></g></g><g><g><path style="fill:#FFFFFF;" d="M230.976,227.024c0,0,3.412,8.729-1.139,15.199c-1.95,2.708-7.099,4.52-13.329,4.063c-6.068,0.295-12.028-2.257-12.028-2.257s-6.176-5.87-6.014-14.296c7.64-8.125,17.881-8.427,17.881-8.427S227.562,222.811,230.976,227.024z"></path><path style="fill:#E4E0F3;" d="M216.347,221.306c0,0,11.215,1.625,14.629,6.177c0,0,0.962,3.043,1.185,6.824c-10.622-2.788-22.634-3.065-33.185,0.124c-0.331-1.298-0.534-2.642-0.51-4.022C206.105,221.631,216.347,221.306,216.347,221.306z"></path></g><g><ellipse style="fill:#A2D7DD;" cx="217.654" cy="233.952" rx="11.905" ry="12.21"></ellipse><path style="opacity:0.5;" d="M226.836,240.203c0,0-0.349-6.799-9.157-6.799c-8.808,0-11.009,6.799-11.009,6.799s-3.245-9.04,2.318-15.298c8.344-3.708,17.615,0.232,17.615,0.232S233.558,234.872,226.836,240.203z"></path><g><ellipse cx="217.955" cy="234.397" rx="2.114" ry="3.02"></ellipse><ellipse style="fill:#FFFFFF;" cx="216.197" cy="230.99" rx="2.118" ry="1.647"></ellipse></g><g><path d="M222.179,222.771c0,0,8.076,4.177,5.987,13.923c-2.089,9.747-10.721,9.747-10.721,9.747s10.72,0.842,12.81-9.607C232.482,225.695,222.179,222.771,222.179,222.771z"></path><path d="M213.027,222.771c0,0-8.077,4.177-5.988,13.923c2.089,9.747,10.722,9.747,10.722,9.747s-10.721,0.842-12.811-9.607C202.724,225.695,213.027,222.771,213.027,222.771z"></path></g></g><g><g><path d="M220.229,217.342c-2.088-2.228-4.873-5.012-6.127-4.873c-1.252,0.139-3.759,5.012-3.759,5.012s-9.606,1.949-13.784,9.05c0.419,2.367,2.228,5.569,2.228,5.569s5.911-8.355,17.884-8.633c11.974-0.278,19.343,9.428,19.343,9.428S232.203,219.013,220.229,217.342z"></path><path d="M198.628,232.522c0,0,1.3,5.364,2.6,8.94c-5.688-3.088-7.314-9.916-7.639-11.216c1.626-1.789,4.226-4.389,4.226-4.389L198.628,232.522z"></path><path d="M235.824,219.152c0,0-10.025-2.646-25.341-1.532C218.977,213.583,234.432,216.924,235.824,219.152z"></path></g><g><path d="M212.944,245.808c0,0-0.558,1.67-1.254,1.81c-0.695,0.139-1.531-0.139-1.252-0.696C210.717,246.365,212.109,245.808,212.944,245.808z"></path><path d="M209.324,244.787c0,0-0.557,1.67-1.253,1.811c-0.696,0.139-1.531-0.14-1.253-0.696C207.097,245.344,208.489,244.787,209.324,244.787z"></path><path d="M206.074,242.962c0,0-0.557,1.67-1.253,1.81c-0.696,0.139-1.531-0.139-1.253-0.696C203.847,243.519,205.239,242.962,206.074,242.962z"></path></g></g></g></g></g></svg>