<svg xmlns="http://www.w3.org/2000/svg" width="500" height="500" version="1.1"><g id="x9102"><g><g><g><path style="fill:#FFFFFF;" d="M268.756,224.195c0,0-3.252,6.828-1.301,12.354c1.951,5.527,5.201,8.129,5.201,8.129s14.307,7.155,26.336-6.178c6.178-9.104,6.828-12.68,6.828-12.68s-17.883-6.828-26.012-5.853C271.355,221.919,268.756,224.195,268.756,224.195z"></path><path style="fill:#E4E0F3;" d="M300.682,235.933c4.598-7.206,5.139-10.113,5.139-10.113s-17.883-6.828-26.012-5.853c-8.453,1.951-11.053,4.227-11.053,4.227s-1.889,3.979-1.916,8.32C277.92,231.723,289.713,232.604,300.682,235.933z"></path></g><g><g><ellipse style="fill:#A2D7DD;" cx="281.744" cy="233.218" rx="11.893" ry="13.516"></ellipse><path style="fill:#84B9BF;" d="M281.742,219.703c-6.566,0-11.891,6.051-11.891,13.515c0,1.276,0.168,2.507,0.457,3.679c6.223-7.719,15.617-6.241,23.07-0.894c0.168-0.899,0.258-1.831,0.258-2.786C293.637,225.754,288.313,219.703,281.742,219.703z"></path></g><path style="opacity:0.5;fill:#FFFFFF;" d="M288.783,233.41c1.711,0.587,2.508,3.282,1.775,6.021c-0.729,2.737-2.705,4.479-4.414,3.891c-1.711-0.588-2.508-3.283-1.779-6.021C285.098,234.563,287.074,232.822,288.783,233.41z"></path><g><path d="M272.139,222.502c0,0-4.35,5.306-3.727,12.823C269,242.444,273.223,247,282.834,247c-6.863-1.603-11.496-4.796-11.676-12.362c-0.195-8.242,5.1-13.281,5.1-13.281L272.139,222.502z"></path><path d="M290.693,222.502c0,0,5.064,5.418,3.725,12.823C292.834,244.084,289.611,247,280,247c6.863-1.603,11.494-4.796,11.674-12.361c0.193-8.243-5.102-13.282-5.102-13.282L290.693,222.502z"></path></g><path d="M283.391,233.093c0,1.689-1.186,3.06-2.643,3.06c-1.463,0-2.646-1.37-2.646-3.06c0-1.689,1.184-3.061,2.646-3.061C282.205,230.032,283.391,231.404,283.391,233.093z"></path></g><g><g><path d="M260.951,229.072c0,0,9.094-10.837,21.232-12.355c16.041,1.95,25.914,7.151,27.865,9.103c-1.736,4.336-12.141,13.656-12.141,13.656s5.854-9.97,4.986-11.705c-3.25-2.382-15.834-5.744-20.385-6.177C277.957,221.16,260.951,229.072,260.951,229.072z"></path><path d="M279.486,217.584l6.502-6.72c-0.65,4.77-0.869,7.803-0.869,7.803L279.486,217.584z"></path></g></g></g><g><g><path style="fill:#FFFFFF;" d="M231.245,224.195c0,0,3.252,6.828,1.301,12.354c-1.951,5.527-5.202,8.129-5.202,8.129s-14.306,7.155-26.336-6.178c-6.177-9.104-6.827-12.68-6.827-12.68s17.882-6.828,26.011-5.853C228.644,221.919,231.245,224.195,231.245,224.195z"></path><path style="fill:#E4E0F3;" d="M199.318,235.933c-4.598-7.206-5.138-10.113-5.138-10.113s17.882-6.828,26.011-5.853c8.453,1.951,11.054,4.227,11.054,4.227s1.888,3.979,1.916,8.32C222.08,231.723,210.288,232.604,199.318,235.933z"></path></g><g><g><ellipse style="fill:#A2D7DD;" cx="218.256" cy="233.218" rx="11.893" ry="13.516"></ellipse><path style="fill:#84B9BF;" d="M218.257,219.703c6.566,0,11.892,6.051,11.892,13.515c0,1.276-0.168,2.507-0.458,3.679c-6.223-7.719-15.617-6.241-23.07-0.894c-0.167-0.899-0.257-1.831-0.257-2.786C206.364,225.754,211.688,219.703,218.257,219.703z"></path></g><path style="opacity:0.5;fill:#FFFFFF;" d="M225.856,233.41c1.712,0.587,2.508,3.282,1.776,6.021c-0.729,2.737-2.705,4.479-4.415,3.891c-1.711-0.588-2.507-3.283-1.778-6.021C222.17,234.563,224.147,232.822,225.856,233.41z"></path><g><path d="M227.862,222.502c0,0,4.349,5.306,3.727,12.823C231,242.444,226.777,247,217.167,247c6.863-1.603,11.496-4.796,11.676-12.362c0.195-8.242-5.101-13.281-5.101-13.281L227.862,222.502z"></path><path d="M209.307,222.502c0,0-5.065,5.418-3.726,12.823C207.167,244.084,210.388,247,220,247c-6.863-1.603-11.493-4.796-11.673-12.361c-0.194-8.243,5.101-13.282,5.101-13.282L209.307,222.502z"></path></g><ellipse cx="219.254" cy="233.093" rx="2.645" ry="3.06"></ellipse></g><g><g><path d="M239.048,229.072c0,0-9.093-10.837-21.232-12.355c-16.04,1.95-25.914,7.151-27.864,9.103c1.735,4.336,12.14,13.656,12.14,13.656s-5.854-9.97-4.986-11.705c3.251-2.382,15.835-5.744,20.386-6.177C222.042,221.16,239.048,229.072,239.048,229.072z"></path><path d="M220.514,217.584l-6.503-6.72c0.65,4.77,0.87,7.803,0.87,7.803L220.514,217.584z"></path></g></g></g></g></g></svg>