<svg xmlns="http://www.w3.org/2000/svg" width="500" height="500" version="1.1"><g id="x9103"><g><g><g><path style="fill:#FFFFFF;" d="M230.242,222.25c0,0,4.68,10-0.72,19.875c-13.679,9.75-27.018,1.904-27.018,1.904s-5.928-5.87-5.773-14.296c7.333-8.125,16.472-9.983,16.472-9.983S226.964,218.036,230.242,222.25z"></path><path style="fill:#E4E0F3;" d="M211.398,221.103c0,0,14.577-3.198,18.603,0.647c0,0,1.2,2.125,1.736,7.593c-10.515-0.783-25.017,2.782-34.408,7.86c-0.542-1.215-0.972-2.499-1.192-3.859C201.793,223.309,211.398,221.103,211.398,221.103z"></path></g><g><g><ellipse style="fill:#A2D7DD;" cx="219.616" cy="232.133" rx="12.415" ry="13.718"></ellipse><path style="fill:#84B9BF;" d="M219.615,218.417c-6.854,0-12.414,6.142-12.414,13.716c0,1.196,0.153,2.351,0.414,3.458c4.578-5.118,18.987-4.278,24.112-0.528c0.002-0.106,0.303-2.823,0.303-2.93C232.031,224.558,226.473,218.417,219.615,218.417z"></path><g><ellipse cx="221.105" cy="232.119" rx="2.205" ry="5.361"></ellipse></g><g><path d="M224.335,219.572c0,0,8.422,4.692,6.244,15.641c-2.179,10.95-11.18,10.95-11.18,10.95s11.179,0.946,13.358-10.792C235.08,222.857,224.335,219.572,224.335,219.572z"></path><path d="M214.792,219.572c0,0-8.423,4.692-6.245,15.641c2.179,10.95,11.181,10.95,11.181,10.95s-11.18,0.946-13.359-10.792C204.047,222.857,214.792,219.572,214.792,219.572z"></path></g></g><ellipse style="fill:#FFFFFF;" cx="227.892" cy="227.682" rx="2.379" ry="1.851"></ellipse><path style="opacity:0.5;fill:#FFFFFF;" d="M224.356,243.549c0,2.008-2.326,2.653-5.195,2.653c-2.87,0-5.196-0.645-5.196-2.653c0-2.009,2.327-4.62,5.196-4.62C222.03,238.929,224.356,241.54,224.356,243.549z"></path></g><g><g><g><g><g><path d="M213.624,215.833c-12.984,0.9-18.083,10.333-20,17.75c0.959,2.365,3.583,3.667,3.583,3.667s1.833-12.917,15.333-15.75c12.436-2.61,20.083,7.083,20.083,7.083S230.457,214.667,213.624,215.833z"></path></g><path d="M193.915,234.25c0,0-2.375-2.5-2.5-5c3-0.5,6-1.75,6-1.75L193.915,234.25z"></path><path d="M202.165,222c0,0-2.75-5-2.625-6.125c3.5,0.375,9.75,1,9.75,1L202.165,222z"></path></g><g><ellipse transform="matrix(0.7756 0.6313 -0.6313 0.7756 199.4676 -74.5259)" cx="204.54" cy="243.25" rx="1" ry="1.25"></ellipse><ellipse transform="matrix(0.7756 0.6313 -0.6313 0.7756 201.2913 -75.6552)" cx="207.04" cy="245.25" rx="1" ry="1.25"></ellipse><ellipse transform="matrix(0.8938 0.4485 -0.4485 0.8938 132.8855 -68.1312)" cx="210.29" cy="246.5" rx="1" ry="1.251"></ellipse></g><path d="M223.79,214.75c0,0-17.125-4.5-29.25,8.75C204.415,207.875,221.875,212.953,223.79,214.75z"></path></g></g></g></g><g><g><path style="fill:#FFFFFF;" d="M269.759,222.25c0,0-4.68,10,0.72,19.875c13.679,9.75,27.018,1.904,27.018,1.904s5.929-5.87,5.772-14.296c-7.333-8.125-16.471-9.983-16.471-9.983S273.036,218.036,269.759,222.25z"></path><path style="fill:#E4E0F3;" d="M288.602,221.103c0,0-14.577-3.198-18.603,0.647c0,0-1.201,2.125-1.736,7.593c10.516-0.783,25.018,2.782,34.408,7.86c0.541-1.215,0.971-2.499,1.191-3.859C298.207,223.309,288.602,221.103,288.602,221.103z"></path></g><g><g><ellipse style="fill:#A2D7DD;" cx="280.384" cy="232.133" rx="12.414" ry="13.718"></ellipse><path style="fill:#84B9BF;" d="M280.385,218.417c6.854,0,12.413,6.142,12.413,13.716c0,1.196-0.152,2.351-0.413,3.458c-4.577-5.118-18.987-4.278-24.112-0.528c-0.002-0.106-0.303-2.823-0.303-2.93C267.97,224.558,273.527,218.417,280.385,218.417z"></path><g><ellipse cx="278.896" cy="232.119" rx="2.205" ry="5.361"></ellipse></g><g><path d="M275.665,219.572c0,0-8.422,4.692-6.244,15.641c2.179,10.95,11.18,10.95,11.18,10.95s-11.178,0.946-13.357-10.792C264.92,222.857,275.665,219.572,275.665,219.572z"></path><path d="M285.208,219.572c0,0,8.424,4.692,6.245,15.641c-2.179,10.95-11.181,10.95-11.181,10.95s11.18,0.946,13.359-10.792C295.953,222.857,285.208,219.572,285.208,219.572z"></path></g></g><ellipse style="fill:#FFFFFF;" cx="288.939" cy="227.682" rx="2.379" ry="1.851"></ellipse><path style="opacity:0.5;fill:#FFFFFF;" d="M275.644,243.549c0,2.008,2.326,2.653,5.195,2.653c2.87,0,5.197-0.645,5.197-2.653c0-2.009-2.327-4.62-5.197-4.62C277.97,238.929,275.644,241.54,275.644,243.549z"></path></g><g><g><g><g><g><path d="M286.376,215.833c12.984,0.9,18.084,10.333,20,17.75c-0.959,2.365-3.582,3.667-3.582,3.667s-1.834-12.917-15.334-15.75c-12.436-2.61-20.084,7.083-20.084,7.083S269.543,214.667,286.376,215.833z"></path></g><path d="M306.085,234.25c0,0,2.375-2.5,2.5-5c-3-0.5-6-1.75-6-1.75L306.085,234.25z"></path><path d="M297.835,222c0,0,2.75-5,2.625-6.125c-3.5,0.375-9.75,1-9.75,1L297.835,222z"></path></g><g><ellipse transform="matrix(-0.7755 0.6314 -0.6314 -0.7755 678.1646 245.326)" cx="295.46" cy="243.25" rx="1" ry="1.25"></ellipse><ellipse transform="matrix(-0.7755 0.6314 -0.6314 -0.7755 674.9888 250.4554)" cx="292.96" cy="245.25" rx="1" ry="1.25"></ellipse><ellipse transform="matrix(-0.8938 0.4484 -0.4484 -0.8938 659.1903 336.9299)" cx="289.709" cy="246.5" rx="1" ry="1.251"></ellipse></g><path d="M276.21,214.75c0,0,17.125-4.5,29.25,8.75C295.585,207.875,278.126,212.953,276.21,214.75z"></path></g></g></g></g></g></g></svg>