<svg xmlns="http://www.w3.org/2000/svg" width="500" height="500" version="1.1"><g id="x9104"><g><g><g><g><path d="M268.535,225c-0.055,0,0.521-0.958,0.521-0.958s2.813-4.869,5.146-5.042c0.182-0.013,1.466-0.307,1.75-0.333c3.094-0.283,10.798-0.846,18.771,2.833c0.204,0.094,1.577,1.036,1.451,0.975c-7.978-3.951-17.524-3.074-20.661-2.787c-0.287,0.026-0.525,0.048-0.709,0.062C272.688,219.906,268.609,225,268.535,225z"></path></g><g><g><g><g><g><path style="fill:#FFF9FF;" d="M296.785,240.25c0,0-6.797,6.519-17.859,4.917c-11.064-1.602-11.444-3.667-11.444-3.667s-3.259-2.556-3.259-5.188c2.213-3.432,16.606-13.135,20.146-13.479c3.539-0.343,21,6.25,21,6.25L296.785,240.25z"></path><path style="fill:#E4E0F3;" d="M265.035,237.167c-0.717-0.167,0.334-0.179,0.334-1.333c2.213-3.432,15.376-12.156,18.916-12.5c3.539-0.343,20.667,5.583,20.667,5.583L301.619,234C290.344,230.883,274.869,233.167,265.035,237.167z"></path></g><g><path style="fill:#A2D7DD;" d="M290.535,224.25c0,0,5.908,8.59,2.813,12.938c-5.375,7.875-9.111,6.968-13.979,6.396c-4.869-0.572-7.698-1.954-8.583-5.271c-0.885-3.318,0.655-8.462,0.655-8.462s5.179-6.184,12.095-6.684C290.273,222.679,290.535,224.25,290.535,224.25z"></path><path style="fill:#84B9BF;" d="M270.535,235.083c0,0,13.167-3.75,23.167-2.25c0,0-1.083-6.417-3.833-7.333s-11,0.333-11,0.333l-8.167,4.75L270.535,235.083z"></path><path style="fill:#FF8A13;" d="M274.41,228.563c0,0-2.479,8.729,1.688,11.313s8.104,3.042,12.354-1.708s-0.979-12.604-0.979-12.604l4.063,0.521c0,0,3.5,4.833,2.5,8.417s-5.917,9.583-10.167,9.75s-8-0.833-8-0.833s-7.833-3.833-4.333-14.25L274.41,228.563z"></path><path d="M289.369,224.333c0,0,3.854,3.729,3.854,8.604c0.313,4.438-3.789,8.802-8.688,11.146c0.33,0.572,3.333-1.083,3.333-1.083s6.271-2.715,6.625-9.739c0.04-0.796,0.001-1.633-0.135-2.511C292.869,225.583,289.369,224.333,289.369,224.333z"></path><path d="M272.357,228.417c0,0-1.78,3.604-1.155,8.167c0.316,2.313,2.685,4.875,4.833,6.5c-1.134,0.501-4.886-1.587-6.043-6.21c-0.412-1.647,0.016-3.917,0.355-6.061C272.117,229.325,272.357,228.417,272.357,228.417z"></path></g></g></g><path style="fill:#FF8A13;" d="M287.032,232.942c0.062,0.618-0.389,1.17-1.007,1.232l-7.587,0.765c-0.618,0.063-1.17-0.388-1.231-1.006l0,0c-0.063-0.618,0.388-1.17,1.006-1.232l7.587-0.765C286.418,231.874,286.97,232.324,287.032,232.942L287.032,232.942z"></path><path d="M300.084,224.161c0,0,9.304,0.609,10.66-2.277c0,0-3.007,5.479-7.567,6.256"></path><path d="M262.91,239.75c0,0,2.625-9.375,11.875-15.25c5.136-2.08,11.439-2.521,16.04-1.868c8.948,1.271,15.96,2.243,15.96,2.243s-5.458,17.708-16.208,19.708c-5.891,1.553-13.084-0.25-18.917-1c-2.839-0.365-5.5-0.396-5.5-0.396s3.322-0.632,6.083-0.354c6.236,0.629,16.064,2.175,18.75,0.5c3.917-1.75,9.417-6.708,10.917-14.333c0,0-10.25-4.125-19.875-3S266.91,235.125,262.91,239.75z"></path></g><path d="M273.535,241.167c0,0,6.334,5.417,13.667,1.417l-2.5,2l-9.167-1.083L273.535,241.167z"></path></g></g><ellipse style="opacity:0.5;fill:#FFF9FF;" cx="281.564" cy="240.145" rx="2.471" ry="2.299"></ellipse></g><g><g><g><path d="M231.464,225c0.055,0-0.521-0.958-0.521-0.958s-2.813-4.869-5.146-5.042c-0.182-0.013-1.465-0.307-1.75-0.333c-3.094-0.283-10.797-0.846-18.77,2.833c-0.204,0.094-1.577,1.036-1.451,0.975c7.977-3.951,17.523-3.074,20.66-2.787c0.287,0.026,0.525,0.048,0.708,0.062C227.312,219.906,231.39,225,231.464,225z"></path></g><g><g><g><g><g><path style="fill:#FFF9FF;" d="M203.215,240.25c0,0,6.796,6.519,17.858,4.917c11.064-1.602,11.444-3.667,11.444-3.667s3.258-2.556,3.258-5.188c-2.212-3.432-16.605-13.135-20.146-13.479c-3.539-0.343-20.999,6.25-20.999,6.25L203.215,240.25z"></path><path style="fill:#E4E0F3;" d="M234.963,237.167c0.717-0.167-0.333-0.179-0.333-1.333c-2.213-3.432-15.375-12.156-18.916-12.5c-3.539-0.343-20.666,5.583-20.666,5.583l3.333,5.083C209.656,230.883,225.13,233.167,234.963,237.167z"></path></g><g><path style="fill:#A2D7DD;" d="M209.465,224.25c0,0-5.908,8.59-2.813,12.938c5.375,7.875,9.111,6.968,13.979,6.396c4.869-0.572,7.698-1.954,8.583-5.271c0.885-3.318-0.655-8.462-0.655-8.462s-5.178-6.184-12.094-6.684C209.727,222.679,209.465,224.25,209.465,224.25z"></path><path style="fill:#84B9BF;" d="M229.464,235.083c0,0-13.167-3.75-23.166-2.25c0,0,1.083-6.417,3.833-7.333s11,0.333,11,0.333l8.167,4.75L229.464,235.083z"></path><path style="fill:#FF8A13;" d="M225.589,228.563c0,0,2.479,8.729-1.687,11.313c-4.167,2.583-8.104,3.042-12.354-1.708c-4.25-4.75,0.979-12.604,0.979-12.604l-4.063,0.521c0,0-3.5,4.833-2.5,8.417s5.917,9.583,10.167,9.75c4.25,0.167,8-0.833,8-0.833s7.833-3.833,4.333-14.25L225.589,228.563z"></path><path d="M210.631,224.333c0,0-3.854,3.729-3.854,8.604c-0.313,4.438,3.789,8.802,8.687,11.146c-0.33,0.572-3.333-1.083-3.333-1.083s-6.271-2.715-6.625-9.739c-0.04-0.796-0.001-1.633,0.135-2.511C207.131,225.583,210.631,224.333,210.631,224.333z"></path><path d="M227.642,228.417c0,0,1.78,3.604,1.155,8.167c-0.316,2.313-2.685,4.875-4.833,6.5c1.133,0.501,4.885-1.587,6.042-6.21c0.412-1.647-0.016-3.917-0.355-6.061C227.882,229.325,227.642,228.417,227.642,228.417z"></path></g></g></g><path style="fill:#FF8A13;" d="M212.968,232.942c-0.062,0.618,0.389,1.17,1.007,1.232l7.586,0.765c0.618,0.063,1.17-0.388,1.231-1.006l0,0c0.063-0.618-0.388-1.17-1.006-1.232l-7.586-0.765C213.582,231.874,213.03,232.324,212.968,232.942L212.968,232.942z"></path><path d="M199.917,224.161c0,0-9.303,0.609-10.66-2.277c0,0,3.007,5.479,7.567,6.256"></path><path d="M237.088,239.75c0,0-2.625-9.375-11.875-15.25c-5.135-2.08-11.438-2.521-16.039-1.868c-8.948,1.271-15.959,2.243-15.959,2.243s5.458,17.708,16.207,19.708c5.89,1.553,13.083-0.25,18.916-1c2.839-0.365,5.5-0.396,5.5-0.396s-3.322-0.632-6.083-0.354c-6.236,0.629-16.063,2.175-18.749,0.5c-3.917-1.75-9.417-6.708-10.917-14.333c0,0,10.25-4.125,19.874-3S233.089,235.125,237.088,239.75z"></path></g><path d="M226.464,241.167c0,0-6.333,5.417-13.666,1.417l2.5,2l9.167-1.083L226.464,241.167z"></path></g></g><ellipse style="opacity:0.5;fill:#FFF9FF;" cx="218.435" cy="240.145" rx="2.471" ry="2.299"></ellipse></g></g></g></svg>