<svg xmlns="http://www.w3.org/2000/svg" width="500" height="500" version="1.1"><g id="x9105"><g><g><g><path style="fill:#FFFFFF;" d="M269.317,220.583c0,0-2.981,6.897-2.711,13.284c0.271,6.386,2.537,8.686,6.241,12.134c6.259,0.255,20.059,0.766,26.158-4.726c1.898-3.577,2.576-9.963,2.576-9.963s-5.694-13.283-15.726-14.305C275.824,215.985,269.317,220.583,269.317,220.583z"></path><path style="fill:#E4E0F3;" d="M301.582,231.312c0,0-5.694-13.283-15.726-14.305c-10.032-1.022-16.539,3.576-16.539,3.576s-1.654,3.833-2.387,8.429c11.906-0.603,23.972,1.738,34.576,6.877C301.815,232.553,301.582,231.312,301.582,231.312z"></path></g><g><g><path d="M265.578,226.799c0,0,2.982-9.146,9.46-11.781c7.278-1.819,15.552-1.657,23.76,7.112c7.397,7.905,4.615,15.622,4.615,15.622l-5.137,4.033c0,0,3.661-8.345,0.171-14.476c-4.445-7.808-12.222-10.935-20.607-9.877C271.029,218.291,265.578,226.799,265.578,226.799z"></path><path d="M276.638,216.411c0,0-6.982,1.022-10.56,2.554c1.874-1.805,9.197-5.791,19.756-4.258C282.599,215.899,276.638,216.411,276.638,216.411z"></path></g><g><ellipse transform="matrix(0.9133 -0.4073 0.4073 0.9133 -74.586 140.4857)" cx="292.696" cy="245.439" rx="0.638" ry="1.15"></ellipse><ellipse transform="matrix(0.8784 -0.4779 0.4779 0.8784 -80.9513 170.7217)" cx="295.072" cy="244.468" rx="0.638" ry="1.149"></ellipse><ellipse transform="matrix(0.7537 -0.6573 0.6573 0.7537 -86.5653 255.1563)" cx="297.116" cy="243.063" rx="0.638" ry="1.149"></ellipse></g><path d="M271.751,211.338c0,0,18.171-3.272,29.146,10.759C297.928,216.088,287.22,207.2,271.751,211.338z"></path></g><g><g><path d="M293.678,230.23c-0.712-10.826-6.447-13.964-11.236-14.005c-5.589-0.047-11.826,4.17-12.184,14.368c-0.363,10.383,6.588,14.046,6.588,14.046c-2.635-3.316-4.74-6.454-4.32-13.768c0.472-8.231,5.328-11.646,9.845-11.608c3.868,0.033,8.502,2.569,9.078,11.314c1.098,9.153-3.924,14.331-4.021,14.432C287.427,245.009,294.469,242.205,293.678,230.23z"></path><path style="fill:#A2D7DD;" d="M291.448,230.577c-0.576-8.745-5.21-11.282-9.078-11.314c-4.517-0.038-9.373,3.377-9.845,11.608c-0.42,7.313,1.686,10.452,4.32,13.768c0,0,1.752,0.634,5.241,0.756c3.49,0.122,5.34-0.386,5.34-0.386C287.524,244.908,292.546,239.73,291.448,230.577z"></path><path style="fill:#84B9BF;" d="M291.448,230.577c-0.576-8.745-5.21-11.282-9.078-11.314c-4.517-0.038-9.373,3.377-9.845,11.608c-0.074,1.311-0.065,2.483,0.01,3.551c6.013-3.507,12.946-2.89,19.009,0.129C291.628,233.322,291.62,232.004,291.448,230.577z"></path></g><ellipse style="fill:#FFFFFF;" cx="291.265" cy="232.611" rx="2.81" ry="2.043"></ellipse><ellipse cx="282.044" cy="231.462" rx="2.171" ry="2.938"></ellipse></g></g><g><g><path style="fill:#FFFFFF;" d="M230.682,220.583c0,0,2.982,6.897,2.711,13.284c-0.271,6.386-2.538,8.686-6.242,12.134c-6.258,0.255-20.058,0.766-26.158-4.726c-1.898-3.577-2.576-9.963-2.576-9.963s5.694-13.283,15.725-14.305C224.175,215.985,230.682,220.583,230.682,220.583z"></path><path style="fill:#E4E0F3;" d="M198.418,231.312c0,0,5.694-13.283,15.725-14.305c10.032-1.022,16.539,3.576,16.539,3.576s1.655,3.833,2.387,8.429c-11.907-0.603-23.972,1.738-34.576,6.877C198.185,232.553,198.418,231.312,198.418,231.312z"></path></g><g><g><path d="M233.921,226.799c0,0-2.981-9.146-9.459-11.781c-7.279-1.819-15.552-1.657-23.759,7.112c-7.398,7.905-4.616,15.622-4.616,15.622l5.137,4.033c0,0-3.661-8.345-0.171-14.476c4.445-7.808,12.222-10.935,20.607-9.877C228.471,218.291,233.921,226.799,233.921,226.799z"></path><path d="M223.362,216.411c0,0,6.983,1.022,10.56,2.554c-1.874-1.805-9.197-5.791-19.756-4.258C217.402,215.899,223.362,216.411,223.362,216.411z"></path></g><g><ellipse transform="matrix(-0.9134 -0.4071 0.4071 -0.9134 296.7238 554.0157)" cx="207.304" cy="245.439" rx="0.638" ry="1.149"></ellipse><ellipse transform="matrix(-0.8785 -0.4777 0.4777 -0.8785 268.1788 557.1326)" cx="204.927" cy="244.468" rx="0.638" ry="1.149"></ellipse><ellipse transform="matrix(-0.7537 -0.6573 0.6573 -0.7537 196.0353 559.5982)" cx="202.884" cy="243.063" rx="0.638" ry="1.149"></ellipse></g><path d="M228.249,211.338c0,0-18.17-3.272-29.145,10.759C202.073,216.088,212.781,207.2,228.249,211.338z"></path></g><g><g><path d="M206.322,230.23c0.712-10.826,6.447-13.964,11.236-14.005c5.589-0.047,11.827,4.17,12.184,14.368c0.363,10.383-6.588,14.046-6.588,14.046c2.635-3.316,4.74-6.454,4.32-13.768c-0.471-8.231-5.328-11.646-9.844-11.608c-3.869,0.033-8.503,2.569-9.079,11.314c-1.098,9.153,3.924,14.331,4.021,14.432C212.573,245.009,205.531,242.205,206.322,230.23z"></path><path style="fill:#A2D7DD;" d="M208.552,230.577c0.576-8.745,5.21-11.282,9.079-11.314c4.516-0.038,9.373,3.377,9.844,11.608c0.42,7.313-1.685,10.452-4.32,13.768c0,0-1.752,0.634-5.242,0.756c-3.489,0.122-5.339-0.386-5.339-0.386C212.476,244.908,207.454,239.73,208.552,230.577z"></path><path style="fill:#84B9BF;" d="M208.552,230.577c0.576-8.745,5.21-11.282,9.079-11.314c4.516-0.038,9.373,3.377,9.844,11.608c0.075,1.311,0.066,2.483-0.009,3.551c-6.013-3.507-12.946-2.89-19.009,0.129C208.372,233.322,208.38,232.004,208.552,230.577z"></path></g><ellipse style="fill:#FFFFFF;" cx="227.81" cy="232.611" rx="2.81" ry="2.043"></ellipse><ellipse cx="217.956" cy="231.462" rx="2.171" ry="2.938"></ellipse></g></g></g></g></svg>