<svg xmlns="http://www.w3.org/2000/svg" width="500" height="500" version="1.1"><g id="x9106"><g><g><g><path style="fill:#FFFFFF;" d="M198.678,238.79c0,0,2.708,9.282,18.582,9.462c9.83,0,15.964-8.569,16.234-21.376c-3.517-6.854-6.404-13.257-17.227-12.626c-10.824,0.631-20.476,15.791-20.476,15.791L198.678,238.79z"></path><path style="fill:#E4E0F3;" d="M216.267,214.25c-10.824,0.631-20.476,15.791-20.476,15.791l1.655,5.015c10.52-6.424,24.473-8.382,35.822-4.868c0.114-1.072,0.202-2.168,0.225-3.311C229.977,220.022,227.089,213.618,216.267,214.25z"></path></g><g><path d="M193.807,222.645c0,0,11.636-13.447,22.82-13.447c10.117,0,18.038,6.495,18.038,6.495s-5.848-7.99-17.588-7.848C202.195,208.024,193.807,222.645,193.807,222.645z"></path><g><path d="M199.665,242.25c-3.518-2.165-5.015-6.581-5.375-11c0.5-5.125,2.946-10.327,6.824-13.484c3.422-2.786,9.558-7.485,18.669-5.772c9.111,1.713,11.545,6.044,13.8,9.11c-1.803-1.624-2.435-1.805-2.435-1.805s1.623,2.165,3.247,9.561c-4.601-7.396-9.467-12.619-18.488-12.619C198.79,216.241,197.04,237,199.665,242.25z"></path><path d="M194.439,230.132c-0.361,0-4.419,0.089-6.314-2.346c2.346-0.181,8.291-1.411,8.291-1.411L194.439,230.132z"></path><path d="M194.349,229.139c0,0-3.246,4.238-3.878,4.419c2.254,0,4.601-1.083,4.601-1.083L194.349,229.139z"></path><path d="M195.342,226.793c0,0-5.954-1.624-7.306-4.33c5.861,0.993,11.274,0.632,11.274,0.632L195.342,226.793z"></path></g><g><path d="M201.065,242.802c0.169,0.304-0.099,0.778-0.595,1.056c-0.501,0.279-1.045,0.259-1.216-0.045c-0.168-0.305,0.099-0.778,0.6-1.058C200.352,242.477,200.895,242.497,201.065,242.802z"></path><path d="M202.936,245.131c0.229,0.263,0.068,0.782-0.358,1.16c-0.429,0.379-0.963,0.476-1.197,0.215c-0.229-0.261-0.068-0.782,0.362-1.161C202.168,244.968,202.702,244.871,202.936,245.131z"></path><path d="M205.432,246.733c0.333,0.107,0.46,0.636,0.284,1.178c-0.175,0.545-0.586,0.902-0.92,0.796c-0.331-0.109-0.456-0.638-0.281-1.184C204.688,246.983,205.099,246.627,205.432,246.733z"></path></g></g><g><g><path d="M229.489,232.777c0,11.544-5.331,15.332-11.905,15.332c-6.575,0-11.906-5.5-11.906-15.332c0-9.832,5.332-15.333,11.906-15.333C224.158,217.444,229.489,221.234,229.489,232.777z"></path><g><path style="fill:#A2D7DD;" d="M227.775,232.777c0,10.05-4.562,13.349-10.191,13.349s-10.191-4.789-10.191-13.349c0-8.559,4.562-13.349,10.191-13.349C223.212,219.428,227.775,222.728,227.775,232.777z"></path><path style="fill:#84B9BF;" d="M217.584,219.428c-5.629,0-10.191,4.791-10.191,13.349c0,1.529,0.19,2.89,0.46,4.172c4.641-3.791,13.271-5.094,19.836-2.011c0.053-0.686,0.086-1.398,0.086-2.161C227.775,222.728,223.212,219.428,217.584,219.428z"></path><g><g><ellipse style="opacity:0.5;" cx="217.64" cy="226.399" rx="9.916" ry="5"></ellipse></g></g><g><path d="M207.08,235.024c0,0,0.25-11.625,10-11.25s11.5,11.25,11.5,10.875s1.125-16.375-10.375-16.25S206.205,232.274,207.08,235.024z"></path></g><path style="fill:#FFFFFF;" d="M215.755,226.256c-1.5,1.383-3.566,1.586-4.611,0.45c-1.048-1.135-0.678-3.177,0.823-4.561c1.503-1.384,3.568-1.586,4.616-0.449C217.629,222.831,217.259,224.873,215.755,226.256z"></path></g></g><ellipse transform="matrix(0.7905 0.6125 -0.6125 0.7905 192.0249 -87.0098)" style="opacity:0.3;fill:#FFFFFF;" cx="223.181" cy="237.147" rx="1.467" ry="1.594"></ellipse><path d="M220.127,232.688c0,2.762-1.12,5-2.498,5c-1.381,0-2.502-2.238-2.502-5c0-2.762,1.121-5,2.502-5C219.007,227.688,220.127,229.926,220.127,232.688z"></path><ellipse style="opacity:0.3;fill:#FFFFFF;" cx="217.763" cy="242.247" rx="5.502" ry="3.427"></ellipse><path style="fill:#FFFFFF;" d="M223.899,240.714c0,0.499-0.407,0.902-0.902,0.902c-0.499,0-0.904-0.403-0.904-0.902s0.405-0.901,0.904-0.901C223.492,239.813,223.899,240.215,223.899,240.714z"></path></g></g><g><g><path style="fill:#FFFFFF;" d="M301.325,238.79c0,0-2.708,9.282-18.581,9.462c-9.83,0-15.965-8.569-16.234-21.376c3.516-6.854,6.404-13.257,17.227-12.626c10.824,0.631,20.475,15.791,20.475,15.791L301.325,238.79z"></path><path style="fill:#E4E0F3;" d="M283.736,214.25c10.824,0.631,20.475,15.791,20.475,15.791l-1.654,5.015c-10.52-6.424-24.473-8.382-35.822-4.868c-0.114-1.072-0.202-2.168-0.225-3.311C270.025,220.022,272.914,213.618,283.736,214.25z"></path></g><g><path d="M306.195,222.645c0,0-11.635-13.447-22.82-13.447c-10.117,0-18.037,6.495-18.037,6.495s5.848-7.99,17.588-7.848C297.809,208.024,306.195,222.645,306.195,222.645z"></path><g><path d="M300.338,242.25c3.518-2.165,5.016-6.581,5.375-11c-0.5-5.125-2.946-10.327-6.824-13.484c-3.422-2.786-9.558-7.485-18.668-5.772c-9.111,1.713-11.546,6.044-13.801,9.11c1.803-1.624,2.436-1.805,2.436-1.805s-1.623,2.165-3.247,9.561c4.601-7.396,9.467-12.619,18.488-12.619C301.213,216.241,302.963,237,300.338,242.25z"></path><path d="M305.564,230.132c0.36,0,4.419,0.089,6.314-2.346c-2.347-0.181-8.291-1.411-8.291-1.411L305.564,230.132z"></path><path d="M305.654,229.139c0,0,3.246,4.238,3.878,4.419c-2.255,0-4.601-1.083-4.601-1.083L305.654,229.139z"></path><path d="M304.66,226.793c0,0,5.954-1.624,7.307-4.33c-5.861,0.993-11.273,0.632-11.273,0.632L304.66,226.793z"></path></g><g><path d="M298.938,242.802c-0.17,0.304,0.099,0.778,0.596,1.056c0.501,0.279,1.045,0.259,1.216-0.045c0.168-0.305-0.099-0.778-0.601-1.058C299.651,242.477,299.108,242.497,298.938,242.802z"></path><path d="M297.066,245.131c-0.229,0.263-0.068,0.782,0.359,1.16c0.428,0.379,0.963,0.476,1.196,0.215c0.229-0.261,0.068-0.782-0.362-1.161C297.835,244.968,297.301,244.871,297.066,245.131z"></path><path d="M294.571,246.733c-0.333,0.107-0.46,0.636-0.284,1.178c0.175,0.545,0.586,0.902,0.92,0.796c0.331-0.109,0.456-0.638,0.281-1.184C295.314,246.983,294.904,246.627,294.571,246.733z"></path></g></g><g><g><path d="M270.512,232.777c0,11.544,5.331,15.332,11.905,15.332c6.575,0,11.906-5.5,11.906-15.332c0-9.832-5.331-15.333-11.906-15.333C275.843,217.444,270.512,221.234,270.512,232.777z"></path><g><path style="fill:#A2D7DD;" d="M272.226,232.777c0,10.05,4.562,13.349,10.191,13.349s10.19-4.789,10.19-13.349c0-8.559-4.561-13.349-10.19-13.349C276.789,219.428,272.226,222.728,272.226,232.777z"></path><path style="fill:#84B9BF;" d="M282.417,219.428c5.63,0,10.19,4.791,10.19,13.349c0,1.529-0.189,2.89-0.459,4.172c-4.641-3.791-13.271-5.094-19.836-2.011c-0.053-0.686-0.087-1.398-0.087-2.161C272.226,222.728,276.789,219.428,282.417,219.428z"></path><g><g><ellipse style="opacity:0.5;" cx="282.361" cy="226.399" rx="9.916" ry="5"></ellipse></g></g><g><path d="M292.921,235.024c0,0-0.25-11.625-10-11.25s-11.5,11.25-11.5,10.875s-1.125-16.375,10.375-16.25S293.796,232.274,292.921,235.024z"></path></g><ellipse transform="matrix(0.6776 0.7355 -0.7355 0.6776 254.4099 -131.8865)" style="fill:#FFFFFF;" cx="277.616" cy="224.201" rx="2.795" ry="3.697"></ellipse></g></g><ellipse transform="matrix(0.7905 0.6124 -0.6124 0.7905 205.3476 -126.0529)" style="opacity:0.3;fill:#FFFFFF;" cx="286.936" cy="237.147" rx="1.467" ry="1.595"></ellipse><path d="M279.874,232.688c0,2.762,1.12,5,2.497,5c1.381,0,2.502-2.238,2.502-5c0-2.762-1.121-5-2.502-5C280.994,227.688,279.874,229.926,279.874,232.688z"></path><ellipse style="opacity:0.3;fill:#FFFFFF;" cx="282.238" cy="242.247" rx="5.502" ry="3.427"></ellipse><path style="fill:#FFFFFF;" d="M287.654,240.714c0,0.499-0.407,0.902-0.902,0.902c-0.5,0-0.904-0.403-0.904-0.902s0.404-0.901,0.904-0.901C287.247,239.813,287.654,240.215,287.654,240.714z"></path></g></g></g></g></svg>