<svg xmlns="http://www.w3.org/2000/svg" width="500" height="500" version="1.1"><g id="x9107"><g><g><g><path style="fill:#FFFFFF;" d="M266.665,229.96c0,0,4.684,13.911,20.796,13.221c16.115-0.688,19.42-16.94,19.695-18.73c-2.891-2.203-17.629-4.958-21.898-4.407C280.989,220.595,266.665,229.96,266.665,229.96z"></path><path style="fill:#E4E0F3;" d="M304.679,231.755c1.758-3.478,2.365-6.579,2.478-7.304c-2.891-2.203-17.629-4.958-21.898-4.407c-4.269,0.551-18.593,9.916-18.593,9.916s0.772,2.292,2.767,4.971C279.939,230.298,292.613,229.471,304.679,231.755z"></path></g><g><path style="fill:#A2D7DD;" d="M296.507,222.018c0,0,2.577,17.486-11.386,19.281c-12.854,1.653-14.507-12.303-14.507-12.303s4.774-6.244,12.12-7.346C290.079,220.549,296.507,222.018,296.507,222.018z"></path><path d="M274.47,234.138c0-0.551,2.204-6.06,9.918-6.611c7.712-0.551,9.915,5.325,9.915,5.325s1.836-7.529,0.917-10.833c-4.406-2.204-17.628-0.736-23.137,6.427C272.818,231.382,274.47,234.138,274.47,234.138z"></path><path d="M296.507,222.018c0,0-6.428-1.469-13.772-0.368c-7.346,1.102-12.12,7.346-12.12,7.346s1.653,13.956,14.507,12.303C299.084,239.504,296.507,222.018,296.507,222.018z M284.862,239.541c-10.585,1.36-11.945-10.132-11.945-10.132s3.933-5.141,9.979-6.047c6.048-0.908,11.339,0.301,11.339,0.301S296.358,238.063,284.862,239.541z"></path><ellipse cx="282.945" cy="228.159" rx="5.233" ry="5.646"></ellipse><ellipse style="fill:#FFFFFF;" cx="282.945" cy="227.838" rx="1.056" ry="2.341"></ellipse></g><g><g><g><path d="M262.167,230.465c0,0,6.977-0.367,8.447-1.469c4.04-2.754,8.814-5.692,16.526-6.428c7.713-0.734,16.528,2.571,19.833,3.49c3.855-1.837,5.692-3.306,5.692-3.306s-14.336-6.386-27.729-5.693C274.287,217.61,262.167,230.465,262.167,230.465z"></path><path d="M281.814,218.529c0,0,4.592-4.408,5.326-6.244c-0.367,2.754-0.734,6.061-1.836,6.426C284.02,218.896,281.814,218.529,281.814,218.529z"></path></g><path d="M266.023,223.487c0,0,10.1-7.347,15.791-8.814c6.429-0.734,18.182,1.47,20.019,1.835c-4.226-2.57-18.363-3.671-21.485-3.305C276.307,214.673,266.023,223.487,266.023,223.487z"></path></g><g><path d="M296.323,240.198c0,0,4.223,2.387,5.05,3.214c1.376-1.837,1.927-4.682,2.388-5.693c1.468-1.01,2.111-0.734,2.387-0.827c0.367-1.284,1.009-4.59,1.009-4.59s2.388-2.113,1.928-2.754c-0.457-0.644-2.295-2.113-2.479-1.836c-0.184,0.275-2.293,2.295-3.214,2.938C301.833,233.495,297.977,239.188,296.323,240.198z"></path><path d="M294.303,242.952c0,0,0.643-1.285,1.194-1.377c0.551-0.091,3.397,2.847,2.662,3.122S294.487,243.686,294.303,242.952z"></path></g></g></g><g><g><path style="fill:#FFFFFF;" d="M233.335,229.96c0,0-4.684,13.911-20.796,13.221c-16.115-0.688-19.42-16.94-19.695-18.73c2.891-2.203,17.629-4.958,21.898-4.407C219.011,220.595,233.335,229.96,233.335,229.96z"></path><path style="fill:#E4E0F3;" d="M195.321,231.755c-1.758-3.478-2.365-6.579-2.478-7.304c2.891-2.203,17.629-4.958,21.898-4.407c4.269,0.551,18.593,9.916,18.593,9.916s-0.772,2.292-2.767,4.971C220.061,230.298,207.387,229.471,195.321,231.755z"></path></g><g><path style="fill:#A2D7DD;" d="M203.493,222.018c0,0-2.577,17.486,11.386,19.281c12.854,1.653,14.507-12.303,14.507-12.303s-4.774-6.244-12.12-7.346C209.921,220.549,203.493,222.018,203.493,222.018z"></path><path d="M225.53,234.138c0-0.551-2.204-6.06-9.918-6.611c-7.712-0.551-9.915,5.325-9.915,5.325s-1.836-7.529-0.917-10.833c4.406-2.204,17.628-0.736,23.137,6.427C227.182,231.382,225.53,234.138,225.53,234.138z"></path><path d="M214.879,241.299c12.854,1.653,14.507-12.303,14.507-12.303s-4.774-6.244-12.12-7.346c-7.345-1.102-13.772,0.368-13.772,0.368S200.916,239.504,214.879,241.299z M205.765,223.664c0,0,5.291-1.209,11.339-0.301c6.047,0.906,9.979,6.047,9.979,6.047s-1.36,11.492-11.945,10.132C203.642,238.063,205.765,223.664,205.765,223.664z"></path><ellipse cx="217.055" cy="228.159" rx="5.233" ry="5.646"></ellipse><ellipse style="fill:#FFFFFF;" cx="217.055" cy="227.838" rx="1.056" ry="2.341"></ellipse></g><g><g><g><path d="M237.833,230.465c0,0-6.977-0.367-8.447-1.469c-4.04-2.754-8.814-5.692-16.526-6.428c-7.713-0.734-16.528,2.571-19.833,3.49c-3.855-1.837-5.692-3.306-5.692-3.306s14.336-6.386,27.729-5.693C225.713,217.61,237.833,230.465,237.833,230.465z"></path><path d="M218.186,218.529c0,0-4.592-4.408-5.326-6.244c0.367,2.754,0.734,6.061,1.836,6.426C215.98,218.896,218.186,218.529,218.186,218.529z"></path></g><path d="M233.977,223.487c0,0-10.1-7.347-15.791-8.814c-6.429-0.734-18.182,1.47-20.019,1.835c4.226-2.57,18.363-3.671,21.485-3.305C223.693,214.673,233.977,223.487,233.977,223.487z"></path></g><g><path d="M203.677,240.198c0,0-4.223,2.387-5.05,3.214c-1.376-1.837-1.927-4.682-2.388-5.693c-1.468-1.01-2.111-0.734-2.387-0.827c-0.367-1.284-1.009-4.59-1.009-4.59s-2.388-2.113-1.928-2.754c0.457-0.644,2.295-2.113,2.479-1.836c0.184,0.275,2.293,2.295,3.214,2.938C198.167,233.495,202.023,239.188,203.677,240.198z"></path><path d="M205.697,242.952c0,0-0.643-1.285-1.194-1.377c-0.551-0.091-3.397,2.847-2.662,3.122S205.513,243.686,205.697,242.952z"></path></g></g></g></g></g></svg>