<svg xmlns="http://www.w3.org/2000/svg" width="500" height="500" version="1.1"><g id="x9108"><g><g><g><path style="fill:#FFFFFF;" d="M267.844,225.433c0,0-3.287,7.109,0.549,14.914c3.834,7.805,9.449,5.854,15.885,7.108c6.438,1.254,15.064-3.624,17.666-5.854c2.604-7.527,3.563-9.199,3.15-9.199c-0.41,0-8.08-12.823-21.775-12.544C269.625,220.136,267.844,225.433,267.844,225.433z"></path><path style="fill:#E4E0F3;" d="M305.094,232.183c-0.41,0-8.08-12.599-21.775-12.325c-13.693,0.274-15.475,5.478-15.475,5.478s-1.186,2.543-1.295,6.236c12.141,0.776,25.482,1.284,37.092,4.99C304.951,233.091,305.398,232.183,305.094,232.183z"></path></g><g><path style="fill:#635D5A;" d="M295.004,232.989c0,7.531-6.072,13.636-13.568,13.636c-7.498,0-13.572-6.104-13.572-13.636c0-7.531,6.074-13.636,13.572-13.636C288.932,219.353,295.004,225.457,295.004,232.989z"></path><linearGradient id="eyeXMLID_12_" gradientUnits="userSpaceOnUse" x1="281.4326" y1="223.7778" x2="281.4326" y2="241.0823"><stop offset="0" style="stop-color:#CEE6D2"></stop><stop offset="0.3315" style="stop-color:#E1EAF3"></stop><stop offset="0.6517" style="stop-color:#EAE5FF"></stop><stop offset="0.9775" style="stop-color:#FDD9FF"></stop></linearGradient><path style="fill:url(#eyeXMLID_12_);" d="M293.885,232.989c0,6.91-5.57,12.512-12.447,12.512c-6.885,0-12.457-5.602-12.457-12.512c0-6.91,5.572-12.513,12.457-12.513C288.314,220.476,293.885,226.078,293.885,232.989z"></path><path style="fill:#F7F6DA;" d="M284.133,232.551c0,1.801-1.262,3.262-2.822,3.262c-1.555,0-2.818-1.461-2.818-3.262c0-1.803,1.264-3.263,2.818-3.263C282.871,229.288,284.133,230.748,284.133,232.551z"></path><ellipse style="fill:#FFFFFF;" cx="273.338" cy="240.904" rx="3.316" ry="2"></ellipse></g><g><g><path d="M262.777,230.95c0,0,3.834-9.586,13.9-13.266c5.48-2.003,24.33-2.629,31.225,18.441c-2.49,2.682-6.709,6.651-8.814,7.034c2.488-2.683,4.33-6.656,4.211-9.578c-1.342-3.064-7.611-11.396-20.639-12.162C273.658,220.889,262.777,230.95,262.777,230.95z"></path><path d="M301.957,225.729c0,0,5.365,0,12.643-4.98c-6.512,7.47-11.494,8.236-11.494,8.236L301.957,225.729z"></path><path d="M262.406,220.773c-0.232,0.545,6.105-5.388,17.883-6.321C273.754,212.728,264.057,216.894,262.406,220.773z"></path></g><g><path d="M294.299,245.542c0.32,0.569,0.314,1.183-0.014,1.367c-0.328,0.186-0.855-0.128-1.176-0.698c-0.318-0.571-0.313-1.183,0.012-1.368C293.453,244.659,293.98,244.972,294.299,245.542z"></path><path d="M290.963,246.848c0.242,0.61,0.15,1.216-0.201,1.353c-0.352,0.138-0.828-0.245-1.068-0.854c-0.238-0.611-0.148-1.216,0.201-1.354C290.248,245.856,290.725,246.239,290.963,246.848z"></path><path d="M287.768,247.691c0.121,0.643-0.086,1.221-0.453,1.289c-0.373,0.069-0.768-0.396-0.889-1.04c-0.121-0.645,0.082-1.221,0.451-1.291C287.25,246.581,287.648,247.046,287.768,247.691z"></path></g></g></g><g><g><path style="fill:#FFFFFF;" d="M232.156,225.433c0,0,3.287,7.109-0.548,14.914c-3.834,7.805-9.449,5.854-15.886,7.108c-6.437,1.254-15.064-3.624-17.666-5.854c-2.603-7.527-3.562-9.199-3.15-9.199s8.08-12.823,21.775-12.544C230.375,220.136,232.156,225.433,232.156,225.433z"></path><path style="fill:#E4E0F3;" d="M194.906,232.183c0.411,0,8.08-12.599,21.775-12.325c13.694,0.274,15.475,5.478,15.475,5.478s1.186,2.543,1.295,6.236c-12.14,0.776-25.481,1.284-37.092,4.99C195.049,233.091,194.602,232.183,194.906,232.183z"></path></g><g><path style="fill:#635D5A;" d="M204.996,232.989c0,7.531,6.073,13.636,13.568,13.636c7.498,0,13.573-6.104,13.573-13.636c0-7.531-6.075-13.636-13.573-13.636C211.069,219.353,204.996,225.457,204.996,232.989z"></path><linearGradient id="eyeXMLID_13_" gradientUnits="userSpaceOnUse" x1="206.6733" y1="223.7778" x2="206.6733" y2="241.0823" gradientTransform="matrix(-1 0 0 1 425.2412 0)"><stop offset="0" style="stop-color:#CEE6D2"></stop><stop offset="0.3315" style="stop-color:#E1EAF3"></stop><stop offset="0.6517" style="stop-color:#EAE5FF"></stop><stop offset="0.9775" style="stop-color:#FDD9FF"></stop></linearGradient><path style="fill:url(#eyeXMLID_13_);" d="M206.116,232.989c0,6.91,5.57,12.512,12.447,12.512c6.884,0,12.457-5.602,12.457-12.512c0-6.91-5.573-12.513-12.457-12.513C211.686,220.476,206.116,226.078,206.116,232.989z"></path><path style="fill:#F7F6DA;" d="M215.868,232.551c0,1.801,1.261,3.262,2.821,3.262c1.556,0,2.819-1.461,2.819-3.262c0-1.803-1.264-3.263-2.819-3.263C217.128,229.288,215.868,230.748,215.868,232.551z"></path><ellipse style="fill:#FFFFFF;" cx="210.912" cy="240.904" rx="3.316" ry="2"></ellipse></g><g><g><path d="M237.223,230.95c0,0-3.835-9.586-13.9-13.266c-5.48-2.003-24.33-2.629-31.225,18.441c2.489,2.682,6.709,6.651,8.814,7.034c-2.489-2.683-4.331-6.656-4.212-9.578c1.342-3.064,7.611-11.396,20.639-12.162C226.342,220.889,237.223,230.95,237.223,230.95z"></path><path d="M198.042,225.729c0,0-5.364,0-12.642-4.98c6.512,7.47,11.493,8.236,11.493,8.236L198.042,225.729z"></path><path d="M237.593,220.773c0.233,0.545-6.105-5.388-17.883-6.321C226.246,212.728,235.943,216.894,237.593,220.773z"></path></g><g><path d="M205.702,245.542c-0.321,0.569-0.315,1.183,0.013,1.367c0.329,0.186,0.855-0.128,1.177-0.698c0.318-0.571,0.313-1.183-0.013-1.368C206.546,244.659,206.02,244.972,205.702,245.542z"></path><path d="M209.038,246.848c-0.242,0.61-0.15,1.216,0.201,1.353c0.351,0.138,0.828-0.245,1.067-0.854c0.239-0.611,0.149-1.216-0.201-1.354C209.751,245.856,209.275,246.239,209.038,246.848z"></path><ellipse transform="matrix(-0.9832 -0.1825 0.1825 -0.9832 377.0114 530.3203)" cx="212.903" cy="247.816" rx="0.682" ry="1.185"></ellipse></g></g></g></g></g></svg>