<svg xmlns="http://www.w3.org/2000/svg" width="500" height="500" version="1.1"><g id="x9109"><g><g><g><path style="fill:#FFFFFF;" d="M196.415,226.026c0,0,1.927,13.332,9.087,16.92c4.681,2.564,15.696,4.102,21.478,0.77c3.304-1.795,7.16-14.357,7.16-16.152c-3.855-3.076-6.058-4.358-6.058-4.358S203.85,220.386,196.415,226.026z"></path><path style="fill:#E4E0F3;" d="M231.703,235.884c1.427-3.669,2.436-7.402,2.436-8.32c-3.855-3.076-6.058-4.358-6.058-4.358s-24.231-2.82-31.667,2.82c0,0,0.569,3.921,2.23,8.082C209.687,233.591,220.838,234.074,231.703,235.884z"></path></g><g><path style="fill:#A2D7DD;" d="M207.6,226.282c0,0-2.307,14.101,10.768,16.408c5.64-0.513,11.793-5.64,11.024-16.408C225.546,222.693,211.189,221.924,207.6,226.282z"></path><ellipse style="opacity:0.5;fill:#FFFFFF;" cx="218.822" cy="238.726" rx="5.125" ry="3.375"></ellipse><path style="fill:#84B9BF;" d="M229.063,232.102c0.347-1.72,0.484-3.649,0.329-5.819c-3.846-3.589-18.203-4.358-21.792,0c0,0-0.476,2.934,0.242,6.342C214.73,231.66,221.986,231.326,229.063,232.102z"></path><g><ellipse cx="219.265" cy="232.948" rx="2.179" ry="3.333"></ellipse></g><g><path d="M205.549,225c0,0.769-3.333,16.408,11.537,17.946c-12.049-5.896-8.46-17.689-8.46-17.689L205.549,225z"></path><path d="M230.867,225c0,0.769,3.333,16.408-11.537,17.946c12.049-5.896,8.46-17.689,8.46-17.689L230.867,225z"></path></g></g><ellipse style="fill:#FFFFFF;" cx="207.728" cy="231.666" rx="3.205" ry="2.308"></ellipse><g><g><g><path d="M238.27,230.641c0,0-7.16-2.564-10.188-4.102c-4.957-2.051-28.913,0-31.116,0.769c-6.058-1.794-9.362-4.102-9.362-4.102s28.638-5.64,41.58-1.794C233.864,225,238.27,230.641,238.27,230.641z"></path><path d="M225.603,223.975c0,0-2.754-2.308-5.232-3.589c3.58-0.513,14.87,1.025,18.174,4.358C237.443,224.231,225.603,223.975,225.603,223.975z"></path></g><g><path d="M197.24,229.872c0,0,3.58,8.204,7.71,11.793c4.13,3.589,18.725,2.82,22.029,2.051c-8.536,3.589-19.275,3.076-23.13-0.257C198.283,238.646,197.24,229.872,197.24,229.872z"></path><g><path d="M210.733,244.741c0,0-2.203,3.076-4.13,3.333c-1.102-1.538,0.275-3.845,0.275-3.845L210.733,244.741z"></path><path d="M204.125,242.946c0,0-4.406,2.564-5.232,1.795c0.551-2.051,3.029-4.358,3.029-4.358L204.125,242.946z"></path><path d="M200.27,237.819c0,0-3.029,0.256-4.681-0.256c0.551-1.538,3.58-2.82,3.58-2.82L200.27,237.819z"></path></g></g></g><g><path d="M207.979,217.309c0,0,21.479-4.102,25.884-1.538c4.406,2.563,5.783,3.846,5.783,3.846S232.211,215.002,207.979,217.309z"></path></g></g></g><g><g><path style="fill:#FFFFFF;" d="M303.586,226.026c0,0-1.928,13.332-9.088,16.92c-4.681,2.564-15.695,4.102-21.478,0.77c-3.304-1.795-7.159-14.357-7.159-16.152c3.855-3.076,6.058-4.358,6.058-4.358S296.15,220.386,303.586,226.026z"></path><path style="fill:#E4E0F3;" d="M268.297,235.884c-1.427-3.669-2.436-7.402-2.436-8.32c3.855-3.076,6.058-4.358,6.058-4.358s24.231-2.82,31.667,2.82c0,0-0.57,3.921-2.23,8.082C290.313,233.591,279.162,234.074,268.297,235.884z"></path></g><g><path style="fill:#A2D7DD;" d="M292.4,226.282c0,0,2.307,14.101-10.768,16.408c-5.641-0.513-11.793-5.64-11.024-16.408C274.454,222.693,288.811,221.924,292.4,226.282z"></path><ellipse style="opacity:0.5;fill:#FFFFFF;" cx="281.178" cy="238.726" rx="5.125" ry="3.375"></ellipse><path style="fill:#84B9BF;" d="M270.938,232.102c-0.348-1.72-0.484-3.649-0.329-5.819c3.846-3.589,18.202-4.358,21.792,0c0,0,0.476,2.934-0.242,6.342C285.27,231.66,278.014,231.326,270.938,232.102z"></path><g><ellipse cx="280.735" cy="232.948" rx="2.179" ry="3.333"></ellipse></g><g><path d="M294.451,225c0,0.769,3.333,16.408-11.537,17.946c12.05-5.896,8.461-17.689,8.461-17.689L294.451,225z"></path><path d="M269.133,225c0,0.769-3.332,16.408,11.537,17.946c-12.049-5.896-8.46-17.689-8.46-17.689L269.133,225z"></path></g></g><ellipse style="fill:#FFFFFF;" cx="271.772" cy="231.666" rx="3.205" ry="2.308"></ellipse><g><g><g><path d="M261.73,230.641c0,0,7.16-2.564,10.188-4.102c4.956-2.051,28.913,0,31.116,0.769c6.058-1.794,9.362-4.102,9.362-4.102s-28.638-5.64-41.58-1.794C266.137,225,261.73,230.641,261.73,230.641z"></path><path d="M274.396,223.975c0,0,2.754-2.308,5.232-3.589c-3.58-0.513-14.869,1.025-18.174,4.358C262.557,224.231,274.396,223.975,274.396,223.975z"></path></g><g><path d="M302.76,229.872c0,0-3.58,8.204-7.711,11.793c-4.13,3.589-18.725,2.82-22.028,2.051c8.536,3.589,19.274,3.076,23.13-0.257C301.717,238.646,302.76,229.872,302.76,229.872z"></path><g><path d="M289.267,244.741c0,0,2.203,3.076,4.13,3.333c1.102-1.538-0.275-3.845-0.275-3.845L289.267,244.741z"></path><path d="M295.875,242.946c0,0,4.406,2.564,5.232,1.795c-0.551-2.051-3.029-4.358-3.029-4.358L295.875,242.946z"></path><path d="M299.73,237.819c0,0,3.029,0.256,4.682-0.256c-0.551-1.538-3.58-2.82-3.58-2.82L299.73,237.819z"></path></g></g></g><g><path d="M292.021,217.309c0,0-21.479-4.102-25.884-1.538c-4.406,2.563-5.783,3.846-5.783,3.846S267.789,215.002,292.021,217.309z"></path></g></g></g></g></g></svg>