<svg xmlns="http://www.w3.org/2000/svg" width="500" height="500" version="1.1"><g id="x9110"><g><g><g><path style="fill:#FFFFFF;" d="M196.966,224.713c0,0,0,20.414,19.945,21.705c4.928,0,6.453-0.353,6.453-0.353s10.912-3.989,11.263-16.542c-6.452-7.744-18.302-10.208-18.302-10.208S200.721,217.673,196.966,224.713z"></path><path style="fill:#E4E0F3;" d="M216.325,219.315c0,0-15.604-1.643-19.358,5.397c0,0,0.005,3.558,1.456,7.795c11.565-2.647,23.981-1.775,35.346,2.301c0.49-1.563,0.805-3.32,0.859-5.286C228.175,221.779,216.325,219.315,216.325,219.315z"></path></g><g><path style="fill:#A2D7DD;" d="M210.923,219.902c0,0-5.749,5.162-5.104,12.554c0.646,7.392,6.277,11.498,11.557,11.38c5.28-0.704,12.084-5.631,12.084-11.615c0-5.984-3.051-11.146-3.051-11.146S213.271,218.26,210.923,219.902z"></path><path style="fill:#84B9BF;" d="M226.41,221.076c0,0-13.14-2.816-15.487-1.173c0,0-5.749,5.162-5.104,12.554c0.173,1.978,0.712,3.712,1.496,5.203c4.159-6.554,14.846-6.433,21.242-1.701c0.563-1.175,0.904-2.427,0.904-3.736C229.461,226.238,226.41,221.076,226.41,221.076z"></path><path style="opacity:0.3;fill:#FFFFFF;" d="M226.528,229.053c-2.464,1.408-4.224-1.525-5.632-2.464c-1.407-0.938-3.753-1.29-3.52-3.05c0.234-1.76,5.162-2.698,7.274-1.408C226.763,223.422,228.992,227.646,226.528,229.053z"></path><g><path d="M207.991,220.606c0,0-4.297,4.477-3.402,12.202c0.939,8.096,7.157,11.849,12.202,11.028c-4.693-1.056-9.62-4.928-9.62-12.437c0-7.391,5.279-11.146,5.279-11.146L207.991,220.606z"></path><path d="M227.01,220.606c0,0,4.928,4.575,3.402,12.202c-1.525,7.626-5.292,11.146-12.566,10.794c4.692-1.292,9.985-4.694,9.985-12.202c0-7.392-5.279-11.146-5.279-11.146L227.01,220.606z"></path></g><ellipse cx="217.787" cy="230.109" rx="2.171" ry="3.05"></ellipse><ellipse style="fill:#FFFFFF;" cx="217.905" cy="227" rx="1.701" ry="2.17"></ellipse><ellipse style="fill:#FFFFFF;" cx="205.82" cy="232.456" rx="3.461" ry="1.877"></ellipse><ellipse style="opacity:0.5;fill:#FFFFFF;" cx="217.552" cy="237.677" rx="4.986" ry="3.46"></ellipse></g><g><g><g><path d="M189.692,223.305c0.351,1.877,3.168,9.386,9.503,11.615c-1.173-3.637-2.112-7.978-0.353-10.325c1.761-2.346,13.023-5.514,21.588-2.816c8.565,2.699,14.666,8.917,14.666,8.917c-0.704-3.167-1.822-10.166-14.783-13.961C203.889,211.924,189.692,223.305,189.692,223.305z"></path><path d="M214.213,217.438c0,0-1.408-3.52,1.056-6.922c2.229,2.229,3.285,6.218,7.744,6.922c4.458,0.704,8.682,2.464,10.677,4.693c-2.23-0.469-6.453-0.469-6.453-0.469C227.001,220.841,214.213,217.438,214.213,217.438z"></path></g><path d="M224.89,213.919c0,0,4.81,1.877,9.854,3.52C234.158,214.857,227.353,213.098,224.89,213.919z"></path></g><g><path d="M200.721,236.68c0,0,1.173,1.056,0.939,2.346c-0.235,1.292-3.403,0-3.754-1.056C197.553,236.914,200.134,236.563,200.721,236.68z"></path><path d="M201.307,242.194c0,0,1.291-1.29,2.229-1.525c0.938-0.234,4.458,1.878,3.754,2.582C206.586,243.954,201.777,243.836,201.307,242.194z"></path><path d="M216.559,246.3c0,0,6.497-0.748,6.805-0.234C223.716,246.652,217.85,247.825,216.559,246.3z"></path></g></g></g><g><g><path style="fill:#FFFFFF;" d="M303.034,224.713c0,0,0,20.414-19.945,21.705c-4.928,0-6.453-0.353-6.453-0.353s-10.912-3.989-11.263-16.542c6.452-7.744,18.303-10.208,18.303-10.208S299.279,217.673,303.034,224.713z"></path><path style="fill:#E4E0F3;" d="M283.676,219.315c0,0,15.604-1.643,19.358,5.397c0,0-0.006,3.558-1.456,7.795c-11.565-2.647-23.982-1.775-35.346,2.301c-0.491-1.563-0.806-3.319-0.859-5.286C271.825,221.779,283.676,219.315,283.676,219.315z"></path></g><g><path style="fill:#A2D7DD;" d="M289.076,219.902c0,0,5.749,5.162,5.104,12.554c-0.645,7.392-6.276,11.498-11.557,11.38c-5.279-0.704-12.084-5.631-12.084-11.615c0-5.984,3.051-11.146,3.051-11.146S286.729,218.26,289.076,219.902z"></path><path style="fill:#84B9BF;" d="M273.59,221.076c0,0,13.14-2.816,15.486-1.173c0,0,5.749,5.162,5.104,12.554c-0.172,1.978-0.712,3.712-1.495,5.203c-4.158-6.554-14.846-6.433-21.242-1.701c-0.563-1.175-0.903-2.427-0.903-3.736C270.539,226.238,273.59,221.076,273.59,221.076z"></path><path style="opacity:0.3;fill:#FFFFFF;" d="M273.472,229.053c2.464,1.408,4.224-1.525,5.632-2.464c1.408-0.938,3.754-1.29,3.52-3.05c-0.234-1.76-5.161-2.698-7.273-1.408S271.008,227.646,273.472,229.053z"></path><g><path d="M292.01,220.606c0,0,4.297,4.477,3.401,12.202c-0.938,8.096-7.156,11.849-12.201,11.028c4.693-1.056,9.62-4.928,9.62-12.436c0-7.392-5.279-11.146-5.279-11.146L292.01,220.606z"></path><path d="M272.99,220.606c0,0-4.928,4.575-3.402,12.202c1.525,7.626,5.292,11.146,12.566,10.794c-4.693-1.292-9.985-4.694-9.985-12.202c0-7.392,5.279-11.146,5.279-11.146L272.99,220.606z"></path></g><ellipse cx="282.212" cy="230.109" rx="2.17" ry="3.05"></ellipse><ellipse style="fill:#FFFFFF;" cx="282.096" cy="227" rx="1.701" ry="2.17"></ellipse><ellipse style="fill:#FFFFFF;" cx="271.564" cy="232.456" rx="3.46" ry="1.877"></ellipse><ellipse style="opacity:0.5;fill:#FFFFFF;" cx="282.447" cy="237.677" rx="4.986" ry="3.461"></ellipse></g><g><g><g><path d="M310.308,223.305c-0.352,1.877-3.168,9.386-9.503,11.615c1.173-3.637,2.112-7.978,0.353-10.325c-1.761-2.346-13.023-5.514-21.588-2.816c-8.565,2.699-14.666,8.917-14.666,8.917c0.704-3.167,1.822-10.166,14.783-13.961C296.111,211.924,310.308,223.305,310.308,223.305z"></path><path d="M285.787,217.438c0,0,1.407-3.52-1.056-6.922c-2.229,2.229-3.285,6.218-7.743,6.922c-4.459,0.704-8.683,2.464-10.678,4.693c2.23-0.469,6.453-0.469,6.453-0.469C272.999,220.841,285.787,217.438,285.787,217.438z"></path></g><path d="M275.11,213.919c0,0-4.81,1.877-9.854,3.52C265.842,214.857,272.646,213.098,275.11,213.919z"></path></g><g><path d="M299.279,236.68c0,0-1.173,1.056-0.939,2.346c0.235,1.292,3.403,0,3.755-1.056C302.447,236.914,299.866,236.563,299.279,236.68z"></path><path d="M298.692,242.194c0,0-1.29-1.29-2.229-1.525c-0.939-0.234-4.459,1.878-3.755,2.582C293.414,243.954,298.223,243.836,298.692,242.194z"></path><path d="M283.441,246.3c0,0-6.498-0.748-6.806-0.234C276.284,246.652,282.149,247.825,283.441,246.3z"></path></g></g></g></g></g></svg>