<svg xmlns="http://www.w3.org/2000/svg" width="500" height="500" version="1.1"><g id="x9111"><g><g><g><path style="fill:#FFFFFF;" d="M233.172,229.703c0,0-4.001,6.869-8.002,8.203c-5.558,0.889-13.781,0.444-17.782-1.778c-7.334-3.557-13.113-7.536-13.78-15.982C201.387,221.257,228.059,223.035,233.172,229.703z"></path><path style="fill:#E4E0F3;" d="M233.172,229.703c0,0-1.251,2.708-3.053,5.33c-11.016-4.143-22.707-6.827-34.537-7.82c-1.074-2.111-1.77-4.461-1.975-7.067C201.387,221.257,228.059,223.035,233.172,229.703z"></path></g><g><path style="fill:#A2D7DD;" d="M228.559,228.147c0,0-1.728,8.54-12.892,8.446s-12.002-14.003-12.002-14.003L228.559,228.147z"></path><g><path d="M204.751,223.333c0,0,0,12,11,13.5c-5.667-0.333-13.667-5.5-12.834-13.667C203.917,222.833,204.751,223.333,204.751,223.333z"></path><path d="M227.169,225.015c0,0-0.165,11.242-11.252,11.819c5.675,0.141,13.242-3.624,13.093-11.832C228.041,224.586,227.169,225.015,227.169,225.015z"></path></g><path d="M225.301,226.799c0,0-1.13,6.594-9.494,6.594s-8.44-10.286-8.44-10.286S221.872,223.898,225.301,226.799z"></path><ellipse style="fill:#FFFFFF;" cx="217" cy="234.371" rx="2.445" ry="3.112"></ellipse><ellipse style="fill:#FFFFFF;" cx="223.334" cy="229.083" rx="2.25" ry="1.25"></ellipse></g><g><g><path d="M239.173,231.704c0,0-4.604-4.851-8.002-6.224c-5.779-2.333-32.006-7.409-37.638-6.816c-1.966,0.207-3.704,1.26-4.594,2.149c4.89,11.114,9.849,14.675,22.967,16.797c-7.703-3.854-16.966-8.129-16.299-14.501C216.611,223.924,239.173,231.704,239.173,231.704z"></path><g><path d="M204.917,235.833c0,0-1.5,1.333-2,2.333c-1.166-1,0-3.333,0-3.333L204.917,235.833z"></path><path d="M201.417,234.5c0,0-1.5,1.333-2,2.333c-1.166-1,0-3.333,0-3.333L201.417,234.5z"></path><path d="M198.185,232.742c0,0-1.718,1.037-2.393,1.928c-0.964-1.197,0.609-3.277,0.609-3.277L198.185,232.742z"></path></g><path d="M201.164,219.256c0,0-11.002-1.778-15.67-0.333c2.89,1.778,7.112,3.89,7.112,3.89L201.164,219.256z"></path></g><path d="M211.084,217c0,0,18.667,3.834,25.667,6.667C233.251,220.333,214.417,216,211.084,217z"></path><path d="M225.837,238.017c0.344,0.072-5.113,1.889-13.781-0.223C217.723,237.238,223.725,237.572,225.837,238.017z"></path></g></g><g><g><path style="fill:#FFFFFF;" d="M266.828,229.703c0,0,4.002,6.869,8.002,8.203c5.559,0.889,13.781,0.444,17.783-1.778c7.334-3.557,13.113-7.536,13.779-15.982C298.613,221.257,271.941,223.035,266.828,229.703z"></path><path style="fill:#E4E0F3;" d="M266.828,229.703c0,0,1.252,2.708,3.053,5.33c11.016-4.143,22.707-6.827,34.537-7.82c1.074-2.111,1.77-4.461,1.975-7.067C298.613,221.257,271.941,223.035,266.828,229.703z"></path></g><g><path style="fill:#A2D7DD;" d="M271.441,228.147c0,0,1.729,8.54,12.893,8.446s12.002-14.003,12.002-14.003L271.441,228.147z"></path><g><path d="M295.25,223.333c0,0,0,12-11,13.5c5.667-0.333,13.667-5.5,12.834-13.667C296.084,222.833,295.25,223.333,295.25,223.333z"></path><path d="M272.832,225.015c0,0,0.165,11.242,11.252,11.819c-5.676,0.141-13.242-3.624-13.093-11.832C271.96,224.586,272.832,225.015,272.832,225.015z"></path></g><path d="M274.699,226.799c0,0,1.131,6.594,9.494,6.594c8.365,0,8.441-10.286,8.441-10.286S278.129,223.898,274.699,226.799z"></path><ellipse style="fill:#FFFFFF;" cx="283" cy="234.371" rx="2.445" ry="3.112"></ellipse><ellipse style="fill:#FFFFFF;" cx="293.667" cy="229.083" rx="2.25" ry="1.25"></ellipse></g><g><g><path d="M260.828,231.704c0,0,4.604-4.851,8.002-6.224c5.779-2.333,32.006-7.409,37.637-6.816c1.967,0.207,3.705,1.26,4.594,2.149c-4.889,11.114-9.848,14.675-22.967,16.797c7.703-3.854,16.967-8.129,16.299-14.501C283.389,223.924,260.828,231.704,260.828,231.704z"></path><g><path d="M295.084,235.833c0,0,1.5,1.333,2,2.333c1.166-1,0-3.333,0-3.333L295.084,235.833z"></path><path d="M298.584,234.5c0,0,1.5,1.333,2,2.333c1.166-1,0-3.333,0-3.333L298.584,234.5z"></path><path d="M301.816,232.742c0,0,1.718,1.037,2.393,1.928c0.964-1.197-0.609-3.277-0.609-3.277L301.816,232.742z"></path></g><path d="M298.836,219.256c0,0,11.002-1.778,15.67-0.333c-2.889,1.778-7.111,3.89-7.111,3.89L298.836,219.256z"></path></g><path d="M288.917,217c0,0-18.667,3.834-25.667,6.667C266.75,220.333,285.584,216,288.917,217z"></path><path d="M274.164,238.017c-0.344,0.072,5.113,1.889,13.781-0.223C282.277,237.238,276.275,237.572,274.164,238.017z"></path></g></g></g></g></svg>