<svg xmlns="http://www.w3.org/2000/svg" width="500" height="500" version="1.1"><g id="x9112"><g><g><path style="fill:#FFFFFF;" d="M262.647,226.527c0,0,2.582,5.223,5.249,6.807c2,0.25,9.72,1.238,18.067,1.644c8.35,0.407,17.611-2.24,22.092-7.127c-5.803-3.766-17-6.922-24.229-6.209C276.597,222.353,262.647,226.527,262.647,226.527z"></path><path style="fill:#E4E0F3;" d="M305.11,230.329c1.121-0.747,2.117-1.574,2.945-2.479c-5.803-3.766-17-6.922-24.229-6.209c-7.23,0.712-21.18,4.886-21.18,4.886s0.499,1.473,1.582,2.39C271.376,227.302,287.793,225.333,305.11,230.329z"></path><g><g><path style="fill:#84B9BF;" d="M273.146,223.761c0,0,0.413,9.364,10.071,9.364c10.074,0,10.167-9.676,10.167-9.676s-5.769-2.807-11.243-2.079C276.665,222.099,273.146,223.761,273.146,223.761z"></path><path d="M274.093,223.198c0,0,0.439,3.302,1.443,4.819c1.566,2.368,4.111,3.608,7.68,3.608c3.732,0,6.383-1.253,7.877-3.724c0.646-1.067,1.471-4.977,1.471-4.977c0.782,0.277,1.24,0.479,1.24,0.479s-0.096,9.722-10.588,9.722c-10.059,0-10.487-9.428-10.487-9.428S273.213,223.491,274.093,223.198z"></path><path style="fill:#A2D7DD;" d="M274.97,226.847c0,0,2.137,4.998,8.754,4.899c6.617-0.098,7.434-4.998,7.434-4.998s-2.344-0.979-7.941-0.784C278.019,226.146,274.97,226.847,274.97,226.847z"></path></g><ellipse cx="282.961" cy="226.73" rx="1.272" ry="1.356"></ellipse><ellipse style="fill:#FFFFFF;" cx="281.355" cy="225.375" rx="0.792" ry="1.042"></ellipse></g><path style="opacity:0.3;fill:#A27C70;" d="M299.729,233.083c1.986-0.458,3.064-1.423,3.064-1.423s-0.18,7.488-18.001,6.84c-9.167-0.333-15.525-5.204-15.525-5.204s8.091,1.498,14.863,1.498C288.663,234.793,295.711,234.012,299.729,233.083z"></path><g><path d="M264.585,223.881c0,0,6.871-5.187,13.895-5.797c7.025-0.61,14.334-0.167,21.25,1.75c5.449,1.51,13.244,4.212,15.584,3.5c-3.766,3.461-7.461,9.303-15.402,9.405c4.887-2.343,6.652-6.405,6.652-6.405s-12.336-4.043-23.834-3.583c-12.5,0.5-21.709,4.491-21.709,4.491L264.585,223.881z"></path><path d="M263.327,220.202c0,0,5.301-2.954,6.277-3.452c0.978-0.497,6.559-1.585,22.479-1.89c-13.979-1.485-18.004-0.553-22.125,0.152C267.649,215.407,263.327,220.202,263.327,220.202z"></path><g><g><path d="M284.563,234.917c8.539,0.553,14.535-0.549,14.535-0.549s1.525-0.51,2.441-2.037c-0.813,0.508-8.4,1.222-16.644,0.919c-9.083-0.333-16.417,0.167-16.417,0.167S275.563,234.333,284.563,234.917z"></path></g><path d="M293.426,233.676c0,0,3.634,1.065,4.886,2.328c0.068-1.325-0.266-2.651-0.266-2.651s3.174,0.821,4.302,1.199c0.386-0.946-0.557-2.083-0.557-2.083L293.426,233.676z"></path></g></g></g><g><path style="fill:#FFFFFF;" d="M237.353,226.527c0,0-2.582,5.223-5.249,6.807c-2,0.25-9.72,1.238-18.067,1.644c-8.35,0.407-17.611-2.24-22.092-7.127c5.803-3.766,17-6.922,24.229-6.209C223.403,222.353,237.353,226.527,237.353,226.527z"></path><path style="fill:#E4E0F3;" d="M194.89,230.329c-1.121-0.747-2.117-1.574-2.945-2.479c5.803-3.766,17-6.922,24.229-6.209c7.23,0.712,21.18,4.886,21.18,4.886s-0.499,1.473-1.582,2.39C228.624,227.302,212.207,225.333,194.89,230.329z"></path><g><g><path style="fill:#84B9BF;" d="M226.854,223.761c0,0-0.413,9.364-10.071,9.364c-10.074,0-10.167-9.676-10.167-9.676s5.769-2.807,11.243-2.079C223.335,222.099,226.854,223.761,226.854,223.761z"></path><path d="M225.907,223.198c0,0-0.439,3.302-1.443,4.819c-1.566,2.368-4.111,3.608-7.68,3.608c-3.732,0-6.383-1.253-7.877-3.724c-0.646-1.067-1.471-4.977-1.471-4.977c-0.782,0.277-1.24,0.479-1.24,0.479s0.096,9.722,10.588,9.722c10.059,0,10.487-9.428,10.487-9.428S226.787,223.491,225.907,223.198z"></path><path style="fill:#A2D7DD;" d="M225.03,226.847c0,0-2.137,4.998-8.754,4.899c-6.617-0.098-7.434-4.998-7.434-4.998s2.344-0.979,7.941-0.784C221.981,226.146,225.03,226.847,225.03,226.847z"></path></g><ellipse cx="217.039" cy="226.73" rx="1.272" ry="1.356"></ellipse><ellipse style="fill:#FFFFFF;" cx="215.645" cy="225.375" rx="0.792" ry="1.042"></ellipse></g><path style="opacity:0.3;fill:#A27C70;" d="M200.271,233.083c-1.986-0.458-3.064-1.423-3.064-1.423s0.18,7.488,18.001,6.84c9.167-0.333,15.525-5.204,15.525-5.204s-8.091,1.498-14.863,1.498C211.337,234.793,204.289,234.012,200.271,233.083z"></path><g><path d="M235.415,223.881c0,0-6.871-5.187-13.895-5.797c-7.025-0.61-14.334-0.167-21.25,1.75c-5.449,1.51-13.244,4.212-15.584,3.5c3.766,3.461,7.461,9.303,15.402,9.405c-4.887-2.343-6.652-6.405-6.652-6.405s12.336-4.043,23.834-3.583c12.5,0.5,21.709,4.491,21.709,4.491L235.415,223.881z"></path><path d="M236.673,220.202c0,0-5.301-2.954-6.277-3.452c-0.978-0.497-6.559-1.585-22.479-1.89c13.979-1.485,18.004-0.553,22.125,0.152C232.351,215.407,236.673,220.202,236.673,220.202z"></path><g><g><path d="M215.437,234.917c-8.539,0.553-14.535-0.549-14.535-0.549s-1.525-0.51-2.441-2.037c0.813,0.508,8.4,1.222,16.644,0.919c9.083-0.333,16.417,0.167,16.417,0.167S224.437,234.333,215.437,234.917z"></path></g><path d="M206.574,233.676c0,0-3.634,1.065-4.886,2.328c-0.068-1.325,0.266-2.651,0.266-2.651s-3.174,0.821-4.302,1.199c-0.386-0.946,0.557-2.083,0.557-2.083L206.574,233.676z"></path></g></g></g></g></g></svg>