<svg xmlns="http://www.w3.org/2000/svg" width="500" height="500" version="1.1"><g id="x9113"><g><g><g><path style="fill:#FFFFFF;" d="M267.915,222.138c0,0-3.56,5.762,0.34,18.984c1.694,4.067,14.406,9.831,27.967,5.424c5.763-5.085,10.001-8.815,8.983-16.272c-6.271-10.51-16.441-13.561-20.34-14.069C280.967,215.696,267.915,222.138,267.915,222.138z"></path><path style="fill:#E4E0F3;" d="M305.205,230.274c-6.271-10.51-16.441-13.561-20.34-14.069c-3.898-0.509-16.95,5.933-16.95,5.933s-1.308,2.144-1.464,6.78c12.469-3.025,26.97-1.415,38.854,4.497C305.38,232.439,305.359,231.404,305.205,230.274z"></path></g><g><path d="M269.78,233.711c0,6.667,2.599,13.333,14.464,13.333s13.672-8.813,13.672-13.447c0-4.633-4.859-13.786-14.464-13.786S269.78,226.139,269.78,233.711z"></path><path style="fill:#A2D7DD;" d="M271.856,233.669c0,5.683,2.215,11.364,12.328,11.364c10.114,0,11.656-7.512,11.656-11.461s-4.144-11.75-12.331-11.75C275.323,221.822,271.856,227.215,271.856,233.669z"></path><path style="opacity:0.5;" d="M283.51,221.822c-7.092,0-10.637,4.051-11.461,9.33c1.468-1.442,3.271-2.3,4.511-2.3c6.736-2.694,13.474-1.705,18.712,1.799C293.892,226.665,289.964,221.822,283.51,221.822z"></path><path style="fill:#D8FFFE;" d="M295.295,235.18c-0.34-0.566-3.503-1.92-4.068-1.809c-0.54,0.108-0.987,2.784-5.941,3.028c-0.455,0.796-1.133,1.312-1.898,1.312c-0.894,0-1.67-0.69-2.108-1.719c-2.623-0.789-3.176-2.342-4.629-1.828c-1.921,0.677-3.842,3.729-3.842,3.729s0.565,7.232,12.205,6.893C294.727,244.501,295.633,235.745,295.295,235.18z"></path><path style="opacity:0.5;" d="M285.871,234.095c0,1.996-1.114,3.616-2.484,3.616c-1.374,0-2.487-1.62-2.487-3.616c0-1.998,1.113-3.616,2.487-3.616C284.757,230.479,285.871,232.097,285.871,234.095z"></path><g><ellipse style="fill:#FFFFFF;" cx="283.509" cy="230.265" rx="1.187" ry="1.751"></ellipse><path style="fill:#FFFFFF;" d="M278.141,228.965c0.565-1.47,1.696-1.921,2.826-1.695c1.129,0.225,1.243,1.695,1.243,1.695s-1.694,4.182-1.583,5.084C279.949,234.276,276.778,232.503,278.141,228.965z"></path></g><path style="fill:#BDA0FF;" d="M276.106,237.327c0,0-2.598-0.114-2.824-1.244c-0.227-1.13,0.113-3.052,1.017-3.164c0.904-0.113,2.939,1.244,3.051,2.034C277.462,235.745,277.349,237.1,276.106,237.327z"></path></g><g><g><path d="M266.39,219.595c0,0,5.085-5.932,16.441-5.593c11.357,0.339,21.018,8.813,23.392,11.865c4.576,1.525,7.288,4.407,7.288,4.407s-3.729-1.526-6.441-1.356c-0.169,3.051-0.169,6.78-0.169,6.78s-7.082-16.343-23.729-16.781c-12.883-0.339-17.798,5.763-17.798,5.763L266.39,219.595z"></path><path d="M269.102,213.663c0.34-0.113,3.39-2.712,12.204-2.374c7.813,0.301,15.368,3.616,15.368,3.616s-6.103-5.311-15.707-5.65C272.939,208.973,269.102,213.663,269.102,213.663z"></path><path d="M286.56,214.849c0,0,5.086-3.39,6.271-3.39c1.187,0-1.355,5.425-1.355,5.425L286.56,214.849z"></path></g><g><path d="M294.302,247.167c0,0,1.13-0.508,2.203-1.524c1.325-1.256,2.034-1.696,2.373-1.187C299.218,244.963,298.199,247.845,294.302,247.167z"></path><path d="M298.877,243.213c0,0,2.542-2.543,3.898-5.256c1.017,0.848,0.848,2.883-0.734,4.182C300.152,243.69,298.877,243.213,298.877,243.213z"></path></g></g></g><g><g><path style="fill:#FFFFFF;" d="M232.084,222.138c0,0,3.561,5.762-0.339,18.984c-1.695,4.067-14.407,9.831-27.968,5.424c-5.763-5.085-10.001-8.815-8.983-16.272c6.271-10.51,16.441-13.561,20.34-14.069C219.032,215.696,232.084,222.138,232.084,222.138z"></path><path style="fill:#E4E0F3;" d="M194.794,230.274c6.271-10.51,16.441-13.561,20.34-14.069c3.898-0.509,16.95,5.933,16.95,5.933s1.308,2.144,1.465,6.78c-12.47-3.025-26.971-1.415-38.854,4.497C194.62,232.439,194.64,231.404,194.794,230.274z"></path></g><g><path d="M230.22,233.711c0,6.667-2.6,13.333-14.465,13.333s-13.672-8.813-13.672-13.447c0-4.633,4.86-13.786,14.465-13.786S230.22,226.139,230.22,233.711z"></path><path style="fill:#A2D7DD;" d="M228.143,233.669c0,5.683-2.215,11.364-12.328,11.364c-10.114,0-11.656-7.512-11.656-11.461s4.145-11.75,12.331-11.75S228.143,227.215,228.143,233.669z"></path><path style="opacity:0.5;" d="M216.489,221.822c7.092,0,10.637,4.051,11.461,9.33c-1.467-1.442-3.271-2.3-4.511-2.3c-6.736-2.694-13.473-1.705-18.712,1.799C206.107,226.665,210.035,221.822,216.489,221.822z"></path><path style="fill:#D8FFFE;" d="M204.704,235.18c0.34-0.566,3.503-1.92,4.069-1.809c0.539,0.108,0.986,2.784,5.94,3.028c0.455,0.796,1.133,1.312,1.899,1.312c0.893,0,1.669-0.69,2.108-1.719c2.622-0.789,3.176-2.342,4.628-1.828c1.921,0.677,3.842,3.729,3.842,3.729s-0.565,7.232-12.204,6.893C205.272,244.501,204.366,235.745,204.704,235.18z"></path><ellipse style="opacity:0.5;" cx="216.614" cy="234.095" rx="2.486" ry="3.616"></ellipse><g><ellipse style="fill:#FFFFFF;" cx="216.49" cy="230.265" rx="1.187" ry="1.751"></ellipse><path style="fill:#FFFFFF;" d="M211.231,228.965c0.566-1.47,1.697-1.921,2.827-1.695c1.128,0.225,1.242,1.695,1.242,1.695s-1.694,4.182-1.582,5.084C213.041,234.276,209.87,232.503,211.231,228.965z"></path></g><path style="fill:#BDA0FF;" d="M209.197,237.327c0,0-2.597-0.114-2.823-1.244c-0.227-1.13,0.113-3.052,1.017-3.164c0.904-0.113,2.938,1.244,3.051,2.034C210.554,235.745,210.44,237.1,209.197,237.327z"></path></g><g><g><path d="M233.61,219.595c0,0-5.086-5.932-16.442-5.593s-21.018,8.813-23.392,11.865c-4.576,1.525-7.287,4.407-7.287,4.407s3.729-1.526,6.441-1.356c0.168,3.051,0.168,6.78,0.168,6.78s7.082-16.343,23.73-16.781c12.883-0.339,17.798,5.763,17.798,5.763L233.61,219.595z"></path><path d="M230.897,213.663c-0.34-0.113-3.39-2.712-12.203-2.374c-7.813,0.301-15.369,3.616-15.369,3.616s6.103-5.311,15.707-5.65C227.06,208.973,230.897,213.663,230.897,213.663z"></path><path d="M213.439,214.849c0,0-5.085-3.39-6.271-3.39s1.355,5.425,1.355,5.425L213.439,214.849z"></path></g><g><path d="M205.698,247.167c0,0-1.13-0.508-2.204-1.524c-1.325-1.256-2.034-1.696-2.373-1.187C200.782,244.963,201.8,247.845,205.698,247.167z"></path><path d="M201.123,243.213c0,0-2.543-2.543-3.898-5.256c-1.017,0.848-0.849,2.883,0.733,4.182C199.847,243.69,201.123,243.213,201.123,243.213z"></path></g></g></g></g></g></svg>