<svg xmlns="http://www.w3.org/2000/svg" width="500" height="500" version="1.1"><g id="x9114"><g><g><g><path style="fill:#FFFFFF;" d="M268.113,226.513c0,0-2.031,8.802,0.451,13.317c2.482,4.512,9.027,7.446,15.01,6.543c5.98-0.901,14.557-5.415,17.719-9.929c4.852-9.368,5.867-12.077,5.867-12.077s-11.736-7.898-23.135-5.189C272.627,221.886,268.113,226.513,268.113,226.513z"></path><path style="fill:#E4E0F3;" d="M304.137,230.843c2.428-4.893,3.023-6.476,3.023-6.476s-11.736-7.898-23.135-5.189c-11.398,2.708-15.912,7.335-15.912,7.335s-0.844,3.686-0.771,7.51C278.807,230.624,291.771,229.064,304.137,230.843z"></path></g><g><g><path style="fill:#A2D7DD;" d="M272.4,224.367c0,0-5.641,5.305-3.496,12.526c2.143,7.224,8.463,10.046,13.541,9.368c5.078-0.677,12.754-4.176,12.414-13.203c-0.338-9.03-9.367-13.656-9.367-13.656S273.98,221.208,272.4,224.367z"></path><path style="fill:#84B9BF;" d="M270.596,226.287c0,0-1.24,6.544-0.676,8.351c0.563,1.807,3.609,3.949,11.623,3.61c8.012-0.339,11.059-7.787,10.834-9.027c-0.227-1.24-2.596-7.787-5.869-8.802C281.881,219.289,273.078,221.66,270.596,226.287z"></path><g><path d="M278.156,221.772c0,0-10.268,2.595-8.689,13.542c1.58,10.947,11.285,10.721,12.865,10.721c-3.385,1.242-13.654-1.127-14.783-10.945c-1.129-9.818,4.965-12.865,4.965-12.865L278.156,221.772z"></path><path d="M284.816,219.855c0,0,8.801,3.272,8.801,13.767s-11.51,12.751-11.51,12.751s12.697-0.117,13.092-12.299c0.338-10.495-5.305-13.881-5.305-13.881L284.816,219.855z"></path></g><ellipse cx="280.302" cy="232.438" rx="2.257" ry="3.44"></ellipse></g><ellipse style="fill:#FFFFFF;" cx="290.683" cy="236.95" rx="4.401" ry="2.201"></ellipse></g><path d="M264.729,229.56c0,0,4.063-9.255,16.928-13.317c12.865-4.063,26.857,4.965,29.115,7.448c-4.063,11.963-11.51,15.124-11.51,15.124s5.416-8.354,5.641-12.641c0-2.708-13.947-6.967-23.246-5.417C272.176,222.336,264.729,229.56,264.729,229.56z"></path></g><g><g><path style="fill:#FFFFFF;" d="M231.886,226.513c0,0,2.031,8.802-0.451,13.317c-2.482,4.512-9.027,7.446-15.009,6.543c-5.981-0.901-14.558-5.415-17.719-9.929c-4.852-9.368-5.867-12.077-5.867-12.077s11.736-7.898,23.134-5.189C227.373,221.886,231.886,226.513,231.886,226.513z"></path><path style="fill:#E4E0F3;" d="M195.863,230.843c-2.427-4.893-3.022-6.476-3.022-6.476s11.736-7.898,23.134-5.189c11.398,2.708,15.912,7.335,15.912,7.335s0.845,3.686,0.772,7.51C221.193,230.624,208.229,229.064,195.863,230.843z"></path></g><g><g><path style="fill:#A2D7DD;" d="M227.599,224.367c0,0,5.641,5.305,3.497,12.526c-2.144,7.224-8.464,10.046-13.542,9.368c-5.078-0.677-12.753-4.176-12.414-13.203c0.339-9.03,9.367-13.656,9.367-13.656S226.019,221.208,227.599,224.367z"></path><path style="fill:#84B9BF;" d="M229.404,226.287c0,0,1.241,6.544,0.677,8.351c-0.563,1.807-3.61,3.949-11.623,3.61s-11.059-7.787-10.834-9.027c0.226-1.24,2.595-7.787,5.868-8.802C218.119,219.289,226.921,221.66,229.404,226.287z"></path><g><path d="M221.843,221.772c0,0,10.269,2.595,8.689,13.542c-1.58,10.947-11.285,10.721-12.865,10.721c3.386,1.242,13.654-1.127,14.783-10.945c1.129-9.818-4.965-12.865-4.965-12.865L221.843,221.772z"></path><path d="M215.184,219.855c0,0-8.802,3.272-8.802,13.767s11.511,12.751,11.511,12.751s-12.697-0.117-13.092-12.299c-0.338-10.495,5.305-13.881,5.305-13.881L215.184,219.855z"></path></g><ellipse cx="219.699" cy="232.438" rx="2.257" ry="3.44"></ellipse></g><ellipse style="fill:#FFFFFF;" cx="227.817" cy="236.95" rx="4.401" ry="2.201"></ellipse></g><path d="M235.272,229.56c0,0-4.063-9.255-16.928-13.317c-12.865-4.063-26.858,4.965-29.116,7.448c4.063,11.963,11.511,15.124,11.511,15.124s-5.417-8.354-5.642-12.641c0-2.708,13.947-6.967,23.247-5.417C227.824,222.336,235.272,229.56,235.272,229.56z"></path></g></g></g></svg>