<svg xmlns="http://www.w3.org/2000/svg" width="500" height="500" version="1.1"><g id="x9115"><g><g><g><path style="fill:#FFFFFF;" d="M263.233,229.485c0,0,0.535,7.48,5.344,10.954c2.939,1.603,10.419,2.538,12.423,2.404c2.003-0.133,14.827-2.672,16.431-3.874c1.603-1.202,9.216-8.95,10.419-15.094c-5.61-3.339-25.247-3.473-28.452-2.805C276.191,221.738,263.233,229.485,263.233,229.485z"></path><path style="fill:#E4E0F3;" d="M279.397,221.07c-3.206,0.668-16.164,8.416-16.164,8.416s0.147,1.985,0.941,4.381c12.889-5.379,27.224-6.695,41.178-4.225c1.187-1.919,2.135-3.915,2.497-5.766C302.239,220.536,282.603,220.402,279.397,221.07z"></path></g><g><path style="fill:#A2D7DD;" d="M273.52,224.543c0,0-2.039,5.057-1.202,8.682c1.202,5.21,5.343,6.946,10.953,6.413c5.61-0.535,9.351-4.274,9.485-10.152c0.133-5.877-4.275-8.816-4.275-8.816S274.855,220.803,273.52,224.543z"></path><path style="opacity:0.5;fill:#FFFFFF;" d="M274.188,233.493c0,0,0.266-1.603,1.869-2.137c0.268,1.068,1.336,4.141,6.011,3.874c4.403-0.252,4.943-3.073,5.744-5.076c1.068-0.134,2.938,2.271,3.072,2.671c0.134,0.4-2.004,6.412-8.282,6.278C276.325,238.969,274.855,235.897,274.188,233.493z"></path><ellipse cx="281.949" cy="230.327" rx="2.925" ry="3.54"></ellipse><g><path d="M271.983,224.899c0,0-2.672,2.07-1.336,8.015c1.173,5.218,6.746,7.681,12.29,6.879c-3.941-0.155-9.017-0.824-10.019-7.614c-0.757-5.119,2.337-8.416,2.337-8.416L271.983,224.899z"></path><path d="M290.351,222.094c0,0,3.84,2.796,3.177,8.853c-0.584,5.316-5.126,8.958-10.725,8.78c3.941-0.935,8.216-2.76,8.385-9.256c0.135-5.172-3.261-8.103-3.261-8.103L290.351,222.094z"></path></g><ellipse style="fill:#FFFFFF;" cx="291.82" cy="231.155" rx="3.606" ry="1.803"></ellipse><ellipse style="fill:#FFFFFF;" cx="271.998" cy="231.823" rx="2.191" ry="1.322"></ellipse></g><g><path d="M261.052,224.288c0,0,10.81-9.449,21.937-10.861C274.481,216.884,271.747,218.086,261.052,224.288z"></path><g><path d="M260.583,230.333c0.535,0,9.42-9.708,18.146-11.668c8.727-1.96,27.898,1.02,35.021,3.334c-5.667,9.667-9.773,13.63-14.717,16.613c4.986-7.658,6.767-14.25,6.232-14.427s-13.893-2.672-24.044-1.603C274.516,223.289,260.583,230.333,260.583,230.333z"></path><path d="M273.653,242.042c8.683,1.069,17.873-1.352,20.771-2.383c3.006-1.068,8.615-7.547,9.752-10.218c-0.535,3.272-4.943,9.016-4.943,9.016s-2.357,2.181-5.01,2.805C281.268,244.313,276.058,242.821,273.653,242.042z"></path></g></g></g><g><g><path style="fill:#FFFFFF;" d="M236.767,229.485c0,0-0.535,7.48-5.344,10.954c-2.939,1.603-10.419,2.538-12.423,2.404c-2.003-0.133-14.827-2.672-16.431-3.874c-1.603-1.202-9.216-8.95-10.419-15.094c5.61-3.339,25.247-3.473,28.452-2.805C223.809,221.738,236.767,229.485,236.767,229.485z"></path><path style="fill:#E4E0F3;" d="M220.603,221.07c3.206,0.668,16.164,8.416,16.164,8.416s-0.147,1.985-0.941,4.381c-12.889-5.379-27.224-6.695-41.178-4.225c-1.187-1.919-2.135-3.915-2.497-5.766C197.761,220.536,217.397,220.402,220.603,221.07z"></path></g><g><path style="fill:#A2D7DD;" d="M226.48,224.543c0,0,2.039,5.057,1.202,8.682c-1.202,5.21-5.343,6.946-10.953,6.413c-5.61-0.535-9.351-4.274-9.485-10.152c-0.133-5.877,4.275-8.816,4.275-8.816S225.145,220.803,226.48,224.543z"></path><path style="opacity:0.5;fill:#FFFFFF;" d="M225.812,233.493c0,0-0.266-1.603-1.869-2.137c-0.268,1.068-1.336,4.141-6.011,3.874c-4.403-0.252-4.943-3.073-5.744-5.076c-1.068-0.134-2.938,2.271-3.072,2.671c-0.134,0.4,2.004,6.412,8.282,6.278C223.675,238.969,225.145,235.897,225.812,233.493z"></path><ellipse cx="218.051" cy="230.327" rx="2.925" ry="3.54"></ellipse><g><path d="M228.017,224.899c0,0,2.672,2.07,1.336,8.015c-1.173,5.218-6.746,7.681-12.29,6.879c3.941-0.155,9.017-0.824,10.019-7.614c0.757-5.119-2.337-8.416-2.337-8.416L228.017,224.899z"></path><path d="M209.649,222.094c0,0-3.84,2.796-3.177,8.853c0.584,5.316,5.126,8.958,10.725,8.78c-3.941-0.935-8.216-2.76-8.385-9.256c-0.135-5.172,3.261-8.103,3.261-8.103L209.649,222.094z"></path></g><ellipse style="fill:#FFFFFF;" cx="227.587" cy="231.155" rx="3.606" ry="1.803"></ellipse><ellipse style="fill:#FFFFFF;" cx="207.765" cy="231.823" rx="2.191" ry="1.322"></ellipse></g><g><path d="M238.948,224.288c0,0-10.81-9.449-21.937-10.861C225.519,216.884,228.253,218.086,238.948,224.288z"></path><g><path d="M239.417,230.333c-0.535,0-9.42-9.708-18.146-11.668c-8.727-1.96-27.898,1.02-35.021,3.334c5.667,9.667,9.773,13.63,14.717,16.613c-4.986-7.658-6.767-14.25-6.232-14.427s13.893-2.672,24.044-1.603C225.484,223.289,239.417,230.333,239.417,230.333z"></path><path d="M226.347,242.042c-8.683,1.069-17.873-1.352-20.771-2.383c-3.006-1.068-8.615-7.547-9.752-10.218c0.535,3.272,4.943,9.016,4.943,9.016s2.357,2.181,5.01,2.805C218.732,244.313,223.942,242.821,226.347,242.042z"></path></g></g></g></g></g></svg>