<svg xmlns="http://www.w3.org/2000/svg" width="500" height="500" version="1.1"><g id="x9116"><g><g><g><g><path style="fill:#FFFFFF;" d="M233.576,228.616c0,0,1.904,17.321-16.719,19.295c-8.622-1.744-17.122-2.244-20.528-18.418c-0.635-5.261-0.635-9.208-0.635-9.208l31.956,1.753L233.576,228.616z"></path><path style="fill:#E4E0F3;" d="M197.912,232.875c-0.5-1.027-1.025-2.12-1.583-3.3c-0.635-5.309-0.635-9.291-0.635-9.291l31.956,1.769l5.926,6.638c0,0,0.37,3.439-0.837,7.439C221.396,234.101,209.591,232.606,197.912,232.875z"></path></g><g><g><g><path style="fill:#A2D7DD;" d="M228.809,224.046c0.159,0.165,1.429,7.631-0.688,11.945c-2.116,4.313-4.921,9.07-11.746,8.738c-4.548-0.609-11.162-3.375-12.168-12.223c-1.005-8.85,0.371-10.287,0.371-10.287L228.809,224.046z"></path><path style="fill:#84B9BF;" d="M228.598,234.166c-0.038,0.324-3.704-5.144-12.01-5.199c-8.307-0.056-11.851,5.696-12.01,5.476c-0.158-0.221-1.534-7.467-0.158-11.172c9.046,0,23.913,0,23.913,0S229.069,230.167,228.598,234.166z"></path></g><ellipse style="opacity:0.5;" cx="216.853" cy="231.665" rx="3.169" ry="3.996"></ellipse><ellipse style="opacity:0.5;fill:#FFFFFF;" cx="216.667" cy="240.533" rx="6.322" ry="3.698"></ellipse><g><path d="M229.638,224.709c0,0,0.932,7.791-2.235,13.791c-3.696,7.003-10.551,6.174-10.551,6.174s7.629-0.703,9.884-8.507c2.167-7.5,0.785-12.564,0.785-12.564L229.638,224.709z"></path><path d="M203.539,223.646c0,0-1.48,6.415,1.481,13.716c3.221,7.935,10.879,7.313,10.879,7.313s-6.053-0.354-9.185-7.755c-3.811-8.996-1.06-14.381-1.06-14.381L203.539,223.646z"></path></g><path d="M211.984,231.665c0,3.391,2.18,6.139,4.867,6.139c2.688,0,4.869-2.748,4.869-6.139c0-3.39-2.181-6.139-4.868-6.139C214.164,225.526,211.984,228.275,211.984,231.665z M213.684,231.665c0-2.207,1.42-3.996,3.169-3.996c1.75,0,3.169,1.789,3.169,3.996s-1.419,3.998-3.17,3.998C215.104,235.663,213.684,233.872,213.684,231.665z"></path></g><path style="fill:#FFFFFF;" d="M205.284,237.898c-0.418,1.093,0.312,2.423,1.627,2.973c1.314,0.55,2.72,0.11,3.138-0.981c0.419-1.091-0.311-2.423-1.626-2.973C207.108,236.367,205.702,236.806,205.284,237.898z"></path><ellipse style="fill:#FFFFFF;" cx="216.82" cy="228.917" rx="1.417" ry="1.917"></ellipse></g><g><g><g><path d="M234.951,230.243c0,0-2.751-3.76-3.068-4.424c2.222,0.332,5.502,0.994,5.502,0.994s-4.021-4.201-7.407-6.082S197.707,219,191.569,219c0.167,13.167,5.328,18.794,9.667,22.333c-5.5-8-4.5-17.5-4.5-17.5s28.868,0.282,30.667,0.833C229.202,225.221,234.951,230.243,234.951,230.243z"></path><path d="M226.169,222.278c0,0,8.147,0.554,11.428,2.213c-3.386-4.203-10.898-4.469-15.555-4.91C224.582,221.13,226.169,222.278,226.169,222.278z"></path></g><g><path d="M221.893,247.235c0,0-6.464,0.077-9.691-0.523C215.581,248.687,220.297,247.904,221.893,247.235z"></path></g></g></g></g><path d="M210.903,214.833c0,0,19.167,0.5,22.667,1.667C230.736,213.667,214.403,212.833,210.903,214.833z"></path></g><g><g><g><path style="fill:#FFFFFF;" d="M266.425,228.949c0,0-1.904,17.321,16.719,19.295c8.621-1.744,17.121-2.244,20.527-18.418c0.635-5.261,0.635-9.208,0.635-9.208l-31.955,1.753L266.425,228.949z"></path><path style="fill:#E4E0F3;" d="M302.089,233.208c0.5-1.027,1.025-2.12,1.582-3.3c0.635-5.309,0.635-9.291,0.635-9.291l-31.955,1.769l-5.926,6.638c0,0-0.371,3.439,0.836,7.439C278.604,234.434,290.409,232.94,302.089,233.208z"></path></g><g><g><g><path style="fill:#A2D7DD;" d="M271.192,224.379c-0.16,0.165-1.43,7.631,0.688,11.945c2.115,4.313,4.92,9.07,11.746,8.738c4.547-0.609,11.162-3.375,12.168-12.223c1.004-8.85-0.371-10.287-0.371-10.287L271.192,224.379z"></path><path style="fill:#84B9BF;" d="M271.403,234.5c0.037,0.324,3.703-5.144,12.01-5.199s11.85,5.696,12.01,5.476c0.158-0.221,1.533-7.467,0.158-11.172c-9.047,0-23.914,0-23.914,0S270.931,230.5,271.403,234.5z"></path></g><ellipse style="opacity:0.5;" cx="283.148" cy="231.999" rx="3.169" ry="3.996"></ellipse><ellipse style="opacity:0.5;fill:#FFFFFF;" cx="283.333" cy="240.867" rx="6.322" ry="3.698"></ellipse><g><path d="M270.362,225.042c0,0-0.932,7.791,2.235,13.791c3.696,7.003,10.552,6.174,10.552,6.174s-7.63-0.703-9.885-8.507c-2.167-7.5-0.785-12.564-0.785-12.564L270.362,225.042z"></path><path d="M296.462,223.979c0,0,1.48,6.415-1.482,13.716c-3.221,7.935-10.879,7.313-10.879,7.313s6.053-0.354,9.186-7.755c3.811-8.996,1.059-14.381,1.059-14.381L296.462,223.979z"></path></g><path d="M283.147,225.86c-2.688,0-4.867,2.749-4.867,6.139c0,3.391,2.18,6.139,4.869,6.139c2.688,0,4.867-2.748,4.867-6.139C288.017,228.609,285.837,225.86,283.147,225.86z M283.149,235.997c-1.752,0-3.17-1.791-3.17-3.998s1.418-3.996,3.168-3.996s3.17,1.789,3.17,3.996S284.897,235.997,283.149,235.997z"></path></g><path style="fill:#FFFFFF;" d="M271.785,238.232c-0.418,1.093,0.311,2.423,1.627,2.973c1.314,0.55,2.719,0.11,3.137-0.981c0.42-1.091-0.311-2.423-1.625-2.973S272.203,237.139,271.785,238.232z"></path><ellipse style="fill:#FFFFFF;" cx="283.181" cy="229.25" rx="1.417" ry="1.917"></ellipse></g><g><g><g><path d="M265.05,230.577c0,0,2.75-3.76,3.068-4.424c-2.223,0.332-5.502,0.994-5.502,0.994s4.021-4.201,7.406-6.082c3.387-1.881,32.271-1.731,38.408-1.731c-0.166,13.167-5.327,18.794-9.666,22.333c5.5-8,4.5-17.5,4.5-17.5s-28.868,0.282-30.667,0.833C270.799,225.554,265.05,230.577,265.05,230.577z"></path><path d="M273.831,222.612c0,0-8.146,0.554-11.428,2.213c3.387-4.203,10.898-4.469,15.555-4.91C275.419,221.463,273.831,222.612,273.831,222.612z"></path></g><g><path d="M278.107,247.569c0,0,6.464,0.077,9.691-0.523C284.42,249.021,279.703,248.237,278.107,247.569z"></path></g></g></g></g><path d="M289.098,215.167c0,0-19.167,0.5-22.667,1.667C269.265,214,285.598,213.167,289.098,215.167z"></path></g></g></g></svg>