<svg xmlns="http://www.w3.org/2000/svg" width="500" height="500" version="1.1"><g id="x012"><g><g><g><path style="fill:#FFFFFF;" d="M202.005,242.333l5.802,4.513c0,0,8.545,6.122,20.228,1.449c3.625-5.317,5.379-12.274,6.274-21.689c-4.262-7.803-6.84-10.06-16.833-10.381C207.484,215.903,195.236,224.605,202.005,242.333z"></path><path style="fill:#E4E0F3;" d="M217.477,216.225c-8.598-0.277-18.854,6.134-17.24,19.221c5.338-8.525,17.868-9.229,26.91-9.229c2.302,0.23,4.712,0.576,7.089,1.104c0.024-0.239,0.05-0.473,0.073-0.714C230.047,218.804,227.469,216.547,217.477,216.225z"></path></g><g><g><g><g><path style="fill:#A2D7DD;stroke:#000000;stroke-width:3;" d="M229.798,236.441c0-7.162-2.866-14.142-10.346-15.333c-5.945-0.947-13.417,5.652-13.417,16.251c0,4.58,2.833,11.902,12.21,11.902c4.078,0,6.341-2.03,6.341-2.03C227.728,244.902,229.798,240.947,229.798,236.441z"></path></g><path d="M206.679,236.726c0,0,3.545-4.029,11.281-3.384c7.736,0.645,11.443,5.157,11.443,5.157s3.546-15.311-10.153-16.922C205.55,219.965,206.679,236.726,206.679,236.726z"></path><ellipse cx="217.864" cy="234.435" rx="7.304" ry="9.208"></ellipse><ellipse style="fill:#FFFFFF;" cx="211.053" cy="229.854" rx="4.104" ry="4.982"></ellipse><g><path d="M202.83,246.568c0,0-3.286-8.575-0.823-14.506c7.819-18.826,22.633-11.831,25.102-10.185c3.703,2.675,7.2,6.729,7.2,6.729s-1.44-14.34-17.694-14.546c-12.549-0.16-18.862,11.803-19.134,18.312C197.008,243.667,202.83,246.568,202.83,246.568z"></path><g><path d="M207.459,247.963c0,0,17.385,3.006,20.575,0.332c-0.824,1.955-10.607,3.468-11.934,3.292C211.472,250.97,207.459,247.963,207.459,247.963z"></path></g></g></g></g><path d="M202.478,226.929c0,0-3.969-1.553-5.615-4.023c-1.474,2.263-1.384,6.788,1.74,7.794C201.726,231.706,202.478,226.929,202.478,226.929z"></path><path d="M204.208,223.153c0,0-2.57-2.744-4.35-5.837c-1.623,2.144-2.554,6.792,0.303,8.956C203.02,228.438,204.208,223.153,204.208,223.153z"></path><path d="M208.348,219.791c0,0-2.635-2.683-4.489-5.731c-1.57,2.182-2.39,6.852,0.519,8.946C207.287,225.101,208.348,219.791,208.348,219.791z"></path><path d="M230.467,220.145c0,0,2.137-1.429,4.87-2.587c0.253,1.936-0.858,5.67-3.438,6.008C229.319,223.905,230.467,220.145,230.467,220.145z"></path><path d="M225.981,218.066c0,0,1.535-1.326,4.418-3.183c0.658,1.838,0.155,5.347-2.293,6.223C225.656,221.984,225.981,218.066,225.981,218.066z"></path></g><ellipse style="fill:#FFFFFF;" cx="214.173" cy="234.133" rx="1.692" ry="1.854"></ellipse></g><g><g><path style="fill:#FFFFFF;" d="M297.994,242.333l-5.802,4.513c0,0-8.544,6.122-20.227,1.449c-3.625-5.317-5.379-12.274-6.274-21.689c4.261-7.803,6.84-10.06,16.831-10.381C292.516,215.903,304.764,224.605,297.994,242.333z"></path><path style="fill:#E4E0F3;" d="M282.522,216.225c8.6-0.277,18.855,6.134,17.242,19.221c-5.339-8.525-17.869-9.229-26.911-9.229c-2.302,0.23-4.713,0.576-7.09,1.104c-0.023-0.239-0.05-0.473-0.072-0.714C269.952,218.804,272.531,216.547,282.522,216.225z"></path></g><g><g><g><g><path style="fill:#A2D7DD;stroke:#000000;stroke-width:3;" d="M270.201,236.441c0-7.162,2.866-14.142,10.346-15.333c5.946-0.947,13.417,5.652,13.417,16.251c0,4.58-2.833,11.902-12.209,11.902c-4.078,0-6.341-2.03-6.341-2.03C272.272,244.902,270.201,240.947,270.201,236.441z"></path></g><path d="M293.321,236.726c0,0-3.546-4.029-11.282-3.384c-7.735,0.645-11.442,5.157-11.442,5.157s-3.546-15.311,10.153-16.922C294.449,219.965,293.321,236.726,293.321,236.726z"></path><ellipse cx="282.136" cy="234.435" rx="7.304" ry="9.208"></ellipse><ellipse style="fill:#FFFFFF;" cx="274.699" cy="229.854" rx="4.104" ry="4.982"></ellipse><g><path d="M297.169,246.568c0,0,3.286-8.575,0.824-14.506c-7.819-18.826-22.633-11.831-25.103-10.185c-3.702,2.675-7.199,6.729-7.199,6.729s1.44-14.34,17.692-14.546c12.551-0.16,18.862,11.803,19.135,18.312C302.992,243.667,297.169,246.568,297.169,246.568z"></path><g><path d="M292.54,247.963c0,0-17.385,3.006-20.574,0.332c0.823,1.955,10.607,3.468,11.934,3.292C288.528,250.97,292.54,247.963,292.54,247.963z"></path></g></g></g></g><path d="M297.522,226.929c0,0,3.968-1.553,5.615-4.023c1.474,2.263,1.384,6.788-1.739,7.794C298.274,231.706,297.522,226.929,297.522,226.929z"></path><path d="M295.793,223.153c0,0,2.569-2.744,4.349-5.837c1.623,2.144,2.554,6.792-0.303,8.956C296.98,228.438,295.793,223.153,295.793,223.153z"></path><path d="M291.652,219.791c0,0,2.635-2.683,4.489-5.731c1.569,2.182,2.391,6.852-0.52,8.946C292.713,225.101,291.652,219.791,291.652,219.791z"></path><path d="M269.533,220.145c0,0-2.139-1.429-4.871-2.587c-0.253,1.936,0.859,5.67,3.439,6.008C270.681,223.905,269.533,220.145,269.533,220.145z"></path><path d="M274.019,218.066c0,0-1.535-1.326-4.418-3.183c-0.659,1.838-0.155,5.347,2.293,6.223C274.344,221.984,274.019,218.066,274.019,218.066z"></path></g><ellipse style="fill:#FFFFFF;" cx="277.819" cy="234.133" rx="1.692" ry="1.854"></ellipse></g></g></g></svg>