<svg xmlns="http://www.w3.org/2000/svg" width="500" height="500" version="1.1"><g id="x9118"><g><g><path style="fill:#FFFFFF;" d="M269.707,219.501c0,0-3.496,7.51-2.271,14.497c1.225,6.988,8.385,14.499,16.244,13.451c7.861-1.049,19.564-9.435,21.137-13.451c-1.398-9.433-7.35-17.993-16.594-18.514C275.82,214.785,269.707,219.501,269.707,219.501z"></path><path style="fill:#E4E0F3;" d="M288.223,215.484c-12.402-0.699-18.516,4.017-18.516,4.017s-2.168,4.68-2.484,10.085c11.729-2.53,25.098-2,37.088,1.867C302.295,223.079,296.625,215.958,288.223,215.484z"></path><g><g><ellipse style="fill:#A2D7DD;" cx="282.566" cy="232.873" rx="12.773" ry="13.546"></ellipse><ellipse style="opacity:0.5;fill:#FFFFFF;" cx="283.156" cy="240.942" rx="6.682" ry="5.109"></ellipse><path style="fill:#84B9BF;" d="M270.186,236.226c0,0,2.621-7.074,12.447-7.074c9.824,0,12.314,6.943,12.314,6.943s3.666-16.899-12.184-16.899C266.912,219.195,268.877,234.654,270.186,236.226z"></path></g><ellipse cx="282.746" cy="232.295" rx="2.293" ry="3.013"></ellipse><ellipse style="fill:#FFFFFF;" cx="282.632" cy="229.151" rx="2.358" ry="3.013"></ellipse><path d="M282.369,218.445c-4.453,0-13.754,2.357-13.754,13.457c0,11.174,8.756,15.125,13.885,14.549c5.131,0.576,13.887-3.375,13.887-14.549C296.387,220.802,286.824,218.445,282.369,218.445z M282.5,245.499c-8.316-1.385-11.338-7.775-11.338-13.632c0-7.258,5.975-11.069,11.338-11.069c5.365,0,11.34,3.811,11.34,11.069C293.84,237.723,290.818,244.114,282.5,245.499z"></path></g><g><g><g><path d="M264.291,223.256c0,0,4.848-9.908,20.83-10.218c13.492-0.262,24.104,15.065,24.104,15.065s-2.619,6.288-6.156,8.384c1.703-3.406-1.18-17.948-16.768-19.52C271.422,215.468,264.291,223.256,264.291,223.256z"></path><path d="M304.293,224.479c0,0,4.363-0.35,6.373,0.873c0.701,2.183-2.881,6.288-4.105,7.422C305.689,227.71,304.293,224.479,304.293,224.479z"></path><path d="M295.209,215.745c0,0,6.201,2.184,9.084,0.35c-0.963,1.746-3.32,3.23-4.545,3.58C297.566,219.239,295.209,215.745,295.209,215.745z"></path><path d="M285.338,213.125c0,0,5.504-0.262,6.379-3.93c0.957,1.398,1.221,5.417,0.523,6.376C289.791,215.047,285.338,213.125,285.338,213.125z"></path></g><g><path d="M297.402,243.398c-0.643,0.708-1.637,0.852-2.031,0.425c-0.393-0.425,0.066-1.408,0.918-1.997s1.506-0.589,1.801-0.033C298.385,242.35,297.73,243.038,297.402,243.398z"></path><path d="M301.627,238.322c-0.686,0.753-1.311,1.703-0.949,2.096c0.359,0.393,1.707-0.391,2.424-1.212c0.688-0.786,1.113-1.998,0.59-2.227C303.168,236.75,301.955,237.961,301.627,238.322z"></path></g></g><path d="M263.244,213.824c0,0,3.275-2.751,12.707-4.061C273.068,207.929,264.16,210.156,263.244,213.824z"></path></g></g><g><path style="fill:#FFFFFF;" d="M230.292,219.501c0,0,3.496,7.51,2.271,14.497c-1.224,6.988-8.384,14.499-16.244,13.451c-7.86-1.049-19.564-9.435-21.137-13.451c1.398-9.433,7.351-17.993,16.595-18.514C224.18,214.785,230.292,219.501,230.292,219.501z"></path><path style="fill:#E4E0F3;" d="M211.778,215.484c12.402-0.699,18.515,4.017,18.515,4.017s2.169,4.68,2.485,10.085c-11.729-2.53-25.098-2-37.088,1.867C197.706,223.079,203.375,215.958,211.778,215.484z"></path><g><g><ellipse style="fill:#A2D7DD;" cx="217.434" cy="232.873" rx="12.773" ry="13.546"></ellipse><ellipse style="opacity:0.5;fill:#FFFFFF;" cx="216.844" cy="240.942" rx="6.681" ry="5.109"></ellipse><path style="fill:#84B9BF;" d="M229.814,236.226c0,0-2.62-7.074-12.446-7.074c-9.825,0-12.314,6.943-12.314,6.943s-3.667-16.899,12.184-16.899C233.088,219.195,231.124,234.654,229.814,236.226z"></path></g><ellipse cx="217.254" cy="232.295" rx="2.292" ry="3.013"></ellipse><ellipse style="fill:#FFFFFF;" cx="217.368" cy="229.151" rx="2.358" ry="3.013"></ellipse><path d="M203.613,231.902c0,11.174,8.757,15.125,13.887,14.549c5.129,0.576,13.886-3.375,13.886-14.549c0-11.1-9.301-13.457-13.755-13.457S203.613,220.802,203.613,231.902z M206.16,231.867c0-7.258,5.975-11.069,11.34-11.069c5.364,0,11.339,3.811,11.339,11.069c0,5.856-3.021,12.247-11.339,13.632C209.181,244.114,206.16,237.723,206.16,231.867z"></path></g><g><g><g><path d="M235.708,223.256c0,0-4.848-9.908-20.829-10.218c-13.493-0.262-24.104,15.065-24.104,15.065s2.62,6.288,6.156,8.384c-1.703-3.406,1.18-17.948,16.769-19.52C228.579,215.468,235.708,223.256,235.708,223.256z"></path><path d="M195.708,224.479c0,0-4.364-0.35-6.374,0.873c-0.7,2.183,2.882,6.288,4.106,7.422C194.311,227.71,195.708,224.479,195.708,224.479z"></path><path d="M204.792,215.745c0,0-6.202,2.184-9.084,0.35c0.963,1.746,3.32,3.23,4.544,3.58C202.433,219.239,204.792,215.745,204.792,215.745z"></path><path d="M214.662,213.125c0,0-5.504-0.262-6.378-3.93c-0.958,1.398-1.222,5.417-0.523,6.376C210.208,215.047,214.662,213.125,214.662,213.125z"></path></g><g><path d="M202.597,243.398c0.643,0.708,1.638,0.852,2.031,0.425c0.393-0.425-0.065-1.408-0.917-1.997s-1.507-0.589-1.802-0.033C201.615,242.35,202.27,243.038,202.597,243.398z"></path><path d="M198.373,238.322c0.687,0.753,1.311,1.703,0.949,2.096c-0.359,0.393-1.707-0.391-2.423-1.212c-0.688-0.786-1.113-1.998-0.59-2.227C196.833,236.75,198.045,237.961,198.373,238.322z"></path></g></g><path d="M236.756,213.824c0,0-3.275-2.751-12.707-4.061C226.931,207.929,235.839,210.156,236.756,213.824z"></path></g></g></g></g></svg>