<svg xmlns="http://www.w3.org/2000/svg" width="500" height="500" version="1.1"><g id="x9119"><g><g><path style="opacity:0.5;" d="M309.458,220.5c0,0-2.5,10.75-11,13.5c-5.989,1.938-15.5,0-15.5,0s11.75,1.25,15.75-1.75S309.458,220.5,309.458,220.5z"></path><g><path style="fill:#FFFFFF;" d="M267.918,225.568c0,0,0.869,5.493,6.094,7.302c3.484,0.669,14.27,2.679,19.896,0.402s13.264-12.594,12.658-12.594c-0.602,0-13.328-0.67-22.439-0.2C275.018,220.946,267.918,225.568,267.918,225.568z"></path><path style="fill:#E4E0F3;" d="M302.531,226.168c2.559-2.883,4.34-5.491,4.035-5.491c-0.602,0-13.328-0.67-22.439-0.2c-9.109,0.469-16.209,5.091-16.209,5.091s0.205,1.272,0.996,2.792C279.836,224.902,291.324,224.496,302.531,226.168z"></path><g><path style="fill:#A2D7DD;" d="M281.252,220.947c-8.039,0.804-8.238,2.076-8.238,2.076s0.602,9.305,9.846,9.305s9.846-11.582,9.846-11.582S289.291,220.144,281.252,220.947z"></path><path style="fill:#84B9BF;" d="M281.252,220.947c-8.039,0.804-8.238,2.076-8.238,2.076s0.178,3.567,1.664,5.633c5.088-1.791,10.773-1.978,16.08-0.562c1.758-2.797,1.947-7.348,1.947-7.348S289.291,220.144,281.252,220.947z"></path><ellipse style="opacity:0.5;fill:#FFFFFF;" cx="282.458" cy="229.845" rx="3.685" ry="1.875"></ellipse><ellipse style="fill:#FFFFFF;" cx="282.458" cy="225.898" rx="1.272" ry="2.277"></ellipse><path style="fill:#FFFFFF;" d="M289.061,227.706c0,0-2.009-0.804-2.144-1.607c-0.134-0.804,2.411-1.541,3.148-1.272c0.737,0.268,1.005,1.273,0.938,1.742C290.937,227.037,289.864,227.639,289.061,227.706z"></path><g><path d="M271.807,222.957c0,0.201,0.469,9.572,10.852,9.305c-8.977-1.674-9.043-9.774-9.043-9.774L271.807,222.957z"></path><path d="M293.711,221.416c0,0.201,0.336,10.846-11.039,10.846c9.5-1.742,9.029-11.113,9.029-11.113L293.711,221.416z"></path></g></g><g><path d="M260.213,227.912c0,0,4.773-4.849,8.375-6.23c8.037-3.082,30.744-3.684,41.865-2.88c-2.545,5.761-8.51,14.427-17.818,15.407c-10.182,1.071-18.623-1.34-18.623-1.34s13.709,1.977,19.023-0.268c6.031-2.545,10.719-10.719,10.719-10.719s-25.99-0.4-32.42,1.877c-4.623,2.478-9.244,7.234-9.244,7.234s1.139-3.082,3.08-5.895C264.5,225.099,260.213,227.912,260.213,227.912z"></path><path d="M261.955,220.348c0,0,4.822-2.748,7.234-3.483c3.482-1.072,26.461-2.344,32.088-1.674c-4.893-1.273-27.6-0.469-32.021,0.134C265.572,216.664,261.955,220.348,261.955,220.348z"></path></g></g></g><g><path style="opacity:0.5;" d="M190.542,220.5c0,0,2.5,10.75,11,13.5c5.989,1.938,15.5,0,15.5,0s-11.75,1.25-15.75-1.75S190.542,220.5,190.542,220.5z"></path><g><path style="fill:#FFFFFF;" d="M232.082,225.568c0,0-0.869,5.493-6.094,7.302c-3.484,0.669-14.27,2.679-19.896,0.402s-13.264-12.594-12.658-12.594c0.602,0,13.328-0.67,22.439-0.2C224.982,220.946,232.082,225.568,232.082,225.568z"></path><path style="fill:#E4E0F3;" d="M197.469,226.168c-2.559-2.883-4.34-5.491-4.035-5.491c0.602,0,13.328-0.67,22.439-0.2c9.109,0.469,16.209,5.091,16.209,5.091s-0.205,1.272-0.996,2.792C220.164,224.902,208.676,224.496,197.469,226.168z"></path><g><path style="fill:#A2D7DD;" d="M218.748,220.947c8.039,0.804,8.238,2.076,8.238,2.076s-0.602,9.305-9.846,9.305s-9.846-11.582-9.846-11.582S210.709,220.144,218.748,220.947z"></path><path style="fill:#84B9BF;" d="M218.748,220.947c8.039,0.804,8.238,2.076,8.238,2.076s-0.178,3.567-1.664,5.633c-5.088-1.791-10.773-1.978-16.08-0.562c-1.758-2.797-1.947-7.348-1.947-7.348S210.709,220.144,218.748,220.947z"></path><ellipse style="opacity:0.5;fill:#FFFFFF;" cx="217.542" cy="229.845" rx="3.685" ry="1.875"></ellipse><ellipse style="fill:#FFFFFF;" cx="217.542" cy="225.898" rx="1.272" ry="2.277"></ellipse><path style="fill:#FFFFFF;" d="M210.939,227.706c0,0,2.009-0.804,2.144-1.607c0.134-0.804-2.411-1.541-3.148-1.272c-0.737,0.268-1.005,1.273-0.938,1.742C209.063,227.037,210.136,227.639,210.939,227.706z"></path><g><path d="M228.193,222.957c0,0.201-0.469,9.572-10.852,9.305c8.977-1.674,9.043-9.774,9.043-9.774L228.193,222.957z"></path><path d="M206.289,221.416c0,0.201-0.336,10.846,11.039,10.846c-9.5-1.742-9.029-11.113-9.029-11.113L206.289,221.416z"></path></g></g><g><path d="M239.787,227.912c0,0-4.773-4.849-8.375-6.23c-8.037-3.082-30.744-3.684-41.865-2.88c2.545,5.761,8.51,14.427,17.818,15.407c10.182,1.071,18.623-1.34,18.623-1.34s-13.709,1.977-19.023-0.268c-6.031-2.545-10.719-10.719-10.719-10.719s25.99-0.4,32.42,1.877c4.623,2.478,9.244,7.234,9.244,7.234s-1.139-3.082-3.08-5.895C235.5,225.099,239.787,227.912,239.787,227.912z"></path><path d="M238.045,220.348c0,0-4.822-2.748-7.234-3.483c-3.482-1.072-26.461-2.344-32.088-1.674c4.893-1.273,27.6-0.469,32.021,0.134C234.428,216.664,238.045,220.348,238.045,220.348z"></path></g></g></g></g></g></svg>