<svg xmlns="http://www.w3.org/2000/svg" width="500" height="500" version="1.1"><g id="x9120"><g><g><g><path style="fill:#FFFFFF;" d="M200.038,240.851c0,0,7.953,4.8,12.068,4.524c4.114-0.273,11.244,0.138,14.808-2.468c3.566-2.605,7.818-7.268,7.955-12.067c-4.389-8.365-8.502-10.973-8.502-10.973s-7.818-1.371-13.575-1.232c-5.76,0.135-15.771,4.386-18.103,8.502C194.278,233.719,199.489,240.713,200.038,240.851z"></path><path style="fill:#E4E0F3;" d="M234.509,233.084c0.206-0.74,0.34-1.49,0.36-2.244c-4.389-8.365-8.502-10.973-8.502-10.973s-7.818-1.371-13.575-1.232c-5.76,0.135-15.771,4.386-18.103,8.502c-0.124,1.971,0.263,3.976,0.872,5.826C206.765,227.79,221.514,228.369,234.509,233.084z"></path></g><g><path style="fill:#A2D7DD;" d="M227.385,232.004c0,6.217-5.069,11.252-11.311,11.252c-6.244,0-11.31-5.035-11.31-11.252c0-6.215,5.065-11.25,11.31-11.25C222.315,220.754,227.385,225.79,227.385,232.004z"></path><path style="opacity:0.5;fill:#FFFFFF;" d="M216.35,243.181c-4.953,0-8.916-2.878-8.916-5.622s0.549-3.017,2.606-3.154c2.059-0.138,4.524,0.822,6.719,0.687c2.194-0.138,5.073-1.511,6.583-1.098c1.511,0.411,3.153,2.741,2.057,3.976C224.301,239.205,221.832,243.181,216.35,243.181z"></path><path d="M216.074,218.36c-7.571,0-13.713,6.108-13.713,13.645c-0.001,7.539,6.139,13.646,13.713,13.646c7.57,0,13.713-6.108,13.713-13.646C229.787,224.468,223.645,218.36,216.074,218.36z M216.074,243.256c-6.244,0-11.31-5.035-11.31-11.252c0-6.215,5.065-11.25,11.31-11.25c6.241,0,11.311,5.036,11.311,11.25C227.385,238.221,222.315,243.256,216.074,243.256z"></path><path style="fill:#FFFFFF;" d="M207.161,224.532c1.37-0.062,4.249,3.154,3.289,4.798c-0.959,1.646-4.251,3.84-5.895,2.88c-1.646-0.959-2.743-2.467-2.743-3.291C201.813,228.097,204.143,224.667,207.161,224.532z"></path></g><g><path d="M187.422,226.862c0,0,2.743,0.411,3.427,0.687c0.549,3.702,3.978,11.519,9.6,13.713c-3.427-4.526-4.113-11.519-4.251-12.891c1.921-3.703,8.64-7.679,17.554-8.365c8.915-0.685,16.045,4.389,16.867,5.075c1.782,2.33,4.549,6.712,4.389,6.17c-1.372-4.662-3.016-8.64-3.016-8.64s3.291,1.097,3.838,1.784c-1.644-2.468-9.049-8.502-22.899-8.365C199.078,216.166,187.422,226.862,187.422,226.862z"></path><path d="M219.783,244.141c-6.081,0-9.599,1.235-14.808-0.959c0,0,1.513,2.27,4.113,2.47c3.564,0.273,15.084-0.138,16.044-0.548c0.959-0.411,2.469-1.921,2.469-1.921S223.488,244.141,219.783,244.141z"></path><g><path d="M204.405,243.914c-0.236,0.597-0.716,0.971-1.067,0.831c-0.353-0.135-0.446-0.735-0.211-1.333c0.236-0.6,0.715-0.973,1.068-0.835C204.546,242.717,204.641,243.316,204.405,243.914z"></path><path d="M201.46,242.67c-0.356,0.535-0.9,0.799-1.216,0.592c-0.317-0.206-0.284-0.814,0.066-1.35c0.358-0.535,0.902-0.804,1.218-0.595C201.846,241.526,201.813,242.135,201.46,242.67z"></path></g><path d="M209.227,214.246c0,0,9.189-2.194,19.335-0.273c5.211,3.29,6.721,5.622,6.721,5.622s-6.32-3.898-7.268-4.113C221.432,213.973,209.227,214.246,209.227,214.246z"></path></g></g><g><g><path style="fill:#FFFFFF;" d="M299.963,240.851c0,0-7.954,4.8-12.069,4.524c-4.114-0.273-11.243,0.138-14.808-2.468c-3.566-2.605-7.818-7.268-7.955-12.067c4.389-8.365,8.502-10.973,8.502-10.973s7.818-1.371,13.576-1.232c5.76,0.135,15.77,4.386,18.102,8.502C305.723,233.719,300.511,240.713,299.963,240.851z"></path><path style="fill:#E4E0F3;" d="M265.492,233.084c-0.207-0.74-0.34-1.49-0.361-2.244c4.389-8.365,8.502-10.973,8.502-10.973s7.818-1.371,13.576-1.232c5.76,0.135,15.77,4.386,18.102,8.502c0.124,1.971-0.262,3.976-0.871,5.826C293.235,227.79,278.486,228.369,265.492,233.084z"></path></g><g><path style="fill:#A2D7DD;" d="M272.615,232.004c0,6.217,5.069,11.252,11.311,11.252c6.244,0,11.311-5.035,11.311-11.252c0-6.215-5.066-11.25-11.311-11.25C277.685,220.754,272.615,225.79,272.615,232.004z"></path><path style="opacity:0.5;fill:#FFFFFF;" d="M283.65,243.181c4.953,0,8.916-2.878,8.916-5.622s-0.549-3.017-2.605-3.154c-2.06-0.138-4.525,0.822-6.719,0.687c-2.195-0.138-5.074-1.511-6.584-1.098c-1.511,0.411-3.153,2.741-2.057,3.976C275.699,239.205,278.168,243.181,283.65,243.181z"></path><path d="M270.213,232.004c0,7.539,6.143,13.646,13.713,13.646c7.574,0,13.714-6.108,13.713-13.646c0-7.537-6.141-13.645-13.713-13.645C276.355,218.36,270.213,224.468,270.213,232.004z M272.615,232.004c0-6.215,5.069-11.25,11.311-11.25c6.244,0,11.311,5.036,11.311,11.25c0,6.217-5.066,11.252-11.311,11.252C277.685,243.256,272.615,238.221,272.615,232.004z"></path><path style="fill:#FFFFFF;" d="M275.208,224.532c1.37-0.062,4.249,3.154,3.288,4.798c-0.959,1.646-4.25,3.84-5.895,2.88c-1.646-0.959-2.742-2.467-2.742-3.291C269.859,228.097,272.189,224.667,275.208,224.532z"></path></g><g><path d="M312.578,226.862c0,0-2.742,0.411-3.427,0.687c-0.548,3.702-3.978,11.519-9.599,13.713c3.426-4.526,4.112-11.519,4.25-12.891c-1.921-3.703-8.64-7.679-17.553-8.365c-8.916-0.685-16.046,4.389-16.867,5.075c-1.783,2.33-4.55,6.712-4.39,6.17c1.372-4.662,3.017-8.64,3.017-8.64s-3.292,1.097-3.839,1.784c1.644-2.468,9.049-8.502,22.899-8.365C300.922,216.166,312.578,226.862,312.578,226.862z"></path><path d="M280.217,244.141c6.081,0,9.6,1.235,14.808-0.959c0,0-1.513,2.27-4.113,2.47c-3.564,0.273-15.083-0.138-16.044-0.548c-0.959-0.411-2.469-1.921-2.469-1.921S276.512,244.141,280.217,244.141z"></path><g><path d="M295.596,243.914c0.235,0.597,0.715,0.971,1.066,0.831c0.354-0.135,0.447-0.735,0.211-1.333c-0.236-0.6-0.715-0.973-1.068-0.835C295.454,242.717,295.359,243.316,295.596,243.914z"></path><path d="M298.541,242.67c0.355,0.535,0.9,0.799,1.215,0.592c0.317-0.206,0.284-0.814-0.066-1.35c-0.357-0.535-0.902-0.804-1.217-0.595C298.154,241.526,298.188,242.135,298.541,242.67z"></path></g><path d="M290.773,214.246c0,0-9.189-2.194-19.335-0.273c-5.21,3.29-6.721,5.622-6.721,5.622s6.321-3.898,7.268-4.113C278.568,213.973,290.773,214.246,290.773,214.246z"></path></g></g></g></g></svg>