<svg xmlns="http://www.w3.org/2000/svg" width="500" height="500" version="1.1"><g id="x9121"><g><g><g><path style="fill:#FFFFFF;" d="M200.134,240.851c0,0,7.953,4.8,12.068,4.524c4.114-0.273,11.244,0.138,14.808-2.468c3.566-2.605,7.818-7.268,7.955-12.067c-4.389-8.365-8.502-10.973-8.502-10.973s-7.818-1.371-13.575-1.232c-5.76,0.135-15.771,4.386-18.103,8.502C194.374,233.719,199.585,240.713,200.134,240.851z"></path><path style="fill:#E4E0F3;" d="M234.604,233.084c0.206-0.74,0.34-1.49,0.36-2.244c-4.389-8.365-8.502-10.973-8.502-10.973s-7.818-1.371-13.575-1.232c-5.76,0.135-16.46-1.084-18.792,3.032c-0.124,1.971,0.725,6.65,1.334,8.5C206.633,224.994,221.609,228.369,234.604,233.084z"></path></g><g><path style="fill:#A2D7DD;" d="M227.48,232.004c0,6.217-5.069,11.252-11.311,11.252c-6.244,0-11.31-5.035-11.31-11.252c0-6.215,5.065-11.25,11.31-11.25C222.411,220.754,227.48,225.79,227.48,232.004z"></path><path style="opacity:0.5;fill:#FFFFFF;" d="M216.445,243.181c-4.953,0-8.916-2.878-8.916-5.622s0.549-3.017,2.606-3.154c2.059-0.138,4.524,0.822,6.719,0.687c2.194-0.138,5.073-1.511,6.583-1.098c1.511,0.411,3.153,2.741,2.057,3.976C224.396,239.205,221.928,243.181,216.445,243.181z"></path><path d="M216.17,218.36c-7.571,0-13.713,6.108-13.713,13.645c-0.001,7.539,6.139,13.646,13.713,13.646c7.57,0,13.713-6.108,13.713-13.646C229.883,224.468,223.74,218.36,216.17,218.36z M216.17,243.256c-6.244,0-11.31-5.035-11.31-11.252c0-6.215,5.065-11.25,11.31-11.25c6.241,0,11.311,5.036,11.311,11.25C227.48,238.221,222.411,243.256,216.17,243.256z"></path><path style="fill:#FFFFFF;" d="M207.257,224.532c1.37-0.062,4.249,3.154,3.289,4.798c-0.959,1.646-4.251,3.84-5.895,2.88c-1.646-0.959-2.743-2.467-2.743-3.291C201.908,228.097,204.238,224.667,207.257,224.532z"></path></g><g><path d="M187.43,219.167c0,0,2.831,2.106,3.515,2.382c0.318,6.451,0.985,12.618,9.6,19.713c-4.781-6.428-4.113-17.519-4.251-18.891c4.137-0.537,8.567-2.192,17.47-1.371c10.833,1,16.129,5.395,16.951,6.081c1.782,2.33,4.549,6.712,4.389,6.17c-1.372-4.662-3.173-7.917-3.173-7.917s3.448,0.375,3.995,1.061c-1.644-2.468-8.662-9.228-22.899-10.365C199.123,214.919,187.43,219.167,187.43,219.167z"></path><path d="M219.879,244.141c-6.081,0-9.599,1.235-14.808-0.959c0,0,1.513,2.27,4.113,2.47c3.564,0.273,15.084-0.138,16.044-0.548c0.959-0.411,2.469-1.921,2.469-1.921S223.584,244.141,219.879,244.141z"></path><g><path d="M204.501,243.914c-0.236,0.597-0.716,0.971-1.067,0.831c-0.353-0.135-0.446-0.735-0.211-1.333c0.236-0.6,0.715-0.973,1.068-0.835C204.642,242.717,204.736,243.316,204.501,243.914z"></path><path d="M201.556,242.67c-0.356,0.535-0.9,0.799-1.216,0.592c-0.317-0.206-0.284-0.814,0.066-1.35c0.358-0.535,0.902-0.804,1.218-0.595C201.941,241.526,201.908,242.135,201.556,242.67z"></path></g><path d="M210.543,213.181c0,0,9.339-1.43,19.292,1.319c4.923,3.708,6.235,6.156,6.235,6.156s-5.979-4.405-6.904-4.697C222.729,213.913,210.543,213.181,210.543,213.181z"></path></g></g><g><g><path style="fill:#FFFFFF;" d="M299.865,240.851c0,0-7.953,4.8-12.068,4.524c-4.113-0.273-11.244,0.138-14.807-2.468c-3.566-2.605-7.818-7.268-7.955-12.067c4.389-8.365,8.502-10.973,8.502-10.973s7.818-1.371,13.574-1.232c5.76,0.135,15.771,4.386,18.104,8.502C305.625,233.719,300.414,240.713,299.865,240.851z"></path><path style="fill:#E4E0F3;" d="M265.395,233.084c-0.205-0.74-0.34-1.49-0.359-2.244c4.389-8.365,8.502-10.973,8.502-10.973s7.818-1.371,13.574-1.232c5.76,0.135,16.461-1.084,18.793,3.032c0.123,1.971-0.725,6.65-1.334,8.5C293.367,224.994,278.391,228.369,265.395,233.084z"></path></g><g><path style="fill:#A2D7DD;" d="M272.52,232.004c0,6.217,5.068,11.252,11.311,11.252c6.244,0,11.309-5.035,11.309-11.252c0-6.215-5.064-11.25-11.309-11.25C277.588,220.754,272.52,225.79,272.52,232.004z"></path><path style="opacity:0.5;fill:#FFFFFF;" d="M283.555,243.181c4.953,0,8.916-2.878,8.916-5.622s-0.549-3.017-2.607-3.154s-4.523,0.822-6.719,0.687c-2.193-0.138-5.072-1.511-6.582-1.098c-1.512,0.411-3.154,2.741-2.057,3.976S278.072,243.181,283.555,243.181z"></path><path d="M270.117,232.004c0,7.539,6.143,13.646,13.713,13.646c7.574,0,13.713-6.108,13.713-13.646c0-7.537-6.143-13.645-13.713-13.645S270.117,224.468,270.117,232.004z M272.52,232.004c0-6.215,5.068-11.25,11.311-11.25c6.244,0,11.309,5.036,11.309,11.25c0,6.217-5.064,11.252-11.309,11.252C277.588,243.256,272.52,238.221,272.52,232.004z"></path><path style="fill:#FFFFFF;" d="M275.077,224.532c1.369-0.062,4.248,3.154,3.289,4.798c-0.959,1.646-4.252,3.84-5.895,2.88c-1.646-0.959-2.744-2.467-2.744-3.291C269.728,228.097,272.058,224.667,275.077,224.532z"></path></g><g><path d="M312.57,219.167c0,0-2.832,2.106-3.516,2.382c-0.318,6.451-0.984,12.618-9.6,19.713c4.781-6.428,4.113-17.519,4.252-18.891c-4.137-0.537-8.567-2.192-17.47-1.371c-10.833,1-16.13,5.395-16.952,6.081c-1.781,2.33-4.549,6.712-4.389,6.17c1.373-4.662,3.174-7.917,3.174-7.917s-3.449,0.375-3.996,1.061c1.645-2.468,8.663-9.228,22.9-10.365C300.877,214.919,312.57,219.167,312.57,219.167z"></path><path d="M280.121,244.141c6.08,0,9.598,1.235,14.807-0.959c0,0-1.512,2.27-4.113,2.47c-3.564,0.273-15.084-0.138-16.043-0.548c-0.959-0.411-2.469-1.921-2.469-1.921S276.416,244.141,280.121,244.141z"></path><g><path d="M295.498,243.914c0.236,0.597,0.717,0.971,1.068,0.831c0.352-0.135,0.445-0.735,0.211-1.333c-0.236-0.6-0.715-0.973-1.068-0.835C295.357,242.717,295.264,243.316,295.498,243.914z"></path><path d="M298.443,242.67c0.357,0.535,0.9,0.799,1.217,0.592c0.316-0.206,0.283-0.814-0.066-1.35c-0.359-0.535-0.902-0.804-1.219-0.595S298.092,242.135,298.443,242.67z"></path></g><path d="M289.457,213.181c0,0-9.34-1.43-19.293,1.319c-4.922,3.708-6.234,6.156-6.234,6.156s5.979-4.405,6.904-4.697C277.271,213.913,289.457,213.181,289.457,213.181z"></path></g></g></g></g></svg>