<svg xmlns="http://www.w3.org/2000/svg" width="500" height="500" version="1.1"><g id="x9122"><g><g><g><g><path style="fill:#FFFFFF;" d="M264.946,227.985c0,0,0,4.603,1.333,5.571c1.695,0.605,25.314,3.271,25.314,3.271s14.171-5.814,13.687-8.963c-1.453-2.301-1.938-2.786-1.938-2.786s-18.411-3.997-25.92-1.817C269.913,225.441,264.946,227.985,264.946,227.985z"></path><path style="fill:#E4E0F3;" d="M303.409,230.542c1.223-0.969,1.991-1.904,1.871-2.677c-1.453-2.301-1.938-2.786-1.938-2.786s-18.411-3.997-25.92-1.817c-7.51,2.18-12.477,4.724-12.477,4.724s0.002,2.04,0.397,3.69C277.699,228.596,290.941,227.733,303.409,230.542z"></path></g><g><g><path style="fill:#A2D7DD;" d="M273.567,225.123c0,0-0.468,8.473,5.843,10.459c4.499,1.228,7.13,0.233,7.13,0.233s7.069-1.869,6.193-11.453C288.877,223.369,274.795,223.252,273.567,225.123z"></path><path style="opacity:0.3;fill:#FFFFFF;" d="M276.604,230.382c0,0,0.527,2.336,1.871,2.863c0.585-0.585,0.877-1.286,1.051-0.818c0.177,0.467,0.469,1.11,0.469,1.11l1.11,0.409c0,0,0.35-1.695,2.162-2.045c1.812-0.35,3.038,0,3.214-0.176c0.175-0.174-0.176-1.461,0-1.343c0.175,0.116,1.109,0.935,1.109,0.935s0.994-0.293,1.988-1.403c-0.76-0.351-0.702-0.701-0.702-0.701l1.052,0.292c0.294-0.467-2.688-3.097-3.214-2.863s-0.563,4.52-3.485,4.402c-2.922-0.117-2.417-2.299-3.234-2.532C279.177,228.278,276.956,229.914,276.604,230.382z"></path><path style="fill:#84B9BF;" d="M292.733,224.362c-3.856-0.993-17.938-1.11-19.166,0.76c0,0-0.148,2.711,0.865,5.427c5.503-2.527,12.286-3.285,17.995-1.361C292.761,227.849,292.907,226.263,292.733,224.362z"></path><g><path d="M272.106,225.123c0,0-0.526,9.466,7.771,10.693c-6.136-2.513-5.902-10.927-5.902-10.927L272.106,225.123z"></path><path d="M291.846,224.029c0,0,0.712,9.976-6.183,11.962c4.851-0.059,8.333-5.071,8.158-11.381C292.888,224.084,291.846,224.029,291.846,224.029z"></path></g></g><ellipse transform="matrix(0.984 -0.1779 0.1779 0.984 -37.1579 54.5087)" style="fill:#FFFFFF;" cx="285.313" cy="234.414" rx="3.038" ry="2.396"></ellipse><ellipse transform="matrix(0.9426 0.334 -0.334 0.9426 91.9594 -80.1942)" style="fill:#FFFFFF;" cx="279.178" cy="227.313" rx="0.759" ry="1.198"></ellipse><ellipse cx="283.034" cy="228.395" rx="1.753" ry="2.161"></ellipse></g><g><path d="M262.215,229.213c0,0,7.83-6.545,14.257-7.948c6.429-1.402,28.049-0.234,32.725,3.74c-1.402,2.454-4.792,4.09-4.792,4.09l-0.935-1.519c0,0-8.415-3.74-22.906-2.921C268.516,225.335,262.215,229.213,262.215,229.213z"></path><g><path d="M269.954,234c0,0,15.05,3.394,20.309,3.51c5.26,0.118,12.974-5.375,14.025-7.596c-3.039,1.87-9.7,6.545-14.492,6.311C285.004,235.991,269.954,234,269.954,234z"></path></g><path d="M261.805,225.005c0.116-0.292,7.305-5.609,11.454-6.837c4.208-0.642,16.946-0.292,20.686,0.761c-2.746-1.462-14.2-2.63-20.686-1.754C265.721,219.922,261.805,225.005,261.805,225.005z"></path></g></g><path style="opacity:0.5;fill:#897975;" d="M272.438,234.5c0,0,16.529,3.654,19.89,2.327s12.11-6.577,12.11-6.577c1.5,1.5-6.25,9-13.75,9S272.438,234.5,272.438,234.5z"></path></g><g><g><g><path style="fill:#FFFFFF;" d="M235.054,227.985c0,0,0,4.603-1.333,5.571c-1.695,0.605-25.314,3.271-25.314,3.271s-14.171-5.814-13.687-8.963c1.453-2.301,1.938-2.786,1.938-2.786s18.411-3.997,25.92-1.817C230.087,225.441,235.054,227.985,235.054,227.985z"></path><path style="fill:#E4E0F3;" d="M196.591,230.542c-1.223-0.969-1.991-1.904-1.871-2.677c1.453-2.301,1.938-2.786,1.938-2.786s18.411-3.997,25.92-1.817c7.51,2.18,12.477,4.724,12.477,4.724s-0.002,2.04-0.397,3.69C222.301,228.596,209.059,227.733,196.591,230.542z"></path></g><g><g><path style="fill:#A2D7DD;" d="M226.433,225.123c0,0,0.468,8.473-5.843,10.459c-4.499,1.228-7.13,0.233-7.13,0.233s-7.069-1.869-6.193-11.453C211.123,223.369,225.205,223.252,226.433,225.123z"></path><path style="opacity:0.3;fill:#FFFFFF;" d="M223.396,230.382c0,0-0.527,2.336-1.871,2.863c-0.585-0.585-0.877-1.286-1.051-0.818c-0.177,0.467-0.469,1.11-0.469,1.11l-1.11,0.409c0,0-0.35-1.695-2.162-2.045c-1.812-0.35-3.038,0-3.214-0.176c-0.175-0.174,0.176-1.461,0-1.343c-0.175,0.116-1.109,0.935-1.109,0.935s-0.994-0.293-1.988-1.403c0.76-0.351,0.702-0.701,0.702-0.701l-1.052,0.292c-0.294-0.467,2.688-3.097,3.214-2.863s0.563,4.52,3.485,4.402c2.922-0.117,2.417-2.299,3.234-2.532C220.823,228.278,223.044,229.914,223.396,230.382z"></path><path style="fill:#84B9BF;" d="M207.267,224.362c3.856-0.993,17.938-1.11,19.166,0.76c0,0,0.148,2.711-0.865,5.427c-5.503-2.527-12.286-3.285-17.995-1.361C207.239,227.849,207.093,226.263,207.267,224.362z"></path><g><path d="M227.894,225.123c0,0,0.526,9.466-7.771,10.693c6.136-2.513,5.902-10.927,5.902-10.927L227.894,225.123z"></path><path d="M208.154,224.029c0,0-0.712,9.976,6.183,11.962c-4.851-0.059-8.333-5.071-8.158-11.381C207.112,224.084,208.154,224.029,208.154,224.029z"></path></g></g><ellipse transform="matrix(0.984 -0.1779 0.1779 0.984 -38.2222 42.6421)" style="fill:#FFFFFF;" cx="218.623" cy="234.414" rx="3.038" ry="2.396"></ellipse><ellipse transform="matrix(0.9426 0.334 -0.334 0.9426 88.1293 -57.919)" style="fill:#FFFFFF;" cx="212.488" cy="227.313" rx="0.759" ry="1.198"></ellipse><ellipse cx="216.966" cy="228.395" rx="1.753" ry="2.161"></ellipse></g><g><path d="M237.785,229.213c0,0-7.83-6.545-14.257-7.948c-6.429-1.402-28.049-0.234-32.725,3.74c1.402,2.454,4.792,4.09,4.792,4.09l0.935-1.519c0,0,8.415-3.74,22.906-2.921C231.484,225.335,237.785,229.213,237.785,229.213z"></path><g><path d="M230.046,234c0,0-15.05,3.394-20.309,3.51c-5.26,0.118-12.974-5.375-14.025-7.596c3.039,1.87,9.7,6.545,14.492,6.311C214.996,235.991,230.046,234,230.046,234z"></path></g><path d="M238.195,225.005c-0.116-0.292-7.305-5.609-11.454-6.837c-4.208-0.642-16.946-0.292-20.686,0.761c2.746-1.462,14.2-2.63,20.686-1.754C234.279,219.922,238.195,225.005,238.195,225.005z"></path></g></g><path style="opacity:0.5;fill:#897975;" d="M227.562,234.5c0,0-16.529,3.654-19.89,2.327s-12.11-6.577-12.11-6.577c-1.5,1.5,6.25,9,13.75,9S227.562,234.5,227.562,234.5z"></path></g></g></g></svg>