<svg xmlns="http://www.w3.org/2000/svg" width="500" height="500" version="1.1"><g id="x9123"><g><g><g><path style="opacity:0.3;fill:#A84A56;" d="M297.234,228.052c1.945-0.449,2.611-0.367,2.611-0.367s-2.203,5.139-13.828,6.24c-7.586-0.489-15.701-5.22-15.701-5.22s5.197,0.979,11.828,0.979C286.58,229.682,293.301,228.96,297.234,228.052z"></path><path style="opacity:0.3;fill:#A84A56;" d="M304.924,220.824c0,0-5.955-5.139-8.893-5.221c-2.936-0.082-21.371-2.854-21.371-2.854s-4.977,2.202-7.26,3.344c-2.285,1.142-6.037,6.607-7.016,9.299c0,0,8.076-3.916,10.932-4.079C274.172,221.15,304.924,220.824,304.924,220.824z"></path><g><path d="M302.799,215.547c0,0-6.232-2.288-29.572-0.631c0,0-2.75,0.583-4.455,1.584C278.561,215.083,301.471,215.406,302.799,215.547z"></path><g><g><g><path style="fill:#FFFFFF;" d="M266.662,222.917c0,0,2,4.792,4,6.958c7.875,1.5,17.535,1.145,23.125,0.625c7.805-2.47,11.5-3.875,14.889-10.737C300.583,220.919,271.982,215.981,266.662,222.917z"></path><path style="fill:#E4E0F3;" d="M266.523,223.331c0,0-0.114,0.815,1.306,3.586c11.215-2.64,24.474-3.186,36.083-2.667c1.309-1.915,3.6-3.121,4.125-5.625C300.346,218.729,272.324,217.5,266.523,223.331z"></path></g><g><path style="fill:#A2D7DD;" d="M279.495,219.417c-5.666,1-6.79,2.61-6.79,2.61s-0.168,6.073,5.582,8.823c1.046,0.234,5.514,0.348,8,0.326c6.375-0.25,6.893-10.778,6.893-10.778S285.161,218.417,279.495,219.417z"></path><g><path d="M292.34,219.767c0,0,2.24,8.057-5.67,11.133c4.76-0.3,7.91-3.927,7.211-11.282C293.041,219.317,292.34,219.767,292.34,219.767z"></path><path d="M273.51,221.282c0,0-0.988,8.242,6.152,9.818c-4.201-0.225-7.797-3.301-7.699-9.83C272.777,220.896,273.51,221.282,273.51,221.282z"></path></g></g><path d="M261.162,224.75c0,0,4.486-2.937,8.088-4.318c8.037-3.082,30.744-3.684,41.865-2.88c-2.545,5.761-8.51,12.427-17.818,13.407c-10.182,1.071-18.623-0.34-18.623-0.34s13.709,0.977,19.023-1.268c6.031-2.545,10.215-7.727,10.215-7.727s-25.32-0.027-31.75,2.25c-4.623,2.478-9.41,5.869-9.41,5.869s1.594-3.93,3.535-6.744C265.617,223,261.162,224.75,261.162,224.75z"></path></g></g></g></g><path style="opacity:0.3;fill:#A84A56;" d="M261.322,230.706c0.154-0.206,1.738,0.378,2.654,0.878c3.898,2.417,12.648,6.792,12.648,6.792s-10.313-2.563-13.938-5.438C262.25,232.59,261.168,230.911,261.322,230.706z"></path></g><g><g><path style="opacity:0.3;fill:#A84A56;" d="M202.099,228.052c-1.945-0.449-2.611-0.367-2.611-0.367s2.203,5.139,13.828,6.24c7.586-0.489,15.701-5.22,15.701-5.22s-5.197,0.979-11.828,0.979C212.753,229.682,206.033,228.96,202.099,228.052z"></path><path style="opacity:0.3;fill:#A84A56;" d="M194.41,220.824c0,0,5.955-5.139,8.893-5.221c2.936-0.082,21.371-2.854,21.371-2.854s4.977,2.202,7.26,3.344c2.285,1.142,6.037,6.607,7.016,9.299c0,0-8.076-3.916-10.932-4.079C225.162,221.15,194.41,220.824,194.41,220.824z"></path><g><path d="M196.535,215.547c0,0,6.232-2.288,29.572-0.631c0,0,2.75,0.583,4.455,1.584C220.773,215.083,197.863,215.406,196.535,215.547z"></path><g><g><g><path style="fill:#FFFFFF;" d="M232.671,222.917c0,0-2,4.792-4,6.958c-7.875,1.5-17.535,1.145-23.125,0.625c-7.805-2.47-11.5-3.875-14.889-10.737C198.75,220.919,227.351,215.981,232.671,222.917z"></path><path style="fill:#E4E0F3;" d="M232.81,223.331c0,0,0.114,0.815-1.306,3.586c-11.215-2.64-24.474-3.186-36.083-2.667c-1.309-1.915-3.6-3.121-4.125-5.625C198.988,218.729,227.009,217.5,232.81,223.331z"></path></g><g><path style="fill:#A2D7DD;" d="M219.838,219.417c5.666,1,6.79,2.61,6.79,2.61s0.168,6.073-5.582,8.823c-2.046,0.317-5.514,0.348-8,0.326c-6.375-0.25-6.893-10.778-6.893-10.778S214.172,218.417,219.838,219.417z"></path><g><path d="M206.994,219.767c0,0-2.24,8.057,5.67,11.133c-4.76-0.3-7.91-3.927-7.211-11.282C206.292,219.317,206.994,219.767,206.994,219.767z"></path><path d="M225.824,221.282c0,0,0.988,8.242-6.152,9.818c4.201-0.225,7.797-3.301,7.699-9.83C226.556,220.896,225.824,221.282,225.824,221.282z"></path></g></g><path d="M238.171,224.75c0,0-4.486-2.937-8.088-4.318c-8.037-3.082-30.744-3.684-41.865-2.88c2.545,5.761,8.51,12.427,17.818,13.407c10.182,1.071,18.623-0.34,18.623-0.34s-13.709,0.977-19.023-1.268c-6.031-2.545-10.215-7.727-10.215-7.727s25.32-0.027,31.75,2.25c4.623,2.478,9.41,5.869,9.41,5.869s-1.594-3.93-3.535-6.744C233.716,223,238.171,224.75,238.171,224.75z"></path></g></g></g></g><path style="opacity:0.3;fill:#A84A56;" d="M238.011,230.706c-0.154-0.206-1.738,0.378-2.654,0.878c-3.898,2.417-12.648,6.792-12.648,6.792s10.313-2.563,13.938-5.438C237.083,232.59,238.166,230.911,238.011,230.706z"></path></g></g></g></svg>