<svg xmlns="http://www.w3.org/2000/svg" width="500" height="500" version="1.1"><g id="x014"><g><g id="lefteye_10_"><g><path style="fill:#FFFFFF;" d="M230.604,225c0,0,3,3.333,2,11.167c-0.479,3.749-1.5,6-4.929,10.204c-2.719,1.935-8.139,2.796-12.571,2.796c-8.5,0-13.666-5.5-15.833-9.167c-2.833-7.333-3.5-12.5-3.5-12.5s6.666-10.167,21.833-9.5S230.604,225,230.604,225z"></path><path style="fill:#E4E0F3;" d="M217.604,218c15.167,0.667,13,7,13,7s1.801,2.021,2.142,6.585c-11.276-4.439-24.085-3.213-35.896,0.972c-0.828-3.142-1.078-5.057-1.078-5.057S202.438,217.333,217.604,218z"></path></g><g><g><g><g><g><path d="M226.206,246.547c3.259-3.375,3.736-10.36,3.736-13.473c0-8.098-2.378-12.906-9.85-14.831c-4.884-1.258-11.321-0.453-13.246,3.736c-0.979,2.238-1.888,6.966-1.811,11.208c-0.121,6.412,1.852,10.42,4.361,13.199C212.508,249.829,223.037,249.829,226.206,246.547z"></path><path style="fill:#A2D7DD;" d="M211.811,245.641c0,0-3.058-2.717-3.396-6.453c-0.34-3.736,5.434-3.736,10.019-3.736s8.831,1.529,8.831,3.227c0,1.699-1.189,6.114-3.736,6.793C220.98,246.151,220.641,248.019,211.811,245.641z"></path><ellipse style="fill:#FFFFFF;" cx="217.762" cy="234.49" rx="2.536" ry="6.283"></ellipse><ellipse style="fill:#FFFFFF;" cx="208.559" cy="227.446" rx="1.542" ry="2.063"></ellipse></g></g></g></g></g><path d="M232.093,220.848c1.698,2.831,2.831,9.17,2.831,9.17s-4.981-5.434-10.868-7.698c-3.088-1.188-8.873-1.864-13.263-0.75c-3.979,1.01-7.463,2.561-8.589,3.919c-2.717,3.283-3.734,6.227-3.621,7.359c0.112,5.095,1.924,9.283,1.924,9.283s-6.339-5.548-7.245-12.68c-0.113-2.038,2.67-9.929,9.622-13.359c2.515-1.24,5.076-2.06,7.554-2.548c6.11-1.206,12.266,0.85,15.316,2.322C228.117,217.008,230.693,218.56,232.093,220.848z"></path><path d="M204.47,215.414c0,0-8.943,4.302-12.228,3.17c2.718,3.396,9.737,1.359,11.888,0C206.28,217.225,204.47,215.414,204.47,215.414z"></path></g><g id="lefteye_69_"><g><path style="fill:#FFFFFF;" d="M269.396,225c0,0-3,3.333-2,11.167c0.479,3.749,1.5,6,4.929,10.204c2.719,1.935,8.139,2.796,12.571,2.796c8.5,0,13.666-5.5,15.833-9.167c2.833-7.333,3.5-12.5,3.5-12.5s-6.666-10.167-21.833-9.5S269.396,225,269.396,225z"></path><path style="fill:#E4E0F3;" d="M282.396,218c-15.167,0.667-13,7-13,7s-1.801,2.021-2.142,6.585c11.276-4.439,24.085-3.213,35.896,0.972c0.828-3.142,1.078-5.057,1.078-5.057S297.563,217.333,282.396,218z"></path></g><g><g><g><g><g><path d="M273.794,246.547c-3.259-3.375-3.736-10.36-3.736-13.473c0-8.098,2.378-12.906,9.85-14.831c4.884-1.258,11.321-0.453,13.246,3.736c0.979,2.238,1.888,6.966,1.811,11.208c0.121,6.412-1.852,10.42-4.361,13.199C287.492,249.829,276.963,249.829,273.794,246.547z"></path><path style="fill:#A2D7DD;" d="M288.189,245.641c0,0,3.058-2.717,3.396-6.453c0.34-3.736-5.434-3.736-10.019-3.736s-8.831,1.529-8.831,3.227c0,1.699,1.189,6.114,3.736,6.793C279.02,246.151,279.359,248.019,288.189,245.641z"></path><ellipse style="fill:#FFFFFF;" cx="282.238" cy="234.49" rx="2.536" ry="6.283"></ellipse><ellipse style="fill:#FFFFFF;" cx="291.441" cy="227.446" rx="1.542" ry="2.063"></ellipse></g></g></g></g></g><path d="M267.907,220.848c-1.698,2.831-2.831,9.17-2.831,9.17s4.981-5.434,10.868-7.698c3.088-1.188,8.873-1.864,13.263-0.75c3.979,1.01,7.463,2.561,8.589,3.919c2.717,3.283,3.734,6.227,3.621,7.359c-0.112,5.095-1.924,9.283-1.924,9.283s6.339-5.548,7.245-12.68c0.113-2.038-2.67-9.929-9.622-13.359c-2.515-1.24-5.076-2.06-7.554-2.548c-6.11-1.206-12.266,0.85-15.316,2.322C271.883,217.008,269.307,218.56,267.907,220.848z"></path><path d="M295.53,215.414c0,0,8.943,4.302,12.228,3.17c-2.718,3.396-9.737,1.359-11.888,0C293.72,217.225,295.53,215.414,295.53,215.414z"></path></g></g></g></svg>