<svg xmlns="http://www.w3.org/2000/svg" width="500" height="500" version="1.1"><g id="x016"><g><g id="lefteye_9_"><g><g><g><path d="M217.979,217.496c0,0,7.77-0.222,17.454,3.28C232.686,217.445,222.674,215.312,217.979,217.496z"></path></g></g></g><g><path style="fill:none;stroke:#1E1E1E;stroke-linecap:round;stroke-linejoin:round;" d="M216.811,249.557c-0.003,0.344-0.113,0.602-0.238,1.086"></path><path style="fill:none;stroke:#1E1E1E;stroke-linecap:round;stroke-linejoin:round;" d="M221.313,249.641c-0.003,0.344-0.114,0.602-0.237,1.085"></path></g><g><path style="fill:#FFFFFF;" d="M231.942,227.833c0,0,3.999,20.333-15.167,20.333s-22-19.667-22-19.667S216.275,219.167,231.942,227.833z"></path><path style="fill:#E4E0F3;" d="M195.869,232.637c-0.842-2.417-1.094-4.137-1.094-4.137s21.5-9.333,37.167-0.667c0,0,0.349,1.796,0.344,4.313C220.165,230.211,207.857,230.503,195.869,232.637z"></path></g><g><path style="fill:#A2D7DD;stroke:#1E1E1E;stroke-width:3;stroke-linecap:round;stroke-linejoin:round;" d="M204.896,225.807c-1.479,1.945-2.343,4.569-2.343,7.988c0,6.955,6.153,12.594,13.743,12.594c7.589,0,13.743-5.639,13.743-12.594c0-4.13-1.225-7.072-3.248-9.072L204.896,225.807z"></path><ellipse style="fill:#FFFFFF;" cx="207.647" cy="240.397" rx="2.264" ry="1.692"></ellipse><ellipse style="opacity:0.5;fill:#FFFFFF;" cx="216.312" cy="240.611" rx="6.485" ry="3.821"></ellipse></g><g><path d="M192.546,229.987c0,0,16.106-4.003,25.344-3.002c9.236,1.001,13.973,0.333,16.342,2.112c-1.066-1.667-2.014-2.891-2.961-3.447c1.423,0.223,3.197,0,4.974,0.667c0.829-1.223-10.421-5.449-21.434-5.115c-11.015,0.334-20.606,3.114-20.843,4.003c-0.237,0.889-0.355,1.556-0.355,1.556S192.902,226.985,192.546,229.987z"></path><g><path d="M207.558,225.206c0,0-3.96-0.833-5.33-8.66c3.997,3.434,8.089,6.405,13.226,5.101"></path></g></g></g><g id="lefteye_75_"><g><g><g><path d="M282.021,217.496c0,0-7.77-0.222-17.454,3.28C267.314,217.445,277.326,215.312,282.021,217.496z"></path></g></g></g><g><path style="fill:none;stroke:#1E1E1E;stroke-linecap:round;stroke-linejoin:round;" d="M283.189,249.557c0.003,0.344,0.113,0.602,0.238,1.086"></path><path style="fill:none;stroke:#1E1E1E;stroke-linecap:round;stroke-linejoin:round;" d="M278.687,249.641c0.003,0.344,0.114,0.602,0.237,1.085"></path></g><g><path style="fill:#FFFFFF;" d="M268.058,227.833c0,0-3.999,20.333,15.167,20.333s22-19.667,22-19.667S283.725,219.167,268.058,227.833z"></path><path style="fill:#E4E0F3;" d="M304.131,232.637c0.842-2.417,1.094-4.137,1.094-4.137s-21.5-9.333-37.167-0.667c0,0-0.349,1.796-0.344,4.313C279.835,230.211,292.143,230.503,304.131,232.637z"></path></g><g><path style="fill:#A2D7DD;stroke:#1E1E1E;stroke-width:3;stroke-linecap:round;stroke-linejoin:round;" d="M295.104,225.807c1.479,1.945,2.343,4.569,2.343,7.988c0,6.955-6.153,12.594-13.743,12.594c-7.589,0-13.743-5.639-13.743-12.594c0-4.13,1.225-7.072,3.248-9.072L295.104,225.807z"></path><ellipse style="fill:#FFFFFF;" cx="292.353" cy="240.397" rx="2.264" ry="1.692"></ellipse><ellipse style="opacity:0.5;fill:#FFFFFF;" cx="283.688" cy="240.611" rx="6.485" ry="3.821"></ellipse></g><g><path d="M307.454,229.987c0,0-16.106-4.003-25.344-3.002c-9.236,1.001-13.973,0.333-16.342,2.112c1.066-1.667,2.014-2.891,2.961-3.447c-1.423,0.223-3.197,0-4.974,0.667c-0.829-1.223,10.421-5.449,21.434-5.115c11.015,0.334,20.606,3.114,20.843,4.003c0.237,0.889,0.355,1.556,0.355,1.556S307.098,226.985,307.454,229.987z"></path><g><path d="M292.442,225.206c0,0,3.96-0.833,5.33-8.66c-3.997,3.434-8.089,6.405-13.226,5.101"></path></g></g></g></g><g id="_x30_01_26_"></g></g></svg>