<svg xmlns="http://www.w3.org/2000/svg" width="500" height="500" version="1.1"><g id="x017"><g><g><path d="M237.393,218.689c0,0-5.362-5.585-15.415-5.809C230.467,215.115,237.393,218.689,237.393,218.689z"></path><g><g><path style="fill:#FFFFFF;" d="M232.701,223.381c0,0,2.233,12.288,0.223,17.874c-2.011,5.586-6.032,10.278-16.756,8.938c-10.725-1.341-17.875-11.618-19.66-16.98c-1.564-9.16-1.564-11.617-1.564-11.617s8.045-7.373,19.214-5.809C225.328,217.349,232.701,223.381,232.701,223.381z"></path><path style="fill:#E4E0F3;" d="M232.701,222.935c0.702,3.934,1.116,3.769,1.116,8.042c-1.787-3.798-5.585-8.713-17.426-8.713s-18.99,5.586-20.332,8.713c-2.233-4.691-2.681-9.607-2.681-9.607s12.735-7.373,22.566-5.585C225.775,217.573,232.701,222.935,232.701,222.935z"></path></g><g><path d="M234.488,224.498c0,0-5.586-6.033-9.384-7.819c-3.797-1.787-14.521-3.352-21.001-1.34c-6.479,2.01-12.513,5.585-14.969,8.267c1.563,0.447,2.457,1.117,2.457,1.117s2.905,9.161,6.702,12.512c-1.563-6.479-2.01-11.003-1.115-12.121c0.892-1.118,9.637-5.37,15.861-6.032C223.541,217.963,234.488,224.498,234.488,224.498z"></path><path d="M223.094,217.349c0,0,9.607,2.905,12.289,4.468c-4.021-3.574-11.395-5.809-14.746-6.479C220.413,216.008,223.094,217.349,223.094,217.349z"></path></g><g><ellipse cx="218.178" cy="234.216" rx="10.724" ry="14.634"></ellipse><ellipse style="fill:#A2D7DD;" cx="218.179" cy="234.216" rx="8.977" ry="12.25"></ellipse><ellipse cx="218.291" cy="233.658" rx="4.356" ry="7.82"></ellipse><ellipse style="opacity:0.8;fill:#FFFFFE;" cx="218.38" cy="243.644" rx="4.133" ry="2.569"></ellipse><ellipse style="fill:#FFFFFE;" cx="223.615" cy="227.738" rx="3.687" ry="5.25"></ellipse></g></g></g><g><path d="M262.605,218.689c0,0,5.363-5.585,15.416-5.809C269.531,215.115,262.605,218.689,262.605,218.689z"></path><g><g><path style="fill:#FFFFFF;" d="M267.297,223.381c0,0-2.232,12.288-0.223,17.874c2.012,5.586,6.033,10.278,16.758,8.938c10.725-1.341,17.873-11.618,19.66-16.98c1.563-9.16,1.563-11.617,1.563-11.617s-8.045-7.373-19.213-5.809C274.67,217.349,267.297,223.381,267.297,223.381z"></path><path style="fill:#E4E0F3;" d="M267.297,222.935c-0.701,3.934-1.115,3.769-1.115,8.042c1.787-3.798,5.584-8.713,17.426-8.713c11.84,0,18.99,5.586,20.332,8.713c2.232-4.691,2.68-9.607,2.68-9.607s-12.734-7.373-22.566-5.585C274.225,217.573,267.297,222.935,267.297,222.935z"></path></g><g><path d="M265.51,224.498c0,0,5.586-6.033,9.385-7.819c3.797-1.787,14.521-3.352,21-1.34c6.48,2.01,12.514,5.585,14.971,8.267c-1.564,0.447-2.459,1.117-2.459,1.117s-2.904,9.161-6.701,12.512c1.563-6.479,2.01-11.003,1.115-12.121c-0.893-1.118-9.637-5.37-15.861-6.032C276.459,217.963,265.51,224.498,265.51,224.498z"></path><path d="M276.904,217.349c0,0-9.607,2.905-12.287,4.468c4.021-3.574,11.395-5.809,14.746-6.479C279.586,216.008,276.904,217.349,276.904,217.349z"></path></g><g><ellipse cx="281.82" cy="234.216" rx="10.725" ry="14.634"></ellipse><ellipse style="fill:#A2D7DD;" cx="281.819" cy="234.216" rx="8.976" ry="12.25"></ellipse><ellipse cx="281.708" cy="233.658" rx="4.356" ry="7.82"></ellipse><ellipse style="opacity:0.8;fill:#FFFFFE;" cx="281.617" cy="243.644" rx="4.133" ry="2.569"></ellipse><path style="fill:#FFFFFE;" d="M292.098,227.738c0,2.899-1.65,5.25-3.688,5.25c-2.033,0-3.686-2.351-3.686-5.25c0-2.9,1.652-5.25,3.686-5.25C290.447,222.488,292.098,224.838,292.098,227.738z"></path></g></g></g></g></g></svg>