<svg xmlns="http://www.w3.org/2000/svg" width="500" height="500" version="1.1"><g id="x018"><g><g><g><g><g><path d="M218.923,215.09c0,0,7.153-1.406,16.654,0.338C232.521,212.772,222.929,212.344,218.923,215.09z"></path></g></g></g><g><path style="fill:#FFFFFF;" d="M198.386,225.901c0,0-3.354,14.871,12.412,23.705c11.293,0.112,14.76-1.006,14.76-1.006s9.057-6.039,7.268-24.041C222.315,222.322,198.386,225.901,198.386,225.901z"></path><path style="fill:#E4E0F3;" d="M232.99,231.392c0.118-2.059,0.084-4.325-0.165-6.833c-10.511-2.237-34.439,1.342-34.439,1.342s-0.787,3.517,0.209,8.143C209.988,232.405,221.555,231.285,232.99,231.392z"></path></g><g><path style="fill:#A2D7DD;stroke:#000000;stroke-width:2.6836;stroke-linecap:round;stroke-linejoin:round;" d="M218.074,222.523c-8.661,0-10.709,2.129-10.709,2.129c-1.302,1.824-2.502,6.006-2.062,11.248c0.366,4.361,2.763,10.392,6.264,12.438c3.212,0.17,10.385-0.169,13.142-0.625c2.487-1.49,4.243-5.727,4.962-9.544c1.296-6.885,0.202-12.83-1.52-14.551C228.152,223.618,226.735,222.523,218.074,222.523z"></path><path d="M209.69,245.522c0,0-1.251-10.013,7.979-9.543c9.231,0.469,8.918,10.325,8.918,10.325s8.136-16.271,0.626-22.999c-7.667-1.095-19.401,1.096-19.401,1.096S201.554,237.23,209.69,245.522z"></path><ellipse cx="217.826" cy="235.587" rx="4.224" ry="5.241"></ellipse><ellipse transform="matrix(0.541 -0.841 0.841 0.541 -102.3737 300.0601)" style="fill:#FFFFFF;" cx="223.697" cy="243.814" rx="1.587" ry="2.124"></ellipse><ellipse transform="matrix(-0.5152 -0.8571 0.8571 -0.5152 122.9256 529.7864)" style="fill:#FFFFFF;" cx="211.302" cy="230.126" rx="2.912" ry="3.68"></ellipse><ellipse style="opacity:0.5;fill:#FFFFFF;" cx="218.526" cy="243.822" rx="6.083" ry="2.68"></ellipse></g><g><path d="M195.922,226.382c0,0,36.878-2.503,39.101-0.834c-1-1.564-1.889-2.712-2.777-3.233c1.333,0.208,3,0,4.666,0.626c0.206-0.306-4.061-3.479-8.134-3.704c-11.23-0.619-33.163,0.795-33.325,1.408c-0.223,0.835,0.156,2.191,0.156,2.191S194.67,223.775,195.922,226.382z"></path></g><path d="M198.895,225.026c0,0-1.408,8.292,0.625,12.047c-3.129-4.068-3.912-6.728-3.754-11.422C197.173,225.183,198.895,225.026,198.895,225.026z"></path></g><g><g><g><g><path d="M281.078,215.09c0,0-7.155-1.406-16.656,0.338C267.479,212.772,277.07,212.344,281.078,215.09z"></path></g></g></g><g><path style="fill:#FFFFFF;" d="M301.613,225.901c0,0,3.354,14.871-12.411,23.705c-11.294,0.112-14.76-1.006-14.76-1.006s-9.058-6.039-7.269-24.041C277.685,222.322,301.613,225.901,301.613,225.901z"></path><path style="fill:#E4E0F3;" d="M267.011,231.392c-0.118-2.059-0.086-4.325,0.163-6.833c10.511-2.237,34.439,1.342,34.439,1.342s0.787,3.517-0.208,8.143C290.013,232.405,278.445,231.285,267.011,231.392z"></path></g><g><path style="fill:#A2D7DD;stroke:#000000;stroke-width:2.6836;stroke-linecap:round;stroke-linejoin:round;" d="M281.925,222.523c8.662,0,10.71,2.129,10.71,2.129c1.302,1.824,2.502,6.006,2.063,11.248c-0.368,4.361-2.764,10.392-6.264,12.438c-3.213,0.17-10.387-0.169-13.144-0.625c-2.487-1.49-4.242-5.727-4.962-9.544c-1.296-6.885-0.201-12.83,1.52-14.551C271.848,223.618,273.265,222.523,281.925,222.523z"></path><path d="M290.31,245.522c0,0,1.252-10.013-7.979-9.543c-9.23,0.469-8.917,10.325-8.917,10.325s-8.137-16.271-0.626-22.999c7.666-1.095,19.4,1.096,19.4,1.096S298.446,237.23,290.31,245.522z"></path><ellipse cx="282.174" cy="235.587" rx="4.225" ry="5.241"></ellipse><ellipse transform="matrix(0.5409 -0.8411 0.8411 0.5409 -73.471 353.0359)" style="fill:#FFFFFF;" cx="286.629" cy="243.814" rx="1.587" ry="2.125"></ellipse><ellipse transform="matrix(-0.5151 -0.8571 0.8571 -0.5151 218.256 583.7212)" style="fill:#FFFFFF;" cx="274.235" cy="230.126" rx="2.912" ry="3.679"></ellipse><ellipse style="opacity:0.5;fill:#FFFFFF;" cx="281.459" cy="243.822" rx="6.083" ry="2.68"></ellipse></g><g><path d="M304.078,226.382c0,0-36.879-2.503-39.101-0.834c1-1.564,1.889-2.712,2.776-3.233c-1.333,0.208-2.999,0-4.665,0.626c-0.208-0.306,4.061-3.479,8.134-3.704c11.23-0.619,33.161,0.795,33.324,1.408c0.224,0.835-0.155,2.191-0.155,2.191S305.329,223.775,304.078,226.382z"></path></g><path d="M301.105,225.026c0,0,1.407,8.292-0.626,12.047c3.129-4.068,3.912-6.728,3.755-11.422C302.827,225.183,301.105,225.026,301.105,225.026z"></path></g></g></g></svg>