<svg xmlns="http://www.w3.org/2000/svg" width="500" height="500" version="1.1"><g id="x019"><g><g><g><g><g><path style="fill:#FFFFFF;" d="M195.909,233.473c0,0,3.262,10.556,11.584,14.44c5.711,0.49,17.162,0.029,17.162,0.029s10.973-8.831,5.521-24.034c-5.711-3.677-8.307-4.658-8.307-4.658s-25.701,6.621-26.74,8.092C194.092,229.058,195.909,233.473,195.909,233.473z"></path><path style="fill:#E4E0F3;" d="M230.177,223.908c0,0,2.336,4.415,1.558,7.848c-3.894-0.491-13.24-2.943-19.21-1.226c-5.971,1.717-14.538,6.13-14.538,6.13s-2.856-3.187-2.336-8.336c5.192-4.169,23.624-8.337,23.624-8.337L230.177,223.908z"></path></g><g><ellipse style="fill:#FFFFFF;" cx="218.255" cy="241.824" rx="1.632" ry="1.108"></ellipse><path d="M212.213,248.03c0,0-6.416-4.03-6.472-11.498c-0.057-7.468,1.964-12.131,7.094-14.308c6.218-3.264,11.97,0.467,11.97,0.467s5.285,6.529,3.73,14.612c-1.554,8.083-4.818,10.57-4.818,10.57S215.477,250.362,212.213,248.03z"></path><path style="fill:#A2D7DD;" d="M215.011,232.796c-1.876,0-5,2.099-6.299,4.886c0.804,5.854,3.684,9.096,9.719,8.793c6.218-0.311,7.68-5.438,7.772-11.503c0.001-0.095-0.007-0.179-0.006-0.273C223.091,232.3,219.198,231.226,215.011,232.796z"></path><path style="fill:#84B9BF;" d="M220.141,222.07l-4.819,0.155c0,0-7.773,5.285-6.685,14.923c0.02,0.183,0.05,0.355,0.074,0.533c1.3-2.787,4.423-4.886,6.299-4.886c4.188-1.57,8.081-0.496,11.186,1.903C226.234,224.675,220.141,222.07,220.141,222.07z"></path><ellipse transform="matrix(1 0.008 -0.008 1 1.8753 -1.7336)" cx="217.789" cy="233.702" rx="2.565" ry="4.719"></ellipse><ellipse style="opacity:0.8;fill:#FFFFFF;" cx="217.875" cy="243.646" rx="5.066" ry="2.916"></ellipse><ellipse style="fill:#FFFFFF;" cx="217.674" cy="241.513" rx="1.632" ry="1.107"></ellipse><ellipse transform="matrix(-0.7412 -0.6713 0.6713 -0.7412 217.6967 538.7305)" style="fill:#FFFFFE;" cx="212.698" cy="227.4" rx="3.133" ry="5.582"></ellipse><ellipse transform="matrix(-0.7235 -0.6903 0.6903 -0.7235 210.8539 546.9563)" style="fill:#FFFFFE;" cx="214.965" cy="231.251" rx="1.428" ry="2.467"></ellipse></g></g></g><g><path d="M199.803,217.071c0,0,9.632-6.75,23.624-6.75c6.26,0,12.981,5.711,12.981,5.711s-8.285-4.321-13.5-4.154C210.895,212.266,211.825,213.133,199.803,217.071z"></path><g><path d="M237.706,227.296c0,0-13.759-5.451-16.615-5.451c-2.856,0-18.037,2.764-25.25,8.034c0.26,3.634,1.625,7.282,1.625,7.282s-4.413-4.153-5.192-5.97c-2.336-1.818-4.154-4.674-4.154-4.674s4.933-0.26,7.009-1.558c2.077-1.298,11.163-6.49,25.961-9.085C229.139,217.433,236.147,225.22,237.706,227.296z"></path><path d="M220.312,218.304c0,0,10.384,0.519,13.24,2.336c-2.336-3.375-9.605-5.712-13.5-4.414C218.754,217.785,220.312,218.304,220.312,218.304z"></path></g></g></g><g><g><g><g><path style="fill:#FFFFFF;" d="M304.09,233.473c0,0-3.262,10.556-11.582,14.44c-5.713,0.49-17.164,0.029-17.164,0.029s-10.973-8.831-5.521-24.034c5.713-3.677,8.307-4.658,8.307-4.658s25.703,6.621,26.74,8.092C305.908,229.058,304.09,233.473,304.09,233.473z"></path><path style="fill:#E4E0F3;" d="M269.822,223.908c0,0-2.336,4.415-1.557,7.848c3.895-0.491,13.238-2.943,19.211-1.226c5.971,1.717,14.537,6.13,14.537,6.13s2.855-3.187,2.336-8.336c-5.191-4.169-23.623-8.337-23.623-8.337L269.822,223.908z"></path></g><g><ellipse style="fill:#FFFFFF;" cx="281.745" cy="241.824" rx="1.632" ry="1.108"></ellipse><path d="M287.787,248.03c0,0,6.414-4.03,6.471-11.498c0.059-7.468-1.963-12.131-7.092-14.308c-6.219-3.265-11.971,0.467-11.971,0.467s-5.285,6.529-3.73,14.612c1.555,8.083,4.818,10.57,4.818,10.57S284.523,250.362,287.787,248.03z"></path><path style="fill:#A2D7DD;" d="M284.988,232.796c1.877,0,5,2.099,6.301,4.886c-0.805,5.854-3.686,9.096-9.721,8.793c-6.217-0.311-7.68-5.438-7.771-11.503c-0.002-0.095,0.006-0.179,0.006-0.273C276.908,232.3,280.801,231.226,284.988,232.796z"></path><path style="fill:#84B9BF;" d="M279.859,222.07l4.818,0.155c0,0,7.773,5.285,6.686,14.923c-0.021,0.183-0.051,0.355-0.074,0.533c-1.301-2.787-4.424-4.886-6.301-4.886c-4.188-1.57-8.08-0.496-11.186,1.903C273.766,224.675,279.859,222.07,279.859,222.07z"></path><ellipse transform="matrix(-1 0.0079 -0.0079 -1 566.2596 465.1656)" cx="282.211" cy="233.701" rx="2.565" ry="4.719"></ellipse><ellipse style="opacity:0.8;fill:#FFFFFF;" cx="282.125" cy="243.646" rx="5.066" ry="2.916"></ellipse><ellipse style="fill:#FFFFFF;" cx="282.326" cy="241.513" rx="1.633" ry="1.107"></ellipse><path style="fill:#FFFFFE;" d="M275.221,225.297c-2.07,2.285-2.707,5.079-1.426,6.241c1.285,1.16,4,0.25,6.068-2.035c2.07-2.284,2.707-5.079,1.424-6.24C280.004,222.103,277.289,223.013,275.221,225.297z"></path><ellipse transform="matrix(-0.7236 -0.6902 0.6902 -0.7236 322.6542 591.7144)" style="fill:#FFFFFE;" cx="279.809" cy="231.251" rx="1.428" ry="2.466"></ellipse></g></g></g><g><path d="M300.197,217.071c0,0-9.633-6.75-23.625-6.75c-6.26,0-12.98,5.711-12.98,5.711s8.285-4.321,13.5-4.154C289.105,212.266,288.176,213.133,300.197,217.071z"></path><g><path d="M262.295,227.296c0,0,13.758-5.451,16.613-5.451c2.857,0,18.037,2.764,25.25,8.034c-0.26,3.634-1.625,7.282-1.625,7.282s4.414-4.153,5.191-5.97c2.338-1.818,4.154-4.674,4.154-4.674s-4.932-0.26-7.01-1.558c-2.076-1.298-11.164-6.49-25.961-9.085C270.861,217.433,263.852,225.22,262.295,227.296z"></path><path d="M279.688,218.304c0,0-10.385,0.519-13.24,2.336c2.336-3.375,9.605-5.712,13.5-4.414C281.246,217.785,279.688,218.304,279.688,218.304z"></path></g></g></g></g></g></svg>