<svg xmlns="http://www.w3.org/2000/svg" width="500" height="500" version="1.1"><g id="x002"><g><g><g><path style="fill:#FFFFFF;" d="M301.945,237.729c0,0-4.716,7.781-13.674,9.431c-4.48,0.708-12.968,0.236-12.968,0.236s-7.388-9.274-7.388-20.828c5.895-4.479,12.104-6.287,12.104-6.287s19.248,2.657,23.813,5.659C303.361,228.535,303.832,235.372,301.945,237.729z"></path><path style="fill:#E4E0F3;" d="M306.19,228.535c0,0-1.414,6.837-3.302,7.544c-4.007-3.301-15.532-5.988-20.747-5.659c-5.215,0.328-13.833,4.637-13.833,4.637s-0.784-3.693-0.393-9.117c5.659-4.48,14.696-6.129,14.696-6.129S304.068,222.641,306.19,228.535z"></path></g><g><g><path d="M270.314,224.619c4.47-3.366,14.372-2.27,14.044-2.487c2.727,0.544,5.45,0.816,5.45,0.816s5.176,4.359,4.359,13.08c-0.816,8.717-6.538,11.171-9.538,12.261l-6.466-0.079c0,0-7.584-2.708-8.904-13.861C268.937,231.61,268.46,229.608,270.314,224.619z"></path><path style="fill:#A2D7DD;" d="M273.676,233.201c5.466-3.279,16.224-5.499,17.919,3.593c-0.002,0.023-0.002,0.05-0.004,0.074c-0.565,4.796-4.367,9.369-8.464,9.732c-6.347,0.564-9.032-3.781-10.721-8.604c-0.261-0.747-0.528-1.823-0.718-3.057C272.288,234.273,272.954,233.684,273.676,233.201z"></path><ellipse style="fill:#1E1E1E;" cx="281.394" cy="234.894" rx="3.393" ry="4.625"></ellipse><ellipse style="opacity:0.8;fill:#FFFFFF;" cx="282.097" cy="242.991" rx="5.655" ry="3.036"></ellipse><path style="opacity:0.5;fill:#A2D7DD;" d="M273.96,224.315c9.449-1.269,14.949-0.564,14.949-0.564s3.211,8.237,2.686,13.043c-1.695-9.092-12.453-6.872-17.919-3.593c-0.722,0.482-1.388,1.072-1.987,1.739C271.161,231.504,271.26,226.806,273.96,224.315z"></path><ellipse style="fill:#FFFFFF;" cx="281.706" cy="240.897" rx="1.727" ry="1.171"></ellipse><path style="opacity:0.3;fill:#FFFFFF;" d="M287.762,231.535c1.031,0.589,2.151,0.565,2.507-0.053c0.352-0.618-0.197-1.597-1.229-2.186c-1.028-0.588-2.149-0.565-2.504,0.053C286.184,229.967,286.731,230.946,287.762,231.535z"></path><ellipse transform="matrix(-0.4959 0.8684 -0.8684 -0.4959 631.2681 98.9533)" style="opacity:0.3;fill:#FFFFFF;" cx="286.914" cy="232.698" rx="0.743" ry="1.239"></ellipse></g><path style="fill:#FFFFFE;" d="M271.574,228.528c-0.844,3.016,0.211,5.949,2.355,6.547c2.143,0.603,4.566-1.359,5.411-4.378c0.844-3.016-0.211-5.949-2.355-6.547C274.841,223.546,272.419,225.506,271.574,228.528z"></path><path d="M284.147,246.654l5.176-0.273l-1.909,2.179c0,0-5.99-0.437-7.218-0.217C282.51,247.743,284.147,246.654,284.147,246.654z"></path><path d="M278.969,217.77c0,0-10.899,0.275-16.621,4.906c2.998-4.087,15.26-8.448,19.346-7.357C281.693,217.227,278.969,217.77,278.969,217.77z"></path><path d="M263.165,228.396c0,0,11.716-4.905,18.8-4.905c7.085,0,19.073-0.271,22.071,3.816c-0.817,5.177-2.725,11.715-2.725,11.715s6.814-8.445,7.086-10.081c1.361-0.818,2.724-2.725,2.724-2.725l-5.176-2.451c0,0-9.538-7.902-25.341-8.449C269.977,217.77,263.165,228.396,263.165,228.396z"></path><path d="M289.869,210.142c0,0-12.536-1.634-18.257,0.272c-5.722,1.908-10.9,6.268-10.9,6.268s5.103-7.43,10.629-8.447C281.693,206.326,289.869,210.142,289.869,210.142z"></path><path d="M298.103,242.858c0.501,0.657,1.149,1.008,1.451,0.779c0.298-0.227,0.137-0.945-0.364-1.603c-0.503-0.661-1.153-1.009-1.452-0.78C297.439,241.482,297.602,242.201,298.103,242.858z"></path><ellipse transform="matrix(-0.7959 0.6054 -0.6054 -0.7959 680.795 259.656)" cx="296.635" cy="244.569" rx="0.682" ry="1.499"></ellipse><ellipse transform="matrix(-0.9709 0.2397 -0.2397 -0.9709 636.9553 414.8258)" cx="293.255" cy="246.141" rx="0.68" ry="1.5"></ellipse></g></g><g><g><path style="fill:#FFFFFF;" d="M198.055,237.729c0,0,4.716,7.781,13.674,9.431c4.48,0.708,12.968,0.236,12.968,0.236s7.388-9.274,7.388-20.828c-5.895-4.479-12.104-6.287-12.104-6.287s-19.248,2.657-23.813,5.659C196.639,228.535,196.168,235.372,198.055,237.729z"></path><path style="fill:#E4E0F3;" d="M193.81,228.535c0,0,1.414,6.837,3.302,7.544c4.007-3.301,15.532-5.988,20.747-5.659c5.215,0.328,13.833,4.637,13.833,4.637s0.784-3.693,0.393-9.117c-5.659-4.48-14.696-6.129-14.696-6.129S195.932,222.641,193.81,228.535z"></path></g><g><g><path d="M229.686,224.619c-4.47-3.366-14.372-2.27-14.044-2.487c-2.727,0.544-5.45,0.816-5.45,0.816s-5.176,4.359-4.359,13.08c0.816,8.717,6.538,11.171,9.538,12.261l6.466-0.079c0,0,7.584-2.708,8.904-13.861C231.063,231.61,231.54,229.608,229.686,224.619z"></path><path style="fill:#A2D7DD;" d="M226.324,233.201c-5.466-3.279-16.224-5.499-17.919,3.593c0.002,0.023,0.002,0.05,0.004,0.074c0.565,4.796,4.367,9.369,8.464,9.732c6.347,0.564,9.032-3.781,10.721-8.604c0.261-0.747,0.528-1.823,0.718-3.057C227.712,234.273,227.046,233.684,226.324,233.201z"></path><ellipse style="fill:#1E1E1E;" cx="218.606" cy="234.894" rx="3.393" ry="4.625"></ellipse><ellipse style="opacity:0.8;fill:#FFFFFF;" cx="217.903" cy="242.991" rx="5.655" ry="3.036"></ellipse><path style="opacity:0.5;fill:#A2D7DD;" d="M226.04,224.315c-9.449-1.269-14.949-0.564-14.949-0.564s-3.211,8.237-2.686,13.043c1.695-9.092,12.453-6.872,17.919-3.593c0.722,0.482,1.388,1.072,1.987,1.739C228.839,231.504,228.74,226.806,226.04,224.315z"></path><ellipse style="fill:#FFFFFF;" cx="218.294" cy="240.897" rx="1.727" ry="1.171"></ellipse><path style="opacity:0.3;fill:#FFFFFF;" d="M225.104,231.535c1.031,0.589,2.151,0.565,2.507-0.053c0.352-0.618-0.197-1.597-1.229-2.186c-1.028-0.588-2.149-0.565-2.504,0.053C223.525,229.967,224.073,230.946,225.104,231.535z"></path><ellipse transform="matrix(-0.4959 0.8684 -0.8684 -0.4959 537.536 153.3634)" style="opacity:0.3;fill:#FFFFFF;" cx="224.255" cy="232.698" rx="0.743" ry="1.239"></ellipse></g><path style="fill:#FFFFFE;" d="M208.916,228.528c-0.844,3.016,0.211,5.949,2.355,6.547c2.143,0.603,4.566-1.359,5.411-4.378c0.844-3.016-0.211-5.949-2.355-6.547C212.183,223.546,209.761,225.506,208.916,228.528z"></path><path d="M215.853,246.654l-5.176-0.273l1.909,2.179c0,0,5.99-0.437,7.218-0.217C217.49,247.743,215.853,246.654,215.853,246.654z"></path><path d="M221.031,217.77c0,0,10.899,0.275,16.621,4.906c-2.998-4.087-15.26-8.448-19.346-7.357C218.307,217.227,221.031,217.77,221.031,217.77z"></path><path d="M236.835,228.396c0,0-11.716-4.905-18.8-4.905c-7.085,0-19.073-0.271-22.071,3.816c0.817,5.177,2.725,11.715,2.725,11.715s-6.814-8.445-7.086-10.081c-1.361-0.818-2.724-2.725-2.724-2.725l5.176-2.451c0,0,9.538-7.902,25.341-8.449C230.023,217.77,236.835,228.396,236.835,228.396z"></path><path d="M210.131,210.142c0,0,12.536-1.634,18.257,0.272c5.722,1.908,10.9,6.268,10.9,6.268s-5.103-7.43-10.629-8.447C218.307,206.326,210.131,210.142,210.131,210.142z"></path><path d="M201.897,242.858c-0.501,0.657-1.149,1.008-1.451,0.779c-0.298-0.227-0.137-0.945,0.364-1.603c0.503-0.661,1.153-1.009,1.452-0.78C202.561,241.482,202.398,242.201,201.897,242.858z"></path><ellipse transform="matrix(0.7959 0.6054 -0.6054 0.7959 189.5539 -73.2053)" cx="203.365" cy="244.569" rx="0.682" ry="1.499"></ellipse><ellipse transform="matrix(0.9709 0.2397 -0.2397 0.9709 65.0166 -42.3757)" cx="206.745" cy="246.141" rx="0.68" ry="1.5"></ellipse></g></g></g></g></svg>