<svg xmlns="http://www.w3.org/2000/svg" width="500" height="500" version="1.1"><g id="x020"><g><g><g><path style="fill:#FFFFFF;" d="M231.98,231.537c-0.692,6.889-3.585,16.165-13.996,17.568c-10.675-0.602-20.157-12.773-20.157-12.773C208.086,229.613,220.789,226.075,231.98,231.537z"></path><path style="fill:#E4E0F3;" d="M231.997,223.921c0,0,0.413,3.352-0.017,7.616c-11.191-5.462-23.894-1.924-34.152,4.795l-1.051-10.327C196.776,226.005,216.66,213.507,231.997,223.921z"></path></g><g><path d="M227.055,221.673c0,0,4.523,10.135,2.282,17.458c-2.243,7.323-7.157,9.46-7.157,9.46s-8.07,1.477-11.707-3.662c-3.636-5.137-5.992-13.722-0.126-22.227C215.635,220.619,223.982,220.448,227.055,221.673z"></path><path style="fill:#A2D7DD;" d="M210.166,235.633c0.749,5.546,2.721,9.573,5.115,10.662c2.487,1.13,6.557-0.227,6.557-0.227s4.116-3.136,5.053-10.415c-1.842-1.138-3.807-2.076-5.505-2.925C217.863,232.024,212.706,232.431,210.166,235.633z"></path><path style="fill:#84B9BF;" d="M224.777,222.781c0,0-7.461-3.618-11.983,1.13c0,0-3.391,5.2-2.713,11.079c0.025,0.218,0.057,0.429,0.084,0.643c2.54-3.202,7.697-3.608,11.22-2.904c1.698,0.849,3.663,1.787,5.505,2.925c0.064-0.503,0.116-1.025,0.147-1.568C227.49,226.398,224.777,222.781,224.777,222.781z"></path><ellipse transform="matrix(-0.9997 -0.0243 0.0243 -0.9997 431.4298 473.7608)" style="fill:#1E1E1E;" cx="218.594" cy="234.259" rx="3.114" ry="4.354"></ellipse><g><ellipse transform="matrix(0.4959 0.8684 -0.8684 0.4959 307.0663 -68.1111)" style="opacity:0.3;fill:#FFFFFF;" cx="212.2" cy="230.432" rx="1.183" ry="1.972"></ellipse><ellipse transform="matrix(0.4953 0.8687 -0.8687 0.4953 309.789 -68.1706)" style="opacity:0.3;fill:#FFFFFF;" cx="213.563" cy="232.525" rx="0.681" ry="1.136"></ellipse></g><path style="fill:#FFFFFE;" d="M208.71,239.022c0,0,3.57-3.021,4.618-2.413c1.048,0.609-3.589,4.173-4.928,4.182S208.71,239.022,208.71,239.022z"></path><ellipse style="fill:#FFFFFF;" cx="218.488" cy="239.611" rx="1.583" ry="1.074"></ellipse><path style="fill:#FFFFFE;" d="M230.347,231.196c0,0-1.959,3.547-3.514,3.396c-1.553-0.151-4.679-3.13-4.257-4.15C222.998,229.421,228.233,227.299,230.347,231.196z"></path><ellipse style="fill:#FFFFFE;" cx="223.303" cy="233.354" rx="1.131" ry="1.281"></ellipse><path style="opacity:0.8;fill:#FFFFFF;" d="M216.4,246.002c0,0,5.076,0.907,6-0.295c0.924-1.202-1.532-4.697-3.383-5.271c-1.85-0.574-6.86,1.061-6.598,2.291C212.683,243.958,214.607,246.032,216.4,246.002z"></path></g><g><g><path d="M239.113,228.305c0,0-8.063-10.443-11.282-11.39c-10.098-1.262-23.669,0.947-26.889,1.894c-3.219,0.947-13.065,5.303-15.716,8.143c3.597-1.327,5.87-1.327,5.87-1.327s1.136,8.332,7.953,12.877c-1.085-5.524-1.538-9.293-0.331-12.458c3.977-1.893,25.638-4.452,29.994-3.315C233.067,223.864,239.113,228.305,239.113,228.305z"></path><path d="M224.612,218.809c0.569,0,10.604-0.189,12.309,0.379c-3.787-2.461-11.362-2.461-14.012-2.272C224.423,217.484,224.612,218.809,224.612,218.809z"></path></g><path d="M234.27,212.749c0,0-16.107-0.723-32.569,1.894C213.338,210.217,228.778,210.667,234.27,212.749z"></path></g></g><g><g><path style="fill:#FFFFFF;" d="M268.02,231.537c0.693,6.889,3.586,16.165,13.996,17.568c10.675-0.602,20.157-12.773,20.157-12.773C291.915,229.613,279.211,226.075,268.02,231.537z"></path><path style="fill:#E4E0F3;" d="M268.004,223.921c0,0-0.413,3.352,0.016,7.616c11.191-5.462,23.896-1.924,34.153,4.795l1.051-10.327C303.224,226.005,283.341,213.507,268.004,223.921z"></path></g><g><path d="M272.946,221.673c0,0-4.524,10.135-2.282,17.458c2.243,7.323,7.155,9.46,7.155,9.46s8.07,1.478,11.707-3.662c3.636-5.137,5.991-13.722,0.126-22.227C284.366,220.619,276.018,220.448,272.946,221.673z"></path><path style="fill:#A2D7DD;" d="M289.834,235.633c-0.749,5.546-2.72,9.573-5.115,10.662c-2.487,1.13-6.557-0.227-6.557-0.227s-4.116-3.136-5.053-10.415c1.843-1.138,3.807-2.076,5.505-2.925C282.138,232.024,287.294,232.431,289.834,235.633z"></path><path style="fill:#84B9BF;" d="M275.223,222.781c0,0,7.461-3.618,11.983,1.131c0,0,3.391,5.2,2.713,11.078c-0.024,0.218-0.057,0.429-0.085,0.643c-2.54-3.202-7.696-3.608-11.22-2.904c-1.698,0.849-3.662,1.787-5.505,2.925c-0.064-0.503-0.116-1.025-0.147-1.568C272.51,226.398,275.223,222.781,275.223,222.781z"></path><ellipse transform="matrix(0.9997 -0.0243 0.0243 0.9997 -5.61 6.9081)" style="fill:#1E1E1E;" cx="281.406" cy="234.259" rx="3.114" ry="4.354"></ellipse><g><ellipse transform="matrix(0.496 0.8683 -0.8683 0.496 339.0834 -123.3344)" style="opacity:0.3;fill:#FFFFFF;" cx="275.787" cy="230.432" rx="1.182" ry="1.972"></ellipse><ellipse transform="matrix(0.4954 0.8686 -0.8686 0.4954 341.8188 -123.4212)" style="opacity:0.3;fill:#FFFFFF;" cx="277.15" cy="232.526" rx="0.681" ry="1.136"></ellipse></g><path style="fill:#FFFFFE;" d="M272.298,239.022c0,0,3.569-3.021,4.617-2.413c1.049,0.609-3.589,4.173-4.929,4.182C270.648,240.8,272.298,239.022,272.298,239.022z"></path><ellipse style="fill:#FFFFFF;" cx="282.075" cy="239.611" rx="1.583" ry="1.074"></ellipse><path style="fill:#FFFFFE;" d="M293.935,231.196c0,0-1.96,3.547-3.514,3.396c-1.555-0.15-4.679-3.13-4.257-4.15C286.586,229.421,291.821,227.3,293.935,231.196z"></path><ellipse style="fill:#FFFFFE;" cx="286.89" cy="233.354" rx="1.13" ry="1.281"></ellipse><path style="opacity:0.8;fill:#FFFFFF;" d="M279.986,246.002c0,0,5.077,0.907,6.001-0.295c0.925-1.202-1.531-4.697-3.383-5.271c-1.85-0.574-6.861,1.061-6.598,2.291C276.27,243.958,278.193,246.032,279.986,246.002z"></path></g><g><g><path d="M260.887,228.305c0,0,8.063-10.443,11.282-11.39c10.098-1.262,23.669,0.947,26.89,1.894c3.218,0.947,13.065,5.303,15.715,8.143c-3.597-1.327-5.869-1.327-5.869-1.327s-1.137,8.332-7.953,12.877c1.085-5.524,1.537-9.293,0.331-12.458c-3.977-1.893-25.639-4.452-29.995-3.315C266.933,223.864,260.887,228.305,260.887,228.305z"></path><path d="M275.389,218.809c-0.568,0-10.605-0.189-12.31,0.379c3.787-2.461,11.362-2.461,14.012-2.272C275.578,217.484,275.389,218.809,275.389,218.809z"></path></g><path d="M265.73,212.749c0,0,16.107-0.723,32.57,1.894C286.661,210.217,271.222,210.667,265.73,212.749z"></path></g></g></g></g></svg>