<svg xmlns="http://www.w3.org/2000/svg" width="500" height="500" version="1.1"><g id="x021"><g><g><g><path style="fill:#FFFFFF;" d="M233.752,229.161c0,0,3.023,15.256-12.085,18.13c-13.709-1.105-19.089-1.032-22.406-5.97c-2.432-5.896-1.031-11.94-1.031-11.94S224.542,224.665,233.752,229.161z"></path><path style="fill:#E4E0F3;" d="M197.977,236.209c-0.437-3.83,0.252-6.828,0.252-6.828s26.313-4.716,35.523-0.221c0,0,0.489,2.473,0.088,5.612C221.894,233.97,209.811,234.357,197.977,236.209z"></path></g><g><g><path d="M230.963,228.101c0,0,3.664,16.29-10.2,16.678c-13.862,0.388-12.711-14.895-12.711-14.895S224.283,224.765,230.963,228.101z"></path><path style="fill:#A2D7DD;" d="M211.11,229.009c0,0-1.029,3.84,0.75,8.149c1.779,4.309,5.726,5.651,10.678,4.964c3.804-0.527,6.65-4.402,6.463-8.429c-0.188-4.027-2.529-6.744-2.529-6.744S215.418,225.825,211.11,229.009z"></path><path style="fill:#84B9BF;" d="M229,233.693c-0.188-4.027-2.529-6.744-2.529-6.744s-11.053-1.124-15.361,2.061c0,0-0.936,3.517,0.542,7.595c4.243-3.724,11.404-3.399,17.2-0.968C228.973,235.001,229.031,234.35,229,233.693z"></path><ellipse cx="220.777" cy="233.917" rx="4.227" ry="4.011"></ellipse><ellipse style="opacity:0.8;fill:#FFFFFF;" cx="220.811" cy="240.205" rx="4.486" ry="1.984"></ellipse></g><g><path style="fill:#FFFFFE;" d="M207.747,231.078c0.136-1.106,3.82-2.8,5.731-2.433c1.914,0.369,4.436,2.729,4.026,3.243c-0.409,0.516-2.933,2.137-5.05,1.916C210.34,233.583,207.611,232.182,207.747,231.078z"></path></g></g><g><path d="M239.501,227.909c0,0-4.052-3.833-7.81-5.381c-1.311-0.539-33.271,0.604-48.969,5.468c2.431,1.105,7.989,1.166,7.989,1.166l-7.648,1.111l12.732,0.215L239.501,227.909z"></path><path d="M233.606,226.508c0,0,1.768,2.431,3.316,4.864c-1.77-0.664-5.749-3.095-5.749-3.095"></path><path d="M212.378,224.518c-0.663,0-14.37,0.664-17.022-4.422c2.22,6.088,5.305,6.633,5.305,6.633"></path><path d="M199.335,229.824c0,0-1.45,8.857,3.415,12.396c4.864,3.537,11.398,4.85,18.917,5.071c-8.182,1.327-23.944-1.503-26.313-10.307c-1.594-5.917-4.211-7.169-4.211-7.169L199.335,229.824z"></path><path d="M203.979,244.713c-0.368-0.075-0.518,1.841-0.074,2.063c0.44,0.221,2.358-0.884,2.358-0.884L203.979,244.713z"></path><path d="M211.053,246.775c-0.146,0.221-1.917,2.063-2.507,1.99c-0.588-0.073-0.367-2.874-0.367-2.874L211.053,246.775z"></path><path d="M196.682,236.088c-0.295,0.075-4.127,0.222-4.718-0.22c-0.588-0.442,4.201-4.054,4.201-4.054L196.682,236.088z"></path></g><g><path d="M238.103,223.781c0,0-7.263-2.734-7.928-2.955c-0.663-0.222-16.173-0.14-25.533,0.007c8.254-1.327,25.313-2.267,26.678-1.843C234.416,219.948,238.103,223.781,238.103,223.781z"></path><path d="M240.607,221.938c0.135,0.302-3.61-2.434-5.822-3.169C236.848,218.18,239.501,219.434,240.607,221.938z"></path></g></g><g><g><path style="fill:#FFFFFF;" d="M266.247,229.161c0,0-3.022,15.256,12.086,18.13c13.709-1.105,19.09-1.032,22.406-5.97c2.432-5.896,1.031-11.94,1.031-11.94S275.458,224.665,266.247,229.161z"></path><path style="fill:#E4E0F3;" d="M302.023,236.209c0.437-3.83-0.253-6.828-0.253-6.828s-26.313-4.716-35.523-0.221c0,0-0.488,2.473-0.088,5.612C278.106,233.97,290.19,234.357,302.023,236.209z"></path></g><g><g><path d="M269.037,228.101c0,0-3.663,16.29,10.2,16.678c13.862,0.388,12.712-14.895,12.712-14.895S275.717,224.765,269.037,228.101z"></path><path style="fill:#A2D7DD;" d="M288.89,229.009c0,0,1.029,3.84-0.75,8.149c-1.778,4.309-5.725,5.651-10.677,4.964c-3.805-0.527-6.65-4.402-6.463-8.429c0.188-4.027,2.529-6.744,2.529-6.744S284.582,225.825,288.89,229.009z"></path><path style="fill:#84B9BF;" d="M271,233.693c0.188-4.027,2.529-6.744,2.529-6.744s11.053-1.124,15.36,2.061c0,0,0.937,3.517-0.541,7.595c-4.243-3.724-11.403-3.399-17.2-0.968C271.026,235.001,270.969,234.35,271,233.693z"></path><ellipse cx="279.223" cy="233.917" rx="4.227" ry="4.011"></ellipse><ellipse style="opacity:0.8;fill:#FFFFFF;" cx="279.189" cy="240.205" rx="4.485" ry="1.984"></ellipse></g><g><path style="fill:#FFFFFE;" d="M268.655,231.078c0.136-1.106,3.819-2.8,5.731-2.433c1.913,0.369,4.436,2.729,4.026,3.243c-0.409,0.516-2.934,2.137-5.051,1.916C271.248,233.583,268.52,232.182,268.655,231.078z"></path></g></g><g><path d="M260.498,227.909c0,0,4.053-3.833,7.812-5.381c1.31-0.539,33.27,0.604,48.968,5.468c-2.431,1.105-7.988,1.166-7.988,1.166l7.648,1.111l-12.733,0.215L260.498,227.909z"></path><path d="M266.394,226.508c0,0-1.768,2.431-3.316,4.864c1.77-0.664,5.75-3.095,5.75-3.095"></path><path d="M287.621,224.518c0.662,0,14.37,0.664,17.022-4.422c-2.221,6.088-5.306,6.633-5.306,6.633"></path><path d="M300.664,229.824c0,0,1.45,8.857-3.414,12.396c-4.864,3.537-11.398,4.85-18.917,5.071c8.182,1.327,23.943-1.503,26.313-10.307c1.594-5.917,4.211-7.169,4.211-7.169L300.664,229.824z"></path><path d="M296.021,244.713c0.368-0.075,0.518,1.841,0.075,2.063c-0.441,0.221-2.358-0.884-2.358-0.884L296.021,244.713z"></path><path d="M288.946,246.775c0.146,0.221,1.917,2.063,2.507,1.99c0.589-0.073,0.367-2.874,0.367-2.874L288.946,246.775z"></path><path d="M303.319,236.088c0.294,0.075,4.126,0.222,4.717-0.22c0.588-0.442-4.199-4.054-4.199-4.054L303.319,236.088z"></path></g><g><path d="M261.897,223.781c0,0,7.263-2.734,7.928-2.955c0.662-0.222,16.173-0.14,25.532,0.007c-8.254-1.327-25.312-2.267-26.679-1.843C265.584,219.948,261.897,223.781,261.897,223.781z"></path><path d="M259.394,221.938c-0.136,0.302,3.608-2.434,5.821-3.169C263.152,218.18,260.498,219.434,259.394,221.938z"></path></g></g></g></g></svg>