<svg xmlns="http://www.w3.org/2000/svg" width="500" height="500" version="1.1"><g id="x022"><g><g><g><path style="fill:#FFFFFF;" d="M191.982,225.092c0,0,0,2.247,0.562,3.82c2.022,4.719,7.865,15.393,14.606,17.303c6.742,1.91,24.607-2.584,24.607-2.584c0.898-2.584,2.696-11.236,1.685-13.82c-5.505-5.394-10.116-9.821-18.09-9.551C202.095,220.71,191.982,225.092,191.982,225.092z"></path><path style="fill:#E4E0F3;" d="M216.364,220.373c8.904,1.084,10.898,3.708,16.966,9.775c1.012,3.034-0.112,6.629-0.112,6.629s-8.314-2.921-15.393-4.607c-7.079-1.685-18.989,0.337-23.259,1.124c-2.749-2.938-2.584-8.202-2.584-8.202S203.442,218.8,216.364,220.373z"></path></g><g><path d="M211.072,222.059c0,0-5.955,4.27-5.057,12.247c0.899,7.978,8.539,11.011,14.27,10.562c5.73-0.45,12.247-5.843,9.326-19.438C224.105,219.025,213.993,220.373,211.072,222.059z"></path><path style="fill:#A2D7DD;" d="M212.534,224.281c0,0-4.722,3.385-4.009,9.71c0.712,6.325,6.771,8.73,11.313,8.374s9.709-4.632,7.394-15.411C222.867,221.876,214.85,222.945,212.534,224.281z"></path><ellipse style="opacity:0.8;fill:#FFFFFF;" cx="218.881" cy="240.879" rx="5.337" ry="2.865"></ellipse><path style="fill:#84B9BF;" d="M212.534,224.281c5.619-3.396,11.459-0.537,14.718,2.384c1.349,2.809,0.225,8.989,0.225,8.989s-1.798-5.056-9.214-6.067c-6.227-0.85-9.775,3.258-9.775,3.258S208.041,227.066,212.534,224.281z"></path><path d="M214.05,227.632c0,0-4.102,5.449,1.517,10.843c-3.933-1.124-4.636-3.666-4.831-5.618C210.397,229.486,214.05,227.632,214.05,227.632z"></path><path d="M222.971,227.632c0,0,4.102,5.449-1.517,10.843c3.933-1.124,4.637-3.666,4.832-5.618C226.623,229.486,222.971,227.632,222.971,227.632z"></path><circle cx="218.544" cy="232.238" r="3.202"></circle><circle style="fill:#FFFFFE;" cx="211.241" cy="228.632" r="2.809"></circle></g><g><path d="M191.982,227.002c0,0,2.336,14.706,12.359,20.112c8.539,4.607,27.416-3.483,27.416-3.483s-19.835,4.072-25.506,1.236C199.061,241.272,191.982,227.002,191.982,227.002z"></path><path d="M189.885,225.542c0,0,10.538-2.654,19.625-3.296c9.088-0.642,16.967,4.082,16.967,4.082l9.438,6.405c0,0-4.588-10.676-8.577-13.034C223.35,217.341,205.915,214.605,189.885,225.542z"></path></g><path d="M208.724,214.306c0,0,14.606-0.562,18.876,1.124c3.82,2.809,7.416,6.067,7.416,6.067s-4.27-7.191-7.303-8.54C224.679,211.609,208.724,214.306,208.724,214.306z"></path></g><g><g><path style="fill:#FFFFFF;" d="M308.018,225.092c0,0,0,2.247-0.562,3.82c-2.022,4.719-7.865,15.393-14.606,17.303s-24.606-2.584-24.606-2.584c-0.899-2.584-2.697-11.236-1.686-13.82c5.506-5.394,10.116-9.821,18.09-9.551C297.905,220.71,308.018,225.092,308.018,225.092z"></path><path style="fill:#E4E0F3;" d="M283.636,220.373c-8.904,1.084-10.898,3.708-16.966,9.775c-1.011,3.034,0.112,6.629,0.112,6.629s8.314-2.921,15.393-4.607c7.079-1.685,18.989,0.337,23.259,1.124c2.749-2.938,2.584-8.202,2.584-8.202S296.558,218.8,283.636,220.373z"></path></g><g><path d="M288.929,222.059c0,0,5.955,4.27,5.056,12.247s-8.539,11.011-14.27,10.562c-5.73-0.45-12.247-5.843-9.326-19.438C275.895,219.025,286.007,220.373,288.929,222.059z"></path><path style="fill:#A2D7DD;" d="M287.466,224.281c0,0,4.722,3.385,4.009,9.71c-0.712,6.325-6.771,8.73-11.313,8.374s-9.709-4.632-7.393-15.411C277.134,221.876,285.15,222.945,287.466,224.281z"></path><ellipse style="opacity:0.8;fill:#FFFFFF;" cx="281.119" cy="240.879" rx="5.337" ry="2.865"></ellipse><path style="fill:#84B9BF;" d="M287.466,224.281c-5.619-3.396-11.459-0.537-14.717,2.384c-1.35,2.809-0.225,8.989-0.225,8.989s1.797-5.056,9.213-6.067c6.227-0.85,9.775,3.258,9.775,3.258S291.96,227.066,287.466,224.281z"></path><path d="M285.95,227.632c0,0,4.102,5.449-1.516,10.843c3.932-1.124,4.635-3.666,4.83-5.618C289.603,229.486,285.95,227.632,285.95,227.632z"></path><path d="M277.029,227.632c0,0-4.102,5.449,1.517,10.843c-3.933-1.124-4.637-3.666-4.832-5.618C273.378,229.486,277.029,227.632,277.029,227.632z"></path><circle cx="281.457" cy="232.238" r="3.203"></circle><circle style="fill:#FFFFFE;" cx="274.848" cy="228.632" r="2.81"></circle></g><g><path d="M308.018,227.002c0,0-2.336,14.706-12.358,20.112c-8.54,4.607-27.416-3.483-27.416-3.483s19.834,4.072,25.506,1.236C300.939,241.272,308.018,227.002,308.018,227.002z"></path><path d="M310.115,225.542c0,0-10.538-2.654-19.625-3.296c-9.088-0.642-16.966,4.082-16.966,4.082l-9.439,6.405c0,0,4.588-10.676,8.577-13.034C276.651,217.341,294.085,214.605,310.115,225.542z"></path></g><path d="M291.276,214.306c0,0-14.606-0.562-18.876,1.124c-3.82,2.809-7.416,6.067-7.416,6.067s4.27-7.191,7.304-8.54C275.321,211.609,291.276,214.306,291.276,214.306z"></path></g></g></g></svg>