<svg xmlns="http://www.w3.org/2000/svg" width="500" height="500" version="1.1"><g id="x023"><g><g><g><path style="fill:#FFFFFF;" d="M191.115,222.667c0,0-1.08,4.672-0.484,6.246c2.146,4.719,12.167,14.927,19.321,16.837c7.156,1.91,22.295-2.118,22.295-2.118c0.954-2.584,2.861-6.736,1.788-9.32c-5.843-5.394-10.736-14.321-19.199-14.051C200.767,220.71,191.115,222.667,191.115,222.667z"></path><path style="fill:#E4E0F3;" d="M215.911,220.373c9.45,1.084,10.964,5.002,16.464,12.627c1.074,3.034,1,5.75,1,5.75s-8.376-7.465-15.905-9.083c-10.082-2.167-20.763,0.214-25.294,1c-2.917-2.938-1.945-7.5-1.945-7.5S202.197,218.8,215.911,220.373z"></path></g><g><path d="M211.197,223.059c0,0-5.955,4.27-5.057,12.247c0.899,7.978,8.539,11.011,14.27,10.562c5.73-0.45,12.247-5.843,9.326-19.438C224.23,220.025,214.118,221.373,211.197,223.059z"></path><path style="fill:#A2D7DD;" d="M212.659,225.281c0,0-4.722,3.385-4.009,9.71c0.712,6.325,6.771,8.73,11.313,8.374s9.709-4.632,7.394-15.411C222.992,222.876,214.975,223.945,212.659,225.281z"></path><ellipse style="opacity:0.8;fill:#FFFFFF;" cx="219.006" cy="241.879" rx="5.337" ry="2.865"></ellipse><path style="fill:#84B9BF;" d="M212.659,225.281c5.619-3.396,11.459-0.537,14.718,2.384c1.349,2.809,0.225,8.989,0.225,8.989s-1.798-5.056-9.214-6.067c-6.227-0.85-9.775,3.258-9.775,3.258S208.166,228.066,212.659,225.281z"></path><path d="M214.175,229.632c0,0-4.102,5.449,1.517,10.843c-3.933-1.124-4.636-3.666-4.831-5.618C210.522,231.486,214.175,229.632,214.175,229.632z"></path><path d="M223.096,229.632c0,0,4.102,5.449-1.517,10.843c3.933-1.124,4.637-3.666,4.832-5.618C226.748,231.486,223.096,229.632,223.096,229.632z"></path><circle cx="218.669" cy="234.238" r="3.202"></circle><circle style="fill:#FFFFFE;" cx="211.366" cy="229.632" r="2.809"></circle></g><g><path d="M189.125,222.5c0,0,25.333-1.493,35.109,4.376C230.5,232,235,237.125,235,237.125s-3.896-13.907-11.516-16.25C210.881,217,189.125,222.5,189.125,222.5z"></path><path d="M190.496,227.25c0,0,5.238,17.065,19.987,19.5c12.117,2,22.392-4.75,22.392-4.75s-15.228,4.417-23.895,2.083C196.296,240.668,190.496,227.25,190.496,227.25z"></path></g><path d="M210.749,216c0,0,12.603,1,16.583,3.25s9.419,7.75,9.419,7.75s-4.344-8.203-9.154-10C219.902,214.125,210.749,216,210.749,216z"></path></g><g><g><path style="fill:#FFFFFF;" d="M308.885,222.667c0,0,1.08,4.672,0.483,6.246c-2.146,4.719-12.167,14.927-19.321,16.837c-7.155,1.91-22.295-2.118-22.295-2.118c-0.953-2.584-2.861-6.736-1.788-9.32c5.843-5.394,10.736-14.321,19.198-14.051C299.232,220.71,308.885,222.667,308.885,222.667z"></path><path style="fill:#E4E0F3;" d="M284.089,220.373c-9.45,1.084-10.964,5.002-16.464,12.627c-1.074,3.034-1,5.75-1,5.75s8.376-7.465,15.904-9.083c10.082-2.167,20.763,0.214,25.294,1c2.917-2.938,1.945-7.5,1.945-7.5S297.803,218.8,284.089,220.373z"></path></g><g><path d="M288.803,223.059c0,0,5.955,4.27,5.057,12.247c-0.899,7.978-8.539,11.011-14.27,10.562c-5.73-0.45-12.247-5.843-9.326-19.438C275.77,220.025,285.882,221.373,288.803,223.059z"></path><path style="fill:#A2D7DD;" d="M287.341,225.281c0,0,4.722,3.385,4.009,9.71c-0.712,6.325-6.771,8.73-11.313,8.374s-9.709-4.632-7.394-15.411C277.008,222.876,285.025,223.945,287.341,225.281z"></path><ellipse style="opacity:0.8;fill:#FFFFFF;" cx="280.994" cy="241.879" rx="5.337" ry="2.865"></ellipse><path style="fill:#84B9BF;" d="M287.341,225.281c-5.619-3.396-11.459-0.537-14.718,2.384c-1.349,2.809-0.225,8.989-0.225,8.989s1.798-5.056,9.214-6.067c6.227-0.85,9.775,3.258,9.775,3.258S291.834,228.066,287.341,225.281z"></path><path d="M285.825,229.632c0,0,4.102,5.449-1.517,10.843c3.933-1.124,4.636-3.666,4.831-5.618C289.478,231.486,285.825,229.632,285.825,229.632z"></path><path d="M276.904,229.632c0,0-4.102,5.449,1.517,10.843c-3.933-1.124-4.637-3.666-4.832-5.618C273.252,231.486,276.904,229.632,276.904,229.632z"></path><circle cx="281.331" cy="234.238" r="3.202"></circle><circle style="fill:#FFFFFE;" cx="274.319" cy="229.632" r="2.809"></circle></g><g><path d="M310.875,222.5c0,0-25.332-1.493-35.109,4.376C269.5,232,265,237.125,265,237.125s3.896-13.907,11.516-16.25C289.119,217,310.875,222.5,310.875,222.5z"></path><path d="M309.504,227.25c0,0-5.238,17.065-19.987,19.5c-12.116,2-22.392-4.75-22.392-4.75s15.229,4.417,23.895,2.083C303.704,240.668,309.504,227.25,309.504,227.25z"></path></g><path d="M289.252,216c0,0-12.604,1-16.583,3.25S263.25,227,263.25,227s4.344-8.203,9.154-10C280.098,214.125,289.252,216,289.252,216z"></path></g></g></g></svg>