<svg xmlns="http://www.w3.org/2000/svg" width="500" height="500" version="1.1"><g id="x024"><g><g><g><path style="fill:#FFFFFF;" d="M199.891,224.538c0,0-2.007,13.591,4.634,19.151c6.64,5.558,12.354,3.705,12.354,3.705l9.729-0.617c0,0,8.494-5.561,7.104-21.312c-3.398-2.163-4.325-3.244-4.325-3.244L199.891,224.538z"></path><path style="fill:#E4E0F3;" d="M233.727,231.905c0.176-1.927,0.195-4.066-0.014-6.44c-3.398-2.163-4.325-3.244-4.325-3.244l-29.497,2.316c0,0-0.582,3.956-0.077,8.473C210.802,231.593,222.632,230.315,233.727,231.905z"></path></g><g><path d="M231.028,223.458c0,0,1.334,8.339-1.137,15.907c-1.488,4.558-6.177,6.949-11.892,6.949c-5.713,0-10.12-5.381-11.427-11.893c-1.335-6.639-0.408-11.119-0.408-11.119S224.695,220.214,231.028,223.458z"></path><path style="fill:#A2D7DD;" d="M228.655,223.765c0,0,1.215,6.795,0,12.046c-1.18,5.097-2.878,8.186-9.983,8.186c-5.868,0-8.342-6.064-9.012-10.347c-0.871-5.56-0.408-10.502-0.408-10.502S225.876,222.375,228.655,223.765z"></path><path style="fill:#84B9BF;" d="M228.655,223.765c-2.779-1.39-19.403-0.617-19.403-0.617s-0.435,4.671,0.341,10.04c5.933-3.177,13.172-3.726,19.578-1.558C229.33,227.536,228.655,223.765,228.655,223.765z"></path><ellipse style="fill:#1E1E1E;" cx="218.677" cy="232.414" rx="7.027" ry="8.803"></ellipse><ellipse style="fill:#FFFFFE;" cx="211.55" cy="238.669" rx="2.934" ry="1.93"></ellipse></g><g><path style="opacity:0.5;" d="M201.839,244.77c0,0,1.854,5.095,11.429,5.25c9.576,0.154,13.127-3.089,13.127-3.089l-16.216,0.309L201.839,244.77z"></path><path d="M228.655,223.765c0,0,4.324,1.854,9.318,6.024c-0.669-3.397-5.765-8.031-5.765-8.031s3.397,0.31,5.096,0.927c-4.787-2.625-8.957-3.243-9.884-3.243c-13.689,1.699-23.881,1.082-31.35,1.545c-0.927,1.853,0.262,14.692,3.552,20.076c4.6,7.526,11.885,9.015,25.974,6.055c1.523-0.319,1.649-0.772,0.169-0.653c-13.206,1.055-20.941-0.854-24.136-9.881c-2.083-5.889-0.309-11.736-0.309-11.736S211.878,226.083,228.655,223.765z"></path><path d="M199.342,220.851c-0.462-0.037-9.336,0.476-10.144,0.875c2.236,2.972,8.179,6.093,8.179,6.093L199.342,220.851z"></path><path d="M212.187,248.444c0,0-12.556-3.197-15.29-9.266C198.441,249.525,212.187,248.444,212.187,248.444z"></path></g><path d="M234.061,216.971c0,0-9.73-1.39-18.687-0.771C218.309,213.728,231.589,213.882,234.061,216.971z"></path></g><g><g><path style="fill:#FFFFFF;" d="M301.109,224.538c0,0,2.008,13.591-4.634,19.151c-6.641,5.558-12.354,3.705-12.354,3.705l-9.731-0.617c0,0-8.492-5.561-7.103-21.312c3.397-2.163,4.324-3.244,4.324-3.244L301.109,224.538z"></path><path style="fill:#E4E0F3;" d="M267.273,231.905c-0.178-1.927-0.194-4.066,0.015-6.44c3.397-2.163,4.324-3.244,4.324-3.244l29.497,2.316c0,0,0.581,3.956,0.077,8.473C290.197,231.593,278.369,230.315,267.273,231.905z"></path></g><g><path d="M269.972,223.458c0,0-1.335,8.339,1.137,15.907c1.488,4.558,6.178,6.949,11.892,6.949s10.122-5.381,11.429-11.893c1.334-6.639,0.407-11.119,0.407-11.119S276.304,220.214,269.972,223.458z"></path><path style="fill:#A2D7DD;" d="M272.343,223.765c0,0-1.214,6.795,0,12.046c1.181,5.097,2.88,8.186,9.984,8.186c5.869,0,8.343-6.064,9.012-10.347c0.872-5.56,0.408-10.502,0.408-10.502S275.124,222.375,272.343,223.765z"></path><path style="fill:#84B9BF;" d="M272.343,223.765c2.781-1.39,19.404-0.617,19.404-0.617s0.435,4.671-0.341,10.04c-5.934-3.177-13.171-3.726-19.578-1.558C271.67,227.536,272.343,223.765,272.343,223.765z"></path><ellipse style="fill:#1E1E1E;" cx="281.323" cy="232.414" rx="7.027" ry="8.803"></ellipse><ellipse style="fill:#FFFFFE;" cx="274.296" cy="238.669" rx="2.935" ry="1.93"></ellipse></g><g><path style="opacity:0.5;" d="M299.16,244.77c0,0-1.853,5.095-11.428,5.25c-9.575,0.154-13.127-3.089-13.127-3.089l16.215,0.309L299.16,244.77z"></path><path d="M272.343,223.765c0,0-4.323,1.854-9.316,6.024c0.669-3.397,5.766-8.031,5.766-8.031s-3.397,0.31-5.097,0.927c4.788-2.625,8.957-3.243,9.885-3.243c13.688,1.699,23.882,1.082,31.35,1.545c0.926,1.853-0.262,14.692-3.552,20.076c-4.599,7.526-11.884,9.015-25.975,6.055c-1.523-0.319-1.648-0.772-0.169-0.653c13.207,1.055,20.943-0.854,24.137-9.881c2.083-5.889,0.309-11.736,0.309-11.736S289.122,226.083,272.343,223.765z"></path><path d="M301.657,220.851c0.463-0.037,9.336,0.476,10.146,0.875c-2.237,2.972-8.18,6.093-8.18,6.093L301.657,220.851z"></path><path d="M288.813,248.444c0,0,12.558-3.197,15.29-9.266C302.558,249.525,288.813,248.444,288.813,248.444z"></path></g><path d="M266.938,216.971c0,0,9.73-1.39,18.687-0.771C282.692,213.728,269.41,213.882,266.938,216.971z"></path></g></g></g></svg>