<svg xmlns="http://www.w3.org/2000/svg" width="500" height="500" version="1.1"><g id="x025"><g><g><g><path style="fill:#FFFFFF;" d="M269.667,223.833c0,0-3.667,5.5-2.667,12.167s6.167,11.333,6.167,11.333s7.166,1.833,12.333,1s9.583-3.333,9.583-3.333s3.751-2.167,6.251-6.5c2-7.167,2-16.5-6.667-18.833S273.834,217.5,269.667,223.833z"></path><path style="fill:#E4E0F3;" d="M294.667,219.667c-8.667-2.333-20.833-2.166-25,4.167c0,0-1.507,2.272-2.324,5.658c11.659-3.795,25.504-1.349,34.634,6.24C303.199,229.111,302.251,221.708,294.667,219.667z"></path></g><path d="M272.667,221.667c0,0-4.668,4.5-4.334,12.167s4.168,12.667,8.334,14.167c4.833,1.833,12.167,0.333,13.5-0.833c2.5-2.167,5.717-5.503,6-13.167c0.333-9-4.667-13.333-4.667-13.333S279.834,217.5,272.667,221.667z"></path><g><path style="fill:#A2D7DD;" d="M274.244,223.727c0,0-3.899,3.76-3.621,10.165c0.279,6.405,3.482,10.582,6.963,11.835c4.037,1.531,10.164,0.278,11.278-0.696c2.088-1.81,4.775-4.598,5.013-11c0.277-7.519-3.899-11.139-3.899-11.139S280.231,220.246,274.244,223.727z"></path><ellipse style="opacity:0.8;fill:#FFFFFF;" cx="282.333" cy="243.584" rx="6" ry="3.083"></ellipse><path style="fill:#84B9BF;" d="M289.978,222.892c0,0-9.746-2.646-15.733,0.835c0,0-3.899,3.76-3.621,10.165c0.078,1.799,0.394,3.415,0.875,4.848c2.135-4.285,7.36-6.513,12.002-5.739c3.645,0.911,7.074,2.452,9.926,4.608c0.238-1.051,0.401-2.23,0.451-3.577C294.154,226.512,289.978,222.892,289.978,222.892z"></path></g><ellipse style="fill:#FFFFFE;" cx="274.833" cy="228" rx="3.833" ry="4.5"></ellipse><g><path d="M273.167,247.333c0,0,3.33,2.529,10.416,2.333c9.084-0.25,11.5-4.667,11.5-4.667s-7,2.833-11.833,2.833S273.167,247.333,273.167,247.333z"></path><g><path d="M265.333,228.167c0,0,3.166-8.833,9.5-11.5c3.5-1,14.5-3.5,26.167,3.333c4.833,5.167,5.333,14,5.333,14s-4.334,5.333-6,6.333c1.667-3.333,2-7,1.167-9.833s-4.999-7.5-6.833-8.167s-14.166-3.167-19-1.5S265.333,228.167,265.333,228.167z"></path><path d="M277.5,218.25c0,0-8.667,2.167-11.667,4.833c0.167-1.417,7.084-6.75,12.167-7C277.5,217.583,277.5,218.25,277.5,218.25z"></path><path d="M300.5,221.417c0,0,4,1.75,5.667,3.583c-1.333-2.833-6.083-6-8.833-6.833C297.25,219.667,300.5,221.417,300.5,221.417z"></path></g></g><path d="M267.334,217c0,0,6.166-5.417,21.25-4.5C285,209.667,270.084,211.167,267.334,217z"></path></g><g><g><path style="fill:#FFFFFF;" d="M230.333,223.833c0,0,3.667,5.5,2.667,12.167s-6.167,11.333-6.167,11.333s-7.166,1.833-12.333,1S204.917,245,204.917,245s-3.751-2.167-6.251-6.5c-2-7.167-2-16.5,6.667-18.833S226.166,217.5,230.333,223.833z"></path><path style="fill:#E4E0F3;" d="M205.333,219.667c8.667-2.333,20.833-2.166,25,4.167c0,0,1.507,2.272,2.324,5.658c-11.659-3.795-25.504-1.349-34.634,6.24C196.801,229.111,197.749,221.708,205.333,219.667z"></path></g><path d="M227.333,221.667c0,0,4.668,4.5,4.334,12.167S227.499,246.5,223.333,248c-4.833,1.833-12.167,0.333-13.5-0.833c-2.5-2.167-5.717-5.503-6-13.167c-0.333-9,4.667-13.333,4.667-13.333S220.166,217.5,227.333,221.667z"></path><g><path style="fill:#A2D7DD;" d="M225.756,223.727c0,0,3.899,3.76,3.621,10.165c-0.279,6.405-3.482,10.582-6.963,11.835c-4.037,1.531-10.164,0.278-11.278-0.696c-2.088-1.81-4.775-4.598-5.013-11c-0.277-7.519,3.899-11.139,3.899-11.139S219.769,220.246,225.756,223.727z"></path><ellipse style="opacity:0.8;fill:#FFFFFF;" cx="217.667" cy="243.584" rx="6" ry="3.083"></ellipse><path style="fill:#84B9BF;" d="M210.022,222.892c0,0,9.746-2.646,15.733,0.835c0,0,3.899,3.76,3.621,10.165c-0.078,1.799-0.394,3.415-0.875,4.848c-2.135-4.285-7.36-6.513-12.002-5.739c-3.645,0.911-7.074,2.452-9.926,4.608c-0.238-1.051-0.401-2.23-0.451-3.577C205.846,226.512,210.022,222.892,210.022,222.892z"></path><ellipse cx="281.833" cy="234.167" rx="4" ry="5.167"></ellipse><ellipse cx="218.167" cy="234.167" rx="4" ry="5.167"></ellipse></g><ellipse style="fill:#FFFFFE;" cx="210.667" cy="228" rx="3.833" ry="4.5"></ellipse><g><path d="M226.833,247.333c0,0-3.33,2.529-10.416,2.333c-9.084-0.25-11.5-4.667-11.5-4.667s7,2.833,11.833,2.833S226.833,247.333,226.833,247.333z"></path><g><path d="M234.667,228.167c0,0-3.166-8.833-9.5-11.5c-3.5-1-14.5-3.5-26.167,3.333c-4.833,5.167-5.333,14-5.333,14s4.334,5.333,6,6.333c-1.667-3.333-2-7-1.167-9.833s4.999-7.5,6.833-8.167s14.166-3.167,19-1.5S234.667,228.167,234.667,228.167z"></path><path d="M222.5,218.25c0,0,8.667,2.167,11.667,4.833c-0.167-1.417-7.084-6.75-12.167-7C222.5,217.583,222.5,218.25,222.5,218.25z"></path><path d="M199.5,221.417c0,0-4,1.75-5.667,3.583c1.333-2.833,6.083-6,8.833-6.833C202.75,219.667,199.5,221.417,199.5,221.417z"></path></g></g><path d="M232.666,217c0,0-6.166-5.417-21.25-4.5C215,209.667,229.916,211.167,232.666,217z"></path></g></g></g></svg>