<svg xmlns="http://www.w3.org/2000/svg" width="500" height="500" version="1.1"><g id="x026"><g><g><g><path style="fill:#FFFFFF;" d="M268.583,229.333c0,0-1.667,11.833,6,17c7.834,0.5,19-0.833,19-0.833s6-3.333,8.167-6.667c2.5-5.333,3.333-7.667,3.333-7.667s-3.166-11.833-23.833-9C271.417,223,268.583,229.333,268.583,229.333z"></path><path style="fill:#E4E0F3;" d="M281.25,222.167c-9.833,0.833-12.667,7.167-12.667,7.167s-0.258,1.843-0.102,4.388c10.879-5.213,24.941-3.809,33.988,3.559c1.939-4.231,2.613-6.114,2.613-6.114S301.917,219.333,281.25,222.167z"></path></g><g><g><path d="M271.75,227.115c0,0-3.167,3.359-2.167,8.857c1,5.497,4.334,9.009,7.167,9.925c5.667,0.611,14.333-0.153,14.333-0.153s4.667-2.749,4.667-10.842c0-8.236-2.833-10.537-2.833-10.537S278.25,220.548,271.75,227.115z"></path><g><path style="fill:#A2D7DD;" d="M275.583,225.333c0,0-3.167,4.5-3,9.333s2.333,9.333,10,9.333s9.667-2.5,9.667-10.333s-4.5-11.167-4.5-11.167s-8.167-0.667-12.167,2.333"></path><path style="fill:#84B9BF;" d="M287.75,222.5c0,0-8.167-0.667-12.167,2.333v0.5c0,0-3.167,4.5-3,9.333c0.042,1.205,0.208,2.389,0.553,3.488c3.461-6.528,12.761-7.689,18.947-4.154c0.052,0.052,0.105,0.106,0.158,0.159c0.002-0.167,0.009-0.321,0.009-0.493C292.25,225.833,287.75,222.5,287.75,222.5z"></path><ellipse cx="281.917" cy="234.333" rx="4.833" ry="5"></ellipse></g></g><path style="fill:#FFFFFE;" d="M278.417,231.917c0,1.611-4.25,2.917-4.25,2.917s-4.25-1.306-4.25-2.917c0-1.611,4.25-2.917,4.25-2.917S278.417,230.306,278.417,231.917z"></path><ellipse style="opacity:0.8;fill:#FFFFFF;" cx="282.666" cy="241.583" rx="5.083" ry="2.25"></ellipse></g><g><path d="M263.083,232.833c0,0,3.666-7.167,8-10.667c5.167-2.833,20.833-4.833,33,0.833c6.667,6,4.5,10.5,4.5,10.5l-8.833,7.833c0,0,4.834-5.667,3.667-9.667s-7-6.333-7-6.333s-14.167-2.5-23,1C268.083,229.833,263.083,232.833,263.083,232.833z"></path><path d="M272.917,223.833c0,0-6.667,1.833-10.167,5c3.167-5.167,8.833-8.167,13.333-8.5C275.583,222.5,272.917,223.833,272.917,223.833z"></path><path d="M302.417,225.167c0,0,7.5,1.167,10,4c-3.834-5.167-10.668-8.167-15.334-8.5C297.25,222.833,302.417,225.167,302.417,225.167z"></path></g><path d="M266.25,220.833c0,0,11.334-7.5,29.167-3.333C286.25,213,272.75,213.667,266.25,220.833z"></path><path d="M273.917,246c0,0,0.5,0.833,9,0.833s10.5-1.833,10.5-1.833S278.084,245,273.917,246z"></path></g><g><g><path style="fill:#FFFFFF;" d="M231.417,229.333c0,0,1.667,11.833-6,17c-7.834,0.5-19-0.833-19-0.833s-6-3.333-8.167-6.667c-2.5-5.333-3.333-7.667-3.333-7.667s3.166-11.833,23.833-9C228.583,223,231.417,229.333,231.417,229.333z"></path><path style="fill:#E4E0F3;" d="M218.75,222.167c9.833,0.833,12.667,7.167,12.667,7.167s0.258,1.843,0.102,4.388c-10.879-5.213-24.941-3.809-33.988,3.559c-1.939-4.231-2.613-6.114-2.613-6.114S198.083,219.333,218.75,222.167z"></path></g><g><g><path d="M228.25,227.115c0,0,3.167,3.359,2.167,8.857c-1,5.497-4.334,9.009-7.167,9.925c-5.667,0.611-14.333-0.153-14.333-0.153s-4.667-2.749-4.667-10.842c0-8.236,2.833-10.537,2.833-10.537S221.75,220.548,228.25,227.115z"></path><g><path style="fill:#A2D7DD;" d="M224.417,225.333c0,0,3.167,4.5,3,9.333s-2.333,9.333-10,9.333s-9.667-2.5-9.667-10.333s4.5-11.167,4.5-11.167s8.167-0.667,12.167,2.333"></path><path style="fill:#84B9BF;" d="M212.25,222.5c0,0,8.167-0.667,12.167,2.333v0.5c0,0,3.167,4.5,3,9.333c-0.042,1.205-0.208,2.389-0.553,3.488c-3.461-6.528-12.761-7.689-18.947-4.154c-0.052,0.052-0.105,0.106-0.158,0.159c-0.002-0.167-0.009-0.321-0.009-0.493C207.75,225.833,212.25,222.5,212.25,222.5z"></path><ellipse cx="218.083" cy="234.333" rx="4.833" ry="5"></ellipse></g></g><path style="fill:#FFFFFE;" d="M204.983,231.917c0,1.611,4.25,2.917,4.25,2.917s4.25-1.306,4.25-2.917c0-1.611-4.25-2.917-4.25-2.917S204.983,230.306,204.983,231.917z"></path><ellipse style="opacity:0.8;fill:#FFFFFF;" cx="217.333" cy="241.583" rx="5.083" ry="2.25"></ellipse></g><g><path d="M236.917,232.833c0,0-3.666-7.167-8-10.667c-5.167-2.833-20.833-4.833-33,0.833c-6.667,6-4.5,10.5-4.5,10.5l8.833,7.833c0,0-4.834-5.667-3.667-9.667s7-6.333,7-6.333s14.167-2.5,23,1C231.917,229.833,236.917,232.833,236.917,232.833z"></path><path d="M227.083,223.833c0,0,6.667,1.833,10.167,5c-3.167-5.167-8.833-8.167-13.333-8.5C224.417,222.5,227.083,223.833,227.083,223.833z"></path><path d="M197.583,225.167c0,0-7.5,1.167-10,4c3.834-5.167,10.668-8.167,15.334-8.5C202.75,222.833,197.583,225.167,197.583,225.167z"></path></g><path d="M233.75,220.833c0,0-11.334-7.5-29.167-3.333C213.75,213,227.25,213.667,233.75,220.833z"></path><path d="M226.083,246c0,0-0.5,0.833-9,0.833s-10.5-1.833-10.5-1.833S221.916,245,226.083,246z"></path></g></g></g></svg>