<svg xmlns="http://www.w3.org/2000/svg" width="500" height="500" version="1.1"><g id="x028"><g><g><g><path style="fill:#FFFFFF;" d="M268.058,231.022c0,0-1.771,9.168,5.227,16.89c6.997,0.322,25.334-4.021,25.334-4.021s7.722-8.847,5.791-21.394C298.941,221.211,275.618,221.693,268.058,231.022z"></path><path style="fill:#E4E0F3;" d="M304.391,230.669c0.389-2.475,0.473-5.22,0.019-8.172c-5.468-1.286-28.791-0.804-36.352,8.525c0,0-0.339,1.764-0.132,4.394C279.058,230.73,292.217,228.731,304.391,230.669z"></path></g><g><path d="M281.971,223.181c-6.394,0.362-10.737,2.292-10.737,2.292s-3.257,5.67-2.292,10.737s3.981,10.254,13.994,9.53c9.867-0.713,11.581-8.686,11.22-14.114c-0.361-5.417-3.137-7.842-3.137-7.842S288.364,222.819,281.971,223.181z"></path><path style="fill:#A2D7DD;" d="M281.869,225.497c-5.061,0.286-8.497,1.814-8.497,1.814s-2.578,4.487-1.814,8.496c0.764,4.01,3.15,8.115,11.074,7.542c7.809-0.564,9.165-6.874,8.88-11.17c-0.287-4.286-3.036-8.256-3.036-8.256S286.928,225.211,281.869,225.497z"></path><ellipse style="opacity:0.8;fill:#FFFFFF;" cx="281.89" cy="240.594" rx="4.987" ry="2.493"></ellipse><path style="fill:#84B9BF;" d="M291.512,232.18c-0.287-4.286-3.036-8.256-3.036-8.256s-1.548,1.287-6.606,1.573c-5.061,0.286-8.497,1.814-8.497,1.814s-2.578,4.487-1.814,8.496c0.049,0.255,0.104,0.51,0.167,0.764c5.097-4.797,13.007-4.763,19.813-3.119C291.544,233.016,291.539,232.587,291.512,232.18z"></path><ellipse cx="281.069" cy="233.401" rx="3.7" ry="4.343"></ellipse><ellipse style="fill:#FFFFFE;" cx="273.848" cy="231.586" rx="3.056" ry="3.458"></ellipse></g><g><g><path d="M262.548,235.245c0,0,6.108-9.601,7.601-10.496c4.825-2.896,18.698-5.912,38.242-4.705c-0.121,6.997-2.292,22.56-11.943,26.058c-9.987,3.62-18.417,2.131-24.208,0.523c0,0,20.589,2.251,25.294-3.901c6.715-8.324,6.876-18.096,5.911-18.699c-0.965-0.603-24.007,0.241-31.849,4.464C267.735,231.264,262.548,235.245,262.548,235.245z"></path><path d="M274.129,225.353c0,0-8.444,2.896-10.375,4.705c2.051-3.499,6.636-5.791,10.255-6.876C273.405,224.388,274.129,225.353,274.129,225.353z"></path></g><path d="M268.339,221.733c0,0,11.099-4.463,27.867-6.152C288.485,213.651,271.233,216.305,268.339,221.733z"></path></g></g><g><g><path style="fill:#FFFFFF;" d="M231.942,231.022c0,0,1.77,9.168-5.227,16.89c-6.997,0.322-25.334-4.021-25.334-4.021s-7.721-8.847-5.791-21.394C201.059,221.211,224.381,221.693,231.942,231.022z"></path><path style="fill:#E4E0F3;" d="M195.609,230.669c-0.389-2.475-0.473-5.22-0.019-8.172c5.468-1.286,28.791-0.804,36.352,8.525c0,0,0.339,1.764,0.132,4.394C220.942,230.73,207.782,228.731,195.609,230.669z"></path></g><g><path d="M218.029,223.181c6.394,0.362,10.737,2.292,10.737,2.292s3.257,5.67,2.292,10.737c-0.965,5.067-3.981,10.254-13.994,9.53c-9.867-0.713-11.582-8.686-11.22-14.114c0.361-5.417,3.137-7.842,3.137-7.842S211.635,222.819,218.029,223.181z"></path><path style="fill:#A2D7DD;" d="M218.131,225.497c5.06,0.286,8.497,1.814,8.497,1.814s2.579,4.487,1.814,8.496c-0.763,4.01-3.15,8.115-11.074,7.542c-7.809-0.564-9.165-6.874-8.879-11.17c0.286-4.286,3.036-8.256,3.036-8.256S213.071,225.211,218.131,225.497z"></path><ellipse style="opacity:0.8;fill:#FFFFFF;" cx="218.109" cy="240.594" rx="4.987" ry="2.493"></ellipse><path style="fill:#84B9BF;" d="M208.488,232.18c0.286-4.286,3.036-8.256,3.036-8.256s1.547,1.287,6.607,1.573c5.06,0.286,8.497,1.814,8.497,1.814s2.579,4.487,1.814,8.496c-0.048,0.255-0.104,0.51-0.167,0.764c-5.097-4.797-13.006-4.763-19.813-3.119C208.455,233.016,208.461,232.587,208.488,232.18z"></path><ellipse cx="218.931" cy="233.401" rx="3.7" ry="4.343"></ellipse><ellipse style="fill:#FFFFFE;" cx="210.549" cy="231.586" rx="3.056" ry="3.458"></ellipse></g><g><g><path d="M237.452,235.245c0,0-6.108-9.601-7.6-10.496c-4.826-2.896-18.699-5.912-38.242-4.705c0.121,6.997,2.292,22.56,11.943,26.058c9.988,3.62,18.417,2.131,24.208,0.523c0,0-20.589,2.251-25.293-3.901c-6.715-8.324-6.876-18.096-5.912-18.699c0.965-0.603,24.007,0.241,31.849,4.464C232.264,231.264,237.452,235.245,237.452,235.245z"></path><path d="M225.871,225.353c0,0,8.444,2.896,10.375,4.705c-2.051-3.499-6.635-5.791-10.254-6.876C226.594,224.388,225.871,225.353,225.871,225.353z"></path></g><path d="M231.661,221.733c0,0-11.099-4.463-27.868-6.152C211.515,213.651,228.766,216.305,231.661,221.733z"></path></g></g></g></g></svg>