<svg xmlns="http://www.w3.org/2000/svg" width="500" height="500" version="1.1"><g id="x029"><g><g><g><path style="fill:#FFFFFF;" d="M270.729,230.167c0,0-1.333,9.667,4.167,15.667c4.333,1.667,18-1,21-2.167c5.5-5.667,10.501-17.333,10.667-20.833C301.896,221.833,275.729,225.167,270.729,230.167z"></path><path style="fill:#E4E0F3;" d="M304.433,229.775c1.268-2.99,2.066-5.583,2.131-6.942c-4.667-1-30.834,2.333-35.834,7.333c0,0-0.338,2.469,0.035,5.684C281.49,231.65,292.986,229.786,304.433,229.775z"></path></g><g><path d="M272.854,229c0,0-2.291,3.667-1.458,8.833s7.667,8,13.5,6.833s10.999-5.833,10.333-12s-3.166-8.333-3.166-8.333S276.646,226.333,272.854,229z"></path><g><path style="fill:#A2D7DD;" d="M275.529,228.449c0,0-1.966,4.051-1.083,8.561c0.747,3.814,5.694,5.942,10.026,5.075c4.333-0.867,8.17-4.333,7.675-8.913c-0.494-4.581-2.352-8.19-2.352-8.19S278.345,226.468,275.529,228.449z"></path><path style="fill:#84B9BF;" d="M292.147,233.172c-0.494-4.581-2.352-8.19-2.352-8.19s-11.451,1.485-14.267,3.466c0,0-1.82,3.768-1.159,8.081c3.415-4.455,10.404-4.181,15.359-2.529c0.686,0.229,1.53,0.406,2.422,0.614C292.194,234.147,292.201,233.667,292.147,233.172z"></path><circle cx="282.813" cy="234.583" r="3.917"></circle></g><ellipse style="opacity:0.8;fill:#FFFFFF;" cx="283.063" cy="240.333" rx="4.333" ry="2"></ellipse><path style="fill:#FFFFFE;" d="M277.981,233.469c0.297,1.396-3.13,3.308-3.13,3.308s-3.909-0.351-4.206-1.746c-0.297-1.395,3.13-3.307,3.13-3.307S277.685,232.074,277.981,233.469z"></path></g><g><path d="M263.729,235.125c0,0,3.125-1,9.125-6.125c9.25-1.625,21.5-3.375,27.125-5.5c2-0.625,14.625-1.25,14.625-1.25s-9.125-3.625-14.5-3.625c-4.353,0.483-14.511,3.504-23.625,5.25c-5.021,0.962-9.989,1.436-12.875,1.125c2.75,1.625,4.125,2.375,5.125,3.125C266.854,231.5,263.729,235.125,263.729,235.125z"></path><path d="M303.979,219.375c0,0,4.5,13.5-9.375,24.875c9-3,14.75-10.375,15.375-22.625C307.354,221.25,303.979,219.375,303.979,219.375z"></path><path d="M298.854,223c0,0,13.125,2.625,16.875,5.125c-3.75-6-10.375-8-10.75-7.875S298.854,223,298.854,223z"></path><path d="M274.531,245.826c0,0,9.595,3.019,18.481-1.375C288.127,248.739,279.753,249.53,274.531,245.826z"></path></g><path d="M266.229,220c0,0,22.25-3.625,25.25-4.875c-2.625,2.125-7.667,3.944-13.25,4.875C272.229,221,266.229,220,266.229,220z"></path></g><g><g><path style="fill:#FFFFFF;" d="M229.271,230.167c0,0,1.333,9.667-4.167,15.667c-4.333,1.667-18-1-21-2.167c-5.5-5.667-10.501-17.333-10.667-20.833C198.104,221.833,224.271,225.167,229.271,230.167z"></path><path style="fill:#E4E0F3;" d="M195.567,229.775c-1.268-2.99-2.066-5.583-2.131-6.942c4.667-1,30.834,2.333,35.834,7.333c0,0,0.338,2.469-0.035,5.684C218.51,231.65,207.014,229.786,195.567,229.775z"></path></g><g><path d="M227.146,229c0,0,2.291,3.667,1.458,8.833s-7.667,8-13.5,6.833s-10.999-5.833-10.333-12s3.166-8.333,3.166-8.333S223.354,226.333,227.146,229z"></path><g><path style="fill:#A2D7DD;" d="M224.471,228.449c0,0,1.966,4.051,1.083,8.561c-0.747,3.814-5.694,5.942-10.026,5.075c-4.333-0.867-8.17-4.333-7.675-8.913c0.494-4.581,2.352-8.19,2.352-8.19S221.655,226.468,224.471,228.449z"></path><path style="fill:#84B9BF;" d="M207.853,233.172c0.494-4.581,2.352-8.19,2.352-8.19s11.451,1.485,14.267,3.466c0,0,1.82,3.768,1.159,8.081c-3.415-4.455-10.404-4.181-15.359-2.529c-0.686,0.229-1.53,0.406-2.422,0.614C207.806,234.147,207.799,233.667,207.853,233.172z"></path><circle cx="217.187" cy="234.583" r="3.917"></circle></g><ellipse style="opacity:0.8;fill:#FFFFFF;" cx="216.937" cy="240.333" rx="4.333" ry="2"></ellipse><path style="fill:#FFFFFE;" d="M211.188,233.469c0.297,1.396-3.13,3.308-3.13,3.308s-3.909-0.351-4.206-1.746c-0.297-1.395,3.13-3.307,3.13-3.307S210.891,232.074,211.188,233.469z"></path></g><g><path d="M236.271,235.125c0,0-3.125-1-9.125-6.125c-9.25-1.625-21.5-3.375-27.125-5.5c-2-0.625-14.625-1.25-14.625-1.25s9.125-3.625,14.5-3.625c4.353,0.483,14.511,3.504,23.625,5.25c5.021,0.962,9.989,1.436,12.875,1.125c-2.75,1.625-4.125,2.375-5.125,3.125C233.146,231.5,236.271,235.125,236.271,235.125z"></path><path d="M196.021,219.375c0,0-4.5,13.5,9.375,24.875c-9-3-14.75-10.375-15.375-22.625C192.646,221.25,196.021,219.375,196.021,219.375z"></path><path d="M201.146,223c0,0-13.125,2.625-16.875,5.125c3.75-6,10.375-8,10.75-7.875S201.146,223,201.146,223z"></path><path d="M225.469,245.826c0,0-9.595,3.019-18.481-1.375C211.873,248.739,220.247,249.53,225.469,245.826z"></path></g><path d="M233.771,220c0,0-22.25-3.625-25.25-4.875c2.625,2.125,7.667,3.944,13.25,4.875C227.771,221,233.771,220,233.771,220z"></path></g></g></g></svg>