<svg xmlns="http://www.w3.org/2000/svg" width="500" height="500" version="1.1"><g id="x030"><g><g><g><path style="fill:#FFFFFF;" d="M193.772,226.33c0,0,1.395,19.985,20.726,21.668c16.091,1.402,19.786-10.362,19.786-10.362l-12.248-12.248C222.037,225.388,200.839,222.561,193.772,226.33z"></path><path style="fill:#E4E0F3;" d="M195.076,231.772c0,0,23.217-1.549,38.524,6.707c-2.58-7.91-9.287-13.758-9.287-13.758l-29.064-0.86C195.249,223.861,194.045,229.194,195.076,231.772z"></path></g><g><path d="M224.921,226.33l-19.208-0.093c-0.698,1.592-1.514,4.925-1.514,6.768c0,7.274,6.044,13.173,13.5,13.173s13.499-5.899,13.499-13.173c0-0.482-0.03-0.958-0.082-1.426L224.921,226.33z"></path><path style="fill:#A2D7DD;" d="M227.671,234.12c0-0.355-0.022-0.707-0.061-1.053l-4.393-4.4l-14.016-1.118c-0.517,1.175-1.474,5.211-1.474,6.571c0,2.836,1.251,5.382,3.236,7.159c-0.111-1.012-0.037-0.961,0.068,0c1.776,1.593,4.136,2.572,6.737,2.572c2.773,0,5.28-1.106,7.087-2.89c-0.005-0.017-0.015-0.034-0.021-0.052C226.587,239.155,227.671,236.762,227.671,234.12z"></path><ellipse style="opacity:0.8;fill:#FFFFFF;" cx="217.681" cy="241.452" rx="4.747" ry="2.678"></ellipse><path style="fill:#84B9BF;" d="M227.61,233.067l-4.393-4.4l-14.016-1.118c-0.442,1.006-1.205,4.102-1.417,5.828c6.371-0.812,13.81,0.201,19.426,3.656c0.297-0.919,0.46-1.896,0.46-2.912C227.671,233.765,227.648,233.414,227.61,233.067z"></path><circle cx="218.214" cy="233.977" r="4.858"></circle><ellipse style="fill:#FFFFFE;" cx="217.716" cy="238.834" rx="1.629" ry="1.106"></ellipse><ellipse style="fill:#FFFFFE;" cx="205.761" cy="236.175" rx="3.783" ry="2.366"></ellipse></g><g><g><path d="M234.03,234.352c-0.172,1.892,0.254,4.697,0.254,4.697s-10.835-11.306-15.075-11.778c-4.24-0.47-35.33-3.295-39.098-1.883c13.189-5.653,30.621-6.125,42.396-4.711C227.935,223.869,232.351,229.976,234.03,234.352z"></path><path d="M220.959,222.486c0,0,8.256,2.063,15.564,5.072c-4.558-4.471-14.016-7.48-17.628-7.137C221.132,221.71,220.959,222.486,220.959,222.486z"></path><path d="M195.656,224.445c0,0,0,9.892,1.885,12.719c-5.653-3.77-6.124-10.834-6.124-12.248C192.36,223.504,195.656,224.445,195.656,224.445z"></path></g><g><path d="M199.634,239.425c-0.688-0.946-2.495,1.635-2.064,2.15C198,242.091,200.321,240.37,199.634,239.425z"></path><path d="M201.313,241.034c-0.794-0.858-2.284,1.916-1.797,2.377C200.003,243.873,202.107,241.893,201.313,241.034z"></path></g></g><path d="M211.556,211.342c0,0,14.024,0.85,16.998,2.549c2.976,1.7,8.668,8.583,8.668,8.583s-3.993-9.008-9.092-11.133C224.894,209.994,211.556,211.342,211.556,211.342z"></path></g><g><g><path style="fill:#FFFFFF;" d="M306.227,226.33c0,0-1.395,19.985-20.726,21.668c-16.091,1.402-19.786-10.362-19.786-10.362l12.248-12.248C277.963,225.388,299.16,222.561,306.227,226.33z"></path><path style="fill:#E4E0F3;" d="M304.924,231.772c0,0-23.218-1.549-38.524,6.707c2.579-7.91,9.286-13.758,9.286-13.758l29.064-0.86C304.75,223.861,305.955,229.194,304.924,231.772z"></path></g><g><path d="M275.078,226.33l19.208-0.093c0.698,1.592,1.515,4.925,1.515,6.768c0,7.274-6.045,13.173-13.5,13.173c-7.457,0-13.5-5.899-13.5-13.173c0-0.482,0.031-0.958,0.082-1.426L275.078,226.33z"></path><path style="fill:#A2D7DD;" d="M272.328,234.12c0-0.355,0.023-0.707,0.062-1.053l4.393-4.4l14.017-1.118c0.516,1.175,1.474,5.211,1.474,6.571c0,2.836-1.251,5.382-3.235,7.159c0.11-1.012,0.037-0.961-0.068,0c-1.775,1.593-4.137,2.572-6.737,2.572c-2.772,0-5.28-1.106-7.087-2.89c0.004-0.017,0.015-0.034,0.02-0.052C273.412,239.155,272.328,236.762,272.328,234.12z"></path><ellipse style="opacity:0.8;fill:#FFFFFF;" cx="282.318" cy="241.452" rx="4.746" ry="2.678"></ellipse><path style="fill:#84B9BF;" d="M272.39,233.067l4.393-4.4l14.017-1.118c0.441,1.006,1.205,4.102,1.416,5.828c-6.371-0.812-13.811,0.201-19.426,3.656c-0.297-0.919-0.461-1.896-0.461-2.912C272.328,233.765,272.352,233.414,272.39,233.067z"></path><circle cx="281.784" cy="233.977" r="4.858"></circle><ellipse style="fill:#FFFFFE;" cx="282.284" cy="238.834" rx="1.629" ry="1.106"></ellipse><ellipse style="fill:#FFFFFE;" cx="274.238" cy="236.175" rx="3.783" ry="2.366"></ellipse></g><g><g><path d="M265.97,234.352c0.172,1.892-0.255,4.697-0.255,4.697s10.836-11.306,15.075-11.778c4.24-0.47,35.33-3.295,39.099-1.883c-13.189-5.653-30.621-6.125-42.396-4.711C272.064,223.869,267.648,229.976,265.97,234.352z"></path><path d="M279.041,222.486c0,0-8.256,2.063-15.564,5.072c4.558-4.471,14.016-7.48,17.628-7.137C278.867,221.71,279.041,222.486,279.041,222.486z"></path><path d="M304.344,224.445c0,0,0,9.892-1.885,12.719c5.652-3.77,6.123-10.834,6.123-12.248C307.64,223.504,304.344,224.445,304.344,224.445z"></path></g><g><path d="M300.365,239.425c0.688-0.946,2.494,1.635,2.064,2.15C302,242.091,299.678,240.37,300.365,239.425z"></path><path d="M298.687,241.034c0.794-0.858,2.284,1.916,1.798,2.377C299.996,243.873,297.893,241.893,298.687,241.034z"></path></g></g><path d="M288.443,211.342c0,0-14.023,0.85-16.998,2.549c-2.975,1.7-8.668,8.583-8.668,8.583s3.994-9.008,9.093-11.133C275.105,209.994,288.443,211.342,288.443,211.342z"></path></g></g></g></svg>