<svg xmlns="http://www.w3.org/2000/svg" width="500" height="500" version="1.1"><g id="x031"><g><g><g><path style="fill:#FFFFFF;" d="M266.587,233.333c0,0-0.625,5.917,3.625,9.542c2.834,1.5,21,0,24.875-2.375c5.875-4.75,8.834-12.167,8.834-12.167s-12-3.667-20.668-2.333C274.587,227.333,266.587,233.333,266.587,233.333z"></path><path style="fill:#E4E0F3;" d="M283.253,226c-8.666,1.333-16.666,7.333-16.666,7.333s-0.133,1.453,0.5,2.792c10.115-1.231,20.625-3.625,34-2.875c2.047-3.555,4.583-7.25,4.583-7.25S291.921,224.667,283.253,226z"></path></g><g><path d="M270.253,231.5c0,0-2.916,8.875,6.584,12.167c0,0,5.375,1.458,11.584-0.5c5.291-2.917,7.749-8.167,6.249-15.917C289.336,225.25,279.421,225.333,270.253,231.5z"></path><g><g><path style="fill:#A2D7DD;" d="M272.921,231c0,0-1.459,7.25,3,10.333c9.041,1.917,12.541-0.708,12.541-0.708s5.625-4.25,3.75-12.5C287.712,225.958,277.921,227.5,272.921,231z"></path><path style="fill:#84B9BF;" d="M292.358,233.826c0.313-1.62,0.351-3.515-0.146-5.701c-4.5-2.167-14.291-0.625-19.291,2.875c0,0-0.421,2.127-0.106,4.564C278.865,232.879,285.59,232.925,292.358,233.826z"></path></g><ellipse transform="matrix(0.9998 -0.0187 0.0187 0.9998 -4.4455 5.3304)" style="opacity:0.8;fill:#FFFFFF;" cx="282.627" cy="240.228" rx="5.167" ry="1.836"></ellipse></g><path style="fill:#FFFFFE;" d="M276.452,234.375c0,1.007-2.824,1.824-2.824,1.824s-2.824-0.816-2.824-1.824c0-1.008,2.824-1.824,2.824-1.824S276.452,233.368,276.452,234.375z"></path></g><g><g><path d="M263.337,237c0,0,4.25-8.125,14-11.75c13.208-3.125,25.833-1.875,32.958-4.25c-3.875,13.375-12.04,18.25-14.708,19.25c7.208-6.375,7.583-13.625,7.583-13.625s-14.958,0.75-25.167,2.708C273.087,231,263.337,237,263.337,237z"></path><path d="M264.587,231.25c0,0,10.375-8.75,12.875-8.875c8-0.667,24.958-3,24.958-3s-19.958,0.375-25.958,1.375C270.837,223.375,264.587,231.25,264.587,231.25z"></path></g><path d="M270.045,243.125c0,0,7.743,1.549,13,1.125c7.75-0.625,11.125-3.375,11.125-3.375s-6.875,2-11.125,2S270.045,243.125,270.045,243.125z"></path><path d="M295.545,241.875c0,0,7.5-3.75,9.5-8.5C304.42,236.875,300.795,241.125,295.545,241.875z"></path></g></g><g><g><path style="fill:#FFFFFF;" d="M233.413,233.333c0,0,0.625,5.917-3.625,9.542c-2.834,1.5-21,0-24.875-2.375c-5.875-4.75-8.834-12.167-8.834-12.167s12-3.667,20.668-2.333C225.413,227.333,233.413,233.333,233.413,233.333z"></path><path style="fill:#E4E0F3;" d="M216.747,226c8.666,1.333,16.666,7.333,16.666,7.333s0.133,1.453-0.5,2.792c-10.115-1.231-20.625-3.625-34-2.875c-2.047-3.555-4.583-7.25-4.583-7.25S208.079,224.667,216.747,226z"></path></g><g><path d="M229.747,231.5c0,0,2.916,8.875-6.584,12.167c0,0-5.375,1.458-11.584-0.5c-5.291-2.917-7.749-8.167-6.249-15.917C210.664,225.25,220.579,225.333,229.747,231.5z"></path><g><g><path style="fill:#A2D7DD;" d="M227.079,231c0,0,1.459,7.25-3,10.333c-9.041,1.917-12.541-0.708-12.541-0.708s-5.625-4.25-3.75-12.5C212.288,225.958,222.079,227.5,227.079,231z"></path><path style="fill:#84B9BF;" d="M207.642,233.826c-0.313-1.62-0.351-3.515,0.146-5.701c4.5-2.167,14.291-0.625,19.291,2.875c0,0,0.421,2.127,0.106,4.564C221.135,232.879,214.41,232.925,207.642,233.826z"></path><ellipse cx="281.837" cy="234.666" rx="3.084" ry="3.542"></ellipse><ellipse cx="218.163" cy="234.666" rx="3.084" ry="3.542"></ellipse></g><ellipse transform="matrix(-0.9998 -0.0187 0.0187 -0.9998 430.2131 484.4803)" style="opacity:0.8;fill:#FFFFFF;" cx="217.373" cy="240.228" rx="5.167" ry="1.836"></ellipse></g><path style="fill:#FFFFFE;" d="M205.381,234.375c0,1.007,2.824,1.824,2.824,1.824s2.824-0.816,2.824-1.824c0-1.008-2.824-1.824-2.824-1.824S205.381,233.368,205.381,234.375z"></path></g><g><g><path d="M236.663,237c0,0-4.25-8.125-14-11.75c-13.208-3.125-25.833-1.875-32.958-4.25c3.875,13.375,12.04,18.25,14.708,19.25c-7.208-6.375-7.583-13.625-7.583-13.625s14.958,0.75,25.167,2.708C226.913,231,236.663,237,236.663,237z"></path><path d="M235.413,231.25c0,0-10.375-8.75-12.875-8.875c-8-0.667-24.958-3-24.958-3s19.958,0.375,25.958,1.375C229.163,223.375,235.413,231.25,235.413,231.25z"></path></g><path d="M229.955,243.125c0,0-7.743,1.549-13,1.125c-7.75-0.625-11.125-3.375-11.125-3.375s6.875,2,11.125,2S229.955,243.125,229.955,243.125z"></path><path d="M204.455,241.875c0,0-7.5-3.75-9.5-8.5C195.58,236.875,199.205,241.125,204.455,241.875z"></path></g></g></g></g></svg>