<svg xmlns="http://www.w3.org/2000/svg" width="500" height="500" version="1.1"><g id="x032"><g><g><g><path style="fill:#FFFFFF;" d="M195.05,222.68c0,0-1.327,20.9,20.403,23.886c14.823,2.037,19.075-13.602,19.075-13.602s-6.972-5.782-13.269-7.298C212.302,223.509,195.05,222.68,195.05,222.68z"></path><g><path style="fill:#E4E0F3;" d="M221.259,225.666c-8.958-2.157-26.209-2.986-26.209-2.986s-0.19,3.046,0.779,6.976c12.894-0.007,25.505,2.13,37.712,5.919c0.692-1.54,0.986-2.611,0.986-2.611S227.557,227.182,221.259,225.666z"></path></g></g><g><g><path style="fill:#A2D7DD;" d="M218.36,232.883c-5.304-0.663-8.707,1.505-10.422,3.069c0.883,4.128,3.672,7.346,9.583,7.346c5.901,0,9.208-1.84,10.576-5.646C226.225,235.794,223.029,233.467,218.36,232.883z"></path><path style="fill:#84B9BF;" d="M228.068,228.489c-2.126-1.211-4.532-2.341-6.853-2.9c-2.919-0.703-6.708-1.264-10.506-1.706c-1.124,1.347-3.101,4.358-3.101,8.929c0,1.113,0.107,2.202,0.329,3.237c1.716-1.564,5.118-3.732,10.422-3.069c4.669,0.583,7.865,2.911,9.736,4.769c0.345-0.962,0.572-2.042,0.679-3.257C228.99,232.059,228.593,230.025,228.068,228.489z"></path></g><g><path d="M230.975,230.612c-0.943-0.644-2.052-1.355-3.253-2.039c0.506,1.482,0.889,3.443,0.682,5.792c-0.513,5.814-3.728,8.59-10.859,8.59s-9.562-4.853-9.562-10.21c0-4.41,1.907-7.316,2.992-8.615c-0.968-0.113-1.937-0.219-2.89-0.315c-0.986,0.997-2.939,3.73-2.696,9.578c0.324,7.779,5.024,11.832,12.642,11.832s12.966-4.538,13.128-11.345C231.192,232.452,231.113,231.397,230.975,230.612z"></path></g><circle cx="219.247" cy="233.798" r="4.457"></circle><ellipse style="fill:#FFFFFE;" cx="209.361" cy="230.938" rx="3.282" ry="2.795"></ellipse></g><path d="M226.786,224.414c-5.305-1.945-36.543-5.348-37.604-6.159c0.758,3.565,3.404,6.807,3.404,6.807c0,0.039,0.81,17.503,18.314,22.042c21.302,5.523,25.283-15.883,25.283-15.883S232.09,226.359,226.786,224.414z M215.438,246.294c-21.232-2.917-19.935-23.338-19.935-23.338s16.855,0.81,25.607,2.917c6.153,1.481,12.966,7.131,12.966,7.131S229.921,248.284,215.438,246.294z"></path></g><g><g><path style="fill:#FFFFFF;" d="M304.949,222.68c0,0,1.327,20.9-20.402,23.886c-14.823,2.037-19.075-13.602-19.075-13.602s6.971-5.782,13.27-7.298C287.698,223.509,304.949,222.68,304.949,222.68z"></path><g><path style="fill:#E4E0F3;" d="M278.741,225.666c8.957-2.157,26.208-2.986,26.208-2.986s0.189,3.046-0.779,6.976c-12.893-0.007-25.505,2.13-37.712,5.919c-0.693-1.54-0.986-2.611-0.986-2.611S272.442,227.182,278.741,225.666z"></path></g></g><g><g><path style="fill:#A2D7DD;" d="M281.64,232.883c5.304-0.663,8.708,1.505,10.423,3.069c-0.883,4.128-3.672,7.346-9.582,7.346c-5.901,0-9.21-1.84-10.576-5.646C273.774,235.794,276.971,233.467,281.64,232.883z"></path><path style="fill:#84B9BF;" d="M271.932,228.489c2.126-1.211,4.532-2.341,6.853-2.9c2.92-0.703,6.709-1.264,10.505-1.706c1.125,1.347,3.102,4.358,3.102,8.929c0,1.113-0.106,2.202-0.328,3.237c-1.715-1.564-5.119-3.732-10.423-3.069c-4.669,0.583-7.865,2.911-9.735,4.769c-0.345-0.962-0.572-2.042-0.679-3.257C271.011,232.059,271.407,230.025,271.932,228.489z"></path></g><g><path d="M269.025,230.612c0.942-0.644,2.052-1.355,3.252-2.039c-0.505,1.482-0.889,3.443-0.682,5.792c0.513,5.814,3.729,8.59,10.86,8.59c7.131,0,9.561-4.852,9.561-10.21c0-4.41-1.906-7.316-2.991-8.615c0.968-0.113,1.937-0.218,2.89-0.315c0.986,0.997,2.939,3.73,2.696,9.578c-0.325,7.779-5.024,11.832-12.642,11.832c-7.618,0-12.967-4.538-13.128-11.345C268.808,232.452,268.888,231.397,269.025,230.612z"></path></g><circle cx="280.753" cy="233.798" r="4.457"></circle><ellipse style="fill:#FFFFFE;" cx="273.298" cy="230.938" rx="3.282" ry="2.795"></ellipse></g><path d="M263.816,231.221c0,0,3.98,21.406,25.283,15.883c17.504-4.538,18.314-22.002,18.314-22.042c0,0,2.646-3.242,3.403-6.807c-1.061,0.811-32.299,4.214-37.604,6.159S263.816,231.221,263.816,231.221z M265.925,233.004c0,0,6.812-5.649,12.964-7.131c8.752-2.107,25.608-2.917,25.608-2.917s1.297,20.421-19.935,23.338C270.079,248.284,265.925,233.004,265.925,233.004z"></path></g></g></g></svg>