<svg xmlns="http://www.w3.org/2000/svg" width="500" height="500" version="1.1"><g id="x033"><g><g><g><path style="fill:#FFFFFF;" d="M193.438,223.167c0,0-1.012,20.929,21.334,24c15.243,2.094,21-10.5,21-10.5s-8.357-8.774-14.834-10.333C211.728,224.116,193.438,223.167,193.438,223.167z"></path><g><path style="fill:#E4E0F3;" d="M219.772,226.5c-9.212-2.218-26.008-2.117-26.008-2.117s-0.195,3.132,0.802,7.174c13.259-0.007,26.986,2.713,39.539,6.609c0.526-1.169-0.164-1.673,0.257-3.208C234.362,234.959,226.248,228.059,219.772,226.5z"></path></g></g><g><g><path style="fill:#A2D7DD;" d="M218.504,233.318c-4.544-0.568-7.458,1.29-8.928,2.629c0.756,3.536,3.146,6.292,8.208,6.292c5.055,0,7.889-1.576,9.06-4.836C225.241,235.812,222.504,233.818,218.504,233.318z"></path><path style="fill:#84B9BF;" d="M226.82,229.555c-1.821-1.038-3.882-2.005-5.87-2.484c-2.5-0.602-5.746-1.083-8.999-1.461c-0.963,1.153-2.656,3.733-2.656,7.648c0,0.954,0.091,1.886,0.281,2.772c1.47-1.339,4.384-3.197,8.928-2.629c4,0.5,6.737,2.493,8.34,4.085c0.295-0.824,0.49-1.75,0.582-2.791C227.609,232.612,227.27,230.871,226.82,229.555z"></path></g><g><path d="M229.31,231.373c-0.808-0.551-2.758-1.161-3.786-1.747c0.434,1.27,0.762,2.95,0.584,4.961c-0.439,4.98-3.969,7.525-8.669,6.912c-4.699-0.613-6.823-3.71-6.824-8.3c0-3.778,1.634-6.267,2.563-7.379c-0.829-0.096-2.659-0.187-3.476-0.27c-0.845,0.854-2.518,3.195-2.309,8.204c0.277,6.664,4.304,10.135,10.828,10.135c6.525,0,11.106-3.887,11.245-9.718C229.496,232.949,229.428,232.046,229.31,231.373z"></path></g><circle cx="219.263" cy="234.102" r="3.818"></circle><ellipse style="fill:#FFFFFE;" cx="213.71" cy="232.625" rx="3.375" ry="2.875"></ellipse></g><path d="M223.772,225.167c-5.455-1.819-34.951-4.575-36.042-5.333c0.779,3.334,3.5,6.366,3.5,6.366c0,0.037,0.833,16.371,18.833,20.615c21.906,5.166,26.875-10.148,26.875-10.148S229.227,226.985,223.772,225.167z M214.73,246.057c-21.735-3.428-20.5-21.828-20.5-21.828s18.016,0.55,26.708,3.604c6.167,2.167,13.5,9.333,13.5,9.333S228.105,248.167,214.73,246.057z"></path></g><g><g><path style="fill:#FFFFFF;" d="M306.561,223.167c0,0,1.012,20.929-21.334,24c-15.242,2.094-21-10.5-21-10.5s8.357-8.774,14.834-10.333C288.271,224.116,306.561,223.167,306.561,223.167z"></path><g><path style="fill:#E4E0F3;" d="M280.227,226.5c9.212-2.218,26.008-2.117,26.008-2.117s0.195,3.132-0.801,7.174c-13.26-0.007-26.987,2.713-39.54,6.609c-0.526-1.169,0.165-1.673-0.257-3.208C265.637,234.959,273.751,228.059,280.227,226.5z"></path></g></g><g><g><path style="fill:#A2D7DD;" d="M281.496,233.318c4.543-0.568,7.457,1.29,8.928,2.629c-0.757,3.536-3.146,6.292-8.209,6.292c-5.055,0-7.889-1.576-9.059-4.836C274.758,235.812,277.496,233.818,281.496,233.318z"></path><path style="fill:#84B9BF;" d="M273.18,229.555c1.82-1.038,3.881-2.005,5.869-2.484c2.5-0.602,5.746-1.083,9-1.461c0.963,1.153,2.656,3.733,2.656,7.648c0,0.954-0.092,1.886-0.281,2.772c-1.471-1.339-4.385-3.197-8.928-2.629c-4,0.5-6.738,2.493-8.34,4.085c-0.296-0.824-0.49-1.75-0.582-2.791C272.391,232.612,272.729,230.871,273.18,229.555z"></path></g><g><path d="M270.689,231.373c0.808-0.551,2.758-1.161,3.787-1.747c-0.434,1.27-0.762,2.95-0.584,4.961c0.438,4.98,3.969,7.525,8.668,6.912s6.824-3.71,6.824-8.3c0-3.778-1.634-6.267-2.563-7.379c0.828-0.096,2.658-0.187,3.475-0.27c0.845,0.854,2.518,3.195,2.309,8.204c-0.277,6.664-4.303,10.135-10.828,10.135s-11.106-3.887-11.245-9.718C270.503,232.949,270.571,232.046,270.689,231.373z"></path></g><circle cx="280.736" cy="234.102" r="3.818"></circle><ellipse style="fill:#FFFFFE;" cx="277.333" cy="232.625" rx="3.375" ry="2.875"></ellipse></g><path d="M263.061,236.667c0,0,4.969,15.314,26.875,10.148c18-4.244,18.834-20.579,18.834-20.615c0,0,2.721-3.032,3.5-6.366c-1.092,0.758-30.588,3.514-36.043,5.333C270.772,226.985,263.061,236.667,263.061,236.667z M265.561,237.167c0,0,7.333-7.167,13.5-9.333c8.692-3.054,26.709-3.604,26.709-3.604s1.234,18.4-20.5,21.828C271.894,248.167,265.561,237.167,265.561,237.167z"></path></g></g></g></svg>