<svg xmlns="http://www.w3.org/2000/svg" width="500" height="500" version="1.1"><g id="x034"><g><g id="lefteye_8_"><path style="fill:#FFFFFF;" d="M264.813,231.68c0,0-0.712,6.162,1.185,8.059c3.556,2.844,11.378,7.348,23.702,4.266c12.324-3.08,16.827-18.723,16.827-18.723s-11.528-4.127-22.279-1.896C271.687,225.992,264.813,231.68,264.813,231.68z"></path><g><path d="M262.915,232.506c0,0,7.015-8.769,22.478-10.764c19.627-2.532,25.642,4.748,25.642,4.748s-13.929-3.798-26.592-1.582C271.779,227.125,262.915,232.506,262.915,232.506z"></path><path d="M265.132,238.837c0,0,6.331,7.598,19.944,5.065c13.612-2.533,18.993-11.713,18.993-11.713s-2.848,12.979-18.677,13.93C269.563,247.068,265.132,238.837,265.132,238.837z"></path></g><g><ellipse cx="279.665" cy="232.702" rx="4.366" ry="7.782"></ellipse><ellipse cx="279.665" cy="232.702" rx="4.366" ry="7.782"></ellipse><g><ellipse style="fill:#A2D7DD;" cx="279.665" cy="232.702" rx="2.631" ry="4.689"></ellipse><path style="fill:#84B9BF;" d="M279.665,228.012c-1.454,0-2.632,2.1-2.632,4.69c0,0.077,0.011,0.149,0.013,0.226c1.604-0.71,3.492-0.834,5.24-0.407C282.23,230.016,281.083,228.012,279.665,228.012z"></path></g><ellipse style="fill:#FFFFFF;" cx="276.634" cy="233.499" rx="3.092" ry="2.014"></ellipse></g></g><g id="lefteye_1_"><path style="fill:#FFFFFF;" d="M235.187,231.68c0,0,0.712,6.162-1.184,8.059c-3.556,2.844-11.377,7.348-23.702,4.266c-12.325-3.08-16.827-18.723-16.827-18.723s11.528-4.127,22.279-1.896C228.314,225.992,235.187,231.68,235.187,231.68z"></path><g><path d="M237.085,232.506c0,0-7.014-8.769-22.478-10.764c-19.626-2.532-25.641,4.748-25.641,4.748s13.929-3.798,26.591-1.582C228.22,227.125,237.085,232.506,237.085,232.506z"></path><path d="M234.868,238.837c0,0-6.331,7.598-19.944,5.065c-13.612-2.533-18.993-11.713-18.993-11.713s2.848,12.979,18.676,13.93C230.437,247.068,234.868,238.837,234.868,238.837z"></path></g><g><ellipse cx="220.335" cy="232.702" rx="4.365" ry="7.782"></ellipse><ellipse cx="220.335" cy="232.702" rx="4.365" ry="7.782"></ellipse><g><ellipse style="fill:#A2D7DD;" cx="220.335" cy="232.702" rx="2.632" ry="4.689"></ellipse><path style="fill:#84B9BF;" d="M220.335,228.012c1.453,0,2.631,2.1,2.631,4.69c0,0.077-0.011,0.149-0.012,0.226c-1.604-0.71-3.493-0.834-5.24-0.407C217.769,230.016,218.917,228.012,220.335,228.012z"></path></g><ellipse style="fill:#FFFFFF;" cx="217.436" cy="233.499" rx="3.092" ry="2.014"></ellipse></g></g></g></g></svg>