<svg xmlns="http://www.w3.org/2000/svg" width="500" height="500" version="1.1"><g id="x035"><g><g><path style="fill:#FFFFFF;" d="M233.584,234.333c0,0-2.834,7.167-5.667,9.167c-2.833,1.5-21.499,0.667-22.833,0.5c-3.5-4.333-8.834-14.667-8.834-14.667s12-3.667,20.667-2.333S233.584,234.333,233.584,234.333z"></path><path style="fill:#E4E0F3;" d="M216.917,227c8.667,1.333,16.667,7.333,16.667,7.333s-0.39,0.984-1.022,2.323c-10.115-1.231-22.171-2.739-32.634-0.612c-2.048-3.555-3.678-6.711-3.678-6.711S208.25,225.667,216.917,227z"></path><g><path d="M229.917,232.5c0,0,1.5,9.5-5.5,12.167c0,0-12.834,0.333-14.667-0.5c-2.833-3.333-5.499-6.5-4.666-14.5C210.417,227.667,220.75,226.333,229.917,232.5z"></path><g><path style="fill:#A2D7DD;" d="M227.25,232c0,0-0.834,9-3,10.333c-5.333,0.833-13.5-0.167-13.5-0.167s-5.166-6-2.666-12.167C212.584,227.833,222.25,228.5,227.25,232z"></path><ellipse style="opacity:0.8;fill:#FFFFFF;" cx="217.417" cy="240.792" rx="5.167" ry="1.836"></ellipse><path style="fill:#84B9BF;" d="M208.084,230c4.5-2.167,14.166-1.5,19.166,2c0,0-0.229,2.433-0.749,4.956c-2.915-2.857-8.513-2.67-12.084-1.956c-2.085,0.596-4.256,1.464-6.254,2.593C207.376,235.433,206.976,232.734,208.084,230z"></path><ellipse cx="218" cy="235.666" rx="3.083" ry="4.833"></ellipse></g><path style="fill:#FFFFFE;" d="M213.417,236.25c0,1.426-4,2.583-4,2.583s-4-1.157-4-2.583c0-1.427,4-2.583,4-2.583S213.417,234.824,213.417,236.25z"></path></g><g><path d="M238.417,236.5c0,0-10.667-10.833-23-11.333s-23,4.5-24,5.167c4,4.167,11.833,13.167,14.5,14.167c-5.333-7.333-6.5-13.667-6.5-13.667s11-1.833,17-1.5S238.417,236.5,238.417,236.5z"></path><path d="M236.917,229.833c0,0-5.084-3.583-14.833-7.5c-8-0.667-23,1-23,1s16.833-4,22.833-3S236.917,229.833,236.917,229.833z"></path></g></g><g><path style="fill:#FFFFFF;" d="M266.415,234.333c0,0,2.834,7.167,5.668,9.167c2.832,1.5,21.498,0.667,22.832,0.5c3.5-4.333,8.834-14.667,8.834-14.667s-12-3.667-20.666-2.333C274.415,228.333,266.415,234.333,266.415,234.333z"></path><path style="fill:#E4E0F3;" d="M283.083,227c-8.668,1.333-16.668,7.333-16.668,7.333s0.391,0.984,1.023,2.323c10.115-1.231,22.17-2.739,32.633-0.612c2.049-3.555,3.678-6.711,3.678-6.711S291.749,225.667,283.083,227z"></path><g><path d="M270.083,232.5c0,0-1.5,9.5,5.5,12.167c0,0,12.834,0.333,14.666-0.5c2.834-3.333,5.5-6.5,4.666-14.5C289.583,227.667,279.249,226.333,270.083,232.5z"></path><g><path style="fill:#A2D7DD;" d="M272.749,232c0,0,0.834,9,3,10.333c5.334,0.833,13.5-0.167,13.5-0.167s5.166-6,2.666-12.167C287.415,227.833,277.749,228.5,272.749,232z"></path><ellipse style="opacity:0.8;fill:#FFFFFF;" cx="282.582" cy="240.792" rx="5.167" ry="1.836"></ellipse><path style="fill:#84B9BF;" d="M291.915,230c-4.5-2.167-14.166-1.5-19.166,2c0,0,0.229,2.433,0.75,4.956c2.914-2.857,8.512-2.67,12.084-1.956c2.084,0.596,4.256,1.464,6.254,2.593C292.624,235.433,293.024,232.734,291.915,230z"></path><ellipse cx="282" cy="235.666" rx="3.084" ry="4.833"></ellipse></g><path style="fill:#FFFFFE;" d="M278.417,236.25c0,1.426-4,2.583-4,2.583s-4-1.157-4-2.583c0-1.427,4-2.583,4-2.583S278.417,234.824,278.417,236.25z"></path></g><g><path d="M261.583,236.5c0,0,10.666-10.833,23-11.333c12.332-0.5,23,4.5,24,5.167c-4,4.167-11.834,13.167-14.5,14.167c5.332-7.333,6.5-13.667,6.5-13.667s-11-1.833-17-1.5S261.583,236.5,261.583,236.5z"></path><path d="M263.083,229.833c0,0,5.083-3.583,14.832-7.5c8-0.667,23,1,23,1s-16.832-4-22.832-3S263.083,229.833,263.083,229.833z"></path></g></g></g></g></svg>