<svg xmlns="http://www.w3.org/2000/svg" width="500" height="500" version="1.1"><g id="x038"><g><g><path d="M236.987,227.833c0,0-9.167-6.167-21.563-3.708C223.987,224.333,236.987,227.833,236.987,227.833z"></path><g><path d="M201.65,242.18c0,0,10.555,0.174,14.695-0.093c4.14-0.267,13.558-0.448,13.558-0.448s-4.112,1.775-13.532,1.767C208.68,243.399,201.65,242.18,201.65,242.18z"></path><g><path style="fill:#FFFFFF;" d="M233.743,235.879c0,0-1.655,4.759-4.138,5.586c-5.382,0.414-26.486,0.828-32.9-0.62c-1.862-3.518-2.69-7.656-2.69-7.656s11.992-3.575,21.727-3.104C228.57,230.706,233.743,235.879,233.743,235.879z"></path><path style="fill:#E4E0F3;" d="M232.759,235.62c0,0,0.466,2.172,0.156,2.793c-2.328-0.776-11.483-4.345-18.158-4.345c-6.673,0-19.398,2.483-19.398,2.483l-0.776-3.569c0,0,12.571-3.725,20.486-2.793c7.914,0.931,15.519,2.328,15.519,2.328L232.759,235.62z"></path></g><g><g><g><path style="fill:#A2D7DD;" d="M223.903,242.625l-15.375,0.125c0,0-7.824-6.354-2.237-11.01c7.139-2.483,21.417,0.207,21.417,0.207S229.8,237.659,223.903,242.625z"></path><ellipse style="opacity:0.8;fill:#FFFFFE;" cx="216.958" cy="240.017" rx="6.622" ry="2.483"></ellipse><path d="M223.5,231.43c0,0,0.775,3.328,0.31,5.966c-0.465,2.638-2.638,2.949-6.207,3.259c-3.57,0.311-5.742-2.707-6.673-5.345c-0.932-2.638,0.776-4.035,0.776-4.035L223.5,231.43z"></path><path d="M229.653,232.5c0,0,1.5,7.625-3.188,9.483c-1.563,0.767-3.438,0.892-3.438,0.892s6.375-4.375,3.375-10.875C227.955,230.448,229.653,232.5,229.653,232.5z"></path><path d="M207.998,231.585c0,0-2.482,1.086-2.328,5.122c0.126,3.238,4.233,6.293,4.233,6.293l-3.5-0.375c0,0-6.32-4.987-1.975-10.264C207.222,231.74,207.998,231.585,207.998,231.585z"></path></g></g><path style="fill:#FFFFFE;" d="M206.902,231.976c-0.793,0.604-0.648,2.29-0.004,3.533c0.644,1.243,1.524,1.01,2.59,1.132c1.064,0.122,6.238-0.841,6.086-2.263C215.42,232.955,209.787,229.782,206.902,231.976z"></path><ellipse style="fill:#FFFFFE;" cx="225.042" cy="236.163" rx="3.259" ry="1.319"></ellipse></g><g><path d="M236.64,237.638c0,0-4.345-6.277-7.139-7.829c-5.181-1.809-8.871-2.862-17.692-2.862s-23.945,4.645-22.727,4.035c1.552,0.931,3.794,3.552,3.794,3.552s2.482,6.207,4.966,7.759c-1.241-3.104-2.173-8.69-2.173-8.69s7.76-1.863,16.761-1.863c9.002,0,16.141,0.931,16.141,0.931L236.64,237.638z"></path><path d="M229.501,232.361c0,0,5.896-0.379,7.139,0.242c-2.483-1.552-9.312-4.345-13.036-4.035C225.155,230.43,229.501,232.361,229.501,232.361z"></path></g></g></g><g><path d="M263.013,227.833c0,0,9.167-6.167,21.563-3.708C276.013,224.333,263.013,227.833,263.013,227.833z"></path><g><path d="M298.351,242.18c0,0-10.556,0.174-14.695-0.093c-4.141-0.267-13.559-0.448-13.559-0.448s4.112,1.775,13.533,1.767C291.321,243.399,298.351,242.18,298.351,242.18z"></path><g><path style="fill:#FFFFFF;" d="M266.257,235.879c0,0,1.656,4.759,4.139,5.586c5.381,0.414,26.486,0.828,32.9-0.62c1.861-3.518,2.689-7.656,2.689-7.656s-11.992-3.575-21.727-3.104C271.431,230.706,266.257,235.879,266.257,235.879z"></path><path style="fill:#E4E0F3;" d="M267.241,235.62c0,0-0.465,2.172-0.156,2.793c2.328-0.776,11.484-4.345,18.158-4.345s19.398,2.483,19.398,2.483l0.777-3.569c0,0-12.572-3.725-20.486-2.793s-15.52,2.328-15.52,2.328L267.241,235.62z"></path></g><g><g><g><path style="fill:#A2D7DD;" d="M276.097,242.625l15.375,0.125c0,0,7.824-6.354,2.238-11.01c-7.139-2.483-21.418,0.207-21.418,0.207S270.2,237.659,276.097,242.625z"></path><ellipse style="opacity:0.8;fill:#FFFFFE;" cx="283.042" cy="240.017" rx="6.622" ry="2.483"></ellipse><path d="M276.501,231.43c0,0-0.775,3.328-0.311,5.966s2.639,2.949,6.207,3.259c3.57,0.311,5.742-2.707,6.674-5.345s-0.777-4.035-0.777-4.035L276.501,231.43z"></path><path d="M270.347,232.5c0,0-1.5,7.625,3.188,9.483c1.563,0.767,3.438,0.892,3.438,0.892s-6.375-4.375-3.375-10.875C272.045,230.448,270.347,232.5,270.347,232.5z"></path><path d="M292.003,231.585c0,0,2.482,1.086,2.328,5.122c-0.127,3.238-4.234,6.293-4.234,6.293l3.5-0.375c0,0,6.32-4.987,1.975-10.264C292.778,231.74,292.003,231.585,292.003,231.585z"></path></g></g><path style="fill:#FFFFFE;" d="M272.24,231.976c-0.794,0.604-0.648,2.29-0.005,3.533c0.645,1.243,1.525,1.01,2.59,1.132s6.239-0.841,6.086-2.263C280.758,232.955,275.125,229.782,272.24,231.976z"></path><ellipse style="fill:#FFFFFE;" cx="290.38" cy="236.163" rx="3.259" ry="1.319"></ellipse></g><g><path d="M263.36,237.638c0,0,4.346-6.277,7.139-7.829c5.181-1.809,8.871-2.862,17.693-2.862c8.82,0,23.944,4.645,22.726,4.035c-1.552,0.931-3.794,3.552-3.794,3.552s-2.482,6.207-4.965,7.759c1.24-3.104,2.172-8.69,2.172-8.69s-7.76-1.863-16.76-1.863c-9.002,0-16.141,0.931-16.141,0.931L263.36,237.638z"></path><path d="M270.499,232.361c0,0-5.896-0.379-7.139,0.242c2.484-1.552,9.313-4.345,13.037-4.035C274.845,230.43,270.499,232.361,270.499,232.361z"></path></g></g></g></g></g></svg>