<svg xmlns="http://www.w3.org/2000/svg" width="500" height="500" version="1.1"><g id="x039"><g><g><path d="M237.403,226.797c0,0-6.396-4.621-7.819-5.687c-4.977,0-14.218-1.066-14.218-1.066s26.657-1.421,23.103-0.356c-3.554,1.067-5.687,0.356-5.687,0.356L237.403,226.797z"></path><g><path style="fill:#E4E0F3;" d="M194.471,236.57c-0.453-2.039-0.651-3.419-0.651-3.419s11.995-2.933,16.927-2.533c4.932,0.399,21.859,4.132,21.859,4.132s0.108,1.235,0.012,2.774C220.149,234.757,207.253,235.118,194.471,236.57z"></path><path style="fill:#FFFFFF;" d="M232.617,237.523c-0.114,1.82-0.518,4.067-1.746,5.223c-6.396,0-19.459-0.4-19.459-0.4s-12.662,0.934-15.728-1.2c-0.522-1.673-0.921-3.26-1.214-4.577C207.253,235.118,220.149,234.757,232.617,237.523z"></path></g><g><path d="M227.673,234.35c0,0,2.399,3.599,0.8,6.797c-6.132,1.333-19.593,1.067-19.593,1.067s-2.934-0.267-3.6-3.866c-0.666-3.599,2.533-6.398,2.533-6.398S224.874,231.55,227.673,234.35z"></path><g><path style="fill:#A2D7DD;" d="M209.487,234.013c0,0-1.6,4.571,0.229,6.628c9.599,1.827,16.455,0,16.455,0s0.457-5.485-0.457-6.628C222.285,232.643,212.915,230.128,209.487,234.013z"></path><path style="fill:#84B9BF;" d="M225.714,234.013c-3.429-1.371-12.799-3.885-16.227,0c0,0-0.696,2.001-0.641,3.952c3.84-0.98,12.981-0.752,17.438-0.124C226.288,236.304,226.18,234.595,225.714,234.013z"></path><ellipse cx="217.942" cy="237.129" rx="3.198" ry="2.533"></ellipse></g><ellipse style="fill:#FFFFFE;" cx="209" cy="236.917" rx="3" ry="1.917"></ellipse></g><g><g><path d="M204.349,244.212c0.536,0.12-1.733,2.933-2.133,2C201.816,245.279,203.149,243.946,204.349,244.212z"></path><path d="M200.216,242.613c0,0-0.932,2.266-1.865,1.599C197.418,243.546,198.218,242.88,200.216,242.613z"></path></g><g><path d="M228.871,242.747c0,0,1.067-1.333,0.534-1.466c-0.534-0.134-23.191-0.134-21.325,0.933C209.946,243.281,228.871,242.747,228.871,242.747z"></path><g><path d="M237.402,234.972c0,0-9.063-4.487-25.058-5.021c-12.479-0.416-25.768,3.6-25.768,3.6l4.265,1.421c0,0-6.044,2.489-8.886,3.555c3.909,1.422,10.662,2.133,10.662,2.133l3.91,1.066c0,0-2.844-7.463-1.065-8.175c1.777-0.711,17.06-1.066,17.06-1.066L237.402,234.972z"></path><path d="M234.915,232.128c0,0-24.879-1.777-30.922-1.066c-5.331,0.354-7.463,0-7.463,0S217.5,226.086,234.915,232.128z"></path></g></g></g></g><g><path d="M262.597,226.797c0,0,6.396-4.621,7.82-5.687c4.976,0,14.217-1.066,14.217-1.066s-26.656-1.421-23.103-0.356c3.554,1.067,5.687,0.356,5.687,0.356L262.597,226.797z"></path><g><path style="fill:#E4E0F3;" d="M305.529,236.57c0.453-2.039,0.651-3.419,0.651-3.419s-11.995-2.933-16.927-2.533c-4.931,0.399-21.858,4.132-21.858,4.132s-0.109,1.235-0.013,2.774C279.851,234.757,292.747,235.118,305.529,236.57z"></path><path style="fill:#FFFFFF;" d="M267.383,237.523c0.114,1.82,0.519,4.067,1.746,5.223c6.397,0,19.459-0.4,19.459-0.4s12.663,0.934,15.728-1.2c0.522-1.673,0.921-3.26,1.214-4.577C292.747,235.118,279.851,234.757,267.383,237.523z"></path></g><g><path d="M272.327,234.35c0,0-2.398,3.599-0.799,6.797c6.131,1.333,19.592,1.067,19.592,1.067s2.934-0.267,3.6-3.866c0.666-3.599-2.533-6.398-2.533-6.398S275.126,231.55,272.327,234.35z"></path><g><path style="fill:#A2D7DD;" d="M290.513,234.013c0,0,1.6,4.571-0.229,6.628c-9.599,1.827-16.455,0-16.455,0s-0.457-5.485,0.457-6.628C277.715,232.643,287.085,230.128,290.513,234.013z"></path><path style="fill:#84B9BF;" d="M274.286,234.013c3.429-1.371,12.799-3.885,16.227,0c0,0,0.696,2.001,0.641,3.952c-3.84-0.98-12.981-0.752-17.438-0.124C273.712,236.304,273.821,234.595,274.286,234.013z"></path><ellipse cx="282.058" cy="237.129" rx="3.198" ry="2.533"></ellipse></g><ellipse style="fill:#FFFFFE;" cx="275" cy="236.917" rx="3" ry="1.917"></ellipse></g><g><g><path d="M295.651,244.212c-0.535,0.12,1.733,2.933,2.133,2C298.185,245.279,296.851,243.946,295.651,244.212z"></path><path d="M299.784,242.613c0,0,0.932,2.266,1.865,1.599C302.583,243.546,301.782,242.88,299.784,242.613z"></path></g><g><path d="M271.129,242.747c0,0-1.067-1.333-0.534-1.466c0.534-0.134,23.191-0.134,21.326,0.933C290.054,243.281,271.129,242.747,271.129,242.747z"></path><g><path d="M262.599,234.972c0,0,9.062-4.487,25.057-5.021c12.479-0.416,25.768,3.6,25.768,3.6l-4.265,1.421c0,0,6.044,2.489,8.886,3.555c-3.909,1.422-10.662,2.133-10.662,2.133l-3.91,1.066c0,0,2.844-7.463,1.065-8.175c-1.776-0.711-17.06-1.066-17.06-1.066L262.599,234.972z"></path><path d="M265.085,232.128c0,0,24.879-1.777,30.922-1.066c5.331,0.354,7.463,0,7.463,0S282.5,226.086,265.085,232.128z"></path></g></g></g></g></g></g></svg>