<svg xmlns="http://www.w3.org/2000/svg" width="500" height="500" version="1.1"><g id="x004"><g><g><g><g><g><path style="fill:#FFFFFF;" d="M198.215,239.866c0,0,5.858,9.973,20.956,9.173c8.804-2.067,12.809-2.829,12.809-20.595c-6.58-5.837-12.304-9.136-12.304-9.136S199.932,219.563,198.215,239.866z"></path><path style="fill:#E4E0F3;" d="M198.501,240.88c0,0,2.862-12.942,18.313-14.212c8.59-0.705,14.879,5.33,14.879,5.33l0.286-7.235c0,0-8.298-6.724-14.879-4.947C210.519,221.593,192.492,225.4,198.501,240.88z"></path></g><g><path d="M210.978,219.502c0,0-4.7,6.219-5.207,13.57c-0.454,6.595,2.771,14.313,10.736,15.76c9.147,1.664,13.335-5.398,14.205-12.582c0.731-6.041-1.132-12.212-1.917-12.906C227.076,221.826,223.798,213.998,210.978,219.502z"></path><g><path style="fill:#A2D7DD;" d="M211.935,221.666c0,0-3.833,5.825-3.833,11.834c0,7,2.946,12.548,10.557,12.548c5.943,0,8.869-4.082,9.61-12.048c0.666-7.167-3.167-12.667-3.167-12.667S217.268,218.166,211.935,221.666z"></path><path style="opacity:0.5;" d="M225.102,221.333c0,0-7.834-3.167-13.167,0.333c0,0-3.833,5.825-3.833,11.834c0,0.664,0.036,1.311,0.091,1.945c2.398-2.853,6.795-4.279,10.242-4.279c3.037,0,6.648,0.866,9.854,2.486C228.8,226.657,225.102,221.333,225.102,221.333z"></path></g><path style="fill:#FFFFFE;" d="M213.059,229.522c-1.912,1.7-4.377,1.712-5.504,0.024c-1.126-1.688-0.489-4.437,1.424-6.137c1.912-1.701,4.377-1.711,5.503-0.023C215.608,225.074,214.972,227.822,213.059,229.522z"></path><path style="fill:#FFFFFE;" d="M215.282,230.165c-0.097,0.56-0.616,0.935-1.161,0.836c-0.545-0.1-0.908-0.635-0.812-1.194c0.096-0.562,0.615-0.936,1.16-0.836C215.014,229.068,215.377,229.604,215.282,230.165z"></path><path style="opacity:0.5;fill:#FFFFFE;" d="M209.707,239.647c0,0,2.396-3.812,8.921-2.89c6.526,0.92,7.863,3.286,7.863,3.286s-3.014,7.413-9.6,5.155C210.305,242.94,209.707,239.647,209.707,239.647z"></path><path style="fill:#1E1E1E;" d="M221.738,233.635c0.119,2.955-1.32,5.416-3.215,5.498c-1.895,0.08-3.528-2.251-3.646-5.207c-0.119-2.957,1.32-5.418,3.215-5.498C219.985,228.346,221.618,230.678,221.738,233.635z"></path><path style="opacity:0.8;fill:#FFFFFF;" d="M224.043,242.871c0.031,1.73-2.381,3.152-5.385,3.177c-3.006,0.024-5.468-1.36-5.498-3.089c-0.032-1.73,2.379-3.152,5.385-3.176C221.55,239.76,224.011,241.143,224.043,242.871z"></path><ellipse style="fill:#FFFFFF;" cx="218.604" cy="240.286" rx="1.502" ry="1.02"></ellipse></g><path style="fill:#FFFFFE;" d="M229.404,242.791c0,0-6.295-3.721-5.149-6.297c0.648-1.461,6.724,1.717,6.438,3.005S230.55,242.647,229.404,242.791z"></path><g><path d="M233.554,226.441l-1.716-3.968l2.86-0.572c0,0-6.992-7.674-16.739-7.674s-23.463,8.675-24.321,18.69c1.859,6.867,7.438,9.873,7.438,9.873s-3.512-5.168-2.575-9.158c1.431-6.092,10.659-13.734,18.457-13.734C224.755,219.898,233.554,226.441,233.554,226.441z"></path><path d="M233.554,226.441l-1.716-3.968l2.86-0.572c0,0-6.992-7.674-16.739-7.674s-23.463,8.675-24.321,18.69c1.859,6.867,7.438,9.873,7.438,9.873s-3.512-5.168-2.575-9.158c1.431-6.092,10.659-13.734,18.457-13.734C224.755,219.898,233.554,226.441,233.554,226.441z"></path><g><path d="M201.8,245.896c-0.86-0.969,1.122-2.119,1.122-2.119S202.883,247.116,201.8,245.896z"></path><path d="M203.952,246.725c-0.86-0.967,1.122-2.119,1.122-2.119S205.035,247.945,203.952,246.725z"></path></g><path d="M211.092,218.035c0,0,6.295-4.823,22.032-1.27c-6.009-3.554-18.027-3.807-23.178-0.508C209.66,216.766,211.092,218.035,211.092,218.035z"></path><path d="M213.381,216.465c0,0-17.741,5.437-20.745,8.727c5.293-6.295,16.168-9.729,22.033-10.586C213.237,215.32,213.381,216.465,213.381,216.465z"></path></g></g></g><g><path d="M202.078,216.465c0,0,10.241-10.025,29.044-8.155C209.09,209.74,202.078,216.465,202.078,216.465z"></path><path d="M224.798,208.768c0,0,4.865,2.718,9.014,5.58c-3.148-3.435-6.725-5.724-6.725-5.724L224.798,208.768z"></path></g></g><g><g><g><g><path style="fill:#FFFFFF;" d="M301.785,239.866c0,0-5.859,9.973-20.957,9.173c-8.803-2.067-12.809-2.829-12.809-20.595c6.581-5.837,12.305-9.136,12.305-9.136S300.068,219.563,301.785,239.866z"></path><path style="fill:#E4E0F3;" d="M301.499,240.88c0,0-2.862-12.942-18.313-14.212c-8.59-0.705-14.879,5.33-14.879,5.33l-0.287-7.235c0,0,8.299-6.724,14.88-4.947C289.48,221.593,307.508,225.4,301.499,240.88z"></path></g><g><path d="M289.022,219.502c0,0,4.7,6.219,5.206,13.57c0.455,6.595-2.771,14.313-10.735,15.76c-9.147,1.664-13.335-5.398-14.205-12.582c-0.731-6.041,1.132-12.212,1.917-12.906C272.924,221.826,276.201,213.998,289.022,219.502z"></path><g><path style="fill:#A2D7DD;" d="M288.064,221.666c0,0,3.834,5.825,3.834,11.834c0,7-2.946,12.548-10.557,12.548c-5.943,0-8.869-4.082-9.61-12.048c-0.667-7.167,3.167-12.667,3.167-12.667S282.732,218.166,288.064,221.666z"></path><path style="opacity:0.5;" d="M274.898,221.333c0,0,7.834-3.167,13.166,0.333c0,0,3.834,5.825,3.834,11.834c0,0.664-0.036,1.311-0.091,1.945c-2.399-2.853-6.796-4.279-10.243-4.279c-3.036,0-6.648,0.866-9.853,2.486C271.199,226.657,274.898,221.333,274.898,221.333z"></path></g><path style="fill:#FFFFFE;" d="M275.76,229.522c-1.912,1.7-4.377,1.712-5.504,0.024c-1.126-1.688-0.488-4.437,1.424-6.137c1.912-1.701,4.377-1.711,5.503-0.023C278.31,225.074,277.673,227.822,275.76,229.522z"></path><path style="fill:#FFFFFE;" d="M277.983,230.165c-0.097,0.56-0.616,0.935-1.161,0.836c-0.545-0.1-0.908-0.635-0.812-1.194c0.097-0.562,0.616-0.936,1.16-0.836C277.715,229.068,278.078,229.604,277.983,230.165z"></path><path style="opacity:0.5;fill:#FFFFFE;" d="M290.293,239.647c0,0-2.396-3.812-8.922-2.89c-6.525,0.92-7.863,3.286-7.863,3.286s3.014,7.413,9.601,5.155C289.695,242.94,290.293,239.647,290.293,239.647z"></path><path style="fill:#1E1E1E;" d="M278.262,233.635c-0.119,2.955,1.32,5.416,3.215,5.498c1.895,0.08,3.527-2.251,3.646-5.207c0.119-2.957-1.32-5.418-3.215-5.498C280.014,228.346,278.381,230.678,278.262,233.635z"></path><path style="opacity:0.8;fill:#FFFFFF;" d="M275.957,242.871c-0.031,1.73,2.381,3.152,5.385,3.177c3.006,0.024,5.467-1.36,5.498-3.089c0.031-1.73-2.379-3.152-5.385-3.176S275.988,241.143,275.957,242.871z"></path><ellipse style="fill:#FFFFFF;" cx="281.306" cy="240.286" rx="1.502" ry="1.02"></ellipse></g><path style="fill:#FFFFFE;" d="M292.105,242.791c0,0-6.295-3.721-5.149-6.297c0.649-1.461,6.724,1.717,6.438,3.005C293.107,240.787,293.251,242.647,292.105,242.791z"></path><g><path d="M266.446,226.441l1.716-3.968l-2.86-0.572c0,0,6.992-7.674,16.739-7.674s23.463,8.675,24.321,18.69c-1.859,6.867-7.438,9.873-7.438,9.873s3.512-5.168,2.574-9.158c-1.43-6.092-10.658-13.734-18.456-13.734S266.446,226.441,266.446,226.441z"></path><path d="M266.446,226.441l1.716-3.968l-2.86-0.572c0,0,6.992-7.674,16.739-7.674s23.463,8.675,24.321,18.69c-1.859,6.867-7.438,9.873-7.438,9.873s3.512-5.168,2.574-9.158c-1.43-6.092-10.658-13.734-18.456-13.734S266.446,226.441,266.446,226.441z"></path><g><path d="M298.2,245.896c0.86-0.969-1.122-2.119-1.122-2.119S297.117,247.116,298.2,245.896z"></path><path d="M296.047,246.725c0.861-0.967-1.121-2.119-1.121-2.119S294.965,247.945,296.047,246.725z"></path></g><path d="M288.908,218.035c0,0-6.295-4.823-22.033-1.27c6.01-3.554,18.027-3.807,23.178-0.508C290.34,216.766,288.908,218.035,288.908,218.035z"></path><path d="M286.619,216.465c0,0,17.74,5.437,20.745,8.727c-5.294-6.295-16.168-9.729-22.034-10.586C286.762,215.32,286.619,216.465,286.619,216.465z"></path></g></g></g><g><path d="M297.922,216.465c0,0-10.241-10.025-29.044-8.155C290.91,209.74,297.922,216.465,297.922,216.465z"></path><path d="M275.201,208.768c0,0-4.864,2.718-9.013,5.58c3.147-3.435,6.724-5.724,6.724-5.724L275.201,208.768z"></path></g></g></g></g></svg>