<svg xmlns="http://www.w3.org/2000/svg" width="500" height="500" version="1.1"><g id="x042"><g><g><path d="M198.969,225.694c0,0,29.363,2.35,36.41,11.745c-0.783,2.741-1.175,4.307-1.175,4.307l-33.277,6.656l-0.783-5.481c0,0,13.642-4.253,21.08-4.645c-9.005-4.306-21.864-4.36-21.864-4.36L198.969,225.694z"></path></g><g id="lefteye_427_"><path d="M301.031,225.694c0,0-29.363,2.35-36.41,11.745c0.782,2.741,1.175,4.307,1.175,4.307l33.277,6.656l0.784-5.481c0,0-13.643-4.253-21.081-4.645c9.005-4.306,21.863-4.36,21.863-4.36L301.031,225.694z"></path></g></g></g></svg>