<svg xmlns="http://www.w3.org/2000/svg" width="500" height="500" version="1.1"><g id="x043"><g><g><path d="M233.867,239.052c0,0-5.218-5.218-9.35-5.653c-4.13-0.436-23.047-3.479-29.353,0.217c4.349,3.044,6.305,5.654,6.305,5.654s24.571,0.87,28.049,1.957C231.91,240.792,233.867,239.052,233.867,239.052z"></path><path d="M233.214,232.095c0,0-8.914-3.261-18.48-5.653C219.952,224.267,230.171,228.181,233.214,232.095z"></path></g><g id="lefteye_48_"><path d="M266.133,239.052c0,0,5.219-5.218,9.35-5.653c4.131-0.436,23.047-3.479,29.353,0.217c-4.348,3.044-6.306,5.654-6.306,5.654s-24.569,0.87-28.048,1.957C268.09,240.792,266.133,239.052,266.133,239.052z"></path><path d="M266.785,232.095c0,0,8.915-3.261,18.481-5.653C280.048,224.267,269.83,228.181,266.785,232.095z"></path></g></g></g></svg>