<svg xmlns="http://www.w3.org/2000/svg" width="500" height="500" version="1.1"><g id="x044"><g><g><g><g id="lefteye_30_"><g><g><g><path style="fill:#FFFFFF;" d="M230.207,247.972c-0.238,0.518-5.359,5.692-13.694,4.917c-8.335-0.776-13.933-4.528-13.933-4.528s-6.429-17.464,0.239-28.332c6.668-10.867,13.335-8.926,13.335-8.926s15.481,2.587,16.673,19.017C234.017,246.549,230.207,247.972,230.207,247.972z"></path></g><g><path style="fill:#E4E0F3;" d="M231.421,234.994c0,0-3.533-14.621-14.146-14.94c-14.145-0.427-16.895,15.794-16.895,15.794s0.116-23.464,15.773-25.392C231.814,208.528,233.385,229.018,231.421,234.994z"></path></g></g></g><g><g><ellipse style="fill:#A2D7DD;" cx="221.743" cy="233.498" rx="9.572" ry="16.049"></ellipse><path style="fill:#84B9BF;" d="M230.919,236.062c0,0-2.833-4.035-9.5-4.219c-6.667-0.184-10.167,4.219-10.167,4.219s0.667-18.527,11-19.261C232.585,216.068,231.753,233.311,230.919,236.062z"></path><g><ellipse cx="222.756" cy="233.219" rx="4.667" ry="7.522"></ellipse></g><path d="M221.742,217.391c4.792-0.002,8.842,7.376,8.842,16.107c0,8.732-4.05,16.108-8.842,16.108s-8.842-7.376-8.842-16.108C212.9,224.767,216.95,217.391,221.742,217.391z M210.246,233.498c0,10.188,5.05,18.169,11.496,18.169c6.447,0,11.496-7.981,11.496-18.169c0-10.188-5.049-18.168-11.496-18.168C215.296,215.33,210.246,223.311,210.246,233.498z"></path></g><g><ellipse style="fill:#FFFFFF;" cx="215.257" cy="235.972" rx="3.864" ry="2.48"></ellipse></g><g style="opacity:0.5;"><ellipse style="fill:#FFFFFF;" cx="221.757" cy="244.593" rx="5.172" ry="3.853"></ellipse></g></g></g></g><g><path d="M203.433,215.904c3.477-4.587,8.491-7.48,12.771-7.372c5.024,0.126,9.014,3.135,12.588,7.968c1.239,1.677,4.5,7,4.334,11.5l-3.667-3.333c-0.556-1.781-1.959-4.737-3-6.167c-2.804-3.848-5.601-6.521-10.054-6.521s-8.014,2.414-11.127,6.521c-2.818,3.719-6.715,11.745-2.25,26.25c0,0,0.798,2.202-0.218,2.514c-1.017,0.313-2.094-0.257-2.406-1.273C195.433,229.845,200.168,220.21,203.433,215.904z"></path><path d="M202.728,243.625c1.125,4,2.971,5.664,2.413,6.442c-0.559,0.78-3.59-0.607-4.786-4.333C200.992,243.133,202.728,243.625,202.728,243.625z"></path><path d="M199.962,232.19c0,0-4.288-3.105-5.955-1.294c-1.666,1.811,5.716,7.503,5.716,7.503L199.962,232.19z"></path><path d="M200.915,221.792c0,0-3.867-3.699-5.742-2.146s4.744,8.265,4.744,8.265L200.915,221.792z"></path><path d="M206.326,213.464c0,0-2.141-5.092-4.435-4.506c-2.295,0.587,1.224,9.649,1.224,9.649L206.326,213.464z"></path></g></g><g id="lefteye"><g><g id="lefteye_62_"><g><g><g><path style="fill:#FFFFFF;" d="M269.793,247.972c0.238,0.518,5.359,5.692,13.694,4.917c8.335-0.776,13.933-4.528,13.933-4.528s6.429-17.464-0.239-28.332c-6.668-10.867-13.335-8.926-13.335-8.926s-15.481,2.587-16.673,19.017C265.983,246.549,269.793,247.972,269.793,247.972z"></path></g><g><path style="fill:#E4E0F3;" d="M268.579,234.994c0,0,3.533-14.621,14.146-14.94c14.145-0.427,16.895,15.794,16.895,15.794s-0.116-23.464-15.773-25.392C268.186,208.528,266.615,229.018,268.579,234.994z"></path></g></g></g><g><g><ellipse style="fill:#A2D7DD;" cx="278.257" cy="233.498" rx="9.572" ry="16.049"></ellipse><path style="fill:#84B9BF;" d="M269.081,236.062c0,0,2.833-4.035,9.5-4.219c6.667-0.184,10.167,4.219,10.167,4.219s-0.667-18.527-11-19.261C267.415,216.068,268.247,233.311,269.081,236.062z"></path><g><ellipse cx="277.244" cy="233.219" rx="4.667" ry="7.522"></ellipse></g><path d="M287.1,233.498c0,8.732-4.05,16.108-8.842,16.108s-8.842-7.376-8.842-16.108c0-8.731,4.05-16.109,8.842-16.107C283.05,217.391,287.1,224.767,287.1,233.498z M278.258,215.33c-6.447,0-11.496,7.98-11.496,18.168c0,10.188,5.049,18.169,11.496,18.169c6.446,0,11.496-7.981,11.496-18.169C289.754,223.311,284.704,215.33,278.258,215.33z"></path></g><g><ellipse style="fill:#FFFFFF;" cx="272.41" cy="235.972" rx="3.864" ry="2.48"></ellipse></g><g style="opacity:0.5;"><ellipse style="fill:#FFFFFF;" cx="278.243" cy="244.593" rx="5.172" ry="3.853"></ellipse></g></g></g></g><g><path d="M296.567,215.904c-3.477-4.587-8.491-7.48-12.771-7.372c-5.024,0.126-9.014,3.135-12.588,7.968c-1.239,1.677-4.5,7-4.334,11.5l3.667-3.333c0.556-1.781,1.959-4.737,3-6.167c2.804-3.848,5.601-6.521,10.054-6.521s8.014,2.414,11.127,6.521c2.818,3.719,6.715,11.745,2.25,26.25c0,0-0.798,2.202,0.218,2.514c1.017,0.313,2.094-0.257,2.406-1.273C304.567,229.845,299.832,220.21,296.567,215.904z"></path><path d="M297.272,243.625c-1.125,4-2.971,5.664-2.413,6.442c0.559,0.78,3.59-0.607,4.786-4.333C299.008,243.133,297.272,243.625,297.272,243.625z"></path><path d="M300.038,232.19c0,0,4.288-3.105,5.955-1.294c1.666,1.811-5.716,7.503-5.716,7.503L300.038,232.19z"></path><path d="M299.085,221.792c0,0,3.867-3.699,5.742-2.146s-4.744,8.265-4.744,8.265L299.085,221.792z"></path><path d="M293.674,213.464c0,0,2.141-5.092,4.435-4.506c2.295,0.587-1.224,9.649-1.224,9.649L293.674,213.464z"></path></g></g></g></g></svg>