<svg xmlns="http://www.w3.org/2000/svg" width="500" height="500" version="1.1"><g id="x045"><g><g id="lefteye_26_"><g id="lefteye_27_"><g><path d="M214.827,250.578c0,0-3.027,5.887-4.711,5.045c-1.681-0.841-1.345-5.551-1.345-5.551L214.827,250.578z"></path><path d="M205.071,249.4c0,0-3.869,2.859-5.046,1.345s0.671-4.542,0.671-4.542L205.071,249.4z"></path><path d="M197.333,242.673c0,0-4.543,0-4.711-2.188c-0.167-2.187,4.038-3.027,4.038-3.027L197.333,242.673z"></path></g><path d="M234.632,239.376c0,0-0.974,11.793-16.947,12.715c-17.492,1.01-21.698-9.925-22.033-13.288C204.398,238.804,234.632,239.376,234.632,239.376z"></path><g><path style="fill:#FFFFFF;" d="M230.301,218.451c4.541,4.542,7.905,21.531,0.335,26.744c-6.648,4.581-26.238,4.542-30.949-2.019c-4.709-6.56-2.523-20.016,4.037-24.726C209.939,213.989,225.76,213.909,230.301,218.451z"></path><path style="fill:#E4E0F3;" d="M234,231.375c-13-4.5-31.108-1.669-36.49,1.021c0.664-2.488,0.967-8.667,5.49-12.771c4.648-4.218,13.69-6.258,27.375-1C233.375,222.125,233.5,221.75,234,231.375z"></path></g><g><ellipse style="fill:#A2D7DD;" cx="219.622" cy="232.205" rx="12.969" ry="13.331"></ellipse><path style="fill:#84B9BF;" d="M219.624,218.875c7.16,0,12.968,5.968,12.968,13.331c0,0.439-0.022,0.873-0.064,1.3c-5.5-5.146-15.798-4.122-22.667-2.405c-1.093,0.313-2.161,0.701-3.205,1.142c0-0.012-0.002-0.025-0.002-0.038C206.653,224.843,212.46,218.875,219.624,218.875z"></path><ellipse style="fill:none;stroke:#000000;stroke-width:2;stroke-linecap:round;stroke-linejoin:round;" cx="219.622" cy="232.205" rx="12.969" ry="13.331"></ellipse><ellipse style="fill:none;stroke:#000000;stroke-linecap:round;stroke-linejoin:round;" cx="220.294" cy="230.86" rx="7.677" ry="7.891"></ellipse><ellipse transform="matrix(1 -0.0092 0.0092 1 -2.0969 2.0344)" cx="220.799" cy="229.682" rx="1.784" ry="1.834"></ellipse></g></g><path style="fill:none;stroke:#000000;stroke-width:2;stroke-linecap:round;stroke-linejoin:round;" d="M230.301,218.451c4.541,4.542,7.905,21.531,0.335,26.744c-6.648,4.581-26.238,4.542-30.949-2.019c-4.709-6.56-2.523-20.016,4.037-24.726C209.939,213.989,225.76,213.909,230.301,218.451z"></path></g><g><g id="lefteye_66_"><g><path d="M285.174,250.578c0,0,3.027,5.887,4.711,5.045c1.68-0.841,1.344-5.551,1.344-5.551L285.174,250.578z"></path><path d="M294.93,249.4c0,0,3.869,2.859,5.045,1.345c1.178-1.514-0.67-4.542-0.67-4.542L294.93,249.4z"></path><path d="M302.666,242.673c0,0,4.543,0,4.711-2.188c0.168-2.187-4.037-3.027-4.037-3.027L302.666,242.673z"></path></g><path d="M264.367,239.376c0,0,1.975,11.793,17.947,12.715c17.492,1.01,21.699-9.925,22.033-13.288C295.602,238.804,264.367,239.376,264.367,239.376z"></path><g><path style="fill:#FFFFFF;" d="M269.699,218.451c-4.541,4.542-7.906,21.531-0.336,26.744c6.648,4.581,26.238,4.542,30.949-2.019c4.709-6.56,2.523-20.016-4.037-24.726C290.061,213.989,274.24,213.909,269.699,218.451z"></path><path style="fill:#E4E0F3;" d="M266,231.375c13-4.5,31.107-1.669,36.49,1.021c-0.664-2.488-0.967-8.667-5.49-12.771c-4.648-4.218-13.691-6.258-27.375-1C266.625,222.125,266.5,221.75,266,231.375z"></path></g><g><path style="fill:#A2D7DD;" d="M267.408,232.205c0,7.362,5.809,13.331,12.969,13.331c7.162,0,12.971-5.969,12.971-13.332c0-7.362-5.809-13.33-12.971-13.33C273.217,218.875,267.408,224.843,267.408,232.205z"></path><path style="fill:#84B9BF;" d="M280.377,218.875c-7.16,0-12.969,5.968-12.969,13.331c0,0.439,0.023,0.873,0.064,1.3c5.5-5.146,15.799-4.122,22.668-2.405c1.092,0.313,2.16,0.701,3.205,1.142c0-0.012,0.002-0.025,0.002-0.038C293.348,224.843,287.539,218.875,280.377,218.875z"></path><path style="fill:none;stroke:#000000;stroke-width:2;stroke-linecap:round;stroke-linejoin:round;" d="M267.408,232.205c0,7.362,5.809,13.331,12.969,13.331c7.162,0,12.971-5.969,12.971-13.332c0-7.362-5.809-13.33-12.971-13.33C273.217,218.875,267.408,224.843,267.408,232.205z"></path><ellipse style="fill:none;stroke:#000000;stroke-linecap:round;stroke-linejoin:round;" cx="279.706" cy="230.86" rx="7.677" ry="7.891"></ellipse><path d="M277.418,229.666c-0.012,1.013,0.781,1.841,1.768,1.85c0.984,0.009,1.789-0.804,1.799-1.817c0.01-1.012-0.781-1.84-1.768-1.85C278.232,227.84,277.426,228.654,277.418,229.666z"></path></g></g><path style="fill:none;stroke:#000000;stroke-width:2;stroke-linecap:round;stroke-linejoin:round;" d="M269.699,218.451c-4.541,4.542-7.906,21.531-0.336,26.744c6.648,4.581,26.238,4.542,30.949-2.019c4.709-6.56,2.523-20.016-4.037-24.726C290.061,213.989,274.24,213.909,269.699,218.451z"></path></g></g></g></svg>