<svg xmlns="http://www.w3.org/2000/svg" width="500" height="500" version="1.1"><g id="x046"><g><g><g><path style="fill:#FFFFFF;" d="M230.871,224.978c0,0,4.562,7.275-0.326,18.675c-8.251,7.492-18.675,4.127-23.236,2.824c-4.56-1.304-5.211-3.909-6.841-7.167c-1.628-3.257-3.147-13.681-3.147-13.681s7.491-6.84,18.241-7.818C226.311,216.835,230.22,223.349,230.871,224.978z"></path></g><g><g><path style="fill:#E4E0F3;" d="M231.849,227.475c0,0,1.303,4.343,0,6.297c-5.863-4.343-9.991-6.081-17.808-4.777c-7.817,1.302-16.504,6.731-16.504,6.731l-2.822-7.818c0,0,11.291-8.687,21.932-9.772C227.288,217.051,231.849,227.475,231.849,227.475z"></path></g></g><g><g><ellipse style="fill:#A2D7DD;" cx="218.982" cy="234.695" rx="12.264" ry="12.606"></ellipse><path style="fill:#84B9BF;" d="M218.981,222.089c6.773,0,12.264,5.645,12.264,12.606c0,1.174-0.169,2.306-0.46,3.385c-6.671-4.567-16.528-5.23-23.988-1.983c-0.048-0.46-0.08-0.927-0.08-1.402C206.718,227.733,212.209,222.089,218.981,222.089z"></path></g><path d="M218.981,222.242c6.627,0,12.016,5.587,12.016,12.454s-5.389,12.453-12.016,12.453c-6.626,0-12.016-5.586-12.016-12.453S212.355,222.242,218.981,222.242z M204.604,234.695c0,8.107,6.449,14.703,14.377,14.703c7.928,0,14.378-6.595,14.378-14.703s-6.451-14.704-14.378-14.704C211.053,219.992,204.604,226.588,204.604,234.695z"></path></g><g><ellipse transform="matrix(0.8011 0.5985 -0.5985 0.8011 189.9987 -87.5219)" style="fill:#FFFFFF;" cx="226.695" cy="242.133" rx="3.583" ry="2.715"></ellipse></g><g><ellipse style="fill:#FFFFFF;" cx="218.981" cy="234.695" rx="4.588" ry="4.717"></ellipse></g><path d="M225.642,215.575c3.164,1.068,10.397,7.689,11.202,19.501c-3.205-4.688-6.567-11.091-13.59-14.253c-12.967-0.36-25.373,6.817-25.395,7.404c-0.24,6.563,3.297,13.375,4.002,14.568c-4.169-1.194-11.234-13.486-11.385-16.689C207.048,215.796,219.028,213.34,225.642,215.575z"></path><g><path d="M212.854,249.078c0,0-0.733-0.767-1.423-0.328c-0.69,0.439-1.82,3.02-0.849,3.104C211.55,251.937,213,249.978,212.854,249.078z"></path></g><g><path d="M208.674,246.995c0,0-0.546-0.908-1.316-0.632c-0.77,0.277-2.438,2.545-1.51,2.841C206.773,249.497,208.617,247.905,208.674,246.995z"></path></g><g><path d="M204.809,244.005c0,0-0.326-1.009-1.138-0.915c-0.813,0.094-2.954,1.924-2.116,2.423C202.39,246.01,204.547,244.879,204.809,244.005z"></path></g><g><path d="M235.756,221.395c0,0-4.619-6.215-12.378-9.772C230.545,210.971,235.105,216.509,235.756,221.395z"></path></g></g><g id="lefteye_64_"><g><path style="fill:#FFFFFF;" d="M269.13,224.978c0,0-4.563,7.275,0.324,18.675c8.253,7.492,18.676,4.127,23.236,2.824c4.561-1.304,5.212-3.909,6.842-7.167c1.628-3.257,3.146-13.681,3.146-13.681s-7.49-6.84-18.24-7.818C273.688,216.835,269.778,223.349,269.13,224.978z"></path></g><g><g><path style="fill:#E4E0F3;" d="M268.15,227.475c0,0-1.302,4.343,0,6.297c5.864-4.343,9.991-6.081,17.809-4.777c7.817,1.302,16.504,6.731,16.504,6.731l2.823-7.818c0,0-11.292-8.687-21.933-9.772C272.711,217.051,268.15,227.475,268.15,227.475z"></path></g></g><g><g><ellipse style="fill:#A2D7DD;" cx="281.018" cy="234.695" rx="12.263" ry="12.606"></ellipse><path style="fill:#84B9BF;" d="M281.018,222.089c-6.772,0-12.263,5.645-12.263,12.606c0,1.174,0.168,2.306,0.459,3.385c6.671-4.567,16.527-5.23,23.988-1.983c0.049-0.46,0.079-0.927,0.079-1.402C293.281,227.733,287.79,222.089,281.018,222.089z"></path></g><path d="M293.033,234.695c0,6.867-5.39,12.453-12.016,12.453s-12.016-5.586-12.016-12.453s5.39-12.454,12.016-12.454S293.033,227.829,293.033,234.695z M281.018,219.992c-7.928,0-14.377,6.596-14.377,14.704s6.449,14.703,14.377,14.703c7.929,0,14.378-6.595,14.378-14.703S288.946,219.992,281.018,219.992z"></path></g><g><ellipse transform="matrix(0.8012 0.5984 -0.5984 0.8012 202.2945 -124.6084)" style="fill:#FFFFFF;" cx="288.673" cy="242.133" rx="3.584" ry="2.715"></ellipse></g><g><ellipse style="fill:#FFFFFF;" cx="281.019" cy="234.695" rx="4.588" ry="4.717"></ellipse></g><path d="M274.358,215.575c-3.165,1.068-10.399,7.689-11.202,19.501c3.204-4.688,6.566-11.091,13.59-14.253c12.967-0.36,25.373,6.817,25.394,7.404c0.24,6.563-3.296,13.375-4.001,14.568c4.168-1.194,11.233-13.486,11.385-16.689C292.951,215.796,280.971,213.34,274.358,215.575z"></path><g><path d="M287.145,249.078c0,0,0.733-0.767,1.424-0.328c0.69,0.439,1.82,3.02,0.849,3.104C288.448,251.937,287,249.978,287.145,249.078z"></path></g><g><path d="M291.326,246.995c0,0,0.546-0.908,1.315-0.632c0.771,0.277,2.438,2.545,1.51,2.841C293.227,249.497,291.383,247.905,291.326,246.995z"></path></g><g><path d="M295.191,244.005c0,0,0.324-1.009,1.137-0.915c0.814,0.094,2.954,1.924,2.116,2.423C297.609,246.01,295.452,244.879,295.191,244.005z"></path></g><g><path d="M264.242,221.395c0,0,4.619-6.215,12.378-9.772C269.454,210.971,264.894,216.509,264.242,221.395z"></path></g></g></g></g></svg>