<svg xmlns="http://www.w3.org/2000/svg" width="500" height="500" version="1.1"><g id="x047"><g><g><g><g><path d="M196.501,220.667c0,0,26.125-0.875,33.227-0.161C222.001,217.792,207.501,217.292,196.501,220.667z"></path></g></g><g><g><g><path style="fill:#FFFFFF;" d="M232.429,237.282c0,0,0.917,4.587-1.529,7.339c-2.447,2.752-19.266,9.786-28.135,0.612c-3.975-6.116-5.198-19.266-5.198-19.266l32.122-0.306L232.429,237.282z"></path></g><g><path style="fill:#C2BFDC;" d="M231.511,233.612c0,0-13.149,0-32.721,0c-1.529-6.422-0.918-7.951-0.918-7.951h31.816L231.511,233.612z"></path></g></g><g><g><g><path style="fill:#A2D7DD;" d="M226.821,225.814c0.732,1.885,1.275,4.097,1.275,6.371c-0.001,7.516-4.774,13.048-10.347,13.048c-5.573,0-10.092-6.093-10.092-13.608c0-2.339,0.401-4.04,1.172-5.963L226.821,225.814z"></path><path style="fill:#84B9BF;" d="M207.806,233.858c-0.09-0.729-0.147-1.471-0.147-2.234c0-2.339,0.401-4.04,1.172-5.963l17.991,0.153c0.732,1.885,1.275,4.097,1.275,6.371c0,0.501-0.024,0.992-0.066,1.475C221.451,233.618,214.604,233.368,207.806,233.858z"></path></g><path d="M228.468,225.175c0.912,2.35,1.394,4.774,1.394,7.01c0,8.306-5.32,14.813-12.111,14.813c-3.269,0-6.307-1.67-8.555-4.7c-2.13-2.872-3.303-6.663-3.303-10.674c0-2.401,0.376-4.319,1.299-6.62l0,0c0.363-0.905,1.391-1.345,2.296-0.982c0.906,0.363,1.345,1.391,0.981,2.295l0,0c-0.752,1.877-1.046,3.364-1.046,5.307c0,3.258,0.927,6.302,2.609,8.571c1.564,2.11,3.595,3.272,5.718,3.272c4.73,0,8.581-5.061,8.581-11.282c0-1.804-0.4-3.786-1.155-5.732l0,0c-0.353-0.909,0.098-1.932,1.007-2.285C227.092,223.815,228.114,224.266,228.468,225.175L228.468,225.175z"></path></g><g><path style="fill:#FFFFFF;" d="M221.368,226.958c0.605,1.281,0.969,2.901,0.969,4.667c0,4.138-1.985,7.492-4.435,7.492c-2.448,0-4.434-3.354-4.434-7.492c0-1.709,0.342-3.279,0.912-4.54L221.368,226.958z"></path></g></g><g><g><path d="M228.196,226.605c0.3,0.475,0.809,0.778,1.369,0.817c-12.967-0.9-31.117-0.007-31.299,0.002l0,0c-0.974,0.049-1.804-0.701-1.852-1.675c-0.05-0.974,0.7-1.803,1.675-1.852l0,0c0.184-0.009,18.545-0.912,31.721,0.002c0.561,0.039,1.069,0.343,1.369,0.817c3.304,5.223,3.446,16.575,2.259,18.303C232.626,239.542,231.006,231.048,228.196,226.605z"></path></g><g><path d="M196.648,225.661c0,0-3.058,20.183,11.009,22.935c-8.867-4.587-8.256-22.323-8.256-22.323L196.648,225.661z"></path></g><g><path d="M197.058,232.389c0,0-8.768-5.504-9.685-7.34c4.893-1.223,13.048-1.121,13.048-1.121L197.058,232.389z"></path></g><g><path d="M232.429,231.594c0,0,4.893-4.893,5.198-7.034c-3.669-0.917-9.786-0.306-9.786-0.306L232.429,231.594z"></path></g></g></g></g><g id="lefteye_68_"><g><g><path d="M303.499,220.667c0,0-26.125-0.875-33.227-0.161C277.999,217.792,292.499,217.292,303.499,220.667z"></path></g></g><g><g><g><path style="fill:#FFFFFF;" d="M267.571,237.282c0,0-0.917,4.587,1.529,7.339c2.447,2.752,19.266,9.786,28.135,0.612c3.975-6.116,5.198-19.266,5.198-19.266l-32.122-0.306L267.571,237.282z"></path></g><g><path style="fill:#C2BFDC;" d="M268.489,233.612c0,0,13.149,0,32.721,0c1.529-6.422,0.918-7.951,0.918-7.951h-31.816L268.489,233.612z"></path></g></g><g><g><g><path style="fill:#A2D7DD;" d="M273.179,225.814c-0.732,1.885-1.275,4.097-1.275,6.371c0.001,7.516,4.774,13.048,10.347,13.048c5.573,0,10.092-6.093,10.092-13.608c0-2.339-0.401-4.04-1.172-5.963L273.179,225.814z"></path><path style="fill:#84B9BF;" d="M292.194,233.858c0.09-0.729,0.147-1.471,0.147-2.234c0-2.339-0.401-4.04-1.172-5.963l-17.991,0.153c-0.732,1.885-1.275,4.097-1.275,6.371c0,0.501,0.024,0.992,0.066,1.475C278.549,233.618,285.396,233.368,292.194,233.858z"></path></g><path d="M271.532,225.175c-0.912,2.35-1.394,4.774-1.394,7.01c0,8.306,5.32,14.813,12.111,14.813c3.269,0,6.307-1.67,8.555-4.7c2.13-2.872,3.303-6.663,3.303-10.674c0-2.401-0.376-4.319-1.299-6.62l0,0c-0.363-0.905-1.391-1.345-2.296-0.982c-0.906,0.363-1.345,1.391-0.981,2.295l0,0c0.752,1.877,1.046,3.364,1.046,5.307c0,3.258-0.927,6.302-2.609,8.571c-1.564,2.11-3.595,3.272-5.718,3.272c-4.73,0-8.581-5.061-8.581-11.282c0-1.804,0.4-3.786,1.155-5.732l0,0c0.353-0.909-0.098-1.932-1.007-2.285C272.908,223.815,271.886,224.266,271.532,225.175L271.532,225.175z"></path></g><g><path style="fill:#FFFFFF;" d="M278.632,226.958c-0.605,1.281-0.969,2.901-0.969,4.667c0,4.138,1.985,7.492,4.435,7.492c2.448,0,4.434-3.354,4.434-7.492c0-1.709-0.342-3.279-0.912-4.54L278.632,226.958z"></path></g></g><g><g><path d="M271.804,226.605c-0.3,0.475-0.809,0.778-1.369,0.817c12.967-0.9,31.117-0.007,31.299,0.002l0,0c0.974,0.049,1.804-0.701,1.852-1.675c0.05-0.974-0.7-1.803-1.675-1.852l0,0c-0.184-0.009-18.545-0.912-31.721,0.002c-0.561,0.039-1.069,0.343-1.369,0.817c-3.304,5.223-3.446,16.575-2.259,18.303C267.374,239.542,268.994,231.048,271.804,226.605z"></path></g><g><path d="M303.352,225.661c0,0,3.058,20.183-11.009,22.935c8.867-4.587,8.256-22.323,8.256-22.323L303.352,225.661z"></path></g><g><path d="M302.942,232.389c0,0,8.768-5.504,9.685-7.34c-4.893-1.223-13.048-1.121-13.048-1.121L302.942,232.389z"></path></g><g><path d="M267.571,231.594c0,0-4.893-4.893-5.198-7.034c3.669-0.917,9.786-0.306,9.786-0.306L267.571,231.594z"></path></g></g></g></g></g></g></svg>