<svg xmlns="http://www.w3.org/2000/svg" width="500" height="500" version="1.1"><g id="x048"><g><g><g><path style="fill:#FFFFFF;" d="M231.205,226.952c0,0,2.995,5.078,0.782,12.76c-1.929,6.691-6.716,10.021-9.673,10.804c-2.957,0.784-13.764,1.174-18.581-2.602c-4.818-3.776-5.209-14.583-5.209-14.583s-0.52-12.5,13.021-15.494C225.085,214.843,228.21,222.265,231.205,226.952z"></path><path style="fill:#E4E0F3;" d="M232.203,227.689c0,0,1.042,4.167,0.348,6.771c-5.035-2.257-23.091-4.341-32.638,6.597c-3.472-6.944-3.125-8.68-3.125-8.68s6.249-13.89,17.707-14.757C225.953,216.753,232.203,227.689,232.203,227.689z"></path></g><g><g><g><g><defs><path id="eyeXMLID_2_" d="M230.425,236.674c0.865-10.916-5.994-15.46-12.793-16.022c-6.889,0-13.425,3.246-13.425,13.673c0,4.506,2.628,14.665,13.394,14.665c4.681,0,6.841-1.7,6.841-1.7C228.047,244.999,230.073,241.094,230.425,236.674z"></path></defs><clipPath id="eyeXMLID_8_"><use xlink:href="#eyeXMLID_2_"></use></clipPath></g><path d="M225.279,248.608c3.914-2.486,6.295-6.681,6.703-11.811c0.96-12.121-7.061-17.112-14.222-17.703c-0.043-0.003-0.085-0.005-0.128-0.005c-9.525,0-14.987,5.553-14.987,15.236c0,6.523,3.983,16.227,14.956,16.227c5.076,0,7.542-1.826,7.808-2.033C225.365,248.55,225.322,248.581,225.279,248.608z"></path><path style="fill:#A2D7DD;" d="M224.373,246.769c-0.034,0.022-0.086,0.062-0.118,0.087c-0.021,0.015-2.033,1.536-6.356,1.624c-10.52,0.214-13.033-9.99-13.113-13.941c-0.221-10.849,6.724-13.268,12.59-13.388c-0.046,0.001-0.092,0-0.14-0.003c3.164,0.196,13.424,1.88,12.635,15.292C229.607,240.921,227.655,244.59,224.373,246.769z"></path><ellipse cx="217.759" cy="234.78" rx="2.16" ry="4.146"></ellipse></g><circle style="fill:#FFFFFF;" cx="226.45" cy="243.099" r="1.852"></circle><path style="fill:#84B9BF;" d="M226.617,224.843c-9.092-8.246-16.759-2.315-16.759-2.315s-8.198,5.458-4.191,15.876c0,0,1.001-2.142,4.08-3.539c0.099,2.262,0.943,5.185,4.394,6.266c-2.083-1.207-3.489-3.491-3.489-6.117c0-3.881,2.658-5.375,6.45-5.375c3.791,0,7.277,1.494,7.277,5.375c0,1.896-0.735,3.611-1.926,4.877c-0.011,0.013-0.023,0.024-0.035,0.038c-0.023,0.023-0.043,0.047-0.066,0.071c-0.119,0.137-0.241,0.272-0.37,0.397c-0.126,0.473-0.31,0.922-0.581,1.314c2.235-0.746,4.097-2.517,4.536-5.453c2.39,1.722,2.972,4.057,2.866,6.281C230.625,236.586,232.082,230.301,226.617,224.843z"></path><path style="fill:#FFFFFF;" d="M205.911,242.592c0,0,0.337-3.534,1.852-4.04c1.515-0.505,4.377,1.683,4.714,3.536c0.336,1.851-0.673,4.713-1.852,4.713S206.081,245.286,205.911,242.592z"></path><ellipse style="fill:#FFFFFF;" cx="211.277" cy="227.252" rx="1.332" ry="1.431"></ellipse><circle style="fill:#FFFFFF;" cx="230.49" cy="234.26" r="0.822"></circle><circle style="fill:#FFFFFF;" cx="230.28" cy="239.015" r="1.052"></circle></g></g><g><path d="M233.088,229.977c-0.282,0.539-5.051-9.09-12.458-9.933c-7.407-0.841-13.131,3.03-15.488,5.893c-2.356,2.862-5.05,6.061-4.713,11.111c0.168,4.713,3.198,10.774,8.081,13.3c-6.229-1.348-7.239-2.862-7.913-3.705c0.505,1.347,0.842,2.357,0.842,2.357c-0.674-0.504-4.041-2.693-5.219-7.239c0,0.842-0.504,2.357-0.504,2.357s-0.506-3.03-0.337-4.883c0.167-2.356,0.673-3.535,0.673-3.535s-1.346,2.525-2.188,3.031c0.505-2.189,1.853-5.051,1.853-6.734c-0.169-1.347,2.286-11.75,11.448-16.331c8.417-4.209,12.794-2.861,16.834-1.01c3.05,1.398,10.101,6.566,10.437,12.626c-0.842-1.683-1.516-3.367-1.516-3.367S234.939,226.441,233.088,229.977z"></path><path d="M218.125,213.357c0,0-4.221-1.112-6.665-4c-0.222,1.111,1.111,4,5.11,5.555"></path><path d="M209.906,215.134c0,0-4.221-1.111-6.665-4c-0.223,1.111,1.11,4,5.109,5.554"></path><path d="M201.241,220.91c0,0-4.221-1.112-6.665-4c-0.222,1.111,1.112,4,5.11,5.554"></path></g><g><path d="M204.973,247.317c0,0,1.347,3.705,17.34,3.199c-6.397,0.841-14.983,0.841-17.172-2.021C204.806,247.485,204.973,247.317,204.973,247.317z"></path><path d="M210.866,250.516c0,0-2.357,0.674-2.862,2.694c0-1.853,0.673-2.188,2.021-3.2C210.866,250.01,210.866,250.516,210.866,250.516z"></path><path d="M208.003,250.348c0,0-2.356,0.674-2.862,2.693c0-1.851,0.673-2.189,2.021-3.199C208.003,249.842,208.003,250.348,208.003,250.348z"></path></g></g><g id="lefteye_4_"><g><path style="fill:#FFFFFF;" d="M268.795,226.952c0,0-2.994,5.078-0.781,12.76c1.929,6.691,6.715,10.021,9.674,10.804c2.957,0.784,13.763,1.174,18.58-2.602s5.208-14.583,5.208-14.583s0.521-12.5-13.021-15.494C274.915,214.843,271.791,222.265,268.795,226.952z"></path><path style="fill:#E4E0F3;" d="M267.797,227.689c0,0-1.043,4.167-0.348,6.771c5.036-2.257,23.091-4.341,32.638,6.597c3.473-6.944,3.126-8.68,3.126-8.68s-6.25-13.89-17.707-14.757C274.048,216.753,267.797,227.689,267.797,227.689z"></path></g><g><g><g><g><defs><path id="eyeXMLID_4_" d="M269.574,236.674c-0.863-10.916,5.995-15.46,12.794-16.022c6.89,0,13.426,3.246,13.426,13.673c0,4.506-2.629,14.665-13.393,14.665c-4.683,0-6.842-1.7-6.842-1.7C271.953,244.999,269.927,241.094,269.574,236.674z"></path></defs><clipPath id="eyeXMLID_11_"><use xlink:href="#eyeXMLID_4_"></use></clipPath></g><path d="M274.594,248.519c0.265,0.207,2.731,2.033,7.808,2.033c10.972,0,14.955-9.704,14.955-16.227c0-9.683-5.462-15.236-14.988-15.236c-0.042,0-0.084,0.002-0.127,0.005c-7.162,0.591-15.184,5.582-14.223,17.703c0.408,5.13,2.79,9.325,6.703,11.811C274.678,248.581,274.635,248.55,274.594,248.519z"></path><path style="fill:#A2D7DD;" d="M270.128,236.44c-0.787-13.413,9.473-15.096,12.636-15.292c-0.047,0.003-0.093,0.004-0.141,0.003c5.867,0.12,12.813,2.54,12.591,13.388c-0.081,3.952-2.594,14.155-13.112,13.941c-4.324-0.088-6.335-1.609-6.357-1.624c-0.03-0.026-0.083-0.065-0.118-0.087C272.346,244.59,270.394,240.921,270.128,236.44z"></path><ellipse cx="282.241" cy="234.78" rx="2.159" ry="4.146"></ellipse></g><circle style="fill:#FFFFFF;" cx="291.155" cy="243.099" r="1.852"></circle><path style="fill:#84B9BF;" d="M273.384,224.843c9.092-8.246,16.758-2.315,16.758-2.315s8.199,5.458,4.192,15.876c0,0-1.003-2.142-4.08-3.539c-0.099,2.262-0.943,5.185-4.396,6.266c2.083-1.207,3.491-3.491,3.491-6.117c0-3.881-2.658-5.375-6.45-5.375c-3.791,0-7.276,1.494-7.276,5.375c0,1.896,0.734,3.611,1.925,4.877c0.012,0.013,0.024,0.024,0.035,0.038c0.023,0.023,0.043,0.047,0.065,0.071c0.119,0.137,0.243,0.272,0.371,0.397c0.126,0.473,0.309,0.922,0.581,1.314c-2.236-0.746-4.098-2.517-4.538-5.453c-2.388,1.722-2.971,4.057-2.864,6.281C269.375,236.586,267.919,230.301,273.384,224.843z"></path><path style="fill:#FFFFFF;" d="M270.616,242.592c0,0,0.337-3.534,1.852-4.04c1.516-0.505,4.378,1.683,4.714,3.536c0.338,1.851-0.673,4.713-1.852,4.713S270.785,245.286,270.616,242.592z"></path><ellipse style="fill:#FFFFFF;" cx="275.982" cy="227.252" rx="1.332" ry="1.431"></ellipse><circle style="fill:#FFFFFF;" cx="295.195" cy="234.26" r="0.822"></circle><circle style="fill:#FFFFFF;" cx="294.984" cy="239.015" r="1.052"></circle></g></g><g><path d="M266.912,229.977c0.282,0.539,5.051-9.09,12.458-9.933c7.407-0.841,13.131,3.03,15.488,5.893c2.356,2.862,5.05,6.061,4.714,11.111c-0.168,4.713-3.197,10.774-8.081,13.3c6.229-1.348,7.239-2.862,7.913-3.705c-0.506,1.347-0.843,2.357-0.843,2.357c0.674-0.504,4.041-2.693,5.22-7.239c0,0.842,0.505,2.357,0.505,2.357s0.504-3.03,0.336-4.883c-0.168-2.356-0.673-3.535-0.673-3.535s1.347,2.525,2.188,3.031c-0.505-2.189-1.852-5.051-1.852-6.734c0.168-1.347-2.287-11.75-11.447-16.331c-8.418-4.209-12.796-2.861-16.835-1.01c-3.05,1.398-10.102,6.566-10.438,12.626c0.843-1.683,1.515-3.367,1.515-3.367S265.062,226.441,266.912,229.977z"></path><path d="M281.876,213.357c0,0,4.219-1.112,6.665-4c0.222,1.111-1.112,4-5.111,5.555"></path><path d="M290.095,215.134c0,0,4.222-1.111,6.664-4c0.223,1.111-1.109,4-5.109,5.554"></path><path d="M298.76,220.91c0,0,4.22-1.112,6.664-4c0.221,1.111-1.111,4-5.11,5.554"></path></g><g><path d="M295.027,247.317c0,0-1.348,3.705-17.34,3.199c6.396,0.841,14.982,0.841,17.17-2.021C295.195,247.485,295.027,247.317,295.027,247.317z"></path><path d="M289.136,250.516c0,0,2.355,0.674,2.861,2.694c0-1.853-0.674-2.188-2.021-3.2C289.136,250.01,289.136,250.516,289.136,250.516z"></path><path d="M291.997,250.348c0,0,2.356,0.674,2.86,2.693c0-1.851-0.673-2.189-2.019-3.199C291.997,249.842,291.997,250.348,291.997,250.348z"></path></g></g></g></g></svg>