<svg xmlns="http://www.w3.org/2000/svg" width="500" height="500" version="1.1"><g id="x049"><g><g><g><path style="fill:#FFFFFF;" d="M228.537,224.659c0,0,5.227,5.227,4.53,14.635c-0.521,7.027-6.272,10.105-6.272,10.105s-9.061,4.181-19.862-0.697c-3.136-3.833-8.014-10.105-8.014-10.105s-2.439-13.938,6.969-18.816C215.296,214.902,225.75,220.129,228.537,224.659z"></path><path style="fill:#E4E0F3;" d="M205.888,219.781c9.408-4.879,19.862,0.348,22.649,4.878c0,0,2.726,2.747,3.976,7.819c-10.485-3.573-23.024-3.819-33.766-0.306C199.138,227.843,200.733,222.454,205.888,219.781z"></path></g><g><g><g><path style="fill:#A2D7DD;" d="M230.412,236.332c0-6.662-3.195-13.153-11.535-14.261c-6.626-0.88-14.956,5.256-14.956,15.114c0,4.259,3.157,11.07,13.611,11.07c4.545,0,7.069-1.889,7.069-1.889C228.104,244.201,230.412,240.521,230.412,236.332z"></path><ellipse cx="217.64" cy="234.381" rx="6.683" ry="7.029"></ellipse><path d="M223.776,245.033c-0.031,0.02-0.073,0.048-0.104,0.071c-0.022,0.016-2.236,1.583-6.14,1.583c-9.506,0-12.043-5.973-12.043-9.502c0-4.194,1.664-7.961,4.687-10.608c2.532-2.218,5.708-3.322,8.495-2.952c9.182,1.22,10.173,9.292,10.173,12.707C228.844,239.818,226.949,243.071,223.776,245.033z M225.426,247.701c4.104-2.538,6.554-6.788,6.554-11.369c0-8.831-4.821-14.743-12.896-15.815c-3.669-0.487-7.771,0.896-10.973,3.701c-3.712,3.251-5.756,7.857-5.756,12.968c0,4.372,3.173,12.638,15.179,12.638c5.01,0,7.889-2.111,8.008-2.201C225.503,247.65,225.464,247.676,225.426,247.701z"></path></g></g><path d="M206.644,242.805c0,0-4.138-10.694,10.453-10.694c14.588,0,11.539,10.148,11.539,10.148s5.438-20.181-10.232-19.73C199.458,223.074,206.644,242.805,206.644,242.805z"></path><ellipse style="fill:#FFFFFF;" cx="216.484" cy="225.437" rx="4.117" ry="4.171"></ellipse></g><g><g><path d="M201.199,240.885c0,0-3.996-7.434-0.87-12.046c9.471-13.973,22.536-7.827,25.15-6.46c3.919,2.221,9.146,11.431,9.146,11.431s-2.07-17.639-17.965-18.617c-13.258-0.816-20.833,8.498-21.121,13.902C195.039,238.476,201.199,240.885,201.199,240.885z"></path><path d="M195.993,233.976c0,0-2.263-1.459-3.029-1.637c-0.576-1.252,2.909-4.22,2.909-4.22L195.993,233.976z"></path><path d="M196.951,227.493c0,0-1.472-2.255-2.099-2.73c-0.014-1.377,4.378-2.668,4.378-2.668L196.951,227.493z"></path><path d="M198.415,222.622c0,0-0.363-2.668-0.725-3.367c0.578-1.251,5.098-0.533,5.098-0.533L198.415,222.622z"></path><path d="M202.12,218.698c0,0,0.473-2.651,0.342-3.427c0.932-1.014,5.018,1.053,5.018,1.053L202.12,218.698z"></path></g><g><path d="M206.1,248.181c0,0,9.906,4.899,21.775,0.353c-0.872,2.069-11.227,3.671-12.63,3.484C210.346,251.364,206.1,248.181,206.1,248.181z"></path></g><g><path d="M210.127,250.468c0,0-2.612,0.653-3.266,1.089c-1.307-0.436-1.09-5.009-1.09-5.009L210.127,250.468z"></path><path d="M212.741,251.557c0,0-2.614,0.652-3.267,1.089c-1.306-0.437,0.218-3.049,0.218-3.049L212.741,251.557z"></path><path d="M215.616,251.648c0,0-2.317,1.373-2.817,1.978c-1.377-0.044-0.665-2.983-0.665-2.983L215.616,251.648z"></path></g><path d="M201.381,215.332c0,0,8.859-4.46,21.14-0.702c9.727,2.977,12.402,7.854,12.402,7.854s-1.841-7.037-12.013-9.774C207.745,208.626,201.381,215.332,201.381,215.332z"></path></g></g><g id="lefteye_503_"><g><path style="fill:#FFFFFF;" d="M271.463,224.659c0,0-5.227,5.227-4.529,14.635c0.521,7.027,6.271,10.105,6.271,10.105s9.061,4.181,19.862-0.697c3.136-3.833,8.014-10.105,8.014-10.105s2.439-13.938-6.969-18.816C284.704,214.902,274.251,220.129,271.463,224.659z"></path><path style="fill:#E4E0F3;" d="M294.112,219.781c-9.408-4.879-19.861,0.348-22.649,4.878c0,0-2.726,2.747-3.976,7.819c10.485-3.573,23.024-3.819,33.767-0.306C300.862,227.843,299.267,222.454,294.112,219.781z"></path></g><g><g><g><path style="fill:#A2D7DD;" d="M269.589,236.332c0-6.662,3.195-13.153,11.534-14.261c6.627-0.88,14.956,5.256,14.956,15.114c0,4.259-3.157,11.07-13.611,11.07c-4.545,0-7.068-1.889-7.068-1.889C271.896,244.201,269.589,240.521,269.589,236.332z"></path><ellipse cx="282.36" cy="234.381" rx="6.683" ry="7.029"></ellipse><path d="M271.156,236.332c0-3.415,0.991-11.487,10.173-12.707c2.787-0.37,5.963,0.733,8.495,2.952c3.022,2.647,4.687,6.415,4.687,10.608c0,3.529-2.537,9.502-12.043,9.502c-3.904,0-6.117-1.567-6.14-1.583c-0.03-0.022-0.072-0.051-0.104-0.071C273.051,243.071,271.156,239.818,271.156,236.332z M274.46,247.623c0.119,0.09,2.998,2.201,8.008,2.201c12.006,0,15.179-8.267,15.179-12.638c0-5.111-2.045-9.716-5.756-12.968c-3.202-2.805-7.305-4.188-10.974-3.701c-8.075,1.072-12.896,6.985-12.896,15.815c0,4.581,2.45,8.831,6.554,11.369C274.535,247.676,274.497,247.65,274.46,247.623z"></path></g></g><path d="M293.356,242.805c0,0,4.138-10.693-10.453-10.693c-14.588,0-11.538,10.148-11.538,10.148s-5.438-20.181,10.231-19.73C300.542,223.074,293.356,242.805,293.356,242.805z"></path><ellipse style="fill:#FFFFFF;" cx="279.267" cy="225.437" rx="4.117" ry="4.171"></ellipse></g><g><g><path d="M298.802,240.885c0,0,3.995-7.434,0.869-12.046c-9.472-13.973-22.536-7.827-25.149-6.46c-3.919,2.221-9.146,11.431-9.146,11.431s2.07-17.639,17.966-18.617c13.258-0.815,20.832,8.498,21.12,13.903C304.961,238.476,298.802,240.885,298.802,240.885z"></path><path d="M304.007,233.976c0,0,2.263-1.458,3.028-1.637c0.576-1.252-2.908-4.22-2.908-4.22L304.007,233.976z"></path><path d="M303.049,227.493c0,0,1.473-2.255,2.1-2.73c0.014-1.377-4.379-2.669-4.379-2.669L303.049,227.493z"></path><path d="M301.585,222.622c0,0,0.362-2.668,0.726-3.367c-0.578-1.251-5.099-0.533-5.099-0.533L301.585,222.622z"></path><path d="M297.881,218.698c0,0-0.473-2.651-0.342-3.427c-0.933-1.014-5.018,1.053-5.018,1.053L297.881,218.698z"></path></g><g><path d="M293.9,248.181c0,0-9.906,4.899-21.775,0.353c0.872,2.069,11.227,3.671,12.631,3.484C289.654,251.364,293.9,248.181,293.9,248.181z"></path></g><g><path d="M289.873,250.468c0,0,2.612,0.653,3.266,1.089c1.307-0.436,1.09-5.009,1.09-5.009L289.873,250.468z"></path><path d="M287.26,251.557c0,0,2.613,0.652,3.267,1.089c1.306-0.437-0.218-3.049-0.218-3.049L287.26,251.557z"></path><path d="M284.384,251.648c0,0,2.317,1.373,2.817,1.978c1.377-0.044,0.665-2.983,0.665-2.983L284.384,251.648z"></path></g><path d="M298.619,215.333c0,0-8.859-4.461-21.141-0.702c-9.727,2.977-12.402,7.854-12.402,7.854s1.841-7.037,12.013-9.774C292.256,208.626,298.619,215.333,298.619,215.333z"></path></g></g></g></g></svg>