<svg xmlns="http://www.w3.org/2000/svg" width="500" height="500" version="1.1"><g id="x005"><g><g><g><path style="fill:#FCFFFF;" d="M234.466,227.936c0.224,1.938,0.477,6.566-0.484,10.49c-1.349,5.493-8.189,11.192-14.407,11.245c-6.218,0.05-15.183-1.142-18.396-4.77c-2.389-2.696-4.175-8.862-4.935-11.493C206.949,225.193,221.894,222.301,234.466,227.936z"></path><path style="fill:#E4E0F3;" d="M216.31,216.401c16.428-2.227,17.982,10.986,17.982,10.986s0.085,0.465,0.174,1.24c-12.572-5.635-27.517-2.743-38.223,5.473c-0.263-0.908-0.402-1.479-0.402-1.479S199.883,218.63,216.31,216.401z"></path></g><g><path d="M235.646,226.957c-1.73-5.883-5.033-8.534-6.588-9.933c2.8,2.021,4.976,3.265,6.841,4.82c-2.798-4.353-5.907-7.151-12.126-9.017c-6.219-1.866-19.743,1.242-26.429,10.258c-6.685,9.018-6.529,12.906-6.529,12.906l2.798,0.31c0,0,1.71,5.909,7.774,8.706c-2.954-4.508-4.51-9.639-1.865-15.235c2.642-5.597,8.705-11.039,17.876-11.35C227.965,218.065,235.646,226.957,235.646,226.957z"></path><path d="M196.256,228.373c-0.777-0.467-4.043-3.42-5.441-6.529c4.818,0.933,9.482,0.933,9.482,0.933L196.256,228.373z"></path></g><path d="M235.433,213.76c0,0-3.731-3.421-7.774-4.508c-4.196-0.623-11.348-0.313-12.747,0.154c3.109-1.709,11.504-1.709,14.769-1.088S235.433,213.76,235.433,213.76z"></path><g><path d="M210.083,249.114c0.771,0.053,1.259-1.467,0.226-1.781C209.277,247.018,209.315,249.06,210.083,249.114z"></path><path d="M206.915,248.373c0.685,0.231,1.841-1.086,1.035-1.627C207.144,246.206,206.232,248.141,206.915,248.373z"></path><path d="M203.548,247.268c0.647,0.402,2.325-0.637,1.656-1.381C204.533,245.149,202.9,246.868,203.548,247.268z"></path></g><path d="M217.76,218.719c3.469-0.196,11.247,2.539,13.422,11.297c2.178,8.756-4.716,19.638-12.023,18.706c-7.305-0.932-10.695-7.221-11.71-12.384C206.256,230.274,207.604,219.288,217.76,218.719z"></path><path style="fill:#A2D7DD;" d="M218.066,221.618c2.798-0.158,9.074,2.049,10.83,9.118c1.756,7.066-3.806,15.848-9.702,15.096c-5.897-0.754-8.633-5.83-9.451-9.996C208.781,230.943,209.869,222.078,218.066,221.618z"></path><ellipse style="fill:#1E1E1E;" cx="219.285" cy="234.208" rx="5.597" ry="7.287"></ellipse><path style="opacity:0.5;" d="M228.896,230.736c-1.756-7.068-8.032-9.275-10.83-9.118c-8.197,0.459-9.285,9.325-8.323,14.218c0.035,0.176,0.077,0.356,0.119,0.536c3.047-3.428,7.679-5.079,12.313-4.151c2.583,0.574,4.905,1.736,6.876,3.296C229.299,233.918,229.282,232.287,228.896,230.736z"></path><ellipse style="opacity:0.8;fill:#FFFFFF;" cx="219.34" cy="242.581" rx="5.179" ry="3.361"></ellipse><ellipse transform="matrix(-0.8866 -0.4626 0.4626 -0.8866 294.0505 523.8422)" style="fill:#FFFFFE;" cx="211.249" cy="225.87" rx="3.161" ry="3.99"></ellipse><ellipse transform="matrix(-0.9214 -0.3886 0.3886 -0.9214 342.8645 554.616)" style="fill:#FFFFFE;" cx="227.521" cy="242.634" rx="1.243" ry="1.476"></ellipse><ellipse style="opacity:0.5;fill:#FFFFFE;" cx="219.426" cy="236.947" rx="3.375" ry="3.029"></ellipse><ellipse transform="matrix(-0.9212 -0.389 0.389 -0.9212 327.8262 519.3044)" style="fill:#FFFFFE;" cx="216.484" cy="226.465" rx="1.244" ry="1.475"></ellipse><ellipse transform="matrix(-0.9213 -0.3888 0.3888 -0.9213 321.9057 543.0202)" style="fill:#FFFFFE;" cx="215.899" cy="238.938" rx="1.244" ry="1.476"></ellipse></g><g><g><path style="fill:#FCFFFF;" d="M265.534,227.936c-0.223,1.938-0.478,6.566,0.485,10.49c1.348,5.493,8.188,11.192,14.406,11.245c6.22,0.05,15.184-1.142,18.396-4.77c2.388-2.696,4.176-8.862,4.935-11.493C293.051,225.193,278.108,222.301,265.534,227.936z"></path><path style="fill:#E4E0F3;" d="M283.69,216.401c-16.428-2.227-17.981,10.986-17.981,10.986s-0.085,0.465-0.175,1.24c12.574-5.635,27.517-2.743,38.223,5.473c0.263-0.908,0.403-1.479,0.403-1.479S300.118,218.63,283.69,216.401z"></path></g><g><path d="M264.355,226.957c1.729-5.883,5.031-8.534,6.588-9.933c-2.801,2.021-4.977,3.265-6.842,4.82c2.799-4.353,5.908-7.151,12.126-9.017c6.219-1.866,19.743,1.242,26.43,10.258c6.686,9.018,6.528,12.906,6.528,12.906l-2.798,0.31c0,0-1.71,5.908-7.773,8.706c2.953-4.508,4.509-9.639,1.866-15.234c-2.643-5.597-8.706-11.039-17.879-11.35C272.035,218.065,264.355,226.957,264.355,226.957z"></path><path d="M303.745,228.372c0.776-0.466,4.042-3.42,5.44-6.528c-4.817,0.933-9.482,0.933-9.482,0.933L303.745,228.372z"></path></g><path d="M264.568,213.76c0,0,3.731-3.421,7.773-4.508c4.197-0.623,11.348-0.313,12.747,0.154c-3.109-1.709-11.504-1.709-14.769-1.088C267.056,208.939,264.568,213.76,264.568,213.76z"></path><g><path d="M289.917,249.114c-0.769,0.053-1.258-1.467-0.226-1.782S290.686,249.06,289.917,249.114z"></path><path d="M293.086,248.373c-0.686,0.231-1.842-1.086-1.036-1.627C292.856,246.206,293.769,248.141,293.086,248.373z"></path><path d="M296.452,247.268c-0.647,0.402-2.325-0.637-1.655-1.381C295.468,245.149,297.1,246.868,296.452,247.268z"></path></g><path d="M282.24,218.719c-3.469-0.196-11.245,2.539-13.422,11.297c-2.177,8.756,4.715,19.638,12.024,18.706c7.305-0.933,10.694-7.221,11.708-12.385C293.744,230.274,292.397,219.288,282.24,218.719z"></path><path style="fill:#A2D7DD;" d="M281.935,221.618c-2.797-0.158-9.074,2.049-10.831,9.118c-1.756,7.066,3.807,15.848,9.702,15.096c5.898-0.754,8.634-5.83,9.452-9.996C291.22,230.943,290.133,222.078,281.935,221.618z"></path><ellipse style="fill:#1E1E1E;" cx="280.716" cy="234.208" rx="5.597" ry="7.287"></ellipse><path style="opacity:0.5;" d="M271.104,230.736c1.757-7.068,8.034-9.275,10.831-9.118c8.198,0.459,9.285,9.325,8.323,14.218c-0.035,0.176-0.078,0.356-0.119,0.536c-3.048-3.428-7.679-5.079-12.314-4.151c-2.582,0.574-4.903,1.736-6.875,3.296C270.703,233.918,270.719,232.287,271.104,230.736z"></path><ellipse style="opacity:0.8;fill:#FFFFFF;" cx="280.659" cy="242.581" rx="5.18" ry="3.361"></ellipse><ellipse transform="matrix(-0.8866 -0.4626 0.4626 -0.8866 413.4774 553.1261)" style="fill:#FFFFFE;" cx="274.553" cy="225.87" rx="3.161" ry="3.99"></ellipse><ellipse transform="matrix(-0.9215 -0.3885 0.3885 -0.9215 464.5482 579.1913)" style="fill:#FFFFFE;" cx="290.826" cy="242.634" rx="1.244" ry="1.476"></ellipse><ellipse style="opacity:0.5;fill:#FFFFFE;" cx="282.73" cy="236.947" rx="3.375" ry="3.029"></ellipse><ellipse transform="matrix(-0.9212 -0.389 0.389 -0.9212 449.448 543.9287)" style="fill:#FFFFFE;" cx="279.788" cy="226.465" rx="1.244" ry="1.476"></ellipse><ellipse transform="matrix(-0.9213 -0.389 0.389 -0.9213 443.4809 567.6589)" style="fill:#FFFFFE;" cx="279.202" cy="238.938" rx="1.243" ry="1.477"></ellipse></g></g></g></svg>