<svg xmlns="http://www.w3.org/2000/svg" width="500" height="500" version="1.1"><g id="x050"><g><g><g><path style="fill:#FFFFFF;" d="M267.149,232.308c0,0-2.302,10.028,7.562,16.439c10.357,1.479,21.536-0.493,23.838-2.63c3.452-6.083,5.918-20.056,5.918-20.056s-4.273-6.247-16.769-5.918C275.204,220.472,267.149,232.308,267.149,232.308z"></path><path style="fill:#E4E0F3;" d="M287.698,220.143c-12.494,0.329-20.549,12.165-20.549,12.165s-0.469,2.061-0.069,4.907c10.565-4.477,24.189-8.086,36.524-6.869c0.553-2.531,0.862-4.285,0.862-4.285S300.193,219.814,287.698,220.143z"></path></g><g><g><path style="fill:#A2D7DD;" d="M292.808,224.412c0,0,3.743,5.219,1.927,11.913c-1.814,6.694-4.424,14.637-14.406,13.162c-9.985-1.477-11.574-6.015-12.594-13.048c-1.021-7.034,0.453-6.297,0.453-6.297s2.608-8.565,13.387-9.246C292.354,220.214,292.808,224.412,292.808,224.412z"></path><path style="fill:#84B9BF;" d="M292.808,224.412c0,0-0.454-4.197-11.233-3.517c-10.778,0.681-13.387,9.246-13.387,9.246s-1.475-0.737-0.453,6.297c0.051,0.354,0.106,0.698,0.161,1.04c0.482,0.526,1.116,0.966,1.556,1.406c8.242,4.496,18.188,3.295,25.091-1.864c0.064-0.232,0.13-0.466,0.192-0.696C296.551,229.63,292.808,224.412,292.808,224.412z"></path></g><path d="M293.715,235.757c0,0-0.056-6.8-12.424-6.573c-12.366,0.228-13.445,7.764-13.445,7.764s-0.622-6.183,2.894-9.02c3.519-2.837,4.595-6.354,10.607-6.581c6.015-0.227,11.007-0.397,11.007-0.397S297.006,233.488,293.715,235.757z"></path><path d="M265.294,234.395c0,0,4.482-5.388,10.382-7.657c3.096-1.19,9.78-5.225,14.294-4.765c10.041,1.021,9.7,2.893,12.027,5.162c0.339,6.353-3.973,19.513-3.973,19.513s10.155-5.956,8.964-22.633c-2.722-3.063-7.488-8.271-17.552-8.17C272.273,216.016,265.294,234.395,265.294,234.395z"></path><path d="M282.085,211.818c0,0-8.508-0.567-15.089,5.673C268.927,213.634,276.3,209.89,282.085,211.818z"></path><path d="M301.032,221.122c0,0,8.964,4.312,12.254,3.177c-2.724,3.404-7.207,5.332-9.36,3.97C301.77,226.908,301.032,221.122,301.032,221.122z"></path></g><path d="M293.715,221.973c0,0,9.53,18.549-5.9,26.832c11.117-12.14,2.155-27.172,2.155-27.172L293.715,221.973z"></path><ellipse style="fill:#FFFFFF;" cx="274.059" cy="232.58" rx="4.708" ry="4.311"></ellipse><path d="M270.343,227.021c0,0-5.33,17.812,6.807,22.009c-8.28-1.701-12.705-10.778-9.641-18.379C268.075,229.404,270.343,227.021,270.343,227.021z"></path><ellipse style="fill:#FFFFFF;" cx="292.622" cy="234.37" rx="1.546" ry="2.067"></ellipse></g><g id="lefteye_12_"><g><path style="fill:#FFFFFF;" d="M232.851,232.308c0,0,2.302,10.028-7.562,16.439c-10.357,1.479-21.537-0.493-23.838-2.63c-3.452-6.083-5.918-20.056-5.918-20.056s4.274-6.247,16.768-5.918C224.796,220.472,232.851,232.308,232.851,232.308z"></path><path style="fill:#E4E0F3;" d="M212.301,220.143c12.495,0.329,20.549,12.165,20.549,12.165s0.469,2.061,0.069,4.907c-10.565-4.477-24.189-8.086-36.525-6.869c-0.552-2.531-0.862-4.285-0.862-4.285S199.807,219.814,212.301,220.143z"></path></g><g><g><path style="fill:#A2D7DD;" d="M207.192,224.412c0,0-3.743,5.219-1.927,11.913c1.815,6.694,4.423,14.637,14.407,13.162c9.985-1.477,11.574-6.015,12.593-13.048c1.021-7.034-0.453-6.297-0.453-6.297s-2.608-8.565-13.387-9.246C207.647,220.214,207.192,224.412,207.192,224.412z"></path><path style="fill:#84B9BF;" d="M207.192,224.412c0,0,0.455-4.197,11.233-3.517c10.779,0.681,13.387,9.246,13.387,9.246s1.474-0.737,0.453,6.297c-0.051,0.354-0.106,0.698-0.161,1.04c-0.483,0.526-1.117,0.966-1.556,1.406c-8.243,4.496-18.189,3.295-25.091-1.864c-0.064-0.232-0.13-0.466-0.193-0.696C203.449,229.63,207.192,224.412,207.192,224.412z"></path></g><path d="M206.285,235.757c0,0,0.056-6.8,12.424-6.573c12.366,0.228,13.445,7.764,13.445,7.764s0.623-6.183-2.894-9.02c-3.518-2.837-4.595-6.354-10.607-6.581c-6.014-0.227-11.006-0.397-11.006-0.397S202.995,233.488,206.285,235.757z"></path><path d="M234.707,234.395c0,0-4.483-5.388-10.382-7.657c-3.096-1.19-9.781-5.225-14.295-4.765c-10.041,1.021-9.7,2.893-12.027,5.162c-0.339,6.353,3.972,19.513,3.972,19.513s-10.154-5.956-8.964-22.633c2.722-3.063,7.488-8.271,17.552-8.17C227.727,216.016,234.707,234.395,234.707,234.395z"></path><path d="M217.915,211.818c0,0,8.507-0.567,15.088,5.673C231.073,213.634,223.7,209.89,217.915,211.818z"></path><path d="M198.968,221.122c0,0-8.964,4.312-12.255,3.177c2.724,3.404,7.207,5.332,9.361,3.97C198.23,226.908,198.968,221.122,198.968,221.122z"></path></g><path d="M206.285,221.973c0,0-9.531,18.549,5.9,26.832c-11.118-12.14-2.156-27.172-2.156-27.172L206.285,221.973z"></path><ellipse style="fill:#FFFFFF;" cx="210.541" cy="232.58" rx="4.708" ry="4.311"></ellipse><path d="M229.657,227.021c0,0,5.331,17.812-6.806,22.009c8.28-1.701,12.705-10.778,9.64-18.379C231.925,229.404,229.657,227.021,229.657,227.021z"></path><ellipse style="fill:#FFFFFF;" cx="229.103" cy="234.37" rx="1.546" ry="2.067"></ellipse></g></g></g></svg>