<svg xmlns="http://www.w3.org/2000/svg" width="500" height="500" version="1.1"><g id="x051"><g><g><g id="lefteye_80_"><g><g><path style="fill:#FFFFFF;" d="M228.313,245.558c-2.255,3.219-17.297,9.137-26.761-0.652c-4.242-6.528-5.222-17.297-5.222-17.297l20.887-5.548l13.066,1.958C230.282,224.018,234.023,237.399,228.313,245.558z"></path><path style="fill:#E4E0F3;" d="M231.739,232.504c0,0-7.996-2.774-17.297-2.121c-9.3,0.652-17.133,2.121-17.133,2.121l-0.49-5.384l16.155-5.548c0,0,15.854,0,17.308,2.447C231.739,226.466,231.739,232.504,231.739,232.504z"></path></g><g><path style="fill:#A2D7DD;stroke:#000000;stroke-width:1.9551;stroke-linecap:round;stroke-linejoin:round;" d="M205.254,224.385c-0.934,2.418-1.418,4.554-1.418,7.496c0,9.446,6.408,17.104,12.219,17.104c5.812,0,12.528-6.953,12.528-16.399c0-2.858-0.657-5.639-1.543-8.008C227.041,224.577,218.895,218.812,205.254,224.385z"></path></g><path d="M226.354,238.541c0,0-0.49-6.2-9.301-6.2s-12.075,7.669-12.075,7.669l-0.596-7.064l0.76-8.845c0,0,3.426-0.489,11.502-0.816c6.433-0.26,10.281,0.653,10.281,0.653S229.472,233.923,226.354,238.541z"></path><ellipse style="opacity:0.5;fill:#FFFFFF;" cx="216.645" cy="242.091" rx="6.365" ry="4.772"></ellipse><ellipse style="fill:#FFFFFF;" cx="223.758" cy="241.152" rx="1.632" ry="1.741"></ellipse><path style="fill:#FFFFFF;" d="M210.339,237.854c1.333,0.446,1.895,2.761,1.06,4.372c-2.759,1.793-7.19,2.329-7.29,1.155C204.009,242.208,208.645,237.287,210.339,237.854z"></path><path d="M196.045,221.441c12.223-3.079,25.581-4.187,25.604-4.167c11.748,4.461,14.056,8.327,15.121,9.683c-0.497-0.331-4.546-1.417-4.569-1.306c1.958,2.937,3.615,5.324,4.352,7.289c0,0-10.98-6.643-11.14-6.958c-0.001-0.004-0.001-0.007,0-0.011c-11.761-1.919-25.266,0.622-28.339,1.259c0.566,4.265,1.369,9.604,3.172,15.229c-7.017-4.732-11.096-18.358-11.096-18.358S193.339,221.853,196.045,221.441z"></path><path d="M219.69,219.341c0.327,0,5.113-3.154,6.092-8.485c-3.155,2.719-12.401,7.614-13.924,7.833C214.36,219.341,219.69,219.341,219.69,219.341z"></path></g></g></g><g id="lefteye_76_"><g id="lefteye_72_"><g><g><path style="fill:#FFFFFF;" d="M271.688,245.558c2.254,3.219,17.297,9.137,26.761-0.653c4.242-6.528,5.221-17.297,5.221-17.297l-20.887-5.548l-13.065,1.958C269.718,224.018,265.977,237.399,271.688,245.558z"></path><path style="fill:#E4E0F3;" d="M268.261,232.504c0,0,7.996-2.774,17.298-2.121c9.3,0.652,17.133,2.121,17.133,2.121l0.489-5.384l-16.154-5.548c0,0-15.854,0-17.309,2.447C268.261,226.466,268.261,232.504,268.261,232.504z"></path></g><g><path style="fill:#A2D7DD;stroke:#000000;stroke-width:1.9551;stroke-linecap:round;stroke-linejoin:round;" d="M294.746,224.385c0.934,2.418,1.418,4.554,1.418,7.496c0,9.446-6.408,17.104-12.219,17.104c-5.813,0-12.529-6.953-12.529-16.399c0-2.858,0.658-5.639,1.544-8.008C272.96,224.577,281.105,218.812,294.746,224.385z"></path></g><path d="M273.646,238.541c0,0,0.49-6.2,9.302-6.2c8.811,0,11.693,7.773,11.693,7.773l1.63-7.494l-1.412-8.52c0,0-3.427-0.489-11.503-0.816c-6.434-0.26-10.28,0.653-10.28,0.653S270.528,233.923,273.646,238.541z"></path><ellipse style="opacity:0.5;fill:#FFFFFF;" cx="283.355" cy="242.091" rx="6.364" ry="4.772"></ellipse><ellipse style="fill:#FFFFFF;" cx="290.346" cy="241.152" rx="1.632" ry="1.741"></ellipse><path style="fill:#FFFFFF;" d="M276.927,237.854c1.333,0.446,1.896,2.761,1.061,4.372c-2.76,1.793-7.19,2.329-7.289,1.155C270.597,242.208,275.232,237.287,276.927,237.854z"></path><path d="M303.955,221.441c-12.223-3.079-25.581-4.187-25.604-4.167c-11.749,4.461-14.056,8.327-15.12,9.683c0.496-0.331,4.547-1.417,4.568-1.306c-1.958,2.937-3.615,5.324-4.351,7.289c0,0,10.979-6.643,11.139-6.958c0.001-0.004,0.001-0.007-0.001-0.011c11.762-1.919,25.268,0.622,28.339,1.259c-0.566,4.265-1.368,9.604-3.172,15.229c7.018-4.732,11.097-18.358,11.097-18.358S306.659,221.853,303.955,221.441z"></path><path d="M280.31,219.341c-0.326,0-5.113-3.154-6.092-8.485c3.155,2.719,12.401,7.614,13.924,7.833C285.64,219.341,280.31,219.341,280.31,219.341z"></path></g></g></g></g></g></svg>