<svg xmlns="http://www.w3.org/2000/svg" width="500" height="500" version="1.1"><g id="x052"><g><g id="lefteye_13_"><path style="fill:#FFFFFF;" d="M233.207,231.417c0,0,2.907,10.418-4.2,16.372c-4.846,3.126-22.777,2.381-26.814,0.298c-3.555-5.805-4.846-11.46-4.846-11.46s0.645-12.8,18.736-15.479C234.176,218.468,233.207,231.417,233.207,231.417z"></path><path style="fill:#E4E0F3;" d="M204.777,233.778c-2.624,1.488-4.981,3.346-6.979,5.533c-0.311-1.146-0.451-1.837-0.451-1.837s0.645-14.444,18.736-17.468c18.093-3.023,17.124,11.589,17.124,11.589s0.574,2.329,0.586,5.502C225.991,229.968,214.014,229.26,204.777,233.778z"></path><g><path d="M235.953,229.728c0,0-3.702-15.252-20.732-14.375c-17.029,0.875-20.916,12.621-22.397,17.004c0.926,4.558,6.665,10.168,6.665,10.168s-1.481-6.837,0.554-11.746c2.037-4.909,7.041-9.419,15.92-9.117c15.791,0.54,17.214,11.221,18.14,13.148C236.137,233.41,235.953,229.728,235.953,229.728z"></path><path d="M233.691,226.738c0-0.505,1.293-5.375,0.485-6.215c-0.412-0.429-4.361,1.008-4.361,1.008L233.691,226.738z"></path><path d="M224.807,218.004c0,0-1.022-5.991-2.476-6.327c-1.918-0.443-4.631,4.926-4.631,4.926L224.807,218.004z"></path><path d="M212.531,216.829c0,0-2.984-5.806-5.009-5.04c-1.776,0.672-1.776,7.727-1.776,7.727L212.531,216.829z"></path><path d="M201.708,221.699c0,0-3.611-3.357-5.439-2.408c-1.508,0.783,0.755,6.103,0.755,6.103L201.708,221.699z"></path><path d="M196.376,230.097c-0.484,0-5.331-2.015-6.945-1.175c-1.616,0.838,9.207,12.093,9.692,12.428C199.607,241.686,196.376,230.097,196.376,230.097z"></path></g><g><g><path style="fill:#A2D7DD;stroke:#000000;stroke-width:1.962;stroke-linecap:round;stroke-linejoin:round;" d="M218.542,221.301c7.962,0,12.437,7.146,12.341,14.357c-0.105,7.709-4.303,12.123-6.691,12.733c-2.388,0.61-10.931,0.417-12.246-0.317c-3.273-1.829-5.993-5.505-5.872-12.512C206.208,227.924,210.583,221.301,218.542,221.301z"></path><path d="M230.082,239.084c0,0-2.137-9.474-12.386-8.644c-10.25,0.833-10.828,8.644-10.828,8.644s-1.733-16.788,11.982-18.117C232.566,219.639,233.113,234.43,230.082,239.084z"></path><ellipse style="fill:#FFFFFF;" cx="218.291" cy="235.241" rx="5.777" ry="6.766"></ellipse></g><ellipse style="fill:#FFFFFF;" cx="209.628" cy="240.995" rx="1.804" ry="2.243"></ellipse><ellipse style="fill:#FFFFFF;" cx="227.819" cy="242.492" rx="1.804" ry="2.243"></ellipse></g><g><path d="M219.315,248.724c-0.09-0.523-2.535-0.549-3.267,0.018c-0.731,0.57,0.957,2.521,1.436,2.593C217.965,251.407,219.407,249.246,219.315,248.724z"></path><path d="M212.855,248.557c-0.092-0.523-2.536-0.551-3.267,0.018c-0.731,0.57,0.956,2.521,1.435,2.592C211.503,251.239,212.946,249.079,212.855,248.557z"></path><path d="M207.105,247.918c0.051-0.528-2.29-1.256-3.146-0.921c-0.853,0.338,0.25,2.697,0.692,2.904C205.093,250.107,207.053,248.446,207.105,247.918z"></path></g></g><g id="lefteye_5_"><path style="fill:#FFFFFF;" d="M266.793,231.417c0,0-2.907,10.418,4.199,16.372c4.847,3.126,22.778,2.381,26.815,0.298c3.554-5.805,4.846-11.46,4.846-11.46s-0.646-12.8-18.737-15.479C265.823,218.468,266.793,231.417,266.793,231.417z"></path><path style="fill:#E4E0F3;" d="M295.223,233.778c2.624,1.488,4.981,3.346,6.979,5.533c0.311-1.146,0.451-1.837,0.451-1.837s-0.646-14.444-18.737-17.468c-18.093-3.023-17.123,11.589-17.123,11.589s-0.573,2.329-0.586,5.502C274.009,229.968,285.986,229.26,295.223,233.778z"></path><g><path d="M264.048,229.728c0,0,3.701-15.252,20.732-14.375c17.028,0.875,20.915,12.621,22.396,17.004c-0.927,4.558-6.665,10.168-6.665,10.168s1.482-6.837-0.554-11.746c-2.037-4.909-7.041-9.419-15.921-9.117c-15.791,0.54-17.213,11.221-18.14,13.148C263.863,233.41,264.048,229.728,264.048,229.728z"></path><path d="M266.31,226.738c0-0.505-1.294-5.375-0.486-6.215c0.412-0.429,4.361,1.008,4.361,1.008L266.31,226.738z"></path><path d="M275.193,218.004c0,0,1.023-5.991,2.477-6.327c1.919-0.443,4.631,4.926,4.631,4.926L275.193,218.004z"></path><path d="M287.469,216.829c0,0,2.983-5.806,5.009-5.04c1.776,0.672,1.776,7.727,1.776,7.727L287.469,216.829z"></path><path d="M298.292,221.699c0,0,3.61-3.357,5.438-2.408c1.508,0.783-0.754,6.103-0.754,6.103L298.292,221.699z"></path><path d="M303.623,230.097c0.484,0,5.331-2.015,6.945-1.175c1.617,0.838-9.207,12.093-9.691,12.428C300.392,241.686,303.623,230.097,303.623,230.097z"></path></g><g><g><path style="fill:#A2D7DD;stroke:#000000;stroke-width:1.962;stroke-linecap:round;stroke-linejoin:round;" d="M281.458,221.301c-7.962,0-12.437,7.146-12.341,14.357c0.105,7.709,4.303,12.123,6.691,12.733c2.388,0.61,10.931,0.417,12.245-0.317c3.273-1.829,5.993-5.504,5.872-12.512C293.792,227.924,289.417,221.301,281.458,221.301z"></path><path d="M269.918,239.084c0,0,2.137-9.474,12.386-8.644c10.251,0.833,10.828,8.644,10.828,8.644s1.733-16.788-11.981-18.117C267.435,219.639,266.887,234.43,269.918,239.084z"></path><ellipse style="fill:#FFFFFF;" cx="281.709" cy="235.241" rx="5.777" ry="6.766"></ellipse></g><ellipse style="fill:#FFFFFF;" cx="275.347" cy="240.995" rx="1.805" ry="2.243"></ellipse><ellipse style="fill:#FFFFFF;" cx="293.538" cy="242.492" rx="1.804" ry="2.243"></ellipse></g><g><path d="M280.685,248.724c0.091-0.523,2.535-0.549,3.267,0.018c0.732,0.57-0.957,2.521-1.436,2.593C282.035,251.407,280.593,249.246,280.685,248.724z"></path><path d="M287.146,248.557c0.091-0.523,2.535-0.551,3.267,0.018c0.731,0.57-0.956,2.521-1.435,2.592C288.497,251.239,287.055,249.079,287.146,248.557z"></path><path d="M292.896,247.918c-0.052-0.528,2.29-1.256,3.146-0.92c0.853,0.337-0.25,2.697-0.693,2.903C294.907,250.107,292.946,248.446,292.896,247.918z"></path></g></g></g></g></svg>