<svg xmlns="http://www.w3.org/2000/svg" width="500" height="500" version="1.1"><g id="x053"><g><g><g><path style="fill:#FFFFFF;" d="M233.902,232.726c0,0,2.357,6.117-0.449,11.175c-2.805,1.175-18.175,4.586-21.541,5.057c-3.366,0.471-9.834-1.764-11.968-5.529c-2.13-3.763-2.244-11.762-2.244-11.762s7.479-6.94,17.352-7.764C224.928,223.08,233.902,232.726,233.902,232.726z"></path><path style="fill:#E4E0F3;" d="M215.054,222.65c9.874-0.823,18.849,8.822,18.849,8.822s0.657,1.727,0.862,4.097c-8.625-3.683-18.518-3.29-27.9-0.216c-2.055,0.588-6.316,1.677-8.601,2.587c-1.007-3.448-0.562-7.527-0.562-7.527S205.18,223.473,215.054,222.65z"></path></g><g><path style="fill:#A2D7DD;stroke:#000000;stroke-width:2.8766;" d="M212.281,248.624c0,0-4.298-5.197-2.969-15.652c0.932-7.333,6.443-11.438,10.301-11.107c2.753,0.236,7.266,3.799,9.282,9.364c1.154,3.185,1.082,7.863,0.783,12.039C225.498,246.039,221.214,247.841,212.281,248.624z"></path><ellipse cx="220.443" cy="235.139" rx="2.487" ry="4.956"></ellipse></g><g><path d="M238.502,236.059c0,0-1.795-7.527-15.371-15.644c-14.28-8.538-30.291,6.234-31.749,12.233c1.682,6.116,8.753,11.056,9.65,11.527c-3.928-6.704-3.928-11.762-2.582-13.173c1.347-1.414,11.33-7.765,20.979-6.235C229.078,226.296,238.502,236.059,238.502,236.059z"></path><g><path d="M205.181,221.591c0,0-5.048-2.706-5.722-1.529c-0.673,1.176,0.897,4.234,0.897,4.234L205.181,221.591z"></path><path d="M214.043,218.769c0,0-3.588-3.411-4.823-3.293c-1.234,0.116-1.682,4.822-1.682,4.822L214.043,218.769z"></path><path d="M221.898,221.356c0,0-1.011-5.765-2.805-5.765c-1.795,0-3.814,3.177-3.814,3.177L221.898,221.356z"></path><path d="M227.956,223.826c0,0,0.672-2.706-0.112-3.528c-0.785-0.823-4.151,1.529-4.151,1.529L227.956,223.826z"></path></g><path d="M195.757,226.884c0,0-4.374,3.765-8.863,4c3.591,2.353,9.2,5.646,9.2,5.646L195.757,226.884z"></path></g><g><g><path d="M232.781,243.783c0,0,1.457,0.235,0.897,0.471c-0.561,0.235-9.2,3.882-17.278,6.352c-4.158,1.272-11.108,0.587-15.146-5.999c5.384,3.646,8.303,4.823,15.707,2.941C223.017,246.009,232.781,243.783,232.781,243.783z"></path></g><g><path d="M216.991,251.535c-0.094-0.571-2.642-0.6-3.404,0.021c-0.763,0.622,0.996,2.753,1.497,2.83C215.582,254.464,217.084,252.105,216.991,251.535z"></path><path d="M210.259,251.352c-0.096-0.571-2.641-0.6-3.404,0.022c-0.764,0.621,0.996,2.75,1.496,2.83C208.851,254.281,210.354,251.923,210.259,251.352z"></path><path d="M204.268,249.402c0.054-0.578-2.386-1.373-3.275-1.005c-0.891,0.367,0.26,2.946,0.72,3.169C202.173,251.793,204.215,249.979,204.268,249.402z"></path></g></g></g><g id="lefteye_16_"><g><path style="fill:#FFFFFF;" d="M266.098,232.726c0,0-2.357,6.117,0.449,11.175c2.805,1.175,18.174,4.586,21.541,5.057c3.364,0.471,9.834-1.764,11.967-5.529c2.13-3.763,2.243-11.762,2.243-11.762s-7.479-6.94-17.351-7.764C275.072,223.081,266.098,232.726,266.098,232.726z"></path><path style="fill:#E4E0F3;" d="M284.947,222.65c-9.875-0.823-18.85,8.822-18.85,8.822s-0.657,1.727-0.861,4.097c8.625-3.683,18.517-3.29,27.9-0.216c2.054,0.588,6.314,1.677,8.601,2.587c1.007-3.448,0.561-7.527,0.561-7.527S294.819,223.473,284.947,222.65z"></path></g><g><path style="fill:#A2D7DD;stroke:#000000;stroke-width:2.8766;" d="M287.72,248.624c0,0,4.297-5.197,2.968-15.652c-0.932-7.333-6.442-11.438-10.299-11.107c-2.753,0.236-7.267,3.799-9.282,9.364c-1.154,3.185-1.081,7.863-0.783,12.039C274.502,246.039,278.785,247.841,287.72,248.624z"></path><ellipse cx="279.556" cy="235.139" rx="2.487" ry="4.956"></ellipse></g><g><path d="M261.498,236.059c0,0,1.795-7.527,15.371-15.644c14.279-8.538,30.291,6.234,31.749,12.233c-1.683,6.116-8.754,11.056-9.649,11.527c3.927-6.704,3.927-11.762,2.581-13.173c-1.348-1.414-11.329-7.765-20.979-6.235C270.922,226.296,261.498,236.059,261.498,236.059z"></path><g><path d="M294.818,221.591c0,0,5.049-2.706,5.723-1.529c0.673,1.176-0.897,4.234-0.897,4.234L294.818,221.591z"></path><path d="M285.957,218.769c0,0,3.589-3.411,4.823-3.293c1.234,0.116,1.682,4.822,1.682,4.822L285.957,218.769z"></path><path d="M278.102,221.356c0,0,1.013-5.765,2.806-5.765c1.794,0,3.813,3.177,3.813,3.177L278.102,221.356z"></path><path d="M272.044,223.826c0,0-0.672-2.706,0.113-3.528c0.784-0.823,4.149,1.529,4.149,1.529L272.044,223.826z"></path></g><path d="M304.243,226.884c0,0,4.373,3.765,8.862,4c-3.591,2.353-9.199,5.646-9.199,5.646L304.243,226.884z"></path></g><g><g><path d="M267.219,243.783c0,0-1.457,0.235-0.897,0.471c0.562,0.235,9.2,3.882,17.279,6.352c4.156,1.272,11.107,0.587,15.146-5.999c-5.385,3.646-8.303,4.823-15.707,2.941C276.983,246.009,267.219,243.783,267.219,243.783z"></path></g><g><path d="M283.01,251.535c0.094-0.571,2.642-0.6,3.403,0.021c0.763,0.622-0.996,2.753-1.497,2.83C284.418,254.464,282.915,252.105,283.01,251.535z"></path><path d="M289.74,251.352c0.097-0.571,2.642-0.6,3.403,0.022c0.765,0.621-0.995,2.75-1.495,2.83C291.148,254.281,289.646,251.923,289.74,251.352z"></path><path d="M295.732,249.402c-0.055-0.578,2.386-1.373,3.274-1.005c0.891,0.367-0.26,2.946-0.72,3.169C297.828,251.793,295.785,249.979,295.732,249.402z"></path></g></g></g></g></g></svg>