<svg xmlns="http://www.w3.org/2000/svg" width="500" height="500" version="1.1"><g id="x054"><g><g><g><path style="fill:#FFFFFF;" d="M197.966,223.594c0,0-3.353,19.158,8.462,24.427c10.058,3.672,16.764,1.277,18.2,0.479c1.437-0.798,7.983-7.822,5.588-22.191C219.04,220.561,197.966,223.594,197.966,223.594z"></path><path style="fill:#E4E0F3;" d="M230.714,233.385c0.068-2.125-0.064-4.477-0.498-7.077c-11.176-5.748-32.25-2.714-32.25-2.714s-0.576,3.315-0.405,7.563C208.566,230.479,219.792,231.105,230.714,233.385z"></path></g><g><path style="fill:#A2D7DD;stroke:#000000;stroke-width:2.791;" d="M213.932,221.041c-9.42-0.32-10.599,2.874-10.599,2.874c-0.582,2.119-0.914,4.402-0.914,6.797c0,10.722,6.366,19.415,14.217,19.415c7.853,0,14.218-8.693,14.218-19.415c0-2.395-0.333-4.679-0.914-6.797C229.941,223.914,223.351,221.36,213.932,221.041z"></path><path style="fill:#84B9BF;" d="M221.435,235.729c0,0,5.269,9.897-1.756,12.293c2.874-0.479,7.025-4.471,8.302-9.1C225.107,234.292,221.435,235.729,221.435,235.729z"></path><ellipse style="fill:#84B9BF;" cx="216.646" cy="237.085" rx="7.982" ry="6.146"></ellipse><path style="fill:#84B9BF;" d="M209.94,245.626c0,0-3.353-7.025,4.949-10.537c-4.63,0-9.26,4.789-9.26,4.789S207.705,244.988,209.94,245.626z"></path><path d="M205.949,242.115c0,0,1.117-6.865,11.016-6.706c9.898,0.16,11.335,7.025,11.335,7.025s4.311-7.344,1.117-17.242c-13.89-2.077-25.225-2.395-25.225-2.395S198.126,234.611,205.949,242.115z"></path><ellipse cx="216.646" cy="234.531" rx="7.982" ry="6.146"></ellipse><ellipse style="fill:#FFFFFF;" cx="203.634" cy="235.729" rx="4.071" ry="3.193"></ellipse><circle style="fill:#FFFFFF;" cx="208.424" cy="232.296" r="1.357"></circle></g><g><path d="M198.765,218.965c-2.555,1.596-2.715,4.15-1.118,5.428c7.344-0.479,24.107,0,32.409,2.554c1.596-0.639,1.916-4.47,0.958-5.748C223.351,218.167,203.554,216.73,198.765,218.965z"></path><path d="M213.292,214.574c0,0,12.692,1.676,17.722,3.353C228.619,213.377,217.124,212.659,213.292,214.574z"></path></g></g><g><g><path style="fill:#FFFFFF;" d="M302.033,223.594c0,0,3.354,19.158-8.461,24.427c-10.058,3.672-16.763,1.277-18.2,0.479c-1.438-0.798-7.982-7.822-5.587-22.191C280.96,220.561,302.033,223.594,302.033,223.594z"></path><path style="fill:#E4E0F3;" d="M269.287,233.385c-0.069-2.125,0.063-4.477,0.498-7.077c11.175-5.748,32.248-2.714,32.248-2.714s0.577,3.315,0.406,7.563C291.433,230.479,280.209,231.105,269.287,233.385z"></path></g><g><path style="fill:#A2D7DD;stroke:#000000;stroke-width:2.791;" d="M286.068,221.041c9.42-0.32,10.599,2.874,10.599,2.874c0.58,2.118,0.913,4.402,0.913,6.797c0,10.722-6.364,19.415-14.217,19.415s-14.219-8.693-14.219-19.415c0-2.395,0.333-4.679,0.915-6.797C270.06,223.914,276.65,221.36,286.068,221.041z"></path><path style="fill:#84B9BF;" d="M278.565,235.729c0,0-5.27,9.897,1.755,12.293c-2.874-0.479-7.023-4.471-8.301-9.101C274.893,234.292,278.565,235.729,278.565,235.729z"></path><ellipse style="fill:#84B9BF;" cx="283.354" cy="237.085" rx="7.982" ry="6.146"></ellipse><path style="fill:#84B9BF;" d="M290.06,245.626c0,0,3.353-7.025-4.949-10.537c4.631,0,9.261,4.789,9.261,4.789S292.296,244.988,290.06,245.626z"></path><path d="M294.052,242.115c0,0-1.118-6.865-11.018-6.706c-9.897,0.16-11.334,7.025-11.334,7.025s-4.311-7.344-1.118-17.243c13.891-2.076,25.225-2.395,25.225-2.395S301.874,234.611,294.052,242.115z"></path><ellipse cx="283.354" cy="234.531" rx="7.982" ry="6.146"></ellipse><ellipse style="fill:#FFFFFF;" cx="271.73" cy="235.729" rx="4.071" ry="3.193"></ellipse><circle style="fill:#FFFFFF;" cx="276.519" cy="232.296" r="1.357"></circle></g><g><path d="M301.235,218.965c2.555,1.596,2.715,4.15,1.119,5.428c-7.346-0.479-24.109,0-32.41,2.554c-1.598-0.639-1.917-4.47-0.958-5.748C276.65,218.167,296.447,216.73,301.235,218.965z"></path><path d="M286.707,214.574c0,0-12.692,1.676-17.721,3.353C271.381,213.377,282.876,212.659,286.707,214.574z"></path></g></g></g></g></svg>