<svg xmlns="http://www.w3.org/2000/svg" width="500" height="500" version="1.1"><g id="x055"><g><g><g><path style="fill:#FFFFFF;" d="M235.258,230.983c0,0,0.452,10.897-2.071,13.24c-4.323,2.251-16.032,8.286-23.057,5.764c-7.025-2.522-13.239-17.653-13.599-19.274c-0.09-2.972,0.27-5.944,0.27-5.944s9.637-2.612,20.175,0C227.513,227.381,235.258,230.983,235.258,230.983z"></path><path style="fill:#E4E0F3;" d="M196.801,224.769c0,0,9.637-2.612,20.175,0c10.537,2.612,18.282,6.214,18.282,6.214s0.118,2.881-0.109,5.998c-12.649-2.336-25.299-4.057-37.948-4.392c-0.375-0.928-0.609-1.601-0.67-1.876C196.441,227.741,196.801,224.769,196.801,224.769z"></path></g><g><path d="M235.774,231.603c0,0-2.101-5.233-16.285-8.568c-14.185-3.335-22.108,0.713-22.916,1.731C216.11,224.565,235.774,231.603,235.774,231.603z"></path><path d="M235.168,224.769c0,0-7.565-4.593-22.966-6.755C218.146,216.123,231.386,219.635,235.168,224.769z"></path><path d="M196.531,230.713c0,0,3.793,11.055,11.528,16.211c7.565,5.043,25.578-2.882,25.578-2.882s-15.905,11.385-26.839,6.214C195.864,245.087,196.531,230.713,196.531,230.713z"></path></g><g><ellipse cx="221.254" cy="235.442" rx="4.458" ry="4.999"></ellipse><ellipse style="fill:#A2D7DD;" cx="221.253" cy="235.442" rx="2.666" ry="2.989"></ellipse><ellipse style="fill:#FFFFFF;" cx="218.424" cy="235.712" rx="1.891" ry="2.026"></ellipse></g></g><g><g><path style="fill:#FFFFFF;" d="M264.742,230.983c0,0-0.452,10.897,2.07,13.24c4.323,2.251,16.032,8.286,23.058,5.764c7.024-2.522,13.239-17.653,13.599-19.274c0.09-2.972-0.27-5.944-0.27-5.944s-9.638-2.612-20.175,0C272.486,227.381,264.742,230.983,264.742,230.983z"></path><path style="fill:#E4E0F3;" d="M303.199,224.769c0,0-9.638-2.612-20.175,0c-10.538,2.612-18.282,6.214-18.282,6.214s-0.118,2.881,0.108,5.998c12.649-2.336,25.299-4.057,37.948-4.392c0.375-0.928,0.609-1.601,0.67-1.876C303.559,227.741,303.199,224.769,303.199,224.769z"></path></g><g><path d="M264.226,231.603c0,0,2.101-5.233,16.284-8.568c14.186-3.335,22.108,0.713,22.916,1.731C283.89,224.565,264.226,231.603,264.226,231.603z"></path><path d="M264.832,224.769c0,0,7.564-4.593,22.966-6.755C281.854,216.123,268.614,219.635,264.832,224.769z"></path><path d="M303.469,230.713c0,0-3.793,11.055-11.528,16.211c-7.565,5.043-25.577-2.882-25.577-2.882s15.904,11.385,26.839,6.214C304.136,245.087,303.469,230.713,303.469,230.713z"></path></g><g><ellipse cx="278.747" cy="235.442" rx="4.458" ry="4.999"></ellipse><ellipse style="fill:#A2D7DD;" cx="278.746" cy="235.442" rx="2.666" ry="2.989"></ellipse><ellipse style="fill:#FFFFFF;" cx="275.91" cy="235.712" rx="1.891" ry="2.026"></ellipse></g></g></g></g></svg>