<svg xmlns="http://www.w3.org/2000/svg" width="500" height="500" version="1.1"><g id="x056"><g><g><g><path style="fill:#FFFFFF;" d="M233.961,230.772c0,0-0.481,6.342-2.086,8.106c-2.567,2.888-10.587,7.7-18.768,7.54c-8.181-0.161-17.004-8.502-17.004-8.502l-0.641-8.267c0,0,9.304-4.973,19.73-4.491C225.619,225.639,233.961,230.772,233.961,230.772z"></path><path style="fill:#E4E0F3;" d="M195.769,234.573l-0.307-4.924c0,0,9.304-4.973,19.73-4.491c10.427,0.481,18.769,5.614,18.769,5.614s-0.147,2.536-0.548,5.107C221.33,231.98,208.348,232.172,195.769,234.573z"></path></g><g><g><path d="M225.907,226.65c0.33,0.852,0.514,1.781,0.514,2.758c0,4.031-3.089,7.299-6.897,7.299c-3.809,0-6.898-3.268-6.898-7.299c0-1.125,0.248-2.187,0.678-3.139C217.505,226.109,221.706,226.203,225.907,226.65z"></path><ellipse style="fill:#A2D7DD;" cx="219.603" cy="229.81" rx="4.251" ry="4.17"></ellipse><path d="M224.496,232.055c0,0-1.603-3.047-4.732-2.486c-3.129,0.561-4.732,3.128-4.732,3.128s-1.124-4.973,0.16-6.096c1.284-1.123,8.984-0.481,9.786,0.481C224.496,229.007,224.496,232.055,224.496,232.055z"></path><ellipse cx="219.764" cy="229.569" rx="2.807" ry="3.128"></ellipse></g><ellipse style="fill:#FFFFFF;" cx="215.279" cy="232.661" rx="1.82" ry="1.95"></ellipse></g><g><path d="M233.894,231.441c0.977-0.451,1.225-0.684,1.248-1.406c0.021-0.721,0.082-2.646,0.082-2.646c0.285-1.436-7.072-4.838-19.573-5.42c-15.385-0.717-21.095,4.884-21.095,4.884l1.128,2.442c0.669,1.706,9.709-2.588,20.524-2.013C227.271,227.872,233.894,231.441,233.894,231.441z"></path><path d="M234.352,221.775c0,0-7.844-3.321-22.812-3.235C216.937,215.912,230.035,217.412,234.352,221.775z"></path><path d="M231.875,238.878c0,0-4.17,8.823-16.843,8.823s-18.607-9.625-18.607-9.625s6.897,7.379,18.126,7.379C225.78,245.455,231.875,238.878,231.875,238.878z"></path></g></g><g><g><path style="fill:#FFFFFF;" d="M266.039,230.772c0,0,0.48,6.342,2.085,8.106c2.567,2.888,10.588,7.7,18.769,7.54c8.182-0.161,17.004-8.502,17.004-8.502l0.642-8.267c0,0-9.305-4.973-19.731-4.491C274.381,225.639,266.039,230.772,266.039,230.772z"></path><path style="fill:#E4E0F3;" d="M304.23,234.573l0.308-4.924c0,0-9.305-4.973-19.731-4.491c-10.426,0.481-18.768,5.614-18.768,5.614s0.147,2.536,0.548,5.107C278.669,231.98,291.651,232.172,304.23,234.573z"></path></g><g><g><path d="M274.093,226.65c-0.33,0.852-0.514,1.781-0.514,2.758c0,4.031,3.088,7.299,6.896,7.299c3.81,0,6.898-3.268,6.898-7.299c0-1.125-0.248-2.187-0.678-3.139C282.495,226.109,278.293,226.203,274.093,226.65z"></path><ellipse style="fill:#A2D7DD;" cx="280.396" cy="229.81" rx="4.251" ry="4.17"></ellipse><path d="M275.504,232.055c0,0,1.603-3.047,4.731-2.486c3.129,0.561,4.732,3.128,4.732,3.128s1.124-4.973-0.16-6.096c-1.283-1.123-8.983-0.481-9.785,0.481C275.504,229.007,275.504,232.055,275.504,232.055z"></path><ellipse cx="280.236" cy="229.569" rx="2.807" ry="3.128"></ellipse></g><ellipse style="fill:#FFFFFF;" cx="275.417" cy="232.661" rx="1.82" ry="1.95"></ellipse></g><g><path d="M266.105,231.441c-0.977-0.451-1.225-0.684-1.247-1.406c-0.021-0.721-0.082-2.646-0.082-2.646c-0.285-1.436,7.072-4.838,19.573-5.42c15.384-0.717,21.095,4.884,21.095,4.884l-1.128,2.442c-0.67,1.706-9.71-2.588-20.524-2.013C272.729,227.872,266.105,231.441,266.105,231.441z"></path><path d="M265.647,221.775c0,0,7.844-3.321,22.813-3.235C283.063,215.912,269.965,217.412,265.647,221.775z"></path><path d="M268.124,238.878c0,0,4.171,8.823,16.844,8.823s18.607-9.625,18.607-9.625s-6.897,7.379-18.126,7.379C274.22,245.455,268.124,238.878,268.124,238.878z"></path></g></g></g></g></svg>