<svg xmlns="http://www.w3.org/2000/svg" width="500" height="500" version="1.1"><g id="x057"><g><g><g><path style="fill:#FFFFFF;" d="M268.308,221.947c0,0-4.081,20.452,5.339,26.084c10.674,5.929,19.151,3.854,24.488-0.889c2.607-2.317,5.965-14.821,5.965-14.821s-4.395-13.338-17.268-14.821C273.959,216.019,268.308,221.947,268.308,221.947z"></path><path style="fill:#E4E0F3;" d="M286.832,217.501c-12.873-1.482-18.524,4.446-18.524,4.446s-0.858,4.316-0.876,9.526c11.492-1.906,24.612-0.387,35.182,4.98c0.894-2.381,1.486-4.132,1.486-4.132S299.705,218.983,286.832,217.501z"></path></g><g><path d="M267.837,219.724c0,0-0.785,2.964,0,3.557c0.786,0.592,4.082-4.742,16.641-3.706c12.559,1.038,16.984,9.337,17.142,16.007c0.114,4.892-5.84,14.672-5.84,14.672s9.576-5.484,10.675-16.155c-0.111-8.152-9.441-18-21.349-18.823C272.233,214.389,267.837,219.724,267.837,219.724z"></path><g><ellipse cx="290.188" cy="251.29" rx="1.119" ry="1.707"></ellipse><ellipse transform="matrix(0.9666 -0.2564 0.2564 0.9666 -54.4283 83.681)" cx="293.719" cy="250.584" rx="1.118" ry="1.707"></ellipse></g><path d="M270.192,213.647c0,0,6.908-3.854,21.035-0.592C288.716,207.423,271.762,208.312,270.192,213.647z"></path></g><g><path d="M270.057,221.398c-1.777,2.918-2.847,6.65-2.847,10.719c0,12.863,6.593,16.909,12.559,16.909c8.726,0,12.559-7.571,12.559-16.909c0-3.927-2.1-9.216-3.768-12.085C281.728,218.189,275.844,217.834,270.057,221.398z"></path><path style="fill:#A2D7DD;" d="M272.367,224.629c-1.354,2.281-2.169,5.197-2.169,8.377c0,10.052,5.024,13.214,9.57,13.214c6.648,0,9.57-5.917,9.57-13.214c0-3.069-0.765-5.886-2.035-8.129C282.097,223.438,276.93,222.788,272.367,224.629z"></path><ellipse style="opacity:0.8;fill:#FFFFFF;" cx="279.612" cy="243.421" rx="4.082" ry="2.512"></ellipse><path style="fill:#84B9BF;" d="M287.304,224.877c-5.207-1.439-10.374-2.09-14.937-0.249c-1.354,2.281-2.169,5.197-2.169,8.377c0,2.956,0.443,5.301,1.172,7.161c0.358-0.587,0.844-1.053,1.334-1.515c4.677-1.472,11.072-1.586,15.866,0.247c0.514-1.776,0.769-3.772,0.769-5.892C289.339,229.937,288.574,227.12,287.304,224.877z"></path><ellipse cx="279.688" cy="233.173" rx="4.438" ry="6.922"></ellipse><path d="M270.114,231.334c0,0,2.236-2.886,9.771-3.034c7.535-0.147,10.714,2.738,10.714,2.738s-0.354-6.363-2.119-7.843c-5.533-1.11-14.952-0.74-16.719,0.296C269.29,227.117,270.114,231.334,270.114,231.334z"></path><ellipse style="fill:#FFFFFE;" cx="286.42" cy="228.703" rx="2.296" ry="2.39"></ellipse><ellipse style="fill:#FFFFFE;" cx="279.886" cy="238.752" rx="1.766" ry="1.295"></ellipse></g></g><g><g><path style="fill:#FFFFFF;" d="M231.692,221.947c0,0,4.081,20.452-5.339,26.084c-10.674,5.929-19.15,3.854-24.488-0.889c-2.607-2.317-5.965-14.821-5.965-14.821s4.395-13.338,17.268-14.821C226.041,216.019,231.692,221.947,231.692,221.947z"></path><path style="fill:#E4E0F3;" d="M213.168,217.501c12.873-1.482,18.524,4.446,18.524,4.446s0.858,4.316,0.876,9.526c-11.491-1.906-24.612-0.387-35.182,4.98c-0.894-2.381-1.486-4.132-1.486-4.132S200.295,218.983,213.168,217.501z"></path></g><g><path d="M232.163,219.724c0,0,0.785,2.964,0,3.557c-0.786,0.592-4.082-4.742-16.641-3.706c-12.559,1.038-16.984,9.337-17.142,16.007c-0.114,4.892,5.84,14.672,5.84,14.672s-9.576-5.484-10.675-16.155c0.111-8.152,9.441-18,21.349-18.823C227.767,214.389,232.163,219.724,232.163,219.724z"></path><g><ellipse cx="209.813" cy="251.29" rx="1.118" ry="1.707"></ellipse><ellipse transform="matrix(-0.9666 -0.2564 0.2564 -0.9666 341.4206 545.6794)" cx="206.281" cy="250.584" rx="1.118" ry="1.707"></ellipse></g><path d="M229.808,213.647c0,0-6.907-3.854-21.035-0.592C211.284,207.423,228.238,208.312,229.808,213.647z"></path></g><g><path d="M229.943,221.398c1.777,2.918,2.847,6.65,2.847,10.719c0,12.863-6.593,16.909-12.559,16.909c-8.725,0-12.558-7.571-12.558-16.909c0-3.927,2.099-9.216,3.767-12.085C218.272,218.189,224.156,217.834,229.943,221.398z"></path><path style="fill:#A2D7DD;" d="M227.633,224.629c1.354,2.281,2.169,5.197,2.169,8.377c0,10.052-5.024,13.214-9.57,13.214c-6.648,0-9.57-5.917-9.57-13.214c0-3.069,0.765-5.886,2.036-8.129C217.903,223.438,223.071,222.788,227.633,224.629z"></path><ellipse style="opacity:0.8;fill:#FFFFFF;" cx="220.389" cy="243.421" rx="4.082" ry="2.512"></ellipse><path style="fill:#84B9BF;" d="M212.697,224.877c5.206-1.439,10.374-2.09,14.936-0.249c1.354,2.281,2.169,5.197,2.169,8.377c0,2.956-0.443,5.301-1.172,7.161c-0.358-0.587-0.844-1.053-1.334-1.515c-4.677-1.472-11.071-1.586-15.866,0.247c-0.514-1.776-0.769-3.772-0.769-5.892C210.661,229.937,211.426,227.12,212.697,224.877z"></path><ellipse cx="220.313" cy="233.173" rx="4.438" ry="6.922"></ellipse><path d="M229.886,231.334c0,0-2.236-2.886-9.771-3.034c-7.535-0.147-10.714,2.738-10.714,2.738s0.354-6.363,2.119-7.843c5.533-1.11,14.953-0.74,16.719,0.296C230.71,227.117,229.886,231.334,229.886,231.334z"></path><ellipse style="fill:#FFFFFE;" cx="228.243" cy="228.703" rx="2.296" ry="2.39"></ellipse><ellipse style="fill:#FFFFFE;" cx="220.115" cy="238.752" rx="1.766" ry="1.295"></ellipse></g></g></g></g></svg>