<svg xmlns="http://www.w3.org/2000/svg" width="500" height="500" version="1.1"><g id="x058"><g><g><g><g><path style="fill:none;stroke:#000000;stroke-width:6;stroke-linecap:round;stroke-linejoin:round;" d="M228.901,227.802c-2.605-0.727-20.291-0.418-27.653,0.803"></path><path style="fill:none;stroke:#000000;stroke-width:6;stroke-linecap:round;stroke-linejoin:round;" d="M229.084,232.932c-2.605-0.727-20.291-0.419-27.653,0.803"></path><path style="fill:none;stroke:#000000;stroke-width:6;stroke-linecap:round;stroke-linejoin:round;" d="M229.268,238.062c-2.605-0.728-20.291-0.419-27.653,0.803"></path><path style="fill:none;stroke:#000000;stroke-width:6;stroke-linecap:round;stroke-linejoin:round;" d="M229.45,243.19c-2.605-0.727-20.291-0.419-27.653,0.803"></path></g><ellipse transform="matrix(-0.9994 0.0357 -0.0357 -0.9994 441.3364 452.3782)" style="fill:#FFFFFF;" cx="216.631" cy="230.127" rx="6.13" ry="1.284"></ellipse><g><g><path style="fill:#FFFFFF;" d="M218.596,238.246c2.278,0.684,2.812,1.237,3.466,3.616c0.655-2.378,1.188-2.932,3.466-3.616c-2.277-0.684-2.811-1.237-3.466-3.615C221.407,237.008,220.874,237.562,218.596,238.246z"></path></g><g><path style="fill:#FFFFFF;" d="M202.266,228.875c1.102,0.317,1.359,0.574,1.676,1.676c0.316-1.103,0.574-1.359,1.676-1.676c-1.102-0.317-1.359-0.574-1.676-1.676C203.625,228.301,203.367,228.558,202.266,228.875z"></path></g><g><path style="fill:#FFFFFF;" d="M201.266,243.625c1.102,0.317,1.359,0.574,1.676,1.676c0.316-1.103,0.574-1.359,1.676-1.676c-1.102-0.317-1.359-0.574-1.676-1.676C202.625,243.051,202.367,243.308,201.266,243.625z"></path></g></g><ellipse transform="matrix(-0.9994 0.0356 -0.0356 -0.9994 425.2546 464.147)" style="fill:#FFFFFF;" cx="208.497" cy="235.858" rx="1.283" ry="1.141"></ellipse></g><path d="M231.161,225.633c0,0,0.57-3.707-1.141-3.992s-3.422,1.996-3.422,1.996s-0.57-1.711-2.281-1.996s-2.852,1.996-2.852,1.996s-0.855-1.996-2.565-2.281c-1.711-0.285-3.992,3.137-3.992,3.137S223.747,229.055,231.161,225.633z"></path></g><g><g><g><path style="fill:none;stroke:#000000;stroke-width:6;stroke-linecap:round;stroke-linejoin:round;" d="M271.099,227.802c2.605-0.727,20.291-0.418,27.653,0.803"></path><path style="fill:none;stroke:#000000;stroke-width:6;stroke-linecap:round;stroke-linejoin:round;" d="M270.916,232.932c2.605-0.727,20.291-0.419,27.653,0.803"></path><path style="fill:none;stroke:#000000;stroke-width:6;stroke-linecap:round;stroke-linejoin:round;" d="M270.732,238.062c2.605-0.728,20.291-0.419,27.653,0.803"></path><path style="fill:none;stroke:#000000;stroke-width:6;stroke-linecap:round;stroke-linejoin:round;" d="M270.55,243.19c2.605-0.727,20.291-0.419,27.653,0.803"></path></g><ellipse transform="matrix(0.9994 0.0357 -0.0357 0.9994 8.3921 -9.9649)" style="fill:#FFFFFF;" cx="283.369" cy="230.127" rx="6.13" ry="1.284"></ellipse><g><g><path style="fill:#FFFFFF;" d="M281.404,238.246c-2.278,0.684-2.812,1.237-3.466,3.616c-0.655-2.378-1.188-2.932-3.466-3.616c2.277-0.684,2.811-1.237,3.466-3.615C278.593,237.008,279.126,237.562,281.404,238.246z"></path></g><g><path style="fill:#FFFFFF;" d="M297.734,228.875c-1.102,0.317-1.359,0.574-1.676,1.676c-0.316-1.103-0.574-1.359-1.676-1.676c1.102-0.317,1.359-0.574,1.676-1.676C296.375,228.301,296.633,228.558,297.734,228.875z"></path></g><g><path style="fill:#FFFFFF;" d="M298.734,243.625c-1.102,0.317-1.359,0.574-1.676,1.676c-0.316-1.103-0.574-1.359-1.676-1.676c1.102-0.317,1.359-0.574,1.676-1.676C297.375,243.051,297.633,243.308,298.734,243.625z"></path></g></g><ellipse transform="matrix(0.9994 0.0356 -0.0356 0.9994 8.5771 -10.2232)" style="fill:#FFFFFF;" cx="291.503" cy="235.858" rx="1.283" ry="1.141"></ellipse></g><path d="M268.839,225.633c0,0-0.57-3.707,1.141-3.992s3.422,1.996,3.422,1.996s0.57-1.711,2.281-1.996s2.852,1.996,2.852,1.996s0.855-1.996,2.565-2.281c1.711-0.285,3.992,3.137,3.992,3.137S276.253,229.055,268.839,225.633z"></path></g></g></g></svg>