<svg xmlns="http://www.w3.org/2000/svg" width="500" height="500" version="1.1"><g id="x059"><g><g><g><path style="fill:#FFFFFF;" d="M265.8,229.42c0,0-3.272,15.056,4.364,18.764c7.636,3.709,20.509,4.219,27.345-2.836c4.146-9.818,4.509-17.018,4.509-17.018s-7.199-6.764-18.108-6.109C273,222.874,265.8,229.42,265.8,229.42z"></path><path style="fill:#C2BFDC;" d="M283.909,222.221C273,222.874,265.8,229.42,265.8,229.42s-0.549,2.529-0.672,5.767c11.73-1.304,23.898-2.417,35.348,0.044c1.12-4.163,1.542-6.902,1.542-6.902S294.818,221.565,283.909,222.221z"></path></g><path style="fill:#84B9BF;" d="M290.4,236.511c0-6.565-5.326-11.892-11.892-11.892s-11.892,5.326-11.892,11.892c0,0.372,0.022,0.738,0.056,1.101h23.671C290.377,237.249,290.4,236.883,290.4,236.511z"></path><path style="fill:#A2D7DD;" d="M266.673,237.612c0.557,6.049,5.642,10.791,11.836,10.791c6.193,0,11.278-4.742,11.835-10.791H266.673z"></path><circle style="fill:none;stroke:#000000;stroke-width:2.7741;stroke-linecap:round;stroke-linejoin:round;" cx="278.509" cy="236.511" r="11.892"></circle><g><circle style="fill:#FFFFFF;stroke:#000000;stroke-width:1.8494;stroke-linecap:round;stroke-linejoin:round;" cx="277.586" cy="236.512" r="4.8"></circle></g><g><path d="M262.745,232.475c0,0,9.392-14.474,20.634-15.276c11.243-0.804,18.068,10.239,23.288,11.242c-0.649,5.562-3.194,13.635-9.376,17.053c2.908-10.836,3.754-13.639-0.06-16.049C280.707,219.008,262.745,232.475,262.745,232.475z"></path><path d="M266.235,224.838c0,0,5.674-6.764,13.092-8.728C272.563,215.457,269.291,216.765,266.235,224.838z"></path><path d="M303.813,228.75c0,0-0.76,1.699,0.042,3.305c2.94-2.941,9.795-3.884,12.648-4.818c2.406-0.789,4.203-2.215,4.016-4.015c-0.368-3.493-5.421-4.617-9.235-0.293C308.3,226.31,303.813,228.75,303.813,228.75z"></path><path d="M301.045,238.077c0,0,6.224-1.605,10.64-0.201c4.418,1.405,7.429,4.818,9.638,2.008c2.208-2.811,0.803-5.622-2.812-5.622c-3.613,0-3.195,0.803-8.23,0.803c-7.429,0-6.825-2.81-6.825-2.81L301.045,238.077z"></path></g><ellipse transform="matrix(0.8502 -0.5265 0.5265 0.8502 -86.2083 192.8833)" cx="295.836" cy="247.929" rx="1.091" ry="1.854"></ellipse><ellipse transform="matrix(0.8503 -0.5263 0.5263 0.8503 -87.9864 191.35)" cx="292.345" cy="250.33" rx="1.091" ry="1.854"></ellipse><ellipse transform="matrix(0.9461 -0.324 0.324 0.9461 -65.946 107.0429)" cx="288.491" cy="251.566" rx="1.091" ry="1.853"></ellipse></g><g><g><path style="fill:#FFFFFF;" d="M234.2,229.42c0,0,3.272,15.056-4.364,18.764c-7.637,3.709-20.509,4.219-27.346-2.836c-4.145-9.818-4.51-17.018-4.51-17.018s7.2-6.764,18.109-6.109C227,222.874,234.2,229.42,234.2,229.42z"></path><path style="fill:#C2BFDC;" d="M216.09,222.221c10.91,0.653,18.11,7.199,18.11,7.199s0.549,2.529,0.672,5.767c-11.731-1.304-23.9-2.417-35.348,0.044c-1.122-4.163-1.543-6.902-1.543-6.902S205.181,221.565,216.09,222.221z"></path></g><g id="eyeXMLID_1_"><g><path style="fill:#84B9BF;" d="M233.382,236.511c0-6.565-5.326-11.892-11.892-11.892c-6.565,0-11.891,5.326-11.891,11.892c0,0.372,0.022,0.738,0.056,1.101h23.672C233.36,237.249,233.382,236.883,233.382,236.511z"></path><path style="fill:#A2D7DD;" d="M209.655,237.612c0.556,6.049,5.642,10.791,11.835,10.791c6.194,0,11.28-4.742,11.836-10.791H209.655z"></path></g><g><circle style="fill:none;stroke:#000000;stroke-width:2.7741;stroke-linecap:round;stroke-linejoin:round;" cx="221.491" cy="236.511" r="11.892"></circle></g></g><g><circle style="fill:#FFFFFF;stroke:#000000;stroke-width:1.8494;stroke-linecap:round;stroke-linejoin:round;" cx="222.413" cy="236.512" r="4.8"></circle></g><g><path d="M237.255,232.475c0,0-9.392-14.474-20.634-15.276c-11.242-0.804-18.068,10.239-23.288,11.242c0.648,5.562,3.194,13.635,9.375,17.053c-2.909-10.836-3.755-13.639,0.061-16.049C219.292,219.008,237.255,232.475,237.255,232.475z"></path><path d="M233.763,224.838c0,0-5.672-6.764-13.091-8.728C227.436,215.457,230.709,216.765,233.763,224.838z"></path><path d="M196.186,228.75c0,0,0.76,1.699-0.043,3.305c-2.94-2.941-9.795-3.884-12.647-4.818c-2.406-0.789-4.204-2.215-4.015-4.015c0.368-3.493,5.42-4.617,9.235-0.293C191.7,226.31,196.186,228.75,196.186,228.75z"></path><path d="M198.953,238.077c0,0-6.223-1.605-10.64-0.201c-4.417,1.405-7.427,4.818-9.635,2.008c-2.208-2.811-0.803-5.622,2.81-5.622c3.614,0,3.196,0.803,8.231,0.803c7.429,0,6.826-2.81,6.826-2.81L198.953,238.077z"></path></g><ellipse transform="matrix(-0.8501 -0.5266 0.5266 -0.8501 247.1825 566.2076)" cx="204.163" cy="247.929" rx="1.091" ry="1.855"></ellipse><ellipse transform="matrix(-0.8503 -0.5262 0.5262 -0.8503 252.5004 572.47)" cx="207.655" cy="250.33" rx="1.091" ry="1.855"></ellipse><ellipse transform="matrix(-0.9461 -0.324 0.324 -0.9461 330.0984 558.0918)" cx="211.508" cy="251.566" rx="1.091" ry="1.854"></ellipse></g></g></g></svg>