<svg xmlns="http://www.w3.org/2000/svg" width="500" height="500" version="1.1"><g id="x006"><g><g><g><path style="fill:#FFFFFF;" d="M200.231,240.324c0,0,3.523,3.579,8.038,4.79c4.185,0.661,14.64-0.422,17.153-0.697c2.57-0.282,8.978-1.776,6.284-14.461c-5.506-4.184-11.35-4.845-11.35-4.845s-17.936,1.454-22.199,4.258C197.368,231.514,198.47,238.121,200.231,240.324z"></path><path style="fill:#E4E0F3;" d="M195.956,231.79c0,0,1.321,6.387,3.083,7.047c3.744-3.083,14.509-5.593,19.38-5.286c4.871,0.308,13.684,4.772,13.684,4.772s1.053-4.166-0.396-8.956c-5.286-4.185-13.104-3.891-13.104-3.891S197.938,226.284,195.956,231.79z"></path></g><g><g><path d="M208.981,230.75c0,0-4.125,9.5,5.125,14.5c4.25,0.125,13.875-1.125,13.875-1.125s4.875-5.375,2.875-12.875C225.356,227.625,213.356,228.375,208.981,230.75z"></path><path style="fill:#A2D7DD;" d="M211.362,238.973c0.579,1.495,1.518,3.082,2.994,4.652c3.875,1.25,11.75,0.125,11.75,0.125s1.503-1.777,2.293-4.731C223.296,235.735,215.953,234.847,211.362,238.973z"></path><path style="opacity:0.5;fill:#A2D7DD;" d="M228.231,231.25c-5.25-3-14.375-2.125-17.125-0.375c0,0-1.47,3.644,0.256,8.098c4.591-4.125,11.934-3.237,17.037,0.046C228.954,236.944,229.16,234.293,228.231,231.25z"></path><ellipse style="fill:#1E1E1E;" cx="219.919" cy="237.75" rx="2.688" ry="3.5"></ellipse><path style="opacity:0.5;fill:#FFFFFE;" d="M226.936,237.874c0,0-3.584-1.85-4.162-3.006c-0.578-1.155-0.115-5.085,1.387-4.97s5.086,1.965,5.086,3.93C229.246,235.792,227.744,237.411,226.936,237.874z"></path></g><g><ellipse style="opacity:0.8;fill:#FFFFFF;" cx="220.237" cy="243.745" rx="5.217" ry="2.351"></ellipse><path style="fill:#FFFFFE;" d="M223.428,232.862c-0.81,0.89-0.372,2.029,0.979,2.544c1.349,0.516,3.1,0.214,3.91-0.677c0.81-0.889,0.731-1.653-0.618-2.169S224.238,231.972,223.428,232.862z"></path><path style="fill:#FFFFFE;" d="M219.659,231.79c0,1.5-3.105,4.111-5.957,4.111c-2.853,0-5.164-1.216-5.164-2.716c0-1.5,2.312-2.716,5.164-2.716C216.554,230.468,219.659,230.29,219.659,231.79z"></path><ellipse style="fill:#FFFFFE;" cx="216.466" cy="235.681" rx="1.322" ry="0.807"></ellipse></g><g><path d="M192.395,232.134c0.808-3.721,4.552-7.098,4.552-7.098s18.133-0.734,30.024-0.661c6.021,2.79,10.938,9.764,10.938,9.764s-12.028-3.817-18.646-3.817c-6.617,0-11.157,0.807-21.141,0.733c-0.734,3.818,2.391,9.651,2.391,9.651s-3.388-2.563-5.882-5.008c-0.919-0.078-1.965,0.086-2.749,0.937C191.63,235.235,191.976,233.522,192.395,232.134z"></path><path d="M222.622,226.291c0,0,10.069-1.524,16.088,1.803c-3.423-3.271-11.592-4.159-18.992-3.614C220.028,226.234,222.622,226.291,222.622,226.291z"></path><path d="M205.233,226.634c0,0-11.874-0.96-15.408-0.277c7.194-2.056,14.406-1.499,17.051-1.608C206.123,226.06,205.233,226.634,205.233,226.634z"></path></g><path d="M217.348,218.135c0,0,14.755,1.982,16.957,2.863C225.056,216.594,218.669,218.135,217.348,218.135z"></path><path d="M227.216,243.893c0,0-14.679,1.511-20.29,0.76C213.224,247.768,226.912,245.252,227.216,243.893z"></path><g><g><ellipse transform="matrix(0.7967 0.6044 -0.6044 0.7967 187.59 -72.7596)" cx="201.938" cy="242.435" rx="0.636" ry="1.398"></ellipse><ellipse transform="matrix(0.7959 0.6054 -0.6054 0.7959 189.5595 -73.5096)" cx="203.816" cy="244.419" rx="0.637" ry="1.401"></ellipse><ellipse transform="matrix(0.9709 0.2395 -0.2395 0.9709 64.9029 -42.4084)" cx="206.972" cy="245.887" rx="0.636" ry="1.4"></ellipse></g></g></g><ellipse style="fill:#FFFFFF;" cx="220.078" cy="241.131" rx="1.542" ry="1.046"></ellipse></g><g><g><path style="fill:#FFFFFF;" d="M299.769,240.324c0,0-3.523,3.579-8.038,4.79c-4.185,0.661-14.64-0.422-17.153-0.697c-2.57-0.282-8.978-1.776-6.283-14.461c5.505-4.184,11.35-4.845,11.35-4.845s17.936,1.454,22.199,4.258C302.632,231.514,301.53,238.121,299.769,240.324z"></path><path style="fill:#E4E0F3;" d="M304.044,231.79c0,0-1.32,6.387-3.082,7.047c-3.744-3.083-14.51-5.593-19.381-5.286c-4.871,0.308-13.684,4.772-13.684,4.772s-1.053-4.166,0.396-8.956c5.285-4.185,13.104-3.891,13.104-3.891S302.063,226.284,304.044,231.79z"></path></g><g><g><path d="M291.019,230.75c0,0,4.125,9.5-5.125,14.5c-4.25,0.125-13.875-1.125-13.875-1.125s-4.875-5.375-2.875-12.875C274.644,227.625,286.644,228.375,291.019,230.75z"></path><path style="fill:#A2D7DD;" d="M288.638,238.973c-0.579,1.495-1.518,3.082-2.994,4.652c-3.875,1.25-11.75,0.125-11.75,0.125s-1.503-1.777-2.293-4.731C276.704,235.735,284.047,234.847,288.638,238.973z"></path><path style="opacity:0.5;fill:#A2D7DD;" d="M271.769,231.25c5.25-3,14.375-2.125,17.125-0.375c0,0,1.47,3.644-0.256,8.098c-4.591-4.125-11.934-3.237-17.037,0.046C271.046,236.944,270.84,234.293,271.769,231.25z"></path><ellipse style="fill:#1E1E1E;" cx="280.081" cy="237.75" rx="2.688" ry="3.5"></ellipse><path style="opacity:0.5;fill:#FFFFFE;" d="M287.854,237.874c0,0-3.584-1.85-4.162-3.006c-0.578-1.155-0.115-5.085,1.387-4.97s5.086,1.965,5.086,3.93C290.164,235.792,288.662,237.411,287.854,237.874z"></path></g><g><ellipse style="opacity:0.8;fill:#FFFFFF;" cx="279.764" cy="243.745" rx="5.218" ry="2.351"></ellipse><path style="fill:#FFFFFE;" d="M284.346,232.862c-0.81,0.89-0.372,2.029,0.978,2.544c1.35,0.516,3.1,0.214,3.91-0.677c0.811-0.889,0.732-1.653-0.617-2.169S285.155,231.972,284.346,232.862z"></path><path style="fill:#FFFFFE;" d="M280.577,231.79c0,1.5-3.105,4.111-5.957,4.111c-2.853,0-5.164-1.216-5.164-2.716c0-1.5,2.312-2.716,5.164-2.716C277.472,230.468,280.577,230.29,280.577,231.79z"></path><ellipse style="fill:#FFFFFE;" cx="277.384" cy="235.681" rx="1.322" ry="0.807"></ellipse></g><g><path d="M307.606,232.134c-0.809-3.721-4.553-7.098-4.553-7.098s-18.133-0.734-30.024-0.661c-6.021,2.79-10.938,9.764-10.938,9.764s12.028-3.817,18.646-3.817s11.157,0.807,21.142,0.733c0.734,3.818-2.392,9.651-2.392,9.651s3.388-2.563,5.882-5.008c0.92-0.078,1.965,0.086,2.75,0.937C308.37,235.235,308.024,233.522,307.606,232.134z"></path><path d="M277.378,226.291c0,0-10.069-1.524-16.088,1.803c3.423-3.271,11.592-4.159,18.992-3.614C279.972,226.234,277.378,226.291,277.378,226.291z"></path><path d="M294.767,226.634c0,0,11.874-0.96,15.408-0.277c-7.194-2.056-14.406-1.499-17.051-1.608C293.877,226.06,294.767,226.634,294.767,226.634z"></path></g><path d="M282.653,218.135c0,0-14.756,1.982-16.958,2.863C274.944,216.594,281.331,218.135,282.653,218.135z"></path><path d="M272.784,243.893c0,0,14.679,1.511,20.291,0.76C286.776,247.768,273.088,245.252,272.784,243.893z"></path><g><g><ellipse transform="matrix(-0.7967 0.6044 -0.6044 -0.7967 682.051 255.4234)" cx="298.063" cy="242.435" rx="0.636" ry="1.398"></ellipse><ellipse transform="matrix(-0.7959 0.6054 -0.6054 -0.7959 679.8932 259.6547)" cx="296.184" cy="244.419" rx="0.637" ry="1.401"></ellipse><ellipse transform="matrix(-0.9709 0.2395 -0.2395 -0.9709 636.4111 414.4497)" cx="293.028" cy="245.887" rx="0.636" ry="1.4"></ellipse></g></g></g><ellipse style="fill:#FFFFFF;" cx="279.922" cy="241.131" rx="1.542" ry="1.046"></ellipse></g></g></g></svg>