<svg xmlns="http://www.w3.org/2000/svg" width="500" height="500" version="1.1"><g id="x060"><g><g><g><g><path style="fill:#FFFFFF;" d="M266.164,229.42c0,0-3.273,15.056,4.363,18.764c7.637,3.709,19.634,5.31,33.017-6.182c4.145-9.818-1.162-13.672-1.162-13.672s-7.199-6.764-18.108-6.109C273.364,222.874,266.164,229.42,266.164,229.42z"></path><path style="fill:#C2BFDC;" d="M284.273,220.911c-10.909,0.654-18.109,7.2-18.109,7.2s-0.549,2.528-0.673,5.767c11.731-1.304,23.899-2.418,35.348,0.044c1.122-4.162,1.543-6.903,1.543-6.903S295.183,220.257,284.273,220.911z"></path></g><g><path d="M266.6,222.657c0,0,5.674-6.764,13.092-8.728C272.927,213.274,269.655,214.583,266.6,222.657z"></path></g><g><g id="eyeXMLID_50_"><g><path style="fill:#84B9BF;" d="M278.878,223.64c-6.131,0-11.163,4.633-11.815,10.582h23.632C290.042,228.272,285.001,223.64,278.878,223.64z"></path><path style="fill:#A2D7DD;" d="M267.063,234.221c-0.047,0.431-0.075,0.867-0.075,1.31c0,6.574,5.317,11.891,11.891,11.891c6.566,0,11.893-5.317,11.893-11.891c0-0.443-0.029-0.879-0.076-1.31H267.063z"></path></g><g><path style="fill:none;stroke:#000000;stroke-width:2.7741;stroke-linecap:round;stroke-linejoin:round;" d="M290.771,235.531c0,6.574-5.326,11.891-11.893,11.891c-6.573,0-11.891-5.317-11.891-11.891c0-6.566,5.317-11.892,11.891-11.892C285.444,223.64,290.771,228.965,290.771,235.531z"></path></g></g><circle style="fill:#FFFFFF;stroke:#000000;stroke-width:1.8494;stroke-linecap:round;stroke-linejoin:round;" cx="277.951" cy="235.535" r="4.8"></circle></g><ellipse transform="matrix(0.85 -0.5268 0.5268 0.85 -86.8567 193.7621)" cx="296.781" cy="249.385" rx="1.091" ry="1.855"></ellipse><ellipse transform="matrix(0.8502 -0.5265 0.5265 0.8502 -87.9458 191.6312)" cx="292.709" cy="250.33" rx="1.09" ry="1.854"></ellipse><ellipse transform="matrix(0.9461 -0.324 0.324 0.9461 -65.9265 107.1606)" cx="288.854" cy="251.566" rx="1.091" ry="1.854"></ellipse></g><path d="M264.706,232.838c0,0,4.51-10.182,17.602-11.491c13.091-1.309,19.781,9.892,19.054,17.456c-1.455,3.636-9.018,9.891-9.018,9.891c4.945-0.872,14.109-7.272,16.436-12.219c0.874-2.763-5.235-23.854-27.927-20.219C265.892,219.283,264.706,232.838,264.706,232.838z"></path><path d="M306.017,231.821c0,0,10.764-3.637,11.055-2.619c-2.327,4.8-7.564,9.456-12.509,11.347C305.58,236.62,306.017,231.821,306.017,231.821z"></path></g><g><g><g><path style="fill:#FFFFFF;" d="M233.836,229.42c0,0,3.272,15.056-4.363,18.764c-7.636,3.709-19.635,5.31-33.017-6.182c-4.146-9.818,1.161-13.672,1.161-13.672s7.201-6.764,18.11-6.109C226.636,222.874,233.836,229.42,233.836,229.42z"></path><path style="fill:#C2BFDC;" d="M215.728,220.911c10.908,0.654,18.108,7.2,18.108,7.2s0.549,2.528,0.673,5.767c-11.73-1.304-23.898-2.418-35.347,0.044c-1.122-4.162-1.545-6.903-1.545-6.903S204.818,220.257,215.728,220.911z"></path></g><g><path d="M233.399,222.657c0,0-5.672-6.764-13.091-8.728C227.072,213.274,230.345,214.583,233.399,222.657z"></path></g><g><g id="eyeXMLID_30_"><g><path style="fill:#A2D7DD;" d="M209.306,234.221c-0.048,0.431-0.076,0.867-0.076,1.31c0,6.574,5.326,11.891,11.892,11.891c6.575,0,11.892-5.317,11.892-11.891c0-0.443-0.028-0.879-0.076-1.31H209.306z"></path><path style="fill:#84B9BF;" d="M221.121,223.64c-6.122,0-11.163,4.633-11.815,10.582h23.631C232.285,228.272,227.252,223.64,221.121,223.64z"></path></g><g><path style="fill:none;stroke:#000000;stroke-width:2.7741;stroke-linecap:round;stroke-linejoin:round;" d="M209.229,235.531c0,6.574,5.326,11.891,11.892,11.891c6.575,0,11.892-5.317,11.892-11.891c0-6.566-5.316-11.892-11.892-11.892C214.556,223.64,209.229,228.965,209.229,235.531z"></path></g></g><circle style="fill:#FFFFFF;stroke:#000000;stroke-width:1.8494;stroke-linecap:round;stroke-linejoin:round;" cx="222.049" cy="235.535" r="4.8"></circle></g><ellipse transform="matrix(-0.85 -0.5268 0.5268 -0.85 244.5694 568.4153)" cx="203.218" cy="249.385" rx="1.091" ry="1.855"></ellipse><ellipse transform="matrix(-0.8502 -0.5265 0.5265 -0.8502 251.714 572.2944)" cx="207.291" cy="250.33" rx="1.09" ry="1.854"></ellipse><ellipse transform="matrix(-0.946 -0.3241 0.3241 -0.946 329.347 557.9912)" cx="211.145" cy="251.566" rx="1.091" ry="1.854"></ellipse></g><path d="M235.293,232.838c0,0-4.51-10.182-17.601-11.491c-13.091-1.309-19.78,9.892-19.054,17.456c1.454,3.636,9.018,9.891,9.018,9.891c-4.945-0.872-14.108-7.273-16.437-12.219c-0.872-2.763,5.236-23.855,27.929-20.219C234.108,219.283,235.293,232.838,235.293,232.838z"></path><path d="M193.983,231.821c0,0-10.763-3.637-11.055-2.619c2.328,4.8,7.563,9.456,12.509,11.346C194.42,236.62,193.983,231.821,193.983,231.821z"></path></g></g></g></svg>