<svg xmlns="http://www.w3.org/2000/svg" width="500" height="500" version="1.1"><g id="x061"><g><g><g><g><g><path style="fill:#FFFFFF;" d="M266.647,228.42c0,0-3.272,15.056,4.363,18.764c7.637,3.709,19.636,5.31,33.017-6.182c4.146-9.818-1.161-13.672-1.161-13.672s-7.199-6.764-18.109-6.109C273.848,221.874,266.647,228.42,266.647,228.42z"></path><path style="fill:#C2BFDC;" d="M284.976,219.584c-10.91,0.654-18.108,7.2-18.108,7.2s-0.55,2.528-0.674,5.767c11.731-1.304,23.899-2.417,35.349,0.044c1.121-4.162,1.543-6.901,1.543-6.901S295.885,218.93,284.976,219.584z"></path></g><g><path d="M267.084,221.657c0,0,5.673-6.764,13.091-8.728C273.412,212.274,270.139,213.583,267.084,221.657z"></path></g><g><g id="eyeXMLID_9_"><g><path style="fill:#84B9BF;" d="M279.359,223.564c-6.332,0-11.495,4.957-11.856,11.198h23.713C290.854,228.521,285.691,223.564,279.359,223.564z"></path><path style="fill:#A2D7DD;" d="M267.503,234.762c-0.014,0.231-0.035,0.46-0.035,0.694c0,6.575,5.326,11.892,11.892,11.892s11.891-5.317,11.891-11.892c0-0.234-0.021-0.463-0.034-0.694H267.503z"></path></g><g><path style="fill:none;stroke:#000000;stroke-width:2.7741;stroke-linecap:round;stroke-linejoin:round;" d="M291.25,235.456c0,6.575-5.325,11.892-11.891,11.892s-11.892-5.317-11.892-11.892c0-6.565,5.326-11.892,11.892-11.892S291.25,228.89,291.25,235.456z"></path></g></g><circle style="fill:#FFFFFF;stroke:#000000;stroke-width:1.8494;stroke-linecap:round;stroke-linejoin:round;" cx="278.435" cy="235.459" r="4.8"></circle></g></g></g><g><path d="M265.19,231.838c0,0,4.443-11.491,17.601-11.491c18.109,0,18.69,16.546,17.963,24.11c1.673,1.746,5.819,0.873,7.419-2.328c0.873-2.763-0.072-29.527-26.836-26.874C266.375,218.283,265.19,231.838,265.19,231.838z"></path><path d="M301.336,237.366c-0.654,0.437-0.654,5.892-8.073,10.91c4.364,0.436,10.038,0.218,13.528-5.673C305.264,239.766,301.336,237.366,301.336,237.366z"></path><path d="M303.954,241.512c0,0,6.001-7.2,14.401-6.109c3.981,0.516,2.291,5.782-2.51,6.982c-4.96,1.24-11.128,1.963-11.128,1.963L303.954,241.512z"></path></g></g><g><g><g><g><path style="fill:#FFFFFF;" d="M233.352,228.42c0,0,3.272,15.056-4.363,18.764c-7.637,3.709-19.634,5.31-33.016-6.182c-4.146-9.818,1.16-13.672,1.16-13.672s7.2-6.764,18.11-6.109C226.152,221.874,233.352,228.42,233.352,228.42z"></path><path style="fill:#C2BFDC;" d="M215.024,219.584c10.909,0.654,18.11,7.2,18.11,7.2s0.548,2.528,0.671,5.767c-11.73-1.304-23.898-2.417-35.347,0.044c-1.122-4.162-1.544-6.901-1.544-6.901S204.116,218.93,215.024,219.584z"></path></g><g><path d="M232.916,221.657c0,0-5.673-6.764-13.091-8.728C226.588,212.274,229.861,213.583,232.916,221.657z"></path></g><g><g id="eyeXMLID_10_"><g><path style="fill:#84B9BF;" d="M220.64,223.564c-6.331,0-11.495,4.957-11.856,11.198h23.713C232.135,228.521,226.972,223.564,220.64,223.564z"></path><path style="fill:#A2D7DD;" d="M208.783,234.762c-0.014,0.231-0.036,0.46-0.036,0.694c0,6.575,5.328,11.892,11.892,11.892c6.566,0,11.892-5.317,11.892-11.892c0-0.234-0.021-0.463-0.036-0.694H208.783z"></path></g><g><path style="fill:none;stroke:#000000;stroke-width:2.7741;stroke-linecap:round;stroke-linejoin:round;" d="M208.748,235.456c0,6.575,5.328,11.892,11.892,11.892c6.566,0,11.892-5.317,11.892-11.892c0-6.565-5.326-11.892-11.892-11.892C214.075,223.564,208.748,228.89,208.748,235.456z"></path></g></g><circle style="fill:#FFFFFF;stroke:#000000;stroke-width:1.8494;stroke-linecap:round;stroke-linejoin:round;" cx="221.565" cy="235.459" r="4.8"></circle></g></g></g><g><path d="M234.81,231.838c0,0-4.444-11.491-17.601-11.491c-18.108,0-18.69,16.546-17.963,24.11c-1.673,1.746-5.819,0.873-7.418-2.328c-0.874-2.763,0.072-29.527,26.836-26.874C233.624,218.283,234.81,231.838,234.81,231.838z"></path><path d="M198.663,237.366c0.654,0.437,0.654,5.892,8.073,10.91c-4.363,0.436-10.036,0.218-13.527-5.673C194.736,239.766,198.663,237.366,198.663,237.366z"></path><path d="M196.045,241.512c0,0-6-7.2-14.4-6.109c-3.98,0.516-2.291,5.782,2.509,6.981c4.96,1.241,11.127,1.964,11.127,1.964L196.045,241.512z"></path></g></g></g></g></svg>