<svg xmlns="http://www.w3.org/2000/svg" width="500" height="500" version="1.1"><g id="x062"><g><g><g><g><g><path style="fill:#FFFFFF;" d="M266.931,227.42c0,0-3.272,15.056,4.364,18.764c7.636,3.709,19.633,5.31,33.015-6.182c4.146-9.818-1.159-13.672-1.159-13.672s-7.201-6.764-18.11-6.109C274.131,220.874,266.931,227.42,266.931,227.42z"></path><path style="fill:#C2BFDC;" d="M285.258,218.584c-10.909,0.654-18.109,7.2-18.109,7.2s-0.549,2.528-0.672,5.767c11.73-1.304,23.898-2.417,35.348,0.044c1.121-4.162,1.543-6.901,1.543-6.901S296.168,217.93,285.258,218.584z"></path></g><g><path d="M267.368,220.657c0,0,5.672-6.764,13.091-8.728C273.694,211.274,270.422,212.583,267.368,220.657z"></path></g><g><g id="eyeXMLID_48_"><g><path style="fill:#84B9BF;" d="M277.538,221.75c-5.479,0-10.006,4.796-10.878,11.087h21.764C287.55,226.546,283.016,221.75,277.538,221.75z"></path><path style="fill:#A2D7DD;" d="M266.66,232.837c-0.1,0.718-0.163,1.45-0.163,2.201c0,7.342,4.938,13.297,11.041,13.297c6.103,0,11.049-5.955,11.049-13.297c0-0.751-0.063-1.483-0.163-2.201H266.66z"></path></g><g><path style="fill:none;stroke:#000000;stroke-width:2.7741;stroke-linecap:round;stroke-linejoin:round;" d="M288.587,235.038c0,7.342-4.946,13.297-11.049,13.297c-6.104,0-11.041-5.955-11.041-13.297c0-7.342,4.938-13.288,11.041-13.288C283.641,221.75,288.587,227.696,288.587,235.038z"></path></g></g><ellipse style="fill:#FFFFFF;stroke:#000000;stroke-width:1.8494;stroke-linecap:round;stroke-linejoin:round;" cx="276.615" cy="235.039" rx="4.459" ry="5.367"></ellipse></g></g></g><g><path d="M265.473,230.838c0,0,4.444-11.491,17.602-11.491c18.109,0,18.69,16.546,17.964,24.11c1.672,1.746,5.818,0.873,7.418-2.328c0.873-2.763-0.072-29.527-26.837-26.874C266.657,217.283,265.473,230.838,265.473,230.838z"></path><g><path d="M299.494,221.238c0,0,13.527-6.836,16-10.909c-1.454,9.6-8.146,17.601-11.637,18.618C302.549,225.602,299.494,221.238,299.494,221.238z"></path><path d="M303.422,227.93c0.145,0.436,10.472,4.509,17.31,2.182c-3.492,8.437-13.237,13.527-17.601,14.546C305.458,238.693,303.422,227.93,303.422,227.93z"></path></g><path d="M301.619,236.366c-0.654,0.437-0.655,5.892-8.072,10.91c4.363,0.436,10.036,0.218,13.527-5.673C305.546,238.766,301.619,236.366,301.619,236.366z"></path></g></g><g><g><g><g><path style="fill:#FFFFFF;" d="M233.069,227.42c0,0,3.273,15.056-4.364,18.764c-7.636,3.709-19.633,5.31-33.016-6.182c-4.145-9.818,1.162-13.672,1.162-13.672s7.2-6.764,18.109-6.109C225.869,220.874,233.069,227.42,233.069,227.42z"></path><path style="fill:#C2BFDC;" d="M214.741,218.584c10.91,0.654,18.11,7.2,18.11,7.2s0.549,2.528,0.672,5.767c-11.731-1.304-23.899-2.417-35.348,0.044c-1.122-4.162-1.543-6.901-1.543-6.901S203.832,217.93,214.741,218.584z"></path></g><g><path d="M232.633,220.657c0,0-5.673-6.764-13.091-8.728C226.306,211.274,229.578,212.583,232.633,220.657z"></path></g><g><g id="eyeXMLID_26_"><g><path style="fill:#84B9BF;" d="M222.462,221.75c-5.479,0-10.013,4.796-10.886,11.087h21.764C232.468,226.546,227.94,221.75,222.462,221.75z"></path><path style="fill:#A2D7DD;" d="M211.576,232.837c-0.1,0.718-0.165,1.45-0.165,2.201c0,7.342,4.947,13.297,11.051,13.297c6.102,0,11.041-5.955,11.041-13.297c0-0.751-0.065-1.483-0.164-2.201H211.576z"></path></g><g><path style="fill:none;stroke:#000000;stroke-width:2.7741;stroke-linecap:round;stroke-linejoin:round;" d="M211.412,235.038c0,7.342,4.947,13.297,11.051,13.297c6.102,0,11.041-5.955,11.041-13.297c0-7.342-4.939-13.288-11.041-13.288C216.359,221.75,211.412,227.696,211.412,235.038z"></path></g></g><ellipse style="fill:#FFFFFF;stroke:#000000;stroke-width:1.8494;stroke-linecap:round;stroke-linejoin:round;" cx="223.385" cy="235.039" rx="4.459" ry="5.367"></ellipse></g></g></g><g><path d="M234.526,230.838c0,0-4.443-11.491-17.601-11.491c-18.109,0-18.69,16.546-17.963,24.11c-1.673,1.746-5.818,0.873-7.418-2.328c-0.873-2.763,0.073-29.527,26.836-26.874C233.342,217.283,234.526,230.838,234.526,230.838z"></path><g><path d="M200.506,221.238c0,0-13.528-6.836-16-10.909c1.454,9.6,8.145,17.601,11.637,18.618C197.452,225.602,200.506,221.238,200.506,221.238z"></path><path d="M196.579,227.93c-0.146,0.436-10.473,4.509-17.31,2.182c3.491,8.436,13.236,13.527,17.601,14.546C194.542,238.693,196.579,227.93,196.579,227.93z"></path></g><path d="M198.381,236.366c0.653,0.437,0.653,5.892,8.072,10.91c-4.364,0.436-10.036,0.218-13.527-5.673C194.453,238.766,198.381,236.366,198.381,236.366z"></path></g></g></g></g></svg>