<svg xmlns="http://www.w3.org/2000/svg" width="500" height="500" version="1.1"><g id="x066"><g><g><g><path style="fill:#FFFFFF;" d="M201.117,244.234c0,0,4.278,1.345,7.212,1.223c13.446-0.611,21.514-0.611,21.514-0.611s3.912-4.645,3.423-11.857c-4.768-5.99-12.346-7.212-17.358-7.334c-5.012-0.123-17.725,6.234-20.414,12.468C197.206,242.156,201.117,244.234,201.117,244.234z"></path><path style="fill:#E4E0F3;" d="M233.266,232.988c-4.768-5.99-12.346-7.212-17.358-7.334c-5.012-0.123-17.725,6.234-20.414,12.468c0.507,1.196,1.209,2.215,1.943,3.063c8.083-4.761,17.379-5.508,25.927-5.508c3.225,0.248,6.513,0.561,9.769,1.063C233.295,235.588,233.357,234.333,233.266,232.988z"></path></g><g><g><path d="M205.729,230.846c0,0-2.029,3.708-0.629,8.465c1.199,4.077,5.386,4.967,5.386,4.967l16.09-0.419c0,0,2.583-1.87,2.893-6.224c0.134-1.893,0.114-4.689-1.284-7.138C223.778,227.138,210.346,225.949,205.729,230.846z"></path><g><path style="fill:#A2D7DD;" d="M208.329,230.299c0,0-1.515,4.237-1.1,6.723c0.489,2.934,2.078,5.378,4.89,5.99c3.545,1.1,12.713,0.122,12.713,0.122s2.236-2.565,2.445-6.845c0.245-5.012-1.956-7.212-1.956-7.212s-3.3-2.812-9.167-2.567C210.285,226.754,208.329,230.299,208.329,230.299z"></path><path style="opacity:0.8;fill:#FFFFFF;" d="M224.465,241.667c0,1.62-2.901,1.833-6.479,1.833c-3.579,0-6.479-0.213-6.479-1.833s2.9-4.034,6.479-4.034C221.563,237.634,224.465,240.047,224.465,241.667z"></path><path style="fill:#84B9BF;" d="M227.286,235.811c0.085-4.668-1.966-6.734-1.966-6.734s-3.3-2.812-9.167-2.567c-5.868,0.245-7.824,3.79-7.824,3.79s-1.515,4.237-1.1,6.723c0.014,0.082,0.038,0.159,0.053,0.241C213.814,235.687,220.673,235.093,227.286,235.811z"></path></g><g><path d="M207.229,237.756c0,0,1.115-4.189,10.513-4.768c7.946-0.489,11.124,5.012,11.124,5.012s0.245-5.501-1.344-8.19c-4.156-2.2-15.158-3.912-19.681-0.244C206.496,232.5,206.618,236.9,207.229,237.756z"></path><ellipse style="fill:#84B9BF;" cx="217.938" cy="234.969" rx="4.616" ry="4.48"></ellipse><ellipse style="fill:#FFFFFF;" cx="217.938" cy="234.969" rx="3.211" ry="3.117"></ellipse></g></g></g><g><path d="M189.218,241.549c-0.114,0.547,5.877,3.079,12.314,2.938c-2.099-1.959-4.897-4.897-4.897-4.897s6.155-11.171,19.028-10.913c13.992,0.28,18.889,7.136,20.288,9.095c0-6.017-2.378-9.934-2.378-9.934s-8.983-6.65-18.75-5.876C200.692,223.08,190.898,233.574,189.218,241.549z"></path><path d="M206.568,224.758c0,0,14.831-6.014,28.962,0.839c-0.56-4.056-21.267-10.212-35.538,1.818C204.609,226.156,206.568,224.758,206.568,224.758z"></path></g><path d="M209.716,244.138c0,0-2.798,0.769-3.218,1.259c-0.419,0.491,22.037,0.7,23.646-0.63c-1.259-0.978-3.568-0.909-3.568-0.909L209.716,244.138z"></path></g><g><g><path style="fill:#FFFFFF;" d="M298.883,244.234c0,0-4.278,1.345-7.212,1.223c-13.446-0.611-21.515-0.611-21.515-0.611s-3.911-4.645-3.422-11.857c4.767-5.99,12.346-7.212,17.357-7.334c5.012-0.123,17.725,6.234,20.414,12.468C302.795,242.156,298.883,244.234,298.883,244.234z"></path><path style="fill:#E4E0F3;" d="M266.734,232.988c4.767-5.99,12.346-7.212,17.357-7.334c5.012-0.123,17.725,6.234,20.414,12.468c-0.507,1.196-1.209,2.215-1.943,3.063c-8.083-4.761-17.379-5.508-25.927-5.508c-3.226,0.248-6.514,0.561-9.77,1.063C266.705,235.588,266.644,234.333,266.734,232.988z"></path></g><g><g><path d="M294.271,230.846c0,0,2.029,3.708,0.629,8.465c-1.199,4.077-5.386,4.967-5.386,4.967l-16.091-0.419c0,0-2.583-1.87-2.893-6.224c-0.135-1.893-0.115-4.689,1.283-7.138C276.222,227.138,289.653,225.949,294.271,230.846z"></path><g><path style="fill:#A2D7DD;" d="M291.671,230.299c0,0,1.515,4.237,1.1,6.723c-0.488,2.934-2.078,5.378-4.89,5.99c-3.545,1.1-12.713,0.122-12.713,0.122s-2.235-2.565-2.444-6.845c-0.244-5.012,1.956-7.212,1.956-7.212s3.3-2.812,9.168-2.567C289.715,226.754,291.671,230.299,291.671,230.299z"></path><path style="opacity:0.8;fill:#FFFFFF;" d="M275.535,241.667c0,1.62,2.901,1.833,6.479,1.833c3.578,0,6.479-0.213,6.479-1.833s-2.9-4.034-6.479-4.034C278.437,237.634,275.535,240.047,275.535,241.667z"></path><path style="fill:#84B9BF;" d="M272.714,235.811c-0.085-4.668,1.966-6.734,1.966-6.734s3.3-2.812,9.168-2.567c5.867,0.245,7.823,3.79,7.823,3.79s1.515,4.237,1.1,6.723c-0.013,0.082-0.037,0.159-0.052,0.241C286.187,235.687,279.327,235.093,272.714,235.811z"></path></g><g><path d="M292.771,237.756c0,0-1.114-4.189-10.513-4.768C274.313,232.5,271.135,238,271.135,238s-0.245-5.5,1.345-8.19c4.156-2.2,15.157-3.912,19.68-0.244C293.504,232.5,293.382,236.9,292.771,237.756z"></path><ellipse style="fill:#84B9BF;" cx="282.063" cy="234.969" rx="4.616" ry="4.48"></ellipse><ellipse style="fill:#FFFFFF;" cx="282.063" cy="234.969" rx="3.212" ry="3.117"></ellipse></g></g></g><g><path d="M310.782,241.549c0.114,0.547-5.877,3.079-12.313,2.938c2.099-1.959,4.896-4.897,4.896-4.897s-6.154-11.171-19.028-10.913c-13.991,0.28-18.889,7.136-20.287,9.095c0-6.017,2.378-9.934,2.378-9.934s8.982-6.65,18.749-5.876C299.308,223.08,309.103,233.574,310.782,241.549z"></path><path d="M293.432,224.758c0,0-14.831-6.014-28.962,0.839c0.56-4.056,21.267-10.212,35.538,1.818C295.391,226.156,293.432,224.758,293.432,224.758z"></path></g><path d="M290.284,244.138c0,0,2.798,0.769,3.218,1.259c0.42,0.491-22.036,0.7-23.646-0.63c1.26-0.978,3.568-0.909,3.568-0.909L290.284,244.138z"></path></g></g></g></svg>