<svg xmlns="http://www.w3.org/2000/svg" width="500" height="500" version="1.1"><g id="x067"><g><g><g><path style="fill:#FFFFFF;" d="M199.58,243c0.219,0.277,1.224,3.338,3.449,3.672c2.447-0.556,25.475-1.001,25.475-1.001s5.006-8.344,0.891-18.355c-3.227-3.894-30.037,2.447-30.037,2.447S196.242,238.773,199.58,243z"></path><path style="fill:#E4E0F3;" d="M199.358,229.762c0,0-1.197,3.465-1.312,7.107c10.786-2.735,21.841-3.815,32.869-3.46c-0.187-1.914-0.646-3.965-1.521-6.093C226.167,223.421,199.358,229.762,199.358,229.762z"></path></g><g><g><path d="M204.697,230.651c0,0-1.224,12.682,4.005,15.018c5.674,0.222,19.356,0.112,19.356,0.112s2.192-2.561,2.95-8.01c0.756-5.449-0.455-11.352-0.455-11.352S207.589,225.423,204.697,230.651z"></path><path style="fill:#A2D7DD;" d="M207.546,230.203c0,0-1.514,10.898,2.876,14.833c4.995,0.455,15.59-0.151,15.59-0.151s2.17-2.851,2.725-8.174c0.757-7.266-0.757-11.05-0.757-11.05S209.665,226.419,207.546,230.203z"></path><ellipse style="opacity:0.8;fill:#FFFFFF;" cx="218.328" cy="242.523" rx="5.134" ry="2.445"></ellipse><path style="fill:#84B9BF;" d="M227.98,225.662c0,0-18.315,0.757-20.434,4.541c0,0-0.775,5.586,0.395,10.204c6.118-2.466,13.664-3.411,20.582-2.183c0.084-0.482,0.159-0.981,0.214-1.513C229.495,229.446,227.98,225.662,227.98,225.662z"></path><path d="M207.092,239.285c0,0,2.12-4.39,10.748-5.146c8.628-0.757,11.957,3.179,11.957,3.179s0.406-7.594-0.402-10.002c-2.171-1.956-23.059,1.526-23.059,1.526L207.092,239.285z"></path><ellipse style="fill:#84B9BF;" cx="218.671" cy="235.652" rx="5.199" ry="6.171"></ellipse><ellipse style="fill:#FFFFFF;" cx="218.671" cy="235.652" rx="3.726" ry="4.423"></ellipse></g></g><g><path d="M237.293,232.432c0,0-7.009-2.336-10.125-5.229c-2.781,1.001-8.564,3.115-26.253,4.116c-2.782,1.446-2.782,8.788-0.779,12.347c-3.56-1.557-5.562-4.671-6.674-9.789c-3.337,0.667-9.678,2.448-9.233,2.225c0.444-0.222,11.013-11.124,12.571-13.905c2.224,0.223,8.343,2.226,15.907,1.224c7.565-1.001,14.017-2.114,14.797-2.114C228.282,221.307,237.071,231.764,237.293,232.432z"></path><path d="M200.359,220.306c0.334-0.333,18.133-5.339,21.359-5.005c3.225,0.333,9.345,6.118,9.567,7.675c-3.672-2.67-7.566-5.229-10.347-5.229S200.359,220.306,200.359,220.306z"></path><path d="M204.529,246.659c-0.581-0.026,3.689-1.221,5.186-1.456c2.627,0.021,12.206,0.021,15.877-0.156c1.697,0.546,3.793,1.171,3.495,1.25C228.787,246.375,220.677,247.396,204.529,246.659z"></path></g></g><g><g><path style="fill:#FFFFFF;" d="M300.42,243c-0.219,0.277-1.223,3.338-3.448,3.672c-2.447-0.556-25.476-1.001-25.476-1.001s-5.006-8.344-0.891-18.355c3.227-3.894,30.036,2.447,30.036,2.447S303.758,238.773,300.42,243z"></path><path style="fill:#E4E0F3;" d="M300.642,229.762c0,0,1.198,3.465,1.313,7.107c-10.786-2.735-21.841-3.815-32.869-3.46c0.187-1.914,0.646-3.965,1.521-6.093C273.832,223.421,300.642,229.762,300.642,229.762z"></path></g><g><g><path d="M295.303,230.651c0,0,1.224,12.682-4.006,15.019c-5.673,0.222-19.355,0.112-19.355,0.112s-2.192-2.561-2.95-8.01c-0.756-5.449,0.455-11.352,0.455-11.352S292.411,225.423,295.303,230.651z"></path><path style="fill:#A2D7DD;" d="M292.454,230.203c0,0,1.514,10.898-2.877,14.833c-4.994,0.455-15.59-0.151-15.59-0.151s-2.17-2.851-2.725-8.174c-0.758-7.266,0.757-11.05,0.757-11.05S290.336,226.419,292.454,230.203z"></path><ellipse style="opacity:0.8;fill:#FFFFFF;" cx="281.671" cy="242.523" rx="5.134" ry="2.445"></ellipse><path style="fill:#84B9BF;" d="M272.02,225.662c0,0,18.316,0.757,20.435,4.541c0,0,0.774,5.586-0.396,10.204c-6.118-2.466-13.664-3.411-20.582-2.183c-0.084-0.482-0.158-0.981-0.214-1.513C270.505,229.446,272.02,225.662,272.02,225.662z"></path><path d="M292.908,239.285c0,0-2.12-4.39-10.747-5.146c-8.629-0.757-11.958,3.179-11.958,3.179s-0.405-7.594,0.402-10.002c2.171-1.956,23.06,1.526,23.06,1.526L292.908,239.285z"></path><ellipse style="fill:#84B9BF;" cx="281.329" cy="235.652" rx="5.199" ry="6.171"></ellipse><ellipse style="fill:#FFFFFF;" cx="281.328" cy="235.652" rx="3.726" ry="4.423"></ellipse></g></g><g><path d="M262.707,232.432c0,0,7.009-2.336,10.125-5.229c2.78,1.001,8.563,3.115,26.252,4.116c2.782,1.446,2.782,8.788,0.779,12.347c3.561-1.557,5.563-4.671,6.675-9.789c3.338,0.667,9.678,2.448,9.232,2.225c-0.443-0.222-11.013-11.124-12.57-13.905c-2.224,0.223-8.343,2.226-15.907,1.224c-7.565-1.001-14.017-2.114-14.797-2.114C271.718,221.307,262.93,231.764,262.707,232.432z"></path><path d="M299.641,220.306c-0.334-0.333-18.133-5.339-21.359-5.005c-3.225,0.333-9.344,6.118-9.566,7.675c3.672-2.67,7.565-5.229,10.346-5.229C281.842,217.747,299.641,220.306,299.641,220.306z"></path><path d="M295.471,246.659c0.58-0.026-3.688-1.221-5.186-1.456c-2.626,0.021-12.205,0.021-15.877-0.156c-1.697,0.546-3.794,1.171-3.494,1.25C271.213,246.375,279.323,247.396,295.471,246.659z"></path></g></g></g></g></svg>