<svg xmlns="http://www.w3.org/2000/svg" width="500" height="500" version="1.1"><g id="x068"><g><g><g><path style="fill:#FFFFFF;" d="M266.363,231.414c0,0,0.203,13.079,6.335,16.45c9.706,2.045,14.712,0.512,14.712,0.512s7.459-0.818,11.343-3.167c4.801-7.05,5.313-18.391,4.903-20.537c-0.408-2.146-11.443-8.787-23.807-7.561C267.487,218.336,266.771,229.167,266.363,231.414z"></path><path style="fill:#E4E0F3;" d="M279.85,217.11c12.363-1.226,23.398,5.416,23.807,7.561c0.214,1.115,0.176,4.717-0.583,8.908c-11.386-4.227-25.064-4.301-36.571,0.048c-0.124-1.343-0.139-2.213-0.139-2.213C266.771,229.167,267.487,218.336,279.85,217.11z"></path></g><g><path d="M280.667,218.132c3.985,0,10.32,2.043,10.32,14.611c0,11.443-8.242,12.159-10.32,12.159s-10.319-0.716-10.319-12.159C270.348,220.175,276.683,218.132,280.667,218.132z"></path><g><path style="fill:#A2D7DD;" d="M280.667,221.167c3.059,0,7.919,1.577,7.919,11.271c0,8.826-6.256,10.008-7.919,10.008c-1.661,0-7.919-1.182-7.919-10.009C272.748,222.744,277.609,221.167,280.667,221.167z"></path></g><path d="M280.667,220.838c3.228,0,8.336,0.139,8.336,10.368c0,0.233-9.022-2.058-16.684,0.969C272.505,222.447,277.501,220.838,280.667,220.838z"></path><ellipse style="fill:#84B9BF;" cx="280.381" cy="232.185" rx="4.348" ry="6.025"></ellipse><ellipse style="fill:#FFFFFF;" cx="280.382" cy="232.185" rx="2.865" ry="4.656"></ellipse></g><g><g><path d="M298.14,245.515c0,0,5.108-7.152,4.29-16.961c-1.634-8.072-16.245-10.013-21.968-8.685c-5.722,1.329-13.077,4.087-14.713,15.838c-0.817,0.51-1.021-0.206-1.021-0.206s-0.92-9.399,4.087-15.733c5.007-6.335,18.188-5.825,26.872-3.781c8.685,2.043,14.406,9.706,14.509,11.75c-1.124,1.124-3.985,1.329-3.985,1.329s4.598,2.963,4.904,4.598s-5.006,4.086-5.619,4.188c2.758-0.102,3.679,0.205,3.576,0.716C308.97,239.078,304.679,245.004,298.14,245.515z"></path><path d="M290.17,209.855c-5.621-1.532-15.837-0.408-20.332,3.372C273.312,206.996,285.061,205.156,290.17,209.855z"></path></g><g><path d="M287.513,247.967c0.291,0.677-2.35,2.351-7.662,2.351c-5.313,0-7.562-1.942-7.562-2.555s3.883,0.409,7.97,0.204C284.549,247.456,287.207,247.252,287.513,247.967z"></path><g><ellipse transform="matrix(-0.9007 0.4345 -0.4345 -0.9007 663.886 345.8015)" cx="292.417" cy="248.784" rx="0.817" ry="1.738"></ellipse><ellipse transform="matrix(-0.9007 0.4345 -0.4345 -0.9007 669.5236 341.8546)" cx="295.687" cy="247.456" rx="0.818" ry="1.737"></ellipse></g></g></g></g><g><g><path style="fill:#FFFFFF;" d="M233.637,231.414c0,0-0.204,13.079-6.334,16.45c-9.707,2.045-14.714,0.512-14.714,0.512s-7.458-0.818-11.341-3.167c-4.802-7.05-5.313-18.391-4.903-20.537c0.407-2.146,11.442-8.787,23.806-7.561C232.513,218.336,233.229,229.167,233.637,231.414z"></path><path style="fill:#E4E0F3;" d="M220.15,217.11c-12.363-1.226-23.398,5.416-23.806,7.561c-0.214,1.115-0.176,4.717,0.582,8.908c11.385-4.227,25.065-4.301,36.571,0.048c0.124-1.343,0.139-2.213,0.139-2.213C233.229,229.167,232.513,218.336,220.15,217.11z"></path></g><g><path d="M219.333,218.132c-3.985,0-10.319,2.043-10.319,14.611c0,11.443,8.241,12.159,10.319,12.159s10.319-0.716,10.319-12.159C229.652,220.175,223.317,218.132,219.333,218.132z"></path><g><path style="fill:#A2D7DD;" d="M219.333,221.167c-3.058,0-7.919,1.577-7.919,11.271c0,8.826,6.256,10.008,7.919,10.008c1.662,0,7.919-1.182,7.919-10.009C227.252,222.744,222.391,221.167,219.333,221.167z"></path></g><path d="M219.333,220.838c-3.227,0-8.336,0.139-8.336,10.368c0,0.233,9.022-2.058,16.684,0.969C227.495,222.447,222.5,220.838,219.333,220.838z"></path><ellipse style="fill:#84B9BF;" cx="219.619" cy="232.185" rx="4.348" ry="6.024"></ellipse><ellipse style="fill:#FFFFFF;" cx="219.619" cy="232.185" rx="2.865" ry="4.656"></ellipse></g><g><g><path d="M201.861,245.515c0,0-5.109-7.152-4.291-16.961c1.635-8.072,16.245-10.013,21.968-8.685c5.721,1.329,13.077,4.087,14.713,15.838c0.817,0.51,1.021-0.206,1.021-0.206s0.919-9.399-4.088-15.733c-5.006-6.335-18.188-5.825-26.872-3.781c-8.685,2.043-14.405,9.706-14.509,11.75c1.124,1.124,3.986,1.329,3.986,1.329s-4.599,2.963-4.905,4.598s5.006,4.086,5.619,4.188c-2.758-0.102-3.678,0.205-3.576,0.716C191.031,239.078,195.322,245.004,201.861,245.515z"></path><path d="M209.83,209.855c5.62-1.532,15.837-0.408,20.332,3.372C226.688,206.996,214.939,205.156,209.83,209.855z"></path></g><g><path d="M212.487,247.967c-0.291,0.677,2.35,2.351,7.663,2.351s7.562-1.942,7.562-2.555s-3.884,0.409-7.97,0.204C215.45,247.456,212.794,247.252,212.487,247.967z"></path><g><ellipse transform="matrix(0.9008 0.4343 -0.4343 0.9008 128.6332 -65.463)" cx="207.583" cy="248.784" rx="0.817" ry="1.738"></ellipse><ellipse transform="matrix(0.9007 0.4345 -0.4345 0.9007 127.8162 -64.1954)" cx="204.313" cy="247.456" rx="0.818" ry="1.737"></ellipse></g></g></g></g></g></g></svg>