<svg xmlns="http://www.w3.org/2000/svg" width="500" height="500" version="1.1"><g id="x9064"><g><g><g><g><path style="fill:#FFF9FF;" d="M200.047,243.028c0,0,8.236,5.377,19.676,3.775c11.44-1.602,14.529-4.577,14.529-4.577s1.259-5.262,1.259-7.893c-2.288-3.432-15.901-6.521-19.563-6.864c-3.66-0.343-18.419,5.262-18.419,5.262L200.047,243.028z"></path><path style="fill:#E4E0F3;" d="M234.998,238.646c0.271-1.5,0.513-3.158,0.513-4.312c-2.288-3.432-15.901-6.521-19.563-6.864c-3.66-0.343-18.419,5.262-18.419,5.262l1.479,6.053C210.668,235.667,223.554,234.879,234.998,238.646z"></path></g><g><path style="fill:#A2D7DD;" d="M206.109,231.473c0,0-0.343,5.148,2.859,9.496c3.204,4.347,5.72,6.406,10.754,5.834c5.034-0.572,7.322-4.805,8.237-8.123c0.915-3.318,0.457-8.237,0.457-8.237s-5.605-4.233-12.469-2.975C209.084,228.728,206.109,231.473,206.109,231.473z"></path><ellipse style="opacity:0.5;fill:#FFF9FF;" cx="218.181" cy="243.79" rx="4.702" ry="3.089"></ellipse><circle style="fill:#84B9BF;" cx="218.221" cy="237.5" r="4.5"></circle><path style="fill:#84B9BF;" d="M207.722,237.75c0,0,7.25-2.5,20-0.75c1.25-4.25,0.695-6.556,0.695-6.556s-5.445-2.944-11.945-2.444s-10.25,2.5-10.25,2.5L207.722,237.75z"></path><path style="opacity:0.5;" d="M207.722,237.75c0,0,3.661-1.25,10.661-1.25s9,0.5,9,0.5v-6.333c0,0-5.822-2.333-10.911-2.667s-9.422,1.833-9.422,1.833L207.722,237.75z"></path><g><ellipse cx="218.458" cy="237.625" rx="2.458" ry="3.125"></ellipse><ellipse style="fill:#FFF9FF;" cx="218.458" cy="236.542" rx="1.212" ry="1.63"></ellipse></g><path d="M207.253,230.901c0,0-0.686,10.868,6.979,14.415c-0.342,0.572-0.914,0.801-0.914,0.801s-8.238-3.204-7.78-14.529C206.338,230.558,207.253,230.901,207.253,230.901z"></path><path d="M226.358,231.13c0,0,1.613,6.62-0.801,13.271c0.801,0.343,4.462-4.119,4.575-11.784C228.303,231.13,226.358,231.13,226.358,231.13z"></path></g><path d="M192.61,231.588c0,0,2.365,9.418,8.162,11.859c-1.985-6.254-1.525-9.152-1.525-9.152s9.458-4.882,17.694-4.577c8.237,0.306,13.53,3.115,20.196,6.698c-1.783-2.058-1.75-2.25-1.75-2.25s0.406-0.242,3.168-1.333c-2.668-2.167-9.397-8.2-22.87-8.833C203.984,223.45,192.61,231.588,192.61,231.588z"></path><path d="M227.813,227.875c0,0,2.375-0.875,4.875-2.75c-2.75-0.125-8.5,0.375-8.5,0.375L227.813,227.875z"></path><path d="M215.686,224c0,0-8-0.667-14,0.5c4.667,0.667,7.667,1.667,7.667,1.667L215.686,224z"></path><path d="M207.253,245.087c0,0,3.434,0.686,6.064,1.029c2.631,0.343,3.546,0.687,3.546,1.258c0,0.572-3.101,0.835-4.575,0.343C209.541,246.803,207.253,245.087,207.253,245.087z"></path><path d="M209.999,246.537c0,0-0.456,1.754-0.838,1.716c-0.383-0.039-0.306-2.288-0.306-2.174C208.855,246.193,209.999,246.537,209.999,246.537z"></path><path d="M217.473,248.024c0,0-0.419-0.381-0.152-0.839c0.267-0.458,1.03-0.152,1.03,0.153C218.351,247.643,218.273,248.063,217.473,248.024z"></path><path d="M219.15,247.784c0,0-0.419-0.381-0.152-0.839c0.267-0.458,1.03-0.152,1.03,0.153C220.028,247.403,219.951,247.823,219.15,247.784z"></path><path d="M221.106,247.535c0,0-0.927-0.309-0.392-0.811c0.534-0.501,2.19-0.326,2.215-0.022C222.954,247.006,222.822,247.438,221.106,247.535z"></path><path d="M208.512,245.888c0,0-1.374,1.184-1.678,1.106c-0.305-0.076,0.192-1.793,0.382-1.907C208.054,245.468,208.512,245.888,208.512,245.888z"></path><path d="M205.042,244.592c0,0,0.953,0.228,0.953,0.496c0,0.267-1.258,1.183-1.373,0.877S204.776,244.707,205.042,244.592z"></path></g><g><path d="M236.853,223.833c0,0-14.5-3.833-33.334-2C213.853,219,228.853,219.167,236.853,223.833z"></path></g></g><g><g><g><path style="fill:#FFF9FF;" d="M299.954,243.028c0,0-8.236,5.377-19.676,3.775c-11.439-1.602-14.529-4.577-14.529-4.577s-1.258-5.262-1.258-7.893c2.287-3.432,15.9-6.521,19.563-6.864c3.66-0.343,18.418,5.262,18.418,5.262L299.954,243.028z"></path><path style="fill:#E4E0F3;" d="M265.003,238.646c-0.27-1.5-0.512-3.158-0.512-4.312c2.287-3.432,15.9-6.521,19.563-6.864c3.66-0.343,18.418,5.262,18.418,5.262l-1.479,6.053C289.333,235.667,276.448,234.879,265.003,238.646z"></path></g><g><path style="fill:#A2D7DD;" d="M293.892,231.473c0,0,0.344,5.148-2.859,9.496c-3.203,4.347-5.719,6.406-10.754,5.834c-5.033-0.572-7.322-4.805-8.236-8.123c-0.916-3.318-0.457-8.237-0.457-8.237s5.605-4.233,12.469-2.975C290.917,228.728,293.892,231.473,293.892,231.473z"></path><ellipse style="opacity:0.5;fill:#FFF9FF;" cx="281.818" cy="243.79" rx="4.702" ry="3.089"></ellipse><circle style="fill:#84B9BF;" cx="281.778" cy="237.5" r="4.5"></circle><path style="fill:#84B9BF;" d="M292.28,237.75c0,0-7.25-2.5-20-0.75c-1.25-4.25-0.695-6.556-0.695-6.556S277.03,227.5,283.53,228s10.25,2.5,10.25,2.5L292.28,237.75z"></path><path style="opacity:0.5;" d="M292.28,237.75c0,0-3.662-1.25-10.662-1.25s-9,0.5-9,0.5v-6.333c0,0,5.822-2.333,10.912-2.667c5.088-0.333,9.422,1.833,9.422,1.833L292.28,237.75z"></path><g><ellipse cx="281.54" cy="237.625" rx="2.459" ry="3.125"></ellipse><ellipse style="fill:#FFF9FF;" cx="281.54" cy="236.542" rx="1.213" ry="1.63"></ellipse></g><path d="M292.749,230.901c0,0,0.686,10.868-6.979,14.415c0.342,0.572,0.914,0.801,0.914,0.801s8.238-3.204,7.779-14.529C293.663,230.558,292.749,230.901,292.749,230.901z"></path><path d="M273.644,231.13c0,0-1.613,6.62,0.801,13.271c-0.801,0.343-4.463-4.119-4.576-11.784C271.698,231.13,273.644,231.13,273.644,231.13z"></path></g><path d="M307.392,231.588c0,0-2.365,9.418-8.162,11.859c1.984-6.254,1.525-9.152,1.525-9.152s-9.459-4.882-17.695-4.577s-13.529,3.115-20.195,6.698c1.783-2.058,1.75-2.25,1.75-2.25s-0.406-0.242-3.168-1.333c2.668-2.167,9.396-8.2,22.869-8.833C296.017,223.45,307.392,231.588,307.392,231.588z"></path><path d="M272.188,227.875c0,0-2.375-0.875-4.875-2.75c2.75-0.125,8.5,0.375,8.5,0.375L272.188,227.875z"></path><path d="M284.315,224c0,0,8-0.667,14,0.5c-4.666,0.667-7.666,1.667-7.666,1.667L284.315,224z"></path><path d="M292.749,245.087c0,0-3.434,0.686-6.064,1.029c-2.631,0.343-3.547,0.687-3.547,1.258c0,0.572,3.102,0.835,4.576,0.343C290.46,246.803,292.749,245.087,292.749,245.087z"></path><path d="M290.003,246.537c0,0,0.455,1.754,0.838,1.716c0.383-0.039,0.305-2.288,0.305-2.174C291.146,246.193,290.003,246.537,290.003,246.537z"></path><path d="M282.528,248.024c0,0,0.42-0.381,0.152-0.839c-0.266-0.458-1.029-0.152-1.029,0.153C281.651,247.643,281.728,248.063,282.528,248.024z"></path><path d="M280.851,247.784c0,0,0.42-0.381,0.152-0.839c-0.266-0.458-1.029-0.152-1.029,0.153C279.974,247.403,280.05,247.823,280.851,247.784z"></path><path d="M278.896,247.535c0,0,0.926-0.309,0.391-0.811c-0.533-0.501-2.189-0.326-2.215-0.022C277.048,247.006,277.179,247.438,278.896,247.535z"></path><path d="M291.489,245.888c0,0,1.375,1.184,1.678,1.106c0.305-0.076-0.191-1.793-0.381-1.907C291.948,245.468,291.489,245.888,291.489,245.888z"></path><path d="M294.96,244.592c0,0-0.953,0.228-0.953,0.496c0,0.267,1.258,1.183,1.373,0.877S295.226,244.707,294.96,244.592z"></path></g><g><path d="M263.149,223.833c0,0,14.5-3.833,33.334-2C286.149,219,271.149,219.167,263.149,223.833z"></path></g></g></g></g></svg>