<svg xmlns="http://www.w3.org/2000/svg" width="500" height="500" version="1.1"><g id="x9065"><g><g><g><g><path style="fill:#FFF9FF;" d="M200.087,244.028c0,0,8.236,5.377,19.676,3.775c11.439-1.602,14.529-4.577,14.529-4.577s1.258-5.262,1.258-7.893c-2.287-3.432-17.847-8.656-21.509-9c-3.66-0.343-16.472,7.398-16.472,7.398L200.087,244.028z"></path><path style="fill:#E4E0F3;" d="M235.038,239.646c0.27-1.5,0.512-3.158,0.512-4.312c-2.287-3.432-15.912-6.409-19.563-6.864c-9.113-1.136-18.418,5.262-18.418,5.262l1.479,6.053C210.708,236.667,223.593,235.879,235.038,239.646z"></path></g><g><path style="fill:#84B9BF;" d="M206.149,231.473c0,0-0.344,5.148,2.859,9.496c3.203,4.347,5.719,6.406,10.754,5.834c5.033-0.572,7.322-4.805,8.236-8.123c0.916-3.318,0.457-8.237,0.457-8.237s-5.605-4.233-12.469-2.975C209.124,228.728,206.149,231.473,206.149,231.473z"></path><ellipse style="opacity:0.5;fill:#FFF9FF;" cx="218.223" cy="243.79" rx="4.702" ry="3.089"></ellipse><circle style="fill:#84B9BF;" cx="218.263" cy="236.5" r="4.5"></circle><path style="fill:#84B9BF;" d="M207.761,237.75c0,0,7.25-2.5,20-0.75c1.25-4.25,0.695-6.556,0.695-6.556s-5.445-2.944-11.945-2.444s-10.47,1.563-10.47,1.563L207.761,237.75z"></path><path style="opacity:0.5;" d="M207.761,237.75c0,0,3.662-1.25,10.662-1.25s9,0.5,9,0.5v-6.333c0,0-5.822-2.333-10.912-2.667c-5.088-0.333-9.422,1.833-9.422,1.833L207.761,237.75z"></path><g><ellipse cx="218.501" cy="236.625" rx="2.459" ry="3.125"></ellipse></g><path d="M207.354,229.375c0,0-0.747,12.395,6.917,15.941c-0.342,0.572-0.914,0.801-0.914,0.801s-8.815-3.054-8.003-15.867C206.041,229.813,207.354,229.375,207.354,229.375z"></path><path d="M226.397,231.13c0,0,1.613,6.62-0.801,13.271c0.801,0.343,4.463-4.119,4.576-11.784C228.343,231.13,226.397,231.13,226.397,231.13z"></path></g><path d="M191.208,231c0,0,3.807,11.006,9.604,13.447c-3.438-7.114-2.771-10.447-2.771-10.447s8.25-5.5,13.875-4.875c14.625,0.875,18.709,7.542,25.375,11.125c-1.783-2.058-1.864-5.083-1.864-5.083s-7.523-10.892-21.011-10.792C197.541,224.5,191.208,231,191.208,231z"></path><path d="M225.708,229.5c0,0,4.166-1.167,7.208-5.125c-5.063,1-13.875,1.125-13.875,1.125L225.708,229.5z"></path><path d="M216.374,224.667c0,0-8.333-1.667-18.333,0.167c9.167,0.167,14.167,1.833,14.167,1.833L216.374,224.667z"></path><path d="M210.038,247.537c0,0-0.455,1.754-0.838,1.716c-0.383-0.039-0.305-2.288-0.305-2.174C208.896,247.193,210.038,247.537,210.038,247.537z"></path><path d="M208.552,246.888c0,0-1.375,1.184-1.678,1.106c-0.305-0.076,0.191-1.793,0.381-1.907C208.093,246.468,208.552,246.888,208.552,246.888z"></path><path d="M205.081,245.592c0,0,0.953,0.228,0.953,0.496c0,0.267-1.258,1.183-1.373,0.877S204.815,245.707,205.081,245.592z"></path></g><g><path d="M236.751,224.403c0,0-14.358-4.335-33.244-3.156C213.933,218.774,228.918,219.462,236.751,224.403z"></path></g></g><g><g><g><path style="fill:#FFF9FF;" d="M299.913,244.028c0,0-8.236,5.377-19.676,3.775c-11.439-1.602-14.529-4.577-14.529-4.577s-1.258-5.262-1.258-7.893c2.287-3.432,17.847-8.656,21.509-9c3.66-0.343,16.472,7.398,16.472,7.398L299.913,244.028z"></path><path style="fill:#E4E0F3;" d="M264.962,239.646c-0.27-1.5-0.512-3.158-0.512-4.312c2.287-3.432,15.912-6.409,19.563-6.864c9.113-1.136,18.418,5.262,18.418,5.262l-1.479,6.053C289.292,236.667,276.407,235.879,264.962,239.646z"></path></g><g><path style="fill:#84B9BF;" d="M293.851,231.473c0,0,0.344,5.148-2.859,9.496c-3.203,4.347-5.719,6.406-10.754,5.834c-5.033-0.572-7.322-4.805-8.236-8.123c-0.916-3.318-0.457-8.237-0.457-8.237s5.605-4.233,12.469-2.975C290.876,228.728,293.851,231.473,293.851,231.473z"></path><ellipse style="opacity:0.5;fill:#FFF9FF;" cx="281.777" cy="243.79" rx="4.702" ry="3.089"></ellipse><circle style="fill:#84B9BF;" cx="281.737" cy="236.5" r="4.5"></circle><path style="fill:#84B9BF;" d="M292.239,237.75c0,0-7.25-2.5-20-0.75c-1.25-4.25-0.695-6.556-0.695-6.556s5.445-2.944,11.945-2.444s10.47,1.563,10.47,1.563L292.239,237.75z"></path><path style="opacity:0.5;" d="M292.239,237.75c0,0-3.662-1.25-10.662-1.25s-9,0.5-9,0.5v-6.333c0,0,5.822-2.333,10.912-2.667c5.088-0.333,9.422,1.833,9.422,1.833L292.239,237.75z"></path><g><ellipse cx="281.499" cy="236.625" rx="2.459" ry="3.125"></ellipse></g><path d="M292.646,229.375c0,0,0.747,12.395-6.917,15.941c0.342,0.572,0.914,0.801,0.914,0.801s8.815-3.054,8.003-15.867C293.959,229.813,292.646,229.375,292.646,229.375z"></path><path d="M273.603,231.13c0,0-1.613,6.62,0.801,13.271c-0.801,0.343-4.463-4.119-4.576-11.784C271.657,231.13,273.603,231.13,273.603,231.13z"></path></g><path d="M308.792,231c0,0-3.807,11.006-9.604,13.447c3.438-7.114,2.771-10.447,2.771-10.447s-8.25-5.5-13.875-4.875c-14.625,0.875-18.709,7.542-25.375,11.125c1.783-2.058,1.864-5.083,1.864-5.083s7.523-10.892,21.011-10.792C302.459,224.5,308.792,231,308.792,231z"></path><path d="M274.292,229.5c0,0-4.166-1.167-7.208-5.125c5.063,1,13.875,1.125,13.875,1.125L274.292,229.5z"></path><path d="M283.626,224.667c0,0,8.333-1.667,18.333,0.167c-9.167,0.167-14.167,1.833-14.167,1.833L283.626,224.667z"></path><path d="M289.962,247.537c0,0,0.455,1.754,0.838,1.716c0.383-0.039,0.305-2.288,0.305-2.174C291.104,247.193,289.962,247.537,289.962,247.537z"></path><path d="M291.448,246.888c0,0,1.375,1.184,1.678,1.106c0.305-0.076-0.191-1.793-0.381-1.907C291.907,246.468,291.448,246.888,291.448,246.888z"></path><path d="M294.919,245.592c0,0-0.953,0.228-0.953,0.496c0,0.267,1.258,1.183,1.373,0.877S295.185,245.707,294.919,245.592z"></path></g><g><path d="M263.248,224.403c0,0,14.359-4.335,33.244-3.156C286.067,218.774,271.082,219.462,263.248,224.403z"></path></g></g></g></g></svg>