<svg xmlns="http://www.w3.org/2000/svg" width="500" height="500" version="1.1"><g id="x9066"><g><g><g><g><g><g><path style="fill:#FFF9FF;" d="M200.652,241c0,0,7.25,5.875,18.25,5.5c8.25-0.375,9.375-0.625,9.375-0.625s4.542-5.625,4.917-10.375c-2.457-3.686-13.112-8.711-17.044-9.08c-3.931-0.368-20.17,2.539-20.17,2.539L200.652,241z"></path><path style="fill:#E4E0F3;" d="M231.569,240.938c0.833-1.833,1.5-5.011,1.5-6.25c-2.457-3.686-12.987-7.898-16.919-8.268c-3.931-0.368-19.633,3.613-19.633,3.613l3.135,8.592C212.152,233.75,218.819,235.188,231.569,240.938z"></path></g><g><path style="fill:#A2D7DD;" d="M207.777,229.125c0,0-1.875,5.375,0.878,11.792c2.287,5.33,6.958,5.948,12.364,5.333c2.001-0.228,4.326-0.881,5.45-1.647c1.912-1.306,1.961-3.899,2.58-6.143c0.983-3.563,0.52-6.293,0.52-6.293s-6.296-5.518-13.667-4.167C208.53,229.352,207.777,229.125,207.777,229.125z"></path><path style="fill:#84B9BF;" d="M230.569,232.5c0,0-12.814-5.365-22.735-3.815c-0.098,2.474-0.216,4.947,0.24,7.421c1.366-1.114,4.078-1.606,10.953-1.231s10.469,3.793,10.469,3.793S231.018,233.805,230.569,232.5z"></path><path d="M206.606,229.066c0.86-1.105,2.862-1.431,2.862-1.431s-4.316,10.615,5.488,18.427l-2.313-0.25C206.902,241.125,205.527,234.625,206.606,229.066z"></path><path d="M229.606,232.964c-0.164,2.994-0.814,7.742-3.137,11.639c0.75,0.321,4.271-4.061,5.24-10.647C230.988,233.666,230.275,233.359,229.606,232.964z"></path></g><path d="M215.848,224.411c-6.777-0.319-13.528,1.523-18.6,2.756c-4.333,1.054-7.525,1.508-7.525,1.508s3.657,9.028,11.525,12.159c-0.888-1.879-2.577-7.863-2.577-7.863s9.404-2.802,18.249-2.475c6.264,0.232,17.843,9.066,18.023,9.192l-2.432-6.512C226.629,228.498,220.167,224.613,215.848,224.411z"></path><path d="M226.819,229.188c0,0,8.563,5.563,10.125,7.188c-2.313-0.625-4.25,0.063-4.25,0.063L226.819,229.188z"></path><path d="M216.985,224.583c0,0,13.333,2.583,19.333,6.333c-5-0.667-11.208-1.608-11.208-1.608L216.985,224.583z"></path><path d="M205.144,242.925c0,0,2.366,1.515,5.375,1.875c5.878,0.702,14.564,0.496,15.345,0.486c-0.076,0.662-15.349,2.154-18.654,0.167C205.582,243.8,205.144,242.925,205.144,242.925z"></path></g></g><circle style="fill:#84B9BF;" cx="219.696" cy="236.521" r="4.296"></circle><g><path style="fill:#FFFFFF;" d="M211.826,237.406c0,0,1.663,5.539,8.007,5.43c6.345-0.108,6.556-3.998,6.518-5.08c0,0-0.684,4.656-7.674,4.438C218.676,242.194,214.616,240.889,211.826,237.406z"></path><g><path style="fill:#FFFFFF;" d="M223.134,242.208c-0.237,1.306-2.194,2.316-4.373,2.255c-2.174-0.06-3.747-1.168-3.508-2.474c0.238-1.305,2.194-2.314,4.369-2.254C221.799,239.794,223.374,240.903,223.134,242.208z"></path></g></g></g><path d="M233.604,223.706c0,0-13.089-2.583-29.537,1.405C216.501,219.57,226.82,220.782,233.604,223.706z"></path></g><g><g><g><g><g><path style="fill:#FFF9FF;" d="M299.348,241c0,0-7.25,5.875-18.25,5.5c-8.25-0.375-9.375-0.625-9.375-0.625s-4.541-5.625-4.916-10.375c2.457-3.686,13.111-8.711,17.043-9.08c3.932-0.368,20.17,2.539,20.17,2.539L299.348,241z"></path><path style="fill:#E4E0F3;" d="M268.432,240.938c-0.834-1.833-1.5-5.011-1.5-6.25c2.457-3.686,12.986-7.898,16.918-8.268c3.932-0.368,19.633,3.613,19.633,3.613l-3.135,8.592C287.848,233.75,281.182,235.188,268.432,240.938z"></path></g><g><path style="fill:#A2D7DD;" d="M292.223,229.125c0,0,1.875,5.375-0.877,11.792c-2.287,5.33-6.959,5.948-12.365,5.333c-2-0.228-4.326-0.881-5.449-1.647c-1.912-1.306-1.961-3.899-2.58-6.143c-0.984-3.563-0.52-6.293-0.52-6.293s6.295-5.518,13.666-4.167C291.469,229.352,292.223,229.125,292.223,229.125z"></path><path style="fill:#84B9BF;" d="M269.432,232.5c0,0,12.813-5.365,22.734-3.815c0.098,2.474,0.217,4.947-0.24,7.421c-1.365-1.114-4.078-1.606-10.953-1.231s-10.469,3.793-10.469,3.793S268.982,233.805,269.432,232.5z"></path><path d="M293.395,229.066c-0.861-1.105-2.863-1.431-2.863-1.431s4.316,10.615-5.488,18.427l2.313-0.25C293.098,241.125,294.473,234.625,293.395,229.066z"></path><path d="M270.393,232.964c0.164,2.994,0.814,7.742,3.139,11.639c-0.75,0.321-4.271-4.061-5.24-10.647C269.012,233.666,269.725,233.359,270.393,232.964z"></path></g><path d="M284.152,224.411c6.775-0.319,13.527,1.523,18.6,2.756c4.332,1.054,7.525,1.508,7.525,1.508s-3.658,9.028-11.525,12.159c0.887-1.879,2.576-7.863,2.576-7.863s-9.404-2.802-18.248-2.475c-6.264,0.232-17.844,9.066-18.023,9.192l2.432-6.512C273.371,228.498,279.834,224.613,284.152,224.411z"></path><path d="M273.182,229.188c0,0-8.563,5.563-10.125,7.188c2.313-0.625,4.25,0.063,4.25,0.063L273.182,229.188z"></path><path d="M283.014,224.583c0,0-13.332,2.583-19.332,6.333c5-0.667,11.207-1.608,11.207-1.608L283.014,224.583z"></path><path d="M294.855,242.925c0,0-2.365,1.515-5.375,1.875c-5.877,0.702-14.564,0.496-15.344,0.486c0.076,0.662,15.348,2.154,18.654,0.167C294.418,243.8,294.855,242.925,294.855,242.925z"></path></g></g><circle style="fill:#84B9BF;" cx="280.304" cy="236.521" r="4.296"></circle><g><path style="fill:#FFFFFF;" d="M288.174,237.406c0,0-1.662,5.539-8.006,5.43c-6.346-0.108-6.557-3.998-6.518-5.08c0,0,0.684,4.656,7.674,4.438C281.324,242.194,285.385,240.889,288.174,237.406z"></path><g><path style="fill:#FFFFFF;" d="M276.865,242.208c0.236,1.306,2.195,2.316,4.373,2.255c2.174-0.06,3.746-1.168,3.508-2.474s-2.193-2.314-4.369-2.254C278.201,239.794,276.627,240.903,276.865,242.208z"></path></g></g></g><path d="M266.396,223.706c0,0,13.09-2.583,29.537,1.405C283.498,219.57,273.18,220.782,266.396,223.706z"></path></g></g></g></svg>