<svg xmlns="http://www.w3.org/2000/svg" width="500" height="500" version="1.1"><g id="x007"><g><g><g><g><path d="M232.331,240.701c0,0-1.71-3.822-5.511-5.722c-5.513-1.33-20.905-0.93-28.697,10.092c0.761,0.19,1.331,0.761,1.331,0.761s11.336-5.651,22.044-5.651c3.611,0,9.122,1.851,9.122,1.851L232.331,240.701z"></path><path d="M225.869,236.331c0,0,6.081,1.519,6.842,2.47c-2.281-3.04-7.032-4.37-10.263-4.18C223.589,235.95,225.869,236.331,225.869,236.331z"></path></g><path d="M232.141,233.86c0,0-2.66-3.041-7.222-3.041c-4.561,0-11.022,2.281-11.022,2.281S227.959,230.819,232.141,233.86z"></path></g><path d="M231.381,220.938c0,0-2.47-2.091-6.271-1.901C228.91,217.136,230.623,219.667,231.381,220.938z"></path></g><g><g><g><path d="M267.67,240.701c0,0,1.709-3.822,5.51-5.722c5.514-1.33,20.906-0.93,28.697,10.092c-0.76,0.19-1.33,0.761-1.33,0.761s-11.336-5.651-22.045-5.651c-3.611,0-9.121,1.851-9.121,1.851L267.67,240.701z"></path><path d="M274.131,236.331c0,0-6.08,1.519-6.842,2.47c2.281-3.04,7.033-4.37,10.264-4.18C276.412,235.95,274.131,236.331,274.131,236.331z"></path></g><path d="M267.859,233.86c0,0,2.66-3.041,7.223-3.041c4.561,0,11.021,2.281,11.021,2.281S272.041,230.819,267.859,233.86z"></path></g><path d="M268.619,220.938c0,0,2.471-2.091,6.271-1.901C271.09,217.136,269.377,219.667,268.619,220.938z"></path></g></g></g></svg>