<svg xmlns="http://www.w3.org/2000/svg" width="500" height="500" version="1.1"><g id="x9067"><g><g><path d="M197.791,222.331c0.525,0.112,21.143-1.653,29.773-1.042c3.925,1.113,11.392,3.604,11.392,3.604s-4.978-2.828-11.545-5.047C218.518,219.243,197.791,222.331,197.791,222.331z"></path><g><g><path style="fill:#FFFFFF;" d="M198.942,237.551c0,0,4.337,6.977,6.125,8.04c3.8,1.368,22.043,0.854,22.043,0.854s5.315-8.941,3.809-16.268c-5.383-3.689-14.382-3.499-14.382-3.499s-18.749,2.908-20.209,4.085C197.575,234.221,198.942,237.551,198.942,237.551z"></path><path style="fill:#E4E0F3;" d="M230.917,236.583c0.333-2.833,0.363-5.803,0.083-7.167c-5.383-3.689-14.463-2.739-14.463-2.739s-18.749,2.908-20.209,4.085c0.73,2.025,2.324,6.276,2.839,7.571C208.826,234.213,220.02,234.212,230.917,236.583z"></path></g><g><path style="fill:#A2D7DD;" d="M205.859,230.473c0,0-0.343,5.148,2.859,9.496c3.204,4.347,5.685,5.759,10.719,5.188c5.034-0.572,7.25-2.125,8.272-7.476c0.646-3.38,0.457-8.237,0.457-8.237s-5.605-4.233-12.469-2.975C208.834,227.728,205.859,230.473,205.859,230.473z"></path><ellipse style="opacity:0.5;fill:#FFFFFF;" cx="217.931" cy="242.79" rx="4.702" ry="3.089"></ellipse><circle style="fill:#84B9BF;" cx="217.971" cy="236.5" r="4.5"></circle><path style="fill:#84B9BF;" d="M207.472,236.75c0,0,7.25-2.5,20-0.75c1.25-4.25,0.778-7.333,0.778-7.333s-5.528-2.167-12.028-1.667s-10.25,2.5-10.25,2.5L207.472,236.75z"></path><path style="opacity:0.5;" d="M207.472,236.75c0,0,3.661-1.25,10.661-1.25s9.617,0.667,9.617,0.667l-0.417-8.833c0,0-6.022,0-11.111-0.333s-9.422,1.833-9.422,1.833L207.472,236.75z"></path><g><ellipse cx="218.208" cy="236.625" rx="2.458" ry="3.125"></ellipse></g><path d="M206.917,228.833c0,0-0.3,12.12,7.364,15.667c-0.342,0.572-1.531,0.781-1.531,0.781s-8.25-3.188-7.583-15.615C205.968,228.637,206.917,228.833,206.917,228.833z"></path><path d="M225.667,227.833c0,0,3.958,7.229-0.761,15.573c0.801,0.343,5.594-4.156,5.261-14.073C228.337,227.846,225.667,227.833,225.667,227.833z"></path></g><g><path style="fill:#FFFFFF;" d="M212,237.292c0,0.989-3.292,1.792-3.292,1.792s-3.291-0.802-3.291-1.792c0-0.99,3.291-1.792,3.291-1.792S212,236.302,212,237.292z"></path><path style="fill:#FFFFFF;" d="M230.666,236.625c0,0.708-2.583,1.625-2.583,1.625s-2.583-1.083-2.583-1.625s2.583-1.625,2.583-1.625S230.666,235.917,230.666,236.625z"></path></g><g><path d="M236.309,233.71c0,0-5.645-2.078-10.786-3.594c-12.379-1.425-24.325-0.593-27.654,1.22c-0.002,3.502,2.912,9.614,3.726,10.5c-3.855-2.084-8.083-6.434-8.637-7.327c-1.013-0.34-3.246-6.973-3.246-6.973l5.742,0.06c0,0,4.837-2.431,15.117-3.183c10.28-0.751,17.793,1.441,20.723,3.165C233.337,231.175,236.309,233.71,236.309,233.71z"></path><path d="M203.644,227.787c0,0-3.251-3.409-2.686-5.908c3.568,1.311,6.634,3.16,6.634,3.16L203.644,227.787z"></path><path d="M224.603,227.53c0,0,4.598,1.956,12.821,1.042c-5.321-1.94-9.583-2.276-16.507-2.555C222.927,227.513,224.603,227.53,224.603,227.53z"></path></g><g><path d="M206.381,247.55c0,0,1.778-2.314,2.371-2.137c0.594,0.175,2.165,0.315,1.588,0.628C209.765,246.355,206.415,248.526,206.381,247.55z"></path><path d="M212.772,247.207c0,0-0.139-1.169,0.629-1.588c0.769-0.417,1.954-0.068,1.875,0.425C215.194,246.535,213.763,247.562,212.772,247.207z"></path><path d="M216.194,246.699c0,0-0.139-1.17,0.629-1.588c0.769-0.418,1.954-0.069,1.875,0.425C218.616,246.026,217.185,247.054,216.194,246.699z"></path><path d="M226.913,243.726c-0.167-0.056-1.799,0.296-3.166,0.319l-2.607,0.884c3.823,0.241,8.316-0.01,8.316-0.01S227.419,244.195,226.913,243.726z"></path><path d="M208.432,244.64l-3.96-1.328c0,0,1.942,2.378,2.542,2.748c0.601,0.371,2.359,0.309,4.209,0.049c1.009-0.322,3.272-0.699,4.986-0.883l-1.576-0.852C211.216,244.513,208.432,244.64,208.432,244.64z"></path><path d="M206.801,245.579c0,0-3.459,1.784-3.382,1.194s2.26-2.525,2.26-2.525L206.801,245.579z"></path></g></g></g><g><path d="M302.209,222.331c-0.525,0.112-21.143-1.653-29.773-1.042c-3.924,1.113-11.391,3.604-11.391,3.604s4.977-2.828,11.545-5.047C281.482,219.243,302.209,222.331,302.209,222.331z"></path><g><g><path style="fill:#FFFFFF;" d="M301.059,237.551c0,0-4.338,6.977-6.125,8.04c-3.801,1.368-22.044,0.854-22.044,0.854s-5.315-8.941-3.808-16.268c5.382-3.689,14.381-3.499,14.381-3.499s18.75,2.908,20.209,4.085C302.426,234.221,301.059,237.551,301.059,237.551z"></path><path style="fill:#E4E0F3;" d="M269.084,236.583c-0.334-2.833-0.363-5.803-0.084-7.167c5.383-3.689,14.463-2.739,14.463-2.739s18.75,2.908,20.209,4.085c-0.73,2.025-2.324,6.276-2.838,7.571C291.174,234.213,279.98,234.212,269.084,236.583z"></path></g><g><path style="fill:#A2D7DD;" d="M294.141,230.473c0,0,0.344,5.148-2.859,9.496c-3.203,4.347-5.684,5.759-10.719,5.188c-5.033-0.572-7.25-2.125-8.271-7.476c-0.646-3.38-0.457-8.237-0.457-8.237s5.605-4.233,12.469-2.975C291.166,227.728,294.141,230.473,294.141,230.473z"></path><ellipse style="opacity:0.5;fill:#FFFFFF;" cx="282.069" cy="242.79" rx="4.702" ry="3.089"></ellipse><circle style="fill:#84B9BF;" cx="282.029" cy="236.5" r="4.5"></circle><path style="fill:#84B9BF;" d="M292.529,236.75c0,0-7.25-2.5-20-0.75c-1.25-4.25-0.779-7.333-0.779-7.333s5.529-2.167,12.029-1.667s10.25,2.5,10.25,2.5L292.529,236.75z"></path><path style="opacity:0.5;" d="M292.529,236.75c0,0-3.662-1.25-10.662-1.25s-9.617,0.667-9.617,0.667l0.417-8.833c0,0,6.022,0,11.112-0.333c5.088-0.333,9.422,1.833,9.422,1.833L292.529,236.75z"></path><g><ellipse cx="281.792" cy="236.625" rx="2.458" ry="3.125"></ellipse></g><path d="M293.084,228.833c0,0,0.299,12.12-7.365,15.667c0.342,0.572,1.531,0.781,1.531,0.781s8.25-3.188,7.584-15.615C294.033,228.637,293.084,228.833,293.084,228.833z"></path><path d="M274.334,227.833c0,0-3.959,7.229,0.76,15.573c-0.801,0.343-5.594-4.156-5.26-14.073C271.664,227.846,274.334,227.833,274.334,227.833z"></path></g><g><path style="fill:#FFFFFF;" d="M275.918,237.292c0,0.989-3.292,1.792-3.292,1.792s-3.292-0.802-3.292-1.792c0-0.99,3.292-1.792,3.292-1.792S275.918,236.302,275.918,237.292z"></path><path style="fill:#FFFFFF;" d="M294.584,236.625c0,0.708-2.584,1.625-2.584,1.625s-2.582-1.083-2.582-1.625S292,235,292,235S294.584,235.917,294.584,236.625z"></path></g><g><path d="M263.691,233.71c0,0,5.645-2.078,10.786-3.594c12.379-1.425,24.325-0.593,27.654,1.22c0.003,3.502-2.911,9.614-3.726,10.5c3.855-2.084,8.083-6.434,8.637-7.327c1.013-0.34,3.246-6.973,3.246-6.973l-5.742,0.06c0,0-4.837-2.431-15.117-3.183c-10.28-0.751-17.793,1.441-20.723,3.165C266.663,231.175,263.691,233.71,263.691,233.71z"></path><path d="M296.356,227.787c0,0,3.251-3.409,2.687-5.908c-3.568,1.311-6.635,3.16-6.635,3.16L296.356,227.787z"></path><path d="M275.397,227.53c0,0-4.598,1.956-12.821,1.042c5.322-1.94,9.583-2.276,16.508-2.555C277.074,227.513,275.397,227.53,275.397,227.53z"></path></g><g><path d="M293.619,247.55c0,0-1.778-2.314-2.371-2.137c-0.594,0.175-2.164,0.315-1.588,0.628C290.236,246.355,293.585,248.526,293.619,247.55z"></path><path d="M287.229,247.207c0,0,0.139-1.169-0.63-1.588c-0.769-0.417-1.954-0.068-1.874,0.425C284.806,246.535,286.237,247.562,287.229,247.207z"></path><path d="M283.807,246.699c0,0,0.139-1.17-0.63-1.588c-0.769-0.418-1.954-0.069-1.874,0.425C281.384,246.026,282.815,247.054,283.807,246.699z"></path><path d="M273.087,243.726c0.167-0.056,1.8,0.296,3.167,0.319l2.607,0.884c-3.824,0.241-8.317-0.01-8.317-0.01S272.581,244.195,273.087,243.726z"></path><path d="M291.568,244.64l3.96-1.328c0,0-1.942,2.378-2.542,2.748c-0.6,0.371-2.359,0.309-4.209,0.049c-1.008-0.322-3.271-0.699-4.986-0.883l1.576-0.852C288.785,244.513,291.568,244.64,291.568,244.64z"></path><path d="M293.199,245.579c0,0,3.459,1.784,3.383,1.194c-0.078-0.59-2.26-2.525-2.26-2.525L293.199,245.579z"></path></g></g></g></g></g></svg>