<svg xmlns="http://www.w3.org/2000/svg" width="500" height="500" version="1.1"><g id="x9068"><g><g><g><path d="M303.598,224.25c-7.417-1.583-19.917-3.5-30.981-2.961c-3.924,1.113-9.061,3.649-9.061,3.649s2.813-2.5,9.215-5.092C292.931,219.667,303.598,224.25,303.598,224.25z"></path><g><g><path style="fill:#FFFFFF;" d="M301.239,237.551c0,0-4.338,6.977-6.125,8.04c-3.801,1.368-21.621,0.534-21.621,0.534s-5.738-8.622-4.23-15.948c5.382-3.689,14.381-3.499,14.381-3.499s18.75,2.908,20.209,4.085C302.606,234.221,301.239,237.551,301.239,237.551z"></path><path style="fill:#E4E0F3;" d="M269.265,236.583c-0.334-2.833-0.363-5.803-0.084-7.167c5.383-3.689,14.463-2.739,14.463-2.739s18.75,2.908,20.209,4.085c-0.73,2.025-2.324,6.276-2.838,7.571C291.354,234.213,280.161,234.212,269.265,236.583z"></path></g><g><path style="fill:#A2D7DD;" d="M294.321,231.473c0,0,0.344,5.148-2.859,9.496c-3.203,4.347-4.717,5.328-9.781,5.156c-3.688-0.125-7.104-0.274-8.125-5.625c-0.646-3.38-1.541-10.056-1.541-10.056s5.605-4.233,12.469-2.975C291.347,228.728,294.321,231.473,294.321,231.473z"></path><ellipse style="opacity:0.5;fill:#FFFFFF;" cx="282.25" cy="243.79" rx="4.702" ry="3.089"></ellipse><ellipse style="opacity:0.5;fill:#FFFFFF;" cx="282.25" cy="243.603" rx="4.702" ry="3.089"></ellipse><path style="fill:#84B9BF;" d="M292.71,237.75c0,0-7.25-2.5-20-0.75c-1.25-4.25-0.779-7.333-0.779-7.333s6-4.104,12.5-3.604s10.188,2.063,10.188,2.063L292.71,237.75z"></path><path style="opacity:0.5;" d="M284.118,226.625c-5.09,0.333-11.271,1.708-11.271,1.708l-0.417,8.833c0,0,2.223-0.562,8.021-0.653c0.029-1.196,0.797-2.156,1.744-2.156c0.954,0,1.727,0.971,1.747,2.177c5.759,0.194,8.768,1.215,8.768,1.215l1.283-9.688C293.993,228.063,289.206,226.292,284.118,226.625z"></path><ellipse style="opacity:0.5;fill:#FFFFFF;" cx="282.195" cy="236.582" rx="1.75" ry="2.499"></ellipse><path d="M282.195,232.415c-1.811,0-3.278,1.866-3.278,4.168c0,2.302,1.468,4.167,3.278,4.167c1.812,0,3.279-1.866,3.279-4.167C285.475,234.28,284.007,232.415,282.195,232.415z M282.195,238.807c-0.966,0-1.75-0.996-1.75-2.225c0-1.229,0.784-2.225,1.75-2.225c0.967,0,1.751,0.996,1.751,2.225C283.946,237.811,283.162,238.807,282.195,238.807z"></path><path d="M293.098,228.333c0,0,0.466,13.62-7.198,17.167c0.342,0.572,1.531,0.781,1.531,0.781s8.5-3.619,7.938-16.994C294.567,228.257,293.098,228.333,293.098,228.333z"></path><path d="M274.515,228.833c0,0-3.396,8.479,1.666,16.917c-2.25-1.125-6.5-5.5-6.166-15.417C271.845,228.846,274.515,228.833,274.515,228.833z"></path></g><g><path style="fill:#FFFFFF;" d="M293.414,237.938c0,0.981-3.085,2.25-4.461,2.25s-4.458-1.5-4.458-2.25s2.084-2.25,4.458-2.25S293.414,236.957,293.414,237.938z"></path></g><g><path d="M263.872,233.71c0,0,5.042-2.631,10.184-4.147c4.498-1.151,8.756-2.102,12.563-1.938c7.355,0.317,13.029,3.08,15.5,4.563c0.003,3.502-2.717,8.763-3.531,9.648c8.281-1.835,9.656-12.21,9.656-12.21s-9-6.125-21.438-7.188c-11,0.25-14.988,3.417-17.918,5.14C266.844,231.175,263.872,233.71,263.872,233.71z"></path><path d="M296.537,227.787c0,0,2.792-3.705,2.228-6.203c-2.584-0.167-6.176,3.455-6.176,3.455L296.537,227.787z"></path><path d="M304.746,230.266c0,0,3.251-3.409,2.687-5.908c-3.568,1.311-6.635,3.16-6.635,3.16L304.746,230.266z"></path><path d="M275.578,227.53c0,0-4.598,1.956-12.821,1.042c5.322-1.94,9.583-2.276,16.508-2.555C277.255,227.513,275.578,227.53,275.578,227.53z"></path></g></g></g><path d="M284.688,246.5c0,0,0.188,1.25,0.875,1.375s1.188-0.188,1.188-0.5S285.563,246.25,284.688,246.5z"></path><path d="M287.25,246.375c0,0,0.188,1.25,0.875,1.375s1.188-0.188,1.188-0.5S288.125,246.125,287.25,246.375z"></path><path d="M290.5,245.875c0,0,0.188,1.25,0.875,1.375s1.188-0.188,1.188-0.5S291.375,245.625,290.5,245.875z"></path><path d="M292.938,245.563c0,0,0.188,1.25,0.875,1.375s1.188-0.188,1.188-0.5S293.813,245.313,292.938,245.563z"></path></g><g><g><path d="M196.402,224.25c7.417-1.583,19.917-3.5,30.981-2.961c3.924,1.113,9.061,3.649,9.061,3.649s-2.813-2.5-9.215-5.092C207.069,219.667,196.402,224.25,196.402,224.25z"></path><g><g><path style="fill:#FFFFFF;" d="M198.761,237.551c0,0,4.338,6.977,6.125,8.04c3.801,1.368,21.621,0.534,21.621,0.534s5.738-8.622,4.23-15.948c-5.382-3.689-14.381-3.499-14.381-3.499s-18.75,2.908-20.209,4.085C197.394,234.221,198.761,237.551,198.761,237.551z"></path><path style="fill:#E4E0F3;" d="M230.735,236.583c0.334-2.833,0.363-5.803,0.084-7.167c-5.383-3.689-14.463-2.739-14.463-2.739s-18.75,2.908-20.209,4.085c0.73,2.025,2.324,6.276,2.838,7.571C208.646,234.213,219.839,234.212,230.735,236.583z"></path></g><g><path style="fill:#A2D7DD;" d="M205.679,231.473c0,0-0.344,5.148,2.859,9.496c3.203,4.347,4.717,5.328,9.781,5.156c3.688-0.125,7.104-0.274,8.125-5.625c0.646-3.38,1.541-10.056,1.541-10.056s-5.605-4.233-12.469-2.975C208.653,228.728,205.679,231.473,205.679,231.473z"></path><ellipse style="opacity:0.5;fill:#FFFFFF;" cx="217.75" cy="243.79" rx="4.702" ry="3.089"></ellipse><ellipse style="opacity:0.5;fill:#FFFFFF;" cx="217.75" cy="243.603" rx="4.702" ry="3.089"></ellipse><path style="fill:#84B9BF;" d="M207.29,237.75c0,0,7.25-2.5,20-0.75c1.25-4.25,0.779-7.333,0.779-7.333s-6-4.104-12.5-3.604s-10.188,2.063-10.188,2.063L207.29,237.75z"></path><path style="opacity:0.5;" d="M215.882,226.625c5.09,0.333,11.271,1.708,11.271,1.708l0.417,8.833c0,0-2.223-0.562-8.021-0.653c-0.029-1.196-0.797-2.156-1.744-2.156c-0.954,0-1.727,0.971-1.747,2.177c-5.759,0.194-8.768,1.215-8.768,1.215l-1.283-9.688C206.007,228.063,210.794,226.292,215.882,226.625z"></path><ellipse style="opacity:0.5;fill:#FFFFFF;" cx="217.805" cy="236.582" rx="1.75" ry="2.499"></ellipse><path d="M214.525,236.583c0,2.302,1.468,4.167,3.279,4.167c1.811,0,3.278-1.866,3.278-4.167c0-2.302-1.468-4.168-3.278-4.168C215.993,232.415,214.525,234.28,214.525,236.583z M216.054,236.583c0-1.229,0.784-2.225,1.751-2.225c0.966,0,1.75,0.996,1.75,2.225c0,1.229-0.784,2.225-1.75,2.225C216.838,238.807,216.054,237.811,216.054,236.583z"></path><path d="M206.902,228.333c0,0-0.466,13.62,7.198,17.167c-0.342,0.572-1.531,0.781-1.531,0.781s-8.5-3.619-7.938-16.994C205.433,228.257,206.902,228.333,206.902,228.333z"></path><path d="M225.485,228.833c0,0,3.396,8.479-1.666,16.917c2.25-1.125,6.5-5.5,6.166-15.417C228.155,228.846,225.485,228.833,225.485,228.833z"></path></g><g><path style="fill:#FFFFFF;" d="M219.586,237.938c0,0.981,3.085,2.25,4.461,2.25s4.458-1.5,4.458-2.25s-2.084-2.25-4.458-2.25S219.586,236.957,219.586,237.938z"></path></g><g><path d="M236.128,233.71c0,0-5.042-2.631-10.184-4.147c-4.498-1.151-8.756-2.102-12.563-1.938c-7.355,0.317-13.029,3.08-15.5,4.563c-0.003,3.502,2.717,8.763,3.531,9.648c-8.281-1.835-9.656-12.21-9.656-12.21s9-6.125,21.438-7.188c11,0.25,14.988,3.417,17.918,5.14C233.156,231.175,236.128,233.71,236.128,233.71z"></path><path d="M203.463,227.787c0,0-2.792-3.705-2.228-6.203c2.584-0.167,6.176,3.455,6.176,3.455L203.463,227.787z"></path><path d="M195.254,230.266c0,0-3.251-3.409-2.687-5.908c3.568,1.311,6.635,3.16,6.635,3.16L195.254,230.266z"></path><path d="M224.422,227.53c0,0,4.598,1.956,12.821,1.042c-5.322-1.94-9.583-2.276-16.508-2.555C222.745,227.513,224.422,227.53,224.422,227.53z"></path></g></g></g><path d="M215.313,246.5c0,0-0.188,1.25-0.875,1.375s-1.188-0.188-1.188-0.5S214.438,246.25,215.313,246.5z"></path><path d="M212.75,246.375c0,0-0.188,1.25-0.875,1.375s-1.188-0.188-1.188-0.5S211.875,246.125,212.75,246.375z"></path><path d="M209.5,245.875c0,0-0.188,1.25-0.875,1.375s-1.188-0.188-1.188-0.5S208.625,245.625,209.5,245.875z"></path><path d="M207.063,245.563c0,0-0.188,1.25-0.875,1.375s-1.188-0.188-1.188-0.5S206.188,245.313,207.063,245.563z"></path></g></g></g></svg>