<svg xmlns="http://www.w3.org/2000/svg" width="500" height="500" version="1.1"><g id="x9069"><g><g><g><path style="fill:#FFFFFF;" d="M231.772,228.833c0,0,0.096,6.699-1.5,11.167c-2.5,7-9.334,9.5-13.334,9.167c-5.5-1.167-15-6.5-17.833-10.833c-3.167-8.5-4.333-13-4.333-13s14.333-5.333,23.333-3.833S231.772,228.833,231.772,228.833z"></path><path style="fill:#E4E0F3;" d="M218.105,221.5c9,1.5,13.667,7.333,13.667,7.333s0.045,3.335-0.487,6.868c-10.59-2.061-22.307-2.549-33.311-0.467c-2.317-6.489-3.202-9.901-3.202-9.901S209.105,220,218.105,221.5z"></path></g><g><path style="fill:#A2D7DD;" d="M206.062,223.25c0,0.75-2.5,23.5,12.25,25.75c6.25-2.25,11.75-6.5,9-23c-2.25-3.5-6.25-4.25-6.25-4.25L206.062,223.25z"></path><path style="fill:#84B9BF;" d="M228.036,233.87c0.002-2.258-0.223-4.858-0.725-7.87c-2.25-3.5-6.25-4.25-6.25-4.25l-15,1.5c0,0.34-0.51,5.21,0.306,10.638c2.437-0.53,4.91-0.833,7.402-0.969c-0.257,0.708-0.404,1.496-0.404,2.331c0,3.021,1.879,5.468,4.196,5.468c2.318,0,4.197-2.447,4.197-5.468c0-0.8-0.135-1.557-0.371-2.242C223.601,233.183,225.819,233.471,228.036,233.87z"></path><path style="opacity:0.5;" d="M228.036,233.87c0.002-2.258-0.223-4.858-0.725-7.87c-2.25-3.5-6.25-4.25-6.25-4.25l-15,1.5c0,0.34-0.51,5.21,0.306,10.638c2.437-0.53,4.91-0.833,7.402-0.969c-0.257,0.708-0.404,1.496-0.404,2.331c0,3.021,1.879,5.468,4.196,5.468c2.318,0,4.197-2.447,4.197-5.468c0-0.8-0.135-1.557-0.371-2.242C223.601,233.183,225.819,233.471,228.036,233.87z"></path><ellipse style="opacity:0.8;fill:#FFFFFF;" cx="217.562" cy="235.25" rx="2.75" ry="3.583"></ellipse><g><path d="M228.286,226.138c0,0,1.692,5.863,0.587,11.86c-1.106,5.996-3.452,10.754-11.076,10.884c5.67-1.5,8.079-4.822,8.861-11.795c0.693-6.174-0.522-12.056-0.522-12.056L228.286,226.138z"></path><path d="M207.562,222.75c0,0-2.018,9.513,0.328,15.248c2.346,5.735,4.237,8.993,9.32,10.688c-3.128,0.261-9.839-3.128-11.534-11.144c-1.695-8.016-0.327-13.426-0.327-13.426L207.562,222.75z"></path><path d="M212.729,247.333c-0.17-0.183,7.333,1.5,11-1c-0.167,0.833-0.25,1.333-0.25,1.333S215.979,250.833,212.729,247.333z"></path></g><g><path style="fill:#FFFFFF;" d="M205.064,235.938c0,0.981,3.085,2.25,4.461,2.25s4.458-1.5,4.458-2.25s-2.084-2.25-4.458-2.25S205.064,234.957,205.064,235.938z"></path></g></g><g><path d="M238.389,220.989c0,0-3.975-2.345-8.994-4.04c-5.669-0.196-17.203-0.13-19.159,0c6.321-1.694,21.438-1.954,25.612-1.303c-2.283,0.26-3.584,0.65-4.042,0.782C233.696,217.015,237.865,220.077,238.389,220.989z"></path><g><g><g><path d="M235.129,233.11c0,0-7.301-8.081-14.339-9.646c-8.99-0.65-21.633,1.825-23.72,4.172c-1.824,2.867,2.347,11.468,3.128,12.511c-3.91-4.43-8.079-8.861-8.079-15.378c5.474-3.651,20.072-8.341,31.28-5.474c7.54,4.371,11.207,8.862,11.207,8.862S233.564,230.503,235.129,233.11z"></path><path d="M223.918,221.119c0,0,8.862,2.346,12.513,4.692c-4.692-4.951-14.599-7.557-17.986-7.297C221.313,220.598,223.918,221.119,223.918,221.119z"></path><path d="M220.662,218.644c0,0-4.952-1.564-7.298-7.168c-0.913,5.474,0.651,7.95,0.651,7.95L220.662,218.644z"></path><path d="M195.246,223.076c0,0-3.519,1.173-9.384-1.955c3.52,6.516,5.865,8.341,7.562,9.514C194.205,227.637,195.246,223.076,195.246,223.076z"></path></g><g><path d="M201.202,247.012c0,0,1.82-1.825,1.692-2.737c-0.13-0.912-3.257,1.043-2.997,1.564C200.157,246.359,200.419,247.273,201.202,247.012z"></path><path d="M207.466,249.966c0,0,1.14-2.314,0.726-3.136c-0.416-0.823-2.75,2.034-2.335,2.445C206.269,249.685,206.813,250.465,207.466,249.966z"></path></g></g></g></g></g><g><g><path style="fill:#FFFFFF;" d="M268.228,228.833c0,0-0.096,6.699,1.5,11.167c2.5,7,9.334,9.5,13.334,9.167c5.5-1.167,15-6.5,17.834-10.833c3.166-8.5,4.332-13,4.332-13S290.896,220,281.896,221.5S268.228,228.833,268.228,228.833z"></path><path style="fill:#E4E0F3;" d="M281.896,221.5c-9,1.5-13.668,7.333-13.668,7.333s-0.045,3.335,0.488,6.868c10.59-2.061,22.307-2.549,33.311-0.467c2.316-6.489,3.201-9.901,3.201-9.901S290.896,220,281.896,221.5z"></path></g><g><path style="fill:#A2D7DD;" d="M293.938,223.25c0,0.75,2.5,23.5-12.25,25.75c-6.25-2.25-11.75-6.5-9-23c2.25-3.5,6.25-4.25,6.25-4.25L293.938,223.25z"></path><path style="fill:#84B9BF;" d="M271.964,233.87c-0.002-2.258,0.223-4.858,0.725-7.87c2.25-3.5,6.25-4.25,6.25-4.25l15,1.5c0,0.34,0.51,5.21-0.305,10.638c-2.438-0.53-4.91-0.833-7.402-0.969c0.256,0.708,0.404,1.496,0.404,2.331c0,3.021-1.879,5.468-4.197,5.468s-4.197-2.447-4.197-5.468c0-0.8,0.135-1.557,0.371-2.242C276.399,233.183,274.181,233.471,271.964,233.87z"></path><path style="opacity:0.5;" d="M271.964,233.87c-0.002-2.258,0.223-4.858,0.725-7.87c2.25-3.5,6.25-4.25,6.25-4.25l15,1.5c0,0.34,0.51,5.21-0.305,10.638c-2.438-0.53-4.91-0.833-7.402-0.969c0.256,0.708,0.404,1.496,0.404,2.331c0,3.021-1.879,5.468-4.197,5.468s-4.197-2.447-4.197-5.468c0-0.8,0.135-1.557,0.371-2.242C276.399,233.183,274.181,233.471,271.964,233.87z"></path><ellipse style="opacity:0.8;fill:#FFFFFF;" cx="282.438" cy="235.25" rx="2.75" ry="3.583"></ellipse><g><path d="M271.714,226.138c0,0-1.691,5.863-0.586,11.86c1.105,5.996,3.451,10.754,11.076,10.884c-5.67-1.5-8.08-4.822-8.861-11.795c-0.693-6.174,0.521-12.056,0.521-12.056L271.714,226.138z"></path><path d="M292.438,222.75c0,0,2.018,9.513-0.328,15.248c-2.346,5.735-4.236,8.993-9.32,10.688c3.129,0.261,9.84-3.128,11.535-11.144c1.695-8.016,0.326-13.426,0.326-13.426L292.438,222.75z"></path><path d="M287.272,247.333c0.17-0.183-7.334,1.5-11-1c0.166,0.833,0.25,1.333,0.25,1.333S284.022,250.833,287.272,247.333z"></path></g><g><path style="fill:#FFFFFF;" d="M279.269,235.938c0,0.981-3.084,2.25-4.461,2.25c-1.375,0-4.457-1.5-4.457-2.25s2.084-2.25,4.457-2.25C277.183,233.688,279.269,234.957,279.269,235.938z"></path></g></g><g><path d="M261.612,220.989c0,0,3.975-2.345,8.994-4.04c5.668-0.196,17.203-0.13,19.158,0c-6.32-1.694-21.438-1.954-25.611-1.303c2.283,0.26,3.584,0.65,4.041,0.782C266.304,217.015,262.136,220.077,261.612,220.989z"></path><g><g><g><path d="M264.872,233.11c0,0,7.301-8.081,14.338-9.646c8.99-0.65,21.633,1.825,23.721,4.172c1.824,2.867-2.348,11.468-3.129,12.511c3.91-4.43,8.08-8.861,8.08-15.378c-5.475-3.651-20.072-8.341-31.281-5.474c-7.539,4.371-11.207,8.862-11.207,8.862S266.437,230.503,264.872,233.11z"></path><path d="M276.083,221.119c0,0-8.863,2.346-12.514,4.692c4.693-4.951,14.6-7.557,17.986-7.297C278.687,220.598,276.083,221.119,276.083,221.119z"></path><path d="M279.339,218.644c0,0,4.951-1.564,7.297-7.168c0.914,5.474-0.65,7.95-0.65,7.95L279.339,218.644z"></path><path d="M304.755,223.076c0,0,3.518,1.173,9.383-1.955c-3.52,6.516-5.865,8.341-7.561,9.514C305.796,227.637,304.755,223.076,304.755,223.076z"></path></g><g><path d="M298.798,247.012c0,0-1.82-1.825-1.691-2.737s3.256,1.043,2.996,1.564C299.843,246.359,299.581,247.273,298.798,247.012z"></path><path d="M292.534,249.966c0,0-1.139-2.314-0.725-3.136c0.416-0.823,2.75,2.034,2.334,2.445C293.731,249.685,293.188,250.465,292.534,249.966z"></path></g></g></g></g></g></g></g></svg>