<svg xmlns="http://www.w3.org/2000/svg" width="500" height="500" version="1.1"><g id="x9070"><g><g><g><path style="fill:#FFFFFF;" d="M270.5,224.5c0,0-1.75,5.375-0.375,9.25S274.5,239,274.5,239s17.75,1.75,21.25,1c3.125-2,4.5-1.5,7-3.875c2.5-4.625,3-7.75,3-7.75s-7.875-5.5-18.625-5S270.5,224.5,270.5,224.5z"></path><path style="fill:#E4E0F3;" d="M287.125,223.375c-10.75,0.5-16.625,1.125-16.625,1.125s-1.158,3.56-0.849,6.974c11.242-0.648,23.18,0.007,33.415,4.049c2.223-4.29,2.684-7.147,2.684-7.147S297.875,222.875,287.125,223.375z"></path></g><g><path style="fill:#A2D7DD;" d="M273.25,223.75c0,0-2.625,5.75,0.125,9.75s5.5,6.875,9.625,6.875c4,0.25,8.5-2.25,10.375-6.25S295,225.75,295,225.75S277.625,220.75,273.25,223.75z"></path><path style="fill:#84B9BF;" d="M295,225.75c0,0-17.375-5-21.75-2c0,0-0.455,8.723,1.375,12.625c6.75-5.125,12.25-3.125,17.25,0.875C293.741,233.255,295,225.75,295,225.75z"></path><g><path d="M271.5,224.551c0,0-4.25,13.225,10.25,15.85c-11.375-4.625-7.375-17.1-7.375-17.1L271.5,224.551z"></path><path d="M293.125,226.176c0,0,1.5,10.725-8.5,14.225c10,0,12.5-8.975,12.25-13.85C294.75,225.551,293.125,226.176,293.125,226.176z"></path></g><g><path d="M275.125,235c0,0-0.5-4.875,6.5-5.5s10.625,4.75,10.125,8.25c3.5-5.25,3.875-11.5,3.875-11.5S289,222.75,282.75,223s-10.125,0.5-10.125,0.5S270.75,230.625,275.125,235z"></path><ellipse transform="matrix(0.9935 0.1142 -0.1142 0.9935 28.2202 -30.7026)" cx="282.08" cy="230.952" rx="2.929" ry="3.623"></ellipse></g><ellipse style="fill:#FFFFFF;" cx="282.688" cy="237.337" rx="4.313" ry="2.712"></ellipse><g><g><path d="M262.833,228.5c0-0.667,6.166-7.167,9.5-8.167c12.417-1.458,32.959,4.492,39.792,8.492c-0.833,2.667-10.875,8.625-10.875,8.625s3.375-4,2.875-7c-4.75-3.875-28.459-6.45-30.292-6.283S262.833,228.5,262.833,228.5z"></path><path d="M275,222.5c0,0-12.125-1-12.875-1.5c6.75-1,13.25-1,16.625-0.375C274.875,222.375,275,222.5,275,222.5z"></path></g><path d="M279.125,240c0,0,14,0.25,15.75-0.125s5.375-1.75,5.375-1.75s-3,2.7-4.625,2.95S280.125,240.625,279.125,240z"></path></g><path d="M265.25,217c0,0,16.5-2.25,41.875,6C298.5,217,274.375,213.5,265.25,217z"></path></g></g><g><g><path style="fill:#FFFFFF;" d="M229.917,224.5c0,0,1.75,5.375,0.375,9.25s-4.375,5.25-4.375,5.25s-17.75,1.75-21.25,1c-3.125-2-4.5-1.5-7-3.875c-2.5-4.625-3-7.75-3-7.75s7.875-5.5,18.625-5S229.917,224.5,229.917,224.5z"></path><path style="fill:#E4E0F3;" d="M213.292,223.375c10.75,0.5,16.625,1.125,16.625,1.125s1.158,3.56,0.849,6.974c-11.242-0.648-23.18,0.007-33.415,4.049c-2.223-4.29-2.684-7.147-2.684-7.147S202.542,222.875,213.292,223.375z"></path></g><g><path style="fill:#A2D7DD;" d="M227.167,223.75c0,0,2.625,5.75-0.125,9.75s-5.5,6.875-9.625,6.875c-4,0.25-8.5-2.25-10.375-6.25s-1.625-8.375-1.625-8.375S222.792,220.75,227.167,223.75z"></path><path style="fill:#84B9BF;" d="M205.417,225.75c0,0,17.375-5,21.75-2c0,0,0.455,8.723-1.375,12.625c-6.75-5.125-12.25-3.125-17.25,0.875C206.675,233.255,205.417,225.75,205.417,225.75z"></path><g><path d="M228.917,224.551c0,0,4.25,13.225-10.25,15.85c11.375-4.625,7.375-17.1,7.375-17.1L228.917,224.551z"></path><path d="M207.292,226.176c0,0-1.5,10.725,8.5,14.225c-10,0-12.5-8.975-12.25-13.85C205.667,225.551,207.292,226.176,207.292,226.176z"></path></g><g><path d="M225.292,235c0,0,0.5-4.875-6.5-5.5s-10.625,4.75-10.125,8.25c-3.5-5.25-3.875-11.5-3.875-11.5s6.625-3.5,12.875-3.25s10.125,0.5,10.125,0.5S229.667,230.625,225.292,235z"></path><ellipse transform="matrix(-0.9935 0.1142 -0.1142 -0.9935 461.6202 435.4592)" cx="218.337" cy="230.952" rx="2.929" ry="3.623"></ellipse></g><ellipse style="fill:#FFFFFF;" cx="217.729" cy="237.337" rx="4.313" ry="2.712"></ellipse><g><g><path d="M237.583,228.5c0-0.667-6.166-7.167-9.5-8.167c-12.417-1.458-32.959,4.492-39.792,8.492c0.833,2.667,10.875,8.625,10.875,8.625s-3.375-4-2.875-7c4.75-3.875,28.459-6.45,30.292-6.283S237.583,228.5,237.583,228.5z"></path><path d="M225.417,222.5c0,0,12.125-1,12.875-1.5c-6.75-1-13.25-1-16.625-0.375C225.542,222.375,225.417,222.5,225.417,222.5z"></path></g><path d="M221.292,240c0,0-14,0.25-15.75-0.125s-5.375-1.75-5.375-1.75s3,2.7,4.625,2.95S220.292,240.625,221.292,240z"></path></g><path d="M235.167,217c0,0-16.5-2.25-41.875,6C201.917,217,226.042,213.5,235.167,217z"></path></g></g></g></g></svg>