<svg xmlns="http://www.w3.org/2000/svg" width="500" height="500" version="1.1"><g id="x9071"><g><g><path style="fill:#FFFFFF;" d="M193.424,232.155c0,0,2.886,7.457,4.169,9.06c1.282,1.604,6.333,4.73,9.219,5.451c2.886,0.722,25.253-5.451,26.857-8.177c1.604-2.726,1.524-5.051,1.524-5.051s-5.853-6.734-19.241-5.531C202.563,229.109,193.424,232.155,193.424,232.155z"></path><path style="fill:#E4E0F3;" d="M234.462,236.843c0.767-1.949,0.731-3.405,0.731-3.405s-5.853-6.734-19.241-5.531c-13.388,1.202-22.528,4.248-22.528,4.248s1.291,3.332,2.529,6.021C208.292,234.808,221.847,234.055,234.462,236.843z"></path><path d="M197.432,240.573c0,0,1.844,2.405,4.491,3.849c1.515,0.827,4.97,2.004,6.574,3.848c-2.085-0.802-2.886-1.282-2.886-1.282s-0.351,1.43-1.123,1.202c-1.363-0.401-1.203-1.523-1.203-1.523s-0.721,0.521-1.844-0.48c-0.481-0.43-0.241-0.642-0.241-1.203c-0.24,0-1.362,1.283-1.844,0.722c-0.48-0.561-0.32-1.604,0.642-1.604c-0.48-0.32-1.122-1.042-1.122-1.042s-2.646,1.443-3.207,0.32c-0.562-1.122,1.763-1.202,2.405-1.042C197.432,241.536,197.432,240.573,197.432,240.573z"></path><g><g><g><path style="fill:#A2D7DD;" d="M206.331,229.59c-0.222,0.124-1.764,7.617,1.443,11.464c3.207,3.848,6.654,5.933,6.654,5.933s10.501-2.887,10.983-3.207c0.48-0.321,3.207-3.367,3.447-8.017c0.242-4.65-0.64-6.253-0.64-6.253S213.947,225.341,206.331,229.59z"></path><path style="fill:#84B9BF;" d="M209.271,242.205c0,0,1.711-5.773,8.338-5.827s9.459,5.344,9.459,5.344s2.725-6.2,0.854-10.743c-4.275-3.527-11.705-3.634-11.705-3.634s-9.779,2.352-9.941,2.298C206.117,229.59,204.408,235.844,209.271,242.205z"></path></g><path style="fill:#F9EAE2;" d="M212.719,235.575c-0.267,0.562-0.32,6.788,5.477,6.522c6.121-0.282,4.57-7.457,4.169-7.696c-0.401-0.241-1.068,0.24-1.122,1.924c-0.017,0.566,0.401,3.768-3.127,3.928c-3.527,0.161-3.848-3.448-4.168-4.517S212.985,235.015,212.719,235.575z"></path></g><g><path d="M206.972,229.069c0,0-1.843,13.909,8.619,17.638c-3.648,0.12-7.336-1.964-9.581-6.814c-2.244-4.851-0.882-9.58-0.882-9.58L206.972,229.069z"></path><path d="M227.256,231.113c0.04,0.16,1.763,7.416-1.324,11.665c2.366-0.962,4.491-5.492,4.25-10.624C228.979,230.873,227.256,231.113,227.256,231.113z"></path><path d="M212.745,246.186c0,0-0.562,0.04-0.441,0.36c0.121,0.321,0.802,0.882,1.323,1.083c0.52,0.2,8.097-0.481,12.186-3.567c-0.601-0.763-0.762-0.963-1.402-0.723c0,0-1.042,1.403-4.851,2.205C215.751,246.346,212.745,246.186,212.745,246.186z"></path></g></g><g><path d="M187.064,230.712c0,0,0.215,0.213,2.994,0c0,1.069,0,2.352,0,2.352s6.625-1.924,12.825-2.994c6.201-1.069,11.33-2.993,18.814-0.428c7.483,2.565,10.477,3.849,12.4,4.276c1.923,0.428,5.558-0.214,8.337-1.07c-6.199,0.215-8.308-3.921-15.607-6.84C217.208,222.161,206.732,222.589,187.064,230.712z"></path><path d="M228.752,227.078c0,0,5.773,2.137,8.124,1.283c-1.924,1.497-5.558,1.924-5.558,1.924L228.752,227.078z"></path><path d="M204.595,228.789c0,0-6.627,4.276-7.696,4.49c0.642-1.924,2.565-4.276,2.565-4.276L204.595,228.789z"></path><path d="M222.525,229.029c0,0,1.603,3.607,4.329,4.73c-0.802-2.485-1.362-4.329-1.362-4.329L222.525,229.029z"></path><path d="M200.959,229.911c0,0,0.856,1.176,2.058,3.1c1.444-2.645,4.195-3.822,5.959-4.423C206.371,228.628,200.959,229.911,200.959,229.911z"></path></g><path d="M212.582,221.75c0,0,12.348,0.384,15.234,1.506c2.806,1.684,5.933,3.688,5.933,3.688s-2.645-3.046-5.612-4.89C220.361,220.611,212.582,221.75,212.582,221.75z"></path></g><g><path style="fill:#FFFFFF;" d="M306.576,232.155c0,0-2.886,7.457-4.17,9.06c-1.281,1.604-6.332,4.73-9.219,5.451c-2.886,0.722-25.252-5.451-26.856-8.177c-1.604-2.726-1.524-5.051-1.524-5.051s5.854-6.734,19.242-5.531C297.437,229.109,306.576,232.155,306.576,232.155z"></path><path style="fill:#E4E0F3;" d="M265.538,236.843c-0.767-1.949-0.731-3.405-0.731-3.405s5.854-6.734,19.242-5.531c13.388,1.202,22.527,4.248,22.527,4.248s-1.291,3.332-2.529,6.021C291.707,234.808,278.152,234.055,265.538,236.843z"></path><path d="M302.568,240.573c0,0-1.844,2.405-4.49,3.849c-1.516,0.827-4.971,2.004-6.574,3.848c2.086-0.802,2.886-1.282,2.886-1.282s0.351,1.43,1.123,1.202c1.362-0.401,1.203-1.523,1.203-1.523s0.721,0.521,1.844-0.48c0.481-0.43,0.241-0.642,0.241-1.203c0.24,0,1.361,1.283,1.844,0.722c0.48-0.561,0.32-1.604-0.643-1.604c0.48-0.32,1.123-1.042,1.123-1.042s2.646,1.443,3.206,0.32c0.562-1.122-1.763-1.202-2.405-1.042C302.568,241.536,302.568,240.573,302.568,240.573z"></path><g><g><g><path style="fill:#A2D7DD;" d="M293.669,229.59c0.222,0.124,1.764,7.617-1.443,11.464c-3.206,3.848-6.654,5.933-6.654,5.933s-10.501-2.887-10.983-3.207c-0.48-0.321-3.206-3.367-3.446-8.017c-0.241-4.65,0.64-6.253,0.64-6.253S286.053,225.341,293.669,229.59z"></path><path style="fill:#84B9BF;" d="M290.729,242.205c0,0-1.712-5.773-8.339-5.827s-9.459,5.344-9.459,5.344s-2.725-6.2-0.854-10.743c4.274-3.527,11.705-3.634,11.705-3.634s9.779,2.352,9.94,2.298C293.883,229.59,295.592,235.844,290.729,242.205z"></path></g><path style="fill:#F9EAE2;" d="M287.281,235.575c0.267,0.562,0.32,6.788-5.477,6.522c-6.121-0.282-4.57-7.457-4.17-7.696c0.4-0.241,1.068,0.24,1.122,1.924c0.017,0.566-0.401,3.768,3.128,3.928c3.526,0.161,3.848-3.448,4.168-4.517S287.016,235.015,287.281,235.575z"></path></g><g><path d="M293.027,229.069c0,0,1.844,13.909-8.619,17.638c3.648,0.12,7.337-1.964,9.582-6.814c2.244-4.851,0.881-9.58,0.881-9.58L293.027,229.069z"></path><path d="M272.744,231.113c-0.04,0.16-1.763,7.416,1.324,11.665c-2.366-0.962-4.491-5.492-4.25-10.624C271.021,230.873,272.744,231.113,272.744,231.113z"></path><path d="M287.255,246.186c0,0,0.562,0.04,0.441,0.36c-0.121,0.321-0.802,0.882-1.323,1.083c-0.52,0.2-8.097-0.481-12.186-3.567c0.601-0.763,0.762-0.963,1.402-0.723c0,0,1.043,1.403,4.851,2.205C284.249,246.346,287.255,246.186,287.255,246.186z"></path></g></g><g><path d="M312.936,230.712c0,0-0.215,0.213-2.994,0c0,1.069,0,2.352,0,2.352s-6.625-1.924-12.825-2.994c-6.2-1.069-11.33-2.993-18.813-0.428c-7.484,2.565-10.477,3.849-12.4,4.276s-5.559-0.214-8.338-1.07c6.199,0.215,8.309-3.921,15.607-6.84C282.793,222.161,293.268,222.589,312.936,230.712z"></path><path d="M271.248,227.078c0,0-5.773,2.137-8.125,1.283c1.924,1.497,5.559,1.924,5.559,1.924L271.248,227.078z"></path><path d="M295.404,228.789c0,0,6.628,4.276,7.697,4.49c-0.643-1.924-2.565-4.276-2.565-4.276L295.404,228.789z"></path><path d="M277.475,229.029c0,0-1.604,3.607-4.329,4.73c0.802-2.485,1.362-4.329,1.362-4.329L277.475,229.029z"></path><path d="M299.041,229.911c0,0-0.856,1.176-2.059,3.1c-1.443-2.645-4.195-3.822-5.959-4.423C293.629,228.628,299.041,229.911,299.041,229.911z"></path></g><path d="M287.418,221.75c0,0-12.348,0.384-15.234,1.506c-2.806,1.684-5.933,3.688-5.933,3.688s2.646-3.046,5.612-4.89C279.639,220.611,287.418,221.75,287.418,221.75z"></path></g></g></g></svg>