<svg xmlns="http://www.w3.org/2000/svg" width="500" height="500" version="1.1"><g id="x9072"><g><g><path d="M235.439,217.687c0,0-9.216-0.576-14.978-0.576C224.496,215.383,233.52,215.958,235.439,217.687z"></path><g><path style="fill:#FFFFFD;" d="M229.441,227.383c0,0,1.583,2.879,0.646,8.783c-0.934,5.904-4.174,8.928-4.174,8.928s-12.816,1.656-14.257,1.44c-1.439-0.216-4.823-2.448-4.823-2.448s-6.265-6.192-7.057-12.311c3.601-5.905,5.833-7.416,5.833-7.416s18.719-0.721,19.943-0.432C226.777,224.215,229.441,227.383,229.441,227.383z"></path><path style="fill:#E4E0F3;" d="M202.475,238.075c-1.279-1.814-2.4-3.99-2.698-6.3c3.601-5.905,5.833-7.416,5.833-7.416s18.719-0.721,19.943-0.432c1.225,0.288,3.889,3.456,3.889,3.456s1.373,2.583,0.763,7.798C221.004,231.246,211.143,233.432,202.475,238.075z"></path></g><g><g><g><path style="fill:#A2D7DD;" d="M227.997,225.51c0,0,1.791,8.337,0.351,12.657c-1.439,4.319-4.167,6.927-4.167,6.927s-8.856,2.232-13.248,0c-3.024-3.528-5.835-4.344-5.545-11.232c0.203-4.819,0.937-9.935,1.153-9.935c0.218,0,8.352-1.8,12.671-1.009C223.533,223.71,227.997,225.51,227.997,225.51z"></path><path style="opacity:0.5;fill:#FFFFFD;" d="M212.031,243.265c0,1.392,2.16,1.512,4.824,1.512c2.665,0,4.824-0.12,4.824-1.512c0-1.392-2.159-3.527-4.824-3.527C214.191,239.737,212.031,241.873,212.031,243.265z"></path><path style="fill:#84B9BF;" d="M228.098,237.833c0,0-2.909-3.827-11.261-3.827c-8.353,0-10.8,3.887-10.8,3.887s-3.168-8.208,1.583-12.815c7.777-1.584,17.425-1.584,20.016,1.152C228.789,229.687,228.098,237.833,228.098,237.833z"></path></g><path style="opacity:0.5;" d="M213.517,234.438c0,3.42,2.063,6.191,4.608,6.191c2.545,0,4.608-2.771,4.608-6.191s-2.063-6.192-4.607-6.192C215.58,228.246,213.517,231.019,213.517,234.438z M216.681,234.438c0-1.071,0.648-1.94,1.446-1.94c0.796,0,1.443,0.869,1.443,1.94s-0.647,1.939-1.444,1.939C217.329,236.377,216.681,235.509,216.681,234.438z"></path><g><path d="M229.026,226.711c0,0,2.163,3.335,0.627,9.671c-1.538,6.335-3.313,7.92-6.577,9.144c2.796-2.83,4.679-6.093,5.104-9.276c0.681-5.095-0.333-8.333-1.844-11.266C227.874,224.598,229.026,226.711,229.026,226.711z"></path><path d="M209.598,224.583c-0.766,1.345-3.146,5.607-2.5,11.167c0.833,7.167,4.843,9.488,4.843,9.488s-7.127-2.159-7.873-10.848c-0.542-6.339,1.344-9.023,1.344-9.023L209.598,224.583z"></path></g></g><ellipse style="fill:#FFFFFD;" cx="206.527" cy="231.199" rx="3.348" ry="2.087"></ellipse><path style="fill:#FFFFFD;" d="M225.658,242.223c-0.212,0.594-0.947,0.875-1.642,0.633c-0.694-0.245-1.088-0.92-0.881-1.514c0.212-0.595,0.948-0.878,1.642-0.633C225.475,240.952,225.866,241.631,225.658,242.223z"></path></g><g><g><g><path d="M236.015,226.519c0,0-4.609-4.225-11.329-5.76c-4.991-1.152-14.975-2.496-22.655,0.576c-5.76,4.416-7.296,7.68-7.296,7.68l4.608,5.375c0,0,3.457-6.72,5.759-8.063c2.305-1.342,15.553-2.111,18.24-0.96c2.689,1.152,9.985,4.032,9.985,4.032S232.559,226.902,236.015,226.519z"></path><path d="M220.462,222.103c0,0,9.217-0.768,13.824-0.768c-3.84-1.536-15.934-3.456-30.334-0.719C206.641,222.15,220.462,222.103,220.462,222.103z"></path></g><path d="M226.705,244.807c-0.487-0.5-0.29-1.584-0.29-1.584s-1.153,1.537-5.186,1.921c-4.031,0.383-11.302,1.103-14.972-1.921c1.798,3.312,4.038,3.37,5.327,3.744c2.232,0.648,10.131,0.605,10.729,0.503c2.136-0.359,4.536-1.151,6.119-2.375C227.568,245.166,227.007,245.119,226.705,244.807z"></path></g><g><path d="M202.656,243.727c0,0,1.585-0.865,1.296-1.657c-0.287-0.792-2.087,0.144-2.087,0.576S201.937,243.654,202.656,243.727z"></path><path d="M199.848,238.687c0,0,1.583-0.865,1.296-1.657c-0.288-0.792-2.088,0.144-2.088,0.576S199.128,238.614,199.848,238.687z"></path><path d="M207.013,247.217c0,0,1.229-1.319,0.706-1.979c-0.522-0.66-1.935,0.794-1.8,1.204C206.057,246.852,206.305,247.376,207.013,247.217z"></path></g></g></g><g><path d="M264.559,217.687c0,0,9.216-0.576,14.977-0.576C275.502,215.383,266.478,215.958,264.559,217.687z"></path><g><path style="fill:#FFFFFD;" d="M270.557,227.383c0,0-1.583,2.879-0.646,8.783c0.934,5.904,4.174,8.928,4.174,8.928s12.816,1.656,14.258,1.44c1.439-0.216,4.822-2.448,4.822-2.448s6.266-6.192,7.057-12.311c-3.601-5.905-5.832-7.416-5.832-7.416s-18.719-0.721-19.943-0.432C273.221,224.215,270.557,227.383,270.557,227.383z"></path><path style="fill:#E4E0F3;" d="M297.523,238.075c1.279-1.814,2.399-3.99,2.697-6.3c-3.601-5.905-5.832-7.416-5.832-7.416s-18.719-0.721-19.943-0.432c-1.225,0.288-3.889,3.456-3.889,3.456s-1.373,2.583-0.764,7.798C278.994,231.246,288.855,233.432,297.523,238.075z"></path></g><g><g><g><path style="fill:#A2D7DD;" d="M272,225.51c0,0-1.791,8.337-0.351,12.657c1.439,4.319,4.167,6.927,4.167,6.927s8.856,2.232,13.248,0c3.024-3.528,5.835-4.344,5.545-11.232c-0.202-4.819-0.937-9.935-1.152-9.935c-0.218,0-8.352-1.8-12.672-1.009S272,225.51,272,225.51z"></path><path style="opacity:0.5;fill:#FFFFFD;" d="M287.967,243.265c0,1.392-2.16,1.512-4.824,1.512s-4.824-0.12-4.824-1.512c0-1.392,2.16-3.527,4.824-3.527S287.967,241.873,287.967,243.265z"></path><path style="fill:#84B9BF;" d="M271.899,237.833c0,0,2.909-3.827,11.261-3.827c8.353,0,10.8,3.887,10.8,3.887s3.169-8.208-1.583-12.815c-7.777-1.584-17.425-1.584-20.016,1.152C271.209,229.687,271.899,237.833,271.899,237.833z"></path></g><path style="opacity:0.5;" d="M281.871,228.246c-2.545,0-4.607,2.772-4.607,6.192s2.063,6.191,4.608,6.191s4.608-2.771,4.608-6.191S284.418,228.246,281.871,228.246z M281.872,236.377c-0.797,0-1.444-0.868-1.444-1.939s0.647-1.94,1.443-1.94c0.797,0,1.445,0.869,1.445,1.94S282.668,236.377,281.872,236.377z"></path><g><path d="M270.971,226.711c0,0-2.162,3.335-0.627,9.671c1.537,6.335,3.313,7.92,6.576,9.144c-2.795-2.83-4.679-6.093-5.104-9.276c-0.682-5.095,0.333-8.333,1.844-11.266C272.123,224.598,270.971,226.711,270.971,226.711z"></path><path d="M290.4,224.583c0.766,1.345,3.146,5.607,2.5,11.167c-0.834,7.167-4.844,9.488-4.844,9.488s7.127-2.159,7.873-10.848c0.541-6.339-1.345-9.023-1.345-9.023L290.4,224.583z"></path></g></g><ellipse style="fill:#FFFFFD;" cx="272.631" cy="231.199" rx="3.348" ry="2.087"></ellipse><path style="fill:#FFFFFD;" d="M291.762,242.223c-0.213,0.594-0.947,0.875-1.642,0.633c-0.694-0.245-1.089-0.92-0.882-1.514c0.213-0.595,0.948-0.878,1.643-0.633C291.578,240.952,291.971,241.631,291.762,242.223z"></path></g><g><g><g><path d="M263.982,226.519c0,0,4.609-4.225,11.33-5.76c4.99-1.152,14.975-2.496,22.654,0.576c5.76,4.416,7.296,7.68,7.296,7.68l-4.608,5.375c0,0-3.457-6.72-5.759-8.063c-2.306-1.342-15.553-2.111-18.24-0.96c-2.688,1.152-9.985,4.032-9.985,4.032S267.438,226.902,263.982,226.519z"></path><path d="M279.535,222.103c0,0-9.217-0.768-13.823-0.768c3.84-1.536,15.935-3.456,30.334-0.719C293.356,222.15,279.535,222.103,279.535,222.103z"></path></g><path d="M273.293,244.807c0.486-0.5,0.289-1.584,0.289-1.584s1.153,1.537,5.186,1.921c4.031,0.383,11.302,1.103,14.973-1.921c-1.799,3.312-4.039,3.37-5.327,3.744c-2.232,0.648-10.131,0.605-10.729,0.503c-2.136-0.359-4.536-1.151-6.118-2.375C272.43,245.166,272.99,245.119,273.293,244.807z"></path></g><g><path d="M297.342,243.727c0,0-1.585-0.865-1.296-1.657c0.287-0.792,2.087,0.144,2.087,0.576S298.061,243.654,297.342,243.727z"></path><path d="M300.149,238.687c0,0-1.583-0.865-1.296-1.657c0.287-0.792,2.088,0.144,2.088,0.576S300.869,238.614,300.149,238.687z"></path><path d="M292.984,247.217c0,0-1.229-1.319-0.706-1.979c0.522-0.66,1.935,0.794,1.8,1.204C293.941,246.852,293.692,247.376,292.984,247.217z"></path></g></g></g></g></g></svg>