<svg xmlns="http://www.w3.org/2000/svg" width="500" height="500" version="1.1"><g id="x9073"><g><g><g><path style="fill:#FFFFFF;" d="M268.25,232.182c0,0,3.85,10.909,15.805,13.068c9.636,0.044,14.917-5.25,14.917-5.25s4.497-4.379,7.136-15.318C292.824,225.47,268.25,232.182,268.25,232.182z"></path><path style="fill:#E4E0F3;" d="M268.25,232.182c0,0,1.104,3.299,3.898,6.733c9.866-2.358,20.242-4.095,30.581-4.338c1.156-2.512,2.39-5.8,3.378-9.896C292.824,225.47,268.25,232.182,268.25,232.182z"></path></g><g><g><path style="fill:#A2D7DD;" d="M273.309,231.37c0,0,2.182,8.229,9.849,8.904c7.668,0.675,12.513-10.487,12.945-12.886C290.278,226.337,277.536,227.534,273.309,231.37z"></path><path style="fill:#84B9BF;" d="M296.103,227.389c-5.824-1.051-18.566,0.145-22.794,3.981c0,0,0.897,3.353,3.538,5.954c5.627-1.63,10.826-2.905,16.271-3.455C294.873,231.182,295.913,228.442,296.103,227.389z"></path></g><path d="M273.309,231.37c0,0,2.669,9.681,11.459,9.01c-7.706-2.836-8.182-8.702-8.517-9.846L273.309,231.37z"></path><path d="M292.889,228c0,0,0.75,7.25-7.74,12.269c3.044-0.354,8.882-3.183,10.818-12.405C293.789,227.923,292.889,228,292.889,228z"></path></g><ellipse transform="matrix(0.9987 0.0507 -0.0507 0.9987 12.3061 -13.7687)" style="fill:#FFFFFF;" cx="277.497" cy="235.636" rx="2.932" ry="1.599"></ellipse><path d="M266.628,225.962c0,0,15.357-7.36,32.043-5.675"></path><g><path d="M306.036,221.397c-3.369-0.961-17.727,2.108-31.395,5.303c-5.913,1.409-14.765,7.248-14.765,7.248l40.871-6.782l11.709-2.133C312.457,225.033,309.405,222.357,306.036,221.397z"></path><path d="M281.655,245.414c0,0,11.483-1.08,17.426-5.612c-1.058,3.659-9.761,7.262-11.396,7.497C286.05,247.535,281.655,245.414,281.655,245.414z"></path><path d="M295.139,243.833c0.333,0,2.082,0.25,3.166-0.333c-1-1.25-1.083-1.5-1.083-1.5s2.333,0.333,2.75-0.167c-0.5-0.75-1.75-0.833-1.75-0.833L295.139,243.833z"></path><path d="M301.514,240.75c0,0-2-0.5-1.875-1.25s0.875-0.75,1.375-0.25S302.014,240.5,301.514,240.75z"></path></g></g><g><g><path style="fill:#FFFFFF;" d="M231.75,232.182c0,0-3.85,10.909-15.805,13.068c-9.636,0.044-14.917-5.25-14.917-5.25s-4.497-4.379-7.136-15.318C207.176,225.47,231.75,232.182,231.75,232.182z"></path><path style="fill:#E4E0F3;" d="M231.75,232.182c0,0-1.104,3.299-3.898,6.733c-9.866-2.358-20.242-4.095-30.581-4.338c-1.156-2.512-2.39-5.8-3.378-9.896C207.176,225.47,231.75,232.182,231.75,232.182z"></path></g><g><g><path style="fill:#A2D7DD;" d="M226.691,231.37c0,0-2.182,8.229-9.849,8.904c-7.668,0.675-12.513-10.487-12.945-12.886C209.722,226.337,222.464,227.534,226.691,231.37z"></path><path style="fill:#84B9BF;" d="M203.897,227.389c5.824-1.051,18.566,0.145,22.794,3.981c0,0-0.897,3.353-3.538,5.954c-5.627-1.63-10.826-2.905-16.271-3.455C205.127,231.182,204.087,228.442,203.897,227.389z"></path></g><path d="M226.691,231.37c0,0-2.669,9.681-11.459,9.01c7.706-2.836,8.182-8.702,8.517-9.846L226.691,231.37z"></path><path d="M207.111,228c0,0-0.75,7.25,7.74,12.269c-3.044-0.354-8.882-3.183-10.818-12.405C206.211,227.923,207.111,228,207.111,228z"></path></g><ellipse transform="matrix(-0.9987 0.0507 -0.0507 -0.9987 430.3546 460.3533)" style="fill:#FFFFFF;" cx="209.337" cy="235.636" rx="2.932" ry="1.599"></ellipse><path d="M233.372,225.962c0,0-15.357-7.36-32.043-5.675"></path><g><path d="M193.964,221.397c3.369-0.961,17.727,2.108,31.395,5.303c5.913,1.409,14.765,7.248,14.765,7.248l-40.871-6.782l-11.709-2.133C187.543,225.033,190.595,222.357,193.964,221.397z"></path><path d="M218.345,245.414c0,0-11.483-1.08-17.426-5.612c1.058,3.659,9.761,7.262,11.396,7.497C213.95,247.535,218.345,245.414,218.345,245.414z"></path><path d="M204.861,243.833c-0.333,0-2.082,0.25-3.166-0.333c1-1.25,1.083-1.5,1.083-1.5s-2.333,0.333-2.75-0.167c0.5-0.75,1.75-0.833,1.75-0.833L204.861,243.833z"></path><path d="M198.486,240.75c0,0,2-0.5,1.875-1.25s-0.875-0.75-1.375-0.25S197.986,240.5,198.486,240.75z"></path></g></g></g></g></svg>