<svg xmlns="http://www.w3.org/2000/svg" width="500" height="500" version="1.1"><g id="x9074"><g><g><g><path style="fill:#FFFFFF;" d="M268.114,239.043c0,0,9.326,4.934,13.953,3.837c7.836-2.193,18.133-7.831,18.133-8.144c0-0.313,2.389-5.951,2.613-7.752c-4.33-0.548-13.955-0.078-13.955-0.078l-17.463,5.403L268.114,239.043z"></path><path style="fill:#E4E0F3;" d="M288.858,226.906l-17.463,5.403l-3.281,6.734c0,0,0.201,0.106,0.551,0.281c10.645-5.254,21.91-8.403,33.389-9.654c0.379-1.091,0.686-2.095,0.76-2.686C298.483,226.436,288.858,226.906,288.858,226.906z"></path><g><g><path style="fill:#A2D7DD;" d="M271.802,232.064c0,0,2.82,7.47,10.564,5.962c7.238-1.41,9.346-10.719,9.346-10.719S273.905,229.855,271.802,232.064z"></path><path style="fill:#84B9BF;" d="M291.712,227.307c0,0-17.807,2.548-19.91,4.757c0,0,1.072,2.825,3.699,4.649c4.58-2.143,9.18-3.353,13.914-4.008C291.101,229.997,291.712,227.307,291.712,227.307z"></path></g><g><path d="M273.935,232.779c0,0,2.088,5.247,9.029,5.247c-1.717,1.253-8.135,0.313-10.598-4.463C273.038,232.857,273.935,232.779,273.935,232.779z"></path><path d="M288.858,228.237c0,0-0.076,7.126-5.373,9.554c1.865,0,7.352-3.741,8.227-10.484C290.425,227.376,288.858,228.237,288.858,228.237z"></path><circle cx="281.831" cy="233.101" r="2"></circle></g></g><g><g><g><path d="M268.7,238.879c0,0,6.465,4.642,14.301,2.893c8.1-1.809,15.68-6.148,17.059-8.499c1.379-2.351,2.93-7.233,2.93-7.233s0.191,6.102-2.758,9.041c-3.445,3.436-13.783,8.137-18.607,8.498c-4.826,0.362-13.785-3.435-13.785-3.435L268.7,238.879z"></path></g><g><path d="M263.187,236.167c0,0,3.963-4.883,5.686-5.786c2.586-1.085,16.367-7.71,22.572-7.414c7.58,0.362,19.643,0.362,20.678,0.362c-2.586,3.074-6.721,4.702-6.721,4.702s-12.918-0.525-15.852,0.361C278.177,231.827,263.187,236.167,263.187,236.167z"></path><path d="M272.146,232.912c0,0-3.273,5.605-4.652,7.956c-1.723-0.904-2.584-2.531-2.584-2.531c-1.551-0.181-2.584-0.181-2.584-0.181s1.725-4.521,4.996-6.148C269.044,232.188,272.146,232.912,272.146,232.912z"></path><path d="M270.769,231.828c0,0-10.512,2.893-11.891,3.797c6.203-4.882,21.709-10.849,31.359-11.753C285.415,226.041,270.769,231.828,270.769,231.828z"></path></g></g></g></g><path d="M270.222,246.801c-3.334-4.5-5.5-9.167-5.5-9.167l-2.5,0.667C262.222,238.301,267.056,244.967,270.222,246.801z"></path></g><g><g><path style="fill:#FFFFFF;" d="M231.886,239.043c0,0-9.326,4.934-13.953,3.837c-7.836-2.193-18.133-7.831-18.133-8.144c0-0.313-2.389-5.951-2.613-7.752c4.33-0.548,13.955-0.078,13.955-0.078l17.463,5.403L231.886,239.043z"></path><path style="fill:#E4E0F3;" d="M211.142,226.906l17.463,5.403l3.281,6.734c0,0-0.201,0.106-0.551,0.281c-10.645-5.254-21.91-8.403-33.389-9.654c-0.379-1.091-0.686-2.095-0.76-2.686C201.517,226.436,211.142,226.906,211.142,226.906z"></path><g><g><path style="fill:#A2D7DD;" d="M228.198,232.064c0,0-2.82,7.47-10.564,5.962c-7.238-1.41-9.346-10.719-9.346-10.719S226.095,229.855,228.198,232.064z"></path><path style="fill:#84B9BF;" d="M208.288,227.307c0,0,17.807,2.548,19.91,4.757c0,0-1.072,2.825-3.699,4.649c-4.58-2.143-9.18-3.353-13.914-4.008C208.899,229.997,208.288,227.307,208.288,227.307z"></path></g><g><path d="M226.065,232.779c0,0-2.088,5.247-9.029,5.247c1.717,1.253,8.135,0.313,10.598-4.463C226.962,232.857,226.065,232.779,226.065,232.779z"></path><path d="M211.142,228.237c0,0,0.076,7.126,5.373,9.554c-1.865,0-7.352-3.741-8.227-10.484C209.575,227.376,211.142,228.237,211.142,228.237z"></path><circle cx="218.169" cy="233.101" r="2"></circle></g></g><g><g><g><path d="M231.3,238.879c0,0-6.465,4.642-14.301,2.893c-8.1-1.809-15.68-6.148-17.059-8.499c-1.379-2.351-2.93-7.233-2.93-7.233s-0.191,6.102,2.758,9.041c3.445,3.436,13.783,8.137,18.607,8.498c4.826,0.362,13.785-3.435,13.785-3.435L231.3,238.879z"></path></g><g><path d="M236.813,236.167c0,0-3.963-4.883-5.686-5.786c-2.586-1.085-16.367-7.71-22.572-7.414c-7.58,0.362-19.643,0.362-20.678,0.362c2.586,3.074,6.721,4.702,6.721,4.702s12.918-0.525,15.852,0.361C221.823,231.827,236.813,236.167,236.813,236.167z"></path><path d="M227.854,232.912c0,0,3.273,5.605,4.652,7.956c1.723-0.904,2.584-2.531,2.584-2.531c1.551-0.181,2.584-0.181,2.584-0.181s-1.725-4.521-4.996-6.148C230.956,232.188,227.854,232.912,227.854,232.912z"></path><path d="M229.231,231.828c0,0,10.512,2.893,11.891,3.797c-6.203-4.882-21.709-10.849-31.359-11.753C214.585,226.041,229.231,231.828,229.231,231.828z"></path></g></g></g></g><path d="M229.778,246.801c3.334-4.5,5.5-9.167,5.5-9.167l2.5,0.667C237.778,238.301,232.944,244.967,229.778,246.801z"></path></g></g></g></svg>