<svg xmlns="http://www.w3.org/2000/svg" width="500" height="500" version="1.1"><g id="x9075"><g><g><path style="opacity:0.5;fill:#7A423D;" d="M268.624,243.576c0,0,10.154,3,18.774,1.375s17.476-9,17.476-9s0,10.875-16.886,15.375C278.542,251.326,268.742,245.326,268.624,243.576z"></path><path d="M269.181,244.42c0,0,9.848,2.999,17.514,2.171c7.279-0.786,12.472-1.762,17.127-5.054c-3.406,4.726-8.85,9.982-17.466,9.716C277.599,251.356,269.181,244.42,269.181,244.42z"></path><g><g><path style="fill:#FFFFFF;" d="M282.374,230.25c-8.713,1.398-14,4.932-14,4.932s-0.375,5.318,2.875,8.318c2.408,2.155,24.5,0.25,24.5,0.25s9.111-3.311,11.75-14.25C301.204,229.873,290.223,228.99,282.374,230.25z"></path><path style="fill:#E4E0F3;" d="M304.999,237c0.575-1.497,2.584-7.007,3.125-9.25c-6.295,0.373-17.901,1.24-25.75,2.5c-8.713,1.398-14,4.932-14,4.932s-0.266,3.653,1.527,7.055C280.916,237.447,292.63,236.889,304.999,237z"></path></g><g><g><g><g><g><path style="fill:#A2D7DD;" d="M272.002,232.411c-0.833,1.19,0.734,12.841,11.319,11.301c10.584-1.54,10.703-11.301,8.917-14.396C290.929,228.364,275.097,231.221,272.002,232.411z"></path></g></g><g><g><path style="fill:#84B9BF;" d="M292.297,237.396c1.273-3.104,0.864-6.481-0.059-8.08c-1.31-0.952-17.142,1.905-20.236,3.095c-0.502,0.718-0.128,5.233,2.563,8.373C280.109,237.892,286.145,237.219,292.297,237.396z"></path></g></g></g><g><g><g><path d="M275.316,232.306c-0.633,0.959-0.156,3.789,0.962,5.711c1.475,2.539,3.928,3.683,6.906,3.223c3.656-0.564,5.323-2.652,6.078-4.304c1.086-2.377,0.854-5.163,0.085-6.578l0,0c-0.26-0.478-0.836-0.642-1.287-0.366s-0.605,0.888-0.346,1.366l0,0c0.439,0.806,0.695,2.859-0.148,4.705c-0.809,1.77-2.374,2.845-4.653,3.197c-1.888,0.292-3.391-0.209-4.469-1.489c-1.395-1.656-1.615-4.047-1.51-4.472c0,0-0.017,0.065-0.074,0.152l0,0c0.299-0.453,0.194-1.076-0.231-1.393C276.202,231.743,275.614,231.854,275.316,232.306L275.316,232.306z"></path></g></g></g><circle cx="282.438" cy="234.788" r="2.063"></circle><g><path d="M273.874,233.125c0,0-0.875,10.375,9.5,10.5c-2.625,1-11.125-0.25-11.75-9.625C272.749,233.125,273.874,233.125,273.874,233.125z"></path><path d="M293.749,230.25c0,0,2.125,11.625-9.625,13.125c9.75-3.25,7.375-12.75,7.375-12.75L293.749,230.25z"></path></g></g><ellipse transform="matrix(0.9997 -0.0257 0.0257 0.9997 -5.9724 7.5987)" style="fill:#FFFFFF;" cx="292.999" cy="236.438" rx="3.5" ry="1.437"></ellipse><circle style="fill:#FFFFFF;" cx="287.416" cy="236.542" r="1.125"></circle></g><path d="M298.882,223.863c-16.614-2.283-32.226,4.522-32.226,4.522L298.882,223.863z"></path><g><g><g><path d="M306.16,225.397c-3.369-0.961-17.727,1.108-31.395,4.303c-5.913,1.409-14.765,7.248-14.765,7.248s10.873-3.197,26.498-5.447c14.429-2.078,26.082-2.467,26.082-2.467S309.529,226.357,306.16,225.397z"></path></g><path d="M275.749,231.625c0,0-4.375,2-7,3.75s-6.625,5.125-6.625,5.125s2.25-3.75,4.75-6.125C269.624,233,275.749,231.625,275.749,231.625z"></path><path d="M298.749,224.875c0,0,8.25,0,12.125-3.5c-0.875,2.75-3.375,6.125-3.375,6.125L298.749,224.875z"></path><path d="M291.874,226.625c0,0,6.125-2.125,9.125-6.125c0,3.75-2,6.25-2,6.25L291.874,226.625z"></path><path d="M308.624,226.375c0,0,4.875-0.75,5.375-1.25c-2.75,2.875-3.875,6.5-6.25,7.25C307.749,228.875,308.624,226.375,308.624,226.375z"></path></g><path d="M306.999,228.25c0,0-4.75,8.125-9.875,11.5c-8.56,5.637-22.625,4.375-27.875,3.625c9.375,2,21.779,3.755,29.75-0.75c8.625-4.875,12.75-14.375,12.75-14.375H306.999z"></path></g></g></g><g><path style="opacity:0.5;fill:#7A423D;" d="M231.376,243.576c0,0-10.154,3-18.774,1.375s-17.476-9-17.476-9s0,10.875,16.886,15.375C221.458,251.326,231.258,245.326,231.376,243.576z"></path><path d="M230.974,244.701c0,0-9.974,2.549-17.594,1.375c-7.236-1.115-12.38-2.326-16.88-5.826c3.188,4.875,8.387,10.375,17.007,10.5C222.25,251.25,230.974,244.701,230.974,244.701z"></path><g><g><path style="fill:#FFFFFF;" d="M217.626,230.25c8.713,1.398,14,4.932,14,4.932s0.375,5.318-2.875,8.318c-2.408,2.155-24.5,0.25-24.5,0.25s-9.111-3.311-11.75-14.25C198.796,229.873,209.777,228.99,217.626,230.25z"></path><path style="fill:#E4E0F3;" d="M195.001,237c-0.575-1.497-2.584-7.007-3.125-9.25c6.295,0.373,17.901,1.24,25.75,2.5c8.713,1.398,14,4.932,14,4.932s0.266,3.653-1.527,7.055C219.084,237.447,207.37,236.889,195.001,237z"></path></g><g><g><g><g><g><path style="fill:#A2D7DD;" d="M227.998,232.411c0.833,1.19-0.734,12.841-11.319,11.301c-10.584-1.54-10.703-11.301-8.917-14.396C209.071,228.364,224.903,231.221,227.998,232.411z"></path></g></g><g><g><path style="fill:#84B9BF;" d="M207.703,237.396c-1.273-3.104-0.864-6.481,0.059-8.08c1.31-0.952,17.142,1.905,20.236,3.095c0.502,0.718,0.128,5.233-2.563,8.373C219.891,237.892,213.855,237.219,207.703,237.396z"></path></g></g></g><g><g><g><path d="M224.684,232.306c0.633,0.959,0.156,3.789-0.962,5.711c-1.475,2.539-3.928,3.683-6.906,3.223c-3.656-0.564-5.323-2.652-6.078-4.304c-1.086-2.377-0.854-5.163-0.085-6.578l0,0c0.26-0.478,0.836-0.642,1.287-0.366s0.605,0.888,0.346,1.366l0,0c-0.439,0.806-0.695,2.859,0.148,4.705c0.809,1.77,2.374,2.845,4.653,3.197c1.888,0.292,3.391-0.209,4.469-1.489c1.395-1.656,1.615-4.047,1.51-4.472c0,0,0.017,0.065,0.074,0.152l0,0c-0.299-0.453-0.194-1.076,0.231-1.393C223.798,231.743,224.386,231.854,224.684,232.306L224.684,232.306z"></path></g></g></g><circle cx="217.562" cy="234.788" r="2.063"></circle><g><path d="M226.126,233.125c0,0,0.875,10.375-9.5,10.5c2.625,1,11.125-0.25,11.75-9.625C227.251,233.125,226.126,233.125,226.126,233.125z"></path><path d="M206.251,230.25c0,0-2.125,11.625,9.625,13.125c-9.75-3.25-7.375-12.75-7.375-12.75L206.251,230.25z"></path></g></g><ellipse transform="matrix(0.9997 -0.0257 0.0257 0.9997 -5.9945 5.8779)" style="fill:#FFFFFF;" cx="225.96" cy="236.438" rx="3.5" ry="1.437"></ellipse><circle style="fill:#FFFFFF;" cx="220.377" cy="236.542" r="1.125"></circle></g><path d="M201.118,223.863c16.614-2.283,32.226,4.522,32.226,4.522L201.118,223.863z"></path><g><g><g><path d="M193.84,225.397c3.369-0.961,17.727,1.108,31.395,4.303c5.913,1.409,14.765,7.248,14.765,7.248s-10.873-3.197-26.498-5.447c-14.429-2.078-26.082-2.467-26.082-2.467S190.471,226.357,193.84,225.397z"></path></g><path d="M224.251,231.625c0,0,4.375,2,7,3.75s6.625,5.125,6.625,5.125s-2.25-3.75-4.75-6.125C230.376,233,224.251,231.625,224.251,231.625z"></path><path d="M201.251,224.875c0,0-8.25,0-12.125-3.5c0.875,2.75,3.375,6.125,3.375,6.125L201.251,224.875z"></path><path d="M208.126,226.625c0,0-6.125-2.125-9.125-6.125c0,3.75,2,6.25,2,6.25L208.126,226.625z"></path><path d="M191.376,226.375c0,0-4.875-0.75-5.375-1.25c2.75,2.875,3.875,6.5,6.25,7.25C192.251,228.875,191.376,226.375,191.376,226.375z"></path></g><path d="M193.001,228.25c0,0,4.75,8.125,9.875,11.5c8.56,5.637,22.625,4.375,27.875,3.625c-9.375,2-21.779,3.755-29.75-0.75c-8.625-4.875-12.75-14.375-12.75-14.375H193.001z"></path></g></g></g></g></g></svg>