<svg xmlns="http://www.w3.org/2000/svg" width="500" height="500" version="1.1"><g id="x9077"><g><g><g><g><path style="fill:#FFFFFF;" d="M260.824,231.867c-0.019,0.299,7.595,3.573,7.874,3.891c2.603,1.661,17.084,5.558,29.123,1.991c6.753-5.593,8.134-10.116,8.134-10.116l-36.588-2.751L260.824,231.867z"></path><path style="fill:#E4E0F3;" d="M302.646,232.957c2.607-3.158,3.31-5.324,3.31-5.324l-36.588-2.751l-6.119,5.005C276.837,230.559,289.621,230.526,302.646,232.957z"></path></g><g><g><path style="fill:#A2D7DD;" d="M271.695,226.529c0,0-0.087,10.174,9.691,11.156c9.16,0.922,11.61-9.843,11.61-9.843S273.683,224.772,271.695,226.529z"></path><ellipse style="fill:#01FAFB;" cx="282.125" cy="235.5" rx="2.75" ry="2"></ellipse><path style="fill:#84B9BF;" d="M292.997,227.842c0,0-19.314-3.069-21.302-1.313c0,0,1.996,3.705,2.499,5.547l15.182,1.304C290.354,231.46,292.997,227.842,292.997,227.842z"></path></g><g><ellipse transform="matrix(0.9981 0.0616 -0.0616 0.9981 14.7425 -16.9456)" cx="282.139" cy="230.572" rx="2.187" ry="2.857"></ellipse><path d="M276.672,234.351c0,0-1.093-2.573,1.13-3.778c2.22-1.206,11.317-0.732,10.441,4.761c2.588-2.794,3.346-7.848,3.346-7.848l-18.3-2.114C273.289,225.373,271.992,231.916,276.672,234.351z"></path></g><g><path d="M274.202,226.503c0,0-1.484,8.14,7.81,11.218c-2.411-0.058-10.115-1.338-10.488-11.293C273.053,226.254,274.202,226.503,274.202,226.503z"></path><path d="M290.396,227.501c0,0,0.479,8.262-9.124,10.175c2.401,0.239,10.205-0.086,11.792-9.92C291.567,227.395,290.396,227.501,290.396,227.501z"></path></g></g><g><path d="M268.366,223.217c0,0-10.363,8.979-11.812,9.69c4.575,0.481,10.649-3.753,14.273-7.335C269.89,224.512,268.366,223.217,268.366,223.217z"></path><path d="M274.645,238.307c0.198-0.069-3.038-2.696-3.965-2.951c-0.926-0.252-3.319-0.368-4.88-0.146c0.334,0.68,3.361,0.436,4.383,1.18C271.204,237.136,274.324,238.421,274.645,238.307z"></path><path d="M268.916,224.053l-4.291-1.867c0,0,41.446,3.55,45.013,4.17c0.713,1.448-5.123,14.91-19.505,14.224c8.651-3.873,13.123-11.41,13.123-11.41s-34.261-3.111-35.482-2.785C268.011,225.8,268.916,224.053,268.916,224.053z"></path><path d="M274.337,238.083c0,0,2.959,2.471,10.59,2.957c9.791,0.624,12.885-1.632,12.885-1.632l1.203-2.131c0,0-6.965,2.297-15.226,1.991C277.041,239.018,274.337,238.083,274.337,238.083z"></path></g></g><path d="M267.452,216.269c0,0,5.554-3.825,13.001-2.766c6.722,0.956,21.854,4.149,21.854,4.149s-12.741-5.225-21.854-6.085C271.496,210.72,267.452,216.269,267.452,216.269z"></path></g><g><g><g><path style="fill:#FFFFFF;" d="M239.176,231.867c0.019,0.299-7.595,3.573-7.874,3.891c-2.603,1.661-17.084,5.558-29.123,1.991c-6.753-5.593-8.134-10.116-8.134-10.116l36.588-2.751L239.176,231.867z"></path><path style="fill:#E4E0F3;" d="M197.354,232.957c-2.607-3.158-3.31-5.324-3.31-5.324l36.588-2.751l6.119,5.005C223.163,230.559,210.379,230.526,197.354,232.957z"></path></g><g><g><path style="fill:#A2D7DD;" d="M228.305,226.529c0,0,0.087,10.174-9.691,11.156c-9.16,0.922-11.61-9.843-11.61-9.843S226.317,224.772,228.305,226.529z"></path><ellipse style="fill:#01FAFB;" cx="217.875" cy="235.5" rx="2.75" ry="2"></ellipse><path style="fill:#84B9BF;" d="M207.003,227.842c0,0,19.314-3.069,21.302-1.313c0,0-1.996,3.705-2.499,5.547l-15.182,1.304C209.646,231.46,207.003,227.842,207.003,227.842z"></path></g><g><ellipse transform="matrix(-0.9981 0.0616 -0.0616 -0.9981 449.5142 447.2832)" cx="217.861" cy="230.572" rx="2.187" ry="2.857"></ellipse><path d="M223.328,234.351c0,0,1.093-2.573-1.13-3.778c-2.22-1.206-11.317-0.732-10.441,4.761c-2.588-2.794-3.346-7.848-3.346-7.848l18.3-2.114C226.711,225.373,228.008,231.916,223.328,234.351z"></path></g><g><path d="M225.798,226.503c0,0,1.484,8.14-7.81,11.218c2.411-0.058,10.115-1.338,10.488-11.293C226.947,226.254,225.798,226.503,225.798,226.503z"></path><path d="M209.604,227.501c0,0-0.479,8.262,9.124,10.175c-2.401,0.239-10.205-0.086-11.792-9.92C208.433,227.395,209.604,227.501,209.604,227.501z"></path></g></g><g><path d="M231.634,223.217c0,0,10.363,8.979,11.812,9.69c-4.575,0.481-10.649-3.753-14.273-7.335C230.11,224.512,231.634,223.217,231.634,223.217z"></path><path d="M225.355,238.307c-0.198-0.069,3.038-2.696,3.965-2.951c0.926-0.252,3.319-0.368,4.88-0.146c-0.334,0.68-3.361,0.436-4.383,1.18C228.796,237.136,225.676,238.421,225.355,238.307z"></path><path d="M231.084,224.053l4.291-1.867c0,0-41.446,3.55-45.013,4.17c-0.713,1.448,5.123,14.91,19.505,14.224c-8.651-3.873-13.123-11.41-13.123-11.41s34.261-3.111,35.482-2.785C231.989,225.8,231.084,224.053,231.084,224.053z"></path><path d="M225.663,238.083c0,0-2.959,2.471-10.59,2.957c-9.791,0.624-12.885-1.632-12.885-1.632l-1.203-2.131c0,0,6.965,2.297,15.226,1.991C222.959,239.018,225.663,238.083,225.663,238.083z"></path></g></g><path d="M232.548,216.269c0,0-5.554-3.825-13.001-2.766c-6.722,0.956-21.854,4.149-21.854,4.149s12.741-5.225,21.854-6.085C228.504,210.72,232.548,216.269,232.548,216.269z"></path></g></g></g></svg>