<svg xmlns="http://www.w3.org/2000/svg" width="500" height="500" version="1.1"><g id="x9078"><g><g><g><g><g><path style="fill:#FFFFFF;" d="M200.925,240.485c0,0,4.608,8.774,16.483,10.901c6.381-0.089,9.395-2.748,9.395-2.748s3.456-5.672,2.393-18.345c-2.433-3.65-15.515-6.547-19.408-6.913c-3.893-0.365-12.585,6.47-12.585,6.47L200.925,240.485z"></path></g><g><path style="fill:#E4E0F3;" d="M229.388,235.493c0.016-1.586-0.033-3.305-0.192-5.2c-2.433-3.65-15.515-6.547-19.408-6.913c-3.893-0.365-12.585,6.47-12.585,6.47l2.531,7.231C209.221,234.393,219.561,233.869,229.388,235.493z"></path></g><g><path style="fill:#A2D7DD;" d="M205.379,226.574c0,0-2.31,8.617,1.097,14.187c3.407,5.568,6.082,8.206,11.437,7.473c5.354-0.733,7.787-6.155,8.76-10.404c0.974-4.25,0.486-10.551,0.486-10.551s-5.962-5.422-13.261-3.81C206.598,225.081,205.379,226.574,205.379,226.574z"></path><ellipse style="opacity:0.5;fill:#FFFFFF;" cx="216.893" cy="245.063" rx="5" ry="3.18"></ellipse><path style="fill:#84B9BF;" d="M205.149,236.638c0,0,7.71-3.203,21.27-0.961c1.329-5.444,0.739-8.398,0.739-8.398s-5.791-3.771-12.704-3.13c-6.912,0.641-8.61,2.16-8.61,2.16L205.149,236.638z"></path><path style="opacity:0.5;" d="M205.149,236.638c0,0,3.894-1.601,11.338-1.601s9.571,0.64,9.571,0.64v-8.113c0,0-6.192-2.988-11.604-3.416c-5.411-0.427-10.02,2.349-10.02,2.349L205.149,236.638z"></path><g><path d="M219.846,234.778c0,3.36-1.17,7.784-2.613,7.784c-1.445,0-2.615-4.424-2.615-7.784c0-3.361,1.17-4.385,2.615-4.385C218.676,230.393,219.846,231.417,219.846,234.778z"></path></g><path d="M207.705,238.605c-2.991-7.378,0.398-12.673,0.398-12.673s-2.737-0.611-3.589,0.708c-3.19,10.236,3.854,22.466,12.186,21.802C212.689,247.246,209.981,244.222,207.705,238.605z"></path><path d="M225.563,228.236c0,0,2.216,11.299-5.317,19.408c3.723-1.063,8.617-7.764,8.737-17.582C227.036,228.158,225.563,228.236,225.563,228.236z"></path></g><path d="M213.086,222.228c0,0-8.508-0.709-14.889,0.532c4.963,0.709,8.153,1.773,8.153,1.773L213.086,222.228z"></path><path d="M222.254,251.233c0,0-0.445-0.405-0.162-0.893c0.284-0.486,1.096-0.161,1.096,0.162C223.188,250.828,223.105,251.274,222.254,251.233z"></path><path d="M205.593,246.802c0,0-0.445-0.405-0.162-0.892c0.284-0.486,1.096-0.162,1.096,0.163C206.526,246.397,206.444,246.843,205.593,246.802z"></path><path d="M223.684,250.713c0,0-0.445-0.406-0.162-0.893c0.283-0.486,1.096-0.161,1.096,0.163C224.617,250.307,224.535,250.754,223.684,250.713z"></path><path d="M225.69,250.041c0,0-1.037,0.083-0.721-0.632c0.316-0.713,2.014-1.232,2.163-0.944C227.283,248.752,227.333,249.23,225.69,250.041z"></path><path d="M207.5,246.922c0,0,0.934,0.464,0.869,0.742c-0.063,0.276-1.586,0.925-1.632,0.581C206.69,247.9,207.197,246.978,207.5,246.922z"></path></g></g><g><path d="M198.313,231.5c0,0,2.049-4.613,8.204-5.641c9.233-0.258,18.207,1.025,20.773,4.872c2.566,3.847,5.131,10.258,5.131,10.258s0.767-7.436-0.515-10.258c2.822,1.283,3.847,0.77,3.847,0.77s-5.915-7.065-17.695-8.718c-14.618-2.053-18.979,2.305-21.029,2.563c-2.05,0.259-5.898-0.255-5.898-0.255s3.332,11.282,10.001,15.643C199.083,237.4,198.313,231.5,198.313,231.5z"></path><path d="M209.34,248.171c0.271-0.331,2.666,1.218,6.739,1.708c3.936,0.474,5.315,0.855,5.315,0.855s-4.041,0.869-6.536,0.087C211.427,249.746,209.069,248.501,209.34,248.171z"></path><path d="M219.342,218.935c0,0,10.258,3.336,14.104,6.924C229.088,220.215,224.983,218.935,219.342,218.935z"></path></g></g><g><g><g><g><path style="fill:#FFFFFF;" d="M299.075,240.485c0,0-4.609,8.774-16.484,10.901c-6.381-0.089-9.395-2.748-9.395-2.748s-3.456-5.672-2.393-18.345c2.435-3.65,15.516-6.547,19.408-6.913c3.893-0.365,12.586,6.47,12.586,6.47L299.075,240.485z"></path></g><g><path style="fill:#E4E0F3;" d="M270.612,235.493c-0.017-1.586,0.033-3.305,0.191-5.2c2.435-3.65,15.516-6.547,19.408-6.913c3.893-0.365,12.586,6.47,12.586,6.47l-2.532,7.231C290.779,234.393,280.439,233.869,270.612,235.493z"></path></g><g><path style="fill:#A2D7DD;" d="M294.622,226.574c0,0,2.308,8.617-1.097,14.187c-3.409,5.568-6.084,8.206-11.437,7.474c-5.355-0.733-7.787-6.155-8.762-10.405c-0.972-4.25-0.486-10.551-0.486-10.551s5.962-5.421,13.261-3.81C293.402,225.081,294.622,226.574,294.622,226.574z"></path><ellipse style="opacity:0.5;fill:#FFFFFF;" cx="283.107" cy="245.063" rx="5.001" ry="3.18"></ellipse><path style="fill:#84B9BF;" d="M294.851,236.638c0,0-7.711-3.203-21.271-0.961c-1.329-5.444-0.739-8.398-0.739-8.398s5.791-3.771,12.704-3.13c6.912,0.641,8.611,2.16,8.611,2.16L294.851,236.638z"></path><path style="opacity:0.5;" d="M294.851,236.638c0,0-3.893-1.601-11.337-1.601s-9.571,0.64-9.571,0.64v-8.113c0,0,6.191-2.988,11.603-3.416c5.413-0.427,10.02,2.349,10.02,2.349L294.851,236.638z"></path><g><path d="M280.152,234.778c0,3.36,1.172,7.784,2.615,7.784s2.615-4.424,2.615-7.784c0-3.361-1.172-4.385-2.615-4.385S280.152,231.417,280.152,234.778z"></path></g><path d="M292.296,238.605c2.99-7.378-0.399-12.673-0.399-12.673s2.737-0.611,3.59,0.708c3.19,10.236-3.855,22.466-12.187,21.802C287.311,247.246,290.017,244.222,292.296,238.605z"></path><path d="M274.437,228.236c0,0-2.215,11.299,5.317,19.408c-3.723-1.063-8.616-7.764-8.736-17.582C272.964,228.158,274.437,228.236,274.437,228.236z"></path></g><path d="M286.913,222.228c0,0,8.509-0.709,14.89,0.532c-4.965,0.709-8.155,1.773-8.155,1.773L286.913,222.228z"></path><path d="M277.745,251.233c0,0,0.446-0.405,0.162-0.893c-0.282-0.486-1.095-0.161-1.095,0.162C276.813,250.828,276.894,251.274,277.745,251.233z"></path><path d="M294.406,246.802c0,0,0.446-0.405,0.161-0.892c-0.282-0.486-1.094-0.161-1.094,0.163C293.474,246.397,293.554,246.843,294.406,246.802z"></path><path d="M276.316,250.713c0,0,0.444-0.406,0.162-0.893c-0.285-0.486-1.097-0.161-1.097,0.163C275.382,250.307,275.465,250.754,276.316,250.713z"></path><path d="M274.31,250.041c0,0,1.036,0.083,0.721-0.632c-0.317-0.713-2.015-1.232-2.164-0.944C272.717,248.752,272.667,249.23,274.31,250.041z"></path><path d="M292.499,246.922c0,0-0.933,0.464-0.868,0.742c0.063,0.276,1.585,0.925,1.633,0.581C293.309,247.9,292.802,246.978,292.499,246.922z"></path></g></g><g><path d="M301.687,231.5c0,0-2.051-4.613-8.205-5.641c-9.232-0.258-18.206,1.025-20.773,4.872c-2.567,3.847-5.13,10.258-5.13,10.258s-0.767-7.436,0.515-10.258c-2.823,1.283-3.847,0.77-3.847,0.77s5.913-7.065,17.695-8.718c14.618-2.053,18.979,2.305,21.028,2.563c2.05,0.259,5.899-0.255,5.899-0.255s-3.332,11.282-10.002,15.643C300.918,237.4,301.687,231.5,301.687,231.5z"></path><path d="M290.661,248.171c-0.272-0.331-2.667,1.218-6.74,1.708c-3.937,0.474-5.315,0.855-5.315,0.855s4.04,0.869,6.536,0.087C288.573,249.746,290.931,248.501,290.661,248.171z"></path><path d="M280.657,218.935c0,0-10.257,3.336-14.104,6.924C270.911,220.215,275.016,218.935,280.657,218.935z"></path></g></g></g></g></svg>