<svg xmlns="http://www.w3.org/2000/svg" width="500" height="500" version="1.1"><g id="x9079"><g><path d="M262.604,233.686c0,0,6.134-5.11,8.178-4.43c2.045,0.681,8.52,5.453,14.653,4.089c6.134-1.364,13.29-6.475,13.29-6.475l4.428,3.067c0,0-6.133-0.342-7.836,1.022s-2.728,9.202-13.631,8.52c-10.904-0.682-13.629-4.43-13.629-4.43L262.604,233.686z"></path><path d="M237.396,233.686c0,0-6.134-5.11-8.178-4.43c-2.045,0.681-8.52,5.453-14.653,4.089c-6.134-1.364-13.29-6.475-13.29-6.475l-4.428,3.067c0,0,6.133-0.342,7.836,1.022s2.728,9.202,13.631,8.52c10.904-0.682,13.629-4.43,13.629-4.43L237.396,233.686z"></path></g></g></svg>