<svg xmlns="http://www.w3.org/2000/svg" width="500" height="500" version="1.1"><g id="x9080"><g><g><g><g><g><path style="fill:#FFFFFF;" d="M298.959,240.263c0,0-8.236,4.768-19.676,3.348c-11.439-1.42-14.529-4.058-14.529-4.058s-1.258-4.666-1.258-6.999c2.287-3.043,15.9-5.782,19.563-6.086c3.66-0.305,18.418,4.666,18.418,4.666L298.959,240.263z"></path><path style="fill:#E4E0F3;" d="M264.008,237.646c-0.27-1.5-0.512-3.158-0.512-4.312c2.287-3.432,15.9-6.521,19.563-6.864c3.66-0.343,18.418,5.262,18.418,5.262l-1.479,6.053C288.338,234.667,275.453,233.879,264.008,237.646z"></path></g><g><path style="fill:#A2D7DD;" d="M292.896,228.348c0,0,0.344,5.148-2.859,9.496c-3.203,4.347-5.719,6.406-10.754,5.834c-5.033-0.572-7.322-4.805-8.236-8.123c-0.916-3.318-0.292-6.556-0.292-6.556s5.637-4.133,12.5-2.875C290.118,227.384,292.896,228.348,292.896,228.348z"></path><circle style="fill:#84B9BF;" cx="280.783" cy="234.375" r="4.5"></circle><path style="fill:#84B9BF;" d="M291.285,236.625c0,0-7.25-2.5-20-0.75c-1.25-4.25-0.695-6.556-0.695-6.556s5.445-2.944,11.945-2.444s10.25,2.5,10.25,2.5L291.285,236.625z"></path><path style="opacity:0.5;" d="M291.285,236.625c0,0-3.662-1.25-10.662-1.25s-9,0.5-9,0.5v-6.333c0,0,5.822-2.333,10.912-2.667c5.088-0.333,9.422,1.833,9.422,1.833L291.285,236.625z"></path><g><ellipse cx="280.545" cy="234.5" rx="2.459" ry="3.125"></ellipse></g><path d="M291.754,227.776c0,0,0.686,10.868-6.979,14.415c0.342,0.572,0.914,0.801,0.914,0.801s8.238-3.204,7.779-14.529C292.668,227.433,291.754,227.776,291.754,227.776z"></path><path d="M272.648,228.005c0,0-1.613,6.62,0.801,13.271c-0.801,0.343-4.463-4.119-4.576-11.784C270.703,228.005,272.648,228.005,272.648,228.005z"></path></g></g></g><g><path d="M311.63,228.125c0,0-4.156,0.558-7.5-1.125c-5.356-2.696-13.604-2.839-20.81-2.5c-13.473,0.633-19.701,8.667-19.701,8.667s0.033,0.192-1.75,2.25c6.666-3.583,11.959-4.892,20.195-5.198c6.292-0.233,15.259,1.762,19.145,3.426c-0.324,1.143-1.296,2.841-3.954,4.98c-3.518,2.832-9.875,4.75-17.375,5.75c7.375-0.25,16.375-0.375,19.75-1.625c2.804-1.039,7.063-9.119,8.429-10.813C310.178,229.822,311.63,228.125,311.63,228.125z"></path><path d="M264.172,228.667c0,0,8.166-6.5,17.833-6.333s21.5,3.333,24.5,7.333c-3.333-5.5-13.166-10-25.333-9.333S264.172,228.667,264.172,228.667z"></path></g></g><g><g><g><g><path style="fill:#FFFFFF;" d="M201.041,240.263c0,0,8.236,4.768,19.676,3.348c11.439-1.42,14.529-4.058,14.529-4.058s1.258-4.666,1.258-6.999c-2.287-3.043-15.9-5.782-19.563-6.086c-3.66-0.305-18.418,4.666-18.418,4.666L201.041,240.263z"></path><path style="fill:#E4E0F3;" d="M235.992,237.646c0.27-1.5,0.512-3.158,0.512-4.312c-2.287-3.432-15.9-6.521-19.563-6.864c-3.66-0.343-18.418,5.262-18.418,5.262l1.479,6.053C211.662,234.667,224.547,233.879,235.992,237.646z"></path></g><g><path style="fill:#A2D7DD;" d="M207.104,228.348c0,0-0.344,5.148,2.859,9.496c3.203,4.347,5.719,6.406,10.754,5.834c5.033-0.572,7.322-4.805,8.236-8.123c0.916-3.318,0.292-6.556,0.292-6.556s-5.637-4.133-12.5-2.875C209.882,227.384,207.104,228.348,207.104,228.348z"></path><circle style="fill:#84B9BF;" cx="219.217" cy="234.375" r="4.5"></circle><path style="fill:#84B9BF;" d="M208.715,236.625c0,0,7.25-2.5,20-0.75c1.25-4.25,0.695-6.556,0.695-6.556s-5.445-2.944-11.945-2.444s-10.25,2.5-10.25,2.5L208.715,236.625z"></path><path style="opacity:0.5;" d="M208.715,236.625c0,0,3.662-1.25,10.662-1.25s9,0.5,9,0.5v-6.333c0,0-5.822-2.333-10.912-2.667c-5.088-0.333-9.422,1.833-9.422,1.833L208.715,236.625z"></path><g><ellipse cx="219.455" cy="234.5" rx="2.459" ry="3.125"></ellipse></g><path d="M208.246,227.776c0,0-0.686,10.868,6.979,14.415c-0.342,0.572-0.914,0.801-0.914,0.801s-8.238-3.204-7.779-14.529C207.332,227.433,208.246,227.776,208.246,227.776z"></path><path d="M227.352,228.005c0,0,1.613,6.62-0.801,13.271c0.801,0.343,4.463-4.119,4.576-11.784C229.297,228.005,227.352,228.005,227.352,228.005z"></path></g></g></g><g><path d="M188.37,228.125c0,0,4.156,0.558,7.5-1.125c5.356-2.696,13.604-2.839,20.81-2.5c13.473,0.633,19.701,8.667,19.701,8.667s-0.033,0.192,1.75,2.25c-6.666-3.583-11.959-4.892-20.195-5.198c-6.292-0.233-15.259,1.762-19.145,3.426c0.324,1.143,1.296,2.841,3.954,4.98c3.518,2.832,9.875,4.75,17.375,5.75c-7.375-0.25-16.375-0.375-19.75-1.625c-2.804-1.039-7.063-9.119-8.429-10.813C189.822,229.822,188.37,228.125,188.37,228.125z"></path><path d="M235.828,228.667c0,0-8.166-6.5-17.833-6.333s-21.5,3.333-24.5,7.333c3.333-5.5,13.166-10,25.333-9.333S235.828,228.667,235.828,228.667z"></path></g></g></g></g></svg>