<svg xmlns="http://www.w3.org/2000/svg" width="500" height="500" version="1.1"><g id="x9081"><g><g><g><path style="fill:#FFFFFF;" d="M300.288,238.718c0,0-0.734,5.918-8.604,8.279c-6.695-0.093-15.74,0.394-15.74,0.394s-8.001-2.229-5.321-19.367c2.555-3.83,16.281-6.87,20.365-7.254c4.085-0.383,13.207,6.789,13.207,6.789L300.288,238.718z"></path></g><g><path style="fill:#E4E0F3;" d="M270.041,233.487c-0.018-1.665,0.415-3.476,0.581-5.464c2.555-3.83,16.281-6.87,20.365-7.254c4.085-0.383,13.207,6.789,13.207,6.789l-2.657,7.587C291.583,232.326,280.353,231.784,270.041,233.487z"></path></g><g><g><path style="fill:#A2D7DD;" d="M273.015,228.279c-0.142,0.141-1.007,7.414-0.531,11.225c0.706,5.657,4.609,8.218,4.609,8.218s2.804,0.735,6.681-0.135c5.679-1.936,10.02-7.281,10.891-12.359c0.868-5.08-2.407-10.757-2.407-10.757S278.294,223.066,273.015,228.279z"></path><ellipse style="opacity:0.5;fill:#FFFFFF;" cx="281.321" cy="243.849" rx="6.427" ry="3.935"></ellipse><path style="fill:#84B9BF;" d="M273.015,228.279c-0.097,0.097-0.706,3.575-0.809,6.96c7.123-3.489,15.302-4.468,22.554-2.542c-0.245-4.262-2.503-8.228-2.503-8.228S278.294,223.066,273.015,228.279z"></path><path d="M273.483,227.811c0,0-2.672,15.367,3.609,19.911c-9.021-4.141-5.815-18.776-5.815-18.776L273.483,227.811z"></path><path d="M291.254,225.072c0,0,3.175,5.506,1.94,11.158c-2.207,10.089-10.959,11.625-10.959,11.625s11.558,0.4,13.831-11.958c1.598-8.689-1.602-10.758-1.602-10.758L291.254,225.072z"></path><ellipse style="fill:#FFFFFF;" cx="291.159" cy="230.602" rx="2.23" ry="3.41"></ellipse><ellipse cx="282.196" cy="235.661" rx="2.539" ry="4.109"></ellipse></g><path d="M266.067,222.466c0.201-0.134,6.079-3.207,11.092-3.942c8.017-1.002,21.114,0,24.988,1.603c-7.351-3.407-17.104-3.607-24.522-2.806C270.812,217.856,266.067,222.466,266.067,222.466z"></path><g><g><path d="M274.352,227.944c6.815-3.207,17.84-3.808,25.057-1.003c2.805,5.211,1.402,11.626-1.805,16.838c7.215-2.806,10.021-12.227,10.021-12.227s-0.198-4.611-7.214-9.021c-10.425-4.209-23.853-0.601-27.862,1.804c-2.678,1.675-4.658,5.304-5.239,6.806c-0.112,0.297-0.173,0.512-0.173,0.611L274.352,227.944z"></path><path d="M271.881,226.528c0,0-6.615,2.54-8.619,4.276c1.268-2.941,9.286-6.949,13.563-8.018C273.817,224.456,271.881,226.528,271.881,226.528z"></path><path d="M303.416,224.938c0,0,3.607-0.602,7.016-4.009c0,4.609-4.812,8.619-5.813,9.02C304.619,227.142,303.416,224.938,303.416,224.938z"></path><path d="M305.821,228.546c1.004-0.602,3.809,1.001,7.617-1.204c-1.204,3.208-6.013,7.216-9.221,7.417C307.426,231.352,305.821,228.546,305.821,228.546z"></path><path d="M295.866,221.597c0,0,5.88-0.87,7.417-2.74c-0.269,2.806-1.738,5.546-2.34,5.68C300.341,224.67,295.866,221.597,295.866,221.597z"></path></g><g><path d="M282.235,247.855c0.334,0.2,7.886,0.268,10.424-0.802c-1.672-1.002-4.277-1.003-5.146-0.735C286.646,246.585,282.235,247.855,282.235,247.855z"></path><path d="M286.045,247.655c0.065,0.6,1.402,3.405,1.937,2.871c0.536-0.534,0.868-3.208,0.67-3.208C288.449,247.319,286.045,247.655,286.045,247.655z"></path><path d="M291.657,247.321c0,0,2.472,2.14,3.007,1.604c0.535-0.536-1.469-1.939-2.069-2.072S291.657,247.321,291.657,247.321z"></path></g></g></g></g><g><g><path style="fill:#FFFFFF;" d="M199.712,238.718c0,0,0.735,5.918,8.604,8.279c6.696-0.093,15.74,0.394,15.74,0.394s8.001-2.229,5.321-19.367c-2.555-3.83-16.281-6.87-20.365-7.254c-4.085-0.383-13.207,6.789-13.207,6.789L199.712,238.718z"></path></g><g><path style="fill:#E4E0F3;" d="M229.959,233.487c0.018-1.665-0.415-3.476-0.581-5.464c-2.555-3.83-16.281-6.87-20.365-7.254c-4.085-0.383-13.207,6.789-13.207,6.789l2.657,7.587C208.417,232.326,219.647,231.784,229.959,233.487z"></path></g><g><g><path style="fill:#A2D7DD;" d="M226.985,228.279c0.142,0.141,1.007,7.414,0.532,11.225c-0.706,5.657-4.61,8.218-4.61,8.218s-2.804,0.735-6.68-0.135c-5.679-1.936-10.02-7.281-10.891-12.359c-0.868-5.08,2.407-10.757,2.407-10.757S221.706,223.066,226.985,228.279z"></path><ellipse style="opacity:0.5;fill:#FFFFFF;" cx="218.679" cy="243.849" rx="6.427" ry="3.935"></ellipse><path style="fill:#84B9BF;" d="M226.985,228.279c0.096,0.097,0.706,3.575,0.809,6.96c-7.123-3.489-15.301-4.468-22.554-2.542c0.245-4.262,2.502-8.228,2.502-8.228S221.706,223.066,226.985,228.279z"></path><path d="M226.517,227.811c0,0,2.671,15.367-3.61,19.911c9.022-4.141,5.815-18.776,5.815-18.776L226.517,227.811z"></path><path d="M208.746,225.072c0,0-3.175,5.506-1.94,11.158c2.207,10.089,10.958,11.625,10.958,11.625s-11.558,0.4-13.831-11.958c-1.597-8.689,1.602-10.758,1.602-10.758L208.746,225.072z"></path><ellipse style="fill:#FFFFFF;" cx="224.952" cy="230.602" rx="2.23" ry="3.41"></ellipse><ellipse cx="217.804" cy="235.661" rx="2.539" ry="4.109"></ellipse></g><path d="M233.933,222.466c-0.202-0.135-6.08-3.208-11.092-3.943c-8.017-1.002-21.115,0-24.988,1.603c7.351-3.407,17.104-3.607,24.522-2.806C229.188,217.856,233.933,222.466,233.933,222.466z"></path><g><g><path d="M225.648,227.944c-6.814-3.207-17.839-3.808-25.056-1.003c-2.805,5.211-1.403,11.626,1.804,16.838c-7.215-2.806-10.021-12.227-10.021-12.227s0.199-4.611,7.214-9.021c10.425-4.209,23.853-0.601,27.863,1.804c2.678,1.675,4.657,5.304,5.238,6.806c0.113,0.297,0.173,0.512,0.173,0.611L225.648,227.944z"></path><path d="M228.12,226.528c0,0,6.615,2.54,8.619,4.276c-1.268-2.941-9.286-6.949-13.563-8.018C226.183,224.456,228.12,226.528,228.12,226.528z"></path><path d="M196.584,224.938c0,0-3.608-0.602-7.017-4.009c0,4.609,4.813,8.619,5.813,9.02C195.381,227.142,196.584,224.938,196.584,224.938z"></path><path d="M194.178,228.546c-1.003-0.602-3.808,1.001-7.617-1.204c1.204,3.208,6.013,7.216,9.221,7.417C192.575,231.352,194.178,228.546,194.178,228.546z"></path><path d="M204.134,221.597c0,0-5.88-0.87-7.417-2.74c0.268,2.806,1.739,5.546,2.34,5.68C199.66,224.67,204.134,221.597,204.134,221.597z"></path></g><g><path d="M217.765,247.855c-0.334,0.2-7.885,0.268-10.423-0.802c1.671-1.002,4.277-1.003,5.145-0.735C213.353,246.585,217.765,247.855,217.765,247.855z"></path><path d="M213.955,247.655c-0.064,0.6-1.402,3.405-1.936,2.871c-0.537-0.534-0.869-3.208-0.67-3.208C211.551,247.319,213.955,247.655,213.955,247.655z"></path><path d="M208.343,247.321c0,0-2.472,2.14-3.008,1.604c-0.535-0.536,1.47-1.939,2.07-2.071C208.006,246.72,208.343,247.321,208.343,247.321z"></path></g></g></g></g></g></g></svg>