<svg xmlns="http://www.w3.org/2000/svg" width="500" height="500" version="1.1"><g id="x9082"><g><g><g><path d="M193.861,224.221c0,0,12.723-5.634,31.019-5.383c0.432,0.006,5.528,3.643,9.854,7.887c0,0-7.781-5.473-10.52-5.776C218.59,220.343,198.768,222.585,193.861,224.221z"></path><g><g><path style="fill:#FFFFFF;" d="M195.822,227.858c0,0,7.249,11.812,10.398,11.812c1.646,0,8.949,0.8,14.177-0.182c4.766-0.894,5.634-0.727,5.634-0.727s6.543-2,8.005-6.803c0,0-7.779-7.134-20.522-6.291C200.769,226.51,195.822,227.858,195.822,227.858z"></path><path style="fill:#E4E0F3;" d="M198.32,233.872c0,0,4.906-2.585,14.301-2.81c9.395-0.224,20.253,4.236,20.253,4.236l0.943-3.177c0,0-5.311-4.993-14.707-5.892c-9.395-0.9-23.589,1.125-23.589,1.125L198.32,233.872z"></path></g><g><ellipse cx="218.38" cy="231.864" rx="1.404" ry="1.586"></ellipse><g><g><path style="fill:#A2D7DD;" d="M207.109,225.209c0,0,0.655,10.88,9.99,11.666c9.336,0.784,11.745-4.211,11.767-8.126C228.866,228.749,218.855,224.313,207.109,225.209z"></path><path style="fill:#84B9BF;" d="M208.186,229.583c0,0,15.549-0.437,19.437,2.472l2.074-4.58c0,0-5.334-2.562-12.829-2.763c-7.493-0.2-9.759,0.498-9.759,0.498L208.186,229.583z"></path><ellipse style="fill:#84B9BF;" cx="218.358" cy="229.146" rx="3.493" ry="3.436"></ellipse><ellipse style="opacity:0.5;fill:none;stroke:#000000;" cx="218.358" cy="229.146" rx="3.493" ry="3.436"></ellipse><path d="M206.152,225.01c0,0,1.387,7.698,5.529,9.625c0,0-2.864-2.155-3.495-9.487"></path><path d="M228.659,227.329c0,0-1.424,10.975-14.978,8.917c0,0,12.687,4.687,16.922-7.898"></path></g><path style="fill:#FFFFFF;" d="M213.846,233.936c0,1.038-0.751,1.88-1.676,1.88c-0.925,0-1.675-0.842-1.675-1.88s0.75-0.954,1.675-0.954C213.095,232.981,213.846,232.897,213.846,233.936z"></path></g></g><g><path d="M206.947,238.034c-5.271-3.454-8.119-9.66-8.119-9.66s17.207-2.518,30.416,1.384c6.3,1.861,10.236,5.703,10.236,5.703s-3.274-3.174-6.243-6.027c-1.067-1.025-8.468-4.656-15.244-5.294c-6.742-0.635-14.091,0.052-19.89-0.489c-4.615-0.43-7.695,0.163-7.695,0.163s4.708,3.747,5.677,5.26c3.041,6.063,5.854,9.217,9.227,10.778c4.039,1.87,26.601-3.034,27.99-3.726C221.306,238.306,208.622,239.132,206.947,238.034z"></path><path d="M218.941,224.958c5.777-0.376,19.845,4.123,19.845,4.123l-12.338-1.484"></path></g></g></g><g><path d="M306.141,224.221c0,0-12.725-5.634-31.021-5.383c-0.433,0.006-5.527,3.643-9.853,7.887c0,0,7.78-5.473,10.52-5.776C281.41,220.343,301.233,222.585,306.141,224.221z"></path><g><g><path style="fill:#FFFFFF;" d="M304.179,227.858c0,0-7.248,11.812-10.398,11.812c-1.646,0-8.95,0.8-14.177-0.182c-4.767-0.894-5.634-0.727-5.634-0.727s-6.543-2-8.006-6.803c0,0,7.78-7.134,20.523-6.291S304.179,227.858,304.179,227.858z"></path><path style="fill:#E4E0F3;" d="M301.681,233.872c0,0-4.905-2.585-14.301-2.81c-9.395-0.224-20.253,4.236-20.253,4.236l-0.943-3.177c0,0,5.31-4.993,14.707-5.892c9.395-0.9,23.588,1.125,23.588,1.125L301.681,233.872z"></path></g><g><ellipse cx="281.621" cy="231.864" rx="1.404" ry="1.586"></ellipse><g><g><path style="fill:#A2D7DD;" d="M292.893,225.209c0,0-0.656,10.88-9.992,11.666c-9.335,0.784-11.744-4.211-11.768-8.126C271.133,228.749,281.146,224.313,292.893,225.209z"></path><path style="fill:#84B9BF;" d="M291.814,229.583c0,0-15.548-0.437-19.438,2.472l-2.072-4.58c0,0,5.333-2.562,12.828-2.763c7.493-0.2,9.76,0.498,9.76,0.498L291.814,229.583z"></path><ellipse style="fill:#84B9BF;" cx="281.642" cy="229.146" rx="3.493" ry="3.436"></ellipse><ellipse style="opacity:0.5;fill:none;stroke:#000000;" cx="281.642" cy="229.146" rx="3.493" ry="3.436"></ellipse><path d="M293.849,225.01c0,0-1.387,7.698-5.529,9.625c0,0,2.862-2.155,3.495-9.487"></path><path d="M271.342,227.329c0,0,1.423,10.975,14.978,8.917c0,0-12.686,4.687-16.922-7.898"></path></g><path style="fill:#FFFFFF;" d="M274.522,233.936c0,1.038,0.75,1.88,1.675,1.88c0.926,0,1.676-0.842,1.676-1.88s-0.75-0.954-1.676-0.954C275.272,232.981,274.522,232.897,274.522,233.936z"></path></g></g><g><path d="M293.054,238.034c5.27-3.454,8.117-9.66,8.117-9.66s-17.205-2.518-30.415,1.384c-6.3,1.861-10.236,5.703-10.236,5.703s3.273-3.174,6.243-6.027c1.066-1.025,8.469-4.656,15.243-5.294c6.744-0.635,14.092,0.052,19.892-0.489c4.613-0.43,7.695,0.163,7.695,0.163s-4.709,3.747-5.676,5.26c-3.042,6.063-5.855,9.217-9.228,10.778c-4.038,1.87-26.6-3.034-27.991-3.726C278.694,238.306,291.378,239.132,293.054,238.034z"></path><path d="M281.059,224.958c-5.776-0.376-19.845,4.123-19.845,4.123l12.339-1.484"></path></g></g></g></g></g></g></svg>