<svg xmlns="http://www.w3.org/2000/svg" width="500" height="500" version="1.1"><g id="x9083"><g><g><g><path style="fill:#FFFFFF;" d="M269.796,235.25c0,0,0,10.75,8.75,13.5c8.75,0.75,16.25-0.25,16.25-0.25s4.75-4.75,6.75-10c1.75-5.25,1.25-6.5,1.25-6.5s-10.75-6.75-15.75-5.5S269.796,235.25,269.796,235.25z"></path><path style="fill:#E4E0F3;" d="M302.796,232c0,0-10.75-6.75-15.75-5.5s-17.25,8.75-17.25,8.75s0.003,2.464,0.962,5.333c9.937-2.167,20.904-4.379,31.54-4.583C303.128,232.836,302.796,232,302.796,232z"></path></g><g><g><g><path style="fill:#A2D7DD;" d="M271.104,234.137c0,0.444-0.887,9.611,6.654,13.309c3.549,0,8.873-1.035,8.873-1.035s9.464-3.697,7.394-16.414c-5.324-2.958-11.091-2.07-11.091-2.07L271.104,234.137z"></path><path style="fill:#FFFFFF;" d="M276.132,239.903c0,0,1.33,5.915,7.393,5.62c6.063-0.296,6.507-6.802,6.507-6.802s-1.33,4.436-6.507,4.879C278.35,244.044,276.132,239.903,276.132,239.903z"></path><path style="fill:#84B9BF;" d="M294.024,229.996c-5.324-2.958-11.091-2.07-11.091-2.07l-11.83,6.211c0,0.213-0.191,2.403,0.411,5.037c7.817-2.043,15.196-3.415,22.661-3.591C294.37,233.945,294.368,232.106,294.024,229.996z"></path></g><g><g><path d="M272.139,233.545c0,0-1.035,9.759,5.619,13.9c-4.288-0.591-8.577-6.95-7.688-13.309C271.694,233.101,272.139,233.545,272.139,233.545z"></path><path d="M291.214,229.7c0,0,3.134,3.515,1.775,8.429c-1.923,6.951-7.689,8.429-7.689,8.429s8.068-0.55,10.055-8.725c1.331-5.471-0.443-8.577-0.443-8.577L291.214,229.7z"></path></g><path style="fill:#84B9BF;" d="M282.859,227.879c-3.107,0-5.624,3.397-5.624,7.588c0,4.191,2.517,7.587,5.624,7.587s5.624-3.396,5.624-7.587C288.483,231.276,285.967,227.879,282.859,227.879z M282.859,241.826c-2.199,0-3.983-2.625-3.983-5.866c0-3.24,1.782-5.867,3.983-5.867c2.199,0,3.983,2.626,3.983,5.867C286.843,239.201,285.059,241.826,282.859,241.826z"></path><path style="opacity:0.5;" d="M294.024,229.996c-5.324-2.958-11.091-2.07-11.091-2.07l-11.83,6.211c0,0.213-0.191,2.403,0.411,5.037c7.817-2.043,15.196-3.415,22.661-3.591C294.37,233.945,294.368,232.106,294.024,229.996z"></path><g><path style="fill:none;" d="M282.859,241.826c2.151,0,3.896-2.519,3.97-5.661c-2.583,0.313-5.183,0.74-7.81,1.277C279.468,239.959,281.009,241.826,282.859,241.826z"></path><path style="opacity:0.5;" d="M283.065,227.908c-0.069-0.002-0.137-0.028-0.206-0.028c-1.513,0-2.882,0.818-3.894,2.129l3.968-2.083C282.934,227.926,282.988,227.919,283.065,227.908z"></path><path style="opacity:0.5;" d="M282.859,241.826c-1.851,0-3.392-1.867-3.84-4.384c-0.502,0.102-0.995,0.181-1.5,0.29c0.717,3.077,2.821,5.323,5.34,5.323c2.985,0,5.399-3.147,5.587-7.107c-0.536,0.056-1.079,0.15-1.617,0.217C286.755,239.308,285.011,241.826,282.859,241.826z"></path></g><ellipse cx="282.859" cy="235.468" rx="3.18" ry="4.288"></ellipse></g></g></g><g><path d="M261.457,225.116c0,0,3.992-3.696,7.245-5.323c2.958-0.887,8.43-1.183,8.43-1.183s-7.838-1.035-9.76,0.148C265.449,219.94,261.457,225.116,261.457,225.116z"></path><g><g><g><path d="M261.83,240.122c0,0,2.584-3.62,5.985-6.429c-1.479-0.148-4.141,0.147-4.141,0.147s15.083-8.577,25.138-9.612c4.733-0.296,16.118,5.027,19.815,9.908c-2.07,2.662-9.315,8.577-9.315,8.577l2.366-9.02c0,0-6.803-4.141-14.64-4.437c-6.95,0.444-15.231,5.028-17.745,6.802C265.302,238.277,261.83,240.122,261.83,240.122z"></path><path d="M284.968,224.968c0,0,9.169-4.732,11.979-5.619c-1.479,2.661-4.584,7.394-4.584,7.394L284.968,224.968z"></path><path d="M303.749,231.031c0.443,0,9.02,0,12.421-0.887c-3.254,3.254-11.683,7.542-11.683,7.542L303.749,231.031z"></path></g><path d="M263.822,227.039c0,0,15.38-2.81,25.73-0.887c1.183-1.183,2.218-2.07,2.218-2.07S273.878,222.75,263.822,227.039z"></path></g><g><path d="M277.723,247.072c0,0,11.979,0,15.083-0.74c2.958-0.738,5.176-1.774,5.176-1.774s-3.105,2.691-5.323,2.839C290.439,247.546,277.723,247.072,277.723,247.072z"></path><path d="M284.181,247.219c0,0,1.971,1.724,2.119,1.479c-0.197-1.083-0.345-1.528-0.345-1.528L284.181,247.219z"></path><path d="M289.601,247.271c0,0,2.318,1.627,2.515,1.627c0.296-0.691-0.049-1.627-0.049-1.627H289.601z"></path><path d="M294.038,246.827c0,0,2.661,0.688,3.252,1.183c-0.392-1.431-1.575-2.022-1.575-2.022L294.038,246.827z"></path></g></g></g></g><g><g><path style="fill:#FFFFFF;" d="M230.204,235.25c0,0,0,10.75-8.75,13.5c-8.75,0.75-16.25-0.25-16.25-0.25s-4.75-4.75-6.75-10c-1.75-5.25-1.25-6.5-1.25-6.5s10.75-6.75,15.75-5.5S230.204,235.25,230.204,235.25z"></path><path style="fill:#E4E0F3;" d="M197.204,232c0,0,10.75-6.75,15.75-5.5s17.25,8.75,17.25,8.75s-0.003,2.464-0.962,5.333c-9.937-2.167-20.904-4.379-31.54-4.583C196.872,232.836,197.204,232,197.204,232z"></path></g><g><g><g><path style="fill:#A2D7DD;" d="M228.896,234.137c0,0.444,0.887,9.611-6.654,13.309c-3.549,0-8.873-1.035-8.873-1.035s-9.464-3.697-7.394-16.414c5.324-2.958,11.091-2.07,11.091-2.07L228.896,234.137z"></path><path style="fill:#FFFFFF;" d="M223.868,239.903c0,0-1.33,5.915-7.393,5.62c-6.063-0.296-6.507-6.802-6.507-6.802s1.33,4.436,6.507,4.879C221.65,244.044,223.868,239.903,223.868,239.903z"></path><path style="fill:#84B9BF;" d="M205.976,229.996c5.324-2.958,11.091-2.07,11.091-2.07l11.83,6.211c0,0.213,0.191,2.403-0.411,5.037c-7.817-2.043-15.196-3.415-22.661-3.591C205.63,233.945,205.632,232.106,205.976,229.996z"></path></g><g><g><path d="M227.861,233.545c0,0,1.035,9.759-5.619,13.9c4.288-0.591,8.577-6.95,7.688-13.309C228.306,233.101,227.861,233.545,227.861,233.545z"></path><path d="M208.786,229.7c0,0-3.134,3.515-1.775,8.429c1.923,6.951,7.689,8.429,7.689,8.429s-8.068-0.55-10.055-8.725c-1.331-5.471,0.443-8.577,0.443-8.577L208.786,229.7z"></path></g><path style="fill:#84B9BF;" d="M211.517,235.468c0,4.191,2.517,7.587,5.624,7.587s5.624-3.396,5.624-7.587c0-4.191-2.517-7.588-5.624-7.588S211.517,231.276,211.517,235.468z M213.157,235.96c0-3.24,1.784-5.867,3.983-5.867c2.201,0,3.983,2.626,3.983,5.867c0,3.241-1.784,5.866-3.983,5.866S213.157,239.201,213.157,235.96z"></path><path style="opacity:0.5;" d="M205.976,229.996c5.324-2.958,11.091-2.07,11.091-2.07l11.83,6.211c0,0.213,0.191,2.403-0.411,5.037c-7.817-2.043-15.196-3.415-22.661-3.591C205.63,233.945,205.632,232.106,205.976,229.996z"></path><g><path style="fill:none;" d="M217.141,241.826c-2.151,0-3.896-2.519-3.97-5.661c2.583,0.313,5.183,0.74,7.81,1.277C220.532,239.959,218.991,241.826,217.141,241.826z"></path><path style="opacity:0.5;" d="M216.935,227.908c0.069-0.002,0.137-0.028,0.206-0.028c1.513,0,2.882,0.818,3.894,2.129l-3.968-2.083C217.066,227.926,217.012,227.919,216.935,227.908z"></path><path style="opacity:0.5;" d="M217.141,241.826c1.851,0,3.392-1.867,3.84-4.384c0.502,0.102,0.995,0.181,1.5,0.29c-0.717,3.077-2.821,5.323-5.34,5.323c-2.985,0-5.399-3.147-5.587-7.107c0.536,0.056,1.079,0.15,1.617,0.217C213.245,239.308,214.989,241.826,217.141,241.826z"></path></g><ellipse cx="217.141" cy="235.468" rx="3.18" ry="4.288"></ellipse></g></g></g><g><path d="M238.543,225.116c0,0-3.992-3.696-7.245-5.323c-2.958-0.887-8.43-1.183-8.43-1.183s7.838-1.035,9.76,0.148C234.551,219.94,238.543,225.116,238.543,225.116z"></path><g><g><g><path d="M238.17,240.122c0,0-2.584-3.62-5.985-6.429c1.479-0.148,4.141,0.147,4.141,0.147s-15.083-8.577-25.138-9.612c-4.733-0.296-16.118,5.027-19.815,9.908c2.07,2.662,9.315,8.577,9.315,8.577l-2.366-9.02c0,0,6.803-4.141,14.64-4.437c6.95,0.444,15.231,5.028,17.745,6.802C234.698,238.277,238.17,240.122,238.17,240.122z"></path><path d="M215.032,224.968c0,0-9.169-4.732-11.979-5.619c1.479,2.661,4.584,7.394,4.584,7.394L215.032,224.968z"></path><path d="M196.251,231.031c-0.443,0-9.02,0-12.421-0.887c3.254,3.254,11.683,7.542,11.683,7.542L196.251,231.031z"></path></g><path d="M236.178,227.039c0,0-15.38-2.81-25.73-0.887c-1.183-1.183-2.218-2.07-2.218-2.07S226.122,222.75,236.178,227.039z"></path></g><g><path d="M222.277,247.072c0,0-11.979,0-15.083-0.74c-2.958-0.738-5.176-1.774-5.176-1.774s3.105,2.691,5.323,2.839C209.561,247.546,222.277,247.072,222.277,247.072z"></path><path d="M215.819,247.219c0,0-1.971,1.724-2.119,1.479c0.197-1.083,0.345-1.528,0.345-1.528L215.819,247.219z"></path><path d="M210.399,247.271c0,0-2.318,1.627-2.515,1.627c-0.296-0.691,0.049-1.627,0.049-1.627H210.399z"></path><path d="M205.962,246.827c0,0-2.661,0.688-3.252,1.183c0.392-1.431,1.575-2.022,1.575-2.022L205.962,246.827z"></path></g></g></g></g></g></g></svg>