<svg xmlns="http://www.w3.org/2000/svg" width="500" height="500" version="1.1"><g id="x9084"><g><g><path style="fill:#FFFFFF;" d="M268.805,232.62c0,0-3.426,10.278,4.217,15.286c7.117,2.372,17.645-1.711,17.645-1.711s5.285-1.715,7.393-5.141c3.689-8.697,5.799-13.441,5.799-13.441s-9.752-7.116-20.029-4.48C273.549,225.768,268.805,232.62,268.805,232.62z"></path><path style="fill:#E4E0F3;" d="M283.828,223.132c-10.279,2.636-15.023,9.488-15.023,9.488s-1.018,3.068-0.699,6.667c10.225-5.091,22.338-7.98,33.713-7.01c1.322-3.051,2.039-4.665,2.039-4.665S294.105,220.497,283.828,223.132z"></path><g><path style="fill:#A2D7DD;" d="M273.213,228.969c0,0-4.395,4.594-3.443,9.249c0.947,4.663,6.154,8.937,11.682,7.898c5.527-1.04,11.973-7.34,12.326-13.945c0.354-6.605-6.729-8.298-6.729-8.298S276.273,225.716,273.213,228.969z"></path><path style="fill:#84B9BF;" d="M291.688,238.017c0.611-1.395,2.014-4.369,2.09-5.846c0.354-6.605-6.729-8.298-6.729-8.298s-10.775,1.844-13.836,5.096c0,0-4.395,4.594-3.443,9.249c0.248,1.227,0.807,2.418,1.572,3.5C273.168,232.244,285.217,232.501,291.688,238.017z"></path><path style="opacity:0.5;" d="M291.688,238.017c0.611-1.395,2.014-4.369,2.09-5.846c0.354-6.605-6.729-8.298-6.729-8.298s-10.775,1.844-13.836,5.096c0,0-4.395,4.594-3.443,9.249c0.248,1.227,0.807,2.418,1.572,3.5C273.168,232.244,285.217,232.501,291.688,238.017z"></path><path style="opacity:0.5;fill:#FFFFFF;" d="M287.92,240.512c0.223,2.571-2.799,4.934-6.75,5.279c-3.953,0.347-7.338-1.45-7.564-4.021c-0.227-2.567,2.795-4.933,6.746-5.278C284.305,236.144,287.689,237.944,287.92,240.512z"></path><g><path d="M274.67,228.156c0,0-5.014,7.553-3.6,11.823c1.414,4.27,7.725,5.979,10.381,6.137c-5.684,0.855-10.625-0.728-12.457-6.071s3.512-10.883,3.512-10.883L274.67,228.156z"></path><path d="M286.246,225.092c0,0,2.713-0.438,4.891,2.092c2.182,2.53,2.098,13.646-9.156,18.81c4.119-0.741,12.75-6.406,12.301-15.501c-0.479-6.942-6.959-6.767-6.959-6.767L286.246,225.092z"></path></g><path d="M282.502,234.63c0.063,1.444-0.691,2.651-1.686,2.697c-0.998,0.041-1.855-1.094-1.92-2.539c-0.064-1.444,0.691-2.651,1.686-2.697C281.578,232.047,282.438,233.185,282.502,234.63z"></path></g><path style="fill:#FFFFFF;" d="M293.653,237.207c-0.104,1.122-1.388,1.915-2.862,1.778c-1.483-0.138-2.593-1.153-2.489-2.275c0.104-1.121,1.382-1.915,2.865-1.777C292.642,235.069,293.758,236.085,293.653,237.207z"></path><g><path d="M263.4,239.008c0,0,3.902-12.311,17.271-17.02c10.658-3.751,20.934-0.731,26.428,4.176c-0.453,4.872-6.213,15.805-12.117,18.104c4.139-5.566,6.814-14.888,6.814-14.888s-6.912-6.332-19.322-3.603C270.09,228.499,263.4,239.008,263.4,239.008z"></path><path d="M264.348,231.595c0,0,11.256-9.818,24.314-11.193C280.178,219.873,270.143,224.891,264.348,231.595z"></path><path d="M271.918,247.559c0,0,5.914,1.268,9.652,0.985c3.561-0.276,9.096-2.349,9.096-2.349s-3.242,3.409-9.402,3.784C275.813,250.313,271.918,247.559,271.918,247.559z"></path></g></g><g><path style="fill:#FFFFFF;" d="M231.195,232.62c0,0,3.426,10.278-4.217,15.286c-7.116,2.372-17.645-1.711-17.645-1.711s-5.284-1.715-7.393-5.141c-3.689-8.697-5.798-13.441-5.798-13.441s9.751-7.116,20.029-4.48C226.451,225.768,231.195,232.62,231.195,232.62z"></path><path style="fill:#E4E0F3;" d="M216.172,223.132c10.278,2.636,15.022,9.488,15.022,9.488s1.019,3.068,0.7,6.667c-10.225-5.091-22.339-7.98-33.714-7.01c-1.322-3.051-2.038-4.665-2.038-4.665S205.894,220.497,216.172,223.132z"></path><g><path style="fill:#A2D7DD;" d="M226.787,228.969c0,0,4.395,4.594,3.444,9.249c-0.947,4.663-6.154,8.937-11.682,7.898c-5.527-1.04-11.974-7.34-12.327-13.945c-0.354-6.605,6.729-8.298,6.729-8.298S223.726,225.716,226.787,228.969z"></path><path style="fill:#84B9BF;" d="M208.312,238.017c-0.61-1.395-2.014-4.369-2.09-5.846c-0.354-6.605,6.729-8.298,6.729-8.298s10.775,1.844,13.836,5.096c0,0,4.395,4.594,3.444,9.249c-0.248,1.227-0.807,2.418-1.573,3.5C226.833,232.244,214.784,232.501,208.312,238.017z"></path><path style="opacity:0.5;" d="M208.312,238.017c-0.61-1.395-2.014-4.369-2.09-5.846c-0.354-6.605,6.729-8.298,6.729-8.298s10.775,1.844,13.836,5.096c0,0,4.395,4.594,3.444,9.249c-0.248,1.227-0.807,2.418-1.573,3.5C226.833,232.244,214.784,232.501,208.312,238.017z"></path><path style="opacity:0.5;fill:#FFFFFF;" d="M212.08,240.512c-0.222,2.571,2.799,4.934,6.751,5.279c3.953,0.347,7.338-1.45,7.563-4.021c0.228-2.567-2.794-4.933-6.745-5.278C215.696,236.144,212.311,237.944,212.08,240.512z"></path><g><path d="M225.331,228.156c0,0,5.013,7.553,3.6,11.823c-1.415,4.27-7.725,5.979-10.381,6.137c5.683,0.855,10.624-0.728,12.457-6.071c1.831-5.343-3.513-10.883-3.513-10.883L225.331,228.156z"></path><path d="M213.753,225.092c0,0-2.712-0.438-4.89,2.092c-2.183,2.53-2.098,13.646,9.156,18.81c-4.12-0.741-12.75-6.406-12.301-15.501c0.479-6.942,6.959-6.767,6.959-6.767L213.753,225.092z"></path></g><path d="M217.499,234.63c-0.063,1.444,0.691,2.651,1.686,2.697c0.997,0.041,1.855-1.094,1.919-2.539c0.065-1.444-0.691-2.651-1.685-2.697C218.421,232.047,217.563,233.185,217.499,234.63z"></path></g><path style="fill:#FFFFFF;" d="M231.903,237.207c-0.104,1.122-1.388,1.915-2.862,1.778c-1.483-0.138-2.593-1.153-2.489-2.275c0.104-1.121,1.382-1.915,2.865-1.777C230.892,235.069,232.008,236.085,231.903,237.207z"></path><g><path d="M236.599,239.008c0,0-3.901-12.311-17.271-17.02c-10.657-3.751-20.933-0.731-26.427,4.176c0.453,4.872,6.213,15.805,12.116,18.104c-4.139-5.566-6.814-14.888-6.814-14.888s6.913-6.332,19.322-3.603C229.911,228.499,236.599,239.008,236.599,239.008z"></path><path d="M235.652,231.595c0,0-11.256-9.818-24.314-11.193C219.822,219.873,229.858,224.891,235.652,231.595z"></path><path d="M228.082,247.559c0,0-5.914,1.268-9.652,0.985c-3.561-0.276-9.096-2.349-9.096-2.349s3.242,3.409,9.403,3.784C224.188,250.313,228.082,247.559,228.082,247.559z"></path></g></g></g></g></svg>