<svg xmlns="http://www.w3.org/2000/svg" width="500" height="500" version="1.1"><g id="x9085"><g><g><path d="M216.458,221.287c-1.828-0.43-4.073,0.21-6.319,1.803c-3.1,2.198-6.449,6.502-6.948,11.16c-0.06,0.562-0.057,1.105-0.013,1.632c-0.443,0-0.911,0.009-3.972,2.15c-0.722,0.504-0.898,1.5-0.393,2.223c0.506,0.722,1.502,0.898,2.226,0.393c0.973-0.682,2.245-1.506,2.576-1.645c-0.007,0.003-0.175,0.072-0.431,0.072c0.322,0,0.606-0.119,0.855-0.284c0.318,0.583,0.686,1.136,1.172,1.626c0.536,0.544,1.147,0.972,1.778,1.343l-1.572,4.056c-0.318,0.823,0.093,1.748,0.913,2.066c0.824,0.318,1.75-0.09,2.068-0.913l1.55-4.007c1.606,0.399,3.109,0.449,4.032,0.362c0.336-0.031,0.706-0.105,1.073-0.176l0.676,2.937c0.197,0.86,1.057,1.396,1.916,1.198c0.857-0.198,1.394-1.056,1.197-1.915l-0.746-3.236c2.732-1.304,5.265-3.686,5.57-7.454C224.129,228.978,221.803,222.547,216.458,221.287z M220.486,234.421c-0.342,4.199-5.03,5.556-6.811,5.726c-1.608,0.153-4.597-0.358-6.192-1.972c-0.912-0.918-1.273-2.093-1.117-3.588c0.389-3.647,3.187-7.165,5.623-8.891c1.444-1.024,2.841-1.509,3.732-1.299C219.276,225.232,220.83,230.186,220.486,234.421z"></path><g><g><path style="fill:#A2D7DD;stroke:#000000;stroke-linecap:round;stroke-linejoin:round;" d="M216.089,222.841c-3.885-0.915-10.644,5.322-11.307,11.577c-0.668,6.253,6.252,7.583,9.046,7.317c2.794-0.265,7.85-2.262,8.25-7.186C222.476,229.628,220.611,223.907,216.089,222.841z"></path></g></g></g><g><path d="M276.332,234.68c0.307,3.768,2.838,6.15,5.57,7.454l-0.746,3.236c-0.195,0.858,0.341,1.716,1.197,1.915c0.859,0.198,1.719-0.338,1.916-1.198l0.676-2.937c0.368,0.071,0.737,0.145,1.074,0.176c0.922,0.087,2.425,0.037,4.031-0.362l1.55,4.007c0.317,0.822,1.244,1.231,2.068,0.913c0.82-0.318,1.231-1.243,0.913-2.066l-1.572-4.056c0.631-0.371,1.242-0.798,1.779-1.343c0.485-0.49,0.854-1.042,1.172-1.626c0.248,0.165,0.533,0.284,0.854,0.284c-0.257,0-0.424-0.069-0.431-0.072c0.33,0.138,1.603,0.962,2.576,1.645c0.723,0.506,1.719,0.33,2.225-0.393c0.506-0.724,0.329-1.719-0.393-2.223c-3.061-2.141-3.528-2.15-3.972-2.15c0.044-0.527,0.047-1.07-0.013-1.632c-0.498-4.658-3.848-8.962-6.947-11.16c-2.246-1.592-4.491-2.233-6.319-1.803C278.197,222.547,275.871,228.978,276.332,234.68z M284.279,224.396c0.891-0.21,2.288,0.275,3.732,1.299c2.436,1.726,5.233,5.244,5.622,8.891c0.157,1.495-0.205,2.669-1.116,3.588c-1.596,1.614-4.584,2.125-6.193,1.972c-1.78-0.17-6.468-1.526-6.811-5.726C279.17,230.186,280.725,225.232,284.279,224.396z"></path><g><g><path style="fill:#A2D7DD;stroke:#000000;stroke-linecap:round;stroke-linejoin:round;" d="M283.911,222.841c3.886-0.915,10.644,5.322,11.308,11.577c0.668,6.253-6.252,7.583-9.047,7.317c-2.794-0.265-7.85-2.262-8.25-7.186C277.523,229.628,279.389,223.907,283.911,222.841z"></path></g></g></g></g></g></svg>