<svg xmlns="http://www.w3.org/2000/svg" width="500" height="500" version="1.1"><g id="x9086"><g><g><path style="fill:#FFFFFF;" d="M267.513,230.934c0,0,4.315,3.035,5.248,3.149c0.932,0.121,20.298,1.285,24.846-2.563c3.382-4.785,3.617-6.65,3.617-6.65s-8.284-4.434-16.565-3.849C276.378,221.605,269.961,226.621,267.513,230.934z"></path><path style="fill:#E4E0F3;" d="M299.499,228.625c1.575-2.65,1.725-3.754,1.725-3.754s-8.284-4.434-16.565-3.849c-8.28,0.584-14.697,5.6-17.146,9.913c0,0,0.069,0.05,0.152,0.11C278.07,227.003,288.946,226.838,299.499,228.625z"></path><g><path style="fill:#A2D7DD;" d="M273.771,224.755c-0.368,0.301,0.552,6.996,4.451,8.979c0.854,0.35,5.656,0.235,6.511-0.229c2.313-1.286,4.138-5.602,4.747-8.87C285.706,222.771,276.328,222.656,273.771,224.755z"></path><g><path d="M272.502,224.755c0,0-1.518,6.529,6.414,8.979c-4.432-3.614-4.081-9.329-4.081-9.329L272.502,224.755z"></path><path d="M290.53,224.755c0,0,1.517,6.529-6.414,8.979c4.432-3.614,4.082-9.329,4.082-9.329L290.53,224.755z"></path></g><g><path d="M283.881,227.495c0,1.386-0.94,2.51-2.1,2.51c-1.16,0-2.1-1.124-2.1-2.51c0-1.383,0.939-2.507,2.1-2.507C282.94,224.988,283.881,226.112,283.881,227.495z"></path></g></g><g><g><path d="M262.612,231.635c0,0,3.616-6.879,7.117-10.378c3.849-0.935,17.61-5.134,31.609,1.4c6.185,0.114,10.266-0.235,10.266-0.235s-4.432,4.665-8.981,7.464c-3.739,2.302-6.997,2.684-6.997,2.684s2.681-2.449,3.264-5.833c-0.815-1.05-13.414-3.965-25.896-1.279c-1.284,1.165-4.2,3.847-5.481,5.478C265.18,231.169,262.612,231.635,262.612,231.635z"></path><path d="M273.929,223.005c0,0-8.518,1.629-12.366,2.915c3.031-3.384,10.849-5.599,14.348-5.833C274.629,221.371,273.929,223.005,273.929,223.005z"></path></g><path d="M268.972,219.131c0,0,12.701-3.108,25.595-1.194C289.981,215.23,274.59,214.87,268.972,219.131z"></path></g></g><g><path style="fill:#FFFFFF;" d="M232.487,230.934c0,0-4.315,3.035-5.248,3.149c-0.932,0.121-20.298,1.285-24.846-2.563c-3.382-4.785-3.617-6.65-3.617-6.65s8.284-4.434,16.565-3.849C223.622,221.605,230.039,226.621,232.487,230.934z"></path><path style="fill:#E4E0F3;" d="M200.501,228.625c-1.575-2.65-1.725-3.754-1.725-3.754s8.284-4.434,16.565-3.849c8.28,0.584,14.697,5.6,17.146,9.913c0,0-0.069,0.05-0.152,0.11C221.93,227.003,211.054,226.838,200.501,228.625z"></path><g><path style="fill:#A2D7DD;" d="M226.229,224.755c0.368,0.301-0.552,6.996-4.451,8.979c-0.854,0.35-5.656,0.235-6.511-0.229c-2.313-1.286-4.138-5.602-4.747-8.87C214.294,222.771,223.672,222.656,226.229,224.755z"></path><g><path d="M227.498,224.755c0,0,1.518,6.529-6.414,8.979c4.432-3.614,4.081-9.329,4.081-9.329L227.498,224.755z"></path><path d="M209.47,224.755c0,0-1.517,6.529,6.414,8.979c-4.432-3.614-4.082-9.329-4.082-9.329L209.47,224.755z"></path></g><g><path d="M216.119,227.495c0,1.386,0.94,2.51,2.1,2.51c1.16,0,2.1-1.124,2.1-2.51c0-1.383-0.939-2.507-2.1-2.507C217.06,224.988,216.119,226.112,216.119,227.495z"></path></g></g><g><g><path d="M237.388,231.635c0,0-3.616-6.879-7.117-10.378c-3.849-0.935-17.61-5.134-31.609,1.4c-6.185,0.114-10.266-0.235-10.266-0.235s4.432,4.665,8.981,7.464c3.739,2.302,6.997,2.684,6.997,2.684s-2.681-2.449-3.264-5.833c0.815-1.05,13.414-3.965,25.896-1.279c1.284,1.165,4.2,3.847,5.481,5.478C234.82,231.169,237.388,231.635,237.388,231.635z"></path><path d="M226.071,223.005c0,0,8.518,1.629,12.366,2.915c-3.031-3.384-10.849-5.599-14.348-5.833C225.371,221.371,226.071,223.005,226.071,223.005z"></path></g><path d="M231.028,219.131c0,0-12.701-3.108-25.595-1.194C210.019,215.23,225.41,214.87,231.028,219.131z"></path></g></g></g></g></svg>