<svg xmlns="http://www.w3.org/2000/svg" width="500" height="500" version="1.1"><g id="x009"><g><g><g><g><path style="fill:#FFFFFF;" d="M198.228,240.922c0,0,5.118,6.02,21.375,6.02c7.225-7.225,7.526-24.685,7.526-24.685s-7.225-3.612-14.45-2.107C205.453,221.656,196.722,225.87,198.228,240.922z"></path><path style="fill:#E4E0F3;" d="M197.927,236.707c0,0,11.741-3.312,18.665-5.116c3.914-6.022,6.021-11.441,6.021-11.441s-17.762-6.021-24.987,15.955"></path></g><g><path d="M213.264,222.042c0,0-5.391,4.219-6.293,11.88c-1.216,10.311,3.682,14.449,14.068,13.164c8.456-1.046,11.354-6.479,11.509-10.982c0.301-8.729-4.844-15.988-9.288-15.988C218.817,220.117,213.264,222.042,213.264,222.042z"></path><path style="fill:#A2D7DD;" d="M214.686,224.86c0,0-4.49,3.163-4.771,9.004c-0.28,5.841,2.792,10.953,10.665,9.979c6.411-0.792,8.017-6.814,7.783-10.223c-0.335-4.89-2.731-10.221-6.099-10.221C218.896,223.399,214.686,224.86,214.686,224.86z"></path><path style="fill:#84B9BF;" d="M228.362,233.62c-0.335-4.89-2.731-10.221-6.099-10.221c-3.367,0-7.577,1.461-7.577,1.461s-4.49,3.163-4.771,9.004c-0.084,1.761,0.142,3.45,0.706,4.931c-0.738-6.679,7.667-7.511,11.884-5.824c1.987,0.567,3.971,1.427,5.799,2.565C228.383,234.849,228.402,234.196,228.362,233.62z"></path><ellipse style="fill:#1E1E1E;" cx="220.173" cy="233.835" rx="4.34" ry="6.2"></ellipse><g><ellipse transform="matrix(-0.9387 -0.3446 0.3446 -0.9387 335.5491 512.8928)" style="fill:#FFFFFE;" cx="213.361" cy="226.623" rx="4.515" ry="3.462"></ellipse><ellipse transform="matrix(-0.9133 -0.4073 0.4073 -0.9133 337.9068 550.1628)" style="fill:#FFFFFE;" cx="227.51" cy="239.116" rx="3.462" ry="2.408"></ellipse><path style="fill:#FFFFFE;" d="M224.801,246.643l-3.914-4.516c0,0,0.604,4.514,1.806,4.815C223.896,247.245,224.801,246.643,224.801,246.643z"></path></g></g><g><path d="M199.247,223.508c7.411-8.175,18.249-8.776,25.278-5.856c3.699,1.232,8.625,3.402,8.625,3.402h-4.516l1.806,3.612c0,0-5.607-3.315-8.998-3.315s-14.617-0.348-19.421,5.856c-4.094,5.286-4.087,15.191-4.395,16.425C195.777,243.015,193.637,229.695,199.247,223.508z"></path><path d="M199.734,225.871c0,0-3.312,1.205-5.419,1.806c-0.602-1.505,5.118-5.419,7.828-6.322C201.541,223.162,199.734,225.871,199.734,225.871z"></path></g></g><path d="M217.495,211.721c0,0,9.031-0.301,14.451,3.612C228.934,210.819,221.107,209.915,217.495,211.721z"></path></g><g><g><g><path style="fill:#FFFFFF;" d="M301.773,240.922c0,0-5.118,6.02-21.377,6.02c-7.224-7.225-7.525-24.685-7.525-24.685s7.227-3.612,14.45-2.107C294.547,221.656,303.278,225.87,301.773,240.922z"></path><path style="fill:#E4E0F3;" d="M302.072,236.707c0,0-11.74-3.312-18.663-5.117c-3.913-6.021-6.021-11.44-6.021-11.44s17.762-6.021,24.986,15.955"></path></g><g><path d="M286.737,222.042c0,0,5.391,4.22,6.295,11.881c1.215,10.311-3.684,14.449-14.069,13.164c-8.457-1.046-11.354-6.479-11.509-10.982c-0.301-8.729,4.844-15.988,9.287-15.988C281.183,220.116,286.737,222.042,286.737,222.042z"></path><path style="fill:#A2D7DD;" d="M285.316,224.86c0,0,4.488,3.163,4.771,9.004c0.279,5.841-2.794,10.953-10.664,9.979c-6.412-0.792-8.02-6.814-7.784-10.223c0.336-4.89,2.729-10.221,6.098-10.221C281.104,223.399,285.316,224.86,285.316,224.86z"></path><path style="fill:#84B9BF;" d="M271.639,233.62c0.336-4.89,2.729-10.221,6.098-10.221c3.367,0,7.58,1.461,7.58,1.461s4.488,3.163,4.771,9.004c0.085,1.761-0.143,3.45-0.706,4.931c0.738-6.679-7.667-7.511-11.884-5.824c-1.988,0.567-3.972,1.427-5.8,2.565C271.618,234.849,271.6,234.196,271.639,233.62z"></path><ellipse style="fill:#1E1E1E;" cx="279.826" cy="233.835" rx="4.34" ry="6.2"></ellipse><g><ellipse transform="matrix(-0.9388 -0.3446 0.3446 -0.9388 454.0876 533.9557)" style="fill:#FFFFFE;" cx="274.497" cy="226.623" rx="4.516" ry="3.461"></ellipse><ellipse transform="matrix(-0.9133 -0.4073 0.4073 -0.9133 454.8605 575.0724)" style="fill:#FFFFFE;" cx="288.646" cy="239.116" rx="3.461" ry="2.408"></ellipse><path style="fill:#FFFFFE;" d="M285.938,246.643l-3.914-4.516c0,0,0.604,4.514,1.807,4.815C285.032,247.245,285.938,246.643,285.938,246.643z"></path></g></g><g><path d="M300.755,223.508c-7.412-8.175-18.248-8.776-25.278-5.856c-3.698,1.232-8.625,3.402-8.625,3.402h4.515l-1.805,3.612c0,0,5.606-3.315,8.996-3.315c3.394,0,14.618-0.348,19.421,5.856c4.094,5.286,4.088,15.191,4.396,16.425C304.224,243.015,306.362,229.695,300.755,223.508z"></path><path d="M300.267,225.871c0,0,3.312,1.205,5.419,1.806c0.602-1.505-5.116-5.419-7.828-6.322C298.46,223.162,300.267,225.871,300.267,225.871z"></path></g></g><path d="M282.507,211.721c0,0-9.033-0.301-14.451,3.612C271.064,210.819,278.894,209.915,282.507,211.721z"></path></g></g></g></svg>