<svg xmlns="http://www.w3.org/2000/svg" width="500" height="500" version="1.1"><g id="x9087"><g><g><g><path style="fill:#FFFFFF;" d="M306.841,232.125c0,0-8.473,10.419-16.811,11.809c-8.334,1.389-19.865-2.083-19.865-2.083s-4.029-3.751-3.891-8.475c6.391-2.918,10.977-5.141,20.84-5.141C296.562,228.235,306.841,232.125,306.841,232.125z"></path><path style="fill:#E4E0F3;" d="M266.784,236.537c-0.33-0.977-0.541-2.038-0.51-3.161c6.391-2.918,10.977-5.141,20.84-5.141c9.447,0,19.727,3.89,19.727,3.89s-1.674,2.054-4.258,4.458C290.427,234.258,278.329,233.752,266.784,236.537z"></path></g><g><path style="fill:#A2D7DD;" d="M293.239,230.12c0.832,1.389-0.695,10.975-9.309,11.392c-8.615,0.417-11.533-9.308-10.141-10.698c1.387-1.389,9.029-3.056,11.807-2.779C288.376,228.313,292.405,228.73,293.239,230.12z"></path><path style="opacity:0.8;" d="M273.79,229.846c1.387-0.79,9.029-1.736,11.807-1.579c2.779,0.158,6.809,0.395,7.643,1.184c0.322,0.306,0.281,1.315-0.383,2.448c-6.156,0.007-12.311,0.079-18.467,0.617C273.39,231.312,273.212,230.172,273.79,229.846z"></path><ellipse cx="282.888" cy="234.356" rx="1.875" ry="2.57"></ellipse><path d="M292.126,229.147c0,0,0.695,9.864-8.195,12.365c5,0.417,11.809-3.057,11.252-11.67C293.378,228.869,292.126,229.147,292.126,229.147z"></path><path d="M275.177,230.898c0,0-0.555,10.142,7.92,10.558c-3.473,1.251-10.977-1.527-10.143-10.003C274.204,230.759,275.177,230.898,275.177,230.898z"></path></g><g><g><path d="M305.749,227.584c-4.674-0.646-9.869-1.533-17.408-1.708c-10.826-0.252-19.438,3.027-19.438,3.027s-6.315,6.286-7.277,7.568c7.332-4.347,18.648-6.237,24.475-5.997c9.191,0.377,18.393,1.886,18.393,1.886s-3.535,8.018-10.789,9.399c-4.576,0.871-23.539-1.042-23.539-1.042s12.959,3.612,22.404,3.056c8.535-0.502,15.697-5.046,17.82-13.299C308.745,229.227,309.188,229.296,305.749,227.584z"></path><path d="M301.28,229.811c0,0,8.057-1.25,10.697-6.391c-7.502,3.335-20.514,4.466-24.82,4.743C292.298,228.997,301.28,229.811,301.28,229.811z"></path><path d="M291.058,242.383l5.824-0.301c-0.273,2.952-1.342,11.337-4.951,17.053C292.706,254.33,291.479,245.226,291.058,242.383z"></path></g><path d="M302.427,226.862c0,0-13.523-3.19-24.254-2.266c-8.035,0.693-17.4,5.448-17.4,5.448s8.402-6.692,16.902-7.409C289.8,221.614,302.427,226.862,302.427,226.862z"></path></g></g><g><g><path style="fill:#FFFFFF;" d="M193.159,232.125c0,0,8.473,10.419,16.811,11.809c8.334,1.389,19.865-2.083,19.865-2.083s4.029-3.751,3.891-8.475c-6.391-2.918-10.977-5.141-20.84-5.141C203.438,228.235,193.159,232.125,193.159,232.125z"></path><path style="fill:#E4E0F3;" d="M233.216,236.537c0.33-0.977,0.541-2.038,0.51-3.161c-6.391-2.918-10.977-5.141-20.84-5.141c-9.447,0-19.727,3.89-19.727,3.89s1.674,2.054,4.258,4.458C209.573,234.258,221.671,233.752,233.216,236.537z"></path></g><g><path style="fill:#A2D7DD;" d="M206.761,230.12c-0.832,1.389,0.695,10.975,9.309,11.392c8.615,0.417,11.533-9.308,10.141-10.698c-1.387-1.389-9.029-3.056-11.807-2.779C211.624,228.313,207.595,228.73,206.761,230.12z"></path><path style="opacity:0.8;" d="M226.21,229.846c-1.387-0.79-9.029-1.736-11.807-1.579c-2.779,0.158-6.809,0.395-7.643,1.185c-0.322,0.306-0.281,1.315,0.383,2.448c6.156,0.007,12.311,0.079,18.467,0.617C226.61,231.312,226.788,230.172,226.21,229.846z"></path><ellipse cx="217.112" cy="234.356" rx="1.875" ry="2.57"></ellipse><path d="M207.874,229.147c0,0-0.695,9.864,8.195,12.365c-5,0.417-11.809-3.057-11.252-11.67C206.622,228.869,207.874,229.147,207.874,229.147z"></path><path d="M224.823,230.898c0,0,0.555,10.142-7.92,10.558c3.473,1.251,10.977-1.527,10.143-10.003C225.796,230.759,224.823,230.898,224.823,230.898z"></path></g><g><g><path d="M194.251,227.584c4.674-0.646,9.869-1.533,17.408-1.708c10.826-0.252,19.438,3.027,19.438,3.027s6.315,6.286,7.277,7.568c-7.332-4.347-18.648-6.237-24.475-5.997c-9.191,0.377-18.393,1.886-18.393,1.886s3.535,8.018,10.789,9.399c4.576,0.871,23.539-1.042,23.539-1.042s-12.959,3.612-22.404,3.056c-8.535-0.502-15.697-5.046-17.82-13.299C191.255,229.227,190.812,229.296,194.251,227.584z"></path><path d="M198.72,229.811c0,0-8.057-1.25-10.697-6.391c7.502,3.335,20.514,4.466,24.82,4.743C207.702,228.997,198.72,229.811,198.72,229.811z"></path><path d="M208.942,242.383l-5.824-0.301c0.273,2.952,1.342,11.337,4.951,17.053C207.294,254.33,208.521,245.226,208.942,242.383z"></path></g><path d="M197.573,226.862c0,0,13.523-3.19,24.254-2.266c8.035,0.693,17.4,5.448,17.4,5.448s-8.402-6.692-16.902-7.409C210.2,221.614,197.573,226.862,197.573,226.862z"></path></g></g></g></g></svg>