<svg xmlns="http://www.w3.org/2000/svg" width="500" height="500" version="1.1"><g id="x9088"><g><g><g><path style="fill:#FFFFFF;" d="M267.995,232.714c0,0,0,5.778,5.057,10.546c3.468,2.312,19.651,1.012,19.651,1.012s4.478-2.746,7.511-8.524c3.18-6.935,3.18-8.236,3.18-8.236l-18.493-3.467C270.452,227.223,267.995,232.714,267.995,232.714z"></path><path style="fill:#E4E0F3;" d="M301.201,233.547c2.189-5.016,2.192-6.035,2.192-6.035l-18.493-3.467c-14.448,3.177-16.905,8.669-16.905,8.669s0.008,1.629,0.761,3.865C279.253,233.154,290.406,232.206,301.201,233.547z"></path></g><g><g><path style="fill:#A2D7DD;" d="M273.137,229.391c0,0-2.493,10.187,2.166,15.28c3.469,0.542,14.304-0.109,14.304-0.109s7.478-6.827,4.659-18.421C290.149,223.431,276.711,225.489,273.137,229.391z"></path><path style="fill:#84B9BF;" d="M293.377,226.032c-3.954-1.734-16.309-0.38-20.317,3.305c-1.733,4.389-0.271,8.506-0.271,8.506s0.874-4.333,5.086-6.812c-0.177,0.458-0.296,0.938-0.296,1.448c0,2.545,2.401,4.605,5.363,4.605c2.964,0,5.364-2.06,5.364-4.605c0-1.02-0.397-1.953-1.051-2.717c5.024,1.397,6.826,6.021,6.826,6.021S294.84,227.982,293.377,226.032z"></path><ellipse style="opacity:0.5;" cx="282.943" cy="233.804" rx="3" ry="3.955"></ellipse><path d="M270.896,230.331c0,0-2.023,10.403,4.912,14.81c-4.335-5.996-2.022-16.036-2.022-16.036L270.896,230.331z"></path><path d="M291.919,226.07c0,0,3.034,2.959,1.156,10.258c-1.644,6.381-6.647,8.958-6.647,8.958s7.081-0.507,8.959-8.888c2.023-6.79,0-10.186,0-10.186L291.919,226.07z"></path></g><ellipse style="fill:#FFFFFF;" cx="271.865" cy="240.444" rx="2.98" ry="2.167"></ellipse><circle style="fill:#FFFFFF;" cx="288.361" cy="230.794" r="1.571"></circle></g><g><path style="fill:#F02336;" d="M286.489,224.912c0,0-16.183,4.335-23.407,10.981c0.434-4.335,7.515-12.57,20.951-15.172c13.438-2.6,25.863,4.045,25.863,4.045l-2.891,4.335L286.489,224.912z"></path><g><path d="M264.166,234.809c0,0,6.502-6.502,14.087-9.753c7.586-3.25,18.423-2.384,22.106-1.3c4.551,1.3,6.72,2.167,6.72,2.167l4.984-2.384c0,0-6.501,11.703-13.004,14.304c1.517-4.335,2.601-9.103,2.601-9.103s-7.151-3.901-18.855-1.518C272.851,229.25,264.166,234.809,264.166,234.809z"></path><path d="M266.839,224.766c0,0,7.947-3.609,13.582-4.768C274.498,219.278,268.283,222.457,266.839,224.766z"></path><path d="M272.546,242.973c0.651,1.229,1.444,1.807,3.974,2.748c1.156,0.43,13.004,0.29,14.304,0c1.301-0.29,2.746-2.384,2.746-2.384s-2.818,0.144-3.757,0.36c-0.939,0.216-2.455,1.01-7.08,1.01C275.725,244.707,273.197,243.263,272.546,242.973z"></path></g></g></g><g><g><path style="fill:#FFFFFF;" d="M232.483,232.714c0,0,0,5.778-5.057,10.546c-3.468,2.312-19.651,1.012-19.651,1.012s-4.478-2.746-7.511-8.524c-3.18-6.935-3.18-8.236-3.18-8.236l18.493-3.467C230.026,227.223,232.483,232.714,232.483,232.714z"></path><path style="fill:#E4E0F3;" d="M199.277,233.547c-2.189-5.016-2.192-6.035-2.192-6.035l18.493-3.467c14.448,3.177,16.905,8.669,16.905,8.669s-0.008,1.629-0.761,3.865C221.226,233.154,210.072,232.206,199.277,233.547z"></path></g><g><g><path style="fill:#A2D7DD;" d="M227.342,229.391c0,0,2.493,10.187-2.166,15.28c-3.469,0.542-14.304-0.109-14.304-0.109s-7.478-6.827-4.659-18.421C210.329,223.431,223.768,225.489,227.342,229.391z"></path><path style="fill:#84B9BF;" d="M207.102,226.032c3.954-1.734,16.309-0.38,20.317,3.305c1.733,4.389,0.271,8.506,0.271,8.506s-0.874-4.333-5.086-6.812c0.177,0.458,0.296,0.938,0.296,1.448c0,2.545-2.401,4.605-5.363,4.605c-2.964,0-5.364-2.06-5.364-4.605c0-1.02,0.397-1.953,1.051-2.717c-5.024,1.397-6.826,6.021-6.826,6.021S205.639,227.982,207.102,226.032z"></path><ellipse style="opacity:0.5;" cx="217.535" cy="233.804" rx="3" ry="3.955"></ellipse><path d="M229.582,230.331c0,0,2.023,10.403-4.912,14.81c4.335-5.996,2.022-16.036,2.022-16.036L229.582,230.331z"></path><path d="M208.56,226.07c0,0-3.034,2.959-1.156,10.258c1.644,6.381,6.647,8.958,6.647,8.958s-7.081-0.507-8.959-8.888c-2.023-6.79,0-10.186,0-10.186L208.56,226.07z"></path></g><ellipse style="fill:#FFFFFF;" cx="208.527" cy="240.444" rx="2.98" ry="2.167"></ellipse><circle style="fill:#FFFFFF;" cx="225.023" cy="230.794" r="1.571"></circle></g><g><path style="fill:#F02336;" d="M213.989,224.912c0,0,16.183,4.335,23.407,10.981c-0.434-4.335-7.515-12.57-20.951-15.172c-13.438-2.6-25.863,4.045-25.863,4.045l2.891,4.335L213.989,224.912z"></path><g><path d="M236.313,234.809c0,0-6.502-6.502-14.087-9.753c-7.586-3.25-18.423-2.384-22.106-1.3c-4.551,1.3-6.72,2.167-6.72,2.167l-4.984-2.384c0,0,6.501,11.703,13.004,14.304c-1.517-4.335-2.601-9.103-2.601-9.103s7.151-3.901,18.855-1.518C227.628,229.25,236.313,234.809,236.313,234.809z"></path><path d="M233.64,224.766c0,0-7.947-3.609-13.582-4.768C225.98,219.278,232.195,222.457,233.64,224.766z"></path><path d="M227.933,242.973c-0.651,1.229-1.444,1.807-3.974,2.748c-1.156,0.43-13.004,0.29-14.304,0c-1.301-0.29-2.746-2.384-2.746-2.384s2.818,0.144,3.757,0.36c0.939,0.216,2.455,1.01,7.08,1.01C224.754,244.707,227.281,243.263,227.933,242.973z"></path></g></g></g></g></g></svg>