<svg xmlns="http://www.w3.org/2000/svg" width="500" height="500" version="1.1"><g id="x9089"><g><g><g><g><path style="fill:#FFFFFF;" d="M269.718,232.497c0,0.117,3.168,10.519,11.183,12.943c3.012,0.822,5.359,0.547,5.359,0.547s10.793-1.525,15.758-5.905c5.203-4.849,6.492-10.793,6.492-10.793s-11.966-3.167-21.391-3.441C277.693,225.574,269.718,232.497,269.718,232.497z"></path><path style="fill:#E4E0F3;" d="M305.547,235.836c2.274-3.501,2.963-6.547,2.963-6.547s-11.966-3.167-21.391-3.441c-9.426-0.274-17.401,6.648-17.401,6.648c0,0.045,0.482,1.642,1.532,3.713C282.223,231.135,294.046,232.377,305.547,235.836z"></path></g><g><path style="fill:#A2D7DD;" d="M273.37,230.619c0,0-0.743,11.576,10.246,12.788c6.53-1.407,13.688-4.536,13.647-14.156c-5.122-1.955-13.961-1.291-13.961-1.291S273.37,230.502,273.37,230.619z"></path><g><circle style="fill:#84B9BF;" cx="283.598" cy="233.298" r="3.148"></circle><path style="opacity:0.5;" d="M283.596,233.904c-0.767,0-1.384-0.623-1.384-1.389c0-0.766,0.617-1.388,1.384-1.388c0.768,0,1.388,0.621,1.388,1.388C284.983,233.282,284.363,233.904,283.596,233.904z"></path></g><g><path style="opacity:0.5;fill:#FFFFFF;" d="M276.029,235.703c-0.272,0.469,0.469,2.073,1.214,1.956c0.743-0.118,2.618-1.995,2.462-2.229C279.55,235.194,276.303,235.234,276.029,235.703z"></path><path style="opacity:0.8;fill:#FFFFFF;" d="M278.182,238.753c-0.079-0.273,1.446-1.564,2.582-2.034c1.133-0.469,1.171,0.47,3.009,0.47c1.84,0,3.049-1.134,3.285-1.056c0.234,0.079,2.387,1.955,2.19,2.542c-0.195,0.587-2.307,2.347-6.141,2.347C279.277,241.021,278.259,239.027,278.182,238.753z"></path><path style="opacity:0.5;fill:#FFFFFF;" d="M291.086,236.797c0,0-1.955-1.642-1.798-1.994c0.156-0.352,2.854,0.743,2.892,0.977C292.22,236.015,291.633,236.719,291.086,236.797z"></path></g><g><path d="M271.376,231.441c0,0,0.549,10.949,12.123,11.965c-10.011-3.207-9.932-13.139-9.932-13.139L271.376,231.441z"></path><path d="M297.891,229.72c0,0,0.547,12.866-14.156,13.648c11.85-2.464,11.652-14.196,11.652-14.196L297.891,229.72z"></path></g></g><g><g><path d="M307.153,229.381c0,0-1.98,7.092-6.778,10.845c-1.771,1.564-5.108,3.18-7.455,4.275c1.043-0.313,4.328-0.469,10.271-3.91c5.944-3.442,7.302-11.21,7.302-11.21H307.153z"></path><path d="M288.485,245.396c0,0,1.312,1.924,0.472,3.955c-1.251-2.502-2.394-3.482-2.394-3.482L288.485,245.396z"></path><path d="M280.772,245.518c0,0,0.36,0.524,1.195,0.575c0.838,0.051,0.89-0.365,0.89-0.365s-0.418-0.417-0.89-0.417C281.499,245.311,280.772,245.518,280.772,245.518z"></path><path d="M285.152,245.909c0,0,1.979,0.574,3.491,0.209c1.514-0.366,3.599-1.408,3.599-1.408s-2.608,0.628-4.225,0.835C286.404,245.752,285.152,245.909,285.152,245.909z"></path><path d="M284.577,246.144c0,0-0.392-0.704-0.196-0.899c0.196-0.196,1.252,0.665,1.018,0.899S284.694,246.535,284.577,246.144z"></path><path d="M283.248,246.3c0,0-0.391-0.704-0.195-0.899c0.195-0.196,1.25,0.665,1.018,0.899C283.835,246.535,283.366,246.691,283.248,246.3z"></path></g><g><path d="M264.089,235.951c0-0.626,3.128-3.754,5.005-5.006c-3.129,1.878-5.212,1.878-8.968,1.668c3.756-1.877,12.304-6.881,18.353-8.55c6.051-1.669,20.438-0.209,25.236,1.668c4.799,1.877,9.179,2.92,9.179,2.92l-5.214,2.253c0,0-18.355-2.253-25.238-1.836C272.989,229.643,264.089,235.951,264.089,235.951z"></path><path d="M278.041,224.667c0,0-0.334-4,0.334-7.333c1.332,4.333,4,7.333,4,7.333H278.041z"></path><path d="M270.188,228.313c0,0-2.894,0.625-5.945-0.314c2.815-0.078,12.278-3.284,12.278-3.284L270.188,228.313z"></path><path d="M291.304,223.854c0,0,4.85-1.329,7.587-5.24c0.235,2.893-2.425,6.335-2.815,6.57C295.682,225.418,291.304,223.854,291.304,223.854z"></path></g></g></g><path d="M278.53,218.431c0,0,10.892-1.521,18.771,1.981c6.101,2.711,8.759,7.091,8.759,7.091l2.453,0.208c0,0-2.991-5.44-10.379-8.708C289.53,215.2,278.53,218.431,278.53,218.431z"></path></g><g><g><g><path style="fill:#FFFFFF;" d="M230.281,232.497c0,0.117-3.166,10.519-11.183,12.943c-3.011,0.822-5.357,0.547-5.357,0.547s-10.794-1.525-15.76-5.905c-5.202-4.849-6.491-10.793-6.491-10.793s11.966-3.167,21.391-3.441S230.281,232.497,230.281,232.497z"></path><path style="fill:#E4E0F3;" d="M194.452,235.836c-2.274-3.501-2.962-6.547-2.962-6.547s11.966-3.167,21.391-3.441s17.4,6.648,17.4,6.648c0,0.045-0.481,1.642-1.532,3.713C217.777,231.135,205.954,232.377,194.452,235.836z"></path></g><g><path style="fill:#A2D7DD;" d="M226.63,230.619c0,0,0.742,11.576-10.247,12.788c-6.529-1.407-13.688-4.536-13.647-14.156c5.123-1.955,13.961-1.291,13.961-1.291S226.63,230.502,226.63,230.619z"></path><g><circle style="fill:#84B9BF;" cx="216.402" cy="233.298" r="3.148"></circle><circle style="opacity:0.5;" cx="216.402" cy="232.515" r="1.386"></circle></g><g><path style="opacity:0.5;fill:#FFFFFF;" d="M223.97,235.703c0.273,0.469-0.469,2.073-1.213,1.956c-0.742-0.118-2.618-1.995-2.463-2.229C220.45,235.194,223.696,235.234,223.97,235.703z"></path><path style="opacity:0.8;fill:#FFFFFF;" d="M221.819,238.753c0.077-0.273-1.447-1.564-2.583-2.034c-1.134-0.469-1.171,0.47-3.009,0.47c-1.84,0-3.05-1.134-3.285-1.056c-0.235,0.079-2.386,1.955-2.19,2.542c0.195,0.587,2.307,2.347,6.14,2.347C220.724,241.021,221.741,239.027,221.819,238.753z"></path><path style="opacity:0.5;fill:#FFFFFF;" d="M208.913,236.797c0,0,1.956-1.642,1.799-1.994c-0.155-0.352-2.854,0.743-2.892,0.977C207.78,236.015,208.367,236.719,208.913,236.797z"></path></g><g><path d="M228.623,231.441c0,0-0.549,10.949-12.122,11.965c10.012-3.207,9.932-13.139,9.932-13.139L228.623,231.441z"></path><path d="M202.109,229.72c0,0-0.547,12.866,14.156,13.648c-11.85-2.464-11.652-14.196-11.652-14.196L202.109,229.72z"></path></g></g><g><g><path d="M192.846,229.381c0,0,1.98,7.092,6.778,10.846c1.771,1.564,5.109,3.18,7.456,4.275c-1.044-0.313-4.329-0.469-10.271-3.91c-5.944-3.442-7.302-11.21-7.302-11.21H192.846z"></path><path d="M211.514,245.396c0,0-1.311,1.924-0.471,3.955c1.251-2.502,2.394-3.482,2.394-3.482L211.514,245.396z"></path><path d="M219.228,245.518c0,0-0.36,0.524-1.196,0.575c-0.837,0.051-0.889-0.365-0.889-0.365s0.418-0.417,0.889-0.417C218.501,245.311,219.228,245.518,219.228,245.518z"></path><path d="M214.848,245.909c0,0-1.979,0.574-3.492,0.209c-1.513-0.366-3.598-1.408-3.598-1.408s2.609,0.628,4.225,0.835C213.597,245.752,214.848,245.909,214.848,245.909z"></path><path d="M215.423,246.144c0,0,0.391-0.704,0.195-0.899c-0.195-0.196-1.251,0.665-1.018,0.899C214.836,246.379,215.305,246.535,215.423,246.144z"></path><path d="M216.752,246.3c0,0,0.391-0.704,0.195-0.899c-0.195-0.196-1.251,0.665-1.018,0.899C216.165,246.535,216.635,246.691,216.752,246.3z"></path></g><g><path d="M235.911,235.951c0-0.626-3.129-3.754-5.005-5.006c3.129,1.878,5.212,1.878,8.967,1.668c-3.755-1.877-12.303-6.881-18.352-8.55c-6.051-1.669-20.438-0.209-25.237,1.668c-4.798,1.877-9.178,2.919-9.178,2.919l5.214,2.253c0,0,18.356-2.253,25.238-1.836C227.01,229.643,235.911,235.951,235.911,235.951z"></path><g><path d="M221.959,224.667c0,0,0.333-4-0.333-7.333c-1.333,4.333-4,7.333-4,7.333H221.959z"></path></g><path d="M229.813,228.313c0,0,2.894,0.625,5.944-0.314c-2.815-0.078-12.278-3.284-12.278-3.284L229.813,228.313z"></path><path d="M208.696,223.854c0,0-4.85-1.329-7.587-5.24c-0.235,2.893,2.424,6.335,2.815,6.57C204.317,225.418,208.696,223.854,208.696,223.854z"></path></g></g></g><path d="M221.47,218.431c0,0-10.893-1.521-18.771,1.981c-6.101,2.711-8.759,7.091-8.759,7.091l-2.453,0.208c0,0,2.991-5.44,10.378-8.708C210.47,215.2,221.47,218.431,221.47,218.431z"></path></g></g></g></svg>