<svg xmlns="http://www.w3.org/2000/svg" width="500" height="500" version="1.1"><g id="x9090"><g><g><g><path style="fill:#FFFFFF;" d="M267.893,230.568c0,0-2.701,15.413,15.076,16.538c6.413,0.225,8.213-0.563,8.213-0.563s10.576-2.7,12.714-9.337c-3.149-8.325-10.126-19.801-19.576-20.926C274.868,215.154,267.893,230.568,267.893,230.568z"></path><path style="fill:#E4E0F3;" d="M286.479,225.767c7.001,1.909,13.207,5.796,17.404,11.408c-3.156-8.323-10.127-19.771-19.564-20.895c-9.451-1.125-16.427,14.289-16.427,14.289s-0.277,1.595-0.065,3.792C271.381,228.08,278.925,223.878,286.479,225.767z"></path></g><g><path style="fill:#A2D7DD;" d="M283.476,244.208c0,0-11.472,0.692-11.406-10.741c0.072-12.406,9.231-13.861,11.472-13.861c2.239,0,11.09,2.287,11.089,13.723C294.63,244.764,283.476,244.208,283.476,244.208z"></path><path style="fill:#84B9BF;" d="M272.956,229.856c0,0,1.912-1.419,3.148-1.183c1.238,0.236,2.477,2.484,2.814,2.248c0.337-0.238,5.4-3.667,6.975-3.904s2.25,0.474,3.375,1.419c1.126,0.945,3.826,0,2.926-2.72c-0.899-2.72-5.175-5.205-9.339-5.204C278.692,220.513,274.755,223.588,272.956,229.856z"></path><path style="opacity:0.5;fill:#FFFFFF;" d="M284.994,242.984c0,0-0.788-5.204,0-5.795c0.786-0.591,1.8,1.419,2.025,1.419c0.225,0-0.112-2.248,0.563-2.602c0.676-0.355,3.487,5.322,2.7,5.913C289.494,242.511,285.332,244.165,284.994,242.984z"></path><path style="opacity:0.5;fill:#FFFFFF;" d="M274.417,238.962c0,0,2.363-2.247,3.488-2.484c1.125-0.236-1.801,4.495-2.588,4.022C274.53,240.027,274.305,239.791,274.417,238.962z"></path><path style="opacity:0.5;fill:#FFFFFF;" d="M276.478,240.812c0,0,1.818-2.751,2.862-3.249c1.046-0.498-0.785,4.806-1.654,4.532C276.817,241.823,276.547,241.645,276.478,240.812z"></path><path style="fill:#F5E1BB;" d="M283.398,237.784c0,0-4.396,0.331-4.371-5.13c0.029-5.925,3.538-6.621,4.395-6.621c0.858,0,4.249,1.093,4.249,6.554C287.671,238.049,283.398,237.784,283.398,237.784z"></path><path d="M283.568,217.912c-2.549,0-12.971,1.655-13.052,15.769c-0.073,13.01,12.978,12.222,12.978,12.222s12.689,0.628,12.689-12.38C296.184,220.513,286.117,217.912,283.568,217.912z M283.476,244.208c0,0-11.472,0.692-11.406-10.741c0.072-12.406,9.231-13.861,11.472-13.861c2.239,0,11.09,2.287,11.089,13.723C294.63,244.764,283.476,244.208,283.476,244.208z"></path><ellipse style="fill:#FFFFFF;" cx="291.597" cy="239.388" rx="3.656" ry="2.957"></ellipse><ellipse style="fill:#FFFFFF;" cx="273.017" cy="232.425" rx="2.4" ry="2.213"></ellipse></g><g><g><path d="M265.193,226.218c0,0,7.202-11.4,16.952-12.45c9.75-1.051,22.052,8.851,24.753,23.402c-1.053,3.15-6.452,10.049-17.403,9.902c9.151-2.25,12.903-8.552,12.903-8.552s-3.303-16.651-17.102-19.652c-7.528-1.636-14.251,6.551-18.002,15.102c-1.051-3,0.598-8.576,1.722-9.4C267.517,224.643,265.193,226.218,265.193,226.218z"></path><path d="M278.243,215.492c0,0,3.488-3.938,4.275-8.101c0.563,3.713-0.225,6.751-0.225,6.751L278.243,215.492z"></path><path d="M300.07,223.818c0,0,4.275,0.3,10.427-2.551c-0.113,2.588-6.9,5.851-9.6,5.851C299.321,225.43,300.07,223.818,300.07,223.818z"></path><path d="M304.121,231.019c0,0,4.501,4.275,10.351,1.575c-2.251,2.475-7.538,3.713-9.339,3.263C304.121,233.943,304.121,231.019,304.121,231.019z"></path><path d="M300.295,242.832c0.563,0.225,2.477,0.337,4.275,1.349c-2.925,0.45-7.426,1.238-7.426,1.238s0.563,2.362,0.226,3.601c-1.352-1.463-3.263-2.813-3.263-2.813L300.295,242.832z"></path><path d="M287.737,247.426c0,0,1.271,1.855,1.809,1.596c0.541-0.258,0.108-1.948-0.424-2.07C288.588,246.828,287.935,247.047,287.737,247.426z"></path><path d="M285.454,248.08c0,0,0.577,1.48,1.155,1.323c0.577-0.156,0.458-1.896-0.043-2.113C286.064,247.071,285.54,247.225,285.454,248.08z"></path></g><path d="M266.475,220.808c0,0,5.302-7.951,16.33-9.062C276.564,210.977,269.21,213.712,266.475,220.808z"></path></g></g><g><g><path style="fill:#FFFFFF;" d="M232.105,230.568c0,0,2.701,15.413-15.076,16.538c-6.412,0.225-8.213-0.563-8.213-0.563s-10.576-2.7-12.714-9.337c3.149-8.325,10.126-19.801,19.577-20.926C225.131,215.154,232.105,230.568,232.105,230.568z"></path><path style="fill:#E4E0F3;" d="M213.52,225.767c-7.002,1.909-13.208,5.796-17.405,11.408c3.156-8.323,10.128-19.771,19.565-20.895c9.451-1.125,16.426,14.289,16.426,14.289s0.277,1.595,0.066,3.792C228.617,228.08,221.074,223.878,213.52,225.767z"></path></g><g><path style="fill:#A2D7DD;" d="M205.369,233.328c-0.002-11.436,8.85-13.723,11.088-13.723c2.24,0,11.4,1.456,11.473,13.861c0.064,11.434-11.406,10.741-11.406,10.741S205.369,244.764,205.369,233.328z"></path><path style="fill:#84B9BF;" d="M227.043,229.856c0,0-1.912-1.419-3.148-1.183c-1.238,0.236-2.477,2.484-2.814,2.248c-0.338-0.238-5.4-3.667-6.975-3.904s-2.25,0.474-3.375,1.419c-1.127,0.945-3.826,0-2.926-2.72c0.898-2.72,5.174-5.205,9.338-5.204C221.307,220.513,225.244,223.588,227.043,229.856z"></path><path style="opacity:0.5;fill:#FFFFFF;" d="M215.004,242.984c0,0,0.789-5.204,0-5.795c-0.785-0.591-1.799,1.419-2.025,1.419c-0.225,0,0.113-2.248-0.563-2.602c-0.676-0.355-3.486,5.322-2.699,5.913C210.504,242.511,214.666,244.165,215.004,242.984z"></path><path style="opacity:0.5;fill:#FFFFFF;" d="M225.582,238.962c0,0-2.363-2.247-3.488-2.484c-1.125-0.236,1.801,4.495,2.588,4.022C225.469,240.027,225.693,239.791,225.582,238.962z"></path><path style="opacity:0.5;fill:#FFFFFF;" d="M223.521,240.812c0,0-1.818-2.751-2.863-3.249c-1.045-0.498,0.785,4.806,1.654,4.532C223.182,241.823,223.451,241.645,223.521,240.812z"></path><path style="fill:#F5E1BB;" d="M212.328,232.587c0-5.461,3.391-6.554,4.248-6.554s4.365,0.696,4.395,6.621c0.025,5.461-4.371,5.13-4.371,5.13S212.328,238.049,212.328,232.587z"></path><path d="M203.814,233.522c0,13.008,12.689,12.38,12.689,12.38s13.051,0.788,12.979-12.222c-0.082-14.113-10.504-15.769-13.053-15.769S203.814,220.513,203.814,233.522z M205.369,233.328c-0.002-11.436,8.85-13.723,11.088-13.723c2.24,0,11.4,1.456,11.473,13.861c0.064,11.434-11.406,10.741-11.406,10.741S205.369,244.764,205.369,233.328z"></path><ellipse style="fill:#FFFFFF;" cx="208.401" cy="239.388" rx="3.656" ry="2.957"></ellipse><ellipse style="fill:#FFFFFF;" cx="226.982" cy="232.425" rx="2.4" ry="2.213"></ellipse></g><g><g><path d="M234.805,226.218c0,0-7.201-11.4-16.951-12.45c-9.75-1.051-22.053,8.851-24.754,23.402c1.053,3.15,6.452,10.049,17.404,9.902c-9.152-2.25-12.904-8.552-12.904-8.552s3.303-16.651,17.102-19.652c7.529-1.636,14.252,6.551,18.002,15.102c1.051-3-0.598-8.576-1.721-9.4C232.482,224.643,234.805,226.218,234.805,226.218z"></path><path d="M221.756,215.492c0,0-3.488-3.938-4.275-8.101c-0.564,3.713,0.225,6.751,0.225,6.751L221.756,215.492z"></path><path d="M199.928,223.818c0,0-4.275,0.3-10.427-2.551c0.113,2.588,6.9,5.851,9.6,5.851C200.677,225.43,199.928,223.818,199.928,223.818z"></path><path d="M195.877,231.019c0,0-4.501,4.275-10.351,1.575c2.251,2.475,7.538,3.713,9.339,3.263C195.877,233.943,195.877,231.019,195.877,231.019z"></path><path d="M199.703,242.832c-0.563,0.225-2.477,0.337-4.275,1.349c2.925,0.45,7.426,1.238,7.426,1.238s-0.563,2.362-0.226,3.601c1.352-1.463,3.263-2.813,3.263-2.813L199.703,242.832z"></path><path d="M212.262,247.426c0,0-1.271,1.855-1.809,1.596c-0.541-0.258-0.109-1.948,0.424-2.07C211.41,246.828,212.064,247.047,212.262,247.426z"></path><path d="M214.545,248.08c0,0-0.578,1.48-1.156,1.323c-0.576-0.156-0.457-1.896,0.043-2.113C213.934,247.071,214.459,247.225,214.545,248.08z"></path></g><path d="M233.523,220.808c0,0-5.301-7.951-16.33-9.062C223.434,210.977,230.789,213.712,233.523,220.808z"></path></g></g></g></g></svg>