<svg xmlns="http://www.w3.org/2000/svg" width="500" height="500" version="1.1"><g id="x9091"><g><g><path style="fill:#FFFFFF;" d="M268.797,228.833c0,0-3.5,3.417-4.166,4.667c3,2.917,13.918,5.334,17.334,5.667c4.582,0.75,10-1.25,10-1.25s1.666-1.75,2.332-2.917c3.25-2.417,5.168-7.333,5.418-11.167C295.797,224.083,268.797,228.833,268.797,228.833z"></path><path style="fill:#E4E0F3;" d="M268.797,228.833c0,0-3.5,3.417-4.166,4.667c0.445,0.433,1.08,0.854,1.824,1.259c10.311-1.609,20.83-3.431,31.449-4.344c1.051-2.135,1.676-4.515,1.811-6.582C295.797,224.083,268.797,228.833,268.797,228.833z"></path><g><path style="fill:#A2D7DD;" d="M273.002,229.699c0,0.662,4.137,9.067,10.756,8.175c6.619-0.894,8.938-12.313,8.938-12.313L273.002,229.699z"></path><path style="fill:#84B9BF;" d="M273.002,229.699c0,0.262,0.656,1.738,1.85,3.368c5.291-0.927,10.729-1.89,16.152-2.333c1.191-2.721,1.691-5.173,1.691-5.173L273.002,229.699z"></path><g><g><path d="M271.016,229.931c0,0,2.316,6.454,11.584,7.943c-6.785-2.813-8.936-8.439-8.936-8.439L271.016,229.931z"></path><path d="M291.537,225.629c0,0.662,0,9.432-7.779,12.245c3.973,0.497,10.592-3.806,10.426-12.742C293.191,225.132,291.537,225.629,291.537,225.629z"></path></g><circle cx="282.187" cy="230.112" r="2.565"></circle></g></g><g><g><path d="M290.047,218.611c0,0,8.936,1.324,11.418,3.309c0.828-0.496,2.482,0.166,2.482,0.166s-5.793-4.468-8.273-4.634C293.191,217.288,290.047,218.611,290.047,218.611z"></path><g><path d="M263.9,227.878c0,0,3.311,1.158,4.965,1.82c1.654,0.662,10.592,0,17.541-1.82c6.951-1.821,11.914-3.972,19.693-4.303c-0.994-1.158-2.318-2.317-2.318-2.317s-14.396,2.482-20.023,3.641C278.133,226.058,263.9,227.878,263.9,227.878z"></path><path d="M272.01,228.541c0,0-5.627,3.64-7.117,4.633c1.16-3.144,2.484-4.799,2.484-4.799L272.01,228.541z"></path></g><path d="M299.313,225.893c0,0,0.318,6.274-5.791,9.432c3.807-0.331,5.957-2.482,6.949-4.964C301.465,227.878,299.313,225.893,299.313,225.893z"></path><path d="M265.006,233.514c0,0,1.158,2.979,3.311,3.641c2.15,0.661,5.398,1.595,12.898,2.179C274.215,238.083,267.465,235.667,265.006,233.514z"></path><path d="M271.222,241.75c-3.334-4.5-5.5-9.167-5.5-9.167l-2.5,0.667C263.222,233.25,268.056,239.917,271.222,241.75z"></path><path d="M281.607,238.966c0,0,1.115,0.872,2.273,1.368c1.158,0.497,10.084-1,14.109-4.843C287.547,240.417,281.607,238.966,281.607,238.966z"></path><g><path d="M299.242,236.314c0,0-0.443-1.108,0.223-1.33c0.664-0.222,4.525,2.517,4.082,2.849C303.104,238.166,299.465,237.09,299.242,236.314z"></path><path d="M301.744,234.602c0,0-0.977-0.687-0.539-1.234c0.438-0.549,4.699,0.197,4.51,0.716C305.525,234.605,302.354,235.131,301.744,234.602z"></path></g></g></g></g><g><path style="fill:#FFFFFF;" d="M231.203,228.833c0,0,3.501,3.417,4.167,4.667c-3,2.917-13.918,5.334-17.334,5.667c-4.583,0.75-10-1.25-10-1.25s-1.666-1.75-2.333-2.917c-3.25-2.417-5.167-7.333-5.417-11.167C204.203,224.083,231.203,228.833,231.203,228.833z"></path><path style="fill:#E4E0F3;" d="M231.203,228.833c0,0,3.501,3.417,4.167,4.667c-0.445,0.433-1.081,0.854-1.825,1.259c-10.31-1.609-20.83-3.431-31.448-4.344c-1.052-2.135-1.676-4.515-1.811-6.582C204.203,224.083,231.203,228.833,231.203,228.833z"></path><g><path style="fill:#A2D7DD;" d="M226.998,229.699c0,0.662-4.137,9.067-10.756,8.175c-6.619-0.894-8.937-12.313-8.937-12.313L226.998,229.699z"></path><path style="fill:#84B9BF;" d="M226.998,229.699c0,0.262-0.656,1.738-1.849,3.368c-5.292-0.927-10.729-1.89-16.152-2.333c-1.192-2.721-1.691-5.173-1.691-5.173L226.998,229.699z"></path><g><g><path d="M228.984,229.931c0,0-2.316,6.454-11.584,7.943c6.785-2.813,8.936-8.439,8.936-8.439L228.984,229.931z"></path><path d="M208.463,225.629c0,0.662,0,9.432,7.778,12.245c-3.973,0.497-10.591-3.806-10.425-12.742C206.809,225.132,208.463,225.629,208.463,225.629z"></path></g><circle cx="217.814" cy="230.112" r="2.565"></circle></g></g><g><g><path d="M209.954,218.611c0,0-8.937,1.324-11.419,3.309c-0.827-0.496-2.482,0.166-2.482,0.166s5.793-4.468,8.274-4.634C206.809,217.288,209.954,218.611,209.954,218.611z"></path><g><path d="M236.099,227.878c0,0-3.31,1.158-4.964,1.82c-1.655,0.662-10.592,0-17.542-1.82c-6.95-1.821-11.914-3.972-19.692-4.303c0.993-1.158,2.317-2.317,2.317-2.317s14.396,2.482,20.023,3.641C221.868,226.058,236.099,227.878,236.099,227.878z"></path><path d="M227.991,228.541c0,0,5.627,3.64,7.116,4.633c-1.159-3.144-2.483-4.799-2.483-4.799L227.991,228.541z"></path></g><path d="M200.687,225.893c0,0-0.317,6.274,5.792,9.432c-3.807-0.331-5.958-2.482-6.95-4.964C198.535,227.878,200.687,225.893,200.687,225.893z"></path><path d="M234.994,233.514c0,0-1.158,2.979-3.31,3.641c-2.151,0.661-5.398,1.595-12.898,2.179C225.786,238.083,232.536,235.667,234.994,233.514z"></path><path d="M228.778,241.75c3.334-4.5,5.5-9.167,5.5-9.167l2.5,0.667C236.778,233.25,231.944,239.917,228.778,241.75z"></path><path d="M218.393,238.966c0,0-1.115,0.872-2.273,1.368c-1.158,0.497-10.084-1-14.109-4.843C212.453,240.417,218.393,238.966,218.393,238.966z"></path><g><path d="M200.758,236.314c0,0,0.442-1.108-0.223-1.33c-0.664-0.222-4.526,2.517-4.083,2.849C196.896,238.166,200.536,237.09,200.758,236.314z"></path><path d="M198.256,234.602c0,0,0.977-0.687,0.538-1.234c-0.437-0.549-4.698,0.197-4.509,0.716C194.475,234.605,197.647,235.131,198.256,234.602z"></path></g></g></g></g></g></g></svg>