<svg xmlns="http://www.w3.org/2000/svg" width="500" height="500" version="1.1"><g id="x9092"><g><g><g><path style="fill:#FFFFFF;" d="M266.782,234.345c0,0,1.551,6.759,6.931,9.793c9.163,1.366,22.079,1.993,28.552-1.862c5.292-3.152,5.069-10.828,5.069-10.828s-7.173-5.932-19.863-4.552C274.782,228.276,266.782,234.345,266.782,234.345z"></path><path style="fill:#E4E0F3;" d="M306.823,235.51c0.559-2.234,0.511-4.062,0.511-4.062s-7.173-5.932-19.863-4.552c-12.688,1.38-20.688,7.448-20.688,7.448s0.803,2.137,1.551,3.793C281.021,235.853,293.908,233.986,306.823,235.51z"></path></g><g><g><path style="fill:#A2D7DD;" d="M271.221,233.688c0,0,0.52,10.084,8.734,11.02c5.302,0.104,6.965-0.208,6.965-0.208s7.485-1.248,8.421-14.868c-2.702-2.183-9.147-4.574-16.945-2.808C270.597,228.593,271.221,233.688,271.221,233.688z"></path><path style="opacity:0.6;" d="M295.127,234.931c0.154-0.954,0.138-4.185,0.214-5.298c-2.702-2.183-9.147-4.574-16.945-2.808c-7.799,1.768-7.175,6.863-7.175,6.863s0.068,2.137,0.526,3.829C279.236,234.793,287.372,234.695,295.127,234.931z"></path></g><g><path d="M270.12,233.9c0,0-0.146,10.809,9.835,10.809c-8.11-2.808-7.487-11.541-7.487-11.541L270.12,233.9z"></path><path d="M293.574,229.113c0,0,0.104,11.385-7.227,15.595c4.057-1.091,9.773-4.626,10.554-15.387C295.187,229.166,293.574,229.113,293.574,229.113z"></path></g><ellipse cx="281.15" cy="232.024" rx="2.859" ry="3.222"></ellipse></g><g><path d="M271.429,233.896c-7.018,2.027-11.644,1.872-11.644,1.872c1.247-0.832,8.941-5.407,13.1-8.733c3.742-2.495,9.98-5.199,16.219-4.991c6.237,0.208,16.635,1.663,22.458,8.941c-1.664,3.743-6.238,10.813-10.814,12.061c1.873-2.288,2.748-9.598,1.769-10.501c-2.703-2.495-10.815-4.03-18.195-2.703C279.123,230.777,276.755,232.357,271.429,233.896z"></path><g><path d="M291.03,246.897c0,0,0.247,1.132,1.042,1.077c0.793-0.056,0.698-0.75,0.108-1.061C291.592,246.603,291.03,246.897,291.03,246.897z"></path><path d="M293.522,246.246c0,0,0.25,1.132,1.043,1.076c0.793-0.056,0.697-0.75,0.109-1.06C294.085,245.951,293.522,246.246,293.522,246.246z"></path><path d="M298.508,243.75c0.309-0.188,1.171,0.078,1.69,0.546c0.52,0.468,0.467,1.169,0.183,1.507c-0.352,0.413-1.146,0-1.146,0s0.144,0.544-0.13,0.833c-0.441,0.468-0.877,0.021-1.3-0.365c-0.597-0.545-0.701-1.403-0.545-1.715s0.96-0.156,1.039-0.078C298.3,244.478,298.041,244.036,298.508,243.75z"></path></g><path d="M281.2,225.37c-0.465,0-10.29,2.183-15.125,4.211c2.651-3.587,12.475-7.018,20.429-7.018C284.164,223.655,281.2,225.37,281.2,225.37z"></path></g><path d="M258.588,227.086c0,0,7.019-5.771,20.742-7.174C267.946,219.6,262.799,222.407,258.588,227.086z"></path></g><g><g><path style="fill:#FFFFFF;" d="M233.218,234.345c0,0-1.551,6.759-6.931,9.793c-9.164,1.366-22.078,1.993-28.551-1.862c-5.293-3.152-5.069-10.828-5.069-10.828s7.172-5.932,19.862-4.552C225.219,228.276,233.218,234.345,233.218,234.345z"></path><path style="fill:#E4E0F3;" d="M193.177,235.51c-0.558-2.234-0.51-4.062-0.51-4.062s7.172-5.932,19.862-4.552c12.689,1.38,20.688,7.448,20.688,7.448s-0.803,2.137-1.551,3.793C218.978,235.853,206.093,233.986,193.177,235.51z"></path></g><g><g><path style="fill:#A2D7DD;" d="M228.78,233.688c0,0-0.52,10.084-8.734,11.02c-5.302,0.104-6.965-0.208-6.965-0.208s-7.485-1.248-8.422-14.868c2.703-2.183,9.149-4.574,16.947-2.807C229.402,228.594,228.78,233.688,228.78,233.688z"></path><path style="opacity:0.6;" d="M204.874,234.931c-0.156-0.954-0.139-4.185-0.215-5.298c2.703-2.183,9.149-4.574,16.947-2.807c7.797,1.768,7.174,6.862,7.174,6.862s-0.07,2.137-0.527,3.829C220.763,234.793,212.629,234.695,204.874,234.931z"></path></g><g><path d="M229.88,233.9c0,0,0.147,10.809-9.834,10.809c8.11-2.808,7.486-11.541,7.486-11.541L229.88,233.9z"></path><path d="M206.426,229.113c0,0-0.104,11.385,7.226,15.595c-4.056-1.091-9.773-4.626-10.554-15.387C204.814,229.166,206.426,229.113,206.426,229.113z"></path></g><ellipse cx="218.85" cy="232.024" rx="2.859" ry="3.223"></ellipse></g><g><path d="M228.571,233.896c7.019,2.027,11.645,1.871,11.645,1.871c-1.249-0.832-8.942-5.407-13.101-8.733c-3.742-2.495-9.98-5.199-16.218-4.991s-16.635,1.663-22.457,8.941c1.664,3.743,6.238,10.813,10.813,12.061c-1.872-2.288-2.747-9.598-1.768-10.501c2.703-2.495,10.816-4.03,18.194-2.703C220.877,230.777,223.245,232.357,228.571,233.896z"></path><g><path d="M208.971,246.897c0,0-0.249,1.132-1.042,1.077c-0.793-0.056-0.698-0.75-0.109-1.061S208.971,246.897,208.971,246.897z"></path><path d="M206.477,246.246c0,0-0.25,1.132-1.042,1.076c-0.792-0.057-0.698-0.75-0.109-1.061S206.477,246.246,206.477,246.246z"></path><path d="M201.492,243.75c-0.308-0.188-1.17,0.078-1.689,0.546c-0.52,0.468-0.468,1.169-0.182,1.507c0.351,0.413,1.144,0,1.144,0s-0.143,0.544,0.13,0.833c0.442,0.468,0.878,0.021,1.299-0.365c0.599-0.545,0.702-1.403,0.546-1.715c-0.156-0.312-0.961-0.156-1.04-0.078C201.7,244.478,201.96,244.036,201.492,243.75z"></path></g><path d="M218.799,225.37c0.466,0,10.292,2.183,15.126,4.211c-2.651-3.587-12.476-7.018-20.43-7.018C215.835,223.655,218.799,225.37,218.799,225.37z"></path></g><path d="M241.412,227.086c0,0-7.018-5.771-20.742-7.174C232.054,219.6,237.201,222.407,241.412,227.086z"></path></g></g></g></svg>