<svg xmlns="http://www.w3.org/2000/svg" width="500" height="500" version="1.1"><g id="x9093"><g><g><path style="fill:#FFFFFF;" d="M269.102,235.704c0,0,0.295,6.133,5.541,9.164c4.656,1.552,12.27,1.553,18.109-0.738c4.064-3.03,6.799-5.396,6.799-5.396s5.467-7.686,5.91-10.567c-3.104-3.474-12.045-7.465-20.912-5.248C275.68,225.135,269.102,235.704,269.102,235.704z"></path><path style="fill:#E4E0F3;" d="M284.549,222.918c-8.869,2.217-15.447,12.786-15.447,12.786s0.063,1.238,0.604,2.874c10.963-5.147,23.018-8.156,35.336-9.036c0.213-0.522,0.361-0.993,0.42-1.375C302.357,224.692,293.416,220.701,284.549,222.918z"></path><g><g><path style="fill:#A2D7DD;" d="M274.217,229.569c0,0-1.035,12.121,8.277,16.555c3.029,0.073,5.322-1.33,5.322-1.33s10.861-6.133,6.797-21.285C288.037,222.326,278.205,221.883,274.217,229.569z"></path><ellipse transform="matrix(0.995 -0.0996 0.0996 0.995 -22.6806 29.5077)" style="opacity:0.5;fill:#FFFFFF;" cx="284.193" cy="241.911" rx="5.172" ry="3.547"></ellipse><path style="fill:#84B9BF;" d="M295.469,231.361c0.152-2.292-0.063-4.895-0.855-7.852c-6.576-1.183-16.408-1.626-20.396,6.06c0,0-0.262,3.036,0.65,6.625C281.021,233.045,288.301,231.117,295.469,231.361z"></path></g><g><path d="M272.295,231.121c0,0-0.074,13.821,10.641,15.003c-9.311-5.248-8.352-17.294-8.352-17.294L272.295,231.121z"></path><path d="M292.396,223.731c0,0,6.43,13.597-6.652,21.875c5.84-1.699,12.344-7.537,10.273-20.988C294.465,222.77,292.396,223.731,292.396,223.731z"></path></g><ellipse style="opacity:0.8;" cx="283.307" cy="233.264" rx="3.547" ry="4.803"></ellipse><path style="fill:#FFFFFF;" d="M277.543,240.138c0,1.101-1.225,1.995-2.736,1.995c-1.508,0-2.734-0.894-2.734-1.995c0-1.102,1.227-1.996,2.734-1.996C276.318,238.142,277.543,239.036,277.543,240.138z"></path><ellipse style="fill:#FFFFFF;" cx="293.432" cy="237.522" rx="2.734" ry="1.995"></ellipse></g><g><path d="M262.598,237.699c0.594-0.148,5.025-5.322,6.947-8.721c1.922-3.4,5.912-7.834,17.146-9.313c11.232-1.479,16.111,5.321,20.398,5.764c4.285,0.444,7.686,1.035,7.686,1.035l-7.242,2.956c0,0-3.252,7.538-9.313,10.495c4.73-5.174,6.061-11.381,6.061-11.381s-4.881-5.197-15.078-4.435c-15.814,1.183-15.082,9.265-18.623,11.085C265.406,237.846,262.598,237.699,262.598,237.699z"></path><path d="M295.189,220.405c0,0,7.168-1.258,9.828-4.952c-1.92,3.769-5.393,7.612-5.393,7.612L295.189,220.405z"></path><path d="M264.521,232.229c0.219,0,4.729-2.956,7.314-5.321c2.586-2.365,5.766-7.834,13.451-9.091c7.686-1.256,16.334,0.148,20.322,2.662c-1.699-2.587-12.414-5.912-21.137-3.991c-8.721,1.92-11.662,7.927-13.229,9.607C268.215,229.347,264.521,232.229,264.521,232.229z"></path><path d="M278.488,246.493c-3.895-0.715-6.873-1.996-6.873-1.996s8.203,1.331,11.898,1.108c3.396-0.204,9.754-1.255,12.563-4.064c-4.285,3.843-6.799,5.173-12.416,5.468C282.033,247.095,280.076,246.784,278.488,246.493z"></path></g></g><g><path style="fill:#FFFFFF;" d="M230.897,235.704c0,0-0.295,6.133-5.542,9.164c-4.656,1.552-12.269,1.553-18.107-0.738c-4.066-3.03-6.8-5.396-6.8-5.396s-5.468-7.686-5.912-10.567c3.104-3.474,12.047-7.465,20.914-5.248C224.32,225.135,230.897,235.704,230.897,235.704z"></path><path style="fill:#E4E0F3;" d="M215.451,222.918c8.869,2.217,15.446,12.786,15.446,12.786s-0.063,1.238-0.604,2.874c-10.963-5.147-23.017-8.156-35.335-9.036c-0.211-0.522-0.362-0.993-0.421-1.375C197.641,224.692,206.583,220.701,215.451,222.918z"></path><g><g><path style="fill:#A2D7DD;" d="M225.782,229.569c0,0,1.036,12.121-8.277,16.555c-3.029,0.073-5.322-1.33-5.322-1.33s-10.864-6.133-6.799-21.285C211.962,222.326,221.793,221.883,225.782,229.569z"></path><ellipse transform="matrix(-0.995 -0.0996 0.0996 -0.995 406.4454 504.1112)" style="opacity:0.5;fill:#FFFFFF;" cx="215.805" cy="241.911" rx="5.172" ry="3.547"></ellipse><path style="fill:#84B9BF;" d="M204.53,231.361c-0.151-2.292,0.062-4.895,0.854-7.852c6.577-1.183,16.408-1.626,20.397,6.06c0,0,0.261,3.036-0.649,6.625C218.978,233.045,211.7,231.117,204.53,231.361z"></path></g><g><path d="M227.705,231.121c0,0,0.073,13.821-10.642,15.003c9.312-5.248,8.352-17.294,8.352-17.294L227.705,231.121z"></path><path d="M207.602,223.731c0,0-6.429,13.597,6.652,21.875c-5.838-1.699-12.343-7.537-10.273-20.988C205.534,222.77,207.602,223.731,207.602,223.731z"></path></g><ellipse style="opacity:0.8;" cx="216.692" cy="233.264" rx="3.547" ry="4.803"></ellipse><ellipse style="fill:#FFFFFF;" cx="206.568" cy="240.138" rx="2.735" ry="1.995"></ellipse><ellipse style="fill:#FFFFFF;" cx="225.191" cy="237.522" rx="2.735" ry="1.995"></ellipse></g><g><path d="M237.401,237.699c-0.592-0.148-5.025-5.322-6.947-8.721c-1.922-3.4-5.913-7.834-17.146-9.313c-11.234-1.479-16.111,5.321-20.399,5.764c-4.285,0.444-7.684,1.035-7.684,1.035l7.241,2.956c0,0,3.252,7.538,9.312,10.495c-4.729-5.174-6.06-11.381-6.06-11.381s4.88-5.197,15.077-4.435c15.815,1.183,15.084,9.265,18.624,11.085C234.592,237.846,237.401,237.699,237.401,237.699z"></path><path d="M204.81,220.405c0,0-7.168-1.258-9.829-4.952c1.92,3.769,5.395,7.612,5.395,7.612L204.81,220.405z"></path><path d="M235.479,232.229c-0.221,0-4.729-2.956-7.316-5.321c-2.585-2.365-5.764-7.834-13.45-9.091c-7.686-1.256-16.333,0.148-20.323,2.662c1.7-2.587,12.415-5.912,21.136-3.991c8.722,1.92,11.663,7.927,13.229,9.607C231.784,229.347,235.479,232.229,235.479,232.229z"></path><path d="M221.51,246.493c3.895-0.715,6.874-1.996,6.874-1.996s-8.204,1.331-11.899,1.108c-3.397-0.204-9.755-1.255-12.563-4.064c4.286,3.843,6.799,5.173,12.416,5.468C217.964,247.095,219.924,246.784,221.51,246.493z"></path></g></g></g></g></svg>