<svg xmlns="http://www.w3.org/2000/svg" width="500" height="500" version="1.1"><g id="x9094"><g><g><g><path style="fill:#FFFFFF;" d="M267.963,233.75c0,0,1.25,10,9,13.25c5.5,0.5,14.75,0.5,20-2.75c5-4.5,8.25-9.25,6.75-16.25c-8.75-3-26.5-1.25-26.5-1.25L267.963,233.75z"></path><path style="fill:#E4E0F3;" d="M303.713,228c-8.75-3-26.5-1.25-26.5-1.25l-9.25,7c0,0,0.189,1.496,0.865,3.517c11.475-1.385,23.152-2.415,34.791-2.493C304.17,232.744,304.254,230.52,303.713,228z"></path></g><g><g><g><path style="fill:#A2D7DD;" d="M273.463,231c0,0-0.092,12.088,9.58,11.919c9.67-0.169,9.42-7.669,9.17-14.169C286.213,226,278.713,227.25,273.463,231z"></path><path style="opacity:0.6;fill:#84B9BF;" d="M292.213,228.75c-6-2.75-13.5-1.5-18.75,2.25c0,0-0.021,3.244,1.301,6.347c5.58,0.206,11.426-0.756,17.172-1.136C292.402,233.891,292.309,231.247,292.213,228.75z"></path></g><ellipse cx="282.422" cy="235.292" rx="2.625" ry="2.792"></ellipse><g><path d="M272.002,231.396c0,0.246-0.082,11.523,10.537,11.523c-9.631-1.729-7.986-13.417-7.986-13.417L272.002,231.396z"></path><path d="M294.145,229.338c0,0.246,0.906,13.581-11.102,13.581c9.631-1.729,7.984-13.417,7.984-13.417L294.145,229.338z"></path></g></g><path style="fill:#FFFFFF;" d="M290.963,242c0,0-2.5-2.5-2.75-4.5s3-0.75,4,0.75S292.463,241.75,290.963,242z"></path></g><g><g><path d="M260.973,235.079c0,0,8.777-8.118,15.475-10.865c6.477-0.988,27.215-0.766,35.23,1.646c-4.391,1.317-7.023,2.079-6.473,1.862c0.545-0.215,4.248,1.04,6.141,1.539c-3.729,0.988-29.631-0.545-33.797,0.551c-4.174,1.096-15.258,7.789-15.258,7.789c1.811-2.253,2.221-3.077,3.127-4.229C263.113,234.441,260.973,235.079,260.973,235.079z"></path><g><g><path d="M302.539,228.926c0,0.329,2.387,13.91-13.91,17.862c7.656-0.248,18.602-3.952,17.121-18.603C304.68,228.433,302.539,228.926,302.539,228.926z"></path><path d="M295.709,245.142c0.328,0.247,3.045,1.975,3.127,1.152c0.082-0.823-0.822-2.14-0.822-2.14L295.709,245.142z"></path><path d="M297.848,243.413c0.33,0.247,3.047,1.976,3.129,1.152c0.082-0.824-0.824-2.14-0.824-2.14L297.848,243.413z"></path></g><path d="M276.201,246.622c0,0,4.691,0.577,11.77,0.248C281.633,248.434,276.201,246.622,276.201,246.622z"></path></g></g><path d="M274.57,227.311c-0.33,0-9.631,1.646-14.076,3.703c5.434-5.103,16.709-7.325,20.086-7.078C277.367,225.335,274.57,227.311,274.57,227.311z"></path></g><path d="M280.729,219.296c0,0,11.029,1.975,22.799,5.351C298.424,221.765,291.922,219.378,280.729,219.296z"></path></g><g><g><path style="fill:#FFFFFF;" d="M232.037,233.75c0,0-1.25,10-9,13.25c-5.5,0.5-14.75,0.5-20-2.75c-5-4.5-8.25-9.25-6.75-16.25c8.75-3,26.5-1.25,26.5-1.25L232.037,233.75z"></path><path style="fill:#E4E0F3;" d="M196.287,228c8.75-3,26.5-1.25,26.5-1.25l9.25,7c0,0-0.189,1.496-0.865,3.517c-11.475-1.385-23.151-2.415-34.79-2.493C195.831,232.744,195.747,230.52,196.287,228z"></path></g><g><g><g><path style="fill:#A2D7DD;" d="M226.537,231c0,0,0.092,12.088-9.579,11.919s-9.421-7.669-9.171-14.169C213.787,226,221.287,227.25,226.537,231z"></path><path style="opacity:0.6;fill:#84B9BF;" d="M207.787,228.75c6-2.75,13.5-1.5,18.75,2.25c0,0,0.021,3.244-1.3,6.347c-5.581,0.206-11.427-0.756-17.173-1.136C207.597,233.891,207.691,231.247,207.787,228.75z"></path></g><ellipse cx="217.579" cy="235.292" rx="2.625" ry="2.792"></ellipse><g><path d="M227.998,231.396c0,0.246,0.082,11.523-10.536,11.523c9.63-1.729,7.985-13.417,7.985-13.417L227.998,231.396z"></path><path d="M205.856,229.338c0,0.246-0.906,13.581,11.102,13.581c-9.631-1.729-7.984-13.417-7.984-13.417L205.856,229.338z"></path></g></g><path style="fill:#FFFFFF;" d="M209.037,242c0,0,2.5-2.5,2.75-4.5s-3-0.75-4,0.75S207.537,241.75,209.037,242z"></path></g><g><g><path d="M239.028,235.079c0,0-8.777-8.118-15.475-10.865c-6.478-0.988-27.215-0.766-35.23,1.646c4.39,1.317,7.022,2.079,6.473,1.862c-0.546-0.215-4.249,1.04-6.142,1.539c3.729,0.988,29.631-0.545,33.798,0.551c4.173,1.096,15.257,7.789,15.257,7.789c-1.81-2.253-2.221-3.077-3.126-4.229C236.887,234.441,239.028,235.079,239.028,235.079z"></path><g><g><path d="M197.46,228.926c0,0.329-2.387,13.91,13.91,17.862c-7.655-0.248-18.602-3.952-17.121-18.603C195.32,228.433,197.46,228.926,197.46,228.926z"></path><path d="M204.292,245.142c-0.329,0.247-3.045,1.975-3.128,1.152c-0.082-0.823,0.823-2.14,0.823-2.14L204.292,245.142z"></path><path d="M202.153,243.413c-0.331,0.247-3.047,1.976-3.129,1.152c-0.083-0.824,0.823-2.14,0.823-2.14L202.153,243.413z"></path></g><path d="M223.799,246.622c0,0-4.692,0.577-11.771,0.248C218.367,248.434,223.799,246.622,223.799,246.622z"></path></g></g><path d="M225.429,227.311c0.33,0,9.632,1.646,14.076,3.703c-5.433-5.103-16.709-7.325-20.085-7.078C222.632,225.335,225.429,227.311,225.429,227.311z"></path></g><path d="M219.272,219.296c0,0-11.029,1.975-22.8,5.351C201.577,221.765,208.079,219.378,219.272,219.296z"></path></g></g></g></svg>