<svg xmlns="http://www.w3.org/2000/svg" width="500" height="500" version="1.1"><g id="x9096"><g><g><g><g><g><path d="M213.701,220.387c-2.062,0.793,12.894-5.45,23.431,2.123C237.132,222.509,227.896,218.972,213.701,220.387z"></path><path d="M230.034,220.387c0,0,3.677,1.856,6.242,5.217c0,0-6.328-5.04-10.048-5.438"></path><g><path d="M220.563,244.935c0,0-0.031,0.763-0.608,1.028c-0.321-0.133-0.802-0.796-0.802-0.796L220.563,244.935z"></path><path d="M221.9,244.759c0,0-0.182,0.773-0.471,0.795c-0.225-0.055-0.556-0.619-0.556-0.619L221.9,244.759z"></path><g><g><g><path style="fill:#FFF9FF;" d="M198.823,240.547c0,0,8.741,6.032,20.479,4.333c11.739-1.7,12.143-3.891,12.143-3.891s3.303-5.873,3.303-8.665c-2.348-3.642-16.316-6.919-20.073-7.284c-3.755-0.364-18.899,5.583-18.899,5.583L198.823,240.547z"></path><path style="fill:#E4E0F3;" d="M233.368,237.275c0.278-1.591,1.38-3.727,1.38-4.951c-2.348-3.642-16.316-6.919-20.073-7.284c-3.755-0.364-18.899,5.583-18.899,5.583l1.518,6.423C209.257,233.74,221.626,233.279,233.368,237.275z"></path></g><g><path style="fill:#A2D7DD;" d="M205.354,228.72c0,0-0.352,5.462,2.934,10.076c3.288,4.612,5.897,5.68,11.063,5.073c5.166-0.607,7.485-3.981,8.424-7.501c0.938-3.521,0.469-8.74,0.469-8.74s-5.751-4.491-12.794-3.156C208.407,225.807,205.354,228.72,205.354,228.72z"></path><ellipse style="opacity:0.5;fill:#FFF9FF;" cx="218.217" cy="240.474" rx="4.825" ry="3.278"></ellipse><path style="fill:#84B9BF;" d="M207.233,234.949c0,0,7.439-2.653,20.521-0.796c1.283-4.509,0.714-6.957,0.714-6.957s-5.587-3.124-12.257-2.593c-6.67,0.531-10.518,2.653-10.518,2.653L207.233,234.949z"></path><g><ellipse cx="217.908" cy="233.248" rx="1.587" ry="1.71"></ellipse></g><path d="M206.752,227.682c0,0-2.528,11.568,7.693,16.154c-0.351,0.606-3.421-1.105-3.421-1.105s-8.508-4.996-7.097-14.147C204.749,227.49,206.752,227.682,206.752,227.682z"></path><path d="M227.271,226.107c0,0,1.796,9.638-3.463,16.004c1.631,0.722,8.043-5.662,6.669-14.324C228.601,226.209,227.271,226.107,227.271,226.107z"></path></g><path d="M233.454,230.909c-6.84-3.802-8.222-3.522-16.674-3.847c-8.451-0.324-19.967,6.102-19.967,6.102s0.642,2.697,5.26,9.063c-7.354-2.83-10.433-11.141-10.433-11.141s9.196-10.611,25.652-9.064c10.133,0.796,12.313,2.653,15.264,5.173s5.418,5.836,5.418,5.836S235.135,231.882,233.454,230.909z"></path><path d="M208.87,244.484c0,0-0.983,1.678-1.417,1.634c-0.433-0.045-0.446-2.06-0.446-1.929C207.007,244.322,208.87,244.484,208.87,244.484z"></path><path d="M206.882,244.147c0,0-1.874,1.524-2.218,1.435c-0.346-0.088-0.074-1.929,0.141-2.06C205.754,243.961,206.882,244.147,206.882,244.147z"></path><path d="M203.062,242.811c0,0,1.699,0.595,1.699,0.904c0,0.307-2.045,1.033-2.175,0.68C202.455,244.042,202.761,242.944,203.062,242.811z"></path><path d="M200.496,241.485c0,0,1.699,0.595,1.699,0.903c0,0.307-2.045,1.033-2.175,0.68C199.89,242.716,200.195,241.617,200.496,241.485z"></path></g></g><path d="M209.47,244.836l1.282,0.088C210.752,244.924,209.641,247.665,209.47,244.836z"></path><path d="M211.563,245.411l1.774-0.022l-0.406,0.818C212.932,246.207,212.676,246.561,211.563,245.411z"></path></g></g></g><path d="M209.438,223.098c0,0-6.401-0.439-8.049-2.382c0,0,1.104,2.648,3.788,3.442"></path><path d="M200.793,224.808c0,0-4.643,0.132-6.234-1.327c0,0,2.255,3.714,5.703,3.581"></path><path d="M196.283,227.063c0,0-4.643,0.929-6.632-0.928c0,0,0.929,3.183,4.51,3.449"></path></g><g><g><g><path d="M286.299,220.387c2.062,0.793-12.894-5.45-23.431,2.123C262.868,222.509,272.104,218.972,286.299,220.387z"></path><path d="M269.966,220.387c0,0-3.676,1.856-6.242,5.217c0,0,6.328-5.04,10.049-5.438"></path><g><path d="M279.437,244.935c0,0,0.031,0.763,0.609,1.028c0.32-0.133,0.801-0.796,0.801-0.796L279.437,244.935z"></path><path d="M278.101,244.759c0,0,0.182,0.773,0.47,0.795c0.225-0.055,0.556-0.619,0.556-0.619L278.101,244.759z"></path><g><g><g><path style="fill:#FFF9FF;" d="M301.177,240.547c0,0-8.741,6.032-20.479,4.333c-11.739-1.7-12.142-3.891-12.142-3.891s-3.304-5.873-3.304-8.665c2.349-3.642,16.317-6.919,20.073-7.284c3.756-0.364,18.9,5.583,18.9,5.583L301.177,240.547z"></path><path style="fill:#E4E0F3;" d="M266.632,237.275c-0.277-1.591-1.38-3.727-1.38-4.951c2.349-3.642,16.317-6.919,20.073-7.284c3.756-0.364,18.9,5.583,18.9,5.583l-1.519,6.423C290.743,233.74,278.374,233.279,266.632,237.275z"></path></g><g><path style="fill:#A2D7DD;" d="M294.646,228.72c0,0,0.352,5.462-2.934,10.076c-3.288,4.612-5.897,5.68-11.063,5.073c-5.166-0.607-7.486-3.981-8.425-7.501c-0.938-3.521-0.469-8.74-0.469-8.74s5.751-4.491,12.794-3.156C291.593,225.807,294.646,228.72,294.646,228.72z"></path><ellipse style="opacity:0.5;fill:#FFF9FF;" cx="281.783" cy="240.474" rx="4.825" ry="3.278"></ellipse><path style="fill:#84B9BF;" d="M292.767,234.949c0,0-7.439-2.653-20.521-0.796c-1.283-4.509-0.714-6.957-0.714-6.957s5.587-3.124,12.257-2.593c6.67,0.531,10.518,2.653,10.518,2.653L292.767,234.949z"></path><g><ellipse cx="282.092" cy="233.248" rx="1.587" ry="1.71"></ellipse></g><path d="M293.248,227.682c0,0,2.528,11.568-7.692,16.154c0.35,0.606,3.42-1.105,3.42-1.105s8.508-4.996,7.098-14.147C295.251,227.49,293.248,227.682,293.248,227.682z"></path><path d="M272.729,226.107c0,0-1.797,9.638,3.463,16.004c-1.631,0.722-8.043-5.662-6.67-14.324C271.399,226.209,272.729,226.107,272.729,226.107z"></path></g><path d="M266.546,230.909c6.84-3.802,8.222-3.522,16.674-3.847c8.451-0.324,19.967,6.102,19.967,6.102s-0.641,2.697-5.26,9.063c7.354-2.83,10.433-11.141,10.433-11.141s-9.196-10.611-25.652-9.064c-10.132,0.796-12.313,2.653-15.263,5.173c-2.951,2.52-5.418,5.836-5.418,5.836S264.866,231.882,266.546,230.909z"></path><path d="M291.13,244.484c0,0,0.984,1.678,1.417,1.634c0.433-0.045,0.446-2.06,0.446-1.929C292.993,244.322,291.13,244.484,291.13,244.484z"></path><path d="M293.118,244.147c0,0,1.874,1.524,2.219,1.435c0.345-0.088,0.073-1.929-0.142-2.06C294.246,243.961,293.118,244.147,293.118,244.147z"></path><path d="M296.938,242.811c0,0-1.699,0.595-1.699,0.904c0,0.307,2.045,1.033,2.176,0.68S297.239,242.944,296.938,242.811z"></path><path d="M299.505,241.485c0,0-1.7,0.595-1.7,0.903c0,0.307,2.045,1.033,2.175,0.68C300.11,242.716,299.806,241.617,299.505,241.485z"></path></g></g><path d="M290.53,244.836l-1.281,0.088C289.249,244.924,290.359,247.665,290.53,244.836z"></path><path d="M288.437,245.411l-1.774-0.022l0.406,0.818C287.068,246.207,287.325,246.561,288.437,245.411z"></path></g></g></g><path d="M290.562,223.098c0,0,6.402-0.439,8.049-2.382c0,0-1.104,2.648-3.787,3.442"></path><path d="M299.208,224.808c0,0,4.643,0.132,6.233-1.327c0,0-2.255,3.714-5.703,3.581"></path><path d="M303.718,227.063c0,0,4.642,0.929,6.631-0.928c0,0-0.929,3.183-4.51,3.449"></path></g></g><g><g><g><path d="M285.575,220.387c2.062,0.793-12.894-5.45-23.431,2.123C262.145,222.509,271.381,218.972,285.575,220.387z"></path><path d="M269.242,220.387c0,0-3.676,1.856-6.242,5.217c0,0,6.328-5.04,10.049-5.438"></path><g><path d="M278.713,244.935c0,0,0.031,0.763,0.609,1.028c0.32-0.133,0.801-0.796,0.801-0.796L278.713,244.935z"></path><path d="M277.377,244.759c0,0,0.182,0.773,0.47,0.795c0.225-0.055,0.556-0.619,0.556-0.619L277.377,244.759z"></path><g><g><g><path style="fill:#FFF9FF;" d="M300.453,240.547c0,0-8.741,6.032-20.479,4.333c-11.739-1.7-12.142-3.891-12.142-3.891s-3.304-5.873-3.304-8.665c2.349-3.642,16.317-6.919,20.073-7.284c3.756-0.364,18.899,5.583,18.899,5.583L300.453,240.547z"></path><path style="fill:#E4E0F3;" d="M265.908,237.275c-0.277-1.591-1.38-3.727-1.38-4.951c2.349-3.642,16.317-6.919,20.073-7.284c3.756-0.364,18.899,5.583,18.899,5.583l-1.518,6.423C290.02,233.74,277.65,233.279,265.908,237.275z"></path></g><g><path style="fill:#A2D7DD;" d="M294.922,228.72c0,0,0.352,5.462-2.934,10.076c-3.288,4.612-5.897,5.68-11.063,5.073c-5.166-0.607-7.486-3.981-8.425-7.501c-0.938-3.521-0.469-8.74-0.469-8.74s5.751-4.491,12.794-3.156C291.869,225.807,294.922,228.72,294.922,228.72z"></path><ellipse style="opacity:0.5;fill:#FFF9FF;" cx="282.059" cy="240.474" rx="4.825" ry="3.278"></ellipse><path style="fill:#84B9BF;" d="M293.043,234.949c0,0-7.439-2.653-20.521-0.796c-1.283-4.509-0.714-6.957-0.714-6.957s5.587-3.124,12.257-2.593c6.67,0.531,10.518,2.653,10.518,2.653L293.043,234.949z"></path><g><ellipse cx="282.368" cy="233.248" rx="1.587" ry="1.71"></ellipse></g><path d="M293.524,227.682c0,0,2.528,11.568-7.692,16.154c0.35,0.606,3.42-1.105,3.42-1.105s8.508-4.996,7.098-14.147C295.527,227.49,293.524,227.682,293.524,227.682z"></path><path d="M273.006,226.107c0,0-1.797,9.638,3.463,16.004c-1.631,0.722-8.043-5.662-6.67-14.324C271.676,226.209,273.006,226.107,273.006,226.107z"></path></g><path d="M265.822,230.909c6.84-3.802,8.222-3.522,16.674-3.847c8.451-0.324,19.967,6.102,19.967,6.102s-0.641,2.697-5.26,9.063c7.354-2.83,10.433-11.141,10.433-11.141s-9.196-10.611-25.652-9.064c-10.132,0.796-12.313,2.653-15.263,5.173c-2.951,2.52-5.418,5.836-5.418,5.836S264.143,231.882,265.822,230.909z"></path><path d="M290.406,244.484c0,0,0.984,1.678,1.417,1.634c0.433-0.045,0.446-2.06,0.446-1.929C292.27,244.322,290.406,244.484,290.406,244.484z"></path><path d="M292.395,244.147c0,0,1.874,1.524,2.219,1.435c0.345-0.088,0.073-1.929-0.142-2.06C293.522,243.961,292.395,244.147,292.395,244.147z"></path><path d="M296.215,242.811c0,0-1.699,0.595-1.699,0.904c0,0.307,2.045,1.033,2.176,0.68S296.516,242.944,296.215,242.811z"></path><path d="M298.781,241.485c0,0-1.7,0.595-1.7,0.903c0,0.307,2.045,1.033,2.175,0.68C299.387,242.716,299.082,241.617,298.781,241.485z"></path></g></g><path d="M289.807,244.836l-1.281,0.088C288.525,244.924,289.636,247.665,289.807,244.836z"></path><path d="M287.713,245.411l-1.774-0.022l0.406,0.818C286.345,246.207,286.602,246.561,287.713,245.411z"></path></g></g></g><path d="M289.838,223.098c0,0,6.402-0.439,8.049-2.382c0,0-1.104,2.648-3.787,3.442"></path><path d="M298.484,224.808c0,0,4.642,0.132,6.233-1.327c0,0-2.255,3.714-5.703,3.581"></path><path d="M302.993,227.063c0,0,4.643,0.929,6.632-0.928c0,0-0.929,3.183-4.51,3.449"></path></g></g></g></svg>